[Module]
VortexTrackerII=0
Version=3.5
Title=0p-3me+,1d-2me-3me+,4me-3me+
Author=oisee ^ 4d 29.05.2010
NoteTable=4
ChipFreq=1750000
Speed=4
PlayOrder=L0,1,2,3,4,5,6,6,8,9,10,11,12,11,14,15,16,17,18,19,20,21,22,23,24,25,26,27,28,29,30,29,32,33,34

[Ornament1]
L0,0,7,7,12,12

[Ornament2]
L0,0,5,5

[Ornament3]
L0,0,1,1

[Ornament4]
L0,0,7,7

[Ornament5]
L0,0,4,4

[Ornament6]
L0,0,7,7,14,14

[Ornament7]
L0,0,7,7,11,11

[Ornament8]
L0,0,7,7,15,15

[Ornament9]
L0,0,7,7,16,16

[Ornament10]
L0,0,7,7,12,12,19,19

[Ornament11]
L0

[Ornament12]
L0

[Ornament13]
L0

[Ornament14]
L0

[Ornament15]
L0

[Sample1]
TnE +000_ +00_ F_
TnE +000_ +00_ F_
TnE +000_ +00_ F_
TnE +000_ +00_ D_
TnE +000_ +00_ B_
TnE +000_ +00_ B_ L

[Sample2]
TnE +000_ +00_ F_ L

[Sample3]
TnE +001_ +00_ F_
TnE +002_ +00_ F_
TnE +001_ +00_ E_
TnE +002_ +00_ E_
TnE +000_ +00_ E_ L
TnE -001_ +00_ E_
TnE -002_ +00_ E_
TnE -001_ +00_ E_
TnE +000_ +00_ E_
TnE +001_ +00_ E_
TnE +002_ +00_ E_
TnE +001_ +00_ E_

[Sample4]
TnE +002_ +00_ D_
TnE +002_ +00_ D_
TnE +002_ +00_ C_
TnE +002_ +00_ B_
TnE +002_ +00_ A_ L
TnE +002_ +00_ A_
TnE +002_ +00_ A_
TnE +002_ +00_ A_
TnE +002_ +00_ A_
TnE +002_ +00_ A_
TnE +002_ +00_ A_
TnE +002_ +00_ A_

[Sample5]
TnE +000_ +00_ F_
TnE +000_ +00_ F_
tne +000_ +00_ 0_ L

[Sample6]
TnE -001_ +00_ F_ L

[Sample7]
TnE +006_ +00_ F_ L

[Sample8]
tNe +000_ +00_ F_
tNe +000_ +00_ B_
tNe +000_ +00_ 7_
tNe +000_ +00_ 6- L

[Sample9]
TnE +080_ +00_ F_
TnE +100_ +00_ E_
TnE +180_ +00_ E_
TnE +200_ +00_ E_
TnE +240_ +00_ D_
TnE +280_ +00_ D_
TnE +2C0_ +00_ D_
TnE +300_ +00_ C_
TnE +300_ +00_ C_
TnE +340_ +00_ C_
TnE +340_ +00_ C_
TnE +380_ +00_ B_
TnE +380_ +00_ B_
TnE +400_ +00_ B_
TnE +400_ +00_ B_
TnE +480_ +00_ A_
TnE +500_ +00_ 9_
TnE +580_ +00_ 7_
TnE +600_ +00_ 4_
TnE +680_ +00_ 1_
TnE +000_ +00_ 0_ L

[Sample10]
Tne +1C0_ +00_ F_
Tne +280_ +00_ E_
Tne +380_ +00_ C_
Tne +440_ +00_ A_
Tne +480_ +00_ 8_
TnE +000_ +00_ 0_ L

[Sample11]
TNe +200_ -0A_ F_
tNe +000_ +0F_ A_
TNe +200_ -07_ E_
tNe +000_ +0E_ B- L

[Sample12]
TNE +0A0_ +05_ F_
TNE +140_ +02_ D_
TNE +140_ +02_ B_
TNE +100_ +00_ A_ L
TNE +140_ +00_ A_
TNE +200_ +00_ A-

[Sample13]
Tne +200_ +00_ F_
Tne +2C0_ +00_ F_
Tne +380_ +00_ E_
Tne +500_ +00_ C_
Tne +520_ +00_ 9_
tne +000_ +00_ 0_ L

[Sample14]
TNE -100_ +00_ F_
TNE -100_ +00_ D_
TNE -100_ +00_ A_
TNE -100_ +00_ 5_
tne +000_ +00_ 0_ L

[Sample15]
TNE -100_ +00_ 5_
TNE -100_ +00_ 8_
TNE -100_ +00_ B_
TNE -100_ +00_ F_
TNe -100_ +00_ 9- L

[Sample16]
TnE +000_ +00_ C_
TnE +000_ +00_ E_
TnE +000_ +00_ F_
TnE +000_ +00_ F_
TnE +000_ +00_ E_
TnE +000_ +00_ D_
TnE +000_ +00_ C_
TnE +000_ +00_ C_ L
TnE +001_ +00_ C_
TnE +002_ +00_ C_
TnE +003_ +00_ C_
TnE +001_ +00_ C_
TnE +000_ +00_ C_
TnE -001_ +00_ C_
TnE -002_ +00_ C_
TnE -003_ +00_ C_
TnE -001_ +00_ C_
TnE +000_ +00_ C_
TnE +000_ +00_ C_

[Sample17]
Tne +1C0_ +00_ F_
Tne +280_ +00_ D_
Tne +380_ +00_ 7_
TNE +000_ +00_ 0_ L

[Sample18]
TnE -00C_ +00_ 0_ L

[Sample19]
TNe +000_ +00_ F_
TNe +000_ +00_ C_
TNe +000_ +00_ 6_
TNe +000_ +01_ A- L

[Sample20]
TNE +140_ +00_ F_
tNE +000_ +00_ B- L

[Sample21]
tNE +000_ +00_ D_
tNE +000_ +00_ 8_
tNE +000_ +00_ 1_
TNE +000_ +00_ 0_ L

[Sample22]
TnE +000_ +00_ D_ L
TnE +000_ +00_ D_
tne +000_ +00_ 9_
tne +000_ +00_ 9_
TnE +000_ +00_ D_
TnE +000_ +00_ D_
tne +000_ +00_ 9_
tne +000_ +00_ 9_
TnE +000_ +00_ D_
TnE +000_ +00_ D_
TnE +000_ +00_ D_
TnE +000_ +00_ D_
TnE +000_ +00_ D_
TnE +000_ +00_ D_
tne +000_ +00_ 9_
tne +000_ +00_ 9_

[Sample23]
TnE +000_ +00_ F_ L
TnE +010_ +01_ F_
TnE +010_ +01_ F_
TnE +010_ +01_ F_
TnE +010_ +01_ F_
TnE +000_ +00_ F_
TnE +000_ +00_ F_
TnE -010_ -01_ F_
TnE -010_ -01_ F_
TnE -010_ -01_ F_
TnE -010_ -01_ F_
TnE +000_ +00_ F_

[Sample24]
TNe +000_ -01_ C_
TNe +000_ -01_ D_
TNe +000_ -01_ E_
TNe +000_ -01_ F_
TNe +000_ -01_ F_
TNe +000_ -01_ F_
TNe +000_ -01_ F_
TNe +000_ -01_ F_
TNe +000_ -01_ E_
TNe +000_ -01_ E_
TNe +000_ -01_ E_
TNe +000_ -01_ F_
TNe +000_ -01_ F_ L

[Sample25]
TNE +000_ +00_ F_
TNE +000_ +00_ F_ L
TNE +000_ +00_ F_
TNE +000_ +00_ F_
TNE +000_ +00_ F-

[Sample26]
tne +000_ +00_ 0_ L

[Sample27]
TnE +100_ +05_ F_
TnE +200_ +02_ A_
TnE +300_ +02_ 7_
TNE +400_ +00_ 3- L

[Sample28]
tne +000_ +00_ 0_ L

[Sample29]
tnE +000_ +00_ 0_ L

[Sample30]
TNE +000_ +00_ C+ L

[Sample31]
TNe +1C0_ +00_ F_
Tne +280_ +00_ E_
Tne +380_ +00_ C_
Tne +440_ +00_ A_
Tne +480_ +00_ 8_
TnE +000_ +00_ 0_ L

[Pattern0]
....|..|G#3 2F1F ....|C-4 AF.F ....|--- .... ....
....|..|--- .... ....|--- .... ....|--- .... ....
....|..|--- .... ....|--- .... ....|--- .... ....
....|..|--- .... ....|--- .... ....|--- .... ....
 F-4|..|C-4 2F2F ....|C-4 AF.F ....|F-2 2A.F ....
....|..|--- .... ....|--- .... ....|--- .... ....
....|..|G#3 2F1A ....|C-4 AF.A ....|--- .... ....
....|..|--- .... ....|--- .... ....|--- .... ....
 F-4|..|C-4 2F2F ....|C-4 AF.F ....|F-2 2A.F ....
....|..|--- .... ....|--- .... ....|--- .... ....
....|..|C-4 2F2A ....|C-4 AF.A ....|F-2 2F.A ....
....|..|--- .... ....|--- .... ....|--- .... ....
....|..|G#3 2F17 ....|C-4 AF.F ....|R-- .... ....
....|..|--- .... ....|--- .... ....|--- .... ....
....|..|C-4 2F2A ....|C-4 AF.A ....|F-2 2F.A ....
....|..|--- .... ....|--- .... ....|--- .... ....
....|..|C-4 2F27 ....|C-4 AF.F ....|F-2 2F.7 ....
....|..|--- .... ....|--- .... ....|--- .... ....
....|..|R-- .... ....|C-4 AF.A ....|R-- .... ....
....|..|--- .... ....|--- .... ....|--- .... ....
....|..|C-4 2F27 ....|C-4 AF.F ....|F-2 2F.7 ....
....|..|--- .... ....|--- .... ....|--- .... ....
....|..|--- .... ....|C-4 AF.A ....|--- .... ....
....|..|--- .... ....|--- .... ....|--- .... ....
....|..|R-- .... ....|C-4 AF.F ....|R-- .... ....
....|..|--- .... ....|--- .... ....|--- .... ....
....|..|--- .... ....|C-4 AF.A ....|--- .... ....
....|..|--- .... ....|--- .... ....|--- .... ....
....|..|--- .... ....|C-4 AF.F ....|--- .... ....
....|..|--- .... ....|--- .... ....|--- .... ....
....|..|--- .... ....|C-4 AF.A ....|--- .... ....
....|..|--- .... ....|--- .... ....|--- .... ....
....|..|G#3 2F1F ....|C-4 AF.F ....|--- .... ....
....|..|--- .... ....|--- .... ....|--- .... ....
....|..|--- .... ....|C-4 AF.A ....|--- .... ....
....|..|--- .... ....|--- .... ....|--- .... ....
 F-4|..|C-4 2F2F ....|C-4 AF.F ....|F-2 2A.F ....
....|..|--- .... ....|--- .... ....|--- .... ....
....|..|G#3 2F1A ....|C-4 AF.A ....|--- .... ....
....|..|--- .... ....|--- .... ....|--- .... ....
 F-4|..|C-4 2F2F ....|C-4 AF.F ....|F-2 2A.F ....
....|..|--- .... ....|--- .... ....|--- .... ....
....|..|C-4 2F2A ....|C-4 AF.A ....|F-2 2F.A ....
....|..|--- .... ....|--- .... ....|--- .... ....
....|..|G#3 2F17 ....|C-4 AF.F ....|R-- .... ....
....|..|--- .... ....|--- .... ....|--- .... ....
....|..|C-4 2F2A ....|C-4 AF.A ....|F-2 2F.A ....
....|..|--- .... ....|--- .... ....|--- .... ....
....|..|C-4 2F27 ....|C-4 AF.F ....|F-2 2F.7 ....
....|..|--- .... ....|--- .... ....|--- .... ....
....|..|R-- .... ....|C-4 AF.A ....|R-- .... ....
....|..|--- .... ....|--- .... ....|--- .... ....
....|..|C-4 2F27 ....|C-4 AF.F ....|F-2 2F.7 ....
....|..|--- .... ....|--- .... ....|--- .... ....
....|..|--- .... ....|C-4 AF.A ....|--- .... ....
....|..|--- .... ....|--- .... ....|--- .... ....
....|..|R-- .... ....|C-4 AF.F ....|R-- .... ....
....|..|--- .... ....|--- .... ....|--- .... ....
....|..|--- .... ....|C-4 AF.A ....|--- .... ....
....|..|--- .... ....|--- .... ....|--- .... ....
....|..|--- .... ....|C-4 AF.F ....|--- .... ....
....|..|--- .... ....|--- .... ....|--- .... ....
....|..|--- .... ....|C-4 AF.A ....|--- .... ....
....|..|--- .... ....|--- .... ....|--- .... ....

[Pattern1]
....|..|G#3 2F1F ....|C-4 AF.F ....|--- .... ....
....|..|--- .... ....|--- .... ....|--- .... ....
....|..|--- .... ....|C-4 AF.A ....|--- .... ....
....|..|--- .... ....|--- .... ....|--- .... ....
 F-4|..|C-4 2F2F ....|C-4 AF.F ....|F-2 2A.F ....
....|..|--- .... ....|--- .... ....|--- .... ....
....|..|G#3 2F1A ....|C-4 AF.A ....|--- .... ....
....|..|--- .... ....|--- .... ....|--- .... ....
 F-4|..|C-4 2F2F ....|C-4 AF.F ....|F-2 2A.F ....
....|..|--- .... ....|--- .... ....|--- .... ....
....|..|C-4 2F2A ....|C-4 AF.A ....|F-2 2F.A ....
....|..|--- .... ....|--- .... ....|--- .... ....
....|..|G#3 2F17 ....|C-4 AF.F ....|R-- .... ....
....|..|--- .... ....|--- .... ....|--- .... ....
....|..|C-4 2F2A ....|C-4 AF.A ....|F-2 2F.A ....
....|..|--- .... ....|--- .... ....|--- .... ....
....|..|D-3 2F.F ....|C-4 AF.F ....|F-2 2F.7 ....
....|..|D#3 2F.F ....|--- .... ....|--- .... ....
....|..|D-3 2F.F ....|C-4 AF.A ....|R-- .... ....
....|..|R-- .... ....|--- .... ....|--- .... ....
....|..|G-3 2F.F ....|C-4 AF.F ....|F-2 2F.7 ....
....|..|G#3 2F.F ....|--- .... ....|--- .... ....
....|..|G-3 2F.F ....|C-4 AF.A ....|--- .... ....
....|..|R-- .... ....|--- .... ....|--- .... ....
....|..|C-4 2F.F ....|C-4 AF.F ....|R-- .... ....
....|..|C#4 2F.F ....|--- .... ....|--- .... ....
....|..|C-4 2F.F ....|C-4 AF.A ....|--- .... ....
....|..|R-- .... ....|--- .... ....|--- .... ....
....|..|G-3 2F.F ....|C-4 AF.F ....|--- .... ....
....|..|G#3 2F.F ....|--- .... ....|--- .... ....
....|..|G-3 2F.F ....|C-4 AF.A ....|--- .... ....
....|..|R-- .... ....|--- .... ....|--- .... ....
....|..|G#3 2F1F ....|C-4 AF.F ....|--- .... ....
....|..|G#3 2F.7 ....|--- .... ....|--- .... ....
....|..|G-3 2F.7 ....|C-4 AF.A ....|--- .... ....
....|..|R-- .... ....|--- .... ....|--- .... ....
 F-4|..|C-4 2F2F ....|C-4 AF.F ....|F-2 2A.F ....
....|..|C#4 2F.7 ....|--- .... ....|--- .... ....
....|..|C-4 2F.7 ....|C-4 AF.A ....|--- .... ....
....|..|R-- .... ....|--- .... ....|--- .... ....
 F-4|..|C-4 2F2F ....|C-4 AF.F ....|F-2 2A.F ....
....|..|G#3 2F.7 ....|--- .... ....|--- .... ....
....|..|G-3 2F.7 ....|C-4 AF.A ....|F-2 2F.A ....
....|..|R-- .... ....|--- .... ....|--- .... ....
....|..|G#3 2F17 ....|C-4 AF.F ....|R-- .... ....
....|..|--- .... ....|--- .... ....|--- .... ....
....|..|C-4 2F2A ....|C-4 AF.A ....|F-2 2F.A ....
....|..|--- .... ....|--- .... ....|--- .... ....
....|..|D-3 2F.F ....|C-4 AF.F ....|F-2 2F.7 ....
....|..|D#3 2F.F ....|--- .... ....|--- .... ....
....|..|D-3 2F.F ....|C-4 AF.A ....|R-- .... ....
....|..|R-- .... ....|--- .... ....|--- .... ....
....|..|G-3 2F.F ....|C-4 AF.F ....|F-2 2F.7 ....
....|..|G#3 2F.F ....|--- .... ....|--- .... ....
....|..|G-3 2F.F ....|C-4 AF.A ....|--- .... ....
....|..|R-- .... ....|--- .... ....|--- .... ....
....|..|G-4 2F3F ....|C-4 AF.F ....|R-- .... ....
....|..|R-- .... ....|--- .... ....|--- .... ....
....|..|G-3 2F.A ....|C-4 AF.A ....|--- .... ....
....|..|G#3 2F.A ....|--- .... ....|--- .... ....
....|..|D-3 2F.7 ....|C-4 AF.F ....|--- .... ....
....|..|D#3 2F.7 ....|--- .... ....|--- .... ....
....|..|D-3 2F.7 ....|C-4 AF.A ....|--- .... ....
....|..|R-- .... ....|--- .... ....|--- .... ....

[Pattern2]
....|..|A-3 2F1F ....|C-4 AF.F ....|--- .... ....
....|..|G#3 2F.7 ....|--- .... ....|--- .... ....
....|..|G-3 2F.7 ....|C-4 AF.F ....|--- .... ....
....|..|R-- .... ....|--- .... ....|--- .... ....
....|..|G#3 2F1F ....|C-5 BF.F ....|--- .... ....
....|..|--- .... ....|--- .... ....|--- .... ....
....|..|A-3 2F1A ....|C-4 AF.A ....|--- .... ....
....|..|--- .... ....|--- .... ....|--- .... ....
....|..|G#3 2F1F ....|C-4 AF.F ....|--- .... ....
....|..|--- .... ....|--- .... ....|--- .... ....
....|..|G#3 2F1A ....|C-4 AF.F ....|--- .... ....
....|..|--- .... ....|--- .... ....|--- .... ....
....|..|A-3 2F17 ....|C-5 BF.F ....|--- .... ....
....|..|--- .... ....|--- .... ....|--- .... ....
....|..|G#3 2F1F ....|C-4 AF.7 ....|--- .... ....
....|..|--- .... ....|--- .... ....|--- .... ....
....|..|G#3 2F17 ....|C-4 AF.F ....|--- .... ....
....|..|--- .... ....|--- .... ....|--- .... ....
 F-4|..|C-4 2F2F ....|C-4 AF.F ....|F-2 2A.F ....
....|..|--- .... ....|--- .... ....|--- .... ....
....|..|G#3 2F17 ....|C-5 BF.F ....|--- .... ....
....|..|--- .... ....|--- .... ....|--- .... ....
 F-4|..|C-4 2F2F ....|C-4 AF.7 ....|F-2 2A.F ....
....|..|--- .... ....|--- .... ....|--- .... ....
....|..|R-- .... ....|C-4 AF.F ....|F-2 2F.A ....
....|..|--- .... ....|--- .... ....|--- .... ....
....|..|G#3 2F17 ....|C-4 AF.F ....|R-- .... ....
....|..|--- .... ....|--- .... ....|--- .... ....
....|..|C-4 2F2A ....|C-5 BF.F ....|F-2 2F.A ....
....|..|--- .... ....|--- .... ....|--- .... ....
....|..|C-4 2F27 ....|C-4 AF.7 ....|F-2 2F.7 ....
....|..|--- .... ....|--- .... ....|--- .... ....
....|..|A-3 2F1F ....|C-4 AF.F ....|R-- .... ....
....|..|--- .... ....|--- .... ....|--- .... ....
....|..|C-4 2F27 ....|C-4 AF.F ....|F-2 2F.7 ....
....|..|--- .... ....|--- .... ....|--- .... ....
....|..|G#3 2F1F ....|C-5 BF.F ....|--- .... ....
....|..|--- .... ....|--- .... ....|--- .... ....
....|..|R-- .... ....|C-4 AF.7 ....|R-- .... ....
....|..|--- .... ....|--- .... ....|--- .... ....
....|..|G#3 2F1F ....|C-4 AF.F ....|--- .... ....
....|..|--- .... ....|--- .... ....|--- .... ....
....|..|G#3 2F1A ....|C-4 AF.F ....|--- .... ....
....|..|--- .... ....|--- .... ....|--- .... ....
....|..|A-3 2F17 ....|C-5 BF.F ....|--- .... ....
....|..|--- .... ....|--- .... ....|--- .... ....
....|..|G#3 2F1F ....|C-4 AF.7 ....|--- .... ....
....|..|--- .... ....|--- .... ....|--- .... ....
....|..|G#3 2F17 ....|C-4 AF.F ....|--- .... ....
....|..|--- .... ....|--- .... ....|--- .... ....
 F-4|..|C-4 2F2F ....|C-4 AF.F ....|F-2 2A.F ....
....|..|--- .... ....|--- .... ....|--- .... ....
....|..|G#3 2F17 ....|C-5 BF.F ....|--- .... ....
....|..|--- .... ....|--- .... ....|--- .... ....
 F-4|..|C-4 2F2F ....|C-4 AF.7 ....|F-2 2A.F ....
....|..|--- .... ....|--- .... ....|--- .... ....
....|..|R-- .... ....|C-4 AF.F ....|F-2 2F.A ....
....|..|--- .... ....|--- .... ....|--- .... ....
 F-4|..|C-3 2F.F ....|C-4 AF.F ....|F-2 2A.F ....
....|..|--- .... ....|--- .... ....|--- .... ....
 F-4|..|C-3 2F.F ....|C-5 BF.F ....|F-2 2A.F ....
....|..|--- .... ....|--- .... ....|--- .... ....
 F-4|..|C-3 2F.F ....|C-4 AF.7 ....|F-2 2A.F ....
....|..|--- .... ....|--- .... ....|--- .... ....

[Pattern3]
....|..|A-3 2F1F ....|C-4 AF.F ....|R-- .... ....
....|..|--- .... ....|--- .... ....|--- .... ....
....|..|C-4 2F27 ....|C-4 AF.F ....|F-2 2F.7 ....
....|..|--- .... ....|--- .... ....|--- .... ....
....|..|G#3 2F1F ....|C-5 BF.F ....|F-2 2F.A ....
....|..|--- .... ....|--- .... ....|--- .... ....
....|..|C-3 2F.7 ....|C-4 AF.7 ....|F-2 2F.7 ....
....|..|--- .... ....|--- .... ....|--- .... ....
....|..|G#3 2F1F ....|C-4 AF.F ....|F-2 2F.7 ....
....|..|--- .... ....|--- .... ....|--- .... ....
....|..|C-3 2F.7 ....|C-4 AF.F ....|F-2 2F.7 ....
....|..|--- .... ....|--- .... ....|--- .... ....
....|..|A-3 2F17 ....|C-5 BF.F ....|R-- .... ....
....|..|--- .... ....|--- .... ....|--- .... ....
....|..|G#3 2F1F ....|C-4 AF.7 ....|--- .... ....
....|..|--- .... ....|--- .... ....|--- .... ....
....|..|G#3 2F17 ....|C-4 AF.F ....|--- .... ....
....|..|--- .... ....|--- .... ....|--- .... ....
 F-4|..|C-4 2F2F ....|C-4 AF.F ....|F-2 2A.F ....
....|..|--- .... ....|--- .... ....|--- .... ....
....|..|G#3 2F17 ....|C-5 BF.F ....|--- .... ....
....|..|--- .... ....|--- .... ....|--- .... ....
 F-4|..|C-4 2F2F ....|C-4 AF.7 ....|F-2 2A.F ....
....|..|--- .... ....|--- .... ....|--- .... ....
....|..|R-- .... ....|C-4 AF.F ....|F-2 2F.A ....
....|..|--- .... ....|--- .... ....|--- .... ....
....|..|G#3 2F17 ....|C-4 AF.F ....|R-- .... ....
....|..|--- .... ....|--- .... ....|--- .... ....
....|..|C-4 2F2A ....|C-5 BF.F ....|F-2 2F.A ....
....|..|--- .... ....|--- .... ....|--- .... ....
....|..|C-4 2F27 ....|C-4 AF.7 ....|F-2 2F.7 ....
....|..|--- .... ....|--- .... ....|--- .... ....
....|..|A-3 2F1F ....|C-4 AF.F ....|R-- .... ....
....|..|--- .... ....|--- .... ....|--- .... ....
....|..|C-4 2F27 ....|C-4 AF.F ....|F-2 2F.7 ....
....|..|--- .... ....|--- .... ....|--- .... ....
....|..|G#3 2F1F ....|C-5 BF.F ....|--- .... ....
....|..|--- .... ....|--- .... ....|--- .... ....
....|..|R-- .... ....|C-4 AF.7 ....|R-- .... ....
....|..|--- .... ....|--- .... ....|--- .... ....
....|..|G#3 2F1F ....|C-4 AF.F ....|--- .... ....
....|..|--- .... ....|--- .... ....|--- .... ....
....|..|G#3 2F1A ....|C-4 AF.F ....|--- .... ....
....|..|--- .... ....|--- .... ....|--- .... ....
....|..|A-3 2F17 ....|C-5 BF.F ....|--- .... ....
....|..|--- .... ....|--- .... ....|--- .... ....
....|..|G#3 2F1F ....|C-4 AF.7 ....|--- .... ....
....|..|--- .... ....|--- .... ....|--- .... ....
....|..|G#3 2F17 ....|C-4 AF.F ....|--- .... ....
....|..|--- .... ....|--- .... ....|--- .... ....
 F-4|..|C-4 2F2F ....|C-4 AF.F ....|F-2 2A.F ....
....|..|--- .... ....|--- .... ....|--- .... ....
....|..|G#3 2F17 ....|C-5 BF.F ....|--- .... ....
....|..|--- .... ....|--- .... ....|--- .... ....
 F-4|..|C-4 2F2F ....|C-4 AF.7 ....|F-2 2A.F ....
....|..|--- .... ....|--- .... ....|--- .... ....
....|..|R-- .... ....|C-4 AF.F ....|F-2 2F.A ....
....|..|--- .... ....|--- .... ....|--- .... ....
 F-4|..|C-3 2F.F ....|C-4 AF.F ....|F-2 2A.F ....
....|..|--- .... ....|--- .... ....|--- .... ....
 F-4|..|C-3 2F.F ....|C-5 BF.F ....|F-2 2A.F ....
....|..|--- .... ....|--- .... ....|--- .... ....
 F-4|..|C-3 2F.F ....|C-5 BF.F ....|F-2 2A.F ....
....|..|--- .... ....|--- .... ....|--- .... ....

[Pattern4]
....|..|G-3 2F1F ....|C-4 AF.F ....|R-- .... ....
....|..|--- .... ....|--- .... ....|--- .... ....
....|..|C-4 2F27 ....|C-4 AF.F ....|F-2 2F.7 ....
....|..|--- .... ....|--- .... ....|--- .... ....
....|..|G#3 2F1F ....|C-5 BF.F ....|F-2 2F.A ....
....|..|--- .... ....|--- .... ....|--- .... ....
....|..|C-3 2F.7 ....|C-4 AF.7 ....|F-2 2F.7 ....
....|..|--- .... ....|--- .... ....|--- .... ....
 D-4|..|A-2 2F.F ....|C-4 AF.F ....|D-2 2A.F ....
....|..|--- .... ....|--- .... ....|--- .... ....
 D-4|..|A-2 2F.F ....|C-4 AF.F ....|D-2 2A.F ....
....|..|--- .... ....|--- .... ....|--- .... ....
 D-4|..|A-2 2F.F ....|C-5 BF.F ....|D-2 2A.F ....
....|..|--- .... ....|--- .... ....|--- .... ....
 D-4|..|A-3 2F2F ....|C-4 AF.7 ....|D-2 2A.F ....
....|..|--- .... ....|--- .... ....|--- .... ....
....|..|G#3 2F17 ....|C-4 AF.F ....|D-2 2F.A ....
....|..|--- .... ....|--- .... ....|--- .... ....
 D-4|..|R-- .... ....|C-4 AF.F ....|D-2 2A.F ....
....|..|--- .... ....|--- .... ....|--- .... ....
 D#4|..|A-2 2F.7 ....|C-5 BF.F ....|D#2 2A.F ....
....|..|--- .... ....|--- .... ....|--- .... ....
 D-4|..|A-2 2F.7 ....|C-4 AF.7 ....|D-2 2A.F ....
....|..|--- .... ....|--- .... ....|--- .... ....
 F-4|..|A-2 2F.7 ....|C-4 AF.F ....|F-2 2A.F ....
....|..|--- .... ....|--- .... ....|--- .... ....
 D-4|..|A-3 2F27 ....|C-4 AF.F ....|D-2 2A.F ....
....|..|--- .... ....|--- .... ....|--- .... ....
 D#4|..|--- .... ....|C-5 BF.F ....|D#2 2A.F ....
....|..|--- .... ....|--- .... ....|--- .... ....
 D-4|..|R-- .... ....|C-4 AF.7 ....|D-2 2A.F ....
....|..|--- .... ....|--- .... ....|--- .... ....
....|..|G-3 2F1F ....|C-4 AF.F ....|D#2 2F.7 ....
....|..|--- .... ....|--- .... ....|--- .... ....
....|..|--- .... ....|C-4 AF.F ....|D-2 2F.7 ....
....|..|--- .... ....|--- .... ....|--- .... ....
....|..|G#3 2F1F ....|C-5 BF.F ....|F-2 2F.7 ....
....|..|--- .... ....|--- .... ....|--- .... ....
....|..|G-3 2F1A ....|C-4 AF.7 ....|D-2 2F.7 ....
....|..|--- .... ....|--- .... ....|--- .... ....
 D-4|..|A-2 2F.F ....|C-4 AF.F ....|D-2 2A.F ....
....|..|--- .... ....|--- .... ....|--- .... ....
 D-4|..|A-2 2F.F ....|C-4 AF.F ....|D-2 2A.F ....
....|..|--- .... ....|--- .... ....|--- .... ....
 D-4|..|A-2 2F.F ....|C-5 BF.F ....|D-2 2A.F ....
....|..|--- .... ....|--- .... ....|--- .... ....
....|..|C-4 2F4F ....|C-4 AF.7 ....|R-- .... ....
....|..|--- .... ....|--- .... ....|--- .... ....
....|..|G#3 2F17 ....|C-4 AF.F ....|D-2 2F.A ....
....|..|--- .... ....|--- .... ....|--- .... ....
 D-4|..|R-- .... ....|C-4 AF.F ....|D-2 2A.F ....
....|..|--- .... ....|--- .... ....|--- .... ....
 D-4|..|A-2 2F.7 ....|C-5 BF.F ....|D-2 2A.F ....
....|..|--- .... ....|--- .... ....|--- .... ....
....|..|D#3 2F4F ....|C-4 AF.7 ....|D-2 2F.7 ....
....|..|--- .... ....|--- .... ....|--- .... ....
....|..|A-2 2F.7 ....|C-4 AF.F ....|D-2 2F.7 ....
....|..|--- .... ....|--- .... ....|--- .... ....
 D-4|..|C-4 2F47 ....|C-4 AF.F ....|D-2 2A.F ....
....|..|--- .... ....|--- .... ....|--- .... ....
 D-4|..|D#3 2F4A ....|C-5 BF.F ....|D-2 2A.F ....
....|..|--- .... ....|--- .... ....|--- .... ....
 D-4|..|R-- .... ....|C-4 AF.7 ....|D-2 2A.F ....
....|..|--- .... ....|--- .... ....|--- .... ....

[Pattern5]
....|..|G-3 2F1F ....|C-4 AF.F ....|D-2 2F.7 ....
....|..|--- .... ....|--- .... ....|--- .... ....
....|..|D#3 2F47 ....|C-4 AF.F ....|R-- .... ....
....|..|--- .... ....|--- .... ....|--- .... ....
....|..|G#3 2F1F ....|C-5 BF.F ....|D-2 2F.A ....
....|..|--- .... ....|--- .... ....|--- .... ....
....|..|R-- .... ....|C-4 AF.7 ....|D-2 2F.7 ....
....|..|--- .... ....|--- .... ....|--- .... ....
 D-4|..|A-2 2F.F ....|C-4 AF.F ....|D-2 2A.F ....
....|..|--- .... ....|--- .... ....|--- .... ....
 D-4|..|A-2 2F.F ....|C-4 AF.F ....|D-2 2A.F ....
....|..|--- .... ....|--- .... ....|--- .... ....
 D-4|..|A-2 2F.F ....|C-5 BF.F ....|D-2 2A.F ....
....|..|--- .... ....|--- .... ....|--- .... ....
 D-4|..|A-3 2F2F ....|C-4 AF.7 ....|D-2 2A.F ....
....|..|--- .... ....|--- .... ....|--- .... ....
....|..|G#3 2F17 ....|C-4 AF.F ....|D-2 2F.A ....
....|..|--- .... ....|--- .... ....|--- .... ....
 D-4|..|R-- .... ....|C-4 AF.F ....|D-2 2A.F ....
....|..|--- .... ....|--- .... ....|--- .... ....
 D#4|..|A-2 2F.7 ....|C-5 BF.F ....|D#2 2A.F ....
....|..|--- .... ....|--- .... ....|--- .... ....
 D-4|..|A-2 2F.7 ....|C-4 AF.7 ....|D-2 2A.F ....
....|..|--- .... ....|--- .... ....|--- .... ....
 F-4|..|A-2 2F.7 ....|C-4 AF.F ....|F-2 2A.F ....
....|..|--- .... ....|--- .... ....|--- .... ....
 D-4|..|A-3 2F27 ....|C-4 AF.F ....|D-2 2A.F ....
....|..|--- .... ....|--- .... ....|--- .... ....
 D#4|..|--- .... ....|C-5 BF.F ....|D#2 2A.F ....
....|..|--- .... ....|--- .... ....|--- .... ....
 D-4|..|R-- .... ....|C-4 AF.7 ....|D-2 2A.F ....
....|..|--- .... ....|--- .... ....|--- .... ....
....|..|G-3 2F1F ....|C-4 AF.F ....|D#2 2F.7 ....
....|..|--- .... ....|--- .... ....|--- .... ....
....|..|--- .... ....|C-4 AF.F ....|D-2 2F.7 ....
....|..|--- .... ....|--- .... ....|--- .... ....
....|..|G#3 2F1F ....|C-5 BF.F ....|F-2 2F.7 ....
....|..|--- .... ....|--- .... ....|--- .... ....
....|..|G-3 2F1A ....|C-4 AF.7 ....|D-2 2F.7 ....
....|..|--- .... ....|--- .... ....|--- .... ....
 D-4|..|A-2 2F.F ....|C-4 AF.F ....|D-2 2A.F ....
....|..|--- .... ....|--- .... ....|--- .... ....
 D-4|..|A-2 2F.F ....|C-4 AF.F ....|D-2 2A.F ....
....|..|--- .... ....|--- .... ....|--- .... ....
 D-4|..|A-2 2F.F ....|C-5 BF.F ....|D-2 2A.F ....
....|..|--- .... ....|--- .... ....|--- .... ....
....|..|C-4 2F4F ....|C-4 AF.7 ....|R-- .... ....
....|..|--- .... ....|--- .... ....|--- .... ....
....|..|G#3 2F17 ....|C-4 AF.F ....|D-2 2F.A ....
....|..|--- .... ....|--- .... ....|--- .... ....
 D-4|..|R-- .... ....|C-4 AF.F ....|D-2 2A.F ....
....|..|--- .... ....|--- .... ....|--- .... ....
 D-4|..|A-2 2F.7 ....|C-5 BF.F ....|D-2 2A.F ....
....|..|--- .... ....|--- .... ....|--- .... ....
....|..|D#3 2F4F ....|C-4 AF.7 ....|D-2 2F.7 ....
....|..|--- .... ....|--- .... ....|--- .... ....
....|..|A-2 2F.7 ....|C-4 AF.F ....|D-2 2F.7 ....
....|..|--- .... ....|--- .... ....|--- .... ....
 D-4|..|C-4 2F47 ....|C-4 AF.F ....|D-2 2A.F ....
....|..|--- .... ....|--- .... ....|--- .... ....
 D-4|..|D#3 2F4A ....|C-5 BF.F ....|D-2 2A.F ....
....|..|--- .... ....|--- .... ....|--- .... ....
 D-4|..|R-- .... ....|C-4 AF.7 ....|D-2 2A.F ....
....|..|--- .... ....|--- .... ....|--- .... ....

[Pattern6]
....|..|G-3 2F1F ....|C-4 AF.F ....|D-2 2F.7 ....
....|..|--- .... ....|--- .... ....|--- .... ....
....|..|D#3 2F47 ....|C-4 AF.F ....|R-- .... ....
....|..|--- .... ....|--- .... ....|--- .... ....
....|..|G#3 2F1F ....|C-5 BF.F ....|D-2 2F.A ....
....|..|--- .... ....|--- .... ....|--- .... ....
....|..|R-- .... ....|C-4 AF.7 ....|D-2 2F.7 ....
....|..|--- .... ....|--- .... ....|--- .... ....
 D-4|..|A-2 2F.F ....|C-4 AF.F ....|D-2 2A.F ....
....|..|--- .... ....|--- .... ....|--- .... ....
 D-4|..|A-2 2F.F ....|C-4 AF.F ....|D-2 2A.F ....
....|..|--- .... ....|--- .... ....|--- .... ....
 D-4|..|A-2 2F.F ....|C-5 BF.F ....|D-2 2A.F ....
....|..|--- .... ....|--- .... ....|--- .... ....
 D-4|..|A-3 2F2F ....|C-4 AF.7 ....|D-2 2A.F ....
....|..|--- .... ....|--- .... ....|--- .... ....
....|..|G#3 2F17 ....|C-4 AF.F ....|D-2 2F.A ....
....|..|--- .... ....|--- .... ....|--- .... ....
 D-4|..|R-- .... ....|C-4 AF.F ....|D-2 2A.F ....
....|..|--- .... ....|--- .... ....|--- .... ....
 D-4|..|A-2 2F.7 ....|C-5 BF.F ....|D-2 2A.F ....
....|..|--- .... ....|--- .... ....|--- .... ....
 D-4|..|A-2 2F.7 ....|C-4 AF.7 ....|D-2 2A.F ....
....|..|--- .... ....|--- .... ....|--- .... ....
 D-4|..|A-2 2F.7 ....|C-4 AF.F ....|D-2 2A.F ....
....|..|--- .... ....|--- .... ....|--- .... ....
 D-4|..|A-3 2F27 ....|C-4 AF.F ....|D-2 2A.F ....
....|..|--- .... ....|--- .... ....|--- .... ....
 D-4|..|--- .... ....|C-5 BF.F ....|D-2 2A.F ....
....|..|--- .... ....|--- .... ....|--- .... ....
 D-4|..|R-- .... ....|C-4 AF.7 ....|D-2 2A.F ....
....|..|--- .... ....|--- .... ....|--- .... ....
....|..|G-3 2F1F ....|C-4 AF.F ....|D-2 2F.7 ....
....|..|--- .... ....|--- .... ....|--- .... ....
....|..|--- .... ....|C-4 AF.F ....|D-2 2F.7 ....
....|..|--- .... ....|--- .... ....|--- .... ....
....|..|G#3 2F1F ....|C-5 BF.F ....|D-2 2F.7 ....
....|..|--- .... ....|--- .... ....|--- .... ....
....|..|G-3 2F1A ....|C-4 AF.7 ....|D-2 2F.7 ....
....|..|--- .... ....|--- .... ....|--- .... ....
 D-4|..|A-2 2F.F ....|C-4 AF.F ....|D-2 2A.F ....
....|..|--- .... ....|--- .... ....|--- .... ....
 D-4|..|A-2 2F.F ....|C-4 AF.F ....|D-2 2A.F ....
....|..|--- .... ....|--- .... ....|--- .... ....
 D-4|..|A-2 2F.F ....|C-5 BF.F ....|D-2 2A.F ....
....|..|--- .... ....|--- .... ....|--- .... ....
....|..|C-4 2F4F ....|C-4 AF.7 ....|R-- .... ....
....|..|--- .... ....|--- .... ....|--- .... ....
....|..|G#3 2F17 ....|C-4 AF.F ....|D-2 2F.A ....
....|..|--- .... ....|--- .... ....|--- .... ....
 D-4|..|R-- .... ....|C-4 AF.F ....|D-2 2A.F ....
....|..|--- .... ....|--- .... ....|--- .... ....
 D-4|..|A-2 2F.7 ....|C-5 BF.F ....|D-2 2A.F ....
....|..|--- .... ....|--- .... ....|--- .... ....
....|..|D#3 2F4F ....|C-4 AF.7 ....|D-2 2F.7 ....
....|..|--- .... ....|--- .... ....|--- .... ....
....|..|A-2 2F.7 ....|C-4 AF.F ....|D-2 2F.7 ....
....|..|--- .... ....|--- .... ....|--- .... ....
 D-4|..|C-4 2F47 ....|C-4 AF.F ....|D-2 2A.F ....
....|..|--- .... ....|--- .... ....|--- .... ....
 D-4|..|D#3 2F4A ....|C-5 BF.F ....|D-2 2A.F ....
....|..|--- .... ....|--- .... ....|--- .... ....
 D-4|..|R-- .... ....|C-4 AF.7 ....|D-2 2A.F ....
....|..|--- .... ....|--- .... ....|--- .... ....

[Pattern8]
 D-4|..|A-3 2F2F ....|C-4 AF.F ....|D-2 2A.F ....
....|..|--- .... ....|--- .... ....|--- .... ....
 D-4|..|D#3 2F47 ....|C-5 BF.A ....|D-2 2A.F ....
....|..|--- .... ....|--- .... ....|--- .... ....
 D-4|..|--- .... ....|C-4 AF.F ....|D-2 2A.F ....
....|..|--- .... ....|--- .... ....|--- .... ....
 D-4|..|R-- .... ....|C-4 AF.7 ....|D-2 2A.F ....
....|..|--- .... ....|--- .... ....|--- .... ....
 D-4|..|R-- .... ....|C-4 AF.F ....|D-2 2A.F ....
....|..|--- .... ....|--- .... ....|--- .... ....
 D-4|..|--- .... ....|C-4 AF.A ....|D-2 2A.F ....
....|..|--- .... ....|--- .... ....|--- .... ....
 D-4|..|A-3 2F27 ....|C-4 AF.F ....|D-2 2A.F ....
....|..|--- .... ....|--- .... ....|--- .... ....
 D-4|..|R-- .... ....|C-4 AF.A ....|D-2 2A.F ....
....|..|--- .... ....|--- .... ....|--- .... ....
 D-4|..|--- .... ....|C-4 AF.F ....|D-2 2A.F ....
....|..|--- .... ....|--- .... ....|--- .... ....
 D-4|..|--- .... ....|C-4 AF.A ....|D-2 2A.F ....
....|..|--- .... ....|--- .... ....|--- .... ....
 D-4|..|--- .... ....|C-4 AF.F ....|D-2 2A.F ....
....|..|--- .... ....|--- .... ....|--- .... ....
 D-4|..|--- .... ....|C-4 AF.A ....|D-2 2A.F ....
....|..|--- .... ....|--- .... ....|--- .... ....
 D-4|..|--- .... ....|C-4 AF.F ....|D-2 2A.F ....
....|..|--- .... ....|--- .... ....|--- .... ....
 D-4|..|--- .... ....|C-4 AF.A ....|D-2 2A.F ....
....|..|--- .... ....|--- .... ....|--- .... ....
 D-4|..|--- .... ....|C-4 AF.F ....|D-2 2A.F ....
....|..|--- .... ....|--- .... ....|--- .... ....
 D-4|..|--- .... ....|C-4 AF.A ....|D-2 2A.F ....
....|..|--- .... ....|--- .... ....|--- .... ....
 D-4|..|--- .... ....|C-4 AF.F ....|D-2 2A.F ....
....|..|--- .... ....|--- .... ....|--- .... ....
 D-4|..|--- .... ....|C-4 AF.A ....|D-2 2A.F ....
....|..|--- .... ....|--- .... ....|--- .... ....
 D-4|..|--- .... ....|C-4 AF.F ....|D-2 2A.F ....
....|..|--- .... ....|--- .... ....|--- .... ....
 D-4|..|--- .... ....|C-4 AF.A ....|D-2 2A.F ....
....|..|--- .... ....|--- .... ....|--- .... ....
 D-4|..|--- .... ....|C-4 AF.F ....|D-2 2A.F ....
....|..|--- .... ....|--- .... ....|--- .... ....
 D-4|..|--- .... ....|C-4 AF.A ....|D-2 2A.F ....
....|..|--- .... ....|--- .... ....|--- .... ....
 D-4|..|--- .... ....|C-4 AF.F ....|D-2 2A.F ....
....|..|--- .... ....|--- .... ....|--- .... ....
....|..|C-4 2F4F ....|C-4 AF.A ....|D-2 2F.7 ....
....|..|--- .... ....|--- .... ....|--- .... ....
....|..|--- .... ....|C-4 AF.F ....|D-2 2F.7 ....
....|..|--- .... ....|--- .... ....|--- .... ....
 D-4|..|R-- .... ....|C-4 AF.A ....|D-2 2A.F ....
....|..|--- .... ....|--- .... ....|--- .... ....
 D-4|..|C-4 2F4A ....|C-4 AF.F ....|D-2 2A.F ....
....|..|--- .... ....|--- .... ....|--- .... ....
....|..|D#3 2F4F ....|C-4 AF.A ....|D-2 2F.7 ....
....|..|--- .... ....|--- .... ....|--- .... ....
....|..|R-- .... ....|C-4 AF.F ....|D-2 2F.7 ....
....|..|--- .... ....|--- .... ....|--- .... ....
 D-4|..|C-4 2F47 ....|C-4 AF.A ....|D-2 2A.F ....
....|..|--- .... ....|--- .... ....|--- .... ....
 D-4|..|D#3 2F4A ....|C-4 AF.F ....|D-2 2A.F ....
....|..|--- .... ....|--- .... ....|--- .... ....
 D-4|..|R-- .... ....|C-4 AF.A ....|D-2 2A.F ....
....|..|--- .... ....|--- .... ....|--- .... ....

[Pattern9]
 D-4|..|A-3 2F2F ....|C-4 AF.F ....|D-2 2A.F ....
....|..|--- .... ....|--- .... ....|--- .... ....
 D-4|..|D#3 2F47 ....|C-4 AF.A ....|D-2 2A.F ....
....|..|--- .... ....|--- .... ....|--- .... ....
 D-4|..|--- .... ....|C-4 AF.F ....|D-2 2A.F ....
....|..|--- .... ....|--- .... ....|--- .... ....
 D-4|..|R-- .... ....|C-4 AF.A ....|D-2 2A.F ....
....|..|--- .... ....|--- .... ....|--- .... ....
 D-4|..|R-- .... ....|C-4 AF.F ....|D-2 2A.F ....
....|..|--- .... ....|--- .... ....|--- .... ....
 D-4|..|--- .... ....|C-4 AF.A ....|D-2 2A.F ....
....|..|--- .... ....|--- .... ....|--- .... ....
 D-4|..|A-3 2F27 ....|C-4 AF.F ....|D-2 2A.F ....
....|..|--- .... ....|--- .... ....|--- .... ....
 D-4|..|R-- .... ....|C-4 AF.A ....|D-2 2A.F ....
....|..|--- .... ....|--- .... ....|--- .... ....
 D-4|..|--- .... ....|C-4 AF.F ....|D-2 2A.F ....
....|..|--- .... ....|--- .... ....|--- .... ....
 D-4|..|--- .... ....|C-4 AF.A ....|D-2 2A.F ....
....|..|--- .... ....|--- .... ....|--- .... ....
 D-4|..|--- .... ....|C-4 AF.F ....|D-2 2A.F ....
....|..|--- .... ....|--- .... ....|--- .... ....
 D-4|..|--- .... ....|C-4 AF.A ....|D-2 2A.F ....
....|..|--- .... ....|--- .... ....|--- .... ....
 D-4|..|--- .... ....|C-4 AF.F ....|D-2 2A.F ....
....|..|--- .... ....|--- .... ....|--- .... ....
 D-4|..|--- .... ....|C-4 AF.A ....|D-2 2A.F ....
....|..|--- .... ....|--- .... ....|--- .... ....
 D-4|..|--- .... ....|C-4 AF.F ....|D-2 2A.F ....
....|..|--- .... ....|--- .... ....|--- .... ....
 D-4|..|--- .... ....|C-4 AF.A ....|D-2 2A.F ....
....|..|--- .... ....|--- .... ....|--- .... ....
 D-4|..|--- .... ....|C-4 AF.F ....|D-2 2A.F ....
....|..|--- .... ....|--- .... ....|--- .... ....
 D-4|..|--- .... ....|C-4 AF.A ....|D-2 2A.F ....
....|..|--- .... ....|--- .... ....|--- .... ....
 D-4|..|--- .... ....|C-4 AF.F ....|D-2 2A.F ....
....|..|--- .... ....|--- .... ....|--- .... ....
 D-4|..|--- .... ....|C-4 AF.A ....|D-2 2A.F ....
....|..|--- .... ....|--- .... ....|--- .... ....
 D-4|..|--- .... ....|C-4 AF.F ....|D-2 2A.F ....
....|..|--- .... ....|--- .... ....|--- .... ....
 D-4|..|--- .... ....|C-4 AF.A ....|D-2 2A.F ....
....|..|--- .... ....|--- .... ....|--- .... ....
 D-4|..|--- .... ....|C-4 AF.F ....|D-2 2A.F ....
....|..|--- .... ....|--- .... ....|--- .... ....
....|..|C-4 2F4F ....|C-4 AF.A ....|D-2 2F.7 ....
....|..|--- .... ....|--- .... ....|--- .... ....
....|..|--- .... ....|C-4 AF.F ....|D-2 2F.7 ....
....|..|--- .... ....|--- .... ....|--- .... ....
 D-4|..|R-- .... ....|C-4 AF.A ....|D-2 2A.F ....
....|..|--- .... ....|--- .... ....|--- .... ....
 D-4|..|C-4 2F4A ....|C-4 AF.F ....|D-2 2A.F ....
....|..|--- .... ....|--- .... ....|--- .... ....
....|..|D#3 2F4F ....|C-4 AF.A ....|D-2 2F.7 ....
....|..|--- .... ....|--- .... ....|--- .... ....
....|..|R-- .... ....|C-4 AF.F ....|D-2 2F.7 ....
....|..|--- .... ....|--- .... ....|--- .... ....
 D-4|..|C-4 2F47 ....|C-4 AF.A ....|D-2 2A.F ....
....|..|--- .... ....|--- .... ....|--- .... ....
 D-4|..|D#3 2F4A ....|C-4 AF.F ....|D-2 2A.F ....
....|..|--- .... ....|--- .... ....|--- .... ....
 D-4|..|R-- .... ....|C-4 AF.A ....|D-2 2A.F ....
....|..|--- .... ....|--- .... ....|--- .... ....

[Pattern10]
 D-4|..|A-3 2F2F ....|C-4 AF.F ....|D-2 2A.F ....
....|..|--- .... ....|--- .... ....|--- .... ....
....|..|D#3 2F47 ....|C-4 AF.F ....|R-- .... ....
....|..|--- .... ....|--- .... ....|--- .... ....
....|..|--- .... ....|C-4 AF.7 ....|D-2 2F.A ....
....|..|--- .... ....|--- .... ....|--- .... ....
....|..|R-- .... ....|C-4 AF.A ....|D-2 2F.7 ....
....|..|--- .... ....|--- .... ....|--- .... ....
 D#4|..|A#3 2F2F ....|C-5 BF.F ....|D#2 2A.F ....
....|..|--- .... ....|--- .... ....|--- .... ....
....|..|--- .... ....|R-- .... ....|D-2 2F.7 ....
....|..|--- .... ....|--- .... ....|--- .... ....
....|..|A-3 2F27 ....|C-4 AF.7 ....|D-2 2F.7 ....
....|..|--- .... ....|--- .... ....|--- .... ....
 D-4|..|A-3 2F2F ....|C-4 AF.7 ....|D-2 2A.F ....
....|..|--- .... ....|--- .... ....|--- .... ....
....|..|--- .... ....|B-8 JF.F ....|--- .... ....
....|..|--- .... ....|--- .... ....|--- .... ....
....|..|--- .... ....|R-- .... ....|--- .... ....
....|..|--- .... ....|--- .... ....|--- .... ....
 D#4|..|A#3 2F2F ....|C-4 AF.F ....|D#2 2A.F ....
....|..|--- .... ....|--- .... ....|--- .... ....
....|..|--- .... ....|B-8 JF.A ....|--- .... ....
....|..|--- .... ....|--- .... ....|--- .... ....
 D-4|..|A-3 2F2F ....|C-5 BF.F ....|D-2 2A.F ....
....|..|--- .... ....|--- .... ....|--- .... ....
....|..|A-3 2F27 ....|C-4 AF.A ....|D-2 2F.7 ....
....|..|--- .... ....|--- .... ....|--- .... ....
 D#4|..|A#3 2F2F ....|C-4 AF.F ....|D#2 2A.F ....
....|..|--- .... ....|--- .... ....|--- .... ....
....|..|A-3 2F2A ....|C-5 BF.A ....|D-2 2F.A ....
....|..|--- .... ....|--- .... ....|--- .... ....
 D-4|..|A-3 2F2F ....|C-4 AF.F ....|D-2 2A.F ....
....|..|--- .... ....|--- .... ....|--- .... ....
....|..|A#3 2F2A ....|C-4 AF.F ....|D#2 2F.A ....
....|..|--- .... ....|--- .... ....|--- .... ....
....|..|A-3 2F27 ....|C-5 BF.7 ....|D-2 2F.7 ....
....|..|--- .... ....|--- .... ....|--- .... ....
....|..|A-3 2F2A ....|C-4 AF.A ....|D-2 2F.A ....
....|..|--- .... ....|--- .... ....|--- .... ....
 D#4|..|A#3 2F2F ....|C-5 BF.F ....|D#2 2A.F ....
....|..|--- .... ....|--- .... ....|--- .... ....
....|..|--- .... ....|R-- .... ....|--- .... ....
....|..|--- .... ....|--- .... ....|--- .... ....
....|..|A-3 2F27 ....|C-4 AF.7 ....|D-2 2F.7 ....
....|..|--- .... ....|--- .... ....|--- .... ....
 D-4|..|A-3 2F2F ....|C-4 AF.7 ....|D-2 2A.F ....
....|..|--- .... ....|--- .... ....|--- .... ....
....|..|--- .... ....|B-8 JF.F ....|--- .... ....
....|..|--- .... ....|--- .... ....|--- .... ....
....|..|--- .... ....|R-- .... ....|--- .... ....
....|..|--- .... ....|--- .... ....|--- .... ....
 D#4|..|A#3 2F2F ....|C-4 AF.F ....|D#2 2A.F ....
....|..|--- .... ....|--- .... ....|--- .... ....
....|..|--- .... ....|B-8 JF.A ....|--- .... ....
....|..|--- .... ....|--- .... ....|--- .... ....
 D-4|..|A-2 2F.F ....|C-5 BF.F ....|D-2 2A.F ....
....|..|--- .... ....|--- .... ....|--- .... ....
 D-4|..|A-2 2F.F ....|C-4 AF.A ....|D-2 2A.F ....
....|..|--- .... ....|--- .... ....|--- .... ....
 D#4|..|A#3 2F2F ....|C-4 AF.F ....|D#2 2A.F ....
....|..|--- .... ....|--- .... ....|--- .... ....
....|..|A-2 2F.A ....|C-5 BF.A ....|D-2 2F.A ....
....|..|--- .... ....|--- .... ....|--- .... ....

[Pattern11]
 D-4|..|A-3 2F2F ....|C-4 AF.F ....|D-2 2A.F ....
....|..|--- .... ....|--- .... ....|--- .... ....
....|..|A#3 2F2A ....|C-4 AF.F ....|D#2 2F.A ....
....|..|--- .... ....|--- .... ....|--- .... ....
....|..|A-2 2F.7 ....|C-5 BF.7 ....|D-2 2F.7 ....
....|..|--- .... ....|--- .... ....|--- .... ....
....|..|A-2 2F.7 ....|C-4 AF.A ....|D-2 2F.7 ....
....|..|--- .... ....|--- .... ....|--- .... ....
 D#4|..|A#3 2F2F ....|C-5 BF.F ....|D#2 2A.F ....
....|..|--- .... ....|--- .... ....|--- .... ....
....|..|--- .... ....|R-- .... ....|--- .... ....
....|..|--- .... ....|--- .... ....|--- .... ....
....|..|A-3 2F27 ....|C-4 AF.7 ....|D-2 2F.7 ....
....|..|--- .... ....|--- .... ....|--- .... ....
 D-4|..|A-3 2F2F ....|C-4 AF.7 ....|D-2 2A.F ....
....|..|--- .... ....|--- .... ....|--- .... ....
....|..|--- .... ....|B-8 JF.F ....|--- .... ....
....|..|--- .... ....|--- .... ....|--- .... ....
....|..|--- .... ....|R-- .... ....|--- .... ....
....|..|--- .... ....|--- .... ....|--- .... ....
 D#4|..|A#3 2F2F ....|C-4 AF.F ....|D#2 2A.F ....
....|..|--- .... ....|--- .... ....|--- .... ....
....|..|--- .... ....|B-8 JF.A ....|--- .... ....
....|..|--- .... ....|--- .... ....|--- .... ....
 D-4|..|A-3 2F2F ....|C-5 BF.F ....|D-2 2A.F ....
....|..|--- .... ....|--- .... ....|--- .... ....
....|..|A-3 2F27 ....|C-4 AF.A ....|D-2 2F.7 ....
....|..|--- .... ....|--- .... ....|--- .... ....
 D#4|..|A#3 2F2F ....|C-4 AF.F ....|D#2 2A.F ....
....|..|--- .... ....|--- .... ....|--- .... ....
....|..|A-3 2F2A ....|C-5 BF.A ....|D-2 2F.A ....
....|..|--- .... ....|--- .... ....|--- .... ....
 D-4|..|A-3 2F2F ....|C-4 AF.F ....|D-2 2A.F ....
....|..|--- .... ....|--- .... ....|--- .... ....
....|..|A#3 2F2A ....|C-4 AF.F ....|D#2 2F.A ....
....|..|--- .... ....|--- .... ....|--- .... ....
....|..|A-3 2F27 ....|C-5 BF.7 ....|D-2 2F.7 ....
....|..|--- .... ....|--- .... ....|--- .... ....
....|..|A-3 2F2A ....|C-4 AF.A ....|D-2 2F.A ....
....|..|--- .... ....|--- .... ....|--- .... ....
 D#4|..|A#3 2F2F ....|C-5 BF.F ....|D#2 2A.F ....
....|..|--- .... ....|--- .... ....|--- .... ....
....|..|--- .... ....|R-- .... ....|--- .... ....
....|..|--- .... ....|--- .... ....|--- .... ....
....|..|A-3 2F27 ....|C-4 AF.7 ....|D-2 2F.7 ....
....|..|--- .... ....|--- .... ....|--- .... ....
 D-4|..|A-3 2F2F ....|C-4 AF.7 ....|D-2 2A.F ....
....|..|--- .... ....|--- .... ....|--- .... ....
....|..|--- .... ....|B-8 JF.F ....|--- .... ....
....|..|--- .... ....|--- .... ....|--- .... ....
....|..|--- .... ....|R-- .... ....|--- .... ....
....|..|--- .... ....|--- .... ....|--- .... ....
....|..|G#3 2F1F ....|C-4 AF.F ....|D#2 2F.7 ....
....|..|--- .... ....|--- .... ....|--- .... ....
....|..|--- .... ....|B-8 JF.A ....|--- .... ....
....|..|--- .... ....|--- .... ....|--- .... ....
....|..|G#3 2F4F ....|C-5 BF.F ....|--- .... ....
....|..|--- .... ....|--- .... ....|--- .... ....
....|..|G#3 2F4F ....|C-4 AF.A ....|D-2 2F.7 ....
....|..|--- .... ....|--- .... ....|--- .... ....
....|..|G#3 2F1F ....|C-4 AF.F ....|--- .... ....
....|..|--- .... ....|--- .... ....|--- .... ....
....|..|G#3 2F4A ....|C-5 BF.A ....|--- .... ....
....|..|--- .... ....|--- .... ....|--- .... ....

[Pattern12]
 D-4|..|A-3 2F2F ....|C-4 AF.F ....|D-2 2A.F ....
....|..|--- .... ....|--- .... ....|--- .... ....
....|..|G#3 2F1A ....|C-4 AF.F ....|--- .... ....
....|..|--- .... ....|--- .... ....|--- .... ....
....|..|G#3 2F47 ....|C-5 BF.7 ....|--- .... ....
....|..|--- .... ....|--- .... ....|--- .... ....
....|..|G#3 2F47 ....|C-4 AF.A ....|D-2 2F.A ....
....|..|--- .... ....|--- .... ....|--- .... ....
 D#4|..|A#3 2F2F ....|C-5 BF.F ....|D#2 2A.F ....
....|..|--- .... ....|--- .... ....|--- .... ....
....|..|--- .... ....|R-- .... ....|--- .... ....
....|..|--- .... ....|--- .... ....|--- .... ....
....|..|A-3 2F27 ....|C-4 AF.7 ....|D-2 2F.7 ....
....|..|--- .... ....|--- .... ....|--- .... ....
 D-4|..|A-3 2F2F ....|C-4 AF.7 ....|D-2 2A.F ....
....|..|--- .... ....|--- .... ....|--- .... ....
....|..|--- .... ....|B-8 JF.F ....|--- .... ....
....|..|--- .... ....|--- .... ....|--- .... ....
....|..|--- .... ....|R-- .... ....|--- .... ....
....|..|--- .... ....|--- .... ....|--- .... ....
 D#4|..|A#3 2F2F ....|C-4 AF.F ....|D#2 2A.F ....
....|..|--- .... ....|--- .... ....|--- .... ....
....|..|--- .... ....|B-8 JF.A ....|--- .... ....
....|..|--- .... ....|--- .... ....|--- .... ....
 D-4|..|A-3 2F2F ....|C-5 BF.F ....|D-2 2A.F ....
....|..|--- .... ....|--- .... ....|--- .... ....
....|..|A-3 2F27 ....|C-4 AF.A ....|D-2 2F.7 ....
....|..|--- .... ....|--- .... ....|--- .... ....
 D#4|..|A#3 2F2F ....|C-4 AF.F ....|D#2 2A.F ....
....|..|--- .... ....|--- .... ....|--- .... ....
....|..|A-3 2F2A ....|C-5 BF.A ....|D-2 2F.A ....
....|..|--- .... ....|--- .... ....|--- .... ....
 D-4|..|A-3 2F2F ....|C-4 AF.F ....|D-2 2A.F ....
....|..|--- .... ....|--- .... ....|--- .... ....
....|..|A#3 2F2A ....|C-4 AF.F ....|D#2 2F.A ....
....|..|--- .... ....|--- .... ....|--- .... ....
....|..|A-3 2F27 ....|C-5 BF.7 ....|D-2 2F.7 ....
....|..|--- .... ....|--- .... ....|--- .... ....
....|..|A-3 2F2A ....|C-4 AF.A ....|D-2 2F.A ....
....|..|--- .... ....|--- .... ....|--- .... ....
 D#4|..|A#3 2F2F ....|C-5 BF.F ....|D#2 2A.F ....
....|..|--- .... ....|--- .... ....|--- .... ....
....|..|--- .... ....|R-- .... ....|--- .... ....
....|..|--- .... ....|--- .... ....|--- .... ....
....|..|A-3 2F27 ....|C-4 AF.7 ....|D-2 2F.7 ....
....|..|--- .... ....|--- .... ....|--- .... ....
 D-4|..|A-3 2F2F ....|C-4 AF.7 ....|D-2 2A.F ....
....|..|--- .... ....|--- .... ....|--- .... ....
....|..|--- .... ....|B-8 JF.F ....|--- .... ....
....|..|--- .... ....|--- .... ....|--- .... ....
....|..|--- .... ....|R-- .... ....|--- .... ....
....|..|--- .... ....|--- .... ....|--- .... ....
 D#4|..|A#3 2F2F ....|C-4 AF.F ....|D#2 2A.F ....
....|..|--- .... ....|--- .... ....|--- .... ....
....|..|--- .... ....|B-8 JF.A ....|--- .... ....
....|..|--- .... ....|--- .... ....|--- .... ....
 D-4|..|A-2 2F.F ....|C-5 BF.F ....|D-2 2A.F ....
....|..|--- .... ....|--- .... ....|--- .... ....
 D-4|..|A-2 2F.F ....|C-4 AF.A ....|D-2 2A.F ....
....|..|--- .... ....|--- .... ....|--- .... ....
 D#4|..|A#3 2F2F ....|C-4 AF.F ....|D#2 2A.F ....
....|..|--- .... ....|--- .... ....|--- .... ....
....|..|A-2 2F.A ....|C-5 BF.A ....|D-2 2F.A ....
....|..|--- .... ....|--- .... ....|--- .... ....

[Pattern14]
....|..|G-2 2F.F ....|C-5 BF.F ....|R-- .... ....
....|..|--- .... ....|C-5 BF.F ....|--- .... ....
....|..|G-2 2F.F ....|C-5 BF.F ....|--- .... ....
....|..|--- .... ....|C-5 BF.F ....|--- .... ....
....|..|F-3 2F5F ....|C-5 BF.F ....|--- .... ....
....|..|--- .... ....|C-5 BF.F ....|--- .... ....
....|..|G-2 2F.F ....|C-5 BF.F ....|--- .... ....
....|..|--- .... ....|C-5 BF.F ....|--- .... ....
....|..|G-2 2F.F ....|C-5 BF.F ....|--- .... ....
....|..|--- .... ....|C-5 BF.F ....|--- .... ....
....|..|F-3 2F5F ....|C-5 BF.F ....|--- .... ....
....|..|--- .... ....|C-5 BF.F ....|--- .... ....
....|..|G-2 2F.F ....|C-5 BF.F ....|--- .... ....
....|..|--- .... ....|C-5 BF.F ....|--- .... ....
....|..|G-2 2F.F ....|C-5 BF.F ....|--- .... ....
....|..|--- .... ....|C-5 BF.F ....|--- .... ....
....|..|F-3 2F5F ....|C-5 BF.F ....|--- .... ....
....|..|--- .... ....|C-5 BF.F ....|--- .... ....
....|..|G-2 2F.F ....|C-5 BF.F ....|--- .... ....
....|..|--- .... ....|C-5 BF.F ....|--- .... ....
....|..|G-2 2F.F ....|C-5 BF.F ....|--- .... ....
....|..|--- .... ....|C-5 BF.F ....|--- .... ....
....|..|F-3 2F5F ....|C-5 BF.F ....|--- .... ....
....|..|--- .... ....|C-5 BF.F ....|--- .... ....
....|..|G-2 2F.F ....|C-5 BF.F ....|--- .... ....
....|..|--- .... ....|C-5 BF.F ....|--- .... ....
....|..|G-2 2F.F ....|C-5 BF.F ....|--- .... ....
....|..|--- .... ....|C-5 BF.F ....|--- .... ....
....|..|F-3 2F2F ....|C-5 BF.F ....|--- .... ....
....|..|--- .... ....|C-5 BF.F ....|--- .... ....
....|..|G-2 2F.7 ....|C-5 BF.F ....|--- .... ....
....|..|--- .... ....|C-5 BF.F ....|--- .... ....
....|..|A#3 2F4F ....|C-5 BF.F ....|--- .... ....
....|..|--- .... ....|C-5 BF.F ....|--- .... ....
....|..|A#3 2F4F ....|C-5 BF.F ....|--- .... ....
....|..|--- .... ....|C-5 BF.F ....|--- .... ....
....|..|F-3 2F4F ....|C-5 BF.F ....|--- .... ....
....|..|--- .... ....|C-5 BF.F ....|--- .... ....
....|..|A#3 2F4F ....|C-5 BF.F ....|--- .... ....
....|..|--- .... ....|C-5 BF.F ....|--- .... ....
....|..|A#3 2F4F ....|C-5 BF.F ....|--- .... ....
....|..|--- .... ....|C-5 BF.F ....|--- .... ....
....|..|F-3 2F4F ....|C-5 BF.F ....|--- .... ....
....|..|--- .... ....|C-5 BF.F ....|--- .... ....
....|..|A#3 2F4F ....|C-5 BF.F ....|--- .... ....
....|..|--- .... ....|C-5 BF.F ....|--- .... ....
....|..|A#3 2F4F ....|C-5 BF.F ....|--- .... ....
....|..|--- .... ....|C-5 BF.F ....|--- .... ....
....|..|F-3 2F5F ....|C-5 BF.F ....|--- .... ....
....|..|--- .... ....|C-5 BF.F ....|--- .... ....
....|..|A#3 2F4F ....|C-5 BF.F ....|--- .... ....
....|..|--- .... ....|C-5 BF.F ....|--- .... ....
....|..|A#3 2F4F ....|C-5 BF.F ....|--- .... ....
....|..|--- .... ....|C-5 BF.F ....|--- .... ....
....|..|F-3 2F5F ....|C-5 BF.F ....|--- .... ....
....|..|--- .... ....|C-5 BF.F ....|--- .... ....
....|..|A#3 2F4F ....|C-5 BF.F ....|--- .... ....
....|..|--- .... ....|C-5 BF.F ....|--- .... ....
....|..|A#3 2F4F ....|C-5 BF.F ....|--- .... ....
....|..|--- .... ....|C-5 BF.F ....|--- .... ....
....|..|F-3 2F2F ....|C-5 BF.F ....|--- .... ....
....|..|--- .... ....|C-5 BF.F ....|--- .... ....
....|..|A#3 2F47 ....|C-5 BF.F ....|--- .... ....
....|..|--- .... ....|C-5 BF.F ....|--- .... ....

[Pattern15]
....|..|G-2 2F.F ....|C-4 AF.F ....|--- .... ....
 G-4|..|--- .... ....|G-2 2A.F ....|--- .... ....
....|..|G-2 2F.F ....|C-4 AF.F ....|--- .... ....
 G-4|..|--- .... ....|G-2 2A.F ....|--- .... ....
....|..|F-3 2F5F ....|C-5 BF.F ....|--- .... ....
 G-4|..|--- .... ....|G-2 2A.F ....|--- .... ....
 G-4|..|G-2 2F.F ....|G-2 2A.F ....|--- .... ....
....|..|--- .... ....|C-5 BF.7 ....|--- .... ....
....|..|G-2 2F.F ....|C-4 AF.F ....|--- .... ....
 G-4|..|--- .... ....|G-2 2A.F ....|--- .... ....
....|..|F-3 2F5F ....|C-4 AF.F ....|--- .... ....
 G-4|..|--- .... ....|G-2 2A.F ....|--- .... ....
....|..|G-2 2F.F ....|C-5 BF.F ....|--- .... ....
 G-4|..|--- .... ....|G-2 2A.F ....|--- .... ....
 G-4|..|G-2 2F.F ....|G-2 2A.F ....|--- .... ....
....|..|--- .... ....|G-2 2F.7 ....|--- .... ....
....|..|F-3 2F5F ....|C-4 AF.F ....|--- .... ....
 A-3|..|--- .... ....|A-2 2C.F ....|--- .... ....
....|..|G-2 2F.F ....|C-4 AF.F ....|--- .... ....
 A-3|..|--- .... ....|A-2 2C.F ....|--- .... ....
....|..|G-2 2F.F ....|C-5 BF.F ....|--- .... ....
 A-3|..|--- .... ....|A-2 2C.F ....|--- .... ....
 A-3|..|F-3 2F5F ....|A-2 2C.F ....|--- .... ....
....|..|--- .... ....|G-2 2F.7 ....|--- .... ....
....|..|G-2 2F.F ....|C-4 AF.F ....|--- .... ....
 A#3|..|--- .... ....|A#2 2C.F ....|--- .... ....
....|..|G-2 2F.F ....|C-4 AF.F ....|--- .... ....
 A#3|..|--- .... ....|A#2 2C.F ....|--- .... ....
....|..|F-3 2F2F ....|C-5 BF.F ....|--- .... ....
 A#3|..|--- .... ....|A#2 2C.F ....|--- .... ....
 A#3|..|G-2 2F.7 ....|A#2 2C.F ....|--- .... ....
....|..|--- .... ....|A-2 2F.7 ....|--- .... ....
....|..|A#3 2F4F ....|C-4 AF.F ....|--- .... ....
 A#3|..|--- .... ....|A#2 2C.F ....|--- .... ....
....|..|A#3 2F4F ....|C-4 AF.F ....|--- .... ....
 A#3|..|--- .... ....|A#2 2C.F ....|--- .... ....
....|..|F-3 2F4F ....|C-5 BF.F ....|--- .... ....
 A#3|..|--- .... ....|A#2 2C.F ....|--- .... ....
 A#3|..|A#3 2F4F ....|A#2 2C.F ....|--- .... ....
....|..|--- .... ....|A#2 2F.7 ....|--- .... ....
....|..|A#3 2F4F ....|C-4 AF.F ....|--- .... ....
 A#3|..|--- .... ....|A#2 2C.F ....|--- .... ....
....|..|F-3 2F4F ....|C-4 AF.F ....|--- .... ....
 A#3|..|--- .... ....|A#2 2C.F ....|--- .... ....
....|..|A#3 2F4F ....|C-5 BF.F ....|--- .... ....
 A#3|..|--- .... ....|A#2 2C.F ....|--- .... ....
 D-4|..|A#3 2F4F ....|D-3 2C.F ....|--- .... ....
....|..|--- .... ....|A#2 2F.7 ....|--- .... ....
....|..|C-5 2F.F ....|C-4 AF.F ....|--- .... ....
 D-4|..|--- .... ....|D-3 2C.F ....|--- .... ....
....|..|C-5 2F.F ....|C-4 AF.F ....|--- .... ....
 D-4|..|--- .... ....|D-3 2C.F ....|--- .... ....
....|..|C-5 2F.F ....|C-5 BF.F ....|--- .... ....
 D-4|..|--- .... ....|D-3 2C.F ....|--- .... ....
 D#4|..|A-4 2F.F ....|D#3 2C.F ....|--- .... ....
....|..|--- .... ....|A#2 2F.7 ....|--- .... ....
....|..|A#3 2F47 ....|C-4 AF.F ....|--- .... ....
 D#4|..|--- .... ....|D#3 2C.F ....|--- .... ....
....|..|A#4 2F.F ....|C-4 AF.F ....|--- .... ....
 D#4|..|--- .... ....|D#3 2C.F ....|--- .... ....
....|..|C-5 2F.7 ....|C-5 BF.F ....|--- .... ....
 D#4|..|--- .... ....|D#3 2C.F ....|--- .... ....
 D#4|..|C-5 2F.7 ....|D#3 2C.F ....|--- .... ....
....|..|--- .... ....|D-3 2F.7 ....|--- .... ....

[Pattern16]
....|..|G-2 2F.F ....|C-4 AF.F ....|--- .... ....
 G-3|..|--- .... ....|G-1 2A.F ....|--- .... ....
....|..|G-2 2F.F ....|C-4 AF.F ....|--- .... ....
 G-3|..|--- .... ....|G-1 2A.F ....|--- .... ....
....|..|F-3 2F5F ....|C-5 BF.F ....|--- .... ....
 G-3|..|--- .... ....|G-1 2A.F ....|--- .... ....
 G-3|..|G-2 2F.F ....|G-1 2A.F ....|--- .... ....
....|..|--- .... ....|D#3 2F.7 ....|--- .... ....
....|..|G-2 2F.F ....|C-4 AF.F ....|--- .... ....
 G-3|..|--- .... ....|G-1 2A.F ....|--- .... ....
....|..|F-3 2F5F ....|C-4 AF.F ....|--- .... ....
 G-3|..|--- .... ....|G-1 2A.F ....|--- .... ....
....|..|G-2 2F.F ....|C-5 BF.F ....|--- .... ....
 G-3|..|--- .... ....|G-1 2A.F ....|--- .... ....
 G-3|..|G-2 2F.F ....|G-1 2A.F ....|--- .... ....
....|..|--- .... ....|G-1 2F.7 ....|--- .... ....
....|..|F-3 2F5F ....|C-4 AF.F ....|--- .... ....
 G-3|..|--- .... ....|G-1 2A.F ....|--- .... ....
....|..|G-2 2F.F ....|C-4 AF.F ....|--- .... ....
 G-3|..|--- .... ....|G-1 2A.F ....|--- .... ....
....|..|G-2 2F.F ....|C-5 BF.F ....|--- .... ....
 G-3|..|--- .... ....|G-1 2A.F ....|--- .... ....
 G-3|..|F-3 2F5F ....|G-1 2A.F ....|--- .... ....
....|..|--- .... ....|G-1 2F.7 ....|--- .... ....
....|..|G-2 2F.F ....|C-4 AF.F ....|--- .... ....
 G-3|..|--- .... ....|G-1 2A.F ....|--- .... ....
....|..|G-2 2F.F ....|C-4 AF.F ....|--- .... ....
 G-3|..|--- .... ....|G-1 2A.F ....|--- .... ....
....|..|F-3 2F2F ....|C-5 BF.F ....|--- .... ....
 G-3|..|--- .... ....|G-1 2A.F ....|--- .... ....
 G-3|..|G-2 2F.7 ....|G-1 2A.F ....|--- .... ....
....|..|--- .... ....|G-1 2F.7 ....|--- .... ....
....|..|A#3 2F4F ....|C-4 AF.F ....|--- .... ....
 A#3|..|--- .... ....|A#1 2A.F ....|--- .... ....
....|..|A#3 2F4F ....|C-4 AF.F ....|--- .... ....
 A#3|..|--- .... ....|A#1 2A.F ....|--- .... ....
....|..|F-3 2F4F ....|C-5 BF.F ....|--- .... ....
 A#3|..|--- .... ....|A#1 2A.F ....|--- .... ....
 A#3|..|A#3 2F4F ....|A#1 2A.F ....|--- .... ....
....|..|--- .... ....|G-1 2F.7 ....|--- .... ....
....|..|A#3 2F4F ....|C-4 AF.F ....|--- .... ....
 A#3|..|--- .... ....|A#1 2A.F ....|--- .... ....
....|..|F-3 2F4F ....|C-4 AF.F ....|--- .... ....
 A#3|..|--- .... ....|A#1 2A.F ....|--- .... ....
....|..|A#3 2F4F ....|C-5 BF.F ....|--- .... ....
 A#3|..|--- .... ....|A#1 2A.F ....|--- .... ....
 A#3|..|A#3 2F4F ....|A#1 2A.F ....|--- .... ....
....|..|--- .... ....|A#1 2F.7 ....|--- .... ....
....|..|F-3 2F5F ....|C-4 AF.F ....|--- .... ....
 A#3|..|--- .... ....|A#1 2A.F ....|--- .... ....
....|..|A#3 2F4F ....|C-4 AF.F ....|--- .... ....
 A#3|..|--- .... ....|A#1 2A.F ....|--- .... ....
....|..|A#3 2F4F ....|C-5 BF.F ....|--- .... ....
 A#3|..|--- .... ....|A#1 2A.F ....|--- .... ....
 A#3|..|F-3 2F5F ....|A#1 2A.F ....|--- .... ....
....|..|--- .... ....|A#1 2F.7 ....|--- .... ....
....|..|A#3 2F4F ....|C-4 AF.F ....|--- .... ....
 A-3|..|--- .... ....|A-1 2A.F ....|--- .... ....
....|..|A#3 2F4F ....|C-4 AF.F ....|--- .... ....
 A-3|..|--- .... ....|A-1 2A.F ....|--- .... ....
....|..|F-3 2F2F ....|C-5 BF.F ....|--- .... ....
 A-3|..|--- .... ....|A-1 2A.F ....|--- .... ....
 A-3|..|A#3 2F47 ....|A-1 2A.F ....|--- .... ....
....|..|--- .... ....|A#1 2F.7 ....|--- .... ....

[Pattern17]
....|..|G-2 2F.F ....|C-4 AF.F ....|--- .... ....
 G-4|..|--- .... ....|G-2 2A.F ....|--- .... ....
....|..|G-2 2F.F ....|C-4 AF.F ....|--- .... ....
 G-4|..|--- .... ....|G-2 2A.F ....|--- .... ....
....|..|F-3 2F5F ....|C-5 BF.F ....|--- .... ....
 G-4|..|--- .... ....|G-2 2A.F ....|--- .... ....
 G-4|..|G-2 2F.F ....|G-2 2A.F ....|--- .... ....
....|..|--- .... ....|A-1 2F.7 ....|--- .... ....
....|..|G-2 2F.F ....|C-4 AF.F ....|--- .... ....
 G-4|..|--- .... ....|G-2 2A.F ....|--- .... ....
....|..|F-3 2F5F ....|C-4 AF.F ....|--- .... ....
 G-4|..|--- .... ....|G-2 2A.F ....|--- .... ....
....|..|G-2 2F.F ....|C-5 BF.F ....|--- .... ....
 G-4|..|--- .... ....|G-2 2A.F ....|--- .... ....
 G-4|..|G-2 2F.F ....|G-2 2A.F ....|--- .... ....
....|..|--- .... ....|G-2 2F.7 ....|--- .... ....
....|..|F-3 2F5F ....|C-4 AF.F ....|--- .... ....
 A-3|..|--- .... ....|A-2 2C.F ....|--- .... ....
....|..|G-2 2F.F ....|C-4 AF.F ....|--- .... ....
 A-3|..|--- .... ....|A-2 2C.F ....|--- .... ....
....|..|G-2 2F.F ....|C-5 BF.F ....|--- .... ....
 A-3|..|--- .... ....|A-2 2C.F ....|--- .... ....
 A-3|..|F-3 2F5F ....|A-2 2C.F ....|--- .... ....
....|..|--- .... ....|G-2 2F.7 ....|--- .... ....
....|..|G-2 2F.F ....|C-4 AF.F ....|--- .... ....
 A#3|..|--- .... ....|A#2 2C.F ....|--- .... ....
....|..|G-2 2F.F ....|C-4 AF.F ....|--- .... ....
 A#3|..|--- .... ....|A#2 2C.F ....|--- .... ....
....|..|F-3 2F2F ....|C-5 BF.F ....|--- .... ....
 A#3|..|--- .... ....|A#2 2C.F ....|--- .... ....
 A#3|..|G-2 2F.7 ....|A#2 2C.F ....|--- .... ....
....|..|--- .... ....|A-2 2F.7 ....|--- .... ....
....|..|A#3 2F4F ....|C-4 AF.F ....|--- .... ....
 A#3|..|--- .... ....|A#2 2C.F ....|--- .... ....
....|..|A#3 2F4F ....|C-4 AF.F ....|--- .... ....
 A#3|..|--- .... ....|A#2 2C.F ....|--- .... ....
....|..|F-3 2F4F ....|C-5 BF.F ....|--- .... ....
 A#3|..|--- .... ....|A#2 2C.F ....|--- .... ....
 A#3|..|A#3 2F4F ....|A#2 2C.F ....|--- .... ....
....|..|--- .... ....|A#2 2F.7 ....|--- .... ....
....|..|A#3 2F4F ....|C-4 AF.F ....|--- .... ....
 A#3|..|--- .... ....|A#2 2C.F ....|--- .... ....
....|..|F-3 2F4F ....|C-4 AF.F ....|--- .... ....
 A#3|..|--- .... ....|A#2 2C.F ....|--- .... ....
....|..|A#3 2F4F ....|C-5 BF.F ....|--- .... ....
 A#3|..|--- .... ....|A#2 2C.F ....|--- .... ....
 D-4|..|A#3 2F4F ....|D-3 2C.F ....|--- .... ....
....|..|--- .... ....|A#2 2F.7 ....|--- .... ....
....|..|C-5 2F.F ....|C-4 AF.F ....|--- .... ....
 D-4|..|--- .... ....|D-3 2C.F ....|--- .... ....
....|..|C-5 2F.F ....|C-4 AF.F ....|--- .... ....
 D-4|..|--- .... ....|D-3 2C.F ....|--- .... ....
....|..|C-5 2F.F ....|C-5 BF.F ....|--- .... ....
 D-4|..|--- .... ....|D-3 2C.F ....|--- .... ....
 D#4|..|A-4 2F.F ....|D#3 2C.F ....|--- .... ....
....|..|--- .... ....|A#2 2F.7 ....|--- .... ....
....|..|A#3 2F47 ....|C-4 AF.F ....|--- .... ....
 D#4|..|--- .... ....|D#3 2C.F ....|--- .... ....
....|..|A#4 2F.F ....|C-4 AF.F ....|--- .... ....
 D#4|..|--- .... ....|D#3 2C.F ....|--- .... ....
....|..|C-5 2F.7 ....|C-5 BF.F ....|--- .... ....
 D#4|..|--- .... ....|D#3 2C.F ....|--- .... ....
 D#4|..|C-5 2F.7 ....|D#3 2C.F ....|--- .... ....
....|..|--- .... ....|D-3 2F.7 ....|--- .... ....

[Pattern18]
....|..|A#3 2F6F ....|C-5 BF.F ....|--- .... ....
....|..|A#3 2F6F ....|C-5 BF.F ....|--- .... ....
....|..|A#3 2F6F ....|C-5 BF.F ....|--- .... ....
....|..|A#3 2F6F ....|C-5 BF.F ....|--- .... ....
....|..|A#3 2F6F ....|C-5 BF.F ....|--- .... ....
....|..|--- .... ....|D#3 2F.7 ....|--- .... ....
....|..|A#4 2F.7 ....|C-4 AF.7 ....|--- .... ....
....|..|A#3 2F6A ....|D#3 2F.7 ....|--- .... ....
....|..|A#3 2F7F ....|C-5 BF.F ....|--- .... ....
....|..|A#3 2F7F ....|C-5 BF.F ....|--- .... ....
....|..|A#3 2F7F ....|C-5 BF.F ....|--- .... ....
....|..|A#3 2F7F ....|C-5 BF.F ....|--- .... ....
....|..|A#3 2F7F ....|C-5 BF.F ....|--- .... ....
....|..|A#3 2F67 ....|C-5 BF.7 ....|--- .... ....
....|..|A#3 2F67 ....|C-5 BF.7 ....|--- .... ....
....|..|A#3 2F67 ....|C-5 BF.7 ....|--- .... ....
 A-3|..|F-3 2F.F ....|C-4 AF.F ....|A-3 2C.F ....
....|..|A#3 2F7A ....|C-5 BF.A ....|--- .... ....
....|..|A#3 2F7A ....|C-5 BF.A ....|--- .... ....
....|..|--- .... ....|--- .... ....|--- .... ....
....|..|A-3 2F.F ....|C-5 BF.7 ....|R-- .... ....
....|..|A#3 2F77 ....|C-5 BF.7 ....|--- .... ....
 A#3|..|A#3 2F.F ....|C-4 AF.F ....|A#3 2C.F ....
....|..|A#3 2F77 ....|C-5 BF.7 ....|--- .... ....
....|..|A#3 2F77 ....|C-5 BF.7 ....|--- .... ....
....|..|--- .... ....|--- .... ....|--- .... ....
 A-3|..|A-3 2F.F ....|C-4 AF.F ....|A-3 2C.F ....
....|..|--- .... ....|--- .... ....|--- .... ....
 F-4|..|F-3 2F.F ....|C-5 BF.F ....|F-3 2C.F ....
....|..|--- .... ....|--- .... ....|--- .... ....
....|..|--- .... ....|--- .... ....|--- .... ....
....|..|--- .... ....|--- .... ....|--- .... ....
....|..|A#3 2F6F ....|C-5 BF.F ....|R-- .... ....
....|..|A#3 2F6F ....|C-5 BF.F ....|--- .... ....
....|..|A#3 2F6F ....|C-5 BF.F ....|A#3 2F.7 ....
....|..|A#3 2F6F ....|C-5 BF.F ....|--- .... ....
....|..|A#3 2F6F ....|C-5 BF.F ....|--- .... ....
....|..|--- .... ....|--- .... ....|--- .... ....
....|..|A-3 2F.7 ....|C-4 AF.7 ....|A-3 2F.7 ....
....|..|A#3 2F6A ....|C-5 BF.A ....|--- .... ....
....|..|A#3 2F7F ....|C-5 BF.F ....|F-3 2F.7 ....
....|..|A#3 2F7F ....|C-5 BF.F ....|--- .... ....
....|..|A#3 2F7F ....|C-5 BF.F ....|--- .... ....
....|..|A#3 2F7F ....|C-5 BF.F ....|--- .... ....
....|..|A#3 2F7F ....|C-5 BF.F ....|R-- .... ....
....|..|A#3 2F67 ....|C-5 BF.7 ....|--- .... ....
....|..|A#3 2F67 ....|C-5 BF.7 ....|--- .... ....
....|..|A#3 2F67 ....|C-5 BF.7 ....|--- .... ....
 D-4|..|G-3 2F4F ....|C-4 AF.F ....|D-3 2C.F ....
....|..|A#3 2F7A ....|C-5 BF.A ....|--- .... ....
 D-4|..|G-3 2F4F ....|C-5 BF.F ....|D-3 2C.F ....
....|..|--- .... ....|--- .... ....|--- .... ....
....|..|A#3 2F77 ....|C-5 BF.7 ....|--- .... ....
....|..|A#3 2F77 ....|C-5 BF.7 ....|--- .... ....
 A-3|..|G-3 2F6F ....|C-4 AF.F ....|A-3 2C.F ....
....|..|A#3 2F77 ....|C-5 BF.7 ....|--- .... ....
....|..|A#3 2F77 ....|C-5 BF.7 ....|D-3 2F.A ....
....|..|--- .... ....|--- .... ....|--- .... ....
 A#3|..|G-3 2F8F ....|C-5 BF.F ....|A#3 2C.F ....
....|..|--- .... ....|--- .... ....|--- .... ....
....|..|G-3 2F47 ....|C-4 AF.7 ....|D-3 2F.7 ....
....|..|--- .... ....|--- .... ....|--- .... ....
....|..|G-3 2F47 ....|C-5 BF.7 ....|D-3 2F.7 ....
....|..|--- .... ....|--- .... ....|--- .... ....

[Pattern19]
....|..|A#3 2F6F ....|C-5 BF.F ....|R-- .... ....
....|..|A#3 2F6F ....|C-5 BF.F ....|--- .... ....
....|..|A#3 2F6F ....|C-5 BF.F ....|A-3 2F.7 ....
....|..|A#3 2F6F ....|C-5 BF.F ....|--- .... ....
....|..|A#3 2F6F ....|C-5 BF.F ....|--- .... ....
....|..|--- .... ....|--- .... ....|--- .... ....
....|..|G-3 2F87 ....|C-5 BF.7 ....|A#3 2F.7 ....
....|..|A#3 2F6A ....|C-5 BF.A ....|--- .... ....
....|..|A#3 2F7F ....|C-5 BF.F ....|--- .... ....
....|..|A#3 2F7F ....|C-5 BF.F ....|--- .... ....
....|..|A#3 2F7F ....|C-5 BF.F ....|--- .... ....
....|..|A#3 2F7F ....|C-5 BF.F ....|--- .... ....
....|..|A#3 2F7F ....|C-5 BF.F ....|R-- .... ....
....|..|A#3 2F67 ....|C-5 BF.7 ....|--- .... ....
....|..|A#3 2F67 ....|C-5 BF.7 ....|--- .... ....
....|..|A#3 2F67 ....|C-5 BF.7 ....|--- .... ....
....|..|A-3 2F.F ....|C-4 AF.F ....|--- .... ....
....|..|A#3 2F7A ....|C-5 BF.A ....|--- .... ....
....|..|A#3 2F7A ....|C-5 BF.A ....|--- .... ....
....|..|--- .... ....|--- .... ....|--- .... ....
....|..|A-3 2F.F ....|C-5 BF.7 ....|--- .... ....
....|..|A#3 2F77 ....|C-5 BF.7 ....|--- .... ....
....|..|A#3 2F.F ....|C-4 AF.F ....|--- .... ....
....|..|A#3 2F77 ....|C-5 BF.7 ....|--- .... ....
....|..|A#3 2F77 ....|C-5 BF.7 ....|--- .... ....
....|..|--- .... ....|--- .... ....|--- .... ....
....|..|A-3 2F.F ....|C-4 AF.F ....|--- .... ....
....|..|--- .... ....|--- .... ....|--- .... ....
....|..|F-3 2F.F ....|C-5 BF.F ....|--- .... ....
....|..|--- .... ....|--- .... ....|--- .... ....
....|..|--- .... ....|--- .... ....|--- .... ....
....|..|--- .... ....|--- .... ....|--- .... ....
....|..|A#3 2F6F ....|C-5 BF.F ....|--- .... ....
....|..|A#3 2F6F ....|C-5 BF.F ....|--- .... ....
....|..|A#3 2F6F ....|C-5 BF.F ....|--- .... ....
....|..|A#3 2F6F ....|C-5 BF.F ....|--- .... ....
....|..|A#3 2F6F ....|C-5 BF.F ....|--- .... ....
....|..|--- .... ....|--- .... ....|--- .... ....
....|..|A-3 2F.7 ....|C-4 AF.7 ....|--- .... ....
....|..|A#3 2F6A ....|C-5 BF.A ....|--- .... ....
....|..|A#3 2F7F ....|C-5 BF.F ....|--- .... ....
....|..|A#3 2F7F ....|C-5 BF.F ....|--- .... ....
....|..|A#3 2F7F ....|C-5 BF.F ....|--- .... ....
....|..|A#3 2F7F ....|C-5 BF.F ....|--- .... ....
....|..|A#3 2F7F ....|C-5 BF.F ....|--- .... ....
....|..|A#3 2F67 ....|C-5 BF.7 ....|--- .... ....
....|..|A#3 2F67 ....|C-5 BF.7 ....|--- .... ....
....|..|A#3 2F67 ....|C-5 BF.7 ....|--- .... ....
....|..|A-4 2F.F ....|C-4 AF.F ....|--- .... ....
....|..|A#3 2F7A ....|C-5 BF.A ....|--- .... ....
....|..|A#3 2F7A ....|C-5 BF.A ....|--- .... ....
....|..|--- .... ....|--- .... ....|--- .... ....
....|..|A-4 2F.F ....|C-5 BF.F ....|--- .... ....
....|..|A#3 2F77 ....|C-5 BF.7 ....|--- .... ....
....|..|A#4 2F.F ....|C-4 AF.F ....|--- .... ....
....|..|A#3 2F77 ....|C-5 BF.7 ....|--- .... ....
....|..|A#3 2F77 ....|C-5 BF.7 ....|--- .... ....
....|..|--- .... ....|--- .... ....|--- .... ....
....|..|F-5 2F.F ....|C-5 BF.F ....|--- .... ....
....|..|--- .... ....|--- .... ....|--- .... ....
....|..|A-4 2F.7 ....|C-4 AF.7 ....|--- .... ....
....|..|--- .... ....|--- .... ....|--- .... ....
....|..|D-5 2F.F ....|C-5 BF.F ....|--- .... ....
....|..|--- .... ....|--- .... ....|--- .... ....

[Pattern20]
....|..|D-5 2F.F ....|C-4 AF.F ....|--- .... ....
 G-3|..|--- .... ....|G-1 2A.F ....|--- .... ....
....|..|A#4 2F.7 ....|C-4 AF.F ....|--- .... ....
 G-3|..|--- .... ....|G-1 2A.F ....|--- .... ....
....|..|D-5 2F.A ....|C-5 BF.F ....|--- .... ....
 G-3|..|--- .... ....|G-1 2A.F ....|--- .... ....
 G-3|..|F-5 2F.7 ....|G-1 2A.F ....|--- .... ....
....|..|--- .... ....|G-1 2F.A ....|--- .... ....
....|..|--- .... ....|C-4 AF.F ....|--- .... ....
 G-3|..|--- .... ....|G-1 2A.F ....|--- .... ....
....|..|D-5 2F.7 ....|C-4 AF.F ....|--- .... ....
 G-3|..|--- .... ....|G-1 2A.F ....|--- .... ....
....|..|D-5 2F.7 ....|C-5 BF.F ....|--- .... ....
 G-3|..|--- .... ....|G-1 2A.F ....|--- .... ....
 G-3|..|--- .... ....|G-1 2A.F ....|--- .... ....
....|..|--- .... ....|G-1 2F.7 ....|--- .... ....
....|..|R-- .... ....|C-4 AF.F ....|--- .... ....
 A-3|..|--- .... ....|A-1 2A.F ....|--- .... ....
....|..|--- .... ....|C-4 AF.F ....|--- .... ....
 A-3|..|--- .... ....|A-1 2A.F ....|--- .... ....
....|..|--- .... ....|C-5 BF.F ....|--- .... ....
 A-3|..|--- .... ....|A-1 2A.F ....|--- .... ....
 A-3|..|R-- .... ....|A-1 2A.F ....|--- .... ....
....|..|--- .... ....|G-1 2F.7 ....|--- .... ....
....|..|--- .... ....|C-4 AF.F ....|--- .... ....
 A#3|..|--- .... ....|A#1 2A.F ....|--- .... ....
....|..|--- .... ....|C-4 AF.F ....|--- .... ....
 A#3|..|--- .... ....|A#1 2A.F ....|--- .... ....
....|..|R-- .... ....|C-5 BF.F ....|--- .... ....
 A#3|..|--- .... ....|A#1 2A.F ....|--- .... ....
 A#3|..|--- .... ....|A#1 2A.F ....|--- .... ....
....|..|--- .... ....|A-1 2F.7 ....|--- .... ....
....|..|--- .... ....|C-4 AF.F ....|--- .... ....
 F-3|..|--- .... ....|F-1 2A.F ....|--- .... ....
....|..|--- .... ....|C-4 AF.F ....|--- .... ....
 F-3|..|--- .... ....|F-1 2A.F ....|--- .... ....
....|..|--- .... ....|C-5 BF.F ....|--- .... ....
 F-3|..|--- .... ....|F-1 2A.F ....|--- .... ....
 F-3|..|--- .... ....|F-1 2A.F ....|--- .... ....
....|..|--- .... ....|A#1 2F.7 ....|--- .... ....
....|..|--- .... ....|C-4 AF.F ....|--- .... ....
 F-3|..|--- .... ....|F-1 2A.F ....|--- .... ....
....|..|--- .... ....|C-4 AF.F ....|--- .... ....
 F-3|..|--- .... ....|F-1 2A.F ....|--- .... ....
....|..|--- .... ....|C-5 BF.F ....|--- .... ....
 F-3|..|--- .... ....|F-1 2A.F ....|--- .... ....
 F-3|..|--- .... ....|F-1 2A.F ....|--- .... ....
....|..|--- .... ....|F-1 2F.7 ....|--- .... ....
....|..|--- .... ....|C-4 AF.F ....|--- .... ....
 C-4|..|--- .... ....|C-2 2A.F ....|--- .... ....
....|..|--- .... ....|C-4 AF.F ....|--- .... ....
 C-4|..|--- .... ....|C-2 2A.F ....|--- .... ....
....|..|--- .... ....|C-5 BF.F ....|--- .... ....
 C-4|..|--- .... ....|C-2 2A.F ....|--- .... ....
 C-4|..|--- .... ....|C-2 2A.F ....|--- .... ....
....|..|--- .... ....|F-1 2F.7 ....|--- .... ....
....|..|--- .... ....|C-4 AF.F ....|--- .... ....
 A-3|..|--- .... ....|A-1 2A.F ....|--- .... ....
....|..|--- .... ....|C-4 AF.F ....|--- .... ....
 A-3|..|--- .... ....|A-1 2A.F ....|--- .... ....
....|..|--- .... ....|C-5 BF.F ....|--- .... ....
 A-3|..|--- .... ....|A-1 2A.F ....|--- .... ....
 A-3|..|--- .... ....|A-1 2A.F ....|--- .... ....
....|..|--- .... ....|C-2 2F.7 ....|--- .... ....

[Pattern21]
....|..|--- .... ....|C-4 AF.F ....|--- .... ....
 G-3|..|--- .... ....|G-1 2A.F ....|--- .... ....
....|..|--- .... ....|C-4 AF.F ....|--- .... ....
 G-3|..|--- .... ....|G-1 2A.F ....|--- .... ....
....|..|--- .... ....|C-5 BF.F ....|--- .... ....
 G-3|..|--- .... ....|G-1 2A.F ....|--- .... ....
 G-3|..|--- .... ....|G-1 2A.F ....|--- .... ....
....|..|--- .... ....|A-1 2F.7 ....|--- .... ....
....|..|--- .... ....|C-4 AF.F ....|--- .... ....
 G-3|..|--- .... ....|G-1 2A.F ....|--- .... ....
....|..|--- .... ....|C-4 AF.F ....|--- .... ....
 G-3|..|--- .... ....|G-1 2A.F ....|--- .... ....
....|..|--- .... ....|C-5 BF.F ....|--- .... ....
 G-3|..|--- .... ....|G-1 2A.F ....|--- .... ....
 G-3|..|--- .... ....|G-1 2A.F ....|--- .... ....
....|..|--- .... ....|G-1 2F.7 ....|--- .... ....
....|..|--- .... ....|C-4 AF.F ....|--- .... ....
 A-3|..|--- .... ....|A-1 2A.F ....|--- .... ....
....|..|--- .... ....|C-4 AF.F ....|--- .... ....
 A-3|..|--- .... ....|A-1 2A.F ....|--- .... ....
....|..|--- .... ....|C-5 BF.F ....|--- .... ....
 A-3|..|--- .... ....|A-1 2A.F ....|--- .... ....
 A-3|..|--- .... ....|A-1 2A.F ....|--- .... ....
....|..|--- .... ....|G-1 2F.7 ....|--- .... ....
....|..|--- .... ....|C-4 AF.F ....|--- .... ....
 A#3|..|--- .... ....|A#1 2A.F ....|--- .... ....
....|..|--- .... ....|C-4 AF.F ....|--- .... ....
 A#3|..|--- .... ....|A#1 2A.F ....|--- .... ....
....|..|--- .... ....|C-5 BF.F ....|--- .... ....
 A#3|..|--- .... ....|A#1 2A.F ....|--- .... ....
 A#3|..|--- .... ....|A#1 2A.F ....|--- .... ....
....|..|--- .... ....|A-1 2F.7 ....|--- .... ....
....|..|--- .... ....|C-4 AF.F ....|--- .... ....
 F-3|..|--- .... ....|F-1 2A.F ....|--- .... ....
....|..|--- .... ....|C-4 AF.F ....|--- .... ....
 F-3|..|--- .... ....|F-1 2A.F ....|--- .... ....
....|..|--- .... ....|C-5 BF.F ....|--- .... ....
 F-3|..|--- .... ....|F-1 2A.F ....|--- .... ....
 F-3|..|--- .... ....|F-1 2A.F ....|--- .... ....
....|..|--- .... ....|A#1 2F.7 ....|--- .... ....
....|..|--- .... ....|C-4 AF.F ....|--- .... ....
 F-3|..|--- .... ....|F-1 2A.F ....|--- .... ....
....|..|--- .... ....|C-4 AF.F ....|--- .... ....
 F-3|..|--- .... ....|F-1 2A.F ....|--- .... ....
....|..|--- .... ....|C-5 BF.F ....|--- .... ....
 F-3|..|--- .... ....|F-1 2A.F ....|--- .... ....
 F-3|..|--- .... ....|F-1 2A.F ....|--- .... ....
....|..|--- .... ....|F-1 2F.7 ....|--- .... ....
....|..|--- .... ....|C-4 AF.F ....|--- .... ....
 C-4|..|--- .... ....|C-2 2A.F ....|--- .... ....
....|..|--- .... ....|C-4 AF.F ....|--- .... ....
 C-4|..|--- .... ....|C-2 2A.F ....|--- .... ....
....|..|--- .... ....|C-5 BF.F ....|--- .... ....
 C-4|..|--- .... ....|C-2 2A.F ....|--- .... ....
 C-4|..|--- .... ....|C-2 2A.F ....|--- .... ....
....|..|--- .... ....|F-1 2F.7 ....|--- .... ....
....|..|--- .... ....|C-4 AF.F ....|--- .... ....
 A-3|..|--- .... ....|A-1 2A.F ....|--- .... ....
....|..|--- .... ....|C-4 AF.F ....|--- .... ....
 A-3|..|--- .... ....|A-1 2A.F ....|--- .... ....
....|..|--- .... ....|C-5 BF.F ....|--- .... ....
 A-3|..|--- .... ....|A-1 2A.F ....|--- .... ....
 A-3|..|--- .... ....|A-1 2A.F ....|--- .... ....
....|..|--- .... ....|C-2 2F.7 ....|--- .... ....

[Pattern22]
....|..|G-3 2F6F ....|C-4 AF.F ....|--- .... ....
 G-3|..|--- .... ....|G-1 2A.F ....|--- .... ....
....|..|G-3 2F6F ....|C-4 AF.F ....|--- .... ....
 G-3|..|--- .... ....|G-1 2A.F ....|--- .... ....
....|..|R-- .... ....|C-5 BF.F ....|--- .... ....
 G-3|..|--- .... ....|G-1 2A.F ....|--- .... ....
 G-3|..|G-3 2F6F ....|G-1 2A.F ....|--- .... ....
....|..|--- .... ....|A-1 2F.7 ....|--- .... ....
....|..|G-3 2F6F ....|C-4 AF.F ....|--- .... ....
 G-3|..|--- .... ....|G-1 2A.F ....|--- .... ....
....|..|R-- .... ....|C-4 AF.F ....|--- .... ....
 G-3|..|--- .... ....|G-1 2A.F ....|--- .... ....
 A-3|..|G-3 2F6F ....|C-5 BF.F ....|A-3 2C.F ....
 G-3|..|--- .... ....|G-1 2A.F ....|--- .F.. ....
 A-3|..|G-3 2F6F ....|G-1 2F.F ....|A-3 2C.F ....
....|..|--- .... ....|G-1 2F.7 ....|--- .... ....
....|..|R-- .... ....|C-4 AF.F ....|--- .... ....
 A-3|..|--- .... ....|A-1 2A.F ....|--- .... ....
....|..|G-3 2F6F ....|C-4 AF.F ....|A-3 2F.A ....
 A-3|..|--- .... ....|A-1 2A.F ....|--- .... ....
....|..|G-3 2F6F ....|C-5 BF.F ....|R-- .... ....
 A-3|..|--- .... ....|A-1 2A.F ....|--- .... ....
 A-3|..|R-- .... ....|A-1 2A.F ....|--- .... ....
....|..|--- .... ....|G-1 2F.7 ....|--- .... ....
....|..|G-3 2F4F ....|C-4 AF.F ....|A-3 2F.7 ....
 A#3|..|--- .... ....|A#1 2A.F ....|--- .... ....
....|..|G-3 2F4F ....|C-4 AF.F ....|A-3 2F.7 ....
 A#3|..|--- .... ....|A#1 2A.F ....|--- .... ....
....|..|G-3 2F8F ....|C-5 BF.F ....|--- .... ....
 A#3|..|--- .... ....|A#1 2A.F ....|--- .... ....
 A#3|..|G-3 2F67 ....|A#1 2A.F ....|--- .... ....
....|..|--- .... ....|A-1 2F.7 ....|--- .... ....
 C-4|..|A#3 2F6F ....|C-4 AF.F ....|C-4 2C.F ....
 F-3|..|--- .... ....|F-1 2A.F ....|--- .F.. ....
....|..|A#3 2F6F ....|C-4 AF.F ....|R-- .... ....
 F-3|..|--- .... ....|F-1 2A.F ....|--- .... ....
....|..|G-3 2F47 ....|C-5 BF.F ....|--- .... ....
 F-3|..|--- .... ....|F-1 2A.F ....|--- .... ....
 C-4|..|A#3 2F6F ....|F-1 2F.F ....|C-4 2C.F ....
....|..|--- .... ....|A#1 2F.7 ....|--- .... ....
....|..|A#3 2F6F ....|C-4 AF.F ....|R-- .... ....
 F-3|..|--- .... ....|F-1 2A.F ....|--- .F.. ....
....|..|R-- .... ....|C-4 AF.F ....|--- .... ....
 F-3|..|--- .... ....|F-1 2A.F ....|--- .... ....
 C-4|..|A#3 2F6F ....|C-5 BF.F ....|C-4 2C.F ....
 F-3|..|--- .... ....|F-1 2A.F ....|--- .F.. ....
 F-3|..|A#3 2F6F ....|F-1 2A.F ....|R-- .... ....
....|..|--- .... ....|F-1 2F.7 ....|--- .... ....
....|..|R-- .... ....|C-4 AF.F ....|--- .... ....
 C-4|..|--- .... ....|C-2 2A.F ....|--- .F.. ....
....|..|A#3 2F6F ....|C-4 AF.F ....|C-4 2F.7 ....
 C-4|..|--- .... ....|C-2 2A.F ....|--- .... ....
....|..|A#3 2F6F ....|C-5 BF.F ....|R-- .... ....
 C-4|..|--- .... ....|C-2 2A.F ....|--- .... ....
 C-4|..|R-- .... ....|C-2 2A.F ....|--- .... ....
....|..|--- .... ....|F-1 2F.7 ....|--- .... ....
....|..|A#3 2F4F ....|C-4 AF.F ....|C-4 2F.7 ....
 A-3|..|--- .... ....|A-1 2A.F ....|--- .... ....
....|..|A#3 2F4F ....|C-4 AF.F ....|R-- .... ....
 A-3|..|--- .... ....|A-1 2A.F ....|--- .... ....
....|..|A#3 2F7F ....|C-5 BF.F ....|--- .... ....
 A-3|..|--- .... ....|A-1 2A.F ....|--- .... ....
 A-3|..|A#3 2F67 ....|A-1 2A.F ....|--- .... ....
....|..|--- .... ....|C-2 2F.7 ....|--- .... ....

[Pattern23]
....|..|G-3 2F6F ....|C-4 AF.F ....|--- .... ....
 G-3|..|--- .... ....|G-1 2A.F ....|--- .... ....
....|..|G-3 2F6F ....|C-4 AF.F ....|--- .... ....
 G-3|..|--- .... ....|G-1 2A.F ....|--- .... ....
....|..|A#3 2F47 ....|C-5 BF.F ....|--- .... ....
 G-3|..|--- .... ....|G-1 2A.F ....|--- .... ....
 G-3|..|G-3 2F6F ....|G-1 2A.F ....|--- .... ....
....|..|--- .... ....|A-1 2F.7 ....|--- .... ....
....|..|G-3 2F6F ....|C-4 AF.F ....|--- .... ....
 G-3|..|--- .... ....|G-1 2A.F ....|--- .... ....
....|..|R-- .... ....|C-4 AF.F ....|--- .... ....
 G-3|..|--- .... ....|G-1 2A.F ....|--- .... ....
....|..|G-3 2F6F ....|C-5 BF.F ....|--- .... ....
 G-3|..|--- .... ....|G-1 2A.F ....|--- .... ....
 G-3|..|G-3 2F6F ....|G-1 2A.F ....|--- .... ....
....|..|--- .... ....|G-1 2F.7 ....|--- .... ....
....|..|R-- .... ....|C-4 AF.F ....|--- .... ....
 A-3|..|--- .... ....|A-1 2A.F ....|--- .... ....
....|..|G-3 2F6F ....|C-4 AF.F ....|--- .... ....
 A-3|..|--- .... ....|A-1 2A.F ....|--- .... ....
....|..|G-3 2F6F ....|C-5 BF.F ....|--- .... ....
 A-3|..|--- .... ....|A-1 2A.F ....|--- .... ....
 A-3|..|R-- .... ....|A-1 2A.F ....|--- .... ....
....|..|--- .... ....|G-1 2F.7 ....|--- .... ....
....|..|G-3 2F4F ....|C-4 AF.F ....|--- .... ....
 A#3|..|--- .... ....|A#1 2A.F ....|--- .... ....
....|..|G-3 2F4F ....|C-4 AF.F ....|--- .... ....
 A#3|..|--- .... ....|A#1 2A.F ....|--- .... ....
....|..|G-3 2F8F ....|C-5 BF.F ....|--- .... ....
 A#3|..|--- .... ....|A#1 2A.F ....|--- .... ....
 A#3|..|G-3 2F67 ....|A#1 2A.F ....|--- .... ....
....|..|--- .... ....|A-1 2F.7 ....|--- .... ....
....|..|A#3 2F6F ....|C-4 AF.F ....|--- .... ....
 F-3|..|--- .... ....|F-1 2A.F ....|--- .... ....
....|..|A#3 2F6F ....|C-4 AF.F ....|--- .... ....
 F-3|..|--- .... ....|F-1 2A.F ....|--- .... ....
....|..|G-3 2F47 ....|C-5 BF.F ....|--- .... ....
 F-3|..|--- .... ....|F-1 2A.F ....|--- .... ....
 F-3|..|A#3 2F6F ....|F-1 2A.F ....|--- .... ....
....|..|--- .... ....|A#1 2F.7 ....|--- .... ....
....|..|A#3 2F6F ....|C-4 AF.F ....|--- .... ....
 F-3|..|--- .... ....|F-1 2A.F ....|--- .... ....
....|..|R-- .... ....|C-4 AF.F ....|--- .... ....
 F-3|..|--- .... ....|F-1 2A.F ....|--- .... ....
....|..|A#3 2F6F ....|C-5 BF.F ....|--- .... ....
 F-3|..|--- .... ....|F-1 2A.F ....|--- .... ....
 F-3|..|A#3 2F6F ....|F-1 2A.F ....|--- .... ....
....|..|--- .... ....|F-1 2F.7 ....|--- .... ....
....|..|R-- .... ....|C-4 AF.F ....|--- .... ....
 C-4|..|--- .... ....|C-2 2A.F ....|--- .... ....
....|..|A#3 2F6F ....|C-4 AF.F ....|--- .... ....
 C-4|..|--- .... ....|C-2 2A.F ....|--- .... ....
....|..|A#3 2F6F ....|C-5 BF.F ....|--- .... ....
 C-4|..|--- .... ....|C-2 2A.F ....|--- .... ....
 C-4|..|R-- .... ....|C-2 2A.F ....|--- .... ....
....|..|--- .... ....|F-1 2F.7 ....|--- .... ....
....|..|A#3 2F4F ....|C-4 AF.F ....|--- .... ....
 A-3|..|--- .... ....|A-1 2A.F ....|--- .... ....
....|..|A#3 2F4F ....|C-4 AF.F ....|--- .... ....
 A-3|..|--- .... ....|A-1 2A.F ....|--- .... ....
....|..|A#3 2F7F ....|C-5 BF.F ....|--- .... ....
 A-3|..|--- .... ....|A-1 2A.F ....|--- .... ....
 A-3|..|A#3 2F67 ....|A-1 2A.F ....|--- .... ....
....|..|--- .... ....|C-2 2F.7 ....|--- .... ....

[Pattern24]
....|..|G-3 2F6F ....|C-4 AF.F ....|--- .... ....
 G-3|..|--- .... ....|G-1 2A.F ....|--- .... ....
....|..|G-3 2F6F ....|C-4 AF.F ....|--- .... ....
 G-3|..|--- .... ....|G-1 2A.F ....|--- .... ....
....|..|A#3 2F47 ....|C-5 BF.F ....|--- .... ....
 G-3|..|--- .... ....|G-1 2A.F ....|--- .... ....
 G-3|..|G-3 2F6F ....|G-1 2A.F ....|--- .... ....
....|..|--- .... ....|A-1 2F.7 ....|--- .... ....
....|..|G-3 2F6F ....|C-4 AF.F ....|--- .... ....
 G-3|..|--- .... ....|G-1 2A.F ....|--- .... ....
....|..|R-- .... ....|C-4 AF.F ....|--- .... ....
 G-3|..|--- .... ....|G-1 2A.F ....|--- .... ....
....|..|G-3 2F6F ....|C-5 BF.F ....|--- .... ....
 G-3|..|--- .... ....|G-1 2A.F ....|--- .... ....
 G-3|..|G-3 2F6F ....|G-1 2A.F ....|--- .... ....
....|..|--- .... ....|G-1 2F.7 ....|--- .... ....
....|..|--- .... ....|C-4 AF.F ....|--- .... ....
 A-3|..|--- .... ....|A-1 2A.F ....|--- .... ....
....|..|G-3 2F6F ....|C-4 AF.F ....|--- .... ....
 A-3|..|--- .... ....|A-1 2A.F ....|--- .... ....
....|..|G-3 2F6F ....|C-5 BF.F ....|--- .... ....
 A-3|..|--- .... ....|A-1 2A.F ....|--- .... ....
 A-3|..|--- .... ....|A-1 2A.F ....|--- .... ....
....|..|--- .... ....|G-1 2F.7 ....|--- .... ....
....|..|G-3 2F4F ....|C-4 AF.F ....|--- .... ....
 A#3|..|--- .... ....|A#1 2A.F ....|--- .... ....
....|..|G-3 2F4F ....|C-4 AF.F ....|--- .... ....
 A#3|..|--- .... ....|A#1 2A.F ....|--- .... ....
....|..|G-3 2F8F ....|C-5 BF.F ....|--- .... ....
 A#3|..|--- .... ....|A#1 2A.F ....|--- .... ....
 A#3|..|G-3 2F67 ....|A#1 2A.F ....|--- .... ....
....|..|--- .... ....|A-1 2F.7 ....|--- .... ....
....|..|A#3 2F6F ....|C-4 AF.F ....|--- .... ....
 F-3|..|--- .... ....|F-1 2A.F ....|--- .... ....
....|..|A#3 2F6F ....|C-4 AF.F ....|--- .... ....
 F-3|..|--- .... ....|F-1 2A.F ....|--- .... ....
....|..|G-3 2F47 ....|C-5 BF.F ....|--- .... ....
 F-3|..|--- .... ....|F-1 2A.F ....|--- .... ....
 F-3|..|A#3 2F6F ....|F-1 2A.F ....|--- .... ....
....|..|--- .... ....|A#1 2F.7 ....|--- .... ....
....|..|A#3 2F6F ....|C-4 AF.F ....|--- .... ....
 F-3|..|--- .... ....|F-1 2A.F ....|--- .... ....
....|..|--- .... ....|C-4 AF.F ....|--- .... ....
 F-3|..|--- .... ....|F-1 2A.F ....|--- .... ....
....|..|A#3 2F6F ....|C-5 BF.F ....|--- .... ....
 F-3|..|--- .... ....|F-1 2A.F ....|--- .... ....
 F-3|..|A#3 2F6F ....|F-1 2A.F ....|--- .... ....
....|..|--- .... ....|F-1 2F.7 ....|--- .... ....
....|..|--- .... ....|C-4 AF.F ....|--- .... ....
 C-4|..|--- .... ....|C-2 2A.F ....|--- .... ....
....|..|A#3 2F6F ....|C-4 AF.F ....|--- .... ....
 C-4|..|--- .... ....|C-2 2A.F ....|--- .... ....
....|..|A#3 2F6F ....|C-5 BF.F ....|--- .... ....
 C-4|..|--- .... ....|C-2 2A.F ....|--- .... ....
 C-4|..|--- .... ....|C-2 2A.F ....|--- .... ....
....|..|--- .... ....|F-1 2F.7 ....|--- .... ....
....|..|A#3 2F4F ....|C-4 AF.F ....|--- .... ....
 A-3|..|--- .... ....|A-1 2A.F ....|--- .... ....
....|..|A#3 2F4F ....|C-4 AF.F ....|--- .... ....
 A-3|..|--- .... ....|A-1 2A.F ....|--- .... ....
....|..|A#3 2F7F ....|C-5 BF.F ....|--- .... ....
 A-3|..|--- .... ....|A-1 2A.F ....|--- .... ....
 A-3|..|A#3 2F67 ....|A-1 2A.F ....|--- .... ....
....|..|--- .... ....|C-2 2F.7 ....|--- .... ....

[Pattern25]
....|..|G-3 2F6F ....|C-4 AF.F ....|--- .... ....
 G-3|..|--- .... ....|G-1 2A.F ....|--- .... ....
....|..|G-3 2F6F ....|C-4 AF.F ....|--- .... ....
 G-3|..|--- .... ....|G-1 2A.F ....|--- .... ....
....|..|A#3 2F47 ....|C-5 BF.F ....|--- .... ....
 G-3|..|--- .... ....|G-1 2A.F ....|--- .... ....
 G-3|..|G-3 2F6F ....|G-1 2A.F ....|--- .... ....
....|..|--- .... ....|A-1 2F.7 ....|--- .... ....
....|..|G-3 2F6F ....|C-4 AF.F ....|--- .... ....
 G-3|..|--- .... ....|G-1 2A.F ....|--- .... ....
....|..|--- .... ....|C-4 AF.F ....|--- .... ....
 G-3|..|--- .... ....|G-1 2A.F ....|--- .... ....
....|..|G-3 2F6F ....|C-5 BF.F ....|--- .... ....
 G-3|..|--- .... ....|G-1 2A.F ....|--- .... ....
 G-3|..|G-3 2F6F ....|G-1 2A.F ....|--- .... ....
....|..|--- .... ....|G-1 2F.7 ....|--- .... ....
....|..|--- .... ....|C-4 AF.F ....|--- .... ....
 A-3|..|--- .... ....|A-1 2A.F ....|--- .... ....
....|..|G-3 2F6F ....|C-4 AF.F ....|--- .... ....
 A-3|..|--- .... ....|A-1 2A.F ....|--- .... ....
....|..|G-3 2F6F ....|C-5 BF.F ....|--- .... ....
 A-3|..|--- .... ....|A-1 2A.F ....|--- .... ....
 A-3|..|--- .... ....|A-1 2A.F ....|--- .... ....
....|..|--- .... ....|G-1 2F.7 ....|--- .... ....
....|..|G-3 2F4F ....|C-4 AF.F ....|--- .... ....
 A#3|..|--- .... ....|A#1 2A.F ....|--- .... ....
....|..|G-3 2F4F ....|C-4 AF.F ....|--- .... ....
 A#3|..|--- .... ....|A#1 2A.F ....|--- .... ....
....|..|G-3 2F8F ....|C-5 BF.F ....|--- .... ....
 A#3|..|--- .... ....|A#1 2A.F ....|--- .... ....
 A#3|..|G-3 2F67 ....|A#1 2A.F ....|--- .... ....
....|..|--- .... ....|A-1 2F.7 ....|--- .... ....
....|..|A#3 2F6F ....|C-4 AF.F ....|--- .... ....
 F-3|..|--- .... ....|F-1 2A.F ....|--- .... ....
....|..|A#3 2F6F ....|C-4 AF.F ....|--- .... ....
 F-3|..|--- .... ....|F-1 2A.F ....|--- .... ....
....|..|G-3 2F47 ....|C-5 BF.F ....|--- .... ....
 F-3|..|--- .... ....|F-1 2A.F ....|--- .... ....
 F-3|..|A#3 2F6F ....|F-1 2A.F ....|--- .... ....
....|..|--- .... ....|A#1 2F.7 ....|--- .... ....
....|..|A#3 2F6F ....|C-4 AF.F ....|--- .... ....
 F-3|..|--- .... ....|F-1 2A.F ....|--- .... ....
....|..|--- .... ....|C-4 AF.F ....|--- .... ....
 F-3|..|--- .... ....|F-1 2A.F ....|--- .... ....
....|..|A#3 2F6F ....|C-5 BF.F ....|--- .... ....
 F-3|..|--- .... ....|F-1 2A.F ....|--- .... ....
 F-3|..|A#3 2F6F ....|F-1 2A.F ....|--- .... ....
....|..|--- .... ....|F-1 2F.7 ....|--- .... ....
....|..|--- .... ....|C-4 AF.F ....|--- .... ....
 C-4|..|--- .... ....|C-2 2A.F ....|--- .... ....
....|..|A#3 2F6F ....|C-4 AF.F ....|--- .... ....
 C-4|..|--- .... ....|C-2 2A.F ....|--- .... ....
....|..|A#3 2F6F ....|C-5 BF.F ....|--- .... ....
 C-4|..|--- .... ....|C-2 2A.F ....|--- .... ....
 C-4|..|--- .... ....|C-2 2A.F ....|--- .... ....
....|..|--- .... ....|F-1 2F.7 ....|--- .... ....
....|..|A#3 2F9F ....|C-4 AF.F ....|--- .... ....
 A-3|..|--- .... ....|A-1 2A.F ....|--- .... ....
....|..|A#3 2F67 ....|C-4 AF.F ....|--- .... ....
 A-3|..|--- .... ....|A-1 2A.F ....|--- .... ....
....|..|A#3 2F9F ....|C-5 BF.F ....|--- .... ....
 A-3|..|--- .... ....|A-1 2A.F ....|--- .... ....
 A-3|..|A#3 2F67 ....|A-1 2A.F ....|--- .... ....
....|..|--- .... ....|C-2 2F.7 ....|--- .... ....

[Pattern26]
....|..|G-3 2F1F ....|C-4 AF.F ....|--- .... ....
 G-4|..|--- .... ....|G-2 2A.F ....|--- .... ....
....|..|A#3 2F9A ....|C-2 2F.7 ....|--- .... ....
....|..|--- .... ....|A-1 2F.A ....|--- .... ....
....|..|A#3 2F97 ....|C-4 AF.F ....|--- .... ....
....|..|--- .... ....|A-1 2F.7 ....|--- .... ....
 G-4|..|G-3 2F1F ....|G-2 2A.F ....|--- .... ....
....|..|--- .... ....|A-1 2F.7 ....|--- .... ....
....|..|G-3 2F1F ....|C-4 AF.F ....|--- .... ....
 G-4|..|--- .... ....|G-2 2A.F ....|--- .... ....
....|..|--- .... ....|A-1 2F.7 ....|--- .... ....
....|..|--- .... ....|--- .... ....|--- .... ....
 D#4|..|A#3 2F2F ....|C-4 AF.F ....|D#2 2A.F ....
 D#4|..|--- .... ....|D#2 2A.F ....|--- .... ....
....|..|G-3 2F1A ....|C-4 AF.A ....|--- .... ....
....|..|--- .... ....|G-2 2F.A ....|--- .... ....
....|..|--- .... ....|C-5 BF.F ....|--- .... ....
....|..|--- .... ....|R-- .... ....|--- .... ....
....|..|G-3 2F17 ....|G-2 2F.7 ....|D#2 2F.A ....
....|..|--- .... ....|D#2 2F.A ....|--- .... ....
....|..|G-3 2F17 ....|C-4 AF.F ....|--- .... ....
....|..|--- .... ....|G-2 2F.7 ....|--- .... ....
....|..|--- .... ....|C-5 BF.A ....|--- .... ....
....|..|--- .... ....|R-- .... ....|--- .... ....
....|..|A#3 2F27 ....|B-8 JF.F ....|D#2 2F.7 ....
....|..|--- .... ....|D#2 2F.7 ....|--- .... ....
....|..|--- .... ....|C-4 AF.A ....|--- .... ....
....|..|--- .... ....|--- .... ....|--- .... ....
....|..|--- .... ....|B-8 JF.F ....|--- .... ....
....|..|--- .... ....|R-- .... ....|--- .... ....
....|..|--- .... ....|B-8 JF.A ....|--- .... ....
....|..|--- .... ....|--- .... ....|--- .... ....
....|..|G-3 2F1F ....|C-4 AF.F ....|R-- .... ....
....|..|--- .... ....|--- .... ....|--- .... ....
....|..|--- .... ....|B-8 JF.A ....|--- .... ....
....|..|--- .... ....|--- .... ....|--- .... ....
....|..|--- .... ....|C-4 AF.F ....|--- .... ....
....|..|--- .... ....|--- .... ....|--- .... ....
....|..|G-3 2F1F ....|C-4 AF.A ....|R-- .... ....
....|..|--- .... ....|--- .... ....|--- .... ....
....|..|G-3 2F1F ....|C-4 AF.F ....|--- .... ....
....|..|--- .... ....|--- .... ....|--- .... ....
....|..|--- .... ....|C-4 AF.A ....|--- .... ....
....|..|--- .... ....|--- .... ....|--- .... ....
 D#4|..|A#3 2F2F ....|C-4 AF.F ....|D#2 2A.F ....
....|..|--- .... ....|--- .... ....|--- .... ....
....|..|G-3 2F1A ....|C-4 AF.A ....|--- .... ....
....|..|--- .... ....|--- .... ....|--- .... ....
....|..|--- .... ....|C-5 BF.F ....|--- .... ....
....|..|--- .... ....|--- .... ....|--- .... ....
....|..|G-3 2F17 ....|C-4 AF.A ....|D#2 2F.A ....
....|..|--- .... ....|--- .... ....|--- .... ....
....|..|G-3 2F17 ....|C-4 AF.F ....|--- .... ....
....|..|--- .... ....|--- .... ....|--- .... ....
....|..|--- .... ....|C-5 BF.A ....|--- .... ....
....|..|--- .... ....|--- .... ....|--- .... ....
....|..|A#3 2F27 ....|B-8 JF.F ....|D#2 2F.7 ....
....|..|--- .... ....|--- .... ....|--- .... ....
....|..|--- .... ....|C-4 AF.A ....|--- .... ....
....|..|--- .... ....|--- .... ....|--- .... ....
....|..|--- .... ....|B-8 JF.F ....|--- .... ....
....|..|--- .... ....|--- .... ....|--- .... ....
....|..|--- .... ....|B-8 JF.A ....|--- .... ....
....|..|--- .... ....|--- .... ....|--- .... ....

[Pattern27]
....|..|G-3 2F1F ....|C-4 AF.F ....|R-- .... ....
 G-4|..|--- .... ....|G-2 2A.F ....|--- .... ....
....|..|--- .... ....|B-8 JF.A ....|--- .... ....
....|..|--- .... ....|--- .... ....|--- .... ....
....|..|--- .... ....|C-4 AF.F ....|--- .... ....
....|..|--- .... ....|--- .... ....|--- .... ....
 G-4|..|G-3 2F1F ....|G-2 2A.F ....|R-- .... ....
....|..|--- .... ....|G-2 2F.A ....|--- .... ....
....|..|G-3 2F1F ....|C-4 AF.F ....|--- .... ....
 G-4|..|--- .... ....|G-2 2A.F ....|--- .... ....
....|..|--- .... ....|C-4 AF.A ....|--- .... ....
....|..|--- .... ....|--- .... ....|--- .... ....
 D#4|..|A#3 2F2F ....|C-4 AF.F ....|D#2 2A.F ....
 D#4|..|--- .... ....|D#2 2A.F ....|--- .... ....
....|..|G-3 2F1A ....|C-4 AF.A ....|--- .... ....
....|..|--- .... ....|G-2 2F.A ....|--- .... ....
....|..|--- .... ....|C-5 BF.F ....|--- .... ....
....|..|--- .... ....|R-- .... ....|--- .... ....
....|..|G-3 2F17 ....|G-2 2F.7 ....|D#2 2F.A ....
....|..|--- .... ....|D#2 2F.A ....|--- .... ....
....|..|G-3 2F17 ....|C-4 AF.F ....|--- .... ....
....|..|--- .... ....|G-2 2F.7 ....|--- .... ....
....|..|--- .... ....|C-5 BF.A ....|--- .... ....
....|..|--- .... ....|R-- .... ....|--- .... ....
....|..|A#3 2F27 ....|B-8 JF.F ....|D#2 2F.7 ....
....|..|--- .... ....|D#2 2F.7 ....|--- .... ....
....|..|--- .... ....|C-4 AF.A ....|--- .... ....
....|..|--- .... ....|--- .... ....|--- .... ....
....|..|--- .... ....|B-8 JF.F ....|--- .... ....
....|..|--- .... ....|R-- .... ....|--- .... ....
....|..|--- .... ....|B-8 JF.A ....|--- .... ....
....|..|--- .... ....|--- .... ....|--- .... ....
....|..|G-3 2F1F ....|C-4 AF.F ....|R-- .... ....
....|..|--- .... ....|--- .... ....|--- .... ....
....|..|--- .... ....|B-8 JF.A ....|--- .... ....
....|..|--- .... ....|--- .... ....|--- .... ....
....|..|--- .... ....|C-4 AF.F ....|--- .... ....
....|..|--- .... ....|--- .... ....|--- .... ....
....|..|G-3 2F1F ....|B-8 JF.F ....|R-- .... ....
....|..|--- .... ....|--- .... ....|--- .... ....
....|..|--- .... ....|C-4 AF.F ....|--- .... ....
....|..|--- .... ....|--- .... ....|--- .... ....
....|..|--- .... ....|C-4 AF.A ....|--- .... ....
....|..|--- .... ....|--- .... ....|--- .... ....
 D#4|..|A#3 2F2F ....|C-4 AF.F ....|D#2 2A.F ....
....|..|--- .... ....|--- .... ....|--- .... ....
....|..|--- .... ....|C-4 AF.A ....|--- .... ....
....|..|--- .... ....|--- .... ....|--- .... ....
....|..|--- .... ....|C-5 BF.F ....|--- .... ....
....|..|--- .... ....|--- .... ....|--- .... ....
....|..|G-3 2F17 ....|B-8 JF.7 ....|D#2 2F.A ....
....|..|--- .... ....|--- .... ....|--- .... ....
....|..|--- .... ....|C-4 AF.7 ....|--- .... ....
....|..|--- .... ....|--- .... ....|--- .... ....
....|..|--- .... ....|C-5 BF.A ....|--- .... ....
....|..|--- .... ....|--- .... ....|--- .... ....
....|..|F-3 2F.F ....|C-4 AF.7 ....|D#2 2F.7 ....
....|..|--- .... ....|--- .... ....|--- .... ....
....|..|--- .... ....|R-- .... ....|--- .... ....
....|..|--- .... ....|--- .... ....|--- .... ....
....|..|--- .... ....|C-5 BF.7 ....|--- .... ....
....|..|--- .... ....|--- .... ....|--- .... ....
....|..|F-3 2F.A ....|--- .... ....|R-- .... ....
....|..|--- .... ....|--- .... ....|--- .... ....

[Pattern28]
 D#4|..|A#2 2F.F ....|C-4 AF.F ....|D#2 2A.F ....
....|..|--- .... ....|--- .... ....|--- .... ....
 D-4|..|A-2 2F.F ....|C-4 AF.F ....|D-2 2A.F ....
....|..|--- .... ....|--- .... ....|--- .... ....
 D-4|..|A-2 2F.F ....|C-5 BF.F ....|D-2 2A.F ....
....|..|--- .... ....|--- .... ....|--- .... ....
 D-4|..|A-2 2F.F ....|C-4 AF.A ....|D-2 2A.F ....
....|..|--- .... ....|--- .... ....|--- .... ....
 D-4|..|A-2 2F.F ....|C-4 AF.F ....|D-2 2A.F ....
....|..|--- .... ....|--- .... ....|--- .... ....
 D-4|..|A-2 2F.F ....|C-4 AF.F ....|D-2 2A.F ....
....|..|--- .... ....|--- .... ....|--- .... ....
 D-4|..|A-2 2F.F ....|C-5 BF.F ....|D-2 2A.F ....
....|..|--- .... ....|--- .... ....|--- .... ....
 D-4|..|A-2 2F.F ....|C-4 AF.7 ....|D-2 2A.F ....
....|..|--- .... ....|--- .... ....|--- .... ....
 F-4|..|F-3 2F4F ....|C-4 AF.F ....|F-2 2A.F ....
....|..|--- .... ....|--- .... ....|--- .... ....
 F-4|..|F-3 2F4F ....|C-4 AF.F ....|F-2 2A.F ....
....|..|--- .... ....|--- .... ....|--- .... ....
 F-4|..|F-3 2F4F ....|C-5 BF.F ....|F-2 2A.F ....
....|..|--- .... ....|--- .... ....|--- .... ....
 F-4|..|F-3 2F4F ....|C-4 AF.7 ....|F-2 2A.F ....
....|..|--- .... ....|--- .... ....|--- .... ....
....|..|G#3 2F4F ....|C-4 AF.F ....|D-2 2F.7 ....
....|..|--- .... ....|--- .... ....|--- .... ....
....|..|G#3 2F4F ....|C-4 AF.F ....|D-2 2F.7 ....
....|..|--- .... ....|--- .... ....|--- .... ....
....|..|G#3 2F4F ....|C-5 BF.F ....|F-2 2F.7 ....
....|..|--- .... ....|--- .... ....|--- .... ....
....|..|G#3 2F4F ....|C-4 AF.7 ....|F-2 2F.7 ....
....|..|--- .... ....|--- .... ....|--- .... ....
 D#4|..|A#2 2F.F ....|C-4 AF.F ....|D#2 2A.F ....
....|..|--- .... ....|--- .... ....|--- .... ....
 D-4|..|A-2 2F.F ....|C-4 AF.F ....|D-2 2A.F ....
....|..|--- .... ....|--- .... ....|--- .... ....
 D-4|..|A-2 2F.F ....|C-5 BF.F ....|D-2 2A.F ....
....|..|--- .... ....|--- .... ....|--- .... ....
 D-4|..|A-2 2F.F ....|C-4 AF.7 ....|D-2 2A.F ....
....|..|--- .... ....|--- .... ....|--- .... ....
 D-4|..|A-2 2F.F ....|C-4 AF.F ....|D-2 2A.F ....
....|..|--- .... ....|--- .... ....|--- .... ....
 D-4|..|A-2 2F.F ....|C-4 AF.F ....|D-2 2A.F ....
....|..|--- .... ....|--- .... ....|--- .... ....
 D-4|..|A-2 2F.F ....|C-5 BF.F ....|D-2 2A.F ....
....|..|--- .... ....|--- .... ....|--- .... ....
....|..|G#3 2F4F ....|C-4 AF.7 ....|D-2 2F.7 ....
....|..|--- .... ....|--- .... ....|--- .... ....
....|..|A-2 2F.7 ....|C-4 AF.F ....|D-2 2F.7 ....
....|..|--- .... ....|--- .... ....|--- .... ....
....|..|G#3 2F4F ....|C-4 AF.F ....|D-2 2F.7 ....
....|..|--- .... ....|--- .... ....|--- .... ....
....|..|A-2 2F.7 ....|C-5 BF.F ....|D-2 2F.7 ....
....|..|--- .... ....|--- .... ....|--- .... ....
 F-4|..|F-3 2F4F ....|C-4 AF.7 ....|F-2 2A.F ....
....|..|--- .... ....|--- .... ....|--- .... ....
....|..|A-2 2F.7 ....|C-4 AF.F ....|D-2 2F.7 ....
....|..|--- .... ....|--- .... ....|--- .... ....
 F-4|..|F-3 2F4F ....|C-4 AF.F ....|F-2 2A.F ....
....|..|--- .... ....|--- .... ....|--- .... ....
....|..|F-3 2F4A ....|C-5 BF.F ....|F-2 2F.A ....
....|..|--- .... ....|--- .... ....|--- .... ....
....|..|G#3 2F47 ....|C-4 AF.7 ....|R-- .... ....
....|..|--- .... ....|--- .... ....|--- .... ....

[Pattern29]
 D#4|..|A#2 2F.F ....|C-4 AF.F ....|D#2 2A.F ....
....|..|--- .... ....|--- .... ....|--- .... ....
 D-4|..|A-2 2F.F ....|C-4 AF.F ....|D-2 2A.F ....
....|..|--- .... ....|--- .... ....|--- .... ....
 D-4|..|A-2 2F.F ....|C-5 BF.F ....|D-2 2A.F ....
....|..|--- .... ....|--- .... ....|--- .... ....
 D-4|..|A-2 2F.F ....|C-4 AF.7 ....|D-2 2A.F ....
....|..|--- .... ....|--- .... ....|--- .... ....
 D-4|..|A-2 2F.F ....|C-4 AF.F ....|D-2 2A.F ....
....|..|--- .... ....|--- .... ....|--- .... ....
 D-4|..|A-2 2F.F ....|C-4 AF.F ....|D-2 2A.F ....
....|..|--- .... ....|--- .... ....|--- .... ....
 D-4|..|A-2 2F.F ....|C-5 BF.F ....|D-2 2A.F ....
....|..|--- .... ....|--- .... ....|--- .... ....
 D-4|..|A-2 2F.F ....|C-4 AF.7 ....|D-2 2A.F ....
....|..|--- .... ....|--- .... ....|--- .... ....
 F-4|..|F-3 2F4F ....|C-4 AF.F ....|F-2 2A.F ....
....|..|--- .... ....|--- .... ....|--- .... ....
 F-4|..|F-3 2F4F ....|C-4 AF.F ....|F-2 2A.F ....
....|..|--- .... ....|--- .... ....|--- .... ....
 F-4|..|F-3 2F4F ....|C-5 BF.F ....|F-2 2A.F ....
....|..|--- .... ....|--- .... ....|--- .... ....
 F-4|..|F-3 2F4F ....|C-4 AF.7 ....|F-2 2A.F ....
....|..|--- .... ....|--- .... ....|--- .... ....
....|..|G#3 2F4F ....|C-4 AF.F ....|D-2 2F.7 ....
....|..|--- .... ....|--- .... ....|--- .... ....
....|..|G#3 2F4F ....|C-4 AF.F ....|D-2 2F.7 ....
....|..|--- .... ....|--- .... ....|--- .... ....
....|..|G#3 2F4F ....|C-5 BF.F ....|F-2 2F.7 ....
....|..|--- .... ....|--- .... ....|--- .... ....
....|..|G#3 2F4F ....|C-4 AF.7 ....|F-2 2F.7 ....
....|..|--- .... ....|--- .... ....|--- .... ....
 F-4|..|F-3 2F1F ....|C-4 AF.F ....|F-2 2A.F ....
....|..|--- .... ....|--- .... ....|--- .... ....
....|..|F-3 2F47 ....|C-4 AF.F ....|F-2 2F.7 ....
....|..|--- .... ....|--- .... ....|--- .... ....
 F-4|..|F-3 2F1F ....|C-5 BF.F ....|F-2 2A.F ....
....|..|--- .... ....|--- .... ....|--- .... ....
....|..|G#3 2F47 ....|C-4 AF.7 ....|F-2 2F.A ....
....|..|--- .... ....|--- .... ....|--- .... ....
 F-4|..|F-3 2F1F ....|C-4 AF.F ....|F-2 2A.F ....
....|..|--- .... ....|--- .... ....|--- .... ....
....|..|G#3 2F47 ....|C-4 AF.F ....|F-2 2F.A ....
....|..|--- .... ....|--- .... ....|--- .... ....
 F-4|..|F-3 2F1F ....|C-5 BF.F ....|F-2 2A.F ....
....|..|--- .... ....|--- .... ....|--- .... ....
....|..|F-3 2F1A ....|C-4 AF.7 ....|F-2 2F.A ....
....|..|--- .... ....|--- .... ....|--- .... ....
....|..|G#3 2FAF ....|C-4 AF.F ....|F-2 2F.7 ....
....|..|--- .... ....|--- .... ....|--- .... ....
....|..|F-3 2F1A ....|C-4 AF.F ....|F-2 2F.A ....
....|..|--- .... ....|--- .... ....|--- .... ....
....|..|G#3 2FAF ....|C-5 BF.F ....|F-2 2F.7 ....
....|..|--- .... ....|--- .... ....|--- .... ....
....|..|G#3 2FAA ....|C-4 AF.7 ....|R-- .... ....
....|..|--- .... ....|--- .... ....|--- .... ....
....|..|G#3 2FAF ....|C-4 AF.F ....|F-2 2F.7 ....
....|..|--- .... ....|--- .... ....|--- .... ....
....|..|G#3 2FAA ....|C-4 AF.F ....|--- .... ....
....|..|--- .... ....|--- .... ....|--- .... ....
....|..|G#3 2FAF ....|C-5 BF.F ....|R-- .... ....
....|..|--- .... ....|--- .... ....|--- .... ....
....|..|G#3 2FAA ....|C-4 AF.7 ....|--- .... ....
....|..|--- .... ....|--- .... ....|--- .... ....

[Pattern30]
 D#4|..|A#2 2F.F ....|C-4 AF.F ....|D#2 2A.F ....
....|..|--- .... ....|--- .... ....|--- .... ....
 D-4|..|A-2 2F.F ....|C-4 AF.F ....|D-2 2A.F ....
....|..|--- .... ....|--- .... ....|--- .... ....
 D-4|..|A-2 2F.F ....|C-5 BF.F ....|D-2 2A.F ....
....|..|--- .... ....|--- .... ....|--- .... ....
 D-4|..|A-2 2F.F ....|C-4 AF.7 ....|D-2 2A.F ....
....|..|--- .... ....|--- .... ....|--- .... ....
 D-4|..|A-2 2F.F ....|C-4 AF.F ....|D-2 2A.F ....
....|..|--- .... ....|--- .... ....|--- .... ....
 D-4|..|A-2 2F.F ....|C-4 AF.F ....|D-2 2A.F ....
....|..|--- .... ....|--- .... ....|--- .... ....
 D-4|..|A-2 2F.F ....|C-5 BF.F ....|D-2 2A.F ....
....|..|--- .... ....|--- .... ....|--- .... ....
 D-4|..|A-2 2F.F ....|C-4 AF.7 ....|D-2 2A.F ....
....|..|--- .... ....|--- .... ....|--- .... ....
 F-4|..|F-3 2F4F ....|C-4 AF.F ....|F-2 2A.F ....
....|..|--- .... ....|--- .... ....|--- .... ....
 F-4|..|F-3 2F4F ....|C-4 AF.F ....|F-2 2A.F ....
....|..|--- .... ....|--- .... ....|--- .... ....
 F-4|..|F-3 2F4F ....|C-5 BF.F ....|F-2 2A.F ....
....|..|--- .... ....|--- .... ....|--- .... ....
 F-4|..|F-3 2F4F ....|C-4 AF.7 ....|F-2 2A.F ....
....|..|--- .... ....|--- .... ....|--- .... ....
....|..|G#3 2F4F ....|C-4 AF.F ....|D-2 2F.7 ....
....|..|--- .... ....|--- .... ....|--- .... ....
....|..|G#3 2F4F ....|C-4 AF.F ....|D-2 2F.7 ....
....|..|--- .... ....|--- .... ....|--- .... ....
....|..|G#3 2F4F ....|C-5 BF.F ....|F-2 2F.7 ....
....|..|--- .... ....|--- .... ....|--- .... ....
....|..|G#3 2F4F ....|C-4 AF.7 ....|F-2 2F.7 ....
....|..|--- .... ....|--- .... ....|--- .... ....
 D#4|..|A#2 2F.F ....|C-4 AF.F ....|D#2 2A.F ....
....|..|--- .... ....|--- .... ....|--- .... ....
 D-4|..|A-2 2F.F ....|C-4 AF.F ....|D-2 2A.F ....
....|..|--- .... ....|--- .... ....|--- .... ....
 D-4|..|A-2 2F.F ....|C-5 BF.F ....|D-2 2A.F ....
....|..|--- .... ....|--- .... ....|--- .... ....
 D-4|..|A-2 2F.F ....|C-4 AF.7 ....|D-2 2A.F ....
....|..|--- .... ....|--- .... ....|--- .... ....
 D-4|..|A-2 2F.F ....|C-4 AF.F ....|D-2 2A.F ....
....|..|--- .... ....|--- .... ....|--- .... ....
 D-4|..|A-2 2F.F ....|C-4 AF.F ....|D-2 2A.F ....
....|..|--- .... ....|--- .... ....|--- .... ....
 D-4|..|A-2 2F.F ....|C-5 BF.F ....|D-2 2A.F ....
....|..|--- .... ....|--- .... ....|--- .... ....
....|..|G#3 2F4F ....|C-4 AF.7 ....|D-2 2F.7 ....
....|..|--- .... ....|--- .... ....|--- .... ....
....|..|A-2 2F.7 ....|C-4 AF.F ....|D-2 2F.7 ....
....|..|--- .... ....|--- .... ....|--- .... ....
....|..|G#3 2F4F ....|C-4 AF.F ....|D-2 2F.7 ....
....|..|--- .... ....|--- .... ....|--- .... ....
....|..|A-2 2F.7 ....|C-5 BF.F ....|D-2 2F.7 ....
....|..|--- .... ....|--- .... ....|--- .... ....
 F-4|..|F-3 2F4F ....|C-4 AF.7 ....|F-2 2A.F ....
....|..|--- .... ....|--- .... ....|--- .... ....
....|..|A-2 2F.7 ....|C-4 AF.F ....|D-2 2F.7 ....
....|..|--- .... ....|--- .... ....|--- .... ....
 F-4|..|F-3 2F4F ....|C-4 AF.F ....|F-2 2A.F ....
....|..|--- .... ....|--- .... ....|--- .... ....
....|..|F-3 2F4A ....|C-5 BF.F ....|F-2 2F.A ....
....|..|--- .... ....|--- .... ....|--- .... ....
....|..|G#3 2F47 ....|C-4 AF.7 ....|R-- .... ....
....|..|--- .... ....|--- .... ....|--- .... ....

[Pattern32]
 D-4|..|A-2 2F.F ....|C-4 AF.F ....|D-2 2A.F ....
 D-4|..|A-2 2F.F ....|C-4 AF.F ....|D-2 2A.F ....
 D-4|..|A-2 2F.F ....|C-4 AF.F ....|D-2 2A.F ....
....|..|R-- .... ....|R-- .... ....|R-- .... ....
....|..|G#3 2FA7 ....|B-8 JF.F ....|--- .... ....
....|..|--- .... ....|--- .... ....|--- .... ....
....|..|A-2 2F.A ....|C-4 AF.7 ....|D-2 2F.A ....
....|..|A-2 2F.A ....|C-4 AF.A ....|D-2 2F.A ....
....|..|G#3 2FA7 ....|C-5 BF.F ....|D-2 2F.A ....
....|..|R-- .... ....|R-- .... ....|R-- .... ....
....|..|--- .... ....|B-8 JF.A ....|--- .... ....
....|..|--- .... ....|--- .... ....|--- .... ....
 D-4|..|A-2 2F.F ....|C-4 AF.F ....|D-2 2A.F ....
 D-4|..|A-2 2F.F ....|C-4 AF.F ....|D-2 2A.F ....
 D-4|..|A-2 2F.F ....|C-4 AF.F ....|D-2 2A.F ....
 D-4|..|A-2 2F.F ....|C-4 AF.F ....|D-2 2A.F ....
 D-4|..|A-2 2F.F ....|C-4 AF.F ....|D-2 2A.F ....
....|..|R-- .... ....|--- .... ....|R-- .... ....
....|..|A-2 2F.A ....|C-4 AF.A ....|D-2 2F.A ....
....|..|A-2 2F.A ....|C-4 AF.A ....|D-2 2F.A ....
 D-4|..|A-2 2F.F ....|C-4 AF.F ....|D-2 2A.F ....
....|..|R-- .... ....|C-4 AF.A ....|R-- .... ....
....|..|A-2 2F.A ....|C-4 AF.A ....|D-2 2F.A ....
....|..|R-- .... ....|--- .... ....|R-- .... ....
 D-4|..|A-2 2F.F ....|C-4 AF.F ....|D-2 2A.F ....
 D-4|..|A-2 2F.F ....|C-4 AF.F ....|D-2 2A.F ....
 D-4|..|A-2 2F.F ....|C-4 AF.F ....|D-2 2A.F ....
....|..|A-2 2F.7 ....|C-4 AF.7 ....|D-2 2F.7 ....
....|..|A-2 2F.7 ....|B-8 JF.F ....|D-2 2F.7 ....
....|..|R-- .... ....|--- .... ....|R-- .... ....
....|..|A-2 2F.A ....|C-4 AF.A ....|D-2 2F.A ....
....|..|A-2 2F.A ....|C-4 AF.A ....|D-2 2F.A ....
 D-4|..|A-2 2F.F ....|C-4 AF.F ....|D-2 2A.F ....
 D-4|..|A-2 2F.F ....|C-4 AF.F ....|D-2 2A.F ....
 D-4|..|A-2 2F.F ....|C-4 AF.F ....|D-2 2A.F ....
....|..|R-- .... ....|R-- .... ....|R-- .... ....
....|..|A-2 2F.7 ....|B-8 JF.F ....|D-2 2F.7 ....
....|..|A-2 2F.7 ....|C-4 AF.7 ....|D-2 2F.7 ....
....|..|A-2 2F.7 ....|C-4 AF.7 ....|D-2 2F.7 ....
....|..|R-- .... ....|R-- .... ....|R-- .... ....
....|..|A-2 2F.A ....|C-5 BF.F ....|D-2 2F.A ....
....|..|R-- .... ....|R-- .... ....|R-- .... ....
....|..|--- .... ....|B-8 JF.A ....|--- .... ....
....|..|--- .... ....|--- .... ....|--- .... ....
 D-4|..|A-2 2F.F ....|C-4 AF.F ....|D-2 2A.F ....
 D-4|..|A-2 2F.F ....|C-4 AF.F ....|D-2 2A.F ....
 D-4|..|A-2 2F.F ....|C-4 AF.F ....|D-2 2A.F ....
 D-4|..|A-2 2F.F ....|C-4 AF.F ....|D-2 2A.F ....
 D-4|..|A-2 2F.F ....|C-4 AF.F ....|D-2 2A.F ....
....|..|R-- .... ....|--- .... ....|R-- .... ....
....|..|A-2 2F.A ....|C-4 AF.A ....|D-2 2F.A ....
....|..|A-2 2F.A ....|C-4 AF.A ....|D-2 2F.A ....
 D-4|..|A-2 2F.F ....|B-8 JF.F ....|D-2 2A.F ....
....|..|R-- .... ....|C-4 AF.A ....|R-- .... ....
....|..|A-2 2F.A ....|C-4 AF.A ....|D-2 2F.A ....
....|..|R-- .... ....|--- .... ....|R-- .... ....
 D-4|..|A-2 2F.F ....|C-5 BF.F ....|D-2 2A.F ....
....|..|A-2 2F.7 ....|C-4 AF.7 ....|D-2 2F.7 ....
....|..|A-2 2F.7 ....|C-4 AF.7 ....|D-2 2F.7 ....
 D-4|..|A-2 2F.F ....|C-4 AF.7 ....|D-2 2A.F ....
....|..|A-2 2F.7 ....|B-8 JF.F ....|D-2 2F.7 ....
....|..|R-- .... ....|--- .... ....|R-- .... ....
 D-4|..|A-2 2F.F ....|C-5 BF.A ....|D-2 2A.F ....
....|..|R-- .... ....|--- .... ....|R-- .... ....

[Pattern33]
 D-4|..|A-2 2F.F ....|C-4 AF.F ....|D-2 2A.F ....
 D-4|..|A-2 2F.F ....|C-4 AF.F ....|D-2 2A.F ....
 D-4|..|A-2 2F.F ....|C-4 AF.F ....|D-2 2A.F ....
....|..|R-- .... ....|R-- .... ....|R-- .... ....
....|..|A-2 2F.7 ....|B-8 JF.F ....|D-2 2F.7 ....
....|..|R-- .... ....|--- .... ....|R-- .... ....
....|..|A-2 2F.A ....|C-4 AF.A ....|D-2 2F.A ....
....|..|A-2 2F.7 ....|C-4 AF.A ....|D-2 2F.7 ....
....|..|R-- .... ....|C-5 BF.F ....|R-- .... ....
....|..|R-- .... ....|R-- .... ....|R-- .... ....
....|..|A-2 2F.7 ....|B-8 JF.A ....|D-2 2F.7 ....
....|..|R-- .... ....|--- .... ....|R-- .... ....
 D-4|..|A-2 2F.F ....|C-4 AF.F ....|D-2 2A.F ....
 D-4|..|A-2 2F.F ....|C-4 AF.F ....|D-2 2A.F ....
 D-4|..|A-2 2F.F ....|C-4 AF.F ....|D-2 2A.F ....
 D-4|..|A-2 2F.F ....|C-4 AF.F ....|D-2 2A.F ....
 D-4|..|A-2 2F.F ....|C-4 AF.F ....|D-2 2A.F ....
....|..|R-- .... ....|--- .... ....|R-- .... ....
....|..|A-2 2F.A ....|C-4 AF.A ....|D-2 2F.A ....
....|..|A-2 2F.A ....|C-4 AF.A ....|D-2 2F.A ....
 D-4|..|A-2 2F.F ....|C-4 AF.F ....|D-2 2A.F ....
....|..|R-- .... ....|C-4 AF.A ....|R-- .... ....
....|..|A-2 2F.A ....|C-4 AF.A ....|D-2 2F.A ....
....|..|R-- .... ....|--- .... ....|R-- .... ....
 D-4|..|A-2 2F.F ....|C-4 AF.F ....|D-2 2A.F ....
 D-4|..|A-2 2F.F ....|C-4 AF.F ....|D-2 2A.F ....
 D-4|..|A-2 2F.F ....|C-4 AF.F ....|D-2 2A.F ....
....|..|A-2 2F.7 ....|C-4 AF.7 ....|D-2 2F.7 ....
....|..|A-2 2F.7 ....|B-8 JF.F ....|D-2 2F.7 ....
....|..|R-- .... ....|--- .... ....|R-- .... ....
....|..|A-2 2F.A ....|C-4 AF.A ....|D-2 2F.A ....
....|..|A-2 2F.A ....|C-4 AF.A ....|D-2 2F.A ....
 D-4|..|A-2 2F.F ....|C-4 AF.F ....|D-2 2A.F ....
 D-4|..|A-2 2F.F ....|C-4 AF.F ....|D-2 2A.F ....
 D-4|..|A-2 2F.F ....|C-4 AF.F ....|D-2 2A.F ....
....|..|R-- .... ....|R-- .... ....|R-- .... ....
....|..|A-2 2F.7 ....|B-8 JF.F ....|D-2 2F.7 ....
....|..|A-2 2F.7 ....|C-4 AF.7 ....|D-2 2F.7 ....
....|..|A-2 2F.7 ....|C-4 AF.7 ....|D-2 2F.7 ....
....|..|R-- .... ....|R-- .... ....|R-- .... ....
....|..|A-2 2F.A ....|C-5 BF.F ....|D-2 2F.A ....
....|..|R-- .... ....|R-- .... ....|R-- .... ....
....|..|--- .... ....|B-8 JF.A ....|--- .... ....
....|..|--- .... ....|--- .... ....|--- .... ....
 D-4|..|A-2 2F.F ....|C-4 AF.F ....|D-2 2A.F ....
 D-4|..|A-2 2F.F ....|C-4 AF.F ....|D-2 2A.F ....
 D-4|..|A-2 2F.F ....|C-4 AF.F ....|D-2 2A.F ....
 D-4|..|A-2 2F.F ....|C-4 AF.F ....|D-2 2A.F ....
 D-4|..|A-2 2F.F ....|C-4 AF.F ....|D-2 2A.F ....
....|..|R-- .... ....|--- .... ....|R-- .... ....
....|..|A-2 2F.A ....|C-4 AF.A ....|D-2 2F.A ....
....|..|A-2 2F.A ....|C-4 AF.A ....|D-2 2F.A ....
 D-4|..|A-2 2F.F ....|B-8 JF.F ....|D-2 2A.F ....
....|..|R-- .... ....|C-4 AF.A ....|R-- .... ....
....|..|A-2 2F.A ....|C-4 AF.A ....|D-2 2F.A ....
....|..|R-- .... ....|--- .... ....|R-- .... ....
 D-4|..|A-2 2F.F ....|C-5 BF.F ....|D-2 2A.F ....
....|..|A-2 2F.7 ....|C-4 AF.7 ....|D-2 2F.7 ....
....|..|A-2 2F.7 ....|C-4 AF.7 ....|D-2 2F.7 ....
 D-4|..|A-2 2F.F ....|C-4 AF.7 ....|D-2 2A.F ....
....|..|A-2 2F.7 ....|B-8 JF.F ....|D-2 2F.7 ....
....|..|R-- .... ....|--- .... ....|R-- .... ....
 D-4|..|A-2 2F.F ....|C-5 BF.A ....|D-2 2A.F ....
....|..|R-- .... ....|--- .... ....|R-- .... ....

[Pattern34]
 D#4|..|A#3 2F2F ....|B-8 JF.7 ....|D#2 2A.F ....
....|..|R-- .... ....|--- .... ....|R-- .... ....
....|..|R-- .... ....|B-8 JF.A ....|R-- .... ....
....|..|--- .... ....|--- .... ....|--- .... ....
....|..|A-2 2F.7 ....|C-5 BF.7 ....|D-2 2F.7 ....
....|..|R-- .... ....|--- .... ....|R-- .... ....
....|..|A#3 2F2A ....|R-- .... ....|D#2 2F.A ....
....|..|A-2 2F.7 ....|--- .... ....|D-2 2F.7 ....
....|..|R-- .... ....|B-8 JF.7 ....|R-- .... ....
....|..|--- .... ....|--- .... ....|--- .... ....
....|..|A-2 2F.7 ....|--- .... ....|D-2 2F.7 ....
....|..|R-- .... ....|--- .... ....|R-- .... ....
....|..|A#3 2F27 ....|R-- .... ....|D#2 2F.7 ....
....|..|--- .... ....|--- .... ....|--- .... ....
....|..|--- .... ....|--- .... ....|--- .... ....
....|..|--- .... ....|--- .... ....|--- .... ....
 D-4|..|A-3 2F2F ....|--- .... ....|D-2 2A.F ....
....|..|--- .... ....|--- .... ....|--- .... ....
....|..|R-- .... ....|--- .... ....|R-- .... ....
....|..|--- .... ....|--- .... ....|--- .... ....
....|..|--- .... ....|--- .... ....|--- .... ....
....|..|--- .... ....|--- .... ....|--- .... ....
....|..|A-3 2F2A ....|--- .... ....|D-2 2F.A ....
....|..|--- .... ....|--- .... ....|--- .... ....
....|..|R-- .... ....|--- .... ....|R-- .... ....
....|..|--- .... ....|--- .... ....|--- .... ....
....|..|--- .... ....|--- .... ....|--- .... ....
....|..|--- .... ....|--- .... ....|--- .... ....
....|..|A-3 2F27 ....|--- .... ....|D-2 2F.7 ....
....|..|--- .... ....|--- .... ....|--- .... ....

