[Module]
VortexTrackerII=0
Version=3.5
Title=HBFS.mid
Author=oisee ^ 4d 29.05.2010
NoteTable=4
ChipFreq=1750000
Speed=4
PlayOrder=L0,1,2,3,4,1,6,7,4,1,10,11,12,13,14,15,16,17,18,19,20,21,22,23,24,25,26,27,28,29,30,31,32,33,34,35,36,37,38,39,36,37,42,43,44,45,46

[Ornament1]
L0

[Ornament2]
L7,7,2,2,0,0

[Ornament3]
L0,0,3,3,7,7,12,12

[Ornament4]
L0,0,4,4,7,7,12,12

[Ornament5]
L0,0,5,5,8,8,12,12

[Ornament6]
L0,0,3,3,6,6,12,12

[Ornament7]
L0,3,7

[Ornament8]
L0,0,3,3,8,8,12,12

[Ornament9]
0,-12,-12,-24,L-24

[Ornament10]
L0,0,12,12,0,0,12,12

[Ornament11]
24,12,0,-12,-24,-36,L-36

[Ornament12]
L0

[Ornament13]
1,L0

[Ornament14]
L0,24,0,0,0

[Ornament15]
L0,36,0,0

[Sample1]
TnE +000_ +00_ F_
TnE +000_ +00_ F_
TnE +000_ +00_ F_
TnE +000_ +00_ D_
TnE +000_ +00_ B_
TnE +000_ +00_ B_ L

[Sample2]
TnE +000_ +00_ F_ L

[Sample3]
TnE +001_ +00_ F_
TnE +002_ +00_ F_
TnE +001_ +00_ E_
TnE +002_ +00_ E_
TnE +000_ +00_ E_ L
TnE -001_ +00_ E_
TnE -002_ +00_ E_
TnE -001_ +00_ E_
TnE +000_ +00_ E_
TnE +001_ +00_ E_
TnE +002_ +00_ E_
TnE +001_ +00_ E_

[Sample4]
TnE +002_ +00_ D_
TnE +002_ +00_ D_
TnE +002_ +00_ C_
TnE +002_ +00_ B_
TnE +002_ +00_ A_ L
TnE +002_ +00_ A_
TnE +002_ +00_ A_
TnE +002_ +00_ A_
TnE +002_ +00_ A_
TnE +002_ +00_ A_
TnE +002_ +00_ A_
TnE +002_ +00_ A_

[Sample5]
TnE +000_ +00_ F_
TnE +000_ +00_ F_
tne +000_ +00_ 0_ L

[Sample6]
TnE -001_ +00_ F_ L

[Sample7]
TnE +006_ +00_ F_ L

[Sample8]
tNe +000_ +00_ F_
tNe +000_ +00_ B_
tNe +000_ +00_ 7_
tNe +000_ +00_ 6- L

[Sample9]
TnE +080_ +00_ F_
TnE +100_ +00_ E_
TnE +180_ +00_ E_
TnE +200_ +00_ E_
TnE +240_ +00_ D_
TnE +280_ +00_ D_
TnE +2C0_ +00_ D_
TnE +300_ +00_ C_
TnE +300_ +00_ C_
TnE +340_ +00_ C_
TnE +340_ +00_ C_
TnE +380_ +00_ B_
TnE +380_ +00_ B_
TnE +400_ +00_ B_
TnE +400_ +00_ B_
TnE +480_ +00_ A_
TnE +500_ +00_ 9_
TnE +580_ +00_ 7_
TnE +600_ +00_ 4_
TnE +680_ +00_ 1_
TnE +000_ +00_ 0_ L

[Sample10]
Tne +1C0_ +00_ F_
Tne +280_ +00_ E_
Tne +380_ +00_ C_
Tne +440_ +00_ A_
Tne +480_ +00_ 8_
TnE +000_ +00_ 0_ L

[Sample11]
TNe +200_ -0A_ F_
tNe +000_ +0F_ A_
TNe +200_ -07_ E_
tNe +000_ +0E_ B- L

[Sample12]
TNE +0A0_ +05_ F_
TNE +140_ +02_ D_
TNE +140_ +02_ B_
TNE +100_ +00_ A_ L
TNE +140_ +00_ A_
TNE +200_ +00_ A-

[Sample13]
Tne +200_ +00_ F_
Tne +2C0_ +00_ F_
Tne +380_ +00_ E_
Tne +500_ +00_ C_
Tne +520_ +00_ 9_
tne +000_ +00_ 0_ L

[Sample14]
TNE -100_ +00_ F_
TNE -100_ +00_ D_
TNE -100_ +00_ A_
TNE -100_ +00_ 5_
tne +000_ +00_ 0_ L

[Sample15]
TNE -100_ +00_ 5_
TNE -100_ +00_ 8_
TNE -100_ +00_ B_
TNE -100_ +00_ F_
TNe -100_ +00_ 9- L

[Sample16]
TnE +000_ +00_ C_
TnE +000_ +00_ E_
TnE +000_ +00_ F_
TnE +000_ +00_ F_
TnE +000_ +00_ E_
TnE +000_ +00_ D_
TnE +000_ +00_ C_
TnE +000_ +00_ C_ L
TnE +001_ +00_ C_
TnE +002_ +00_ C_
TnE +003_ +00_ C_
TnE +001_ +00_ C_
TnE +000_ +00_ C_
TnE -001_ +00_ C_
TnE -002_ +00_ C_
TnE -003_ +00_ C_
TnE -001_ +00_ C_
TnE +000_ +00_ C_
TnE +000_ +00_ C_

[Sample17]
Tne +1C0_ +00_ F_
Tne +280_ +00_ D_
Tne +380_ +00_ 7_
TNE +000_ +00_ 0_ L

[Sample18]
tnE +000_ +00_ 0_ L

[Sample19]
TNe +000_ +00_ F_
TNe +000_ +00_ C_
TNe +000_ +00_ 6_
TNe +000_ +01_ A- L

[Sample20]
TNE +140_ +00_ F_
tNE +000_ +00_ B- L

[Sample21]
tNE +000_ +00_ D_
tNE +000_ +00_ 8_
tNE +000_ +00_ 1_
TNE +000_ +00_ 0_ L

[Sample22]
TnE +000_ +00_ D_ L
TnE +000_ +00_ D_
tne +000_ +00_ 9_
tne +000_ +00_ 9_
TnE +000_ +00_ D_
TnE +000_ +00_ D_
tne +000_ +00_ 9_
tne +000_ +00_ 9_
TnE +000_ +00_ D_
TnE +000_ +00_ D_
TnE +000_ +00_ D_
TnE +000_ +00_ D_
TnE +000_ +00_ D_
TnE +000_ +00_ D_
tne +000_ +00_ 9_
tne +000_ +00_ 9_

[Sample23]
TnE +000_ +00_ F_ L
TnE +010_ +01_ F_
TnE +010_ +01_ F_
TnE +010_ +01_ F_
TnE +010_ +01_ F_
TnE +000_ +00_ F_
TnE +000_ +00_ F_
TnE -010_ -01_ F_
TnE -010_ -01_ F_
TnE -010_ -01_ F_
TnE -010_ -01_ F_
TnE +000_ +00_ F_

[Sample24]
TNe +000_ -01_ C_
TNe +000_ -01_ D_
TNe +000_ -01_ E_
TNe +000_ -01_ F_
TNe +000_ -01_ F_
TNe +000_ -01_ F_
TNe +000_ -01_ F_
TNe +000_ -01_ F_
TNe +000_ -01_ E_
TNe +000_ -01_ E_
TNe +000_ -01_ E_
TNe +000_ -01_ F_
TNe +000_ -01_ F_ L

[Sample25]
TNE +000_ +00_ F_
TNE +000_ +00_ F_ L
TNE +000_ +00_ F_
TNE +000_ +00_ F_
TNE +000_ +00_ F-

[Sample26]
tne +000_ +00_ 0_ L

[Sample27]
tne +000_ +00_ 0_ L

[Sample28]
tne +000_ +00_ 0_ L

[Sample29]
tne +000_ +00_ 0_ L

[Sample30]
TNE +000_ +00_ C+ L

[Sample31]
TNe +1C0_ +00_ F_
Tne +280_ +00_ E_
Tne +380_ +00_ C_
Tne +440_ +00_ A_
Tne +480_ +00_ 8_
TnE +000_ +00_ 0_ L

[Pattern0]
....|..|G-4 ...F ....|G-4 ...F ....|G-4 ...F ....
....|..|--- .... ....|--- .... ....|--- .... ....
....|..|--- .... ....|--- .... ....|--- .... ....
....|..|R-- .... ....|R-- .... ....|R-- .... ....
....|..|G-4 ...F ....|G-4 ...F ....|G-4 ...F ....
....|..|--- .... ....|--- .... ....|--- .... ....
....|..|G-4 ...A ....|G-4 ...A ....|G-4 ...A ....
....|..|R-- .... ....|R-- .... ....|R-- .... ....
....|..|G-3 ...F ....|G-3 ...F ....|G-3 ...F ....
....|..|R-- .... ....|R-- .... ....|R-- .... ....
....|..|G-4 ...A ....|G-4 ...A ....|G-4 ...A ....
....|..|R-- .... ....|R-- .... ....|R-- .... ....
....|..|G-4 ...7 ....|G-4 ...7 ....|G-4 ...7 ....
....|..|R-- .... ....|R-- .... ....|R-- .... ....
....|..|G-3 ...A ....|G-3 ...A ....|G-3 ...A ....
....|..|R-- .... ....|R-- .... ....|R-- .... ....
....|..|G-5 ...F ....|G-5 ...F ....|G-5 ...F ....
....|..|R-- .... ....|R-- .... ....|R-- .... ....
....|..|--- .... ....|--- .... ....|--- .... ....
....|..|R-- .... ....|R-- .... ....|R-- .... ....
....|..|G-5 ...F ....|G-5 ...F ....|G-5 ...F ....
....|..|--- .... ....|--- .... ....|--- .... ....
....|..|G-5 ...A ....|G-5 ...A ....|G-5 ...A ....
....|..|R-- .... ....|R-- .... ....|R-- .... ....
....|..|R-- .... ....|R-- .... ....|R-- .... ....
....|..|R-- .... ....|R-- .... ....|R-- .... ....
....|..|G-5 ...A ....|G-5 ...A ....|G-5 ...A ....
....|..|--- .... ....|--- .... ....|--- .... ....
....|..|G-5 ...7 ....|G-5 ...7 ....|G-5 ...7 ....
....|..|--- .... ....|--- .... ....|--- .... ....
....|..|R-- .... ....|R-- .... ....|R-- .... ....
....|..|R-- .... ....|R-- .... ....|R-- .... ....
....|..|A#4 ...F ....|A#4 ...F ....|A#4 ...F ....
....|..|--- .... ....|--- .... ....|--- .... ....
....|..|--- .... ....|--- .... ....|--- .... ....
....|..|R-- .... ....|R-- .... ....|R-- .... ....
....|..|A#4 ...F ....|A#4 ...F ....|A#4 ...F ....
....|..|--- .... ....|--- .... ....|--- .... ....
....|..|A#4 ...A ....|A#4 ...A ....|A#4 ...A ....
....|..|R-- .... ....|R-- .... ....|R-- .... ....
....|..|A#3 ...F ....|A#3 ...F ....|A#3 ...F ....
....|..|R-- .... ....|R-- .... ....|R-- .... ....
....|..|A#4 ...A ....|A#4 ...A ....|A#4 ...A ....
....|..|R-- .... ....|R-- .... ....|R-- .... ....
....|..|A#4 ...7 ....|A#4 ...7 ....|A#4 ...7 ....
....|..|R-- .... ....|R-- .... ....|R-- .... ....
....|..|A#3 ...A ....|A#3 ...A ....|A#3 ...A ....
....|..|R-- .... ....|R-- .... ....|R-- .... ....
....|..|A#5 ...F ....|A#5 ...F ....|A#5 ...F ....
....|..|R-- .... ....|R-- .... ....|R-- .... ....
....|..|--- .... ....|--- .... ....|--- .... ....
....|..|R-- .... ....|R-- .... ....|R-- .... ....
....|..|A#5 ...F ....|A#5 ...F ....|A#5 ...F ....
....|..|--- .... ....|--- .... ....|--- .... ....
....|..|A#5 ...A ....|A#5 ...A ....|A#5 ...A ....
....|..|R-- .... ....|R-- .... ....|R-- .... ....
....|..|R-- .... ....|R-- .... ....|R-- .... ....
....|..|R-- .... ....|R-- .... ....|R-- .... ....
....|..|A#5 ...A ....|A#5 ...A ....|A#5 ...A ....
....|..|--- .... ....|--- .... ....|--- .... ....
....|..|A#5 ...7 ....|A#5 ...7 ....|A#5 ...7 ....
....|..|--- .... ....|--- .... ....|--- .... ....
....|..|R-- .... ....|R-- .... ....|R-- .... ....
....|..|R-- .... ....|R-- .... ....|R-- .... ....

[Pattern1]
....|..|F-6 ...F ....|F-6 ...F ....|F-6 ...F ....
....|..|--- .... ....|--- .... ....|--- .... ....
....|..|--- .... ....|--- .... ....|--- .... ....
....|..|R-- .... ....|R-- .... ....|R-- .... ....
....|..|G-6 ...F ....|G-6 ...F ....|G-6 ...F ....
....|..|--- .... ....|--- .... ....|--- .... ....
....|..|F-6 ...A ....|F-6 ...A ....|F-6 ...A ....
....|..|R-- .... ....|R-- .... ....|R-- .... ....
....|..|C-4 ...F ....|C-4 ...F ....|C-4 ...F ....
....|..|R-- .... ....|R-- .... ....|R-- .... ....
....|..|G-6 ...A ....|G-6 ...A ....|G-6 ...A ....
....|..|--- .... ....|--- .... ....|--- .... ....
....|..|G-3 ...F ....|G-3 ...F ....|G-3 ...F ....
....|..|R-- .... ....|R-- .... ....|R-- .... ....
....|..|C-4 ...A ....|C-4 ...A ....|C-4 ...A ....
....|..|R-- .... ....|R-- .... ....|R-- .... ....
....|..|D#4 ...F ....|D#4 ...F ....|D#4 ...F ....
....|..|--- .... ....|--- .... ....|--- .... ....
....|..|G-3 ...A ....|G-3 ...A ....|G-3 ...A ....
....|..|R-- .... ....|R-- .... ....|R-- .... ....
....|..|G-3 ...F ....|G-3 ...F ....|G-3 ...F ....
....|..|--- .... ....|--- .... ....|--- .... ....
....|..|D#4 ...A ....|D#4 ...A ....|D#4 ...A ....
....|..|--- .... ....|--- .... ....|--- .... ....
....|..|G-6 ...F ....|G-6 ...F ....|G-6 ...F ....
....|..|--- .... ....|--- .... ....|--- .... ....
....|..|F-6 ...F ....|F-6 ...F ....|F-6 ...F ....
....|..|R-- .... ....|R-- .... ....|R-- .... ....
....|..|D-6 ...F ....|D-6 ...F ....|D-6 ...F ....
....|..|--- .... ....|--- .... ....|--- .... ....
....|..|G-6 ...A ....|G-6 ...A ....|G-6 ...A ....
....|..|R-- .... ....|R-- .... ....|R-- .... ....
....|..|F-6 ...F ....|F-6 ...F ....|F-6 ...F ....
....|..|R-- .... ....|R-- .... ....|R-- .... ....
....|..|D-6 ...A ....|D-6 ...A ....|D-6 ...A ....
....|..|--- .... ....|--- .... ....|--- .... ....
....|..|G-3 ...F ....|G-3 ...F ....|G-3 ...F ....
....|..|R-- .... ....|R-- .... ....|R-- .... ....
....|..|F-6 ...A ....|F-6 ...A ....|F-6 ...A ....
....|..|R-- .... ....|R-- .... ....|R-- .... ....
....|..|C-4 ...F ....|C-4 ...F ....|C-4 ...F ....
....|..|--- .... ....|--- .... ....|--- .... ....
....|..|G-3 ...A ....|G-3 ...A ....|G-3 ...A ....
....|..|R-- .... ....|R-- .... ....|R-- .... ....
....|..|G-3 ...F ....|G-3 ...F ....|G-3 ...F ....
....|..|--- .... ....|--- .... ....|--- .... ....
....|..|C-4 ...A ....|C-4 ...A ....|C-4 ...A ....
....|..|--- .... ....|--- .... ....|--- .... ....
....|..|A#5 ...F ....|A#5 ...F ....|A#5 ...F ....
....|..|--- .... ....|--- .... ....|--- .... ....
....|..|G-3 ...A ....|G-3 ...A ....|G-3 ...A ....
....|..|--- .... ....|--- .... ....|--- .... ....
....|..|G-3 ...F ....|G-3 ...F ....|G-3 ...F ....
....|..|--- .... ....|--- .... ....|--- .... ....
....|..|A#5 ...A ....|A#5 ...A ....|A#5 ...A ....
....|..|--- .... ....|--- .... ....|--- .... ....
....|..|C-4 ...F ....|C-4 ...F ....|C-4 ...F ....
....|..|--- .... ....|--- .... ....|--- .... ....
....|..|G-3 ...A ....|G-3 ...A ....|G-3 ...A ....
....|..|--- .... ....|--- .... ....|--- .... ....
....|..|G-3 ...F ....|G-3 ...F ....|G-3 ...F ....
....|..|--- .... ....|--- .... ....|--- .... ....
....|..|C-4 ...A ....|C-4 ...A ....|C-4 ...A ....
....|..|--- .... ....|--- .... ....|--- .... ....

[Pattern2]
....|..|G-2 ...F ....|G-2 ...F ....|G-2 ...F ....
....|..|--- .... ....|--- .... ....|--- .... ....
....|..|G-3 ...A ....|G-3 ...A ....|G-3 ...A ....
....|..|--- .... ....|--- .... ....|--- .... ....
....|..|D-3 ...F ....|D-3 ...F ....|D-3 ...F ....
....|..|--- .... ....|--- .... ....|--- .... ....
....|..|G-2 ...A ....|G-2 ...A ....|G-2 ...A ....
....|..|--- .... ....|--- .... ....|--- .... ....
....|..|D-6 ...F ....|D-6 ...F ....|D-6 ...F ....
....|..|--- .... ....|--- .... ....|--- .... ....
....|..|D-3 ...A ....|D-3 ...A ....|D-3 ...A ....
....|..|R-- .... ....|R-- .... ....|R-- .... ....
....|..|C-6 ...F ....|C-6 ...F ....|C-6 ...F ....
....|..|--- .... ....|--- .... ....|--- .... ....
....|..|D-6 ...A ....|D-6 ...A ....|D-6 ...A ....
....|..|F-2 ...F ....|F-2 ...F ....|F-2 ...F ....
....|..|D-3 ...7 ....|D-3 ...7 ....|D-3 ...7 ....
....|..|R-- .... ....|R-- .... ....|R-- .... ....
....|..|C-6 ...A ....|C-6 ...A ....|C-6 ...A ....
....|..|R-- .... ....|R-- .... ....|R-- .... ....
....|..|C-3 ...F ....|C-3 ...F ....|C-3 ...F ....
....|..|F-2 ...A ....|F-2 ...A ....|F-2 ...A ....
....|..|--- .... ....|--- .... ....|--- .... ....
....|..|R-- .... ....|R-- .... ....|R-- .... ....
....|..|C-6 ...F ....|C-6 ...F ....|C-6 ...F ....
....|..|R-- .... ....|R-- .... ....|R-- .... ....
....|..|C-3 ...A ....|C-3 ...A ....|C-3 ...A ....
....|..|R-- .... ....|R-- .... ....|R-- .... ....
....|..|A#5 ...F ....|A#5 ...F ....|A#5 ...F ....
....|..|R-- .... ....|R-- .... ....|R-- .... ....
....|..|C-6 ...A ....|C-6 ...A ....|C-6 ...A ....
....|..|D#2 ...F ....|D#2 ...F ....|D#2 ...F ....
....|..|C-3 ...7 ....|C-3 ...7 ....|C-3 ...7 ....
....|..|R-- .... ....|R-- .... ....|R-- .... ....
....|..|A#5 ...A ....|A#5 ...A ....|A#5 ...A ....
....|..|R-- .... ....|R-- .... ....|R-- .... ....
....|..|A#2 ...F ....|A#2 ...F ....|A#2 ...F ....
....|..|D#2 ...A ....|D#2 ...A ....|D#2 ...A ....
....|..|--- .... ....|--- .... ....|--- .... ....
....|..|R-- .... ....|R-- .... ....|R-- .... ....
....|..|A-5 ...F ....|A-5 ...F ....|A-5 ...F ....
....|..|R-- .... ....|R-- .... ....|R-- .... ....
....|..|A#2 ...A ....|A#2 ...A ....|A#2 ...A ....
....|..|R-- .... ....|R-- .... ....|R-- .... ....
....|..|G-5 ...F ....|G-5 ...F ....|G-5 ...F ....
....|..|R-- .... ....|R-- .... ....|R-- .... ....
....|..|A-5 ...A ....|A-5 ...A ....|A-5 ...A ....
....|..|D-2 ...F ....|D-2 ...F ....|D-2 ...F ....
....|..|A#2 ...7 ....|A#2 ...7 ....|A#2 ...7 ....
....|..|R-- .... ....|R-- .... ....|R-- .... ....
....|..|G-5 ...A ....|G-5 ...A ....|G-5 ...A ....
....|..|R-- .... ....|R-- .... ....|R-- .... ....
....|..|A-2 ...F ....|A-2 ...F ....|A-2 ...F ....
....|..|D-2 ...A ....|D-2 ...A ....|D-2 ...A ....
....|..|--- .... ....|--- .... ....|--- .... ....
....|..|R-- .... ....|R-- .... ....|R-- .... ....
....|..|D-5 ...F ....|D-5 ...F ....|D-5 ...F ....
....|..|R-- .... ....|R-- .... ....|R-- .... ....
....|..|A-2 ...A ....|A-2 ...A ....|A-2 ...A ....
....|..|R-- .... ....|R-- .... ....|R-- .... ....
....|..|C-5 ...F ....|C-5 ...F ....|C-5 ...F ....
....|..|R-- .... ....|R-- .... ....|R-- .... ....
....|..|D-5 ...A ....|D-5 ...A ....|D-5 ...A ....
....|..|F-6 ...F ....|F-6 ...F ....|F-6 ...F ....

[Pattern3]
....|..|A-2 ...7 ....|A-2 ...7 ....|A-2 ...7 ....
....|..|R-- .... ....|R-- .... ....|R-- .... ....
....|..|C-5 ...A ....|C-5 ...A ....|C-5 ...A ....
....|..|R-- .... ....|R-- .... ....|R-- .... ....
....|..|G-6 ...F ....|G-6 ...F ....|G-6 ...F ....
....|..|F-6 ...A ....|F-6 ...A ....|F-6 ...A ....
....|..|--- .... ....|--- .... ....|--- .... ....
....|..|R-- .... ....|R-- .... ....|R-- .... ....
....|..|C-3 ...F ....|C-3 ...F ....|C-3 ...F ....
....|..|R-- .... ....|R-- .... ....|R-- .... ....
....|..|G-6 ...A ....|G-6 ...A ....|G-6 ...A ....
....|..|F-6 ...7 ....|F-6 ...7 ....|F-6 ...7 ....
....|..|G-2 ...F ....|G-2 ...F ....|G-2 ...F ....
....|..|R-- .... ....|R-- .... ....|R-- .... ....
....|..|C-3 ...A ....|C-3 ...A ....|C-3 ...A ....
....|..|R-- .... ....|R-- .... ....|R-- .... ....
....|..|D#3 ...F ....|D#3 ...F ....|D#3 ...F ....
....|..|--- .... ....|--- .... ....|--- .... ....
....|..|G-2 ...A ....|G-2 ...A ....|G-2 ...A ....
....|..|R-- .... ....|R-- .... ....|R-- .... ....
....|..|G-2 ...F ....|G-2 ...F ....|G-2 ...F ....
....|..|--- .... ....|--- .... ....|--- .... ....
....|..|D#3 ...A ....|D#3 ...A ....|D#3 ...A ....
....|..|--- .... ....|--- .... ....|--- .... ....
....|..|G-6 ...F ....|G-6 ...F ....|G-6 ...F ....
....|..|--- .... ....|--- .... ....|--- .... ....
....|..|F-6 ...F ....|F-6 ...F ....|F-6 ...F ....
....|..|R-- .... ....|R-- .... ....|R-- .... ....
....|..|D-6 ...F ....|D-6 ...F ....|D-6 ...F ....
....|..|--- .... ....|--- .... ....|--- .... ....
....|..|G-6 ...A ....|G-6 ...A ....|G-6 ...A ....
....|..|R-- .... ....|R-- .... ....|R-- .... ....
....|..|F-6 ...F ....|F-6 ...F ....|F-6 ...F ....
....|..|R-- .... ....|R-- .... ....|R-- .... ....
....|..|D-6 ...A ....|D-6 ...A ....|D-6 ...A ....
....|..|--- .... ....|--- .... ....|--- .... ....
....|..|G-2 ...F ....|G-2 ...F ....|G-2 ...F ....
....|..|R-- .... ....|R-- .... ....|R-- .... ....
....|..|F-6 ...A ....|F-6 ...A ....|F-6 ...A ....
....|..|R-- .... ....|R-- .... ....|R-- .... ....
....|..|C-3 ...F ....|C-3 ...F ....|C-3 ...F ....
....|..|--- .... ....|--- .... ....|--- .... ....
....|..|G-2 ...A ....|G-2 ...A ....|G-2 ...A ....
....|..|R-- .... ....|R-- .... ....|R-- .... ....
....|..|G-2 ...F ....|G-2 ...F ....|G-2 ...F ....
....|..|--- .... ....|--- .... ....|--- .... ....
....|..|C-3 ...A ....|C-3 ...A ....|C-3 ...A ....
....|..|--- .... ....|--- .... ....|--- .... ....
....|..|A#5 ...F ....|A#5 ...F ....|A#5 ...F ....
....|..|--- .... ....|--- .... ....|--- .... ....
....|..|G-2 ...A ....|G-2 ...A ....|G-2 ...A ....
....|..|--- .... ....|--- .... ....|--- .... ....
....|..|G-2 ...F ....|G-2 ...F ....|G-2 ...F ....
....|..|--- .... ....|--- .... ....|--- .... ....
....|..|A#5 ...A ....|A#5 ...A ....|A#5 ...A ....
....|..|--- .... ....|--- .... ....|--- .... ....
....|..|C-3 ...F ....|C-3 ...F ....|C-3 ...F ....
....|..|--- .... ....|--- .... ....|--- .... ....
....|..|G-2 ...A ....|G-2 ...A ....|G-2 ...A ....
....|..|--- .... ....|--- .... ....|--- .... ....
....|..|G-2 ...F ....|G-2 ...F ....|G-2 ...F ....
....|..|--- .... ....|--- .... ....|--- .... ....
....|..|C-3 ...A ....|C-3 ...A ....|C-3 ...A ....
....|..|R-- .... ....|R-- .... ....|R-- .... ....

[Pattern4]
....|..|G-4 ...F ....|G-4 ...F ....|G-4 ...F ....
....|..|--- .... ....|--- .... ....|--- .... ....
....|..|G-2 ...A ....|G-2 ...A ....|G-2 ...A ....
....|..|R-- .... ....|R-- .... ....|R-- .... ....
....|..|G-4 ...F ....|G-4 ...F ....|G-4 ...F ....
....|..|R-- .... ....|R-- .... ....|R-- .... ....
....|..|G-4 ...A ....|G-4 ...A ....|G-4 ...A ....
....|..|--- .... ....|--- .... ....|--- .... ....
....|..|G-3 ...F ....|G-3 ...F ....|G-3 ...F ....
....|..|R-- .... ....|R-- .... ....|R-- .... ....
....|..|G-4 ...A ....|G-4 ...A ....|G-4 ...A ....
....|..|R-- .... ....|R-- .... ....|R-- .... ....
....|..|R-- .... ....|R-- .... ....|R-- .... ....
....|..|--- .... ....|--- .... ....|--- .... ....
....|..|G-3 ...A ....|G-3 ...A ....|G-3 ...A ....
....|..|R-- .... ....|R-- .... ....|R-- .... ....
....|..|G-5 ...F ....|G-5 ...F ....|G-5 ...F ....
....|..|--- .... ....|--- .... ....|--- .... ....
....|..|R-- .... ....|R-- .... ....|R-- .... ....
....|..|R-- .... ....|R-- .... ....|R-- .... ....
....|..|G-5 ...F ....|G-5 ...F ....|G-5 ...F ....
....|..|--- .... ....|--- .... ....|--- .... ....
....|..|G-5 ...A ....|G-5 ...A ....|G-5 ...A ....
....|..|--- .... ....|--- .... ....|--- .... ....
....|..|R-- .... ....|R-- .... ....|R-- .... ....
....|..|R-- .... ....|R-- .... ....|R-- .... ....
....|..|G-5 ...A ....|G-5 ...A ....|G-5 ...A ....
....|..|--- .... ....|--- .... ....|--- .... ....
....|..|G-5 ...7 ....|G-5 ...7 ....|G-5 ...7 ....
....|..|--- .... ....|--- .... ....|--- .... ....
....|..|R-- .... ....|R-- .... ....|R-- .... ....
....|..|R-- .... ....|R-- .... ....|R-- .... ....
....|..|A#4 ...F ....|A#4 ...F ....|A#4 ...F ....
....|..|--- .... ....|--- .... ....|--- .... ....
....|..|--- .... ....|--- .... ....|--- .... ....
....|..|R-- .... ....|R-- .... ....|R-- .... ....
....|..|A#4 ...F ....|A#4 ...F ....|A#4 ...F ....
....|..|--- .... ....|--- .... ....|--- .... ....
....|..|A#4 ...A ....|A#4 ...A ....|A#4 ...A ....
....|..|R-- .... ....|R-- .... ....|R-- .... ....
....|..|A#3 ...F ....|A#3 ...F ....|A#3 ...F ....
....|..|R-- .... ....|R-- .... ....|R-- .... ....
....|..|A#4 ...A ....|A#4 ...A ....|A#4 ...A ....
....|..|R-- .... ....|R-- .... ....|R-- .... ....
....|..|A#4 ...7 ....|A#4 ...7 ....|A#4 ...7 ....
....|..|R-- .... ....|R-- .... ....|R-- .... ....
....|..|A#3 ...A ....|A#3 ...A ....|A#3 ...A ....
....|..|R-- .... ....|R-- .... ....|R-- .... ....
....|..|A#5 ...F ....|A#5 ...F ....|A#5 ...F ....
....|..|R-- .... ....|R-- .... ....|R-- .... ....
....|..|--- .... ....|--- .... ....|--- .... ....
....|..|R-- .... ....|R-- .... ....|R-- .... ....
....|..|A#5 ...F ....|A#5 ...F ....|A#5 ...F ....
....|..|--- .... ....|--- .... ....|--- .... ....
....|..|A#5 ...A ....|A#5 ...A ....|A#5 ...A ....
....|..|R-- .... ....|R-- .... ....|R-- .... ....
....|..|R-- .... ....|R-- .... ....|R-- .... ....
....|..|R-- .... ....|R-- .... ....|R-- .... ....
....|..|A#5 ...A ....|A#5 ...A ....|A#5 ...A ....
....|..|--- .... ....|--- .... ....|--- .... ....
....|..|A#5 ...7 ....|A#5 ...7 ....|A#5 ...7 ....
....|..|--- .... ....|--- .... ....|--- .... ....
....|..|R-- .... ....|R-- .... ....|R-- .... ....
....|..|R-- .... ....|R-- .... ....|R-- .... ....

[Pattern6]
....|..|G-2 ...F ....|G-2 ...F ....|G-2 ...F ....
....|..|--- .... ....|--- .... ....|--- .... ....
....|..|G-3 ...A ....|G-3 ...A ....|G-3 ...A ....
....|..|--- .... ....|--- .... ....|--- .... ....
....|..|D-3 ...F ....|D-3 ...F ....|D-3 ...F ....
....|..|--- .... ....|--- .... ....|--- .... ....
....|..|G-2 ...A ....|G-2 ...A ....|G-2 ...A ....
....|..|--- .... ....|--- .... ....|--- .... ....
....|..|G-5 ...F ....|G-5 ...F ....|G-5 ...F ....
....|..|--- .... ....|--- .... ....|--- .... ....
....|..|D-3 ...A ....|D-3 ...A ....|D-3 ...A ....
....|..|R-- .... ....|R-- .... ....|R-- .... ....
....|..|F-5 ...F ....|F-5 ...F ....|F-5 ...F ....
....|..|--- .... ....|--- .... ....|--- .... ....
....|..|G-5 ...A ....|G-5 ...A ....|G-5 ...A ....
....|..|F-2 ...F ....|F-2 ...F ....|F-2 ...F ....
....|..|D-3 ...7 ....|D-3 ...7 ....|D-3 ...7 ....
....|..|R-- .... ....|R-- .... ....|R-- .... ....
....|..|F-5 ...A ....|F-5 ...A ....|F-5 ...A ....
....|..|R-- .... ....|R-- .... ....|R-- .... ....
....|..|C-3 ...F ....|C-3 ...F ....|C-3 ...F ....
....|..|F-2 ...A ....|F-2 ...A ....|F-2 ...A ....
....|..|--- .... ....|--- .... ....|--- .... ....
....|..|R-- .... ....|R-- .... ....|R-- .... ....
....|..|C-6 ...F ....|C-6 ...F ....|C-6 ...F ....
....|..|R-- .... ....|R-- .... ....|R-- .... ....
....|..|C-3 ...A ....|C-3 ...A ....|C-3 ...A ....
....|..|R-- .... ....|R-- .... ....|R-- .... ....
....|..|A#5 ...F ....|A#5 ...F ....|A#5 ...F ....
....|..|R-- .... ....|R-- .... ....|R-- .... ....
....|..|C-6 ...A ....|C-6 ...A ....|C-6 ...A ....
....|..|D#2 ...F ....|D#2 ...F ....|D#2 ...F ....
....|..|C-3 ...7 ....|C-3 ...7 ....|C-3 ...7 ....
....|..|R-- .... ....|R-- .... ....|R-- .... ....
....|..|A#5 ...A ....|A#5 ...A ....|A#5 ...A ....
....|..|R-- .... ....|R-- .... ....|R-- .... ....
....|..|A#2 ...F ....|A#2 ...F ....|A#2 ...F ....
....|..|D#2 ...A ....|D#2 ...A ....|D#2 ...A ....
....|..|--- .... ....|--- .... ....|--- .... ....
....|..|R-- .... ....|R-- .... ....|R-- .... ....
....|..|D-6 ...F ....|D-6 ...F ....|D-6 ...F ....
....|..|R-- .... ....|R-- .... ....|R-- .... ....
....|..|A#2 ...A ....|A#2 ...A ....|A#2 ...A ....
....|..|R-- .... ....|R-- .... ....|R-- .... ....
....|..|C-6 ...F ....|C-6 ...F ....|C-6 ...F ....
....|..|R-- .... ....|R-- .... ....|R-- .... ....
....|..|D-6 ...A ....|D-6 ...A ....|D-6 ...A ....
....|..|D-2 ...F ....|D-2 ...F ....|D-2 ...F ....
....|..|A#2 ...7 ....|A#2 ...7 ....|A#2 ...7 ....
....|..|R-- .... ....|R-- .... ....|R-- .... ....
....|..|C-6 ...A ....|C-6 ...A ....|C-6 ...A ....
....|..|R-- .... ....|R-- .... ....|R-- .... ....
....|..|A-2 ...F ....|A-2 ...F ....|A-2 ...F ....
....|..|D-2 ...A ....|D-2 ...A ....|D-2 ...A ....
....|..|--- .... ....|--- .... ....|--- .... ....
....|..|R-- .... ....|R-- .... ....|R-- .... ....
....|..|A-4 ...F ....|A-4 ...F ....|A-4 ...F ....
....|..|R-- .... ....|R-- .... ....|R-- .... ....
....|..|A-2 ...A ....|A-2 ...A ....|A-2 ...A ....
....|..|R-- .... ....|R-- .... ....|R-- .... ....
....|..|G-4 ...F ....|G-4 ...F ....|G-4 ...F ....
....|..|R-- .... ....|R-- .... ....|R-- .... ....
....|..|A-4 ...A ....|A-4 ...A ....|A-4 ...A ....
....|..|F-6 ...F ....|F-6 ...F ....|F-6 ...F ....

[Pattern7]
....|..|A-2 ...7 ....|A-2 ...7 ....|A-2 ...7 ....
....|..|R-- .... ....|R-- .... ....|R-- .... ....
....|..|G-4 ...A ....|G-4 ...A ....|G-4 ...A ....
....|..|R-- .... ....|R-- .... ....|R-- .... ....
....|..|G-6 ...F ....|G-6 ...F ....|G-6 ...F ....
....|..|F-6 ...A ....|F-6 ...A ....|F-6 ...A ....
....|..|--- .... ....|--- .... ....|--- .... ....
....|..|R-- .... ....|R-- .... ....|R-- .... ....
....|..|C-3 ...F ....|C-3 ...F ....|C-3 ...F ....
....|..|R-- .... ....|R-- .... ....|R-- .... ....
....|..|G-6 ...A ....|G-6 ...A ....|G-6 ...A ....
....|..|F-6 ...7 ....|F-6 ...7 ....|F-6 ...7 ....
....|..|G-2 ...F ....|G-2 ...F ....|G-2 ...F ....
....|..|R-- .... ....|R-- .... ....|R-- .... ....
....|..|C-3 ...A ....|C-3 ...A ....|C-3 ...A ....
....|..|R-- .... ....|R-- .... ....|R-- .... ....
....|..|D#3 ...F ....|D#3 ...F ....|D#3 ...F ....
....|..|--- .... ....|--- .... ....|--- .... ....
....|..|G-2 ...A ....|G-2 ...A ....|G-2 ...A ....
....|..|R-- .... ....|R-- .... ....|R-- .... ....
....|..|G-2 ...F ....|G-2 ...F ....|G-2 ...F ....
....|..|--- .... ....|--- .... ....|--- .... ....
....|..|D#3 ...A ....|D#3 ...A ....|D#3 ...A ....
....|..|--- .... ....|--- .... ....|--- .... ....
....|..|G-6 ...F ....|G-6 ...F ....|G-6 ...F ....
....|..|--- .... ....|--- .... ....|--- .... ....
....|..|F-6 ...F ....|F-6 ...F ....|F-6 ...F ....
....|..|R-- .... ....|R-- .... ....|R-- .... ....
....|..|D-6 ...F ....|D-6 ...F ....|D-6 ...F ....
....|..|--- .... ....|--- .... ....|--- .... ....
....|..|G-6 ...A ....|G-6 ...A ....|G-6 ...A ....
....|..|R-- .... ....|R-- .... ....|R-- .... ....
....|..|F-6 ...F ....|F-6 ...F ....|F-6 ...F ....
....|..|R-- .... ....|R-- .... ....|R-- .... ....
....|..|D-6 ...A ....|D-6 ...A ....|D-6 ...A ....
....|..|--- .... ....|--- .... ....|--- .... ....
....|..|G-2 ...F ....|G-2 ...F ....|G-2 ...F ....
....|..|R-- .... ....|R-- .... ....|R-- .... ....
....|..|F-6 ...A ....|F-6 ...A ....|F-6 ...A ....
....|..|R-- .... ....|R-- .... ....|R-- .... ....
....|..|C-3 ...F ....|C-3 ...F ....|C-3 ...F ....
....|..|--- .... ....|--- .... ....|--- .... ....
....|..|G-2 ...A ....|G-2 ...A ....|G-2 ...A ....
....|..|R-- .... ....|R-- .... ....|R-- .... ....
....|..|G-2 ...F ....|G-2 ...F ....|G-2 ...F ....
....|..|--- .... ....|--- .... ....|--- .... ....
....|..|C-3 ...A ....|C-3 ...A ....|C-3 ...A ....
....|..|--- .... ....|--- .... ....|--- .... ....
....|..|A#5 ...F ....|A#5 ...F ....|A#5 ...F ....
....|..|--- .... ....|--- .... ....|--- .... ....
....|..|G-2 ...A ....|G-2 ...A ....|G-2 ...A ....
....|..|--- .... ....|--- .... ....|--- .... ....
....|..|G-2 ...F ....|G-2 ...F ....|G-2 ...F ....
....|..|--- .... ....|--- .... ....|--- .... ....
....|..|A#5 ...A ....|A#5 ...A ....|A#5 ...A ....
....|..|--- .... ....|--- .... ....|--- .... ....
....|..|C-3 ...F ....|C-3 ...F ....|C-3 ...F ....
....|..|--- .... ....|--- .... ....|--- .... ....
....|..|G-2 ...A ....|G-2 ...A ....|G-2 ...A ....
....|..|--- .... ....|--- .... ....|--- .... ....
....|..|G-2 ...F ....|G-2 ...F ....|G-2 ...F ....
....|..|--- .... ....|--- .... ....|--- .... ....
....|..|C-3 ...A ....|C-3 ...A ....|C-3 ...A ....
....|..|R-- .... ....|R-- .... ....|R-- .... ....

[Pattern10]
....|..|G-2 ...F ....|G-2 ...F ....|G-2 ...F ....
....|..|--- .... ....|--- .... ....|--- .... ....
....|..|G-3 ...A ....|G-3 ...A ....|G-3 ...A ....
....|..|--- .... ....|--- .... ....|--- .... ....
....|..|D-3 ...F ....|D-3 ...F ....|D-3 ...F ....
....|..|--- .... ....|--- .... ....|--- .... ....
....|..|G-2 ...A ....|G-2 ...A ....|G-2 ...A ....
....|..|--- .... ....|--- .... ....|--- .... ....
....|..|D-6 ...F ....|D-6 ...F ....|D-6 ...F ....
....|..|--- .... ....|--- .... ....|--- .... ....
....|..|D-3 ...A ....|D-3 ...A ....|D-3 ...A ....
....|..|R-- .... ....|R-- .... ....|R-- .... ....
....|..|C-6 ...F ....|C-6 ...F ....|C-6 ...F ....
....|..|--- .... ....|--- .... ....|--- .... ....
....|..|D-6 ...A ....|D-6 ...A ....|D-6 ...A ....
....|..|F-2 ...F ....|F-2 ...F ....|F-2 ...F ....
....|..|D-3 ...7 ....|D-3 ...7 ....|D-3 ...7 ....
....|..|R-- .... ....|R-- .... ....|R-- .... ....
....|..|C-6 ...A ....|C-6 ...A ....|C-6 ...A ....
....|..|R-- .... ....|R-- .... ....|R-- .... ....
....|..|C-3 ...F ....|C-3 ...F ....|C-3 ...F ....
....|..|F-2 ...A ....|F-2 ...A ....|F-2 ...A ....
....|..|--- .... ....|--- .... ....|--- .... ....
....|..|R-- .... ....|R-- .... ....|R-- .... ....
....|..|C-6 ...F ....|C-6 ...F ....|C-6 ...F ....
....|..|R-- .... ....|R-- .... ....|R-- .... ....
....|..|C-3 ...A ....|C-3 ...A ....|C-3 ...A ....
....|..|R-- .... ....|R-- .... ....|R-- .... ....
....|..|A#5 ...F ....|A#5 ...F ....|A#5 ...F ....
....|..|R-- .... ....|R-- .... ....|R-- .... ....
....|..|C-6 ...A ....|C-6 ...A ....|C-6 ...A ....
....|..|D#2 ...F ....|D#2 ...F ....|D#2 ...F ....
....|..|C-3 ...7 ....|C-3 ...7 ....|C-3 ...7 ....
....|..|R-- .... ....|R-- .... ....|R-- .... ....
....|..|A#5 ...A ....|A#5 ...A ....|A#5 ...A ....
....|..|R-- .... ....|R-- .... ....|R-- .... ....
....|..|A#2 ...F ....|A#2 ...F ....|A#2 ...F ....
....|..|D#2 ...A ....|D#2 ...A ....|D#2 ...A ....
....|..|--- .... ....|--- .... ....|--- .... ....
....|..|R-- .... ....|R-- .... ....|R-- .... ....
....|..|A-5 ...F ....|A-5 ...F ....|A-5 ...F ....
....|..|R-- .... ....|R-- .... ....|R-- .... ....
....|..|A#2 ...A ....|A#2 ...A ....|A#2 ...A ....
....|..|R-- .... ....|R-- .... ....|R-- .... ....
....|..|G-5 ...F ....|G-5 ...F ....|G-5 ...F ....
....|..|R-- .... ....|R-- .... ....|R-- .... ....
....|..|A-5 ...A ....|A-5 ...A ....|A-5 ...A ....
....|..|D-2 ...F ....|D-2 ...F ....|D-2 ...F ....
....|..|A#2 ...7 ....|A#2 ...7 ....|A#2 ...7 ....
....|..|R-- .... ....|R-- .... ....|R-- .... ....
....|..|G-5 ...A ....|G-5 ...A ....|G-5 ...A ....
....|..|R-- .... ....|R-- .... ....|R-- .... ....
....|..|A-2 ...F ....|A-2 ...F ....|A-2 ...F ....
....|..|D-2 ...A ....|D-2 ...A ....|D-2 ...A ....
....|..|--- .... ....|--- .... ....|--- .... ....
....|..|R-- .... ....|R-- .... ....|R-- .... ....
....|..|D-5 ...F ....|D-5 ...F ....|D-5 ...F ....
....|..|R-- .... ....|R-- .... ....|R-- .... ....
....|..|A-2 ...A ....|A-2 ...A ....|A-2 ...A ....
....|..|R-- .... ....|R-- .... ....|R-- .... ....
....|..|C-5 ...F ....|C-5 ...F ....|C-5 ...F ....
....|..|R-- .... ....|R-- .... ....|R-- .... ....
....|..|D-5 ...A ....|D-5 ...A ....|D-5 ...A ....
....|..|G-6 ...F ....|G-6 ...F ....|G-6 ...F ....

[Pattern11]
....|..|A-2 ...7 ....|A-2 ...7 ....|A-2 ...7 ....
....|..|R-- .... ....|R-- .... ....|R-- .... ....
....|..|C-5 ...A ....|C-5 ...A ....|C-5 ...A ....
....|..|R-- .... ....|R-- .... ....|R-- .... ....
....|..|F-6 ...F ....|F-6 ...F ....|F-6 ...F ....
....|..|G-6 ...A ....|G-6 ...A ....|G-6 ...A ....
....|..|--- .... ....|--- .... ....|--- .... ....
....|..|R-- .... ....|R-- .... ....|R-- .... ....
....|..|G-6 ...F ....|G-6 ...F ....|G-6 ...F ....
....|..|R-- .... ....|R-- .... ....|R-- .... ....
....|..|F-6 ...A ....|F-6 ...A ....|F-6 ...A ....
....|..|R-- .... ....|R-- .... ....|R-- .... ....
....|..|F-6 ...F ....|F-6 ...F ....|F-6 ...F ....
....|..|R-- .... ....|R-- .... ....|R-- .... ....
....|..|G-6 ...A ....|G-6 ...A ....|G-6 ...A ....
....|..|G-6 ...F ....|G-6 ...F ....|G-6 ...F ....
....|..|F-6 ...7 ....|F-6 ...7 ....|F-6 ...7 ....
....|..|R-- .... ....|R-- .... ....|R-- .... ....
....|..|F-6 ...A ....|F-6 ...A ....|F-6 ...A ....
....|..|R-- .... ....|R-- .... ....|R-- .... ....
....|..|F-6 ...F ....|F-6 ...F ....|F-6 ...F ....
....|..|G-6 ...A ....|G-6 ...A ....|G-6 ...A ....
....|..|--- .... ....|--- .... ....|--- .... ....
....|..|R-- .... ....|R-- .... ....|R-- .... ....
....|..|G-6 ...F ....|G-6 ...F ....|G-6 ...F ....
....|..|R-- .... ....|R-- .... ....|R-- .... ....
....|..|F-6 ...A ....|F-6 ...A ....|F-6 ...A ....
....|..|R-- .... ....|R-- .... ....|R-- .... ....
....|..|F-6 ...F ....|F-6 ...F ....|F-6 ...F ....
....|..|R-- .... ....|R-- .... ....|R-- .... ....
....|..|G-6 ...A ....|G-6 ...A ....|G-6 ...A ....
....|..|G-6 ...F ....|G-6 ...F ....|G-6 ...F ....
....|..|F-6 ...7 ....|F-6 ...7 ....|F-6 ...7 ....
....|..|R-- .... ....|R-- .... ....|R-- .... ....
....|..|F-6 ...A ....|F-6 ...A ....|F-6 ...A ....
....|..|R-- .... ....|R-- .... ....|R-- .... ....
....|..|F-6 ...F ....|F-6 ...F ....|F-6 ...F ....
....|..|G-6 ...A ....|G-6 ...A ....|G-6 ...A ....
....|..|--- .... ....|--- .... ....|--- .... ....
....|..|R-- .... ....|R-- .... ....|R-- .... ....
....|..|G-6 ...F ....|G-6 ...F ....|G-6 ...F ....
....|..|R-- .... ....|R-- .... ....|R-- .... ....
....|..|F-6 ...A ....|F-6 ...A ....|F-6 ...A ....
....|..|R-- .... ....|R-- .... ....|R-- .... ....
....|..|F-6 ...F ....|F-6 ...F ....|F-6 ...F ....
....|..|R-- .... ....|R-- .... ....|R-- .... ....
....|..|G-6 ...A ....|G-6 ...A ....|G-6 ...A ....
....|..|F-2 ...F ....|F-2 ...F ....|F-2 ...F ....
....|..|F-6 ...7 ....|F-6 ...7 ....|F-6 ...7 ....
....|..|R-- .... ....|R-- .... ....|R-- .... ....
....|..|F-6 ...A ....|F-6 ...A ....|F-6 ...A ....
....|..|R-- .... ....|R-- .... ....|R-- .... ....
....|..|G-2 ...F ....|G-2 ...F ....|G-2 ...F ....
....|..|F-2 ...A ....|F-2 ...A ....|F-2 ...A ....
....|..|--- .... ....|--- .... ....|--- .... ....
....|..|R-- .... ....|R-- .... ....|R-- .... ....
....|..|D-2 ...F ....|D-2 ...F ....|D-2 ...F ....
....|..|R-- .... ....|R-- .... ....|R-- .... ....
....|..|G-2 ...A ....|G-2 ...A ....|G-2 ...A ....
....|..|R-- .... ....|R-- .... ....|R-- .... ....
....|..|F-2 ...F ....|F-2 ...F ....|F-2 ...F ....
....|..|R-- .... ....|R-- .... ....|R-- .... ....
....|..|D-2 ...A ....|D-2 ...A ....|D-2 ...A ....
....|..|R-- .... ....|R-- .... ....|R-- .... ....

[Pattern12]
....|..|G-4 ...F ....|G-4 ...F ....|G-4 ...F ....
....|..|R-- .... ....|R-- .... ....|R-- .... ....
....|..|F-2 ...A ....|F-2 ...A ....|F-2 ...A ....
....|..|R-- .... ....|R-- .... ....|R-- .... ....
....|..|G-4 ...F ....|G-4 ...F ....|G-4 ...F ....
....|..|R-- .... ....|R-- .... ....|R-- .... ....
....|..|G-4 ...A ....|G-4 ...A ....|G-4 ...A ....
....|..|R-- .... ....|R-- .... ....|R-- .... ....
....|..|D-6 ...F ....|D-6 ...F ....|D-6 ...F ....
....|..|R-- .... ....|R-- .... ....|R-- .... ....
....|..|G-4 ...A ....|G-4 ...A ....|G-4 ...A ....
....|..|R-- .... ....|R-- .... ....|R-- .... ....
....|..|C-6 ...F ....|C-6 ...F ....|C-6 ...F ....
....|..|R-- .... ....|R-- .... ....|R-- .... ....
....|..|D-6 ...A ....|D-6 ...A ....|D-6 ...A ....
....|..|G-5 ...F ....|G-5 ...F ....|G-5 ...F ....
....|..|G-4 ...7 ....|G-4 ...7 ....|G-4 ...7 ....
....|..|R-- .... ....|R-- .... ....|R-- .... ....
....|..|C-6 ...A ....|C-6 ...A ....|C-6 ...A ....
....|..|R-- .... ....|R-- .... ....|R-- .... ....
....|..|G-5 ...F ....|G-5 ...F ....|G-5 ...F ....
....|..|G-5 ...A ....|G-5 ...A ....|G-5 ...A ....
....|..|--- .... ....|--- .... ....|--- .... ....
....|..|R-- .... ....|R-- .... ....|R-- .... ....
....|..|C-6 ...F ....|C-6 ...F ....|C-6 ...F ....
....|..|R-- .... ....|R-- .... ....|R-- .... ....
....|..|G-5 ...A ....|G-5 ...A ....|G-5 ...A ....
....|..|R-- .... ....|R-- .... ....|R-- .... ....
....|..|A#5 ...F ....|A#5 ...F ....|A#5 ...F ....
....|..|R-- .... ....|R-- .... ....|R-- .... ....
....|..|C-6 ...A ....|C-6 ...A ....|C-6 ...A ....
....|..|A#4 ...F ....|A#4 ...F ....|A#4 ...F ....
....|..|G-5 ...7 ....|G-5 ...7 ....|G-5 ...7 ....
....|..|R-- .... ....|R-- .... ....|R-- .... ....
....|..|A#5 ...A ....|A#5 ...A ....|A#5 ...A ....
....|..|R-- .... ....|R-- .... ....|R-- .... ....
....|..|A#4 ...F ....|A#4 ...F ....|A#4 ...F ....
....|..|A#4 ...A ....|A#4 ...A ....|A#4 ...A ....
....|..|--- .... ....|--- .... ....|--- .... ....
....|..|R-- .... ....|R-- .... ....|R-- .... ....
....|..|A-5 ...F ....|A-5 ...F ....|A-5 ...F ....
....|..|R-- .... ....|R-- .... ....|R-- .... ....
....|..|A#4 ...A ....|A#4 ...A ....|A#4 ...A ....
....|..|R-- .... ....|R-- .... ....|R-- .... ....
....|..|G-5 ...F ....|G-5 ...F ....|G-5 ...F ....
....|..|R-- .... ....|R-- .... ....|R-- .... ....
....|..|A-5 ...A ....|A-5 ...A ....|A-5 ...A ....
....|..|A#5 ...F ....|A#5 ...F ....|A#5 ...F ....
....|..|A#4 ...7 ....|A#4 ...7 ....|A#4 ...7 ....
....|..|R-- .... ....|R-- .... ....|R-- .... ....
....|..|G-5 ...A ....|G-5 ...A ....|G-5 ...A ....
....|..|R-- .... ....|R-- .... ....|R-- .... ....
....|..|A#5 ...F ....|A#5 ...F ....|A#5 ...F ....
....|..|A#5 ...A ....|A#5 ...A ....|A#5 ...A ....
....|..|--- .... ....|--- .... ....|--- .... ....
....|..|R-- .... ....|R-- .... ....|R-- .... ....
....|..|D-5 ...F ....|D-5 ...F ....|D-5 ...F ....
....|..|R-- .... ....|R-- .... ....|R-- .... ....
....|..|A#5 ...A ....|A#5 ...A ....|A#5 ...A ....
....|..|R-- .... ....|R-- .... ....|R-- .... ....
....|..|C-5 ...F ....|C-5 ...F ....|C-5 ...F ....
....|..|R-- .... ....|R-- .... ....|R-- .... ....
....|..|D-5 ...A ....|D-5 ...A ....|D-5 ...A ....
....|..|F-6 ...F ....|F-6 ...F ....|F-6 ...F ....

[Pattern13]
....|..|A#5 ...7 ....|A#5 ...7 ....|A#5 ...7 ....
....|..|R-- .... ....|R-- .... ....|R-- .... ....
....|..|C-5 ...A ....|C-5 ...A ....|C-5 ...A ....
....|..|R-- .... ....|R-- .... ....|R-- .... ....
....|..|G-6 ...F ....|G-6 ...F ....|G-6 ...F ....
....|..|F-6 ...A ....|F-6 ...A ....|F-6 ...A ....
....|..|--- .... ....|--- .... ....|--- .... ....
....|..|R-- .... ....|R-- .... ....|R-- .... ....
....|..|C-3 ...F ....|C-3 ...F ....|C-3 ...F ....
....|..|R-- .... ....|R-- .... ....|R-- .... ....
....|..|G-6 ...A ....|G-6 ...A ....|G-6 ...A ....
....|..|F-6 ...7 ....|F-6 ...7 ....|F-6 ...7 ....
....|..|G-2 ...F ....|G-2 ...F ....|G-2 ...F ....
....|..|R-- .... ....|R-- .... ....|R-- .... ....
....|..|C-3 ...A ....|C-3 ...A ....|C-3 ...A ....
....|..|R-- .... ....|R-- .... ....|R-- .... ....
....|..|D#3 ...F ....|D#3 ...F ....|D#3 ...F ....
....|..|--- .... ....|--- .... ....|--- .... ....
....|..|G-2 ...A ....|G-2 ...A ....|G-2 ...A ....
....|..|R-- .... ....|R-- .... ....|R-- .... ....
....|..|G-2 ...F ....|G-2 ...F ....|G-2 ...F ....
....|..|--- .... ....|--- .... ....|--- .... ....
....|..|D#3 ...A ....|D#3 ...A ....|D#3 ...A ....
....|..|--- .... ....|--- .... ....|--- .... ....
....|..|G-6 ...F ....|G-6 ...F ....|G-6 ...F ....
....|..|--- .... ....|--- .... ....|--- .... ....
....|..|F-6 ...F ....|F-6 ...F ....|F-6 ...F ....
....|..|R-- .... ....|R-- .... ....|R-- .... ....
....|..|D-6 ...F ....|D-6 ...F ....|D-6 ...F ....
....|..|--- .... ....|--- .... ....|--- .... ....
....|..|G-6 ...A ....|G-6 ...A ....|G-6 ...A ....
....|..|R-- .... ....|R-- .... ....|R-- .... ....
....|..|F-6 ...F ....|F-6 ...F ....|F-6 ...F ....
....|..|R-- .... ....|R-- .... ....|R-- .... ....
....|..|D-6 ...A ....|D-6 ...A ....|D-6 ...A ....
....|..|--- .... ....|--- .... ....|--- .... ....
....|..|G-2 ...F ....|G-2 ...F ....|G-2 ...F ....
....|..|R-- .... ....|R-- .... ....|R-- .... ....
....|..|F-6 ...A ....|F-6 ...A ....|F-6 ...A ....
....|..|R-- .... ....|R-- .... ....|R-- .... ....
....|..|C-3 ...F ....|C-3 ...F ....|C-3 ...F ....
....|..|--- .... ....|--- .... ....|--- .... ....
....|..|G-2 ...A ....|G-2 ...A ....|G-2 ...A ....
....|..|R-- .... ....|R-- .... ....|R-- .... ....
....|..|G-2 ...F ....|G-2 ...F ....|G-2 ...F ....
....|..|--- .... ....|--- .... ....|--- .... ....
....|..|C-3 ...A ....|C-3 ...A ....|C-3 ...A ....
....|..|--- .... ....|--- .... ....|--- .... ....
....|..|A#5 ...F ....|A#5 ...F ....|A#5 ...F ....
....|..|--- .... ....|--- .... ....|--- .... ....
....|..|G-2 ...A ....|G-2 ...A ....|G-2 ...A ....
....|..|--- .... ....|--- .... ....|--- .... ....
....|..|G-2 ...F ....|G-2 ...F ....|G-2 ...F ....
....|..|--- .... ....|--- .... ....|--- .... ....
....|..|A#5 ...A ....|A#5 ...A ....|A#5 ...A ....
....|..|--- .... ....|--- .... ....|--- .... ....
....|..|C-3 ...F ....|C-3 ...F ....|C-3 ...F ....
....|..|--- .... ....|--- .... ....|--- .... ....
....|..|G-2 ...A ....|G-2 ...A ....|G-2 ...A ....
....|..|--- .... ....|--- .... ....|--- .... ....
....|..|G-2 ...F ....|G-2 ...F ....|G-2 ...F ....
....|..|--- .... ....|--- .... ....|--- .... ....
....|..|C-3 ...A ....|C-3 ...A ....|C-3 ...A ....
....|..|R-- .... ....|R-- .... ....|R-- .... ....

[Pattern14]
....|..|G-4 ...F ....|G-4 ...F ....|G-4 ...F ....
....|..|--- .... ....|--- .... ....|--- .... ....
....|..|G-2 ...A ....|G-2 ...A ....|G-2 ...A ....
....|..|R-- .... ....|R-- .... ....|R-- .... ....
....|..|G-4 ...F ....|G-4 ...F ....|G-4 ...F ....
....|..|R-- .... ....|R-- .... ....|R-- .... ....
....|..|G-4 ...A ....|G-4 ...A ....|G-4 ...A ....
....|..|R-- .... ....|R-- .... ....|R-- .... ....
....|..|G-5 ...F ....|G-5 ...F ....|G-5 ...F ....
....|..|R-- .... ....|R-- .... ....|R-- .... ....
....|..|G-4 ...A ....|G-4 ...A ....|G-4 ...A ....
....|..|R-- .... ....|R-- .... ....|R-- .... ....
....|..|F-5 ...F ....|F-5 ...F ....|F-5 ...F ....
....|..|R-- .... ....|R-- .... ....|R-- .... ....
....|..|G-5 ...A ....|G-5 ...A ....|G-5 ...A ....
....|..|G-5 ...F ....|G-5 ...F ....|G-5 ...F ....
....|..|G-4 ...7 ....|G-4 ...7 ....|G-4 ...7 ....
....|..|R-- .... ....|R-- .... ....|R-- .... ....
....|..|F-5 ...A ....|F-5 ...A ....|F-5 ...A ....
....|..|R-- .... ....|R-- .... ....|R-- .... ....
....|..|G-5 ...F ....|G-5 ...F ....|G-5 ...F ....
....|..|G-5 ...A ....|G-5 ...A ....|G-5 ...A ....
....|..|--- .... ....|--- .... ....|--- .... ....
....|..|R-- .... ....|R-- .... ....|R-- .... ....
....|..|A#5 ...F ....|A#5 ...F ....|A#5 ...F ....
....|..|R-- .... ....|R-- .... ....|R-- .... ....
....|..|G-5 ...A ....|G-5 ...A ....|G-5 ...A ....
....|..|R-- .... ....|R-- .... ....|R-- .... ....
....|..|A#5 ...F ....|A#5 ...F ....|A#5 ...F ....
....|..|R-- .... ....|R-- .... ....|R-- .... ....
....|..|A#5 ...A ....|A#5 ...A ....|A#5 ...A ....
....|..|A#4 ...F ....|A#4 ...F ....|A#4 ...F ....
....|..|G-5 ...7 ....|G-5 ...7 ....|G-5 ...7 ....
....|..|R-- .... ....|R-- .... ....|R-- .... ....
....|..|A#5 ...A ....|A#5 ...A ....|A#5 ...A ....
....|..|R-- .... ....|R-- .... ....|R-- .... ....
....|..|A#4 ...F ....|A#4 ...F ....|A#4 ...F ....
....|..|A#4 ...A ....|A#4 ...A ....|A#4 ...A ....
....|..|--- .... ....|--- .... ....|--- .... ....
....|..|R-- .... ....|R-- .... ....|R-- .... ....
....|..|D-6 ...F ....|D-6 ...F ....|D-6 ...F ....
....|..|R-- .... ....|R-- .... ....|R-- .... ....
....|..|A#4 ...A ....|A#4 ...A ....|A#4 ...A ....
....|..|R-- .... ....|R-- .... ....|R-- .... ....
....|..|C-6 ...F ....|C-6 ...F ....|C-6 ...F ....
....|..|R-- .... ....|R-- .... ....|R-- .... ....
....|..|D-6 ...A ....|D-6 ...A ....|D-6 ...A ....
....|..|A#5 ...F ....|A#5 ...F ....|A#5 ...F ....
....|..|A#4 ...7 ....|A#4 ...7 ....|A#4 ...7 ....
....|..|R-- .... ....|R-- .... ....|R-- .... ....
....|..|C-6 ...A ....|C-6 ...A ....|C-6 ...A ....
....|..|R-- .... ....|R-- .... ....|R-- .... ....
....|..|A#5 ...F ....|A#5 ...F ....|A#5 ...F ....
....|..|A#5 ...A ....|A#5 ...A ....|A#5 ...A ....
....|..|--- .... ....|--- .... ....|--- .... ....
....|..|R-- .... ....|R-- .... ....|R-- .... ....
....|..|A-4 ...F ....|A-4 ...F ....|A-4 ...F ....
....|..|R-- .... ....|R-- .... ....|R-- .... ....
....|..|A#5 ...A ....|A#5 ...A ....|A#5 ...A ....
....|..|R-- .... ....|R-- .... ....|R-- .... ....
....|..|G-4 ...F ....|G-4 ...F ....|G-4 ...F ....
....|..|R-- .... ....|R-- .... ....|R-- .... ....
....|..|A-4 ...A ....|A-4 ...A ....|A-4 ...A ....
....|..|F-6 ...F ....|F-6 ...F ....|F-6 ...F ....

[Pattern15]
....|..|A#5 ...7 ....|A#5 ...7 ....|A#5 ...7 ....
....|..|R-- .... ....|R-- .... ....|R-- .... ....
....|..|G-4 ...A ....|G-4 ...A ....|G-4 ...A ....
....|..|R-- .... ....|R-- .... ....|R-- .... ....
....|..|G-6 ...F ....|G-6 ...F ....|G-6 ...F ....
....|..|F-6 ...A ....|F-6 ...A ....|F-6 ...A ....
....|..|--- .... ....|--- .... ....|--- .... ....
....|..|R-- .... ....|R-- .... ....|R-- .... ....
....|..|C-3 ...F ....|C-3 ...F ....|C-3 ...F ....
....|..|R-- .... ....|R-- .... ....|R-- .... ....
....|..|G-6 ...A ....|G-6 ...A ....|G-6 ...A ....
....|..|F-6 ...7 ....|F-6 ...7 ....|F-6 ...7 ....
....|..|G-2 ...F ....|G-2 ...F ....|G-2 ...F ....
....|..|R-- .... ....|R-- .... ....|R-- .... ....
....|..|C-3 ...A ....|C-3 ...A ....|C-3 ...A ....
....|..|R-- .... ....|R-- .... ....|R-- .... ....
....|..|D#3 ...F ....|D#3 ...F ....|D#3 ...F ....
....|..|--- .... ....|--- .... ....|--- .... ....
....|..|G-2 ...A ....|G-2 ...A ....|G-2 ...A ....
....|..|R-- .... ....|R-- .... ....|R-- .... ....
....|..|G-2 ...F ....|G-2 ...F ....|G-2 ...F ....
....|..|--- .... ....|--- .... ....|--- .... ....
....|..|D#3 ...A ....|D#3 ...A ....|D#3 ...A ....
....|..|--- .... ....|--- .... ....|--- .... ....
....|..|G-6 ...F ....|G-6 ...F ....|G-6 ...F ....
....|..|--- .... ....|--- .... ....|--- .... ....
....|..|F-6 ...F ....|F-6 ...F ....|F-6 ...F ....
....|..|R-- .... ....|R-- .... ....|R-- .... ....
....|..|D-6 ...F ....|D-6 ...F ....|D-6 ...F ....
....|..|--- .... ....|--- .... ....|--- .... ....
....|..|G-6 ...A ....|G-6 ...A ....|G-6 ...A ....
....|..|R-- .... ....|R-- .... ....|R-- .... ....
....|..|F-6 ...F ....|F-6 ...F ....|F-6 ...F ....
....|..|R-- .... ....|R-- .... ....|R-- .... ....
....|..|D-6 ...A ....|D-6 ...A ....|D-6 ...A ....
....|..|--- .... ....|--- .... ....|--- .... ....
....|..|G-2 ...F ....|G-2 ...F ....|G-2 ...F ....
....|..|R-- .... ....|R-- .... ....|R-- .... ....
....|..|F-6 ...A ....|F-6 ...A ....|F-6 ...A ....
....|..|R-- .... ....|R-- .... ....|R-- .... ....
....|..|C-3 ...F ....|C-3 ...F ....|C-3 ...F ....
....|..|--- .... ....|--- .... ....|--- .... ....
....|..|G-2 ...A ....|G-2 ...A ....|G-2 ...A ....
....|..|R-- .... ....|R-- .... ....|R-- .... ....
....|..|G-2 ...F ....|G-2 ...F ....|G-2 ...F ....
....|..|--- .... ....|--- .... ....|--- .... ....
....|..|C-3 ...A ....|C-3 ...A ....|C-3 ...A ....
....|..|--- .... ....|--- .... ....|--- .... ....
....|..|A#5 ...F ....|A#5 ...F ....|A#5 ...F ....
....|..|--- .... ....|--- .... ....|--- .... ....
....|..|G-2 ...A ....|G-2 ...A ....|G-2 ...A ....
....|..|--- .... ....|--- .... ....|--- .... ....
....|..|G-2 ...F ....|G-2 ...F ....|G-2 ...F ....
....|..|--- .... ....|--- .... ....|--- .... ....
....|..|A#5 ...A ....|A#5 ...A ....|A#5 ...A ....
....|..|--- .... ....|--- .... ....|--- .... ....
....|..|C-3 ...F ....|C-3 ...F ....|C-3 ...F ....
....|..|--- .... ....|--- .... ....|--- .... ....
....|..|G-2 ...A ....|G-2 ...A ....|G-2 ...A ....
....|..|--- .... ....|--- .... ....|--- .... ....
....|..|G-2 ...F ....|G-2 ...F ....|G-2 ...F ....
....|..|--- .... ....|--- .... ....|--- .... ....
....|..|C-3 ...A ....|C-3 ...A ....|C-3 ...A ....
....|..|R-- .... ....|R-- .... ....|R-- .... ....

[Pattern16]
....|..|G-4 ...F ....|G-4 ...F ....|G-4 ...F ....
....|..|--- .... ....|--- .... ....|--- .... ....
....|..|G-2 ...A ....|G-2 ...A ....|G-2 ...A ....
....|..|R-- .... ....|R-- .... ....|R-- .... ....
....|..|G-4 ...F ....|G-4 ...F ....|G-4 ...F ....
....|..|R-- .... ....|R-- .... ....|R-- .... ....
....|..|G-4 ...A ....|G-4 ...A ....|G-4 ...A ....
....|..|R-- .... ....|R-- .... ....|R-- .... ....
....|..|D-6 ...F ....|D-6 ...F ....|D-6 ...F ....
....|..|R-- .... ....|R-- .... ....|R-- .... ....
....|..|G-4 ...A ....|G-4 ...A ....|G-4 ...A ....
....|..|R-- .... ....|R-- .... ....|R-- .... ....
....|..|C-6 ...F ....|C-6 ...F ....|C-6 ...F ....
....|..|R-- .... ....|R-- .... ....|R-- .... ....
....|..|D-6 ...A ....|D-6 ...A ....|D-6 ...A ....
....|..|G-5 ...F ....|G-5 ...F ....|G-5 ...F ....
....|..|G-4 ...7 ....|G-4 ...7 ....|G-4 ...7 ....
....|..|R-- .... ....|R-- .... ....|R-- .... ....
....|..|C-6 ...A ....|C-6 ...A ....|C-6 ...A ....
....|..|R-- .... ....|R-- .... ....|R-- .... ....
....|..|G-5 ...F ....|G-5 ...F ....|G-5 ...F ....
....|..|G-5 ...A ....|G-5 ...A ....|G-5 ...A ....
....|..|--- .... ....|--- .... ....|--- .... ....
....|..|R-- .... ....|R-- .... ....|R-- .... ....
....|..|C-6 ...F ....|C-6 ...F ....|C-6 ...F ....
....|..|R-- .... ....|R-- .... ....|R-- .... ....
....|..|G-5 ...A ....|G-5 ...A ....|G-5 ...A ....
....|..|R-- .... ....|R-- .... ....|R-- .... ....
....|..|A#5 ...F ....|A#5 ...F ....|A#5 ...F ....
....|..|R-- .... ....|R-- .... ....|R-- .... ....
....|..|C-6 ...A ....|C-6 ...A ....|C-6 ...A ....
....|..|A#4 ...F ....|A#4 ...F ....|A#4 ...F ....
....|..|G-5 ...7 ....|G-5 ...7 ....|G-5 ...7 ....
....|..|R-- .... ....|R-- .... ....|R-- .... ....
....|..|A#5 ...A ....|A#5 ...A ....|A#5 ...A ....
....|..|R-- .... ....|R-- .... ....|R-- .... ....
....|..|A#4 ...F ....|A#4 ...F ....|A#4 ...F ....
....|..|A#4 ...A ....|A#4 ...A ....|A#4 ...A ....
....|..|--- .... ....|--- .... ....|--- .... ....
....|..|R-- .... ....|R-- .... ....|R-- .... ....
....|..|A-5 ...F ....|A-5 ...F ....|A-5 ...F ....
....|..|R-- .... ....|R-- .... ....|R-- .... ....
....|..|A#4 ...A ....|A#4 ...A ....|A#4 ...A ....
....|..|R-- .... ....|R-- .... ....|R-- .... ....
....|..|G-5 ...F ....|G-5 ...F ....|G-5 ...F ....
....|..|R-- .... ....|R-- .... ....|R-- .... ....
....|..|A-5 ...A ....|A-5 ...A ....|A-5 ...A ....
....|..|A#5 ...F ....|A#5 ...F ....|A#5 ...F ....
....|..|A#4 ...7 ....|A#4 ...7 ....|A#4 ...7 ....
....|..|R-- .... ....|R-- .... ....|R-- .... ....
....|..|G-5 ...A ....|G-5 ...A ....|G-5 ...A ....
....|..|R-- .... ....|R-- .... ....|R-- .... ....
....|..|A#5 ...F ....|A#5 ...F ....|A#5 ...F ....
....|..|A#5 ...A ....|A#5 ...A ....|A#5 ...A ....
....|..|--- .... ....|--- .... ....|--- .... ....
....|..|R-- .... ....|R-- .... ....|R-- .... ....
....|..|D-5 ...F ....|D-5 ...F ....|D-5 ...F ....
....|..|R-- .... ....|R-- .... ....|R-- .... ....
....|..|A#5 ...A ....|A#5 ...A ....|A#5 ...A ....
....|..|R-- .... ....|R-- .... ....|R-- .... ....
....|..|C-5 ...F ....|C-5 ...F ....|C-5 ...F ....
....|..|R-- .... ....|R-- .... ....|R-- .... ....
....|..|D-5 ...A ....|D-5 ...A ....|D-5 ...A ....
....|..|G-4 ...F ....|G-4 ...F ....|G-4 ...F ....

[Pattern17]
....|..|A#5 ...7 ....|A#5 ...7 ....|A#5 ...7 ....
....|..|R-- .... ....|R-- .... ....|R-- .... ....
....|..|C-5 ...A ....|C-5 ...A ....|C-5 ...A ....
....|..|R-- .... ....|R-- .... ....|R-- .... ....
....|..|A#4 ...F ....|A#4 ...F ....|A#4 ...F ....
....|..|G-4 ...A ....|G-4 ...A ....|G-4 ...A ....
....|..|--- .... ....|--- .... ....|--- .... ....
....|..|R-- .... ....|R-- .... ....|R-- .... ....
....|..|C-5 ...F ....|C-5 ...F ....|C-5 ...F ....
....|..|R-- .... ....|R-- .... ....|R-- .... ....
....|..|A#4 ...A ....|A#4 ...A ....|A#4 ...A ....
....|..|R-- .... ....|R-- .... ....|R-- .... ....
....|..|A#4 ...F ....|A#4 ...F ....|A#4 ...F ....
....|..|R-- .... ....|R-- .... ....|R-- .... ....
....|..|C-5 ...A ....|C-5 ...A ....|C-5 ...A ....
....|..|G-5 ...F ....|G-5 ...F ....|G-5 ...F ....
....|..|A#4 ...7 ....|A#4 ...7 ....|A#4 ...7 ....
....|..|R-- .... ....|R-- .... ....|R-- .... ....
....|..|A#4 ...A ....|A#4 ...A ....|A#4 ...A ....
....|..|R-- .... ....|R-- .... ....|R-- .... ....
....|..|A#5 ...F ....|A#5 ...F ....|A#5 ...F ....
....|..|G-5 ...A ....|G-5 ...A ....|G-5 ...A ....
....|..|--- .... ....|--- .... ....|--- .... ....
....|..|R-- .... ....|R-- .... ....|R-- .... ....
....|..|C-6 ...F ....|C-6 ...F ....|C-6 ...F ....
....|..|R-- .... ....|R-- .... ....|R-- .... ....
....|..|A#5 ...A ....|A#5 ...A ....|A#5 ...A ....
....|..|R-- .... ....|R-- .... ....|R-- .... ....
....|..|A#5 ...F ....|A#5 ...F ....|A#5 ...F ....
....|..|R-- .... ....|R-- .... ....|R-- .... ....
....|..|C-6 ...A ....|C-6 ...A ....|C-6 ...A ....
....|..|D-6 ...F ....|D-6 ...F ....|D-6 ...F ....
....|..|A#5 ...7 ....|A#5 ...7 ....|A#5 ...7 ....
....|..|R-- .... ....|R-- .... ....|R-- .... ....
....|..|A#5 ...A ....|A#5 ...A ....|A#5 ...A ....
....|..|R-- .... ....|R-- .... ....|R-- .... ....
....|..|C-6 ...F ....|C-6 ...F ....|C-6 ...F ....
....|..|D-6 ...A ....|D-6 ...A ....|D-6 ...A ....
....|..|--- .... ....|--- .... ....|--- .... ....
....|..|R-- .... ....|R-- .... ....|R-- .... ....
....|..|A#5 ...F ....|A#5 ...F ....|A#5 ...F ....
....|..|R-- .... ....|R-- .... ....|R-- .... ....
....|..|C-6 ...A ....|C-6 ...A ....|C-6 ...A ....
....|..|R-- .... ....|R-- .... ....|R-- .... ....
....|..|G-5 ...F ....|G-5 ...F ....|G-5 ...F ....
....|..|R-- .... ....|R-- .... ....|R-- .... ....
....|..|A#5 ...A ....|A#5 ...A ....|A#5 ...A ....
....|..|F-5 ...F ....|F-5 ...F ....|F-5 ...F ....
....|..|C-6 ...7 ....|C-6 ...7 ....|C-6 ...7 ....
....|..|R-- .... ....|R-- .... ....|R-- .... ....
....|..|G-5 ...A ....|G-5 ...A ....|G-5 ...A ....
....|..|R-- .... ....|R-- .... ....|R-- .... ....
....|..|G-5 ...F ....|G-5 ...F ....|G-5 ...F ....
....|..|F-5 ...A ....|F-5 ...A ....|F-5 ...A ....
....|..|--- .... ....|--- .... ....|--- .... ....
....|..|R-- .... ....|R-- .... ....|R-- .... ....
....|..|A#5 ...F ....|A#5 ...F ....|A#5 ...F ....
....|..|R-- .... ....|R-- .... ....|R-- .... ....
....|..|G-5 ...A ....|G-5 ...A ....|G-5 ...A ....
....|..|R-- .... ....|R-- .... ....|R-- .... ....
....|..|G-5 ...F ....|G-5 ...F ....|G-5 ...F ....
....|..|R-- .... ....|R-- .... ....|R-- .... ....
....|..|A#5 ...A ....|A#5 ...A ....|A#5 ...A ....
....|..|G-4 ...F ....|G-4 ...F ....|G-4 ...F ....

[Pattern18]
....|..|G-5 ...7 ....|G-5 ...7 ....|G-5 ...7 ....
....|..|R-- .... ....|R-- .... ....|R-- .... ....
....|..|G-5 ...A ....|G-5 ...A ....|G-5 ...A ....
....|..|R-- .... ....|R-- .... ....|R-- .... ....
....|..|A#4 ...F ....|A#4 ...F ....|A#4 ...F ....
....|..|G-4 ...A ....|G-4 ...A ....|G-4 ...A ....
....|..|--- .... ....|--- .... ....|--- .... ....
....|..|R-- .... ....|R-- .... ....|R-- .... ....
....|..|G-5 ...F ....|G-5 ...F ....|G-5 ...F ....
....|..|R-- .... ....|R-- .... ....|R-- .... ....
....|..|A#4 ...A ....|A#4 ...A ....|A#4 ...A ....
....|..|R-- .... ....|R-- .... ....|R-- .... ....
....|..|A#5 ...F ....|A#5 ...F ....|A#5 ...F ....
....|..|R-- .... ....|R-- .... ....|R-- .... ....
....|..|G-5 ...A ....|G-5 ...A ....|G-5 ...A ....
....|..|R-- .... ....|R-- .... ....|R-- .... ....
....|..|D-6 ...F ....|D-6 ...F ....|D-6 ...F ....
....|..|R-- .... ....|R-- .... ....|R-- .... ....
....|..|A#5 ...A ....|A#5 ...A ....|A#5 ...A ....
....|..|R-- .... ....|R-- .... ....|R-- .... ....
....|..|A#5 ...F ....|A#5 ...F ....|A#5 ...F ....
....|..|R-- .... ....|R-- .... ....|R-- .... ....
....|..|D-6 ...A ....|D-6 ...A ....|D-6 ...A ....
....|..|R-- .... ....|R-- .... ....|R-- .... ....
....|..|G-5 ...F ....|G-5 ...F ....|G-5 ...F ....
....|..|R-- .... ....|R-- .... ....|R-- .... ....
....|..|A#5 ...A ....|A#5 ...A ....|A#5 ...A ....
....|..|R-- .... ....|R-- .... ....|R-- .... ....
....|..|A#5 ...F ....|A#5 ...F ....|A#5 ...F ....
....|..|R-- .... ....|R-- .... ....|R-- .... ....
....|..|G-5 ...A ....|G-5 ...A ....|G-5 ...A ....
....|..|R-- .... ....|R-- .... ....|R-- .... ....
....|..|F-4 ...F ....|F-4 ...F ....|F-4 ...F ....
....|..|R-- .... ....|R-- .... ....|R-- .... ....
....|..|A#5 ...A ....|A#5 ...A ....|A#5 ...A ....
....|..|R-- .... ....|R-- .... ....|R-- .... ....
....|..|F-5 ...F ....|F-5 ...F ....|F-5 ...F ....
....|..|R-- .... ....|R-- .... ....|R-- .... ....
....|..|F-4 ...A ....|F-4 ...A ....|F-4 ...A ....
....|..|R-- .... ....|R-- .... ....|R-- .... ....
....|..|A#5 ...F ....|A#5 ...F ....|A#5 ...F ....
....|..|R-- .... ....|R-- .... ....|R-- .... ....
....|..|F-5 ...A ....|F-5 ...A ....|F-5 ...A ....
....|..|R-- .... ....|R-- .... ....|R-- .... ....
....|..|F-5 ...F ....|F-5 ...F ....|F-5 ...F ....
....|..|R-- .... ....|R-- .... ....|R-- .... ....
....|..|A#5 ...A ....|A#5 ...A ....|A#5 ...A ....
....|..|R-- .... ....|R-- .... ....|R-- .... ....
....|..|C-6 ...F ....|C-6 ...F ....|C-6 ...F ....
....|..|R-- .... ....|R-- .... ....|R-- .... ....
....|..|F-5 ...A ....|F-5 ...A ....|F-5 ...A ....
....|..|R-- .... ....|R-- .... ....|R-- .... ....
....|..|A#5 ...F ....|A#5 ...F ....|A#5 ...F ....
....|..|R-- .... ....|R-- .... ....|R-- .... ....
....|..|C-6 ...A ....|C-6 ...A ....|C-6 ...A ....
....|..|R-- .... ....|R-- .... ....|R-- .... ....
....|..|A-5 ...F ....|A-5 ...F ....|A-5 ...F ....
....|..|R-- .... ....|R-- .... ....|R-- .... ....
....|..|A#5 ...A ....|A#5 ...A ....|A#5 ...A ....
....|..|R-- .... ....|R-- .... ....|R-- .... ....
....|..|A#5 ...F ....|A#5 ...F ....|A#5 ...F ....
....|..|R-- .... ....|R-- .... ....|R-- .... ....
....|..|A-5 ...A ....|A-5 ...A ....|A-5 ...A ....
....|..|R-- .... ....|R-- .... ....|R-- .... ....

[Pattern19]
....|..|E-4 ...F ....|E-4 ...F ....|E-4 ...F ....
....|..|R-- .... ....|R-- .... ....|R-- .... ....
....|..|A#5 ...A ....|A#5 ...A ....|A#5 ...A ....
....|..|R-- .... ....|R-- .... ....|R-- .... ....
....|..|E-5 ...F ....|E-5 ...F ....|E-5 ...F ....
....|..|R-- .... ....|R-- .... ....|R-- .... ....
....|..|E-4 ...A ....|E-4 ...A ....|E-4 ...A ....
....|..|R-- .... ....|R-- .... ....|R-- .... ....
....|..|G-5 ...F ....|G-5 ...F ....|G-5 ...F ....
....|..|R-- .... ....|R-- .... ....|R-- .... ....
....|..|E-5 ...A ....|E-5 ...A ....|E-5 ...A ....
....|..|R-- .... ....|R-- .... ....|R-- .... ....
....|..|E-5 ...F ....|E-5 ...F ....|E-5 ...F ....
....|..|R-- .... ....|R-- .... ....|R-- .... ....
....|..|G-5 ...A ....|G-5 ...A ....|G-5 ...A ....
....|..|R-- .... ....|R-- .... ....|R-- .... ....
....|..|C-7 ...F ....|C-7 ...F ....|C-7 ...F ....
....|..|R-- .... ....|R-- .... ....|R-- .... ....
....|..|E-5 ...A ....|E-5 ...A ....|E-5 ...A ....
....|..|R-- .... ....|R-- .... ....|R-- .... ....
....|..|A#6 ...F ....|A#6 ...F ....|A#6 ...F ....
....|..|R-- .... ....|R-- .... ....|R-- .... ....
....|..|C-7 ...A ....|C-7 ...A ....|C-7 ...A ....
....|..|R-- .... ....|R-- .... ....|R-- .... ....
....|..|G-6 ...F ....|G-6 ...F ....|G-6 ...F ....
....|..|R-- .... ....|R-- .... ....|R-- .... ....
....|..|A#6 ...A ....|A#6 ...A ....|A#6 ...A ....
....|..|R-- .... ....|R-- .... ....|R-- .... ....
....|..|E-6 ...F ....|E-6 ...F ....|E-6 ...F ....
....|..|R-- .... ....|R-- .... ....|R-- .... ....
....|..|G-6 ...A ....|G-6 ...A ....|G-6 ...A ....
....|..|D#6 ...F ....|D#6 ...F ....|D#6 ...F ....
....|..|A#6 ...7 ....|A#6 ...7 ....|A#6 ...7 ....
....|..|R-- .... ....|R-- .... ....|R-- .... ....
....|..|E-6 ...A ....|E-6 ...A ....|E-6 ...A ....
....|..|R-- .... ....|R-- .... ....|R-- .... ....
....|..|D#6 ...F ....|D#6 ...F ....|D#6 ...F ....
....|..|D#6 ...A ....|D#6 ...A ....|D#6 ...A ....
....|..|--- .... ....|--- .... ....|--- .... ....
....|..|R-- .... ....|R-- .... ....|R-- .... ....
....|..|G-6 ...F ....|G-6 ...F ....|G-6 ...F ....
....|..|R-- .... ....|R-- .... ....|R-- .... ....
....|..|D#6 ...A ....|D#6 ...A ....|D#6 ...A ....
....|..|R-- .... ....|R-- .... ....|R-- .... ....
....|..|A#6 ...F ....|A#6 ...F ....|A#6 ...F ....
....|..|R-- .... ....|R-- .... ....|R-- .... ....
....|..|G-6 ...A ....|G-6 ...A ....|G-6 ...A ....
....|..|G-4 ...F ....|G-4 ...F ....|G-4 ...F ....
....|..|D#6 ...7 ....|D#6 ...7 ....|D#6 ...7 ....
....|..|R-- .... ....|R-- .... ....|R-- .... ....
....|..|A#6 ...A ....|A#6 ...A ....|A#6 ...A ....
....|..|R-- .... ....|R-- .... ....|R-- .... ....
....|..|G-4 ...F ....|G-4 ...F ....|G-4 ...F ....
....|..|G-4 ...A ....|G-4 ...A ....|G-4 ...A ....
....|..|--- .... ....|--- .... ....|--- .... ....
....|..|R-- .... ....|R-- .... ....|R-- .... ....
....|..|G-4 ...F ....|G-4 ...F ....|G-4 ...F ....
....|..|R-- .... ....|R-- .... ....|R-- .... ....
....|..|G-4 ...A ....|G-4 ...A ....|G-4 ...A ....
....|..|R-- .... ....|R-- .... ....|R-- .... ....
....|..|G-4 ...F ....|G-4 ...F ....|G-4 ...F ....
....|..|R-- .... ....|R-- .... ....|R-- .... ....
....|..|G-4 ...A ....|G-4 ...A ....|G-4 ...A ....
....|..|G-4 ...F ....|G-4 ...F ....|G-4 ...F ....

[Pattern20]
....|..|G-4 ...7 ....|G-4 ...7 ....|G-4 ...7 ....
....|..|R-- .... ....|R-- .... ....|R-- .... ....
....|..|G-4 ...A ....|G-4 ...A ....|G-4 ...A ....
....|..|R-- .... ....|R-- .... ....|R-- .... ....
....|..|A#4 ...F ....|A#4 ...F ....|A#4 ...F ....
....|..|G-4 ...A ....|G-4 ...A ....|G-4 ...A ....
....|..|--- .... ....|--- .... ....|--- .... ....
....|..|R-- .... ....|R-- .... ....|R-- .... ....
....|..|G-5 ...F ....|G-5 ...F ....|G-5 ...F ....
....|..|R-- .... ....|R-- .... ....|R-- .... ....
....|..|A#4 ...A ....|A#4 ...A ....|A#4 ...A ....
....|..|R-- .... ....|R-- .... ....|R-- .... ....
....|..|A#5 ...F ....|A#5 ...F ....|A#5 ...F ....
....|..|R-- .... ....|R-- .... ....|R-- .... ....
....|..|G-5 ...A ....|G-5 ...A ....|G-5 ...A ....
....|..|D-6 ...F ....|D-6 ...F ....|D-6 ...F ....
....|..|A#4 ...7 ....|A#4 ...7 ....|A#4 ...7 ....
....|..|R-- .... ....|R-- .... ....|R-- .... ....
....|..|A#5 ...A ....|A#5 ...A ....|A#5 ...A ....
....|..|R-- .... ....|R-- .... ....|R-- .... ....
....|..|A#5 ...F ....|A#5 ...F ....|A#5 ...F ....
....|..|D-6 ...A ....|D-6 ...A ....|D-6 ...A ....
....|..|--- .... ....|--- .... ....|--- .... ....
....|..|R-- .... ....|R-- .... ....|R-- .... ....
....|..|G-5 ...F ....|G-5 ...F ....|G-5 ...F ....
....|..|R-- .... ....|R-- .... ....|R-- .... ....
....|..|A#5 ...A ....|A#5 ...A ....|A#5 ...A ....
....|..|R-- .... ....|R-- .... ....|R-- .... ....
....|..|A#5 ...F ....|A#5 ...F ....|A#5 ...F ....
....|..|R-- .... ....|R-- .... ....|R-- .... ....
....|..|G-5 ...A ....|G-5 ...A ....|G-5 ...A ....
....|..|F-4 ...F ....|F-4 ...F ....|F-4 ...F ....
....|..|A#5 ...7 ....|A#5 ...7 ....|A#5 ...7 ....
....|..|R-- .... ....|R-- .... ....|R-- .... ....
....|..|A#5 ...A ....|A#5 ...A ....|A#5 ...A ....
....|..|R-- .... ....|R-- .... ....|R-- .... ....
....|..|F-5 ...F ....|F-5 ...F ....|F-5 ...F ....
....|..|F-4 ...A ....|F-4 ...A ....|F-4 ...A ....
....|..|--- .... ....|--- .... ....|--- .... ....
....|..|R-- .... ....|R-- .... ....|R-- .... ....
....|..|A#5 ...F ....|A#5 ...F ....|A#5 ...F ....
....|..|R-- .... ....|R-- .... ....|R-- .... ....
....|..|F-5 ...A ....|F-5 ...A ....|F-5 ...A ....
....|..|R-- .... ....|R-- .... ....|R-- .... ....
....|..|F-5 ...F ....|F-5 ...F ....|F-5 ...F ....
....|..|R-- .... ....|R-- .... ....|R-- .... ....
....|..|A#5 ...A ....|A#5 ...A ....|A#5 ...A ....
....|..|C-6 ...F ....|C-6 ...F ....|C-6 ...F ....
....|..|F-5 ...7 ....|F-5 ...7 ....|F-5 ...7 ....
....|..|R-- .... ....|R-- .... ....|R-- .... ....
....|..|F-5 ...A ....|F-5 ...A ....|F-5 ...A ....
....|..|R-- .... ....|R-- .... ....|R-- .... ....
....|..|A#5 ...F ....|A#5 ...F ....|A#5 ...F ....
....|..|C-6 ...A ....|C-6 ...A ....|C-6 ...A ....
....|..|--- .... ....|--- .... ....|--- .... ....
....|..|R-- .... ....|R-- .... ....|R-- .... ....
....|..|A-5 ...F ....|A-5 ...F ....|A-5 ...F ....
....|..|R-- .... ....|R-- .... ....|R-- .... ....
....|..|A#5 ...A ....|A#5 ...A ....|A#5 ...A ....
....|..|R-- .... ....|R-- .... ....|R-- .... ....
....|..|A#5 ...F ....|A#5 ...F ....|A#5 ...F ....
....|..|R-- .... ....|R-- .... ....|R-- .... ....
....|..|A-5 ...A ....|A-5 ...A ....|A-5 ...A ....
....|..|A#6 ...F ....|A#6 ...F ....|A#6 ...F ....

[Pattern21]
....|..|A#5 ...7 ....|A#5 ...7 ....|A#5 ...7 ....
....|..|R-- .... ....|R-- .... ....|R-- .... ....
....|..|A#5 ...A ....|A#5 ...A ....|A#5 ...A ....
....|..|R-- .... ....|R-- .... ....|R-- .... ....
....|..|A#6 ...F ....|A#6 ...F ....|A#6 ...F ....
....|..|A#6 ...A ....|A#6 ...A ....|A#6 ...A ....
....|..|--- .... ....|--- .... ....|--- .... ....
....|..|R-- .... ....|R-- .... ....|R-- .... ....
....|..|G-6 ...F ....|G-6 ...F ....|G-6 ...F ....
....|..|R-- .... ....|R-- .... ....|R-- .... ....
....|..|A#6 ...A ....|A#6 ...A ....|A#6 ...A ....
....|..|R-- .... ....|R-- .... ....|R-- .... ....
....|..|G-6 ...F ....|G-6 ...F ....|G-6 ...F ....
....|..|R-- .... ....|R-- .... ....|R-- .... ....
....|..|G-6 ...A ....|G-6 ...A ....|G-6 ...A ....
....|..|A#5 ...F ....|A#5 ...F ....|A#5 ...F ....
....|..|A#6 ...7 ....|A#6 ...7 ....|A#6 ...7 ....
....|..|R-- .... ....|R-- .... ....|R-- .... ....
....|..|G-6 ...A ....|G-6 ...A ....|G-6 ...A ....
....|..|R-- .... ....|R-- .... ....|R-- .... ....
....|..|A#5 ...F ....|A#5 ...F ....|A#5 ...F ....
....|..|A#5 ...A ....|A#5 ...A ....|A#5 ...A ....
....|..|--- .... ....|--- .... ....|--- .... ....
....|..|R-- .... ....|R-- .... ....|R-- .... ....
....|..|G-5 ...F ....|G-5 ...F ....|G-5 ...F ....
....|..|R-- .... ....|R-- .... ....|R-- .... ....
....|..|A#5 ...A ....|A#5 ...A ....|A#5 ...A ....
....|..|R-- .... ....|R-- .... ....|R-- .... ....
....|..|G-5 ...F ....|G-5 ...F ....|G-5 ...F ....
....|..|R-- .... ....|R-- .... ....|R-- .... ....
....|..|G-5 ...A ....|G-5 ...A ....|G-5 ...A ....
....|..|A#6 ...F ....|A#6 ...F ....|A#6 ...F ....
....|..|A#5 ...7 ....|A#5 ...7 ....|A#5 ...7 ....
....|..|R-- .... ....|R-- .... ....|R-- .... ....
....|..|G-5 ...A ....|G-5 ...A ....|G-5 ...A ....
....|..|R-- .... ....|R-- .... ....|R-- .... ....
....|..|A#6 ...F ....|A#6 ...F ....|A#6 ...F ....
....|..|A#6 ...A ....|A#6 ...A ....|A#6 ...A ....
....|..|--- .... ....|--- .... ....|--- .... ....
....|..|R-- .... ....|R-- .... ....|R-- .... ....
....|..|G-6 ...F ....|G-6 ...F ....|G-6 ...F ....
....|..|R-- .... ....|R-- .... ....|R-- .... ....
....|..|A#6 ...A ....|A#6 ...A ....|A#6 ...A ....
....|..|R-- .... ....|R-- .... ....|R-- .... ....
....|..|G-6 ...F ....|G-6 ...F ....|G-6 ...F ....
....|..|R-- .... ....|R-- .... ....|R-- .... ....
....|..|G-6 ...A ....|G-6 ...A ....|G-6 ...A ....
....|..|A#6 ...F ....|A#6 ...F ....|A#6 ...F ....
....|..|A#6 ...7 ....|A#6 ...7 ....|A#6 ...7 ....
....|..|R-- .... ....|R-- .... ....|R-- .... ....
....|..|G-6 ...A ....|G-6 ...A ....|G-6 ...A ....
....|..|R-- .... ....|R-- .... ....|R-- .... ....
....|..|A#6 ...F ....|A#6 ...F ....|A#6 ...F ....
....|..|A#6 ...A ....|A#6 ...A ....|A#6 ...A ....
....|..|--- .... ....|--- .... ....|--- .... ....
....|..|R-- .... ....|R-- .... ....|R-- .... ....
....|..|G-6 ...F ....|G-6 ...F ....|G-6 ...F ....
....|..|R-- .... ....|R-- .... ....|R-- .... ....
....|..|A#6 ...A ....|A#6 ...A ....|A#6 ...A ....
....|..|R-- .... ....|R-- .... ....|R-- .... ....
....|..|G-6 ...F ....|G-6 ...F ....|G-6 ...F ....
....|..|R-- .... ....|R-- .... ....|R-- .... ....
....|..|G-6 ...A ....|G-6 ...A ....|G-6 ...A ....
....|..|G-4 ...F ....|G-4 ...F ....|G-4 ...F ....

[Pattern22]
....|..|A#6 ...7 ....|A#6 ...7 ....|A#6 ...7 ....
....|..|R-- .... ....|R-- .... ....|R-- .... ....
....|..|G-6 ...A ....|G-6 ...A ....|G-6 ...A ....
....|..|R-- .... ....|R-- .... ....|R-- .... ....
....|..|A#4 ...F ....|A#4 ...F ....|A#4 ...F ....
....|..|G-4 ...A ....|G-4 ...A ....|G-4 ...A ....
....|..|--- .... ....|--- .... ....|--- .... ....
....|..|R-- .... ....|R-- .... ....|R-- .... ....
....|..|G-5 ...F ....|G-5 ...F ....|G-5 ...F ....
....|..|R-- .... ....|R-- .... ....|R-- .... ....
....|..|A#4 ...A ....|A#4 ...A ....|A#4 ...A ....
....|..|R-- .... ....|R-- .... ....|R-- .... ....
....|..|A#5 ...F ....|A#5 ...F ....|A#5 ...F ....
....|..|R-- .... ....|R-- .... ....|R-- .... ....
....|..|G-5 ...A ....|G-5 ...A ....|G-5 ...A ....
....|..|R-- .... ....|R-- .... ....|R-- .... ....
....|..|D-6 ...F ....|D-6 ...F ....|D-6 ...F ....
....|..|R-- .... ....|R-- .... ....|R-- .... ....
....|..|A#5 ...A ....|A#5 ...A ....|A#5 ...A ....
....|..|R-- .... ....|R-- .... ....|R-- .... ....
....|..|A#5 ...F ....|A#5 ...F ....|A#5 ...F ....
....|..|R-- .... ....|R-- .... ....|R-- .... ....
....|..|D-6 ...A ....|D-6 ...A ....|D-6 ...A ....
....|..|R-- .... ....|R-- .... ....|R-- .... ....
....|..|G-5 ...F ....|G-5 ...F ....|G-5 ...F ....
....|..|R-- .... ....|R-- .... ....|R-- .... ....
....|..|A#5 ...A ....|A#5 ...A ....|A#5 ...A ....
....|..|R-- .... ....|R-- .... ....|R-- .... ....
....|..|A#5 ...F ....|A#5 ...F ....|A#5 ...F ....
....|..|R-- .... ....|R-- .... ....|R-- .... ....
....|..|G-5 ...A ....|G-5 ...A ....|G-5 ...A ....
....|..|R-- .... ....|R-- .... ....|R-- .... ....
....|..|F-4 ...F ....|F-4 ...F ....|F-4 ...F ....
....|..|R-- .... ....|R-- .... ....|R-- .... ....
....|..|A#5 ...A ....|A#5 ...A ....|A#5 ...A ....
....|..|R-- .... ....|R-- .... ....|R-- .... ....
....|..|F-5 ...F ....|F-5 ...F ....|F-5 ...F ....
....|..|R-- .... ....|R-- .... ....|R-- .... ....
....|..|F-4 ...A ....|F-4 ...A ....|F-4 ...A ....
....|..|R-- .... ....|R-- .... ....|R-- .... ....
....|..|A#5 ...F ....|A#5 ...F ....|A#5 ...F ....
....|..|R-- .... ....|R-- .... ....|R-- .... ....
....|..|F-5 ...A ....|F-5 ...A ....|F-5 ...A ....
....|..|R-- .... ....|R-- .... ....|R-- .... ....
....|..|F-5 ...F ....|F-5 ...F ....|F-5 ...F ....
....|..|R-- .... ....|R-- .... ....|R-- .... ....
....|..|A#5 ...A ....|A#5 ...A ....|A#5 ...A ....
....|..|R-- .... ....|R-- .... ....|R-- .... ....
....|..|C-6 ...F ....|C-6 ...F ....|C-6 ...F ....
....|..|R-- .... ....|R-- .... ....|R-- .... ....
....|..|F-5 ...A ....|F-5 ...A ....|F-5 ...A ....
....|..|R-- .... ....|R-- .... ....|R-- .... ....
....|..|A#5 ...F ....|A#5 ...F ....|A#5 ...F ....
....|..|R-- .... ....|R-- .... ....|R-- .... ....
....|..|C-6 ...A ....|C-6 ...A ....|C-6 ...A ....
....|..|R-- .... ....|R-- .... ....|R-- .... ....
....|..|A-5 ...F ....|A-5 ...F ....|A-5 ...F ....
....|..|R-- .... ....|R-- .... ....|R-- .... ....
....|..|A#5 ...A ....|A#5 ...A ....|A#5 ...A ....
....|..|R-- .... ....|R-- .... ....|R-- .... ....
....|..|A#5 ...F ....|A#5 ...F ....|A#5 ...F ....
....|..|R-- .... ....|R-- .... ....|R-- .... ....
....|..|A-5 ...A ....|A-5 ...A ....|A-5 ...A ....
....|..|R-- .... ....|R-- .... ....|R-- .... ....

[Pattern23]
....|..|E-4 ...F ....|E-4 ...F ....|E-4 ...F ....
....|..|R-- .... ....|R-- .... ....|R-- .... ....
....|..|A#5 ...A ....|A#5 ...A ....|A#5 ...A ....
....|..|R-- .... ....|R-- .... ....|R-- .... ....
....|..|E-5 ...F ....|E-5 ...F ....|E-5 ...F ....
....|..|R-- .... ....|R-- .... ....|R-- .... ....
....|..|E-4 ...A ....|E-4 ...A ....|E-4 ...A ....
....|..|R-- .... ....|R-- .... ....|R-- .... ....
....|..|G-5 ...F ....|G-5 ...F ....|G-5 ...F ....
....|..|R-- .... ....|R-- .... ....|R-- .... ....
....|..|E-5 ...A ....|E-5 ...A ....|E-5 ...A ....
....|..|R-- .... ....|R-- .... ....|R-- .... ....
....|..|E-5 ...F ....|E-5 ...F ....|E-5 ...F ....
....|..|R-- .... ....|R-- .... ....|R-- .... ....
....|..|G-5 ...A ....|G-5 ...A ....|G-5 ...A ....
....|..|R-- .... ....|R-- .... ....|R-- .... ....
....|..|C-7 ...F ....|C-7 ...F ....|C-7 ...F ....
....|..|R-- .... ....|R-- .... ....|R-- .... ....
....|..|E-5 ...A ....|E-5 ...A ....|E-5 ...A ....
....|..|R-- .... ....|R-- .... ....|R-- .... ....
....|..|A#6 ...F ....|A#6 ...F ....|A#6 ...F ....
....|..|R-- .... ....|R-- .... ....|R-- .... ....
....|..|C-7 ...A ....|C-7 ...A ....|C-7 ...A ....
....|..|R-- .... ....|R-- .... ....|R-- .... ....
....|..|G-6 ...F ....|G-6 ...F ....|G-6 ...F ....
....|..|R-- .... ....|R-- .... ....|R-- .... ....
....|..|A#6 ...A ....|A#6 ...A ....|A#6 ...A ....
....|..|R-- .... ....|R-- .... ....|R-- .... ....
....|..|E-6 ...F ....|E-6 ...F ....|E-6 ...F ....
....|..|R-- .... ....|R-- .... ....|R-- .... ....
....|..|G-6 ...A ....|G-6 ...A ....|G-6 ...A ....
....|..|R-- .... ....|R-- .... ....|R-- .... ....
....|..|D#6 ...F ....|D#6 ...F ....|D#6 ...F ....
....|..|R-- .... ....|R-- .... ....|R-- .... ....
....|..|E-6 ...A ....|E-6 ...A ....|E-6 ...A ....
....|..|R-- .... ....|R-- .... ....|R-- .... ....
....|..|D#6 ...F ....|D#6 ...F ....|D#6 ...F ....
....|..|R-- .... ....|R-- .... ....|R-- .... ....
....|..|D#6 ...A ....|D#6 ...A ....|D#6 ...A ....
....|..|R-- .... ....|R-- .... ....|R-- .... ....
....|..|G-6 ...F ....|G-6 ...F ....|G-6 ...F ....
....|..|R-- .... ....|R-- .... ....|R-- .... ....
....|..|D#6 ...A ....|D#6 ...A ....|D#6 ...A ....
....|..|R-- .... ....|R-- .... ....|R-- .... ....
....|..|A#6 ...F ....|A#6 ...F ....|A#6 ...F ....
....|..|R-- .... ....|R-- .... ....|R-- .... ....
....|..|G-6 ...A ....|G-6 ...A ....|G-6 ...A ....
....|..|R-- .... ....|R-- .... ....|R-- .... ....
....|..|G-4 ...F ....|G-4 ...F ....|G-4 ...F ....
....|..|R-- .... ....|R-- .... ....|R-- .... ....
....|..|A#6 ...A ....|A#6 ...A ....|A#6 ...A ....
....|..|R-- .... ....|R-- .... ....|R-- .... ....
....|..|G-4 ...F ....|G-4 ...F ....|G-4 ...F ....
....|..|R-- .... ....|R-- .... ....|R-- .... ....
....|..|G-4 ...A ....|G-4 ...A ....|G-4 ...A ....
....|..|R-- .... ....|R-- .... ....|R-- .... ....
....|..|G-4 ...F ....|G-4 ...F ....|G-4 ...F ....
....|..|R-- .... ....|R-- .... ....|R-- .... ....
....|..|G-4 ...A ....|G-4 ...A ....|G-4 ...A ....
....|..|R-- .... ....|R-- .... ....|R-- .... ....
....|..|G-4 ...F ....|G-4 ...F ....|G-4 ...F ....
....|..|R-- .... ....|R-- .... ....|R-- .... ....
....|..|G-4 ...A ....|G-4 ...A ....|G-4 ...A ....
....|..|R-- .... ....|R-- .... ....|R-- .... ....

[Pattern24]
....|..|G-4 ...F ....|G-4 ...F ....|G-4 ...F ....
....|..|R-- .... ....|R-- .... ....|R-- .... ....
....|..|G-4 ...A ....|G-4 ...A ....|G-4 ...A ....
....|..|R-- .... ....|R-- .... ....|R-- .... ....
....|..|A#4 ...F ....|A#4 ...F ....|A#4 ...F ....
....|..|R-- .... ....|R-- .... ....|R-- .... ....
....|..|G-4 ...A ....|G-4 ...A ....|G-4 ...A ....
....|..|R-- .... ....|R-- .... ....|R-- .... ....
....|..|G-5 ...F ....|G-5 ...F ....|G-5 ...F ....
....|..|R-- .... ....|R-- .... ....|R-- .... ....
....|..|A#4 ...A ....|A#4 ...A ....|A#4 ...A ....
....|..|R-- .... ....|R-- .... ....|R-- .... ....
....|..|A#5 ...F ....|A#5 ...F ....|A#5 ...F ....
....|..|R-- .... ....|R-- .... ....|R-- .... ....
....|..|G-5 ...A ....|G-5 ...A ....|G-5 ...A ....
....|..|R-- .... ....|R-- .... ....|R-- .... ....
....|..|D-6 ...F ....|D-6 ...F ....|D-6 ...F ....
....|..|R-- .... ....|R-- .... ....|R-- .... ....
....|..|A#5 ...A ....|A#5 ...A ....|A#5 ...A ....
....|..|R-- .... ....|R-- .... ....|R-- .... ....
....|..|A#5 ...F ....|A#5 ...F ....|A#5 ...F ....
....|..|R-- .... ....|R-- .... ....|R-- .... ....
....|..|D-6 ...A ....|D-6 ...A ....|D-6 ...A ....
....|..|R-- .... ....|R-- .... ....|R-- .... ....
....|..|G-5 ...F ....|G-5 ...F ....|G-5 ...F ....
....|..|R-- .... ....|R-- .... ....|R-- .... ....
....|..|A#5 ...A ....|A#5 ...A ....|A#5 ...A ....
....|..|R-- .... ....|R-- .... ....|R-- .... ....
....|..|A#5 ...F ....|A#5 ...F ....|A#5 ...F ....
....|..|R-- .... ....|R-- .... ....|R-- .... ....
....|..|G-5 ...A ....|G-5 ...A ....|G-5 ...A ....
....|..|R-- .... ....|R-- .... ....|R-- .... ....
....|..|F-4 ...F ....|F-4 ...F ....|F-4 ...F ....
....|..|R-- .... ....|R-- .... ....|R-- .... ....
....|..|A#5 ...A ....|A#5 ...A ....|A#5 ...A ....
....|..|R-- .... ....|R-- .... ....|R-- .... ....
....|..|F-5 ...F ....|F-5 ...F ....|F-5 ...F ....
....|..|R-- .... ....|R-- .... ....|R-- .... ....
....|..|F-4 ...A ....|F-4 ...A ....|F-4 ...A ....
....|..|R-- .... ....|R-- .... ....|R-- .... ....
....|..|A#5 ...F ....|A#5 ...F ....|A#5 ...F ....
....|..|R-- .... ....|R-- .... ....|R-- .... ....
....|..|F-5 ...A ....|F-5 ...A ....|F-5 ...A ....
....|..|R-- .... ....|R-- .... ....|R-- .... ....
....|..|F-5 ...F ....|F-5 ...F ....|F-5 ...F ....
....|..|R-- .... ....|R-- .... ....|R-- .... ....
....|..|A#5 ...A ....|A#5 ...A ....|A#5 ...A ....
....|..|R-- .... ....|R-- .... ....|R-- .... ....
....|..|C-6 ...F ....|C-6 ...F ....|C-6 ...F ....
....|..|R-- .... ....|R-- .... ....|R-- .... ....
....|..|F-5 ...A ....|F-5 ...A ....|F-5 ...A ....
....|..|R-- .... ....|R-- .... ....|R-- .... ....
....|..|A#5 ...F ....|A#5 ...F ....|A#5 ...F ....
....|..|R-- .... ....|R-- .... ....|R-- .... ....
....|..|C-6 ...A ....|C-6 ...A ....|C-6 ...A ....
....|..|R-- .... ....|R-- .... ....|R-- .... ....
....|..|A-5 ...F ....|A-5 ...F ....|A-5 ...F ....
....|..|R-- .... ....|R-- .... ....|R-- .... ....
....|..|A#5 ...A ....|A#5 ...A ....|A#5 ...A ....
....|..|R-- .... ....|R-- .... ....|R-- .... ....
....|..|A#5 ...F ....|A#5 ...F ....|A#5 ...F ....
....|..|R-- .... ....|R-- .... ....|R-- .... ....
....|..|A-5 ...A ....|A-5 ...A ....|A-5 ...A ....
....|..|R-- .... ....|R-- .... ....|R-- .... ....

[Pattern25]
....|..|A#6 ...F ....|A#6 ...F ....|A#6 ...F ....
....|..|R-- .... ....|R-- .... ....|R-- .... ....
....|..|A#5 ...A ....|A#5 ...A ....|A#5 ...A ....
....|..|R-- .... ....|R-- .... ....|R-- .... ....
....|..|A#6 ...F ....|A#6 ...F ....|A#6 ...F ....
....|..|R-- .... ....|R-- .... ....|R-- .... ....
....|..|A#6 ...A ....|A#6 ...A ....|A#6 ...A ....
....|..|R-- .... ....|R-- .... ....|R-- .... ....
....|..|G-6 ...F ....|G-6 ...F ....|G-6 ...F ....
....|..|R-- .... ....|R-- .... ....|R-- .... ....
....|..|A#6 ...A ....|A#6 ...A ....|A#6 ...A ....
....|..|R-- .... ....|R-- .... ....|R-- .... ....
....|..|G-6 ...F ....|G-6 ...F ....|G-6 ...F ....
....|..|R-- .... ....|R-- .... ....|R-- .... ....
....|..|G-6 ...A ....|G-6 ...A ....|G-6 ...A ....
....|..|R-- .... ....|R-- .... ....|R-- .... ....
....|..|A#5 ...F ....|A#5 ...F ....|A#5 ...F ....
....|..|R-- .... ....|R-- .... ....|R-- .... ....
....|..|G-6 ...A ....|G-6 ...A ....|G-6 ...A ....
....|..|R-- .... ....|R-- .... ....|R-- .... ....
....|..|A#5 ...F ....|A#5 ...F ....|A#5 ...F ....
....|..|R-- .... ....|R-- .... ....|R-- .... ....
....|..|A#5 ...A ....|A#5 ...A ....|A#5 ...A ....
....|..|R-- .... ....|R-- .... ....|R-- .... ....
....|..|G-5 ...F ....|G-5 ...F ....|G-5 ...F ....
....|..|R-- .... ....|R-- .... ....|R-- .... ....
....|..|A#5 ...A ....|A#5 ...A ....|A#5 ...A ....
....|..|R-- .... ....|R-- .... ....|R-- .... ....
....|..|G-5 ...F ....|G-5 ...F ....|G-5 ...F ....
....|..|R-- .... ....|R-- .... ....|R-- .... ....
....|..|G-5 ...A ....|G-5 ...A ....|G-5 ...A ....
....|..|R-- .... ....|R-- .... ....|R-- .... ....
....|..|A#6 ...F ....|A#6 ...F ....|A#6 ...F ....
....|..|R-- .... ....|R-- .... ....|R-- .... ....
....|..|G-5 ...A ....|G-5 ...A ....|G-5 ...A ....
....|..|R-- .... ....|R-- .... ....|R-- .... ....
....|..|A#6 ...F ....|A#6 ...F ....|A#6 ...F ....
....|..|R-- .... ....|R-- .... ....|R-- .... ....
....|..|A#6 ...A ....|A#6 ...A ....|A#6 ...A ....
....|..|R-- .... ....|R-- .... ....|R-- .... ....
....|..|G-6 ...F ....|G-6 ...F ....|G-6 ...F ....
....|..|R-- .... ....|R-- .... ....|R-- .... ....
....|..|A#6 ...A ....|A#6 ...A ....|A#6 ...A ....
....|..|R-- .... ....|R-- .... ....|R-- .... ....
....|..|G-6 ...F ....|G-6 ...F ....|G-6 ...F ....
....|..|R-- .... ....|R-- .... ....|R-- .... ....
....|..|G-6 ...A ....|G-6 ...A ....|G-6 ...A ....
....|..|R-- .... ....|R-- .... ....|R-- .... ....
....|..|A#6 ...F ....|A#6 ...F ....|A#6 ...F ....
....|..|R-- .... ....|R-- .... ....|R-- .... ....
....|..|G-6 ...A ....|G-6 ...A ....|G-6 ...A ....
....|..|R-- .... ....|R-- .... ....|R-- .... ....
....|..|A#6 ...F ....|A#6 ...F ....|A#6 ...F ....
....|..|R-- .... ....|R-- .... ....|R-- .... ....
....|..|A#6 ...A ....|A#6 ...A ....|A#6 ...A ....
....|..|R-- .... ....|R-- .... ....|R-- .... ....
....|..|G-6 ...F ....|G-6 ...F ....|G-6 ...F ....
....|..|R-- .... ....|R-- .... ....|R-- .... ....
....|..|A#6 ...A ....|A#6 ...A ....|A#6 ...A ....
....|..|R-- .... ....|R-- .... ....|R-- .... ....
....|..|G-6 ...F ....|G-6 ...F ....|G-6 ...F ....
....|..|R-- .... ....|R-- .... ....|R-- .... ....
....|..|G-6 ...A ....|G-6 ...A ....|G-6 ...A ....
....|..|R-- .... ....|R-- .... ....|R-- .... ....

[Pattern26]
....|..|F-5 ...F ....|F-5 ...F ....|F-5 ...F ....
....|..|R-- .... ....|R-- .... ....|R-- .... ....
....|..|G-6 ...A ....|G-6 ...A ....|G-6 ...A ....
....|..|R-- .... ....|R-- .... ....|R-- .... ....
....|..|G-5 ...F ....|G-5 ...F ....|G-5 ...F ....
....|..|R-- .... ....|R-- .... ....|R-- .... ....
....|..|F-5 ...A ....|F-5 ...A ....|F-5 ...A ....
....|..|R-- .... ....|R-- .... ....|R-- .... ....
....|..|A#5 ...F ....|A#5 ...F ....|A#5 ...F ....
....|..|R-- .... ....|R-- .... ....|R-- .... ....
....|..|G-5 ...A ....|G-5 ...A ....|G-5 ...A ....
....|..|R-- .... ....|R-- .... ....|R-- .... ....
....|..|G-5 ...F ....|G-5 ...F ....|G-5 ...F ....
....|..|R-- .... ....|R-- .... ....|R-- .... ....
....|..|A#5 ...A ....|A#5 ...A ....|A#5 ...A ....
....|..|R-- .... ....|R-- .... ....|R-- .... ....
....|..|D-6 ...F ....|D-6 ...F ....|D-6 ...F ....
....|..|R-- .... ....|R-- .... ....|R-- .... ....
....|..|G-5 ...A ....|G-5 ...A ....|G-5 ...A ....
....|..|R-- .... ....|R-- .... ....|R-- .... ....
....|..|C-6 ...F ....|C-6 ...F ....|C-6 ...F ....
....|..|R-- .... ....|R-- .... ....|R-- .... ....
....|..|D-6 ...A ....|D-6 ...A ....|D-6 ...A ....
....|..|R-- .... ....|R-- .... ....|R-- .... ....
....|..|A#5 ...F ....|A#5 ...F ....|A#5 ...F ....
....|..|R-- .... ....|R-- .... ....|R-- .... ....
....|..|C-6 ...A ....|C-6 ...A ....|C-6 ...A ....
....|..|R-- .... ....|R-- .... ....|R-- .... ....
....|..|G-5 ...F ....|G-5 ...F ....|G-5 ...F ....
....|..|R-- .... ....|R-- .... ....|R-- .... ....
....|..|A#5 ...A ....|A#5 ...A ....|A#5 ...A ....
....|..|R-- .... ....|R-- .... ....|R-- .... ....
....|..|F-5 ...F ....|F-5 ...F ....|F-5 ...F ....
....|..|R-- .... ....|R-- .... ....|R-- .... ....
....|..|G-5 ...A ....|G-5 ...A ....|G-5 ...A ....
....|..|R-- .... ....|R-- .... ....|R-- .... ....
....|..|G-5 ...F ....|G-5 ...F ....|G-5 ...F ....
....|..|R-- .... ....|R-- .... ....|R-- .... ....
....|..|F-5 ...A ....|F-5 ...A ....|F-5 ...A ....
....|..|R-- .... ....|R-- .... ....|R-- .... ....
....|..|A#5 ...F ....|A#5 ...F ....|A#5 ...F ....
....|..|R-- .... ....|R-- .... ....|R-- .... ....
....|..|G-5 ...A ....|G-5 ...A ....|G-5 ...A ....
....|..|R-- .... ....|R-- .... ....|R-- .... ....
....|..|G-5 ...F ....|G-5 ...F ....|G-5 ...F ....
....|..|R-- .... ....|R-- .... ....|R-- .... ....
....|..|A#5 ...A ....|A#5 ...A ....|A#5 ...A ....
....|..|R-- .... ....|R-- .... ....|R-- .... ....
....|..|D-6 ...F ....|D-6 ...F ....|D-6 ...F ....
....|..|R-- .... ....|R-- .... ....|R-- .... ....
....|..|G-5 ...A ....|G-5 ...A ....|G-5 ...A ....
....|..|R-- .... ....|R-- .... ....|R-- .... ....
....|..|C-6 ...F ....|C-6 ...F ....|C-6 ...F ....
....|..|R-- .... ....|R-- .... ....|R-- .... ....
....|..|D-6 ...A ....|D-6 ...A ....|D-6 ...A ....
....|..|R-- .... ....|R-- .... ....|R-- .... ....
....|..|A#5 ...F ....|A#5 ...F ....|A#5 ...F ....
....|..|R-- .... ....|R-- .... ....|R-- .... ....
....|..|C-6 ...A ....|C-6 ...A ....|C-6 ...A ....
....|..|R-- .... ....|R-- .... ....|R-- .... ....
....|..|G-5 ...F ....|G-5 ...F ....|G-5 ...F ....
....|..|R-- .... ....|R-- .... ....|R-- .... ....
....|..|A#5 ...A ....|A#5 ...A ....|A#5 ...A ....
....|..|R-- .... ....|R-- .... ....|R-- .... ....

[Pattern27]
....|..|A#5 ...F ....|A#5 ...F ....|A#5 ...F ....
....|..|R-- .... ....|R-- .... ....|R-- .... ....
....|..|G-5 ...A ....|G-5 ...A ....|G-5 ...A ....
....|..|R-- .... ....|R-- .... ....|R-- .... ....
....|..|A#5 ...F ....|A#5 ...F ....|A#5 ...F ....
....|..|R-- .... ....|R-- .... ....|R-- .... ....
....|..|A#5 ...A ....|A#5 ...A ....|A#5 ...A ....
....|..|R-- .... ....|R-- .... ....|R-- .... ....
....|..|G-5 ...F ....|G-5 ...F ....|G-5 ...F ....
....|..|R-- .... ....|R-- .... ....|R-- .... ....
....|..|A#5 ...A ....|A#5 ...A ....|A#5 ...A ....
....|..|R-- .... ....|R-- .... ....|R-- .... ....
....|..|G-5 ...F ....|G-5 ...F ....|G-5 ...F ....
....|..|R-- .... ....|R-- .... ....|R-- .... ....
....|..|G-5 ...A ....|G-5 ...A ....|G-5 ...A ....
....|..|R-- .... ....|R-- .... ....|R-- .... ....
....|..|A#4 ...F ....|A#4 ...F ....|A#4 ...F ....
....|..|R-- .... ....|R-- .... ....|R-- .... ....
....|..|G-5 ...A ....|G-5 ...A ....|G-5 ...A ....
....|..|R-- .... ....|R-- .... ....|R-- .... ....
....|..|A#4 ...F ....|A#4 ...F ....|A#4 ...F ....
....|..|R-- .... ....|R-- .... ....|R-- .... ....
....|..|A#4 ...A ....|A#4 ...A ....|A#4 ...A ....
....|..|R-- .... ....|R-- .... ....|R-- .... ....
....|..|G-4 ...F ....|G-4 ...F ....|G-4 ...F ....
....|..|R-- .... ....|R-- .... ....|R-- .... ....
....|..|A#4 ...A ....|A#4 ...A ....|A#4 ...A ....
....|..|R-- .... ....|R-- .... ....|R-- .... ....
....|..|G-4 ...F ....|G-4 ...F ....|G-4 ...F ....
....|..|R-- .... ....|R-- .... ....|R-- .... ....
....|..|G-4 ...A ....|G-4 ...A ....|G-4 ...A ....
....|..|R-- .... ....|R-- .... ....|R-- .... ....
....|..|A#5 ...F ....|A#5 ...F ....|A#5 ...F ....
....|..|R-- .... ....|R-- .... ....|R-- .... ....
....|..|G-4 ...A ....|G-4 ...A ....|G-4 ...A ....
....|..|R-- .... ....|R-- .... ....|R-- .... ....
....|..|A#5 ...F ....|A#5 ...F ....|A#5 ...F ....
....|..|R-- .... ....|R-- .... ....|R-- .... ....
....|..|A#5 ...A ....|A#5 ...A ....|A#5 ...A ....
....|..|R-- .... ....|R-- .... ....|R-- .... ....
....|..|G-5 ...F ....|G-5 ...F ....|G-5 ...F ....
....|..|R-- .... ....|R-- .... ....|R-- .... ....
....|..|A#5 ...A ....|A#5 ...A ....|A#5 ...A ....
....|..|R-- .... ....|R-- .... ....|R-- .... ....
....|..|G-5 ...F ....|G-5 ...F ....|G-5 ...F ....
....|..|R-- .... ....|R-- .... ....|R-- .... ....
....|..|G-5 ...A ....|G-5 ...A ....|G-5 ...A ....
....|..|R-- .... ....|R-- .... ....|R-- .... ....
....|..|A#5 ...F ....|A#5 ...F ....|A#5 ...F ....
....|..|R-- .... ....|R-- .... ....|R-- .... ....
....|..|G-5 ...A ....|G-5 ...A ....|G-5 ...A ....
....|..|R-- .... ....|R-- .... ....|R-- .... ....
....|..|A#5 ...F ....|A#5 ...F ....|A#5 ...F ....
....|..|R-- .... ....|R-- .... ....|R-- .... ....
....|..|A#5 ...A ....|A#5 ...A ....|A#5 ...A ....
....|..|R-- .... ....|R-- .... ....|R-- .... ....
....|..|G-5 ...F ....|G-5 ...F ....|G-5 ...F ....
....|..|R-- .... ....|R-- .... ....|R-- .... ....
....|..|A#5 ...A ....|A#5 ...A ....|A#5 ...A ....
....|..|R-- .... ....|R-- .... ....|R-- .... ....
....|..|G-5 ...F ....|G-5 ...F ....|G-5 ...F ....
....|..|R-- .... ....|R-- .... ....|R-- .... ....
....|..|G-5 ...A ....|G-5 ...A ....|G-5 ...A ....
....|..|R-- .... ....|R-- .... ....|R-- .... ....

[Pattern28]
....|..|F-4 ...F ....|F-4 ...F ....|F-4 ...F ....
....|..|R-- .... ....|R-- .... ....|R-- .... ....
....|..|G-5 ...A ....|G-5 ...A ....|G-5 ...A ....
....|..|R-- .... ....|R-- .... ....|R-- .... ....
....|..|G-4 ...F ....|G-4 ...F ....|G-4 ...F ....
....|..|R-- .... ....|R-- .... ....|R-- .... ....
....|..|F-4 ...A ....|F-4 ...A ....|F-4 ...A ....
....|..|R-- .... ....|R-- .... ....|R-- .... ....
....|..|A#4 ...F ....|A#4 ...F ....|A#4 ...F ....
....|..|R-- .... ....|R-- .... ....|R-- .... ....
....|..|G-4 ...A ....|G-4 ...A ....|G-4 ...A ....
....|..|R-- .... ....|R-- .... ....|R-- .... ....
....|..|G-4 ...F ....|G-4 ...F ....|G-4 ...F ....
....|..|R-- .... ....|R-- .... ....|R-- .... ....
....|..|A#4 ...A ....|A#4 ...A ....|A#4 ...A ....
....|..|R-- .... ....|R-- .... ....|R-- .... ....
....|..|D-5 ...F ....|D-5 ...F ....|D-5 ...F ....
....|..|R-- .... ....|R-- .... ....|R-- .... ....
....|..|G-4 ...A ....|G-4 ...A ....|G-4 ...A ....
....|..|R-- .... ....|R-- .... ....|R-- .... ....
....|..|C-5 ...F ....|C-5 ...F ....|C-5 ...F ....
....|..|R-- .... ....|R-- .... ....|R-- .... ....
....|..|D-5 ...A ....|D-5 ...A ....|D-5 ...A ....
....|..|R-- .... ....|R-- .... ....|R-- .... ....
....|..|A#4 ...F ....|A#4 ...F ....|A#4 ...F ....
....|..|R-- .... ....|R-- .... ....|R-- .... ....
....|..|C-5 ...A ....|C-5 ...A ....|C-5 ...A ....
....|..|R-- .... ....|R-- .... ....|R-- .... ....
....|..|G-4 ...F ....|G-4 ...F ....|G-4 ...F ....
....|..|R-- .... ....|R-- .... ....|R-- .... ....
....|..|A#4 ...A ....|A#4 ...A ....|A#4 ...A ....
....|..|R-- .... ....|R-- .... ....|R-- .... ....
....|..|F-4 ...F ....|F-4 ...F ....|F-4 ...F ....
....|..|R-- .... ....|R-- .... ....|R-- .... ....
....|..|G-4 ...A ....|G-4 ...A ....|G-4 ...A ....
....|..|R-- .... ....|R-- .... ....|R-- .... ....
....|..|G-4 ...F ....|G-4 ...F ....|G-4 ...F ....
....|..|R-- .... ....|R-- .... ....|R-- .... ....
....|..|F-4 ...A ....|F-4 ...A ....|F-4 ...A ....
....|..|R-- .... ....|R-- .... ....|R-- .... ....
....|..|A#4 ...F ....|A#4 ...F ....|A#4 ...F ....
....|..|R-- .... ....|R-- .... ....|R-- .... ....
....|..|G-4 ...A ....|G-4 ...A ....|G-4 ...A ....
....|..|R-- .... ....|R-- .... ....|R-- .... ....
....|..|G-4 ...F ....|G-4 ...F ....|G-4 ...F ....
....|..|R-- .... ....|R-- .... ....|R-- .... ....
....|..|A#4 ...A ....|A#4 ...A ....|A#4 ...A ....
....|..|R-- .... ....|R-- .... ....|R-- .... ....
....|..|D-5 ...F ....|D-5 ...F ....|D-5 ...F ....
....|..|R-- .... ....|R-- .... ....|R-- .... ....
....|..|G-4 ...A ....|G-4 ...A ....|G-4 ...A ....
....|..|R-- .... ....|R-- .... ....|R-- .... ....
....|..|C-5 ...F ....|C-5 ...F ....|C-5 ...F ....
....|..|R-- .... ....|R-- .... ....|R-- .... ....
....|..|D-5 ...A ....|D-5 ...A ....|D-5 ...A ....
....|..|R-- .... ....|R-- .... ....|R-- .... ....
....|..|A#4 ...F ....|A#4 ...F ....|A#4 ...F ....
....|..|R-- .... ....|R-- .... ....|R-- .... ....
....|..|C-5 ...A ....|C-5 ...A ....|C-5 ...A ....
....|..|R-- .... ....|R-- .... ....|R-- .... ....
....|..|G-4 ...F ....|G-4 ...F ....|G-4 ...F ....
....|..|R-- .... ....|R-- .... ....|R-- .... ....
....|..|A#4 ...A ....|A#4 ...A ....|A#4 ...A ....
....|..|R-- .... ....|R-- .... ....|R-- .... ....

[Pattern29]
....|..|F-5 ...F ....|F-5 ...F ....|F-5 ...F ....
....|..|R-- .... ....|R-- .... ....|R-- .... ....
....|..|G-4 ...A ....|G-4 ...A ....|G-4 ...A ....
....|..|R-- .... ....|R-- .... ....|R-- .... ....
....|..|G-5 ...F ....|G-5 ...F ....|G-5 ...F ....
....|..|R-- .... ....|R-- .... ....|R-- .... ....
....|..|F-5 ...A ....|F-5 ...A ....|F-5 ...A ....
....|..|R-- .... ....|R-- .... ....|R-- .... ....
....|..|A#5 ...F ....|A#5 ...F ....|A#5 ...F ....
....|..|R-- .... ....|R-- .... ....|R-- .... ....
....|..|G-5 ...A ....|G-5 ...A ....|G-5 ...A ....
....|..|R-- .... ....|R-- .... ....|R-- .... ....
....|..|G-5 ...F ....|G-5 ...F ....|G-5 ...F ....
....|..|R-- .... ....|R-- .... ....|R-- .... ....
....|..|A#5 ...A ....|A#5 ...A ....|A#5 ...A ....
....|..|R-- .... ....|R-- .... ....|R-- .... ....
....|..|C-6 ...F ....|C-6 ...F ....|C-6 ...F ....
....|..|D-6 ...F ....|D-6 ...F ....|D-6 ...F ....
....|..|G-5 ...A ....|G-5 ...A ....|G-5 ...A ....
....|..|R-- .... ....|R-- .... ....|R-- .... ....
....|..|C-6 ...F ....|C-6 ...F ....|C-6 ...F ....
....|..|R-- .... ....|R-- .... ....|R-- .... ....
....|..|C-6 ...A ....|C-6 ...A ....|C-6 ...A ....
....|..|R-- .... ....|R-- .... ....|R-- .... ....
....|..|A#5 ...F ....|A#5 ...F ....|A#5 ...F ....
....|..|--- .... ....|--- .... ....|--- .... ....
....|..|C-6 ...A ....|C-6 ...A ....|C-6 ...A ....
....|..|R-- .... ....|R-- .... ....|R-- .... ....
....|..|G-5 ...F ....|G-5 ...F ....|G-5 ...F ....
....|..|R-- .... ....|R-- .... ....|R-- .... ....
....|..|A#5 ...A ....|A#5 ...A ....|A#5 ...A ....
....|..|R-- .... ....|R-- .... ....|R-- .... ....
....|..|F-5 ...F ....|F-5 ...F ....|F-5 ...F ....
....|..|R-- .... ....|R-- .... ....|R-- .... ....
....|..|G-5 ...A ....|G-5 ...A ....|G-5 ...A ....
....|..|R-- .... ....|R-- .... ....|R-- .... ....
....|..|G-5 ...F ....|G-5 ...F ....|G-5 ...F ....
....|..|R-- .... ....|R-- .... ....|R-- .... ....
....|..|F-5 ...A ....|F-5 ...A ....|F-5 ...A ....
....|..|R-- .... ....|R-- .... ....|R-- .... ....
....|..|A#5 ...F ....|A#5 ...F ....|A#5 ...F ....
....|..|R-- .... ....|R-- .... ....|R-- .... ....
....|..|G-5 ...A ....|G-5 ...A ....|G-5 ...A ....
....|..|R-- .... ....|R-- .... ....|R-- .... ....
....|..|C-6 ...F ....|C-6 ...F ....|C-6 ...F ....
....|..|R-- .... ....|R-- .... ....|R-- .... ....
....|..|A#5 ...A ....|A#5 ...A ....|A#5 ...A ....
....|..|G-4 ...F ....|G-4 ...F ....|G-4 ...F ....
....|..|G-5 ...7 ....|G-5 ...7 ....|G-5 ...7 ....
....|..|R-- .... ....|R-- .... ....|R-- .... ....
....|..|C-6 ...A ....|C-6 ...A ....|C-6 ...A ....
....|..|R-- .... ....|R-- .... ....|R-- .... ....
....|..|G-4 ...F ....|G-4 ...F ....|G-4 ...F ....
....|..|G-4 ...A ....|G-4 ...A ....|G-4 ...A ....
....|..|--- .... ....|--- .... ....|--- .... ....
....|..|R-- .... ....|R-- .... ....|R-- .... ....
....|..|G-4 ...F ....|G-4 ...F ....|G-4 ...F ....
....|..|R-- .... ....|R-- .... ....|R-- .... ....
....|..|G-4 ...A ....|G-4 ...A ....|G-4 ...A ....
....|..|R-- .... ....|R-- .... ....|R-- .... ....
....|..|G-4 ...F ....|G-4 ...F ....|G-4 ...F ....
....|..|R-- .... ....|R-- .... ....|R-- .... ....
....|..|G-4 ...A ....|G-4 ...A ....|G-4 ...A ....
....|..|R-- .... ....|R-- .... ....|R-- .... ....

[Pattern30]
....|..|F-5 ...F ....|F-5 ...F ....|F-5 ...F ....
....|..|R-- .... ....|R-- .... ....|R-- .... ....
....|..|G-4 ...A ....|G-4 ...A ....|G-4 ...A ....
....|..|R-- .... ....|R-- .... ....|R-- .... ....
....|..|G-5 ...F ....|G-5 ...F ....|G-5 ...F ....
....|..|R-- .... ....|R-- .... ....|R-- .... ....
....|..|F-5 ...A ....|F-5 ...A ....|F-5 ...A ....
....|..|R-- .... ....|R-- .... ....|R-- .... ....
....|..|A#5 ...F ....|A#5 ...F ....|A#5 ...F ....
....|..|R-- .... ....|R-- .... ....|R-- .... ....
....|..|G-5 ...A ....|G-5 ...A ....|G-5 ...A ....
....|..|R-- .... ....|R-- .... ....|R-- .... ....
....|..|G-5 ...F ....|G-5 ...F ....|G-5 ...F ....
....|..|R-- .... ....|R-- .... ....|R-- .... ....
....|..|A#5 ...A ....|A#5 ...A ....|A#5 ...A ....
....|..|R-- .... ....|R-- .... ....|R-- .... ....
....|..|D-6 ...F ....|D-6 ...F ....|D-6 ...F ....
....|..|R-- .... ....|R-- .... ....|R-- .... ....
....|..|G-5 ...A ....|G-5 ...A ....|G-5 ...A ....
....|..|R-- .... ....|R-- .... ....|R-- .... ....
....|..|G-5 ...F ....|G-5 ...F ....|G-5 ...F ....
....|..|R-- .... ....|R-- .... ....|R-- .... ....
....|..|A#5 ...F ....|A#5 ...F ....|A#5 ...F ....
....|..|R-- .... ....|R-- .... ....|R-- .... ....
....|..|G-3 ...F ....|G-3 ...F ....|G-3 ...F ....
....|..|R-- .... ....|R-- .... ....|R-- .... ....
....|..|G-5 ...F ....|G-5 ...F ....|G-5 ...F ....
....|..|R-- .... ....|R-- .... ....|R-- .... ....
....|..|F-5 ...F ....|F-5 ...F ....|F-5 ...F ....
....|..|--- .... ....|--- .... ....|--- .... ....
....|..|G-3 ...A ....|G-3 ...A ....|G-3 ...A ....
....|..|R-- .... ....|R-- .... ....|R-- .... ....
....|..|F-2 ...F ....|F-2 ...F ....|F-2 ...F ....
....|..|R-- .... ....|R-- .... ....|R-- .... ....
....|..|F-5 ...A ....|F-5 ...A ....|F-5 ...A ....
....|..|R-- .... ....|R-- .... ....|R-- .... ....
....|..|G-5 ...F ....|G-5 ...F ....|G-5 ...F ....
....|..|R-- .... ....|R-- .... ....|R-- .... ....
....|..|F-2 ...A ....|F-2 ...A ....|F-2 ...A ....
....|..|R-- .... ....|R-- .... ....|R-- .... ....
....|..|A#5 ...F ....|A#5 ...F ....|A#5 ...F ....
....|..|R-- .... ....|R-- .... ....|R-- .... ....
....|..|G-5 ...A ....|G-5 ...A ....|G-5 ...A ....
....|..|R-- .... ....|R-- .... ....|R-- .... ....
....|..|G-5 ...F ....|G-5 ...F ....|G-5 ...F ....
....|..|R-- .... ....|R-- .... ....|R-- .... ....
....|..|A#5 ...A ....|A#5 ...A ....|A#5 ...A ....
....|..|R-- .... ....|R-- .... ....|R-- .... ....
....|..|D-6 ...F ....|D-6 ...F ....|D-6 ...F ....
....|..|R-- .... ....|R-- .... ....|R-- .... ....
....|..|G-5 ...A ....|G-5 ...A ....|G-5 ...A ....
....|..|R-- .... ....|R-- .... ....|R-- .... ....
....|..|C-3 ...F ....|C-3 ...F ....|C-3 ...F ....
....|..|R-- .... ....|R-- .... ....|R-- .... ....
....|..|A#5 ...F ....|A#5 ...F ....|A#5 ...F ....
....|..|R-- .... ....|R-- .... ....|R-- .... ....
....|..|F-3 ...F ....|F-3 ...F ....|F-3 ...F ....
....|..|R-- .... ....|R-- .... ....|R-- .... ....
....|..|C-3 ...A ....|C-3 ...A ....|C-3 ...A ....
....|..|R-- .... ....|R-- .... ....|R-- .... ....
....|..|C-3 ...F ....|C-3 ...F ....|C-3 ...F ....
....|..|--- .... ....|--- .... ....|--- .... ....
....|..|F-3 ...A ....|F-3 ...A ....|F-3 ...A ....
....|..|R-- .... ....|R-- .... ....|R-- .... ....

[Pattern31]
....|..|F-5 ...F ....|F-5 ...F ....|F-5 ...F ....
....|..|--- .... ....|--- .... ....|--- .... ....
....|..|C-3 ...A ....|C-3 ...A ....|C-3 ...A ....
....|..|R-- .... ....|R-- .... ....|R-- .... ....
....|..|G-5 ...F ....|G-5 ...F ....|G-5 ...F ....
....|..|R-- .... ....|R-- .... ....|R-- .... ....
....|..|F-5 ...A ....|F-5 ...A ....|F-5 ...A ....
....|..|R-- .... ....|R-- .... ....|R-- .... ....
....|..|A#5 ...F ....|A#5 ...F ....|A#5 ...F ....
....|..|R-- .... ....|R-- .... ....|R-- .... ....
....|..|G-5 ...F ....|G-5 ...F ....|G-5 ...F ....
....|..|R-- .... ....|R-- .... ....|R-- .... ....
....|..|D-6 ...F ....|D-6 ...F ....|D-6 ...F ....
....|..|R-- .... ....|R-- .... ....|R-- .... ....
....|..|A#5 ...A ....|A#5 ...A ....|A#5 ...A ....
....|..|R-- .... ....|R-- .... ....|R-- .... ....
....|..|A#5 ...F ....|A#5 ...F ....|A#5 ...F ....
....|..|R-- .... ....|R-- .... ....|R-- .... ....
....|..|D-6 ...A ....|D-6 ...A ....|D-6 ...A ....
....|..|R-- .... ....|R-- .... ....|R-- .... ....
....|..|G-5 ...F ....|G-5 ...F ....|G-5 ...F ....
....|..|R-- .... ....|R-- .... ....|R-- .... ....
....|..|A#5 ...A ....|A#5 ...A ....|A#5 ...A ....
....|..|R-- .... ....|R-- .... ....|R-- .... ....
....|..|F-5 ...F ....|F-5 ...F ....|F-5 ...F ....
....|..|R-- .... ....|R-- .... ....|R-- .... ....
....|..|G-5 ...A ....|G-5 ...A ....|G-5 ...A ....
....|..|R-- .... ....|R-- .... ....|R-- .... ....
....|..|G-5 ...F ....|G-5 ...F ....|G-5 ...F ....
....|..|R-- .... ....|R-- .... ....|R-- .... ....
....|..|F-5 ...A ....|F-5 ...A ....|F-5 ...A ....
....|..|R-- .... ....|R-- .... ....|R-- .... ....
....|..|A#4 ...F ....|A#4 ...F ....|A#4 ...F ....
....|..|R-- .... ....|R-- .... ....|R-- .... ....
....|..|G-5 ...A ....|G-5 ...A ....|G-5 ...A ....
....|..|R-- .... ....|R-- .... ....|R-- .... ....
....|..|C-5 ...F ....|C-5 ...F ....|C-5 ...F ....
....|..|R-- .... ....|R-- .... ....|R-- .... ....
....|..|G-4 ...F ....|G-4 ...F ....|G-4 ...F ....
....|..|R-- .... ....|R-- .... ....|R-- .... ....
....|..|D#3 ...F ....|D#3 ...F ....|D#3 ...F ....
....|..|R-- .... ....|R-- .... ....|R-- .... ....
....|..|F-4 ...F ....|F-4 ...F ....|F-4 ...F ....
....|..|R-- .... ....|R-- .... ....|R-- .... ....
....|..|A#4 ...F ....|A#4 ...F ....|A#4 ...F ....
....|..|--- .... ....|--- .... ....|--- .... ....
....|..|D#3 ...A ....|D#3 ...A ....|D#3 ...A ....
....|..|R-- .... ....|R-- .... ....|R-- .... ....
....|..|G-4 ...F ....|G-4 ...F ....|G-4 ...F ....
....|..|R-- .... ....|R-- .... ....|R-- .... ....
....|..|A#4 ...A ....|A#4 ...A ....|A#4 ...A ....
....|..|R-- .... ....|R-- .... ....|R-- .... ....
....|..|F-4 ...F ....|F-4 ...F ....|F-4 ...F ....
....|..|R-- .... ....|R-- .... ....|R-- .... ....
....|..|G-4 ...A ....|G-4 ...A ....|G-4 ...A ....
....|..|R-- .... ....|R-- .... ....|R-- .... ....
....|..|G-3 ...F ....|G-3 ...F ....|G-3 ...F ....
....|..|R-- .... ....|R-- .... ....|R-- .... ....
....|..|F-4 ...A ....|F-4 ...A ....|F-4 ...A ....
....|..|R-- .... ....|R-- .... ....|R-- .... ....
....|..|G-3 ...F ....|G-3 ...F ....|G-3 ...F ....
....|..|R-- .... ....|R-- .... ....|R-- .... ....
....|..|G-3 ...A ....|G-3 ...A ....|G-3 ...A ....
....|..|R-- .... ....|R-- .... ....|R-- .... ....

[Pattern32]
....|..|C-6 ...F ....|C-6 ...F ....|C-6 ...F ....
....|..|D-6 ...F ....|D-6 ...F ....|D-6 ...F ....
....|..|G-3 ...A ....|G-3 ...A ....|G-3 ...A ....
....|..|R-- .... ....|R-- .... ....|R-- .... ....
....|..|C-6 ...F ....|C-6 ...F ....|C-6 ...F ....
....|..|R-- .... ....|R-- .... ....|R-- .... ....
....|..|C-6 ...A ....|C-6 ...A ....|C-6 ...A ....
....|..|R-- .... ....|R-- .... ....|R-- .... ....
....|..|G-4 ...F ....|G-4 ...F ....|G-4 ...F ....
....|..|--- .... ....|--- .... ....|--- .... ....
....|..|C-6 ...A ....|C-6 ...A ....|C-6 ...A ....
....|..|R-- .... ....|R-- .... ....|R-- .... ....
....|..|G-4 ...F ....|G-4 ...F ....|G-4 ...F ....
....|..|R-- .... ....|R-- .... ....|R-- .... ....
....|..|G-4 ...A ....|G-4 ...A ....|G-4 ...A ....
....|..|R-- .... ....|R-- .... ....|R-- .... ....
....|..|F-5 ...F ....|F-5 ...F ....|F-5 ...F ....
....|..|R-- .... ....|R-- .... ....|R-- .... ....
....|..|G-4 ...A ....|G-4 ...A ....|G-4 ...A ....
....|..|R-- .... ....|R-- .... ....|R-- .... ....
....|..|G-5 ...F ....|G-5 ...F ....|G-5 ...F ....
....|..|R-- .... ....|R-- .... ....|R-- .... ....
....|..|F-5 ...A ....|F-5 ...A ....|F-5 ...A ....
....|..|R-- .... ....|R-- .... ....|R-- .... ....
....|..|F-5 ...F ....|F-5 ...F ....|F-5 ...F ....
....|..|R-- .... ....|R-- .... ....|R-- .... ....
....|..|G-5 ...A ....|G-5 ...A ....|G-5 ...A ....
....|..|R-- .... ....|R-- .... ....|R-- .... ....
....|..|G-5 ...F ....|G-5 ...F ....|G-5 ...F ....
....|..|R-- .... ....|R-- .... ....|R-- .... ....
....|..|F-5 ...A ....|F-5 ...A ....|F-5 ...A ....
....|..|R-- .... ....|R-- .... ....|R-- .... ....
....|..|C-6 ...F ....|C-6 ...F ....|C-6 ...F ....
....|..|R-- .... ....|R-- .... ....|R-- .... ....
....|..|G-5 ...A ....|G-5 ...A ....|G-5 ...A ....
....|..|R-- .... ....|R-- .... ....|R-- .... ....
....|..|A#5 ...F ....|A#5 ...F ....|A#5 ...F ....
....|..|R-- .... ....|R-- .... ....|R-- .... ....
....|..|C-6 ...A ....|C-6 ...A ....|C-6 ...A ....
....|..|R-- .... ....|R-- .... ....|R-- .... ....
....|..|F-5 ...F ....|F-5 ...F ....|F-5 ...F ....
....|..|R-- .... ....|R-- .... ....|R-- .... ....
....|..|A#5 ...A ....|A#5 ...A ....|A#5 ...A ....
....|..|R-- .... ....|R-- .... ....|R-- .... ....
....|..|G-5 ...F ....|G-5 ...F ....|G-5 ...F ....
....|..|R-- .... ....|R-- .... ....|R-- .... ....
....|..|F-5 ...A ....|F-5 ...A ....|F-5 ...A ....
....|..|R-- .... ....|R-- .... ....|R-- .... ....
....|..|A#5 ...F ....|A#5 ...F ....|A#5 ...F ....
....|..|R-- .... ....|R-- .... ....|R-- .... ....
....|..|G-5 ...A ....|G-5 ...A ....|G-5 ...A ....
....|..|R-- .... ....|R-- .... ....|R-- .... ....
....|..|G-5 ...F ....|G-5 ...F ....|G-5 ...F ....
....|..|R-- .... ....|R-- .... ....|R-- .... ....
....|..|A#5 ...A ....|A#5 ...A ....|A#5 ...A ....
....|..|R-- .... ....|R-- .... ....|R-- .... ....
....|..|D-6 ...F ....|D-6 ...F ....|D-6 ...F ....
....|..|R-- .... ....|R-- .... ....|R-- .... ....
....|..|G-5 ...A ....|G-5 ...A ....|G-5 ...A ....
....|..|R-- .... ....|R-- .... ....|R-- .... ....
....|..|C-6 ...F ....|C-6 ...F ....|C-6 ...F ....
....|..|R-- .... ....|R-- .... ....|R-- .... ....
....|..|D-6 ...A ....|D-6 ...A ....|D-6 ...A ....
....|..|R-- .... ....|R-- .... ....|R-- .... ....

[Pattern33]
....|..|C-6 ...F ....|C-6 ...F ....|C-6 ...F ....
....|..|R-- .... ....|R-- .... ....|R-- .... ....
....|..|G-5 ...F ....|G-5 ...F ....|G-5 ...F ....
....|..|R-- .... ....|R-- .... ....|R-- .... ....
....|..|A#5 ...F ....|A#5 ...F ....|A#5 ...F ....
....|..|R-- .... ....|R-- .... ....|R-- .... ....
....|..|G-5 ...F ....|G-5 ...F ....|G-5 ...F ....
....|..|R-- .... ....|R-- .... ....|R-- .... ....
....|..|C-6 ...F ....|C-6 ...F ....|C-6 ...F ....
....|..|--- .... ....|--- .... ....|--- .... ....
....|..|G-5 ...F ....|G-5 ...F ....|G-5 ...F ....
....|..|R-- .... ....|R-- .... ....|R-- .... ....
....|..|A#5 ...F ....|A#5 ...F ....|A#5 ...F ....
....|..|G-5 ...F ....|G-5 ...F ....|G-5 ...F ....
....|..|R-- .... ....|R-- .... ....|R-- .... ....
....|..|--- .... ....|--- .... ....|--- .... ....
....|..|C-6 ...F ....|C-6 ...F ....|C-6 ...F ....
....|..|--- .... ....|--- .... ....|--- .... ....
....|..|G-5 ...F ....|G-5 ...F ....|G-5 ...F ....
....|..|G-5 ...A ....|G-5 ...A ....|G-5 ...A ....
....|..|A#5 ...F ....|A#5 ...F ....|A#5 ...F ....
....|..|--- .... ....|--- .... ....|--- .... ....
....|..|G-5 ...F ....|G-5 ...F ....|G-5 ...F ....
....|..|--- .... ....|--- .... ....|--- .... ....
....|..|C-6 ...F ....|C-6 ...F ....|C-6 ...F ....
....|..|G-5 ...7 ....|G-5 ...7 ....|G-5 ...7 ....
....|..|G-5 ...F ....|G-5 ...F ....|G-5 ...F ....
....|..|--- .... ....|--- .... ....|--- .... ....
....|..|A#5 ...F ....|A#5 ...F ....|A#5 ...F ....
....|..|D-6 ...F ....|D-6 ...F ....|D-6 ...F ....
....|..|R-- .... ....|R-- .... ....|R-- .... ....
....|..|R-- .... ....|R-- .... ....|R-- .... ....
....|..|D-6 ...F ....|D-6 ...F ....|D-6 ...F ....
....|..|--- .... ....|--- .... ....|--- .... ....
....|..|A#5 ...A ....|A#5 ...A ....|A#5 ...A ....
....|..|R-- .... ....|R-- .... ....|R-- .... ....
....|..|C-6 ...F ....|C-6 ...F ....|C-6 ...F ....
....|..|R-- .... ....|R-- .... ....|R-- .... ....
....|..|D-6 ...A ....|D-6 ...A ....|D-6 ...A ....
....|..|R-- .... ....|R-- .... ....|R-- .... ....
....|..|A#5 ...F ....|A#5 ...F ....|A#5 ...F ....
....|..|R-- .... ....|R-- .... ....|R-- .... ....
....|..|C-6 ...A ....|C-6 ...A ....|C-6 ...A ....
....|..|R-- .... ....|R-- .... ....|R-- .... ....
....|..|C-6 ...F ....|C-6 ...F ....|C-6 ...F ....
....|..|R-- .... ....|R-- .... ....|R-- .... ....
....|..|A#5 ...A ....|A#5 ...A ....|A#5 ...A ....
....|..|R-- .... ....|R-- .... ....|R-- .... ....
....|..|G-3 ...F ....|G-3 ...F ....|G-3 ...F ....
....|..|R-- .... ....|R-- .... ....|R-- .... ....
....|..|C-6 ...A ....|C-6 ...A ....|C-6 ...A ....
....|..|R-- .... ....|R-- .... ....|R-- .... ....
....|..|G-3 ...F ....|G-3 ...F ....|G-3 ...F ....
....|..|R-- .... ....|R-- .... ....|R-- .... ....
....|..|G-3 ...A ....|G-3 ...A ....|G-3 ...A ....
....|..|R-- .... ....|R-- .... ....|R-- .... ....
....|..|G-3 ...F ....|G-3 ...F ....|G-3 ...F ....
....|..|R-- .... ....|R-- .... ....|R-- .... ....
....|..|G-3 ...A ....|G-3 ...A ....|G-3 ...A ....
....|..|R-- .... ....|R-- .... ....|R-- .... ....
....|..|F-5 ...F ....|F-5 ...F ....|F-5 ...F ....
....|..|G-5 ...F ....|G-5 ...F ....|G-5 ...F ....
....|..|G-3 ...A ....|G-3 ...A ....|G-3 ...A ....
....|..|R-- .... ....|R-- .... ....|R-- .... ....

[Pattern34]
....|..|A#5 ...F ....|A#5 ...F ....|A#5 ...F ....
....|..|R-- .... ....|R-- .... ....|R-- .... ....
....|..|F-5 ...A ....|F-5 ...A ....|F-5 ...A ....
....|..|R-- .... ....|R-- .... ....|R-- .... ....
....|..|A#5 ...F ....|A#5 ...F ....|A#5 ...F ....
....|..|R-- .... ....|R-- .... ....|R-- .... ....
....|..|A#5 ...A ....|A#5 ...A ....|A#5 ...A ....
....|..|R-- .... ....|R-- .... ....|R-- .... ....
....|..|A#5 ...F ....|A#5 ...F ....|A#5 ...F ....
....|..|R-- .... ....|R-- .... ....|R-- .... ....
....|..|A#5 ...A ....|A#5 ...A ....|A#5 ...A ....
....|..|R-- .... ....|R-- .... ....|R-- .... ....
....|..|G-5 ...F ....|G-5 ...F ....|G-5 ...F ....
....|..|R-- .... ....|R-- .... ....|R-- .... ....
....|..|A#5 ...A ....|A#5 ...A ....|A#5 ...A ....
....|..|R-- .... ....|R-- .... ....|R-- .... ....
....|..|D-6 ...F ....|D-6 ...F ....|D-6 ...F ....
....|..|R-- .... ....|R-- .... ....|R-- .... ....
....|..|G-5 ...A ....|G-5 ...A ....|G-5 ...A ....
....|..|R-- .... ....|R-- .... ....|R-- .... ....
....|..|G-5 ...F ....|G-5 ...F ....|G-5 ...F ....
....|..|R-- .... ....|R-- .... ....|R-- .... ....
....|..|A#5 ...F ....|A#5 ...F ....|A#5 ...F ....
....|..|R-- .... ....|R-- .... ....|R-- .... ....
....|..|G-3 ...F ....|G-3 ...F ....|G-3 ...F ....
....|..|R-- .... ....|R-- .... ....|R-- .... ....
....|..|G-5 ...F ....|G-5 ...F ....|G-5 ...F ....
....|..|R-- .... ....|R-- .... ....|R-- .... ....
....|..|D-3 ...F ....|D-3 ...F ....|D-3 ...F ....
....|..|F-5 ...F ....|F-5 ...F ....|F-5 ...F ....
....|..|G-3 ...A ....|G-3 ...A ....|G-3 ...A ....
....|..|R-- .... ....|R-- .... ....|R-- .... ....
....|..|F-2 ...F ....|F-2 ...F ....|F-2 ...F ....
....|..|--- .... ....|--- .... ....|--- .... ....
....|..|D-3 ...A ....|D-3 ...A ....|D-3 ...A ....
....|..|R-- .... ....|R-- .... ....|R-- .... ....
....|..|G-5 ...F ....|G-5 ...F ....|G-5 ...F ....
....|..|R-- .... ....|R-- .... ....|R-- .... ....
....|..|F-2 ...A ....|F-2 ...A ....|F-2 ...A ....
....|..|R-- .... ....|R-- .... ....|R-- .... ....
....|..|A#5 ...F ....|A#5 ...F ....|A#5 ...F ....
....|..|R-- .... ....|R-- .... ....|R-- .... ....
....|..|G-5 ...A ....|G-5 ...A ....|G-5 ...A ....
....|..|R-- .... ....|R-- .... ....|R-- .... ....
....|..|G-5 ...F ....|G-5 ...F ....|G-5 ...F ....
....|..|R-- .... ....|R-- .... ....|R-- .... ....
....|..|A#5 ...A ....|A#5 ...A ....|A#5 ...A ....
....|..|R-- .... ....|R-- .... ....|R-- .... ....
....|..|D-6 ...F ....|D-6 ...F ....|D-6 ...F ....
....|..|R-- .... ....|R-- .... ....|R-- .... ....
....|..|G-5 ...A ....|G-5 ...A ....|G-5 ...A ....
....|..|R-- .... ....|R-- .... ....|R-- .... ....
....|..|C-3 ...F ....|C-3 ...F ....|C-3 ...F ....
....|..|R-- .... ....|R-- .... ....|R-- .... ....
....|..|A#5 ...F ....|A#5 ...F ....|A#5 ...F ....
....|..|R-- .... ....|R-- .... ....|R-- .... ....
....|..|F-3 ...F ....|F-3 ...F ....|F-3 ...F ....
....|..|--- .... ....|--- .... ....|--- .... ....
....|..|C-3 ...A ....|C-3 ...A ....|C-3 ...A ....
....|..|R-- .... ....|R-- .... ....|R-- .... ....
....|..|C-3 ...F ....|C-3 ...F ....|C-3 ...F ....
....|..|G-4 ...F ....|G-4 ...F ....|G-4 ...F ....
....|..|F-3 ...A ....|F-3 ...A ....|F-3 ...A ....
....|..|R-- .... ....|R-- .... ....|R-- .... ....

[Pattern35]
....|..|A#4 ...F ....|A#4 ...F ....|A#4 ...F ....
....|..|--- .... ....|--- .... ....|--- .... ....
....|..|C-3 ...A ....|C-3 ...A ....|C-3 ...A ....
....|..|R-- .... ....|R-- .... ....|R-- .... ....
....|..|A#4 ...F ....|A#4 ...F ....|A#4 ...F ....
....|..|R-- .... ....|R-- .... ....|R-- .... ....
....|..|A#4 ...A ....|A#4 ...A ....|A#4 ...A ....
....|..|R-- .... ....|R-- .... ....|R-- .... ....
....|..|A#4 ...F ....|A#4 ...F ....|A#4 ...F ....
....|..|R-- .... ....|R-- .... ....|R-- .... ....
....|..|A#4 ...A ....|A#4 ...A ....|A#4 ...A ....
....|..|R-- .... ....|R-- .... ....|R-- .... ....
....|..|G-4 ...F ....|G-4 ...F ....|G-4 ...F ....
....|..|R-- .... ....|R-- .... ....|R-- .... ....
....|..|A#4 ...A ....|A#4 ...A ....|A#4 ...A ....
....|..|R-- .... ....|R-- .... ....|R-- .... ....
....|..|D-5 ...F ....|D-5 ...F ....|D-5 ...F ....
....|..|R-- .... ....|R-- .... ....|R-- .... ....
....|..|C-5 ...F ....|C-5 ...F ....|C-5 ...F ....
....|..|R-- .... ....|R-- .... ....|R-- .... ....
....|..|C-3 ...F ....|C-3 ...F ....|C-3 ...F ....
....|..|R-- .... ....|R-- .... ....|R-- .... ....
....|..|A#4 ...F ....|A#4 ...F ....|A#4 ...F ....
....|..|R-- .... ....|R-- .... ....|R-- .... ....
....|..|E-3 ...F ....|E-3 ...F ....|E-3 ...F ....
....|..|--- .... ....|--- .... ....|--- .... ....
....|..|C-3 ...A ....|C-3 ...A ....|C-3 ...A ....
....|..|R-- .... ....|R-- .... ....|R-- .... ....
....|..|C-3 ...F ....|C-3 ...F ....|C-3 ...F ....
....|..|G-4 ...F ....|G-4 ...F ....|G-4 ...F ....
....|..|E-3 ...A ....|E-3 ...A ....|E-3 ...A ....
....|..|R-- .... ....|R-- .... ....|R-- .... ....
....|..|A#4 ...F ....|A#4 ...F ....|A#4 ...F ....
....|..|--- .... ....|--- .... ....|--- .... ....
....|..|C-3 ...A ....|C-3 ...A ....|C-3 ...A ....
....|..|R-- .... ....|R-- .... ....|R-- .... ....
....|..|G-4 ...F ....|G-4 ...F ....|G-4 ...F ....
....|..|R-- .... ....|R-- .... ....|R-- .... ....
....|..|A#4 ...A ....|A#4 ...A ....|A#4 ...A ....
....|..|R-- .... ....|R-- .... ....|R-- .... ....
....|..|D-5 ...F ....|D-5 ...F ....|D-5 ...F ....
....|..|R-- .... ....|R-- .... ....|R-- .... ....
....|..|G-4 ...A ....|G-4 ...A ....|G-4 ...A ....
....|..|R-- .... ....|R-- .... ....|R-- .... ....
....|..|C-5 ...F ....|C-5 ...F ....|C-5 ...F ....
....|..|R-- .... ....|R-- .... ....|R-- .... ....
....|..|D-5 ...A ....|D-5 ...A ....|D-5 ...A ....
....|..|R-- .... ....|R-- .... ....|R-- .... ....
....|..|A#5 ...F ....|A#5 ...F ....|A#5 ...F ....
....|..|R-- .... ....|R-- .... ....|R-- .... ....
....|..|D-6 ...F ....|D-6 ...F ....|D-6 ...F ....
....|..|R-- .... ....|R-- .... ....|R-- .... ....
....|..|A-2 ...F ....|A-2 ...F ....|A-2 ...F ....
....|..|R-- .... ....|R-- .... ....|R-- .... ....
....|..|C-6 ...F ....|C-6 ...F ....|C-6 ...F ....
....|..|R-- .... ....|R-- .... ....|R-- .... ....
....|..|D-3 ...F ....|D-3 ...F ....|D-3 ...F ....
....|..|R-- .... ....|R-- .... ....|R-- .... ....
....|..|A#5 ...F ....|A#5 ...F ....|A#5 ...F ....
....|..|R-- .... ....|R-- .... ....|R-- .... ....
....|..|G-5 ...F ....|G-5 ...F ....|G-5 ...F ....
....|..|--- .... ....|--- .... ....|--- .... ....
....|..|D-3 ...A ....|D-3 ...A ....|D-3 ...A ....
....|..|R-- .... ....|R-- .... ....|R-- .... ....

[Pattern36]
....|..|G-5 ...F ....|G-5 ...F ....|G-5 ...F ....
....|..|R-- .... ....|R-- .... ....|R-- .... ....
....|..|G-5 ...A ....|G-5 ...A ....|G-5 ...A ....
....|..|R-- .... ....|R-- .... ....|R-- .... ....
....|..|F-5 ...F ....|F-5 ...F ....|F-5 ...F ....
....|..|R-- .... ....|R-- .... ....|R-- .... ....
....|..|G-5 ...A ....|G-5 ...A ....|G-5 ...A ....
....|..|R-- .... ....|R-- .... ....|R-- .... ....
....|..|G-5 ...F ....|G-5 ...F ....|G-5 ...F ....
....|..|R-- .... ....|R-- .... ....|R-- .... ....
....|..|F-5 ...A ....|F-5 ...A ....|F-5 ...A ....
....|..|R-- .... ....|R-- .... ....|R-- .... ....
....|..|D-5 ...F ....|D-5 ...F ....|D-5 ...F ....
....|..|R-- .... ....|R-- .... ....|R-- .... ....
....|..|G-5 ...A ....|G-5 ...A ....|G-5 ...A ....
....|..|R-- .... ....|R-- .... ....|R-- .... ....
....|..|F-5 ...F ....|F-5 ...F ....|F-5 ...F ....
....|..|R-- .... ....|R-- .... ....|R-- .... ....
....|..|G-5 ...F ....|G-5 ...F ....|G-5 ...F ....
....|..|R-- .... ....|R-- .... ....|R-- .... ....
....|..|D-3 ...F ....|D-3 ...F ....|D-3 ...F ....
....|..|R-- .... ....|R-- .... ....|R-- .... ....
....|..|G-5 ...F ....|G-5 ...F ....|G-5 ...F ....
....|..|R-- .... ....|R-- .... ....|R-- .... ....
....|..|G-3 ...F ....|G-3 ...F ....|G-3 ...F ....
....|..|R-- .... ....|R-- .... ....|R-- .... ....
....|..|D-6 ...F ....|D-6 ...F ....|D-6 ...F ....
....|..|R-- .... ....|R-- .... ....|R-- .... ....
....|..|D-3 ...F ....|D-3 ...F ....|D-3 ...F ....
....|..|C-6 ...F ....|C-6 ...F ....|C-6 ...F ....
....|..|G-3 ...A ....|G-3 ...A ....|G-3 ...A ....
....|..|R-- .... ....|R-- .... ....|R-- .... ....
....|..|F-2 ...F ....|F-2 ...F ....|F-2 ...F ....
....|..|R-- .... ....|R-- .... ....|R-- .... ....
....|..|D-3 ...A ....|D-3 ...A ....|D-3 ...A ....
....|..|R-- .... ....|R-- .... ....|R-- .... ....
....|..|G-5 ...F ....|G-5 ...F ....|G-5 ...F ....
....|..|R-- .... ....|R-- .... ....|R-- .... ....
....|..|F-2 ...A ....|F-2 ...A ....|F-2 ...A ....
....|..|R-- .... ....|R-- .... ....|R-- .... ....
....|..|G-5 ...F ....|G-5 ...F ....|G-5 ...F ....
....|..|R-- .... ....|R-- .... ....|R-- .... ....
....|..|G-5 ...A ....|G-5 ...A ....|G-5 ...A ....
....|..|R-- .... ....|R-- .... ....|R-- .... ....
....|..|F-5 ...F ....|F-5 ...F ....|F-5 ...F ....
....|..|R-- .... ....|R-- .... ....|R-- .... ....
....|..|G-5 ...A ....|G-5 ...A ....|G-5 ...A ....
....|..|R-- .... ....|R-- .... ....|R-- .... ....
....|..|G-5 ...F ....|G-5 ...F ....|G-5 ...F ....
....|..|R-- .... ....|R-- .... ....|R-- .... ....
....|..|F-5 ...F ....|F-5 ...F ....|F-5 ...F ....
....|..|R-- .... ....|R-- .... ....|R-- .... ....
....|..|C-3 ...F ....|C-3 ...F ....|C-3 ...F ....
....|..|R-- .... ....|R-- .... ....|R-- .... ....
....|..|G-5 ...F ....|G-5 ...F ....|G-5 ...F ....
....|..|R-- .... ....|R-- .... ....|R-- .... ....
....|..|F-3 ...F ....|F-3 ...F ....|F-3 ...F ....
....|..|R-- .... ....|R-- .... ....|R-- .... ....
....|..|C-6 ...F ....|C-6 ...F ....|C-6 ...F ....
....|..|R-- .... ....|R-- .... ....|R-- .... ....
....|..|C-3 ...F ....|C-3 ...F ....|C-3 ...F ....
....|..|A#5 ...F ....|A#5 ...F ....|A#5 ...F ....
....|..|F-3 ...A ....|F-3 ...A ....|F-3 ...A ....
....|..|R-- .... ....|R-- .... ....|R-- .... ....

[Pattern37]
....|..|E-2 ...F ....|E-2 ...F ....|E-2 ...F ....
....|..|R-- .... ....|R-- .... ....|R-- .... ....
....|..|C-3 ...A ....|C-3 ...A ....|C-3 ...A ....
....|..|R-- .... ....|R-- .... ....|R-- .... ....
....|..|F-5 ...F ....|F-5 ...F ....|F-5 ...F ....
....|..|R-- .... ....|R-- .... ....|R-- .... ....
....|..|E-2 ...A ....|E-2 ...A ....|E-2 ...A ....
....|..|R-- .... ....|R-- .... ....|R-- .... ....
....|..|G-5 ...F ....|G-5 ...F ....|G-5 ...F ....
....|..|R-- .... ....|R-- .... ....|R-- .... ....
....|..|F-5 ...A ....|F-5 ...A ....|F-5 ...A ....
....|..|R-- .... ....|R-- .... ....|R-- .... ....
....|..|D-5 ...F ....|D-5 ...F ....|D-5 ...F ....
....|..|R-- .... ....|R-- .... ....|R-- .... ....
....|..|R-- .... ....|R-- .... ....|R-- .... ....
....|..|R-- .... ....|R-- .... ....|R-- .... ....
....|..|F-5 ...F ....|F-5 ...F ....|F-5 ...F ....
....|..|R-- .... ....|R-- .... ....|R-- .... ....
....|..|G-5 ...F ....|G-5 ...F ....|G-5 ...F ....
....|..|R-- .... ....|R-- .... ....|R-- .... ....
....|..|C-3 ...F ....|C-3 ...F ....|C-3 ...F ....
....|..|R-- .... ....|R-- .... ....|R-- .... ....
....|..|G-5 ...F ....|G-5 ...F ....|G-5 ...F ....
....|..|R-- .... ....|R-- .... ....|R-- .... ....
....|..|E-3 ...F ....|E-3 ...F ....|E-3 ...F ....
....|..|--- .... ....|--- .... ....|--- .... ....
....|..|R-- .... ....|R-- .... ....|R-- .... ....
....|..|R-- .... ....|R-- .... ....|R-- .... ....
....|..|C-3 ...F ....|C-3 ...F ....|C-3 ...F ....
....|..|--- .... ....|--- .... ....|--- .... ....
....|..|E-3 ...A ....|E-3 ...A ....|E-3 ...A ....
....|..|--- .... ....|--- .... ....|--- .... ....
....|..|G-6 ...F ....|G-6 ...F ....|G-6 ...F ....
....|..|R-- .... ....|R-- .... ....|R-- .... ....
....|..|C-3 ...A ....|C-3 ...A ....|C-3 ...A ....
....|..|R-- .... ....|R-- .... ....|R-- .... ....
....|..|G-6 ...F ....|G-6 ...F ....|G-6 ...F ....
....|..|--- .... ....|--- .... ....|--- .... ....
....|..|G-6 ...A ....|G-6 ...A ....|G-6 ...A ....
....|..|R-- .... ....|R-- .... ....|R-- .... ....
....|..|G-5 ...F ....|G-5 ...F ....|G-5 ...F ....
....|..|R-- .... ....|R-- .... ....|R-- .... ....
....|..|G-6 ...A ....|G-6 ...A ....|G-6 ...A ....
....|..|R-- .... ....|R-- .... ....|R-- .... ....
....|..|G-5 ...F ....|G-5 ...F ....|G-5 ...F ....
....|..|R-- .... ....|R-- .... ....|R-- .... ....
....|..|G-5 ...A ....|G-5 ...A ....|G-5 ...A ....
....|..|R-- .... ....|R-- .... ....|R-- .... ....
....|..|G-4 ...F ....|G-4 ...F ....|G-4 ...F ....
....|..|R-- .... ....|R-- .... ....|R-- .... ....
....|..|G-4 ...F ....|G-4 ...F ....|G-4 ...F ....
....|..|R-- .... ....|R-- .... ....|R-- .... ....
....|..|R-- .... ....|R-- .... ....|R-- .... ....
....|..|R-- .... ....|R-- .... ....|R-- .... ....
....|..|G-4 ...F ....|G-4 ...F ....|G-4 ...F ....
....|..|R-- .... ....|R-- .... ....|R-- .... ....
....|..|G-3 ...F ....|G-3 ...F ....|G-3 ...F ....
....|..|R-- .... ....|R-- .... ....|R-- .... ....
....|..|R-- .... ....|R-- .... ....|R-- .... ....
....|..|R-- .... ....|R-- .... ....|R-- .... ....
....|..|G-3 ...F ....|G-3 ...F ....|G-3 ...F ....
....|..|--- .... ....|--- .... ....|--- .... ....
....|..|G-3 ...A ....|G-3 ...A ....|G-3 ...A ....
....|..|R-- .... ....|R-- .... ....|R-- .... ....

[Pattern38]
....|..|C-6 ...F ....|C-6 ...F ....|C-6 ...F ....
....|..|D-6 ...F ....|D-6 ...F ....|D-6 ...F ....
....|..|G-3 ...A ....|G-3 ...A ....|G-3 ...A ....
....|..|--- .... ....|--- .... ....|--- .... ....
....|..|C-6 ...F ....|C-6 ...F ....|C-6 ...F ....
....|..|--- .... ....|--- .... ....|--- .... ....
....|..|C-6 ...A ....|C-6 ...A ....|C-6 ...A ....
....|..|R-- .... ....|R-- .... ....|R-- .... ....
....|..|G-4 ...F ....|G-4 ...F ....|G-4 ...F ....
....|..|--- .... ....|--- .... ....|--- .... ....
....|..|C-6 ...A ....|C-6 ...A ....|C-6 ...A ....
....|..|R-- .... ....|R-- .... ....|R-- .... ....
....|..|G-4 ...F ....|G-4 ...F ....|G-4 ...F ....
....|..|R-- .... ....|R-- .... ....|R-- .... ....
....|..|G-4 ...A ....|G-4 ...A ....|G-4 ...A ....
....|..|R-- .... ....|R-- .... ....|R-- .... ....
....|..|F-5 ...F ....|F-5 ...F ....|F-5 ...F ....
....|..|R-- .... ....|R-- .... ....|R-- .... ....
....|..|G-4 ...A ....|G-4 ...A ....|G-4 ...A ....
....|..|R-- .... ....|R-- .... ....|R-- .... ....
....|..|G-5 ...F ....|G-5 ...F ....|G-5 ...F ....
....|..|R-- .... ....|R-- .... ....|R-- .... ....
....|..|F-5 ...A ....|F-5 ...A ....|F-5 ...A ....
....|..|R-- .... ....|R-- .... ....|R-- .... ....
....|..|F-5 ...F ....|F-5 ...F ....|F-5 ...F ....
....|..|R-- .... ....|R-- .... ....|R-- .... ....
....|..|G-5 ...A ....|G-5 ...A ....|G-5 ...A ....
....|..|R-- .... ....|R-- .... ....|R-- .... ....
....|..|G-5 ...F ....|G-5 ...F ....|G-5 ...F ....
....|..|R-- .... ....|R-- .... ....|R-- .... ....
....|..|F-5 ...A ....|F-5 ...A ....|F-5 ...A ....
....|..|R-- .... ....|R-- .... ....|R-- .... ....
....|..|C-6 ...F ....|C-6 ...F ....|C-6 ...F ....
....|..|R-- .... ....|R-- .... ....|R-- .... ....
....|..|G-5 ...A ....|G-5 ...A ....|G-5 ...A ....
....|..|R-- .... ....|R-- .... ....|R-- .... ....
....|..|A#5 ...F ....|A#5 ...F ....|A#5 ...F ....
....|..|R-- .... ....|R-- .... ....|R-- .... ....
....|..|C-6 ...A ....|C-6 ...A ....|C-6 ...A ....
....|..|R-- .... ....|R-- .... ....|R-- .... ....
....|..|D-5 ...F ....|D-5 ...F ....|D-5 ...F ....
....|..|R-- .... ....|R-- .... ....|R-- .... ....
....|..|A#5 ...A ....|A#5 ...A ....|A#5 ...A ....
....|..|R-- .... ....|R-- .... ....|R-- .... ....
....|..|C-5 ...F ....|C-5 ...F ....|C-5 ...F ....
....|..|R-- .... ....|R-- .... ....|R-- .... ....
....|..|D-5 ...A ....|D-5 ...A ....|D-5 ...A ....
....|..|R-- .... ....|R-- .... ....|R-- .... ....
....|..|A#4 ...F ....|A#4 ...F ....|A#4 ...F ....
....|..|R-- .... ....|R-- .... ....|R-- .... ....
....|..|C-5 ...A ....|C-5 ...A ....|C-5 ...A ....
....|..|R-- .... ....|R-- .... ....|R-- .... ....
....|..|G-4 ...F ....|G-4 ...F ....|G-4 ...F ....
....|..|R-- .... ....|R-- .... ....|R-- .... ....
....|..|A#4 ...A ....|A#4 ...A ....|A#4 ...A ....
....|..|R-- .... ....|R-- .... ....|R-- .... ....
....|..|G-4 ...F ....|G-4 ...F ....|G-4 ...F ....
....|..|R-- .... ....|R-- .... ....|R-- .... ....
....|..|G-4 ...A ....|G-4 ...A ....|G-4 ...A ....
....|..|R-- .... ....|R-- .... ....|R-- .... ....
....|..|G-4 ...F ....|G-4 ...F ....|G-4 ...F ....
....|..|R-- .... ....|R-- .... ....|R-- .... ....
....|..|G-4 ...A ....|G-4 ...A ....|G-4 ...A ....
....|..|R-- .... ....|R-- .... ....|R-- .... ....

[Pattern39]
....|..|G-4 ...F ....|G-4 ...F ....|G-4 ...F ....
....|..|R-- .... ....|R-- .... ....|R-- .... ....
....|..|G-4 ...A ....|G-4 ...A ....|G-4 ...A ....
....|..|R-- .... ....|R-- .... ....|R-- .... ....
....|..|D-4 ...F ....|D-4 ...F ....|D-4 ...F ....
....|..|R-- .... ....|R-- .... ....|R-- .... ....
....|..|G-4 ...A ....|G-4 ...A ....|G-4 ...A ....
....|..|R-- .... ....|R-- .... ....|R-- .... ....
....|..|F-4 ...F ....|F-4 ...F ....|F-4 ...F ....
....|..|R-- .... ....|R-- .... ....|R-- .... ....
....|..|D-4 ...A ....|D-4 ...A ....|D-4 ...A ....
....|..|R-- .... ....|R-- .... ....|R-- .... ....
....|..|D-4 ...F ....|D-4 ...F ....|D-4 ...F ....
....|..|R-- .... ....|R-- .... ....|R-- .... ....
....|..|F-4 ...A ....|F-4 ...A ....|F-4 ...A ....
....|..|R-- .... ....|R-- .... ....|R-- .... ....
....|..|F-4 ...F ....|F-4 ...F ....|F-4 ...F ....
....|..|R-- .... ....|R-- .... ....|R-- .... ....
....|..|G-4 ...F ....|G-4 ...F ....|G-4 ...F ....
....|..|R-- .... ....|R-- .... ....|R-- .... ....
....|..|C-3 ...F ....|C-3 ...F ....|C-3 ...F ....
....|..|R-- .... ....|R-- .... ....|R-- .... ....
....|..|G-4 ...F ....|G-4 ...F ....|G-4 ...F ....
....|..|R-- .... ....|R-- .... ....|R-- .... ....
....|..|E-3 ...F ....|E-3 ...F ....|E-3 ...F ....
....|..|--- .... ....|--- .... ....|--- .... ....
....|..|R-- .... ....|R-- .... ....|R-- .... ....
....|..|R-- .... ....|R-- .... ....|R-- .... ....
....|..|C-3 ...F ....|C-3 ...F ....|C-3 ...F ....
....|..|--- .... ....|--- .... ....|--- .... ....
....|..|E-3 ...A ....|E-3 ...A ....|E-3 ...A ....
....|..|--- .... ....|--- .... ....|--- .... ....
....|..|D-6 ...F ....|D-6 ...F ....|D-6 ...F ....
....|..|R-- .... ....|R-- .... ....|R-- .... ....
....|..|C-3 ...A ....|C-3 ...A ....|C-3 ...A ....
....|..|--- .... ....|--- .... ....|--- .... ....
....|..|A#2 ...F ....|A#2 ...F ....|A#2 ...F ....
....|..|--- .... ....|--- .... ....|--- .... ....
....|..|C-6 ...F ....|C-6 ...F ....|C-6 ...F ....
....|..|--- .... ....|--- .... ....|--- .... ....
....|..|D#3 ...F ....|D#3 ...F ....|D#3 ...F ....
....|..|--- .... ....|--- .... ....|--- .... ....
....|..|A#2 ...A ....|A#2 ...A ....|A#2 ...A ....
....|..|--- .... ....|--- .... ....|--- .... ....
....|..|A#5 ...F ....|A#5 ...F ....|A#5 ...F ....
....|..|--- .... ....|--- .... ....|--- .... ....
....|..|D#3 ...A ....|D#3 ...A ....|D#3 ...A ....
....|..|R-- .... ....|R-- .... ....|R-- .... ....
....|..|A#5 ...F ....|A#5 ...F ....|A#5 ...F ....
....|..|--- .... ....|--- .... ....|--- .... ....
....|..|D-6 ...F ....|D-6 ...F ....|D-6 ...F ....
....|..|--- .... ....|--- .... ....|--- .... ....
....|..|A-2 ...F ....|A-2 ...F ....|A-2 ...F ....
....|..|R-- .... ....|R-- .... ....|R-- .... ....
....|..|C-6 ...F ....|C-6 ...F ....|C-6 ...F ....
....|..|--- .... ....|--- .... ....|--- .... ....
....|..|D-3 ...F ....|D-3 ...F ....|D-3 ...F ....
....|..|R-- .... ....|R-- .... ....|R-- .... ....
....|..|A#5 ...F ....|A#5 ...F ....|A#5 ...F ....
....|..|R-- .... ....|R-- .... ....|R-- .... ....
....|..|G-5 ...F ....|G-5 ...F ....|G-5 ...F ....
....|..|--- .... ....|--- .... ....|--- .... ....
....|..|D-3 ...A ....|D-3 ...A ....|D-3 ...A ....
....|..|R-- .... ....|R-- .... ....|R-- .... ....

[Pattern42]
....|..|D-6 ...F ....|D-6 ...F ....|D-6 ...F ....
....|..|R-- .... ....|R-- .... ....|R-- .... ....
....|..|G-3 ...A ....|G-3 ...A ....|G-3 ...A ....
....|..|R-- .... ....|R-- .... ....|R-- .... ....
....|..|C-6 ...F ....|C-6 ...F ....|C-6 ...F ....
....|..|--- .... ....|--- .... ....|--- .... ....
....|..|D-6 ...A ....|D-6 ...A ....|D-6 ...A ....
....|..|R-- .... ....|R-- .... ....|R-- .... ....
....|..|A#5 ...F ....|A#5 ...F ....|A#5 ...F ....
....|..|R-- .... ....|R-- .... ....|R-- .... ....
....|..|C-6 ...A ....|C-6 ...A ....|C-6 ...A ....
....|..|R-- .... ....|R-- .... ....|R-- .... ....
....|..|G-5 ...F ....|G-5 ...F ....|G-5 ...F ....
....|..|R-- .... ....|R-- .... ....|R-- .... ....
....|..|A#5 ...A ....|A#5 ...A ....|A#5 ...A ....
....|..|R-- .... ....|R-- .... ....|R-- .... ....
....|..|A#3 ...F ....|A#3 ...F ....|A#3 ...F ....
....|..|R-- .... ....|R-- .... ....|R-- .... ....
....|..|G-5 ...A ....|G-5 ...A ....|G-5 ...A ....
....|..|R-- .... ....|R-- .... ....|R-- .... ....
....|..|D-3 ...F ....|D-3 ...F ....|D-3 ...F ....
....|..|R-- .... ....|R-- .... ....|R-- .... ....
....|..|A#3 ...A ....|A#3 ...A ....|A#3 ...A ....
....|..|R-- .... ....|R-- .... ....|R-- .... ....
....|..|G-3 ...F ....|G-3 ...F ....|G-3 ...F ....
....|..|--- .... ....|--- .... ....|--- .... ....
....|..|D-3 ...A ....|D-3 ...A ....|D-3 ...A ....
....|..|R-- .... ....|R-- .... ....|R-- .... ....
....|..|D-3 ...F ....|D-3 ...F ....|D-3 ...F ....
....|..|--- .... ....|--- .... ....|--- .... ....
....|..|G-3 ...A ....|G-3 ...A ....|G-3 ...A ....
....|..|--- .... ....|--- .... ....|--- .... ....
....|..|F-5 ...F ....|F-5 ...F ....|F-5 ...F ....
....|..|--- .... ....|--- .... ....|--- .... ....
....|..|D-3 ...A ....|D-3 ...A ....|D-3 ...A ....
....|..|R-- .... ....|R-- .... ....|R-- .... ....
....|..|G-5 ...F ....|G-5 ...F ....|G-5 ...F ....
....|..|--- .... ....|--- .... ....|--- .... ....
....|..|F-5 ...A ....|F-5 ...A ....|F-5 ...A ....
....|..|R-- .... ....|R-- .... ....|R-- .... ....
....|..|A#5 ...F ....|A#5 ...F ....|A#5 ...F ....
....|..|R-- .... ....|R-- .... ....|R-- .... ....
....|..|G-5 ...A ....|G-5 ...A ....|G-5 ...A ....
....|..|R-- .... ....|R-- .... ....|R-- .... ....
....|..|G-5 ...F ....|G-5 ...F ....|G-5 ...F ....
....|..|R-- .... ....|R-- .... ....|R-- .... ....
....|..|A#5 ...A ....|A#5 ...A ....|A#5 ...A ....
....|..|R-- .... ....|R-- .... ....|R-- .... ....
....|..|A-3 ...F ....|A-3 ...F ....|A-3 ...F ....
....|..|R-- .... ....|R-- .... ....|R-- .... ....
....|..|G-5 ...A ....|G-5 ...A ....|G-5 ...A ....
....|..|R-- .... ....|R-- .... ....|R-- .... ....
....|..|C-3 ...F ....|C-3 ...F ....|C-3 ...F ....
....|..|R-- .... ....|R-- .... ....|R-- .... ....
....|..|A-3 ...A ....|A-3 ...A ....|A-3 ...A ....
....|..|R-- .... ....|R-- .... ....|R-- .... ....
....|..|F-3 ...F ....|F-3 ...F ....|F-3 ...F ....
....|..|--- .... ....|--- .... ....|--- .... ....
....|..|C-3 ...A ....|C-3 ...A ....|C-3 ...A ....
....|..|R-- .... ....|R-- .... ....|R-- .... ....
....|..|C-3 ...F ....|C-3 ...F ....|C-3 ...F ....
....|..|--- .... ....|--- .... ....|--- .... ....
....|..|F-3 ...A ....|F-3 ...A ....|F-3 ...A ....
....|..|--- .... ....|--- .... ....|--- .... ....

[Pattern43]
....|..|D-5 ...F ....|D-5 ...F ....|D-5 ...F ....
....|..|--- .... ....|--- .... ....|--- .... ....
....|..|C-3 ...A ....|C-3 ...A ....|C-3 ...A ....
....|..|R-- .... ....|R-- .... ....|R-- .... ....
....|..|C-5 ...F ....|C-5 ...F ....|C-5 ...F ....
....|..|--- .... ....|--- .... ....|--- .... ....
....|..|D-5 ...A ....|D-5 ...A ....|D-5 ...A ....
....|..|R-- .... ....|R-- .... ....|R-- .... ....
....|..|A#4 ...F ....|A#4 ...F ....|A#4 ...F ....
....|..|R-- .... ....|R-- .... ....|R-- .... ....
....|..|C-5 ...A ....|C-5 ...A ....|C-5 ...A ....
....|..|R-- .... ....|R-- .... ....|R-- .... ....
....|..|G-4 ...F ....|G-4 ...F ....|G-4 ...F ....
....|..|R-- .... ....|R-- .... ....|R-- .... ....
....|..|A#4 ...A ....|A#4 ...A ....|A#4 ...A ....
....|..|R-- .... ....|R-- .... ....|R-- .... ....
....|..|G-3 ...F ....|G-3 ...F ....|G-3 ...F ....
....|..|R-- .... ....|R-- .... ....|R-- .... ....
....|..|G-4 ...A ....|G-4 ...A ....|G-4 ...A ....
....|..|R-- .... ....|R-- .... ....|R-- .... ....
....|..|C-3 ...F ....|C-3 ...F ....|C-3 ...F ....
....|..|R-- .... ....|R-- .... ....|R-- .... ....
....|..|G-3 ...A ....|G-3 ...A ....|G-3 ...A ....
....|..|R-- .... ....|R-- .... ....|R-- .... ....
....|..|E-3 ...F ....|E-3 ...F ....|E-3 ...F ....
....|..|--- .... ....|--- .... ....|--- .... ....
....|..|C-3 ...A ....|C-3 ...A ....|C-3 ...A ....
....|..|R-- .... ....|R-- .... ....|R-- .... ....
....|..|C-3 ...F ....|C-3 ...F ....|C-3 ...F ....
....|..|--- .... ....|--- .... ....|--- .... ....
....|..|E-3 ...A ....|E-3 ...A ....|E-3 ...A ....
....|..|--- .... ....|--- .... ....|--- .... ....
....|..|A#4 ...F ....|A#4 ...F ....|A#4 ...F ....
....|..|--- .... ....|--- .... ....|--- .... ....
....|..|C-3 ...A ....|C-3 ...A ....|C-3 ...A ....
....|..|R-- .... ....|R-- .... ....|R-- .... ....
....|..|A#4 ...F ....|A#4 ...F ....|A#4 ...F ....
....|..|--- .... ....|--- .... ....|--- .... ....
....|..|A#4 ...A ....|A#4 ...A ....|A#4 ...A ....
....|..|R-- .... ....|R-- .... ....|R-- .... ....
....|..|C-5 ...F ....|C-5 ...F ....|C-5 ...F ....
....|..|R-- .... ....|R-- .... ....|R-- .... ....
....|..|A#4 ...A ....|A#4 ...A ....|A#4 ...A ....
....|..|R-- .... ....|R-- .... ....|R-- .... ....
....|..|C-5 ...F ....|C-5 ...F ....|C-5 ...F ....
....|..|R-- .... ....|R-- .... ....|R-- .... ....
....|..|C-5 ...A ....|C-5 ...A ....|C-5 ...A ....
....|..|R-- .... ....|R-- .... ....|R-- .... ....
....|..|G-4 ...F ....|G-4 ...F ....|G-4 ...F ....
....|..|R-- .... ....|R-- .... ....|R-- .... ....
....|..|C-5 ...A ....|C-5 ...A ....|C-5 ...A ....
....|..|R-- .... ....|R-- .... ....|R-- .... ....
....|..|G-4 ...F ....|G-4 ...F ....|G-4 ...F ....
....|..|R-- .... ....|R-- .... ....|R-- .... ....
....|..|G-4 ...A ....|G-4 ...A ....|G-4 ...A ....
....|..|R-- .... ....|R-- .... ....|R-- .... ....
....|..|G-4 ...F ....|G-4 ...F ....|G-4 ...F ....
....|..|R-- .... ....|R-- .... ....|R-- .... ....
....|..|G-4 ...A ....|G-4 ...A ....|G-4 ...A ....
....|..|R-- .... ....|R-- .... ....|R-- .... ....
....|..|G-4 ...F ....|G-4 ...F ....|G-4 ...F ....
....|..|R-- .... ....|R-- .... ....|R-- .... ....
....|..|G-4 ...A ....|G-4 ...A ....|G-4 ...A ....
....|..|R-- .... ....|R-- .... ....|R-- .... ....

[Pattern44]
....|..|D-6 ...F ....|D-6 ...F ....|D-6 ...F ....
....|..|R-- .... ....|R-- .... ....|R-- .... ....
....|..|G-4 ...A ....|G-4 ...A ....|G-4 ...A ....
....|..|R-- .... ....|R-- .... ....|R-- .... ....
....|..|C-6 ...F ....|C-6 ...F ....|C-6 ...F ....
....|..|R-- .... ....|R-- .... ....|R-- .... ....
....|..|D-6 ...A ....|D-6 ...A ....|D-6 ...A ....
....|..|R-- .... ....|R-- .... ....|R-- .... ....
....|..|A#5 ...F ....|A#5 ...F ....|A#5 ...F ....
....|..|R-- .... ....|R-- .... ....|R-- .... ....
....|..|C-6 ...A ....|C-6 ...A ....|C-6 ...A ....
....|..|R-- .... ....|R-- .... ....|R-- .... ....
....|..|G-5 ...F ....|G-5 ...F ....|G-5 ...F ....
....|..|R-- .... ....|R-- .... ....|R-- .... ....
....|..|A#5 ...A ....|A#5 ...A ....|A#5 ...A ....
....|..|R-- .... ....|R-- .... ....|R-- .... ....
....|..|D-5 ...F ....|D-5 ...F ....|D-5 ...F ....
....|..|R-- .... ....|R-- .... ....|R-- .... ....
....|..|G-5 ...A ....|G-5 ...A ....|G-5 ...A ....
....|..|R-- .... ....|R-- .... ....|R-- .... ....
....|..|C-5 ...F ....|C-5 ...F ....|C-5 ...F ....
....|..|R-- .... ....|R-- .... ....|R-- .... ....
....|..|D-5 ...A ....|D-5 ...A ....|D-5 ...A ....
....|..|R-- .... ....|R-- .... ....|R-- .... ....
....|..|A#4 ...F ....|A#4 ...F ....|A#4 ...F ....
....|..|R-- .... ....|R-- .... ....|R-- .... ....
....|..|C-5 ...A ....|C-5 ...A ....|C-5 ...A ....
....|..|R-- .... ....|R-- .... ....|R-- .... ....
....|..|G-4 ...F ....|G-4 ...F ....|G-4 ...F ....
....|..|R-- .... ....|R-- .... ....|R-- .... ....
....|..|A#4 ...A ....|A#4 ...A ....|A#4 ...A ....
....|..|R-- .... ....|R-- .... ....|R-- .... ....
....|..|F-5 ...F ....|F-5 ...F ....|F-5 ...F ....
....|..|R-- .... ....|R-- .... ....|R-- .... ....
....|..|G-4 ...A ....|G-4 ...A ....|G-4 ...A ....
....|..|R-- .... ....|R-- .... ....|R-- .... ....
....|..|G-5 ...F ....|G-5 ...F ....|G-5 ...F ....
....|..|R-- .... ....|R-- .... ....|R-- .... ....
....|..|F-5 ...A ....|F-5 ...A ....|F-5 ...A ....
....|..|R-- .... ....|R-- .... ....|R-- .... ....
....|..|A#5 ...F ....|A#5 ...F ....|A#5 ...F ....
....|..|R-- .... ....|R-- .... ....|R-- .... ....
....|..|G-5 ...A ....|G-5 ...A ....|G-5 ...A ....
....|..|R-- .... ....|R-- .... ....|R-- .... ....
....|..|G-5 ...F ....|G-5 ...F ....|G-5 ...F ....
....|..|R-- .... ....|R-- .... ....|R-- .... ....
....|..|A#5 ...A ....|A#5 ...A ....|A#5 ...A ....
....|..|R-- .... ....|R-- .... ....|R-- .... ....
....|..|F-4 ...F ....|F-4 ...F ....|F-4 ...F ....
....|..|R-- .... ....|R-- .... ....|R-- .... ....
....|..|G-5 ...A ....|G-5 ...A ....|G-5 ...A ....
....|..|R-- .... ....|R-- .... ....|R-- .... ....
....|..|G-4 ...F ....|G-4 ...F ....|G-4 ...F ....
....|..|R-- .... ....|R-- .... ....|R-- .... ....
....|..|F-4 ...A ....|F-4 ...A ....|F-4 ...A ....
....|..|R-- .... ....|R-- .... ....|R-- .... ....
....|..|A#4 ...F ....|A#4 ...F ....|A#4 ...F ....
....|..|R-- .... ....|R-- .... ....|R-- .... ....
....|..|G-4 ...A ....|G-4 ...A ....|G-4 ...A ....
....|..|R-- .... ....|R-- .... ....|R-- .... ....
....|..|G-4 ...F ....|G-4 ...F ....|G-4 ...F ....
....|..|R-- .... ....|R-- .... ....|R-- .... ....
....|..|A#4 ...A ....|A#4 ...A ....|A#4 ...A ....
....|..|R-- .... ....|R-- .... ....|R-- .... ....

[Pattern45]
....|..|D-5 ...F ....|D-5 ...F ....|D-5 ...F ....
....|..|R-- .... ....|R-- .... ....|R-- .... ....
....|..|G-4 ...A ....|G-4 ...A ....|G-4 ...A ....
....|..|R-- .... ....|R-- .... ....|R-- .... ....
....|..|C-5 ...F ....|C-5 ...F ....|C-5 ...F ....
....|..|R-- .... ....|R-- .... ....|R-- .... ....
....|..|D-5 ...A ....|D-5 ...A ....|D-5 ...A ....
....|..|R-- .... ....|R-- .... ....|R-- .... ....
....|..|A#4 ...F ....|A#4 ...F ....|A#4 ...F ....
....|..|R-- .... ....|R-- .... ....|R-- .... ....
....|..|C-5 ...A ....|C-5 ...A ....|C-5 ...A ....
....|..|R-- .... ....|R-- .... ....|R-- .... ....
....|..|G-4 ...F ....|G-4 ...F ....|G-4 ...F ....
....|..|R-- .... ....|R-- .... ....|R-- .... ....
....|..|A#4 ...A ....|A#4 ...A ....|A#4 ...A ....
....|..|R-- .... ....|R-- .... ....|R-- .... ....
....|..|D-6 ...F ....|D-6 ...F ....|D-6 ...F ....
....|..|R-- .... ....|R-- .... ....|R-- .... ....
....|..|G-4 ...A ....|G-4 ...A ....|G-4 ...A ....
....|..|R-- .... ....|R-- .... ....|R-- .... ....
....|..|C-6 ...F ....|C-6 ...F ....|C-6 ...F ....
....|..|R-- .... ....|R-- .... ....|R-- .... ....
....|..|D-6 ...A ....|D-6 ...A ....|D-6 ...A ....
....|..|R-- .... ....|R-- .... ....|R-- .... ....
....|..|A#5 ...F ....|A#5 ...F ....|A#5 ...F ....
....|..|R-- .... ....|R-- .... ....|R-- .... ....
....|..|C-6 ...A ....|C-6 ...A ....|C-6 ...A ....
....|..|R-- .... ....|R-- .... ....|R-- .... ....
....|..|G-5 ...F ....|G-5 ...F ....|G-5 ...F ....
....|..|R-- .... ....|R-- .... ....|R-- .... ....
....|..|A#5 ...A ....|A#5 ...A ....|A#5 ...A ....
....|..|R-- .... ....|R-- .... ....|R-- .... ....
....|..|G-5 ...F ....|G-5 ...F ....|G-5 ...F ....
....|..|R-- .... ....|R-- .... ....|R-- .... ....
....|..|G-5 ...A ....|G-5 ...A ....|G-5 ...A ....
....|..|R-- .... ....|R-- .... ....|R-- .... ....
....|..|G-5 ...F ....|G-5 ...F ....|G-5 ...F ....
....|..|R-- .... ....|R-- .... ....|R-- .... ....
....|..|G-5 ...A ....|G-5 ...A ....|G-5 ...A ....
....|..|R-- .... ....|R-- .... ....|R-- .... ....
....|..|G-5 ...F ....|G-5 ...F ....|G-5 ...F ....
....|..|R-- .... ....|R-- .... ....|R-- .... ....
....|..|G-5 ...A ....|G-5 ...A ....|G-5 ...A ....
....|..|R-- .... ....|R-- .... ....|R-- .... ....
....|..|G-5 ...F ....|G-5 ...F ....|G-5 ...F ....
....|..|R-- .... ....|R-- .... ....|R-- .... ....
....|..|G-5 ...A ....|G-5 ...A ....|G-5 ...A ....
....|..|R-- .... ....|R-- .... ....|R-- .... ....
....|..|G-3 ...F ....|G-3 ...F ....|G-3 ...F ....
....|..|R-- .... ....|R-- .... ....|R-- .... ....
....|..|G-5 ...A ....|G-5 ...A ....|G-5 ...A ....
....|..|R-- .... ....|R-- .... ....|R-- .... ....
....|..|G-3 ...F ....|G-3 ...F ....|G-3 ...F ....
....|..|R-- .... ....|R-- .... ....|R-- .... ....
....|..|G-3 ...A ....|G-3 ...A ....|G-3 ...A ....
....|..|R-- .... ....|R-- .... ....|R-- .... ....
....|..|G-3 ...F ....|G-3 ...F ....|G-3 ...F ....
....|..|R-- .... ....|R-- .... ....|R-- .... ....
....|..|G-3 ...A ....|G-3 ...A ....|G-3 ...A ....
....|..|R-- .... ....|R-- .... ....|R-- .... ....
....|..|G-3 ...F ....|G-3 ...F ....|G-3 ...F ....
....|..|R-- .... ....|R-- .... ....|R-- .... ....
....|..|G-3 ...A ....|G-3 ...A ....|G-3 ...A ....
....|..|R-- .... ....|R-- .... ....|R-- .... ....

[Pattern46]
....|..|R-- .... ....|R-- .... ....|R-- .... ....
....|..|R-- .... ....|R-- .... ....|R-- .... ....
....|..|G-3 ...A ....|G-3 ...A ....|G-3 ...A ....
....|..|R-- .... ....|R-- .... ....|R-- .... ....
....|..|G-3 ...7 ....|G-3 ...7 ....|G-3 ...7 ....
....|..|--- .... ....|--- .... ....|--- .... ....
....|..|R-- .... ....|R-- .... ....|R-- .... ....
....|..|R-- .... ....|R-- .... ....|R-- .... ....
....|..|G-3 ...7 ....|G-3 ...7 ....|G-3 ...7 ....
....|..|--- .... ....|--- .... ....|--- .... ....
....|..|--- .... ....|--- .... ....|--- .... ....
....|..|--- .... ....|--- .... ....|--- .... ....
....|..|R-- .... ....|R-- .... ....|R-- .... ....
