[Module]
VortexTrackerII=0
Version=3.5
Title=1d-2d+-3me,4p[3],4me
Author=oisee ^ 4d 29.05.2010
NoteTable=4
ChipFreq=1750000
Speed=4
PlayOrder=L0,1,2,3,4,5,6,7,8,9,10,11,12,13,14,15,16,17,18,19,20,21,22,23,24,25,26,27,28,29,30,31,32,33,34,35,36,37,38,39,40,41,42,43,44,45,46,47,48,49


[Ornament1]
L0,0,8,8

[Ornament2]
L0,0,5,5

[Ornament3]
L0,0,1,1

[Ornament4]
L0,0,7,7


[Sample1]
TnE +000_ +00_ F_
TnE +000_ +00_ F_
TnE +000_ +00_ F_
TnE +000_ +00_ D_
TnE +000_ +00_ B_
TnE +000_ +00_ B_ L

[Sample2]
TnE +000_ +00_ F_ L

[Sample3]
TnE +001_ +00_ F_
TnE +002_ +00_ F_
TnE +001_ +00_ E_
TnE +002_ +00_ E_
TnE +000_ +00_ E_ L
TnE -001_ +00_ E_
TnE -002_ +00_ E_
TnE -001_ +00_ E_
TnE +000_ +00_ E_
TnE +001_ +00_ E_
TnE +002_ +00_ E_
TnE +001_ +00_ E_

[Sample4]
TnE +002_ +00_ D_
TnE +002_ +00_ D_
TnE +002_ +00_ C_
TnE +002_ +00_ B_
TnE +002_ +00_ A_ L
TnE +002_ +00_ A_
TnE +002_ +00_ A_
TnE +002_ +00_ A_
TnE +002_ +00_ A_
TnE +002_ +00_ A_
TnE +002_ +00_ A_
TnE +002_ +00_ A_

[Sample5]
TnE +000_ +00_ F_
TnE +000_ +00_ F_
tne +000_ +00_ 0_ L

[Sample6]
TnE -001_ +00_ F_ L

[Sample7]
TnE +006_ +00_ F_ L

[Sample8]
tNe +000_ +00_ F_
tNe +000_ +00_ B_
tNe +000_ +00_ 7_
tNe +000_ +00_ 6- L

[Sample9]
TnE +080_ +00_ F_
TnE +100_ +00_ E_
TnE +180_ +00_ E_
TnE +200_ +00_ E_
TnE +240_ +00_ D_
TnE +280_ +00_ D_
TnE +2C0_ +00_ D_
TnE +300_ +00_ C_
TnE +300_ +00_ C_
TnE +340_ +00_ C_
TnE +340_ +00_ C_
TnE +380_ +00_ B_
TnE +380_ +00_ B_
TnE +400_ +00_ B_
TnE +400_ +00_ B_
TnE +480_ +00_ A_
TnE +500_ +00_ 9_
TnE +580_ +00_ 7_
TnE +600_ +00_ 4_
TnE +680_ +00_ 1_
TnE +000_ +00_ 0_ L

[Sample10]
Tne +1C0_ +00_ F_
Tne +280_ +00_ E_
Tne +380_ +00_ C_
Tne +440_ +00_ A_
Tne +480_ +00_ 8_
TnE +000_ +00_ 0_ L

[Sample11]
TNe +200_ -0A_ F_
tNe +000_ +0F_ A_
TNe +200_ -07_ E_
tNe +000_ +0E_ B- L

[Sample12]
TNE +0A0_ +05_ F_
TNE +140_ +02_ D_
TNE +140_ +02_ B_
TNE +100_ +00_ A_ L
TNE +140_ +00_ A_
TNE +200_ +00_ A-

[Sample13]
Tne +200_ +00_ F_
Tne +2C0_ +00_ F_
Tne +380_ +00_ E_
Tne +500_ +00_ C_
Tne +520_ +00_ 9_
tne +000_ +00_ 0_ L

[Sample14]
TNE -100_ +00_ F_
TNE -100_ +00_ D_
TNE -100_ +00_ A_
TNE -100_ +00_ 5_
tne +000_ +00_ 0_ L

[Sample15]
TNE -100_ +00_ 5_
TNE -100_ +00_ 8_
TNE -100_ +00_ B_
TNE -100_ +00_ F_
TNe -100_ +00_ 9- L

[Sample16]
TnE +000_ +00_ C_
TnE +000_ +00_ E_
TnE +000_ +00_ F_
TnE +000_ +00_ F_
TnE +000_ +00_ E_
TnE +000_ +00_ D_
TnE +000_ +00_ C_
TnE +000_ +00_ C_ L
TnE +001_ +00_ C_
TnE +002_ +00_ C_
TnE +003_ +00_ C_
TnE +001_ +00_ C_
TnE +000_ +00_ C_
TnE -001_ +00_ C_
TnE -002_ +00_ C_
TnE -003_ +00_ C_
TnE -001_ +00_ C_
TnE +000_ +00_ C_
TnE +000_ +00_ C_

[Sample17]
Tne +1C0_ +00_ F_
Tne +280_ +00_ D_
Tne +380_ +00_ 7_
TNE +000_ +00_ 0_ L

[Sample18]
TnE -00C_ +00_ 0_ L

[Sample19]
TNe +000_ +00_ F_
TNe +000_ +00_ C_
TNe +000_ +00_ 6_
TNe +000_ +01_ A- L

[Sample20]
TNE +140_ +00_ F_
tNE +000_ +00_ B- L

[Sample21]
tNE +000_ +00_ D_
tNE +000_ +00_ 8_
tNE +000_ +00_ 1_
TNE +000_ +00_ 0_ L

[Sample22]
TnE +000_ +00_ D_ L
TnE +000_ +00_ D_
tne +000_ +00_ 9_
tne +000_ +00_ 9_
TnE +000_ +00_ D_
TnE +000_ +00_ D_
tne +000_ +00_ 9_
tne +000_ +00_ 9_
TnE +000_ +00_ D_
TnE +000_ +00_ D_
TnE +000_ +00_ D_
TnE +000_ +00_ D_
TnE +000_ +00_ D_
TnE +000_ +00_ D_
tne +000_ +00_ 9_
tne +000_ +00_ 9_

[Sample23]
TnE +000_ +00_ F_ L
TnE +010_ +01_ F_
TnE +010_ +01_ F_
TnE +010_ +01_ F_
TnE +010_ +01_ F_
TnE +000_ +00_ F_
TnE +000_ +00_ F_
TnE -010_ -01_ F_
TnE -010_ -01_ F_
TnE -010_ -01_ F_
TnE -010_ -01_ F_
TnE +000_ +00_ F_

[Sample24]
TNe +000_ -01_ C_
TNe +000_ -01_ D_
TNe +000_ -01_ E_
TNe +000_ -01_ F_
TNe +000_ -01_ F_
TNe +000_ -01_ F_
TNe +000_ -01_ F_
TNe +000_ -01_ F_
TNe +000_ -01_ E_
TNe +000_ -01_ E_
TNe +000_ -01_ E_
TNe +000_ -01_ F_
TNe +000_ -01_ F_ L

[Sample25]
TNE +000_ +00_ F_
TNE +000_ +00_ F_ L
TNE +000_ +00_ F_
TNE +000_ +00_ F_
TNE +000_ +00_ F-

[Sample26]
tne +000_ +00_ 0_ L

[Sample27]
TnE +100_ +05_ F_
TnE +200_ +02_ A_
TnE +300_ +02_ 7_
TNE +400_ +00_ 3- L

[Sample28]
tne +000_ +00_ 0_ L

[Sample29]
tnE +000_ +00_ 0_ L

[Sample30]
TNE +000_ +00_ C+ L

[Sample31]
TNe +1C0_ +00_ F_
Tne +280_ +00_ E_
Tne +380_ +00_ C_
Tne +440_ +00_ A_
Tne +480_ +00_ 8_
TnE +000_ +00_ 0_ L

[Pattern0]
 C#4|..|C-4 AF.F ....|C#5 3F.F ....|C#5 2C.F ....
 F#3|..|F#1 2A.F ....|--- .... ....|--- .F.. ....
....|..|R-- .... ....|--- .... ....|--- .... ....
....|..|--- .... ....|--- .... ....|--- .... ....
 B-4|..|C-4 AF.F ....|B-4 3F.F ....|B-4 2C.F ....
 F#3|..|F#1 2A.F ....|--- .... ....|--- .F.. ....
....|..|C-4 AF.A ....|C#5 3F.A ....|C#5 2F.A ....
 C#4|..|C-4 LF.F ....|C#5 3F.F ....|C#5 2C.F ....
....|..|R-- .... ....|--- .... ....|--- .... ....
....|..|--- .... ....|--- .... ....|--- .... ....
 D-4|..|C-4 LF.F ....|D-5 3F.F ....|D-5 2C.F ....
....|..|F#1 2F.A ....|--- .... ....|--- .... ....
....|..|C-4 AF.7 ....|C#5 3F.7 ....|C#5 2F.7 ....
....|..|F#1 2F.7 ....|C#5 3F.A ....|C#5 2F.A ....
 C#4|..|C-5 VF.F ....|C#5 3F.F ....|C#5 2C.F ....
 F#3|..|F#1 2A.F ....|--- .... ....|--- .F.. ....
....|..|C-4 AF.7 ....|B-4 3F.7 ....|B-4 2F.7 ....
 F#3|..|C-4 LF.F ....|F#4 3F.F ....|F#4 2C.F ....
....|..|R-- .... ....|--- .... ....|--- .... ....
....|..|C-4 LF.7 ....|C#5 3F.7 ....|C#5 2F.7 ....
....|..|C-5 VF.A ....|C#5 3F.A ....|C#5 2F.A ....
 G-4|..|C-4 AF.F ....|G-4 3F.F ....|G-4 2C.F ....
 E-3|..|E-1 2A.F ....|D-5 3F.7 ....|D-5 2F.7 ....
....|..|C-4 LF.A ....|F#4 3F.A ....|F#4 2F.A ....
 E-4|..|C-4 AF.F ....|E-4 3F.F ....|E-4 2C.F ....
 E-3|..|E-1 2A.F ....|--- .... ....|--- .... ....
....|..|C-5 VF.7 ....|C#5 3F.7 ....|C#5 2F.7 ....
....|..|F#1 2F.7 ....|G-4 3F.A ....|G-4 2F.A ....
 C#4|..|C-4 LF.F ....|C#4 3F.F ....|C#4 2C.F ....
....|..|C-4 LF.7 ....|F#4 3F.7 ....|F#4 2F.7 ....
....|..|C-4 AF.A ....|E-4 3F.A ....|E-4 2F.A ....
 D-4|..|C-4 LF.F ....|D-4 3F.F ....|D-4 2C.F ....
....|..|R-- .... ....|--- .... ....|--- .... ....
....|..|C-4 AF.7 ....|G-4 3F.7 ....|G-4 2F.7 ....
....|..|E-1 2F.7 ....|C#4 3F.A ....|C#4 2F.A ....
 C#4|..|C-4 LF.F ....|C#4 3F.F ....|C#4 2C.F ....
....|..|C-4 AF.7 ....|E-4 3F.7 ....|E-4 2F.7 ....
....|..|E-1 2F.7 ....|D-4 3F.A ....|D-4 2F.A ....
 B-4|..|C-4 LF.F ....|B-3 3F.F ....|B-3 2C.F ....
....|..|R-- .... ....|--- .... ....|--- .... ....
....|..|C-4 LF.7 ....|C#4 3F.7 ....|C#4 2F.7 ....
....|..|C-4 LF.A ....|C#4 3F.A ....|C#4 2F.A ....
 C#4|..|C-5 VF.F ....|C#4 3F.F ....|C#4 2C.F ....
....|..|C-4 LF.7 ....|D-4 3F.7 ....|D-4 2F.7 ....
....|..|C-4 LF.A ....|B-3 3F.A ....|B-3 2F.A ....
 F#4|..|C-4 LF.F ....|F#3 3F.F ....|F#3 2C.F ....
....|..|R-- .... ....|--- .... ....|--- .... ....
....|..|C-4 LF.7 ....|C#4 3F.7 ....|C#4 2F.7 ....
....|..|C-5 VF.A ....|C#4 3F.A ....|C#4 2F.A ....
 G-4|..|C-4 LF.F ....|G-3 3F.F ....|G-3 2C.F ....
....|..|C-4 LF.7 ....|B-3 3F.7 ....|B-3 2F.7 ....
....|..|C-4 LF.A ....|F#3 3F.A ....|F#3 2F.A ....
 E-4|..|C-4 LF.F ....|E-3 3F.F ....|E-3 2C.F ....
....|..|R-- .... ....|--- .... ....|--- .... ....
....|..|C-5 VF.7 ....|C#4 3F.7 ....|C#4 2F.7 ....
....|..|C-4 LF.A ....|G-3 3F.A ....|G-3 2F.A ....
 F#4|..|C-4 AF.F ....|F#3 3F.F ....|F#3 2C.F ....
 F#3|..|F#1 2A.F ....|F#3 3F.7 ....|F#3 2F.7 ....
....|..|C-4 LF.A ....|E-3 3F.A ....|E-3 2F.A ....
 C#4|..|C-4 AF.F ....|C#3 3F.F ....|C#3 2C.F ....
 F#3|..|F#1 2A.F ....|--- .... ....|--- .F.. ....
....|..|C-4 LF.7 ....|G-3 3F.7 ....|G-3 2F.7 ....
....|..|C-4 AF.A ....|F#3 3F.A ....|F#3 2F.A ....
 D-4|..|C-4 LF.F ....|D-3 3F.F ....|D-3 2C.F ....
....|..|C-4 LF.7 ....|E-3 3F.7 ....|E-3 2F.7 ....
....|..|C-4 AF.A ....|C#3 3F.A ....|C#3 2F.A ....
 E-4|..|C-4 LF.F ....|E-3 3F.F ....|E-3 2C.F ....
....|..|R-- .... ....|--- .... ....|--- .... ....
....|..|C-4 AF.7 ....|F#3 3F.7 ....|F#3 2F.7 ....
....|..|F#1 2F.7 ....|D-3 3F.A ....|D-3 2F.A ....
 D-4|..|C-5 VF.F ....|D-3 3F.F ....|D-3 2C.F ....
 F#3|..|F#1 2A.F ....|C#3 3F.7 ....|C#3 2F.7 ....
....|..|F#1 2F.7 ....|E-3 3F.A ....|E-3 2F.A ....
 C#4|..|C-4 LF.F ....|C#3 3F.F ....|C#3 2C.F ....
....|..|R-- .... ....|--- .... ....|--- .... ....
....|..|C-4 LF.7 ....|D-3 3F.7 ....|D-3 2F.7 ....
....|..|C-5 VF.A ....|D-3 3F.A ....|D-3 2F.A ....
 B-4|..|C-4 AF.F ....|B-2 3F.F ....|B-2 2A.F ....
 E-3|..|E-1 2A.F ....|E-3 3F.7 ....|E-3 2F.7 ....
....|..|C-4 LF.A ....|C#3 3F.A ....|C#3 2F.A ....
 C#4|..|C-4 AF.F ....|C#3 3F.F ....|C#3 2C.F ....
 E-3|..|E-1 2A.F ....|--- .... ....|--- .F.. ....
....|..|C-5 VF.7 ....|D-3 3F.7 ....|D-3 2F.7 ....
....|..|F#1 2F.7 ....|B-2 3F.A ....|B-2 2F.A ....
 B-4|..|C-4 LF.F ....|B-2 3F.F ....|B-2 2A.F ....
....|..|C-4 LF.7 ....|C#3 3F.7 ....|C#3 2F.7 ....
....|..|C-4 AF.A ....|C#3 3F.A ....|C#3 2F.A ....
 G-4|..|C-4 LF.F ....|G-2 3F.F ....|G-2 2A.F ....
....|..|R-- .... ....|--- .... ....|--- .... ....
....|..|C-4 AF.7 ....|B-2 3F.7 ....|B-2 2F.7 ....
....|..|E-1 2F.7 ....|B-2 3F.A ....|B-2 2F.A ....
 F#4|..|C-4 LF.F ....|F#2 3F.F ....|F#2 2A.F ....
....|..|C-4 AF.7 ....|C#3 3F.7 ....|C#3 2F.7 ....
....|..|E-1 2F.7 ....|G-2 3F.A ....|G-2 2F.A ....
 G-4|..|C-4 LF.F ....|G-2 3F.F ....|G-2 2A.F ....
....|..|R-- .... ....|--- .... ....|--- .... ....
....|..|C-4 LF.7 ....|B-2 3F.7 ....|B-2 2F.7 ....
....|..|C-4 LF.A ....|F#2 3F.A ....|F#2 2F.A ....
 A-3|..|C-5 VF.F ....|A-2 3F.F ....|A-2 2C.F ....
 F-3|..|F-1 2A.F ....|G-2 3F.7 ....|G-2 2F.7 ....
....|..|C-4 LF.A ....|G-2 3F.A ....|G-2 2F.A ....
 G-4|..|C-4 AF.F ....|G-2 3F.F ....|G-2 2A.F ....
 G-3|..|G-1 2A.F ....|--- .... ....|--- .... ....
....|..|C-4 LF.7 ....|F#2 3F.7 ....|F#2 2F.7 ....
....|..|C-5 VF.A ....|A-2 3F.A ....|A-2 2F.A ....
 A-3|..|F-1 2F.A ....|A-2 3F.F ....|A-2 2C.F ....
....|..|C-4 LF.7 ....|G-2 3F.7 ....|G-2 2F.7 ....
....|..|C-4 AF.A ....|G-2 3F.A ....|G-2 2F.A ....
 G-4|..|G-1 2F.A ....|G-2 3F.F ....|G-2 2A.F ....
....|..|--- .... ....|--- .... ....|--- .... ....
....|..|C-5 VF.7 ....|A-2 3F.7 ....|A-2 2F.7 ....
....|..|F-1 2F.7 ....|A-2 3F.A ....|A-2 2F.A ....
 F#4|..|C-4 AF.F ....|F#2 3F.F ....|F#2 2A.F ....
 F#3|..|F#1 2A.F ....|G-2 3F.7 ....|G-2 2F.7 ....
....|..|G-1 2F.7 ....|G-2 3F.A ....|G-2 2F.A ....
....|..|C-4 AF.F ....|--- .... ....|--- .... ....
 F#3|..|F#1 2A.F ....|--- .... ....|--- .... ....
....|..|R-- .... ....|A-2 3F.7 ....|A-2 2F.7 ....
....|..|C-4 AF.A ....|F#2 3F.A ....|F#2 2F.A ....
....|..|C-4 LF.F ....|--- .... ....|--- .... ....
....|..|R-- .... ....|G-2 3F.7 ....|G-2 2F.7 ....
....|..|C-4 AF.A ....|--- .... ....|--- .... ....
....|..|C-4 LF.F ....|--- .... ....|--- .... ....
....|..|R-- .... ....|--- .... ....|--- .... ....
....|..|C-4 AF.7 ....|F#2 3F.7 ....|F#2 2F.7 ....
....|..|F#1 2F.7 ....|--- .... ....|--- .... ....
....|..|C-5 VF.F ....|--- .... ....|--- .... ....
 F#3|..|F#1 2A.F ....|--- .... ....|--- .... ....

[Pattern1]
....|..|F#1 2F.7 ....|--- .... ....|--- .... ....
....|..|C-4 LF.F ....|--- .... ....|--- .... ....
....|..|R-- .... ....|--- .... ....|--- .... ....
....|..|C-4 LF.7 ....|--- .... ....|--- .... ....
....|..|C-5 VF.A ....|--- .... ....|--- .... ....
....|..|C-4 AF.F ....|--- .... ....|--- .... ....
 E-3|..|E-1 2A.F ....|--- .... ....|--- .... ....
....|..|C-4 LF.A ....|--- .... ....|--- .... ....
....|..|C-4 AF.F ....|--- .... ....|--- .... ....
 E-3|..|E-1 2A.F ....|--- .... ....|--- .... ....
....|..|C-5 VF.7 ....|--- .... ....|--- .... ....
....|..|F#1 2F.7 ....|--- .... ....|--- .... ....
....|..|C-4 LF.F ....|--- .... ....|--- .... ....
....|..|C-4 LF.7 ....|--- .... ....|--- .... ....
....|..|C-4 AF.A ....|--- .... ....|--- .... ....
....|..|C-4 LF.F ....|--- .... ....|--- .... ....
....|..|R-- .... ....|--- .... ....|--- .... ....
....|..|C-4 AF.7 ....|--- .... ....|--- .... ....
....|..|E-1 2F.7 ....|--- .... ....|--- .... ....
....|..|C-4 LF.F ....|--- .... ....|--- .... ....
....|..|C-4 AF.7 ....|--- .... ....|--- .... ....
....|..|E-1 2F.7 ....|--- .... ....|--- .... ....
....|..|C-4 LF.F ....|--- .... ....|--- .... ....
....|..|R-- .... ....|--- .... ....|--- .... ....
....|..|C-4 LF.7 ....|--- .... ....|--- .... ....
....|..|C-4 LF.A ....|--- .... ....|--- .... ....
....|..|C-5 VF.F ....|--- .... ....|--- .... ....
....|..|C-4 LF.7 ....|--- .... ....|--- .... ....
....|..|C-4 LF.A ....|--- .... ....|--- .... ....
....|..|C-4 LF.F ....|--- .... ....|--- .... ....
....|..|R-- .... ....|--- .... ....|--- .... ....
....|..|C-4 LF.7 ....|--- .... ....|--- .... ....
....|..|C-5 VF.A ....|--- .... ....|--- .... ....
....|..|C-4 LF.F ....|R-- .... ....|R-- .... ....
....|..|C-4 LF.7 ....|--- .... ....|--- .... ....
....|..|C-4 LF.A ....|--- .... ....|--- .... ....
 F#4|..|C-4 LF.F ....|F#3 3F.F ....|F#3 2C.F ....
....|..|R-- .... ....|--- .... ....|--- .... ....
 F#3|..|C-5 VF.7 ....|F#4 3F.F ....|F#4 2C.F ....
....|..|C-4 LF.A ....|R-- .... ....|R-- .... ....
 F#3|..|C-4 AF.F ....|F#5 3F.F ....|F#5 2C.F ....
 F#3|..|F#1 2A.F ....|--- .... ....|--- .... ....
....|..|C-4 LF.A ....|F#3 3F.A ....|F#3 2F.A ....
....|..|C-4 AF.F ....|--- .... ....|--- .... ....
 F#3|..|F#1 2A.F ....|F#4 3F.A ....|F#4 2F.A ....
....|..|C-4 LF.7 ....|R-- .... ....|R-- .... ....
....|..|C-4 AF.A ....|F#5 3F.A ....|F#5 2F.A ....
....|..|C-4 LF.F ....|--- .... ....|--- .... ....
....|..|C-4 LF.7 ....|F#3 3F.7 ....|F#3 2F.7 ....
....|..|C-4 AF.A ....|--- .... ....|--- .... ....
....|..|C-4 LF.F ....|F#4 3F.7 ....|F#4 2F.7 ....
....|..|R-- .... ....|--- .... ....|--- .... ....
....|..|C-4 AF.7 ....|F#5 3F.7 ....|F#5 2F.7 ....
....|..|F#1 2F.7 ....|--- .... ....|--- .... ....
....|..|C-5 VF.F ....|R-- .... ....|R-- .... ....
 F#3|..|F#1 2A.F ....|--- .... ....|--- .... ....
....|..|F#1 2F.7 ....|--- .... ....|--- .... ....
....|..|C-4 LF.F ....|--- .... ....|--- .... ....
....|..|R-- .... ....|--- .... ....|--- .... ....
....|..|C-4 LF.7 ....|--- .... ....|--- .... ....
....|..|C-5 VF.A ....|--- .... ....|--- .... ....
....|..|C-4 AF.F ....|--- .... ....|--- .... ....
 E-3|..|E-1 2A.F ....|--- .... ....|--- .... ....
....|..|C-4 LF.A ....|--- .... ....|--- .... ....
....|..|C-4 AF.F ....|--- .... ....|--- .... ....
 E-3|..|E-1 2A.F ....|--- .... ....|--- .... ....
....|..|C-5 VF.7 ....|--- .... ....|--- .... ....
....|..|F#1 2F.7 ....|--- .... ....|--- .... ....
....|..|C-4 LF.F ....|--- .... ....|--- .... ....
....|..|C-4 LF.7 ....|--- .... ....|--- .... ....
....|..|C-4 AF.A ....|--- .... ....|--- .... ....
....|..|C-4 LF.F ....|--- .... ....|--- .... ....
....|..|R-- .... ....|--- .... ....|--- .... ....
....|..|C-4 AF.7 ....|--- .... ....|--- .... ....
....|..|E-1 2F.7 ....|--- .... ....|--- .... ....
....|..|C-4 LF.F ....|--- .... ....|--- .... ....
....|..|C-4 AF.7 ....|--- .... ....|--- .... ....
....|..|E-1 2F.7 ....|--- .... ....|--- .... ....
....|..|C-4 LF.F ....|--- .... ....|--- .... ....
....|..|R-- .... ....|--- .... ....|--- .... ....
....|..|C-4 LF.7 ....|--- .... ....|--- .... ....
....|..|C-4 LF.A ....|--- .... ....|--- .... ....
....|..|C-5 VF.F ....|--- .... ....|--- .... ....
 F-3|..|F-1 2A.F ....|--- .... ....|--- .... ....
....|..|C-4 LF.A ....|--- .... ....|--- .... ....
....|..|C-4 AF.F ....|--- .... ....|--- .... ....
 G-3|..|G-1 2A.F ....|--- .... ....|--- .... ....
....|..|C-4 LF.7 ....|--- .... ....|--- .... ....
....|..|C-5 VF.A ....|--- .... ....|--- .... ....
....|..|F-1 2F.A ....|--- .... ....|--- .... ....
....|..|C-4 LF.7 ....|--- .... ....|--- .... ....
....|..|C-4 AF.A ....|--- .... ....|--- .... ....
....|..|G-1 2F.A ....|--- .... ....|--- .... ....
....|..|--- .... ....|--- .... ....|--- .... ....
....|..|C-5 VF.7 ....|--- .... ....|--- .... ....
....|..|F-1 2F.7 ....|--- .... ....|--- .... ....
....|..|C-4 AF.F ....|--- .... ....|--- .... ....
 F#3|..|F#1 2A.F ....|--- .... ....|--- .... ....
....|..|G-1 2F.7 ....|--- .... ....|--- .... ....
....|..|C-4 AF.F ....|--- .... ....|--- .... ....
 F#3|..|F#1 2A.F ....|--- .... ....|--- .... ....
....|..|R-- .... ....|--- .... ....|--- .... ....
....|..|C-4 AF.A ....|--- .... ....|--- .... ....
....|..|C-4 LF.F ....|--- .... ....|--- .... ....
....|..|R-- .... ....|--- .... ....|--- .... ....
....|..|C-4 AF.A ....|--- .... ....|--- .... ....
....|..|C-4 LF.F ....|--- .... ....|--- .... ....
....|..|R-- .... ....|--- .... ....|--- .... ....
....|..|C-4 AF.7 ....|--- .... ....|--- .... ....
....|..|F#1 2F.7 ....|--- .... ....|--- .... ....
....|..|C-5 VF.F ....|--- .... ....|--- .... ....
 F#3|..|F#1 2A.F ....|--- .... ....|--- .... ....
....|..|F#1 2F.7 ....|--- .... ....|--- .... ....
....|..|C-4 LF.F ....|--- .... ....|--- .... ....
....|..|R-- .... ....|--- .... ....|--- .... ....
....|..|C-4 LF.7 ....|--- .... ....|--- .... ....
....|..|C-5 VF.A ....|--- .... ....|--- .... ....
....|..|C-4 AF.F ....|--- .... ....|--- .... ....
 E-3|..|E-1 2A.F ....|--- .... ....|--- .... ....
....|..|C-4 LF.A ....|--- .... ....|--- .... ....
....|..|C-4 AF.F ....|--- .... ....|--- .... ....
 E-3|..|E-1 2A.F ....|--- .... ....|--- .... ....
....|..|C-5 VF.7 ....|--- .... ....|--- .... ....
....|..|F#1 2F.7 ....|--- .... ....|--- .... ....
....|..|C-4 LF.F ....|--- .... ....|--- .... ....
....|..|C-4 LF.7 ....|--- .... ....|--- .... ....
....|..|C-4 AF.A ....|--- .... ....|--- .... ....
....|..|C-4 LF.F ....|--- .... ....|--- .... ....

[Pattern2]
....|..|R-- .... ....|--- .... ....|--- .... ....
....|..|C-4 AF.7 ....|--- .... ....|--- .... ....
....|..|E-1 2F.7 ....|--- .... ....|--- .... ....
....|..|C-4 LF.F ....|--- .... ....|--- .... ....
....|..|C-4 AF.7 ....|--- .... ....|--- .... ....
....|..|E-1 2F.7 ....|--- .... ....|--- .... ....
....|..|C-4 LF.F ....|--- .... ....|--- .... ....
....|..|R-- .... ....|--- .... ....|--- .... ....
....|..|C-4 LF.7 ....|--- .... ....|--- .... ....
....|..|C-4 LF.A ....|--- .... ....|--- .... ....
....|..|C-5 VF.F ....|--- .... ....|--- .... ....
....|..|C-4 LF.7 ....|--- .... ....|--- .... ....
....|..|C-4 LF.A ....|--- .... ....|--- .... ....
....|..|C-4 LF.F ....|--- .... ....|--- .... ....
....|..|R-- .... ....|--- .... ....|--- .... ....
....|..|C-4 LF.7 ....|--- .... ....|--- .... ....
....|..|C-5 VF.A ....|--- .... ....|--- .... ....
....|..|C-4 LF.F ....|--- .... ....|--- .... ....
....|..|C-4 LF.7 ....|--- .... ....|--- .... ....
....|..|C-4 LF.A ....|--- .... ....|--- .... ....
....|..|C-4 LF.F ....|--- .... ....|--- .... ....
....|..|R-- .... ....|--- .... ....|--- .... ....
....|..|C-5 VF.7 ....|--- .... ....|--- .... ....
....|..|C-4 LF.A ....|--- .... ....|--- .... ....
....|..|C-4 AF.F ....|--- .... ....|--- .... ....
 F#3|..|F#1 2A.F ....|--- .... ....|--- .... ....
....|..|C-4 LF.A ....|--- .... ....|--- .... ....
....|..|C-4 AF.F ....|--- .... ....|--- .... ....
 F#3|..|F#1 2A.F ....|--- .... ....|--- .... ....
....|..|C-4 LF.7 ....|--- .... ....|--- .... ....
....|..|C-4 AF.A ....|--- .... ....|--- .... ....
....|..|C-4 LF.F ....|--- .... ....|--- .... ....
....|..|C-4 LF.7 ....|--- .... ....|--- .... ....
....|..|C-4 AF.A ....|--- .... ....|--- .... ....
....|..|C-4 LF.F ....|--- .... ....|--- .... ....
....|..|R-- .... ....|--- .... ....|--- .... ....
....|..|C-4 AF.7 ....|--- .... ....|--- .... ....
....|..|F#1 2F.7 ....|--- .... ....|--- .... ....
....|..|C-5 VF.F ....|--- .... ....|--- .... ....
 F#3|..|F#1 2A.F ....|--- .... ....|--- .... ....
....|..|F#1 2F.7 ....|--- .... ....|--- .... ....
....|..|C-4 LF.F ....|--- .... ....|--- .... ....
....|..|R-- .... ....|--- .... ....|--- .... ....
....|..|C-4 LF.7 ....|--- .... ....|--- .... ....
....|..|C-5 VF.A ....|--- .... ....|--- .... ....
....|..|C-4 AF.F ....|--- .... ....|--- .... ....
 E-3|..|E-1 2A.F ....|--- .... ....|--- .... ....
....|..|C-4 LF.A ....|--- .... ....|--- .... ....
....|..|C-4 AF.F ....|--- .... ....|--- .... ....
 E-3|..|E-1 2A.F ....|--- .... ....|--- .... ....
....|..|C-5 VF.7 ....|--- .... ....|--- .... ....
....|..|F#1 2F.7 ....|--- .... ....|--- .... ....
....|..|C-4 LF.F ....|--- .... ....|--- .... ....
....|..|C-4 LF.7 ....|--- .... ....|--- .... ....
....|..|C-4 AF.A ....|--- .... ....|--- .... ....
....|..|C-4 LF.F ....|--- .... ....|--- .... ....
....|..|R-- .... ....|--- .... ....|--- .... ....
....|..|C-4 AF.7 ....|--- .... ....|--- .... ....
....|..|E-1 2F.7 ....|--- .... ....|--- .... ....
....|..|C-4 LF.F ....|--- .... ....|--- .... ....
....|..|C-4 AF.7 ....|--- .... ....|--- .... ....
....|..|E-1 2F.7 ....|--- .... ....|--- .... ....
....|..|C-4 LF.F ....|--- .... ....|--- .... ....
....|..|R-- .... ....|--- .... ....|--- .... ....
....|..|C-4 LF.7 ....|--- .... ....|--- .... ....
....|..|C-4 LF.A ....|--- .... ....|--- .... ....
....|..|C-5 VF.F ....|--- .... ....|--- .... ....
 F-3|..|F-1 2A.F ....|--- .... ....|--- .... ....
....|..|C-4 LF.A ....|--- .... ....|--- .... ....
....|..|C-4 AF.F ....|--- .... ....|--- .... ....
 G-3|..|G-1 2A.F ....|--- .... ....|--- .... ....
....|..|C-4 LF.7 ....|--- .... ....|--- .... ....
....|..|C-5 VF.A ....|--- .... ....|--- .... ....
....|..|F-1 2F.A ....|--- .... ....|--- .... ....
....|..|C-4 LF.7 ....|--- .... ....|--- .... ....
....|..|C-4 AF.A ....|--- .... ....|--- .... ....
....|..|G-1 2F.A ....|--- .... ....|--- .... ....
....|..|--- .... ....|--- .... ....|--- .... ....
....|..|C-5 VF.7 ....|--- .... ....|--- .... ....
....|..|F-1 2F.7 ....|--- .... ....|--- .... ....
....|..|C-4 AF.F ....|--- .... ....|--- .... ....
 F#3|..|F#1 2A.F ....|--- .... ....|--- .... ....
....|..|G-1 2F.7 ....|--- .... ....|--- .... ....
....|..|C-4 AF.F ....|--- .... ....|--- .... ....
 F#3|..|F#1 2A.F ....|--- .... ....|--- .... ....
....|..|R-- .... ....|--- .... ....|--- .... ....
....|..|C-4 AF.A ....|--- .... ....|--- .... ....
....|..|C-4 LF.F ....|--- .... ....|--- .... ....
....|..|R-- .... ....|--- .... ....|--- .... ....
....|..|C-4 AF.A ....|--- .... ....|--- .... ....
....|..|C-4 LF.F ....|--- .... ....|--- .... ....
....|..|R-- .... ....|--- .... ....|--- .... ....
....|..|C-4 AF.7 ....|--- .... ....|--- .... ....
....|..|F#1 2F.7 ....|--- .... ....|--- .... ....
....|..|C-5 VF.F ....|--- .... ....|--- .... ....
 F#3|..|F#1 2A.F ....|--- .... ....|--- .... ....
....|..|F#1 2F.7 ....|--- .... ....|--- .... ....
....|..|C-4 LF.F ....|--- .... ....|--- .... ....
....|..|R-- .... ....|--- .... ....|--- .... ....
....|..|C-4 LF.7 ....|--- .... ....|--- .... ....
....|..|C-5 VF.A ....|--- .... ....|--- .... ....
....|..|C-4 AF.F ....|--- .... ....|--- .... ....
 E-3|..|E-1 2A.F ....|--- .... ....|--- .... ....
....|..|C-4 LF.A ....|--- .... ....|--- .... ....
....|..|C-4 AF.F ....|--- .... ....|--- .... ....
 E-3|..|E-1 2A.F ....|--- .... ....|--- .... ....
....|..|C-5 VF.7 ....|--- .... ....|--- .... ....
....|..|F#1 2F.7 ....|--- .... ....|--- .... ....
....|..|C-4 LF.F ....|--- .... ....|--- .... ....
....|..|C-4 LF.7 ....|--- .... ....|--- .... ....
....|..|C-4 AF.A ....|--- .... ....|--- .... ....
....|..|C-4 LF.F ....|--- .... ....|--- .... ....
....|..|R-- .... ....|--- .... ....|--- .... ....
....|..|C-4 AF.7 ....|--- .... ....|--- .... ....
....|..|E-1 2F.7 ....|--- .... ....|--- .... ....
....|..|C-4 LF.F ....|--- .... ....|--- .... ....
....|..|C-4 AF.7 ....|--- .... ....|--- .... ....
....|..|E-1 2F.7 ....|--- .... ....|--- .... ....
....|..|C-4 LF.F ....|--- .... ....|--- .... ....
....|..|R-- .... ....|--- .... ....|--- .... ....
....|..|C-4 LF.7 ....|--- .... ....|--- .... ....
....|..|C-4 LF.A ....|--- .... ....|--- .... ....
....|..|C-5 VF.F ....|--- .... ....|--- .... ....
....|..|C-4 LF.7 ....|--- .... ....|--- .... ....
....|..|C-4 LF.A ....|--- .... ....|--- .... ....
....|..|C-4 LF.F ....|--- .... ....|--- .... ....
....|..|R-- .... ....|--- .... ....|--- .... ....
....|..|C-4 LF.7 ....|--- .... ....|--- .... ....

[Pattern3]
....|..|C-5 VF.A ....|--- .... ....|--- .... ....
....|..|C-4 LF.F ....|--- .... ....|--- .... ....
....|..|C-4 LF.7 ....|--- .... ....|--- .... ....
....|..|C-4 LF.A ....|--- .... ....|--- .... ....
....|..|C-4 LF.F ....|--- .... ....|--- .... ....
....|..|R-- .... ....|--- .... ....|--- .... ....
....|..|C-5 VF.7 ....|--- .... ....|--- .... ....
....|..|C-4 LF.A ....|--- .... ....|--- .... ....
....|..|C-4 AF.F ....|--- .... ....|--- .... ....
 F#3|..|F#1 2A.F ....|--- .... ....|--- .... ....
....|..|C-4 LF.A ....|--- .... ....|--- .... ....
....|..|C-4 AF.F ....|--- .... ....|--- .... ....
 F#3|..|F#1 2A.F ....|--- .... ....|--- .... ....
....|..|C-4 LF.7 ....|--- .... ....|--- .... ....
....|..|C-4 AF.A ....|--- .... ....|--- .... ....
....|..|C-4 LF.F ....|--- .... ....|--- .... ....
....|..|C-4 LF.7 ....|--- .... ....|--- .... ....
....|..|C-4 AF.A ....|--- .... ....|--- .... ....
....|..|C-4 LF.F ....|--- .... ....|--- .... ....
....|..|R-- .... ....|--- .... ....|--- .... ....
....|..|C-4 AF.7 ....|--- .... ....|--- .... ....
....|..|F#1 2F.7 ....|--- .... ....|--- .... ....
....|..|C-5 VF.F ....|--- .... ....|--- .... ....
 F#3|..|F#1 2A.F ....|--- .... ....|--- .... ....
....|..|F#1 2F.7 ....|--- .... ....|--- .... ....
....|..|C-4 LF.F ....|--- .... ....|--- .... ....
....|..|R-- .... ....|--- .... ....|--- .... ....
....|..|C-4 LF.7 ....|--- .... ....|--- .... ....
....|..|C-5 VF.A ....|--- .... ....|--- .... ....
....|..|C-4 AF.F ....|--- .... ....|--- .... ....
 E-3|..|E-1 2A.F ....|--- .... ....|--- .... ....
....|..|C-4 LF.A ....|--- .... ....|--- .... ....
....|..|C-4 AF.F ....|--- .... ....|--- .... ....
 E-3|..|E-1 2A.F ....|--- .... ....|--- .... ....
....|..|C-5 VF.7 ....|--- .... ....|--- .... ....
....|..|F#1 2F.7 ....|--- .... ....|--- .... ....
 C#4|..|C-4 LF.F ....|C#3 3F.F ....|C#3 2C.F ....
....|..|C-4 LF.7 ....|--- .... ....|--- .... ....
....|..|C-4 AF.A ....|--- .... ....|--- .... ....
 D-4|..|C-5 VF.F ....|D-3 3F.F ....|D-3 2C.F ....
....|..|R-- .... ....|--- .... ....|--- .... ....
....|..|C-4 AF.7 ....|--- .... ....|--- .... ....
....|..|E-1 2F.7 ....|C#3 3F.A ....|C#3 2F.A ....
 C#4|..|C-5 VF.F ....|C#4 3F.F ....|C#4 2C.F ....
....|..|C-4 AF.7 ....|--- .... ....|--- .... ....
....|..|E-1 2F.7 ....|D-3 3F.A ....|D-3 2F.A ....
 D-4|..|C-4 AF.F ....|D-4 3F.F ....|D-4 2C.F ....
....|..|R-- .... ....|--- .... ....|--- .... ....
....|..|C-4 LF.7 ....|C#3 3F.7 ....|C#3 2F.7 ....
....|..|C-5 VF.A ....|C#4 3F.A ....|C#4 2F.A ....
 C#4|..|C-5 VF.F ....|C#5 3F.F ....|C#5 2C.F ....
 F-3|..|F-1 2A.F ....|D-3 3F.7 ....|D-3 2F.7 ....
....|..|C-4 AF.A ....|D-4 3F.A ....|D-4 2F.A ....
 D-4|..|C-4 AF.F ....|D-5 3F.F ....|D-5 2C.F ....
 G-3|..|G-1 2A.F ....|--- .... ....|--- .F.. ....
....|..|C-5 VF.7 ....|C#4 3F.7 ....|C#4 2F.7 ....
....|..|C-5 VF.A ....|C#5 3F.A ....|C#5 2F.A ....
 C#4|..|C-5 VF.F ....|C#6 3F.F ....|C#6 2C.F ....
....|..|C-4 AF.7 ....|D-4 3F.7 ....|D-4 2F.7 ....
....|..|C-4 AF.A ....|D-5 3F.A ....|D-5 2F.A ....
 D-4|..|C-4 AF.F ....|D-6 3F.F ....|D-6 2C.F ....
....|..|R-- .... ....|--- .... ....|--- .... ....
....|..|C-5 VF.7 ....|C#5 3F.7 ....|C#5 2F.7 ....
....|..|F-1 2F.7 ....|C#6 3F.A ....|C#6 2F.A ....
 F#3|..|C-4 AF.F ....|F#4 3F.F ....|F#4 2C.F ....
 F#3|..|F#1 2A.F ....|D-5 3F.7 ....|D-5 2F.7 ....
....|..|G-1 2F.7 ....|D-6 3F.A ....|D-6 2F.A ....
....|..|C-4 AF.F ....|--- .... ....|--- .... ....
 F#3|..|F#1 2A.F ....|--- .... ....|--- .... ....
....|..|C-5 VF.7 ....|C#6 3F.7 ....|C#6 2F.7 ....
....|..|C-4 AF.A ....|F#4 3F.A ....|F#4 2F.A ....
....|..|C-4 LF.F ....|--- .... ....|--- .... ....
....|..|C-4 AF.7 ....|D-6 3F.7 ....|D-6 2F.7 ....
....|..|C-4 AF.A ....|--- .... ....|--- .... ....
....|..|C-4 LF.F ....|--- .... ....|--- .... ....
....|..|R-- .... ....|--- .... ....|--- .... ....
....|..|C-4 AF.7 ....|F#4 3F.7 ....|F#4 2F.7 ....
....|..|F#1 2F.7 ....|--- .... ....|--- .... ....
....|..|C-5 VF.F ....|--- .... ....|--- .... ....
 F#3|..|F#1 2A.F ....|--- .... ....|--- .... ....
....|..|F#1 2F.7 ....|--- .... ....|--- .... ....
....|..|C-4 LF.F ....|--- .... ....|--- .... ....
....|..|R-- .... ....|--- .... ....|--- .... ....
....|..|C-4 LF.7 ....|--- .... ....|--- .... ....
....|..|C-5 VF.A ....|--- .... ....|--- .... ....
 C#4|..|C-4 AF.F ....|C#4 3F.F ....|C#4 2C.F ....
 E-3|..|E-1 2A.F ....|--- .... ....|--- .F.. ....
....|..|C-4 LF.A ....|--- .... ....|--- .... ....
....|..|C-4 AF.F ....|--- .... ....|--- .... ....
 E-3|..|E-1 2A.F ....|--- .... ....|--- .... ....
....|..|C-5 VF.7 ....|--- .... ....|--- .... ....
....|..|F#1 2F.7 ....|C#4 3F.A ....|C#4 2F.A ....
....|..|C-4 LF.F ....|--- .... ....|--- .... ....
....|..|C-4 LF.7 ....|--- .... ....|--- .... ....
....|..|C-4 AF.A ....|--- .... ....|--- .... ....
....|..|C-4 LF.F ....|--- .... ....|--- .... ....
....|..|R-- .... ....|--- .... ....|--- .... ....
....|..|C-4 AF.7 ....|C#4 3F.7 ....|C#4 2F.7 ....
....|..|E-1 2F.7 ....|--- .... ....|--- .... ....
....|..|C-4 LF.F ....|--- .... ....|--- .... ....
....|..|C-4 AF.7 ....|--- .... ....|--- .... ....
....|..|E-1 2F.7 ....|--- .... ....|--- .... ....
....|..|C-4 LF.F ....|--- .... ....|--- .... ....
....|..|R-- .... ....|--- .... ....|--- .... ....
....|..|C-4 LF.7 ....|--- .... ....|--- .... ....
....|..|C-4 LF.A ....|--- .... ....|--- .... ....
 D-4|..|C-5 VF.F ....|D-4 3F.F ....|D-4 2C.F ....
....|..|C-4 LF.7 ....|--- .... ....|--- .... ....
....|..|C-4 LF.A ....|--- .... ....|--- .... ....
....|..|C-4 LF.F ....|--- .... ....|--- .... ....
....|..|R-- .... ....|--- .... ....|--- .... ....
....|..|C-4 LF.7 ....|--- .... ....|--- .... ....
....|..|C-5 VF.A ....|D-4 3F.A ....|D-4 2F.A ....
....|..|C-4 LF.F ....|--- .... ....|--- .... ....
....|..|C-4 LF.7 ....|--- .... ....|--- .... ....
....|..|C-4 LF.A ....|--- .... ....|--- .... ....
....|..|C-4 LF.F ....|--- .... ....|--- .... ....
....|..|R-- .... ....|--- .... ....|--- .... ....
....|..|C-5 VF.7 ....|D-4 3F.7 ....|D-4 2F.7 ....
....|..|C-4 LF.A ....|--- .... ....|--- .... ....
....|..|C-4 AF.F ....|--- .... ....|--- .... ....
 F#3|..|F#1 2A.F ....|--- .... ....|--- .... ....
....|..|C-4 LF.A ....|--- .... ....|--- .... ....
....|..|C-4 AF.F ....|--- .... ....|--- .... ....
 F#3|..|F#1 2A.F ....|--- .... ....|--- .... ....
....|..|C-4 LF.7 ....|--- .... ....|--- .... ....
....|..|C-4 AF.A ....|--- .... ....|--- .... ....
 B-4|..|C-4 LF.F ....|B-3 3F.F ....|B-3 2C.F ....

[Pattern4]
....|..|C-4 LF.7 ....|--- .... ....|--- .... ....
....|..|C-4 AF.A ....|--- .... ....|--- .... ....
....|..|C-4 LF.F ....|--- .... ....|--- .... ....
....|..|R-- .... ....|--- .... ....|--- .... ....
....|..|C-4 AF.7 ....|--- .... ....|--- .... ....
....|..|F#1 2F.7 ....|B-3 3F.A ....|B-3 2F.A ....
....|..|C-5 VF.F ....|--- .... ....|--- .... ....
 F#3|..|F#1 2A.F ....|--- .... ....|--- .... ....
....|..|F#1 2F.7 ....|--- .... ....|--- .... ....
....|..|C-4 LF.F ....|--- .... ....|--- .... ....
....|..|R-- .... ....|--- .... ....|--- .... ....
....|..|C-4 LF.7 ....|B-3 3F.7 ....|B-3 2F.7 ....
....|..|C-5 VF.A ....|--- .... ....|--- .... ....
....|..|C-4 AF.F ....|--- .... ....|--- .... ....
 E-3|..|E-1 2A.F ....|--- .... ....|--- .... ....
....|..|C-4 LF.A ....|--- .... ....|--- .... ....
....|..|C-4 AF.F ....|--- .... ....|--- .... ....
 E-3|..|E-1 2A.F ....|--- .... ....|--- .... ....
....|..|C-5 VF.7 ....|--- .... ....|--- .... ....
....|..|F#1 2F.7 ....|--- .... ....|--- .... ....
 C#4|..|C-4 LF.F ....|C#4 3F.F ....|C#4 2C.F ....
....|..|C-4 LF.7 ....|--- .... ....|--- .... ....
....|..|C-4 AF.A ....|--- .... ....|--- .... ....
....|..|C-4 LF.F ....|--- .... ....|--- .... ....
....|..|R-- .... ....|--- .... ....|--- .... ....
....|..|C-4 AF.7 ....|--- .... ....|--- .... ....
....|..|E-1 2F.7 ....|C#4 3F.A ....|C#4 2F.A ....
....|..|C-4 LF.F ....|--- .... ....|--- .... ....
....|..|C-4 AF.7 ....|--- .... ....|--- .... ....
....|..|E-1 2F.7 ....|--- .... ....|--- .... ....
....|..|C-4 LF.F ....|--- .... ....|--- .... ....
....|..|R-- .... ....|--- .... ....|--- .... ....
....|..|C-4 LF.7 ....|C#4 3F.7 ....|C#4 2F.7 ....
....|..|C-4 LF.A ....|--- .... ....|--- .... ....
 F#3|..|C-5 VF.F ....|F#4 3F.F ....|F#4 2C.F ....
 F-3|..|F-1 2A.F ....|--- .... ....|--- .F.. ....
....|..|C-4 LF.A ....|--- .... ....|--- .... ....
....|..|C-4 AF.F ....|--- .... ....|--- .... ....
 G-3|..|G-1 2A.F ....|--- .... ....|--- .F.. ....
....|..|C-4 LF.7 ....|--- .... ....|--- .... ....
....|..|C-5 VF.A ....|F#4 3F.A ....|F#4 2F.A ....
....|..|F-1 2F.A ....|--- .... ....|--- .... ....
....|..|C-4 LF.7 ....|--- .... ....|--- .... ....
....|..|C-4 AF.A ....|--- .... ....|--- .... ....
....|..|G-1 2F.A ....|--- .... ....|--- .... ....
....|..|--- .... ....|--- .... ....|--- .... ....
....|..|C-5 VF.7 ....|F#4 3F.7 ....|F#4 2F.7 ....
....|..|F-1 2F.7 ....|--- .... ....|--- .... ....
 G-4|..|C-4 AF.F ....|G-4 3F.F ....|G-4 2C.F ....
 F#3|..|F#1 2A.F ....|--- .... ....|--- .F.. ....
....|..|G-1 2F.7 ....|--- .... ....|--- .... ....
....|..|C-4 AF.F ....|--- .... ....|--- .... ....
 F#3|..|F#1 2A.F ....|--- .... ....|--- .... ....
....|..|R-- .... ....|--- .... ....|--- .... ....
....|..|C-4 AF.A ....|G-4 3F.A ....|G-4 2F.A ....
....|..|C-4 LF.F ....|--- .... ....|--- .... ....
....|..|R-- .... ....|--- .... ....|--- .... ....
....|..|C-4 AF.A ....|--- .... ....|--- .... ....
....|..|C-4 LF.F ....|--- .... ....|--- .... ....
....|..|R-- .... ....|--- .... ....|--- .... ....
....|..|C-4 AF.7 ....|G-4 3F.7 ....|G-4 2F.7 ....
....|..|F#1 2F.7 ....|--- .... ....|--- .... ....
....|..|C-5 VF.F ....|--- .... ....|--- .... ....
 F#3|..|F#1 2A.F ....|--- .... ....|--- .... ....
....|..|F#1 2F.7 ....|--- .... ....|--- .... ....
....|..|C-4 LF.F ....|--- .... ....|--- .... ....
....|..|R-- .... ....|--- .... ....|--- .... ....
....|..|C-4 LF.7 ....|--- .... ....|--- .... ....
....|..|C-5 VF.A ....|--- .... ....|--- .... ....
 E-4|..|C-4 AF.F ....|E-4 3F.F ....|E-4 2C.F ....
 E-3|..|E-1 2A.F ....|--- .... ....|--- .... ....
....|..|C-4 LF.A ....|--- .... ....|--- .... ....
....|..|C-4 AF.F ....|--- .... ....|--- .... ....
 E-3|..|E-1 2A.F ....|--- .... ....|--- .... ....
....|..|C-5 VF.7 ....|--- .... ....|--- .... ....
....|..|F#1 2F.7 ....|E-4 3F.A ....|E-4 2F.A ....
....|..|C-4 LF.F ....|--- .... ....|--- .... ....
....|..|C-4 LF.7 ....|--- .... ....|--- .... ....
....|..|C-4 AF.A ....|--- .... ....|--- .... ....
....|..|C-4 LF.F ....|--- .... ....|--- .... ....
....|..|R-- .... ....|--- .... ....|--- .... ....
....|..|C-4 AF.7 ....|E-4 3F.7 ....|E-4 2F.7 ....
....|..|C-4 LF.F ....|--- .... ....|--- .... ....
....|..|R-- .... ....|--- .... ....|--- .... ....
....|..|C-4 AF.7 ....|--- .... ....|--- .... ....
....|..|E-1 2F.7 ....|--- .... ....|--- .... ....
....|..|C-4 LF.F ....|--- .... ....|--- .... ....
....|..|R-- .... ....|--- .... ....|--- .... ....
....|..|C-4 LF.7 ....|--- .... ....|--- .... ....
 F#3|..|C-5 VF.F ....|F#4 3F.F ....|F#4 2C.F ....
....|..|R-- .... ....|--- .... ....|--- .... ....
....|..|C-4 LF.7 ....|--- .... ....|--- .... ....
....|..|C-4 LF.A ....|--- .... ....|--- .... ....
....|..|C-4 LF.F ....|--- .... ....|--- .... ....
....|..|C-4 LF.7 ....|--- .... ....|--- .... ....
....|..|C-5 VF.A ....|F#4 3F.A ....|F#4 2F.A ....
....|..|C-4 LF.F ....|--- .... ....|--- .... ....
....|..|R-- .... ....|--- .... ....|--- .... ....
....|..|C-4 LF.7 ....|--- .... ....|--- .... ....
....|..|C-4 LF.A ....|--- .... ....|--- .... ....
....|..|C-4 LF.F ....|--- .... ....|--- .... ....
....|..|C-5 VF.7 ....|F#4 3F.7 ....|F#4 2F.7 ....
....|..|C-4 LF.A ....|--- .... ....|--- .... ....
....|..|C-4 AF.F ....|--- .... ....|--- .... ....
 F#3|..|F#1 2A.F ....|--- .... ....|--- .... ....
....|..|C-4 LF.7 ....|--- .... ....|--- .... ....
....|..|C-4 LF.A ....|--- .... ....|--- .... ....
....|..|C-4 AF.F ....|--- .... ....|--- .... ....
 F#3|..|F#1 2A.F ....|--- .... ....|--- .... ....
....|..|C-4 AF.A ....|--- .... ....|--- .... ....
 C#4|..|C-4 LF.F ....|C#5 3F.F ....|C#5 2C.F ....
....|..|R-- .... ....|--- .... ....|--- .... ....
....|..|C-4 LF.7 ....|--- .... ....|--- .... ....
....|..|C-4 AF.A ....|--- .... ....|--- .... ....
....|..|C-4 LF.F ....|--- .... ....|--- .... ....
....|..|C-4 AF.7 ....|--- .... ....|--- .... ....
....|..|F#1 2F.7 ....|C#5 3F.A ....|C#5 2F.A ....
....|..|C-5 VF.F ....|--- .... ....|--- .... ....
 F#3|..|F#1 2A.F ....|--- .... ....|--- .... ....
....|..|C-4 AF.7 ....|--- .... ....|--- .... ....
....|..|F#1 2F.7 ....|--- .... ....|--- .... ....
....|..|C-4 LF.F ....|--- .... ....|--- .... ....
....|..|C-4 LF.7 ....|C#5 3F.7 ....|C#5 2F.7 ....
....|..|C-5 VF.A ....|--- .... ....|--- .... ....
....|..|C-4 AF.F ....|--- .... ....|--- .... ....
 E-3|..|E-1 2A.F ....|--- .... ....|--- .... ....
....|..|C-4 LF.7 ....|--- .... ....|--- .... ....
....|..|C-4 LF.A ....|--- .... ....|--- .... ....

[Pattern5]
....|..|C-4 AF.F ....|--- .... ....|--- .... ....
 E-3|..|E-1 2A.F ....|--- .... ....|--- .... ....
....|..|F#1 2F.7 ....|--- .... ....|--- .... ....
 D-4|..|C-4 LF.F ....|D-5 3F.F ....|D-5 2C.F ....
....|..|R-- .... ....|--- .... ....|--- .... ....
....|..|C-4 LF.7 ....|--- .... ....|--- .... ....
....|..|C-4 AF.A ....|--- .... ....|--- .... ....
....|..|C-4 LF.F ....|--- .... ....|--- .... ....
....|..|C-4 AF.7 ....|--- .... ....|--- .... ....
....|..|E-1 2F.7 ....|D-5 3F.A ....|D-5 2F.A ....
....|..|C-4 LF.F ....|--- .... ....|--- .... ....
....|..|R-- .... ....|--- .... ....|--- .... ....
....|..|C-4 AF.7 ....|--- .... ....|--- .... ....
....|..|E-1 2F.7 ....|--- .... ....|--- .... ....
....|..|C-4 LF.F ....|--- .... ....|--- .... ....
....|..|C-4 LF.7 ....|D-5 3F.7 ....|D-5 2F.7 ....
....|..|C-4 LF.A ....|--- .... ....|--- .... ....
 B-4|..|C-5 VF.F ....|B-4 3F.F ....|B-4 2C.F ....
 F-3|..|F-1 2A.F ....|--- .... ....|--- .F.. ....
....|..|C-4 LF.7 ....|--- .... ....|--- .... ....
....|..|C-4 LF.A ....|--- .... ....|--- .... ....
....|..|C-4 AF.F ....|--- .... ....|--- .... ....
 G-3|..|G-1 2A.F ....|--- .... ....|--- .F.. ....
....|..|C-5 VF.A ....|B-4 3F.A ....|B-4 2F.A ....
....|..|F-1 2F.A ....|--- .... ....|--- .... ....
....|..|R-- .... ....|--- .... ....|--- .... ....
....|..|C-4 LF.7 ....|--- .... ....|--- .... ....
....|..|C-4 AF.A ....|--- .... ....|--- .... ....
....|..|G-1 2F.A ....|--- .... ....|--- .... ....
....|..|C-5 VF.7 ....|B-4 3F.7 ....|B-4 2F.7 ....
....|..|F-1 2F.7 ....|--- .... ....|--- .... ....
 C#4|..|C-4 AF.F ....|C#5 3F.F ....|C#5 2C.F ....
 F#3|..|F#1 2A.F ....|--- .... ....|--- .F.. ....
....|..|C-4 AF.7 ....|--- .... ....|--- .... ....
....|..|G-1 2F.7 ....|--- .... ....|--- .... ....
....|..|C-4 AF.F ....|--- .... ....|--- .... ....
 F#3|..|F#1 2A.F ....|--- .... ....|--- .... ....
....|..|C-4 AF.A ....|C#5 3F.A ....|C#5 2F.A ....
....|..|C-4 LF.F ....|--- .... ....|--- .... ....
....|..|R-- .... ....|--- .... ....|--- .... ....
....|..|R-- .... ....|--- .... ....|--- .... ....
....|..|C-4 AF.A ....|--- .... ....|--- .... ....
....|..|C-4 LF.F ....|--- .... ....|--- .... ....
....|..|C-4 AF.7 ....|C#5 3F.7 ....|C#5 2F.7 ....
....|..|F#1 2F.7 ....|--- .... ....|--- .... ....
....|..|C-5 VF.F ....|--- .... ....|--- .... ....
 F#3|..|F#1 2A.F ....|--- .... ....|--- .... ....
....|..|C-4 AF.7 ....|--- .... ....|--- .... ....
....|..|F#1 2F.7 ....|--- .... ....|--- .... ....
....|..|C-4 LF.F ....|--- .... ....|--- .... ....
....|..|C-4 LF.7 ....|--- .... ....|--- .... ....
....|..|C-5 VF.A ....|--- .... ....|--- .... ....
 F#3|..|C-4 AF.F ....|F#4 3F.F ....|F#4 2C.F ....
 E-3|..|E-1 2A.F ....|--- .... ....|--- .F.. ....
....|..|C-4 LF.7 ....|--- .... ....|--- .... ....
....|..|C-4 LF.A ....|--- .... ....|--- .... ....
....|..|C-4 AF.F ....|--- .... ....|--- .... ....
 E-3|..|E-1 2A.F ....|--- .... ....|--- .... ....
....|..|F#1 2F.7 ....|F#4 3F.A ....|F#4 2F.A ....
....|..|C-4 LF.F ....|--- .... ....|--- .... ....
....|..|R-- .... ....|--- .... ....|--- .... ....
....|..|C-4 LF.7 ....|--- .... ....|--- .... ....
....|..|C-4 AF.A ....|--- .... ....|--- .... ....
....|..|C-4 LF.F ....|--- .... ....|--- .... ....
....|..|C-4 AF.7 ....|F#4 3F.7 ....|F#4 2F.7 ....
....|..|E-1 2F.7 ....|--- .... ....|--- .... ....
....|..|C-4 LF.F ....|--- .... ....|--- .... ....
....|..|R-- .... ....|--- .... ....|--- .... ....
....|..|C-4 AF.7 ....|--- .... ....|--- .... ....
....|..|E-1 2F.7 ....|--- .... ....|--- .... ....
....|..|C-4 LF.F ....|--- .... ....|--- .... ....
....|..|C-4 LF.7 ....|--- .... ....|--- .... ....
....|..|C-4 LF.A ....|--- .... ....|--- .... ....
 B-4|..|C-5 VF.F ....|B-4 3F.F ....|B-4 2C.F ....
....|..|R-- .... ....|--- .... ....|--- .... ....
....|..|C-4 LF.7 ....|--- .... ....|--- .... ....
....|..|C-4 LF.A ....|--- .... ....|--- .... ....
....|..|C-4 LF.F ....|--- .... ....|--- .... ....
....|..|C-4 LF.7 ....|--- .... ....|--- .... ....
....|..|C-5 VF.A ....|B-4 3F.A ....|B-4 2F.A ....
....|..|C-4 LF.F ....|--- .... ....|--- .... ....
....|..|R-- .... ....|--- .... ....|--- .... ....
....|..|C-4 LF.7 ....|--- .... ....|--- .... ....
....|..|C-4 LF.A ....|--- .... ....|--- .... ....
....|..|C-4 LF.F ....|--- .... ....|--- .... ....
....|..|C-5 VF.7 ....|B-4 3F.7 ....|B-4 2F.7 ....
....|..|C-4 LF.A ....|--- .... ....|--- .... ....
....|..|C-4 AF.F ....|--- .... ....|--- .... ....
 F#3|..|F#1 2A.F ....|--- .... ....|--- .... ....
....|..|C-4 LF.7 ....|--- .... ....|--- .... ....
....|..|C-4 LF.A ....|--- .... ....|--- .... ....
....|..|C-4 AF.F ....|--- .... ....|--- .... ....
 F#3|..|F#1 2A.F ....|--- .... ....|--- .... ....
....|..|C-4 AF.A ....|--- .... ....|--- .... ....
 E-4|..|C-4 LF.F ....|E-4 3F.F ....|E-4 2C.F ....
....|..|R-- .... ....|--- .... ....|--- .... ....
....|..|C-4 LF.7 ....|--- .... ....|--- .... ....
....|..|C-4 AF.A ....|--- .... ....|--- .... ....
....|..|C-4 LF.F ....|--- .... ....|--- .... ....
....|..|C-4 AF.7 ....|--- .... ....|--- .... ....
....|..|F#1 2F.7 ....|E-4 3F.A ....|E-4 2F.A ....
....|..|C-5 VF.F ....|--- .... ....|--- .... ....
 F#3|..|F#1 2A.F ....|--- .... ....|--- .... ....
....|..|C-4 AF.7 ....|--- .... ....|--- .... ....
....|..|F#1 2F.7 ....|--- .... ....|--- .... ....
....|..|C-4 LF.F ....|--- .... ....|--- .... ....
....|..|C-4 LF.7 ....|E-4 3F.7 ....|E-4 2F.7 ....
....|..|C-5 VF.A ....|--- .... ....|--- .... ....
....|..|C-4 AF.F ....|--- .... ....|--- .... ....
 E-3|..|E-1 2A.F ....|--- .... ....|--- .... ....
....|..|C-4 LF.7 ....|--- .... ....|--- .... ....
....|..|C-4 LF.A ....|--- .... ....|--- .... ....
....|..|C-4 AF.F ....|--- .... ....|--- .... ....
 E-3|..|E-1 2A.F ....|--- .... ....|--- .... ....
....|..|F#1 2F.7 ....|--- .... ....|--- .... ....
 A-3|..|C-4 LF.F ....|A-4 3F.F ....|A-4 2C.F ....
....|..|R-- .... ....|--- .... ....|--- .... ....
....|..|C-4 LF.7 ....|--- .... ....|--- .... ....
....|..|C-4 AF.A ....|--- .... ....|--- .... ....
....|..|C-4 LF.F ....|--- .... ....|--- .... ....
....|..|C-4 AF.7 ....|--- .... ....|--- .... ....
....|..|E-1 2F.7 ....|A-4 3F.A ....|A-4 2F.A ....
....|..|C-4 LF.F ....|--- .... ....|--- .... ....
....|..|R-- .... ....|--- .... ....|--- .... ....
....|..|C-4 AF.7 ....|--- .... ....|--- .... ....
....|..|E-1 2F.7 ....|--- .... ....|--- .... ....
....|..|C-4 LF.F ....|--- .... ....|--- .... ....
....|..|C-4 LF.7 ....|A-4 3F.7 ....|A-4 2F.7 ....

[Pattern6]
....|..|C-4 LF.A ....|--- .... ....|--- .... ....
 D-4|..|C-5 VF.F ....|D-4 3F.F ....|D-4 2C.F ....
 F-3|..|F-1 2A.F ....|--- .... ....|--- .F.. ....
....|..|C-4 LF.7 ....|--- .... ....|--- .... ....
....|..|C-4 LF.A ....|--- .... ....|--- .... ....
....|..|C-4 AF.F ....|--- .... ....|--- .... ....
 G-3|..|G-1 2A.F ....|--- .... ....|--- .F.. ....
....|..|C-5 VF.A ....|D-4 3F.A ....|D-4 2F.A ....
....|..|F-1 2F.A ....|--- .... ....|--- .... ....
....|..|R-- .... ....|--- .... ....|--- .... ....
....|..|C-4 LF.7 ....|--- .... ....|--- .... ....
....|..|C-4 AF.A ....|--- .... ....|--- .... ....
 E-4|..|G-1 2F.A ....|E-4 3F.F ....|E-4 2C.F ....
....|..|C-5 VF.7 ....|D-4 3F.7 ....|D-4 2F.7 ....
 D-4|..|F-1 2F.7 ....|D-4 3F.F ....|D-4 2C.F ....
 C#4|..|C-4 AF.F ....|C#4 3F.F ....|C#4 2C.F ....
 F#3|..|F#1 2A.F ....|--- .... ....|--- .F.. ....
....|..|C-4 AF.7 ....|--- .... ....|--- .... ....
....|..|G-1 2F.7 ....|E-4 3F.A ....|E-4 2F.A ....
....|..|C-4 AF.F ....|--- .... ....|--- .... ....
 F#3|..|F#1 2A.F ....|D-4 3F.A ....|D-4 2F.A ....
....|..|C-4 AF.A ....|C#4 3F.A ....|C#4 2F.A ....
....|..|C-4 LF.F ....|--- .... ....|--- .... ....
....|..|R-- .... ....|--- .... ....|--- .... ....
....|..|R-- .... ....|E-4 3F.7 ....|E-4 2F.7 ....
....|..|C-4 AF.A ....|--- .... ....|--- .... ....
....|..|C-4 LF.F ....|D-4 3F.7 ....|D-4 2F.7 ....
....|..|C-4 AF.7 ....|C#4 3F.7 ....|C#4 2F.7 ....
....|..|F#1 2F.7 ....|--- .... ....|--- .... ....
....|..|C-5 VF.F ....|--- .... ....|--- .... ....
 F#3|..|F#1 2A.F ....|--- .... ....|--- .... ....
....|..|C-4 AF.7 ....|--- .... ....|--- .... ....
....|..|F#1 2F.7 ....|--- .... ....|--- .... ....
....|..|C-4 LF.F ....|--- .... ....|--- .... ....
....|..|C-4 LF.7 ....|--- .... ....|--- .... ....
....|..|C-5 VF.A ....|--- .... ....|--- .... ....
....|..|C-4 AF.F ....|--- .... ....|--- .... ....
 E-3|..|E-1 2A.F ....|--- .... ....|--- .... ....
....|..|C-4 LF.7 ....|--- .... ....|--- .... ....
....|..|C-4 LF.A ....|--- .... ....|--- .... ....
....|..|C-4 AF.F ....|--- .... ....|--- .... ....
 E-3|..|E-1 2A.F ....|--- .... ....|--- .... ....
....|..|F#1 2F.7 ....|--- .... ....|--- .... ....
....|..|C-4 LF.F ....|--- .... ....|--- .... ....
....|..|R-- .... ....|--- .... ....|--- .... ....
....|..|C-4 LF.7 ....|--- .... ....|--- .... ....
....|..|C-4 AF.A ....|--- .... ....|--- .... ....
....|..|C-4 LF.F ....|--- .... ....|--- .... ....
....|..|C-4 AF.7 ....|--- .... ....|--- .... ....
....|..|E-1 2F.7 ....|--- .... ....|--- .... ....
....|..|C-4 LF.F ....|--- .... ....|--- .... ....
....|..|R-- .... ....|--- .... ....|--- .... ....
....|..|C-4 AF.7 ....|--- .... ....|--- .... ....
....|..|E-1 2F.7 ....|--- .... ....|--- .... ....
....|..|C-4 LF.F ....|--- .... ....|--- .... ....
....|..|C-4 LF.7 ....|--- .... ....|--- .... ....
....|..|C-4 LF.A ....|--- .... ....|--- .... ....
....|..|C-5 VF.F ....|--- .... ....|--- .... ....
....|..|R-- .... ....|--- .... ....|--- .... ....
....|..|C-4 LF.7 ....|--- .... ....|--- .... ....
....|..|C-4 LF.A ....|--- .... ....|--- .... ....
....|..|C-4 LF.F ....|--- .... ....|--- .... ....
....|..|C-4 LF.7 ....|--- .... ....|--- .... ....
....|..|C-5 VF.A ....|--- .... ....|--- .... ....
....|..|C-4 LF.F ....|--- .... ....|--- .... ....
....|..|R-- .... ....|--- .... ....|--- .... ....
....|..|C-4 LF.7 ....|--- .... ....|--- .... ....
....|..|C-4 LF.A ....|--- .... ....|--- .... ....
....|..|C-4 LF.F ....|--- .... ....|--- .... ....
....|..|C-5 VF.7 ....|--- .... ....|--- .... ....
....|..|C-4 LF.A ....|--- .... ....|--- .... ....
 C#4|..|C-4 AF.F ....|C#3 3F.F ....|C#3 2C.F ....
 F#3|..|F#1 2A.F ....|--- .... ....|--- .F.. ....
....|..|C-4 LF.7 ....|--- .... ....|--- .... ....
....|..|C-4 LF.A ....|--- .... ....|--- .... ....
 D-4|..|C-4 AF.F ....|D-3 3F.F ....|D-3 2C.F ....
 F#3|..|F#1 2A.F ....|--- .... ....|--- .F.. ....
....|..|C-4 AF.A ....|C#3 3F.A ....|C#3 2F.A ....
 C#4|..|C-4 LF.F ....|C#3 3F.F ....|C#3 2C.F ....
....|..|R-- .... ....|--- .... ....|--- .... ....
....|..|C-4 LF.7 ....|--- .... ....|--- .... ....
....|..|C-4 AF.A ....|D-3 3F.A ....|D-3 2F.A ....
 D-4|..|C-4 LF.F ....|D-3 3F.F ....|D-3 2C.F ....
....|..|C-4 AF.7 ....|C#3 3F.7 ....|C#3 2F.7 ....
....|..|F#1 2F.7 ....|C#3 3F.A ....|C#3 2F.A ....
 C#4|..|C-5 VF.F ....|C#3 3F.F ....|C#3 2C.F ....
 F#3|..|F#1 2A.F ....|--- .... ....|--- .F.. ....
....|..|C-4 AF.7 ....|D-3 3F.7 ....|D-3 2F.7 ....
....|..|F#1 2F.7 ....|D-3 3F.A ....|D-3 2F.A ....
 D-4|..|C-4 LF.F ....|D-3 3F.F ....|D-3 2C.F ....
....|..|C-4 LF.7 ....|C#3 3F.7 ....|C#3 2F.7 ....
....|..|C-5 VF.A ....|C#3 3F.A ....|C#3 2F.A ....
 C#4|..|C-4 AF.F ....|C#3 3F.F ....|C#3 2C.F ....
 E-3|..|E-1 2A.F ....|--- .... ....|--- .F.. ....
....|..|C-4 LF.7 ....|D-3 3F.7 ....|D-3 2F.7 ....
....|..|C-4 LF.A ....|D-3 3F.A ....|D-3 2F.A ....
 D-4|..|C-4 AF.F ....|D-3 3F.F ....|D-3 2C.F ....
 E-3|..|E-1 2A.F ....|C#3 3F.7 ....|C#3 2F.7 ....
....|..|F#1 2F.7 ....|C#3 3F.A ....|C#3 2F.A ....
 C#4|..|C-4 LF.F ....|C#3 3F.F ....|C#3 2C.F ....
....|..|R-- .... ....|--- .... ....|--- .... ....
....|..|C-4 LF.7 ....|D-3 3F.7 ....|D-3 2F.7 ....
....|..|C-4 AF.A ....|D-3 3F.A ....|D-3 2F.A ....
 D-4|..|C-4 LF.F ....|D-3 3F.F ....|D-3 2C.F ....
....|..|C-4 AF.7 ....|C#3 3F.7 ....|C#3 2F.7 ....
....|..|E-1 2F.7 ....|C#3 3F.A ....|C#3 2F.A ....
 C#4|..|C-4 LF.F ....|C#4 3F.F ....|C#4 2C.F ....
....|..|R-- .... ....|--- .... ....|--- .... ....
....|..|C-4 AF.7 ....|D-3 3F.7 ....|D-3 2F.7 ....
....|..|E-1 2F.7 ....|D-3 3F.A ....|D-3 2F.A ....
 D-4|..|C-4 LF.F ....|D-4 3F.F ....|D-4 2C.F ....
....|..|C-4 LF.7 ....|C#3 3F.7 ....|C#3 2F.7 ....
....|..|C-4 LF.A ....|C#4 3F.A ....|C#4 2F.A ....
 C#4|..|C-5 VF.F ....|C#5 3F.F ....|C#5 2C.F ....
 F-3|..|F-1 2A.F ....|--- .... ....|--- .F.. ....
....|..|C-4 LF.7 ....|D-3 3F.7 ....|D-3 2F.7 ....
....|..|C-4 LF.A ....|D-4 3F.A ....|D-4 2F.A ....
 D-4|..|C-4 AF.F ....|D-5 3F.F ....|D-5 2C.F ....
 G-3|..|G-1 2A.F ....|C#4 3F.7 ....|C#4 2F.7 ....
....|..|C-5 VF.A ....|C#5 3F.A ....|C#5 2F.A ....
 C#4|..|F-1 2F.A ....|C#6 3F.F ....|C#6 2C.F ....
....|..|R-- .... ....|--- .... ....|--- .... ....
....|..|C-4 LF.7 ....|D-4 3F.7 ....|D-4 2F.7 ....
....|..|C-4 AF.A ....|D-5 3F.A ....|D-5 2F.A ....
 D-4|..|G-1 2F.A ....|D-6 3F.F ....|D-6 2C.F ....
....|..|C-5 VF.7 ....|C#5 3F.7 ....|C#5 2F.7 ....
....|..|F-1 2F.7 ....|C#6 3F.A ....|C#6 2F.A ....
 F#3|..|C-4 AF.F ....|F#4 3F.F ....|F#4 2C.F ....

[Pattern7]
 F#3|..|F#1 2A.F ....|--- .... ....|--- .... ....
....|..|C-4 AF.7 ....|D-5 3F.7 ....|D-5 2F.7 ....
....|..|G-1 2F.7 ....|D-6 3F.A ....|D-6 2F.A ....
....|..|C-4 AF.F ....|--- .... ....|--- .... ....
 F#3|..|F#1 2A.F ....|C#6 3F.7 ....|C#6 2F.7 ....
....|..|C-4 AF.A ....|F#4 3F.A ....|F#4 2F.A ....
....|..|C-4 LF.F ....|--- .... ....|--- .... ....
....|..|R-- .... ....|--- .... ....|--- .... ....
....|..|R-- .... ....|D-6 3F.7 ....|D-6 2F.7 ....
....|..|C-4 AF.A ....|--- .... ....|--- .... ....
....|..|C-4 LF.F ....|--- .... ....|--- .... ....
....|..|C-4 AF.7 ....|F#4 3F.7 ....|F#4 2F.7 ....
....|..|F#1 2F.7 ....|--- .... ....|--- .... ....
....|..|C-5 VF.F ....|--- .... ....|--- .... ....
 F#3|..|F#1 2A.F ....|--- .... ....|--- .... ....
....|..|C-4 AF.7 ....|--- .... ....|--- .... ....
....|..|F#1 2F.7 ....|--- .... ....|--- .... ....
....|..|C-4 LF.F ....|--- .... ....|--- .... ....
....|..|C-4 LF.7 ....|--- .... ....|--- .... ....
....|..|C-5 VF.A ....|--- .... ....|--- .... ....
 C#4|..|C-4 AF.F ....|C#4 3F.F ....|C#4 2C.F ....
 E-3|..|E-1 2A.F ....|--- .... ....|--- .F.. ....
....|..|C-4 LF.7 ....|--- .... ....|--- .... ....
....|..|C-4 LF.A ....|--- .... ....|--- .... ....
....|..|C-4 AF.F ....|--- .... ....|--- .... ....
 E-3|..|E-1 2A.F ....|--- .... ....|--- .... ....
....|..|F#1 2F.7 ....|C#4 3F.A ....|C#4 2F.A ....
....|..|C-4 LF.F ....|--- .... ....|--- .... ....
....|..|R-- .... ....|--- .... ....|--- .... ....
....|..|C-4 LF.7 ....|--- .... ....|--- .... ....
....|..|C-4 AF.A ....|--- .... ....|--- .... ....
....|..|C-4 LF.F ....|--- .... ....|--- .... ....
....|..|C-4 AF.7 ....|C#4 3F.7 ....|C#4 2F.7 ....
....|..|E-1 2F.7 ....|--- .... ....|--- .... ....
....|..|C-4 LF.F ....|--- .... ....|--- .... ....
....|..|R-- .... ....|--- .... ....|--- .... ....
....|..|C-4 AF.7 ....|--- .... ....|--- .... ....
....|..|E-1 2F.7 ....|--- .... ....|--- .... ....
....|..|C-4 LF.F ....|--- .... ....|--- .... ....
....|..|C-4 LF.7 ....|--- .... ....|--- .... ....
....|..|C-4 LF.A ....|--- .... ....|--- .... ....
 D-4|..|C-5 VF.F ....|D-4 3F.F ....|D-4 2C.F ....
....|..|R-- .... ....|--- .... ....|--- .... ....
....|..|C-4 LF.7 ....|--- .... ....|--- .... ....
....|..|C-4 LF.A ....|--- .... ....|--- .... ....
....|..|C-4 LF.F ....|--- .... ....|--- .... ....
....|..|C-4 LF.7 ....|--- .... ....|--- .... ....
....|..|C-5 VF.A ....|D-4 3F.A ....|D-4 2F.A ....
....|..|C-4 LF.F ....|--- .... ....|--- .... ....
....|..|R-- .... ....|--- .... ....|--- .... ....
....|..|C-4 LF.7 ....|--- .... ....|--- .... ....
....|..|C-4 LF.A ....|--- .... ....|--- .... ....
....|..|C-4 LF.F ....|--- .... ....|--- .... ....
....|..|C-5 VF.7 ....|D-4 3F.7 ....|D-4 2F.7 ....
....|..|C-4 LF.A ....|--- .... ....|--- .... ....
....|..|C-4 AF.F ....|--- .... ....|--- .... ....
 F#3|..|F#1 2A.F ....|--- .... ....|--- .... ....
....|..|C-4 LF.7 ....|--- .... ....|--- .... ....
....|..|C-4 LF.A ....|--- .... ....|--- .... ....
....|..|C-4 AF.F ....|--- .... ....|--- .... ....
 F#3|..|F#1 2A.F ....|--- .... ....|--- .... ....
....|..|C-4 AF.A ....|--- .... ....|--- .... ....
 B-4|..|C-4 LF.F ....|B-3 3F.F ....|B-3 2C.F ....
....|..|R-- .... ....|--- .... ....|--- .... ....
....|..|C-4 LF.7 ....|--- .... ....|--- .... ....
....|..|C-4 AF.A ....|--- .... ....|--- .... ....
....|..|C-4 LF.F ....|--- .... ....|--- .... ....
....|..|C-4 AF.7 ....|--- .... ....|--- .... ....
....|..|F#1 2F.7 ....|B-3 3F.A ....|B-3 2F.A ....
....|..|C-5 VF.F ....|--- .... ....|--- .... ....
 F#3|..|F#1 2A.F ....|--- .... ....|--- .... ....
....|..|C-4 AF.7 ....|--- .... ....|--- .... ....
....|..|F#1 2F.7 ....|--- .... ....|--- .... ....
....|..|C-4 LF.F ....|--- .... ....|--- .... ....
....|..|C-4 LF.7 ....|B-3 3F.7 ....|B-3 2F.7 ....
....|..|C-5 VF.A ....|--- .... ....|--- .... ....
....|..|C-4 AF.F ....|--- .... ....|--- .... ....
 E-3|..|E-1 2A.F ....|--- .... ....|--- .... ....
....|..|C-4 LF.7 ....|--- .... ....|--- .... ....
....|..|C-4 LF.A ....|--- .... ....|--- .... ....
....|..|C-4 AF.F ....|--- .... ....|--- .... ....
 E-3|..|E-1 2A.F ....|--- .... ....|--- .... ....
....|..|F#1 2F.7 ....|--- .... ....|--- .... ....
 C#4|..|C-4 LF.F ....|C#4 3F.F ....|C#4 2C.F ....
....|..|R-- .... ....|--- .... ....|--- .... ....
....|..|C-4 LF.7 ....|--- .... ....|--- .... ....
....|..|C-4 AF.A ....|--- .... ....|--- .... ....
....|..|C-4 LF.F ....|--- .... ....|--- .... ....
....|..|C-4 AF.7 ....|--- .... ....|--- .... ....
....|..|E-1 2F.7 ....|C#4 3F.A ....|C#4 2F.A ....
....|..|C-4 LF.F ....|--- .... ....|--- .... ....
....|..|R-- .... ....|--- .... ....|--- .... ....
....|..|C-4 AF.7 ....|--- .... ....|--- .... ....
....|..|E-1 2F.7 ....|--- .... ....|--- .... ....
....|..|C-4 LF.F ....|--- .... ....|--- .... ....
....|..|C-4 LF.7 ....|C#4 3F.7 ....|C#4 2F.7 ....
....|..|C-4 LF.A ....|--- .... ....|--- .... ....
 F#3|..|C-5 VF.F ....|F#4 3F.F ....|F#4 2C.F ....
 F-3|..|F-1 2A.F ....|--- .... ....|--- .F.. ....
....|..|C-4 LF.7 ....|--- .... ....|--- .... ....
....|..|C-4 LF.A ....|--- .... ....|--- .... ....
....|..|C-4 AF.F ....|--- .... ....|--- .... ....
 G-3|..|G-1 2A.F ....|--- .... ....|--- .F.. ....
....|..|C-5 VF.A ....|F#4 3F.A ....|F#4 2F.A ....
....|..|F-1 2F.A ....|--- .... ....|--- .... ....
....|..|R-- .... ....|--- .... ....|--- .... ....
....|..|C-4 LF.7 ....|--- .... ....|--- .... ....
....|..|C-4 AF.A ....|--- .... ....|--- .... ....
....|..|G-1 2F.A ....|--- .... ....|--- .... ....
....|..|C-5 VF.7 ....|F#4 3F.7 ....|F#4 2F.7 ....
....|..|F-1 2F.7 ....|--- .... ....|--- .... ....
 G-4|..|C-4 AF.F ....|G-4 3F.F ....|G-4 2C.F ....
 F#3|..|F#1 2A.F ....|--- .... ....|--- .F.. ....
....|..|C-4 AF.7 ....|--- .... ....|--- .... ....
....|..|G-1 2F.7 ....|--- .... ....|--- .... ....
....|..|C-4 AF.F ....|--- .... ....|--- .... ....
 F#3|..|F#1 2A.F ....|--- .... ....|--- .... ....
....|..|C-4 AF.A ....|G-4 3F.A ....|G-4 2F.A ....
....|..|C-4 LF.F ....|--- .... ....|--- .... ....
....|..|R-- .... ....|--- .... ....|--- .... ....
....|..|R-- .... ....|--- .... ....|--- .... ....
....|..|C-4 AF.A ....|--- .... ....|--- .... ....
....|..|C-4 LF.F ....|--- .... ....|--- .... ....
....|..|C-4 AF.7 ....|G-4 3F.7 ....|G-4 2F.7 ....
....|..|F#1 2F.7 ....|--- .... ....|--- .... ....
....|..|C-5 VF.F ....|--- .... ....|--- .... ....
 F#3|..|F#1 2A.F ....|--- .... ....|--- .... ....
....|..|C-4 AF.7 ....|--- .... ....|--- .... ....

[Pattern8]
....|..|F#1 2F.7 ....|--- .... ....|--- .... ....
....|..|C-4 LF.F ....|--- .... ....|--- .... ....
....|..|C-4 LF.7 ....|--- .... ....|--- .... ....
....|..|C-5 VF.A ....|--- .... ....|--- .... ....
 E-4|..|C-4 AF.F ....|E-4 3F.F ....|E-4 2C.F ....
 E-3|..|E-1 2A.F ....|--- .... ....|--- .... ....
....|..|C-4 LF.7 ....|--- .... ....|--- .... ....
....|..|C-4 LF.A ....|--- .... ....|--- .... ....
....|..|C-4 AF.F ....|--- .... ....|--- .... ....
 E-3|..|E-1 2A.F ....|--- .... ....|--- .... ....
....|..|F#1 2F.7 ....|E-4 3F.A ....|E-4 2F.A ....
....|..|C-4 LF.F ....|--- .... ....|--- .... ....
....|..|R-- .... ....|--- .... ....|--- .... ....
....|..|C-4 LF.7 ....|--- .... ....|--- .... ....
....|..|C-4 AF.A ....|--- .... ....|--- .... ....
....|..|C-4 LF.F ....|--- .... ....|--- .... ....
....|..|C-4 AF.7 ....|E-4 3F.7 ....|E-4 2F.7 ....
....|..|E-1 2F.7 ....|--- .... ....|--- .... ....
....|..|C-4 LF.F ....|--- .... ....|--- .... ....
....|..|R-- .... ....|--- .... ....|--- .... ....
....|..|C-4 AF.7 ....|--- .... ....|--- .... ....
....|..|E-1 2F.7 ....|--- .... ....|--- .... ....
....|..|C-4 LF.F ....|--- .... ....|--- .... ....
....|..|C-4 LF.7 ....|--- .... ....|--- .... ....
....|..|C-4 LF.A ....|--- .... ....|--- .... ....
 F#3|..|C-5 VF.F ....|F#4 3F.F ....|F#4 2C.F ....
....|..|R-- .... ....|--- .... ....|--- .... ....
....|..|C-4 LF.7 ....|--- .... ....|--- .... ....
....|..|C-4 LF.A ....|--- .... ....|--- .... ....
....|..|C-4 LF.F ....|--- .... ....|--- .... ....
....|..|C-4 LF.7 ....|--- .... ....|--- .... ....
....|..|C-5 VF.A ....|F#4 3F.A ....|F#4 2F.A ....
....|..|C-4 LF.F ....|--- .... ....|--- .... ....
....|..|R-- .... ....|--- .... ....|--- .... ....
....|..|C-4 LF.7 ....|--- .... ....|--- .... ....
....|..|C-4 LF.A ....|--- .... ....|--- .... ....
....|..|C-4 LF.F ....|--- .... ....|--- .... ....
....|..|C-5 VF.7 ....|F#4 3F.7 ....|F#4 2F.7 ....
....|..|C-4 LF.A ....|--- .... ....|--- .... ....
....|..|C-4 AF.F ....|--- .... ....|--- .... ....
 F#3|..|F#1 2A.F ....|--- .... ....|--- .... ....
....|..|C-4 LF.7 ....|--- .... ....|--- .... ....
....|..|C-4 LF.A ....|--- .... ....|--- .... ....
....|..|C-4 AF.F ....|--- .... ....|--- .... ....
 F#3|..|F#1 2A.F ....|--- .... ....|--- .... ....
....|..|C-4 AF.A ....|--- .... ....|--- .... ....
 C#4|..|C-4 LF.F ....|C#5 3F.F ....|C#5 2C.F ....
....|..|R-- .... ....|--- .... ....|--- .... ....
....|..|C-4 LF.7 ....|--- .... ....|--- .... ....
....|..|C-4 AF.A ....|--- .... ....|--- .... ....
....|..|C-4 LF.F ....|--- .... ....|--- .... ....
....|..|C-4 AF.7 ....|--- .... ....|--- .... ....
....|..|F#1 2F.7 ....|C#5 3F.A ....|C#5 2F.A ....
....|..|C-5 VF.F ....|--- .... ....|--- .... ....
 F#3|..|F#1 2A.F ....|--- .... ....|--- .... ....
....|..|C-4 AF.7 ....|--- .... ....|--- .... ....
....|..|F#1 2F.7 ....|--- .... ....|--- .... ....
....|..|C-4 LF.F ....|--- .... ....|--- .... ....
....|..|C-4 LF.7 ....|C#5 3F.7 ....|C#5 2F.7 ....
....|..|C-5 VF.A ....|--- .... ....|--- .... ....
....|..|C-4 AF.F ....|--- .... ....|--- .... ....
 E-3|..|E-1 2A.F ....|--- .... ....|--- .... ....
....|..|C-4 LF.7 ....|--- .... ....|--- .... ....
....|..|C-4 LF.A ....|--- .... ....|--- .... ....
....|..|C-4 AF.F ....|--- .... ....|--- .... ....
 E-3|..|E-1 2A.F ....|--- .... ....|--- .... ....
....|..|F#1 2F.7 ....|--- .... ....|--- .... ....
 D-4|..|C-4 LF.F ....|D-5 3F.F ....|D-5 2C.F ....
....|..|R-- .... ....|--- .... ....|--- .... ....
....|..|C-4 LF.7 ....|--- .... ....|--- .... ....
....|..|C-4 AF.A ....|--- .... ....|--- .... ....
....|..|C-4 LF.F ....|--- .... ....|--- .... ....
....|..|C-4 AF.7 ....|--- .... ....|--- .... ....
....|..|E-1 2F.7 ....|D-5 3F.A ....|D-5 2F.A ....
....|..|C-4 LF.F ....|--- .... ....|--- .... ....
....|..|R-- .... ....|--- .... ....|--- .... ....
....|..|C-4 AF.7 ....|--- .... ....|--- .... ....
....|..|E-1 2F.7 ....|--- .... ....|--- .... ....
....|..|C-4 LF.F ....|--- .... ....|--- .... ....
....|..|C-4 LF.7 ....|D-5 3F.7 ....|D-5 2F.7 ....
....|..|C-4 LF.A ....|--- .... ....|--- .... ....
 B-4|..|C-5 VF.F ....|B-4 3F.F ....|B-4 2C.F ....
 F-3|..|F-1 2A.F ....|--- .... ....|--- .F.. ....
....|..|C-4 LF.7 ....|--- .... ....|--- .... ....
....|..|C-4 LF.A ....|--- .... ....|--- .... ....
....|..|C-4 AF.F ....|--- .... ....|--- .... ....
 G-3|..|G-1 2A.F ....|--- .... ....|--- .F.. ....
....|..|C-5 VF.A ....|B-4 3F.A ....|B-4 2F.A ....
....|..|F-1 2F.A ....|--- .... ....|--- .... ....
....|..|R-- .... ....|--- .... ....|--- .... ....
....|..|C-4 LF.7 ....|--- .... ....|--- .... ....
....|..|C-4 AF.A ....|--- .... ....|--- .... ....
....|..|G-1 2F.A ....|--- .... ....|--- .... ....
....|..|C-5 VF.7 ....|B-4 3F.7 ....|B-4 2F.7 ....
....|..|F-1 2F.7 ....|--- .... ....|--- .... ....
 C#4|..|C-4 AF.F ....|C#5 3F.F ....|C#5 2C.F ....
 F#3|..|F#1 2A.F ....|--- .... ....|--- .F.. ....
....|..|C-4 AF.7 ....|--- .... ....|--- .... ....
....|..|G-1 2F.7 ....|--- .... ....|--- .... ....
....|..|C-4 AF.F ....|--- .... ....|--- .... ....
 F#3|..|F#1 2A.F ....|--- .... ....|--- .... ....
....|..|C-4 AF.A ....|C#5 3F.A ....|C#5 2F.A ....
....|..|C-4 LF.F ....|--- .... ....|--- .... ....
....|..|R-- .... ....|--- .... ....|--- .... ....
....|..|R-- .... ....|--- .... ....|--- .... ....
....|..|C-4 AF.A ....|--- .... ....|--- .... ....
....|..|C-4 LF.F ....|--- .... ....|--- .... ....
....|..|C-4 AF.7 ....|C#5 3F.7 ....|C#5 2F.7 ....
....|..|F#1 2F.7 ....|--- .... ....|--- .... ....
....|..|C-5 VF.F ....|--- .... ....|--- .... ....
 F#3|..|F#1 2A.F ....|--- .... ....|--- .... ....
....|..|C-4 AF.7 ....|--- .... ....|--- .... ....
....|..|F#1 2F.7 ....|--- .... ....|--- .... ....
....|..|C-4 LF.F ....|--- .... ....|--- .... ....
....|..|C-4 LF.7 ....|--- .... ....|--- .... ....
....|..|C-5 VF.A ....|--- .... ....|--- .... ....
 F#3|..|C-4 AF.F ....|F#4 3F.F ....|F#4 2C.F ....
 E-3|..|E-1 2A.F ....|--- .... ....|--- .F.. ....
....|..|C-4 LF.7 ....|--- .... ....|--- .... ....
....|..|C-4 LF.A ....|--- .... ....|--- .... ....
....|..|C-4 AF.F ....|--- .... ....|--- .... ....
 E-3|..|E-1 2A.F ....|--- .... ....|--- .... ....
....|..|F#1 2F.7 ....|F#4 3F.A ....|F#4 2F.A ....
....|..|C-4 LF.F ....|--- .... ....|--- .... ....
....|..|R-- .... ....|--- .... ....|--- .... ....
....|..|C-4 LF.7 ....|--- .... ....|--- .... ....
....|..|C-4 AF.A ....|--- .... ....|--- .... ....
....|..|C-4 LF.F ....|--- .... ....|--- .... ....

[Pattern9]
....|..|C-4 AF.7 ....|F#4 3F.7 ....|F#4 2F.7 ....
....|..|E-1 2F.7 ....|--- .... ....|--- .... ....
....|..|C-4 LF.F ....|--- .... ....|--- .... ....
....|..|R-- .... ....|--- .... ....|--- .... ....
....|..|C-4 AF.7 ....|--- .... ....|--- .... ....
....|..|E-1 2F.7 ....|--- .... ....|--- .... ....
....|..|C-4 LF.F ....|--- .... ....|--- .... ....
....|..|C-4 LF.7 ....|--- .... ....|--- .... ....
....|..|C-4 LF.A ....|--- .... ....|--- .... ....
 B-4|..|C-5 VF.F ....|B-4 3F.F ....|B-4 2C.F ....
....|..|R-- .... ....|--- .... ....|--- .... ....
....|..|C-4 LF.7 ....|--- .... ....|--- .... ....
....|..|C-4 LF.A ....|--- .... ....|--- .... ....
....|..|C-4 LF.F ....|--- .... ....|--- .... ....
....|..|C-4 LF.7 ....|--- .... ....|--- .... ....
....|..|C-5 VF.A ....|B-4 3F.A ....|B-4 2F.A ....
....|..|C-4 LF.F ....|--- .... ....|--- .... ....
....|..|R-- .... ....|--- .... ....|--- .... ....
....|..|C-4 LF.7 ....|--- .... ....|--- .... ....
....|..|C-4 LF.A ....|--- .... ....|--- .... ....
....|..|C-4 LF.F ....|--- .... ....|--- .... ....
....|..|C-5 VF.7 ....|B-4 3F.7 ....|B-4 2F.7 ....
....|..|C-4 LF.A ....|--- .... ....|--- .... ....
....|..|C-4 AF.F ....|--- .... ....|--- .... ....
 F#3|..|F#1 2A.F ....|--- .... ....|--- .... ....
....|..|C-4 LF.7 ....|--- .... ....|--- .... ....
....|..|C-4 LF.A ....|--- .... ....|--- .... ....
....|..|C-4 AF.F ....|--- .... ....|--- .... ....
 F#3|..|F#1 2A.F ....|--- .... ....|--- .... ....
....|..|C-4 AF.A ....|--- .... ....|--- .... ....
 E-4|..|C-4 LF.F ....|E-4 3F.F ....|E-4 2C.F ....
....|..|R-- .... ....|--- .... ....|--- .... ....
....|..|C-4 LF.7 ....|--- .... ....|--- .... ....
....|..|C-4 LF.F ....|--- .... ....|--- .... ....
....|..|F#1 2F.A ....|--- .... ....|--- .... ....
....|..|C-4 AF.7 ....|--- .... ....|--- .... ....
....|..|F#1 2F.7 ....|E-4 3F.A ....|E-4 2F.A ....
....|..|C-5 VF.F ....|--- .... ....|--- .... ....
 F#3|..|F#1 2A.F ....|--- .... ....|--- .... ....
....|..|C-4 AF.7 ....|--- .... ....|--- .... ....
....|..|C-4 LF.F ....|--- .... ....|--- .... ....
....|..|R-- .... ....|--- .... ....|--- .... ....
....|..|C-4 LF.7 ....|E-4 3F.7 ....|E-4 2F.7 ....
....|..|C-5 VF.A ....|--- .... ....|--- .... ....
....|..|C-4 AF.F ....|--- .... ....|--- .... ....
 E-3|..|E-1 2A.F ....|--- .... ....|--- .... ....
....|..|C-4 LF.A ....|--- .... ....|--- .... ....
....|..|C-4 AF.F ....|--- .... ....|--- .... ....
 E-3|..|E-1 2A.F ....|--- .... ....|--- .... ....
....|..|C-5 VF.7 ....|--- .... ....|--- .... ....
....|..|F#1 2F.7 ....|--- .... ....|--- .... ....
 A-3|..|C-4 LF.F ....|A-4 3F.F ....|A-4 2C.F ....
....|..|C-4 LF.7 ....|--- .... ....|--- .... ....
....|..|C-4 AF.A ....|--- .... ....|--- .... ....
....|..|C-4 LF.F ....|--- .... ....|--- .... ....
....|..|R-- .... ....|--- .... ....|--- .... ....
....|..|C-4 AF.7 ....|--- .... ....|--- .... ....
....|..|E-1 2F.7 ....|A-4 3F.A ....|A-4 2F.A ....
....|..|C-4 LF.F ....|--- .... ....|--- .... ....
....|..|C-4 AF.7 ....|--- .... ....|--- .... ....
....|..|E-1 2F.7 ....|--- .... ....|--- .... ....
....|..|C-4 LF.F ....|--- .... ....|--- .... ....
....|..|R-- .... ....|--- .... ....|--- .... ....
....|..|C-4 LF.7 ....|A-4 3F.7 ....|A-4 2F.7 ....
....|..|C-4 LF.A ....|--- .... ....|--- .... ....
 D-4|..|C-5 VF.F ....|D-4 3F.F ....|D-4 2C.F ....
 F-3|..|F-1 2A.F ....|--- .... ....|--- .F.. ....
....|..|C-4 LF.A ....|--- .... ....|--- .... ....
....|..|C-4 AF.F ....|--- .... ....|--- .... ....
 G-3|..|G-1 2A.F ....|--- .... ....|--- .F.. ....
....|..|C-4 LF.7 ....|--- .... ....|--- .... ....
....|..|C-5 VF.A ....|D-4 3F.A ....|D-4 2F.A ....
....|..|F-1 2F.A ....|--- .... ....|--- .... ....
....|..|C-4 LF.7 ....|--- .... ....|--- .... ....
....|..|C-4 AF.A ....|--- .... ....|--- .... ....
 E-4|..|G-1 2F.A ....|E-4 3F.F ....|E-4 2C.F ....
....|..|--- .... ....|--- .... ....|--- .... ....
 D-4|..|C-5 VF.7 ....|D-4 3F.F ....|D-4 2C.F ....
....|..|F-1 2F.7 ....|--- .... ....|--- .... ....
 C#4|..|C-4 AF.F ....|C#4 3F.F ....|C#4 2C.F ....
 F#3|..|F#1 2A.F ....|--- .... ....|--- .F.. ....
....|..|G-1 2F.7 ....|E-4 3F.A ....|E-4 2F.A ....
....|..|C-4 AF.F ....|--- .... ....|--- .... ....
 F#3|..|F#1 2A.F ....|D-4 3F.A ....|D-4 2F.A ....
....|..|R-- .... ....|--- .... ....|--- .... ....
....|..|C-4 AF.A ....|C#4 3F.A ....|C#4 2F.A ....
....|..|C-4 LF.F ....|--- .... ....|--- .... ....
....|..|R-- .... ....|E-4 3F.7 ....|E-4 2F.7 ....
....|..|C-4 AF.A ....|--- .... ....|--- .... ....
....|..|C-4 LF.F ....|D-4 3F.7 ....|D-4 2F.7 ....
....|..|R-- .... ....|--- .... ....|--- .... ....
....|..|C-4 AF.7 ....|C#4 3F.7 ....|C#4 2F.7 ....
....|..|F#1 2F.7 ....|--- .... ....|--- .... ....
....|..|C-5 VF.F ....|--- .... ....|--- .... ....
 F#3|..|F#1 2A.F ....|--- .... ....|--- .... ....
....|..|F#1 2F.7 ....|--- .... ....|--- .... ....
....|..|C-4 LF.F ....|--- .... ....|--- .... ....
....|..|R-- .... ....|--- .... ....|--- .... ....
....|..|C-4 LF.7 ....|--- .... ....|--- .... ....
....|..|C-5 VF.A ....|--- .... ....|--- .... ....
....|..|C-4 AF.F ....|--- .... ....|--- .... ....
 E-3|..|E-1 2A.F ....|--- .... ....|--- .... ....
....|..|C-4 LF.A ....|--- .... ....|--- .... ....
....|..|C-4 AF.F ....|--- .... ....|--- .... ....
 E-3|..|E-1 2A.F ....|--- .... ....|--- .... ....
....|..|C-5 VF.7 ....|--- .... ....|--- .... ....
....|..|F#1 2F.7 ....|--- .... ....|--- .... ....
....|..|C-4 LF.F ....|--- .... ....|--- .... ....
....|..|C-4 LF.7 ....|--- .... ....|--- .... ....
....|..|C-4 AF.A ....|--- .... ....|--- .... ....
....|..|C-4 LF.F ....|--- .... ....|--- .... ....
....|..|R-- .... ....|--- .... ....|--- .... ....
....|..|C-4 AF.7 ....|--- .... ....|--- .... ....
....|..|E-1 2F.7 ....|--- .... ....|--- .... ....
....|..|C-4 LF.F ....|--- .... ....|--- .... ....
....|..|C-4 AF.7 ....|--- .... ....|--- .... ....
....|..|E-1 2F.7 ....|--- .... ....|--- .... ....
....|..|C-4 LF.F ....|--- .... ....|--- .... ....
....|..|R-- .... ....|--- .... ....|--- .... ....
....|..|C-4 LF.7 ....|--- .... ....|--- .... ....
....|..|C-4 LF.A ....|--- .... ....|--- .... ....
....|..|C-5 VF.F ....|--- .... ....|--- .... ....
....|..|C-4 LF.7 ....|--- .... ....|--- .... ....
....|..|C-4 LF.A ....|--- .... ....|--- .... ....
....|..|C-4 LF.F ....|--- .... ....|--- .... ....
....|..|R-- .... ....|--- .... ....|--- .... ....
....|..|C-4 LF.7 ....|--- .... ....|--- .... ....
....|..|C-5 VF.A ....|--- .... ....|--- .... ....

[Pattern10]
....|..|C-4 LF.F ....|--- .... ....|--- .... ....
....|..|C-4 LF.7 ....|--- .... ....|--- .... ....
....|..|C-4 LF.A ....|--- .... ....|--- .... ....
....|..|C-4 LF.F ....|--- .... ....|--- .... ....
....|..|R-- .... ....|--- .... ....|--- .... ....
....|..|C-5 VF.7 ....|--- .... ....|--- .... ....
....|..|C-4 LF.A ....|--- .... ....|--- .... ....
 C#4|..|C-4 AF.F ....|C#3 3F.F ....|C#3 2C.F ....
 F#3|..|F#1 2A.F ....|--- .... ....|--- .F.. ....
....|..|C-4 LF.A ....|--- .... ....|--- .... ....
 D-4|..|C-4 AF.F ....|D-3 3F.F ....|D-3 2C.F ....
 F#3|..|F#1 2A.F ....|--- .... ....|--- .F.. ....
....|..|C-4 LF.7 ....|--- .... ....|--- .... ....
....|..|C-4 AF.A ....|C#3 3F.A ....|C#3 2F.A ....
 C#4|..|C-4 LF.F ....|C#3 3F.F ....|C#3 2C.F ....
....|..|C-4 LF.7 ....|--- .... ....|--- .... ....
....|..|C-4 AF.A ....|D-3 3F.A ....|D-3 2F.A ....
 D-4|..|C-4 LF.F ....|D-3 3F.F ....|D-3 2C.F ....
....|..|R-- .... ....|--- .... ....|--- .... ....
....|..|C-4 AF.7 ....|C#3 3F.7 ....|C#3 2F.7 ....
....|..|F#1 2F.7 ....|C#3 3F.A ....|C#3 2F.A ....
 C#4|..|C-5 VF.F ....|C#3 3F.F ....|C#3 2C.F ....
 F#3|..|F#1 2A.F ....|D-3 3F.7 ....|D-3 2F.7 ....
....|..|F#1 2F.7 ....|D-3 3F.A ....|D-3 2F.A ....
 D-4|..|C-4 LF.F ....|D-3 3F.F ....|D-3 2C.F ....
....|..|R-- .... ....|--- .... ....|--- .... ....
....|..|C-4 LF.7 ....|C#3 3F.7 ....|C#3 2F.7 ....
....|..|C-5 VF.A ....|C#3 3F.A ....|C#3 2F.A ....
 C#4|..|C-4 AF.F ....|C#3 3F.F ....|C#3 2C.F ....
 E-3|..|E-1 2A.F ....|D-3 3F.7 ....|D-3 2F.7 ....
....|..|C-4 LF.A ....|D-3 3F.A ....|D-3 2F.A ....
 D-4|..|C-4 AF.F ....|D-3 3F.F ....|D-3 2C.F ....
 E-3|..|E-1 2A.F ....|--- .... ....|--- .F.. ....
....|..|C-5 VF.7 ....|C#3 3F.7 ....|C#3 2F.7 ....
....|..|F#1 2F.7 ....|C#3 3F.A ....|C#3 2F.A ....
 C#4|..|C-4 LF.F ....|C#3 3F.F ....|C#3 2C.F ....
....|..|C-4 LF.7 ....|D-3 3F.7 ....|D-3 2F.7 ....
....|..|C-4 AF.A ....|D-3 3F.A ....|D-3 2F.A ....
 D-4|..|C-5 VF.F ....|D-3 3F.F ....|D-3 2C.F ....
....|..|R-- .... ....|--- .... ....|--- .... ....
....|..|C-4 AF.7 ....|C#3 3F.7 ....|C#3 2F.7 ....
....|..|E-1 2F.7 ....|C#3 3F.A ....|C#3 2F.A ....
 C#4|..|C-5 VF.F ....|C#4 3F.F ....|C#4 2C.F ....
....|..|C-4 AF.7 ....|D-3 3F.7 ....|D-3 2F.7 ....
....|..|E-1 2F.7 ....|D-3 3F.A ....|D-3 2F.A ....
 D-4|..|C-4 AF.F ....|D-4 3F.F ....|D-4 2C.F ....
....|..|R-- .... ....|--- .... ....|--- .... ....
....|..|C-4 LF.7 ....|C#3 3F.7 ....|C#3 2F.7 ....
....|..|C-5 VF.A ....|C#4 3F.A ....|C#4 2F.A ....
 C#4|..|C-5 VF.F ....|C#5 3F.F ....|C#5 2C.F ....
 F-3|..|F-1 2A.F ....|D-3 3F.7 ....|D-3 2F.7 ....
....|..|C-4 AF.A ....|D-4 3F.A ....|D-4 2F.A ....
 D-4|..|C-4 AF.F ....|D-5 3F.F ....|D-5 2C.F ....
 G-3|..|G-1 2A.F ....|--- .... ....|--- .F.. ....
....|..|C-5 VF.7 ....|C#4 3F.7 ....|C#4 2F.7 ....
....|..|C-5 VF.A ....|C#5 3F.A ....|C#5 2F.A ....
 C#4|..|C-5 VF.F ....|C#6 3F.F ....|C#6 2C.F ....
....|..|C-4 AF.7 ....|D-4 3F.7 ....|D-4 2F.7 ....
....|..|C-4 AF.A ....|D-5 3F.A ....|D-5 2F.A ....
 D-4|..|C-4 AF.F ....|D-6 3F.F ....|D-6 2C.F ....
....|..|R-- .... ....|--- .... ....|--- .... ....
....|..|C-5 VF.7 ....|C#5 3F.7 ....|C#5 2F.7 ....
....|..|F-1 2F.7 ....|C#6 3F.A ....|C#6 2F.A ....
 B-4|..|C-4 AF.F ....|B-3 3F.F ....|B-3 2C.F ....
 B-3|..|B-1 2A.F ....|D-5 3F.7 ....|D-5 2F.7 ....
....|..|G-1 2F.7 ....|D-6 3F.A ....|D-6 2F.A ....
 F#4|..|C-4 AF.F ....|F#3 3F.F ....|F#3 2C.F ....
 B-3|..|B-1 2A.F ....|--- .... ....|--- .F.. ....
....|..|C-5 VF.7 ....|C#6 3F.7 ....|C#6 2F.7 ....
....|..|C-4 AF.A ....|B-3 3F.A ....|B-3 2F.A ....
 B-4|..|C-4 LF.F ....|B-3 3F.F ....|B-3 2C.F ....
....|..|C-4 AF.7 ....|D-6 3F.7 ....|D-6 2F.7 ....
....|..|C-4 AF.A ....|F#3 3F.A ....|F#3 2F.A ....
 F#4|..|C-4 LF.F ....|F#3 3F.F ....|F#3 2C.F ....
....|..|R-- .... ....|--- .... ....|--- .... ....
....|..|C-4 AF.7 ....|B-3 3F.7 ....|B-3 2F.7 ....
....|..|B-1 2F.7 ....|B-3 3F.A ....|B-3 2F.A ....
 B-4|..|C-5 VF.F ....|B-3 3F.F ....|B-3 2C.F ....
 B-3|..|B-1 2A.F ....|F#3 3F.7 ....|F#3 2F.7 ....
....|..|B-1 2F.7 ....|F#3 3F.A ....|F#3 2F.A ....
 F#4|..|C-4 LF.F ....|F#3 3F.F ....|F#3 2C.F ....
....|..|R-- .... ....|--- .... ....|--- .... ....
....|..|C-4 LF.7 ....|B-3 3F.7 ....|B-3 2F.7 ....
....|..|C-5 VF.A ....|B-3 3F.A ....|B-3 2F.A ....
 F#4|..|C-4 AF.F ....|F#3 3F.F ....|F#3 2C.F ....
 A-3|..|A-1 2A.F ....|F#3 3F.7 ....|F#3 2F.7 ....
....|..|C-4 LF.A ....|F#3 3F.A ....|F#3 2F.A ....
 B-4|..|C-4 AF.F ....|B-2 3F.F ....|B-2 2A.F ....
 A-3|..|A-1 2A.F ....|--- .... ....|--- .F.. ....
....|..|C-5 VF.7 ....|B-3 3F.7 ....|B-3 2F.7 ....
....|..|B-1 2F.7 ....|F#3 3F.A ....|F#3 2F.A ....
 F#4|..|C-4 LF.F ....|F#3 3F.F ....|F#3 2C.F ....
....|..|C-4 LF.7 ....|F#3 3F.7 ....|F#3 2F.7 ....
....|..|C-4 AF.A ....|B-2 3F.A ....|B-2 2F.A ....
 B-4|..|C-4 LF.F ....|B-2 3F.F ....|B-2 2A.F ....
....|..|R-- .... ....|--- .... ....|--- .... ....
....|..|C-4 AF.7 ....|F#3 3F.7 ....|F#3 2F.7 ....
....|..|A-1 2F.7 ....|F#3 3F.A ....|F#3 2F.A ....
 F#4|..|C-4 LF.F ....|F#3 3F.F ....|F#3 2C.F ....
....|..|C-4 AF.7 ....|B-2 3F.7 ....|B-2 2F.7 ....
....|..|A-1 2F.7 ....|B-2 3F.A ....|B-2 2F.A ....
 B-4|..|C-4 LF.F ....|B-2 3F.F ....|B-2 2A.F ....
....|..|R-- .... ....|--- .... ....|--- .... ....
....|..|C-4 LF.7 ....|F#3 3F.7 ....|F#3 2F.7 ....
....|..|C-4 LF.A ....|F#3 3F.A ....|F#3 2F.A ....
 G-4|..|C-5 VF.F ....|G-3 3F.F ....|G-3 2C.F ....
....|..|C-4 LF.7 ....|B-2 3F.7 ....|B-2 2F.7 ....
....|..|C-4 LF.A ....|B-2 3F.A ....|B-2 2F.A ....
 B-4|..|C-4 LF.F ....|B-2 3F.F ....|B-2 2A.F ....
....|..|R-- .... ....|--- .... ....|--- .... ....
....|..|C-4 LF.7 ....|F#3 3F.7 ....|F#3 2F.7 ....
....|..|C-5 VF.A ....|G-3 3F.A ....|G-3 2F.A ....
 G-4|..|C-4 LF.F ....|G-3 3F.F ....|G-3 2C.F ....
....|..|C-4 LF.7 ....|B-2 3F.7 ....|B-2 2F.7 ....
....|..|C-4 LF.A ....|B-2 3F.A ....|B-2 2F.A ....
 B-4|..|C-4 LF.F ....|B-2 3F.F ....|B-2 2A.F ....
....|..|R-- .... ....|--- .... ....|--- .... ....
....|..|C-5 VF.7 ....|G-3 3F.7 ....|G-3 2F.7 ....
....|..|C-4 LF.A ....|G-3 3F.A ....|G-3 2F.A ....
 G-4|..|C-4 AF.F ....|G-3 3F.F ....|G-3 2C.F ....
 B-3|..|B-1 2A.F ....|B-2 3F.7 ....|B-2 2F.7 ....
....|..|C-4 LF.A ....|B-2 3F.A ....|B-2 2F.A ....
 B-4|..|C-4 AF.F ....|B-2 3F.F ....|B-2 2A.F ....
 B-3|..|B-1 2A.F ....|--- .... ....|--- .... ....
....|..|C-4 LF.7 ....|G-3 3F.7 ....|G-3 2F.7 ....
....|..|C-4 AF.A ....|G-3 3F.A ....|G-3 2F.A ....
 E-4|..|C-4 LF.F ....|E-3 3F.F ....|E-3 2C.F ....
....|..|C-4 LF.7 ....|B-2 3F.7 ....|B-2 2F.7 ....

[Pattern11]
....|..|C-4 AF.A ....|B-2 3F.A ....|B-2 2F.A ....
 B-4|..|C-4 LF.F ....|B-2 3F.F ....|B-2 2A.F ....
....|..|R-- .... ....|--- .... ....|--- .... ....
....|..|C-4 AF.7 ....|G-3 3F.7 ....|G-3 2F.7 ....
....|..|B-1 2F.7 ....|E-3 3F.A ....|E-3 2F.A ....
 E-4|..|C-5 VF.F ....|E-3 3F.F ....|E-3 2C.F ....
 B-3|..|B-1 2A.F ....|B-2 3F.7 ....|B-2 2F.7 ....
....|..|B-1 2F.7 ....|B-2 3F.A ....|B-2 2F.A ....
 B-4|..|C-4 LF.F ....|B-2 3F.F ....|B-2 2A.F ....
....|..|R-- .... ....|--- .... ....|--- .... ....
....|..|C-4 LF.7 ....|E-3 3F.7 ....|E-3 2F.7 ....
....|..|C-5 VF.A ....|E-3 3F.A ....|E-3 2F.A ....
 E-4|..|C-4 AF.F ....|E-3 3F.F ....|E-3 2C.F ....
 A-3|..|A-1 2A.F ....|B-2 3F.7 ....|B-2 2F.7 ....
....|..|C-4 LF.A ....|B-2 3F.A ....|B-2 2F.A ....
 B-4|..|C-4 AF.F ....|B-2 3F.F ....|B-2 2A.F ....
 A-3|..|A-1 2A.F ....|--- .... ....|--- .F.. ....
....|..|C-5 VF.7 ....|E-3 3F.7 ....|E-3 2F.7 ....
....|..|B-1 2F.7 ....|E-3 3F.A ....|E-3 2F.A ....
 F#4|..|C-4 LF.F ....|F#3 3F.F ....|F#3 2C.F ....
....|..|C-4 LF.7 ....|B-2 3F.7 ....|B-2 2F.7 ....
....|..|C-4 AF.A ....|B-2 3F.A ....|B-2 2F.A ....
 B-4|..|C-4 LF.F ....|B-2 3F.F ....|B-2 2A.F ....
....|..|R-- .... ....|--- .... ....|--- .... ....
....|..|C-4 AF.7 ....|E-3 3F.7 ....|E-3 2F.7 ....
....|..|A-1 2F.7 ....|F#3 3F.A ....|F#3 2F.A ....
 F#4|..|C-4 LF.F ....|F#3 3F.F ....|F#3 2C.F ....
....|..|C-4 AF.7 ....|B-2 3F.7 ....|B-2 2F.7 ....
....|..|A-1 2F.7 ....|B-2 3F.A ....|B-2 2F.A ....
 B-4|..|C-4 LF.F ....|B-2 3F.F ....|B-2 2A.F ....
....|..|R-- .... ....|--- .... ....|--- .... ....
....|..|C-4 LF.7 ....|F#3 3F.7 ....|F#3 2F.7 ....
....|..|C-4 LF.A ....|F#3 3F.A ....|F#3 2F.A ....
 B-4|..|C-5 VF.F ....|B-3 3F.F ....|B-3 2C.F ....
 A#3|..|A#1 2A.F ....|B-2 3F.7 ....|B-2 2F.7 ....
....|..|C-4 LF.A ....|B-2 3F.A ....|B-2 2F.A ....
 F#4|..|C-4 AF.F ....|F#3 3F.F ....|F#3 2C.F ....
 C-4|..|C-2 2A.F ....|--- .... ....|--- .F.. ....
....|..|C-4 LF.7 ....|F#3 3F.7 ....|F#3 2F.7 ....
....|..|C-5 VF.A ....|B-3 3F.A ....|B-3 2F.A ....
 B-4|..|A#1 2F.A ....|B-3 3F.F ....|B-3 2C.F ....
....|..|C-4 LF.7 ....|B-2 3F.7 ....|B-2 2F.7 ....
....|..|C-4 AF.A ....|F#3 3F.A ....|F#3 2F.A ....
 F#4|..|C-2 2F.A ....|F#3 3F.F ....|F#3 2C.F ....
....|..|--- .... ....|--- .... ....|--- .... ....
....|..|C-5 VF.7 ....|B-3 3F.7 ....|B-3 2F.7 ....
....|..|A#1 2F.7 ....|B-3 3F.A ....|B-3 2F.A ....
 C-3|..|C-4 AF.F ....|C-4 3F.F ....|C-4 2C.F ....
 B-3|..|B-1 2A.F ....|F#3 3F.7 ....|F#3 2F.7 ....
....|..|C-2 2F.7 ....|F#3 3F.A ....|F#3 2F.A ....
 F#4|..|C-4 AF.F ....|F#3 3F.F ....|F#3 2C.F ....
 B-3|..|B-1 2A.F ....|--- .... ....|--- .F.. ....
....|..|R-- .... ....|B-3 3F.7 ....|B-3 2F.7 ....
....|..|C-4 AF.A ....|C-4 3F.A ....|C-4 2F.A ....
 C-3|..|C-4 LF.F ....|C-4 3F.F ....|C-4 2C.F ....
....|..|R-- .... ....|F#3 3F.7 ....|F#3 2F.7 ....
....|..|C-4 AF.A ....|F#3 3F.A ....|F#3 2F.A ....
 F#4|..|C-4 LF.F ....|F#3 3F.F ....|F#3 2C.F ....
....|..|R-- .... ....|--- .... ....|--- .... ....
....|..|C-4 AF.7 ....|C-4 3F.7 ....|C-4 2F.7 ....
....|..|B-1 2F.7 ....|C-4 3F.A ....|C-4 2F.A ....
 C-3|..|C-5 VF.F ....|C-4 3F.F ....|C-4 2C.F ....
 B-3|..|B-1 2A.F ....|F#3 3F.7 ....|F#3 2F.7 ....
....|..|B-1 2F.7 ....|F#3 3F.A ....|F#3 2F.A ....
 F#4|..|C-4 LF.F ....|F#3 3F.F ....|F#3 2C.F ....
....|..|R-- .... ....|--- .... ....|--- .... ....
....|..|C-4 LF.7 ....|C-4 3F.7 ....|C-4 2F.7 ....
....|..|C-5 VF.A ....|C-4 3F.A ....|C-4 2F.A ....
 A-3|..|C-4 AF.F ....|A-3 3F.F ....|A-3 2C.F ....
 A-3|..|A-1 2A.F ....|F#3 3F.7 ....|F#3 2F.7 ....
....|..|C-4 LF.A ....|F#3 3F.A ....|F#3 2F.A ....
 E-4|..|C-4 AF.F ....|E-3 3F.F ....|E-3 2C.F ....
 A-3|..|A-1 2A.F ....|--- .... ....|--- .F.. ....
....|..|C-5 VF.7 ....|C-4 3F.7 ....|C-4 2F.7 ....
....|..|B-1 2F.7 ....|A-3 3F.A ....|A-3 2F.A ....
 A-3|..|C-4 LF.F ....|A-3 3F.F ....|A-3 2C.F ....
....|..|C-4 LF.7 ....|F#3 3F.7 ....|F#3 2F.7 ....
....|..|C-4 AF.A ....|E-3 3F.A ....|E-3 2F.A ....
 E-4|..|C-4 LF.F ....|E-3 3F.F ....|E-3 2C.F ....
....|..|R-- .... ....|--- .... ....|--- .... ....
....|..|C-4 AF.7 ....|A-3 3F.7 ....|A-3 2F.7 ....
....|..|A-1 2F.7 ....|A-3 3F.A ....|A-3 2F.A ....
 A-3|..|C-4 LF.F ....|A-3 3F.F ....|A-3 2C.F ....
....|..|C-4 AF.7 ....|E-3 3F.7 ....|E-3 2F.7 ....
....|..|A-1 2F.7 ....|E-3 3F.A ....|E-3 2F.A ....
 E-4|..|C-4 LF.F ....|E-3 3F.F ....|E-3 2C.F ....
....|..|R-- .... ....|--- .... ....|--- .... ....
....|..|C-4 LF.7 ....|A-3 3F.7 ....|A-3 2F.7 ....
....|..|C-4 LF.A ....|A-3 3F.A ....|A-3 2F.A ....
 B-4|..|C-5 VF.F ....|B-3 3F.F ....|B-3 2C.F ....
....|..|C-4 LF.7 ....|E-3 3F.7 ....|E-3 2F.7 ....
....|..|C-4 LF.A ....|E-3 3F.A ....|E-3 2F.A ....
 F#4|..|C-4 LF.F ....|F#3 3F.F ....|F#3 2C.F ....
....|..|R-- .... ....|--- .... ....|--- .... ....
....|..|C-4 LF.7 ....|A-3 3F.7 ....|A-3 2F.7 ....
....|..|C-5 VF.A ....|B-3 3F.A ....|B-3 2F.A ....
 B-4|..|C-4 LF.F ....|B-3 3F.F ....|B-3 2C.F ....
....|..|C-4 LF.7 ....|E-3 3F.7 ....|E-3 2F.7 ....
....|..|C-4 LF.A ....|F#3 3F.A ....|F#3 2F.A ....
 F#4|..|C-4 LF.F ....|F#3 3F.F ....|F#3 2C.F ....
....|..|R-- .... ....|--- .... ....|--- .... ....
....|..|C-5 VF.7 ....|B-3 3F.7 ....|B-3 2F.7 ....
....|..|C-4 LF.A ....|B-3 3F.A ....|B-3 2F.A ....
 B-4|..|C-4 AF.F ....|B-3 3F.F ....|B-3 2C.F ....
 B-3|..|B-1 2A.F ....|F#3 3F.7 ....|F#3 2F.7 ....
....|..|C-4 LF.A ....|F#3 3F.A ....|F#3 2F.A ....
 F#4|..|C-4 AF.F ....|F#3 3F.F ....|F#3 2C.F ....
 B-3|..|B-1 2A.F ....|--- .... ....|--- .F.. ....
....|..|C-4 LF.7 ....|B-3 3F.7 ....|B-3 2F.7 ....
....|..|C-4 AF.A ....|B-3 3F.A ....|B-3 2F.A ....
 F#3|..|C-4 LF.F ....|F#4 3F.F ....|F#4 2C.F ....
....|..|C-4 LF.7 ....|F#3 3F.7 ....|F#3 2F.7 ....
....|..|C-4 AF.A ....|F#3 3F.A ....|F#3 2F.A ....
 B-4|..|C-4 LF.F ....|B-3 3F.F ....|B-3 2C.F ....
....|..|R-- .... ....|--- .... ....|--- .... ....
....|..|C-4 AF.7 ....|B-3 3F.7 ....|B-3 2F.7 ....
....|..|B-1 2F.7 ....|F#4 3F.A ....|F#4 2F.A ....
 F#3|..|C-5 VF.F ....|F#4 3F.F ....|F#4 2C.F ....
 B-3|..|B-1 2A.F ....|F#3 3F.7 ....|F#3 2F.7 ....
....|..|B-1 2F.7 ....|B-3 3F.A ....|B-3 2F.A ....
 B-4|..|C-4 LF.F ....|B-3 3F.F ....|B-3 2C.F ....
....|..|R-- .... ....|--- .... ....|--- .... ....
....|..|C-4 LF.7 ....|F#4 3F.7 ....|F#4 2F.7 ....
....|..|C-5 VF.A ....|F#4 3F.A ....|F#4 2F.A ....
 F#3|..|C-4 AF.F ....|F#4 3F.F ....|F#4 2C.F ....
 A-3|..|A-1 2A.F ....|B-3 3F.7 ....|B-3 2F.7 ....
....|..|C-4 LF.A ....|B-3 3F.A ....|B-3 2F.A ....
 B-4|..|C-4 AF.F ....|B-3 3F.F ....|B-3 2C.F ....

[Pattern12]
 A-3|..|A-1 2A.F ....|--- .... ....|--- .F.. ....
....|..|C-5 VF.7 ....|F#4 3F.7 ....|F#4 2F.7 ....
....|..|B-1 2F.7 ....|F#4 3F.A ....|F#4 2F.A ....
 G-4|..|C-4 LF.F ....|G-4 3F.F ....|G-4 2C.F ....
....|..|C-4 LF.7 ....|B-3 3F.7 ....|B-3 2F.7 ....
....|..|C-4 AF.A ....|B-3 3F.A ....|B-3 2F.A ....
 B-4|..|C-4 LF.F ....|B-3 3F.F ....|B-3 2C.F ....
....|..|R-- .... ....|--- .... ....|--- .... ....
....|..|C-4 AF.7 ....|F#4 3F.7 ....|F#4 2F.7 ....
....|..|A-1 2F.7 ....|G-4 3F.A ....|G-4 2F.A ....
 G-4|..|C-4 LF.F ....|G-4 3F.F ....|G-4 2C.F ....
....|..|C-4 AF.7 ....|B-3 3F.7 ....|B-3 2F.7 ....
....|..|A-1 2F.7 ....|B-3 3F.A ....|B-3 2F.A ....
 B-4|..|C-4 LF.F ....|B-3 3F.F ....|B-3 2C.F ....
....|..|R-- .... ....|--- .... ....|--- .... ....
....|..|C-4 LF.7 ....|G-4 3F.7 ....|G-4 2F.7 ....
....|..|C-4 LF.A ....|G-4 3F.A ....|G-4 2F.A ....
 E-4|..|C-5 VF.F ....|E-4 3F.F ....|E-4 2C.F ....
 A#3|..|A#1 2A.F ....|B-3 3F.7 ....|B-3 2F.7 ....
....|..|C-4 LF.A ....|B-3 3F.A ....|B-3 2F.A ....
 B-4|..|C-4 AF.F ....|B-3 3F.F ....|B-3 2C.F ....
 C-4|..|C-2 2A.F ....|--- .... ....|--- .F.. ....
....|..|C-4 LF.7 ....|G-4 3F.7 ....|G-4 2F.7 ....
....|..|C-5 VF.A ....|E-4 3F.A ....|E-4 2F.A ....
 E-4|..|A#1 2F.A ....|E-4 3F.F ....|E-4 2C.F ....
....|..|C-4 LF.7 ....|B-3 3F.7 ....|B-3 2F.7 ....
....|..|C-4 AF.A ....|B-3 3F.A ....|B-3 2F.A ....
 B-4|..|C-2 2F.A ....|B-3 3F.F ....|B-3 2C.F ....
....|..|--- .... ....|--- .... ....|--- .... ....
....|..|C-5 VF.7 ....|E-4 3F.7 ....|E-4 2F.7 ....
....|..|A#1 2F.7 ....|E-4 3F.A ....|E-4 2F.A ....
 F#3|..|C-4 AF.F ....|F#4 3F.F ....|F#4 2C.F ....
 B-3|..|B-1 2A.F ....|B-3 3F.7 ....|B-3 2F.7 ....
....|..|C-2 2F.7 ....|B-3 3F.A ....|B-3 2F.A ....
 B-4|..|C-4 AF.F ....|B-3 3F.F ....|B-3 2C.F ....
 B-3|..|B-1 2A.F ....|--- .... ....|--- .... ....
....|..|R-- .... ....|E-4 3F.7 ....|E-4 2F.7 ....
....|..|C-4 AF.A ....|F#4 3F.A ....|F#4 2F.A ....
 F#3|..|C-4 LF.F ....|F#4 3F.F ....|F#4 2C.F ....
....|..|R-- .... ....|B-3 3F.7 ....|B-3 2F.7 ....
....|..|C-4 AF.A ....|B-3 3F.A ....|B-3 2F.A ....
 B-4|..|C-4 LF.F ....|B-3 3F.F ....|B-3 2C.F ....
....|..|R-- .... ....|--- .... ....|--- .... ....
....|..|C-4 AF.7 ....|F#4 3F.7 ....|F#4 2F.7 ....
....|..|B-1 2F.7 ....|F#4 3F.A ....|F#4 2F.A ....
 F#3|..|C-5 VF.F ....|F#4 3F.F ....|F#4 2C.F ....
 B-3|..|B-1 2A.F ....|B-3 3F.7 ....|B-3 2F.7 ....
....|..|B-1 2F.7 ....|B-3 3F.A ....|B-3 2F.A ....
 B-4|..|C-4 LF.F ....|B-3 3F.F ....|B-3 2C.F ....
....|..|R-- .... ....|--- .... ....|--- .... ....
....|..|C-4 LF.7 ....|F#4 3F.7 ....|F#4 2F.7 ....
....|..|C-5 VF.A ....|F#4 3F.A ....|F#4 2F.A ....
 B-4|..|C-4 AF.F ....|B-3 3F.F ....|B-3 2C.F ....
 A-3|..|A-1 2A.F ....|B-3 3F.7 ....|B-3 2F.7 ....
....|..|C-4 LF.A ....|B-3 3F.A ....|B-3 2F.A ....
 F#4|..|C-4 AF.F ....|F#3 3F.F ....|F#3 2C.F ....
 A-3|..|A-1 2A.F ....|--- .... ....|--- .F.. ....
....|..|C-5 VF.7 ....|F#4 3F.7 ....|F#4 2F.7 ....
....|..|B-1 2F.7 ....|B-3 3F.A ....|B-3 2F.A ....
 B-4|..|C-4 LF.F ....|B-3 3F.F ....|B-3 2C.F ....
....|..|C-4 LF.7 ....|B-3 3F.7 ....|B-3 2F.7 ....
....|..|C-4 AF.A ....|F#3 3F.A ....|F#3 2F.A ....
 F#4|..|C-4 LF.F ....|F#3 3F.F ....|F#3 2C.F ....
....|..|R-- .... ....|--- .... ....|--- .... ....
....|..|C-4 AF.7 ....|B-3 3F.7 ....|B-3 2F.7 ....
....|..|A-1 2F.7 ....|B-3 3F.A ....|B-3 2F.A ....
 B-4|..|C-4 LF.F ....|B-3 3F.F ....|B-3 2C.F ....
....|..|C-4 AF.7 ....|F#3 3F.7 ....|F#3 2F.7 ....
....|..|A-1 2F.7 ....|F#3 3F.A ....|F#3 2F.A ....
 F#4|..|C-4 LF.F ....|F#3 3F.F ....|F#3 2C.F ....
....|..|R-- .... ....|--- .... ....|--- .... ....
....|..|C-4 LF.7 ....|B-3 3F.7 ....|B-3 2F.7 ....
....|..|C-4 LF.A ....|B-3 3F.A ....|B-3 2F.A ....
 E-4|..|C-5 VF.F ....|E-4 3F.F ....|E-4 2C.F ....
....|..|C-4 LF.7 ....|F#3 3F.7 ....|F#3 2F.7 ....
....|..|C-4 LF.A ....|F#3 3F.A ....|F#3 2F.A ....
 A-3|..|C-4 LF.F ....|A-3 3F.F ....|A-3 2C.F ....
....|..|R-- .... ....|--- .... ....|--- .... ....
....|..|C-4 LF.7 ....|B-3 3F.7 ....|B-3 2F.7 ....
....|..|C-5 VF.A ....|E-4 3F.A ....|E-4 2F.A ....
 E-4|..|C-4 LF.F ....|E-4 3F.F ....|E-4 2C.F ....
....|..|C-4 LF.7 ....|F#3 3F.7 ....|F#3 2F.7 ....
....|..|C-4 LF.A ....|A-3 3F.A ....|A-3 2F.A ....
 A-3|..|C-4 LF.F ....|A-3 3F.F ....|A-3 2C.F ....
....|..|R-- .... ....|--- .... ....|--- .... ....
....|..|C-5 VF.7 ....|E-4 3F.7 ....|E-4 2F.7 ....
....|..|C-4 LF.A ....|E-4 3F.A ....|E-4 2F.A ....
 E-4|..|C-4 AF.F ....|E-4 3F.F ....|E-4 2C.F ....
 B-3|..|B-1 2A.F ....|A-3 3F.7 ....|A-3 2F.7 ....
....|..|C-4 LF.A ....|A-3 3F.A ....|A-3 2F.A ....
 A-3|..|C-4 AF.F ....|A-3 3F.F ....|A-3 2C.F ....
 B-3|..|B-1 2A.F ....|--- .... ....|--- .F.. ....
....|..|C-4 LF.7 ....|E-4 3F.7 ....|E-4 2F.7 ....
....|..|C-4 AF.A ....|E-4 3F.A ....|E-4 2F.A ....
 A-3|..|C-4 LF.F ....|A-3 3F.F ....|A-3 2C.F ....
....|..|C-4 LF.7 ....|A-3 3F.7 ....|A-3 2F.7 ....
....|..|C-4 AF.A ....|A-3 3F.A ....|A-3 2F.A ....
 E-4|..|C-4 LF.F ....|E-3 3F.F ....|E-3 2C.F ....
....|..|R-- .... ....|--- .... ....|--- .... ....
....|..|C-4 AF.7 ....|E-4 3F.7 ....|E-4 2F.7 ....
....|..|B-1 2F.7 ....|A-3 3F.A ....|A-3 2F.A ....
 A-3|..|C-5 VF.F ....|A-3 3F.F ....|A-3 2C.F ....
 B-3|..|B-1 2A.F ....|A-3 3F.7 ....|A-3 2F.7 ....
....|..|B-1 2F.7 ....|E-3 3F.A ....|E-3 2F.A ....
 E-4|..|C-4 LF.F ....|E-3 3F.F ....|E-3 2C.F ....
....|..|R-- .... ....|--- .... ....|--- .... ....
....|..|C-4 LF.7 ....|A-3 3F.7 ....|A-3 2F.7 ....
....|..|C-5 VF.A ....|A-3 3F.A ....|A-3 2F.A ....
 A-3|..|C-4 AF.F ....|A-3 3F.F ....|A-3 2C.F ....
 A-3|..|A-1 2A.F ....|E-3 3F.7 ....|E-3 2F.7 ....
....|..|C-4 LF.A ....|E-3 3F.A ....|E-3 2F.A ....
 E-4|..|C-4 AF.F ....|E-3 3F.F ....|E-3 2C.F ....
 A-3|..|A-1 2A.F ....|--- .... ....|--- .F.. ....
....|..|C-5 VF.7 ....|A-3 3F.7 ....|A-3 2F.7 ....
....|..|B-1 2F.7 ....|A-3 3F.A ....|A-3 2F.A ....
 D-4|..|C-4 LF.F ....|D-4 3F.F ....|D-4 2C.F ....
....|..|C-4 LF.7 ....|E-3 3F.7 ....|E-3 2F.7 ....
....|..|C-4 AF.A ....|E-3 3F.A ....|E-3 2F.A ....
 G-4|..|C-4 LF.F ....|G-3 3F.F ....|G-3 2C.F ....
....|..|R-- .... ....|--- .... ....|--- .... ....
....|..|C-4 AF.7 ....|A-3 3F.7 ....|A-3 2F.7 ....
....|..|A-1 2F.7 ....|D-4 3F.A ....|D-4 2F.A ....
 D-4|..|C-4 LF.F ....|D-4 3F.F ....|D-4 2C.F ....
....|..|C-4 AF.7 ....|E-3 3F.7 ....|E-3 2F.7 ....
....|..|A-1 2F.7 ....|G-3 3F.A ....|G-3 2F.A ....
 G-4|..|C-4 LF.F ....|G-3 3F.F ....|G-3 2C.F ....
....|..|R-- .... ....|--- .... ....|--- .... ....
....|..|C-4 LF.7 ....|D-4 3F.7 ....|D-4 2F.7 ....

[Pattern13]
....|..|C-4 LF.A ....|D-4 3F.A ....|D-4 2F.A ....
 G-4|..|C-5 VF.F ....|G-3 3F.F ....|G-3 2C.F ....
 A#3|..|A#1 2A.F ....|G-3 3F.7 ....|G-3 2F.7 ....
....|..|C-4 LF.A ....|G-3 3F.A ....|G-3 2F.A ....
 D-4|..|C-4 AF.F ....|D-3 3F.F ....|D-3 2C.F ....
 C-4|..|C-2 2A.F ....|--- .... ....|--- .F.. ....
....|..|C-4 LF.7 ....|D-4 3F.7 ....|D-4 2F.7 ....
....|..|C-5 VF.A ....|G-3 3F.A ....|G-3 2F.A ....
 G-4|..|A#1 2F.A ....|G-3 3F.F ....|G-3 2C.F ....
....|..|C-4 LF.7 ....|G-3 3F.7 ....|G-3 2F.7 ....
....|..|C-4 AF.A ....|D-3 3F.A ....|D-3 2F.A ....
 A-3|..|C-2 2F.A ....|A-3 3F.F ....|A-3 2C.F ....
 D-4|..|--- .... ....|D-3 3F.F ....|D-3 2C.F ....
 G-4|..|C-5 VF.7 ....|G-3 3F.F ....|G-3 2C.F ....
 B-4|..|A#1 2F.7 ....|B-2 3F.F ....|B-2 2A.F ....
 F#4|..|C-4 AF.F ....|F#3 3F.F ....|F#3 2C.F ....
 B-3|..|B-1 2A.F ....|D-3 3F.7 ....|D-3 2F.7 ....
....|..|C-2 2F.7 ....|A-3 3F.A ....|A-3 2F.A ....
 B-4|..|C-4 AF.F ....|B-2 3F.F ....|B-2 2A.F ....
 B-3|..|B-1 2A.F ....|G-3 3F.A ....|G-3 2F.A ....
....|..|R-- .... ....|G-3 3F.7 ....|G-3 2F.7 ....
....|..|C-4 AF.A ....|F#3 3F.A ....|F#3 2F.A ....
 F#4|..|C-4 LF.F ....|F#3 3F.F ....|F#3 2C.F ....
....|..|R-- .... ....|A-3 3F.7 ....|A-3 2F.7 ....
....|..|C-4 AF.A ....|D-3 3F.7 ....|D-3 2F.7 ....
 B-4|..|C-4 LF.F ....|B-2 3F.F ....|B-2 2A.F ....
....|..|R-- .... ....|B-2 3F.7 ....|B-2 2F.7 ....
....|..|C-4 AF.7 ....|F#3 3F.7 ....|F#3 2F.7 ....
....|..|B-1 2F.7 ....|F#3 3F.A ....|F#3 2F.A ....
 F#4|..|C-5 VF.F ....|F#3 3F.F ....|F#3 2C.F ....
 B-3|..|B-1 2A.F ....|B-2 3F.7 ....|B-2 2F.7 ....
....|..|B-1 2F.7 ....|B-2 3F.A ....|B-2 2F.A ....
 B-4|..|C-4 LF.F ....|B-2 3F.F ....|B-2 2A.F ....
....|..|R-- .... ....|--- .... ....|--- .... ....
....|..|C-4 LF.7 ....|F#3 3F.7 ....|F#3 2F.7 ....
....|..|C-5 VF.A ....|F#3 3F.A ....|F#3 2F.A ....
 F#4|..|C-4 AF.F ....|F#3 3F.F ....|F#3 2C.F ....
 A-3|..|A-1 2A.F ....|B-2 3F.7 ....|B-2 2F.7 ....
....|..|C-4 LF.A ....|B-2 3F.A ....|B-2 2F.A ....
 B-4|..|C-4 AF.F ....|B-2 3F.F ....|B-2 2A.F ....
 A-3|..|A-1 2A.F ....|--- .... ....|--- .F.. ....
....|..|C-5 VF.7 ....|F#3 3F.7 ....|F#3 2F.7 ....
....|..|B-1 2F.7 ....|F#3 3F.A ....|F#3 2F.A ....
 F#4|..|C-4 LF.F ....|F#3 3F.F ....|F#3 2C.F ....
....|..|C-4 LF.7 ....|B-2 3F.7 ....|B-2 2F.7 ....
....|..|C-4 AF.A ....|B-2 3F.A ....|B-2 2F.A ....
 B-4|..|C-4 LF.F ....|B-2 3F.F ....|B-2 2A.F ....
....|..|R-- .... ....|--- .... ....|--- .... ....
....|..|C-4 AF.7 ....|F#3 3F.7 ....|F#3 2F.7 ....
....|..|A-1 2F.7 ....|F#3 3F.A ....|F#3 2F.A ....
 F#4|..|C-4 LF.F ....|F#3 3F.F ....|F#3 2C.F ....
....|..|C-4 AF.7 ....|B-2 3F.7 ....|B-2 2F.7 ....
....|..|A-1 2F.7 ....|B-2 3F.A ....|B-2 2F.A ....
 B-4|..|C-4 LF.F ....|B-2 3F.F ....|B-2 2A.F ....
....|..|R-- .... ....|--- .... ....|--- .... ....
....|..|C-4 LF.7 ....|F#3 3F.7 ....|F#3 2F.7 ....
....|..|C-4 LF.A ....|F#3 3F.A ....|F#3 2F.A ....
 F#4|..|C-5 VF.F ....|F#3 3F.F ....|F#3 2C.F ....
....|..|C-4 LF.7 ....|B-2 3F.7 ....|B-2 2F.7 ....
....|..|C-4 LF.A ....|B-2 3F.A ....|B-2 2F.A ....
 B-4|..|C-4 LF.F ....|B-2 3F.F ....|B-2 2A.F ....
....|..|R-- .... ....|--- .... ....|--- .... ....
....|..|C-4 LF.7 ....|F#3 3F.7 ....|F#3 2F.7 ....
....|..|C-5 VF.A ....|F#3 3F.A ....|F#3 2F.A ....
 F#4|..|C-4 LF.F ....|F#3 3F.F ....|F#3 2C.F ....
....|..|C-4 LF.7 ....|B-2 3F.7 ....|B-2 2F.7 ....
....|..|C-4 LF.A ....|B-2 3F.A ....|B-2 2F.A ....
 B-4|..|C-4 LF.F ....|B-2 3F.F ....|B-2 2A.F ....
....|..|R-- .... ....|--- .... ....|--- .... ....
....|..|C-5 VF.7 ....|F#3 3F.7 ....|F#3 2F.7 ....
....|..|C-4 LF.A ....|F#3 3F.A ....|F#3 2F.A ....
 F#4|..|C-4 AF.F ....|F#3 3F.F ....|F#3 2C.F ....
 B-3|..|B-1 2A.F ....|B-2 3F.7 ....|B-2 2F.7 ....
....|..|C-4 LF.A ....|B-2 3F.A ....|B-2 2F.A ....
 B-4|..|C-4 AF.F ....|B-2 3F.F ....|B-2 2A.F ....
 B-3|..|B-1 2A.F ....|--- .... ....|--- .... ....
....|..|C-4 LF.7 ....|F#3 3F.7 ....|F#3 2F.7 ....
....|..|C-4 AF.A ....|F#3 3F.A ....|F#3 2F.A ....
 G-4|..|C-4 LF.F ....|G-3 3F.F ....|G-3 2C.F ....
....|..|C-4 LF.7 ....|B-2 3F.7 ....|B-2 2F.7 ....
....|..|C-4 AF.A ....|B-2 3F.A ....|B-2 2F.A ....
 B-4|..|C-4 LF.F ....|B-2 3F.F ....|B-2 2A.F ....
....|..|R-- .... ....|--- .... ....|--- .... ....
....|..|C-4 AF.7 ....|F#3 3F.7 ....|F#3 2F.7 ....
....|..|B-1 2F.7 ....|G-3 3F.A ....|G-3 2F.A ....
 F#4|..|C-5 VF.F ....|F#3 3F.F ....|F#3 2C.F ....
 B-3|..|B-1 2A.F ....|B-2 3F.7 ....|B-2 2F.7 ....
....|..|B-1 2F.7 ....|B-2 3F.A ....|B-2 2F.A ....
 B-4|..|C-4 LF.F ....|B-2 3F.F ....|B-2 2A.F ....
....|..|R-- .... ....|--- .... ....|--- .... ....
....|..|C-4 LF.7 ....|G-3 3F.7 ....|G-3 2F.7 ....
....|..|C-5 VF.A ....|F#3 3F.A ....|F#3 2F.A ....
 G-4|..|C-4 AF.F ....|G-3 3F.F ....|G-3 2C.F ....
 A-3|..|A-1 2A.F ....|B-2 3F.7 ....|B-2 2F.7 ....
....|..|C-4 LF.A ....|B-2 3F.A ....|B-2 2F.A ....
 B-4|..|C-4 AF.F ....|B-2 3F.F ....|B-2 2A.F ....
 A-3|..|A-1 2A.F ....|--- .... ....|--- .F.. ....
....|..|C-5 VF.7 ....|F#3 3F.7 ....|F#3 2F.7 ....
....|..|B-1 2F.7 ....|G-3 3F.A ....|G-3 2F.A ....
 F#3|..|C-4 LF.F ....|F#4 3F.F ....|F#4 2C.F ....
....|..|C-4 LF.7 ....|B-2 3F.7 ....|B-2 2F.7 ....
....|..|C-4 AF.A ....|B-2 3F.A ....|B-2 2F.A ....
 B-4|..|C-4 LF.F ....|B-3 3F.F ....|B-3 2C.F ....
....|..|R-- .... ....|--- .... ....|--- .... ....
....|..|C-4 AF.7 ....|G-3 3F.7 ....|G-3 2F.7 ....
 G-4|..|C-4 LF.F ....|B-3 3F1F ....|G-4 2C.F ....
 G-4|..|R-- .... ....|G-4 3F.F ....|G-4 2C.F ....
....|..|C-4 AF.7 ....|B-2 3F.7 ....|B-2 2F.7 ....
....|..|A-1 2F.7 ....|B-3 3F.A ....|B-3 2F.A ....
 B-4|..|C-4 LF.F ....|B-3 3F.F ....|B-3 2C.F ....
....|..|R-- .... ....|--- .... ....|--- .... ....
....|..|C-4 LF.7 ....|F#4 3F.7 ....|F#4 2F.7 ....
 F#3|..|C-5 VF.F ....|F#5 3F.F ....|F#5 2C.F ....
 A#3|..|A#1 2A.F ....|--- .... ....|--- .F.. ....
....|..|C-4 LF.7 ....|B-3 3F.7 ....|B-3 2F.7 ....
....|..|C-4 LF.A ....|B-3 3F.A ....|B-3 2F.A ....
 B-4|..|C-4 AF.F ....|B-4 3F.F ....|B-4 2C.F ....
 C-4|..|C-2 2A.F ....|B-3 3F17 ....|G-4 2F.7 ....
....|..|C-5 VF.A ....|G-4 3F.7 ....|G-4 2F.7 ....
 G-4|..|A#1 2F.A ....|G-5 3F.F ....|G-5 2C.F ....
....|..|R-- .... ....|--- .... ....|--- .... ....
....|..|C-4 LF.7 ....|B-3 3F.7 ....|B-3 2F.7 ....
....|..|C-4 AF.A ....|B-4 3F.A ....|B-4 2F.A ....
 B-4|..|C-2 2F.A ....|B-4 3F.F ....|B-4 2C.F ....
....|..|C-5 VF.7 ....|F#5 3F.7 ....|F#5 2F.7 ....
....|..|A#1 2F.7 ....|G-5 3F.A ....|G-5 2F.A ....
 B-4|..|C-4 AF.F ....|B-3 3F.F ....|B-3 2C.F ....
 B-3|..|B-1 2A.F ....|--- .... ....|--- .... ....

[Pattern14]
....|..|C-4 AF.7 ....|B-4 3F.7 ....|B-4 2F.7 ....
....|..|C-2 2F.7 ....|B-4 3F.A ....|B-4 2F.A ....
 F#4|..|C-4 AF.F ....|F#3 3F.F ....|F#3 2C.F ....
 B-3|..|B-1 2A.F ....|G-5 3F.7 ....|G-5 2F.7 ....
....|..|C-4 AF.A ....|B-3 3F.A ....|B-3 2F.A ....
 B-4|..|C-4 LF.F ....|B-3 3F.F ....|B-3 2C.F ....
....|..|R-- .... ....|--- .... ....|--- .... ....
....|..|R-- .... ....|B-4 3F.7 ....|B-4 2F.7 ....
....|..|C-4 AF.A ....|F#3 3F.A ....|F#3 2F.A ....
 F#4|..|C-4 LF.F ....|F#3 3F.F ....|F#3 2C.F ....
....|..|C-4 AF.7 ....|B-3 3F.7 ....|B-3 2F.7 ....
....|..|B-1 2F.7 ....|B-3 3F.A ....|B-3 2F.A ....
 B-4|..|C-5 VF.F ....|B-3 3F.F ....|B-3 2C.F ....
 B-3|..|B-1 2A.F ....|--- .... ....|--- .... ....
....|..|C-4 AF.7 ....|F#3 3F.7 ....|F#3 2F.7 ....
....|..|B-1 2F.7 ....|F#3 3F.A ....|F#3 2F.A ....
 F#4|..|C-4 LF.F ....|F#3 3F.F ....|F#3 2C.F ....
....|..|C-4 LF.7 ....|B-3 3F.7 ....|B-3 2F.7 ....
....|..|C-5 VF.A ....|B-3 3F.A ....|B-3 2F.A ....
 F#4|..|C-4 AF.F ....|F#3 3F.F ....|F#3 2C.F ....
 A-3|..|A-1 2A.F ....|--- .... ....|--- .F.. ....
....|..|C-4 LF.7 ....|F#3 3F.7 ....|F#3 2F.7 ....
....|..|C-4 LF.A ....|F#3 3F.A ....|F#3 2F.A ....
 B-4|..|C-4 AF.F ....|B-2 3F.F ....|B-2 2A.F ....
 A-3|..|A-1 2A.F ....|B-3 3F.7 ....|B-3 2F.7 ....
....|..|B-1 2F.7 ....|F#3 3F.A ....|F#3 2F.A ....
 F#4|..|C-4 LF.F ....|F#3 3F.F ....|F#3 2C.F ....
....|..|R-- .... ....|--- .... ....|--- .... ....
....|..|C-4 LF.7 ....|F#3 3F.7 ....|F#3 2F.7 ....
....|..|C-4 AF.A ....|B-2 3F.A ....|B-2 2F.A ....
 B-4|..|C-4 LF.F ....|B-2 3F.F ....|B-2 2A.F ....
....|..|C-4 AF.7 ....|F#3 3F.7 ....|F#3 2F.7 ....
....|..|A-1 2F.7 ....|F#3 3F.A ....|F#3 2F.A ....
 F#4|..|C-4 LF.F ....|F#3 3F.F ....|F#3 2C.F ....
....|..|R-- .... ....|--- .... ....|--- .... ....
....|..|C-4 AF.7 ....|B-2 3F.7 ....|B-2 2F.7 ....
....|..|A-1 2F.7 ....|B-2 3F.A ....|B-2 2F.A ....
 B-4|..|C-4 LF.F ....|B-2 3F.F ....|B-2 2A.F ....
....|..|C-4 LF.7 ....|F#3 3F.7 ....|F#3 2F.7 ....
....|..|C-4 LF.A ....|F#3 3F.A ....|F#3 2F.A ....
 G-4|..|C-5 VF.F ....|G-3 3F.F ....|G-3 2C.F ....
....|..|R-- .... ....|--- .... ....|--- .... ....
....|..|C-4 LF.7 ....|B-2 3F.7 ....|B-2 2F.7 ....
....|..|C-4 LF.A ....|B-2 3F.A ....|B-2 2F.A ....
 B-4|..|C-4 LF.F ....|B-2 3F.F ....|B-2 2A.F ....
....|..|C-4 LF.7 ....|F#3 3F.7 ....|F#3 2F.7 ....
....|..|C-5 VF.A ....|G-3 3F.A ....|G-3 2F.A ....
 G-4|..|C-4 LF.F ....|G-3 3F.F ....|G-3 2C.F ....
....|..|R-- .... ....|--- .... ....|--- .... ....
....|..|C-4 LF.7 ....|B-2 3F.7 ....|B-2 2F.7 ....
....|..|C-4 LF.A ....|B-2 3F.A ....|B-2 2F.A ....
 B-4|..|C-4 LF.F ....|B-2 3F.F ....|B-2 2A.F ....
....|..|C-5 VF.7 ....|G-3 3F.7 ....|G-3 2F.7 ....
....|..|C-4 LF.A ....|G-3 3F.A ....|G-3 2F.A ....
 G-4|..|C-4 AF.F ....|G-3 3F.F ....|G-3 2C.F ....
 B-3|..|B-1 2A.F ....|--- .... ....|--- .F.. ....
....|..|C-4 LF.7 ....|B-2 3F.7 ....|B-2 2F.7 ....
....|..|C-4 LF.A ....|B-2 3F.A ....|B-2 2F.A ....
 B-4|..|C-4 AF.F ....|B-2 3F.F ....|B-2 2A.F ....
 B-3|..|B-1 2A.F ....|G-3 3F.7 ....|G-3 2F.7 ....
....|..|C-4 AF.A ....|G-3 3F.A ....|G-3 2F.A ....
 E-4|..|C-4 LF.F ....|E-3 3F.F ....|E-3 2C.F ....
....|..|R-- .... ....|--- .... ....|--- .... ....
....|..|C-4 LF.7 ....|B-2 3F.7 ....|B-2 2F.7 ....
....|..|C-4 AF.A ....|B-2 3F.A ....|B-2 2F.A ....
 B-4|..|C-4 LF.F ....|B-2 3F.F ....|B-2 2A.F ....
....|..|C-4 AF.7 ....|G-3 3F.7 ....|G-3 2F.7 ....
....|..|B-1 2F.7 ....|E-3 3F.A ....|E-3 2F.A ....
 E-4|..|C-5 VF.F ....|E-3 3F.F ....|E-3 2C.F ....
 B-3|..|B-1 2A.F ....|--- .... ....|--- .F.. ....
....|..|C-4 AF.7 ....|B-2 3F.7 ....|B-2 2F.7 ....
....|..|B-1 2F.7 ....|B-2 3F.A ....|B-2 2F.A ....
 B-4|..|C-4 LF.F ....|B-2 3F.F ....|B-2 2A.F ....
....|..|C-4 LF.7 ....|E-3 3F.7 ....|E-3 2F.7 ....
....|..|C-5 VF.A ....|E-3 3F.A ....|E-3 2F.A ....
 E-4|..|C-4 AF.F ....|E-3 3F.F ....|E-3 2C.F ....
 A-3|..|A-1 2A.F ....|--- .... ....|--- .F.. ....
....|..|C-4 LF.7 ....|B-2 3F.7 ....|B-2 2F.7 ....
....|..|C-4 LF.A ....|B-2 3F.A ....|B-2 2F.A ....
 B-4|..|C-4 AF.F ....|B-2 3F.F ....|B-2 2A.F ....
 A-3|..|A-1 2A.F ....|E-3 3F.7 ....|E-3 2F.7 ....
....|..|B-1 2F.7 ....|E-3 3F.A ....|E-3 2F.A ....
 F#4|..|C-4 LF.F ....|F#3 3F.F ....|F#3 2C.F ....
....|..|R-- .... ....|--- .... ....|--- .... ....
....|..|C-4 LF.7 ....|B-2 3F.7 ....|B-2 2F.7 ....
....|..|C-4 AF.A ....|B-2 3F.A ....|B-2 2F.A ....
 B-4|..|C-4 LF.F ....|B-2 3F.F ....|B-2 2A.F ....
....|..|C-4 AF.7 ....|E-3 3F.7 ....|E-3 2F.7 ....
....|..|A-1 2F.7 ....|F#3 3F.A ....|F#3 2F.A ....
 F#4|..|C-4 LF.F ....|F#3 3F.F ....|F#3 2C.F ....
....|..|R-- .... ....|--- .... ....|--- .... ....
....|..|C-4 AF.7 ....|B-2 3F.7 ....|B-2 2F.7 ....
....|..|A-1 2F.7 ....|B-2 3F.A ....|B-2 2F.A ....
 B-4|..|C-4 LF.F ....|B-2 3F.F ....|B-2 2A.F ....
....|..|C-4 LF.7 ....|F#3 3F.7 ....|F#3 2F.7 ....
....|..|C-4 LF.A ....|F#3 3F.A ....|F#3 2F.A ....
 B-4|..|C-5 VF.F ....|B-3 3F.F ....|B-3 2C.F ....
 A#3|..|A#1 2A.F ....|--- .... ....|--- .F.. ....
....|..|C-4 LF.7 ....|B-2 3F.7 ....|B-2 2F.7 ....
....|..|C-4 LF.A ....|B-2 3F.A ....|B-2 2F.A ....
 F#4|..|C-4 AF.F ....|F#3 3F.F ....|F#3 2C.F ....
 C-4|..|C-2 2A.F ....|F#3 3F.7 ....|F#3 2F.7 ....
....|..|C-5 VF.A ....|B-3 3F.A ....|B-3 2F.A ....
 B-4|..|A#1 2F.A ....|B-3 3F.F ....|B-3 2C.F ....
....|..|R-- .... ....|--- .... ....|--- .... ....
....|..|C-4 LF.7 ....|B-2 3F.7 ....|B-2 2F.7 ....
....|..|C-4 AF.A ....|F#3 3F.A ....|F#3 2F.A ....
 F#4|..|C-2 2F.A ....|F#3 3F.F ....|F#3 2C.F ....
....|..|C-5 VF.7 ....|B-3 3F.7 ....|B-3 2F.7 ....
....|..|A#1 2F.7 ....|B-3 3F.A ....|B-3 2F.A ....
 C-3|..|C-4 AF.F ....|C-4 3F.F ....|C-4 2C.F ....
 B-3|..|B-1 2A.F ....|--- .... ....|--- .F.. ....
....|..|C-4 AF.7 ....|F#3 3F.7 ....|F#3 2F.7 ....
....|..|C-2 2F.7 ....|F#3 3F.A ....|F#3 2F.A ....
 F#4|..|C-4 AF.F ....|F#3 3F.F ....|F#3 2C.F ....
 B-3|..|B-1 2A.F ....|B-3 3F.7 ....|B-3 2F.7 ....
....|..|C-4 AF.A ....|C-4 3F.A ....|C-4 2F.A ....
 C-3|..|C-4 LF.F ....|C-4 3F.F ....|C-4 2C.F ....
....|..|R-- .... ....|--- .... ....|--- .... ....
....|..|R-- .... ....|F#3 3F.7 ....|F#3 2F.7 ....
....|..|C-4 AF.A ....|F#3 3F.A ....|F#3 2F.A ....
 F#4|..|C-4 LF.F ....|F#3 3F.F ....|F#3 2C.F ....
....|..|C-4 AF.7 ....|C-4 3F.7 ....|C-4 2F.7 ....
....|..|B-1 2F.7 ....|C-4 3F.A ....|C-4 2F.A ....
 C-3|..|C-5 VF.F ....|C-4 3F.F ....|C-4 2C.F ....
 B-3|..|B-1 2A.F ....|--- .... ....|--- .F.. ....
....|..|C-4 AF.7 ....|F#3 3F.7 ....|F#3 2F.7 ....
....|..|B-1 2F.7 ....|F#3 3F.A ....|F#3 2F.A ....

[Pattern15]
 F#4|..|C-4 LF.F ....|F#3 3F.F ....|F#3 2C.F ....
....|..|C-4 LF.7 ....|C-4 3F.7 ....|C-4 2F.7 ....
....|..|C-5 VF.A ....|C-4 3F.A ....|C-4 2F.A ....
 A-3|..|C-4 AF.F ....|A-3 3F.F ....|A-3 2C.F ....
 A-3|..|A-1 2A.F ....|--- .... ....|--- .... ....
....|..|C-4 LF.7 ....|F#3 3F.7 ....|F#3 2F.7 ....
....|..|C-4 LF.A ....|F#3 3F.A ....|F#3 2F.A ....
 E-4|..|C-4 AF.F ....|E-3 3F.F ....|E-3 2C.F ....
 A-3|..|A-1 2A.F ....|C-4 3F.7 ....|C-4 2F.7 ....
....|..|B-1 2F.7 ....|A-3 3F.A ....|A-3 2F.A ....
 A-3|..|C-4 LF.F ....|A-3 3F.F ....|A-3 2C.F ....
....|..|R-- .... ....|--- .... ....|--- .... ....
....|..|C-4 LF.7 ....|F#3 3F.7 ....|F#3 2F.7 ....
....|..|C-4 AF.A ....|E-3 3F.A ....|E-3 2F.A ....
 E-4|..|C-4 LF.F ....|E-3 3F.F ....|E-3 2C.F ....
....|..|C-4 AF.7 ....|A-3 3F.7 ....|A-3 2F.7 ....
....|..|A-1 2F.7 ....|A-3 3F.A ....|A-3 2F.A ....
 A-3|..|C-4 LF.F ....|A-3 3F.F ....|A-3 2C.F ....
....|..|R-- .... ....|--- .... ....|--- .... ....
....|..|C-4 AF.7 ....|E-3 3F.7 ....|E-3 2F.7 ....
....|..|A-1 2F.7 ....|E-3 3F.A ....|E-3 2F.A ....
 E-4|..|C-4 LF.F ....|E-3 3F.F ....|E-3 2C.F ....
....|..|C-4 LF.7 ....|A-3 3F.7 ....|A-3 2F.7 ....
....|..|C-4 LF.A ....|A-3 3F.A ....|A-3 2F.A ....
 B-4|..|C-5 VF.F ....|B-3 3F.F ....|B-3 2C.F ....
....|..|R-- .... ....|--- .... ....|--- .... ....
....|..|C-4 LF.7 ....|E-3 3F.7 ....|E-3 2F.7 ....
....|..|C-4 LF.A ....|E-3 3F.A ....|E-3 2F.A ....
 F#4|..|C-4 LF.F ....|F#3 3F.F ....|F#3 2C.F ....
....|..|C-4 LF.7 ....|A-3 3F.7 ....|A-3 2F.7 ....
....|..|C-5 VF.A ....|B-3 3F.A ....|B-3 2F.A ....
 B-4|..|C-4 LF.F ....|B-3 3F.F ....|B-3 2C.F ....
....|..|R-- .... ....|--- .... ....|--- .... ....
....|..|C-4 LF.7 ....|E-3 3F.7 ....|E-3 2F.7 ....
....|..|C-4 LF.A ....|F#3 3F.A ....|F#3 2F.A ....
 F#4|..|C-4 LF.F ....|F#3 3F.F ....|F#3 2C.F ....
....|..|C-5 VF.7 ....|B-3 3F.7 ....|B-3 2F.7 ....
....|..|C-4 LF.A ....|B-3 3F.A ....|B-3 2F.A ....
 B-4|..|C-4 AF.F ....|B-3 3F.F ....|B-3 2C.F ....
 B-3|..|B-1 2A.F ....|--- .... ....|--- .... ....
....|..|C-4 LF.7 ....|F#3 3F.7 ....|F#3 2F.7 ....
....|..|C-4 LF.A ....|F#3 3F.A ....|F#3 2F.A ....
 F#4|..|C-4 AF.F ....|F#3 3F.F ....|F#3 2C.F ....
 B-3|..|B-1 2A.F ....|B-3 3F.7 ....|B-3 2F.7 ....
....|..|C-4 AF.A ....|B-3 3F.A ....|B-3 2F.A ....
 F#3|..|C-4 LF.F ....|F#4 3F.F ....|F#4 2C.F ....
....|..|R-- .... ....|--- .... ....|--- .... ....
....|..|C-4 LF.7 ....|F#3 3F.7 ....|F#3 2F.7 ....
....|..|C-4 AF.A ....|F#3 3F.A ....|F#3 2F.A ....
 B-4|..|C-4 LF.F ....|B-3 3F.F ....|B-3 2C.F ....
....|..|C-4 AF.7 ....|B-3 3F.7 ....|B-3 2F.7 ....
....|..|B-1 2F.7 ....|F#4 3F.A ....|F#4 2F.A ....
 F#3|..|C-5 VF.F ....|F#4 3F.F ....|F#4 2C.F ....
 B-3|..|B-1 2A.F ....|--- .... ....|--- .F.. ....
....|..|C-4 AF.7 ....|F#3 3F.7 ....|F#3 2F.7 ....
....|..|B-1 2F.7 ....|B-3 3F.A ....|B-3 2F.A ....
 B-4|..|C-4 LF.F ....|B-3 3F.F ....|B-3 2C.F ....
....|..|C-4 LF.7 ....|F#4 3F.7 ....|F#4 2F.7 ....
....|..|C-5 VF.A ....|F#4 3F.A ....|F#4 2F.A ....
 F#3|..|C-4 AF.F ....|F#4 3F.F ....|F#4 2C.F ....
 A-3|..|A-1 2A.F ....|--- .... ....|--- .F.. ....
....|..|C-4 LF.7 ....|B-3 3F.7 ....|B-3 2F.7 ....
....|..|C-4 LF.A ....|B-3 3F.A ....|B-3 2F.A ....
 B-4|..|C-4 AF.F ....|B-3 3F.F ....|B-3 2C.F ....
 A-3|..|A-1 2A.F ....|F#4 3F.7 ....|F#4 2F.7 ....
....|..|B-1 2F.7 ....|F#4 3F.A ....|F#4 2F.A ....
 G-4|..|C-4 LF.F ....|G-4 3F.F ....|G-4 2C.F ....
....|..|R-- .... ....|--- .... ....|--- .... ....
....|..|C-4 LF.7 ....|B-3 3F.7 ....|B-3 2F.7 ....
....|..|C-4 AF.A ....|B-3 3F.A ....|B-3 2F.A ....
 B-4|..|C-4 LF.F ....|B-3 3F.F ....|B-3 2C.F ....
....|..|C-4 AF.7 ....|F#4 3F.7 ....|F#4 2F.7 ....
....|..|A-1 2F.7 ....|G-4 3F.A ....|G-4 2F.A ....
 G-4|..|C-4 LF.F ....|G-4 3F.F ....|G-4 2C.F ....
....|..|R-- .... ....|--- .... ....|--- .... ....
....|..|C-4 AF.7 ....|B-3 3F.7 ....|B-3 2F.7 ....
....|..|A-1 2F.7 ....|B-3 3F.A ....|B-3 2F.A ....
 B-4|..|C-4 LF.F ....|B-3 3F.F ....|B-3 2C.F ....
....|..|C-4 LF.7 ....|G-4 3F.7 ....|G-4 2F.7 ....
....|..|C-4 LF.A ....|G-4 3F.A ....|G-4 2F.A ....
 E-4|..|C-5 VF.F ....|E-4 3F.F ....|E-4 2C.F ....
 A#3|..|A#1 2A.F ....|--- .... ....|--- .F.. ....
....|..|C-4 LF.7 ....|B-3 3F.7 ....|B-3 2F.7 ....
....|..|C-4 LF.A ....|B-3 3F.A ....|B-3 2F.A ....
 B-4|..|C-4 AF.F ....|B-3 3F.F ....|B-3 2C.F ....
 C-4|..|C-2 2A.F ....|G-4 3F.7 ....|G-4 2F.7 ....
....|..|C-5 VF.A ....|E-4 3F.A ....|E-4 2F.A ....
 E-4|..|A#1 2F.A ....|E-4 3F.F ....|E-4 2C.F ....
....|..|R-- .... ....|--- .... ....|--- .... ....
....|..|C-4 LF.7 ....|B-3 3F.7 ....|B-3 2F.7 ....
....|..|C-4 AF.A ....|B-3 3F.A ....|B-3 2F.A ....
 B-4|..|C-2 2F.A ....|B-3 3F.F ....|B-3 2C.F ....
....|..|C-5 VF.7 ....|E-4 3F.7 ....|E-4 2F.7 ....
....|..|A#1 2F.7 ....|E-4 3F.A ....|E-4 2F.A ....
 F#3|..|C-4 AF.F ....|F#4 3F.F ....|F#4 2C.F ....
 B-3|..|B-1 2A.F ....|--- .... ....|--- .F.. ....
....|..|C-4 AF.7 ....|B-3 3F.7 ....|B-3 2F.7 ....
....|..|C-2 2F.7 ....|B-3 3F.A ....|B-3 2F.A ....
 B-4|..|C-4 AF.F ....|B-3 3F.F ....|B-3 2C.F ....
 B-3|..|B-1 2A.F ....|E-4 3F.7 ....|E-4 2F.7 ....
....|..|C-4 AF.A ....|F#4 3F.A ....|F#4 2F.A ....
 F#3|..|C-4 LF.F ....|F#4 3F.F ....|F#4 2C.F ....
....|..|R-- .... ....|--- .... ....|--- .... ....
....|..|R-- .... ....|B-3 3F.7 ....|B-3 2F.7 ....
....|..|C-4 AF.A ....|B-3 3F.A ....|B-3 2F.A ....
 B-4|..|C-4 LF.F ....|B-3 3F.F ....|B-3 2C.F ....
....|..|C-4 AF.7 ....|F#4 3F.7 ....|F#4 2F.7 ....
....|..|B-1 2F.7 ....|F#4 3F.A ....|F#4 2F.A ....
 F#3|..|C-5 VF.F ....|F#4 3F.F ....|F#4 2C.F ....
 B-3|..|B-1 2A.F ....|--- .... ....|--- .F.. ....
....|..|C-4 AF.7 ....|B-3 3F.7 ....|B-3 2F.7 ....
....|..|B-1 2F.7 ....|B-3 3F.A ....|B-3 2F.A ....
 B-4|..|C-4 LF.F ....|B-3 3F.F ....|B-3 2C.F ....
....|..|C-4 LF.7 ....|F#4 3F.7 ....|F#4 2F.7 ....
....|..|C-5 VF.A ....|F#4 3F.A ....|F#4 2F.A ....
 B-4|..|C-4 AF.F ....|B-3 3F.F ....|B-3 2C.F ....
 A-3|..|A-1 2A.F ....|--- .... ....|--- .F.. ....
....|..|C-4 LF.7 ....|B-3 3F.7 ....|B-3 2F.7 ....
....|..|C-4 LF.A ....|B-3 3F.A ....|B-3 2F.A ....
 F#4|..|C-4 AF.F ....|F#3 3F.F ....|F#3 2C.F ....
 A-3|..|A-1 2A.F ....|F#4 3F.7 ....|F#4 2F.7 ....
....|..|B-1 2F.7 ....|B-3 3F.A ....|B-3 2F.A ....
 B-4|..|C-4 LF.F ....|B-3 3F.F ....|B-3 2C.F ....
....|..|R-- .... ....|--- .... ....|--- .... ....
....|..|C-4 LF.7 ....|B-3 3F.7 ....|B-3 2F.7 ....
....|..|C-4 AF.A ....|F#3 3F.A ....|F#3 2F.A ....
 F#4|..|C-4 LF.F ....|F#3 3F.F ....|F#3 2C.F ....
....|..|C-4 AF.7 ....|B-3 3F.7 ....|B-3 2F.7 ....

[Pattern16]
....|..|A-1 2F.7 ....|B-3 3F.A ....|B-3 2F.A ....
 B-4|..|C-4 LF.F ....|B-3 3F.F ....|B-3 2C.F ....
....|..|R-- .... ....|--- .... ....|--- .... ....
....|..|C-4 AF.7 ....|F#3 3F.7 ....|F#3 2F.7 ....
....|..|A-1 2F.7 ....|F#3 3F.A ....|F#3 2F.A ....
 F#4|..|C-4 LF.F ....|F#3 3F.F ....|F#3 2C.F ....
....|..|C-4 LF.7 ....|B-3 3F.7 ....|B-3 2F.7 ....
....|..|C-4 LF.A ....|B-3 3F.A ....|B-3 2F.A ....
 E-4|..|C-5 VF.F ....|E-4 3F.F ....|E-4 2C.F ....
....|..|R-- .... ....|--- .... ....|--- .... ....
....|..|C-4 LF.7 ....|F#3 3F.7 ....|F#3 2F.7 ....
....|..|C-4 LF.A ....|F#3 3F.A ....|F#3 2F.A ....
 A-3|..|C-4 LF.F ....|A-3 3F.F ....|A-3 2C.F ....
....|..|C-4 LF.7 ....|B-3 3F.7 ....|B-3 2F.7 ....
....|..|C-5 VF.A ....|E-4 3F.A ....|E-4 2F.A ....
 E-4|..|C-4 LF.F ....|E-4 3F.F ....|E-4 2C.F ....
....|..|R-- .... ....|--- .... ....|--- .... ....
....|..|C-4 LF.7 ....|F#3 3F.7 ....|F#3 2F.7 ....
....|..|C-4 LF.A ....|A-3 3F.A ....|A-3 2F.A ....
 A-3|..|C-4 LF.F ....|A-3 3F.F ....|A-3 2C.F ....
....|..|C-5 VF.7 ....|E-4 3F.7 ....|E-4 2F.7 ....
....|..|C-4 LF.A ....|E-4 3F.A ....|E-4 2F.A ....
 E-4|..|C-4 AF.F ....|E-4 3F.F ....|E-4 2C.F ....
 B-3|..|B-1 2A.F ....|--- .... ....|--- .F.. ....
....|..|C-4 LF.7 ....|A-3 3F.7 ....|A-3 2F.7 ....
....|..|C-4 LF.A ....|A-3 3F.A ....|A-3 2F.A ....
 A-3|..|C-4 AF.F ....|A-3 3F.F ....|A-3 2C.F ....
 B-3|..|B-1 2A.F ....|E-4 3F.7 ....|E-4 2F.7 ....
....|..|C-4 AF.A ....|E-4 3F.A ....|E-4 2F.A ....
 A-3|..|C-4 LF.F ....|A-3 3F.F ....|A-3 2C.F ....
....|..|R-- .... ....|--- .... ....|--- .... ....
....|..|C-4 LF.7 ....|A-3 3F.7 ....|A-3 2F.7 ....
....|..|C-4 AF.A ....|A-3 3F.A ....|A-3 2F.A ....
 E-4|..|C-4 LF.F ....|E-3 3F.F ....|E-3 2C.F ....
....|..|C-4 AF.7 ....|E-4 3F.7 ....|E-4 2F.7 ....
....|..|B-1 2F.7 ....|A-3 3F.A ....|A-3 2F.A ....
 A-3|..|C-5 VF.F ....|A-3 3F.F ....|A-3 2C.F ....
 B-3|..|B-1 2A.F ....|--- .... ....|--- .F.. ....
....|..|C-4 AF.7 ....|A-3 3F.7 ....|A-3 2F.7 ....
....|..|B-1 2F.7 ....|E-3 3F.A ....|E-3 2F.A ....
 E-4|..|C-4 LF.F ....|E-3 3F.F ....|E-3 2C.F ....
....|..|C-4 LF.7 ....|A-3 3F.7 ....|A-3 2F.7 ....
....|..|C-5 VF.A ....|A-3 3F.A ....|A-3 2F.A ....
 A-3|..|C-4 AF.F ....|A-3 3F.F ....|A-3 2C.F ....
 A-3|..|A-1 2A.F ....|--- .... ....|--- .... ....
....|..|C-4 LF.7 ....|E-3 3F.7 ....|E-3 2F.7 ....
....|..|C-4 LF.A ....|E-3 3F.A ....|E-3 2F.A ....
 E-4|..|C-4 AF.F ....|E-3 3F.F ....|E-3 2C.F ....
 A-3|..|A-1 2A.F ....|A-3 3F.7 ....|A-3 2F.7 ....
....|..|B-1 2F.7 ....|A-3 3F.A ....|A-3 2F.A ....
 D-4|..|C-4 LF.F ....|D-4 3F.F ....|D-4 2C.F ....
....|..|R-- .... ....|--- .... ....|--- .... ....
....|..|C-4 LF.7 ....|E-3 3F.7 ....|E-3 2F.7 ....
....|..|C-4 AF.A ....|E-3 3F.A ....|E-3 2F.A ....
 G-4|..|C-4 LF.F ....|G-3 3F.F ....|G-3 2C.F ....
....|..|C-4 AF.7 ....|A-3 3F.7 ....|A-3 2F.7 ....
....|..|A-1 2F.7 ....|D-4 3F.A ....|D-4 2F.A ....
 D-4|..|C-4 LF.F ....|D-4 3F.F ....|D-4 2C.F ....
....|..|R-- .... ....|--- .... ....|--- .... ....
....|..|C-4 AF.7 ....|E-3 3F.7 ....|E-3 2F.7 ....
....|..|A-1 2F.7 ....|G-3 3F.A ....|G-3 2F.A ....
 G-4|..|C-4 LF.F ....|G-3 3F.F ....|G-3 2C.F ....
....|..|C-4 LF.7 ....|D-4 3F.7 ....|D-4 2F.7 ....
....|..|C-4 LF.A ....|D-4 3F.A ....|D-4 2F.A ....
 G-4|..|C-5 VF.F ....|G-3 3F.F ....|G-3 2C.F ....
 A#3|..|A#1 2A.F ....|--- .... ....|--- .F.. ....
....|..|C-4 LF.7 ....|G-3 3F.7 ....|G-3 2F.7 ....
....|..|C-4 LF.A ....|G-3 3F.A ....|G-3 2F.A ....
 D-4|..|C-4 AF.F ....|D-3 3F.F ....|D-3 2C.F ....
 C-4|..|C-2 2A.F ....|D-4 3F.7 ....|D-4 2F.7 ....
....|..|C-5 VF.A ....|G-3 3F.A ....|G-3 2F.A ....
 G-4|..|A#1 2F.A ....|G-3 3F.F ....|G-3 2C.F ....
....|..|R-- .... ....|--- .... ....|--- .... ....
....|..|C-4 LF.7 ....|G-3 3F.7 ....|G-3 2F.7 ....
....|..|C-4 AF.A ....|D-3 3F.A ....|D-3 2F.A ....
 A-3|..|C-2 2F.A ....|A-3 3F.F ....|A-3 2C.F ....
 G-4|..|C-5 VF.7 ....|D-3 3F2F ....|G-3 2C.F ....
 B-4|..|A#1 2F.7 ....|B-2 3F.F ....|B-2 2A.F ....
 F#4|..|C-4 AF.F ....|F#3 3F.F ....|F#3 2C.F ....
 B-3|..|B-1 2A.F ....|--- .... ....|--- .F.. ....
....|..|C-4 AF.7 ....|D-3 3F.7 ....|D-3 2F.7 ....
....|..|C-2 2F.7 ....|A-3 3F.A ....|A-3 2F.A ....
 B-4|..|C-4 AF.F ....|B-2 3F.F ....|B-2 2A.F ....
 B-3|..|B-1 2A.F ....|G-3 3F.7 ....|G-3 2F.7 ....
....|..|C-4 AF.A ....|F#3 3F.A ....|F#3 2F.A ....
 F#4|..|C-4 LF.F ....|F#3 3F.F ....|F#3 2C.F ....
....|..|R-- .... ....|--- .... ....|--- .... ....
....|..|R-- .... ....|A-3 3F.7 ....|A-3 2F.7 ....
....|..|C-4 AF.A ....|D-3 3F27 ....|G-3 2F.7 ....
 B-4|..|C-4 LF.F ....|B-2 3F.F ....|B-2 2A.F ....
....|..|C-4 AF.7 ....|F#3 3F.7 ....|F#3 2F.7 ....
....|..|B-1 2F.7 ....|F#3 3F.A ....|F#3 2F.A ....
 F#4|..|C-5 VF.F ....|F#3 3F.F ....|F#3 2C.F ....
 B-3|..|B-1 2A.F ....|--- .... ....|--- .F.. ....
....|..|C-4 AF.7 ....|B-2 3F.7 ....|B-2 2F.7 ....
....|..|B-1 2F.7 ....|B-2 3F.A ....|B-2 2F.A ....
 B-4|..|C-4 LF.F ....|B-2 3F.F ....|B-2 2A.F ....
....|..|C-4 LF.7 ....|F#3 3F.7 ....|F#3 2F.7 ....
....|..|C-5 VF.A ....|F#3 3F.A ....|F#3 2F.A ....
 F#4|..|C-4 AF.F ....|F#3 3F.F ....|F#3 2C.F ....
 A-3|..|A-1 2A.F ....|--- .... ....|--- .F.. ....
....|..|C-4 LF.7 ....|B-2 3F.7 ....|B-2 2F.7 ....
....|..|C-4 LF.A ....|B-2 3F.A ....|B-2 2F.A ....
 B-4|..|C-4 AF.F ....|B-2 3F.F ....|B-2 2A.F ....
 A-3|..|A-1 2A.F ....|F#3 3F.7 ....|F#3 2F.7 ....
....|..|B-1 2F.7 ....|F#3 3F.A ....|F#3 2F.A ....
 F#4|..|C-4 LF.F ....|F#3 3F.F ....|F#3 2C.F ....
....|..|R-- .... ....|--- .... ....|--- .... ....
....|..|C-4 LF.7 ....|B-2 3F.7 ....|B-2 2F.7 ....
....|..|C-4 AF.A ....|B-2 3F.A ....|B-2 2F.A ....
 B-4|..|C-4 LF.F ....|B-2 3F.F ....|B-2 2A.F ....
....|..|C-4 AF.7 ....|F#3 3F.7 ....|F#3 2F.7 ....
....|..|A-1 2F.7 ....|F#3 3F.A ....|F#3 2F.A ....
 F#4|..|C-4 LF.F ....|F#3 3F.F ....|F#3 2C.F ....
....|..|R-- .... ....|--- .... ....|--- .... ....
....|..|C-4 AF.7 ....|B-2 3F.7 ....|B-2 2F.7 ....
....|..|A-1 2F.7 ....|B-2 3F.A ....|B-2 2F.A ....
 B-4|..|C-4 LF.F ....|B-2 3F.F ....|B-2 2A.F ....
....|..|C-4 LF.7 ....|F#3 3F.7 ....|F#3 2F.7 ....
....|..|C-4 LF.A ....|F#3 3F.A ....|F#3 2F.A ....
 F#4|..|C-5 VF.F ....|F#3 3F.F ....|F#3 2C.F ....
....|..|R-- .... ....|--- .... ....|--- .... ....
....|..|C-4 LF.7 ....|B-2 3F.7 ....|B-2 2F.7 ....
....|..|C-4 LF.A ....|B-2 3F.A ....|B-2 2F.A ....
 B-4|..|C-4 LF.F ....|B-2 3F.F ....|B-2 2A.F ....
....|..|C-4 LF.7 ....|F#3 3F.7 ....|F#3 2F.7 ....
....|..|C-5 VF.A ....|F#3 3F.A ....|F#3 2F.A ....
 F#4|..|C-4 LF.F ....|F#3 3F.F ....|F#3 2C.F ....

[Pattern17]
....|..|R-- .... ....|--- .... ....|--- .... ....
....|..|C-4 LF.7 ....|B-2 3F.7 ....|B-2 2F.7 ....
....|..|C-4 LF.A ....|B-2 3F.A ....|B-2 2F.A ....
 B-4|..|C-4 LF.F ....|B-2 3F.F ....|B-2 2A.F ....
....|..|C-5 VF.7 ....|F#3 3F.7 ....|F#3 2F.7 ....
....|..|C-4 LF.A ....|F#3 3F.A ....|F#3 2F.A ....
 F#4|..|C-4 AF.F ....|F#3 3F.F ....|F#3 2C.F ....
 B-3|..|B-1 2A.F ....|--- .... ....|--- .F.. ....
....|..|C-4 LF.7 ....|B-2 3F.7 ....|B-2 2F.7 ....
....|..|C-4 LF.A ....|B-2 3F.A ....|B-2 2F.A ....
 B-4|..|C-4 AF.F ....|B-2 3F.F ....|B-2 2A.F ....
 B-3|..|B-1 2A.F ....|F#3 3F.7 ....|F#3 2F.7 ....
....|..|C-4 AF.A ....|F#3 3F.A ....|F#3 2F.A ....
 G-4|..|C-4 LF.F ....|G-3 3F.F ....|G-3 2C.F ....
....|..|R-- .... ....|--- .... ....|--- .... ....
....|..|C-4 LF.7 ....|B-2 3F.7 ....|B-2 2F.7 ....
....|..|C-4 AF.A ....|B-2 3F.A ....|B-2 2F.A ....
 B-4|..|C-4 LF.F ....|B-2 3F.F ....|B-2 2A.F ....
....|..|C-4 AF.7 ....|F#3 3F.7 ....|F#3 2F.7 ....
....|..|B-1 2F.7 ....|G-3 3F.A ....|G-3 2F.A ....
 F#4|..|C-5 VF.F ....|F#3 3F.F ....|F#3 2C.F ....
 B-3|..|B-1 2A.F ....|--- .... ....|--- .F.. ....
....|..|C-4 AF.7 ....|B-2 3F.7 ....|B-2 2F.7 ....
....|..|B-1 2F.7 ....|B-2 3F.A ....|B-2 2F.A ....
 B-4|..|C-4 LF.F ....|B-2 3F.F ....|B-2 2A.F ....
....|..|C-4 LF.7 ....|G-3 3F.7 ....|G-3 2F.7 ....
....|..|C-5 VF.A ....|F#3 3F.A ....|F#3 2F.A ....
 G-4|..|C-4 AF.F ....|G-3 3F.F ....|G-3 2C.F ....
 A-3|..|A-1 2A.F ....|--- .... ....|--- .F.. ....
....|..|C-4 LF.7 ....|B-2 3F.7 ....|B-2 2F.7 ....
....|..|C-4 LF.A ....|B-2 3F.A ....|B-2 2F.A ....
 B-4|..|C-4 AF.F ....|B-2 3F.F ....|B-2 2A.F ....
 A-3|..|A-1 2A.F ....|F#3 3F.7 ....|F#3 2F.7 ....
....|..|B-1 2F.7 ....|G-3 3F.A ....|G-3 2F.A ....
 F#3|..|C-4 LF.F ....|F#4 3F.F ....|F#4 2C.F ....
....|..|R-- .... ....|--- .... ....|--- .... ....
....|..|C-4 LF.7 ....|B-2 3F.7 ....|B-2 2F.7 ....
....|..|C-4 AF.A ....|B-2 3F.A ....|B-2 2F.A ....
 B-4|..|C-5 VF.F ....|B-3 3F.F ....|B-3 2C.F ....
....|..|C-4 AF.7 ....|G-3 3F.7 ....|G-3 2F.7 ....
....|..|A-1 2F.7 ....|F#4 3F.A ....|F#4 2F.A ....
 G-4|..|C-5 VF.F ....|G-4 3F.F ....|G-4 2C.F ....
....|..|R-- .... ....|--- .... ....|--- .... ....
....|..|C-4 AF.7 ....|B-2 3F.7 ....|B-2 2F.7 ....
....|..|A-1 2F.7 ....|B-3 3F.A ....|B-3 2F.A ....
 B-4|..|C-4 AF.F ....|B-3 3F.F ....|B-3 2C.F ....
....|..|C-4 LF.7 ....|F#4 3F.7 ....|F#4 2F.7 ....
....|..|C-5 VF.A ....|G-4 3F.A ....|G-4 2F.A ....
 F#3|..|C-5 VF.F ....|F#5 3F.F ....|F#5 2C.F ....
 A#3|..|A#1 2A.F ....|--- .... ....|--- .F.. ....
....|..|C-5 VF.7 ....|B-3 3F.7 ....|B-3 2F.7 ....
....|..|C-4 AF.A ....|B-3 3F.A ....|B-3 2F.A ....
 B-4|..|C-4 AF.F ....|B-4 3F.F ....|B-4 2C.F ....
 C-4|..|C-2 2A.F ....|G-4 3F.7 ....|G-4 2F.7 ....
....|..|C-5 VF.A ....|F#5 3F.A ....|F#5 2F.A ....
 G-4|..|C-5 VF.F ....|G-5 3F.F ....|G-5 2C.F ....
....|..|R-- .... ....|--- .... ....|--- .... ....
....|..|C-4 AF.7 ....|B-3 3F.7 ....|B-3 2F.7 ....
....|..|C-4 AF.A ....|B-4 3F.A ....|B-4 2F.A ....
 B-4|..|C-4 AF.F ....|B-4 3F.F ....|B-4 2C.F ....
....|..|C-5 VF.7 ....|F#5 3F.7 ....|F#5 2F.7 ....
....|..|A#1 2F.7 ....|G-5 3F.A ....|G-5 2F.A ....
 F#4|..|C-4 AF.F ....|F#3 3F.F ....|F#3 2C.F ....
 G-3|..|G-1 2A.F ....|--- .... ....|--- .F.. ....
....|..|C-4 AF.7 ....|B-4 3F.7 ....|B-4 2F.7 ....
....|..|C-2 2F.7 ....|B-4 3F.A ....|B-4 2F.A ....
 G-4|..|C-4 AF.F ....|G-3 3F.F ....|G-3 2C.F ....
 G-3|..|G-1 2A.F ....|G-5 3F.7 ....|G-5 2F.7 ....
....|..|C-4 AF.A ....|F#3 3F.A ....|F#3 2F.A ....
 B-4|..|C-4 LF.F ....|B-3 3F.F ....|B-3 2C.F ....
....|..|R-- .... ....|--- .... ....|--- .... ....
....|..|C-4 AF.7 ....|B-4 3F.7 ....|B-4 2F.7 ....
....|..|C-4 AF.A ....|G-3 3F.A ....|G-3 2F.A ....
 C#4|..|C-4 LF.F ....|C#4 3F.F ....|C#4 2C.F ....
....|..|C-4 AF.7 ....|F#3 3F.7 ....|F#3 2F.7 ....
....|..|G-1 2F.7 ....|B-3 3F.A ....|B-3 2F.A ....
 D-4|..|C-5 VF.F ....|D-4 3F.F ....|D-4 2C.F ....
....|..|R-- .... ....|--- .... ....|--- .... ....
....|..|C-4 AF.7 ....|G-3 3F.7 ....|G-3 2F.7 ....
....|..|G-1 2F.7 ....|C#4 3F.A ....|C#4 2F.A ....
 F#3|..|C-4 LF.F ....|F#4 3F.F ....|F#4 2C.F ....
....|..|C-4 LF.7 ....|B-3 3F.7 ....|B-3 2F.7 ....
....|..|C-5 VF.A ....|D-4 3F.A ....|D-4 2F.A ....
 G-4|..|C-4 AF.F ....|G-4 3F.F ....|G-4 2C.F ....
 G-3|..|G-1 2A.F ....|--- .... ....|--- .... ....
....|..|C-4 LF.7 ....|C#4 3F.7 ....|C#4 2F.7 ....
....|..|C-4 LF.A ....|F#4 3F.A ....|F#4 2F.A ....
 B-4|..|C-4 AF.F ....|B-4 3F.F ....|B-4 2C.F ....
 G-3|..|G-1 2A.F ....|D-4 3F.7 ....|D-4 2F.7 ....
....|..|C-4 AF.A ....|G-4 3F.A ....|G-4 2F.A ....
 G-4|..|C-4 LF.F ....|G-4 3F.F ....|G-4 2C.F ....
....|..|R-- .... ....|--- .... ....|--- .... ....
....|..|C-4 LF.7 ....|F#4 3F.7 ....|F#4 2F.7 ....
....|..|C-4 AF.A ....|B-4 3F.A ....|B-4 2F.A ....
 F#3|..|C-4 LF.F ....|F#4 3F.F ....|F#4 2C.F ....
....|..|C-4 AF.7 ....|G-4 3F.7 ....|G-4 2F.7 ....
....|..|G-1 2F.7 ....|G-4 3F.A ....|G-4 2F.A ....
 G-4|..|C-4 AF.F ....|G-4 3F.F ....|G-4 2C.F ....
 G-3|..|G-1 2A.F ....|--- .... ....|--- .... ....
....|..|C-4 AF.7 ....|B-4 3F.7 ....|B-4 2F.7 ....
....|..|G-1 2F.7 ....|F#4 3F.A ....|F#4 2F.A ....
 D-4|..|C-4 LF.F ....|D-5 3F.F ....|D-5 2C.F ....
....|..|C-4 LF.7 ....|G-4 3F.7 ....|G-4 2F.7 ....
....|..|C-4 AF.A ....|G-4 3F.A ....|G-4 2F.A ....
 C#4|..|C-5 VF.F ....|C#5 3F.F ....|C#5 2C.F ....
....|..|R-- .... ....|--- .... ....|--- .... ....
....|..|C-4 LF.7 ....|F#4 3F.7 ....|F#4 2F.7 ....
....|..|C-4 LF.A ....|D-5 3F.A ....|D-5 2F.A ....
 D-4|..|C-4 AF.F ....|D-5 3F.F ....|D-5 2C.F ....
 G-3|..|G-1 2A.F ....|G-4 3F.7 ....|G-4 2F.7 ....
....|..|G-1 2F.7 ....|C#5 3F.A ....|C#5 2F.A ....
 B-4|..|C-4 LF.F ....|B-4 3F.F ....|B-4 2C.F ....
....|..|R-- .... ....|--- .... ....|--- .... ....
....|..|C-4 LF.7 ....|D-5 3F.7 ....|D-5 2F.7 ....
....|..|C-4 AF.A ....|D-5 3F.A ....|D-5 2F.A ....
 G-4|..|C-4 LF.F ....|G-4 3F.F ....|G-4 2C.F ....
....|..|C-5 VF.7 ....|C#5 3F.7 ....|C#5 2F.7 ....
....|..|C-4 LF.A ....|B-4 3F.A ....|B-4 2F.A ....
 F#3|..|C-4 AF.F ....|F#4 3F.F ....|F#4 2C.F ....
 G-3|..|G-1 2A.F ....|--- .... ....|--- .F.. ....
....|..|C-4 AF.7 ....|D-5 3F.7 ....|D-5 2F.7 ....
....|..|G-1 2F.7 ....|G-4 3F.A ....|G-4 2F.A ....
 G-4|..|C-4 AF.F ....|G-4 3F.F ....|G-4 2C.F ....
 G-3|..|G-1 2A.F ....|B-4 3F.7 ....|B-4 2F.7 ....
....|..|C-4 AF.A ....|F#4 3F.A ....|F#4 2F.A ....
 B-4|..|C-4 LF.F ....|B-4 3F.F ....|B-4 2C.F ....
....|..|R-- .... ....|--- .... ....|--- .... ....
....|..|C-4 LF.7 ....|G-4 3F.7 ....|G-4 2F.7 ....

[Pattern18]
....|..|C-4 AF.A ....|G-4 3F.A ....|G-4 2F.A ....
 C#4|..|C-4 LF.F ....|C#5 3F.F ....|C#5 2C.F ....
....|..|C-4 AF.7 ....|F#4 3F.7 ....|F#4 2F.7 ....
....|..|G-1 2F.7 ....|B-4 3F.A ....|B-4 2F.A ....
 D-4|..|C-5 VF.F ....|D-5 3F.F ....|D-5 2C.F ....
....|..|R-- .... ....|--- .... ....|--- .... ....
....|..|C-4 AF.7 ....|G-4 3F.7 ....|G-4 2F.7 ....
....|..|G-1 2F.7 ....|C#5 3F.A ....|C#5 2F.A ....
 F#3|..|C-4 LF.F ....|F#5 3F.F ....|F#5 2C.F ....
....|..|C-4 LF.7 ....|B-4 3F.7 ....|B-4 2F.7 ....
....|..|C-5 VF.A ....|D-5 3F.A ....|D-5 2F.A ....
 G-4|..|C-4 AF.F ....|G-5 3F.F ....|G-5 2C.F ....
 G-3|..|G-1 2A.F ....|--- .... ....|--- .... ....
....|..|C-4 LF.7 ....|C#5 3F.7 ....|C#5 2F.7 ....
....|..|C-4 LF.A ....|F#5 3F.A ....|F#5 2F.A ....
 B-4|..|C-4 AF.F ....|B-5 3F.F ....|B-5 2C.F ....
 G-3|..|G-1 2A.F ....|D-5 3F.7 ....|D-5 2F.7 ....
....|..|C-4 AF.A ....|G-5 3F.A ....|G-5 2F.A ....
 G-4|..|C-4 LF.F ....|G-5 3F.F ....|G-5 2C.F ....
....|..|R-- .... ....|--- .... ....|--- .... ....
....|..|C-4 LF.7 ....|F#5 3F.7 ....|F#5 2F.7 ....
....|..|C-4 AF.A ....|B-5 3F.A ....|B-5 2F.A ....
 F#3|..|C-4 LF.F ....|F#5 3F.F ....|F#5 2C.F ....
....|..|C-4 AF.7 ....|G-5 3F.7 ....|G-5 2F.7 ....
....|..|G-1 2F.7 ....|G-5 3F.A ....|G-5 2F.A ....
 G-4|..|C-4 AF.F ....|G-5 3F.F ....|G-5 2C.F ....
 G-3|..|G-1 2A.F ....|--- .... ....|--- .... ....
....|..|C-4 AF.7 ....|B-5 3F.7 ....|B-5 2F.7 ....
....|..|G-1 2F.7 ....|F#5 3F.A ....|F#5 2F.A ....
 D-4|..|C-4 LF.F ....|D-6 3F.F ....|D-6 2C.F ....
....|..|C-4 LF.7 ....|G-5 3F.7 ....|G-5 2F.7 ....
....|..|C-4 AF.A ....|G-5 3F.A ....|G-5 2F.A ....
 C#4|..|C-5 VF.F ....|C#6 3F.F ....|C#6 2C.F ....
....|..|R-- .... ....|--- .... ....|--- .... ....
....|..|C-4 LF.7 ....|F#5 3F.7 ....|F#5 2F.7 ....
....|..|C-4 LF.A ....|D-6 3F.A ....|D-6 2F.A ....
 D-4|..|C-4 AF.F ....|D-6 3F.F ....|D-6 2C.F ....
 G-3|..|G-1 2A.F ....|G-5 3F.7 ....|G-5 2F.7 ....
....|..|G-1 2F.7 ....|C#6 3F.A ....|C#6 2F.A ....
 B-4|..|C-4 LF.F ....|B-5 3F.F ....|B-5 2C.F ....
....|..|R-- .... ....|--- .... ....|--- .... ....
....|..|C-4 LF.7 ....|D-6 3F.7 ....|D-6 2F.7 ....
....|..|C-4 AF.A ....|D-6 3F.A ....|D-6 2F.A ....
 G-4|..|C-4 LF.F ....|G-5 3F.F ....|G-5 2C.F ....
....|..|C-5 VF.7 ....|C#6 3F.7 ....|C#6 2F.7 ....
....|..|C-4 LF.A ....|B-5 3F.A ....|B-5 2F.A ....
 E-4|..|C-4 AF.F ....|E-3 3F.F ....|E-3 2C.F ....
 F-3|..|F-1 2A.F ....|--- .... ....|--- .F.. ....
....|..|C-4 AF.7 ....|D-6 3F.7 ....|D-6 2F.7 ....
....|..|G-1 2F.7 ....|G-5 3F.A ....|G-5 2F.A ....
 F-4|..|C-4 AF.F ....|F-3 3F.F ....|F-3 2C.F ....
 F-3|..|F-1 2A.F ....|B-5 3F.7 ....|B-5 2F.7 ....
....|..|C-4 AF.A ....|E-3 3F.A ....|E-3 2F.A ....
 A-3|..|C-4 LF.F ....|A-3 3F.F ....|A-3 2C.F ....
....|..|R-- .... ....|--- .... ....|--- .... ....
....|..|C-4 LF.7 ....|G-5 3F.7 ....|G-5 2F.7 ....
 B-4|..|C-4 LF.F ....|B-3 3F.F ....|B-3 2C.F ....
....|..|F-1 2F.A ....|--- .... ....|--- .... ....
....|..|C-4 AF.7 ....|E-3 3F.7 ....|E-3 2F.7 ....
....|..|F-1 2F.7 ....|A-3 3F.A ....|A-3 2F.A ....
 C-3|..|C-5 VF.F ....|C-4 3F.F ....|C-4 2C.F ....
....|..|R-- .... ....|--- .... ....|--- .... ....
....|..|C-4 AF.7 ....|F-3 3F.7 ....|F-3 2F.7 ....
 E-4|..|C-4 LF.F ....|E-4 3F.F ....|E-4 2C.F ....
....|..|R-- .... ....|--- .... ....|--- .... ....
....|..|C-4 LF.7 ....|A-3 3F.7 ....|A-3 2F.7 ....
....|..|C-5 VF.A ....|C-4 3F.A ....|C-4 2F.A ....
 F-4|..|C-4 AF.F ....|F-4 3F.F ....|F-4 2C.F ....
 F-3|..|F-1 2A.F ....|B-3 3F.7 ....|B-3 2F.7 ....
....|..|C-4 LF.A ....|E-4 3F.A ....|E-4 2F.A ....
 A-3|..|C-4 AF.F ....|A-4 3F.F ....|A-4 2C.F ....
 F-3|..|F-1 2A.F ....|--- .... ....|--- .F.. ....
....|..|C-5 VF.7 ....|C-4 3F.7 ....|C-4 2F.7 ....
....|..|C-4 AF.A ....|F-4 3F.A ....|F-4 2F.A ....
 F-4|..|C-4 LF.F ....|F-4 3F.F ....|F-4 2C.F ....
....|..|C-4 LF.7 ....|E-4 3F.7 ....|E-4 2F.7 ....
....|..|C-4 AF.A ....|A-4 3F.A ....|A-4 2F.A ....
 E-4|..|C-4 LF.F ....|E-4 3F.F ....|E-4 2C.F ....
....|..|R-- .... ....|--- .... ....|--- .... ....
....|..|C-4 AF.7 ....|F-4 3F.7 ....|F-4 2F.7 ....
....|..|F-1 2F.7 ....|F-4 3F.A ....|F-4 2F.A ....
 F-4|..|C-4 AF.F ....|F-4 3F.F ....|F-4 2C.F ....
 F-3|..|F-1 2A.F ....|A-4 3F.7 ....|A-4 2F.7 ....
....|..|F-1 2F.7 ....|E-4 3F.A ....|E-4 2F.A ....
 C-3|..|C-4 LF.F ....|C-5 3F.F ....|C-5 2C.F ....
....|..|R-- .... ....|--- .... ....|--- .... ....
....|..|C-4 LF.7 ....|F-4 3F.7 ....|F-4 2F.7 ....
....|..|C-4 AF.A ....|F-4 3F.A ....|F-4 2F.A ....
 B-4|..|C-5 VF.F ....|B-4 3F.F ....|B-4 2C.F ....
....|..|C-4 LF.7 ....|E-4 3F.7 ....|E-4 2F.7 ....
....|..|C-4 LF.A ....|C-5 3F.A ....|C-5 2F.A ....
 C-3|..|C-4 AF.F ....|C-5 3F.F ....|C-5 2C.F ....
 F-3|..|F-1 2A.F ....|--- .... ....|--- .F.. ....
....|..|C-4 AF.7 ....|F-4 3F.7 ....|F-4 2F.7 ....
....|..|F-1 2F.7 ....|B-4 3F.A ....|B-4 2F.A ....
 A-3|..|C-4 LF.F ....|A-4 3F.F ....|A-4 2C.F ....
....|..|C-4 LF.7 ....|C-5 3F.7 ....|C-5 2F.7 ....
....|..|C-4 AF.A ....|C-5 3F.A ....|C-5 2F.A ....
 F-4|..|C-4 LF.F ....|F-4 3F.F ....|F-4 2C.F ....
....|..|R-- .... ....|--- .... ....|--- .... ....
....|..|C-5 VF.7 ....|B-4 3F.7 ....|B-4 2F.7 ....
....|..|C-4 LF.A ....|A-4 3F.A ....|A-4 2F.A ....
 E-4|..|C-4 AF.F ....|E-4 3F.F ....|E-4 2C.F ....
 F-3|..|F-1 2A.F ....|C-5 3F.7 ....|C-5 2F.7 ....
....|..|F-1 2F.7 ....|F-4 3F.A ....|F-4 2F.A ....
 F-4|..|C-4 AF.F ....|F-4 3F.F ....|F-4 2C.F ....
 F-3|..|F-1 2A.F ....|--- .... ....|--- .... ....
....|..|C-4 LF.7 ....|A-4 3F.7 ....|A-4 2F.7 ....
....|..|C-4 AF.A ....|E-4 3F.A ....|E-4 2F.A ....
 A-3|..|C-4 LF.F ....|A-4 3F.F ....|A-4 2C.F ....
....|..|C-4 LF.7 ....|F-4 3F.7 ....|F-4 2F.7 ....
....|..|C-4 AF.A ....|F-4 3F.A ....|F-4 2F.A ....
 B-4|..|C-4 LF.F ....|B-4 3F.F ....|B-4 2C.F ....
....|..|R-- .... ....|--- .... ....|--- .... ....
....|..|C-4 AF.7 ....|E-4 3F.7 ....|E-4 2F.7 ....
....|..|F-1 2F.7 ....|A-4 3F.A ....|A-4 2F.A ....
 C-3|..|C-5 VF.F ....|C-5 3F.F ....|C-5 2C.F ....
....|..|C-4 AF.7 ....|F-4 3F.7 ....|F-4 2F.7 ....
....|..|F-1 2F.7 ....|B-4 3F.A ....|B-4 2F.A ....
 E-4|..|C-4 LF.F ....|E-5 3F.F ....|E-5 2C.F ....
....|..|R-- .... ....|--- .... ....|--- .... ....
....|..|C-4 LF.7 ....|A-4 3F.7 ....|A-4 2F.7 ....
....|..|C-5 VF.A ....|C-5 3F.A ....|C-5 2F.A ....
 F-4|..|C-4 AF.F ....|F-5 3F.F ....|F-5 2C.F ....
 F-3|..|F-1 2A.F ....|B-4 3F.7 ....|B-4 2F.7 ....
....|..|C-4 LF.A ....|E-5 3F.A ....|E-5 2F.A ....
 A-3|..|C-4 AF.F ....|A-5 3F.F ....|A-5 2C.F ....
 F-3|..|F-1 2A.F ....|--- .... ....|--- .F.. ....

[Pattern19]
....|..|C-5 VF.7 ....|C-5 3F.7 ....|C-5 2F.7 ....
....|..|C-4 AF.A ....|F-5 3F.A ....|F-5 2F.A ....
 F-4|..|C-4 LF.F ....|F-5 3F.F ....|F-5 2C.F ....
....|..|C-4 LF.7 ....|E-5 3F.7 ....|E-5 2F.7 ....
....|..|C-4 AF.A ....|A-5 3F.A ....|A-5 2F.A ....
 E-4|..|C-4 LF.F ....|E-5 3F.F ....|E-5 2C.F ....
....|..|R-- .... ....|--- .... ....|--- .... ....
....|..|C-4 AF.7 ....|F-5 3F.7 ....|F-5 2F.7 ....
....|..|F-1 2F.7 ....|F-5 3F.A ....|F-5 2F.A ....
 F-4|..|C-4 AF.F ....|F-5 3F.F ....|F-5 2C.F ....
 F-3|..|F-1 2A.F ....|A-5 3F.7 ....|A-5 2F.7 ....
....|..|F-1 2F.7 ....|E-5 3F.A ....|E-5 2F.A ....
 C-3|..|C-4 LF.F ....|C-6 3F.F ....|C-6 2C.F ....
....|..|R-- .... ....|--- .... ....|--- .... ....
....|..|C-4 LF.7 ....|F-5 3F.7 ....|F-5 2F.7 ....
....|..|C-4 AF.A ....|F-5 3F.A ....|F-5 2F.A ....
 B-4|..|C-5 VF.F ....|B-5 3F.F ....|B-5 2C.F ....
....|..|C-4 LF.7 ....|E-5 3F.7 ....|E-5 2F.7 ....
....|..|C-4 LF.A ....|C-6 3F.A ....|C-6 2F.A ....
 C-3|..|C-4 AF.F ....|C-6 3F.F ....|C-6 2C.F ....
 F-3|..|F-1 2A.F ....|--- .... ....|--- .F.. ....
....|..|C-4 AF.7 ....|F-5 3F.7 ....|F-5 2F.7 ....
....|..|F-1 2F.7 ....|B-5 3F.A ....|B-5 2F.A ....
 A-3|..|C-4 LF.F ....|A-5 3F.F ....|A-5 2C.F ....
....|..|C-4 LF.7 ....|C-6 3F.7 ....|C-6 2F.7 ....
....|..|C-4 AF.A ....|C-6 3F.A ....|C-6 2F.A ....
 F-4|..|C-4 LF.F ....|F-5 3F.F ....|F-5 2C.F ....
....|..|R-- .... ....|--- .... ....|--- .... ....
....|..|C-5 VF.7 ....|B-5 3F.7 ....|B-5 2F.7 ....
....|..|C-4 LF.A ....|A-5 3F.A ....|A-5 2F.A ....
 D-4|..|C-4 AF.F ....|D-3 3F.F ....|D-3 2C.F ....
 D#3|..|D#1 2A.F ....|C-6 3F.7 ....|C-6 2F.7 ....
....|..|F-1 2F.7 ....|F-5 3F.A ....|F-5 2F.A ....
 D#4|..|C-4 AF.F ....|D#3 3F.F ....|D#3 2C.F ....
 D#3|..|D#1 2A.F ....|--- .... ....|--- .... ....
....|..|C-4 LF.7 ....|A-5 3F.7 ....|A-5 2F.7 ....
....|..|C-4 AF.A ....|D-3 3F.A ....|D-3 2F.A ....
 G-4|..|C-4 LF.F ....|G-3 3F.F ....|G-3 2C.F ....
....|..|C-4 LF.7 ....|F-5 3F.7 ....|F-5 2F.7 ....
....|..|C-4 AF.A ....|D#3 3F.A ....|D#3 2F.A ....
 A-3|..|C-4 LF.F ....|A-3 3F.F ....|A-3 2C.F ....
....|..|R-- .... ....|--- .... ....|--- .... ....
....|..|C-4 AF.7 ....|D-3 3F.7 ....|D-3 2F.7 ....
....|..|D#1 2F.7 ....|G-3 3F.A ....|G-3 2F.A ....
 A#3|..|C-5 VF.F ....|A#3 3F.F ....|A#3 2C.F ....
....|..|C-4 AF.7 ....|D#3 3F.7 ....|D#3 2F.7 ....
....|..|D#1 2F.7 ....|A-3 3F.A ....|A-3 2F.A ....
 D-4|..|C-4 LF.F ....|D-4 3F.F ....|D-4 2C.F ....
....|..|R-- .... ....|--- .... ....|--- .... ....
....|..|C-4 LF.7 ....|G-3 3F.7 ....|G-3 2F.7 ....
....|..|C-5 VF.A ....|A#3 3F.A ....|A#3 2F.A ....
 D#4|..|C-4 AF.F ....|D#4 3F.F ....|D#4 2C.F ....
 D#3|..|D#1 2A.F ....|A-3 3F.7 ....|A-3 2F.7 ....
....|..|C-4 LF.A ....|D-4 3F.A ....|D-4 2F.A ....
 G-4|..|C-4 AF.F ....|G-4 3F.F ....|G-4 2C.F ....
 D#3|..|D#1 2A.F ....|--- .... ....|--- .F.. ....
....|..|C-5 VF.7 ....|A#3 3F.7 ....|A#3 2F.7 ....
....|..|C-4 AF.A ....|D#4 3F.A ....|D#4 2F.A ....
 D#4|..|C-4 LF.F ....|D#4 3F.F ....|D#4 2C.F ....
....|..|C-4 LF.7 ....|D-4 3F.7 ....|D-4 2F.7 ....
....|..|C-4 AF.A ....|G-4 3F.A ....|G-4 2F.A ....
 D-4|..|C-4 LF.F ....|D-4 3F.F ....|D-4 2C.F ....
....|..|R-- .... ....|--- .... ....|--- .... ....
....|..|C-4 AF.7 ....|D#4 3F.7 ....|D#4 2F.7 ....
....|..|D#1 2F.7 ....|D#4 3F.A ....|D#4 2F.A ....
 D#4|..|C-4 AF.F ....|D#4 3F.F ....|D#4 2C.F ....
 D#3|..|D#1 2A.F ....|G-4 3F.7 ....|G-4 2F.7 ....
....|..|D#1 2F.7 ....|D-4 3F.A ....|D-4 2F.A ....
 A#3|..|C-4 LF.F ....|A#4 3F.F ....|A#4 2C.F ....
....|..|R-- .... ....|--- .... ....|--- .... ....
....|..|C-4 LF.7 ....|D#4 3F.7 ....|D#4 2F.7 ....
....|..|C-4 AF.A ....|D#4 3F.A ....|D#4 2F.A ....
 A-3|..|C-5 VF.F ....|A-4 3F.F ....|A-4 2C.F ....
....|..|C-4 LF.7 ....|D-4 3F.7 ....|D-4 2F.7 ....
....|..|C-4 LF.A ....|A#4 3F.A ....|A#4 2F.A ....
 A#3|..|C-4 AF.F ....|A#4 3F.F ....|A#4 2C.F ....
 D#3|..|D#1 2A.F ....|--- .... ....|--- .F.. ....
....|..|C-4 AF.7 ....|D#4 3F.7 ....|D#4 2F.7 ....
....|..|D#1 2F.7 ....|A-4 3F.A ....|A-4 2F.A ....
 G-4|..|C-4 LF.F ....|G-4 3F.F ....|G-4 2C.F ....
....|..|C-4 LF.7 ....|A#4 3F.7 ....|A#4 2F.7 ....
....|..|C-4 AF.A ....|A#4 3F.A ....|A#4 2F.A ....
 D#4|..|C-4 LF.F ....|D#4 3F.F ....|D#4 2C.F ....
....|..|R-- .... ....|--- .... ....|--- .... ....
....|..|C-5 VF.7 ....|A-4 3F.7 ....|A-4 2F.7 ....
....|..|C-4 LF.A ....|G-4 3F.A ....|G-4 2F.A ....
 D-4|..|C-4 AF.F ....|D-4 3F.F ....|D-4 2C.F ....
 D#3|..|D#1 2A.F ....|A#4 3F.7 ....|A#4 2F.7 ....
....|..|D#1 2F.7 ....|D#4 3F.A ....|D#4 2F.A ....
 D#4|..|C-4 AF.F ....|D#4 3F.F ....|D#4 2C.F ....
 D#3|..|D#1 2A.F ....|--- .... ....|--- .... ....
....|..|C-4 LF.7 ....|G-4 3F.7 ....|G-4 2F.7 ....
....|..|C-4 AF.A ....|D-4 3F.A ....|D-4 2F.A ....
 G-4|..|C-4 LF.F ....|G-4 3F.F ....|G-4 2C.F ....
....|..|C-4 LF.7 ....|D#4 3F.7 ....|D#4 2F.7 ....
....|..|C-4 AF.A ....|D#4 3F.A ....|D#4 2F.A ....
 A-3|..|C-4 LF.F ....|A-4 3F.F ....|A-4 2C.F ....
....|..|R-- .... ....|--- .... ....|--- .... ....
....|..|C-4 AF.7 ....|D-4 3F.7 ....|D-4 2F.7 ....
....|..|D#1 2F.7 ....|G-4 3F.A ....|G-4 2F.A ....
 A#3|..|C-5 VF.F ....|A#4 3F.F ....|A#4 2C.F ....
....|..|C-4 AF.7 ....|D#4 3F.7 ....|D#4 2F.7 ....
....|..|D#1 2F.7 ....|A-4 3F.A ....|A-4 2F.A ....
 D-4|..|C-4 LF.F ....|D-5 3F.F ....|D-5 2C.F ....
....|..|R-- .... ....|--- .... ....|--- .... ....
....|..|C-4 LF.7 ....|G-4 3F.7 ....|G-4 2F.7 ....
....|..|C-5 VF.A ....|A#4 3F.A ....|A#4 2F.A ....
 D#4|..|C-4 AF.F ....|D#5 3F.F ....|D#5 2C.F ....
 D#3|..|D#1 2A.F ....|A-4 3F.7 ....|A-4 2F.7 ....
....|..|C-4 LF.A ....|D-5 3F.A ....|D-5 2F.A ....
 G-4|..|C-4 AF.F ....|G-5 3F.F ....|G-5 2C.F ....
 D#3|..|D#1 2A.F ....|--- .... ....|--- .F.. ....
....|..|C-5 VF.7 ....|A#4 3F.7 ....|A#4 2F.7 ....
....|..|C-4 AF.A ....|D#5 3F.A ....|D#5 2F.A ....
 D#4|..|C-4 LF.F ....|D#5 3F.F ....|D#5 2C.F ....
....|..|C-4 LF.7 ....|D-5 3F.7 ....|D-5 2F.7 ....
....|..|C-4 AF.A ....|G-5 3F.A ....|G-5 2F.A ....
 D-4|..|C-4 LF.F ....|D-5 3F.F ....|D-5 2C.F ....
....|..|R-- .... ....|--- .... ....|--- .... ....
....|..|C-4 AF.7 ....|D#5 3F.7 ....|D#5 2F.7 ....
....|..|D#1 2F.7 ....|D#5 3F.A ....|D#5 2F.A ....
 D#4|..|C-4 AF.F ....|D#5 3F.F ....|D#5 2C.F ....
 D#3|..|D#1 2A.F ....|G-5 3F.7 ....|G-5 2F.7 ....
....|..|D#1 2F.7 ....|D-5 3F.A ....|D-5 2F.A ....
 A#3|..|C-4 LF.F ....|A#5 3F.F ....|A#5 2C.F ....
....|..|R-- .... ....|--- .... ....|--- .... ....
....|..|C-4 LF.7 ....|D#5 3F.7 ....|D#5 2F.7 ....
....|..|C-4 AF.A ....|D#5 3F.A ....|D#5 2F.A ....

[Pattern20]
 A-3|..|C-5 VF.F ....|A-5 3F.F ....|A-5 2C.F ....
....|..|C-4 LF.7 ....|D-5 3F.7 ....|D-5 2F.7 ....
....|..|C-4 LF.A ....|A#5 3F.A ....|A#5 2F.A ....
 A#3|..|C-4 AF.F ....|A#5 3F.F ....|A#5 2C.F ....
 D#3|..|D#1 2A.F ....|--- .... ....|--- .F.. ....
....|..|C-4 AF.7 ....|D#5 3F.7 ....|D#5 2F.7 ....
....|..|D#1 2F.7 ....|A-5 3F.A ....|A-5 2F.A ....
 G-4|..|C-4 LF.F ....|G-5 3F.F ....|G-5 2C.F ....
....|..|C-4 LF.7 ....|A#5 3F.7 ....|A#5 2F.7 ....
....|..|C-4 AF.A ....|A#5 3F.A ....|A#5 2F.A ....
 D#4|..|C-4 LF.F ....|D#5 3F.F ....|D#5 2C.F ....
....|..|R-- .... ....|--- .... ....|--- .... ....
....|..|C-5 VF.7 ....|A-5 3F.7 ....|A-5 2F.7 ....
....|..|C-4 LF.A ....|G-5 3F.A ....|G-5 2F.A ....
 C-3|..|C-4 AF.F ....|C-3 3F.F ....|C-3 2C.F ....
 C#3|..|C#1 2A.F ....|A#5 3F.7 ....|A#5 2F.7 ....
....|..|D#1 2F.7 ....|D#5 3F.A ....|D#5 2F.A ....
 C#4|..|C-4 AF.F ....|C#3 3F.F ....|C#3 2C.F ....
 C#3|..|C#1 2A.F ....|--- .... ....|--- .... ....
....|..|C-4 LF.7 ....|G-5 3F.7 ....|G-5 2F.7 ....
....|..|C-4 AF.A ....|C-3 3F.A ....|C-3 2F.A ....
 F-4|..|C-4 LF.F ....|F-3 3F.F ....|F-3 2C.F ....
....|..|C-4 LF.7 ....|D#5 3F.7 ....|D#5 2F.7 ....
....|..|C-4 AF.A ....|C#3 3F.A ....|C#3 2F.A ....
 G-4|..|C-4 LF.F ....|G-3 3F.F ....|G-3 2C.F ....
....|..|R-- .... ....|--- .... ....|--- .... ....
....|..|C-4 AF.7 ....|C-3 3F.7 ....|C-3 2F.7 ....
....|..|C#1 2F.7 ....|F-3 3F.A ....|F-3 2F.A ....
 G#4|..|C-5 VF.F ....|G#3 3F.F ....|G#3 2C.F ....
....|..|C-4 AF.7 ....|C#3 3F.7 ....|C#3 2F.7 ....
....|..|C#1 2F.7 ....|G-3 3F.A ....|G-3 2F.A ....
 C-3|..|C-4 LF.F ....|C-4 3F.F ....|C-4 2C.F ....
....|..|R-- .... ....|--- .... ....|--- .... ....
....|..|C-4 LF.7 ....|F-3 3F.7 ....|F-3 2F.7 ....
....|..|C-5 VF.A ....|G#3 3F.A ....|G#3 2F.A ....
 C#4|..|C-4 AF.F ....|C#4 3F.F ....|C#4 2C.F ....
 C#3|..|C#1 2A.F ....|G-3 3F.7 ....|G-3 2F.7 ....
....|..|C-4 LF.A ....|C-4 3F.A ....|C-4 2F.A ....
 F-4|..|C-4 AF.F ....|F-4 3F.F ....|F-4 2C.F ....
 C#3|..|C#1 2A.F ....|--- .... ....|--- .F.. ....
....|..|C-5 VF.7 ....|G#3 3F.7 ....|G#3 2F.7 ....
....|..|C-4 AF.A ....|C#4 3F.A ....|C#4 2F.A ....
 C#4|..|C-4 LF.F ....|C#4 3F.F ....|C#4 2C.F ....
....|..|C-4 LF.7 ....|C-4 3F.7 ....|C-4 2F.7 ....
....|..|C-4 AF.A ....|F-4 3F.A ....|F-4 2F.A ....
 C-3|..|C-4 LF.F ....|C-4 3F.F ....|C-4 2C.F ....
....|..|R-- .... ....|--- .... ....|--- .... ....
....|..|C-4 AF.7 ....|C#4 3F.7 ....|C#4 2F.7 ....
....|..|C#1 2F.7 ....|C#4 3F.A ....|C#4 2F.A ....
 C#4|..|C-4 AF.F ....|C#4 3F.F ....|C#4 2C.F ....
 C#3|..|C#1 2A.F ....|F-4 3F.7 ....|F-4 2F.7 ....
....|..|C#1 2F.7 ....|C-4 3F.A ....|C-4 2F.A ....
 G#4|..|C-4 LF.F ....|G#4 3F.F ....|G#4 2C.F ....
....|..|R-- .... ....|--- .... ....|--- .... ....
....|..|C-4 LF.7 ....|C#4 3F.7 ....|C#4 2F.7 ....
....|..|C-4 AF.A ....|C#4 3F.A ....|C#4 2F.A ....
 G-4|..|C-5 VF.F ....|G-4 3F.F ....|G-4 2C.F ....
....|..|C-4 LF.7 ....|C-4 3F.7 ....|C-4 2F.7 ....
....|..|C-4 LF.A ....|G#4 3F.A ....|G#4 2F.A ....
 G#4|..|C-4 AF.F ....|G#4 3F.F ....|G#4 2C.F ....
 C#3|..|C#1 2A.F ....|--- .... ....|--- .F.. ....
....|..|C-4 AF.7 ....|C#4 3F.7 ....|C#4 2F.7 ....
....|..|C#1 2F.7 ....|G-4 3F.A ....|G-4 2F.A ....
 F-4|..|C-4 LF.F ....|F-4 3F.F ....|F-4 2C.F ....
....|..|C-4 LF.7 ....|G#4 3F.7 ....|G#4 2F.7 ....
....|..|C-4 AF.A ....|G#4 3F.A ....|G#4 2F.A ....
 C#4|..|C-4 LF.F ....|C#4 3F.F ....|C#4 2C.F ....
....|..|R-- .... ....|--- .... ....|--- .... ....
....|..|C-5 VF.7 ....|G-4 3F.7 ....|G-4 2F.7 ....
....|..|C-4 LF.A ....|F-4 3F.A ....|F-4 2F.A ....
 C-3|..|C-4 AF.F ....|C-4 3F.F ....|C-4 2C.F ....
 C#3|..|C#1 2A.F ....|G#4 3F.7 ....|G#4 2F.7 ....
....|..|C#1 2F.7 ....|C#4 3F.A ....|C#4 2F.A ....
 C#4|..|C-4 AF.F ....|C#4 3F.F ....|C#4 2C.F ....
 C#3|..|C#1 2A.F ....|--- .... ....|--- .... ....
....|..|C-4 LF.7 ....|F-4 3F.7 ....|F-4 2F.7 ....
....|..|C-4 AF.A ....|C-4 3F.A ....|C-4 2F.A ....
 F-4|..|C-4 LF.F ....|F-4 3F.F ....|F-4 2C.F ....
....|..|C-4 LF.7 ....|C#4 3F.7 ....|C#4 2F.7 ....
....|..|C-4 AF.A ....|C#4 3F.A ....|C#4 2F.A ....
 G-4|..|C-4 LF.F ....|G-4 3F.F ....|G-4 2C.F ....
....|..|R-- .... ....|--- .... ....|--- .... ....
....|..|C-4 AF.7 ....|C-4 3F.7 ....|C-4 2F.7 ....
....|..|C#1 2F.7 ....|F-4 3F.A ....|F-4 2F.A ....
 G#4|..|C-5 VF.F ....|G#4 3F.F ....|G#4 2C.F ....
....|..|C-4 AF.7 ....|C#4 3F.7 ....|C#4 2F.7 ....
....|..|C#1 2F.7 ....|G-4 3F.A ....|G-4 2F.A ....
 C-3|..|C-4 LF.F ....|C-5 3F.F ....|C-5 2C.F ....
....|..|R-- .... ....|--- .... ....|--- .... ....
....|..|C-4 LF.7 ....|F-4 3F.7 ....|F-4 2F.7 ....
....|..|C-5 VF.A ....|G#4 3F.A ....|G#4 2F.A ....
 C#4|..|C-4 AF.F ....|C#5 3F.F ....|C#5 2C.F ....
 C#3|..|C#1 2A.F ....|G-4 3F.7 ....|G-4 2F.7 ....
....|..|C-4 LF.A ....|C-5 3F.A ....|C-5 2F.A ....
 F-4|..|C-4 AF.F ....|F-5 3F.F ....|F-5 2C.F ....
 C#3|..|C#1 2A.F ....|--- .... ....|--- .F.. ....
....|..|C-5 VF.7 ....|G#4 3F.7 ....|G#4 2F.7 ....
....|..|C-4 AF.A ....|C#5 3F.A ....|C#5 2F.A ....
 C#4|..|C-4 LF.F ....|C#5 3F.F ....|C#5 2C.F ....
....|..|C-4 LF.7 ....|C-5 3F.7 ....|C-5 2F.7 ....
....|..|C-4 AF.A ....|F-5 3F.A ....|F-5 2F.A ....
 C-3|..|C-4 LF.F ....|C-5 3F.F ....|C-5 2C.F ....
....|..|R-- .... ....|--- .... ....|--- .... ....
....|..|C-4 AF.7 ....|C#5 3F.7 ....|C#5 2F.7 ....
....|..|C#1 2F.7 ....|C#5 3F.A ....|C#5 2F.A ....
 C#4|..|C-4 AF.F ....|C#5 3F.F ....|C#5 2C.F ....
 C#3|..|C#1 2A.F ....|F-5 3F.7 ....|F-5 2F.7 ....
....|..|C#1 2F.7 ....|C-5 3F.A ....|C-5 2F.A ....
 G#4|..|C-4 LF.F ....|G#5 3F.F ....|G#5 2C.F ....
....|..|R-- .... ....|--- .... ....|--- .... ....
....|..|C-4 LF.7 ....|C#5 3F.7 ....|C#5 2F.7 ....
....|..|C-4 AF.A ....|C#5 3F.A ....|C#5 2F.A ....
 G-4|..|C-5 VF.F ....|G-5 3F.F ....|G-5 2C.F ....
....|..|C-4 LF.7 ....|C-5 3F.7 ....|C-5 2F.7 ....
....|..|C-4 LF.A ....|G#5 3F.A ....|G#5 2F.A ....
 G#4|..|C-4 AF.F ....|G#5 3F.F ....|G#5 2C.F ....
 C#3|..|C#1 2A.F ....|--- .... ....|--- .F.. ....
....|..|C-4 AF.7 ....|C#5 3F.7 ....|C#5 2F.7 ....
....|..|C#1 2F.7 ....|G-5 3F.A ....|G-5 2F.A ....
 F-4|..|C-4 LF.F ....|F-5 3F.F ....|F-5 2C.F ....
....|..|C-4 LF.7 ....|G#5 3F.7 ....|G#5 2F.7 ....
....|..|C-4 AF.A ....|G#5 3F.A ....|G#5 2F.A ....
 C#4|..|C-4 LF.F ....|C#5 3F.F ....|C#5 2C.F ....
....|..|R-- .... ....|--- .... ....|--- .... ....
....|..|C-5 VF.7 ....|G-5 3F.7 ....|G-5 2F.7 ....
....|..|C-4 LF.A ....|F-5 3F.A ....|F-5 2F.A ....
 F#4|..|C-4 AF.F ....|F#3 3F.F ....|F#3 2C.F ....
 G-3|..|G-1 2A.F ....|G#5 3F.7 ....|G#5 2F.7 ....

[Pattern21]
....|..|C#1 2F.7 ....|C#5 3F.A ....|C#5 2F.A ....
 G-4|..|C-4 AF.F ....|G-3 3F.F ....|G-3 2C.F ....
 G-3|..|G-1 2A.F ....|--- .... ....|--- .... ....
....|..|C-4 LF.7 ....|F-5 3F.7 ....|F-5 2F.7 ....
....|..|C-4 AF.A ....|F#3 3F.A ....|F#3 2F.A ....
 B-4|..|C-4 LF.F ....|B-3 3F.F ....|B-3 2C.F ....
....|..|C-4 LF.7 ....|C#5 3F.7 ....|C#5 2F.7 ....
....|..|C-4 AF.A ....|G-3 3F.A ....|G-3 2F.A ....
 C#4|..|C-4 LF.F ....|C#4 3F.F ....|C#4 2C.F ....
....|..|R-- .... ....|--- .... ....|--- .... ....
....|..|C-4 AF.7 ....|F#3 3F.7 ....|F#3 2F.7 ....
....|..|G-1 2F.7 ....|B-3 3F.A ....|B-3 2F.A ....
 D-4|..|C-5 VF.F ....|D-4 3F.F ....|D-4 2C.F ....
....|..|C-4 AF.7 ....|G-3 3F.7 ....|G-3 2F.7 ....
....|..|G-1 2F.7 ....|C#4 3F.A ....|C#4 2F.A ....
 F#3|..|C-4 LF.F ....|F#4 3F.F ....|F#4 2C.F ....
....|..|R-- .... ....|--- .... ....|--- .... ....
....|..|C-4 LF.7 ....|B-3 3F.7 ....|B-3 2F.7 ....
....|..|C-5 VF.A ....|D-4 3F.A ....|D-4 2F.A ....
 G-4|..|C-4 AF.F ....|G-4 3F.F ....|G-4 2C.F ....
 G-3|..|G-1 2A.F ....|C#4 3F.7 ....|C#4 2F.7 ....
....|..|C-4 LF.A ....|F#4 3F.A ....|F#4 2F.A ....
 B-4|..|C-4 AF.F ....|B-4 3F.F ....|B-4 2C.F ....
 G-3|..|G-1 2A.F ....|--- .... ....|--- .F.. ....
....|..|C-5 VF.7 ....|D-4 3F.7 ....|D-4 2F.7 ....
....|..|C-4 AF.A ....|G-4 3F.A ....|G-4 2F.A ....
 G-4|..|C-4 LF.F ....|G-4 3F.F ....|G-4 2C.F ....
....|..|C-4 LF.7 ....|F#4 3F.7 ....|F#4 2F.7 ....
....|..|C-4 AF.A ....|B-4 3F.A ....|B-4 2F.A ....
 F#3|..|C-4 LF.F ....|F#4 3F.F ....|F#4 2C.F ....
....|..|R-- .... ....|--- .... ....|--- .... ....
....|..|C-4 AF.7 ....|G-4 3F.7 ....|G-4 2F.7 ....
....|..|G-1 2F.7 ....|G-4 3F.A ....|G-4 2F.A ....
 G-4|..|C-4 AF.F ....|G-4 3F.F ....|G-4 2C.F ....
 G-3|..|G-1 2A.F ....|B-4 3F.7 ....|B-4 2F.7 ....
....|..|G-1 2F.7 ....|F#4 3F.A ....|F#4 2F.A ....
 D-4|..|C-4 LF.F ....|D-5 3F.F ....|D-5 2C.F ....
....|..|R-- .... ....|--- .... ....|--- .... ....
....|..|C-4 LF.7 ....|G-4 3F.7 ....|G-4 2F.7 ....
....|..|C-4 AF.A ....|G-4 3F.A ....|G-4 2F.A ....
 C#4|..|C-5 VF.F ....|C#5 3F.F ....|C#5 2C.F ....
....|..|C-4 LF.7 ....|F#4 3F.7 ....|F#4 2F.7 ....
....|..|C-4 LF.A ....|D-5 3F.A ....|D-5 2F.A ....
 D-4|..|C-4 AF.F ....|D-5 3F.F ....|D-5 2C.F ....
 G-3|..|G-1 2A.F ....|--- .... ....|--- .F.. ....
....|..|C-4 AF.7 ....|G-4 3F.7 ....|G-4 2F.7 ....
....|..|G-1 2F.7 ....|C#5 3F.A ....|C#5 2F.A ....
 B-4|..|C-4 LF.F ....|B-4 3F.F ....|B-4 2C.F ....
....|..|C-4 LF.7 ....|D-5 3F.7 ....|D-5 2F.7 ....
....|..|C-4 AF.A ....|D-5 3F.A ....|D-5 2F.A ....
 G-4|..|C-4 LF.F ....|G-4 3F.F ....|G-4 2C.F ....
....|..|R-- .... ....|--- .... ....|--- .... ....
....|..|C-5 VF.7 ....|C#5 3F.7 ....|C#5 2F.7 ....
....|..|C-4 LF.A ....|B-4 3F.A ....|B-4 2F.A ....
 F#3|..|C-4 AF.F ....|F#4 3F.F ....|F#4 2C.F ....
 G-3|..|G-1 2A.F ....|D-5 3F.7 ....|D-5 2F.7 ....
....|..|G-1 2F.7 ....|G-4 3F.A ....|G-4 2F.A ....
 G-4|..|C-4 AF.F ....|G-4 3F.F ....|G-4 2C.F ....
 G-3|..|G-1 2A.F ....|--- .... ....|--- .... ....
....|..|C-4 LF.7 ....|B-4 3F.7 ....|B-4 2F.7 ....
....|..|C-4 AF.A ....|F#4 3F.A ....|F#4 2F.A ....
 B-4|..|C-4 LF.F ....|B-4 3F.F ....|B-4 2C.F ....
....|..|C-4 LF.7 ....|G-4 3F.7 ....|G-4 2F.7 ....
....|..|C-4 AF.A ....|G-4 3F.A ....|G-4 2F.A ....
 C#4|..|C-4 LF.F ....|C#5 3F.F ....|C#5 2C.F ....
....|..|R-- .... ....|--- .... ....|--- .... ....
....|..|C-4 AF.7 ....|F#4 3F.7 ....|F#4 2F.7 ....
....|..|G-1 2F.7 ....|B-4 3F.A ....|B-4 2F.A ....
 D-4|..|C-5 VF.F ....|D-5 3F.F ....|D-5 2C.F ....
....|..|C-4 AF.7 ....|G-4 3F.7 ....|G-4 2F.7 ....
....|..|G-1 2F.7 ....|C#5 3F.A ....|C#5 2F.A ....
 F#3|..|C-4 LF.F ....|F#5 3F.F ....|F#5 2C.F ....
....|..|R-- .... ....|--- .... ....|--- .... ....
....|..|C-4 LF.7 ....|B-4 3F.7 ....|B-4 2F.7 ....
....|..|C-5 VF.A ....|D-5 3F.A ....|D-5 2F.A ....
 G-4|..|C-4 AF.F ....|G-5 3F.F ....|G-5 2C.F ....
 G-3|..|G-1 2A.F ....|C#5 3F.7 ....|C#5 2F.7 ....
....|..|C-4 LF.A ....|F#5 3F.A ....|F#5 2F.A ....
 B-4|..|C-4 AF.F ....|B-5 3F.F ....|B-5 2C.F ....
 G-3|..|G-1 2A.F ....|--- .... ....|--- .F.. ....
....|..|C-5 VF.7 ....|D-5 3F.7 ....|D-5 2F.7 ....
....|..|C-4 AF.A ....|G-5 3F.A ....|G-5 2F.A ....
 G-4|..|C-4 LF.F ....|G-5 3F.F ....|G-5 2C.F ....
....|..|C-4 LF.7 ....|F#5 3F.7 ....|F#5 2F.7 ....
....|..|C-4 AF.A ....|B-5 3F.A ....|B-5 2F.A ....
 F#3|..|C-4 LF.F ....|F#5 3F.F ....|F#5 2C.F ....
....|..|R-- .... ....|--- .... ....|--- .... ....
....|..|C-4 AF.7 ....|G-5 3F.7 ....|G-5 2F.7 ....
....|..|G-1 2F.7 ....|G-5 3F.A ....|G-5 2F.A ....
 G-4|..|C-4 AF.F ....|G-5 3F.F ....|G-5 2C.F ....
 G-3|..|G-1 2A.F ....|B-5 3F.7 ....|B-5 2F.7 ....
....|..|G-1 2F.7 ....|F#5 3F.A ....|F#5 2F.A ....
 D-4|..|C-4 LF.F ....|D-6 3F.F ....|D-6 2C.F ....
....|..|R-- .... ....|--- .... ....|--- .... ....
....|..|C-4 LF.7 ....|G-5 3F.7 ....|G-5 2F.7 ....
....|..|C-4 AF.A ....|G-5 3F.A ....|G-5 2F.A ....
 C#4|..|C-5 VF.F ....|C#6 3F.F ....|C#6 2C.F ....
....|..|C-4 LF.7 ....|F#5 3F.7 ....|F#5 2F.7 ....
....|..|C-4 LF.A ....|D-6 3F.A ....|D-6 2F.A ....
 D-4|..|C-4 AF.F ....|D-6 3F.F ....|D-6 2C.F ....
 G-3|..|G-1 2A.F ....|--- .... ....|--- .F.. ....
....|..|C-4 AF.7 ....|G-5 3F.7 ....|G-5 2F.7 ....
....|..|G-1 2F.7 ....|C#6 3F.A ....|C#6 2F.A ....
 B-4|..|C-4 LF.F ....|B-5 3F.F ....|B-5 2C.F ....
....|..|C-4 LF.7 ....|D-6 3F.7 ....|D-6 2F.7 ....
....|..|C-4 AF.A ....|D-6 3F.A ....|D-6 2F.A ....
 G-4|..|C-4 LF.F ....|G-5 3F.F ....|G-5 2C.F ....
....|..|R-- .... ....|--- .... ....|--- .... ....
....|..|C-5 VF.7 ....|C#6 3F.7 ....|C#6 2F.7 ....
....|..|C-4 LF.A ....|B-5 3F.A ....|B-5 2F.A ....
 E-4|..|C-4 AF.F ....|E-3 3F.F ....|E-3 2C.F ....
 F-3|..|F-1 2A.F ....|D-6 3F.7 ....|D-6 2F.7 ....
....|..|G-1 2F.7 ....|G-5 3F.A ....|G-5 2F.A ....
 F-4|..|C-4 AF.F ....|F-3 3F.F ....|F-3 2C.F ....
 F-3|..|F-1 2A.F ....|--- .... ....|--- .... ....
....|..|C-4 LF.7 ....|B-5 3F.7 ....|B-5 2F.7 ....
....|..|C-4 AF.A ....|E-3 3F.A ....|E-3 2F.A ....
 A-3|..|C-4 LF.F ....|A-3 3F.F ....|A-3 2C.F ....
....|..|C-4 LF.7 ....|G-5 3F.7 ....|G-5 2F.7 ....
....|..|C-4 AF.A ....|F-3 3F.A ....|F-3 2F.A ....
 B-4|..|C-4 LF.F ....|B-3 3F.F ....|B-3 2C.F ....
....|..|R-- .... ....|--- .... ....|--- .... ....
....|..|C-4 AF.7 ....|E-3 3F.7 ....|E-3 2F.7 ....
....|..|F-1 2F.7 ....|A-3 3F.A ....|A-3 2F.A ....
 C-3|..|C-5 VF.F ....|C-4 3F.F ....|C-4 2C.F ....
....|..|C-4 AF.7 ....|F-3 3F.7 ....|F-3 2F.7 ....
....|..|F-1 2F.7 ....|B-3 3F.A ....|B-3 2F.A ....
 E-4|..|C-4 LF.F ....|E-4 3F.F ....|E-4 2C.F ....

[Pattern22]
....|..|R-- .... ....|--- .... ....|--- .... ....
....|..|C-4 LF.7 ....|A-3 3F.7 ....|A-3 2F.7 ....
....|..|C-5 VF.A ....|C-4 3F.A ....|C-4 2F.A ....
 F-4|..|C-4 AF.F ....|F-4 3F.F ....|F-4 2C.F ....
 F-3|..|F-1 2A.F ....|B-3 3F.7 ....|B-3 2F.7 ....
....|..|C-4 LF.A ....|E-4 3F.A ....|E-4 2F.A ....
 A-3|..|C-4 AF.F ....|A-4 3F.F ....|A-4 2C.F ....
 F-3|..|F-1 2A.F ....|--- .... ....|--- .F.. ....
....|..|C-5 VF.7 ....|C-4 3F.7 ....|C-4 2F.7 ....
....|..|C-4 AF.A ....|F-4 3F.A ....|F-4 2F.A ....
 F-4|..|C-4 LF.F ....|F-4 3F.F ....|F-4 2C.F ....
....|..|C-4 LF.7 ....|E-4 3F.7 ....|E-4 2F.7 ....
....|..|C-4 AF.A ....|A-4 3F.A ....|A-4 2F.A ....
 E-4|..|C-4 LF.F ....|E-4 3F.F ....|E-4 2C.F ....
....|..|R-- .... ....|--- .... ....|--- .... ....
....|..|C-4 AF.7 ....|F-4 3F.7 ....|F-4 2F.7 ....
....|..|F-1 2F.7 ....|F-4 3F.A ....|F-4 2F.A ....
 F-4|..|C-4 AF.F ....|F-4 3F.F ....|F-4 2C.F ....
 F-3|..|F-1 2A.F ....|A-4 3F.7 ....|A-4 2F.7 ....
....|..|F-1 2F.7 ....|E-4 3F.A ....|E-4 2F.A ....
 C-3|..|C-4 LF.F ....|C-5 3F.F ....|C-5 2C.F ....
....|..|R-- .... ....|--- .... ....|--- .... ....
....|..|C-4 LF.7 ....|F-4 3F.7 ....|F-4 2F.7 ....
....|..|C-4 AF.A ....|F-4 3F.A ....|F-4 2F.A ....
 B-4|..|C-5 VF.F ....|B-4 3F.F ....|B-4 2C.F ....
....|..|C-4 LF.7 ....|E-4 3F.7 ....|E-4 2F.7 ....
....|..|C-4 LF.A ....|C-5 3F.A ....|C-5 2F.A ....
 C-3|..|C-4 AF.F ....|C-5 3F.F ....|C-5 2C.F ....
 F-3|..|F-1 2A.F ....|--- .... ....|--- .F.. ....
....|..|C-4 AF.7 ....|F-4 3F.7 ....|F-4 2F.7 ....
....|..|F-1 2F.7 ....|B-4 3F.A ....|B-4 2F.A ....
 A-3|..|C-4 LF.F ....|A-4 3F.F ....|A-4 2C.F ....
....|..|C-4 LF.7 ....|C-5 3F.7 ....|C-5 2F.7 ....
....|..|C-4 AF.A ....|C-5 3F.A ....|C-5 2F.A ....
 F-4|..|C-4 LF.F ....|F-4 3F.F ....|F-4 2C.F ....
....|..|R-- .... ....|--- .... ....|--- .... ....
....|..|C-5 VF.7 ....|B-4 3F.7 ....|B-4 2F.7 ....
....|..|C-4 LF.A ....|A-4 3F.A ....|A-4 2F.A ....
 E-4|..|C-4 AF.F ....|E-4 3F.F ....|E-4 2C.F ....
 F-3|..|F-1 2A.F ....|C-5 3F.7 ....|C-5 2F.7 ....
....|..|F-1 2F.7 ....|F-4 3F.A ....|F-4 2F.A ....
 F-4|..|C-4 AF.F ....|F-4 3F.F ....|F-4 2C.F ....
 F-3|..|F-1 2A.F ....|--- .... ....|--- .... ....
....|..|C-4 LF.7 ....|A-4 3F.7 ....|A-4 2F.7 ....
....|..|C-4 AF.A ....|E-4 3F.A ....|E-4 2F.A ....
 A-3|..|C-4 LF.F ....|A-4 3F.F ....|A-4 2C.F ....
....|..|C-4 LF.7 ....|F-4 3F.7 ....|F-4 2F.7 ....
....|..|C-4 AF.A ....|F-4 3F.A ....|F-4 2F.A ....
 B-4|..|C-4 LF.F ....|B-4 3F.F ....|B-4 2C.F ....
....|..|R-- .... ....|--- .... ....|--- .... ....
....|..|C-4 AF.7 ....|E-4 3F.7 ....|E-4 2F.7 ....
....|..|F-1 2F.7 ....|A-4 3F.A ....|A-4 2F.A ....
 C-3|..|C-5 VF.F ....|C-5 3F.F ....|C-5 2C.F ....
....|..|C-4 AF.7 ....|F-4 3F.7 ....|F-4 2F.7 ....
....|..|F-1 2F.7 ....|B-4 3F.A ....|B-4 2F.A ....
 E-4|..|C-4 LF.F ....|E-5 3F.F ....|E-5 2C.F ....
....|..|R-- .... ....|--- .... ....|--- .... ....
....|..|C-4 LF.7 ....|A-4 3F.7 ....|A-4 2F.7 ....
....|..|C-5 VF.A ....|C-5 3F.A ....|C-5 2F.A ....
 F-4|..|C-4 AF.F ....|F-5 3F.F ....|F-5 2C.F ....
 F-3|..|F-1 2A.F ....|B-4 3F.7 ....|B-4 2F.7 ....
....|..|C-4 LF.A ....|E-5 3F.A ....|E-5 2F.A ....
 A-3|..|C-4 AF.F ....|A-5 3F.F ....|A-5 2C.F ....
 F-3|..|F-1 2A.F ....|--- .... ....|--- .F.. ....
....|..|C-5 VF.7 ....|C-5 3F.7 ....|C-5 2F.7 ....
....|..|C-4 AF.A ....|F-5 3F.A ....|F-5 2F.A ....
 F-4|..|C-4 LF.F ....|F-5 3F.F ....|F-5 2C.F ....
....|..|C-4 LF.7 ....|E-5 3F.7 ....|E-5 2F.7 ....
....|..|C-4 AF.A ....|A-5 3F.A ....|A-5 2F.A ....
 E-4|..|C-4 LF.F ....|E-5 3F.F ....|E-5 2C.F ....
....|..|R-- .... ....|--- .... ....|--- .... ....
....|..|C-4 AF.7 ....|F-5 3F.7 ....|F-5 2F.7 ....
....|..|F-1 2F.7 ....|F-5 3F.A ....|F-5 2F.A ....
 F-4|..|C-4 AF.F ....|F-5 3F.F ....|F-5 2C.F ....
 F-3|..|F-1 2A.F ....|A-5 3F.7 ....|A-5 2F.7 ....
....|..|F-1 2F.7 ....|E-5 3F.A ....|E-5 2F.A ....
 C-3|..|C-4 LF.F ....|C-6 3F.F ....|C-6 2C.F ....
....|..|R-- .... ....|--- .... ....|--- .... ....
....|..|C-4 LF.7 ....|F-5 3F.7 ....|F-5 2F.7 ....
....|..|C-4 AF.A ....|F-5 3F.A ....|F-5 2F.A ....
 B-4|..|C-5 VF.F ....|B-5 3F.F ....|B-5 2C.F ....
....|..|C-4 LF.7 ....|E-5 3F.7 ....|E-5 2F.7 ....
....|..|C-4 LF.A ....|C-6 3F.A ....|C-6 2F.A ....
 C-3|..|C-4 AF.F ....|C-6 3F.F ....|C-6 2C.F ....
 F-3|..|F-1 2A.F ....|--- .... ....|--- .F.. ....
....|..|C-4 AF.7 ....|F-5 3F.7 ....|F-5 2F.7 ....
....|..|F-1 2F.7 ....|B-5 3F.A ....|B-5 2F.A ....
 A-3|..|C-4 LF.F ....|A-5 3F.F ....|A-5 2C.F ....
....|..|C-4 LF.7 ....|C-6 3F.7 ....|C-6 2F.7 ....
....|..|C-4 AF.A ....|C-6 3F.A ....|C-6 2F.A ....
 F-4|..|C-4 LF.F ....|F-5 3F.F ....|F-5 2C.F ....
....|..|R-- .... ....|--- .... ....|--- .... ....
....|..|C-5 VF.7 ....|B-5 3F.7 ....|B-5 2F.7 ....
....|..|C-4 LF.A ....|A-5 3F.A ....|A-5 2F.A ....
 D-4|..|C-4 AF.F ....|D-3 3F.F ....|D-3 2C.F ....
 D#3|..|D#1 2A.F ....|C-6 3F.7 ....|C-6 2F.7 ....
....|..|F-1 2F.7 ....|F-5 3F.A ....|F-5 2F.A ....
 D#4|..|C-4 AF.F ....|D#3 3F.F ....|D#3 2C.F ....
 D#3|..|D#1 2A.F ....|--- .... ....|--- .... ....
....|..|C-4 LF.7 ....|A-5 3F.7 ....|A-5 2F.7 ....
....|..|C-4 AF.A ....|D-3 3F.A ....|D-3 2F.A ....
 G-4|..|C-4 LF.F ....|G-3 3F.F ....|G-3 2C.F ....
....|..|C-4 LF.7 ....|F-5 3F.7 ....|F-5 2F.7 ....
....|..|C-4 AF.A ....|D#3 3F.A ....|D#3 2F.A ....
 A-3|..|C-4 LF.F ....|A-3 3F.F ....|A-3 2C.F ....
....|..|R-- .... ....|--- .... ....|--- .... ....
....|..|C-4 AF.7 ....|D-3 3F.7 ....|D-3 2F.7 ....
....|..|D#1 2F.7 ....|G-3 3F.A ....|G-3 2F.A ....
 A#3|..|C-5 VF.F ....|A#3 3F.F ....|A#3 2C.F ....
....|..|C-4 AF.7 ....|D#3 3F.7 ....|D#3 2F.7 ....
....|..|D#1 2F.7 ....|A-3 3F.A ....|A-3 2F.A ....
 D-4|..|C-4 LF.F ....|D-4 3F.F ....|D-4 2C.F ....
....|..|R-- .... ....|--- .... ....|--- .... ....
....|..|C-4 LF.7 ....|G-3 3F.7 ....|G-3 2F.7 ....
....|..|C-5 VF.A ....|A#3 3F.A ....|A#3 2F.A ....
 D#4|..|C-4 AF.F ....|D#4 3F.F ....|D#4 2C.F ....
 D#3|..|D#1 2A.F ....|A-3 3F.7 ....|A-3 2F.7 ....
....|..|C-4 LF.A ....|D-4 3F.A ....|D-4 2F.A ....
 G-4|..|C-4 AF.F ....|G-4 3F.F ....|G-4 2C.F ....
 D#3|..|D#1 2A.F ....|--- .... ....|--- .F.. ....
....|..|C-5 VF.7 ....|A#3 3F.7 ....|A#3 2F.7 ....
....|..|C-4 AF.A ....|D#4 3F.A ....|D#4 2F.A ....
 D#4|..|C-4 LF.F ....|D#4 3F.F ....|D#4 2C.F ....
....|..|C-4 LF.7 ....|D-4 3F.7 ....|D-4 2F.7 ....
....|..|C-4 AF.A ....|G-4 3F.A ....|G-4 2F.A ....
 D-4|..|C-4 LF.F ....|D-4 3F.F ....|D-4 2C.F ....
....|..|R-- .... ....|--- .... ....|--- .... ....
....|..|C-4 AF.7 ....|D#4 3F.7 ....|D#4 2F.7 ....

[Pattern23]
 D#4|..|C-4 AF.F ....|D-4 3F3F ....|D#4 2C.F ....
 D#4|..|D#2 2A.F ....|D#4 3F.F ....|D#4 2C.F ....
....|..|C-4 AF.7 ....|G-4 3F.7 ....|G-4 2F.7 ....
....|..|D#1 2F.7 ....|D-4 3F.A ....|D-4 2F.A ....
 A#3|..|C-4 LF.F ....|A#4 3F.F ....|A#4 2C.F ....
....|..|R-- .... ....|--- .... ....|--- .... ....
....|..|C-4 LF.7 ....|D#4 3F.7 ....|D#4 2F.7 ....
 A-3|..|C-5 VF.F ....|A-4 3F.F ....|A-4 2C.F ....
....|..|R-- .... ....|--- .... ....|--- .... ....
....|..|C-4 LF.7 ....|D-4 3F.7 ....|D-4 2F.7 ....
....|..|C-4 LF.A ....|A#4 3F.A ....|A#4 2F.A ....
 A#3|..|C-4 AF.F ....|A#4 3F.F ....|A#4 2C.F ....
 D#3|..|D#1 2A.F ....|D-4 3F37 ....|D#4 2F.7 ....
....|..|D#1 2F.7 ....|D#4 3F.7 ....|D#4 2F.7 ....
 G-4|..|C-4 LF.F ....|G-4 3F.F ....|G-4 2C.F ....
....|..|R-- .... ....|--- .... ....|--- .... ....
....|..|C-4 LF.7 ....|A#4 3F.7 ....|A#4 2F.7 ....
....|..|C-4 AF.A ....|A#4 3F.A ....|A#4 2F.A ....
 D#4|..|C-4 LF.F ....|D#4 3F.F ....|D#4 2C.F ....
....|..|C-5 VF.7 ....|A-4 3F.7 ....|A-4 2F.7 ....
....|..|C-4 LF.A ....|G-4 3F.A ....|G-4 2F.A ....
 D-4|..|C-4 AF.F ....|D-4 3F.F ....|D-4 2C.F ....
 D#3|..|D#1 2A.F ....|--- .... ....|--- .F.. ....
....|..|C-4 AF.7 ....|A#4 3F.7 ....|A#4 2F.7 ....
....|..|D#1 2F.7 ....|D#4 3F.A ....|D#4 2F.A ....
 D#4|..|C-4 AF.F ....|D#4 3F.F ....|D#4 2C.F ....
 D#3|..|D#1 2A.F ....|G-4 3F.7 ....|G-4 2F.7 ....
....|..|C-4 AF.A ....|D-4 3F.A ....|D-4 2F.A ....
 G-4|..|C-4 LF.F ....|G-4 3F.F ....|G-4 2C.F ....
....|..|R-- .... ....|--- .... ....|--- .... ....
....|..|C-4 LF.7 ....|D#4 3F.7 ....|D#4 2F.7 ....
....|..|C-4 AF.A ....|D#4 3F.A ....|D#4 2F.A ....
 A-3|..|C-4 LF.F ....|A-4 3F.F ....|A-4 2C.F ....
....|..|C-4 AF.7 ....|D-4 3F.7 ....|D-4 2F.7 ....
....|..|D#1 2F.7 ....|G-4 3F.A ....|G-4 2F.A ....
 A#3|..|C-5 VF.F ....|A#4 3F.F ....|A#4 2C.F ....
....|..|R-- .... ....|--- .... ....|--- .... ....
....|..|C-4 AF.7 ....|D#4 3F.7 ....|D#4 2F.7 ....
....|..|D#1 2F.7 ....|A-4 3F.A ....|A-4 2F.A ....
 D-4|..|C-4 LF.F ....|D-5 3F.F ....|D-5 2C.F ....
....|..|C-4 LF.7 ....|G-4 3F.7 ....|G-4 2F.7 ....
....|..|C-5 VF.A ....|A#4 3F.A ....|A#4 2F.A ....
 D#4|..|C-4 AF.F ....|D#5 3F.F ....|D#5 2C.F ....
 D#3|..|D#1 2A.F ....|--- .... ....|--- .... ....
....|..|C-4 LF.7 ....|A-4 3F.7 ....|A-4 2F.7 ....
....|..|C-4 LF.A ....|D-5 3F.A ....|D-5 2F.A ....
 G-4|..|C-4 AF.F ....|G-5 3F.F ....|G-5 2C.F ....
 D#3|..|D#1 2A.F ....|A#4 3F.7 ....|A#4 2F.7 ....
....|..|C-4 AF.A ....|D#5 3F.A ....|D#5 2F.A ....
 D#4|..|C-4 LF.F ....|D#5 3F.F ....|D#5 2C.F ....
....|..|R-- .... ....|--- .... ....|--- .... ....
....|..|C-4 LF.7 ....|D-5 3F.7 ....|D-5 2F.7 ....
....|..|C-4 AF.A ....|G-5 3F.A ....|G-5 2F.A ....
 D-4|..|C-4 LF.F ....|D-5 3F.F ....|D-5 2C.F ....
....|..|C-4 AF.7 ....|D#5 3F.7 ....|D#5 2F.7 ....
....|..|D#1 2F.7 ....|D#5 3F.A ....|D#5 2F.A ....
 D#4|..|C-4 AF.F ....|D#5 3F.F ....|D#5 2C.F ....
 D#3|..|D#1 2A.F ....|--- .... ....|--- .... ....
....|..|C-4 AF.7 ....|G-5 3F.7 ....|G-5 2F.7 ....
....|..|D#1 2F.7 ....|D-5 3F.A ....|D-5 2F.A ....
 A#3|..|C-4 LF.F ....|A#5 3F.F ....|A#5 2C.F ....
....|..|C-4 LF.7 ....|D#5 3F.7 ....|D#5 2F.7 ....
....|..|C-4 AF.A ....|D#5 3F.A ....|D#5 2F.A ....
 A-3|..|C-5 VF.F ....|A-5 3F.F ....|A-5 2C.F ....
....|..|R-- .... ....|--- .... ....|--- .... ....
....|..|C-4 LF.7 ....|D-5 3F.7 ....|D-5 2F.7 ....
....|..|C-4 LF.A ....|A#5 3F.A ....|A#5 2F.A ....
 A#3|..|C-4 AF.F ....|A#5 3F.F ....|A#5 2C.F ....
 D#3|..|D#1 2A.F ....|D#5 3F.7 ....|D#5 2F.7 ....
....|..|D#1 2F.7 ....|A-5 3F.A ....|A-5 2F.A ....
 G-4|..|C-4 LF.F ....|G-5 3F.F ....|G-5 2C.F ....
....|..|R-- .... ....|--- .... ....|--- .... ....
....|..|C-4 LF.7 ....|A#5 3F.7 ....|A#5 2F.7 ....
....|..|C-4 AF.A ....|A#5 3F.A ....|A#5 2F.A ....
 D#4|..|C-4 LF.F ....|D#5 3F.F ....|D#5 2C.F ....
....|..|C-5 VF.7 ....|A-5 3F.7 ....|A-5 2F.7 ....
....|..|C-4 LF.A ....|G-5 3F.A ....|G-5 2F.A ....
 C-3|..|C-4 AF.F ....|C-3 3F.F ....|C-3 2C.F ....
 C#3|..|C#1 2A.F ....|--- .... ....|--- .F.. ....
....|..|C-4 AF.7 ....|A#5 3F.7 ....|A#5 2F.7 ....
....|..|D#1 2F.7 ....|D#5 3F.A ....|D#5 2F.A ....
 C#4|..|C-4 AF.F ....|C#3 3F.F ....|C#3 2C.F ....
 C#3|..|C#1 2A.F ....|G-5 3F.7 ....|G-5 2F.7 ....
....|..|C-4 AF.A ....|C-3 3F.A ....|C-3 2F.A ....
 F-4|..|C-4 LF.F ....|F-3 3F.F ....|F-3 2C.F ....
....|..|R-- .... ....|--- .... ....|--- .... ....
....|..|C-4 LF.7 ....|D#5 3F.7 ....|D#5 2F.7 ....
....|..|C-4 AF.A ....|C#3 3F.A ....|C#3 2F.A ....
 G-4|..|C-4 LF.F ....|G-3 3F.F ....|G-3 2C.F ....
....|..|C-4 AF.7 ....|C-3 3F.7 ....|C-3 2F.7 ....
....|..|C#1 2F.7 ....|F-3 3F.A ....|F-3 2F.A ....
 G#4|..|C-5 VF.F ....|G#3 3F.F ....|G#3 2C.F ....
....|..|R-- .... ....|--- .... ....|--- .... ....
....|..|C-4 AF.7 ....|C#3 3F.7 ....|C#3 2F.7 ....
....|..|C#1 2F.7 ....|G-3 3F.A ....|G-3 2F.A ....
 C-3|..|C-4 LF.F ....|C-4 3F.F ....|C-4 2C.F ....
....|..|C-4 LF.7 ....|F-3 3F.7 ....|F-3 2F.7 ....
....|..|C-5 VF.A ....|G#3 3F.A ....|G#3 2F.A ....
 C#4|..|C-4 AF.F ....|C#4 3F.F ....|C#4 2C.F ....
 C#3|..|C#1 2A.F ....|--- .... ....|--- .... ....
....|..|C-4 LF.7 ....|G-3 3F.7 ....|G-3 2F.7 ....
....|..|C-4 LF.A ....|C-4 3F.A ....|C-4 2F.A ....
 F-4|..|C-4 AF.F ....|F-4 3F.F ....|F-4 2C.F ....
 C#3|..|C#1 2A.F ....|G#3 3F.7 ....|G#3 2F.7 ....
....|..|C-4 AF.A ....|C#4 3F.A ....|C#4 2F.A ....
 C#4|..|C-4 LF.F ....|C#4 3F.F ....|C#4 2C.F ....
....|..|R-- .... ....|--- .... ....|--- .... ....
....|..|C-4 LF.7 ....|C-4 3F.7 ....|C-4 2F.7 ....
....|..|C-4 AF.A ....|F-4 3F.A ....|F-4 2F.A ....
 C-3|..|C-4 LF.F ....|C-4 3F.F ....|C-4 2C.F ....
....|..|C-4 AF.7 ....|C#4 3F.7 ....|C#4 2F.7 ....
....|..|C#1 2F.7 ....|C#4 3F.A ....|C#4 2F.A ....
 C#4|..|C-4 AF.F ....|C#4 3F.F ....|C#4 2C.F ....
 C#3|..|C#1 2A.F ....|--- .... ....|--- .... ....
....|..|C-4 AF.7 ....|F-4 3F.7 ....|F-4 2F.7 ....
....|..|C#1 2F.7 ....|C-4 3F.A ....|C-4 2F.A ....
 G#4|..|C-4 LF.F ....|G#4 3F.F ....|G#4 2C.F ....
....|..|C-4 LF.7 ....|C#4 3F.7 ....|C#4 2F.7 ....
....|..|C-4 AF.A ....|C#4 3F.A ....|C#4 2F.A ....
 G-4|..|C-5 VF.F ....|G-4 3F.F ....|G-4 2C.F ....
....|..|R-- .... ....|--- .... ....|--- .... ....
....|..|C-4 LF.7 ....|C-4 3F.7 ....|C-4 2F.7 ....
....|..|C-4 LF.A ....|G#4 3F.A ....|G#4 2F.A ....
 G#4|..|C-4 AF.F ....|G#4 3F.F ....|G#4 2C.F ....
 C#3|..|C#1 2A.F ....|C#4 3F.7 ....|C#4 2F.7 ....
....|..|C#1 2F.7 ....|G-4 3F.A ....|G-4 2F.A ....
 F-4|..|C-4 LF.F ....|F-4 3F.F ....|F-4 2C.F ....
....|..|R-- .... ....|--- .... ....|--- .... ....

[Pattern24]
....|..|C-4 LF.7 ....|G#4 3F.7 ....|G#4 2F.7 ....
....|..|C-4 AF.A ....|G#4 3F.A ....|G#4 2F.A ....
 C#4|..|C-4 LF.F ....|C#4 3F.F ....|C#4 2C.F ....
....|..|C-5 VF.7 ....|G-4 3F.7 ....|G-4 2F.7 ....
....|..|C-4 LF.A ....|F-4 3F.A ....|F-4 2F.A ....
 C-3|..|C-4 AF.F ....|C-4 3F.F ....|C-4 2C.F ....
 C#3|..|C#1 2A.F ....|--- .... ....|--- .F.. ....
....|..|C-4 AF.7 ....|G#4 3F.7 ....|G#4 2F.7 ....
....|..|C#1 2F.7 ....|C#4 3F.A ....|C#4 2F.A ....
 C#4|..|C-4 AF.F ....|C#4 3F.F ....|C#4 2C.F ....
 C#3|..|C#1 2A.F ....|F-4 3F.7 ....|F-4 2F.7 ....
....|..|C-4 AF.A ....|C-4 3F.A ....|C-4 2F.A ....
 F-4|..|C-4 LF.F ....|F-4 3F.F ....|F-4 2C.F ....
....|..|R-- .... ....|--- .... ....|--- .... ....
....|..|C-4 LF.7 ....|C#4 3F.7 ....|C#4 2F.7 ....
....|..|C-4 AF.A ....|C#4 3F.A ....|C#4 2F.A ....
 G-4|..|C-4 LF.F ....|G-4 3F.F ....|G-4 2C.F ....
....|..|C-4 AF.7 ....|C-4 3F.7 ....|C-4 2F.7 ....
....|..|C#1 2F.7 ....|F-4 3F.A ....|F-4 2F.A ....
 G#4|..|C-5 VF.F ....|G#4 3F.F ....|G#4 2C.F ....
....|..|R-- .... ....|--- .... ....|--- .... ....
....|..|C-4 AF.7 ....|C#4 3F.7 ....|C#4 2F.7 ....
....|..|C#1 2F.7 ....|G-4 3F.A ....|G-4 2F.A ....
 C-3|..|C-4 LF.F ....|C-5 3F.F ....|C-5 2C.F ....
....|..|C-4 LF.7 ....|F-4 3F.7 ....|F-4 2F.7 ....
....|..|C-5 VF.A ....|G#4 3F.A ....|G#4 2F.A ....
 C#4|..|C-4 AF.F ....|C#5 3F.F ....|C#5 2C.F ....
 C#3|..|C#1 2A.F ....|--- .... ....|--- .... ....
....|..|C-4 LF.7 ....|G-4 3F.7 ....|G-4 2F.7 ....
....|..|C-4 LF.A ....|C-5 3F.A ....|C-5 2F.A ....
 F-4|..|C-4 AF.F ....|F-5 3F.F ....|F-5 2C.F ....
 C#3|..|C#1 2A.F ....|G#4 3F.7 ....|G#4 2F.7 ....
....|..|C-4 AF.A ....|C#5 3F.A ....|C#5 2F.A ....
 C#4|..|C-4 LF.F ....|C#5 3F.F ....|C#5 2C.F ....
....|..|R-- .... ....|--- .... ....|--- .... ....
....|..|C-4 LF.7 ....|C-5 3F.7 ....|C-5 2F.7 ....
....|..|C-4 AF.A ....|F-5 3F.A ....|F-5 2F.A ....
 C-3|..|C-4 LF.F ....|C-5 3F.F ....|C-5 2C.F ....
....|..|C-4 AF.7 ....|C#5 3F.7 ....|C#5 2F.7 ....
....|..|C#1 2F.7 ....|C#5 3F.A ....|C#5 2F.A ....
 C#4|..|C-4 AF.F ....|C#5 3F.F ....|C#5 2C.F ....
 C#3|..|C#1 2A.F ....|--- .... ....|--- .... ....
....|..|C-4 AF.7 ....|F-5 3F.7 ....|F-5 2F.7 ....
....|..|C#1 2F.7 ....|C-5 3F.A ....|C-5 2F.A ....
 G#4|..|C-4 LF.F ....|G#5 3F.F ....|G#5 2C.F ....
....|..|C-4 LF.7 ....|C#5 3F.7 ....|C#5 2F.7 ....
....|..|C-4 AF.A ....|C#5 3F.A ....|C#5 2F.A ....
 G-4|..|C-5 VF.F ....|G-5 3F.F ....|G-5 2C.F ....
....|..|R-- .... ....|--- .... ....|--- .... ....
....|..|C-4 LF.7 ....|C-5 3F.7 ....|C-5 2F.7 ....
....|..|C-4 LF.A ....|G#5 3F.A ....|G#5 2F.A ....
 G#4|..|C-4 AF.F ....|G#5 3F.F ....|G#5 2C.F ....
 C#3|..|C#1 2A.F ....|C#5 3F.7 ....|C#5 2F.7 ....
....|..|C#1 2F.7 ....|G-5 3F.A ....|G-5 2F.A ....
 F-4|..|C-4 LF.F ....|F-5 3F.F ....|F-5 2C.F ....
....|..|R-- .... ....|--- .... ....|--- .... ....
....|..|C-4 LF.7 ....|G#5 3F.7 ....|G#5 2F.7 ....
....|..|C-4 AF.A ....|G#5 3F.A ....|G#5 2F.A ....
 C#4|..|C-4 LF.F ....|C#5 3F.F ....|C#5 2C.F ....
....|..|C-5 VF.7 ....|G-5 3F.7 ....|G-5 2F.7 ....
....|..|C-4 LF.A ....|F-5 3F.A ....|F-5 2F.A ....
 C#4|..|C-4 AF.F ....|C#5 3F.F ....|C#5 2C.F ....
 F#3|..|F#1 2A.F ....|--- .... ....|--- .F.. ....
....|..|C-4 AF.7 ....|G#5 3F.7 ....|G#5 2F.7 ....
....|..|C#1 2F.7 ....|C#5 3F.A ....|C#5 2F.A ....
 B-4|..|C-4 AF.F ....|B-4 3F.F ....|B-4 2C.F ....
 F#3|..|F#1 2A.F ....|F-5 3F.7 ....|F-5 2F.7 ....
....|..|C-4 AF.A ....|C#5 3F.A ....|C#5 2F.A ....
 C#4|..|C-4 LF.F ....|C#5 3F.F ....|C#5 2C.F ....
....|..|R-- .... ....|--- .... ....|--- .... ....
....|..|C-4 LF.7 ....|C#5 3F.7 ....|C#5 2F.7 ....
....|..|C-4 AF.A ....|B-4 3F.A ....|B-4 2F.A ....
 D-4|..|C-4 LF.F ....|D-5 3F.F ....|D-5 2C.F ....
....|..|C-4 AF.7 ....|C#5 3F.7 ....|C#5 2F.7 ....
....|..|F#1 2F.7 ....|C#5 3F.A ....|C#5 2F.A ....
 C#4|..|C-5 VF.F ....|C#5 3F.F ....|C#5 2C.F ....
 F#3|..|F#1 2A.F ....|--- .... ....|--- .F.. ....
....|..|C-4 AF.7 ....|B-4 3F.7 ....|B-4 2F.7 ....
....|..|F#1 2F.7 ....|D-5 3F.A ....|D-5 2F.A ....
 F#3|..|C-4 LF.F ....|F#4 3F.F ....|F#4 2C.F ....
....|..|C-4 LF.7 ....|C#5 3F.7 ....|C#5 2F.7 ....
....|..|C-5 VF.A ....|C#5 3F.A ....|C#5 2F.A ....
 G-4|..|C-4 AF.F ....|G-4 3F.F ....|G-4 2C.F ....
 E-3|..|E-1 2A.F ....|--- .... ....|--- .F.. ....
....|..|C-4 LF.7 ....|D-5 3F.7 ....|D-5 2F.7 ....
....|..|C-4 LF.A ....|F#4 3F.A ....|F#4 2F.A ....
 E-4|..|C-4 AF.F ....|E-4 3F.F ....|E-4 2C.F ....
 E-3|..|E-1 2A.F ....|C#5 3F.7 ....|C#5 2F.7 ....
....|..|F#1 2F.7 ....|G-4 3F.A ....|G-4 2F.A ....
 C#4|..|C-4 LF.F ....|C#4 3F.F ....|C#4 2C.F ....
....|..|R-- .... ....|--- .... ....|--- .... ....
....|..|C-4 LF.7 ....|F#4 3F.7 ....|F#4 2F.7 ....
....|..|C-4 AF.A ....|E-4 3F.A ....|E-4 2F.A ....
 D-4|..|C-4 LF.F ....|D-4 3F.F ....|D-4 2C.F ....
....|..|C-4 AF.7 ....|G-4 3F.7 ....|G-4 2F.7 ....
....|..|E-1 2F.7 ....|C#4 3F.A ....|C#4 2F.A ....
 C#4|..|C-4 LF.F ....|C#4 3F.F ....|C#4 2C.F ....
....|..|R-- .... ....|--- .... ....|--- .... ....
....|..|C-4 AF.7 ....|E-4 3F.7 ....|E-4 2F.7 ....
....|..|E-1 2F.7 ....|D-4 3F.A ....|D-4 2F.A ....
 B-4|..|C-4 LF.F ....|B-3 3F.F ....|B-3 2C.F ....
....|..|C-4 LF.7 ....|C#4 3F.7 ....|C#4 2F.7 ....
....|..|C-4 LF.A ....|C#4 3F.A ....|C#4 2F.A ....
 C#4|..|C-5 VF.F ....|C#4 3F.F ....|C#4 2C.F ....
....|..|R-- .... ....|--- .... ....|--- .... ....
....|..|C-4 LF.7 ....|D-4 3F.7 ....|D-4 2F.7 ....
....|..|C-4 LF.A ....|B-3 3F.A ....|B-3 2F.A ....
 F#4|..|C-4 LF.F ....|F#3 3F.F ....|F#3 2C.F ....
....|..|C-4 LF.7 ....|C#4 3F.7 ....|C#4 2F.7 ....
....|..|C-5 VF.A ....|C#4 3F.A ....|C#4 2F.A ....
 G-4|..|C-4 LF.F ....|G-3 3F.F ....|G-3 2C.F ....
....|..|R-- .... ....|--- .... ....|--- .... ....
....|..|C-4 LF.7 ....|B-3 3F.7 ....|B-3 2F.7 ....
....|..|C-4 LF.A ....|F#3 3F.A ....|F#3 2F.A ....
 E-4|..|C-4 LF.F ....|E-3 3F.F ....|E-3 2C.F ....
....|..|C-5 VF.7 ....|C#4 3F.7 ....|C#4 2F.7 ....
....|..|C-4 LF.A ....|G-3 3F.A ....|G-3 2F.A ....
 F#4|..|C-4 AF.F ....|F#3 3F.F ....|F#3 2C.F ....
 F#3|..|F#1 2A.F ....|--- .... ....|--- .... ....
....|..|C-4 LF.7 ....|F#3 3F.7 ....|F#3 2F.7 ....
....|..|C-4 LF.A ....|E-3 3F.A ....|E-3 2F.A ....
 C#4|..|C-4 AF.F ....|C#3 3F.F ....|C#3 2C.F ....
 F#3|..|F#1 2A.F ....|G-3 3F.7 ....|G-3 2F.7 ....
....|..|C-4 AF.A ....|F#3 3F.A ....|F#3 2F.A ....
 D-4|..|C-4 LF.F ....|D-3 3F.F ....|D-3 2C.F ....
....|..|R-- .... ....|--- .... ....|--- .... ....
....|..|C-4 LF.7 ....|E-3 3F.7 ....|E-3 2F.7 ....
....|..|C-4 AF.A ....|C#3 3F.A ....|C#3 2F.A ....

[Pattern25]
 E-4|..|C-4 LF.F ....|E-3 3F.F ....|E-3 2C.F ....
....|..|C-4 AF.7 ....|F#3 3F.7 ....|F#3 2F.7 ....
....|..|F#1 2F.7 ....|D-3 3F.A ....|D-3 2F.A ....
 D-4|..|C-5 VF.F ....|D-3 3F.F ....|D-3 2C.F ....
 F#3|..|F#1 2A.F ....|--- .... ....|--- .F.. ....
....|..|C-4 AF.7 ....|C#3 3F.7 ....|C#3 2F.7 ....
....|..|F#1 2F.7 ....|E-3 3F.A ....|E-3 2F.A ....
 C#4|..|C-4 LF.F ....|C#3 3F.F ....|C#3 2C.F ....
....|..|C-4 LF.7 ....|D-3 3F.7 ....|D-3 2F.7 ....
....|..|C-5 VF.A ....|D-3 3F.A ....|D-3 2F.A ....
 B-4|..|C-4 AF.F ....|B-2 3F.F ....|B-2 2A.F ....
 E-3|..|E-1 2A.F ....|--- .... ....|--- .F.. ....
....|..|C-4 LF.7 ....|E-3 3F.7 ....|E-3 2F.7 ....
....|..|C-4 LF.A ....|C#3 3F.A ....|C#3 2F.A ....
 C#4|..|C-4 AF.F ....|C#3 3F.F ....|C#3 2C.F ....
 E-3|..|E-1 2A.F ....|D-3 3F.7 ....|D-3 2F.7 ....
....|..|F#1 2F.7 ....|B-2 3F.A ....|B-2 2F.A ....
 B-4|..|C-4 LF.F ....|B-2 3F.F ....|B-2 2A.F ....
....|..|R-- .... ....|--- .... ....|--- .... ....
....|..|C-4 LF.7 ....|C#3 3F.7 ....|C#3 2F.7 ....
....|..|C-4 AF.A ....|C#3 3F.A ....|C#3 2F.A ....
 G-4|..|C-4 LF.F ....|G-2 3F.F ....|G-2 2A.F ....
....|..|C-4 AF.7 ....|B-2 3F.7 ....|B-2 2F.7 ....
....|..|E-1 2F.7 ....|B-2 3F.A ....|B-2 2F.A ....
 F#4|..|C-4 LF.F ....|F#2 3F.F ....|F#2 2A.F ....
....|..|R-- .... ....|--- .... ....|--- .... ....
....|..|C-4 AF.7 ....|C#3 3F.7 ....|C#3 2F.7 ....
....|..|E-1 2F.7 ....|G-2 3F.A ....|G-2 2F.A ....
 G-4|..|C-4 LF.F ....|G-2 3F.F ....|G-2 2A.F ....
....|..|C-4 LF.7 ....|B-2 3F.7 ....|B-2 2F.7 ....
....|..|C-4 LF.A ....|F#2 3F.A ....|F#2 2F.A ....
 A-3|..|C-5 VF.F ....|A-2 3F.F ....|A-2 2C.F ....
 F-3|..|F-1 2A.F ....|--- .... ....|--- .F.. ....
....|..|C-4 LF.7 ....|G-2 3F.7 ....|G-2 2F.7 ....
....|..|C-4 LF.A ....|G-2 3F.A ....|G-2 2F.A ....
 G-4|..|C-4 AF.F ....|G-2 3F.F ....|G-2 2A.F ....
 G-3|..|G-1 2A.F ....|F#2 3F.7 ....|F#2 2F.7 ....
....|..|C-5 VF.A ....|A-2 3F.A ....|A-2 2F.A ....
 A-3|..|F-1 2F.A ....|A-2 3F.F ....|A-2 2C.F ....
....|..|R-- .... ....|--- .... ....|--- .... ....
....|..|C-4 LF.7 ....|G-2 3F.7 ....|G-2 2F.7 ....
....|..|C-4 AF.A ....|G-2 3F.A ....|G-2 2F.A ....
 G-4|..|G-1 2F.A ....|G-2 3F.F ....|G-2 2A.F ....
....|..|C-5 VF.7 ....|A-2 3F.7 ....|A-2 2F.7 ....
....|..|F-1 2F.7 ....|A-2 3F.A ....|A-2 2F.A ....
 F#4|..|C-4 AF.F ....|F#2 3F.F ....|F#2 2A.F ....
 F#3|..|F#1 2A.F ....|--- .... ....|--- .... ....
....|..|C-4 AF.7 ....|G-2 3F.7 ....|G-2 2F.7 ....
....|..|G-1 2F.7 ....|G-2 3F.A ....|G-2 2F.A ....
....|..|C-4 AF.F ....|--- .... ....|--- .... ....
 F#3|..|F#1 2A.F ....|A-2 3F.7 ....|A-2 2F.7 ....
....|..|C-4 AF.A ....|F#2 3F.A ....|F#2 2F.A ....
....|..|C-4 LF.F ....|--- .... ....|--- .... ....
....|..|R-- .... ....|--- .... ....|--- .... ....
....|..|R-- .... ....|G-2 3F.7 ....|G-2 2F.7 ....
....|..|C-4 AF.A ....|--- .... ....|--- .... ....
....|..|C-4 LF.F ....|--- .... ....|--- .... ....
....|..|C-4 AF.7 ....|F#2 3F.7 ....|F#2 2F.7 ....
....|..|F#1 2F.7 ....|--- .... ....|--- .... ....
....|..|C-5 VF.F ....|--- .... ....|--- .... ....
 F#3|..|F#1 2A.F ....|--- .... ....|--- .... ....
....|..|C-4 AF.7 ....|--- .... ....|--- .... ....
....|..|F#1 2F.7 ....|--- .... ....|--- .... ....
....|..|C-4 LF.F ....|--- .... ....|--- .... ....
....|..|C-4 LF.7 ....|--- .... ....|--- .... ....
....|..|C-5 VF.A ....|--- .... ....|--- .... ....
....|..|C-4 AF.F ....|--- .... ....|--- .... ....
 E-3|..|E-1 2A.F ....|--- .... ....|--- .... ....
....|..|C-4 LF.7 ....|--- .... ....|--- .... ....
....|..|C-4 LF.A ....|--- .... ....|--- .... ....
....|..|C-4 AF.F ....|--- .... ....|--- .... ....
 E-3|..|E-1 2A.F ....|--- .... ....|--- .... ....
....|..|F#1 2F.7 ....|--- .... ....|--- .... ....
....|..|C-4 LF.F ....|--- .... ....|--- .... ....
....|..|R-- .... ....|--- .... ....|--- .... ....
....|..|C-4 LF.7 ....|--- .... ....|--- .... ....
....|..|C-4 AF.A ....|--- .... ....|--- .... ....
....|..|C-4 LF.F ....|--- .... ....|--- .... ....
....|..|C-4 AF.7 ....|--- .... ....|--- .... ....
....|..|E-1 2F.7 ....|--- .... ....|--- .... ....
....|..|C-4 LF.F ....|--- .... ....|--- .... ....
....|..|R-- .... ....|--- .... ....|--- .... ....
....|..|C-4 AF.7 ....|--- .... ....|--- .... ....
....|..|E-1 2F.7 ....|--- .... ....|--- .... ....
....|..|C-4 LF.F ....|--- .... ....|--- .... ....
....|..|C-4 LF.7 ....|--- .... ....|--- .... ....
....|..|C-4 LF.A ....|--- .... ....|--- .... ....
....|..|C-5 VF.F ....|--- .... ....|--- .... ....
....|..|R-- .... ....|--- .... ....|--- .... ....
....|..|C-4 LF.7 ....|--- .... ....|--- .... ....
....|..|C-4 LF.A ....|--- .... ....|--- .... ....
....|..|C-4 LF.F ....|--- .... ....|--- .... ....
....|..|C-4 LF.7 ....|--- .... ....|--- .... ....
....|..|C-5 VF.A ....|--- .... ....|--- .... ....
....|..|C-4 LF.F ....|R-- .... ....|R-- .... ....
....|..|R-- .... ....|--- .... ....|--- .... ....
....|..|C-4 LF.7 ....|--- .... ....|--- .... ....
....|..|C-4 LF.A ....|--- .... ....|--- .... ....
 F#4|..|C-4 LF.F ....|F#3 3F.F ....|F#3 2C.F ....
 F#3|..|C-5 VF.7 ....|F#4 3F.F ....|F#4 2C.F ....
....|..|C-4 LF.A ....|R-- .... ....|R-- .... ....
 F#3|..|C-4 AF.F ....|F#5 3F.F ....|F#5 2C.F ....
 F#3|..|F#1 2A.F ....|--- .... ....|--- .... ....
....|..|C-4 LF.7 ....|R-- .... ....|R-- .... ....
....|..|C-4 LF.A ....|F#3 3F.A ....|F#3 2F.A ....
....|..|C-4 AF.F ....|F#4 3F.A ....|F#4 2F.A ....
 F#3|..|F#1 2A.F ....|R-- .... ....|R-- .... ....
....|..|C-4 AF.A ....|F#5 3F.A ....|F#5 2F.A ....
....|..|C-4 LF.F ....|--- .... ....|--- .... ....
....|..|R-- .... ....|R-- .... ....|R-- .... ....
....|..|C-4 LF.7 ....|F#3 3F.7 ....|F#3 2F.7 ....
....|..|C-4 AF.A ....|F#4 3F.7 ....|F#4 2F.7 ....
....|..|C-4 LF.F ....|--- .... ....|--- .... ....
....|..|C-4 AF.7 ....|F#5 3F.7 ....|F#5 2F.7 ....
....|..|F#1 2F.7 ....|--- .... ....|--- .... ....
....|..|C-5 VF.F ....|R-- .... ....|R-- .... ....
 F#3|..|F#1 2A.F ....|--- .... ....|--- .... ....
....|..|C-4 AF.7 ....|--- .... ....|--- .... ....
....|..|F#1 2F.7 ....|--- .... ....|--- .... ....
....|..|C-4 LF.F ....|--- .... ....|--- .... ....
....|..|C-4 LF.7 ....|--- .... ....|--- .... ....
....|..|C-5 VF.A ....|--- .... ....|--- .... ....
....|..|C-4 AF.F ....|--- .... ....|--- .... ....
 E-3|..|E-1 2A.F ....|--- .... ....|--- .... ....
....|..|C-4 LF.7 ....|--- .... ....|--- .... ....
....|..|C-4 LF.A ....|--- .... ....|--- .... ....
....|..|C-4 AF.F ....|--- .... ....|--- .... ....
 E-3|..|E-1 2A.F ....|--- .... ....|--- .... ....

[Pattern26]
....|..|F#1 2F.7 ....|--- .... ....|--- .... ....
....|..|C-4 LF.F ....|--- .... ....|--- .... ....
....|..|R-- .... ....|--- .... ....|--- .... ....
....|..|C-4 LF.7 ....|--- .... ....|--- .... ....
....|..|C-4 AF.A ....|--- .... ....|--- .... ....
....|..|C-4 LF.F ....|--- .... ....|--- .... ....
....|..|C-4 AF.7 ....|--- .... ....|--- .... ....
....|..|E-1 2F.7 ....|--- .... ....|--- .... ....
....|..|C-4 LF.F ....|--- .... ....|--- .... ....
....|..|R-- .... ....|--- .... ....|--- .... ....
....|..|C-4 AF.7 ....|--- .... ....|--- .... ....
....|..|E-1 2F.7 ....|--- .... ....|--- .... ....
....|..|C-4 LF.F ....|--- .... ....|--- .... ....
....|..|C-4 LF.7 ....|--- .... ....|--- .... ....
....|..|C-4 LF.A ....|--- .... ....|--- .... ....
....|..|C-5 VF.F ....|--- .... ....|--- .... ....
 F-3|..|F-1 2A.F ....|--- .... ....|--- .... ....
....|..|C-4 LF.7 ....|--- .... ....|--- .... ....
....|..|C-4 LF.A ....|--- .... ....|--- .... ....
....|..|C-4 AF.F ....|--- .... ....|--- .... ....
 G-3|..|G-1 2A.F ....|--- .... ....|--- .... ....
....|..|C-5 VF.A ....|--- .... ....|--- .... ....
....|..|F-1 2F.A ....|--- .... ....|--- .... ....
....|..|R-- .... ....|--- .... ....|--- .... ....
....|..|C-4 LF.7 ....|--- .... ....|--- .... ....
....|..|C-4 AF.A ....|--- .... ....|--- .... ....
....|..|G-1 2F.A ....|--- .... ....|--- .... ....
....|..|C-5 VF.7 ....|--- .... ....|--- .... ....
....|..|F-1 2F.7 ....|--- .... ....|--- .... ....
....|..|C-4 AF.F ....|--- .... ....|--- .... ....
 F#3|..|F#1 2A.F ....|--- .... ....|--- .... ....
....|..|C-4 AF.7 ....|--- .... ....|--- .... ....
....|..|G-1 2F.7 ....|--- .... ....|--- .... ....
....|..|C-4 AF.F ....|--- .... ....|--- .... ....
 F#3|..|F#1 2A.F ....|--- .... ....|--- .... ....
....|..|C-4 AF.A ....|--- .... ....|--- .... ....
....|..|C-4 LF.F ....|--- .... ....|--- .... ....
....|..|R-- .... ....|--- .... ....|--- .... ....
....|..|R-- .... ....|--- .... ....|--- .... ....
....|..|C-4 AF.A ....|--- .... ....|--- .... ....
....|..|C-4 LF.F ....|--- .... ....|--- .... ....
....|..|C-4 AF.7 ....|--- .... ....|--- .... ....
....|..|F#1 2F.7 ....|--- .... ....|--- .... ....
....|..|C-5 VF.F ....|--- .... ....|--- .... ....
 F#3|..|F#1 2A.F ....|--- .... ....|--- .... ....
....|..|C-4 AF.7 ....|--- .... ....|--- .... ....
....|..|F#1 2F.7 ....|--- .... ....|--- .... ....
....|..|C-4 LF.F ....|--- .... ....|--- .... ....
....|..|C-4 LF.7 ....|--- .... ....|--- .... ....
....|..|C-5 VF.A ....|--- .... ....|--- .... ....
....|..|C-4 AF.F ....|--- .... ....|--- .... ....
 E-3|..|E-1 2A.F ....|--- .... ....|--- .... ....
....|..|C-4 LF.7 ....|--- .... ....|--- .... ....
....|..|C-4 LF.A ....|--- .... ....|--- .... ....
....|..|C-4 AF.F ....|--- .... ....|--- .... ....
 E-3|..|E-1 2A.F ....|--- .... ....|--- .... ....
....|..|F#1 2F.7 ....|--- .... ....|--- .... ....
....|..|C-4 LF.F ....|--- .... ....|--- .... ....
....|..|R-- .... ....|--- .... ....|--- .... ....
....|..|C-4 LF.7 ....|--- .... ....|--- .... ....
....|..|C-4 AF.A ....|--- .... ....|--- .... ....
....|..|C-4 LF.F ....|--- .... ....|--- .... ....
....|..|C-4 AF.7 ....|--- .... ....|--- .... ....
....|..|E-1 2F.7 ....|--- .... ....|--- .... ....
....|..|C-4 LF.F ....|--- .... ....|--- .... ....
....|..|R-- .... ....|--- .... ....|--- .... ....
....|..|C-4 AF.7 ....|--- .... ....|--- .... ....
....|..|E-1 2F.7 ....|--- .... ....|--- .... ....
....|..|C-4 LF.F ....|--- .... ....|--- .... ....
....|..|C-4 LF.7 ....|--- .... ....|--- .... ....
....|..|C-4 LF.A ....|--- .... ....|--- .... ....
....|..|C-5 VF.F ....|--- .... ....|--- .... ....
....|..|R-- .... ....|--- .... ....|--- .... ....
....|..|C-4 LF.7 ....|--- .... ....|--- .... ....
....|..|C-4 LF.A ....|--- .... ....|--- .... ....
....|..|C-4 LF.F ....|--- .... ....|--- .... ....
....|..|C-4 LF.7 ....|--- .... ....|--- .... ....
....|..|C-5 VF.A ....|--- .... ....|--- .... ....
....|..|C-4 LF.F ....|--- .... ....|--- .... ....
....|..|R-- .... ....|--- .... ....|--- .... ....
....|..|C-4 LF.7 ....|--- .... ....|--- .... ....
....|..|C-4 LF.A ....|--- .... ....|--- .... ....
....|..|C-4 LF.F ....|--- .... ....|--- .... ....
....|..|C-5 VF.7 ....|--- .... ....|--- .... ....
....|..|C-4 LF.A ....|--- .... ....|--- .... ....
....|..|C-4 AF.F ....|--- .... ....|--- .... ....
 F#3|..|F#1 2A.F ....|--- .... ....|--- .... ....
....|..|C-4 LF.7 ....|--- .... ....|--- .... ....
....|..|C-4 LF.A ....|--- .... ....|--- .... ....
....|..|C-4 AF.F ....|--- .... ....|--- .... ....
 F#3|..|F#1 2A.F ....|--- .... ....|--- .... ....
....|..|C-4 AF.A ....|--- .... ....|--- .... ....
....|..|C-4 LF.F ....|--- .... ....|--- .... ....
....|..|R-- .... ....|--- .... ....|--- .... ....
....|..|C-4 LF.7 ....|--- .... ....|--- .... ....
....|..|C-4 AF.A ....|--- .... ....|--- .... ....
....|..|C-4 LF.F ....|--- .... ....|--- .... ....
....|..|C-4 AF.7 ....|--- .... ....|--- .... ....
....|..|F#1 2F.7 ....|--- .... ....|--- .... ....
....|..|C-5 VF.F ....|--- .... ....|--- .... ....
 F#3|..|F#1 2A.F ....|--- .... ....|--- .... ....
....|..|C-4 AF.7 ....|--- .... ....|--- .... ....
....|..|F#1 2F.7 ....|--- .... ....|--- .... ....
....|..|C-4 LF.F ....|--- .... ....|--- .... ....
....|..|C-4 LF.7 ....|--- .... ....|--- .... ....
....|..|C-5 VF.A ....|--- .... ....|--- .... ....
....|..|C-4 AF.F ....|--- .... ....|--- .... ....
 E-3|..|E-1 2A.F ....|--- .... ....|--- .... ....
....|..|C-4 LF.7 ....|--- .... ....|--- .... ....
....|..|C-4 LF.A ....|--- .... ....|--- .... ....
....|..|C-4 AF.F ....|--- .... ....|--- .... ....
 E-3|..|E-1 2A.F ....|--- .... ....|--- .... ....
....|..|F#1 2F.7 ....|--- .... ....|--- .... ....
....|..|C-4 LF.F ....|--- .... ....|--- .... ....
....|..|R-- .... ....|--- .... ....|--- .... ....
....|..|C-4 LF.7 ....|--- .... ....|--- .... ....
....|..|C-4 AF.A ....|--- .... ....|--- .... ....
....|..|C-4 LF.F ....|--- .... ....|--- .... ....
....|..|C-4 AF.7 ....|--- .... ....|--- .... ....
....|..|E-1 2F.7 ....|--- .... ....|--- .... ....
....|..|C-4 LF.F ....|--- .... ....|--- .... ....
....|..|R-- .... ....|--- .... ....|--- .... ....
....|..|C-4 AF.7 ....|--- .... ....|--- .... ....
....|..|E-1 2F.7 ....|--- .... ....|--- .... ....
....|..|C-4 LF.F ....|--- .... ....|--- .... ....
....|..|C-4 LF.7 ....|--- .... ....|--- .... ....
....|..|C-4 LF.A ....|--- .... ....|--- .... ....
....|..|C-5 VF.F ....|--- .... ....|--- .... ....

[Pattern27]
 F-3|..|F-1 2A.F ....|--- .... ....|--- .... ....
....|..|C-4 LF.7 ....|--- .... ....|--- .... ....
....|..|C-4 LF.A ....|--- .... ....|--- .... ....
....|..|C-4 AF.F ....|--- .... ....|--- .... ....
 G-3|..|G-1 2A.F ....|--- .... ....|--- .... ....
....|..|C-5 VF.A ....|--- .... ....|--- .... ....
....|..|F-1 2F.A ....|--- .... ....|--- .... ....
....|..|R-- .... ....|--- .... ....|--- .... ....
....|..|C-4 LF.7 ....|--- .... ....|--- .... ....
....|..|C-4 AF.A ....|--- .... ....|--- .... ....
....|..|G-1 2F.A ....|--- .... ....|--- .... ....
....|..|C-5 VF.7 ....|--- .... ....|--- .... ....
....|..|F-1 2F.7 ....|--- .... ....|--- .... ....
....|..|C-4 AF.F ....|--- .... ....|--- .... ....
 F#3|..|F#1 2A.F ....|--- .... ....|--- .... ....
....|..|C-4 AF.7 ....|--- .... ....|--- .... ....
....|..|G-1 2F.7 ....|--- .... ....|--- .... ....
....|..|C-4 AF.F ....|--- .... ....|--- .... ....
 F#3|..|F#1 2A.F ....|--- .... ....|--- .... ....
....|..|C-4 AF.A ....|--- .... ....|--- .... ....
....|..|C-4 LF.F ....|--- .... ....|--- .... ....
....|..|R-- .... ....|--- .... ....|--- .... ....
....|..|R-- .... ....|--- .... ....|--- .... ....
....|..|C-4 AF.A ....|--- .... ....|--- .... ....
....|..|C-4 LF.F ....|--- .... ....|--- .... ....
....|..|C-4 AF.7 ....|--- .... ....|--- .... ....
....|..|F#1 2F.7 ....|--- .... ....|--- .... ....
....|..|C-5 VF.F ....|--- .... ....|--- .... ....
 F#3|..|F#1 2A.F ....|--- .... ....|--- .... ....
....|..|C-4 AF.7 ....|--- .... ....|--- .... ....
....|..|F#1 2F.7 ....|--- .... ....|--- .... ....
....|..|C-4 LF.F ....|--- .... ....|--- .... ....
....|..|C-4 LF.7 ....|--- .... ....|--- .... ....
....|..|C-5 VF.A ....|--- .... ....|--- .... ....
....|..|C-4 AF.F ....|--- .... ....|--- .... ....
 E-3|..|E-1 2A.F ....|--- .... ....|--- .... ....
....|..|C-4 LF.7 ....|--- .... ....|--- .... ....
....|..|C-4 LF.A ....|--- .... ....|--- .... ....
....|..|C-4 AF.F ....|--- .... ....|--- .... ....
 E-3|..|E-1 2A.F ....|--- .... ....|--- .... ....
....|..|F#1 2F.7 ....|--- .... ....|--- .... ....
....|..|C-4 LF.F ....|--- .... ....|--- .... ....
....|..|R-- .... ....|--- .... ....|--- .... ....
....|..|C-4 LF.7 ....|--- .... ....|--- .... ....
....|..|C-4 AF.A ....|--- .... ....|--- .... ....
....|..|C-4 LF.F ....|--- .... ....|--- .... ....
....|..|C-4 AF.7 ....|--- .... ....|--- .... ....
....|..|E-1 2F.7 ....|--- .... ....|--- .... ....
....|..|C-4 LF.F ....|--- .... ....|--- .... ....
....|..|R-- .... ....|--- .... ....|--- .... ....
....|..|C-4 AF.7 ....|--- .... ....|--- .... ....
....|..|E-1 2F.7 ....|--- .... ....|--- .... ....
....|..|C-4 LF.F ....|--- .... ....|--- .... ....
....|..|C-4 LF.7 ....|--- .... ....|--- .... ....
....|..|C-4 LF.A ....|--- .... ....|--- .... ....
....|..|C-5 VF.F ....|--- .... ....|--- .... ....
....|..|R-- .... ....|--- .... ....|--- .... ....
....|..|C-4 LF.7 ....|--- .... ....|--- .... ....
....|..|C-4 LF.A ....|--- .... ....|--- .... ....
....|..|C-4 LF.F ....|--- .... ....|--- .... ....
....|..|C-4 LF.7 ....|--- .... ....|--- .... ....
....|..|C-5 VF.A ....|--- .... ....|--- .... ....
....|..|C-4 LF.F ....|--- .... ....|--- .... ....
....|..|R-- .... ....|--- .... ....|--- .... ....
....|..|C-4 LF.7 ....|--- .... ....|--- .... ....
....|..|C-4 LF.A ....|--- .... ....|--- .... ....
....|..|C-4 LF.F ....|--- .... ....|--- .... ....
....|..|C-5 VF.7 ....|--- .... ....|--- .... ....
....|..|C-4 LF.A ....|--- .... ....|--- .... ....
....|..|C-4 AF.F ....|--- .... ....|--- .... ....
 F#3|..|F#1 2A.F ....|--- .... ....|--- .... ....
....|..|C-4 LF.7 ....|--- .... ....|--- .... ....
....|..|C-4 LF.A ....|--- .... ....|--- .... ....
....|..|C-4 AF.F ....|--- .... ....|--- .... ....
 F#3|..|F#1 2A.F ....|--- .... ....|--- .... ....
....|..|C-4 AF.A ....|--- .... ....|--- .... ....
....|..|C-4 LF.F ....|--- .... ....|--- .... ....
....|..|R-- .... ....|--- .... ....|--- .... ....
....|..|C-4 LF.7 ....|--- .... ....|--- .... ....
....|..|C-4 LF.F ....|--- .... ....|--- .... ....
....|..|F#1 2F.A ....|--- .... ....|--- .... ....
....|..|C-4 AF.7 ....|--- .... ....|--- .... ....
....|..|F#1 2F.7 ....|--- .... ....|--- .... ....
....|..|C-5 VF.F ....|--- .... ....|--- .... ....
 F#3|..|F#1 2A.F ....|--- .... ....|--- .... ....
....|..|C-4 AF.7 ....|--- .... ....|--- .... ....
....|..|C-4 LF.F ....|--- .... ....|--- .... ....
....|..|R-- .... ....|--- .... ....|--- .... ....
....|..|C-4 LF.7 ....|--- .... ....|--- .... ....
....|..|C-5 VF.A ....|--- .... ....|--- .... ....
....|..|C-4 AF.F ....|--- .... ....|--- .... ....
 E-3|..|E-1 2A.F ....|--- .... ....|--- .... ....
....|..|C-4 LF.A ....|--- .... ....|--- .... ....
....|..|C-4 AF.F ....|--- .... ....|--- .... ....
 E-3|..|E-1 2A.F ....|--- .... ....|--- .... ....
....|..|C-5 VF.7 ....|--- .... ....|--- .... ....
....|..|F#1 2F.7 ....|--- .... ....|--- .... ....
 C#4|..|C-4 LF.F ....|C#3 3F.F ....|C#3 2C.F ....
....|..|C-4 LF.7 ....|--- .... ....|--- .... ....
....|..|C-4 AF.A ....|--- .... ....|--- .... ....
 D-4|..|C-5 VF.F ....|D-3 3F.F ....|D-3 2C.F ....
....|..|R-- .... ....|--- .... ....|--- .... ....
....|..|C-4 AF.7 ....|--- .... ....|--- .... ....
....|..|E-1 2F.7 ....|C#3 3F.A ....|C#3 2F.A ....
 C#4|..|C-5 VF.F ....|C#4 3F.F ....|C#4 2C.F ....
....|..|C-4 AF.7 ....|--- .... ....|--- .... ....
....|..|E-1 2F.7 ....|D-3 3F.A ....|D-3 2F.A ....
 D-4|..|C-4 AF.F ....|D-4 3F.F ....|D-4 2C.F ....
....|..|R-- .... ....|--- .... ....|--- .... ....
....|..|C-4 LF.7 ....|C#3 3F.7 ....|C#3 2F.7 ....
....|..|C-5 VF.A ....|C#4 3F.A ....|C#4 2F.A ....
 C#4|..|C-5 VF.F ....|C#5 3F.F ....|C#5 2C.F ....
 F-3|..|F-1 2A.F ....|D-3 3F.7 ....|D-3 2F.7 ....
....|..|C-4 AF.A ....|D-4 3F.A ....|D-4 2F.A ....
 D-4|..|C-4 AF.F ....|D-5 3F.F ....|D-5 2C.F ....
 G-3|..|G-1 2A.F ....|--- .... ....|--- .F.. ....
....|..|C-5 VF.7 ....|C#4 3F.7 ....|C#4 2F.7 ....
....|..|C-5 VF.A ....|C#5 3F.A ....|C#5 2F.A ....
 C#4|..|C-5 VF.F ....|C#6 3F.F ....|C#6 2C.F ....
....|..|C-4 AF.7 ....|D-4 3F.7 ....|D-4 2F.7 ....
....|..|C-4 AF.A ....|D-5 3F.A ....|D-5 2F.A ....
 D-4|..|C-4 AF.F ....|D-6 3F.F ....|D-6 2C.F ....
....|..|R-- .... ....|--- .... ....|--- .... ....
....|..|C-5 VF.7 ....|C#5 3F.7 ....|C#5 2F.7 ....
....|..|F-1 2F.7 ....|C#6 3F.A ....|C#6 2F.A ....
 F#3|..|C-4 AF.F ....|F#4 3F.F ....|F#4 2C.F ....
 F#3|..|F#1 2A.F ....|D-5 3F.7 ....|D-5 2F.7 ....
....|..|G-1 2F.7 ....|D-6 3F.A ....|D-6 2F.A ....

[Pattern28]
....|..|C-4 AF.F ....|--- .... ....|--- .... ....
 F#3|..|F#1 2A.F ....|--- .... ....|--- .... ....
....|..|C-5 VF.7 ....|C#6 3F.7 ....|C#6 2F.7 ....
....|..|C-4 AF.A ....|F#4 3F.A ....|F#4 2F.A ....
....|..|C-4 LF.F ....|--- .... ....|--- .... ....
....|..|C-4 AF.7 ....|D-6 3F.7 ....|D-6 2F.7 ....
....|..|C-4 AF.A ....|--- .... ....|--- .... ....
....|..|C-4 LF.F ....|--- .... ....|--- .... ....
....|..|R-- .... ....|--- .... ....|--- .... ....
....|..|C-4 AF.7 ....|F#4 3F.7 ....|F#4 2F.7 ....
....|..|F#1 2F.7 ....|--- .... ....|--- .... ....
....|..|C-5 VF.F ....|--- .... ....|--- .... ....
 F#3|..|F#1 2A.F ....|--- .... ....|--- .... ....
....|..|F#1 2F.7 ....|--- .... ....|--- .... ....
....|..|C-4 LF.F ....|--- .... ....|--- .... ....
....|..|R-- .... ....|--- .... ....|--- .... ....
....|..|C-4 LF.7 ....|--- .... ....|--- .... ....
....|..|C-5 VF.A ....|--- .... ....|--- .... ....
 C#4|..|C-4 AF.F ....|C#4 3F.F ....|C#4 2C.F ....
 E-3|..|E-1 2A.F ....|--- .... ....|--- .F.. ....
....|..|C-4 LF.A ....|--- .... ....|--- .... ....
....|..|C-4 AF.F ....|--- .... ....|--- .... ....
 E-3|..|E-1 2A.F ....|--- .... ....|--- .... ....
....|..|C-5 VF.7 ....|--- .... ....|--- .... ....
....|..|F#1 2F.7 ....|C#4 3F.A ....|C#4 2F.A ....
....|..|C-4 LF.F ....|--- .... ....|--- .... ....
....|..|C-4 LF.7 ....|--- .... ....|--- .... ....
....|..|C-4 AF.A ....|--- .... ....|--- .... ....
....|..|C-4 LF.F ....|--- .... ....|--- .... ....
....|..|R-- .... ....|--- .... ....|--- .... ....
....|..|C-4 AF.7 ....|C#4 3F.7 ....|C#4 2F.7 ....
....|..|E-1 2F.7 ....|--- .... ....|--- .... ....
....|..|C-4 LF.F ....|--- .... ....|--- .... ....
....|..|C-4 AF.7 ....|--- .... ....|--- .... ....
....|..|E-1 2F.7 ....|--- .... ....|--- .... ....
....|..|C-4 LF.F ....|--- .... ....|--- .... ....
....|..|R-- .... ....|--- .... ....|--- .... ....
....|..|C-4 LF.7 ....|--- .... ....|--- .... ....
....|..|C-4 LF.A ....|--- .... ....|--- .... ....
 D-4|..|C-5 VF.F ....|D-4 3F.F ....|D-4 2C.F ....
....|..|C-4 LF.7 ....|--- .... ....|--- .... ....
....|..|C-4 LF.A ....|--- .... ....|--- .... ....
....|..|C-4 LF.F ....|--- .... ....|--- .... ....
....|..|R-- .... ....|--- .... ....|--- .... ....
....|..|C-4 LF.7 ....|--- .... ....|--- .... ....
....|..|C-5 VF.A ....|D-4 3F.A ....|D-4 2F.A ....
....|..|C-4 LF.F ....|--- .... ....|--- .... ....
....|..|C-4 LF.7 ....|--- .... ....|--- .... ....
....|..|C-4 LF.A ....|--- .... ....|--- .... ....
....|..|C-4 LF.F ....|--- .... ....|--- .... ....
....|..|R-- .... ....|--- .... ....|--- .... ....
....|..|C-5 VF.7 ....|D-4 3F.7 ....|D-4 2F.7 ....
....|..|C-4 LF.A ....|--- .... ....|--- .... ....
....|..|C-4 AF.F ....|--- .... ....|--- .... ....
 F#3|..|F#1 2A.F ....|--- .... ....|--- .... ....
....|..|C-4 LF.A ....|--- .... ....|--- .... ....
....|..|C-4 AF.F ....|--- .... ....|--- .... ....
 F#3|..|F#1 2A.F ....|--- .... ....|--- .... ....
....|..|C-4 LF.7 ....|--- .... ....|--- .... ....
....|..|C-4 AF.A ....|--- .... ....|--- .... ....
 B-4|..|C-4 LF.F ....|B-3 3F.F ....|B-3 2C.F ....
....|..|C-4 LF.7 ....|--- .... ....|--- .... ....
....|..|C-4 AF.A ....|--- .... ....|--- .... ....
....|..|C-4 LF.F ....|--- .... ....|--- .... ....
....|..|R-- .... ....|--- .... ....|--- .... ....
....|..|C-4 AF.7 ....|--- .... ....|--- .... ....
....|..|F#1 2F.7 ....|B-3 3F.A ....|B-3 2F.A ....
....|..|C-5 VF.F ....|--- .... ....|--- .... ....
 F#3|..|F#1 2A.F ....|--- .... ....|--- .... ....
....|..|F#1 2F.7 ....|--- .... ....|--- .... ....
....|..|C-4 LF.F ....|--- .... ....|--- .... ....
....|..|R-- .... ....|--- .... ....|--- .... ....
....|..|C-4 LF.7 ....|B-3 3F.7 ....|B-3 2F.7 ....
....|..|C-5 VF.A ....|--- .... ....|--- .... ....
....|..|C-4 AF.F ....|--- .... ....|--- .... ....
 E-3|..|E-1 2A.F ....|--- .... ....|--- .... ....
....|..|C-4 LF.A ....|--- .... ....|--- .... ....
....|..|C-4 AF.F ....|--- .... ....|--- .... ....
 E-3|..|E-1 2A.F ....|--- .... ....|--- .... ....
....|..|C-5 VF.7 ....|--- .... ....|--- .... ....
....|..|F#1 2F.7 ....|--- .... ....|--- .... ....
 C#4|..|C-4 LF.F ....|C#4 3F.F ....|C#4 2C.F ....
....|..|C-4 LF.7 ....|--- .... ....|--- .... ....
....|..|C-4 AF.A ....|--- .... ....|--- .... ....
....|..|C-4 LF.F ....|--- .... ....|--- .... ....
....|..|R-- .... ....|--- .... ....|--- .... ....
....|..|C-4 AF.7 ....|--- .... ....|--- .... ....
....|..|E-1 2F.7 ....|C#4 3F.A ....|C#4 2F.A ....
....|..|C-4 LF.F ....|--- .... ....|--- .... ....
....|..|C-4 AF.7 ....|--- .... ....|--- .... ....
....|..|E-1 2F.7 ....|--- .... ....|--- .... ....
....|..|C-4 LF.F ....|--- .... ....|--- .... ....
....|..|R-- .... ....|--- .... ....|--- .... ....
....|..|C-4 LF.7 ....|C#4 3F.7 ....|C#4 2F.7 ....
....|..|C-4 LF.A ....|--- .... ....|--- .... ....
 F#3|..|C-5 VF.F ....|F#4 3F.F ....|F#4 2C.F ....
 F-3|..|F-1 2A.F ....|--- .... ....|--- .F.. ....
....|..|C-4 LF.A ....|--- .... ....|--- .... ....
....|..|C-4 AF.F ....|--- .... ....|--- .... ....
 G-3|..|G-1 2A.F ....|--- .... ....|--- .F.. ....
....|..|C-4 LF.7 ....|--- .... ....|--- .... ....
....|..|C-5 VF.A ....|F#4 3F.A ....|F#4 2F.A ....
....|..|F-1 2F.A ....|--- .... ....|--- .... ....
....|..|C-4 LF.7 ....|--- .... ....|--- .... ....
....|..|C-4 AF.A ....|--- .... ....|--- .... ....
....|..|G-1 2F.A ....|--- .... ....|--- .... ....
....|..|--- .... ....|--- .... ....|--- .... ....
....|..|C-5 VF.7 ....|F#4 3F.7 ....|F#4 2F.7 ....
....|..|F-1 2F.7 ....|--- .... ....|--- .... ....
 G-4|..|C-4 AF.F ....|G-4 3F.F ....|G-4 2C.F ....
 F#3|..|F#1 2A.F ....|--- .... ....|--- .F.. ....
....|..|G-1 2F.7 ....|--- .... ....|--- .... ....
....|..|C-4 AF.F ....|--- .... ....|--- .... ....
 F#3|..|F#1 2A.F ....|--- .... ....|--- .... ....
....|..|R-- .... ....|--- .... ....|--- .... ....
....|..|C-4 AF.A ....|G-4 3F.A ....|G-4 2F.A ....
....|..|C-4 LF.F ....|--- .... ....|--- .... ....
....|..|R-- .... ....|--- .... ....|--- .... ....
....|..|C-4 AF.A ....|--- .... ....|--- .... ....
....|..|C-4 LF.F ....|--- .... ....|--- .... ....
....|..|R-- .... ....|--- .... ....|--- .... ....
....|..|C-4 AF.7 ....|G-4 3F.7 ....|G-4 2F.7 ....
....|..|F#1 2F.7 ....|--- .... ....|--- .... ....
....|..|C-5 VF.F ....|--- .... ....|--- .... ....
 F#3|..|F#1 2A.F ....|--- .... ....|--- .... ....
....|..|F#1 2F.7 ....|--- .... ....|--- .... ....
....|..|C-4 LF.F ....|--- .... ....|--- .... ....
....|..|R-- .... ....|--- .... ....|--- .... ....

[Pattern29]
....|..|C-4 LF.7 ....|--- .... ....|--- .... ....
....|..|C-5 VF.A ....|--- .... ....|--- .... ....
 E-4|..|C-4 AF.F ....|E-4 3F.F ....|E-4 2C.F ....
 E-3|..|E-1 2A.F ....|--- .... ....|--- .... ....
....|..|C-4 LF.A ....|--- .... ....|--- .... ....
....|..|C-4 AF.F ....|--- .... ....|--- .... ....
 E-3|..|E-1 2A.F ....|--- .... ....|--- .... ....
....|..|C-5 VF.7 ....|--- .... ....|--- .... ....
....|..|F#1 2F.7 ....|E-4 3F.A ....|E-4 2F.A ....
....|..|C-4 LF.F ....|--- .... ....|--- .... ....
....|..|C-4 LF.7 ....|--- .... ....|--- .... ....
....|..|C-4 AF.A ....|--- .... ....|--- .... ....
....|..|C-4 LF.F ....|--- .... ....|--- .... ....
....|..|R-- .... ....|--- .... ....|--- .... ....
....|..|C-4 AF.7 ....|E-4 3F.7 ....|E-4 2F.7 ....
....|..|E-1 2F.7 ....|--- .... ....|--- .... ....
....|..|C-4 LF.F ....|--- .... ....|--- .... ....
....|..|C-4 AF.7 ....|--- .... ....|--- .... ....
....|..|E-1 2F.7 ....|--- .... ....|--- .... ....
....|..|C-4 LF.F ....|--- .... ....|--- .... ....
....|..|R-- .... ....|--- .... ....|--- .... ....
....|..|C-4 LF.7 ....|--- .... ....|--- .... ....
....|..|C-4 LF.A ....|--- .... ....|--- .... ....
 F#3|..|C-5 VF.F ....|F#4 3F.F ....|F#4 2C.F ....
....|..|C-4 LF.7 ....|--- .... ....|--- .... ....
....|..|C-4 LF.A ....|--- .... ....|--- .... ....
....|..|C-4 LF.F ....|--- .... ....|--- .... ....
....|..|R-- .... ....|--- .... ....|--- .... ....
....|..|C-4 LF.7 ....|--- .... ....|--- .... ....
....|..|C-5 VF.A ....|F#4 3F.A ....|F#4 2F.A ....
....|..|C-4 LF.F ....|--- .... ....|--- .... ....
....|..|C-4 LF.7 ....|--- .... ....|--- .... ....
....|..|C-4 LF.A ....|--- .... ....|--- .... ....
....|..|C-4 LF.F ....|--- .... ....|--- .... ....
....|..|R-- .... ....|--- .... ....|--- .... ....
....|..|C-5 VF.7 ....|F#4 3F.7 ....|F#4 2F.7 ....
....|..|C-4 LF.A ....|--- .... ....|--- .... ....
....|..|C-4 AF.F ....|--- .... ....|--- .... ....
 F#3|..|F#1 2A.F ....|--- .... ....|--- .... ....
....|..|C-4 LF.A ....|--- .... ....|--- .... ....
....|..|C-4 AF.F ....|--- .... ....|--- .... ....
 F#3|..|F#1 2A.F ....|--- .... ....|--- .... ....
....|..|C-4 LF.7 ....|--- .... ....|--- .... ....
....|..|C-4 AF.A ....|--- .... ....|--- .... ....
 C#4|..|C-4 LF.F ....|C#5 3F.F ....|C#5 2C.F ....
....|..|C-4 LF.7 ....|--- .... ....|--- .... ....
....|..|C-4 AF.A ....|--- .... ....|--- .... ....
....|..|C-4 LF.F ....|--- .... ....|--- .... ....
....|..|R-- .... ....|--- .... ....|--- .... ....
....|..|C-4 AF.7 ....|--- .... ....|--- .... ....
....|..|F#1 2F.7 ....|C#5 3F.A ....|C#5 2F.A ....
....|..|C-5 VF.F ....|--- .... ....|--- .... ....
 F#3|..|F#1 2A.F ....|--- .... ....|--- .... ....
....|..|F#1 2F.7 ....|--- .... ....|--- .... ....
....|..|C-4 LF.F ....|--- .... ....|--- .... ....
....|..|R-- .... ....|--- .... ....|--- .... ....
....|..|C-4 LF.7 ....|C#5 3F.7 ....|C#5 2F.7 ....
....|..|C-5 VF.A ....|--- .... ....|--- .... ....
....|..|C-4 AF.F ....|--- .... ....|--- .... ....
 E-3|..|E-1 2A.F ....|--- .... ....|--- .... ....
....|..|C-4 LF.A ....|--- .... ....|--- .... ....
....|..|C-4 AF.F ....|--- .... ....|--- .... ....
 E-3|..|E-1 2A.F ....|--- .... ....|--- .... ....
....|..|C-5 VF.7 ....|--- .... ....|--- .... ....
....|..|F#1 2F.7 ....|--- .... ....|--- .... ....
 D-4|..|C-4 LF.F ....|D-5 3F.F ....|D-5 2C.F ....
....|..|C-4 LF.7 ....|--- .... ....|--- .... ....
....|..|C-4 AF.A ....|--- .... ....|--- .... ....
....|..|C-4 LF.F ....|--- .... ....|--- .... ....
....|..|R-- .... ....|--- .... ....|--- .... ....
....|..|C-4 AF.7 ....|--- .... ....|--- .... ....
....|..|E-1 2F.7 ....|D-5 3F.A ....|D-5 2F.A ....
....|..|C-4 LF.F ....|--- .... ....|--- .... ....
....|..|C-4 AF.7 ....|--- .... ....|--- .... ....
....|..|E-1 2F.7 ....|--- .... ....|--- .... ....
....|..|C-4 LF.F ....|--- .... ....|--- .... ....
....|..|R-- .... ....|--- .... ....|--- .... ....
....|..|C-4 LF.7 ....|D-5 3F.7 ....|D-5 2F.7 ....
....|..|C-4 LF.A ....|--- .... ....|--- .... ....
 B-4|..|C-5 VF.F ....|B-4 3F.F ....|B-4 2C.F ....
 F-3|..|F-1 2A.F ....|--- .... ....|--- .F.. ....
....|..|C-4 LF.A ....|--- .... ....|--- .... ....
....|..|C-4 AF.F ....|--- .... ....|--- .... ....
 G-3|..|G-1 2A.F ....|--- .... ....|--- .F.. ....
....|..|C-4 LF.7 ....|--- .... ....|--- .... ....
....|..|C-5 VF.A ....|B-4 3F.A ....|B-4 2F.A ....
....|..|F-1 2F.A ....|--- .... ....|--- .... ....
....|..|C-4 LF.7 ....|--- .... ....|--- .... ....
....|..|C-4 AF.A ....|--- .... ....|--- .... ....
....|..|G-1 2F.A ....|--- .... ....|--- .... ....
....|..|--- .... ....|--- .... ....|--- .... ....
....|..|C-5 VF.7 ....|B-4 3F.7 ....|B-4 2F.7 ....
....|..|F-1 2F.7 ....|--- .... ....|--- .... ....
 C#4|..|C-4 AF.F ....|C#5 3F.F ....|C#5 2C.F ....
 F#3|..|F#1 2A.F ....|--- .... ....|--- .F.. ....
....|..|G-1 2F.7 ....|--- .... ....|--- .... ....
....|..|C-4 AF.F ....|--- .... ....|--- .... ....
 F#3|..|F#1 2A.F ....|--- .... ....|--- .... ....
....|..|R-- .... ....|--- .... ....|--- .... ....
....|..|C-4 AF.A ....|C#5 3F.A ....|C#5 2F.A ....
....|..|C-4 LF.F ....|--- .... ....|--- .... ....
....|..|R-- .... ....|--- .... ....|--- .... ....
....|..|C-4 AF.A ....|--- .... ....|--- .... ....
....|..|C-4 LF.F ....|--- .... ....|--- .... ....
....|..|R-- .... ....|--- .... ....|--- .... ....
....|..|C-4 AF.7 ....|C#5 3F.7 ....|C#5 2F.7 ....
....|..|F#1 2F.7 ....|--- .... ....|--- .... ....
....|..|C-5 VF.F ....|--- .... ....|--- .... ....
 F#3|..|F#1 2A.F ....|--- .... ....|--- .... ....
....|..|F#1 2F.7 ....|--- .... ....|--- .... ....
....|..|C-4 LF.F ....|--- .... ....|--- .... ....
....|..|R-- .... ....|--- .... ....|--- .... ....
....|..|C-4 LF.7 ....|--- .... ....|--- .... ....
....|..|C-5 VF.A ....|--- .... ....|--- .... ....
 F#3|..|C-4 AF.F ....|F#4 3F.F ....|F#4 2C.F ....
 E-3|..|E-1 2A.F ....|--- .... ....|--- .F.. ....
....|..|C-4 LF.A ....|--- .... ....|--- .... ....
....|..|C-4 AF.F ....|--- .... ....|--- .... ....
 E-3|..|E-1 2A.F ....|--- .... ....|--- .... ....
....|..|C-5 VF.7 ....|--- .... ....|--- .... ....
....|..|F#1 2F.7 ....|F#4 3F.A ....|F#4 2F.A ....
....|..|C-4 LF.F ....|--- .... ....|--- .... ....
....|..|C-4 LF.7 ....|--- .... ....|--- .... ....
....|..|C-4 AF.A ....|--- .... ....|--- .... ....
....|..|C-4 LF.F ....|--- .... ....|--- .... ....
....|..|R-- .... ....|--- .... ....|--- .... ....
....|..|C-4 AF.7 ....|F#4 3F.7 ....|F#4 2F.7 ....
....|..|E-1 2F.7 ....|--- .... ....|--- .... ....

[Pattern30]
....|..|C-4 LF.F ....|--- .... ....|--- .... ....
....|..|C-4 AF.7 ....|--- .... ....|--- .... ....
....|..|E-1 2F.7 ....|--- .... ....|--- .... ....
....|..|C-4 LF.F ....|--- .... ....|--- .... ....
....|..|R-- .... ....|--- .... ....|--- .... ....
....|..|C-4 LF.7 ....|--- .... ....|--- .... ....
....|..|C-4 LF.A ....|--- .... ....|--- .... ....
 B-4|..|C-5 VF.F ....|B-4 3F.F ....|B-4 2C.F ....
....|..|C-4 LF.7 ....|--- .... ....|--- .... ....
....|..|C-4 LF.A ....|--- .... ....|--- .... ....
....|..|C-4 LF.F ....|--- .... ....|--- .... ....
....|..|R-- .... ....|--- .... ....|--- .... ....
....|..|C-4 LF.7 ....|--- .... ....|--- .... ....
....|..|C-5 VF.A ....|B-4 3F.A ....|B-4 2F.A ....
....|..|C-4 LF.F ....|--- .... ....|--- .... ....
....|..|C-4 LF.7 ....|--- .... ....|--- .... ....
....|..|C-4 LF.A ....|--- .... ....|--- .... ....
....|..|C-4 LF.F ....|--- .... ....|--- .... ....
....|..|R-- .... ....|--- .... ....|--- .... ....
....|..|C-5 VF.7 ....|B-4 3F.7 ....|B-4 2F.7 ....
....|..|C-4 LF.A ....|--- .... ....|--- .... ....
....|..|C-4 AF.F ....|--- .... ....|--- .... ....
 F#3|..|F#1 2A.F ....|--- .... ....|--- .... ....
....|..|C-4 LF.A ....|--- .... ....|--- .... ....
....|..|C-4 AF.F ....|--- .... ....|--- .... ....
 F#3|..|F#1 2A.F ....|--- .... ....|--- .... ....
....|..|C-4 LF.7 ....|--- .... ....|--- .... ....
....|..|C-4 AF.A ....|--- .... ....|--- .... ....
 E-4|..|C-4 LF.F ....|E-4 3F.F ....|E-4 2C.F ....
....|..|C-4 LF.7 ....|--- .... ....|--- .... ....
....|..|C-4 AF.A ....|--- .... ....|--- .... ....
....|..|C-4 LF.F ....|--- .... ....|--- .... ....
....|..|R-- .... ....|--- .... ....|--- .... ....
....|..|C-4 AF.7 ....|--- .... ....|--- .... ....
....|..|F#1 2F.7 ....|E-4 3F.A ....|E-4 2F.A ....
....|..|C-5 VF.F ....|--- .... ....|--- .... ....
 F#3|..|F#1 2A.F ....|--- .... ....|--- .... ....
....|..|F#1 2F.7 ....|--- .... ....|--- .... ....
....|..|C-4 LF.F ....|--- .... ....|--- .... ....
....|..|R-- .... ....|--- .... ....|--- .... ....
....|..|C-4 LF.7 ....|E-4 3F.7 ....|E-4 2F.7 ....
....|..|C-5 VF.A ....|--- .... ....|--- .... ....
....|..|C-4 AF.F ....|--- .... ....|--- .... ....
 E-3|..|E-1 2A.F ....|--- .... ....|--- .... ....
....|..|C-4 LF.A ....|--- .... ....|--- .... ....
....|..|C-4 AF.F ....|--- .... ....|--- .... ....
 E-3|..|E-1 2A.F ....|--- .... ....|--- .... ....
....|..|C-5 VF.7 ....|--- .... ....|--- .... ....
....|..|F#1 2F.7 ....|--- .... ....|--- .... ....
 A-3|..|C-4 LF.F ....|A-4 3F.F ....|A-4 2C.F ....
....|..|C-4 LF.7 ....|--- .... ....|--- .... ....
....|..|C-4 AF.A ....|--- .... ....|--- .... ....
....|..|C-4 LF.F ....|--- .... ....|--- .... ....
....|..|R-- .... ....|--- .... ....|--- .... ....
....|..|C-4 AF.7 ....|--- .... ....|--- .... ....
....|..|E-1 2F.7 ....|A-4 3F.A ....|A-4 2F.A ....
....|..|C-4 LF.F ....|--- .... ....|--- .... ....
....|..|C-4 AF.7 ....|--- .... ....|--- .... ....
....|..|E-1 2F.7 ....|--- .... ....|--- .... ....
....|..|C-4 LF.F ....|--- .... ....|--- .... ....
....|..|R-- .... ....|--- .... ....|--- .... ....
....|..|C-4 LF.7 ....|A-4 3F.7 ....|A-4 2F.7 ....
....|..|C-4 LF.A ....|--- .... ....|--- .... ....
 D-4|..|C-5 VF.F ....|D-4 3F.F ....|D-4 2C.F ....
 F-3|..|F-1 2A.F ....|--- .... ....|--- .F.. ....
....|..|C-4 LF.A ....|--- .... ....|--- .... ....
....|..|C-4 AF.F ....|--- .... ....|--- .... ....
 G-3|..|G-1 2A.F ....|--- .... ....|--- .F.. ....
....|..|C-4 LF.7 ....|--- .... ....|--- .... ....
....|..|C-5 VF.A ....|D-4 3F.A ....|D-4 2F.A ....
....|..|F-1 2F.A ....|--- .... ....|--- .... ....
....|..|C-4 LF.7 ....|--- .... ....|--- .... ....
....|..|C-4 AF.A ....|--- .... ....|--- .... ....
 E-4|..|G-1 2F.A ....|E-4 3F.F ....|E-4 2C.F ....
....|..|--- .... ....|--- .... ....|--- .... ....
 D-4|..|C-5 VF.7 ....|D-4 3F.F ....|D-4 2C.F ....
....|..|F-1 2F.7 ....|--- .... ....|--- .... ....
 C#4|..|C-4 AF.F ....|C#4 3F.F ....|C#4 2C.F ....
 F#3|..|F#1 2A.F ....|--- .... ....|--- .F.. ....
....|..|G-1 2F.7 ....|E-4 3F.A ....|E-4 2F.A ....
....|..|C-4 AF.F ....|--- .... ....|--- .... ....
 F#3|..|F#1 2A.F ....|D-4 3F.A ....|D-4 2F.A ....
....|..|R-- .... ....|--- .... ....|--- .... ....
....|..|C-4 AF.A ....|C#4 3F.A ....|C#4 2F.A ....
....|..|C-4 LF.F ....|--- .... ....|--- .... ....
....|..|R-- .... ....|E-4 3F.7 ....|E-4 2F.7 ....
....|..|C-4 AF.A ....|--- .... ....|--- .... ....
....|..|C-4 LF.F ....|D-4 3F.7 ....|D-4 2F.7 ....
....|..|R-- .... ....|--- .... ....|--- .... ....
....|..|C-4 AF.7 ....|C#4 3F.7 ....|C#4 2F.7 ....
....|..|F#1 2F.7 ....|--- .... ....|--- .... ....
....|..|C-5 VF.F ....|--- .... ....|--- .... ....
 F#3|..|F#1 2A.F ....|--- .... ....|--- .... ....
....|..|F#1 2F.7 ....|--- .... ....|--- .... ....
....|..|C-4 LF.F ....|--- .... ....|--- .... ....
....|..|R-- .... ....|--- .... ....|--- .... ....
....|..|C-4 LF.7 ....|--- .... ....|--- .... ....
....|..|C-5 VF.A ....|--- .... ....|--- .... ....
....|..|C-4 AF.F ....|--- .... ....|--- .... ....
 E-3|..|E-1 2A.F ....|--- .... ....|--- .... ....
....|..|C-4 LF.A ....|--- .... ....|--- .... ....
....|..|C-4 AF.F ....|--- .... ....|--- .... ....
 E-3|..|E-1 2A.F ....|--- .... ....|--- .... ....
....|..|C-5 VF.7 ....|--- .... ....|--- .... ....
....|..|F#1 2F.7 ....|--- .... ....|--- .... ....
....|..|C-4 LF.F ....|--- .... ....|--- .... ....
....|..|C-4 LF.7 ....|--- .... ....|--- .... ....
....|..|C-4 AF.A ....|--- .... ....|--- .... ....
....|..|C-4 LF.F ....|--- .... ....|--- .... ....
....|..|R-- .... ....|--- .... ....|--- .... ....
....|..|C-4 AF.7 ....|--- .... ....|--- .... ....
....|..|E-1 2F.7 ....|--- .... ....|--- .... ....
....|..|C-4 LF.F ....|--- .... ....|--- .... ....
....|..|C-4 AF.7 ....|--- .... ....|--- .... ....
....|..|E-1 2F.7 ....|--- .... ....|--- .... ....
....|..|C-4 LF.F ....|--- .... ....|--- .... ....
....|..|R-- .... ....|--- .... ....|--- .... ....
....|..|C-4 LF.7 ....|--- .... ....|--- .... ....
....|..|C-4 LF.A ....|--- .... ....|--- .... ....
....|..|C-5 VF.F ....|--- .... ....|--- .... ....
....|..|C-4 LF.7 ....|--- .... ....|--- .... ....
....|..|C-4 LF.A ....|--- .... ....|--- .... ....
....|..|C-4 LF.F ....|--- .... ....|--- .... ....
....|..|R-- .... ....|--- .... ....|--- .... ....
....|..|C-4 LF.7 ....|--- .... ....|--- .... ....
....|..|C-5 VF.A ....|--- .... ....|--- .... ....
....|..|C-4 LF.F ....|--- .... ....|--- .... ....
....|..|C-4 LF.7 ....|--- .... ....|--- .... ....

[Pattern31]
....|..|C-4 LF.A ....|--- .... ....|--- .... ....
....|..|C-4 LF.F ....|--- .... ....|--- .... ....
....|..|R-- .... ....|--- .... ....|--- .... ....
....|..|C-5 VF.7 ....|--- .... ....|--- .... ....
....|..|C-4 LF.A ....|--- .... ....|--- .... ....
 C#4|..|C-4 AF.F ....|C#3 3F.F ....|C#3 2C.F ....
 F#3|..|F#1 2A.F ....|--- .... ....|--- .F.. ....
....|..|C-4 LF.A ....|--- .... ....|--- .... ....
 D-4|..|C-4 AF.F ....|D-3 3F.F ....|D-3 2C.F ....
 F#3|..|F#1 2A.F ....|--- .... ....|--- .F.. ....
....|..|C-4 LF.7 ....|--- .... ....|--- .... ....
....|..|C-4 AF.A ....|C#3 3F.A ....|C#3 2F.A ....
 C#4|..|C-4 LF.F ....|C#3 3F.F ....|C#3 2C.F ....
....|..|C-4 LF.7 ....|--- .... ....|--- .... ....
....|..|C-4 AF.A ....|D-3 3F.A ....|D-3 2F.A ....
 D-4|..|C-4 LF.F ....|D-3 3F.F ....|D-3 2C.F ....
....|..|R-- .... ....|--- .... ....|--- .... ....
....|..|C-4 AF.7 ....|C#3 3F.7 ....|C#3 2F.7 ....
....|..|F#1 2F.7 ....|C#3 3F.A ....|C#3 2F.A ....
 C#4|..|C-5 VF.F ....|C#3 3F.F ....|C#3 2C.F ....
 F#3|..|F#1 2A.F ....|D-3 3F.7 ....|D-3 2F.7 ....
....|..|F#1 2F.7 ....|D-3 3F.A ....|D-3 2F.A ....
 D-4|..|C-4 LF.F ....|D-3 3F.F ....|D-3 2C.F ....
....|..|R-- .... ....|--- .... ....|--- .... ....
....|..|C-4 LF.7 ....|C#3 3F.7 ....|C#3 2F.7 ....
....|..|C-5 VF.A ....|C#3 3F.A ....|C#3 2F.A ....
 C#4|..|C-4 AF.F ....|C#3 3F.F ....|C#3 2C.F ....
 E-3|..|E-1 2A.F ....|D-3 3F.7 ....|D-3 2F.7 ....
....|..|C-4 LF.A ....|D-3 3F.A ....|D-3 2F.A ....
 D-4|..|C-4 AF.F ....|D-3 3F.F ....|D-3 2C.F ....
 E-3|..|E-1 2A.F ....|--- .... ....|--- .F.. ....
....|..|C-5 VF.7 ....|C#3 3F.7 ....|C#3 2F.7 ....
....|..|F#1 2F.7 ....|C#3 3F.A ....|C#3 2F.A ....
 C#4|..|C-4 LF.F ....|C#3 3F.F ....|C#3 2C.F ....
....|..|C-4 LF.7 ....|D-3 3F.7 ....|D-3 2F.7 ....
....|..|C-4 AF.A ....|D-3 3F.A ....|D-3 2F.A ....
 D-4|..|C-4 LF.F ....|D-3 3F.F ....|D-3 2C.F ....
....|..|R-- .... ....|--- .... ....|--- .... ....
....|..|C-4 AF.7 ....|C#3 3F.7 ....|C#3 2F.7 ....
....|..|E-1 2F.7 ....|C#3 3F.A ....|C#3 2F.A ....
 C#4|..|C-4 LF.F ....|C#4 3F.F ....|C#4 2C.F ....
....|..|C-4 AF.7 ....|D-3 3F.7 ....|D-3 2F.7 ....
....|..|E-1 2F.7 ....|D-3 3F.A ....|D-3 2F.A ....
 D-4|..|C-4 LF.F ....|D-4 3F.F ....|D-4 2C.F ....
....|..|R-- .... ....|--- .... ....|--- .... ....
....|..|C-4 LF.7 ....|C#3 3F.7 ....|C#3 2F.7 ....
....|..|C-4 LF.A ....|C#4 3F.A ....|C#4 2F.A ....
 C#4|..|C-5 VF.F ....|C#5 3F.F ....|C#5 2C.F ....
 F-3|..|F-1 2A.F ....|D-3 3F.7 ....|D-3 2F.7 ....
....|..|C-4 LF.A ....|D-4 3F.A ....|D-4 2F.A ....
 D-4|..|C-4 AF.F ....|D-5 3F.F ....|D-5 2C.F ....
 G-3|..|G-1 2A.F ....|--- .... ....|--- .F.. ....
....|..|C-4 LF.7 ....|C#4 3F.7 ....|C#4 2F.7 ....
....|..|C-5 VF.A ....|C#5 3F.A ....|C#5 2F.A ....
 C#4|..|F-1 2F.A ....|C#6 3F.F ....|C#6 2C.F ....
....|..|C-4 LF.7 ....|D-4 3F.7 ....|D-4 2F.7 ....
....|..|C-4 AF.A ....|D-5 3F.A ....|D-5 2F.A ....
 D-4|..|G-1 2F.A ....|D-6 3F.F ....|D-6 2C.F ....
....|..|--- .... ....|--- .... ....|--- .... ....
....|..|C-5 VF.7 ....|C#5 3F.7 ....|C#5 2F.7 ....
....|..|F-1 2F.7 ....|C#6 3F.A ....|C#6 2F.A ....
 F#3|..|C-4 AF.F ....|F#4 3F.F ....|F#4 2C.F ....
 F#3|..|F#1 2A.F ....|D-5 3F.7 ....|D-5 2F.7 ....
....|..|G-1 2F.7 ....|D-6 3F.A ....|D-6 2F.A ....
....|..|C-4 AF.F ....|--- .... ....|--- .... ....
 F#3|..|F#1 2A.F ....|--- .... ....|--- .... ....
....|..|R-- .... ....|C#6 3F.7 ....|C#6 2F.7 ....
....|..|C-4 AF.A ....|F#4 3F.A ....|F#4 2F.A ....
....|..|C-4 LF.F ....|--- .... ....|--- .... ....
....|..|R-- .... ....|D-6 3F.7 ....|D-6 2F.7 ....
....|..|C-4 AF.A ....|--- .... ....|--- .... ....
....|..|C-4 LF.F ....|--- .... ....|--- .... ....
....|..|R-- .... ....|--- .... ....|--- .... ....
....|..|C-4 AF.7 ....|F#4 3F.7 ....|F#4 2F.7 ....
....|..|F#1 2F.7 ....|--- .... ....|--- .... ....
....|..|C-5 VF.F ....|--- .... ....|--- .... ....
 F#3|..|F#1 2A.F ....|--- .... ....|--- .... ....
....|..|F#1 2F.7 ....|--- .... ....|--- .... ....
....|..|C-4 LF.F ....|--- .... ....|--- .... ....
....|..|R-- .... ....|--- .... ....|--- .... ....
....|..|C-4 LF.7 ....|--- .... ....|--- .... ....
....|..|C-5 VF.A ....|--- .... ....|--- .... ....
 C#4|..|C-4 AF.F ....|C#4 3F.F ....|C#4 2C.F ....
 E-3|..|E-1 2A.F ....|--- .... ....|--- .F.. ....
....|..|C-4 LF.A ....|--- .... ....|--- .... ....
....|..|C-4 AF.F ....|--- .... ....|--- .... ....
 E-3|..|E-1 2A.F ....|--- .... ....|--- .... ....
....|..|C-5 VF.7 ....|--- .... ....|--- .... ....
....|..|F#1 2F.7 ....|C#4 3F.A ....|C#4 2F.A ....
....|..|C-4 LF.F ....|--- .... ....|--- .... ....
....|..|C-4 LF.7 ....|--- .... ....|--- .... ....
....|..|C-4 AF.A ....|--- .... ....|--- .... ....
....|..|C-4 LF.F ....|--- .... ....|--- .... ....
....|..|R-- .... ....|--- .... ....|--- .... ....
....|..|C-4 AF.7 ....|C#4 3F.7 ....|C#4 2F.7 ....
....|..|E-1 2F.7 ....|--- .... ....|--- .... ....
....|..|C-4 LF.F ....|--- .... ....|--- .... ....
....|..|C-4 AF.7 ....|--- .... ....|--- .... ....
....|..|E-1 2F.7 ....|--- .... ....|--- .... ....
....|..|C-4 LF.F ....|--- .... ....|--- .... ....
....|..|R-- .... ....|--- .... ....|--- .... ....
....|..|C-4 LF.7 ....|--- .... ....|--- .... ....
....|..|C-4 LF.A ....|--- .... ....|--- .... ....
 D-4|..|C-5 VF.F ....|D-4 3F.F ....|D-4 2C.F ....
....|..|C-4 LF.7 ....|--- .... ....|--- .... ....
....|..|C-4 LF.A ....|--- .... ....|--- .... ....
....|..|C-4 LF.F ....|--- .... ....|--- .... ....
....|..|R-- .... ....|--- .... ....|--- .... ....
....|..|C-4 LF.7 ....|--- .... ....|--- .... ....
....|..|C-5 VF.A ....|D-4 3F.A ....|D-4 2F.A ....
....|..|C-4 LF.F ....|--- .... ....|--- .... ....
....|..|C-4 LF.7 ....|--- .... ....|--- .... ....
....|..|C-4 LF.A ....|--- .... ....|--- .... ....
....|..|C-4 LF.F ....|--- .... ....|--- .... ....
....|..|R-- .... ....|--- .... ....|--- .... ....
....|..|C-5 VF.7 ....|D-4 3F.7 ....|D-4 2F.7 ....
....|..|C-4 LF.A ....|--- .... ....|--- .... ....
....|..|C-4 AF.F ....|--- .... ....|--- .... ....
 F#3|..|F#1 2A.F ....|--- .... ....|--- .... ....
....|..|C-4 LF.A ....|--- .... ....|--- .... ....
....|..|C-4 AF.F ....|--- .... ....|--- .... ....
 F#3|..|F#1 2A.F ....|--- .... ....|--- .... ....
....|..|C-4 LF.7 ....|--- .... ....|--- .... ....
....|..|C-4 AF.A ....|--- .... ....|--- .... ....
 B-4|..|C-4 LF.F ....|B-3 3F.F ....|B-3 2C.F ....
....|..|C-4 LF.7 ....|--- .... ....|--- .... ....
....|..|C-4 AF.A ....|--- .... ....|--- .... ....
....|..|C-4 LF.F ....|--- .... ....|--- .... ....

[Pattern32]
....|..|R-- .... ....|--- .... ....|--- .... ....
....|..|C-4 AF.7 ....|--- .... ....|--- .... ....
....|..|F#1 2F.7 ....|B-3 3F.A ....|B-3 2F.A ....
....|..|C-5 VF.F ....|--- .... ....|--- .... ....
 F#3|..|F#1 2A.F ....|--- .... ....|--- .... ....
....|..|F#1 2F.7 ....|--- .... ....|--- .... ....
....|..|C-4 LF.F ....|--- .... ....|--- .... ....
....|..|R-- .... ....|--- .... ....|--- .... ....
....|..|C-4 LF.7 ....|B-3 3F.7 ....|B-3 2F.7 ....
....|..|C-5 VF.A ....|--- .... ....|--- .... ....
....|..|C-4 AF.F ....|--- .... ....|--- .... ....
 E-3|..|E-1 2A.F ....|--- .... ....|--- .... ....
....|..|C-4 LF.A ....|--- .... ....|--- .... ....
....|..|C-4 AF.F ....|--- .... ....|--- .... ....
 E-3|..|E-1 2A.F ....|--- .... ....|--- .... ....
....|..|C-5 VF.7 ....|--- .... ....|--- .... ....
....|..|F#1 2F.7 ....|--- .... ....|--- .... ....
 C#4|..|C-4 LF.F ....|C#4 3F.F ....|C#4 2C.F ....
....|..|C-4 LF.7 ....|--- .... ....|--- .... ....
....|..|C-4 AF.A ....|--- .... ....|--- .... ....
....|..|C-4 LF.F ....|--- .... ....|--- .... ....
....|..|R-- .... ....|--- .... ....|--- .... ....
....|..|C-4 AF.7 ....|--- .... ....|--- .... ....
....|..|C-4 LF.F ....|C#4 3F.A ....|C#4 2F.A ....
....|..|R-- .... ....|--- .... ....|--- .... ....
....|..|C-4 AF.7 ....|--- .... ....|--- .... ....
....|..|E-1 2F.7 ....|--- .... ....|--- .... ....
....|..|C-4 LF.F ....|--- .... ....|--- .... ....
....|..|R-- .... ....|--- .... ....|--- .... ....
....|..|C-4 LF.7 ....|C#4 3F.7 ....|C#4 2F.7 ....
 F#3|..|C-5 VF.F ....|F#4 3F.F ....|F#4 2C.F ....
 F-3|..|F-1 2A.F ....|--- .... ....|--- .F.. ....
....|..|C-4 LF.7 ....|--- .... ....|--- .... ....
....|..|C-4 LF.A ....|--- .... ....|--- .... ....
....|..|C-4 AF.F ....|--- .... ....|--- .... ....
 G-3|..|G-1 2A.F ....|--- .... ....|--- .F.. ....
....|..|C-5 VF.A ....|F#4 3F.A ....|F#4 2F.A ....
....|..|F-1 2F.A ....|--- .... ....|--- .... ....
....|..|R-- .... ....|--- .... ....|--- .... ....
....|..|C-4 LF.7 ....|--- .... ....|--- .... ....
....|..|C-4 AF.A ....|--- .... ....|--- .... ....
....|..|G-1 2F.A ....|--- .... ....|--- .... ....
....|..|C-5 VF.7 ....|F#4 3F.7 ....|F#4 2F.7 ....
....|..|F-1 2F.7 ....|--- .... ....|--- .... ....
 G-4|..|C-4 AF.F ....|G-4 3F.F ....|G-4 2C.F ....
 F#3|..|F#1 2A.F ....|--- .... ....|--- .F.. ....
....|..|C-4 AF.7 ....|--- .... ....|--- .... ....
....|..|G-1 2F.7 ....|--- .... ....|--- .... ....
....|..|C-4 AF.F ....|--- .... ....|--- .... ....
 F#3|..|F#1 2A.F ....|--- .... ....|--- .... ....
....|..|C-4 AF.A ....|G-4 3F.A ....|G-4 2F.A ....
....|..|C-4 LF.F ....|--- .... ....|--- .... ....
....|..|R-- .... ....|--- .... ....|--- .... ....
....|..|R-- .... ....|--- .... ....|--- .... ....
....|..|C-4 AF.A ....|--- .... ....|--- .... ....
....|..|C-4 LF.F ....|--- .... ....|--- .... ....
....|..|C-4 AF.7 ....|G-4 3F.7 ....|G-4 2F.7 ....
....|..|F#1 2F.7 ....|--- .... ....|--- .... ....
....|..|C-5 VF.F ....|--- .... ....|--- .... ....
 F#3|..|F#1 2A.F ....|--- .... ....|--- .... ....
....|..|C-4 AF.7 ....|--- .... ....|--- .... ....
....|..|F#1 2F.7 ....|--- .... ....|--- .... ....
....|..|C-4 LF.F ....|--- .... ....|--- .... ....
....|..|C-4 LF.7 ....|--- .... ....|--- .... ....
....|..|C-5 VF.A ....|--- .... ....|--- .... ....
 E-4|..|C-4 AF.F ....|E-4 3F.F ....|E-4 2C.F ....
 E-3|..|E-1 2A.F ....|--- .... ....|--- .... ....
....|..|C-4 LF.7 ....|--- .... ....|--- .... ....
....|..|C-4 LF.A ....|--- .... ....|--- .... ....
....|..|C-4 AF.F ....|--- .... ....|--- .... ....
 E-3|..|E-1 2A.F ....|--- .... ....|--- .... ....
....|..|F#1 2F.7 ....|E-4 3F.A ....|E-4 2F.A ....
....|..|C-4 LF.F ....|--- .... ....|--- .... ....
....|..|R-- .... ....|--- .... ....|--- .... ....
....|..|C-4 LF.7 ....|--- .... ....|--- .... ....
....|..|C-4 AF.A ....|--- .... ....|--- .... ....
....|..|C-4 LF.F ....|--- .... ....|--- .... ....
....|..|C-4 AF.7 ....|E-4 3F.7 ....|E-4 2F.7 ....
....|..|E-1 2F.7 ....|--- .... ....|--- .... ....
....|..|C-4 LF.F ....|--- .... ....|--- .... ....
....|..|R-- .... ....|--- .... ....|--- .... ....
....|..|C-4 AF.7 ....|--- .... ....|--- .... ....
....|..|E-1 2F.7 ....|--- .... ....|--- .... ....
....|..|C-4 LF.F ....|--- .... ....|--- .... ....
....|..|C-4 LF.7 ....|--- .... ....|--- .... ....
....|..|C-4 LF.A ....|--- .... ....|--- .... ....
 F#3|..|C-5 VF.F ....|F#4 3F.F ....|F#4 2C.F ....
....|..|R-- .... ....|--- .... ....|--- .... ....
....|..|C-4 LF.7 ....|--- .... ....|--- .... ....
....|..|C-4 LF.A ....|--- .... ....|--- .... ....
....|..|C-4 LF.F ....|--- .... ....|--- .... ....
....|..|C-4 LF.7 ....|--- .... ....|--- .... ....
....|..|C-5 VF.A ....|F#4 3F.A ....|F#4 2F.A ....
....|..|C-4 LF.F ....|--- .... ....|--- .... ....
....|..|R-- .... ....|--- .... ....|--- .... ....
....|..|C-4 LF.7 ....|--- .... ....|--- .... ....
....|..|C-4 LF.A ....|--- .... ....|--- .... ....
....|..|C-4 LF.F ....|--- .... ....|--- .... ....
....|..|C-5 VF.7 ....|F#4 3F.7 ....|F#4 2F.7 ....
....|..|C-4 LF.A ....|--- .... ....|--- .... ....
....|..|C-4 AF.F ....|--- .... ....|--- .... ....
 F#3|..|F#1 2A.F ....|--- .... ....|--- .... ....
....|..|C-4 LF.7 ....|--- .... ....|--- .... ....
....|..|C-4 LF.A ....|--- .... ....|--- .... ....
....|..|C-4 AF.F ....|--- .... ....|--- .... ....
 F#3|..|F#1 2A.F ....|--- .... ....|--- .... ....
....|..|C-4 AF.A ....|--- .... ....|--- .... ....
 C#4|..|C-4 LF.F ....|C#5 3F.F ....|C#5 2C.F ....
....|..|R-- .... ....|--- .... ....|--- .... ....
....|..|C-4 LF.7 ....|--- .... ....|--- .... ....
....|..|C-4 AF.A ....|--- .... ....|--- .... ....
....|..|C-4 LF.F ....|--- .... ....|--- .... ....
....|..|C-4 AF.7 ....|--- .... ....|--- .... ....
....|..|F#1 2F.7 ....|C#5 3F.A ....|C#5 2F.A ....
....|..|C-5 VF.F ....|--- .... ....|--- .... ....
 F#3|..|F#1 2A.F ....|--- .... ....|--- .... ....
....|..|C-4 AF.7 ....|--- .... ....|--- .... ....
....|..|F#1 2F.7 ....|--- .... ....|--- .... ....
....|..|C-4 LF.F ....|--- .... ....|--- .... ....
....|..|C-4 LF.7 ....|C#5 3F.7 ....|C#5 2F.7 ....
....|..|C-5 VF.A ....|--- .... ....|--- .... ....
....|..|C-4 AF.F ....|--- .... ....|--- .... ....
 E-3|..|E-1 2A.F ....|--- .... ....|--- .... ....
....|..|C-4 LF.7 ....|--- .... ....|--- .... ....
....|..|C-4 LF.A ....|--- .... ....|--- .... ....
....|..|C-4 AF.F ....|--- .... ....|--- .... ....
 E-3|..|E-1 2A.F ....|--- .... ....|--- .... ....
....|..|F#1 2F.7 ....|--- .... ....|--- .... ....

[Pattern33]
 D-4|..|C-4 LF.F ....|D-5 3F.F ....|D-5 2C.F ....
....|..|R-- .... ....|--- .... ....|--- .... ....
....|..|C-4 LF.7 ....|--- .... ....|--- .... ....
....|..|C-4 AF.A ....|--- .... ....|--- .... ....
....|..|C-4 LF.F ....|--- .... ....|--- .... ....
....|..|C-4 AF.7 ....|--- .... ....|--- .... ....
....|..|E-1 2F.7 ....|D-5 3F.A ....|D-5 2F.A ....
....|..|C-4 LF.F ....|--- .... ....|--- .... ....
....|..|R-- .... ....|--- .... ....|--- .... ....
....|..|C-4 AF.7 ....|--- .... ....|--- .... ....
....|..|E-1 2F.7 ....|--- .... ....|--- .... ....
....|..|C-4 LF.F ....|--- .... ....|--- .... ....
....|..|C-4 LF.7 ....|D-5 3F.7 ....|D-5 2F.7 ....
....|..|C-4 LF.A ....|--- .... ....|--- .... ....
 B-4|..|C-5 VF.F ....|B-4 3F.F ....|B-4 2C.F ....
 F-3|..|F-1 2A.F ....|--- .... ....|--- .F.. ....
....|..|C-4 LF.7 ....|--- .... ....|--- .... ....
....|..|C-4 LF.A ....|--- .... ....|--- .... ....
....|..|C-4 AF.F ....|--- .... ....|--- .... ....
 G-3|..|G-1 2A.F ....|--- .... ....|--- .F.. ....
....|..|C-5 VF.A ....|B-4 3F.A ....|B-4 2F.A ....
....|..|F-1 2F.A ....|--- .... ....|--- .... ....
....|..|R-- .... ....|--- .... ....|--- .... ....
....|..|C-4 LF.7 ....|--- .... ....|--- .... ....
....|..|C-4 AF.A ....|--- .... ....|--- .... ....
....|..|G-1 2F.A ....|--- .... ....|--- .... ....
....|..|C-5 VF.7 ....|B-4 3F.7 ....|B-4 2F.7 ....
....|..|F-1 2F.7 ....|--- .... ....|--- .... ....
 C#4|..|C-4 AF.F ....|C#5 3F.F ....|C#5 2C.F ....
 F#3|..|F#1 2A.F ....|--- .... ....|--- .F.. ....
....|..|C-4 AF.7 ....|--- .... ....|--- .... ....
....|..|G-1 2F.7 ....|--- .... ....|--- .... ....
....|..|C-4 AF.F ....|--- .... ....|--- .... ....
 F#3|..|F#1 2A.F ....|--- .... ....|--- .... ....
....|..|C-4 AF.A ....|C#5 3F.A ....|C#5 2F.A ....
....|..|C-4 LF.F ....|--- .... ....|--- .... ....
....|..|R-- .... ....|--- .... ....|--- .... ....
....|..|R-- .... ....|--- .... ....|--- .... ....
....|..|C-4 AF.A ....|--- .... ....|--- .... ....
....|..|C-4 LF.F ....|--- .... ....|--- .... ....
....|..|C-4 AF.7 ....|C#5 3F.7 ....|C#5 2F.7 ....
....|..|F#1 2F.7 ....|--- .... ....|--- .... ....
....|..|C-5 VF.F ....|--- .... ....|--- .... ....
 F#3|..|F#1 2A.F ....|--- .... ....|--- .... ....
....|..|C-4 AF.7 ....|--- .... ....|--- .... ....
....|..|F#1 2F.7 ....|--- .... ....|--- .... ....
....|..|C-4 LF.F ....|--- .... ....|--- .... ....
....|..|C-4 LF.7 ....|--- .... ....|--- .... ....
....|..|C-5 VF.A ....|--- .... ....|--- .... ....
 F#3|..|C-4 AF.F ....|F#4 3F.F ....|F#4 2C.F ....
 E-3|..|E-1 2A.F ....|--- .... ....|--- .F.. ....
....|..|C-4 LF.7 ....|--- .... ....|--- .... ....
....|..|C-4 LF.A ....|--- .... ....|--- .... ....
....|..|C-4 AF.F ....|--- .... ....|--- .... ....
 E-3|..|E-1 2A.F ....|--- .... ....|--- .... ....
....|..|F#1 2F.7 ....|F#4 3F.A ....|F#4 2F.A ....
....|..|C-4 LF.F ....|--- .... ....|--- .... ....
....|..|R-- .... ....|--- .... ....|--- .... ....
....|..|C-4 LF.7 ....|--- .... ....|--- .... ....
....|..|C-4 AF.A ....|--- .... ....|--- .... ....
....|..|C-4 LF.F ....|--- .... ....|--- .... ....
....|..|C-4 AF.7 ....|F#4 3F.7 ....|F#4 2F.7 ....
....|..|E-1 2F.7 ....|--- .... ....|--- .... ....
....|..|C-4 LF.F ....|--- .... ....|--- .... ....
....|..|R-- .... ....|--- .... ....|--- .... ....
....|..|C-4 AF.7 ....|--- .... ....|--- .... ....
....|..|E-1 2F.7 ....|--- .... ....|--- .... ....
....|..|C-4 LF.F ....|--- .... ....|--- .... ....
....|..|C-4 LF.7 ....|--- .... ....|--- .... ....
....|..|C-4 LF.A ....|--- .... ....|--- .... ....
 B-4|..|C-5 VF.F ....|B-4 3F.F ....|B-4 2C.F ....
....|..|R-- .... ....|--- .... ....|--- .... ....
....|..|C-4 LF.7 ....|--- .... ....|--- .... ....
....|..|C-4 LF.A ....|--- .... ....|--- .... ....
....|..|C-4 LF.F ....|--- .... ....|--- .... ....
....|..|C-4 LF.7 ....|--- .... ....|--- .... ....
....|..|C-5 VF.A ....|B-4 3F.A ....|B-4 2F.A ....
....|..|C-4 LF.F ....|--- .... ....|--- .... ....
....|..|R-- .... ....|--- .... ....|--- .... ....
....|..|C-4 LF.7 ....|--- .... ....|--- .... ....
....|..|C-4 LF.A ....|--- .... ....|--- .... ....
....|..|C-4 LF.F ....|--- .... ....|--- .... ....
....|..|C-5 VF.7 ....|B-4 3F.7 ....|B-4 2F.7 ....
....|..|C-4 LF.A ....|--- .... ....|--- .... ....
....|..|C-4 AF.F ....|--- .... ....|--- .... ....
 F#3|..|F#1 2A.F ....|--- .... ....|--- .... ....
....|..|C-4 LF.7 ....|--- .... ....|--- .... ....
....|..|C-4 LF.A ....|--- .... ....|--- .... ....
....|..|C-4 AF.F ....|--- .... ....|--- .... ....
 F#3|..|F#1 2A.F ....|--- .... ....|--- .... ....
....|..|C-4 AF.A ....|--- .... ....|--- .... ....
 E-4|..|C-4 LF.F ....|E-4 3F.F ....|E-4 2C.F ....
....|..|R-- .... ....|--- .... ....|--- .... ....
....|..|C-4 LF.7 ....|--- .... ....|--- .... ....
....|..|C-4 AF.A ....|--- .... ....|--- .... ....
....|..|C-4 LF.F ....|--- .... ....|--- .... ....
....|..|C-4 AF.7 ....|--- .... ....|--- .... ....
....|..|F#1 2F.7 ....|E-4 3F.A ....|E-4 2F.A ....
....|..|C-5 VF.F ....|--- .... ....|--- .... ....
 F#3|..|F#1 2A.F ....|--- .... ....|--- .... ....
....|..|C-4 AF.7 ....|--- .... ....|--- .... ....
....|..|F#1 2F.7 ....|--- .... ....|--- .... ....
....|..|C-4 LF.F ....|--- .... ....|--- .... ....
....|..|C-4 LF.7 ....|E-4 3F.7 ....|E-4 2F.7 ....
....|..|C-5 VF.A ....|--- .... ....|--- .... ....
....|..|C-4 AF.F ....|--- .... ....|--- .... ....
 E-3|..|E-1 2A.F ....|--- .... ....|--- .... ....
....|..|C-4 LF.7 ....|--- .... ....|--- .... ....
....|..|C-4 LF.A ....|--- .... ....|--- .... ....
....|..|C-4 AF.F ....|--- .... ....|--- .... ....
 E-3|..|E-1 2A.F ....|--- .... ....|--- .... ....
....|..|F#1 2F.7 ....|--- .... ....|--- .... ....
 A-3|..|C-4 LF.F ....|A-4 3F.F ....|A-4 2C.F ....
....|..|R-- .... ....|--- .... ....|--- .... ....
....|..|C-4 LF.7 ....|--- .... ....|--- .... ....
....|..|C-4 AF.A ....|--- .... ....|--- .... ....
....|..|C-4 LF.F ....|--- .... ....|--- .... ....
....|..|C-4 AF.7 ....|--- .... ....|--- .... ....
....|..|E-1 2F.7 ....|A-4 3F.A ....|A-4 2F.A ....
....|..|C-4 LF.F ....|--- .... ....|--- .... ....
....|..|R-- .... ....|--- .... ....|--- .... ....
....|..|C-4 AF.7 ....|--- .... ....|--- .... ....
....|..|E-1 2F.7 ....|--- .... ....|--- .... ....
....|..|C-4 LF.F ....|--- .... ....|--- .... ....
....|..|C-4 LF.7 ....|A-4 3F.7 ....|A-4 2F.7 ....
....|..|C-4 LF.A ....|--- .... ....|--- .... ....
 D-4|..|C-5 VF.F ....|D-4 3F.F ....|D-4 2C.F ....
 F-3|..|F-1 2A.F ....|--- .... ....|--- .F.. ....

[Pattern34]
....|..|C-4 LF.7 ....|--- .... ....|--- .... ....
....|..|C-4 LF.A ....|--- .... ....|--- .... ....
....|..|C-4 AF.F ....|--- .... ....|--- .... ....
 G-3|..|G-1 2A.F ....|--- .... ....|--- .F.. ....
....|..|C-5 VF.A ....|D-4 3F.A ....|D-4 2F.A ....
....|..|F-1 2F.A ....|--- .... ....|--- .... ....
....|..|R-- .... ....|--- .... ....|--- .... ....
....|..|C-4 LF.7 ....|--- .... ....|--- .... ....
....|..|C-4 AF.A ....|--- .... ....|--- .... ....
 E-4|..|G-1 2F.A ....|E-4 3F.F ....|E-4 2C.F ....
....|..|C-5 VF.7 ....|D-4 3F.7 ....|D-4 2F.7 ....
 D-4|..|F-1 2F.7 ....|D-4 3F.F ....|D-4 2C.F ....
 C#4|..|C-4 AF.F ....|C#4 3F.F ....|C#4 2C.F ....
 F#3|..|F#1 2A.F ....|--- .... ....|--- .F.. ....
....|..|C-4 AF.7 ....|--- .... ....|--- .... ....
....|..|G-1 2F.7 ....|E-4 3F.A ....|E-4 2F.A ....
....|..|C-4 AF.F ....|--- .... ....|--- .... ....
 F#3|..|F#1 2A.F ....|D-4 3F.A ....|D-4 2F.A ....
....|..|C-4 AF.A ....|C#4 3F.A ....|C#4 2F.A ....
....|..|C-4 LF.F ....|--- .... ....|--- .... ....
....|..|R-- .... ....|--- .... ....|--- .... ....
....|..|R-- .... ....|E-4 3F.7 ....|E-4 2F.7 ....
....|..|C-4 AF.A ....|--- .... ....|--- .... ....
....|..|C-4 LF.F ....|D-4 3F.7 ....|D-4 2F.7 ....
....|..|C-4 AF.7 ....|C#4 3F.7 ....|C#4 2F.7 ....
....|..|F#1 2F.7 ....|--- .... ....|--- .... ....
....|..|C-5 VF.F ....|--- .... ....|--- .... ....
 F#3|..|F#1 2A.F ....|--- .... ....|--- .... ....
....|..|C-4 AF.7 ....|--- .... ....|--- .... ....
....|..|F#1 2F.7 ....|--- .... ....|--- .... ....
....|..|C-4 LF.F ....|--- .... ....|--- .... ....
....|..|C-4 LF.7 ....|--- .... ....|--- .... ....
....|..|C-5 VF.A ....|--- .... ....|--- .... ....
....|..|C-4 AF.F ....|--- .... ....|--- .... ....
 E-3|..|E-1 2A.F ....|--- .... ....|--- .... ....
....|..|C-4 LF.7 ....|--- .... ....|--- .... ....
....|..|C-4 LF.A ....|--- .... ....|--- .... ....
....|..|C-4 AF.F ....|--- .... ....|--- .... ....
 E-3|..|E-1 2A.F ....|--- .... ....|--- .... ....
....|..|F#1 2F.7 ....|--- .... ....|--- .... ....
....|..|C-4 LF.F ....|--- .... ....|--- .... ....
....|..|R-- .... ....|--- .... ....|--- .... ....
....|..|C-4 LF.7 ....|--- .... ....|--- .... ....
....|..|C-4 AF.A ....|--- .... ....|--- .... ....
....|..|C-4 LF.F ....|--- .... ....|--- .... ....
....|..|C-4 AF.7 ....|--- .... ....|--- .... ....
....|..|E-1 2F.7 ....|--- .... ....|--- .... ....
....|..|C-4 LF.F ....|--- .... ....|--- .... ....
....|..|R-- .... ....|--- .... ....|--- .... ....
....|..|C-4 AF.7 ....|--- .... ....|--- .... ....
....|..|E-1 2F.7 ....|--- .... ....|--- .... ....
....|..|C-4 LF.F ....|--- .... ....|--- .... ....
....|..|C-4 LF.7 ....|--- .... ....|--- .... ....
....|..|C-4 LF.A ....|--- .... ....|--- .... ....
....|..|C-5 VF.F ....|--- .... ....|--- .... ....
....|..|R-- .... ....|--- .... ....|--- .... ....
....|..|C-4 LF.7 ....|--- .... ....|--- .... ....
....|..|C-4 LF.A ....|--- .... ....|--- .... ....
....|..|C-4 LF.F ....|--- .... ....|--- .... ....
....|..|C-4 LF.7 ....|--- .... ....|--- .... ....
....|..|C-5 VF.A ....|--- .... ....|--- .... ....
....|..|C-4 LF.F ....|--- .... ....|--- .... ....
....|..|R-- .... ....|--- .... ....|--- .... ....
....|..|C-4 LF.7 ....|--- .... ....|--- .... ....
....|..|C-4 LF.A ....|--- .... ....|--- .... ....
....|..|C-4 LF.F ....|--- .... ....|--- .... ....
....|..|C-5 VF.7 ....|--- .... ....|--- .... ....
....|..|C-4 LF.A ....|--- .... ....|--- .... ....
 C#4|..|C-4 AF.F ....|C#3 3F.F ....|C#3 2C.F ....
 F#3|..|F#1 2A.F ....|--- .... ....|--- .F.. ....
....|..|C-4 LF.7 ....|--- .... ....|--- .... ....
....|..|C-4 LF.A ....|--- .... ....|--- .... ....
 D-4|..|C-4 AF.F ....|D-3 3F.F ....|D-3 2C.F ....
 F#3|..|F#1 2A.F ....|--- .... ....|--- .F.. ....
....|..|C-4 AF.A ....|C#3 3F.A ....|C#3 2F.A ....
 C#4|..|C-4 LF.F ....|C#3 3F.F ....|C#3 2C.F ....
....|..|R-- .... ....|--- .... ....|--- .... ....
....|..|C-4 LF.7 ....|--- .... ....|--- .... ....
....|..|C-4 AF.A ....|D-3 3F.A ....|D-3 2F.A ....
 D-4|..|C-4 LF.F ....|D-3 3F.F ....|D-3 2C.F ....
....|..|C-4 AF.7 ....|C#3 3F.7 ....|C#3 2F.7 ....
....|..|F#1 2F.7 ....|C#3 3F.A ....|C#3 2F.A ....
 C#4|..|C-5 VF.F ....|C#3 3F.F ....|C#3 2C.F ....
 F#3|..|F#1 2A.F ....|--- .... ....|--- .F.. ....
....|..|C-4 AF.7 ....|D-3 3F.7 ....|D-3 2F.7 ....
....|..|F#1 2F.7 ....|D-3 3F.A ....|D-3 2F.A ....
 D-4|..|C-4 LF.F ....|D-3 3F.F ....|D-3 2C.F ....
....|..|C-4 LF.7 ....|C#3 3F.7 ....|C#3 2F.7 ....
....|..|C-5 VF.A ....|C#3 3F.A ....|C#3 2F.A ....
 C#4|..|C-4 AF.F ....|C#3 3F.F ....|C#3 2C.F ....
 E-3|..|E-1 2A.F ....|--- .... ....|--- .F.. ....
....|..|C-4 LF.7 ....|D-3 3F.7 ....|D-3 2F.7 ....
....|..|C-4 LF.A ....|D-3 3F.A ....|D-3 2F.A ....
 D-4|..|C-4 AF.F ....|D-3 3F.F ....|D-3 2C.F ....
 E-3|..|E-1 2A.F ....|C#3 3F.7 ....|C#3 2F.7 ....
....|..|F#1 2F.7 ....|C#3 3F.A ....|C#3 2F.A ....
 C#4|..|C-4 LF.F ....|C#3 3F.F ....|C#3 2C.F ....
....|..|R-- .... ....|--- .... ....|--- .... ....
....|..|C-4 LF.7 ....|D-3 3F.7 ....|D-3 2F.7 ....
....|..|C-4 AF.A ....|D-3 3F.A ....|D-3 2F.A ....
 D-4|..|C-5 VF.F ....|D-3 3F.F ....|D-3 2C.F ....
....|..|C-4 AF.7 ....|C#3 3F.7 ....|C#3 2F.7 ....
....|..|E-1 2F.7 ....|C#3 3F.A ....|C#3 2F.A ....
 C#4|..|C-5 VF.F ....|C#4 3F.F ....|C#4 2C.F ....
....|..|R-- .... ....|--- .... ....|--- .... ....
....|..|C-4 AF.7 ....|D-3 3F.7 ....|D-3 2F.7 ....
....|..|E-1 2F.7 ....|D-3 3F.A ....|D-3 2F.A ....
 D-4|..|C-4 AF.F ....|D-4 3F.F ....|D-4 2C.F ....
....|..|C-4 LF.7 ....|C#3 3F.7 ....|C#3 2F.7 ....
....|..|C-5 VF.A ....|C#4 3F.A ....|C#4 2F.A ....
 C#4|..|C-5 VF.F ....|C#5 3F.F ....|C#5 2C.F ....
 F-3|..|F-1 2A.F ....|--- .... ....|--- .F.. ....
....|..|C-5 VF.7 ....|D-3 3F.7 ....|D-3 2F.7 ....
....|..|C-4 AF.A ....|D-4 3F.A ....|D-4 2F.A ....
 D-4|..|C-4 AF.F ....|D-5 3F.F ....|D-5 2C.F ....
 G-3|..|G-1 2A.F ....|C#4 3F.7 ....|C#4 2F.7 ....
....|..|C-5 VF.A ....|C#5 3F.A ....|C#5 2F.A ....
 C#4|..|C-5 VF.F ....|C#6 3F.F ....|C#6 2C.F ....
....|..|R-- .... ....|--- .... ....|--- .... ....
....|..|C-4 AF.7 ....|D-4 3F.7 ....|D-4 2F.7 ....
....|..|C-4 AF.A ....|D-5 3F.A ....|D-5 2F.A ....
 D-4|..|C-4 AF.F ....|D-6 3F.F ....|D-6 2C.F ....
....|..|C-5 VF.7 ....|C#5 3F.7 ....|C#5 2F.7 ....
....|..|F-1 2F.7 ....|C#6 3F.A ....|C#6 2F.A ....
 B-4|..|C-4 AF.F ....|B-3 3F.F ....|B-3 2C.F ....
 B-3|..|B-1 2A.F ....|--- .... ....|--- .... ....
....|..|C-4 AF.7 ....|D-5 3F.7 ....|D-5 2F.7 ....
....|..|G-1 2F.7 ....|D-6 3F.A ....|D-6 2F.A ....

[Pattern35]
 F#4|..|C-4 AF.F ....|F#3 3F.F ....|F#3 2C.F ....
 B-3|..|B-1 2A.F ....|C#6 3F.7 ....|C#6 2F.7 ....
....|..|C-4 AF.A ....|B-3 3F.A ....|B-3 2F.A ....
 B-4|..|C-4 LF.F ....|B-3 3F.F ....|B-3 2C.F ....
....|..|R-- .... ....|--- .... ....|--- .... ....
....|..|C-4 AF.7 ....|D-6 3F.7 ....|D-6 2F.7 ....
....|..|C-4 AF.A ....|F#3 3F.A ....|F#3 2F.A ....
 F#4|..|C-4 LF.F ....|F#3 3F.F ....|F#3 2C.F ....
....|..|C-4 AF.7 ....|B-3 3F.7 ....|B-3 2F.7 ....
....|..|B-1 2F.7 ....|B-3 3F.A ....|B-3 2F.A ....
 B-4|..|C-5 VF.F ....|B-3 3F.F ....|B-3 2C.F ....
 B-3|..|B-1 2A.F ....|--- .... ....|--- .... ....
....|..|C-4 AF.7 ....|F#3 3F.7 ....|F#3 2F.7 ....
....|..|B-1 2F.7 ....|F#3 3F.A ....|F#3 2F.A ....
 F#4|..|C-4 LF.F ....|F#3 3F.F ....|F#3 2C.F ....
....|..|C-4 LF.7 ....|B-3 3F.7 ....|B-3 2F.7 ....
....|..|C-5 VF.A ....|B-3 3F.A ....|B-3 2F.A ....
 F#4|..|C-4 AF.F ....|F#3 3F.F ....|F#3 2C.F ....
 A-3|..|A-1 2A.F ....|--- .... ....|--- .F.. ....
....|..|C-4 LF.7 ....|F#3 3F.7 ....|F#3 2F.7 ....
....|..|C-4 LF.A ....|F#3 3F.A ....|F#3 2F.A ....
 B-4|..|C-4 AF.F ....|B-2 3F.F ....|B-2 2A.F ....
 A-3|..|A-1 2A.F ....|B-3 3F.7 ....|B-3 2F.7 ....
....|..|B-1 2F.7 ....|F#3 3F.A ....|F#3 2F.A ....
 F#4|..|C-4 LF.F ....|F#3 3F.F ....|F#3 2C.F ....
....|..|R-- .... ....|--- .... ....|--- .... ....
....|..|C-4 LF.7 ....|F#3 3F.7 ....|F#3 2F.7 ....
....|..|C-4 AF.A ....|B-2 3F.A ....|B-2 2F.A ....
 B-4|..|C-4 LF.F ....|B-2 3F.F ....|B-2 2A.F ....
....|..|C-4 AF.7 ....|F#3 3F.7 ....|F#3 2F.7 ....
....|..|A-1 2F.7 ....|F#3 3F.A ....|F#3 2F.A ....
 F#4|..|C-4 LF.F ....|F#3 3F.F ....|F#3 2C.F ....
....|..|R-- .... ....|--- .... ....|--- .... ....
....|..|C-4 AF.7 ....|B-2 3F.7 ....|B-2 2F.7 ....
....|..|A-1 2F.7 ....|B-2 3F.A ....|B-2 2F.A ....
 B-4|..|C-4 LF.F ....|B-2 3F.F ....|B-2 2A.F ....
....|..|C-4 LF.7 ....|F#3 3F.7 ....|F#3 2F.7 ....
....|..|C-4 LF.A ....|F#3 3F.A ....|F#3 2F.A ....
 G-4|..|C-5 VF.F ....|G-3 3F.F ....|G-3 2C.F ....
....|..|R-- .... ....|--- .... ....|--- .... ....
....|..|C-4 LF.7 ....|B-2 3F.7 ....|B-2 2F.7 ....
....|..|C-4 LF.A ....|B-2 3F.A ....|B-2 2F.A ....
 B-4|..|C-4 LF.F ....|B-2 3F.F ....|B-2 2A.F ....
....|..|C-4 LF.7 ....|F#3 3F.7 ....|F#3 2F.7 ....
....|..|C-5 VF.A ....|G-3 3F.A ....|G-3 2F.A ....
 G-4|..|C-4 LF.F ....|G-3 3F.F ....|G-3 2C.F ....
....|..|R-- .... ....|--- .... ....|--- .... ....
....|..|C-4 LF.7 ....|B-2 3F.7 ....|B-2 2F.7 ....
....|..|C-4 LF.A ....|B-2 3F.A ....|B-2 2F.A ....
 B-4|..|C-4 LF.F ....|B-2 3F.F ....|B-2 2A.F ....
....|..|C-5 VF.7 ....|G-3 3F.7 ....|G-3 2F.7 ....
....|..|C-4 LF.A ....|G-3 3F.A ....|G-3 2F.A ....
 G-4|..|C-4 AF.F ....|G-3 3F.F ....|G-3 2C.F ....
 B-3|..|B-1 2A.F ....|--- .... ....|--- .F.. ....
....|..|C-4 LF.7 ....|B-2 3F.7 ....|B-2 2F.7 ....
....|..|C-4 LF.A ....|B-2 3F.A ....|B-2 2F.A ....
 B-4|..|C-4 AF.F ....|B-2 3F.F ....|B-2 2A.F ....
 B-3|..|B-1 2A.F ....|G-3 3F.7 ....|G-3 2F.7 ....
....|..|C-4 AF.A ....|G-3 3F.A ....|G-3 2F.A ....
 E-4|..|C-4 LF.F ....|E-3 3F.F ....|E-3 2C.F ....
....|..|R-- .... ....|--- .... ....|--- .... ....
....|..|C-4 LF.7 ....|B-2 3F.7 ....|B-2 2F.7 ....
....|..|C-4 AF.A ....|B-2 3F.A ....|B-2 2F.A ....
 B-4|..|C-4 LF.F ....|B-2 3F.F ....|B-2 2A.F ....
....|..|C-4 AF.7 ....|G-3 3F.7 ....|G-3 2F.7 ....
....|..|B-1 2F.7 ....|E-3 3F.A ....|E-3 2F.A ....
 E-4|..|C-5 VF.F ....|E-3 3F.F ....|E-3 2C.F ....
 B-3|..|B-1 2A.F ....|--- .... ....|--- .F.. ....
....|..|C-4 AF.7 ....|B-2 3F.7 ....|B-2 2F.7 ....
....|..|B-1 2F.7 ....|B-2 3F.A ....|B-2 2F.A ....
 B-4|..|C-4 LF.F ....|B-2 3F.F ....|B-2 2A.F ....
....|..|C-4 LF.7 ....|E-3 3F.7 ....|E-3 2F.7 ....
....|..|C-5 VF.A ....|E-3 3F.A ....|E-3 2F.A ....
 E-4|..|C-4 AF.F ....|E-3 3F.F ....|E-3 2C.F ....
 A-3|..|A-1 2A.F ....|--- .... ....|--- .F.. ....
....|..|C-4 LF.7 ....|B-2 3F.7 ....|B-2 2F.7 ....
....|..|C-4 LF.A ....|B-2 3F.A ....|B-2 2F.A ....
 B-4|..|C-4 AF.F ....|B-2 3F.F ....|B-2 2A.F ....
 A-3|..|A-1 2A.F ....|E-3 3F.7 ....|E-3 2F.7 ....
....|..|B-1 2F.7 ....|E-3 3F.A ....|E-3 2F.A ....
 F#4|..|C-4 LF.F ....|F#3 3F.F ....|F#3 2C.F ....
....|..|R-- .... ....|--- .... ....|--- .... ....
....|..|C-4 LF.7 ....|B-2 3F.7 ....|B-2 2F.7 ....
....|..|C-4 AF.A ....|B-2 3F.A ....|B-2 2F.A ....
 B-4|..|C-4 LF.F ....|B-2 3F.F ....|B-2 2A.F ....
....|..|C-4 AF.7 ....|E-3 3F.7 ....|E-3 2F.7 ....
....|..|A-1 2F.7 ....|F#3 3F.A ....|F#3 2F.A ....
 F#4|..|C-4 LF.F ....|F#3 3F.F ....|F#3 2C.F ....
....|..|R-- .... ....|--- .... ....|--- .... ....
....|..|C-4 AF.7 ....|B-2 3F.7 ....|B-2 2F.7 ....
....|..|A-1 2F.7 ....|B-2 3F.A ....|B-2 2F.A ....
 B-4|..|C-4 LF.F ....|B-2 3F.F ....|B-2 2A.F ....
....|..|C-4 LF.7 ....|F#3 3F.7 ....|F#3 2F.7 ....
....|..|C-4 LF.A ....|F#3 3F.A ....|F#3 2F.A ....
 B-4|..|C-5 VF.F ....|B-3 3F.F ....|B-3 2C.F ....
 A#3|..|A#1 2A.F ....|--- .... ....|--- .F.. ....
....|..|C-4 LF.7 ....|B-2 3F.7 ....|B-2 2F.7 ....
....|..|C-4 LF.A ....|B-2 3F.A ....|B-2 2F.A ....
 F#4|..|C-4 AF.F ....|F#3 3F.F ....|F#3 2C.F ....
 C-4|..|C-2 2A.F ....|F#3 3F.7 ....|F#3 2F.7 ....
....|..|C-5 VF.A ....|B-3 3F.A ....|B-3 2F.A ....
 B-4|..|A#1 2F.A ....|B-3 3F.F ....|B-3 2C.F ....
....|..|R-- .... ....|--- .... ....|--- .... ....
....|..|C-4 LF.7 ....|B-2 3F.7 ....|B-2 2F.7 ....
....|..|C-4 AF.A ....|F#3 3F.A ....|F#3 2F.A ....
 F#4|..|C-2 2F.A ....|F#3 3F.F ....|F#3 2C.F ....
....|..|C-5 VF.7 ....|B-3 3F.7 ....|B-3 2F.7 ....
....|..|A#1 2F.7 ....|B-3 3F.A ....|B-3 2F.A ....
 C-3|..|C-4 AF.F ....|C-4 3F.F ....|C-4 2C.F ....
 B-3|..|B-1 2A.F ....|--- .... ....|--- .F.. ....
....|..|C-4 AF.7 ....|F#3 3F.7 ....|F#3 2F.7 ....
....|..|C-2 2F.7 ....|F#3 3F.A ....|F#3 2F.A ....
 F#4|..|C-4 AF.F ....|F#3 3F.F ....|F#3 2C.F ....
 B-3|..|B-1 2A.F ....|B-3 3F.7 ....|B-3 2F.7 ....
....|..|C-4 AF.A ....|C-4 3F.A ....|C-4 2F.A ....
 C-3|..|C-4 LF.F ....|C-4 3F.F ....|C-4 2C.F ....
....|..|R-- .... ....|--- .... ....|--- .... ....
....|..|R-- .... ....|F#3 3F.7 ....|F#3 2F.7 ....
....|..|C-4 AF.A ....|F#3 3F.A ....|F#3 2F.A ....
 F#4|..|C-4 LF.F ....|F#3 3F.F ....|F#3 2C.F ....
....|..|C-4 AF.7 ....|C-4 3F.7 ....|C-4 2F.7 ....
....|..|B-1 2F.7 ....|C-4 3F.A ....|C-4 2F.A ....
 C-3|..|C-5 VF.F ....|C-4 3F.F ....|C-4 2C.F ....
 B-3|..|B-1 2A.F ....|--- .... ....|--- .F.. ....
....|..|C-4 AF.7 ....|F#3 3F.7 ....|F#3 2F.7 ....
....|..|B-1 2F.7 ....|F#3 3F.A ....|F#3 2F.A ....
 F#4|..|C-4 LF.F ....|F#3 3F.F ....|F#3 2C.F ....
....|..|C-4 LF.7 ....|C-4 3F.7 ....|C-4 2F.7 ....

[Pattern36]
....|..|C-5 VF.A ....|C-4 3F.A ....|C-4 2F.A ....
 A-3|..|C-4 AF.F ....|A-3 3F.F ....|A-3 2C.F ....
 A-3|..|A-1 2A.F ....|--- .... ....|--- .... ....
....|..|C-4 LF.7 ....|F#3 3F.7 ....|F#3 2F.7 ....
....|..|C-4 LF.A ....|F#3 3F.A ....|F#3 2F.A ....
 E-4|..|C-4 AF.F ....|E-3 3F.F ....|E-3 2C.F ....
 A-3|..|A-1 2A.F ....|C-4 3F.7 ....|C-4 2F.7 ....
....|..|B-1 2F.7 ....|A-3 3F.A ....|A-3 2F.A ....
 A-3|..|C-4 LF.F ....|A-3 3F.F ....|A-3 2C.F ....
....|..|R-- .... ....|--- .... ....|--- .... ....
....|..|C-4 LF.7 ....|F#3 3F.7 ....|F#3 2F.7 ....
....|..|C-4 AF.A ....|E-3 3F.A ....|E-3 2F.A ....
 E-4|..|C-4 LF.F ....|E-3 3F.F ....|E-3 2C.F ....
....|..|C-4 AF.7 ....|A-3 3F.7 ....|A-3 2F.7 ....
....|..|A-1 2F.7 ....|A-3 3F.A ....|A-3 2F.A ....
 A-3|..|C-4 LF.F ....|A-3 3F.F ....|A-3 2C.F ....
....|..|R-- .... ....|--- .... ....|--- .... ....
....|..|C-4 AF.7 ....|E-3 3F.7 ....|E-3 2F.7 ....
....|..|A-1 2F.7 ....|E-3 3F.A ....|E-3 2F.A ....
 E-4|..|C-4 LF.F ....|E-3 3F.F ....|E-3 2C.F ....
....|..|C-4 LF.7 ....|A-3 3F.7 ....|A-3 2F.7 ....
....|..|C-4 LF.A ....|A-3 3F.A ....|A-3 2F.A ....
 B-4|..|C-5 VF.F ....|B-3 3F.F ....|B-3 2C.F ....
....|..|R-- .... ....|--- .... ....|--- .... ....
....|..|C-4 LF.7 ....|E-3 3F.7 ....|E-3 2F.7 ....
....|..|C-4 LF.A ....|E-3 3F.A ....|E-3 2F.A ....
 F#4|..|C-4 LF.F ....|F#3 3F.F ....|F#3 2C.F ....
....|..|C-4 LF.7 ....|A-3 3F.7 ....|A-3 2F.7 ....
....|..|C-5 VF.A ....|B-3 3F.A ....|B-3 2F.A ....
 B-4|..|C-4 LF.F ....|B-3 3F.F ....|B-3 2C.F ....
....|..|R-- .... ....|--- .... ....|--- .... ....
....|..|C-4 LF.7 ....|E-3 3F.7 ....|E-3 2F.7 ....
....|..|C-4 LF.A ....|F#3 3F.A ....|F#3 2F.A ....
 F#4|..|C-4 LF.F ....|F#3 3F.F ....|F#3 2C.F ....
....|..|C-5 VF.7 ....|B-3 3F.7 ....|B-3 2F.7 ....
....|..|C-4 LF.A ....|B-3 3F.A ....|B-3 2F.A ....
 B-4|..|C-4 AF.F ....|B-3 3F.F ....|B-3 2C.F ....
 B-3|..|B-1 2A.F ....|--- .... ....|--- .... ....
....|..|C-4 LF.7 ....|F#3 3F.7 ....|F#3 2F.7 ....
....|..|C-4 LF.A ....|F#3 3F.A ....|F#3 2F.A ....
 F#4|..|C-4 AF.F ....|F#3 3F.F ....|F#3 2C.F ....
 B-3|..|B-1 2A.F ....|B-3 3F.7 ....|B-3 2F.7 ....
....|..|C-4 AF.A ....|B-3 3F.A ....|B-3 2F.A ....
 F#3|..|C-4 LF.F ....|F#4 3F.F ....|F#4 2C.F ....
....|..|R-- .... ....|--- .... ....|--- .... ....
....|..|C-4 LF.7 ....|F#3 3F.7 ....|F#3 2F.7 ....
....|..|C-4 AF.A ....|F#3 3F.A ....|F#3 2F.A ....
 B-4|..|C-4 LF.F ....|B-3 3F.F ....|B-3 2C.F ....
....|..|C-4 AF.7 ....|B-3 3F.7 ....|B-3 2F.7 ....
....|..|B-1 2F.7 ....|F#4 3F.A ....|F#4 2F.A ....
 F#3|..|C-5 VF.F ....|F#4 3F.F ....|F#4 2C.F ....
 B-3|..|B-1 2A.F ....|--- .... ....|--- .F.. ....
....|..|C-4 AF.7 ....|F#3 3F.7 ....|F#3 2F.7 ....
....|..|B-1 2F.7 ....|B-3 3F.A ....|B-3 2F.A ....
 B-4|..|C-4 LF.F ....|B-3 3F.F ....|B-3 2C.F ....
....|..|C-4 LF.7 ....|F#4 3F.7 ....|F#4 2F.7 ....
....|..|C-5 VF.A ....|F#4 3F.A ....|F#4 2F.A ....
 F#3|..|C-4 AF.F ....|F#4 3F.F ....|F#4 2C.F ....
 A-3|..|A-1 2A.F ....|--- .... ....|--- .F.. ....
....|..|C-4 LF.7 ....|B-3 3F.7 ....|B-3 2F.7 ....
....|..|C-4 LF.A ....|B-3 3F.A ....|B-3 2F.A ....
 B-4|..|C-4 AF.F ....|B-3 3F.F ....|B-3 2C.F ....
 A-3|..|A-1 2A.F ....|F#4 3F.7 ....|F#4 2F.7 ....
....|..|B-1 2F.7 ....|F#4 3F.A ....|F#4 2F.A ....
 G-4|..|C-4 LF.F ....|G-4 3F.F ....|G-4 2C.F ....
....|..|R-- .... ....|--- .... ....|--- .... ....
....|..|C-4 LF.7 ....|B-3 3F.7 ....|B-3 2F.7 ....
....|..|C-4 AF.A ....|B-3 3F.A ....|B-3 2F.A ....
 B-4|..|C-4 LF.F ....|B-3 3F.F ....|B-3 2C.F ....
....|..|C-4 AF.7 ....|F#4 3F.7 ....|F#4 2F.7 ....
....|..|A-1 2F.7 ....|G-4 3F.A ....|G-4 2F.A ....
 G-4|..|C-4 LF.F ....|G-4 3F.F ....|G-4 2C.F ....
....|..|R-- .... ....|--- .... ....|--- .... ....
....|..|C-4 AF.7 ....|B-3 3F.7 ....|B-3 2F.7 ....
....|..|A-1 2F.7 ....|B-3 3F.A ....|B-3 2F.A ....
 B-4|..|C-4 LF.F ....|B-3 3F.F ....|B-3 2C.F ....
....|..|C-4 LF.7 ....|G-4 3F.7 ....|G-4 2F.7 ....
....|..|C-4 LF.A ....|G-4 3F.A ....|G-4 2F.A ....
 E-4|..|C-5 VF.F ....|E-4 3F.F ....|E-4 2C.F ....
 A#3|..|A#1 2A.F ....|--- .... ....|--- .F.. ....
....|..|C-4 LF.7 ....|B-3 3F.7 ....|B-3 2F.7 ....
....|..|C-4 LF.A ....|B-3 3F.A ....|B-3 2F.A ....
 B-4|..|C-4 AF.F ....|B-3 3F.F ....|B-3 2C.F ....
 C-4|..|C-2 2A.F ....|G-4 3F.7 ....|G-4 2F.7 ....
....|..|C-5 VF.A ....|E-4 3F.A ....|E-4 2F.A ....
 E-4|..|A#1 2F.A ....|E-4 3F.F ....|E-4 2C.F ....
....|..|R-- .... ....|--- .... ....|--- .... ....
....|..|C-4 LF.7 ....|B-3 3F.7 ....|B-3 2F.7 ....
....|..|C-4 AF.A ....|B-3 3F.A ....|B-3 2F.A ....
 B-4|..|C-2 2F.A ....|B-3 3F.F ....|B-3 2C.F ....
....|..|C-5 VF.7 ....|E-4 3F.7 ....|E-4 2F.7 ....
....|..|A#1 2F.7 ....|E-4 3F.A ....|E-4 2F.A ....
 F#3|..|C-4 AF.F ....|F#4 3F.F ....|F#4 2C.F ....
 B-3|..|B-1 2A.F ....|--- .... ....|--- .F.. ....
....|..|C-4 AF.7 ....|B-3 3F.7 ....|B-3 2F.7 ....
....|..|C-2 2F.7 ....|B-3 3F.A ....|B-3 2F.A ....
 B-4|..|C-4 AF.F ....|B-3 3F.F ....|B-3 2C.F ....
 B-3|..|B-1 2A.F ....|E-4 3F.7 ....|E-4 2F.7 ....
....|..|C-4 AF.A ....|F#4 3F.A ....|F#4 2F.A ....
 F#3|..|C-4 LF.F ....|F#4 3F.F ....|F#4 2C.F ....
....|..|R-- .... ....|--- .... ....|--- .... ....
....|..|R-- .... ....|B-3 3F.7 ....|B-3 2F.7 ....
 B-4|..|C-4 LF.F ....|B-3 3F.F ....|B-3 2C.F ....
....|..|B-1 2F.A ....|--- .... ....|--- .... ....
....|..|C-4 AF.7 ....|F#4 3F.7 ....|F#4 2F.7 ....
....|..|B-1 2F.7 ....|F#4 3F.A ....|F#4 2F.A ....
 F#3|..|C-5 VF.F ....|F#4 3F.F ....|F#4 2C.F ....
 B-3|..|B-1 2A.F ....|--- .... ....|--- .F.. ....
....|..|C-4 AF.7 ....|B-3 3F.7 ....|B-3 2F.7 ....
 B-4|..|C-4 LF.F ....|B-3 3F.F ....|B-3 2C.F ....
....|..|R-- .... ....|--- .... ....|--- .... ....
....|..|C-4 LF.7 ....|F#4 3F.7 ....|F#4 2F.7 ....
....|..|C-5 VF.A ....|F#4 3F.A ....|F#4 2F.A ....
 B-4|..|C-4 AF.F ....|B-3 3F.F ....|B-3 2C.F ....
 A-3|..|A-1 2A.F ....|B-3 3F.7 ....|B-3 2F.7 ....
....|..|C-4 LF.A ....|B-3 3F.A ....|B-3 2F.A ....
 F#4|..|C-4 AF.F ....|F#3 3F.F ....|F#3 2C.F ....
 A-3|..|A-1 2A.F ....|--- .... ....|--- .F.. ....
....|..|C-5 VF.7 ....|F#4 3F.7 ....|F#4 2F.7 ....
....|..|B-1 2F.7 ....|B-3 3F.A ....|B-3 2F.A ....
 B-4|..|C-4 LF.F ....|B-3 3F.F ....|B-3 2C.F ....
....|..|C-4 LF.7 ....|B-3 3F.7 ....|B-3 2F.7 ....
....|..|C-4 AF.A ....|F#3 3F.A ....|F#3 2F.A ....
 F#4|..|C-4 LF.F ....|F#3 3F.F ....|F#3 2C.F ....
....|..|R-- .... ....|--- .... ....|--- .... ....
....|..|C-4 AF.7 ....|B-3 3F.7 ....|B-3 2F.7 ....
....|..|A-1 2F.7 ....|B-3 3F.A ....|B-3 2F.A ....
 B-4|..|C-4 LF.F ....|B-3 3F.F ....|B-3 2C.F ....

[Pattern37]
....|..|C-4 AF.7 ....|F#3 3F.7 ....|F#3 2F.7 ....
....|..|A-1 2F.7 ....|F#3 3F.A ....|F#3 2F.A ....
 F#4|..|C-4 LF.F ....|F#3 3F.F ....|F#3 2C.F ....
....|..|R-- .... ....|--- .... ....|--- .... ....
....|..|C-4 LF.7 ....|B-3 3F.7 ....|B-3 2F.7 ....
....|..|C-4 LF.A ....|B-3 3F.A ....|B-3 2F.A ....
 E-4|..|C-5 VF.F ....|E-4 3F.F ....|E-4 2C.F ....
....|..|C-4 LF.7 ....|F#3 3F.7 ....|F#3 2F.7 ....
....|..|C-4 LF.A ....|F#3 3F.A ....|F#3 2F.A ....
 A-3|..|C-4 LF.F ....|A-3 3F.F ....|A-3 2C.F ....
....|..|R-- .... ....|--- .... ....|--- .... ....
....|..|C-4 LF.7 ....|B-3 3F.7 ....|B-3 2F.7 ....
....|..|C-5 VF.A ....|E-4 3F.A ....|E-4 2F.A ....
 E-4|..|C-4 LF.F ....|E-4 3F.F ....|E-4 2C.F ....
....|..|C-4 LF.7 ....|F#3 3F.7 ....|F#3 2F.7 ....
....|..|C-4 LF.A ....|A-3 3F.A ....|A-3 2F.A ....
 A-3|..|C-4 LF.F ....|A-3 3F.F ....|A-3 2C.F ....
....|..|R-- .... ....|--- .... ....|--- .... ....
....|..|C-5 VF.7 ....|E-4 3F.7 ....|E-4 2F.7 ....
....|..|C-4 LF.A ....|E-4 3F.A ....|E-4 2F.A ....
 E-4|..|C-4 AF.F ....|E-4 3F.F ....|E-4 2C.F ....
 B-3|..|B-1 2A.F ....|A-3 3F.7 ....|A-3 2F.7 ....
....|..|C-4 LF.A ....|A-3 3F.A ....|A-3 2F.A ....
 A-3|..|C-4 AF.F ....|A-3 3F.F ....|A-3 2C.F ....
 B-3|..|B-1 2A.F ....|--- .... ....|--- .F.. ....
....|..|C-4 LF.7 ....|E-4 3F.7 ....|E-4 2F.7 ....
....|..|C-4 AF.A ....|E-4 3F.A ....|E-4 2F.A ....
 A-3|..|C-4 LF.F ....|A-3 3F.F ....|A-3 2C.F ....
....|..|C-4 LF.7 ....|A-3 3F.7 ....|A-3 2F.7 ....
....|..|C-4 AF.A ....|A-3 3F.A ....|A-3 2F.A ....
 E-4|..|C-4 LF.F ....|E-3 3F.F ....|E-3 2C.F ....
....|..|R-- .... ....|--- .... ....|--- .... ....
....|..|C-4 AF.7 ....|E-4 3F.7 ....|E-4 2F.7 ....
....|..|B-1 2F.7 ....|A-3 3F.A ....|A-3 2F.A ....
 A-3|..|C-5 VF.F ....|A-3 3F.F ....|A-3 2C.F ....
 B-3|..|B-1 2A.F ....|A-3 3F.7 ....|A-3 2F.7 ....
....|..|B-1 2F.7 ....|E-3 3F.A ....|E-3 2F.A ....
 E-4|..|C-4 LF.F ....|E-3 3F.F ....|E-3 2C.F ....
....|..|R-- .... ....|--- .... ....|--- .... ....
....|..|C-4 LF.7 ....|A-3 3F.7 ....|A-3 2F.7 ....
....|..|C-5 VF.A ....|A-3 3F.A ....|A-3 2F.A ....
 A-3|..|C-4 AF.F ....|A-3 3F.F ....|A-3 2C.F ....
 A-3|..|A-1 2A.F ....|E-3 3F.7 ....|E-3 2F.7 ....
....|..|C-4 LF.A ....|E-3 3F.A ....|E-3 2F.A ....
 E-4|..|C-4 AF.F ....|E-3 3F.F ....|E-3 2C.F ....
 A-3|..|A-1 2A.F ....|--- .... ....|--- .F.. ....
....|..|C-5 VF.7 ....|A-3 3F.7 ....|A-3 2F.7 ....
....|..|B-1 2F.7 ....|A-3 3F.A ....|A-3 2F.A ....
 D-4|..|C-4 LF.F ....|D-4 3F.F ....|D-4 2C.F ....
....|..|C-4 LF.7 ....|E-3 3F.7 ....|E-3 2F.7 ....
....|..|C-4 AF.A ....|E-3 3F.A ....|E-3 2F.A ....
 G-4|..|C-4 LF.F ....|G-3 3F.F ....|G-3 2C.F ....
....|..|R-- .... ....|--- .... ....|--- .... ....
....|..|C-4 AF.7 ....|A-3 3F.7 ....|A-3 2F.7 ....
....|..|A-1 2F.7 ....|D-4 3F.A ....|D-4 2F.A ....
 D-4|..|C-4 LF.F ....|D-4 3F.F ....|D-4 2C.F ....
....|..|C-4 AF.7 ....|E-3 3F.7 ....|E-3 2F.7 ....
....|..|A-1 2F.7 ....|G-3 3F.A ....|G-3 2F.A ....
 G-4|..|C-4 LF.F ....|G-3 3F.F ....|G-3 2C.F ....
....|..|R-- .... ....|--- .... ....|--- .... ....
....|..|C-4 LF.7 ....|D-4 3F.7 ....|D-4 2F.7 ....
....|..|C-4 LF.A ....|D-4 3F.A ....|D-4 2F.A ....
 G-4|..|C-5 VF.F ....|G-3 3F.F ....|G-3 2C.F ....
 A#3|..|A#1 2A.F ....|G-3 3F.7 ....|G-3 2F.7 ....
....|..|C-4 LF.A ....|G-3 3F.A ....|G-3 2F.A ....
 D-4|..|C-4 AF.F ....|D-3 3F.F ....|D-3 2C.F ....
 C-4|..|C-2 2A.F ....|--- .... ....|--- .F.. ....
....|..|C-4 LF.7 ....|D-4 3F.7 ....|D-4 2F.7 ....
....|..|C-5 VF.A ....|G-3 3F.A ....|G-3 2F.A ....
 G-4|..|A#1 2F.A ....|G-3 3F.F ....|G-3 2C.F ....
....|..|C-4 LF.7 ....|G-3 3F.7 ....|G-3 2F.7 ....
....|..|C-4 AF.A ....|D-3 3F.A ....|D-3 2F.A ....
 A-3|..|C-2 2F.A ....|A-3 3F.F ....|A-3 2C.F ....
 D-4|..|--- .... ....|D-3 3F.F ....|D-3 2C.F ....
 G-4|..|C-5 VF.7 ....|G-3 3F.F ....|G-3 2C.F ....
 B-4|..|A#1 2F.7 ....|B-2 3F.F ....|B-2 2A.F ....
 F#4|..|C-4 AF.F ....|F#3 3F.F ....|F#3 2C.F ....
 B-3|..|B-1 2A.F ....|D-3 3F.7 ....|D-3 2F.7 ....
....|..|C-2 2F.7 ....|A-3 3F.A ....|A-3 2F.A ....
 B-4|..|C-4 AF.F ....|B-2 3F.F ....|B-2 2A.F ....
 B-3|..|B-1 2A.F ....|G-3 3F.A ....|G-3 2F.A ....
....|..|R-- .... ....|G-3 3F.7 ....|G-3 2F.7 ....
....|..|C-4 AF.A ....|F#3 3F.A ....|F#3 2F.A ....
 F#4|..|C-4 LF.F ....|F#3 3F.F ....|F#3 2C.F ....
....|..|R-- .... ....|A-3 3F.7 ....|A-3 2F.7 ....
....|..|C-4 AF.A ....|D-3 3F.7 ....|D-3 2F.7 ....
 B-4|..|C-4 LF.F ....|B-2 3F.F ....|B-2 2A.F ....
....|..|R-- .... ....|B-2 3F.7 ....|B-2 2F.7 ....
....|..|C-4 AF.7 ....|F#3 3F.7 ....|F#3 2F.7 ....
....|..|B-1 2F.7 ....|F#3 3F.A ....|F#3 2F.A ....
 F#4|..|C-5 VF.F ....|F#3 3F.F ....|F#3 2C.F ....
 B-3|..|B-1 2A.F ....|B-2 3F.7 ....|B-2 2F.7 ....
....|..|B-1 2F.7 ....|B-2 3F.A ....|B-2 2F.A ....
 B-4|..|C-4 LF.F ....|B-2 3F.F ....|B-2 2A.F ....
....|..|R-- .... ....|--- .... ....|--- .... ....
....|..|C-4 LF.7 ....|F#3 3F.7 ....|F#3 2F.7 ....
....|..|C-5 VF.A ....|F#3 3F.A ....|F#3 2F.A ....
 F#4|..|C-4 AF.F ....|F#3 3F.F ....|F#3 2C.F ....
 A-3|..|A-1 2A.F ....|B-2 3F.7 ....|B-2 2F.7 ....
....|..|C-4 LF.A ....|B-2 3F.A ....|B-2 2F.A ....
 B-4|..|C-4 AF.F ....|B-2 3F.F ....|B-2 2A.F ....
 A-3|..|A-1 2A.F ....|--- .... ....|--- .F.. ....
....|..|C-5 VF.7 ....|F#3 3F.7 ....|F#3 2F.7 ....
....|..|B-1 2F.7 ....|F#3 3F.A ....|F#3 2F.A ....
 F#4|..|C-4 LF.F ....|F#3 3F.F ....|F#3 2C.F ....
....|..|C-4 LF.7 ....|B-2 3F.7 ....|B-2 2F.7 ....
....|..|C-4 AF.A ....|B-2 3F.A ....|B-2 2F.A ....
 B-4|..|C-4 LF.F ....|B-2 3F.F ....|B-2 2A.F ....
....|..|R-- .... ....|--- .... ....|--- .... ....
....|..|C-4 AF.7 ....|F#3 3F.7 ....|F#3 2F.7 ....
....|..|A-1 2F.7 ....|F#3 3F.A ....|F#3 2F.A ....
 F#4|..|C-4 LF.F ....|F#3 3F.F ....|F#3 2C.F ....
....|..|C-4 AF.7 ....|B-2 3F.7 ....|B-2 2F.7 ....
....|..|A-1 2F.7 ....|B-2 3F.A ....|B-2 2F.A ....
 B-4|..|C-4 LF.F ....|B-2 3F.F ....|B-2 2A.F ....
....|..|R-- .... ....|--- .... ....|--- .... ....
....|..|C-4 LF.7 ....|F#3 3F.7 ....|F#3 2F.7 ....
....|..|C-4 LF.A ....|F#3 3F.A ....|F#3 2F.A ....
 F#4|..|C-5 VF.F ....|F#3 3F.F ....|F#3 2C.F ....
....|..|C-4 LF.7 ....|B-2 3F.7 ....|B-2 2F.7 ....
....|..|C-4 LF.A ....|B-2 3F.A ....|B-2 2F.A ....
 B-4|..|C-4 LF.F ....|B-2 3F.F ....|B-2 2A.F ....
....|..|R-- .... ....|--- .... ....|--- .... ....
....|..|C-4 LF.7 ....|F#3 3F.7 ....|F#3 2F.7 ....
....|..|C-5 VF.A ....|F#3 3F.A ....|F#3 2F.A ....
 F#4|..|C-4 LF.F ....|F#3 3F.F ....|F#3 2C.F ....
....|..|C-4 LF.7 ....|B-2 3F.7 ....|B-2 2F.7 ....
....|..|C-4 LF.A ....|B-2 3F.A ....|B-2 2F.A ....

[Pattern38]
 B-4|..|C-4 LF.F ....|B-2 3F.F ....|B-2 2A.F ....
....|..|R-- .... ....|--- .... ....|--- .... ....
....|..|C-5 VF.7 ....|F#3 3F.7 ....|F#3 2F.7 ....
....|..|C-4 LF.A ....|F#3 3F.A ....|F#3 2F.A ....
 F#4|..|C-4 AF.F ....|F#3 3F.F ....|F#3 2C.F ....
 B-3|..|B-1 2A.F ....|B-2 3F.7 ....|B-2 2F.7 ....
....|..|C-4 LF.A ....|B-2 3F.A ....|B-2 2F.A ....
 B-4|..|C-4 AF.F ....|B-2 3F.F ....|B-2 2A.F ....
 B-3|..|B-1 2A.F ....|--- .... ....|--- .... ....
....|..|C-4 LF.7 ....|F#3 3F.7 ....|F#3 2F.7 ....
....|..|C-4 AF.A ....|F#3 3F.A ....|F#3 2F.A ....
 G-4|..|C-4 LF.F ....|G-3 3F.F ....|G-3 2C.F ....
....|..|C-4 LF.7 ....|B-2 3F.7 ....|B-2 2F.7 ....
....|..|C-4 AF.A ....|B-2 3F.A ....|B-2 2F.A ....
 B-4|..|C-4 LF.F ....|B-2 3F.F ....|B-2 2A.F ....
....|..|R-- .... ....|--- .... ....|--- .... ....
....|..|C-4 AF.7 ....|F#3 3F.7 ....|F#3 2F.7 ....
....|..|B-1 2F.7 ....|G-3 3F.A ....|G-3 2F.A ....
 F#4|..|C-5 VF.F ....|F#3 3F.F ....|F#3 2C.F ....
 B-3|..|B-1 2A.F ....|B-2 3F.7 ....|B-2 2F.7 ....
....|..|B-1 2F.7 ....|B-2 3F.A ....|B-2 2F.A ....
 B-4|..|C-4 LF.F ....|B-2 3F.F ....|B-2 2A.F ....
....|..|R-- .... ....|--- .... ....|--- .... ....
....|..|C-4 LF.7 ....|G-3 3F.7 ....|G-3 2F.7 ....
....|..|C-5 VF.A ....|F#3 3F.A ....|F#3 2F.A ....
 G-4|..|C-4 AF.F ....|G-3 3F.F ....|G-3 2C.F ....
 A-3|..|A-1 2A.F ....|B-2 3F.7 ....|B-2 2F.7 ....
....|..|C-4 LF.A ....|B-2 3F.A ....|B-2 2F.A ....
 B-4|..|C-4 AF.F ....|B-2 3F.F ....|B-2 2A.F ....
 A-3|..|A-1 2A.F ....|--- .... ....|--- .F.. ....
....|..|C-5 VF.7 ....|F#3 3F.7 ....|F#3 2F.7 ....
....|..|B-1 2F.7 ....|G-3 3F.A ....|G-3 2F.A ....
 F#3|..|C-4 LF.F ....|F#4 3F.F ....|F#4 2C.F ....
....|..|C-4 LF.7 ....|B-2 3F.7 ....|B-2 2F.7 ....
....|..|C-4 AF.A ....|B-2 3F.A ....|B-2 2F.A ....
 B-4|..|C-4 LF.F ....|B-3 3F.F ....|B-3 2C.F ....
....|..|R-- .... ....|--- .... ....|--- .... ....
....|..|C-4 AF.7 ....|G-3 3F.7 ....|G-3 2F.7 ....
....|..|A-1 2F.7 ....|F#4 3F.A ....|F#4 2F.A ....
 G-4|..|C-4 LF.F ....|G-4 3F.F ....|G-4 2C.F ....
....|..|C-4 AF.7 ....|B-2 3F.7 ....|B-2 2F.7 ....
....|..|A-1 2F.7 ....|B-3 3F.A ....|B-3 2F.A ....
 B-4|..|C-4 LF.F ....|B-3 3F.F ....|B-3 2C.F ....
....|..|R-- .... ....|--- .... ....|--- .... ....
....|..|C-4 LF.7 ....|F#4 3F.7 ....|F#4 2F.7 ....
....|..|C-4 LF.A ....|G-4 3F.A ....|G-4 2F.A ....
 F#3|..|C-5 VF.F ....|F#5 3F.F ....|F#5 2C.F ....
 A#3|..|A#1 2A.F ....|B-3 3F.7 ....|B-3 2F.7 ....
....|..|C-4 LF.A ....|B-3 3F.A ....|B-3 2F.A ....
 B-4|..|C-4 AF.F ....|B-4 3F.F ....|B-4 2C.F ....
 C-4|..|C-2 2A.F ....|--- .... ....|--- .F.. ....
....|..|C-4 LF.7 ....|G-4 3F.7 ....|G-4 2F.7 ....
....|..|C-5 VF.A ....|F#5 3F.A ....|F#5 2F.A ....
 G-4|..|A#1 2F.A ....|G-5 3F.F ....|G-5 2C.F ....
....|..|C-4 LF.7 ....|B-3 3F.7 ....|B-3 2F.7 ....
....|..|C-4 AF.A ....|B-4 3F.A ....|B-4 2F.A ....
 B-4|..|C-2 2F.A ....|B-4 3F.F ....|B-4 2C.F ....
....|..|--- .... ....|--- .... ....|--- .... ....
....|..|C-5 VF.7 ....|F#5 3F.7 ....|F#5 2F.7 ....
....|..|A#1 2F.7 ....|G-5 3F.A ....|G-5 2F.A ....
 B-4|..|C-4 AF.F ....|B-3 3F.F ....|B-3 2C.F ....
 B-3|..|B-1 2A.F ....|B-4 3F.7 ....|B-4 2F.7 ....
....|..|C-2 2F.7 ....|B-4 3F.A ....|B-4 2F.A ....
 F#4|..|C-4 AF.F ....|F#3 3F.F ....|F#3 2C.F ....
 B-3|..|B-1 2A.F ....|--- .... ....|--- .F.. ....
....|..|R-- .... ....|G-5 3F.7 ....|G-5 2F.7 ....
....|..|C-4 AF.A ....|B-3 3F.A ....|B-3 2F.A ....
 B-4|..|C-4 LF.F ....|B-3 3F.F ....|B-3 2C.F ....
....|..|R-- .... ....|B-4 3F.7 ....|B-4 2F.7 ....
....|..|C-4 AF.A ....|F#3 3F.A ....|F#3 2F.A ....
 F#4|..|C-4 LF.F ....|F#3 3F.F ....|F#3 2C.F ....
....|..|R-- .... ....|--- .... ....|--- .... ....
....|..|C-4 AF.7 ....|B-3 3F.7 ....|B-3 2F.7 ....
....|..|B-1 2F.7 ....|B-3 3F.A ....|B-3 2F.A ....
 B-4|..|C-5 VF.F ....|B-3 3F.F ....|B-3 2C.F ....
 B-3|..|B-1 2A.F ....|F#3 3F.7 ....|F#3 2F.7 ....
....|..|B-1 2F.7 ....|F#3 3F.A ....|F#3 2F.A ....
 F#4|..|C-4 LF.F ....|F#3 3F.F ....|F#3 2C.F ....
....|..|R-- .... ....|--- .... ....|--- .... ....
....|..|C-4 LF.7 ....|B-3 3F.7 ....|B-3 2F.7 ....
....|..|C-5 VF.A ....|B-3 3F.A ....|B-3 2F.A ....
 F#4|..|C-4 AF.F ....|F#3 3F.F ....|F#3 2C.F ....
 A-3|..|A-1 2A.F ....|F#3 3F.7 ....|F#3 2F.7 ....
....|..|C-4 LF.A ....|F#3 3F.A ....|F#3 2F.A ....
 B-4|..|C-4 AF.F ....|B-2 3F.F ....|B-2 2A.F ....
 A-3|..|A-1 2A.F ....|--- .... ....|--- .F.. ....
....|..|C-5 VF.7 ....|B-3 3F.7 ....|B-3 2F.7 ....
....|..|B-1 2F.7 ....|F#3 3F.A ....|F#3 2F.A ....
 F#4|..|C-4 LF.F ....|F#3 3F.F ....|F#3 2C.F ....
....|..|C-4 LF.7 ....|F#3 3F.7 ....|F#3 2F.7 ....
....|..|C-4 AF.A ....|B-2 3F.A ....|B-2 2F.A ....
 B-4|..|C-4 LF.F ....|B-2 3F.F ....|B-2 2A.F ....
....|..|R-- .... ....|--- .... ....|--- .... ....
....|..|C-4 AF.7 ....|F#3 3F.7 ....|F#3 2F.7 ....
....|..|A-1 2F.7 ....|F#3 3F.A ....|F#3 2F.A ....
 F#4|..|C-4 LF.F ....|F#3 3F.F ....|F#3 2C.F ....
....|..|C-4 AF.7 ....|B-2 3F.7 ....|B-2 2F.7 ....
....|..|A-1 2F.7 ....|B-2 3F.A ....|B-2 2F.A ....
 B-4|..|C-4 LF.F ....|B-2 3F.F ....|B-2 2A.F ....
....|..|R-- .... ....|--- .... ....|--- .... ....
....|..|C-4 LF.7 ....|F#3 3F.7 ....|F#3 2F.7 ....
....|..|C-4 LF.A ....|F#3 3F.A ....|F#3 2F.A ....
 G-4|..|C-5 VF.F ....|G-3 3F.F ....|G-3 2C.F ....
....|..|C-4 LF.7 ....|B-2 3F.7 ....|B-2 2F.7 ....
....|..|C-4 LF.A ....|B-2 3F.A ....|B-2 2F.A ....
 B-4|..|C-4 LF.F ....|B-2 3F.F ....|B-2 2A.F ....
....|..|R-- .... ....|--- .... ....|--- .... ....
....|..|C-4 LF.7 ....|F#3 3F.7 ....|F#3 2F.7 ....
....|..|C-5 VF.A ....|G-3 3F.A ....|G-3 2F.A ....
 G-4|..|C-4 LF.F ....|G-3 3F.F ....|G-3 2C.F ....
....|..|C-4 LF.7 ....|B-2 3F.7 ....|B-2 2F.7 ....
....|..|C-4 LF.A ....|B-2 3F.A ....|B-2 2F.A ....
 B-4|..|C-4 LF.F ....|B-2 3F.F ....|B-2 2A.F ....
....|..|R-- .... ....|--- .... ....|--- .... ....
....|..|C-5 VF.7 ....|G-3 3F.7 ....|G-3 2F.7 ....
....|..|C-4 LF.A ....|G-3 3F.A ....|G-3 2F.A ....
 G-4|..|C-4 AF.F ....|G-3 3F.F ....|G-3 2C.F ....
 B-3|..|B-1 2A.F ....|B-2 3F.7 ....|B-2 2F.7 ....
....|..|C-4 LF.A ....|B-2 3F.A ....|B-2 2F.A ....
 B-4|..|C-4 AF.F ....|B-2 3F.F ....|B-2 2A.F ....
 B-3|..|B-1 2A.F ....|--- .... ....|--- .... ....
....|..|C-4 LF.7 ....|G-3 3F.7 ....|G-3 2F.7 ....
....|..|C-4 AF.A ....|G-3 3F.A ....|G-3 2F.A ....
 E-4|..|C-4 LF.F ....|E-3 3F.F ....|E-3 2C.F ....
....|..|C-4 LF.7 ....|B-2 3F.7 ....|B-2 2F.7 ....
....|..|C-4 AF.A ....|B-2 3F.A ....|B-2 2F.A ....
 B-4|..|C-4 LF.F ....|B-2 3F.F ....|B-2 2A.F ....
....|..|R-- .... ....|--- .... ....|--- .... ....

[Pattern39]
....|..|C-4 AF.7 ....|G-3 3F.7 ....|G-3 2F.7 ....
....|..|B-1 2F.7 ....|E-3 3F.A ....|E-3 2F.A ....
 E-4|..|C-5 VF.F ....|E-3 3F.F ....|E-3 2C.F ....
 B-3|..|B-1 2A.F ....|B-2 3F.7 ....|B-2 2F.7 ....
....|..|B-1 2F.7 ....|B-2 3F.A ....|B-2 2F.A ....
 B-4|..|C-4 LF.F ....|B-2 3F.F ....|B-2 2A.F ....
....|..|R-- .... ....|--- .... ....|--- .... ....
....|..|C-4 LF.7 ....|E-3 3F.7 ....|E-3 2F.7 ....
....|..|C-5 VF.A ....|E-3 3F.A ....|E-3 2F.A ....
 E-4|..|C-4 AF.F ....|E-3 3F.F ....|E-3 2C.F ....
 A-3|..|A-1 2A.F ....|B-2 3F.7 ....|B-2 2F.7 ....
....|..|C-4 LF.A ....|B-2 3F.A ....|B-2 2F.A ....
 B-4|..|C-4 AF.F ....|B-2 3F.F ....|B-2 2A.F ....
 A-3|..|A-1 2A.F ....|--- .... ....|--- .F.. ....
....|..|C-5 VF.7 ....|E-3 3F.7 ....|E-3 2F.7 ....
....|..|B-1 2F.7 ....|E-3 3F.A ....|E-3 2F.A ....
 F#4|..|C-4 LF.F ....|F#3 3F.F ....|F#3 2C.F ....
....|..|C-4 LF.7 ....|B-2 3F.7 ....|B-2 2F.7 ....
....|..|C-4 AF.A ....|B-2 3F.A ....|B-2 2F.A ....
 B-4|..|C-4 LF.F ....|B-2 3F.F ....|B-2 2A.F ....
....|..|R-- .... ....|--- .... ....|--- .... ....
....|..|C-4 AF.7 ....|E-3 3F.7 ....|E-3 2F.7 ....
....|..|A-1 2F.7 ....|F#3 3F.A ....|F#3 2F.A ....
 F#4|..|C-4 LF.F ....|F#3 3F.F ....|F#3 2C.F ....
....|..|C-4 AF.7 ....|B-2 3F.7 ....|B-2 2F.7 ....
....|..|A-1 2F.7 ....|B-2 3F.A ....|B-2 2F.A ....
 B-4|..|C-4 LF.F ....|B-2 3F.F ....|B-2 2A.F ....
....|..|R-- .... ....|--- .... ....|--- .... ....
....|..|C-4 LF.7 ....|F#3 3F.7 ....|F#3 2F.7 ....
....|..|C-4 LF.A ....|F#3 3F.A ....|F#3 2F.A ....
 B-4|..|C-5 VF.F ....|B-3 3F.F ....|B-3 2C.F ....
 A#3|..|A#1 2A.F ....|B-2 3F.7 ....|B-2 2F.7 ....
....|..|C-4 LF.A ....|B-2 3F.A ....|B-2 2F.A ....
 F#4|..|C-4 AF.F ....|F#3 3F.F ....|F#3 2C.F ....
 C-4|..|C-2 2A.F ....|--- .... ....|--- .F.. ....
....|..|C-4 LF.7 ....|F#3 3F.7 ....|F#3 2F.7 ....
....|..|C-5 VF.A ....|B-3 3F.A ....|B-3 2F.A ....
 B-4|..|A#1 2F.A ....|B-3 3F.F ....|B-3 2C.F ....
....|..|C-4 LF.7 ....|B-2 3F.7 ....|B-2 2F.7 ....
....|..|C-4 AF.A ....|F#3 3F.A ....|F#3 2F.A ....
 F#4|..|C-2 2F.A ....|F#3 3F.F ....|F#3 2C.F ....
....|..|--- .... ....|--- .... ....|--- .... ....
....|..|C-5 VF.7 ....|B-3 3F.7 ....|B-3 2F.7 ....
....|..|A#1 2F.7 ....|B-3 3F.A ....|B-3 2F.A ....
 C-3|..|C-4 AF.F ....|C-4 3F.F ....|C-4 2C.F ....
 B-3|..|B-1 2A.F ....|F#3 3F.7 ....|F#3 2F.7 ....
....|..|C-2 2F.7 ....|F#3 3F.A ....|F#3 2F.A ....
 F#4|..|C-4 AF.F ....|F#3 3F.F ....|F#3 2C.F ....
 B-3|..|B-1 2A.F ....|--- .... ....|--- .F.. ....
....|..|R-- .... ....|B-3 3F.7 ....|B-3 2F.7 ....
....|..|C-4 AF.A ....|C-4 3F.A ....|C-4 2F.A ....
 C-3|..|C-4 LF.F ....|C-4 3F.F ....|C-4 2C.F ....
....|..|R-- .... ....|F#3 3F.7 ....|F#3 2F.7 ....
....|..|C-4 AF.A ....|F#3 3F.A ....|F#3 2F.A ....
 F#4|..|C-4 LF.F ....|F#3 3F.F ....|F#3 2C.F ....
....|..|R-- .... ....|--- .... ....|--- .... ....
....|..|C-4 AF.7 ....|C-4 3F.7 ....|C-4 2F.7 ....
....|..|B-1 2F.7 ....|C-4 3F.A ....|C-4 2F.A ....
 C-3|..|C-5 VF.F ....|C-4 3F.F ....|C-4 2C.F ....
 B-3|..|B-1 2A.F ....|F#3 3F.7 ....|F#3 2F.7 ....
....|..|B-1 2F.7 ....|F#3 3F.A ....|F#3 2F.A ....
 F#4|..|C-4 LF.F ....|F#3 3F.F ....|F#3 2C.F ....
....|..|R-- .... ....|--- .... ....|--- .... ....
....|..|C-4 LF.7 ....|C-4 3F.7 ....|C-4 2F.7 ....
....|..|C-5 VF.A ....|C-4 3F.A ....|C-4 2F.A ....
 A-3|..|C-4 AF.F ....|A-3 3F.F ....|A-3 2C.F ....
 A-3|..|A-1 2A.F ....|F#3 3F.7 ....|F#3 2F.7 ....
....|..|C-4 LF.A ....|F#3 3F.A ....|F#3 2F.A ....
 E-4|..|C-4 AF.F ....|E-3 3F.F ....|E-3 2C.F ....
 A-3|..|A-1 2A.F ....|--- .... ....|--- .F.. ....
....|..|C-5 VF.7 ....|C-4 3F.7 ....|C-4 2F.7 ....
....|..|B-1 2F.7 ....|A-3 3F.A ....|A-3 2F.A ....
 A-3|..|C-4 LF.F ....|A-3 3F.F ....|A-3 2C.F ....
....|..|C-4 LF.7 ....|F#3 3F.7 ....|F#3 2F.7 ....
....|..|C-4 AF.A ....|E-3 3F.A ....|E-3 2F.A ....
 E-4|..|C-4 LF.F ....|E-3 3F.F ....|E-3 2C.F ....
....|..|R-- .... ....|--- .... ....|--- .... ....
....|..|C-4 AF.7 ....|A-3 3F.7 ....|A-3 2F.7 ....
....|..|A-1 2F.7 ....|A-3 3F.A ....|A-3 2F.A ....
 A-3|..|C-4 LF.F ....|A-3 3F.F ....|A-3 2C.F ....
....|..|C-4 AF.7 ....|E-3 3F.7 ....|E-3 2F.7 ....
....|..|A-1 2F.7 ....|E-3 3F.A ....|E-3 2F.A ....
 E-4|..|C-4 LF.F ....|E-3 3F.F ....|E-3 2C.F ....
....|..|R-- .... ....|--- .... ....|--- .... ....
....|..|C-4 LF.7 ....|A-3 3F.7 ....|A-3 2F.7 ....
....|..|C-4 LF.A ....|A-3 3F.A ....|A-3 2F.A ....
 B-4|..|C-5 VF.F ....|B-3 3F.F ....|B-3 2C.F ....
....|..|C-4 LF.7 ....|E-3 3F.7 ....|E-3 2F.7 ....
....|..|C-4 LF.A ....|E-3 3F.A ....|E-3 2F.A ....
 F#4|..|C-4 LF.F ....|F#3 3F.F ....|F#3 2C.F ....
....|..|R-- .... ....|--- .... ....|--- .... ....
....|..|C-4 LF.7 ....|A-3 3F.7 ....|A-3 2F.7 ....
....|..|C-5 VF.A ....|B-3 3F.A ....|B-3 2F.A ....
 B-4|..|C-4 LF.F ....|B-3 3F.F ....|B-3 2C.F ....
....|..|C-4 LF.7 ....|E-3 3F.7 ....|E-3 2F.7 ....
....|..|C-4 LF.A ....|F#3 3F.A ....|F#3 2F.A ....
 F#4|..|C-4 LF.F ....|F#3 3F.F ....|F#3 2C.F ....
....|..|R-- .... ....|--- .... ....|--- .... ....
....|..|C-5 VF.7 ....|B-3 3F.7 ....|B-3 2F.7 ....
....|..|C-4 LF.A ....|B-3 3F.A ....|B-3 2F.A ....
 B-4|..|C-4 AF.F ....|B-3 3F.F ....|B-3 2C.F ....
 B-3|..|B-1 2A.F ....|F#3 3F.7 ....|F#3 2F.7 ....
....|..|C-4 LF.A ....|F#3 3F.A ....|F#3 2F.A ....
 F#4|..|C-4 AF.F ....|F#3 3F.F ....|F#3 2C.F ....
 B-3|..|B-1 2A.F ....|--- .... ....|--- .F.. ....
....|..|C-4 LF.7 ....|B-3 3F.7 ....|B-3 2F.7 ....
....|..|C-4 AF.A ....|B-3 3F.A ....|B-3 2F.A ....
 F#3|..|C-4 LF.F ....|F#4 3F.F ....|F#4 2C.F ....
....|..|C-4 LF.7 ....|F#3 3F.7 ....|F#3 2F.7 ....
....|..|C-4 AF.A ....|F#3 3F.A ....|F#3 2F.A ....
 B-4|..|C-4 LF.F ....|B-3 3F.F ....|B-3 2C.F ....
....|..|R-- .... ....|--- .... ....|--- .... ....
....|..|C-4 AF.7 ....|B-3 3F.7 ....|B-3 2F.7 ....
....|..|B-1 2F.7 ....|F#4 3F.A ....|F#4 2F.A ....
 F#3|..|C-5 VF.F ....|F#4 3F.F ....|F#4 2C.F ....
 B-3|..|B-1 2A.F ....|F#3 3F.7 ....|F#3 2F.7 ....
....|..|B-1 2F.7 ....|B-3 3F.A ....|B-3 2F.A ....
 B-4|..|C-4 LF.F ....|B-3 3F.F ....|B-3 2C.F ....
....|..|R-- .... ....|--- .... ....|--- .... ....
....|..|C-4 LF.7 ....|F#4 3F.7 ....|F#4 2F.7 ....
....|..|C-5 VF.A ....|F#4 3F.A ....|F#4 2F.A ....
 F#3|..|C-4 AF.F ....|F#4 3F.F ....|F#4 2C.F ....
 A-3|..|A-1 2A.F ....|B-3 3F.7 ....|B-3 2F.7 ....
....|..|C-4 LF.A ....|B-3 3F.A ....|B-3 2F.A ....
 B-4|..|C-4 AF.F ....|B-3 3F.F ....|B-3 2C.F ....
 A-3|..|A-1 2A.F ....|--- .... ....|--- .F.. ....
....|..|C-5 VF.7 ....|F#4 3F.7 ....|F#4 2F.7 ....
....|..|B-1 2F.7 ....|F#4 3F.A ....|F#4 2F.A ....

[Pattern40]
 G-4|..|C-4 LF.F ....|G-4 3F.F ....|G-4 2C.F ....
....|..|C-4 LF.7 ....|B-3 3F.7 ....|B-3 2F.7 ....
....|..|C-4 AF.A ....|B-3 3F.A ....|B-3 2F.A ....
 B-4|..|C-4 LF.F ....|B-3 3F.F ....|B-3 2C.F ....
....|..|R-- .... ....|--- .... ....|--- .... ....
....|..|C-4 AF.7 ....|F#4 3F.7 ....|F#4 2F.7 ....
....|..|A-1 2F.7 ....|G-4 3F.A ....|G-4 2F.A ....
 G-4|..|C-4 LF.F ....|G-4 3F.F ....|G-4 2C.F ....
....|..|C-4 AF.7 ....|B-3 3F.7 ....|B-3 2F.7 ....
....|..|A-1 2F.7 ....|B-3 3F.A ....|B-3 2F.A ....
 B-4|..|C-4 LF.F ....|B-3 3F.F ....|B-3 2C.F ....
....|..|R-- .... ....|--- .... ....|--- .... ....
....|..|C-4 LF.7 ....|G-4 3F.7 ....|G-4 2F.7 ....
....|..|C-4 LF.A ....|G-4 3F.A ....|G-4 2F.A ....
 E-4|..|C-5 VF.F ....|E-4 3F.F ....|E-4 2C.F ....
 A#3|..|A#1 2A.F ....|B-3 3F.7 ....|B-3 2F.7 ....
....|..|C-4 LF.A ....|B-3 3F.A ....|B-3 2F.A ....
 B-4|..|C-4 AF.F ....|B-3 3F.F ....|B-3 2C.F ....
 C-4|..|C-2 2A.F ....|--- .... ....|--- .F.. ....
....|..|C-4 LF.7 ....|G-4 3F.7 ....|G-4 2F.7 ....
....|..|C-5 VF.A ....|E-4 3F.A ....|E-4 2F.A ....
 E-4|..|A#1 2F.A ....|E-4 3F.F ....|E-4 2C.F ....
....|..|C-4 LF.7 ....|B-3 3F.7 ....|B-3 2F.7 ....
....|..|C-4 AF.A ....|B-3 3F.A ....|B-3 2F.A ....
 B-4|..|C-2 2F.A ....|B-3 3F.F ....|B-3 2C.F ....
....|..|--- .... ....|--- .... ....|--- .... ....
....|..|C-5 VF.7 ....|E-4 3F.7 ....|E-4 2F.7 ....
....|..|A#1 2F.7 ....|E-4 3F.A ....|E-4 2F.A ....
 F#3|..|C-4 AF.F ....|F#4 3F.F ....|F#4 2C.F ....
 B-3|..|B-1 2A.F ....|B-3 3F.7 ....|B-3 2F.7 ....
....|..|C-2 2F.7 ....|B-3 3F.A ....|B-3 2F.A ....
 B-4|..|C-4 AF.F ....|B-3 3F.F ....|B-3 2C.F ....
 B-3|..|B-1 2A.F ....|--- .... ....|--- .... ....
....|..|R-- .... ....|E-4 3F.7 ....|E-4 2F.7 ....
....|..|C-4 AF.A ....|F#4 3F.A ....|F#4 2F.A ....
 F#3|..|C-4 LF.F ....|F#4 3F.F ....|F#4 2C.F ....
....|..|R-- .... ....|B-3 3F.7 ....|B-3 2F.7 ....
....|..|C-4 AF.A ....|B-3 3F.A ....|B-3 2F.A ....
 B-4|..|C-4 LF.F ....|B-3 3F.F ....|B-3 2C.F ....
....|..|R-- .... ....|--- .... ....|--- .... ....
....|..|C-4 AF.7 ....|F#4 3F.7 ....|F#4 2F.7 ....
....|..|B-1 2F.7 ....|F#4 3F.A ....|F#4 2F.A ....
 F#3|..|C-5 VF.F ....|F#4 3F.F ....|F#4 2C.F ....
 B-3|..|B-1 2A.F ....|B-3 3F.7 ....|B-3 2F.7 ....
....|..|B-1 2F.7 ....|B-3 3F.A ....|B-3 2F.A ....
 B-4|..|C-4 LF.F ....|B-3 3F.F ....|B-3 2C.F ....
....|..|R-- .... ....|--- .... ....|--- .... ....
....|..|C-4 LF.7 ....|F#4 3F.7 ....|F#4 2F.7 ....
....|..|C-5 VF.A ....|F#4 3F.A ....|F#4 2F.A ....
 B-4|..|C-4 AF.F ....|B-3 3F.F ....|B-3 2C.F ....
 A-3|..|A-1 2A.F ....|B-3 3F.7 ....|B-3 2F.7 ....
....|..|C-4 LF.A ....|B-3 3F.A ....|B-3 2F.A ....
 F#4|..|C-4 AF.F ....|F#3 3F.F ....|F#3 2C.F ....
 A-3|..|A-1 2A.F ....|--- .... ....|--- .F.. ....
....|..|C-5 VF.7 ....|F#4 3F.7 ....|F#4 2F.7 ....
....|..|B-1 2F.7 ....|B-3 3F.A ....|B-3 2F.A ....
 B-4|..|C-4 LF.F ....|B-3 3F.F ....|B-3 2C.F ....
....|..|C-4 LF.7 ....|B-3 3F.7 ....|B-3 2F.7 ....
....|..|C-4 AF.A ....|F#3 3F.A ....|F#3 2F.A ....
 F#4|..|C-4 LF.F ....|F#3 3F.F ....|F#3 2C.F ....
....|..|R-- .... ....|--- .... ....|--- .... ....
....|..|C-4 AF.7 ....|B-3 3F.7 ....|B-3 2F.7 ....
....|..|A-1 2F.7 ....|B-3 3F.A ....|B-3 2F.A ....
 B-4|..|C-4 LF.F ....|B-3 3F.F ....|B-3 2C.F ....
....|..|C-4 AF.7 ....|F#3 3F.7 ....|F#3 2F.7 ....
....|..|A-1 2F.7 ....|F#3 3F.A ....|F#3 2F.A ....
 F#4|..|C-4 LF.F ....|F#3 3F.F ....|F#3 2C.F ....
....|..|R-- .... ....|--- .... ....|--- .... ....
....|..|C-4 LF.7 ....|B-3 3F.7 ....|B-3 2F.7 ....
....|..|C-4 LF.A ....|B-3 3F.A ....|B-3 2F.A ....
 E-4|..|C-5 VF.F ....|E-4 3F.F ....|E-4 2C.F ....
....|..|C-4 LF.7 ....|F#3 3F.7 ....|F#3 2F.7 ....
....|..|C-4 LF.A ....|F#3 3F.A ....|F#3 2F.A ....
 A-3|..|C-4 LF.F ....|A-3 3F.F ....|A-3 2C.F ....
....|..|R-- .... ....|--- .... ....|--- .... ....
....|..|C-4 LF.7 ....|B-3 3F.7 ....|B-3 2F.7 ....
....|..|C-5 VF.A ....|E-4 3F.A ....|E-4 2F.A ....
 E-4|..|C-4 LF.F ....|E-4 3F.F ....|E-4 2C.F ....
....|..|C-4 LF.7 ....|F#3 3F.7 ....|F#3 2F.7 ....
....|..|C-4 LF.A ....|A-3 3F.A ....|A-3 2F.A ....
 A-3|..|C-4 LF.F ....|A-3 3F.F ....|A-3 2C.F ....
....|..|R-- .... ....|--- .... ....|--- .... ....
....|..|C-5 VF.7 ....|E-4 3F.7 ....|E-4 2F.7 ....
....|..|C-4 LF.A ....|E-4 3F.A ....|E-4 2F.A ....
 E-4|..|C-4 AF.F ....|E-4 3F.F ....|E-4 2C.F ....
 B-3|..|B-1 2A.F ....|A-3 3F.7 ....|A-3 2F.7 ....
....|..|C-4 LF.A ....|A-3 3F.A ....|A-3 2F.A ....
 A-3|..|C-4 AF.F ....|A-3 3F.F ....|A-3 2C.F ....
 B-3|..|B-1 2A.F ....|--- .... ....|--- .F.. ....
....|..|C-4 LF.7 ....|E-4 3F.7 ....|E-4 2F.7 ....
....|..|C-4 AF.A ....|E-4 3F.A ....|E-4 2F.A ....
 A-3|..|C-4 LF.F ....|A-3 3F.F ....|A-3 2C.F ....
....|..|C-4 LF.7 ....|A-3 3F.7 ....|A-3 2F.7 ....
....|..|C-4 AF.A ....|A-3 3F.A ....|A-3 2F.A ....
 E-4|..|C-4 LF.F ....|E-3 3F.F ....|E-3 2C.F ....
....|..|R-- .... ....|--- .... ....|--- .... ....
....|..|C-4 AF.7 ....|E-4 3F.7 ....|E-4 2F.7 ....
....|..|B-1 2F.7 ....|A-3 3F.A ....|A-3 2F.A ....
 A-3|..|C-5 VF.F ....|A-3 3F.F ....|A-3 2C.F ....
 B-3|..|B-1 2A.F ....|A-3 3F.7 ....|A-3 2F.7 ....
....|..|B-1 2F.7 ....|E-3 3F.A ....|E-3 2F.A ....
 E-4|..|C-4 LF.F ....|E-3 3F.F ....|E-3 2C.F ....
....|..|R-- .... ....|--- .... ....|--- .... ....
....|..|C-4 LF.7 ....|A-3 3F.7 ....|A-3 2F.7 ....
....|..|C-5 VF.A ....|A-3 3F.A ....|A-3 2F.A ....
 A-3|..|C-4 AF.F ....|A-3 3F.F ....|A-3 2C.F ....
 A-3|..|A-1 2A.F ....|E-3 3F.7 ....|E-3 2F.7 ....
....|..|C-4 LF.A ....|E-3 3F.A ....|E-3 2F.A ....
 E-4|..|C-4 AF.F ....|E-3 3F.F ....|E-3 2C.F ....
 A-3|..|A-1 2A.F ....|--- .... ....|--- .F.. ....
....|..|C-5 VF.7 ....|A-3 3F.7 ....|A-3 2F.7 ....
....|..|B-1 2F.7 ....|A-3 3F.A ....|A-3 2F.A ....
 D-4|..|C-4 LF.F ....|D-4 3F.F ....|D-4 2C.F ....
....|..|C-4 LF.7 ....|E-3 3F.7 ....|E-3 2F.7 ....
....|..|C-4 AF.A ....|E-3 3F.A ....|E-3 2F.A ....
 G-4|..|C-4 LF.F ....|G-3 3F.F ....|G-3 2C.F ....
....|..|R-- .... ....|--- .... ....|--- .... ....
....|..|C-4 AF.7 ....|A-3 3F.7 ....|A-3 2F.7 ....
....|..|A-1 2F.7 ....|D-4 3F.A ....|D-4 2F.A ....
 D-4|..|C-4 LF.F ....|D-4 3F.F ....|D-4 2C.F ....
....|..|C-4 AF.7 ....|E-3 3F.7 ....|E-3 2F.7 ....
....|..|A-1 2F.7 ....|G-3 3F.A ....|G-3 2F.A ....
 G-4|..|C-4 LF.F ....|G-3 3F.F ....|G-3 2C.F ....
....|..|R-- .... ....|--- .... ....|--- .... ....
....|..|C-4 LF.7 ....|D-4 3F.7 ....|D-4 2F.7 ....
....|..|C-4 LF.A ....|D-4 3F.A ....|D-4 2F.A ....
 G-4|..|C-5 VF.F ....|G-3 3F.F ....|G-3 2C.F ....
 A#3|..|A#1 2A.F ....|G-3 3F.7 ....|G-3 2F.7 ....

[Pattern41]
....|..|C-4 LF.A ....|G-3 3F.A ....|G-3 2F.A ....
 D-4|..|C-4 AF.F ....|D-3 3F.F ....|D-3 2C.F ....
 C-4|..|C-2 2A.F ....|--- .... ....|--- .F.. ....
....|..|C-4 LF.7 ....|D-4 3F.7 ....|D-4 2F.7 ....
....|..|C-5 VF.A ....|G-3 3F.A ....|G-3 2F.A ....
 G-4|..|A#1 2F.A ....|G-3 3F.F ....|G-3 2C.F ....
....|..|C-4 LF.7 ....|G-3 3F.7 ....|G-3 2F.7 ....
....|..|C-4 AF.A ....|D-3 3F.A ....|D-3 2F.A ....
 A-3|..|C-2 2F.A ....|A-3 3F.F ....|A-3 2C.F ....
 D-4|..|--- .... ....|D-3 3F.F ....|D-3 2C.F ....
 G-4|..|C-5 VF.7 ....|G-3 3F.F ....|G-3 2C.F ....
 B-4|..|A#1 2F.7 ....|B-2 3F.F ....|B-2 2A.F ....
 F#4|..|C-4 AF.F ....|F#3 3F.F ....|F#3 2C.F ....
 B-3|..|B-1 2A.F ....|D-3 3F.7 ....|D-3 2F.7 ....
....|..|C-2 2F.7 ....|A-3 3F.A ....|A-3 2F.A ....
 B-4|..|C-4 AF.F ....|B-2 3F.F ....|B-2 2A.F ....
 B-3|..|B-1 2A.F ....|G-3 3F.A ....|G-3 2F.A ....
....|..|R-- .... ....|G-3 3F.7 ....|G-3 2F.7 ....
....|..|C-4 AF.A ....|F#3 3F.A ....|F#3 2F.A ....
 F#4|..|C-4 LF.F ....|F#3 3F.F ....|F#3 2C.F ....
....|..|R-- .... ....|A-3 3F.7 ....|A-3 2F.7 ....
....|..|C-4 AF.A ....|D-3 3F.7 ....|D-3 2F.7 ....
 B-4|..|C-4 LF.F ....|B-2 3F.F ....|B-2 2A.F ....
....|..|R-- .... ....|B-2 3F.7 ....|B-2 2F.7 ....
....|..|C-4 AF.7 ....|F#3 3F.7 ....|F#3 2F.7 ....
....|..|B-1 2F.7 ....|F#3 3F.A ....|F#3 2F.A ....
 F#4|..|C-5 VF.F ....|F#3 3F.F ....|F#3 2C.F ....
 B-3|..|B-1 2A.F ....|B-2 3F.7 ....|B-2 2F.7 ....
....|..|B-1 2F.7 ....|B-2 3F.A ....|B-2 2F.A ....
 B-4|..|C-4 LF.F ....|B-2 3F.F ....|B-2 2A.F ....
....|..|R-- .... ....|--- .... ....|--- .... ....
....|..|C-4 LF.7 ....|F#3 3F.7 ....|F#3 2F.7 ....
....|..|C-5 VF.A ....|F#3 3F.A ....|F#3 2F.A ....
 F#4|..|C-4 AF.F ....|F#3 3F.F ....|F#3 2C.F ....
 A-3|..|A-1 2A.F ....|B-2 3F.7 ....|B-2 2F.7 ....
....|..|C-4 LF.A ....|B-2 3F.A ....|B-2 2F.A ....
 B-4|..|C-4 AF.F ....|B-2 3F.F ....|B-2 2A.F ....
 A-3|..|A-1 2A.F ....|--- .... ....|--- .F.. ....
....|..|C-5 VF.7 ....|F#3 3F.7 ....|F#3 2F.7 ....
....|..|B-1 2F.7 ....|F#3 3F.A ....|F#3 2F.A ....
 F#4|..|C-4 LF.F ....|F#3 3F.F ....|F#3 2C.F ....
....|..|C-4 LF.7 ....|B-2 3F.7 ....|B-2 2F.7 ....
....|..|C-4 AF.A ....|B-2 3F.A ....|B-2 2F.A ....
 B-4|..|C-4 LF.F ....|B-2 3F.F ....|B-2 2A.F ....
....|..|R-- .... ....|--- .... ....|--- .... ....
....|..|C-4 AF.7 ....|F#3 3F.7 ....|F#3 2F.7 ....
 F#4|..|C-4 LF.F ....|B-3 3F4F ....|F#3 2C.F ....
 F#4|..|R-- .... ....|F#3 3F.F ....|F#3 2C.F ....
....|..|C-4 AF.7 ....|B-2 3F.7 ....|B-2 2F.7 ....
....|..|A-1 2F.7 ....|B-2 3F.A ....|B-2 2F.A ....
 B-4|..|C-4 LF.F ....|B-2 3F.F ....|B-2 2A.F ....
....|..|R-- .... ....|--- .... ....|--- .... ....
....|..|C-4 LF.7 ....|F#3 3F.7 ....|F#3 2F.7 ....
 F#4|..|C-5 VF.F ....|F#3 3F.F ....|F#3 2C.F ....
....|..|R-- .... ....|--- .... ....|--- .... ....
....|..|C-4 LF.7 ....|B-2 3F.7 ....|B-2 2F.7 ....
....|..|C-4 LF.A ....|B-2 3F.A ....|B-2 2F.A ....
 B-4|..|C-4 LF.F ....|B-2 3F.F ....|B-2 2A.F ....
....|..|C-4 LF.7 ....|B-3 3F47 ....|F#3 2F.7 ....
....|..|C-5 VF.A ....|F#3 3F.7 ....|F#3 2F.7 ....
 F#4|..|C-4 LF.F ....|F#3 3F.F ....|F#3 2C.F ....
....|..|R-- .... ....|--- .... ....|--- .... ....
....|..|C-4 LF.7 ....|B-2 3F.7 ....|B-2 2F.7 ....
....|..|C-4 LF.A ....|B-2 3F.A ....|B-2 2F.A ....
 B-4|..|C-4 LF.F ....|B-2 3F.F ....|B-2 2A.F ....
....|..|C-5 VF.7 ....|F#3 3F.7 ....|F#3 2F.7 ....
....|..|C-4 LF.A ....|F#3 3F.A ....|F#3 2F.A ....
 F#4|..|C-4 AF.F ....|F#3 3F.F ....|F#3 2C.F ....
 B-3|..|B-1 2A.F ....|--- .... ....|--- .F.. ....
....|..|C-4 LF.7 ....|B-2 3F.7 ....|B-2 2F.7 ....
....|..|C-4 LF.A ....|B-2 3F.A ....|B-2 2F.A ....
 B-4|..|C-4 AF.F ....|B-2 3F.F ....|B-2 2A.F ....
 B-3|..|B-1 2A.F ....|F#3 3F.7 ....|F#3 2F.7 ....
....|..|C-4 AF.A ....|F#3 3F.A ....|F#3 2F.A ....
 G-4|..|C-4 LF.F ....|G-3 3F.F ....|G-3 2C.F ....
....|..|R-- .... ....|--- .... ....|--- .... ....
....|..|C-4 LF.7 ....|B-2 3F.7 ....|B-2 2F.7 ....
....|..|C-4 AF.A ....|B-2 3F.A ....|B-2 2F.A ....
 B-4|..|C-4 LF.F ....|B-2 3F.F ....|B-2 2A.F ....
....|..|C-4 AF.7 ....|F#3 3F.7 ....|F#3 2F.7 ....
....|..|B-1 2F.7 ....|G-3 3F.A ....|G-3 2F.A ....
 F#4|..|C-5 VF.F ....|F#3 3F.F ....|F#3 2C.F ....
 B-3|..|B-1 2A.F ....|--- .... ....|--- .F.. ....
....|..|C-4 AF.7 ....|B-2 3F.7 ....|B-2 2F.7 ....
....|..|B-1 2F.7 ....|B-2 3F.A ....|B-2 2F.A ....
 B-4|..|C-4 LF.F ....|B-2 3F.F ....|B-2 2A.F ....
....|..|C-4 LF.7 ....|G-3 3F.7 ....|G-3 2F.7 ....
....|..|C-5 VF.A ....|F#3 3F.A ....|F#3 2F.A ....
 G-4|..|C-4 AF.F ....|G-3 3F.F ....|G-3 2C.F ....
 A-3|..|A-1 2A.F ....|--- .... ....|--- .F.. ....
....|..|C-4 LF.7 ....|B-2 3F.7 ....|B-2 2F.7 ....
....|..|C-4 LF.A ....|B-2 3F.A ....|B-2 2F.A ....
 B-4|..|C-4 AF.F ....|B-2 3F.F ....|B-2 2A.F ....
 A-3|..|A-1 2A.F ....|F#3 3F.7 ....|F#3 2F.7 ....
....|..|B-1 2F.7 ....|G-3 3F.A ....|G-3 2F.A ....
 F#3|..|C-4 LF.F ....|F#4 3F.F ....|F#4 2C.F ....
....|..|R-- .... ....|--- .... ....|--- .... ....
....|..|C-4 LF.7 ....|B-2 3F.7 ....|B-2 2F.7 ....
....|..|C-4 AF.A ....|B-2 3F.A ....|B-2 2F.A ....
 B-4|..|C-5 VF.F ....|B-3 3F.F ....|B-3 2C.F ....
....|..|C-4 AF.7 ....|G-3 3F.7 ....|G-3 2F.7 ....
....|..|A-1 2F.7 ....|F#4 3F.A ....|F#4 2F.A ....
 G-4|..|C-5 VF.F ....|G-4 3F.F ....|G-4 2C.F ....
....|..|R-- .... ....|--- .... ....|--- .... ....
....|..|C-4 AF.7 ....|B-2 3F.7 ....|B-2 2F.7 ....
....|..|A-1 2F.7 ....|B-3 3F.A ....|B-3 2F.A ....
 B-4|..|C-4 AF.F ....|B-3 3F.F ....|B-3 2C.F ....
....|..|C-4 LF.7 ....|F#4 3F.7 ....|F#4 2F.7 ....
....|..|C-5 VF.A ....|G-4 3F.A ....|G-4 2F.A ....
 F#3|..|C-5 VF.F ....|F#5 3F.F ....|F#5 2C.F ....
 A#3|..|A#1 2A.F ....|--- .... ....|--- .F.. ....
....|..|C-5 VF.7 ....|B-3 3F.7 ....|B-3 2F.7 ....
....|..|C-4 AF.A ....|B-3 3F.A ....|B-3 2F.A ....
 B-4|..|C-4 AF.F ....|B-4 3F.F ....|B-4 2C.F ....
 C-4|..|C-2 2A.F ....|G-4 3F.7 ....|G-4 2F.7 ....
....|..|C-5 VF.A ....|F#5 3F.A ....|F#5 2F.A ....
 G-4|..|C-5 VF.F ....|G-5 3F.F ....|G-5 2C.F ....
....|..|R-- .... ....|--- .... ....|--- .... ....
....|..|C-4 AF.7 ....|B-3 3F.7 ....|B-3 2F.7 ....
....|..|C-4 AF.A ....|B-4 3F.A ....|B-4 2F.A ....
 B-4|..|C-4 AF.F ....|B-4 3F.F ....|B-4 2C.F ....
....|..|C-5 VF.7 ....|F#5 3F.7 ....|F#5 2F.7 ....
....|..|A#1 2F.7 ....|G-5 3F.A ....|G-5 2F.A ....
 F#4|..|C-4 AF.F ....|F#3 3F.F ....|F#3 2C.F ....
 G-3|..|G-1 2A.F ....|--- .... ....|--- .F.. ....
....|..|C-4 AF.7 ....|B-4 3F.7 ....|B-4 2F.7 ....
....|..|C-2 2F.7 ....|B-4 3F.A ....|B-4 2F.A ....
 G-4|..|C-4 AF.F ....|G-3 3F.F ....|G-3 2C.F ....

[Pattern42]
 G-3|..|G-1 2A.F ....|G-5 3F.7 ....|G-5 2F.7 ....
....|..|C-4 AF.A ....|F#3 3F.A ....|F#3 2F.A ....
 B-4|..|C-4 LF.F ....|B-3 3F.F ....|B-3 2C.F ....
....|..|R-- .... ....|--- .... ....|--- .... ....
....|..|C-4 AF.7 ....|B-4 3F.7 ....|B-4 2F.7 ....
....|..|C-4 AF.A ....|G-3 3F.A ....|G-3 2F.A ....
 C#4|..|C-4 LF.F ....|C#4 3F.F ....|C#4 2C.F ....
....|..|C-4 AF.7 ....|F#3 3F.7 ....|F#3 2F.7 ....
....|..|G-1 2F.7 ....|B-3 3F.A ....|B-3 2F.A ....
 D-4|..|C-5 VF.F ....|D-4 3F.F ....|D-4 2C.F ....
....|..|R-- .... ....|--- .... ....|--- .... ....
....|..|C-4 AF.7 ....|G-3 3F.7 ....|G-3 2F.7 ....
....|..|G-1 2F.7 ....|C#4 3F.A ....|C#4 2F.A ....
 F#3|..|C-4 LF.F ....|F#4 3F.F ....|F#4 2C.F ....
....|..|C-4 LF.7 ....|B-3 3F.7 ....|B-3 2F.7 ....
....|..|C-5 VF.A ....|D-4 3F.A ....|D-4 2F.A ....
 G-4|..|C-4 AF.F ....|G-4 3F.F ....|G-4 2C.F ....
 G-3|..|G-1 2A.F ....|--- .... ....|--- .... ....
....|..|C-4 LF.7 ....|C#4 3F.7 ....|C#4 2F.7 ....
....|..|C-4 LF.A ....|F#4 3F.A ....|F#4 2F.A ....
 B-4|..|C-4 AF.F ....|B-4 3F.F ....|B-4 2C.F ....
 G-3|..|G-1 2A.F ....|D-4 3F.7 ....|D-4 2F.7 ....
....|..|C-4 AF.A ....|G-4 3F.A ....|G-4 2F.A ....
 G-4|..|C-4 LF.F ....|G-4 3F.F ....|G-4 2C.F ....
....|..|R-- .... ....|--- .... ....|--- .... ....
....|..|C-4 LF.7 ....|F#4 3F.7 ....|F#4 2F.7 ....
....|..|C-4 AF.A ....|B-4 3F.A ....|B-4 2F.A ....
 F#3|..|C-4 LF.F ....|F#4 3F.F ....|F#4 2C.F ....
....|..|C-4 AF.7 ....|G-4 3F.7 ....|G-4 2F.7 ....
....|..|G-1 2F.7 ....|G-4 3F.A ....|G-4 2F.A ....
 G-4|..|C-4 AF.F ....|G-4 3F.F ....|G-4 2C.F ....
 G-3|..|G-1 2A.F ....|--- .... ....|--- .... ....
....|..|C-4 AF.7 ....|B-4 3F.7 ....|B-4 2F.7 ....
....|..|G-1 2F.7 ....|F#4 3F.A ....|F#4 2F.A ....
 D-4|..|C-4 LF.F ....|D-5 3F.F ....|D-5 2C.F ....
....|..|C-4 LF.7 ....|G-4 3F.7 ....|G-4 2F.7 ....
....|..|C-4 AF.A ....|G-4 3F.A ....|G-4 2F.A ....
 C#4|..|C-5 VF.F ....|C#5 3F.F ....|C#5 2C.F ....
....|..|R-- .... ....|--- .... ....|--- .... ....
....|..|C-4 LF.7 ....|F#4 3F.7 ....|F#4 2F.7 ....
....|..|C-4 LF.A ....|D-5 3F.A ....|D-5 2F.A ....
 D-4|..|C-4 AF.F ....|D-5 3F.F ....|D-5 2C.F ....
 G-3|..|G-1 2A.F ....|G-4 3F.7 ....|G-4 2F.7 ....
....|..|G-1 2F.7 ....|C#5 3F.A ....|C#5 2F.A ....
 B-4|..|C-4 LF.F ....|B-4 3F.F ....|B-4 2C.F ....
....|..|R-- .... ....|--- .... ....|--- .... ....
....|..|C-4 LF.7 ....|D-5 3F.7 ....|D-5 2F.7 ....
....|..|C-4 AF.A ....|D-5 3F.A ....|D-5 2F.A ....
 G-4|..|C-4 LF.F ....|G-4 3F.F ....|G-4 2C.F ....
....|..|C-5 VF.7 ....|C#5 3F.7 ....|C#5 2F.7 ....
....|..|C-4 LF.A ....|B-4 3F.A ....|B-4 2F.A ....
 F#3|..|C-4 AF.F ....|F#4 3F.F ....|F#4 2C.F ....
 G-3|..|G-1 2A.F ....|--- .... ....|--- .F.. ....
....|..|C-4 AF.7 ....|D-5 3F.7 ....|D-5 2F.7 ....
....|..|G-1 2F.7 ....|G-4 3F.A ....|G-4 2F.A ....
 G-4|..|C-4 AF.F ....|G-4 3F.F ....|G-4 2C.F ....
 G-3|..|G-1 2A.F ....|B-4 3F.7 ....|B-4 2F.7 ....
....|..|C-4 AF.A ....|F#4 3F.A ....|F#4 2F.A ....
 B-4|..|C-4 LF.F ....|B-4 3F.F ....|B-4 2C.F ....
....|..|R-- .... ....|--- .... ....|--- .... ....
....|..|C-4 LF.7 ....|G-4 3F.7 ....|G-4 2F.7 ....
....|..|C-4 AF.A ....|G-4 3F.A ....|G-4 2F.A ....
 C#4|..|C-4 LF.F ....|C#5 3F.F ....|C#5 2C.F ....
....|..|C-4 AF.7 ....|F#4 3F.7 ....|F#4 2F.7 ....
....|..|G-1 2F.7 ....|B-4 3F.A ....|B-4 2F.A ....
 D-4|..|C-5 VF.F ....|D-5 3F.F ....|D-5 2C.F ....
....|..|R-- .... ....|--- .... ....|--- .... ....
....|..|C-4 AF.7 ....|G-4 3F.7 ....|G-4 2F.7 ....
....|..|G-1 2F.7 ....|C#5 3F.A ....|C#5 2F.A ....
 F#3|..|C-4 LF.F ....|F#5 3F.F ....|F#5 2C.F ....
....|..|C-4 LF.7 ....|B-4 3F.7 ....|B-4 2F.7 ....
....|..|C-5 VF.A ....|D-5 3F.A ....|D-5 2F.A ....
 G-4|..|C-4 AF.F ....|G-5 3F.F ....|G-5 2C.F ....
 G-3|..|G-1 2A.F ....|--- .... ....|--- .... ....
....|..|C-4 LF.7 ....|C#5 3F.7 ....|C#5 2F.7 ....
....|..|C-4 LF.A ....|F#5 3F.A ....|F#5 2F.A ....
 B-4|..|C-4 AF.F ....|B-5 3F.F ....|B-5 2C.F ....
 G-3|..|G-1 2A.F ....|D-5 3F.7 ....|D-5 2F.7 ....
....|..|C-4 AF.A ....|G-5 3F.A ....|G-5 2F.A ....
 G-4|..|C-4 LF.F ....|G-5 3F.F ....|G-5 2C.F ....
....|..|R-- .... ....|--- .... ....|--- .... ....
....|..|C-4 LF.7 ....|F#5 3F.7 ....|F#5 2F.7 ....
....|..|C-4 AF.A ....|B-5 3F.A ....|B-5 2F.A ....
 F#3|..|C-4 LF.F ....|F#5 3F.F ....|F#5 2C.F ....
....|..|C-4 AF.7 ....|G-5 3F.7 ....|G-5 2F.7 ....
....|..|G-1 2F.7 ....|G-5 3F.A ....|G-5 2F.A ....
 G-4|..|C-4 AF.F ....|G-5 3F.F ....|G-5 2C.F ....
 G-3|..|G-1 2A.F ....|--- .... ....|--- .... ....
....|..|C-4 AF.7 ....|B-5 3F.7 ....|B-5 2F.7 ....
....|..|G-1 2F.7 ....|F#5 3F.A ....|F#5 2F.A ....
 D-4|..|C-4 LF.F ....|D-6 3F.F ....|D-6 2C.F ....
....|..|C-4 LF.7 ....|G-5 3F.7 ....|G-5 2F.7 ....
....|..|C-4 AF.A ....|G-5 3F.A ....|G-5 2F.A ....
 C#4|..|C-5 VF.F ....|C#6 3F.F ....|C#6 2C.F ....
....|..|R-- .... ....|--- .... ....|--- .... ....
....|..|C-4 LF.7 ....|F#5 3F.7 ....|F#5 2F.7 ....
....|..|C-4 LF.A ....|D-6 3F.A ....|D-6 2F.A ....
 D-4|..|C-4 AF.F ....|D-6 3F.F ....|D-6 2C.F ....
 G-3|..|G-1 2A.F ....|G-5 3F.7 ....|G-5 2F.7 ....
....|..|G-1 2F.7 ....|C#6 3F.A ....|C#6 2F.A ....
 B-4|..|C-4 LF.F ....|B-5 3F.F ....|B-5 2C.F ....
....|..|R-- .... ....|--- .... ....|--- .... ....
....|..|C-4 LF.7 ....|D-6 3F.7 ....|D-6 2F.7 ....
....|..|C-4 AF.A ....|D-6 3F.A ....|D-6 2F.A ....
 G-4|..|C-4 LF.F ....|G-5 3F.F ....|G-5 2C.F ....
....|..|C-5 VF.7 ....|C#6 3F.7 ....|C#6 2F.7 ....
....|..|C-4 LF.A ....|B-5 3F.A ....|B-5 2F.A ....
 E-4|..|C-4 AF.F ....|E-3 3F.F ....|E-3 2C.F ....
 F-3|..|F-1 2A.F ....|--- .... ....|--- .F.. ....
....|..|C-4 AF.7 ....|D-6 3F.7 ....|D-6 2F.7 ....
....|..|G-1 2F.7 ....|G-5 3F.A ....|G-5 2F.A ....
 F-4|..|C-4 AF.F ....|F-3 3F.F ....|F-3 2C.F ....
 F-3|..|F-1 2A.F ....|B-5 3F.7 ....|B-5 2F.7 ....
....|..|C-4 AF.A ....|E-3 3F.A ....|E-3 2F.A ....
 A-3|..|C-4 LF.F ....|A-3 3F.F ....|A-3 2C.F ....
....|..|R-- .... ....|--- .... ....|--- .... ....
....|..|C-4 LF.7 ....|G-5 3F.7 ....|G-5 2F.7 ....
....|..|C-4 AF.A ....|F-3 3F.A ....|F-3 2F.A ....
 B-4|..|C-4 LF.F ....|B-3 3F.F ....|B-3 2C.F ....
....|..|C-4 AF.7 ....|E-3 3F.7 ....|E-3 2F.7 ....
....|..|F-1 2F.7 ....|A-3 3F.A ....|A-3 2F.A ....
 C-3|..|C-5 VF.F ....|C-4 3F.F ....|C-4 2C.F ....
....|..|R-- .... ....|--- .... ....|--- .... ....
....|..|C-4 AF.7 ....|F-3 3F.7 ....|F-3 2F.7 ....
....|..|F-1 2F.7 ....|B-3 3F.A ....|B-3 2F.A ....
 E-4|..|C-4 LF.F ....|E-4 3F.F ....|E-4 2C.F ....
....|..|C-4 LF.7 ....|A-3 3F.7 ....|A-3 2F.7 ....
....|..|C-5 VF.A ....|C-4 3F.A ....|C-4 2F.A ....

[Pattern43]
 F-4|..|C-4 AF.F ....|F-4 3F.F ....|F-4 2C.F ....
 F-3|..|F-1 2A.F ....|--- .... ....|--- .... ....
....|..|C-4 LF.7 ....|B-3 3F.7 ....|B-3 2F.7 ....
....|..|C-4 LF.A ....|E-4 3F.A ....|E-4 2F.A ....
 A-3|..|C-4 AF.F ....|A-4 3F.F ....|A-4 2C.F ....
 F-3|..|F-1 2A.F ....|C-4 3F.7 ....|C-4 2F.7 ....
....|..|C-4 AF.A ....|F-4 3F.A ....|F-4 2F.A ....
 F-4|..|C-4 LF.F ....|F-4 3F.F ....|F-4 2C.F ....
....|..|R-- .... ....|--- .... ....|--- .... ....
....|..|C-4 LF.7 ....|E-4 3F.7 ....|E-4 2F.7 ....
....|..|C-4 AF.A ....|A-4 3F.A ....|A-4 2F.A ....
 E-4|..|C-4 LF.F ....|E-4 3F.F ....|E-4 2C.F ....
....|..|C-4 AF.7 ....|F-4 3F.7 ....|F-4 2F.7 ....
....|..|F-1 2F.7 ....|F-4 3F.A ....|F-4 2F.A ....
 F-4|..|C-4 AF.F ....|F-4 3F.F ....|F-4 2C.F ....
 F-3|..|F-1 2A.F ....|--- .... ....|--- .... ....
....|..|C-4 AF.7 ....|A-4 3F.7 ....|A-4 2F.7 ....
....|..|F-1 2F.7 ....|E-4 3F.A ....|E-4 2F.A ....
 C-3|..|C-4 LF.F ....|C-5 3F.F ....|C-5 2C.F ....
....|..|C-4 LF.7 ....|F-4 3F.7 ....|F-4 2F.7 ....
....|..|C-4 AF.A ....|F-4 3F.A ....|F-4 2F.A ....
 B-4|..|C-5 VF.F ....|B-4 3F.F ....|B-4 2C.F ....
....|..|R-- .... ....|--- .... ....|--- .... ....
....|..|C-4 LF.7 ....|E-4 3F.7 ....|E-4 2F.7 ....
....|..|C-4 LF.A ....|C-5 3F.A ....|C-5 2F.A ....
 C-3|..|C-4 AF.F ....|C-5 3F.F ....|C-5 2C.F ....
 F-3|..|F-1 2A.F ....|F-4 3F.7 ....|F-4 2F.7 ....
....|..|F-1 2F.7 ....|B-4 3F.A ....|B-4 2F.A ....
 A-3|..|C-4 LF.F ....|A-4 3F.F ....|A-4 2C.F ....
....|..|R-- .... ....|--- .... ....|--- .... ....
....|..|C-4 LF.7 ....|C-5 3F.7 ....|C-5 2F.7 ....
....|..|C-4 AF.A ....|C-5 3F.A ....|C-5 2F.A ....
 F-4|..|C-4 LF.F ....|F-4 3F.F ....|F-4 2C.F ....
....|..|C-5 VF.7 ....|B-4 3F.7 ....|B-4 2F.7 ....
....|..|C-4 LF.A ....|A-4 3F.A ....|A-4 2F.A ....
 E-4|..|C-4 AF.F ....|E-4 3F.F ....|E-4 2C.F ....
 F-3|..|F-1 2A.F ....|--- .... ....|--- .F.. ....
....|..|C-4 AF.7 ....|C-5 3F.7 ....|C-5 2F.7 ....
....|..|F-1 2F.7 ....|F-4 3F.A ....|F-4 2F.A ....
 F-4|..|C-4 AF.F ....|F-4 3F.F ....|F-4 2C.F ....
 F-3|..|F-1 2A.F ....|A-4 3F.7 ....|A-4 2F.7 ....
....|..|C-4 AF.A ....|E-4 3F.A ....|E-4 2F.A ....
 A-3|..|C-4 LF.F ....|A-4 3F.F ....|A-4 2C.F ....
....|..|R-- .... ....|--- .... ....|--- .... ....
....|..|C-4 LF.7 ....|F-4 3F.7 ....|F-4 2F.7 ....
....|..|C-4 AF.A ....|F-4 3F.A ....|F-4 2F.A ....
 B-4|..|C-4 LF.F ....|B-4 3F.F ....|B-4 2C.F ....
....|..|C-4 AF.7 ....|E-4 3F.7 ....|E-4 2F.7 ....
....|..|F-1 2F.7 ....|A-4 3F.A ....|A-4 2F.A ....
 C-3|..|C-5 VF.F ....|C-5 3F.F ....|C-5 2C.F ....
....|..|R-- .... ....|--- .... ....|--- .... ....
....|..|C-4 AF.7 ....|F-4 3F.7 ....|F-4 2F.7 ....
....|..|F-1 2F.7 ....|B-4 3F.A ....|B-4 2F.A ....
 E-4|..|C-4 LF.F ....|E-5 3F.F ....|E-5 2C.F ....
....|..|C-4 LF.7 ....|A-4 3F.7 ....|A-4 2F.7 ....
....|..|C-5 VF.A ....|C-5 3F.A ....|C-5 2F.A ....
 F-4|..|C-4 AF.F ....|F-5 3F.F ....|F-5 2C.F ....
 F-3|..|F-1 2A.F ....|--- .... ....|--- .... ....
....|..|C-4 LF.7 ....|B-4 3F.7 ....|B-4 2F.7 ....
....|..|C-4 LF.A ....|E-5 3F.A ....|E-5 2F.A ....
 A-3|..|C-4 AF.F ....|A-5 3F.F ....|A-5 2C.F ....
 F-3|..|F-1 2A.F ....|C-5 3F.7 ....|C-5 2F.7 ....
....|..|C-4 AF.A ....|F-5 3F.A ....|F-5 2F.A ....
 F-4|..|C-4 LF.F ....|F-5 3F.F ....|F-5 2C.F ....
....|..|R-- .... ....|--- .... ....|--- .... ....
....|..|C-4 LF.7 ....|E-5 3F.7 ....|E-5 2F.7 ....
....|..|C-4 AF.A ....|A-5 3F.A ....|A-5 2F.A ....
 E-4|..|C-4 LF.F ....|E-5 3F.F ....|E-5 2C.F ....
....|..|C-4 AF.7 ....|F-5 3F.7 ....|F-5 2F.7 ....
....|..|F-1 2F.7 ....|F-5 3F.A ....|F-5 2F.A ....
 F-4|..|C-4 AF.F ....|F-5 3F.F ....|F-5 2C.F ....
 F-3|..|F-1 2A.F ....|--- .... ....|--- .... ....
....|..|C-4 AF.7 ....|A-5 3F.7 ....|A-5 2F.7 ....
....|..|F-1 2F.7 ....|E-5 3F.A ....|E-5 2F.A ....
 C-3|..|C-4 LF.F ....|C-6 3F.F ....|C-6 2C.F ....
....|..|C-4 LF.7 ....|F-5 3F.7 ....|F-5 2F.7 ....
....|..|C-4 AF.A ....|F-5 3F.A ....|F-5 2F.A ....
 B-4|..|C-5 VF.F ....|B-5 3F.F ....|B-5 2C.F ....
....|..|R-- .... ....|--- .... ....|--- .... ....
....|..|C-4 LF.7 ....|E-5 3F.7 ....|E-5 2F.7 ....
....|..|C-4 LF.A ....|C-6 3F.A ....|C-6 2F.A ....
 C-3|..|C-4 AF.F ....|C-6 3F.F ....|C-6 2C.F ....
 F-3|..|F-1 2A.F ....|F-5 3F.7 ....|F-5 2F.7 ....
....|..|F-1 2F.7 ....|B-5 3F.A ....|B-5 2F.A ....
 A-3|..|C-4 LF.F ....|A-5 3F.F ....|A-5 2C.F ....
....|..|R-- .... ....|--- .... ....|--- .... ....
....|..|C-4 LF.7 ....|C-6 3F.7 ....|C-6 2F.7 ....
....|..|C-4 AF.A ....|C-6 3F.A ....|C-6 2F.A ....
 F-4|..|C-4 LF.F ....|F-5 3F.F ....|F-5 2C.F ....
....|..|C-5 VF.7 ....|B-5 3F.7 ....|B-5 2F.7 ....
....|..|C-4 LF.A ....|A-5 3F.A ....|A-5 2F.A ....
 D-4|..|C-4 AF.F ....|D-3 3F.F ....|D-3 2C.F ....
 D#3|..|D#1 2A.F ....|--- .... ....|--- .F.. ....
....|..|C-4 AF.7 ....|C-6 3F.7 ....|C-6 2F.7 ....
....|..|F-1 2F.7 ....|F-5 3F.A ....|F-5 2F.A ....
 D#4|..|C-4 AF.F ....|D#3 3F.F ....|D#3 2C.F ....
 D#3|..|D#1 2A.F ....|A-5 3F.7 ....|A-5 2F.7 ....
....|..|C-4 AF.A ....|D-3 3F.A ....|D-3 2F.A ....
 G-4|..|C-4 LF.F ....|G-3 3F.F ....|G-3 2C.F ....
....|..|R-- .... ....|--- .... ....|--- .... ....
....|..|C-4 LF.7 ....|F-5 3F.7 ....|F-5 2F.7 ....
....|..|C-4 AF.A ....|D#3 3F.A ....|D#3 2F.A ....
 A-3|..|C-4 LF.F ....|A-3 3F.F ....|A-3 2C.F ....
....|..|C-4 AF.7 ....|D-3 3F.7 ....|D-3 2F.7 ....
....|..|D#1 2F.7 ....|G-3 3F.A ....|G-3 2F.A ....
 A#3|..|C-5 VF.F ....|A#3 3F.F ....|A#3 2C.F ....
....|..|R-- .... ....|--- .... ....|--- .... ....
....|..|C-4 AF.7 ....|D#3 3F.7 ....|D#3 2F.7 ....
....|..|D#1 2F.7 ....|A-3 3F.A ....|A-3 2F.A ....
 D-4|..|C-4 LF.F ....|D-4 3F.F ....|D-4 2C.F ....
....|..|C-4 LF.7 ....|G-3 3F.7 ....|G-3 2F.7 ....
....|..|C-5 VF.A ....|A#3 3F.A ....|A#3 2F.A ....
 D#4|..|C-4 AF.F ....|D#4 3F.F ....|D#4 2C.F ....
 D#3|..|D#1 2A.F ....|--- .... ....|--- .... ....
....|..|C-4 LF.7 ....|A-3 3F.7 ....|A-3 2F.7 ....
....|..|C-4 LF.A ....|D-4 3F.A ....|D-4 2F.A ....
 G-4|..|C-4 AF.F ....|G-4 3F.F ....|G-4 2C.F ....
 D#3|..|D#1 2A.F ....|A#3 3F.7 ....|A#3 2F.7 ....
....|..|C-4 AF.A ....|D#4 3F.A ....|D#4 2F.A ....
 D#4|..|C-4 LF.F ....|D#4 3F.F ....|D#4 2C.F ....
....|..|R-- .... ....|--- .... ....|--- .... ....
....|..|C-4 LF.7 ....|D-4 3F.7 ....|D-4 2F.7 ....
....|..|C-4 AF.A ....|G-4 3F.A ....|G-4 2F.A ....
 D-4|..|C-4 LF.F ....|D-4 3F.F ....|D-4 2C.F ....
....|..|C-4 AF.7 ....|D#4 3F.7 ....|D#4 2F.7 ....
....|..|D#1 2F.7 ....|D#4 3F.A ....|D#4 2F.A ....
 D#4|..|C-4 AF.F ....|D#4 3F.F ....|D#4 2C.F ....
 D#3|..|D#1 2A.F ....|--- .... ....|--- .... ....

[Pattern44]
....|..|C-4 AF.7 ....|G-4 3F.7 ....|G-4 2F.7 ....
....|..|D#1 2F.7 ....|D-4 3F.A ....|D-4 2F.A ....
 A#3|..|C-4 LF.F ....|A#4 3F.F ....|A#4 2C.F ....
....|..|C-4 LF.7 ....|D#4 3F.7 ....|D#4 2F.7 ....
....|..|C-4 AF.A ....|D#4 3F.A ....|D#4 2F.A ....
 A-3|..|C-5 VF.F ....|A-4 3F.F ....|A-4 2C.F ....
....|..|R-- .... ....|--- .... ....|--- .... ....
....|..|C-4 LF.7 ....|D-4 3F.7 ....|D-4 2F.7 ....
....|..|C-4 LF.A ....|A#4 3F.A ....|A#4 2F.A ....
 A#3|..|C-4 AF.F ....|A#4 3F.F ....|A#4 2C.F ....
 D#3|..|D#1 2A.F ....|D#4 3F.7 ....|D#4 2F.7 ....
....|..|D#1 2F.7 ....|A-4 3F.A ....|A-4 2F.A ....
 G-4|..|C-4 LF.F ....|G-4 3F.F ....|G-4 2C.F ....
....|..|R-- .... ....|--- .... ....|--- .... ....
....|..|C-4 LF.7 ....|A#4 3F.7 ....|A#4 2F.7 ....
....|..|C-4 AF.A ....|A#4 3F.A ....|A#4 2F.A ....
 D#4|..|C-4 LF.F ....|D#4 3F.F ....|D#4 2C.F ....
....|..|C-5 VF.7 ....|A-4 3F.7 ....|A-4 2F.7 ....
....|..|C-4 LF.A ....|G-4 3F.A ....|G-4 2F.A ....
 D-4|..|C-4 AF.F ....|D-4 3F.F ....|D-4 2C.F ....
 D#3|..|D#1 2A.F ....|--- .... ....|--- .F.. ....
....|..|C-4 AF.7 ....|A#4 3F.7 ....|A#4 2F.7 ....
....|..|D#1 2F.7 ....|D#4 3F.A ....|D#4 2F.A ....
 D#4|..|C-4 AF.F ....|D#4 3F.F ....|D#4 2C.F ....
 D#3|..|D#1 2A.F ....|G-4 3F.7 ....|G-4 2F.7 ....
....|..|C-4 AF.A ....|D-4 3F.A ....|D-4 2F.A ....
 G-4|..|C-4 LF.F ....|G-4 3F.F ....|G-4 2C.F ....
....|..|R-- .... ....|--- .... ....|--- .... ....
....|..|C-4 LF.7 ....|D#4 3F.7 ....|D#4 2F.7 ....
....|..|C-4 AF.A ....|D#4 3F.A ....|D#4 2F.A ....
 A-3|..|C-4 LF.F ....|A-4 3F.F ....|A-4 2C.F ....
....|..|C-4 AF.7 ....|D-4 3F.7 ....|D-4 2F.7 ....
....|..|D#1 2F.7 ....|G-4 3F.A ....|G-4 2F.A ....
 A#3|..|C-5 VF.F ....|A#4 3F.F ....|A#4 2C.F ....
....|..|R-- .... ....|--- .... ....|--- .... ....
....|..|C-4 AF.7 ....|D#4 3F.7 ....|D#4 2F.7 ....
....|..|D#1 2F.7 ....|A-4 3F.A ....|A-4 2F.A ....
 D-4|..|C-4 LF.F ....|D-5 3F.F ....|D-5 2C.F ....
....|..|C-4 LF.7 ....|G-4 3F.7 ....|G-4 2F.7 ....
....|..|C-5 VF.A ....|A#4 3F.A ....|A#4 2F.A ....
 D#4|..|C-4 AF.F ....|D#5 3F.F ....|D#5 2C.F ....
 D#3|..|D#1 2A.F ....|--- .... ....|--- .... ....
....|..|C-4 LF.7 ....|A-4 3F.7 ....|A-4 2F.7 ....
....|..|C-4 LF.A ....|D-5 3F.A ....|D-5 2F.A ....
 G-4|..|C-4 AF.F ....|G-5 3F.F ....|G-5 2C.F ....
 D#3|..|D#1 2A.F ....|A#4 3F.7 ....|A#4 2F.7 ....
....|..|C-4 AF.A ....|D#5 3F.A ....|D#5 2F.A ....
 D#4|..|C-4 LF.F ....|D#5 3F.F ....|D#5 2C.F ....
....|..|R-- .... ....|--- .... ....|--- .... ....
....|..|C-4 LF.7 ....|D-5 3F.7 ....|D-5 2F.7 ....
....|..|C-4 AF.A ....|G-5 3F.A ....|G-5 2F.A ....
 D-4|..|C-4 LF.F ....|D-5 3F.F ....|D-5 2C.F ....
....|..|C-4 AF.7 ....|D#5 3F.7 ....|D#5 2F.7 ....
....|..|D#1 2F.7 ....|D#5 3F.A ....|D#5 2F.A ....
 D#4|..|C-4 AF.F ....|D#5 3F.F ....|D#5 2C.F ....
 D#3|..|D#1 2A.F ....|--- .... ....|--- .... ....
....|..|C-4 AF.7 ....|G-5 3F.7 ....|G-5 2F.7 ....
....|..|D#1 2F.7 ....|D-5 3F.A ....|D-5 2F.A ....
 A#3|..|C-4 LF.F ....|A#5 3F.F ....|A#5 2C.F ....
....|..|C-4 LF.7 ....|D#5 3F.7 ....|D#5 2F.7 ....
....|..|C-4 AF.A ....|D#5 3F.A ....|D#5 2F.A ....
 A-3|..|C-5 VF.F ....|A-5 3F.F ....|A-5 2C.F ....
....|..|R-- .... ....|--- .... ....|--- .... ....
....|..|C-4 LF.7 ....|D-5 3F.7 ....|D-5 2F.7 ....
....|..|C-4 LF.A ....|A#5 3F.A ....|A#5 2F.A ....
 A#3|..|C-4 AF.F ....|A#5 3F.F ....|A#5 2C.F ....
 D#3|..|D#1 2A.F ....|D#5 3F.7 ....|D#5 2F.7 ....
....|..|D#1 2F.7 ....|A-5 3F.A ....|A-5 2F.A ....
 G-4|..|C-4 LF.F ....|G-5 3F.F ....|G-5 2C.F ....
....|..|R-- .... ....|--- .... ....|--- .... ....
....|..|C-4 LF.7 ....|A#5 3F.7 ....|A#5 2F.7 ....
....|..|C-4 AF.A ....|A#5 3F.A ....|A#5 2F.A ....
 D#4|..|C-4 LF.F ....|D#5 3F.F ....|D#5 2C.F ....
....|..|C-5 VF.7 ....|A-5 3F.7 ....|A-5 2F.7 ....
....|..|C-4 LF.A ....|G-5 3F.A ....|G-5 2F.A ....
 C-3|..|C-4 AF.F ....|C-3 3F.F ....|C-3 2C.F ....
 C#3|..|C#1 2A.F ....|--- .... ....|--- .F.. ....
....|..|C-4 AF.7 ....|A#5 3F.7 ....|A#5 2F.7 ....
....|..|D#1 2F.7 ....|D#5 3F.A ....|D#5 2F.A ....
 C#4|..|C-4 AF.F ....|C#3 3F.F ....|C#3 2C.F ....
 C#3|..|C#1 2A.F ....|G-5 3F.7 ....|G-5 2F.7 ....
....|..|C-4 AF.A ....|C-3 3F.A ....|C-3 2F.A ....
 F-4|..|C-4 LF.F ....|F-3 3F.F ....|F-3 2C.F ....
....|..|R-- .... ....|--- .... ....|--- .... ....
....|..|C-4 LF.7 ....|D#5 3F.7 ....|D#5 2F.7 ....
....|..|C-4 AF.A ....|C#3 3F.A ....|C#3 2F.A ....
 G-4|..|C-4 LF.F ....|G-3 3F.F ....|G-3 2C.F ....
....|..|C-4 AF.7 ....|C-3 3F.7 ....|C-3 2F.7 ....
....|..|C#1 2F.7 ....|F-3 3F.A ....|F-3 2F.A ....
 G#4|..|C-5 VF.F ....|G#3 3F.F ....|G#3 2C.F ....
....|..|R-- .... ....|--- .... ....|--- .... ....
....|..|C-4 AF.7 ....|C#3 3F.7 ....|C#3 2F.7 ....
....|..|C#1 2F.7 ....|G-3 3F.A ....|G-3 2F.A ....
 C-3|..|C-4 LF.F ....|C-4 3F.F ....|C-4 2C.F ....
....|..|C-4 LF.7 ....|F-3 3F.7 ....|F-3 2F.7 ....
....|..|C-5 VF.A ....|G#3 3F.A ....|G#3 2F.A ....
 C#4|..|C-4 AF.F ....|C#4 3F.F ....|C#4 2C.F ....
 C#3|..|C#1 2A.F ....|--- .... ....|--- .... ....
....|..|C-4 LF.7 ....|G-3 3F.7 ....|G-3 2F.7 ....
....|..|C-4 LF.A ....|C-4 3F.A ....|C-4 2F.A ....
 F-4|..|C-4 AF.F ....|F-4 3F.F ....|F-4 2C.F ....
 C#3|..|C#1 2A.F ....|G#3 3F.7 ....|G#3 2F.7 ....
....|..|C-4 AF.A ....|C#4 3F.A ....|C#4 2F.A ....
 C#4|..|C-4 LF.F ....|C#4 3F.F ....|C#4 2C.F ....
....|..|R-- .... ....|--- .... ....|--- .... ....
....|..|C-4 LF.7 ....|C-4 3F.7 ....|C-4 2F.7 ....
....|..|C-4 AF.A ....|F-4 3F.A ....|F-4 2F.A ....
 C-3|..|C-4 LF.F ....|C-4 3F.F ....|C-4 2C.F ....
....|..|C-4 AF.7 ....|C#4 3F.7 ....|C#4 2F.7 ....
....|..|C#1 2F.7 ....|C#4 3F.A ....|C#4 2F.A ....
 C#4|..|C-4 AF.F ....|C#4 3F.F ....|C#4 2C.F ....
 C#3|..|C#1 2A.F ....|--- .... ....|--- .... ....
....|..|C-4 AF.7 ....|F-4 3F.7 ....|F-4 2F.7 ....
....|..|C#1 2F.7 ....|C-4 3F.A ....|C-4 2F.A ....
 G#4|..|C-4 LF.F ....|G#4 3F.F ....|G#4 2C.F ....
....|..|C-4 LF.7 ....|C#4 3F.7 ....|C#4 2F.7 ....
....|..|C-4 AF.A ....|C#4 3F.A ....|C#4 2F.A ....
 G-4|..|C-5 VF.F ....|G-4 3F.F ....|G-4 2C.F ....
....|..|R-- .... ....|--- .... ....|--- .... ....
....|..|C-4 LF.7 ....|C-4 3F.7 ....|C-4 2F.7 ....
....|..|C-4 LF.A ....|G#4 3F.A ....|G#4 2F.A ....
 G#4|..|C-4 AF.F ....|G#4 3F.F ....|G#4 2C.F ....
 C#3|..|C#1 2A.F ....|C#4 3F.7 ....|C#4 2F.7 ....
....|..|C#1 2F.7 ....|G-4 3F.A ....|G-4 2F.A ....
 F-4|..|C-4 LF.F ....|F-4 3F.F ....|F-4 2C.F ....
....|..|R-- .... ....|--- .... ....|--- .... ....
....|..|C-4 LF.7 ....|G#4 3F.7 ....|G#4 2F.7 ....
....|..|C-4 AF.A ....|G#4 3F.A ....|G#4 2F.A ....

[Pattern45]
 C#4|..|C-4 LF.F ....|C#4 3F.F ....|C#4 2C.F ....
....|..|C-5 VF.7 ....|G-4 3F.7 ....|G-4 2F.7 ....
....|..|C-4 LF.A ....|F-4 3F.A ....|F-4 2F.A ....
 C-3|..|C-4 AF.F ....|C-4 3F.F ....|C-4 2C.F ....
 C#3|..|C#1 2A.F ....|--- .... ....|--- .F.. ....
....|..|C-4 AF.7 ....|G#4 3F.7 ....|G#4 2F.7 ....
....|..|C#1 2F.7 ....|C#4 3F.A ....|C#4 2F.A ....
 C#4|..|C-4 AF.F ....|C#4 3F.F ....|C#4 2C.F ....
 C#3|..|C#1 2A.F ....|F-4 3F.7 ....|F-4 2F.7 ....
....|..|C-4 AF.A ....|C-4 3F.A ....|C-4 2F.A ....
 F-4|..|C-4 LF.F ....|F-4 3F.F ....|F-4 2C.F ....
....|..|R-- .... ....|--- .... ....|--- .... ....
....|..|C-4 LF.7 ....|C#4 3F.7 ....|C#4 2F.7 ....
....|..|C-4 AF.A ....|C#4 3F.A ....|C#4 2F.A ....
 G-4|..|C-4 LF.F ....|G-4 3F.F ....|G-4 2C.F ....
....|..|C-4 AF.7 ....|C-4 3F.7 ....|C-4 2F.7 ....
....|..|C#1 2F.7 ....|F-4 3F.A ....|F-4 2F.A ....
 G#4|..|C-5 VF.F ....|G#4 3F.F ....|G#4 2C.F ....
....|..|R-- .... ....|--- .... ....|--- .... ....
....|..|C-4 AF.7 ....|C#4 3F.7 ....|C#4 2F.7 ....
....|..|C#1 2F.7 ....|G-4 3F.A ....|G-4 2F.A ....
 C-3|..|C-4 LF.F ....|C-5 3F.F ....|C-5 2C.F ....
....|..|C-4 LF.7 ....|F-4 3F.7 ....|F-4 2F.7 ....
....|..|C-5 VF.A ....|G#4 3F.A ....|G#4 2F.A ....
 C#4|..|C-4 AF.F ....|C#5 3F.F ....|C#5 2C.F ....
 C#3|..|C#1 2A.F ....|--- .... ....|--- .... ....
....|..|C-4 LF.7 ....|G-4 3F.7 ....|G-4 2F.7 ....
....|..|C-4 LF.A ....|C-5 3F.A ....|C-5 2F.A ....
 F-4|..|C-4 AF.F ....|F-5 3F.F ....|F-5 2C.F ....
 C#3|..|C#1 2A.F ....|G#4 3F.7 ....|G#4 2F.7 ....
....|..|C-4 AF.A ....|C#5 3F.A ....|C#5 2F.A ....
 C#4|..|C-4 LF.F ....|C#5 3F.F ....|C#5 2C.F ....
....|..|R-- .... ....|--- .... ....|--- .... ....
....|..|C-4 LF.7 ....|C-5 3F.7 ....|C-5 2F.7 ....
....|..|C-4 AF.A ....|F-5 3F.A ....|F-5 2F.A ....
 C-3|..|C-4 LF.F ....|C-5 3F.F ....|C-5 2C.F ....
....|..|C-4 AF.7 ....|C#5 3F.7 ....|C#5 2F.7 ....
....|..|C#1 2F.7 ....|C#5 3F.A ....|C#5 2F.A ....
 C#4|..|C-4 AF.F ....|C#5 3F.F ....|C#5 2C.F ....
 C#3|..|C#1 2A.F ....|--- .... ....|--- .... ....
....|..|C-4 AF.7 ....|F-5 3F.7 ....|F-5 2F.7 ....
....|..|C#1 2F.7 ....|C-5 3F.A ....|C-5 2F.A ....
 G#4|..|C-4 LF.F ....|G#5 3F.F ....|G#5 2C.F ....
....|..|C-4 LF.7 ....|C#5 3F.7 ....|C#5 2F.7 ....
....|..|C-4 AF.A ....|C#5 3F.A ....|C#5 2F.A ....
 G-4|..|C-5 VF.F ....|G-5 3F.F ....|G-5 2C.F ....
....|..|R-- .... ....|--- .... ....|--- .... ....
....|..|C-4 LF.7 ....|C-5 3F.7 ....|C-5 2F.7 ....
....|..|C-4 LF.A ....|G#5 3F.A ....|G#5 2F.A ....
 G#4|..|C-4 AF.F ....|G#5 3F.F ....|G#5 2C.F ....
 C#3|..|C#1 2A.F ....|C#5 3F.7 ....|C#5 2F.7 ....
....|..|C#1 2F.7 ....|G-5 3F.A ....|G-5 2F.A ....
 F-4|..|C-4 LF.F ....|F-5 3F.F ....|F-5 2C.F ....
....|..|R-- .... ....|--- .... ....|--- .... ....
....|..|C-4 LF.7 ....|G#5 3F.7 ....|G#5 2F.7 ....
....|..|C-4 AF.A ....|G#5 3F.A ....|G#5 2F.A ....
 C#4|..|C-4 LF.F ....|C#5 3F.F ....|C#5 2C.F ....
....|..|C-5 VF.7 ....|G-5 3F.7 ....|G-5 2F.7 ....
....|..|C-4 LF.A ....|F-5 3F.A ....|F-5 2F.A ....
 F#4|..|C-4 AF.F ....|F#3 3F.F ....|F#3 2C.F ....
 G-3|..|G-1 2A.F ....|--- .... ....|--- .F.. ....
....|..|C-4 AF.7 ....|G#5 3F.7 ....|G#5 2F.7 ....
....|..|C#1 2F.7 ....|C#5 3F.A ....|C#5 2F.A ....
 G-4|..|C-4 AF.F ....|G-3 3F.F ....|G-3 2C.F ....
 G-3|..|G-1 2A.F ....|F-5 3F.7 ....|F-5 2F.7 ....
....|..|C-4 AF.A ....|F#3 3F.A ....|F#3 2F.A ....
 B-4|..|C-4 LF.F ....|B-3 3F.F ....|B-3 2C.F ....
....|..|R-- .... ....|--- .... ....|--- .... ....
....|..|C-4 LF.7 ....|C#5 3F.7 ....|C#5 2F.7 ....
....|..|C-4 AF.A ....|G-3 3F.A ....|G-3 2F.A ....
 C#4|..|C-4 LF.F ....|C#4 3F.F ....|C#4 2C.F ....
....|..|C-4 AF.7 ....|F#3 3F.7 ....|F#3 2F.7 ....
....|..|G-1 2F.7 ....|B-3 3F.A ....|B-3 2F.A ....
 D-4|..|C-5 VF.F ....|D-4 3F.F ....|D-4 2C.F ....
....|..|R-- .... ....|--- .... ....|--- .... ....
....|..|C-4 AF.7 ....|G-3 3F.7 ....|G-3 2F.7 ....
....|..|G-1 2F.7 ....|C#4 3F.A ....|C#4 2F.A ....
 F#3|..|C-4 LF.F ....|F#4 3F.F ....|F#4 2C.F ....
....|..|C-4 LF.7 ....|B-3 3F.7 ....|B-3 2F.7 ....
....|..|C-5 VF.A ....|D-4 3F.A ....|D-4 2F.A ....
 G-4|..|C-4 AF.F ....|G-4 3F.F ....|G-4 2C.F ....
 G-3|..|G-1 2A.F ....|--- .... ....|--- .... ....
....|..|C-4 LF.7 ....|C#4 3F.7 ....|C#4 2F.7 ....
....|..|C-4 LF.A ....|F#4 3F.A ....|F#4 2F.A ....
 B-4|..|C-4 AF.F ....|B-4 3F.F ....|B-4 2C.F ....
 G-3|..|G-1 2A.F ....|D-4 3F.7 ....|D-4 2F.7 ....
....|..|C-4 AF.A ....|G-4 3F.A ....|G-4 2F.A ....
 G-4|..|C-4 LF.F ....|G-4 3F.F ....|G-4 2C.F ....
....|..|R-- .... ....|--- .... ....|--- .... ....
....|..|C-4 LF.7 ....|F#4 3F.7 ....|F#4 2F.7 ....
....|..|C-4 AF.A ....|B-4 3F.A ....|B-4 2F.A ....
 F#3|..|C-4 LF.F ....|F#4 3F.F ....|F#4 2C.F ....
....|..|C-4 AF.7 ....|G-4 3F.7 ....|G-4 2F.7 ....
....|..|G-1 2F.7 ....|G-4 3F.A ....|G-4 2F.A ....
 G-4|..|C-4 AF.F ....|G-4 3F.F ....|G-4 2C.F ....
 G-3|..|G-1 2A.F ....|--- .... ....|--- .... ....
....|..|C-4 AF.7 ....|B-4 3F.7 ....|B-4 2F.7 ....
....|..|G-1 2F.7 ....|F#4 3F.A ....|F#4 2F.A ....
 D-4|..|C-4 LF.F ....|D-5 3F.F ....|D-5 2C.F ....
....|..|C-4 LF.7 ....|G-4 3F.7 ....|G-4 2F.7 ....
....|..|C-4 AF.A ....|G-4 3F.A ....|G-4 2F.A ....
 C#4|..|C-5 VF.F ....|C#5 3F.F ....|C#5 2C.F ....
....|..|R-- .... ....|--- .... ....|--- .... ....
....|..|C-4 LF.7 ....|F#4 3F.7 ....|F#4 2F.7 ....
....|..|C-4 LF.A ....|D-5 3F.A ....|D-5 2F.A ....
 D-4|..|C-4 AF.F ....|D-5 3F.F ....|D-5 2C.F ....
 G-3|..|G-1 2A.F ....|G-4 3F.7 ....|G-4 2F.7 ....
....|..|G-1 2F.7 ....|C#5 3F.A ....|C#5 2F.A ....
 B-4|..|C-4 LF.F ....|B-4 3F.F ....|B-4 2C.F ....
....|..|R-- .... ....|--- .... ....|--- .... ....
....|..|C-4 LF.7 ....|D-5 3F.7 ....|D-5 2F.7 ....
....|..|C-4 AF.A ....|D-5 3F.A ....|D-5 2F.A ....
 G-4|..|C-4 LF.F ....|G-4 3F.F ....|G-4 2C.F ....
....|..|C-5 VF.7 ....|C#5 3F.7 ....|C#5 2F.7 ....
....|..|C-4 LF.A ....|B-4 3F.A ....|B-4 2F.A ....
 F#3|..|C-4 AF.F ....|F#4 3F.F ....|F#4 2C.F ....
 G-3|..|G-1 2A.F ....|--- .... ....|--- .F.. ....
....|..|C-4 AF.7 ....|D-5 3F.7 ....|D-5 2F.7 ....
....|..|G-1 2F.7 ....|G-4 3F.A ....|G-4 2F.A ....
 G-4|..|C-4 AF.F ....|G-4 3F.F ....|G-4 2C.F ....
 G-3|..|G-1 2A.F ....|B-4 3F.7 ....|B-4 2F.7 ....
....|..|C-4 AF.A ....|F#4 3F.A ....|F#4 2F.A ....
 B-4|..|C-4 LF.F ....|B-4 3F.F ....|B-4 2C.F ....
....|..|R-- .... ....|--- .... ....|--- .... ....
....|..|C-4 LF.7 ....|G-4 3F.7 ....|G-4 2F.7 ....
 C#4|..|C-4 LF.F ....|C#5 3F.F ....|C#5 2C.F ....
....|..|G-1 2F.A ....|--- .... ....|--- .... ....
....|..|C-4 AF.7 ....|F#4 3F.7 ....|F#4 2F.7 ....

[Pattern46]
....|..|G-1 2F.7 ....|B-4 3F.A ....|B-4 2F.A ....
 D-4|..|C-5 VF.F ....|D-5 3F.F ....|D-5 2C.F ....
....|..|R-- .... ....|--- .... ....|--- .... ....
....|..|C-4 AF.7 ....|G-4 3F.7 ....|G-4 2F.7 ....
 F#3|..|C-4 LF.F ....|F#5 3F.F ....|F#5 2C.F ....
....|..|R-- .... ....|--- .... ....|--- .... ....
....|..|C-4 LF.7 ....|B-4 3F.7 ....|B-4 2F.7 ....
....|..|C-5 VF.A ....|D-5 3F.A ....|D-5 2F.A ....
 G-4|..|C-4 AF.F ....|G-5 3F.F ....|G-5 2C.F ....
 G-3|..|G-1 2A.F ....|C#5 3F.7 ....|C#5 2F.7 ....
....|..|C-4 LF.A ....|F#5 3F.A ....|F#5 2F.A ....
 B-4|..|C-4 AF.F ....|B-5 3F.F ....|B-5 2C.F ....
 G-3|..|G-1 2A.F ....|--- .... ....|--- .F.. ....
....|..|C-5 VF.7 ....|D-5 3F.7 ....|D-5 2F.7 ....
....|..|C-4 AF.A ....|G-5 3F.A ....|G-5 2F.A ....
 G-4|..|C-4 LF.F ....|G-5 3F.F ....|G-5 2C.F ....
....|..|C-4 LF.7 ....|F#5 3F.7 ....|F#5 2F.7 ....
....|..|C-4 AF.A ....|B-5 3F.A ....|B-5 2F.A ....
 F#3|..|C-4 LF.F ....|F#5 3F.F ....|F#5 2C.F ....
....|..|R-- .... ....|--- .... ....|--- .... ....
....|..|C-4 AF.7 ....|G-5 3F.7 ....|G-5 2F.7 ....
....|..|G-1 2F.7 ....|G-5 3F.A ....|G-5 2F.A ....
 G-4|..|C-4 AF.F ....|G-5 3F.F ....|G-5 2C.F ....
 G-3|..|G-1 2A.F ....|B-5 3F.7 ....|B-5 2F.7 ....
....|..|G-1 2F.7 ....|F#5 3F.A ....|F#5 2F.A ....
 D-4|..|C-4 LF.F ....|D-6 3F.F ....|D-6 2C.F ....
....|..|R-- .... ....|--- .... ....|--- .... ....
....|..|C-4 LF.7 ....|G-5 3F.7 ....|G-5 2F.7 ....
....|..|C-4 AF.A ....|G-5 3F.A ....|G-5 2F.A ....
 C#4|..|C-5 VF.F ....|C#6 3F.F ....|C#6 2C.F ....
....|..|C-4 LF.7 ....|F#5 3F.7 ....|F#5 2F.7 ....
....|..|C-4 LF.A ....|D-6 3F.A ....|D-6 2F.A ....
 D-4|..|C-4 AF.F ....|D-6 3F.F ....|D-6 2C.F ....
 G-3|..|G-1 2A.F ....|--- .... ....|--- .F.. ....
....|..|C-4 AF.7 ....|G-5 3F.7 ....|G-5 2F.7 ....
....|..|G-1 2F.7 ....|C#6 3F.A ....|C#6 2F.A ....
 B-4|..|C-4 LF.F ....|B-5 3F.F ....|B-5 2C.F ....
....|..|C-4 LF.7 ....|D-6 3F.7 ....|D-6 2F.7 ....
....|..|C-4 AF.A ....|D-6 3F.A ....|D-6 2F.A ....
 G-4|..|C-4 LF.F ....|G-5 3F.F ....|G-5 2C.F ....
....|..|R-- .... ....|--- .... ....|--- .... ....
....|..|C-5 VF.7 ....|C#6 3F.7 ....|C#6 2F.7 ....
....|..|C-4 LF.A ....|B-5 3F.A ....|B-5 2F.A ....
 E-4|..|C-4 AF.F ....|E-3 3F.F ....|E-3 2C.F ....
 F-3|..|F-1 2A.F ....|D-6 3F.7 ....|D-6 2F.7 ....
....|..|G-1 2F.7 ....|G-5 3F.A ....|G-5 2F.A ....
 F-4|..|C-4 AF.F ....|F-3 3F.F ....|F-3 2C.F ....
 F-3|..|F-1 2A.F ....|--- .... ....|--- .... ....
....|..|C-4 LF.7 ....|B-5 3F.7 ....|B-5 2F.7 ....
....|..|C-4 AF.A ....|E-3 3F.A ....|E-3 2F.A ....
 A-3|..|C-4 LF.F ....|A-3 3F.F ....|A-3 2C.F ....
....|..|C-4 LF.7 ....|G-5 3F.7 ....|G-5 2F.7 ....
....|..|C-4 AF.A ....|F-3 3F.A ....|F-3 2F.A ....
 B-4|..|C-4 LF.F ....|B-3 3F.F ....|B-3 2C.F ....
....|..|R-- .... ....|--- .... ....|--- .... ....
....|..|C-4 AF.7 ....|E-3 3F.7 ....|E-3 2F.7 ....
....|..|F-1 2F.7 ....|A-3 3F.A ....|A-3 2F.A ....
 C-3|..|C-5 VF.F ....|C-4 3F.F ....|C-4 2C.F ....
....|..|C-4 AF.7 ....|F-3 3F.7 ....|F-3 2F.7 ....
....|..|F-1 2F.7 ....|B-3 3F.A ....|B-3 2F.A ....
 E-4|..|C-4 LF.F ....|E-4 3F.F ....|E-4 2C.F ....
....|..|R-- .... ....|--- .... ....|--- .... ....
....|..|C-4 LF.7 ....|A-3 3F.7 ....|A-3 2F.7 ....
....|..|C-5 VF.A ....|C-4 3F.A ....|C-4 2F.A ....
 F-4|..|C-4 AF.F ....|F-4 3F.F ....|F-4 2C.F ....
 F-3|..|F-1 2A.F ....|B-3 3F.7 ....|B-3 2F.7 ....
....|..|C-4 LF.A ....|E-4 3F.A ....|E-4 2F.A ....
 A-3|..|C-4 AF.F ....|A-4 3F.F ....|A-4 2C.F ....
 F-3|..|F-1 2A.F ....|--- .... ....|--- .F.. ....
....|..|C-5 VF.7 ....|C-4 3F.7 ....|C-4 2F.7 ....
....|..|C-4 AF.A ....|F-4 3F.A ....|F-4 2F.A ....
 F-4|..|C-4 LF.F ....|F-4 3F.F ....|F-4 2C.F ....
....|..|C-4 LF.7 ....|E-4 3F.7 ....|E-4 2F.7 ....
....|..|C-4 AF.A ....|A-4 3F.A ....|A-4 2F.A ....
 E-4|..|C-4 LF.F ....|E-4 3F.F ....|E-4 2C.F ....
....|..|R-- .... ....|--- .... ....|--- .... ....
....|..|C-4 AF.7 ....|F-4 3F.7 ....|F-4 2F.7 ....
....|..|F-1 2F.7 ....|F-4 3F.A ....|F-4 2F.A ....
 F-4|..|C-4 AF.F ....|F-4 3F.F ....|F-4 2C.F ....
 F-3|..|F-1 2A.F ....|A-4 3F.7 ....|A-4 2F.7 ....
....|..|F-1 2F.7 ....|E-4 3F.A ....|E-4 2F.A ....
 C-3|..|C-4 LF.F ....|C-5 3F.F ....|C-5 2C.F ....
....|..|R-- .... ....|--- .... ....|--- .... ....
....|..|C-4 LF.7 ....|F-4 3F.7 ....|F-4 2F.7 ....
....|..|C-4 AF.A ....|F-4 3F.A ....|F-4 2F.A ....
 B-4|..|C-5 VF.F ....|B-4 3F.F ....|B-4 2C.F ....
....|..|C-4 LF.7 ....|E-4 3F.7 ....|E-4 2F.7 ....
....|..|C-4 LF.A ....|C-5 3F.A ....|C-5 2F.A ....
 C-3|..|C-4 AF.F ....|C-5 3F.F ....|C-5 2C.F ....
 F-3|..|F-1 2A.F ....|--- .... ....|--- .F.. ....
....|..|C-4 AF.7 ....|F-4 3F.7 ....|F-4 2F.7 ....
....|..|F-1 2F.7 ....|B-4 3F.A ....|B-4 2F.A ....
 A-3|..|C-4 LF.F ....|A-4 3F.F ....|A-4 2C.F ....
....|..|C-4 LF.7 ....|C-5 3F.7 ....|C-5 2F.7 ....
....|..|C-4 AF.A ....|C-5 3F.A ....|C-5 2F.A ....
 F-4|..|C-4 LF.F ....|F-4 3F.F ....|F-4 2C.F ....
....|..|R-- .... ....|--- .... ....|--- .... ....
....|..|C-5 VF.7 ....|B-4 3F.7 ....|B-4 2F.7 ....
....|..|C-4 LF.A ....|A-4 3F.A ....|A-4 2F.A ....
 E-4|..|C-4 AF.F ....|E-4 3F.F ....|E-4 2C.F ....
 F-3|..|F-1 2A.F ....|C-5 3F.7 ....|C-5 2F.7 ....
....|..|F-1 2F.7 ....|F-4 3F.A ....|F-4 2F.A ....
 F-4|..|C-4 AF.F ....|F-4 3F.F ....|F-4 2C.F ....
 F-3|..|F-1 2A.F ....|--- .... ....|--- .... ....
....|..|C-4 LF.7 ....|A-4 3F.7 ....|A-4 2F.7 ....
....|..|C-4 AF.A ....|E-4 3F.A ....|E-4 2F.A ....
 A-3|..|C-4 LF.F ....|A-4 3F.F ....|A-4 2C.F ....
....|..|C-4 LF.7 ....|F-4 3F.7 ....|F-4 2F.7 ....
....|..|C-4 AF.A ....|F-4 3F.A ....|F-4 2F.A ....
 B-4|..|C-4 LF.F ....|B-4 3F.F ....|B-4 2C.F ....
....|..|R-- .... ....|--- .... ....|--- .... ....
....|..|C-4 AF.7 ....|E-4 3F.7 ....|E-4 2F.7 ....
....|..|F-1 2F.7 ....|A-4 3F.A ....|A-4 2F.A ....
 C-3|..|C-5 VF.F ....|C-5 3F.F ....|C-5 2C.F ....
....|..|C-4 AF.7 ....|F-4 3F.7 ....|F-4 2F.7 ....
....|..|F-1 2F.7 ....|B-4 3F.A ....|B-4 2F.A ....
 E-4|..|C-4 LF.F ....|E-5 3F.F ....|E-5 2C.F ....
....|..|R-- .... ....|--- .... ....|--- .... ....
....|..|C-4 LF.7 ....|A-4 3F.7 ....|A-4 2F.7 ....
....|..|C-5 VF.A ....|C-5 3F.A ....|C-5 2F.A ....
 F-4|..|C-4 AF.F ....|F-5 3F.F ....|F-5 2C.F ....
 F-3|..|F-1 2A.F ....|B-4 3F.7 ....|B-4 2F.7 ....
....|..|C-4 LF.A ....|E-5 3F.A ....|E-5 2F.A ....
 A-3|..|C-4 AF.F ....|A-5 3F.F ....|A-5 2C.F ....
 F-3|..|F-1 2A.F ....|--- .... ....|--- .F.. ....
....|..|C-5 VF.7 ....|C-5 3F.7 ....|C-5 2F.7 ....
....|..|C-4 AF.A ....|F-5 3F.A ....|F-5 2F.A ....
 F-4|..|C-4 LF.F ....|F-5 3F.F ....|F-5 2C.F ....

[Pattern47]
....|..|C-4 LF.7 ....|E-5 3F.7 ....|E-5 2F.7 ....
....|..|C-4 AF.A ....|A-5 3F.A ....|A-5 2F.A ....
 E-4|..|C-4 LF.F ....|E-5 3F.F ....|E-5 2C.F ....
....|..|R-- .... ....|--- .... ....|--- .... ....
....|..|C-4 AF.7 ....|F-5 3F.7 ....|F-5 2F.7 ....
....|..|F-1 2F.7 ....|F-5 3F.A ....|F-5 2F.A ....
 F-4|..|C-4 AF.F ....|F-5 3F.F ....|F-5 2C.F ....
 F-3|..|F-1 2A.F ....|A-5 3F.7 ....|A-5 2F.7 ....
....|..|F-1 2F.7 ....|E-5 3F.A ....|E-5 2F.A ....
 C-3|..|C-4 LF.F ....|C-6 3F.F ....|C-6 2C.F ....
....|..|R-- .... ....|--- .... ....|--- .... ....
....|..|C-4 LF.7 ....|F-5 3F.7 ....|F-5 2F.7 ....
....|..|C-4 AF.A ....|F-5 3F.A ....|F-5 2F.A ....
 B-4|..|C-5 VF.F ....|B-5 3F.F ....|B-5 2C.F ....
....|..|C-4 LF.7 ....|E-5 3F.7 ....|E-5 2F.7 ....
....|..|C-4 LF.A ....|C-6 3F.A ....|C-6 2F.A ....
 C-3|..|C-4 AF.F ....|C-6 3F.F ....|C-6 2C.F ....
 F-3|..|F-1 2A.F ....|--- .... ....|--- .F.. ....
....|..|C-4 AF.7 ....|F-5 3F.7 ....|F-5 2F.7 ....
....|..|F-1 2F.7 ....|B-5 3F.A ....|B-5 2F.A ....
 A-3|..|C-4 LF.F ....|A-5 3F.F ....|A-5 2C.F ....
....|..|C-4 LF.7 ....|C-6 3F.7 ....|C-6 2F.7 ....
....|..|C-4 AF.A ....|C-6 3F.A ....|C-6 2F.A ....
 F-4|..|C-4 LF.F ....|F-5 3F.F ....|F-5 2C.F ....
....|..|R-- .... ....|--- .... ....|--- .... ....
....|..|C-5 VF.7 ....|B-5 3F.7 ....|B-5 2F.7 ....
....|..|C-4 LF.A ....|A-5 3F.A ....|A-5 2F.A ....
 D-4|..|C-4 AF.F ....|D-3 3F.F ....|D-3 2C.F ....
 D#3|..|D#1 2A.F ....|C-6 3F.7 ....|C-6 2F.7 ....
....|..|F-1 2F.7 ....|F-5 3F.A ....|F-5 2F.A ....
 D#4|..|C-4 AF.F ....|D#3 3F.F ....|D#3 2C.F ....
 D#3|..|D#1 2A.F ....|--- .... ....|--- .... ....
....|..|C-4 LF.7 ....|A-5 3F.7 ....|A-5 2F.7 ....
....|..|C-4 AF.A ....|D-3 3F.A ....|D-3 2F.A ....
 G-4|..|C-4 LF.F ....|G-3 3F.F ....|G-3 2C.F ....
....|..|C-4 LF.7 ....|F-5 3F.7 ....|F-5 2F.7 ....
....|..|C-4 AF.A ....|D#3 3F.A ....|D#3 2F.A ....
 A-3|..|C-4 LF.F ....|A-3 3F.F ....|A-3 2C.F ....
....|..|R-- .... ....|--- .... ....|--- .... ....
....|..|C-4 AF.7 ....|D-3 3F.7 ....|D-3 2F.7 ....
....|..|D#1 2F.7 ....|G-3 3F.A ....|G-3 2F.A ....
 A#3|..|C-5 VF.F ....|A#3 3F.F ....|A#3 2C.F ....
....|..|C-4 AF.7 ....|D#3 3F.7 ....|D#3 2F.7 ....
....|..|D#1 2F.7 ....|A-3 3F.A ....|A-3 2F.A ....
 D-4|..|C-4 LF.F ....|D-4 3F.F ....|D-4 2C.F ....
....|..|R-- .... ....|--- .... ....|--- .... ....
....|..|C-4 LF.7 ....|G-3 3F.7 ....|G-3 2F.7 ....
....|..|C-5 VF.A ....|A#3 3F.A ....|A#3 2F.A ....
 D#4|..|C-4 AF.F ....|D#4 3F.F ....|D#4 2C.F ....
 D#3|..|D#1 2A.F ....|A-3 3F.7 ....|A-3 2F.7 ....
....|..|C-4 LF.A ....|D-4 3F.A ....|D-4 2F.A ....
 G-4|..|C-4 AF.F ....|G-4 3F.F ....|G-4 2C.F ....
 D#3|..|D#1 2A.F ....|--- .... ....|--- .F.. ....
....|..|C-5 VF.7 ....|A#3 3F.7 ....|A#3 2F.7 ....
....|..|C-4 AF.A ....|D#4 3F.A ....|D#4 2F.A ....
 D#4|..|C-4 LF.F ....|D#4 3F.F ....|D#4 2C.F ....
....|..|C-4 LF.7 ....|D-4 3F.7 ....|D-4 2F.7 ....
....|..|C-4 AF.A ....|G-4 3F.A ....|G-4 2F.A ....
 D-4|..|C-4 LF.F ....|D-4 3F.F ....|D-4 2C.F ....
....|..|R-- .... ....|--- .... ....|--- .... ....
....|..|C-4 AF.7 ....|D#4 3F.7 ....|D#4 2F.7 ....
....|..|D#1 2F.7 ....|D#4 3F.A ....|D#4 2F.A ....
 D#4|..|C-4 AF.F ....|D#4 3F.F ....|D#4 2C.F ....
 D#3|..|D#1 2A.F ....|G-4 3F.7 ....|G-4 2F.7 ....
....|..|D#1 2F.7 ....|D-4 3F.A ....|D-4 2F.A ....
 A#3|..|C-4 LF.F ....|A#4 3F.F ....|A#4 2C.F ....
....|..|R-- .... ....|--- .... ....|--- .... ....
....|..|C-4 LF.7 ....|D#4 3F.7 ....|D#4 2F.7 ....
....|..|C-4 AF.A ....|D#4 3F.A ....|D#4 2F.A ....
 A-3|..|C-5 VF.F ....|A-4 3F.F ....|A-4 2C.F ....
....|..|C-4 LF.7 ....|D-4 3F.7 ....|D-4 2F.7 ....
....|..|C-4 LF.A ....|A#4 3F.A ....|A#4 2F.A ....
 A#3|..|C-4 AF.F ....|A#4 3F.F ....|A#4 2C.F ....
 D#3|..|D#1 2A.F ....|--- .... ....|--- .F.. ....
....|..|C-4 AF.7 ....|D#4 3F.7 ....|D#4 2F.7 ....
....|..|D#1 2F.7 ....|A-4 3F.A ....|A-4 2F.A ....
 G-4|..|C-4 LF.F ....|G-4 3F.F ....|G-4 2C.F ....
....|..|C-4 LF.7 ....|A#4 3F.7 ....|A#4 2F.7 ....
....|..|C-4 AF.A ....|A#4 3F.A ....|A#4 2F.A ....
 D#4|..|C-4 LF.F ....|D#4 3F.F ....|D#4 2C.F ....
....|..|R-- .... ....|--- .... ....|--- .... ....
....|..|C-5 VF.7 ....|A-4 3F.7 ....|A-4 2F.7 ....
....|..|C-4 LF.A ....|G-4 3F.A ....|G-4 2F.A ....
 D-4|..|C-4 AF.F ....|D-4 3F.F ....|D-4 2C.F ....
 D#3|..|D#1 2A.F ....|A#4 3F.7 ....|A#4 2F.7 ....
....|..|D#1 2F.7 ....|D#4 3F.A ....|D#4 2F.A ....
 D#4|..|C-4 AF.F ....|D#4 3F.F ....|D#4 2C.F ....
 D#3|..|D#1 2A.F ....|--- .... ....|--- .... ....
....|..|C-4 LF.7 ....|G-4 3F.7 ....|G-4 2F.7 ....
....|..|C-4 AF.A ....|D-4 3F.A ....|D-4 2F.A ....
 G-4|..|C-4 LF.F ....|G-4 3F.F ....|G-4 2C.F ....
....|..|C-4 LF.7 ....|D#4 3F.7 ....|D#4 2F.7 ....
....|..|C-4 AF.A ....|D#4 3F.A ....|D#4 2F.A ....
 A-3|..|C-4 LF.F ....|A-4 3F.F ....|A-4 2C.F ....
....|..|R-- .... ....|--- .... ....|--- .... ....
....|..|C-4 AF.7 ....|D-4 3F.7 ....|D-4 2F.7 ....
....|..|D#1 2F.7 ....|G-4 3F.A ....|G-4 2F.A ....
 A#3|..|C-5 VF.F ....|A#4 3F.F ....|A#4 2C.F ....
....|..|C-4 AF.7 ....|D#4 3F.7 ....|D#4 2F.7 ....
....|..|D#1 2F.7 ....|A-4 3F.A ....|A-4 2F.A ....
 D-4|..|C-4 LF.F ....|D-5 3F.F ....|D-5 2C.F ....
....|..|R-- .... ....|--- .... ....|--- .... ....
....|..|C-4 LF.7 ....|G-4 3F.7 ....|G-4 2F.7 ....
....|..|C-5 VF.A ....|A#4 3F.A ....|A#4 2F.A ....
 D#4|..|C-4 AF.F ....|D#5 3F.F ....|D#5 2C.F ....
 D#3|..|D#1 2A.F ....|A-4 3F.7 ....|A-4 2F.7 ....
....|..|C-4 LF.A ....|D-5 3F.A ....|D-5 2F.A ....
 G-4|..|C-4 AF.F ....|G-5 3F.F ....|G-5 2C.F ....
 D#3|..|D#1 2A.F ....|--- .... ....|--- .F.. ....
....|..|C-5 VF.7 ....|A#4 3F.7 ....|A#4 2F.7 ....
....|..|C-4 AF.A ....|D#5 3F.A ....|D#5 2F.A ....
 D#4|..|C-4 LF.F ....|D#5 3F.F ....|D#5 2C.F ....
....|..|C-4 LF.7 ....|D-5 3F.7 ....|D-5 2F.7 ....
....|..|C-4 AF.A ....|G-5 3F.A ....|G-5 2F.A ....
 D-4|..|C-4 LF.F ....|D-5 3F.F ....|D-5 2C.F ....
....|..|R-- .... ....|--- .... ....|--- .... ....
....|..|C-4 AF.7 ....|D#5 3F.7 ....|D#5 2F.7 ....
....|..|D#1 2F.7 ....|D#5 3F.A ....|D#5 2F.A ....
 D#4|..|C-4 AF.F ....|D#5 3F.F ....|D#5 2C.F ....
 D#3|..|D#1 2A.F ....|G-5 3F.7 ....|G-5 2F.7 ....
....|..|D#1 2F.7 ....|D-5 3F.A ....|D-5 2F.A ....
 A#3|..|C-4 LF.F ....|A#5 3F.F ....|A#5 2C.F ....
....|..|R-- .... ....|--- .... ....|--- .... ....
....|..|C-4 LF.7 ....|D#5 3F.7 ....|D#5 2F.7 ....
....|..|C-4 AF.A ....|D#5 3F.A ....|D#5 2F.A ....
 A-3|..|C-5 VF.F ....|A-5 3F.F ....|A-5 2C.F ....
....|..|C-4 LF.7 ....|D-5 3F.7 ....|D-5 2F.7 ....
....|..|C-4 LF.A ....|A#5 3F.A ....|A#5 2F.A ....

[Pattern48]
 A#3|..|C-4 AF.F ....|A#5 3F.F ....|A#5 2C.F ....
 D#3|..|D#1 2A.F ....|--- .... ....|--- .F.. ....
....|..|C-4 AF.7 ....|D#5 3F.7 ....|D#5 2F.7 ....
....|..|D#1 2F.7 ....|A-5 3F.A ....|A-5 2F.A ....
 G-4|..|C-4 LF.F ....|G-5 3F.F ....|G-5 2C.F ....
....|..|C-4 LF.7 ....|A#5 3F.7 ....|A#5 2F.7 ....
....|..|C-4 AF.A ....|A#5 3F.A ....|A#5 2F.A ....
 D#4|..|C-4 LF.F ....|D#5 3F.F ....|D#5 2C.F ....
....|..|R-- .... ....|--- .... ....|--- .... ....
....|..|C-5 VF.7 ....|A-5 3F.7 ....|A-5 2F.7 ....
....|..|C-4 LF.A ....|G-5 3F.A ....|G-5 2F.A ....
 C-3|..|C-4 AF.F ....|C-3 3F.F ....|C-3 2C.F ....
 C#3|..|C#1 2A.F ....|A#5 3F.7 ....|A#5 2F.7 ....
....|..|D#1 2F.7 ....|D#5 3F.A ....|D#5 2F.A ....
 C#4|..|C-4 AF.F ....|C#3 3F.F ....|C#3 2C.F ....
 C#3|..|C#1 2A.F ....|--- .... ....|--- .... ....
....|..|C-4 LF.7 ....|G-5 3F.7 ....|G-5 2F.7 ....
....|..|C-4 AF.A ....|C-3 3F.A ....|C-3 2F.A ....
 F-4|..|C-4 LF.F ....|F-3 3F.F ....|F-3 2C.F ....
....|..|C-4 LF.7 ....|D#5 3F.7 ....|D#5 2F.7 ....
....|..|C-4 AF.A ....|C#3 3F.A ....|C#3 2F.A ....
 G-4|..|C-4 LF.F ....|G-3 3F.F ....|G-3 2C.F ....
....|..|R-- .... ....|--- .... ....|--- .... ....
....|..|C-4 AF.7 ....|C-3 3F.7 ....|C-3 2F.7 ....
....|..|C#1 2F.7 ....|F-3 3F.A ....|F-3 2F.A ....
 G#4|..|C-5 VF.F ....|G#3 3F.F ....|G#3 2C.F ....
....|..|C-4 AF.7 ....|C#3 3F.7 ....|C#3 2F.7 ....
....|..|C#1 2F.7 ....|G-3 3F.A ....|G-3 2F.A ....
 C-3|..|C-4 LF.F ....|C-4 3F.F ....|C-4 2C.F ....
....|..|R-- .... ....|--- .... ....|--- .... ....
....|..|C-4 LF.7 ....|F-3 3F.7 ....|F-3 2F.7 ....
....|..|C-5 VF.A ....|G#3 3F.A ....|G#3 2F.A ....
 C#4|..|C-4 AF.F ....|C#4 3F.F ....|C#4 2C.F ....
 C#3|..|C#1 2A.F ....|G-3 3F.7 ....|G-3 2F.7 ....
....|..|C-4 LF.A ....|C-4 3F.A ....|C-4 2F.A ....
 F-4|..|C-4 AF.F ....|F-4 3F.F ....|F-4 2C.F ....
 C#3|..|C#1 2A.F ....|--- .... ....|--- .F.. ....
....|..|C-5 VF.7 ....|G#3 3F.7 ....|G#3 2F.7 ....
....|..|C-4 AF.A ....|C#4 3F.A ....|C#4 2F.A ....
 C#4|..|C-4 LF.F ....|C#4 3F.F ....|C#4 2C.F ....
....|..|C-4 LF.7 ....|C-4 3F.7 ....|C-4 2F.7 ....
....|..|C-4 AF.A ....|F-4 3F.A ....|F-4 2F.A ....
 C-3|..|C-4 LF.F ....|C-4 3F.F ....|C-4 2C.F ....
....|..|R-- .... ....|--- .... ....|--- .... ....
....|..|C-4 AF.7 ....|C#4 3F.7 ....|C#4 2F.7 ....
....|..|C#1 2F.7 ....|C#4 3F.A ....|C#4 2F.A ....
 C#4|..|C-4 AF.F ....|C#4 3F.F ....|C#4 2C.F ....
 C#3|..|C#1 2A.F ....|F-4 3F.7 ....|F-4 2F.7 ....
....|..|C#1 2F.7 ....|C-4 3F.A ....|C-4 2F.A ....
 G#4|..|C-4 LF.F ....|G#4 3F.F ....|G#4 2C.F ....
....|..|R-- .... ....|--- .... ....|--- .... ....
....|..|C-4 LF.7 ....|C#4 3F.7 ....|C#4 2F.7 ....
....|..|C-4 AF.A ....|C#4 3F.A ....|C#4 2F.A ....
 G-4|..|C-5 VF.F ....|G-4 3F.F ....|G-4 2C.F ....
....|..|C-4 LF.7 ....|C-4 3F.7 ....|C-4 2F.7 ....
....|..|C-4 LF.A ....|G#4 3F.A ....|G#4 2F.A ....
 G#4|..|C-4 AF.F ....|G#4 3F.F ....|G#4 2C.F ....
 C#3|..|C#1 2A.F ....|--- .... ....|--- .F.. ....
....|..|C-4 AF.7 ....|C#4 3F.7 ....|C#4 2F.7 ....
....|..|C#1 2F.7 ....|G-4 3F.A ....|G-4 2F.A ....
 F-4|..|C-4 LF.F ....|F-4 3F.F ....|F-4 2C.F ....
....|..|C-4 LF.7 ....|G#4 3F.7 ....|G#4 2F.7 ....
....|..|C-4 AF.A ....|G#4 3F.A ....|G#4 2F.A ....
 C#4|..|C-4 LF.F ....|C#4 3F.F ....|C#4 2C.F ....
....|..|R-- .... ....|--- .... ....|--- .... ....
....|..|C-5 VF.7 ....|G-4 3F.7 ....|G-4 2F.7 ....
....|..|C-4 LF.A ....|F-4 3F.A ....|F-4 2F.A ....
 C-3|..|C-4 AF.F ....|C-4 3F.F ....|C-4 2C.F ....
 C#3|..|C#1 2A.F ....|G#4 3F.7 ....|G#4 2F.7 ....
....|..|C#1 2F.7 ....|C#4 3F.A ....|C#4 2F.A ....
 C#4|..|C-4 AF.F ....|C#4 3F.F ....|C#4 2C.F ....
 C#3|..|C#1 2A.F ....|--- .... ....|--- .... ....
....|..|C-4 LF.7 ....|F-4 3F.7 ....|F-4 2F.7 ....
....|..|C-4 AF.A ....|C-4 3F.A ....|C-4 2F.A ....
 F-4|..|C-4 LF.F ....|F-4 3F.F ....|F-4 2C.F ....
....|..|C-4 LF.7 ....|C#4 3F.7 ....|C#4 2F.7 ....
....|..|C-4 AF.A ....|C#4 3F.A ....|C#4 2F.A ....
 G-4|..|C-4 LF.F ....|G-4 3F.F ....|G-4 2C.F ....
....|..|R-- .... ....|--- .... ....|--- .... ....
....|..|C-4 AF.7 ....|C-4 3F.7 ....|C-4 2F.7 ....
....|..|C#1 2F.7 ....|F-4 3F.A ....|F-4 2F.A ....
 G#4|..|C-5 VF.F ....|G#4 3F.F ....|G#4 2C.F ....
....|..|C-4 AF.7 ....|C#4 3F.7 ....|C#4 2F.7 ....
....|..|C#1 2F.7 ....|G-4 3F.A ....|G-4 2F.A ....
 C-3|..|C-4 LF.F ....|C-5 3F.F ....|C-5 2C.F ....
....|..|R-- .... ....|--- .... ....|--- .... ....
....|..|C-4 LF.7 ....|F-4 3F.7 ....|F-4 2F.7 ....
....|..|C-5 VF.A ....|G#4 3F.A ....|G#4 2F.A ....
 C#4|..|C-4 AF.F ....|C#5 3F.F ....|C#5 2C.F ....
 C#3|..|C#1 2A.F ....|G-4 3F.7 ....|G-4 2F.7 ....
....|..|C-4 LF.A ....|C-5 3F.A ....|C-5 2F.A ....
 F-4|..|C-4 AF.F ....|F-5 3F.F ....|F-5 2C.F ....
 C#3|..|C#1 2A.F ....|--- .... ....|--- .F.. ....
....|..|C-5 VF.7 ....|G#4 3F.7 ....|G#4 2F.7 ....
....|..|C-4 AF.A ....|C#5 3F.A ....|C#5 2F.A ....
 C#4|..|C-4 LF.F ....|C#5 3F.F ....|C#5 2C.F ....
....|..|C-4 LF.7 ....|C-5 3F.7 ....|C-5 2F.7 ....
....|..|C-4 AF.A ....|F-5 3F.A ....|F-5 2F.A ....
 C-3|..|C-4 LF.F ....|C-5 3F.F ....|C-5 2C.F ....
....|..|R-- .... ....|--- .... ....|--- .... ....
....|..|C-4 AF.7 ....|C#5 3F.7 ....|C#5 2F.7 ....
....|..|C#1 2F.7 ....|C#5 3F.A ....|C#5 2F.A ....
 C#4|..|C-4 AF.F ....|C#5 3F.F ....|C#5 2C.F ....
 C#3|..|C#1 2A.F ....|F-5 3F.7 ....|F-5 2F.7 ....
....|..|C#1 2F.7 ....|C-5 3F.A ....|C-5 2F.A ....
 G#4|..|C-4 LF.F ....|G#5 3F.F ....|G#5 2C.F ....
....|..|R-- .... ....|--- .... ....|--- .... ....
....|..|C-4 LF.7 ....|C#5 3F.7 ....|C#5 2F.7 ....
....|..|C-4 AF.A ....|C#5 3F.A ....|C#5 2F.A ....
 G-4|..|C-5 VF.F ....|G-5 3F.F ....|G-5 2C.F ....
....|..|C-4 LF.7 ....|C-5 3F.7 ....|C-5 2F.7 ....
....|..|C-4 LF.A ....|G#5 3F.A ....|G#5 2F.A ....
 G#4|..|C-4 AF.F ....|G#5 3F.F ....|G#5 2C.F ....
 C#3|..|C#1 2A.F ....|--- .... ....|--- .F.. ....
....|..|C-4 AF.7 ....|C#5 3F.7 ....|C#5 2F.7 ....
....|..|C#1 2F.7 ....|G-5 3F.A ....|G-5 2F.A ....
 F-4|..|C-4 LF.F ....|F-5 3F.F ....|F-5 2C.F ....
....|..|C-4 LF.7 ....|G#5 3F.7 ....|G#5 2F.7 ....
....|..|C-4 AF.A ....|G#5 3F.A ....|G#5 2F.A ....
 C#4|..|C-4 LF.F ....|C#5 3F.F ....|C#5 2C.F ....
....|..|R-- .... ....|--- .... ....|--- .... ....
....|..|C-5 VF.7 ....|G-5 3F.7 ....|G-5 2F.7 ....
....|..|C-4 LF.A ....|F-5 3F.A ....|F-5 2F.A ....
....|..|R-- .... ....|R-- .... ....|R-- .... ....
....|..|C-4 AF.7 ....|G#5 3F.7 ....|G#5 2F.7 ....
....|..|C#1 2F.7 ....|C#5 3F.A ....|C#5 2F.A ....
....|..|R-- .... ....|--- .... ....|--- .... ....
....|..|--- .... ....|--- .... ....|--- .... ....

[Pattern49]
....|..|C-4 LF.7 ....|F-5 3F.7 ....|F-5 2F.7 ....
....|..|R-- .... ....|R-- .... ....|R-- .... ....
....|..|--- .... ....|--- .... ....|--- .... ....
....|..|C-4 LF.7 ....|C#5 3F.7 ....|C#5 2F.7 ....
....|..|R-- .... ....|--- .... ....|--- .... ....
....|..|--- .... ....|--- .... ....|--- .... ....
....|..|--- .... ....|--- .... ....|--- .... ....
