[Module]
VortexTrackerII=0
Version=3.5
Title=1m,2me-10me+,5p
Author=oisee ^ 4d 29.05.2010
NoteTable=4
ChipFreq=1750000
Speed=4
PlayOrder=L0,1,2,3,4,5,6,7,8,9,10,11,12,13,14,15,16


[Ornament1]
L0,0,4,4,7,7

[Ornament2]
L0,0,3,3,8,8

[Ornament3]
L0,0,3,3,5,5,7,7

[Ornament4]
L0,0,3,3,7,7

[Ornament5]
L0,0,3,3

[Ornament6]
L0,0,3,3,6,6

[Ornament7]
L0,0,5,5

[Ornament8]
L0,0,1,1,3,3,5,5,8,8

[Ornament9]
L0,0,5,5,9,9

[Ornament10]
L0,0,4,4

[Ornament11]
L0,0,2,2,4,4,7,7

[Ornament12]
L0,0,5,5,7,7,9,9

[Ornament13]
L0,0,2,2,5,5

[Ornament14]
L0,0,2,2,4,4

[Ornament15]
L0,0,2,2


[Sample1]
TnE +000_ +00_ F_
TnE +000_ +00_ F_
TnE +000_ +00_ F_
TnE +000_ +00_ D_
TnE +000_ +00_ B_
TnE +000_ +00_ B_ L

[Sample2]
TnE +000_ +00_ F_ L

[Sample3]
TnE +001_ +00_ F_
TnE +002_ +00_ F_
TnE +001_ +00_ E_
TnE +002_ +00_ E_
TnE +000_ +00_ E_ L
TnE -001_ +00_ E_
TnE -002_ +00_ E_
TnE -001_ +00_ E_
TnE +000_ +00_ E_
TnE +001_ +00_ E_
TnE +002_ +00_ E_
TnE +001_ +00_ E_

[Sample4]
TnE +002_ +00_ D_
TnE +002_ +00_ D_
TnE +002_ +00_ C_
TnE +002_ +00_ B_
TnE +002_ +00_ A_ L
TnE +002_ +00_ A_
TnE +002_ +00_ A_
TnE +002_ +00_ A_
TnE +002_ +00_ A_
TnE +002_ +00_ A_
TnE +002_ +00_ A_
TnE +002_ +00_ A_

[Sample5]
TnE +000_ +00_ F_
TnE +000_ +00_ F_
tne +000_ +00_ 0_ L

[Sample6]
TnE -001_ +00_ F_ L

[Sample7]
TnE +006_ +00_ F_ L

[Sample8]
tNe +000_ +00_ F_
tNe +000_ +00_ B_
tNe +000_ +00_ 7_
tNe +000_ +00_ 6- L

[Sample9]
TnE +080_ +00_ F_
TnE +100_ +00_ E_
TnE +180_ +00_ E_
TnE +200_ +00_ E_
TnE +240_ +00_ D_
TnE +280_ +00_ D_
TnE +2C0_ +00_ D_
TnE +300_ +00_ C_
TnE +300_ +00_ C_
TnE +340_ +00_ C_
TnE +340_ +00_ C_
TnE +380_ +00_ B_
TnE +380_ +00_ B_
TnE +400_ +00_ B_
TnE +400_ +00_ B_
TnE +480_ +00_ A_
TnE +500_ +00_ 9_
TnE +580_ +00_ 7_
TnE +600_ +00_ 4_
TnE +680_ +00_ 1_
TnE +000_ +00_ 0_ L

[Sample10]
Tne +1C0_ +00_ F_
Tne +280_ +00_ E_
Tne +380_ +00_ C_
Tne +440_ +00_ A_
Tne +480_ +00_ 8_
TnE +000_ +00_ 0_ L

[Sample11]
TNe +200_ -0A_ F_
tNe +000_ +0F_ A_
TNe +200_ -07_ E_
tNe +000_ +0E_ B- L

[Sample12]
TNE +0A0_ +05_ F_
TNE +140_ +02_ D_
TNE +140_ +02_ B_
TNE +100_ +00_ A_ L
TNE +140_ +00_ A_
TNE +200_ +00_ A-

[Sample13]
Tne +200_ +00_ F_
Tne +2C0_ +00_ F_
Tne +380_ +00_ E_
Tne +500_ +00_ C_
Tne +520_ +00_ 9_
tne +000_ +00_ 0_ L

[Sample14]
TNE -100_ +00_ F_
TNE -100_ +00_ D_
TNE -100_ +00_ A_
TNE -100_ +00_ 5_
tne +000_ +00_ 0_ L

[Sample15]
TNE -100_ +00_ 5_
TNE -100_ +00_ 8_
TNE -100_ +00_ B_
TNE -100_ +00_ F_
TNe -100_ +00_ 9- L

[Sample16]
TnE +000_ +00_ C_
TnE +000_ +00_ E_
TnE +000_ +00_ F_
TnE +000_ +00_ F_
TnE +000_ +00_ E_
TnE +000_ +00_ D_
TnE +000_ +00_ C_
TnE +000_ +00_ C_ L
TnE +001_ +00_ C_
TnE +002_ +00_ C_
TnE +003_ +00_ C_
TnE +001_ +00_ C_
TnE +000_ +00_ C_
TnE -001_ +00_ C_
TnE -002_ +00_ C_
TnE -003_ +00_ C_
TnE -001_ +00_ C_
TnE +000_ +00_ C_
TnE +000_ +00_ C_

[Sample17]
Tne +1C0_ +00_ F_
Tne +280_ +00_ D_
Tne +380_ +00_ 7_
TNE +000_ +00_ 0_ L

[Sample18]
TnE -00C_ +00_ 0_ L

[Sample19]
TNe +000_ +00_ F_
TNe +000_ +00_ C_
TNe +000_ +00_ 6_
TNe +000_ +01_ A- L

[Sample20]
TNE +140_ +00_ F_
tNE +000_ +00_ B- L

[Sample21]
tNE +000_ +00_ D_
tNE +000_ +00_ 8_
tNE +000_ +00_ 1_
TNE +000_ +00_ 0_ L

[Sample22]
TnE +000_ +00_ D_ L
TnE +000_ +00_ D_
tne +000_ +00_ 9_
tne +000_ +00_ 9_
TnE +000_ +00_ D_
TnE +000_ +00_ D_
tne +000_ +00_ 9_
tne +000_ +00_ 9_
TnE +000_ +00_ D_
TnE +000_ +00_ D_
TnE +000_ +00_ D_
TnE +000_ +00_ D_
TnE +000_ +00_ D_
TnE +000_ +00_ D_
tne +000_ +00_ 9_
tne +000_ +00_ 9_

[Sample23]
TnE +000_ +00_ F_ L
TnE +010_ +01_ F_
TnE +010_ +01_ F_
TnE +010_ +01_ F_
TnE +010_ +01_ F_
TnE +000_ +00_ F_
TnE +000_ +00_ F_
TnE -010_ -01_ F_
TnE -010_ -01_ F_
TnE -010_ -01_ F_
TnE -010_ -01_ F_
TnE +000_ +00_ F_

[Sample24]
TNe +000_ -01_ C_
TNe +000_ -01_ D_
TNe +000_ -01_ E_
TNe +000_ -01_ F_
TNe +000_ -01_ F_
TNe +000_ -01_ F_
TNe +000_ -01_ F_
TNe +000_ -01_ F_
TNe +000_ -01_ E_
TNe +000_ -01_ E_
TNe +000_ -01_ E_
TNe +000_ -01_ F_
TNe +000_ -01_ F_ L

[Sample25]
TNE +000_ +00_ F_
TNE +000_ +00_ F_ L
TNE +000_ +00_ F_
TNE +000_ +00_ F_
TNE +000_ +00_ F-

[Sample26]
tne +000_ +00_ 0_ L

[Sample27]
TnE +100_ +05_ F_
TnE +200_ +02_ A_
TnE +300_ +02_ 7_
TNE +400_ +00_ 3- L

[Sample28]
tne +000_ +00_ 0_ L

[Sample29]
tnE +000_ +00_ 0_ L

[Sample30]
TNE +000_ +00_ C+ L

[Sample31]
TNe +1C0_ +00_ F_
Tne +280_ +00_ E_
Tne +380_ +00_ C_
Tne +440_ +00_ A_
Tne +480_ +00_ 8_
TnE +000_ +00_ 0_ L

[Pattern0]
....|..|--- .... ....|--- .... ....|--- .... ....
....|..|--- .... ....|--- .... ....|--- .... ....
....|..|--- .... ....|--- .... ....|--- .... ....
....|..|--- .... ....|--- .... ....|--- .... ....
....|..|--- .... ....|--- .... ....|--- .... ....
....|..|--- .... ....|--- .... ....|--- .... ....
....|..|--- .... ....|--- .... ....|--- .... ....
....|..|--- .... ....|--- .... ....|--- .... ....
....|..|--- .... ....|--- .... ....|--- .... ....
....|..|--- .... ....|--- .... ....|--- .... ....
....|..|--- .... ....|--- .... ....|--- .... ....
....|..|--- .... ....|--- .... ....|--- .... ....
....|..|--- .... ....|--- .... ....|--- .... ....
....|..|--- .... ....|--- .... ....|--- .... ....
....|..|--- .... ....|--- .... ....|--- .... ....
....|..|--- .... ....|--- .... ....|--- .... ....
....|..|--- .... ....|--- .... ....|--- .... ....
....|..|--- .... ....|--- .... ....|--- .... ....
....|..|--- .... ....|--- .... ....|--- .... ....
....|..|--- .... ....|--- .... ....|--- .... ....
....|..|--- .... ....|--- .... ....|--- .... ....
....|..|--- .... ....|--- .... ....|--- .... ....
....|..|--- .... ....|--- .... ....|--- .... ....
....|..|--- .... ....|--- .... ....|--- .... ....
....|..|--- .... ....|--- .... ....|--- .... ....
....|..|--- .... ....|--- .... ....|--- .... ....
....|..|--- .... ....|--- .... ....|--- .... ....
....|..|--- .... ....|--- .... ....|--- .... ....
....|..|--- .... ....|--- .... ....|--- .... ....
....|..|--- .... ....|--- .... ....|--- .... ....
....|..|--- .... ....|--- .... ....|C-4 2F1F ....
....|..|--- .... ....|--- .... ....|--- .... ....
....|..|--- .... ....|--- .... ....|--- .... ....
....|..|--- .... ....|--- .... ....|--- .... ....
....|..|--- .... ....|--- .... ....|--- .... ....
....|..|--- .... ....|--- .... ....|--- .... ....
....|..|--- .... ....|--- .... ....|--- .... ....
....|..|--- .... ....|--- .... ....|--- .... ....
....|..|--- .... ....|--- .... ....|--- .... ....
....|..|--- .... ....|--- .... ....|--- .... ....
....|..|--- .... ....|--- .... ....|--- .... ....
....|..|--- .... ....|--- .... ....|--- .... ....
....|..|--- .... ....|--- .... ....|C-4 2F1A ....
....|..|--- .... ....|--- .... ....|--- .... ....
....|..|--- .... ....|--- .... ....|--- .... ....
....|..|--- .... ....|--- .... ....|--- .... ....
....|..|--- .... ....|--- .... ....|B-3 2F2F ....
....|..|--- .... ....|--- .... ....|--- .... ....
....|..|--- .... ....|--- .... ....|--- .... ....
....|..|--- .... ....|--- .... ....|--- .... ....
....|..|--- .... ....|--- .... ....|--- .... ....
....|..|--- .... ....|--- .... ....|--- .... ....
....|..|--- .... ....|--- .... ....|--- .... ....
....|..|--- .... ....|--- .... ....|--- .... ....
....|..|--- .... ....|--- .... ....|C-4 2F17 ....
....|..|--- .... ....|--- .... ....|--- .... ....
....|..|--- .... ....|--- .... ....|--- .... ....
....|..|--- .... ....|--- .... ....|--- .... ....
....|..|--- .... ....|--- .... ....|B-3 2F2A ....
....|..|--- .... ....|--- .... ....|--- .... ....
....|..|--- .... ....|--- .... ....|--- .... ....
....|..|--- .... ....|--- .... ....|--- .... ....
....|..|--- .... ....|--- .... ....|A-3 2F3F ....
....|..|--- .... ....|--- .... ....|A-3 2F4F ....
....|..|--- .... ....|--- .... ....|--- .... ....
....|..|--- .... ....|--- .... ....|--- .... ....
....|..|--- .... ....|--- .... ....|--- .... ....
....|..|--- .... ....|--- .... ....|--- .... ....
....|..|--- .... ....|--- .... ....|--- .... ....
....|..|--- .... ....|--- .... ....|--- .... ....
....|..|--- .... ....|--- .... ....|B-3 2F27 ....
....|..|--- .... ....|--- .... ....|--- .... ....
....|..|--- .... ....|--- .... ....|--- .... ....
....|..|--- .... ....|--- .... ....|--- .... ....
....|..|--- .... ....|--- .... ....|A-3 2F3A ....
....|..|--- .... ....|--- .... ....|A-3 2F4A ....
....|..|--- .... ....|--- .... ....|--- .... ....
....|..|--- .... ....|--- .... ....|A-3 2F5F ....
....|..|--- .... ....|--- .... ....|A-3 2F2F ....
....|..|--- .... ....|--- .... ....|--- .... ....
....|..|--- .... ....|--- .... ....|--- .... ....
....|..|--- .... ....|--- .... ....|--- .... ....
....|..|--- .... ....|--- .... ....|--- .... ....
....|..|--- .... ....|--- .... ....|--- .... ....
....|..|--- .... ....|--- .... ....|--- .... ....
....|..|--- .... ....|--- .... ....|--- .... ....
....|..|--- .... ....|--- .... ....|A-3 2F37 ....
....|..|--- .... ....|--- .... ....|A-3 2F47 ....
....|..|--- .... ....|--- .... ....|--- .... ....
....|..|--- .... ....|--- .... ....|A-3 2F5A ....
....|..|--- .... ....|--- .... ....|A-3 2F2A ....
....|..|--- .... ....|--- .... ....|--- .... ....
....|..|--- .... ....|--- .... ....|--- .... ....
....|..|--- .... ....|--- .... ....|--- .... ....
....|..|--- .... ....|--- .... ....|B-3 2F6F ....
....|..|--- .... ....|--- .... ....|B-3 2F5F ....
....|..|--- .... ....|--- .... ....|--- .... ....
....|..|--- .... ....|--- .... ....|--- .... ....
....|..|--- .... ....|--- .... ....|--- .... ....
....|..|--- .... ....|--- .... ....|--- .... ....
....|..|--- .... ....|--- .... ....|--- .... ....
....|..|--- .... ....|--- .... ....|A-3 2F57 ....
....|..|--- .... ....|--- .... ....|A-3 2F27 ....
....|..|--- .... ....|--- .... ....|--- .... ....
....|..|--- .... ....|--- .... ....|--- .... ....
....|..|--- .... ....|--- .... ....|--- .... ....
....|..|--- .... ....|--- .... ....|B-3 2F6A ....
....|..|--- .... ....|--- .... ....|B-3 2F5A ....
....|..|--- .... ....|--- .... ....|--- .... ....
....|..|--- .... ....|--- .... ....|--- .... ....
....|..|--- .... ....|--- .... ....|A-3 2F7F ....
....|..|--- .... ....|--- .... ....|--- .... ....
....|..|--- .... ....|--- .... ....|--- .... ....
....|..|--- .... ....|--- .... ....|--- .... ....
....|..|--- .... ....|--- .... ....|--- .... ....
....|..|--- .... ....|--- .... ....|--- .... ....
....|..|--- .... ....|--- .... ....|--- .... ....
....|..|--- .... ....|--- .... ....|--- .... ....
....|..|--- .... ....|--- .... ....|B-3 2F67 ....
....|..|--- .... ....|--- .... ....|B-3 2F57 ....
....|..|--- .... ....|--- .... ....|--- .... ....
....|..|--- .... ....|--- .... ....|--- .... ....
....|..|--- .... ....|--- .... ....|A-3 2F7A ....
....|..|--- .... ....|--- .... ....|--- .... ....
....|..|--- .... ....|--- .... ....|--- .... ....
....|..|--- .... ....|--- .... ....|--- .... ....
....|..|--- .... ....|--- .... ....|A-3 2F5F ....
....|..|--- .... ....|--- .... ....|--- .... ....

[Pattern1]
....|..|--- .... ....|--- .... ....|--- .... ....
....|..|--- .... ....|--- .... ....|--- .... ....
....|..|--- .... ....|--- .... ....|--- .... ....
....|..|--- .... ....|--- .... ....|--- .... ....
....|..|--- .... ....|--- .... ....|--- .... ....
....|..|--- .... ....|--- .... ....|--- .... ....
....|..|--- .... ....|--- .... ....|A-3 2F77 ....
....|..|--- .... ....|--- .... ....|--- .... ....
....|..|--- .... ....|--- .... ....|--- .... ....
....|..|--- .... ....|--- .... ....|--- .... ....
....|..|--- .... ....|--- .... ....|A-3 2F5A ....
....|..|--- .... ....|--- .... ....|--- .... ....
....|..|--- .... ....|--- .... ....|--- .... ....
....|..|--- .... ....|--- .... ....|--- .... ....
....|..|--- .... ....|--- .... ....|A-3 2F5F ....
....|..|--- .... ....|--- .... ....|--- .... ....
....|..|--- .... ....|--- .... ....|--- .... ....
....|..|--- .... ....|--- .... ....|--- .... ....
....|..|--- .... ....|--- .... ....|--- .... ....
....|..|--- .... ....|--- .... ....|--- .... ....
....|..|--- .... ....|--- .... ....|--- .... ....
....|..|--- .... ....|--- .... ....|--- .... ....
....|..|--- .... ....|--- .... ....|A-3 2F57 ....
....|..|--- .... ....|--- .... ....|--- .... ....
....|..|--- .... ....|--- .... ....|--- .... ....
....|..|--- .... ....|--- .... ....|--- .... ....
....|..|--- .... ....|--- .... ....|B-3 2F5F ....
....|..|--- .... ....|--- .... ....|--- .... ....
....|..|--- .... ....|--- .... ....|--- .... ....
....|..|--- .... ....|--- .... ....|B-3 2F5F ....
....|..|--- .... ....|--- .... ....|B-3 2F8F ....
....|..|--- .... ....|--- .... ....|C-4 2F1F ....
....|..|--- .... ....|--- .... ....|--- .... ....
....|..|--- .... ....|--- .... ....|--- .... ....
....|..|--- .... ....|--- .... ....|--- .... ....
....|..|--- .... ....|--- .... ....|--- .... ....
....|..|--- .... ....|--- .... ....|--- .... ....
....|..|--- .... ....|--- .... ....|--- .... ....
....|..|--- .... ....|--- .... ....|A-3 2F57 ....
....|..|--- .... ....|--- .... ....|--- .... ....
....|..|G-4 2F.F ....|--- .... ....|--- .... ....
....|..|R-- .... ....|--- .... ....|B-3 2F5A ....
....|..|G-4 2F.F ....|--- .... ....|B-3 2F8A ....
....|..|R-- .... ....|--- .... ....|C-4 2F1A ....
....|..|G-4 2F.F ....|--- .... ....|--- .... ....
....|..|--- .... ....|--- .... ....|--- .... ....
....|..|G-4 2F.F ....|--- .... ....|B-3 2F2F ....
....|..|--- .... ....|--- .... ....|--- .... ....
....|..|--- .... ....|--- .... ....|--- .... ....
....|..|--- .... ....|--- .... ....|--- .... ....
....|..|--- .... ....|--- .... ....|B-3 2F57 ....
....|..|--- .... ....|--- .... ....|--- .... ....
....|..|F-4 2F.F ....|--- .... ....|--- .... ....
....|..|R-- .... ....|--- .... ....|B-3 2F57 ....
....|..|E-4 2F.F ....|--- .... ....|B-3 2F87 ....
....|..|R-- .... ....|--- .... ....|C-4 2F17 ....
....|..|G-4 2F.A ....|--- .... ....|--- .... ....
....|..|R-- .... ....|--- .... ....|--- .... ....
....|..|E-4 2F.F ....|--- .... ....|B-3 2F2A ....
....|..|R-- .... ....|--- .... ....|--- .... ....
....|..|D-4 2F.F ....|--- .... ....|--- .... ....
....|..|R-- .... ....|--- .... ....|--- .... ....
....|..|E-4 2F.F ....|--- .... ....|A-3 2F3F ....
....|..|--- .... ....|--- .... ....|A-3 2F4F ....
....|..|G-4 2F.7 ....|--- .... ....|--- .... ....
....|..|R-- .... ....|--- .... ....|--- .... ....
....|..|G-4 2F.7 ....|--- .... ....|--- .... ....
....|..|R-- .... ....|--- .... ....|--- .... ....
....|..|G-4 2F.7 ....|--- .... ....|--- .... ....
....|..|R-- .... ....|--- .... ....|--- .... ....
....|..|G-4 2F.7 ....|--- .... ....|B-3 2F27 ....
....|..|R-- .... ....|--- .... ....|--- .... ....
....|..|E-4 2F.F ....|--- .... ....|--- .... ....
....|..|R-- .... ....|--- .... ....|--- .... ....
....|..|E-4 2F.F ....|--- .... ....|A-3 2F3A ....
....|..|R-- .... ....|--- .... ....|A-3 2F4A ....
....|..|G-4 2F.F ....|--- .... ....|--- .... ....
....|..|R-- .... ....|--- .... ....|A-3 2F5F ....
....|..|F-4 2F.F ....|--- .... ....|A-3 2F2F ....
....|..|--- .... ....|--- .... ....|--- .... ....
....|..|--- .... ....|--- .... ....|--- .... ....
....|..|R-- .... ....|--- .... ....|--- .... ....
....|..|F-4 2F.F ....|--- .... ....|--- .... ....
....|..|R-- .... ....|--- .... ....|--- .... ....
....|..|E-4 2F.F ....|--- .... ....|--- .... ....
....|..|R-- .... ....|--- .... ....|--- .... ....
....|..|E-4 2F.F ....|--- .... ....|A-3 2F37 ....
....|..|R-- .... ....|--- .... ....|A-3 2F47 ....
....|..|C-4 2F.F ....|--- .... ....|--- .... ....
....|..|R-- .... ....|--- .... ....|A-3 2F5A ....
....|..|C-4 2F.F ....|--- .... ....|A-3 2F2A ....
....|..|R-- .... ....|--- .... ....|--- .... ....
....|..|D-4 2F.F ....|--- .... ....|--- .... ....
....|..|R-- .... ....|--- .... ....|--- .... ....
....|..|D-4 2F.F ....|--- .... ....|B-3 2F6F ....
....|..|R-- .... ....|--- .... ....|B-3 2F5F ....
....|..|E-4 2F.7 ....|--- .... ....|--- .... ....
....|..|R-- .... ....|--- .... ....|--- .... ....
....|..|E-4 2F.7 ....|--- .... ....|--- .... ....
....|..|R-- .... ....|--- .... ....|--- .... ....
....|..|G-4 2F.7 ....|--- .... ....|--- .... ....
....|..|R-- .... ....|--- .... ....|A-3 2F57 ....
....|..|F-4 2F.7 ....|--- .... ....|A-3 2F27 ....
....|..|R-- .... ....|--- .... ....|--- .... ....
....|..|D-4 2F.F ....|--- .... ....|--- .... ....
....|..|R-- .... ....|--- .... ....|--- .... ....
....|..|D-4 2F.F ....|--- .... ....|B-3 2F6A ....
....|..|R-- .... ....|--- .... ....|B-3 2F5A ....
....|..|D-4 2F.F ....|--- .... ....|--- .... ....
....|..|R-- .... ....|--- .... ....|--- .... ....
....|..|C-4 2F.F ....|--- .... ....|A-3 2F7F ....
....|..|R-- .... ....|--- .... ....|--- .... ....
....|..|E-4 2F.F ....|--- .... ....|--- .... ....
....|..|R-- .... ....|--- .... ....|--- .... ....
....|..|C-4 2F.7 ....|--- .... ....|--- .... ....
....|..|R-- .... ....|--- .... ....|--- .... ....
....|..|D-4 2F.F ....|--- .... ....|--- .... ....
....|..|R-- .... ....|--- .... ....|--- .... ....
....|..|C-4 2F.F ....|--- .... ....|B-3 2F67 ....
....|..|R-- .... ....|--- .... ....|B-3 2F57 ....
....|..|C-4 2F.F ....|--- .... ....|--- .... ....
....|..|R-- .... ....|--- .... ....|--- .... ....
....|..|C-4 2F.F ....|--- .... ....|A-3 2F7A ....
....|..|R-- .... ....|--- .... ....|--- .... ....
....|..|A-3 2F.F ....|--- .... ....|--- .... ....
....|..|R-- .... ....|--- .... ....|--- .... ....
....|..|C-4 2F.F ....|--- .... ....|A-3 2F5F ....
....|..|R-- .... ....|--- .... ....|--- .... ....

[Pattern2]
....|..|D-4 2F.7 ....|--- .... ....|--- .... ....
....|..|R-- .... ....|--- .... ....|--- .... ....
....|..|D-4 2F.7 ....|--- .... ....|--- .... ....
....|..|R-- .... ....|--- .... ....|--- .... ....
....|..|C-4 2F.F ....|--- .... ....|--- .... ....
....|..|R-- .... ....|--- .... ....|--- .... ....
....|..|A-3 2F.F ....|--- .... ....|A-3 2F77 ....
....|..|R-- .... ....|--- .... ....|--- .... ....
....|..|C-4 2F.F ....|--- .... ....|--- .... ....
....|..|R-- .... ....|--- .... ....|--- .... ....
....|..|A-3 2F.F ....|--- .... ....|A-3 2F5A ....
....|..|R-- .... ....|--- .... ....|--- .... ....
....|..|C-4 2F.F ....|--- .... ....|--- .... ....
....|..|R-- .... ....|--- .... ....|--- .... ....
....|..|A-3 2F.F ....|--- .... ....|A-3 2F5F ....
....|..|R-- .... ....|--- .... ....|--- .... ....
....|..|D-4 2F.F ....|--- .... ....|--- .... ....
....|..|R-- .... ....|--- .... ....|--- .... ....
....|..|A-3 2F.F ....|--- .... ....|--- .... ....
....|..|R-- .... ....|--- .... ....|--- .... ....
....|..|A-3 2F.F ....|--- .... ....|--- .... ....
....|..|R-- .... ....|--- .... ....|--- .... ....
....|..|C-4 2F.7 ....|--- .... ....|A-3 2F57 ....
....|..|R-- .... ....|--- .... ....|--- .... ....
....|..|C-4 2F.A ....|--- .... ....|--- .... ....
....|..|R-- .... ....|--- .... ....|--- .... ....
....|..|A-3 2F.A ....|--- .... ....|B-3 2F5F ....
....|..|R-- .... ....|--- .... ....|--- .... ....
....|..|C-4 2F.7 ....|--- .... ....|--- .... ....
....|..|R-- .... ....|--- .... ....|B-3 2F5F ....
....|..|A-3 2F.7 ....|--- .... ....|B-3 2F8F ....
....|..|R-- .... ....|--- .... ....|C-4 2F1F ....
....|..|C-4 2F.7 ....|--- .... ....|--- .... ....
....|..|R-- .... ....|--- .... ....|--- .... ....
....|..|A-3 2F.7 ....|--- .... ....|--- .... ....
....|..|R-- .... ....|--- .... ....|--- .... ....
....|..|C-4 2F.7 ....|--- .... ....|--- .... ....
....|..|R-- .... ....|--- .... ....|--- .... ....
....|..|A-3 2F.7 ....|--- .... ....|A-3 2F57 ....
....|..|R-- .... ....|--- .... ....|--- .... ....
....|..|G-4 2F.F ....|--- .... ....|--- .... ....
....|..|R-- .... ....|--- .... ....|B-3 2F5A ....
....|..|G-4 2F.F ....|--- .... ....|B-3 2F8A ....
....|..|R-- .... ....|--- .... ....|C-4 2F1A ....
....|..|G-4 2F.F ....|--- .... ....|--- .... ....
....|..|--- .... ....|--- .... ....|--- .... ....
....|..|G-4 2F.F ....|--- .... ....|B-3 2F2F ....
....|..|--- .... ....|--- .... ....|--- .... ....
....|..|R-- .... ....|--- .... ....|--- .... ....
....|..|--- .... ....|--- .... ....|--- .... ....
....|..|G-4 2F.F ....|--- .... ....|B-3 2F57 ....
....|..|R-- .... ....|--- .... ....|--- .... ....
....|..|F-4 2F.F ....|--- .... ....|--- .... ....
....|..|R-- .... ....|--- .... ....|B-3 2F57 ....
....|..|F-4 2F.F ....|--- .... ....|B-3 2F87 ....
....|..|R-- .... ....|--- .... ....|C-4 2F17 ....
....|..|E-4 2F.F ....|--- .... ....|--- .... ....
....|..|--- .... ....|--- .... ....|--- .... ....
....|..|G-4 2F.A ....|--- .... ....|B-3 2F2A ....
....|..|R-- .... ....|--- .... ....|--- .... ....
....|..|D-4 2F.F ....|--- .... ....|--- .... ....
....|..|R-- .... ....|--- .... ....|--- .... ....
....|..|E-4 2F.F ....|--- .... ....|A-3 2F3F ....
....|..|R-- .... ....|--- .... ....|A-3 2F4F ....
....|..|G-4 2F.7 ....|--- .... ....|--- .... ....
....|..|R-- .... ....|--- .... ....|--- .... ....
....|..|G-4 2F.7 ....|--- .... ....|--- .... ....
....|..|R-- .... ....|--- .... ....|--- .... ....
....|..|C-4 2F.F ....|--- .... ....|--- .... ....
....|..|--- .... ....|--- .... ....|--- .... ....
....|..|C-4 2F.F ....|--- .... ....|B-3 2F27 ....
....|..|R-- .... ....|--- .... ....|--- .... ....
....|..|E-4 2F.F ....|--- .... ....|--- .... ....
....|..|R-- .... ....|--- .... ....|--- .... ....
....|..|E-4 2F.F ....|--- .... ....|A-3 2F3A ....
....|..|R-- .... ....|--- .... ....|A-3 2F4A ....
....|..|G-4 2F.F ....|--- .... ....|--- .... ....
....|..|R-- .... ....|--- .... ....|A-3 2F5F ....
....|..|F-4 2F.F ....|--- .... ....|A-3 2F2F ....
....|..|R-- .... ....|--- .... ....|--- .... ....
....|..|E-4 2F.7 ....|--- .... ....|--- .... ....
....|..|R-- .... ....|--- .... ....|--- .... ....
....|..|F-4 2F.F ....|--- .... ....|--- .... ....
....|..|R-- .... ....|--- .... ....|--- .... ....
....|..|E-4 2F.F ....|--- .... ....|--- .... ....
....|..|R-- .... ....|--- .... ....|--- .... ....
....|..|E-4 2F.F ....|--- .... ....|A-3 2F37 ....
....|..|R-- .... ....|--- .... ....|A-3 2F47 ....
....|..|C-4 2F.F ....|--- .... ....|--- .... ....
....|..|R-- .... ....|--- .... ....|A-3 2F5A ....
....|..|C-4 2F.F ....|--- .... ....|A-3 2F2A ....
....|..|R-- .... ....|--- .... ....|--- .... ....
....|..|D-4 2F.F ....|--- .... ....|--- .... ....
....|..|R-- .... ....|--- .... ....|--- .... ....
....|..|D-4 2F.F ....|--- .... ....|B-3 2F6F ....
....|..|R-- .... ....|--- .... ....|B-3 2F5F ....
....|..|E-4 2F.7 ....|--- .... ....|--- .... ....
....|..|R-- .... ....|--- .... ....|--- .... ....
....|..|E-4 2F.7 ....|--- .... ....|--- .... ....
....|..|R-- .... ....|--- .... ....|--- .... ....
....|..|G-4 2F.7 ....|--- .... ....|--- .... ....
....|..|R-- .... ....|--- .... ....|A-3 2F57 ....
....|..|F-4 2F.7 ....|--- .... ....|A-3 2F27 ....
....|..|R-- .... ....|--- .... ....|--- .... ....
....|..|D-4 2F.F ....|--- .... ....|--- .... ....
....|..|R-- .... ....|--- .... ....|--- .... ....
....|..|D-4 2F.F ....|--- .... ....|B-3 2F6A ....
....|..|R-- .... ....|--- .... ....|B-3 2F5A ....
....|..|D-4 2F.F ....|--- .... ....|--- .... ....
....|..|R-- .... ....|--- .... ....|--- .... ....
....|..|C-4 2F.F ....|--- .... ....|A-3 2F7F ....
....|..|R-- .... ....|--- .... ....|--- .... ....
....|..|E-4 2F.F ....|--- .... ....|--- .... ....
....|..|R-- .... ....|--- .... ....|--- .... ....
....|..|C-4 2F.7 ....|--- .... ....|--- .... ....
....|..|R-- .... ....|--- .... ....|--- .... ....
....|..|D-4 2F.F ....|--- .... ....|--- .... ....
....|..|R-- .... ....|--- .... ....|--- .... ....
....|..|D-4 2F.7 ....|--- .... ....|B-3 2F67 ....
....|..|R-- .... ....|--- .... ....|B-3 2F57 ....
....|..|C-4 2F.F ....|--- .... ....|--- .... ....
....|..|R-- .... ....|--- .... ....|--- .... ....
....|..|C-4 2F.F ....|--- .... ....|A-3 2F7A ....
....|..|R-- .... ....|--- .... ....|--- .... ....
....|..|E-4 2F.A ....|--- .... ....|--- .... ....
....|..|R-- .... ....|--- .... ....|--- .... ....
....|..|A-3 2F.F ....|--- .... ....|A-3 2F5F ....
....|..|R-- .... ....|--- .... ....|--- .... ....

[Pattern3]
....|..|D-4 2F.F ....|--- .... ....|--- .... ....
....|..|R-- .... ....|--- .... ....|--- .... ....
....|..|D-4 2F.7 ....|--- .... ....|--- .... ....
....|..|R-- .... ....|--- .... ....|--- .... ....
....|..|A-3 2F.F ....|--- .... ....|--- .... ....
....|..|R-- .... ....|--- .... ....|--- .... ....
....|..|C-4 2F.7 ....|--- .... ....|A-3 2F77 ....
....|..|R-- .... ....|--- .... ....|--- .... ....
....|..|C-4 2F.F ....|--- .... ....|--- .... ....
....|..|C-4 2F.F ....|--- .... ....|--- .... ....
....|..|A-3 2F.F ....|--- .... ....|A-3 2F5A ....
....|..|R-- .... ....|--- .... ....|--- .... ....
....|..|C-4 2F.F ....|--- .... ....|--- .... ....
....|..|--- .... ....|--- .... ....|--- .... ....
....|..|A-3 2F.F ....|--- .... ....|A-3 2F5F ....
....|..|--- .... ....|--- .... ....|--- .... ....
....|..|D-4 2F.F ....|--- .... ....|--- .... ....
....|..|R-- .... ....|--- .... ....|--- .... ....
....|..|C-4 2F.7 ....|--- .... ....|--- .... ....
....|..|--- .... ....|--- .... ....|--- .... ....
....|..|A-3 2F.F ....|--- .... ....|--- .... ....
....|..|C-4 2F.A ....|--- .... ....|--- .... ....
....|..|A-3 2F.7 ....|--- .... ....|A-3 2F57 ....
....|..|R-- .... ....|--- .... ....|--- .... ....
....|..|D-4 2F.7 ....|--- .... ....|--- .... ....
....|..|--- .... ....|--- .... ....|--- .... ....
....|..|A-3 2F.A ....|--- .... ....|B-3 2F5F ....
....|..|--- .... ....|--- .... ....|--- .... ....
....|..|A-3 2F.7 ....|--- .... ....|--- .... ....
....|..|R-- .... ....|--- .... ....|B-3 2F5F ....
....|..|--- .... ....|--- .... ....|B-3 2F8F ....
....|..|--- .... ....|--- .... ....|C-4 2F1F ....
 C-4|..|C-4 2F.7 ....|C-2 2A.F ....|--- .... ....
....|..|C-4 2F.7 ....|--- .... ....|--- .... ....
....|..|A-3 2F.7 ....|--- .... ....|--- .... ....
....|..|--- .... ....|--- .... ....|--- .... ....
....|..|C-4 2F.7 ....|--- .... ....|--- .... ....
....|..|--- .... ....|--- .... ....|--- .... ....
....|..|A-3 2F.7 ....|--- .... ....|A-3 2F57 ....
....|..|--- .... ....|--- .... ....|--- .... ....
....|..|G-4 2F.F ....|--- .... ....|--- .... ....
....|..|R-- .... ....|--- .... ....|B-3 2F5A ....
....|..|G-4 2F.F ....|--- .... ....|B-3 2F8A ....
....|..|R-- .... ....|--- .... ....|C-4 2F1A ....
....|..|G-4 2F.F ....|C-2 2F.A ....|--- .... ....
....|..|R-- .... ....|--- .... ....|--- .... ....
....|..|A-4 2F.F ....|--- .... ....|B-3 2F2F ....
....|..|--- .... ....|--- .... ....|--- .... ....
....|..|--- .... ....|--- .... ....|--- .... ....
....|..|R-- .... ....|--- .... ....|--- .... ....
....|..|G-4 2F.F ....|--- .... ....|B-3 2F57 ....
....|..|R-- .... ....|--- .... ....|--- .... ....
....|..|G-4 2F.F ....|--- .... ....|--- .... ....
....|..|R-- .... ....|--- .... ....|B-3 2F57 ....
....|..|G-4 2F.F ....|--- .... ....|B-3 2F87 ....
....|..|R-- .... ....|--- .... ....|C-4 2F17 ....
....|..|A-4 2F.F ....|C-2 2F.7 ....|--- .... ....
....|..|R-- .... ....|--- .... ....|--- .... ....
....|..|G-4 2F.F ....|--- .... ....|B-3 2F2A ....
....|..|R-- .... ....|--- .... ....|--- .... ....
....|..|E-4 2F.F ....|--- .... ....|--- .... ....
....|..|R-- .... ....|--- .... ....|--- .... ....
....|..|G-4 2F.A ....|--- .... ....|A-3 2F3F ....
....|..|R-- .... ....|--- .... ....|A-3 2F4F ....
....|..|G-4 2F.7 ....|--- .... ....|--- .... ....
....|..|R-- .... ....|--- .... ....|--- .... ....
....|..|G-4 2F.7 ....|--- .... ....|--- .... ....
....|..|R-- .... ....|--- .... ....|--- .... ....
....|..|G-4 2F.7 ....|--- .... ....|--- .... ....
....|..|R-- .... ....|--- .... ....|--- .... ....
....|..|A-4 2F.7 ....|--- .... ....|B-3 2F27 ....
....|..|R-- .... ....|--- .... ....|--- .... ....
....|..|E-4 2F.F ....|--- .... ....|--- .... ....
....|..|R-- .... ....|--- .... ....|--- .... ....
....|..|E-4 2F.F ....|--- .... ....|A-3 2F3A ....
....|..|R-- .... ....|--- .... ....|A-3 2F4A ....
....|..|E-4 2F.F ....|--- .... ....|--- .... ....
....|..|R-- .... ....|--- .... ....|A-3 2F5F ....
....|..|E-4 2F.F ....|--- .... ....|A-3 2F2F ....
....|..|R-- .... ....|--- .... ....|--- .... ....
....|..|A-4 2F.F ....|--- .... ....|--- .... ....
....|..|R-- .... ....|--- .... ....|--- .... ....
....|..|G-4 2F.7 ....|--- .... ....|--- .... ....
....|..|R-- .... ....|--- .... ....|--- .... ....
....|..|G-4 2F.F ....|--- .... ....|--- .... ....
....|..|R-- .... ....|--- .... ....|--- .... ....
....|..|E-4 2F.F ....|--- .... ....|A-3 2F37 ....
....|..|R-- .... ....|--- .... ....|A-3 2F47 ....
....|..|E-4 2F.F ....|--- .... ....|--- .... ....
....|..|R-- .... ....|--- .... ....|A-3 2F5A ....
....|..|C-4 2F.F ....|--- .... ....|A-3 2F2A ....
....|..|R-- .... ....|--- .... ....|--- .... ....
....|..|D-4 2F.F ....|--- .... ....|--- .... ....
....|..|--- .... ....|--- .... ....|--- .... ....
....|..|--- .... ....|--- .... ....|B-3 2F6F ....
....|..|R-- .... ....|--- .... ....|B-3 2F5F ....
....|..|E-4 2F.7 ....|--- .... ....|--- .... ....
....|..|R-- .... ....|--- .... ....|--- .... ....
....|..|E-4 2F.7 ....|--- .... ....|--- .... ....
....|..|R-- .... ....|--- .... ....|--- .... ....
....|..|E-4 2F.7 ....|--- .... ....|--- .... ....
....|..|R-- .... ....|--- .... ....|A-3 2F57 ....
....|..|E-4 2F.7 ....|--- .... ....|A-3 2F27 ....
....|..|R-- .... ....|--- .... ....|--- .... ....
....|..|D-4 2F.F ....|--- .... ....|--- .... ....
....|..|R-- .... ....|--- .... ....|--- .... ....
....|..|D-4 2F.F ....|--- .... ....|B-3 2F6A ....
....|..|R-- .... ....|--- .... ....|B-3 2F5A ....
....|..|D-4 2F.F ....|--- .... ....|--- .... ....
....|..|R-- .... ....|--- .... ....|--- .... ....
....|..|E-4 2F.F ....|--- .... ....|A-3 2F7F ....
....|..|R-- .... ....|--- .... ....|--- .... ....
....|..|E-4 2F.7 ....|--- .... ....|--- .... ....
....|..|R-- .... ....|--- .... ....|--- .... ....
....|..|E-4 2F.F ....|--- .... ....|--- .... ....
....|..|R-- .... ....|--- .... ....|--- .... ....
....|..|D-4 2F.7 ....|--- .... ....|--- .... ....
....|..|R-- .... ....|--- .... ....|--- .... ....
....|..|A-3 2F.F ....|--- .... ....|B-3 2F67 ....
....|..|R-- .... ....|--- .... ....|B-3 2F57 ....
....|..|C-4 2F.F ....|--- .... ....|--- .... ....
....|..|R-- .... ....|--- .... ....|--- .... ....
....|..|C-4 2F.F ....|--- .... ....|A-3 2F7A ....
....|..|R-- .... ....|--- .... ....|--- .... ....
....|..|A-3 2F.F ....|--- .... ....|--- .... ....
....|..|R-- .... ....|--- .... ....|--- .... ....
....|..|C-4 2F.F ....|--- .... ....|A-3 2F5F ....
....|..|R-- .... ....|--- .... ....|--- .... ....

[Pattern4]
....|..|D-4 2F.7 ....|--- .... ....|A-3 2F5F ....
....|..|R-- .... ....|--- .... ....|--- .... ....
....|..|A-3 2F.F ....|--- .... ....|--- .... ....
....|..|R-- .... ....|--- .... ....|--- .... ....
....|..|C-4 2F.F ....|--- .... ....|--- .... ....
....|..|R-- .... ....|--- .... ....|--- .... ....
....|..|A-3 2F.F ....|--- .... ....|A-3 2F77 ....
....|..|R-- .... ....|--- .... ....|--- .... ....
....|..|C-4 2F.F ....|--- .... ....|--- .... ....
....|..|R-- .... ....|--- .... ....|--- .... ....
....|..|A-3 2F.F ....|--- .... ....|A-3 2F5A ....
....|..|R-- .... ....|--- .... ....|--- .... ....
....|..|R-- .... ....|--- .... ....|A-3 2F5A ....
....|..|--- .... ....|--- .... ....|--- .... ....
 B-4|..|A-3 2F.7 ....|B-2 2A.F ....|A-3 2F5F ....
....|..|R-- .... ....|--- .... ....|--- .... ....
 B-4|..|C-4 2F.7 ....|B-2 2A.F ....|A-3 2F5F ....
....|..|R-- .... ....|--- .... ....|--- .... ....
....|..|C-4 2F.7 ....|--- .... ....|--- .... ....
....|..|R-- .... ....|--- .... ....|--- .... ....
....|..|A-3 2F.7 ....|--- .... ....|--- .... ....
....|..|R-- .... ....|--- .... ....|--- .... ....
....|..|C-4 2F.F ....|--- .... ....|A-3 2F57 ....
....|..|R-- .... ....|--- .... ....|--- .... ....
....|..|E-4 2F.F ....|--- .... ....|A-3 2F57 ....
....|..|--- .... ....|--- .... ....|--- .... ....
....|..|A-3 2F.7 ....|B-2 2F.A ....|C-5 2F.F ....
....|..|R-- .... ....|--- .... ....|--- .... ....
....|..|D-4 2F.F ....|B-2 2F.A ....|B-3 2F5F ....
....|..|R-- .... ....|--- .... ....|--- .... ....
....|..|C-4 2F.F ....|--- .... ....|--- .... ....
....|..|R-- .... ....|--- .... ....|--- .... ....
....|..|C-4 2F.7 ....|--- .... ....|B-3 2F8F ....
....|..|R-- .... ....|--- .... ....|C-4 2F1F ....
....|..|A-3 2F.7 ....|--- .... ....|--- .... ....
....|..|R-- .... ....|--- .... ....|--- .... ....
....|..|G-4 2F.F ....|--- .... ....|--- .... ....
....|..|R-- .... ....|--- .... ....|--- .... ....
....|..|A-4 2F.F ....|B-2 2F.7 ....|A-3 2F57 ....
....|..|--- .... ....|--- .... ....|--- .... ....
....|..|D-4 2F.A ....|B-2 2F.7 ....|A-3 2F57 ....
....|..|--- .... ....|--- .... ....|--- .... ....
....|..|C-4 2F.A ....|--- .... ....|--- .... ....
....|..|R-- .... ....|--- .... ....|--- .... ....
....|..|G-4 2F.F ....|--- .... ....|B-3 2F8A ....
....|..|--- .... ....|--- .... ....|C-4 2F1A ....
....|..|G-4 2F.F ....|--- .... ....|--- .... ....
....|..|R-- .... ....|--- .... ....|--- .... ....
 G-2|..|E-4 2F.7 ....|G-1 2A.F ....|B-3 2F2F ....
....|..|R-- .... ....|--- .... ....|--- .... ....
....|..|A-4 2F.A ....|--- .... ....|C-5 2F.7 ....
....|..|R-- .... ....|--- .... ....|--- .... ....
....|..|D-4 2F.7 ....|--- .... ....|B-3 2F57 ....
....|..|--- .... ....|--- .... ....|--- .... ....
....|..|C-4 2F.7 ....|--- .... ....|--- .... ....
....|..|R-- .... ....|--- .... ....|--- .... ....
 B-2|..|D-4 2F.F ....|B-1 2A.F ....|B-3 2F87 ....
....|..|--- .... ....|--- .... ....|C-4 2F17 ....
....|..|E-4 2F.F ....|--- .... ....|--- .... ....
....|..|--- .... ....|--- .... ....|--- .... ....
 D-3|..|F-4 2F.F ....|D-1 2A.F ....|B-3 2F2A ....
....|..|R-- .... ....|--- .... ....|--- .... ....
....|..|E-4 2F.F ....|R-- .... ....|--- .... ....
....|..|R-- .... ....|--- .... ....|--- .... ....
....|..|--- .... ....|--- .... ....|A-3 2F3F ....
....|..|--- .... ....|--- .... ....|A-3 2F4F ....
....|..|R-- .... ....|--- .... ....|--- .... ....
....|..|--- .... ....|--- .... ....|--- .... ....
....|..|G-4 2F.F ....|B-1 2F.A ....|--- .... ....
....|..|--- .... ....|--- .... ....|--- .... ....
....|..|F-4 2F.F ....|--- .... ....|--- .... ....
....|..|--- .... ....|--- .... ....|--- .... ....
....|..|F-4 2F.A ....|G-1 2F.7 ....|B-3 2F27 ....
....|..|R-- .... ....|--- .... ....|--- .... ....
....|..|E-4 2F.A ....|R-- .... ....|--- .... ....
....|..|R-- .... ....|--- .... ....|--- .... ....
....|..|E-4 2F.F ....|--- .... ....|A-3 2F3A ....
....|..|--- .... ....|--- .... ....|A-3 2F4A ....
....|..|C-4 2F.F ....|--- .... ....|--- .... ....
....|..|--- .... ....|--- .... ....|A-3 2F5F ....
....|..|D-4 2F.7 ....|B-1 2F.7 ....|A-3 2F2F ....
....|..|--- .... ....|--- .... ....|--- .... ....
....|..|E-4 2F.7 ....|--- .... ....|--- .... ....
....|..|--- .... ....|--- .... ....|--- .... ....
 F-2|..|F-4 2F.7 ....|F-1 2A.F ....|--- .... ....
....|..|R-- .... ....|--- .... ....|--- .... ....
....|..|E-4 2F.7 ....|R-- .... ....|--- .... ....
....|..|R-- .... ....|--- .... ....|--- .... ....
 A-2|..|E-4 2F.A ....|A-1 2A.F ....|A-3 2F37 ....
....|..|--- .... ....|--- .... ....|A-3 2F47 ....
....|..|C-4 2F.A ....|--- .... ....|--- .... ....
....|..|--- .... ....|--- .... ....|A-3 2F5A ....
 C-3|..|G-4 2F.7 ....|C-1 2A.F ....|A-3 2F2A ....
....|..|--- .... ....|--- .... ....|--- .... ....
....|..|F-4 2F.7 ....|--- .... ....|--- .... ....
....|..|--- .... ....|R-- .... ....|--- .... ....
....|..|R-- .... ....|F-1 2F.A ....|B-3 2F6F ....
....|..|--- .... ....|--- .... ....|B-3 2F5F ....
....|..|--- .... ....|--- .... ....|--- .... ....
....|..|R-- .... ....|--- .... ....|--- .... ....
....|..|D-4 2F.F ....|A-1 2F.A ....|--- .... ....
....|..|--- .... ....|--- .... ....|--- .... ....
....|..|D-4 2F.F ....|--- .... ....|--- .... ....
....|..|--- .... ....|--- .... ....|A-3 2F57 ....
....|..|D-4 2F.F ....|C-1 2F.A ....|A-3 2F27 ....
....|..|--- .... ....|--- .... ....|--- .... ....
....|..|D-4 2F.F ....|--- .... ....|--- .... ....
....|..|--- .... ....|R-- .... ....|--- .... ....
....|..|E-4 2F.F ....|F-1 2F.7 ....|B-3 2F6A ....
....|..|--- .... ....|--- .... ....|B-3 2F5A ....
....|..|F-4 2F.F ....|--- .... ....|--- .... ....
....|..|--- .... ....|--- .... ....|--- .... ....
....|..|E-4 2F.F ....|A-1 2F.7 ....|A-3 2F7F ....
....|..|--- .... ....|--- .... ....|--- .... ....
....|..|D-4 2F.A ....|--- .... ....|--- .... ....
....|..|--- .... ....|--- .... ....|--- .... ....
 D-2|..|D-4 2F.F ....|D-1 2A.F ....|--- .... ....
....|..|--- .... ....|--- .... ....|--- .... ....
....|..|C-4 2F.F ....|--- .... ....|--- .... ....
....|..|--- .... ....|R-- .... ....|--- .... ....
 F-2|..|E-4 2F.A ....|F-1 2A.F ....|B-3 2F67 ....
....|..|--- .... ....|--- .... ....|B-3 2F57 ....
....|..|A-3 2F.F ....|--- .... ....|--- .... ....
....|..|--- .... ....|--- .... ....|--- .... ....
 A-2|..|D-4 2F.7 ....|A-1 2A.F ....|A-3 2F7A ....
....|..|--- .... ....|--- .... ....|--- .... ....
....|..|D-4 2F.7 ....|--- .... ....|--- .... ....
....|..|R-- .... ....|R-- .... ....|--- .... ....

[Pattern5]
....|..|D-4 2F.7 ....|D-1 2F.A ....|A-3 2F5F ....
....|..|--- .... ....|--- .... ....|--- .... ....
....|..|D-4 2F.7 ....|--- .... ....|--- .... ....
....|..|--- .... ....|--- .... ....|--- .... ....
....|..|C-4 2F.F ....|F-1 2F.A ....|--- .... ....
....|..|--- .... ....|--- .... ....|--- .... ....
....|..|C-4 2F.F ....|--- .... ....|--- .... ....
....|..|--- .... ....|--- .... ....|--- .... ....
....|..|E-4 2F.7 ....|A-1 2F.A ....|A-3 2F77 ....
....|..|--- .... ....|--- .... ....|--- .... ....
....|..|A-3 2F.F ....|--- .... ....|--- .... ....
....|..|R-- .... ....|R-- .... ....|--- .... ....
....|..|D-4 2F.7 ....|D-1 2F.7 ....|A-3 2F5A ....
....|..|--- .... ....|--- .... ....|--- .... ....
....|..|C-4 2F.7 ....|--- .... ....|--- .... ....
....|..|--- .... ....|--- .... ....|--- .... ....
....|..|C-4 2F.A ....|F-1 2F.7 ....|D-4 2F.F ....
....|..|--- .... ....|--- .... ....|--- .... ....
....|..|A-3 2F.7 ....|--- .... ....|--- .... ....
....|..|--- .... ....|--- .... ....|--- .... ....
 G-3|..|D-4 2F.F ....|G-1 2A.F ....|--- .... ....
....|..|--- .... ....|--- .... ....|--- .... ....
....|..|E-4 2F.F ....|--- .... ....|--- .... ....
....|..|R-- .... ....|R-- .... ....|--- .... ....
 D-4|..|--- .... ....|D-2 2A.F ....|A-3 2F57 ....
....|..|--- .... ....|--- .... ....|--- .... ....
....|..|--- .... ....|--- .... ....|--- .... ....
....|..|--- .... ....|--- .... ....|--- .... ....
 G-4|..|D-4 2F.F ....|G-2 2A.F ....|D-4 2F.A ....
....|..|--- .... ....|--- .... ....|--- .... ....
....|..|C-4 2F.7 ....|--- .... ....|--- .... ....
....|..|--- .... ....|R-- .... ....|--- .... ....
....|..|D-4 2F.A ....|G-1 2F.A ....|C-4 2F1F ....
....|..|R-- .... ....|--- .... ....|C-4 2F1F ....
....|..|A-3 2F.7 ....|--- .... ....|--- .... ....
....|..|--- .... ....|--- .... ....|--- .... ....
....|..|G-4 2F.F ....|D-2 2F.A ....|--- .... ....
....|..|--- .... ....|--- .... ....|--- .... ....
....|..|A-4 2F.F ....|--- .... ....|--- .... ....
....|..|--- .... ....|--- .... ....|--- .... ....
....|..|D-4 2F.A ....|G-2 2F.A ....|D-4 2F.7 ....
....|..|--- .... ....|--- .... ....|--- .... ....
....|..|--- .... ....|--- .... ....|--- .... ....
....|..|--- .... ....|R-- .... ....|--- .... ....
....|..|G-4 2F.F ....|G-1 2F.7 ....|C-4 2F1A ....
....|..|R-- .... ....|--- .... ....|C-4 2F1A ....
....|..|G-4 2F.F ....|--- .... ....|--- .... ....
....|..|--- .... ....|--- .... ....|--- .... ....
....|..|G-4 2F.A ....|D-2 2F.7 ....|B-3 2F2F ....
....|..|--- .... ....|--- .... ....|--- .... ....
....|..|A-4 2F.A ....|--- .... ....|--- .... ....
....|..|R-- .... ....|--- .... ....|--- .... ....
 G-2|..|D-4 2F.7 ....|G-1 2A.F ....|--- .... ....
....|..|--- .... ....|--- .... ....|--- .... ....
....|..|--- .... ....|--- .... ....|--- .... ....
....|..|--- .... ....|R-- .... ....|--- .... ....
 B-2|..|D-4 2F.F ....|B-1 2A.F ....|C-4 2F17 ....
....|..|R-- .... ....|--- .... ....|C-4 2F17 ....
....|..|E-4 2F.F ....|--- .... ....|--- .... ....
....|..|--- .... ....|--- .... ....|--- .... ....
 D-3|..|F-4 2F.F ....|D-1 2A.F ....|B-3 2F2A ....
....|..|--- .... ....|--- .... ....|--- .... ....
....|..|E-4 2F.F ....|R-- .... ....|--- .... ....
....|..|R-- .... ....|--- .... ....|--- .... ....
....|..|--- .... ....|G-1 2F.A ....|A-3 2F3F ....
....|..|--- .... ....|--- .... ....|A-3 2F4F ....
....|..|R-- .... ....|--- .... ....|--- .... ....
....|..|--- .... ....|--- .... ....|--- .... ....
....|..|G-4 2F.F ....|B-1 2F.A ....|--- .... ....
....|..|--- .... ....|--- .... ....|--- .... ....
....|..|F-4 2F.F ....|--- .... ....|--- .... ....
....|..|--- .... ....|--- .... ....|--- .... ....
....|..|F-4 2F.A ....|D-1 2F.A ....|B-3 2F27 ....
....|..|--- .... ....|--- .... ....|--- .... ....
....|..|E-4 2F.A ....|R-- .... ....|--- .... ....
....|..|R-- .... ....|--- .... ....|--- .... ....
....|..|E-4 2F.F ....|G-1 2F.7 ....|A-3 2F3A ....
....|..|--- .... ....|--- .... ....|A-3 2F4A ....
....|..|C-4 2F.F ....|--- .... ....|--- .... ....
....|..|--- .... ....|--- .... ....|A-3 2F5F ....
....|..|D-4 2F.7 ....|B-1 2F.7 ....|A-3 2F2F ....
....|..|--- .... ....|--- .... ....|--- .... ....
....|..|E-4 2F.7 ....|--- .... ....|--- .... ....
....|..|--- .... ....|--- .... ....|--- .... ....
 F-2|..|F-4 2F.7 ....|F-1 2A.F ....|--- .... ....
....|..|R-- .... ....|--- .... ....|--- .... ....
....|..|E-4 2F.7 ....|R-- .... ....|--- .... ....
....|..|--- .... ....|--- .... ....|--- .... ....
 A-2|..|E-4 2F.A ....|A-1 2A.F ....|A-3 2F37 ....
....|..|--- .... ....|--- .... ....|A-3 2F47 ....
....|..|C-4 2F.A ....|--- .... ....|--- .... ....
....|..|--- .... ....|--- .... ....|A-3 2F5A ....
 C-3|..|G-4 2F.7 ....|C-1 2A.F ....|A-3 2F2A ....
....|..|--- .... ....|--- .... ....|--- .... ....
....|..|F-4 2F.7 ....|--- .... ....|--- .... ....
....|..|--- .... ....|R-- .... ....|--- .... ....
....|..|--- .... ....|F-1 2F.A ....|B-3 2F6F ....
....|..|R-- .... ....|--- .... ....|B-3 2F5F ....
....|..|--- .... ....|--- .... ....|--- .... ....
....|..|--- .... ....|--- .... ....|--- .... ....
....|..|D-4 2F.F ....|A-1 2F.A ....|--- .... ....
....|..|--- .... ....|--- .... ....|--- .... ....
....|..|D-4 2F.F ....|--- .... ....|--- .... ....
....|..|--- .... ....|--- .... ....|A-3 2F57 ....
....|..|D-4 2F.F ....|C-1 2F.A ....|A-3 2F27 ....
....|..|--- .... ....|--- .... ....|--- .... ....
....|..|D-4 2F.F ....|--- .... ....|--- .... ....
....|..|--- .... ....|R-- .... ....|--- .... ....
....|..|E-4 2F.F ....|F-1 2F.7 ....|B-3 2F6A ....
....|..|R-- .... ....|--- .... ....|B-3 2F5A ....
....|..|F-4 2F.F ....|--- .... ....|--- .... ....
....|..|--- .... ....|--- .... ....|--- .... ....
....|..|E-4 2F.F ....|A-1 2F.7 ....|A-3 2F7F ....
....|..|--- .... ....|--- .... ....|--- .... ....
....|..|D-4 2F.A ....|--- .... ....|--- .... ....
....|..|--- .... ....|--- .... ....|--- .... ....
 D-2|..|D-4 2F.F ....|D-1 2A.F ....|--- .... ....
....|..|--- .... ....|--- .... ....|--- .... ....
....|..|C-4 2F.F ....|--- .... ....|--- .... ....
....|..|--- .... ....|R-- .... ....|--- .... ....
 F-2|..|E-4 2F.A ....|F-1 2A.F ....|B-3 2F67 ....
....|..|--- .... ....|--- .... ....|B-3 2F57 ....
....|..|A-3 2F.F ....|--- .... ....|--- .... ....
....|..|--- .... ....|--- .... ....|--- .... ....
 A-2|..|D-4 2F.7 ....|A-1 2A.F ....|A-3 2F7A ....
....|..|--- .... ....|--- .... ....|--- .... ....
....|..|D-4 2F.7 ....|--- .... ....|--- .... ....
....|..|R-- .... ....|R-- .... ....|--- .... ....

[Pattern6]
....|..|D-4 2F.7 ....|D-1 2F.A ....|A-3 2F5F ....
....|..|--- .... ....|--- .... ....|--- .... ....
....|..|D-4 2F.7 ....|--- .... ....|--- .... ....
....|..|--- .... ....|--- .... ....|--- .... ....
....|..|C-4 2F.F ....|F-1 2F.A ....|--- .... ....
....|..|--- .... ....|--- .... ....|--- .... ....
....|..|C-4 2F.F ....|--- .... ....|--- .... ....
....|..|--- .... ....|--- .... ....|--- .... ....
....|..|E-4 2F.7 ....|A-1 2F.A ....|A-3 2F77 ....
....|..|--- .... ....|--- .... ....|--- .... ....
....|..|A-3 2F.F ....|--- .... ....|--- .... ....
....|..|R-- .... ....|R-- .... ....|--- .... ....
....|..|D-4 2F.7 ....|D-1 2F.7 ....|A-3 2F5A ....
....|..|--- .... ....|--- .... ....|--- .... ....
....|..|C-4 2F.7 ....|--- .... ....|--- .... ....
....|..|R-- .... ....|--- .... ....|--- .... ....
....|..|C-4 2F.A ....|F-1 2F.7 ....|D-4 2F.F ....
....|..|--- .... ....|--- .... ....|--- .... ....
....|..|A-3 2F.7 ....|--- .... ....|--- .... ....
....|..|--- .... ....|--- .... ....|--- .... ....
 G-3|..|D-4 2F.F ....|G-1 2A.F ....|--- .... ....
....|..|--- .... ....|--- .... ....|--- .... ....
....|..|D-4 2F.F ....|--- .... ....|--- .... ....
....|..|R-- .... ....|R-- .... ....|--- .... ....
 D-4|..|--- .... ....|D-2 2A.F ....|A-3 2F57 ....
....|..|--- .... ....|--- .... ....|--- .... ....
....|..|--- .... ....|--- .... ....|--- .... ....
....|..|R-- .... ....|--- .... ....|--- .... ....
 G-4|..|B-3 2F.F ....|G-2 2A.F ....|D-4 2F.A ....
....|..|--- .... ....|--- .... ....|--- .... ....
....|..|C-4 2F.F ....|--- .... ....|--- .... ....
....|..|--- .... ....|R-- .... ....|--- .... ....
 C-3|..|D-4 2F.A ....|C-1 2A.F ....|G-3 2F9F ....
....|..|--- .... ....|--- .... ....|C-4 2FAF ....
....|..|A-3 2F.7 ....|--- .... ....|--- .... ....
....|..|R-- .... ....|--- .... ....|--- .... ....
....|..|--- .... ....|D-2 2F.A ....|--- .... ....
....|..|--- .... ....|--- .... ....|--- .... ....
....|..|--- .... ....|--- .... ....|--- .... ....
....|..|R-- .... ....|--- .... ....|--- .... ....
....|..|B-3 2F.A ....|G-2 2F.A ....|D-4 2F.7 ....
....|..|--- .... ....|--- .... ....|--- .... ....
....|..|C-4 2F.A ....|--- .... ....|--- .... ....
....|..|--- .... ....|R-- .... ....|--- .... ....
....|..|D-4 2F.7 ....|G-1 2F.7 ....|G-3 2F9A ....
....|..|--- .... ....|--- .... ....|C-4 2FAA ....
 D-4|..|D-4 2F.7 ....|D-3 2C.F ....|--- .... ....
....|..|R-- .... ....|--- .... ....|--- .... ....
 G-3|..|--- .... ....|G-1 2A.F ....|B-3 2F5F ....
....|..|--- .... ....|--- .... ....|--- .... ....
 A-3|..|--- .... ....|A-2 2C.F ....|--- .... ....
....|..|--- .... ....|--- .... ....|--- .... ....
....|..|B-3 2F.7 ....|G-2 2F.7 ....|--- .... ....
....|..|--- .... ....|--- .... ....|--- .... ....
 A-3|..|C-4 2F.7 ....|A-2 2C.F ....|--- .... ....
....|..|--- .... ....|R-- .... ....|--- .... ....
 A-3|..|--- .... ....|A-3 2C.F ....|G-3 2F97 ....
....|..|--- .... ....|--- .... ....|C-4 2FA7 ....
....|..|--- .... ....|D-3 2F.A ....|--- .... ....
....|..|R-- .... ....|--- .... ....|--- .... ....
 C#4|..|--- .... ....|C#3 2C.F ....|B-3 2F5A ....
....|..|--- .... ....|--- .... ....|--- .... ....
....|..|--- .... ....|A-2 2F.A ....|--- .... ....
....|..|--- .... ....|R-- .... ....|--- .... ....
 C-4|..|--- .... ....|C-2 2A.F ....|C-4 2FBF ....
....|..|--- .... ....|--- .... ....|C-4 2F1F ....
....|..|--- .... ....|A-2 2F.A ....|--- .... ....
....|..|--- .... ....|--- .... ....|--- .... ....
 C-4|..|--- .... ....|C-2 2A.F ....|--- .... ....
....|..|--- .... ....|--- .... ....|--- .... ....
....|..|--- .... ....|D-3 2F.7 ....|--- .... ....
....|..|--- .... ....|--- .... ....|--- .... ....
 C-4|..|G-4 2F.F ....|C-2 2A.F ....|B-3 2F57 ....
....|..|R-- .... ....|--- .... ....|--- .... ....
....|..|G-4 2F.F ....|A-2 2F.7 ....|--- .... ....
....|..|R-- .... ....|R-- .... ....|--- .... ....
 C-4|..|G-4 2F.F ....|C-2 2A.F ....|C-4 2FBA ....
....|..|--- .... ....|--- .... ....|C-4 2F1A ....
....|..|G-4 2F.F ....|A-2 2F.7 ....|--- .... ....
....|..|--- .... ....|--- .... ....|--- .... ....
 G-3|..|--- .... ....|G-1 2A.F ....|B-3 2F2F ....
....|..|--- .... ....|--- .... ....|--- .... ....
....|..|G-4 2F.F ....|R-- .... ....|--- .... ....
....|..|R-- .... ....|--- .... ....|--- .... ....
 G-4|..|F-4 2F.F ....|G-2 2A.F ....|--- .... ....
....|..|R-- .... ....|--- .... ....|--- .... ....
....|..|F-4 2F.F ....|R-- .... ....|--- .... ....
....|..|R-- .... ....|R-- .... ....|--- .... ....
 B-3|..|E-4 2F.F ....|B-1 2A.F ....|C-4 2FB7 ....
....|..|--- .... ....|--- .... ....|C-4 2F17 ....
....|..|G-4 2F.A ....|R-- .... ....|--- .... ....
....|..|R-- .... ....|--- .... ....|--- .... ....
 D-4|..|D-4 2F.F ....|D-2 2A.F ....|B-3 2F2A ....
....|..|R-- .... ....|--- .... ....|--- .... ....
 C-4|..|E-4 2F.F ....|C-2 2A.F ....|--- .... ....
....|..|R-- .... ....|--- .... ....|--- .... ....
 A-3|..|G-4 2F.7 ....|A-1 2A.F ....|A-3 2F3F ....
....|..|R-- .... ....|--- .... ....|A-3 2F4F ....
....|..|G-4 2F.7 ....|R-- .... ....|--- .... ....
....|..|R-- .... ....|--- .... ....|--- .... ....
 A-3|..|G-4 2F.7 ....|A-1 2A.F ....|--- .... ....
....|..|--- .... ....|--- .... ....|--- .... ....
....|..|G-4 2F.7 ....|R-- .... ....|--- .... ....
....|..|R-- .... ....|--- .... ....|--- .... ....
 A-3|..|E-4 2F.F ....|A-1 2A.F ....|B-3 2F27 ....
....|..|R-- .... ....|--- .... ....|--- .... ....
....|..|E-4 2F.F ....|C-2 2F.A ....|--- .... ....
....|..|R-- .... ....|--- .... ....|--- .... ....
 A-3|..|G-4 2F.F ....|A-1 2A.F ....|A-3 2F3A ....
....|..|R-- .... ....|--- .... ....|A-3 2F4A ....
....|..|F-4 2F.F ....|R-- .... ....|--- .... ....
....|..|R-- .... ....|--- .... ....|A-3 2F5F ....
 F-3|..|E-4 2F.7 ....|F-1 2A.F ....|A-3 2F2F ....
....|..|R-- .... ....|--- .... ....|--- .... ....
....|..|F-4 2F.F ....|R-- .... ....|--- .... ....
....|..|R-- .... ....|--- .... ....|--- .... ....
 F-3|..|E-4 2F.F ....|F-1 2A.F ....|--- .... ....
....|..|R-- .... ....|--- .... ....|--- .... ....
....|..|E-4 2F.F ....|C-2 2F.7 ....|--- .... ....
....|..|R-- .... ....|--- .... ....|--- .... ....
 A-3|..|C-4 2F.F ....|A-1 2A.F ....|A-3 2F37 ....
....|..|R-- .... ....|--- .... ....|A-3 2F47 ....
....|..|C-4 2F.F ....|R-- .... ....|--- .... ....
....|..|R-- .... ....|--- .... ....|A-3 2F5A ....
 C-4|..|D-4 2F.F ....|C-2 2A.F ....|A-3 2F2A ....
....|..|R-- .... ....|--- .... ....|--- .... ....
 C-4|..|D-4 2F.F ....|C-2 2A.F ....|--- .... ....
....|..|R-- .... ....|--- .... ....|--- .... ....

[Pattern7]
 G-3|..|E-4 2F.7 ....|G-1 2A.F ....|B-3 2F6F ....
....|..|R-- .... ....|--- .... ....|B-3 2F5F ....
....|..|E-4 2F.7 ....|R-- .... ....|--- .... ....
....|..|R-- .... ....|--- .... ....|--- .... ....
 G-3|..|G-4 2F.7 ....|G-1 2A.F ....|--- .... ....
....|..|R-- .... ....|--- .... ....|--- .... ....
....|..|F-4 2F.7 ....|R-- .... ....|--- .... ....
....|..|R-- .... ....|--- .... ....|A-3 2F57 ....
 G-3|..|D-4 2F.F ....|G-1 2A.F ....|A-3 2F27 ....
....|..|R-- .... ....|--- .... ....|--- .... ....
....|..|D-4 2F.F ....|C-2 2F.A ....|--- .... ....
....|..|R-- .... ....|--- .... ....|--- .... ....
 G-3|..|D-4 2F.F ....|G-1 2A.F ....|B-3 2F6A ....
....|..|R-- .... ....|--- .... ....|B-3 2F5A ....
....|..|E-4 2F.F ....|R-- .... ....|--- .... ....
....|..|R-- .... ....|--- .... ....|--- .... ....
 D-3|..|C-4 2F.7 ....|D-1 2A.F ....|A-3 2F7F ....
....|..|R-- .... ....|--- .... ....|--- .... ....
....|..|D-4 2F.F ....|R-- .... ....|--- .... ....
....|..|R-- .... ....|--- .... ....|--- .... ....
 D-3|..|D-4 2F.7 ....|D-1 2A.F ....|--- .... ....
....|..|R-- .... ....|--- .... ....|--- .... ....
....|..|A-3 2F.F ....|C-2 2F.7 ....|--- .... ....
....|..|R-- .... ....|--- .... ....|--- .... ....
 A-3|..|C-4 2F.F ....|A-1 2A.F ....|B-3 2F67 ....
....|..|R-- .... ....|--- .... ....|B-3 2F57 ....
....|..|C-4 2F.F ....|R-- .... ....|--- .... ....
....|..|R-- .... ....|--- .... ....|--- .... ....
 D-4|..|C-4 2F.F ....|D-2 2A.F ....|A-3 2F7A ....
....|..|R-- .... ....|--- .... ....|--- .... ....
 C-4|..|C-4 2F.F ....|C-2 2A.F ....|--- .... ....
....|..|--- .... ....|--- .... ....|--- .... ....
 F-3|..|D-4 2F.7 ....|F-1 2A.F ....|A-3 2F5F ....
....|..|R-- .... ....|--- .... ....|--- .... ....
....|..|D-4 2F.7 ....|R-- .... ....|--- .... ....
....|..|R-- .... ....|--- .... ....|--- .... ....
 F-3|..|D-4 2F.7 ....|F-1 2A.F ....|--- .... ....
....|..|R-- .... ....|--- .... ....|--- .... ....
....|..|A-3 2F.F ....|R-- .... ....|--- .... ....
....|..|R-- .... ....|--- .... ....|--- .... ....
 F-3|..|C-4 2F.F ....|F-1 2A.F ....|A-3 2F77 ....
....|..|R-- .... ....|--- .... ....|--- .... ....
....|..|A-3 2F.F ....|C-2 2F.A ....|--- .... ....
....|..|--- .... ....|--- .... ....|--- .... ....
 F-3|..|C-4 2F.F ....|F-1 2A.F ....|A-3 2F5A ....
....|..|--- .... ....|--- .... ....|--- .... ....
....|..|A-3 2F.7 ....|R-- .... ....|--- .... ....
....|..|R-- .... ....|--- .... ....|--- .... ....
 A-3|..|A-3 2F.F ....|A-1 2A.F ....|--- .... ....
....|..|R-- .... ....|--- .... ....|--- .... ....
....|..|C-4 2F.7 ....|R-- .... ....|--- .... ....
....|..|R-- .... ....|--- .... ....|--- .... ....
 A-3|..|C-4 2F.7 ....|A-1 2A.F ....|--- .... ....
....|..|R-- .... ....|--- .... ....|--- .... ....
....|..|C-4 2F.7 ....|C-2 2F.7 ....|--- .... ....
....|..|--- .... ....|--- .... ....|--- .... ....
 C-4|..|C-4 2F.A ....|C-2 2A.F ....|A-3 2F57 ....
....|..|--- .... ....|--- .... ....|--- .... ....
....|..|--- .... ....|R-- .... ....|--- .... ....
....|..|--- .... ....|--- .... ....|--- .... ....
 B-3|..|A-3 2F.A ....|B-1 2A.F ....|G-3 2F.F ....
....|..|--- .... ....|--- .... ....|--- .... ....
 C-4|..|A-3 2F.7 ....|C-2 2A.F ....|--- .... ....
....|..|--- .... ....|--- .... ....|--- .... ....
 C-4|..|C-4 2F.7 ....|C-2 2A.F ....|G-3 2FCF ....
....|..|--- .... ....|--- .... ....|C-4 2F1F ....
....|..|A-3 2F.7 ....|R-- .... ....|--- .... ....
....|..|--- .... ....|--- .... ....|--- .... ....
 C-4|..|G-4 2F.F ....|C-2 2A.F ....|--- .... ....
....|..|R-- .... ....|--- .... ....|--- .... ....
....|..|G-4 2F.F ....|R-- .... ....|--- .... ....
....|..|R-- .... ....|--- .... ....|--- .... ....
 C-4|..|G-4 2F.F ....|C-2 2A.F ....|G-3 2F.A ....
....|..|R-- .... ....|--- .... ....|--- .... ....
....|..|G-4 2F.F ....|C-2 2F.A ....|--- .... ....
....|..|R-- .... ....|--- .... ....|--- .... ....
 C-4|..|G-4 2F.F ....|C-2 2A.F ....|G-3 2FCA ....
....|..|R-- .... ....|--- .... ....|C-4 2F1A ....
....|..|G-4 2F.F ....|R-- .... ....|--- .... ....
....|..|--- .... ....|--- .... ....|--- .... ....
 G-3|..|G-4 2F.A ....|G-1 2A.F ....|B-3 2F2F ....
....|..|R-- .... ....|--- .... ....|--- .... ....
....|..|G-4 2F.A ....|R-- .... ....|--- .... ....
....|..|R-- .... ....|--- .... ....|--- .... ....
 G-4|..|F-4 2F.F ....|G-2 2A.F ....|G-3 2F.7 ....
....|..|R-- .... ....|--- .... ....|--- .... ....
....|..|E-4 2F.F ....|C-2 2F.7 ....|--- .... ....
....|..|R-- .... ....|--- .... ....|--- .... ....
 B-3|..|G-4 2F.A ....|B-1 2A.F ....|G-3 2FC7 ....
....|..|R-- .... ....|--- .... ....|C-4 2F17 ....
....|..|G-4 2F.A ....|R-- .... ....|--- .... ....
....|..|--- .... ....|--- .... ....|--- .... ....
 D-4|..|D-4 2F.F ....|D-2 2A.F ....|B-3 2F2A ....
....|..|R-- .... ....|--- .... ....|--- .... ....
 C-4|..|E-4 2F.F ....|C-2 2A.F ....|--- .... ....
....|..|R-- .... ....|--- .... ....|--- .... ....
 A-3|..|G-4 2F.7 ....|A-1 2A.F ....|A-3 2F3F ....
....|..|R-- .... ....|--- .... ....|A-3 2F4F ....
....|..|G-4 2F.7 ....|R-- .... ....|--- .... ....
....|..|R-- .... ....|--- .... ....|--- .... ....
 A-3|..|G-4 2F.7 ....|A-1 2A.F ....|--- .... ....
....|..|R-- .... ....|--- .... ....|--- .... ....
....|..|G-4 2F.7 ....|R-- .... ....|--- .... ....
....|..|--- .... ....|--- .... ....|--- .... ....
 A-3|..|E-4 2F.F ....|A-1 2A.F ....|B-3 2F27 ....
....|..|R-- .... ....|--- .... ....|--- .... ....
....|..|E-4 2F.F ....|C-2 2F.A ....|--- .... ....
....|..|R-- .... ....|--- .... ....|--- .... ....
 A-3|..|E-4 2F.F ....|A-1 2A.F ....|A-3 2F3A ....
....|..|R-- .... ....|--- .... ....|A-3 2F4A ....
....|..|E-4 2F.F ....|R-- .... ....|--- .... ....
....|..|R-- .... ....|--- .... ....|A-3 2F5F ....
 F-3|..|A-4 2F.F ....|F-1 2A.F ....|A-3 2F2F ....
....|..|--- .... ....|--- .... ....|--- .... ....
....|..|--- .... ....|R-- .... ....|--- .... ....
....|..|R-- .... ....|--- .... ....|--- .... ....
 F-3|..|G-4 2F.F ....|F-1 2A.F ....|--- .... ....
....|..|R-- .... ....|--- .... ....|--- .... ....
....|..|E-4 2F.F ....|C-2 2F.7 ....|--- .... ....
....|..|R-- .... ....|--- .... ....|--- .... ....
 A-3|..|E-4 2F.F ....|A-1 2A.F ....|A-3 2F37 ....
....|..|R-- .... ....|--- .... ....|A-3 2F47 ....
....|..|C-4 2F.F ....|R-- .... ....|--- .... ....
....|..|R-- .... ....|--- .... ....|A-3 2F5A ....
 C-4|..|D-4 2F.F ....|C-2 2A.F ....|A-3 2F2A ....
....|..|--- .... ....|--- .... ....|--- .... ....
 C-4|..|--- .... ....|C-2 2A.F ....|--- .... ....
....|..|R-- .... ....|--- .... ....|--- .... ....

[Pattern8]
 G-3|..|E-4 2F.7 ....|G-1 2A.F ....|B-3 2F6F ....
....|..|R-- .... ....|--- .... ....|B-3 2F5F ....
....|..|E-4 2F.7 ....|R-- .... ....|--- .... ....
....|..|R-- .... ....|--- .... ....|--- .... ....
 G-3|..|E-4 2F.7 ....|G-1 2A.F ....|--- .... ....
....|..|R-- .... ....|--- .... ....|--- .... ....
....|..|E-4 2F.7 ....|R-- .... ....|--- .... ....
....|..|R-- .... ....|--- .... ....|A-3 2F57 ....
 G-3|..|D-4 2F.F ....|G-1 2A.F ....|A-3 2F27 ....
....|..|R-- .... ....|--- .... ....|--- .... ....
....|..|D-4 2F.F ....|C-2 2F.A ....|--- .... ....
....|..|R-- .... ....|--- .... ....|--- .... ....
 G-3|..|D-4 2F.F ....|G-1 2A.F ....|B-3 2F6A ....
....|..|R-- .... ....|--- .... ....|B-3 2F5A ....
....|..|E-4 2F.F ....|R-- .... ....|--- .... ....
....|..|R-- .... ....|--- .... ....|--- .... ....
 D-3|..|E-4 2F.7 ....|D-1 2A.F ....|A-3 2F7F ....
....|..|R-- .... ....|--- .... ....|--- .... ....
....|..|E-4 2F.F ....|R-- .... ....|--- .... ....
....|..|R-- .... ....|--- .... ....|--- .... ....
 D-3|..|D-4 2F.7 ....|D-1 2A.F ....|--- .... ....
....|..|R-- .... ....|--- .... ....|--- .... ....
....|..|A-3 2F.F ....|C-2 2F.7 ....|--- .... ....
....|..|R-- .... ....|--- .... ....|--- .... ....
 A-3|..|C-4 2F.F ....|A-1 2A.F ....|B-3 2F67 ....
....|..|R-- .... ....|--- .... ....|B-3 2F57 ....
....|..|C-4 2F.F ....|R-- .... ....|--- .... ....
....|..|R-- .... ....|--- .... ....|--- .... ....
 D-4|..|A-3 2F.F ....|D-2 2A.F ....|A-3 2F7A ....
....|..|--- .... ....|--- .... ....|--- .... ....
 C-4|..|E-4 2F.A ....|C-2 2A.F ....|--- .... ....
....|..|R-- .... ....|--- .... ....|--- .... ....
 F-3|..|D-4 2F.7 ....|F-1 2A.F ....|A-3 2F5F ....
....|..|R-- .... ....|--- .... ....|--- .... ....
....|..|D-4 2F.7 ....|R-- .... ....|--- .... ....
....|..|R-- .... ....|--- .... ....|--- .... ....
 F-3|..|D-4 2F.7 ....|F-1 2A.F ....|--- .... ....
....|..|R-- .... ....|--- .... ....|--- .... ....
....|..|A-3 2F.F ....|R-- .... ....|--- .... ....
....|..|R-- .... ....|--- .... ....|--- .... ....
 F-3|..|C-4 2F.F ....|F-1 2A.F ....|A-3 2F77 ....
....|..|--- .... ....|--- .... ....|--- .... ....
....|..|A-3 2F.F ....|C-2 2F.A ....|--- .... ....
....|..|R-- .... ....|--- .... ....|--- .... ....
 F-3|..|C-4 2F.F ....|F-1 2A.F ....|A-3 2F5A ....
....|..|--- .... ....|--- .... ....|--- .... ....
....|..|A-3 2F.F ....|R-- .... ....|--- .... ....
....|..|R-- .... ....|--- .... ....|--- .... ....
 A-3|..|D-4 2F.F ....|A-1 2A.F ....|--- .... ....
....|..|R-- .... ....|--- .... ....|--- .... ....
....|..|C-4 2F.7 ....|R-- .... ....|--- .... ....
....|..|R-- .... ....|--- .... ....|--- .... ....
 A-3|..|A-3 2F.F ....|A-1 2A.F ....|--- .... ....
....|..|--- .... ....|--- .... ....|--- .... ....
....|..|A-3 2F.A ....|C-2 2F.7 ....|--- .... ....
....|..|R-- .... ....|--- .... ....|--- .... ....
 C-4|..|C-4 2F.A ....|C-2 2A.F ....|A-3 2F57 ....
....|..|--- .... ....|--- .... ....|--- .... ....
....|..|A-3 2F.A ....|R-- .... ....|--- .... ....
....|..|--- .... ....|--- .... ....|--- .... ....
 B-3|..|D-4 2F.A ....|B-1 2A.F ....|G-3 2F.F ....
....|..|--- .... ....|--- .... ....|--- .... ....
 C-4|..|A-3 2F.7 ....|C-2 2A.F ....|--- .... ....
....|..|--- .... ....|--- .... ....|--- .... ....
 C-4|..|C-4 2F.7 ....|C-2 2A.F ....|C-4 2FBF ....
....|..|--- .... ....|--- .... ....|C-4 2F1F ....
....|..|A-3 2F.7 ....|R-- .... ....|--- .... ....
....|..|R-- .... ....|--- .... ....|--- .... ....
 C-4|..|C-4 2F.7 ....|C-2 2A.F ....|--- .... ....
....|..|--- .... ....|--- .... ....|--- .... ....
....|..|G-4 2F.F ....|R-- .... ....|--- .... ....
....|..|R-- .... ....|--- .... ....|--- .... ....
 C-4|..|G-4 2F.F ....|C-2 2A.F ....|G-3 2F.A ....
....|..|R-- .... ....|--- .... ....|--- .... ....
....|..|G-4 2F.F ....|C-2 2F.A ....|--- .... ....
....|..|R-- .... ....|--- .... ....|--- .... ....
 C-4|..|G-4 2F.F ....|C-2 2A.F ....|C-4 2FBA ....
....|..|R-- .... ....|--- .... ....|C-4 2F1A ....
....|..|A-4 2F.F ....|R-- .... ....|--- .... ....
....|..|R-- .... ....|--- .... ....|--- .... ....
 G-3|..|--- .... ....|G-1 2A.F ....|B-3 2F2F ....
....|..|--- .... ....|--- .... ....|--- .... ....
....|..|G-4 2F.F ....|R-- .... ....|--- .... ....
....|..|R-- .... ....|--- .... ....|--- .... ....
 G-4|..|G-4 2F.F ....|G-2 2A.F ....|G-3 2F.7 ....
....|..|R-- .... ....|--- .... ....|--- .... ....
....|..|G-4 2F.A ....|C-2 2F.7 ....|--- .... ....
....|..|R-- .... ....|--- .... ....|--- .... ....
 B-3|..|A-4 2F.F ....|B-1 2A.F ....|C-4 2FB7 ....
....|..|R-- .... ....|--- .... ....|C-4 2F17 ....
....|..|A-4 2F.A ....|R-- .... ....|--- .... ....
....|..|--- .... ....|--- .... ....|--- .... ....
 D-4|..|G-4 2F.F ....|D-2 2A.F ....|B-3 2F2A ....
....|..|R-- .... ....|--- .... ....|--- .... ....
 C-4|..|A-4 2F.F ....|C-2 2A.F ....|--- .... ....
....|..|R-- .... ....|--- .... ....|--- .... ....
 A-3|..|G-4 2F.7 ....|A-1 2A.F ....|A-3 2F3F ....
....|..|R-- .... ....|--- .... ....|A-3 2F4F ....
....|..|G-4 2F.7 ....|R-- .... ....|--- .... ....
....|..|R-- .... ....|--- .... ....|--- .... ....
 A-3|..|G-4 2F.7 ....|A-1 2A.F ....|--- .... ....
....|..|R-- .... ....|--- .... ....|--- .... ....
....|..|A-4 2F.7 ....|R-- .... ....|--- .... ....
....|..|--- .... ....|--- .... ....|--- .... ....
 A-3|..|C-5 2F.F ....|A-1 2A.F ....|B-3 2F27 ....
....|..|R-- .... ....|--- .... ....|--- .... ....
....|..|A-4 2F.F ....|C-2 2F.A ....|--- .... ....
....|..|R-- .... ....|--- .... ....|--- .... ....
 A-3|..|G-4 2F.F ....|A-1 2A.F ....|A-3 2F3A ....
....|..|--- .... ....|--- .... ....|A-3 2F4A ....
....|..|C-5 2F.F ....|R-- .... ....|--- .... ....
....|..|--- .... ....|--- .... ....|A-3 2F5F ....
 F-3|..|A-4 2F.7 ....|F-1 2A.F ....|A-3 2F2F ....
....|..|R-- .... ....|--- .... ....|--- .... ....
....|..|R-- .... ....|R-- .... ....|--- .... ....
....|..|--- .... ....|--- .... ....|--- .... ....
 F-3|..|A-4 2F.F ....|F-1 2A.F ....|--- .... ....
....|..|R-- .... ....|--- .... ....|--- .... ....
....|..|A-4 2F.F ....|C-2 2F.7 ....|--- .... ....
....|..|R-- .... ....|--- .... ....|--- .... ....
 A-3|..|G-4 2F.F ....|A-1 2A.F ....|A-3 2F37 ....
....|..|R-- .... ....|--- .... ....|A-3 2F47 ....
....|..|A-4 2F.F ....|R-- .... ....|--- .... ....
....|..|R-- .... ....|--- .... ....|A-3 2F5A ....
 C-4|..|G-4 2F.F ....|C-2 2A.F ....|A-3 2F2A ....
....|..|R-- .... ....|--- .... ....|--- .... ....
 C-4|..|--- .... ....|C-2 2A.F ....|--- .... ....
....|..|--- .... ....|--- .... ....|--- .... ....

[Pattern9]
 G-3|..|C-5 2F.7 ....|G-1 2A.F ....|B-3 2F6F ....
....|..|R-- .... ....|--- .... ....|B-3 2F5F ....
....|..|A-4 2F.7 ....|R-- .... ....|--- .... ....
....|..|R-- .... ....|--- .... ....|--- .... ....
 G-3|..|G-4 2F.7 ....|G-1 2A.F ....|--- .... ....
....|..|R-- .... ....|--- .... ....|--- .... ....
....|..|C-5 2F.7 ....|R-- .... ....|--- .... ....
....|..|R-- .... ....|--- .... ....|A-3 2F57 ....
 G-3|..|G-4 2F.F ....|G-1 2A.F ....|A-3 2F27 ....
....|..|R-- .... ....|--- .... ....|--- .... ....
....|..|G-4 2F.F ....|C-2 2F.A ....|--- .... ....
....|..|R-- .... ....|--- .... ....|--- .... ....
 G-3|..|G-4 2F.F ....|G-1 2A.F ....|B-3 2F6A ....
....|..|R-- .... ....|--- .... ....|B-3 2F5A ....
....|..|A-4 2F.F ....|R-- .... ....|--- .... ....
....|..|R-- .... ....|--- .... ....|--- .... ....
 D-3|..|G-4 2F.7 ....|D-1 2A.F ....|A-3 2F7F ....
....|..|R-- .... ....|--- .... ....|--- .... ....
....|..|A-4 2F.7 ....|R-- .... ....|--- .... ....
....|..|R-- .... ....|--- .... ....|--- .... ....
 D-3|..|G-4 2F.F ....|D-1 2A.F ....|--- .... ....
....|..|R-- .... ....|--- .... ....|--- .... ....
....|..|E-4 2F.F ....|C-2 2F.7 ....|--- .... ....
....|..|R-- .... ....|--- .... ....|--- .... ....
 A-3|..|A-4 2F.F ....|A-1 2A.F ....|B-3 2F67 ....
....|..|R-- .... ....|--- .... ....|B-3 2F57 ....
....|..|G-4 2F.F ....|R-- .... ....|--- .... ....
....|..|--- .... ....|--- .... ....|--- .... ....
 D-4|..|E-4 2F.F ....|D-2 2A.F ....|A-3 2F7A ....
....|..|--- .... ....|--- .... ....|--- .... ....
 C-4|..|C-4 2F.F ....|C-2 2A.F ....|--- .... ....
....|..|--- .... ....|--- .... ....|--- .... ....
 F-3|..|G-4 2F.7 ....|F-1 2A.F ....|A-3 2F5F ....
....|..|R-- .... ....|--- .... ....|--- .... ....
....|..|G-4 2F.7 ....|R-- .... ....|--- .... ....
....|..|R-- .... ....|--- .... ....|--- .... ....
 F-3|..|G-4 2F.7 ....|F-1 2A.F ....|--- .... ....
....|..|R-- .... ....|--- .... ....|--- .... ....
....|..|G-4 2F.F ....|R-- .... ....|--- .... ....
....|..|--- .... ....|--- .... ....|--- .... ....
 F-3|..|A-4 2F.F ....|F-1 2A.F ....|A-3 2F77 ....
....|..|--- .... ....|--- .... ....|--- .... ....
....|..|G-4 2F.F ....|C-2 2F.A ....|--- .... ....
....|..|--- .... ....|--- .... ....|--- .... ....
 F-3|..|A-4 2F.F ....|F-1 2A.F ....|A-3 2F5A ....
....|..|--- .... ....|--- .... ....|--- .... ....
....|..|E-4 2F.7 ....|R-- .... ....|--- .... ....
....|..|--- .... ....|--- .... ....|--- .... ....
 A-3|..|A-4 2F.F ....|A-1 2A.F ....|--- .... ....
....|..|--- .... ....|--- .... ....|--- .... ....
 G-4|..|G-4 2F.7 ....|G-2 2A.F ....|--- .... ....
....|..|--- .... ....|--- .... ....|--- .... ....
 A-3|..|E-4 2F.7 ....|A-1 2A.F ....|--- .... ....
....|..|--- .... ....|--- .... ....|--- .... ....
....|..|C-4 2F.7 ....|C-2 2F.7 ....|--- .... ....
....|..|--- .... ....|--- .... ....|--- .... ....
 A-3|..|A-4 2F.A ....|A-1 2A.F ....|A-3 2F57 ....
....|..|--- .... ....|--- .... ....|--- .... ....
....|..|G-4 2F.F ....|R-- .... ....|--- .... ....
....|..|--- .... ....|--- .... ....|--- .... ....
 G-3|..|A-4 2F.F ....|G-1 2A.F ....|D-4 2F.F ....
....|..|A-4 2F.F ....|--- .... ....|--- .... ....
 G-4|..|G-4 2F.7 ....|G-2 2A.F ....|--- .... ....
....|..|--- .... ....|--- .... ....|--- .... ....
 C-3|..|G-4 2F.F ....|C-1 2A.F ....|D-4 2FDF ....
....|..|--- .... ....|--- .... ....|E-4 2F5F ....
....|..|G-4 2F.7 ....|R-- .... ....|--- .... ....
....|..|R-- .... ....|--- .... ....|--- .... ....
 F#4|..|G-4 2F.F ....|F#2 2A.F ....|--- .... ....
....|..|R-- .... ....|--- .... ....|--- .... ....
....|..|A-4 2F.F ....|R-- .... ....|--- .... ....
....|..|--- .... ....|--- .... ....|--- .... ....
 F#4|..|A-4 2F.7 ....|F#2 2A.F ....|D-4 2F.A ....
....|..|A-4 2F.A ....|--- .... ....|--- .... ....
....|..|R-- .... ....|G-2 2F.7 ....|--- .... ....
....|..|--- .... ....|--- .... ....|--- .... ....
 F#4|..|G-4 2F.F ....|F#2 2A.F ....|D-4 2FDA ....
....|..|--- .... ....|--- .... ....|E-4 2F5A ....
 C-4|..|G-4 2F.F ....|C-2 2A.F ....|--- .... ....
....|..|R-- .... ....|--- .... ....|--- .... ....
 G-2|..|G-4 2F.A ....|G-1 2A.F ....|D-4 2F7F ....
....|..|R-- .... ....|--- .... ....|--- .... ....
....|..|G-4 2F.7 ....|R-- .... ....|--- .... ....
....|..|R-- .... ....|--- .... ....|--- .... ....
 G-3|..|A-4 2F.7 ....|G-1 2A.F ....|D-4 2F.7 ....
....|..|A-4 2F.7 ....|--- .... ....|--- .... ....
 G-2|..|R-- .... ....|G-1 2A.F ....|--- .... ....
....|..|--- .... ....|--- .... ....|--- .... ....
 B-3|..|D-4 2F.F ....|B-1 2A.F ....|D-4 2FD7 ....
....|..|--- .... ....|--- .... ....|E-4 2F57 ....
 G-2|..|E-4 2F.F ....|G-1 2A.F ....|--- .... ....
....|..|R-- .... ....|--- .... ....|--- .... ....
 D-4|..|F-4 2F.F ....|D-2 2A.F ....|D-4 2F7A ....
....|..|R-- .... ....|--- .... ....|--- .... ....
 G-2|..|E-4 2F.F ....|G-1 2A.F ....|--- .... ....
....|..|R-- .... ....|R-- .... ....|--- .... ....
 A-2|..|--- .... ....|A-1 2A.F ....|C-4 2FEF ....
....|..|--- .... ....|--- .... ....|C-4 2FAF ....
....|..|R-- .... ....|G-1 2F.A ....|--- .... ....
....|..|--- .... ....|--- .... ....|--- .... ....
 F#4|..|G-4 2F.F ....|F#2 2A.F ....|--- .... ....
....|..|--- .... ....|--- .... ....|--- .... ....
....|..|F-4 2F.F ....|C-2 2F.7 ....|--- .... ....
....|..|--- .... ....|R-- .... ....|--- .... ....
 G-2|..|F-4 2F.A ....|G-1 2A.F ....|D-4 2F77 ....
....|..|R-- .... ....|--- .... ....|--- .... ....
....|..|E-4 2F.A ....|G-1 2F.A ....|--- .... ....
....|..|R-- .... ....|R-- .... ....|--- .... ....
 F#4|..|E-4 2F.F ....|F#2 2A.F ....|C-4 2FEA ....
....|..|--- .... ....|--- .... ....|C-4 2FAA ....
 C-4|..|C-4 2F.F ....|C-2 2A.F ....|--- .... ....
....|..|--- .... ....|R-- .... ....|C-4 2F.F ....
 F-2|..|D-4 2F.7 ....|F-1 2A.F ....|C-4 2F7F ....
....|..|--- .... ....|--- .... ....|--- .... ....
....|..|E-4 2F.7 ....|G-1 2F.7 ....|--- .... ....
....|..|--- .... ....|R-- .... ....|--- .... ....
 F-3|..|F-4 2F.7 ....|F-1 2A.F ....|--- .... ....
....|..|R-- .... ....|--- .... ....|--- .... ....
 F-2|..|E-4 2F.7 ....|F-1 2A.F ....|--- .... ....
....|..|R-- .... ....|R-- .... ....|--- .... ....
 A-3|..|E-4 2F.A ....|A-1 2A.F ....|C-4 2FE7 ....
....|..|--- .... ....|--- .... ....|C-4 2FA7 ....
 F-2|..|C-4 2F.A ....|F-1 2A.F ....|--- .... ....
....|..|--- .... ....|R-- .... ....|C-4 2F.A ....
 C-4|..|G-4 2F.7 ....|C-2 2A.F ....|C-4 2F7A ....
....|..|--- .... ....|--- .... ....|--- .... ....
 F-2|..|F-4 2F.7 ....|F-1 2A.F ....|--- .... ....
....|..|--- .... ....|R-- .... ....|--- .... ....

[Pattern10]
 G-2|..|R-- .... ....|G-1 2A.F ....|D-4 2F5F ....
....|..|--- .... ....|--- .... ....|D-4 2F.F ....
....|..|--- .... ....|F-1 2F.A ....|--- .... ....
....|..|R-- .... ....|--- .... ....|--- .... ....
 F#4|..|D-4 2F.F ....|F#2 2A.F ....|--- .... ....
....|..|--- .... ....|--- .... ....|--- .... ....
....|..|D-4 2F.F ....|C-2 2F.7 ....|--- .... ....
....|..|--- .... ....|R-- .... ....|C-4 2F.7 ....
 F#4|..|D-4 2F.F ....|F#2 2A.F ....|C-4 2F77 ....
....|..|--- .... ....|--- .... ....|--- .... ....
....|..|D-4 2F.F ....|F-1 2F.A ....|--- .... ....
....|..|--- .... ....|R-- .... ....|--- .... ....
 F#4|..|E-4 2F.F ....|F#2 2A.F ....|D-4 2F5A ....
....|..|--- .... ....|--- .... ....|D-4 2F.A ....
 C-4|..|F-4 2F.F ....|C-2 2A.F ....|--- .... ....
....|..|--- .... ....|R-- .... ....|--- .... ....
 D-2|..|E-4 2F.F ....|D-1 2A.F ....|D-4 2F.F ....
....|..|--- .... ....|--- .... ....|--- .... ....
....|..|D-4 2F.A ....|F-1 2F.7 ....|--- .... ....
....|..|--- .... ....|--- .... ....|--- .... ....
 D-3|..|D-4 2F.F ....|D-1 2A.F ....|--- .... ....
....|..|--- .... ....|--- .... ....|--- .... ....
 D-2|..|C-4 2F.F ....|D-1 2A.F ....|--- .... ....
....|..|--- .... ....|R-- .... ....|--- .... ....
 A-3|..|E-4 2F.A ....|A-1 2A.F ....|D-4 2F57 ....
....|..|--- .... ....|--- .... ....|D-4 2F.7 ....
 D-2|..|A-3 2F.F ....|D-1 2A.F ....|--- .... ....
....|..|--- .... ....|R-- .... ....|--- .... ....
 D-4|..|D-4 2F.7 ....|D-2 2A.F ....|D-4 2F.A ....
....|..|--- .... ....|--- .... ....|--- .... ....
 D-2|..|D-4 2F.7 ....|D-1 2A.F ....|--- .... ....
....|..|R-- .... ....|R-- .... ....|--- .... ....
 F-2|..|D-4 2F.7 ....|F-1 2A.F ....|C-4 2F.F ....
....|..|--- .... ....|--- .... ....|--- .... ....
....|..|D-4 2F.7 ....|D-1 2F.A ....|--- .... ....
....|..|--- .... ....|--- .... ....|--- .... ....
 F#4|..|C-4 2F.F ....|F#2 2A.F ....|--- .... ....
....|..|--- .... ....|--- .... ....|--- .... ....
....|..|C-4 2F.F ....|C-2 2F.7 ....|--- .... ....
....|..|--- .... ....|R-- .... ....|--- .... ....
 F#4|..|E-4 2F.7 ....|F#2 2A.F ....|D-4 2F.7 ....
....|..|--- .... ....|--- .... ....|--- .... ....
....|..|A-3 2F.F ....|D-1 2F.A ....|--- .... ....
....|..|R-- .... ....|R-- .... ....|--- .... ....
 F#4|..|D-4 2F.7 ....|F#2 2A.F ....|C-4 2F.A ....
....|..|--- .... ....|--- .... ....|--- .... ....
....|..|C-4 2F.7 ....|D-1 2F.7 ....|--- .... ....
....|..|--- .... ....|R-- .... ....|--- .... ....
 G-2|..|C-4 2F.A ....|G-1 2A.F ....|D-4 2F.F ....
....|..|--- .... ....|--- .... ....|--- .... ....
 C-4|..|A-3 2F.7 ....|C-2 2A.F ....|--- .... ....
....|..|--- .... ....|--- .... ....|--- .... ....
 B-3|..|D-4 2F.F ....|B-1 2A.F ....|--- .... ....
....|..|--- .... ....|--- .... ....|--- .... ....
 G-2|..|E-4 2F.F ....|G-1 2A.F ....|--- .... ....
....|..|R-- .... ....|R-- .... ....|--- .... ....
 D-4|..|--- .... ....|D-2 2A.F ....|C-4 2F.7 ....
....|..|--- .... ....|--- .... ....|--- .... ....
 G-2|..|--- .... ....|G-1 2A.F ....|--- .... ....
....|..|--- .... ....|R-- .... ....|--- .... ....
 B-3|..|D-4 2F.F ....|B-1 2A.F ....|D-4 2F.A ....
....|..|--- .... ....|--- .... ....|--- .... ....
 G-2|..|C-4 2F.7 ....|G-1 2A.F ....|--- .... ....
....|..|--- .... ....|R-- .... ....|--- .... ....
 C-3|..|D-4 2F.A ....|C-1 2A.F ....|E-4 2F5F ....
....|..|R-- .... ....|--- .... ....|--- .... ....
....|..|A-3 2F.7 ....|G-1 2F.A ....|--- .... ....
....|..|--- .... ....|--- .... ....|--- .... ....
 F#4|..|G-4 2F.F ....|F#2 2A.F ....|--- .... ....
....|..|--- .... ....|--- .... ....|--- .... ....
....|..|A-4 2F.F ....|G-1 2F.A ....|--- .... ....
....|..|--- .... ....|R-- .... ....|--- .... ....
 F#4|..|D-4 2F.A ....|F#2 2A.F ....|D-4 2F.7 ....
....|..|--- .... ....|--- .... ....|--- .... ....
....|..|--- .... ....|C-2 2F.7 ....|--- .... ....
....|..|--- .... ....|R-- .... ....|--- .... ....
 F#4|..|G-4 2F.F ....|F#2 2A.F ....|E-4 2F5A ....
....|..|R-- .... ....|--- .... ....|--- .... ....
 C-4|..|G-4 2F.F ....|C-2 2A.F ....|--- .... ....
....|..|--- .... ....|--- .... ....|--- .... ....
 G-2|..|G-4 2F.A ....|G-1 2A.F ....|D-4 2F7F ....
....|..|--- .... ....|--- .... ....|--- .... ....
....|..|A-4 2F.A ....|G-1 2F.7 ....|--- .... ....
....|..|R-- .... ....|--- .... ....|--- .... ....
 G-3|..|D-4 2F.7 ....|G-1 2A.F ....|--- .... ....
....|..|--- .... ....|--- .... ....|--- .... ....
 G-2|..|--- .... ....|G-1 2A.F ....|--- .... ....
....|..|--- .... ....|R-- .... ....|--- .... ....
 B-3|..|D-4 2F.F ....|B-1 2A.F ....|E-4 2F57 ....
....|..|R-- .... ....|--- .... ....|--- .... ....
 G-2|..|E-4 2F.F ....|G-1 2A.F ....|--- .... ....
....|..|--- .... ....|--- .... ....|--- .... ....
 D-4|..|F-4 2F.F ....|D-2 2A.F ....|D-4 2F7A ....
....|..|--- .... ....|--- .... ....|--- .... ....
 G-2|..|E-4 2F.F ....|G-1 2A.F ....|--- .... ....
....|..|R-- .... ....|R-- .... ....|--- .... ....
 A-2|..|--- .... ....|A-1 2A.F ....|D-4 2FFF ....
....|..|--- .... ....|--- .... ....|E-4 2F.F ....
....|..|R-- .... ....|G-1 2F.A ....|--- .... ....
....|..|--- .... ....|--- .... ....|--- .... ....
 F#4|..|G-4 2F.F ....|F#2 2A.F ....|--- .... ....
....|..|--- .... ....|--- .... ....|--- .... ....
....|..|F-4 2F.F ....|C-2 2F.7 ....|--- .... ....
....|..|--- .... ....|R-- .... ....|--- .... ....
 G-2|..|F-4 2F.A ....|G-1 2A.F ....|D-4 2F77 ....
....|..|--- .... ....|--- .... ....|--- .... ....
....|..|E-4 2F.A ....|G-1 2F.A ....|--- .... ....
....|..|R-- .... ....|R-- .... ....|--- .... ....
 F#4|..|E-4 2F.F ....|F#2 2A.F ....|D-4 2FFA ....
....|..|--- .... ....|--- .... ....|E-4 2F.A ....
 C-4|..|C-4 2F.F ....|C-2 2A.F ....|--- .... ....
....|..|--- .... ....|R-- .... ....|A-2 2F.F ....
 F-2|..|D-4 2F.7 ....|F-1 2A.F ....|F-4 2F.F ....
....|..|--- .... ....|--- .... ....|--- .... ....
....|..|E-4 2F.7 ....|G-1 2F.7 ....|--- .... ....
....|..|--- .... ....|R-- .... ....|--- .... ....
 F-3|..|F-4 2F.7 ....|F-1 2A.F ....|--- .... ....
....|..|R-- .... ....|--- .... ....|--- .... ....
 F-2|..|E-4 2F.7 ....|F-1 2A.F ....|--- .... ....
....|..|--- .... ....|R-- .... ....|--- .... ....
 A-3|..|E-4 2F.A ....|A-1 2A.F ....|D-4 2FF7 ....
....|..|--- .... ....|--- .... ....|E-4 2F.7 ....
 F-2|..|C-4 2F.A ....|F-1 2A.F ....|--- .... ....
....|..|--- .... ....|R-- .... ....|A-2 2F.A ....
 C-4|..|G-4 2F.7 ....|C-2 2A.F ....|F-4 2F.A ....
....|..|--- .... ....|--- .... ....|--- .... ....
 F-2|..|F-4 2F.7 ....|F-1 2A.F ....|--- .... ....
....|..|--- .... ....|R-- .... ....|--- .... ....

[Pattern11]
 G-2|..|--- .... ....|G-1 2A.F ....|D-4 2F5F ....
....|..|R-- .... ....|--- .... ....|D-4 2F.F ....
....|..|--- .... ....|F-1 2F.A ....|--- .... ....
....|..|--- .... ....|--- .... ....|--- .... ....
 F#4|..|D-4 2F.F ....|F#2 2A.F ....|--- .... ....
....|..|--- .... ....|--- .... ....|--- .... ....
....|..|D-4 2F.F ....|C-2 2F.7 ....|--- .... ....
....|..|--- .... ....|R-- .... ....|A-2 2F.7 ....
 F#4|..|D-4 2F.F ....|F#2 2A.F ....|F-4 2F.7 ....
....|..|--- .... ....|--- .... ....|--- .... ....
....|..|D-4 2F.F ....|F-1 2F.A ....|--- .... ....
....|..|--- .... ....|R-- .... ....|--- .... ....
 F#4|..|E-4 2F.F ....|F#2 2A.F ....|D-4 2F5A ....
....|..|R-- .... ....|--- .... ....|D-4 2F.A ....
 C-4|..|F-4 2F.F ....|C-2 2A.F ....|--- .... ....
....|..|--- .... ....|R-- .... ....|--- .... ....
 D-2|..|E-4 2F.F ....|D-1 2A.F ....|D-4 2F.F ....
....|..|--- .... ....|--- .... ....|--- .... ....
....|..|D-4 2F.A ....|F-1 2F.7 ....|--- .... ....
....|..|--- .... ....|--- .... ....|--- .... ....
 D-3|..|D-4 2F.F ....|D-1 2A.F ....|--- .... ....
....|..|--- .... ....|--- .... ....|--- .... ....
 D-2|..|C-4 2F.F ....|D-1 2A.F ....|--- .... ....
....|..|--- .... ....|R-- .... ....|--- .... ....
 A-3|..|E-4 2F.A ....|A-1 2A.F ....|D-4 2F57 ....
....|..|--- .... ....|--- .... ....|D-4 2F.7 ....
 D-2|..|A-3 2F.F ....|D-1 2A.F ....|--- .... ....
....|..|--- .... ....|R-- .... ....|--- .... ....
 D-4|..|D-4 2F.7 ....|D-2 2A.F ....|D-4 2F.A ....
....|..|--- .... ....|--- .... ....|--- .... ....
 D-2|..|D-4 2F.7 ....|D-1 2A.F ....|--- .... ....
....|..|R-- .... ....|R-- .... ....|--- .... ....
 F-2|..|D-4 2F.7 ....|F-1 2A.F ....|C-4 2F.F ....
....|..|--- .... ....|--- .... ....|--- .... ....
....|..|D-4 2F.7 ....|D-1 2F.A ....|--- .... ....
....|..|--- .... ....|--- .... ....|--- .... ....
 F#4|..|C-4 2F.F ....|F#2 2A.F ....|--- .... ....
....|..|--- .... ....|--- .... ....|--- .... ....
....|..|C-4 2F.F ....|C-2 2F.7 ....|--- .... ....
....|..|--- .... ....|R-- .... ....|--- .... ....
 G-4|..|E-4 2F.7 ....|G-3 2C.F ....|D-4 2F.7 ....
....|..|--- .... ....|--- .... ....|--- .... ....
....|..|A-3 2F.F ....|D-1 2F.A ....|--- .... ....
....|..|R-- .... ....|R-- .... ....|--- .... ....
 F#4|..|D-4 2F.7 ....|F#2 2A.F ....|C-4 2F.A ....
....|..|--- .... ....|--- .... ....|--- .... ....
....|..|C-4 2F.7 ....|D-1 2F.7 ....|--- .... ....
....|..|R-- .... ....|R-- .... ....|--- .... ....
 G-2|..|C-4 2F.A ....|G-1 2A.F ....|D-4 2F.F ....
....|..|--- .... ....|--- .... ....|--- .... ....
 D-4|..|A-3 2F.7 ....|D-3 2C.F ....|--- .... ....
....|..|--- .... ....|--- .... ....|--- .... ....
 B-3|..|D-4 2F.F ....|B-1 2A.F ....|--- .... ....
....|..|R-- .... ....|--- .... ....|--- .... ....
 G-2|..|E-4 2F.F ....|G-1 2A.F ....|--- .... ....
....|..|R-- .... ....|R-- .... ....|--- .... ....
 D-4|..|--- .... ....|D-2 2A.F ....|C-4 2F.7 ....
....|..|--- .... ....|--- .... ....|--- .... ....
 G-2|..|--- .... ....|G-1 2A.F ....|--- .... ....
....|..|R-- .... ....|R-- .... ....|--- .... ....
 B-3|..|F-4 2F.F ....|B-1 2A.F ....|D-4 2F.A ....
....|..|--- .... ....|--- .... ....|--- .... ....
 G-2|..|C-4 2F.7 ....|G-1 2A.F ....|--- .... ....
....|..|R-- .... ....|R-- .... ....|--- .... ....
 C-3|..|D-4 2F.A ....|C-1 2A.F ....|E-4 2F5F ....
....|..|R-- .... ....|--- .... ....|--- .... ....
....|..|A-3 2F.7 ....|G-1 2F.A ....|--- .... ....
....|..|--- .... ....|--- .... ....|--- .... ....
 F#4|..|G-4 2F.F ....|F#2 2A.F ....|--- .... ....
....|..|R-- .... ....|--- .... ....|--- .... ....
....|..|A-4 2F.F ....|G-1 2F.A ....|--- .... ....
....|..|R-- .... ....|R-- .... ....|--- .... ....
 F#4|..|F-4 2F.A ....|F#2 2A.F ....|D-4 2F.7 ....
....|..|--- .... ....|--- .... ....|--- .... ....
....|..|R-- .... ....|D-3 2F.7 ....|--- .... ....
....|..|R-- .... ....|R-- .... ....|--- .... ....
 F#4|..|G-4 2F.F ....|F#2 2A.F ....|E-4 2F5A ....
....|..|R-- .... ....|--- .... ....|--- .... ....
 C-4|..|G-4 2F.F ....|C-2 2A.F ....|--- .... ....
....|..|--- .... ....|--- .... ....|--- .... ....
 G-2|..|G-4 2F.A ....|G-1 2A.F ....|D-4 2F7F ....
....|..|R-- .... ....|--- .... ....|--- .... ....
....|..|A-4 2F.A ....|G-1 2F.7 ....|--- .... ....
....|..|R-- .... ....|--- .... ....|--- .... ....
 G-3|..|F-4 2F.7 ....|G-1 2A.F ....|--- .... ....
....|..|--- .... ....|--- .... ....|--- .... ....
 G-2|..|R-- .... ....|G-1 2A.F ....|--- .... ....
....|..|R-- .... ....|R-- .... ....|--- .... ....
 B-3|..|G-4 2F.F ....|B-1 2A.F ....|E-4 2F57 ....
....|..|R-- .... ....|--- .... ....|--- .... ....
 G-2|..|G-4 2F.F ....|G-1 2A.F ....|--- .... ....
....|..|R-- .... ....|--- .... ....|--- .... ....
 D-4|..|G-4 2F.F ....|D-2 2A.F ....|D-4 2F7A ....
....|..|R-- .... ....|--- .... ....|--- .... ....
 G-2|..|A-4 2F.F ....|G-1 2A.F ....|--- .... ....
....|..|R-- .... ....|R-- .... ....|--- .... ....
 A-2|..|--- .... ....|A-1 2A.F ....|C-4 2FEF ....
....|..|--- .... ....|--- .... ....|C-4 2FAF ....
....|..|R-- .... ....|G-1 2F.A ....|--- .... ....
....|..|R-- .... ....|--- .... ....|--- .... ....
 F#4|..|A-4 2F.F ....|F#2 2A.F ....|--- .... ....
....|..|R-- .... ....|--- .... ....|--- .... ....
....|..|A-4 2F.F ....|C-2 2F.7 ....|--- .... ....
....|..|R-- .... ....|R-- .... ....|--- .... ....
 G-2|..|G-4 2F.A ....|G-1 2A.F ....|D-4 2F77 ....
....|..|R-- .... ....|--- .... ....|--- .... ....
....|..|A-4 2F.A ....|G-1 2F.A ....|--- .... ....
....|..|R-- .... ....|R-- .... ....|--- .... ....
 F#4|..|G-4 2F.F ....|F#2 2A.F ....|C-4 2FEA ....
....|..|--- .... ....|--- .... ....|C-4 2FAA ....
 C-4|..|--- .... ....|C-2 2A.F ....|--- .... ....
....|..|R-- .... ....|R-- .... ....|C-4 2F.F ....
 F-2|..|A-4 2F.F ....|F-1 2A.F ....|C-4 2F7F ....
....|..|R-- .... ....|--- .... ....|--- .... ....
....|..|G-4 2F.7 ....|G-1 2F.7 ....|--- .... ....
....|..|R-- .... ....|R-- .... ....|--- .... ....
 F-3|..|G-4 2F.7 ....|F-1 2A.F ....|--- .... ....
....|..|R-- .... ....|--- .... ....|--- .... ....
 F-2|..|A-4 2F.7 ....|F-1 2A.F ....|--- .... ....
....|..|--- .... ....|R-- .... ....|--- .... ....
 A-3|..|G-4 2F.A ....|A-1 2A.F ....|C-4 2FE7 ....
....|..|--- .... ....|--- .... ....|C-4 2FA7 ....
 F-2|..|--- .... ....|F-1 2A.F ....|--- .... ....
....|..|R-- .... ....|R-- .... ....|C-4 2F.A ....
 C-4|..|A-4 2F.7 ....|C-2 2A.F ....|C-4 2F7A ....
....|..|R-- .... ....|--- .... ....|--- .... ....
 F-2|..|A-4 2F.7 ....|F-1 2A.F ....|--- .... ....
....|..|--- .... ....|R-- .... ....|--- .... ....

[Pattern12]
 G-2|..|--- .... ....|G-1 2A.F ....|D-4 2F5F ....
....|..|--- .... ....|--- .... ....|D-4 2F.F ....
....|..|--- .... ....|F-1 2F.A ....|--- .... ....
....|..|--- .... ....|--- .... ....|--- .... ....
 F#4|..|G-4 2F.F ....|F#2 2A.F ....|--- .... ....
....|..|R-- .... ....|--- .... ....|--- .... ....
....|..|G-4 2F.F ....|C-2 2F.7 ....|--- .... ....
....|..|R-- .... ....|R-- .... ....|C-4 2F.7 ....
 F#4|..|G-4 2F.F ....|F#2 2A.F ....|C-4 2F77 ....
....|..|R-- .... ....|--- .... ....|--- .... ....
....|..|G-4 2F.F ....|F-1 2F.A ....|--- .... ....
....|..|R-- .... ....|R-- .... ....|--- .... ....
 F#4|..|G-4 2F.F ....|F#2 2A.F ....|D-4 2F5A ....
....|..|R-- .... ....|--- .... ....|D-4 2F.A ....
 C-4|..|G-4 2F.F ....|C-2 2A.F ....|--- .... ....
....|..|R-- .... ....|R-- .... ....|--- .... ....
 D-2|..|A-4 2F.F ....|D-1 2A.F ....|D-4 2F.F ....
....|..|R-- .... ....|--- .... ....|--- .... ....
....|..|G-4 2F.A ....|F-1 2F.7 ....|--- .... ....
....|..|R-- .... ....|--- .... ....|--- .... ....
 D-3|..|G-4 2F.F ....|D-1 2A.F ....|--- .... ....
....|..|R-- .... ....|--- .... ....|--- .... ....
 D-2|..|A-4 2F.F ....|D-1 2A.F ....|--- .... ....
....|..|R-- .... ....|R-- .... ....|--- .... ....
 A-3|..|G-4 2F.A ....|A-1 2A.F ....|D-4 2F57 ....
....|..|R-- .... ....|--- .... ....|D-4 2F.7 ....
 D-2|..|G-4 2F.A ....|D-1 2A.F ....|--- .... ....
....|..|R-- .... ....|R-- .... ....|--- .... ....
 D-4|..|C-5 2F.F ....|D-2 2A.F ....|D-4 2F.A ....
....|..|R-- .... ....|--- .... ....|--- .... ....
 D-2|..|G-4 2F.7 ....|D-1 2A.F ....|--- .... ....
....|..|R-- .... ....|R-- .... ....|--- .... ....
 C#4|..|G-4 2F.7 ....|C#3 2C.F ....|C-4 2F.F ....
....|..|R-- .... ....|--- .... ....|--- .... ....
....|..|G-4 2F.7 ....|D-1 2F.A ....|--- .... ....
....|..|R-- .... ....|--- .... ....|--- .... ....
 F#4|..|C-5 2F.F ....|F#2 2A.F ....|--- .... ....
....|..|C-5 2F.F ....|--- .... ....|--- .... ....
 A-3|..|C-5 2F.F ....|A-3 2C.F ....|--- .... ....
....|..|R-- .... ....|R-- .... ....|--- .... ....
 F#4|..|A-4 2F.7 ....|F#2 2A.F ....|D-4 2F.7 ....
....|..|--- .... ....|--- .... ....|--- .... ....
....|..|R-- .... ....|D-1 2F.A ....|--- .... ....
....|..|--- .... ....|R-- .... ....|--- .... ....
 C#4|..|C-5 2F.F ....|C#3 2C.F ....|C-4 2F.A ....
....|..|R-- .... ....|--- .... ....|--- .... ....
....|..|A-4 2F.7 ....|D-1 2F.7 ....|--- .... ....
....|..|--- .... ....|--- .... ....|--- .... ....
 A#3|..|C-5 2F.A ....|A#2 2C.F ....|--- .... ....
....|..|C-5 2F.A ....|--- .... ....|--- .... ....
 C-3|..|C-5 2F.A ....|C-3 2C.F ....|--- .... ....
....|..|--- .... ....|--- .... ....|--- .... ....
 C-3|..|C-5 2F.7 ....|C-3 2C.F ....|--- .... ....
....|..|--- .... ....|--- .... ....|--- .... ....
 B-4|..|--- .... ....|B-2 2A.F ....|--- .... ....
....|..|--- .... ....|R-- .... ....|--- .... ....
 A#3|..|C-5 2F.A ....|A#2 2C.F ....|C-4 2F.7 ....
....|..|--- .... ....|--- .... ....|--- .... ....
 A-3|..|--- .... ....|A-2 2C.F ....|--- .... ....
....|..|--- .... ....|--- .... ....|--- .... ....
 A-3|..|C-5 2F.7 ....|A-2 2C.F ....|--- .... ....
....|..|C-5 2F.7 ....|--- .... ....|--- .... ....
 G-4|..|C-5 2F.7 ....|G-2 2A.F ....|--- .... ....
....|..|C-5 2F.F ....|--- .... ....|--- .... ....
 C#4|..|G-4 2F.F ....|C#3 2C.F ....|C-4 2F1F ....
....|..|--- .... ....|--- .... ....|E-4 2F5F ....
....|..|--- .... ....|B-2 2F.A ....|--- .... ....
....|..|--- .... ....|--- .... ....|--- .... ....
 F#4|..|C-5 2F.7 ....|F#2 2A.F ....|--- .... ....
....|..|--- .... ....|--- .... ....|--- .... ....
....|..|--- .... ....|A-2 2F.A ....|--- .... ....
....|..|--- .... ....|--- .... ....|--- .... ....
 F#4|..|--- .... ....|F#2 2A.F ....|--- .... ....
....|..|--- .... ....|--- .... ....|--- .... ....
....|..|--- .... ....|C-3 2F.7 ....|--- .... ....
....|..|C-5 2F.A ....|--- .... ....|--- .... ....
 F#4|..|G-4 2F.A ....|F#2 2A.F ....|C-4 2F1A ....
....|..|--- .... ....|--- .... ....|E-4 2F5A ....
 C-4|..|R-- .... ....|C-2 2A.F ....|--- .... ....
....|..|--- .... ....|--- .... ....|--- .... ....
 F#4|..|--- .... ....|F#2 2A.F ....|D-4 2F7F ....
....|..|--- .... ....|--- .... ....|--- .... ....
....|..|--- .... ....|A-2 2F.7 ....|--- .... ....
....|..|--- .... ....|--- .... ....|--- .... ....
 G-3|..|--- .... ....|G-1 2A.F ....|--- .... ....
....|..|--- .... ....|--- .... ....|--- .... ....
....|..|--- .... ....|G-2 2F.7 ....|--- .... ....
....|..|C-5 2F.7 ....|--- .... ....|--- .... ....
 B-3|..|G-4 2F.7 ....|B-1 2A.F ....|C-4 2F17 ....
....|..|--- .... ....|--- .... ....|E-4 2F57 ....
....|..|R-- .... ....|C-2 2F.A ....|--- .... ....
....|..|--- .... ....|--- .... ....|--- .... ....
 D-4|..|--- .... ....|D-2 2A.F ....|D-4 2F7A ....
....|..|--- .... ....|--- .... ....|--- .... ....
....|..|--- .... ....|R-- .... ....|--- .... ....
....|..|--- .... ....|--- .... ....|--- .... ....
 F#4|..|--- .... ....|F#2 2A.F ....|C-4 2FEF ....
....|..|--- .... ....|--- .... ....|C-4 2FAF ....
....|..|--- .... ....|R-- .... ....|--- .... ....
....|..|--- .... ....|--- .... ....|--- .... ....
 F#4|..|--- .... ....|F#2 2A.F ....|--- .... ....
....|..|--- .... ....|--- .... ....|--- .... ....
....|..|R-- .... ....|C-2 2F.7 ....|--- .... ....
....|..|--- .... ....|--- .... ....|--- .... ....
 F#4|..|--- .... ....|F#2 2A.F ....|D-4 2F77 ....
....|..|--- .... ....|--- .... ....|--- .... ....
....|..|--- .... ....|R-- .... ....|--- .... ....
....|..|--- .... ....|--- .... ....|--- .... ....
 F#4|..|--- .... ....|F#2 2A.F ....|C-4 2FEA ....
....|..|--- .... ....|--- .... ....|C-4 2FAA ....
 C-4|..|--- .... ....|C-2 2A.F ....|--- .... ....
....|..|--- .... ....|--- .... ....|C-4 2F.F ....
 F#4|..|--- .... ....|F#2 2A.F ....|C-4 2F7F ....
....|..|--- .... ....|--- .... ....|--- .... ....
....|..|--- .... ....|R-- .... ....|--- .... ....
....|..|--- .... ....|--- .... ....|--- .... ....
 F-3|..|--- .... ....|F-1 2A.F ....|--- .... ....
....|..|--- .... ....|--- .... ....|--- .... ....
....|..|--- .... ....|R-- .... ....|--- .... ....
....|..|--- .... ....|--- .... ....|--- .... ....
 A-3|..|--- .... ....|A-1 2A.F ....|C-4 2FE7 ....
....|..|--- .... ....|--- .... ....|C-4 2FA7 ....
....|..|--- .... ....|C-2 2F.A ....|--- .... ....
....|..|--- .... ....|--- .... ....|C-4 2F.A ....
 C-4|..|--- .... ....|C-2 2A.F ....|C-4 2F7A ....
....|..|--- .... ....|--- .... ....|--- .... ....
....|..|--- .... ....|R-- .... ....|--- .... ....
....|..|--- .... ....|--- .... ....|--- .... ....

[Pattern13]
 A-3|..|--- .... ....|A-3 2C.F ....|D-4 2F5F ....
....|..|--- .... ....|--- .... ....|D-4 2F.F ....
....|..|--- .... ....|R-- .... ....|--- .... ....
....|..|--- .... ....|--- .... ....|--- .... ....
 F#4|..|--- .... ....|F#2 2A.F ....|--- .... ....
....|..|--- .... ....|--- .... ....|--- .... ....
 D-3|..|--- .... ....|D-1 2A.F ....|--- .... ....
....|..|--- .... ....|--- .... ....|C-4 2F.7 ....
 F#4|..|--- .... ....|F#2 2A.F ....|C-4 2F77 ....
....|..|--- .... ....|--- .... ....|--- .... ....
....|..|--- .... ....|R-- .... ....|--- .... ....
....|..|--- .... ....|--- .... ....|--- .... ....
 F#4|..|--- .... ....|F#2 2A.F ....|D-4 2F5A ....
....|..|--- .... ....|--- .... ....|D-4 2F.A ....
 C-4|..|--- .... ....|C-2 2A.F ....|--- .... ....
....|..|--- .... ....|--- .... ....|--- .... ....
 F#4|..|--- .... ....|F#2 2A.F ....|D-4 2F.F ....
....|..|--- .... ....|--- .... ....|--- .... ....
....|..|--- .... ....|D-1 2F.A ....|--- .... ....
....|..|--- .... ....|--- .... ....|--- .... ....
 F#4|..|--- .... ....|F#2 2A.F ....|--- .... ....
....|..|--- .... ....|--- .... ....|--- .... ....
 D-3|..|--- .... ....|D-1 2A.F ....|--- .... ....
....|..|--- .... ....|--- .... ....|--- .... ....
 F#4|..|--- .... ....|F#2 2A.F ....|D-4 2F57 ....
....|..|--- .... ....|--- .... ....|D-4 2F.7 ....
....|..|--- .... ....|C-2 2F.A ....|--- .... ....
....|..|--- .... ....|--- .... ....|--- .... ....
 F#4|..|--- .... ....|F#2 2A.F ....|D-4 2F.A ....
....|..|--- .... ....|--- .... ....|--- .... ....
....|..|--- .... ....|D-1 2F.7 ....|--- .... ....
....|..|--- .... ....|--- .... ....|--- .... ....
 F#4|..|--- .... ....|F#2 2A.F ....|C-4 2F.F ....
....|..|--- .... ....|--- .... ....|--- .... ....
....|..|--- .... ....|D-1 2F.A ....|--- .... ....
....|..|--- .... ....|--- .... ....|--- .... ....
 F#4|..|--- .... ....|F#2 2A.F ....|--- .... ....
....|..|--- .... ....|--- .... ....|--- .... ....
....|..|--- .... ....|C-2 2F.7 ....|--- .... ....
....|..|--- .... ....|--- .... ....|--- .... ....
 F#4|..|--- .... ....|F#2 2A.F ....|D-4 2F.7 ....
....|..|--- .... ....|--- .... ....|--- .... ....
....|..|--- .... ....|--- .... ....|--- .... ....
....|..|--- .... ....|--- .... ....|--- .... ....
 F#4|..|--- .... ....|F#2 2A.F ....|C-4 2F.A ....
....|..|--- .... ....|--- .... ....|--- .... ....
....|..|--- .... ....|D-1 2F.7 ....|--- .... ....
....|..|--- .... ....|--- .... ....|--- .... ....
 F#4|..|--- .... ....|F#2 2A.F ....|C-4 2FAF ....
....|..|--- .... ....|--- .... ....|--- .... ....
 C-4|..|--- .... ....|C-2 2A.F ....|--- .... ....
....|..|--- .... ....|--- .... ....|--- .... ....
 D-4|..|--- .... ....|D-3 2C.F ....|--- .... ....
....|..|--- .... ....|--- .... ....|--- .... ....
....|..|--- .... ....|--- .... ....|--- .... ....
....|..|--- .... ....|--- .... ....|--- .... ....
 B-4|..|--- .... ....|B-2 2A.F ....|C-4 2F.7 ....
....|..|--- .... ....|--- .... ....|--- .... ....
 A-3|..|--- .... ....|A-2 2C.F ....|--- .... ....
....|..|--- .... ....|--- .... ....|--- .... ....
 G-4|..|--- .... ....|G-2 2A.F ....|C-4 2FAA ....
....|..|--- .... ....|--- .... ....|--- .... ....
....|..|--- .... ....|C-2 2F.A ....|--- .... ....
....|..|--- .... ....|--- .... ....|C-4 2FAF ....
 C#4|..|--- .... ....|C#3 2C.F ....|C-4 2F1F ....
....|..|--- .... ....|--- .... ....|E-4 2F5F ....
....|..|--- .... ....|--- .... ....|--- .... ....
....|..|--- .... ....|--- .... ....|--- .... ....
 F#4|..|--- .... ....|F#2 2A.F ....|--- .... ....
....|..|--- .... ....|--- .... ....|--- .... ....
....|..|--- .... ....|A-2 2F.A ....|--- .... ....
....|..|--- .... ....|--- .... ....|--- .... ....
 F#4|..|--- .... ....|F#2 2A.F ....|C-4 2FA7 ....
....|..|--- .... ....|--- .... ....|--- .... ....
....|..|--- .... ....|C-2 2F.7 ....|--- .... ....
....|..|--- .... ....|--- .... ....|C-4 2FAA ....
 F#4|..|--- .... ....|F#2 2A.F ....|C-4 2F1A ....
....|..|--- .... ....|--- .... ....|E-4 2F5A ....
 C-4|..|--- .... ....|C-2 2A.F ....|--- .... ....
....|..|--- .... ....|--- .... ....|--- .... ....
 F#4|..|--- .... ....|F#2 2A.F ....|D-4 2F7F ....
....|..|--- .... ....|--- .... ....|--- .... ....
....|..|--- .... ....|A-2 2F.7 ....|--- .... ....
....|..|--- .... ....|--- .... ....|--- .... ....
 G-3|..|--- .... ....|G-1 2A.F ....|--- .... ....
....|..|--- .... ....|--- .... ....|--- .... ....
....|..|--- .... ....|R-- .... ....|--- .... ....
....|..|--- .... ....|--- .... ....|C-4 2FA7 ....
 B-3|..|--- .... ....|B-1 2A.F ....|C-4 2F17 ....
....|..|--- .... ....|--- .... ....|E-4 2F57 ....
....|..|--- .... ....|C-2 2F.A ....|--- .... ....
....|..|--- .... ....|--- .... ....|--- .... ....
 D-4|..|--- .... ....|D-2 2A.F ....|D-4 2F7A ....
....|..|--- .... ....|--- .... ....|--- .... ....
....|..|--- .... ....|R-- .... ....|--- .... ....
....|..|--- .... ....|--- .... ....|--- .... ....
 F#4|..|--- .... ....|F#2 2A.F ....|D-4 2FFF ....
....|..|--- .... ....|--- .... ....|E-4 2F.F ....
....|..|--- .... ....|R-- .... ....|--- .... ....
....|..|--- .... ....|--- .... ....|--- .... ....
 F#4|..|--- .... ....|F#2 2A.F ....|--- .... ....
....|..|--- .... ....|--- .... ....|--- .... ....
....|..|--- .... ....|C-2 2F.7 ....|--- .... ....
....|..|--- .... ....|--- .... ....|--- .... ....
 F#4|..|--- .... ....|F#2 2A.F ....|D-4 2F77 ....
....|..|--- .... ....|--- .... ....|--- .... ....
....|..|--- .... ....|R-- .... ....|--- .... ....
....|..|--- .... ....|--- .... ....|--- .... ....
 F#4|..|--- .... ....|F#2 2A.F ....|D-4 2FFA ....
....|..|--- .... ....|--- .... ....|E-4 2F.A ....
 C-4|..|--- .... ....|C-2 2A.F ....|--- .... ....
....|..|--- .... ....|--- .... ....|A-2 2F.F ....
 F#4|..|--- .... ....|F#2 2A.F ....|F-4 2F.F ....
....|..|--- .... ....|--- .... ....|--- .... ....
....|..|--- .... ....|R-- .... ....|--- .... ....
....|..|--- .... ....|--- .... ....|--- .... ....
 F-3|..|--- .... ....|F-1 2A.F ....|--- .... ....
....|..|--- .... ....|--- .... ....|--- .... ....
....|..|--- .... ....|R-- .... ....|--- .... ....
....|..|--- .... ....|--- .... ....|--- .... ....
 A-3|..|--- .... ....|A-1 2A.F ....|D-4 2FF7 ....
....|..|--- .... ....|--- .... ....|E-4 2F.7 ....
....|..|--- .... ....|C-2 2F.A ....|--- .... ....
....|..|--- .... ....|--- .... ....|A-2 2F.A ....
 C-4|..|--- .... ....|C-2 2A.F ....|F-4 2F.A ....
....|..|--- .... ....|--- .... ....|--- .... ....
....|..|--- .... ....|R-- .... ....|--- .... ....
....|..|--- .... ....|--- .... ....|--- .... ....

[Pattern14]
 A-3|..|--- .... ....|A-3 2C.F ....|D-4 2F5F ....
....|..|--- .... ....|--- .... ....|D-4 2F.F ....
....|..|--- .... ....|R-- .... ....|--- .... ....
....|..|--- .... ....|--- .... ....|--- .... ....
 F#4|..|--- .... ....|F#2 2A.F ....|--- .... ....
....|..|--- .... ....|--- .... ....|--- .... ....
 D-3|..|--- .... ....|D-1 2A.F ....|--- .... ....
....|..|--- .... ....|--- .... ....|A-2 2F.7 ....
 F#4|..|--- .... ....|F#2 2A.F ....|F-4 2F.7 ....
....|..|--- .... ....|--- .... ....|--- .... ....
....|..|--- .... ....|R-- .... ....|--- .... ....
....|..|--- .... ....|--- .... ....|--- .... ....
 F#4|..|--- .... ....|F#2 2A.F ....|D-4 2F5A ....
....|..|--- .... ....|--- .... ....|D-4 2F.A ....
 C-4|..|--- .... ....|C-2 2A.F ....|--- .... ....
....|..|--- .... ....|--- .... ....|--- .... ....
 F#4|..|--- .... ....|F#2 2A.F ....|D-4 2F.F ....
....|..|--- .... ....|--- .... ....|--- .... ....
....|..|--- .... ....|D-1 2F.A ....|--- .... ....
....|..|--- .... ....|--- .... ....|--- .... ....
 F#4|..|--- .... ....|F#2 2A.F ....|--- .... ....
....|..|--- .... ....|--- .... ....|--- .... ....
 D-3|..|--- .... ....|D-1 2A.F ....|--- .... ....
....|..|--- .... ....|--- .... ....|--- .... ....
 F#4|..|--- .... ....|F#2 2A.F ....|D-4 2F57 ....
....|..|--- .... ....|--- .... ....|D-4 2F.7 ....
....|..|--- .... ....|C-2 2F.A ....|--- .... ....
....|..|--- .... ....|--- .... ....|--- .... ....
 F#4|..|--- .... ....|F#2 2A.F ....|D-4 2F.A ....
....|..|--- .... ....|--- .... ....|--- .... ....
....|..|--- .... ....|D-1 2F.7 ....|--- .... ....
....|..|--- .... ....|--- .... ....|--- .... ....
 F#4|..|--- .... ....|F#2 2A.F ....|C-4 2F.F ....
....|..|--- .... ....|--- .... ....|--- .... ....
....|..|--- .... ....|D-1 2F.A ....|--- .... ....
....|..|--- .... ....|--- .... ....|--- .... ....
 F#4|..|--- .... ....|F#2 2A.F ....|--- .... ....
....|..|--- .... ....|--- .... ....|--- .... ....
....|..|--- .... ....|C-2 2F.7 ....|--- .... ....
....|..|--- .... ....|--- .... ....|--- .... ....
 G-4|..|--- .... ....|G-3 2C.F ....|D-4 2F.7 ....
....|..|--- .... ....|--- .... ....|--- .... ....
....|..|--- .... ....|--- .... ....|--- .... ....
....|..|--- .... ....|--- .... ....|--- .... ....
 F#4|..|--- .... ....|F#2 2A.F ....|C-4 2F.A ....
....|..|--- .... ....|--- .... ....|--- .... ....
....|..|--- .... ....|D-1 2F.7 ....|--- .... ....
....|..|--- .... ....|--- .... ....|--- .... ....
 F#4|..|--- .... ....|F#2 2A.F ....|C-4 2FAF ....
....|..|--- .... ....|--- .... ....|--- .... ....
 D-4|..|--- .... ....|D-3 2C.F ....|--- .... ....
....|..|--- .... ....|--- .... ....|--- .... ....
 F#4|..|--- .... ....|F#2 2A.F ....|--- .... ....
....|..|--- .... ....|--- .... ....|--- .... ....
 C-3|..|--- .... ....|C-3 2C.F ....|--- .... ....
....|..|--- .... ....|--- .... ....|--- .... ....
 A-3|..|--- .... ....|A-2 2C.F ....|C-4 2F.7 ....
....|..|--- .... ....|--- .... ....|--- .... ....
 G-4|..|--- .... ....|G-2 2A.F ....|--- .... ....
....|..|--- .... ....|--- .... ....|--- .... ....
 F#4|..|--- .... ....|F#2 2A.F ....|C-4 2FAA ....
....|..|--- .... ....|--- .... ....|--- .... ....
 G-4|..|--- .... ....|G-2 2A.F ....|--- .... ....
....|..|--- .... ....|--- .... ....|C-4 2FAF ....
 C#4|..|--- .... ....|C#3 2C.F ....|C-4 2F1F ....
....|..|--- .... ....|--- .... ....|E-4 2F5F ....
....|..|--- .... ....|C-3 2F.A ....|--- .... ....
....|..|--- .... ....|--- .... ....|--- .... ....
 F#4|..|--- .... ....|F#2 2A.F ....|--- .... ....
....|..|--- .... ....|--- .... ....|--- .... ....
....|..|--- .... ....|G-2 2F.A ....|--- .... ....
....|..|--- .... ....|--- .... ....|--- .... ....
 F#4|..|--- .... ....|F#2 2A.F ....|C-4 2FA7 ....
....|..|--- .... ....|--- .... ....|--- .... ....
....|..|--- .... ....|D-3 2F.7 ....|--- .... ....
....|..|--- .... ....|--- .... ....|C-4 2FAA ....
 F#4|..|--- .... ....|F#2 2A.F ....|C-4 2F1A ....
....|..|--- .... ....|--- .... ....|E-4 2F5A ....
 C-4|..|--- .... ....|C-2 2A.F ....|--- .... ....
....|..|--- .... ....|--- .... ....|--- .... ....
 F#4|..|--- .... ....|F#2 2A.F ....|D-4 2F7F ....
....|..|--- .... ....|--- .... ....|--- .... ....
....|..|--- .... ....|G-2 2F.7 ....|--- .... ....
....|..|--- .... ....|--- .... ....|--- .... ....
 G-3|..|--- .... ....|G-1 2A.F ....|--- .... ....
....|..|--- .... ....|--- .... ....|--- .... ....
....|..|--- .... ....|G-2 2F.7 ....|--- .... ....
....|..|--- .... ....|--- .... ....|C-4 2FA7 ....
 B-3|..|--- .... ....|B-1 2A.F ....|C-4 2F17 ....
....|..|--- .... ....|--- .... ....|E-4 2F57 ....
....|..|--- .... ....|C-2 2F.A ....|--- .... ....
....|..|--- .... ....|--- .... ....|--- .... ....
 D-4|..|--- .... ....|D-2 2A.F ....|D-4 2F7A ....
....|..|--- .... ....|--- .... ....|--- .... ....
....|..|--- .... ....|R-- .... ....|--- .... ....
....|..|--- .... ....|--- .... ....|--- .... ....
 A-3|..|--- .... ....|A-3 2C.F ....|C-4 2FEF ....
....|..|--- .... ....|--- .... ....|C-4 2FAF ....
....|..|--- .... ....|R-- .... ....|--- .... ....
....|..|--- .... ....|--- .... ....|--- .... ....
 F#4|..|--- .... ....|F#2 2A.F ....|--- .... ....
....|..|--- .... ....|--- .... ....|--- .... ....
....|..|--- .... ....|C-2 2F.7 ....|--- .... ....
....|..|--- .... ....|--- .... ....|--- .... ....
 F#4|..|--- .... ....|F#2 2A.F ....|D-4 2F77 ....
....|..|--- .... ....|--- .... ....|--- .... ....
....|..|--- .... ....|R-- .... ....|--- .... ....
....|..|--- .... ....|--- .... ....|--- .... ....
 F#4|..|--- .... ....|F#2 2A.F ....|C-4 2FEA ....
....|..|--- .... ....|--- .... ....|C-4 2FAA ....
 C-4|..|--- .... ....|C-2 2A.F ....|--- .... ....
....|..|--- .... ....|--- .... ....|C-4 2F.F ....
 F#4|..|--- .... ....|F#2 2A.F ....|C-4 2F7F ....
....|..|--- .... ....|--- .... ....|--- .... ....
....|..|--- .... ....|R-- .... ....|--- .... ....
....|..|--- .... ....|--- .... ....|--- .... ....
 F-3|..|--- .... ....|F-1 2A.F ....|--- .... ....
....|..|--- .... ....|--- .... ....|--- .... ....
....|..|--- .... ....|R-- .... ....|--- .... ....
....|..|--- .... ....|--- .... ....|--- .... ....
 A-3|..|--- .... ....|A-1 2A.F ....|C-4 2FE7 ....
....|..|--- .... ....|--- .... ....|C-4 2FA7 ....
....|..|--- .... ....|C-2 2F.A ....|--- .... ....
....|..|--- .... ....|--- .... ....|C-4 2F.A ....
 C-4|..|--- .... ....|C-2 2A.F ....|C-4 2F7A ....
....|..|--- .... ....|--- .... ....|--- .... ....
....|..|--- .... ....|R-- .... ....|--- .... ....
....|..|--- .... ....|--- .... ....|--- .... ....

[Pattern15]
 A-3|..|--- .... ....|A-3 2C.F ....|D-4 2F5F ....
....|..|--- .... ....|--- .... ....|D-4 2F.F ....
....|..|--- .... ....|R-- .... ....|--- .... ....
....|..|--- .... ....|--- .... ....|--- .... ....
 F#4|..|--- .... ....|F#2 2A.F ....|--- .... ....
....|..|--- .... ....|--- .... ....|--- .... ....
....|..|--- .... ....|C-2 2F.7 ....|--- .... ....
....|..|--- .... ....|--- .... ....|C-4 2F.7 ....
 F#4|..|--- .... ....|F#2 2A.F ....|C-4 2F77 ....
....|..|--- .... ....|--- .... ....|--- .... ....
....|..|--- .... ....|R-- .... ....|--- .... ....
....|..|--- .... ....|--- .... ....|--- .... ....
 F#4|..|--- .... ....|F#2 2A.F ....|D-4 2F5A ....
....|..|--- .... ....|--- .... ....|D-4 2F.A ....
 C-4|..|--- .... ....|C-2 2A.F ....|--- .... ....
....|..|--- .... ....|--- .... ....|--- .... ....
 F#4|..|--- .... ....|F#2 2A.F ....|D-4 2F.F ....
....|..|--- .... ....|--- .... ....|--- .... ....
....|..|--- .... ....|R-- .... ....|--- .... ....
....|..|--- .... ....|--- .... ....|--- .... ....
 F#4|..|--- .... ....|F#2 2A.F ....|--- .... ....
....|..|--- .... ....|--- .... ....|--- .... ....
....|..|--- .... ....|R-- .... ....|--- .... ....
....|..|--- .... ....|--- .... ....|--- .... ....
 F#4|..|--- .... ....|F#2 2A.F ....|D-4 2F57 ....
....|..|--- .... ....|--- .... ....|D-4 2F.7 ....
....|..|--- .... ....|C-2 2F.A ....|--- .... ....
....|..|--- .... ....|--- .... ....|--- .... ....
 F#4|..|--- .... ....|F#2 2A.F ....|D-4 2F.A ....
....|..|--- .... ....|--- .... ....|--- .... ....
....|..|--- .... ....|--- .... ....|--- .... ....
....|..|--- .... ....|--- .... ....|--- .... ....
 C#4|..|--- .... ....|C#3 2C.F ....|C-4 2F.F ....
....|..|--- .... ....|--- .... ....|--- .... ....
....|..|--- .... ....|--- .... ....|--- .... ....
....|..|--- .... ....|--- .... ....|--- .... ....
 F#4|..|--- .... ....|F#2 2A.F ....|--- .... ....
....|..|--- .... ....|--- .... ....|--- .... ....
 A-3|..|--- .... ....|A-3 2C.F ....|--- .... ....
....|..|--- .... ....|--- .... ....|--- .... ....
 F#4|..|--- .... ....|F#2 2A.F ....|D-4 2F.7 ....
....|..|--- .... ....|--- .... ....|--- .... ....
....|..|--- .... ....|--- .... ....|--- .... ....
....|..|--- .... ....|--- .... ....|--- .... ....
 C#4|..|--- .... ....|C#3 2C.F ....|C-4 2F.A ....
....|..|--- .... ....|--- .... ....|--- .... ....
....|..|--- .... ....|--- .... ....|--- .... ....
....|..|--- .... ....|--- .... ....|--- .... ....
 A#3|..|--- .... ....|A#2 2C.F ....|C-4 2FAF ....
....|..|--- .... ....|--- .... ....|--- .... ....
 C-3|..|--- .... ....|C-3 2C.F ....|--- .... ....
....|..|--- .... ....|--- .... ....|--- .... ....
 C-3|..|--- .... ....|C-3 2C.F ....|--- .... ....
....|..|--- .... ....|--- .... ....|--- .... ....
 B-4|..|--- .... ....|B-2 2A.F ....|--- .... ....
....|..|--- .... ....|--- .... ....|--- .... ....
 A#3|..|--- .... ....|A#2 2C.F ....|C-4 2F.7 ....
....|..|--- .... ....|--- .... ....|--- .... ....
 A-3|..|--- .... ....|A-2 2C.F ....|--- .... ....
....|..|--- .... ....|--- .... ....|--- .... ....
 A-3|..|--- .... ....|A-2 2C.F ....|C-4 2FAA ....
....|..|--- .... ....|--- .... ....|--- .... ....
 G-4|..|--- .... ....|G-2 2A.F ....|--- .... ....
....|..|--- .... ....|--- .... ....|C-4 2FAF ....
 C#4|..|--- .... ....|C#3 2C.F ....|C-4 2F1F ....
....|..|--- .... ....|--- .... ....|E-4 2F5F ....
....|..|--- .... ....|B-2 2F.A ....|--- .... ....
....|..|--- .... ....|--- .... ....|--- .... ....
 F#4|..|--- .... ....|F#2 2A.F ....|--- .... ....
....|..|--- .... ....|--- .... ....|--- .... ....
....|..|--- .... ....|A-2 2F.A ....|--- .... ....
....|..|--- .... ....|--- .... ....|--- .... ....
 F#4|..|--- .... ....|F#2 2A.F ....|C-4 2FA7 ....
....|..|--- .... ....|--- .... ....|--- .... ....
....|..|--- .... ....|C-3 2F.7 ....|--- .... ....
....|..|--- .... ....|--- .... ....|C-4 2FAA ....
 F#4|..|--- .... ....|F#2 2A.F ....|C-4 2F1A ....
....|..|--- .... ....|--- .... ....|E-4 2F5A ....
....|..|--- .... ....|B-2 2F.7 ....|--- .... ....
....|..|--- .... ....|--- .... ....|--- .... ....
 F#4|..|--- .... ....|F#2 2A.F ....|D-4 2F7F ....
....|..|--- .... ....|--- .... ....|--- .... ....
....|..|--- .... ....|A-2 2F.7 ....|--- .... ....
....|..|--- .... ....|--- .... ....|--- .... ....
 F#4|..|--- .... ....|F#2 2A.F ....|--- .... ....
....|..|--- .... ....|--- .... ....|--- .... ....
....|..|--- .... ....|G-2 2F.7 ....|--- .... ....
....|..|--- .... ....|--- .... ....|C-4 2FA7 ....
 F#4|..|--- .... ....|F#2 2A.F ....|C-4 2F17 ....
....|..|--- .... ....|--- .... ....|E-4 2F57 ....
....|..|--- .... ....|--- .... ....|--- .... ....
....|..|--- .... ....|--- .... ....|--- .... ....
 F#4|..|--- .... ....|F#2 2A.F ....|D-4 2F7A ....
....|..|--- .... ....|--- .... ....|--- .... ....
....|..|--- .... ....|--- .... ....|--- .... ....
....|..|--- .... ....|--- .... ....|--- .... ....
 A-3|..|--- .... ....|A-3 2C.F ....|D-4 2FFF ....
....|..|--- .... ....|--- .... ....|E-4 2F.F ....
....|..|--- .... ....|--- .... ....|--- .... ....
....|..|--- .... ....|--- .... ....|--- .... ....
 F#4|..|--- .... ....|F#2 2A.F ....|--- .... ....
....|..|--- .... ....|--- .... ....|--- .... ....
....|..|--- .... ....|--- .... ....|--- .... ....
....|..|--- .... ....|--- .... ....|--- .... ....
 F#4|..|--- .... ....|F#2 2A.F ....|D-4 2F77 ....
....|..|--- .... ....|--- .... ....|--- .... ....
....|..|--- .... ....|--- .... ....|--- .... ....
....|..|--- .... ....|--- .... ....|--- .... ....
 F#4|..|--- .... ....|F#2 2A.F ....|D-4 2FFA ....
....|..|--- .... ....|--- .... ....|E-4 2F.A ....
....|..|--- .... ....|--- .... ....|--- .... ....
....|..|--- .... ....|--- .... ....|A-2 2F.F ....
 F#4|..|--- .... ....|F#2 2A.F ....|F-4 2F.F ....
....|..|--- .... ....|--- .... ....|--- .... ....
....|..|--- .... ....|--- .... ....|--- .... ....
....|..|--- .... ....|--- .... ....|--- .... ....
 F#4|..|--- .... ....|F#2 2A.F ....|--- .... ....
....|..|--- .... ....|--- .... ....|--- .... ....
....|..|--- .... ....|--- .... ....|--- .... ....
....|..|--- .... ....|--- .... ....|--- .... ....
 F#4|..|--- .... ....|F#2 2A.F ....|D-4 2FF7 ....
....|..|--- .... ....|--- .... ....|E-4 2F.7 ....
....|..|--- .... ....|--- .... ....|--- .... ....
....|..|--- .... ....|--- .... ....|A-2 2F.A ....
....|..|--- .... ....|F#2 2F.7 ....|C-5 2F.F ....
....|..|--- .... ....|--- .... ....|R-- .... ....
....|..|--- .... ....|--- .... ....|--- .... ....
....|..|--- .... ....|--- .... ....|--- .... ....

[Pattern16]
....|..|--- .... ....|F#2 2F.7 ....|--- .... ....
....|..|--- .... ....|--- .... ....|--- .... ....
....|..|--- .... ....|--- .... ....|--- .... ....
....|..|--- .... ....|--- .... ....|--- .... ....
....|..|--- .... ....|F#2 2F.7 ....|--- .... ....
....|..|--- .... ....|--- .... ....|--- .... ....
....|..|--- .... ....|--- .... ....|--- .... ....
....|..|--- .... ....|--- .... ....|A-2 2F.7 ....
....|..|--- .... ....|F#2 2F.7 ....|F-4 2F.7 ....
....|..|--- .... ....|--- .... ....|R-- .... ....
....|..|--- .... ....|--- .... ....|--- .... ....
....|..|--- .... ....|--- .... ....|--- .... ....
....|..|--- .... ....|F#2 2F.7 ....|--- .... ....
....|..|--- .... ....|--- .... ....|--- .... ....
....|..|--- .... ....|--- .... ....|--- .... ....
....|..|--- .... ....|--- .... ....|--- .... ....
....|..|--- .... ....|F#2 2F.7 ....|--- .... ....
....|..|--- .... ....|--- .... ....|--- .... ....
....|..|--- .... ....|--- .... ....|--- .... ....
....|..|--- .... ....|--- .... ....|--- .... ....
....|..|--- .... ....|--- .... ....|C-5 2F.7 ....
....|..|--- .... ....|--- .... ....|R-- .... ....
