[Module]
VortexTrackerII=0
Version=3.5
Title=11me-4me+,5p[3]-3p[4]+-2p[u]+-13p+,7m[7]-6mw[8]+-15m+
Author=oisee ^ 4d 29.05.2010
NoteTable=4
ChipFreq=1750000
Speed=3
PlayOrder=L0,1,2,3,4,5,6,7,8,9,10,11,12,13,14,15,16,17,18,19,20,21,18,19,20,25,26,27,28,29,30,31,32,5,6,35,36,37,38,39,40,41,42,43,44,45,46,47,48,49,50,51,52,53,54

[Ornament1]
L0,0,3,3

[Ornament2]
L0,0,4,4,7,7

[Ornament3]
L0,0,4,4

[Ornament4]
L0,0,3,3,7,7

[Ornament5]
L0,0,5,5

[Ornament6]
L0,0,4,4,9,9

[Ornament7]
L0,0,3,3,8,8

[Ornament8]
L0,0,2,2

[Ornament9]
L0,0,5,5,10,10

[Ornament10]
L0,0,3,3,6,6,8,8

[Ornament11]
L0,0,3,3,5,5

[Ornament12]
L0,0,3,3,6,6

[Ornament13]
L0,0,5,5,8,8

[Ornament14]
L0,0,2,2,5,5,7,7

[Ornament15]
L0,0,5,5,9,9

[Sample1]
TnE +000_ +00_ F_
TnE +000_ +00_ F_
TnE +000_ +00_ F_
TnE +000_ +00_ D_
TnE +000_ +00_ B_
TnE +000_ +00_ B_ L

[Sample2]
TnE +000_ +00_ F_ L

[Sample3]
TnE +001_ +00_ F_
TnE +002_ +00_ F_
TnE +001_ +00_ E_
TnE +002_ +00_ E_
TnE +000_ +00_ E_ L
TnE -001_ +00_ E_
TnE -002_ +00_ E_
TnE -001_ +00_ E_
TnE +000_ +00_ E_
TnE +001_ +00_ E_
TnE +002_ +00_ E_
TnE +001_ +00_ E_

[Sample4]
TnE +000_ +00_ D_
TnE +000_ +00_ D_
TnE +000_ +00_ C_
TnE +000_ +00_ B_
TnE +000_ +00_ A_ L
TnE +000_ +00_ A_
TnE +000_ +00_ A_
TnE +000_ +00_ A_
TnE +000_ +00_ A_
TnE +000_ +00_ A_
TnE +000_ +00_ A_
TnE +000_ +00_ A_

[Sample5]
TnE +000_ +00_ F_
TnE +000_ +00_ F_
tne +000_ +00_ 0_ L

[Sample6]
TnE -001_ +00_ F_ L

[Sample7]
TNE +000_ +00_ F_
Tne +000_ +00_ E_ L

[Sample8]
TNE +000_ +00_ F_
TnE +002_ +00_ F_
TnE +001_ +00_ E_
TnE +002_ +00_ E_
TnE +000_ +00_ E_ L
TnE -001_ +00_ E_
TnE -002_ +00_ E_
TnE -001_ +00_ E_
TnE +000_ +00_ E_
TnE +001_ +00_ E_
TnE +002_ +00_ E_
TnE +001_ +00_ E_

[Sample9]
TnE +080_ +00_ F_
TnE +100_ +00_ E_
TnE +180_ +00_ E_
TnE +200_ +00_ E_
TnE +240_ +00_ D_
TnE +280_ +00_ D_
TnE +2C0_ +00_ D_
TnE +300_ +00_ C_
TnE +300_ +00_ C_
TnE +340_ +00_ C_
TnE +340_ +00_ C_
TnE +380_ +00_ B_
TnE +380_ +00_ B_
TnE +400_ +00_ B_
TnE +400_ +00_ B_
TnE +480_ +00_ A_
TnE +500_ +00_ 9_
TnE +580_ +00_ 7_
TnE +600_ +00_ 4_
TnE +680_ +00_ 1_
TnE +000_ +00_ 0_ L

[Sample10]
Tne +1C0_ +00_ F_
Tne +280_ +00_ E_
Tne +380_ +00_ C_
Tne +440_ +00_ A_
Tne +480_ +00_ 8_
TnE +000_ +00_ 0_ L

[Sample11]
TNe +200_ -0A_ F_
tNe +000_ +0F_ A_
TNe +200_ -07_ E_
tNe +000_ +0E_ B- L

[Sample12]
TNE +0A0_ +05_ F_
TNE +140_ +02_ D_
TNE +140_ +02_ B_
TNE +100_ +00_ A_ L
TNE +140_ +00_ A_
TNE +200_ +00_ A-

[Sample13]
Tne +200_ +00_ F_
Tne +2C0_ +00_ F_
Tne +380_ +00_ E_
Tne +500_ +00_ C_
Tne +520_ +00_ 9_
tne +000_ +00_ 0_ L

[Sample14]
TNE -100_ +00_ F_
TNE -100_ +00_ D_
TNE -100_ +00_ A_
TNE -100_ +00_ 5_
tne +000_ +00_ 0_ L

[Sample15]
TNE -100_ +00_ 5_
TNE -100_ +00_ 8_
TNE -100_ +00_ B_
TNE -100_ +00_ F_
TNe -100_ +00_ 9- L

[Sample16]
TnE +000_ +00_ C_
TnE +000_ +00_ E_
TnE +000_ +00_ F_
TnE +000_ +00_ F_
TnE +000_ +00_ E_
TnE +000_ +00_ D_
TnE +000_ +00_ C_
TnE +000_ +00_ C_ L
TnE +001_ +00_ C_
TnE +002_ +00_ C_
TnE +003_ +00_ C_
TnE +001_ +00_ C_
TnE +000_ +00_ C_
TnE -001_ +00_ C_
TnE -002_ +00_ C_
TnE -003_ +00_ C_
TnE -001_ +00_ C_
TnE +000_ +00_ C_
TnE +000_ +00_ C_

[Sample17]
Tne +1C0_ +00_ F_
Tne +280_ +00_ D_
Tne +380_ +00_ 7_
TNE +000_ +00_ 0_ L

[Sample18]
TnE -00C_ +00_ 0_ L

[Sample19]
TNe +000_ +00_ F_
TNe +000_ +00_ C_
TNe +000_ +00_ 6_
TNe +000_ +01_ A- L

[Sample20]
TNE +140_ +00_ F_
tNE +000_ +00_ B- L

[Sample21]
tNE +000_ +00_ D_
tNE +000_ +00_ 8_
tNE +000_ +00_ 1_
TNE +000_ +00_ 0_ L

[Sample22]
TnE +000_ +00_ D_ L
TnE +000_ +00_ D_
tne +000_ +00_ 9_
tne +000_ +00_ 9_
TnE +000_ +00_ D_
TnE +000_ +00_ D_
tne +000_ +00_ 9_
tne +000_ +00_ 9_
TnE +000_ +00_ D_
TnE +000_ +00_ D_
TnE +000_ +00_ D_
TnE +000_ +00_ D_
TnE +000_ +00_ D_
TnE +000_ +00_ D_
tne +000_ +00_ 9_
tne +000_ +00_ 9_

[Sample23]
TnE +000_ +00_ F_ L
TnE +010_ +01_ F_
TnE +010_ +01_ F_
TnE +010_ +01_ F_
TnE +010_ +01_ F_
TnE +000_ +00_ F_
TnE +000_ +00_ F_
TnE -010_ -01_ F_
TnE -010_ -01_ F_
TnE -010_ -01_ F_
TnE -010_ -01_ F_
TnE +000_ +00_ F_

[Sample24]
TNe +000_ -01_ C_
TNe +000_ -01_ D_
TNe +000_ -01_ E_
TNe +000_ -01_ F_
TNe +000_ -01_ F_
TNe +000_ -01_ F_
TNe +000_ -01_ F_
TNe +000_ -01_ F_
TNe +000_ -01_ E_
TNe +000_ -01_ E_
TNe +000_ -01_ E_
TNe +000_ -01_ F_
TNe +000_ -01_ F_ L

[Sample25]
TNE +000_ +00_ F_
TNE +000_ +00_ F_ L
TNE +000_ +00_ F_
TNE +000_ +00_ F_
TNE +000_ +00_ F-

[Sample26]
tne +000_ +00_ 0_ L

[Sample27]
TnE +100_ +05_ F_
TnE +200_ +02_ A_
TnE +300_ +02_ 7_
TNE +400_ +00_ 3- L

[Sample28]
tne +000_ +00_ 0_ L

[Sample29]
tnE +000_ +00_ 0_ L

[Sample30]
TNE +000_ +00_ C+ L

[Sample31]
TNe +1C0_ +00_ F_
Tne +280_ +00_ E_
Tne +380_ +00_ C_
Tne +440_ +00_ A_
Tne +480_ +00_ 8_
TnE +000_ +00_ 0_ L

[Pattern0]
....|..|--- .... ....|B-6 3F.F ....|B-4 7F.F ....
....|..|--- .... ....|--- .... ....|--- .... ....
....|..|--- .... ....|--- .... ....|--- .... ....
....|..|--- .... ....|--- .... ....|--- .... ....
....|..|--- .... ....|B-6 3F.F ....|--- .... ....
....|..|--- .... ....|B-5 3F.F ....|--- .... ....
....|..|--- .... ....|B-6 3F.A ....|B-4 7F.A ....
....|..|--- .... ....|--- .... ....|--- .... ....
....|..|--- .... ....|E-5 3F1F ....|--- .... ....
....|..|--- .... ....|--- .... ....|--- .... ....
....|..|--- .... ....|B-6 3F.A ....|--- .... ....
....|..|--- .... ....|B-5 3F.A ....|--- .... ....
....|..|--- .... ....|G-6 3F.F ....|B-4 7F.7 ....
....|..|--- .... ....|B-5 3F.F ....|--- .... ....
....|..|--- .... ....|E-5 3F1A ....|--- .... ....
....|..|--- .... ....|--- .... ....|--- .... ....
....|..|--- .... ....|B-6 3F.F ....|--- .... ....
....|..|--- .... ....|B-5 3F.7 ....|--- .... ....
....|..|--- .... ....|G-6 3F.A ....|--- .... ....
....|..|--- .... ....|B-5 3F.A ....|--- .... ....
....|..|--- .... ....|B-6 3F.F ....|C-5 7F.F ....
....|..|--- .... ....|B-5 3F.F ....|--- .... ....
....|..|--- .... ....|B-6 3F.A ....|--- .... ....
....|..|--- .... ....|--- .... ....|--- .... ....
....|..|--- .... ....|E-5 3F1F ....|--- .... ....
....|..|--- .... ....|B-5 3F.7 ....|--- .... ....
....|..|--- .... ....|B-6 3F.A ....|C-5 7F.A ....
....|..|--- .... ....|B-5 3F.A ....|--- .... ....
....|..|--- .... ....|G-6 3F.F ....|B-4 7F.F ....
....|..|--- .... ....|B-5 3F.F ....|--- .... ....
....|..|--- .... ....|E-5 3F1A ....|--- .... ....
....|..|--- .... ....|R-- .... ....|--- .... ....
....|..|--- .... ....|B-6 3F.F ....|B-4 7F.F ....
....|..|--- .... ....|B-5 3F.7 ....|--- .... ....
....|..|--- .... ....|G-6 3F.A ....|B-4 7F.A ....
....|..|--- .... ....|B-5 3F.A ....|--- .... ....
....|..|--- .... ....|B-6 3F.F ....|--- .... ....
....|..|--- .... ....|B-5 3F.F ....|--- .... ....
....|..|--- .... ....|B-6 3F.A ....|B-4 7F.A ....
....|..|--- .... ....|--- .... ....|--- .... ....
....|..|--- .... ....|D#5 3F1F ....|B-4 7F.7 ....
....|..|--- .... ....|B-5 3F.7 ....|--- .... ....
....|..|--- .... ....|B-6 3F.A ....|--- .... ....
....|..|--- .... ....|B-5 3F.A ....|--- .... ....
....|..|--- .... ....|B-4 3F2F ....|B-4 7F.7 ....
....|..|--- .... ....|B-5 3F.F ....|--- .... ....
....|..|--- .... ....|D#5 3F1A ....|--- .... ....
....|..|--- .... ....|R-- .... ....|--- .... ....
....|..|--- .... ....|B-6 3F.F ....|--- .... ....
....|..|--- .... ....|B-5 3F.7 ....|--- .... ....
....|..|--- .... ....|B-4 3F2A ....|--- .... ....
....|..|--- .... ....|B-5 3F.A ....|--- .... ....
....|..|--- .... ....|B-6 3F.F ....|C-5 7F.F ....
....|..|--- .... ....|R-- .... ....|--- .... ....
....|..|--- .... ....|B-5 3F.F ....|--- .... ....
....|..|--- .... ....|--- .... ....|--- .... ....
....|..|--- .... ....|D#5 3F1F ....|--- .... ....
....|..|--- .... ....|B-5 3F.7 ....|--- .... ....
....|..|--- .... ....|B-6 3F.A ....|C-5 7F.A ....
....|..|--- .... ....|R-- .... ....|--- .... ....
....|..|--- .... ....|B-5 3F.F ....|B-4 7F.F ....
....|..|--- .... ....|--- .... ....|--- .... ....
....|..|--- .... ....|D#5 3F1A ....|--- .... ....
....|..|--- .... ....|R-- .... ....|--- .... ....

[Pattern1]
....|..|--- .... ....|B-6 3F.F ....|B-4 7F.F ....
....|..|--- .... ....|--- .... ....|--- .... ....
....|..|--- .... ....|B-4 4F.A ....|B-4 7F.A ....
....|..|--- .... ....|--- .... ....|--- .... ....
....|..|--- .... ....|B-6 3F.F ....|--- .... ....
....|..|--- .... ....|B-5 3F.F ....|--- .... ....
....|..|--- .... ....|B-6 3F.A ....|B-4 7F.A ....
....|..|--- .... ....|--- .... ....|--- .... ....
....|..|--- .... ....|D-5 3F3F ....|B-4 7F.7 ....
....|..|--- .... ....|--- .... ....|--- .... ....
....|..|--- .... ....|B-6 3F.A ....|--- .... ....
....|..|--- .... ....|B-5 3F.A ....|--- .... ....
....|..|--- .... ....|B-4 3F4F ....|B-4 7F.7 ....
....|..|--- .... ....|B-5 3F.F ....|--- .... ....
....|..|--- .... ....|D-5 3F3A ....|--- .... ....
....|..|--- .... ....|--- .... ....|--- .... ....
....|..|--- .... ....|B-6 3F.F ....|--- .... ....
....|..|--- .... ....|B-5 3F.7 ....|--- .... ....
....|..|--- .... ....|B-4 3F4A ....|--- .... ....
....|..|--- .... ....|B-5 3F.A ....|--- .... ....
....|..|--- .... ....|B-6 3F.F ....|C-5 7F.F ....
....|..|--- .... ....|B-5 3F.F ....|--- .... ....
....|..|--- .... ....|B-6 3F.A ....|--- .... ....
....|..|--- .... ....|--- .... ....|--- .... ....
....|..|--- .... ....|D-5 3F3F ....|--- .... ....
....|..|--- .... ....|B-5 3F.7 ....|--- .... ....
....|..|--- .... ....|B-6 3F.A ....|C-5 7F.A ....
....|..|--- .... ....|B-5 3F.A ....|--- .... ....
....|..|--- .... ....|B-4 3F4F ....|B-4 7F.F ....
....|..|--- .... ....|B-5 3F.F ....|--- .... ....
....|..|--- .... ....|D-5 3F3A ....|--- .... ....
....|..|--- .... ....|--- .... ....|--- .... ....
....|..|--- .... ....|A-6 3F.F ....|B-4 7F.F ....
....|..|--- .... ....|B-5 3F.7 ....|--- .... ....
....|..|--- .... ....|B-4 3F4A ....|B-4 7F.A ....
....|..|--- .... ....|B-5 3F.A ....|--- .... ....
....|..|--- .... ....|A-5 3F.F ....|--- .... ....
....|..|--- .... ....|--- .... ....|--- .... ....
....|..|--- .... ....|A-6 3F.A ....|B-4 7F.A ....
....|..|--- .... ....|--- .... ....|--- .... ....
....|..|--- .... ....|C#5 3F1F ....|B-4 7F.7 ....
....|..|--- .... ....|B-5 3F.7 ....|--- .... ....
....|..|--- .... ....|A-5 3F.A ....|--- .... ....
....|..|--- .... ....|--- .... ....|--- .... ....
....|..|--- .... ....|A-4 3F2F ....|B-4 7F.7 ....
....|..|--- .... ....|A-5 3F.F ....|--- .... ....
....|..|--- .... ....|C#5 3F1A ....|--- .... ....
....|..|--- .... ....|--- .... ....|--- .... ....
....|..|--- .... ....|A-6 3F.F ....|A-4 7F.F ....
....|..|--- .... ....|--- .... ....|--- .... ....
....|..|--- .... ....|A-4 3F2A ....|--- .... ....
....|..|--- .... ....|A-5 3F.A ....|--- .... ....
....|..|--- .... ....|A-6 3F.F ....|--- .... ....
....|..|--- .... ....|A-5 3F.F ....|--- .... ....
....|..|--- .... ....|A-6 3F.A ....|A-4 7F.A ....
....|..|--- .... ....|--- .... ....|--- .... ....
....|..|--- .... ....|C#5 3F1F ....|--- .... ....
....|..|--- .... ....|A-5 3F.7 ....|--- .... ....
....|..|--- .... ....|A-6 3F.A ....|--- .... ....
....|..|--- .... ....|A-5 3F.A ....|--- .... ....
....|..|--- .... ....|E-6 3F.F ....|A-4 7F.7 ....
....|..|--- .... ....|A-5 3F.F ....|--- .... ....
....|..|--- .... ....|C#5 3F1A ....|--- .... ....
....|..|--- .... ....|R-- .... ....|R-- .... ....

[Pattern2]
....|..|--- .... ....|A-6 3F.F ....|A-4 7F.F ....
....|..|--- .... ....|A-5 3F.7 ....|--- .... ....
....|..|--- .... ....|E-6 3F.A ....|--- .... ....
....|..|--- .... ....|A-5 3F.A ....|--- .... ....
....|..|--- .... ....|A-6 3F.F ....|--- .... ....
....|..|--- .... ....|A-5 3F.F ....|R-- .... ....
....|..|--- .... ....|A-6 3F.A ....|A-4 7F.A ....
....|..|--- .... ....|--- .... ....|--- .... ....
....|..|--- .... ....|C-5 3F3F ....|--- .... ....
....|..|--- .... ....|A-5 3F.7 ....|--- .... ....
....|..|--- .... ....|A-6 3F.A ....|--- .... ....
....|..|--- .... ....|A-5 3F.A ....|R-- .... ....
....|..|--- .... ....|A-4 3F4F ....|A-4 7F.7 ....
....|..|--- .... ....|A-5 3F.F ....|--- .... ....
....|..|--- .... ....|C-5 3F3A ....|--- .... ....
....|..|--- .... ....|R-- .... ....|--- .... ....
....|..|--- .... ....|A-6 3F.F ....|--- .... ....
....|..|--- .... ....|A-5 3F.7 ....|--- .... ....
....|..|--- .... ....|A-4 3F4A ....|--- .... ....
....|..|--- .... ....|A-5 3F.A ....|--- .... ....
....|..|--- .... ....|A-6 3F.F ....|B-4 7F.F ....
....|..|--- .... ....|A-5 3F.F ....|--- .... ....
....|..|--- .... ....|A-6 3F.A ....|--- .... ....
....|..|--- .... ....|--- .... ....|--- .... ....
....|..|--- .... ....|C-5 3F3F ....|--- .... ....
....|..|--- .... ....|A-5 3F.7 ....|--- .... ....
....|..|--- .... ....|A-6 3F.A ....|B-4 7F.A ....
....|..|--- .... ....|A-5 3F.A ....|--- .... ....
....|..|--- .... ....|A-5 3F.F ....|A-4 7F.F ....
....|..|--- .... ....|--- .... ....|--- .... ....
....|..|--- .... ....|C-5 3F3A ....|--- .... ....
....|..|--- .... ....|--- .... ....|--- .... ....
....|..|--- .... ....|G-6 3F.F ....|A-4 7F.F ....
....|..|--- .... ....|A-5 3F.7 ....|--- .... ....
....|..|--- .... ....|A-5 3F.A ....|A-4 7F.A ....
....|..|--- .... ....|--- .... ....|--- .... ....
....|..|--- .... ....|G-6 3F.F ....|--- .... ....
....|..|--- .... ....|G-5 3F.F ....|--- .... ....
....|..|--- .... ....|G-6 3F.A ....|A-4 7F.A ....
....|..|--- .... ....|--- .... ....|--- .... ....
....|..|--- .... ....|B-4 3F5F ....|A-4 7F.7 ....
....|..|--- .... ....|--- .... ....|--- .... ....
....|..|--- .... ....|G-6 3F.A ....|--- .... ....
....|..|--- .... ....|G-5 3F.A ....|--- .... ....
....|..|--- .... ....|G-4 3F6F ....|A-4 7F.7 ....
....|..|--- .... ....|G-5 3F.F ....|--- .... ....
....|..|--- .... ....|B-4 3F5A ....|--- .... ....
....|..|--- .... ....|--- .... ....|--- .... ....
....|..|--- .... ....|G-6 3F.F ....|G-4 7F.F ....
....|..|--- .... ....|G-5 3F.7 ....|--- .... ....
....|..|--- .... ....|G-4 3F6A ....|--- .... ....
....|..|--- .... ....|G-5 3F.A ....|--- .... ....
....|..|--- .... ....|G-6 3F.F ....|--- .... ....
....|..|--- .... ....|G-5 3F.F ....|--- .... ....
....|..|--- .... ....|G-6 3F.A ....|G-4 7F.A ....
....|..|--- .... ....|--- .... ....|--- .... ....
....|..|--- .... ....|B-4 3F5F ....|--- .... ....
....|..|--- .... ....|G-5 3F.7 ....|--- .... ....
....|..|--- .... ....|G-6 3F.A ....|--- .... ....
....|..|--- .... ....|G-5 3F.A ....|--- .... ....
....|..|--- .... ....|G-4 3F6F ....|G-4 7F.7 ....
....|..|--- .... ....|G-5 3F.F ....|--- .... ....
....|..|--- .... ....|B-4 3F5A ....|--- .... ....
....|..|--- .... ....|R-- .... ....|R-- .... ....

[Pattern3]
....|..|--- .... ....|G-6 3F.F ....|G-4 7F.F ....
....|..|--- .... ....|G-5 3F.7 ....|--- .... ....
....|..|--- .... ....|G-4 3F6A ....|--- .... ....
....|..|--- .... ....|G-5 3F.A ....|--- .... ....
....|..|--- .... ....|G-6 3F.F ....|--- .... ....
....|..|--- .... ....|A-5 3F.F ....|R-- .... ....
....|..|--- .... ....|G-6 3F.A ....|G-4 7F.A ....
....|..|--- .... ....|--- .... ....|--- .... ....
....|..|--- .... ....|C-5 3F3F ....|--- .... ....
....|..|--- .... ....|G-5 3F.7 ....|--- .... ....
....|..|--- .... ....|G-6 3F.A ....|--- .... ....
....|..|--- .... ....|A-5 3F.A ....|R-- .... ....
....|..|--- .... ....|A-4 3F4F ....|G-4 7F.7 ....
....|..|--- .... ....|A-5 3F.F ....|--- .... ....
....|..|--- .... ....|C-5 3F3A ....|--- .... ....
....|..|--- .... ....|--- .... ....|--- .... ....
....|..|--- .... ....|G-6 3F.F ....|--- .... ....
....|..|--- .... ....|A-5 3F.7 ....|--- .... ....
....|..|--- .... ....|A-4 3F4A ....|--- .... ....
....|..|--- .... ....|A-5 3F.A ....|--- .... ....
....|..|--- .... ....|G-6 3F.F ....|A-4 7F.F ....
....|..|--- .... ....|A-5 3F.F ....|--- .... ....
....|..|--- .... ....|G-6 3F.A ....|--- .... ....
....|..|--- .... ....|--- .... ....|--- .... ....
....|..|--- .... ....|C-5 3F3F ....|--- .... ....
....|..|--- .... ....|A-5 3F.7 ....|--- .... ....
....|..|--- .... ....|G-6 3F.A ....|A-4 7F.A ....
....|..|--- .... ....|E-6 3F.F ....|--- .... ....
....|..|--- .... ....|A-5 3F.F ....|G-4 7F.F ....
....|..|--- .... ....|--- .... ....|--- .... ....
....|..|--- .... ....|C-5 3F3A ....|--- .... ....
....|..|--- .... ....|--- .... ....|--- .... ....
....|..|--- .... ....|B-4 3F2F ....|F#4 7F.F ....
....|..|--- .... ....|D#5 3F7F ....|--- .... ....
....|..|--- .... ....|A-5 3F.A ....|G-4 7F.A ....
....|..|--- .... ....|--- .... ....|--- .... ....
....|..|--- .... ....|C-5 3F37 ....|--- .... ....
....|..|--- .... ....|--- .... ....|--- .... ....
....|..|--- .... ....|B-4 3F2A ....|F#4 7F.A ....
....|..|--- .... ....|E-6 3F.7 ....|--- .... ....
....|..|--- .... ....|A-5 3F.7 ....|G-4 7F.7 ....
....|..|--- .... ....|--- .... ....|--- .... ....
....|..|--- .... ....|--- .... ....|--- .... ....
....|..|--- .... ....|--- .... ....|--- .... ....
....|..|--- .... ....|B-4 3F27 ....|F#4 7F.7 ....
....|..|--- .... ....|D#5 3F77 ....|--- .... ....
....|..|--- .... ....|--- .... ....|--- .... ....
....|..|--- .... ....|--- .... ....|--- .... ....
....|..|--- .... ....|--- .... ....|--- .... ....
....|..|--- .... ....|--- .... ....|--- .... ....
....|..|--- .... ....|--- .... ....|--- .... ....
....|..|--- .... ....|--- .... ....|--- .... ....
....|..|--- .... ....|--- .... ....|--- .... ....
....|..|--- .... ....|--- .... ....|--- .... ....
....|..|--- .... ....|--- .... ....|--- .... ....
....|..|--- .... ....|--- .... ....|--- .... ....
....|..|--- .... ....|R-- .... ....|R-- .... ....
....|..|--- .... ....|--- .... ....|--- .... ....
....|..|--- .... ....|--- .... ....|--- .... ....
....|..|--- .... ....|--- .... ....|--- .... ....
....|..|--- .... ....|--- .... ....|--- .... ....
....|..|--- .... ....|--- .... ....|--- .... ....
....|..|--- .... ....|R-- .... ....|R-- .... ....
....|..|--- .... ....|--- .... ....|--- .... ....

[Pattern4]
 E-4|..|E-2 2A.F ....|B-6 3F.F ....|B-4 7F.F ....
....|..|--- .... ....|--- .... ....|--- .... ....
....|..|R-- .... ....|--- .... ....|--- .... ....
....|..|--- .... ....|--- .... ....|--- .... ....
 E-4|..|E-2 2A.F ....|B-6 3F.F ....|R-- .... ....
....|..|--- .... ....|B-5 3F.F ....|--- .... ....
....|..|E-2 2F.A ....|B-6 3F.A ....|B-4 7F.A ....
....|..|--- .... ....|--- .... ....|--- .... ....
 E-4|..|E-2 2A.F ....|E-5 3F1F ....|E-5 8F.F ....
....|..|--- .... ....|--- .... ....|--- .... ....
....|..|E-2 2F.A ....|B-6 3F.A ....|--- .... ....
....|..|--- .... ....|B-5 3F.A ....|--- .... ....
 E-4|..|E-2 2A.F ....|G-6 3F.F ....|E-5 8F.A ....
....|..|R-- .... ....|B-5 3F.F ....|--- .... ....
 E-4|..|E-2 2A.F ....|E-5 3F1A ....|R-- .... ....
....|..|--- .... ....|--- .... ....|--- .... ....
....|..|E-2 2F.7 ....|B-6 3F.F ....|--- .... ....
....|..|R-- .... ....|B-5 3F.7 ....|--- .... ....
 E-4|..|E-2 2A.F ....|G-6 3F.A ....|--- .... ....
....|..|R-- .... ....|B-5 3F.A ....|--- .... ....
 E-4|..|E-2 2A.F ....|B-6 3F.F ....|C-5 7F.F ....
....|..|--- .... ....|B-5 3F.F ....|--- .... ....
....|..|R-- .... ....|B-6 3F.A ....|--- .... ....
....|..|R-- .... ....|--- .... ....|--- .... ....
 F#4|..|F#2 2A.F ....|E-5 3F1F ....|E-5 8F.F ....
....|..|R-- .... ....|B-5 3F.7 ....|--- .... ....
....|..|E-2 2F.7 ....|B-6 3F.A ....|F#5 8F.F ....
....|..|--- .... ....|B-5 3F.A ....|--- .... ....
 G-4|..|G-2 2A.F ....|G-6 3F.F ....|B-4 7F.F ....
....|..|R-- .... ....|B-5 3F.F ....|--- .... ....
....|..|E-2 2F.7 ....|E-5 3F1A ....|F#5 8F.F ....
....|..|R-- .... ....|R-- .... ....|--- .... ....
 D#4|..|D#2 2A.F ....|B-6 3F.F ....|B-4 7F.F ....
....|..|--- .... ....|B-5 3F.7 ....|--- .... ....
....|..|G-2 2F.A ....|G-6 3F.A ....|B-4 7F.A ....
....|..|R-- .... ....|B-5 3F.A ....|--- .... ....
 D#4|..|D#2 2A.F ....|B-6 3F.F ....|E-5 8F.A ....
....|..|R-- .... ....|B-5 3F.F ....|R-- .... ....
....|..|D#2 2F.A ....|B-6 3F.A ....|B-4 7F.A ....
....|..|--- .... ....|--- .... ....|--- .... ....
 D#4|..|D#2 2A.F ....|D#5 3F1F ....|D#5 8F.F ....
....|..|--- .... ....|B-5 3F.7 ....|--- .... ....
....|..|D#2 2F.A ....|B-6 3F.A ....|F#5 8F.A ....
....|..|R-- .... ....|B-5 3F.A ....|--- .... ....
 D#4|..|D#2 2A.F ....|B-4 3F2F ....|D#5 8F.A ....
....|..|R-- .... ....|B-5 3F.F ....|--- .... ....
 D#4|..|D#2 2A.F ....|D#5 3F1A ....|--- .... ....
....|..|--- .... ....|R-- .... ....|--- .... ....
....|..|D#2 2F.7 ....|B-6 3F.F ....|E-5 8F.7 ....
....|..|R-- .... ....|B-5 3F.7 ....|R-- .... ....
 D#4|..|D#2 2A.F ....|B-4 3F2A ....|F#5 8F.7 ....
....|..|R-- .... ....|B-5 3F.A ....|--- .... ....
 D#4|..|D#2 2A.F ....|B-6 3F.F ....|C-5 7F.F ....
....|..|--- .... ....|R-- .... ....|--- .... ....
....|..|R-- .... ....|B-5 3F.F ....|F#5 8F.7 ....
....|..|R-- .... ....|--- .... ....|--- .... ....
 F#4|..|F#2 2A.F ....|D#5 3F1F ....|E-5 8F.F ....
....|..|R-- .... ....|B-5 3F.7 ....|--- .... ....
....|..|D#2 2F.7 ....|B-6 3F.A ....|F#5 8F.F ....
....|..|--- .... ....|R-- .... ....|--- .... ....
 A-3|..|A-2 2C.F ....|B-5 3F.F ....|B-4 7F.F ....
....|..|R-- .... ....|--- .... ....|R-- .... ....
....|..|D#2 2F.7 ....|D#5 3F1A ....|F#5 8F.F ....
....|..|R-- .... ....|R-- .... ....|--- .... ....

[Pattern5]
 D-4|..|D-2 2A.F ....|B-6 3F.F ....|B-4 7F.F ....
....|..|--- .... ....|--- .... ....|--- .... ....
....|..|A-2 2F.A ....|B-4 4F.A ....|B-4 7F.A ....
....|..|R-- .... ....|--- .... ....|--- .... ....
 D-4|..|D-2 2A.F ....|B-6 3F.F ....|E-5 8F.A ....
....|..|R-- .... ....|B-5 3F.F ....|R-- .... ....
....|..|D-2 2F.A ....|B-6 3F.A ....|B-4 7F.A ....
....|..|--- .... ....|--- .... ....|--- .... ....
 D-4|..|D-2 2A.F ....|D-5 3F3F ....|D-5 8F.F ....
....|..|--- .... ....|--- .... ....|--- .... ....
....|..|D-2 2F.A ....|B-6 3F.A ....|F#5 8F.A ....
....|..|R-- .... ....|B-5 3F.A ....|--- .... ....
 D-4|..|D-2 2A.F ....|B-4 3F4F ....|D-5 8F.A ....
....|..|R-- .... ....|B-5 3F.F ....|--- .... ....
 D-4|..|D-2 2A.F ....|D-5 3F3A ....|--- .... ....
....|..|--- .... ....|--- .... ....|--- .... ....
....|..|D-2 2F.7 ....|B-6 3F.F ....|E-5 8F.7 ....
....|..|R-- .... ....|B-5 3F.7 ....|R-- .... ....
 D-4|..|D-2 2A.F ....|B-4 3F4A ....|F#5 8F.7 ....
....|..|R-- .... ....|B-5 3F.A ....|--- .... ....
 D-4|..|D-2 2A.F ....|B-6 3F.F ....|C-5 7F.F ....
....|..|--- .... ....|B-5 3F.F ....|--- .... ....
....|..|R-- .... ....|B-6 3F.A ....|F#5 8F.7 ....
....|..|R-- .... ....|--- .... ....|--- .... ....
 F#4|..|F#2 2A.F ....|D-5 3F3F ....|E-5 8F.F ....
....|..|R-- .... ....|B-5 3F.7 ....|--- .... ....
....|..|D-2 2F.7 ....|B-6 3F.A ....|F#5 8F.F ....
....|..|--- .... ....|B-5 3F.A ....|--- .... ....
 A-3|..|A-2 2C.F ....|B-4 3F4F ....|B-4 7F.F ....
....|..|R-- .... ....|B-5 3F.F ....|R-- .... ....
....|..|D-2 2F.7 ....|D-5 3F3A ....|F#5 8F.F ....
....|..|R-- .... ....|--- .... ....|--- .... ....
 C#4|..|C#2 2A.F ....|A-6 3F.F ....|B-4 7F.F ....
....|..|--- .... ....|B-5 3F.7 ....|--- .... ....
....|..|A-2 2F.A ....|B-4 3F4A ....|B-4 7F.A ....
....|..|R-- .... ....|B-5 3F.A ....|--- .... ....
 C#4|..|C#2 2A.F ....|A-5 3F.F ....|E-5 8F.A ....
....|..|R-- .... ....|--- .... ....|R-- .... ....
....|..|C#2 2F.A ....|A-6 3F.A ....|B-4 7F.A ....
....|..|--- .... ....|--- .... ....|--- .... ....
 C#4|..|C#2 2A.F ....|C#5 3F1F ....|C#5 8F.F ....
....|..|--- .... ....|B-5 3F.7 ....|--- .... ....
....|..|C#2 2F.A ....|A-5 3F.A ....|F#5 8F.A ....
....|..|R-- .... ....|--- .... ....|--- .... ....
 C#4|..|C#2 2A.F ....|A-4 3F2F ....|C#5 8F.A ....
....|..|--- .... ....|A-5 3F.F ....|--- .... ....
 C#4|..|C#2 2A.F ....|C#5 3F1A ....|--- .... ....
....|..|--- .... ....|--- .... ....|--- .... ....
....|..|C#2 2F.7 ....|A-6 3F.F ....|A-4 7F.F ....
....|..|--- .... ....|--- .... ....|R-- .... ....
 C#4|..|C#2 2A.F ....|A-4 3F2A ....|F#5 8F.7 ....
....|..|--- .... ....|A-5 3F.A ....|--- .... ....
 C#4|..|C#2 2A.F ....|A-6 3F.F ....|G-5 8F.7 ....
....|..|--- .... ....|A-5 3F.F ....|--- .... ....
....|..|R-- .... ....|A-6 3F.A ....|A-4 7F.A ....
....|..|R-- .... ....|--- .... ....|--- .... ....
 F#4|..|F#2 2A.F ....|C#5 3F1F ....|E-5 8F.F ....
....|..|--- .... ....|A-5 3F.7 ....|--- .... ....
....|..|C#2 2F.7 ....|A-6 3F.A ....|F#5 8F.F ....
....|..|--- .... ....|A-5 3F.A ....|--- .... ....
 A-3|..|A-2 2C.F ....|E-6 3F.F ....|G-5 8F.F ....
....|..|R-- .... ....|A-5 3F.F ....|R-- .... ....
....|..|C#2 2F.7 ....|C#5 3F1A ....|F#5 8F.F ....
....|..|R-- .... ....|R-- .... ....|R-- .... ....

[Pattern6]
 C-4|..|C-2 2A.F ....|A-6 3F.F ....|A-4 7F.F ....
....|..|--- .... ....|A-5 3F.7 ....|--- .... ....
....|..|A-2 2F.A ....|E-6 3F.A ....|--- .... ....
....|..|R-- .... ....|A-5 3F.A ....|--- .... ....
 C-4|..|C-2 2A.F ....|A-6 3F.F ....|E-5 8F.A ....
....|..|R-- .... ....|A-5 3F.F ....|R-- .... ....
....|..|C-2 2F.A ....|A-6 3F.A ....|A-4 7F.A ....
....|..|--- .... ....|--- .... ....|--- .... ....
 C-4|..|C-2 2A.F ....|C-5 3F3F ....|C-5 8F.F ....
....|..|--- .... ....|A-5 3F.7 ....|--- .... ....
....|..|C-2 2F.A ....|A-6 3F.A ....|F#5 8F.A ....
....|..|R-- .... ....|A-5 3F.A ....|R-- .... ....
 C-4|..|C-2 2A.F ....|A-4 3F4F ....|C-5 8F.A ....
....|..|R-- .... ....|A-5 3F.F ....|--- .... ....
 C-4|..|C-2 2A.F ....|C-5 3F3A ....|--- .... ....
....|..|--- .... ....|R-- .... ....|R-- .... ....
....|..|C-2 2F.7 ....|A-6 3F.F ....|E-5 8F.7 ....
....|..|R-- .... ....|A-5 3F.7 ....|--- .... ....
 C-4|..|C-2 2A.F ....|A-4 3F4A ....|F#5 8F.7 ....
....|..|R-- .... ....|A-5 3F.A ....|--- .... ....
 C-4|..|C-2 2A.F ....|A-6 3F.F ....|B-4 7F.F ....
....|..|--- .... ....|A-5 3F.F ....|--- .... ....
....|..|R-- .... ....|A-6 3F.A ....|F#5 8F.7 ....
....|..|R-- .... ....|--- .... ....|--- .... ....
 F#4|..|F#2 2A.F ....|C-5 3F3F ....|E-5 8F.F ....
....|..|R-- .... ....|A-5 3F.7 ....|--- .... ....
....|..|C-2 2F.7 ....|A-6 3F.A ....|F#5 8F.F ....
....|..|--- .... ....|A-5 3F.A ....|R-- .... ....
 A-3|..|A-2 2C.F ....|A-5 3F.F ....|A-4 7F.F ....
....|..|R-- .... ....|--- .... ....|--- .... ....
....|..|C-2 2F.7 ....|C-5 3F3A ....|F#5 8F.F ....
....|..|R-- .... ....|--- .... ....|--- .... ....
 B-3|..|B-1 2A.F ....|G-6 3F.F ....|A-4 7F.F ....
....|..|--- .... ....|A-5 3F.7 ....|--- .... ....
....|..|A-2 2F.A ....|A-5 3F.A ....|A-4 7F.A ....
....|..|R-- .... ....|--- .... ....|--- .... ....
 B-3|..|B-1 2A.F ....|G-6 3F.F ....|E-5 8F.A ....
....|..|R-- .... ....|G-5 3F.F ....|--- .... ....
....|..|B-1 2F.A ....|G-6 3F.A ....|A-4 7F.A ....
....|..|--- .... ....|--- .... ....|R-- .... ....
 B-3|..|B-1 2A.F ....|B-4 3F5F ....|B-4 8F.F ....
....|..|--- .... ....|--- .... ....|--- .... ....
....|..|B-1 2F.A ....|G-6 3F.A ....|F#5 8F.A ....
....|..|R-- .... ....|G-5 3F.A ....|--- .... ....
 B-3|..|B-1 2A.F ....|G-4 3F6F ....|B-4 8F.A ....
....|..|--- .... ....|G-5 3F.F ....|--- .... ....
 B-3|..|B-1 2A.F ....|B-4 3F5A ....|--- .... ....
....|..|--- .... ....|--- .... ....|R-- .... ....
....|..|B-1 2F.7 ....|G-6 3F.F ....|G-4 7F.F ....
....|..|--- .... ....|G-5 3F.7 ....|--- .... ....
 B-3|..|B-1 2A.F ....|G-4 3F6A ....|F#5 8F.7 ....
....|..|--- .... ....|G-5 3F.A ....|--- .... ....
 B-3|..|B-1 2A.F ....|G-6 3F.F ....|G-5 8F.7 ....
....|..|--- .... ....|G-5 3F.F ....|--- .... ....
....|..|R-- .... ....|G-6 3F.A ....|G-4 7F.A ....
....|..|R-- .... ....|--- .... ....|--- .... ....
 F#4|..|F#2 2A.F ....|B-4 3F5F ....|E-5 8F.F ....
....|..|--- .... ....|G-5 3F.7 ....|--- .... ....
....|..|B-1 2F.7 ....|G-6 3F.A ....|F#5 8F.F ....
....|..|--- .... ....|G-5 3F.A ....|R-- .... ....
 G-4|..|G-2 2A.F ....|G-4 3F6F ....|G-5 8F.F ....
....|..|R-- .... ....|G-5 3F.F ....|--- .... ....
....|..|B-1 2F.7 ....|B-4 3F5A ....|F#5 8F.F ....
....|..|R-- .... ....|R-- .... ....|R-- .... ....

[Pattern7]
 A-3|..|A-2 2C.F ....|G-6 3F.F ....|G-4 7F.F ....
....|..|--- .... ....|G-5 3F.7 ....|--- .... ....
....|..|G-2 2F.A ....|G-4 3F6A ....|--- .... ....
....|..|R-- .... ....|G-5 3F.A ....|--- .... ....
 A-3|..|A-2 2C.F ....|G-6 3F.F ....|E-5 8F.A ....
....|..|R-- .... ....|A-5 3F.F ....|R-- .... ....
....|..|A-2 2F.A ....|G-6 3F.A ....|G-4 7F.A ....
....|..|--- .... ....|--- .... ....|R-- .... ....
 A-3|..|A-2 2C.F ....|C-5 3F3F ....|C-5 8F.F ....
....|..|--- .... ....|G-5 3F.7 ....|--- .... ....
....|..|A-2 2F.A ....|G-6 3F.A ....|F#5 8F.A ....
....|..|R-- .... ....|A-5 3F.A ....|R-- .... ....
 A-3|..|A-2 2C.F ....|A-4 3F4F ....|C-5 8F.A ....
....|..|--- .... ....|A-5 3F.F ....|--- .... ....
 A-3|..|A-2 2C.F ....|C-5 3F3A ....|--- .... ....
....|..|--- .... ....|--- .... ....|R-- .... ....
....|..|A-2 2F.7 ....|G-6 3F.F ....|E-5 8F.7 ....
....|..|--- .... ....|A-5 3F.7 ....|R-- .... ....
 A-3|..|A-2 2C.F ....|A-4 3F4A ....|F#5 8F.7 ....
....|..|--- .... ....|A-5 3F.A ....|--- .... ....
 A-3|..|A-2 2C.F ....|G-6 3F.F ....|A-4 7F.F ....
....|..|--- .... ....|A-5 3F.F ....|--- .... ....
....|..|R-- .... ....|G-6 3F.A ....|F#5 8F.7 ....
....|..|R-- .... ....|--- .... ....|--- .... ....
 A-3|..|A-2 2C.F ....|C-5 3F3F ....|E-5 8F.F ....
....|..|--- .... ....|A-5 3F.7 ....|--- .... ....
....|..|A-2 2F.7 ....|G-6 3F.A ....|F#5 8F.F ....
....|..|--- .... ....|E-6 3F.F ....|R-- .... ....
 A-3|..|A-2 2C.F ....|A-5 3F.F ....|G-4 7F.F ....
....|..|R-- .... ....|--- .... ....|R-- .... ....
....|..|A-2 2F.7 ....|C-5 3F3A ....|F#5 8F.F ....
....|..|R-- .... ....|--- .... ....|--- .... ....
 B-4|..|B-2 2A.F ....|B-4 3F2F ....|B-4 7F.F ....
....|..|--- .... ....|D#5 3F7F ....|--- .... ....
....|..|A-2 2F.A ....|A-5 3F.A ....|G-4 7F.A ....
....|..|R-- .... ....|--- .... ....|--- .... ....
 B-4|..|B-2 2A.F ....|C-5 3F37 ....|E-5 8F.A ....
....|..|R-- .... ....|--- .... ....|R-- .... ....
....|..|B-2 2F.A ....|B-4 3F2A ....|B-4 7F.A ....
....|..|--- .... ....|E-6 3F.7 ....|R-- .... ....
 A-3|..|A-2 2C.F ....|A-5 3F.7 ....|D#5 8F.F ....
....|..|--- .... ....|--- .... ....|--- .... ....
....|..|B-2 2F.A ....|--- .... ....|F#5 8F.A ....
....|..|R-- .... ....|--- .... ....|--- .... ....
 A-3|..|A-2 2C.F ....|B-4 3F27 ....|D#5 8F.A ....
....|..|--- .... ....|D#5 3F77 ....|--- .... ....
 F#4|..|F#2 2A.F ....|--- .... ....|--- .... ....
....|..|--- .... ....|--- .... ....|R-- .... ....
....|..|B-2 2F.7 ....|--- .... ....|E-5 8F.7 ....
....|..|--- .... ....|--- .... ....|R-- .... ....
 F#4|..|F#2 2A.F ....|--- .... ....|F#5 8F.7 ....
....|..|--- .... ....|--- .... ....|--- .... ....
 F#4|..|F#2 2A.F ....|--- .... ....|G-5 8F.7 ....
....|..|--- .... ....|--- .... ....|--- .... ....
....|..|R-- .... ....|--- .... ....|F#5 8F.7 ....
....|..|R-- .... ....|--- .... ....|--- .... ....
 D#4|..|D#2 2A.F ....|R-- .... ....|E-5 8F.F ....
....|..|--- .... ....|--- .... ....|--- .... ....
....|..|F#2 2F.7 ....|--- .... ....|F#5 8F.F ....
....|..|--- .... ....|--- .... ....|R-- .... ....
 D#4|..|D#2 2A.F ....|--- .... ....|G-5 8F.F ....
....|..|R-- .... ....|--- .... ....|R-- .... ....
....|..|F#2 2F.7 ....|R-- .... ....|F#5 8F.F ....
....|..|R-- .... ....|--- .... ....|--- .... ....

[Pattern8]
 E-4|..|E-3 2C.F ....|B-3 UF9F ....|D#5 8F.7 ....
....|..|--- .... ....|--- .... ....|--- .... ....
....|..|D#2 2F.A ....|--- .... ....|--- .... ....
....|..|R-- .... ....|--- .... ....|--- .... ....
....|..|D#2 2F.7 ....|R-- .... ....|E-5 8F.A ....
....|..|R-- .... ....|--- .... ....|--- .... ....
....|..|E-3 2F.A ....|B-3 UF9A ....|F#5 8F.A ....
....|..|R-- .... ....|--- .... ....|R-- .... ....
 E-4|..|E-3 2C.F ....|--- .... ....|G-5 8F.A ....
....|..|--- .... ....|--- .... ....|--- .... ....
....|..|--- .... ....|--- .... ....|F#5 8F.A ....
 E-4|..|E-2 2A.F ....|--- .... ....|--- .... ....
 E-4|..|E-3 2C.F ....|B-3 UF97 ....|R-- .... ....
....|..|R-- .... ....|--- .... ....|--- .... ....
....|..|E-3 2F.A ....|--- .... ....|--- .... ....
....|..|--- .... ....|--- .... ....|--- .... ....
....|..|--- .... ....|--- .... ....|E-5 8F.7 ....
....|..|E-2 2F.A ....|--- .... ....|--- .... ....
....|..|E-3 2F.A ....|--- .... ....|F#5 8F.7 ....
....|..|R-- .... ....|--- .... ....|--- .... ....
....|..|E-3 2F.7 ....|--- .... ....|G-5 8F.7 ....
....|..|--- .... ....|--- .... ....|--- .... ....
....|..|--- .... ....|--- .... ....|F#5 8F.7 ....
....|..|E-2 2F.7 ....|--- .... ....|--- .... ....
....|..|E-3 2F.7 ....|--- .... ....|R-- .... ....
....|..|--- .... ....|--- .... ....|--- .... ....
....|..|--- .... ....|--- .... ....|--- .... ....
....|..|--- .... ....|--- .... ....|--- .... ....
....|..|--- .... ....|--- .... ....|--- .... ....
....|..|--- .... ....|--- .... ....|--- .... ....
 E-4|..|E-2 2A.F ....|--- .... ....|--- .... ....
....|..|R-- .... ....|--- .... ....|--- .... ....
 E-4|..|E-3 2C.F ....|--- .... ....|--- .... ....
....|..|--- .... ....|--- .... ....|--- .... ....
....|..|--- .... ....|--- .... ....|--- .... ....
....|..|--- .... ....|--- .... ....|--- .... ....
....|..|E-2 2F.A ....|--- .... ....|--- .... ....
....|..|R-- .... ....|--- .... ....|--- .... ....
....|..|E-3 2F.A ....|--- .... ....|--- .... ....
....|..|R-- .... ....|--- .... ....|--- .... ....
 E-4|..|E-3 2C.F ....|--- .... ....|--- .... ....
....|..|--- .... ....|--- .... ....|--- .... ....
....|..|E-2 2F.7 ....|--- .... ....|--- .... ....
....|..|R-- .... ....|--- .... ....|--- .... ....
 E-4|..|E-3 2C.F ....|--- .... ....|--- .... ....
....|..|R-- .... ....|--- .... ....|--- .... ....
....|..|E-3 2F.A ....|--- .... ....|--- .... ....
....|..|--- .... ....|--- .... ....|--- .... ....
....|..|--- .... ....|--- .... ....|--- .... ....
....|..|--- .... ....|--- .... ....|--- .... ....
....|..|E-3 2F.A ....|--- .... ....|--- .... ....
....|..|R-- .... ....|--- .... ....|--- .... ....
 F#4|..|F#3 2C.F ....|--- .... ....|--- .... ....
....|..|--- .... ....|--- .... ....|--- .... ....
....|..|--- .... ....|--- .... ....|--- .... ....
....|..|--- .... ....|--- .... ....|--- .... ....
 G-4|..|G-3 2C.F ....|--- .... ....|--- .... ....
....|..|--- .... ....|--- .... ....|--- .... ....
....|..|F#3 2F.A ....|--- .... ....|--- .... ....
....|..|--- .... ....|--- .... ....|--- .... ....
 F#4|..|F#3 2C.F ....|--- .... ....|--- .... ....
....|..|--- .... ....|--- .... ....|--- .... ....
....|..|G-3 2F.A ....|--- .... ....|--- .... ....
....|..|R-- .... ....|R-- .... ....|--- .... ....

[Pattern9]
 E-4|..|E-2 2A.F ....|--- .... ....|E-4 8F.F ....
....|..|--- .... ....|--- .... ....|--- .... ....
....|..|R-- .... ....|--- .... ....|--- .... ....
....|..|--- .... ....|--- .... ....|--- .... ....
 E-4|..|E-2 2A.F ....|B-4 4F.F ....|B-4 7F.F ....
....|..|R-- .... ....|R-- .... ....|--- .... ....
....|..|E-2 2F.A ....|--- .... ....|--- .... ....
....|..|--- .... ....|R-- .... ....|R-- .... ....
 E-4|..|E-2 2A.F ....|B-4 4F.F ....|B-4 7F.F ....
....|..|--- .... ....|--- .... ....|--- .... ....
....|..|E-2 2F.A ....|B-4 4F.A ....|B-4 7F.A ....
....|..|R-- .... ....|R-- .... ....|R-- .... ....
 E-4|..|E-2 2A.F ....|B-4 4F.F ....|B-4 7F.F ....
....|..|R-- .... ....|R-- .... ....|R-- .... ....
 E-4|..|E-2 2A.F ....|B-4 4F.A ....|B-4 7F.A ....
....|..|--- .... ....|R-- .... ....|R-- .... ....
....|..|E-2 2F.7 ....|B-4 4F.F ....|B-4 7F.F ....
....|..|R-- .... ....|R-- .... ....|R-- .... ....
 E-4|..|E-2 2A.F ....|B-4 4F.A ....|B-4 7F.A ....
....|..|R-- .... ....|R-- .... ....|R-- .... ....
 E-4|..|E-2 2A.F ....|B-4 4F.F ....|B-4 7F.F ....
....|..|--- .... ....|R-- .... ....|R-- .... ....
....|..|R-- .... ....|B-4 4F.A ....|B-4 7F.A ....
....|..|R-- .... ....|R-- .... ....|R-- .... ....
 F#4|..|F#2 2A.F ....|B-4 4F.F ....|B-4 7F.F ....
....|..|R-- .... ....|R-- .... ....|R-- .... ....
....|..|E-2 2F.7 ....|B-4 4F.A ....|B-4 7F.A ....
....|..|--- .... ....|R-- .... ....|R-- .... ....
 G-4|..|G-2 2A.F ....|B-4 4F.F ....|B-4 7F.F ....
....|..|R-- .... ....|R-- .... ....|R-- .... ....
....|..|E-2 2F.7 ....|B-4 4F.A ....|B-4 7F.A ....
....|..|R-- .... ....|R-- .... ....|R-- .... ....
 D#4|..|D#2 2A.F ....|B-4 4F.7 ....|D#4 8F.F ....
....|..|--- .... ....|R-- .... ....|R-- .... ....
....|..|G-2 2F.A ....|B-4 4F.A ....|B-4 7F.A ....
....|..|R-- .... ....|R-- .... ....|R-- .... ....
 D#4|..|D#2 2A.F ....|B-4 4F.F ....|B-4 7F.F ....
....|..|R-- .... ....|R-- .... ....|R-- .... ....
....|..|D#2 2F.A ....|D#4 2F7F ....|--- .... ....
....|..|--- .... ....|R-- .... ....|R-- .... ....
 D#4|..|D#2 2A.F ....|B-4 4F.F ....|B-4 7F.F ....
....|..|--- .... ....|--- .... ....|--- .... ....
....|..|D#2 2F.A ....|B-4 4F.A ....|B-4 7F.A ....
....|..|R-- .... ....|R-- .... ....|R-- .... ....
 D#4|..|D#2 2A.F ....|B-4 4F.F ....|B-4 7F.F ....
....|..|R-- .... ....|R-- .... ....|R-- .... ....
 D#4|..|D#2 2A.F ....|B-4 2F2F ....|B-4 7F.A ....
....|..|--- .... ....|R-- .... ....|R-- .... ....
....|..|D#2 2F.7 ....|B-4 4F.F ....|B-4 7F.F ....
....|..|R-- .... ....|R-- .... ....|R-- .... ....
 D#4|..|D#2 2A.F ....|B-4 4F.A ....|B-4 7F.A ....
....|..|R-- .... ....|R-- .... ....|R-- .... ....
 D#4|..|D#2 2A.F ....|F#4 4F.F ....|F#4 7F.F ....
....|..|--- .... ....|R-- .... ....|R-- .... ....
....|..|R-- .... ....|F#4 2FFF ....|B-4 7F.A ....
....|..|R-- .... ....|R-- .... ....|R-- .... ....
 E-4|..|E-2 2A.F ....|F#4 2FFF ....|B-4 7F.7 ....
....|..|R-- .... ....|R-- .... ....|R-- .... ....
....|..|D#2 2F.7 ....|F#4 4F.A ....|F#4 7F.A ....
....|..|--- .... ....|R-- .... ....|R-- .... ....
 F#4|..|F#2 2A.F ....|B-4 4F.7 ....|B-4 7F.7 ....
....|..|R-- .... ....|R-- .... ....|--- .... ....
....|..|D#2 2F.7 ....|F#4 2FFA ....|--- .... ....
....|..|R-- .... ....|R-- .... ....|R-- .... ....

[Pattern10]
 E-4|..|E-2 2A.F ....|F#4 4F.7 ....|E-4 8F.F ....
....|..|--- .... ....|R-- .... ....|--- .... ....
....|..|F#2 2F.A ....|F#4 2FF7 ....|--- .... ....
....|..|R-- .... ....|R-- .... ....|--- .... ....
 E-4|..|E-2 2A.F ....|F#4 2FF7 ....|--- .... ....
....|..|R-- .... ....|R-- .... ....|--- .... ....
....|..|E-2 2F.A ....|R-- .... ....|R-- .... ....
....|..|--- .... ....|--- .... ....|--- .... ....
 E-4|..|E-2 2A.F ....|B-4 4F.F ....|B-4 7F.F ....
....|..|--- .... ....|--- .... ....|--- .... ....
....|..|E-2 2F.A ....|--- .... ....|--- .... ....
....|..|R-- .... ....|R-- .... ....|--- .... ....
 E-4|..|E-2 2A.F ....|B-4 4F.F ....|B-4 7F.F ....
....|..|R-- .... ....|--- .... ....|--- .... ....
 E-4|..|E-2 2A.F ....|B-4 4F.A ....|B-4 7F.A ....
....|..|--- .... ....|R-- .... ....|R-- .... ....
....|..|E-2 2F.7 ....|B-4 4F.F ....|B-4 7F.F ....
....|..|R-- .... ....|--- .... ....|--- .... ....
 E-4|..|E-2 2A.F ....|B-4 4F.A ....|B-4 7F.A ....
....|..|R-- .... ....|R-- .... ....|R-- .... ....
 E-4|..|E-2 2A.F ....|B-4 4F.F ....|B-4 7F.F ....
....|..|--- .... ....|R-- .... ....|R-- .... ....
....|..|R-- .... ....|B-4 4F.A ....|B-4 7F.A ....
....|..|R-- .... ....|R-- .... ....|R-- .... ....
 F#4|..|F#2 2A.F ....|B-4 4F.F ....|B-4 7F.F ....
....|..|R-- .... ....|R-- .... ....|R-- .... ....
....|..|E-2 2F.7 ....|B-4 4F.A ....|B-4 7F.A ....
....|..|--- .... ....|R-- .... ....|R-- .... ....
 G-4|..|G-2 2A.F ....|B-4 4F.F ....|B-4 7F.F ....
....|..|R-- .... ....|R-- .... ....|R-- .... ....
....|..|E-2 2F.7 ....|B-4 4F.A ....|B-4 7F.A ....
....|..|R-- .... ....|R-- .... ....|R-- .... ....
 A-3|..|A-2 2C.F ....|B-4 4F.7 ....|G-4 8F.F ....
....|..|--- .... ....|R-- .... ....|R-- .... ....
....|..|G-2 2F.A ....|B-4 4F.A ....|B-4 7F.A ....
....|..|R-- .... ....|R-- .... ....|R-- .... ....
 A-3|..|A-2 2C.F ....|B-4 4F.7 ....|F#4 8F.A ....
....|..|R-- .... ....|R-- .... ....|R-- .... ....
....|..|A-2 2F.A ....|C-4 2F2F ....|--- .... ....
....|..|--- .... ....|R-- .... ....|R-- .... ....
 A-3|..|A-2 2C.F ....|B-4 4F.F ....|B-4 7F.F ....
....|..|--- .... ....|--- .... ....|--- .... ....
....|..|A-2 2F.A ....|--- .... ....|--- .... ....
....|..|R-- .... ....|R-- .... ....|R-- .... ....
 A-3|..|A-2 2C.F ....|B-4 4F.F ....|B-4 7F.F ....
....|..|--- .... ....|E-4 2F1F ....|--- .... ....
 A-3|..|A-2 2C.F ....|A-4 2F4F ....|B-4 7F.A ....
....|..|--- .... ....|R-- .... ....|R-- .... ....
....|..|A-2 2F.7 ....|B-4 4F.F ....|B-4 7F.F ....
....|..|--- .... ....|R-- .... ....|R-- .... ....
 A-3|..|A-2 2C.F ....|B-4 4F.A ....|B-4 7F.A ....
....|..|--- .... ....|E-4 2F1A ....|R-- .... ....
 A-3|..|A-2 2C.F ....|B-4 4F.F ....|B-4 7F.F ....
....|..|--- .... ....|R-- .... ....|R-- .... ....
....|..|R-- .... ....|E-4 2FDF ....|B-4 7F.A ....
....|..|R-- .... ....|R-- .... ....|R-- .... ....
 G-4|..|G-2 2A.F ....|G-4 4F.F ....|G-4 7F.F ....
....|..|--- .... ....|E-4 2F17 ....|R-- .... ....
....|..|A-2 2F.7 ....|B-4 4F.A ....|B-4 7F.A ....
....|..|--- .... ....|R-- .... ....|R-- .... ....
 E-4|..|E-2 2A.F ....|B-4 4F.7 ....|B-4 7F.7 ....
....|..|R-- .... ....|R-- .... ....|R-- .... ....
....|..|A-2 2F.7 ....|G-4 4F.A ....|G-4 7F.A ....
....|..|R-- .... ....|R-- .... ....|R-- .... ....

[Pattern11]
 C-4|..|C-2 2A.F ....|B-4 4F.7 ....|C-4 8F.F ....
....|..|--- .... ....|R-- .... ....|--- .... ....
....|..|E-2 2F.A ....|E-4 2FD7 ....|R-- .... ....
....|..|R-- .... ....|R-- .... ....|R-- .... ....
 C-4|..|C-2 2A.F ....|C-5 4F.F ....|C-5 7F.F ....
....|..|R-- .... ....|R-- .... ....|--- .... ....
....|..|C-2 2F.A ....|--- .... ....|--- .... ....
....|..|--- .... ....|R-- .... ....|R-- .... ....
 C-4|..|C-2 2A.F ....|C-5 4F.F ....|C-5 7F.F ....
....|..|--- .... ....|--- .... ....|--- .... ....
....|..|C-2 2F.A ....|C-5 4F.A ....|C-5 7F.A ....
....|..|R-- .... ....|R-- .... ....|R-- .... ....
 C-4|..|C-2 2A.F ....|C-5 4F.F ....|C-5 7F.F ....
....|..|R-- .... ....|R-- .... ....|R-- .... ....
 C-4|..|C-2 2A.F ....|C-5 4F.A ....|C-5 7F.A ....
....|..|--- .... ....|R-- .... ....|R-- .... ....
....|..|C-2 2F.7 ....|C-5 4F.F ....|C-5 7F.F ....
....|..|R-- .... ....|R-- .... ....|R-- .... ....
 C-4|..|C-2 2A.F ....|C-5 4F.A ....|C-5 7F.A ....
....|..|R-- .... ....|R-- .... ....|R-- .... ....
 C-4|..|C-2 2A.F ....|A-4 4F.F ....|A-4 7F.F ....
....|..|--- .... ....|R-- .... ....|R-- .... ....
....|..|R-- .... ....|C-5 4F.A ....|C-5 7F.A ....
....|..|R-- .... ....|R-- .... ....|R-- .... ....
 E-4|..|E-2 2A.F ....|C-5 4F.F ....|C-5 7F.F ....
....|..|R-- .... ....|R-- .... ....|R-- .... ....
....|..|C-2 2F.7 ....|A-4 4F.A ....|A-4 7F.A ....
....|..|--- .... ....|R-- .... ....|R-- .... ....
 G-4|..|G-2 2A.F ....|A-4 4F.F ....|A-4 7F.F ....
....|..|R-- .... ....|R-- .... ....|R-- .... ....
....|..|C-2 2F.7 ....|C-5 4F.A ....|C-5 7F.A ....
....|..|R-- .... ....|R-- .... ....|R-- .... ....
 B-3|..|B-1 2A.F ....|B-4 4F.F ....|B-4 7F.F ....
....|..|--- .... ....|--- .... ....|--- .... ....
....|..|G-2 2F.A ....|A-4 4F.A ....|A-4 7F.A ....
....|..|R-- .... ....|R-- .... ....|R-- .... ....
 B-3|..|B-1 2A.F ....|C-5 4F.7 ....|D-4 8F.A ....
....|..|R-- .... ....|R-- .... ....|R-- .... ....
....|..|B-1 2F.A ....|D#4 2F7F ....|B-4 7F.A ....
....|..|--- .... ....|R-- .... ....|--- .... ....
 B-3|..|B-1 2A.F ....|B-4 4F.F ....|B-4 7F.F ....
....|..|--- .... ....|--- .... ....|--- .... ....
....|..|B-1 2F.A ....|--- .... ....|--- .... ....
....|..|R-- .... ....|R-- .... ....|R-- .... ....
 B-3|..|B-1 2A.F ....|B-4 4F.F ....|B-4 7F.F ....
....|..|--- .... ....|R-- .... ....|--- .... ....
 B-3|..|B-1 2A.F ....|B-4 2F2F ....|B-4 7F.A ....
....|..|--- .... ....|R-- .... ....|R-- .... ....
....|..|B-1 2F.7 ....|B-4 4F.F ....|B-4 7F.F ....
....|..|--- .... ....|R-- .... ....|R-- .... ....
 B-3|..|B-1 2A.F ....|B-4 4F.A ....|B-4 7F.A ....
....|..|--- .... ....|R-- .... ....|R-- .... ....
 B-3|..|B-1 2A.F ....|B-4 4F.F ....|B-4 7F.F ....
....|..|--- .... ....|F#5 2F.F ....|R-- .... ....
....|..|R-- .... ....|F#4 2FFF ....|B-4 7F.A ....
....|..|R-- .... ....|R-- .... ....|R-- .... ....
 D#4|..|D#2 2A.F ....|F#4 4F.F ....|F#4 7F.F ....
....|..|--- .... ....|R-- .... ....|R-- .... ....
....|..|B-1 2F.7 ....|B-4 4F.A ....|B-4 7F.A ....
....|..|--- .... ....|F#5 2F.A ....|R-- .... ....
 F#4|..|F#2 2A.F ....|B-4 4F.7 ....|B-4 7F.7 ....
....|..|R-- .... ....|B-4 2F.F ....|--- .... ....
....|..|B-1 2F.7 ....|A-4 2F4F ....|F#4 7F.A ....
....|..|R-- .... ....|R-- .... ....|R-- .... ....

[Pattern12]
 C-4|..|C-2 2A.F ....|A-4 2F4F ....|C-4 8F.F ....
....|..|--- .... ....|F#5 2F.7 ....|--- .... ....
....|..|F#2 2F.A ....|F#4 2FF7 ....|R-- .... ....
....|..|R-- .... ....|B-4 2F.A ....|--- .... ....
 C-4|..|C-2 2A.F ....|C-5 4F.F ....|C-5 7F.F ....
....|..|R-- .... ....|R-- .... ....|--- .... ....
....|..|C-2 2F.A ....|A-4 2F4A ....|--- .... ....
....|..|--- .... ....|R-- .... ....|R-- .... ....
 C-4|..|C-2 2A.F ....|C-5 4F.F ....|C-5 7F.F ....
....|..|--- .... ....|B-4 2F.7 ....|--- .... ....
....|..|C-2 2F.A ....|C-5 4F.A ....|C-5 7F.A ....
....|..|R-- .... ....|R-- .... ....|R-- .... ....
 C-4|..|C-2 2A.F ....|C-5 4F.F ....|C-5 7F.F ....
....|..|R-- .... ....|R-- .... ....|R-- .... ....
 C-4|..|C-2 2A.F ....|C-5 4F.A ....|C-5 7F.A ....
....|..|--- .... ....|C-4 2F3F ....|--- .... ....
....|..|C-2 2F.7 ....|C-5 4F.F ....|C-5 7F.F ....
....|..|R-- .... ....|R-- .... ....|R-- .... ....
 C-4|..|C-2 2A.F ....|C-5 4F.A ....|C-5 7F.A ....
....|..|R-- .... ....|R-- .... ....|R-- .... ....
 C-4|..|C-2 2A.F ....|C-5 4F.F ....|C-5 7F.F ....
....|..|--- .... ....|C-4 2F3A ....|--- .... ....
....|..|R-- .... ....|C-5 4F.A ....|C-5 7F.A ....
....|..|R-- .... ....|R-- .... ....|R-- .... ....
 E-4|..|E-2 2A.F ....|C-5 4F.F ....|C-5 7F.F ....
....|..|R-- .... ....|--- .... ....|--- .... ....
....|..|C-2 2F.7 ....|C-5 4F.A ....|C-5 7F.A ....
....|..|--- .... ....|C-4 2F37 ....|--- .... ....
 G-4|..|G-2 2A.F ....|A-4 4F.F ....|A-4 7F.F ....
....|..|R-- .... ....|R-- .... ....|R-- .... ....
....|..|C-2 2F.7 ....|C-5 4F.A ....|C-5 7F.A ....
....|..|R-- .... ....|R-- .... ....|R-- .... ....
 B-4|..|B-2 2A.F ....|B-4 4F.F ....|B-4 7F.F ....
....|..|--- .... ....|--- .... ....|--- .... ....
....|..|G-2 2F.A ....|A-4 4F.A ....|A-4 7F.A ....
....|..|R-- .... ....|R-- .... ....|R-- .... ....
 B-4|..|B-2 2A.F ....|C-5 4F.7 ....|D-4 8F.A ....
....|..|R-- .... ....|R-- .... ....|R-- .... ....
....|..|B-2 2F.A ....|B-4 4F.F ....|B-4 7F.F ....
....|..|--- .... ....|R-- .... ....|--- .... ....
 A-3|..|A-2 2C.F ....|B-4 4F.F ....|B-4 7F.F ....
....|..|--- .... ....|--- .... ....|--- .... ....
....|..|B-2 2F.A ....|--- .... ....|--- .... ....
....|..|R-- .... ....|R-- .... ....|R-- .... ....
 A-3|..|A-2 2C.F ....|F#4 4F.F ....|F#4 7F.F ....
....|..|--- .... ....|R-- .... ....|--- .... ....
 G-4|..|G-2 2A.F ....|B-4 2F2F ....|B-4 7F.A ....
....|..|--- .... ....|R-- .... ....|--- .... ....
....|..|B-2 2F.7 ....|B-4 2F2F ....|G-4 8F.F ....
....|..|--- .... ....|--- .... ....|--- .... ....
 G-4|..|G-2 2A.F ....|B-4 4F.7 ....|B-4 7F.7 ....
....|..|--- .... ....|R-- .... ....|--- .... ....
 G-4|..|G-2 2A.F ....|D#4 4F.F ....|D#4 7F.F ....
....|..|--- .... ....|F#5 2F.F ....|--- .... ....
....|..|R-- .... ....|F#4 2FFF ....|--- .... ....
....|..|R-- .... ....|R-- .... ....|--- .... ....
 F#4|..|F#2 2A.F ....|F#4 2FFF ....|F#4 8F.F ....
....|..|--- .... ....|R-- .... ....|--- .... ....
....|..|G-2 2F.7 ....|D#4 4F.A ....|D#4 7F.A ....
....|..|--- .... ....|F#5 2F.A ....|--- .... ....
 B-3|..|B-1 2A.F ....|B-4 2F27 ....|G-4 8F.A ....
....|..|R-- .... ....|R-- .... ....|R-- .... ....
....|..|G-2 2F.7 ....|F#4 2FFA ....|--- .... ....
....|..|R-- .... ....|B-4 2F.F ....|--- .... ....

[Pattern13]
 E-4|..|E-2 2A.F ....|R-- .... ....|E-4 8F.F ....
....|..|--- .... ....|F#5 2F.7 ....|--- .... ....
....|..|B-1 2F.A ....|F#4 2FF7 ....|--- .... ....
....|..|R-- .... ....|R-- .... ....|R-- .... ....
 E-4|..|E-2 2A.F ....|B-4 4F.F ....|B-4 7F.F ....
....|..|R-- .... ....|B-4 2F.A ....|--- .... ....
....|..|E-2 2F.A ....|R-- .... ....|R-- .... ....
....|..|--- .... ....|--- .... ....|--- .... ....
 E-4|..|E-2 2A.F ....|B-4 4F.F ....|B-4 7F.F ....
....|..|--- .... ....|R-- .... ....|R-- .... ....
....|..|E-2 2F.A ....|B-4 4F.A ....|B-4 7F.A ....
....|..|R-- .... ....|B-4 2F.7 ....|--- .... ....
 E-4|..|E-2 2A.F ....|R-- .... ....|E-4 8F.A ....
....|..|R-- .... ....|--- .... ....|--- .... ....
 E-4|..|E-2 2A.F ....|B-4 4F.A ....|B-4 7F.A ....
....|..|--- .... ....|--- .... ....|--- .... ....
....|..|E-2 2F.7 ....|B-4 4F.F ....|B-4 7F.F ....
....|..|R-- .... ....|--- .... ....|--- .... ....
 E-4|..|E-2 2A.F ....|R-- .... ....|R-- .... ....
....|..|R-- .... ....|R-- .... ....|R-- .... ....
 E-4|..|E-2 2A.F ....|B-4 4F.F ....|B-4 7F.F ....
....|..|--- .... ....|--- .... ....|--- .... ....
....|..|R-- .... ....|B-4 4F.A ....|B-4 7F.A ....
....|..|R-- .... ....|R-- .... ....|R-- .... ....
 F#4|..|F#2 2A.F ....|B-4 4F.F ....|B-4 7F.F ....
....|..|R-- .... ....|R-- .... ....|R-- .... ....
....|..|E-2 2F.7 ....|B-4 4F.A ....|B-4 7F.A ....
....|..|--- .... ....|R-- .... ....|R-- .... ....
 G-4|..|G-2 2A.F ....|B-4 4F.F ....|B-4 7F.F ....
....|..|R-- .... ....|R-- .... ....|R-- .... ....
....|..|E-2 2F.7 ....|B-4 4F.A ....|B-4 7F.A ....
....|..|R-- .... ....|R-- .... ....|R-- .... ....
 D#4|..|D#2 2A.F ....|B-4 4F.7 ....|D#4 8F.F ....
....|..|--- .... ....|R-- .... ....|R-- .... ....
....|..|G-2 2F.A ....|B-4 4F.A ....|B-4 7F.A ....
....|..|R-- .... ....|R-- .... ....|R-- .... ....
 D#4|..|D#2 2A.F ....|B-4 4F.F ....|B-4 7F.F ....
....|..|R-- .... ....|R-- .... ....|R-- .... ....
....|..|D#2 2F.A ....|D#4 2F7F ....|R-- .... ....
....|..|--- .... ....|R-- .... ....|R-- .... ....
 D#4|..|D#2 2A.F ....|B-4 4F.F ....|B-4 7F.F ....
....|..|--- .... ....|--- .... ....|--- .... ....
....|..|D#2 2F.A ....|B-4 4F.A ....|B-4 7F.A ....
....|..|R-- .... ....|R-- .... ....|R-- .... ....
 D#4|..|D#2 2A.F ....|D#4 2F7A ....|D#4 8F.A ....
....|..|R-- .... ....|R-- .... ....|--- .... ....
 D#4|..|D#2 2A.F ....|B-4 4F.F ....|B-4 7F.F ....
....|..|--- .... ....|R-- .... ....|--- .... ....
....|..|D#2 2F.7 ....|B-4 4F.F ....|B-4 7F.F ....
....|..|R-- .... ....|--- .... ....|--- .... ....
 D#4|..|D#2 2A.F ....|B-4 4F.F ....|R-- .... ....
....|..|R-- .... ....|R-- .... ....|--- .... ....
 D#4|..|D#2 2A.F ....|B-4 4F.F ....|B-4 7F.F ....
....|..|--- .... ....|R-- .... ....|--- .... ....
....|..|R-- .... ....|F#4 2FFF ....|B-4 7F.A ....
....|..|R-- .... ....|R-- .... ....|--- .... ....
 E-4|..|E-2 2A.F ....|F#4 4F.F ....|F#4 7F.F ....
....|..|R-- .... ....|R-- .... ....|--- .... ....
....|..|D#2 2F.7 ....|B-4 4F.7 ....|B-4 7F.7 ....
....|..|--- .... ....|R-- .... ....|--- .... ....
 F#4|..|F#2 2A.F ....|B-4 4F.7 ....|B-4 7F.7 ....
....|..|R-- .... ....|R-- .... ....|--- .... ....
....|..|D#2 2F.7 ....|F#4 2FFA ....|F#4 7F.A ....
....|..|R-- .... ....|R-- .... ....|R-- .... ....

[Pattern14]
 E-4|..|E-2 2A.F ....|B-4 4F.7 ....|E-4 8F.F ....
....|..|--- .... ....|R-- .... ....|--- .... ....
....|..|F#2 2F.A ....|F#4 2FF7 ....|--- .... ....
....|..|R-- .... ....|R-- .... ....|--- .... ....
 E-4|..|E-2 2A.F ....|F#4 4F.7 ....|F#4 7F.7 ....
....|..|R-- .... ....|R-- .... ....|R-- .... ....
....|..|E-2 2F.A ....|--- .... ....|--- .... ....
....|..|--- .... ....|--- .... ....|--- .... ....
 E-4|..|E-2 2A.F ....|B-4 4F.F ....|B-4 7F.F ....
....|..|--- .... ....|--- .... ....|--- .... ....
....|..|E-2 2F.A ....|--- .... ....|--- .... ....
....|..|R-- .... ....|R-- .... ....|R-- .... ....
 E-4|..|E-2 2A.F ....|B-4 4F.F ....|B-4 7F.F ....
....|..|R-- .... ....|--- .... ....|--- .... ....
 E-4|..|E-2 2A.F ....|B-4 4F.A ....|B-4 7F.A ....
....|..|--- .... ....|R-- .... ....|R-- .... ....
....|..|E-2 2F.7 ....|B-4 4F.F ....|B-4 7F.F ....
....|..|R-- .... ....|R-- .... ....|R-- .... ....
 E-4|..|E-2 2A.F ....|B-4 4F.A ....|B-4 7F.A ....
....|..|R-- .... ....|R-- .... ....|R-- .... ....
 E-4|..|E-2 2A.F ....|B-4 4F.F ....|B-4 7F.F ....
....|..|--- .... ....|R-- .... ....|R-- .... ....
....|..|R-- .... ....|B-4 4F.A ....|B-4 7F.A ....
....|..|R-- .... ....|R-- .... ....|R-- .... ....
 F#4|..|F#2 2A.F ....|B-4 4F.F ....|B-4 7F.F ....
....|..|R-- .... ....|R-- .... ....|R-- .... ....
....|..|E-2 2F.7 ....|B-4 4F.A ....|B-4 7F.A ....
....|..|--- .... ....|R-- .... ....|R-- .... ....
 G-4|..|G-2 2A.F ....|G-4 4F.F ....|G-4 7F.F ....
....|..|R-- .... ....|R-- .... ....|R-- .... ....
....|..|E-2 2F.7 ....|B-4 4F.A ....|B-4 7F.A ....
....|..|R-- .... ....|R-- .... ....|R-- .... ....
 A-3|..|A-2 2C.F ....|B-4 4F.7 ....|G-4 8F.F ....
....|..|--- .... ....|R-- .... ....|R-- .... ....
....|..|G-2 2F.A ....|G-4 4F.A ....|G-4 7F.A ....
....|..|R-- .... ....|R-- .... ....|R-- .... ....
 A-3|..|A-2 2C.F ....|B-4 4F.F ....|B-4 7F.F ....
....|..|R-- .... ....|--- .... ....|--- .... ....
....|..|A-2 2F.A ....|C-4 2F2F ....|R-- .... ....
....|..|--- .... ....|R-- .... ....|R-- .... ....
 A-3|..|A-2 2C.F ....|B-4 4F.F ....|B-4 7F.F ....
....|..|--- .... ....|--- .... ....|--- .... ....
....|..|A-2 2F.A ....|B-4 4F.A ....|B-4 7F.A ....
....|..|R-- .... ....|--- .... ....|--- .... ....
 A-3|..|A-2 2C.F ....|C-4 2F2A ....|G-4 8F.A ....
....|..|--- .... ....|E-4 2F1F ....|--- .... ....
 A-3|..|A-2 2C.F ....|A-4 2F4F ....|B-4 7F.A ....
....|..|--- .... ....|R-- .... ....|R-- .... ....
....|..|A-2 2F.7 ....|G-4 4F.F ....|G-4 7F.F ....
....|..|--- .... ....|--- .... ....|--- .... ....
 A-3|..|A-2 2C.F ....|C-4 2F27 ....|R-- .... ....
....|..|--- .... ....|E-4 2F1A ....|--- .... ....
 A-3|..|A-2 2C.F ....|G-4 4F.F ....|G-4 7F.F ....
....|..|--- .... ....|R-- .... ....|R-- .... ....
....|..|R-- .... ....|E-4 2FDF ....|G-4 7F.A ....
....|..|R-- .... ....|R-- .... ....|R-- .... ....
 G-4|..|G-2 2A.F ....|E-4 4F.F ....|E-4 7F.F ....
....|..|--- .... ....|E-4 2F17 ....|--- .... ....
....|..|A-2 2F.7 ....|G-4 4F.A ....|G-4 7F.A ....
....|..|--- .... ....|R-- .... ....|R-- .... ....
 E-4|..|E-2 2A.F ....|G-4 4F.7 ....|G-4 7F.7 ....
....|..|R-- .... ....|R-- .... ....|R-- .... ....
....|..|A-2 2F.7 ....|E-4 4F.A ....|E-4 7F.A ....
....|..|R-- .... ....|R-- .... ....|R-- .... ....

[Pattern15]
 C-4|..|C-2 2A.F ....|G-4 4F.7 ....|C-4 8F.F ....
....|..|--- .... ....|R-- .... ....|--- .... ....
....|..|E-2 2F.A ....|E-4 2FD7 ....|--- .... ....
....|..|R-- .... ....|R-- .... ....|R-- .... ....
 C-4|..|C-2 2A.F ....|B-4 4F.F ....|B-4 7F.F ....
....|..|R-- .... ....|R-- .... ....|R-- .... ....
....|..|C-2 2F.A ....|R-- .... ....|R-- .... ....
....|..|--- .... ....|--- .... ....|--- .... ....
 C-4|..|C-2 2A.F ....|B-4 4F.F ....|B-4 7F.F ....
....|..|--- .... ....|--- .... ....|--- .... ....
....|..|C-2 2F.A ....|B-4 4F.A ....|B-4 7F.A ....
....|..|R-- .... ....|R-- .... ....|R-- .... ....
 C-4|..|C-2 2A.F ....|R-- .... ....|C-4 8F.A ....
....|..|R-- .... ....|--- .... ....|--- .... ....
 C-4|..|C-2 2A.F ....|B-4 4F.A ....|B-4 7F.A ....
....|..|--- .... ....|--- .... ....|--- .... ....
....|..|C-2 2F.7 ....|B-4 4F.F ....|B-4 7F.F ....
....|..|R-- .... ....|--- .... ....|--- .... ....
 C-4|..|C-2 2A.F ....|R-- .... ....|R-- .... ....
....|..|R-- .... ....|R-- .... ....|R-- .... ....
 C-4|..|C-2 2A.F ....|B-4 4F.F ....|B-4 7F.F ....
....|..|--- .... ....|--- .... ....|--- .... ....
....|..|R-- .... ....|B-4 4F.A ....|B-4 7F.A ....
....|..|R-- .... ....|R-- .... ....|R-- .... ....
 E-4|..|E-2 2A.F ....|B-4 4F.F ....|B-4 7F.F ....
....|..|R-- .... ....|R-- .... ....|R-- .... ....
....|..|C-2 2F.7 ....|B-4 4F.A ....|B-4 7F.A ....
....|..|--- .... ....|R-- .... ....|R-- .... ....
 G-4|..|G-2 2A.F ....|B-4 4F.F ....|B-4 7F.F ....
....|..|R-- .... ....|R-- .... ....|R-- .... ....
....|..|C-2 2F.7 ....|B-4 4F.A ....|B-4 7F.A ....
....|..|R-- .... ....|R-- .... ....|R-- .... ....
 B-3|..|B-1 2A.F ....|B-4 4F.7 ....|B-3 8F.F ....
....|..|--- .... ....|R-- .... ....|R-- .... ....
....|..|G-2 2F.A ....|B-4 4F.A ....|B-4 7F.A ....
....|..|R-- .... ....|R-- .... ....|R-- .... ....
 B-3|..|B-1 2A.F ....|B-4 4F.F ....|B-4 7F.F ....
....|..|R-- .... ....|R-- .... ....|R-- .... ....
....|..|B-1 2F.A ....|D#4 2F7F ....|R-- .... ....
....|..|--- .... ....|R-- .... ....|R-- .... ....
 B-3|..|B-1 2A.F ....|B-4 4F.F ....|B-4 7F.F ....
....|..|--- .... ....|--- .... ....|--- .... ....
....|..|B-1 2F.A ....|B-4 4F.A ....|B-4 7F.A ....
....|..|R-- .... ....|R-- .... ....|R-- .... ....
 B-3|..|B-1 2A.F ....|D#4 2F7A ....|B-3 8F.A ....
....|..|--- .... ....|R-- .... ....|--- .... ....
 B-3|..|B-1 2A.F ....|B-4 2F2F ....|B-4 7F.A ....
....|..|--- .... ....|R-- .... ....|--- .... ....
....|..|B-1 2F.7 ....|B-4 4F.F ....|B-4 7F.F ....
....|..|--- .... ....|--- .... ....|--- .... ....
 B-3|..|B-1 2A.F ....|D#4 2F77 ....|R-- .... ....
....|..|--- .... ....|R-- .... ....|R-- .... ....
 B-3|..|B-1 2A.F ....|B-4 4F.F ....|B-4 7F.F ....
....|..|--- .... ....|F#5 2F.F ....|--- .... ....
....|..|R-- .... ....|F#4 2FFF ....|B-4 7F.A ....
....|..|R-- .... ....|R-- .... ....|R-- .... ....
 D#4|..|D#2 2A.F ....|F#4 4F.F ....|F#4 7F.F ....
....|..|--- .... ....|R-- .... ....|R-- .... ....
....|..|B-1 2F.7 ....|B-4 4F.A ....|B-4 7F.A ....
....|..|--- .... ....|F#5 2F.A ....|--- .... ....
 F#4|..|F#2 2A.F ....|B-4 4F.7 ....|B-4 7F.7 ....
....|..|R-- .... ....|B-4 2F.F ....|R-- .... ....
....|..|B-1 2F.7 ....|A-4 2F4F ....|F#4 7F.A ....
....|..|R-- .... ....|R-- .... ....|R-- .... ....

[Pattern16]
 C-4|..|C-2 2A.F ....|A-4 2F4F ....|C-4 8F.F ....
....|..|--- .... ....|F#5 2F.7 ....|--- .... ....
....|..|F#2 2F.A ....|F#4 2FF7 ....|--- .... ....
....|..|R-- .... ....|B-4 2F.A ....|R-- .... ....
 C-4|..|C-2 2A.F ....|C-5 4F.F ....|C-5 7F.F ....
....|..|R-- .... ....|R-- .... ....|--- .... ....
....|..|C-2 2F.A ....|A-4 2F4A ....|R-- .... ....
....|..|--- .... ....|--- .... ....|--- .... ....
 C-4|..|C-2 2A.F ....|C-5 4F.F ....|C-5 7F.F ....
....|..|--- .... ....|B-4 2F.7 ....|--- .... ....
....|..|C-2 2F.A ....|C-5 4F.A ....|C-5 7F.A ....
....|..|R-- .... ....|R-- .... ....|--- .... ....
 C-4|..|C-2 2A.F ....|C-5 4F.F ....|C-5 7F.F ....
....|..|R-- .... ....|--- .... ....|--- .... ....
 C-4|..|C-2 2A.F ....|C-5 4F.A ....|C-5 7F.A ....
....|..|--- .... ....|C-4 2F3F ....|--- .... ....
....|..|C-2 2F.7 ....|C-5 4F.F ....|C-5 7F.F ....
....|..|R-- .... ....|--- .... ....|--- .... ....
 C-4|..|C-2 2A.F ....|C-5 4F.A ....|C-5 7F.A ....
....|..|R-- .... ....|R-- .... ....|R-- .... ....
 C-4|..|C-2 2A.F ....|C-5 4F.F ....|C-5 7F.F ....
....|..|--- .... ....|C-4 2F3A ....|--- .... ....
....|..|R-- .... ....|C-5 4F.A ....|C-5 7F.A ....
....|..|R-- .... ....|R-- .... ....|R-- .... ....
 E-4|..|E-2 2A.F ....|C-5 4F.F ....|C-5 7F.F ....
....|..|R-- .... ....|R-- .... ....|R-- .... ....
....|..|C-2 2F.7 ....|C-5 4F.A ....|C-5 7F.A ....
....|..|--- .... ....|C-4 2F37 ....|R-- .... ....
 G-4|..|G-2 2A.F ....|A-4 4F.F ....|A-4 7F.F ....
....|..|R-- .... ....|R-- .... ....|R-- .... ....
....|..|C-2 2F.7 ....|C-5 4F.A ....|C-5 7F.A ....
....|..|R-- .... ....|R-- .... ....|R-- .... ....
 B-4|..|B-2 2A.F ....|C-5 4F.7 ....|B-3 8F.F ....
....|..|--- .... ....|R-- .... ....|R-- .... ....
....|..|G-2 2F.A ....|A-4 4F.A ....|E-4 2F.F ....
....|..|R-- .... ....|R-- .... ....|R-- .... ....
 B-4|..|B-2 2A.F ....|B-4 4F.F ....|B-4 7F.F ....
....|..|R-- .... ....|R-- .... ....|R-- .... ....
....|..|B-2 2F.A ....|D#4 2F7F ....|D#4 2F.F ....
....|..|--- .... ....|R-- .... ....|R-- .... ....
 A-3|..|A-2 2C.F ....|B-4 4F.F ....|B-4 7F.F ....
....|..|--- .... ....|--- .... ....|--- .... ....
....|..|B-2 2F.A ....|B-4 4F.A ....|G-4 2F.F ....
....|..|R-- .... ....|R-- .... ....|R-- .... ....
 A-3|..|A-2 2C.F ....|B-4 4F.F ....|B-4 7F.F ....
....|..|--- .... ....|R-- .... ....|--- .... ....
 F#4|..|F#2 2A.F ....|B-4 2F2F ....|F#4 2F.F ....
....|..|--- .... ....|R-- .... ....|--- .... ....
....|..|B-2 2F.7 ....|B-4 4F.F ....|B-4 7F.F ....
....|..|--- .... ....|--- .... ....|--- .... ....
 F#4|..|F#2 2A.F ....|B-4 4F.A ....|B-4 2F.F ....
....|..|--- .... ....|R-- .... ....|--- .... ....
 F#4|..|F#2 2A.F ....|B-4 4F.F ....|B-4 7F.F ....
....|..|--- .... ....|F#5 2F.F ....|--- .... ....
....|..|R-- .... ....|F#4 2FFF ....|A-4 2F.F ....
....|..|R-- .... ....|R-- .... ....|--- .... ....
 D#4|..|D#2 2A.F ....|F#4 4F.F ....|F#4 7F.F ....
....|..|--- .... ....|R-- .... ....|--- .... ....
....|..|F#2 2F.7 ....|B-4 4F.A ....|C-5 2F.F ....
....|..|--- .... ....|F#5 2F.A ....|--- .... ....
 B-3|..|B-1 2A.F ....|B-4 4F.7 ....|D#5 2F.F ....
....|..|R-- .... ....|R-- .... ....|--- .... ....
....|..|F#2 2F.7 ....|F#4 4F.A ....|B-4 2F.F ....
....|..|R-- .... ....|B-4 2F.F ....|R-- .... ....

[Pattern17]
 B-3|..|B-1 2A.F ....|R-- .... ....|D#5 2F.F ....
....|..|--- .... ....|F#5 2F.7 ....|--- .... ....
....|..|B-1 2F.A ....|F#4 2FF7 ....|E-5 2F.F ....
....|..|R-- .... ....|R-- .... ....|--- .... ....
 B-3|..|B-1 2A.F ....|B-4 4F.F ....|B-4 7F.F ....
....|..|R-- .... ....|B-4 2F.A ....|R-- .... ....
....|..|B-1 2F.A ....|D#4 2F7F ....|D#5 2F.F ....
....|..|--- .... ....|R-- .... ....|R-- .... ....
 D#4|..|D#2 2A.F ....|B-4 4F.F ....|B-4 7F.F ....
....|..|--- .... ....|--- .... ....|--- .... ....
....|..|B-1 2F.A ....|B-4 4F.A ....|G-5 2F.F ....
....|..|R-- .... ....|B-4 2F.7 ....|R-- .... ....
 D#4|..|D#2 2A.F ....|B-4 4F.F ....|B-4 7F.F ....
....|..|--- .... ....|R-- .... ....|R-- .... ....
 F#4|..|F#2 2A.F ....|B-4 2F2F ....|F#5 2F.F ....
....|..|--- .... ....|R-- .... ....|--- .... ....
....|..|B-1 2F.7 ....|B-4 4F.F ....|B-4 7F.F ....
....|..|--- .... ....|--- .... ....|--- .... ....
 F#4|..|F#2 2A.F ....|B-4 4F.A ....|B-5 2F.F ....
....|..|--- .... ....|R-- .... ....|R-- .... ....
 A-3|..|A-2 2C.F ....|B-4 4F.F ....|B-4 7F.F ....
....|..|--- .... ....|F#5 2F.F ....|--- .... ....
....|..|R-- .... ....|F#4 2FFF ....|A-5 2F.F ....
....|..|R-- .... ....|R-- .... ....|--- .... ....
 B-4|..|B-2 2A.F ....|D#5 4F.F ....|D#5 7F.F ....
....|..|--- .... ....|R-- .... ....|R-- .... ....
....|..|F#2 2F.7 ....|B-4 4F.A ....|C-6 2F.F ....
....|..|--- .... ....|F#5 2F.A ....|--- .... ....
 A-3|..|A-2 2C.F ....|B-4 4F.7 ....|D#6 2F.F ....
....|..|R-- .... ....|R-- .... ....|--- .... ....
....|..|F#2 2F.7 ....|D#5 4F.A ....|B-5 2F.F ....
....|..|R-- .... ....|B-4 2F.F ....|R-- .... ....
 E-4|..|E-2 2A.F ....|B-6 3F.F ....|B-4 7F.F ....
....|..|--- .... ....|F#5 2F.7 ....|--- .... ....
....|..|A-2 2F.A ....|F#4 2FF7 ....|A-5 2F.7 ....
....|..|R-- .... ....|R-- .... ....|--- .... ....
 E-4|..|E-2 2A.F ....|B-6 3F.F ....|D#5 7F.7 ....
....|..|R-- .... ....|B-5 3F.F ....|--- .... ....
....|..|E-2 2F.A ....|B-6 3F.A ....|B-4 7F.A ....
....|..|--- .... ....|--- .... ....|--- .... ....
 E-4|..|E-2 2A.F ....|E-5 3F1F ....|E-5 8F.F ....
....|..|--- .... ....|--- .... ....|--- .... ....
....|..|E-2 2F.A ....|B-6 3F.A ....|B-5 2F.7 ....
....|..|R-- .... ....|B-5 3F.A ....|--- .... ....
 E-4|..|E-2 2A.F ....|G-6 3F.F ....|E-5 8F.A ....
....|..|R-- .... ....|B-5 3F.F ....|--- .... ....
 E-4|..|E-2 2A.F ....|E-5 3F1A ....|R-- .... ....
....|..|--- .... ....|--- .... ....|--- .... ....
....|..|E-2 2F.7 ....|B-6 3F.F ....|--- .... ....
....|..|R-- .... ....|B-5 3F.7 ....|--- .... ....
 E-4|..|E-2 2A.F ....|G-6 3F.A ....|--- .... ....
....|..|R-- .... ....|B-5 3F.A ....|--- .... ....
 E-4|..|E-2 2A.F ....|B-6 3F.F ....|C-5 7F.F ....
....|..|--- .... ....|B-5 3F.F ....|--- .... ....
....|..|R-- .... ....|B-6 3F.A ....|--- .... ....
....|..|R-- .... ....|--- .... ....|--- .... ....
 F#4|..|F#2 2A.F ....|E-5 3F1F ....|E-5 8F.F ....
....|..|R-- .... ....|B-5 3F.7 ....|--- .... ....
....|..|E-2 2F.7 ....|B-6 3F.A ....|F#5 8F.F ....
....|..|--- .... ....|B-5 3F.A ....|--- .... ....
 G-4|..|G-2 2A.F ....|G-6 3F.F ....|B-4 7F.F ....
....|..|R-- .... ....|B-5 3F.F ....|--- .... ....
....|..|E-2 2F.7 ....|E-5 3F1A ....|F#5 8F.F ....
....|..|R-- .... ....|R-- .... ....|--- .... ....

[Pattern18]
 D#4|..|D#2 2A.F ....|B-6 3F.F ....|B-4 7F.F ....
....|..|--- .... ....|B-5 3F.7 ....|--- .... ....
....|..|G-2 2F.A ....|G-6 3F.A ....|B-4 7F.A ....
....|..|R-- .... ....|B-5 3F.A ....|--- .... ....
 D#4|..|D#2 2A.F ....|B-6 3F.F ....|E-5 8F.A ....
....|..|R-- .... ....|B-5 3F.F ....|R-- .... ....
....|..|D#2 2F.A ....|B-6 3F.A ....|B-4 7F.A ....
....|..|--- .... ....|--- .... ....|--- .... ....
 D#4|..|D#2 2A.F ....|D#5 3F1F ....|D#5 8F.F ....
....|..|--- .... ....|B-5 3F.7 ....|--- .... ....
....|..|D#2 2F.A ....|B-6 3F.A ....|F#5 8F.A ....
....|..|R-- .... ....|B-5 3F.A ....|--- .... ....
 D#4|..|D#2 2A.F ....|B-4 3F2F ....|D#5 8F.A ....
....|..|R-- .... ....|B-5 3F.F ....|--- .... ....
 D#4|..|D#2 2A.F ....|D#5 3F1A ....|--- .... ....
....|..|--- .... ....|R-- .... ....|--- .... ....
....|..|D#2 2F.7 ....|B-6 3F.F ....|E-5 8F.7 ....
....|..|R-- .... ....|B-5 3F.7 ....|R-- .... ....
 D#4|..|D#2 2A.F ....|B-4 3F2A ....|F#5 8F.7 ....
....|..|R-- .... ....|B-5 3F.A ....|--- .... ....
 D#4|..|D#2 2A.F ....|B-6 3F.F ....|C-5 7F.F ....
....|..|--- .... ....|R-- .... ....|--- .... ....
....|..|R-- .... ....|B-5 3F.F ....|F#5 8F.7 ....
....|..|R-- .... ....|--- .... ....|--- .... ....
 F#4|..|F#2 2A.F ....|D#5 3F1F ....|E-5 8F.F ....
....|..|R-- .... ....|B-5 3F.7 ....|--- .... ....
....|..|D#2 2F.7 ....|B-6 3F.A ....|F#5 8F.F ....
....|..|--- .... ....|R-- .... ....|--- .... ....
 A-3|..|A-2 2C.F ....|B-5 3F.F ....|B-4 7F.F ....
....|..|R-- .... ....|--- .... ....|R-- .... ....
....|..|D#2 2F.7 ....|D#5 3F1A ....|F#5 8F.F ....
....|..|R-- .... ....|R-- .... ....|--- .... ....
 D-4|..|D-2 2A.F ....|B-6 3F.F ....|B-4 7F.F ....
....|..|--- .... ....|--- .... ....|--- .... ....
....|..|A-2 2F.A ....|B-4 4F.A ....|B-4 7F.A ....
....|..|R-- .... ....|--- .... ....|--- .... ....
 D-4|..|D-2 2A.F ....|B-6 3F.F ....|E-5 8F.A ....
....|..|R-- .... ....|B-5 3F.F ....|R-- .... ....
....|..|D-2 2F.A ....|B-6 3F.A ....|B-4 7F.A ....
....|..|--- .... ....|--- .... ....|--- .... ....
 D-4|..|D-2 2A.F ....|D-5 3F3F ....|D-5 8F.F ....
....|..|--- .... ....|--- .... ....|--- .... ....
....|..|D-2 2F.A ....|B-6 3F.A ....|F#5 8F.A ....
....|..|R-- .... ....|B-5 3F.A ....|--- .... ....
 D-4|..|D-2 2A.F ....|B-4 3F4F ....|D-5 8F.A ....
....|..|R-- .... ....|B-5 3F.F ....|--- .... ....
 D-4|..|D-2 2A.F ....|D-5 3F3A ....|--- .... ....
....|..|--- .... ....|--- .... ....|--- .... ....
....|..|D-2 2F.7 ....|B-6 3F.F ....|E-5 8F.7 ....
....|..|R-- .... ....|B-5 3F.7 ....|R-- .... ....
 D-4|..|D-2 2A.F ....|B-4 3F4A ....|F#5 8F.7 ....
....|..|R-- .... ....|B-5 3F.A ....|--- .... ....
 D-4|..|D-2 2A.F ....|B-6 3F.F ....|C-5 7F.F ....
....|..|--- .... ....|B-5 3F.F ....|--- .... ....
....|..|R-- .... ....|B-6 3F.A ....|F#5 8F.7 ....
....|..|R-- .... ....|--- .... ....|--- .... ....
 F#4|..|F#2 2A.F ....|D-5 3F3F ....|E-5 8F.F ....
....|..|R-- .... ....|B-5 3F.7 ....|--- .... ....
....|..|D-2 2F.7 ....|B-6 3F.A ....|F#5 8F.F ....
....|..|--- .... ....|B-5 3F.A ....|--- .... ....
 A-3|..|A-2 2C.F ....|B-4 3F4F ....|B-4 7F.F ....
....|..|R-- .... ....|B-5 3F.F ....|R-- .... ....
....|..|D-2 2F.7 ....|D-5 3F3A ....|F#5 8F.F ....
....|..|R-- .... ....|--- .... ....|--- .... ....

[Pattern19]
 C#4|..|C#2 2A.F ....|A-6 3F.F ....|B-4 7F.F ....
....|..|--- .... ....|B-5 3F.7 ....|--- .... ....
....|..|A-2 2F.A ....|B-4 3F4A ....|B-4 7F.A ....
....|..|R-- .... ....|B-5 3F.A ....|--- .... ....
 C#4|..|C#2 2A.F ....|A-5 3F.F ....|E-5 8F.A ....
....|..|R-- .... ....|--- .... ....|R-- .... ....
....|..|C#2 2F.A ....|A-6 3F.A ....|B-4 7F.A ....
....|..|--- .... ....|--- .... ....|--- .... ....
 C#4|..|C#2 2A.F ....|C#5 3F1F ....|C#5 8F.F ....
....|..|--- .... ....|B-5 3F.7 ....|--- .... ....
....|..|C#2 2F.A ....|A-5 3F.A ....|F#5 8F.A ....
....|..|R-- .... ....|--- .... ....|--- .... ....
 C#4|..|C#2 2A.F ....|A-4 3F2F ....|C#5 8F.A ....
....|..|--- .... ....|A-5 3F.F ....|--- .... ....
 C#4|..|C#2 2A.F ....|C#5 3F1A ....|--- .... ....
....|..|--- .... ....|--- .... ....|--- .... ....
....|..|C#2 2F.7 ....|A-6 3F.F ....|A-4 7F.F ....
....|..|--- .... ....|--- .... ....|R-- .... ....
 C#4|..|C#2 2A.F ....|A-4 3F2A ....|F#5 8F.7 ....
....|..|--- .... ....|A-5 3F.A ....|--- .... ....
 C#4|..|C#2 2A.F ....|A-6 3F.F ....|G-5 8F.7 ....
....|..|--- .... ....|A-5 3F.F ....|--- .... ....
....|..|R-- .... ....|A-6 3F.A ....|A-4 7F.A ....
....|..|R-- .... ....|--- .... ....|--- .... ....
 F#4|..|F#2 2A.F ....|C#5 3F1F ....|E-5 8F.F ....
....|..|--- .... ....|A-5 3F.7 ....|--- .... ....
....|..|C#2 2F.7 ....|A-6 3F.A ....|F#5 8F.F ....
....|..|--- .... ....|A-5 3F.A ....|--- .... ....
 A-3|..|A-2 2C.F ....|E-6 3F.F ....|G-5 8F.F ....
....|..|R-- .... ....|A-5 3F.F ....|R-- .... ....
....|..|C#2 2F.7 ....|C#5 3F1A ....|F#5 8F.F ....
....|..|R-- .... ....|R-- .... ....|R-- .... ....
 C-4|..|C-2 2A.F ....|A-6 3F.F ....|A-4 7F.F ....
....|..|--- .... ....|A-5 3F.7 ....|--- .... ....
....|..|A-2 2F.A ....|E-6 3F.A ....|--- .... ....
....|..|R-- .... ....|A-5 3F.A ....|--- .... ....
 C-4|..|C-2 2A.F ....|A-6 3F.F ....|E-5 8F.A ....
....|..|R-- .... ....|A-5 3F.F ....|R-- .... ....
....|..|C-2 2F.A ....|A-6 3F.A ....|A-4 7F.A ....
....|..|--- .... ....|--- .... ....|--- .... ....
 C-4|..|C-2 2A.F ....|C-5 3F3F ....|C-5 8F.F ....
....|..|--- .... ....|A-5 3F.7 ....|--- .... ....
....|..|C-2 2F.A ....|A-6 3F.A ....|F#5 8F.A ....
....|..|R-- .... ....|A-5 3F.A ....|R-- .... ....
 C-4|..|C-2 2A.F ....|A-4 3F4F ....|C-5 8F.A ....
....|..|R-- .... ....|A-5 3F.F ....|--- .... ....
 C-4|..|C-2 2A.F ....|C-5 3F3A ....|--- .... ....
....|..|--- .... ....|R-- .... ....|R-- .... ....
....|..|C-2 2F.7 ....|A-6 3F.F ....|E-5 8F.7 ....
....|..|R-- .... ....|A-5 3F.7 ....|--- .... ....
 C-4|..|C-2 2A.F ....|A-4 3F4A ....|F#5 8F.7 ....
....|..|R-- .... ....|A-5 3F.A ....|--- .... ....
 C-4|..|C-2 2A.F ....|A-6 3F.F ....|B-4 7F.F ....
....|..|--- .... ....|A-5 3F.F ....|--- .... ....
....|..|R-- .... ....|A-6 3F.A ....|F#5 8F.7 ....
....|..|R-- .... ....|--- .... ....|--- .... ....
 F#4|..|F#2 2A.F ....|C-5 3F3F ....|E-5 8F.F ....
....|..|R-- .... ....|A-5 3F.7 ....|--- .... ....
....|..|C-2 2F.7 ....|A-6 3F.A ....|F#5 8F.F ....
....|..|--- .... ....|A-5 3F.A ....|R-- .... ....
 A-3|..|A-2 2C.F ....|A-5 3F.F ....|A-4 7F.F ....
....|..|R-- .... ....|--- .... ....|--- .... ....
....|..|C-2 2F.7 ....|C-5 3F3A ....|F#5 8F.F ....
....|..|R-- .... ....|--- .... ....|--- .... ....

[Pattern20]
 B-3|..|B-1 2A.F ....|G-6 3F.F ....|A-4 7F.F ....
....|..|--- .... ....|A-5 3F.7 ....|--- .... ....
....|..|A-2 2F.A ....|A-5 3F.A ....|A-4 7F.A ....
....|..|R-- .... ....|--- .... ....|--- .... ....
 B-3|..|B-1 2A.F ....|G-6 3F.F ....|E-5 8F.A ....
....|..|R-- .... ....|G-5 3F.F ....|--- .... ....
....|..|B-1 2F.A ....|G-6 3F.A ....|A-4 7F.A ....
....|..|--- .... ....|--- .... ....|R-- .... ....
 B-3|..|B-1 2A.F ....|B-4 3F5F ....|B-4 8F.F ....
....|..|--- .... ....|--- .... ....|--- .... ....
....|..|B-1 2F.A ....|G-6 3F.A ....|F#5 8F.A ....
....|..|R-- .... ....|G-5 3F.A ....|--- .... ....
 B-3|..|B-1 2A.F ....|G-4 3F6F ....|B-4 8F.A ....
....|..|--- .... ....|G-5 3F.F ....|--- .... ....
 B-3|..|B-1 2A.F ....|B-4 3F5A ....|--- .... ....
....|..|--- .... ....|--- .... ....|R-- .... ....
....|..|B-1 2F.7 ....|G-6 3F.F ....|G-4 7F.F ....
....|..|--- .... ....|G-5 3F.7 ....|--- .... ....
 B-3|..|B-1 2A.F ....|G-4 3F6A ....|F#5 8F.7 ....
....|..|--- .... ....|G-5 3F.A ....|--- .... ....
 B-3|..|B-1 2A.F ....|G-6 3F.F ....|G-5 8F.7 ....
....|..|--- .... ....|G-5 3F.F ....|--- .... ....
....|..|R-- .... ....|G-6 3F.A ....|G-4 7F.A ....
....|..|R-- .... ....|--- .... ....|--- .... ....
 F#4|..|F#2 2A.F ....|B-4 3F5F ....|E-5 8F.F ....
....|..|--- .... ....|G-5 3F.7 ....|--- .... ....
....|..|B-1 2F.7 ....|G-6 3F.A ....|F#5 8F.F ....
....|..|--- .... ....|G-5 3F.A ....|R-- .... ....
 G-4|..|G-2 2A.F ....|G-4 3F6F ....|G-5 8F.F ....
....|..|R-- .... ....|G-5 3F.F ....|--- .... ....
....|..|B-1 2F.7 ....|B-4 3F5A ....|F#5 8F.F ....
....|..|R-- .... ....|R-- .... ....|R-- .... ....
 A-3|..|A-2 2C.F ....|G-6 3F.F ....|G-4 7F.F ....
....|..|--- .... ....|G-5 3F.7 ....|--- .... ....
....|..|G-2 2F.A ....|G-4 3F6A ....|--- .... ....
....|..|R-- .... ....|G-5 3F.A ....|--- .... ....
 A-3|..|A-2 2C.F ....|G-6 3F.F ....|E-5 8F.A ....
....|..|R-- .... ....|A-5 3F.F ....|R-- .... ....
....|..|A-2 2F.A ....|G-6 3F.A ....|G-4 7F.A ....
....|..|--- .... ....|--- .... ....|R-- .... ....
 A-3|..|A-2 2C.F ....|C-5 3F3F ....|C-5 8F.F ....
....|..|--- .... ....|G-5 3F.7 ....|--- .... ....
....|..|A-2 2F.A ....|G-6 3F.A ....|F#5 8F.A ....
....|..|R-- .... ....|A-5 3F.A ....|R-- .... ....
 A-3|..|A-2 2C.F ....|A-4 3F4F ....|C-5 8F.A ....
....|..|--- .... ....|A-5 3F.F ....|--- .... ....
 A-3|..|A-2 2C.F ....|C-5 3F3A ....|--- .... ....
....|..|--- .... ....|--- .... ....|R-- .... ....
....|..|A-2 2F.7 ....|G-6 3F.F ....|E-5 8F.7 ....
....|..|--- .... ....|A-5 3F.7 ....|R-- .... ....
 A-3|..|A-2 2C.F ....|A-4 3F4A ....|F#5 8F.7 ....
....|..|--- .... ....|A-5 3F.A ....|--- .... ....
 A-3|..|A-2 2C.F ....|G-6 3F.F ....|A-4 7F.F ....
....|..|--- .... ....|A-5 3F.F ....|--- .... ....
....|..|R-- .... ....|G-6 3F.A ....|F#5 8F.7 ....
....|..|R-- .... ....|--- .... ....|--- .... ....
 A-3|..|A-2 2C.F ....|C-5 3F3F ....|E-5 8F.F ....
....|..|--- .... ....|A-5 3F.7 ....|--- .... ....
....|..|A-2 2F.7 ....|G-6 3F.A ....|F#5 8F.F ....
....|..|--- .... ....|E-6 3F.F ....|R-- .... ....
 A-3|..|A-2 2C.F ....|A-5 3F.F ....|G-4 7F.F ....
....|..|R-- .... ....|--- .... ....|R-- .... ....
....|..|A-2 2F.7 ....|C-5 3F3A ....|F#5 8F.F ....
....|..|R-- .... ....|--- .... ....|--- .... ....

[Pattern21]
 B-4|..|B-2 2A.F ....|B-4 3F2F ....|F#4 7F.F ....
....|..|--- .... ....|D#5 3F7F ....|--- .... ....
....|..|A-2 2F.A ....|A-5 3F.A ....|G-4 7F.A ....
....|..|R-- .... ....|--- .... ....|--- .... ....
 B-4|..|B-2 2A.F ....|C-5 3F37 ....|E-5 8F.A ....
....|..|R-- .... ....|--- .... ....|R-- .... ....
....|..|B-2 2F.A ....|B-4 3F2A ....|F#4 7F.A ....
....|..|--- .... ....|E-6 3F.7 ....|R-- .... ....
 A-3|..|A-2 2C.F ....|A-5 3F.7 ....|D#5 8F.F ....
....|..|--- .... ....|--- .... ....|--- .... ....
....|..|B-2 2F.A ....|--- .... ....|F#5 8F.A ....
....|..|R-- .... ....|--- .... ....|--- .... ....
 A-3|..|A-2 2C.F ....|B-4 3F27 ....|D#5 8F.A ....
....|..|--- .... ....|D#5 3F77 ....|--- .... ....
 F#4|..|F#2 2A.F ....|--- .... ....|--- .... ....
....|..|--- .... ....|--- .... ....|R-- .... ....
....|..|B-2 2F.7 ....|--- .... ....|E-5 8F.7 ....
....|..|--- .... ....|--- .... ....|R-- .... ....
 F#4|..|F#2 2A.F ....|--- .... ....|F#5 8F.7 ....
....|..|--- .... ....|--- .... ....|--- .... ....
 F#4|..|F#2 2A.F ....|--- .... ....|G-5 8F.7 ....
....|..|--- .... ....|--- .... ....|--- .... ....
....|..|R-- .... ....|--- .... ....|F#5 8F.7 ....
....|..|R-- .... ....|--- .... ....|--- .... ....
 D#4|..|D#2 2A.F ....|R-- .... ....|E-5 8F.F ....
....|..|--- .... ....|--- .... ....|--- .... ....
....|..|F#2 2F.7 ....|--- .... ....|F#5 8F.F ....
....|..|--- .... ....|--- .... ....|R-- .... ....
 D#4|..|D#2 2A.F ....|--- .... ....|G-5 8F.F ....
....|..|R-- .... ....|--- .... ....|R-- .... ....
....|..|F#2 2F.7 ....|R-- .... ....|F#5 8F.F ....
....|..|R-- .... ....|--- .... ....|--- .... ....
 E-4|..|E-2 2A.F ....|B-6 3F.F ....|B-4 7F.F ....
....|..|--- .... ....|--- .... ....|--- .... ....
....|..|D#2 2F.A ....|--- .... ....|--- .... ....
....|..|R-- .... ....|--- .... ....|--- .... ....
 E-4|..|E-2 2A.F ....|B-6 3F.F ....|E-5 8F.A ....
....|..|R-- .... ....|B-5 3F.F ....|--- .... ....
....|..|E-2 2F.A ....|B-6 3F.A ....|B-4 7F.A ....
....|..|--- .... ....|--- .... ....|R-- .... ....
 E-4|..|E-2 2A.F ....|E-5 3F1F ....|E-5 8F.F ....
....|..|--- .... ....|--- .... ....|--- .... ....
....|..|E-2 2F.A ....|B-6 3F.A ....|F#5 8F.A ....
....|..|R-- .... ....|B-5 3F.A ....|--- .... ....
 E-4|..|E-2 2A.F ....|G-6 3F.F ....|E-5 8F.A ....
....|..|R-- .... ....|B-5 3F.F ....|--- .... ....
 E-4|..|E-2 2A.F ....|E-5 3F1A ....|R-- .... ....
....|..|--- .... ....|--- .... ....|--- .... ....
....|..|E-2 2F.7 ....|B-6 3F.F ....|E-5 8F.7 ....
....|..|R-- .... ....|B-5 3F.7 ....|--- .... ....
 E-4|..|E-2 2A.F ....|G-6 3F.A ....|F#5 8F.7 ....
....|..|R-- .... ....|B-5 3F.A ....|--- .... ....
 E-4|..|E-2 2A.F ....|B-6 3F.F ....|C-5 7F.F ....
....|..|--- .... ....|B-5 3F.F ....|--- .... ....
....|..|R-- .... ....|B-6 3F.A ....|F#5 8F.7 ....
....|..|R-- .... ....|--- .... ....|--- .... ....
 F#4|..|F#2 2A.F ....|E-5 3F1F ....|E-5 8F.F ....
....|..|R-- .... ....|B-5 3F.7 ....|--- .... ....
....|..|E-2 2F.7 ....|B-6 3F.A ....|F#5 8F.F ....
....|..|--- .... ....|B-5 3F.A ....|--- .... ....
 G-4|..|G-2 2A.F ....|G-6 3F.F ....|B-4 7F.F ....
....|..|R-- .... ....|B-5 3F.F ....|--- .... ....
....|..|E-2 2F.7 ....|E-5 3F1A ....|F#5 8F.F ....
....|..|R-- .... ....|R-- .... ....|--- .... ....

[Pattern25]
 B-4|..|B-2 2A.F ....|B-4 3F2F ....|B-4 7F.F ....
....|..|--- .... ....|D#5 3F7F ....|--- .... ....
....|..|A-2 2F.A ....|A-5 3F.A ....|G-4 7F.A ....
....|..|R-- .... ....|--- .... ....|--- .... ....
 B-4|..|B-2 2A.F ....|C-5 3F37 ....|E-5 8F.A ....
....|..|R-- .... ....|--- .... ....|R-- .... ....
....|..|B-2 2F.A ....|B-4 3F2A ....|B-4 7F.A ....
....|..|--- .... ....|E-6 3F.7 ....|R-- .... ....
 A-3|..|A-2 2C.F ....|A-5 3F.7 ....|D#5 8F.F ....
....|..|--- .... ....|--- .... ....|--- .... ....
....|..|B-2 2F.A ....|--- .... ....|F#5 8F.A ....
....|..|R-- .... ....|--- .... ....|--- .... ....
 A-3|..|A-2 2C.F ....|B-4 3F27 ....|D#5 8F.A ....
....|..|--- .... ....|D#5 3F77 ....|--- .... ....
 F#4|..|F#2 2A.F ....|--- .... ....|--- .... ....
....|..|--- .... ....|--- .... ....|R-- .... ....
....|..|B-2 2F.7 ....|--- .... ....|E-5 8F.7 ....
....|..|--- .... ....|--- .... ....|R-- .... ....
 F#4|..|F#2 2A.F ....|--- .... ....|F#5 8F.7 ....
....|..|--- .... ....|--- .... ....|--- .... ....
 F#4|..|F#2 2A.F ....|--- .... ....|G-5 8F.7 ....
....|..|--- .... ....|--- .... ....|--- .... ....
....|..|R-- .... ....|--- .... ....|F#5 8F.7 ....
....|..|R-- .... ....|--- .... ....|--- .... ....
 D#4|..|D#2 2A.F ....|R-- .... ....|E-5 8F.F ....
....|..|--- .... ....|--- .... ....|--- .... ....
....|..|F#2 2F.7 ....|--- .... ....|F#5 8F.F ....
....|..|--- .... ....|--- .... ....|R-- .... ....
 D#4|..|D#2 2A.F ....|--- .... ....|G-5 8F.F ....
....|..|R-- .... ....|--- .... ....|R-- .... ....
....|..|F#2 2F.7 ....|R-- .... ....|F#5 8F.F ....
....|..|R-- .... ....|--- .... ....|--- .... ....
 E-4|..|E-3 2C.F ....|B-3 UF9F ....|E-6 8F.F ....
....|..|--- .... ....|--- .... ....|--- .... ....
....|..|D#2 2F.A ....|--- .... ....|--- .... ....
....|..|R-- .... ....|--- .... ....|--- .... ....
....|..|D#2 2F.7 ....|R-- .... ....|E-5 8F.A ....
....|..|R-- .... ....|--- .... ....|--- .... ....
....|..|E-3 2F.A ....|B-3 UF9A ....|F#5 8F.A ....
....|..|R-- .... ....|--- .... ....|R-- .... ....
 E-4|..|E-3 2C.F ....|--- .... ....|G-5 8F.A ....
....|..|--- .... ....|--- .... ....|--- .... ....
....|..|--- .... ....|--- .... ....|F#5 8F.A ....
 E-4|..|E-2 2A.F ....|--- .... ....|--- .... ....
 E-4|..|E-3 2C.F ....|B-3 UF97 ....|E-6 8F.A ....
....|..|R-- .... ....|--- .... ....|--- .... ....
....|..|E-3 2F.A ....|--- .... ....|--- .... ....
....|..|--- .... ....|--- .... ....|--- .... ....
....|..|--- .... ....|--- .... ....|E-5 8F.7 ....
....|..|E-2 2F.A ....|--- .... ....|--- .... ....
....|..|E-3 2F.A ....|--- .... ....|F#5 8F.7 ....
....|..|R-- .... ....|--- .... ....|--- .... ....
....|..|E-3 2F.7 ....|--- .... ....|G-5 8F.7 ....
....|..|--- .... ....|--- .... ....|--- .... ....
....|..|--- .... ....|--- .... ....|F#5 8F.7 ....
....|..|E-2 2F.7 ....|--- .... ....|--- .... ....
....|..|E-3 2F.7 ....|--- .... ....|E-6 8F.7 ....
....|..|--- .... ....|--- .... ....|--- .... ....
....|..|--- .... ....|--- .... ....|--- .... ....
....|..|--- .... ....|--- .... ....|--- .... ....
....|..|--- .... ....|--- .... ....|R-- .... ....
....|..|--- .... ....|--- .... ....|--- .... ....
 E-4|..|E-2 2A.F ....|--- .... ....|--- .... ....
....|..|R-- .... ....|--- .... ....|--- .... ....

[Pattern26]
 E-4|..|E-3 2C.F ....|--- .... ....|--- .... ....
....|..|--- .... ....|--- .... ....|--- .... ....
....|..|--- .... ....|--- .... ....|--- .... ....
....|..|--- .... ....|--- .... ....|--- .... ....
....|..|E-2 2F.A ....|--- .... ....|--- .... ....
....|..|R-- .... ....|--- .... ....|--- .... ....
....|..|E-3 2F.A ....|--- .... ....|--- .... ....
....|..|R-- .... ....|--- .... ....|--- .... ....
 E-4|..|E-3 2C.F ....|--- .... ....|--- .... ....
....|..|--- .... ....|--- .... ....|--- .... ....
....|..|E-2 2F.7 ....|--- .... ....|--- .... ....
....|..|R-- .... ....|--- .... ....|--- .... ....
 E-4|..|E-3 2C.F ....|--- .... ....|--- .... ....
....|..|R-- .... ....|--- .... ....|--- .... ....
....|..|E-3 2F.A ....|--- .... ....|--- .... ....
....|..|--- .... ....|--- .... ....|--- .... ....
....|..|--- .... ....|--- .... ....|--- .... ....
....|..|--- .... ....|--- .... ....|--- .... ....
....|..|E-3 2F.A ....|--- .... ....|--- .... ....
....|..|R-- .... ....|--- .... ....|--- .... ....
 F#4|..|F#3 2C.F ....|--- .... ....|--- .... ....
....|..|--- .... ....|--- .... ....|--- .... ....
....|..|--- .... ....|--- .... ....|--- .... ....
....|..|--- .... ....|--- .... ....|--- .... ....
 G-4|..|G-3 2C.F ....|--- .... ....|--- .... ....
....|..|--- .... ....|--- .... ....|--- .... ....
....|..|F#3 2F.A ....|--- .... ....|--- .... ....
....|..|--- .... ....|--- .... ....|--- .... ....
 F#4|..|F#3 2C.F ....|--- .... ....|--- .... ....
....|..|--- .... ....|--- .... ....|--- .... ....
....|..|G-3 2F.A ....|--- .... ....|--- .... ....
....|..|R-- .... ....|R-- .... ....|--- .... ....
 E-4|..|E-2 2A.F ....|--- .... ....|E-4 8F.F ....
....|..|--- .... ....|--- .... ....|--- .... ....
....|..|R-- .... ....|--- .... ....|--- .... ....
....|..|--- .... ....|--- .... ....|--- .... ....
 E-4|..|E-2 2A.F ....|--- .... ....|--- .... ....
....|..|R-- .... ....|R-- .... ....|--- .... ....
....|..|E-2 2F.A ....|--- .... ....|--- .... ....
....|..|--- .... ....|--- .... ....|--- .... ....
 E-4|..|E-2 2A.F ....|B-4 4F.F ....|B-4 7F.F ....
....|..|--- .... ....|--- .... ....|--- .... ....
....|..|E-2 2F.A ....|--- .... ....|--- .... ....
....|..|R-- .... ....|R-- .... ....|R-- .... ....
 E-4|..|E-2 2A.F ....|B-4 4F.F ....|B-4 7F.F ....
....|..|R-- .... ....|--- .... ....|--- .... ....
 E-4|..|E-2 2A.F ....|B-4 4F.A ....|B-4 7F.A ....
....|..|--- .... ....|R-- .... ....|R-- .... ....
....|..|E-2 2F.7 ....|B-4 4F.F ....|B-4 7F.F ....
....|..|R-- .... ....|R-- .... ....|R-- .... ....
 E-4|..|E-2 2A.F ....|B-4 4F.A ....|B-4 7F.A ....
....|..|R-- .... ....|R-- .... ....|R-- .... ....
 E-4|..|E-2 2A.F ....|B-4 4F.F ....|B-4 7F.F ....
....|..|--- .... ....|R-- .... ....|R-- .... ....
....|..|R-- .... ....|B-4 4F.A ....|B-4 7F.A ....
....|..|R-- .... ....|R-- .... ....|R-- .... ....
 F#4|..|F#2 2A.F ....|B-4 4F.F ....|B-4 7F.F ....
....|..|R-- .... ....|R-- .... ....|R-- .... ....
....|..|E-2 2F.7 ....|B-4 4F.A ....|B-4 7F.A ....
....|..|--- .... ....|R-- .... ....|R-- .... ....
 G-4|..|G-2 2A.F ....|B-4 4F.F ....|B-4 7F.F ....
....|..|R-- .... ....|R-- .... ....|R-- .... ....
....|..|E-2 2F.7 ....|B-4 4F.A ....|B-4 7F.A ....
....|..|R-- .... ....|R-- .... ....|R-- .... ....

[Pattern27]
 D#4|..|D#2 2A.F ....|B-4 4F.7 ....|D#4 8F.F ....
....|..|--- .... ....|R-- .... ....|R-- .... ....
....|..|G-2 2F.A ....|B-4 4F.A ....|B-4 7F.A ....
....|..|R-- .... ....|R-- .... ....|R-- .... ....
 D#4|..|D#2 2A.F ....|B-4 4F.7 ....|F#4 8F.A ....
....|..|R-- .... ....|--- .... ....|--- .... ....
....|..|D#2 2F.A ....|D#4 2F7F ....|R-- .... ....
....|..|--- .... ....|R-- .... ....|R-- .... ....
 D#4|..|D#2 2A.F ....|B-4 4F.F ....|B-4 7F.F ....
....|..|--- .... ....|--- .... ....|--- .... ....
....|..|D#2 2F.A ....|--- .... ....|--- .... ....
....|..|R-- .... ....|R-- .... ....|R-- .... ....
 D#4|..|D#2 2A.F ....|B-4 4F.F ....|B-4 7F.F ....
....|..|R-- .... ....|R-- .... ....|--- .... ....
 D#4|..|D#2 2A.F ....|B-4 2F2F ....|B-4 7F.A ....
....|..|--- .... ....|R-- .... ....|R-- .... ....
....|..|D#2 2F.7 ....|B-4 4F.F ....|B-4 7F.F ....
....|..|R-- .... ....|R-- .... ....|R-- .... ....
 D#4|..|D#2 2A.F ....|B-4 4F.A ....|B-4 7F.A ....
....|..|R-- .... ....|R-- .... ....|R-- .... ....
 D#4|..|D#2 2A.F ....|B-4 4F.F ....|B-4 7F.F ....
....|..|--- .... ....|R-- .... ....|R-- .... ....
....|..|R-- .... ....|F#4 2FFF ....|B-4 7F.A ....
....|..|R-- .... ....|R-- .... ....|R-- .... ....
 E-4|..|E-2 2A.F ....|B-4 4F.F ....|B-4 7F.F ....
....|..|R-- .... ....|R-- .... ....|R-- .... ....
....|..|D#2 2F.7 ....|B-4 4F.A ....|B-4 7F.A ....
....|..|--- .... ....|R-- .... ....|R-- .... ....
 F#4|..|F#2 2A.F ....|B-4 4F.7 ....|B-4 7F.7 ....
....|..|R-- .... ....|R-- .... ....|R-- .... ....
....|..|D#2 2F.7 ....|B-4 4F.A ....|B-4 7F.A ....
....|..|R-- .... ....|R-- .... ....|R-- .... ....
 E-4|..|E-2 2A.F ....|B-4 4F.7 ....|E-4 8F.F ....
....|..|--- .... ....|R-- .... ....|--- .... ....
....|..|F#2 2F.A ....|F#4 2FF7 ....|--- .... ....
....|..|R-- .... ....|R-- .... ....|R-- .... ....
 E-4|..|E-2 2A.F ....|B-4 4F.F ....|B-4 7F.F ....
....|..|R-- .... ....|R-- .... ....|--- .... ....
....|..|E-2 2F.A ....|R-- .... ....|R-- .... ....
....|..|--- .... ....|--- .... ....|--- .... ....
 E-4|..|E-2 2A.F ....|B-4 4F.F ....|B-4 7F.F ....
....|..|--- .... ....|--- .... ....|--- .... ....
....|..|E-2 2F.A ....|B-4 4F.A ....|B-4 7F.A ....
....|..|R-- .... ....|R-- .... ....|R-- .... ....
 E-4|..|E-2 2A.F ....|B-4 4F.F ....|B-4 7F.F ....
....|..|R-- .... ....|--- .... ....|--- .... ....
 E-4|..|E-2 2A.F ....|B-4 4F.A ....|B-4 7F.A ....
....|..|--- .... ....|R-- .... ....|R-- .... ....
....|..|E-2 2F.7 ....|B-4 4F.F ....|B-4 7F.F ....
....|..|R-- .... ....|R-- .... ....|R-- .... ....
 E-4|..|E-2 2A.F ....|B-4 4F.A ....|B-4 7F.A ....
....|..|R-- .... ....|R-- .... ....|R-- .... ....
 E-4|..|E-2 2A.F ....|B-4 4F.F ....|B-4 7F.F ....
....|..|--- .... ....|R-- .... ....|R-- .... ....
....|..|R-- .... ....|B-4 4F.A ....|B-4 7F.A ....
....|..|R-- .... ....|R-- .... ....|R-- .... ....
 F#4|..|F#2 2A.F ....|B-4 4F.F ....|B-4 7F.F ....
....|..|R-- .... ....|R-- .... ....|R-- .... ....
....|..|E-2 2F.7 ....|B-4 4F.A ....|B-4 7F.A ....
....|..|--- .... ....|R-- .... ....|R-- .... ....
 G-4|..|G-2 2A.F ....|B-4 4F.F ....|B-4 7F.F ....
....|..|R-- .... ....|R-- .... ....|R-- .... ....
....|..|E-2 2F.7 ....|B-4 4F.A ....|B-4 7F.A ....
....|..|R-- .... ....|R-- .... ....|R-- .... ....

[Pattern28]
 A-3|..|A-2 2C.F ....|B-4 4F.7 ....|G-4 8F.F ....
....|..|--- .... ....|R-- .... ....|R-- .... ....
....|..|G-2 2F.A ....|B-4 4F.A ....|B-4 7F.A ....
....|..|R-- .... ....|R-- .... ....|R-- .... ....
 A-3|..|A-2 2C.F ....|B-4 4F.F ....|B-4 7F.F ....
....|..|R-- .... ....|R-- .... ....|R-- .... ....
....|..|A-2 2F.A ....|C-4 2F2F ....|R-- .... ....
....|..|--- .... ....|R-- .... ....|R-- .... ....
 A-3|..|A-2 2C.F ....|B-4 4F.F ....|B-4 7F.F ....
....|..|--- .... ....|--- .... ....|--- .... ....
....|..|A-2 2F.A ....|B-4 4F.A ....|B-4 7F.A ....
....|..|R-- .... ....|R-- .... ....|R-- .... ....
 A-3|..|A-2 2C.F ....|B-4 4F.F ....|B-4 7F.F ....
....|..|--- .... ....|E-4 2F1F ....|--- .... ....
 A-3|..|A-2 2C.F ....|A-4 2F4F ....|B-4 7F.A ....
....|..|--- .... ....|R-- .... ....|--- .... ....
....|..|A-2 2F.7 ....|B-4 4F.F ....|B-4 7F.F ....
....|..|--- .... ....|--- .... ....|--- .... ....
 A-3|..|A-2 2C.F ....|B-4 4F.A ....|B-4 7F.A ....
....|..|--- .... ....|E-4 2F1A ....|--- .... ....
 A-3|..|A-2 2C.F ....|B-4 4F.F ....|B-4 7F.F ....
....|..|--- .... ....|R-- .... ....|--- .... ....
....|..|R-- .... ....|E-4 2FDF ....|B-4 7F.A ....
....|..|R-- .... ....|R-- .... ....|--- .... ....
 G-4|..|G-2 2A.F ....|A-4 4F.F ....|A-4 7F.F ....
....|..|--- .... ....|E-4 2F17 ....|--- .... ....
....|..|A-2 2F.7 ....|B-4 4F.A ....|B-4 7F.A ....
....|..|--- .... ....|R-- .... ....|--- .... ....
 E-4|..|E-2 2A.F ....|B-4 4F.7 ....|B-4 7F.7 ....
....|..|R-- .... ....|R-- .... ....|--- .... ....
....|..|A-2 2F.7 ....|A-4 4F.A ....|A-4 7F.A ....
....|..|R-- .... ....|R-- .... ....|--- .... ....
 C-4|..|C-2 2A.F ....|B-4 4F.7 ....|C-4 8F.F ....
....|..|--- .... ....|R-- .... ....|--- .... ....
....|..|E-2 2F.A ....|E-4 2FD7 ....|R-- .... ....
....|..|R-- .... ....|R-- .... ....|--- .... ....
 C-4|..|C-2 2A.F ....|C-5 4F.F ....|C-5 7F.F ....
....|..|R-- .... ....|R-- .... ....|--- .... ....
....|..|C-2 2F.A ....|--- .... ....|--- .... ....
....|..|--- .... ....|R-- .... ....|R-- .... ....
 C-4|..|C-2 2A.F ....|C-5 4F.F ....|C-5 7F.F ....
....|..|--- .... ....|--- .... ....|--- .... ....
....|..|C-2 2F.A ....|C-5 4F.A ....|C-5 7F.A ....
....|..|R-- .... ....|R-- .... ....|--- .... ....
 C-4|..|C-2 2A.F ....|--- .... ....|C-4 8F.A ....
....|..|R-- .... ....|R-- .... ....|R-- .... ....
 C-4|..|C-2 2A.F ....|C-5 4F.A ....|C-5 7F.A ....
....|..|--- .... ....|--- .... ....|--- .... ....
....|..|C-2 2F.7 ....|C-5 4F.F ....|C-5 7F.F ....
....|..|R-- .... ....|--- .... ....|--- .... ....
 C-4|..|C-2 2A.F ....|--- .... ....|--- .... ....
....|..|R-- .... ....|R-- .... ....|R-- .... ....
 C-4|..|C-2 2A.F ....|C-5 4F.F ....|C-5 7F.F ....
....|..|--- .... ....|--- .... ....|--- .... ....
....|..|R-- .... ....|C-5 4F.A ....|C-5 7F.A ....
....|..|R-- .... ....|--- .... ....|--- .... ....
 E-4|..|E-2 2A.F ....|C-5 4F.F ....|C-5 7F.F ....
....|..|R-- .... ....|R-- .... ....|R-- .... ....
....|..|C-2 2F.7 ....|C-5 4F.A ....|C-5 7F.A ....
....|..|--- .... ....|R-- .... ....|R-- .... ....
 G-4|..|G-2 2A.F ....|C-5 4F.F ....|C-5 7F.F ....
....|..|R-- .... ....|--- .... ....|--- .... ....
....|..|C-2 2F.7 ....|C-5 4F.A ....|C-5 7F.A ....
....|..|R-- .... ....|R-- .... ....|R-- .... ....

[Pattern29]
 B-3|..|B-1 2A.F ....|C-5 4F.7 ....|B-3 8F.F ....
....|..|--- .... ....|R-- .... ....|R-- .... ....
....|..|G-2 2F.A ....|C-5 4F.A ....|C-5 7F.A ....
....|..|R-- .... ....|--- .... ....|--- .... ....
 B-3|..|B-1 2A.F ....|D#5 4F.F ....|D#5 7F.F ....
....|..|R-- .... ....|R-- .... ....|R-- .... ....
....|..|B-1 2F.A ....|D#4 2F7F ....|R-- .... ....
....|..|--- .... ....|R-- .... ....|R-- .... ....
 B-3|..|B-1 2A.F ....|D#5 4F.F ....|D#5 7F.F ....
....|..|--- .... ....|--- .... ....|--- .... ....
....|..|B-1 2F.A ....|D#5 4F.A ....|D#5 7F.A ....
....|..|R-- .... ....|R-- .... ....|R-- .... ....
 B-3|..|B-1 2A.F ....|B-4 4F.F ....|B-4 7F.F ....
....|..|--- .... ....|R-- .... ....|--- .... ....
 B-3|..|B-1 2A.F ....|B-4 2F2F ....|D#5 7F.A ....
....|..|--- .... ....|R-- .... ....|--- .... ....
....|..|B-1 2F.7 ....|B-4 4F.F ....|B-4 7F.F ....
....|..|--- .... ....|--- .... ....|--- .... ....
 B-3|..|B-1 2A.F ....|B-4 4F.A ....|B-4 7F.A ....
....|..|--- .... ....|R-- .... ....|--- .... ....
 B-3|..|B-1 2A.F ....|B-4 4F.F ....|B-4 7F.F ....
....|..|--- .... ....|F#5 2F.F ....|--- .... ....
....|..|R-- .... ....|F#4 2FFF ....|B-4 7F.A ....
....|..|R-- .... ....|R-- .... ....|--- .... ....
 D#4|..|D#2 2A.F ....|B-4 4F.F ....|B-4 7F.F ....
....|..|--- .... ....|R-- .... ....|--- .... ....
....|..|B-1 2F.7 ....|B-4 4F.A ....|B-4 7F.A ....
....|..|--- .... ....|F#5 2F.A ....|--- .... ....
 F#4|..|F#2 2A.F ....|B-4 4F.7 ....|B-4 7F.7 ....
....|..|R-- .... ....|B-4 2F.F ....|R-- .... ....
....|..|B-1 2F.7 ....|A-4 2F4F ....|B-4 7F.A ....
....|..|R-- .... ....|R-- .... ....|--- .... ....
 C-4|..|C-2 2A.F ....|A-4 2F4F ....|C-4 8F.F ....
....|..|--- .... ....|F#5 2F.7 ....|--- .... ....
....|..|F#2 2F.A ....|F#4 2FF7 ....|R-- .... ....
....|..|R-- .... ....|B-4 2F.A ....|R-- .... ....
 C-4|..|C-2 2A.F ....|C-5 4F.F ....|C-5 7F.F ....
....|..|R-- .... ....|R-- .... ....|--- .... ....
....|..|C-2 2F.A ....|A-4 2F4A ....|--- .... ....
....|..|--- .... ....|R-- .... ....|R-- .... ....
 C-4|..|C-2 2A.F ....|C-5 4F.F ....|C-5 7F.F ....
....|..|--- .... ....|B-4 2F.7 ....|R-- .... ....
....|..|C-2 2F.A ....|C-5 4F.A ....|C-5 7F.A ....
....|..|R-- .... ....|R-- .... ....|R-- .... ....
 C-4|..|C-2 2A.F ....|C-5 4F.F ....|C-5 7F.F ....
....|..|R-- .... ....|R-- .... ....|R-- .... ....
 C-4|..|C-2 2A.F ....|C-5 4F.A ....|C-5 7F.A ....
....|..|--- .... ....|C-4 2F3F ....|R-- .... ....
....|..|C-2 2F.7 ....|C-5 4F.F ....|C-5 7F.F ....
....|..|R-- .... ....|R-- .... ....|R-- .... ....
 C-4|..|C-2 2A.F ....|C-5 4F.A ....|C-5 7F.A ....
....|..|R-- .... ....|R-- .... ....|R-- .... ....
 C-4|..|C-2 2A.F ....|C-5 4F.F ....|C-5 7F.F ....
....|..|--- .... ....|C-4 2F3A ....|R-- .... ....
....|..|R-- .... ....|C-5 4F.A ....|C-5 7F.A ....
....|..|R-- .... ....|R-- .... ....|R-- .... ....
 E-4|..|E-2 2A.F ....|C-5 4F.F ....|C-5 7F.F ....
....|..|R-- .... ....|R-- .... ....|R-- .... ....
....|..|C-2 2F.7 ....|C-5 4F.A ....|C-5 7F.A ....
....|..|--- .... ....|C-4 2F37 ....|R-- .... ....
 G-4|..|G-2 2A.F ....|A-4 4F.F ....|A-4 7F.F ....
....|..|R-- .... ....|R-- .... ....|R-- .... ....
....|..|C-2 2F.7 ....|C-5 4F.A ....|C-5 7F.A ....
....|..|R-- .... ....|R-- .... ....|R-- .... ....

[Pattern30]
 B-4|..|B-2 2A.F ....|C-5 4F.7 ....|D#3 8F.F ....
....|..|--- .... ....|R-- .... ....|R-- .... ....
....|..|G-2 2F.A ....|A-4 4F.A ....|A-4 7F.A ....
....|..|R-- .... ....|R-- .... ....|R-- .... ....
 B-4|..|B-2 2A.F ....|D#5 4F.F ....|D#5 7F.F ....
....|..|R-- .... ....|R-- .... ....|R-- .... ....
....|..|B-2 2F.A ....|D#4 2F7F ....|R-- .... ....
....|..|--- .... ....|R-- .... ....|R-- .... ....
 A-3|..|A-2 2C.F ....|D#5 4F.F ....|D#5 7F.F ....
....|..|--- .... ....|--- .... ....|--- .... ....
....|..|B-2 2F.A ....|D#5 4F.A ....|D#5 7F.A ....
....|..|R-- .... ....|R-- .... ....|R-- .... ....
 A-3|..|A-2 2C.F ....|B-4 4F.F ....|B-4 7F.F ....
....|..|--- .... ....|R-- .... ....|--- .... ....
 F#4|..|F#2 2A.F ....|B-4 2F2F ....|D#5 7F.A ....
....|..|--- .... ....|R-- .... ....|R-- .... ....
....|..|B-2 2F.7 ....|D#5 4F.F ....|D#5 7F.F ....
....|..|--- .... ....|R-- .... ....|R-- .... ....
 F#4|..|F#2 2A.F ....|B-4 4F.A ....|B-4 7F.A ....
....|..|--- .... ....|R-- .... ....|--- .... ....
 F#4|..|F#2 2A.F ....|B-4 4F.F ....|B-4 7F.F ....
....|..|--- .... ....|F#5 2F.F ....|R-- .... ....
....|..|R-- .... ....|F#4 2FFF ....|D#5 7F.A ....
....|..|R-- .... ....|R-- .... ....|R-- .... ....
 D#4|..|D#2 2A.F ....|B-4 4F.F ....|B-4 7F.F ....
....|..|--- .... ....|R-- .... ....|--- .... ....
....|..|F#2 2F.7 ....|B-4 4F.A ....|B-4 7F.A ....
....|..|--- .... ....|F#5 2F.A ....|R-- .... ....
 B-3|..|B-1 2A.F ....|D#5 4F.7 ....|A-3 8F.F ....
....|..|R-- .... ....|R-- .... ....|--- .... ....
....|..|F#2 2F.7 ....|B-4 4F.A ....|B-4 7F.A ....
....|..|R-- .... ....|B-4 2F.F ....|--- .... ....
 B-4|..|B-2 2A.F ....|R-- .... ....|D#4 8F.F ....
....|..|--- .... ....|F#5 2F.7 ....|--- .... ....
....|..|B-1 2F.A ....|F#4 2FF7 ....|R-- .... ....
....|..|R-- .... ....|R-- .... ....|--- .... ....
 B-4|..|B-2 2A.F ....|D#5 4F.F ....|D#5 7F.F ....
....|..|R-- .... ....|B-4 2F.A ....|--- .... ....
....|..|B-2 2F.A ....|D#4 2F7F ....|R-- .... ....
....|..|--- .... ....|R-- .... ....|--- .... ....
 A-3|..|A-2 2C.F ....|D#5 4F.F ....|D#5 7F.F ....
....|..|--- .... ....|--- .... ....|--- .... ....
....|..|B-2 2F.A ....|D#5 4F.A ....|D#5 7F.A ....
....|..|R-- .... ....|B-4 2F.7 ....|R-- .... ....
 A-3|..|A-2 2C.F ....|B-4 4F.F ....|B-4 7F.F ....
....|..|--- .... ....|R-- .... ....|--- .... ....
 F#4|..|F#2 2A.F ....|B-4 2F2F ....|D#5 7F.A ....
....|..|--- .... ....|R-- .... ....|R-- .... ....
....|..|B-2 2F.7 ....|D#5 4F.F ....|D#5 7F.F ....
....|..|--- .... ....|R-- .... ....|R-- .... ....
 F#4|..|F#2 2A.F ....|B-4 4F.A ....|B-4 7F.A ....
....|..|--- .... ....|R-- .... ....|--- .... ....
 F#4|..|F#2 2A.F ....|B-4 4F.F ....|B-4 7F.F ....
....|..|--- .... ....|F#5 2F.F ....|R-- .... ....
....|..|R-- .... ....|F#4 2FFF ....|D#5 7F.A ....
....|..|R-- .... ....|R-- .... ....|R-- .... ....
 D#4|..|D#2 2A.F ....|B-4 4F.F ....|B-4 7F.F ....
....|..|--- .... ....|R-- .... ....|--- .... ....
....|..|F#2 2F.7 ....|B-4 4F.A ....|B-4 7F.A ....
....|..|--- .... ....|F#5 2F.A ....|R-- .... ....
 B-3|..|B-1 2A.F ....|D#5 4F.7 ....|A-4 8F.F ....
....|..|R-- .... ....|R-- .... ....|--- .... ....
....|..|F#2 2F.7 ....|B-4 4F.A ....|B-4 7F.A ....
....|..|R-- .... ....|B-4 2F.F ....|R-- .... ....

[Pattern31]
 B-4|..|B-2 2A.F ....|R-- .... ....|D#5 8F.F ....
....|..|--- .... ....|F#5 2F.7 ....|--- .... ....
....|..|B-1 2F.A ....|F#4 2FF7 ....|E-4 2F.F ....
....|..|R-- .... ....|R-- .... ....|--- .... ....
 B-4|..|B-2 2A.F ....|D#5 4F.F ....|D#5 7F.F ....
....|..|R-- .... ....|B-4 2F.A ....|R-- .... ....
....|..|B-2 2F.A ....|D#4 2F7F ....|D#4 2F.F ....
....|..|--- .... ....|R-- .... ....|--- .... ....
 A-3|..|A-2 2C.F ....|D#5 4F.F ....|D#5 7F.F ....
....|..|--- .... ....|--- .... ....|--- .... ....
....|..|B-2 2F.A ....|D#5 4F.A ....|G-4 2F.F ....
....|..|R-- .... ....|B-4 2F.7 ....|R-- .... ....
 A-3|..|A-2 2C.F ....|B-4 4F.F ....|B-4 7F.F ....
....|..|--- .... ....|R-- .... ....|--- .... ....
 F#4|..|F#2 2A.F ....|B-4 2F2F ....|F#4 2F.F ....
....|..|--- .... ....|R-- .... ....|R-- .... ....
....|..|B-2 2F.7 ....|D#5 4F.F ....|D#5 7F.F ....
....|..|--- .... ....|R-- .... ....|R-- .... ....
 F#4|..|F#2 2A.F ....|B-4 4F.A ....|B-4 2F.F ....
....|..|--- .... ....|R-- .... ....|--- .... ....
 F#4|..|F#2 2A.F ....|B-4 4F.F ....|B-4 7F.F ....
....|..|--- .... ....|F#5 2F.F ....|R-- .... ....
....|..|R-- .... ....|F#4 2FFF ....|A-4 2F.F ....
....|..|R-- .... ....|R-- .... ....|R-- .... ....
 D#4|..|D#2 2A.F ....|B-4 4F.F ....|B-4 7F.F ....
....|..|--- .... ....|R-- .... ....|--- .... ....
....|..|F#2 2F.7 ....|B-4 4F.A ....|C-5 2F.F ....
....|..|--- .... ....|F#5 2F.A ....|R-- .... ....
 B-3|..|B-1 2A.F ....|D#5 4F.7 ....|A-5 8F.F ....
....|..|R-- .... ....|R-- .... ....|--- .... ....
....|..|F#2 2F.7 ....|B-4 4F.A ....|B-4 2F.F ....
....|..|R-- .... ....|B-4 2F.F ....|R-- .... ....
 B-3|..|B-1 2A.F ....|R-- .... ....|B-5 8F.F ....
....|..|--- .... ....|F#5 2F.7 ....|--- .... ....
....|..|B-1 2F.A ....|F#4 2FF7 ....|E-5 2F.F ....
....|..|R-- .... ....|R-- .... ....|--- .... ....
 B-3|..|B-1 2A.F ....|F#5 4F.F ....|F#5 7F.F ....
....|..|R-- .... ....|B-4 2F.A ....|R-- .... ....
....|..|B-1 2F.A ....|D#4 2F7F ....|D#5 2F.F ....
....|..|--- .... ....|R-- .... ....|R-- .... ....
 D#4|..|D#2 2A.F ....|F#5 4F.F ....|F#5 7F.F ....
....|..|--- .... ....|--- .... ....|--- .... ....
....|..|B-1 2F.A ....|F#5 4F.A ....|G-5 2F.F ....
....|..|R-- .... ....|B-4 2F.7 ....|R-- .... ....
 D#4|..|D#2 2A.F ....|D#4 2F7A ....|D#5 8F.F ....
....|..|--- .... ....|R-- .... ....|R-- .... ....
 F#4|..|F#2 2A.F ....|B-4 2F2F ....|F#5 2F.F ....
....|..|--- .... ....|R-- .... ....|--- .... ....
....|..|B-1 2F.7 ....|B-4 2F2F ....|B-4 8F.F ....
....|..|--- .... ....|--- .... ....|--- .... ....
 F#4|..|F#2 2A.F ....|D#4 2F77 ....|B-5 2F.F ....
....|..|--- .... ....|R-- .... ....|R-- .... ....
 A-3|..|A-2 2C.F ....|F#5 4F.F ....|F#5 7F.F ....
....|..|--- .... ....|F#5 2F.F ....|--- .... ....
....|..|R-- .... ....|F#4 2FFF ....|A-5 2F.F ....
....|..|R-- .... ....|R-- .... ....|R-- .... ....
 B-4|..|B-2 2A.F ....|F#5 4F.F ....|F#5 7F.F ....
....|..|--- .... ....|R-- .... ....|--- .... ....
....|..|F#2 2F.7 ....|F#5 4F.A ....|C-6 2F.F ....
....|..|--- .... ....|F#5 2F.A ....|--- .... ....
 A-3|..|A-2 2C.F ....|B-4 2F27 ....|A-5 8F.F ....
....|..|R-- .... ....|R-- .... ....|R-- .... ....
....|..|F#2 2F.7 ....|F#5 4F.A ....|B-5 2F.F ....
....|..|R-- .... ....|B-4 2F.F ....|--- .... ....

[Pattern32]
 E-4|..|E-2 2A.F ....|B-6 3F.F ....|B-4 7F.F ....
....|..|--- .... ....|F#5 2F.7 ....|--- .... ....
....|..|A-2 2F.A ....|F#4 2FF7 ....|A-5 2F.7 ....
....|..|R-- .... ....|R-- .... ....|R-- .... ....
 E-4|..|E-2 2A.F ....|B-6 3F.F ....|F#5 7F.7 ....
....|..|R-- .... ....|B-5 3F.F ....|--- .... ....
....|..|E-2 2F.A ....|B-6 3F.A ....|B-4 7F.A ....
....|..|--- .... ....|--- .... ....|--- .... ....
 E-4|..|E-2 2A.F ....|E-5 3F1F ....|E-5 8F.F ....
....|..|--- .... ....|--- .... ....|--- .... ....
....|..|E-2 2F.A ....|B-6 3F.A ....|B-5 2F.7 ....
....|..|R-- .... ....|B-5 3F.A ....|--- .... ....
 E-4|..|E-2 2A.F ....|G-6 3F.F ....|B-4 7F.7 ....
....|..|R-- .... ....|B-5 3F.F ....|--- .... ....
 E-4|..|E-2 2A.F ....|E-5 3F1A ....|R-- .... ....
....|..|--- .... ....|--- .... ....|--- .... ....
....|..|E-2 2F.7 ....|B-6 3F.F ....|F#5 8F.7 ....
....|..|R-- .... ....|B-5 3F.7 ....|--- .... ....
 E-4|..|E-2 2A.F ....|G-6 3F.A ....|--- .... ....
....|..|R-- .... ....|B-5 3F.A ....|--- .... ....
 E-4|..|E-2 2A.F ....|B-6 3F.F ....|C-5 7F.F ....
....|..|--- .... ....|B-5 3F.F ....|--- .... ....
....|..|R-- .... ....|B-6 3F.A ....|--- .... ....
....|..|R-- .... ....|--- .... ....|--- .... ....
 F#4|..|F#2 2A.F ....|E-5 3F1F ....|E-5 8F.F ....
....|..|R-- .... ....|B-5 3F.7 ....|--- .... ....
....|..|E-2 2F.7 ....|B-6 3F.A ....|F#5 8F.F ....
....|..|--- .... ....|B-5 3F.A ....|--- .... ....
 G-4|..|G-2 2A.F ....|G-6 3F.F ....|B-4 7F.F ....
....|..|R-- .... ....|B-5 3F.F ....|--- .... ....
....|..|E-2 2F.7 ....|E-5 3F1A ....|F#5 8F.F ....
....|..|R-- .... ....|R-- .... ....|--- .... ....
 D#4|..|D#2 2A.F ....|B-6 3F.F ....|B-4 7F.F ....
....|..|--- .... ....|B-5 3F.7 ....|--- .... ....
....|..|G-2 2F.A ....|G-6 3F.A ....|B-4 7F.A ....
....|..|R-- .... ....|B-5 3F.A ....|--- .... ....
 D#4|..|D#2 2A.F ....|B-6 3F.F ....|E-5 8F.A ....
....|..|R-- .... ....|B-5 3F.F ....|R-- .... ....
....|..|D#2 2F.A ....|B-6 3F.A ....|B-4 7F.A ....
....|..|--- .... ....|--- .... ....|--- .... ....
 D#4|..|D#2 2A.F ....|D#5 3F1F ....|D#5 8F.F ....
....|..|--- .... ....|B-5 3F.7 ....|--- .... ....
....|..|D#2 2F.A ....|B-6 3F.A ....|F#5 8F.A ....
....|..|R-- .... ....|B-5 3F.A ....|--- .... ....
 D#4|..|D#2 2A.F ....|B-4 3F2F ....|D#5 8F.A ....
....|..|R-- .... ....|B-5 3F.F ....|--- .... ....
 D#4|..|D#2 2A.F ....|D#5 3F1A ....|--- .... ....
....|..|--- .... ....|R-- .... ....|--- .... ....
....|..|D#2 2F.7 ....|B-6 3F.F ....|E-5 8F.7 ....
....|..|R-- .... ....|B-5 3F.7 ....|R-- .... ....
 D#4|..|D#2 2A.F ....|B-4 3F2A ....|F#5 8F.7 ....
....|..|R-- .... ....|B-5 3F.A ....|--- .... ....
 D#4|..|D#2 2A.F ....|B-6 3F.F ....|C-5 7F.F ....
....|..|--- .... ....|R-- .... ....|--- .... ....
....|..|R-- .... ....|B-5 3F.F ....|F#5 8F.7 ....
....|..|R-- .... ....|--- .... ....|--- .... ....
 F#4|..|F#2 2A.F ....|D#5 3F1F ....|E-5 8F.F ....
....|..|R-- .... ....|B-5 3F.7 ....|--- .... ....
....|..|D#2 2F.7 ....|B-6 3F.A ....|F#5 8F.F ....
....|..|--- .... ....|R-- .... ....|--- .... ....
 A-3|..|A-2 2C.F ....|B-5 3F.F ....|B-4 7F.F ....
....|..|R-- .... ....|--- .... ....|R-- .... ....
....|..|D#2 2F.7 ....|D#5 3F1A ....|F#5 8F.F ....
....|..|R-- .... ....|R-- .... ....|--- .... ....

[Pattern35]
 A-3|..|A-2 2C.F ....|G-6 3F.F ....|G-4 7F.F ....
....|..|--- .... ....|G-5 3F.7 ....|--- .... ....
....|..|G-2 2F.A ....|G-4 3F6A ....|--- .... ....
....|..|R-- .... ....|G-5 3F.A ....|--- .... ....
 A-3|..|A-2 2C.F ....|G-6 3F.F ....|E-5 8F.A ....
....|..|R-- .... ....|A-5 3F.F ....|R-- .... ....
....|..|A-2 2F.A ....|G-6 3F.A ....|G-4 7F.A ....
....|..|--- .... ....|--- .... ....|R-- .... ....
 A-3|..|A-2 2C.F ....|C-5 3F3F ....|C-5 8F.F ....
....|..|--- .... ....|G-5 3F.7 ....|--- .... ....
....|..|A-2 2F.A ....|G-6 3F.A ....|F#5 8F.A ....
....|..|R-- .... ....|A-5 3F.A ....|R-- .... ....
 A-3|..|A-2 2C.F ....|A-4 3F4F ....|C-5 8F.A ....
....|..|--- .... ....|A-5 3F.F ....|--- .... ....
 A-3|..|A-2 2C.F ....|C-5 3F3A ....|--- .... ....
....|..|--- .... ....|--- .... ....|R-- .... ....
....|..|A-2 2F.7 ....|G-6 3F.F ....|E-5 8F.7 ....
....|..|--- .... ....|A-5 3F.7 ....|R-- .... ....
 A-3|..|A-2 2C.F ....|A-4 3F4A ....|F#5 8F.7 ....
....|..|--- .... ....|A-5 3F.A ....|--- .... ....
 A-3|..|A-2 2C.F ....|G-6 3F.F ....|A-4 7F.F ....
....|..|--- .... ....|A-5 3F.F ....|--- .... ....
....|..|R-- .... ....|G-6 3F.A ....|F#5 8F.7 ....
....|..|R-- .... ....|--- .... ....|--- .... ....
 A-3|..|A-2 2C.F ....|C-5 3F3F ....|E-5 8F.F ....
....|..|--- .... ....|A-5 3F.7 ....|--- .... ....
....|..|A-2 2F.7 ....|G-6 3F.A ....|F#5 8F.F ....
....|..|--- .... ....|E-6 3F.F ....|R-- .... ....
 A-3|..|A-2 2C.F ....|A-5 3F.F ....|G-4 7F.F ....
....|..|R-- .... ....|--- .... ....|R-- .... ....
....|..|A-2 2F.7 ....|C-5 3F3A ....|F#5 8F.F ....
....|..|R-- .... ....|--- .... ....|--- .... ....
 B-4|..|B-2 2A.F ....|B-4 3F2F ....|F#4 7F.F ....
....|..|--- .... ....|D#5 3F7F ....|--- .... ....
....|..|A-2 2F.A ....|A-5 3F.A ....|G-4 7F.A ....
....|..|R-- .... ....|--- .... ....|--- .... ....
 B-4|..|B-2 2A.F ....|C-5 3F37 ....|E-5 8F.A ....
....|..|R-- .... ....|--- .... ....|R-- .... ....
....|..|B-2 2F.A ....|B-4 3F2A ....|F#4 7F.A ....
....|..|--- .... ....|E-6 3F.7 ....|R-- .... ....
 A-3|..|A-2 2C.F ....|A-5 3F.7 ....|D#5 8F.F ....
....|..|--- .... ....|--- .... ....|--- .... ....
....|..|B-2 2F.A ....|--- .... ....|F#5 8F.A ....
....|..|R-- .... ....|--- .... ....|--- .... ....
 A-3|..|A-2 2C.F ....|B-4 3F27 ....|D#5 8F.A ....
....|..|--- .... ....|D#5 3F77 ....|--- .... ....
 F#4|..|F#2 2A.F ....|--- .... ....|--- .... ....
....|..|--- .... ....|--- .... ....|R-- .... ....
....|..|B-2 2F.7 ....|--- .... ....|E-5 8F.7 ....
....|..|--- .... ....|--- .... ....|R-- .... ....
 F#4|..|F#2 2A.F ....|--- .... ....|F#5 8F.7 ....
....|..|--- .... ....|--- .... ....|--- .... ....
 F#4|..|F#2 2A.F ....|--- .... ....|G-5 8F.7 ....
....|..|--- .... ....|--- .... ....|--- .... ....
....|..|R-- .... ....|--- .... ....|F#5 8F.7 ....
....|..|R-- .... ....|--- .... ....|--- .... ....
 D#4|..|D#2 2A.F ....|R-- .... ....|E-5 8F.F ....
....|..|--- .... ....|--- .... ....|--- .... ....
....|..|F#2 2F.7 ....|--- .... ....|F#5 8F.F ....
....|..|--- .... ....|--- .... ....|R-- .... ....
 D#4|..|D#2 2A.F ....|--- .... ....|G-5 8F.F ....
....|..|R-- .... ....|--- .... ....|R-- .... ....
....|..|F#2 2F.7 ....|R-- .... ....|F#5 8F.F ....
....|..|R-- .... ....|--- .... ....|--- .... ....

[Pattern36]
 E-4|..|E-2 2A.F ....|B-6 3F.F ....|B-4 7F.F ....
....|..|--- .... ....|--- .... ....|--- .... ....
....|..|D#2 2F.A ....|--- .... ....|--- .... ....
....|..|R-- .... ....|--- .... ....|--- .... ....
 E-4|..|E-2 2A.F ....|B-6 3F.F ....|E-5 8F.A ....
....|..|R-- .... ....|B-5 3F.F ....|--- .... ....
....|..|E-2 2F.A ....|B-6 3F.A ....|B-4 7F.A ....
....|..|--- .... ....|--- .... ....|R-- .... ....
 E-4|..|E-2 2A.F ....|E-5 3F1F ....|E-5 8F.F ....
....|..|--- .... ....|--- .... ....|--- .... ....
....|..|E-2 2F.A ....|B-6 3F.A ....|F#5 8F.A ....
....|..|R-- .... ....|B-5 3F.A ....|--- .... ....
 E-4|..|E-2 2A.F ....|G-6 3F.F ....|E-5 8F.A ....
....|..|R-- .... ....|B-5 3F.F ....|--- .... ....
 E-4|..|E-2 2A.F ....|E-5 3F1A ....|R-- .... ....
....|..|--- .... ....|--- .... ....|--- .... ....
....|..|E-2 2F.7 ....|B-6 3F.F ....|E-5 8F.7 ....
....|..|R-- .... ....|B-5 3F.7 ....|--- .... ....
 E-4|..|E-2 2A.F ....|G-6 3F.A ....|F#5 8F.7 ....
....|..|R-- .... ....|B-5 3F.A ....|--- .... ....
 E-4|..|E-2 2A.F ....|B-6 3F.F ....|C-5 7F.F ....
....|..|--- .... ....|B-5 3F.F ....|--- .... ....
....|..|R-- .... ....|B-6 3F.A ....|F#5 8F.7 ....
....|..|R-- .... ....|--- .... ....|--- .... ....
 F#4|..|F#2 2A.F ....|E-5 3F1F ....|E-5 8F.F ....
....|..|R-- .... ....|B-5 3F.7 ....|--- .... ....
....|..|E-2 2F.7 ....|B-6 3F.A ....|F#5 8F.F ....
....|..|--- .... ....|B-5 3F.A ....|--- .... ....
 G-4|..|G-2 2A.F ....|G-6 3F.F ....|B-4 7F.F ....
....|..|R-- .... ....|B-5 3F.F ....|--- .... ....
....|..|E-2 2F.7 ....|E-5 3F1A ....|F#5 8F.F ....
....|..|R-- .... ....|R-- .... ....|--- .... ....
 D#4|..|D#2 2A.F ....|B-6 3F.F ....|B-4 7F.F ....
....|..|--- .... ....|B-5 3F.7 ....|--- .... ....
....|..|G-2 2F.A ....|G-6 3F.A ....|B-4 7F.A ....
....|..|R-- .... ....|B-5 3F.A ....|--- .... ....
 D#4|..|D#2 2A.F ....|B-6 3F.F ....|E-5 8F.A ....
....|..|R-- .... ....|B-5 3F.F ....|R-- .... ....
....|..|D#2 2F.A ....|B-6 3F.A ....|B-4 7F.A ....
....|..|--- .... ....|--- .... ....|--- .... ....
 D#4|..|D#2 2A.F ....|D#5 3F1F ....|D#5 8F.F ....
....|..|--- .... ....|B-5 3F.7 ....|--- .... ....
....|..|D#2 2F.A ....|B-6 3F.A ....|F#5 8F.A ....
....|..|R-- .... ....|B-5 3F.A ....|--- .... ....
 D#4|..|D#2 2A.F ....|B-4 3F2F ....|D#5 8F.A ....
....|..|R-- .... ....|B-5 3F.F ....|--- .... ....
 D#4|..|D#2 2A.F ....|D#5 3F1A ....|--- .... ....
....|..|--- .... ....|R-- .... ....|--- .... ....
....|..|D#2 2F.7 ....|B-6 3F.F ....|E-5 8F.7 ....
....|..|R-- .... ....|B-5 3F.7 ....|R-- .... ....
 D#4|..|D#2 2A.F ....|B-4 3F2A ....|F#5 8F.7 ....
....|..|R-- .... ....|B-5 3F.A ....|--- .... ....
 D#4|..|D#2 2A.F ....|B-6 3F.F ....|C-5 7F.F ....
....|..|--- .... ....|R-- .... ....|--- .... ....
....|..|R-- .... ....|B-5 3F.F ....|F#5 8F.7 ....
....|..|R-- .... ....|--- .... ....|--- .... ....
 F#4|..|F#2 2A.F ....|D#5 3F1F ....|E-5 8F.F ....
....|..|R-- .... ....|B-5 3F.7 ....|--- .... ....
....|..|D#2 2F.7 ....|B-6 3F.A ....|F#5 8F.F ....
....|..|--- .... ....|R-- .... ....|--- .... ....
 A-3|..|A-2 2C.F ....|B-5 3F.F ....|B-4 7F.F ....
....|..|R-- .... ....|--- .... ....|R-- .... ....
....|..|D#2 2F.7 ....|D#5 3F1A ....|F#5 8F.F ....
....|..|R-- .... ....|R-- .... ....|--- .... ....

[Pattern37]
 D-4|..|D-2 2A.F ....|B-6 3F.F ....|B-4 7F.F ....
....|..|--- .... ....|--- .... ....|--- .... ....
....|..|A-2 2F.A ....|B-4 4F.A ....|B-4 7F.A ....
....|..|R-- .... ....|--- .... ....|--- .... ....
 D-4|..|D-2 2A.F ....|B-6 3F.F ....|E-5 8F.A ....
....|..|R-- .... ....|B-5 3F.F ....|R-- .... ....
....|..|D-2 2F.A ....|B-6 3F.A ....|B-4 7F.A ....
....|..|--- .... ....|--- .... ....|--- .... ....
 D-4|..|D-2 2A.F ....|D-5 3F3F ....|D-5 8F.F ....
....|..|--- .... ....|--- .... ....|--- .... ....
....|..|D-2 2F.A ....|B-6 3F.A ....|F#5 8F.A ....
....|..|R-- .... ....|B-5 3F.A ....|--- .... ....
 D-4|..|D-2 2A.F ....|B-4 3F4F ....|D-5 8F.A ....
....|..|R-- .... ....|B-5 3F.F ....|--- .... ....
 D-4|..|D-2 2A.F ....|D-5 3F3A ....|--- .... ....
....|..|--- .... ....|--- .... ....|--- .... ....
....|..|D-2 2F.7 ....|B-6 3F.F ....|E-5 8F.7 ....
....|..|R-- .... ....|B-5 3F.7 ....|R-- .... ....
 D-4|..|D-2 2A.F ....|B-4 3F4A ....|F#5 8F.7 ....
....|..|R-- .... ....|B-5 3F.A ....|--- .... ....
 D-4|..|D-2 2A.F ....|B-6 3F.F ....|C-5 7F.F ....
....|..|--- .... ....|B-5 3F.F ....|--- .... ....
....|..|R-- .... ....|B-6 3F.A ....|F#5 8F.7 ....
....|..|R-- .... ....|--- .... ....|--- .... ....
 F#4|..|F#2 2A.F ....|D-5 3F3F ....|E-5 8F.F ....
....|..|R-- .... ....|B-5 3F.7 ....|--- .... ....
....|..|D-2 2F.7 ....|B-6 3F.A ....|F#5 8F.F ....
....|..|--- .... ....|B-5 3F.A ....|--- .... ....
 A-3|..|A-2 2C.F ....|B-4 3F4F ....|B-4 7F.F ....
....|..|R-- .... ....|B-5 3F.F ....|R-- .... ....
....|..|D-2 2F.7 ....|D-5 3F3A ....|F#5 8F.F ....
....|..|R-- .... ....|--- .... ....|--- .... ....
 C#4|..|C#2 2A.F ....|A-6 3F.F ....|B-4 7F.F ....
....|..|--- .... ....|B-5 3F.7 ....|--- .... ....
....|..|A-2 2F.A ....|B-4 3F4A ....|B-4 7F.A ....
....|..|R-- .... ....|B-5 3F.A ....|--- .... ....
 C#4|..|C#2 2A.F ....|A-5 3F.F ....|E-5 8F.A ....
....|..|R-- .... ....|--- .... ....|R-- .... ....
....|..|C#2 2F.A ....|A-6 3F.A ....|B-4 7F.A ....
....|..|--- .... ....|--- .... ....|--- .... ....
 C#4|..|C#2 2A.F ....|C#5 3F1F ....|C#5 8F.F ....
....|..|--- .... ....|B-5 3F.7 ....|--- .... ....
....|..|C#2 2F.A ....|A-5 3F.A ....|F#5 8F.A ....
....|..|R-- .... ....|--- .... ....|--- .... ....
 C#4|..|C#2 2A.F ....|A-4 3F2F ....|C#5 8F.A ....
....|..|--- .... ....|A-5 3F.F ....|--- .... ....
 C#4|..|C#2 2A.F ....|C#5 3F1A ....|--- .... ....
....|..|--- .... ....|--- .... ....|--- .... ....
....|..|C#2 2F.7 ....|A-6 3F.F ....|A-4 7F.F ....
....|..|--- .... ....|--- .... ....|R-- .... ....
 C#4|..|C#2 2A.F ....|A-4 3F2A ....|F#5 8F.7 ....
....|..|--- .... ....|A-5 3F.A ....|--- .... ....
 C#4|..|C#2 2A.F ....|C#5 3F17 ....|G-5 8F.7 ....
....|..|--- .... ....|--- .... ....|--- .... ....
....|..|R-- .... ....|A-6 3F.A ....|A-4 7F.A ....
....|..|R-- .... ....|--- .... ....|--- .... ....
 F#4|..|F#2 2A.F ....|E-5 3F5F ....|E-5 8F.F ....
....|..|--- .... ....|A-5 3F.7 ....|--- .... ....
....|..|C#2 2F.7 ....|--- .... ....|F#5 8F.F ....
....|..|--- .... ....|--- .... ....|--- .... ....
 A-3|..|A-2 2C.F ....|E-5 3F5F ....|G-5 8F.F ....
....|..|R-- .... ....|A-6 3F.F ....|R-- .... ....
....|..|C#2 2F.7 ....|E-5 3F5A ....|F#5 8F.F ....
....|..|R-- .... ....|R-- .... ....|R-- .... ....

[Pattern38]
 C-4|..|C-2 2A.F ....|A-6 3F.F ....|A-4 7F.F ....
....|..|--- .... ....|--- .... ....|--- .... ....
....|..|A-2 2F.A ....|E-5 3F5A ....|--- .... ....
....|..|R-- .... ....|A-6 3F.A ....|--- .... ....
 C-4|..|C-2 2A.F ....|A-6 3F.F ....|E-5 8F.A ....
....|..|R-- .... ....|A-6 3F.F ....|R-- .... ....
....|..|C-2 2F.A ....|A-6 3F.A ....|A-4 7F.A ....
....|..|--- .... ....|--- .... ....|--- .... ....
 C-4|..|C-2 2A.F ....|C-5 3F6F ....|C-5 8F.F ....
....|..|--- .... ....|A-6 3F.7 ....|--- .... ....
....|..|C-2 2F.A ....|A-6 3F.A ....|F#5 8F.A ....
....|..|R-- .... ....|A-6 3F.A ....|R-- .... ....
 C-4|..|C-2 2A.F ....|C-5 3F6F ....|C-5 8F.A ....
....|..|R-- .... ....|A-6 3F.F ....|--- .... ....
 C-4|..|C-2 2A.F ....|C-5 3F6A ....|--- .... ....
....|..|--- .... ....|A-6 3F.F ....|R-- .... ....
....|..|C-2 2F.7 ....|A-6 3F.F ....|E-5 8F.7 ....
....|..|R-- .... ....|A-6 3F.7 ....|--- .... ....
 C-4|..|C-2 2A.F ....|C-5 3F6A ....|F#5 8F.7 ....
....|..|R-- .... ....|A-6 3F.A ....|--- .... ....
 C-4|..|C-2 2A.F ....|A-6 3F.F ....|B-4 7F.F ....
....|..|--- .... ....|A-6 3F.F ....|--- .... ....
....|..|R-- .... ....|A-6 3F.A ....|F#5 8F.7 ....
....|..|R-- .... ....|--- .... ....|--- .... ....
 F#4|..|F#2 2A.F ....|C-5 3F6F ....|E-5 8F.F ....
....|..|R-- .... ....|A-6 3F.7 ....|--- .... ....
....|..|C-2 2F.7 ....|A-6 3F.A ....|F#5 8F.F ....
....|..|--- .... ....|A-6 3F.7 ....|R-- .... ....
 A-3|..|A-2 2C.F ....|A-6 3F.F ....|A-4 7F.F ....
....|..|R-- .... ....|--- .... ....|--- .... ....
....|..|C-2 2F.7 ....|C-5 3F6A ....|F#5 8F.F ....
....|..|R-- .... ....|--- .... ....|--- .... ....
 B-3|..|B-1 2A.F ....|G-5 3F8F ....|A-4 7F.F ....
....|..|--- .... ....|A-6 3F.7 ....|--- .... ....
....|..|A-2 2F.A ....|A-6 3F.A ....|A-4 7F.A ....
....|..|R-- .... ....|--- .... ....|--- .... ....
 B-3|..|B-1 2A.F ....|G-5 3F8F ....|E-5 8F.A ....
....|..|R-- .... ....|A-6 3F.F ....|--- .... ....
....|..|B-1 2F.A ....|G-5 3F8A ....|A-4 7F.A ....
....|..|--- .... ....|--- .... ....|R-- .... ....
 B-3|..|B-1 2A.F ....|B-4 3F9F ....|B-4 8F.F ....
....|..|--- .... ....|--- .... ....|--- .... ....
....|..|B-1 2F.A ....|G-5 3F8A ....|F#5 8F.A ....
....|..|R-- .... ....|A-6 3F.A ....|--- .... ....
 B-3|..|B-1 2A.F ....|B-4 3F9F ....|B-4 8F.A ....
....|..|--- .... ....|A-6 3F.F ....|--- .... ....
 B-3|..|B-1 2A.F ....|B-4 3F9A ....|--- .... ....
....|..|--- .... ....|--- .... ....|R-- .... ....
....|..|B-1 2F.7 ....|G-5 3F8F ....|G-4 7F.F ....
....|..|--- .... ....|A-6 3F.7 ....|--- .... ....
 B-3|..|B-1 2A.F ....|B-4 3F9A ....|F#5 8F.7 ....
....|..|--- .... ....|A-6 3F.A ....|--- .... ....
 B-3|..|B-1 2A.F ....|G-5 3F8F ....|G-5 8F.7 ....
....|..|--- .... ....|A-6 3F.F ....|--- .... ....
....|..|R-- .... ....|G-5 3F8A ....|G-4 7F.A ....
....|..|R-- .... ....|--- .... ....|--- .... ....
 F#4|..|F#2 2A.F ....|B-4 3F9F ....|E-5 8F.F ....
....|..|--- .... ....|A-6 3F.7 ....|--- .... ....
....|..|B-1 2F.7 ....|G-5 3F8A ....|F#5 8F.F ....
....|..|--- .... ....|A-6 3F.A ....|R-- .... ....
 G-4|..|G-2 2A.F ....|B-4 3F9F ....|G-5 8F.F ....
....|..|R-- .... ....|A-6 3F.F ....|--- .... ....
....|..|B-1 2F.7 ....|B-4 3F9A ....|F#5 8F.F ....
....|..|R-- .... ....|R-- .... ....|R-- .... ....

[Pattern39]
 A-3|..|A-2 2C.F ....|G-5 3F8F ....|G-4 7F.F ....
....|..|--- .... ....|A-6 3F.7 ....|--- .... ....
....|..|G-2 2F.A ....|B-4 3F9A ....|--- .... ....
....|..|R-- .... ....|A-6 3F.A ....|--- .... ....
 A-3|..|A-2 2C.F ....|G-5 3F8F ....|E-5 8F.A ....
....|..|R-- .... ....|A-6 3F.F ....|R-- .... ....
....|..|A-2 2F.A ....|G-5 3F8A ....|G-4 7F.A ....
....|..|--- .... ....|--- .... ....|R-- .... ....
 A-3|..|A-2 2C.F ....|C-5 3F6F ....|C-5 8F.F ....
....|..|--- .... ....|A-6 3F.7 ....|--- .... ....
....|..|A-2 2F.A ....|G-5 3F8A ....|F#5 8F.A ....
....|..|R-- .... ....|A-6 3F.A ....|R-- .... ....
 A-3|..|A-2 2C.F ....|C-5 3F6F ....|C-5 8F.A ....
....|..|--- .... ....|A-6 3F.F ....|--- .... ....
 A-3|..|A-2 2C.F ....|C-5 3F6A ....|--- .... ....
....|..|--- .... ....|--- .... ....|R-- .... ....
....|..|A-2 2F.7 ....|G-5 3F8F ....|E-5 8F.7 ....
....|..|--- .... ....|A-6 3F.7 ....|R-- .... ....
 A-3|..|A-2 2C.F ....|C-5 3F6A ....|F#5 8F.7 ....
....|..|--- .... ....|A-6 3F.A ....|--- .... ....
 A-3|..|A-2 2C.F ....|G-5 3F8F ....|A-4 7F.F ....
....|..|--- .... ....|A-6 3F.F ....|--- .... ....
....|..|R-- .... ....|G-5 3F8A ....|F#5 8F.7 ....
....|..|R-- .... ....|--- .... ....|--- .... ....
 A-3|..|A-2 2C.F ....|C-5 3F6F ....|E-5 8F.F ....
....|..|--- .... ....|A-6 3F.7 ....|--- .... ....
....|..|A-2 2F.7 ....|G-5 3F8A ....|F#5 8F.F ....
....|..|--- .... ....|E-5 3F5F ....|R-- .... ....
 A-3|..|A-2 2C.F ....|A-6 3F.F ....|G-4 7F.F ....
....|..|R-- .... ....|--- .... ....|R-- .... ....
....|..|A-2 2F.7 ....|C-5 3F6A ....|F#5 8F.F ....
....|..|R-- .... ....|--- .... ....|--- .... ....
 B-4|..|B-2 2A.F ....|D#5 3FAF ....|B-4 7F.F ....
....|..|--- .... ....|D#5 3FAF ....|--- .... ....
....|..|A-2 2F.A ....|A-6 3F.A ....|G-4 7F.A ....
....|..|R-- .... ....|--- .... ....|--- .... ....
 B-4|..|B-2 2A.F ....|C-5 3F67 ....|E-5 8F.A ....
....|..|R-- .... ....|--- .... ....|R-- .... ....
....|..|B-2 2F.A ....|D#5 3FAA ....|B-4 7F.A ....
....|..|--- .... ....|E-5 3F57 ....|R-- .... ....
 A-3|..|A-2 2C.F ....|A-6 3F.7 ....|D#5 8F.F ....
....|..|--- .... ....|--- .... ....|--- .... ....
....|..|B-2 2F.A ....|--- .... ....|F#5 8F.A ....
....|..|R-- .... ....|--- .... ....|--- .... ....
 A-3|..|A-2 2C.F ....|D#5 3FA7 ....|D#5 8F.A ....
....|..|--- .... ....|D#5 3FA7 ....|--- .... ....
 F#4|..|F#2 2A.F ....|--- .... ....|--- .... ....
....|..|--- .... ....|--- .... ....|R-- .... ....
....|..|B-2 2F.7 ....|--- .... ....|E-5 8F.7 ....
....|..|--- .... ....|--- .... ....|R-- .... ....
 F#4|..|F#2 2A.F ....|--- .... ....|F#5 8F.7 ....
....|..|--- .... ....|--- .... ....|--- .... ....
 F#4|..|F#2 2A.F ....|--- .... ....|G-5 8F.7 ....
....|..|--- .... ....|--- .... ....|--- .... ....
....|..|R-- .... ....|--- .... ....|F#5 8F.7 ....
....|..|R-- .... ....|--- .... ....|--- .... ....
 D#4|..|D#2 2A.F ....|R-- .... ....|E-5 8F.F ....
....|..|--- .... ....|--- .... ....|--- .... ....
....|..|F#2 2F.7 ....|--- .... ....|F#5 8F.F ....
....|..|--- .... ....|--- .... ....|R-- .... ....
 D#4|..|D#2 2A.F ....|--- .... ....|G-5 8F.F ....
....|..|R-- .... ....|--- .... ....|R-- .... ....
....|..|F#2 2F.7 ....|R-- .... ....|F#5 8F.F ....
....|..|R-- .... ....|--- .... ....|--- .... ....

[Pattern40]
....|..|F#2 2F.7 ....|A-6 3F.F ....|B-5 8F.F ....
....|..|--- .... ....|--- .... ....|--- .... ....
....|..|D#2 2F.A ....|--- .... ....|--- .... ....
....|..|R-- .... ....|--- .... ....|--- .... ....
....|..|D#2 2F.7 ....|R-- .... ....|E-5 8F.A ....
....|..|R-- .... ....|--- .... ....|--- .... ....
....|..|--- .... ....|A-6 3F.A ....|F#5 8F.A ....
....|..|--- .... ....|--- .... ....|R-- .... ....
....|..|D#2 2F.7 ....|--- .... ....|G-5 8F.A ....
....|..|--- .... ....|--- .... ....|--- .... ....
....|..|--- .... ....|--- .... ....|F#5 8F.A ....
....|..|R-- .... ....|--- .... ....|--- .... ....
....|..|--- .... ....|A-6 3F.7 ....|B-5 8F.A ....
....|..|--- .... ....|--- .... ....|--- .... ....
....|..|--- .... ....|--- .... ....|--- .... ....
....|..|--- .... ....|--- .... ....|--- .... ....
....|..|--- .... ....|--- .... ....|E-5 8F.7 ....
....|..|--- .... ....|--- .... ....|--- .... ....
....|..|--- .... ....|--- .... ....|F#5 8F.7 ....
....|..|--- .... ....|--- .... ....|--- .... ....
....|..|--- .... ....|--- .... ....|G-5 8F.7 ....
....|..|--- .... ....|--- .... ....|--- .... ....
....|..|--- .... ....|--- .... ....|F#5 8F.7 ....
....|..|--- .... ....|--- .... ....|--- .... ....
....|..|--- .... ....|--- .... ....|B-4 8F.F ....
....|..|--- .... ....|--- .... ....|--- .... ....
....|..|--- .... ....|--- .... ....|--- .... ....
....|..|--- .... ....|--- .... ....|--- .... ....
....|..|--- .... ....|--- .... ....|R-- .... ....
....|..|--- .... ....|--- .... ....|--- .... ....
....|..|--- .... ....|--- .... ....|--- .... ....
....|..|--- .... ....|--- .... ....|--- .... ....
....|..|--- .... ....|--- .... ....|--- .... ....
....|..|--- .... ....|--- .... ....|--- .... ....
....|..|--- .... ....|--- .... ....|--- .... ....
....|..|--- .... ....|--- .... ....|--- .... ....
....|..|--- .... ....|--- .... ....|B-4 8F.A ....
....|..|--- .... ....|--- .... ....|--- .... ....
....|..|--- .... ....|--- .... ....|--- .... ....
....|..|--- .... ....|--- .... ....|--- .... ....
....|..|--- .... ....|--- .... ....|--- .... ....
....|..|--- .... ....|--- .... ....|--- .... ....
....|..|--- .... ....|--- .... ....|--- .... ....
....|..|--- .... ....|--- .... ....|--- .... ....
....|..|--- .... ....|--- .... ....|--- .... ....
....|..|--- .... ....|--- .... ....|--- .... ....
....|..|--- .... ....|--- .... ....|--- .... ....
....|..|--- .... ....|--- .... ....|--- .... ....
....|..|--- .... ....|--- .... ....|B-4 8F.7 ....
....|..|--- .... ....|--- .... ....|--- .... ....
....|..|--- .... ....|--- .... ....|--- .... ....
....|..|--- .... ....|--- .... ....|--- .... ....
....|..|--- .... ....|--- .... ....|--- .... ....
....|..|--- .... ....|--- .... ....|--- .... ....
....|..|--- .... ....|--- .... ....|--- .... ....
....|..|--- .... ....|--- .... ....|--- .... ....
....|..|--- .... ....|--- .... ....|--- .... ....
....|..|--- .... ....|--- .... ....|--- .... ....
....|..|--- .... ....|--- .... ....|--- .... ....
....|..|--- .... ....|--- .... ....|--- .... ....
....|..|--- .... ....|--- .... ....|--- .... ....
....|..|--- .... ....|--- .... ....|--- .... ....
....|..|--- .... ....|--- .... ....|--- .... ....
....|..|--- .... ....|--- .... ....|--- .... ....

[Pattern41]
 E-4|..|E-3 2C.F ....|--- .... ....|--- .... ....
....|..|--- .... ....|--- .... ....|--- .... ....
....|..|--- .... ....|--- .... ....|--- .... ....
....|..|--- .... ....|--- .... ....|--- .... ....
....|..|--- .... ....|--- .... ....|--- .... ....
....|..|--- .... ....|--- .... ....|--- .... ....
....|..|E-3 2F.A ....|--- .... ....|--- .... ....
....|..|R-- .... ....|--- .... ....|--- .... ....
 E-4|..|E-3 2C.F ....|--- .... ....|--- .... ....
....|..|--- .... ....|--- .... ....|--- .... ....
....|..|--- .... ....|--- .... ....|--- .... ....
 E-4|..|E-2 2A.F ....|--- .... ....|--- .... ....
 E-4|..|E-3 2C.F ....|--- .... ....|--- .... ....
....|..|R-- .... ....|--- .... ....|--- .... ....
....|..|E-3 2F.A ....|--- .... ....|--- .... ....
....|..|--- .... ....|--- .... ....|--- .... ....
....|..|--- .... ....|--- .... ....|--- .... ....
....|..|E-2 2F.A ....|--- .... ....|--- .... ....
....|..|E-3 2F.A ....|--- .... ....|--- .... ....
....|..|R-- .... ....|--- .... ....|--- .... ....
....|..|E-3 2F.7 ....|--- .... ....|--- .... ....
....|..|--- .... ....|--- .... ....|--- .... ....
....|..|--- .... ....|--- .... ....|--- .... ....
....|..|E-2 2F.7 ....|--- .... ....|--- .... ....
....|..|E-3 2F.7 ....|--- .... ....|--- .... ....
....|..|--- .... ....|--- .... ....|--- .... ....
....|..|--- .... ....|--- .... ....|--- .... ....
....|..|--- .... ....|--- .... ....|--- .... ....
....|..|--- .... ....|--- .... ....|--- .... ....
....|..|--- .... ....|--- .... ....|--- .... ....
 E-4|..|E-2 2A.F ....|--- .... ....|--- .... ....
....|..|R-- .... ....|--- .... ....|--- .... ....
 E-4|..|E-3 2C.F ....|--- .... ....|--- .... ....
....|..|--- .... ....|--- .... ....|--- .... ....
....|..|--- .... ....|--- .... ....|--- .... ....
....|..|--- .... ....|--- .... ....|--- .... ....
....|..|E-2 2F.A ....|--- .... ....|--- .... ....
....|..|R-- .... ....|--- .... ....|--- .... ....
....|..|E-3 2F.A ....|--- .... ....|--- .... ....
....|..|R-- .... ....|--- .... ....|--- .... ....
 E-4|..|E-3 2C.F ....|--- .... ....|--- .... ....
....|..|--- .... ....|--- .... ....|--- .... ....
....|..|E-2 2F.7 ....|--- .... ....|--- .... ....
....|..|R-- .... ....|--- .... ....|R-- .... ....
 E-4|..|E-3 2C.F ....|--- .... ....|--- .... ....
....|..|R-- .... ....|--- .... ....|--- .... ....
....|..|E-3 2F.A ....|--- .... ....|--- .... ....
....|..|--- .... ....|--- .... ....|--- .... ....
....|..|--- .... ....|--- .... ....|--- .... ....
....|..|--- .... ....|--- .... ....|--- .... ....
....|..|E-3 2F.A ....|--- .... ....|--- .... ....
....|..|R-- .... ....|--- .... ....|--- .... ....
 F#4|..|F#3 2C.F ....|--- .... ....|--- .... ....
....|..|--- .... ....|--- .... ....|--- .... ....
....|..|--- .... ....|--- .... ....|--- .... ....
....|..|--- .... ....|--- .... ....|R-- .... ....
 G-4|..|G-3 2C.F ....|--- .... ....|--- .... ....
....|..|--- .... ....|--- .... ....|--- .... ....
....|..|F#3 2F.A ....|--- .... ....|A-5 2F.F ....
....|..|--- .... ....|--- .... ....|--- .... ....
 F#4|..|F#3 2C.F ....|--- .... ....|B-5 2F.F ....
....|..|--- .... ....|--- .... ....|--- .... ....
....|..|G-3 2F.A ....|--- .... ....|D#6 2F.F ....
....|..|R-- .... ....|--- .... ....|--- .... ....

[Pattern42]
 E-4|..|E-2 2A.F ....|A-5 3F8F ....|B-4 7F.F ....
....|..|--- .... ....|--- .... ....|--- .... ....
....|..|R-- .... ....|--- .... ....|B-5 2F.A ....
....|..|--- .... ....|--- .... ....|R-- .... ....
 E-4|..|E-2 2A.F ....|A-5 3F8F ....|D#6 2F.A ....
....|..|R-- .... ....|A-6 3F.F ....|--- .... ....
....|..|E-2 2F.A ....|A-5 3F8A ....|B-4 7F.A ....
....|..|--- .... ....|--- .... ....|--- .... ....
 E-4|..|E-2 2A.F ....|E-5 3FBF ....|E-5 8F.F ....
....|..|--- .... ....|--- .... ....|--- .... ....
....|..|E-2 2F.A ....|A-5 3F8A ....|D#6 2F.7 ....
....|..|R-- .... ....|A-6 3F.A ....|--- .... ....
 E-4|..|E-2 2A.F ....|G-5 3F8F ....|E-5 8F.A ....
....|..|R-- .... ....|A-6 3F.F ....|--- .... ....
 E-4|..|E-2 2A.F ....|E-5 3FBA ....|R-- .... ....
....|..|--- .... ....|--- .... ....|--- .... ....
....|..|E-2 2F.7 ....|A-5 3F8F ....|--- .... ....
....|..|R-- .... ....|A-6 3F.7 ....|--- .... ....
 E-4|..|E-2 2A.F ....|G-5 3F8A ....|--- .... ....
....|..|R-- .... ....|A-6 3F.A ....|--- .... ....
 E-4|..|E-2 2A.F ....|A-5 3F8F ....|C-5 7F.F ....
....|..|--- .... ....|A-6 3F.F ....|--- .... ....
....|..|R-- .... ....|A-5 3F8A ....|--- .... ....
....|..|R-- .... ....|--- .... ....|--- .... ....
 F#4|..|F#2 2A.F ....|E-5 3FBF ....|E-5 8F.F ....
....|..|R-- .... ....|A-6 3F.7 ....|--- .... ....
....|..|E-2 2F.7 ....|A-5 3F8A ....|F#5 8F.F ....
....|..|--- .... ....|A-6 3F.A ....|--- .... ....
 G-4|..|G-2 2A.F ....|G-5 3F8F ....|B-4 7F.F ....
....|..|R-- .... ....|A-6 3F.F ....|--- .... ....
....|..|E-2 2F.7 ....|E-5 3FBA ....|F#5 8F.F ....
....|..|R-- .... ....|A-6 3F.F ....|--- .... ....
 D#4|..|D#2 2A.F ....|A-5 3F8F ....|B-4 7F.F ....
....|..|--- .... ....|A-6 3F.7 ....|--- .... ....
....|..|G-2 2F.A ....|G-5 3F8A ....|B-4 7F.A ....
....|..|R-- .... ....|A-6 3F.A ....|--- .... ....
 D#4|..|D#2 2A.F ....|A-5 3F8F ....|E-5 8F.A ....
....|..|R-- .... ....|A-6 3F.F ....|R-- .... ....
....|..|D#2 2F.A ....|A-5 3F8A ....|B-4 7F.A ....
....|..|--- .... ....|--- .... ....|--- .... ....
 D#4|..|D#2 2A.F ....|D#5 3FCF ....|D#5 8F.F ....
....|..|--- .... ....|A-6 3F.7 ....|--- .... ....
....|..|D#2 2F.A ....|A-5 3F8A ....|F#5 8F.A ....
....|..|R-- .... ....|A-6 3F.7 ....|--- .... ....
 D#4|..|D#2 2A.F ....|D#5 3FCF ....|D#5 8F.A ....
....|..|R-- .... ....|A-6 3F.F ....|--- .... ....
 D#4|..|D#2 2A.F ....|D#5 3FCA ....|--- .... ....
....|..|--- .... ....|A-6 3F.F ....|--- .... ....
....|..|D#2 2F.7 ....|A-5 3F8F ....|E-5 8F.7 ....
....|..|R-- .... ....|A-6 3F.7 ....|R-- .... ....
 D#4|..|D#2 2A.F ....|D#5 3FCA ....|F#5 8F.7 ....
....|..|R-- .... ....|A-6 3F.A ....|--- .... ....
 D#4|..|D#2 2A.F ....|A-5 3F8F ....|C-5 7F.F ....
....|..|--- .... ....|A-6 3F.A ....|--- .... ....
....|..|R-- .... ....|A-6 3F.F ....|F#5 8F.7 ....
....|..|R-- .... ....|--- .... ....|--- .... ....
 F#4|..|F#2 2A.F ....|D#5 3FCF ....|E-5 8F.F ....
....|..|R-- .... ....|A-6 3F.7 ....|--- .... ....
....|..|D#2 2F.7 ....|A-5 3F8A ....|F#5 8F.F ....
....|..|--- .... ....|A-6 3F.7 ....|--- .... ....
 A-3|..|A-2 2C.F ....|A-6 3F.F ....|B-4 7F.F ....
....|..|R-- .... ....|--- .... ....|R-- .... ....
....|..|D#2 2F.7 ....|D#5 3FCA ....|F#5 8F.F ....
....|..|R-- .... ....|A-6 3F.F ....|--- .... ....

[Pattern43]
 D-4|..|D-2 2A.F ....|A-5 3F8F ....|B-4 7F.F ....
....|..|--- .... ....|--- .... ....|--- .... ....
....|..|A-2 2F.A ....|B-4 4F.A ....|B-4 7F.A ....
....|..|R-- .... ....|--- .... ....|--- .... ....
 D-4|..|D-2 2A.F ....|A-5 3F8F ....|E-5 8F.A ....
....|..|R-- .... ....|A-6 3F.F ....|R-- .... ....
....|..|D-2 2F.A ....|A-5 3F8A ....|B-4 7F.A ....
....|..|--- .... ....|--- .... ....|--- .... ....
 D-4|..|D-2 2A.F ....|D-5 3F2F ....|D-5 8F.F ....
....|..|--- .... ....|--- .... ....|--- .... ....
....|..|D-2 2F.A ....|A-5 3F8A ....|F#5 8F.A ....
....|..|R-- .... ....|A-6 3F.7 ....|--- .... ....
 D-4|..|D-2 2A.F ....|D-5 3F2F ....|D-5 8F.A ....
....|..|R-- .... ....|A-6 3F.F ....|--- .... ....
 D-4|..|D-2 2A.F ....|D-5 3F2A ....|--- .... ....
....|..|--- .... ....|--- .... ....|--- .... ....
....|..|D-2 2F.7 ....|A-5 3F8F ....|E-5 8F.7 ....
....|..|R-- .... ....|A-6 3F.7 ....|R-- .... ....
 D-4|..|D-2 2A.F ....|D-5 3F2A ....|F#5 8F.7 ....
....|..|R-- .... ....|A-6 3F.A ....|--- .... ....
 D-4|..|D-2 2A.F ....|A-5 3F8F ....|C-5 7F.F ....
....|..|--- .... ....|A-6 3F.F ....|--- .... ....
....|..|R-- .... ....|A-5 3F8A ....|F#5 8F.7 ....
....|..|R-- .... ....|--- .... ....|--- .... ....
 F#4|..|F#2 2A.F ....|D-5 3F2F ....|E-5 8F.F ....
....|..|R-- .... ....|A-6 3F.7 ....|--- .... ....
....|..|D-2 2F.7 ....|A-5 3F8A ....|F#5 8F.F ....
....|..|--- .... ....|A-6 3F.A ....|--- .... ....
 A-3|..|A-2 2C.F ....|D-5 3F2F ....|B-4 7F.F ....
....|..|R-- .... ....|A-6 3F.F ....|R-- .... ....
....|..|D-2 2F.7 ....|D-5 3F2A ....|F#5 8F.F ....
....|..|R-- .... ....|--- .... ....|--- .... ....
 C#4|..|C#2 2A.F ....|A-6 3F.F ....|B-4 7F.F ....
....|..|--- .... ....|A-6 3F.7 ....|--- .... ....
....|..|A-2 2F.A ....|D-5 3F2A ....|B-4 7F.A ....
....|..|R-- .... ....|A-6 3F.A ....|--- .... ....
 C#4|..|C#2 2A.F ....|A-6 3F.F ....|E-5 8F.A ....
....|..|R-- .... ....|--- .... ....|R-- .... ....
....|..|C#2 2F.A ....|A-6 3F.A ....|B-4 7F.A ....
....|..|--- .... ....|--- .... ....|--- .... ....
 C#4|..|C#2 2A.F ....|C#5 3F7F ....|C#5 8F.F ....
....|..|--- .... ....|A-6 3F.7 ....|--- .... ....
....|..|C#2 2F.A ....|A-6 3F.A ....|F#5 8F.A ....
....|..|R-- .... ....|--- .... ....|--- .... ....
 C#4|..|C#2 2A.F ....|C#5 3F7F ....|C#5 8F.A ....
....|..|--- .... ....|A-6 3F.F ....|--- .... ....
 C#4|..|C#2 2A.F ....|C#5 3F7A ....|--- .... ....
....|..|--- .... ....|--- .... ....|--- .... ....
....|..|C#2 2F.7 ....|A-6 3F.F ....|A-4 7F.F ....
....|..|--- .... ....|--- .... ....|R-- .... ....
 C#4|..|C#2 2A.F ....|C#5 3F7A ....|F#5 8F.7 ....
....|..|--- .... ....|A-6 3F.A ....|--- .... ....
 C#4|..|C#2 2A.F ....|A-6 3F.F ....|G-5 8F.7 ....
....|..|--- .... ....|A-6 3F.F ....|--- .... ....
....|..|R-- .... ....|A-6 3F.A ....|A-4 7F.A ....
....|..|R-- .... ....|--- .... ....|--- .... ....
 F#4|..|F#2 2A.F ....|C#5 3F7F ....|E-5 8F.F ....
....|..|--- .... ....|A-6 3F.7 ....|--- .... ....
....|..|C#2 2F.7 ....|A-6 3F.A ....|F#5 8F.F ....
....|..|--- .... ....|A-6 3F.A ....|--- .... ....
 A-3|..|A-2 2C.F ....|E-5 3F5F ....|G-5 8F.F ....
....|..|R-- .... ....|A-6 3F.F ....|R-- .... ....
....|..|C#2 2F.7 ....|C#5 3F7A ....|F#5 8F.F ....
....|..|R-- .... ....|R-- .... ....|R-- .... ....

[Pattern44]
 C-4|..|C-2 2A.F ....|A-6 3F.F ....|A-4 7F.F ....
....|..|--- .... ....|A-6 3F.7 ....|--- .... ....
....|..|A-2 2F.A ....|E-5 3F5A ....|--- .... ....
....|..|R-- .... ....|A-6 3F.A ....|--- .... ....
 C-4|..|C-2 2A.F ....|A-6 3F.F ....|E-5 8F.A ....
....|..|R-- .... ....|A-6 3F.F ....|R-- .... ....
....|..|C-2 2F.A ....|A-6 3F.A ....|A-4 7F.A ....
....|..|--- .... ....|--- .... ....|--- .... ....
 C-4|..|C-2 2A.F ....|C-5 3F6F ....|C-5 8F.F ....
....|..|--- .... ....|A-6 3F.7 ....|--- .... ....
....|..|C-2 2F.A ....|A-6 3F.A ....|F#5 8F.A ....
....|..|R-- .... ....|A-6 3F.A ....|R-- .... ....
 C-4|..|C-2 2A.F ....|C-5 3F6F ....|C-5 8F.A ....
....|..|R-- .... ....|A-6 3F.F ....|--- .... ....
 C-4|..|C-2 2A.F ....|C-5 3F6A ....|--- .... ....
....|..|--- .... ....|A-6 3F.F ....|R-- .... ....
....|..|C-2 2F.7 ....|A-6 3F.F ....|E-5 8F.7 ....
....|..|R-- .... ....|A-6 3F.7 ....|--- .... ....
 C-4|..|C-2 2A.F ....|C-5 3F6A ....|F#5 8F.7 ....
....|..|R-- .... ....|A-6 3F.A ....|--- .... ....
 C-4|..|C-2 2A.F ....|A-6 3F.F ....|B-4 7F.F ....
....|..|--- .... ....|A-6 3F.F ....|--- .... ....
....|..|R-- .... ....|A-6 3F.A ....|F#5 8F.7 ....
....|..|R-- .... ....|--- .... ....|--- .... ....
 F#4|..|F#2 2A.F ....|C-5 3F6F ....|E-5 8F.F ....
....|..|R-- .... ....|A-6 3F.7 ....|--- .... ....
....|..|C-2 2F.7 ....|A-6 3F.A ....|F#5 8F.F ....
....|..|--- .... ....|A-6 3F.7 ....|R-- .... ....
 A-3|..|A-2 2C.F ....|A-6 3F.F ....|A-4 7F.F ....
....|..|R-- .... ....|--- .... ....|--- .... ....
....|..|C-2 2F.7 ....|C-5 3F6A ....|F#5 8F.F ....
....|..|R-- .... ....|--- .... ....|--- .... ....
 B-3|..|B-1 2A.F ....|G-5 3F8F ....|A-4 7F.F ....
....|..|--- .... ....|A-6 3F.7 ....|--- .... ....
....|..|A-2 2F.A ....|A-6 3F.A ....|A-4 7F.A ....
....|..|R-- .... ....|--- .... ....|--- .... ....
 B-3|..|B-1 2A.F ....|G-5 3F8F ....|E-5 8F.A ....
....|..|R-- .... ....|A-6 3F.F ....|--- .... ....
....|..|B-1 2F.A ....|G-5 3F8A ....|A-4 7F.A ....
....|..|--- .... ....|--- .... ....|R-- .... ....
 B-3|..|B-1 2A.F ....|B-4 3F9F ....|B-4 8F.F ....
....|..|--- .... ....|--- .... ....|--- .... ....
....|..|B-1 2F.A ....|G-5 3F8A ....|F#5 8F.A ....
....|..|R-- .... ....|A-6 3F.A ....|--- .... ....
 B-3|..|B-1 2A.F ....|B-4 3F9F ....|B-4 8F.A ....
....|..|--- .... ....|A-6 3F.F ....|--- .... ....
 B-3|..|B-1 2A.F ....|B-4 3F9A ....|--- .... ....
....|..|--- .... ....|--- .... ....|R-- .... ....
....|..|B-1 2F.7 ....|G-5 3F8F ....|G-4 7F.F ....
....|..|--- .... ....|A-6 3F.7 ....|--- .... ....
 B-3|..|B-1 2A.F ....|B-4 3F9A ....|F#5 8F.7 ....
....|..|--- .... ....|A-6 3F.A ....|--- .... ....
 B-3|..|B-1 2A.F ....|G-5 3F8F ....|G-5 8F.7 ....
....|..|--- .... ....|A-6 3F.F ....|--- .... ....
....|..|R-- .... ....|G-5 3F8A ....|G-4 7F.A ....
....|..|R-- .... ....|--- .... ....|--- .... ....
 F#4|..|F#2 2A.F ....|B-4 3F9F ....|E-5 8F.F ....
....|..|--- .... ....|A-6 3F.7 ....|--- .... ....
....|..|B-1 2F.7 ....|G-5 3F8A ....|F#5 8F.F ....
....|..|--- .... ....|A-6 3F.A ....|R-- .... ....
 G-4|..|G-2 2A.F ....|B-4 3F9F ....|G-5 8F.F ....
....|..|R-- .... ....|A-6 3F.F ....|--- .... ....
....|..|B-1 2F.7 ....|B-4 3F9A ....|F#5 8F.F ....
....|..|R-- .... ....|R-- .... ....|R-- .... ....

[Pattern45]
 A-3|..|A-2 2C.F ....|G-5 3F8F ....|G-4 7F.F ....
....|..|--- .... ....|A-6 3F.7 ....|--- .... ....
....|..|G-2 2F.A ....|B-4 3F9A ....|--- .... ....
....|..|R-- .... ....|A-6 3F.A ....|--- .... ....
 A-3|..|A-2 2C.F ....|G-5 3F8F ....|E-5 8F.A ....
....|..|R-- .... ....|A-6 3F.F ....|R-- .... ....
....|..|A-2 2F.A ....|G-5 3F8A ....|G-4 7F.A ....
....|..|--- .... ....|--- .... ....|R-- .... ....
 A-3|..|A-2 2C.F ....|C-5 3F6F ....|C-5 8F.F ....
....|..|--- .... ....|A-6 3F.7 ....|--- .... ....
....|..|A-2 2F.A ....|G-5 3F8A ....|F#5 8F.A ....
....|..|R-- .... ....|A-6 3F.A ....|R-- .... ....
 A-3|..|A-2 2C.F ....|C-5 3F6F ....|C-5 8F.A ....
....|..|--- .... ....|A-6 3F.F ....|--- .... ....
 A-3|..|A-2 2C.F ....|C-5 3F6A ....|--- .... ....
....|..|--- .... ....|--- .... ....|R-- .... ....
....|..|A-2 2F.7 ....|G-5 3F8F ....|E-5 8F.7 ....
....|..|--- .... ....|A-6 3F.7 ....|R-- .... ....
 A-3|..|A-2 2C.F ....|C-5 3F6A ....|F#5 8F.7 ....
....|..|--- .... ....|A-6 3F.A ....|--- .... ....
 A-3|..|A-2 2C.F ....|G-5 3F8F ....|A-4 7F.F ....
....|..|--- .... ....|A-6 3F.F ....|--- .... ....
....|..|R-- .... ....|G-5 3F8A ....|F#5 8F.7 ....
....|..|R-- .... ....|--- .... ....|--- .... ....
 A-3|..|A-2 2C.F ....|C-5 3F6F ....|E-5 8F.F ....
....|..|--- .... ....|A-6 3F.7 ....|--- .... ....
....|..|A-2 2F.7 ....|G-5 3F8A ....|F#5 8F.F ....
....|..|--- .... ....|E-5 3F5F ....|R-- .... ....
 A-3|..|A-2 2C.F ....|A-6 3F.F ....|G-4 7F.F ....
....|..|R-- .... ....|--- .... ....|R-- .... ....
....|..|A-2 2F.7 ....|C-5 3F6A ....|F#5 8F.F ....
....|..|R-- .... ....|--- .... ....|--- .... ....
 B-4|..|B-2 2A.F ....|D#5 3FAF ....|F#4 7F.F ....
....|..|--- .... ....|D#5 3FAF ....|--- .... ....
....|..|A-2 2F.A ....|A-6 3F.A ....|G-4 7F.A ....
....|..|R-- .... ....|--- .... ....|--- .... ....
 B-4|..|B-2 2A.F ....|C-5 3F67 ....|E-5 8F.A ....
....|..|R-- .... ....|--- .... ....|R-- .... ....
....|..|B-2 2F.A ....|D#5 3FAA ....|F#4 7F.A ....
....|..|--- .... ....|E-5 3F57 ....|R-- .... ....
 A-3|..|A-2 2C.F ....|A-6 3F.7 ....|D#5 8F.F ....
....|..|--- .... ....|--- .... ....|--- .... ....
....|..|B-2 2F.A ....|--- .... ....|F#5 8F.A ....
....|..|R-- .... ....|--- .... ....|--- .... ....
 A-3|..|A-2 2C.F ....|D#5 3FA7 ....|D#5 8F.A ....
....|..|--- .... ....|D#5 3FA7 ....|--- .... ....
 F#4|..|F#2 2A.F ....|--- .... ....|--- .... ....
....|..|--- .... ....|--- .... ....|R-- .... ....
....|..|B-2 2F.7 ....|--- .... ....|E-5 8F.7 ....
....|..|--- .... ....|--- .... ....|R-- .... ....
 F#4|..|F#2 2A.F ....|--- .... ....|F#5 8F.7 ....
....|..|--- .... ....|--- .... ....|--- .... ....
 F#4|..|F#2 2A.F ....|--- .... ....|G-5 8F.7 ....
....|..|--- .... ....|--- .... ....|--- .... ....
....|..|R-- .... ....|--- .... ....|F#5 8F.7 ....
....|..|R-- .... ....|--- .... ....|--- .... ....
 D#4|..|D#2 2A.F ....|R-- .... ....|D#5 8F.7 ....
....|..|--- .... ....|--- .... ....|--- .... ....
....|..|F#2 2F.7 ....|--- .... ....|A-5 2F.F ....
....|..|--- .... ....|--- .... ....|R-- .... ....
 D#4|..|D#2 2A.F ....|--- .... ....|B-5 2F.F ....
....|..|R-- .... ....|--- .... ....|R-- .... ....
....|..|F#2 2F.7 ....|R-- .... ....|D#6 2F.F ....
....|..|R-- .... ....|--- .... ....|--- .... ....

[Pattern46]
....|..|F#2 2F.7 ....|G-4 3F3F ....|B-4 7F.F ....
....|..|--- .... ....|--- .... ....|--- .... ....
....|..|D#2 2F.A ....|--- .... ....|B-5 2F.A ....
....|..|R-- .... ....|--- .... ....|--- .... ....
....|..|D#2 2F.7 ....|R-- .... ....|D#6 2F.A ....
....|..|R-- .... ....|--- .... ....|--- .... ....
....|..|--- .... ....|G-4 3F3A ....|B-4 7F.A ....
....|..|--- .... ....|--- .... ....|R-- .... ....
....|..|D#2 2F.7 ....|--- .... ....|B-5 2F.7 ....
....|..|--- .... ....|--- .... ....|--- .... ....
....|..|--- .... ....|--- .... ....|D#6 2F.7 ....
....|..|R-- .... ....|--- .... ....|--- .... ....
....|..|--- .... ....|G-4 3F37 ....|B-4 7F.7 ....
....|..|--- .... ....|--- .... ....|--- .... ....
....|..|--- .... ....|--- .... ....|--- .... ....
....|..|--- .... ....|--- .... ....|--- .... ....
....|..|--- .... ....|--- .... ....|--- .... ....
....|..|--- .... ....|--- .... ....|--- .... ....
....|..|--- .... ....|--- .... ....|--- .... ....
....|..|--- .... ....|--- .... ....|--- .... ....
....|..|--- .... ....|C-5 4F.F ....|C-5 7F.F ....
....|..|--- .... ....|--- .... ....|--- .... ....
....|..|--- .... ....|--- .... ....|--- .... ....
....|..|--- .... ....|--- .... ....|--- .... ....
....|..|--- .... ....|--- .... ....|--- .... ....
....|..|--- .... ....|--- .... ....|--- .... ....
....|..|--- .... ....|C-5 4F.A ....|C-5 7F.A ....
....|..|--- .... ....|--- .... ....|--- .... ....
....|..|--- .... ....|B-4 4F.F ....|B-4 7F.F ....
....|..|--- .... ....|--- .... ....|--- .... ....
....|..|--- .... ....|--- .... ....|--- .... ....
....|..|--- .... ....|--- .... ....|--- .... ....
....|..|--- .... ....|F#4 3F5F ....|B-4 7F.F ....
....|..|--- .... ....|--- .... ....|--- .... ....
....|..|--- .... ....|B-4 4F.A ....|B-4 7F.A ....
....|..|--- .... ....|--- .... ....|--- .... ....
....|..|--- .... ....|--- .... ....|--- .... ....
....|..|--- .... ....|--- .... ....|--- .... ....
....|..|--- .... ....|F#4 2FFF ....|B-4 7F.A ....
....|..|--- .... ....|R-- .... ....|--- .... ....
....|..|--- .... ....|F#4 2FFF ....|B-4 7F.7 ....
....|..|--- .... ....|--- .... ....|--- .... ....
....|..|--- .... ....|--- .... ....|--- .... ....
....|..|--- .... ....|--- .... ....|--- .... ....
....|..|--- .... ....|F#4 2FFA ....|B-4 7F.7 ....
....|..|--- .... ....|R-- .... ....|--- .... ....
....|..|--- .... ....|D#4 2F7F ....|--- .... ....
....|..|--- .... ....|R-- .... ....|--- .... ....
....|..|--- .... ....|D#4 2F7F ....|--- .... ....
....|..|--- .... ....|--- .... ....|--- .... ....
....|..|--- .... ....|F#4 2FF7 ....|--- .... ....
....|..|--- .... ....|R-- .... ....|--- .... ....
....|..|--- .... ....|C-5 4F.F ....|C-5 7F.F ....
....|..|--- .... ....|R-- .... ....|--- .... ....
....|..|--- .... ....|B-4 2F2F ....|--- .... ....
....|..|--- .... ....|R-- .... ....|--- .... ....
....|..|--- .... ....|B-4 2F2F ....|--- .... ....
....|..|--- .... ....|R-- .... ....|--- .... ....
....|..|--- .... ....|C-5 4F.A ....|C-5 7F.A ....
....|..|--- .... ....|R-- .... ....|--- .... ....
....|..|--- .... ....|B-4 4F.F ....|B-4 7F.F ....
....|..|--- .... ....|R-- .... ....|--- .... ....
....|..|--- .... ....|B-4 2F2A ....|--- .... ....
....|..|--- .... ....|R-- .... ....|--- .... ....

[Pattern47]
....|..|--- .... ....|F#4 3F5F ....|B-4 7F.F ....
....|..|--- .... ....|R-- .... ....|--- .... ....
....|..|--- .... ....|B-4 4F.A ....|B-4 7F.A ....
....|..|--- .... ....|R-- .... ....|--- .... ....
....|..|--- .... ....|B-4 2F27 ....|--- .... ....
....|..|--- .... ....|R-- .... ....|--- .... ....
....|..|--- .... ....|F#4 3F5A ....|B-4 7F.A ....
....|..|--- .... ....|--- .... ....|--- .... ....
....|..|--- .... ....|B-4 4F.7 ....|B-4 7F.7 ....
....|..|--- .... ....|--- .... ....|--- .... ....
....|..|--- .... ....|--- .... ....|--- .... ....
....|..|--- .... ....|R-- .... ....|--- .... ....
....|..|--- .... ....|F#4 3F57 ....|B-4 7F.7 ....
....|..|--- .... ....|--- .... ....|--- .... ....
....|..|--- .... ....|--- .... ....|--- .... ....
....|..|--- .... ....|--- .... ....|--- .... ....
....|..|--- .... ....|--- .... ....|--- .... ....
....|..|--- .... ....|--- .... ....|--- .... ....
....|..|--- .... ....|--- .... ....|--- .... ....
....|..|--- .... ....|--- .... ....|--- .... ....
....|..|--- .... ....|C-5 4F.F ....|C-5 7F.F ....
....|..|--- .... ....|--- .... ....|--- .... ....
....|..|--- .... ....|--- .... ....|--- .... ....
....|..|--- .... ....|--- .... ....|--- .... ....
....|..|--- .... ....|--- .... ....|--- .... ....
....|..|--- .... ....|--- .... ....|--- .... ....
....|..|--- .... ....|C-5 4F.A ....|C-5 7F.A ....
....|..|--- .... ....|--- .... ....|--- .... ....
....|..|--- .... ....|B-4 4F.F ....|B-4 7F.F ....
....|..|--- .... ....|--- .... ....|--- .... ....
....|..|--- .... ....|--- .... ....|--- .... ....
....|..|--- .... ....|--- .... ....|--- .... ....
....|..|--- .... ....|E-4 3F5F ....|B-4 7F.F ....
....|..|--- .... ....|--- .... ....|--- .... ....
....|..|--- .... ....|B-4 4F.A ....|B-4 7F.A ....
....|..|--- .... ....|--- .... ....|--- .... ....
....|..|--- .... ....|--- .... ....|--- .... ....
....|..|--- .... ....|--- .... ....|--- .... ....
....|..|--- .... ....|A-4 2F2F ....|B-4 7F.A ....
....|..|--- .... ....|R-- .... ....|--- .... ....
....|..|--- .... ....|A-4 2F2F ....|B-4 7F.7 ....
....|..|--- .... ....|--- .... ....|--- .... ....
....|..|--- .... ....|--- .... ....|--- .... ....
....|..|--- .... ....|--- .... ....|--- .... ....
....|..|--- .... ....|A-4 2F2A ....|B-4 7F.7 ....
....|..|--- .... ....|R-- .... ....|--- .... ....
....|..|--- .... ....|E-4 2FFF ....|--- .... ....
....|..|--- .... ....|R-- .... ....|--- .... ....
....|..|--- .... ....|A-4 4F.F ....|A-4 7F.F ....
....|..|--- .... ....|--- .... ....|--- .... ....
....|..|--- .... ....|A-4 2F27 ....|--- .... ....
....|..|--- .... ....|R-- .... ....|--- .... ....
....|..|--- .... ....|A-4 2F27 ....|--- .... ....
....|..|--- .... ....|R-- .... ....|--- .... ....
....|..|--- .... ....|C#4 2F7F ....|A-4 7F.A ....
....|..|--- .... ....|R-- .... ....|--- .... ....
....|..|--- .... ....|C#4 2F7F ....|--- .... ....
....|..|--- .... ....|R-- .... ....|--- .... ....
....|..|--- .... ....|E-4 2FF7 ....|--- .... ....
....|..|--- .... ....|R-- .... ....|--- .... ....
....|..|--- .... ....|A-4 4F.7 ....|A-4 7F.7 ....
....|..|--- .... ....|R-- .... ....|--- .... ....
....|..|--- .... ....|C#4 2F7A ....|--- .... ....
....|..|--- .... ....|R-- .... ....|R-- .... ....

[Pattern48]
....|..|--- .... ....|E-4 3F5F ....|A-4 7F.F ....
....|..|--- .... ....|R-- .... ....|--- .... ....
....|..|--- .... ....|C#4 2F77 ....|--- .... ....
....|..|--- .... ....|R-- .... ....|--- .... ....
....|..|--- .... ....|C#4 2F77 ....|--- .... ....
....|..|--- .... ....|R-- .... ....|R-- .... ....
....|..|--- .... ....|E-4 3F5A ....|A-4 7F.A ....
....|..|--- .... ....|--- .... ....|--- .... ....
....|..|--- .... ....|--- .... ....|--- .... ....
....|..|--- .... ....|--- .... ....|--- .... ....
....|..|--- .... ....|--- .... ....|--- .... ....
....|..|--- .... ....|R-- .... ....|R-- .... ....
....|..|--- .... ....|E-4 3F57 ....|A-4 7F.7 ....
....|..|--- .... ....|--- .... ....|--- .... ....
....|..|--- .... ....|--- .... ....|--- .... ....
....|..|--- .... ....|--- .... ....|--- .... ....
....|..|--- .... ....|--- .... ....|--- .... ....
....|..|--- .... ....|--- .... ....|--- .... ....
....|..|--- .... ....|--- .... ....|--- .... ....
....|..|--- .... ....|--- .... ....|--- .... ....
....|..|--- .... ....|B-4 4F.F ....|B-4 7F.F ....
....|..|--- .... ....|--- .... ....|--- .... ....
....|..|--- .... ....|--- .... ....|--- .... ....
....|..|--- .... ....|--- .... ....|--- .... ....
....|..|--- .... ....|--- .... ....|--- .... ....
....|..|--- .... ....|--- .... ....|--- .... ....
....|..|--- .... ....|B-4 4F.A ....|B-4 7F.A ....
....|..|--- .... ....|--- .... ....|--- .... ....
....|..|--- .... ....|A-4 4F.F ....|A-4 7F.F ....
....|..|--- .... ....|--- .... ....|--- .... ....
....|..|--- .... ....|--- .... ....|--- .... ....
....|..|--- .... ....|--- .... ....|--- .... ....
....|..|--- .... ....|E-4 3F1F ....|A-4 7F.F ....
....|..|--- .... ....|--- .... ....|--- .... ....
....|..|--- .... ....|A-4 4F.A ....|A-4 7F.A ....
....|..|--- .... ....|--- .... ....|--- .... ....
....|..|--- .... ....|--- .... ....|--- .... ....
....|..|--- .... ....|--- .... ....|--- .... ....
....|..|--- .... ....|G-4 2F6F ....|A-4 7F.A ....
....|..|--- .... ....|R-- .... ....|--- .... ....
....|..|--- .... ....|G-4 2F6F ....|A-4 7F.7 ....
....|..|--- .... ....|--- .... ....|--- .... ....
....|..|--- .... ....|--- .... ....|--- .... ....
....|..|--- .... ....|--- .... ....|--- .... ....
....|..|--- .... ....|G-4 2F6A ....|A-4 7F.7 ....
....|..|--- .... ....|R-- .... ....|--- .... ....
....|..|--- .... ....|E-4 2F4F ....|--- .... ....
....|..|--- .... ....|R-- .... ....|--- .... ....
....|..|--- .... ....|G-4 4F.F ....|G-4 7F.F ....
....|..|--- .... ....|--- .... ....|--- .... ....
....|..|--- .... ....|G-4 2F67 ....|--- .... ....
....|..|--- .... ....|R-- .... ....|--- .... ....
....|..|--- .... ....|G-4 2F67 ....|--- .... ....
....|..|--- .... ....|R-- .... ....|--- .... ....
....|..|--- .... ....|B-4 2FDF ....|G-4 7F.A ....
....|..|--- .... ....|R-- .... ....|--- .... ....
....|..|--- .... ....|B-4 2FDF ....|--- .... ....
....|..|--- .... ....|R-- .... ....|--- .... ....
....|..|--- .... ....|E-4 2F47 ....|--- .... ....
....|..|--- .... ....|R-- .... ....|--- .... ....
....|..|--- .... ....|G-4 4F.7 ....|G-4 7F.7 ....
....|..|--- .... ....|R-- .... ....|--- .... ....
....|..|--- .... ....|B-4 2FDA ....|--- .... ....
....|..|--- .... ....|R-- .... ....|R-- .... ....

[Pattern49]
....|..|--- .... ....|E-4 3F1F ....|G-4 7F.F ....
....|..|--- .... ....|R-- .... ....|--- .... ....
....|..|--- .... ....|B-4 2FD7 ....|--- .... ....
....|..|--- .... ....|R-- .... ....|--- .... ....
....|..|--- .... ....|B-4 2FD7 ....|--- .... ....
....|..|--- .... ....|R-- .... ....|R-- .... ....
....|..|--- .... ....|E-4 3F1A ....|G-4 7F.A ....
....|..|--- .... ....|--- .... ....|--- .... ....
....|..|--- .... ....|--- .... ....|--- .... ....
....|..|--- .... ....|--- .... ....|--- .... ....
....|..|--- .... ....|--- .... ....|--- .... ....
....|..|--- .... ....|R-- .... ....|R-- .... ....
....|..|--- .... ....|E-4 3F17 ....|G-4 7F.7 ....
....|..|--- .... ....|--- .... ....|--- .... ....
....|..|--- .... ....|--- .... ....|--- .... ....
....|..|--- .... ....|--- .... ....|--- .... ....
....|..|--- .... ....|--- .... ....|--- .... ....
....|..|--- .... ....|--- .... ....|--- .... ....
....|..|--- .... ....|--- .... ....|--- .... ....
....|..|--- .... ....|--- .... ....|--- .... ....
....|..|--- .... ....|A-4 4F.F ....|A-4 7F.F ....
....|..|--- .... ....|--- .... ....|--- .... ....
....|..|--- .... ....|--- .... ....|--- .... ....
....|..|--- .... ....|--- .... ....|--- .... ....
....|..|--- .... ....|--- .... ....|--- .... ....
....|..|--- .... ....|--- .... ....|--- .... ....
....|..|--- .... ....|A-4 4F.A ....|A-4 7F.A ....
....|..|--- .... ....|--- .... ....|--- .... ....
....|..|--- .... ....|G-4 4F.F ....|G-4 7F.F ....
....|..|--- .... ....|--- .... ....|--- .... ....
....|..|--- .... ....|--- .... ....|--- .... ....
....|..|--- .... ....|--- .... ....|--- .... ....
....|..|--- .... ....|F#4 3F5F ....|B-4 7F.F ....
....|..|--- .... ....|--- .... ....|--- .... ....
....|..|--- .... ....|G-4 4F.A ....|G-4 7F.A ....
....|..|--- .... ....|--- .... ....|--- .... ....
....|..|--- .... ....|--- .... ....|--- .... ....
....|..|--- .... ....|--- .... ....|--- .... ....
....|..|--- .... ....|F#4 2FFF ....|B-4 7F.A ....
....|..|--- .... ....|R-- .... ....|--- .... ....
....|..|--- .... ....|F#4 2FFF ....|G-4 7F.7 ....
....|..|--- .... ....|--- .... ....|--- .... ....
....|..|--- .... ....|--- .... ....|--- .... ....
....|..|--- .... ....|--- .... ....|--- .... ....
....|..|--- .... ....|F#4 2FFA ....|B-4 7F.7 ....
....|..|--- .... ....|R-- .... ....|--- .... ....
....|..|--- .... ....|D#4 2F7F ....|--- .... ....
....|..|--- .... ....|R-- .... ....|--- .... ....
....|..|--- .... ....|D#4 2F7F ....|--- .... ....
....|..|--- .... ....|--- .... ....|--- .... ....
....|..|--- .... ....|F#4 2FF7 ....|--- .... ....
....|..|--- .... ....|R-- .... ....|--- .... ....
....|..|--- .... ....|F#4 2FF7 ....|--- .... ....
....|..|--- .... ....|R-- .... ....|--- .... ....
....|..|--- .... ....|B-4 2F2F ....|--- .... ....
....|..|--- .... ....|R-- .... ....|--- .... ....
....|..|--- .... ....|B-4 2F2F ....|R-- .... ....
....|..|--- .... ....|R-- .... ....|--- .... ....
....|..|--- .... ....|D#4 2F77 ....|A-5 2F.F ....
....|..|--- .... ....|R-- .... ....|--- .... ....
....|..|--- .... ....|D#4 2F77 ....|B-5 2F.F ....
....|..|--- .... ....|R-- .... ....|--- .... ....
....|..|--- .... ....|B-4 2F2A ....|D#6 2F.F ....
....|..|--- .... ....|R-- .... ....|--- .... ....

[Pattern50]
 E-4|..|E-2 2A.F ....|A-5 3F8F ....|B-4 7F.F ....
....|..|--- .... ....|R-- .... ....|--- .... ....
....|..|R-- .... ....|B-4 2F27 ....|B-5 2F.A ....
....|..|--- .... ....|R-- .... ....|--- .... ....
 E-4|..|E-2 2A.F ....|A-5 3F8F ....|D#6 2F.A ....
....|..|--- .... ....|A-6 3F.F ....|--- .... ....
....|..|E-2 2F.A ....|A-5 3F8A ....|B-4 7F.A ....
....|..|--- .... ....|--- .... ....|--- .... ....
 E-4|..|E-2 2A.F ....|E-5 3FBF ....|E-5 8F.F ....
....|..|--- .... ....|--- .... ....|--- .... ....
....|..|E-2 2F.A ....|A-5 3F8A ....|D#6 2F.7 ....
....|..|--- .... ....|A-6 3F.A ....|--- .... ....
 E-4|..|E-2 2A.F ....|G-5 3F8F ....|E-5 8F.A ....
....|..|R-- .... ....|A-6 3F.F ....|--- .... ....
 E-4|..|E-2 2A.F ....|E-5 3FBA ....|R-- .... ....
....|..|--- .... ....|--- .... ....|--- .... ....
....|..|E-2 2F.7 ....|A-5 3F8F ....|--- .... ....
....|..|R-- .... ....|A-6 3F.7 ....|--- .... ....
 E-4|..|E-2 2A.F ....|G-5 3F8A ....|--- .... ....
....|..|R-- .... ....|A-6 3F.A ....|--- .... ....
 E-4|..|E-2 2A.F ....|A-5 3F8F ....|C-5 7F.F ....
....|..|--- .... ....|A-6 3F.F ....|--- .... ....
....|..|R-- .... ....|A-5 3F8A ....|--- .... ....
....|..|R-- .... ....|--- .... ....|--- .... ....
 F#4|..|F#2 2A.F ....|E-5 3FBF ....|E-5 8F.F ....
....|..|R-- .... ....|A-6 3F.7 ....|--- .... ....
....|..|E-2 2F.7 ....|A-5 3F8A ....|F#5 8F.F ....
....|..|--- .... ....|A-6 3F.A ....|--- .... ....
 G-4|..|G-2 2A.F ....|G-5 3F8F ....|B-4 7F.F ....
....|..|R-- .... ....|A-6 3F.F ....|--- .... ....
....|..|E-2 2F.7 ....|E-5 3FBA ....|F#5 8F.F ....
....|..|R-- .... ....|A-6 3F.F ....|--- .... ....
 D#4|..|D#2 2A.F ....|A-5 3F8F ....|B-4 7F.F ....
....|..|--- .... ....|A-6 3F.7 ....|--- .... ....
....|..|G-2 2F.A ....|G-5 3F8A ....|B-4 7F.A ....
....|..|R-- .... ....|A-6 3F.A ....|--- .... ....
 D#4|..|D#2 2A.F ....|A-5 3F8F ....|E-5 8F.A ....
....|..|R-- .... ....|A-6 3F.F ....|R-- .... ....
....|..|D#2 2F.A ....|F#4 2FFF ....|B-4 7F.A ....
....|..|--- .... ....|R-- .... ....|--- .... ....
 D#4|..|D#2 2A.F ....|D#5 3FCF ....|D#5 8F.F ....
....|..|--- .... ....|A-6 3F.7 ....|--- .... ....
....|..|D#2 2F.A ....|A-5 3F8A ....|F#5 8F.A ....
....|..|R-- .... ....|A-6 3F.7 ....|--- .... ....
 D#4|..|D#2 2A.F ....|D#5 3FCF ....|D#5 8F.A ....
....|..|R-- .... ....|A-6 3F.F ....|--- .... ....
 D#4|..|D#2 2A.F ....|D#4 2F7F ....|--- .... ....
....|..|--- .... ....|A-6 3F.F ....|--- .... ....
....|..|D#2 2F.7 ....|A-5 3F8F ....|E-5 8F.7 ....
....|..|R-- .... ....|A-6 3F.7 ....|R-- .... ....
 D#4|..|D#2 2A.F ....|D#5 3FCA ....|F#5 8F.7 ....
....|..|R-- .... ....|A-6 3F.A ....|--- .... ....
 D#4|..|D#2 2A.F ....|A-5 3F8F ....|C-5 7F.F ....
....|..|--- .... ....|A-6 3F.A ....|--- .... ....
....|..|R-- .... ....|A-6 3F.F ....|F#5 8F.7 ....
....|..|R-- .... ....|R-- .... ....|--- .... ....
 F#4|..|F#2 2A.F ....|D#5 3FCF ....|E-5 8F.F ....
....|..|R-- .... ....|A-6 3F.7 ....|--- .... ....
....|..|D#2 2F.7 ....|A-5 3F8A ....|F#5 8F.F ....
....|..|--- .... ....|R-- .... ....|--- .... ....
 A-3|..|A-2 2C.F ....|A-6 3F.F ....|B-4 7F.F ....
....|..|R-- .... ....|R-- .... ....|R-- .... ....
....|..|D#2 2F.7 ....|D#5 3FCA ....|F#5 8F.F ....
....|..|R-- .... ....|A-6 3F.F ....|--- .... ....

[Pattern51]
 D-4|..|D-2 2A.F ....|A-5 3F8F ....|B-4 7F.F ....
....|..|--- .... ....|R-- .... ....|--- .... ....
....|..|A-2 2F.A ....|B-4 4F.A ....|B-4 7F.A ....
....|..|R-- .... ....|R-- .... ....|--- .... ....
 D-4|..|D-2 2A.F ....|A-5 3F8F ....|E-5 8F.A ....
....|..|R-- .... ....|A-6 3F.F ....|R-- .... ....
....|..|D-2 2F.A ....|A-5 3F8A ....|B-4 7F.A ....
....|..|--- .... ....|--- .... ....|--- .... ....
 D-4|..|D-2 2A.F ....|D-5 3F2F ....|D-5 8F.F ....
....|..|--- .... ....|--- .... ....|--- .... ....
....|..|D-2 2F.A ....|A-5 3F8A ....|F#5 8F.A ....
....|..|R-- .... ....|A-6 3F.7 ....|--- .... ....
 D-4|..|D-2 2A.F ....|D-5 3F2F ....|D-5 8F.A ....
....|..|R-- .... ....|A-6 3F.F ....|--- .... ....
 D-4|..|D-2 2A.F ....|D-5 3F2A ....|--- .... ....
....|..|--- .... ....|--- .... ....|--- .... ....
....|..|D-2 2F.7 ....|A-5 3F8F ....|E-5 8F.7 ....
....|..|R-- .... ....|A-6 3F.7 ....|R-- .... ....
 D-4|..|D-2 2A.F ....|D-5 3F2A ....|F#5 8F.7 ....
....|..|R-- .... ....|A-6 3F.A ....|--- .... ....
 D-4|..|D-2 2A.F ....|A-5 3F8F ....|C-5 7F.F ....
....|..|--- .... ....|A-6 3F.F ....|--- .... ....
....|..|R-- .... ....|A-5 3F8A ....|F#5 8F.7 ....
....|..|R-- .... ....|--- .... ....|--- .... ....
 F#4|..|F#2 2A.F ....|D-5 3F2F ....|E-5 8F.F ....
....|..|R-- .... ....|A-6 3F.7 ....|--- .... ....
....|..|D-2 2F.7 ....|A-5 3F8A ....|F#5 8F.F ....
....|..|--- .... ....|A-6 3F.A ....|--- .... ....
 A-3|..|A-2 2C.F ....|D-5 3F2F ....|B-4 7F.F ....
....|..|R-- .... ....|A-6 3F.F ....|R-- .... ....
....|..|D-2 2F.7 ....|D-5 3F2A ....|F#5 8F.F ....
....|..|R-- .... ....|--- .... ....|--- .... ....
 C#4|..|C#2 2A.F ....|A-6 3F.F ....|B-4 7F.F ....
....|..|--- .... ....|A-6 3F.7 ....|--- .... ....
....|..|A-2 2F.A ....|D-5 3F2A ....|B-4 7F.A ....
....|..|R-- .... ....|A-6 3F.A ....|--- .... ....
 C#4|..|C#2 2A.F ....|A-6 3F.F ....|E-5 8F.A ....
....|..|R-- .... ....|--- .... ....|R-- .... ....
....|..|C#2 2F.A ....|A-4 2F2F ....|B-4 7F.A ....
....|..|--- .... ....|R-- .... ....|--- .... ....
 C#4|..|C#2 2A.F ....|C#5 3F7F ....|C#5 8F.F ....
....|..|--- .... ....|A-6 3F.7 ....|--- .... ....
....|..|C#2 2F.A ....|A-6 3F.A ....|F#5 8F.A ....
....|..|R-- .... ....|--- .... ....|--- .... ....
 C#4|..|C#2 2A.F ....|C#5 3F7F ....|C#5 8F.A ....
....|..|--- .... ....|A-6 3F.F ....|--- .... ....
 C#4|..|C#2 2A.F ....|E-4 2FFF ....|--- .... ....
....|..|--- .... ....|R-- .... ....|--- .... ....
....|..|C#2 2F.7 ....|A-6 3F.F ....|A-4 7F.F ....
....|..|--- .... ....|--- .... ....|R-- .... ....
 C#4|..|C#2 2A.F ....|C#5 3F7A ....|F#5 8F.7 ....
....|..|--- .... ....|A-6 3F.A ....|--- .... ....
 C#4|..|C#2 2A.F ....|A-6 3F.F ....|G-5 8F.7 ....
....|..|--- .... ....|A-6 3F.F ....|--- .... ....
....|..|R-- .... ....|C#4 2F7F ....|A-4 7F.A ....
....|..|R-- .... ....|R-- .... ....|--- .... ....
 F#4|..|F#2 2A.F ....|C#5 3F7F ....|E-5 8F.F ....
....|..|--- .... ....|A-6 3F.7 ....|--- .... ....
....|..|C#2 2F.7 ....|A-6 3F.A ....|F#5 8F.F ....
....|..|--- .... ....|A-6 3F.A ....|--- .... ....
 A-3|..|A-2 2C.F ....|E-5 3F5F ....|G-5 8F.F ....
....|..|R-- .... ....|A-6 3F.F ....|R-- .... ....
....|..|C#2 2F.7 ....|C#5 3F7A ....|F#5 8F.F ....
....|..|R-- .... ....|R-- .... ....|R-- .... ....

[Pattern52]
 C-4|..|C-2 2A.F ....|A-6 3F.F ....|A-4 7F.F ....
....|..|--- .... ....|A-6 3F.7 ....|--- .... ....
....|..|A-2 2F.A ....|E-5 3F5A ....|--- .... ....
....|..|R-- .... ....|A-6 3F.A ....|--- .... ....
 C-4|..|C-2 2A.F ....|A-6 3F.F ....|E-5 8F.A ....
....|..|R-- .... ....|A-6 3F.F ....|R-- .... ....
....|..|C-2 2F.A ....|A-6 3F.A ....|A-4 7F.A ....
....|..|--- .... ....|--- .... ....|--- .... ....
 C-4|..|C-2 2A.F ....|C-5 3F6F ....|C-5 8F.F ....
....|..|--- .... ....|A-6 3F.7 ....|--- .... ....
....|..|C-2 2F.A ....|A-6 3F.A ....|F#5 8F.A ....
....|..|R-- .... ....|A-6 3F.A ....|R-- .... ....
 C-4|..|C-2 2A.F ....|C-5 3F6F ....|C-5 8F.A ....
....|..|R-- .... ....|A-6 3F.F ....|--- .... ....
 C-4|..|C-2 2A.F ....|C-5 3F6A ....|--- .... ....
....|..|--- .... ....|A-6 3F.F ....|R-- .... ....
....|..|C-2 2F.7 ....|A-6 3F.F ....|E-5 8F.7 ....
....|..|R-- .... ....|A-6 3F.7 ....|--- .... ....
 C-4|..|C-2 2A.F ....|C-5 3F6A ....|F#5 8F.7 ....
....|..|R-- .... ....|A-6 3F.A ....|--- .... ....
 C-4|..|C-2 2A.F ....|A-6 3F.F ....|B-4 7F.F ....
....|..|--- .... ....|A-6 3F.F ....|--- .... ....
....|..|R-- .... ....|A-6 3F.A ....|F#5 8F.7 ....
....|..|R-- .... ....|--- .... ....|--- .... ....
 F#4|..|F#2 2A.F ....|C-5 3F6F ....|E-5 8F.F ....
....|..|R-- .... ....|A-6 3F.7 ....|--- .... ....
....|..|C-2 2F.7 ....|A-6 3F.A ....|F#5 8F.F ....
....|..|--- .... ....|A-6 3F.7 ....|R-- .... ....
 A-3|..|A-2 2C.F ....|A-6 3F.F ....|A-4 7F.F ....
....|..|R-- .... ....|--- .... ....|--- .... ....
....|..|C-2 2F.7 ....|C-5 3F6A ....|F#5 8F.F ....
....|..|R-- .... ....|--- .... ....|--- .... ....
 B-3|..|B-1 2A.F ....|G-5 3F8F ....|A-4 7F.F ....
....|..|--- .... ....|A-6 3F.7 ....|--- .... ....
....|..|A-2 2F.A ....|A-6 3F.A ....|A-4 7F.A ....
....|..|R-- .... ....|--- .... ....|--- .... ....
 B-3|..|B-1 2A.F ....|G-5 3F8F ....|E-5 8F.A ....
....|..|R-- .... ....|A-6 3F.F ....|--- .... ....
....|..|B-1 2F.A ....|G-4 2F6F ....|A-4 7F.A ....
....|..|--- .... ....|R-- .... ....|R-- .... ....
 B-3|..|B-1 2A.F ....|B-4 3F9F ....|B-4 8F.F ....
....|..|--- .... ....|--- .... ....|--- .... ....
....|..|B-1 2F.A ....|G-5 3F8A ....|F#5 8F.A ....
....|..|R-- .... ....|A-6 3F.A ....|--- .... ....
 B-3|..|B-1 2A.F ....|B-4 3F9F ....|B-4 8F.A ....
....|..|--- .... ....|A-6 3F.F ....|--- .... ....
 B-3|..|B-1 2A.F ....|E-4 2F4F ....|--- .... ....
....|..|--- .... ....|R-- .... ....|R-- .... ....
....|..|B-1 2F.7 ....|G-5 3F8F ....|G-4 7F.F ....
....|..|--- .... ....|A-6 3F.7 ....|--- .... ....
 B-3|..|B-1 2A.F ....|B-4 3F9A ....|F#5 8F.7 ....
....|..|--- .... ....|A-6 3F.A ....|--- .... ....
 B-3|..|B-1 2A.F ....|G-5 3F8F ....|G-5 8F.7 ....
....|..|--- .... ....|A-6 3F.F ....|--- .... ....
....|..|R-- .... ....|B-4 2FDF ....|G-4 7F.A ....
....|..|R-- .... ....|R-- .... ....|--- .... ....
 F#4|..|F#2 2A.F ....|B-4 3F9F ....|E-5 8F.F ....
....|..|--- .... ....|A-6 3F.7 ....|--- .... ....
....|..|B-1 2F.7 ....|G-5 3F8A ....|F#5 8F.F ....
....|..|--- .... ....|A-6 3F.A ....|R-- .... ....
 G-4|..|G-2 2A.F ....|B-4 3F9F ....|G-5 8F.F ....
....|..|R-- .... ....|A-6 3F.F ....|--- .... ....
....|..|B-1 2F.7 ....|B-4 3F9A ....|F#5 8F.F ....
....|..|R-- .... ....|R-- .... ....|R-- .... ....

[Pattern53]
 A-3|..|A-2 2C.F ....|G-5 3F8F ....|G-4 7F.F ....
....|..|--- .... ....|A-6 3F.7 ....|--- .... ....
....|..|G-2 2F.A ....|B-4 3F9A ....|--- .... ....
....|..|R-- .... ....|A-6 3F.A ....|--- .... ....
 A-3|..|A-2 2C.F ....|G-5 3F8F ....|E-5 8F.A ....
....|..|R-- .... ....|A-6 3F.F ....|R-- .... ....
....|..|A-2 2F.A ....|G-5 3F8A ....|G-4 7F.A ....
....|..|--- .... ....|--- .... ....|R-- .... ....
 A-3|..|A-2 2C.F ....|C-5 3F6F ....|C-5 8F.F ....
....|..|--- .... ....|A-6 3F.7 ....|--- .... ....
....|..|A-2 2F.A ....|G-5 3F8A ....|F#5 8F.A ....
....|..|R-- .... ....|A-6 3F.A ....|R-- .... ....
 A-3|..|A-2 2C.F ....|C-5 3F6F ....|C-5 8F.A ....
....|..|--- .... ....|A-6 3F.F ....|--- .... ....
 A-3|..|A-2 2C.F ....|C-5 3F6A ....|--- .... ....
....|..|--- .... ....|--- .... ....|R-- .... ....
....|..|A-2 2F.7 ....|G-5 3F8F ....|E-5 8F.7 ....
....|..|--- .... ....|A-6 3F.7 ....|R-- .... ....
 A-3|..|A-2 2C.F ....|C-5 3F6A ....|F#5 8F.7 ....
....|..|--- .... ....|A-6 3F.A ....|--- .... ....
 A-3|..|A-2 2C.F ....|G-5 3F8F ....|A-4 7F.F ....
....|..|--- .... ....|A-6 3F.F ....|--- .... ....
....|..|R-- .... ....|G-5 3F8A ....|F#5 8F.7 ....
....|..|R-- .... ....|--- .... ....|--- .... ....
 A-3|..|A-2 2C.F ....|C-5 3F6F ....|E-5 8F.F ....
....|..|--- .... ....|A-6 3F.7 ....|--- .... ....
....|..|A-2 2F.7 ....|G-5 3F8A ....|F#5 8F.F ....
....|..|--- .... ....|E-5 3F5F ....|R-- .... ....
 A-3|..|A-2 2C.F ....|A-6 3F.F ....|G-4 7F.F ....
....|..|R-- .... ....|--- .... ....|R-- .... ....
....|..|A-2 2F.7 ....|C-5 3F6A ....|F#5 8F.F ....
....|..|R-- .... ....|--- .... ....|--- .... ....
....|..|A-2 2F.7 ....|R-- .... ....|A-4 7F.7 ....
....|..|--- .... ....|A-6 3F.7 ....|--- .... ....
....|..|A-2 2F.A ....|A-6 3F.A ....|G-4 7F.A ....
....|..|R-- .... ....|--- .... ....|--- .... ....
....|..|A-2 2F.7 ....|C-5 3F67 ....|E-5 8F.A ....
....|..|R-- .... ....|--- .... ....|--- .... ....
....|..|--- .... ....|R-- .... ....|F#5 8F.A ....
....|..|--- .... ....|E-5 3F57 ....|R-- .... ....
....|..|A-2 2F.7 ....|A-6 3F.7 ....|G-5 8F.A ....
....|..|--- .... ....|--- .... ....|--- .... ....
....|..|--- .... ....|--- .... ....|F#5 8F.A ....
....|..|R-- .... ....|--- .... ....|--- .... ....
....|..|--- .... ....|R-- .... ....|R-- .... ....
....|..|--- .... ....|--- .... ....|--- .... ....
....|..|--- .... ....|--- .... ....|--- .... ....
....|..|--- .... ....|--- .... ....|--- .... ....
....|..|--- .... ....|--- .... ....|E-5 8F.7 ....
....|..|--- .... ....|--- .... ....|--- .... ....
....|..|--- .... ....|C-2 2F.F ....|F#5 8F.7 ....
....|..|--- .... ....|--- .... ....|--- .... ....
....|..|--- .... ....|R-- .... ....|G-5 8F.7 ....
....|..|--- .... ....|--- .... ....|--- .... ....
....|..|--- .... ....|--- .... ....|F#5 8F.7 ....
....|..|--- .... ....|--- .... ....|--- .... ....
....|..|--- .... ....|C-2 2F.A ....|R-- .... ....
....|..|--- .... ....|--- .... ....|--- .... ....
....|..|--- .... ....|C-2 2F.F ....|--- .... ....
....|..|--- .... ....|--- .... ....|--- .... ....
....|..|--- .... ....|R-- .... ....|--- .... ....
....|..|--- .... ....|--- .... ....|--- .... ....
....|..|--- .... ....|C-2 2F.7 ....|--- .... ....
....|..|--- .... ....|--- .... ....|--- .... ....

[Pattern54]
....|..|--- .... ....|C-2 2F.A ....|--- .... ....
....|..|--- .... ....|C-2 2F.F ....|--- .... ....
....|..|--- .... ....|R-- .... ....|--- .... ....
....|..|--- .... ....|R-- .... ....|--- .... ....
....|..|--- .... ....|--- .... ....|--- .... ....
....|..|--- .... ....|--- .... ....|--- .... ....
....|..|--- .... ....|C-2 2F.7 ....|--- .... ....
....|..|--- .... ....|C-2 2F.A ....|--- .... ....
....|..|--- .... ....|R-- .... ....|--- .... ....
....|..|--- .... ....|R-- .... ....|--- .... ....
....|..|--- .... ....|--- .... ....|--- .... ....
....|..|--- .... ....|--- .... ....|--- .... ....
....|..|--- .... ....|--- .... ....|--- .... ....
....|..|--- .... ....|C-2 2F.7 ....|--- .... ....
....|..|--- .... ....|--- .... ....|--- .... ....

