[Module]
VortexTrackerII=0
Version=3.5
Title=2me-3me+-5p[3],4me-5p[u]+-9me+,6m[3f]-7m[3f]+-10m+-3me+
Author=oisee ^ 4d 29.05.2010
NoteTable=4
ChipFreq=1750000
Speed=3
PlayOrder=L0,1,2,3,4,5,6,7,8,9,10,11,12,13,14,15,16,17,18,19,20,21,22,23,24,13,14,15,28,29,30

[Ornament1]
L0,0,4,4,7,7

[Ornament2]
L0,0,3,3,7,7,10,10

[Ornament3]
L0,0,5,5,8,8

[Ornament4]
L0,0,3,3,8,8

[Ornament5]
L0,0,12,12,16,16,19,19

[Ornament6]
L0,0,12,12,15,15,19,19,22,22

[Ornament7]
L0,0,7,7,12,12,15,15

[Ornament8]
L0,0,4,4,7,7,12,12

[Ornament9]
L0

[Ornament10]
L0

[Ornament11]
L0

[Ornament12]
L0

[Ornament13]
L0

[Ornament14]
L0

[Ornament15]
12,L0

[Sample1]
TnE +000_ +00_ F_
TnE +000_ +00_ F_
TnE +000_ +00_ F_
TnE +000_ +00_ D_
TnE +000_ +00_ B_
TnE +000_ +00_ B_ L

[Sample2]
TnE +000_ +00_ F_ L

[Sample3]
TnE +001_ +00_ F_
TnE +002_ +00_ F_
TnE +001_ +00_ E_
TnE +002_ +00_ E_
TnE +000_ +00_ E_ L
TnE -001_ +00_ E_
TnE -002_ +00_ E_
TnE -001_ +00_ E_
TnE +000_ +00_ E_
TnE +001_ +00_ E_
TnE +002_ +00_ E_
TnE +001_ +00_ E_

[Sample4]
TnE +002_ +00_ D_
TnE +002_ +00_ D_
TnE +002_ +00_ C_
TnE +002_ +00_ B_
TnE +002_ +00_ A_ L
TnE +002_ +00_ A_
TnE +002_ +00_ A_
TnE +002_ +00_ A_
TnE +002_ +00_ A_
TnE +002_ +00_ A_
TnE +002_ +00_ A_
TnE +002_ +00_ A_

[Sample5]
TnE +000_ +00_ F_
TnE +000_ +00_ F_
tne +000_ +00_ 0_ L

[Sample6]
TnE -001_ +00_ F_ L

[Sample7]
TnE +006_ +00_ F_ L

[Sample8]
tNe +000_ +00_ F_
tNe +000_ +00_ B_
tNe +000_ +00_ 7_
tNe +000_ +00_ 6- L

[Sample9]
TnE +080_ +00_ F_
TnE +100_ +00_ E_
TnE +180_ +00_ E_
TnE +200_ +00_ E_
TnE +240_ +00_ D_
TnE +280_ +00_ D_
TnE +2C0_ +00_ D_
TnE +300_ +00_ C_
TnE +300_ +00_ C_
TnE +340_ +00_ C_
TnE +340_ +00_ C_
TnE +380_ +00_ B_
TnE +380_ +00_ B_
TnE +400_ +00_ B_
TnE +400_ +00_ B_
TnE +480_ +00_ A_
TnE +500_ +00_ 9_
TnE +580_ +00_ 7_
TnE +600_ +00_ 4_
TnE +680_ +00_ 1_
TnE +000_ +00_ 0_ L

[Sample10]
Tne +1C0_ +00_ F_
Tne +280_ +00_ E_
Tne +380_ +00_ C_
Tne +440_ +00_ A_
Tne +480_ +00_ 8_
TnE +000_ +00_ 0_ L

[Sample11]
TNe +200_ -0A_ F_
tNe +000_ +0F_ A_
TNe +200_ -07_ E_
tNe +000_ +0E_ B- L

[Sample12]
TNE +0A0_ +05_ F_
TNE +140_ +02_ D_
TNE +140_ +02_ B_
TNE +100_ +00_ A_ L
TNE +140_ +00_ A_
TNE +200_ +00_ A-

[Sample13]
Tne +200_ +00_ F_
Tne +2C0_ +00_ F_
Tne +380_ +00_ E_
Tne +500_ +00_ C_
Tne +520_ +00_ 9_
tne +000_ +00_ 0_ L

[Sample14]
TNE -100_ +00_ F_
TNE -100_ +00_ D_
TNE -100_ +00_ A_
TNE -100_ +00_ 5_
tne +000_ +00_ 0_ L

[Sample15]
TNE -100_ +00_ 5_
TNE -100_ +00_ 8_
TNE -100_ +00_ B_
TNE -100_ +00_ F_
TNe -100_ +00_ 9- L

[Sample16]
TnE +000_ +00_ C_
TnE +000_ +00_ E_
TnE +000_ +00_ F_
TnE +000_ +00_ F_
TnE +000_ +00_ E_
TnE +000_ +00_ D_
TnE +000_ +00_ C_
TnE +000_ +00_ C_ L
TnE +001_ +00_ C_
TnE +002_ +00_ C_
TnE +003_ +00_ C_
TnE +001_ +00_ C_
TnE +000_ +00_ C_
TnE -001_ +00_ C_
TnE -002_ +00_ C_
TnE -003_ +00_ C_
TnE -001_ +00_ C_
TnE +000_ +00_ C_
TnE +000_ +00_ C_

[Sample17]
Tne +1C0_ +00_ F_
Tne +280_ +00_ D_
Tne +380_ +00_ 7_
TNE +000_ +00_ 0_ L

[Sample18]
TnE -00C_ +00_ 0_ L

[Sample19]
TNe +000_ +00_ F_
TNe +000_ +00_ C_
TNe +000_ +00_ 6_
TNe +000_ +01_ A- L

[Sample20]
TNE +140_ +00_ F_
tNE +000_ +00_ B- L

[Sample21]
tNE +000_ +00_ D_
tNE +000_ +00_ 8_
tNE +000_ +00_ 1_
TNE +000_ +00_ 0_ L

[Sample22]
TnE +000_ +00_ D_ L
TnE +000_ +00_ D_
tne +000_ +00_ 9_
tne +000_ +00_ 9_
TnE +000_ +00_ D_
TnE +000_ +00_ D_
tne +000_ +00_ 9_
tne +000_ +00_ 9_
TnE +000_ +00_ D_
TnE +000_ +00_ D_
TnE +000_ +00_ D_
TnE +000_ +00_ D_
TnE +000_ +00_ D_
TnE +000_ +00_ D_
tne +000_ +00_ 9_
tne +000_ +00_ 9_

[Sample23]
TnE +000_ +00_ F_ L
TnE +010_ +01_ F_
TnE +010_ +01_ F_
TnE +010_ +01_ F_
TnE +010_ +01_ F_
TnE +000_ +00_ F_
TnE +000_ +00_ F_
TnE -010_ -01_ F_
TnE -010_ -01_ F_
TnE -010_ -01_ F_
TnE -010_ -01_ F_
TnE +000_ +00_ F_

[Sample24]
TNe +000_ -01_ C_
TNe +000_ -01_ D_
TNe +000_ -01_ E_
TNe +000_ -01_ F_
TNe +000_ -01_ F_
TNe +000_ -01_ F_
TNe +000_ -01_ F_
TNe +000_ -01_ F_
TNe +000_ -01_ E_
TNe +000_ -01_ E_
TNe +000_ -01_ E_
TNe +000_ -01_ F_
TNe +000_ -01_ F_ L

[Sample25]
TNE +000_ +00_ F_
TNE +000_ +00_ F_ L
TNE +000_ +00_ F_
TNE +000_ +00_ F_
TNE +000_ +00_ F-

[Sample26]
tne +000_ +00_ 0_ L

[Sample27]
TnE +100_ +05_ F_
TnE +200_ +02_ A_
TnE +300_ +02_ 7_
TNE +400_ +00_ 3- L

[Sample28]
tne +000_ +00_ 0_ L

[Sample29]
tnE +000_ +00_ 0_ L

[Sample30]
TNE +000_ +00_ C+ L

[Sample31]
TNe +1C0_ +00_ F_
Tne +280_ +00_ E_
Tne +380_ +00_ C_
Tne +440_ +00_ A_
Tne +480_ +00_ 8_
TnE +000_ +00_ 0_ L

[Pattern0]
....|..|--- .... ....|--- .... ....|--- .... ....
....|..|--- .... ....|--- .... ....|--- .... ....
....|..|--- .... ....|--- .... ....|--- .... ....
....|..|--- .... ....|--- .... ....|--- .... ....
....|..|--- .... ....|--- .... ....|--- .... ....
....|..|--- .... ....|--- .... ....|--- .... ....
....|..|--- .... ....|--- .... ....|--- .... ....
....|..|--- .... ....|--- .... ....|--- .... ....
....|..|--- .... ....|--- .... ....|--- .... ....
....|..|--- .... ....|--- .... ....|--- .... ....
....|..|--- .... ....|--- .... ....|--- .... ....
....|..|--- .... ....|--- .... ....|--- .... ....
....|..|--- .... ....|--- .... ....|--- .... ....
....|..|--- .... ....|--- .... ....|--- .... ....
....|..|--- .... ....|--- .... ....|--- .... ....
....|..|--- .... ....|--- .... ....|--- .... ....
....|..|--- .... ....|--- .... ....|--- .... ....
....|..|--- .... ....|--- .... ....|--- .... ....
....|..|--- .... ....|--- .... ....|--- .... ....
....|..|--- .... ....|--- .... ....|--- .... ....
....|..|--- .... ....|--- .... ....|--- .... ....
....|..|--- .... ....|--- .... ....|--- .... ....
....|..|--- .... ....|--- .... ....|--- .... ....
....|..|--- .... ....|--- .... ....|--- .... ....
....|..|--- .... ....|--- .... ....|--- .... ....
....|..|--- .... ....|--- .... ....|--- .... ....
....|..|--- .... ....|--- .... ....|--- .... ....
....|..|--- .... ....|--- .... ....|--- .... ....
....|..|--- .... ....|--- .... ....|--- .... ....
....|..|--- .... ....|--- .... ....|--- .... ....
....|..|--- .... ....|--- .... ....|--- .... ....
....|..|--- .... ....|--- .... ....|--- .... ....
 A#3|..|A#4 2C.F ....|A#3 UF1F ....|A#4 2C.F ....
....|..|A#3 3F1F ....|--- .... ....|R-- .... ....
 A#3|..|--- .... ....|A#3 2C.F ....|--- .... ....
....|..|--- .... ....|R-- .... ....|--- .... ....
 A#3|..|A#4 2C.F ....|--- .... ....|A#4 2C.F ....
....|..|R-- .... ....|--- .... ....|R-- .... ....
....|..|A#4 2F.A ....|A#3 UF1A ....|A#4 2F.A ....
....|..|A#3 3F1A ....|--- .... ....|R-- .... ....
 A#3|..|A#4 2C.F ....|A#4 2C.F ....|A#4 2C.F ....
....|..|--- .... ....|R-- .... ....|--- .... ....
....|..|A#4 2F.A ....|--- .... ....|A#4 2F.A ....
....|..|R-- .... ....|--- .... ....|R-- .... ....
 A#3|..|A#4 2F.7 ....|A#3 2C.F ....|A#4 2F.7 ....
....|..|A#3 3F17 ....|R-- .... ....|R-- .... ....
 A#3|..|A#4 2C.F ....|A#3 2F.7 ....|A#4 2C.F ....
....|..|R-- .... ....|R-- .... ....|R-- .... ....
....|..|A#4 2F.7 ....|--- .... ....|A#4 3FFF ....
....|..|R-- .... ....|--- .... ....|R-- .... ....
 A#3|..|R-- .... ....|A#3 2C.F ....|R-- .... ....
....|..|--- .... ....|R-- .... ....|--- .... ....
 A#3|..|A#4 2C.F ....|A#3 2F.7 ....|A#4 2C.F ....
....|..|R-- .... ....|R-- .... ....|R-- .... ....
....|..|--- .... ....|--- .... ....|A#4 3FFA ....
....|..|--- .... ....|--- .... ....|--- .... ....
 A#3|..|A#4 2C.F ....|A#4 2C.F ....|A#4 2C.F ....
....|..|--- .... ....|R-- .... ....|--- .... ....
....|..|A#4 2F.7 ....|--- .... ....|A#4 2F.7 ....
....|..|R-- .... ....|--- .... ....|R-- .... ....
 A#3|..|--- .... ....|A#3 2C.F ....|A#4 3FF7 ....
....|..|--- .... ....|R-- .... ....|--- .... ....
 A-3|..|A-4 2C.F ....|A#3 2F.7 ....|A-4 2C.F ....
....|..|--- .... ....|R-- .... ....|--- .... ....
....|..|G-3 3F2F ....|G-3 UF2F ....|A#4 2F.7 ....
....|..|R-- .... ....|--- .... ....|R-- .... ....
 G-4|..|--- .... ....|G-3 2C.F ....|--- .... ....
....|..|--- .... ....|R-- .... ....|--- .... ....
 A-3|..|A-4 2C.F ....|A#3 2F.7 ....|A-4 2C.F ....
....|..|R-- .... ....|R-- .... ....|R-- .... ....
....|..|G-3 3F2A ....|G-3 UF2A ....|R-- .... ....
....|..|--- .... ....|--- .... ....|--- .... ....
 A-3|..|A-4 2C.F ....|G-3 2F.F ....|A-4 2C.F ....
....|..|--- .... ....|R-- .... ....|--- .... ....
....|..|A-4 2F.7 ....|--- .... ....|A-4 2F.7 ....
....|..|R-- .... ....|--- .... ....|R-- .... ....
 G-4|..|G-3 3F27 ....|G-3 2C.F ....|R-- .... ....
....|..|--- .... ....|R-- .... ....|--- .... ....
 A-3|..|A-4 2C.F ....|G-3 2F.7 ....|A-4 2C.F ....
....|..|R-- .... ....|R-- .... ....|R-- .... ....
....|..|A-4 2F.7 ....|--- .... ....|A-4 2F.7 ....
....|..|R-- .... ....|--- .... ....|R-- .... ....
 G-4|..|R-- .... ....|G-3 2C.F ....|R-- .... ....
....|..|--- .... ....|R-- .... ....|--- .... ....
 A-3|..|A-4 2C.F ....|G-3 2F.7 ....|A-4 2C.F ....
....|..|R-- .... ....|R-- .... ....|R-- .... ....
....|..|--- .... ....|--- .... ....|--- .... ....
....|..|--- .... ....|--- .... ....|--- .... ....
 A-3|..|A-4 2C.F ....|G-3 2F.F ....|A-4 2C.F ....
....|..|--- .... ....|R-- .... ....|--- .... ....
....|..|A-4 2F.7 ....|--- .... ....|A-4 2F.7 ....
....|..|R-- .... ....|--- .... ....|R-- .... ....
 G-4|..|--- .... ....|G-3 2C.F ....|--- .... ....
....|..|--- .... ....|R-- .... ....|--- .... ....
 G-4|..|G-4 2C.F ....|G-3 2F.7 ....|G-4 2C.F ....
....|..|--- .... ....|R-- .... ....|--- .... ....
....|..|A-3 3F3F ....|A-3 UF3F ....|A-4 2F.7 ....
....|..|R-- .... ....|--- .... ....|R-- .... ....
 D-4|..|--- .... ....|D-4 2C.F ....|--- .... ....
....|..|--- .... ....|R-- .... ....|--- .... ....
 G-4|..|G-4 2C.F ....|G-3 2F.7 ....|G-4 2C.F ....
....|..|R-- .... ....|R-- .... ....|R-- .... ....
....|..|A-3 3F3A ....|A-3 UF3A ....|R-- .... ....
....|..|--- .... ....|--- .... ....|--- .... ....
 G-4|..|G-4 2C.F ....|D-4 2F.F ....|G-4 2C.F ....
....|..|--- .... ....|R-- .... ....|--- .... ....
....|..|G-4 2F.7 ....|--- .... ....|G-4 2F.7 ....
....|..|R-- .... ....|--- .... ....|R-- .... ....
 D-4|..|A-3 3F37 ....|D-4 2C.F ....|R-- .... ....
....|..|R-- .... ....|R-- .... ....|R-- .... ....
 G-4|..|G-4 2C.F ....|D-4 2F.7 ....|G-4 2C.F ....
....|..|--- .... ....|R-- .... ....|--- .... ....
....|..|G-4 2F.7 ....|--- .... ....|A#4 3FFF ....
....|..|R-- .... ....|--- .... ....|R-- .... ....
 D-4|..|--- .... ....|D-4 2C.F ....|--- .... ....
....|..|R-- .... ....|R-- .... ....|R-- .... ....
 G-4|..|G-4 2C.F ....|D-4 2F.7 ....|G-4 2C.F ....
....|..|R-- .... ....|R-- .... ....|R-- .... ....
....|..|R-- .... ....|--- .... ....|A#4 3FFA ....
....|..|--- .... ....|--- .... ....|--- .... ....
 G-4|..|G-4 2C.F ....|D-4 2F.F ....|G-4 2C.F ....
....|..|R-- .... ....|R-- .... ....|R-- .... ....
....|..|G-4 2F.7 ....|--- .... ....|G-4 2F.7 ....
....|..|R-- .... ....|--- .... ....|R-- .... ....
 D-4|..|D-4 2C.F ....|D-4 2C.F ....|D-4 2C.F ....
....|..|--- .... ....|R-- .... ....|--- .... ....
 D#4|..|D#4 2C.F ....|D-4 2F.7 ....|D#4 2C.F ....
....|..|R-- .... ....|R-- .... ....|R-- .... ....

[Pattern1]
....|..|G-3 3F4F ....|G-3 UF4F ....|G-4 2F.7 ....
....|..|R-- .... ....|--- .... ....|R-- .... ....
 D#4|..|D-4 2F.A ....|D#3 2C.F ....|D-4 2F.A ....
....|..|--- .... ....|R-- .... ....|--- .... ....
 D#4|..|D#4 2C.F ....|D-4 2F.7 ....|D#4 2C.F ....
....|..|R-- .... ....|R-- .... ....|R-- .... ....
....|..|G-3 3F4A ....|G-3 UF4A ....|--- .... ....
....|..|--- .... ....|--- .... ....|--- .... ....
 D#4|..|D#4 2C.F ....|D#4 2C.F ....|D#4 2C.F ....
....|..|--- .... ....|R-- .... ....|--- .... ....
....|..|D#4 2F.7 ....|--- .... ....|D#4 2F.7 ....
....|..|R-- .... ....|--- .... ....|R-- .... ....
 D#4|..|G-3 3F47 ....|D#3 2C.F ....|--- .... ....
....|..|R-- .... ....|R-- .... ....|R-- .... ....
 D#4|..|D#4 2C.F ....|D#3 2F.7 ....|D#4 2C.F ....
....|..|R-- .... ....|R-- .... ....|R-- .... ....
....|..|D#4 2F.7 ....|--- .... ....|D#4 2F.7 ....
....|..|R-- .... ....|--- .... ....|R-- .... ....
 D#4|..|--- .... ....|D#3 2C.F ....|--- .... ....
....|..|R-- .... ....|R-- .... ....|R-- .... ....
 D#4|..|D#4 2C.F ....|D#3 2F.7 ....|D#4 2C.F ....
....|..|R-- .... ....|R-- .... ....|R-- .... ....
....|..|--- .... ....|--- .... ....|--- .... ....
....|..|--- .... ....|--- .... ....|--- .... ....
 D#4|..|D#4 2C.F ....|D#4 2C.F ....|D#4 2C.F ....
....|..|R-- .... ....|R-- .... ....|R-- .... ....
....|..|D#4 2F.7 ....|--- .... ....|D#4 2F.7 ....
....|..|R-- .... ....|--- .... ....|R-- .... ....
 D#4|..|R-- .... ....|D#3 2C.F ....|R-- .... ....
....|..|--- .... ....|R-- .... ....|--- .... ....
....|..|D#4 2F.A ....|D#3 2F.7 ....|D#4 2F.A ....
....|..|--- .... ....|R-- .... ....|--- .... ....
 A#3|..|A#4 2C.F ....|A#3 UF1F ....|A#4 2C.F ....
....|..|A#3 3F1F ....|--- .... ....|R-- .... ....
 A#3|..|R-- .... ....|A#3 2C.F ....|R-- .... ....
....|..|--- .... ....|R-- .... ....|--- .... ....
 A#3|..|A#4 2C.F ....|D#3 2F.7 ....|A#4 2C.F ....
....|..|R-- .... ....|R-- .... ....|R-- .... ....
....|..|A#4 2F.A ....|A#3 UF1A ....|A#4 2F.A ....
....|..|A#3 3F1A ....|--- .... ....|R-- .... ....
 A#3|..|A#4 2C.F ....|A#4 2C.F ....|A#4 2C.F ....
....|..|--- .... ....|R-- .... ....|--- .... ....
....|..|A#4 2F.A ....|--- .... ....|A#4 2F.A ....
....|..|R-- .... ....|--- .... ....|R-- .... ....
 A#3|..|A#4 2F.7 ....|A#3 2C.F ....|A#4 2F.7 ....
....|..|A#3 3F17 ....|R-- .... ....|R-- .... ....
 A#3|..|A#4 2C.F ....|A#3 2F.7 ....|A#4 2C.F ....
....|..|R-- .... ....|R-- .... ....|R-- .... ....
....|..|A#4 2F.7 ....|--- .... ....|A#4 3FFF ....
....|..|R-- .... ....|--- .... ....|R-- .... ....
 A#3|..|R-- .... ....|A#3 2C.F ....|R-- .... ....
....|..|--- .... ....|R-- .... ....|--- .... ....
 A#3|..|A#4 2C.F ....|A#3 2F.7 ....|A#4 2C.F ....
....|..|R-- .... ....|R-- .... ....|R-- .... ....
....|..|--- .... ....|--- .... ....|A#4 3FFA ....
....|..|--- .... ....|--- .... ....|--- .... ....
 A#3|..|A#4 2C.F ....|A#4 2C.F ....|A#4 2C.F ....
....|..|--- .... ....|R-- .... ....|--- .... ....
....|..|A#4 2F.7 ....|--- .... ....|A#4 2F.7 ....
....|..|R-- .... ....|--- .... ....|R-- .... ....
 A#3|..|--- .... ....|A#3 2C.F ....|A#4 3FF7 ....
....|..|--- .... ....|R-- .... ....|--- .... ....
 A-3|..|A-4 2C.F ....|A#3 2F.7 ....|A-4 2C.F ....
....|..|--- .... ....|R-- .... ....|--- .... ....
....|..|G-3 3F2F ....|G-3 UF2F ....|A#4 2F.7 ....
....|..|R-- .... ....|--- .... ....|R-- .... ....
 G-4|..|--- .... ....|G-3 2C.F ....|--- .... ....
....|..|--- .... ....|R-- .... ....|--- .... ....
 A-3|..|A-4 2C.F ....|A#3 2F.7 ....|A-4 2C.F ....
....|..|R-- .... ....|R-- .... ....|R-- .... ....
....|..|G-3 3F2A ....|G-3 UF2A ....|R-- .... ....
....|..|--- .... ....|--- .... ....|--- .... ....
 A-3|..|A-4 2C.F ....|G-3 2F.F ....|A-4 2C.F ....
....|..|--- .... ....|R-- .... ....|--- .... ....
....|..|A-4 2F.7 ....|--- .... ....|A-4 2F.7 ....
....|..|R-- .... ....|--- .... ....|R-- .... ....
 G-4|..|G-3 3F27 ....|G-3 2C.F ....|R-- .... ....
....|..|--- .... ....|R-- .... ....|--- .... ....
 A-3|..|A-4 2C.F ....|G-3 2F.7 ....|A-4 2C.F ....
....|..|R-- .... ....|R-- .... ....|R-- .... ....
....|..|A-4 2F.7 ....|--- .... ....|A-4 2F.7 ....
....|..|R-- .... ....|--- .... ....|R-- .... ....
 G-4|..|R-- .... ....|G-3 2C.F ....|R-- .... ....
....|..|--- .... ....|R-- .... ....|--- .... ....
 A-3|..|A-4 2C.F ....|G-3 2F.7 ....|A-4 2C.F ....
....|..|R-- .... ....|R-- .... ....|R-- .... ....
....|..|--- .... ....|--- .... ....|--- .... ....
....|..|--- .... ....|--- .... ....|--- .... ....
 A-3|..|A-4 2C.F ....|G-3 2F.F ....|A-4 2C.F ....
....|..|--- .... ....|R-- .... ....|--- .... ....
....|..|A-4 2F.7 ....|--- .... ....|A-4 2F.7 ....
....|..|R-- .... ....|--- .... ....|R-- .... ....
 G-4|..|--- .... ....|G-3 2C.F ....|--- .... ....
....|..|--- .... ....|R-- .... ....|--- .... ....
 G-4|..|G-4 2C.F ....|G-3 2F.7 ....|G-4 2C.F ....
....|..|--- .... ....|R-- .... ....|--- .... ....
....|..|A-3 3F3F ....|A-3 UF3F ....|A-4 2F.7 ....
....|..|R-- .... ....|--- .... ....|R-- .... ....
 D-4|..|--- .... ....|D-4 2C.F ....|--- .... ....
....|..|--- .... ....|R-- .... ....|--- .... ....
 G-4|..|G-4 2C.F ....|G-3 2F.7 ....|G-4 2C.F ....
....|..|R-- .... ....|R-- .... ....|R-- .... ....
....|..|A-3 3F3A ....|A-3 UF3A ....|R-- .... ....
....|..|--- .... ....|--- .... ....|--- .... ....
 G-4|..|G-4 2C.F ....|D-4 2F.F ....|G-4 2C.F ....
....|..|--- .... ....|R-- .... ....|--- .... ....
....|..|G-4 2F.7 ....|--- .... ....|G-4 2F.7 ....
....|..|R-- .... ....|--- .... ....|R-- .... ....
 D-4|..|A-3 3F37 ....|D-4 2C.F ....|R-- .... ....
....|..|R-- .... ....|R-- .... ....|R-- .... ....
 G-4|..|G-4 2C.F ....|D-4 2F.7 ....|G-4 2C.F ....
....|..|--- .... ....|R-- .... ....|--- .... ....
....|..|G-4 2F.7 ....|--- .... ....|A#4 3FFF ....
....|..|R-- .... ....|--- .... ....|R-- .... ....
 D-4|..|--- .... ....|D-4 2C.F ....|--- .... ....
....|..|R-- .... ....|R-- .... ....|R-- .... ....
 G-4|..|G-4 2C.F ....|D-4 2F.7 ....|G-4 2C.F ....
....|..|R-- .... ....|R-- .... ....|R-- .... ....
....|..|R-- .... ....|--- .... ....|A#4 3FFA ....
....|..|--- .... ....|--- .... ....|--- .... ....
 G-4|..|G-4 2C.F ....|D-4 2F.F ....|G-4 2C.F ....
....|..|R-- .... ....|R-- .... ....|R-- .... ....
....|..|G-4 2F.7 ....|--- .... ....|G-4 2F.7 ....
....|..|R-- .... ....|--- .... ....|R-- .... ....
 D-4|..|D-4 2C.F ....|D-4 2C.F ....|D-4 2C.F ....
....|..|--- .... ....|R-- .... ....|--- .... ....
 D#4|..|D#4 2C.F ....|D-4 2F.7 ....|D#4 2C.F ....
....|..|R-- .... ....|R-- .... ....|R-- .... ....

[Pattern2]
....|..|G-3 3F4F ....|G-3 UF4F ....|G-4 2F.7 ....
....|..|R-- .... ....|--- .... ....|R-- .... ....
 D#4|..|D-4 2F.A ....|D#3 2C.F ....|D-4 2F.A ....
....|..|--- .... ....|R-- .... ....|--- .... ....
 D#4|..|D#4 2C.F ....|D-4 2F.7 ....|D#4 2C.F ....
....|..|R-- .... ....|R-- .... ....|R-- .... ....
....|..|G-3 3F4A ....|G-3 UF4A ....|--- .... ....
....|..|--- .... ....|--- .... ....|--- .... ....
 D#4|..|D#4 2C.F ....|D#4 2C.F ....|D#4 2C.F ....
....|..|--- .... ....|R-- .... ....|--- .... ....
....|..|D#4 2F.7 ....|--- .... ....|D#4 2F.7 ....
....|..|R-- .... ....|--- .... ....|R-- .... ....
 D#4|..|G-3 3F47 ....|D#3 2C.F ....|--- .... ....
....|..|R-- .... ....|R-- .... ....|R-- .... ....
 D#4|..|D#4 2C.F ....|D#3 2F.7 ....|D#4 2C.F ....
....|..|R-- .... ....|R-- .... ....|R-- .... ....
....|..|D#4 2F.7 ....|--- .... ....|D#4 2F.7 ....
....|..|R-- .... ....|--- .... ....|R-- .... ....
 D#4|..|--- .... ....|D#3 2C.F ....|--- .... ....
....|..|R-- .... ....|R-- .... ....|R-- .... ....
 D#4|..|D#4 2C.F ....|D#3 2F.7 ....|D#4 2C.F ....
....|..|R-- .... ....|R-- .... ....|R-- .... ....
....|..|--- .... ....|--- .... ....|--- .... ....
....|..|--- .... ....|--- .... ....|--- .... ....
 D#4|..|D#4 2C.F ....|D#4 2C.F ....|D#4 2C.F ....
....|..|R-- .... ....|R-- .... ....|R-- .... ....
....|..|D#4 2F.7 ....|--- .... ....|D#4 2F.7 ....
....|..|R-- .... ....|--- .... ....|R-- .... ....
 D#4|..|R-- .... ....|D#3 2C.F ....|R-- .... ....
....|..|--- .... ....|R-- .... ....|--- .... ....
....|..|D#4 2F.A ....|D#3 2F.7 ....|D#4 2F.A ....
....|..|--- .... ....|R-- .... ....|--- .... ....
 A#3|..|A#4 2C.F ....|A#3 UF1F ....|A#5 2F.F ....
....|..|A#3 3F1F ....|--- .... ....|R-- .... ....
 A#3|..|R-- .... ....|A#3 2C.F ....|R-- .... ....
....|..|--- .... ....|R-- .... ....|--- .... ....
 A#3|..|A#4 2C.F ....|D#3 2F.7 ....|A#4 3FFF ....
....|..|R-- .... ....|R-- .... ....|R-- .... ....
....|..|A#4 2F.A ....|A#3 UF1A ....|A#5 2F.A ....
....|..|A#3 3F1A ....|--- .... ....|R-- .... ....
 A#3|..|A#4 2C.F ....|A#4 2C.F ....|A#4 2C.F ....
....|..|--- .... ....|R-- .... ....|--- .... ....
....|..|A#4 2F.A ....|--- .... ....|A#4 3FFA ....
....|..|R-- .... ....|--- .... ....|R-- .... ....
 A#3|..|A#4 2F.7 ....|A#3 2C.F ....|A#4 3FFF ....
....|..|A#3 3F17 ....|R-- .... ....|R-- .... ....
 A#3|..|A#4 2C.F ....|A#3 2F.7 ....|A#4 2C.F ....
....|..|R-- .... ....|R-- .... ....|R-- .... ....
....|..|A#4 2F.7 ....|--- .... ....|A#4 3FFF ....
....|..|R-- .... ....|--- .... ....|R-- .... ....
 A#3|..|R-- .... ....|A#3 2C.F ....|A#4 3FFA ....
....|..|--- .... ....|R-- .... ....|R-- .... ....
 A#3|..|A#4 2C.F ....|A#3 2F.7 ....|A#4 3FFF ....
....|..|R-- .... ....|R-- .... ....|R-- .... ....
....|..|--- .... ....|--- .... ....|C-5 3FFF ....
....|..|--- .... ....|--- .... ....|--- .... ....
 A#3|..|A#4 2C.F ....|A#4 2C.F ....|A#4 2C.F ....
....|..|--- .... ....|R-- .... ....|R-- .... ....
....|..|A#4 2F.7 ....|--- .... ....|A#4 2F.7 ....
....|..|R-- .... ....|--- .... ....|R-- .... ....
 A#3|..|--- .... ....|A#3 2C.F ....|D-5 3FFF ....
....|..|--- .... ....|R-- .... ....|--- .... ....
 A-3|..|A-4 2C.F ....|A#3 2F.7 ....|A-4 2C.F ....
....|..|--- .... ....|R-- .... ....|R-- .... ....
....|..|G-3 3F2F ....|G-3 UF2F ....|A-5 2F.F ....
....|..|R-- .... ....|--- .... ....|R-- .... ....
 G-4|..|--- .... ....|G-3 2C.F ....|C-5 3FF7 ....
....|..|--- .... ....|R-- .... ....|--- .... ....
 A-3|..|A-4 2C.F ....|A#3 2F.7 ....|A-4 2C.F ....
....|..|R-- .... ....|R-- .... ....|R-- .... ....
....|..|G-3 3F2A ....|G-3 UF2A ....|A-5 2F.A ....
....|..|--- .... ....|--- .... ....|--- .... ....
 A-3|..|A-4 2C.F ....|G-3 2F.F ....|A-4 2C.F ....
....|..|--- .... ....|R-- .... ....|--- .... ....
....|..|A-4 2F.7 ....|--- .... ....|A-4 2F.7 ....
....|..|R-- .... ....|--- .... ....|R-- .... ....
 G-4|..|G-3 3F27 ....|G-3 2C.F ....|A-5 2F.7 ....
....|..|--- .... ....|R-- .... ....|--- .... ....
 A-3|..|A-4 2C.F ....|G-3 2F.7 ....|A-4 2C.F ....
....|..|R-- .... ....|R-- .... ....|R-- .... ....
....|..|A-4 2F.7 ....|--- .... ....|A-4 2F.7 ....
....|..|R-- .... ....|--- .... ....|R-- .... ....
 G-4|..|R-- .... ....|G-3 2C.F ....|R-- .... ....
....|..|--- .... ....|R-- .... ....|--- .... ....
 A-3|..|A-4 2C.F ....|G-3 2F.7 ....|A-4 2C.F ....
....|..|R-- .... ....|R-- .... ....|R-- .... ....
....|..|--- .... ....|--- .... ....|--- .... ....
....|..|--- .... ....|--- .... ....|--- .... ....
 A-3|..|A-4 2C.F ....|G-3 2F.F ....|A-4 2C.F ....
....|..|--- .... ....|R-- .... ....|--- .... ....
....|..|A-4 2F.7 ....|--- .... ....|A-4 2F.7 ....
....|..|R-- .... ....|--- .... ....|R-- .... ....
 G-4|..|--- .... ....|G-3 2C.F ....|--- .... ....
....|..|--- .... ....|R-- .... ....|--- .... ....
 G-4|..|G-4 2C.F ....|G-3 2F.7 ....|G-4 2C.F ....
....|..|--- .... ....|R-- .... ....|--- .... ....
....|..|A-3 3F3F ....|A-3 UF3F ....|G-5 2F.F ....
....|..|R-- .... ....|--- .... ....|R-- .... ....
 D-4|..|--- .... ....|D-4 2C.F ....|--- .... ....
....|..|--- .... ....|R-- .... ....|--- .... ....
 G-4|..|G-4 2C.F ....|G-3 2F.7 ....|A-4 3FFF ....
....|..|R-- .... ....|R-- .... ....|R-- .... ....
....|..|A-3 3F3A ....|A-3 UF3A ....|G-5 2F.A ....
....|..|--- .... ....|--- .... ....|--- .... ....
 G-4|..|G-4 2C.F ....|D-4 2F.F ....|G-4 2C.F ....
....|..|--- .... ....|R-- .... ....|--- .... ....
....|..|G-4 2F.7 ....|--- .... ....|G-4 2F.7 ....
....|..|R-- .... ....|--- .... ....|R-- .... ....
 D-4|..|A-3 3F37 ....|D-4 2C.F ....|A-4 3FFF ....
....|..|R-- .... ....|R-- .... ....|R-- .... ....
 G-4|..|G-4 2C.F ....|D-4 2F.7 ....|G-4 2C.F ....
....|..|--- .... ....|R-- .... ....|--- .... ....
....|..|G-4 2F.7 ....|--- .... ....|A-4 3FFF ....
....|..|R-- .... ....|--- .... ....|R-- .... ....
 D-4|..|--- .... ....|D-4 2C.F ....|A-4 3FFA ....
....|..|R-- .... ....|R-- .... ....|R-- .... ....
 G-4|..|G-4 2C.F ....|D-4 2F.7 ....|A-4 3FFF ....
....|..|R-- .... ....|R-- .... ....|R-- .... ....
....|..|R-- .... ....|--- .... ....|A#4 3FFF ....
....|..|--- .... ....|--- .... ....|--- .... ....
 G-4|..|G-4 2C.F ....|D-4 2F.F ....|D-5 2F.F ....
....|..|R-- .... ....|R-- .... ....|R-- .... ....
....|..|G-4 2F.7 ....|--- .... ....|G-4 2F.7 ....
....|..|R-- .... ....|--- .... ....|R-- .... ....
 D-4|..|D-4 2C.F ....|D-4 2C.F ....|C-5 3FFF ....
....|..|--- .... ....|R-- .... ....|--- .... ....
 D#4|..|D#4 2C.F ....|D-4 2F.7 ....|D#4 2C.F ....
....|..|R-- .... ....|R-- .... ....|R-- .... ....

[Pattern3]
....|..|G-3 3F4F ....|G-3 UF4F ....|A-4 3FF7 ....
....|..|R-- .... ....|--- .... ....|R-- .... ....
 D#4|..|D-4 2F.A ....|D#3 2C.F ....|A#4 3FF7 ....
....|..|--- .... ....|R-- .... ....|--- .... ....
 D#4|..|D#4 2C.F ....|D-4 2F.7 ....|D#4 2C.F ....
....|..|R-- .... ....|R-- .... ....|R-- .... ....
....|..|G-3 3F4A ....|G-3 UF4A ....|R-- .... ....
....|..|--- .... ....|--- .... ....|--- .... ....
 D#4|..|D#4 2C.F ....|D#4 2C.F ....|D#4 2C.F ....
....|..|--- .... ....|R-- .... ....|--- .... ....
....|..|D#4 2F.7 ....|--- .... ....|D#4 2F.7 ....
....|..|R-- .... ....|--- .... ....|R-- .... ....
 D#4|..|G-3 3F47 ....|D#3 2C.F ....|R-- .... ....
....|..|R-- .... ....|R-- .... ....|R-- .... ....
 D#4|..|D#4 2C.F ....|D#3 2F.7 ....|D#4 2C.F ....
....|..|R-- .... ....|R-- .... ....|R-- .... ....
....|..|D#4 2F.7 ....|--- .... ....|D#4 2F.7 ....
....|..|R-- .... ....|--- .... ....|R-- .... ....
 D#4|..|--- .... ....|D#3 2C.F ....|--- .... ....
....|..|R-- .... ....|R-- .... ....|R-- .... ....
 D#4|..|D#4 2C.F ....|D#3 2F.7 ....|D#4 2C.F ....
....|..|R-- .... ....|R-- .... ....|R-- .... ....
....|..|--- .... ....|--- .... ....|--- .... ....
....|..|--- .... ....|--- .... ....|--- .... ....
 D#4|..|D#4 2C.F ....|D#4 2C.F ....|D#4 2C.F ....
....|..|R-- .... ....|R-- .... ....|R-- .... ....
....|..|D#4 2F.7 ....|--- .... ....|D#4 2F.7 ....
....|..|R-- .... ....|--- .... ....|R-- .... ....
 D#4|..|R-- .... ....|D#3 2C.F ....|R-- .... ....
....|..|--- .... ....|R-- .... ....|--- .... ....
....|..|D#4 2F.A ....|D#3 2F.7 ....|D#4 2F.A ....
....|..|--- .... ....|R-- .... ....|--- .... ....
 A#3|..|A#4 2C.F ....|A#3 UF1F ....|A#5 2F.F ....
....|..|A#3 3F1F ....|--- .... ....|R-- .... ....
 A#3|..|R-- .... ....|A#3 2C.F ....|R-- .... ....
....|..|--- .... ....|R-- .... ....|--- .... ....
 A#3|..|A#4 2C.F ....|D#3 2F.7 ....|A#4 3FFF ....
....|..|R-- .... ....|R-- .... ....|R-- .... ....
....|..|A#4 2F.A ....|A#3 UF1A ....|A#5 2F.A ....
....|..|A#3 3F1A ....|--- .... ....|R-- .... ....
 A#3|..|A#4 2C.F ....|A#4 2C.F ....|A#4 2C.F ....
....|..|--- .... ....|R-- .... ....|--- .... ....
....|..|A#4 2F.A ....|--- .... ....|A#4 3FFA ....
....|..|R-- .... ....|--- .... ....|R-- .... ....
 A#3|..|A#4 2F.7 ....|A#3 2C.F ....|A#4 3FFF ....
....|..|A#3 3F17 ....|R-- .... ....|R-- .... ....
 A#3|..|A#4 2C.F ....|A#3 2F.7 ....|A#4 2C.F ....
....|..|R-- .... ....|R-- .... ....|R-- .... ....
....|..|A#4 2F.7 ....|--- .... ....|A#4 3FFF ....
....|..|R-- .... ....|--- .... ....|R-- .... ....
 A#3|..|R-- .... ....|A#3 2C.F ....|A#4 3FFA ....
....|..|--- .... ....|R-- .... ....|R-- .... ....
 A#3|..|A#4 2C.F ....|A#3 2F.7 ....|A#4 3FFF ....
....|..|R-- .... ....|R-- .... ....|R-- .... ....
....|..|--- .... ....|--- .... ....|C-5 3FFF ....
....|..|--- .... ....|--- .... ....|--- .... ....
 A#3|..|A#4 2C.F ....|A#4 2C.F ....|A#4 2C.F ....
....|..|--- .... ....|R-- .... ....|R-- .... ....
....|..|A#4 2F.7 ....|--- .... ....|A#4 2F.7 ....
....|..|R-- .... ....|--- .... ....|R-- .... ....
 A#3|..|--- .... ....|A#3 2C.F ....|D-5 3FFF ....
....|..|--- .... ....|R-- .... ....|--- .... ....
 A-3|..|A-4 2C.F ....|A#3 2F.7 ....|A-4 2C.F ....
....|..|--- .... ....|R-- .... ....|R-- .... ....
....|..|G-3 3F2F ....|G-3 UF2F ....|A-5 2F.F ....
....|..|R-- .... ....|--- .... ....|R-- .... ....
 G-4|..|--- .... ....|G-3 2C.F ....|C-5 3FF7 ....
....|..|--- .... ....|R-- .... ....|--- .... ....
 A-3|..|A-4 2C.F ....|A#3 2F.7 ....|A-4 2C.F ....
....|..|R-- .... ....|R-- .... ....|R-- .... ....
....|..|G-3 3F2A ....|G-3 UF2A ....|A-5 2F.A ....
....|..|--- .... ....|--- .... ....|--- .... ....
 A-3|..|A-4 2C.F ....|G-3 2F.F ....|A-4 2C.F ....
....|..|--- .... ....|R-- .... ....|--- .... ....
....|..|A-4 2F.7 ....|--- .... ....|A-4 2F.7 ....
....|..|R-- .... ....|--- .... ....|R-- .... ....
 G-4|..|G-3 3F27 ....|G-3 2C.F ....|A-5 2F.7 ....
....|..|--- .... ....|R-- .... ....|--- .... ....
 A-3|..|A-4 2C.F ....|G-3 2F.7 ....|A-4 2C.F ....
....|..|R-- .... ....|R-- .... ....|R-- .... ....
....|..|A-4 2F.7 ....|--- .... ....|A-4 2F.7 ....
....|..|R-- .... ....|--- .... ....|R-- .... ....
 G-4|..|R-- .... ....|G-3 2C.F ....|R-- .... ....
....|..|--- .... ....|R-- .... ....|--- .... ....
 A-3|..|A-4 2C.F ....|G-3 2F.7 ....|A-4 2C.F ....
....|..|R-- .... ....|R-- .... ....|R-- .... ....
....|..|--- .... ....|--- .... ....|--- .... ....
....|..|--- .... ....|--- .... ....|--- .... ....
 A-3|..|A-4 2C.F ....|G-3 2F.F ....|A-4 2C.F ....
....|..|--- .... ....|R-- .... ....|--- .... ....
....|..|A-4 2F.7 ....|--- .... ....|A-4 2F.7 ....
....|..|R-- .... ....|--- .... ....|R-- .... ....
 G-4|..|--- .... ....|G-3 2C.F ....|--- .... ....
....|..|--- .... ....|R-- .... ....|--- .... ....
 G-4|..|G-4 2C.F ....|G-3 2F.7 ....|G-4 2C.F ....
....|..|--- .... ....|R-- .... ....|--- .... ....
....|..|A-3 3F3F ....|A-3 UF3F ....|G-5 2F.F ....
....|..|R-- .... ....|--- .... ....|R-- .... ....
 D-4|..|--- .... ....|D-4 2C.F ....|--- .... ....
....|..|--- .... ....|R-- .... ....|--- .... ....
 G-4|..|G-4 2C.F ....|G-3 2F.7 ....|A-4 3FFF ....
....|..|R-- .... ....|R-- .... ....|R-- .... ....
....|..|A-3 3F3A ....|A-3 UF3A ....|G-5 2F.A ....
....|..|--- .... ....|--- .... ....|--- .... ....
 G-4|..|G-4 2C.F ....|D-4 2F.F ....|G-4 2C.F ....
....|..|--- .... ....|R-- .... ....|--- .... ....
....|..|G-4 2F.7 ....|--- .... ....|G-4 2F.7 ....
....|..|R-- .... ....|--- .... ....|R-- .... ....
 D-4|..|A-3 3F37 ....|D-4 2C.F ....|A-4 3FFF ....
....|..|R-- .... ....|R-- .... ....|R-- .... ....
 G-4|..|G-4 2C.F ....|D-4 2F.7 ....|G-4 2C.F ....
....|..|--- .... ....|R-- .... ....|--- .... ....
....|..|G-4 2F.7 ....|--- .... ....|A-4 3FFF ....
....|..|R-- .... ....|--- .... ....|R-- .... ....
 D-4|..|--- .... ....|D-4 2C.F ....|A-4 3FFA ....
....|..|R-- .... ....|R-- .... ....|R-- .... ....
 G-4|..|G-4 2C.F ....|D-4 2F.7 ....|A-4 3FFF ....
....|..|R-- .... ....|R-- .... ....|R-- .... ....
....|..|R-- .... ....|--- .... ....|A#4 3FFF ....
....|..|--- .... ....|--- .... ....|--- .... ....
 G-4|..|G-4 2C.F ....|D-4 2F.F ....|D-5 2F.F ....
....|..|R-- .... ....|R-- .... ....|R-- .... ....
....|..|G-4 2F.7 ....|--- .... ....|G-4 2F.7 ....
....|..|R-- .... ....|--- .... ....|R-- .... ....
 D-4|..|D-4 2C.F ....|D-4 2C.F ....|C-5 3FFF ....
....|..|--- .... ....|R-- .... ....|--- .... ....
 D#4|..|D#4 2C.F ....|D-4 2F.7 ....|D#4 2C.F ....
....|..|R-- .... ....|R-- .... ....|R-- .... ....

[Pattern4]
....|..|G-3 3F4F ....|G-3 UF4F ....|A-4 3FF7 ....
....|..|R-- .... ....|--- .... ....|R-- .... ....
....|..|D-4 2F.A ....|D-4 2F.A ....|A#4 3FF7 ....
....|..|--- .... ....|R-- .... ....|--- .... ....
....|..|G-4 2F.7 ....|D-4 2F.7 ....|D-5 2F.7 ....
....|..|R-- .... ....|R-- .... ....|R-- .... ....
....|..|G-3 3F4A ....|G-3 UF4A ....|R-- .... ....
....|..|--- .... ....|--- .... ....|--- .... ....
....|..|D-4 2F.7 ....|D-4 2F.7 ....|C-5 3FF7 ....
....|..|--- .... ....|R-- .... ....|--- .... ....
....|..|D#4 2F.7 ....|--- .... ....|D#4 2F.7 ....
....|..|R-- .... ....|--- .... ....|R-- .... ....
....|..|G-3 3F47 ....|G-3 UF47 ....|R-- .... ....
....|..|--- .... ....|--- .... ....|--- .... ....
....|..|--- .... ....|--- .... ....|R-- .... ....
....|..|--- .... ....|--- .... ....|--- .... ....
....|..|--- .... ....|--- .... ....|--- .... ....
....|..|--- .... ....|--- .... ....|--- .... ....
....|..|--- .... ....|--- .... ....|--- .... ....
....|..|--- .... ....|--- .... ....|--- .... ....
....|..|--- .... ....|--- .... ....|R-- .... ....
....|..|--- .... ....|--- .... ....|--- .... ....
....|..|--- .... ....|--- .... ....|--- .... ....
....|..|--- .... ....|--- .... ....|--- .... ....
....|..|--- .... ....|--- .... ....|--- .... ....
....|..|--- .... ....|--- .... ....|--- .... ....
....|..|--- .... ....|--- .... ....|--- .... ....
....|..|--- .... ....|--- .... ....|--- .... ....
....|..|--- .... ....|--- .... ....|--- .... ....
....|..|--- .... ....|--- .... ....|--- .... ....
....|..|--- .... ....|--- .... ....|--- .... ....
....|..|--- .... ....|--- .... ....|--- .... ....
....|..|R-- .... ....|R-- .... ....|--- .... ....
....|..|--- .... ....|--- .... ....|--- .... ....
....|..|--- .... ....|--- .... ....|--- .... ....
....|..|--- .... ....|--- .... ....|--- .... ....
 A#3|..|A#2 2C.F ....|A#3 2C.F ....|--- .... ....
....|..|--- .... ....|--- .... ....|--- .... ....
....|..|R-- .... ....|R-- .... ....|--- .... ....
....|..|--- .... ....|--- .... ....|--- .... ....
....|..|R-- .... ....|R-- .... ....|F-5 3FFF ....
....|..|--- .... ....|--- .... ....|R-- .... ....
....|..|A#1 2F.A ....|A#3 2F.A ....|--- .... ....
....|..|--- .... ....|--- .... ....|--- .... ....
 A#3|..|A#2 2C.F ....|A#3 2C.F ....|--- .... ....
....|..|--- .... ....|--- .... ....|--- .... ....
....|..|R-- .... ....|R-- .... ....|F-5 3FFA ....
....|..|--- .... ....|--- .... ....|R-- .... ....
....|..|A#1 2F.7 ....|A#3 2F.7 ....|--- .... ....
....|..|--- .... ....|--- .... ....|--- .... ....
....|..|A#1 2F.A ....|A#3 2F.A ....|--- .... ....
....|..|--- .... ....|--- .... ....|--- .... ....
 A#3|..|A#2 2C.F ....|A#3 2C.F ....|F-5 3FF7 ....
....|..|--- .... ....|--- .... ....|R-- .... ....
....|..|R-- .... ....|R-- .... ....|--- .... ....
....|..|--- .... ....|--- .... ....|--- .... ....
....|..|A#1 2F.7 ....|A#3 2F.7 ....|--- .... ....
....|..|--- .... ....|--- .... ....|--- .... ....
....|..|A#1 2F.A ....|A#3 2F.A ....|--- .... ....
....|..|--- .... ....|--- .... ....|--- .... ....
 A#3|..|A#2 2C.F ....|A#3 2C.F ....|--- .... ....
....|..|--- .... ....|--- .... ....|--- .... ....
....|..|R-- .... ....|R-- .... ....|--- .... ....
....|..|--- .... ....|--- .... ....|--- .... ....
....|..|A#1 2F.7 ....|A#3 2F.7 ....|--- .... ....
....|..|--- .... ....|--- .... ....|--- .... ....
....|..|A#1 2F.A ....|A#3 2F.A ....|--- .... ....
....|..|--- .... ....|--- .... ....|--- .... ....
 A#3|..|A#2 2C.F ....|A#3 2C.F ....|--- .... ....
....|..|--- .... ....|--- .... ....|--- .... ....
....|..|R-- .... ....|R-- .... ....|--- .... ....
....|..|--- .... ....|--- .... ....|--- .... ....
....|..|A#1 2F.7 ....|A#3 2F.7 ....|F-5 3FFF ....
....|..|--- .... ....|--- .... ....|R-- .... ....
....|..|A#1 2F.A ....|A#3 2F.A ....|--- .... ....
....|..|--- .... ....|--- .... ....|--- .... ....
 A#3|..|A#2 2C.F ....|A#3 2C.F ....|--- .... ....
....|..|--- .... ....|--- .... ....|--- .... ....
....|..|R-- .... ....|R-- .... ....|F-5 3FFA ....
....|..|--- .... ....|--- .... ....|R-- .... ....
....|..|A#1 2F.7 ....|A#3 2F.7 ....|--- .... ....
....|..|--- .... ....|--- .... ....|--- .... ....
....|..|A#1 2F.A ....|A#3 2F.A ....|--- .... ....
....|..|--- .... ....|--- .... ....|--- .... ....
 A#3|..|A#2 2C.F ....|A#3 2C.F ....|F-5 3FF7 ....
....|..|--- .... ....|--- .... ....|R-- .... ....
....|..|R-- .... ....|R-- .... ....|--- .... ....
....|..|--- .... ....|--- .... ....|--- .... ....
....|..|A#1 2F.7 ....|A#3 2F.7 ....|--- .... ....
....|..|--- .... ....|--- .... ....|--- .... ....
....|..|A#1 2F.A ....|A#3 2F.A ....|--- .... ....
....|..|--- .... ....|--- .... ....|--- .... ....
 A#3|..|A#2 2C.F ....|A#3 2C.F ....|--- .... ....
....|..|--- .... ....|--- .... ....|--- .... ....
....|..|R-- .... ....|R-- .... ....|--- .... ....
....|..|--- .... ....|--- .... ....|--- .... ....
....|..|A#1 2F.7 ....|A#3 2F.7 ....|--- .... ....
....|..|--- .... ....|--- .... ....|--- .... ....
....|..|A#1 2F.A ....|A#3 2F.A ....|--- .... ....
....|..|--- .... ....|--- .... ....|--- .... ....
 A#3|..|A#2 2C.F ....|A#3 2C.F ....|--- .... ....
....|..|--- .... ....|--- .... ....|--- .... ....
....|..|R-- .... ....|R-- .... ....|--- .... ....
....|..|--- .... ....|--- .... ....|--- .... ....
....|..|A#1 2F.7 ....|A#3 2F.7 ....|F-5 3FFF ....
....|..|--- .... ....|--- .... ....|R-- .... ....
....|..|A#1 2F.A ....|A#3 2F.A ....|--- .... ....
....|..|--- .... ....|--- .... ....|--- .... ....
 A#3|..|A#2 2C.F ....|A#3 2C.F ....|--- .... ....
....|..|--- .... ....|--- .... ....|--- .... ....
....|..|R-- .... ....|R-- .... ....|F-5 3FFA ....
....|..|--- .... ....|--- .... ....|R-- .... ....
....|..|A#1 2F.7 ....|A#3 2F.7 ....|--- .... ....
....|..|--- .... ....|--- .... ....|--- .... ....
....|..|A#1 2F.A ....|A#3 2F.A ....|--- .... ....
....|..|--- .... ....|--- .... ....|--- .... ....
 A#3|..|A#2 2C.F ....|A#3 2C.F ....|F-5 3FF7 ....
....|..|--- .... ....|--- .... ....|R-- .... ....
....|..|R-- .... ....|R-- .... ....|--- .... ....
....|..|--- .... ....|--- .... ....|--- .... ....
....|..|A#1 2F.7 ....|A#3 2F.7 ....|--- .... ....
....|..|--- .... ....|--- .... ....|--- .... ....
....|..|A#1 2F.A ....|A#3 2F.A ....|--- .... ....
....|..|--- .... ....|--- .... ....|--- .... ....
 A#3|..|A#2 2C.F ....|A#3 2C.F ....|--- .... ....
....|..|--- .... ....|--- .... ....|--- .... ....
....|..|R-- .... ....|R-- .... ....|--- .... ....
....|..|--- .... ....|--- .... ....|--- .... ....

[Pattern5]
....|..|A#1 2F.7 ....|A#3 2F.7 ....|--- .... ....
....|..|--- .... ....|--- .... ....|--- .... ....
....|..|A#1 2F.A ....|A#3 2F.A ....|--- .... ....
....|..|--- .... ....|--- .... ....|--- .... ....
 F#4|..|F#2 2A.F ....|F#3 2C.F ....|--- .... ....
....|..|--- .... ....|--- .... ....|--- .... ....
....|..|R-- .... ....|R-- .... ....|--- .... ....
....|..|--- .... ....|--- .... ....|--- .... ....
....|..|A#1 2F.7 ....|A#3 2F.7 ....|F-5 3FFF ....
....|..|--- .... ....|--- .... ....|R-- .... ....
....|..|F#1 2F.A ....|F#3 2F.A ....|--- .... ....
....|..|--- .... ....|--- .... ....|--- .... ....
 F#4|..|F#2 2A.F ....|F#3 2C.F ....|--- .... ....
....|..|--- .... ....|--- .... ....|--- .... ....
....|..|R-- .... ....|R-- .... ....|F-5 3FFA ....
....|..|--- .... ....|--- .... ....|R-- .... ....
....|..|F#1 2F.7 ....|F#3 2F.7 ....|--- .... ....
....|..|--- .... ....|--- .... ....|--- .... ....
....|..|F#1 2F.A ....|F#3 2F.A ....|--- .... ....
....|..|--- .... ....|--- .... ....|--- .... ....
 F#4|..|F#2 2A.F ....|F#3 2C.F ....|F-5 3FF7 ....
....|..|--- .... ....|--- .... ....|R-- .... ....
....|..|R-- .... ....|R-- .... ....|--- .... ....
....|..|--- .... ....|--- .... ....|--- .... ....
....|..|F#1 2F.7 ....|F#3 2F.7 ....|--- .... ....
....|..|--- .... ....|--- .... ....|--- .... ....
....|..|F#1 2F.A ....|F#3 2F.A ....|--- .... ....
....|..|--- .... ....|--- .... ....|--- .... ....
 F#4|..|F#2 2A.F ....|F#3 2C.F ....|--- .... ....
....|..|--- .... ....|--- .... ....|--- .... ....
....|..|R-- .... ....|R-- .... ....|--- .... ....
....|..|--- .... ....|--- .... ....|--- .... ....
....|..|F#1 2F.7 ....|F#3 2F.7 ....|--- .... ....
....|..|--- .... ....|--- .... ....|--- .... ....
....|..|F#1 2F.A ....|F#3 2F.A ....|--- .... ....
....|..|--- .... ....|--- .... ....|--- .... ....
 A#3|..|A#2 2C.F ....|A#3 2C.F ....|--- .... ....
....|..|--- .... ....|--- .... ....|--- .... ....
....|..|R-- .... ....|R-- .... ....|--- .... ....
....|..|--- .... ....|--- .... ....|--- .... ....
....|..|F#1 2F.7 ....|F#3 2F.7 ....|F-5 3FFF ....
....|..|--- .... ....|--- .... ....|R-- .... ....
....|..|A#1 2F.A ....|A#3 2F.A ....|--- .... ....
....|..|--- .... ....|--- .... ....|--- .... ....
 A#3|..|A#2 2C.F ....|A#3 2C.F ....|--- .... ....
....|..|--- .... ....|--- .... ....|--- .... ....
....|..|R-- .... ....|R-- .... ....|F-5 3FFA ....
....|..|--- .... ....|--- .... ....|R-- .... ....
....|..|A#1 2F.7 ....|A#3 2F.7 ....|--- .... ....
....|..|--- .... ....|--- .... ....|--- .... ....
....|..|A#1 2F.A ....|A#3 2F.A ....|--- .... ....
....|..|--- .... ....|--- .... ....|--- .... ....
 A#3|..|A#2 2C.F ....|A#3 2C.F ....|F-5 3FF7 ....
....|..|--- .... ....|--- .... ....|R-- .... ....
....|..|R-- .... ....|R-- .... ....|--- .... ....
....|..|--- .... ....|--- .... ....|--- .... ....
....|..|A#1 2F.7 ....|A#3 2F.7 ....|--- .... ....
....|..|--- .... ....|--- .... ....|--- .... ....
....|..|A#1 2F.A ....|A#3 2F.A ....|--- .... ....
....|..|--- .... ....|--- .... ....|--- .... ....
 A#3|..|A#2 2C.F ....|A#3 2C.F ....|--- .... ....
....|..|--- .... ....|--- .... ....|--- .... ....
....|..|R-- .... ....|R-- .... ....|--- .... ....
....|..|--- .... ....|--- .... ....|--- .... ....
....|..|A#1 2F.7 ....|A#3 2F.7 ....|--- .... ....
....|..|--- .... ....|--- .... ....|--- .... ....
....|..|A#1 2F.A ....|A#3 2F.A ....|--- .... ....
....|..|--- .... ....|--- .... ....|--- .... ....
 A#3|..|A#2 2C.F ....|A#3 2C.F ....|--- .... ....
....|..|--- .... ....|--- .... ....|--- .... ....
....|..|R-- .... ....|R-- .... ....|--- .... ....
....|..|--- .... ....|--- .... ....|--- .... ....
....|..|A#1 2F.7 ....|A#3 2F.7 ....|F-5 3FFF ....
....|..|--- .... ....|--- .... ....|R-- .... ....
....|..|A#1 2F.A ....|A#3 2F.A ....|--- .... ....
....|..|--- .... ....|--- .... ....|--- .... ....
 A#3|..|A#2 2C.F ....|A#3 2C.F ....|--- .... ....
....|..|--- .... ....|--- .... ....|--- .... ....
....|..|R-- .... ....|R-- .... ....|F-5 3FFA ....
....|..|--- .... ....|--- .... ....|R-- .... ....
....|..|A#1 2F.7 ....|A#3 2F.7 ....|--- .... ....
....|..|--- .... ....|--- .... ....|--- .... ....
....|..|A#1 2F.A ....|A#3 2F.A ....|--- .... ....
....|..|--- .... ....|--- .... ....|--- .... ....
 A#3|..|A#2 2C.F ....|A#3 2C.F ....|F-5 3FF7 ....
....|..|--- .... ....|--- .... ....|R-- .... ....
....|..|R-- .... ....|R-- .... ....|--- .... ....
....|..|--- .... ....|--- .... ....|--- .... ....
....|..|A#1 2F.7 ....|A#3 2F.7 ....|--- .... ....
....|..|--- .... ....|--- .... ....|--- .... ....
....|..|A#1 2F.A ....|A#3 2F.A ....|--- .... ....
....|..|--- .... ....|--- .... ....|--- .... ....
 A#3|..|A#2 2C.F ....|A#3 2C.F ....|--- .... ....
....|..|--- .... ....|--- .... ....|--- .... ....
....|..|R-- .... ....|R-- .... ....|--- .... ....
....|..|--- .... ....|--- .... ....|--- .... ....
....|..|A#1 2F.7 ....|A#3 2F.7 ....|--- .... ....
....|..|--- .... ....|--- .... ....|--- .... ....
....|..|A#1 2F.A ....|A#3 2F.A ....|--- .... ....
....|..|--- .... ....|--- .... ....|--- .... ....
 A#3|..|A#2 2C.F ....|A#3 2C.F ....|--- .... ....
....|..|--- .... ....|--- .... ....|--- .... ....
....|..|R-- .... ....|R-- .... ....|--- .... ....
....|..|--- .... ....|--- .... ....|--- .... ....
....|..|A#1 2F.7 ....|A#3 2F.7 ....|F-5 3FFF ....
....|..|--- .... ....|--- .... ....|R-- .... ....
....|..|A#1 2F.A ....|A#3 2F.A ....|--- .... ....
....|..|--- .... ....|--- .... ....|--- .... ....
 A#3|..|A#2 2C.F ....|A#3 2C.F ....|--- .... ....
....|..|--- .... ....|--- .... ....|--- .... ....
....|..|R-- .... ....|R-- .... ....|F-5 3FFA ....
....|..|--- .... ....|--- .... ....|R-- .... ....
....|..|A#1 2F.7 ....|A#3 2F.7 ....|--- .... ....
....|..|--- .... ....|--- .... ....|--- .... ....
....|..|A#1 2F.A ....|A#3 2F.A ....|--- .... ....
....|..|--- .... ....|--- .... ....|--- .... ....
 A#3|..|A#2 2C.F ....|A#3 2C.F ....|F-5 3FF7 ....
....|..|--- .... ....|--- .... ....|R-- .... ....
....|..|R-- .... ....|R-- .... ....|--- .... ....
....|..|--- .... ....|--- .... ....|--- .... ....
....|..|A#1 2F.7 ....|A#3 2F.7 ....|--- .... ....
....|..|--- .... ....|--- .... ....|--- .... ....
....|..|A#1 2F.A ....|A#3 2F.A ....|--- .... ....
....|..|--- .... ....|--- .... ....|--- .... ....
 A#3|..|A#2 2C.F ....|A#3 2C.F ....|--- .... ....
....|..|--- .... ....|--- .... ....|--- .... ....
....|..|R-- .... ....|R-- .... ....|--- .... ....
....|..|--- .... ....|--- .... ....|--- .... ....

[Pattern6]
....|..|A#1 2F.7 ....|A#3 2F.7 ....|--- .... ....
....|..|--- .... ....|--- .... ....|--- .... ....
....|..|A#1 2F.A ....|A#3 2F.A ....|--- .... ....
....|..|--- .... ....|--- .... ....|--- .... ....
 F#4|..|F#2 2A.F ....|F#3 2C.F ....|--- .... ....
....|..|--- .... ....|--- .... ....|--- .... ....
....|..|R-- .... ....|R-- .... ....|--- .... ....
....|..|--- .... ....|--- .... ....|--- .... ....
....|..|A#1 2F.7 ....|A#3 2F.7 ....|F-5 3FFF ....
....|..|--- .... ....|--- .... ....|R-- .... ....
....|..|F#1 2F.A ....|F#3 2F.A ....|--- .... ....
....|..|--- .... ....|--- .... ....|--- .... ....
 F#4|..|F#2 2A.F ....|F#3 2C.F ....|--- .... ....
....|..|--- .... ....|--- .... ....|--- .... ....
....|..|R-- .... ....|R-- .... ....|F-5 3FFA ....
....|..|--- .... ....|--- .... ....|R-- .... ....
....|..|F#1 2F.7 ....|F#3 2F.7 ....|--- .... ....
....|..|--- .... ....|--- .... ....|--- .... ....
....|..|F#1 2F.A ....|F#3 2F.A ....|--- .... ....
....|..|--- .... ....|--- .... ....|--- .... ....
 F#4|..|F#2 2A.F ....|F#3 2C.F ....|F-5 3FF7 ....
....|..|--- .... ....|--- .... ....|R-- .... ....
....|..|R-- .... ....|R-- .... ....|--- .... ....
....|..|--- .... ....|--- .... ....|--- .... ....
....|..|F#1 2F.7 ....|F#3 2F.7 ....|--- .... ....
....|..|--- .... ....|--- .... ....|--- .... ....
....|..|F#1 2F.A ....|F#3 2F.A ....|--- .... ....
....|..|--- .... ....|--- .... ....|--- .... ....
 F#4|..|F#2 2A.F ....|F#3 2C.F ....|--- .... ....
....|..|--- .... ....|--- .... ....|--- .... ....
....|..|R-- .... ....|R-- .... ....|--- .... ....
....|..|--- .... ....|--- .... ....|--- .... ....
 A#3|..|A#4 2C.F ....|F#3 2F.7 ....|A#4 2C.F ....
....|..|R-- .... ....|--- .... ....|R-- .... ....
....|..|F#1 2F.A ....|F#3 2F.A ....|--- .... ....
....|..|--- .... ....|--- .... ....|--- .... ....
 A#3|..|A#2 2C.F ....|A#4 2C.F ....|A#4 2C.F ....
....|..|R-- .... ....|--- .... ....|R-- .... ....
 G#4|..|G#4 2C.F ....|R-- .... ....|G#4 2C.F ....
....|..|R-- .... ....|--- .... ....|R-- .... ....
....|..|F#1 2F.7 ....|F#3 2F.7 ....|F-5 3FFF ....
....|..|--- .... ....|--- .... ....|R-- .... ....
....|..|A#1 2F.A ....|A#3 2F.A ....|A#4 2F.A ....
....|..|R-- .... ....|--- .... ....|R-- .... ....
 A#3|..|A#2 2C.F ....|A#4 2C.F ....|A#4 2C.F ....
....|..|R-- .... ....|--- .... ....|R-- .... ....
....|..|R-- .... ....|R-- .... ....|F-5 3FFA ....
....|..|--- .... ....|--- .... ....|R-- .... ....
....|..|A#1 2F.7 ....|A#3 2F.7 ....|A#4 2F.7 ....
....|..|R-- .... ....|--- .... ....|R-- .... ....
 A#3|..|A#4 2C.F ....|A#3 2F.A ....|A#4 2C.F ....
....|..|R-- .... ....|--- .... ....|R-- .... ....
 A#3|..|A#2 2C.F ....|A#3 2C.F ....|F-5 3FF7 ....
....|..|--- .... ....|--- .... ....|R-- .... ....
 A#3|..|A#4 2C.F ....|R-- .... ....|A#4 2C.F ....
....|..|R-- .... ....|--- .... ....|R-- .... ....
 G#4|..|G#4 2C.F ....|A#3 2F.7 ....|F-5 3FFF ....
....|..|R-- .... ....|--- .... ....|R-- .... ....
....|..|A#1 2F.A ....|A#3 2F.A ....|--- .... ....
....|..|--- .... ....|--- .... ....|--- .... ....
 C#4|..|A#1 2F.F ....|A#3 2F.F ....|C#5 2C.F ....
....|..|R-- .... ....|--- .... ....|R-- .... ....
....|..|A#4 2F.7 ....|R-- .... ....|A#4 2F.7 ....
....|..|R-- .... ....|--- .... ....|R-- .... ....
 A#3|..|A#4 2C.F ....|A#3 2F.7 ....|A#4 2C.F ....
....|..|R-- .... ....|--- .... ....|R-- .... ....
....|..|A#4 2F.7 ....|A#3 2F.A ....|A#4 2F.7 ....
....|..|R-- .... ....|--- .... ....|R-- .... ....
 A#3|..|A#2 2C.F ....|A#4 2C.F ....|A#4 2C.F ....
....|..|R-- .... ....|--- .... ....|R-- .... ....
 G#4|..|G#4 2C.F ....|R-- .... ....|G#4 2C.F ....
....|..|R-- .... ....|--- .... ....|R-- .... ....
....|..|A#1 2F.7 ....|A#3 2F.7 ....|F-5 3FFF ....
....|..|R-- .... ....|--- .... ....|R-- .... ....
....|..|A#1 2F.A ....|A#3 2F.A ....|A#4 2F.A ....
....|..|R-- .... ....|--- .... ....|R-- .... ....
 A#3|..|A#2 2C.F ....|A#4 2C.F ....|A#4 2C.F ....
....|..|R-- .... ....|--- .... ....|R-- .... ....
....|..|R-- .... ....|R-- .... ....|F-5 3FFA ....
....|..|--- .... ....|--- .... ....|R-- .... ....
....|..|A#1 2F.7 ....|A#3 2F.7 ....|A#4 2F.7 ....
....|..|R-- .... ....|--- .... ....|R-- .... ....
 A#3|..|A#4 2C.F ....|A#3 2F.A ....|A#4 2C.F ....
....|..|R-- .... ....|--- .... ....|R-- .... ....
 A#3|..|A#2 2C.F ....|A#3 2C.F ....|F-5 3FF7 ....
....|..|--- .... ....|--- .... ....|R-- .... ....
 A#3|..|A#4 2C.F ....|R-- .... ....|A#4 2C.F ....
....|..|R-- .... ....|--- .... ....|R-- .... ....
 G#4|..|G#4 2C.F ....|A#3 2F.7 ....|F-5 3FFF ....
....|..|R-- .... ....|--- .... ....|R-- .... ....
....|..|A#1 2F.A ....|A#3 2F.A ....|--- .... ....
....|..|--- .... ....|--- .... ....|--- .... ....
 C#4|..|A#1 2F.F ....|A#3 2F.F ....|C#5 2C.F ....
....|..|R-- .... ....|--- .... ....|R-- .... ....
....|..|A#4 2F.7 ....|R-- .... ....|A#4 2F.7 ....
....|..|R-- .... ....|--- .... ....|R-- .... ....
 A#3|..|A#4 2C.F ....|A#3 2F.7 ....|A#4 2C.F ....
....|..|R-- .... ....|--- .... ....|R-- .... ....
....|..|A#4 2F.7 ....|A#3 2F.A ....|A#4 2F.7 ....
....|..|R-- .... ....|--- .... ....|R-- .... ....
 A#3|..|A#2 2C.F ....|A#4 2C.F ....|A#4 2C.F ....
....|..|R-- .... ....|--- .... ....|R-- .... ....
 G#4|..|G#4 2C.F ....|R-- .... ....|G#4 2C.F ....
....|..|R-- .... ....|--- .... ....|R-- .... ....
....|..|A#1 2F.7 ....|A#3 2F.7 ....|F-5 3FFF ....
....|..|R-- .... ....|--- .... ....|R-- .... ....
....|..|A#1 2F.A ....|A#3 2F.A ....|A#4 2F.A ....
....|..|R-- .... ....|--- .... ....|R-- .... ....
 A#3|..|A#2 2C.F ....|A#4 2C.F ....|A#4 2C.F ....
....|..|R-- .... ....|--- .... ....|R-- .... ....
....|..|R-- .... ....|R-- .... ....|F-5 3FFA ....
....|..|--- .... ....|--- .... ....|R-- .... ....
....|..|A#1 2F.7 ....|A#3 2F.7 ....|A#4 2F.7 ....
....|..|R-- .... ....|--- .... ....|R-- .... ....
 A#3|..|A#4 2C.F ....|A#3 2F.A ....|A#4 2C.F ....
....|..|R-- .... ....|--- .... ....|R-- .... ....
 A#3|..|A#2 2C.F ....|A#3 2C.F ....|F-5 3FF7 ....
....|..|--- .... ....|--- .... ....|R-- .... ....
 A#3|..|A#4 2C.F ....|R-- .... ....|A#4 2C.F ....
....|..|R-- .... ....|--- .... ....|R-- .... ....
 G#4|..|G#4 2C.F ....|A#3 2F.7 ....|F-5 3FFF ....
....|..|R-- .... ....|--- .... ....|R-- .... ....
....|..|A#1 2F.A ....|A#3 2F.A ....|--- .... ....
....|..|--- .... ....|--- .... ....|--- .... ....
 C#4|..|A#1 2F.F ....|A#3 2F.F ....|C#5 2C.F ....
....|..|R-- .... ....|--- .... ....|R-- .... ....
....|..|A#4 2F.7 ....|R-- .... ....|A#4 2F.7 ....
....|..|R-- .... ....|--- .... ....|R-- .... ....

[Pattern7]
 A#3|..|A#4 2C.F ....|A#3 2F.7 ....|A#4 2C.F ....
....|..|R-- .... ....|--- .... ....|R-- .... ....
....|..|A#4 2F.7 ....|A#3 2F.A ....|A#4 2F.7 ....
....|..|R-- .... ....|--- .... ....|R-- .... ....
 A#3|..|F#1 2F.F ....|F#3 2F.F ....|A#4 2C.F ....
....|..|R-- .... ....|--- .... ....|R-- .... ....
 G#4|..|G#4 2C.F ....|R-- .... ....|G#4 2C.F ....
....|..|R-- .... ....|--- .... ....|R-- .... ....
....|..|A#1 2F.7 ....|A#3 2F.7 ....|F-5 3FFF ....
....|..|R-- .... ....|--- .... ....|R-- .... ....
....|..|F#1 2F.A ....|F#3 2F.A ....|A#4 2F.A ....
....|..|R-- .... ....|--- .... ....|R-- .... ....
 A#3|..|F#1 2F.F ....|F#3 2F.F ....|A#4 2C.F ....
....|..|R-- .... ....|--- .... ....|R-- .... ....
....|..|R-- .... ....|R-- .... ....|F-5 3FFA ....
....|..|--- .... ....|--- .... ....|R-- .... ....
....|..|F#1 2F.7 ....|F#3 2F.7 ....|A#4 2F.7 ....
....|..|R-- .... ....|--- .... ....|R-- .... ....
 A#3|..|A#4 2C.F ....|F#3 2F.A ....|A#4 2C.F ....
....|..|R-- .... ....|--- .... ....|R-- .... ....
 F#4|..|F#2 2A.F ....|F#3 2C.F ....|F-5 3FF7 ....
....|..|--- .... ....|--- .... ....|R-- .... ....
 A#3|..|A#4 2C.F ....|R-- .... ....|A#4 2C.F ....
....|..|R-- .... ....|--- .... ....|R-- .... ....
 G#4|..|G#4 2C.F ....|F#3 2F.7 ....|F-5 3FFF ....
....|..|R-- .... ....|--- .... ....|R-- .... ....
....|..|F#1 2F.A ....|F#3 2F.A ....|--- .... ....
....|..|--- .... ....|--- .... ....|--- .... ....
 C#4|..|F#1 2F.F ....|F#3 2F.F ....|C#5 2C.F ....
....|..|R-- .... ....|--- .... ....|R-- .... ....
....|..|A#4 2F.7 ....|R-- .... ....|A#4 2F.7 ....
....|..|R-- .... ....|--- .... ....|R-- .... ....
 A#3|..|A#4 2C.F ....|F#3 2F.7 ....|A#4 2C.F ....
....|..|R-- .... ....|--- .... ....|R-- .... ....
....|..|A#4 2F.7 ....|F#3 2F.A ....|A#4 2F.7 ....
....|..|R-- .... ....|--- .... ....|R-- .... ....
 A#3|..|A#2 2C.F ....|A#4 2C.F ....|A#4 2C.F ....
....|..|R-- .... ....|--- .... ....|R-- .... ....
 G#4|..|G#4 2C.F ....|R-- .... ....|G#4 2C.F ....
....|..|R-- .... ....|--- .... ....|R-- .... ....
....|..|F#1 2F.7 ....|F#3 2F.7 ....|F-5 3FFF ....
....|..|R-- .... ....|--- .... ....|R-- .... ....
....|..|A#1 2F.A ....|A#3 2F.A ....|A#4 2F.A ....
....|..|R-- .... ....|--- .... ....|R-- .... ....
 A#3|..|A#2 2C.F ....|A#4 2C.F ....|A#4 2C.F ....
....|..|R-- .... ....|--- .... ....|R-- .... ....
....|..|R-- .... ....|R-- .... ....|F-5 3FFA ....
....|..|--- .... ....|--- .... ....|R-- .... ....
....|..|A#1 2F.7 ....|A#3 2F.7 ....|A#4 2F.7 ....
....|..|R-- .... ....|--- .... ....|R-- .... ....
 A#3|..|A#4 2C.F ....|A#3 2F.A ....|A#4 2C.F ....
....|..|R-- .... ....|--- .... ....|R-- .... ....
 A#3|..|A#2 2C.F ....|A#3 2C.F ....|F-5 3FF7 ....
....|..|--- .... ....|--- .... ....|R-- .... ....
 A#3|..|A#4 2C.F ....|R-- .... ....|A#4 2C.F ....
....|..|R-- .... ....|--- .... ....|R-- .... ....
 G#4|..|G#4 2C.F ....|A#3 2F.7 ....|F-5 3FFF ....
....|..|R-- .... ....|--- .... ....|R-- .... ....
....|..|A#1 2F.A ....|A#3 2F.A ....|--- .... ....
....|..|--- .... ....|--- .... ....|--- .... ....
 C#4|..|A#1 2F.F ....|A#3 2F.F ....|C#5 2C.F ....
....|..|R-- .... ....|--- .... ....|R-- .... ....
....|..|A#4 2F.7 ....|R-- .... ....|A#4 2F.7 ....
....|..|R-- .... ....|--- .... ....|R-- .... ....
 A#3|..|A#4 2C.F ....|A#3 2F.7 ....|A#4 2C.F ....
....|..|R-- .... ....|--- .... ....|R-- .... ....
....|..|A#4 2F.7 ....|A#3 2F.A ....|A#4 2F.7 ....
....|..|R-- .... ....|--- .... ....|R-- .... ....
 A#3|..|A#2 2C.F ....|A#4 2C.F ....|A#4 2C.F ....
....|..|R-- .... ....|--- .... ....|R-- .... ....
 G#4|..|G#4 2C.F ....|R-- .... ....|G#4 2C.F ....
....|..|R-- .... ....|--- .... ....|R-- .... ....
....|..|A#1 2F.7 ....|A#3 2F.7 ....|F-5 3FFF ....
....|..|R-- .... ....|--- .... ....|R-- .... ....
....|..|A#1 2F.A ....|A#3 2F.A ....|A#4 2F.A ....
....|..|R-- .... ....|--- .... ....|R-- .... ....
 A#3|..|A#2 2C.F ....|A#4 2C.F ....|A#4 2C.F ....
....|..|R-- .... ....|--- .... ....|R-- .... ....
....|..|R-- .... ....|R-- .... ....|F-5 3FFA ....
....|..|--- .... ....|--- .... ....|R-- .... ....
....|..|A#1 2F.7 ....|A#3 2F.7 ....|A#4 2F.7 ....
....|..|R-- .... ....|--- .... ....|R-- .... ....
 A#3|..|A#4 2C.F ....|A#3 2F.A ....|A#4 2C.F ....
....|..|R-- .... ....|--- .... ....|R-- .... ....
 A#3|..|A#2 2C.F ....|A#3 2C.F ....|F-5 3FF7 ....
....|..|--- .... ....|--- .... ....|R-- .... ....
 A#3|..|A#4 2C.F ....|R-- .... ....|A#4 2C.F ....
....|..|R-- .... ....|--- .... ....|R-- .... ....
 G#4|..|G#4 2C.F ....|A#3 2F.7 ....|F-5 3FFF ....
....|..|R-- .... ....|--- .... ....|R-- .... ....
....|..|A#1 2F.A ....|A#3 2F.A ....|--- .... ....
....|..|--- .... ....|--- .... ....|--- .... ....
 C#4|..|A#1 2F.F ....|A#3 2F.F ....|C#5 2C.F ....
....|..|R-- .... ....|--- .... ....|R-- .... ....
....|..|A#4 2F.7 ....|R-- .... ....|A#4 2F.7 ....
....|..|R-- .... ....|--- .... ....|R-- .... ....
 A#3|..|A#4 2C.F ....|A#3 2F.7 ....|A#4 2C.F ....
....|..|R-- .... ....|--- .... ....|R-- .... ....
....|..|A#4 2F.7 ....|A#3 2F.A ....|A#4 2F.7 ....
....|..|R-- .... ....|--- .... ....|R-- .... ....
 A#3|..|A#2 2C.F ....|A#4 2C.F ....|A#4 2C.F ....
....|..|R-- .... ....|--- .... ....|R-- .... ....
 G#4|..|G#4 2C.F ....|R-- .... ....|G#4 2C.F ....
....|..|R-- .... ....|--- .... ....|R-- .... ....
....|..|A#1 2F.7 ....|A#3 2F.7 ....|F-5 3FFF ....
....|..|R-- .... ....|--- .... ....|R-- .... ....
....|..|A#1 2F.A ....|A#3 2F.A ....|A#4 2F.A ....
....|..|R-- .... ....|--- .... ....|R-- .... ....
 A#3|..|A#2 2C.F ....|A#4 2C.F ....|A#4 2C.F ....
....|..|R-- .... ....|--- .... ....|R-- .... ....
....|..|R-- .... ....|R-- .... ....|F-5 3FFA ....
....|..|--- .... ....|--- .... ....|R-- .... ....
....|..|A#1 2F.7 ....|A#3 2F.7 ....|A#4 2F.7 ....
....|..|R-- .... ....|--- .... ....|R-- .... ....
 A#3|..|A#4 2C.F ....|A#3 2F.A ....|A#4 2C.F ....
....|..|R-- .... ....|--- .... ....|R-- .... ....
 A#3|..|A#2 2C.F ....|A#3 2C.F ....|F-5 3FF7 ....
....|..|--- .... ....|--- .... ....|R-- .... ....
 A#3|..|A#4 2C.F ....|R-- .... ....|A#4 2C.F ....
....|..|R-- .... ....|--- .... ....|R-- .... ....
 G#4|..|G#4 2C.F ....|A#3 2F.7 ....|F-5 3FFF ....
....|..|R-- .... ....|--- .... ....|R-- .... ....
....|..|A#1 2F.A ....|A#3 2F.A ....|--- .... ....
....|..|--- .... ....|--- .... ....|--- .... ....
 C#4|..|A#1 2F.F ....|A#3 2F.F ....|C#5 2C.F ....
....|..|R-- .... ....|--- .... ....|R-- .... ....
....|..|A#4 2F.7 ....|R-- .... ....|A#4 2F.7 ....
....|..|R-- .... ....|--- .... ....|R-- .... ....

[Pattern8]
 A#3|..|A#4 2C.F ....|A#3 2F.7 ....|A#4 2C.F ....
....|..|R-- .... ....|--- .... ....|R-- .... ....
....|..|A#4 2F.7 ....|A#3 2F.A ....|A#4 2F.7 ....
....|..|R-- .... ....|--- .... ....|R-- .... ....
 A#3|..|F#1 2F.F ....|F#3 2F.F ....|A#4 2C.F ....
....|..|R-- .... ....|--- .... ....|R-- .... ....
 G#4|..|G#4 2C.F ....|R-- .... ....|G#4 2C.F ....
....|..|R-- .... ....|--- .... ....|R-- .... ....
....|..|A#1 2F.7 ....|A#3 2F.7 ....|F-5 3FFF ....
....|..|R-- .... ....|--- .... ....|R-- .... ....
....|..|F#1 2F.A ....|F#3 2F.A ....|A#4 2F.A ....
....|..|R-- .... ....|--- .... ....|R-- .... ....
 A#3|..|F#1 2F.F ....|F#3 2F.F ....|A#4 2C.F ....
....|..|R-- .... ....|--- .... ....|R-- .... ....
....|..|R-- .... ....|R-- .... ....|F-5 3FFA ....
....|..|--- .... ....|--- .... ....|R-- .... ....
....|..|F#1 2F.7 ....|F#3 2F.7 ....|A#4 2F.7 ....
....|..|R-- .... ....|--- .... ....|R-- .... ....
 A#3|..|A#4 2C.F ....|F#3 2F.A ....|A#4 2C.F ....
....|..|R-- .... ....|--- .... ....|R-- .... ....
 F#4|..|F#2 2A.F ....|F#3 2C.F ....|F-5 3FF7 ....
....|..|--- .... ....|--- .... ....|R-- .... ....
 A#3|..|A#4 2C.F ....|R-- .... ....|A#4 2C.F ....
....|..|R-- .... ....|--- .... ....|R-- .... ....
 G#4|..|G#4 2C.F ....|F#3 2F.7 ....|F-5 3FFF ....
....|..|R-- .... ....|--- .... ....|R-- .... ....
....|..|F#1 2F.A ....|F#3 2F.A ....|--- .... ....
....|..|--- .... ....|--- .... ....|--- .... ....
 C#4|..|F#1 2F.F ....|F#3 2F.F ....|C#5 2C.F ....
....|..|R-- .... ....|--- .... ....|R-- .... ....
....|..|A#4 2F.7 ....|R-- .... ....|A#4 2F.7 ....
....|..|R-- .... ....|--- .... ....|R-- .... ....
....|..|F#1 2F.7 ....|F#3 2F.7 ....|--- .... ....
....|..|--- .... ....|--- .... ....|--- .... ....
....|..|A#4 2F.7 ....|F#3 2F.A ....|A#4 2F.7 ....
....|..|R-- .... ....|--- .... ....|R-- .... ....
....|..|G#4 2F.7 ....|R-- .... ....|F-5 3FF7 ....
....|..|R-- .... ....|--- .... ....|R-- .... ....
....|..|R-- .... ....|R-- .... ....|--- .... ....
....|..|--- .... ....|--- .... ....|--- .... ....
....|..|F#1 2F.7 ....|F#3 2F.7 ....|C#5 2F.7 ....
....|..|R-- .... ....|--- .... ....|R-- .... ....
....|..|--- .... ....|--- .... ....|--- .... ....
....|..|--- .... ....|--- .... ....|--- .... ....
....|..|R-- .... ....|R-- .... ....|--- .... ....
....|..|--- .... ....|--- .... ....|--- .... ....
....|..|--- .... ....|--- .... ....|--- .... ....
....|..|--- .... ....|--- .... ....|--- .... ....
....|..|--- .... ....|--- .... ....|--- .... ....
....|..|--- .... ....|--- .... ....|--- .... ....
....|..|--- .... ....|--- .... ....|--- .... ....
....|..|--- .... ....|--- .... ....|--- .... ....
....|..|--- .... ....|--- .... ....|--- .... ....
....|..|--- .... ....|--- .... ....|--- .... ....
....|..|--- .... ....|--- .... ....|--- .... ....
....|..|--- .... ....|--- .... ....|--- .... ....
....|..|--- .... ....|--- .... ....|--- .... ....
....|..|--- .... ....|--- .... ....|--- .... ....
....|..|--- .... ....|--- .... ....|--- .... ....
....|..|--- .... ....|--- .... ....|--- .... ....
....|..|--- .... ....|--- .... ....|--- .... ....
....|..|--- .... ....|--- .... ....|--- .... ....
....|..|--- .... ....|--- .... ....|--- .... ....
....|..|--- .... ....|--- .... ....|--- .... ....
....|..|--- .... ....|--- .... ....|--- .... ....
....|..|--- .... ....|--- .... ....|--- .... ....
....|..|--- .... ....|--- .... ....|--- .... ....
....|..|--- .... ....|--- .... ....|--- .... ....
....|..|--- .... ....|--- .... ....|--- .... ....
....|..|--- .... ....|--- .... ....|--- .... ....
....|..|--- .... ....|--- .... ....|--- .... ....
....|..|--- .... ....|--- .... ....|--- .... ....
....|..|--- .... ....|--- .... ....|--- .... ....
....|..|--- .... ....|--- .... ....|--- .... ....
....|..|--- .... ....|--- .... ....|--- .... ....
....|..|--- .... ....|--- .... ....|--- .... ....
....|..|--- .... ....|--- .... ....|--- .... ....
....|..|--- .... ....|--- .... ....|--- .... ....
....|..|--- .... ....|--- .... ....|--- .... ....
....|..|--- .... ....|--- .... ....|--- .... ....
....|..|--- .... ....|--- .... ....|--- .... ....
....|..|--- .... ....|--- .... ....|--- .... ....
....|..|--- .... ....|--- .... ....|--- .... ....
....|..|--- .... ....|--- .... ....|--- .... ....
....|..|--- .... ....|--- .... ....|--- .... ....
....|..|--- .... ....|--- .... ....|--- .... ....
....|..|--- .... ....|--- .... ....|--- .... ....
....|..|--- .... ....|--- .... ....|--- .... ....
....|..|--- .... ....|--- .... ....|--- .... ....
....|..|--- .... ....|--- .... ....|--- .... ....
....|..|--- .... ....|--- .... ....|--- .... ....
....|..|--- .... ....|--- .... ....|--- .... ....
....|..|--- .... ....|--- .... ....|--- .... ....
....|..|--- .... ....|--- .... ....|--- .... ....
....|..|--- .... ....|--- .... ....|--- .... ....
....|..|--- .... ....|--- .... ....|--- .... ....
....|..|A#3 3F5F ....|A#3 UF5F ....|--- .... ....
....|..|--- .... ....|--- .... ....|--- .... ....
....|..|--- .... ....|--- .... ....|--- .... ....
....|..|--- .... ....|--- .... ....|--- .... ....
....|..|--- .... ....|--- .... ....|A#4 3FFF ....
....|..|--- .... ....|--- .... ....|--- .... ....
....|..|A#3 3F5A ....|A#3 UF5A ....|--- .... ....
....|..|--- .... ....|--- .... ....|--- .... ....
....|..|--- .... ....|--- .... ....|R-- .... ....
....|..|--- .... ....|--- .... ....|--- .... ....
....|..|--- .... ....|--- .... ....|A#4 3FFA ....
....|..|--- .... ....|--- .... ....|--- .... ....
....|..|A#3 3F57 ....|A#3 UF57 ....|A#4 3FFF ....
....|..|--- .... ....|--- .... ....|R-- .... ....
....|..|--- .... ....|--- .... ....|R-- .... ....
....|..|--- .... ....|--- .... ....|--- .... ....
....|..|--- .... ....|--- .... ....|A#4 3FFF ....
....|..|--- .... ....|--- .... ....|--- .... ....
....|..|--- .... ....|--- .... ....|A#4 3FFA ....
....|..|--- .... ....|--- .... ....|R-- .... ....
....|..|--- .... ....|--- .... ....|A#4 3FFF ....
....|..|--- .... ....|--- .... ....|R-- .... ....
....|..|--- .... ....|--- .... ....|C-5 3FFF ....
....|..|--- .... ....|--- .... ....|--- .... ....
....|..|--- .... ....|--- .... ....|A#4 3FF7 ....
....|..|--- .... ....|--- .... ....|R-- .... ....
....|..|--- .... ....|--- .... ....|A#4 3FFA ....
....|..|--- .... ....|--- .... ....|R-- .... ....
....|..|--- .... ....|--- .... ....|D-5 3FFF ....
....|..|--- .... ....|--- .... ....|--- .... ....
....|..|--- .... ....|--- .... ....|R-- .... ....
....|..|--- .... ....|--- .... ....|R-- .... ....

[Pattern9]
....|..|G-3 3F6F ....|G-3 UF6F ....|A#4 3FF7 ....
....|..|--- .... ....|--- .... ....|R-- .... ....
....|..|--- .... ....|--- .... ....|C-5 3FF7 ....
....|..|--- .... ....|--- .... ....|--- .... ....
....|..|--- .... ....|--- .... ....|--- .... ....
....|..|--- .... ....|--- .... ....|R-- .... ....
....|..|G-3 3F6A ....|G-3 UF6A ....|--- .... ....
....|..|--- .... ....|--- .... ....|--- .... ....
....|..|--- .... ....|--- .... ....|D-5 3FF7 ....
....|..|--- .... ....|--- .... ....|--- .... ....
....|..|--- .... ....|--- .... ....|--- .... ....
....|..|--- .... ....|--- .... ....|R-- .... ....
....|..|G-3 3F67 ....|G-3 UF67 ....|--- .... ....
....|..|--- .... ....|--- .... ....|--- .... ....
....|..|--- .... ....|--- .... ....|--- .... ....
....|..|--- .... ....|--- .... ....|--- .... ....
....|..|--- .... ....|--- .... ....|--- .... ....
....|..|--- .... ....|--- .... ....|--- .... ....
....|..|--- .... ....|--- .... ....|--- .... ....
....|..|--- .... ....|--- .... ....|--- .... ....
....|..|--- .... ....|--- .... ....|--- .... ....
....|..|--- .... ....|--- .... ....|--- .... ....
....|..|--- .... ....|--- .... ....|--- .... ....
....|..|--- .... ....|--- .... ....|--- .... ....
....|..|--- .... ....|--- .... ....|--- .... ....
....|..|--- .... ....|--- .... ....|--- .... ....
....|..|--- .... ....|--- .... ....|--- .... ....
....|..|--- .... ....|--- .... ....|--- .... ....
....|..|--- .... ....|--- .... ....|--- .... ....
....|..|--- .... ....|--- .... ....|--- .... ....
....|..|--- .... ....|--- .... ....|--- .... ....
....|..|--- .... ....|--- .... ....|--- .... ....
....|..|D-3 3F7F ....|D-3 UF7F ....|--- .... ....
....|..|--- .... ....|--- .... ....|--- .... ....
....|..|--- .... ....|--- .... ....|--- .... ....
....|..|--- .... ....|--- .... ....|--- .... ....
....|..|--- .... ....|--- .... ....|A-4 3FFF ....
....|..|--- .... ....|--- .... ....|--- .... ....
....|..|D-3 3F7A ....|D-3 UF7A ....|--- .... ....
....|..|--- .... ....|--- .... ....|--- .... ....
....|..|--- .... ....|--- .... ....|R-- .... ....
....|..|--- .... ....|--- .... ....|--- .... ....
....|..|--- .... ....|--- .... ....|A-4 3FFA ....
....|..|--- .... ....|--- .... ....|--- .... ....
....|..|D-3 3F77 ....|D-3 UF77 ....|A-4 3FFF ....
....|..|--- .... ....|--- .... ....|--- .... ....
....|..|--- .... ....|--- .... ....|R-- .... ....
....|..|--- .... ....|--- .... ....|--- .... ....
....|..|--- .... ....|--- .... ....|A-4 3FFF ....
....|..|--- .... ....|--- .... ....|--- .... ....
....|..|--- .... ....|--- .... ....|A-4 3FFA ....
....|..|--- .... ....|--- .... ....|--- .... ....
....|..|--- .... ....|--- .... ....|A-4 3FFF ....
....|..|--- .... ....|--- .... ....|--- .... ....
....|..|--- .... ....|--- .... ....|A#4 3FFF ....
....|..|--- .... ....|--- .... ....|--- .... ....
....|..|--- .... ....|--- .... ....|A-4 3FF7 ....
....|..|--- .... ....|--- .... ....|--- .... ....
....|..|--- .... ....|--- .... ....|A-4 3FFA ....
....|..|--- .... ....|--- .... ....|--- .... ....
....|..|--- .... ....|--- .... ....|C-5 3FFF ....
....|..|--- .... ....|--- .... ....|--- .... ....
....|..|--- .... ....|--- .... ....|R-- .... ....
....|..|--- .... ....|--- .... ....|--- .... ....
....|..|D#3 3F8F ....|D#3 UF8F ....|A-4 3FF7 ....
....|..|--- .... ....|--- .... ....|--- .... ....
....|..|--- .... ....|--- .... ....|A#4 3FF7 ....
....|..|--- .... ....|--- .... ....|--- .... ....
....|..|--- .... ....|--- .... ....|R-- .... ....
....|..|--- .... ....|--- .... ....|--- .... ....
....|..|D#3 3F8A ....|D#3 UF8A ....|--- .... ....
....|..|--- .... ....|--- .... ....|--- .... ....
....|..|--- .... ....|--- .... ....|C-5 3FF7 ....
....|..|--- .... ....|--- .... ....|--- .... ....
....|..|--- .... ....|--- .... ....|--- .... ....
....|..|--- .... ....|--- .... ....|--- .... ....
....|..|D#3 3F87 ....|D#3 UF87 ....|--- .... ....
....|..|--- .... ....|--- .... ....|--- .... ....
....|..|--- .... ....|--- .... ....|R-- .... ....
....|..|--- .... ....|--- .... ....|--- .... ....
....|..|--- .... ....|--- .... ....|--- .... ....
....|..|--- .... ....|--- .... ....|--- .... ....
....|..|--- .... ....|--- .... ....|--- .... ....
....|..|--- .... ....|--- .... ....|--- .... ....
....|..|--- .... ....|--- .... ....|R-- .... ....
....|..|--- .... ....|--- .... ....|--- .... ....
....|..|--- .... ....|--- .... ....|--- .... ....
....|..|--- .... ....|--- .... ....|--- .... ....
....|..|--- .... ....|--- .... ....|--- .... ....
....|..|--- .... ....|--- .... ....|--- .... ....
....|..|--- .... ....|--- .... ....|--- .... ....
....|..|--- .... ....|--- .... ....|--- .... ....
....|..|--- .... ....|--- .... ....|--- .... ....
....|..|--- .... ....|--- .... ....|--- .... ....
....|..|--- .... ....|--- .... ....|--- .... ....
....|..|--- .... ....|--- .... ....|--- .... ....
....|..|A#3 3F5F ....|A#3 UF5F ....|--- .... ....
....|..|--- .... ....|--- .... ....|--- .... ....
....|..|--- .... ....|--- .... ....|--- .... ....
....|..|--- .... ....|--- .... ....|--- .... ....
....|..|--- .... ....|--- .... ....|A#4 3FFF ....
....|..|--- .... ....|--- .... ....|--- .... ....
....|..|A#3 3F5A ....|A#3 UF5A ....|--- .... ....
....|..|--- .... ....|--- .... ....|--- .... ....
....|..|--- .... ....|--- .... ....|R-- .... ....
....|..|--- .... ....|--- .... ....|--- .... ....
....|..|--- .... ....|--- .... ....|A#4 3FFA ....
....|..|--- .... ....|--- .... ....|--- .... ....
....|..|A#3 3F57 ....|A#3 UF57 ....|A#4 3FFF ....
....|..|--- .... ....|--- .... ....|R-- .... ....
....|..|--- .... ....|--- .... ....|R-- .... ....
....|..|--- .... ....|--- .... ....|--- .... ....
....|..|--- .... ....|--- .... ....|A#4 3FFF ....
....|..|--- .... ....|--- .... ....|--- .... ....
....|..|--- .... ....|--- .... ....|A#4 3FFA ....
....|..|--- .... ....|--- .... ....|R-- .... ....
....|..|--- .... ....|--- .... ....|A#4 3FFF ....
....|..|--- .... ....|--- .... ....|R-- .... ....
....|..|--- .... ....|--- .... ....|C-5 3FFF ....
....|..|--- .... ....|--- .... ....|--- .... ....
....|..|--- .... ....|--- .... ....|A#4 3FF7 ....
....|..|--- .... ....|--- .... ....|R-- .... ....
....|..|--- .... ....|--- .... ....|A#4 3FFA ....
....|..|--- .... ....|--- .... ....|R-- .... ....
....|..|--- .... ....|--- .... ....|D-5 3FFF ....
....|..|--- .... ....|--- .... ....|--- .... ....
....|..|--- .... ....|--- .... ....|R-- .... ....
....|..|--- .... ....|--- .... ....|R-- .... ....

[Pattern10]
....|..|G-3 3F6F ....|G-3 UF6F ....|A#4 3FF7 ....
....|..|--- .... ....|--- .... ....|R-- .... ....
....|..|--- .... ....|--- .... ....|C-5 3FF7 ....
....|..|--- .... ....|--- .... ....|--- .... ....
....|..|--- .... ....|--- .... ....|--- .... ....
....|..|--- .... ....|--- .... ....|R-- .... ....
....|..|G-3 3F6A ....|G-3 UF6A ....|--- .... ....
....|..|--- .... ....|--- .... ....|--- .... ....
....|..|--- .... ....|--- .... ....|D-5 3FF7 ....
....|..|--- .... ....|--- .... ....|--- .... ....
....|..|--- .... ....|--- .... ....|--- .... ....
....|..|--- .... ....|--- .... ....|R-- .... ....
....|..|G-3 3F67 ....|G-3 UF67 ....|--- .... ....
....|..|--- .... ....|--- .... ....|--- .... ....
....|..|--- .... ....|--- .... ....|--- .... ....
....|..|--- .... ....|--- .... ....|--- .... ....
....|..|--- .... ....|--- .... ....|--- .... ....
....|..|--- .... ....|--- .... ....|--- .... ....
....|..|--- .... ....|--- .... ....|--- .... ....
....|..|--- .... ....|--- .... ....|--- .... ....
....|..|--- .... ....|--- .... ....|--- .... ....
....|..|--- .... ....|--- .... ....|--- .... ....
....|..|--- .... ....|--- .... ....|--- .... ....
....|..|--- .... ....|--- .... ....|--- .... ....
....|..|--- .... ....|--- .... ....|--- .... ....
....|..|--- .... ....|--- .... ....|--- .... ....
....|..|--- .... ....|--- .... ....|--- .... ....
....|..|--- .... ....|--- .... ....|--- .... ....
....|..|--- .... ....|--- .... ....|--- .... ....
....|..|--- .... ....|--- .... ....|--- .... ....
....|..|--- .... ....|--- .... ....|--- .... ....
....|..|--- .... ....|--- .... ....|--- .... ....
....|..|D-3 3F7F ....|D-3 UF7F ....|--- .... ....
....|..|--- .... ....|--- .... ....|--- .... ....
....|..|--- .... ....|--- .... ....|--- .... ....
....|..|--- .... ....|--- .... ....|--- .... ....
....|..|--- .... ....|--- .... ....|A-4 3FFF ....
....|..|--- .... ....|--- .... ....|--- .... ....
....|..|D-3 3F7A ....|D-3 UF7A ....|--- .... ....
....|..|--- .... ....|--- .... ....|--- .... ....
....|..|--- .... ....|--- .... ....|R-- .... ....
....|..|--- .... ....|--- .... ....|--- .... ....
....|..|--- .... ....|--- .... ....|A-4 3FFA ....
....|..|--- .... ....|--- .... ....|--- .... ....
....|..|D-3 3F77 ....|D-3 UF77 ....|A-4 3FFF ....
....|..|--- .... ....|--- .... ....|--- .... ....
....|..|--- .... ....|--- .... ....|R-- .... ....
....|..|--- .... ....|--- .... ....|--- .... ....
....|..|--- .... ....|--- .... ....|A-4 3FFF ....
....|..|--- .... ....|--- .... ....|--- .... ....
....|..|--- .... ....|--- .... ....|A-4 3FFA ....
....|..|--- .... ....|--- .... ....|--- .... ....
....|..|--- .... ....|--- .... ....|A-4 3FFF ....
....|..|--- .... ....|--- .... ....|--- .... ....
....|..|--- .... ....|--- .... ....|A#4 3FFF ....
....|..|--- .... ....|--- .... ....|--- .... ....
....|..|--- .... ....|--- .... ....|A-4 3FF7 ....
....|..|--- .... ....|--- .... ....|--- .... ....
....|..|--- .... ....|--- .... ....|A-4 3FFA ....
....|..|--- .... ....|--- .... ....|--- .... ....
....|..|--- .... ....|--- .... ....|C-5 3FFF ....
....|..|--- .... ....|--- .... ....|--- .... ....
....|..|--- .... ....|--- .... ....|R-- .... ....
....|..|--- .... ....|--- .... ....|--- .... ....
....|..|D#3 3F8F ....|D#3 UF8F ....|A-4 3FF7 ....
....|..|--- .... ....|--- .... ....|--- .... ....
....|..|--- .... ....|--- .... ....|A#4 3FF7 ....
....|..|--- .... ....|--- .... ....|--- .... ....
....|..|--- .... ....|--- .... ....|D#5 3FFF ....
....|..|--- .... ....|--- .... ....|--- .... ....
....|..|D#3 3F8A ....|D#3 UF8A ....|R-- .... ....
....|..|--- .... ....|--- .... ....|--- .... ....
....|..|--- .... ....|--- .... ....|C-5 3FF7 ....
....|..|--- .... ....|--- .... ....|--- .... ....
....|..|--- .... ....|--- .... ....|D#5 3FFA ....
....|..|--- .... ....|--- .... ....|--- .... ....
....|..|D#3 3F87 ....|D#3 UF87 ....|D#5 3FFF ....
....|..|--- .... ....|--- .... ....|R-- .... ....
....|..|--- .... ....|--- .... ....|R-- .... ....
....|..|--- .... ....|--- .... ....|--- .... ....
....|..|--- .... ....|--- .... ....|D#5 3FFF ....
....|..|--- .... ....|--- .... ....|--- .... ....
....|..|--- .... ....|--- .... ....|D#5 3FFA ....
....|..|--- .... ....|--- .... ....|R-- .... ....
....|..|--- .... ....|--- .... ....|R-- .... ....
....|..|--- .... ....|--- .... ....|--- .... ....
....|..|--- .... ....|--- .... ....|D#5 3FFA ....
....|..|--- .... ....|--- .... ....|--- .... ....
....|..|--- .... ....|--- .... ....|C-5 3FFF ....
....|..|--- .... ....|--- .... ....|R-- .... ....
....|..|--- .... ....|--- .... ....|--- .... ....
....|..|--- .... ....|--- .... ....|--- .... ....
....|..|--- .... ....|--- .... ....|D#5 3FF7 ....
....|..|--- .... ....|--- .... ....|--- .... ....
....|..|--- .... ....|--- .... ....|C-5 3FFA ....
....|..|--- .... ....|--- .... ....|--- .... ....
....|..|A#3 3F5F ....|A#3 UF5F ....|--- .... ....
....|..|--- .... ....|--- .... ....|--- .... ....
 A#3|..|--- .... ....|A#3 2C.F ....|--- .... ....
....|..|--- .... ....|R-- .... ....|--- .... ....
....|..|--- .... ....|--- .... ....|A#4 3FFF ....
....|..|--- .... ....|--- .... ....|--- .... ....
....|..|A#3 3F5A ....|A#3 UF5A ....|--- .... ....
....|..|--- .... ....|--- .... ....|--- .... ....
 A#3|..|--- .... ....|A#3 2C.F ....|R-- .... ....
....|..|--- .... ....|R-- .... ....|--- .... ....
....|..|--- .... ....|--- .... ....|A#4 3FFA ....
....|..|--- .... ....|--- .... ....|--- .... ....
 A#3|..|A#3 3F57 ....|A#3 2C.F ....|A#4 3FFF ....
....|..|--- .... ....|R-- .... ....|R-- .... ....
....|..|--- .... ....|A#3 2F.7 ....|R-- .... ....
....|..|--- .... ....|R-- .... ....|--- .... ....
....|..|--- .... ....|--- .... ....|A#4 3FFF ....
....|..|--- .... ....|--- .... ....|--- .... ....
 A#3|..|--- .... ....|A#3 2C.F ....|A#4 3FFA ....
....|..|--- .... ....|R-- .... ....|R-- .... ....
....|..|--- .... ....|A#3 2F.7 ....|A#4 3FFF ....
....|..|--- .... ....|R-- .... ....|R-- .... ....
....|..|--- .... ....|--- .... ....|C-5 3FFF ....
....|..|--- .... ....|--- .... ....|--- .... ....
 A#3|..|--- .... ....|A#3 2C.F ....|A#4 3FF7 ....
....|..|--- .... ....|R-- .... ....|R-- .... ....
....|..|--- .... ....|--- .... ....|A#4 3FFA ....
....|..|--- .... ....|--- .... ....|R-- .... ....
 A#3|..|--- .... ....|A#3 2C.F ....|D-5 3FFF ....
....|..|--- .... ....|R-- .... ....|--- .... ....
....|..|--- .... ....|A#3 2F.7 ....|R-- .... ....
....|..|--- .... ....|R-- .... ....|R-- .... ....

[Pattern11]
....|..|G-3 3F6F ....|G-3 UF6F ....|A#4 3FF7 ....
....|..|--- .... ....|--- .... ....|R-- .... ....
 G-4|..|--- .... ....|G-3 2C.F ....|C-5 3FF7 ....
....|..|--- .... ....|R-- .... ....|--- .... ....
....|..|--- .... ....|A#3 2F.7 ....|F-5 3FFF ....
....|..|--- .... ....|R-- .... ....|R-- .... ....
....|..|G-3 3F6A ....|G-3 UF6A ....|--- .... ....
....|..|--- .... ....|--- .... ....|--- .... ....
 G-4|..|--- .... ....|G-3 2C.F ....|D-5 3FF7 ....
....|..|--- .... ....|R-- .... ....|--- .... ....
....|..|--- .... ....|--- .... ....|F-5 3FFA ....
....|..|--- .... ....|--- .... ....|R-- .... ....
 G-4|..|G-3 3F67 ....|G-3 2C.F ....|F-5 3FFF ....
....|..|--- .... ....|R-- .... ....|R-- .... ....
....|..|--- .... ....|G-3 2F.7 ....|R-- .... ....
....|..|--- .... ....|R-- .... ....|--- .... ....
....|..|--- .... ....|--- .... ....|F-5 3FFF ....
....|..|--- .... ....|--- .... ....|--- .... ....
 G-4|..|--- .... ....|G-3 2C.F ....|F-5 3FFA ....
....|..|--- .... ....|R-- .... ....|R-- .... ....
....|..|--- .... ....|G-3 2F.7 ....|R-- .... ....
....|..|--- .... ....|R-- .... ....|--- .... ....
....|..|--- .... ....|--- .... ....|F-5 3FFA ....
....|..|--- .... ....|--- .... ....|--- .... ....
 G-4|..|--- .... ....|G-3 2C.F ....|F-5 3FF7 ....
....|..|--- .... ....|R-- .... ....|R-- .... ....
....|..|--- .... ....|--- .... ....|--- .... ....
....|..|--- .... ....|--- .... ....|--- .... ....
 G-4|..|--- .... ....|G-3 2C.F ....|F-5 3FF7 ....
....|..|--- .... ....|R-- .... ....|--- .... ....
....|..|--- .... ....|G-3 2F.7 ....|--- .... ....
....|..|--- .... ....|R-- .... ....|--- .... ....
....|..|D-3 3F7F ....|D-3 UF7F ....|--- .... ....
....|..|--- .... ....|--- .... ....|R-- .... ....
 D-4|..|--- .... ....|D-4 2C.F ....|--- .... ....
....|..|--- .... ....|R-- .... ....|--- .... ....
....|..|--- .... ....|G-3 2F.7 ....|A-4 3FFF ....
....|..|--- .... ....|R-- .... ....|--- .... ....
....|..|D-3 3F7A ....|D-3 UF7A ....|--- .... ....
....|..|--- .... ....|--- .... ....|R-- .... ....
 D-4|..|--- .... ....|D-4 2C.F ....|R-- .... ....
....|..|--- .... ....|R-- .... ....|--- .... ....
....|..|--- .... ....|--- .... ....|A-4 3FFA ....
....|..|--- .... ....|--- .... ....|--- .... ....
 D-4|..|D-3 3F77 ....|D-4 2C.F ....|A-4 3FFF ....
....|..|--- .... ....|R-- .... ....|R-- .... ....
....|..|--- .... ....|D-4 2F.7 ....|R-- .... ....
....|..|--- .... ....|R-- .... ....|--- .... ....
....|..|--- .... ....|--- .... ....|A-4 3FFF ....
....|..|--- .... ....|--- .... ....|--- .... ....
 D-4|..|--- .... ....|D-4 2C.F ....|A-4 3FFA ....
....|..|--- .... ....|R-- .... ....|--- .... ....
....|..|--- .... ....|D-4 2F.7 ....|A-4 3FFF ....
....|..|--- .... ....|R-- .... ....|--- .... ....
....|..|--- .... ....|--- .... ....|A#4 3FFF ....
....|..|--- .... ....|--- .... ....|--- .... ....
 D-4|..|--- .... ....|D-4 2C.F ....|A-4 3FF7 ....
....|..|--- .... ....|R-- .... ....|--- .... ....
....|..|--- .... ....|--- .... ....|A-4 3FFA ....
....|..|--- .... ....|--- .... ....|--- .... ....
 D-4|..|--- .... ....|D-4 2C.F ....|C-5 3FFF ....
....|..|--- .... ....|R-- .... ....|--- .... ....
....|..|--- .... ....|D-4 2F.7 ....|R-- .... ....
....|..|--- .... ....|R-- .... ....|--- .... ....
....|..|D#3 3F8F ....|D#3 UF8F ....|A-4 3FF7 ....
....|..|--- .... ....|--- .... ....|--- .... ....
 D#4|..|--- .... ....|D#3 2C.F ....|A#4 3FF7 ....
....|..|--- .... ....|R-- .... ....|--- .... ....
....|..|--- .... ....|D-4 2F.7 ....|A#4 3FFF ....
....|..|--- .... ....|R-- .... ....|--- .... ....
....|..|D#3 3F8A ....|D#3 UF8A ....|R-- .... ....
....|..|--- .... ....|--- .... ....|--- .... ....
 D#4|..|--- .... ....|D#3 2C.F ....|C-5 3FF7 ....
....|..|--- .... ....|R-- .... ....|--- .... ....
....|..|--- .... ....|--- .... ....|A#4 3FFA ....
....|..|--- .... ....|--- .... ....|--- .... ....
 D#4|..|D#3 3F87 ....|D#3 2C.F ....|A#4 3FFF ....
....|..|--- .... ....|R-- .... ....|R-- .... ....
....|..|--- .... ....|D#3 2F.7 ....|--- .... ....
....|..|--- .... ....|R-- .... ....|--- .... ....
....|..|--- .... ....|--- .... ....|A#4 3FFF ....
....|..|--- .... ....|--- .... ....|--- .... ....
 D#4|..|--- .... ....|D#3 2C.F ....|A#4 3FFA ....
....|..|--- .... ....|R-- .... ....|R-- .... ....
....|..|--- .... ....|D#3 2F.7 ....|--- .... ....
....|..|--- .... ....|R-- .... ....|--- .... ....
....|..|--- .... ....|--- .... ....|A#4 3FFA ....
....|..|--- .... ....|--- .... ....|--- .... ....
 D#4|..|--- .... ....|D#3 2C.F ....|C-5 3FFF ....
....|..|--- .... ....|R-- .... ....|R-- .... ....
....|..|--- .... ....|--- .... ....|--- .... ....
....|..|--- .... ....|--- .... ....|--- .... ....
 D#4|..|--- .... ....|D#3 2C.F ....|A#4 3FF7 ....
....|..|--- .... ....|R-- .... ....|--- .... ....
....|..|--- .... ....|D#3 2F.7 ....|C-5 3FFA ....
....|..|--- .... ....|R-- .... ....|R-- .... ....
....|..|A#3 3F5F ....|A#3 UF5F ....|--- .... ....
....|..|--- .... ....|--- .... ....|--- .... ....
 A#3|..|--- .... ....|A#3 2C.F ....|--- .... ....
....|..|--- .... ....|R-- .... ....|--- .... ....
....|..|--- .... ....|D#3 2F.7 ....|A#4 3FFF ....
....|..|--- .... ....|R-- .... ....|R-- .... ....
....|..|A#3 3F5A ....|A#3 UF5A ....|--- .... ....
....|..|--- .... ....|--- .... ....|--- .... ....
 A#3|..|--- .... ....|A#3 2C.F ....|R-- .... ....
....|..|--- .... ....|R-- .... ....|--- .... ....
....|..|--- .... ....|--- .... ....|A#4 3FFA ....
....|..|--- .... ....|--- .... ....|R-- .... ....
 A#3|..|A#3 3F57 ....|A#3 2C.F ....|A#4 3FFF ....
....|..|--- .... ....|R-- .... ....|R-- .... ....
....|..|--- .... ....|A#3 2F.7 ....|R-- .... ....
....|..|--- .... ....|R-- .... ....|--- .... ....
....|..|--- .... ....|--- .... ....|A#4 3FFF ....
....|..|--- .... ....|--- .... ....|--- .... ....
 A#3|..|--- .... ....|A#3 2C.F ....|A#4 3FFA ....
....|..|--- .... ....|R-- .... ....|R-- .... ....
....|..|--- .... ....|A#3 2F.7 ....|A#4 3FFF ....
....|..|--- .... ....|R-- .... ....|R-- .... ....
....|..|--- .... ....|--- .... ....|C-5 3FFF ....
....|..|--- .... ....|--- .... ....|--- .... ....
 A#3|..|--- .... ....|A#3 2C.F ....|A#4 3FF7 ....
....|..|--- .... ....|R-- .... ....|R-- .... ....
....|..|--- .... ....|--- .... ....|A#4 3FFA ....
....|..|--- .... ....|--- .... ....|R-- .... ....
 A#3|..|--- .... ....|A#3 2C.F ....|D-5 3FFF ....
....|..|--- .... ....|R-- .... ....|--- .... ....
....|..|--- .... ....|A#3 2F.7 ....|R-- .... ....
....|..|--- .... ....|R-- .... ....|R-- .... ....

[Pattern12]
....|..|G-3 3F6F ....|G-3 UF6F ....|A#4 3FF7 ....
....|..|--- .... ....|--- .... ....|R-- .... ....
 G-4|..|--- .... ....|G-3 2C.F ....|C-5 3FF7 ....
....|..|--- .... ....|R-- .... ....|--- .... ....
....|..|--- .... ....|A#3 2F.7 ....|F-5 3FFF ....
....|..|--- .... ....|R-- .... ....|R-- .... ....
....|..|G-3 3F6A ....|G-3 UF6A ....|--- .... ....
....|..|--- .... ....|--- .... ....|--- .... ....
 G-4|..|--- .... ....|G-3 2C.F ....|D-5 3FF7 ....
....|..|--- .... ....|R-- .... ....|--- .... ....
....|..|--- .... ....|--- .... ....|F-5 3FFA ....
....|..|--- .... ....|--- .... ....|R-- .... ....
 G-4|..|G-3 3F67 ....|G-3 2C.F ....|F-5 3FFF ....
....|..|--- .... ....|R-- .... ....|R-- .... ....
....|..|--- .... ....|G-3 2F.7 ....|R-- .... ....
....|..|--- .... ....|R-- .... ....|--- .... ....
....|..|--- .... ....|--- .... ....|F-5 3FFF ....
....|..|--- .... ....|--- .... ....|--- .... ....
 G-4|..|--- .... ....|G-3 2C.F ....|F-5 3FFA ....
....|..|--- .... ....|R-- .... ....|R-- .... ....
....|..|--- .... ....|G-3 2F.7 ....|R-- .... ....
....|..|--- .... ....|R-- .... ....|--- .... ....
....|..|--- .... ....|--- .... ....|F-5 3FFA ....
....|..|--- .... ....|--- .... ....|--- .... ....
 G-4|..|--- .... ....|G-3 2C.F ....|F-5 3FF7 ....
....|..|--- .... ....|R-- .... ....|R-- .... ....
....|..|--- .... ....|--- .... ....|--- .... ....
....|..|--- .... ....|--- .... ....|--- .... ....
 G-4|..|--- .... ....|G-3 2C.F ....|F-5 3FF7 ....
....|..|--- .... ....|R-- .... ....|--- .... ....
....|..|--- .... ....|G-3 2F.7 ....|--- .... ....
....|..|--- .... ....|R-- .... ....|--- .... ....
....|..|D-3 3F7F ....|D-3 UF7F ....|--- .... ....
....|..|--- .... ....|--- .... ....|R-- .... ....
 D-4|..|--- .... ....|D-4 2C.F ....|--- .... ....
....|..|--- .... ....|R-- .... ....|--- .... ....
....|..|--- .... ....|G-3 2F.7 ....|A-4 3FFF ....
....|..|--- .... ....|R-- .... ....|--- .... ....
....|..|D-3 3F7A ....|D-3 UF7A ....|--- .... ....
....|..|--- .... ....|--- .... ....|R-- .... ....
 D-4|..|--- .... ....|D-4 2C.F ....|R-- .... ....
....|..|--- .... ....|R-- .... ....|--- .... ....
....|..|--- .... ....|--- .... ....|A-4 3FFA ....
....|..|--- .... ....|--- .... ....|--- .... ....
 D-4|..|D-3 3F77 ....|D-4 2C.F ....|A-4 3FFF ....
....|..|--- .... ....|R-- .... ....|R-- .... ....
....|..|--- .... ....|D-4 2F.7 ....|R-- .... ....
....|..|--- .... ....|R-- .... ....|--- .... ....
....|..|--- .... ....|--- .... ....|A-4 3FFF ....
....|..|--- .... ....|--- .... ....|--- .... ....
 D-4|..|--- .... ....|D-4 2C.F ....|A-4 3FFA ....
....|..|--- .... ....|R-- .... ....|--- .... ....
....|..|--- .... ....|D-4 2F.7 ....|A-4 3FFF ....
....|..|--- .... ....|R-- .... ....|--- .... ....
....|..|--- .... ....|--- .... ....|A#4 3FFF ....
....|..|--- .... ....|--- .... ....|--- .... ....
 D-4|..|--- .... ....|D-4 2C.F ....|A-4 3FF7 ....
....|..|--- .... ....|R-- .... ....|--- .... ....
....|..|--- .... ....|--- .... ....|A-4 3FFA ....
....|..|--- .... ....|--- .... ....|--- .... ....
 D-4|..|--- .... ....|D-4 2C.F ....|C-5 3FFF ....
....|..|--- .... ....|R-- .... ....|--- .... ....
....|..|--- .... ....|D-4 2F.7 ....|R-- .... ....
....|..|--- .... ....|R-- .... ....|--- .... ....
....|..|D#3 3F8F ....|D#3 UF8F ....|A-4 3FF7 ....
....|..|--- .... ....|--- .... ....|--- .... ....
 D#4|..|--- .... ....|D#3 2C.F ....|A#4 3FF7 ....
....|..|--- .... ....|R-- .... ....|--- .... ....
....|..|--- .... ....|D-4 2F.7 ....|A#4 3FFF ....
....|..|--- .... ....|R-- .... ....|--- .... ....
....|..|D#3 3F8A ....|D#3 UF8A ....|R-- .... ....
....|..|--- .... ....|--- .... ....|--- .... ....
 D#4|..|--- .... ....|D#3 2C.F ....|C-5 3FF7 ....
....|..|--- .... ....|R-- .... ....|--- .... ....
....|..|--- .... ....|--- .... ....|A#4 3FFA ....
....|..|--- .... ....|--- .... ....|--- .... ....
 D#4|..|D#3 3F87 ....|D#3 2C.F ....|A#4 3FFF ....
....|..|--- .... ....|R-- .... ....|R-- .... ....
....|..|--- .... ....|D#3 2F.7 ....|--- .... ....
....|..|--- .... ....|R-- .... ....|--- .... ....
....|..|--- .... ....|--- .... ....|A#4 3FFF ....
....|..|--- .... ....|--- .... ....|--- .... ....
 D#4|..|--- .... ....|D#3 2C.F ....|A#4 3FFA ....
....|..|--- .... ....|R-- .... ....|R-- .... ....
....|..|--- .... ....|D#3 2F.7 ....|--- .... ....
....|..|--- .... ....|R-- .... ....|--- .... ....
....|..|--- .... ....|--- .... ....|A#4 3FFA ....
....|..|--- .... ....|--- .... ....|--- .... ....
 D#4|..|--- .... ....|D#3 2C.F ....|C-5 3FFF ....
....|..|--- .... ....|R-- .... ....|R-- .... ....
....|..|--- .... ....|--- .... ....|--- .... ....
....|..|--- .... ....|--- .... ....|--- .... ....
 D#4|..|--- .... ....|D#3 2C.F ....|A#4 3FF7 ....
....|..|--- .... ....|R-- .... ....|--- .... ....
....|..|--- .... ....|D#3 2F.7 ....|C-5 3FFA ....
....|..|--- .... ....|R-- .... ....|R-- .... ....
....|..|A#3 3F5F ....|A#3 UF5F ....|--- .... ....
....|..|--- .... ....|--- .... ....|--- .... ....
 A#3|..|--- .... ....|A#3 2C.F ....|--- .... ....
....|..|--- .... ....|R-- .... ....|--- .... ....
 A#3|..|A#1 2A.F ....|D#3 2F.7 ....|A#4 3FFF ....
....|..|--- .... ....|R-- .... ....|R-- .... ....
....|..|A#3 3F5A ....|A#3 UF5A ....|--- .... ....
....|..|--- .... ....|--- .... ....|--- .... ....
 A#3|..|R-- .... ....|A#3 2C.F ....|R-- .... ....
....|..|--- .... ....|R-- .... ....|--- .... ....
....|..|A#1 2F.A ....|--- .... ....|A#4 3FFA ....
....|..|--- .... ....|--- .... ....|R-- .... ....
 A#3|..|A#2 2C.F ....|A#3 2C.F ....|A#4 3FFF ....
....|..|--- .... ....|R-- .... ....|R-- .... ....
....|..|R-- .... ....|A#3 2F.7 ....|R-- .... ....
....|..|--- .... ....|R-- .... ....|--- .... ....
....|..|A#1 2F.7 ....|--- .... ....|A#4 3FFF ....
....|..|--- .... ....|--- .... ....|--- .... ....
 A#3|..|A#1 2F.A ....|A#3 2C.F ....|A#4 3FFA ....
....|..|--- .... ....|R-- .... ....|R-- .... ....
 A#3|..|A#1 2A.F ....|A#3 2F.7 ....|A#4 3FFF ....
....|..|--- .... ....|R-- .... ....|R-- .... ....
....|..|R-- .... ....|--- .... ....|C-5 3FFF ....
....|..|--- .... ....|--- .... ....|--- .... ....
 A#3|..|A#1 2F.7 ....|A#3 2C.F ....|A#4 3FF7 ....
....|..|--- .... ....|R-- .... ....|R-- .... ....
....|..|A#1 2F.A ....|--- .... ....|A#4 3FFA ....
....|..|--- .... ....|--- .... ....|R-- .... ....
 A#3|..|A#2 2C.F ....|A#3 2C.F ....|D-5 3FFF ....
....|..|--- .... ....|R-- .... ....|--- .... ....
....|..|R-- .... ....|A#3 2F.7 ....|R-- .... ....
....|..|--- .... ....|R-- .... ....|R-- .... ....

[Pattern13]
....|..|G-3 3F6F ....|G-3 UF6F ....|A#4 3FF7 ....
....|..|--- .... ....|--- .... ....|R-- .... ....
 G-4|..|A#1 2F.A ....|G-3 2C.F ....|C-5 3FF7 ....
....|..|--- .... ....|R-- .... ....|--- .... ....
 G-3|..|G-1 2A.F ....|A#3 2F.7 ....|F-5 3FFF ....
....|..|--- .... ....|R-- .... ....|R-- .... ....
....|..|G-3 3F6A ....|G-3 UF6A ....|--- .... ....
....|..|--- .... ....|--- .... ....|--- .... ....
 G-4|..|A#1 2F.7 ....|G-3 2C.F ....|D-5 3FF7 ....
....|..|--- .... ....|R-- .... ....|--- .... ....
....|..|G-1 2F.A ....|--- .... ....|F-5 3FFA ....
....|..|--- .... ....|--- .... ....|R-- .... ....
 G-4|..|G-2 2A.F ....|G-3 2C.F ....|F-5 3FFF ....
....|..|--- .... ....|R-- .... ....|R-- .... ....
....|..|R-- .... ....|G-3 2F.7 ....|R-- .... ....
....|..|--- .... ....|R-- .... ....|--- .... ....
....|..|G-1 2F.7 ....|--- .... ....|F-5 3FFF ....
....|..|--- .... ....|--- .... ....|--- .... ....
 G-4|..|G-1 2F.A ....|G-3 2C.F ....|F-5 3FFA ....
....|..|--- .... ....|R-- .... ....|R-- .... ....
 G-3|..|G-1 2A.F ....|G-3 2F.7 ....|R-- .... ....
....|..|--- .... ....|R-- .... ....|--- .... ....
....|..|R-- .... ....|--- .... ....|F-5 3FFA ....
....|..|--- .... ....|--- .... ....|--- .... ....
 G-4|..|G-1 2F.7 ....|G-3 2C.F ....|F-5 3FF7 ....
....|..|--- .... ....|R-- .... ....|R-- .... ....
....|..|G-1 2F.A ....|--- .... ....|--- .... ....
....|..|--- .... ....|--- .... ....|--- .... ....
 G-4|..|G-2 2A.F ....|G-3 2C.F ....|F-5 3FF7 ....
....|..|--- .... ....|R-- .... ....|--- .... ....
....|..|R-- .... ....|G-3 2F.7 ....|--- .... ....
....|..|--- .... ....|R-- .... ....|--- .... ....
....|..|D-3 3F7F ....|D-3 UF7F ....|--- .... ....
....|..|--- .... ....|--- .... ....|R-- .... ....
 D-4|..|G-1 2F.A ....|D-4 2C.F ....|--- .... ....
....|..|--- .... ....|R-- .... ....|--- .... ....
 D-4|..|D-2 2A.F ....|G-3 2F.7 ....|A-4 3FFF ....
....|..|--- .... ....|R-- .... ....|--- .... ....
....|..|D-3 3F7A ....|D-3 UF7A ....|--- .... ....
....|..|--- .... ....|--- .... ....|R-- .... ....
 D-4|..|G-1 2F.7 ....|D-4 2C.F ....|R-- .... ....
....|..|--- .... ....|R-- .... ....|--- .... ....
....|..|D-2 2F.A ....|--- .... ....|A-4 3FFA ....
....|..|--- .... ....|--- .... ....|--- .... ....
 D-4|..|D-3 2C.F ....|D-4 2C.F ....|A-4 3FFF ....
....|..|--- .... ....|R-- .... ....|R-- .... ....
....|..|R-- .... ....|D-4 2F.7 ....|R-- .... ....
....|..|--- .... ....|R-- .... ....|--- .... ....
....|..|D-2 2F.7 ....|--- .... ....|A-4 3FFF ....
....|..|--- .... ....|--- .... ....|--- .... ....
 D-4|..|D-2 2F.A ....|D-4 2C.F ....|A-4 3FFA ....
....|..|--- .... ....|R-- .... ....|--- .... ....
 D-4|..|D-2 2A.F ....|D-4 2F.7 ....|A-4 3FFF ....
....|..|--- .... ....|R-- .... ....|--- .... ....
....|..|R-- .... ....|--- .... ....|A#4 3FFF ....
....|..|--- .... ....|--- .... ....|--- .... ....
 D-4|..|D-2 2F.7 ....|D-4 2C.F ....|A-4 3FF7 ....
....|..|--- .... ....|R-- .... ....|--- .... ....
....|..|D-2 2F.A ....|--- .... ....|A-4 3FFA ....
....|..|--- .... ....|--- .... ....|--- .... ....
 D-4|..|D-3 2C.F ....|D-4 2C.F ....|C-5 3FFF ....
....|..|--- .... ....|R-- .... ....|--- .... ....
....|..|R-- .... ....|D-4 2F.7 ....|R-- .... ....
....|..|--- .... ....|R-- .... ....|--- .... ....
....|..|D#3 3F8F ....|D#3 UF8F ....|A-4 3FF7 ....
....|..|--- .... ....|--- .... ....|--- .... ....
 D#4|..|D-2 2F.A ....|D#3 2C.F ....|A#4 3FF7 ....
....|..|--- .... ....|R-- .... ....|--- .... ....
 D#4|..|D#2 2A.F ....|D-4 2F.7 ....|A#4 3FFF ....
....|..|--- .... ....|R-- .... ....|--- .... ....
....|..|D#3 3F8A ....|D#3 UF8A ....|R-- .... ....
....|..|--- .... ....|--- .... ....|--- .... ....
 D#4|..|D-2 2F.7 ....|D#3 2C.F ....|C-5 3FF7 ....
....|..|--- .... ....|R-- .... ....|--- .... ....
....|..|D#2 2F.A ....|--- .... ....|A#4 3FFA ....
....|..|--- .... ....|--- .... ....|--- .... ....
 D#4|..|D#3 2C.F ....|D#3 2C.F ....|A#4 3FFF ....
....|..|--- .... ....|R-- .... ....|R-- .... ....
....|..|R-- .... ....|D#3 2F.7 ....|--- .... ....
....|..|--- .... ....|R-- .... ....|--- .... ....
....|..|D#2 2F.7 ....|--- .... ....|A#4 3FFF ....
....|..|--- .... ....|--- .... ....|--- .... ....
 D#4|..|D#2 2F.A ....|D#3 2C.F ....|A#4 3FFA ....
....|..|--- .... ....|R-- .... ....|R-- .... ....
 D#4|..|D#2 2A.F ....|D#3 2F.7 ....|--- .... ....
....|..|--- .... ....|R-- .... ....|--- .... ....
....|..|R-- .... ....|--- .... ....|A#4 3FFA ....
....|..|--- .... ....|--- .... ....|--- .... ....
 D#4|..|D#2 2F.7 ....|D#3 2C.F ....|C-5 3FFF ....
....|..|--- .... ....|R-- .... ....|R-- .... ....
....|..|D#2 2F.A ....|--- .... ....|--- .... ....
....|..|--- .... ....|--- .... ....|--- .... ....
 D#4|..|D#3 2C.F ....|D#3 2C.F ....|A#4 3FF7 ....
....|..|--- .... ....|R-- .... ....|--- .... ....
....|..|R-- .... ....|D#3 2F.7 ....|C-5 3FFA ....
....|..|--- .... ....|R-- .... ....|R-- .... ....
....|..|A#3 3F5F ....|A#3 UF5F ....|--- .... ....
....|..|--- .... ....|--- .... ....|--- .... ....
 A#3|..|D#2 2F.A ....|A#3 2C.F ....|--- .... ....
....|..|--- .... ....|R-- .... ....|--- .... ....
 A#3|..|A#1 2A.F ....|D#3 2F.7 ....|A#4 3FFF ....
....|..|--- .... ....|R-- .... ....|R-- .... ....
....|..|A#3 3F5A ....|A#3 UF5A ....|--- .... ....
....|..|--- .... ....|--- .... ....|--- .... ....
 A#3|..|D#2 2F.7 ....|A#3 2C.F ....|R-- .... ....
....|..|--- .... ....|R-- .... ....|--- .... ....
....|..|A#1 2F.A ....|--- .... ....|A#4 3FFA ....
....|..|--- .... ....|--- .... ....|R-- .... ....
 A#3|..|A#2 2C.F ....|A#3 2C.F ....|A#4 3FFF ....
....|..|--- .... ....|R-- .... ....|R-- .... ....
....|..|R-- .... ....|A#3 2F.7 ....|R-- .... ....
....|..|--- .... ....|R-- .... ....|--- .... ....
....|..|A#1 2F.7 ....|--- .... ....|A#4 3FFF ....
....|..|--- .... ....|--- .... ....|--- .... ....
 A#3|..|A#1 2F.A ....|A#3 2C.F ....|A#4 3FFA ....
....|..|--- .... ....|R-- .... ....|R-- .... ....
 A#3|..|A#1 2A.F ....|A#3 2F.7 ....|A#4 3FFF ....
....|..|--- .... ....|R-- .... ....|R-- .... ....
....|..|R-- .... ....|--- .... ....|C-5 3FFF ....
....|..|--- .... ....|--- .... ....|--- .... ....
 A#3|..|A#1 2F.7 ....|A#3 2C.F ....|A#4 3FF7 ....
....|..|--- .... ....|R-- .... ....|R-- .... ....
....|..|A#1 2F.A ....|--- .... ....|A#4 3FFA ....
....|..|--- .... ....|--- .... ....|R-- .... ....
 A#3|..|A#2 2C.F ....|A#3 2C.F ....|D-5 3FFF ....
....|..|--- .... ....|R-- .... ....|--- .... ....
....|..|R-- .... ....|A#3 2F.7 ....|R-- .... ....
....|..|--- .... ....|R-- .... ....|R-- .... ....

[Pattern14]
....|..|G-3 3F6F ....|G-3 UF6F ....|A#4 3FF7 ....
....|..|--- .... ....|--- .... ....|R-- .... ....
 G-4|..|A#1 2F.A ....|G-3 2C.F ....|C-5 3FF7 ....
....|..|--- .... ....|R-- .... ....|--- .... ....
 G-3|..|G-1 2A.F ....|A#3 2F.7 ....|F-5 3FFF ....
....|..|--- .... ....|R-- .... ....|R-- .... ....
....|..|G-3 3F6A ....|G-3 UF6A ....|--- .... ....
....|..|--- .... ....|--- .... ....|--- .... ....
 G-4|..|A#1 2F.7 ....|G-3 2C.F ....|D-5 3FF7 ....
....|..|--- .... ....|R-- .... ....|--- .... ....
....|..|G-1 2F.A ....|--- .... ....|F-5 3FFA ....
....|..|--- .... ....|--- .... ....|R-- .... ....
 G-4|..|G-2 2A.F ....|G-3 2C.F ....|F-5 3FFF ....
....|..|--- .... ....|R-- .... ....|R-- .... ....
....|..|R-- .... ....|G-3 2F.7 ....|R-- .... ....
....|..|--- .... ....|R-- .... ....|--- .... ....
....|..|G-1 2F.7 ....|--- .... ....|F-5 3FFF ....
....|..|--- .... ....|--- .... ....|--- .... ....
 G-4|..|G-1 2F.A ....|G-3 2C.F ....|F-5 3FFA ....
....|..|--- .... ....|R-- .... ....|R-- .... ....
 G-3|..|G-1 2A.F ....|G-3 2F.7 ....|R-- .... ....
....|..|--- .... ....|R-- .... ....|--- .... ....
....|..|R-- .... ....|--- .... ....|F-5 3FFA ....
....|..|--- .... ....|--- .... ....|--- .... ....
 G-4|..|G-1 2F.7 ....|G-3 2C.F ....|F-5 3FF7 ....
....|..|--- .... ....|R-- .... ....|R-- .... ....
....|..|G-1 2F.A ....|--- .... ....|--- .... ....
....|..|--- .... ....|--- .... ....|--- .... ....
 G-4|..|G-2 2A.F ....|G-3 2C.F ....|F-5 3FF7 ....
....|..|--- .... ....|R-- .... ....|--- .... ....
....|..|R-- .... ....|G-3 2F.7 ....|--- .... ....
....|..|--- .... ....|R-- .... ....|--- .... ....
....|..|D-3 3F7F ....|D-3 UF7F ....|--- .... ....
....|..|--- .... ....|--- .... ....|R-- .... ....
 D-4|..|G-1 2F.A ....|D-4 2C.F ....|--- .... ....
....|..|--- .... ....|R-- .... ....|--- .... ....
 D-4|..|D-2 2A.F ....|G-3 2F.7 ....|A-4 3FFF ....
....|..|--- .... ....|R-- .... ....|--- .... ....
....|..|D-3 3F7A ....|D-3 UF7A ....|--- .... ....
....|..|--- .... ....|--- .... ....|R-- .... ....
 D-4|..|G-1 2F.7 ....|D-4 2C.F ....|R-- .... ....
....|..|--- .... ....|R-- .... ....|--- .... ....
....|..|D-2 2F.A ....|--- .... ....|A-4 3FFA ....
....|..|--- .... ....|--- .... ....|--- .... ....
 D-4|..|D-3 2C.F ....|D-4 2C.F ....|A-4 3FFF ....
....|..|--- .... ....|R-- .... ....|R-- .... ....
....|..|R-- .... ....|D-4 2F.7 ....|R-- .... ....
....|..|--- .... ....|R-- .... ....|--- .... ....
....|..|D-2 2F.7 ....|--- .... ....|A-4 3FFF ....
....|..|--- .... ....|--- .... ....|--- .... ....
 D-4|..|D-2 2F.A ....|D-4 2C.F ....|A-4 3FFA ....
....|..|--- .... ....|R-- .... ....|--- .... ....
 D-4|..|D-2 2A.F ....|D-4 2F.7 ....|A-4 3FFF ....
....|..|--- .... ....|R-- .... ....|--- .... ....
....|..|R-- .... ....|--- .... ....|A#4 3FFF ....
....|..|--- .... ....|--- .... ....|--- .... ....
 D-4|..|D-2 2F.7 ....|D-4 2C.F ....|A-4 3FF7 ....
....|..|--- .... ....|R-- .... ....|--- .... ....
....|..|D-2 2F.A ....|--- .... ....|A-4 3FFA ....
....|..|--- .... ....|--- .... ....|--- .... ....
 D-4|..|D-3 2C.F ....|D-4 2C.F ....|C-5 3FFF ....
....|..|--- .... ....|R-- .... ....|--- .... ....
....|..|R-- .... ....|D-4 2F.7 ....|R-- .... ....
....|..|--- .... ....|R-- .... ....|--- .... ....
....|..|D#3 3F8F ....|D#3 UF8F ....|A-4 3FF7 ....
....|..|--- .... ....|--- .... ....|--- .... ....
 D#4|..|D-2 2F.A ....|D#3 2C.F ....|A#4 3FF7 ....
....|..|--- .... ....|R-- .... ....|--- .... ....
 D#4|..|D#2 2A.F ....|D-4 2F.7 ....|A#4 3FFF ....
....|..|--- .... ....|R-- .... ....|--- .... ....
....|..|D#3 3F8A ....|D#3 UF8A ....|R-- .... ....
....|..|--- .... ....|--- .... ....|--- .... ....
 D#4|..|D-2 2F.7 ....|D#3 2C.F ....|C-5 3FF7 ....
....|..|--- .... ....|R-- .... ....|--- .... ....
....|..|D#2 2F.A ....|--- .... ....|A#4 3FFA ....
....|..|--- .... ....|--- .... ....|--- .... ....
 D#4|..|D#3 2C.F ....|D#3 2C.F ....|A#4 3FFF ....
....|..|--- .... ....|R-- .... ....|R-- .... ....
....|..|R-- .... ....|D#3 2F.7 ....|--- .... ....
....|..|--- .... ....|R-- .... ....|--- .... ....
....|..|D#2 2F.7 ....|--- .... ....|A#4 3FFF ....
....|..|--- .... ....|--- .... ....|--- .... ....
 D#4|..|D#2 2F.A ....|D#3 2C.F ....|A#4 3FFA ....
....|..|--- .... ....|R-- .... ....|R-- .... ....
 D#4|..|D#2 2A.F ....|D#3 2F.7 ....|--- .... ....
....|..|--- .... ....|R-- .... ....|--- .... ....
....|..|R-- .... ....|--- .... ....|A#4 3FFA ....
....|..|--- .... ....|--- .... ....|--- .... ....
 D#4|..|D#2 2F.7 ....|D#3 2C.F ....|C-5 3FFF ....
....|..|--- .... ....|R-- .... ....|R-- .... ....
....|..|D#2 2F.A ....|--- .... ....|--- .... ....
....|..|--- .... ....|--- .... ....|--- .... ....
 D#4|..|D#3 2C.F ....|D#3 2C.F ....|A#4 3FF7 ....
....|..|--- .... ....|R-- .... ....|--- .... ....
....|..|R-- .... ....|D#3 2F.7 ....|C-5 3FFA ....
....|..|--- .... ....|R-- .... ....|R-- .... ....
....|..|A#3 3F5F ....|A#3 UF5F ....|--- .... ....
....|..|--- .... ....|--- .... ....|--- .... ....
 A#3|..|D#2 2F.A ....|A#4 2C.F ....|--- .... ....
....|..|--- .... ....|R-- .... ....|--- .... ....
 A#3|..|A#1 2A.F ....|D#3 2F.7 ....|A#4 3FFF ....
....|..|--- .... ....|R-- .... ....|R-- .... ....
....|..|A#3 3F5A ....|A#3 UF5A ....|--- .... ....
....|..|--- .... ....|--- .... ....|--- .... ....
 A#3|..|D#2 2F.7 ....|A#4 2C.F ....|R-- .... ....
....|..|--- .... ....|R-- .... ....|--- .... ....
....|..|A#1 2F.A ....|--- .... ....|A#4 3FFA ....
....|..|--- .... ....|--- .... ....|R-- .... ....
 A#3|..|A#2 2C.F ....|A#4 2C.F ....|A#4 3FFF ....
....|..|--- .... ....|R-- .... ....|R-- .... ....
....|..|R-- .... ....|A#4 2F.7 ....|R-- .... ....
....|..|--- .... ....|R-- .... ....|--- .... ....
....|..|A#1 2F.7 ....|--- .... ....|A#4 3FFF ....
....|..|--- .... ....|--- .... ....|--- .... ....
 A#3|..|A#1 2F.A ....|A#4 2C.F ....|A#4 3FFA ....
....|..|--- .... ....|R-- .... ....|R-- .... ....
 A#3|..|A#1 2A.F ....|A#4 2F.7 ....|A#4 3FFF ....
....|..|--- .... ....|R-- .... ....|R-- .... ....
....|..|R-- .... ....|--- .... ....|C-5 3FFF ....
....|..|--- .... ....|--- .... ....|--- .... ....
 A#3|..|A#1 2F.7 ....|A#4 2C.F ....|A#4 3FF7 ....
....|..|--- .... ....|R-- .... ....|R-- .... ....
....|..|A#1 2F.A ....|--- .... ....|A#4 3FFA ....
....|..|--- .... ....|--- .... ....|R-- .... ....
 A#3|..|A#2 2C.F ....|A#4 2C.F ....|D-5 3FFF ....
....|..|--- .... ....|R-- .... ....|--- .... ....
....|..|R-- .... ....|A#4 2F.7 ....|R-- .... ....
....|..|--- .... ....|R-- .... ....|R-- .... ....

[Pattern15]
....|..|G-3 3F6F ....|G-3 UF6F ....|A#4 3FF7 ....
....|..|--- .... ....|--- .... ....|R-- .... ....
 G-4|..|A#1 2F.A ....|G-4 2C.F ....|C-5 3FF7 ....
....|..|--- .... ....|R-- .... ....|--- .... ....
 G-3|..|G-1 2A.F ....|A#4 2F.7 ....|F-5 3FFF ....
....|..|--- .... ....|R-- .... ....|R-- .... ....
....|..|G-3 3F6A ....|G-3 UF6A ....|--- .... ....
....|..|--- .... ....|--- .... ....|--- .... ....
 G-4|..|A#1 2F.7 ....|G-4 2C.F ....|D-5 3FF7 ....
....|..|--- .... ....|R-- .... ....|--- .... ....
....|..|G-1 2F.A ....|--- .... ....|F-5 3FFA ....
....|..|--- .... ....|--- .... ....|R-- .... ....
 G-4|..|G-2 2A.F ....|G-4 2C.F ....|F-5 3FFF ....
....|..|--- .... ....|R-- .... ....|R-- .... ....
....|..|R-- .... ....|G-4 2F.7 ....|R-- .... ....
....|..|--- .... ....|R-- .... ....|--- .... ....
....|..|G-1 2F.7 ....|--- .... ....|F-5 3FFF ....
....|..|--- .... ....|--- .... ....|--- .... ....
 G-4|..|G-1 2F.A ....|G-4 2C.F ....|F-5 3FFA ....
....|..|--- .... ....|R-- .... ....|R-- .... ....
 G-3|..|G-1 2A.F ....|G-4 2F.7 ....|R-- .... ....
....|..|--- .... ....|R-- .... ....|--- .... ....
....|..|R-- .... ....|--- .... ....|F-5 3FFA ....
....|..|--- .... ....|--- .... ....|--- .... ....
 G-4|..|G-1 2F.7 ....|G-4 2C.F ....|F-5 3FF7 ....
....|..|--- .... ....|R-- .... ....|R-- .... ....
....|..|G-1 2F.A ....|--- .... ....|--- .... ....
....|..|--- .... ....|--- .... ....|--- .... ....
 G-4|..|G-2 2A.F ....|G-4 2C.F ....|F-5 3FF7 ....
....|..|--- .... ....|R-- .... ....|--- .... ....
....|..|R-- .... ....|G-4 2F.7 ....|--- .... ....
....|..|--- .... ....|R-- .... ....|--- .... ....
....|..|D-3 3F7F ....|D-3 UF7F ....|--- .... ....
....|..|--- .... ....|--- .... ....|R-- .... ....
 D-4|..|G-1 2F.A ....|D-5 2C.F ....|--- .... ....
....|..|--- .... ....|R-- .... ....|--- .... ....
 D-4|..|D-2 2A.F ....|G-4 2F.7 ....|A-4 3FFF ....
....|..|--- .... ....|R-- .... ....|--- .... ....
....|..|D-3 3F7A ....|D-3 UF7A ....|--- .... ....
....|..|--- .... ....|--- .... ....|R-- .... ....
 D-4|..|G-1 2F.7 ....|D-5 2C.F ....|R-- .... ....
....|..|--- .... ....|R-- .... ....|--- .... ....
....|..|D-2 2F.A ....|--- .... ....|A-4 3FFA ....
....|..|--- .... ....|--- .... ....|--- .... ....
 D-4|..|D-3 2C.F ....|D-5 2C.F ....|A-4 3FFF ....
....|..|--- .... ....|R-- .... ....|R-- .... ....
....|..|R-- .... ....|D-5 2F.7 ....|R-- .... ....
....|..|--- .... ....|R-- .... ....|--- .... ....
....|..|D-2 2F.7 ....|--- .... ....|A-4 3FFF ....
....|..|--- .... ....|--- .... ....|--- .... ....
 D-4|..|D-2 2F.A ....|D-5 2C.F ....|A-4 3FFA ....
....|..|--- .... ....|R-- .... ....|--- .... ....
 D-4|..|D-2 2A.F ....|D-5 2F.7 ....|A-4 3FFF ....
....|..|--- .... ....|R-- .... ....|--- .... ....
....|..|R-- .... ....|--- .... ....|A#4 3FFF ....
....|..|--- .... ....|--- .... ....|--- .... ....
 D-4|..|D-2 2F.7 ....|D-5 2C.F ....|A-4 3FF7 ....
....|..|--- .... ....|R-- .... ....|--- .... ....
....|..|D-2 2F.A ....|--- .... ....|A-4 3FFA ....
....|..|--- .... ....|--- .... ....|--- .... ....
 D-4|..|D-3 2C.F ....|D-5 2C.F ....|C-5 3FFF ....
....|..|--- .... ....|R-- .... ....|--- .... ....
....|..|R-- .... ....|D-5 2F.7 ....|R-- .... ....
....|..|--- .... ....|R-- .... ....|--- .... ....
....|..|D#3 3F8F ....|D#3 UF8F ....|A-4 3FF7 ....
....|..|--- .... ....|--- .... ....|--- .... ....
 D#4|..|D-2 2F.A ....|D#4 2C.F ....|A#4 3FF7 ....
....|..|--- .... ....|R-- .... ....|--- .... ....
 D#4|..|D#2 2A.F ....|D-5 2F.7 ....|A#4 3FFF ....
....|..|--- .... ....|R-- .... ....|--- .... ....
....|..|D#3 3F8A ....|D#3 UF8A ....|R-- .... ....
....|..|--- .... ....|--- .... ....|--- .... ....
 D#4|..|D-2 2F.7 ....|D#4 2C.F ....|C-5 3FF7 ....
....|..|--- .... ....|R-- .... ....|--- .... ....
....|..|D#2 2F.A ....|--- .... ....|A#4 3FFA ....
....|..|--- .... ....|--- .... ....|--- .... ....
 D#4|..|D#3 2C.F ....|D#4 2C.F ....|A#4 3FFF ....
....|..|--- .... ....|R-- .... ....|R-- .... ....
....|..|R-- .... ....|D#4 2F.7 ....|--- .... ....
....|..|--- .... ....|R-- .... ....|--- .... ....
....|..|D#2 2F.7 ....|--- .... ....|A#4 3FFF ....
....|..|--- .... ....|--- .... ....|--- .... ....
 D#4|..|D#2 2F.A ....|D#4 2C.F ....|A#4 3FFA ....
....|..|--- .... ....|R-- .... ....|R-- .... ....
 D#4|..|D#2 2A.F ....|D#4 2F.7 ....|--- .... ....
....|..|--- .... ....|R-- .... ....|--- .... ....
....|..|R-- .... ....|--- .... ....|A#4 3FFA ....
....|..|--- .... ....|--- .... ....|--- .... ....
 D#4|..|D#2 2F.7 ....|D#4 2C.F ....|C-5 3FFF ....
....|..|--- .... ....|R-- .... ....|R-- .... ....
....|..|D#2 2F.A ....|--- .... ....|--- .... ....
....|..|--- .... ....|--- .... ....|--- .... ....
 D#4|..|D#3 2C.F ....|D#4 2C.F ....|A#4 3FF7 ....
....|..|--- .... ....|R-- .... ....|--- .... ....
....|..|R-- .... ....|D#4 2F.7 ....|C-5 3FFA ....
....|..|--- .... ....|R-- .... ....|R-- .... ....
....|..|A#3 3F5F ....|A#3 UF5F ....|--- .... ....
....|..|--- .... ....|--- .... ....|--- .... ....
 A#3|..|D#2 2F.A ....|A#4 2C.F ....|--- .... ....
....|..|--- .... ....|R-- .... ....|--- .... ....
 A#3|..|A#1 2A.F ....|D#4 2F.7 ....|A#4 3FFF ....
....|..|--- .... ....|R-- .... ....|R-- .... ....
....|..|A#3 3F5A ....|A#3 UF5A ....|--- .... ....
....|..|--- .... ....|--- .... ....|--- .... ....
 A#3|..|D#2 2F.7 ....|A#4 2C.F ....|R-- .... ....
....|..|--- .... ....|R-- .... ....|--- .... ....
....|..|A#1 2F.A ....|--- .... ....|A#4 3FFA ....
....|..|--- .... ....|--- .... ....|R-- .... ....
 A#3|..|A#2 2C.F ....|A#4 2C.F ....|A#4 3FFF ....
....|..|--- .... ....|R-- .... ....|R-- .... ....
....|..|R-- .... ....|A#4 2F.7 ....|R-- .... ....
....|..|--- .... ....|R-- .... ....|--- .... ....
....|..|A#1 2F.7 ....|--- .... ....|A#4 3FFF ....
....|..|--- .... ....|--- .... ....|--- .... ....
 A#3|..|A#1 2F.A ....|A#4 2C.F ....|A#4 3FFA ....
....|..|--- .... ....|R-- .... ....|R-- .... ....
 A#3|..|A#1 2A.F ....|A#4 2F.7 ....|A#4 3FFF ....
....|..|--- .... ....|R-- .... ....|R-- .... ....
....|..|R-- .... ....|--- .... ....|C-5 3FFF ....
....|..|--- .... ....|--- .... ....|--- .... ....
 A#3|..|A#1 2F.7 ....|A#4 2C.F ....|A#4 3FF7 ....
....|..|--- .... ....|R-- .... ....|R-- .... ....
....|..|A#1 2F.A ....|--- .... ....|A#4 3FFA ....
....|..|--- .... ....|--- .... ....|R-- .... ....
 A#3|..|A#2 2C.F ....|A#4 2C.F ....|D-5 3FFF ....
....|..|--- .... ....|R-- .... ....|--- .... ....
....|..|R-- .... ....|A#4 2F.7 ....|R-- .... ....
....|..|--- .... ....|R-- .... ....|R-- .... ....

[Pattern16]
....|..|G-3 3F6F ....|G-3 UF6F ....|A#4 3FF7 ....
....|..|--- .... ....|--- .... ....|R-- .... ....
 G-4|..|A#1 2F.A ....|G-4 2C.F ....|C-5 3FF7 ....
....|..|--- .... ....|R-- .... ....|--- .... ....
 G-3|..|G-1 2A.F ....|A#4 2F.7 ....|F-5 3FFF ....
....|..|--- .... ....|R-- .... ....|R-- .... ....
....|..|G-3 3F6A ....|G-3 UF6A ....|--- .... ....
....|..|--- .... ....|--- .... ....|--- .... ....
 G-4|..|A#1 2F.7 ....|G-4 2C.F ....|D-5 3FF7 ....
....|..|--- .... ....|R-- .... ....|--- .... ....
....|..|G-1 2F.A ....|--- .... ....|F-5 3FFA ....
....|..|--- .... ....|--- .... ....|R-- .... ....
 G-4|..|G-2 2A.F ....|G-4 2C.F ....|F-5 3FFF ....
....|..|--- .... ....|R-- .... ....|R-- .... ....
....|..|R-- .... ....|G-4 2F.7 ....|R-- .... ....
....|..|--- .... ....|R-- .... ....|--- .... ....
....|..|G-1 2F.7 ....|--- .... ....|F-5 3FFF ....
....|..|--- .... ....|--- .... ....|--- .... ....
 G-4|..|G-1 2F.A ....|G-4 2C.F ....|F-5 3FFA ....
....|..|--- .... ....|R-- .... ....|R-- .... ....
 G-3|..|G-1 2A.F ....|G-4 2F.7 ....|R-- .... ....
....|..|--- .... ....|R-- .... ....|--- .... ....
....|..|R-- .... ....|--- .... ....|F-5 3FFA ....
....|..|--- .... ....|--- .... ....|--- .... ....
 G-4|..|G-1 2F.7 ....|G-4 2C.F ....|F-5 3FF7 ....
....|..|--- .... ....|R-- .... ....|R-- .... ....
....|..|G-1 2F.A ....|--- .... ....|--- .... ....
....|..|--- .... ....|--- .... ....|--- .... ....
 G-4|..|G-2 2A.F ....|G-4 2C.F ....|F-5 3FF7 ....
....|..|--- .... ....|R-- .... ....|--- .... ....
....|..|R-- .... ....|G-4 2F.7 ....|--- .... ....
....|..|--- .... ....|R-- .... ....|--- .... ....
....|..|D-3 3F7F ....|D-3 UF7F ....|--- .... ....
....|..|--- .... ....|--- .... ....|R-- .... ....
 D-4|..|G-1 2F.A ....|D-5 2C.F ....|--- .... ....
....|..|--- .... ....|R-- .... ....|--- .... ....
 D-4|..|D-2 2A.F ....|G-4 2F.7 ....|A-4 3FFF ....
....|..|--- .... ....|R-- .... ....|--- .... ....
....|..|D-3 3F7A ....|D-3 UF7A ....|--- .... ....
....|..|--- .... ....|--- .... ....|R-- .... ....
 D-4|..|G-1 2F.7 ....|D-5 2C.F ....|R-- .... ....
....|..|--- .... ....|R-- .... ....|--- .... ....
....|..|D-2 2F.A ....|--- .... ....|A-4 3FFA ....
....|..|--- .... ....|--- .... ....|--- .... ....
 D-4|..|D-3 2C.F ....|D-5 2C.F ....|A-4 3FFF ....
....|..|--- .... ....|R-- .... ....|R-- .... ....
....|..|R-- .... ....|D-5 2F.7 ....|R-- .... ....
....|..|--- .... ....|R-- .... ....|--- .... ....
....|..|D-2 2F.7 ....|--- .... ....|A-4 3FFF ....
....|..|--- .... ....|--- .... ....|--- .... ....
 D-4|..|D-2 2F.A ....|D-5 2C.F ....|A-4 3FFA ....
....|..|--- .... ....|R-- .... ....|--- .... ....
 D-4|..|D-2 2A.F ....|D-5 2F.7 ....|A-4 3FFF ....
....|..|--- .... ....|R-- .... ....|--- .... ....
....|..|R-- .... ....|--- .... ....|A#4 3FFF ....
....|..|--- .... ....|--- .... ....|--- .... ....
 D-4|..|D-2 2F.7 ....|D-5 2C.F ....|A-4 3FF7 ....
....|..|--- .... ....|R-- .... ....|--- .... ....
....|..|D-2 2F.A ....|--- .... ....|A-4 3FFA ....
....|..|--- .... ....|--- .... ....|--- .... ....
 D-4|..|D-3 2C.F ....|D-5 2C.F ....|C-5 3FFF ....
....|..|--- .... ....|R-- .... ....|--- .... ....
....|..|R-- .... ....|D-5 2F.7 ....|R-- .... ....
....|..|--- .... ....|R-- .... ....|--- .... ....
....|..|D#3 3F8F ....|D#3 UF8F ....|A-4 3FF7 ....
....|..|--- .... ....|--- .... ....|--- .... ....
 D#4|..|D-2 2F.A ....|D#4 2C.F ....|A#4 3FF7 ....
....|..|--- .... ....|R-- .... ....|--- .... ....
 D#4|..|D#2 2A.F ....|D-5 2F.7 ....|A#4 3FFF ....
....|..|--- .... ....|R-- .... ....|--- .... ....
....|..|D#3 3F8A ....|D#3 UF8A ....|R-- .... ....
....|..|--- .... ....|--- .... ....|--- .... ....
 D#4|..|D-2 2F.7 ....|D#4 2C.F ....|C-5 3FF7 ....
....|..|--- .... ....|R-- .... ....|--- .... ....
....|..|D#2 2F.A ....|--- .... ....|A#4 3FFA ....
....|..|--- .... ....|--- .... ....|--- .... ....
 D#4|..|D#3 2C.F ....|D#4 2C.F ....|A#4 3FFF ....
....|..|--- .... ....|R-- .... ....|R-- .... ....
....|..|R-- .... ....|D#4 2F.7 ....|--- .... ....
....|..|--- .... ....|R-- .... ....|--- .... ....
....|..|D#2 2F.7 ....|--- .... ....|A#4 3FFF ....
....|..|--- .... ....|--- .... ....|--- .... ....
 D#4|..|D#2 2F.A ....|D#4 2C.F ....|A#4 3FFA ....
....|..|--- .... ....|R-- .... ....|R-- .... ....
 D#4|..|D#2 2A.F ....|D#4 2F.7 ....|--- .... ....
....|..|--- .... ....|R-- .... ....|--- .... ....
....|..|R-- .... ....|--- .... ....|A#4 3FFA ....
....|..|--- .... ....|--- .... ....|--- .... ....
 D#4|..|D#2 2F.7 ....|D#4 2C.F ....|C-5 3FFF ....
....|..|--- .... ....|R-- .... ....|R-- .... ....
....|..|D#2 2F.A ....|--- .... ....|--- .... ....
....|..|--- .... ....|--- .... ....|--- .... ....
 D#4|..|D#3 2C.F ....|D#4 2C.F ....|A#4 3FF7 ....
....|..|--- .... ....|R-- .... ....|--- .... ....
....|..|R-- .... ....|D#4 2F.7 ....|C-5 3FFA ....
....|..|--- .... ....|R-- .... ....|R-- .... ....
 A#3|..|A#4 2C.F ....|A#3 UF1F ....|A#5 2F.F ....
....|..|A#3 3F1F ....|--- .... ....|R-- .... ....
 A#3|..|D#2 2F.A ....|A#3 2C.F ....|--- .... ....
....|..|--- .... ....|R-- .... ....|--- .... ....
 A#3|..|A#2 2C.F ....|D#4 2F.7 ....|A#4 2C.F ....
....|..|R-- .... ....|R-- .... ....|R-- .... ....
....|..|A#4 2F.A ....|A#3 UF1A ....|A#5 2F.A ....
....|..|A#3 3F1A ....|--- .... ....|R-- .... ....
 A#3|..|A#4 2C.F ....|A#4 2C.F ....|A#4 2C.F ....
....|..|--- .... ....|R-- .... ....|--- .... ....
....|..|A#1 2F.A ....|--- .... ....|A#4 2F.A ....
....|..|R-- .... ....|--- .... ....|R-- .... ....
 A#3|..|A#2 2C.F ....|A#3 2C.F ....|A#5 2F.7 ....
....|..|A#3 3F17 ....|R-- .... ....|R-- .... ....
 A#3|..|A#4 2C.F ....|A#3 2F.7 ....|A#4 2C.F ....
....|..|R-- .... ....|R-- .... ....|R-- .... ....
....|..|A#1 2F.7 ....|--- .... ....|A#4 2F.7 ....
....|..|R-- .... ....|--- .... ....|R-- .... ....
 A#3|..|A#1 2F.A ....|A#3 2C.F ....|R-- .... ....
....|..|--- .... ....|R-- .... ....|--- .... ....
 A#3|..|A#2 2C.F ....|A#3 2F.7 ....|A#4 2C.F ....
....|..|R-- .... ....|R-- .... ....|R-- .... ....
....|..|R-- .... ....|--- .... ....|--- .... ....
....|..|--- .... ....|--- .... ....|--- .... ....
 A#3|..|A#4 2C.F ....|A#4 2C.F ....|A#4 2C.F ....
....|..|--- .... ....|R-- .... ....|--- .... ....
....|..|A#4 2F.7 ....|--- .... ....|A#4 2F.7 ....
....|..|R-- .... ....|--- .... ....|R-- .... ....
 A#3|..|A#2 2C.F ....|A#3 2C.F ....|--- .... ....
....|..|--- .... ....|R-- .... ....|--- .... ....
 A-3|..|A-4 2C.F ....|A#3 2F.7 ....|A-4 2C.F ....
....|..|--- .... ....|R-- .... ....|--- .... ....

[Pattern17]
....|..|G-3 3F2F ....|G-3 UF2F ....|A-5 2F.F ....
....|..|R-- .... ....|--- .... ....|R-- .... ....
 G-4|..|A#1 2F.A ....|G-3 2C.F ....|--- .... ....
....|..|--- .... ....|R-- .... ....|--- .... ....
 A-3|..|G-1 2F.F ....|A#3 2F.7 ....|A-4 2C.F ....
....|..|R-- .... ....|R-- .... ....|R-- .... ....
....|..|G-3 3F2A ....|G-3 UF2A ....|A-5 2F.A ....
....|..|--- .... ....|--- .... ....|--- .... ....
 A-3|..|A-4 2C.F ....|G-3 2F.F ....|A-4 2C.F ....
....|..|--- .... ....|R-- .... ....|--- .... ....
....|..|A-4 2F.7 ....|--- .... ....|A-4 2F.7 ....
....|..|R-- .... ....|--- .... ....|R-- .... ....
 G-4|..|G-2 2A.F ....|G-3 2C.F ....|A-5 2F.7 ....
....|..|--- .... ....|R-- .... ....|--- .... ....
 A-3|..|A-4 2C.F ....|G-3 2F.7 ....|A-4 2C.F ....
....|..|R-- .... ....|R-- .... ....|R-- .... ....
....|..|G-1 2F.7 ....|--- .... ....|A-4 2F.7 ....
....|..|R-- .... ....|--- .... ....|R-- .... ....
 G-4|..|G-1 2F.A ....|G-3 2C.F ....|R-- .... ....
....|..|--- .... ....|R-- .... ....|--- .... ....
 A-3|..|G-1 2F.F ....|G-3 2F.7 ....|A-4 2C.F ....
....|..|R-- .... ....|R-- .... ....|R-- .... ....
....|..|R-- .... ....|--- .... ....|--- .... ....
....|..|--- .... ....|--- .... ....|--- .... ....
 A-3|..|A-4 2C.F ....|G-3 2F.F ....|A-4 2C.F ....
....|..|--- .... ....|R-- .... ....|--- .... ....
....|..|A-4 2F.7 ....|--- .... ....|A-4 2F.7 ....
....|..|R-- .... ....|--- .... ....|R-- .... ....
 G-4|..|G-2 2A.F ....|G-3 2C.F ....|--- .... ....
....|..|--- .... ....|R-- .... ....|--- .... ....
 G-4|..|G-4 2C.F ....|G-3 2F.7 ....|G-4 2C.F ....
....|..|--- .... ....|R-- .... ....|--- .... ....
....|..|A-3 3F3F ....|A-3 UF3F ....|G-5 2F.F ....
....|..|R-- .... ....|--- .... ....|R-- .... ....
 D-4|..|G-1 2F.A ....|D-4 2C.F ....|--- .... ....
....|..|--- .... ....|R-- .... ....|--- .... ....
 G-4|..|D-2 2F.F ....|G-3 2F.7 ....|G-4 2C.F ....
....|..|R-- .... ....|R-- .... ....|R-- .... ....
....|..|A-3 3F3A ....|A-3 UF3A ....|G-5 2F.A ....
....|..|--- .... ....|--- .... ....|--- .... ....
 G-4|..|G-4 2C.F ....|D-4 2F.F ....|G-4 2C.F ....
....|..|--- .... ....|R-- .... ....|--- .... ....
....|..|G-4 2F.7 ....|--- .... ....|G-4 2F.7 ....
....|..|R-- .... ....|--- .... ....|R-- .... ....
 D-4|..|D-3 2C.F ....|D-4 2C.F ....|G-5 2F.7 ....
....|..|R-- .... ....|R-- .... ....|R-- .... ....
 G-4|..|G-4 2C.F ....|D-4 2F.7 ....|G-4 2C.F ....
....|..|--- .... ....|R-- .... ....|--- .... ....
....|..|D-2 2F.7 ....|--- .... ....|G-4 2F.7 ....
....|..|R-- .... ....|--- .... ....|R-- .... ....
 D-4|..|D-2 2F.A ....|D-4 2C.F ....|--- .... ....
....|..|R-- .... ....|R-- .... ....|R-- .... ....
 G-4|..|D-2 2F.F ....|D-4 2F.7 ....|G-4 2C.F ....
....|..|R-- .... ....|R-- .... ....|R-- .... ....
....|..|R-- .... ....|--- .... ....|R-- .... ....
....|..|--- .... ....|--- .... ....|--- .... ....
 G-4|..|G-4 2C.F ....|D-4 2F.F ....|D-5 2F.F ....
....|..|R-- .... ....|R-- .... ....|R-- .... ....
....|..|G-4 2F.7 ....|--- .... ....|G-4 2F.7 ....
....|..|R-- .... ....|--- .... ....|R-- .... ....
 D-4|..|D-3 2C.F ....|D-4 2C.F ....|D-4 2C.F ....
....|..|--- .... ....|R-- .... ....|--- .... ....
 D#4|..|D#4 2C.F ....|D-4 2F.7 ....|D#4 2C.F ....
....|..|R-- .... ....|R-- .... ....|R-- .... ....
....|..|G-3 3F4F ....|G-3 UF4F ....|G-4 2F.7 ....
....|..|R-- .... ....|--- .... ....|R-- .... ....
 D#4|..|D-2 2F.A ....|D#3 2C.F ....|D-4 2F.A ....
....|..|--- .... ....|R-- .... ....|--- .... ....
 D#4|..|D#3 2C.F ....|D-4 2F.7 ....|D#4 2C.F ....
....|..|R-- .... ....|R-- .... ....|R-- .... ....
....|..|G-3 3F4A ....|G-3 UF4A ....|R-- .... ....
....|..|--- .... ....|--- .... ....|--- .... ....
 D#4|..|D#4 2C.F ....|D#4 2C.F ....|D#4 2C.F ....
....|..|--- .... ....|R-- .... ....|--- .... ....
....|..|D#4 2F.7 ....|--- .... ....|D#4 2F.7 ....
....|..|R-- .... ....|--- .... ....|R-- .... ....
 D#4|..|D#3 2C.F ....|D#3 2C.F ....|R-- .... ....
....|..|R-- .... ....|R-- .... ....|R-- .... ....
 D#4|..|D#4 2C.F ....|D#3 2F.7 ....|D#4 2C.F ....
....|..|R-- .... ....|R-- .... ....|R-- .... ....
....|..|D#2 2F.7 ....|--- .... ....|D#4 2F.7 ....
....|..|R-- .... ....|--- .... ....|R-- .... ....
 D#4|..|D#2 2F.A ....|D#3 2C.F ....|--- .... ....
....|..|R-- .... ....|R-- .... ....|R-- .... ....
 D#4|..|D#3 2C.F ....|D#3 2F.7 ....|D#4 2C.F ....
....|..|R-- .... ....|R-- .... ....|R-- .... ....
....|..|R-- .... ....|--- .... ....|--- .... ....
....|..|--- .... ....|--- .... ....|--- .... ....
 D#4|..|D#4 2C.F ....|D#4 2C.F ....|D#4 2C.F ....
....|..|R-- .... ....|R-- .... ....|R-- .... ....
....|..|D#4 2F.7 ....|--- .... ....|D#4 2F.7 ....
....|..|R-- .... ....|--- .... ....|R-- .... ....
 D#4|..|D#3 2C.F ....|D#3 2C.F ....|R-- .... ....
....|..|--- .... ....|R-- .... ....|--- .... ....
....|..|D#4 2F.A ....|D#3 2F.7 ....|D#4 2F.A ....
....|..|--- .... ....|R-- .... ....|--- .... ....
 A#3|..|A#4 2C.F ....|A#3 UF1F ....|A#5 2F.F ....
....|..|A#3 3F1F ....|--- .... ....|R-- .... ....
 A#3|..|D#2 2F.A ....|A#3 2C.F ....|R-- .... ....
....|..|--- .... ....|R-- .... ....|--- .... ....
 A#3|..|A#2 2C.F ....|D#3 2F.7 ....|A#4 2C.F ....
....|..|R-- .... ....|R-- .... ....|R-- .... ....
....|..|A#4 2F.A ....|A#3 UF1A ....|A#5 2F.A ....
....|..|A#3 3F1A ....|--- .... ....|R-- .... ....
 A#3|..|A#4 2C.F ....|A#4 2C.F ....|A#4 2C.F ....
....|..|--- .... ....|R-- .... ....|--- .... ....
....|..|A#1 2F.A ....|--- .... ....|A#4 2F.A ....
....|..|R-- .... ....|--- .... ....|R-- .... ....
 A#3|..|A#2 2C.F ....|A#3 2C.F ....|A#5 2F.7 ....
....|..|A#3 3F17 ....|R-- .... ....|R-- .... ....
 A#3|..|A#4 2C.F ....|A#3 2F.7 ....|A#4 2C.F ....
....|..|R-- .... ....|R-- .... ....|R-- .... ....
....|..|A#1 2F.7 ....|--- .... ....|A#4 2F.7 ....
....|..|R-- .... ....|--- .... ....|R-- .... ....
 A#3|..|A#1 2F.A ....|A#3 2C.F ....|R-- .... ....
....|..|--- .... ....|R-- .... ....|--- .... ....
 A#3|..|A#2 2C.F ....|A#3 2F.7 ....|A#4 2C.F ....
....|..|R-- .... ....|R-- .... ....|R-- .... ....
....|..|R-- .... ....|--- .... ....|--- .... ....
....|..|--- .... ....|--- .... ....|--- .... ....
 A#3|..|A#4 2C.F ....|A#4 2C.F ....|A#4 2C.F ....
....|..|--- .... ....|R-- .... ....|--- .... ....
....|..|A#4 2F.7 ....|--- .... ....|A#4 2F.7 ....
....|..|R-- .... ....|--- .... ....|R-- .... ....
 A#3|..|A#2 2C.F ....|A#3 2C.F ....|--- .... ....
....|..|--- .... ....|R-- .... ....|--- .... ....
 A-3|..|A-4 2C.F ....|A#3 2F.7 ....|A-4 2C.F ....
....|..|--- .... ....|R-- .... ....|--- .... ....

[Pattern18]
....|..|G-3 3F2F ....|G-3 UF2F ....|A-5 2F.F ....
....|..|R-- .... ....|--- .... ....|R-- .... ....
 G-4|..|A#1 2F.A ....|G-3 2C.F ....|--- .... ....
....|..|--- .... ....|R-- .... ....|--- .... ....
 A-3|..|G-1 2F.F ....|A#3 2F.7 ....|A-4 2C.F ....
....|..|R-- .... ....|R-- .... ....|R-- .... ....
....|..|G-3 3F2A ....|G-3 UF2A ....|A-5 2F.A ....
....|..|--- .... ....|--- .... ....|--- .... ....
 A-3|..|A-4 2C.F ....|G-3 2F.F ....|A-4 2C.F ....
....|..|--- .... ....|R-- .... ....|--- .... ....
....|..|A-4 2F.7 ....|--- .... ....|A-4 2F.7 ....
....|..|R-- .... ....|--- .... ....|R-- .... ....
 G-4|..|G-2 2A.F ....|G-3 2C.F ....|A-5 2F.7 ....
....|..|--- .... ....|R-- .... ....|--- .... ....
 A-3|..|A-4 2C.F ....|G-3 2F.7 ....|A-4 2C.F ....
....|..|R-- .... ....|R-- .... ....|R-- .... ....
....|..|G-1 2F.7 ....|--- .... ....|A-4 2F.7 ....
....|..|R-- .... ....|--- .... ....|R-- .... ....
 G-4|..|G-1 2F.A ....|G-3 2C.F ....|R-- .... ....
....|..|--- .... ....|R-- .... ....|--- .... ....
 A-3|..|G-1 2F.F ....|G-3 2F.7 ....|A-4 2C.F ....
....|..|R-- .... ....|R-- .... ....|R-- .... ....
....|..|R-- .... ....|--- .... ....|--- .... ....
....|..|--- .... ....|--- .... ....|--- .... ....
 A-3|..|A-4 2C.F ....|G-3 2F.F ....|A-4 2C.F ....
....|..|--- .... ....|R-- .... ....|--- .... ....
....|..|A-4 2F.7 ....|--- .... ....|A-4 2F.7 ....
....|..|R-- .... ....|--- .... ....|R-- .... ....
 G-4|..|G-2 2A.F ....|G-3 2C.F ....|--- .... ....
....|..|--- .... ....|R-- .... ....|--- .... ....
 G-4|..|G-4 2C.F ....|G-3 2F.7 ....|G-4 2C.F ....
....|..|--- .... ....|R-- .... ....|--- .... ....
....|..|A-3 3F3F ....|A-3 UF3F ....|G-5 2F.F ....
....|..|R-- .... ....|--- .... ....|R-- .... ....
 D-4|..|G-1 2F.A ....|D-4 2C.F ....|--- .... ....
....|..|--- .... ....|R-- .... ....|--- .... ....
 G-4|..|D-2 2F.F ....|G-3 2F.7 ....|G-4 2C.F ....
....|..|R-- .... ....|R-- .... ....|R-- .... ....
....|..|A-3 3F3A ....|A-3 UF3A ....|G-5 2F.A ....
....|..|--- .... ....|--- .... ....|--- .... ....
 G-4|..|G-4 2C.F ....|D-4 2F.F ....|G-4 2C.F ....
....|..|--- .... ....|R-- .... ....|--- .... ....
....|..|G-4 2F.7 ....|--- .... ....|G-4 2F.7 ....
....|..|R-- .... ....|--- .... ....|R-- .... ....
 D-4|..|D-3 2C.F ....|D-4 2C.F ....|G-5 2F.7 ....
....|..|R-- .... ....|R-- .... ....|R-- .... ....
 G-4|..|G-4 2C.F ....|D-4 2F.7 ....|G-4 2C.F ....
....|..|--- .... ....|R-- .... ....|--- .... ....
....|..|D-2 2F.7 ....|--- .... ....|G-4 2F.7 ....
....|..|R-- .... ....|--- .... ....|R-- .... ....
 D-4|..|D-2 2F.A ....|D-4 2C.F ....|--- .... ....
....|..|R-- .... ....|R-- .... ....|R-- .... ....
 G-4|..|D-2 2F.F ....|D-4 2F.7 ....|G-4 2C.F ....
....|..|R-- .... ....|R-- .... ....|R-- .... ....
....|..|R-- .... ....|--- .... ....|R-- .... ....
....|..|--- .... ....|--- .... ....|--- .... ....
 G-4|..|G-4 2C.F ....|D-4 2F.F ....|D-5 2F.F ....
....|..|R-- .... ....|R-- .... ....|R-- .... ....
....|..|G-4 2F.7 ....|--- .... ....|G-4 2F.7 ....
....|..|R-- .... ....|--- .... ....|R-- .... ....
 D-4|..|D-3 2C.F ....|D-4 2C.F ....|D-4 2C.F ....
....|..|--- .... ....|R-- .... ....|--- .... ....
 D#4|..|D#4 2C.F ....|D-4 2F.7 ....|D#4 2C.F ....
....|..|R-- .... ....|R-- .... ....|R-- .... ....
....|..|G-3 3F4F ....|G-3 UF4F ....|G-4 2F.7 ....
....|..|R-- .... ....|--- .... ....|R-- .... ....
 D#4|..|D-2 2F.A ....|D#4 2C.F ....|D-4 2F.A ....
....|..|--- .... ....|R-- .... ....|--- .... ....
 D#4|..|D#2 2A.F ....|D-4 2F.7 ....|D-5 2F.7 ....
....|..|R-- .... ....|R-- .... ....|R-- .... ....
....|..|G-3 3F4A ....|G-3 UF4A ....|R-- .... ....
....|..|--- .... ....|--- .... ....|--- .... ....
 D#4|..|D-2 2F.7 ....|D#4 2C.F ....|D-4 2F.7 ....
....|..|--- .... ....|R-- .... ....|--- .... ....
....|..|D#4 2F.7 ....|--- .... ....|D#4 2F.7 ....
....|..|R-- .... ....|--- .... ....|R-- .... ....
 D#4|..|D#3 2C.F ....|D#4 2C.F ....|R-- .... ....
....|..|--- .... ....|R-- .... ....|--- .... ....
....|..|R-- .... ....|D#4 2F.7 ....|--- .... ....
....|..|--- .... ....|R-- .... ....|--- .... ....
....|..|D#2 2F.7 ....|--- .... ....|--- .... ....
....|..|--- .... ....|--- .... ....|--- .... ....
 D#4|..|D#2 2F.A ....|D#4 2C.F ....|--- .... ....
....|..|--- .... ....|R-- .... ....|--- .... ....
 D#4|..|D#2 2A.F ....|D#4 2F.7 ....|--- .... ....
....|..|--- .... ....|R-- .... ....|--- .... ....
....|..|R-- .... ....|--- .... ....|--- .... ....
....|..|--- .... ....|--- .... ....|--- .... ....
 D#4|..|D#2 2F.7 ....|D#4 2C.F ....|--- .... ....
....|..|--- .... ....|R-- .... ....|--- .... ....
....|..|D#2 2F.A ....|--- .... ....|--- .... ....
....|..|--- .... ....|--- .... ....|--- .... ....
 D#4|..|D#3 2C.F ....|D#4 2C.F ....|--- .... ....
....|..|--- .... ....|R-- .... ....|--- .... ....
....|..|R-- .... ....|D#4 2F.7 ....|--- .... ....
....|..|--- .... ....|R-- .... ....|--- .... ....
 A#3|..|A#4 2C.F ....|A#3 UF1F ....|A#4 3FFF ....
....|..|A#3 3F1F ....|--- .... ....|R-- .... ....
 A#3|..|D#2 2F.A ....|A#3 2C.F ....|--- .... ....
....|..|--- .... ....|R-- .... ....|--- .... ....
 A#3|..|A#1 2A.F ....|D#4 2F.7 ....|A#4 3FFF ....
....|..|R-- .... ....|R-- .... ....|R-- .... ....
....|..|A#4 2F.A ....|A#3 UF1A ....|A#4 3FFA ....
....|..|A#3 3F1A ....|--- .... ....|R-- .... ....
 A#3|..|A#4 2C.F ....|A#4 2C.F ....|A#4 3FFF ....
....|..|--- .... ....|R-- .... ....|--- .... ....
....|..|A#1 2F.A ....|--- .... ....|A#4 3FFA ....
....|..|R-- .... ....|--- .... ....|R-- .... ....
 A#3|..|A#2 2C.F ....|A#3 2C.F ....|A#4 3FF7 ....
....|..|A#3 3F17 ....|R-- .... ....|R-- .... ....
 A#3|..|A#4 2C.F ....|A#3 2F.7 ....|A#4 3FFF ....
....|..|R-- .... ....|R-- .... ....|R-- .... ....
....|..|A#1 2F.7 ....|--- .... ....|A#4 3FF7 ....
....|..|R-- .... ....|--- .... ....|R-- .... ....
 A#3|..|A#1 2F.A ....|A#3 2C.F ....|R-- .... ....
....|..|--- .... ....|R-- .... ....|--- .... ....
 A#3|..|A#1 2A.F ....|A#3 2F.7 ....|A#4 3FFF ....
....|..|R-- .... ....|R-- .... ....|R-- .... ....
....|..|R-- .... ....|--- .... ....|R-- .... ....
....|..|--- .... ....|--- .... ....|--- .... ....
 A#3|..|A#4 2C.F ....|A#4 2C.F ....|A#4 3FFF ....
....|..|--- .... ....|R-- .... ....|--- .... ....
....|..|A#4 2F.7 ....|--- .... ....|A#4 3FF7 ....
....|..|R-- .... ....|--- .... ....|R-- .... ....
 A#3|..|A#2 2C.F ....|A#3 2C.F ....|R-- .... ....
....|..|--- .... ....|R-- .... ....|--- .... ....
 A-3|..|A-4 2C.F ....|A#3 2F.7 ....|A-4 3FFF ....
....|..|--- .... ....|R-- .... ....|R-- .... ....

[Pattern19]
....|..|G-3 3F2F ....|G-3 UF2F ....|A-5 2F.F ....
....|..|R-- .... ....|--- .... ....|R-- .... ....
 G-4|..|A#1 2F.A ....|G-3 2C.F ....|--- .... ....
....|..|--- .... ....|R-- .... ....|--- .... ....
 G-3|..|G-1 2A.F ....|A#3 2F.7 ....|A-4 3FFF ....
....|..|R-- .... ....|R-- .... ....|R-- .... ....
....|..|G-3 3F2A ....|G-3 UF2A ....|A-5 2F.A ....
....|..|--- .... ....|--- .... ....|--- .... ....
 A-3|..|A-4 2C.F ....|G-3 2F.F ....|A-4 3FFF ....
....|..|--- .... ....|R-- .... ....|--- .... ....
....|..|A-4 2F.7 ....|--- .... ....|A-4 3FF7 ....
....|..|R-- .... ....|--- .... ....|R-- .... ....
 G-4|..|G-2 2A.F ....|G-3 2C.F ....|A-5 2F.7 ....
....|..|--- .... ....|R-- .... ....|R-- .... ....
 A-3|..|A-4 2C.F ....|G-3 2F.7 ....|A-4 3FFF ....
....|..|R-- .... ....|R-- .... ....|R-- .... ....
....|..|G-1 2F.7 ....|--- .... ....|A-4 3FF7 ....
....|..|R-- .... ....|--- .... ....|R-- .... ....
 G-4|..|G-1 2F.A ....|G-3 2C.F ....|R-- .... ....
....|..|--- .... ....|R-- .... ....|R-- .... ....
 G-3|..|G-1 2A.F ....|G-3 2F.7 ....|A-4 3FFF ....
....|..|R-- .... ....|R-- .... ....|R-- .... ....
....|..|R-- .... ....|--- .... ....|R-- .... ....
....|..|--- .... ....|--- .... ....|--- .... ....
 A-3|..|A-4 2C.F ....|G-3 2F.F ....|A-4 3FFF ....
....|..|--- .... ....|R-- .... ....|R-- .... ....
....|..|A-4 2F.7 ....|--- .... ....|A-4 3FF7 ....
....|..|R-- .... ....|--- .... ....|R-- .... ....
 G-4|..|G-2 2A.F ....|G-3 2C.F ....|R-- .... ....
....|..|--- .... ....|R-- .... ....|R-- .... ....
 G-4|..|G-4 2C.F ....|G-3 2F.7 ....|G-4 3FFF ....
....|..|--- .... ....|R-- .... ....|R-- .... ....
....|..|A-3 3F3F ....|A-3 UF3F ....|G-5 2F.F ....
....|..|R-- .... ....|--- .... ....|R-- .... ....
 D-4|..|G-1 2F.A ....|D-4 2C.F ....|--- .... ....
....|..|--- .... ....|R-- .... ....|R-- .... ....
 D-4|..|D-2 2A.F ....|G-3 2F.7 ....|G-4 3FFF ....
....|..|R-- .... ....|R-- .... ....|R-- .... ....
....|..|A-3 3F3A ....|A-3 UF3A ....|G-5 2F.A ....
....|..|--- .... ....|--- .... ....|--- .... ....
 G-4|..|G-4 2C.F ....|D-4 2F.F ....|G-4 3FFF ....
....|..|--- .... ....|R-- .... ....|R-- .... ....
....|..|G-4 2F.7 ....|--- .... ....|G-4 3FF7 ....
....|..|R-- .... ....|--- .... ....|R-- .... ....
 D-4|..|D-3 2C.F ....|D-4 2C.F ....|G-5 2F.7 ....
....|..|R-- .... ....|R-- .... ....|R-- .... ....
 G-4|..|G-4 2C.F ....|D-4 2F.7 ....|G-4 3FFF ....
....|..|--- .... ....|R-- .... ....|--- .... ....
....|..|D-2 2F.7 ....|--- .... ....|G-4 3FF7 ....
....|..|R-- .... ....|--- .... ....|R-- .... ....
 D-4|..|D-2 2F.A ....|D-4 2C.F ....|R-- .... ....
....|..|R-- .... ....|R-- .... ....|R-- .... ....
 D-4|..|D-2 2A.F ....|D-4 2F.7 ....|G-4 3FFF ....
....|..|R-- .... ....|R-- .... ....|R-- .... ....
....|..|R-- .... ....|--- .... ....|R-- .... ....
....|..|--- .... ....|--- .... ....|--- .... ....
 G-4|..|G-4 2C.F ....|D-4 2F.F ....|G-4 3FFF ....
....|..|R-- .... ....|R-- .... ....|R-- .... ....
....|..|G-4 2F.7 ....|--- .... ....|G-4 3FF7 ....
....|..|R-- .... ....|--- .... ....|R-- .... ....
 D-4|..|D-3 2C.F ....|D-4 2C.F ....|D-4 3FFF ....
....|..|--- .... ....|R-- .... ....|--- .... ....
 D#4|..|D#4 2C.F ....|D-4 2F.7 ....|D#4 3FFF ....
....|..|R-- .... ....|R-- .... ....|R-- .... ....
....|..|G-3 3F4F ....|G-3 UF4F ....|G-4 3FF7 ....
....|..|R-- .... ....|--- .... ....|R-- .... ....
 D#4|..|D-2 2F.A ....|D#3 2C.F ....|D-4 3FFA ....
....|..|--- .... ....|R-- .... ....|--- .... ....
 D#4|..|D#2 2A.F ....|D-4 2F.7 ....|D#4 3FFF ....
....|..|R-- .... ....|R-- .... ....|R-- .... ....
....|..|G-3 3F4A ....|G-3 UF4A ....|R-- .... ....
....|..|--- .... ....|--- .... ....|R-- .... ....
 D#4|..|D#4 2C.F ....|D#4 2C.F ....|D#4 3FFF ....
....|..|--- .... ....|R-- .... ....|--- .... ....
....|..|D#4 2F.7 ....|--- .... ....|D#4 3FF7 ....
....|..|R-- .... ....|--- .... ....|R-- .... ....
 D#4|..|D#3 2C.F ....|D#3 2C.F ....|R-- .... ....
....|..|R-- .... ....|R-- .... ....|R-- .... ....
 D#4|..|D#4 2C.F ....|D#3 2F.7 ....|D#4 3FFF ....
....|..|R-- .... ....|R-- .... ....|R-- .... ....
....|..|D#2 2F.7 ....|--- .... ....|D#4 3FF7 ....
....|..|R-- .... ....|--- .... ....|R-- .... ....
 D#4|..|D#2 2F.A ....|D#3 2C.F ....|--- .... ....
....|..|R-- .... ....|R-- .... ....|R-- .... ....
 D#4|..|D#2 2A.F ....|D#3 2F.7 ....|D#4 3FFF ....
....|..|R-- .... ....|R-- .... ....|R-- .... ....
....|..|R-- .... ....|--- .... ....|R-- .... ....
....|..|--- .... ....|--- .... ....|--- .... ....
 D#4|..|D#4 2C.F ....|D#4 2C.F ....|D#4 3FFF ....
....|..|R-- .... ....|R-- .... ....|R-- .... ....
....|..|D#4 2F.7 ....|--- .... ....|D#4 3FF7 ....
....|..|R-- .... ....|--- .... ....|R-- .... ....
 D#4|..|D#3 2C.F ....|D#3 2C.F ....|R-- .... ....
....|..|--- .... ....|R-- .... ....|--- .... ....
....|..|D#4 2F.A ....|D#3 2F.7 ....|A#4 3FFF ....
....|..|--- .... ....|R-- .... ....|R-- .... ....
 A#3|..|A#4 2C.F ....|A#3 UF1F ....|A#5 2F.F ....
....|..|A#3 3F1F ....|--- .... ....|R-- .... ....
 A#3|..|D#2 2F.A ....|A#3 2C.F ....|R-- .... ....
....|..|--- .... ....|R-- .... ....|--- .... ....
 A#3|..|A#1 2A.F ....|D#3 2F.7 ....|A#4 3FFF ....
....|..|R-- .... ....|R-- .... ....|R-- .... ....
....|..|A#4 2F.A ....|A#3 UF1A ....|A#5 2F.A ....
....|..|A#3 3F1A ....|--- .... ....|R-- .... ....
 A#3|..|A#4 2C.F ....|A#4 2C.F ....|A#4 3FFF ....
....|..|--- .... ....|R-- .... ....|--- .... ....
....|..|A#1 2F.A ....|--- .... ....|A#4 3FF7 ....
....|..|R-- .... ....|--- .... ....|R-- .... ....
 A#3|..|A#2 2C.F ....|A#3 2C.F ....|A#5 2F.7 ....
....|..|A#3 3F17 ....|R-- .... ....|R-- .... ....
 A#3|..|A#4 2C.F ....|A#3 2F.7 ....|A#4 3FFF ....
....|..|R-- .... ....|R-- .... ....|R-- .... ....
....|..|A#1 2F.7 ....|--- .... ....|A#4 3FF7 ....
....|..|R-- .... ....|--- .... ....|R-- .... ....
 A#3|..|A#1 2F.A ....|A#3 2C.F ....|R-- .... ....
....|..|--- .... ....|R-- .... ....|--- .... ....
 A#3|..|A#1 2A.F ....|A#3 2F.7 ....|A#4 3FFF ....
....|..|R-- .... ....|R-- .... ....|R-- .... ....
....|..|R-- .... ....|--- .... ....|--- .... ....
....|..|--- .... ....|--- .... ....|--- .... ....
 A#3|..|A#4 2C.F ....|A#4 2C.F ....|A#4 3FFF ....
....|..|--- .... ....|R-- .... ....|--- .... ....
....|..|A#4 2F.7 ....|--- .... ....|A#4 3FF7 ....
....|..|R-- .... ....|--- .... ....|R-- .... ....
 A#3|..|A#2 2C.F ....|A#3 2C.F ....|--- .... ....
....|..|--- .... ....|R-- .... ....|R-- .... ....
 A-3|..|A-4 2C.F ....|A#3 2F.7 ....|A-4 3FFF ....
....|..|--- .... ....|R-- .... ....|R-- .... ....

[Pattern20]
....|..|G-3 3F2F ....|G-3 UF2F ....|A-5 2F.F ....
....|..|R-- .... ....|--- .... ....|R-- .... ....
 G-4|..|A#1 2F.A ....|G-3 2C.F ....|--- .... ....
....|..|--- .... ....|R-- .... ....|R-- .... ....
 G-3|..|G-1 2A.F ....|A#3 2F.7 ....|A-4 3FFF ....
....|..|R-- .... ....|R-- .... ....|R-- .... ....
....|..|G-3 3F2A ....|G-3 UF2A ....|A-5 2F.A ....
....|..|--- .... ....|--- .... ....|--- .... ....
 A-3|..|A-4 2C.F ....|G-3 2F.F ....|A-4 3FFF ....
....|..|--- .... ....|R-- .... ....|R-- .... ....
....|..|A-4 2F.7 ....|--- .... ....|A-4 3FF7 ....
....|..|R-- .... ....|--- .... ....|R-- .... ....
 G-4|..|G-2 2A.F ....|G-3 2C.F ....|A-5 2F.7 ....
....|..|--- .... ....|R-- .... ....|R-- .... ....
 A-3|..|A-4 2C.F ....|G-3 2F.7 ....|A-4 3FFF ....
....|..|R-- .... ....|R-- .... ....|R-- .... ....
....|..|G-1 2F.7 ....|--- .... ....|A-4 3FF7 ....
....|..|R-- .... ....|--- .... ....|R-- .... ....
 G-4|..|G-1 2F.A ....|G-3 2C.F ....|R-- .... ....
....|..|--- .... ....|R-- .... ....|R-- .... ....
 G-3|..|G-1 2A.F ....|G-3 2F.7 ....|A-4 3FFF ....
....|..|R-- .... ....|R-- .... ....|R-- .... ....
....|..|R-- .... ....|--- .... ....|--- .... ....
....|..|--- .... ....|--- .... ....|--- .... ....
 A-3|..|A-4 2C.F ....|G-3 2F.F ....|A-4 3FFF ....
....|..|--- .... ....|R-- .... ....|R-- .... ....
....|..|A-4 2F.7 ....|--- .... ....|A-4 3FF7 ....
....|..|R-- .... ....|--- .... ....|R-- .... ....
 G-4|..|G-2 2A.F ....|G-3 2C.F ....|--- .... ....
....|..|--- .... ....|R-- .... ....|R-- .... ....
 G-4|..|G-4 2C.F ....|G-3 2F.7 ....|G-4 3FFF ....
....|..|--- .... ....|R-- .... ....|R-- .... ....
....|..|A-3 3F3F ....|A-3 UF3F ....|G-5 2F.F ....
....|..|R-- .... ....|--- .... ....|R-- .... ....
 D-4|..|G-1 2F.A ....|D-4 2C.F ....|--- .... ....
....|..|--- .... ....|R-- .... ....|R-- .... ....
 D-4|..|D-2 2A.F ....|G-3 2F.7 ....|G-4 3FFF ....
....|..|R-- .... ....|R-- .... ....|R-- .... ....
....|..|A-3 3F3A ....|A-3 UF3A ....|G-5 2F.A ....
....|..|--- .... ....|--- .... ....|--- .... ....
 G-4|..|G-4 2C.F ....|D-4 2F.F ....|G-4 3FFF ....
....|..|--- .... ....|R-- .... ....|R-- .... ....
....|..|G-4 2F.7 ....|--- .... ....|G-4 3FF7 ....
....|..|R-- .... ....|--- .... ....|R-- .... ....
 D-4|..|D-3 2C.F ....|D-4 2C.F ....|G-5 2F.7 ....
....|..|R-- .... ....|R-- .... ....|R-- .... ....
 G-4|..|G-4 2C.F ....|D-4 2F.7 ....|G-4 3FFF ....
....|..|--- .... ....|R-- .... ....|R-- .... ....
....|..|D-2 2F.7 ....|--- .... ....|G-4 3FF7 ....
....|..|R-- .... ....|--- .... ....|R-- .... ....
 D-4|..|D-2 2F.A ....|D-4 2C.F ....|R-- .... ....
....|..|R-- .... ....|R-- .... ....|R-- .... ....
 D-4|..|D-2 2A.F ....|D-4 2F.7 ....|G-4 3FFF ....
....|..|R-- .... ....|R-- .... ....|R-- .... ....
....|..|R-- .... ....|--- .... ....|R-- .... ....
....|..|--- .... ....|--- .... ....|--- .... ....
 G-4|..|G-4 2C.F ....|D-4 2F.F ....|G-4 3FFF ....
....|..|R-- .... ....|R-- .... ....|R-- .... ....
....|..|G-4 2F.7 ....|--- .... ....|G-4 3FF7 ....
....|..|R-- .... ....|--- .... ....|R-- .... ....
 D-4|..|D-3 2C.F ....|D-4 2C.F ....|D-4 3FFF ....
....|..|--- .... ....|R-- .... ....|--- .... ....
 D#4|..|D#4 2C.F ....|D-4 2F.7 ....|D#4 3FFF ....
....|..|R-- .... ....|R-- .... ....|R-- .... ....
....|..|G-3 3F4F ....|G-3 UF4F ....|G-4 3FF7 ....
....|..|R-- .... ....|--- .... ....|R-- .... ....
 D#4|..|D-2 2F.A ....|D#4 2C.F ....|D-4 3FFA ....
....|..|--- .... ....|R-- .... ....|--- .... ....
 D#4|..|D#2 2A.F ....|D-4 2F.7 ....|D#4 3FFF ....
....|..|R-- .... ....|R-- .... ....|R-- .... ....
....|..|G-3 3F4A ....|G-3 UF4A ....|R-- .... ....
....|..|--- .... ....|--- .... ....|R-- .... ....
 D#4|..|D-2 2F.7 ....|D#4 2C.F ....|D#4 3FFF ....
....|..|--- .... ....|R-- .... ....|--- .... ....
....|..|D#4 2F.7 ....|--- .... ....|D#4 3FF7 ....
....|..|R-- .... ....|--- .... ....|R-- .... ....
 D#4|..|D#3 2C.F ....|D#4 2C.F ....|R-- .... ....
....|..|--- .... ....|R-- .... ....|--- .... ....
....|..|R-- .... ....|D#4 2F.7 ....|D#4 3FFF ....
....|..|--- .... ....|R-- .... ....|R-- .... ....
....|..|D#2 2F.7 ....|--- .... ....|D#4 3FF7 ....
....|..|--- .... ....|--- .... ....|R-- .... ....
 D#4|..|D#2 2F.A ....|D#4 2C.F ....|R-- .... ....
....|..|--- .... ....|R-- .... ....|--- .... ....
 D#4|..|D#2 2A.F ....|D#4 2F.7 ....|D#4 3FFF ....
....|..|--- .... ....|R-- .... ....|R-- .... ....
....|..|R-- .... ....|--- .... ....|--- .... ....
....|..|--- .... ....|--- .... ....|--- .... ....
 D#4|..|D#2 2F.7 ....|D#4 2C.F ....|D#4 3FFF ....
....|..|--- .... ....|R-- .... ....|--- .... ....
....|..|D#2 2F.A ....|--- .... ....|D#4 3FF7 ....
....|..|--- .... ....|--- .... ....|R-- .... ....
 D#4|..|D#3 2C.F ....|D#4 2C.F ....|R-- .... ....
....|..|--- .... ....|R-- .... ....|--- .... ....
....|..|R-- .... ....|D#4 2F.7 ....|D#4 3FFA ....
....|..|--- .... ....|R-- .... ....|--- .... ....
....|..|D#2 2F.7 ....|R-- .... ....|D#4 3FF7 ....
....|..|--- .... ....|--- .... ....|R-- .... ....
....|..|D#2 2F.A ....|D#4 2F.A ....|R-- .... ....
....|..|--- .... ....|R-- .... ....|--- .... ....
 A#3|..|A#2 2C.F ....|A#3 2C.F ....|D#4 3FF7 ....
....|..|--- .... ....|R-- .... ....|--- .... ....
....|..|R-- .... ....|R-- .... ....|--- .... ....
....|..|--- .... ....|--- .... ....|--- .... ....
....|..|D#2 2F.7 ....|D#4 2F.7 ....|F-5 3FFF ....
....|..|--- .... ....|R-- .... ....|R-- .... ....
....|..|A#1 2F.A ....|A#3 2F.A ....|--- .... ....
....|..|--- .... ....|--- .... ....|--- .... ....
 A#3|..|A#2 2C.F ....|A#3 2C.F ....|--- .... ....
....|..|--- .... ....|--- .... ....|--- .... ....
....|..|R-- .... ....|R-- .... ....|F-5 3FFA ....
....|..|--- .... ....|--- .... ....|R-- .... ....
....|..|A#1 2F.7 ....|A#3 2F.7 ....|--- .... ....
....|..|--- .... ....|--- .... ....|--- .... ....
....|..|A#1 2F.A ....|A#3 2F.A ....|--- .... ....
....|..|--- .... ....|--- .... ....|--- .... ....
 A#3|..|A#2 2C.F ....|A#3 2C.F ....|F-5 3FF7 ....
....|..|--- .... ....|--- .... ....|R-- .... ....
....|..|R-- .... ....|R-- .... ....|--- .... ....
....|..|--- .... ....|--- .... ....|--- .... ....
....|..|A#1 2F.7 ....|A#3 2F.7 ....|--- .... ....
....|..|--- .... ....|--- .... ....|--- .... ....
....|..|A#1 2F.A ....|A#3 2F.A ....|--- .... ....
....|..|--- .... ....|--- .... ....|--- .... ....
 A#3|..|A#2 2C.F ....|A#3 2C.F ....|--- .... ....
....|..|--- .... ....|--- .... ....|--- .... ....
....|..|R-- .... ....|R-- .... ....|--- .... ....
....|..|--- .... ....|--- .... ....|--- .... ....

[Pattern21]
....|..|A#1 2F.7 ....|A#3 2F.7 ....|--- .... ....
....|..|--- .... ....|--- .... ....|--- .... ....
....|..|A#1 2F.A ....|A#3 2F.A ....|--- .... ....
....|..|--- .... ....|--- .... ....|--- .... ....
 A#3|..|A#2 2C.F ....|A#3 2C.F ....|--- .... ....
....|..|--- .... ....|--- .... ....|--- .... ....
....|..|R-- .... ....|R-- .... ....|--- .... ....
....|..|--- .... ....|--- .... ....|--- .... ....
....|..|A#1 2F.7 ....|A#3 2F.7 ....|F-5 3FFF ....
....|..|--- .... ....|--- .... ....|R-- .... ....
....|..|A#1 2F.A ....|A#3 2F.A ....|--- .... ....
....|..|--- .... ....|--- .... ....|--- .... ....
 A#3|..|A#2 2C.F ....|A#3 2C.F ....|--- .... ....
....|..|--- .... ....|--- .... ....|--- .... ....
....|..|R-- .... ....|R-- .... ....|F-5 3FFA ....
....|..|--- .... ....|--- .... ....|R-- .... ....
....|..|A#1 2F.7 ....|A#3 2F.7 ....|--- .... ....
....|..|--- .... ....|--- .... ....|--- .... ....
....|..|A#1 2F.A ....|A#3 2F.A ....|--- .... ....
....|..|--- .... ....|--- .... ....|--- .... ....
 A#3|..|A#2 2C.F ....|A#3 2C.F ....|F-5 3FF7 ....
....|..|--- .... ....|--- .... ....|R-- .... ....
....|..|R-- .... ....|R-- .... ....|--- .... ....
....|..|--- .... ....|--- .... ....|--- .... ....
....|..|A#1 2F.7 ....|A#3 2F.7 ....|--- .... ....
....|..|--- .... ....|--- .... ....|--- .... ....
....|..|A#1 2F.A ....|A#3 2F.A ....|--- .... ....
....|..|--- .... ....|--- .... ....|--- .... ....
 A#3|..|A#2 2C.F ....|A#3 2C.F ....|--- .... ....
....|..|--- .... ....|--- .... ....|--- .... ....
....|..|R-- .... ....|R-- .... ....|--- .... ....
....|..|--- .... ....|--- .... ....|--- .... ....
....|..|A#1 2F.7 ....|A#3 2F.7 ....|--- .... ....
....|..|--- .... ....|--- .... ....|--- .... ....
....|..|A#1 2F.A ....|A#3 2F.A ....|--- .... ....
....|..|--- .... ....|--- .... ....|--- .... ....
 A#3|..|A#2 2C.F ....|A#3 2C.F ....|--- .... ....
....|..|--- .... ....|--- .... ....|--- .... ....
....|..|R-- .... ....|R-- .... ....|--- .... ....
....|..|--- .... ....|--- .... ....|--- .... ....
....|..|A#1 2F.7 ....|A#3 2F.7 ....|F-5 3FFF ....
....|..|--- .... ....|--- .... ....|R-- .... ....
....|..|A#1 2F.A ....|A#3 2F.A ....|--- .... ....
....|..|--- .... ....|--- .... ....|--- .... ....
 A#3|..|A#2 2C.F ....|A#3 2C.F ....|--- .... ....
....|..|--- .... ....|--- .... ....|--- .... ....
....|..|R-- .... ....|R-- .... ....|F-5 3FFA ....
....|..|--- .... ....|--- .... ....|R-- .... ....
....|..|A#1 2F.7 ....|A#3 2F.7 ....|--- .... ....
....|..|--- .... ....|--- .... ....|--- .... ....
....|..|A#1 2F.A ....|A#3 2F.A ....|--- .... ....
....|..|--- .... ....|--- .... ....|--- .... ....
 A#3|..|A#2 2C.F ....|A#3 2C.F ....|F-5 3FF7 ....
....|..|--- .... ....|--- .... ....|R-- .... ....
....|..|R-- .... ....|R-- .... ....|--- .... ....
....|..|--- .... ....|--- .... ....|--- .... ....
....|..|A#1 2F.7 ....|A#3 2F.7 ....|--- .... ....
....|..|--- .... ....|--- .... ....|--- .... ....
....|..|A#1 2F.A ....|A#3 2F.A ....|--- .... ....
....|..|--- .... ....|--- .... ....|--- .... ....
 A#3|..|A#2 2C.F ....|A#3 2C.F ....|--- .... ....
....|..|--- .... ....|--- .... ....|--- .... ....
....|..|R-- .... ....|R-- .... ....|--- .... ....
....|..|--- .... ....|--- .... ....|--- .... ....
....|..|A#1 2F.7 ....|A#3 2F.7 ....|--- .... ....
....|..|--- .... ....|--- .... ....|--- .... ....
....|..|A#1 2F.A ....|A#3 2F.A ....|--- .... ....
....|..|--- .... ....|--- .... ....|--- .... ....
 F#4|..|F#2 2A.F ....|F#3 2C.F ....|--- .... ....
....|..|--- .... ....|--- .... ....|--- .... ....
....|..|R-- .... ....|R-- .... ....|--- .... ....
....|..|--- .... ....|--- .... ....|--- .... ....
....|..|A#1 2F.7 ....|A#3 2F.7 ....|F-5 3FFF ....
....|..|--- .... ....|--- .... ....|R-- .... ....
....|..|F#1 2F.A ....|F#3 2F.A ....|--- .... ....
....|..|--- .... ....|--- .... ....|--- .... ....
 F#4|..|F#2 2A.F ....|F#3 2C.F ....|--- .... ....
....|..|--- .... ....|--- .... ....|--- .... ....
....|..|R-- .... ....|R-- .... ....|F-5 3FFA ....
....|..|--- .... ....|--- .... ....|R-- .... ....
....|..|F#1 2F.7 ....|F#3 2F.7 ....|--- .... ....
....|..|--- .... ....|--- .... ....|--- .... ....
....|..|F#1 2F.A ....|F#3 2F.A ....|--- .... ....
....|..|--- .... ....|--- .... ....|--- .... ....
 F#4|..|F#2 2A.F ....|F#3 2C.F ....|F-5 3FF7 ....
....|..|--- .... ....|--- .... ....|R-- .... ....
....|..|R-- .... ....|R-- .... ....|--- .... ....
....|..|--- .... ....|--- .... ....|--- .... ....
....|..|F#1 2F.7 ....|F#3 2F.7 ....|--- .... ....
....|..|--- .... ....|--- .... ....|--- .... ....
....|..|F#1 2F.A ....|F#3 2F.A ....|--- .... ....
....|..|--- .... ....|--- .... ....|--- .... ....
 F#4|..|F#2 2A.F ....|F#3 2C.F ....|--- .... ....
....|..|--- .... ....|--- .... ....|--- .... ....
....|..|R-- .... ....|R-- .... ....|--- .... ....
....|..|--- .... ....|--- .... ....|--- .... ....
....|..|F#1 2F.7 ....|F#3 2F.7 ....|--- .... ....
....|..|--- .... ....|--- .... ....|--- .... ....
....|..|F#1 2F.A ....|F#3 2F.A ....|--- .... ....
....|..|--- .... ....|--- .... ....|--- .... ....
 A#3|..|A#2 2C.F ....|A#3 2C.F ....|--- .... ....
....|..|--- .... ....|--- .... ....|--- .... ....
....|..|R-- .... ....|R-- .... ....|--- .... ....
....|..|--- .... ....|--- .... ....|--- .... ....
....|..|F#1 2F.7 ....|F#3 2F.7 ....|F-5 3FFF ....
....|..|--- .... ....|--- .... ....|R-- .... ....
....|..|A#1 2F.A ....|A#3 2F.A ....|--- .... ....
....|..|--- .... ....|--- .... ....|--- .... ....
 A#3|..|A#2 2C.F ....|A#3 2C.F ....|--- .... ....
....|..|--- .... ....|--- .... ....|--- .... ....
....|..|R-- .... ....|R-- .... ....|F-5 3FFA ....
....|..|--- .... ....|--- .... ....|R-- .... ....
....|..|A#1 2F.7 ....|A#3 2F.7 ....|--- .... ....
....|..|--- .... ....|--- .... ....|--- .... ....
....|..|A#1 2F.A ....|A#3 2F.A ....|--- .... ....
....|..|--- .... ....|--- .... ....|--- .... ....
 A#3|..|A#2 2C.F ....|A#3 2C.F ....|F-5 3FF7 ....
....|..|--- .... ....|--- .... ....|R-- .... ....
....|..|R-- .... ....|R-- .... ....|--- .... ....
....|..|--- .... ....|--- .... ....|--- .... ....
....|..|A#1 2F.7 ....|A#3 2F.7 ....|--- .... ....
....|..|--- .... ....|--- .... ....|--- .... ....
....|..|A#1 2F.A ....|A#3 2F.A ....|--- .... ....
....|..|--- .... ....|--- .... ....|--- .... ....
 A#3|..|A#2 2C.F ....|A#3 2C.F ....|--- .... ....
....|..|--- .... ....|--- .... ....|--- .... ....
....|..|R-- .... ....|R-- .... ....|--- .... ....
....|..|--- .... ....|--- .... ....|--- .... ....

[Pattern22]
....|..|A#1 2F.7 ....|A#3 2F.7 ....|--- .... ....
....|..|--- .... ....|--- .... ....|--- .... ....
....|..|A#1 2F.A ....|A#3 2F.A ....|--- .... ....
....|..|--- .... ....|--- .... ....|--- .... ....
 A#3|..|A#2 2C.F ....|A#3 2C.F ....|--- .... ....
....|..|--- .... ....|--- .... ....|--- .... ....
....|..|R-- .... ....|R-- .... ....|--- .... ....
....|..|--- .... ....|--- .... ....|--- .... ....
....|..|A#1 2F.7 ....|A#3 2F.7 ....|F-5 3FFF ....
....|..|--- .... ....|--- .... ....|R-- .... ....
....|..|A#1 2F.A ....|A#3 2F.A ....|--- .... ....
....|..|--- .... ....|--- .... ....|--- .... ....
 A#3|..|A#2 2C.F ....|A#3 2C.F ....|--- .... ....
....|..|--- .... ....|--- .... ....|--- .... ....
....|..|R-- .... ....|R-- .... ....|F-5 3FFA ....
....|..|--- .... ....|--- .... ....|R-- .... ....
....|..|A#1 2F.7 ....|A#3 2F.7 ....|--- .... ....
....|..|--- .... ....|--- .... ....|--- .... ....
....|..|A#1 2F.A ....|A#3 2F.A ....|--- .... ....
....|..|--- .... ....|--- .... ....|--- .... ....
 A#3|..|A#2 2C.F ....|A#3 2C.F ....|F-5 3FF7 ....
....|..|--- .... ....|--- .... ....|R-- .... ....
....|..|R-- .... ....|R-- .... ....|--- .... ....
....|..|--- .... ....|--- .... ....|--- .... ....
....|..|A#1 2F.7 ....|A#3 2F.7 ....|--- .... ....
....|..|--- .... ....|--- .... ....|--- .... ....
....|..|A#1 2F.A ....|A#3 2F.A ....|--- .... ....
....|..|--- .... ....|--- .... ....|--- .... ....
 A#3|..|A#2 2C.F ....|A#3 2C.F ....|--- .... ....
....|..|--- .... ....|--- .... ....|--- .... ....
....|..|R-- .... ....|R-- .... ....|--- .... ....
....|..|--- .... ....|--- .... ....|--- .... ....
....|..|A#1 2F.7 ....|A#3 2F.7 ....|--- .... ....
....|..|--- .... ....|--- .... ....|--- .... ....
....|..|A#1 2F.A ....|A#3 2F.A ....|--- .... ....
....|..|--- .... ....|--- .... ....|--- .... ....
 A#3|..|A#2 2C.F ....|A#3 2C.F ....|--- .... ....
....|..|--- .... ....|--- .... ....|--- .... ....
....|..|R-- .... ....|R-- .... ....|--- .... ....
....|..|--- .... ....|--- .... ....|--- .... ....
....|..|A#1 2F.7 ....|A#3 2F.7 ....|F-5 3FFF ....
....|..|--- .... ....|--- .... ....|R-- .... ....
....|..|A#1 2F.A ....|A#3 2F.A ....|--- .... ....
....|..|--- .... ....|--- .... ....|--- .... ....
 A#3|..|A#2 2C.F ....|A#3 2C.F ....|--- .... ....
....|..|--- .... ....|--- .... ....|--- .... ....
....|..|R-- .... ....|R-- .... ....|F-5 3FFA ....
....|..|--- .... ....|--- .... ....|R-- .... ....
....|..|A#1 2F.7 ....|A#3 2F.7 ....|--- .... ....
....|..|--- .... ....|--- .... ....|--- .... ....
....|..|A#1 2F.A ....|A#3 2F.A ....|--- .... ....
....|..|--- .... ....|--- .... ....|--- .... ....
 A#3|..|A#2 2C.F ....|A#3 2C.F ....|F-5 3FF7 ....
....|..|--- .... ....|--- .... ....|R-- .... ....
....|..|R-- .... ....|R-- .... ....|--- .... ....
....|..|--- .... ....|--- .... ....|--- .... ....
....|..|A#1 2F.7 ....|A#3 2F.7 ....|--- .... ....
....|..|--- .... ....|--- .... ....|--- .... ....
....|..|A#1 2F.A ....|A#3 2F.A ....|--- .... ....
....|..|--- .... ....|--- .... ....|--- .... ....
 A#3|..|A#2 2C.F ....|A#3 2C.F ....|--- .... ....
....|..|--- .... ....|--- .... ....|--- .... ....
....|..|R-- .... ....|R-- .... ....|--- .... ....
....|..|--- .... ....|--- .... ....|--- .... ....
....|..|A#1 2F.7 ....|A#3 2F.7 ....|--- .... ....
....|..|--- .... ....|--- .... ....|--- .... ....
....|..|A#1 2F.A ....|A#3 2F.A ....|--- .... ....
....|..|--- .... ....|--- .... ....|--- .... ....
 F#4|..|F#2 2A.F ....|F#3 2C.F ....|--- .... ....
....|..|--- .... ....|--- .... ....|--- .... ....
....|..|R-- .... ....|R-- .... ....|--- .... ....
....|..|--- .... ....|--- .... ....|--- .... ....
....|..|A#1 2F.7 ....|A#3 2F.7 ....|F-5 3FFF ....
....|..|--- .... ....|--- .... ....|R-- .... ....
....|..|F#1 2F.A ....|F#3 2F.A ....|--- .... ....
....|..|--- .... ....|--- .... ....|--- .... ....
 F#4|..|F#2 2A.F ....|F#3 2C.F ....|--- .... ....
....|..|--- .... ....|--- .... ....|--- .... ....
....|..|R-- .... ....|R-- .... ....|F-5 3FFA ....
....|..|--- .... ....|--- .... ....|R-- .... ....
....|..|F#1 2F.7 ....|F#3 2F.7 ....|--- .... ....
....|..|--- .... ....|--- .... ....|--- .... ....
....|..|F#1 2F.A ....|F#3 2F.A ....|--- .... ....
....|..|--- .... ....|--- .... ....|--- .... ....
 F#4|..|F#2 2A.F ....|F#3 2C.F ....|F-5 3FF7 ....
....|..|--- .... ....|--- .... ....|R-- .... ....
....|..|R-- .... ....|R-- .... ....|--- .... ....
....|..|--- .... ....|--- .... ....|--- .... ....
....|..|F#1 2F.7 ....|F#3 2F.7 ....|--- .... ....
....|..|--- .... ....|--- .... ....|--- .... ....
....|..|F#1 2F.A ....|F#3 2F.A ....|--- .... ....
....|..|--- .... ....|--- .... ....|--- .... ....
 F#4|..|F#2 2A.F ....|F#3 2C.F ....|--- .... ....
....|..|--- .... ....|--- .... ....|--- .... ....
....|..|R-- .... ....|R-- .... ....|--- .... ....
....|..|--- .... ....|--- .... ....|--- .... ....
 A#3|..|A#4 2C.F ....|F#3 2F.7 ....|A#4 2C.F ....
....|..|R-- .... ....|--- .... ....|R-- .... ....
....|..|F#1 2F.A ....|F#3 2F.A ....|--- .... ....
....|..|--- .... ....|--- .... ....|--- .... ....
 A#3|..|A#2 2C.F ....|A#4 2C.F ....|A#4 2C.F ....
....|..|R-- .... ....|--- .... ....|R-- .... ....
 G#4|..|G#4 2C.F ....|R-- .... ....|G#4 2C.F ....
....|..|R-- .... ....|--- .... ....|R-- .... ....
....|..|F#1 2F.7 ....|F#3 2F.7 ....|F-5 3FFF ....
....|..|--- .... ....|--- .... ....|R-- .... ....
....|..|A#1 2F.A ....|A#3 2F.A ....|A#4 2F.A ....
....|..|R-- .... ....|--- .... ....|R-- .... ....
 A#3|..|A#2 2C.F ....|A#4 2C.F ....|A#4 2C.F ....
....|..|R-- .... ....|--- .... ....|R-- .... ....
....|..|R-- .... ....|R-- .... ....|F-5 3FFA ....
....|..|--- .... ....|--- .... ....|R-- .... ....
....|..|A#1 2F.7 ....|A#3 2F.7 ....|A#4 2F.7 ....
....|..|R-- .... ....|--- .... ....|R-- .... ....
 A#3|..|A#4 2C.F ....|A#3 2F.A ....|A#4 2C.F ....
....|..|R-- .... ....|--- .... ....|R-- .... ....
 A#3|..|A#2 2C.F ....|A#3 2C.F ....|F-5 3FF7 ....
....|..|--- .... ....|--- .... ....|R-- .... ....
 A#3|..|A#4 2C.F ....|R-- .... ....|A#4 2C.F ....
....|..|R-- .... ....|--- .... ....|R-- .... ....
 G#4|..|G#4 2C.F ....|A#3 2F.7 ....|F-5 3FFF ....
....|..|R-- .... ....|--- .... ....|R-- .... ....
....|..|A#1 2F.A ....|A#3 2F.A ....|--- .... ....
....|..|--- .... ....|--- .... ....|--- .... ....
 C#4|..|A#1 2F.F ....|A#3 2F.F ....|C#5 2C.F ....
....|..|R-- .... ....|--- .... ....|R-- .... ....
....|..|A#4 2F.7 ....|R-- .... ....|A#4 2F.7 ....
....|..|R-- .... ....|--- .... ....|R-- .... ....

[Pattern23]
 A#3|..|A#4 2C.F ....|A#3 2F.7 ....|A#4 2C.F ....
....|..|R-- .... ....|--- .... ....|R-- .... ....
....|..|A#4 2F.7 ....|A#3 2F.A ....|A#4 2F.7 ....
....|..|R-- .... ....|--- .... ....|R-- .... ....
 A#3|..|A#2 2C.F ....|A#4 2C.F ....|A#4 2C.F ....
....|..|R-- .... ....|--- .... ....|R-- .... ....
 G#4|..|G#4 2C.F ....|R-- .... ....|G#4 2C.F ....
....|..|R-- .... ....|--- .... ....|R-- .... ....
....|..|A#1 2F.7 ....|A#3 2F.7 ....|F-5 3FFF ....
....|..|R-- .... ....|--- .... ....|R-- .... ....
....|..|A#1 2F.A ....|A#3 2F.A ....|A#4 2F.A ....
....|..|R-- .... ....|--- .... ....|R-- .... ....
 A#3|..|A#2 2C.F ....|A#4 2C.F ....|A#4 2C.F ....
....|..|R-- .... ....|--- .... ....|R-- .... ....
....|..|R-- .... ....|R-- .... ....|F-5 3FFA ....
....|..|--- .... ....|--- .... ....|R-- .... ....
....|..|A#1 2F.7 ....|A#3 2F.7 ....|A#4 2F.7 ....
....|..|R-- .... ....|--- .... ....|R-- .... ....
 A#3|..|A#4 2C.F ....|A#3 2F.A ....|A#4 2C.F ....
....|..|R-- .... ....|--- .... ....|R-- .... ....
 A#3|..|A#2 2C.F ....|A#3 2C.F ....|F-5 3FF7 ....
....|..|--- .... ....|--- .... ....|R-- .... ....
 A#3|..|A#4 2C.F ....|R-- .... ....|A#4 2C.F ....
....|..|R-- .... ....|--- .... ....|R-- .... ....
 G#4|..|G#4 2C.F ....|A#3 2F.7 ....|F-5 3FFF ....
....|..|R-- .... ....|--- .... ....|R-- .... ....
....|..|A#1 2F.A ....|A#3 2F.A ....|--- .... ....
....|..|--- .... ....|--- .... ....|--- .... ....
 C#4|..|A#1 2F.F ....|A#3 2F.F ....|C#5 2C.F ....
....|..|R-- .... ....|--- .... ....|R-- .... ....
....|..|A#4 2F.7 ....|R-- .... ....|A#4 2F.7 ....
....|..|R-- .... ....|--- .... ....|R-- .... ....
 A#3|..|A#4 2C.F ....|A#3 2F.7 ....|A#4 2C.F ....
....|..|R-- .... ....|--- .... ....|R-- .... ....
....|..|A#4 2F.7 ....|A#3 2F.A ....|A#4 2F.7 ....
....|..|R-- .... ....|--- .... ....|R-- .... ....
 A#3|..|A#2 2C.F ....|A#4 2C.F ....|A#4 2C.F ....
....|..|R-- .... ....|--- .... ....|R-- .... ....
 G#4|..|G#4 2C.F ....|R-- .... ....|G#4 2C.F ....
....|..|R-- .... ....|--- .... ....|R-- .... ....
....|..|A#1 2F.7 ....|A#3 2F.7 ....|F-5 3FFF ....
....|..|R-- .... ....|--- .... ....|R-- .... ....
....|..|A#1 2F.A ....|A#3 2F.A ....|A#4 2F.A ....
....|..|R-- .... ....|--- .... ....|R-- .... ....
 A#3|..|A#2 2C.F ....|A#4 2C.F ....|A#4 2C.F ....
....|..|R-- .... ....|--- .... ....|R-- .... ....
....|..|R-- .... ....|R-- .... ....|F-5 3FFA ....
....|..|--- .... ....|--- .... ....|R-- .... ....
....|..|A#1 2F.7 ....|A#3 2F.7 ....|A#4 2F.7 ....
....|..|R-- .... ....|--- .... ....|R-- .... ....
 A#3|..|A#4 2C.F ....|A#3 2F.A ....|A#4 2C.F ....
....|..|R-- .... ....|--- .... ....|R-- .... ....
 A#3|..|A#2 2C.F ....|A#3 2C.F ....|F-5 3FF7 ....
....|..|--- .... ....|--- .... ....|R-- .... ....
 A#3|..|A#4 2C.F ....|R-- .... ....|A#4 2C.F ....
....|..|R-- .... ....|--- .... ....|R-- .... ....
 G#4|..|G#4 2C.F ....|A#3 2F.7 ....|F-5 3FFF ....
....|..|R-- .... ....|--- .... ....|R-- .... ....
....|..|A#1 2F.A ....|A#3 2F.A ....|--- .... ....
....|..|--- .... ....|--- .... ....|--- .... ....
 C#4|..|A#1 2F.F ....|A#3 2F.F ....|C#5 2C.F ....
....|..|R-- .... ....|--- .... ....|R-- .... ....
....|..|A#4 2F.7 ....|R-- .... ....|A#4 2F.7 ....
....|..|R-- .... ....|--- .... ....|R-- .... ....
 A#3|..|A#4 2C.F ....|A#3 2F.7 ....|A#4 2C.F ....
....|..|R-- .... ....|--- .... ....|R-- .... ....
....|..|A#4 2F.7 ....|A#3 2F.A ....|A#4 2F.7 ....
....|..|R-- .... ....|--- .... ....|R-- .... ....
 A#3|..|F#1 2F.F ....|F#3 2F.F ....|A#4 2C.F ....
....|..|R-- .... ....|--- .... ....|R-- .... ....
 G#4|..|G#4 2C.F ....|R-- .... ....|G#4 2C.F ....
....|..|R-- .... ....|--- .... ....|R-- .... ....
....|..|A#1 2F.7 ....|A#3 2F.7 ....|F-5 3FFF ....
....|..|R-- .... ....|--- .... ....|R-- .... ....
....|..|F#1 2F.A ....|F#3 2F.A ....|A#4 2F.A ....
....|..|R-- .... ....|--- .... ....|R-- .... ....
 A#3|..|F#1 2F.F ....|F#3 2F.F ....|A#4 2C.F ....
....|..|R-- .... ....|--- .... ....|R-- .... ....
....|..|R-- .... ....|R-- .... ....|F-5 3FFA ....
....|..|--- .... ....|--- .... ....|R-- .... ....
....|..|F#1 2F.7 ....|F#3 2F.7 ....|A#4 2F.7 ....
....|..|R-- .... ....|--- .... ....|R-- .... ....
 A#3|..|A#4 2C.F ....|F#3 2F.A ....|A#4 2C.F ....
....|..|R-- .... ....|--- .... ....|R-- .... ....
 F#4|..|F#2 2A.F ....|F#3 2C.F ....|F-5 3FF7 ....
....|..|--- .... ....|--- .... ....|R-- .... ....
 A#3|..|A#4 2C.F ....|R-- .... ....|A#4 2C.F ....
....|..|R-- .... ....|--- .... ....|R-- .... ....
 G#4|..|G#4 2C.F ....|F#3 2F.7 ....|F-5 3FFF ....
....|..|R-- .... ....|--- .... ....|R-- .... ....
....|..|F#1 2F.A ....|F#3 2F.A ....|--- .... ....
....|..|--- .... ....|--- .... ....|--- .... ....
 C#4|..|F#1 2F.F ....|F#3 2F.F ....|C#5 2C.F ....
....|..|R-- .... ....|--- .... ....|R-- .... ....
....|..|A#4 2F.7 ....|R-- .... ....|A#4 2F.7 ....
....|..|R-- .... ....|--- .... ....|R-- .... ....
 A#3|..|A#4 2C.F ....|F#3 2F.7 ....|A#4 2C.F ....
....|..|R-- .... ....|--- .... ....|R-- .... ....
....|..|A#4 2F.7 ....|F#3 2F.A ....|A#4 2F.7 ....
....|..|R-- .... ....|--- .... ....|R-- .... ....
 A#3|..|A#2 2C.F ....|A#4 2C.F ....|A#4 2C.F ....
....|..|R-- .... ....|--- .... ....|R-- .... ....
 G#4|..|G#4 2C.F ....|R-- .... ....|G#4 2C.F ....
....|..|R-- .... ....|--- .... ....|R-- .... ....
....|..|F#1 2F.7 ....|F#3 2F.7 ....|F-5 3FFF ....
....|..|R-- .... ....|--- .... ....|R-- .... ....
....|..|A#1 2F.A ....|A#3 2F.A ....|A#4 2F.A ....
....|..|R-- .... ....|--- .... ....|R-- .... ....
 A#3|..|A#2 2C.F ....|A#4 2C.F ....|A#4 2C.F ....
....|..|R-- .... ....|--- .... ....|R-- .... ....
....|..|R-- .... ....|R-- .... ....|F-5 3FFA ....
....|..|--- .... ....|--- .... ....|R-- .... ....
....|..|A#1 2F.7 ....|A#3 2F.7 ....|A#4 2F.7 ....
....|..|R-- .... ....|--- .... ....|R-- .... ....
 A#3|..|A#4 2C.F ....|A#3 2F.A ....|A#4 2C.F ....
....|..|R-- .... ....|--- .... ....|R-- .... ....
 A#3|..|A#2 2C.F ....|A#3 2C.F ....|F-5 3FF7 ....
....|..|--- .... ....|--- .... ....|R-- .... ....
 A#3|..|A#4 2C.F ....|R-- .... ....|A#4 2C.F ....
....|..|R-- .... ....|--- .... ....|R-- .... ....
 G#4|..|G#4 2C.F ....|A#3 2F.7 ....|F-5 3FFF ....
....|..|R-- .... ....|--- .... ....|R-- .... ....
....|..|A#1 2F.A ....|A#3 2F.A ....|--- .... ....
....|..|--- .... ....|--- .... ....|--- .... ....
 C#4|..|A#1 2F.F ....|A#3 2F.F ....|C#5 2C.F ....
....|..|R-- .... ....|--- .... ....|R-- .... ....
....|..|A#4 2F.7 ....|R-- .... ....|A#4 2F.7 ....
....|..|R-- .... ....|--- .... ....|R-- .... ....

[Pattern24]
 A#3|..|A#4 2C.F ....|A#3 2F.7 ....|A#4 2C.F ....
....|..|R-- .... ....|--- .... ....|R-- .... ....
....|..|A#4 2F.7 ....|A#3 2F.A ....|A#4 2F.7 ....
....|..|R-- .... ....|--- .... ....|R-- .... ....
 A#3|..|A#2 2C.F ....|A#4 2C.F ....|A#4 2C.F ....
....|..|R-- .... ....|--- .... ....|R-- .... ....
 G#4|..|G#4 2C.F ....|R-- .... ....|G#4 2C.F ....
....|..|R-- .... ....|--- .... ....|R-- .... ....
....|..|A#1 2F.7 ....|A#3 2F.7 ....|F-5 3FFF ....
....|..|R-- .... ....|--- .... ....|R-- .... ....
....|..|A#1 2F.A ....|A#3 2F.A ....|A#4 2F.A ....
....|..|R-- .... ....|--- .... ....|R-- .... ....
 A#3|..|A#2 2C.F ....|A#4 2C.F ....|A#4 2C.F ....
....|..|R-- .... ....|--- .... ....|R-- .... ....
....|..|R-- .... ....|R-- .... ....|F-5 3FFA ....
....|..|--- .... ....|--- .... ....|R-- .... ....
....|..|A#1 2F.7 ....|A#3 2F.7 ....|A#4 2F.7 ....
....|..|R-- .... ....|--- .... ....|R-- .... ....
 A#3|..|A#4 2C.F ....|A#3 2F.A ....|A#4 2C.F ....
....|..|R-- .... ....|--- .... ....|R-- .... ....
 A#3|..|A#2 2C.F ....|A#3 2C.F ....|F-5 3FF7 ....
....|..|--- .... ....|--- .... ....|R-- .... ....
 A#3|..|A#4 2C.F ....|R-- .... ....|A#4 2C.F ....
....|..|R-- .... ....|--- .... ....|R-- .... ....
 G#4|..|G#4 2C.F ....|A#3 2F.7 ....|F-5 3FFF ....
....|..|R-- .... ....|--- .... ....|R-- .... ....
....|..|A#1 2F.A ....|A#3 2F.A ....|--- .... ....
....|..|--- .... ....|--- .... ....|--- .... ....
 C#4|..|A#1 2F.F ....|A#3 2F.F ....|C#5 2C.F ....
....|..|R-- .... ....|--- .... ....|R-- .... ....
....|..|A#4 2F.7 ....|R-- .... ....|A#4 2F.7 ....
....|..|R-- .... ....|--- .... ....|R-- .... ....
 A#3|..|A#4 2C.F ....|A#3 2F.7 ....|A#4 2C.F ....
....|..|R-- .... ....|--- .... ....|R-- .... ....
....|..|A#4 2F.7 ....|A#3 2F.A ....|A#4 2F.7 ....
....|..|R-- .... ....|--- .... ....|R-- .... ....
 A#3|..|A#2 2C.F ....|A#4 2C.F ....|A#4 2C.F ....
....|..|R-- .... ....|--- .... ....|R-- .... ....
 G#4|..|G#4 2C.F ....|R-- .... ....|G#4 2C.F ....
....|..|R-- .... ....|--- .... ....|R-- .... ....
....|..|A#1 2F.7 ....|A#3 2F.7 ....|F-5 3FFF ....
....|..|R-- .... ....|--- .... ....|R-- .... ....
....|..|A#1 2F.A ....|A#3 2F.A ....|A#4 2F.A ....
....|..|R-- .... ....|--- .... ....|R-- .... ....
 A#3|..|A#2 2C.F ....|A#4 2C.F ....|A#4 2C.F ....
....|..|R-- .... ....|--- .... ....|R-- .... ....
....|..|R-- .... ....|R-- .... ....|F-5 3FFA ....
....|..|--- .... ....|--- .... ....|R-- .... ....
....|..|A#1 2F.7 ....|A#3 2F.7 ....|A#4 2F.7 ....
....|..|R-- .... ....|--- .... ....|R-- .... ....
 A#3|..|A#4 2C.F ....|A#3 2F.A ....|A#4 2C.F ....
....|..|R-- .... ....|--- .... ....|R-- .... ....
 A#3|..|A#2 2C.F ....|A#3 2C.F ....|F-5 3FF7 ....
....|..|--- .... ....|--- .... ....|R-- .... ....
 A#3|..|A#4 2C.F ....|R-- .... ....|A#4 2C.F ....
....|..|R-- .... ....|--- .... ....|R-- .... ....
 G#4|..|G#4 2C.F ....|A#3 2F.7 ....|F-5 3FFF ....
....|..|R-- .... ....|--- .... ....|R-- .... ....
....|..|A#1 2F.A ....|A#3 2F.A ....|--- .... ....
....|..|--- .... ....|--- .... ....|--- .... ....
 C#4|..|A#1 2F.F ....|A#3 2F.F ....|C#5 2C.F ....
....|..|R-- .... ....|--- .... ....|R-- .... ....
....|..|A#4 2F.7 ....|R-- .... ....|A#4 2F.7 ....
....|..|R-- .... ....|--- .... ....|R-- .... ....
 A#3|..|A#4 2C.F ....|A#3 2F.7 ....|A#4 2C.F ....
....|..|R-- .... ....|--- .... ....|R-- .... ....
....|..|A#4 2F.7 ....|A#3 2F.A ....|A#4 2F.7 ....
....|..|R-- .... ....|--- .... ....|R-- .... ....
 A#3|..|F#1 2F.F ....|F#3 2F.F ....|A#4 2C.F ....
....|..|R-- .... ....|--- .... ....|R-- .... ....
 G#4|..|G#4 2C.F ....|R-- .... ....|G#4 2C.F ....
....|..|R-- .... ....|--- .... ....|R-- .... ....
....|..|A#1 2F.7 ....|A#3 2F.7 ....|F-5 3FFF ....
....|..|R-- .... ....|--- .... ....|R-- .... ....
....|..|F#1 2F.A ....|F#3 2F.A ....|A#4 2F.A ....
....|..|R-- .... ....|--- .... ....|R-- .... ....
 A#3|..|F#1 2F.F ....|F#3 2F.F ....|A#4 2C.F ....
....|..|R-- .... ....|--- .... ....|R-- .... ....
....|..|R-- .... ....|R-- .... ....|F-5 3FFA ....
....|..|--- .... ....|--- .... ....|R-- .... ....
....|..|F#1 2F.7 ....|F#3 2F.7 ....|A#4 2F.7 ....
....|..|R-- .... ....|--- .... ....|R-- .... ....
 A#3|..|A#4 2C.F ....|F#3 2F.A ....|A#4 2C.F ....
....|..|R-- .... ....|--- .... ....|R-- .... ....
 F#4|..|F#2 2A.F ....|F#3 2C.F ....|F-5 3FF7 ....
....|..|--- .... ....|--- .... ....|R-- .... ....
 A#3|..|A#4 2C.F ....|R-- .... ....|A#4 2C.F ....
....|..|R-- .... ....|--- .... ....|R-- .... ....
 G#4|..|G#4 2C.F ....|F#3 2F.7 ....|F-5 3FFF ....
....|..|R-- .... ....|--- .... ....|R-- .... ....
....|..|F#1 2F.A ....|F#3 2F.A ....|--- .... ....
....|..|--- .... ....|--- .... ....|--- .... ....
 C#4|..|F#1 2F.F ....|F#3 2F.F ....|C#5 2C.F ....
....|..|R-- .... ....|--- .... ....|R-- .... ....
....|..|A#4 2F.7 ....|R-- .... ....|A#4 2F.7 ....
....|..|R-- .... ....|--- .... ....|R-- .... ....
....|..|A#3 3F5F ....|A#3 UF5F ....|--- .... ....
....|..|--- .... ....|--- .... ....|--- .... ....
 A#3|..|A#4 2F.7 ....|A#3 2C.F ....|A#4 2F.7 ....
....|..|R-- .... ....|R-- .... ....|R-- .... ....
 A#3|..|A#1 2A.F ....|R-- .... ....|A#4 3FFF ....
....|..|R-- .... ....|--- .... ....|R-- .... ....
....|..|A#3 3F5A ....|A#3 UF5A ....|--- .... ....
....|..|--- .... ....|--- .... ....|--- .... ....
 A#3|..|F#1 2F.7 ....|A#3 2C.F ....|C#5 2F.7 ....
....|..|R-- .... ....|R-- .... ....|R-- .... ....
....|..|A#1 2F.A ....|--- .... ....|A#4 3FFA ....
....|..|--- .... ....|--- .... ....|--- .... ....
 A#3|..|A#2 2C.F ....|A#3 2C.F ....|A#4 3FFF ....
....|..|--- .... ....|R-- .... ....|R-- .... ....
....|..|R-- .... ....|A#3 2F.7 ....|R-- .... ....
....|..|--- .... ....|R-- .... ....|--- .... ....
....|..|A#1 2F.7 ....|--- .... ....|A#4 3FFF ....
....|..|--- .... ....|--- .... ....|--- .... ....
 A#3|..|A#1 2F.A ....|A#3 2C.F ....|A#4 3FFA ....
....|..|--- .... ....|R-- .... ....|R-- .... ....
 A#3|..|A#1 2A.F ....|A#3 2F.7 ....|A#4 3FFF ....
....|..|--- .... ....|R-- .... ....|R-- .... ....
....|..|R-- .... ....|--- .... ....|C-5 3FFF ....
....|..|--- .... ....|--- .... ....|--- .... ....
 A#3|..|A#1 2F.7 ....|A#3 2C.F ....|A#4 3FF7 ....
....|..|--- .... ....|R-- .... ....|R-- .... ....
....|..|A#1 2F.A ....|--- .... ....|A#4 3FFA ....
....|..|--- .... ....|--- .... ....|R-- .... ....
 A#3|..|A#2 2C.F ....|A#3 2C.F ....|D-5 3FFF ....
....|..|--- .... ....|R-- .... ....|--- .... ....
....|..|R-- .... ....|A#3 2F.7 ....|R-- .... ....
....|..|--- .... ....|R-- .... ....|R-- .... ....

[Pattern28]
....|..|G-3 3F6F ....|G-3 UF6F ....|A#4 3FF7 ....
....|..|--- .... ....|--- .... ....|R-- .... ....
 G-4|..|A#1 2F.A ....|G-4 2C.F ....|C-5 3FF7 ....
....|..|--- .... ....|R-- .... ....|--- .... ....
 G-3|..|G-1 2A.F ....|A#4 2F.7 ....|F-5 3FFF ....
....|..|--- .... ....|R-- .... ....|R-- .... ....
....|..|G-3 3F6A ....|G-3 UF6A ....|--- .... ....
....|..|--- .... ....|--- .... ....|--- .... ....
 G-4|..|A#1 2F.7 ....|G-4 2C.F ....|D-5 3FF7 ....
....|..|--- .... ....|R-- .... ....|--- .... ....
....|..|G-1 2F.A ....|--- .... ....|F-5 3FFA ....
....|..|--- .... ....|--- .... ....|R-- .... ....
 G-4|..|G-2 2A.F ....|G-4 2C.F ....|F-5 3FFF ....
....|..|--- .... ....|R-- .... ....|R-- .... ....
....|..|R-- .... ....|G-4 2F.7 ....|R-- .... ....
....|..|--- .... ....|R-- .... ....|--- .... ....
....|..|G-1 2F.7 ....|--- .... ....|F-5 3FFF ....
....|..|--- .... ....|--- .... ....|--- .... ....
 G-4|..|G-1 2F.A ....|G-4 2C.F ....|F-5 3FFA ....
....|..|--- .... ....|R-- .... ....|R-- .... ....
 G-3|..|G-1 2A.F ....|G-4 2F.7 ....|R-- .... ....
....|..|--- .... ....|R-- .... ....|--- .... ....
....|..|R-- .... ....|--- .... ....|F-5 3FFA ....
....|..|--- .... ....|--- .... ....|--- .... ....
 G-4|..|G-1 2F.7 ....|G-4 2C.F ....|F-5 3FF7 ....
....|..|--- .... ....|R-- .... ....|R-- .... ....
....|..|G-1 2F.A ....|--- .... ....|--- .... ....
....|..|--- .... ....|--- .... ....|--- .... ....
 G-4|..|G-2 2A.F ....|G-4 2C.F ....|F-5 3FF7 ....
....|..|--- .... ....|R-- .... ....|--- .... ....
....|..|R-- .... ....|G-4 2F.7 ....|--- .... ....
....|..|--- .... ....|R-- .... ....|--- .... ....
....|..|D-3 3F7F ....|D-3 UF7F ....|--- .... ....
....|..|--- .... ....|--- .... ....|R-- .... ....
 D-4|..|G-1 2F.A ....|D-5 2C.F ....|--- .... ....
....|..|--- .... ....|R-- .... ....|--- .... ....
 D-4|..|D-2 2A.F ....|G-4 2F.7 ....|A-4 3FFF ....
....|..|--- .... ....|R-- .... ....|--- .... ....
....|..|D-3 3F7A ....|D-3 UF7A ....|--- .... ....
....|..|--- .... ....|--- .... ....|R-- .... ....
 D-4|..|G-1 2F.7 ....|D-5 2C.F ....|R-- .... ....
....|..|--- .... ....|R-- .... ....|--- .... ....
....|..|D-2 2F.A ....|--- .... ....|A-4 3FFA ....
....|..|--- .... ....|--- .... ....|--- .... ....
 D-4|..|D-3 2C.F ....|D-5 2C.F ....|A-4 3FFF ....
....|..|--- .... ....|R-- .... ....|R-- .... ....
....|..|R-- .... ....|D-5 2F.7 ....|R-- .... ....
....|..|--- .... ....|R-- .... ....|--- .... ....
....|..|D-2 2F.7 ....|--- .... ....|A-4 3FFF ....
....|..|--- .... ....|--- .... ....|--- .... ....
 D-4|..|D-2 2F.A ....|D-5 2C.F ....|A-4 3FFA ....
....|..|--- .... ....|R-- .... ....|--- .... ....
 D-4|..|D-2 2A.F ....|D-5 2F.7 ....|A-4 3FFF ....
....|..|--- .... ....|R-- .... ....|--- .... ....
....|..|R-- .... ....|--- .... ....|A#4 3FFF ....
....|..|--- .... ....|--- .... ....|--- .... ....
 D-4|..|D-2 2F.7 ....|D-5 2C.F ....|A-4 3FF7 ....
....|..|--- .... ....|R-- .... ....|--- .... ....
....|..|D-2 2F.A ....|--- .... ....|A-4 3FFA ....
....|..|--- .... ....|--- .... ....|--- .... ....
 D-4|..|D-3 2C.F ....|D-5 2C.F ....|C-5 3FFF ....
....|..|--- .... ....|R-- .... ....|--- .... ....
....|..|R-- .... ....|D-5 2F.7 ....|R-- .... ....
....|..|--- .... ....|R-- .... ....|--- .... ....
....|..|D#3 3F8F ....|D#3 UF8F ....|A-4 3FF7 ....
....|..|--- .... ....|--- .... ....|--- .... ....
 D#4|..|D-2 2F.A ....|D#4 2C.F ....|A#4 3FF7 ....
....|..|--- .... ....|R-- .... ....|--- .... ....
 D#4|..|D#2 2A.F ....|D-5 2F.7 ....|A#4 3FFF ....
....|..|--- .... ....|R-- .... ....|--- .... ....
....|..|D#3 3F8A ....|D#3 UF8A ....|R-- .... ....
....|..|--- .... ....|--- .... ....|--- .... ....
 D#4|..|D-2 2F.7 ....|D#4 2C.F ....|C-5 3FF7 ....
....|..|--- .... ....|R-- .... ....|--- .... ....
....|..|D#2 2F.A ....|--- .... ....|A#4 3FFA ....
....|..|--- .... ....|--- .... ....|--- .... ....
 D#4|..|D#3 2C.F ....|D#4 2C.F ....|A#4 3FFF ....
....|..|--- .... ....|R-- .... ....|R-- .... ....
....|..|R-- .... ....|D#4 2F.7 ....|--- .... ....
....|..|--- .... ....|R-- .... ....|--- .... ....
....|..|D#2 2F.7 ....|--- .... ....|A#4 3FFF ....
....|..|--- .... ....|--- .... ....|--- .... ....
 D#4|..|D#2 2F.A ....|D#4 2C.F ....|A#4 3FFA ....
....|..|--- .... ....|R-- .... ....|R-- .... ....
 D#4|..|D#2 2A.F ....|D#4 2F.7 ....|--- .... ....
....|..|--- .... ....|R-- .... ....|--- .... ....
....|..|R-- .... ....|--- .... ....|A#4 3FFA ....
....|..|--- .... ....|--- .... ....|--- .... ....
 D#4|..|D#2 2F.7 ....|D#4 2C.F ....|C-5 3FFF ....
....|..|--- .... ....|R-- .... ....|R-- .... ....
....|..|D#2 2F.A ....|--- .... ....|--- .... ....
....|..|--- .... ....|--- .... ....|--- .... ....
 D#4|..|D#3 2C.F ....|D#4 2C.F ....|A#4 3FF7 ....
....|..|--- .... ....|R-- .... ....|--- .... ....
....|..|R-- .... ....|D#4 2F.7 ....|C-5 3FFA ....
....|..|--- .... ....|R-- .... ....|R-- .... ....
....|..|A#3 3F5F ....|A#3 UF5F ....|--- .... ....
....|..|--- .... ....|--- .... ....|--- .... ....
 A#3|..|D#2 2F.A ....|A#4 2C.F ....|--- .... ....
....|..|--- .... ....|R-- .... ....|--- .... ....
....|..|R-- .... ....|D#4 2F.7 ....|C-5 3FF7 ....
....|..|--- .... ....|R-- .... ....|R-- .... ....
....|..|A#3 3F5A ....|A#3 UF5A ....|--- .... ....
....|..|--- .... ....|--- .... ....|--- .... ....
 A#3|..|D#2 2F.7 ....|A#4 2C.F ....|--- .... ....
....|..|--- .... ....|R-- .... ....|--- .... ....
....|..|--- .... ....|--- .... ....|R-- .... ....
....|..|--- .... ....|--- .... ....|R-- .... ....
 A#3|..|A#3 3F57 ....|A#4 2C.F ....|--- .... ....
....|..|--- .... ....|R-- .... ....|--- .... ....
....|..|--- .... ....|A#4 2F.7 ....|--- .... ....
....|..|--- .... ....|R-- .... ....|--- .... ....
....|..|--- .... ....|--- .... ....|A#4 3FFF ....
....|..|--- .... ....|--- .... ....|--- .... ....
 A#3|..|--- .... ....|A#4 2C.F ....|--- .... ....
....|..|--- .... ....|R-- .... ....|--- .... ....
....|..|--- .... ....|A#4 2F.7 ....|--- .... ....
....|..|--- .... ....|R-- .... ....|--- .... ....
....|..|--- .... ....|--- .... ....|A#4 3FFA ....
....|..|--- .... ....|--- .... ....|--- .... ....
 A#3|..|--- .... ....|A#4 2C.F ....|--- .... ....
....|..|--- .... ....|R-- .... ....|--- .... ....
....|..|--- .... ....|--- .... ....|--- .... ....
....|..|--- .... ....|--- .... ....|--- .... ....
 A#3|..|--- .... ....|A#4 2C.F ....|A#4 3FF7 ....
....|..|--- .... ....|R-- .... ....|--- .... ....
....|..|--- .... ....|A#4 2F.7 ....|--- .... ....
....|..|--- .... ....|R-- .... ....|--- .... ....

[Pattern29]
....|..|G-3 3F6F ....|G-3 UF6F ....|--- .... ....
....|..|--- .... ....|--- .... ....|--- .... ....
 G-4|..|--- .... ....|G-4 2C.F ....|--- .... ....
....|..|--- .... ....|R-- .... ....|--- .... ....
....|..|--- .... ....|A#4 2F.7 ....|F-5 3FFF ....
....|..|--- .... ....|R-- .... ....|--- .... ....
....|..|G-3 3F6A ....|G-3 UF6A ....|--- .... ....
....|..|--- .... ....|--- .... ....|--- .... ....
 G-4|..|--- .... ....|G-4 2C.F ....|R-- .... ....
....|..|--- .... ....|R-- .... ....|--- .... ....
....|..|--- .... ....|--- .... ....|F-5 3FFA ....
....|..|--- .... ....|--- .... ....|--- .... ....
 G-4|..|G-3 3F67 ....|G-4 2C.F ....|F-5 3FFF ....
....|..|--- .... ....|R-- .... ....|R-- .... ....
....|..|--- .... ....|G-4 2F.7 ....|R-- .... ....
....|..|--- .... ....|R-- .... ....|--- .... ....
....|..|--- .... ....|--- .... ....|F-5 3FFF ....
....|..|--- .... ....|--- .... ....|--- .... ....
 G-4|..|--- .... ....|G-4 2C.F ....|F-5 3FFA ....
....|..|--- .... ....|R-- .... ....|R-- .... ....
....|..|--- .... ....|G-4 2F.7 ....|R-- .... ....
....|..|--- .... ....|R-- .... ....|--- .... ....
....|..|--- .... ....|--- .... ....|F-5 3FFA ....
....|..|--- .... ....|--- .... ....|--- .... ....
 G-4|..|--- .... ....|G-4 2C.F ....|F-5 3FF7 ....
....|..|--- .... ....|R-- .... ....|R-- .... ....
....|..|--- .... ....|--- .... ....|--- .... ....
....|..|--- .... ....|--- .... ....|--- .... ....
 G-4|..|--- .... ....|G-4 2C.F ....|F-5 3FF7 ....
....|..|--- .... ....|R-- .... ....|--- .... ....
....|..|--- .... ....|G-4 2F.7 ....|--- .... ....
....|..|--- .... ....|R-- .... ....|--- .... ....
....|..|D-3 3F7F ....|D-3 UF7F ....|R-- .... ....
....|..|--- .... ....|--- .... ....|R-- .... ....
 D-4|..|--- .... ....|D-5 2C.F ....|--- .... ....
....|..|--- .... ....|R-- .... ....|--- .... ....
....|..|--- .... ....|G-4 2F.7 ....|--- .... ....
....|..|--- .... ....|R-- .... ....|--- .... ....
....|..|D-3 3F7A ....|D-3 UF7A ....|R-- .... ....
....|..|--- .... ....|--- .... ....|R-- .... ....
 D-4|..|--- .... ....|D-5 2C.F ....|--- .... ....
....|..|--- .... ....|R-- .... ....|--- .... ....
....|..|--- .... ....|--- .... ....|--- .... ....
....|..|--- .... ....|--- .... ....|--- .... ....
 D-4|..|D-3 3F77 ....|D-5 2C.F ....|R-- .... ....
....|..|--- .... ....|R-- .... ....|R-- .... ....
....|..|--- .... ....|D-5 2F.7 ....|--- .... ....
....|..|--- .... ....|R-- .... ....|--- .... ....
....|..|--- .... ....|--- .... ....|A#4 3FFF ....
....|..|--- .... ....|--- .... ....|--- .... ....
 D-4|..|--- .... ....|D-5 2C.F ....|--- .... ....
....|..|--- .... ....|R-- .... ....|--- .... ....
....|..|--- .... ....|D-5 2F.7 ....|--- .... ....
....|..|--- .... ....|R-- .... ....|--- .... ....
....|..|--- .... ....|--- .... ....|A#4 3FFA ....
....|..|--- .... ....|--- .... ....|--- .... ....
 D-4|..|--- .... ....|D-5 2C.F ....|--- .... ....
....|..|--- .... ....|R-- .... ....|--- .... ....
....|..|--- .... ....|--- .... ....|--- .... ....
....|..|--- .... ....|--- .... ....|--- .... ....
 D-4|..|--- .... ....|D-5 2C.F ....|A#4 3FF7 ....
....|..|--- .... ....|R-- .... ....|--- .... ....
....|..|--- .... ....|D-5 2F.7 ....|--- .... ....
....|..|--- .... ....|R-- .... ....|--- .... ....
....|..|D#3 3F8F ....|D#3 UF8F ....|--- .... ....
....|..|--- .... ....|--- .... ....|--- .... ....
 D#4|..|--- .... ....|D#4 2C.F ....|--- .... ....
....|..|--- .... ....|R-- .... ....|--- .... ....
....|..|--- .... ....|D-5 2F.7 ....|D#5 3FFF ....
....|..|--- .... ....|R-- .... ....|--- .... ....
....|..|D#3 3F8A ....|D#3 UF8A ....|R-- .... ....
....|..|--- .... ....|--- .... ....|--- .... ....
 D#4|..|--- .... ....|D#4 2C.F ....|--- .... ....
....|..|--- .... ....|R-- .... ....|--- .... ....
....|..|--- .... ....|--- .... ....|D#5 3FFA ....
....|..|--- .... ....|--- .... ....|--- .... ....
 D#4|..|D#3 3F87 ....|D#4 2C.F ....|D#5 3FFF ....
....|..|--- .... ....|R-- .... ....|R-- .... ....
....|..|--- .... ....|D#4 2F.7 ....|--- .... ....
....|..|--- .... ....|R-- .... ....|--- .... ....
....|..|--- .... ....|--- .... ....|D#5 3FFF ....
....|..|--- .... ....|--- .... ....|--- .... ....
 D#4|..|--- .... ....|D#4 2C.F ....|D#5 3FFA ....
....|..|--- .... ....|R-- .... ....|R-- .... ....
....|..|--- .... ....|D#4 2F.7 ....|--- .... ....
....|..|--- .... ....|R-- .... ....|--- .... ....
....|..|--- .... ....|--- .... ....|D#5 3FFA ....
....|..|--- .... ....|--- .... ....|--- .... ....
 D#4|..|--- .... ....|D#4 2C.F ....|C-5 3FFF ....
....|..|--- .... ....|R-- .... ....|R-- .... ....
....|..|--- .... ....|--- .... ....|--- .... ....
....|..|--- .... ....|--- .... ....|--- .... ....
 D#4|..|--- .... ....|D#4 2C.F ....|D#5 3FF7 ....
....|..|--- .... ....|R-- .... ....|--- .... ....
....|..|--- .... ....|D#4 2F.7 ....|C-5 3FFA ....
....|..|--- .... ....|R-- .... ....|--- .... ....
....|..|A#3 3F5F ....|A#3 UF5F ....|--- .... ....
....|..|--- .... ....|--- .... ....|--- .... ....
....|..|--- .... ....|D#4 2F.A ....|--- .... ....
....|..|--- .... ....|R-- .... ....|--- .... ....
....|..|--- .... ....|D#4 2F.7 ....|C-5 3FF7 ....
....|..|--- .... ....|R-- .... ....|--- .... ....
....|..|A#3 3F5A ....|A#3 UF5A ....|--- .... ....
....|..|--- .... ....|--- .... ....|--- .... ....
....|..|--- .... ....|D#4 2F.7 ....|--- .... ....
....|..|--- .... ....|R-- .... ....|--- .... ....
....|..|--- .... ....|--- .... ....|R-- .... ....
....|..|--- .... ....|--- .... ....|--- .... ....
....|..|A#3 3F57 ....|A#3 UF57 ....|--- .... ....
....|..|--- .... ....|--- .... ....|--- .... ....
....|..|--- .... ....|--- .... ....|--- .... ....
....|..|--- .... ....|--- .... ....|--- .... ....
....|..|--- .... ....|--- .... ....|A#4 3FFF ....
....|..|--- .... ....|--- .... ....|--- .... ....
....|..|--- .... ....|--- .... ....|--- .... ....
....|..|--- .... ....|--- .... ....|--- .... ....
....|..|--- .... ....|--- .... ....|--- .... ....
....|..|--- .... ....|--- .... ....|--- .... ....
....|..|--- .... ....|--- .... ....|A#4 3FFA ....
....|..|--- .... ....|--- .... ....|--- .... ....
....|..|--- .... ....|--- .... ....|--- .... ....
....|..|--- .... ....|--- .... ....|--- .... ....
....|..|--- .... ....|--- .... ....|--- .... ....
....|..|--- .... ....|--- .... ....|--- .... ....
....|..|--- .... ....|--- .... ....|A#4 3FF7 ....
....|..|--- .... ....|--- .... ....|--- .... ....
....|..|--- .... ....|--- .... ....|--- .... ....
....|..|--- .... ....|--- .... ....|--- .... ....

[Pattern30]
....|..|G-3 3F6F ....|G-3 UF6F ....|--- .... ....
....|..|--- .... ....|--- .... ....|--- .... ....
....|..|--- .... ....|--- .... ....|--- .... ....
....|..|--- .... ....|--- .... ....|--- .... ....
....|..|--- .... ....|--- .... ....|F-5 3FFF ....
....|..|--- .... ....|--- .... ....|--- .... ....
....|..|G-3 3F6A ....|G-3 UF6A ....|--- .... ....
....|..|--- .... ....|--- .... ....|--- .... ....
....|..|--- .... ....|--- .... ....|R-- .... ....
....|..|--- .... ....|--- .... ....|--- .... ....
....|..|--- .... ....|--- .... ....|F-5 3FFA ....
....|..|--- .... ....|--- .... ....|--- .... ....
....|..|G-3 3F67 ....|G-3 UF67 ....|F-5 3FFF ....
....|..|--- .... ....|--- .... ....|R-- .... ....
....|..|--- .... ....|--- .... ....|R-- .... ....
....|..|--- .... ....|--- .... ....|--- .... ....
....|..|--- .... ....|--- .... ....|F-5 3FFF ....
....|..|--- .... ....|--- .... ....|--- .... ....
....|..|--- .... ....|--- .... ....|F-5 3FFA ....
....|..|--- .... ....|--- .... ....|R-- .... ....
....|..|--- .... ....|--- .... ....|R-- .... ....
....|..|--- .... ....|--- .... ....|--- .... ....
....|..|--- .... ....|--- .... ....|F-5 3FFA ....
....|..|--- .... ....|--- .... ....|--- .... ....
....|..|--- .... ....|--- .... ....|F-5 3FF7 ....
....|..|--- .... ....|--- .... ....|R-- .... ....
....|..|--- .... ....|--- .... ....|--- .... ....
....|..|--- .... ....|--- .... ....|--- .... ....
....|..|--- .... ....|--- .... ....|F-5 3FF7 ....
....|..|--- .... ....|--- .... ....|--- .... ....
....|..|--- .... ....|--- .... ....|--- .... ....
....|..|--- .... ....|--- .... ....|--- .... ....
....|..|D-3 3F7F ....|D-3 UF7F ....|R-- .... ....
....|..|--- .... ....|--- .... ....|R-- .... ....
....|..|--- .... ....|--- .... ....|--- .... ....
....|..|--- .... ....|--- .... ....|--- .... ....
....|..|--- .... ....|--- .... ....|--- .... ....
....|..|--- .... ....|--- .... ....|--- .... ....
....|..|D-3 3F7A ....|D-3 UF7A ....|R-- .... ....
....|..|--- .... ....|--- .... ....|R-- .... ....
....|..|--- .... ....|--- .... ....|--- .... ....
....|..|--- .... ....|--- .... ....|--- .... ....
....|..|--- .... ....|--- .... ....|--- .... ....
....|..|--- .... ....|--- .... ....|--- .... ....
....|..|D-3 3F77 ....|D-3 UF77 ....|R-- .... ....
....|..|--- .... ....|--- .... ....|R-- .... ....
....|..|--- .... ....|--- .... ....|--- .... ....
....|..|--- .... ....|--- .... ....|--- .... ....
....|..|--- .... ....|--- .... ....|A#4 3FFF ....
....|..|--- .... ....|--- .... ....|--- .... ....
....|..|--- .... ....|--- .... ....|--- .... ....
....|..|--- .... ....|--- .... ....|--- .... ....
....|..|--- .... ....|--- .... ....|--- .... ....
....|..|--- .... ....|--- .... ....|--- .... ....
....|..|--- .... ....|--- .... ....|A#4 3FFA ....
....|..|--- .... ....|--- .... ....|--- .... ....
....|..|--- .... ....|--- .... ....|--- .... ....
....|..|--- .... ....|--- .... ....|--- .... ....
....|..|--- .... ....|--- .... ....|--- .... ....
....|..|--- .... ....|--- .... ....|--- .... ....
....|..|--- .... ....|--- .... ....|A#4 3FF7 ....
....|..|--- .... ....|--- .... ....|--- .... ....
....|..|--- .... ....|--- .... ....|--- .... ....
....|..|--- .... ....|--- .... ....|--- .... ....
....|..|D#3 3F8F ....|D#3 UF8F ....|--- .... ....
....|..|--- .... ....|--- .... ....|--- .... ....
....|..|--- .... ....|--- .... ....|--- .... ....
....|..|--- .... ....|--- .... ....|--- .... ....
....|..|--- .... ....|--- .... ....|D#5 3FFF ....
....|..|--- .... ....|--- .... ....|--- .... ....
....|..|D#3 3F8A ....|D#3 UF8A ....|R-- .... ....
....|..|--- .... ....|--- .... ....|--- .... ....
....|..|--- .... ....|--- .... ....|--- .... ....
....|..|--- .... ....|--- .... ....|--- .... ....
....|..|--- .... ....|--- .... ....|D#5 3FFA ....
....|..|--- .... ....|--- .... ....|--- .... ....
....|..|D#3 3F87 ....|D#3 UF87 ....|D#5 3FFF ....
....|..|--- .... ....|--- .... ....|R-- .... ....
....|..|--- .... ....|--- .... ....|--- .... ....
....|..|--- .... ....|--- .... ....|--- .... ....
....|..|--- .... ....|--- .... ....|D#5 3FFF ....
....|..|--- .... ....|--- .... ....|--- .... ....
....|..|--- .... ....|--- .... ....|D#5 3FFA ....
....|..|--- .... ....|--- .... ....|R-- .... ....
....|..|--- .... ....|--- .... ....|--- .... ....
....|..|--- .... ....|--- .... ....|--- .... ....
....|..|--- .... ....|--- .... ....|D#5 3FFA ....
....|..|--- .... ....|--- .... ....|--- .... ....
....|..|--- .... ....|--- .... ....|C-5 3FFF ....
....|..|--- .... ....|--- .... ....|R-- .... ....
....|..|--- .... ....|--- .... ....|--- .... ....
....|..|--- .... ....|--- .... ....|--- .... ....
....|..|--- .... ....|--- .... ....|D#5 3FF7 ....
....|..|--- .... ....|--- .... ....|--- .... ....
....|..|--- .... ....|--- .... ....|C-5 3FFA ....
....|..|--- .... ....|--- .... ....|--- .... ....
....|..|R-- .... ....|R-- .... ....|--- .... ....
....|..|--- .... ....|--- .... ....|--- .... ....
....|..|--- .... ....|--- .... ....|--- .... ....
....|..|--- .... ....|--- .... ....|--- .... ....
....|..|--- .... ....|--- .... ....|C-5 3FF7 ....
....|..|--- .... ....|--- .... ....|--- .... ....
....|..|R-- .... ....|R-- .... ....|--- .... ....
....|..|--- .... ....|--- .... ....|--- .... ....
....|..|--- .... ....|--- .... ....|--- .... ....
....|..|--- .... ....|--- .... ....|--- .... ....
....|..|--- .... ....|--- .... ....|R-- .... ....
....|..|--- .... ....|--- .... ....|--- .... ....

