[Module]
VortexTrackerII=0
Version=3.5
Title=4p,3m-6me-2p+,5me
Author=oisee ^ 4d 29.05.2010
NoteTable=4
ChipFreq=1750000
Speed=4
PlayOrder=L0,1,2,3,4,5,6,7,8,9,10,11,12,13,14,15,16,17,18,19,20,15,16,17,24,25


[Ornament1]
L0,0,4,4,7,7

[Ornament2]
L0,0,3,3

[Ornament3]
L0,0,5,5

[Ornament4]
L0,0,4,4

[Ornament5]
L0,0,2,2,4,4,7,7

[Ornament6]
L0,0,2,2,7,7

[Ornament7]
L0,0,5,5,7,7

[Ornament8]
L0,0,2,2,5,5

[Ornament9]
L0,0,4,4,5,5

[Ornament10]
L0,0,2,2

[Ornament11]
L0,0,5,5,9,9

[Ornament12]
L0,0,5,5,7,7,10,10

[Ornament13]
L0,0,2,2,5,5,7,7


[Sample1]
TnE +000_ +00_ F_
TnE +000_ +00_ F_
TnE +000_ +00_ F_
TnE +000_ +00_ D_
TnE +000_ +00_ B_
TnE +000_ +00_ B_ L

[Sample2]
TnE +000_ +00_ F_ L

[Sample3]
TnE +001_ +00_ F_
TnE +002_ +00_ F_
TnE +001_ +00_ E_
TnE +002_ +00_ E_
TnE +000_ +00_ E_ L
TnE -001_ +00_ E_
TnE -002_ +00_ E_
TnE -001_ +00_ E_
TnE +000_ +00_ E_
TnE +001_ +00_ E_
TnE +002_ +00_ E_
TnE +001_ +00_ E_

[Sample4]
TnE +002_ +00_ D_
TnE +002_ +00_ D_
TnE +002_ +00_ C_
TnE +002_ +00_ B_
TnE +002_ +00_ A_ L
TnE +002_ +00_ A_
TnE +002_ +00_ A_
TnE +002_ +00_ A_
TnE +002_ +00_ A_
TnE +002_ +00_ A_
TnE +002_ +00_ A_
TnE +002_ +00_ A_

[Sample5]
TnE +000_ +00_ F_
TnE +000_ +00_ F_
tne +000_ +00_ 0_ L

[Sample6]
TnE -001_ +00_ F_ L

[Sample7]
TnE +006_ +00_ F_ L

[Sample8]
tNe +000_ +00_ F_
tNe +000_ +00_ B_
tNe +000_ +00_ 7_
tNe +000_ +00_ 6- L

[Sample9]
TnE +080_ +00_ F_
TnE +100_ +00_ E_
TnE +180_ +00_ E_
TnE +200_ +00_ E_
TnE +240_ +00_ D_
TnE +280_ +00_ D_
TnE +2C0_ +00_ D_
TnE +300_ +00_ C_
TnE +300_ +00_ C_
TnE +340_ +00_ C_
TnE +340_ +00_ C_
TnE +380_ +00_ B_
TnE +380_ +00_ B_
TnE +400_ +00_ B_
TnE +400_ +00_ B_
TnE +480_ +00_ A_
TnE +500_ +00_ 9_
TnE +580_ +00_ 7_
TnE +600_ +00_ 4_
TnE +680_ +00_ 1_
TnE +000_ +00_ 0_ L

[Sample10]
Tne +1C0_ +00_ F_
Tne +280_ +00_ E_
Tne +380_ +00_ C_
Tne +440_ +00_ A_
Tne +480_ +00_ 8_
TnE +000_ +00_ 0_ L

[Sample11]
TNe +200_ -0A_ F_
tNe +000_ +0F_ A_
TNe +200_ -07_ E_
tNe +000_ +0E_ B- L

[Sample12]
TNE +0A0_ +05_ F_
TNE +140_ +02_ D_
TNE +140_ +02_ B_
TNE +100_ +00_ A_ L
TNE +140_ +00_ A_
TNE +200_ +00_ A-

[Sample13]
Tne +200_ +00_ F_
Tne +2C0_ +00_ F_
Tne +380_ +00_ E_
Tne +500_ +00_ C_
Tne +520_ +00_ 9_
tne +000_ +00_ 0_ L

[Sample14]
TNE -100_ +00_ F_
TNE -100_ +00_ D_
TNE -100_ +00_ A_
TNE -100_ +00_ 5_
tne +000_ +00_ 0_ L

[Sample15]
TNE -100_ +00_ 5_
TNE -100_ +00_ 8_
TNE -100_ +00_ B_
TNE -100_ +00_ F_
TNe -100_ +00_ 9- L

[Sample16]
TnE +000_ +00_ C_
TnE +000_ +00_ E_
TnE +000_ +00_ F_
TnE +000_ +00_ F_
TnE +000_ +00_ E_
TnE +000_ +00_ D_
TnE +000_ +00_ C_
TnE +000_ +00_ C_ L
TnE +001_ +00_ C_
TnE +002_ +00_ C_
TnE +003_ +00_ C_
TnE +001_ +00_ C_
TnE +000_ +00_ C_
TnE -001_ +00_ C_
TnE -002_ +00_ C_
TnE -003_ +00_ C_
TnE -001_ +00_ C_
TnE +000_ +00_ C_
TnE +000_ +00_ C_

[Sample17]
Tne +1C0_ +00_ F_
Tne +280_ +00_ D_
Tne +380_ +00_ 7_
TNE +000_ +00_ 0_ L

[Sample18]
TnE -00C_ +00_ 0_ L

[Sample19]
TNe +000_ +00_ F_
TNe +000_ +00_ C_
TNe +000_ +00_ 6_
TNe +000_ +01_ A- L

[Sample20]
TNE +140_ +00_ F_
tNE +000_ +00_ B- L

[Sample21]
tNE +000_ +00_ D_
tNE +000_ +00_ 8_
tNE +000_ +00_ 1_
TNE +000_ +00_ 0_ L

[Sample22]
TnE +000_ +00_ D_ L
TnE +000_ +00_ D_
tne +000_ +00_ 9_
tne +000_ +00_ 9_
TnE +000_ +00_ D_
TnE +000_ +00_ D_
tne +000_ +00_ 9_
tne +000_ +00_ 9_
TnE +000_ +00_ D_
TnE +000_ +00_ D_
TnE +000_ +00_ D_
TnE +000_ +00_ D_
TnE +000_ +00_ D_
TnE +000_ +00_ D_
tne +000_ +00_ 9_
tne +000_ +00_ 9_

[Sample23]
TnE +000_ +00_ F_ L
TnE +010_ +01_ F_
TnE +010_ +01_ F_
TnE +010_ +01_ F_
TnE +010_ +01_ F_
TnE +000_ +00_ F_
TnE +000_ +00_ F_
TnE -010_ -01_ F_
TnE -010_ -01_ F_
TnE -010_ -01_ F_
TnE -010_ -01_ F_
TnE +000_ +00_ F_

[Sample24]
TNe +000_ -01_ C_
TNe +000_ -01_ D_
TNe +000_ -01_ E_
TNe +000_ -01_ F_
TNe +000_ -01_ F_
TNe +000_ -01_ F_
TNe +000_ -01_ F_
TNe +000_ -01_ F_
TNe +000_ -01_ E_
TNe +000_ -01_ E_
TNe +000_ -01_ E_
TNe +000_ -01_ F_
TNe +000_ -01_ F_ L

[Sample25]
TNE +000_ +00_ F_
TNE +000_ +00_ F_ L
TNE +000_ +00_ F_
TNE +000_ +00_ F_
TNE +000_ +00_ F-

[Sample26]
tne +000_ +00_ 0_ L

[Sample27]
TnE +100_ +05_ F_
TnE +200_ +02_ A_
TnE +300_ +02_ 7_
TNE +400_ +00_ 3- L

[Sample28]
tne +000_ +00_ 0_ L

[Sample29]
tnE +000_ +00_ 0_ L

[Sample30]
TNE +000_ +00_ C+ L

[Sample31]
TNe +1C0_ +00_ F_
Tne +280_ +00_ E_
Tne +380_ +00_ C_
Tne +440_ +00_ A_
Tne +480_ +00_ 8_
TnE +000_ +00_ 0_ L

[Pattern0]
....|..|--- .... ....|E-5 2F.F ....|--- .... ....
....|..|--- .... ....|A-3 2F3F ....|--- .... ....
....|..|--- .... ....|B-5 2F.F ....|--- .... ....
....|..|--- .... ....|R-- .... ....|--- .... ....
....|..|--- .... ....|G-6 2F.F ....|--- .... ....
....|..|--- .... ....|R-- .... ....|--- .... ....
....|..|--- .... ....|E-5 2F.F ....|--- .... ....
....|..|--- .... ....|R-- .... ....|--- .... ....
....|..|--- .... ....|B-5 2F.F ....|--- .... ....
....|..|--- .... ....|R-- .... ....|--- .... ....
....|..|--- .... ....|G-6 2F.F ....|--- .... ....
....|..|--- .... ....|R-- .... ....|--- .... ....
....|..|--- .... ....|E-5 2F.F ....|--- .... ....
....|..|--- .... ....|R-- .... ....|--- .... ....
....|..|--- .... ....|B-5 2F.F ....|--- .... ....
....|..|--- .... ....|R-- .... ....|--- .... ....
....|..|--- .... ....|F#6 2F.F ....|--- .... ....
....|..|--- .... ....|R-- .... ....|--- .... ....
....|..|--- .... ....|E-5 2F.F ....|--- .... ....
....|..|--- .... ....|R-- .... ....|--- .... ....
....|..|--- .... ....|B-5 2F.F ....|--- .... ....
....|..|--- .... ....|R-- .... ....|--- .... ....
....|..|--- .... ....|F#6 2F.F ....|--- .... ....
....|..|--- .... ....|R-- .... ....|--- .... ....
....|..|--- .... ....|E-5 2F.F ....|--- .... ....
....|..|--- .... ....|A-3 2F37 ....|--- .... ....
....|..|--- .... ....|B-5 2F.F ....|--- .... ....
....|..|--- .... ....|R-- .... ....|--- .... ....
....|..|--- .... ....|D-6 2F.F ....|--- .... ....
....|..|--- .... ....|R-- .... ....|--- .... ....
....|..|--- .... ....|B-5 2F.F ....|--- .... ....
....|..|--- .... ....|A-3 2F.F ....|--- .... ....
....|..|--- .... ....|E-5 2F.F ....|--- .... ....
....|..|--- .... ....|R-- .... ....|--- .... ....
....|..|--- .... ....|B-5 2F.F ....|--- .... ....
....|..|--- .... ....|R-- .... ....|--- .... ....
....|..|--- .... ....|D-6 2F.F ....|--- .... ....
....|..|--- .... ....|R-- .... ....|--- .... ....
....|..|--- .... ....|E-5 2F.F ....|--- .... ....
....|..|--- .... ....|R-- .... ....|--- .... ....
....|..|--- .... ....|B-5 2F.F ....|--- .... ....
....|..|--- .... ....|R-- .... ....|--- .... ....
....|..|--- .... ....|D-6 2F.F ....|--- .... ....
....|..|--- .... ....|R-- .... ....|--- .... ....
....|..|--- .... ....|E-5 2F.F ....|--- .... ....
....|..|--- .... ....|R-- .... ....|--- .... ....
....|..|--- .... ....|B-5 2F.F ....|--- .... ....
....|..|--- .... ....|R-- .... ....|--- .... ....
....|..|--- .... ....|E-6 2F.F ....|--- .... ....
....|..|--- .... ....|R-- .... ....|--- .... ....
....|..|--- .... ....|E-5 2F.F ....|--- .... ....
....|..|--- .... ....|R-- .... ....|--- .... ....
....|..|--- .... ....|B-5 2F.F ....|--- .... ....
....|..|--- .... ....|R-- .... ....|--- .... ....
....|..|--- .... ....|E-6 2F.F ....|--- .... ....
....|..|--- .... ....|A-3 2F.7 ....|--- .... ....
....|..|--- .... ....|E-5 2F.F ....|--- .... ....
....|..|--- .... ....|R-- .... ....|--- .... ....
....|..|--- .... ....|B-5 2F.F ....|--- .... ....
....|..|--- .... ....|R-- .... ....|--- .... ....
....|..|--- .... ....|E-6 2F.F ....|--- .... ....
....|..|--- .... ....|R-- .... ....|--- .... ....
....|..|--- .... ....|E-5 2F.F ....|--- .... ....
....|..|--- .... ....|R-- .... ....|--- .... ....
....|..|--- .... ....|E-5 2F.F ....|--- .... ....
....|..|--- .... ....|A-3 2F6F ....|--- .... ....
....|..|--- .... ....|B-5 2F.F ....|--- .... ....
....|..|--- .... ....|R-- .... ....|--- .... ....
....|..|--- .... ....|E-6 2F.F ....|--- .... ....
....|..|--- .... ....|R-- .... ....|--- .... ....
....|..|--- .... ....|E-5 2F.F ....|--- .... ....
....|..|--- .... ....|R-- .... ....|--- .... ....
....|..|--- .... ....|B-5 2F.F ....|--- .... ....
....|..|--- .... ....|R-- .... ....|--- .... ....
....|..|--- .... ....|E-6 2F.F ....|--- .... ....
....|..|--- .... ....|R-- .... ....|--- .... ....
....|..|--- .... ....|E-5 2F.F ....|--- .... ....
....|..|--- .... ....|R-- .... ....|--- .... ....
....|..|--- .... ....|B-5 2F.F ....|--- .... ....
....|..|--- .... ....|R-- .... ....|--- .... ....
....|..|--- .... ....|E-6 2F.F ....|--- .... ....
....|..|--- .... ....|R-- .... ....|--- .... ....
....|..|--- .... ....|E-5 2F.F ....|--- .... ....
....|..|--- .... ....|R-- .... ....|--- .... ....
....|..|--- .... ....|B-5 2F.F ....|--- .... ....
....|..|--- .... ....|R-- .... ....|--- .... ....
....|..|--- .... ....|E-6 2F.F ....|--- .... ....
....|..|--- .... ....|R-- .... ....|--- .... ....
....|..|--- .... ....|E-5 2F.F ....|--- .... ....
....|..|--- .... ....|A-3 2F67 ....|--- .... ....
....|..|--- .... ....|B-5 2F.F ....|--- .... ....
....|..|--- .... ....|R-- .... ....|--- .... ....
....|..|--- .... ....|E-6 2F.F ....|--- .... ....
....|..|--- .... ....|R-- .... ....|--- .... ....
....|..|--- .... ....|B-5 2F.F ....|--- .... ....
....|..|--- .... ....|R-- .... ....|--- .... ....
....|..|--- .... ....|E-5 2F.F ....|--- .... ....
....|..|--- .... ....|R-- .... ....|--- .... ....
....|..|--- .... ....|B-5 2F.F ....|--- .... ....
....|..|--- .... ....|R-- .... ....|--- .... ....
....|..|--- .... ....|E-6 2F.F ....|--- .... ....
....|..|--- .... ....|R-- .... ....|--- .... ....
....|..|--- .... ....|E-5 2F.F ....|--- .... ....
....|..|--- .... ....|R-- .... ....|--- .... ....
....|..|--- .... ....|B-5 2F.F ....|--- .... ....
....|..|--- .... ....|R-- .... ....|--- .... ....
....|..|--- .... ....|E-6 2F.F ....|--- .... ....
....|..|--- .... ....|R-- .... ....|--- .... ....
....|..|--- .... ....|E-5 2F.F ....|--- .... ....
....|..|--- .... ....|R-- .... ....|--- .... ....
....|..|--- .... ....|B-5 2F.F ....|--- .... ....
....|..|--- .... ....|R-- .... ....|--- .... ....
....|..|--- .... ....|E-6 2F.F ....|--- .... ....
....|..|--- .... ....|R-- .... ....|--- .... ....
....|..|--- .... ....|E-5 2F.F ....|--- .... ....
....|..|--- .... ....|R-- .... ....|--- .... ....
....|..|--- .... ....|B-5 2F.F ....|--- .... ....
....|..|--- .... ....|R-- .... ....|--- .... ....
....|..|--- .... ....|E-6 2F.F ....|--- .... ....
....|..|--- .... ....|R-- .... ....|--- .... ....
....|..|--- .... ....|E-5 2F.F ....|--- .... ....
....|..|--- .... ....|R-- .... ....|--- .... ....
....|..|--- .... ....|B-5 2F.F ....|--- .... ....
....|..|--- .... ....|R-- .... ....|--- .... ....
....|..|--- .... ....|E-6 2F.F ....|--- .... ....
....|..|--- .... ....|R-- .... ....|--- .... ....
....|..|--- .... ....|B-5 2F.F ....|--- .... ....
....|..|--- .... ....|R-- .... ....|--- .... ....

[Pattern1]
....|..|--- .... ....|E-5 2F.F ....|--- .... ....
....|..|--- .... ....|A-3 2F3F ....|--- .... ....
....|..|--- .... ....|B-5 2F.F ....|--- .... ....
....|..|--- .... ....|R-- .... ....|--- .... ....
....|..|--- .... ....|G-6 2F.F ....|--- .... ....
....|..|--- .... ....|R-- .... ....|--- .... ....
....|..|--- .... ....|E-5 2F.F ....|--- .... ....
....|..|--- .... ....|R-- .... ....|--- .... ....
....|..|--- .... ....|B-5 2F.F ....|--- .... ....
....|..|--- .... ....|R-- .... ....|--- .... ....
....|..|--- .... ....|G-6 2F.F ....|--- .... ....
....|..|--- .... ....|R-- .... ....|--- .... ....
....|..|--- .... ....|E-5 2F.F ....|--- .... ....
....|..|--- .... ....|R-- .... ....|--- .... ....
....|..|--- .... ....|B-5 2F.F ....|--- .... ....
....|..|--- .... ....|R-- .... ....|--- .... ....
....|..|--- .... ....|F#6 2F.F ....|--- .... ....
....|..|--- .... ....|R-- .... ....|--- .... ....
....|..|--- .... ....|E-5 2F.F ....|--- .... ....
....|..|--- .... ....|R-- .... ....|--- .... ....
....|..|--- .... ....|B-5 2F.F ....|--- .... ....
....|..|--- .... ....|R-- .... ....|--- .... ....
....|..|--- .... ....|F#6 2F.F ....|--- .... ....
....|..|--- .... ....|R-- .... ....|--- .... ....
....|..|--- .... ....|E-5 2F.F ....|--- .... ....
....|..|--- .... ....|A-3 2F37 ....|--- .... ....
....|..|--- .... ....|B-5 2F.F ....|--- .... ....
....|..|--- .... ....|R-- .... ....|--- .... ....
....|..|--- .... ....|D-6 2F.F ....|--- .... ....
....|..|--- .... ....|R-- .... ....|--- .... ....
....|..|--- .... ....|B-5 2F.F ....|--- .... ....
....|..|--- .... ....|R-- .... ....|--- .... ....
....|..|--- .... ....|E-5 2F.F ....|--- .... ....
....|..|--- .... ....|R-- .... ....|--- .... ....
....|..|--- .... ....|B-5 2F.F ....|--- .... ....
....|..|--- .... ....|R-- .... ....|--- .... ....
....|..|--- .... ....|D-6 2F.F ....|--- .... ....
....|..|--- .... ....|R-- .... ....|--- .... ....
....|..|--- .... ....|E-5 2F.F ....|--- .... ....
....|..|--- .... ....|R-- .... ....|--- .... ....
....|..|--- .... ....|B-5 2F.F ....|--- .... ....
....|..|--- .... ....|R-- .... ....|--- .... ....
....|..|--- .... ....|D-6 2F.F ....|--- .... ....
....|..|--- .... ....|R-- .... ....|--- .... ....
....|..|--- .... ....|E-5 2F.F ....|--- .... ....
....|..|--- .... ....|R-- .... ....|--- .... ....
....|..|--- .... ....|B-5 2F.F ....|--- .... ....
....|..|--- .... ....|R-- .... ....|--- .... ....
....|..|--- .... ....|E-6 2F.F ....|--- .... ....
....|..|--- .... ....|R-- .... ....|--- .... ....
....|..|--- .... ....|E-5 2F.F ....|--- .... ....
....|..|--- .... ....|R-- .... ....|--- .... ....
....|..|--- .... ....|B-5 2F.F ....|--- .... ....
....|..|--- .... ....|R-- .... ....|--- .... ....
....|..|--- .... ....|E-6 2F.F ....|--- .... ....
....|..|--- .... ....|R-- .... ....|--- .... ....
....|..|--- .... ....|E-5 2F.F ....|--- .... ....
....|..|--- .... ....|R-- .... ....|--- .... ....
....|..|--- .... ....|B-5 2F.F ....|--- .... ....
....|..|--- .... ....|R-- .... ....|--- .... ....
....|..|--- .... ....|E-6 2F.F ....|--- .... ....
....|..|--- .... ....|R-- .... ....|--- .... ....
....|..|--- .... ....|E-5 2F.F ....|--- .... ....
....|..|--- .... ....|R-- .... ....|--- .... ....
....|..|--- .... ....|E-5 2F.F ....|--- .... ....
....|..|--- .... ....|B-3 2F3F ....|--- .... ....
....|..|--- .... ....|B-5 2F.F ....|--- .... ....
....|..|--- .... ....|R-- .... ....|--- .... ....
....|..|--- .... ....|E-6 2F.F ....|--- .... ....
....|..|--- .... ....|R-- .... ....|--- .... ....
....|..|--- .... ....|E-5 2F.F ....|--- .... ....
....|..|--- .... ....|R-- .... ....|--- .... ....
....|..|--- .... ....|B-5 2F.F ....|--- .... ....
....|..|--- .... ....|R-- .... ....|--- .... ....
....|..|--- .... ....|E-6 2F.F ....|--- .... ....
....|..|--- .... ....|R-- .... ....|--- .... ....
....|..|--- .... ....|E-5 2F.F ....|--- .... ....
....|..|--- .... ....|R-- .... ....|--- .... ....
....|..|--- .... ....|B-5 2F.F ....|--- .... ....
....|..|--- .... ....|R-- .... ....|--- .... ....
....|..|--- .... ....|E-6 2F.F ....|--- .... ....
....|..|--- .... ....|R-- .... ....|--- .... ....
....|..|--- .... ....|E-5 2F.F ....|--- .... ....
....|..|--- .... ....|R-- .... ....|--- .... ....
....|..|--- .... ....|B-5 2F.F ....|--- .... ....
....|..|--- .... ....|R-- .... ....|--- .... ....
....|..|--- .... ....|E-6 2F.F ....|--- .... ....
....|..|--- .... ....|R-- .... ....|--- .... ....
....|..|--- .... ....|E-5 2F.F ....|--- .... ....
....|..|--- .... ....|B-3 2F37 ....|--- .... ....
....|..|--- .... ....|B-5 2F.F ....|--- .... ....
....|..|--- .... ....|R-- .... ....|--- .... ....
....|..|--- .... ....|E-6 2F.F ....|--- .... ....
....|..|--- .... ....|R-- .... ....|--- .... ....
....|..|--- .... ....|B-5 2F.F ....|--- .... ....
....|..|--- .... ....|R-- .... ....|--- .... ....
....|..|--- .... ....|E-5 2F.F ....|--- .... ....
....|..|--- .... ....|R-- .... ....|--- .... ....
....|..|--- .... ....|B-5 2F.F ....|--- .... ....
....|..|--- .... ....|R-- .... ....|--- .... ....
....|..|--- .... ....|E-6 2F.F ....|--- .... ....
....|..|--- .... ....|R-- .... ....|--- .... ....
....|..|--- .... ....|E-5 2F.F ....|--- .... ....
....|..|--- .... ....|R-- .... ....|--- .... ....
....|..|--- .... ....|B-5 2F.F ....|--- .... ....
....|..|--- .... ....|R-- .... ....|--- .... ....
....|..|--- .... ....|E-6 2F.F ....|--- .... ....
....|..|--- .... ....|R-- .... ....|--- .... ....
....|..|--- .... ....|E-5 2F.F ....|--- .... ....
....|..|--- .... ....|R-- .... ....|--- .... ....
....|..|--- .... ....|B-5 2F.F ....|--- .... ....
....|..|--- .... ....|R-- .... ....|--- .... ....
....|..|--- .... ....|E-6 2F.F ....|--- .... ....
....|..|--- .... ....|R-- .... ....|--- .... ....
....|..|--- .... ....|E-5 2F.F ....|--- .... ....
....|..|--- .... ....|R-- .... ....|--- .... ....
....|..|--- .... ....|B-5 2F.F ....|--- .... ....
....|..|--- .... ....|R-- .... ....|--- .... ....
....|..|--- .... ....|E-6 2F.F ....|--- .... ....
....|..|--- .... ....|R-- .... ....|--- .... ....
....|..|--- .... ....|E-5 2F.F ....|--- .... ....
....|..|--- .... ....|R-- .... ....|--- .... ....
....|..|--- .... ....|B-5 2F.F ....|--- .... ....
....|..|--- .... ....|R-- .... ....|--- .... ....
....|..|--- .... ....|E-6 2F.F ....|--- .... ....
....|..|--- .... ....|R-- .... ....|--- .... ....
....|..|--- .... ....|B-5 2F.F ....|--- .... ....
....|..|--- .... ....|R-- .... ....|--- .... ....

[Pattern2]
 D-4|..|D-4 2F1F ....|E-5 2F.F ....|D-4 2C.F ....
....|..|--- .... ....|R-- .... ....|--- .... ....
....|..|--- .... ....|B-5 2F.F ....|--- .... ....
....|..|--- .... ....|R-- .... ....|--- .... ....
....|..|--- .... ....|G-6 2F.F ....|--- .... ....
....|..|--- .... ....|R-- .... ....|--- .... ....
....|..|--- .... ....|E-5 2F.F ....|--- .... ....
....|..|--- .... ....|R-- .... ....|--- .... ....
....|..|--- .... ....|B-5 2F.F ....|--- .... ....
....|..|--- .... ....|R-- .... ....|--- .... ....
....|..|--- .... ....|G-6 2F.F ....|--- .... ....
....|..|--- .... ....|R-- .... ....|--- .... ....
....|..|D-4 2F1A ....|E-5 2F.F ....|D-4 2F.A ....
....|..|--- .... ....|R-- .... ....|--- .... ....
....|..|--- .... ....|B-5 2F.F ....|--- .... ....
....|..|--- .... ....|R-- .... ....|--- .... ....
....|..|--- .... ....|F#6 2F.F ....|--- .... ....
....|..|--- .... ....|R-- .... ....|--- .... ....
....|..|--- .... ....|E-5 2F.F ....|--- .... ....
....|..|--- .... ....|R-- .... ....|--- .... ....
 D-4|..|--- .... ....|B-5 2F.F ....|D-4 2C.F ....
 D-4|..|--- .... ....|R-- .... ....|D-4 2C.F ....
....|..|--- .... ....|F#6 2F.F ....|--- .... ....
....|..|--- .... ....|R-- .... ....|--- .... ....
 D-4|..|D-4 2F17 ....|E-5 2F.F ....|D-4 2C.F ....
....|..|--- .... ....|R-- .... ....|--- .... ....
....|..|--- .... ....|B-5 2F.F ....|--- .... ....
....|..|--- .... ....|R-- .... ....|--- .... ....
 D-4|..|--- .... ....|D-6 2F.F ....|D-4 2C.F ....
 D-4|..|--- .... ....|R-- .... ....|D-4 2C.F ....
....|..|--- .... ....|B-5 2F.F ....|--- .... ....
....|..|--- .... ....|R-- .... ....|--- .... ....
 C#4|..|C#4 2F2F ....|E-5 2F.F ....|C#4 2C.F ....
....|..|--- .... ....|R-- .... ....|D-4 2F.A ....
....|..|--- .... ....|B-5 2F.F ....|--- .... ....
....|..|--- .... ....|R-- .... ....|--- .... ....
....|..|--- .... ....|D-6 2F.F ....|D-4 2F.A ....
....|..|--- .... ....|R-- .... ....|--- .... ....
....|..|--- .... ....|E-5 2F.F ....|--- .... ....
....|..|--- .... ....|R-- .... ....|--- .... ....
....|..|--- .... ....|B-5 2F.F ....|D-4 2F.A ....
....|..|--- .... ....|R-- .... ....|D-4 2F.A ....
....|..|--- .... ....|D-6 2F.F ....|--- .... ....
....|..|--- .... ....|R-- .... ....|--- .... ....
....|..|C#4 2F2A ....|E-5 2F.F ....|D-4 2F.7 ....
....|..|--- .... ....|R-- .... ....|D-4 2F.7 ....
....|..|--- .... ....|B-5 2F.F ....|--- .... ....
....|..|--- .... ....|R-- .... ....|--- .... ....
....|..|--- .... ....|E-6 2F.F ....|D-4 2F.7 ....
....|..|--- .... ....|R-- .... ....|--- .... ....
....|..|--- .... ....|E-5 2F.F ....|--- .... ....
....|..|--- .... ....|R-- .... ....|--- .... ....
 C#4|..|--- .... ....|B-5 2F.F ....|C#4 2C.F ....
....|..|--- .... ....|R-- .... ....|D-4 2F.7 ....
....|..|--- .... ....|E-6 2F.F ....|--- .... ....
....|..|--- .... ....|R-- .... ....|--- .... ....
 G-4|..|E-4 2F.F ....|E-5 2F.F ....|G-3 2C.F ....
....|..|--- .... ....|R-- .... ....|--- .... ....
....|..|--- .... ....|B-5 2F.F ....|--- .... ....
....|..|--- .... ....|R-- .... ....|--- .... ....
 E-4|..|--- .... ....|E-6 2F.F ....|E-3 2C.F ....
....|..|--- .... ....|R-- .... ....|R-- .... ....
....|..|--- .... ....|E-5 2F.F ....|--- .... ....
....|..|--- .... ....|R-- .... ....|--- .... ....
 B-5|..|E-4 2F1F ....|E-5 2F.F ....|B-3 2C.F ....
....|..|--- .... ....|R-- .... ....|--- .... ....
....|..|--- .... ....|B-5 2F.F ....|--- .... ....
....|..|--- .... ....|R-- .... ....|--- .... ....
....|..|E-4 2F.A ....|E-6 2F.F ....|G-3 2F.A ....
....|..|--- .... ....|R-- .... ....|--- .... ....
....|..|--- .... ....|E-5 2F.F ....|--- .... ....
....|..|--- .... ....|R-- .... ....|--- .... ....
....|..|--- .... ....|B-5 2F.F ....|E-3 2F.A ....
....|..|--- .... ....|R-- .... ....|R-- .... ....
....|..|--- .... ....|E-6 2F.F ....|--- .... ....
....|..|--- .... ....|R-- .... ....|--- .... ....
....|..|E-4 2F1A ....|E-5 2F.F ....|C#4 2F.7 ....
....|..|--- .... ....|R-- .... ....|--- .... ....
....|..|--- .... ....|B-5 2F.F ....|--- .... ....
....|..|--- .... ....|R-- .... ....|--- .... ....
....|..|E-4 2F.7 ....|E-6 2F.F ....|G-3 2F.7 ....
....|..|--- .... ....|R-- .... ....|--- .... ....
 G-4|..|--- .... ....|E-5 2F.F ....|G-3 2C.F ....
....|..|--- .... ....|R-- .... ....|R-- .... ....
 G-4|..|--- .... ....|B-5 2F.F ....|G-3 2C.F ....
....|..|--- .... ....|R-- .... ....|R-- .... ....
 G-4|..|--- .... ....|E-6 2F.F ....|G-3 2C.F ....
....|..|--- .... ....|R-- .... ....|--- .... ....
 G-4|..|B-4 2F.F ....|E-5 2F.F ....|G-3 2C.F ....
....|..|--- .... ....|R-- .... ....|--- .... ....
 F#4|..|--- .... ....|B-5 2F.F ....|F#3 2C.F ....
....|..|--- .... ....|R-- .... ....|--- .... ....
 E-4|..|--- .... ....|E-6 2F.F ....|E-3 2C.F ....
....|..|--- .... ....|R-- .... ....|R-- .... ....
....|..|--- .... ....|B-5 2F.F ....|G-3 2F.A ....
....|..|--- .... ....|R-- .... ....|R-- .... ....
 B-5|..|E-4 2F1F ....|E-5 2F.F ....|B-3 2C.F ....
....|..|--- .... ....|R-- .... ....|R-- .... ....
....|..|--- .... ....|B-5 2F.F ....|G-3 2F.A ....
....|..|--- .... ....|R-- .... ....|--- .... ....
....|..|B-4 2F.A ....|E-6 2F.F ....|G-3 2F.A ....
....|..|--- .... ....|R-- .... ....|--- .... ....
....|..|--- .... ....|E-5 2F.F ....|F#3 2F.A ....
....|..|--- .... ....|R-- .... ....|--- .... ....
....|..|--- .... ....|B-5 2F.F ....|R-- .... ....
....|..|--- .... ....|R-- .... ....|R-- .... ....
....|..|--- .... ....|E-6 2F.F ....|G-3 2F.7 ....
....|..|--- .... ....|R-- .... ....|R-- .... ....
....|..|E-4 2F1A ....|E-5 2F.F ....|G-3 2F.7 ....
....|..|--- .... ....|R-- .... ....|R-- .... ....
....|..|--- .... ....|B-5 2F.F ....|G-3 2F.7 ....
....|..|--- .... ....|R-- .... ....|--- .... ....
....|..|B-4 2F.7 ....|E-6 2F.F ....|G-3 2F.7 ....
....|..|--- .... ....|R-- .... ....|--- .... ....
....|..|--- .... ....|E-5 2F.F ....|F#3 2F.7 ....
....|..|--- .... ....|R-- .... ....|--- .... ....
....|..|--- .... ....|B-5 2F.F ....|E-3 2F.7 ....
 B-5|..|--- .... ....|R-- .... ....|B-3 2C.F ....
....|..|--- .... ....|E-6 2F.F ....|R-- .... ....
....|..|--- .... ....|R-- .... ....|--- .... ....
 G-4|..|E-4 2F17 ....|E-5 2F.F ....|G-3 2C.F ....
....|..|--- .... ....|R-- .... ....|--- .... ....
....|..|--- .... ....|B-5 2F.F ....|--- .... ....
....|..|--- .... ....|R-- .... ....|--- .... ....
 E-4|..|--- .... ....|E-6 2F.F ....|E-3 2C.F ....
....|..|--- .... ....|R-- .... ....|--- .... ....
....|..|--- .... ....|B-5 2F.F ....|R-- .... ....
....|..|--- .... ....|R-- .... ....|--- .... ....

[Pattern3]
 D-4|..|D-4 2F1F ....|E-5 2F.F ....|D-4 2C.F ....
....|..|--- .... ....|A-3 2F3F ....|B-3 2F.A ....
....|..|--- .... ....|B-5 2F.F ....|R-- .... ....
....|..|--- .... ....|R-- .... ....|--- .... ....
....|..|--- .... ....|G-6 2F.F ....|G-3 2F.A ....
....|..|--- .... ....|R-- .... ....|--- .... ....
....|..|--- .... ....|E-5 2F.F ....|--- .... ....
....|..|--- .... ....|R-- .... ....|--- .... ....
....|..|--- .... ....|B-5 2F.F ....|E-3 2F.A ....
....|..|--- .... ....|R-- .... ....|--- .... ....
....|..|--- .... ....|G-6 2F.F ....|R-- .... ....
....|..|--- .... ....|R-- .... ....|--- .... ....
....|..|D-4 2F1A ....|E-5 2F.F ....|D-4 2F.A ....
....|..|--- .... ....|R-- .... ....|B-3 2F.7 ....
....|..|--- .... ....|B-5 2F.F ....|R-- .... ....
....|..|--- .... ....|R-- .... ....|--- .... ....
....|..|--- .... ....|F#6 2F.F ....|G-3 2F.7 ....
....|..|--- .... ....|R-- .... ....|--- .... ....
....|..|--- .... ....|E-5 2F.F ....|--- .... ....
....|..|--- .... ....|R-- .... ....|--- .... ....
....|..|--- .... ....|B-5 2F.F ....|E-3 2F.7 ....
 D-4|..|--- .... ....|R-- .... ....|D-4 2C.F ....
....|..|--- .... ....|F#6 2F.F ....|R-- .... ....
....|..|--- .... ....|R-- .... ....|--- .... ....
 D-4|..|D-4 2F17 ....|E-5 2F.F ....|D-4 2C.F ....
....|..|--- .... ....|A-3 2F37 ....|--- .... ....
....|..|--- .... ....|B-5 2F.F ....|--- .... ....
....|..|--- .... ....|R-- .... ....|--- .... ....
 D-4|..|--- .... ....|D-6 2F.F ....|D-4 2C.F ....
 D-4|..|--- .... ....|R-- .... ....|D-4 2C.F ....
....|..|--- .... ....|B-5 2F.F ....|--- .... ....
....|..|--- .... ....|R-- .... ....|--- .... ....
 C#4|..|C#4 2F.F ....|E-5 2F.F ....|C#4 2C.F ....
....|..|--- .... ....|A-3 2F4F ....|D-4 2F.A ....
....|..|--- .... ....|B-5 2F.F ....|--- .... ....
....|..|--- .... ....|R-- .... ....|--- .... ....
....|..|--- .... ....|D-6 2F.F ....|D-4 2F.A ....
....|..|--- .... ....|R-- .... ....|--- .... ....
....|..|--- .... ....|E-5 2F.F ....|--- .... ....
....|..|--- .... ....|R-- .... ....|--- .... ....
....|..|--- .... ....|B-5 2F.F ....|D-4 2F.A ....
....|..|--- .... ....|R-- .... ....|D-4 2F.A ....
....|..|--- .... ....|D-6 2F.F ....|--- .... ....
....|..|--- .... ....|R-- .... ....|--- .... ....
....|..|C#4 2F.A ....|E-5 2F.F ....|C#4 2F.A ....
....|..|--- .... ....|R-- .... ....|D-4 2F.7 ....
....|..|--- .... ....|B-5 2F.F ....|--- .... ....
....|..|--- .... ....|R-- .... ....|--- .... ....
....|..|--- .... ....|E-6 2F.F ....|D-4 2F.7 ....
....|..|--- .... ....|R-- .... ....|--- .... ....
....|..|--- .... ....|E-5 2F.F ....|--- .... ....
....|..|--- .... ....|R-- .... ....|--- .... ....
....|..|--- .... ....|B-5 2F.F ....|D-4 2F.7 ....
 C#4|..|--- .... ....|R-- .... ....|C#4 2C.F ....
....|..|--- .... ....|E-6 2F.F ....|--- .... ....
....|..|--- .... ....|R-- .... ....|--- .... ....
 G-4|..|C#4 2F.7 ....|E-5 2F.F ....|G-3 2C.F ....
....|..|--- .... ....|A-3 2F47 ....|--- .... ....
....|..|--- .... ....|B-5 2F.F ....|--- .... ....
....|..|--- .... ....|R-- .... ....|--- .... ....
 E-4|..|--- .... ....|E-6 2F.F ....|E-3 2C.F ....
....|..|--- .... ....|R-- .... ....|R-- .... ....
....|..|--- .... ....|E-5 2F.F ....|--- .... ....
....|..|--- .... ....|R-- .... ....|--- .... ....
 B-5|..|E-4 2F1F ....|E-5 2F.F ....|B-3 2C.F ....
....|..|--- .... ....|R-- .... ....|C#4 2F.A ....
....|..|--- .... ....|B-5 2F.F ....|--- .... ....
....|..|--- .... ....|R-- .... ....|--- .... ....
....|..|R-- .... ....|E-6 2F.F ....|G-3 2F.A ....
....|..|--- .... ....|R-- .... ....|--- .... ....
....|..|--- .... ....|E-5 2F.F ....|--- .... ....
....|..|--- .... ....|R-- .... ....|--- .... ....
....|..|--- .... ....|B-5 2F.F ....|E-3 2F.A ....
....|..|--- .... ....|R-- .... ....|R-- .... ....
....|..|--- .... ....|E-6 2F.F ....|--- .... ....
....|..|--- .... ....|R-- .... ....|--- .... ....
....|..|E-4 2F1A ....|E-5 2F.F ....|B-3 2F.A ....
....|..|--- .... ....|R-- .... ....|C#4 2F.7 ....
....|..|--- .... ....|B-5 2F.F ....|--- .... ....
....|..|--- .... ....|R-- .... ....|--- .... ....
 B-5|..|R-- .... ....|E-6 2F.F ....|B-3 2C.F ....
 G-4|..|--- .... ....|R-- .... ....|G-3 2C.F ....
....|..|--- .... ....|E-5 2F.F ....|R-- .... ....
....|..|--- .... ....|R-- .... ....|--- .... ....
 G-4|..|--- .... ....|B-5 2F.F ....|G-3 2C.F ....
....|..|--- .... ....|R-- .... ....|R-- .... ....
 G-4|..|--- .... ....|E-6 2F.F ....|G-3 2C.F ....
....|..|--- .... ....|R-- .... ....|--- .... ....
 G-4|..|E-4 2F17 ....|E-5 2F.F ....|G-3 2C.F ....
....|..|--- .... ....|R-- .... ....|--- .... ....
 F#4|..|--- .... ....|B-5 2F.F ....|F#3 2C.F ....
....|..|--- .... ....|R-- .... ....|--- .... ....
 E-4|..|--- .... ....|E-6 2F.F ....|E-3 2C.F ....
....|..|--- .... ....|R-- .... ....|R-- .... ....
....|..|--- .... ....|B-5 2F.F ....|R-- .... ....
....|..|--- .... ....|R-- .... ....|--- .... ....
 B-5|..|E-4 2F1F ....|E-5 2F.F ....|B-3 2C.F ....
....|..|--- .... ....|R-- .... ....|--- .... ....
....|..|--- .... ....|B-5 2F.F ....|G-3 2F.A ....
....|..|--- .... ....|R-- .... ....|--- .... ....
....|..|--- .... ....|E-6 2F.F ....|G-3 2F.A ....
....|..|--- .... ....|R-- .... ....|--- .... ....
....|..|--- .... ....|E-5 2F.F ....|F#3 2F.A ....
....|..|--- .... ....|R-- .... ....|--- .... ....
....|..|--- .... ....|B-5 2F.F ....|B-3 2F.7 ....
....|..|--- .... ....|R-- .... ....|G-3 2F.7 ....
....|..|--- .... ....|E-6 2F.F ....|R-- .... ....
....|..|--- .... ....|R-- .... ....|--- .... ....
....|..|E-4 2F1A ....|E-5 2F.F ....|G-3 2F.7 ....
....|..|--- .... ....|R-- .... ....|--- .... ....
....|..|--- .... ....|B-5 2F.F ....|G-3 2F.7 ....
....|..|--- .... ....|R-- .... ....|--- .... ....
....|..|--- .... ....|E-6 2F.F ....|G-3 2F.7 ....
....|..|--- .... ....|R-- .... ....|--- .... ....
....|..|--- .... ....|E-5 2F.F ....|F#3 2F.7 ....
....|..|--- .... ....|R-- .... ....|--- .... ....
....|..|--- .... ....|B-5 2F.F ....|E-3 2F.7 ....
....|..|--- .... ....|R-- .... ....|R-- .... ....
....|..|--- .... ....|E-6 2F.F ....|--- .... ....
....|..|--- .... ....|R-- .... ....|R-- .... ....
 G-4|..|E-4 2F17 ....|E-5 2F.F ....|G-3 2C.F ....
....|..|--- .... ....|R-- .... ....|--- .... ....
....|..|--- .... ....|B-5 2F.F ....|--- .... ....
....|..|--- .... ....|R-- .... ....|--- .... ....
 E-4|..|--- .... ....|E-6 2F.F ....|E-3 2C.F ....
....|..|--- .... ....|R-- .... ....|--- .... ....
....|..|--- .... ....|B-5 2F.F ....|R-- .... ....
....|..|--- .... ....|R-- .... ....|--- .... ....

[Pattern4]
 D-4|..|D-4 2F1F ....|E-5 2F.F ....|D-4 2C.F ....
....|..|--- .... ....|A-3 2F3F ....|--- .... ....
....|..|--- .... ....|B-5 2F.F ....|--- .... ....
....|..|--- .... ....|R-- .... ....|R-- .... ....
....|..|R-- .... ....|G-6 2F.F ....|G-3 2F.A ....
....|..|--- .... ....|R-- .... ....|--- .... ....
....|..|--- .... ....|E-5 2F.F ....|--- .... ....
....|..|--- .... ....|R-- .... ....|--- .... ....
....|..|--- .... ....|B-5 2F.F ....|E-3 2F.A ....
....|..|--- .... ....|R-- .... ....|--- .... ....
....|..|--- .... ....|G-6 2F.F ....|R-- .... ....
....|..|--- .... ....|R-- .... ....|--- .... ....
....|..|D-4 2F1A ....|E-5 2F.F ....|D-4 2F.A ....
....|..|--- .... ....|R-- .... ....|--- .... ....
....|..|--- .... ....|B-5 2F.F ....|--- .... ....
....|..|--- .... ....|R-- .... ....|R-- .... ....
....|..|R-- .... ....|F#6 2F.F ....|G-3 2F.7 ....
....|..|--- .... ....|R-- .... ....|--- .... ....
....|..|--- .... ....|E-5 2F.F ....|--- .... ....
....|..|--- .... ....|R-- .... ....|--- .... ....
....|..|--- .... ....|B-5 2F.F ....|E-3 2F.7 ....
 D-4|..|--- .... ....|R-- .... ....|D-4 2C.F ....
....|..|--- .... ....|F#6 2F.F ....|R-- .... ....
....|..|--- .... ....|R-- .... ....|--- .... ....
 D-4|..|D-4 2F17 ....|E-5 2F.F ....|D-4 2C.F ....
....|..|--- .... ....|A-3 2F37 ....|--- .... ....
....|..|--- .... ....|B-5 2F.F ....|--- .... ....
....|..|--- .... ....|R-- .... ....|--- .... ....
 D-4|..|--- .... ....|D-6 2F.F ....|D-4 2C.F ....
 D-4|..|--- .... ....|R-- .... ....|D-4 2C.F ....
....|..|--- .... ....|B-5 2F.F ....|--- .... ....
....|..|--- .... ....|R-- .... ....|--- .... ....
 C#4|..|C#4 2F2F ....|E-5 2F.F ....|C#4 2C.F ....
....|..|--- .... ....|R-- .... ....|D-4 2F.A ....
....|..|--- .... ....|B-5 2F.F ....|--- .... ....
....|..|--- .... ....|R-- .... ....|--- .... ....
....|..|--- .... ....|D-6 2F.F ....|D-4 2F.A ....
....|..|--- .... ....|R-- .... ....|--- .... ....
....|..|--- .... ....|E-5 2F.F ....|--- .... ....
....|..|--- .... ....|R-- .... ....|--- .... ....
....|..|--- .... ....|B-5 2F.F ....|D-4 2F.A ....
....|..|--- .... ....|R-- .... ....|D-4 2F.A ....
....|..|--- .... ....|D-6 2F.F ....|--- .... ....
....|..|--- .... ....|R-- .... ....|--- .... ....
....|..|C#4 2F2A ....|E-5 2F.F ....|C#4 2F.A ....
....|..|--- .... ....|R-- .... ....|D-4 2F.7 ....
....|..|--- .... ....|B-5 2F.F ....|--- .... ....
....|..|--- .... ....|R-- .... ....|--- .... ....
....|..|--- .... ....|E-6 2F.F ....|D-4 2F.7 ....
....|..|--- .... ....|R-- .... ....|--- .... ....
....|..|--- .... ....|E-5 2F.F ....|--- .... ....
....|..|--- .... ....|R-- .... ....|--- .... ....
....|..|--- .... ....|B-5 2F.F ....|D-4 2F.7 ....
....|..|--- .... ....|R-- .... ....|D-4 2F.7 ....
 C#4|..|--- .... ....|E-6 2F.F ....|C#4 2C.F ....
....|..|--- .... ....|R-- .... ....|--- .... ....
 C#4|..|C#4 2F27 ....|E-5 2F.F ....|C#4 2C.F ....
....|..|--- .... ....|R-- .... ....|--- .... ....
....|..|--- .... ....|B-5 2F.F ....|--- .... ....
....|..|--- .... ....|R-- .... ....|--- .... ....
 C#4|..|--- .... ....|E-6 2F.F ....|C#4 2C.F ....
....|..|--- .... ....|R-- .... ....|--- .... ....
 C#4|..|--- .... ....|E-5 2F.F ....|C#4 2C.F ....
....|..|--- .... ....|R-- .... ....|--- .... ....
 B-5|..|E-4 2F1F ....|E-5 2F.F ....|B-3 2C.F ....
....|..|--- .... ....|B-3 2F3F ....|--- .... ....
....|..|--- .... ....|B-5 2F.F ....|C#4 2F.A ....
....|..|--- .... ....|R-- .... ....|--- .... ....
....|..|--- .... ....|E-6 2F.F ....|C#4 2F.A ....
....|..|--- .... ....|R-- .... ....|--- .... ....
....|..|--- .... ....|E-5 2F.F ....|--- .... ....
....|..|--- .... ....|R-- .... ....|--- .... ....
....|..|--- .... ....|B-5 2F.F ....|C#4 2F.A ....
....|..|--- .... ....|R-- .... ....|--- .... ....
....|..|--- .... ....|E-6 2F.F ....|C#4 2F.A ....
....|..|--- .... ....|R-- .... ....|--- .... ....
....|..|E-4 2F1A ....|E-5 2F.F ....|B-3 2F.A ....
....|..|--- .... ....|R-- .... ....|--- .... ....
....|..|--- .... ....|B-5 2F.F ....|C#4 2F.7 ....
....|..|--- .... ....|R-- .... ....|--- .... ....
....|..|--- .... ....|E-6 2F.F ....|C#4 2F.7 ....
....|..|--- .... ....|R-- .... ....|--- .... ....
 G-4|..|--- .... ....|E-5 2F.F ....|G-3 2C.F ....
....|..|--- .... ....|R-- .... ....|--- .... ....
 G-4|..|--- .... ....|B-5 2F.F ....|G-3 2C.F ....
....|..|--- .... ....|R-- .... ....|R-- .... ....
 G-4|..|--- .... ....|E-6 2F.F ....|G-3 2C.F ....
....|..|--- .... ....|R-- .... ....|--- .... ....
 G-4|..|E-4 2F17 ....|E-5 2F.F ....|G-3 2C.F ....
....|..|--- .... ....|B-3 2F37 ....|--- .... ....
 F#4|..|--- .... ....|B-5 2F.F ....|F#3 2C.F ....
....|..|--- .... ....|R-- .... ....|--- .... ....
 E-4|..|--- .... ....|E-6 2F.F ....|E-3 2C.F ....
....|..|--- .... ....|R-- .... ....|R-- .... ....
....|..|--- .... ....|B-5 2F.F ....|G-3 2F.A ....
....|..|--- .... ....|R-- .... ....|--- .... ....
 B-5|..|E-4 2F1F ....|E-5 2F.F ....|B-3 2C.F ....
....|..|--- .... ....|B-3 2F3F ....|R-- .... ....
....|..|--- .... ....|B-5 2F.F ....|G-3 2F.A ....
....|..|--- .... ....|R-- .... ....|--- .... ....
....|..|--- .... ....|E-6 2F.F ....|G-3 2F.A ....
....|..|--- .... ....|R-- .... ....|--- .... ....
....|..|--- .... ....|E-5 2F.F ....|F#3 2F.A ....
....|..|--- .... ....|R-- .... ....|--- .... ....
....|..|--- .... ....|B-5 2F.F ....|R-- .... ....
....|..|--- .... ....|R-- .... ....|R-- .... ....
....|..|--- .... ....|E-6 2F.F ....|G-3 2F.7 ....
....|..|--- .... ....|R-- .... ....|--- .... ....
....|..|E-4 2F1A ....|E-5 2F.F ....|G-3 2F.7 ....
....|..|--- .... ....|R-- .... ....|R-- .... ....
....|..|--- .... ....|B-5 2F.F ....|G-3 2F.7 ....
....|..|--- .... ....|R-- .... ....|--- .... ....
....|..|--- .... ....|E-6 2F.F ....|G-3 2F.7 ....
....|..|--- .... ....|R-- .... ....|--- .... ....
....|..|--- .... ....|E-5 2F.F ....|F#3 2F.7 ....
....|..|--- .... ....|R-- .... ....|--- .... ....
....|..|--- .... ....|B-5 2F.F ....|E-3 2F.7 ....
....|..|--- .... ....|R-- .... ....|R-- .... ....
....|..|--- .... ....|E-6 2F.F ....|--- .... ....
....|..|--- .... ....|R-- .... ....|--- .... ....
....|..|E-4 2F17 ....|E-5 2F.F ....|B-3 2F.7 ....
....|..|--- .... ....|B-3 2F37 ....|R-- .... ....
....|..|--- .... ....|B-5 2F.F ....|--- .... ....
....|..|--- .... ....|R-- .... ....|--- .... ....
....|..|--- .... ....|E-6 2F.F ....|--- .... ....
 E-4|..|--- .... ....|E-4 2C.F ....|--- .... ....
....|..|--- .... ....|B-5 2F.F ....|--- .... ....
 E-4|..|--- .... ....|E-4 2C.F ....|--- .... ....

[Pattern5]
....|..|R-- .... ....|G-6 2F.F ....|--- .... ....
 E-4|..|--- .... ....|E-4 2C.F ....|--- .... ....
....|..|--- .... ....|E-5 2F.F ....|--- .... ....
....|..|--- .... ....|R-- .... ....|--- .... ....
....|..|--- .... ....|B-5 2F.F ....|--- .... ....
....|..|--- .... ....|R-- .... ....|R-- .... ....
....|..|--- .... ....|G-6 2F.F ....|--- .... ....
....|..|--- .... ....|R-- .... ....|--- .... ....
....|..|--- .... ....|E-5 2F.F ....|--- .... ....
....|..|--- .... ....|R-- .... ....|--- .... ....
....|..|--- .... ....|B-5 2F.F ....|--- .... ....
....|..|--- .... ....|R-- .... ....|--- .... ....
....|..|R-- .... ....|G-6 2F.F ....|--- .... ....
....|..|--- .... ....|R-- .... ....|--- .... ....
....|..|--- .... ....|E-5 2F.F ....|--- .... ....
....|..|--- .... ....|R-- .... ....|--- .... ....
....|..|--- .... ....|B-5 2F.F ....|--- .... ....
....|..|--- .... ....|R-- .... ....|R-- .... ....
....|..|--- .... ....|F#6 2F.F ....|--- .... ....
....|..|--- .... ....|R-- .... ....|--- .... ....
....|..|--- .... ....|E-5 2F.F ....|--- .... ....
....|..|--- .... ....|E-4 2F.7 ....|--- .... ....
....|..|--- .... ....|B-5 2F.F ....|--- .... ....
....|..|--- .... ....|E-4 2F.7 ....|--- .... ....
....|..|R-- .... ....|F#6 2F.F ....|--- .... ....
....|..|--- .... ....|E-4 2F.7 ....|--- .... ....
....|..|--- .... ....|E-5 2F.F ....|--- .... ....
....|..|--- .... ....|R-- .... ....|--- .... ....
....|..|--- .... ....|B-5 2F.F ....|--- .... ....
....|..|--- .... ....|R-- .... ....|--- .... ....
....|..|--- .... ....|D-6 2F.F ....|--- .... ....
....|..|--- .... ....|R-- .... ....|--- .... ....
....|..|--- .... ....|C-5 2F.F ....|--- .... ....
 C-4|..|--- .... ....|C-4 2C.F ....|--- .... ....
....|..|--- .... ....|G-5 2F.F ....|--- .... ....
....|..|--- .... ....|R-- .... ....|--- .... ....
....|..|--- .... ....|D-6 2F.F ....|--- .... ....
....|..|--- .... ....|R-- .... ....|--- .... ....
....|..|--- .... ....|C-5 2F.F ....|--- .... ....
....|..|--- .... ....|R-- .... ....|--- .... ....
....|..|--- .... ....|G-5 2F.F ....|--- .... ....
....|..|--- .... ....|R-- .... ....|--- .... ....
....|..|--- .... ....|D-6 2F.F ....|--- .... ....
....|..|--- .... ....|R-- .... ....|--- .... ....
....|..|--- .... ....|C-5 2F.F ....|--- .... ....
....|..|--- .... ....|C-4 2F.A ....|--- .... ....
....|..|--- .... ....|G-5 2F.F ....|--- .... ....
....|..|--- .... ....|R-- .... ....|--- .... ....
....|..|--- .... ....|E-6 2F.F ....|--- .... ....
....|..|--- .... ....|R-- .... ....|--- .... ....
....|..|--- .... ....|D-5 2F.F ....|--- .... ....
....|..|--- .... ....|R-- .... ....|--- .... ....
....|..|--- .... ....|A-5 2F.F ....|--- .... ....
....|..|--- .... ....|R-- .... ....|--- .... ....
....|..|--- .... ....|E-6 2F.F ....|--- .... ....
....|..|--- .... ....|R-- .... ....|--- .... ....
....|..|--- .... ....|D-5 2F.F ....|--- .... ....
....|..|--- .... ....|C-4 2F.7 ....|--- .... ....
....|..|--- .... ....|A-5 2F.F ....|--- .... ....
....|..|--- .... ....|R-- .... ....|--- .... ....
....|..|--- .... ....|B-5 2F.F ....|--- .... ....
 B-5|..|--- .... ....|B-3 2C.F ....|--- .... ....
....|..|--- .... ....|D-5 2F.F ....|--- .... ....
....|..|--- .... ....|R-- .... ....|--- .... ....
....|..|--- .... ....|G-6 2F.F ....|--- .... ....
 E-4|..|--- .... ....|E-4 2C.F ....|--- .... ....
....|..|--- .... ....|E-5 2F.F ....|--- .... ....
....|..|--- .... ....|R-- .... ....|--- .... ....
....|..|--- .... ....|B-5 2F.F ....|--- .... ....
....|..|--- .... ....|R-- .... ....|--- .... ....
....|..|--- .... ....|G-6 2F.F ....|--- .... ....
....|..|--- .... ....|R-- .... ....|--- .... ....
....|..|--- .... ....|E-5 2F.F ....|--- .... ....
....|..|--- .... ....|R-- .... ....|--- .... ....
....|..|--- .... ....|B-5 2F.F ....|--- .... ....
....|..|--- .... ....|R-- .... ....|--- .... ....
....|..|--- .... ....|G-6 2F.F ....|--- .... ....
....|..|--- .... ....|R-- .... ....|--- .... ....
....|..|--- .... ....|E-5 2F.F ....|--- .... ....
....|..|--- .... ....|R-- .... ....|--- .... ....
....|..|--- .... ....|B-5 2F.F ....|--- .... ....
....|..|--- .... ....|R-- .... ....|--- .... ....
....|..|--- .... ....|F#6 2F.F ....|--- .... ....
....|..|--- .... ....|R-- .... ....|--- .... ....
....|..|--- .... ....|E-5 2F.F ....|--- .... ....
....|..|--- .... ....|B-3 2F.7 ....|--- .... ....
....|..|--- .... ....|B-5 2F.F ....|--- .... ....
....|..|--- .... ....|R-- .... ....|--- .... ....
....|..|--- .... ....|F#6 2F.F ....|--- .... ....
....|..|--- .... ....|E-4 2F.7 ....|--- .... ....
....|..|--- .... ....|E-5 2F.F ....|--- .... ....
....|..|--- .... ....|R-- .... ....|--- .... ....
....|..|--- .... ....|B-5 2F.F ....|--- .... ....
....|..|--- .... ....|R-- .... ....|--- .... ....
....|..|--- .... ....|D-6 2F.F ....|--- .... ....
....|..|--- .... ....|R-- .... ....|--- .... ....
....|..|--- .... ....|C-5 2F.F ....|--- .... ....
 C-4|..|--- .... ....|C-4 2C.F ....|--- .... ....
....|..|--- .... ....|G-5 2F.F ....|--- .... ....
....|..|--- .... ....|R-- .... ....|--- .... ....
....|..|--- .... ....|D-6 2F.F ....|--- .... ....
....|..|--- .... ....|R-- .... ....|--- .... ....
....|..|--- .... ....|C-5 2F.F ....|--- .... ....
....|..|--- .... ....|R-- .... ....|--- .... ....
....|..|--- .... ....|G-5 2F.F ....|--- .... ....
....|..|--- .... ....|R-- .... ....|--- .... ....
....|..|--- .... ....|D-6 2F.F ....|--- .... ....
....|..|--- .... ....|R-- .... ....|--- .... ....
....|..|--- .... ....|C-5 2F.F ....|--- .... ....
....|..|--- .... ....|C-4 2F.A ....|--- .... ....
....|..|--- .... ....|G-5 2F.F ....|--- .... ....
....|..|--- .... ....|R-- .... ....|--- .... ....
....|..|--- .... ....|E-6 2F.F ....|--- .... ....
....|..|--- .... ....|R-- .... ....|--- .... ....
....|..|--- .... ....|D-5 2F.F ....|--- .... ....
....|..|--- .... ....|R-- .... ....|--- .... ....
....|..|--- .... ....|A-5 2F.F ....|--- .... ....
....|..|--- .... ....|R-- .... ....|--- .... ....
....|..|--- .... ....|E-6 2F.F ....|--- .... ....
....|..|--- .... ....|R-- .... ....|--- .... ....
....|..|--- .... ....|D-5 2F.F ....|--- .... ....
....|..|--- .... ....|C-4 2F.7 ....|--- .... ....
....|..|--- .... ....|A-5 2F.F ....|--- .... ....
....|..|--- .... ....|R-- .... ....|--- .... ....
....|..|--- .... ....|B-5 2F.F ....|--- .... ....
....|..|--- .... ....|R-- .... ....|--- .... ....
....|..|--- .... ....|D-5 2F.F ....|--- .... ....
 B-5|..|--- .... ....|B-3 2C.F ....|--- .... ....

[Pattern6]
....|..|--- .... ....|G-6 2F.F ....|--- .... ....
 E-4|..|--- .... ....|E-4 2C.F ....|--- .... ....
....|..|--- .... ....|E-5 2F.F ....|--- .... ....
....|..|--- .... ....|R-- .... ....|--- .... ....
....|..|--- .... ....|B-5 2F.F ....|--- .... ....
....|..|--- .... ....|R-- .... ....|--- .... ....
....|..|--- .... ....|G-6 2F.F ....|--- .... ....
....|..|--- .... ....|R-- .... ....|--- .... ....
....|..|--- .... ....|E-5 2F.F ....|--- .... ....
....|..|--- .... ....|R-- .... ....|--- .... ....
....|..|--- .... ....|B-5 2F.F ....|--- .... ....
....|..|--- .... ....|R-- .... ....|--- .... ....
....|..|--- .... ....|G-6 2F.F ....|--- .... ....
....|..|--- .... ....|R-- .... ....|--- .... ....
....|..|--- .... ....|E-5 2F.F ....|--- .... ....
....|..|--- .... ....|R-- .... ....|--- .... ....
....|..|--- .... ....|B-5 2F.F ....|--- .... ....
....|..|--- .... ....|R-- .... ....|--- .... ....
....|..|--- .... ....|F#6 2F.F ....|--- .... ....
....|..|--- .... ....|R-- .... ....|--- .... ....
....|..|--- .... ....|E-5 2F.F ....|--- .... ....
....|..|--- .... ....|R-- .... ....|--- .... ....
....|..|--- .... ....|B-5 2F.F ....|--- .... ....
....|..|--- .... ....|B-3 2F.7 ....|--- .... ....
....|..|--- .... ....|F#6 2F.F ....|--- .... ....
....|..|--- .... ....|E-4 2F.7 ....|--- .... ....
....|..|--- .... ....|E-5 2F.F ....|--- .... ....
....|..|--- .... ....|R-- .... ....|--- .... ....
....|..|--- .... ....|B-5 2F.F ....|--- .... ....
....|..|--- .... ....|R-- .... ....|--- .... ....
....|..|--- .... ....|D-6 2F.F ....|--- .... ....
....|..|--- .... ....|R-- .... ....|--- .... ....
....|..|--- .... ....|C-5 2F.F ....|--- .... ....
 C-4|..|--- .... ....|C-4 2C.F ....|--- .... ....
....|..|--- .... ....|G-5 2F.F ....|--- .... ....
....|..|--- .... ....|R-- .... ....|--- .... ....
....|..|--- .... ....|D-6 2F.F ....|--- .... ....
....|..|--- .... ....|R-- .... ....|--- .... ....
....|..|--- .... ....|C-5 2F.F ....|--- .... ....
....|..|--- .... ....|R-- .... ....|--- .... ....
....|..|--- .... ....|G-5 2F.F ....|--- .... ....
....|..|--- .... ....|R-- .... ....|--- .... ....
....|..|--- .... ....|D-6 2F.F ....|--- .... ....
....|..|--- .... ....|R-- .... ....|--- .... ....
....|..|--- .... ....|C-5 2F.F ....|--- .... ....
....|..|--- .... ....|C-4 2F.A ....|--- .... ....
....|..|--- .... ....|G-5 2F.F ....|--- .... ....
....|..|--- .... ....|R-- .... ....|--- .... ....
....|..|--- .... ....|E-6 2F.F ....|--- .... ....
....|..|--- .... ....|R-- .... ....|--- .... ....
....|..|--- .... ....|D-5 2F.F ....|--- .... ....
....|..|--- .... ....|R-- .... ....|--- .... ....
....|..|--- .... ....|A-5 2F.F ....|--- .... ....
....|..|--- .... ....|R-- .... ....|--- .... ....
....|..|--- .... ....|E-6 2F.F ....|--- .... ....
....|..|--- .... ....|R-- .... ....|--- .... ....
....|..|--- .... ....|D-5 2F.F ....|--- .... ....
....|..|--- .... ....|C-4 2F.7 ....|--- .... ....
....|..|--- .... ....|A-5 2F.F ....|--- .... ....
....|..|--- .... ....|R-- .... ....|--- .... ....
....|..|--- .... ....|B-5 2F.F ....|--- .... ....
 B-5|..|--- .... ....|B-3 2C.F ....|--- .... ....
....|..|--- .... ....|D-5 2F.F ....|--- .... ....
....|..|--- .... ....|R-- .... ....|--- .... ....
....|..|--- .... ....|G-6 2F.F ....|--- .... ....
 E-4|..|--- .... ....|E-4 2C.F ....|--- .... ....
....|..|--- .... ....|E-5 2F.F ....|--- .... ....
....|..|--- .... ....|R-- .... ....|--- .... ....
....|..|--- .... ....|B-5 2F.F ....|--- .... ....
....|..|--- .... ....|R-- .... ....|--- .... ....
....|..|--- .... ....|G-6 2F.F ....|--- .... ....
....|..|--- .... ....|R-- .... ....|--- .... ....
....|..|--- .... ....|E-5 2F.F ....|--- .... ....
....|..|--- .... ....|R-- .... ....|--- .... ....
....|..|--- .... ....|B-5 2F.F ....|--- .... ....
....|..|--- .... ....|R-- .... ....|--- .... ....
....|..|--- .... ....|G-6 2F.F ....|--- .... ....
....|..|--- .... ....|R-- .... ....|--- .... ....
....|..|--- .... ....|E-5 2F.F ....|--- .... ....
....|..|--- .... ....|R-- .... ....|--- .... ....
....|..|--- .... ....|B-5 2F.F ....|--- .... ....
....|..|--- .... ....|R-- .... ....|--- .... ....
....|..|--- .... ....|F#6 2F.F ....|--- .... ....
....|..|--- .... ....|R-- .... ....|--- .... ....
....|..|--- .... ....|E-5 2F.F ....|--- .... ....
....|..|--- .... ....|B-3 2F.7 ....|--- .... ....
....|..|--- .... ....|B-5 2F.F ....|--- .... ....
....|..|--- .... ....|R-- .... ....|--- .... ....
....|..|--- .... ....|F#6 2F.F ....|--- .... ....
....|..|--- .... ....|E-4 2F.7 ....|--- .... ....
....|..|--- .... ....|E-5 2F.F ....|--- .... ....
....|..|--- .... ....|R-- .... ....|--- .... ....
....|..|--- .... ....|B-5 2F.F ....|--- .... ....
....|..|--- .... ....|R-- .... ....|--- .... ....
....|..|--- .... ....|D-6 2F.F ....|--- .... ....
....|..|--- .... ....|R-- .... ....|--- .... ....
....|..|--- .... ....|E-5 2F.7 ....|--- .... ....
....|..|--- .... ....|--- .... ....|--- .... ....
....|..|--- .... ....|B-5 2F.7 ....|--- .... ....
....|..|--- .... ....|R-- .... ....|--- .... ....
 G-4|..|--- .... ....|G-3 2C.F ....|--- .... ....
....|..|--- .... ....|R-- .... ....|--- .... ....
....|..|--- .... ....|E-5 2F.7 ....|--- .... ....
....|..|--- .... ....|R-- .... ....|--- .... ....
....|..|--- .... ....|B-5 2F.7 ....|--- .... ....
....|..|--- .... ....|R-- .... ....|--- .... ....
....|..|--- .... ....|F#6 2F.7 ....|--- .... ....
 A-3|..|--- .... ....|A-3 2C.F ....|--- .... ....
....|..|--- .... ....|E-5 2F.7 ....|--- .... ....
....|..|--- .... ....|--- .... ....|--- .... ....
....|..|--- .... ....|B-5 2F.7 ....|--- .... ....
....|..|--- .... ....|R-- .... ....|--- .... ....
 A#3|..|--- .... ....|A#3 2C.F ....|--- .... ....
....|..|--- .... ....|--- .... ....|--- .... ....
....|..|--- .... ....|E-5 2F.7 ....|--- .... ....
....|..|--- .... ....|R-- .... ....|--- .... ....
....|..|--- .... ....|B-5 2F.7 ....|--- .... ....
....|..|--- .... ....|R-- .... ....|--- .... ....
 B-5|..|--- .... ....|B-3 2C.F ....|--- .... ....
....|..|--- .... ....|R-- .... ....|--- .... ....
....|..|--- .... ....|--- .... ....|--- .... ....
....|..|--- .... ....|--- .... ....|--- .... ....
....|..|--- .... ....|R-- .... ....|--- .... ....
....|..|--- .... ....|--- .... ....|--- .... ....
 B-5|..|--- .... ....|B-3 2C.F ....|--- .... ....
....|..|--- .... ....|--- .... ....|--- .... ....
....|..|--- .... ....|--- .... ....|--- .... ....
....|..|--- .... ....|R-- .... ....|--- .... ....

[Pattern7]
....|..|--- .... ....|--- .... ....|--- .... ....
 E-4|..|--- .... ....|E-5 2C.F ....|--- .... ....
....|..|--- .... ....|B-3 2F.A ....|--- .... ....
 E-4|..|--- .... ....|E-4 2C.F ....|--- .... ....
....|..|--- .... ....|R-- .... ....|--- .... ....
....|..|--- .... ....|--- .... ....|--- .... ....
....|..|--- .... ....|R-- .... ....|--- .... ....
....|..|--- .... ....|--- .... ....|--- .... ....
....|..|--- .... ....|A#3 2F.7 ....|--- .... ....
....|..|--- .... ....|--- .... ....|--- .... ....
....|..|--- .... ....|--- .... ....|--- .... ....
....|..|--- .... ....|R-- .... ....|--- .... ....
....|..|--- .... ....|--- .... ....|--- .... ....
....|..|--- .... ....|E-5 2F.A ....|--- .... ....
....|..|--- .... ....|B-3 2F.7 ....|--- .... ....
....|..|--- .... ....|E-4 2F.A ....|--- .... ....
....|..|--- .... ....|R-- .... ....|--- .... ....
....|..|--- .... ....|--- .... ....|--- .... ....
....|..|--- .... ....|R-- .... ....|--- .... ....
....|..|--- .... ....|--- .... ....|--- .... ....
....|..|--- .... ....|B-3 2F.7 ....|--- .... ....
....|..|--- .... ....|--- .... ....|--- .... ....
....|..|--- .... ....|--- .... ....|--- .... ....
....|..|--- .... ....|R-- .... ....|--- .... ....
....|..|--- .... ....|--- .... ....|--- .... ....
....|..|--- .... ....|E-5 2F.7 ....|--- .... ....
....|..|--- .... ....|--- .... ....|--- .... ....
....|..|--- .... ....|E-4 2F.7 ....|--- .... ....
....|..|--- .... ....|R-- .... ....|--- .... ....
....|..|--- .... ....|--- .... ....|--- .... ....
....|..|--- .... ....|--- .... ....|--- .... ....
....|..|--- .... ....|--- .... ....|--- .... ....
....|..|--- .... ....|--- .... ....|--- .... ....
....|..|--- .... ....|--- .... ....|--- .... ....
....|..|--- .... ....|--- .... ....|--- .... ....
....|..|--- .... ....|--- .... ....|--- .... ....
....|..|--- .... ....|--- .... ....|--- .... ....
....|..|--- .... ....|--- .... ....|--- .... ....
....|..|--- .... ....|--- .... ....|--- .... ....
....|..|--- .... ....|--- .... ....|--- .... ....
....|..|--- .... ....|--- .... ....|--- .... ....
....|..|--- .... ....|--- .... ....|--- .... ....
....|..|--- .... ....|--- .... ....|--- .... ....
....|..|--- .... ....|--- .... ....|--- .... ....
....|..|--- .... ....|--- .... ....|--- .... ....
....|..|--- .... ....|--- .... ....|--- .... ....
....|..|--- .... ....|--- .... ....|--- .... ....
....|..|--- .... ....|--- .... ....|--- .... ....
....|..|--- .... ....|--- .... ....|--- .... ....
....|..|--- .... ....|--- .... ....|--- .... ....
....|..|--- .... ....|--- .... ....|--- .... ....
....|..|--- .... ....|--- .... ....|--- .... ....
....|..|--- .... ....|--- .... ....|--- .... ....
....|..|--- .... ....|--- .... ....|--- .... ....
....|..|--- .... ....|--- .... ....|--- .... ....
....|..|--- .... ....|--- .... ....|--- .... ....
....|..|--- .... ....|--- .... ....|--- .... ....
....|..|--- .... ....|--- .... ....|--- .... ....
....|..|--- .... ....|--- .... ....|--- .... ....
....|..|--- .... ....|--- .... ....|--- .... ....
....|..|--- .... ....|--- .... ....|--- .... ....
....|..|--- .... ....|--- .... ....|--- .... ....
....|..|--- .... ....|--- .... ....|--- .... ....
....|..|--- .... ....|--- .... ....|--- .... ....
 E-4|..|--- .... ....|E-5 2C.F ....|--- .... ....
....|..|--- .... ....|--- .... ....|--- .... ....
 E-4|..|--- .... ....|E-4 2C.F ....|--- .... ....
....|..|--- .... ....|R-- .... ....|--- .... ....
....|..|--- .... ....|--- .... ....|--- .... ....
....|..|--- .... ....|--- .... ....|--- .... ....
....|..|--- .... ....|--- .... ....|--- .... ....
....|..|--- .... ....|--- .... ....|--- .... ....
....|..|--- .... ....|--- .... ....|--- .... ....
....|..|--- .... ....|--- .... ....|--- .... ....
....|..|--- .... ....|--- .... ....|--- .... ....
....|..|--- .... ....|--- .... ....|--- .... ....
....|..|--- .... ....|E-5 2F.A ....|--- .... ....
....|..|--- .... ....|--- .... ....|--- .... ....
....|..|--- .... ....|E-4 2F.A ....|--- .... ....
....|..|--- .... ....|R-- .... ....|--- .... ....
....|..|--- .... ....|--- .... ....|--- .... ....
....|..|--- .... ....|--- .... ....|--- .... ....
....|..|--- .... ....|--- .... ....|--- .... ....
....|..|--- .... ....|--- .... ....|--- .... ....
....|..|--- .... ....|--- .... ....|--- .... ....
....|..|--- .... ....|--- .... ....|--- .... ....
....|..|--- .... ....|--- .... ....|--- .... ....
....|..|--- .... ....|--- .... ....|--- .... ....
....|..|--- .... ....|E-5 2F.7 ....|--- .... ....
....|..|--- .... ....|--- .... ....|--- .... ....
....|..|--- .... ....|E-4 2F.7 ....|--- .... ....
....|..|--- .... ....|R-- .... ....|--- .... ....
....|..|--- .... ....|--- .... ....|--- .... ....
....|..|--- .... ....|--- .... ....|--- .... ....
....|..|--- .... ....|--- .... ....|--- .... ....
....|..|--- .... ....|--- .... ....|--- .... ....
....|..|--- .... ....|--- .... ....|--- .... ....
....|..|--- .... ....|--- .... ....|--- .... ....
....|..|--- .... ....|--- .... ....|--- .... ....
....|..|--- .... ....|--- .... ....|--- .... ....
....|..|--- .... ....|--- .... ....|--- .... ....
....|..|--- .... ....|--- .... ....|--- .... ....
....|..|--- .... ....|--- .... ....|--- .... ....
....|..|--- .... ....|--- .... ....|--- .... ....
....|..|--- .... ....|--- .... ....|--- .... ....
....|..|--- .... ....|--- .... ....|--- .... ....
....|..|--- .... ....|--- .... ....|--- .... ....
....|..|--- .... ....|--- .... ....|--- .... ....
....|..|--- .... ....|--- .... ....|--- .... ....
....|..|--- .... ....|--- .... ....|--- .... ....
....|..|--- .... ....|--- .... ....|--- .... ....
....|..|--- .... ....|--- .... ....|--- .... ....
....|..|--- .... ....|--- .... ....|--- .... ....
....|..|--- .... ....|--- .... ....|--- .... ....
....|..|--- .... ....|--- .... ....|--- .... ....
....|..|--- .... ....|--- .... ....|--- .... ....
....|..|--- .... ....|--- .... ....|--- .... ....
....|..|--- .... ....|--- .... ....|--- .... ....
....|..|--- .... ....|--- .... ....|--- .... ....
....|..|--- .... ....|--- .... ....|--- .... ....
....|..|--- .... ....|--- .... ....|--- .... ....
....|..|--- .... ....|--- .... ....|--- .... ....
....|..|--- .... ....|--- .... ....|--- .... ....
....|..|--- .... ....|--- .... ....|--- .... ....
....|..|--- .... ....|--- .... ....|--- .... ....
....|..|--- .... ....|--- .... ....|--- .... ....
 B-4|..|--- .... ....|B-4 2C.F ....|--- .... ....
....|..|--- .... ....|R-- .... ....|--- .... ....

[Pattern8]
 E-4|..|--- .... ....|E-5 2C.F ....|--- .... ....
....|..|--- .... ....|--- .... ....|--- .... ....
 E-4|..|--- .... ....|E-4 2C.F ....|--- .... ....
....|..|--- .... ....|R-- .... ....|--- .... ....
....|..|--- .... ....|--- .... ....|--- .... ....
....|..|--- .... ....|--- .... ....|--- .... ....
....|..|--- .... ....|--- .... ....|--- .... ....
....|..|--- .... ....|--- .... ....|--- .... ....
....|..|--- .... ....|--- .... ....|--- .... ....
....|..|--- .... ....|--- .... ....|--- .... ....
....|..|--- .... ....|B-4 2F.A ....|--- .... ....
....|..|--- .... ....|R-- .... ....|--- .... ....
....|..|--- .... ....|E-5 2F.A ....|--- .... ....
....|..|--- .... ....|--- .... ....|--- .... ....
....|..|--- .... ....|E-4 2F.A ....|--- .... ....
....|..|--- .... ....|R-- .... ....|--- .... ....
....|..|--- .... ....|--- .... ....|--- .... ....
....|..|--- .... ....|--- .... ....|--- .... ....
....|..|--- .... ....|--- .... ....|--- .... ....
....|..|--- .... ....|--- .... ....|--- .... ....
....|..|--- .... ....|--- .... ....|--- .... ....
....|..|--- .... ....|--- .... ....|--- .... ....
....|..|--- .... ....|B-4 2F.7 ....|--- .... ....
....|..|--- .... ....|R-- .... ....|--- .... ....
....|..|--- .... ....|E-5 2F.7 ....|--- .... ....
....|..|--- .... ....|--- .... ....|--- .... ....
....|..|--- .... ....|E-4 2F.7 ....|--- .... ....
....|..|--- .... ....|R-- .... ....|--- .... ....
....|..|--- .... ....|--- .... ....|--- .... ....
....|..|--- .... ....|--- .... ....|--- .... ....
....|..|--- .... ....|--- .... ....|--- .... ....
....|..|--- .... ....|--- .... ....|--- .... ....
....|..|--- .... ....|--- .... ....|--- .... ....
....|..|--- .... ....|--- .... ....|--- .... ....
....|..|--- .... ....|--- .... ....|--- .... ....
....|..|--- .... ....|--- .... ....|--- .... ....
....|..|--- .... ....|--- .... ....|--- .... ....
....|..|--- .... ....|--- .... ....|--- .... ....
....|..|--- .... ....|--- .... ....|--- .... ....
....|..|--- .... ....|--- .... ....|--- .... ....
....|..|--- .... ....|--- .... ....|--- .... ....
....|..|--- .... ....|--- .... ....|--- .... ....
....|..|--- .... ....|--- .... ....|--- .... ....
....|..|--- .... ....|--- .... ....|--- .... ....
....|..|--- .... ....|--- .... ....|--- .... ....
....|..|--- .... ....|--- .... ....|--- .... ....
....|..|--- .... ....|--- .... ....|--- .... ....
....|..|--- .... ....|--- .... ....|--- .... ....
....|..|--- .... ....|--- .... ....|--- .... ....
....|..|--- .... ....|--- .... ....|--- .... ....
....|..|--- .... ....|--- .... ....|--- .... ....
....|..|--- .... ....|--- .... ....|--- .... ....
....|..|--- .... ....|--- .... ....|--- .... ....
....|..|--- .... ....|--- .... ....|--- .... ....
....|..|--- .... ....|--- .... ....|--- .... ....
....|..|--- .... ....|--- .... ....|--- .... ....
....|..|--- .... ....|--- .... ....|--- .... ....
....|..|--- .... ....|--- .... ....|--- .... ....
....|..|--- .... ....|--- .... ....|--- .... ....
....|..|--- .... ....|--- .... ....|--- .... ....
....|..|--- .... ....|--- .... ....|--- .... ....
....|..|--- .... ....|--- .... ....|--- .... ....
....|..|--- .... ....|--- .... ....|--- .... ....
....|..|--- .... ....|--- .... ....|--- .... ....
 E-4|..|--- .... ....|E-5 2C.F ....|--- .... ....
....|..|--- .... ....|--- .... ....|--- .... ....
 E-4|..|--- .... ....|E-4 2C.F ....|--- .... ....
....|..|--- .... ....|R-- .... ....|--- .... ....
....|..|--- .... ....|--- .... ....|--- .... ....
....|..|--- .... ....|--- .... ....|--- .... ....
....|..|--- .... ....|--- .... ....|--- .... ....
....|..|--- .... ....|--- .... ....|--- .... ....
....|..|--- .... ....|--- .... ....|--- .... ....
....|..|--- .... ....|--- .... ....|--- .... ....
....|..|--- .... ....|--- .... ....|--- .... ....
....|..|--- .... ....|--- .... ....|--- .... ....
....|..|--- .... ....|E-5 2F.A ....|--- .... ....
....|..|--- .... ....|--- .... ....|--- .... ....
....|..|--- .... ....|E-4 2F.A ....|--- .... ....
....|..|--- .... ....|R-- .... ....|--- .... ....
....|..|--- .... ....|--- .... ....|--- .... ....
....|..|--- .... ....|--- .... ....|--- .... ....
....|..|--- .... ....|--- .... ....|--- .... ....
....|..|--- .... ....|--- .... ....|--- .... ....
....|..|--- .... ....|--- .... ....|--- .... ....
....|..|--- .... ....|--- .... ....|--- .... ....
....|..|--- .... ....|--- .... ....|--- .... ....
....|..|--- .... ....|--- .... ....|--- .... ....
....|..|--- .... ....|E-5 2F.7 ....|--- .... ....
....|..|--- .... ....|--- .... ....|--- .... ....
....|..|--- .... ....|E-4 2F.7 ....|--- .... ....
....|..|--- .... ....|R-- .... ....|--- .... ....
....|..|--- .... ....|--- .... ....|--- .... ....
....|..|--- .... ....|--- .... ....|--- .... ....
....|..|--- .... ....|--- .... ....|--- .... ....
....|..|--- .... ....|--- .... ....|--- .... ....
....|..|--- .... ....|--- .... ....|--- .... ....
....|..|--- .... ....|--- .... ....|--- .... ....
....|..|--- .... ....|--- .... ....|--- .... ....
....|..|--- .... ....|--- .... ....|--- .... ....
....|..|--- .... ....|--- .... ....|--- .... ....
....|..|--- .... ....|--- .... ....|--- .... ....
....|..|--- .... ....|--- .... ....|--- .... ....
....|..|--- .... ....|--- .... ....|--- .... ....
....|..|--- .... ....|--- .... ....|--- .... ....
....|..|--- .... ....|--- .... ....|--- .... ....
....|..|--- .... ....|--- .... ....|--- .... ....
....|..|--- .... ....|--- .... ....|--- .... ....
....|..|--- .... ....|--- .... ....|--- .... ....
....|..|--- .... ....|--- .... ....|--- .... ....
....|..|--- .... ....|--- .... ....|--- .... ....
....|..|--- .... ....|--- .... ....|--- .... ....
....|..|--- .... ....|--- .... ....|--- .... ....
....|..|--- .... ....|--- .... ....|--- .... ....
....|..|--- .... ....|--- .... ....|--- .... ....
....|..|--- .... ....|--- .... ....|--- .... ....
....|..|--- .... ....|--- .... ....|--- .... ....
....|..|--- .... ....|--- .... ....|--- .... ....
....|..|--- .... ....|--- .... ....|--- .... ....
....|..|--- .... ....|--- .... ....|--- .... ....
....|..|--- .... ....|--- .... ....|--- .... ....
....|..|--- .... ....|--- .... ....|--- .... ....
....|..|--- .... ....|--- .... ....|--- .... ....
....|..|--- .... ....|--- .... ....|--- .... ....
....|..|--- .... ....|--- .... ....|--- .... ....
....|..|--- .... ....|--- .... ....|--- .... ....
....|..|--- .... ....|--- .... ....|--- .... ....
....|..|--- .... ....|--- .... ....|--- .... ....

[Pattern9]
....|..|--- .... ....|G-6 2F.F ....|--- .... ....
 E-4|..|--- .... ....|E-5 2C.F ....|--- .... ....
....|..|--- .... ....|E-5 2F.F ....|--- .... ....
 E-4|..|--- .... ....|E-4 2C.F ....|--- .... ....
....|..|--- .... ....|B-5 2F.F ....|--- .... ....
....|..|--- .... ....|R-- .... ....|--- .... ....
....|..|--- .... ....|G-6 2F.F ....|--- .... ....
....|..|--- .... ....|R-- .... ....|--- .... ....
....|..|--- .... ....|E-5 2F.F ....|--- .... ....
....|..|--- .... ....|--- .... ....|--- .... ....
....|..|--- .... ....|B-5 2F.F ....|--- .... ....
....|..|--- .... ....|R-- .... ....|--- .... ....
....|..|--- .... ....|G-6 2F.F ....|--- .... ....
....|..|--- .... ....|R-- .... ....|--- .... ....
....|..|--- .... ....|E-5 2F.F ....|--- .... ....
....|..|--- .... ....|E-4 2F.A ....|--- .... ....
....|..|--- .... ....|B-5 2F.F ....|--- .... ....
....|..|--- .... ....|R-- .... ....|--- .... ....
....|..|--- .... ....|F#6 2F.F ....|--- .... ....
....|..|--- .... ....|R-- .... ....|--- .... ....
....|..|--- .... ....|E-5 2F.F ....|--- .... ....
....|..|--- .... ....|--- .... ....|--- .... ....
....|..|--- .... ....|B-5 2F.F ....|--- .... ....
....|..|--- .... ....|R-- .... ....|--- .... ....
....|..|--- .... ....|F#6 2F.F ....|--- .... ....
....|..|--- .... ....|E-5 2F.7 ....|--- .... ....
....|..|--- .... ....|E-5 2F.F ....|--- .... ....
....|..|--- .... ....|E-4 2F.7 ....|--- .... ....
....|..|--- .... ....|B-5 2F.F ....|--- .... ....
....|..|--- .... ....|R-- .... ....|--- .... ....
....|..|--- .... ....|D-6 2F.F ....|--- .... ....
....|..|--- .... ....|R-- .... ....|--- .... ....
....|..|--- .... ....|C-5 2F.F ....|--- .... ....
 C-4|..|--- .... ....|C-5 2C.F ....|--- .... ....
....|..|--- .... ....|G-5 2F.F ....|--- .... ....
 C-4|..|--- .... ....|C-4 2C.F ....|--- .... ....
....|..|--- .... ....|D-6 2F.F ....|--- .... ....
....|..|--- .... ....|R-- .... ....|--- .... ....
....|..|--- .... ....|C-5 2F.F ....|--- .... ....
....|..|--- .... ....|R-- .... ....|--- .... ....
....|..|--- .... ....|G-5 2F.F ....|--- .... ....
....|..|--- .... ....|R-- .... ....|--- .... ....
....|..|--- .... ....|D-6 2F.F ....|--- .... ....
....|..|--- .... ....|R-- .... ....|--- .... ....
....|..|--- .... ....|C-5 2F.F ....|--- .... ....
....|..|--- .... ....|C-5 2F.A ....|--- .... ....
....|..|--- .... ....|G-5 2F.F ....|--- .... ....
....|..|--- .... ....|R-- .... ....|--- .... ....
....|..|--- .... ....|E-6 2F.F ....|--- .... ....
....|..|--- .... ....|R-- .... ....|--- .... ....
....|..|--- .... ....|D-5 2F.F ....|--- .... ....
....|..|--- .... ....|R-- .... ....|--- .... ....
....|..|--- .... ....|A-5 2F.F ....|--- .... ....
....|..|--- .... ....|R-- .... ....|--- .... ....
....|..|--- .... ....|E-6 2F.F ....|--- .... ....
....|..|--- .... ....|R-- .... ....|--- .... ....
....|..|--- .... ....|D-5 2F.F ....|--- .... ....
....|..|--- .... ....|C-5 2F.7 ....|--- .... ....
....|..|--- .... ....|A-5 2F.F ....|--- .... ....
....|..|--- .... ....|C-4 2F.7 ....|--- .... ....
....|..|--- .... ....|B-5 2F.F ....|--- .... ....
 B-4|..|--- .... ....|B-4 2C.F ....|--- .... ....
....|..|--- .... ....|D-5 2F.F ....|--- .... ....
 B-4|..|--- .... ....|B-4 2C.F ....|--- .... ....
....|..|--- .... ....|G-6 2F.F ....|--- .... ....
 E-4|..|--- .... ....|E-5 2C.F ....|--- .... ....
....|..|--- .... ....|E-5 2F.F ....|--- .... ....
....|..|--- .... ....|R-- .... ....|--- .... ....
....|..|--- .... ....|B-5 2F.F ....|--- .... ....
....|..|--- .... ....|R-- .... ....|--- .... ....
....|..|--- .... ....|G-6 2F.F ....|--- .... ....
....|..|--- .... ....|R-- .... ....|--- .... ....
....|..|--- .... ....|E-5 2F.F ....|--- .... ....
....|..|--- .... ....|R-- .... ....|--- .... ....
....|..|--- .... ....|B-5 2F.F ....|--- .... ....
....|..|--- .... ....|R-- .... ....|--- .... ....
....|..|--- .... ....|G-6 2F.F ....|--- .... ....
....|..|--- .... ....|R-- .... ....|--- .... ....
....|..|--- .... ....|E-5 2F.F ....|--- .... ....
....|..|--- .... ....|R-- .... ....|--- .... ....
....|..|--- .... ....|B-5 2F.F ....|--- .... ....
....|..|--- .... ....|R-- .... ....|--- .... ....
....|..|--- .... ....|F#6 2F.F ....|--- .... ....
....|..|--- .... ....|R-- .... ....|--- .... ....
....|..|--- .... ....|E-5 2F.F ....|--- .... ....
....|..|--- .... ....|B-4 2F.7 ....|--- .... ....
....|..|--- .... ....|B-5 2F.F ....|--- .... ....
....|..|--- .... ....|B-4 2F.7 ....|--- .... ....
....|..|--- .... ....|F#6 2F.F ....|--- .... ....
....|..|--- .... ....|E-5 2F.7 ....|--- .... ....
....|..|--- .... ....|E-5 2F.F ....|--- .... ....
....|..|--- .... ....|R-- .... ....|--- .... ....
....|..|--- .... ....|B-5 2F.F ....|--- .... ....
....|..|--- .... ....|R-- .... ....|--- .... ....
....|..|--- .... ....|D-6 2F.F ....|--- .... ....
....|..|--- .... ....|R-- .... ....|--- .... ....
....|..|--- .... ....|C-5 2F.F ....|--- .... ....
 C-4|..|--- .... ....|C-5 2C.F ....|--- .... ....
....|..|--- .... ....|G-5 2F.F ....|--- .... ....
....|..|--- .... ....|R-- .... ....|--- .... ....
....|..|--- .... ....|D-6 2F.F ....|--- .... ....
....|..|--- .... ....|R-- .... ....|--- .... ....
....|..|--- .... ....|C-5 2F.F ....|--- .... ....
....|..|--- .... ....|R-- .... ....|--- .... ....
....|..|--- .... ....|G-5 2F.F ....|--- .... ....
....|..|--- .... ....|R-- .... ....|--- .... ....
....|..|--- .... ....|D-6 2F.F ....|--- .... ....
....|..|--- .... ....|R-- .... ....|--- .... ....
....|..|--- .... ....|C-5 2F.F ....|--- .... ....
....|..|--- .... ....|C-5 2F.A ....|--- .... ....
....|..|--- .... ....|G-5 2F.F ....|--- .... ....
....|..|--- .... ....|R-- .... ....|--- .... ....
....|..|--- .... ....|E-6 2F.F ....|--- .... ....
....|..|--- .... ....|A-4 2F3F ....|--- .... ....
....|..|--- .... ....|D-5 2F.F ....|--- .... ....
....|..|--- .... ....|R-- .... ....|--- .... ....
....|..|--- .... ....|A-5 2F.F ....|--- .... ....
....|..|--- .... ....|R-- .... ....|--- .... ....
....|..|--- .... ....|E-6 2F.F ....|--- .... ....
....|..|--- .... ....|R-- .... ....|--- .... ....
....|..|--- .... ....|D-5 2F.F ....|--- .... ....
....|..|--- .... ....|C-5 2F.7 ....|--- .... ....
....|..|--- .... ....|A-5 2F.F ....|--- .... ....
 B-4|..|--- .... ....|B-4 2C.F ....|--- .... ....
....|..|--- .... ....|B-5 2F.F ....|--- .... ....
....|..|--- .... ....|R-- .... ....|--- .... ....
....|..|--- .... ....|D-5 2F.F ....|--- .... ....
 B-4|..|--- .... ....|B-4 2C.F ....|--- .... ....

[Pattern10]
....|..|--- .... ....|G-6 2F.F ....|--- .... ....
 E-4|..|--- .... ....|E-5 2C.F ....|--- .... ....
....|..|--- .... ....|E-5 2F.F ....|--- .... ....
....|..|--- .... ....|R-- .... ....|--- .... ....
....|..|--- .... ....|B-5 2F.F ....|--- .... ....
....|..|--- .... ....|R-- .... ....|--- .... ....
....|..|--- .... ....|G-6 2F.F ....|--- .... ....
....|..|--- .... ....|R-- .... ....|--- .... ....
....|..|--- .... ....|E-5 2F.F ....|--- .... ....
....|..|--- .... ....|A-4 2F37 ....|--- .... ....
....|..|--- .... ....|B-5 2F.F ....|--- .... ....
....|..|--- .... ....|R-- .... ....|--- .... ....
....|..|--- .... ....|G-6 2F.F ....|--- .... ....
....|..|--- .... ....|R-- .... ....|--- .... ....
....|..|--- .... ....|E-5 2F.F ....|--- .... ....
....|..|--- .... ....|R-- .... ....|--- .... ....
....|..|--- .... ....|B-5 2F.F ....|--- .... ....
....|..|--- .... ....|R-- .... ....|--- .... ....
....|..|--- .... ....|F#6 2F.F ....|--- .... ....
....|..|--- .... ....|B-4 2F.7 ....|--- .... ....
....|..|--- .... ....|E-5 2F.F ....|--- .... ....
....|..|--- .... ....|R-- .... ....|--- .... ....
....|..|--- .... ....|B-5 2F.F ....|--- .... ....
....|..|--- .... ....|B-4 2F.7 ....|--- .... ....
....|..|--- .... ....|F#6 2F.F ....|--- .... ....
....|..|--- .... ....|E-5 2F.7 ....|--- .... ....
....|..|--- .... ....|E-5 2F.F ....|--- .... ....
....|..|--- .... ....|R-- .... ....|--- .... ....
....|..|--- .... ....|B-5 2F.F ....|--- .... ....
....|..|--- .... ....|R-- .... ....|--- .... ....
....|..|--- .... ....|D-6 2F.F ....|--- .... ....
....|..|--- .... ....|R-- .... ....|--- .... ....
....|..|--- .... ....|C-5 2F.F ....|--- .... ....
 C-4|..|--- .... ....|C-5 2C.F ....|--- .... ....
....|..|--- .... ....|G-5 2F.F ....|--- .... ....
....|..|--- .... ....|R-- .... ....|--- .... ....
....|..|--- .... ....|D-6 2F.F ....|--- .... ....
....|..|--- .... ....|R-- .... ....|--- .... ....
....|..|--- .... ....|C-5 2F.F ....|--- .... ....
....|..|--- .... ....|R-- .... ....|--- .... ....
....|..|--- .... ....|G-5 2F.F ....|--- .... ....
....|..|--- .... ....|R-- .... ....|--- .... ....
....|..|--- .... ....|D-6 2F.F ....|--- .... ....
....|..|--- .... ....|R-- .... ....|--- .... ....
....|..|--- .... ....|C-5 2F.F ....|--- .... ....
....|..|--- .... ....|C-5 2F.A ....|--- .... ....
....|..|--- .... ....|G-5 2F.F ....|--- .... ....
....|..|--- .... ....|R-- .... ....|--- .... ....
....|..|--- .... ....|E-6 2F.F ....|--- .... ....
....|..|--- .... ....|A-4 2F3F ....|--- .... ....
....|..|--- .... ....|D-5 2F.F ....|--- .... ....
....|..|--- .... ....|R-- .... ....|--- .... ....
....|..|--- .... ....|A-5 2F.F ....|--- .... ....
....|..|--- .... ....|R-- .... ....|--- .... ....
....|..|--- .... ....|E-6 2F.F ....|--- .... ....
....|..|--- .... ....|R-- .... ....|--- .... ....
....|..|--- .... ....|D-5 2F.F ....|--- .... ....
....|..|--- .... ....|C-5 2F.7 ....|--- .... ....
....|..|--- .... ....|A-5 2F.F ....|--- .... ....
....|..|--- .... ....|R-- .... ....|--- .... ....
....|..|--- .... ....|B-5 2F.F ....|--- .... ....
 B-4|..|--- .... ....|B-4 2C.F ....|--- .... ....
....|..|--- .... ....|D-5 2F.F ....|--- .... ....
....|..|--- .... ....|R-- .... ....|--- .... ....
....|..|--- .... ....|G-6 2F.F ....|--- .... ....
 E-4|..|--- .... ....|E-5 2C.F ....|--- .... ....
....|..|--- .... ....|E-5 2F.F ....|--- .... ....
....|..|--- .... ....|R-- .... ....|--- .... ....
....|..|--- .... ....|B-5 2F.F ....|--- .... ....
....|..|--- .... ....|R-- .... ....|--- .... ....
....|..|--- .... ....|G-6 2F.F ....|--- .... ....
....|..|--- .... ....|R-- .... ....|--- .... ....
....|..|--- .... ....|E-5 2F.F ....|--- .... ....
....|..|--- .... ....|A-4 2F37 ....|--- .... ....
....|..|--- .... ....|B-5 2F.F ....|--- .... ....
....|..|--- .... ....|R-- .... ....|--- .... ....
....|..|--- .... ....|G-6 2F.F ....|--- .... ....
....|..|--- .... ....|R-- .... ....|--- .... ....
....|..|--- .... ....|E-5 2F.F ....|--- .... ....
....|..|--- .... ....|R-- .... ....|--- .... ....
....|..|--- .... ....|B-5 2F.F ....|--- .... ....
....|..|--- .... ....|R-- .... ....|--- .... ....
....|..|--- .... ....|F#6 2F.F ....|--- .... ....
....|..|--- .... ....|R-- .... ....|--- .... ....
....|..|--- .... ....|E-5 2F.F ....|--- .... ....
....|..|--- .... ....|B-4 2F.7 ....|--- .... ....
....|..|--- .... ....|B-5 2F.F ....|--- .... ....
....|..|--- .... ....|R-- .... ....|--- .... ....
....|..|--- .... ....|F#6 2F.F ....|--- .... ....
....|..|--- .... ....|E-5 2F.7 ....|--- .... ....
....|..|--- .... ....|E-5 2F.F ....|--- .... ....
....|..|--- .... ....|R-- .... ....|--- .... ....
....|..|--- .... ....|B-5 2F.F ....|--- .... ....
....|..|--- .... ....|R-- .... ....|--- .... ....
....|..|--- .... ....|D-6 2F.F ....|--- .... ....
....|..|--- .... ....|R-- .... ....|--- .... ....
....|..|--- .... ....|C-5 2F.F ....|--- .... ....
 C-4|..|--- .... ....|C-5 2C.F ....|--- .... ....
....|..|--- .... ....|G-5 2F.F ....|--- .... ....
....|..|--- .... ....|R-- .... ....|--- .... ....
....|..|--- .... ....|D-6 2F.F ....|--- .... ....
....|..|--- .... ....|R-- .... ....|--- .... ....
....|..|--- .... ....|C-5 2F.F ....|--- .... ....
....|..|--- .... ....|R-- .... ....|--- .... ....
....|..|--- .... ....|G-5 2F.F ....|--- .... ....
....|..|--- .... ....|R-- .... ....|--- .... ....
....|..|--- .... ....|D-6 2F.F ....|--- .... ....
....|..|--- .... ....|R-- .... ....|--- .... ....
....|..|--- .... ....|C-5 2F.F ....|--- .... ....
....|..|--- .... ....|C-5 2F.A ....|--- .... ....
....|..|--- .... ....|G-5 2F.F ....|--- .... ....
....|..|--- .... ....|R-- .... ....|--- .... ....
....|..|--- .... ....|E-6 2F.F ....|--- .... ....
....|..|--- .... ....|A-4 2F3F ....|--- .... ....
....|..|--- .... ....|D-5 2F.F ....|--- .... ....
....|..|--- .... ....|R-- .... ....|--- .... ....
....|..|--- .... ....|A-5 2F.F ....|--- .... ....
....|..|--- .... ....|R-- .... ....|--- .... ....
....|..|--- .... ....|E-6 2F.F ....|--- .... ....
....|..|--- .... ....|R-- .... ....|--- .... ....
....|..|--- .... ....|D-5 2F.F ....|--- .... ....
....|..|--- .... ....|C-5 2F.7 ....|--- .... ....
....|..|--- .... ....|A-5 2F.F ....|--- .... ....
 B-4|..|--- .... ....|B-4 2C.F ....|--- .... ....
....|..|--- .... ....|B-5 2F.F ....|--- .... ....
....|..|--- .... ....|R-- .... ....|--- .... ....
....|..|--- .... ....|D-5 2F.F ....|--- .... ....
 B-4|..|--- .... ....|B-4 2C.F ....|--- .... ....

[Pattern11]
 E-4|..|--- .... ....|E-5 2C.F ....|--- .... ....
....|..|--- .... ....|R-- .... ....|--- .... ....
....|..|--- .... ....|D-6 2F.7 ....|--- .... ....
....|..|--- .... ....|R-- .... ....|--- .... ....
....|..|--- .... ....|C-5 2F.7 ....|--- .... ....
....|..|--- .... ....|R-- .... ....|--- .... ....
....|..|--- .... ....|G-5 2F.7 ....|--- .... ....
....|..|--- .... ....|R-- .... ....|--- .... ....
....|..|--- .... ....|E-6 2F.7 ....|--- .... ....
....|..|--- .... ....|A-4 2F37 ....|--- .... ....
....|..|--- .... ....|D-5 2F.7 ....|--- .... ....
....|..|--- .... ....|R-- .... ....|--- .... ....
....|..|--- .... ....|A-5 2F.7 ....|--- .... ....
....|..|--- .... ....|R-- .... ....|--- .... ....
....|..|--- .... ....|E-6 2F.7 ....|--- .... ....
....|..|--- .... ....|R-- .... ....|--- .... ....
....|..|--- .... ....|D-5 2F.7 ....|--- .... ....
....|..|--- .... ....|R-- .... ....|--- .... ....
....|..|--- .... ....|A-5 2F.7 ....|--- .... ....
....|..|--- .... ....|B-4 2F.7 ....|--- .... ....
....|..|--- .... ....|B-5 2F.7 ....|--- .... ....
....|..|--- .... ....|R-- .... ....|--- .... ....
....|..|--- .... ....|D-5 2F.7 ....|--- .... ....
....|..|--- .... ....|B-4 2F.7 ....|--- .... ....
....|..|--- .... ....|E-5 2F.7 ....|--- .... ....
....|..|--- .... ....|--- .... ....|--- .... ....
....|..|--- .... ....|R-- .... ....|--- .... ....
....|..|--- .... ....|--- .... ....|--- .... ....
....|..|--- .... ....|--- .... ....|--- .... ....
....|..|--- .... ....|--- .... ....|--- .... ....
....|..|--- .... ....|--- .... ....|--- .... ....
....|..|--- .... ....|--- .... ....|--- .... ....
 C-4|..|--- .... ....|C-4 2C.F ....|--- .... ....
....|..|--- .... ....|--- .... ....|--- .... ....
....|..|--- .... ....|R-- .... ....|--- .... ....
....|..|--- .... ....|--- .... ....|--- .... ....
....|..|--- .... ....|--- .... ....|--- .... ....
....|..|--- .... ....|--- .... ....|--- .... ....
....|..|--- .... ....|--- .... ....|--- .... ....
....|..|--- .... ....|--- .... ....|--- .... ....
....|..|--- .... ....|--- .... ....|--- .... ....
....|..|--- .... ....|--- .... ....|--- .... ....
....|..|--- .... ....|--- .... ....|--- .... ....
....|..|--- .... ....|--- .... ....|--- .... ....
....|..|--- .... ....|C-4 2F.A ....|--- .... ....
....|..|--- .... ....|--- .... ....|--- .... ....
....|..|--- .... ....|R-- .... ....|--- .... ....
....|..|--- .... ....|--- .... ....|--- .... ....
....|..|--- .... ....|--- .... ....|--- .... ....
....|..|--- .... ....|--- .... ....|--- .... ....
....|..|--- .... ....|--- .... ....|--- .... ....
....|..|--- .... ....|--- .... ....|--- .... ....
....|..|--- .... ....|--- .... ....|--- .... ....
....|..|--- .... ....|--- .... ....|--- .... ....
....|..|--- .... ....|--- .... ....|--- .... ....
....|..|--- .... ....|--- .... ....|--- .... ....
....|..|--- .... ....|C-4 2F.7 ....|--- .... ....
....|..|--- .... ....|--- .... ....|--- .... ....
....|..|--- .... ....|R-- .... ....|--- .... ....
....|..|--- .... ....|--- .... ....|--- .... ....
 B-5|..|--- .... ....|B-3 2C.F ....|--- .... ....
....|..|--- .... ....|R-- .... ....|--- .... ....
....|..|--- .... ....|--- .... ....|--- .... ....
....|..|--- .... ....|--- .... ....|--- .... ....
 E-4|..|--- .... ....|E-4 2C.F ....|--- .... ....
....|..|--- .... ....|--- .... ....|--- .... ....
....|..|--- .... ....|--- .... ....|--- .... ....
....|..|--- .... ....|R-- .... ....|--- .... ....
....|..|--- .... ....|--- .... ....|--- .... ....
....|..|--- .... ....|--- .... ....|--- .... ....
....|..|--- .... ....|--- .... ....|--- .... ....
....|..|--- .... ....|--- .... ....|--- .... ....
....|..|--- .... ....|B-3 2F.A ....|--- .... ....
....|..|--- .... ....|R-- .... ....|--- .... ....
....|..|--- .... ....|--- .... ....|--- .... ....
....|..|--- .... ....|--- .... ....|--- .... ....
....|..|--- .... ....|E-4 2F.A ....|--- .... ....
....|..|--- .... ....|--- .... ....|--- .... ....
....|..|--- .... ....|--- .... ....|--- .... ....
....|..|--- .... ....|R-- .... ....|--- .... ....
....|..|--- .... ....|--- .... ....|--- .... ....
....|..|--- .... ....|--- .... ....|--- .... ....
....|..|--- .... ....|--- .... ....|--- .... ....
....|..|--- .... ....|--- .... ....|--- .... ....
....|..|--- .... ....|B-3 2F.7 ....|--- .... ....
....|..|--- .... ....|R-- .... ....|--- .... ....
....|..|--- .... ....|--- .... ....|--- .... ....
....|..|--- .... ....|--- .... ....|--- .... ....
....|..|--- .... ....|E-4 2F.7 ....|--- .... ....
....|..|--- .... ....|--- .... ....|--- .... ....
....|..|--- .... ....|--- .... ....|--- .... ....
....|..|--- .... ....|R-- .... ....|--- .... ....
....|..|--- .... ....|--- .... ....|--- .... ....
....|..|--- .... ....|--- .... ....|--- .... ....
....|..|--- .... ....|--- .... ....|--- .... ....
....|..|--- .... ....|--- .... ....|--- .... ....
....|..|--- .... ....|--- .... ....|--- .... ....
....|..|--- .... ....|--- .... ....|--- .... ....
....|..|--- .... ....|--- .... ....|--- .... ....
....|..|--- .... ....|--- .... ....|--- .... ....
 G-4|..|--- .... ....|G-3 2C.F ....|--- .... ....
....|..|--- .... ....|--- .... ....|--- .... ....
....|..|--- .... ....|--- .... ....|--- .... ....
....|..|--- .... ....|R-- .... ....|--- .... ....
 G-4|..|--- .... ....|G-4 2C.F ....|--- .... ....
....|..|--- .... ....|R-- .... ....|--- .... ....
 A-3|..|--- .... ....|A-3 2C.F ....|--- .... ....
....|..|--- .... ....|--- .... ....|--- .... ....
....|..|--- .... ....|--- .... ....|--- .... ....
....|..|--- .... ....|R-- .... ....|--- .... ....
 A-3|..|--- .... ....|A-4 2C.F ....|--- .... ....
....|..|--- .... ....|R-- .... ....|--- .... ....
 A#3|..|--- .... ....|A#3 2C.F ....|--- .... ....
....|..|--- .... ....|--- .... ....|--- .... ....
....|..|--- .... ....|--- .... ....|--- .... ....
....|..|--- .... ....|R-- .... ....|--- .... ....
 A#3|..|--- .... ....|A#4 2C.F ....|--- .... ....
....|..|--- .... ....|R-- .... ....|--- .... ....
 B-5|..|--- .... ....|B-3 2C.F ....|--- .... ....
....|..|--- .... ....|--- .... ....|--- .... ....
....|..|--- .... ....|--- .... ....|--- .... ....
....|..|--- .... ....|R-- .... ....|--- .... ....
 B-4|..|--- .... ....|B-4 2C.F ....|--- .... ....
....|..|--- .... ....|R-- .... ....|--- .... ....
 B-5|..|--- .... ....|B-3 2C.F ....|--- .... ....
....|..|--- .... ....|--- .... ....|--- .... ....
....|..|--- .... ....|--- .... ....|--- .... ....
....|..|--- .... ....|R-- .... ....|--- .... ....

[Pattern12]
 B-4|..|--- .... ....|B-4 2C.F ....|--- .... ....
....|..|--- .... ....|R-- .... ....|--- .... ....
 B-5|..|--- .... ....|B-3 2C.F ....|--- .... ....
....|..|--- .... ....|--- .... ....|--- .... ....
....|..|--- .... ....|--- .... ....|--- .... ....
....|..|--- .... ....|R-- .... ....|--- .... ....
 B-4|..|--- .... ....|B-4 2C.F ....|--- .... ....
....|..|--- .... ....|R-- .... ....|--- .... ....
 B-5|..|--- .... ....|B-3 2C.F ....|--- .... ....
....|..|--- .... ....|--- .... ....|--- .... ....
....|..|--- .... ....|--- .... ....|--- .... ....
....|..|--- .... ....|R-- .... ....|--- .... ....
 B-4|..|--- .... ....|B-4 2C.F ....|--- .... ....
....|..|--- .... ....|R-- .... ....|--- .... ....
 B-5|..|--- .... ....|B-3 2C.F ....|--- .... ....
....|..|--- .... ....|--- .... ....|--- .... ....
....|..|--- .... ....|--- .... ....|--- .... ....
....|..|--- .... ....|R-- .... ....|--- .... ....
 B-4|..|--- .... ....|B-4 2C.F ....|--- .... ....
....|..|--- .... ....|R-- .... ....|--- .... ....
 B-5|..|--- .... ....|B-3 2C.F ....|--- .... ....
....|..|--- .... ....|--- .... ....|--- .... ....
....|..|--- .... ....|--- .... ....|--- .... ....
....|..|--- .... ....|R-- .... ....|--- .... ....
 B-4|..|--- .... ....|B-4 2C.F ....|--- .... ....
....|..|--- .... ....|R-- .... ....|--- .... ....
 B-5|..|--- .... ....|B-3 2C.F ....|--- .... ....
....|..|--- .... ....|--- .... ....|--- .... ....
....|..|--- .... ....|--- .... ....|--- .... ....
....|..|--- .... ....|R-- .... ....|--- .... ....
....|..|--- .... ....|B-4 2F.7 ....|--- .... ....
....|..|--- .... ....|--- .... ....|--- .... ....
 E-4|..|--- .... ....|E-5 2C.F ....|--- .... ....
....|..|--- .... ....|--- .... ....|--- .... ....
 E-4|..|--- .... ....|E-4 2C.F ....|--- .... ....
....|..|--- .... ....|R-- .... ....|--- .... ....
....|..|--- .... ....|B-4 2F.7 ....|--- .... ....
....|..|--- .... ....|--- .... ....|--- .... ....
....|..|--- .... ....|B-3 2F.7 ....|--- .... ....
....|..|--- .... ....|--- .... ....|--- .... ....
....|..|--- .... ....|--- .... ....|--- .... ....
....|..|--- .... ....|R-- .... ....|--- .... ....
....|..|--- .... ....|B-4 2F.7 ....|--- .... ....
....|..|--- .... ....|--- .... ....|--- .... ....
....|..|--- .... ....|B-3 2F.7 ....|--- .... ....
....|..|--- .... ....|--- .... ....|--- .... ....
....|..|--- .... ....|E-4 2F.A ....|--- .... ....
....|..|--- .... ....|R-- .... ....|--- .... ....
....|..|--- .... ....|B-4 2F.7 ....|--- .... ....
....|..|--- .... ....|--- .... ....|--- .... ....
....|..|--- .... ....|B-3 2F.7 ....|--- .... ....
....|..|--- .... ....|--- .... ....|--- .... ....
....|..|--- .... ....|--- .... ....|--- .... ....
....|..|--- .... ....|R-- .... ....|--- .... ....
....|..|--- .... ....|--- .... ....|--- .... ....
....|..|--- .... ....|--- .... ....|--- .... ....
....|..|--- .... ....|E-5 2F.7 ....|--- .... ....
....|..|--- .... ....|--- .... ....|--- .... ....
....|..|--- .... ....|E-4 2F.7 ....|--- .... ....
....|..|--- .... ....|R-- .... ....|--- .... ....
....|..|--- .... ....|--- .... ....|--- .... ....
....|..|--- .... ....|--- .... ....|--- .... ....
....|..|--- .... ....|--- .... ....|--- .... ....
....|..|--- .... ....|--- .... ....|--- .... ....
....|..|--- .... ....|--- .... ....|--- .... ....
....|..|--- .... ....|--- .... ....|--- .... ....
....|..|--- .... ....|--- .... ....|--- .... ....
....|..|--- .... ....|--- .... ....|--- .... ....
....|..|--- .... ....|--- .... ....|--- .... ....
....|..|--- .... ....|--- .... ....|--- .... ....
....|..|--- .... ....|--- .... ....|--- .... ....
....|..|--- .... ....|--- .... ....|--- .... ....
....|..|--- .... ....|--- .... ....|--- .... ....
....|..|--- .... ....|--- .... ....|--- .... ....
....|..|--- .... ....|--- .... ....|--- .... ....
....|..|--- .... ....|--- .... ....|--- .... ....
....|..|--- .... ....|--- .... ....|--- .... ....
....|..|--- .... ....|--- .... ....|--- .... ....
....|..|--- .... ....|--- .... ....|--- .... ....
....|..|--- .... ....|--- .... ....|--- .... ....
....|..|--- .... ....|--- .... ....|--- .... ....
....|..|--- .... ....|--- .... ....|--- .... ....
....|..|--- .... ....|--- .... ....|--- .... ....
....|..|--- .... ....|--- .... ....|--- .... ....
....|..|--- .... ....|--- .... ....|--- .... ....
....|..|--- .... ....|--- .... ....|--- .... ....
....|..|--- .... ....|--- .... ....|--- .... ....
....|..|--- .... ....|--- .... ....|--- .... ....
....|..|--- .... ....|--- .... ....|--- .... ....
....|..|--- .... ....|--- .... ....|--- .... ....
....|..|--- .... ....|--- .... ....|--- .... ....
....|..|--- .... ....|--- .... ....|--- .... ....
....|..|--- .... ....|--- .... ....|--- .... ....
....|..|--- .... ....|--- .... ....|--- .... ....
....|..|--- .... ....|--- .... ....|--- .... ....
....|..|--- .... ....|--- .... ....|--- .... ....
 E-4|..|--- .... ....|E-5 2C.F ....|--- .... ....
....|..|--- .... ....|--- .... ....|--- .... ....
 E-4|..|--- .... ....|E-4 2C.F ....|--- .... ....
....|..|--- .... ....|R-- .... ....|--- .... ....
....|..|--- .... ....|--- .... ....|--- .... ....
....|..|--- .... ....|--- .... ....|--- .... ....
....|..|--- .... ....|--- .... ....|--- .... ....
....|..|--- .... ....|--- .... ....|--- .... ....
....|..|--- .... ....|--- .... ....|--- .... ....
....|..|--- .... ....|--- .... ....|--- .... ....
....|..|--- .... ....|--- .... ....|--- .... ....
....|..|--- .... ....|--- .... ....|--- .... ....
....|..|--- .... ....|E-5 2F.A ....|--- .... ....
....|..|--- .... ....|--- .... ....|--- .... ....
....|..|--- .... ....|E-4 2F.A ....|--- .... ....
....|..|--- .... ....|R-- .... ....|--- .... ....
....|..|--- .... ....|--- .... ....|--- .... ....
....|..|--- .... ....|--- .... ....|--- .... ....
....|..|--- .... ....|--- .... ....|--- .... ....
....|..|--- .... ....|--- .... ....|--- .... ....
....|..|--- .... ....|--- .... ....|--- .... ....
....|..|--- .... ....|--- .... ....|--- .... ....
....|..|--- .... ....|--- .... ....|--- .... ....
....|..|--- .... ....|--- .... ....|--- .... ....
....|..|--- .... ....|E-5 2F.7 ....|--- .... ....
....|..|--- .... ....|--- .... ....|--- .... ....
....|..|--- .... ....|E-4 2F.7 ....|--- .... ....
....|..|--- .... ....|R-- .... ....|--- .... ....
....|..|--- .... ....|--- .... ....|--- .... ....
....|..|--- .... ....|--- .... ....|--- .... ....
....|..|--- .... ....|--- .... ....|--- .... ....
....|..|--- .... ....|--- .... ....|--- .... ....

[Pattern13]
....|..|--- .... ....|--- .... ....|--- .... ....
....|..|--- .... ....|--- .... ....|--- .... ....
....|..|--- .... ....|--- .... ....|--- .... ....
....|..|--- .... ....|--- .... ....|--- .... ....
....|..|--- .... ....|--- .... ....|--- .... ....
....|..|--- .... ....|--- .... ....|--- .... ....
....|..|--- .... ....|--- .... ....|--- .... ....
....|..|--- .... ....|--- .... ....|--- .... ....
....|..|--- .... ....|--- .... ....|--- .... ....
....|..|--- .... ....|--- .... ....|--- .... ....
....|..|--- .... ....|--- .... ....|--- .... ....
....|..|--- .... ....|--- .... ....|--- .... ....
....|..|--- .... ....|--- .... ....|--- .... ....
....|..|--- .... ....|--- .... ....|--- .... ....
....|..|--- .... ....|--- .... ....|--- .... ....
....|..|--- .... ....|--- .... ....|--- .... ....
....|..|--- .... ....|--- .... ....|--- .... ....
....|..|--- .... ....|--- .... ....|--- .... ....
....|..|--- .... ....|--- .... ....|--- .... ....
....|..|--- .... ....|--- .... ....|--- .... ....
....|..|--- .... ....|--- .... ....|--- .... ....
....|..|--- .... ....|--- .... ....|--- .... ....
....|..|--- .... ....|--- .... ....|--- .... ....
....|..|--- .... ....|--- .... ....|--- .... ....
....|..|--- .... ....|--- .... ....|--- .... ....
....|..|--- .... ....|--- .... ....|--- .... ....
....|..|--- .... ....|--- .... ....|--- .... ....
....|..|--- .... ....|--- .... ....|--- .... ....
....|..|--- .... ....|--- .... ....|--- .... ....
....|..|--- .... ....|--- .... ....|--- .... ....
 B-4|..|--- .... ....|B-4 2C.F ....|--- .... ....
....|..|--- .... ....|R-- .... ....|--- .... ....
 E-4|..|--- .... ....|E-5 2C.F ....|--- .... ....
....|..|--- .... ....|--- .... ....|--- .... ....
 E-4|..|--- .... ....|E-4 2C.F ....|--- .... ....
....|..|--- .... ....|R-- .... ....|--- .... ....
....|..|--- .... ....|--- .... ....|--- .... ....
....|..|--- .... ....|--- .... ....|--- .... ....
....|..|--- .... ....|--- .... ....|--- .... ....
....|..|--- .... ....|--- .... ....|--- .... ....
....|..|--- .... ....|--- .... ....|--- .... ....
....|..|--- .... ....|--- .... ....|--- .... ....
....|..|--- .... ....|B-4 2F.A ....|--- .... ....
....|..|--- .... ....|R-- .... ....|--- .... ....
....|..|--- .... ....|E-5 2F.A ....|--- .... ....
....|..|--- .... ....|--- .... ....|--- .... ....
....|..|--- .... ....|E-4 2F.A ....|--- .... ....
....|..|--- .... ....|R-- .... ....|--- .... ....
....|..|--- .... ....|--- .... ....|--- .... ....
....|..|--- .... ....|--- .... ....|--- .... ....
....|..|--- .... ....|--- .... ....|--- .... ....
....|..|--- .... ....|--- .... ....|--- .... ....
....|..|--- .... ....|--- .... ....|--- .... ....
....|..|--- .... ....|--- .... ....|--- .... ....
....|..|--- .... ....|B-4 2F.7 ....|--- .... ....
....|..|--- .... ....|R-- .... ....|--- .... ....
....|..|--- .... ....|E-5 2F.7 ....|--- .... ....
....|..|--- .... ....|--- .... ....|--- .... ....
....|..|--- .... ....|E-4 2F.7 ....|--- .... ....
....|..|--- .... ....|R-- .... ....|--- .... ....
....|..|--- .... ....|--- .... ....|--- .... ....
....|..|--- .... ....|--- .... ....|--- .... ....
....|..|--- .... ....|--- .... ....|--- .... ....
....|..|--- .... ....|--- .... ....|--- .... ....
....|..|--- .... ....|--- .... ....|--- .... ....
....|..|--- .... ....|--- .... ....|--- .... ....
....|..|--- .... ....|--- .... ....|--- .... ....
....|..|--- .... ....|--- .... ....|--- .... ....
....|..|--- .... ....|--- .... ....|--- .... ....
....|..|--- .... ....|--- .... ....|--- .... ....
....|..|--- .... ....|--- .... ....|--- .... ....
....|..|--- .... ....|--- .... ....|--- .... ....
....|..|--- .... ....|--- .... ....|--- .... ....
....|..|--- .... ....|--- .... ....|--- .... ....
....|..|--- .... ....|--- .... ....|--- .... ....
....|..|--- .... ....|--- .... ....|--- .... ....
....|..|--- .... ....|--- .... ....|--- .... ....
....|..|--- .... ....|--- .... ....|--- .... ....
....|..|--- .... ....|--- .... ....|--- .... ....
....|..|--- .... ....|--- .... ....|--- .... ....
....|..|--- .... ....|--- .... ....|--- .... ....
....|..|--- .... ....|--- .... ....|--- .... ....
....|..|--- .... ....|--- .... ....|--- .... ....
....|..|--- .... ....|--- .... ....|--- .... ....
....|..|--- .... ....|--- .... ....|--- .... ....
....|..|--- .... ....|--- .... ....|--- .... ....
....|..|--- .... ....|--- .... ....|--- .... ....
....|..|--- .... ....|--- .... ....|--- .... ....
....|..|--- .... ....|--- .... ....|--- .... ....
....|..|--- .... ....|--- .... ....|--- .... ....
....|..|--- .... ....|--- .... ....|--- .... ....
....|..|--- .... ....|--- .... ....|--- .... ....
....|..|--- .... ....|--- .... ....|--- .... ....
....|..|--- .... ....|--- .... ....|--- .... ....
....|..|--- .... ....|--- .... ....|--- .... ....
....|..|--- .... ....|--- .... ....|--- .... ....
 E-4|..|--- .... ....|E-5 2C.F ....|--- .... ....
....|..|--- .... ....|--- .... ....|--- .... ....
 E-4|..|--- .... ....|E-4 2C.F ....|--- .... ....
....|..|--- .... ....|R-- .... ....|--- .... ....
....|..|--- .... ....|--- .... ....|--- .... ....
....|..|--- .... ....|--- .... ....|--- .... ....
....|..|--- .... ....|--- .... ....|--- .... ....
....|..|--- .... ....|--- .... ....|--- .... ....
....|..|--- .... ....|--- .... ....|--- .... ....
....|..|--- .... ....|--- .... ....|--- .... ....
....|..|--- .... ....|--- .... ....|--- .... ....
....|..|--- .... ....|--- .... ....|--- .... ....
....|..|--- .... ....|E-5 2F.A ....|--- .... ....
....|..|--- .... ....|--- .... ....|--- .... ....
....|..|--- .... ....|E-4 2F.A ....|--- .... ....
....|..|--- .... ....|R-- .... ....|--- .... ....
....|..|--- .... ....|--- .... ....|--- .... ....
....|..|--- .... ....|--- .... ....|--- .... ....
....|..|--- .... ....|--- .... ....|--- .... ....
....|..|--- .... ....|--- .... ....|--- .... ....
....|..|--- .... ....|--- .... ....|--- .... ....
....|..|--- .... ....|--- .... ....|--- .... ....
....|..|--- .... ....|--- .... ....|--- .... ....
....|..|--- .... ....|--- .... ....|--- .... ....
....|..|--- .... ....|E-5 2F.7 ....|--- .... ....
....|..|--- .... ....|--- .... ....|--- .... ....
....|..|--- .... ....|E-4 2F.7 ....|--- .... ....
....|..|--- .... ....|R-- .... ....|--- .... ....
....|..|--- .... ....|--- .... ....|--- .... ....
....|..|--- .... ....|--- .... ....|--- .... ....
....|..|--- .... ....|--- .... ....|--- .... ....
....|..|--- .... ....|--- .... ....|--- .... ....

[Pattern14]
....|..|--- .... ....|--- .... ....|--- .... ....
....|..|--- .... ....|--- .... ....|--- .... ....
....|..|--- .... ....|--- .... ....|--- .... ....
....|..|--- .... ....|--- .... ....|--- .... ....
 G-4|..|--- .... ....|G-3 2C.F ....|--- .... ....
....|..|--- .... ....|--- .... ....|--- .... ....
....|..|--- .... ....|--- .... ....|--- .... ....
....|..|--- .... ....|R-- .... ....|--- .... ....
....|..|--- .... ....|--- .... ....|--- .... ....
....|..|--- .... ....|--- .... ....|--- .... ....
....|..|--- .... ....|--- .... ....|--- .... ....
 A-3|..|--- .... ....|A-3 2C.F ....|--- .... ....
....|..|--- .... ....|--- .... ....|--- .... ....
....|..|--- .... ....|--- .... ....|--- .... ....
....|..|--- .... ....|R-- .... ....|--- .... ....
....|..|--- .... ....|--- .... ....|--- .... ....
 A#3|..|--- .... ....|A#3 2C.F ....|--- .... ....
....|..|--- .... ....|--- .... ....|--- .... ....
....|..|--- .... ....|--- .... ....|--- .... ....
....|..|--- .... ....|R-- .... ....|--- .... ....
....|..|--- .... ....|--- .... ....|--- .... ....
....|..|--- .... ....|--- .... ....|--- .... ....
 B-5|..|--- .... ....|B-3 2C.F ....|--- .... ....
....|..|--- .... ....|A-3 2F.A ....|--- .... ....
....|..|--- .... ....|--- .... ....|--- .... ....
....|..|--- .... ....|--- .... ....|--- .... ....
....|..|--- .... ....|R-- .... ....|--- .... ....
....|..|--- .... ....|--- .... ....|--- .... ....
 B-5|..|--- .... ....|B-3 2C.F ....|--- .... ....
....|..|--- .... ....|--- .... ....|--- .... ....
....|..|--- .... ....|--- .... ....|--- .... ....
....|..|--- .... ....|R-- .... ....|--- .... ....
....|..|--- .... ....|G-6 2F.F ....|--- .... ....
 E-4|..|--- .... ....|E-5 2C.F ....|--- .... ....
....|..|--- .... ....|E-5 2F.F ....|--- .... ....
 E-4|..|--- .... ....|E-4 2C.F ....|--- .... ....
....|..|--- .... ....|B-5 2F.F ....|--- .... ....
....|..|--- .... ....|R-- .... ....|--- .... ....
....|..|--- .... ....|G-6 2F.F ....|--- .... ....
....|..|--- .... ....|R-- .... ....|--- .... ....
....|..|--- .... ....|E-5 2F.F ....|--- .... ....
....|..|--- .... ....|--- .... ....|--- .... ....
....|..|--- .... ....|B-5 2F.F ....|--- .... ....
....|..|--- .... ....|R-- .... ....|--- .... ....
....|..|--- .... ....|G-6 2F.F ....|--- .... ....
....|..|--- .... ....|R-- .... ....|--- .... ....
....|..|--- .... ....|E-5 2F.F ....|--- .... ....
....|..|--- .... ....|E-4 2F.A ....|--- .... ....
....|..|--- .... ....|B-5 2F.F ....|--- .... ....
....|..|--- .... ....|R-- .... ....|--- .... ....
....|..|--- .... ....|F#6 2F.F ....|--- .... ....
....|..|--- .... ....|R-- .... ....|--- .... ....
....|..|--- .... ....|E-5 2F.F ....|--- .... ....
....|..|--- .... ....|--- .... ....|--- .... ....
....|..|--- .... ....|B-5 2F.F ....|--- .... ....
....|..|--- .... ....|R-- .... ....|--- .... ....
....|..|--- .... ....|F#6 2F.F ....|--- .... ....
....|..|--- .... ....|E-5 2F.7 ....|--- .... ....
....|..|--- .... ....|E-5 2F.F ....|--- .... ....
....|..|--- .... ....|E-4 2F.7 ....|--- .... ....
....|..|--- .... ....|B-5 2F.F ....|--- .... ....
....|..|--- .... ....|R-- .... ....|--- .... ....
....|..|--- .... ....|D-6 2F.F ....|--- .... ....
....|..|--- .... ....|R-- .... ....|--- .... ....
....|..|--- .... ....|C-5 2F.F ....|--- .... ....
 C-4|..|--- .... ....|C-5 2C.F ....|--- .... ....
....|..|--- .... ....|G-5 2F.F ....|--- .... ....
 C-4|..|--- .... ....|C-4 2C.F ....|--- .... ....
....|..|--- .... ....|D-6 2F.F ....|--- .... ....
....|..|--- .... ....|R-- .... ....|--- .... ....
....|..|--- .... ....|C-5 2F.F ....|--- .... ....
....|..|--- .... ....|R-- .... ....|--- .... ....
....|..|--- .... ....|G-5 2F.F ....|--- .... ....
....|..|--- .... ....|R-- .... ....|--- .... ....
....|..|--- .... ....|D-6 2F.F ....|--- .... ....
....|..|--- .... ....|R-- .... ....|--- .... ....
....|..|--- .... ....|C-5 2F.F ....|--- .... ....
....|..|--- .... ....|C-5 2F.A ....|--- .... ....
....|..|--- .... ....|G-5 2F.F ....|--- .... ....
....|..|--- .... ....|R-- .... ....|--- .... ....
....|..|--- .... ....|E-6 2F.F ....|--- .... ....
....|..|--- .... ....|R-- .... ....|--- .... ....
....|..|--- .... ....|D-5 2F.F ....|--- .... ....
....|..|--- .... ....|R-- .... ....|--- .... ....
....|..|--- .... ....|A-5 2F.F ....|--- .... ....
....|..|--- .... ....|R-- .... ....|--- .... ....
....|..|--- .... ....|E-6 2F.F ....|--- .... ....
....|..|--- .... ....|R-- .... ....|--- .... ....
....|..|--- .... ....|D-5 2F.F ....|--- .... ....
....|..|--- .... ....|C-5 2F.7 ....|--- .... ....
....|..|--- .... ....|A-5 2F.F ....|--- .... ....
....|..|--- .... ....|C-4 2F.7 ....|--- .... ....
....|..|--- .... ....|B-5 2F.F ....|--- .... ....
 B-4|..|--- .... ....|B-4 2C.F ....|--- .... ....
....|..|--- .... ....|D-5 2F.F ....|--- .... ....
 B-4|..|--- .... ....|B-4 2C.F ....|--- .... ....
....|..|--- .... ....|G-6 2F.F ....|--- .... ....
 E-4|..|--- .... ....|E-5 2C.F ....|--- .... ....
....|..|--- .... ....|E-5 2F.F ....|--- .... ....
....|..|--- .... ....|R-- .... ....|--- .... ....
....|..|--- .... ....|B-5 2F.F ....|--- .... ....
....|..|--- .... ....|R-- .... ....|--- .... ....
....|..|--- .... ....|G-6 2F.F ....|--- .... ....
....|..|--- .... ....|R-- .... ....|--- .... ....
....|..|--- .... ....|E-5 2F.F ....|--- .... ....
....|..|--- .... ....|R-- .... ....|--- .... ....
....|..|--- .... ....|B-5 2F.F ....|--- .... ....
....|..|--- .... ....|R-- .... ....|--- .... ....
....|..|--- .... ....|G-6 2F.F ....|--- .... ....
....|..|--- .... ....|R-- .... ....|--- .... ....
....|..|--- .... ....|E-5 2F.F ....|--- .... ....
....|..|--- .... ....|R-- .... ....|--- .... ....
....|..|--- .... ....|B-5 2F.F ....|--- .... ....
....|..|--- .... ....|R-- .... ....|--- .... ....
....|..|--- .... ....|F#6 2F.F ....|--- .... ....
....|..|--- .... ....|R-- .... ....|--- .... ....
....|..|--- .... ....|E-5 2F.F ....|--- .... ....
....|..|--- .... ....|B-4 2F.7 ....|--- .... ....
....|..|--- .... ....|B-5 2F.F ....|--- .... ....
....|..|--- .... ....|B-4 2F.7 ....|--- .... ....
....|..|--- .... ....|F#6 2F.F ....|--- .... ....
....|..|--- .... ....|E-5 2F.7 ....|--- .... ....
....|..|--- .... ....|E-5 2F.F ....|--- .... ....
....|..|--- .... ....|R-- .... ....|--- .... ....
....|..|--- .... ....|B-5 2F.F ....|--- .... ....
....|..|--- .... ....|R-- .... ....|--- .... ....
....|..|--- .... ....|D-6 2F.F ....|--- .... ....
....|..|--- .... ....|R-- .... ....|--- .... ....

[Pattern15]
....|..|--- .... ....|C-5 2F.F ....|--- .... ....
 C-4|..|--- .... ....|C-5 2C.F ....|--- .... ....
....|..|--- .... ....|G-5 2F.F ....|--- .... ....
....|..|--- .... ....|R-- .... ....|--- .... ....
....|..|--- .... ....|D-6 2F.F ....|--- .... ....
....|..|--- .... ....|R-- .... ....|--- .... ....
....|..|--- .... ....|C-5 2F.F ....|--- .... ....
....|..|--- .... ....|R-- .... ....|--- .... ....
....|..|--- .... ....|G-5 2F.F ....|--- .... ....
....|..|--- .... ....|R-- .... ....|--- .... ....
....|..|--- .... ....|D-6 2F.F ....|--- .... ....
....|..|--- .... ....|R-- .... ....|--- .... ....
....|..|--- .... ....|C-5 2F.F ....|--- .... ....
....|..|--- .... ....|C-5 2F.A ....|--- .... ....
....|..|--- .... ....|G-5 2F.F ....|--- .... ....
....|..|--- .... ....|R-- .... ....|--- .... ....
....|..|--- .... ....|E-6 2F.F ....|--- .... ....
....|..|--- .... ....|A-4 2F3F ....|--- .... ....
....|..|--- .... ....|D-5 2F.F ....|--- .... ....
....|..|--- .... ....|R-- .... ....|--- .... ....
....|..|--- .... ....|A-5 2F.F ....|--- .... ....
....|..|--- .... ....|R-- .... ....|--- .... ....
....|..|--- .... ....|E-6 2F.F ....|--- .... ....
....|..|--- .... ....|R-- .... ....|--- .... ....
....|..|--- .... ....|D-5 2F.F ....|--- .... ....
....|..|--- .... ....|C-5 2F.7 ....|--- .... ....
....|..|--- .... ....|A-5 2F.F ....|--- .... ....
 B-4|..|--- .... ....|B-4 2C.F ....|--- .... ....
....|..|--- .... ....|B-5 2F.F ....|--- .... ....
....|..|--- .... ....|R-- .... ....|--- .... ....
....|..|--- .... ....|D-5 2F.F ....|--- .... ....
 B-4|..|--- .... ....|B-4 2C.F ....|--- .... ....
....|..|--- .... ....|G-6 2F.F ....|--- .... ....
 E-4|..|--- .... ....|E-5 2C.F ....|--- .... ....
....|..|--- .... ....|E-5 2F.F ....|--- .... ....
....|..|--- .... ....|R-- .... ....|--- .... ....
....|..|--- .... ....|B-5 2F.F ....|--- .... ....
....|..|--- .... ....|R-- .... ....|--- .... ....
....|..|--- .... ....|G-6 2F.F ....|--- .... ....
....|..|--- .... ....|R-- .... ....|--- .... ....
....|..|--- .... ....|E-5 2F.F ....|--- .... ....
....|..|--- .... ....|A-4 2F37 ....|--- .... ....
....|..|--- .... ....|B-5 2F.F ....|--- .... ....
....|..|--- .... ....|R-- .... ....|--- .... ....
....|..|--- .... ....|G-6 2F.F ....|--- .... ....
....|..|--- .... ....|R-- .... ....|--- .... ....
....|..|--- .... ....|E-5 2F.F ....|--- .... ....
....|..|--- .... ....|R-- .... ....|--- .... ....
....|..|--- .... ....|B-5 2F.F ....|--- .... ....
....|..|--- .... ....|R-- .... ....|--- .... ....
....|..|--- .... ....|F#6 2F.F ....|--- .... ....
....|..|--- .... ....|B-4 2F.7 ....|--- .... ....
....|..|--- .... ....|E-5 2F.F ....|--- .... ....
....|..|--- .... ....|R-- .... ....|--- .... ....
....|..|--- .... ....|B-5 2F.F ....|--- .... ....
....|..|--- .... ....|B-4 2F.7 ....|--- .... ....
....|..|--- .... ....|F#6 2F.F ....|--- .... ....
....|..|--- .... ....|E-5 2F.7 ....|--- .... ....
....|..|--- .... ....|E-5 2F.F ....|--- .... ....
....|..|--- .... ....|R-- .... ....|--- .... ....
....|..|--- .... ....|B-5 2F.F ....|--- .... ....
....|..|--- .... ....|R-- .... ....|--- .... ....
....|..|--- .... ....|D-6 2F.F ....|--- .... ....
....|..|--- .... ....|R-- .... ....|--- .... ....
....|..|--- .... ....|C-5 2F.F ....|--- .... ....
 C-4|..|--- .... ....|C-5 2C.F ....|--- .... ....
....|..|--- .... ....|G-5 2F.F ....|--- .... ....
....|..|--- .... ....|R-- .... ....|--- .... ....
....|..|--- .... ....|D-6 2F.F ....|--- .... ....
....|..|--- .... ....|R-- .... ....|--- .... ....
....|..|--- .... ....|C-5 2F.F ....|--- .... ....
....|..|--- .... ....|R-- .... ....|--- .... ....
....|..|--- .... ....|G-5 2F.F ....|--- .... ....
....|..|--- .... ....|R-- .... ....|--- .... ....
....|..|--- .... ....|D-6 2F.F ....|--- .... ....
....|..|--- .... ....|R-- .... ....|--- .... ....
....|..|--- .... ....|C-5 2F.F ....|--- .... ....
....|..|--- .... ....|C-5 2F.A ....|--- .... ....
....|..|--- .... ....|G-5 2F.F ....|--- .... ....
....|..|--- .... ....|R-- .... ....|--- .... ....
....|..|--- .... ....|E-6 2F.F ....|--- .... ....
....|..|--- .... ....|A-4 2F3F ....|--- .... ....
....|..|--- .... ....|D-5 2F.F ....|--- .... ....
....|..|--- .... ....|R-- .... ....|--- .... ....
....|..|--- .... ....|A-5 2F.F ....|--- .... ....
....|..|--- .... ....|R-- .... ....|--- .... ....
....|..|--- .... ....|E-6 2F.F ....|--- .... ....
....|..|--- .... ....|R-- .... ....|--- .... ....
....|..|--- .... ....|D-5 2F.F ....|--- .... ....
....|..|--- .... ....|C-5 2F.7 ....|--- .... ....
....|..|--- .... ....|A-5 2F.F ....|--- .... ....
....|..|--- .... ....|R-- .... ....|--- .... ....
....|..|--- .... ....|B-5 2F.F ....|--- .... ....
 B-4|..|--- .... ....|B-4 2C.F ....|--- .... ....
....|..|--- .... ....|D-5 2F.F ....|--- .... ....
....|..|--- .... ....|R-- .... ....|--- .... ....
....|..|--- .... ....|G-6 2F.F ....|--- .... ....
 E-4|..|--- .... ....|E-5 2C.F ....|--- .... ....
....|..|--- .... ....|E-5 2F.F ....|--- .... ....
....|..|--- .... ....|R-- .... ....|--- .... ....
....|..|--- .... ....|B-5 2F.F ....|--- .... ....
....|..|--- .... ....|R-- .... ....|--- .... ....
....|..|--- .... ....|G-6 2F.F ....|--- .... ....
....|..|--- .... ....|R-- .... ....|--- .... ....
....|..|--- .... ....|E-5 2F.F ....|--- .... ....
....|..|--- .... ....|A-4 2F37 ....|--- .... ....
....|..|--- .... ....|B-5 2F.F ....|--- .... ....
....|..|--- .... ....|R-- .... ....|--- .... ....
....|..|--- .... ....|G-6 2F.F ....|--- .... ....
....|..|--- .... ....|R-- .... ....|--- .... ....
....|..|--- .... ....|E-5 2F.F ....|--- .... ....
....|..|--- .... ....|R-- .... ....|--- .... ....
....|..|--- .... ....|B-5 2F.F ....|--- .... ....
....|..|--- .... ....|R-- .... ....|--- .... ....
....|..|--- .... ....|F#6 2F.F ....|--- .... ....
....|..|--- .... ....|R-- .... ....|--- .... ....
....|..|--- .... ....|E-5 2F.F ....|--- .... ....
....|..|--- .... ....|B-4 2F.7 ....|--- .... ....
....|..|--- .... ....|B-5 2F.F ....|--- .... ....
....|..|--- .... ....|R-- .... ....|--- .... ....
....|..|--- .... ....|F#6 2F.F ....|--- .... ....
....|..|--- .... ....|E-5 2F.7 ....|--- .... ....
....|..|--- .... ....|E-5 2F.F ....|--- .... ....
....|..|--- .... ....|R-- .... ....|--- .... ....
....|..|--- .... ....|B-5 2F.F ....|--- .... ....
....|..|--- .... ....|R-- .... ....|--- .... ....
....|..|--- .... ....|D-6 2F.F ....|--- .... ....
....|..|--- .... ....|R-- .... ....|--- .... ....

[Pattern16]
....|..|--- .... ....|C-5 2F.F ....|--- .... ....
 C-4|..|--- .... ....|C-5 2C.F ....|--- .... ....
....|..|--- .... ....|G-5 2F.F ....|--- .... ....
....|..|--- .... ....|R-- .... ....|--- .... ....
....|..|--- .... ....|D-6 2F.F ....|--- .... ....
....|..|--- .... ....|R-- .... ....|--- .... ....
....|..|--- .... ....|C-5 2F.F ....|--- .... ....
....|..|--- .... ....|R-- .... ....|--- .... ....
....|..|--- .... ....|G-5 2F.F ....|--- .... ....
....|..|--- .... ....|R-- .... ....|--- .... ....
....|..|--- .... ....|D-6 2F.F ....|--- .... ....
....|..|--- .... ....|R-- .... ....|--- .... ....
....|..|--- .... ....|C-5 2F.F ....|--- .... ....
....|..|--- .... ....|C-5 2F.A ....|--- .... ....
....|..|--- .... ....|G-5 2F.F ....|--- .... ....
....|..|--- .... ....|R-- .... ....|--- .... ....
....|..|--- .... ....|E-6 2F.F ....|--- .... ....
....|..|--- .... ....|A-4 2F3F ....|--- .... ....
....|..|--- .... ....|D-5 2F.F ....|--- .... ....
....|..|--- .... ....|R-- .... ....|--- .... ....
....|..|--- .... ....|A-5 2F.F ....|--- .... ....
....|..|--- .... ....|R-- .... ....|--- .... ....
....|..|--- .... ....|E-6 2F.F ....|--- .... ....
....|..|--- .... ....|R-- .... ....|--- .... ....
....|..|--- .... ....|D-5 2F.F ....|--- .... ....
....|..|--- .... ....|C-5 2F.7 ....|--- .... ....
....|..|--- .... ....|A-5 2F.F ....|--- .... ....
 B-4|..|--- .... ....|B-4 2C.F ....|--- .... ....
....|..|--- .... ....|B-5 2F.F ....|--- .... ....
....|..|--- .... ....|R-- .... ....|--- .... ....
....|..|--- .... ....|D-5 2F.F ....|--- .... ....
 B-4|..|--- .... ....|B-4 2C.F ....|--- .... ....
 E-4|..|--- .... ....|E-5 2C.F ....|--- .... ....
....|..|--- .... ....|R-- .... ....|--- .... ....
....|..|--- .... ....|D-6 2F.7 ....|--- .... ....
....|..|--- .... ....|R-- .... ....|--- .... ....
....|..|--- .... ....|C-5 2F.7 ....|--- .... ....
....|..|--- .... ....|R-- .... ....|--- .... ....
....|..|--- .... ....|G-5 2F.7 ....|--- .... ....
....|..|--- .... ....|R-- .... ....|--- .... ....
....|..|--- .... ....|E-6 2F.7 ....|--- .... ....
....|..|--- .... ....|A-4 2F37 ....|--- .... ....
....|..|--- .... ....|D-5 2F.7 ....|--- .... ....
....|..|--- .... ....|R-- .... ....|--- .... ....
....|..|--- .... ....|A-5 2F.7 ....|--- .... ....
....|..|--- .... ....|R-- .... ....|--- .... ....
....|..|--- .... ....|E-6 2F.7 ....|--- .... ....
....|..|--- .... ....|R-- .... ....|--- .... ....
....|..|--- .... ....|D-5 2F.7 ....|--- .... ....
....|..|--- .... ....|R-- .... ....|--- .... ....
....|..|--- .... ....|A-5 2F.7 ....|--- .... ....
....|..|--- .... ....|B-4 2F.7 ....|--- .... ....
....|..|--- .... ....|B-5 2F.7 ....|--- .... ....
....|..|--- .... ....|R-- .... ....|--- .... ....
....|..|--- .... ....|D-5 2F.7 ....|--- .... ....
....|..|--- .... ....|B-4 2F.7 ....|--- .... ....
....|..|--- .... ....|E-5 2F.7 ....|--- .... ....
....|..|--- .... ....|--- .... ....|--- .... ....
....|..|--- .... ....|R-- .... ....|--- .... ....
....|..|--- .... ....|--- .... ....|--- .... ....
....|..|--- .... ....|--- .... ....|--- .... ....
....|..|--- .... ....|--- .... ....|--- .... ....
....|..|--- .... ....|--- .... ....|--- .... ....
....|..|--- .... ....|--- .... ....|--- .... ....
 C-4|..|--- .... ....|C-4 2C.F ....|--- .... ....
....|..|--- .... ....|--- .... ....|--- .... ....
....|..|--- .... ....|R-- .... ....|--- .... ....
....|..|--- .... ....|--- .... ....|--- .... ....
....|..|--- .... ....|--- .... ....|--- .... ....
....|..|--- .... ....|--- .... ....|--- .... ....
....|..|--- .... ....|--- .... ....|--- .... ....
....|..|--- .... ....|--- .... ....|--- .... ....
....|..|--- .... ....|--- .... ....|--- .... ....
....|..|--- .... ....|--- .... ....|--- .... ....
....|..|--- .... ....|--- .... ....|--- .... ....
....|..|--- .... ....|--- .... ....|--- .... ....
....|..|--- .... ....|C-4 2F.A ....|--- .... ....
....|..|--- .... ....|--- .... ....|--- .... ....
....|..|--- .... ....|R-- .... ....|--- .... ....
....|..|--- .... ....|--- .... ....|--- .... ....
....|..|--- .... ....|--- .... ....|--- .... ....
....|..|--- .... ....|--- .... ....|--- .... ....
....|..|--- .... ....|--- .... ....|--- .... ....
....|..|--- .... ....|--- .... ....|--- .... ....
....|..|--- .... ....|--- .... ....|--- .... ....
....|..|--- .... ....|--- .... ....|--- .... ....
....|..|--- .... ....|--- .... ....|--- .... ....
....|..|--- .... ....|--- .... ....|--- .... ....
....|..|--- .... ....|C-4 2F.7 ....|--- .... ....
....|..|--- .... ....|--- .... ....|--- .... ....
....|..|--- .... ....|R-- .... ....|--- .... ....
....|..|--- .... ....|--- .... ....|--- .... ....
 B-5|..|--- .... ....|B-3 2C.F ....|--- .... ....
....|..|--- .... ....|R-- .... ....|--- .... ....
....|..|--- .... ....|--- .... ....|--- .... ....
....|..|--- .... ....|--- .... ....|--- .... ....
 E-4|..|--- .... ....|E-4 2C.F ....|--- .... ....
....|..|--- .... ....|--- .... ....|--- .... ....
....|..|--- .... ....|--- .... ....|--- .... ....
....|..|--- .... ....|R-- .... ....|--- .... ....
....|..|--- .... ....|--- .... ....|--- .... ....
....|..|--- .... ....|--- .... ....|--- .... ....
....|..|--- .... ....|--- .... ....|--- .... ....
....|..|--- .... ....|--- .... ....|--- .... ....
....|..|--- .... ....|B-3 2F.A ....|--- .... ....
....|..|--- .... ....|R-- .... ....|--- .... ....
....|..|--- .... ....|--- .... ....|--- .... ....
....|..|--- .... ....|--- .... ....|--- .... ....
....|..|--- .... ....|E-4 2F.A ....|--- .... ....
....|..|--- .... ....|--- .... ....|--- .... ....
....|..|--- .... ....|--- .... ....|--- .... ....
....|..|--- .... ....|R-- .... ....|--- .... ....
....|..|--- .... ....|--- .... ....|--- .... ....
....|..|--- .... ....|--- .... ....|--- .... ....
....|..|--- .... ....|--- .... ....|--- .... ....
....|..|--- .... ....|--- .... ....|--- .... ....
....|..|--- .... ....|B-3 2F.7 ....|--- .... ....
....|..|--- .... ....|R-- .... ....|--- .... ....
....|..|--- .... ....|--- .... ....|--- .... ....
....|..|--- .... ....|--- .... ....|--- .... ....
....|..|--- .... ....|E-4 2F.7 ....|--- .... ....
....|..|--- .... ....|--- .... ....|--- .... ....
....|..|--- .... ....|--- .... ....|--- .... ....
....|..|--- .... ....|R-- .... ....|--- .... ....
....|..|--- .... ....|--- .... ....|--- .... ....
....|..|--- .... ....|--- .... ....|--- .... ....
....|..|--- .... ....|--- .... ....|--- .... ....
....|..|--- .... ....|--- .... ....|--- .... ....

[Pattern17]
 C-4|..|--- .... ....|C-4 2C.F ....|--- .... ....
....|..|--- .... ....|--- .... ....|--- .... ....
....|..|--- .... ....|R-- .... ....|--- .... ....
....|..|--- .... ....|--- .... ....|--- .... ....
....|..|--- .... ....|--- .... ....|--- .... ....
....|..|--- .... ....|--- .... ....|--- .... ....
....|..|--- .... ....|--- .... ....|--- .... ....
....|..|--- .... ....|--- .... ....|--- .... ....
....|..|--- .... ....|--- .... ....|--- .... ....
....|..|--- .... ....|--- .... ....|--- .... ....
....|..|--- .... ....|--- .... ....|--- .... ....
....|..|--- .... ....|--- .... ....|--- .... ....
....|..|--- .... ....|C-4 2F.A ....|--- .... ....
....|..|--- .... ....|--- .... ....|--- .... ....
....|..|--- .... ....|R-- .... ....|--- .... ....
....|..|--- .... ....|--- .... ....|--- .... ....
....|..|--- .... ....|--- .... ....|--- .... ....
....|..|--- .... ....|--- .... ....|--- .... ....
....|..|--- .... ....|--- .... ....|--- .... ....
....|..|--- .... ....|--- .... ....|--- .... ....
....|..|--- .... ....|--- .... ....|--- .... ....
....|..|--- .... ....|--- .... ....|--- .... ....
....|..|--- .... ....|--- .... ....|--- .... ....
....|..|--- .... ....|--- .... ....|--- .... ....
....|..|--- .... ....|C-4 2F.7 ....|--- .... ....
....|..|--- .... ....|--- .... ....|--- .... ....
....|..|--- .... ....|R-- .... ....|--- .... ....
....|..|--- .... ....|--- .... ....|--- .... ....
 B-5|..|--- .... ....|B-3 2C.F ....|--- .... ....
....|..|--- .... ....|--- .... ....|--- .... ....
....|..|--- .... ....|R-- .... ....|--- .... ....
....|..|--- .... ....|--- .... ....|--- .... ....
 E-4|..|--- .... ....|E-5 2C.F ....|--- .... ....
....|..|--- .... ....|--- .... ....|--- .... ....
....|..|--- .... ....|R-- .... ....|--- .... ....
....|..|--- .... ....|--- .... ....|--- .... ....
....|..|--- .... ....|--- .... ....|--- .... ....
....|..|--- .... ....|--- .... ....|--- .... ....
....|..|--- .... ....|--- .... ....|--- .... ....
....|..|--- .... ....|--- .... ....|--- .... ....
....|..|--- .... ....|B-3 2F.A ....|--- .... ....
....|..|--- .... ....|--- .... ....|--- .... ....
....|..|--- .... ....|R-- .... ....|--- .... ....
....|..|--- .... ....|--- .... ....|--- .... ....
....|..|--- .... ....|E-5 2F.A ....|--- .... ....
....|..|--- .... ....|--- .... ....|--- .... ....
....|..|--- .... ....|R-- .... ....|--- .... ....
....|..|--- .... ....|--- .... ....|--- .... ....
....|..|--- .... ....|--- .... ....|--- .... ....
....|..|--- .... ....|--- .... ....|--- .... ....
....|..|--- .... ....|--- .... ....|--- .... ....
....|..|--- .... ....|--- .... ....|--- .... ....
....|..|--- .... ....|B-3 2F.7 ....|--- .... ....
....|..|--- .... ....|--- .... ....|--- .... ....
....|..|--- .... ....|R-- .... ....|--- .... ....
....|..|--- .... ....|--- .... ....|--- .... ....
....|..|--- .... ....|E-5 2F.7 ....|--- .... ....
....|..|--- .... ....|--- .... ....|--- .... ....
....|..|--- .... ....|R-- .... ....|--- .... ....
....|..|--- .... ....|--- .... ....|--- .... ....
....|..|--- .... ....|--- .... ....|--- .... ....
....|..|--- .... ....|--- .... ....|--- .... ....
....|..|--- .... ....|--- .... ....|--- .... ....
....|..|--- .... ....|--- .... ....|--- .... ....
 C-4|..|--- .... ....|C-4 2C.F ....|--- .... ....
....|..|--- .... ....|--- .... ....|--- .... ....
....|..|--- .... ....|R-- .... ....|--- .... ....
....|..|--- .... ....|--- .... ....|--- .... ....
....|..|--- .... ....|--- .... ....|--- .... ....
....|..|--- .... ....|--- .... ....|--- .... ....
....|..|--- .... ....|--- .... ....|--- .... ....
....|..|--- .... ....|--- .... ....|--- .... ....
....|..|--- .... ....|--- .... ....|--- .... ....
....|..|--- .... ....|--- .... ....|--- .... ....
....|..|--- .... ....|--- .... ....|--- .... ....
....|..|--- .... ....|--- .... ....|--- .... ....
....|..|--- .... ....|C-4 2F.A ....|--- .... ....
....|..|--- .... ....|--- .... ....|--- .... ....
....|..|--- .... ....|R-- .... ....|--- .... ....
....|..|--- .... ....|--- .... ....|--- .... ....
....|..|--- .... ....|--- .... ....|--- .... ....
....|..|--- .... ....|--- .... ....|--- .... ....
....|..|--- .... ....|--- .... ....|--- .... ....
....|..|--- .... ....|--- .... ....|--- .... ....
....|..|--- .... ....|--- .... ....|--- .... ....
....|..|--- .... ....|--- .... ....|--- .... ....
....|..|--- .... ....|--- .... ....|--- .... ....
....|..|--- .... ....|--- .... ....|--- .... ....
....|..|--- .... ....|C-4 2F.7 ....|--- .... ....
....|..|--- .... ....|--- .... ....|--- .... ....
....|..|--- .... ....|R-- .... ....|--- .... ....
....|..|--- .... ....|--- .... ....|--- .... ....
 B-5|..|--- .... ....|B-3 2C.F ....|--- .... ....
....|..|--- .... ....|R-- .... ....|--- .... ....
....|..|--- .... ....|--- .... ....|--- .... ....
....|..|--- .... ....|--- .... ....|--- .... ....
 E-4|..|--- .... ....|E-4 2C.F ....|--- .... ....
....|..|--- .... ....|--- .... ....|--- .... ....
....|..|--- .... ....|--- .... ....|--- .... ....
....|..|--- .... ....|R-- .... ....|--- .... ....
....|..|--- .... ....|--- .... ....|--- .... ....
....|..|--- .... ....|--- .... ....|--- .... ....
....|..|--- .... ....|--- .... ....|--- .... ....
....|..|--- .... ....|--- .... ....|--- .... ....
....|..|--- .... ....|B-3 2F.A ....|--- .... ....
....|..|--- .... ....|R-- .... ....|--- .... ....
....|..|--- .... ....|--- .... ....|--- .... ....
....|..|--- .... ....|--- .... ....|--- .... ....
....|..|--- .... ....|E-4 2F.A ....|--- .... ....
....|..|--- .... ....|--- .... ....|--- .... ....
....|..|--- .... ....|--- .... ....|--- .... ....
....|..|--- .... ....|R-- .... ....|--- .... ....
....|..|--- .... ....|--- .... ....|--- .... ....
....|..|--- .... ....|--- .... ....|--- .... ....
....|..|--- .... ....|--- .... ....|--- .... ....
....|..|--- .... ....|--- .... ....|--- .... ....
....|..|--- .... ....|B-3 2F.7 ....|--- .... ....
....|..|--- .... ....|R-- .... ....|--- .... ....
....|..|--- .... ....|--- .... ....|--- .... ....
....|..|--- .... ....|--- .... ....|--- .... ....
....|..|--- .... ....|E-4 2F.7 ....|--- .... ....
....|..|--- .... ....|--- .... ....|--- .... ....
....|..|--- .... ....|--- .... ....|--- .... ....
....|..|--- .... ....|R-- .... ....|--- .... ....
....|..|--- .... ....|--- .... ....|--- .... ....
....|..|--- .... ....|--- .... ....|--- .... ....
....|..|--- .... ....|--- .... ....|--- .... ....
....|..|--- .... ....|--- .... ....|--- .... ....

[Pattern18]
 C-4|..|--- .... ....|C-5 2C.F ....|--- .... ....
....|..|--- .... ....|--- .... ....|--- .... ....
....|..|--- .... ....|R-- .... ....|--- .... ....
....|..|--- .... ....|--- .... ....|--- .... ....
....|..|--- .... ....|--- .... ....|--- .... ....
....|..|--- .... ....|--- .... ....|--- .... ....
....|..|--- .... ....|--- .... ....|--- .... ....
....|..|--- .... ....|--- .... ....|--- .... ....
....|..|--- .... ....|--- .... ....|--- .... ....
....|..|--- .... ....|--- .... ....|--- .... ....
....|..|--- .... ....|--- .... ....|--- .... ....
....|..|--- .... ....|--- .... ....|--- .... ....
....|..|--- .... ....|C-5 2F.A ....|--- .... ....
....|..|--- .... ....|--- .... ....|--- .... ....
....|..|--- .... ....|R-- .... ....|--- .... ....
....|..|--- .... ....|--- .... ....|--- .... ....
....|..|--- .... ....|--- .... ....|--- .... ....
....|..|--- .... ....|--- .... ....|--- .... ....
....|..|--- .... ....|--- .... ....|--- .... ....
....|..|--- .... ....|--- .... ....|--- .... ....
....|..|--- .... ....|--- .... ....|--- .... ....
....|..|--- .... ....|--- .... ....|--- .... ....
....|..|--- .... ....|--- .... ....|--- .... ....
....|..|--- .... ....|--- .... ....|--- .... ....
....|..|--- .... ....|C-5 2F.7 ....|--- .... ....
....|..|--- .... ....|--- .... ....|--- .... ....
....|..|--- .... ....|R-- .... ....|--- .... ....
....|..|--- .... ....|--- .... ....|--- .... ....
 B-4|..|--- .... ....|B-4 2C.F ....|--- .... ....
 B-4|..|--- .... ....|B-4 2C.F ....|--- .... ....
....|..|--- .... ....|R-- .... ....|--- .... ....
....|..|--- .... ....|--- .... ....|--- .... ....
....|..|--- .... ....|G-6 2F.F ....|--- .... ....
 E-4|..|--- .... ....|E-4 2C.F ....|--- .... ....
....|..|--- .... ....|E-5 2F.F ....|--- .... ....
....|..|--- .... ....|R-- .... ....|--- .... ....
....|..|--- .... ....|B-5 2F.F ....|--- .... ....
....|..|--- .... ....|R-- .... ....|--- .... ....
....|..|--- .... ....|G-6 2F.F ....|--- .... ....
....|..|--- .... ....|R-- .... ....|--- .... ....
....|..|--- .... ....|E-5 2F.F ....|--- .... ....
....|..|--- .... ....|B-4 2F.A ....|--- .... ....
....|..|--- .... ....|B-5 2F.F ....|--- .... ....
....|..|--- .... ....|R-- .... ....|--- .... ....
....|..|--- .... ....|G-6 2F.F ....|--- .... ....
....|..|--- .... ....|R-- .... ....|--- .... ....
....|..|--- .... ....|E-5 2F.F ....|--- .... ....
....|..|--- .... ....|R-- .... ....|--- .... ....
....|..|--- .... ....|B-5 2F.F ....|--- .... ....
....|..|--- .... ....|R-- .... ....|--- .... ....
....|..|--- .... ....|F#6 2F.F ....|--- .... ....
....|..|--- .... ....|R-- .... ....|--- .... ....
....|..|--- .... ....|E-5 2F.F ....|--- .... ....
....|..|--- .... ....|B-4 2F.7 ....|--- .... ....
....|..|--- .... ....|B-5 2F.F ....|--- .... ....
....|..|--- .... ....|R-- .... ....|--- .... ....
....|..|--- .... ....|F#6 2F.F ....|--- .... ....
....|..|--- .... ....|E-4 2F.7 ....|--- .... ....
....|..|--- .... ....|E-5 2F.F ....|--- .... ....
....|..|--- .... ....|R-- .... ....|--- .... ....
....|..|--- .... ....|B-5 2F.F ....|--- .... ....
....|..|--- .... ....|R-- .... ....|--- .... ....
....|..|--- .... ....|D-6 2F.F ....|--- .... ....
....|..|--- .... ....|R-- .... ....|--- .... ....
....|..|--- .... ....|C-5 2F.F ....|--- .... ....
 C-4|..|--- .... ....|C-4 2C.F ....|--- .... ....
....|..|--- .... ....|G-5 2F.F ....|--- .... ....
....|..|--- .... ....|R-- .... ....|--- .... ....
....|..|--- .... ....|D-6 2F.F ....|--- .... ....
....|..|--- .... ....|R-- .... ....|--- .... ....
....|..|--- .... ....|C-5 2F.F ....|--- .... ....
....|..|--- .... ....|R-- .... ....|--- .... ....
....|..|--- .... ....|G-5 2F.F ....|--- .... ....
....|..|--- .... ....|R-- .... ....|--- .... ....
....|..|--- .... ....|D-6 2F.F ....|--- .... ....
....|..|--- .... ....|R-- .... ....|--- .... ....
....|..|--- .... ....|C-5 2F.F ....|--- .... ....
....|..|--- .... ....|C-4 2F.A ....|--- .... ....
....|..|--- .... ....|G-5 2F.F ....|--- .... ....
....|..|--- .... ....|R-- .... ....|--- .... ....
....|..|--- .... ....|E-6 2F.F ....|--- .... ....
....|..|--- .... ....|R-- .... ....|--- .... ....
....|..|--- .... ....|D-5 2F.F ....|--- .... ....
....|..|--- .... ....|R-- .... ....|--- .... ....
....|..|--- .... ....|A-5 2F.F ....|--- .... ....
....|..|--- .... ....|R-- .... ....|--- .... ....
....|..|--- .... ....|E-6 2F.F ....|--- .... ....
....|..|--- .... ....|R-- .... ....|--- .... ....
....|..|--- .... ....|D-5 2F.F ....|--- .... ....
....|..|--- .... ....|C-4 2F.7 ....|--- .... ....
....|..|--- .... ....|A-5 2F.F ....|--- .... ....
....|..|--- .... ....|R-- .... ....|--- .... ....
....|..|--- .... ....|B-5 2F.F ....|--- .... ....
 B-5|..|--- .... ....|B-3 2C.F ....|--- .... ....
....|..|--- .... ....|D-5 2F.F ....|--- .... ....
....|..|--- .... ....|R-- .... ....|--- .... ....
....|..|--- .... ....|G-6 2F.F ....|--- .... ....
 E-4|..|--- .... ....|E-4 2C.F ....|--- .... ....
....|..|--- .... ....|E-5 2F.F ....|--- .... ....
....|..|--- .... ....|R-- .... ....|--- .... ....
....|..|--- .... ....|B-5 2F.F ....|--- .... ....
....|..|--- .... ....|R-- .... ....|--- .... ....
....|..|--- .... ....|G-6 2F.F ....|--- .... ....
....|..|--- .... ....|R-- .... ....|--- .... ....
....|..|--- .... ....|E-5 2F.F ....|--- .... ....
....|..|--- .... ....|R-- .... ....|--- .... ....
....|..|--- .... ....|B-5 2F.F ....|--- .... ....
....|..|--- .... ....|R-- .... ....|--- .... ....
....|..|--- .... ....|G-6 2F.F ....|--- .... ....
....|..|--- .... ....|R-- .... ....|--- .... ....
....|..|--- .... ....|E-5 2F.F ....|--- .... ....
....|..|--- .... ....|R-- .... ....|--- .... ....
....|..|--- .... ....|B-5 2F.F ....|--- .... ....
....|..|--- .... ....|R-- .... ....|--- .... ....
....|..|--- .... ....|F#6 2F.F ....|--- .... ....
....|..|--- .... ....|R-- .... ....|--- .... ....
....|..|--- .... ....|E-5 2F.F ....|--- .... ....
....|..|--- .... ....|B-3 2F.7 ....|--- .... ....
....|..|--- .... ....|B-5 2F.F ....|--- .... ....
....|..|--- .... ....|R-- .... ....|--- .... ....
....|..|--- .... ....|F#6 2F.F ....|--- .... ....
....|..|--- .... ....|E-4 2F.7 ....|--- .... ....
....|..|--- .... ....|E-5 2F.F ....|--- .... ....
....|..|--- .... ....|R-- .... ....|--- .... ....
....|..|--- .... ....|B-5 2F.F ....|--- .... ....
....|..|--- .... ....|R-- .... ....|--- .... ....
....|..|--- .... ....|D-6 2F.F ....|--- .... ....
....|..|--- .... ....|R-- .... ....|--- .... ....

[Pattern19]
....|..|--- .... ....|C-5 2F.F ....|--- .... ....
 C-4|..|--- .... ....|C-4 2C.F ....|--- .... ....
....|..|--- .... ....|G-5 2F.F ....|--- .... ....
....|..|--- .... ....|R-- .... ....|--- .... ....
....|..|--- .... ....|D-6 2F.F ....|--- .... ....
....|..|--- .... ....|R-- .... ....|--- .... ....
....|..|--- .... ....|C-5 2F.F ....|--- .... ....
....|..|--- .... ....|R-- .... ....|--- .... ....
....|..|--- .... ....|G-5 2F.F ....|--- .... ....
....|..|--- .... ....|R-- .... ....|--- .... ....
....|..|--- .... ....|D-6 2F.F ....|--- .... ....
....|..|--- .... ....|R-- .... ....|--- .... ....
....|..|--- .... ....|C-5 2F.F ....|--- .... ....
....|..|--- .... ....|C-4 2F.A ....|--- .... ....
....|..|--- .... ....|G-5 2F.F ....|--- .... ....
....|..|--- .... ....|R-- .... ....|--- .... ....
....|..|--- .... ....|E-6 2F.F ....|--- .... ....
....|..|--- .... ....|R-- .... ....|--- .... ....
....|..|--- .... ....|D-5 2F.F ....|--- .... ....
....|..|--- .... ....|R-- .... ....|--- .... ....
....|..|--- .... ....|A-5 2F.F ....|--- .... ....
....|..|--- .... ....|R-- .... ....|--- .... ....
....|..|--- .... ....|E-6 2F.F ....|--- .... ....
....|..|--- .... ....|R-- .... ....|--- .... ....
....|..|--- .... ....|D-5 2F.F ....|--- .... ....
....|..|--- .... ....|C-4 2F.7 ....|--- .... ....
....|..|--- .... ....|A-5 2F.F ....|--- .... ....
....|..|--- .... ....|R-- .... ....|--- .... ....
....|..|--- .... ....|B-5 2F.F ....|--- .... ....
....|..|--- .... ....|R-- .... ....|--- .... ....
....|..|--- .... ....|D-5 2F.F ....|--- .... ....
 B-5|..|--- .... ....|B-3 2C.F ....|--- .... ....
....|..|--- .... ....|G-6 2F.F ....|--- .... ....
 E-4|..|--- .... ....|E-4 2C.F ....|--- .... ....
....|..|--- .... ....|E-5 2F.F ....|--- .... ....
....|..|--- .... ....|R-- .... ....|--- .... ....
....|..|--- .... ....|B-5 2F.F ....|--- .... ....
....|..|--- .... ....|R-- .... ....|--- .... ....
....|..|--- .... ....|G-6 2F.F ....|--- .... ....
....|..|--- .... ....|R-- .... ....|--- .... ....
....|..|--- .... ....|E-5 2F.F ....|--- .... ....
....|..|--- .... ....|R-- .... ....|--- .... ....
....|..|--- .... ....|B-5 2F.F ....|--- .... ....
....|..|--- .... ....|R-- .... ....|--- .... ....
....|..|--- .... ....|G-6 2F.F ....|--- .... ....
....|..|--- .... ....|R-- .... ....|--- .... ....
....|..|--- .... ....|E-5 2F.F ....|--- .... ....
....|..|--- .... ....|R-- .... ....|--- .... ....
....|..|--- .... ....|B-5 2F.F ....|--- .... ....
....|..|--- .... ....|R-- .... ....|--- .... ....
....|..|--- .... ....|F#6 2F.F ....|--- .... ....
....|..|--- .... ....|R-- .... ....|--- .... ....
....|..|--- .... ....|E-5 2F.F ....|--- .... ....
....|..|--- .... ....|R-- .... ....|--- .... ....
....|..|--- .... ....|B-5 2F.F ....|--- .... ....
....|..|--- .... ....|B-3 2F.7 ....|--- .... ....
....|..|--- .... ....|F#6 2F.F ....|--- .... ....
....|..|--- .... ....|E-4 2F.7 ....|--- .... ....
....|..|--- .... ....|E-5 2F.F ....|--- .... ....
....|..|--- .... ....|R-- .... ....|--- .... ....
....|..|--- .... ....|B-5 2F.F ....|--- .... ....
....|..|--- .... ....|R-- .... ....|--- .... ....
....|..|--- .... ....|D-6 2F.F ....|--- .... ....
....|..|--- .... ....|R-- .... ....|--- .... ....
....|..|--- .... ....|C-5 2F.F ....|--- .... ....
 C-4|..|--- .... ....|C-4 2C.F ....|--- .... ....
....|..|--- .... ....|G-5 2F.F ....|--- .... ....
....|..|--- .... ....|R-- .... ....|--- .... ....
....|..|--- .... ....|D-6 2F.F ....|--- .... ....
....|..|--- .... ....|R-- .... ....|--- .... ....
....|..|--- .... ....|C-5 2F.F ....|--- .... ....
....|..|--- .... ....|R-- .... ....|--- .... ....
....|..|--- .... ....|G-5 2F.F ....|--- .... ....
....|..|--- .... ....|R-- .... ....|--- .... ....
....|..|--- .... ....|D-6 2F.F ....|--- .... ....
....|..|--- .... ....|R-- .... ....|--- .... ....
....|..|--- .... ....|C-5 2F.F ....|--- .... ....
....|..|--- .... ....|C-4 2F.A ....|--- .... ....
....|..|--- .... ....|G-5 2F.F ....|--- .... ....
....|..|--- .... ....|R-- .... ....|--- .... ....
....|..|--- .... ....|E-6 2F.F ....|--- .... ....
....|..|--- .... ....|R-- .... ....|--- .... ....
....|..|--- .... ....|D-5 2F.F ....|--- .... ....
....|..|--- .... ....|R-- .... ....|--- .... ....
....|..|--- .... ....|A-5 2F.F ....|--- .... ....
....|..|--- .... ....|R-- .... ....|--- .... ....
....|..|--- .... ....|E-6 2F.F ....|--- .... ....
....|..|--- .... ....|R-- .... ....|--- .... ....
....|..|--- .... ....|D-5 2F.F ....|--- .... ....
....|..|--- .... ....|C-4 2F.7 ....|--- .... ....
....|..|--- .... ....|A-5 2F.F ....|--- .... ....
....|..|--- .... ....|R-- .... ....|--- .... ....
....|..|--- .... ....|B-5 2F.F ....|--- .... ....
 B-5|..|--- .... ....|B-3 2C.F ....|--- .... ....
....|..|--- .... ....|D-5 2F.F ....|--- .... ....
....|..|--- .... ....|R-- .... ....|--- .... ....
....|..|--- .... ....|G-6 2F.F ....|--- .... ....
 E-4|..|--- .... ....|E-4 2C.F ....|--- .... ....
....|..|--- .... ....|E-5 2F.F ....|--- .... ....
....|..|--- .... ....|R-- .... ....|--- .... ....
....|..|--- .... ....|B-5 2F.F ....|--- .... ....
....|..|--- .... ....|R-- .... ....|--- .... ....
....|..|--- .... ....|G-6 2F.F ....|--- .... ....
....|..|--- .... ....|R-- .... ....|--- .... ....
....|..|--- .... ....|E-5 2F.F ....|--- .... ....
....|..|--- .... ....|R-- .... ....|--- .... ....
....|..|--- .... ....|B-5 2F.F ....|--- .... ....
....|..|--- .... ....|R-- .... ....|--- .... ....
....|..|--- .... ....|G-6 2F.F ....|--- .... ....
....|..|--- .... ....|R-- .... ....|--- .... ....
....|..|--- .... ....|E-5 2F.F ....|--- .... ....
....|..|--- .... ....|R-- .... ....|--- .... ....
....|..|--- .... ....|B-5 2F.F ....|--- .... ....
....|..|--- .... ....|R-- .... ....|--- .... ....
....|..|--- .... ....|F#6 2F.F ....|--- .... ....
....|..|--- .... ....|R-- .... ....|--- .... ....
....|..|--- .... ....|E-5 2F.F ....|--- .... ....
....|..|--- .... ....|B-3 2F.7 ....|--- .... ....
....|..|--- .... ....|B-5 2F.F ....|--- .... ....
....|..|--- .... ....|R-- .... ....|--- .... ....
....|..|--- .... ....|F#6 2F.F ....|--- .... ....
....|..|--- .... ....|E-4 2F.7 ....|--- .... ....
....|..|--- .... ....|E-5 2F.F ....|--- .... ....
....|..|--- .... ....|R-- .... ....|--- .... ....
....|..|--- .... ....|B-5 2F.F ....|--- .... ....
....|..|--- .... ....|R-- .... ....|--- .... ....
....|..|--- .... ....|D-6 2F.F ....|--- .... ....
....|..|--- .... ....|R-- .... ....|--- .... ....

[Pattern20]
....|..|--- .... ....|E-5 2F.7 ....|--- .... ....
....|..|--- .... ....|--- .... ....|--- .... ....
....|..|--- .... ....|B-5 2F.7 ....|--- .... ....
....|..|--- .... ....|R-- .... ....|--- .... ....
 G-4|..|--- .... ....|G-3 2C.F ....|--- .... ....
....|..|--- .... ....|R-- .... ....|--- .... ....
....|..|--- .... ....|E-5 2F.7 ....|--- .... ....
....|..|--- .... ....|R-- .... ....|--- .... ....
....|..|--- .... ....|B-5 2F.7 ....|--- .... ....
....|..|--- .... ....|R-- .... ....|--- .... ....
....|..|--- .... ....|F#6 2F.7 ....|--- .... ....
 A-3|..|--- .... ....|A-3 2C.F ....|--- .... ....
....|..|--- .... ....|E-5 2F.7 ....|--- .... ....
....|..|--- .... ....|--- .... ....|--- .... ....
....|..|--- .... ....|B-5 2F.7 ....|--- .... ....
....|..|--- .... ....|R-- .... ....|--- .... ....
 A#3|..|--- .... ....|A#3 2C.F ....|--- .... ....
....|..|--- .... ....|--- .... ....|--- .... ....
....|..|--- .... ....|E-5 2F.7 ....|--- .... ....
....|..|--- .... ....|R-- .... ....|--- .... ....
....|..|--- .... ....|B-5 2F.7 ....|--- .... ....
....|..|--- .... ....|R-- .... ....|--- .... ....
 B-5|..|--- .... ....|B-3 2C.F ....|--- .... ....
....|..|--- .... ....|R-- .... ....|--- .... ....
....|..|--- .... ....|--- .... ....|--- .... ....
....|..|--- .... ....|--- .... ....|--- .... ....
....|..|--- .... ....|R-- .... ....|--- .... ....
....|..|--- .... ....|--- .... ....|--- .... ....
 B-5|..|--- .... ....|B-3 2C.F ....|--- .... ....
....|..|--- .... ....|--- .... ....|--- .... ....
....|..|--- .... ....|--- .... ....|--- .... ....
....|..|--- .... ....|R-- .... ....|--- .... ....
....|..|--- .... ....|G-6 2F.F ....|--- .... ....
 E-4|..|--- .... ....|E-5 2C.F ....|--- .... ....
....|..|--- .... ....|E-5 2F.F ....|--- .... ....
 E-4|..|--- .... ....|E-4 2C.F ....|--- .... ....
....|..|--- .... ....|B-5 2F.F ....|--- .... ....
....|..|--- .... ....|R-- .... ....|--- .... ....
....|..|--- .... ....|G-6 2F.F ....|--- .... ....
....|..|--- .... ....|R-- .... ....|--- .... ....
....|..|--- .... ....|E-5 2F.F ....|--- .... ....
....|..|--- .... ....|--- .... ....|--- .... ....
....|..|--- .... ....|B-5 2F.F ....|--- .... ....
....|..|--- .... ....|R-- .... ....|--- .... ....
....|..|--- .... ....|G-6 2F.F ....|--- .... ....
....|..|--- .... ....|R-- .... ....|--- .... ....
....|..|--- .... ....|E-5 2F.F ....|--- .... ....
....|..|--- .... ....|E-4 2F.A ....|--- .... ....
....|..|--- .... ....|B-5 2F.F ....|--- .... ....
....|..|--- .... ....|R-- .... ....|--- .... ....
....|..|--- .... ....|F#6 2F.F ....|--- .... ....
....|..|--- .... ....|R-- .... ....|--- .... ....
....|..|--- .... ....|E-5 2F.F ....|--- .... ....
....|..|--- .... ....|--- .... ....|--- .... ....
....|..|--- .... ....|B-5 2F.F ....|--- .... ....
....|..|--- .... ....|R-- .... ....|--- .... ....
....|..|--- .... ....|F#6 2F.F ....|--- .... ....
....|..|--- .... ....|E-5 2F.7 ....|--- .... ....
....|..|--- .... ....|E-5 2F.F ....|--- .... ....
....|..|--- .... ....|E-4 2F.7 ....|--- .... ....
....|..|--- .... ....|B-5 2F.F ....|--- .... ....
....|..|--- .... ....|R-- .... ....|--- .... ....
....|..|--- .... ....|D-6 2F.F ....|--- .... ....
....|..|--- .... ....|R-- .... ....|--- .... ....
....|..|--- .... ....|C-5 2F.F ....|--- .... ....
 C-4|..|--- .... ....|C-5 2C.F ....|--- .... ....
....|..|--- .... ....|G-5 2F.F ....|--- .... ....
 C-4|..|--- .... ....|C-4 2C.F ....|--- .... ....
....|..|--- .... ....|D-6 2F.F ....|--- .... ....
....|..|--- .... ....|R-- .... ....|--- .... ....
....|..|--- .... ....|C-5 2F.F ....|--- .... ....
....|..|--- .... ....|R-- .... ....|--- .... ....
....|..|--- .... ....|G-5 2F.F ....|--- .... ....
....|..|--- .... ....|R-- .... ....|--- .... ....
....|..|--- .... ....|D-6 2F.F ....|--- .... ....
....|..|--- .... ....|R-- .... ....|--- .... ....
....|..|--- .... ....|C-5 2F.F ....|--- .... ....
....|..|--- .... ....|C-5 2F.A ....|--- .... ....
....|..|--- .... ....|G-5 2F.F ....|--- .... ....
....|..|--- .... ....|R-- .... ....|--- .... ....
....|..|--- .... ....|E-6 2F.F ....|--- .... ....
....|..|--- .... ....|R-- .... ....|--- .... ....
....|..|--- .... ....|D-5 2F.F ....|--- .... ....
....|..|--- .... ....|R-- .... ....|--- .... ....
....|..|--- .... ....|A-5 2F.F ....|--- .... ....
....|..|--- .... ....|R-- .... ....|--- .... ....
....|..|--- .... ....|E-6 2F.F ....|--- .... ....
....|..|--- .... ....|R-- .... ....|--- .... ....
....|..|--- .... ....|D-5 2F.F ....|--- .... ....
....|..|--- .... ....|C-5 2F.7 ....|--- .... ....
....|..|--- .... ....|A-5 2F.F ....|--- .... ....
....|..|--- .... ....|C-4 2F.7 ....|--- .... ....
....|..|--- .... ....|B-5 2F.F ....|--- .... ....
 B-4|..|--- .... ....|B-4 2C.F ....|--- .... ....
....|..|--- .... ....|D-5 2F.F ....|--- .... ....
 B-4|..|--- .... ....|B-4 2C.F ....|--- .... ....
....|..|--- .... ....|G-6 2F.F ....|--- .... ....
 E-4|..|--- .... ....|E-5 2C.F ....|--- .... ....
....|..|--- .... ....|E-5 2F.F ....|--- .... ....
....|..|--- .... ....|R-- .... ....|--- .... ....
....|..|--- .... ....|B-5 2F.F ....|--- .... ....
....|..|--- .... ....|R-- .... ....|--- .... ....
....|..|--- .... ....|G-6 2F.F ....|--- .... ....
....|..|--- .... ....|R-- .... ....|--- .... ....
....|..|--- .... ....|E-5 2F.F ....|--- .... ....
....|..|--- .... ....|R-- .... ....|--- .... ....
....|..|--- .... ....|B-5 2F.F ....|--- .... ....
....|..|--- .... ....|R-- .... ....|--- .... ....
....|..|--- .... ....|G-6 2F.F ....|--- .... ....
....|..|--- .... ....|R-- .... ....|--- .... ....
....|..|--- .... ....|E-5 2F.F ....|--- .... ....
....|..|--- .... ....|R-- .... ....|--- .... ....
....|..|--- .... ....|B-5 2F.F ....|--- .... ....
....|..|--- .... ....|R-- .... ....|--- .... ....
....|..|--- .... ....|F#6 2F.F ....|--- .... ....
....|..|--- .... ....|R-- .... ....|--- .... ....
....|..|--- .... ....|E-5 2F.F ....|--- .... ....
....|..|--- .... ....|B-4 2F.7 ....|--- .... ....
....|..|--- .... ....|B-5 2F.F ....|--- .... ....
....|..|--- .... ....|B-4 2F.7 ....|--- .... ....
....|..|--- .... ....|F#6 2F.F ....|--- .... ....
....|..|--- .... ....|E-5 2F.7 ....|--- .... ....
....|..|--- .... ....|E-5 2F.F ....|--- .... ....
....|..|--- .... ....|R-- .... ....|--- .... ....
....|..|--- .... ....|B-5 2F.F ....|--- .... ....
....|..|--- .... ....|R-- .... ....|--- .... ....
....|..|--- .... ....|D-6 2F.F ....|--- .... ....
....|..|--- .... ....|R-- .... ....|--- .... ....

[Pattern24]
 C-4|..|--- .... ....|C-5 2C.F ....|--- .... ....
....|..|--- .... ....|--- .... ....|--- .... ....
....|..|--- .... ....|R-- .... ....|--- .... ....
....|..|--- .... ....|--- .... ....|--- .... ....
....|..|--- .... ....|--- .... ....|--- .... ....
....|..|--- .... ....|--- .... ....|--- .... ....
....|..|--- .... ....|--- .... ....|--- .... ....
....|..|--- .... ....|--- .... ....|--- .... ....
....|..|--- .... ....|--- .... ....|--- .... ....
....|..|--- .... ....|--- .... ....|--- .... ....
....|..|--- .... ....|--- .... ....|--- .... ....
....|..|--- .... ....|--- .... ....|--- .... ....
....|..|--- .... ....|C-5 2F.A ....|--- .... ....
....|..|--- .... ....|--- .... ....|--- .... ....
....|..|--- .... ....|R-- .... ....|--- .... ....
....|..|--- .... ....|--- .... ....|--- .... ....
....|..|--- .... ....|--- .... ....|--- .... ....
....|..|--- .... ....|--- .... ....|--- .... ....
....|..|--- .... ....|--- .... ....|--- .... ....
....|..|--- .... ....|--- .... ....|--- .... ....
....|..|--- .... ....|--- .... ....|--- .... ....
....|..|--- .... ....|--- .... ....|--- .... ....
....|..|--- .... ....|--- .... ....|--- .... ....
....|..|--- .... ....|--- .... ....|--- .... ....
....|..|--- .... ....|C-5 2F.7 ....|--- .... ....
....|..|--- .... ....|--- .... ....|--- .... ....
....|..|--- .... ....|R-- .... ....|--- .... ....
....|..|--- .... ....|--- .... ....|--- .... ....
 B-4|..|--- .... ....|B-4 2C.F ....|--- .... ....
 B-4|..|--- .... ....|B-4 2C.F ....|--- .... ....
....|..|--- .... ....|R-- .... ....|--- .... ....
....|..|--- .... ....|--- .... ....|--- .... ....
....|..|--- .... ....|--- .... ....|--- .... ....
....|..|--- .... ....|--- .... ....|--- .... ....
....|..|--- .... ....|--- .... ....|--- .... ....
....|..|--- .... ....|--- .... ....|--- .... ....
....|..|--- .... ....|--- .... ....|--- .... ....
....|..|--- .... ....|--- .... ....|--- .... ....
....|..|--- .... ....|--- .... ....|--- .... ....
....|..|--- .... ....|--- .... ....|--- .... ....
....|..|--- .... ....|B-4 2F.A ....|--- .... ....
....|..|--- .... ....|B-4 2F.A ....|--- .... ....
....|..|--- .... ....|R-- .... ....|--- .... ....
....|..|--- .... ....|--- .... ....|--- .... ....
....|..|--- .... ....|--- .... ....|--- .... ....
....|..|--- .... ....|--- .... ....|--- .... ....
....|..|--- .... ....|--- .... ....|--- .... ....
....|..|--- .... ....|--- .... ....|--- .... ....
....|..|--- .... ....|--- .... ....|--- .... ....
....|..|--- .... ....|--- .... ....|--- .... ....
....|..|--- .... ....|--- .... ....|--- .... ....
....|..|--- .... ....|--- .... ....|--- .... ....
....|..|--- .... ....|B-4 2F.7 ....|--- .... ....
....|..|--- .... ....|B-4 2F.7 ....|--- .... ....
....|..|--- .... ....|R-- .... ....|--- .... ....
....|..|--- .... ....|--- .... ....|--- .... ....
....|..|--- .... ....|--- .... ....|--- .... ....
....|..|--- .... ....|--- .... ....|--- .... ....
....|..|--- .... ....|--- .... ....|--- .... ....
....|..|--- .... ....|--- .... ....|--- .... ....
....|..|--- .... ....|--- .... ....|--- .... ....
....|..|--- .... ....|--- .... ....|--- .... ....
....|..|--- .... ....|--- .... ....|--- .... ....
....|..|--- .... ....|--- .... ....|--- .... ....
....|..|--- .... ....|--- .... ....|--- .... ....
....|..|--- .... ....|--- .... ....|--- .... ....
....|..|--- .... ....|--- .... ....|--- .... ....
....|..|--- .... ....|--- .... ....|--- .... ....
....|..|--- .... ....|--- .... ....|--- .... ....
....|..|--- .... ....|--- .... ....|--- .... ....
....|..|--- .... ....|--- .... ....|--- .... ....
....|..|--- .... ....|--- .... ....|--- .... ....
....|..|--- .... ....|--- .... ....|--- .... ....
....|..|--- .... ....|--- .... ....|--- .... ....
....|..|--- .... ....|--- .... ....|--- .... ....
....|..|--- .... ....|--- .... ....|--- .... ....
....|..|--- .... ....|--- .... ....|--- .... ....
....|..|--- .... ....|--- .... ....|--- .... ....
....|..|--- .... ....|--- .... ....|--- .... ....
....|..|--- .... ....|--- .... ....|--- .... ....
....|..|--- .... ....|--- .... ....|--- .... ....
....|..|--- .... ....|--- .... ....|--- .... ....
....|..|--- .... ....|--- .... ....|--- .... ....
....|..|--- .... ....|--- .... ....|--- .... ....
....|..|--- .... ....|--- .... ....|--- .... ....
....|..|--- .... ....|--- .... ....|--- .... ....
....|..|--- .... ....|--- .... ....|--- .... ....
....|..|--- .... ....|--- .... ....|--- .... ....
....|..|--- .... ....|--- .... ....|--- .... ....
....|..|--- .... ....|--- .... ....|--- .... ....
....|..|--- .... ....|--- .... ....|--- .... ....
....|..|--- .... ....|--- .... ....|--- .... ....
....|..|--- .... ....|--- .... ....|--- .... ....
....|..|--- .... ....|--- .... ....|--- .... ....
....|..|--- .... ....|--- .... ....|--- .... ....
....|..|--- .... ....|--- .... ....|--- .... ....
....|..|--- .... ....|--- .... ....|--- .... ....
....|..|--- .... ....|--- .... ....|--- .... ....
....|..|--- .... ....|--- .... ....|--- .... ....
....|..|--- .... ....|--- .... ....|--- .... ....
....|..|--- .... ....|--- .... ....|--- .... ....
....|..|--- .... ....|--- .... ....|--- .... ....
....|..|--- .... ....|--- .... ....|--- .... ....
....|..|--- .... ....|--- .... ....|--- .... ....
....|..|--- .... ....|--- .... ....|--- .... ....
....|..|--- .... ....|--- .... ....|--- .... ....
....|..|--- .... ....|--- .... ....|--- .... ....
....|..|--- .... ....|--- .... ....|--- .... ....
....|..|--- .... ....|--- .... ....|--- .... ....
....|..|--- .... ....|--- .... ....|--- .... ....
....|..|--- .... ....|--- .... ....|--- .... ....
....|..|--- .... ....|--- .... ....|--- .... ....
....|..|--- .... ....|--- .... ....|--- .... ....
....|..|--- .... ....|--- .... ....|--- .... ....
....|..|--- .... ....|--- .... ....|--- .... ....
....|..|--- .... ....|--- .... ....|--- .... ....
....|..|--- .... ....|--- .... ....|--- .... ....
....|..|--- .... ....|--- .... ....|--- .... ....
....|..|--- .... ....|--- .... ....|--- .... ....
....|..|--- .... ....|--- .... ....|--- .... ....
....|..|--- .... ....|--- .... ....|--- .... ....
....|..|--- .... ....|--- .... ....|--- .... ....
....|..|--- .... ....|--- .... ....|--- .... ....
....|..|--- .... ....|--- .... ....|--- .... ....
....|..|--- .... ....|--- .... ....|--- .... ....
....|..|--- .... ....|--- .... ....|--- .... ....
....|..|--- .... ....|--- .... ....|--- .... ....
....|..|--- .... ....|--- .... ....|--- .... ....

[Pattern25]
....|..|--- .... ....|--- .... ....|--- .... ....
....|..|--- .... ....|--- .... ....|--- .... ....
....|..|--- .... ....|--- .... ....|--- .... ....
....|..|--- .... ....|--- .... ....|--- .... ....
....|..|--- .... ....|--- .... ....|--- .... ....
....|..|--- .... ....|--- .... ....|--- .... ....
....|..|--- .... ....|--- .... ....|--- .... ....
....|..|--- .... ....|--- .... ....|--- .... ....
....|..|--- .... ....|--- .... ....|--- .... ....
....|..|--- .... ....|--- .... ....|--- .... ....
....|..|--- .... ....|--- .... ....|--- .... ....
....|..|--- .... ....|--- .... ....|--- .... ....
....|..|--- .... ....|--- .... ....|--- .... ....
....|..|--- .... ....|--- .... ....|--- .... ....
....|..|--- .... ....|--- .... ....|--- .... ....
....|..|--- .... ....|--- .... ....|--- .... ....
....|..|--- .... ....|--- .... ....|--- .... ....
....|..|--- .... ....|--- .... ....|--- .... ....
....|..|--- .... ....|--- .... ....|--- .... ....
....|..|--- .... ....|--- .... ....|--- .... ....
....|..|--- .... ....|--- .... ....|--- .... ....
....|..|--- .... ....|--- .... ....|--- .... ....
....|..|--- .... ....|--- .... ....|--- .... ....
....|..|--- .... ....|--- .... ....|--- .... ....
....|..|--- .... ....|--- .... ....|--- .... ....
....|..|--- .... ....|--- .... ....|--- .... ....
....|..|--- .... ....|--- .... ....|--- .... ....
....|..|--- .... ....|--- .... ....|--- .... ....
....|..|--- .... ....|--- .... ....|--- .... ....
....|..|--- .... ....|--- .... ....|--- .... ....
....|..|--- .... ....|--- .... ....|--- .... ....
....|..|--- .... ....|--- .... ....|--- .... ....
....|..|--- .... ....|--- .... ....|--- .... ....
....|..|--- .... ....|--- .... ....|--- .... ....
....|..|--- .... ....|--- .... ....|--- .... ....
....|..|--- .... ....|--- .... ....|--- .... ....
....|..|--- .... ....|--- .... ....|--- .... ....
....|..|--- .... ....|--- .... ....|--- .... ....
....|..|--- .... ....|--- .... ....|--- .... ....
....|..|--- .... ....|--- .... ....|--- .... ....
....|..|--- .... ....|--- .... ....|--- .... ....
....|..|--- .... ....|--- .... ....|--- .... ....
....|..|--- .... ....|--- .... ....|--- .... ....
....|..|--- .... ....|--- .... ....|--- .... ....
....|..|--- .... ....|--- .... ....|--- .... ....
....|..|--- .... ....|--- .... ....|--- .... ....
....|..|--- .... ....|--- .... ....|--- .... ....
....|..|--- .... ....|--- .... ....|--- .... ....
....|..|--- .... ....|--- .... ....|--- .... ....
....|..|--- .... ....|--- .... ....|--- .... ....
....|..|--- .... ....|--- .... ....|--- .... ....
....|..|--- .... ....|--- .... ....|--- .... ....
....|..|--- .... ....|--- .... ....|--- .... ....
....|..|--- .... ....|--- .... ....|--- .... ....
....|..|--- .... ....|--- .... ....|--- .... ....
....|..|--- .... ....|--- .... ....|--- .... ....
....|..|--- .... ....|--- .... ....|--- .... ....
....|..|--- .... ....|--- .... ....|--- .... ....
....|..|--- .... ....|--- .... ....|--- .... ....
....|..|--- .... ....|--- .... ....|--- .... ....
....|..|--- .... ....|--- .... ....|--- .... ....
....|..|--- .... ....|--- .... ....|--- .... ....
....|..|--- .... ....|--- .... ....|--- .... ....
....|..|--- .... ....|--- .... ....|--- .... ....
....|..|--- .... ....|--- .... ....|--- .... ....
....|..|--- .... ....|--- .... ....|--- .... ....
