[Module]
VortexTrackerII=0
Version=3.5
Title=8p[3]-11mew[2]-5me[2f]-2p[u]+,6m[3]-7m[6]+,9p-3p-4p+-5mew[2]
Author=oisee/siril^4d 2012.10.11
NoteTable=4
ChipFreq=1750000
Speed=3
PlayOrder=L0,1,2,3,4,5,6,7,8,9,10,9,12,13,14,15,16,2,3,19,5,6,7,8,9,10,9,12,13,14,30,31,32,31,34,35,36,37,38,12,13,14,30,31,32,31,46,47

[Ornament1]
L0,0,5,5

[Ornament2]
L0,0,4,4,7,7

[Ornament3]
L0,0,3,3

[Ornament4]
L0,0,3,3,8,8

[Ornament5]
L0,0,3,3,5,5,10,10

[Ornament6]
L0,0,9,9,12,12,17,17

[Ornament7]
L0,0,12,12,17,17

[Ornament8]
L0,0,7,7,10,10,12,12,17,17

[Ornament9]
L0,0,2,2

[Ornament10]
L0,0,7,7,12,12,16,16

[Ornament11]
L0,0,7,7,12,12

[Ornament12]
L0,0,12,12,15,15,19,19

[Ornament13]
L0,0,12,12,16,16

[Ornament14]
L0,0,4,4

[Ornament15]
L12

[Sample1]
TnE +000_ +00_ F_
TnE +000_ +00_ F_
TnE +000_ +00_ F_
TnE +000_ +00_ D_
TnE +000_ +00_ B_
TnE +000_ +00_ B_ L

[Sample2]
TnE +000_ +00_ F_ L

[Sample3]
TnE +001_ +00_ F_
TnE +002_ +00_ F_
TnE +001_ +00_ E_
TnE +002_ +00_ E_
TnE +000_ +00_ E_ L
TnE -001_ +00_ E_
TnE -002_ +00_ E_
TnE -001_ +00_ E_
TnE +000_ +00_ E_
TnE +001_ +00_ E_
TnE +002_ +00_ E_
TnE +001_ +00_ E_

[Sample4]
TnE +002_ +00_ D_
TnE +002_ +00_ D_
TnE +002_ +00_ C_
TnE +002_ +00_ B_
TnE +002_ +00_ A_ L
TnE +002_ +00_ A_
TnE +002_ +00_ A_
TnE +002_ +00_ A_
TnE +002_ +00_ A_
TnE +002_ +00_ A_
TnE +002_ +00_ A_
TnE +002_ +00_ A_

[Sample5]
TnE +000_ +00_ F_
TnE +000_ +00_ F_
tne +000_ +00_ 0_ L

[Sample6]
TnE -001_ +00_ F_ L

[Sample7]
TnE +006_ +00_ F_ L

[Sample8]
tNe +000_ +00_ F_
tNe +000_ +00_ B_
tNe +000_ +00_ 7_
tNe +000_ +00_ 6- L

[Sample9]
TnE +080_ +00_ F_
TnE +100_ +00_ E_
TnE +180_ +00_ E_
TnE +200_ +00_ E_
TnE +240_ +00_ D_
TnE +280_ +00_ D_
TnE +2C0_ +00_ D_
TnE +300_ +00_ C_
TnE +300_ +00_ C_
TnE +340_ +00_ C_
TnE +340_ +00_ C_
TnE +380_ +00_ B_
TnE +380_ +00_ B_
TnE +400_ +00_ B_
TnE +400_ +00_ B_
TnE +480_ +00_ A_
TnE +500_ +00_ 9_
TnE +580_ +00_ 7_
TnE +600_ +00_ 4_
TnE +680_ +00_ 1_
TnE +000_ +00_ 0_ L

[Sample10]
Tne +1C0_ +00_ F_
Tne +280_ +00_ E_
Tne +380_ +00_ C_
Tne +440_ +00_ A_
Tne +480_ +00_ 8_
TnE +000_ +00_ 0_ L

[Sample11]
TNe +200_ -0A_ F_
tNe +000_ +0F_ A_
TNe +200_ -07_ E_
tNe +000_ +0E_ B- L

[Sample12]
TNE +0A0_ +05_ F_
TNE +140_ +02_ D_
TNE +140_ +02_ B_
TNE +100_ +00_ A_ L
TNE +140_ +00_ A_
TNE +200_ +00_ A-

[Sample13]
Tne +200_ +00_ F_
Tne +2C0_ +00_ F_
Tne +380_ +00_ E_
Tne +500_ +00_ C_
Tne +520_ +00_ 9_
tne +000_ +00_ 0_ L

[Sample14]
TNE -100_ +00_ F_
TNE -100_ +00_ D_
TNE -100_ +00_ A_
TNE -100_ +00_ 5_
tne +000_ +00_ 0_ L

[Sample15]
TNE -100_ +00_ 5_
TNE -100_ +00_ 8_
TNE -100_ +00_ B_
TNE -100_ +00_ F_
TNe -100_ +00_ 9- L

[Sample16]
TnE +000_ +00_ C_
TnE +000_ +00_ E_
TnE +000_ +00_ F_
TnE +000_ +00_ F_
TnE +000_ +00_ E_
TnE +000_ +00_ D_
TnE +000_ +00_ C_
TnE +000_ +00_ C_ L
TnE +001_ +00_ C_
TnE +002_ +00_ C_
TnE +003_ +00_ C_
TnE +001_ +00_ C_
TnE +000_ +00_ C_
TnE -001_ +00_ C_
TnE -002_ +00_ C_
TnE -003_ +00_ C_
TnE -001_ +00_ C_
TnE +000_ +00_ C_
TnE +000_ +00_ C_

[Sample17]
Tne +1C0_ +00_ F_
Tne +280_ +00_ D_
Tne +380_ +00_ 7_
TNE +000_ +00_ 0_ L

[Sample18]
TnE -00C_ +00_ 0_ L

[Sample19]
TNe +000_ +00_ F_
TNe +000_ +00_ C_
TNe +000_ +00_ 6_
TNe +000_ +01_ A- L

[Sample20]
TNE +140_ +00_ F_
tNE +000_ +00_ B- L

[Sample21]
tNE +000_ +00_ D_
tNE +000_ +00_ 8_
tNE +000_ +00_ 1_
TNE +000_ +00_ 0_ L

[Sample22]
TnE +000_ +00_ D_ L
TnE +000_ +00_ D_
tne +000_ +00_ 9_
tne +000_ +00_ 9_
TnE +000_ +00_ D_
TnE +000_ +00_ D_
tne +000_ +00_ 9_
tne +000_ +00_ 9_
TnE +000_ +00_ D_
TnE +000_ +00_ D_
TnE +000_ +00_ D_
TnE +000_ +00_ D_
TnE +000_ +00_ D_
TnE +000_ +00_ D_
tne +000_ +00_ 9_
tne +000_ +00_ 9_

[Sample23]
TnE +000_ +00_ F_ L
TnE +010_ +01_ F_
TnE +010_ +01_ F_
TnE +010_ +01_ F_
TnE +010_ +01_ F_
TnE +000_ +00_ F_
TnE +000_ +00_ F_
TnE -010_ -01_ F_
TnE -010_ -01_ F_
TnE -010_ -01_ F_
TnE -010_ -01_ F_
TnE +000_ +00_ F_

[Sample24]
TNe +000_ -01_ C_
TNe +000_ -01_ D_
TNe +000_ -01_ E_
TNe +000_ -01_ F_
TNe +000_ -01_ F_
TNe +000_ -01_ F_
TNe +000_ -01_ F_
TNe +000_ -01_ F_
TNe +000_ -01_ E_
TNe +000_ -01_ E_
TNe +000_ -01_ E_
TNe +000_ -01_ F_
TNe +000_ -01_ F_ L

[Sample25]
TNE +000_ +00_ F_
TNE +000_ +00_ F_ L
TNE +000_ +00_ F_
TNE +000_ +00_ F_
TNE +000_ +00_ F-

[Sample26]
tne +000_ +00_ 0_ L

[Sample27]
TnE +100_ +05_ F_
TnE +200_ +02_ A_
TnE +300_ +02_ 7_
TNE +400_ +00_ 3- L

[Sample28]
tne +000_ +00_ 0_ L

[Sample29]
tnE +000_ +00_ 0_ L

[Sample30]
TnE +001_ +00_ F_
TnE +002_ +00_ F_
TnE +001_ +00_ E_
TnE +002_ +00_ E_
TnE +000_ +00_ E_ L
TnE -001_ +00_ E_
TnE -002_ +00_ E_
TnE -001_ +00_ E_
TnE +000_ +00_ E_
TnE +001_ +00_ E_
TnE +002_ +00_ E_
TnE +001_ +00_ E_

[Sample31]
TNe +1C0_ +00_ F_
Tne +280_ +00_ E_
Tne +380_ +00_ C_
Tne +440_ +00_ A_
Tne +480_ +00_ 8_
TnE +000_ +00_ 0_ L

[Pattern0]
....|..|C-4 AF.F ....|--- .... ....|--- .... ....
....|..|--- .... ....|--- .... ....|--- .... ....
....|..|--- .... ....|--- .... ....|--- .... ....
....|..|--- .... ....|--- .... ....|--- .... ....
....|..|--- .... ....|--- .... ....|--- .... ....
....|..|--- .... ....|--- .... ....|--- .... ....
....|..|--- .... ....|--- .... ....|--- .... ....
....|..|--- .... ....|--- .... ....|--- .... ....
....|..|C-4 AF.F ....|--- .... ....|--- .... ....
....|..|--- .... ....|--- .... ....|--- .... ....
....|..|--- .... ....|--- .... ....|--- .... ....
....|..|--- .... ....|--- .... ....|--- .... ....
....|..|--- .... ....|--- .... ....|--- .... ....
....|..|--- .... ....|--- .... ....|--- .... ....
....|..|--- .... ....|--- .... ....|--- .... ....
....|..|--- .... ....|--- .... ....|--- .... ....
....|..|C-4 AF.F ....|--- .... ....|--- .... ....
....|..|--- .... ....|--- .... ....|--- .... ....
....|..|--- .... ....|--- .... ....|--- .... ....
....|..|--- .... ....|--- .... ....|--- .... ....
....|..|--- .... ....|--- .... ....|--- .... ....
....|..|--- .... ....|--- .... ....|--- .... ....
....|..|--- .... ....|--- .... ....|--- .... ....
....|..|--- .... ....|--- .... ....|--- .... ....
....|..|C-4 AF.F ....|--- .... ....|--- .... ....
....|..|--- .... ....|--- .... ....|--- .... ....
....|..|--- .... ....|--- .... ....|--- .... ....
....|..|--- .... ....|--- .... ....|--- .... ....
....|..|--- .... ....|--- .... ....|--- .... ....
....|..|--- .... ....|--- .... ....|--- .... ....
....|..|--- .... ....|--- .... ....|--- .... ....
....|..|--- .... ....|--- .... ....|--- .... ....
....|..|C-4 AF.F ....|B-3 3F.F ....|D-4 2F1F ....
....|..|D-4 UF1F ....|R-- .... ....|R-- .... ....
....|..|--- .... ....|--- .... ....|--- .... ....
....|..|--- .... ....|--- .... ....|--- .... ....
....|..|--- .... ....|B-3 3F.F ....|D-4 2F1F ....
....|..|--- .... ....|R-- .... ....|R-- .... ....
....|..|C-4 AF.F ....|B-3 3F.A ....|D-4 2F1A ....
....|..|D-4 UF1A ....|R-- .... ....|R-- .... ....
....|..|--- .... ....|B-3 3F.F ....|D-4 2F1F ....
....|..|--- .... ....|R-- .... ....|R-- .... ....
....|..|--- .... ....|B-3 3F.A ....|D-4 2F1A ....
....|..|--- .... ....|R-- .... ....|R-- .... ....
....|..|C-4 AF.F ....|B-3 3F.F ....|D-4 2F1F ....
....|..|D-4 UF17 ....|R-- .... ....|R-- .... ....
....|..|--- .... ....|B-3 3F.A ....|D-4 2F1A ....
....|..|--- .... ....|R-- .... ....|R-- .... ....
....|..|C-4 AF.F ....|B-3 3F.F ....|D-4 2F1F ....
....|..|--- .... ....|R-- .... ....|R-- .... ....
....|..|--- .... ....|B-3 3F.A ....|D-4 2F1A ....
....|..|--- .... ....|R-- .... ....|R-- .... ....
....|..|--- .... ....|B-3 3F.F ....|D-4 2F1F ....
....|..|--- .... ....|R-- .... ....|R-- .... ....
....|..|--- .... ....|B-3 3F.A ....|D-4 2F1A ....
....|..|--- .... ....|R-- .... ....|R-- .... ....
....|..|C-4 AF.F ....|B-3 3F.F ....|D-4 2F1F ....
....|..|--- .... ....|R-- .... ....|R-- .... ....
....|..|--- .... ....|B-3 3F.A ....|D-4 2F1A ....
....|..|--- .... ....|R-- .... ....|R-- .... ....
....|..|--- .... ....|B-3 3F.F ....|D-4 2F1F ....
....|..|--- .... ....|R-- .... ....|R-- .... ....
....|..|--- .... ....|B-3 3F.A ....|D-4 2F1A ....
....|..|--- .... ....|R-- .... ....|R-- .... ....

[Pattern1]
....|..|--- .... ....|B-3 3F.F ....|D-4 2F1F ....
....|..|--- .... ....|R-- .... ....|R-- .... ....
....|..|--- .... ....|B-3 3F.A ....|D-4 2F1A ....
....|..|--- .... ....|R-- .... ....|R-- .... ....
....|..|--- .... ....|B-3 3F.F ....|D-4 2F1F ....
....|..|--- .... ....|R-- .... ....|R-- .... ....
....|..|--- .... ....|B-3 3F.A ....|D-4 2F1A ....
....|..|--- .... ....|R-- .... ....|R-- .... ....
....|..|--- .... ....|B-3 3F.F ....|D-4 2F1F ....
....|..|--- .... ....|R-- .... ....|R-- .... ....
....|..|--- .... ....|B-3 3F.A ....|D-4 2F1A ....
....|..|--- .... ....|R-- .... ....|R-- .... ....
....|..|--- .... ....|B-3 3F.F ....|D-4 2F1F ....
....|..|--- .... ....|R-- .... ....|R-- .... ....
....|..|--- .... ....|B-3 3F.A ....|D-4 2F1A ....
....|..|--- .... ....|R-- .... ....|R-- .... ....
....|..|--- .... ....|B-3 3F.7 ....|D-4 2F1F ....
....|..|--- .... ....|R-- .... ....|R-- .... ....
....|..|--- .... ....|B-3 3F.A ....|D-4 2F1A ....
....|..|--- .... ....|R-- .... ....|R-- .... ....
....|..|--- .... ....|B-3 3F.7 ....|D-4 2F1F ....
....|..|--- .... ....|R-- .... ....|R-- .... ....
....|..|--- .... ....|--- .... ....|D-4 2F1A ....
....|..|--- .... ....|--- .... ....|R-- .... ....
....|..|--- .... ....|B-3 3F.7 ....|D-4 2F1F ....
....|..|--- .... ....|R-- .... ....|R-- .... ....
....|..|--- .... ....|--- .... ....|D-4 2F1A ....
....|..|--- .... ....|--- .... ....|R-- .... ....
....|..|--- .... ....|--- .... ....|D-4 2F1F ....
....|..|--- .... ....|--- .... ....|R-- .... ....
....|..|--- .... ....|--- .... ....|D-4 2F1A ....
....|..|R-- .... ....|--- .... ....|R-- .... ....
....|..|C-4 UF2F ....|--- .... ....|D-4 2F1F ....
....|..|--- .... ....|--- .... ....|R-- .... ....
....|..|--- .... ....|--- .... ....|D-4 2F1A ....
....|..|--- .... ....|--- .... ....|R-- .... ....
....|..|--- .... ....|B-3 3F.F ....|D-4 2F1F ....
....|..|R-- .... ....|--- .... ....|R-- .... ....
....|..|C-4 UF2A ....|--- .... ....|D-4 2F1A ....
....|..|--- .... ....|--- .... ....|R-- .... ....
....|..|--- .... ....|B-3 3F.F ....|D-4 2F1F ....
....|..|--- .... ....|--- .... ....|R-- .... ....
....|..|--- .... ....|B-3 3F.A ....|D-4 2F1A ....
....|..|R-- .... ....|R-- .... ....|R-- .... ....
....|..|C-4 UF27 ....|B-3 3F.F ....|D-4 2F1F ....
....|..|--- .... ....|--- .... ....|R-- .... ....
....|..|--- .... ....|B-3 3F.A ....|D-4 2F1A ....
....|..|--- .... ....|R-- .... ....|R-- .... ....
....|..|--- .... ....|B-3 3F.F ....|D-4 2F1F ....
....|..|--- .... ....|R-- .... ....|R-- .... ....
....|..|--- .... ....|B-3 3F.A ....|D-4 2F1A ....
....|..|--- .... ....|R-- .... ....|R-- .... ....
....|..|--- .... ....|B-3 3F.F ....|D-4 2F1F ....
....|..|--- .... ....|R-- .... ....|R-- .... ....
....|..|--- .... ....|B-3 3F.A ....|D-4 2F1A ....
....|..|--- .... ....|R-- .... ....|R-- .... ....
....|..|--- .... ....|A-3 3F.F ....|D-4 2F1F ....
....|..|--- .... ....|R-- .... ....|R-- .... ....
....|..|--- .... ....|B-3 3F.A ....|D-4 2F1A ....
....|..|--- .... ....|R-- .... ....|R-- .... ....
....|..|--- .... ....|B-3 3F.F ....|D-4 2F1F ....
....|..|--- .... ....|R-- .... ....|R-- .... ....
....|..|--- .... ....|A-3 3F.A ....|D-4 2F1A ....
....|..|E-4 UF3F ....|R-- .... ....|R-- .... ....

[Pattern2]
....|..|B-3 UF4F ....|B-3 3F.7 ....|D-4 2F1F ....
....|..|--- .... ....|R-- .... ....|R-- .... ....
....|..|--- .... ....|B-3 3F.A ....|D-4 2F1A ....
....|..|--- .... ....|R-- .... ....|R-- .... ....
....|..|--- .... ....|B-3 3F.F ....|D-4 2F1F ....
....|..|E-4 UF3A ....|--- .... ....|R-- .... ....
....|..|B-3 UF4A ....|R-- .... ....|D-4 2F1A ....
....|..|--- .... ....|R-- .... ....|R-- .... ....
....|..|--- .... ....|B-3 3F.F ....|D-4 2F1F ....
....|..|--- .... ....|--- .... ....|R-- .... ....
....|..|--- .... ....|B-3 3F.A ....|D-4 2F1A ....
....|..|E-4 UF37 ....|R-- .... ....|R-- .... ....
....|..|B-3 UF47 ....|B-3 3F.F ....|D-4 2F1F ....
....|..|--- .... ....|R-- .... ....|R-- .... ....
....|..|--- .... ....|B-3 3F.A ....|D-4 2F1A ....
....|..|--- .... ....|R-- .... ....|R-- .... ....
....|..|--- .... ....|B-3 3F.F ....|D-4 2F1F ....
....|..|--- .... ....|R-- .... ....|R-- .... ....
....|..|--- .... ....|B-3 3F.A ....|D-4 2F1A ....
....|..|--- .... ....|R-- .... ....|R-- .... ....
....|..|--- .... ....|B-3 3F.F ....|D-4 2F1F ....
....|..|--- .... ....|R-- .... ....|R-- .... ....
....|..|--- .... ....|B-3 3F.A ....|D-4 2F1A ....
....|..|--- .... ....|R-- .... ....|R-- .... ....
....|..|--- .... ....|A-3 3F.F ....|D-4 2F1F ....
....|..|--- .... ....|R-- .... ....|R-- .... ....
....|..|--- .... ....|B-3 3F.A ....|D-4 2F1A ....
....|..|--- .... ....|R-- .... ....|R-- .... ....
....|..|--- .... ....|B-3 3F.F ....|D-4 2F1F ....
....|..|--- .... ....|--- .... ....|R-- .... ....
....|..|--- .... ....|A-3 3F.A ....|D-4 2F1A ....
....|..|D-4 UF1F ....|R-- .... ....|R-- .... ....
....|..|C-4 UF2F ....|B-3 3F.7 ....|D-4 2F1F ....
....|..|--- .... ....|R-- .... ....|R-- .... ....
....|..|--- .... ....|B-3 3F.A ....|D-4 2F1A ....
....|..|--- .... ....|--- .... ....|R-- .... ....
....|..|--- .... ....|B-3 3F.F ....|D-4 2F1F ....
....|..|D-4 UF1A ....|--- .... ....|R-- .... ....
....|..|C-4 UF2A ....|R-- .... ....|D-4 2F1A ....
....|..|--- .... ....|R-- .... ....|R-- .... ....
....|..|--- .... ....|B-3 3F.F ....|D-4 2F1F ....
....|..|--- .... ....|--- .... ....|R-- .... ....
....|..|--- .... ....|B-3 3F.A ....|D-4 2F1A ....
....|..|D-4 UF17 ....|R-- .... ....|R-- .... ....
....|..|C-4 UF27 ....|B-3 3F.F ....|D-4 2F1F ....
....|..|--- .... ....|R-- .... ....|R-- .... ....
....|..|--- .... ....|B-3 3F.A ....|D-4 2F1A ....
....|..|--- .... ....|R-- .... ....|R-- .... ....
....|..|--- .... ....|B-3 3F.F ....|D-4 2F1F ....
....|..|--- .... ....|R-- .... ....|R-- .... ....
....|..|--- .... ....|B-3 3F.A ....|D-4 2F1A ....
....|..|--- .... ....|R-- .... ....|R-- .... ....
....|..|--- .... ....|B-3 3F.F ....|D-4 2F1F ....
....|..|--- .... ....|R-- .... ....|R-- .... ....
....|..|--- .... ....|B-3 3F.A ....|D-4 2F1A ....
....|..|--- .... ....|R-- .... ....|R-- .... ....
....|..|--- .... ....|A-3 3F.F ....|D-4 2F1F ....
....|..|--- .... ....|R-- .... ....|R-- .... ....
....|..|--- .... ....|B-3 3F.A ....|D-4 2F1A ....
....|..|--- .... ....|R-- .... ....|R-- .... ....
....|..|--- .... ....|A-3 3F.F ....|D-4 2F1F ....
....|..|--- .... ....|R-- .... ....|R-- .... ....
....|..|--- .... ....|A-3 3F.A ....|D-4 2F1A ....
....|..|G-4 UF.F ....|R-- .... ....|R-- .... ....

[Pattern3]
....|..|A-3 UF5F ....|B-3 3F.7 ....|D-4 2F1F ....
....|..|--- .... ....|R-- .... ....|R-- .... ....
....|..|--- .... ....|A-3 3F.A ....|D-4 2F1A ....
....|..|--- .... ....|R-- .... ....|R-- .... ....
....|..|--- .... ....|A-3 3F.F ....|D-4 2F1F ....
....|..|G-4 UF.A ....|--- .... ....|R-- .... ....
....|..|A-3 UF5A ....|R-- .... ....|D-4 2F1A ....
....|..|--- .... ....|R-- .... ....|R-- .... ....
....|..|--- .... ....|A-3 3F.F ....|D-4 2F1F ....
....|..|--- .... ....|--- .... ....|R-- .... ....
....|..|--- .... ....|A-3 3F.A ....|D-4 2F1A ....
....|..|G-4 UF.7 ....|--- .... ....|R-- .... ....
....|..|A-3 UF57 ....|G-3 3F.F ....|D-4 2F1F ....
....|..|--- .... ....|R-- .... ....|R-- .... ....
....|..|--- .... ....|A-3 3F.A ....|D-4 2F1A ....
....|..|--- .... ....|R-- .... ....|R-- .... ....
....|..|--- .... ....|G-3 3F.F ....|D-4 2F1F ....
....|..|--- .... ....|--- .... ....|R-- .... ....
....|..|--- .... ....|G-3 3F.A ....|D-4 2F1A ....
....|..|--- .... ....|--- .... ....|R-- .... ....
....|..|--- .... ....|--- .... 11.4|D-4 2F1F ....
....|..|--- .... ....|--- .... ....|R-- .... ....
....|..|--- .... ....|D-4 3F.F 311F|D-4 2F1A ....
....|..|--- .... ....|--- .... ....|R-- .... ....
....|..|--- .... ....|--- .... ....|D-4 2F1F ....
....|..|--- .... ....|--- .... ....|R-- .... ....
....|..|--- .... ....|--- .... ....|D-4 2F1A ....
....|..|--- .... ....|R-- .... ....|R-- .... ....
....|..|--- .... ....|B-3 3F.F ....|D-4 2F1F ....
....|..|--- .... ....|--- .... ....|R-- .... ....
....|..|--- .... ....|--- .... ....|D-4 2F1A ....
....|..|D-4 UF.F ....|--- .... ....|R-- .... ....
....|..|C-4 UF2F ....|R-- .... ....|D-4 2F1F ....
....|..|--- .... ....|R-- .... ....|R-- .... ....
....|..|--- .... ....|D-4 3F.7 ....|D-4 2F1A ....
....|..|--- .... ....|--- .... ....|R-- .... ....
....|..|--- .... ....|B-3 3F.F ....|D-4 2F1F ....
....|..|D-4 UF.A ....|--- .... ....|R-- .... ....
....|..|C-4 UF2A ....|R-- .... ....|D-4 2F1A ....
....|..|--- .... ....|R-- .... ....|R-- .... ....
....|..|--- .... ....|B-3 3F.F ....|D-4 2F1F ....
....|..|--- .... ....|--- .... ....|R-- .... ....
....|..|--- .... ....|B-3 3F.A ....|D-4 2F1A ....
....|..|D-4 UF.7 ....|R-- .... ....|R-- .... ....
....|..|C-4 UF27 ....|B-3 3F.F ....|D-4 2F1F ....
....|..|--- .... ....|R-- .... ....|R-- .... ....
....|..|--- .... ....|B-3 3F.A ....|D-4 2F1A ....
....|..|--- .... ....|R-- .... ....|R-- .... ....
....|..|--- .... ....|B-3 3F.F ....|D-4 2F1F ....
....|..|--- .... ....|R-- .... ....|R-- .... ....
....|..|--- .... ....|B-3 3F.A ....|D-4 2F1A ....
....|..|--- .... ....|R-- .... ....|R-- .... ....
....|..|--- .... ....|B-3 3F.F ....|D-4 2F1F ....
....|..|--- .... ....|R-- .... ....|R-- .... ....
....|..|--- .... ....|B-3 3F.A ....|D-4 2F1A ....
....|..|--- .... ....|R-- .... ....|R-- .... ....
....|..|--- .... ....|A-3 3F.F ....|D-4 2F1F ....
....|..|--- .... ....|R-- .... ....|R-- .... ....
....|..|--- .... ....|B-3 3F.A ....|D-4 2F1A ....
....|..|--- .... ....|R-- .... ....|R-- .... ....
....|..|--- .... ....|B-3 3F.F ....|D-4 2F1F ....
....|..|--- .... ....|R-- .... ....|R-- .... ....
....|..|--- .... ....|A-3 3F.A ....|D-4 2F1A ....
....|..|E-4 UF3F ....|R-- .... ....|R-- .... ....

[Pattern4]
....|..|B-3 UF4F ....|B-3 3F.7 ....|D-4 2F1F ....
....|..|--- .... ....|R-- .... ....|R-- .... ....
....|..|--- .... ....|B-3 3F.A ....|D-4 2F1A ....
....|..|--- .... ....|R-- .... ....|R-- .... ....
....|..|--- .... ....|B-3 3F.F ....|D-4 2F1F ....
....|..|E-4 UF3A ....|--- .... ....|R-- .... ....
....|..|B-3 UF4A ....|R-- .... ....|D-4 2F1A ....
....|..|--- .... ....|R-- .... ....|R-- .... ....
....|..|--- .... ....|B-3 3F.F ....|D-4 2F1F ....
....|..|--- .... ....|--- .... ....|R-- .... ....
....|..|--- .... ....|B-3 3F.A ....|D-4 2F1A ....
....|..|E-4 UF37 ....|R-- .... ....|R-- .... ....
....|..|B-3 UF47 ....|B-3 3F.F ....|D-4 2F1F ....
....|..|--- .... ....|R-- .... ....|R-- .... ....
....|..|--- .... ....|B-3 3F.A ....|D-4 2F1A ....
....|..|--- .... ....|R-- .... ....|R-- .... ....
....|..|--- .... ....|B-3 3F.F ....|D-4 2F1F ....
....|..|--- .... ....|R-- .... ....|R-- .... ....
....|..|--- .... ....|B-3 3F.A ....|D-4 2F1A ....
....|..|--- .... ....|R-- .... ....|R-- .... ....
....|..|--- .... ....|B-3 3F.F ....|D-4 2F1F ....
....|..|--- .... ....|R-- .... ....|R-- .... ....
....|..|--- .... ....|B-3 3F.A ....|D-4 2F1A ....
....|..|--- .... ....|R-- .... ....|R-- .... ....
....|..|--- .... ....|A-3 3F.F ....|D-4 2F1F ....
....|..|--- .... ....|R-- .... ....|R-- .... ....
....|..|--- .... ....|B-3 3F.A ....|D-4 2F1A ....
....|..|--- .... ....|R-- .... ....|R-- .... ....
....|..|--- .... ....|B-3 3F.F ....|D-4 2F1F ....
....|..|--- .... ....|--- .... ....|R-- .... ....
....|..|--- .... ....|A-3 3F.A ....|D-4 2F1A ....
....|..|G-4 UF.F ....|R-- .... ....|R-- .... ....
....|..|C-4 UF2F ....|B-3 3F.7 ....|D-4 2F1F ....
....|..|--- .... ....|R-- .... ....|R-- .... ....
....|..|--- .... ....|B-3 3F.A ....|D-4 2F1A ....
....|..|--- .... ....|--- .... ....|R-- .... ....
....|..|--- .... ....|B-3 3F.F ....|D-4 2F1F ....
....|..|G-4 UF.A ....|R-- .... ....|R-- .... ....
....|..|C-4 UF2A ....|--- .... ....|D-4 2F1A ....
....|..|--- .... ....|R-- .... ....|R-- .... ....
....|..|--- .... ....|B-3 3F.F ....|D-4 2F1F ....
....|..|--- .... ....|--- .... ....|R-- .... ....
....|..|--- .... ....|B-3 3F.A ....|D-4 2F1A ....
....|..|G-4 UF.7 ....|R-- .... ....|R-- .... ....
....|..|C-4 UF27 ....|B-3 3F.F ....|D-4 2F1F ....
....|..|--- .... ....|R-- .... ....|R-- .... ....
....|..|--- .... ....|B-3 3F.A ....|D-4 2F1A ....
....|..|--- .... ....|R-- .... ....|R-- .... ....
....|..|--- .... ....|B-3 3F.F ....|D-4 2F1F ....
....|..|--- .... ....|R-- .... ....|R-- .... ....
....|..|--- .... ....|B-3 3F.A ....|D-4 2F1A ....
....|..|--- .... ....|R-- .... ....|R-- .... ....
....|..|--- .... ....|B-3 3F.F ....|D-4 2F1F ....
....|..|--- .... ....|R-- .... ....|R-- .... ....
....|..|--- .... ....|B-3 3F.A ....|D-4 2F1A ....
....|..|--- .... ....|R-- .... ....|R-- .... ....
....|..|--- .... ....|A-3 3F.F ....|D-4 2F1F ....
....|..|--- .... ....|R-- .... ....|R-- .... ....
....|..|--- .... ....|B-3 3F.A ....|D-4 2F1A ....
....|..|--- .... ....|R-- .... ....|R-- .... ....
....|..|--- .... ....|A-3 3F.F ....|D-4 2F1F ....
....|..|--- .... ....|R-- .... ....|R-- .... ....
....|..|--- .... ....|A-3 3F.A ....|D-4 2F1A ....
....|..|G-4 UF.F ....|R-- .... ....|R-- .... ....

[Pattern5]
....|..|A-3 UF5F ....|B-3 3F.7 ....|D-4 2F1F ....
....|..|--- .... ....|R-- .... ....|R-- .... ....
....|..|--- .... ....|A-3 3F.A ....|D-4 2F1A ....
....|..|--- .... ....|R-- .... ....|R-- .... ....
....|..|--- .... ....|A-3 3F.F ....|D-4 2F1F ....
....|..|G-4 UF.A ....|--- .... ....|R-- .... ....
....|..|A-3 UF5A ....|R-- .... ....|D-4 2F1A ....
....|..|--- .... ....|R-- .... ....|R-- .... ....
....|..|--- .... ....|A-3 3F.F ....|D-4 2F1F ....
....|..|--- .... ....|--- .... ....|R-- .... ....
....|..|--- .... ....|A-3 3F.A ....|D-4 2F1A ....
....|..|G-4 UF.7 ....|--- .... ....|R-- .... ....
....|..|A-3 UF57 ....|G-3 3F.F ....|D-4 2F1F ....
....|..|--- .... ....|R-- .... ....|R-- .... ....
....|..|--- .... ....|A-3 3F.A ....|D-4 2F1A ....
....|..|--- .... ....|R-- .... ....|R-- .... ....
....|..|--- .... ....|G-3 3F.F ....|D-4 2F1F ....
....|..|--- .... ....|--- .... ....|R-- .... ....
....|..|--- .... ....|G-3 3F.A ....|D-4 2F1A ....
....|..|--- .... ....|R-- .... ....|R-- .... ....
....|..|--- .... ....|A-3 3F.7 ....|D-4 2F1F ....
....|..|--- .... ....|R-- .... ....|R-- .... ....
....|..|--- .... ....|D-4 3F.F ....|D-4 2F1A ....
....|..|--- .... ....|--- .... ....|R-- .... ....
....|..|--- .... ....|G-3 3F.7 311F|D-4 2F1F ....
....|..|--- .... ....|--- .... ....|R-- .... ....
....|..|--- .... ....|--- .... ....|D-4 2F1A ....
....|..|--- .... ....|R-- .... ....|R-- .... ....
....|..|--- .... ....|B-3 3F.F ....|D-4 2F1F ....
....|..|--- .... ....|--- .... ....|R-- .... ....
....|..|--- .... ....|--- .... ....|D-4 2F1A ....
....|..|C-4 UF.F ....|--- .... ....|R-- .... ....
 C-3|..|C-1 2AFF ....|R-- .... ....|D-4 2F1F ....
 C-3|..|--- .... ....|R-- .... ....|C-1 2A.F ....
....|..|--- .... ....|D-4 3F.7 ....|D-4 2F1A ....
....|..|--- .... ....|--- .... ....|R-- .... ....
 C-3|..|C-1 2AFF ....|--- .... ....|D-4 2F1F ....
 C-3|..|C-4 UF.A ....|--- .... ....|C-1 2A.F ....
....|..|C-1 2FFA ....|R-- .... ....|D-4 2F1A ....
....|..|--- .... ....|--- .... ....|R-- .... ....
 C-3|..|C-1 2AFF ....|D-4 3F.F ....|D-4 2F1F ....
 C-3|..|--- .... ....|--- .... ....|C-1 2A.F ....
....|..|C-1 2FFA ....|--- .... ....|D-4 2F1A ....
....|..|C-4 UF.7 ....|--- .... ....|R-- .... ....
 C-3|..|C-1 2AFF ....|R-- .... ....|D-4 2F1F ....
 C-3|..|--- .... ....|R-- .... ....|C-1 2A.F ....
....|..|C-1 2FFA ....|D-4 3F.A ....|D-4 2F1A ....
....|..|--- .... ....|--- .... ....|R-- .... ....
 C-3|..|C-1 2AFF ....|D-4 3F.F ....|D-4 2F1F ....
 C-3|..|--- .... ....|--- .... ....|C-1 2A.F ....
....|..|C-1 2FFA ....|B-3 3F.F ....|D-4 2F1A ....
....|..|--- .... ....|R-- .... ....|R-- .... ....
 C-3|..|C-1 2AFF ....|D-4 3F.7 ....|D-4 2F1F ....
 C-3|..|--- .... ....|R-- .... ....|C-1 2A.F ....
....|..|C-1 2FFA ....|A-3 3F.F ....|D-4 2F1A ....
....|..|--- .... ....|C-4 6F.F ....|R-- .... ....
 C-3|..|C-1 2AFF ....|B-3 3F.A ....|D-4 2F1F ....
 C-3|..|--- .... ....|R-- .... ....|C-1 2A.F ....
....|..|C-1 2FFA ....|G-3 3F.F ....|D-4 2F1A ....
....|..|--- .... ....|R-- .... ....|R-- .... ....
 G-3|..|G-1 2AFF ....|D-4 6F.A ....|D-4 2F1F ....
 G-3|..|--- .... ....|C-4 6F.A ....|G-1 2A.F ....
....|..|C-1 2FFA ....|B-3 3F.7 ....|D-4 2F1A ....
....|..|E-4 UF3F ....|R-- .... ....|R-- .... ....

[Pattern6]
 G-3|..|G-1 2AFF ....|D-4 3F.F ....|D-4 2F1F ....
 G-3|..|--- .... ....|R-- .... ....|G-1 2A.F ....
....|..|G-1 2FFA ....|A-3 3F.7 ....|D-4 2F1A ....
....|..|--- .... ....|C-4 6F.7 ....|R-- .... ....
 D-3|..|D-1 2AFF ....|R-- .... ....|D-4 2F1F ....
 D-3|..|E-4 UF3A ....|R-- .... ....|D-1 2A.F ....
....|..|G-1 2FFA ....|G-3 3F.7 ....|D-4 2F1A ....
....|..|--- .... ....|--- .... ....|R-- .... ....
 D-3|..|D-1 2AFF ....|D-4 3F.F ....|D-4 2F1F ....
 D-3|..|--- .... ....|R-- .... ....|D-1 2A.F ....
....|..|D-1 2FFA ....|R-- .... ....|D-4 2F1A ....
....|..|E-4 UF37 ....|--- .... ....|R-- .... ....
 D-3|..|D-1 2AFF ....|D-4 3F.7 ....|D-4 2F1F ....
 D-3|..|--- .... ....|--- .... ....|D-1 2A.F ....
....|..|D-1 2FFA ....|D-4 3F.A ....|D-4 2F1A ....
....|..|--- .... ....|--- .... ....|R-- .... ....
 D-3|..|D-1 2AFF ....|D-4 3F.F ....|D-4 2F1F ....
 D-3|..|--- .... ....|--- .... ....|D-1 2A.F ....
....|..|D-1 2FFA ....|B-3 3F.F ....|D-4 2F1A ....
....|..|--- .... ....|--- .... ....|R-- .... ....
 D-3|..|D-1 2AFF ....|D-4 3F.7 ....|D-4 2F1F ....
 D-3|..|--- .... ....|--- .... ....|D-1 2A.F ....
....|..|D-1 2FFA ....|A-3 3F.F ....|D-4 2F1A ....
....|..|--- .... ....|C-4 6F.F ....|R-- .... ....
 D-3|..|D-1 2AFF ....|B-3 3F.A ....|D-4 2F1F ....
 D-3|..|--- .... ....|R-- .... ....|D-1 2A.F ....
....|..|D-1 2FFA ....|G-3 3F.F ....|D-4 2F1A ....
....|..|--- .... ....|--- .... ....|R-- .... ....
 E-3|..|E-1 2AFF ....|D-4 6F.A ....|D-4 2F1F ....
 E-3|..|--- .... ....|C-4 6F.A ....|E-1 2A.F ....
....|..|D-3 UF7F ....|B-3 3F.7 ....|D-4 2F1A ....
....|..|G-4 UF.F ....|R-- .... ....|R-- .... ....
 E-3|..|E-1 2AFF ....|D-4 3F.F ....|D-4 2F1F ....
 E-3|..|--- .... ....|--- .... ....|E-1 2A.F ....
....|..|E-1 2FFA ....|A-3 3F.7 ....|D-4 2F1A ....
....|..|--- .... ....|C-4 6F.7 ....|R-- .... ....
 C-3|..|C-1 2AFF ....|R-- .... ....|D-4 2F1F ....
 C-3|..|G-4 UF.A ....|R-- .... ....|C-1 2A.F ....
....|..|E-1 2FFA ....|G-3 3F.7 ....|D-4 2F1A ....
....|..|--- .... ....|--- .... ....|R-- .... ....
 C-3|..|C-1 2AFF ....|D-4 3F.F ....|D-4 2F1F ....
 C-3|..|--- .... ....|R-- .... ....|C-1 2A.F ....
....|..|C-1 2FFA ....|R-- .... ....|D-4 2F1A ....
....|..|G-4 UF.7 ....|--- .... ....|R-- .... ....
 C-3|..|C-1 2AFF ....|D-4 3F.7 ....|D-4 2F1F ....
 C-3|..|--- .... ....|R-- .... ....|C-1 2A.F ....
....|..|C-1 2FFA ....|D-4 3F.A ....|D-4 2F1A ....
....|..|--- .... ....|--- .... ....|R-- .... ....
 C-3|..|C-1 2AFF ....|D-4 3F.F ....|D-4 2F1F ....
 C-3|..|--- .... ....|--- .... ....|C-1 2A.F ....
....|..|C-1 2FFA ....|B-3 3F.F ....|D-4 2F1A ....
....|..|--- .... ....|R-- .... ....|R-- .... ....
 C-3|..|C-1 2AFF ....|D-4 3F.7 ....|D-4 2F1F ....
 C-3|..|--- .... ....|R-- .... ....|C-1 2A.F ....
....|..|C-1 2FFA ....|A-3 3F.F ....|D-4 2F1A ....
....|..|--- .... ....|--- .... ....|R-- .... ....
 C-3|..|C-1 2AFF ....|B-3 3F.A ....|D-4 2F1F ....
 C-3|..|--- .... ....|R-- .... ....|C-1 2A.F ....
....|..|C-1 2FFA ....|G-3 3F.F ....|D-4 2F1A ....
....|..|--- .... ....|R-- .... ....|R-- .... ....
 G-3|..|G-1 2AFF ....|C-4 6F.A ....|D-4 2F1F ....
 G-3|..|--- .... ....|R-- .... ....|G-1 2A.F ....
....|..|E-4 UF3F ....|B-3 3F.7 ....|D-4 2F1A ....
....|..|G-4 UF.F ....|--- .... ....|R-- .... ....

[Pattern7]
 G-3|..|G-1 2AFF ....|G-4 3F.F ....|D-4 2F1F ....
 G-3|..|--- .... ....|R-- .... ....|G-1 2A.F ....
....|..|G-1 2FFA ....|A-3 3F.7 ....|D-4 2F1A ....
....|..|--- .... ....|R-- .... ....|R-- .... ....
 D-3|..|D-1 2AFF ....|G-4 3F.F ....|D-4 2F1F ....
 D-3|..|G-4 UF.A ....|--- .... ....|D-1 2A.F ....
....|..|G-1 2FFA ....|G-3 3F.7 ....|D-4 2F1A ....
....|..|--- .... ....|R-- .... ....|R-- .... ....
 D-3|..|D-1 2AFF ....|G-4 3F.F ....|D-4 2F1F ....
 D-3|..|--- .... ....|R-- .... ....|D-1 2A.F ....
....|..|D-1 2FFA ....|G-4 3F.A ....|D-4 2F1A ....
....|..|G-4 UF.7 ....|R-- .... ....|R-- .... ....
 D-3|..|D-1 2AFF ....|G-4 3F.F ....|D-4 2F1F ....
 D-3|..|--- .... ....|R-- .... ....|D-1 2A.F ....
....|..|D-1 2FFA ....|G-4 3F.A ....|D-4 2F1A ....
....|..|--- .... ....|R-- .... ....|R-- .... ....
 D-3|..|D-1 2AFF ....|G-4 3F.F ....|D-4 2F1F ....
 D-3|..|--- .... ....|R-- .... ....|D-1 2A.F ....
....|..|D-1 2FFA ....|G-4 3F.A ....|D-4 2F1A ....
....|..|--- .... ....|R-- .... ....|R-- .... ....
....|..|D-1 2FF7 ....|G-4 3F.F ....|D-4 2F17 ....
....|..|--- .... ....|R-- .... ....|G-1 2F.7 ....
....|..|D-1 2FFA ....|G-4 3F.A ....|D-4 2F1A ....
....|..|--- .... ....|R-- .... ....|--- .... ....
....|..|D-1 2FF7 ....|A-4 3F.F ....|D-4 2F1F ....
....|..|--- .... ....|R-- .... ....|G-1 2F.7 ....
....|..|--- .... ....|G-4 3F.A ....|--- .... ....
....|..|--- .... ....|R-- .... ....|--- .... ....
....|..|D-1 2FF7 ....|B-4 3F.F ....|D-4 2F17 ....
....|..|--- .... ....|R-- .... ....|D-1 2F.7 ....
....|..|R-- .... ....|A-4 3F.A ....|D-4 2F1A ....
....|..|C-4 UF9F ....|R-- .... ....|R-- .... ....
....|..|E-5 3F.F ....|G-4 3F.7 ....|C-4 2FEF ....
 C-3|..|C-3 2C.F ....|--- .... ....|C-2 2A.F ....
 C-3|..|C-1 2AFF ....|B-4 3F.A ....|--- .... ....
....|..|--- .... ....|R-- .... ....|--- .... ....
....|..|R-- .... ....|A-4 3F.7 ....|D-4 2F17 ....
....|..|C-4 UF9A ....|R-- .... ....|D-1 2F.7 ....
....|..|E-5 3F.A ....|--- .... ....|E-4 2F.F ....
....|..|C-1 2FFA ....|--- .... ....|R-- .... ....
....|..|R-- .... ....|G-4 3F.F ....|D-1 2F.7 ....
....|..|--- .... ....|--- .... ....|--- .... ....
....|..|--- .... ....|--- .... ....|--- .... ....
....|..|C-4 UF97 ....|R-- .... ....|--- .... ....
....|..|C-3 2F.A ....|--- .... ....|C-1 2F.A ....
....|..|C-1 2FF7 ....|R-- .... ....|R-- .... ....
....|..|R-- .... ....|G-4 3F.A ....|--- .... ....
....|..|--- .... ....|--- .... ....|--- .... ....
....|..|--- .... ....|B-3 3F.F ....|R-- .... ....
....|..|--- .... ....|--- .... ....|--- .... ....
....|..|--- .... ....|D-4 3F.F ....|E-4 2F.7 ....
....|..|R-- .... ....|D-4 3F.F ....|R-- .... ....
....|..|R-- .... ....|G-4 3F.7 ....|R-- .... ....
....|..|--- .... ....|R-- .... ....|--- .... ....
....|..|--- .... ....|G-4 3F.F ....|--- .... ....
....|..|--- .... ....|--- .... ....|--- .... ....
....|..|C-3 2F.7 ....|D-4 3F.A ....|C-1 2F.7 ....
....|..|--- .... ....|D-4 3F.A ....|--- .... ....
....|..|E-4 UF3F ....|D-4 3F.F ....|--- .... ....
....|..|R-- .... ....|R-- .... ....|--- .... ....
....|..|B-5 3F.F ....|B-3 3F.7 ....|D-4 2F1F ....
 G-4|..|G-3 2C.F ....|R-- .... ....|G-2 2A.F ....
 G-3|..|G-1 2AFF ....|D-4 3F.7 ....|--- .... ....
....|..|R-- .... ....|D-4 3F.7 ....|--- .... ....

[Pattern8]
....|..|E-4 UF3A ....|D-4 3F.A ....|R-- .... ....
....|..|R-- .... ....|R-- .... ....|R-- .... ....
....|..|G-3 UFBF ....|G-4 3F.7 ....|D-4 2F1A ....
....|..|R-- .... ....|R-- .... ....|--- .... ....
....|..|F#5 3F.F ....|--- .... ....|D-4 2FEF ....
 D-4|..|D-3 2C.F ....|--- .... ....|D-2 2A.F ....
 D-3|..|D-1 2AFF ....|D-4 3F.7 ....|--- .... ....
....|..|R-- .... ....|--- .... ....|D-4 2F.F ....
....|..|F#5 3F.F ....|--- .... ....|D-4 2FEF ....
 D-4|..|D-3 2C.F ....|R-- .... ....|D-2 2A.F ....
....|..|F#5 3F.A ....|--- .... ....|D-4 2FEA ....
 D-3|..|D-1 2AFF ....|--- .... ....|--- .... ....
....|..|D-1 2FFA ....|B-3 3F.F ....|D-4 2F.F ....
....|..|R-- .... ....|--- .... ....|D-4 2F.A ....
....|..|D-1 2FFA ....|--- .... ....|D-4 2FEA ....
....|..|R-- .... ....|R-- .... ....|R-- .... ....
....|..|D-3 2F.A ....|B-3 3F.F ....|D-1 2F.A ....
....|..|D-1 2FF7 ....|--- .... ....|--- .... ....
....|..|--- .... ....|D-4 3F.F ....|D-4 2F.A ....
....|..|R-- .... ....|D-4 3F.F ....|R-- .... ....
....|..|F#5 3F.7 ....|R-- .... ....|D-4 2FE7 ....
....|..|R-- .... ....|R-- .... ....|G-1 2F.7 ....
....|..|D-1 2FF7 ....|B-4 3F.F ....|--- .... ....
....|..|--- .... ....|--- .... ....|--- .... ....
....|..|R-- .... ....|B-3 3F.7 ....|D-4 2F.7 ....
....|..|R-- .... ....|D-4 3F.A ....|R-- .... ....
....|..|F#4 UF3F ....|R-- .... ....|--- .... ....
....|..|R-- .... ....|R-- .... ....|R-- .... ....
....|..|G-5 3F.F ....|G-4 3F.F ....|E-4 2F3F ....
 E-4|..|E-3 2C.F ....|--- .... ....|E-2 2A.F ....
 E-3|..|E-1 2AFF ....|D-4 3F.7 ....|--- .... ....
....|..|R-- .... ....|D-4 3F.7 ....|R-- .... ....
....|..|F#4 UF3A ....|R-- .... ....|D-1 2F.7 ....
....|..|R-- .... ....|--- .... ....|R-- .... ....
....|..|G-5 3F.A ....|B-4 3F.7 ....|E-4 2F3A ....
....|..|R-- .... ....|--- .... ....|--- .... ....
....|..|E-5 3F.F ....|--- .... ....|C-4 2FEF ....
 C-3|..|C-3 2C.F ....|R-- .... ....|C-2 2A.F ....
 C-3|..|C-1 2AFF ....|--- .... ....|R-- .... ....
....|..|R-- .... ....|--- .... ....|R-- .... ....
....|..|E-5 3F.F ....|G-4 3F.7 ....|C-4 2FEF ....
 C-3|..|C-3 2C.F ....|--- .... ....|C-2 2A.F ....
....|..|E-5 3F.A ....|--- .... ....|C-4 2FEA ....
 C-3|..|C-1 2AFF ....|R-- .... ....|--- .... ....
 C-3|..|C-3 2C.F ....|G-4 3F.F ....|R-- .... ....
....|..|C-1 2FFA ....|--- .... ....|R-- .... ....
....|..|E-5 3F.A ....|--- .... ....|C-4 2FEA ....
....|..|C-1 2FFA ....|R-- .... ....|--- .... ....
....|..|C-3 2F.A ....|B-4 3F.F ....|C-1 2F.A ....
....|..|C-1 2FF7 ....|--- .... ....|--- .... ....
....|..|--- .... ....|G-4 3F.A ....|--- .... ....
....|..|R-- .... ....|--- .... ....|R-- .... ....
....|..|E-5 3F.7 ....|C-5 3F.F ....|C-4 2FE7 ....
....|..|E-3 2F.7 ....|R-- .... ....|E-1 2F.7 ....
....|..|R-- .... ....|B-4 3F.A ....|--- .... ....
....|..|--- .... ....|R-- .... ....|--- .... ....
....|..|C-3 2F.A ....|B-4 3F.F ....|--- .... ....
....|..|--- .... ....|--- .... ....|R-- .... ....
....|..|R-- .... ....|C-5 3F.A ....|R-- .... ....
....|..|C-3 UF.F ....|R-- .... ....|--- .... ....
....|..|B-5 3F.F ....|G-4 3F.F ....|D-4 2F1F ....
 G-4|..|G-3 2C.F ....|R-- .... ....|G-2 2A.F ....
 G-3|..|G-1 2AFF ....|B-4 3F.A ....|--- .... ....
....|..|R-- .... ....|R-- .... ....|R-- .... ....

[Pattern9]
....|..|C-3 2F.7 ....|C-5 3F.7 ....|C-1 2F.7 ....
....|..|C-3 UF.A ....|--- .... ....|R-- .... ....
....|..|G-3 UFDF ....|G-4 3F.A ....|D-4 2F1A ....
....|..|R-- .... ....|R-- .... ....|--- .... ....
....|..|F#5 3F.F ....|B-4 3F.7 ....|D-4 2FEF ....
 D-4|..|D-3 2C.F ....|R-- .... ....|D-2 2A.F ....
 D-3|..|D-1 2AFF ....|--- .... ....|R-- .... ....
....|..|C-3 UF.7 ....|--- .... ....|R-- .... ....
....|..|F#5 3F.F ....|G-4 3F.7 ....|D-4 2FEF ....
 D-4|..|D-3 2C.F ....|--- .... ....|D-2 2A.F ....
....|..|F#5 3F.A ....|--- .... ....|D-4 2FEA ....
 D-3|..|D-1 2AFF ....|R-- .... ....|--- .... ....
....|..|D-1 2FFA ....|G-4 3F.F ....|R-- .... ....
....|..|R-- .... ....|--- .... ....|R-- .... ....
....|..|D-1 2FFA ....|--- .... ....|D-4 2FEA ....
....|..|R-- .... ....|R-- .... ....|--- .... ....
....|..|D-3 2F.A ....|B-4 3F.F ....|D-1 2F.A ....
....|..|D-1 2FF7 ....|--- .... ....|--- .... ....
....|..|--- .... ....|G-4 3F.A ....|--- .... ....
....|..|R-- .... ....|--- .... ....|R-- .... ....
....|..|F#5 3F.7 ....|A-4 3F.F ....|D-4 2FE7 ....
....|..|G-3 2F.7 ....|R-- .... ....|G-1 2F.7 ....
....|..|R-- .... ....|B-4 3F.A ....|--- .... ....
....|..|--- .... ....|R-- .... ....|--- .... ....
....|..|R-- .... ....|A-4 3F.F ....|--- .... ....
....|..|R-- .... ....|--- .... ....|R-- .... ....
....|..|R-- .... ....|A-4 3F.A ....|R-- .... ....
....|..|--- .... ....|R-- .... ....|--- .... ....
....|..|D-3 2F.7 ....|G-4 3F.F ....|D-1 2F.7 ....
....|..|R-- .... ....|R-- .... ....|--- .... ....
....|..|--- .... ....|A-4 3F.A ....|--- .... ....
....|..|R-- .... ....|R-- .... ....|R-- .... ....
 C-3|..|C-3 2C.F ....|A-4 3F.7 ....|C-4 2FEF ....
 C-3|..|C-1 2AFF ....|--- .... ....|C-1 2A.F ....
....|..|--- .... ....|G-4 3F.A ....|--- .... ....
....|..|--- .... ....|R-- .... ....|--- .... ....
....|..|--- .... ....|A-4 3F.7 ....|--- .... ....
....|..|R-- .... ....|R-- .... ....|--- .... ....
....|..|C-1 2FFA ....|--- .... ....|E-4 2F.F ....
....|..|R-- .... ....|--- .... ....|R-- .... ....
....|..|R-- .... ....|G-4 3F.F ....|R-- .... ....
....|..|--- .... ....|--- .... ....|--- .... ....
....|..|--- .... ....|--- .... ....|--- .... ....
....|..|R-- .... ....|R-- .... ....|--- .... ....
....|..|C-3 2F.A ....|--- .... ....|C-1 2F.A ....
....|..|C-1 2FF7 ....|R-- .... ....|R-- .... ....
....|..|R-- .... ....|G-4 3F.A ....|--- .... ....
....|..|--- .... ....|--- .... ....|--- .... ....
....|..|--- .... ....|B-3 3F.F ....|--- .... ....
....|..|--- .... ....|--- .... ....|--- .... ....
....|..|--- .... ....|D-4 3F.F ....|E-4 2F.7 ....
....|..|R-- .... ....|D-4 3F.F ....|R-- .... ....
....|..|R-- .... ....|G-4 3F.7 ....|R-- .... ....
....|..|--- .... ....|D-4 1F.7 ....|--- .... ....
....|..|--- .... ....|G-4 3F.F 311F|--- .... ....
....|..|--- .... ....|--- .... ....|--- .... ....
....|..|C-3 2F.7 ....|D-4 3F.A ....|C-1 2F.7 ....
....|..|--- .... ....|D-4 3F.A ....|--- .... ....
....|..|R-- .... ....|D-4 3F.F ....|--- .... ....
....|..|--- .... ....|R-- .... ....|--- .... ....
....|..|B-5 3F.F ....|B-3 3F.7 ....|D-4 2F1F ....
 G-4|..|G-3 2C.F ....|R-- .... ....|G-2 2A.F ....
 G-3|..|G-1 2AFF ....|D-4 3F.7 ....|--- .... ....
....|..|R-- .... ....|D-4 3F.7 ....|--- .... ....

[Pattern10]
....|..|R-- .... ....|D-4 3F.A ....|R-- .... ....
....|..|R-- .... ....|R-- .... ....|R-- .... ....
....|..|G-3 UFBF ....|G-4 3F.7 ....|D-4 2F1A ....
....|..|R-- .... ....|R-- .... ....|--- .... ....
....|..|F#5 3F.F ....|--- .... ....|D-4 2FEF ....
 D-4|..|D-3 2C.F ....|--- .... ....|D-2 2A.F ....
 D-3|..|D-1 2AFF ....|D-4 3F.7 ....|--- .... ....
....|..|R-- .... ....|--- .... ....|D-4 2F.F ....
....|..|F#5 3F.F ....|--- .... ....|D-4 2FEF ....
 D-4|..|D-3 2C.F ....|R-- .... ....|D-2 2A.F ....
....|..|F#5 3F.A ....|--- .... ....|D-4 2FEA ....
 D-3|..|D-1 2AFF ....|--- .... ....|--- .... ....
....|..|D-1 2FFA ....|--- .... ....|D-4 2F.F ....
....|..|R-- .... ....|--- .... ....|D-4 2F.A ....
....|..|D-1 2FFA ....|--- .... ....|D-4 2FEA ....
....|..|R-- .... ....|B-3 3F.F ....|R-- .... ....
....|..|D-3 2F.A ....|--- .... 21.3|D-1 2F.A ....
....|..|D-1 2FF7 ....|--- .... ....|--- .... ....
....|..|--- .... ....|D-4 3F.F 311F|D-4 2F.A ....
....|..|R-- .... ....|--- .... ....|R-- .... ....
....|..|F#5 3F.7 ....|--- .... 11.2|D-4 2FE7 ....
....|..|R-- .... ....|--- .... ....|G-1 2F.7 ....
....|..|D-1 2FF7 ....|B-4 3F.F 311F|--- .... ....
....|..|--- .... ....|--- .... ....|--- .... ....
....|..|R-- .... ....|--- .... ....|D-4 2F.7 ....
....|..|R-- .... ....|D-4 3F.A ....|R-- .... ....
....|..|F#4 UF3F ....|--- .... ....|--- .... ....
....|..|R-- .... ....|B-3 3F.7 ....|R-- .... ....
....|..|G-5 3F.F ....|G-4 3F.F ....|E-4 2F3F ....
 E-4|..|E-3 2C.F ....|--- .... ....|E-2 2A.F ....
 E-3|..|E-1 2AFF ....|--- .... ....|--- .... ....
....|..|R-- .... ....|D-4 3F.7 ....|R-- .... ....
....|..|F#4 UF3A ....|--- .... ....|D-1 2F.7 ....
....|..|R-- .... ....|--- .... ....|R-- .... ....
....|..|G-5 3F.A ....|B-4 3F.7 ....|E-4 2F3A ....
....|..|R-- .... ....|--- .... ....|--- .... ....
....|..|E-5 3F.F ....|--- .... ....|C-4 2FEF ....
 C-3|..|C-3 2C.F ....|R-- .... ....|C-2 2A.F ....
 C-3|..|C-1 2AFF ....|--- .... ....|R-- .... ....
....|..|R-- .... ....|--- .... ....|R-- .... ....
....|..|E-5 3F.F ....|G-4 3F.7 ....|C-4 2FEF ....
 C-3|..|C-3 2C.F ....|--- .... ....|C-2 2A.F ....
....|..|E-5 3F.A ....|--- .... ....|C-4 2FEA ....
 C-3|..|C-1 2AFF ....|R-- .... ....|--- .... ....
 C-3|..|C-3 2C.F ....|G-4 3F.F ....|R-- .... ....
....|..|C-1 2FFA ....|--- .... ....|R-- .... ....
....|..|E-5 3F.A ....|--- .... ....|C-4 2FEA ....
....|..|C-1 2FFA ....|--- .... ....|--- .... ....
....|..|C-3 2F.A ....|B-4 3F.F 311F|C-1 2F.A ....
....|..|C-1 2FF7 ....|--- .... ....|--- .... ....
....|..|--- .... ....|G-4 3F.A ....|--- .... ....
....|..|R-- .... ....|--- .... ....|R-- .... ....
....|..|E-5 3F.7 ....|C-5 3F.F ....|C-4 2FE7 ....
....|..|E-3 2F.7 ....|R-- .... ....|E-1 2F.7 ....
....|..|R-- .... ....|B-4 3F.A ....|--- .... ....
....|..|--- .... ....|R-- .... ....|--- .... ....
....|..|C-3 2F.A ....|B-4 3F.F ....|--- .... ....
....|..|--- .... ....|--- .... ....|R-- .... ....
....|..|R-- .... ....|C-5 3F.A ....|R-- .... ....
....|..|C-3 UF.F ....|R-- .... ....|--- .... ....
....|..|B-5 3F.F ....|G-4 3F.F ....|D-4 2F1F ....
 G-4|..|G-3 2C.F ....|R-- .... ....|G-2 2A.F ....
 G-3|..|G-1 2AFF ....|B-4 3F.A ....|--- .... ....
....|..|R-- .... ....|R-- .... ....|R-- .... ....

[Pattern12]
....|..|R-- .... ....|D-4 3F.A ....|R-- .... ....
....|..|R-- .... ....|R-- .... ....|R-- .... ....
....|..|G-3 UFBF ....|G-4 3F.7 ....|D-4 2F1A ....
....|..|R-- .... ....|R-- .... ....|--- .... ....
....|..|F#5 3F.F ....|--- .... ....|D-4 2FEF ....
 D-4|..|D-3 2C.F ....|--- .... ....|D-2 2A.F ....
 D-3|..|D-1 2AFF ....|D-4 3F.7 ....|--- .... ....
....|..|R-- .... ....|--- .... ....|D-4 2F.F ....
....|..|F#5 3F.F ....|--- .... ....|D-4 2FEF ....
 D-4|..|D-3 2C.F ....|R-- .... ....|D-2 2A.F ....
....|..|F#5 3F.A ....|--- .... ....|D-4 2FEA ....
 D-3|..|D-1 2AFF ....|--- .... ....|--- .... ....
....|..|D-1 2FFA ....|B-3 3F.F ....|D-4 2F.F ....
....|..|R-- .... ....|--- .... ....|D-4 2F.A ....
....|..|D-1 2FFA ....|--- .... ....|D-4 2FEA ....
....|..|R-- .... ....|R-- .... ....|R-- .... ....
....|..|D-3 2F.A ....|B-3 3F.F ....|D-1 2F.A ....
....|..|D-1 2FF7 ....|--- .... ....|--- .... ....
....|..|--- .... ....|D-4 3F.F ....|D-4 2F.A ....
....|..|R-- .... ....|D-4 3F.F ....|R-- .... ....
....|..|F#5 3F.7 ....|R-- .... ....|D-4 2FE7 ....
....|..|R-- .... ....|R-- .... ....|G-1 2F.7 ....
....|..|D-1 2FF7 ....|B-4 3F.F ....|--- .... ....
....|..|--- .... ....|--- .... ....|--- .... ....
....|..|R-- .... ....|B-3 3F.7 ....|D-4 2F.7 ....
....|..|R-- .... ....|D-4 3F.A ....|R-- .... ....
....|..|F#4 UF3F ....|R-- .... ....|--- .... ....
....|..|R-- .... ....|R-- .... ....|R-- .... ....
....|..|G-5 3F.F ....|G-4 3F.F ....|E-4 2F3F ....
 E-4|..|E-3 2C.F ....|--- .... ....|E-2 2A.F ....
 E-3|..|E-1 2AFF ....|D-4 3F.7 ....|--- .... ....
....|..|R-- .... ....|D-4 3F.7 ....|R-- .... ....
....|..|F#4 UF3A ....|R-- .... ....|D-1 2F.7 ....
....|..|R-- .... ....|--- .... ....|R-- .... ....
....|..|G-5 3F.A ....|B-4 3F.7 ....|E-4 2F3A ....
....|..|R-- .... ....|--- .... ....|--- .... ....
....|..|E-5 3F.F ....|--- .... ....|C-4 2FEF ....
 C-3|..|C-3 2C.F ....|R-- .... ....|C-2 2A.F ....
 C-3|..|C-1 2AFF ....|--- .... ....|R-- .... ....
....|..|R-- .... ....|--- .... ....|R-- .... ....
....|..|E-5 3F.F ....|G-4 3F.7 ....|C-4 2FEF ....
 C-3|..|C-3 2C.F ....|--- .... ....|C-2 2A.F ....
....|..|E-5 3F.A ....|--- .... ....|C-4 2FEA ....
 C-3|..|C-1 2AFF ....|R-- .... ....|--- .... ....
 C-3|..|C-3 2C.F ....|G-4 3F.F ....|R-- .... ....
....|..|C-1 2FFA ....|--- .... ....|R-- .... ....
....|..|E-5 3F.A ....|--- .... ....|C-4 2FEA ....
....|..|C-1 2FFA ....|R-- .... ....|--- .... ....
....|..|C-3 2F.A ....|B-4 3F.F ....|C-1 2F.A ....
....|..|C-1 2FF7 ....|--- .... ....|--- .... ....
....|..|--- .... ....|G-4 3F.A ....|--- .... ....
....|..|R-- .... ....|--- .... ....|R-- .... ....
....|..|E-5 3F.7 ....|C-5 3F.F ....|C-4 2FE7 ....
....|..|E-3 2F.7 ....|R-- .... ....|E-1 2F.7 ....
....|..|R-- .... ....|B-4 3F.A ....|--- .... ....
....|..|--- .... ....|R-- .... ....|--- .... ....
....|..|C-3 2F.A ....|B-4 3F.F ....|--- .... ....
....|..|--- .... ....|--- .... ....|R-- .... ....
....|..|R-- .... ....|C-5 3F.A ....|R-- .... ....
....|..|C-3 UF.F ....|R-- .... ....|--- .... ....
....|..|B-5 3F.F ....|G-4 3F.F ....|D-4 2F1F ....
 G-4|..|G-3 2C.F ....|R-- .... ....|G-2 2A.F ....
 G-3|..|G-1 2AFF ....|B-4 3F.A ....|--- .... ....
....|..|R-- .... ....|R-- .... ....|R-- .... ....

[Pattern13]
....|..|C-3 2F.7 ....|C-5 3F.7 ....|C-1 2F.7 ....
....|..|C-3 UF.A ....|--- .... ....|R-- .... ....
....|..|G-3 UFDF ....|G-4 3F.A ....|D-4 2F1A ....
....|..|R-- .... ....|R-- .... ....|--- .... ....
....|..|F#5 3F.F ....|B-4 3F.7 ....|D-4 2FEF ....
 D-4|..|D-3 2C.F ....|R-- .... ....|D-2 2A.F ....
 D-3|..|D-1 2AFF ....|--- .... ....|R-- .... ....
....|..|C-3 UF.7 ....|--- .... ....|R-- .... ....
....|..|F#5 3F.F ....|G-4 3F.7 ....|D-4 2FEF ....
 D-4|..|D-3 2C.F ....|--- .... ....|D-2 2A.F ....
....|..|F#5 3F.A ....|--- .... ....|D-4 2FEA ....
 D-3|..|D-1 2AFF ....|R-- .... ....|--- .... ....
....|..|D-1 2FFA ....|G-4 3F.F ....|R-- .... ....
....|..|R-- .... ....|--- .... ....|R-- .... ....
....|..|D-1 2FFA ....|--- .... ....|D-4 2FEA ....
....|..|R-- .... ....|R-- .... ....|--- .... ....
....|..|D-3 2F.A ....|B-4 3F.F ....|D-1 2F.A ....
....|..|D-1 2FF7 ....|--- .... ....|--- .... ....
....|..|--- .... ....|G-4 3F.A ....|--- .... ....
....|..|R-- .... ....|--- .... ....|R-- .... ....
....|..|F#5 3F.7 ....|A-4 3F.F ....|D-4 2FE7 ....
....|..|G-3 2F.7 ....|R-- .... ....|G-1 2F.7 ....
....|..|R-- .... ....|B-4 3F.A ....|--- .... ....
....|..|--- .... ....|R-- .... ....|--- .... ....
....|..|R-- .... ....|A-4 3F.F ....|--- .... ....
....|..|R-- .... ....|--- .... ....|R-- .... ....
....|..|R-- .... ....|A-4 3F.A ....|R-- .... ....
....|..|--- .... ....|R-- .... ....|--- .... ....
....|..|D-3 2F.7 ....|G-4 3F.F ....|D-1 2F.7 ....
....|..|R-- .... ....|R-- .... ....|--- .... ....
....|..|--- .... ....|A-4 3F.A ....|--- .... ....
....|..|R-- .... ....|R-- .... ....|R-- .... ....
 C-3|..|C-3 2C.F ....|A-4 3F.7 ....|C-4 2FEF ....
 C-3|..|C-1 2AFF ....|--- .... ....|C-1 2A.F ....
....|..|--- .... ....|G-4 3F.A ....|--- .... ....
....|..|--- .... ....|R-- .... ....|--- .... ....
....|..|--- .... ....|A-4 3F.7 ....|--- .... ....
....|..|R-- .... ....|R-- .... ....|--- .... ....
....|..|C-1 2FFA ....|--- .... ....|E-4 2F.F ....
....|..|R-- .... ....|--- .... ....|R-- .... ....
....|..|R-- .... ....|G-4 3F.F ....|R-- .... ....
....|..|--- .... ....|--- .... ....|--- .... ....
....|..|--- .... ....|--- .... ....|--- .... ....
....|..|R-- .... ....|R-- .... ....|--- .... ....
....|..|C-3 2F.A ....|--- .... ....|C-1 2F.A ....
....|..|C-1 2FF7 ....|R-- .... ....|R-- .... ....
....|..|R-- .... ....|G-4 3F.A ....|--- .... ....
....|..|--- .... ....|--- .... ....|--- .... ....
....|..|--- .... ....|B-3 3F.F ....|--- .... ....
....|..|--- .... ....|--- .... ....|--- .... ....
....|..|--- .... ....|D-4 3F.F ....|E-4 2F.7 ....
....|..|R-- .... ....|D-4 3F.F ....|R-- .... ....
....|..|R-- .... ....|G-4 3F.7 ....|R-- .... ....
....|..|--- .... ....|G-4 3F.F ....|--- .... ....
....|..|--- .... ....|B-3 3F.A ....|--- .... ....
....|..|--- .... ....|R-- .... ....|--- .... ....
....|..|C-3 2F.7 ....|D-4 3F.A ....|C-1 2F.7 ....
....|..|--- .... ....|G-4 3F.F ....|--- .... ....
....|..|R-- .... ....|--- .... ....|--- .... ....
....|..|--- .... ....|D-4 3F.F ....|--- .... ....
....|..|B-5 3F.F ....|B-3 3F.7 ....|D-4 2F1F ....
 G-4|..|G-3 2C.F ....|R-- .... ....|G-2 2A.F ....
 G-3|..|G-1 2AFF ....|D-4 3F.7 ....|--- .... ....
....|..|R-- .... ....|D-4 3F.7 ....|--- .... ....

[Pattern14]
....|..|R-- .... ....|--- .... ....|R-- .... ....
....|..|R-- .... ....|G-4 3F.7 ....|R-- .... ....
....|..|G-3 UFBF ....|--- .... ....|D-4 2F1A ....
....|..|R-- .... ....|R-- .... ....|--- .... ....
....|..|F#5 3F.F ....|R-- .... ....|D-4 2FEF ....
 D-4|..|D-3 2C.F ....|G-4 3F.7 ....|D-2 2A.F ....
 D-3|..|D-1 2AFF ....|--- .... ....|--- .... ....
....|..|R-- .... ....|D-4 3F.7 ....|D-4 2F.F ....
....|..|F#5 3F.F ....|--- .... ....|D-4 2FEF ....
 D-4|..|D-3 2C.F ....|--- .... ....|D-2 2A.F ....
....|..|F#5 3F.A ....|R-- .... ....|D-4 2FEA ....
 D-3|..|D-1 2AFF ....|--- .... ....|--- .... ....
....|..|D-1 2FFA ....|--- .... ....|D-4 2F.F ....
....|..|R-- .... ....|--- .... ....|D-4 2F.A ....
....|..|D-1 2FFA ....|--- .... ....|D-4 2FEA ....
....|..|R-- .... ....|--- .... ....|R-- .... ....
....|..|D-3 2F.A ....|B-3 3F.F ....|D-1 2F.A ....
....|..|D-1 2FF7 ....|--- .... ....|--- .... ....
....|..|--- .... ....|--- .... ....|D-4 2F.A ....
....|..|R-- .... ....|D-4 3F.F ....|R-- .... ....
....|..|F#5 3F.7 ....|D-4 3F.F ....|D-4 2FE7 ....
....|..|R-- .... ....|--- .... ....|G-1 2F.7 ....
....|..|D-1 2FF7 ....|B-4 3F.F ....|--- .... ....
....|..|--- .... ....|--- .... ....|--- .... ....
....|..|R-- .... ....|--- .... ....|D-4 2F.7 ....
....|..|R-- .... ....|D-4 3F.A ....|R-- .... ....
....|..|F#4 UF3F ....|D-4 3F.A ....|--- .... ....
....|..|R-- .... ....|--- .... ....|R-- .... ....
....|..|G-5 3F.F ....|G-4 3F.F ....|E-4 2F3F ....
 E-4|..|E-3 2C.F ....|--- .... ....|E-2 2A.F ....
 E-3|..|E-1 2AFF ....|--- .... ....|--- .... ....
....|..|R-- .... ....|D-4 3F.7 ....|R-- .... ....
....|..|F#4 UF3A ....|D-4 3F.7 ....|D-1 2F.7 ....
....|..|R-- .... ....|--- .... ....|R-- .... ....
....|..|G-5 3F.A ....|B-4 3F.7 ....|E-4 2F3A ....
....|..|R-- .... ....|--- .... ....|--- .... ....
....|..|E-5 3F.F ....|--- .... ....|C-4 2FEF ....
 C-3|..|C-3 2C.F ....|R-- .... ....|C-2 2A.F ....
 C-3|..|C-1 2AFF ....|--- .... ....|R-- .... ....
....|..|R-- .... ....|--- .... ....|R-- .... ....
....|..|E-5 3F.F ....|G-4 3F.7 ....|C-4 2FEF ....
 C-3|..|C-3 2C.F ....|--- .... ....|C-2 2A.F ....
....|..|E-5 3F.A ....|--- .... ....|C-4 2FEA ....
 C-3|..|C-1 2AFF ....|R-- .... ....|--- .... ....
 C-3|..|C-3 2C.F ....|G-4 3F.F ....|R-- .... ....
....|..|C-1 2FFA ....|--- .... ....|R-- .... ....
....|..|E-5 3F.A ....|--- .... ....|C-4 2FEA ....
....|..|C-1 2FFA ....|R-- .... ....|--- .... ....
....|..|C-3 2F.A ....|B-4 3F.F ....|C-1 2F.A ....
....|..|C-1 2FF7 ....|--- .... ....|--- .... ....
....|..|--- .... ....|G-4 3F.A ....|--- .... ....
....|..|R-- .... ....|--- .... ....|R-- .... ....
....|..|E-5 3F.7 ....|C-5 3F.F ....|C-4 2FE7 ....
....|..|E-3 2F.7 ....|R-- .... ....|E-1 2F.7 ....
....|..|R-- .... ....|B-4 3F.A ....|--- .... ....
....|..|--- .... ....|R-- .... ....|--- .... ....
....|..|C-3 2F.A ....|B-4 3F.F ....|--- .... ....
....|..|--- .... ....|--- .... ....|R-- .... ....
....|..|R-- .... ....|C-5 3F.A ....|R-- .... ....
....|..|C-3 UF.F ....|R-- .... ....|--- .... ....
....|..|B-5 3F.F ....|G-4 3F.F ....|D-4 2F1F ....
 G-4|..|G-3 2C.F ....|R-- .... ....|G-2 2A.F ....
 G-3|..|G-1 2AFF ....|B-4 3F.A ....|--- .... ....
....|..|R-- .... ....|R-- .... ....|R-- .... ....

[Pattern15]
....|..|C-3 2F.7 ....|C-5 3F.7 ....|C-1 2F.7 ....
....|..|C-3 UF.A ....|--- .... ....|R-- .... ....
....|..|G-3 UFDF ....|G-4 3F.A ....|D-4 2F1A ....
....|..|R-- .... ....|R-- .... ....|--- .... ....
....|..|F#5 3F.F ....|B-4 3F.7 ....|D-4 2FEF ....
 D-4|..|D-3 2C.F ....|R-- .... ....|D-2 2A.F ....
 D-3|..|D-1 2AFF ....|--- .... ....|R-- .... ....
....|..|C-3 UF.7 ....|--- .... ....|R-- .... ....
....|..|F#5 3F.F ....|G-4 3F.7 ....|D-4 2FEF ....
 D-4|..|D-3 2C.F ....|--- .... ....|D-2 2A.F ....
....|..|F#5 3F.A ....|--- .... ....|D-4 2FEA ....
 D-3|..|D-1 2AFF ....|R-- .... ....|--- .... ....
....|..|D-1 2FFA ....|G-4 3F.F ....|R-- .... ....
....|..|R-- .... ....|--- .... ....|R-- .... ....
....|..|D-1 2FFA ....|--- .... ....|D-4 2FEA ....
....|..|R-- .... ....|R-- .... ....|--- .... ....
....|..|D-3 2F.A ....|B-4 3F.F ....|D-1 2F.A ....
....|..|D-1 2FF7 ....|--- .... ....|--- .... ....
....|..|--- .... ....|G-4 3F.A ....|--- .... ....
....|..|R-- .... ....|--- .... ....|R-- .... ....
....|..|F#5 3F.7 ....|A-4 3F.F ....|D-4 2FE7 ....
....|..|G-3 2F.7 ....|R-- .... ....|G-1 2F.7 ....
....|..|R-- .... ....|B-4 3F.A ....|--- .... ....
....|..|--- .... ....|R-- .... ....|--- .... ....
....|..|R-- .... ....|A-4 3F.F ....|--- .... ....
....|..|R-- .... ....|--- .... ....|R-- .... ....
....|..|R-- .... ....|A-4 3F.A ....|R-- .... ....
....|..|--- .... ....|R-- .... ....|--- .... ....
....|..|D-3 2F.7 ....|G-4 3F.F ....|D-1 2F.7 ....
....|..|R-- .... ....|R-- .... ....|--- .... ....
....|..|--- .... ....|A-4 3F.A ....|--- .... ....
....|..|R-- .... ....|R-- .... ....|R-- .... ....
....|..|G-4 UF.F ....|A-4 3F.7 ....|D-1 2F.7 ....
....|..|--- .... ....|--- .... ....|--- .... ....
....|..|--- .... ....|G-4 3F.A ....|--- .... ....
....|..|--- .... ....|R-- .... ....|--- .... ....
....|..|--- .... ....|A-4 3F.7 ....|D-4 2F1F ....
....|..|R-- .... ....|R-- .... ....|R-- .... ....
....|..|G-4 UF.A ....|--- .... ....|--- .... ....
....|..|--- .... ....|--- .... ....|--- .... ....
....|..|--- .... ....|G-4 3F.7 ....|D-4 2F1F ....
....|..|--- .... ....|--- .... ....|R-- .... ....
....|..|--- .... ....|--- .... ....|D-4 2F1A ....
....|..|R-- .... ....|R-- .... ....|R-- .... ....
....|..|G-4 UF.7 ....|--- .... ....|D-4 2F1F ....
....|..|--- .... ....|--- .... ....|R-- .... ....
....|..|--- .... ....|--- .... ....|D-4 2F1A ....
....|..|--- .... ....|--- .... ....|R-- .... ....
....|..|--- .... ....|--- .... ....|D-4 2F1F ....
....|..|--- .... ....|--- .... ....|R-- .... ....
....|..|--- .... ....|--- .... ....|D-4 2F1A ....
....|..|--- .... ....|--- .... ....|R-- .... ....
....|..|--- .... ....|--- .... ....|D-4 2F1F ....
....|..|--- .... ....|--- .... ....|R-- .... ....
....|..|--- .... ....|--- .... ....|D-4 2F1A ....
....|..|--- .... ....|--- .... ....|R-- .... ....
....|..|--- .... ....|--- .... ....|D-4 2F1F ....
....|..|--- .... ....|--- .... ....|R-- .... ....
....|..|--- .... ....|--- .... ....|D-4 2F1A ....
....|..|--- .... ....|--- .... ....|R-- .... ....
....|..|--- .... ....|--- .... ....|D-4 2F1F ....
....|..|--- .... ....|--- .... ....|R-- .... ....
....|..|--- .... ....|--- .... ....|D-4 2F1A ....
....|..|--- .... ....|--- .... ....|R-- .... ....

[Pattern16]
....|..|--- .... ....|--- .... ....|D-4 2F1F ....
....|..|--- .... ....|--- .... ....|R-- .... ....
....|..|--- .... ....|--- .... ....|D-4 2F1A ....
....|..|--- .... ....|--- .... ....|R-- .... ....
....|..|--- .... ....|--- .... ....|D-4 2F1F ....
....|..|--- .... ....|--- .... ....|R-- .... ....
....|..|--- .... ....|--- .... ....|D-4 2F1A ....
....|..|--- .... ....|--- .... ....|R-- .... ....
....|..|--- .... ....|--- .... ....|D-4 2F1F ....
....|..|--- .... ....|--- .... ....|R-- .... ....
....|..|--- .... ....|--- .... ....|D-4 2F1A ....
....|..|--- .... ....|--- .... ....|R-- .... ....
....|..|--- .... ....|--- .... ....|D-4 2F1F ....
....|..|--- .... ....|--- .... ....|R-- .... ....
....|..|--- .... ....|--- .... ....|D-4 2F1A ....
....|..|--- .... ....|--- .... ....|R-- .... ....
....|..|--- .... ....|--- .... ....|D-4 2F1F ....
....|..|--- .... ....|--- .... ....|R-- .... ....
....|..|--- .... ....|--- .... ....|D-4 2F1A ....
....|..|--- .... ....|--- .... ....|R-- .... ....
....|..|--- .... ....|--- .... ....|D-4 2F1F ....
....|..|--- .... ....|--- .... ....|R-- .... ....
....|..|--- .... ....|--- .... ....|D-4 2F1A ....
....|..|--- .... ....|--- .... ....|R-- .... ....
....|..|--- .... ....|--- .... ....|D-4 2F1F ....
....|..|--- .... ....|--- .... ....|R-- .... ....
....|..|--- .... ....|--- .... ....|D-4 2F1A ....
....|..|--- .... ....|--- .... ....|R-- .... ....
....|..|--- .... ....|--- .... ....|D-4 2F1F ....
....|..|--- .... ....|--- .... ....|R-- .... ....
....|..|--- .... ....|--- .... ....|D-4 2F1A ....
....|..|R-- .... ....|--- .... ....|R-- .... ....
....|..|C-4 UF2F ....|--- .... ....|D-4 2F1F ....
....|..|--- .... ....|--- .... ....|R-- .... ....
....|..|--- .... ....|--- .... ....|D-4 2F1A ....
....|..|--- .... ....|--- .... ....|R-- .... ....
....|..|--- .... ....|B-3 3F.F ....|D-4 2F1F ....
....|..|R-- .... ....|--- .... ....|R-- .... ....
....|..|C-4 UF2A ....|--- .... ....|D-4 2F1A ....
....|..|--- .... ....|--- .... ....|R-- .... ....
....|..|--- .... ....|B-3 3F.F ....|D-4 2F1F ....
....|..|--- .... ....|--- .... ....|R-- .... ....
....|..|--- .... ....|B-3 3F.A ....|D-4 2F1A ....
....|..|R-- .... ....|R-- .... ....|R-- .... ....
....|..|C-4 UF27 ....|B-3 3F.F ....|D-4 2F1F ....
....|..|--- .... ....|--- .... ....|R-- .... ....
....|..|--- .... ....|B-3 3F.A ....|D-4 2F1A ....
....|..|--- .... ....|R-- .... ....|R-- .... ....
....|..|--- .... ....|B-3 3F.F ....|D-4 2F1F ....
....|..|--- .... ....|R-- .... ....|R-- .... ....
....|..|--- .... ....|B-3 3F.A ....|D-4 2F1A ....
....|..|--- .... ....|R-- .... ....|R-- .... ....
....|..|--- .... ....|B-3 3F.F ....|D-4 2F1F ....
....|..|--- .... ....|R-- .... ....|R-- .... ....
....|..|--- .... ....|B-3 3F.A ....|D-4 2F1A ....
....|..|--- .... ....|R-- .... ....|R-- .... ....
....|..|--- .... ....|A-3 3F.F ....|D-4 2F1F ....
....|..|--- .... ....|R-- .... ....|R-- .... ....
....|..|--- .... ....|B-3 3F.A ....|D-4 2F1A ....
....|..|--- .... ....|R-- .... ....|R-- .... ....
....|..|--- .... ....|B-3 3F.F ....|D-4 2F1F ....
....|..|--- .... ....|R-- .... ....|R-- .... ....
....|..|--- .... ....|A-3 3F.A ....|D-4 2F1A ....
....|..|E-4 UF3F ....|R-- .... ....|R-- .... ....

[Pattern19]
....|..|B-3 UF4F ....|B-3 3F.7 ....|D-4 2F1F ....
....|..|--- .... ....|R-- .... ....|R-- .... ....
....|..|--- .... ....|B-3 3F.A ....|D-4 2F1A ....
....|..|--- .... ....|R-- .... ....|R-- .... ....
....|..|--- .... ....|A-3 3F.7 ....|D-4 2F1F ....
....|..|E-4 UF3A ....|--- .... ....|R-- .... ....
....|..|B-3 UF4A ....|R-- .... ....|D-4 2F1A ....
....|..|--- .... ....|R-- .... ....|R-- .... ....
....|..|--- .... ....|B-3 3F.F ....|D-4 2F1F ....
....|..|--- .... ....|--- .... ....|R-- .... ....
....|..|--- .... ....|--- .... ....|D-4 2F1A ....
....|..|E-4 UF37 ....|R-- .... ....|R-- .... ....
....|..|B-3 UF47 ....|B-3 3F.F ....|D-4 2F1F ....
....|..|--- .... ....|--- .... ....|R-- .... ....
....|..|--- .... ....|B-3 3F.A ....|D-4 2F1A ....
....|..|--- .... ....|R-- .... ....|R-- .... ....
....|..|--- .... ....|B-3 3F.F ....|D-4 2F1F ....
....|..|--- .... ....|R-- .... ....|R-- .... ....
....|..|--- .... ....|B-3 3F.A ....|D-4 2F1A ....
....|..|--- .... ....|R-- .... ....|R-- .... ....
....|..|--- .... ....|B-3 3F.F ....|D-4 2F1F ....
....|..|--- .... ....|R-- .... ....|R-- .... ....
....|..|--- .... ....|B-3 3F.A ....|D-4 2F1A ....
....|..|--- .... ....|R-- .... ....|R-- .... ....
....|..|--- .... ....|A-3 3F.F ....|D-4 2F1F ....
....|..|--- .... ....|R-- .... ....|R-- .... ....
....|..|--- .... ....|B-3 3F.A ....|D-4 2F1A ....
....|..|--- .... ....|R-- .... ....|R-- .... ....
....|..|--- .... ....|B-3 3F.F ....|D-4 2F1F ....
....|..|--- .... ....|--- .... ....|R-- .... ....
....|..|--- .... ....|A-3 3F.A ....|D-4 2F1A ....
....|..|G-4 UF.F ....|R-- .... ....|R-- .... ....
....|..|C-4 UF2F ....|B-3 3F.7 ....|D-4 2F1F ....
....|..|--- .... ....|R-- .... ....|R-- .... ....
....|..|--- .... ....|B-3 3F.A ....|D-4 2F1A ....
....|..|--- .... ....|--- .... ....|R-- .... ....
....|..|--- .... ....|B-3 3F.F ....|D-4 2F1F ....
....|..|G-4 UF.A ....|R-- .... ....|R-- .... ....
....|..|C-4 UF2A ....|--- .... ....|D-4 2F1A ....
....|..|--- .... ....|R-- .... ....|R-- .... ....
....|..|--- .... ....|B-3 3F.F ....|D-4 2F1F ....
....|..|--- .... ....|--- .... ....|R-- .... ....
....|..|--- .... ....|B-3 3F.A ....|D-4 2F1A ....
....|..|G-4 UF.7 ....|R-- .... ....|R-- .... ....
....|..|C-4 UF27 ....|B-3 3F.F ....|D-4 2F1F ....
....|..|--- .... ....|R-- .... ....|R-- .... ....
....|..|--- .... ....|B-3 3F.A ....|D-4 2F1A ....
....|..|--- .... ....|R-- .... ....|R-- .... ....
....|..|--- .... ....|B-3 3F.F ....|D-4 2F1F ....
....|..|--- .... ....|R-- .... ....|R-- .... ....
....|..|--- .... ....|B-3 3F.A ....|D-4 2F1A ....
....|..|--- .... ....|R-- .... ....|R-- .... ....
....|..|--- .... ....|B-3 3F.F ....|D-4 2F1F ....
....|..|--- .... ....|R-- .... ....|R-- .... ....
....|..|--- .... ....|B-3 3F.A ....|D-4 2F1A ....
....|..|--- .... ....|R-- .... ....|R-- .... ....
....|..|--- .... ....|A-3 3F.F ....|D-4 2F1F ....
....|..|--- .... ....|R-- .... ....|R-- .... ....
....|..|--- .... ....|B-3 3F.A ....|D-4 2F1A ....
....|..|--- .... ....|R-- .... ....|R-- .... ....
....|..|--- .... ....|A-3 3F.F ....|D-4 2F1F ....
....|..|--- .... ....|R-- .... ....|R-- .... ....
....|..|--- .... ....|A-3 3F.A ....|D-4 2F1A ....
....|..|G-4 UF.F ....|R-- .... ....|R-- .... ....

[Pattern30]
....|..|C-3 2F.7 ....|C-5 3F.7 ....|C-1 2F.7 ....
....|..|C-3 UF.A ....|--- .... ....|R-- .... ....
....|..|G-3 UFDF ....|G-4 3F.A ....|D-4 2F1A ....
....|..|R-- .... ....|R-- .... ....|--- .... ....
....|..|F#5 3F.F ....|B-4 3F.7 ....|D-4 2FEF ....
 D-4|..|D-3 2C.F ....|R-- .... ....|D-2 2A.F ....
 D-3|..|D-1 2AFF ....|--- .... ....|R-- .... ....
....|..|C-3 UF.7 ....|--- .... ....|R-- .... ....
....|..|F#5 3F.F ....|G-4 3F.7 ....|D-4 2FEF ....
 D-4|..|D-3 2C.F ....|--- .... ....|D-2 2A.F ....
....|..|F#5 3F.A ....|--- .... ....|D-4 2FEA ....
 D-3|..|D-1 2AFF ....|R-- .... ....|--- .... ....
....|..|D-1 2FFA ....|G-4 3F.F ....|R-- .... ....
....|..|R-- .... ....|--- .... ....|R-- .... ....
....|..|D-1 2FFA ....|--- .... ....|D-4 2FEA ....
....|..|R-- .... ....|R-- .... ....|--- .... ....
....|..|D-3 2F.A ....|B-4 3F.F ....|D-1 2F.A ....
....|..|D-1 2FF7 ....|--- .... ....|--- .... ....
....|..|--- .... ....|G-4 3F.A ....|--- .... ....
....|..|R-- .... ....|--- .... ....|R-- .... ....
....|..|F#5 3F.7 ....|A-4 3F.F ....|D-4 2FE7 ....
....|..|G-3 2F.7 ....|R-- .... ....|G-1 2F.7 ....
....|..|R-- .... ....|B-4 3F.A ....|--- .... ....
....|..|--- .... ....|R-- .... ....|--- .... ....
....|..|R-- .... ....|A-4 3F.F ....|--- .... ....
....|..|R-- .... ....|--- .... ....|R-- .... ....
....|..|R-- .... ....|A-4 3F.A ....|R-- .... ....
....|..|--- .... ....|R-- .... ....|--- .... ....
....|..|D-3 2F.7 ....|G-4 3F.F ....|D-1 2F.7 ....
....|..|R-- .... ....|R-- .... ....|--- .... ....
....|..|--- .... ....|A-4 3F.A ....|--- .... ....
....|..|R-- .... ....|R-- .... ....|R-- .... ....
 C-3|..|C-3 2C.F ....|A-4 3F.7 ....|C-4 2FEF ....
 C-3|..|C-1 2AFF ....|--- .... ....|C-1 2A.F ....
....|..|--- .... ....|G-4 3F.A ....|--- .... ....
....|..|--- .... ....|R-- .... ....|--- .... ....
....|..|--- .... ....|G-4 3F.F ....|--- .... ....
....|..|R-- .... ....|R-- .... ....|--- .... ....
....|..|C-1 2FFA ....|--- .... ....|E-4 2F.F ....
....|..|R-- .... ....|--- .... ....|R-- .... ....
....|..|R-- .... ....|B-4 3F.F ....|R-- .... ....
....|..|--- .... ....|--- .... ....|--- .... ....
....|..|--- .... ....|G-4 3F.A ....|--- .... ....
....|..|R-- .... ....|R-- .... ....|--- .... ....
....|..|C-3 2F.A ....|A-4 3F.F ....|C-1 2F.A ....
....|..|C-1 2FF7 ....|--- .... ....|R-- .... ....
....|..|R-- .... ....|B-4 3F.A ....|--- .... ....
....|..|--- .... ....|R-- .... ....|--- .... ....
....|..|--- .... ....|A-4 3F.F ....|--- .... ....
....|..|--- .... ....|--- .... ....|--- .... ....
....|..|--- .... ....|A-4 3F.A ....|E-4 2F.7 ....
....|..|R-- .... ....|R-- .... ....|R-- .... ....
....|..|R-- .... ....|G-4 3F.F ....|R-- .... ....
....|..|--- .... ....|R-- .... ....|--- .... ....
....|..|--- .... ....|A-4 3F.A ....|--- .... ....
....|..|--- .... ....|R-- .... ....|--- .... ....
....|..|C-3 2F.7 ....|G-4 3F.F ....|C-1 2F.7 ....
....|..|--- .... ....|R-- .... ....|--- .... ....
....|..|R-- .... ....|G-4 3F.A ....|--- .... ....
....|..|--- .... ....|R-- .... ....|--- .... ....
....|..|B-5 3F.F ....|E-4 3F.F ....|D-4 2F1F ....
 G-4|..|G-3 2C.F ....|R-- .... ....|G-2 2A.F ....
 G-3|..|G-1 2AFF ....|G-4 3F.A ....|--- .... ....
....|..|R-- .... ....|R-- .... ....|--- .... ....

[Pattern31]
....|..|R-- .... ....|D-4 3F.F ....|R-- .... ....
....|..|R-- .... ....|R-- .... ....|R-- .... ....
....|..|G-3 UFBF ....|E-4 3F.A ....|D-4 2F1A ....
....|..|R-- .... ....|R-- .... ....|--- .... ....
....|..|F#5 3F.F ....|D-4 3F.F ....|D-4 2FEF ....
 D-4|..|D-3 2C.F ....|--- .... ....|D-2 2A.F ....
 D-3|..|D-1 2AFF ....|D-4 3F.A ....|--- .... ....
....|..|R-- .... ....|R-- .... ....|D-4 2F.F ....
....|..|F#5 3F.F ....|D-4 3F.F ....|D-4 2FEF ....
 D-4|..|D-3 2C.F ....|R-- .... ....|D-2 2A.F ....
....|..|F#5 3F.A ....|D-4 3F.A ....|D-4 2FEA ....
 D-3|..|D-1 2AFF ....|--- .... ....|--- .... ....
....|..|D-1 2FFA ....|D-4 3F.F ....|D-4 2F.F ....
....|..|R-- .... ....|--- .... ....|D-4 2F.A ....
....|..|D-1 2FFA ....|D-4 3F.A ....|D-4 2FEA ....
....|..|R-- .... ....|R-- .... ....|R-- .... ....
....|..|D-3 2F.A ....|A-4 3F.F ....|D-1 2F.A ....
....|..|D-1 2FF7 ....|--- .... ....|--- .... ....
....|..|--- .... ....|D-4 3F.A ....|D-4 2F.A ....
....|..|R-- .... ....|--- .... ....|R-- .... ....
....|..|F#5 3F.7 ....|D-4 3F.7 ....|D-4 2FE7 ....
....|..|R-- .... ....|--- .... ....|G-1 2F.7 ....
....|..|D-1 2FF7 ....|A-4 3F.A ....|--- .... ....
....|..|--- .... ....|--- .... ....|--- .... ....
....|..|R-- .... ....|G-4 3F.F ....|D-4 2F.7 ....
....|..|R-- .... ....|--- .... ....|R-- .... ....
....|..|F#4 UF3F ....|--- .... ....|--- .... ....
....|..|R-- .... ....|--- .... ....|R-- .... ....
....|..|G-5 3F.F ....|A-4 3F.7 ....|E-4 2F3F ....
 E-4|..|E-3 2C.F ....|--- .... ....|E-2 2A.F ....
 E-3|..|E-1 2AFF ....|G-4 3F.A ....|--- .... ....
....|..|R-- .... ....|--- .... ....|R-- .... ....
....|..|F#4 UF3A ....|--- .... ....|D-1 2F.7 ....
....|..|R-- .... ....|--- .... ....|R-- .... ....
....|..|G-5 3F.A ....|R-- .... ....|E-4 2F3A ....
....|..|R-- .... ....|--- .... ....|--- .... ....
....|..|E-5 3F.F ....|D-4 3F.F ....|C-4 2FEF ....
 C-3|..|C-3 2C.F ....|--- .... ....|C-2 2A.F ....
 C-3|..|C-1 2AFF ....|--- .... ....|R-- .... ....
....|..|R-- .... ....|--- .... ....|R-- .... ....
....|..|E-5 3F.F ....|D-4 3F.F ....|C-4 2FEF ....
 C-3|..|C-3 2C.F ....|--- .... ....|C-2 2A.F ....
....|..|E-5 3F.A ....|D-4 3F.A ....|C-4 2FEA ....
 C-3|..|C-1 2AFF ....|--- .... ....|--- .... ....
 C-3|..|C-3 2C.F ....|D-4 3F.F ....|R-- .... ....
....|..|C-1 2FFA ....|--- .... ....|R-- .... ....
....|..|E-5 3F.A ....|D-4 3F.A ....|C-4 2FEA ....
....|..|C-1 2FFA ....|--- .... ....|--- .... ....
....|..|C-3 2F.A ....|A-4 3F.F ....|C-1 2F.A ....
....|..|C-1 2FF7 ....|--- .... ....|--- .... ....
....|..|--- .... ....|D-4 3F.A ....|--- .... ....
....|..|R-- .... ....|--- .... ....|R-- .... ....
....|..|E-5 3F.7 ....|D-4 3F.7 ....|C-4 2FE7 ....
....|..|E-3 2F.7 ....|--- .... ....|E-1 2F.7 ....
....|..|R-- .... ....|A-4 3F.A ....|--- .... ....
....|..|--- .... ....|--- .... ....|--- .... ....
....|..|C-3 2F.A ....|G-4 3F.F ....|--- .... ....
....|..|--- .... ....|--- .... ....|R-- .... ....
....|..|R-- .... ....|--- .... ....|R-- .... ....
....|..|C-3 UF.F ....|--- .... ....|--- .... ....
....|..|B-5 3F.F ....|A-4 3F.7 ....|D-4 2F1F ....
 G-4|..|G-3 2C.F ....|--- .... ....|G-2 2A.F ....
 G-3|..|G-1 2AFF ....|G-4 3F.A ....|--- .... ....
....|..|R-- .... ....|--- .... ....|R-- .... ....

[Pattern32]
....|..|C-3 2F.7 ....|--- .... ....|C-1 2F.7 ....
....|..|C-3 UF.A ....|--- .... ....|R-- .... ....
....|..|G-3 UFDF ....|R-- .... ....|D-4 2F1A ....
....|..|R-- .... ....|--- .... ....|--- .... ....
....|..|F#5 3F.F ....|D-4 3F.F ....|D-4 2FEF ....
 D-4|..|D-3 2C.F ....|--- .... ....|D-2 2A.F ....
 D-3|..|D-1 2AFF ....|--- .... ....|R-- .... ....
....|..|C-3 UF.7 ....|--- .... ....|R-- .... ....
....|..|F#5 3F.F ....|D-4 3F.F ....|D-4 2FEF ....
 D-4|..|D-3 2C.F ....|--- .... ....|D-2 2A.F ....
....|..|F#5 3F.A ....|D-4 3F.A ....|D-4 2FEA ....
 D-3|..|D-1 2AFF ....|--- .... ....|--- .... ....
....|..|D-1 2FFA ....|D-4 3F.F ....|R-- .... ....
....|..|R-- .... ....|--- .... ....|R-- .... ....
....|..|D-1 2FFA ....|D-4 3F.A ....|D-4 2FEA ....
....|..|R-- .... ....|--- .... ....|--- .... ....
....|..|D-3 2F.A ....|A-4 3F.F ....|D-1 2F.A ....
....|..|D-1 2FF7 ....|--- .... ....|--- .... ....
....|..|--- .... ....|D-4 3F.A ....|--- .... ....
....|..|R-- .... ....|--- .... ....|R-- .... ....
....|..|F#5 3F.7 ....|D-4 3F.7 ....|D-4 2FE7 ....
....|..|G-3 2F.7 ....|--- .... ....|G-1 2F.7 ....
....|..|R-- .... ....|A-4 3F.A ....|--- .... ....
....|..|--- .... ....|--- .... ....|--- .... ....
....|..|R-- .... ....|A-4 3F.F ....|--- .... ....
....|..|R-- .... ....|--- .... ....|R-- .... ....
....|..|R-- .... ....|--- .... ....|R-- .... ....
....|..|--- .... ....|--- .... ....|--- .... ....
....|..|D-3 2F.7 ....|A-4 3F.7 ....|D-1 2F.7 ....
....|..|R-- .... ....|--- .... ....|--- .... ....
....|..|--- .... ....|A-4 3F.A ....|--- .... ....
....|..|R-- .... ....|--- .... ....|R-- .... ....
 C-3|..|C-3 2C.F ....|G-4 3F.F ....|C-4 2FEF ....
 C-3|..|C-1 2AFF ....|--- .... ....|C-1 2A.F ....
....|..|--- .... ....|--- .... ....|--- .... ....
....|..|--- .... ....|--- .... ....|--- .... ....
....|..|--- .... ....|G-4 3F.F ....|--- .... ....
....|..|R-- .... ....|--- .... ....|--- .... ....
....|..|C-1 2FFA ....|G-4 3F.A ....|E-4 2F.F ....
....|..|R-- .... ....|--- .... ....|R-- .... ....
....|..|R-- .... ....|B-4 3F.F ....|R-- .... ....
....|..|--- .... ....|--- .... ....|--- .... ....
....|..|--- .... ....|G-4 3F.A ....|--- .... ....
....|..|R-- .... ....|--- .... ....|--- .... ....
....|..|C-3 2F.A ....|A-4 3F.F ....|C-1 2F.A ....
....|..|C-1 2FF7 ....|--- .... ....|R-- .... ....
....|..|R-- .... ....|B-4 3F.A ....|--- .... ....
....|..|--- .... ....|R-- .... ....|--- .... ....
....|..|--- .... ....|A-4 3F.F ....|--- .... ....
....|..|--- .... ....|--- .... ....|--- .... ....
....|..|--- .... ....|A-4 3F.A ....|E-4 2F.7 ....
....|..|R-- .... ....|R-- .... ....|R-- .... ....
....|..|R-- .... ....|G-4 3F.F ....|R-- .... ....
....|..|--- .... ....|R-- .... ....|--- .... ....
....|..|--- .... ....|A-4 3F.A ....|--- .... ....
....|..|--- .... ....|R-- .... ....|--- .... ....
....|..|C-3 2F.7 ....|G-4 3F.F ....|C-1 2F.7 ....
....|..|--- .... ....|R-- .... ....|--- .... ....
....|..|R-- .... ....|G-4 3F.A ....|--- .... ....
....|..|--- .... ....|R-- .... ....|--- .... ....
....|..|B-5 3F.F ....|E-4 3F.F ....|D-4 2F1F ....
 G-4|..|G-3 2C.F ....|R-- .... ....|G-2 2A.F ....
 G-3|..|G-1 2AFF ....|G-4 3F.A ....|--- .... ....
....|..|R-- .... ....|R-- .... ....|--- .... ....

[Pattern34]
....|..|C-3 2F.7 ....|--- .... ....|C-1 2F.7 ....
....|..|C-3 UF.A ....|--- .... ....|R-- .... ....
....|..|G-3 UFDF ....|R-- .... ....|D-4 2F1A ....
....|..|R-- .... ....|--- .... ....|--- .... ....
....|..|F#5 3F.F ....|D-4 3F.F ....|D-4 2FEF ....
 D-4|..|D-3 2C.F ....|--- .... ....|D-2 2A.F ....
 D-3|..|D-1 2AFF ....|--- .... ....|R-- .... ....
....|..|C-3 UF.7 ....|--- .... ....|R-- .... ....
....|..|F#5 3F.F ....|D-4 3F.F ....|D-4 2FEF ....
 D-4|..|D-3 2C.F ....|--- .... ....|D-2 2A.F ....
....|..|F#5 3F.A ....|D-4 3F.A ....|D-4 2FEA ....
 D-3|..|D-1 2AFF ....|--- .... ....|--- .... ....
....|..|D-1 2FFA ....|D-4 3F.F ....|R-- .... ....
....|..|R-- .... ....|--- .... ....|R-- .... ....
....|..|D-1 2FFA ....|D-4 3F.A ....|D-4 2FEA ....
....|..|R-- .... ....|--- .... ....|--- .... ....
....|..|D-3 2F.A ....|A-4 3F.F ....|D-1 2F.A ....
....|..|D-1 2FF7 ....|--- .... ....|--- .... ....
....|..|--- .... ....|D-4 3F.A ....|--- .... ....
....|..|R-- .... ....|--- .... ....|R-- .... ....
....|..|F#5 3F.7 ....|D-4 3F.7 ....|D-4 2FE7 ....
....|..|G-3 2F.7 ....|--- .... ....|G-1 2F.7 ....
....|..|R-- .... ....|A-4 3F.A ....|--- .... ....
....|..|--- .... ....|--- .... ....|--- .... ....
....|..|R-- .... ....|A-4 3F.F ....|--- .... ....
....|..|R-- .... ....|--- .... ....|R-- .... ....
....|..|R-- .... ....|--- .... ....|R-- .... ....
....|..|--- .... ....|--- .... ....|--- .... ....
....|..|D-3 2F.7 ....|A-4 3F.7 ....|D-1 2F.7 ....
....|..|R-- .... ....|--- .... ....|--- .... ....
....|..|--- .... ....|A-4 3F.A ....|--- .... ....
....|..|R-- .... ....|--- .... ....|R-- .... ....
 C-3|..|C-3 2C.F ....|G-4 3F.F ....|C-4 2FEF ....
 C-3|..|C-1 2AFF ....|--- .... ....|C-1 2A.F ....
....|..|--- .... ....|--- .... ....|--- .... ....
....|..|--- .... ....|--- .... ....|--- .... ....
....|..|--- .... ....|A-4 3F.7 ....|--- .... ....
....|..|R-- .... ....|--- .... ....|--- .... ....
....|..|C-1 2FFA ....|G-4 3F.A ....|E-4 2F.F ....
....|..|R-- .... ....|--- .... ....|R-- .... ....
....|..|R-- .... ....|--- .... ....|R-- .... ....
....|..|--- .... ....|--- .... ....|--- .... ....
....|..|--- .... ....|R-- .... ....|--- .... ....
....|..|R-- .... ....|--- .... ....|--- .... ....
....|..|C-3 2F.A ....|G-4 3F.7 ....|C-1 2F.A ....
....|..|C-1 2FF7 ....|--- .... ....|R-- .... ....
....|..|R-- .... ....|--- .... ....|--- .... ....
....|..|--- .... ....|--- .... ....|--- .... ....
....|..|--- .... ....|R-- .... ....|--- .... ....
....|..|--- .... ....|--- .... ....|--- .... ....
....|..|--- .... ....|--- .... ....|E-4 2F.7 ....
....|..|R-- .... ....|--- .... ....|R-- .... ....
....|..|R-- .... ....|--- .... ....|R-- .... ....
....|..|--- .... ....|--- .... ....|--- .... ....
....|..|--- .... ....|--- .... ....|--- .... ....
....|..|--- .... ....|--- .... ....|--- .... ....
....|..|C-3 2F.7 ....|--- .... ....|C-1 2F.7 ....
....|..|--- .... ....|--- .... ....|--- .... ....
....|..|--- .... ....|--- .... ....|--- .... ....
....|..|--- .... ....|--- .... ....|--- .... ....
....|..|B-5 3F.F ....|--- .... ....|D-4 2F1F ....
 G-4|..|G-3 2C.F ....|--- .... ....|G-2 2A.F ....
 G-3|..|G-1 2AFF ....|--- .... ....|--- .... ....
....|..|R-- .... ....|--- .... ....|--- .... ....

[Pattern35]
....|..|R-- .... ....|--- .... ....|R-- .... ....
....|..|R-- .... ....|--- .... ....|R-- .... ....
....|..|B-5 3F.A ....|--- .... ....|D-4 2F1A ....
....|..|G-1 2FFA ....|--- .... ....|--- .... ....
....|..|F#5 3F.F ....|--- .... ....|D-4 2FEF ....
 D-4|..|D-3 2C.F ....|--- .... ....|D-2 2A.F ....
 D-3|..|D-1 2AFF ....|--- .... ....|--- .... ....
....|..|R-- .... ....|--- .... ....|D-4 2F.F ....
....|..|F#5 3F.F ....|--- .... ....|D-4 2FEF ....
 D-4|..|D-3 2C.F ....|--- .... ....|D-2 2A.F ....
....|..|F#5 3F.A ....|--- .... ....|D-4 2FEA ....
 D-3|..|D-1 2AFF ....|--- .... ....|--- .... ....
....|..|D-1 2FFA ....|--- .... ....|D-4 2F.F ....
....|..|R-- .... ....|--- .... ....|D-4 2F.A ....
....|..|D-1 2FFA ....|--- .... ....|D-4 2FEA ....
....|..|R-- .... ....|--- .... ....|R-- .... ....
....|..|D-3 2F.A ....|--- .... ....|D-1 2F.A ....
....|..|D-1 2FF7 ....|--- .... ....|--- .... ....
....|..|--- .... ....|--- .... ....|D-4 2F.A ....
....|..|R-- .... ....|--- .... ....|R-- .... ....
....|..|F#5 3F.7 ....|--- .... ....|D-4 2FE7 ....
....|..|R-- .... ....|--- .... ....|G-1 2F.7 ....
....|..|D-1 2FF7 ....|--- .... ....|--- .... ....
....|..|--- .... ....|--- .... ....|--- .... ....
....|..|R-- .... ....|--- .... ....|D-4 2F.7 ....
....|..|R-- .... ....|--- .... ....|R-- .... ....
....|..|R-- .... ....|--- .... ....|--- .... ....
....|..|R-- .... ....|--- .... ....|R-- .... ....
....|..|G-5 3F.F ....|--- .... ....|E-4 2F3F ....
 E-4|..|E-3 2C.F ....|--- .... ....|E-2 2A.F ....
 E-3|..|E-1 2AFF ....|--- .... ....|--- .... ....
....|..|R-- .... ....|--- .... ....|R-- .... ....
....|..|D-3 2F.7 ....|--- .... ....|D-1 2F.7 ....
....|..|R-- .... ....|--- .... ....|R-- .... ....
....|..|G-5 3F.A ....|--- .... ....|E-4 2F3A ....
....|..|E-1 2FFA ....|--- .... ....|--- .... ....
....|..|E-5 3F.F ....|--- .... ....|C-4 2FEF ....
 C-3|..|C-3 2C.F ....|--- .... ....|C-2 2A.F ....
 C-3|..|C-1 2AFF ....|--- .... ....|R-- .... ....
....|..|R-- .... ....|--- .... ....|R-- .... ....
....|..|E-5 3F.F ....|--- .... ....|C-4 2FEF ....
 C-3|..|C-3 2C.F ....|--- .... ....|C-2 2A.F ....
....|..|E-5 3F.A ....|--- .... ....|C-4 2FEA ....
 C-3|..|C-1 2AFF ....|--- .... ....|--- .... ....
 C-3|..|C-3 2C.F ....|--- .... ....|R-- .... ....
....|..|C-1 2FFA ....|--- .... ....|R-- .... ....
....|..|E-5 3F.A ....|--- .... ....|C-4 2FEA ....
....|..|C-1 2FFA ....|--- .... ....|--- .... ....
....|..|C-3 2F.A ....|--- .... ....|C-1 2F.A ....
....|..|C-1 2FF7 ....|--- .... ....|--- .... ....
....|..|--- .... ....|--- .... ....|--- .... ....
....|..|R-- .... ....|--- .... ....|R-- .... ....
....|..|E-5 3F.7 ....|--- .... ....|C-4 2FE7 ....
....|..|E-3 2F.7 ....|--- .... ....|E-1 2F.7 ....
....|..|R-- .... ....|--- .... ....|--- .... ....
....|..|--- .... ....|--- .... ....|--- .... ....
....|..|C-3 2F.A ....|--- .... ....|--- .... ....
....|..|--- .... ....|--- .... ....|R-- .... ....
....|..|R-- .... ....|--- .... ....|R-- .... ....
....|..|--- .... ....|--- .... ....|--- .... ....
....|..|B-5 3F.F ....|--- .... ....|D-4 2F1F ....
 G-4|..|G-3 2C.F ....|--- .... ....|G-2 2A.F ....
 G-3|..|G-1 2AFF ....|--- .... ....|--- .... ....
....|..|R-- .... ....|--- .... ....|R-- .... ....

[Pattern36]
....|..|C-3 2F.7 ....|--- .... ....|C-1 2F.7 ....
....|..|R-- .... ....|--- .... ....|R-- .... ....
....|..|B-5 3F.A ....|--- .... ....|D-4 2F1A ....
....|..|G-1 2FFA ....|--- .... ....|--- .... ....
....|..|F#5 3F.F ....|--- .... ....|D-4 2FEF ....
 D-4|..|D-3 2C.F ....|--- .... ....|D-2 2A.F ....
 D-3|..|D-1 2AFF ....|--- .... ....|R-- .... ....
....|..|R-- .... ....|--- .... ....|R-- .... ....
....|..|F#5 3F.F ....|--- .... ....|D-4 2FEF ....
 D-4|..|D-3 2C.F ....|--- .... ....|D-2 2A.F ....
....|..|F#5 3F.A ....|--- .... ....|D-4 2FEA ....
 D-3|..|D-1 2AFF ....|--- .... ....|--- .... ....
....|..|D-1 2FFA ....|--- .... ....|R-- .... ....
....|..|R-- .... ....|--- .... ....|R-- .... ....
....|..|D-1 2FFA ....|--- .... ....|D-4 2FEA ....
....|..|--- .... ....|--- .... ....|--- .... ....
....|..|D-3 2F.A ....|--- .... ....|D-1 2F.A ....
....|..|D-1 2FF7 ....|--- .... ....|--- .... ....
....|..|--- .... ....|--- .... ....|--- .... ....
....|..|R-- .... ....|--- .... ....|R-- .... ....
....|..|F#5 3F.7 ....|--- .... ....|D-4 2FE7 ....
....|..|G-3 2F.7 ....|--- .... ....|G-1 2F.7 ....
....|..|R-- .... ....|--- .... ....|--- .... ....
....|..|--- .... ....|--- .... ....|--- .... ....
....|..|R-- .... ....|--- .... ....|--- .... ....
....|..|R-- .... ....|--- .... ....|R-- .... ....
....|..|R-- .... ....|--- .... ....|R-- .... ....
....|..|--- .... ....|--- .... ....|--- .... ....
....|..|D-3 2F.7 ....|--- .... ....|D-1 2F.7 ....
....|..|R-- .... ....|--- .... ....|--- .... ....
....|..|--- .... ....|--- .... ....|--- .... ....
....|..|R-- .... ....|--- .... ....|R-- .... ....
 C-3|..|C-3 2C.F ....|--- .... ....|C-4 2FEF ....
 C-3|..|C-1 2AFF ....|--- .... ....|C-1 2A.F ....
....|..|--- .... ....|--- .... ....|--- .... ....
....|..|--- .... ....|--- .... ....|--- .... ....
....|..|--- .... ....|--- .... ....|--- .... ....
....|..|--- .... ....|--- .... ....|--- .... ....
....|..|C-1 2FFA ....|--- .... ....|E-4 2F.F ....
....|..|R-- .... ....|--- .... ....|R-- .... ....
....|..|R-- .... ....|G-4 3F.F ....|R-- .... ....
....|..|--- .... ....|--- .... ....|--- .... ....
....|..|--- .... ....|--- .... ....|--- .... ....
....|..|--- .... ....|--- .... ....|--- .... ....
....|..|C-3 2F.A ....|--- .... ....|C-1 2F.A ....
....|..|C-1 2FF7 ....|R-- .... ....|R-- .... ....
....|..|R-- .... ....|G-4 3F.A ....|--- .... ....
....|..|--- .... ....|--- .... ....|--- .... ....
....|..|--- .... ....|B-3 3F.F ....|--- .... ....
....|..|--- .... ....|--- .... ....|--- .... ....
....|..|--- .... ....|D-4 3F.F ....|E-4 2F.7 ....
....|..|R-- .... ....|D-4 3F.F ....|R-- .... ....
....|..|R-- .... ....|G-4 3F.7 ....|R-- .... ....
....|..|--- .... ....|R-- .... ....|--- .... ....
....|..|--- .... ....|G-4 3F.F ....|--- .... ....
....|..|--- .... ....|--- .... ....|--- .... ....
....|..|C-3 2F.7 ....|D-4 3F.A ....|C-1 2F.7 ....
....|..|--- .... ....|D-4 3F.A ....|--- .... ....
....|..|--- .... ....|D-4 3F.F ....|--- .... ....
....|..|--- .... ....|R-- .... ....|--- .... ....
....|..|B-5 3F.F ....|B-3 3F.7 ....|D-4 2F1F ....
 G-4|..|G-3 2C.F ....|R-- .... ....|G-2 2A.F ....
 G-3|..|G-1 2AFF ....|D-4 3F.7 ....|--- .... ....
....|..|R-- .... ....|D-4 3F.7 ....|--- .... ....

[Pattern37]
....|..|R-- .... ....|D-4 3F.A ....|R-- .... ....
....|..|R-- .... ....|R-- .... ....|R-- .... ....
....|..|B-5 3F.A ....|G-4 3F.7 ....|D-4 2F1A ....
....|..|G-1 2FFA ....|R-- .... ....|--- .... ....
....|..|F#5 3F.F ....|--- .... ....|D-4 2FEF ....
 D-4|..|D-3 2C.F ....|--- .... ....|D-2 2A.F ....
 D-3|..|D-1 2AFF ....|D-4 3F.7 ....|--- .... ....
....|..|R-- .... ....|--- .... ....|D-4 2F.F ....
....|..|F#5 3F.F ....|--- .... ....|D-4 2FEF ....
 D-4|..|D-3 2C.F ....|R-- .... ....|D-2 2A.F ....
....|..|F#5 3F.A ....|--- .... ....|D-4 2FEA ....
 D-3|..|D-1 2AFF ....|--- .... ....|--- .... ....
....|..|D-1 2FFA ....|--- .... ....|D-4 2F.F ....
....|..|R-- .... ....|--- .... ....|D-4 2F.A ....
....|..|D-1 2FFA ....|--- .... ....|D-4 2FEA ....
....|..|R-- .... ....|B-3 3F.F ....|R-- .... ....
....|..|D-3 2F.A ....|--- .... ....|D-1 2F.A ....
....|..|D-1 2FF7 ....|--- .... ....|--- .... ....
....|..|--- .... ....|--- .... ....|D-4 2F.A ....
....|..|R-- .... ....|D-4 3F.F ....|R-- .... ....
....|..|F#5 3F.7 ....|--- .... ....|D-4 2FE7 ....
....|..|R-- .... ....|B-3 3F.A ....|G-1 2F.7 ....
....|..|D-1 2FF7 ....|B-4 3F.F ....|--- .... ....
....|..|--- .... ....|--- .... ....|--- .... ....
....|..|R-- .... ....|--- .... ....|D-4 2F.7 ....
....|..|R-- .... ....|D-4 3F.A ....|R-- .... ....
....|..|R-- .... ....|--- .... ....|--- .... ....
....|..|R-- .... ....|B-3 3F.7 ....|R-- .... ....
....|..|G-5 3F.F ....|G-4 3F.F ....|E-4 2F3F ....
 E-4|..|E-3 2C.F ....|--- .... ....|E-2 2A.F ....
 E-3|..|E-1 2AFF ....|--- .... ....|--- .... ....
....|..|R-- .... ....|D-4 3F.7 ....|R-- .... ....
....|..|D-3 2F.7 ....|--- .... ....|D-1 2F.7 ....
....|..|R-- .... ....|R-- .... ....|R-- .... ....
....|..|G-5 3F.A ....|B-4 3F.7 ....|E-4 2F3A ....
....|..|E-1 2FFA ....|--- .... ....|--- .... ....
....|..|E-5 3F.F ....|--- .... ....|C-4 2FEF ....
 C-3|..|C-3 2C.F ....|R-- .... ....|C-2 2A.F ....
 C-3|..|C-1 2AFF ....|--- .... ....|R-- .... ....
....|..|R-- .... ....|R-- .... ....|R-- .... ....
....|..|E-5 3F.F ....|G-4 3F.7 ....|C-4 2FEF ....
 C-3|..|C-3 2C.F ....|--- .... ....|C-2 2A.F ....
....|..|E-5 3F.A ....|--- .... ....|C-4 2FEA ....
 C-3|..|C-1 2AFF ....|R-- .... ....|--- .... ....
 C-3|..|C-3 2C.F ....|G-4 3F.F ....|R-- .... ....
....|..|C-1 2FFA ....|--- .... ....|R-- .... ....
....|..|E-5 3F.A ....|--- .... ....|C-4 2FEA ....
....|..|C-1 2FFA ....|R-- .... ....|--- .... ....
....|..|C-3 2F.A ....|B-4 3F.F ....|C-1 2F.A ....
....|..|C-1 2FF7 ....|--- .... ....|--- .... ....
....|..|--- .... ....|G-4 3F.A ....|--- .... ....
....|..|R-- .... ....|--- .... ....|R-- .... ....
....|..|E-5 3F.7 ....|C-5 3F.F ....|C-4 2FE7 ....
....|..|E-3 2F.7 ....|R-- .... ....|E-1 2F.7 ....
....|..|R-- .... ....|B-4 3F.A ....|--- .... ....
....|..|--- .... ....|R-- .... ....|--- .... ....
....|..|C-3 2F.A ....|B-4 3F.F ....|--- .... ....
....|..|--- .... ....|--- .... ....|R-- .... ....
....|..|R-- .... ....|C-5 3F.A ....|R-- .... ....
....|..|--- .... ....|R-- .... ....|--- .... ....
....|..|B-5 3F.F ....|G-4 3F.F ....|D-4 2F1F ....
 G-4|..|G-3 2C.F ....|R-- .... ....|G-2 2A.F ....
 G-3|..|G-1 2AFF ....|B-4 3F.A ....|--- .... ....
....|..|R-- .... ....|R-- .... ....|R-- .... ....

[Pattern38]
....|..|C-3 2F.7 ....|C-5 3F.7 ....|C-1 2F.7 ....
....|..|R-- .... ....|--- .... ....|R-- .... ....
....|..|B-5 3F.A ....|G-4 3F.A ....|D-4 2F1A ....
....|..|G-1 2FFA ....|R-- .... ....|--- .... ....
....|..|F#5 3F.F ....|B-4 3F.7 ....|D-4 2FEF ....
 D-4|..|D-3 2C.F ....|R-- .... ....|D-2 2A.F ....
 D-3|..|D-1 2AFF ....|--- .... ....|R-- .... ....
....|..|R-- .... ....|--- .... ....|R-- .... ....
....|..|F#5 3F.F ....|G-4 3F.7 ....|D-4 2FEF ....
 D-4|..|D-3 2C.F ....|--- .... ....|D-2 2A.F ....
....|..|F#5 3F.A ....|--- .... ....|D-4 2FEA ....
 D-3|..|D-1 2AFF ....|R-- .... ....|--- .... ....
....|..|D-1 2FFA ....|G-4 3F.F ....|R-- .... ....
....|..|R-- .... ....|--- .... ....|R-- .... ....
....|..|D-1 2FFA ....|--- .... ....|D-4 2FEA ....
....|..|--- .... ....|R-- .... ....|--- .... ....
....|..|D-3 2F.A ....|B-4 3F.F ....|D-1 2F.A ....
....|..|D-1 2FF7 ....|--- .... ....|--- .... ....
....|..|--- .... ....|G-4 3F.A ....|--- .... ....
....|..|R-- .... ....|--- .... ....|R-- .... ....
....|..|F#5 3F.7 ....|A-4 3F.F ....|D-4 2FE7 ....
....|..|G-3 2F.7 ....|R-- .... ....|G-1 2F.7 ....
....|..|R-- .... ....|B-4 3F.A ....|--- .... ....
....|..|--- .... ....|R-- .... ....|--- .... ....
....|..|R-- .... ....|A-4 3F.F ....|--- .... ....
....|..|R-- .... ....|--- .... ....|R-- .... ....
....|..|R-- .... ....|A-4 3F.A ....|R-- .... ....
....|..|--- .... ....|R-- .... ....|--- .... ....
....|..|D-3 2F.7 ....|G-4 3F.F ....|D-1 2F.7 ....
....|..|R-- .... ....|R-- .... ....|--- .... ....
....|..|--- .... ....|A-4 3F.A ....|--- .... ....
....|..|R-- .... ....|R-- .... ....|R-- .... ....
 C-3|..|C-3 2C.F ....|A-4 3F.7 ....|C-4 2FEF ....
 C-3|..|C-1 2AFF ....|--- .... ....|C-1 2A.F ....
....|..|--- .... ....|G-4 3F.A ....|--- .... ....
....|..|--- .... ....|R-- .... ....|--- .... ....
....|..|--- .... ....|A-4 3F.7 ....|--- .... ....
....|..|--- .... ....|R-- .... ....|--- .... ....
....|..|C-1 2FFA ....|--- .... ....|E-4 2F.F ....
....|..|R-- .... ....|--- .... ....|R-- .... ....
....|..|R-- .... ....|G-4 3F.F ....|R-- .... ....
....|..|--- .... ....|--- .... ....|--- .... ....
....|..|--- .... ....|--- .... ....|--- .... ....
....|..|--- .... ....|R-- .... ....|--- .... ....
....|..|C-3 2F.A ....|--- .... ....|C-1 2F.A ....
....|..|C-1 2FF7 ....|R-- .... ....|R-- .... ....
....|..|R-- .... ....|G-4 3F.A ....|--- .... ....
....|..|--- .... ....|--- .... ....|--- .... ....
....|..|--- .... ....|B-3 3F.F ....|--- .... ....
....|..|--- .... ....|--- .... ....|--- .... ....
....|..|--- .... ....|D-4 3F.F ....|E-4 2F.7 ....
....|..|R-- .... ....|D-4 3F.F ....|R-- .... ....
....|..|R-- .... ....|G-4 3F.7 ....|R-- .... ....
....|..|--- .... ....|R-- .... ....|--- .... ....
....|..|--- .... ....|G-4 3F.F ....|--- .... ....
....|..|--- .... ....|--- .... ....|--- .... ....
....|..|C-3 2F.7 ....|D-4 3F.A ....|C-1 2F.7 ....
....|..|--- .... ....|D-4 3F.A ....|--- .... ....
....|..|R-- .... ....|D-4 3F.F ....|--- .... ....
....|..|--- .... ....|R-- .... ....|--- .... ....
....|..|B-5 3F.F ....|B-3 3F.7 ....|D-4 2F1F ....
 G-4|..|G-3 2C.F ....|R-- .... ....|G-2 2A.F ....
 G-3|..|G-1 2AFF ....|D-4 3F.7 ....|--- .... ....
....|..|R-- .... ....|D-4 3F.7 ....|--- .... ....

[Pattern46]
....|..|C-3 2F.7 ....|--- .... ....|C-1 2F.7 ....
....|..|C-3 UF.A ....|--- .... ....|R-- .... ....
....|..|G-3 UFDF ....|R-- .... ....|D-4 2F1A ....
....|..|R-- .... ....|--- .... ....|--- .... ....
....|..|F#5 3F.F ....|G-4 3F.7 ....|D-4 2FEF ....
 D-4|..|D-3 2C.F ....|--- .... ....|D-2 2A.F ....
 D-3|..|D-1 2AFF ....|--- .... ....|R-- .... ....
....|..|C-3 UF.7 ....|--- .... ....|R-- .... ....
....|..|F#5 3F.F ....|R-- .... ....|D-4 2FEF ....
 D-4|..|D-3 2C.F ....|--- .... ....|D-2 2A.F ....
....|..|F#5 3F.A ....|--- .... ....|D-4 2FEA ....
 D-3|..|D-1 2AFF ....|--- .... ....|--- .... ....
....|..|D-1 2FFA ....|G-4 3F.F ....|R-- .... ....
....|..|R-- .... ....|--- .... ....|R-- .... ....
....|..|D-1 2FFA ....|--- .... ....|D-4 2FEA ....
....|..|R-- .... ....|--- .... ....|--- .... ....
....|..|D-3 2F.A ....|B-4 3F.F ....|D-1 2F.A ....
....|..|D-1 2FF7 ....|--- .... ....|--- .... ....
....|..|--- .... ....|G-4 3F.A ....|--- .... ....
....|..|R-- .... ....|--- .... ....|R-- .... ....
....|..|F#5 3F.7 ....|A-4 3F.F ....|D-4 2FE7 ....
....|..|G-3 2F.7 ....|--- .... ....|G-1 2F.7 ....
....|..|R-- .... ....|B-4 3F.A ....|--- .... ....
....|..|--- .... ....|--- .... ....|--- .... ....
....|..|R-- .... ....|A-4 3F.F ....|--- .... ....
....|..|R-- .... ....|--- .... ....|R-- .... ....
....|..|R-- .... ....|A-4 3F.A ....|R-- .... ....
....|..|--- .... ....|--- .... ....|--- .... ....
....|..|D-3 2F.7 ....|G-4 3F.F ....|D-1 2F.7 ....
....|..|R-- .... ....|--- .... ....|--- .... ....
....|..|--- .... ....|A-4 3F.A ....|--- .... ....
....|..|R-- .... ....|--- .... ....|R-- .... ....
 C-3|..|C-3 2C.F ....|A-4 3F.7 ....|C-4 2FEF ....
 C-3|..|C-1 2AFF ....|--- .... ....|C-1 2A.F ....
....|..|--- .... ....|G-4 3F.A ....|--- .... ....
....|..|--- .... ....|--- .... ....|--- .... ....
....|..|--- .... ....|A-4 3F.7 ....|D-4 2F1F ....
....|..|R-- .... ....|--- .... ....|R-- .... ....
....|..|C-1 2FFA ....|R-- .... ....|E-4 2F.F ....
....|..|R-- .... ....|--- .... ....|R-- .... ....
....|..|R-- .... ....|G-4 3F.7 ....|D-4 2F1F ....
....|..|--- .... ....|--- .... ....|R-- .... ....
....|..|--- .... ....|--- .... ....|D-4 2F1A ....
....|..|R-- .... ....|--- .... ....|R-- .... ....
....|..|C-3 2F.A ....|R-- .... ....|D-4 2F1F ....
....|..|C-1 2FF7 ....|--- .... ....|C-1 2F.A ....
....|..|R-- .... ....|--- .... ....|D-4 2F1A ....
....|..|--- .... ....|--- .... ....|R-- .... ....
....|..|--- .... ....|--- .... ....|D-4 2F1F ....
....|..|--- .... ....|--- .... ....|R-- .... ....
....|..|--- .... ....|--- .... ....|D-4 2F1A ....
....|..|R-- .... ....|--- .... ....|R-- .... ....
....|..|R-- .... ....|--- .... ....|D-4 2F1F ....
....|..|--- .... ....|--- .... ....|R-- .... ....
....|..|--- .... ....|--- .... ....|D-4 2F1A ....
....|..|--- .... ....|--- .... ....|R-- .... ....
....|..|C-3 2F.7 ....|--- .... ....|D-4 2F1F ....
....|..|--- .... ....|--- .... ....|C-1 2F.7 ....
....|..|--- .... ....|--- .... ....|D-4 2F1A ....
....|..|--- .... ....|--- .... ....|R-- .... ....
....|..|--- .... ....|--- .... ....|D-4 2F1F ....
....|..|--- .... ....|--- .... ....|R-- .... ....
....|..|--- .... ....|--- .... ....|D-4 2F1A ....
....|..|R-- .... ....|--- .... ....|R-- .... ....

[Pattern47]
....|..|--- .... ....|--- .... ....|D-4 2F1F ....
....|..|--- .... ....|--- .... ....|R-- .... ....
....|..|--- .... ....|--- .... ....|D-4 2F1A ....
....|..|--- .... ....|--- .... ....|R-- .... ....
....|..|--- .... ....|--- .... ....|D-4 2F1F ....
....|..|--- .... ....|--- .... ....|R-- .... ....
....|..|--- .... ....|--- .... ....|D-4 2F1A ....
....|..|--- .... ....|--- .... ....|R-- .... ....
....|..|--- .... ....|--- .... ....|D-4 2F1F ....
....|..|--- .... ....|--- .... ....|R-- .... ....
....|..|--- .... ....|--- .... ....|D-4 2F1A ....
....|..|--- .... ....|--- .... ....|R-- .... ....
....|..|--- .... ....|--- .... ....|D-4 2F1F ....
....|..|--- .... ....|--- .... ....|R-- .... ....
....|..|--- .... ....|--- .... ....|D-4 2F1A ....
....|..|--- .... ....|--- .... ....|R-- .... ....
....|..|--- .... ....|--- .... ....|D-4 2F1F ....
....|..|--- .... ....|--- .... ....|R-- .... ....
....|..|--- .... ....|--- .... ....|D-4 2F1A ....
....|..|--- .... ....|--- .... ....|R-- .... ....
....|..|--- .... ....|--- .... ....|D-4 2F1F ....
....|..|--- .... ....|--- .... ....|R-- .... ....
....|..|--- .... ....|--- .... ....|D-4 2F1A ....
....|..|--- .... ....|--- .... ....|R-- .... ....
....|..|--- .... ....|--- .... ....|D-4 2F1F ....
....|..|--- .... ....|--- .... ....|R-- .... ....
....|..|--- .... ....|--- .... ....|D-4 2F1A ....
....|..|--- .... ....|--- .... ....|R-- .... ....
....|..|--- .... ....|--- .... ....|D-4 2F1F ....
....|..|--- .... ....|--- .... ....|R-- .... ....
....|..|--- .... ....|--- .... ....|D-4 2F1A ....
....|..|R-- .... ....|--- .... ....|R-- .... ....
....|..|G-5 3F.F ....|--- .... ....|D-4 2F1F ....
 G-4|..|G-3 2C.F ....|--- .... ....|D-4 2F17 ....
 G-3|..|G-1 2AFF ....|--- .... ....|D-4 2F1A ....
 G-3|..|R-- .... ....|--- .... ....|G-1 2A.F ....
....|..|R-- .... ....|--- .... ....|D-4 2F17 ....
....|..|R-- .... ....|--- .... ....|R-- .... ....
....|..|G-5 3F.A ....|--- .... ....|D-4 2F1A ....
....|..|G-1 2FFA ....|--- .... ....|--- .... ....
....|..|--- .... ....|--- .... ....|D-4 2F17 ....
....|..|R-- .... ....|--- .... ....|R-- .... ....
....|..|--- .... ....|--- .... ....|--- .... ....
....|..|R-- .... ....|--- .... ....|--- .... ....
....|..|G-3 2F.A ....|--- .... ....|G-1 2F.A ....
....|..|G-1 2FF7 ....|--- .... ....|--- .... ....
....|..|--- .... ....|--- .... ....|--- .... ....
....|..|R-- .... ....|--- .... ....|R-- .... ....

