[Module]
VortexTrackerII=0
Version=3.5
Title=1me[2e]-3p[3]+,2p+,4mw[uf]-6mw[uf]+-5p[3]+
Author=oisee ^ 4d 29.05.2010
NoteTable=4
ChipFreq=1750000
Speed=3
PlayOrder=L0,1,2,3,4,5,6,7,8,9,10,11,12,13,14,15,16,17,18,19,20,21,22,23,24,25,26,27,28,29,30,31,32,33,34

[Ornament1]
L0,0,3,3

[Ornament2]
L0,0,3,3,5,5

[Ornament3]
L0,0,2,2

[Ornament4]
L0,0,4,4,7,7

[Ornament5]
L0,0,2,2,5,5

[Ornament6]
L0,0,3,3,6,6

[Ornament7]
L0,0,4,4

[Ornament8]
L0,0,4,4,5,5

[Ornament9]
L0,0,1,1,5,5

[Ornament10]
L0,0,3,3,7,7

[Ornament11]
L0

[Ornament12]
L0

[Ornament13]
L0

[Ornament14]
12,L12,0,0

[Ornament15]
L0,0,0,0,0,0,0

[Sample1]
TnE +000_ +00_ F_
TnE +000_ +00_ F_
TnE +000_ +00_ F_
TnE +000_ +00_ D_
TnE +000_ +00_ B_
TnE +000_ +00_ B_ L

[Sample2]
TnE +000_ +00_ F_ L

[Sample3]
TnE +001_ +00_ F_
TnE +002_ +00_ F_
TnE +001_ +00_ E_
TnE +002_ +00_ E_
TnE +000_ +00_ E_ L
TnE -001_ +00_ E_
TnE -002_ +00_ E_
TnE -001_ +00_ E_
TnE +000_ +00_ E_
TnE +001_ +00_ E_
TnE +002_ +00_ E_
TnE +001_ +00_ E_

[Sample4]
TnE +002_ +00_ D_
TnE +002_ +00_ D_
TnE +002_ +00_ C_
TnE +002_ +00_ B_
TnE +002_ +00_ A_ L
TnE +002_ +00_ A_
TnE +002_ +00_ A_
TnE +002_ +00_ A_
TnE +002_ +00_ A_
TnE +002_ +00_ A_
TnE +002_ +00_ A_
TnE +002_ +00_ A_

[Sample5]
TnE +000_ +00_ F_
TnE +000_ +00_ F_
tne +000_ +00_ 0_ L

[Sample6]
TnE -001_ +00_ F_ L

[Sample7]
TnE +006_ +00_ F_ L

[Sample8]
tNe +000_ +00_ F_
tNe +000_ +00_ B_
tNe +000_ +00_ 7_
tNe +000_ +00_ 6- L

[Sample9]
TnE +080_ +00_ F_
TnE +100_ +00_ E_
TnE +180_ +00_ E_
TnE +200_ +00_ E_
TnE +240_ +00_ D_
TnE +280_ +00_ D_
TnE +2C0_ +00_ D_
TnE +300_ +00_ C_
TnE +300_ +00_ C_
TnE +340_ +00_ C_
TnE +340_ +00_ C_
TnE +380_ +00_ B_
TnE +380_ +00_ B_
TnE +400_ +00_ B_
TnE +400_ +00_ B_
TnE +480_ +00_ A_
TnE +500_ +00_ 9_
TnE +580_ +00_ 7_
TnE +600_ +00_ 4_
TnE +680_ +00_ 1_
TnE +000_ +00_ 0_ L

[Sample10]
Tne +1C0_ +00_ F_
Tne +280_ +00_ E_
Tne +380_ +00_ C_
Tne +440_ +00_ A_
Tne +480_ +00_ 8_
TnE +000_ +00_ 0_ L

[Sample11]
TNe +200_ -0A_ F_
tNe +000_ +0F_ A_
TNe +200_ -07_ E_
tNe +000_ +0E_ B- L

[Sample12]
TNE +0A0_ +05_ F_
TNE +140_ +02_ D_
TNE +140_ +02_ B_
TNE +100_ +00_ A_ L
TNE +140_ +00_ A_
TNE +200_ +00_ A-

[Sample13]
Tne +200_ +00_ F_
Tne +2C0_ +00_ F_
Tne +380_ +00_ E_
Tne +500_ +00_ C_
Tne +520_ +00_ 9_
tne +000_ +00_ 0_ L

[Sample14]
TNE -100_ +00_ F_
TNE -100_ +00_ D_
TNE -100_ +00_ A_
TNE -100_ +00_ 5_
tne +000_ +00_ 0_ L

[Sample15]
TNE -100_ +00_ 5_
TNE -100_ +00_ 8_
TNE -100_ +00_ B_
TNE -100_ +00_ F_
TNe -100_ +00_ 9- L

[Sample16]
TnE +000_ +00_ C_
TnE +000_ +00_ E_
TnE +000_ +00_ F_
TnE +000_ +00_ F_
TnE +000_ +00_ E_
TnE +000_ +00_ D_
TnE +000_ +00_ C_
TnE +000_ +00_ C_ L
TnE +001_ +00_ C_
TnE +002_ +00_ C_
TnE +003_ +00_ C_
TnE +001_ +00_ C_
TnE +000_ +00_ C_
TnE -001_ +00_ C_
TnE -002_ +00_ C_
TnE -003_ +00_ C_
TnE -001_ +00_ C_
TnE +000_ +00_ C_
TnE +000_ +00_ C_

[Sample17]
Tne +1C0_ +00_ F_
Tne +280_ +00_ D_
Tne +380_ +00_ 7_
TNE +000_ +00_ 0_ L

[Sample18]
TnE -00C_ +00_ 0_ L

[Sample19]
TNe +000_ +00_ F_
TNe +000_ +00_ C_
TNe +000_ +00_ 6_
TNe +000_ +01_ A- L

[Sample20]
TNE +140_ +00_ F_
tNE +000_ +00_ B- L

[Sample21]
tNE +000_ +00_ D_
tNE +000_ +00_ 8_
tNE +000_ +00_ 1_
TNE +000_ +00_ 0_ L

[Sample22]
TnE +000_ +00_ D_ L
TnE +000_ +00_ D_
tne +000_ +00_ 9_
tne +000_ +00_ 9_
TnE +000_ +00_ D_
TnE +000_ +00_ D_
tne +000_ +00_ 9_
tne +000_ +00_ 9_
TnE +000_ +00_ D_
TnE +000_ +00_ D_
TnE +000_ +00_ D_
TnE +000_ +00_ D_
TnE +000_ +00_ D_
TnE +000_ +00_ D_
tne +000_ +00_ 9_
tne +000_ +00_ 9_

[Sample23]
TnE +000_ +00_ F_ L
TnE +010_ +01_ F_
TnE +010_ +01_ F_
TnE +010_ +01_ F_
TnE +010_ +01_ F_
TnE +000_ +00_ F_
TnE +000_ +00_ F_
TnE -010_ -01_ F_
TnE -010_ -01_ F_
TnE -010_ -01_ F_
TnE -010_ -01_ F_
TnE +000_ +00_ F_

[Sample24]
TNe +000_ -01_ C_
TNe +000_ -01_ D_
TNe +000_ -01_ E_
TNe +000_ -01_ F_
TNe +000_ -01_ F_
TNe +000_ -01_ F_
TNe +000_ -01_ F_
TNe +000_ -01_ F_
TNe +000_ -01_ E_
TNe +000_ -01_ E_
TNe +000_ -01_ E_
TNe +000_ -01_ F_
TNe +000_ -01_ F_ L

[Sample25]
TNE +000_ +00_ F_
TNE +000_ +00_ F_ L
TNE +000_ +00_ F_
TNE +000_ +00_ F_
TNE +000_ +00_ F-

[Sample26]
tne +000_ +00_ 0_ L

[Sample27]
TnE +100_ +05_ F_
TnE +200_ +02_ A_
TnE +300_ +02_ 7_
TNE +400_ +00_ 3- L

[Sample28]
tne +000_ +00_ 0_ L

[Sample29]
tnE +000_ +00_ 0_ L

[Sample30]
TNE +000_ +00_ F_
TnE +002_ +00_ F_
TnE +001_ +00_ E_
TnE +002_ +00_ E_
TnE +000_ +00_ E_ L
TnE -001_ +00_ E_
TnE -002_ +00_ E_
TnE -001_ +00_ E_
TnE +000_ +00_ E_
TnE +001_ +00_ E_
TnE +002_ +00_ E_
TnE +001_ +00_ E_

[Sample31]
TNe +1C0_ +00_ F_
Tne +280_ +00_ E_
Tne +380_ +00_ C_
Tne +440_ +00_ A_
Tne +480_ +00_ 8_
TnE +000_ +00_ 0_ L

[Pattern0]
....|..|--- .... ....|--- .... ....|C#5 UFFF ....
....|..|--- .... ....|--- .... ....|R-- .... ....
....|..|--- .... ....|--- .... ....|R-- .... ....
....|..|--- .... ....|--- .... ....|--- .... ....
....|..|--- .... ....|--- .... ....|D#5 UFFF ....
....|..|--- .... ....|--- .... ....|--- .... ....
....|..|--- .... ....|--- .... ....|--- .... ....
....|..|--- .... ....|--- .... ....|R-- .... ....
....|..|--- .... ....|--- .... ....|C#5 UFFF ....
....|..|--- .... ....|--- .... ....|C#5 UFF7 ....
....|..|--- .... ....|--- .... ....|--- .... ....
....|..|--- .... ....|--- .... ....|R-- .... ....
....|..|--- .... ....|--- .... ....|B-4 UFFF ....
....|..|--- .... ....|--- .... ....|R-- .... ....
....|..|--- .... ....|--- .... ....|--- .... ....
....|..|--- .... ....|--- .... ....|--- .... ....
 C#4|..|C#2 2AEF ....|C#4 2FAF ....|C#5 UFFF ....
....|..|R-- .... ....|--- .... ....|--- .... ....
....|..|--- .... ....|--- .... ....|--- .... ....
....|..|--- .... ....|--- .... ....|--- .... ....
....|..|C#4 3F1F ....|--- .... ....|C#5 UFFA ....
....|..|R-- .... ....|--- .... ....|--- .... ....
....|..|C#2 2FEA ....|C#4 2FAA ....|E-4 3F7A ....
....|..|R-- .... ....|--- .... ....|R-- .... ....
....|..|C#4 3F1F ....|--- .... ....|E-4 3F7F ....
....|..|R-- .... ....|--- .... ....|R-- .... ....
....|..|C#4 3F1A ....|--- .... ....|--- .... ....
....|..|R-- .... ....|--- .... ....|--- .... ....
 C#4|..|C#2 2AEF ....|C#4 2FA7 ....|E-4 3F7F ....
....|..|R-- .... ....|--- .... ....|E-4 3F7F ....
....|..|C#4 3F1A ....|--- .... ....|E-4 3F7A ....
....|..|R-- .... ....|R-- .... ....|R-- .... ....
 B-3|..|B-1 2AEF ....|B-3 2F4F ....|D#4 3F1F ....
....|..|R-- .... ....|--- .... ....|--- .... ....
....|..|C#2 2FEA ....|--- .... ....|E-4 3F7A ....
....|..|R-- .... ....|--- .... ....|E-4 3F7A ....
....|..|B-3 3F4F ....|--- .... ....|B-4 UFF7 ....
....|..|R-- .... ....|R-- .... ....|R-- .... ....
....|..|B-1 2FEA ....|B-3 2F4A ....|D#4 3F1A ....
....|..|R-- .... ....|--- .... ....|--- .... ....
....|..|B-3 3F4F ....|--- .... ....|D#4 3F1F ....
....|..|R-- .... ....|--- .... ....|E-4 3F77 ....
....|..|B-3 3F4A ....|--- .... ....|R-- .... ....
....|..|R-- .... ....|R-- .... ....|R-- .... ....
 B-3|..|B-1 2AEF ....|B-3 2F47 ....|D#4 3F17 ....
....|..|R-- .... ....|--- .... ....|D#4 3F.F ....
....|..|B-3 3F4A ....|--- .... ....|D#4 3F1A ....
....|..|R-- .... ....|R-- .... ....|--- .... ....
 A-3|..|A-1 2AEF ....|C#4 2F1F ....|C#4 3F1F ....
....|..|R-- .... ....|--- .... ....|--- .... ....
....|..|B-1 2FEA ....|--- .... ....|R-- .... ....
....|..|R-- .... ....|--- .... ....|D#4 3F.A ....
....|..|A-3 3F4F ....|--- .... ....|D#4 3F17 ....
....|..|R-- .... ....|R-- .... ....|--- .... ....
....|..|A-1 2FEA ....|C#4 2F1A ....|C#4 3F1A ....
....|..|R-- .... ....|--- .... ....|--- .... ....
....|..|A-3 3F4F ....|--- .... ....|C#5 UFFF ....
....|..|R-- .... ....|--- .... ....|D#4 3F.7 ....
....|..|A-3 3F4A ....|--- .... ....|R-- .... ....
....|..|R-- .... ....|R-- .... ....|R-- .... ....
 A-3|..|A-1 2AEF ....|C#4 2F17 ....|D#5 UFFF ....
....|..|R-- .... ....|--- .... ....|--- .... ....
....|..|A-3 3F4A ....|--- .... ....|--- .... ....
....|..|R-- .... ....|R-- .... ....|R-- .... ....

[Pattern1]
 B-3|..|B-1 2AEF ....|B-3 2F4F ....|C#5 UFFF ....
....|..|R-- .... ....|--- .... ....|--- .... ....
....|..|A-1 2FEA ....|--- .... ....|R-- .... ....
....|..|R-- .... ....|--- .... ....|--- .... ....
....|..|B-3 3F4F ....|--- .... ....|C#5 UFFA ....
....|..|R-- .... ....|R-- .... ....|R-- .... ....
....|..|B-1 2FEA ....|B-3 2F4A ....|D#4 3F1A ....
....|..|R-- .... ....|--- .... ....|R-- .... ....
....|..|B-3 3F4F ....|--- .... ....|B-4 UFFF ....
....|..|R-- .... ....|--- .... ....|--- .... ....
....|..|B-3 3F4A ....|--- .... ....|--- .... ....
....|..|R-- .... ....|R-- .... ....|R-- .... ....
 B-3|..|B-1 2AEF ....|B-3 2F47 ....|G#4 UFFF ....
....|..|R-- .... ....|--- .... ....|--- .... ....
....|..|B-3 3F4A ....|--- .... ....|--- .... ....
....|..|R-- .... ....|R-- .... ....|--- .... ....
 G#3|..|G#1 2AEF ....|C#4 2F3F ....|C#5 UFF7 ....
....|..|R-- .... ....|--- .... ....|--- .... ....
....|..|B-1 2FEA ....|--- .... ....|R-- .... ....
....|..|R-- .... ....|--- .... ....|R-- .... ....
....|..|C#4 3F5F ....|--- .... ....|D#5 UFF7 ....
....|..|R-- .... ....|R-- .... ....|--- .... ....
....|..|G#1 2FEA ....|C#4 2F3A ....|--- .... ....
....|..|R-- .... ....|--- .... ....|R-- .... ....
....|..|C#4 3F5F ....|--- .... ....|C-4 3F1F ....
....|..|R-- .... ....|--- .... ....|--- .... ....
....|..|C#4 3F5A ....|--- .... ....|R-- .... ....
....|..|R-- .... ....|R-- .... ....|--- .... ....
 G#3|..|G#1 2AEF ....|C#4 2F37 ....|C-4 3F1F ....
....|..|R-- .... ....|--- .... ....|--- .... ....
....|..|C#4 3F5A ....|--- .... ....|C-4 3F1A ....
....|..|R-- .... ....|--- .... ....|--- .... ....
 G#3|..|G#1 2AEF ....|--- .... ....|C-4 3F1F ....
....|..|R-- .... ....|--- .... ....|--- .... ....
....|..|G#1 2FEA ....|--- .... ....|C-4 3F1A ....
....|..|R-- .... ....|--- .... ....|R-- .... ....
 G#3|..|G#1 2AEF ....|--- .... ....|G#4 UFF7 ....
....|..|R-- .... ....|--- .... ....|--- .... ....
....|..|G#1 2FEA ....|--- .... ....|C-4 3F1A ....
....|..|R-- .... ....|--- .... ....|--- .... ....
....|..|C#4 3F5F ....|--- .... ....|C-4 3F1F ....
....|..|R-- .... ....|--- .... ....|--- .... ....
....|..|G#1 2FEA ....|--- .... ....|R-- .... ....
....|..|R-- .... ....|--- .... ....|--- .... ....
 G#3|..|G#1 2AEF ....|--- .... ....|C-4 3F1F ....
....|..|R-- .... ....|--- .... ....|--- .... ....
....|..|C#4 3F5A ....|--- .... ....|C-4 3F1A ....
....|..|R-- .... ....|R-- .... ....|R-- .... ....
 G#3|..|G#1 2AEF ....|C-4 2F1F ....|R-- .... ....
....|..|R-- .... ....|--- .... ....|--- .... ....
....|..|G#1 2FEA ....|--- .... ....|C-4 3F1A ....
....|..|R-- .... ....|--- .... ....|--- .... ....
....|..|C-4 3F6F ....|--- .... ....|C-4 3F17 ....
....|..|R-- .... ....|R-- .... ....|--- .... ....
....|..|G#1 2FEA ....|C-4 2F1A ....|R-- .... ....
....|..|R-- .... ....|--- .... ....|--- .... ....
....|..|C-4 3F6F ....|--- .... ....|C-4 3F17 ....
....|..|R-- .... ....|--- .... ....|--- .... ....
....|..|C-4 3F6A ....|--- .... ....|--- .... ....
....|..|R-- .... ....|R-- .... ....|R-- .... ....
 G#3|..|G#1 2AEF ....|C-4 2F17 ....|--- .... ....
....|..|R-- .... ....|--- .... ....|--- .... ....
....|..|C-4 3F6A ....|--- .... ....|--- .... ....
....|..|R-- .... ....|R-- .... ....|R-- .... ....

[Pattern2]
 A-3|..|A-1 2AEF ....|C#4 2F1F ....|E-5 UFFF ....
....|..|R-- .... ....|--- .... ....|--- .... ....
....|..|G#1 2FEA ....|--- .... ....|--- .... ....
....|..|R-- .... ....|--- .... ....|R-- .... ....
....|..|A-3 3F4F ....|--- .... ....|E-5 UFFF ....
....|..|R-- .... ....|R-- .... ....|R-- .... ....
....|..|A-1 2FEA ....|C#4 2F1A ....|C#4 3F1A ....
....|..|R-- .... ....|--- .... ....|R-- .... ....
....|..|A-3 3F4F ....|--- .... ....|R-- .... ....
....|..|R-- .... ....|--- .... ....|--- .... ....
....|..|A-3 3F4A ....|--- .... ....|R-- .... ....
....|..|R-- .... ....|R-- .... ....|E-5 UFFF ....
 A-3|..|A-1 2AEF ....|C#4 2F17 ....|E-5 UFFA ....
....|..|R-- .... ....|--- .... ....|E-5 UFFF ....
....|..|A-3 3F4A ....|--- .... ....|R-- .... ....
....|..|R-- .... ....|R-- .... ....|R-- .... ....
 E-4|..|E-2 2AEF ....|E-4 2F7F ....|E-5 UFFF ....
....|..|R-- .... ....|--- .... ....|--- .... ....
....|..|A-1 2FEA ....|--- .... ....|--- .... ....
....|..|R-- .... ....|--- .... ....|--- .... ....
....|..|G#3 3F1F ....|--- .... ....|R-- .... ....
....|..|R-- .... ....|R-- .... ....|--- .... ....
....|..|E-2 2FEA ....|E-4 2F7A ....|E-4 3F7A ....
....|..|R-- .... ....|--- .... ....|E-5 UFFA ....
....|..|G#3 3F1F ....|--- .... ....|E-4 3F7F ....
....|..|R-- .... ....|--- .... ....|E-5 UFFA ....
....|..|G#3 3F1A ....|--- .... ....|--- .... ....
....|..|R-- .... ....|R-- .... ....|R-- .... ....
 E-4|..|E-2 2AEF ....|E-4 2F77 ....|E-4 3F7F ....
....|..|R-- .... ....|--- .... ....|--- .... ....
....|..|G#3 3F1A ....|--- .... ....|E-4 3F7A ....
....|..|R-- .... ....|R-- .... ....|R-- .... ....
 G#3|..|G#1 2AEF ....|C-4 2F1F ....|D#4 3F1F ....
....|..|R-- .... ....|--- .... ....|--- .... ....
....|..|E-2 2FEA ....|--- .... ....|E-4 3F7A ....
....|..|R-- .... ....|--- .... ....|R-- .... ....
....|..|C-4 3F6F ....|--- .... ....|D#4 3F1F ....
....|..|R-- .... ....|R-- .... ....|R-- .... ....
....|..|G#1 2FEA ....|C-4 2F1A ....|D#4 3F1A ....
....|..|R-- .... ....|--- .... ....|R-- .... ....
....|..|C-4 3F6F ....|--- .... ....|D#4 3F.F ....
....|..|R-- .... ....|--- .... ....|R-- .... ....
....|..|C-4 3F6A ....|--- .... ....|D#4 3F1A ....
....|..|R-- .... ....|R-- .... ....|R-- .... ....
 G#3|..|G#1 2AEF ....|C-4 2F17 ....|E-4 3F7F ....
....|..|R-- .... ....|--- .... ....|--- .... ....
....|..|C-4 3F6A ....|--- .... ....|D#4 3F.A ....
....|..|R-- .... ....|R-- .... ....|R-- .... ....
 C#4|..|C#2 2AEF ....|C#4 2FAF ....|D#4 3F17 ....
....|..|R-- .... ....|--- .... ....|--- .... ....
....|..|G#1 2FEA ....|--- .... ....|E-4 3F7A ....
....|..|R-- .... ....|--- .... ....|R-- .... ....
....|..|C#4 3F1F ....|--- .... ....|D#4 3F.7 ....
....|..|R-- .... ....|R-- .... ....|R-- .... ....
....|..|C#2 2FEA ....|C#4 2FAA ....|--- .... ....
....|..|R-- .... ....|--- .... ....|--- .... ....
....|..|C#4 3F1F ....|--- .... ....|E-5 UFFF ....
....|..|R-- .... ....|--- .... ....|--- .... ....
....|..|C#4 3F1A ....|--- .... ....|R-- .... ....
....|..|R-- .... ....|R-- .... ....|--- .... ....
 C#4|..|C#2 2AEF ....|C#4 2FA7 ....|E-5 UFFF ....
....|..|R-- .... ....|--- .... ....|--- .... ....
....|..|C#4 3F1A ....|--- .... ....|R-- .... ....
....|..|R-- .... ....|R-- .... ....|R-- .... ....

[Pattern3]
 A-3|..|A-1 2AEF ....|C#4 2F1F ....|E-5 UFFF ....
....|..|R-- .... ....|--- .... ....|--- .... ....
....|..|C#2 2FEA ....|--- .... ....|--- .... ....
....|..|R-- .... ....|--- .... ....|R-- .... ....
....|..|A-3 3F4F ....|--- .... ....|E-5 UFFF ....
....|..|R-- .... ....|R-- .... ....|R-- .... ....
....|..|A-1 2FEA ....|C#4 2F1A ....|A-4 3F.A ....
....|..|R-- .... ....|--- .... ....|--- .... ....
....|..|A-3 3F4F ....|--- .... ....|E-5 UFFA ....
....|..|R-- .... ....|--- .... ....|R-- .... ....
....|..|A-3 3F4A ....|--- .... ....|R-- .... ....
....|..|R-- .... ....|R-- .... ....|R-- .... ....
 A-3|..|A-1 2AEF ....|C#4 2F17 ....|D#5 UFFF ....
....|..|R-- .... ....|--- .... ....|--- .... ....
....|..|A-3 3F4A ....|--- .... ....|--- .... ....
....|..|R-- .... ....|R-- .... ....|R-- .... ....
 G#3|..|G#1 2AEF ....|C#4 2F3F ....|E-5 UFF7 ....
....|..|R-- .... ....|--- .... ....|--- .... ....
....|..|A-1 2FEA ....|--- .... ....|R-- .... ....
....|..|R-- .... ....|--- .... ....|--- .... ....
....|..|C#4 3F5F ....|--- .... ....|E-5 UFF7 ....
....|..|R-- .... ....|R-- .... ....|R-- .... ....
....|..|G#1 2FEA ....|C#4 2F3A ....|R-- .... ....
....|..|R-- .... ....|--- .... ....|--- .... ....
....|..|C#4 3F5F ....|--- .... ....|D#4 3F1F ....
....|..|R-- .... ....|--- .... ....|--- .... ....
....|..|C#4 3F5A ....|--- .... ....|R-- .... ....
....|..|R-- .... ....|R-- .... ....|R-- .... ....
 G#3|..|G#1 2AEF ....|C#4 2F37 ....|D#4 3F1F ....
....|..|R-- .... ....|--- .... ....|--- .... ....
....|..|C#4 3F5A ....|--- .... ....|D#4 3F1A ....
....|..|R-- .... ....|--- .... ....|--- .... ....
 G#3|..|G#1 2AEF ....|--- .... ....|D#4 3F1F ....
....|..|R-- .... ....|--- .... ....|--- .... ....
....|..|G#1 2FEA ....|--- .... ....|D#4 3F1A ....
....|..|R-- .... ....|--- .... ....|--- .... ....
....|..|C#4 3F5F ....|--- .... ....|D#4 3F1F ....
....|..|R-- .... ....|--- .... ....|--- .... ....
....|..|G#1 2FEA ....|--- .... ....|D#4 3F1A ....
....|..|R-- .... ....|--- .... ....|--- .... ....
....|..|C#4 3F5F ....|--- .... ....|F#4 3F.F ....
....|..|R-- .... ....|--- .... ....|R-- .... ....
....|..|C#4 3F5A ....|--- .... ....|D#4 3F1A ....
....|..|R-- .... ....|--- .... ....|--- .... ....
 G#3|..|G#1 2AEF ....|--- .... ....|C-4 3F1F ....
....|..|R-- .... ....|--- .... ....|--- .... ....
....|..|C#4 3F5A ....|--- .... ....|F#4 3F.A ....
....|..|R-- .... ....|R-- .... ....|R-- .... ....
 G#3|..|G#1 2AEF ....|C-4 2F1F ....|D#4 3F17 ....
....|..|R-- .... ....|--- .... ....|--- .... ....
....|..|G#1 2FEA ....|--- .... ....|C-4 3F1A ....
....|..|R-- .... ....|--- .... ....|--- .... ....
....|..|C-4 3F6F ....|--- .... ....|F#4 3F.7 ....
....|..|R-- .... ....|R-- .... ....|R-- .... ....
....|..|G#1 2FEA ....|C-4 2F1A ....|--- .... ....
....|..|R-- .... ....|--- .... ....|--- .... ....
....|..|C-4 3F6F ....|--- .... ....|C-4 3F17 ....
....|..|R-- .... ....|--- .... ....|--- .... ....
....|..|C-4 3F6A ....|--- .... ....|R-- .... ....
....|..|R-- .... ....|R-- .... ....|--- .... ....
 G#3|..|G#1 2AEF ....|C-4 2F17 ....|--- .... ....
....|..|R-- .... ....|--- .... ....|--- .... ....
....|..|C-4 3F6A ....|--- .... ....|--- .... ....
....|..|R-- .... ....|--- .... ....|--- .... ....

[Pattern4]
 C-4|..|C-2 2AEF ....|--- .... ....|G#4 UFFF ....
....|..|R-- .... ....|--- .... ....|--- .... ....
....|..|G#1 2FEA ....|--- .... ....|--- .... ....
....|..|R-- .... ....|--- .... ....|R-- .... ....
 D#4|..|D#2 2AEF ....|--- .... ....|G#4 UFFF ....
....|..|R-- .... ....|--- .... ....|--- .... ....
....|..|C-2 2FEA ....|--- .... ....|--- .... ....
....|..|R-- .... ....|--- .... ....|R-- .... ....
 F#4|..|F#2 2AEF ....|--- .... ....|B-4 UFFF ....
....|..|R-- .... ....|--- .... ....|--- .... ....
....|..|D#2 2FEA ....|--- .... ....|--- .... ....
....|..|R-- .... ....|--- .... ....|--- .... ....
 C-4|..|C-2 2AEF ....|--- .... ....|G#4 UFFF ....
....|..|R-- .... ....|--- .... ....|--- .... ....
....|..|F#2 2FEA ....|--- .... ....|R-- .... ....
....|..|R-- .... ....|R-- .... ....|R-- .... ....
 C#4|..|C#2 2AEF ....|C#4 2FAF ....|E-5 UFFF ....
....|..|R-- .... ....|--- .... ....|--- .... ....
....|..|C-2 2FEA ....|--- .... ....|--- .... ....
....|..|R-- .... ....|--- .... ....|R-- .... ....
....|..|C#4 3F1F ....|--- .... ....|C#5 UFFF ....
....|..|R-- .... ....|R-- .... ....|R-- .... ....
....|..|C#2 2FEA ....|C#4 2FAA ....|E-4 3F7A ....
....|..|R-- .... ....|--- .... ....|--- .... ....
....|..|C#4 3F1F ....|--- .... ....|E-4 3F7F ....
....|..|R-- .... ....|--- .... ....|--- .... ....
....|..|C#4 3F1A ....|--- .... ....|R-- .... ....
....|..|R-- .... ....|R-- .... ....|R-- .... ....
 C#4|..|C#2 2AEF ....|C#4 2FA7 ....|G#4 UFF7 ....
....|..|R-- .... ....|--- .... ....|E-4 3F7F ....
....|..|C#4 3F1A ....|--- .... ....|E-4 3F7A ....
....|..|R-- .... ....|R-- .... ....|R-- .... ....
 B-3|..|B-1 2AEF ....|B-3 2F4F ....|D#4 3F1F ....
....|..|R-- .... ....|--- .... ....|--- .... ....
....|..|C#2 2FEA ....|--- .... ....|--- .... ....
....|..|R-- .... ....|--- .... ....|E-4 3F7A ....
....|..|B-3 3F4F ....|--- .... ....|D#4 3F1F ....
....|..|R-- .... ....|R-- .... ....|R-- .... ....
....|..|B-1 2FEA ....|B-3 2F4A ....|D#4 3F1A ....
....|..|R-- .... ....|--- .... ....|--- .... ....
....|..|B-3 3F4F ....|--- .... ....|E-5 UFF7 ....
....|..|R-- .... ....|--- .... ....|E-4 3F77 ....
....|..|B-3 3F4A ....|--- .... ....|D#4 3F1A ....
....|..|R-- .... ....|R-- .... ....|R-- .... ....
 B-3|..|B-1 2AEF ....|B-3 2F47 ....|C#4 3F1F ....
....|..|R-- .... ....|--- .... ....|--- .... ....
....|..|B-3 3F4A ....|--- .... ....|--- .... ....
....|..|R-- .... ....|R-- .... ....|R-- .... ....
 A-3|..|A-1 2AEF ....|C#4 2F1F ....|D#4 3F17 ....
....|..|R-- .... ....|--- .... ....|--- .... ....
....|..|B-1 2FEA ....|--- .... ....|C#4 3F1A ....
....|..|R-- .... ....|--- .... ....|--- .... ....
....|..|A-3 3F4F ....|--- .... ....|--- .... ....
....|..|R-- .... ....|R-- .... ....|R-- .... ....
....|..|A-1 2FEA ....|C#4 2F1A ....|--- .... ....
....|..|R-- .... ....|--- .... ....|--- .... ....
....|..|A-3 3F4F ....|--- .... ....|C#5 UFFF ....
....|..|R-- .... ....|--- .... ....|--- .... ....
....|..|A-3 3F4A ....|--- .... ....|R-- .... ....
....|..|R-- .... ....|R-- .... ....|--- .... ....
 A-3|..|A-1 2AEF ....|C#4 2F17 ....|D#5 UFFF ....
....|..|R-- .... ....|--- .... ....|--- .... ....
....|..|A-3 3F4A ....|--- .... ....|--- .... ....
....|..|R-- .... ....|R-- .... ....|R-- .... ....

[Pattern5]
 B-3|..|B-1 2AEF ....|B-3 2F4F ....|C#5 UFFF ....
....|..|R-- .... ....|--- .... ....|--- .... ....
....|..|A-1 2FEA ....|--- .... ....|--- .... ....
....|..|R-- .... ....|--- .... ....|R-- .... ....
....|..|B-3 3F4F ....|--- .... ....|B-4 UFFF ....
....|..|R-- .... ....|R-- .... ....|R-- .... ....
....|..|B-1 2FEA ....|B-3 2F4A ....|D#4 3F1A ....
....|..|R-- .... ....|--- .... ....|--- .... ....
....|..|B-3 3F4F ....|--- .... ....|B-4 UFFF ....
....|..|R-- .... ....|--- .... ....|--- .... ....
....|..|B-3 3F4A ....|--- .... ....|--- .... ....
....|..|R-- .... ....|R-- .... ....|R-- .... ....
 B-3|..|B-1 2AEF ....|B-3 2F47 ....|G#4 UFFF ....
....|..|R-- .... ....|--- .... ....|--- .... ....
....|..|B-3 3F4A ....|--- .... ....|--- .... ....
....|..|R-- .... ....|R-- .... ....|R-- .... ....
 G#3|..|G#1 2AEF ....|C#4 2F3F ....|C#5 UFF7 ....
....|..|R-- .... ....|--- .... ....|R-- .... ....
....|..|B-1 2FEA ....|--- .... ....|R-- .... ....
....|..|R-- .... ....|--- .... ....|--- .... ....
....|..|C#4 3F5F ....|--- .... ....|D#5 UFF7 ....
....|..|R-- .... ....|R-- .... ....|--- .... ....
....|..|G#1 2FEA ....|C#4 2F3A ....|--- .... ....
....|..|R-- .... ....|--- .... ....|R-- .... ....
....|..|C#4 3F5F ....|--- .... ....|D#4 3F1F ....
....|..|R-- .... ....|--- .... ....|--- .... ....
....|..|C#4 3F5A ....|--- .... ....|R-- .... ....
....|..|R-- .... ....|R-- .... ....|R-- .... ....
 G#3|..|G#1 2AEF ....|C#4 2F37 ....|D#4 3F1F ....
....|..|R-- .... ....|--- .... ....|--- .... ....
....|..|C#4 3F5A ....|--- .... ....|D#4 3F1A ....
....|..|R-- .... ....|--- .... ....|--- .... ....
 G#3|..|G#1 2AEF ....|--- .... ....|D#4 3F1F ....
....|..|R-- .... ....|--- .... ....|--- .... ....
....|..|G#1 2FEA ....|--- .... ....|D#4 3F1A ....
....|..|R-- .... ....|--- .... ....|R-- .... ....
....|..|C#4 3F5F ....|--- .... ....|D#4 3F1F ....
....|..|R-- .... ....|--- .... ....|--- .... ....
....|..|G#1 2FEA ....|--- .... ....|D#4 3F1A ....
....|..|R-- .... ....|--- .... ....|--- .... ....
....|..|C#4 3F5F ....|--- .... ....|D#4 3F1F ....
....|..|R-- .... ....|--- .... ....|--- .... ....
....|..|C#4 3F5A ....|--- .... ....|D#4 3F1A ....
....|..|R-- .... ....|--- .... ....|--- .... ....
 G#3|..|G#1 2AEF ....|--- .... ....|C-4 3F1F ....
....|..|R-- .... ....|--- .... ....|--- .... ....
....|..|C#4 3F5A ....|--- .... ....|D#4 3F1A ....
....|..|R-- .... ....|R-- .... ....|R-- .... ....
 G#3|..|G#1 2AEF ....|C-4 2F1F ....|D#4 3F17 ....
....|..|R-- .... ....|--- .... ....|--- .... ....
....|..|G#1 2FEA ....|--- .... ....|C-4 3F1A ....
....|..|R-- .... ....|--- .... ....|--- .... ....
....|..|C-4 3F6F ....|--- .... ....|D#4 3F17 ....
....|..|R-- .... ....|R-- .... ....|--- .... ....
....|..|G#1 2FEA ....|C-4 2F1A ....|R-- .... ....
....|..|R-- .... ....|--- .... ....|--- .... ....
....|..|C-4 3F6F ....|--- .... ....|C-4 3F17 ....
....|..|R-- .... ....|--- .... ....|--- .... ....
....|..|C-4 3F6A ....|--- .... ....|--- .... ....
....|..|R-- .... ....|R-- .... ....|R-- .... ....
 G#3|..|G#1 2AEF ....|C-4 2F17 ....|--- .... ....
....|..|R-- .... ....|--- .... ....|--- .... ....
....|..|C-4 3F6A ....|--- .... ....|--- .... ....
....|..|R-- .... ....|--- .... ....|--- .... ....

[Pattern6]
 G#3|..|G#1 2AEF ....|--- .... ....|G#5 UFFF ....
....|..|R-- .... ....|--- .... ....|--- .... ....
....|..|G#1 2FEA ....|--- .... ....|--- .... ....
....|..|R-- .... ....|--- .... ....|R-- .... ....
 C-4|..|C-2 2AEF ....|--- .... ....|F#5 UFFF ....
....|..|R-- .... ....|--- .... ....|--- .... ....
....|..|G#1 2FEA ....|--- .... ....|--- .... ....
....|..|R-- .... ....|--- .... ....|R-- .... ....
 D#4|..|D#2 2AEF ....|--- .... ....|E-5 UFFF ....
....|..|R-- .... ....|--- .... ....|--- .... ....
....|..|C-2 2FEA ....|--- .... ....|--- .... ....
....|..|R-- .... ....|--- .... ....|R-- .... ....
 F#4|..|F#2 2AEF ....|--- .... ....|D#5 UFFF ....
....|..|R-- .... ....|--- .... ....|--- .... ....
....|..|D#2 2FEA ....|--- .... ....|--- .... ....
....|..|R-- .... ....|R-- .... ....|R-- .... ....
 C#4|..|C#2 2AEF ....|C#4 2FAF ....|E-5 UFFF ....
....|..|R-- .... ....|--- .... ....|--- .... ....
....|..|F#2 2FEA ....|--- .... ....|--- .... ....
....|..|R-- .... ....|--- .... ....|--- .... ....
 C#4|..|C#2 2AEF ....|--- .... ....|E-5 UFFF ....
....|..|R-- .... ....|R-- .... ....|C#5 UFFF ....
....|..|C#2 2FEA ....|C#4 2FAA ....|E-4 3F7A ....
....|..|R-- .... ....|--- .... ....|R-- .... ....
 C#4|..|C#2 2AEF ....|--- .... ....|E-4 3F7F ....
....|..|R-- .... ....|--- .... ....|--- .... ....
....|..|C#2 2FEA ....|--- .... ....|--- .... ....
....|..|R-- .... ....|R-- .... ....|R-- .... ....
 C#4|..|C#2 2AEF ....|C#4 2FA7 ....|F#5 UFF7 ....
....|..|R-- .... ....|--- .... ....|E-4 3F7F ....
....|..|C#2 2FEA ....|--- .... ....|E-4 3F7A ....
....|..|R-- .... ....|--- .... ....|R-- .... ....
 B-3|..|B-1 2AEF ....|B-3 2F4F ....|D#4 3F1F ....
....|..|R-- .... ....|--- .... ....|C#5 UFFA ....
....|..|C#2 2FEA ....|--- .... ....|--- .... ....
....|..|R-- .... ....|--- .... ....|E-4 3F7A ....
 B-3|..|B-1 2AEF ....|--- .... ....|D#5 UFF7 ....
....|..|R-- .... ....|--- .... ....|D#4 3F.F ....
....|..|B-1 2FEA ....|B-3 2F4A ....|D#4 3F1A ....
....|..|R-- .... ....|--- .... ....|--- .... ....
 B-3|..|B-1 2AEF ....|--- .... ....|D#4 3F1F ....
....|..|R-- .... ....|--- .... ....|E-4 3F77 ....
....|..|B-1 2FEA ....|--- .... ....|R-- .... ....
....|..|R-- .... ....|--- .... ....|D#4 3F.A ....
 B-3|..|B-1 2AEF ....|B-3 2F47 ....|C#4 3F1F ....
....|..|R-- .... ....|--- .... ....|C#5 UFF7 ....
....|..|B-1 2FEA ....|--- .... ....|D#4 3F1A ....
....|..|R-- .... ....|R-- .... ....|--- .... ....
 A-3|..|A-1 2AEF ....|C#4 2F1F ....|R-- .... ....
....|..|R-- .... ....|--- .... ....|D#4 3F.7 ....
....|..|B-1 2FEA ....|--- .... ....|C#4 3F1A ....
....|..|R-- .... ....|--- .... ....|--- .... ....
 A-3|..|A-1 2AEF ....|--- .... ....|C#4 3F1F ....
....|..|R-- .... ....|R-- .... ....|R-- .... ....
....|..|A-1 2FEA ....|C#4 2F1A ....|R-- .... ....
....|..|R-- .... ....|--- .... ....|--- .... ....
 A-3|..|A-1 2AEF ....|--- .... ....|C#4 3F1F ....
....|..|R-- .... ....|--- .... ....|C#4 3F1F ....
....|..|A-1 2FEA ....|--- .... ....|C#4 3F1A ....
....|..|R-- .... ....|R-- .... ....|--- .... ....
 A-3|..|A-1 2AEF ....|C#4 2F17 ....|E-5 UFFF ....
....|..|R-- .... ....|--- .... ....|C#4 3F1F ....
....|..|A-1 2FEA ....|--- .... ....|C#4 3F1F ....
....|..|R-- .... ....|R-- .... ....|C#4 3F1A ....

[Pattern7]
 B-3|..|B-1 2AEF ....|B-3 2F4F ....|F#5 UFFF ....
....|..|R-- .... ....|--- .... ....|R-- .... ....
....|..|A-1 2FEA ....|--- .... ....|C#4 3F1A ....
....|..|R-- .... ....|--- .... ....|C#4 3F1A ....
 B-3|..|B-1 2AEF ....|--- .... ....|E-5 UFFF ....
....|..|R-- .... ....|R-- .... ....|E-4 3F.F ....
....|..|B-1 2FEA ....|B-3 2F4A ....|D#4 3F1A ....
....|..|R-- .... ....|--- .... ....|R-- .... ....
 B-3|..|B-1 2AEF ....|--- .... ....|F#5 UFFF ....
....|..|R-- .... ....|--- .... ....|C#4 3F17 ....
....|..|B-1 2FEA ....|--- .... ....|C#4 3F17 ....
....|..|R-- .... ....|R-- .... ....|E-4 3F.A ....
 B-3|..|B-1 2AEF ....|B-3 2F47 ....|E-5 UFFF ....
....|..|R-- .... ....|--- .... ....|F#4 3F.F ....
....|..|B-1 2FEA ....|--- .... ....|D#4 3F1A ....
....|..|R-- .... ....|R-- .... ....|R-- .... ....
 G#3|..|G#1 2AEF ....|C#4 2F3F ....|D#5 UFFF ....
....|..|R-- .... ....|--- .... ....|E-4 3F.7 ....
....|..|B-1 2FEA ....|--- .... ....|D#4 3F1A ....
....|..|R-- .... ....|--- .... ....|F#4 3F.A ....
 G#3|..|G#1 2AEF ....|--- .... ....|E-5 UFF7 ....
....|..|R-- .... ....|R-- .... ....|--- .... ....
....|..|G#1 2FEA ....|C#4 2F3A ....|G#4 3F.A ....
....|..|R-- .... ....|--- .... ....|R-- .... ....
 G#3|..|G#1 2AEF ....|--- .... ....|F#5 UFF7 ....
....|..|R-- .... ....|--- .... ....|F#4 3F.7 ....
....|..|G#1 2FEA ....|--- .... ....|R-- .... ....
....|..|R-- .... ....|R-- .... ....|R-- .... ....
 G#3|..|G#1 2AEF ....|C#4 2F37 ....|E-5 UFF7 ....
....|..|R-- .... ....|--- .... ....|--- .... ....
....|..|G#1 2FEA ....|--- .... ....|R-- .... ....
....|..|R-- .... ....|--- .... ....|--- .... ....
 G#3|..|G#1 2AEF ....|--- .... ....|F#5 UFF7 ....
....|..|R-- .... ....|--- .... ....|--- .... ....
....|..|G#1 2FEA ....|--- .... ....|--- .... ....
....|..|R-- .... ....|--- .... ....|R-- .... ....
 G#3|..|G#1 2AEF ....|--- .... ....|E-5 UFF7 ....
....|..|R-- .... ....|--- .... ....|--- .... ....
....|..|G#1 2FEA ....|--- .... ....|R-- .... ....
....|..|R-- .... ....|--- .... ....|--- .... ....
 G#3|..|G#1 2AEF ....|--- .... ....|D#5 UFF7 ....
....|..|R-- .... ....|--- .... ....|--- .... ....
....|..|G#1 2FEA ....|--- .... ....|--- .... ....
....|..|R-- .... ....|--- .... ....|--- .... ....
 G#3|..|G#1 2AEF ....|--- .... ....|--- .... ....
....|..|R-- .... ....|--- .... ....|--- .... ....
....|..|G#1 2FEA ....|--- .... ....|--- .... ....
....|..|R-- .... ....|R-- .... ....|R-- .... ....
 G#3|..|G#1 2AEF ....|C-4 2F1F ....|--- .... ....
....|..|R-- .... ....|--- .... ....|--- .... ....
....|..|G#1 2FEA ....|--- .... ....|--- .... ....
....|..|R-- .... ....|--- .... ....|--- .... ....
 G#3|..|G#1 2AEF ....|--- .... ....|--- .... ....
....|..|R-- .... ....|R-- .... ....|R-- .... ....
....|..|G#1 2FEA ....|C-4 2F1A ....|--- .... ....
....|..|R-- .... ....|--- .... ....|R-- .... ....
 G#3|..|G#1 2AEF ....|--- .... ....|--- .... ....
....|..|R-- .... ....|--- .... ....|--- .... ....
....|..|G#1 2FEA ....|--- .... ....|--- .... ....
....|..|R-- .... ....|R-- .... ....|R-- .... ....
 G#3|..|G#1 2AEF ....|C-4 2F17 ....|--- .... ....
....|..|R-- .... ....|--- .... ....|--- .... ....
....|..|G#1 2FEA ....|--- .... ....|--- .... ....
....|..|R-- .... ....|--- .... ....|--- .... ....

[Pattern8]
 C-4|..|C-2 2AEF ....|--- .... ....|C#5 UFFF ....
....|..|R-- .... ....|--- .... ....|--- .... ....
....|..|G#1 2FEA ....|--- .... ....|--- .... ....
....|..|R-- .... ....|--- .... ....|R-- .... ....
 D#4|..|D#2 2AEF ....|--- .... ....|D#5 UFFF ....
....|..|R-- .... ....|--- .... ....|--- .... ....
....|..|C-2 2FEA ....|--- .... ....|R-- .... ....
....|..|R-- .... ....|--- .... ....|--- .... ....
 F#4|..|F#2 2AEF ....|--- .... ....|C#5 UFFF ....
....|..|R-- .... ....|--- .... ....|--- .... ....
....|..|D#2 2FEA ....|--- .... ....|--- .... ....
....|..|R-- .... ....|--- .... ....|R-- .... ....
 C-4|..|C-2 2AEF ....|--- .... ....|B-4 UFFF ....
....|..|R-- .... ....|--- .... ....|--- .... ....
....|..|F#2 2FEA ....|--- .... ....|R-- .... ....
....|..|R-- .... ....|R-- .... ....|C#5 UFFF ....
 C#4|..|C#2 2AEF ....|C#4 2FAF ....|D#5 UFFA ....
....|..|R-- .... ....|--- .... ....|--- .... ....
....|..|C-2 2FEA ....|--- .... ....|R-- .... ....
....|..|R-- .... ....|--- .... ....|--- .... ....
....|..|C#4 3F1F ....|--- .... ....|C#5 UFFA ....
....|..|R-- .... ....|R-- .... ....|--- .... ....
....|..|C#2 2FEA ....|C#4 2FAA ....|--- .... ....
....|..|R-- .... ....|--- .... ....|R-- .... ....
....|..|C#4 3F1F ....|--- .... ....|C#5 UFF7 ....
....|..|R-- .... ....|--- .... ....|--- .... ....
....|..|C#4 3F1A ....|--- .... ....|R-- .... ....
....|..|R-- .... ....|R-- .... ....|C#5 UFFA ....
 C#4|..|C#2 2AEF ....|C#4 2FA7 ....|D#5 UFF7 ....
....|..|R-- .... ....|--- .... ....|R-- .... ....
....|..|C#4 3F1A ....|--- .... ....|R-- .... ....
....|..|R-- .... ....|R-- .... ....|--- .... ....
 B-3|..|B-1 2AEF ....|B-3 2F4F ....|C#5 UFF7 ....
....|..|R-- .... ....|--- .... ....|--- .... ....
....|..|C#2 2FEA ....|--- .... ....|--- .... ....
....|..|R-- .... ....|--- .... ....|R-- .... ....
....|..|B-3 3F4F ....|--- .... ....|B-4 UFF7 ....
....|..|R-- .... ....|R-- .... ....|--- .... ....
....|..|B-1 2FEA ....|B-3 2F4A ....|R-- .... ....
....|..|R-- .... ....|--- .... ....|C#5 UFF7 ....
....|..|B-3 3F4F ....|--- .... ....|--- .... ....
....|..|R-- .... ....|--- .... ....|R-- .... ....
....|..|B-3 3F4A ....|--- .... ....|--- .... ....
....|..|R-- .... ....|R-- .... ....|--- .... ....
 B-3|..|B-1 2AEF ....|B-3 2F47 ....|--- .... ....
....|..|R-- .... ....|--- .... ....|--- .... ....
....|..|B-3 3F4A ....|--- .... ....|--- .... ....
....|..|R-- .... ....|R-- .... ....|--- .... ....
 A-3|..|A-1 2AEF ....|C#4 2F1F ....|--- .... ....
....|..|R-- .... ....|--- .... ....|--- .... ....
....|..|B-1 2FEA ....|--- .... ....|--- .... ....
....|..|R-- .... ....|--- .... ....|--- .... ....
....|..|A-3 3F4F ....|--- .... ....|C#5 UFFF ....
....|..|R-- .... ....|R-- .... ....|R-- .... ....
....|..|A-1 2FEA ....|C#4 2F1A ....|R-- .... ....
....|..|R-- .... ....|--- .... ....|--- .... ....
....|..|A-3 3F4F ....|--- .... ....|C#5 UFFF ....
....|..|R-- .... ....|--- .... ....|--- .... ....
....|..|A-3 3F4A ....|--- .... ....|--- .... ....
....|..|R-- .... ....|R-- .... ....|R-- .... ....
 A-3|..|A-1 2AEF ....|C#4 2F17 ....|D#5 UFFF ....
....|..|R-- .... ....|--- .... ....|--- .... ....
....|..|A-3 3F4A ....|--- .... ....|R-- .... ....
....|..|R-- .... ....|R-- .... ....|--- .... ....

[Pattern9]
 B-3|..|B-1 2AEF ....|B-3 2F4F ....|C#5 UFFF ....
....|..|R-- .... ....|--- .... ....|--- .... ....
....|..|A-1 2FEA ....|--- .... ....|R-- .... ....
....|..|R-- .... ....|--- .... ....|--- .... ....
....|..|B-3 3F4F ....|--- .... ....|C#5 UFFA ....
....|..|R-- .... ....|R-- .... ....|R-- .... ....
....|..|B-1 2FEA ....|B-3 2F4A ....|--- .... ....
....|..|R-- .... ....|--- .... ....|R-- .... ....
....|..|B-3 3F4F ....|--- .... ....|B-4 UFFF ....
....|..|R-- .... ....|--- .... ....|--- .... ....
....|..|B-3 3F4A ....|--- .... ....|R-- .... ....
....|..|R-- .... ....|R-- .... ....|--- .... ....
 B-3|..|B-1 2AEF ....|B-3 2F47 ....|G#4 UFFF ....
....|..|R-- .... ....|--- .... ....|--- .... ....
....|..|B-3 3F4A ....|--- .... ....|R-- .... ....
....|..|R-- .... ....|R-- .... ....|--- .... ....
 G#3|..|G#1 2AEF ....|C#4 2F3F ....|C#5 UFF7 ....
....|..|R-- .... ....|--- .... ....|R-- .... ....
....|..|B-1 2FEA ....|--- .... ....|--- .... ....
....|..|R-- .... ....|--- .... ....|R-- .... ....
....|..|C#4 3F5F ....|--- .... ....|D#5 UFF7 ....
....|..|R-- .... ....|R-- .... ....|--- .... ....
....|..|G#1 2FEA ....|C#4 2F3A ....|R-- .... ....
....|..|R-- .... ....|--- .... ....|--- .... ....
....|..|C#4 3F5F ....|--- .... ....|C#5 UFF7 ....
....|..|R-- .... ....|--- .... ....|--- .... ....
....|..|C#4 3F5A ....|--- .... ....|--- .... ....
....|..|R-- .... ....|R-- .... ....|--- .... ....
 G#3|..|G#1 2AEF ....|C#4 2F37 ....|--- .... ....
....|..|R-- .... ....|--- .... ....|R-- .... ....
....|..|C#4 3F5A ....|--- .... ....|--- .... ....
....|..|R-- .... ....|--- .... ....|--- .... ....
 G#3|..|G#1 2AEF ....|--- .... ....|B-4 UFF7 ....
....|..|R-- .... ....|--- .... ....|--- .... ....
....|..|G#1 2FEA ....|--- .... ....|R-- .... ....
....|..|R-- .... ....|--- .... ....|--- .... ....
 G#3|..|G#1 2AEF ....|--- .... ....|G#4 UFF7 ....
....|..|R-- .... ....|--- .... ....|--- .... ....
....|..|G#1 2FEA ....|--- .... ....|--- .... ....
....|..|R-- .... ....|--- .... ....|--- .... ....
....|..|C#4 3F5F ....|--- .... ....|--- .... ....
....|..|R-- .... ....|--- .... ....|--- .... ....
....|..|G#1 2FEA ....|--- .... ....|--- .... ....
....|..|R-- .... ....|--- .... ....|--- .... ....
 G#3|..|G#1 2AEF ....|--- .... ....|--- .... ....
....|..|R-- .... ....|--- .... ....|--- .... ....
....|..|C#4 3F5A ....|--- .... ....|--- .... ....
....|..|R-- .... ....|R-- .... ....|R-- .... ....
 G#3|..|G#1 2AEF ....|C-4 2F1F ....|--- .... ....
....|..|R-- .... ....|--- .... ....|--- .... ....
....|..|G#1 2FEA ....|--- .... ....|--- .... ....
....|..|R-- .... ....|--- .... ....|--- .... ....
....|..|C-4 3F6F ....|--- .... ....|G#5 UFFF ....
....|..|R-- .... ....|R-- .... ....|--- .... ....
....|..|G#1 2FEA ....|C-4 2F1A ....|--- .... ....
....|..|R-- .... ....|--- .... ....|--- .... ....
....|..|C-4 3F6F ....|--- .... ....|--- .... ....
....|..|R-- .... ....|--- .... ....|--- .... ....
....|..|C-4 3F6A ....|--- .... ....|--- .... ....
....|..|R-- .... ....|R-- .... ....|R-- .... ....
 G#3|..|G#1 2AEF ....|C-4 2F17 ....|G#5 UFFF ....
....|..|R-- .... ....|--- .... ....|R-- .... ....
....|..|C-4 3F6A ....|--- .... ....|--- .... ....
....|..|R-- .... ....|R-- .... ....|--- .... ....

[Pattern10]
 A-3|..|A-1 2AEF ....|C#4 2F1F ....|G#5 UFFF ....
....|..|R-- .... ....|--- .... ....|--- .... ....
....|..|G#1 2FEA ....|--- .... ....|--- .... ....
....|..|R-- .... ....|--- .... ....|--- .... ....
....|..|A-3 3F4F ....|--- .... ....|R-- .... ....
....|..|R-- .... ....|R-- .... ....|F#5 UFFF ....
....|..|A-1 2FEA ....|C#4 2F1A ....|--- .... ....
....|..|R-- .... ....|--- .... ....|R-- .... ....
....|..|A-3 3F4F ....|--- .... ....|G#5 UFFA ....
....|..|R-- .... ....|--- .... ....|E-5 UFFF ....
....|..|A-3 3F4A ....|--- .... ....|--- .... ....
....|..|R-- .... ....|R-- .... ....|--- .... ....
 A-3|..|A-1 2AEF ....|C#4 2F17 ....|C#5 UFFF ....
....|..|R-- .... ....|--- .... ....|--- .... ....
....|..|A-3 3F4A ....|--- .... ....|--- .... ....
....|..|R-- .... ....|R-- .... ....|--- .... ....
 E-4|..|E-2 2AEF ....|E-4 2F7F ....|E-5 UFFF ....
....|..|R-- .... ....|--- .... ....|F#5 UFFA ....
....|..|A-1 2FEA ....|--- .... ....|--- .... ....
....|..|R-- .... ....|--- .... ....|R-- .... ....
....|..|G#3 3F1F ....|--- .... ....|G#5 UFF7 ....
....|..|R-- .... ....|R-- .... ....|E-5 UFFA ....
....|..|E-2 2FEA ....|E-4 2F7A ....|E-4 3F7A ....
....|..|R-- .... ....|--- .... ....|--- .... ....
....|..|G#3 3F1F ....|--- .... ....|E-4 3F7F ....
....|..|R-- .... ....|--- .... ....|--- .... ....
....|..|G#3 3F1A ....|--- .... ....|--- .... ....
....|..|R-- .... ....|R-- .... ....|--- .... ....
 E-4|..|E-2 2AEF ....|E-4 2F77 ....|E-5 UFFA ....
....|..|R-- .... ....|--- .... ....|E-4 3F7F ....
....|..|G#3 3F1A ....|--- .... ....|E-4 3F7A ....
....|..|R-- .... ....|R-- .... ....|R-- .... ....
 G#3|..|G#1 2AEF ....|C-4 2F1F ....|D#4 3F1F ....
....|..|R-- .... ....|--- .... ....|E-5 UFF7 ....
....|..|E-2 2FEA ....|--- .... ....|R-- .... ....
....|..|R-- .... ....|--- .... ....|E-4 3F7A ....
....|..|C-4 3F6F ....|--- .... ....|D#4 3F1F ....
....|..|R-- .... ....|R-- .... ....|R-- .... ....
....|..|G#1 2FEA ....|C-4 2F1A ....|D#4 3F1A ....
....|..|R-- .... ....|--- .... ....|--- .... ....
....|..|C-4 3F6F ....|--- .... ....|R-- .... ....
....|..|R-- .... ....|--- .... ....|E-4 3F77 ....
....|..|C-4 3F6A ....|--- .... ....|D#4 3F1A ....
....|..|R-- .... ....|R-- .... ....|R-- .... ....
 G#3|..|G#1 2AEF ....|C-4 2F17 ....|E-4 3F7F ....
....|..|R-- .... ....|--- .... ....|--- .... ....
....|..|C-4 3F6A ....|--- .... ....|R-- .... ....
....|..|R-- .... ....|R-- .... ....|R-- .... ....
 C#4|..|C#2 2AEF ....|C#4 2FAF ....|D#4 3F17 ....
....|..|R-- .... ....|--- .... ....|--- .... ....
....|..|G#1 2FEA ....|--- .... ....|E-4 3F7A ....
....|..|R-- .... ....|--- .... ....|--- .... ....
....|..|C#4 3F1F ....|--- .... ....|E-5 UFFF ....
....|..|R-- .... ....|R-- .... ....|R-- .... ....
....|..|C#2 2FEA ....|C#4 2FAA ....|R-- .... ....
....|..|R-- .... ....|--- .... ....|--- .... ....
....|..|C#4 3F1F ....|--- .... ....|E-5 UFFF ....
....|..|R-- .... ....|--- .... ....|--- .... ....
....|..|C#4 3F1A ....|--- .... ....|--- .... ....
....|..|R-- .... ....|R-- .... ....|R-- .... ....
 C#4|..|C#2 2AEF ....|C#4 2FA7 ....|C#5 UFFF ....
....|..|R-- .... ....|--- .... ....|R-- .... ....
....|..|C#4 3F1A ....|--- .... ....|--- .... ....
....|..|R-- .... ....|R-- .... ....|R-- .... ....

[Pattern11]
 A-3|..|A-1 2AEF ....|C#4 2F1F ....|E-5 UFFF ....
....|..|R-- .... ....|--- .... ....|--- .... ....
....|..|C#2 2FEA ....|--- .... ....|R-- .... ....
....|..|R-- .... ....|--- .... ....|--- .... ....
....|..|A-3 3F4F ....|--- .... ....|E-5 UFFA ....
....|..|R-- .... ....|R-- .... ....|R-- .... ....
....|..|A-1 2FEA ....|C#4 2F1A ....|A-4 3F.A ....
....|..|R-- .... ....|--- .... ....|R-- .... ....
....|..|A-3 3F4F ....|--- .... ....|C#5 UFFA ....
....|..|R-- .... ....|--- .... ....|C#5 UFFF ....
....|..|A-3 3F4A ....|--- .... ....|R-- .... ....
....|..|R-- .... ....|R-- .... ....|R-- .... ....
 A-3|..|A-1 2AEF ....|C#4 2F17 ....|D#5 UFFF ....
....|..|R-- .... ....|--- .... ....|--- .... ....
....|..|A-3 3F4A ....|--- .... ....|R-- .... ....
....|..|R-- .... ....|R-- .... ....|E-4 3F.A ....
 G#3|..|G#1 2AEF ....|C#4 2F3F ....|R-- .... ....
....|..|R-- .... ....|--- .... ....|--- .... ....
....|..|A-1 2FEA ....|--- .... ....|R-- .... ....
....|..|R-- .... ....|--- .... ....|R-- .... ....
....|..|C#4 3F5F ....|--- .... ....|C#5 UFF7 ....
....|..|R-- .... ....|R-- .... ....|C#5 UFFA ....
....|..|G#1 2FEA ....|C#4 2F3A ....|R-- .... ....
....|..|R-- .... ....|--- .... ....|R-- .... ....
....|..|C#4 3F5F ....|--- .... ....|D#4 3F1F ....
....|..|R-- .... ....|--- .... ....|--- .... ....
....|..|C#4 3F5A ....|--- .... ....|R-- .... ....
....|..|R-- .... ....|R-- .... ....|--- .... ....
 G#3|..|G#1 2AEF ....|C#4 2F37 ....|D#4 3F1F ....
....|..|R-- .... ....|--- .... ....|--- .... ....
....|..|C#4 3F5A ....|--- .... ....|D#4 3F1A ....
....|..|R-- .... ....|--- .... ....|--- .... ....
 G#3|..|G#1 2AEF ....|--- .... ....|D#4 3F1F ....
....|..|R-- .... ....|--- .... ....|C#5 UFF7 ....
....|..|G#1 2FEA ....|--- .... ....|D#4 3F1A ....
....|..|R-- .... ....|--- .... ....|R-- .... ....
 G#3|..|G#1 2AEF ....|--- .... ....|D#5 UFF7 ....
....|..|R-- .... ....|--- .... ....|F#4 3F.F ....
....|..|G#1 2FEA ....|--- .... ....|D#4 3F1A ....
....|..|R-- .... ....|--- .... ....|--- .... ....
....|..|C#4 3F5F ....|--- .... ....|D#4 3F1F ....
....|..|R-- .... ....|--- .... ....|--- .... ....
....|..|G#1 2FEA ....|--- .... ....|R-- .... ....
....|..|R-- .... ....|--- .... ....|F#4 3F.A ....
 G#3|..|G#1 2AEF ....|--- .... ....|C-4 3F1F ....
....|..|R-- .... ....|--- .... ....|R-- .... ....
....|..|C#4 3F5A ....|--- .... ....|D#4 3F1A ....
....|..|R-- .... ....|R-- .... ....|--- .... ....
 G#3|..|G#1 2AEF ....|C-4 2F1F ....|R-- .... ....
....|..|R-- .... ....|--- .... ....|F#4 3F.7 ....
....|..|G#1 2FEA ....|--- .... ....|C-4 3F1A ....
....|..|R-- .... ....|--- .... ....|--- .... ....
....|..|C-4 3F6F ....|--- .... ....|G#5 UFFF ....
....|..|R-- .... ....|R-- .... ....|--- .... ....
....|..|G#1 2FEA ....|C-4 2F1A ....|R-- .... ....
....|..|R-- .... ....|--- .... ....|--- .... ....
....|..|C-4 3F6F ....|--- .... ....|C-4 3F17 ....
....|..|R-- .... ....|--- .... ....|G#5 UFFF ....
....|..|C-4 3F6A ....|--- .... ....|--- .... ....
....|..|R-- .... ....|R-- .... ....|R-- .... ....
 G#3|..|G#1 2AEF ....|C-4 2F17 ....|G#5 UFFF ....
....|..|R-- .... ....|--- .... ....|--- .... ....
....|..|C-4 3F6A ....|--- .... ....|R-- .... ....
....|..|R-- .... ....|--- .... ....|--- .... ....

[Pattern12]
 G#3|..|G#1 2AEF ....|--- .... ....|G#5 UFFF ....
....|..|R-- .... ....|--- .... ....|--- .... ....
....|..|G#1 2FEA ....|--- .... ....|--- .... ....
....|..|R-- .... ....|--- .... ....|--- .... ....
....|..|C-4 3F6F ....|--- .... ....|F#5 UFFF ....
....|..|R-- .... ....|--- .... ....|G#5 UFFA ....
....|..|G#1 2FEA ....|--- .... ....|--- .... ....
....|..|R-- .... ....|--- .... ....|R-- .... ....
....|..|C-4 3F6F ....|--- .... ....|E-5 UFFF ....
....|..|R-- .... ....|--- .... ....|--- .... ....
....|..|C-4 3F6A ....|--- .... ....|R-- .... ....
....|..|--- .... ....|--- .... ....|--- .... ....
 G#3|..|G#1 2AEF ....|--- .... ....|D#5 UFFF ....
....|..|R-- .... ....|--- .... ....|--- .... ....
....|..|C-4 3F6A ....|--- .... ....|--- .... ....
....|..|R-- .... ....|R-- .... ....|R-- .... ....
 C#4|..|C#2 2AEF ....|C#4 2FAF ....|E-5 UFFF ....
....|..|R-- .... ....|--- .... ....|G#5 UFF7 ....
....|..|G#1 2FEA ....|--- .... ....|--- .... ....
....|..|R-- .... ....|--- .... ....|R-- .... ....
....|..|C#4 3F1F ....|--- .... ....|G#5 UFF7 ....
....|..|R-- .... ....|R-- .... ....|R-- .... ....
....|..|C#2 2FEA ....|C#4 2FAA ....|E-4 3F7A ....
....|..|R-- .... ....|--- .... ....|--- .... ....
....|..|C#4 3F1F ....|--- .... ....|E-4 3F7F ....
....|..|R-- .... ....|--- .... ....|--- .... ....
....|..|C#4 3F1A ....|--- .... ....|--- .... ....
....|..|R-- .... ....|R-- .... ....|R-- .... ....
 C#4|..|C#2 2AEF ....|C#4 2FA7 ....|E-4 3F7F ....
....|..|R-- .... ....|--- .... ....|--- .... ....
....|..|C#4 3F1A ....|--- .... ....|E-4 3F7A ....
....|..|R-- .... ....|R-- .... ....|R-- .... ....
 B-3|..|B-1 2AEF ....|B-3 2F4F ....|D#4 3F1F ....
....|..|R-- .... ....|--- .... ....|--- .... ....
....|..|C#2 2FEA ....|--- .... ....|E-4 3F7A ....
....|..|R-- .... ....|--- .... ....|--- .... ....
....|..|B-3 3F4F ....|--- .... ....|D#5 UFF7 ....
....|..|R-- .... ....|R-- .... ....|R-- .... ....
....|..|B-1 2FEA ....|B-3 2F4A ....|D#4 3F1A ....
....|..|R-- .... ....|--- .... ....|R-- .... ....
....|..|B-3 3F4F ....|--- .... ....|D#4 3F1F ....
....|..|R-- .... ....|--- .... ....|--- .... ....
....|..|B-3 3F4A ....|--- .... ....|F#4 3F.F ....
....|..|R-- .... ....|R-- .... ....|R-- .... ....
 B-3|..|B-1 2AEF ....|B-3 2F47 ....|C#4 3F1F ....
....|..|R-- .... ....|--- .... ....|--- .... ....
....|..|B-3 3F4A ....|--- .... ....|D#4 3F1A ....
....|..|R-- .... ....|R-- .... ....|--- .... ....
 A-3|..|A-1 2AEF ....|C#4 2F1F ....|F#4 3F.A ....
....|..|R-- .... ....|--- .... ....|R-- .... ....
....|..|B-1 2FEA ....|--- .... ....|C#4 3F1A ....
....|..|R-- .... ....|--- .... ....|--- .... ....
....|..|A-3 3F4F ....|--- .... ....|C#5 UFFF ....
....|..|R-- .... ....|R-- .... ....|--- .... ....
....|..|A-1 2FEA ....|C#4 2F1A ....|F#4 3F.7 ....
....|..|R-- .... ....|--- .... ....|R-- .... ....
....|..|A-3 3F4F ....|--- .... ....|C#5 UFFF ....
....|..|R-- .... ....|--- .... ....|--- .... ....
....|..|A-3 3F4A ....|--- .... ....|--- .... ....
....|..|R-- .... ....|R-- .... ....|--- .... ....
 A-3|..|A-1 2AEF ....|C#4 2F17 ....|B-4 UFFF ....
....|..|R-- .... ....|--- .... ....|R-- .... ....
....|..|A-3 3F4A ....|--- .... ....|--- .... ....
....|..|R-- .... ....|--- .... ....|E-4 3F.F ....

[Pattern13]
 B-3|..|B-1 2AEF ....|B-3 2F4F ....|C#5 UFFF ....
....|..|R-- .... ....|--- .... ....|--- .... ....
....|..|A-1 2FEA ....|--- .... ....|R-- .... ....
....|..|R-- .... ....|--- .... ....|--- .... ....
....|..|B-3 3F4F ....|--- .... ....|C#5 UFFA ....
....|..|R-- .... ....|--- .... ....|E-4 3F.A ....
....|..|B-1 2FEA ....|B-3 2F4A ....|D#4 3F1A ....
....|..|R-- .... ....|--- .... ....|R-- .... ....
....|..|B-3 3F4F ....|--- .... ....|B-4 UFFF ....
....|..|R-- .... ....|--- .... ....|R-- .... ....
....|..|B-3 3F4A ....|--- .... ....|R-- .... ....
....|..|R-- .... ....|--- .... ....|E-4 3F.7 ....
 B-3|..|B-1 2AEF ....|B-3 2F47 ....|G#4 UFFF ....
....|..|R-- .... ....|--- .... ....|--- .... ....
....|..|B-3 3F4A ....|--- .... ....|R-- .... ....
....|..|R-- .... ....|R-- .... ....|R-- .... ....
 G#3|..|G#1 2AEF ....|C#4 2F3F ....|C#5 UFF7 ....
....|..|R-- .... ....|--- .... ....|--- .... ....
....|..|B-1 2FEA ....|--- .... ....|--- .... ....
....|..|R-- .... ....|--- .... ....|R-- .... ....
....|..|C#4 3F5F ....|--- .... ....|B-4 UFF7 ....
....|..|R-- .... ....|R-- .... ....|R-- .... ....
....|..|G#1 2FEA ....|C#4 2F3A ....|R-- .... ....
....|..|R-- .... ....|--- .... ....|--- .... ....
....|..|C#4 3F5F ....|--- .... ....|C-4 3F1F ....
....|..|R-- .... ....|--- .... ....|--- .... ....
....|..|C#4 3F5A ....|--- .... ....|R-- .... ....
....|..|R-- .... ....|R-- .... ....|--- .... ....
 G#3|..|G#1 2AEF ....|C#4 2F37 ....|C-4 3F1F ....
....|..|R-- .... ....|--- .... ....|--- .... ....
....|..|C#4 3F5A ....|--- .... ....|C-4 3F1A ....
....|..|R-- .... ....|--- .... ....|R-- .... ....
 G#3|..|G#1 2AEF ....|--- .... ....|C-4 3F1F ....
....|..|R-- .... ....|--- .... ....|--- .... ....
....|..|G#1 2FEA ....|--- .... ....|C-4 3F1A ....
....|..|R-- .... ....|--- .... ....|--- .... ....
....|..|C#4 3F5F ....|--- .... ....|G#4 UFF7 ....
....|..|R-- .... ....|--- .... ....|--- .... ....
....|..|G#1 2FEA ....|--- .... ....|C-4 3F1A ....
....|..|R-- .... ....|--- .... ....|--- .... ....
....|..|C#4 3F5F ....|--- .... ....|C-4 3F1F ....
....|..|R-- .... ....|--- .... ....|--- .... ....
....|..|C#4 3F5A ....|--- .... ....|R-- .... ....
....|..|R-- .... ....|--- .... ....|--- .... ....
 G#3|..|G#1 2AEF ....|--- .... ....|C-4 3F1F ....
....|..|R-- .... ....|--- .... ....|--- .... ....
....|..|C#4 3F5A ....|--- .... ....|C-4 3F1A ....
....|..|R-- .... ....|R-- .... ....|R-- .... ....
 G#3|..|G#1 2AEF ....|C-4 2F1F ....|R-- .... ....
....|..|R-- .... ....|--- .... ....|--- .... ....
....|..|G#1 2FEA ....|--- .... ....|C-4 3F1A ....
....|..|R-- .... ....|--- .... ....|--- .... ....
....|..|C-4 3F6F ....|--- .... ....|C-4 3F17 ....
....|..|R-- .... ....|R-- .... ....|--- .... ....
....|..|G#1 2FEA ....|C-4 2F1A ....|R-- .... ....
....|..|R-- .... ....|--- .... ....|--- .... ....
....|..|C-4 3F6F ....|--- .... ....|C-4 3F17 ....
....|..|R-- .... ....|--- .... ....|--- .... ....
....|..|C-4 3F6A ....|--- .... ....|--- .... ....
....|..|R-- .... ....|R-- .... ....|R-- .... ....
 G#3|..|G#1 2AEF ....|C-4 2F17 ....|G#5 UFFF ....
....|..|R-- .... ....|--- .... ....|--- .... ....
....|..|C-4 3F6A ....|--- .... ....|--- .... ....
....|..|R-- .... ....|--- .... ....|--- .... ....

[Pattern14]
 G#3|..|G#1 2AEF ....|--- .... ....|--- .... ....
....|..|R-- .... ....|--- .... ....|--- .... ....
....|..|G#1 2FEA ....|--- .... ....|--- .... ....
....|..|R-- .... ....|--- .... ....|--- .... ....
 C-4|..|C-2 2AEF ....|--- .... ....|F#5 UFFF ....
....|..|R-- .... ....|--- .... ....|--- .... ....
....|..|G#1 2FEA ....|--- .... ....|--- .... ....
....|..|R-- .... ....|--- .... ....|R-- .... ....
 D#4|..|D#2 2AEF ....|--- .... ....|E-5 UFFF ....
....|..|R-- .... ....|--- .... ....|--- .... ....
....|..|C-2 2FEA ....|--- .... ....|--- .... ....
....|..|R-- .... ....|--- .... ....|--- .... ....
 F#4|..|F#2 2AEF ....|--- .... ....|D#5 UFFF ....
....|..|R-- .... ....|--- .... ....|--- .... ....
....|..|D#2 2FEA ....|--- .... ....|--- .... ....
....|..|R-- .... ....|R-- .... ....|R-- .... ....
 C#4|..|C#2 2AEF ....|C#4 2FAF ....|E-5 UFFF ....
....|..|R-- .... ....|--- .... ....|--- .... ....
....|..|F#2 2FEA ....|--- .... ....|--- .... ....
....|..|R-- .... ....|--- .... ....|--- .... ....
 C#4|..|C#2 2AEF ....|--- .... ....|G#5 UFF7 ....
....|..|R-- .... ....|R-- .... ....|R-- .... ....
....|..|C#2 2FEA ....|C#4 2FAA ....|E-4 3F7A ....
....|..|R-- .... ....|--- .... ....|--- .... ....
 C#4|..|C#2 2AEF ....|--- .... ....|E-4 3F7F ....
....|..|R-- .... ....|--- .... ....|--- .... ....
....|..|C#2 2FEA ....|--- .... ....|--- .... ....
....|..|R-- .... ....|R-- .... ....|R-- .... ....
 C#4|..|C#2 2AEF ....|C#4 2FA7 ....|E-4 3F7F ....
....|..|R-- .... ....|--- .... ....|--- .... ....
....|..|C#2 2FEA ....|--- .... ....|E-4 3F7A ....
....|..|R-- .... ....|R-- .... ....|R-- .... ....
 B-3|..|B-1 2AEF ....|B-3 2F4F ....|D#4 3F1F ....
....|..|R-- .... ....|--- .... ....|--- .... ....
....|..|C#2 2FEA ....|--- .... ....|E-4 3F7A ....
....|..|R-- .... ....|--- .... ....|--- .... ....
 B-3|..|B-1 2AEF ....|--- .... ....|D#5 UFF7 ....
....|..|R-- .... ....|R-- .... ....|R-- .... ....
....|..|B-1 2FEA ....|B-3 2F4A ....|D#4 3F1A ....
....|..|R-- .... ....|--- .... ....|--- .... ....
 B-3|..|B-1 2AEF ....|--- .... ....|D#4 3F1F ....
....|..|R-- .... ....|--- .... ....|--- .... ....
....|..|B-1 2FEA ....|--- .... ....|R-- .... ....
....|..|R-- .... ....|R-- .... ....|R-- .... ....
 B-3|..|B-1 2AEF ....|B-3 2F47 ....|C#4 3F1F ....
....|..|R-- .... ....|--- .... ....|--- .... ....
....|..|B-1 2FEA ....|--- .... ....|D#4 3F1A ....
....|..|R-- .... ....|R-- .... ....|--- .... ....
 A-3|..|A-1 2AEF ....|C#4 2F1F ....|C#5 UFFF ....
....|..|R-- .... ....|--- .... ....|R-- .... ....
....|..|B-1 2FEA ....|--- .... ....|C#4 3F1A ....
....|..|R-- .... ....|--- .... ....|--- .... ....
 A-3|..|A-1 2AEF ....|--- .... ....|C#4 3F1F ....
....|..|R-- .... ....|R-- .... ....|--- .... ....
....|..|A-1 2FEA ....|C#4 2F1A ....|R-- .... ....
....|..|R-- .... ....|--- .... ....|--- .... ....
 A-3|..|A-1 2AEF ....|--- .... ....|C#4 3F17 ....
....|..|R-- .... ....|--- .... ....|C#4 3F1F ....
....|..|A-1 2FEA ....|--- .... ....|C#4 3F1A ....
....|..|R-- .... ....|R-- .... ....|--- .... ....
 A-3|..|A-1 2AEF ....|C#4 2F17 ....|E-5 UFFF ....
....|..|R-- .... ....|--- .... ....|--- .... ....
....|..|A-1 2FEA ....|--- .... ....|C#4 3F1F ....
....|..|R-- .... ....|R-- .... ....|C#4 3F1A ....

[Pattern15]
 B-3|..|B-1 2AEF ....|B-3 2F4F ....|F#5 UFFF ....
....|..|R-- .... ....|--- .... ....|D#4 3F.F ....
....|..|A-1 2FEA ....|--- .... ....|C#4 3F1A ....
....|..|R-- .... ....|--- .... ....|R-- .... ....
 B-3|..|B-1 2AEF ....|--- .... ....|E-5 UFFF ....
....|..|R-- .... ....|R-- .... ....|C#4 3F17 ....
....|..|B-1 2FEA ....|B-3 2F4A ....|D#4 3F1A ....
....|..|R-- .... ....|--- .... ....|D#4 3F.A ....
 B-3|..|B-1 2AEF ....|--- .... ....|F#5 UFFF ....
....|..|R-- .... ....|--- .... ....|--- .... ....
....|..|B-1 2FEA ....|--- .... ....|C#4 3F17 ....
....|..|R-- .... ....|R-- .... ....|R-- .... ....
 B-3|..|B-1 2AEF ....|B-3 2F47 ....|E-5 UFFF ....
....|..|R-- .... ....|--- .... ....|D#4 3F.7 ....
....|..|B-1 2FEA ....|--- .... ....|D#4 3F1A ....
....|..|R-- .... ....|R-- .... ....|R-- .... ....
 G#3|..|G#1 2AEF ....|C#4 2F3F ....|D#5 UFFF ....
....|..|R-- .... ....|--- .... ....|--- .... ....
....|..|B-1 2FEA ....|--- .... ....|D#4 3F1A ....
....|..|R-- .... ....|--- .... ....|--- .... ....
 G#3|..|G#1 2AEF ....|--- .... ....|E-5 UFF7 ....
....|..|R-- .... ....|R-- .... ....|--- .... ....
....|..|G#1 2FEA ....|C#4 2F3A ....|G#4 3F.A ....
....|..|R-- .... ....|--- .... ....|R-- .... ....
 G#3|..|G#1 2AEF ....|--- .... ....|F#5 UFF7 ....
....|..|R-- .... ....|--- .... ....|--- .... ....
....|..|G#1 2FEA ....|--- .... ....|R-- .... ....
....|..|R-- .... ....|R-- .... ....|R-- .... ....
 G#3|..|G#1 2AEF ....|C#4 2F37 ....|E-5 UFF7 ....
....|..|R-- .... ....|--- .... ....|--- .... ....
....|..|G#1 2FEA ....|--- .... ....|R-- .... ....
....|..|R-- .... ....|--- .... ....|--- .... ....
 G#3|..|G#1 2AEF ....|--- .... ....|F#5 UFF7 ....
....|..|R-- .... ....|--- .... ....|--- .... ....
....|..|G#1 2FEA ....|--- .... ....|--- .... ....
....|..|R-- .... ....|--- .... ....|R-- .... ....
 G#3|..|G#1 2AEF ....|--- .... ....|E-5 UFF7 ....
....|..|R-- .... ....|--- .... ....|--- .... ....
....|..|G#1 2FEA ....|--- .... ....|R-- .... ....
....|..|R-- .... ....|--- .... ....|--- .... ....
 G#3|..|G#1 2AEF ....|--- .... ....|D#5 UFF7 ....
....|..|R-- .... ....|--- .... ....|--- .... ....
....|..|G#1 2FEA ....|--- .... ....|--- .... ....
....|..|R-- .... ....|--- .... ....|--- .... ....
 G#3|..|G#1 2AEF ....|--- .... ....|--- .... ....
....|..|R-- .... ....|--- .... ....|--- .... ....
....|..|G#1 2FEA ....|--- .... ....|--- .... ....
....|..|R-- .... ....|R-- .... ....|R-- .... ....
 G#3|..|G#1 2AEF ....|C-4 2F1F ....|--- .... ....
....|..|R-- .... ....|--- .... ....|R-- .... ....
....|..|G#1 2FEA ....|--- .... ....|--- .... ....
....|..|R-- .... ....|--- .... ....|--- .... ....
 G#3|..|G#1 2AEF ....|--- .... ....|--- .... ....
....|..|R-- .... ....|R-- .... ....|R-- .... ....
....|..|G#1 2FEA ....|C-4 2F1A ....|--- .... ....
....|..|R-- .... ....|--- .... ....|--- .... ....
 G#3|..|G#1 2AEF ....|--- .... ....|--- .... ....
....|..|R-- .... ....|--- .... ....|--- .... ....
....|..|G#1 2FEA ....|--- .... ....|--- .... ....
....|..|R-- .... ....|R-- .... ....|R-- .... ....
 G#3|..|G#1 2AEF ....|C-4 2F17 ....|--- .... ....
....|..|R-- .... ....|--- .... ....|R-- .... ....
....|..|G#1 2FEA ....|--- .... ....|--- .... ....
....|..|R-- .... ....|--- .... ....|--- .... ....

[Pattern16]
 G#3|..|G#1 2AEF ....|--- .... ....|--- .... ....
....|..|R-- .... ....|--- .... ....|--- .... ....
....|..|G#1 2FEA ....|--- .... ....|--- .... ....
....|..|R-- .... ....|--- .... ....|--- .... ....
 G#3|..|G#1 2AEF ....|--- .... ....|--- .... ....
....|..|R-- .... ....|--- .... ....|--- .... ....
....|..|G#1 2FEA ....|--- .... ....|--- .... ....
....|..|R-- .... ....|--- .... ....|--- .... ....
 G#3|..|G#1 2AEF ....|--- .... ....|--- .... ....
....|..|R-- .... ....|--- .... ....|R-- .... ....
....|..|G#1 2FEA ....|--- .... ....|--- .... ....
....|..|--- .... ....|--- .... ....|--- .... ....
 G#3|..|G#1 2AEF ....|--- .... ....|--- .... ....
....|..|R-- .... ....|--- .... ....|--- .... ....
....|..|G#1 2FEA ....|--- .... ....|--- .... ....
....|..|R-- .... ....|R-- .... ....|--- .... ....
 C#4|..|C#2 2AEF ....|C#4 2FAF ....|E-4 UFFF ....
....|..|R-- .... ....|--- .... ....|--- .... ....
....|..|G#1 2FEA ....|--- .... ....|--- .... ....
....|..|R-- .... ....|--- .... ....|--- .... ....
 C#4|..|C#2 2AEF ....|--- .... ....|--- .... ....
....|..|R-- .... ....|R-- .... ....|--- .... ....
....|..|C#2 2FEA ....|C#4 2FAA ....|--- .... ....
....|..|R-- .... ....|--- .... ....|--- .... ....
 C#4|..|C#2 2AEF ....|--- .... ....|--- .... ....
....|..|R-- .... ....|--- .... ....|R-- .... ....
....|..|C#2 2FEA ....|--- .... ....|--- .... ....
....|..|R-- .... ....|R-- .... ....|--- .... ....
 C#4|..|C#2 2AEF ....|C#4 2FA7 ....|E-4 UFFF ....
....|..|R-- .... ....|--- .... ....|--- .... ....
....|..|C#2 2FEA ....|--- .... ....|--- .... ....
....|..|R-- .... ....|--- .... ....|--- .... ....
 C#4|..|C#2 2AEF ....|--- .... ....|--- .... ....
....|..|R-- .... ....|--- .... ....|--- .... ....
....|..|C#2 2FEA ....|--- .... ....|--- .... ....
....|..|R-- .... ....|--- .... ....|--- .... ....
 C#4|..|C#2 2AEF ....|--- .... ....|--- .... ....
....|..|R-- .... ....|--- .... ....|R-- .... ....
....|..|C#2 2FEA ....|--- .... ....|--- .... ....
....|..|R-- .... ....|--- .... ....|--- .... ....
 C#4|..|C#2 2AEF ....|--- .... ....|E-4 UFF7 ....
....|..|R-- .... ....|--- .... ....|--- .... ....
....|..|C#2 2FEA ....|--- .... ....|--- .... ....
....|..|R-- .... ....|--- .... ....|--- .... ....
 G#3|..|G#1 2AEF ....|--- .... ....|--- .... ....
....|..|R-- .... ....|--- .... ....|--- .... ....
....|..|C#2 2FEA ....|--- .... ....|--- .... ....
....|..|R-- .... ....|--- .... ....|--- .... ....
 C#4|..|C#2 2AEF ....|--- .... ....|--- .... ....
....|..|R-- .... ....|--- .... ....|R-- .... ....
....|..|G#1 2FEA ....|--- .... ....|--- .... ....
....|..|R-- .... ....|--- .... ....|--- .... ....
 C#4|..|C#2 2AEF ....|--- .... ....|E-4 UFF7 ....
....|..|R-- .... ....|--- .... ....|--- .... ....
....|..|C#2 2FEA ....|--- .... ....|--- .... ....
....|..|R-- .... ....|--- .... ....|E-4 UFFF ....
 C#4|..|C#2 2AEF ....|--- .... ....|--- .... ....
....|..|R-- .... ....|--- .... ....|--- .... ....
....|..|C#2 2FEA ....|--- .... ....|--- .... ....
....|..|R-- .... ....|--- .... ....|--- .... ....
 C#4|..|C#2 2AEF ....|--- .... ....|E-4 UFFF ....
....|..|R-- .... ....|--- .... ....|--- .... ....
....|..|C#2 2FEA ....|--- .... ....|--- .... ....
....|..|R-- .... ....|--- .... ....|--- .... ....

[Pattern17]
 C#4|..|C#2 2AEF ....|--- .... ....|F#4 UFFF ....
....|..|R-- .... ....|--- .... ....|--- .... ....
....|..|C#2 2FEA ....|--- .... ....|--- .... ....
....|..|R-- .... ....|--- .... ....|E-4 UFFA ....
 C#4|..|C#2 2AEF ....|--- .... ....|--- .... ....
....|..|R-- .... ....|--- .... ....|--- .... ....
....|..|C#2 2FEA ....|--- .... ....|--- .... ....
....|..|R-- .... ....|--- .... ....|--- .... ....
 C#4|..|C#2 2AEF ....|--- .... ....|E-4 UFFA ....
....|..|R-- .... ....|--- .... ....|--- .... ....
....|..|C#2 2FEA ....|--- .... ....|--- .... ....
....|..|R-- .... ....|--- .... ....|--- .... ....
 G#3|..|G#1 2AEF ....|--- .... ....|E-4 UFFF ....
....|..|R-- .... ....|--- .... ....|--- .... ....
....|..|C#2 2FEA ....|--- .... ....|E-4 UFFF ....
....|..|R-- .... ....|--- .... ....|E-4 UFF7 ....
 C#4|..|C#2 2AEF ....|--- .... ....|E-4 UFFF ....
....|..|R-- .... ....|--- .... ....|--- .... ....
....|..|G#1 2FEA ....|--- .... ....|--- .... ....
....|..|R-- .... ....|--- .... ....|--- .... ....
 C#4|..|C#2 2AEF ....|--- .... ....|E-4 UFF7 ....
....|..|R-- .... ....|--- .... ....|--- .... ....
....|..|C#2 2FEA ....|--- .... ....|--- .... ....
....|..|R-- .... ....|--- .... ....|--- .... ....
 C#4|..|C#2 2AEF ....|--- .... ....|F#4 UFF7 ....
....|..|R-- .... ....|--- .... ....|--- .... ....
....|..|C#2 2FEA ....|--- .... ....|E-4 UFFA ....
....|..|R-- .... ....|--- .... ....|--- .... ....
 C#4|..|C#2 2AEF ....|--- .... ....|E-4 UFFA ....
....|..|R-- .... ....|--- .... ....|--- .... ....
....|..|C#2 2FEA ....|--- .... ....|--- .... ....
....|..|R-- .... ....|--- .... ....|--- .... ....
 C#4|..|C#2 2AEF ....|--- .... ....|--- .... ....
....|..|R-- .... ....|--- .... ....|--- .... ....
....|..|C#2 2FEA ....|--- .... ....|--- .... ....
....|..|R-- .... ....|--- .... ....|--- .... ....
 C#4|..|C#2 2AEF ....|--- .... ....|E-4 UFF7 ....
....|..|R-- .... ....|--- .... ....|--- .... ....
....|..|C#2 2FEA ....|--- .... ....|E-4 UFF7 ....
....|..|R-- .... ....|--- .... ....|--- .... ....
 C#4|..|C#2 2AEF ....|--- .... ....|E-4 UFF7 ....
....|..|R-- .... ....|--- .... ....|--- .... ....
....|..|C#2 2FEA ....|--- .... ....|--- .... ....
....|..|R-- .... ....|--- .... ....|--- .... ....
 C#4|..|C#2 2AEF ....|--- .... ....|--- .... ....
....|..|R-- .... ....|--- .... ....|--- .... ....
....|..|C#2 2FEA ....|--- .... ....|--- .... ....
....|..|R-- .... ....|--- .... ....|--- .... ....
 C#4|..|C#2 2AEF ....|--- .... ....|--- .... ....
....|..|R-- .... ....|--- .... ....|--- .... ....
....|..|C#2 2FEA ....|--- .... ....|--- .... ....
....|..|R-- .... ....|--- .... ....|--- .... ....
 C#4|..|C#2 2AEF ....|--- .... ....|--- .... ....
....|..|R-- .... ....|--- .... ....|--- .... ....
....|..|C#2 2FEA ....|--- .... ....|--- .... ....
....|..|R-- .... ....|--- .... ....|--- .... ....
 C#4|..|C#2 2AEF ....|--- .... ....|E-4 UFFF ....
....|..|R-- .... ....|--- .... ....|--- .... ....
....|..|C#2 2FEA ....|--- .... ....|--- .... ....
....|..|R-- .... ....|--- .... ....|--- .... ....
 C#4|..|C#2 2AEF ....|--- .... ....|E-4 UFFF ....
....|..|R-- .... ....|--- .... ....|--- .... ....
....|..|C#2 2FEA ....|--- .... ....|--- .... ....
....|..|R-- .... ....|R-- .... ....|R-- .... ....

[Pattern18]
 A-3|..|A-1 2AEF ....|C#4 2F1F ....|F#4 UFFF ....
....|..|R-- .... ....|--- .... ....|--- .... ....
....|..|C#2 2FEA ....|--- .... ....|--- .... ....
....|..|R-- .... ....|--- .... ....|--- .... ....
 A-3|..|A-1 2AEF ....|--- .... ....|E-4 UFFA ....
....|..|R-- .... ....|R-- .... ....|--- .... ....
....|..|A-1 2FEA ....|C#4 2F1A ....|--- .... ....
....|..|R-- .... ....|--- .... ....|R-- .... ....
 A-3|..|A-1 2AEF ....|--- .... ....|E-4 UFFF ....
....|..|R-- .... ....|--- .... ....|--- .... ....
....|..|A-1 2FEA ....|--- .... ....|--- .... ....
....|..|R-- .... ....|R-- .... ....|R-- .... ....
 A-3|..|A-1 2AEF ....|C#4 2F17 ....|C#4 UFFF ....
....|..|R-- .... ....|--- .... ....|--- .... ....
....|..|A-1 2FEA ....|--- .... ....|--- .... ....
....|..|R-- .... ....|R-- .... ....|--- .... ....
 E-4|..|E-2 2AEF ....|E-4 2F7F ....|B-3 UFFF ....
....|..|R-- .... ....|--- .... ....|--- .... ....
....|..|A-1 2FEA ....|--- .... ....|--- .... ....
....|..|R-- .... ....|--- .... ....|R-- .... ....
 E-4|..|E-2 2AEF ....|--- .... ....|E-4 UFF7 ....
....|..|R-- .... ....|R-- .... ....|--- .... ....
....|..|E-2 2FEA ....|E-4 2F7A ....|--- .... ....
....|..|R-- .... ....|--- .... ....|R-- .... ....
 E-4|..|E-2 2AEF ....|--- .... ....|F#4 UFF7 ....
....|..|R-- .... ....|--- .... ....|--- .... ....
....|..|E-2 2FEA ....|--- .... ....|--- .... ....
....|..|R-- .... ....|R-- .... ....|--- .... ....
 E-4|..|E-2 2AEF ....|E-4 2F77 ....|B-3 UFFA ....
....|..|R-- .... ....|--- .... ....|--- .... ....
....|..|E-2 2FEA ....|--- .... ....|--- .... ....
....|..|R-- .... ....|R-- .... ....|R-- .... ....
 G#3|..|G#1 2AEF ....|C-4 2F1F ....|C-4 UFFF ....
....|..|R-- .... ....|--- .... ....|--- .... ....
....|..|E-2 2FEA ....|--- .... ....|--- .... ....
....|..|R-- .... ....|--- .... ....|--- .... ....
 G#3|..|G#1 2AEF ....|--- .... ....|C#4 UFF7 ....
....|..|R-- .... ....|R-- .... ....|--- .... ....
....|..|G#1 2FEA ....|C-4 2F1A ....|--- .... ....
....|..|R-- .... ....|--- .... ....|--- .... ....
 G#3|..|G#1 2AEF ....|--- .... ....|B-3 UFF7 ....
....|..|R-- .... ....|--- .... ....|--- .... ....
....|..|G#1 2FEA ....|--- .... ....|--- .... ....
....|..|R-- .... ....|R-- .... ....|--- .... ....
 G#3|..|G#1 2AEF ....|C-4 2F17 ....|C-4 UFFA ....
....|..|R-- .... ....|--- .... ....|--- .... ....
....|..|G#1 2FEA ....|--- .... ....|--- .... ....
....|..|R-- .... ....|R-- .... ....|--- .... ....
 C#4|..|C#2 2AEF ....|C#4 2FAF ....|C#4 UFFF ....
....|..|R-- .... ....|--- .... ....|--- .... ....
....|..|G#1 2FEA ....|--- .... ....|--- .... ....
....|..|R-- .... ....|--- .... ....|--- .... ....
 C#4|..|C#2 2AEF ....|--- .... ....|--- .... ....
....|..|R-- .... ....|R-- .... ....|--- .... ....
....|..|C#2 2FEA ....|C#4 2FAA ....|--- .... ....
....|..|R-- .... ....|--- .... ....|--- .... ....
 C#4|..|C#2 2AEF ....|--- .... ....|C-4 UFF7 ....
....|..|R-- .... ....|--- .... ....|--- .... ....
....|..|C#2 2FEA ....|--- .... ....|--- .... ....
....|..|R-- .... ....|R-- .... ....|--- .... ....
 C#4|..|C#2 2AEF ....|C#4 2FA7 ....|C#4 UFFA ....
....|..|R-- .... ....|--- .... ....|--- .... ....
....|..|C#2 2FEA ....|--- .... ....|--- .... ....
....|..|R-- .... ....|R-- .... ....|R-- .... ....

[Pattern19]
 A-3|..|A-1 2AEF ....|C#4 2F1F ....|A-4 UFFF ....
....|..|R-- .... ....|--- .... ....|--- .... ....
....|..|C#2 2FEA ....|--- .... ....|--- .... ....
....|..|R-- .... ....|--- .... ....|--- .... ....
 A-3|..|A-1 2AEF ....|--- .... ....|--- .... ....
....|..|R-- .... ....|R-- .... ....|--- .... ....
....|..|A-1 2FEA ....|C#4 2F1A ....|--- .... ....
....|..|R-- .... ....|--- .... ....|--- .... ....
 A-3|..|A-1 2AEF ....|--- .... ....|C#4 UFF7 ....
....|..|R-- .... ....|--- .... ....|--- .... ....
....|..|A-1 2FEA ....|--- .... ....|--- .... ....
....|..|R-- .... ....|R-- .... ....|R-- .... ....
 A-3|..|A-1 2AEF ....|C#4 2F17 ....|A-4 UFFA ....
....|..|R-- .... ....|--- .... ....|--- .... ....
....|..|A-1 2FEA ....|--- .... ....|R-- .... ....
....|..|R-- .... ....|R-- .... ....|--- .... ....
 G#3|..|G#1 2AEF ....|C#4 2F3F ....|A-4 UFFF ....
....|..|R-- .... ....|--- .... ....|--- .... ....
....|..|A-1 2FEA ....|--- .... ....|--- .... ....
....|..|R-- .... ....|--- .... ....|--- .... ....
....|..|C#4 3F5F ....|--- .... ....|G#4 UFFF ....
....|..|R-- .... ....|R-- .... ....|--- .... ....
 G#3|..|G#1 2AEF ....|C#4 2F3A ....|--- .... ....
....|..|R-- .... ....|--- .... ....|R-- .... ....
 G#3|..|G#1 2AEF ....|--- .... ....|A-4 UFF7 ....
....|..|R-- .... ....|--- .... ....|R-- .... ....
....|..|C#4 3F5A ....|--- .... ....|R-- .... ....
....|..|R-- .... ....|R-- .... ....|--- .... ....
 G#3|..|G#1 2AEF ....|C#4 2F37 ....|G#4 UFFF ....
....|..|R-- .... ....|--- .... ....|--- .... ....
....|..|G#1 2FEA ....|--- .... ....|--- .... ....
....|..|R-- .... ....|--- .... ....|--- .... ....
....|..|C#4 3F57 ....|--- .... ....|G#4 UFFA ....
....|..|R-- .... ....|--- .... ....|--- .... ....
....|..|C#4 3F5A ....|--- .... ....|--- .... ....
....|..|R-- .... ....|--- .... ....|--- .... ....
 G#3|..|G#1 2AEF ....|--- .... ....|--- .... ....
....|..|R-- .... ....|--- .... ....|R-- .... ....
....|..|R-- .... ....|--- .... ....|R-- .... ....
....|..|--- .... ....|--- .... ....|--- .... ....
 G#3|..|G#1 2AEF ....|--- .... ....|A-4 UFF7 ....
....|..|R-- .... ....|--- .... ....|--- .... ....
....|..|G#1 2FEA ....|--- .... ....|--- .... ....
....|..|R-- .... ....|--- .... ....|--- .... ....
 G#3|..|G#1 2AEF ....|--- .... ....|G#4 UFF7 ....
....|..|R-- .... ....|--- .... ....|--- .... ....
....|..|G#1 2FEA ....|--- .... ....|--- .... ....
....|..|R-- .... ....|R-- .... ....|--- .... ....
 G#3|..|G#1 2AEF ....|C-4 2F1F ....|--- .... ....
....|..|R-- .... ....|--- .... ....|R-- .... ....
....|..|G#1 2FEA ....|--- .... ....|--- .... ....
....|..|R-- .... ....|--- .... ....|--- .... ....
....|..|G#1 2FE7 ....|--- .... ....|G#4 UFF7 ....
....|..|R-- .... ....|R-- .... ....|--- .... ....
 G#3|..|G#1 2AEF ....|C-4 2F1A ....|--- .... ....
....|..|R-- .... ....|--- .... ....|--- .... ....
 G#3|..|G#1 2AEF ....|--- .... ....|--- .... ....
....|..|R-- .... ....|--- .... ....|--- .... ....
....|..|R-- .... ....|--- .... ....|--- .... ....
....|..|R-- .... ....|R-- .... ....|--- .... ....
 G#3|..|G#1 2AEF ....|C-4 2F17 ....|C#5 UFFF ....
....|..|R-- .... ....|--- .... ....|--- .... ....
....|..|G#1 2FEA ....|--- .... ....|--- .... ....
....|..|R-- .... ....|--- .... ....|G#4 UFFF ....

[Pattern20]
....|..|R-- .... ....|--- .... ....|E-5 UFFF ....
....|..|R-- .... ....|--- .... ....|--- .... ....
....|..|C#4 3F5A ....|--- .... ....|--- .... ....
....|..|R-- .... ....|--- .... ....|--- .... ....
 G#3|..|G#1 2AEF ....|--- .... ....|--- .... ....
....|..|R-- .... ....|--- .... ....|--- .... ....
....|..|R-- .... ....|--- .... ....|--- .... ....
....|..|--- .... ....|--- .... ....|G#4 UFFF ....
 G#3|..|G#1 2AEF ....|--- .... ....|A-5 UFFF ....
....|..|R-- .... ....|--- .... ....|--- .... ....
....|..|G#1 2FEA ....|--- .... ....|--- .... ....
....|..|R-- .... ....|--- .... ....|G#4 UFFA ....
 G#3|..|G#1 2AEF ....|--- .... ....|E-5 UFFA ....
....|..|R-- .... ....|--- .... ....|--- .... ....
....|..|G#1 2FEA ....|--- .... ....|--- .... ....
....|..|R-- .... ....|R-- .... ....|R-- .... ....
 C#4|..|C#2 2AEF ....|C#4 2FAF ....|G#5 UFFF ....
....|..|R-- .... ....|--- .... ....|--- .... ....
....|..|G#1 2FEA ....|--- .... ....|--- .... ....
....|..|R-- .... ....|--- .... ....|G#4 UFFA ....
 C#4|..|C#2 2AEF ....|--- .... ....|C#5 UFF7 ....
....|..|R-- .... ....|R-- .... ....|--- .... ....
....|..|C#2 2FEA ....|C#4 2FAA ....|--- .... ....
....|..|R-- .... ....|--- .... ....|G#4 UFF7 ....
 C#4|..|C#2 2AEF ....|--- .... ....|E-5 UFFF ....
....|..|R-- .... ....|--- .... ....|--- .... ....
....|..|C#2 2FEA ....|--- .... ....|--- .... ....
....|..|R-- .... ....|R-- .... ....|R-- .... ....
 C#4|..|C#2 2AEF ....|C#4 2FA7 ....|F#5 UFFF ....
....|..|R-- .... ....|--- .... ....|--- .... ....
....|..|C#2 2FEA ....|--- .... ....|--- .... ....
....|..|R-- .... ....|R-- .... ....|G#4 UFF7 ....
 B-3|..|B-1 2AEF ....|B-3 2F4F ....|A-5 UFF7 ....
....|..|R-- .... ....|--- .... ....|--- .... ....
....|..|C#2 2FEA ....|--- .... ....|--- .... ....
....|..|R-- .... ....|--- .... ....|R-- .... ....
 B-3|..|B-1 2AEF ....|--- .... ....|E-5 UFFA ....
....|..|R-- .... ....|R-- .... ....|--- .... ....
....|..|B-1 2FEA ....|B-3 2F4A ....|R-- .... ....
....|..|R-- .... ....|--- .... ....|R-- .... ....
 B-3|..|B-1 2AEF ....|--- .... ....|G#5 UFF7 ....
....|..|R-- .... ....|--- .... ....|--- .... ....
....|..|B-1 2FEA ....|--- .... ....|--- .... ....
....|..|R-- .... ....|R-- .... ....|--- .... ....
 B-3|..|B-1 2AEF ....|B-3 2F47 ....|C#5 UFFF ....
....|..|R-- .... ....|--- .... ....|R-- .... ....
....|..|B-1 2FEA ....|--- .... ....|--- .... ....
....|..|R-- .... ....|R-- .... ....|R-- .... ....
 A-3|..|A-1 2AEF ....|C#4 2F1F ....|G#5 UFFF ....
....|..|R-- .... ....|--- .... ....|--- .... ....
....|..|B-1 2FEA ....|--- .... ....|R-- .... ....
....|..|R-- .... ....|--- .... ....|--- .... ....
 A-3|..|A-1 2AEF ....|--- .... ....|F#5 UFF7 ....
....|..|R-- .... ....|R-- .... ....|--- .... ....
....|..|A-1 2FEA ....|C#4 2F1A ....|--- .... ....
....|..|R-- .... ....|--- .... ....|--- .... ....
 A-3|..|A-1 2AEF ....|--- .... ....|E-5 UFFF ....
....|..|R-- .... ....|--- .... ....|R-- .... ....
....|..|A-1 2FEA ....|--- .... ....|--- .... ....
....|..|R-- .... ....|R-- .... ....|--- .... ....
 A-3|..|A-1 2AEF ....|C#4 2F17 ....|F#5 UFFF ....
....|..|R-- .... ....|--- .... ....|--- .... ....
....|..|A-1 2FEA ....|--- .... ....|R-- .... ....
....|..|R-- .... ....|R-- .... ....|--- .... ....

[Pattern21]
 B-3|..|B-1 2AEF ....|B-3 2F4F ....|--- .... ....
....|..|R-- .... ....|--- .... ....|--- .... ....
....|..|A-1 2FEA ....|--- .... ....|--- .... ....
....|..|R-- .... ....|--- .... ....|--- .... ....
 B-3|..|B-1 2AEF ....|--- .... ....|C#5 UFF7 ....
....|..|R-- .... ....|R-- .... ....|R-- .... ....
....|..|B-1 2FEA ....|B-3 2F4A ....|R-- .... ....
....|..|R-- .... ....|--- .... ....|--- .... ....
 B-3|..|B-1 2AEF ....|--- .... ....|G#5 UFF7 ....
....|..|R-- .... ....|--- .... ....|--- .... ....
....|..|B-1 2FEA ....|--- .... ....|--- .... ....
....|..|R-- .... ....|R-- .... ....|--- .... ....
 B-3|..|B-1 2AEF ....|B-3 2F47 ....|C#5 UFFF ....
....|..|R-- .... ....|--- .... ....|R-- .... ....
....|..|B-1 2FEA ....|--- .... ....|--- .... ....
....|..|R-- .... ....|R-- .... ....|--- .... ....
 G#3|..|G#1 2AEF ....|C#4 2F3F ....|G#5 UFFF ....
....|..|R-- .... ....|--- .... ....|--- .... ....
....|..|B-1 2FEA ....|--- .... ....|R-- .... ....
....|..|R-- .... ....|--- .... ....|--- .... ....
 G#3|..|G#1 2AEF ....|--- .... ....|F#5 UFF7 ....
....|..|R-- .... ....|R-- .... ....|--- .... ....
....|..|G#1 2FEA ....|C#4 2F3A ....|--- .... ....
....|..|R-- .... ....|--- .... ....|--- .... ....
 G#3|..|G#1 2AEF ....|--- .... ....|G#5 UFFF ....
....|..|R-- .... ....|--- .... ....|R-- .... ....
....|..|G#1 2FEA ....|--- .... ....|--- .... ....
....|..|R-- .... ....|R-- .... ....|--- .... ....
 G#3|..|G#1 2AEF ....|C#4 2F37 ....|G#5 UFFA ....
....|..|R-- .... ....|--- .... ....|--- .... ....
....|..|G#1 2FEA ....|--- .... ....|R-- .... ....
....|..|R-- .... ....|--- .... ....|R-- .... ....
 G#3|..|G#1 2AEF ....|--- .... ....|G#5 UFFF ....
....|..|R-- .... ....|--- .... ....|--- .... ....
....|..|G#1 2FEA ....|--- .... ....|--- .... ....
....|..|R-- .... ....|--- .... ....|--- .... ....
 G#3|..|G#1 2AEF ....|--- .... ....|F#5 UFFF ....
....|..|R-- .... ....|--- .... ....|R-- .... ....
....|..|G#1 2FEA ....|--- .... ....|--- .... ....
....|..|R-- .... ....|--- .... ....|--- .... ....
 G#3|..|G#1 2AEF ....|--- .... ....|D#5 UFFF ....
....|..|R-- .... ....|--- .... ....|--- .... ....
....|..|G#1 2FEA ....|--- .... ....|--- .... ....
....|..|R-- .... ....|--- .... ....|R-- .... ....
 G#3|..|G#1 2AEF ....|--- .... ....|F#5 UFFF ....
....|..|R-- .... ....|--- .... ....|--- .... ....
....|..|G#1 2FEA ....|--- .... ....|--- .... ....
....|..|R-- .... ....|R-- .... ....|--- .... ....
 G#3|..|G#1 2AEF ....|C-4 2F1F ....|G#5 UFFF ....
....|..|R-- .... ....|--- .... ....|--- .... ....
....|..|G#1 2FEA ....|--- .... ....|--- .... ....
....|..|R-- .... ....|--- .... ....|--- .... ....
 G#3|..|G#1 2AEF ....|--- .... ....|D#5 UFFA ....
....|..|R-- .... ....|R-- .... ....|--- .... ....
....|..|G#1 2FEA ....|C-4 2F1A ....|--- .... ....
....|..|R-- .... ....|--- .... ....|R-- .... ....
 G#3|..|G#1 2AEF ....|--- .... ....|G#5 UFFF ....
....|..|R-- .... ....|--- .... ....|--- .... ....
....|..|G#1 2FEA ....|--- .... ....|--- .... ....
....|..|R-- .... ....|R-- .... ....|--- .... ....
 G#3|..|G#1 2AEF ....|C-4 2F17 ....|F#5 UFF7 ....
....|..|R-- .... ....|--- .... ....|--- .... ....
....|..|G#1 2FEA ....|--- .... ....|--- .... ....
....|..|R-- .... ....|--- .... ....|--- .... ....

[Pattern22]
 G#3|..|G#1 2AEF ....|--- .... ....|G#5 UFFF ....
....|..|R-- .... ....|--- .... ....|--- .... ....
....|..|G#1 2FEA ....|--- .... ....|--- .... ....
....|..|R-- .... ....|--- .... ....|R-- .... ....
 C-4|..|C-2 2AEF ....|--- .... ....|B-5 UFFF ....
....|..|R-- .... ....|--- .... ....|--- .... ....
....|..|G#1 2FEA ....|--- .... ....|--- .... ....
....|..|R-- .... ....|--- .... ....|R-- .... ....
 D#4|..|D#2 2AEF ....|--- .... ....|G#5 UFFF ....
....|..|R-- .... ....|--- .... ....|--- .... ....
....|..|C-2 2FEA ....|--- .... ....|--- .... ....
....|..|R-- .... ....|--- .... ....|R-- .... ....
 F#4|..|F#2 2AEF ....|--- .... ....|F#5 UFFF ....
....|..|R-- .... ....|--- .... ....|--- .... ....
....|..|D#2 2FEA ....|--- .... ....|R-- .... ....
....|..|R-- .... ....|R-- .... ....|R-- .... ....
 C#4|..|C#2 2AEF ....|E-4 2F7F ....|G#5 UFFF ....
....|..|R-- .... ....|--- .... ....|--- .... ....
....|..|F#2 2FEA ....|--- .... ....|--- .... ....
....|..|R-- .... ....|--- .... ....|R-- .... ....
 C#4|..|C#2 2AEF ....|--- .... ....|G#5 UFFA ....
....|..|R-- .... ....|R-- .... ....|R-- .... ....
....|..|C#2 2FEA ....|E-4 2F7A ....|--- .... ....
....|..|R-- .... ....|--- .... ....|R-- .... ....
 C#4|..|C#2 2AEF ....|--- .... ....|E-5 UFFF ....
....|..|R-- .... ....|--- .... ....|R-- .... ....
....|..|C#2 2FEA ....|--- .... ....|R-- .... ....
....|..|R-- .... ....|R-- .... ....|R-- .... ....
 C#4|..|C#2 2AEF ....|E-4 2F77 ....|G-5 UFFF ....
....|..|R-- .... ....|--- .... ....|--- .... ....
....|..|C#2 2FEA ....|--- .... ....|--- .... ....
....|..|R-- .... ....|R-- .... ....|R-- .... ....
 B-3|..|B-1 2AEF ....|B-3 2F4F ....|G#5 UFF7 ....
....|..|R-- .... ....|--- .... ....|R-- .... ....
....|..|C#2 2FEA ....|--- .... ....|--- .... ....
....|..|R-- .... ....|--- .... ....|R-- .... ....
 B-3|..|B-1 2AEF ....|--- .... ....|E-5 UFFF ....
....|..|R-- .... ....|R-- .... ....|R-- .... ....
....|..|B-1 2FEA ....|B-3 2F4A ....|R-- .... ....
....|..|R-- .... ....|--- .... ....|--- .... ....
 B-3|..|B-1 2AEF ....|--- .... ....|G#5 UFFF ....
....|..|R-- .... ....|--- .... ....|--- .... ....
....|..|B-1 2FEA ....|--- .... ....|--- .... ....
....|..|R-- .... ....|R-- .... ....|--- .... ....
 B-3|..|B-1 2AEF ....|B-3 2F47 ....|--- .... ....
....|..|R-- .... ....|--- .... ....|R-- .... ....
....|..|B-1 2FEA ....|--- .... ....|--- .... ....
....|..|R-- .... ....|R-- .... ....|--- .... ....
 A-3|..|A-1 2AEF ....|C#4 2F1F ....|E-5 UFF7 ....
....|..|R-- .... ....|--- .... ....|R-- .... ....
....|..|B-1 2FEA ....|--- .... ....|--- .... ....
....|..|R-- .... ....|--- .... ....|R-- .... ....
 A-3|..|A-1 2AEF ....|--- .... ....|E-5 UFFF ....
....|..|R-- .... ....|R-- .... ....|R-- .... ....
....|..|A-1 2FEA ....|C#4 2F1A ....|--- .... ....
....|..|R-- .... ....|--- .... ....|--- .... ....
 A-3|..|A-1 2AEF ....|--- .... ....|G#5 UFFF ....
....|..|R-- .... ....|--- .... ....|--- .... ....
....|..|A-1 2FEA ....|--- .... ....|--- .... ....
....|..|R-- .... ....|R-- .... ....|--- .... ....
 A-3|..|A-1 2AEF ....|C#4 2F17 ....|F#5 UFFF ....
....|..|R-- .... ....|--- .... ....|R-- .... ....
....|..|A-1 2FEA ....|--- .... ....|--- .... ....
....|..|R-- .... ....|R-- .... ....|R-- .... ....

[Pattern23]
 B-3|..|B-1 2AEF ....|B-3 2F4F ....|G#5 UFF7 ....
....|..|R-- .... ....|--- .... ....|R-- .... ....
....|..|A-1 2FEA ....|--- .... ....|--- .... ....
....|..|R-- .... ....|--- .... ....|--- .... ....
 B-3|..|B-1 2AEF ....|--- .... ....|G#5 UFFA ....
....|..|R-- .... ....|R-- .... ....|--- .... ....
....|..|B-1 2FEA ....|B-3 2F4A ....|--- .... ....
....|..|R-- .... ....|--- .... ....|R-- .... ....
 B-3|..|B-1 2AEF ....|--- .... ....|E-5 UFFF ....
....|..|R-- .... ....|--- .... ....|--- .... ....
....|..|B-1 2FEA ....|--- .... ....|R-- .... ....
....|..|R-- .... ....|R-- .... ....|R-- .... ....
 B-3|..|B-1 2AEF ....|B-3 2F47 ....|F#5 UFFF ....
....|..|R-- .... ....|--- .... ....|R-- .... ....
....|..|B-1 2FEA ....|--- .... ....|R-- .... ....
....|..|R-- .... ....|R-- .... ....|--- .... ....
 G#3|..|G#1 2AEF ....|C#4 2F3F ....|G#5 UFFF ....
....|..|R-- .... ....|--- .... ....|--- .... ....
....|..|B-1 2FEA ....|--- .... ....|--- .... ....
....|..|R-- .... ....|--- .... ....|R-- .... ....
 G#3|..|G#1 2AEF ....|--- .... ....|G#5 UFFF ....
....|..|R-- .... ....|R-- .... ....|--- .... ....
....|..|G#1 2FEA ....|C#4 2F3A ....|R-- .... ....
....|..|R-- .... ....|--- .... ....|R-- .... ....
 G#3|..|G#1 2AEF ....|--- .... ....|G#5 UFFF ....
....|..|R-- .... ....|--- .... ....|--- .... ....
....|..|G#1 2FEA ....|--- .... ....|R-- .... ....
....|..|R-- .... ....|R-- .... ....|R-- .... ....
 G#3|..|G#1 2AEF ....|C#4 2F37 ....|F#5 UFFF ....
....|..|R-- .... ....|--- .... ....|--- .... ....
....|..|G#1 2FEA ....|--- .... ....|--- .... ....
....|..|R-- .... ....|--- .... ....|R-- .... ....
 G#3|..|G#1 2AEF ....|--- .... ....|F#5 UFFF ....
....|..|R-- .... ....|--- .... ....|--- .... ....
....|..|G#1 2FEA ....|--- .... ....|R-- .... ....
....|..|R-- .... ....|--- .... ....|R-- .... ....
 G#3|..|G#1 2AEF ....|--- .... ....|D#5 UFFF ....
....|..|R-- .... ....|--- .... ....|--- .... ....
....|..|G#1 2FEA ....|--- .... ....|R-- .... ....
....|..|R-- .... ....|--- .... ....|R-- .... ....
 G#3|..|G#1 2AEF ....|--- .... ....|D#5 UFFF ....
....|..|R-- .... ....|--- .... ....|--- .... ....
....|..|G#1 2FEA ....|--- .... ....|--- .... ....
....|..|R-- .... ....|--- .... ....|R-- .... ....
 G#3|..|G#1 2AEF ....|--- .... ....|C-5 UFFF ....
....|..|R-- .... ....|--- .... ....|--- .... ....
....|..|G#1 2FEA ....|--- .... ....|--- .... ....
....|..|R-- .... ....|R-- .... ....|R-- .... ....
 G#3|..|G#1 2AEF ....|C-4 2F1F ....|C-5 UFFF ....
....|..|R-- .... ....|--- .... ....|--- .... ....
....|..|G#1 2FEA ....|--- .... ....|--- .... ....
....|..|R-- .... ....|--- .... ....|R-- .... ....
 G#3|..|G#1 2AEF ....|--- .... ....|A-4 UFFF ....
....|..|R-- .... ....|R-- .... ....|--- .... ....
....|..|G#1 2FEA ....|C-4 2F1A ....|--- .... ....
....|..|R-- .... ....|--- .... ....|R-- .... ....
 G#3|..|G#1 2AEF ....|--- .... ....|A-4 UFFF ....
....|..|R-- .... ....|--- .... ....|--- .... ....
....|..|G#1 2FEA ....|--- .... ....|--- .... ....
....|..|R-- .... ....|R-- .... ....|--- .... ....
 G#3|..|G#1 2AEF ....|C-4 2F17 ....|G#4 UFFF ....
....|..|R-- .... ....|--- .... ....|--- .... ....
....|..|G#1 2FEA ....|--- .... ....|--- .... ....
....|..|R-- .... ....|--- .... ....|--- .... ....

[Pattern24]
 G#3|..|G#1 2AEF ....|--- .... ....|C#5 UFFF ....
....|..|R-- .... ....|--- .... ....|--- .... ....
....|..|G#1 2FEA ....|--- .... ....|--- .... ....
....|..|R-- .... ....|--- .... ....|R-- .... ....
 C-4|..|C-2 2AEF ....|--- .... ....|D#5 UFFF ....
....|..|R-- .... ....|--- .... ....|--- .... ....
....|..|G#1 2FEA ....|--- .... ....|--- .... ....
....|..|R-- .... ....|--- .... ....|D#5 UFFF ....
 D#4|..|D#2 2AEF ....|--- .... ....|C#5 UFFF ....
....|..|R-- .... ....|--- .... ....|--- .... ....
....|..|C-2 2FEA ....|--- .... ....|--- .... ....
....|..|R-- .... ....|--- .... ....|R-- .... ....
 F#4|..|F#2 2AEF ....|--- .... ....|B-4 UFFF ....
....|..|R-- .... ....|--- .... ....|--- .... ....
....|..|D#2 2FEA ....|--- .... ....|--- .... ....
....|..|R-- .... ....|D#4 2F.F ....|R-- .... ....
 C#4|..|C#2 2AEF ....|C#4 2FAF ....|C#5 UFFF ....
....|..|R-- .... ....|--- .... ....|--- .... ....
....|..|F#2 2FEA ....|--- .... ....|--- .... ....
....|..|R-- .... ....|--- .... ....|D#5 UFFA ....
....|..|C#4 3F1F ....|--- .... ....|G#4 UFF7 ....
....|..|R-- .... ....|D#4 2F.A ....|--- .... ....
....|..|C#2 2FEA ....|C#4 2FAA ....|E-4 3F7A ....
....|..|R-- .... ....|--- .... ....|R-- .... ....
....|..|C#4 3F1F ....|--- .... ....|E-4 3F7F ....
....|..|R-- .... ....|--- .... ....|--- .... ....
....|..|C#4 3F1A ....|--- .... ....|--- .... ....
....|..|R-- .... ....|D#4 2F.7 ....|R-- .... ....
 C#4|..|C#2 2AEF ....|C#4 2FA7 ....|E-4 3F7F ....
....|..|R-- .... ....|--- .... ....|E-4 3F7F ....
....|..|C#4 3F1A ....|--- .... ....|E-4 3F7A ....
....|..|R-- .... ....|R-- .... ....|R-- .... ....
 B-3|..|B-1 2AEF ....|B-3 2F4F ....|D#4 3F1F ....
....|..|R-- .... ....|--- .... ....|--- .... ....
....|..|C#2 2FEA ....|--- .... ....|E-4 3F7A ....
....|..|R-- .... ....|--- .... ....|E-4 3F7A ....
....|..|B-3 3F4F ....|--- .... ....|B-4 UFF7 ....
....|..|R-- .... ....|R-- .... ....|F#4 3F.F ....
....|..|B-1 2FEA ....|B-3 2F4A ....|D#4 3F1A ....
....|..|R-- .... ....|--- .... ....|R-- .... ....
....|..|B-3 3F4F ....|--- .... ....|D#4 3F1F ....
....|..|R-- .... ....|--- .... ....|E-4 3F77 ....
....|..|B-3 3F4A ....|--- .... ....|R-- .... ....
....|..|--- .... ....|R-- .... ....|F#4 3F.A ....
 B-3|..|B-1 2AEF ....|B-3 2F47 ....|D#4 3F17 ....
....|..|R-- .... ....|--- .... ....|D#4 3F.F ....
....|..|B-3 3F4A ....|--- .... ....|D#4 3F1A ....
....|..|R-- .... ....|R-- .... ....|--- .... ....
 A-3|..|A-1 2AEF ....|C#4 2F1F ....|C#4 3F1F ....
....|..|R-- .... ....|--- .... ....|F#4 3F.7 ....
....|..|B-1 2FEA ....|--- .... ....|R-- .... ....
....|..|R-- .... ....|--- .... ....|D#4 3F.A ....
....|..|A-3 3F4F ....|--- .... ....|D#4 3F17 ....
....|..|R-- .... ....|R-- .... ....|--- .... ....
....|..|A-1 2FEA ....|C#4 2F1A ....|C#4 3F1A ....
....|..|R-- .... ....|--- .... ....|--- .... ....
....|..|A-3 3F4F ....|--- .... ....|C#5 UFFF ....
....|..|R-- .... ....|--- .... ....|D#4 3F.7 ....
....|..|A-3 3F4A ....|--- .... ....|R-- .... ....
....|..|R-- .... ....|R-- .... ....|R-- .... ....
 A-3|..|A-1 2AEF ....|C#4 2F17 ....|D#5 UFFF ....
....|..|R-- .... ....|--- .... ....|--- .... ....
....|..|A-3 3F4A ....|--- .... ....|--- .... ....
....|..|R-- .... ....|R-- .... ....|R-- .... ....

[Pattern25]
 B-3|..|B-1 2AEF ....|B-3 2F4F ....|C#5 UFFF ....
....|..|R-- .... ....|--- .... ....|--- .... ....
....|..|A-1 2FEA ....|--- .... ....|R-- .... ....
....|..|R-- .... ....|--- .... ....|--- .... ....
....|..|B-3 3F4F ....|--- .... ....|C#5 UFFA ....
....|..|R-- .... ....|R-- .... ....|D#4 3F.F ....
....|..|B-1 2FEA ....|B-3 2F4A ....|D#4 3F1A ....
....|..|R-- .... ....|--- .... ....|R-- .... ....
....|..|B-3 3F4F ....|--- .... ....|B-4 UFFF ....
....|..|R-- .... ....|--- .... ....|--- .... ....
....|..|B-3 3F4A ....|--- .... ....|--- .... ....
....|..|R-- .... ....|R-- .... ....|D#4 3F.A ....
 B-3|..|B-1 2AEF ....|B-3 2F47 ....|G#4 UFFF ....
....|..|R-- .... ....|--- .... ....|--- .... ....
....|..|B-3 3F4A ....|--- .... ....|--- .... ....
....|..|R-- .... ....|R-- .... ....|--- .... ....
 G#3|..|G#1 2AEF ....|C#4 2F3F ....|C#5 UFF7 ....
....|..|R-- .... ....|--- .... ....|D#4 3F.7 ....
....|..|B-1 2FEA ....|--- .... ....|R-- .... ....
....|..|R-- .... ....|--- .... ....|R-- .... ....
....|..|C#4 3F5F ....|--- .... ....|D#5 UFF7 ....
....|..|R-- .... ....|R-- .... ....|--- .... ....
....|..|G#1 2FEA ....|C#4 2F3A ....|--- .... ....
....|..|R-- .... ....|--- .... ....|R-- .... ....
....|..|C#4 3F5F ....|--- .... ....|C-4 3F1F ....
....|..|R-- .... ....|--- .... ....|--- .... ....
....|..|C#4 3F5A ....|--- .... ....|R-- .... ....
....|..|R-- .... ....|R-- .... ....|--- .... ....
 G#3|..|G#1 2AEF ....|C#4 2F37 ....|C-4 3F1F ....
....|..|R-- .... ....|--- .... ....|--- .... ....
....|..|C#4 3F5A ....|--- .... ....|C-4 3F1A ....
....|..|R-- .... ....|--- .... ....|--- .... ....
 G#3|..|G#1 2AEF ....|--- .... ....|C-4 3F1F ....
....|..|R-- .... ....|--- .... ....|--- .... ....
....|..|G#1 2FEA ....|--- .... ....|C-4 3F1A ....
....|..|R-- .... ....|--- .... ....|R-- .... ....
....|..|C#4 3F5F ....|--- .... ....|G#4 UFF7 ....
....|..|R-- .... ....|--- .... ....|--- .... ....
....|..|G#1 2FEA ....|--- .... ....|C-4 3F1A ....
....|..|--- .... ....|--- .... ....|--- .... ....
....|..|C#4 3F5F ....|--- .... ....|C-4 3F1F ....
....|..|R-- .... ....|--- .... ....|--- .... ....
....|..|C#4 3F5A ....|--- .... ....|R-- .... ....
....|..|R-- .... ....|--- .... ....|--- .... ....
 G#3|..|G#1 2AEF ....|--- .... ....|C-4 3F1F ....
....|..|R-- .... ....|--- .... ....|--- .... ....
....|..|C#4 3F5A ....|--- .... ....|C-4 3F1A ....
....|..|R-- .... ....|G#4 2F.F ....|R-- .... ....
 G#3|..|G#1 2AEF ....|C-4 2F1F ....|R-- .... ....
....|..|R-- .... ....|--- .... ....|--- .... ....
....|..|G#1 2FEA ....|--- .... ....|C-4 3F1A ....
....|..|R-- .... ....|--- .... ....|--- .... ....
....|..|C-4 3F6F ....|--- .... ....|C-4 3F17 ....
....|..|R-- .... ....|G#4 2F.A ....|--- .... ....
....|..|G#1 2FEA ....|C-4 2F1A ....|R-- .... ....
....|..|R-- .... ....|--- .... ....|--- .... ....
....|..|C-4 3F6F ....|--- .... ....|C-4 3F17 ....
....|..|R-- .... ....|--- .... ....|--- .... ....
....|..|C-4 3F6A ....|--- .... ....|--- .... ....
....|..|R-- .... ....|G#4 2F.7 ....|R-- .... ....
 G#3|..|G#1 2AEF ....|C-4 2F17 ....|--- .... ....
....|..|R-- .... ....|--- .... ....|--- .... ....
....|..|C-4 3F6A ....|--- .... ....|--- .... ....
....|..|R-- .... ....|R-- .... ....|R-- .... ....

[Pattern26]
 A-3|..|A-1 2AEF ....|C#4 2F1F ....|E-5 UFFF ....
....|..|R-- .... ....|--- .... ....|--- .... ....
....|..|G#1 2FEA ....|--- .... ....|R-- .... ....
....|..|R-- .... ....|--- .... ....|--- .... ....
 A-3|..|A-1 2AEF ....|--- .... ....|E-5 UFFF ....
....|..|R-- .... ....|R-- .... ....|R-- .... ....
....|..|A-1 2FEA ....|C#4 2F1A ....|C#4 3F1A ....
....|..|R-- .... ....|--- .... ....|R-- .... ....
 A-3|..|A-1 2AEF ....|--- .... ....|R-- .... ....
....|..|R-- .... ....|--- .... ....|--- .... ....
....|..|A-1 2FEA ....|--- .... ....|R-- .... ....
....|..|--- .... ....|R-- .... ....|E-5 UFFF ....
 A-3|..|A-1 2AEF ....|C#4 2F17 ....|E-5 UFFA ....
....|..|R-- .... ....|--- .... ....|E-5 UFFF ....
....|..|A-1 2FEA ....|--- .... ....|R-- .... ....
....|..|R-- .... ....|R-- .... ....|R-- .... ....
 E-4|..|E-2 2AEF ....|E-4 2F7F ....|E-5 UFFF ....
....|..|R-- .... ....|--- .... ....|--- .... ....
....|..|A-1 2FEA ....|--- .... ....|--- .... ....
....|..|E-3 3F7F ....|--- .... ....|--- .... ....
....|..|E-4 3F.F ....|--- .... ....|R-- .... ....
....|..|R-- .... ....|R-- .... ....|--- .... ....
....|..|E-2 2FEA ....|E-4 2F7A ....|E-4 3F7A ....
....|..|E-3 3F7F ....|--- .... ....|E-5 UFFA ....
....|..|E-4 3F.F ....|--- .... ....|E-4 3F7F ....
....|..|E-3 3F7A ....|--- .... ....|E-5 UFFA ....
....|..|E-4 3F.A ....|--- .... ....|R-- .... ....
....|..|E-3 3F7F ....|R-- .... ....|R-- .... ....
 E-4|..|E-2 2AEF ....|E-4 2F77 ....|E-4 3F7F ....
....|..|E-3 3F7A ....|--- .... ....|E-4 3F7F ....
....|..|E-4 3F.A ....|--- .... ....|E-4 3F7A ....
....|..|C-4 3F6F ....|R-- .... ....|R-- .... ....
 G#3|..|G#1 2AEF ....|C-4 2F1F ....|D#4 3F1F ....
....|..|E-3 3F7A ....|--- .... ....|--- .... ....
....|..|E-2 2FEA ....|--- .... ....|E-4 3F7A ....
....|..|C-4 3F6F ....|--- .... ....|E-4 3F7A ....
....|..|E-4 3F.7 ....|--- .... ....|D#4 3F1F ....
....|..|C-4 3F6A ....|R-- .... ....|R-- .... ....
....|..|G#1 2FEA ....|C-4 2F1A ....|D#4 3F1A ....
....|..|C-4 3F6F ....|--- .... ....|R-- .... ....
....|..|E-2 2FE7 ....|--- .... ....|D#4 3F.F ....
....|..|C-4 3F6A ....|--- .... ....|E-4 3F77 ....
....|..|R-- .... ....|--- .... ....|D#4 3F1A ....
....|..|C-4 3F6F ....|R-- .... ....|R-- .... ....
 G#3|..|G#1 2AEF ....|C-4 2F17 ....|E-4 3F7F ....
....|..|C-4 3F6A ....|--- .... ....|--- .... ....
....|..|R-- .... ....|--- .... ....|D#4 3F.A ....
....|..|C#4 3F1F ....|R-- .... ....|R-- .... ....
 C#4|..|C#2 2AEF ....|C#4 2FAF ....|D#4 3F17 ....
....|..|C-4 3F6A ....|--- .... ....|--- .... ....
....|..|G#1 2FEA ....|--- .... ....|E-4 3F7A ....
....|..|C#4 3F1F ....|--- .... ....|--- .... ....
....|..|R-- .... ....|--- .... ....|D#4 3F.7 ....
....|..|C#4 3F1A ....|R-- .... ....|R-- .... ....
....|..|C#2 2FEA ....|C#4 2FAA ....|--- .... ....
....|..|E-3 3F7F ....|--- .... ....|--- .... ....
....|..|E-4 3F.F ....|--- .... ....|E-5 UFFF ....
....|..|C#4 3F1A ....|--- .... ....|--- .... ....
....|..|R-- .... ....|--- .... ....|R-- .... ....
....|..|C#4 3F1F ....|R-- .... ....|--- .... ....
 C#4|..|C#2 2AEF ....|C#4 2FA7 ....|E-5 UFFF ....
....|..|E-3 3F7A ....|--- .... ....|--- .... ....
....|..|E-4 3F.A ....|--- .... ....|R-- .... ....
....|..|A-3 3F4F ....|R-- .... ....|R-- .... ....

[Pattern27]
 A-3|..|A-1 2AEF ....|C#4 2F1F ....|E-5 UFFF ....
....|..|C#4 3F1A ....|--- .... ....|--- .... ....
....|..|C#2 2FEA ....|--- .... ....|--- .... ....
....|..|A-3 3F4F ....|--- .... ....|R-- .... ....
....|..|E-4 3F.7 ....|--- .... ....|E-5 UFFF ....
....|..|A-3 3F4A ....|R-- .... ....|R-- .... ....
....|..|A-1 2FEA ....|C#4 2F1A ....|A-4 3F.A ....
....|..|A-3 3F4F ....|--- .... ....|--- .... ....
....|..|C#2 2FE7 ....|--- .... ....|E-5 UFFA ....
....|..|A-3 3F4A ....|--- .... ....|R-- .... ....
....|..|R-- .... ....|--- .... ....|R-- .... ....
....|..|A-3 3F4F ....|R-- .... ....|R-- .... ....
 A-3|..|A-1 2AEF ....|C#4 2F17 ....|D#5 UFFF ....
....|..|A-3 3F4A ....|--- .... ....|--- .... ....
....|..|R-- .... ....|--- .... ....|--- .... ....
....|..|C#4 3F5F ....|R-- .... ....|R-- .... ....
 G#3|..|G#1 2AEF ....|C#4 2F3F ....|E-5 UFF7 ....
....|..|A-3 3F4A ....|--- .... ....|--- .... ....
....|..|A-1 2FEA ....|--- .... ....|R-- .... ....
....|..|C#4 3F5F ....|--- .... ....|--- .... ....
....|..|R-- .... ....|--- .... ....|E-5 UFF7 ....
....|..|C#4 3F5A ....|R-- .... ....|R-- .... ....
....|..|G#1 2FEA ....|C#4 2F3A ....|R-- .... ....
....|..|C#4 3F5F ....|--- .... ....|--- .... ....
....|..|A-1 2FE7 ....|--- .... ....|D#4 3F1F ....
....|..|C#4 3F5A ....|--- .... ....|--- .... ....
....|..|R-- .... ....|--- .... ....|R-- .... ....
....|..|C#4 3F3F ....|R-- .... ....|R-- .... ....
 G#3|..|G#1 2AEF ....|C#4 2F37 ....|D#4 3F1F ....
....|..|C#4 3F5A ....|--- .... ....|--- .... ....
....|..|R-- .... ....|--- .... ....|D#4 3F1A ....
....|..|C#4 3F5F ....|--- .... ....|--- .... ....
 G#3|..|G#1 2AEF ....|--- .... ....|D#4 3F1F ....
....|..|C#4 3F3A ....|--- .... ....|R-- .... ....
....|..|G#1 2FEA ....|--- .... ....|D#4 3F1A ....
....|..|C#4 3F5F ....|--- .... ....|--- .... ....
....|..|R-- .... ....|--- .... ....|D#4 3F1F ....
....|..|C#4 3F5A ....|--- .... ....|--- .... ....
....|..|G#1 2FEA ....|--- .... ....|D#4 3F1A ....
....|..|C#4 3F5F ....|--- .... ....|--- .... ....
....|..|G#1 2FE7 ....|--- .... ....|D#4 3F17 ....
....|..|C#4 3F5A ....|--- .... ....|--- .... ....
....|..|R-- .... ....|--- .... ....|D#4 3F1A ....
....|..|C#4 3F5F ....|--- .... ....|--- .... ....
 G#3|..|G#1 2AEF ....|--- .... ....|C-4 3F1F ....
....|..|C#4 3F5A ....|--- .... ....|--- .... ....
....|..|R-- .... ....|--- .... ....|R-- .... ....
....|..|C-4 3F6F ....|R-- .... ....|--- .... ....
 G#3|..|G#1 2AEF ....|C-4 2F1F ....|D#4 3F17 ....
....|..|C#4 3F5A ....|--- .... ....|--- .... ....
....|..|G#1 2FEA ....|--- .... ....|C-4 3F1A ....
....|..|C#4 3F57 ....|--- .... ....|--- .... ....
....|..|R-- .... ....|--- .... ....|R-- .... ....
....|..|C-4 3F6A ....|R-- .... ....|--- .... ....
....|..|G#1 2FEA ....|C-4 2F1A ....|--- .... ....
....|..|G#3 3F4F ....|--- .... ....|--- .... ....
....|..|F#4 3F.F ....|--- .... ....|C-4 3F17 ....
....|..|R-- .... ....|--- .... ....|--- .... ....
....|..|R-- .... ....|--- .... ....|R-- .... ....
....|..|C-4 3F6F ....|R-- .... ....|--- .... ....
 G#3|..|G#1 2AEF ....|C-4 2F17 ....|--- .... ....
....|..|G#3 3F4A ....|--- .... ....|--- .... ....
....|..|F#4 3F.A ....|--- .... ....|--- .... ....
....|..|R-- .... ....|--- .... ....|--- .... ....

[Pattern28]
 C-4|..|C-2 2AEF ....|--- .... ....|G#4 UFFF ....
....|..|C-4 3F6A ....|--- .... ....|--- .... ....
....|..|G#1 2FEA ....|--- .... ....|--- .... ....
....|..|C-4 3F6F ....|--- .... ....|R-- .... ....
 D#4|..|D#2 2AEF ....|--- .... ....|G#4 UFFF ....
....|..|R-- .... ....|--- .... ....|--- .... ....
....|..|C-2 2FEA ....|--- .... ....|R-- .... ....
....|..|C-4 3F6F ....|--- .... ....|--- .... ....
 F#4|..|F#2 2AEF ....|--- .... ....|B-4 UFFF ....
....|..|C-4 3F6A ....|--- .... ....|--- .... ....
....|..|D#2 2FEA ....|--- .... ....|--- .... ....
....|..|C-4 3F6F ....|--- .... ....|--- .... ....
 C-4|..|C-2 2AEF ....|--- .... ....|G#4 UFFF ....
....|..|C-4 3F6A ....|--- .... ....|--- .... ....
....|..|F#2 2FEA ....|--- .... ....|R-- .... ....
....|..|C#4 3F1F ....|R-- .... ....|R-- .... ....
 C#4|..|C#2 2AEF ....|C#4 2FAF ....|E-5 UFFF ....
....|..|C-4 3F6A ....|--- .... ....|--- .... ....
....|..|C-2 2FEA ....|--- .... ....|R-- .... ....
....|..|C#4 3F1F ....|--- .... ....|--- .... ....
....|..|F#2 2FE7 ....|--- .... ....|C#5 UFFF ....
....|..|C#4 3F1A ....|R-- .... ....|R-- .... ....
....|..|C#2 2FEA ....|C#4 2FAA ....|E-4 3F7A ....
....|..|C#4 3F1F ....|--- .... ....|--- .... ....
....|..|C-2 2FE7 ....|--- .... ....|E-4 3F7F ....
....|..|C#4 3F1A ....|--- .... ....|--- .... ....
....|..|R-- .... ....|--- .... ....|R-- .... ....
....|..|C#4 3F1F ....|R-- .... ....|R-- .... ....
 C#4|..|C#2 2AEF ....|C#4 2FA7 ....|G#4 UFF7 ....
....|..|C#4 3F1A ....|--- .... ....|E-4 3F7F ....
....|..|R-- .... ....|--- .... ....|E-4 3F7A ....
....|..|B-3 3F4F ....|R-- .... ....|R-- .... ....
 B-3|..|B-1 2AEF ....|B-3 2F4F ....|D#4 3F1F ....
....|..|C#4 3F1A ....|--- .... ....|--- .... ....
....|..|C#2 2FEA ....|--- .... ....|--- .... ....
....|..|B-3 3F4F ....|--- .... ....|E-4 3F7A ....
....|..|R-- .... ....|--- .... ....|D#4 3F1F ....
....|..|B-3 3F4A ....|R-- .... ....|R-- .... ....
....|..|B-1 2FEA ....|B-3 2F4A ....|D#4 3F1A ....
....|..|B-3 3F4F ....|--- .... ....|--- .... ....
....|..|C#2 2FE7 ....|--- .... ....|E-5 UFF7 ....
....|..|B-3 3F4A ....|--- .... ....|E-4 3F77 ....
....|..|R-- .... ....|--- .... ....|D#4 3F1A ....
....|..|B-3 3F4F ....|R-- .... ....|R-- .... ....
 B-3|..|B-1 2AEF ....|B-3 2F47 ....|C#4 3F1F ....
....|..|B-3 3F4A ....|--- .... ....|--- .... ....
....|..|R-- .... ....|--- .... ....|--- .... ....
....|..|A-3 3F4F ....|R-- .... ....|R-- .... ....
 A-3|..|A-1 2AEF ....|C#4 2F1F ....|D#4 3F17 ....
....|..|B-3 3F4A ....|--- .... ....|--- .... ....
....|..|B-1 2FEA ....|--- .... ....|C#4 3F1A ....
....|..|A-3 3F4F ....|--- .... ....|--- .... ....
....|..|R-- .... ....|--- .... ....|--- .... ....
....|..|A-3 3F4A ....|R-- .... ....|R-- .... ....
....|..|A-1 2FEA ....|C#4 2F1A ....|--- .... ....
....|..|A-3 3F4F ....|--- .... ....|--- .... ....
....|..|B-1 2FE7 ....|--- .... ....|C#5 UFFF ....
....|..|A-3 3F4A ....|--- .... ....|--- .... ....
....|..|R-- .... ....|--- .... ....|--- .... ....
....|..|A-3 3F4F ....|R-- .... ....|--- .... ....
 A-3|..|A-1 2AEF ....|C#4 2F17 ....|D#5 UFFF ....
....|..|A-3 3F4A ....|--- .... ....|--- .... ....
....|..|R-- .... ....|--- .... ....|R-- .... ....
....|..|B-3 3F4F ....|R-- .... ....|R-- .... ....

[Pattern29]
 B-3|..|B-1 2AEF ....|B-3 2F4F ....|C#5 UFFF ....
....|..|A-3 3F4A ....|--- .... ....|--- .... ....
....|..|A-1 2FEA ....|--- .... ....|--- .... ....
....|..|B-3 3F7F ....|--- .... ....|--- .... ....
....|..|F#4 3F.F ....|--- .... ....|C#5 UFFA ....
....|..|B-3 3F4A ....|R-- .... ....|R-- .... ....
....|..|B-1 2FEA ....|B-3 2F4A ....|D#4 3F1A ....
....|..|B-3 3F4F ....|--- .... ....|--- .... ....
....|..|A-1 2FE7 ....|--- .... ....|B-4 UFFF ....
....|..|B-3 3F7A ....|--- .... ....|--- .... ....
....|..|F#4 3F.A ....|--- .... ....|R-- .... ....
....|..|B-3 3F4F ....|R-- .... ....|R-- .... ....
 B-3|..|B-1 2AEF ....|B-3 2F47 ....|G#4 UFFF ....
....|..|B-3 3F4A ....|--- .... ....|--- .... ....
....|..|R-- .... ....|--- .... ....|--- .... ....
....|..|C#4 3F5F ....|R-- .... ....|--- .... ....
 G#3|..|G#1 2AEF ....|C#4 2F3F ....|C#5 UFF7 ....
....|..|B-3 3F4A ....|--- .... ....|R-- .... ....
....|..|B-1 2FEA ....|--- .... ....|R-- .... ....
....|..|C#4 3F5F ....|--- .... ....|--- .... ....
....|..|R-- .... ....|--- .... ....|D#5 UFF7 ....
....|..|C#4 3F5A ....|R-- .... ....|--- .... ....
....|..|G#1 2FEA ....|C#4 2F3A ....|R-- .... ....
....|..|C#4 3F5F ....|--- .... ....|R-- .... ....
....|..|B-1 2FE7 ....|--- .... ....|D#4 3F1F ....
....|..|C#4 3F5A ....|--- .... ....|--- .... ....
....|..|R-- .... ....|--- .... ....|R-- .... ....
....|..|C#4 3F5F ....|R-- .... ....|--- .... ....
 G#3|..|G#1 2AEF ....|C#4 2F37 ....|D#4 3F1F ....
....|..|C#4 3F5A ....|--- .... ....|--- .... ....
....|..|R-- .... ....|--- .... ....|D#4 3F1A ....
....|..|C#4 3F5F ....|--- .... ....|--- .... ....
 G#3|..|G#1 2AEF ....|--- .... ....|D#4 3F1F ....
....|..|C#4 3F5A ....|--- .... ....|--- .... ....
....|..|G#1 2FEA ....|--- .... ....|D#4 3F1A ....
....|..|C#4 3F5F ....|--- .... ....|R-- .... ....
....|..|R-- .... ....|--- .... ....|D#4 3F1F ....
....|..|C#4 3F5A ....|--- .... ....|--- .... ....
....|..|G#1 2FEA ....|--- .... ....|D#4 3F1A ....
....|..|C#4 3F5F ....|--- .... ....|--- .... ....
....|..|G#1 2FE7 ....|--- .... ....|D#4 3F1F ....
....|..|C#4 3F5A ....|--- .... ....|--- .... ....
....|..|R-- .... ....|--- .... ....|D#4 3F1A ....
....|..|C#4 3F5F ....|--- .... ....|--- .... ....
 G#3|..|G#1 2AEF ....|--- .... ....|C-4 3F1F ....
....|..|C#4 3F5A ....|--- .... ....|--- .... ....
....|..|R-- .... ....|--- .... ....|D#4 3F1A ....
....|..|C-4 3F6F ....|R-- .... ....|R-- .... ....
 G#3|..|G#1 2AEF ....|C-4 2F1F ....|D#4 3F17 ....
....|..|C#4 3F5A ....|--- .... ....|--- .... ....
....|..|G#1 2FEA ....|--- .... ....|C-4 3F1A ....
....|..|C-4 3F6F ....|--- .... ....|--- .... ....
 G#3|..|G#1 2AEF ....|--- .... ....|D#4 3F17 ....
....|..|C-4 3F6A ....|R-- .... ....|--- .... ....
....|..|G#1 2FEA ....|C-4 2F1A ....|R-- .... ....
....|..|C-4 3F6F ....|--- .... ....|--- .... ....
....|..|G#1 2FE7 ....|--- .... ....|C-4 3F17 ....
....|..|C-4 3F6A ....|--- .... ....|--- .... ....
....|..|G#1 2FEA ....|--- .... ....|--- .... ....
....|..|G#3 3F4F ....|R-- .... ....|R-- .... ....
 G#3|..|G#1 2AEF ....|C-4 2F17 ....|--- .... ....
....|..|C-4 3F6A ....|--- .... ....|--- .... ....
....|..|R-- .... ....|--- .... ....|--- .... ....
....|..|C-4 3F6F ....|--- .... ....|--- .... ....

[Pattern30]
 G#3|..|G#1 2AEF ....|--- .... ....|G#5 UFFF ....
....|..|G#3 3F4A ....|--- .... ....|--- .... ....
....|..|G#1 2FEA ....|--- .... ....|--- .... ....
....|..|C-4 3F6F ....|--- .... ....|R-- .... ....
 G#3|..|G#1 2AEF ....|--- .... ....|F#5 UFFF ....
....|..|C-4 3F6A ....|--- .... ....|--- .... ....
....|..|G#1 2FEA ....|--- .... ....|--- .... ....
....|..|C-4 3F6F ....|--- .... ....|R-- .... ....
....|..|G#1 2FE7 ....|--- .... ....|E-5 UFFF ....
....|..|C-4 3F6A ....|--- .... ....|--- .... ....
....|..|G#1 2FEA ....|--- .... ....|--- .... ....
....|..|C-4 3F6F ....|--- .... ....|--- .... ....
 G#3|..|G#1 2AEF ....|--- .... ....|D#5 UFFF ....
....|..|C-4 3F6A ....|--- .... ....|--- .... ....
....|..|R-- .... ....|--- .... ....|--- .... ....
....|..|C#4 3F1F ....|R-- .... ....|R-- .... ....
 C#4|..|C#2 2AEF ....|C#4 2FAF ....|E-5 UFFF ....
....|..|C-4 3F6A ....|--- .... ....|--- .... ....
....|..|G#1 2FEA ....|--- .... ....|--- .... ....
....|..|C#4 3F1F ....|--- .... ....|--- .... ....
 C#4|..|C#2 2AEF ....|--- .... ....|C#5 UFFF ....
....|..|C#4 3F1A ....|R-- .... ....|R-- .... ....
....|..|C#2 2FEA ....|C#4 2FAA ....|E-4 3F7A ....
....|..|E-3 3F7F ....|--- .... ....|--- .... ....
 C#4|..|C#2 2AEF ....|--- .... ....|E-4 3F7F ....
....|..|C#4 3F1A ....|--- .... ....|--- .... ....
....|..|C#2 2FEA ....|--- .... ....|--- .... ....
....|..|C#4 3F1F ....|R-- .... ....|R-- .... ....
 C#4|..|C#2 2AEF ....|C#4 2FA7 ....|E-4 3F7F ....
....|..|E-3 3F7A ....|--- .... ....|E-4 3F7F ....
....|..|C#2 2FEA ....|--- .... ....|E-4 3F7A ....
....|..|B-3 3F4F ....|R-- .... ....|R-- .... ....
 B-3|..|B-1 2AEF ....|B-3 2F4F ....|D#4 3F1F ....
....|..|C#4 3F1A ....|--- .... ....|--- .... ....
....|..|C#2 2FEA ....|--- .... ....|E-4 3F7A ....
....|..|B-3 3F4F ....|--- .... ....|E-4 3F7A ....
 B-3|..|B-1 2AEF ....|--- .... ....|D#5 UFF7 ....
....|..|B-3 3F4A ....|R-- .... ....|D#4 3F.F ....
....|..|B-1 2FEA ....|B-3 2F4A ....|D#4 3F1A ....
....|..|B-3 3F4F ....|--- .... ....|--- .... ....
 B-3|..|B-1 2AEF ....|--- .... ....|D#4 3F1F ....
....|..|B-3 3F4A ....|--- .... ....|E-4 3F77 ....
....|..|B-1 2FEA ....|--- .... ....|R-- .... ....
....|..|B-3 3F4F ....|R-- .... ....|D#4 3F.A ....
 B-3|..|B-1 2AEF ....|B-3 2F47 ....|C#4 3F1F ....
....|..|B-3 3F4A ....|--- .... ....|--- .... ....
....|..|B-1 2FEA ....|--- .... ....|D#4 3F1A ....
....|..|A-3 3F4F ....|R-- .... ....|--- .... ....
 A-3|..|A-1 2AEF ....|C#4 2F1F ....|R-- .... ....
....|..|B-3 3F4A ....|--- .... ....|D#4 3F.7 ....
....|..|B-1 2FEA ....|--- .... ....|C#4 3F1A ....
....|..|A-3 3F4F ....|--- .... ....|--- .... ....
 A-3|..|A-1 2AEF ....|--- .... ....|C#4 3F1F ....
....|..|A-3 3F4A ....|R-- .... ....|R-- .... ....
....|..|A-1 2FEA ....|C#4 2F1A ....|R-- .... ....
....|..|A-3 3F7F ....|--- .... ....|--- .... ....
 A-3|..|A-1 2AEF ....|--- .... ....|C#4 3F1F ....
....|..|A-3 3F4A ....|--- .... ....|C#4 3F1F ....
....|..|A-1 2FEA ....|--- .... ....|C#4 3F1A ....
....|..|A-3 3F4F ....|R-- .... ....|--- .... ....
 A-3|..|A-1 2AEF ....|C#4 2F17 ....|E-5 UFFF ....
....|..|A-3 3F7A ....|--- .... ....|--- .... ....
....|..|A-1 2FEA ....|--- .... ....|C#4 3F1F ....
....|..|B-3 3F4F ....|R-- .... ....|C#4 3F1A ....

[Pattern31]
 B-3|..|B-1 2AEF ....|B-3 2F4F ....|F#5 UFFF ....
....|..|A-3 3F4A ....|--- .... ....|R-- .... ....
....|..|A-1 2FEA ....|--- .... ....|C#4 3F1A ....
....|..|B-3 3F4F ....|--- .... ....|R-- .... ....
 B-3|..|B-1 2AEF ....|--- .... ....|E-5 UFFF ....
....|..|B-3 3F4A ....|R-- .... ....|E-4 3F.F ....
....|..|B-1 2FEA ....|B-3 2F4A ....|D#4 3F1A ....
....|..|B-3 3F4F ....|--- .... ....|R-- .... ....
 B-3|..|B-1 2AEF ....|--- .... ....|D#5 UFFF ....
....|..|B-3 3F4A ....|--- .... ....|--- .... ....
....|..|B-1 2FEA ....|--- .... ....|C#4 3F17 ....
....|..|B-3 3F4F ....|R-- .... ....|E-4 3F.A ....
 B-3|..|B-1 2AEF ....|B-3 2F47 ....|B-4 UFFF ....
....|..|B-3 3F4A ....|--- .... ....|E-4 3F.F ....
....|..|B-1 2FEA ....|--- .... ....|D#4 3F1A ....
....|..|C#4 3F1F ....|R-- .... ....|R-- .... ....
 C#4|..|C#2 2AEF ....|C#4 2FAF ....|C#5 UFFF ....
....|..|B-3 3F4A ....|--- .... ....|E-4 3F.7 ....
....|..|B-1 2FEA ....|--- .... ....|C#4 3F1A ....
....|..|C#4 3F1F ....|--- .... ....|E-4 3F.A ....
 C#4|..|C#2 2AEF ....|--- .... ....|E-5 UFF7 ....
....|..|C#4 3F1A ....|R-- .... ....|--- .... ....
....|..|C#2 2FEA ....|C#4 2FAA ....|R-- .... ....
....|..|E-3 3F7F ....|--- .... ....|R-- .... ....
 C#4|..|C#2 2AEF ....|--- .... ....|E-4 3F7F ....
....|..|C#4 3F1A ....|--- .... ....|E-4 3F.7 ....
....|..|C#2 2FEA ....|--- .... ....|R-- .... ....
....|..|C#4 3F1F ....|R-- .... ....|R-- .... ....
 C#4|..|C#2 2AEF ....|C#4 2FA7 ....|E-4 3F7F ....
....|..|E-3 3F7A ....|--- .... ....|--- .... ....
....|..|C#2 2FEA ....|--- .... ....|E-4 3F7A ....
....|..|B-3 3F4F ....|R-- .... ....|R-- .... ....
 B-3|..|B-1 2AEF ....|B-3 2F4F ....|D#4 3F1F ....
....|..|C#4 3F1A ....|--- .... ....|R-- .... ....
....|..|C#2 2FEA ....|--- .... ....|E-4 3F7A ....
....|..|B-3 3F4F ....|--- .... ....|R-- .... ....
 B-3|..|B-1 2AEF ....|--- .... ....|B-4 UFF7 ....
....|..|B-3 3F4A ....|R-- .... ....|R-- .... ....
....|..|B-1 2FEA ....|B-3 2F4A ....|D#4 3F1A ....
....|..|B-3 3F4F ....|--- .... ....|R-- .... ....
 B-3|..|B-1 2AEF ....|--- .... ....|D#4 3F1F ....
....|..|B-3 3F4A ....|--- .... ....|--- .... ....
....|..|B-1 2FEA ....|--- .... ....|R-- .... ....
....|..|B-3 3F4F ....|R-- .... ....|R-- .... ....
 B-3|..|B-1 2AEF ....|B-3 2F47 ....|C#4 3F1F ....
....|..|B-3 3F4A ....|--- .... ....|--- .... ....
....|..|B-1 2FEA ....|--- .... ....|D#4 3F1A ....
....|..|A-3 3F4F ....|R-- .... ....|--- .... ....
 A-3|..|A-1 2AEF ....|C#4 2F1F ....|R-- .... ....
....|..|B-3 3F4A ....|--- .... ....|R-- .... ....
....|..|B-1 2FEA ....|--- .... ....|C#4 3F1A ....
....|..|A-3 3F4F ....|--- .... ....|--- .... ....
 A-3|..|A-1 2AEF ....|--- .... ....|C#4 3F1F ....
....|..|A-3 3F4A ....|R-- .... ....|--- .... ....
....|..|A-1 2FEA ....|C#4 2F1A ....|R-- .... ....
....|..|A-3 3F7F ....|--- .... ....|R-- .... ....
 A-3|..|A-1 2AEF ....|--- .... ....|C#4 3F1F ....
....|..|A-3 3F4A ....|--- .... ....|C#4 3F1F ....
....|..|A-1 2FEA ....|--- .... ....|C#4 3F1A ....
....|..|A-3 3F4F ....|R-- .... ....|--- .... ....
 A-3|..|A-1 2AEF ....|C#4 2F17 ....|E-5 UFFF ....
....|..|A-3 3F7A ....|--- .... ....|C#4 3F1F ....
....|..|A-1 2FEA ....|--- .... ....|C#4 3F1F ....
....|..|B-3 3F4F ....|C#4 2F.F ....|C#4 3F1A ....

[Pattern32]
 B-3|..|B-1 2AEF ....|B-3 2F4F ....|F#5 UFFF ....
....|..|A-3 3F4A ....|--- .... ....|R-- .... ....
....|..|A-1 2FEA ....|--- .... ....|C#4 3F1A ....
....|..|B-3 3F4F ....|--- .... ....|C#4 3F1A ....
 B-3|..|B-1 2AEF ....|--- .... ....|E-5 UFFF ....
....|..|B-3 3F4A ....|C#4 2F.A ....|E-4 3F.F ....
....|..|B-1 2FEA ....|B-3 2F4A ....|D#4 3F1A ....
....|..|B-3 3F4F ....|--- .... ....|R-- .... ....
 B-3|..|B-1 2AEF ....|--- .... ....|D#5 UFFF ....
....|..|B-3 3F4A ....|--- .... ....|C#4 3F17 ....
....|..|B-1 2FEA ....|--- .... ....|C#4 3F17 ....
....|..|B-3 3F4F ....|C#4 2F.7 ....|E-4 3F.A ....
 B-3|..|B-1 2AEF ....|B-3 2F47 ....|B-4 UFFF ....
....|..|B-3 3F4A ....|--- .... ....|F#4 3F.F ....
....|..|B-1 2FEA ....|--- .... ....|D#4 3F1A ....
....|..|C#4 3F1F ....|R-- .... ....|R-- .... ....
 C#4|..|C#2 2AEF ....|C#4 2FAF ....|C#5 UFFF ....
....|..|B-3 3F4A ....|--- .... ....|E-4 3F.7 ....
....|..|B-1 2FEA ....|--- .... ....|D#4 3F1A ....
....|..|E-3 3F7F ....|--- .... ....|F#4 3F.A ....
 C#4|..|C#2 2AEF ....|--- .... ....|E-5 UFF7 ....
....|..|C#4 3F1A ....|R-- .... ....|--- .... ....
....|..|C#2 2FEA ....|C#4 2FAA ....|R-- .... ....
....|..|C#4 3F1F ....|--- .... ....|R-- .... ....
 C#4|..|C#2 2AEF ....|--- .... ....|E-4 3F7F ....
....|..|E-3 3F7A ....|--- .... ....|F#4 3F.7 ....
....|..|C#2 2FEA ....|--- .... ....|R-- .... ....
....|..|C#4 3F1F ....|R-- .... ....|R-- .... ....
 C#4|..|C#2 2AEF ....|C#4 2FA7 ....|E-4 3F7F ....
....|..|C#4 3F1A ....|--- .... ....|--- .... ....
....|..|C#2 2FEA ....|--- .... ....|E-4 3F7A ....
....|..|B-3 3F7F ....|R-- .... ....|E-4 3F.F ....
 B-3|..|B-1 2AEF ....|B-3 2F4F ....|D#4 3F1F ....
....|..|C#4 3F1A ....|--- .... ....|R-- .... ....
....|..|C#2 2FEA ....|--- .... ....|E-4 3F7A ....
....|..|B-3 3F4F ....|--- .... ....|R-- .... ....
 B-3|..|B-1 2AEF ....|--- .... ....|B-4 UFF7 ....
....|..|B-3 3F7A ....|R-- .... ....|D#4 3F.F ....
....|..|B-1 2FEA ....|B-3 2F4A ....|D#4 3F1A ....
....|..|B-3 3F4F ....|--- .... ....|R-- .... ....
 B-3|..|B-1 2AEF ....|--- .... ....|D#4 3F1F ....
....|..|B-3 3F4A ....|--- .... ....|--- .... ....
....|..|B-1 2FEA ....|--- .... ....|R-- .... ....
....|..|B-3 3F4F ....|R-- .... ....|E-4 3F.7 ....
 B-3|..|B-1 2AEF ....|B-3 2F47 ....|C#4 3F1F ....
....|..|B-3 3F4A ....|--- .... ....|--- .... ....
....|..|B-1 2FEA ....|--- .... ....|D#4 3F1A ....
....|..|A-3 3F4F ....|R-- .... ....|--- .... ....
 A-3|..|A-1 2AEF ....|C#4 2F1F ....|R-- .... ....
....|..|B-3 3F4A ....|--- .... ....|D#4 3F.7 ....
....|..|B-1 2FEA ....|--- .... ....|C#4 3F1A ....
....|..|A-3 3F7F ....|--- .... ....|--- .... ....
 A-3|..|A-1 2AEF ....|--- .... ....|C#4 3F1F ....
....|..|A-3 3F4A ....|R-- .... ....|--- .... ....
....|..|A-1 2FEA ....|C#4 2F1A ....|R-- .... ....
....|..|A-3 3F7F ....|--- .... ....|R-- .... ....
 A-3|..|A-1 2AEF ....|--- .... ....|C#4 3F1F ....
....|..|A-3 3F7A ....|--- .... ....|C#4 3F1F ....
....|..|A-1 2FEA ....|--- .... ....|C#4 3F1A ....
....|..|A-3 3F4F ....|R-- .... ....|--- .... ....
 A-3|..|A-1 2AEF ....|C#4 2F17 ....|E-5 UFFF ....
....|..|A-3 3F7A ....|--- .... ....|--- .... ....
....|..|A-1 2FEA ....|--- .... ....|C#4 3F1F ....
....|..|B-3 3F4F ....|R-- .... ....|C#4 3F1A ....

[Pattern33]
 B-3|..|B-1 2AEF ....|B-3 2F4F ....|F#5 UFFF ....
....|..|A-3 3F4A ....|--- .... ....|R-- .... ....
....|..|A-1 2FEA ....|--- .... ....|C#4 3F1A ....
....|..|B-3 3F4F ....|--- .... ....|R-- .... ....
 B-3|..|B-1 2AEF ....|--- .... ....|E-5 UFFF ....
....|..|B-3 3F4A ....|R-- .... ....|E-4 3F.F ....
....|..|B-1 2FEA ....|B-3 2F4A ....|D#4 3F1A ....
....|..|B-3 3F4F ....|--- .... ....|R-- .... ....
 B-3|..|B-1 2AEF ....|--- .... ....|F#5 UFFF ....
....|..|B-3 3F4A ....|--- .... ....|--- .... ....
....|..|B-1 2FEA ....|--- .... ....|C#4 3F17 ....
....|..|B-3 3F4F ....|R-- .... ....|E-4 3F.A ....
 B-3|..|B-1 2AEF ....|B-3 2F47 ....|E-5 UFFF ....
....|..|B-3 3F4A ....|--- .... ....|E-4 3F.F ....
....|..|B-1 2FEA ....|--- .... ....|D#4 3F1A ....
....|..|E-3 3F8F ....|R-- .... ....|R-- .... ....
 A-3|..|A-1 2AEF ....|C#4 2FAF ....|G#5 UFFF ....
....|..|B-3 3F4A ....|--- .... ....|E-4 3F.7 ....
....|..|B-1 2FEA ....|--- .... ....|C#4 3F1A ....
....|..|G#3 3F9F ....|--- .... ....|E-4 3F.A ....
 A-3|..|A-1 2AEF ....|--- .... ....|E-5 UFF7 ....
....|..|E-3 3F8A ....|R-- .... ....|--- .... ....
....|..|A-1 2FEA ....|C#4 2FAA ....|E-4 3F7A ....
....|..|G#3 3F9F ....|--- .... ....|R-- .... ....
 A-3|..|A-1 2AEF ....|--- .... ....|F#5 UFF7 ....
....|..|G#3 3F9A ....|--- .... ....|E-4 3F.7 ....
....|..|A-1 2FEA ....|--- .... ....|R-- .... ....
....|..|G#3 3F9F ....|R-- .... ....|R-- .... ....
 A-3|..|A-1 2AEF ....|C#4 2FA7 ....|E-5 UFF7 ....
....|..|G#3 3F9A ....|--- .... ....|--- .... ....
....|..|A-1 2FEA ....|--- .... ....|R-- .... ....
....|..|G#3 3F9F ....|--- .... ....|--- .... ....
 A-3|..|A-1 2AEF ....|--- .... ....|F#5 UFF7 ....
....|..|G#3 3F9A ....|--- .... ....|--- .... ....
....|..|A-1 2FEA ....|--- .... ....|--- .... ....
....|..|G#3 3F9F ....|--- .... ....|R-- .... ....
 A-3|..|A-1 2AEF ....|--- .... ....|E-5 UFF7 ....
....|..|G#3 3F9A ....|--- .... ....|--- .... ....
....|..|A-1 2FEA ....|--- .... ....|R-- .... ....
....|..|G#3 3F9F ....|--- .... ....|--- .... ....
 A-3|..|A-1 2AEF ....|--- .... ....|G#5 UFF7 ....
....|..|G#3 3F9A ....|--- .... ....|--- .... ....
....|..|A-1 2FEA ....|--- .... ....|--- .... ....
....|..|E-3 3F8F ....|--- .... ....|--- .... ....
 A-3|..|A-1 2AEF ....|--- .... ....|--- .... ....
....|..|G#3 3F9A ....|--- .... ....|--- .... ....
....|..|A-1 2FEA ....|--- .... ....|--- .... ....
....|..|G#3 3F9F ....|--- .... ....|--- .... ....
 A-3|..|A-1 2AEF ....|--- .... ....|--- .... ....
....|..|E-3 3F8A ....|--- .... ....|--- .... ....
....|..|A-1 2FEA ....|--- .... ....|--- .... ....
....|..|E-3 3F8F ....|--- .... ....|--- .... ....
 A-3|..|A-1 2AEF ....|--- .... ....|--- .... ....
....|..|G#3 3F9A ....|--- .... ....|--- .... ....
....|..|A-1 2FEA ....|--- .... ....|--- .... ....
....|..|G#3 3F9F ....|--- .... ....|--- .... ....
 A-3|..|A-1 2AEF ....|--- .... ....|--- .... ....
....|..|E-3 3F8A ....|--- .... ....|--- .... ....
....|..|A-1 2FEA ....|--- .... ....|--- .... ....
....|..|G#3 3F9F ....|--- .... ....|--- .... ....
 A-3|..|A-1 2AEF ....|--- .... ....|--- .... ....
....|..|G#3 3F9A ....|--- .... ....|--- .... ....
....|..|A-1 2FEA ....|--- .... ....|--- .... ....
....|..|E-3 3F87 ....|--- .... ....|--- .... ....

[Pattern34]
 A-3|..|A-1 2AEF ....|--- .... ....|--- .... ....
....|..|G#3 3F9A ....|--- .... ....|--- .... ....
....|..|A-1 2FEA ....|--- .... ....|--- .... ....
....|..|G#3 3F9F ....|--- .... ....|--- .... ....
 A-3|..|A-1 2AEF ....|--- .... ....|--- .... ....
....|..|--- .... ....|--- .... ....|--- .... ....
....|..|A-1 2FEA ....|--- .... ....|--- .... ....
....|..|E-3 3F8F ....|--- .... ....|--- .... ....
 A-3|..|A-1 2AEF ....|--- .... ....|--- .... ....
....|..|G#3 3F9A ....|--- .... ....|--- .... ....
....|..|A-1 2FEA ....|--- .... ....|--- .... ....
....|..|E-3 3F8F ....|--- .... ....|--- .... ....
 A-3|..|A-1 2AEF ....|--- .... ....|--- .... ....
....|..|E-3 3F8A ....|--- .... ....|--- .... ....
....|..|A-1 2FEA ....|--- .... ....|--- .... ....
....|..|C#4 3F1F ....|R-- .... ....|R-- .... ....
 C#4|..|C#2 2AEF ....|C#4 2FAF ....|R-- .... ....
....|..|E-3 3F8A ....|--- .... ....|--- .... ....
....|..|A-1 2FEA ....|--- .... ....|--- .... ....
....|..|E-3 3F87 ....|--- .... ....|--- .... ....
....|..|A-1 2FE7 ....|--- .... ....|--- .... ....
....|..|C#4 3F1A ....|R-- .... ....|R-- .... ....
....|..|C#2 2FEA ....|C#4 2FAA ....|--- .... ....
....|..|E-3 3F87 ....|--- .... ....|--- .... ....
....|..|A-1 2FE7 ....|--- .... ....|--- .... ....
....|..|R-- .... ....|--- .... ....|--- .... ....
....|..|--- .... ....|--- .... ....|--- .... ....
....|..|C#4 3F17 ....|R-- .... ....|R-- .... ....
....|..|C#2 2FE7 ....|C#4 2FA7 ....|R-- .... ....
....|..|--- .... ....|--- .... ....|--- .... ....
....|..|--- .... ....|--- .... ....|--- .... ....
....|..|--- .... ....|--- .... ....|--- .... ....
....|..|--- .... ....|--- .... ....|--- .... ....
....|..|--- .... ....|--- .... ....|--- .... ....
....|..|--- .... ....|--- .... ....|--- .... ....
....|..|--- .... ....|--- .... ....|--- .... ....
....|..|--- .... ....|--- .... ....|--- .... ....
....|..|--- .... ....|--- .... ....|--- .... ....
....|..|--- .... ....|--- .... ....|--- .... ....
....|..|--- .... ....|--- .... ....|--- .... ....
....|..|--- .... ....|--- .... ....|R-- .... ....
....|..|R-- .... ....|R-- .... ....|--- .... ....
....|..|--- .... ....|--- .... ....|--- .... ....
....|..|--- .... ....|--- .... ....|--- .... ....
....|..|--- .... ....|--- .... ....|--- .... ....
....|..|--- .... ....|--- .... ....|--- .... ....
....|..|--- .... ....|--- .... ....|--- .... ....
....|..|R-- .... ....|R-- .... ....|--- .... ....
....|..|--- .... ....|--- .... ....|--- .... ....
....|..|--- .... ....|--- .... ....|--- .... ....
....|..|--- .... ....|--- .... ....|--- .... ....
....|..|--- .... ....|--- .... ....|--- .... ....
....|..|--- .... ....|--- .... ....|--- .... ....

[Pattern35]
....|..|--- .... ....|--- .... ....|--- .... ....
....|..|--- .... ....|--- .... ....|--- .... ....
....|..|--- .... ....|--- .... ....|--- .... ....
....|..|--- .... ....|--- .... ....|--- .... ....
....|..|--- .... ....|--- .... ....|--- .... ....
....|..|--- .... ....|--- .... ....|--- .... ....
....|..|--- .... ....|--- .... ....|--- .... ....
....|..|--- .... ....|--- .... ....|--- .... ....
....|..|--- .... ....|--- .... ....|--- .... ....
....|..|--- .... ....|--- .... ....|--- .... ....
....|..|--- .... ....|--- .... ....|--- .... ....
....|..|--- .... ....|--- .... ....|--- .... ....
....|..|--- .... ....|--- .... ....|--- .... ....
....|..|--- .... ....|--- .... ....|--- .... ....
....|..|--- .... ....|--- .... ....|--- .... ....
....|..|--- .... ....|--- .... ....|--- .... ....
....|..|--- .... ....|--- .... ....|--- .... ....
....|..|--- .... ....|--- .... ....|--- .... ....
....|..|--- .... ....|--- .... ....|--- .... ....
....|..|--- .... ....|--- .... ....|--- .... ....
....|..|--- .... ....|--- .... ....|--- .... ....
....|..|--- .... ....|--- .... ....|--- .... ....
....|..|--- .... ....|--- .... ....|--- .... ....
....|..|--- .... ....|--- .... ....|--- .... ....
....|..|--- .... ....|--- .... ....|--- .... ....
....|..|--- .... ....|--- .... ....|--- .... ....
....|..|--- .... ....|--- .... ....|--- .... ....
....|..|--- .... ....|--- .... ....|--- .... ....
....|..|--- .... ....|--- .... ....|--- .... ....
....|..|--- .... ....|--- .... ....|--- .... ....
....|..|--- .... ....|--- .... ....|--- .... ....
....|..|--- .... ....|--- .... ....|--- .... ....
....|..|--- .... ....|--- .... ....|--- .... ....
....|..|--- .... ....|--- .... ....|--- .... ....
....|..|--- .... ....|--- .... ....|--- .... ....
....|..|--- .... ....|--- .... ....|--- .... ....
....|..|--- .... ....|--- .... ....|--- .... ....
....|..|--- .... ....|--- .... ....|--- .... ....
....|..|--- .... ....|--- .... ....|--- .... ....
....|..|--- .... ....|--- .... ....|--- .... ....
....|..|--- .... ....|--- .... ....|--- .... ....
....|..|--- .... ....|--- .... ....|--- .... ....
....|..|--- .... ....|--- .... ....|--- .... ....
....|..|--- .... ....|--- .... ....|--- .... ....
....|..|--- .... ....|--- .... ....|--- .... ....
....|..|--- .... ....|--- .... ....|--- .... ....
....|..|--- .... ....|--- .... ....|--- .... ....
....|..|--- .... ....|--- .... ....|--- .... ....
....|..|--- .... ....|--- .... ....|--- .... ....
....|..|--- .... ....|--- .... ....|--- .... ....
....|..|--- .... ....|--- .... ....|--- .... ....
....|..|--- .... ....|--- .... ....|--- .... ....
....|..|--- .... ....|--- .... ....|--- .... ....
....|..|--- .... ....|--- .... ....|--- .... ....
....|..|--- .... ....|--- .... ....|--- .... ....
....|..|--- .... ....|--- .... ....|--- .... ....
....|..|--- .... ....|--- .... ....|--- .... ....
....|..|--- .... ....|--- .... ....|--- .... ....
....|..|--- .... ....|--- .... ....|--- .... ....
....|..|--- .... ....|--- .... ....|--- .... ....
....|..|--- .... ....|--- .... ....|--- .... ....
....|..|--- .... ....|--- .... ....|--- .... ....
....|..|--- .... ....|--- .... ....|--- .... ....
....|..|--- .... ....|--- .... ....|--- .... ....

