[Module]
VortexTrackerII=0
Version=3.5
Title=3me[2f],2mu[3],1p[6]
Author=oisee ^ 4d 29.05.2010
NoteTable=4
ChipFreq=1750000
Speed=4
PlayOrder=L0,1,2,3,4,5,3,4,8,9,10,11,12,13,14,15,16,17,12,13,14,21


[Ornament1]
L0,0,3,3,7,7,10,10

[Ornament2]
L0,0,3,3

[Ornament3]
L0,0,4,4,7,7,10,10

[Ornament4]
L0,0,4,4,7,7,11,11

[Ornament5]
L0,0,4,4


[Sample1]
TnE +000_ +00_ F_
TnE +000_ +00_ F_
TnE +000_ +00_ F_
TnE +000_ +00_ D_
TnE +000_ +00_ B_
TnE +000_ +00_ B_ L

[Sample2]
TnE +000_ +00_ F_ L

[Sample3]
TnE +001_ +00_ F_
TnE +002_ +00_ F_
TnE +001_ +00_ E_
TnE +002_ +00_ E_
TnE +000_ +00_ E_ L
TnE -001_ +00_ E_
TnE -002_ +00_ E_
TnE -001_ +00_ E_
TnE +000_ +00_ E_
TnE +001_ +00_ E_
TnE +002_ +00_ E_
TnE +001_ +00_ E_

[Sample4]
TnE +002_ +00_ D_
TnE +002_ +00_ D_
TnE +002_ +00_ C_
TnE +002_ +00_ B_
TnE +002_ +00_ A_ L
TnE +002_ +00_ A_
TnE +002_ +00_ A_
TnE +002_ +00_ A_
TnE +002_ +00_ A_
TnE +002_ +00_ A_
TnE +002_ +00_ A_
TnE +002_ +00_ A_

[Sample5]
TnE +000_ +00_ F_
TnE +000_ +00_ F_
tne +000_ +00_ 0_ L

[Sample6]
TnE -001_ +00_ F_ L

[Sample7]
TnE +006_ +00_ F_ L

[Sample8]
tNe +000_ +00_ F_
tNe +000_ +00_ B_
tNe +000_ +00_ 7_
tNe +000_ +00_ 6- L

[Sample9]
TnE +080_ +00_ F_
TnE +100_ +00_ E_
TnE +180_ +00_ E_
TnE +200_ +00_ E_
TnE +240_ +00_ D_
TnE +280_ +00_ D_
TnE +2C0_ +00_ D_
TnE +300_ +00_ C_
TnE +300_ +00_ C_
TnE +340_ +00_ C_
TnE +340_ +00_ C_
TnE +380_ +00_ B_
TnE +380_ +00_ B_
TnE +400_ +00_ B_
TnE +400_ +00_ B_
TnE +480_ +00_ A_
TnE +500_ +00_ 9_
TnE +580_ +00_ 7_
TnE +600_ +00_ 4_
TnE +680_ +00_ 1_
TnE +000_ +00_ 0_ L

[Sample10]
Tne +1C0_ +00_ F_
Tne +280_ +00_ E_
Tne +380_ +00_ C_
Tne +440_ +00_ A_
Tne +480_ +00_ 8_
TnE +000_ +00_ 0_ L

[Sample11]
TNe +200_ -0A_ F_
tNe +000_ +0F_ A_
TNe +200_ -07_ E_
tNe +000_ +0E_ B- L

[Sample12]
TNE +0A0_ +05_ F_
TNE +140_ +02_ D_
TNE +140_ +02_ B_
TNE +100_ +00_ A_ L
TNE +140_ +00_ A_
TNE +200_ +00_ A-

[Sample13]
Tne +200_ +00_ F_
Tne +2C0_ +00_ F_
Tne +380_ +00_ E_
Tne +500_ +00_ C_
Tne +520_ +00_ 9_
tne +000_ +00_ 0_ L

[Sample14]
TNE -100_ +00_ F_
TNE -100_ +00_ D_
TNE -100_ +00_ A_
TNE -100_ +00_ 5_
tne +000_ +00_ 0_ L

[Sample15]
TNE -100_ +00_ 5_
TNE -100_ +00_ 8_
TNE -100_ +00_ B_
TNE -100_ +00_ F_
TNe -100_ +00_ 9- L

[Sample16]
TnE +000_ +00_ C_
TnE +000_ +00_ E_
TnE +000_ +00_ F_
TnE +000_ +00_ F_
TnE +000_ +00_ E_
TnE +000_ +00_ D_
TnE +000_ +00_ C_
TnE +000_ +00_ C_ L
TnE +001_ +00_ C_
TnE +002_ +00_ C_
TnE +003_ +00_ C_
TnE +001_ +00_ C_
TnE +000_ +00_ C_
TnE -001_ +00_ C_
TnE -002_ +00_ C_
TnE -003_ +00_ C_
TnE -001_ +00_ C_
TnE +000_ +00_ C_
TnE +000_ +00_ C_

[Sample17]
Tne +1C0_ +00_ F_
Tne +280_ +00_ D_
Tne +380_ +00_ 7_
TNE +000_ +00_ 0_ L

[Sample18]
TnE -00C_ +00_ 0_ L

[Sample19]
TNe +000_ +00_ F_
TNe +000_ +00_ C_
TNe +000_ +00_ 6_
TNe +000_ +01_ A- L

[Sample20]
TNE +140_ +00_ F_
tNE +000_ +00_ B- L

[Sample21]
tNE +000_ +00_ D_
tNE +000_ +00_ 8_
tNE +000_ +00_ 1_
TNE +000_ +00_ 0_ L

[Sample22]
TnE +000_ +00_ D_ L
TnE +000_ +00_ D_
tne +000_ +00_ 9_
tne +000_ +00_ 9_
TnE +000_ +00_ D_
TnE +000_ +00_ D_
tne +000_ +00_ 9_
tne +000_ +00_ 9_
TnE +000_ +00_ D_
TnE +000_ +00_ D_
TnE +000_ +00_ D_
TnE +000_ +00_ D_
TnE +000_ +00_ D_
TnE +000_ +00_ D_
tne +000_ +00_ 9_
tne +000_ +00_ 9_

[Sample23]
TnE +000_ +00_ F_ L
TnE +010_ +01_ F_
TnE +010_ +01_ F_
TnE +010_ +01_ F_
TnE +010_ +01_ F_
TnE +000_ +00_ F_
TnE +000_ +00_ F_
TnE -010_ -01_ F_
TnE -010_ -01_ F_
TnE -010_ -01_ F_
TnE -010_ -01_ F_
TnE +000_ +00_ F_

[Sample24]
TNe +000_ -01_ C_
TNe +000_ -01_ D_
TNe +000_ -01_ E_
TNe +000_ -01_ F_
TNe +000_ -01_ F_
TNe +000_ -01_ F_
TNe +000_ -01_ F_
TNe +000_ -01_ F_
TNe +000_ -01_ E_
TNe +000_ -01_ E_
TNe +000_ -01_ E_
TNe +000_ -01_ F_
TNe +000_ -01_ F_ L

[Sample25]
TNE +000_ +00_ F_
TNE +000_ +00_ F_ L
TNE +000_ +00_ F_
TNE +000_ +00_ F_
TNE +000_ +00_ F-

[Sample26]
tne +000_ +00_ 0_ L

[Sample27]
TnE +100_ +05_ F_
TnE +200_ +02_ A_
TnE +300_ +02_ 7_
TNE +400_ +00_ 3- L

[Sample28]
tne +000_ +00_ 0_ L

[Sample29]
tnE +000_ +00_ 0_ L

[Sample30]
TNE +000_ +00_ C+ L

[Sample31]
TNe +1C0_ +00_ F_
Tne +280_ +00_ E_
Tne +380_ +00_ C_
Tne +440_ +00_ A_
Tne +480_ +00_ 8_
TnE +000_ +00_ 0_ L

[Pattern0]
 B-3|..|B-1 2AFF ....|--- .... ....|A-3 6F1F ....
....|..|--- .... ....|--- .... ....|--- .... ....
....|..|--- .... ....|--- .... ....|--- .... ....
....|..|--- .... ....|--- .... ....|--- .... ....
....|..|--- .... ....|--- .... ....|--- .... ....
....|..|--- .... ....|--- .... ....|--- .... ....
....|..|--- .... ....|--- .... ....|--- .... ....
....|..|--- .... ....|--- .... ....|--- .... ....
....|..|--- .... ....|--- .... ....|--- .... ....
....|..|--- .... ....|--- .... ....|--- .... ....
....|..|--- .... ....|--- .... ....|--- .... ....
....|..|R-- .... ....|--- .... ....|--- .... ....
 B-3|..|B-1 2AFF ....|--- .... ....|--- .... ....
....|..|--- .... ....|--- .... ....|--- .... ....
....|..|B-1 2FFA ....|--- .... ....|A-3 6F1A ....
....|..|--- .... ....|--- .... ....|--- .... ....
....|..|--- .... ....|--- .... ....|--- .... ....
....|..|--- .... ....|--- .... ....|--- .... ....
....|..|--- .... ....|--- .... ....|--- .... ....
....|..|--- .... ....|--- .... ....|--- .... ....
....|..|--- .... ....|--- .... ....|--- .... ....
....|..|--- .... ....|--- .... ....|--- .... ....
....|..|--- .... ....|--- .... ....|--- .... ....
....|..|R-- .... ....|--- .... ....|--- .... ....
 B-3|..|B-1 2AFF ....|--- .... ....|--- .... ....
....|..|R-- .... ....|--- .... ....|--- .... ....
....|..|B-1 2FFA ....|--- .... ....|--- .... ....
....|..|--- .... ....|--- .... ....|--- .... ....
....|..|B-1 2FF7 ....|--- .... ....|A-3 6F17 ....
....|..|--- .... ....|--- .... ....|--- .... ....
....|..|--- .... ....|--- .... ....|--- .... ....
....|..|--- .... ....|--- .... ....|--- .... ....
....|..|--- .... ....|--- .... ....|--- .... ....
....|..|--- .... ....|--- .... ....|--- .... ....
....|..|--- .... ....|--- .... ....|--- .... ....
....|..|R-- .... ....|--- .... ....|E-4 6F2F ....
 A-3|..|A-1 2AFF ....|--- .... ....|G-3 6F3F ....
....|..|R-- .... ....|--- .... ....|--- .... ....
....|..|B-1 2FFA ....|--- .... ....|--- .... ....
....|..|R-- .... ....|--- .... ....|--- .... ....
....|..|B-1 2FF7 ....|--- .... ....|--- .... ....
....|..|--- .... ....|--- .... ....|--- .... ....
....|..|--- .... ....|--- .... ....|--- .... ....
....|..|--- .... ....|--- .... ....|--- .... ....
....|..|--- .... ....|--- .... ....|--- .... ....
....|..|--- .... ....|--- .... ....|--- .... ....
....|..|--- .... ....|--- .... ....|--- .... ....
....|..|R-- .... ....|--- .... ....|--- .... ....

[Pattern1]
 A-3|..|A-1 2AFF ....|--- .... ....|--- .... ....
....|..|R-- .... ....|--- .... ....|E-4 6F2A ....
....|..|A-1 2FFA ....|--- .... ....|G-3 6F3A ....
....|..|R-- .... ....|--- .... ....|--- .... ....
....|..|B-1 2FF7 ....|--- .... ....|--- .... ....
....|..|--- .... ....|--- .... ....|--- .... ....
....|..|--- .... ....|--- .... ....|--- .... ....
....|..|--- .... ....|--- .... ....|--- .... ....
....|..|--- .... ....|--- .... ....|--- .... ....
....|..|--- .... ....|--- .... ....|--- .... ....
....|..|--- .... ....|--- .... ....|--- .... ....
....|..|R-- .... ....|--- .... ....|--- .... ....
 A-3|..|A-1 2AFF ....|--- .... ....|--- .... ....
....|..|R-- .... ....|--- .... ....|--- .... ....
....|..|A-1 2FFA ....|--- .... ....|--- .... ....
....|..|R-- .... ....|--- .... ....|E-4 6F27 ....
....|..|A-1 2FF7 ....|--- .... ....|G-3 6F37 ....
....|..|--- .... ....|--- .... ....|--- .... ....
....|..|--- .... ....|--- .... ....|--- .... ....
....|..|--- .... ....|--- .... ....|--- .... ....
....|..|--- .... ....|--- .... ....|--- .... ....
....|..|--- .... ....|--- .... ....|--- .... ....
....|..|--- .... ....|--- .... ....|--- .... ....
....|..|R-- .... ....|--- .... ....|B-3 6F2F ....
 G-3|..|G-1 2AFF ....|--- .... ....|F-3 6F4F ....
....|..|R-- .... ....|--- .... ....|--- .... ....
....|..|A-1 2FFA ....|--- .... ....|--- .... ....
....|..|R-- .... ....|--- .... ....|--- .... ....
....|..|A-1 2FF7 ....|--- .... ....|--- .... ....
....|..|--- .... ....|--- .... ....|--- .... ....
....|..|--- .... ....|--- .... ....|--- .... ....
....|..|--- .... ....|--- .... ....|--- .... ....
....|..|--- .... ....|--- .... ....|--- .... ....
....|..|--- .... ....|--- .... ....|--- .... ....
....|..|--- .... ....|--- .... ....|--- .... ....
....|..|R-- .... ....|--- .... ....|--- .... ....
 G-3|..|G-1 2AFF ....|--- .... ....|--- .... ....
....|..|R-- .... ....|--- .... ....|B-3 6F2A ....
....|..|G-1 2FFA ....|--- .... ....|F-3 6F4A ....
....|..|R-- .... ....|--- .... ....|--- .... ....
....|..|A-1 2FF7 ....|--- .... ....|--- .... ....
....|..|--- .... ....|--- .... ....|--- .... ....
....|..|--- .... ....|--- .... ....|--- .... ....
....|..|--- .... ....|--- .... ....|--- .... ....
....|..|--- .... ....|--- .... ....|--- .... ....
....|..|--- .... ....|--- .... ....|--- .... ....
....|..|--- .... ....|--- .... ....|--- .... ....
....|..|R-- .... ....|--- .... ....|--- .... ....

[Pattern2]
 G-3|..|G-1 2AFF ....|--- .... ....|--- .... ....
....|..|R-- .... ....|--- .... ....|--- .... ....
....|..|G-1 2FFA ....|--- .... ....|--- .... ....
....|..|R-- .... ....|--- .... ....|B-3 6F27 ....
....|..|G-1 2FF7 ....|--- .... ....|F-3 6F47 ....
....|..|--- .... ....|--- .... ....|--- .... ....
....|..|--- .... ....|--- .... ....|--- .... ....
....|..|--- .... ....|--- .... ....|--- .... ....
....|..|--- .... ....|--- .... ....|--- .... ....
....|..|--- .... ....|--- .... ....|--- .... ....
....|..|--- .... ....|--- .... ....|--- .... ....
....|..|R-- .... ....|--- .... ....|A-3 6F2F ....
 F#3|..|F#1 2AFF ....|--- .... ....|E-3 6F1F ....
....|..|R-- .... ....|--- .... ....|--- .... ....
....|..|G-1 2FFA ....|--- .... ....|--- .... ....
....|..|R-- .... ....|--- .... ....|--- .... ....
....|..|G-1 2FF7 ....|--- .... ....|--- .... ....
....|..|--- .... ....|--- .... ....|--- .... ....
....|..|--- .... ....|--- .... ....|--- .... ....
....|..|--- .... ....|--- .... ....|--- .... ....
....|..|--- .... ....|--- .... ....|--- .... ....
....|..|--- .... ....|--- .... ....|--- .... ....
....|..|--- .... ....|--- .... ....|--- .... ....
....|..|R-- .... ....|--- .... ....|--- .... ....
 F#3|..|F#1 2AFF ....|--- .... ....|--- .... ....
....|..|R-- .... ....|--- .... ....|A-3 6F2A ....
....|..|F#1 2FFA ....|--- .... ....|E-3 6F1A ....
....|..|R-- .... ....|--- .... ....|--- .... ....
....|..|G-1 2FF7 ....|--- .... ....|--- .... ....
....|..|--- .... ....|--- .... ....|--- .... ....
....|..|--- .... ....|--- .... ....|--- .... ....
....|..|--- .... ....|--- .... ....|--- .... ....
....|..|--- .... ....|--- .... ....|--- .... ....
....|..|--- .... ....|--- .... ....|--- .... ....
....|..|--- .... ....|--- .... ....|--- .... ....
....|..|R-- .... ....|--- .... ....|--- .... ....
 F#3|..|F#1 2AFF ....|--- .... ....|--- .... ....
....|..|R-- .... ....|--- .... ....|--- .... ....
....|..|F#1 2FFA ....|--- .... ....|--- .... ....
....|..|R-- .... ....|--- .... ....|A-3 6F27 ....
....|..|F#1 2FF7 ....|--- .... ....|E-3 6F17 ....
....|..|--- .... ....|--- .... ....|--- .... ....
....|..|--- .... ....|--- .... ....|--- .... ....
....|..|--- .... ....|--- .... ....|--- .... ....
....|..|--- .... ....|--- .... ....|--- .... ....
....|..|--- .... ....|--- .... ....|--- .... ....
....|..|--- .... ....|--- .... ....|--- .... ....
....|..|R-- .... ....|--- .... ....|G-3 6F5F ....

[Pattern3]
 B-3|..|B-1 2AFF ....|E-5 3F.F ....|A-3 6F1F ....
....|..|R-- .... ....|--- .... ....|--- .... ....
....|..|F#1 2FFA ....|--- .... ....|--- .... ....
....|..|R-- .... ....|--- .... ....|--- .... ....
....|..|F#1 2FF7 ....|--- .... ....|--- .... ....
....|..|--- .... ....|--- .... ....|--- .... ....
....|..|--- .... ....|--- .... ....|--- .... ....
....|..|--- .... ....|--- .... ....|--- .... ....
....|..|--- .... ....|--- .... ....|--- .... ....
....|..|--- .... ....|--- .... ....|--- .... ....
....|..|--- .... ....|--- .... ....|--- .... ....
....|..|R-- .... ....|E-5 3F.F ....|--- .... ....
 B-3|..|B-1 2AFF ....|F-5 3F.F ....|--- .... ....
....|..|R-- .... ....|--- .... ....|G-3 6F5A ....
....|..|B-1 2FFA ....|--- .... ....|A-3 6F1A ....
....|..|R-- .... ....|--- .... ....|--- .... ....
....|..|F#1 2FF7 ....|--- .... ....|--- .... ....
....|..|--- .... ....|--- .... ....|--- .... ....
....|..|--- .... ....|F-5 3F.F ....|--- .... ....
....|..|--- .... ....|--- .... ....|--- .... ....
....|..|--- .... ....|E-5 3F.F ....|--- .... ....
....|..|--- .... ....|--- .... ....|--- .... ....
....|..|--- .... ....|--- .... ....|--- .... ....
....|..|R-- .... ....|--- .... ....|--- .... ....
 B-3|..|B-1 2AFF ....|--- .... ....|--- .... ....
....|..|R-- .... ....|--- .... ....|--- .... ....
....|..|B-1 2FFA ....|--- .... ....|--- .... ....
....|..|R-- .... ....|--- .... ....|G-3 6F57 ....
....|..|B-1 2FF7 ....|--- .... ....|A-3 6F17 ....
....|..|--- .... ....|--- .... ....|--- .... ....
....|..|--- .... ....|--- .... ....|--- .... ....
....|..|--- .... ....|--- .... ....|--- .... ....
....|..|--- .... ....|--- .... ....|--- .... ....
....|..|--- .... ....|--- .... ....|--- .... ....
....|..|--- .... ....|--- .... ....|--- .... ....
....|..|R-- .... ....|--- .... ....|E-4 6F2F ....
 A-3|..|A-1 2AFF ....|--- .... ....|G-3 6F3F ....
....|..|R-- .... ....|--- .... ....|--- .... ....
....|..|B-1 2FFA ....|--- .... ....|--- .... ....
....|..|R-- .... ....|--- .... ....|--- .... ....
....|..|B-1 2FF7 ....|--- .... ....|--- .... ....
....|..|--- .... ....|--- .... ....|--- .... ....
....|..|--- .... ....|--- .... ....|--- .... ....
....|..|--- .... ....|--- .... ....|--- .... ....
....|..|--- .... ....|--- .... ....|--- .... ....
....|..|--- .... ....|--- .... ....|--- .... ....
....|..|--- .... ....|--- .... ....|--- .... ....
....|..|R-- .... ....|--- .... ....|--- .... ....

[Pattern4]
 A-3|..|A-1 2AFF ....|--- .... ....|--- .... ....
....|..|R-- .... ....|--- .... ....|E-4 6F2A ....
....|..|A-1 2FFA ....|--- .... ....|G-3 6F3A ....
....|..|R-- .... ....|--- .... ....|--- .... ....
....|..|B-1 2FF7 ....|--- .... ....|--- .... ....
....|..|--- .... ....|--- .... ....|--- .... ....
....|..|--- .... ....|--- .... ....|--- .... ....
....|..|--- .... ....|--- .... ....|--- .... ....
....|..|--- .... ....|--- .... ....|--- .... ....
....|..|--- .... ....|--- .... ....|--- .... ....
....|..|--- .... ....|--- .... ....|--- .... ....
....|..|R-- .... ....|--- .... ....|--- .... ....
 A-3|..|A-1 2AFF ....|--- .... ....|--- .... ....
....|..|R-- .... ....|--- .... ....|--- .... ....
....|..|A-1 2FFA ....|--- .... ....|--- .... ....
....|..|R-- .... ....|--- .... ....|E-4 6F27 ....
....|..|A-1 2FF7 ....|--- .... ....|G-3 6F37 ....
....|..|--- .... ....|--- .... ....|--- .... ....
....|..|--- .... ....|--- .... ....|--- .... ....
....|..|--- .... ....|--- .... ....|--- .... ....
....|..|--- .... ....|R-- .... ....|--- .... ....
....|..|--- .... ....|--- .... ....|--- .... ....
....|..|--- .... ....|--- .... ....|--- .... ....
....|..|R-- .... ....|--- .... ....|B-3 6F2F ....
 G-3|..|G-1 2AFF ....|E-5 3F.F ....|F-3 6F4F ....
....|..|R-- .... ....|--- .... ....|--- .... ....
....|..|A-1 2FFA ....|--- .... ....|--- .... ....
....|..|R-- .... ....|--- .... ....|--- .... ....
....|..|A-1 2FF7 ....|--- .... ....|--- .... ....
....|..|--- .... ....|--- .... ....|--- .... ....
....|..|--- .... ....|--- .... ....|--- .... ....
....|..|--- .... ....|--- .... ....|--- .... ....
....|..|--- .... ....|--- .... ....|--- .... ....
....|..|--- .... ....|--- .... ....|--- .... ....
....|..|--- .... ....|E-5 3F.F ....|--- .... ....
....|..|R-- .... ....|--- .... ....|--- .... ....
 G-3|..|G-1 2AFF ....|F-5 3F.F ....|--- .... ....
....|..|R-- .... ....|--- .... ....|B-3 6F2A ....
....|..|G-1 2FFA ....|--- .... ....|F-3 6F4A ....
....|..|R-- .... ....|--- .... ....|--- .... ....
....|..|A-1 2FF7 ....|--- .... ....|--- .... ....
....|..|--- .... ....|--- .... ....|--- .... ....
....|..|--- .... ....|F-5 3F.F ....|--- .... ....
....|..|--- .... ....|--- .... ....|--- .... ....
....|..|--- .... ....|E-5 3F.F ....|--- .... ....
....|..|--- .... ....|--- .... ....|--- .... ....
....|..|--- .... ....|--- .... ....|--- .... ....
....|..|R-- .... ....|--- .... ....|--- .... ....

[Pattern5]
 G-3|..|G-1 2AFF ....|G-5 3F.F ....|--- .... ....
....|..|R-- .... ....|--- .... ....|--- .... ....
....|..|G-1 2FFA ....|--- .... ....|--- .... ....
....|..|R-- .... ....|--- .... ....|B-3 6F27 ....
....|..|G-1 2FF7 ....|--- .... ....|F-3 6F47 ....
....|..|--- .... ....|--- .... ....|--- .... ....
....|..|--- .... ....|--- .... ....|--- .... ....
....|..|--- .... ....|--- .... ....|--- .... ....
....|..|--- .... ....|--- .... ....|--- .... ....
....|..|--- .... ....|--- .... ....|--- .... ....
....|..|--- .... ....|--- .... ....|--- .... ....
....|..|R-- .... ....|--- .... ....|A-3 6F2F ....
 F#3|..|F#1 2AFF ....|--- .... ....|E-3 6F1F ....
....|..|R-- .... ....|--- .... ....|--- .... ....
....|..|G-1 2FFA ....|--- .... ....|--- .... ....
....|..|R-- .... ....|--- .... ....|--- .... ....
....|..|G-1 2FF7 ....|--- .... ....|--- .... ....
....|..|--- .... ....|--- .... ....|--- .... ....
....|..|--- .... ....|--- .... ....|--- .... ....
....|..|--- .... ....|--- .... ....|--- .... ....
....|..|--- .... ....|--- .... ....|--- .... ....
....|..|--- .... ....|--- .... ....|--- .... ....
....|..|--- .... ....|--- .... ....|--- .... ....
....|..|R-- .... ....|R-- .... ....|--- .... ....
 F#3|..|F#1 2AFF ....|F-5 3F.F ....|--- .... ....
....|..|R-- .... ....|--- .... ....|A-3 6F2A ....
....|..|F#1 2FFA ....|--- .... ....|E-3 6F1A ....
....|..|R-- .... ....|--- .... ....|--- .... ....
....|..|G-1 2FF7 ....|--- .... ....|--- .... ....
....|..|--- .... ....|--- .... ....|--- .... ....
....|..|--- .... ....|--- .... ....|--- .... ....
....|..|--- .... ....|--- .... ....|--- .... ....
....|..|--- .... ....|--- .... ....|--- .... ....
....|..|--- .... ....|--- .... ....|--- .... ....
....|..|--- .... ....|--- .... ....|--- .... ....
....|..|R-- .... ....|--- .... ....|--- .... ....
 F#3|..|F#1 2AFF ....|--- .... ....|--- .... ....
....|..|R-- .... ....|--- .... ....|--- .... ....
....|..|F#1 2FFA ....|--- .... ....|--- .... ....
....|..|R-- .... ....|--- .... ....|A-3 6F27 ....
....|..|F#1 2FF7 ....|--- .... ....|E-3 6F17 ....
....|..|--- .... ....|R-- .... ....|--- .... ....
....|..|--- .... ....|E-5 3F.F ....|--- .... ....
....|..|--- .... ....|--- .... ....|--- .... ....
....|..|--- .... ....|--- .... ....|--- .... ....
....|..|--- .... ....|--- .... ....|--- .... ....
....|..|--- .... ....|--- .... ....|--- .... ....
....|..|R-- .... ....|--- .... ....|G-3 6F5F ....

[Pattern8]
 G-3|..|G-1 2AFF ....|B-4 3F.F ....|--- .... ....
....|..|R-- .... ....|--- .... ....|--- .... ....
....|..|G-1 2FFA ....|--- .... ....|--- .... ....
....|..|R-- .... ....|--- .... ....|B-3 6F27 ....
....|..|G-1 2FF7 ....|--- .... ....|F-3 6F47 ....
....|..|--- .... ....|--- .... ....|--- .... ....
....|..|--- .... ....|--- .... ....|--- .... ....
....|..|--- .... ....|--- .... ....|--- .... ....
....|..|--- .... ....|--- .... ....|--- .... ....
....|..|--- .... ....|--- .... ....|--- .... ....
....|..|--- .... ....|--- .... ....|--- .... ....
....|..|R-- .... ....|--- .... ....|A-3 6F2F ....
 F#3|..|F#1 2AFF ....|--- .... ....|E-3 6F1F ....
....|..|R-- .... ....|--- .... ....|--- .... ....
....|..|G-1 2FFA ....|--- .... ....|--- .... ....
....|..|R-- .... ....|--- .... ....|--- .... ....
....|..|G-1 2FF7 ....|--- .... ....|--- .... ....
....|..|--- .... ....|--- .... ....|--- .... ....
....|..|--- .... ....|--- .... ....|--- .... ....
....|..|--- .... ....|--- .... ....|--- .... ....
....|..|--- .... ....|--- .... ....|--- .... ....
....|..|--- .... ....|--- .... ....|--- .... ....
....|..|--- .... ....|--- .... ....|--- .... ....
....|..|R-- .... ....|R-- .... ....|--- .... ....
 F#3|..|F#1 2AFF ....|F-5 3F.F ....|--- .... ....
....|..|R-- .... ....|--- .... ....|A-3 6F2A ....
....|..|F#1 2FFA ....|--- .... ....|E-3 6F1A ....
....|..|R-- .... ....|--- .... ....|--- .... ....
....|..|G-1 2FF7 ....|--- .... ....|--- .... ....
....|..|--- .... ....|--- .... ....|--- .... ....
....|..|--- .... ....|--- .... ....|--- .... ....
....|..|--- .... ....|--- .... ....|--- .... ....
....|..|--- .... ....|--- .... ....|--- .... ....
....|..|--- .... ....|--- .... ....|--- .... ....
....|..|--- .... ....|--- .... ....|--- .... ....
....|..|R-- .... ....|--- .... ....|--- .... ....
 F#3|..|F#1 2AFF ....|--- .... ....|--- .... ....
....|..|R-- .... ....|--- .... ....|--- .... ....
....|..|F#1 2FFA ....|--- .... ....|--- .... ....
....|..|R-- .... ....|--- .... ....|A-3 6F27 ....
....|..|F#1 2FF7 ....|--- .... ....|E-3 6F17 ....
....|..|--- .... ....|R-- .... ....|--- .... ....
....|..|--- .... ....|E-5 3F.F ....|--- .... ....
....|..|--- .... ....|--- .... ....|--- .... ....
....|..|--- .... ....|--- .... ....|--- .... ....
....|..|--- .... ....|--- .... ....|--- .... ....
....|..|--- .... ....|--- .... ....|--- .... ....
....|..|R-- .... ....|--- .... ....|G-3 6F5F ....

[Pattern9]
 B-3|..|B-1 2AFF ....|C-5 3F.F ....|A-3 6F1F ....
....|..|R-- .... ....|--- .... ....|--- .... ....
....|..|F#1 2FFA ....|--- .... ....|--- .... ....
....|..|R-- .... ....|--- .... ....|--- .... ....
....|..|F#1 2FF7 ....|--- .... ....|--- .... ....
....|..|--- .... ....|--- .... ....|--- .... ....
....|..|--- .... ....|C#5 3F.F ....|--- .... ....
....|..|--- .... ....|--- .... ....|--- .... ....
....|..|--- .... ....|--- .... ....|--- .... ....
....|..|--- .... ....|--- .... ....|--- .... ....
....|..|--- .... ....|--- .... ....|--- .... ....
....|..|R-- .... ....|G-4 3F.F ....|--- .... ....
 B-3|..|B-1 2AFF ....|D-5 3F.F ....|--- .... ....
....|..|R-- .... ....|--- .... ....|G-3 6F5A ....
....|..|B-1 2FFA ....|--- .... ....|A-3 6F1A ....
....|..|R-- .... ....|--- .... ....|--- .... ....
....|..|F#1 2FF7 ....|--- .... ....|--- .... ....
....|..|--- .... ....|--- .... ....|--- .... ....
....|..|--- .... ....|--- .... ....|--- .... ....
....|..|--- .... ....|--- .... ....|--- .... ....
....|..|--- .... ....|--- .... ....|--- .... ....
....|..|--- .... ....|--- .... ....|--- .... ....
....|..|--- .... ....|--- .... ....|--- .... ....
....|..|R-- .... ....|--- .... ....|--- .... ....
 B-3|..|B-1 2AFF ....|--- .... ....|--- .... ....
....|..|R-- .... ....|--- .... ....|--- .... ....
....|..|B-1 2FFA ....|--- .... ....|--- .... ....
....|..|R-- .... ....|--- .... ....|G-3 6F57 ....
....|..|B-1 2FF7 ....|--- .... ....|A-3 6F17 ....
....|..|--- .... ....|--- .... ....|--- .... ....
....|..|--- .... ....|--- .... ....|--- .... ....
....|..|--- .... ....|--- .... ....|--- .... ....
....|..|--- .... ....|--- .... ....|--- .... ....
....|..|--- .... ....|--- .... ....|--- .... ....
....|..|--- .... ....|--- .... ....|--- .... ....
....|..|R-- .... ....|G-4 3F.F ....|E-4 6F2F ....
 A-3|..|A-1 2AFF ....|D-5 3F.F ....|G-3 6F3F ....
....|..|R-- .... ....|--- .... ....|--- .... ....
....|..|B-1 2FFA ....|--- .... ....|--- .... ....
....|..|R-- .... ....|--- .... ....|--- .... ....
....|..|B-1 2FF7 ....|--- .... ....|--- .... ....
....|..|--- .... ....|--- .... ....|--- .... ....
....|..|--- .... ....|C#5 3F.F ....|--- .... ....
....|..|--- .... ....|--- .... ....|--- .... ....
....|..|--- .... ....|--- .... ....|--- .... ....
....|..|--- .... ....|--- .... ....|--- .... ....
....|..|--- .... ....|--- .... ....|--- .... ....
....|..|R-- .... ....|G-4 3F.F ....|--- .... ....

[Pattern10]
 A-3|..|A-1 2AFF ....|D-5 3F.F ....|--- .... ....
....|..|R-- .... ....|--- .... ....|E-4 6F2A ....
....|..|A-1 2FFA ....|--- .... ....|G-3 6F3A ....
....|..|R-- .... ....|--- .... ....|--- .... ....
....|..|B-1 2FF7 ....|--- .... ....|--- .... ....
....|..|--- .... ....|--- .... ....|--- .... ....
....|..|--- .... ....|--- .... ....|--- .... ....
....|..|--- .... ....|--- .... ....|--- .... ....
....|..|--- .... ....|--- .... ....|--- .... ....
....|..|--- .... ....|--- .... ....|--- .... ....
....|..|--- .... ....|--- .... ....|--- .... ....
....|..|R-- .... ....|--- .... ....|--- .... ....
 A-3|..|A-1 2AFF ....|--- .... ....|--- .... ....
....|..|R-- .... ....|--- .... ....|--- .... ....
....|..|A-1 2FFA ....|--- .... ....|--- .... ....
....|..|R-- .... ....|--- .... ....|E-4 6F27 ....
....|..|A-1 2FF7 ....|--- .... ....|G-3 6F37 ....
....|..|--- .... ....|--- .... ....|--- .... ....
....|..|--- .... ....|--- .... ....|--- .... ....
....|..|--- .... ....|--- .... ....|--- .... ....
....|..|--- .... ....|--- .... ....|--- .... ....
....|..|--- .... ....|--- .... ....|--- .... ....
....|..|--- .... ....|--- .... ....|--- .... ....
....|..|R-- .... ....|G-4 3F.F ....|B-3 6F2F ....
 G-3|..|G-1 2AFF ....|E-5 3F.F ....|F-3 6F4F ....
....|..|R-- .... ....|--- .... ....|--- .... ....
....|..|A-1 2FFA ....|--- .... ....|--- .... ....
....|..|R-- .... ....|--- .... ....|--- .... ....
....|..|A-1 2FF7 ....|--- .... ....|--- .... ....
....|..|--- .... ....|--- .... ....|--- .... ....
....|..|--- .... ....|--- .... ....|--- .... ....
....|..|--- .... ....|--- .... ....|--- .... ....
....|..|--- .... ....|--- .... ....|--- .... ....
....|..|--- .... ....|--- .... ....|--- .... ....
....|..|--- .... ....|--- .... ....|--- .... ....
....|..|R-- .... ....|G-4 3F.F ....|--- .... ....
 G-3|..|G-1 2AFF ....|F-5 3F.F ....|--- .... ....
....|..|R-- .... ....|--- .... ....|B-3 6F2A ....
....|..|G-1 2FFA ....|--- .... ....|F-3 6F4A ....
....|..|R-- .... ....|--- .... ....|--- .... ....
....|..|A-1 2FF7 ....|--- .... ....|--- .... ....
....|..|--- .... ....|--- .... ....|--- .... ....
....|..|--- .... ....|--- .... ....|--- .... ....
....|..|--- .... ....|--- .... ....|--- .... ....
....|..|--- .... ....|--- .... ....|--- .... ....
....|..|--- .... ....|--- .... ....|--- .... ....
....|..|--- .... ....|--- .... ....|--- .... ....
....|..|R-- .... ....|G-4 3F.F ....|--- .... ....

[Pattern11]
 G-3|..|G-1 2AFF ....|E-5 3F.F ....|--- .... ....
....|..|R-- .... ....|--- .... ....|--- .... ....
....|..|G-1 2FFA ....|--- .... ....|--- .... ....
....|..|R-- .... ....|--- .... ....|B-3 6F27 ....
....|..|G-1 2FF7 ....|--- .... ....|F-3 6F47 ....
....|..|--- .... ....|E-5 3F.F ....|--- .... ....
....|..|--- .... ....|--- .... ....|--- .... ....
....|..|--- .... ....|--- .... ....|--- .... ....
....|..|--- .... ....|--- .... ....|--- .... ....
....|..|--- .... ....|--- .... ....|--- .... ....
....|..|--- .... ....|--- .... ....|--- .... ....
....|..|R-- .... ....|R-- .... ....|A-3 6F2F ....
 F#3|..|F#1 2AFF ....|D-5 3F.F ....|E-3 6F1F ....
....|..|R-- .... ....|--- .... ....|--- .... ....
....|..|G-1 2FFA ....|--- .... ....|--- .... ....
....|..|R-- .... ....|--- .... ....|--- .... ....
....|..|G-1 2FF7 ....|--- .... ....|--- .... ....
....|..|--- .... ....|--- .... ....|--- .... ....
....|..|--- .... ....|--- .... ....|--- .... ....
....|..|--- .... ....|--- .... ....|--- .... ....
....|..|--- .... ....|--- .... ....|--- .... ....
....|..|--- .... ....|--- .... ....|--- .... ....
....|..|--- .... ....|--- .... ....|--- .... ....
....|..|R-- .... ....|R-- .... ....|--- .... ....
 F#3|..|F#1 2AFF ....|A-4 3F.F ....|--- .... ....
....|..|R-- .... ....|--- .... ....|A-3 6F2A ....
....|..|F#1 2FFA ....|--- .... ....|E-3 6F1A ....
....|..|R-- .... ....|--- .... ....|--- .... ....
....|..|G-1 2FF7 ....|--- .... ....|--- .... ....
....|..|--- .... ....|R-- .... ....|--- .... ....
....|..|--- .... ....|--- .... ....|--- .... ....
....|..|--- .... ....|--- .... ....|--- .... ....
....|..|--- .... ....|--- .... ....|--- .... ....
....|..|--- .... ....|--- .... ....|--- .... ....
....|..|--- .... ....|--- .... ....|--- .... ....
....|..|R-- .... ....|--- .... ....|--- .... ....
 F#3|..|F#1 2AFF ....|A-4 3F.F ....|--- .... ....
....|..|R-- .... ....|--- .... ....|--- .... ....
....|..|F#1 2FFA ....|--- .... ....|--- .... ....
....|..|R-- .... ....|--- .... ....|A-3 6F27 ....
....|..|F#1 2FF7 ....|--- .... ....|E-3 6F17 ....
....|..|--- .... ....|--- .... ....|--- .... ....
....|..|--- .... ....|--- .... ....|--- .... ....
....|..|--- .... ....|--- .... ....|--- .... ....
....|..|--- .... ....|--- .... ....|--- .... ....
....|..|--- .... ....|--- .... ....|--- .... ....
....|..|--- .... ....|--- .... ....|--- .... ....
....|..|R-- .... ....|R-- .... ....|G-3 6F5F ....

[Pattern12]
 B-3|..|B-1 2AFF ....|C-5 3F.F ....|A-3 6F1F ....
....|..|R-- .... ....|--- .... ....|--- .... ....
....|..|F#1 2FFA ....|--- .... ....|--- .... ....
....|..|R-- .... ....|--- .... ....|--- .... ....
....|..|F#1 2FF7 ....|--- .... ....|--- .... ....
....|..|--- .... ....|--- .... ....|--- .... ....
....|..|--- .... ....|C#5 3F.F ....|--- .... ....
....|..|--- .... ....|--- .... ....|--- .... ....
....|..|--- .... ....|--- .... ....|--- .... ....
....|..|--- .... ....|--- .... ....|--- .... ....
....|..|--- .... ....|--- .... ....|--- .... ....
....|..|R-- .... ....|G-4 3F.F ....|--- .... ....
 B-3|..|B-1 2AFF ....|D-5 3F.F ....|--- .... ....
....|..|R-- .... ....|--- .... ....|G-3 6F5A ....
....|..|B-1 2FFA ....|--- .... ....|A-3 6F1A ....
....|..|R-- .... ....|--- .... ....|--- .... ....
....|..|F#1 2FF7 ....|--- .... ....|--- .... ....
....|..|--- .... ....|--- .... ....|--- .... ....
....|..|--- .... ....|--- .... ....|--- .... ....
....|..|--- .... ....|--- .... ....|--- .... ....
....|..|--- .... ....|--- .... ....|--- .... ....
....|..|--- .... ....|--- .... ....|--- .... ....
....|..|--- .... ....|--- .... ....|--- .... ....
....|..|R-- .... ....|--- .... ....|--- .... ....
 B-3|..|B-1 2AFF ....|--- .... ....|--- .... ....
....|..|R-- .... ....|--- .... ....|--- .... ....
....|..|B-1 2FFA ....|--- .... ....|--- .... ....
....|..|R-- .... ....|--- .... ....|G-3 6F57 ....
....|..|B-1 2FF7 ....|--- .... ....|A-3 6F17 ....
....|..|--- .... ....|--- .... ....|--- .... ....
....|..|--- .... ....|--- .... ....|--- .... ....
....|..|--- .... ....|--- .... ....|--- .... ....
....|..|--- .... ....|--- .... ....|--- .... ....
....|..|--- .... ....|--- .... ....|--- .... ....
....|..|--- .... ....|--- .... ....|--- .... ....
....|..|R-- .... ....|G-4 3F.F ....|E-4 6F2F ....
 A-3|..|A-1 2AFF ....|G-5 3F.F ....|G-3 6F3F ....
....|..|R-- .... ....|--- .... ....|--- .... ....
....|..|B-1 2FFA ....|--- .... ....|--- .... ....
....|..|R-- .... ....|--- .... ....|--- .... ....
....|..|B-1 2FF7 ....|--- .... ....|--- .... ....
....|..|--- .... ....|--- .... ....|--- .... ....
....|..|--- .... ....|F#5 3F.F ....|--- .... ....
....|..|--- .... ....|--- .... ....|--- .... ....
....|..|--- .... ....|--- .... ....|--- .... ....
....|..|--- .... ....|--- .... ....|--- .... ....
....|..|--- .... ....|--- .... ....|--- .... ....
....|..|R-- .... ....|G-4 3F.F ....|--- .... ....

[Pattern13]
 A-3|..|A-1 2AFF ....|F-5 3F.F ....|--- .... ....
....|..|R-- .... ....|--- .... ....|E-4 6F2A ....
....|..|A-1 2FFA ....|--- .... ....|G-3 6F3A ....
....|..|R-- .... ....|--- .... ....|--- .... ....
....|..|B-1 2FF7 ....|--- .... ....|--- .... ....
....|..|--- .... ....|--- .... ....|--- .... ....
....|..|--- .... ....|--- .... ....|--- .... ....
....|..|--- .... ....|--- .... ....|--- .... ....
....|..|--- .... ....|--- .... ....|--- .... ....
....|..|--- .... ....|--- .... ....|--- .... ....
....|..|--- .... ....|--- .... ....|--- .... ....
....|..|R-- .... ....|--- .... ....|--- .... ....
 A-3|..|A-1 2AFF ....|--- .... ....|--- .... ....
....|..|R-- .... ....|--- .... ....|--- .... ....
....|..|A-1 2FFA ....|--- .... ....|--- .... ....
....|..|R-- .... ....|--- .... ....|E-4 6F27 ....
....|..|A-1 2FF7 ....|--- .... ....|G-3 6F37 ....
....|..|--- .... ....|--- .... ....|--- .... ....
....|..|--- .... ....|--- .... ....|--- .... ....
....|..|--- .... ....|--- .... ....|--- .... ....
....|..|--- .... ....|--- .... ....|--- .... ....
....|..|--- .... ....|--- .... ....|--- .... ....
....|..|--- .... ....|--- .... ....|--- .... ....
....|..|R-- .... ....|G-4 3F.F ....|B-3 6F2F ....
 G-3|..|G-1 2AFF ....|E-5 3F.F ....|F-3 6F4F ....
....|..|R-- .... ....|--- .... ....|--- .... ....
....|..|A-1 2FFA ....|--- .... ....|--- .... ....
....|..|R-- .... ....|--- .... ....|--- .... ....
....|..|A-1 2FF7 ....|--- .... ....|--- .... ....
....|..|--- .... ....|--- .... ....|--- .... ....
....|..|--- .... ....|--- .... ....|--- .... ....
....|..|--- .... ....|--- .... ....|--- .... ....
....|..|--- .... ....|--- .... ....|--- .... ....
....|..|--- .... ....|--- .... ....|--- .... ....
....|..|--- .... ....|--- .... ....|--- .... ....
....|..|R-- .... ....|G-4 3F.F ....|--- .... ....
 G-3|..|G-1 2AFF ....|F-5 3F.F ....|--- .... ....
....|..|R-- .... ....|--- .... ....|B-3 6F2A ....
....|..|G-1 2FFA ....|--- .... ....|F-3 6F4A ....
....|..|R-- .... ....|--- .... ....|--- .... ....
....|..|A-1 2FF7 ....|--- .... ....|--- .... ....
....|..|--- .... ....|--- .... ....|--- .... ....
....|..|--- .... ....|--- .... ....|--- .... ....
....|..|--- .... ....|--- .... ....|--- .... ....
....|..|--- .... ....|--- .... ....|--- .... ....
....|..|--- .... ....|--- .... ....|--- .... ....
....|..|--- .... ....|--- .... ....|--- .... ....
....|..|R-- .... ....|G-4 3F.F ....|--- .... ....

[Pattern14]
 G-3|..|G-1 2AFF ....|E-5 3F.F ....|--- .... ....
....|..|R-- .... ....|--- .... ....|--- .... ....
....|..|G-1 2FFA ....|--- .... ....|--- .... ....
....|..|R-- .... ....|--- .... ....|B-3 6F27 ....
....|..|G-1 2FF7 ....|--- .... ....|F-3 6F47 ....
....|..|--- .... ....|E-5 3F.F ....|--- .... ....
....|..|--- .... ....|--- .... ....|--- .... ....
....|..|--- .... ....|--- .... ....|--- .... ....
....|..|--- .... ....|--- .... ....|--- .... ....
....|..|--- .... ....|--- .... ....|--- .... ....
....|..|--- .... ....|--- .... ....|--- .... ....
....|..|R-- .... ....|R-- .... ....|A-3 6F2F ....
 F#3|..|F#1 2AFF ....|D-5 3F.F ....|E-3 6F1F ....
....|..|R-- .... ....|--- .... ....|--- .... ....
....|..|G-1 2FFA ....|--- .... ....|--- .... ....
....|..|R-- .... ....|--- .... ....|--- .... ....
....|..|G-1 2FF7 ....|--- .... ....|--- .... ....
....|..|--- .... ....|--- .... ....|--- .... ....
....|..|--- .... ....|--- .... ....|--- .... ....
....|..|--- .... ....|--- .... ....|--- .... ....
....|..|--- .... ....|--- .... ....|--- .... ....
....|..|--- .... ....|--- .... ....|--- .... ....
....|..|--- .... ....|--- .... ....|--- .... ....
....|..|R-- .... ....|R-- .... ....|--- .... ....
 F#3|..|F#1 2AFF ....|E-5 3F.F ....|--- .... ....
....|..|R-- .... ....|--- .... ....|A-3 6F2A ....
....|..|F#1 2FFA ....|--- .... ....|E-3 6F1A ....
....|..|R-- .... ....|--- .... ....|--- .... ....
....|..|G-1 2FF7 ....|--- .... ....|--- .... ....
....|..|--- .... ....|--- .... ....|--- .... ....
....|..|--- .... ....|--- .... ....|--- .... ....
....|..|--- .... ....|--- .... ....|--- .... ....
....|..|--- .... ....|--- .... ....|--- .... ....
....|..|--- .... ....|--- .... ....|--- .... ....
....|..|--- .... ....|--- .... ....|--- .... ....
....|..|R-- .... ....|R-- .... ....|--- .... ....
 F#3|..|F#1 2AFF ....|D-5 3F.F ....|--- .... ....
....|..|R-- .... ....|--- .... ....|--- .... ....
....|..|F#1 2FFA ....|--- .... ....|--- .... ....
....|..|R-- .... ....|--- .... ....|A-3 6F27 ....
....|..|F#1 2FF7 ....|--- .... ....|E-3 6F17 ....
....|..|--- .... ....|--- .... ....|--- .... ....
....|..|--- .... ....|--- .... ....|--- .... ....
....|..|--- .... ....|--- .... ....|--- .... ....
....|..|--- .... ....|--- .... ....|--- .... ....
....|..|--- .... ....|--- .... ....|--- .... ....
....|..|--- .... ....|--- .... ....|--- .... ....
....|..|R-- .... ....|R-- .... ....|G-3 6F5F ....

[Pattern15]
 B-3|..|B-1 2AFF ....|C-6 3F.F ....|A-3 6F1F ....
....|..|R-- .... ....|--- .... ....|--- .... ....
....|..|F#1 2FFA ....|--- .... ....|--- .... ....
....|..|R-- .... ....|--- .... ....|--- .... ....
....|..|F#1 2FF7 ....|--- .... ....|--- .... ....
....|..|--- .... ....|--- .... ....|--- .... ....
....|..|--- .... ....|C#6 3F.F ....|--- .... ....
....|..|--- .... ....|--- .... ....|--- .... ....
....|..|--- .... ....|--- .... ....|--- .... ....
....|..|--- .... ....|--- .... ....|--- .... ....
....|..|--- .... ....|--- .... ....|--- .... ....
....|..|R-- .... ....|G-4 3F.F ....|--- .... ....
 B-3|..|B-1 2AFF ....|D-6 3F.F ....|--- .... ....
....|..|R-- .... ....|--- .... ....|G-3 6F5A ....
....|..|B-1 2FFA ....|--- .... ....|A-3 6F1A ....
....|..|R-- .... ....|--- .... ....|--- .... ....
....|..|F#1 2FF7 ....|--- .... ....|--- .... ....
....|..|--- .... ....|--- .... ....|--- .... ....
....|..|--- .... ....|--- .... ....|--- .... ....
....|..|--- .... ....|--- .... ....|--- .... ....
....|..|--- .... ....|--- .... ....|--- .... ....
....|..|--- .... ....|--- .... ....|--- .... ....
....|..|--- .... ....|--- .... ....|--- .... ....
....|..|R-- .... ....|--- .... ....|--- .... ....
 B-3|..|B-1 2AFF ....|--- .... ....|--- .... ....
....|..|R-- .... ....|--- .... ....|--- .... ....
....|..|B-1 2FFA ....|--- .... ....|--- .... ....
....|..|R-- .... ....|--- .... ....|G-3 6F57 ....
....|..|B-1 2FF7 ....|--- .... ....|A-3 6F17 ....
....|..|--- .... ....|--- .... ....|--- .... ....
....|..|--- .... ....|--- .... ....|--- .... ....
....|..|--- .... ....|--- .... ....|--- .... ....
....|..|--- .... ....|--- .... ....|--- .... ....
....|..|--- .... ....|--- .... ....|--- .... ....
....|..|--- .... ....|--- .... ....|--- .... ....
....|..|R-- .... ....|G-4 3F.F ....|E-4 6F2F ....
 A-3|..|A-1 2AFF ....|D-6 3F.F ....|G-3 6F3F ....
....|..|R-- .... ....|--- .... ....|--- .... ....
....|..|B-1 2FFA ....|--- .... ....|--- .... ....
....|..|R-- .... ....|--- .... ....|--- .... ....
....|..|B-1 2FF7 ....|E-6 3F.F ....|--- .... ....
....|..|--- .... ....|--- .... ....|--- .... ....
....|..|--- .... ....|E-6 3F.F ....|--- .... ....
....|..|--- .... ....|--- .... ....|--- .... ....
....|..|--- .... ....|--- .... ....|--- .... ....
....|..|--- .... ....|--- .... ....|--- .... ....
....|..|--- .... ....|C#6 3F.F ....|--- .... ....
....|..|R-- .... ....|G-4 3F.F ....|--- .... ....

[Pattern16]
 A-3|..|A-1 2AFF ....|D-6 3F.F ....|--- .... ....
....|..|R-- .... ....|--- .... ....|E-4 6F2A ....
....|..|A-1 2FFA ....|--- .... ....|G-3 6F3A ....
....|..|R-- .... ....|--- .... ....|--- .... ....
....|..|B-1 2FF7 ....|--- .... ....|--- .... ....
....|..|--- .... ....|--- .... ....|--- .... ....
....|..|--- .... ....|--- .... ....|--- .... ....
....|..|--- .... ....|--- .... ....|--- .... ....
....|..|--- .... ....|--- .... ....|--- .... ....
....|..|--- .... ....|--- .... ....|--- .... ....
....|..|--- .... ....|--- .... ....|--- .... ....
....|..|R-- .... ....|--- .... ....|--- .... ....
 A-3|..|A-1 2AFF ....|--- .... ....|--- .... ....
....|..|R-- .... ....|--- .... ....|--- .... ....
....|..|A-1 2FFA ....|--- .... ....|--- .... ....
....|..|R-- .... ....|--- .... ....|E-4 6F27 ....
....|..|A-1 2FF7 ....|--- .... ....|G-3 6F37 ....
....|..|--- .... ....|--- .... ....|--- .... ....
....|..|--- .... ....|--- .... ....|--- .... ....
....|..|--- .... ....|--- .... ....|--- .... ....
....|..|--- .... ....|--- .... ....|--- .... ....
....|..|--- .... ....|--- .... ....|--- .... ....
....|..|--- .... ....|--- .... ....|--- .... ....
....|..|R-- .... ....|G-4 3F.F ....|B-3 6F2F ....
 G-3|..|G-1 2AFF ....|E-5 3F.F ....|F-3 6F4F ....
....|..|R-- .... ....|--- .... ....|--- .... ....
....|..|A-1 2FFA ....|--- .... ....|--- .... ....
....|..|R-- .... ....|G-4 3F.F ....|--- .... ....
....|..|A-1 2FF7 ....|E-5 3F.F ....|--- .... ....
....|..|--- .... ....|--- .... ....|--- .... ....
....|..|--- .... ....|--- .... ....|--- .... ....
....|..|--- .... ....|G-4 3F.F ....|--- .... ....
....|..|--- .... ....|E-5 3F.F ....|--- .... ....
....|..|--- .... ....|--- .... ....|--- .... ....
....|..|--- .... ....|--- .... ....|--- .... ....
....|..|R-- .... ....|G-4 3F.F ....|--- .... ....
 G-3|..|G-1 2AFF ....|F-5 3F.F ....|--- .... ....
....|..|R-- .... ....|--- .... ....|B-3 6F2A ....
....|..|G-1 2FFA ....|--- .... ....|F-3 6F4A ....
....|..|R-- .... ....|--- .... ....|--- .... ....
....|..|A-1 2FF7 ....|--- .... ....|--- .... ....
....|..|--- .... ....|--- .... ....|--- .... ....
....|..|--- .... ....|--- .... ....|--- .... ....
....|..|--- .... ....|--- .... ....|--- .... ....
....|..|--- .... ....|--- .... ....|--- .... ....
....|..|--- .... ....|--- .... ....|--- .... ....
....|..|--- .... ....|--- .... ....|--- .... ....
....|..|R-- .... ....|G-4 3F.F ....|--- .... ....

[Pattern17]
 G-3|..|G-1 2AFF ....|E-5 3F.F ....|--- .... ....
....|..|R-- .... ....|--- .... ....|--- .... ....
....|..|G-1 2FFA ....|--- .... ....|--- .... ....
....|..|R-- .... ....|--- .... ....|B-3 6F27 ....
....|..|G-1 2FF7 ....|--- .... ....|F-3 6F47 ....
....|..|--- .... ....|E-5 3F.F ....|--- .... ....
....|..|--- .... ....|--- .... ....|--- .... ....
....|..|--- .... ....|--- .... ....|--- .... ....
....|..|--- .... ....|--- .... ....|--- .... ....
....|..|--- .... ....|--- .... ....|--- .... ....
....|..|--- .... ....|--- .... ....|--- .... ....
....|..|R-- .... ....|R-- .... ....|A-3 6F2F ....
 F#3|..|F#1 2AFF ....|D-5 3F.F ....|E-3 6F1F ....
....|..|R-- .... ....|--- .... ....|--- .... ....
....|..|G-1 2FFA ....|--- .... ....|--- .... ....
....|..|R-- .... ....|R-- .... ....|--- .... ....
....|..|G-1 2FF7 ....|D-5 3F.F ....|--- .... ....
....|..|--- .... ....|--- .... ....|--- .... ....
....|..|--- .... ....|--- .... ....|--- .... ....
....|..|--- .... ....|R-- .... ....|--- .... ....
....|..|--- .... ....|D-5 3F.F ....|--- .... ....
....|..|--- .... ....|--- .... ....|--- .... ....
....|..|--- .... ....|--- .... ....|--- .... ....
....|..|R-- .... ....|R-- .... ....|--- .... ....
 F#3|..|F#1 2AFF ....|D-5 3F.F ....|--- .... ....
....|..|R-- .... ....|--- .... ....|A-3 6F2A ....
....|..|F#1 2FFA ....|--- .... ....|E-3 6F1A ....
....|..|R-- .... ....|--- .... ....|--- .... ....
....|..|G-1 2FF7 ....|--- .... ....|--- .... ....
....|..|--- .... ....|D-5 3F.F ....|--- .... ....
....|..|--- .... ....|--- .... ....|--- .... ....
....|..|--- .... ....|--- .... ....|--- .... ....
....|..|--- .... ....|--- .... ....|--- .... ....
....|..|--- .... ....|--- .... ....|--- .... ....
....|..|--- .... ....|--- .... ....|--- .... ....
....|..|R-- .... ....|R-- .... ....|--- .... ....
 F#3|..|F#1 2AFF ....|A-4 3F.F ....|--- .... ....
....|..|R-- .... ....|--- .... ....|--- .... ....
....|..|F#1 2FFA ....|--- .... ....|--- .... ....
....|..|R-- .... ....|--- .... ....|A-3 6F27 ....
....|..|F#1 2FF7 ....|--- .... ....|E-3 6F17 ....
....|..|--- .... ....|--- .... ....|--- .... ....
....|..|--- .... ....|--- .... ....|--- .... ....
....|..|--- .... ....|--- .... ....|--- .... ....
....|..|--- .... ....|--- .... ....|--- .... ....
....|..|--- .... ....|--- .... ....|--- .... ....
....|..|--- .... ....|--- .... ....|--- .... ....
....|..|R-- .... ....|R-- .... ....|G-3 6F5F ....

[Pattern21]
....|..|--- .... ....|--- .... ....|R-- .... ....
....|..|R-- .... ....|--- .... ....|--- .... ....
....|..|F#1 2FFA ....|--- .... ....|--- .... ....
....|..|R-- .... ....|--- .... ....|--- .... ....
....|..|F#1 2FF7 ....|--- .... ....|--- .... ....
....|..|--- .... ....|--- .... ....|--- .... ....
....|..|--- .... ....|--- .... ....|--- .... ....
....|..|--- .... ....|--- .... ....|--- .... ....
....|..|--- .... ....|--- .... ....|--- .... ....
....|..|--- .... ....|--- .... ....|--- .... ....
....|..|--- .... ....|--- .... ....|--- .... ....
....|..|--- .... ....|--- .... ....|--- .... ....
....|..|--- .... ....|--- .... ....|--- .... ....
....|..|R-- .... ....|--- .... ....|G-3 6F5A ....
....|..|--- .... ....|--- .... ....|R-- .... ....
....|..|R-- .... ....|--- .... ....|--- .... ....
....|..|F#1 2FF7 ....|--- .... ....|--- .... ....
....|..|--- .... ....|--- .... ....|--- .... ....
....|..|--- .... ....|--- .... ....|--- .... ....
....|..|--- .... ....|--- .... ....|--- .... ....
....|..|--- .... ....|--- .... ....|--- .... ....
....|..|--- .... ....|--- .... ....|--- .... ....
....|..|--- .... ....|--- .... ....|--- .... ....
....|..|--- .... ....|--- .... ....|--- .... ....
....|..|--- .... ....|--- .... ....|--- .... ....
....|..|--- .... ....|--- .... ....|--- .... ....
....|..|--- .... ....|--- .... ....|--- .... ....
....|..|R-- .... ....|--- .... ....|G-3 6F57 ....
