[Module]
VortexTrackerII=0
Version=3.5
Title=4m-2m-9m-3m-18m-13m-6m,7me-0p-12p-15me-16me-8p-17m-15me-5m,20m-2m
Author=oisee ^ 4d 29.05.2010
NoteTable=4
ChipFreq=1750000
Speed=4
PlayOrder=L0,1,2,3,4,5,4,5,8,9,10,11,10,13,14,15,14,15,14,19,20,21,22,23,24,25,26,27,28,29,30,31,32,33,32,33,32,37,38,39,40,41,42,43,44,44,46,47,48,49,50,51,52,52,52,55,28,57


[Ornament1]
L0,2

[Ornament2]
L0,4

[Ornament3]
L0,5

[Ornament4]
L0,3

[Ornament5]
L0,5,8

[Ornament6]
L0,3,7

[Ornament7]
L0,1

[Ornament8]
L0,2,3

[Ornament9]
L0,3,6

[Ornament10]
L0,5,7,8

[Ornament11]
L0,5,10

[Ornament12]
L0,5,9

[Ornament13]
L0,5,7

[Ornament14]
L0,5,6

[Ornament15]
L0,3,4

[Ornament16]
L0,4,7


[Sample1]
TnE +000_ +00_ F_
TnE +000_ +00_ F_
TnE +000_ +00_ F_
TnE +000_ +00_ D_
TnE +000_ +00_ B_
TnE +000_ +00_ B_ L

[Sample2]
TnE +000_ +00_ F_ L

[Sample3]
TnE +001_ +00_ F_
TnE +002_ +00_ F_
TnE +001_ +00_ E_
TnE +002_ +00_ E_
TnE +000_ +00_ E_ L
TnE -001_ +00_ E_
TnE -002_ +00_ E_
TnE -001_ +00_ E_
TnE +000_ +00_ E_
TnE +001_ +00_ E_
TnE +002_ +00_ E_
TnE +001_ +00_ E_

[Sample4]
TnE +002_ +00_ D_
TnE +002_ +00_ D_
TnE +002_ +00_ C_
TnE +002_ +00_ B_
TnE +002_ +00_ A_ L
TnE +002_ +00_ A_
TnE +002_ +00_ A_
TnE +002_ +00_ A_
TnE +002_ +00_ A_
TnE +002_ +00_ A_
TnE +002_ +00_ A_
TnE +002_ +00_ A_

[Sample5]
TnE +000_ +00_ F_
TnE +000_ +00_ F_
tne +000_ +00_ 0_ L

[Sample6]
TnE -001_ +00_ F_ L

[Sample7]
TnE +006_ +00_ F_ L

[Sample8]
tNe +000_ +00_ F_
tNe +000_ +00_ B_
tNe +000_ +00_ 7_
tNe +000_ +00_ 6- L

[Sample9]
TnE +080_ +00_ F_
TnE +100_ +00_ E_
TnE +180_ +00_ E_
TnE +200_ +00_ E_
TnE +240_ +00_ D_
TnE +280_ +00_ D_
TnE +2C0_ +00_ D_
TnE +300_ +00_ C_
TnE +300_ +00_ C_
TnE +340_ +00_ C_
TnE +340_ +00_ C_
TnE +380_ +00_ B_
TnE +380_ +00_ B_
TnE +400_ +00_ B_
TnE +400_ +00_ B_
TnE +480_ +00_ A_
TnE +500_ +00_ 9_
TnE +580_ +00_ 7_
TnE +600_ +00_ 4_
TnE +680_ +00_ 1_
TnE +000_ +00_ 0_ L

[Sample10]
Tne +1C0_ +00_ F_
Tne +280_ +00_ E_
Tne +380_ +00_ C_
Tne +440_ +00_ A_
Tne +480_ +00_ 8_
TnE +000_ +00_ 0_ L

[Sample11]
TNe +200_ -0A_ F_
tNe +000_ +0F_ A_
TNe +200_ -07_ E_
tNe +000_ +0E_ B- L

[Sample12]
TNE +0A0_ +05_ F_
TNE +140_ +02_ D_
TNE +140_ +02_ B_
TNE +100_ +00_ A_ L
TNE +140_ +00_ A_
TNE +200_ +00_ A-

[Sample13]
Tne +200_ +00_ F_
Tne +2C0_ +00_ F_
Tne +380_ +00_ E_
Tne +500_ +00_ C_
Tne +520_ +00_ 9_
tne +000_ +00_ 0_ L

[Sample14]
TNE -100_ +00_ F_
TNE -100_ +00_ D_
TNE -100_ +00_ A_
TNE -100_ +00_ 5_
tne +000_ +00_ 0_ L

[Sample15]
TNE -100_ +00_ 5_
TNE -100_ +00_ 8_
TNE -100_ +00_ B_
TNE -100_ +00_ F_
TNe -100_ +00_ 9- L

[Sample16]
TnE +000_ +00_ C_
TnE +000_ +00_ E_
TnE +000_ +00_ F_
TnE +000_ +00_ F_
TnE +000_ +00_ E_
TnE +000_ +00_ D_
TnE +000_ +00_ C_
TnE +000_ +00_ C_ L
TnE +001_ +00_ C_
TnE +002_ +00_ C_
TnE +003_ +00_ C_
TnE +001_ +00_ C_
TnE +000_ +00_ C_
TnE -001_ +00_ C_
TnE -002_ +00_ C_
TnE -003_ +00_ C_
TnE -001_ +00_ C_
TnE +000_ +00_ C_
TnE +000_ +00_ C_

[Sample17]
Tne +1C0_ +00_ F_
Tne +280_ +00_ D_
Tne +380_ +00_ 7_
TNE +000_ +00_ 0_ L

[Sample18]
TnE -00C_ +00_ 0_ L

[Sample19]
TNe +000_ +00_ F_
TNe +000_ +00_ C_
TNe +000_ +00_ 6_
TNe +000_ +01_ A- L

[Sample20]
TNE +140_ +00_ F_
tNE +000_ +00_ B- L

[Sample21]
tNE +000_ +00_ D_
tNE +000_ +00_ 8_
tNE +000_ +00_ 1_
TNE +000_ +00_ 0_ L

[Sample22]
TnE +000_ +00_ D_ L
TnE +000_ +00_ D_
tne +000_ +00_ 9_
tne +000_ +00_ 9_
TnE +000_ +00_ D_
TnE +000_ +00_ D_
tne +000_ +00_ 9_
tne +000_ +00_ 9_
TnE +000_ +00_ D_
TnE +000_ +00_ D_
TnE +000_ +00_ D_
TnE +000_ +00_ D_
TnE +000_ +00_ D_
TnE +000_ +00_ D_
tne +000_ +00_ 9_
tne +000_ +00_ 9_

[Sample23]
TnE +000_ +00_ F_ L
TnE +010_ +01_ F_
TnE +010_ +01_ F_
TnE +010_ +01_ F_
TnE +010_ +01_ F_
TnE +000_ +00_ F_
TnE +000_ +00_ F_
TnE -010_ -01_ F_
TnE -010_ -01_ F_
TnE -010_ -01_ F_
TnE -010_ -01_ F_
TnE +000_ +00_ F_

[Sample24]
TNe +000_ -01_ C_
TNe +000_ -01_ D_
TNe +000_ -01_ E_
TNe +000_ -01_ F_
TNe +000_ -01_ F_
TNe +000_ -01_ F_
TNe +000_ -01_ F_
TNe +000_ -01_ F_
TNe +000_ -01_ E_
TNe +000_ -01_ E_
TNe +000_ -01_ E_
TNe +000_ -01_ F_
TNe +000_ -01_ F_ L

[Sample25]
TNE +000_ +00_ F_
TNE +000_ +00_ F_ L
TNE +000_ +00_ F_
TNE +000_ +00_ F_
TNE +000_ +00_ F-

[Sample26]
tne +000_ +00_ 0_ L

[Sample27]
TnE +100_ +05_ F_
TnE +200_ +02_ A_
TnE +300_ +02_ 7_
TNE +400_ +00_ 3- L

[Sample28]
tne +000_ +00_ 0_ L

[Sample29]
tnE +000_ +00_ 0_ L

[Sample30]
TNE +000_ +00_ C+ L

[Sample31]
TNe +1C0_ +00_ F_
Tne +280_ +00_ E_
Tne +380_ +00_ C_
Tne +440_ +00_ A_
Tne +480_ +00_ 8_
TnE +000_ +00_ 0_ L

[Pattern0]
....|..|E-4 2F.F ....|--- .... ....|--- .... ....
....|..|--- .... ....|--- .... ....|--- .... ....
....|..|R-- .... ....|--- .... ....|--- .... ....
....|..|--- .... ....|--- .... ....|--- .... ....
....|..|--- .... ....|--- .... ....|--- .... ....
....|..|C#3 2F.F ....|--- .... ....|--- .... ....
....|..|--- .... ....|--- .... ....|--- .... ....
....|..|R-- .... ....|--- .... ....|--- .... ....
....|..|--- .... ....|--- .... ....|--- .... ....
....|..|C#3 2F.F ....|--- .... ....|--- .... ....
....|..|R-- .... ....|--- .... ....|--- .... ....
....|..|--- .... ....|--- .... ....|--- .... ....
....|..|E-4 2F.F ....|--- .... ....|--- .... ....
....|..|--- .... ....|--- .... ....|--- .... ....
....|..|E-4 2F.7 ....|--- .... ....|--- .... ....
....|..|--- .... ....|--- .... ....|--- .... ....
....|..|R-- .... ....|--- .... ....|--- .... ....
....|..|C#3 2F.F ....|--- .... ....|--- .... ....
....|..|--- .... ....|--- .... ....|--- .... ....
....|..|C#3 2F.7 ....|--- .... ....|--- .... ....
....|..|--- .... ....|--- .... ....|--- .... ....
....|..|C#3 2F.F ....|--- .... ....|--- .... ....
....|..|R-- .... ....|--- .... ....|--- .... ....
....|..|C#3 2F.7 ....|--- .... ....|--- .... ....
....|..|E-4 2F.F ....|--- .... ....|--- .... ....
....|..|--- .... ....|--- .... ....|--- .... ....
....|..|E-4 2F.7 ....|--- .... ....|--- .... ....
....|..|--- .... ....|--- .... ....|--- .... ....
....|..|C#3 2F.F ....|--- .... ....|--- .... ....
....|..|C#3 2F.A ....|--- .... ....|--- .... ....
....|..|R-- .... ....|--- .... ....|--- .... ....
....|..|C#3 2F.7 ....|--- .... ....|--- .... ....
....|..|C#3 2F.F ....|A-3 2F.F ....|--- .... ....
....|..|R-- .... ....|--- .... ....|--- .... ....
....|..|R-- .... ....|--- .... ....|--- .... ....
....|..|C#3 2F.7 ....|--- .... ....|--- .... ....
....|..|E-4 2F.F ....|B-4 2F.F ....|--- .... ....
....|..|--- .... ....|--- .... ....|--- .... ....
....|..|E-4 2F.7 ....|--- .... ....|--- .... ....
....|..|--- .... ....|--- .... ....|--- .... ....
....|..|C#3 2F.F ....|C-5 2F.F ....|--- .... ....
....|..|--- .... ....|--- .... ....|--- .... ....
....|..|C#3 2F.7 ....|--- .... ....|--- .... ....
....|..|--- .... ....|--- .... ....|--- .... ....
....|..|C#3 2F.F ....|G-5 2F.F ....|--- .... ....
....|..|R-- .... ....|--- .... ....|--- .... ....
....|..|C#3 2F.7 ....|A-3 2F.7 ....|--- .... ....
....|..|R-- .... ....|--- .... ....|--- .... ....
....|..|E-4 2F.F ....|B-4 2F.A ....|--- .... ....
....|..|--- .... ....|--- .... ....|--- .... ....
....|..|E-4 2F.7 ....|B-4 2F.7 ....|--- .... ....
....|..|--- .... ....|--- .... ....|--- .... ....
....|..|C#3 2F.F ....|C-5 2F.A ....|--- .... ....
....|..|--- .... ....|--- .... ....|--- .... ....
....|..|C#3 2F.7 ....|C-5 2F.7 ....|--- .... ....
....|..|--- .... ....|--- .... ....|--- .... ....
....|..|E-4 2F.F ....|G-5 2F.A ....|--- .... ....
....|..|--- .... ....|--- .... ....|--- .... ....
....|..|C#3 2F.7 ....|G-5 2F.7 ....|--- .... ....
....|..|E-4 2F.F ....|--- .... ....|--- .... ....
....|..|E-4 2F.F ....|--- .... ....|--- .... ....
....|..|C#4 2F.F ....|--- .... ....|--- .... ....
....|..|C#3 2F.F ....|--- .... ....|--- .... ....
....|..|R-- .... ....|--- .... ....|--- .... ....
....|..|D#4 2F.F ....|--- .... ....|--- .... ....
....|..|D#4 2F.F ....|--- .... ....|--- .... ....
....|..|C#3 2F.7 ....|--- .... ....|--- .... ....
....|..|--- .... ....|--- .... ....|--- .... ....
....|..|B-2 2F.F ....|--- .... ....|--- .... ....
....|..|R-- .... ....|--- .... ....|--- .... ....
....|..|E-4 2F.7 ....|--- .... ....|--- .... ....
....|..|B-2 2F.F ....|--- .... ....|--- .... ....
....|..|E-4 2F.A ....|--- .... ....|--- .... ....
....|..|E-4 2F.7 ....|R-- .... ....|--- .... ....
....|..|E-4 2F.7 ....|--- .... ....|--- .... ....
....|..|C#4 2F.7 ....|--- .... ....|--- .... ....
....|..|D#4 2F.F ....|A-3 2F.F ....|--- .... ....
....|..|R-- .... ....|--- .... ....|--- .... ....
....|..|D#4 2F.7 ....|--- .... ....|--- .... ....
....|..|D#4 2F.7 ....|--- .... ....|--- .... ....
....|..|B-2 2F.F ....|G-5 2F.F ....|--- .... ....
....|..|R-- .... ....|--- .... ....|--- .... ....
....|..|B-2 2F.7 ....|--- .... ....|--- .... ....
....|..|R-- .... ....|A-3 2F.F ....|--- .... ....
....|..|B-2 2F.F ....|C-5 2F.F ....|--- .... ....
....|..|B-2 2F.7 ....|R-- .... ....|--- .... ....
....|..|R-- .... ....|--- .... ....|--- .... ....
....|..|R-- .... ....|R-- .... ....|--- .... ....
....|..|D#4 2F.F ....|B-4 2F.F ....|--- .... ....
....|..|--- .... ....|--- .... ....|--- .... ....
....|..|D#4 2F.7 ....|A-3 2F.7 ....|--- .... ....
....|..|--- .... ....|B-4 2F.F ....|--- .... ....
....|..|B-2 2F.F ....|G-5 2F.A ....|--- .... ....
....|..|--- .... ....|--- .... ....|--- .... ....
....|..|B-2 2F.7 ....|G-5 2F.7 ....|--- .... ....
....|..|--- .... ....|A-3 2F.A ....|--- .... ....
....|..|B-2 2F.F ....|A-3 2F.F ....|--- .... ....
....|..|R-- .... ....|A-3 2F.7 ....|--- .... ....
....|..|B-2 2F.7 ....|C-5 2F.7 ....|--- .... ....
....|..|--- .... ....|--- .... ....|--- .... ....
....|..|D#4 2F.F ....|B-4 2F.F ....|--- .... ....
....|..|D#4 2F.F ....|--- .... ....|--- .... ....
....|..|D#4 2F.7 ....|B-4 2F.7 ....|--- .... ....
....|..|--- .... ....|B-4 2F.A ....|--- .... ....
....|..|B-2 2F.F ....|C-5 2F.F ....|--- .... ....
....|..|--- .... ....|B-4 2F.7 ....|--- .... ....
....|..|B-2 2F.7 ....|R-- .... ....|--- .... ....
....|..|--- .... ....|--- .... ....|--- .... ....
....|..|B-2 2F.F ....|G-5 2F.F ....|--- .... ....
....|..|R-- .... ....|--- .... ....|--- .... ....
....|..|B-2 2F.7 ....|A-3 2F.7 ....|--- .... ....
....|..|R-- .... ....|--- .... ....|--- .... ....
....|..|D#4 2F.F ....|B-4 2F.A ....|--- .... ....
....|..|B-2 2F.F ....|--- .... ....|--- .... ....
....|..|D#4 2F.7 ....|B-4 2F.7 ....|--- .... ....
....|..|D#4 2F.7 ....|--- .... ....|--- .... ....
....|..|B-2 2F.F ....|C-5 2F.A ....|--- .... ....
....|..|--- .... ....|--- .... ....|--- .... ....
....|..|B-2 2F.7 ....|C-5 2F.7 ....|--- .... ....
....|..|--- .... ....|--- .... ....|--- .... ....
....|..|D#4 2F.F ....|G-5 2F.A ....|--- .... ....
....|..|--- .... ....|--- .... ....|--- .... ....
....|..|D#4 2F.F ....|G-5 2F.7 ....|--- .... ....
....|..|--- .... ....|--- .... ....|--- .... ....
....|..|D#4 2F.F ....|--- .... ....|--- .... ....
....|..|D#4 2F.F ....|--- .... ....|--- .... ....
....|..|D#4 2F.7 ....|--- .... ....|--- .... ....
....|..|B-2 2F.7 ....|--- .... ....|--- .... ....

[Pattern1]
....|..|E-4 2F.F ....|--- .... ....|--- .... ....
....|..|E-4 2F.F ....|--- .... ....|--- .... ....
....|..|B-2 2F.7 ....|--- .... ....|--- .... ....
....|..|--- .... ....|--- .... ....|--- .... ....
....|..|A-2 2F.F ....|--- .... ....|--- .... ....
....|..|R-- .... ....|--- .... ....|--- .... ....
....|..|D#4 2F.7 ....|--- .... ....|--- .... ....
....|..|--- .... ....|--- .... ....|--- .... ....
....|..|A-2 2F.F ....|A-3 2F.F ....|--- .... ....
....|..|R-- .... ....|R-- .... ....|--- .... ....
....|..|D#4 2F.7 ....|--- .... ....|--- .... ....
....|..|D#4 2F.7 ....|--- .... ....|--- .... ....
....|..|E-4 2F.F ....|A-3 2F.F ....|--- .... ....
....|..|E-4 2F.F ....|--- .... ....|--- .... ....
....|..|E-4 2F.7 ....|--- .... ....|--- .... ....
....|..|E-4 2F.7 ....|--- .... ....|--- .... ....
....|..|A-2 2F.F ....|G-5 2F.F ....|--- .... ....
....|..|R-- .... ....|--- .... ....|--- .... ....
....|..|A-2 2F.7 ....|--- .... ....|--- .... ....
....|..|R-- .... ....|--- .... ....|--- .... ....
....|..|A-2 2F.F ....|C-5 2F.F ....|--- .... ....
....|..|R-- .... ....|R-- .... ....|--- .... ....
....|..|A-2 2F.7 ....|A-3 2F.7 ....|--- .... ....
....|..|R-- .... ....|R-- .... ....|--- .... ....
....|..|E-4 2F.F ....|B-4 2F.F ....|--- .... ....
....|..|E-4 2F.F ....|B-4 2F.F ....|--- .... ....
....|..|E-4 2F.7 ....|A-3 2F.7 ....|--- .... ....
....|..|E-4 2F.7 ....|--- .... ....|--- .... ....
....|..|A-2 2F.F ....|G-5 2F.A ....|--- .... ....
....|..|R-- .... ....|--- .... ....|--- .... ....
....|..|A-2 2F.7 ....|G-5 2F.7 ....|--- .... ....
....|..|--- .... ....|--- .... ....|--- .... ....
....|..|A-2 2F.F ....|F-4 2F.F ....|--- .... ....
....|..|R-- .... ....|--- .... ....|--- .... ....
....|..|A-2 2F.7 ....|C-5 2F.7 ....|--- .... ....
....|..|R-- .... ....|--- .... ....|--- .... ....
....|..|E-4 2F.F ....|B-4 2F.F ....|--- .... ....
....|..|E-4 2F.F ....|B-4 2F.A ....|--- .... ....
....|..|E-4 2F.7 ....|B-4 2F.7 ....|--- .... ....
....|..|E-4 2F.7 ....|B-4 2F.7 ....|--- .... ....
....|..|A-2 2F.F ....|C-5 2F.F ....|--- .... ....
....|..|R-- .... ....|--- .... ....|--- .... ....
....|..|A-2 2F.7 ....|R-- .... ....|--- .... ....
....|..|R-- .... ....|--- .... ....|--- .... ....
....|..|A-2 2F.F ....|G-5 2F.F ....|--- .... ....
....|..|--- .... ....|--- .... ....|--- .... ....
....|..|A-2 2F.7 ....|F-4 2F.7 ....|--- .... ....
....|..|--- .... ....|--- .... ....|--- .... ....
....|..|E-4 2F.F ....|B-4 2F.A ....|--- .... ....
....|..|A-2 2F.F ....|--- .... ....|--- .... ....
....|..|E-4 2F.7 ....|B-4 2F.7 ....|--- .... ....
....|..|E-4 2F.7 ....|--- .... ....|--- .... ....
....|..|A-2 2F.F ....|C-5 2F.A ....|--- .... ....
....|..|--- .... ....|--- .... ....|--- .... ....
....|..|A-2 2F.7 ....|C-5 2F.7 ....|--- .... ....
....|..|--- .... ....|--- .... ....|--- .... ....
....|..|E-4 2F.F ....|G-5 2F.A ....|--- .... ....
....|..|--- .... ....|--- .... ....|--- .... ....
....|..|E-4 2F.F ....|G-5 2F.7 ....|--- .... ....
....|..|--- .... ....|--- .... ....|--- .... ....
....|..|E-4 2F.F ....|--- .... ....|--- .... ....
....|..|A-2 2F.A ....|--- .... ....|--- .... ....
....|..|A-2 2F.F ....|--- .... ....|--- .... ....
....|..|A-2 2F.7 ....|--- .... ....|--- .... ....
....|..|D#4 2F.F ....|--- .... ....|--- .... ....
....|..|B-2 2F.F ....|--- .... ....|--- .... ....
....|..|A-2 2F.7 ....|--- .... ....|--- .... ....
....|..|--- .... ....|--- .... ....|--- .... ....
....|..|B-2 2F.F ....|--- .... ....|--- .... ....
....|..|R-- .... ....|--- .... ....|--- .... ....
....|..|E-4 2F.7 ....|--- .... ....|--- .... ....
....|..|--- .... ....|--- .... ....|--- .... ....
....|..|B-2 2F.F ....|--- .... ....|--- .... ....
....|..|R-- .... ....|R-- .... ....|--- .... ....
....|..|E-4 2F.7 ....|--- .... ....|--- .... ....
....|..|R-- .... ....|--- .... ....|--- .... ....
....|..|D#4 2F.F ....|F-4 2F.F ....|--- .... ....
....|..|D#4 2F.F ....|--- .... ....|--- .... ....
....|..|D#4 2F.7 ....|--- .... ....|--- .... ....
....|..|B-2 2F.7 ....|--- .... ....|--- .... ....
....|..|B-2 2F.F ....|G-5 2F.F ....|--- .... ....
....|..|R-- .... ....|--- .... ....|--- .... ....
....|..|B-2 2F.7 ....|--- .... ....|--- .... ....
....|..|R-- .... ....|--- .... ....|--- .... ....
....|..|B-2 2F.F ....|C-5 2F.F ....|--- .... ....
....|..|R-- .... ....|R-- .... ....|--- .... ....
....|..|B-2 2F.7 ....|--- .... ....|--- .... ....
....|..|R-- .... ....|R-- .... ....|--- .... ....
....|..|D#4 2F.F ....|B-4 2F.F ....|--- .... ....
....|..|D#4 2F.A ....|B-4 2F.F ....|--- .... ....
....|..|D#4 2F.7 ....|F-4 2F.7 ....|--- .... ....
....|..|D#4 2F.7 ....|--- .... ....|--- .... ....
....|..|B-2 2F.F ....|G-5 2F.A ....|--- .... ....
....|..|--- .... ....|--- .... ....|--- .... ....
....|..|B-2 2F.7 ....|G-5 2F.7 ....|--- .... ....
....|..|--- .... ....|R-- .... ....|--- .... ....
....|..|B-2 2F.F ....|D-4 2F.F ....|--- .... ....
....|..|R-- .... ....|--- .... ....|--- .... ....
....|..|B-2 2F.7 ....|C-5 2F.7 ....|--- .... ....
....|..|R-- .... ....|--- .... ....|--- .... ....
....|..|D#4 2F.F ....|B-4 2F.F ....|--- .... ....
....|..|D#4 2F.F ....|B-4 2F.A ....|--- .... ....
....|..|D#4 2F.7 ....|B-4 2F.7 ....|--- .... ....
....|..|--- .... ....|B-4 2F.7 ....|--- .... ....
....|..|B-2 2F.F ....|C-5 2F.F ....|--- .... ....
....|..|--- .... ....|--- .... ....|--- .... ....
....|..|B-2 2F.7 ....|--- .... ....|--- .... ....
....|..|--- .... ....|R-- .... ....|--- .... ....
....|..|B-2 2F.F ....|F-5 2F.F ....|--- .... ....
....|..|R-- .... ....|R-- .... ....|--- .... ....
....|..|B-2 2F.7 ....|D-4 2F.7 ....|--- .... ....
....|..|R-- .... ....|--- .... ....|--- .... ....
....|..|D#4 2F.F ....|B-4 2F.A ....|--- .... ....
....|..|B-2 2F.F ....|--- .... ....|--- .... ....
....|..|D#4 2F.7 ....|B-4 2F.7 ....|--- .... ....
....|..|D#4 2F.7 ....|--- .... ....|--- .... ....
....|..|B-2 2F.F ....|F-5 2F.F ....|--- .... ....
....|..|R-- .... ....|--- .... ....|--- .... ....
....|..|B-2 2F.7 ....|C-5 2F.7 ....|--- .... ....
....|..|--- .... ....|--- .... ....|--- .... ....
....|..|G#4 2F.F ....|F-5 2F.A ....|--- .... ....
....|..|R-- .... ....|R-- .... ....|--- .... ....
....|..|G#4 2F.F ....|F-5 2F.7 ....|--- .... ....
....|..|R-- .... ....|--- .... ....|--- .... ....
....|..|G#4 2F.F ....|--- .... ....|--- .... ....
....|..|D#4 2F.F ....|--- .... ....|--- .... ....
....|..|D#4 2F.F ....|--- .... ....|--- .... ....
....|..|B-2 2F.7 ....|--- .... ....|--- .... ....

[Pattern2]
....|..|G#4 2F.F ....|F-3 2F.F ....|--- .... ....
....|..|G#4 2F.F ....|--- .... ....|--- .... ....
....|..|B-2 2F.7 ....|F-5 2F.7 ....|--- .... ....
....|..|R-- .... ....|--- .... ....|--- .... ....
....|..|C#3 2F.F ....|B-4 2F.F ....|--- .... ....
....|..|R-- .... ....|R-- .... ....|--- .... ....
....|..|G#4 2F.7 ....|--- .... ....|--- .... ....
....|..|--- .... ....|R-- .... ....|--- .... ....
....|..|C#3 2F.F ....|C-5 2F.F ....|--- .... ....
....|..|R-- .... ....|--- .... ....|--- .... ....
....|..|G#4 2F.7 ....|--- .... ....|--- .... ....
....|..|D#4 2F.7 ....|--- .... ....|--- .... ....
....|..|G#4 2F.F ....|C-5 2F.F ....|--- .... ....
....|..|G#4 2F.F ....|B-4 2F.F ....|--- .... ....
....|..|G#4 2F.7 ....|F-3 2F.7 ....|--- .... ....
....|..|G#4 2F.7 ....|R-- .... ....|--- .... ....
....|..|C#3 2F.F ....|E-3 2F.F ....|--- .... ....
....|..|R-- .... ....|--- .... ....|--- .... ....
....|..|C#3 2F.7 ....|B-4 2F.7 ....|--- .... ....
....|..|R-- .... ....|--- .... ....|--- .... ....
....|..|C#3 2F.F ....|B-4 2F.F ....|--- .... ....
....|..|R-- .... ....|--- .... ....|--- .... ....
....|..|C#3 2F.7 ....|C-5 2F.7 ....|--- .... ....
....|..|R-- .... ....|--- .... ....|--- .... ....
....|..|G#4 2F.F ....|C-5 2F.F ....|--- .... ....
....|..|G#4 2F.F ....|B-4 2F.A ....|--- .... ....
....|..|G#4 2F.7 ....|C-5 2F.7 ....|--- .... ....
....|..|G#4 2F.7 ....|B-4 2F.7 ....|--- .... ....
....|..|C#3 2F.F ....|C-5 2F.F ....|--- .... ....
....|..|R-- .... ....|B-4 2F.F ....|--- .... ....
....|..|C#3 2F.7 ....|E-3 2F.7 ....|--- .... ....
....|..|R-- .... ....|R-- .... ....|--- .... ....
....|..|C#3 2F.F ....|A-3 2F.F ....|--- .... ....
....|..|R-- .... ....|--- .... ....|--- .... ....
....|..|C#3 2F.7 ....|B-4 2F.7 ....|--- .... ....
....|..|R-- .... ....|--- .... ....|--- .... ....
....|..|G#4 2F.F ....|B-4 2F.F ....|--- .... ....
....|..|G#4 2F.A ....|--- .... ....|--- .... ....
....|..|G#4 2F.7 ....|C-5 2F.7 ....|--- .... ....
....|..|G#4 2F.7 ....|--- .... ....|--- .... ....
....|..|C#3 2F.F ....|C-5 2F.F ....|--- .... ....
....|..|R-- .... ....|B-4 2F.A ....|--- .... ....
....|..|C#3 2F.7 ....|C-5 2F.7 ....|--- .... ....
....|..|R-- .... ....|B-4 2F.7 ....|--- .... ....
....|..|C#3 2F.F ....|G-5 2F.F ....|--- .... ....
....|..|R-- .... ....|R-- .... ....|--- .... ....
....|..|C#3 2F.7 ....|A-3 2F.7 ....|--- .... ....
....|..|R-- .... ....|--- .... ....|--- .... ....
....|..|G#4 2F.F ....|B-4 2F.A ....|--- .... ....
....|..|G#4 2F.F ....|--- .... ....|--- .... ....
....|..|G#4 2F.7 ....|B-4 2F.7 ....|--- .... ....
....|..|--- .... ....|--- .... ....|--- .... ....
....|..|C#3 2F.F ....|C-5 2F.A ....|--- .... ....
....|..|R-- .... ....|--- .... ....|--- .... ....
....|..|C#3 2F.7 ....|C-5 2F.7 ....|--- .... ....
....|..|--- .... ....|--- .... ....|--- .... ....
....|..|G#4 2F.F ....|G-5 2F.A ....|--- .... ....
....|..|--- .... ....|--- .... ....|--- .... ....
....|..|G#4 2F.F ....|G-5 2F.7 ....|--- .... ....
....|..|--- .... ....|--- .... ....|--- .... ....
....|..|G#4 2F.F ....|--- .... ....|--- .... ....
....|..|E-4 2F.F ....|--- .... ....|--- .... ....
....|..|G#4 2F.7 ....|--- .... ....|--- .... ....
....|..|G#4 2F.7 ....|--- .... ....|--- .... ....
....|..|G#4 2F.F ....|--- .... ....|--- .... ....
....|..|R-- .... ....|--- .... ....|--- .... ....
....|..|C#3 2F.7 ....|--- .... ....|--- .... ....
....|..|R-- .... ....|--- .... ....|--- .... ....
....|..|B-2 2F.F ....|--- .... ....|--- .... ....
....|..|R-- .... ....|--- .... ....|--- .... ....
....|..|G#4 2F.7 ....|--- .... ....|--- .... ....
....|..|--- .... ....|--- .... ....|--- .... ....
....|..|B-2 2F.F ....|--- .... ....|--- .... ....
....|..|R-- .... ....|R-- .... ....|--- .... ....
....|..|G#4 2F.7 ....|--- .... ....|--- .... ....
....|..|E-4 2F.7 ....|--- .... ....|--- .... ....
....|..|G#4 2F.F ....|A-3 2F.F ....|--- .... ....
....|..|B-2 2F.F ....|--- .... ....|--- .... ....
....|..|G#4 2F.7 ....|--- .... ....|--- .... ....
....|..|R-- .... ....|--- .... ....|--- .... ....
....|..|B-2 2F.F ....|G-5 2F.F ....|--- .... ....
....|..|R-- .... ....|--- .... ....|--- .... ....
....|..|B-2 2F.7 ....|--- .... ....|--- .... ....
....|..|R-- .... ....|A-3 2F.F ....|--- .... ....
....|..|B-2 2F.F ....|C-5 2F.F ....|--- .... ....
....|..|R-- .... ....|R-- .... ....|--- .... ....
....|..|B-2 2F.7 ....|--- .... ....|--- .... ....
....|..|R-- .... ....|R-- .... ....|--- .... ....
....|..|G#4 2F.F ....|B-4 2F.F ....|--- .... ....
....|..|R-- .... ....|--- .... ....|--- .... ....
....|..|G#4 2F.7 ....|A-3 2F.7 ....|--- .... ....
....|..|B-2 2F.7 ....|B-4 2F.F ....|--- .... ....
....|..|B-2 2F.F ....|G-5 2F.A ....|--- .... ....
....|..|R-- .... ....|--- .... ....|--- .... ....
....|..|B-2 2F.7 ....|G-5 2F.7 ....|--- .... ....
....|..|R-- .... ....|A-3 2F.A ....|--- .... ....
....|..|B-2 2F.F ....|A-3 2F.F ....|--- .... ....
....|..|R-- .... ....|A-3 2F.7 ....|--- .... ....
....|..|B-2 2F.7 ....|C-5 2F.7 ....|--- .... ....
....|..|R-- .... ....|--- .... ....|--- .... ....
....|..|G#4 2F.F ....|B-4 2F.F ....|--- .... ....
....|..|B-2 2F.F ....|--- .... ....|--- .... ....
....|..|G#4 2F.7 ....|B-4 2F.7 ....|--- .... ....
....|..|R-- .... ....|B-4 2F.A ....|--- .... ....
....|..|B-2 2F.F ....|C-5 2F.F ....|--- .... ....
....|..|R-- .... ....|B-4 2F.7 ....|--- .... ....
....|..|B-2 2F.7 ....|R-- .... ....|--- .... ....
....|..|R-- .... ....|--- .... ....|--- .... ....
....|..|B-2 2F.F ....|G-5 2F.F ....|--- .... ....
....|..|R-- .... ....|--- .... ....|--- .... ....
....|..|B-2 2F.7 ....|A-3 2F.7 ....|--- .... ....
....|..|R-- .... ....|--- .... ....|--- .... ....
....|..|G#4 2F.F ....|B-4 2F.A ....|--- .... ....
....|..|R-- .... ....|--- .... ....|--- .... ....
....|..|G#4 2F.7 ....|B-4 2F.7 ....|--- .... ....
....|..|B-2 2F.7 ....|--- .... ....|--- .... ....
....|..|B-2 2F.F ....|C-5 2F.A ....|--- .... ....
....|..|R-- .... ....|--- .... ....|--- .... ....
....|..|B-2 2F.7 ....|C-5 2F.7 ....|--- .... ....
....|..|--- .... ....|--- .... ....|--- .... ....
....|..|G#4 2F.F ....|G-5 2F.A ....|--- .... ....
....|..|R-- .... ....|--- .... ....|--- .... ....
....|..|G#4 2F.F ....|G-5 2F.7 ....|--- .... ....
....|..|G#4 2F.F ....|--- .... ....|--- .... ....
....|..|D#4 2F.F ....|--- .... ....|--- .... ....
....|..|R-- .... ....|--- .... ....|--- .... ....
....|..|G#4 2F.7 ....|--- .... ....|--- .... ....
....|..|G#4 2F.F ....|--- .... ....|--- .... ....

[Pattern3]
....|..|G#4 2F.F ....|--- .... ....|--- .... ....
....|..|R-- .... ....|--- .... ....|--- .... ....
....|..|B-2 2F.7 ....|--- .... ....|--- .... ....
....|..|R-- .... ....|--- .... ....|--- .... ....
....|..|A-2 2F.F ....|--- .... ....|--- .... ....
....|..|R-- .... ....|--- .... ....|--- .... ....
....|..|G#4 2F.7 ....|--- .... ....|--- .... ....
....|..|G#4 2F.A ....|--- .... ....|--- .... ....
....|..|A-2 2F.F ....|A-3 2F.F ....|--- .... ....
....|..|G#4 2F.7 ....|R-- .... ....|--- .... ....
....|..|D#4 2F.7 ....|--- .... ....|--- .... ....
....|..|G#4 2F.A ....|--- .... ....|--- .... ....
....|..|G#4 2F.F ....|A-3 2F.F ....|--- .... ....
....|..|G#4 2F.F ....|--- .... ....|--- .... ....
....|..|G#4 2F.7 ....|--- .... ....|--- .... ....
....|..|R-- .... ....|--- .... ....|--- .... ....
....|..|A-2 2F.F ....|G-5 2F.F ....|--- .... ....
....|..|R-- .... ....|--- .... ....|--- .... ....
....|..|A-2 2F.7 ....|--- .... ....|--- .... ....
....|..|R-- .... ....|--- .... ....|--- .... ....
....|..|A-2 2F.F ....|C-5 2F.F ....|--- .... ....
....|..|R-- .... ....|R-- .... ....|--- .... ....
....|..|A-2 2F.7 ....|A-3 2F.7 ....|--- .... ....
....|..|R-- .... ....|R-- .... ....|--- .... ....
....|..|G#4 2F.F ....|B-4 2F.F ....|--- .... ....
....|..|A-2 2F.F ....|B-4 2F.F ....|--- .... ....
....|..|G#4 2F.7 ....|A-3 2F.7 ....|--- .... ....
....|..|G#4 2F.7 ....|--- .... ....|--- .... ....
....|..|A-2 2F.F ....|G-5 2F.A ....|--- .... ....
....|..|R-- .... ....|--- .... ....|--- .... ....
....|..|A-2 2F.7 ....|G-5 2F.7 ....|--- .... ....
....|..|--- .... ....|--- .... ....|--- .... ....
....|..|A-2 2F.F ....|F-4 2F.F ....|--- .... ....
....|..|--- .... ....|--- .... ....|--- .... ....
....|..|A-2 2F.7 ....|C-5 2F.7 ....|--- .... ....
....|..|--- .... ....|--- .... ....|--- .... ....
....|..|G#4 2F.F ....|B-4 2F.F ....|--- .... ....
....|..|G#4 2F.F ....|B-4 2F.A ....|--- .... ....
....|..|G#4 2F.7 ....|B-4 2F.7 ....|--- .... ....
....|..|A-2 2F.7 ....|B-4 2F.7 ....|--- .... ....
....|..|A-2 2F.F ....|C-5 2F.F ....|--- .... ....
....|..|R-- .... ....|--- .... ....|--- .... ....
....|..|A-2 2F.7 ....|R-- .... ....|--- .... ....
....|..|R-- .... ....|--- .... ....|--- .... ....
....|..|A-2 2F.F ....|G-5 2F.F ....|--- .... ....
....|..|R-- .... ....|--- .... ....|--- .... ....
....|..|A-2 2F.7 ....|F-4 2F.7 ....|--- .... ....
....|..|--- .... ....|--- .... ....|--- .... ....
....|..|G#4 2F.F ....|B-4 2F.A ....|--- .... ....
....|..|E-4 2F.F ....|--- .... ....|--- .... ....
....|..|G#4 2F.7 ....|B-4 2F.7 ....|--- .... ....
....|..|G#4 2F.7 ....|--- .... ....|--- .... ....
....|..|A-2 2F.F ....|C-5 2F.A ....|--- .... ....
....|..|R-- .... ....|--- .... ....|--- .... ....
....|..|A-2 2F.7 ....|C-5 2F.7 ....|--- .... ....
....|..|--- .... ....|--- .... ....|--- .... ....
....|..|G#4 2F.F ....|G-5 2F.A ....|--- .... ....
....|..|R-- .... ....|--- .... ....|--- .... ....
....|..|G#4 2F.F ....|G-5 2F.7 ....|--- .... ....
....|..|R-- .... ....|--- .... ....|--- .... ....
....|..|G#4 2F.F ....|--- .... ....|--- .... ....
....|..|E-4 2F.F ....|--- .... ....|--- .... ....
....|..|G#4 2F.7 ....|--- .... ....|--- .... ....
....|..|E-4 2F.7 ....|--- .... ....|--- .... ....
....|..|G#4 2F.F ....|--- .... ....|--- .... ....
....|..|B-2 2F.F ....|--- .... ....|--- .... ....
....|..|A-2 2F.7 ....|--- .... ....|--- .... ....
....|..|R-- .... ....|--- .... ....|--- .... ....
....|..|B-2 2F.F ....|--- .... ....|--- .... ....
....|..|R-- .... ....|--- .... ....|--- .... ....
....|..|G#4 2F.7 ....|--- .... ....|--- .... ....
....|..|--- .... ....|--- .... ....|--- .... ....
....|..|B-2 2F.F ....|--- .... ....|--- .... ....
....|..|R-- .... ....|R-- .... ....|--- .... ....
....|..|G#4 2F.7 ....|--- .... ....|--- .... ....
....|..|E-4 2F.7 ....|--- .... ....|--- .... ....
....|..|G#4 2F.F ....|F-4 2F.F ....|--- .... ....
....|..|R-- .... ....|--- .... ....|--- .... ....
....|..|G#4 2F.7 ....|--- .... ....|--- .... ....
....|..|B-2 2F.7 ....|--- .... ....|--- .... ....
....|..|B-2 2F.F ....|G-5 2F.F ....|--- .... ....
....|..|R-- .... ....|--- .... ....|--- .... ....
....|..|B-2 2F.7 ....|--- .... ....|--- .... ....
....|..|R-- .... ....|--- .... ....|--- .... ....
....|..|B-2 2F.F ....|C-5 2F.F ....|--- .... ....
....|..|R-- .... ....|R-- .... ....|--- .... ....
....|..|B-2 2F.7 ....|--- .... ....|--- .... ....
....|..|R-- .... ....|R-- .... ....|--- .... ....
....|..|G#4 2F.F ....|B-4 2F.F ....|--- .... ....
....|..|R-- .... ....|B-4 2F.F ....|--- .... ....
....|..|G#4 2F.7 ....|F-4 2F.7 ....|--- .... ....
....|..|R-- .... ....|--- .... ....|--- .... ....
....|..|B-2 2F.A ....|G-5 2F.A ....|--- .... ....
....|..|R-- .... ....|--- .... ....|--- .... ....
....|..|B-2 2F.7 ....|G-5 2F.7 ....|--- .... ....
....|..|R-- .... ....|R-- .... ....|--- .... ....
....|..|B-2 2F.A ....|D-4 2F.F ....|--- .... ....
....|..|R-- .... ....|--- .... ....|--- .... ....
....|..|B-2 2F.7 ....|C-5 2F.7 ....|--- .... ....
....|..|R-- .... ....|--- .... ....|--- .... ....
....|..|G#4 2F.A ....|B-4 2F.F ....|--- .... ....
....|..|--- .... ....|B-4 2F.A ....|--- .... ....
....|..|G#4 2F.7 ....|B-4 2F.7 ....|--- .... ....
....|..|--- .... ....|B-4 2F.7 ....|--- .... ....
....|..|--- .... ....|C-5 2F.F ....|--- .... ....
....|..|--- .... ....|--- .... ....|--- .... ....
....|..|--- .... ....|--- .... ....|--- .... ....
....|..|--- .... ....|R-- .... ....|--- .... ....
....|..|--- .... ....|F-5 2F.F ....|--- .... ....
....|..|--- .... ....|R-- .... ....|--- .... ....
....|..|--- .... ....|D-4 2F.7 ....|--- .... ....
....|..|--- .... ....|--- .... ....|--- .... ....
....|..|--- .... ....|B-4 2F.A ....|--- .... ....
....|..|--- .... ....|--- .... ....|--- .... ....
....|..|--- .... ....|B-4 2F.7 ....|--- .... ....
....|..|--- .... ....|--- .... ....|--- .... ....
....|..|--- .... ....|F-5 2F.F ....|--- .... ....
....|..|--- .... ....|--- .... ....|--- .... ....
....|..|--- .... ....|C-5 2F.7 ....|--- .... ....
....|..|--- .... ....|--- .... ....|--- .... ....
....|..|--- .... ....|F-5 2F.A ....|--- .... ....
....|..|--- .... ....|R-- .... ....|--- .... ....
....|..|--- .... ....|F-5 2F.7 ....|--- .... ....
....|..|--- .... ....|--- .... ....|--- .... ....
....|..|--- .... ....|--- .... ....|--- .... ....
....|..|--- .... ....|--- .... ....|--- .... ....
....|..|--- .... ....|--- .... ....|--- .... ....
....|..|--- .... ....|--- .... ....|--- .... ....

[Pattern4]
....|..|--- .... ....|F-3 2F.F ....|--- .... ....
....|..|--- .... ....|--- .... ....|--- .... ....
....|..|--- .... ....|F-5 2F.7 ....|--- .... ....
....|..|--- .... ....|--- .... ....|--- .... ....
....|..|--- .... ....|B-4 2F.F ....|--- .... ....
....|..|--- .... ....|R-- .... ....|--- .... ....
....|..|--- .... ....|--- .... ....|--- .... ....
....|..|--- .... ....|R-- .... ....|--- .... ....
....|..|--- .... ....|C-5 2F.F ....|--- .... ....
....|..|--- .... ....|--- .... ....|--- .... ....
....|..|--- .... ....|--- .... ....|--- .... ....
....|..|--- .... ....|--- .... ....|--- .... ....
....|..|--- .... ....|C-5 2F.F ....|--- .... ....
....|..|--- .... ....|B-4 2F.F ....|--- .... ....
....|..|--- .... ....|F-3 2F.7 ....|--- .... ....
....|..|--- .... ....|R-- .... ....|--- .... ....
....|..|--- .... ....|E-3 2F.F ....|--- .... ....
....|..|--- .... ....|--- .... ....|--- .... ....
....|..|--- .... ....|B-4 2F.7 ....|--- .... ....
....|..|--- .... ....|--- .... ....|--- .... ....
....|..|--- .... ....|B-4 2F.F ....|--- .... ....
....|..|--- .... ....|--- .... ....|--- .... ....
....|..|--- .... ....|C-5 2F.7 ....|--- .... ....
....|..|--- .... ....|--- .... ....|--- .... ....
....|..|--- .... ....|C-5 2F.F ....|--- .... ....
....|..|--- .... ....|B-4 2F.A ....|--- .... ....
....|..|--- .... ....|C-5 2F.7 ....|--- .... ....
....|..|--- .... ....|B-4 2F.7 ....|--- .... ....
....|..|--- .... ....|C-5 2F.F ....|--- .... ....
....|..|--- .... ....|B-4 2F.F ....|--- .... ....
....|..|--- .... ....|E-3 2F.7 ....|--- .... ....
....|..|--- .... ....|R-- .... ....|--- .... ....
....|..|--- .... ....|A-3 2F.F ....|--- .... ....
....|..|--- .... ....|--- .... ....|--- .... ....
....|..|--- .... ....|B-4 2F.7 ....|--- .... ....
....|..|--- .... ....|--- .... ....|--- .... ....
....|..|--- .... ....|B-4 2F.F ....|--- .... ....
....|..|--- .... ....|--- .... ....|--- .... ....
....|..|--- .... ....|C-5 2F.7 ....|--- .... ....
....|..|--- .... ....|--- .... ....|--- .... ....
....|..|--- .... ....|C-5 2F.F ....|--- .... ....
....|..|--- .... ....|B-4 2F.A ....|--- .... ....
....|..|--- .... ....|C-5 2F.7 ....|--- .... ....
....|..|--- .... ....|B-4 2F.7 ....|--- .... ....
....|..|--- .... ....|G-5 2F.F ....|--- .... ....
....|..|--- .... ....|R-- .... ....|--- .... ....
....|..|--- .... ....|A-3 2F.7 ....|--- .... ....
....|..|--- .... ....|--- .... ....|--- .... ....
....|..|--- .... ....|B-4 2F.A ....|--- .... ....
....|..|--- .... ....|--- .... ....|--- .... ....
....|..|--- .... ....|B-4 2F.7 ....|--- .... ....
....|..|--- .... ....|--- .... ....|--- .... ....
....|..|--- .... ....|C-5 2F.A ....|--- .... ....
....|..|--- .... ....|--- .... ....|--- .... ....
....|..|--- .... ....|C-5 2F.7 ....|--- .... ....
....|..|--- .... ....|--- .... ....|--- .... ....
....|..|--- .... ....|G-5 2F.A ....|--- .... ....
....|..|--- .... ....|--- .... ....|--- .... ....
....|..|--- .... ....|G-5 2F.7 ....|--- .... ....
....|..|--- .... ....|--- .... ....|--- .... ....
....|..|--- .... ....|--- .... ....|--- .... ....
....|..|--- .... ....|--- .... ....|--- .... ....
....|..|--- .... ....|--- .... ....|--- .... ....
....|..|--- .... ....|--- .... ....|--- .... ....
....|..|--- .... ....|--- .... ....|--- .... ....
....|..|--- .... ....|--- .... ....|--- .... ....
....|..|--- .... ....|--- .... ....|--- .... ....
....|..|--- .... ....|--- .... ....|--- .... ....
....|..|--- .... ....|--- .... ....|--- .... ....
....|..|--- .... ....|--- .... ....|--- .... ....
....|..|--- .... ....|--- .... ....|--- .... ....
....|..|--- .... ....|--- .... ....|--- .... ....
....|..|--- .... ....|--- .... ....|--- .... ....
....|..|--- .... ....|R-- .... ....|--- .... ....
....|..|--- .... ....|--- .... ....|--- .... ....
....|..|--- .... ....|--- .... ....|--- .... ....
....|..|--- .... ....|A-3 2F.F ....|--- .... ....
....|..|--- .... ....|--- .... ....|--- .... ....
....|..|--- .... ....|--- .... ....|--- .... ....
....|..|--- .... ....|--- .... ....|--- .... ....
....|..|--- .... ....|G-5 2F.F ....|--- .... ....
....|..|--- .... ....|--- .... ....|--- .... ....
....|..|--- .... ....|--- .... ....|--- .... ....
....|..|--- .... ....|A-3 2F.F ....|--- .... ....
....|..|--- .... ....|C-5 2F.F ....|--- .... ....
....|..|--- .... ....|R-- .... ....|--- .... ....
....|..|--- .... ....|--- .... ....|--- .... ....
....|..|--- .... ....|R-- .... ....|--- .... ....
....|..|--- .... ....|B-4 2F.F ....|--- .... ....
....|..|--- .... ....|--- .... ....|--- .... ....
....|..|--- .... ....|A-3 2F.7 ....|--- .... ....
....|..|--- .... ....|B-4 2F.F ....|--- .... ....
....|..|--- .... ....|G-5 2F.A ....|--- .... ....
....|..|--- .... ....|--- .... ....|--- .... ....
....|..|--- .... ....|G-5 2F.7 ....|--- .... ....
....|..|--- .... ....|A-3 2F.A ....|--- .... ....
....|..|--- .... ....|A-3 2F.F ....|--- .... ....
....|..|--- .... ....|A-3 2F.7 ....|--- .... ....
....|..|--- .... ....|C-5 2F.7 ....|--- .... ....
....|..|--- .... ....|--- .... ....|--- .... ....
....|..|--- .... ....|B-4 2F.F ....|--- .... ....
....|..|--- .... ....|--- .... ....|--- .... ....
....|..|--- .... ....|B-4 2F.7 ....|--- .... ....
....|..|--- .... ....|B-4 2F.A ....|--- .... ....
....|..|--- .... ....|C-5 2F.F ....|--- .... ....
....|..|--- .... ....|B-4 2F.7 ....|--- .... ....
....|..|--- .... ....|R-- .... ....|--- .... ....
....|..|--- .... ....|--- .... ....|--- .... ....
....|..|--- .... ....|G-5 2F.F ....|--- .... ....
....|..|--- .... ....|--- .... ....|--- .... ....
....|..|--- .... ....|A-3 2F.7 ....|--- .... ....
....|..|--- .... ....|--- .... ....|--- .... ....
....|..|--- .... ....|B-4 2F.A ....|--- .... ....
....|..|--- .... ....|--- .... ....|--- .... ....
....|..|--- .... ....|B-4 2F.7 ....|--- .... ....
....|..|--- .... ....|--- .... ....|--- .... ....
....|..|--- .... ....|C-5 2F.A ....|--- .... ....
....|..|--- .... ....|--- .... ....|--- .... ....
....|..|--- .... ....|C-5 2F.7 ....|--- .... ....
....|..|--- .... ....|--- .... ....|--- .... ....
....|..|--- .... ....|G-5 2F.A ....|--- .... ....
....|..|--- .... ....|--- .... ....|--- .... ....
....|..|--- .... ....|G-5 2F.7 ....|--- .... ....
....|..|--- .... ....|--- .... ....|--- .... ....
....|..|--- .... ....|--- .... ....|--- .... ....
....|..|--- .... ....|--- .... ....|--- .... ....
....|..|--- .... ....|--- .... ....|--- .... ....
....|..|--- .... ....|--- .... ....|--- .... ....

[Pattern5]
....|..|--- .... ....|--- .... ....|--- .... ....
....|..|--- .... ....|--- .... ....|--- .... ....
....|..|--- .... ....|--- .... ....|--- .... ....
....|..|--- .... ....|--- .... ....|--- .... ....
....|..|--- .... ....|--- .... ....|--- .... ....
....|..|--- .... ....|--- .... ....|--- .... ....
....|..|--- .... ....|--- .... ....|--- .... ....
....|..|--- .... ....|--- .... ....|--- .... ....
....|..|--- .... ....|A-3 2F.F ....|--- .... ....
....|..|--- .... ....|R-- .... ....|--- .... ....
....|..|--- .... ....|--- .... ....|--- .... ....
....|..|--- .... ....|--- .... ....|--- .... ....
....|..|--- .... ....|A-3 2F.F ....|--- .... ....
....|..|--- .... ....|--- .... ....|--- .... ....
....|..|--- .... ....|--- .... ....|--- .... ....
....|..|--- .... ....|--- .... ....|--- .... ....
....|..|--- .... ....|G-5 2F.F ....|--- .... ....
....|..|--- .... ....|--- .... ....|--- .... ....
....|..|--- .... ....|--- .... ....|--- .... ....
....|..|--- .... ....|--- .... ....|--- .... ....
....|..|--- .... ....|C-5 2F.F ....|--- .... ....
....|..|--- .... ....|R-- .... ....|--- .... ....
....|..|--- .... ....|A-3 2F.7 ....|--- .... ....
....|..|--- .... ....|R-- .... ....|--- .... ....
....|..|--- .... ....|B-4 2F.F ....|--- .... ....
....|..|--- .... ....|B-4 2F.F ....|--- .... ....
....|..|--- .... ....|A-3 2F.7 ....|--- .... ....
....|..|--- .... ....|--- .... ....|--- .... ....
....|..|--- .... ....|G-5 2F.A ....|--- .... ....
....|..|--- .... ....|--- .... ....|--- .... ....
....|..|--- .... ....|G-5 2F.7 ....|--- .... ....
....|..|--- .... ....|--- .... ....|--- .... ....
....|..|--- .... ....|F-4 2F.F ....|--- .... ....
....|..|--- .... ....|--- .... ....|--- .... ....
....|..|--- .... ....|C-5 2F.7 ....|--- .... ....
....|..|--- .... ....|--- .... ....|--- .... ....
....|..|--- .... ....|B-4 2F.F ....|--- .... ....
....|..|--- .... ....|B-4 2F.A ....|--- .... ....
....|..|--- .... ....|B-4 2F.7 ....|--- .... ....
....|..|--- .... ....|B-4 2F.7 ....|--- .... ....
....|..|--- .... ....|C-5 2F.F ....|--- .... ....
....|..|--- .... ....|--- .... ....|--- .... ....
....|..|--- .... ....|R-- .... ....|--- .... ....
....|..|--- .... ....|--- .... ....|--- .... ....
....|..|--- .... ....|G-5 2F.F ....|--- .... ....
....|..|--- .... ....|--- .... ....|--- .... ....
....|..|--- .... ....|F-4 2F.7 ....|--- .... ....
....|..|--- .... ....|--- .... ....|--- .... ....
....|..|--- .... ....|B-4 2F.A ....|--- .... ....
....|..|--- .... ....|--- .... ....|--- .... ....
....|..|--- .... ....|B-4 2F.7 ....|--- .... ....
....|..|--- .... ....|--- .... ....|--- .... ....
....|..|--- .... ....|C-5 2F.A ....|--- .... ....
....|..|--- .... ....|--- .... ....|--- .... ....
....|..|--- .... ....|C-5 2F.7 ....|--- .... ....
....|..|--- .... ....|--- .... ....|--- .... ....
....|..|--- .... ....|G-5 2F.A ....|--- .... ....
....|..|--- .... ....|--- .... ....|--- .... ....
....|..|--- .... ....|G-5 2F.7 ....|--- .... ....
....|..|--- .... ....|--- .... ....|--- .... ....
....|..|--- .... ....|--- .... ....|--- .... ....
....|..|--- .... ....|--- .... ....|--- .... ....
....|..|--- .... ....|--- .... ....|--- .... ....
....|..|--- .... ....|--- .... ....|--- .... ....
....|..|--- .... ....|--- .... ....|--- .... ....
....|..|--- .... ....|--- .... ....|--- .... ....
....|..|--- .... ....|--- .... ....|--- .... ....
....|..|--- .... ....|--- .... ....|--- .... ....
....|..|--- .... ....|--- .... ....|--- .... ....
....|..|--- .... ....|--- .... ....|--- .... ....
....|..|--- .... ....|--- .... ....|--- .... ....
....|..|--- .... ....|--- .... ....|--- .... ....
....|..|--- .... ....|--- .... ....|--- .... ....
....|..|--- .... ....|R-- .... ....|--- .... ....
....|..|--- .... ....|--- .... ....|--- .... ....
....|..|--- .... ....|--- .... ....|--- .... ....
....|..|--- .... ....|F-4 2F.F ....|--- .... ....
....|..|--- .... ....|--- .... ....|--- .... ....
....|..|--- .... ....|--- .... ....|--- .... ....
....|..|--- .... ....|--- .... ....|--- .... ....
....|..|--- .... ....|G-5 2F.F ....|--- .... ....
....|..|--- .... ....|--- .... ....|--- .... ....
....|..|--- .... ....|--- .... ....|--- .... ....
....|..|--- .... ....|--- .... ....|--- .... ....
....|..|--- .... ....|C-5 2F.F ....|--- .... ....
....|..|--- .... ....|R-- .... ....|--- .... ....
....|..|--- .... ....|--- .... ....|--- .... ....
....|..|--- .... ....|R-- .... ....|--- .... ....
....|..|--- .... ....|B-4 2F.F ....|--- .... ....
....|..|--- .... ....|B-4 2F.F ....|--- .... ....
....|..|--- .... ....|F-4 2F.7 ....|--- .... ....
....|..|--- .... ....|--- .... ....|--- .... ....
....|..|--- .... ....|G-5 2F.A ....|--- .... ....
....|..|--- .... ....|--- .... ....|--- .... ....
....|..|--- .... ....|G-5 2F.7 ....|--- .... ....
....|..|--- .... ....|R-- .... ....|--- .... ....
....|..|--- .... ....|D-4 2F.F ....|--- .... ....
....|..|--- .... ....|--- .... ....|--- .... ....
....|..|--- .... ....|C-5 2F.7 ....|--- .... ....
....|..|--- .... ....|--- .... ....|--- .... ....
....|..|--- .... ....|B-4 2F.F ....|--- .... ....
....|..|--- .... ....|B-4 2F.A ....|--- .... ....
....|..|--- .... ....|B-4 2F.7 ....|--- .... ....
....|..|--- .... ....|B-4 2F.7 ....|--- .... ....
....|..|--- .... ....|C-5 2F.F ....|--- .... ....
....|..|--- .... ....|--- .... ....|--- .... ....
....|..|--- .... ....|--- .... ....|--- .... ....
....|..|--- .... ....|R-- .... ....|--- .... ....
....|..|--- .... ....|F-5 2F.F ....|--- .... ....
....|..|--- .... ....|R-- .... ....|--- .... ....
....|..|--- .... ....|D-4 2F.7 ....|--- .... ....
....|..|--- .... ....|--- .... ....|--- .... ....
....|..|--- .... ....|B-4 2F.A ....|--- .... ....
....|..|--- .... ....|--- .... ....|--- .... ....
....|..|--- .... ....|B-4 2F.7 ....|--- .... ....
....|..|--- .... ....|--- .... ....|--- .... ....
....|..|--- .... ....|F-5 2F.F ....|--- .... ....
....|..|--- .... ....|--- .... ....|--- .... ....
....|..|--- .... ....|C-5 2F.7 ....|--- .... ....
....|..|--- .... ....|--- .... ....|--- .... ....
....|..|--- .... ....|F-5 2F.A ....|--- .... ....
....|..|--- .... ....|R-- .... ....|--- .... ....
....|..|--- .... ....|F-5 2F.7 ....|--- .... ....
....|..|--- .... ....|--- .... ....|--- .... ....
....|..|--- .... ....|--- .... ....|--- .... ....
....|..|--- .... ....|--- .... ....|--- .... ....
....|..|--- .... ....|--- .... ....|--- .... ....
....|..|--- .... ....|--- .... ....|--- .... ....

[Pattern8]
....|..|--- .... ....|F-3 2F.F ....|--- .... ....
....|..|--- .... ....|--- .... ....|--- .... ....
....|..|--- .... ....|F-5 2F.7 ....|--- .... ....
....|..|--- .... ....|--- .... ....|--- .... ....
....|..|--- .... ....|B-4 2F.F ....|--- .... ....
....|..|--- .... ....|R-- .... ....|--- .... ....
....|..|--- .... ....|--- .... ....|--- .... ....
....|..|--- .... ....|R-- .... ....|--- .... ....
....|..|--- .... ....|C-5 2F.F ....|--- .... ....
....|..|--- .... ....|--- .... ....|--- .... ....
....|..|--- .... ....|--- .... ....|--- .... ....
....|..|--- .... ....|--- .... ....|--- .... ....
....|..|--- .... ....|C-5 2F.F ....|--- .... ....
....|..|--- .... ....|B-4 2F.F ....|--- .... ....
....|..|--- .... ....|F-3 2F.7 ....|--- .... ....
....|..|--- .... ....|R-- .... ....|--- .... ....
....|..|--- .... ....|E-3 2F.F ....|--- .... ....
....|..|--- .... ....|--- .... ....|--- .... ....
....|..|--- .... ....|B-4 2F.7 ....|--- .... ....
....|..|--- .... ....|--- .... ....|--- .... ....
....|..|--- .... ....|B-4 2F.F ....|--- .... ....
....|..|--- .... ....|--- .... ....|--- .... ....
....|..|--- .... ....|C-5 2F.7 ....|--- .... ....
....|..|--- .... ....|--- .... ....|--- .... ....
....|..|--- .... ....|C-5 2F.F ....|--- .... ....
....|..|--- .... ....|B-4 2F.A ....|--- .... ....
....|..|--- .... ....|C-5 2F.7 ....|--- .... ....
....|..|--- .... ....|B-4 2F.7 ....|--- .... ....
....|..|--- .... ....|C-5 2F.F ....|--- .... ....
....|..|--- .... ....|B-4 2F.F ....|--- .... ....
....|..|--- .... ....|E-3 2F.7 ....|--- .... ....
....|..|--- .... ....|R-- .... ....|--- .... ....
....|..|--- .... ....|B-4 2F.A ....|--- .... ....
....|..|--- .... ....|--- .... ....|--- .... ....
....|..|--- .... ....|B-4 2F.7 ....|--- .... ....
....|..|--- .... ....|--- .... ....|--- .... ....
....|..|--- .... ....|C-5 2F.A ....|--- .... ....
....|..|--- .... ....|--- .... ....|--- .... ....
....|..|--- .... ....|C-5 2F.7 ....|--- .... ....
....|..|--- .... ....|--- .... ....|--- .... ....
....|..|--- .... ....|C-5 2F.A ....|--- .... ....
....|..|--- .... ....|B-4 2F.A ....|--- .... ....
....|..|--- .... ....|C-5 2F.7 ....|--- .... ....
....|..|--- .... ....|B-4 2F.7 ....|--- .... ....
....|..|--- .... ....|--- .... ....|--- .... ....
....|..|--- .... ....|R-- .... ....|--- .... ....
....|..|--- .... ....|--- .... ....|--- .... ....
....|..|--- .... ....|--- .... ....|--- .... ....
....|..|--- .... ....|--- .... ....|--- .... ....
....|..|--- .... ....|--- .... ....|--- .... ....
....|..|--- .... ....|--- .... ....|--- .... ....
....|..|--- .... ....|--- .... ....|--- .... ....
....|..|--- .... ....|--- .... ....|--- .... ....
....|..|--- .... ....|--- .... ....|--- .... ....
....|..|--- .... ....|--- .... ....|--- .... ....
....|..|--- .... ....|--- .... ....|--- .... ....
....|..|--- .... ....|--- .... ....|--- .... ....
....|..|--- .... ....|--- .... ....|--- .... ....
....|..|--- .... ....|--- .... ....|--- .... ....
....|..|--- .... ....|--- .... ....|--- .... ....
....|..|--- .... ....|--- .... ....|--- .... ....
....|..|--- .... ....|--- .... ....|--- .... ....
....|..|--- .... ....|--- .... ....|--- .... ....
....|..|--- .... ....|--- .... ....|--- .... ....
....|..|--- .... ....|--- .... ....|--- .... ....
....|..|--- .... ....|--- .... ....|--- .... ....
....|..|--- .... ....|--- .... ....|--- .... ....
....|..|--- .... ....|--- .... ....|--- .... ....
....|..|--- .... ....|--- .... ....|--- .... ....
....|..|--- .... ....|--- .... ....|--- .... ....
....|..|--- .... ....|--- .... ....|--- .... ....
....|..|--- .... ....|--- .... ....|--- .... ....
....|..|--- .... ....|--- .... ....|--- .... ....
....|..|--- .... ....|--- .... ....|--- .... ....
....|..|--- .... ....|--- .... ....|--- .... ....
....|..|--- .... ....|--- .... ....|--- .... ....
....|..|--- .... ....|--- .... ....|--- .... ....
....|..|--- .... ....|--- .... ....|--- .... ....
....|..|--- .... ....|--- .... ....|--- .... ....
....|..|--- .... ....|--- .... ....|--- .... ....
....|..|--- .... ....|--- .... ....|--- .... ....
....|..|--- .... ....|--- .... ....|--- .... ....
....|..|--- .... ....|--- .... ....|--- .... ....
....|..|--- .... ....|--- .... ....|--- .... ....
....|..|--- .... ....|--- .... ....|--- .... ....
....|..|--- .... ....|--- .... ....|--- .... ....
....|..|--- .... ....|--- .... ....|--- .... ....
....|..|--- .... ....|--- .... ....|--- .... ....
....|..|--- .... ....|--- .... ....|--- .... ....
....|..|--- .... ....|--- .... ....|--- .... ....
....|..|--- .... ....|--- .... ....|--- .... ....
....|..|--- .... ....|--- .... ....|--- .... ....
....|..|--- .... ....|--- .... ....|--- .... ....
....|..|--- .... ....|--- .... ....|--- .... ....
....|..|--- .... ....|--- .... ....|--- .... ....
....|..|--- .... ....|--- .... ....|--- .... ....
....|..|--- .... ....|--- .... ....|--- .... ....
....|..|--- .... ....|--- .... ....|--- .... ....
....|..|--- .... ....|--- .... ....|--- .... ....
....|..|--- .... ....|--- .... ....|--- .... ....
....|..|--- .... ....|--- .... ....|--- .... ....
....|..|--- .... ....|--- .... ....|--- .... ....
....|..|--- .... ....|--- .... ....|--- .... ....
....|..|--- .... ....|--- .... ....|--- .... ....
....|..|--- .... ....|--- .... ....|--- .... ....
....|..|--- .... ....|--- .... ....|--- .... ....
....|..|--- .... ....|--- .... ....|--- .... ....
....|..|--- .... ....|--- .... ....|--- .... ....
....|..|--- .... ....|--- .... ....|--- .... ....
....|..|--- .... ....|--- .... ....|--- .... ....
....|..|--- .... ....|--- .... ....|--- .... ....
....|..|--- .... ....|--- .... ....|--- .... ....
....|..|--- .... ....|--- .... ....|--- .... ....
....|..|--- .... ....|--- .... ....|--- .... ....
....|..|--- .... ....|--- .... ....|--- .... ....
....|..|--- .... ....|--- .... ....|--- .... ....
....|..|--- .... ....|--- .... ....|--- .... ....
....|..|--- .... ....|--- .... ....|--- .... ....
....|..|--- .... ....|--- .... ....|--- .... ....
....|..|--- .... ....|--- .... ....|--- .... ....
....|..|--- .... ....|--- .... ....|--- .... ....
....|..|--- .... ....|--- .... ....|--- .... ....
....|..|--- .... ....|--- .... ....|--- .... ....
....|..|--- .... ....|--- .... ....|--- .... ....
....|..|--- .... ....|--- .... ....|--- .... ....
....|..|--- .... ....|--- .... ....|--- .... ....
....|..|--- .... ....|--- .... ....|--- .... ....
....|..|--- .... ....|--- .... ....|--- .... ....

[Pattern9]
....|..|--- .... ....|--- .... ....|--- .... ....
....|..|--- .... ....|--- .... ....|--- .... ....
....|..|--- .... ....|--- .... ....|--- .... ....
....|..|--- .... ....|--- .... ....|--- .... ....
....|..|--- .... ....|--- .... ....|--- .... ....
....|..|--- .... ....|--- .... ....|--- .... ....
....|..|--- .... ....|--- .... ....|--- .... ....
....|..|--- .... ....|--- .... ....|--- .... ....
....|..|--- .... ....|--- .... ....|--- .... ....
....|..|--- .... ....|--- .... ....|--- .... ....
....|..|--- .... ....|--- .... ....|--- .... ....
....|..|--- .... ....|--- .... ....|--- .... ....
....|..|--- .... ....|--- .... ....|--- .... ....
....|..|--- .... ....|--- .... ....|--- .... ....
....|..|--- .... ....|--- .... ....|--- .... ....
....|..|--- .... ....|--- .... ....|--- .... ....
....|..|--- .... ....|--- .... ....|--- .... ....
....|..|--- .... ....|--- .... ....|--- .... ....
....|..|--- .... ....|--- .... ....|--- .... ....
....|..|--- .... ....|--- .... ....|--- .... ....
....|..|--- .... ....|--- .... ....|--- .... ....
....|..|--- .... ....|--- .... ....|--- .... ....
....|..|--- .... ....|--- .... ....|--- .... ....
....|..|--- .... ....|--- .... ....|--- .... ....
....|..|--- .... ....|--- .... ....|--- .... ....
....|..|--- .... ....|--- .... ....|--- .... ....
....|..|--- .... ....|--- .... ....|--- .... ....
....|..|--- .... ....|--- .... ....|--- .... ....
....|..|--- .... ....|--- .... ....|--- .... ....
....|..|--- .... ....|--- .... ....|--- .... ....
....|..|--- .... ....|--- .... ....|--- .... ....
....|..|--- .... ....|--- .... ....|--- .... ....
....|..|A-4 2F.F ....|A-3 2F.F ....|--- .... ....
....|..|R-- .... ....|R-- .... ....|--- .... ....
....|..|B-4 2F.F ....|A-3 2F.F ....|--- .... ....
....|..|R-- .... ....|R-- .... ....|--- .... ....
....|..|C-5 2F.F ....|--- .... ....|--- .... ....
....|..|R-- .... ....|--- .... ....|--- .... ....
....|..|G-5 2F.F ....|--- .... ....|--- .... ....
....|..|R-- .... ....|--- .... ....|--- .... ....
....|..|--- .... ....|A-3 2F.F ....|--- .... ....
....|..|--- .... ....|R-- .... ....|--- .... ....
....|..|--- .... ....|--- .... ....|--- .... ....
....|..|--- .... ....|--- .... ....|--- .... ....
....|..|A-4 2F.A ....|A-3 2F.F ....|--- .... ....
....|..|R-- .... ....|R-- .... ....|--- .... ....
....|..|A-4 2F.7 ....|A-3 2F.F ....|--- .... ....
....|..|R-- .... ....|R-- .... ....|--- .... ....
....|..|B-4 2F.7 ....|A-3 2F.7 ....|--- .... ....
....|..|R-- .... ....|R-- .... ....|--- .... ....
....|..|C-5 2F.7 ....|A-3 2F.F ....|--- .... ....
....|..|R-- .... ....|R-- .... ....|--- .... ....
....|..|G-5 2F.7 ....|A-3 2F.A ....|--- .... ....
....|..|R-- .... ....|R-- .... ....|--- .... ....
....|..|--- .... ....|A-3 2F.F ....|--- .... ....
....|..|--- .... ....|R-- .... ....|--- .... ....
....|..|--- .... ....|A-3 2F.A ....|--- .... ....
....|..|--- .... ....|R-- .... ....|--- .... ....
....|..|--- .... ....|A-3 2F.F ....|--- .... ....
....|..|--- .... ....|R-- .... ....|--- .... ....
....|..|--- .... ....|C-4 2F.F ....|--- .... ....
....|..|--- .... ....|R-- .... ....|--- .... ....
....|..|--- .... ....|A-3 2F.F ....|--- .... ....
....|..|--- .... ....|R-- .... ....|--- .... ....
....|..|--- .... ....|A-4 2F.F ....|--- .... ....
....|..|--- .... ....|R-- .... ....|--- .... ....
....|..|--- .... ....|A-3 2F.F ....|--- .... ....
....|..|--- .... ....|R-- .... ....|--- .... ....
....|..|--- .... ....|A-3 2F.7 ....|--- .... ....
....|..|--- .... ....|R-- .... ....|--- .... ....
....|..|--- .... ....|A-3 2F.A ....|--- .... ....
....|..|--- .... ....|--- .... ....|--- .... ....
....|..|--- .... ....|A-3 2F.F ....|--- .... ....
....|..|--- .... ....|R-- .... ....|--- .... ....
....|..|--- .... ....|C-4 2F.7 ....|--- .... ....
....|..|--- .... ....|--- .... ....|--- .... ....
....|..|--- .... ....|A-3 2F.F ....|--- .... ....
....|..|--- .... ....|R-- .... ....|--- .... ....
....|..|--- .... ....|A-3 2F.F ....|--- .... ....
....|..|--- .... ....|R-- .... ....|--- .... ....
....|..|--- .... ....|A-3 2F.7 ....|--- .... ....
....|..|--- .... ....|R-- .... ....|--- .... ....
....|..|--- .... ....|A-3 2F.F ....|--- .... ....
....|..|--- .... ....|R-- .... ....|--- .... ....
....|..|--- .... ....|A-3 2F.A ....|--- .... ....
....|..|--- .... ....|R-- .... ....|--- .... ....
....|..|--- .... ....|A-3 2F.F ....|--- .... ....
....|..|--- .... ....|R-- .... ....|--- .... ....
....|..|--- .... ....|A-3 2F.A ....|--- .... ....
....|..|--- .... ....|R-- .... ....|--- .... ....
....|..|--- .... ....|C-4 2F.F ....|--- .... ....
....|..|--- .... ....|R-- .... ....|--- .... ....
....|..|--- .... ....|A-3 2F.7 ....|--- .... ....
....|..|--- .... ....|R-- .... ....|--- .... ....
....|..|--- .... ....|A-3 2F.A ....|--- .... ....
....|..|--- .... ....|R-- .... ....|--- .... ....
....|..|A-4 2F.F ....|A-3 2F.F ....|--- .... ....
....|..|R-- .... ....|R-- .... ....|--- .... ....
....|..|B-4 2F.F ....|A-3 2F.F ....|--- .... ....
....|..|R-- .... ....|R-- .... ....|--- .... ....
....|..|C-5 2F.F ....|A-3 2F.7 ....|--- .... ....
....|..|R-- .... ....|R-- .... ....|--- .... ....
....|..|G-5 2F.F ....|C-4 2F.A ....|--- .... ....
....|..|R-- .... ....|--- .... ....|--- .... ....
....|..|--- .... ....|A-3 2F.F ....|--- .... ....
....|..|--- .... ....|R-- .... ....|--- .... ....
....|..|--- .... ....|--- .... ....|--- .... ....
....|..|--- .... ....|--- .... ....|--- .... ....
....|..|A-4 2F.A ....|A-3 2F.F ....|--- .... ....
....|..|R-- .... ....|R-- .... ....|--- .... ....
....|..|A-4 2F.7 ....|A-3 2F.F ....|--- .... ....
....|..|R-- .... ....|R-- .... ....|--- .... ....
....|..|B-4 2F.7 ....|A-3 2F.7 ....|--- .... ....
....|..|R-- .... ....|R-- .... ....|--- .... ....
....|..|C-5 2F.7 ....|A-3 2F.F ....|--- .... ....
....|..|R-- .... ....|R-- .... ....|--- .... ....
....|..|G-5 2F.7 ....|A-3 2F.A ....|--- .... ....
....|..|R-- .... ....|R-- .... ....|--- .... ....
....|..|--- .... ....|A-3 2F.F ....|--- .... ....
....|..|--- .... ....|R-- .... ....|--- .... ....
....|..|--- .... ....|A-3 2F.A ....|--- .... ....
....|..|--- .... ....|R-- .... ....|--- .... ....
....|..|--- .... ....|A-3 2F.F ....|--- .... ....
....|..|--- .... ....|R-- .... ....|--- .... ....
....|..|--- .... ....|B-4 2F.F ....|--- .... ....
....|..|--- .... ....|R-- .... ....|--- .... ....
....|..|--- .... ....|A-3 2F.A ....|--- .... ....
....|..|--- .... ....|R-- .... ....|--- .... ....

[Pattern10]
....|..|--- .... ....|A-4 2F.F ....|--- .... ....
....|..|--- .... ....|R-- .... ....|--- .... ....
....|..|--- .... ....|C-4 2F.F ....|--- .... ....
....|..|--- .... ....|R-- .... ....|--- .... ....
....|..|--- .... ....|A-3 2F.7 ....|--- .... ....
....|..|--- .... ....|R-- .... ....|--- .... ....
....|..|--- .... ....|A-3 2F.A ....|--- .... ....
....|..|--- .... ....|R-- .... ....|--- .... ....
....|..|--- .... ....|A-3 2F.F ....|--- .... ....
....|..|--- .... ....|R-- .... ....|--- .... ....
....|..|--- .... ....|B-4 2F.7 ....|--- .... ....
....|..|--- .... ....|--- .... ....|--- .... ....
....|..|--- .... ....|A-3 2F.F ....|--- .... ....
....|..|--- .... ....|R-- .... ....|--- .... ....
....|..|--- .... ....|A-3 2F.F ....|--- .... ....
....|..|--- .... ....|R-- .... ....|--- .... ....
....|..|--- .... ....|C-4 2F.7 ....|--- .... ....
....|..|--- .... ....|R-- .... ....|--- .... ....
....|..|--- .... ....|A-3 2F.F ....|--- .... ....
....|..|--- .... ....|R-- .... ....|--- .... ....
....|..|--- .... ....|A-3 2F.A ....|--- .... ....
....|..|--- .... ....|R-- .... ....|--- .... ....
....|..|--- .... ....|A-3 2F.F ....|--- .... ....
....|..|--- .... ....|R-- .... ....|--- .... ....
....|..|--- .... ....|A-3 2F.A ....|--- .... ....
....|..|--- .... ....|R-- .... ....|--- .... ....
....|..|--- .... ....|A-3 2F.F ....|--- .... ....
....|..|--- .... ....|R-- .... ....|--- .... ....
....|..|--- .... ....|C-4 2F.F ....|--- .... ....
....|..|--- .... ....|R-- .... ....|--- .... ....
....|..|--- .... ....|A-3 2F.F ....|--- .... ....
....|..|--- .... ....|R-- .... ....|--- .... ....
....|..|F-5 2F.F ....|F-3 2F.F ....|--- .... ....
....|..|R-- .... ....|R-- .... ....|--- .... ....
....|..|E-5 2F.F ....|F-3 2F.F ....|--- .... ....
....|..|R-- .... ....|R-- .... ....|--- .... ....
....|..|C-5 2F.F ....|A-3 2F.7 ....|--- .... ....
....|..|R-- .... ....|R-- .... ....|--- .... ....
....|..|A-4 2F.F ....|A-3 2F.A ....|--- .... ....
....|..|R-- .... ....|--- .... ....|--- .... ....
....|..|--- .... ....|F-3 2F.F ....|--- .... ....
....|..|--- .... ....|R-- .... ....|--- .... ....
....|..|--- .... ....|C-4 2F.7 ....|--- .... ....
....|..|--- .... ....|--- .... ....|--- .... ....
....|..|F-5 2F.A ....|F-3 2F.F ....|--- .... ....
....|..|R-- .... ....|R-- .... ....|--- .... ....
....|..|F-5 2F.7 ....|F-3 2F.F ....|--- .... ....
....|..|R-- .... ....|R-- .... ....|--- .... ....
....|..|E-5 2F.7 ....|F-3 2F.7 ....|--- .... ....
....|..|R-- .... ....|R-- .... ....|--- .... ....
....|..|C-5 2F.7 ....|F-3 2F.F ....|--- .... ....
....|..|R-- .... ....|R-- .... ....|--- .... ....
....|..|A-4 2F.7 ....|F-3 2F.A ....|--- .... ....
....|..|R-- .... ....|R-- .... ....|--- .... ....
....|..|--- .... ....|F-3 2F.F ....|--- .... ....
....|..|--- .... ....|R-- .... ....|--- .... ....
....|..|--- .... ....|F-3 2F.A ....|--- .... ....
....|..|--- .... ....|R-- .... ....|--- .... ....
....|..|--- .... ....|F-3 2F.F ....|--- .... ....
....|..|--- .... ....|R-- .... ....|--- .... ....
....|..|--- .... ....|C-4 2F.F ....|--- .... ....
....|..|--- .... ....|R-- .... ....|--- .... ....
....|..|--- .... ....|F-3 2F.F ....|--- .... ....
....|..|--- .... ....|R-- .... ....|--- .... ....
....|..|--- .... ....|F-4 2F.F ....|--- .... ....
....|..|--- .... ....|R-- .... ....|--- .... ....
....|..|--- .... ....|F-3 2F.F ....|--- .... ....
....|..|--- .... ....|R-- .... ....|--- .... ....
....|..|--- .... ....|F-3 2F.7 ....|--- .... ....
....|..|--- .... ....|R-- .... ....|--- .... ....
....|..|--- .... ....|F-3 2F.A ....|--- .... ....
....|..|--- .... ....|--- .... ....|--- .... ....
....|..|--- .... ....|F-3 2F.F ....|--- .... ....
....|..|--- .... ....|R-- .... ....|--- .... ....
....|..|--- .... ....|C-4 2F.7 ....|--- .... ....
....|..|--- .... ....|--- .... ....|--- .... ....
....|..|--- .... ....|F-3 2F.F ....|--- .... ....
....|..|--- .... ....|R-- .... ....|--- .... ....
....|..|--- .... ....|F-3 2F.F ....|--- .... ....
....|..|--- .... ....|R-- .... ....|--- .... ....
....|..|--- .... ....|F-3 2F.7 ....|--- .... ....
....|..|--- .... ....|R-- .... ....|--- .... ....
....|..|--- .... ....|F-3 2F.F ....|--- .... ....
....|..|--- .... ....|R-- .... ....|--- .... ....
....|..|--- .... ....|F-3 2F.A ....|--- .... ....
....|..|--- .... ....|R-- .... ....|--- .... ....
....|..|--- .... ....|F-3 2F.F ....|--- .... ....
....|..|--- .... ....|R-- .... ....|--- .... ....
....|..|--- .... ....|F-3 2F.A ....|--- .... ....
....|..|--- .... ....|R-- .... ....|--- .... ....
....|..|--- .... ....|F-4 2F.F ....|--- .... ....
....|..|--- .... ....|R-- .... ....|--- .... ....
....|..|--- .... ....|F-3 2F.7 ....|--- .... ....
....|..|--- .... ....|R-- .... ....|--- .... ....
....|..|--- .... ....|F-3 2F.A ....|--- .... ....
....|..|--- .... ....|R-- .... ....|--- .... ....
....|..|F-5 2F.F ....|D-3 2F.F ....|--- .... ....
....|..|R-- .... ....|R-- .... ....|--- .... ....
....|..|E-5 2F.F ....|D-3 2F.F ....|--- .... ....
....|..|R-- .... ....|R-- .... ....|--- .... ....
....|..|C-5 2F.F ....|F-3 2F.7 ....|--- .... ....
....|..|R-- .... ....|R-- .... ....|--- .... ....
....|..|A-4 2F.F ....|F-4 2F.A ....|--- .... ....
....|..|R-- .... ....|--- .... ....|--- .... ....
....|..|--- .... ....|D-3 2F.F ....|--- .... ....
....|..|--- .... ....|R-- .... ....|--- .... ....
....|..|--- .... ....|--- .... ....|--- .... ....
....|..|--- .... ....|--- .... ....|--- .... ....
....|..|F-5 2F.A ....|D-3 2F.F ....|--- .... ....
....|..|R-- .... ....|R-- .... ....|--- .... ....
....|..|F-5 2F.7 ....|D-3 2F.F ....|--- .... ....
....|..|R-- .... ....|R-- .... ....|--- .... ....
....|..|E-5 2F.7 ....|D-3 2F.7 ....|--- .... ....
....|..|R-- .... ....|R-- .... ....|--- .... ....
....|..|C-5 2F.7 ....|D-3 2F.F ....|--- .... ....
....|..|R-- .... ....|R-- .... ....|--- .... ....
....|..|A-4 2F.7 ....|D-3 2F.A ....|--- .... ....
....|..|R-- .... ....|R-- .... ....|--- .... ....
....|..|--- .... ....|D-3 2F.F ....|--- .... ....
....|..|--- .... ....|R-- .... ....|--- .... ....
....|..|C-5 2F.F ....|D-3 2F.A ....|--- .... ....
....|..|--- .... ....|R-- .... ....|--- .... ....
....|..|R-- .... ....|D-3 2F.F ....|--- .... ....
....|..|--- .... ....|R-- .... ....|--- .... ....
....|..|--- .... ....|E-4 2F.F ....|--- .... ....
....|..|--- .... ....|R-- .... ....|--- .... ....
....|..|--- .... ....|D-3 2F.A ....|--- .... ....
....|..|--- .... ....|R-- .... ....|--- .... ....

[Pattern11]
....|..|--- .... ....|F-3 2F.F ....|--- .... ....
....|..|--- .... ....|R-- .... ....|--- .... ....
....|..|--- .... ....|F-3 2F.F ....|--- .... ....
....|..|--- .... ....|R-- .... ....|--- .... ....
....|..|C-5 2F.A ....|D-3 2F.7 ....|--- .... ....
....|..|--- .... ....|R-- .... ....|--- .... ....
....|..|C-5 2F.7 ....|D-3 2F.A ....|--- .... ....
....|..|--- .... ....|--- .... ....|--- .... ....
....|..|R-- .... ....|F-3 2F.F ....|--- .... ....
....|..|--- .... ....|R-- .... ....|--- .... ....
....|..|--- .... ....|E-4 2F.7 ....|--- .... ....
....|..|--- .... ....|--- .... ....|--- .... ....
....|..|--- .... ....|F-3 2F.F ....|--- .... ....
....|..|--- .... ....|R-- .... ....|--- .... ....
....|..|--- .... ....|F-3 2F.F ....|--- .... ....
....|..|--- .... ....|R-- .... ....|--- .... ....
....|..|--- .... ....|F-3 2F.7 ....|--- .... ....
....|..|--- .... ....|R-- .... ....|--- .... ....
....|..|--- .... ....|E-3 2F.F ....|--- .... ....
....|..|--- .... ....|R-- .... ....|--- .... ....
....|..|--- .... ....|F-3 2F.A ....|--- .... ....
....|..|--- .... ....|R-- .... ....|--- .... ....
....|..|A-4 2F.F ....|E-3 2F.F ....|--- .... ....
....|..|R-- .... ....|R-- .... ....|--- .... ....
....|..|B-4 2F.F ....|F-3 2F.A ....|--- .... ....
....|..|--- .... ....|R-- .... ....|--- .... ....
....|..|C-5 2F.F ....|E-3 2F.F ....|--- .... ....
....|..|--- .... ....|R-- .... ....|--- .... ....
....|..|R-- .... ....|G#3 2F.F ....|--- .... ....
....|..|--- .... ....|R-- .... ....|--- .... ....
....|..|--- .... ....|E-3 2F.F ....|--- .... ....
....|..|--- .... ....|R-- .... ....|--- .... ....
....|..|A-4 2F.F ....|A-3 2F.F ....|--- .... ....
....|..|R-- .... ....|R-- .... ....|--- .... ....
....|..|B-4 2F.F ....|A-3 2F.F ....|--- .... ....
....|..|R-- .... ....|R-- .... ....|--- .... ....
....|..|C-5 2F.F ....|E-3 2F.7 ....|--- .... ....
....|..|R-- .... ....|R-- .... ....|--- .... ....
....|..|G-5 2F.F ....|E-3 2F.A ....|--- .... ....
....|..|R-- .... ....|--- .... ....|--- .... ....
....|..|C-5 2F.7 ....|A-3 2F.F ....|--- .... ....
....|..|--- .... ....|R-- .... ....|--- .... ....
....|..|R-- .... ....|G#3 2F.7 ....|--- .... ....
....|..|--- .... ....|--- .... ....|--- .... ....
....|..|A-4 2F.A ....|A-3 2F.F ....|--- .... ....
....|..|R-- .... ....|R-- .... ....|--- .... ....
....|..|A-4 2F.7 ....|A-3 2F.F ....|--- .... ....
....|..|R-- .... ....|R-- .... ....|--- .... ....
....|..|B-4 2F.7 ....|A-3 2F.7 ....|--- .... ....
....|..|R-- .... ....|R-- .... ....|--- .... ....
....|..|C-5 2F.7 ....|A-3 2F.F ....|--- .... ....
....|..|R-- .... ....|R-- .... ....|--- .... ....
....|..|G-5 2F.7 ....|A-3 2F.A ....|--- .... ....
....|..|R-- .... ....|R-- .... ....|--- .... ....
....|..|--- .... ....|A-3 2F.F ....|--- .... ....
....|..|--- .... ....|R-- .... ....|--- .... ....
....|..|--- .... ....|A-3 2F.A ....|--- .... ....
....|..|--- .... ....|R-- .... ....|--- .... ....
....|..|--- .... ....|A-3 2F.F ....|--- .... ....
....|..|--- .... ....|R-- .... ....|--- .... ....
....|..|--- .... ....|C-4 2F.F ....|--- .... ....
....|..|--- .... ....|R-- .... ....|--- .... ....
....|..|--- .... ....|A-3 2F.F ....|--- .... ....
....|..|--- .... ....|R-- .... ....|--- .... ....
....|..|--- .... ....|A-4 2F.F ....|--- .... ....
....|..|--- .... ....|R-- .... ....|--- .... ....
....|..|--- .... ....|A-3 2F.F ....|--- .... ....
....|..|--- .... ....|R-- .... ....|--- .... ....
....|..|--- .... ....|A-3 2F.7 ....|--- .... ....
....|..|--- .... ....|R-- .... ....|--- .... ....
....|..|--- .... ....|A-3 2F.A ....|--- .... ....
....|..|--- .... ....|--- .... ....|--- .... ....
....|..|--- .... ....|A-3 2F.F ....|--- .... ....
....|..|--- .... ....|R-- .... ....|--- .... ....
....|..|--- .... ....|C-4 2F.7 ....|--- .... ....
....|..|--- .... ....|--- .... ....|--- .... ....
....|..|--- .... ....|A-3 2F.F ....|--- .... ....
....|..|--- .... ....|R-- .... ....|--- .... ....
....|..|--- .... ....|A-3 2F.F ....|--- .... ....
....|..|--- .... ....|R-- .... ....|--- .... ....
....|..|--- .... ....|A-3 2F.7 ....|--- .... ....
....|..|--- .... ....|R-- .... ....|--- .... ....
....|..|--- .... ....|A-3 2F.F ....|--- .... ....
....|..|--- .... ....|R-- .... ....|--- .... ....
....|..|--- .... ....|A-3 2F.A ....|--- .... ....
....|..|--- .... ....|R-- .... ....|--- .... ....
....|..|--- .... ....|A-3 2F.F ....|--- .... ....
....|..|--- .... ....|R-- .... ....|--- .... ....
....|..|--- .... ....|A-3 2F.A ....|--- .... ....
....|..|--- .... ....|R-- .... ....|--- .... ....
....|..|--- .... ....|C-4 2F.F ....|--- .... ....
....|..|--- .... ....|R-- .... ....|--- .... ....
....|..|--- .... ....|A-3 2F.7 ....|--- .... ....
....|..|--- .... ....|R-- .... ....|--- .... ....
....|..|--- .... ....|A-3 2F.A ....|--- .... ....
....|..|--- .... ....|R-- .... ....|--- .... ....
....|..|A-4 2F.F ....|A-3 2F.F ....|--- .... ....
....|..|R-- .... ....|R-- .... ....|--- .... ....
....|..|B-4 2F.F ....|A-3 2F.F ....|--- .... ....
....|..|R-- .... ....|R-- .... ....|--- .... ....
....|..|C-5 2F.F ....|A-3 2F.7 ....|--- .... ....
....|..|R-- .... ....|R-- .... ....|--- .... ....
....|..|G-5 2F.F ....|C-4 2F.A ....|--- .... ....
....|..|R-- .... ....|--- .... ....|--- .... ....
....|..|--- .... ....|A-3 2F.F ....|--- .... ....
....|..|--- .... ....|R-- .... ....|--- .... ....
....|..|--- .... ....|--- .... ....|--- .... ....
....|..|--- .... ....|--- .... ....|--- .... ....
....|..|A-4 2F.A ....|A-3 2F.F ....|--- .... ....
....|..|R-- .... ....|R-- .... ....|--- .... ....
....|..|A-4 2F.7 ....|A-3 2F.F ....|--- .... ....
....|..|R-- .... ....|R-- .... ....|--- .... ....
....|..|B-4 2F.7 ....|A-3 2F.7 ....|--- .... ....
....|..|R-- .... ....|R-- .... ....|--- .... ....
....|..|C-5 2F.7 ....|A-3 2F.F ....|--- .... ....
....|..|R-- .... ....|R-- .... ....|--- .... ....
....|..|G-5 2F.7 ....|A-3 2F.A ....|--- .... ....
....|..|R-- .... ....|R-- .... ....|--- .... ....
....|..|--- .... ....|A-3 2F.F ....|--- .... ....
....|..|--- .... ....|R-- .... ....|--- .... ....
....|..|--- .... ....|A-3 2F.A ....|--- .... ....
....|..|--- .... ....|R-- .... ....|--- .... ....
....|..|--- .... ....|A-3 2F.F ....|--- .... ....
....|..|--- .... ....|R-- .... ....|--- .... ....
....|..|--- .... ....|B-4 2F.F ....|--- .... ....
....|..|--- .... ....|R-- .... ....|--- .... ....
....|..|--- .... ....|A-3 2F.A ....|--- .... ....
....|..|--- .... ....|R-- .... ....|--- .... ....

[Pattern13]
....|..|--- .... ....|F-3 2F.F ....|--- .... ....
....|..|--- .... ....|R-- .... ....|--- .... ....
....|..|--- .... ....|F-3 2F.F ....|--- .... ....
....|..|--- .... ....|R-- .... ....|--- .... ....
....|..|C-5 2F.A ....|D-3 2F.7 ....|--- .... ....
....|..|--- .... ....|R-- .... ....|--- .... ....
....|..|C-5 2F.7 ....|D-3 2F.A ....|--- .... ....
....|..|--- .... ....|--- .... ....|--- .... ....
....|..|R-- .... ....|F-3 2F.F ....|--- .... ....
....|..|--- .... ....|R-- .... ....|--- .... ....
....|..|--- .... ....|E-4 2F.7 ....|--- .... ....
....|..|--- .... ....|--- .... ....|--- .... ....
....|..|--- .... ....|F-3 2F.F ....|--- .... ....
....|..|--- .... ....|R-- .... ....|--- .... ....
....|..|--- .... ....|F-3 2F.F ....|--- .... ....
....|..|--- .... ....|R-- .... ....|--- .... ....
....|..|--- .... ....|F-3 2F.7 ....|--- .... ....
....|..|--- .... ....|R-- .... ....|--- .... ....
....|..|--- .... ....|E-3 2F.F ....|--- .... ....
....|..|--- .... ....|R-- .... ....|--- .... ....
....|..|--- .... ....|F-3 2F.A ....|--- .... ....
....|..|--- .... ....|R-- .... ....|--- .... ....
....|..|A-4 2F.F ....|E-3 2F.F ....|--- .... ....
....|..|R-- .... ....|R-- .... ....|--- .... ....
....|..|B-4 2F.F ....|F-3 2F.A ....|--- .... ....
....|..|--- .... ....|R-- .... ....|--- .... ....
....|..|C-5 2F.F ....|E-3 2F.F ....|--- .... ....
....|..|--- .... ....|R-- .... ....|--- .... ....
....|..|R-- .... ....|G#3 2F.F ....|--- .... ....
....|..|--- .... ....|R-- .... ....|--- .... ....
....|..|--- .... ....|E-3 2F.F ....|--- .... ....
....|..|--- .... ....|R-- .... ....|--- .... ....
....|..|--- .... ....|A-3 2F.F ....|--- .... ....
....|..|--- .... ....|R-- .... ....|--- .... ....
....|..|A-4 2F.A ....|A-3 2F.F ....|--- .... ....
....|..|R-- .... ....|R-- .... ....|--- .... ....
....|..|A-4 2F.7 ....|E-3 2F.7 ....|--- .... ....
....|..|R-- .... ....|R-- .... ....|--- .... ....
....|..|B-4 2F.7 ....|E-3 2F.A ....|--- .... ....
....|..|--- .... ....|--- .... ....|--- .... ....
....|..|C-5 2F.7 ....|A-3 2F.F ....|--- .... ....
....|..|--- .... ....|R-- .... ....|--- .... ....
....|..|R-- .... ....|G#3 2F.7 ....|--- .... ....
....|..|--- .... ....|--- .... ....|--- .... ....
....|..|--- .... ....|A-3 2F.F ....|--- .... ....
....|..|--- .... ....|R-- .... ....|--- .... ....
....|..|--- .... ....|A-3 2F.F ....|--- .... ....
....|..|--- .... ....|R-- .... ....|--- .... ....
....|..|--- .... ....|A-3 2F.7 ....|--- .... ....
....|..|--- .... ....|R-- .... ....|--- .... ....
....|..|--- .... ....|A-3 2F.F ....|--- .... ....
....|..|--- .... ....|R-- .... ....|--- .... ....
....|..|--- .... ....|A-3 2F.A ....|--- .... ....
....|..|--- .... ....|R-- .... ....|--- .... ....
....|..|--- .... ....|A-3 2F.F ....|--- .... ....
....|..|--- .... ....|R-- .... ....|--- .... ....
....|..|--- .... ....|A-3 2F.A ....|--- .... ....
....|..|--- .... ....|R-- .... ....|--- .... ....
....|..|--- .... ....|A-3 2F.F ....|--- .... ....
....|..|--- .... ....|R-- .... ....|--- .... ....
....|..|--- .... ....|C-4 2F.F ....|--- .... ....
....|..|--- .... ....|R-- .... ....|--- .... ....
....|..|--- .... ....|A-3 2F.F ....|--- .... ....
....|..|--- .... ....|R-- .... ....|--- .... ....
....|..|--- .... ....|A-4 2F.F ....|--- .... ....
....|..|--- .... ....|R-- .... ....|--- .... ....
....|..|--- .... ....|A-3 2F.F ....|--- .... ....
....|..|--- .... ....|R-- .... ....|--- .... ....
....|..|--- .... ....|A-3 2F.7 ....|--- .... ....
....|..|--- .... ....|R-- .... ....|--- .... ....
....|..|--- .... ....|A-3 2F.A ....|--- .... ....
....|..|--- .... ....|--- .... ....|--- .... ....
....|..|--- .... ....|A-3 2F.F ....|--- .... ....
....|..|--- .... ....|R-- .... ....|--- .... ....
....|..|--- .... ....|C-4 2F.7 ....|--- .... ....
....|..|--- .... ....|--- .... ....|--- .... ....
....|..|--- .... ....|A-3 2F.F ....|--- .... ....
....|..|--- .... ....|R-- .... ....|--- .... ....
....|..|--- .... ....|A-3 2F.F ....|--- .... ....
....|..|--- .... ....|R-- .... ....|--- .... ....
....|..|--- .... ....|A-3 2F.7 ....|--- .... ....
....|..|--- .... ....|R-- .... ....|--- .... ....
....|..|--- .... ....|A-3 2F.F ....|--- .... ....
....|..|--- .... ....|R-- .... ....|--- .... ....
....|..|--- .... ....|A-3 2F.A ....|--- .... ....
....|..|--- .... ....|R-- .... ....|--- .... ....
....|..|--- .... ....|A-3 2F.F ....|--- .... ....
....|..|--- .... ....|R-- .... ....|--- .... ....
....|..|--- .... ....|A-3 2F.A ....|--- .... ....
....|..|--- .... ....|R-- .... ....|--- .... ....
....|..|--- .... ....|C-4 2F.F ....|--- .... ....
....|..|--- .... ....|R-- .... ....|--- .... ....
....|..|--- .... ....|A-3 2F.7 ....|--- .... ....
....|..|--- .... ....|R-- .... ....|--- .... ....
....|..|--- .... ....|A-3 2F.A ....|--- .... ....
....|..|--- .... ....|R-- .... ....|--- .... ....
....|..|--- .... ....|A-3 2F.F ....|--- .... ....
....|..|--- .... ....|R-- .... ....|--- .... ....
....|..|--- .... ....|A-3 2F.F ....|--- .... ....
....|..|--- .... ....|R-- .... ....|--- .... ....
....|..|--- .... ....|A-3 2F.7 ....|--- .... ....
....|..|--- .... ....|R-- .... ....|--- .... ....
....|..|--- .... ....|C-4 2F.A ....|--- .... ....
....|..|--- .... ....|--- .... ....|--- .... ....
....|..|--- .... ....|A-3 2F.F ....|--- .... ....
....|..|--- .... ....|R-- .... ....|--- .... ....
....|..|--- .... ....|--- .... ....|--- .... ....
....|..|--- .... ....|--- .... ....|--- .... ....
....|..|--- .... ....|A-3 2F.F ....|--- .... ....
....|..|--- .... ....|R-- .... ....|--- .... ....
....|..|--- .... ....|A-3 2F.F ....|--- .... ....
....|..|--- .... ....|R-- .... ....|--- .... ....
....|..|--- .... ....|A-3 2F.7 ....|--- .... ....
....|..|--- .... ....|R-- .... ....|--- .... ....
....|..|--- .... ....|A-3 2F.F ....|--- .... ....
....|..|--- .... ....|R-- .... ....|--- .... ....
....|..|--- .... ....|A-3 2F.A ....|--- .... ....
....|..|--- .... ....|R-- .... ....|--- .... ....
....|..|--- .... ....|A-3 2F.F ....|--- .... ....
....|..|--- .... ....|R-- .... ....|--- .... ....
....|..|--- .... ....|A-3 2F.A ....|--- .... ....
....|..|--- .... ....|R-- .... ....|--- .... ....
....|..|--- .... ....|A-3 2F.F ....|--- .... ....
....|..|--- .... ....|R-- .... ....|--- .... ....
....|..|--- .... ....|B-4 2F.F ....|--- .... ....
....|..|--- .... ....|R-- .... ....|--- .... ....
....|..|--- .... ....|A-3 2F.A ....|--- .... ....
....|..|--- .... ....|R-- .... ....|--- .... ....

[Pattern14]
....|..|--- .... ....|A-4 2F.F ....|--- .... ....
....|..|--- .... ....|R-- .... ....|--- .... ....
....|..|--- .... ....|C-4 2F.F ....|--- .... ....
....|..|--- .... ....|R-- .... ....|--- .... ....
....|..|--- .... ....|A-3 2F.7 ....|--- .... ....
....|..|--- .... ....|R-- .... ....|--- .... ....
....|..|--- .... ....|A-3 2F.A ....|--- .... ....
....|..|--- .... ....|R-- .... ....|--- .... ....
....|..|--- .... ....|A-3 2F.F ....|--- .... ....
....|..|--- .... ....|R-- .... ....|--- .... ....
....|..|--- .... ....|B-4 2F.7 ....|--- .... ....
....|..|--- .... ....|--- .... ....|--- .... ....
....|..|--- .... ....|A-3 2F.F ....|--- .... ....
....|..|--- .... ....|R-- .... ....|--- .... ....
....|..|--- .... ....|A-3 2F.F ....|--- .... ....
....|..|--- .... ....|R-- .... ....|--- .... ....
....|..|--- .... ....|C-4 2F.7 ....|--- .... ....
....|..|--- .... ....|R-- .... ....|--- .... ....
....|..|--- .... ....|A-3 2F.F ....|--- .... ....
....|..|--- .... ....|R-- .... ....|--- .... ....
....|..|--- .... ....|A-3 2F.A ....|--- .... ....
....|..|--- .... ....|R-- .... ....|--- .... ....
....|..|--- .... ....|A-3 2F.F ....|--- .... ....
....|..|--- .... ....|R-- .... ....|--- .... ....
....|..|--- .... ....|A-3 2F.A ....|--- .... ....
....|..|--- .... ....|R-- .... ....|--- .... ....
....|..|--- .... ....|A-3 2F.F ....|--- .... ....
....|..|--- .... ....|R-- .... ....|--- .... ....
....|..|--- .... ....|C-4 2F.F ....|--- .... ....
....|..|--- .... ....|R-- .... ....|--- .... ....
....|..|--- .... ....|A-3 2F.F ....|--- .... ....
....|..|--- .... ....|R-- .... ....|--- .... ....
....|..|--- .... ....|F-3 2F.F ....|--- .... ....
....|..|--- .... ....|R-- .... ....|--- .... ....
....|..|--- .... ....|F-3 2F.F ....|--- .... ....
....|..|--- .... ....|R-- .... ....|--- .... ....
....|..|--- .... ....|A-3 2F.7 ....|--- .... ....
....|..|--- .... ....|R-- .... ....|--- .... ....
....|..|--- .... ....|A-3 2F.A ....|--- .... ....
....|..|--- .... ....|--- .... ....|--- .... ....
....|..|--- .... ....|F-3 2F.F ....|--- .... ....
....|..|--- .... ....|R-- .... ....|--- .... ....
....|..|--- .... ....|C-4 2F.7 ....|--- .... ....
....|..|--- .... ....|--- .... ....|--- .... ....
....|..|--- .... ....|F-3 2F.F ....|--- .... ....
....|..|--- .... ....|R-- .... ....|--- .... ....
....|..|--- .... ....|F-3 2F.F ....|--- .... ....
....|..|--- .... ....|R-- .... ....|--- .... ....
....|..|--- .... ....|F-3 2F.7 ....|--- .... ....
....|..|--- .... ....|R-- .... ....|--- .... ....
....|..|--- .... ....|F-3 2F.F ....|--- .... ....
....|..|--- .... ....|R-- .... ....|--- .... ....
....|..|--- .... ....|F-3 2F.A ....|--- .... ....
....|..|--- .... ....|R-- .... ....|--- .... ....
....|..|--- .... ....|F-3 2F.F ....|--- .... ....
....|..|--- .... ....|R-- .... ....|--- .... ....
....|..|--- .... ....|F-3 2F.A ....|--- .... ....
....|..|--- .... ....|R-- .... ....|--- .... ....
....|..|--- .... ....|F-3 2F.F ....|--- .... ....
....|..|--- .... ....|R-- .... ....|--- .... ....
....|..|--- .... ....|C-4 2F.F ....|--- .... ....
....|..|--- .... ....|R-- .... ....|--- .... ....
....|..|--- .... ....|F-3 2F.F ....|--- .... ....
....|..|--- .... ....|R-- .... ....|--- .... ....
....|..|--- .... ....|F-4 2F.F ....|--- .... ....
....|..|--- .... ....|R-- .... ....|--- .... ....
....|..|--- .... ....|F-3 2F.F ....|--- .... ....
....|..|--- .... ....|R-- .... ....|--- .... ....
....|..|--- .... ....|F-3 2F.7 ....|--- .... ....
....|..|--- .... ....|R-- .... ....|--- .... ....
....|..|--- .... ....|F-3 2F.A ....|--- .... ....
....|..|--- .... ....|--- .... ....|--- .... ....
....|..|--- .... ....|F-3 2F.F ....|--- .... ....
....|..|--- .... ....|R-- .... ....|--- .... ....
....|..|--- .... ....|C-4 2F.7 ....|--- .... ....
....|..|--- .... ....|--- .... ....|--- .... ....
....|..|--- .... ....|F-3 2F.F ....|--- .... ....
....|..|--- .... ....|R-- .... ....|--- .... ....
....|..|--- .... ....|F-3 2F.F ....|--- .... ....
....|..|--- .... ....|R-- .... ....|--- .... ....
....|..|--- .... ....|F-3 2F.7 ....|--- .... ....
....|..|--- .... ....|R-- .... ....|--- .... ....
....|..|--- .... ....|F-3 2F.F ....|--- .... ....
....|..|--- .... ....|R-- .... ....|--- .... ....
....|..|--- .... ....|F-3 2F.A ....|--- .... ....
....|..|--- .... ....|R-- .... ....|--- .... ....
....|..|--- .... ....|F-3 2F.F ....|--- .... ....
....|..|--- .... ....|R-- .... ....|--- .... ....
....|..|--- .... ....|F-3 2F.A ....|--- .... ....
....|..|--- .... ....|R-- .... ....|--- .... ....
....|..|--- .... ....|F-4 2F.F ....|--- .... ....
....|..|--- .... ....|R-- .... ....|--- .... ....
....|..|--- .... ....|F-3 2F.7 ....|--- .... ....
....|..|--- .... ....|R-- .... ....|--- .... ....
....|..|--- .... ....|F-3 2F.A ....|--- .... ....
....|..|--- .... ....|R-- .... ....|--- .... ....
....|..|--- .... ....|D-3 2F.F ....|--- .... ....
....|..|--- .... ....|R-- .... ....|--- .... ....
....|..|--- .... ....|D-3 2F.F ....|--- .... ....
....|..|--- .... ....|R-- .... ....|--- .... ....
....|..|--- .... ....|F-3 2F.7 ....|--- .... ....
....|..|--- .... ....|R-- .... ....|--- .... ....
....|..|--- .... ....|F-4 2F.A ....|--- .... ....
....|..|--- .... ....|--- .... ....|--- .... ....
....|..|--- .... ....|D-3 2F.F ....|--- .... ....
....|..|--- .... ....|R-- .... ....|--- .... ....
....|..|--- .... ....|--- .... ....|--- .... ....
....|..|--- .... ....|--- .... ....|--- .... ....
....|..|--- .... ....|D-3 2F.F ....|--- .... ....
....|..|--- .... ....|R-- .... ....|--- .... ....
....|..|--- .... ....|D-3 2F.F ....|--- .... ....
....|..|--- .... ....|R-- .... ....|--- .... ....
....|..|--- .... ....|D-3 2F.7 ....|--- .... ....
....|..|--- .... ....|R-- .... ....|--- .... ....
....|..|--- .... ....|D-3 2F.F ....|--- .... ....
....|..|--- .... ....|R-- .... ....|--- .... ....
....|..|--- .... ....|D-3 2F.A ....|--- .... ....
....|..|--- .... ....|R-- .... ....|--- .... ....
....|..|--- .... ....|D-3 2F.F ....|--- .... ....
....|..|--- .... ....|R-- .... ....|--- .... ....
....|..|--- .... ....|D-3 2F.A ....|--- .... ....
....|..|--- .... ....|R-- .... ....|--- .... ....
....|..|--- .... ....|D-3 2F.F ....|--- .... ....
....|..|--- .... ....|R-- .... ....|--- .... ....
....|..|--- .... ....|E-4 2F.F ....|--- .... ....
....|..|--- .... ....|R-- .... ....|--- .... ....
....|..|--- .... ....|D-3 2F.A ....|--- .... ....
....|..|--- .... ....|R-- .... ....|--- .... ....

[Pattern15]
....|..|--- .... ....|F-3 2F.F ....|--- .... ....
....|..|--- .... ....|R-- .... ....|--- .... ....
....|..|--- .... ....|F-3 2F.F ....|--- .... ....
....|..|--- .... ....|R-- .... ....|--- .... ....
....|..|--- .... ....|D-3 2F.7 ....|--- .... ....
....|..|--- .... ....|R-- .... ....|--- .... ....
....|..|--- .... ....|D-3 2F.A ....|--- .... ....
....|..|--- .... ....|--- .... ....|--- .... ....
....|..|--- .... ....|F-3 2F.F ....|--- .... ....
....|..|--- .... ....|R-- .... ....|--- .... ....
....|..|--- .... ....|E-4 2F.7 ....|--- .... ....
....|..|--- .... ....|--- .... ....|--- .... ....
....|..|--- .... ....|F-3 2F.F ....|--- .... ....
....|..|--- .... ....|R-- .... ....|--- .... ....
....|..|--- .... ....|F-3 2F.F ....|--- .... ....
....|..|--- .... ....|R-- .... ....|--- .... ....
....|..|--- .... ....|F-3 2F.7 ....|--- .... ....
....|..|--- .... ....|R-- .... ....|--- .... ....
....|..|--- .... ....|E-3 2F.F ....|--- .... ....
....|..|--- .... ....|R-- .... ....|--- .... ....
....|..|--- .... ....|F-3 2F.A ....|--- .... ....
....|..|--- .... ....|R-- .... ....|--- .... ....
....|..|--- .... ....|E-3 2F.F ....|--- .... ....
....|..|--- .... ....|R-- .... ....|--- .... ....
....|..|--- .... ....|F-3 2F.A ....|--- .... ....
....|..|--- .... ....|R-- .... ....|--- .... ....
....|..|--- .... ....|E-3 2F.F ....|--- .... ....
....|..|--- .... ....|R-- .... ....|--- .... ....
....|..|--- .... ....|G#3 2F.F ....|--- .... ....
....|..|--- .... ....|R-- .... ....|--- .... ....
....|..|--- .... ....|E-3 2F.F ....|--- .... ....
....|..|--- .... ....|R-- .... ....|--- .... ....
....|..|--- .... ....|A-3 2F.F ....|--- .... ....
....|..|--- .... ....|R-- .... ....|--- .... ....
....|..|--- .... ....|A-3 2F.F ....|--- .... ....
....|..|--- .... ....|R-- .... ....|--- .... ....
....|..|--- .... ....|E-3 2F.7 ....|--- .... ....
....|..|--- .... ....|R-- .... ....|--- .... ....
....|..|--- .... ....|E-3 2F.A ....|--- .... ....
....|..|--- .... ....|--- .... ....|--- .... ....
....|..|--- .... ....|A-3 2F.F ....|--- .... ....
....|..|--- .... ....|R-- .... ....|--- .... ....
....|..|--- .... ....|G#3 2F.7 ....|--- .... ....
....|..|--- .... ....|--- .... ....|--- .... ....
....|..|--- .... ....|A-3 2F.F ....|--- .... ....
....|..|--- .... ....|R-- .... ....|--- .... ....
....|..|--- .... ....|A-3 2F.F ....|--- .... ....
....|..|--- .... ....|R-- .... ....|--- .... ....
....|..|--- .... ....|A-3 2F.7 ....|--- .... ....
....|..|--- .... ....|R-- .... ....|--- .... ....
....|..|--- .... ....|A-3 2F.F ....|--- .... ....
....|..|--- .... ....|R-- .... ....|--- .... ....
....|..|--- .... ....|A-3 2F.A ....|--- .... ....
....|..|--- .... ....|R-- .... ....|--- .... ....
....|..|--- .... ....|A-3 2F.F ....|--- .... ....
....|..|--- .... ....|R-- .... ....|--- .... ....
....|..|--- .... ....|A-3 2F.A ....|--- .... ....
....|..|--- .... ....|R-- .... ....|--- .... ....
....|..|--- .... ....|A-3 2F.F ....|--- .... ....
....|..|--- .... ....|R-- .... ....|--- .... ....
....|..|--- .... ....|C-4 2F.F ....|--- .... ....
....|..|--- .... ....|R-- .... ....|--- .... ....
....|..|--- .... ....|A-3 2F.F ....|--- .... ....
....|..|--- .... ....|R-- .... ....|--- .... ....
....|..|--- .... ....|A-4 2F.F ....|--- .... ....
....|..|--- .... ....|R-- .... ....|--- .... ....
....|..|--- .... ....|A-3 2F.F ....|--- .... ....
....|..|--- .... ....|R-- .... ....|--- .... ....
....|..|--- .... ....|A-3 2F.7 ....|--- .... ....
....|..|--- .... ....|R-- .... ....|--- .... ....
....|..|--- .... ....|A-3 2F.A ....|--- .... ....
....|..|--- .... ....|--- .... ....|--- .... ....
....|..|--- .... ....|A-3 2F.F ....|--- .... ....
....|..|--- .... ....|R-- .... ....|--- .... ....
....|..|--- .... ....|C-4 2F.7 ....|--- .... ....
....|..|--- .... ....|--- .... ....|--- .... ....
....|..|--- .... ....|A-3 2F.F ....|--- .... ....
....|..|--- .... ....|R-- .... ....|--- .... ....
....|..|--- .... ....|A-3 2F.F ....|--- .... ....
....|..|--- .... ....|R-- .... ....|--- .... ....
....|..|--- .... ....|A-3 2F.7 ....|--- .... ....
....|..|--- .... ....|R-- .... ....|--- .... ....
....|..|--- .... ....|A-3 2F.F ....|--- .... ....
....|..|--- .... ....|R-- .... ....|--- .... ....
....|..|--- .... ....|A-3 2F.A ....|--- .... ....
....|..|--- .... ....|R-- .... ....|--- .... ....
....|..|--- .... ....|A-3 2F.F ....|--- .... ....
....|..|--- .... ....|R-- .... ....|--- .... ....
....|..|--- .... ....|A-3 2F.A ....|--- .... ....
....|..|--- .... ....|R-- .... ....|--- .... ....
....|..|--- .... ....|C-4 2F.F ....|--- .... ....
....|..|--- .... ....|R-- .... ....|--- .... ....
....|..|--- .... ....|A-3 2F.7 ....|--- .... ....
....|..|--- .... ....|R-- .... ....|--- .... ....
....|..|--- .... ....|A-3 2F.A ....|--- .... ....
....|..|--- .... ....|R-- .... ....|--- .... ....
....|..|--- .... ....|A-3 2F.F ....|--- .... ....
....|..|--- .... ....|R-- .... ....|--- .... ....
....|..|--- .... ....|A-3 2F.F ....|--- .... ....
....|..|--- .... ....|R-- .... ....|--- .... ....
....|..|--- .... ....|A-3 2F.7 ....|--- .... ....
....|..|--- .... ....|R-- .... ....|--- .... ....
....|..|--- .... ....|C-4 2F.A ....|--- .... ....
....|..|--- .... ....|--- .... ....|--- .... ....
....|..|--- .... ....|A-3 2F.F ....|--- .... ....
....|..|--- .... ....|R-- .... ....|--- .... ....
....|..|--- .... ....|--- .... ....|--- .... ....
....|..|--- .... ....|--- .... ....|--- .... ....
....|..|--- .... ....|A-3 2F.F ....|--- .... ....
....|..|--- .... ....|R-- .... ....|--- .... ....
....|..|--- .... ....|A-3 2F.F ....|--- .... ....
....|..|--- .... ....|R-- .... ....|--- .... ....
....|..|--- .... ....|A-3 2F.7 ....|--- .... ....
....|..|--- .... ....|R-- .... ....|--- .... ....
....|..|--- .... ....|A-3 2F.F ....|--- .... ....
....|..|--- .... ....|R-- .... ....|--- .... ....
....|..|--- .... ....|A-3 2F.A ....|--- .... ....
....|..|--- .... ....|R-- .... ....|--- .... ....
....|..|--- .... ....|A-3 2F.F ....|--- .... ....
....|..|--- .... ....|R-- .... ....|--- .... ....
....|..|--- .... ....|A-3 2F.A ....|--- .... ....
....|..|--- .... ....|R-- .... ....|--- .... ....
....|..|--- .... ....|A-3 2F.F ....|--- .... ....
....|..|--- .... ....|R-- .... ....|--- .... ....
....|..|--- .... ....|B-4 2F.F ....|--- .... ....
....|..|--- .... ....|R-- .... ....|--- .... ....
....|..|--- .... ....|A-3 2F.A ....|--- .... ....
....|..|--- .... ....|R-- .... ....|--- .... ....

[Pattern19]
....|..|--- .... ....|F-3 2F.F ....|--- .... ....
....|..|--- .... ....|R-- .... ....|--- .... ....
....|..|--- .... ....|F-3 2F.F ....|--- .... ....
....|..|--- .... ....|R-- .... ....|--- .... ....
....|..|--- .... ....|D-3 2F.7 ....|--- .... ....
....|..|--- .... ....|R-- .... ....|--- .... ....
....|..|--- .... ....|D-3 2F.A ....|--- .... ....
....|..|--- .... ....|--- .... ....|--- .... ....
....|..|--- .... ....|F-3 2F.F ....|--- .... ....
....|..|--- .... ....|R-- .... ....|--- .... ....
....|..|--- .... ....|E-4 2F.7 ....|--- .... ....
....|..|--- .... ....|--- .... ....|--- .... ....
....|..|--- .... ....|F-3 2F.F ....|--- .... ....
....|..|--- .... ....|R-- .... ....|--- .... ....
....|..|--- .... ....|F-3 2F.F ....|--- .... ....
....|..|--- .... ....|R-- .... ....|--- .... ....
....|..|--- .... ....|F-3 2F.7 ....|--- .... ....
....|..|--- .... ....|R-- .... ....|--- .... ....
....|..|--- .... ....|E-3 2F.F ....|--- .... ....
....|..|--- .... ....|R-- .... ....|--- .... ....
....|..|--- .... ....|F-3 2F.A ....|--- .... ....
....|..|--- .... ....|R-- .... ....|--- .... ....
....|..|--- .... ....|E-3 2F.F ....|--- .... ....
....|..|--- .... ....|R-- .... ....|--- .... ....
....|..|--- .... ....|F-3 2F.A ....|--- .... ....
....|..|--- .... ....|R-- .... ....|--- .... ....
....|..|--- .... ....|E-3 2F.F ....|--- .... ....
....|..|--- .... ....|R-- .... ....|--- .... ....
....|..|--- .... ....|G#3 2F.F ....|--- .... ....
....|..|--- .... ....|R-- .... ....|--- .... ....
....|..|--- .... ....|E-3 2F.F ....|--- .... ....
....|..|--- .... ....|R-- .... ....|--- .... ....
....|..|--- .... ....|E-3 2F.7 ....|--- .... ....
....|..|--- .... ....|R-- .... ....|--- .... ....
....|..|--- .... ....|E-3 2F.A ....|--- .... ....
....|..|--- .... ....|R-- .... ....|--- .... ....
....|..|--- .... ....|E-3 2F.7 ....|--- .... ....
....|..|--- .... ....|R-- .... ....|--- .... ....
....|..|--- .... ....|E-3 2F.A ....|--- .... ....
....|..|--- .... ....|--- .... ....|--- .... ....
....|..|--- .... ....|E-3 2F.7 ....|--- .... ....
....|..|--- .... ....|--- .... ....|--- .... ....
....|..|--- .... ....|G#3 2F.7 ....|--- .... ....
....|..|--- .... ....|--- .... ....|--- .... ....
....|..|--- .... ....|E-3 2F.7 ....|--- .... ....
....|..|--- .... ....|--- .... ....|--- .... ....
....|..|--- .... ....|R-- .... ....|--- .... ....
....|..|--- .... ....|--- .... ....|--- .... ....
....|..|--- .... ....|--- .... ....|--- .... ....
....|..|--- .... ....|--- .... ....|--- .... ....
....|..|--- .... ....|--- .... ....|--- .... ....
....|..|--- .... ....|--- .... ....|--- .... ....
....|..|--- .... ....|--- .... ....|--- .... ....
....|..|--- .... ....|--- .... ....|--- .... ....
....|..|--- .... ....|--- .... ....|--- .... ....
....|..|--- .... ....|--- .... ....|--- .... ....
....|..|--- .... ....|--- .... ....|--- .... ....
....|..|--- .... ....|--- .... ....|--- .... ....
....|..|--- .... ....|--- .... ....|--- .... ....
....|..|--- .... ....|--- .... ....|--- .... ....
....|..|--- .... ....|--- .... ....|--- .... ....
....|..|--- .... ....|--- .... ....|--- .... ....
....|..|--- .... ....|--- .... ....|--- .... ....
....|..|--- .... ....|--- .... ....|--- .... ....
....|..|--- .... ....|E-4 2F.F ....|--- .... ....
....|..|--- .... ....|C-3 2F.F ....|--- .... ....
....|..|--- .... ....|--- .... ....|--- .... ....
....|..|--- .... ....|--- .... ....|--- .... ....
....|..|--- .... ....|D-4 2F1F ....|--- .... ....
....|..|--- .... ....|C-3 2F.F ....|--- .... ....
....|..|--- .... ....|--- .... ....|--- .... ....
....|..|--- .... ....|C-3 2F.F ....|--- .... ....
....|..|--- .... ....|C-3 2F.F ....|--- .... ....
....|..|--- .... ....|--- .... ....|--- .... ....
....|..|--- .... ....|--- .... ....|--- .... ....
....|..|--- .... ....|--- .... ....|--- .... ....
....|..|--- .... ....|C-3 2F.F ....|--- .... ....
....|..|--- .... ....|C-3 2F.A ....|--- .... ....
....|..|--- .... ....|E-4 2F.7 ....|--- .... ....
....|..|--- .... ....|C-3 2F.7 ....|--- .... ....
....|..|--- .... ....|C-3 2F.F ....|--- .... ....
....|..|--- .... ....|C-3 2F.A ....|--- .... ....
....|..|--- .... ....|D-4 2F17 ....|--- .... ....
....|..|--- .... ....|C-3 2F.7 ....|--- .... ....
....|..|--- .... ....|C-3 2F.F ....|--- .... ....
....|..|--- .... ....|C-3 2F.7 ....|--- .... ....
....|..|--- .... ....|C-3 2F.7 ....|--- .... ....
....|..|--- .... ....|--- .... ....|--- .... ....
....|..|--- .... ....|C-3 2F.F ....|--- .... ....
....|..|--- .... ....|--- .... ....|--- .... ....
....|..|--- .... ....|C-3 2F.7 ....|--- .... ....
....|..|--- .... ....|C-3 2F.F ....|--- .... ....
....|..|--- .... ....|C-3 2F.F ....|--- .... ....
....|..|--- .... ....|--- .... ....|--- .... ....
....|..|--- .... ....|C-3 2F.7 ....|--- .... ....
....|..|--- .... ....|--- .... ....|--- .... ....
....|..|--- .... ....|C-3 2F.F ....|--- .... ....
....|..|--- .... ....|--- .... ....|--- .... ....
....|..|--- .... ....|C-3 2F.7 ....|--- .... ....
....|..|--- .... ....|--- .... ....|--- .... ....
....|..|--- .... ....|C-3 2F.F ....|--- .... ....
....|..|--- .... ....|--- .... ....|--- .... ....
....|..|--- .... ....|C-3 2F.7 ....|--- .... ....
....|..|--- .... ....|C-3 2F.A ....|--- .... ....
....|..|--- .... ....|C-3 2F.F ....|--- .... ....
....|..|--- .... ....|C-3 2F.7 ....|--- .... ....
....|..|--- .... ....|C-3 2F.7 ....|--- .... ....
....|..|--- .... ....|--- .... ....|--- .... ....
....|..|--- .... ....|C-3 2F.F ....|--- .... ....
....|..|--- .... ....|--- .... ....|--- .... ....
....|..|--- .... ....|C-3 2F.7 ....|--- .... ....
....|..|--- .... ....|--- .... ....|--- .... ....
....|..|--- .... ....|C-3 2F.F ....|--- .... ....
....|..|--- .... ....|--- .... ....|--- .... ....
....|..|--- .... ....|C-3 2F.7 ....|--- .... ....
....|..|--- .... ....|C-3 2F.F ....|--- .... ....
....|..|--- .... ....|C-3 2F.F ....|--- .... ....
....|..|--- .... ....|--- .... ....|--- .... ....
....|..|--- .... ....|C-3 2F.F ....|--- .... ....
....|..|--- .... ....|--- .... ....|--- .... ....
....|..|--- .... ....|C-3 2F.F ....|--- .... ....
....|..|--- .... ....|--- .... ....|--- .... ....
....|..|--- .... ....|C-5 2F.F ....|--- .... ....
....|..|--- .... ....|R-- .... ....|--- .... ....
....|..|--- .... ....|C-4 2F.F ....|--- .... ....
....|..|--- .... ....|--- .... ....|--- .... ....
....|..|--- .... ....|C-3 2F.7 ....|--- .... ....
....|..|--- .... ....|R-- .... ....|--- .... ....

[Pattern20]
....|..|--- .... ....|A-2 2F.F ....|--- .... ....
....|..|--- .... ....|C-3 2F.7 ....|--- .... ....
....|..|--- .... ....|C-3 2F.7 ....|--- .... ....
....|..|--- .... ....|--- .... ....|--- .... ....
....|..|--- .... ....|A-2 2F.F ....|--- .... ....
....|..|--- .... ....|--- .... ....|--- .... ....
....|..|--- .... ....|C-3 2F.7 ....|--- .... ....
....|..|--- .... ....|R-- .... ....|--- .... ....
....|..|--- .... ....|A-2 2F.F ....|--- .... ....
....|..|--- .... ....|R-- .... ....|--- .... ....
....|..|--- .... ....|C-4 2F.7 ....|--- .... ....
....|..|--- .... ....|R-- .... ....|--- .... ....
....|..|--- .... ....|C-4 2F2F ....|--- .... ....
....|..|--- .... ....|A-2 2F.F ....|--- .... ....
....|..|--- .... ....|A-2 2F.7 ....|--- .... ....
....|..|--- .... ....|--- .... ....|--- .... ....
....|..|--- .... ....|A-2 2F.A ....|--- .... ....
....|..|--- .... ....|--- .... ....|--- .... ....
....|..|--- .... ....|A-2 2F.7 ....|--- .... ....
....|..|--- .... ....|--- .... ....|--- .... ....
....|..|--- .... ....|A-2 2F.F ....|--- .... ....
....|..|--- .... ....|--- .... ....|--- .... ....
....|..|--- .... ....|A-2 2F.F ....|--- .... ....
....|..|--- .... ....|--- .... ....|--- .... ....
....|..|--- .... ....|C-4 2F2A ....|--- .... ....
....|..|--- .... ....|A-2 2F.A ....|--- .... ....
....|..|--- .... ....|C-4 2F27 ....|--- .... ....
....|..|--- .... ....|A-2 2F.7 ....|--- .... ....
....|..|--- .... ....|A-3 2F.F ....|--- .... ....
....|..|--- .... ....|--- .... ....|--- .... ....
....|..|--- .... ....|R-- .... ....|--- .... ....
....|..|--- .... ....|--- .... ....|--- .... ....
....|..|--- .... ....|A-2 2F.F ....|--- .... ....
....|..|--- .... ....|--- .... ....|--- .... ....
....|..|--- .... ....|A-2 2F.7 ....|--- .... ....
....|..|--- .... ....|--- .... ....|--- .... ....
....|..|--- .... ....|A-2 2F.F ....|--- .... ....
....|..|--- .... ....|--- .... ....|--- .... ....
....|..|--- .... ....|--- .... ....|--- .... ....
....|..|--- .... ....|A-2 2F.F ....|--- .... ....
....|..|--- .... ....|A-2 2F.F ....|--- .... ....
....|..|--- .... ....|R-- .... ....|--- .... ....
....|..|--- .... ....|A-3 2F.7 ....|--- .... ....
....|..|--- .... ....|A-2 2F.F ....|--- .... ....
....|..|--- .... ....|A-2 2F.F ....|--- .... ....
....|..|--- .... ....|--- .... ....|--- .... ....
....|..|--- .... ....|A-2 2F.7 ....|--- .... ....
....|..|--- .... ....|--- .... ....|--- .... ....
....|..|--- .... ....|E-3 2F3F ....|--- .... ....
....|..|--- .... ....|--- .... ....|--- .... ....
....|..|--- .... ....|A-2 2F.F ....|--- .... ....
....|..|--- .... ....|A-2 2F.A ....|--- .... ....
....|..|--- .... ....|A-3 2F4F ....|--- .... ....
....|..|--- .... ....|A-2 2F.7 ....|--- .... ....
....|..|--- .... ....|A-2 2F.7 ....|--- .... ....
....|..|--- .... ....|A-2 2F.A ....|--- .... ....
....|..|--- .... ....|A-3 2F4F ....|--- .... ....
....|..|--- .... ....|A-2 2F.7 ....|--- .... ....
....|..|--- .... ....|A-2 2F.7 ....|--- .... ....
....|..|--- .... ....|--- .... ....|--- .... ....
....|..|--- .... ....|E-3 2F5F ....|--- .... ....
....|..|--- .... ....|E-3 2F3F ....|--- .... ....
....|..|--- .... ....|E-3 2F37 ....|--- .... ....
....|..|--- .... ....|--- .... ....|--- .... ....
....|..|--- .... ....|F-2 2F.F ....|--- .... ....
....|..|--- .... ....|--- .... ....|--- .... ....
....|..|--- .... ....|A-3 2F47 ....|--- .... ....
....|..|--- .... ....|--- .... ....|--- .... ....
....|..|--- .... ....|F-2 2F.F ....|--- .... ....
....|..|--- .... ....|--- .... ....|--- .... ....
....|..|--- .... ....|A-3 2F47 ....|--- .... ....
....|..|--- .... ....|--- .... ....|--- .... ....
....|..|--- .... ....|F-2 2F.F ....|--- .... ....
....|..|--- .... ....|E-3 2F3A ....|--- .... ....
....|..|--- .... ....|E-3 2F57 ....|--- .... ....
....|..|--- .... ....|E-3 2F37 ....|--- .... ....
....|..|--- .... ....|A-3 2F4F ....|--- .... ....
....|..|--- .... ....|--- .... ....|--- .... ....
....|..|--- .... ....|F-2 2F.7 ....|--- .... ....
....|..|--- .... ....|--- .... ....|--- .... ....
....|..|--- .... ....|F-2 2F.A ....|--- .... ....
....|..|--- .... ....|--- .... ....|--- .... ....
....|..|--- .... ....|F-2 2F.7 ....|--- .... ....
....|..|--- .... ....|--- .... ....|--- .... ....
....|..|--- .... ....|A-3 2F4F ....|--- .... ....
....|..|--- .... ....|--- .... ....|--- .... ....
....|..|--- .... ....|F-2 2F.7 ....|--- .... ....
....|..|--- .... ....|--- .... ....|--- .... ....
....|..|--- .... ....|A-3 2F4A ....|--- .... ....
....|..|--- .... ....|A-3 2F6F ....|--- .... ....
....|..|--- .... ....|A-3 2F47 ....|--- .... ....
....|..|--- .... ....|--- .... ....|--- .... ....
....|..|--- .... ....|F-3 2F.F ....|--- .... ....
....|..|--- .... ....|--- .... ....|--- .... ....
....|..|--- .... ....|--- .... ....|--- .... ....
....|..|--- .... ....|--- .... ....|--- .... ....
....|..|--- .... ....|G#2 2F.F ....|--- .... ....
....|..|--- .... ....|--- .... ....|--- .... ....
....|..|--- .... ....|A-3 2F47 ....|--- .... ....
....|..|--- .... ....|--- .... ....|--- .... ....
....|..|--- .... ....|G#2 2F.F ....|--- .... ....
....|..|--- .... ....|A-3 2F6A ....|--- .... ....
....|..|--- .... ....|--- .... ....|--- .... ....
....|..|--- .... ....|A-3 2F67 ....|--- .... ....
....|..|--- .... ....|F-3 2F4F ....|--- .... ....
....|..|--- .... ....|--- .... ....|--- .... ....
....|..|--- .... ....|G#2 2F.F ....|--- .... ....
....|..|--- .... ....|--- .... ....|--- .... ....
....|..|--- .... ....|G#3 2F4F ....|--- .... ....
....|..|--- .... ....|G#2 2F.F ....|--- .... ....
....|..|--- .... ....|G#2 2F.7 ....|--- .... ....
....|..|--- .... ....|--- .... ....|--- .... ....
....|..|--- .... ....|G#3 2F4F ....|--- .... ....
....|..|--- .... ....|--- .... ....|--- .... ....
....|..|--- .... ....|G#2 2F.7 ....|--- .... ....
....|..|--- .... ....|--- .... ....|--- .... ....
....|..|--- .... ....|G#3 2F4F ....|--- .... ....
....|..|--- .... ....|--- .... ....|--- .... ....
....|..|--- .... ....|G#2 2F.F ....|--- .... ....
....|..|--- .... ....|--- .... ....|--- .... ....
....|..|--- .... ....|G#2 2F.7 ....|--- .... ....
....|..|--- .... ....|G#2 2F.A ....|--- .... ....
....|..|--- .... ....|G#3 2F47 ....|--- .... ....
....|..|--- .... ....|G#2 2F.7 ....|--- .... ....
....|..|--- .... ....|C-4 2F.F ....|--- .... ....
....|..|--- .... ....|--- .... ....|--- .... ....
....|..|--- .... ....|G#3 2F47 ....|--- .... ....
....|..|--- .... ....|--- .... ....|--- .... ....

[Pattern21]
....|..|--- .... ....|A-2 2F.F ....|--- .... ....
....|..|--- .... ....|--- .... ....|--- .... ....
....|..|--- .... ....|G#3 2F47 ....|--- .... ....
....|..|--- .... ....|--- .... ....|--- .... ....
....|..|--- .... ....|E-3 2F.F ....|--- .... ....
....|..|--- .... ....|--- .... ....|--- .... ....
....|..|--- .... ....|--- .... ....|--- .... ....
....|..|--- .... ....|A-2 2F.F ....|--- .... ....
....|..|--- .... ....|A-2 2F.F ....|--- .... ....
....|..|--- .... ....|--- .... ....|--- .... ....
....|..|--- .... ....|C-4 2F.7 ....|--- .... ....
....|..|--- .... ....|--- .... ....|--- .... ....
....|..|--- .... ....|A-3 2F1F ....|--- .... ....
....|..|--- .... ....|A-2 2F.F ....|--- .... ....
....|..|--- .... ....|A-2 2F.7 ....|--- .... ....
....|..|--- .... ....|A-2 2F.F ....|--- .... ....
....|..|--- .... ....|E-3 2F.A ....|--- .... ....
....|..|--- .... ....|--- .... ....|--- .... ....
....|..|--- .... ....|E-3 2F.7 ....|--- .... ....
....|..|--- .... ....|A-2 2F.A ....|--- .... ....
....|..|--- .... ....|A-2 2F.F ....|--- .... ....
....|..|--- .... ....|A-2 2F.7 ....|--- .... ....
....|..|--- .... ....|A-2 2F.7 ....|--- .... ....
....|..|--- .... ....|--- .... ....|--- .... ....
....|..|--- .... ....|A-2 2F.F ....|--- .... ....
....|..|--- .... ....|A-2 2F.A ....|--- .... ....
....|..|--- .... ....|A-3 2F17 ....|--- .... ....
....|..|--- .... ....|A-2 2F.7 ....|--- .... ....
....|..|--- .... ....|A-3 2F4F ....|--- .... ....
....|..|--- .... ....|A-3 2F4F ....|--- .... ....
....|..|--- .... ....|--- .... ....|--- .... ....
....|..|--- .... ....|C-4 2F.F ....|--- .... ....
....|..|--- .... ....|A-2 2F.F ....|--- .... ....
....|..|--- .... ....|--- .... ....|--- .... ....
....|..|--- .... ....|A-2 2F.7 ....|--- .... ....
....|..|--- .... ....|--- .... ....|--- .... ....
....|..|--- .... ....|A-2 2F.F ....|--- .... ....
....|..|--- .... ....|--- .... ....|--- .... ....
....|..|--- .... ....|A-2 2F.7 ....|--- .... ....
....|..|--- .... ....|--- .... ....|--- .... ....
....|..|--- .... ....|A-2 2F.F ....|--- .... ....
....|..|--- .... ....|A-3 2F4A ....|--- .... ....
....|..|--- .... ....|A-3 2F47 ....|--- .... ....
....|..|--- .... ....|A-3 2F47 ....|--- .... ....
....|..|--- .... ....|A-3 2F1F ....|--- .... ....
....|..|--- .... ....|A-2 2F.F ....|--- .... ....
....|..|--- .... ....|A-2 2F.7 ....|--- .... ....
....|..|--- .... ....|--- .... ....|--- .... ....
....|..|--- .... ....|B-3 2F7F ....|--- .... ....
....|..|--- .... ....|A-2 2F.F ....|--- .... ....
....|..|--- .... ....|A-2 2F.7 ....|--- .... ....
....|..|--- .... ....|A-2 2F.F ....|--- .... ....
....|..|--- .... ....|A-2 2F.F ....|--- .... ....
....|..|--- .... ....|--- .... ....|--- .... ....
....|..|--- .... ....|A-2 2F.7 ....|--- .... ....
....|..|--- .... ....|--- .... ....|--- .... ....
....|..|--- .... ....|A-2 2F.F ....|--- .... ....
....|..|--- .... ....|A-2 2F.A ....|--- .... ....
....|..|--- .... ....|A-3 2F17 ....|--- .... ....
....|..|--- .... ....|A-2 2F.7 ....|--- .... ....
....|..|--- .... ....|B-3 2F7A ....|--- .... ....
....|..|--- .... ....|A-2 2F.A ....|--- .... ....
....|..|--- .... ....|B-3 2F77 ....|--- .... ....
....|..|--- .... ....|A-2 2F.7 ....|--- .... ....
....|..|E-4 2F.F ....|C-3 2F.F ....|--- .... ....
....|..|--- .... ....|A-2 2F.7 ....|--- .... ....
....|..|--- .... ....|A-2 2F.7 ....|--- .... ....
....|..|--- .... ....|--- .... ....|--- .... ....
....|..|--- .... ....|D-4 2F1F ....|--- .... ....
....|..|--- .... ....|--- .... ....|--- .... ....
....|..|--- .... ....|A-2 2F.7 ....|--- .... ....
....|..|--- .... ....|C-3 2F.F ....|--- .... ....
....|..|--- .... ....|C-4 2F1F ....|--- .... ....
....|..|--- .... ....|C-3 2F.F ....|--- .... ....
....|..|--- .... ....|--- .... ....|--- .... ....
....|..|--- .... ....|C-3 2F.F ....|--- .... ....
....|..|E-4 2F.A ....|C-3 2F.F ....|--- .... ....
....|..|--- .... ....|--- .... ....|--- .... ....
....|..|E-4 2F.7 ....|C-3 2F.7 ....|--- .... ....
....|..|--- .... ....|--- .... ....|--- .... ....
....|..|--- .... ....|C-3 2F.F ....|--- .... ....
....|..|--- .... ....|--- .... ....|--- .... ....
....|..|--- .... ....|D-4 2F17 ....|--- .... ....
....|..|--- .... ....|C-3 2F.A ....|--- .... ....
....|..|--- .... ....|C-3 2F.F ....|--- .... ....
....|..|--- .... ....|C-3 2F.7 ....|--- .... ....
....|..|--- .... ....|C-4 2F17 ....|--- .... ....
....|..|--- .... ....|C-3 2F.7 ....|--- .... ....
....|..|--- .... ....|C-3 2F.F ....|--- .... ....
....|..|--- .... ....|C-3 2F.7 ....|--- .... ....
....|..|--- .... ....|C-3 2F.7 ....|--- .... ....
....|..|--- .... ....|--- .... ....|--- .... ....
....|..|--- .... ....|C-3 2F.F ....|--- .... ....
....|..|--- .... ....|--- .... ....|--- .... ....
....|..|--- .... ....|C-3 2F.7 ....|--- .... ....
....|..|--- .... ....|--- .... ....|--- .... ....
....|..|G-4 2F.F ....|C-3 2F.F ....|--- .... ....
....|..|--- .... ....|--- .... ....|--- .... ....
....|..|--- .... ....|C-3 2F.7 ....|--- .... ....
....|..|--- .... ....|--- .... ....|--- .... ....
....|..|--- .... ....|C-3 2F.F ....|--- .... ....
....|..|--- .... ....|--- .... ....|--- .... ....
....|..|--- .... ....|C-3 2F.7 ....|--- .... ....
....|..|--- .... ....|--- .... ....|--- .... ....
....|..|--- .... ....|C-3 2F.F ....|--- .... ....
....|..|--- .... ....|--- .... ....|--- .... ....
....|..|--- .... ....|C-3 2F.7 ....|--- .... ....
....|..|--- .... ....|--- .... ....|--- .... ....
....|..|G-4 2F.A ....|C-3 2F.F ....|--- .... ....
....|..|--- .... ....|--- .... ....|--- .... ....
....|..|G-4 2F.7 ....|G-4 2F.F ....|--- .... ....
....|..|--- .... ....|--- .... ....|--- .... ....
....|..|C-5 2F.F ....|C-3 2F.F ....|--- .... ....
....|..|C-5 2F.F ....|--- .... ....|--- .... ....
....|..|--- .... ....|C-3 2F.7 ....|--- .... ....
....|..|--- .... ....|C-3 2F.F ....|--- .... ....
....|..|--- .... ....|C-3 2F.F ....|--- .... ....
....|..|--- .... ....|--- .... ....|--- .... ....
....|..|--- .... ....|C-3 2F.7 ....|--- .... ....
....|..|--- .... ....|--- .... ....|--- .... ....
....|..|--- .... ....|C-3 2F.F ....|--- .... ....
....|..|--- .... ....|--- .... ....|--- .... ....
....|..|--- .... ....|C-3 2F.7 ....|--- .... ....
....|..|--- .... ....|C-3 2F.F ....|--- .... ....
....|..|C-5 2F.A ....|C-3 2F.F ....|--- .... ....
....|..|C-5 2F.A ....|--- .... ....|--- .... ....
....|..|C-5 2F.7 ....|C-4 2F.F ....|--- .... ....
....|..|C-5 2F.7 ....|C-3 2F.A ....|--- .... ....

[Pattern22]
....|..|B-4 2F.F ....|A-2 2F.F ....|--- .... ....
....|..|--- .... ....|C-3 2F.7 ....|--- .... ....
....|..|--- .... ....|C-3 2F.7 ....|--- .... ....
....|..|A-4 2F.F ....|--- .... ....|--- .... ....
....|..|--- .... ....|A-4 2F1F ....|--- .... ....
....|..|--- .... ....|A-2 2F.F ....|--- .... ....
....|..|--- .... ....|C-3 2F.7 ....|--- .... ....
....|..|A-4 2F.F ....|C-3 2F.A ....|--- .... ....
....|..|E-4 2F.F ....|A-2 2F.F ....|--- .... ....
....|..|--- .... ....|C-3 2F.7 ....|--- .... ....
....|..|--- .... ....|C-3 2F.7 ....|--- .... ....
....|..|--- .... ....|--- .... ....|--- .... ....
....|..|B-4 2F.A ....|A-2 2F.F ....|--- .... ....
....|..|--- .... ....|--- .... ....|--- .... ....
....|..|B-4 2F.7 ....|A-2 2F.F ....|--- .... ....
....|..|A-4 2F.A ....|--- .... ....|--- .... ....
....|..|--- .... ....|A-4 2F1A ....|--- .... ....
....|..|A-4 2F.7 ....|A-2 2F.A ....|--- .... ....
....|..|--- .... ....|A-4 2F17 ....|--- .... ....
....|..|A-4 2F.A ....|A-2 2F.7 ....|--- .... ....
....|..|E-4 2F.A ....|A-2 2F.F ....|--- .... ....
....|..|A-4 2F.7 ....|--- .... ....|--- .... ....
....|..|E-4 2F.7 ....|A-2 2F.7 ....|--- .... ....
....|..|--- .... ....|--- .... ....|--- .... ....
....|..|--- .... ....|A-2 2F.F ....|--- .... ....
....|..|--- .... ....|--- .... ....|--- .... ....
....|..|--- .... ....|A-2 2F.7 ....|--- .... ....
....|..|--- .... ....|--- .... ....|--- .... ....
....|..|--- .... ....|A-3 2F.F ....|--- .... ....
....|..|--- .... ....|--- .... ....|--- .... ....
....|..|--- .... ....|--- .... ....|--- .... ....
....|..|--- .... ....|--- .... ....|--- .... ....
....|..|--- .... ....|A-2 2F.F ....|--- .... ....
....|..|--- .... ....|--- .... ....|--- .... ....
....|..|--- .... ....|A-2 2F.7 ....|--- .... ....
....|..|--- .... ....|--- .... ....|--- .... ....
....|..|--- .... ....|A-2 2F.F ....|--- .... ....
....|..|--- .... ....|--- .... ....|--- .... ....
....|..|--- .... ....|A-2 2F.7 ....|--- .... ....
....|..|--- .... ....|--- .... ....|--- .... ....
....|..|--- .... ....|A-2 2F.F ....|--- .... ....
....|..|--- .... ....|--- .... ....|--- .... ....
....|..|--- .... ....|A-3 2F.7 ....|--- .... ....
....|..|--- .... ....|--- .... ....|--- .... ....
....|..|--- .... ....|E-3 2F3F ....|--- .... ....
....|..|--- .... ....|--- .... ....|--- .... ....
....|..|--- .... ....|A-2 2F.7 ....|--- .... ....
....|..|--- .... ....|A-2 2F.F ....|--- .... ....
....|..|--- .... ....|A-3 2F1F ....|--- .... ....
....|..|R-- .... ....|--- .... ....|--- .... ....
....|..|--- .... ....|A-2 2F.7 ....|--- .... ....
....|..|--- .... ....|--- .... ....|--- .... ....
....|..|--- .... ....|E-3 2F3F ....|--- .... ....
....|..|--- .... ....|--- .... ....|--- .... ....
....|..|--- .... ....|A-2 2F.7 ....|--- .... ....
....|..|--- .... ....|A-3 2F1F ....|--- .... ....
....|..|--- .... ....|A-3 2F8F ....|--- .... ....
....|..|--- .... ....|A-3 2F4F ....|--- .... ....
....|..|--- .... ....|E-3 2F37 ....|--- .... ....
....|..|--- .... ....|A-2 2F.F ....|--- .... ....
....|..|--- .... ....|E-3 2F.F ....|--- .... ....
....|..|R-- .... ....|A-2 2F.7 ....|--- .... ....
....|..|--- .... ....|A-3 2F17 ....|--- .... ....
....|..|R-- .... ....|--- .... ....|--- .... ....
....|..|C-4 2F.F ....|F-2 2F.F ....|--- .... ....
....|..|--- .... ....|--- .... ....|--- .... ....
....|..|--- .... ....|E-3 2F37 ....|--- .... ....
....|..|--- .... ....|A-3 2F1A ....|--- .... ....
....|..|--- .... ....|B-3 2F7F ....|--- .... ....
....|..|--- .... ....|F-2 2F.F ....|--- .... ....
....|..|--- .... ....|A-3 2F87 ....|--- .... ....
....|..|--- .... ....|F-2 2F.F ....|--- .... ....
....|..|--- .... ....|F-2 2F.F ....|--- .... ....
....|..|--- .... ....|A-2 2F.7 ....|--- .... ....
....|..|--- .... ....|E-3 2F.7 ....|--- .... ....
....|..|--- .... ....|F-2 2F.F ....|--- .... ....
....|..|C-4 2F.A ....|F-2 2F.F ....|--- .... ....
....|..|--- .... ....|--- .... ....|--- .... ....
....|..|C-4 2F.7 ....|F-2 2F.7 ....|--- .... ....
....|..|--- .... ....|--- .... ....|--- .... ....
....|..|--- .... ....|F-2 2F.F ....|--- .... ....
....|..|--- .... ....|F-2 2F.A ....|--- .... ....
....|..|--- .... ....|B-3 2F77 ....|--- .... ....
....|..|--- .... ....|F-2 2F.F ....|--- .... ....
....|..|--- .... ....|F-2 2F.F ....|--- .... ....
....|..|--- .... ....|F-2 2F.7 ....|--- .... ....
....|..|--- .... ....|F-2 2F.7 ....|--- .... ....
....|..|--- .... ....|F-2 2F.F ....|--- .... ....
....|..|--- .... ....|F-2 2F.F ....|--- .... ....
....|..|--- .... ....|F-2 2F.7 ....|--- .... ....
....|..|--- .... ....|F-2 2F.7 ....|--- .... ....
....|..|--- .... ....|F-2 2F.F ....|--- .... ....
....|..|--- .... ....|F-2 2F.F ....|--- .... ....
....|..|--- .... ....|--- .... ....|--- .... ....
....|..|--- .... ....|F-2 2F.7 ....|--- .... ....
....|..|--- .... ....|F-2 2F.A ....|--- .... ....
....|..|F-3 2F.F ....|G#2 2F.F ....|--- .... ....
....|..|--- .... ....|F-2 2F.7 ....|--- .... ....
....|..|--- .... ....|F-2 2F.7 ....|--- .... ....
....|..|--- .... ....|F-2 2F.A ....|--- .... ....
....|..|--- .... ....|C-4 2F1F ....|--- .... ....
....|..|--- .... ....|G#2 2F.F ....|--- .... ....
....|..|--- .... ....|F-2 2F.7 ....|--- .... ....
....|..|--- .... ....|F-2 2F.A ....|--- .... ....
....|..|--- .... ....|F-2 2F.A ....|--- .... ....
....|..|--- .... ....|F-2 2F.7 ....|--- .... ....
....|..|--- .... ....|F-2 2F.7 ....|--- .... ....
....|..|--- .... ....|--- .... ....|--- .... ....
....|..|F-3 2F.A ....|B-3 2F7F ....|--- .... ....
....|..|--- .... ....|G#2 2F.F ....|--- .... ....
....|..|F-3 2F.7 ....|G#2 2F.7 ....|--- .... ....
....|..|--- .... ....|--- .... ....|--- .... ....
....|..|--- .... ....|C-4 2F1A ....|--- .... ....
....|..|--- .... ....|G#2 2F.A ....|--- .... ....
....|..|--- .... ....|C-4 2F17 ....|--- .... ....
....|..|--- .... ....|G#2 2F.7 ....|--- .... ....
....|..|--- .... ....|B-3 2F7F ....|--- .... ....
....|..|--- .... ....|G#2 2F.F ....|--- .... ....
....|..|--- .... ....|--- .... ....|--- .... ....
....|..|--- .... ....|--- .... ....|--- .... ....
....|..|--- .... ....|B-3 2F7A ....|--- .... ....
....|..|--- .... ....|G#2 2F.A ....|--- .... ....
....|..|--- .... ....|B-3 2F77 ....|--- .... ....
....|..|--- .... ....|G#2 2F.7 ....|--- .... ....
....|..|--- .... ....|C-4 2F.F ....|--- .... ....
....|..|--- .... ....|--- .... ....|--- .... ....
....|..|--- .... ....|--- .... ....|--- .... ....
....|..|--- .... ....|--- .... ....|--- .... ....

[Pattern23]
....|..|E-3 2F.F ....|E-3 2F.F ....|--- .... ....
....|..|--- .... ....|G#2 2F.A ....|--- .... ....
....|..|--- .... ....|A-2 2F.F ....|--- .... ....
....|..|--- .... ....|G#2 2F.7 ....|--- .... ....
....|..|--- .... ....|E-3 2F.F ....|--- .... ....
....|..|--- .... ....|A-2 2F.F ....|--- .... ....
....|..|--- .... ....|--- .... ....|--- .... ....
....|..|--- .... ....|--- .... ....|--- .... ....
....|..|--- .... ....|A-2 2F.F ....|--- .... ....
....|..|--- .... ....|--- .... ....|--- .... ....
....|..|--- .... ....|C-4 2F.7 ....|--- .... ....
....|..|--- .... ....|--- .... ....|--- .... ....
....|..|E-3 2F.A ....|A-3 2F1F ....|--- .... ....
....|..|--- .... ....|A-2 2F.F ....|--- .... ....
....|..|E-3 2F.7 ....|B-3 2F.F ....|--- .... ....
....|..|--- .... ....|--- .... ....|--- .... ....
....|..|--- .... ....|B-3 2F.F ....|--- .... ....
....|..|--- .... ....|A-2 2F.A ....|--- .... ....
....|..|--- .... ....|A-2 2F.F ....|--- .... ....
....|..|--- .... ....|A-2 2F.7 ....|--- .... ....
....|..|--- .... ....|A-2 2F.F ....|--- .... ....
....|..|--- .... ....|--- .... ....|--- .... ....
....|..|--- .... ....|A-2 2F.7 ....|--- .... ....
....|..|--- .... ....|A-2 2F.F ....|--- .... ....
....|..|--- .... ....|A-2 2F.F ....|--- .... ....
....|..|--- .... ....|A-2 2F.A ....|--- .... ....
....|..|--- .... ....|A-3 2F17 ....|--- .... ....
....|..|--- .... ....|A-2 2F.7 ....|--- .... ....
....|..|--- .... ....|A-3 2F4F ....|--- .... ....
....|..|--- .... ....|C-4 2F.F ....|--- .... ....
....|..|--- .... ....|C-4 2F.F ....|--- .... ....
....|..|--- .... ....|--- .... ....|--- .... ....
....|..|--- .... ....|A-2 2F.F ....|--- .... ....
....|..|--- .... ....|--- .... ....|--- .... ....
....|..|--- .... ....|A-2 2F.7 ....|--- .... ....
....|..|--- .... ....|A-2 2F.A ....|--- .... ....
....|..|--- .... ....|A-2 2F.F ....|--- .... ....
....|..|--- .... ....|A-2 2F.7 ....|--- .... ....
....|..|--- .... ....|A-2 2F.7 ....|--- .... ....
....|..|--- .... ....|A-2 2F.F ....|--- .... ....
....|..|--- .... ....|A-2 2F.F ....|--- .... ....
....|..|--- .... ....|C-4 2F.A ....|--- .... ....
....|..|--- .... ....|A-3 2F47 ....|--- .... ....
....|..|--- .... ....|C-4 2F.7 ....|--- .... ....
....|..|--- .... ....|A-2 2F.F ....|--- .... ....
....|..|--- .... ....|--- .... ....|--- .... ....
....|..|--- .... ....|A-2 2F.7 ....|--- .... ....
....|..|--- .... ....|A-2 2F.F ....|--- .... ....
....|..|--- .... ....|A-2 2F.F ....|--- .... ....
....|..|--- .... ....|--- .... ....|--- .... ....
....|..|--- .... ....|A-2 2F.7 ....|--- .... ....
....|..|--- .... ....|A-2 2F.F ....|--- .... ....
....|..|--- .... ....|A-2 2F.F ....|--- .... ....
....|..|--- .... ....|A-2 2F.7 ....|--- .... ....
....|..|--- .... ....|A-2 2F.7 ....|--- .... ....
....|..|--- .... ....|--- .... ....|--- .... ....
....|..|--- .... ....|A-2 2F.F ....|--- .... ....
....|..|--- .... ....|--- .... ....|--- .... ....
....|..|R-- .... ....|A-2 2F.7 ....|--- .... ....
....|..|--- .... ....|A-2 2F.A ....|--- .... ....
....|..|--- .... ....|A-3 2F1F ....|--- .... ....
....|..|--- .... ....|B-3 2F.F ....|--- .... ....
....|..|--- .... ....|A-2 2F.7 ....|--- .... ....
....|..|--- .... ....|R-- .... ....|--- .... ....
....|..|C-3 2F.F ....|F-2 2F.F ....|--- .... ....
....|..|--- .... ....|A-2 2F.7 ....|--- .... ....
....|..|--- .... ....|A-2 2F.7 ....|--- .... ....
....|..|--- .... ....|--- .... ....|--- .... ....
....|..|--- .... ....|F-2 2F.F ....|--- .... ....
....|..|--- .... ....|--- .... ....|--- .... ....
....|..|R-- .... ....|A-2 2F.7 ....|--- .... ....
....|..|--- .... ....|--- .... ....|--- .... ....
....|..|R-- .... ....|F-2 2F.F ....|--- .... ....
....|..|--- .... ....|B-3 2F.A ....|--- .... ....
....|..|--- .... ....|A-3 2F17 ....|--- .... ....
....|..|--- .... ....|B-3 2F.7 ....|--- .... ....
....|..|C-3 2F.A ....|A-3 2F4F ....|--- .... ....
....|..|--- .... ....|R-- .... ....|--- .... ....
....|..|C-3 2F.7 ....|F-2 2F.7 ....|--- .... ....
....|..|--- .... ....|--- .... ....|--- .... ....
....|..|--- .... ....|F-2 2F.A ....|--- .... ....
....|..|--- .... ....|--- .... ....|--- .... ....
....|..|--- .... ....|F-2 2F.7 ....|--- .... ....
....|..|--- .... ....|--- .... ....|--- .... ....
....|..|--- .... ....|A-3 2F4F ....|--- .... ....
....|..|--- .... ....|--- .... ....|--- .... ....
....|..|--- .... ....|F-2 2F.7 ....|--- .... ....
....|..|--- .... ....|--- .... ....|--- .... ....
....|..|--- .... ....|A-3 2F4A ....|--- .... ....
....|..|--- .... ....|A-3 2F6F ....|--- .... ....
....|..|--- .... ....|A-3 2F47 ....|--- .... ....
....|..|--- .... ....|--- .... ....|--- .... ....
....|..|--- .... ....|F-3 2F.F ....|--- .... ....
....|..|--- .... ....|--- .... ....|--- .... ....
....|..|--- .... ....|--- .... ....|--- .... ....
....|..|--- .... ....|--- .... ....|--- .... ....
....|..|C-3 2F.F ....|G#2 2F.F ....|--- .... ....
....|..|--- .... ....|--- .... ....|--- .... ....
....|..|G#2 2F.F ....|A-3 2F47 ....|--- .... ....
....|..|--- .... ....|--- .... ....|--- .... ....
....|..|--- .... ....|G#2 2F.F ....|--- .... ....
....|..|--- .... ....|A-3 2F6A ....|--- .... ....
....|..|--- .... ....|--- .... ....|--- .... ....
....|..|--- .... ....|A-3 2F67 ....|--- .... ....
....|..|--- .... ....|F-3 2F4F ....|--- .... ....
....|..|--- .... ....|--- .... ....|--- .... ....
....|..|--- .... ....|F-3 2F.7 ....|--- .... ....
....|..|--- .... ....|--- .... ....|--- .... ....
....|..|C-3 2F.A ....|F-3 2F4F ....|--- .... ....
....|..|--- .... ....|--- .... ....|--- .... ....
....|..|C-3 2F.7 ....|G#3 2F4F ....|--- .... ....
....|..|--- .... ....|--- .... ....|--- .... ....
....|..|G#2 2F.7 ....|G#3 2F4F ....|--- .... ....
....|..|--- .... ....|--- .... ....|--- .... ....
....|..|--- .... ....|G#2 2F.7 ....|--- .... ....
....|..|--- .... ....|--- .... ....|--- .... ....
....|..|--- .... ....|G#3 2F.F ....|--- .... ....
....|..|--- .... ....|D-4 2F4F ....|--- .... ....
....|..|--- .... ....|F-3 2F47 ....|--- .... ....
....|..|--- .... ....|--- .... ....|--- .... ....
....|..|--- .... ....|B-3 2F4F ....|--- .... ....
....|..|--- .... ....|B-3 2F4F ....|--- .... ....
....|..|--- .... ....|G#2 2F.F ....|--- .... ....
....|..|--- .... ....|--- .... ....|--- .... ....
....|..|--- .... ....|G#3 2F4F ....|--- .... ....
....|..|--- .... ....|G#2 2F.F ....|--- .... ....
....|..|--- .... ....|G#2 2F.F ....|--- .... ....
....|..|--- .... ....|R-- .... ....|--- .... ....

[Pattern24]
....|..|E-3 2F.F ....|A-2 2F.F ....|--- .... ....
....|..|E-3 2F.F ....|D-4 2F4A ....|--- .... ....
....|..|--- .... ....|G#3 2F.7 ....|--- .... ....
....|..|--- .... ....|D-4 2F47 ....|--- .... ....
....|..|--- .... ....|E-3 2F.F ....|--- .... ....
....|..|--- .... ....|B-3 2F4A ....|--- .... ....
....|..|--- .... ....|B-3 2F47 ....|--- .... ....
....|..|--- .... ....|B-3 2F47 ....|--- .... ....
....|..|--- .... ....|E-3 2F3F ....|--- .... ....
....|..|--- .... ....|E-3 2F3F ....|--- .... ....
....|..|--- .... ....|G#3 2F47 ....|--- .... ....
....|..|--- .... ....|G#2 2F.7 ....|--- .... ....
....|..|E-3 2F.A ....|E-3 2F3F ....|--- .... ....
....|..|E-3 2F.A ....|A-3 2F1F ....|--- .... ....
....|..|E-3 2F.7 ....|A-2 2F.7 ....|--- .... ....
....|..|E-3 2F.7 ....|A-2 2F.F ....|--- .... ....
....|..|--- .... ....|A-2 2F.F ....|--- .... ....
....|..|--- .... ....|--- .... ....|--- .... ....
....|..|--- .... ....|E-3 2F.7 ....|--- .... ....
....|..|--- .... ....|--- .... ....|--- .... ....
....|..|--- .... ....|E-3 2F.F ....|--- .... ....
....|..|--- .... ....|E-3 2F3A ....|--- .... ....
....|..|--- .... ....|A-2 2F.F ....|--- .... ....
....|..|--- .... ....|E-3 2F37 ....|--- .... ....
....|..|--- .... ....|E-3 2F.F ....|--- .... ....
....|..|--- .... ....|A-2 2F.F ....|--- .... ....
....|..|--- .... ....|E-3 2F37 ....|--- .... ....
....|..|--- .... ....|A-3 2F17 ....|--- .... ....
....|..|--- .... ....|C-4 2F1F ....|--- .... ....
....|..|--- .... ....|A-2 2F.F ....|--- .... ....
....|..|--- .... ....|A-2 2F.7 ....|--- .... ....
....|..|--- .... ....|--- .... ....|--- .... ....
....|..|--- .... ....|E-3 2F.A ....|--- .... ....
....|..|--- .... ....|--- .... ....|--- .... ....
....|..|--- .... ....|A-2 2F.F ....|--- .... ....
....|..|--- .... ....|--- .... ....|--- .... ....
....|..|--- .... ....|A-2 2F.F ....|--- .... ....
....|..|--- .... ....|A-2 2F.A ....|--- .... ....
....|..|--- .... ....|E-3 2F.7 ....|--- .... ....
....|..|--- .... ....|A-2 2F.7 ....|--- .... ....
....|..|--- .... ....|C-4 2F1A ....|--- .... ....
....|..|--- .... ....|A-2 2F.A ....|--- .... ....
....|..|--- .... ....|A-2 2F.F ....|--- .... ....
....|..|--- .... ....|A-2 2F.7 ....|--- .... ....
....|..|--- .... ....|A-2 2F.F ....|--- .... ....
....|..|--- .... ....|--- .... ....|--- .... ....
....|..|--- .... ....|A-2 2F.A ....|--- .... ....
....|..|--- .... ....|--- .... ....|--- .... ....
....|..|--- .... ....|A-2 2F.7 ....|--- .... ....
....|..|--- .... ....|--- .... ....|--- .... ....
....|..|--- .... ....|A-2 2F.7 ....|--- .... ....
....|..|--- .... ....|--- .... ....|--- .... ....
....|..|--- .... ....|B-3 2F7F ....|--- .... ....
....|..|--- .... ....|--- .... ....|--- .... ....
....|..|R-- .... ....|A-2 2F.A ....|--- .... ....
....|..|--- .... ....|R-- .... ....|--- .... ....
....|..|--- .... ....|A-2 2F.7 ....|--- .... ....
....|..|--- .... ....|--- .... ....|--- .... ....
....|..|--- .... ....|A-2 2F.7 ....|--- .... ....
....|..|--- .... ....|--- .... ....|--- .... ....
....|..|--- .... ....|--- .... ....|--- .... ....
....|..|--- .... ....|--- .... ....|--- .... ....
....|..|--- .... ....|--- .... ....|--- .... ....
....|..|C-4 2F.F ....|--- .... ....|--- .... ....
....|..|--- .... ....|G-3 2F3F ....|--- .... ....
....|..|D#4 2F.F ....|--- .... ....|--- .... ....
....|..|D#4 2F.F ....|B-3 2F77 ....|--- .... ....
....|..|G-4 2F.F ....|R-- .... ....|--- .... ....
....|..|R-- .... ....|--- .... ....|--- .... ....
....|..|C-5 2F.F ....|R-- .... ....|--- .... ....
....|..|--- .... ....|--- .... ....|--- .... ....
....|..|D#5 2F.F ....|G-3 2F5F ....|--- .... ....
....|..|--- .... ....|C-4 2F4F ....|--- .... ....
....|..|--- .... ....|C-4 2F.F ....|--- .... ....
....|..|--- .... ....|R-- .... ....|--- .... ....
....|..|C-4 2F.A ....|--- .... ....|--- .... ....
....|..|C-5 2F.F ....|C-2 2F.F ....|--- .... ....
....|..|C-4 2F.7 ....|--- .... ....|--- .... ....
....|..|D#4 2F.A ....|G-3 2F37 ....|--- .... ....
....|..|D#4 2F.7 ....|--- .... ....|--- .... ....
....|..|G-4 2F.F ....|C-3 2F.F ....|--- .... ....
....|..|G-4 2F.7 ....|--- .... ....|--- .... ....
....|..|--- .... ....|--- .... ....|--- .... ....
....|..|C-5 2F.7 ....|G-3 2F5A ....|--- .... ....
....|..|D#4 2F.F ....|C-4 2F4F ....|--- .... ....
....|..|D#5 2F.7 ....|G-3 2F57 ....|--- .... ....
....|..|--- .... ....|C-4 2F47 ....|--- .... ....
....|..|R-- .... ....|C-4 2F.7 ....|--- .... ....
....|..|G-4 2F.F ....|G-3 2F5F ....|--- .... ....
....|..|--- .... ....|--- .... ....|--- .... ....
....|..|C-5 2F.7 ....|C-2 2F.7 ....|--- .... ....
....|..|--- .... ....|--- .... ....|--- .... ....
....|..|C-5 2F.F ....|G-3 2F5F ....|--- .... ....
....|..|--- .... ....|--- .... ....|--- .... ....
....|..|G-4 2F.7 ....|C-3 2F.7 ....|--- .... ....
....|..|R-- .... ....|--- .... ....|--- .... ....
....|..|D#4 2F.A ....|G-3 2F5F ....|--- .... ....
....|..|R-- .... ....|C-4 2F4F ....|--- .... ....
....|..|D#4 2F.7 ....|C-4 2F47 ....|--- .... ....
....|..|R-- .... ....|--- .... ....|--- .... ....
....|..|G-4 2F.A ....|C-4 2F4F ....|--- .... ....
....|..|R-- .... ....|C-3 2F.F ....|--- .... ....
....|..|G-4 2F.7 ....|G-3 2F57 ....|--- .... ....
....|..|--- .... ....|--- .... ....|--- .... ....
....|..|C-5 2F.F ....|G-3 2F.F ....|--- .... ....
....|..|--- .... ....|--- .... ....|--- .... ....
....|..|C-5 2F.7 ....|C-2 2F.F ....|--- .... ....
....|..|--- .... ....|--- .... ....|--- .... ....
....|..|--- .... ....|C-3 2F.F ....|--- .... ....
....|..|--- .... ....|C-4 2F4A ....|--- .... ....
....|..|--- .... ....|C-3 2F.F ....|--- .... ....
....|..|--- .... ....|G-3 2F3F ....|--- .... ....
....|..|D#5 2F.F ....|G-3 2F3F ....|--- .... ....
....|..|--- .... ....|C-4 2F4F ....|--- .... ....
....|..|R-- .... ....|C-3 2F.F ....|--- .... ....
....|..|--- .... ....|C-3 2F.7 ....|--- .... ....
....|..|R-- .... ....|C-4 2F4F ....|--- .... ....
....|..|--- .... ....|--- .... ....|--- .... ....
....|..|C-5 2F.7 ....|C-4 2F4F ....|--- .... ....
....|..|--- .... ....|C-4 2F.F ....|--- .... ....
....|..|C-5 2F.F ....|C-3 2F.F ....|--- .... ....
....|..|--- .... ....|R-- .... ....|--- .... ....
....|..|--- .... ....|C-3 2F.7 ....|--- .... ....
....|..|--- .... ....|G-3 2F3A ....|--- .... ....
....|..|D#5 2F.A ....|C-3 2F.7 ....|--- .... ....
....|..|--- .... ....|G-3 2F37 ....|--- .... ....
....|..|D#5 2F.7 ....|G-3 2F37 ....|--- .... ....
....|..|D#5 2F.F ....|C-4 2F47 ....|--- .... ....

[Pattern25]
....|..|--- .... ....|F#3 2F9F ....|--- .... ....
....|..|--- .... ....|--- .... ....|--- .... ....
....|..|--- .... ....|C-4 2F47 ....|--- .... ....
....|..|--- .... ....|C-4 2F.A ....|--- .... ....
....|..|C-5 2F.A ....|C-4 2F47 ....|--- .... ....
....|..|--- .... ....|A-3 2F4F ....|--- .... ....
....|..|C-5 2F.7 ....|C-3 2F.7 ....|--- .... ....
....|..|--- .... ....|R-- .... ....|--- .... ....
....|..|--- .... ....|F#3 2F9F ....|--- .... ....
....|..|--- .... ....|F#3 2F.F ....|--- .... ....
....|..|--- .... ....|R-- .... ....|--- .... ....
....|..|D#5 2F.A ....|--- .... ....|--- .... ....
....|..|--- .... ....|F#2 2F.F ....|--- .... ....
....|..|D#5 2F.7 ....|--- .... ....|--- .... ....
....|..|--- .... ....|F#3 2F97 ....|--- .... ....
....|..|--- .... ....|--- .... ....|--- .... ....
....|..|--- .... ....|F#3 2F4F ....|--- .... ....
....|..|--- .... ....|A-3 2F4A ....|--- .... ....
....|..|--- .... ....|--- .... ....|--- .... ....
....|..|--- .... ....|A-3 2F47 ....|--- .... ....
....|..|--- .... ....|F#3 2F9A ....|--- .... ....
....|..|--- .... ....|F#3 2F.A ....|--- .... ....
....|..|--- .... ....|A-3 2F.F ....|--- .... ....
....|..|--- .... ....|F#2 2F.F ....|--- .... ....
....|..|D#5 2F.F ....|F#2 2F.F ....|--- .... ....
....|..|C-5 2F.F ....|F#2 2F.F ....|--- .... ....
....|..|--- .... ....|F#2 2F.7 ....|--- .... ....
....|..|--- .... ....|--- .... ....|--- .... ....
....|..|--- .... ....|F#2 2F.F ....|--- .... ....
....|..|--- .... ....|--- .... ....|--- .... ....
....|..|--- .... ....|F#3 2F47 ....|--- .... ....
....|..|--- .... ....|--- .... ....|--- .... ....
....|..|A-4 2F.F ....|D#3 2F9F ....|--- .... ....
....|..|--- .... ....|--- .... ....|--- .... ....
....|..|--- .... ....|A-3 2F.A ....|--- .... ....
....|..|--- .... ....|F#2 2F.A ....|--- .... ....
....|..|D#5 2F.A ....|A-3 2F.7 ....|--- .... ....
....|..|C-5 2F.A ....|F#2 2F.7 ....|--- .... ....
....|..|D#5 2F.7 ....|D#3 2F4F ....|--- .... ....
....|..|C-5 2F.7 ....|D#3 2F.F ....|--- .... ....
....|..|--- .... ....|D#3 2F.F ....|--- .... ....
....|..|--- .... ....|A-3 2F4F ....|--- .... ....
....|..|--- .... ....|F#2 2F.7 ....|--- .... ....
....|..|--- .... ....|--- .... ....|--- .... ....
....|..|A-4 2F.A ....|F#3 2F4F ....|--- .... ....
....|..|--- .... ....|--- .... ....|--- .... ....
....|..|A-4 2F.7 ....|D#3 2F97 ....|--- .... ....
....|..|--- .... ....|--- .... ....|--- .... ....
....|..|--- .... ....|D#3 2F9F ....|--- .... ....
....|..|--- .... ....|--- .... ....|--- .... ....
....|..|--- .... ....|D#3 2F4F ....|--- .... ....
....|..|--- .... ....|D#3 2F.A ....|--- .... ....
....|..|--- .... ....|F#2 2F.F ....|--- .... ....
....|..|--- .... ....|D#3 2F.7 ....|--- .... ....
....|..|--- .... ....|D#3 2F.7 ....|--- .... ....
....|..|A-4 2F.F ....|F#2 2F.F ....|--- .... ....
....|..|F#4 2F.F ....|D#3 2F4F ....|--- .... ....
....|..|--- .... ....|D#3 2F.F ....|--- .... ....
....|..|--- .... ....|F#3 2F47 ....|--- .... ....
....|..|--- .... ....|--- .... ....|--- .... ....
....|..|--- .... ....|F#2 2F.F ....|--- .... ....
....|..|R-- .... ....|--- .... ....|--- .... ....
....|..|--- .... ....|D#3 2F97 ....|--- .... ....
....|..|G-3 2F.F ....|--- .... ....|--- .... ....
....|..|--- .... ....|D-3 2F5F ....|--- .... ....
....|..|A#3 2F.F ....|--- .... ....|--- .... ....
....|..|A#3 2F.F ....|D-3 2F3F ....|--- .... ....
....|..|R-- .... ....|D-3 2F5F ....|--- .... ....
....|..|D-4 2F.F ....|G-2 2F.F ....|--- .... ....
....|..|G-4 2F.F ....|A#3 2F.F ....|--- .... ....
....|..|G-4 2F.F ....|G-2 2F.F ....|--- .... ....
....|..|--- .... ....|D-3 2F3F ....|--- .... ....
....|..|A#4 2F.F ....|G-3 2F4F ....|--- .... ....
....|..|R-- .... ....|G-2 2F.F ....|--- .... ....
....|..|--- .... ....|G-2 2F.F ....|--- .... ....
....|..|R-- .... ....|--- .... ....|--- .... ....
....|..|G-4 2F.F ....|R-- .... ....|--- .... ....
....|..|G-3 2F.7 ....|--- .... ....|--- .... ....
....|..|A#3 2F.A ....|G-2 2F.F ....|--- .... ....
....|..|G-4 2F.F ....|D-4 2F3F ....|--- .... ....
....|..|D-4 2F.F ....|D-4 2F3F ....|--- .... ....
....|..|R-- .... ....|D-3 2F57 ....|--- .... ....
....|..|D-4 2F.7 ....|G-2 2F.F ....|--- .... ....
....|..|A#3 2F.F ....|A#3 2F.7 ....|--- .... ....
....|..|G-4 2F.7 ....|G-4 2F4F ....|--- .... ....
....|..|--- .... ....|D-3 2F37 ....|--- .... ....
....|..|A#4 2F.7 ....|G-3 2F47 ....|--- .... ....
....|..|G-3 2F.F ....|G-2 2F.F ....|--- .... ....
....|..|G-4 2F.A ....|G-2 2F.F ....|--- .... ....
....|..|--- .... ....|G-2 2F.F ....|--- .... ....
....|..|G-4 2F.7 ....|G-2 2F.A ....|--- .... ....
....|..|A#3 2F.F ....|D-4 2F3A ....|--- .... ....
....|..|D-4 2F.A ....|G-2 2F.F ....|--- .... ....
....|..|G-4 2F.7 ....|D-4 2F37 ....|--- .... ....
....|..|D-4 2F.7 ....|D-4 2F37 ....|--- .... ....
....|..|A#3 2F.A ....|--- .... ....|--- .... ....
....|..|--- .... ....|G-3 2F4F ....|--- .... ....
....|..|A#3 2F.7 ....|--- .... ....|--- .... ....
....|..|--- .... ....|G-4 2F47 ....|--- .... ....
....|..|G-3 2F.A ....|G-2 2F.A ....|--- .... ....
....|..|--- .... ....|D-3 2F5F ....|--- .... ....
....|..|G-3 2F.7 ....|G-2 2F.7 ....|--- .... ....
....|..|--- .... ....|D-3 2F5F ....|--- .... ....
....|..|D-4 2F.F ....|G-2 2F.7 ....|--- .... ....
....|..|--- .... ....|G-3 2F4F ....|--- .... ....
....|..|A#3 2F.7 ....|G-2 2F.F ....|--- .... ....
....|..|--- .... ....|G-2 2F.7 ....|--- .... ....
....|..|--- .... ....|--- .... ....|--- .... ....
....|..|--- .... ....|D-3 2F.F ....|--- .... ....
....|..|--- .... ....|--- .... ....|--- .... ....
....|..|--- .... ....|G-3 2F47 ....|--- .... ....
....|..|G-4 2F.F ....|--- .... ....|--- .... ....
....|..|G-4 2F.F ....|D-3 2F3F ....|--- .... ....
....|..|--- .... ....|G-3 2F4F ....|--- .... ....
....|..|--- .... ....|G-2 2F.F ....|--- .... ....
....|..|D-4 2F.A ....|--- .... ....|--- .... ....
....|..|--- .... ....|G-3 2F4F ....|--- .... ....
....|..|D-4 2F.7 ....|G-2 2F.A ....|--- .... ....
....|..|--- .... ....|G-2 2F.F ....|--- .... ....
....|..|G-3 2F.F ....|G-2 2F.F ....|--- .... ....
....|..|--- .... ....|D-3 2F3F ....|--- .... ....
....|..|--- .... ....|--- .... ....|--- .... ....
....|..|--- .... ....|D-3 2F.F ....|--- .... ....
....|..|G-4 2F.A ....|R-- .... ....|--- .... ....
....|..|G-4 2F.A ....|G-2 2F.F ....|--- .... ....
....|..|G-4 2F.7 ....|R-- .... ....|--- .... ....
....|..|G-4 2F.7 ....|D-3 2F37 ....|--- .... ....
....|..|G#3 2F.F ....|G-3 2F47 ....|--- .... ....

[Pattern26]
....|..|--- .... ....|G#3 2F.F ....|--- .... ....
....|..|--- .... ....|--- .... ....|--- .... ....
....|..|--- .... ....|G#2 2F.F ....|--- .... ....
....|..|G-3 2F.A ....|G-2 2F.A ....|--- .... ....
....|..|--- .... ....|G-2 2F.7 ....|--- .... ....
....|..|G-3 2F.7 ....|G-2 2F.7 ....|--- .... ....
....|..|--- .... ....|D-3 2F37 ....|--- .... ....
....|..|--- .... ....|R-- .... ....|--- .... ....
....|..|--- .... ....|D-3 2F.7 ....|--- .... ....
....|..|--- .... ....|G#3 2F.F ....|--- .... ....
....|..|--- .... ....|G#1 2F.F ....|--- .... ....
....|..|G#3 2F.A ....|R-- .... ....|--- .... ....
....|..|--- .... ....|G#2 2F.F ....|--- .... ....
....|..|G#3 2F.7 ....|--- .... ....|--- .... ....
....|..|--- .... ....|G#2 2F.F ....|--- .... ....
....|..|--- .... ....|--- .... ....|--- .... ....
....|..|--- .... ....|G#3 2F.F ....|--- .... ....
....|..|--- .... ....|--- .... ....|--- .... ....
....|..|--- .... ....|--- .... ....|--- .... ....
....|..|--- .... ....|--- .... ....|--- .... ....
....|..|--- .... ....|G#2 2F.F ....|--- .... ....
....|..|--- .... ....|G#3 2F.A ....|--- .... ....
....|..|--- .... ....|G#3 2F.F ....|--- .... ....
....|..|--- .... ....|G#3 2F.7 ....|--- .... ....
....|..|--- .... ....|G#1 2F.7 ....|--- .... ....
....|..|--- .... ....|R-- .... ....|--- .... ....
....|..|--- .... ....|G#2 2F.7 ....|--- .... ....
....|..|D-4 2F.F ....|--- .... ....|--- .... ....
....|..|--- .... ....|D-3 2F.F ....|--- .... ....
....|..|--- .... ....|--- .... ....|--- .... ....
....|..|--- .... ....|G#3 2F.F ....|--- .... ....
....|..|--- .... ....|D-4 2F.F ....|--- .... ....
....|..|--- .... ....|G#2 2F.F ....|--- .... ....
....|..|--- .... ....|--- .... ....|--- .... ....
....|..|--- .... ....|G#2 2F.7 ....|--- .... ....
....|..|--- .... ....|--- .... ....|--- .... ....
....|..|--- .... ....|G#3 2F.7 ....|--- .... ....
....|..|--- .... ....|--- .... ....|--- .... ....
....|..|--- .... ....|--- .... ....|--- .... ....
....|..|D-4 2F.A ....|--- .... ....|--- .... ....
....|..|--- .... ....|D-3 2F.A ....|--- .... ....
....|..|D-4 2F.7 ....|--- .... ....|--- .... ....
....|..|--- .... ....|G#2 2F.F ....|--- .... ....
....|..|--- .... ....|D-4 2F.A ....|--- .... ....
....|..|--- .... ....|G#3 2F.7 ....|--- .... ....
....|..|--- .... ....|D-4 2F.7 ....|--- .... ....
....|..|--- .... ....|G#2 2F.7 ....|--- .... ....
....|..|--- .... ....|--- .... ....|--- .... ....
....|..|--- .... ....|--- .... ....|--- .... ....
....|..|--- .... ....|--- .... ....|--- .... ....
....|..|--- .... ....|--- .... ....|--- .... ....
....|..|--- .... ....|--- .... ....|--- .... ....
....|..|--- .... ....|R-- .... ....|--- .... ....
....|..|--- .... ....|--- .... ....|--- .... ....
....|..|--- .... ....|G#2 2F.A ....|--- .... ....
....|..|--- .... ....|--- .... ....|--- .... ....
....|..|--- .... ....|G#2 2F.7 ....|--- .... ....
....|..|--- .... ....|--- .... ....|--- .... ....
....|..|--- .... ....|--- .... ....|--- .... ....
....|..|--- .... ....|--- .... ....|--- .... ....
....|..|R-- .... ....|--- .... ....|--- .... ....
....|..|--- .... ....|--- .... ....|--- .... ....
....|..|--- .... ....|--- .... ....|--- .... ....
....|..|E-4 2F.F ....|--- .... ....|--- .... ....
....|..|--- .... ....|A-3 2F3F ....|--- .... ....
....|..|--- .... ....|--- .... ....|--- .... ....
....|..|--- .... ....|R-- .... ....|--- .... ....
....|..|--- .... ....|--- .... ....|--- .... ....
....|..|--- .... ....|--- .... ....|--- .... ....
....|..|--- .... ....|--- .... ....|--- .... ....
....|..|--- .... ....|--- .... ....|--- .... ....
....|..|--- .... ....|--- .... ....|--- .... ....
....|..|R-- .... ....|--- .... ....|--- .... ....
....|..|--- .... ....|--- .... ....|--- .... ....
....|..|R-- .... ....|--- .... ....|--- .... ....
....|..|E-4 2F.A ....|--- .... ....|--- .... ....
....|..|F-4 2F.F ....|A-3 2FAF ....|--- .... ....
....|..|E-4 2F.7 ....|A-3 2F3F ....|--- .... ....
....|..|--- .... ....|A-3 2F37 ....|--- .... ....
....|..|F-4 2F.F ....|--- .... ....|--- .... ....
....|..|E-4 2F.F ....|A-3 2FAF ....|--- .... ....
....|..|--- .... ....|--- .... ....|--- .... ....
....|..|--- .... ....|--- .... ....|--- .... ....
....|..|--- .... ....|A-3 2F.F ....|--- .... ....
....|..|--- .... ....|A-3 2F.F ....|--- .... ....
....|..|--- .... ....|--- .... ....|--- .... ....
....|..|--- .... ....|--- .... ....|--- .... ....
....|..|D-4 2F.F ....|--- .... ....|--- .... ....
....|..|F-4 2F.A ....|A-3 2F3F ....|--- .... ....
....|..|--- .... ....|A-2 2F.F ....|--- .... ....
....|..|F-4 2F.7 ....|A-2 2F.F ....|--- .... ....
....|..|F-4 2F.A ....|A-3 2F37 ....|--- .... ....
....|..|E-4 2F.A ....|R-- .... ....|--- .... ....
....|..|F-4 2F.7 ....|--- .... ....|--- .... ....
....|..|E-4 2F.7 ....|A-3 2FA7 ....|--- .... ....
....|..|--- .... ....|A-3 2F.A ....|--- .... ....
....|..|D-4 2F.F ....|E-3 2FBF ....|--- .... ....
....|..|--- .... ....|A-3 2F.7 ....|--- .... ....
....|..|--- .... ....|E-3 2F3F ....|--- .... ....
....|..|D-4 2F.A ....|--- .... ....|--- .... ....
....|..|C#4 2F.F ....|E-3 2F3F ....|--- .... ....
....|..|D-4 2F.7 ....|A-2 2F.A ....|--- .... ....
....|..|--- .... ....|A-3 2F37 ....|--- .... ....
....|..|D-4 2F.F ....|A-2 2F.7 ....|--- .... ....
....|..|--- .... ....|A-2 2F.7 ....|--- .... ....
....|..|--- .... ....|--- .... ....|--- .... ....
....|..|C#4 2F.F ....|R-- .... ....|--- .... ....
....|..|--- .... ....|--- .... ....|--- .... ....
....|..|R-- .... ....|E-3 2FCF ....|--- .... ....
....|..|D-4 2F.F ....|--- .... ....|--- .... ....
....|..|D-4 2F.7 ....|E-3 2FCF ....|--- .... ....
....|..|C#4 2F.F ....|--- .... ....|--- .... ....
....|..|C#4 2F.A ....|C#4 2F.F ....|--- .... ....
....|..|D-4 2F.F ....|R-- .... ....|--- .... ....
....|..|C#4 2F.7 ....|E-3 2F37 ....|--- .... ....
....|..|C#4 2F.F ....|--- .... ....|--- .... ....
....|..|D-4 2F.F ....|--- .... ....|--- .... ....
....|..|D-4 2F.F ....|--- .... ....|--- .... ....
....|..|C#4 2F.F ....|--- .... ....|--- .... ....
....|..|D-4 2F.F ....|--- .... ....|--- .... ....
....|..|C#4 2F.7 ....|E-3 2FCA ....|--- .... ....
....|..|C#4 2F.F ....|--- .... ....|--- .... ....
....|..|D-4 2F.F ....|E-3 2FC7 ....|--- .... ....
....|..|D-4 2F.7 ....|--- .... ....|--- .... ....
....|..|C#4 2F.F ....|E-3 2FC7 ....|--- .... ....
....|..|C#4 2F.7 ....|R-- .... ....|--- .... ....
....|..|--- .... ....|C#4 2F.7 ....|--- .... ....
....|..|D-4 2F.7 ....|R-- .... ....|--- .... ....

[Pattern27]
....|..|D-4 2F.A ....|D#4 2F.F ....|--- .... ....
....|..|C#4 2F.7 ....|--- .... ....|--- .... ....
....|..|D-4 2F.7 ....|--- .... ....|--- .... ....
....|..|D-4 2F.7 ....|--- .... ....|--- .... ....
....|..|C#4 2F.7 ....|D#4 2F.F ....|--- .... ....
....|..|D-4 2F.7 ....|--- .... ....|--- .... ....
....|..|R-- .... ....|--- .... ....|--- .... ....
....|..|C#4 2F.7 ....|--- .... ....|--- .... ....
....|..|D-4 2F.7 ....|G-3 2F.F ....|--- .... ....
....|..|R-- .... ....|--- .... ....|--- .... ....
....|..|C#4 2F.7 ....|--- .... ....|--- .... ....
....|..|R-- .... ....|--- .... ....|--- .... ....
....|..|--- .... ....|C-4 2F4F ....|--- .... ....
....|..|--- .... ....|--- .... ....|--- .... ....
....|..|--- .... ....|D#4 2F.7 ....|--- .... ....
....|..|--- .... ....|--- .... ....|--- .... ....
....|..|--- .... ....|G-3 2F5F ....|--- .... ....
....|..|--- .... ....|--- .... ....|--- .... ....
....|..|--- .... ....|D#4 2F.7 ....|--- .... ....
....|..|--- .... ....|G-3 2F3F ....|--- .... ....
....|..|--- .... ....|G-3 2FDF ....|--- .... ....
....|..|--- .... ....|C-4 2F1F ....|--- .... ....
....|..|--- .... ....|G-3 2F.7 ....|--- .... ....
....|..|--- .... ....|--- .... ....|--- .... ....
....|..|--- .... ....|G-3 2F.F ....|--- .... ....
....|..|--- .... ....|--- .... ....|--- .... ....
....|..|--- .... ....|C-4 2F47 ....|--- .... ....
....|..|--- .... ....|--- .... ....|--- .... ....
....|..|--- .... ....|G-3 2FDF ....|--- .... ....
....|..|--- .... ....|--- .... ....|--- .... ....
....|..|--- .... ....|G-3 2F57 ....|--- .... ....
....|..|--- .... ....|G-3 2F3A ....|--- .... ....
....|..|--- .... ....|G-3 2FDA ....|--- .... ....
....|..|--- .... ....|G-3 2F37 ....|--- .... ....
....|..|--- .... ....|G-3 2FD7 ....|--- .... ....
....|..|--- .... ....|C-4 2F17 ....|--- .... ....
....|..|--- .... ....|G-3 2FAF ....|--- .... ....
....|..|--- .... ....|--- .... ....|--- .... ....
....|..|--- .... ....|G-3 2F.7 ....|--- .... ....
....|..|--- .... ....|C-4 2F8F ....|--- .... ....
....|..|--- .... ....|G-3 2FDA ....|--- .... ....
....|..|--- .... ....|--- .... ....|--- .... ....
....|..|--- .... ....|C-4 2F8F ....|--- .... ....
....|..|--- .... ....|--- .... ....|--- .... ....
....|..|--- .... ....|C-3 2F.F ....|--- .... ....
....|..|--- .... ....|--- .... ....|--- .... ....
....|..|--- .... ....|--- .... ....|--- .... ....
....|..|--- .... ....|--- .... ....|--- .... ....
....|..|--- .... ....|G-3 2FAA ....|--- .... ....
....|..|--- .... ....|R-- .... ....|--- .... ....
....|..|--- .... ....|G-3 2FA7 ....|--- .... ....
....|..|--- .... ....|C-4 2F8A ....|--- .... ....
....|..|G-4 2F.F ....|--- .... ....|--- .... ....
....|..|--- .... ....|C-4 2F87 ....|--- .... ....
....|..|--- .... ....|C-4 2F8A ....|--- .... ....
....|..|A#4 2F.F ....|--- .... ....|--- .... ....
....|..|--- .... ....|C-4 2F87 ....|--- .... ....
....|..|--- .... ....|--- .... ....|--- .... ....
....|..|G-4 2F.F ....|C-3 2F.7 ....|--- .... ....
....|..|D-5 2F.F ....|--- .... ....|--- .... ....
....|..|--- .... ....|--- .... ....|--- .... ....
....|..|--- .... ....|R-- .... ....|--- .... ....
....|..|G-4 2F.F ....|--- .... ....|--- .... ....
....|..|--- .... ....|R-- .... ....|--- .... ....
....|..|A-4 2F.F ....|--- .... ....|--- .... ....
....|..|A#4 2F.F ....|--- .... ....|--- .... ....
....|..|A-4 2F.F ....|--- .... ....|--- .... ....
....|..|A#4 2F.A ....|--- .... ....|--- .... ....
....|..|--- .... ....|--- .... ....|--- .... ....
....|..|A#4 2F.7 ....|--- .... ....|--- .... ....
....|..|G-4 2F.A ....|--- .... ....|--- .... ....
....|..|D-5 2F.A ....|--- .... ....|--- .... ....
....|..|G-4 2F.F ....|--- .... ....|--- .... ....
....|..|D-5 2F.7 ....|--- .... ....|--- .... ....
....|..|G-4 2F.A ....|--- .... ....|--- .... ....
....|..|R-- .... ....|--- .... ....|--- .... ....
....|..|G-4 2F.7 ....|--- .... ....|--- .... ....
....|..|A#4 2F.A ....|--- .... ....|--- .... ....
....|..|A-4 2F.7 ....|--- .... ....|--- .... ....
....|..|A#4 2F.7 ....|--- .... ....|--- .... ....
....|..|A-4 2F.7 ....|--- .... ....|--- .... ....
....|..|--- .... ....|--- .... ....|--- .... ....
....|..|--- .... ....|--- .... ....|--- .... ....
....|..|--- .... ....|--- .... ....|--- .... ....
....|..|G-4 2F.A ....|--- .... ....|--- .... ....
....|..|--- .... ....|--- .... ....|--- .... ....
....|..|G-4 2F.7 ....|--- .... ....|--- .... ....
....|..|R-- .... ....|--- .... ....|--- .... ....
....|..|--- .... ....|--- .... ....|--- .... ....
....|..|R-- .... ....|--- .... ....|--- .... ....
....|..|--- .... ....|--- .... ....|--- .... ....
....|..|--- .... ....|--- .... ....|--- .... ....
....|..|--- .... ....|--- .... ....|--- .... ....
....|..|--- .... ....|--- .... ....|--- .... ....
....|..|--- .... ....|--- .... ....|--- .... ....
....|..|--- .... ....|--- .... ....|--- .... ....
....|..|--- .... ....|--- .... ....|--- .... ....
....|..|--- .... ....|--- .... ....|--- .... ....
....|..|--- .... ....|--- .... ....|--- .... ....
....|..|--- .... ....|--- .... ....|--- .... ....
....|..|--- .... ....|--- .... ....|--- .... ....
....|..|--- .... ....|--- .... ....|--- .... ....
....|..|--- .... ....|--- .... ....|--- .... ....
....|..|--- .... ....|--- .... ....|--- .... ....
....|..|--- .... ....|--- .... ....|--- .... ....
....|..|--- .... ....|--- .... ....|--- .... ....
....|..|--- .... ....|--- .... ....|--- .... ....
....|..|--- .... ....|--- .... ....|--- .... ....
....|..|--- .... ....|--- .... ....|--- .... ....
....|..|--- .... ....|--- .... ....|--- .... ....
....|..|--- .... ....|--- .... ....|--- .... ....
....|..|--- .... ....|--- .... ....|--- .... ....
....|..|--- .... ....|--- .... ....|--- .... ....
....|..|--- .... ....|--- .... ....|--- .... ....
....|..|--- .... ....|--- .... ....|--- .... ....
....|..|--- .... ....|--- .... ....|--- .... ....
....|..|--- .... ....|--- .... ....|--- .... ....
....|..|--- .... ....|--- .... ....|--- .... ....
....|..|--- .... ....|--- .... ....|--- .... ....
....|..|--- .... ....|--- .... ....|--- .... ....
....|..|--- .... ....|--- .... ....|--- .... ....
....|..|--- .... ....|--- .... ....|--- .... ....
....|..|--- .... ....|--- .... ....|--- .... ....
....|..|--- .... ....|--- .... ....|--- .... ....
....|..|--- .... ....|--- .... ....|--- .... ....
....|..|--- .... ....|--- .... ....|--- .... ....
....|..|--- .... ....|--- .... ....|--- .... ....
....|..|--- .... ....|--- .... ....|--- .... ....

[Pattern28]
....|..|--- .... ....|--- .... ....|--- .... ....
....|..|--- .... ....|--- .... ....|--- .... ....
....|..|--- .... ....|--- .... ....|--- .... ....
....|..|--- .... ....|--- .... ....|--- .... ....
....|..|--- .... ....|--- .... ....|--- .... ....
....|..|--- .... ....|--- .... ....|--- .... ....
....|..|--- .... ....|--- .... ....|--- .... ....
....|..|--- .... ....|--- .... ....|--- .... ....
....|..|--- .... ....|--- .... ....|--- .... ....
....|..|--- .... ....|--- .... ....|--- .... ....
....|..|--- .... ....|--- .... ....|--- .... ....
....|..|--- .... ....|--- .... ....|--- .... ....
....|..|--- .... ....|--- .... ....|--- .... ....
....|..|--- .... ....|--- .... ....|--- .... ....
....|..|--- .... ....|--- .... ....|--- .... ....
....|..|--- .... ....|--- .... ....|--- .... ....
....|..|--- .... ....|--- .... ....|--- .... ....
....|..|--- .... ....|--- .... ....|--- .... ....
....|..|--- .... ....|--- .... ....|--- .... ....
....|..|--- .... ....|--- .... ....|--- .... ....
....|..|--- .... ....|--- .... ....|--- .... ....
....|..|--- .... ....|--- .... ....|--- .... ....
....|..|--- .... ....|--- .... ....|--- .... ....
....|..|--- .... ....|--- .... ....|--- .... ....
....|..|--- .... ....|--- .... ....|--- .... ....
....|..|--- .... ....|--- .... ....|--- .... ....
....|..|--- .... ....|--- .... ....|--- .... ....
....|..|--- .... ....|--- .... ....|--- .... ....
....|..|--- .... ....|--- .... ....|--- .... ....
....|..|--- .... ....|--- .... ....|--- .... ....
....|..|--- .... ....|--- .... ....|--- .... ....
....|..|--- .... ....|--- .... ....|--- .... ....
....|..|--- .... ....|--- .... ....|--- .... ....
....|..|--- .... ....|--- .... ....|--- .... ....
....|..|--- .... ....|--- .... ....|--- .... ....
....|..|--- .... ....|--- .... ....|--- .... ....
....|..|--- .... ....|--- .... ....|--- .... ....
....|..|--- .... ....|--- .... ....|--- .... ....
....|..|--- .... ....|--- .... ....|--- .... ....
....|..|--- .... ....|--- .... ....|--- .... ....
....|..|--- .... ....|--- .... ....|--- .... ....
....|..|--- .... ....|--- .... ....|--- .... ....
....|..|--- .... ....|--- .... ....|--- .... ....
....|..|--- .... ....|--- .... ....|--- .... ....
....|..|--- .... ....|--- .... ....|--- .... ....
....|..|--- .... ....|--- .... ....|--- .... ....
....|..|--- .... ....|--- .... ....|--- .... ....
....|..|--- .... ....|--- .... ....|--- .... ....
....|..|--- .... ....|--- .... ....|--- .... ....
....|..|--- .... ....|--- .... ....|--- .... ....
....|..|--- .... ....|--- .... ....|--- .... ....
....|..|--- .... ....|--- .... ....|--- .... ....
....|..|--- .... ....|--- .... ....|--- .... ....
....|..|--- .... ....|--- .... ....|--- .... ....
....|..|--- .... ....|--- .... ....|--- .... ....
....|..|--- .... ....|--- .... ....|--- .... ....
....|..|--- .... ....|--- .... ....|--- .... ....
....|..|--- .... ....|--- .... ....|--- .... ....
....|..|--- .... ....|--- .... ....|--- .... ....
....|..|--- .... ....|--- .... ....|--- .... ....
....|..|--- .... ....|--- .... ....|--- .... ....
....|..|--- .... ....|--- .... ....|--- .... ....
....|..|--- .... ....|--- .... ....|--- .... ....
....|..|--- .... ....|--- .... ....|--- .... ....
....|..|--- .... ....|--- .... ....|--- .... ....
....|..|--- .... ....|--- .... ....|--- .... ....
....|..|--- .... ....|--- .... ....|--- .... ....
....|..|--- .... ....|--- .... ....|--- .... ....
....|..|--- .... ....|--- .... ....|--- .... ....
....|..|--- .... ....|--- .... ....|--- .... ....
....|..|--- .... ....|--- .... ....|--- .... ....
....|..|--- .... ....|--- .... ....|--- .... ....
....|..|--- .... ....|--- .... ....|--- .... ....
....|..|--- .... ....|--- .... ....|--- .... ....
....|..|--- .... ....|--- .... ....|--- .... ....
....|..|--- .... ....|--- .... ....|--- .... ....
....|..|--- .... ....|--- .... ....|--- .... ....
....|..|--- .... ....|--- .... ....|--- .... ....
....|..|--- .... ....|--- .... ....|--- .... ....
....|..|--- .... ....|--- .... ....|--- .... ....
....|..|--- .... ....|--- .... ....|--- .... ....
....|..|--- .... ....|--- .... ....|--- .... ....
....|..|--- .... ....|--- .... ....|--- .... ....
....|..|--- .... ....|--- .... ....|--- .... ....
....|..|--- .... ....|--- .... ....|--- .... ....
....|..|--- .... ....|--- .... ....|--- .... ....
....|..|--- .... ....|--- .... ....|--- .... ....
....|..|--- .... ....|--- .... ....|--- .... ....
....|..|--- .... ....|--- .... ....|--- .... ....
....|..|--- .... ....|--- .... ....|--- .... ....
....|..|--- .... ....|--- .... ....|--- .... ....
....|..|--- .... ....|--- .... ....|--- .... ....
....|..|--- .... ....|--- .... ....|--- .... ....
....|..|--- .... ....|--- .... ....|--- .... ....
....|..|--- .... ....|--- .... ....|--- .... ....
....|..|--- .... ....|--- .... ....|--- .... ....
....|..|--- .... ....|--- .... ....|--- .... ....
....|..|--- .... ....|--- .... ....|--- .... ....
....|..|--- .... ....|--- .... ....|--- .... ....
....|..|--- .... ....|--- .... ....|--- .... ....
....|..|--- .... ....|--- .... ....|--- .... ....
....|..|--- .... ....|--- .... ....|--- .... ....
....|..|--- .... ....|--- .... ....|--- .... ....
....|..|--- .... ....|--- .... ....|--- .... ....
....|..|--- .... ....|--- .... ....|--- .... ....
....|..|--- .... ....|--- .... ....|--- .... ....
....|..|--- .... ....|--- .... ....|--- .... ....
....|..|--- .... ....|--- .... ....|--- .... ....
....|..|--- .... ....|--- .... ....|--- .... ....
....|..|--- .... ....|--- .... ....|--- .... ....
....|..|--- .... ....|--- .... ....|--- .... ....
....|..|--- .... ....|--- .... ....|--- .... ....
....|..|--- .... ....|--- .... ....|--- .... ....
....|..|--- .... ....|--- .... ....|--- .... ....
....|..|--- .... ....|--- .... ....|--- .... ....
....|..|--- .... ....|--- .... ....|--- .... ....
....|..|--- .... ....|--- .... ....|--- .... ....
....|..|--- .... ....|--- .... ....|--- .... ....
....|..|--- .... ....|--- .... ....|--- .... ....
....|..|--- .... ....|--- .... ....|--- .... ....
....|..|--- .... ....|--- .... ....|--- .... ....
....|..|--- .... ....|--- .... ....|--- .... ....
....|..|--- .... ....|--- .... ....|--- .... ....
....|..|--- .... ....|--- .... ....|--- .... ....
....|..|--- .... ....|--- .... ....|--- .... ....
....|..|--- .... ....|--- .... ....|--- .... ....
....|..|--- .... ....|--- .... ....|--- .... ....
....|..|--- .... ....|--- .... ....|--- .... ....

[Pattern29]
....|..|--- .... ....|--- .... ....|--- .... ....
....|..|--- .... ....|--- .... ....|--- .... ....
....|..|--- .... ....|--- .... ....|--- .... ....
....|..|--- .... ....|--- .... ....|--- .... ....
....|..|--- .... ....|--- .... ....|--- .... ....
....|..|--- .... ....|--- .... ....|--- .... ....
....|..|--- .... ....|--- .... ....|--- .... ....
....|..|--- .... ....|--- .... ....|--- .... ....
....|..|--- .... ....|--- .... ....|--- .... ....
....|..|--- .... ....|--- .... ....|--- .... ....
....|..|--- .... ....|--- .... ....|--- .... ....
....|..|--- .... ....|--- .... ....|--- .... ....
....|..|--- .... ....|--- .... ....|--- .... ....
....|..|--- .... ....|--- .... ....|--- .... ....
....|..|--- .... ....|--- .... ....|--- .... ....
....|..|--- .... ....|--- .... ....|--- .... ....
....|..|--- .... ....|--- .... ....|--- .... ....
....|..|--- .... ....|--- .... ....|--- .... ....
....|..|--- .... ....|--- .... ....|--- .... ....
....|..|--- .... ....|--- .... ....|--- .... ....
....|..|--- .... ....|--- .... ....|--- .... ....
....|..|--- .... ....|--- .... ....|--- .... ....
....|..|--- .... ....|--- .... ....|--- .... ....
....|..|--- .... ....|--- .... ....|--- .... ....
....|..|--- .... ....|--- .... ....|--- .... ....
....|..|--- .... ....|--- .... ....|--- .... ....
....|..|--- .... ....|--- .... ....|--- .... ....
....|..|--- .... ....|--- .... ....|--- .... ....
....|..|--- .... ....|--- .... ....|--- .... ....
....|..|--- .... ....|--- .... ....|--- .... ....
....|..|--- .... ....|--- .... ....|--- .... ....
....|..|--- .... ....|--- .... ....|--- .... ....
....|..|--- .... ....|--- .... ....|--- .... ....
....|..|--- .... ....|--- .... ....|--- .... ....
....|..|--- .... ....|--- .... ....|--- .... ....
....|..|--- .... ....|--- .... ....|--- .... ....
....|..|--- .... ....|--- .... ....|--- .... ....
....|..|--- .... ....|--- .... ....|--- .... ....
....|..|--- .... ....|--- .... ....|--- .... ....
....|..|--- .... ....|--- .... ....|--- .... ....
....|..|--- .... ....|--- .... ....|--- .... ....
....|..|--- .... ....|--- .... ....|--- .... ....
....|..|--- .... ....|--- .... ....|--- .... ....
....|..|--- .... ....|--- .... ....|--- .... ....
....|..|--- .... ....|--- .... ....|--- .... ....
....|..|--- .... ....|--- .... ....|--- .... ....
....|..|--- .... ....|--- .... ....|--- .... ....
....|..|--- .... ....|--- .... ....|--- .... ....
....|..|--- .... ....|--- .... ....|--- .... ....
....|..|--- .... ....|--- .... ....|--- .... ....
....|..|--- .... ....|--- .... ....|--- .... ....
....|..|--- .... ....|--- .... ....|--- .... ....
....|..|--- .... ....|--- .... ....|--- .... ....
....|..|--- .... ....|--- .... ....|--- .... ....
....|..|--- .... ....|--- .... ....|--- .... ....
....|..|--- .... ....|--- .... ....|--- .... ....
....|..|--- .... ....|--- .... ....|--- .... ....
....|..|--- .... ....|--- .... ....|--- .... ....
....|..|--- .... ....|--- .... ....|--- .... ....
....|..|--- .... ....|--- .... ....|--- .... ....
....|..|--- .... ....|--- .... ....|--- .... ....
....|..|--- .... ....|--- .... ....|--- .... ....
....|..|--- .... ....|--- .... ....|--- .... ....
....|..|--- .... ....|--- .... ....|--- .... ....
 G-4|..|--- .... ....|G-2 2A.F ....|--- .... ....
....|..|--- .... ....|R-- .... ....|--- .... ....
 G-4|..|--- .... ....|G-2 2A.F ....|--- .... ....
....|..|--- .... ....|R-- .... ....|--- .... ....
 G-4|..|--- .... ....|G-2 2A.F ....|--- .... ....
....|..|--- .... ....|R-- .... ....|--- .... ....
 G-4|..|--- .... ....|G-2 2A.F ....|--- .... ....
....|..|--- .... ....|R-- .... ....|--- .... ....
 G-4|..|--- .... ....|G-2 2A.F ....|--- .... ....
....|..|--- .... ....|R-- .... ....|--- .... ....
 G-4|..|--- .... ....|G-3 2C.F ....|--- .... ....
....|..|--- .... ....|R-- .... ....|--- .... ....
 G-4|..|--- .... ....|G-2 2A.F ....|--- .... ....
....|..|--- .... ....|R-- .... ....|--- .... ....
 G-4|..|--- .... ....|G-2 2A.F ....|--- .... ....
....|..|--- .... ....|R-- .... ....|--- .... ....
 G-4|..|--- .... ....|G-2 2A.F ....|--- .... ....
....|..|--- .... ....|R-- .... ....|--- .... ....
 G-4|..|--- .... ....|G-2 2A.F ....|--- .... ....
....|..|--- .... ....|R-- .... ....|--- .... ....
 G-4|..|--- .... ....|G-2 2A.F ....|--- .... ....
....|..|--- .... ....|R-- .... ....|--- .... ....
 G-4|..|--- .... ....|G-2 2A.F ....|--- .... ....
....|..|--- .... ....|R-- .... ....|--- .... ....
 G-4|..|--- .... ....|G-2 2A.F ....|--- .... ....
....|..|--- .... ....|R-- .... ....|--- .... ....
 G-4|..|--- .... ....|G-3 2C.F ....|--- .... ....
....|..|--- .... ....|R-- .... ....|--- .... ....
 G-4|..|--- .... ....|G-2 2A.F ....|--- .... ....
....|..|--- .... ....|R-- .... ....|--- .... ....
 G-4|..|--- .... ....|G-2 2A.F ....|--- .... ....
....|..|--- .... ....|R-- .... ....|--- .... ....
 G-4|..|--- .... ....|G-2 2A.F ....|--- .... ....
....|..|--- .... ....|R-- .... ....|--- .... ....
 G-4|..|--- .... ....|G-2 2A.F ....|--- .... ....
....|..|--- .... ....|R-- .... ....|--- .... ....
 G-4|..|--- .... ....|G-2 2A.F ....|--- .... ....
....|..|--- .... ....|R-- .... ....|--- .... ....
 G-4|..|--- .... ....|G-2 2A.F ....|--- .... ....
....|..|--- .... ....|R-- .... ....|--- .... ....
 G-4|..|--- .... ....|G-2 2A.F ....|--- .... ....
....|..|--- .... ....|R-- .... ....|--- .... ....
 G-4|..|--- .... ....|G-3 2C.F ....|--- .... ....
....|..|--- .... ....|R-- .... ....|--- .... ....
 G-4|..|--- .... ....|G-2 2A.F ....|--- .... ....
....|..|--- .... ....|R-- .... ....|--- .... ....
 G-4|..|--- .... ....|G-2 2A.F ....|--- .... ....
....|..|--- .... ....|R-- .... ....|--- .... ....
 G-4|..|--- .... ....|G-2 2A.F ....|--- .... ....
....|..|--- .... ....|R-- .... ....|--- .... ....
 G-4|..|--- .... ....|G-2 2A.F ....|--- .... ....
....|..|--- .... ....|R-- .... ....|--- .... ....
 G-4|..|--- .... ....|G-2 2A.F ....|--- .... ....
....|..|--- .... ....|R-- .... ....|--- .... ....
 G-4|..|--- .... ....|G-2 2A.F ....|--- .... ....
....|..|--- .... ....|R-- .... ....|--- .... ....
 G-4|..|--- .... ....|G-2 2A.F ....|--- .... ....
....|..|--- .... ....|R-- .... ....|--- .... ....
 G-4|..|--- .... ....|G-3 2C.F ....|--- .... ....
....|..|--- .... ....|R-- .... ....|--- .... ....
 G-4|..|--- .... ....|G-2 2A.F ....|--- .... ....
....|..|--- .... ....|R-- .... ....|--- .... ....
 G-4|..|--- .... ....|G-2 2A.F ....|--- .... ....
....|..|--- .... ....|R-- .... ....|--- .... ....

[Pattern30]
 G-4|..|--- .... ....|G-2 2A.F ....|--- .... ....
....|..|--- .... ....|R-- .... ....|--- .... ....
 G-4|..|--- .... ....|G-2 2A.F ....|--- .... ....
....|..|--- .... ....|R-- .... ....|--- .... ....
 G-4|..|--- .... ....|G-2 2A.F ....|--- .... ....
....|..|--- .... ....|R-- .... ....|--- .... ....
 G-4|..|--- .... ....|G-2 2A.F ....|--- .... ....
....|..|--- .... ....|R-- .... ....|--- .... ....
 G-4|..|--- .... ....|G-2 2A.F ....|--- .... ....
....|..|--- .... ....|R-- .... ....|--- .... ....
 G-4|..|--- .... ....|G-3 2C.F ....|--- .... ....
....|..|--- .... ....|R-- .... ....|--- .... ....
 G-4|..|--- .... ....|G-2 2A.F ....|--- .... ....
....|..|--- .... ....|R-- .... ....|--- .... ....
 G-4|..|--- .... ....|G-2 2A.F ....|--- .... ....
....|..|--- .... ....|R-- .... ....|--- .... ....
 G-4|..|--- .... ....|G-2 2A.F ....|--- .... ....
....|..|--- .... ....|R-- .... ....|--- .... ....
 G-4|..|--- .... ....|G-2 2A.F ....|--- .... ....
....|..|--- .... ....|R-- .... ....|--- .... ....
 G-4|..|--- .... ....|G-2 2A.F ....|--- .... ....
....|..|--- .... ....|R-- .... ....|--- .... ....
 G-4|..|--- .... ....|G-2 2A.F ....|--- .... ....
....|..|--- .... ....|R-- .... ....|--- .... ....
 G-4|..|--- .... ....|G-2 2A.F ....|--- .... ....
....|..|--- .... ....|R-- .... ....|--- .... ....
 G-4|..|--- .... ....|G-3 2C.F ....|--- .... ....
....|..|--- .... ....|R-- .... ....|--- .... ....
 G-4|..|--- .... ....|G-2 2A.F ....|--- .... ....
....|..|--- .... ....|R-- .... ....|--- .... ....
 G-4|..|--- .... ....|G-2 2A.F ....|--- .... ....
....|..|--- .... ....|R-- .... ....|--- .... ....
 G-4|..|--- .... ....|G-2 2A.F ....|--- .... ....
....|..|--- .... ....|R-- .... ....|--- .... ....
 G-4|..|--- .... ....|G-2 2A.F ....|--- .... ....
....|..|--- .... ....|R-- .... ....|--- .... ....
 G-4|..|--- .... ....|G-2 2A.F ....|--- .... ....
....|..|--- .... ....|R-- .... ....|--- .... ....
 G-4|..|--- .... ....|G-2 2A.F ....|--- .... ....
....|..|--- .... ....|R-- .... ....|--- .... ....
 G-4|..|--- .... ....|G-2 2A.F ....|--- .... ....
....|..|--- .... ....|R-- .... ....|--- .... ....
 G-4|..|--- .... ....|G-3 2C.F ....|--- .... ....
....|..|--- .... ....|R-- .... ....|--- .... ....
 G-4|..|--- .... ....|G-2 2A.F ....|--- .... ....
....|..|--- .... ....|R-- .... ....|--- .... ....
 G-4|..|--- .... ....|G-2 2A.F ....|--- .... ....
....|..|--- .... ....|R-- .... ....|--- .... ....
 G-4|..|--- .... ....|G-2 2A.F ....|--- .... ....
....|..|--- .... ....|R-- .... ....|--- .... ....
 G-4|..|--- .... ....|G-2 2A.F ....|--- .... ....
....|..|--- .... ....|R-- .... ....|--- .... ....
 G-4|..|G-4 2F.F ....|G-2 2A.F ....|--- .... ....
....|..|--- .... ....|R-- .... ....|--- .... ....
 G-4|..|--- .... ....|G-2 2A.F ....|--- .... ....
....|..|A#4 2F.F ....|R-- .... ....|--- .... ....
 G-4|..|--- .... ....|G-2 2A.F ....|--- .... ....
....|..|--- .... ....|R-- .... ....|--- .... ....
 G-4|..|G-4 2F.F ....|G-3 2C.F ....|--- .... ....
....|..|D-5 2F.F ....|R-- .... ....|--- .... ....
 G-4|..|--- .... ....|G-2 2A.F ....|--- .... ....
....|..|--- .... ....|R-- .... ....|--- .... ....
 G-4|..|G-4 2F.F ....|G-2 2A.F ....|--- .... ....
....|..|--- .... ....|R-- .... ....|--- .... ....
 G-4|..|A-4 2F.F ....|G-2 2A.F ....|--- .... ....
....|..|A#4 2F.F ....|R-- .... ....|--- .... ....
 G-4|..|A-4 2F.F ....|G-2 2A.F ....|--- .... ....
....|..|A#4 2F.A ....|R-- .... ....|--- .... ....
 G-4|..|--- .... ....|G-2 2A.F ....|--- .... ....
....|..|A#4 2F.7 ....|R-- .... ....|--- .... ....
 G-4|..|G-4 2F.A ....|G-2 2A.F ....|--- .... ....
....|..|D-5 2F.A ....|R-- .... ....|--- .... ....
 G-4|..|G-4 2F.F ....|G-2 2A.F ....|--- .... ....
....|..|D-5 2F.7 ....|R-- .... ....|--- .... ....
 G-4|..|G-4 2F.A ....|G-3 2C.F ....|--- .... ....
....|..|R-- .... ....|R-- .... ....|--- .... ....
 G-4|..|G-4 2F.7 ....|G-2 2A.F ....|--- .... ....
....|..|A#4 2F.A ....|R-- .... ....|--- .... ....
 G-4|..|A-4 2F.7 ....|G-2 2A.F ....|--- .... ....
....|..|A#4 2F.7 ....|R-- .... ....|--- .... ....
 G-4|..|A-4 2F.7 ....|G-2 2A.F ....|--- .... ....
....|..|--- .... ....|R-- .... ....|--- .... ....
 G-4|..|--- .... ....|G-2 2A.F ....|--- .... ....
....|..|--- .... ....|R-- .... ....|--- .... ....
 G-4|..|G-4 2F.A ....|G-2 2A.F ....|--- .... ....
....|..|--- .... ....|R-- .... ....|--- .... ....
 G-4|..|G-4 2F.7 ....|G-2 2A.F ....|--- .... ....
....|..|R-- .... ....|R-- .... ....|--- .... ....
 G-4|..|--- .... ....|G-2 2A.F ....|--- .... ....
....|..|R-- .... ....|R-- .... ....|--- .... ....
 G-4|..|--- .... ....|G-3 2C.F ....|--- .... ....
....|..|--- .... ....|R-- .... ....|--- .... ....
 G-4|..|--- .... ....|G-2 2A.F ....|--- .... ....
....|..|--- .... ....|R-- .... ....|--- .... ....
 G-4|..|--- .... ....|G-2 2A.F ....|--- .... ....
....|..|--- .... ....|R-- .... ....|--- .... ....
 G-4|..|--- .... ....|G-2 2A.F ....|--- .... ....
....|..|--- .... ....|R-- .... ....|--- .... ....
 G-4|..|--- .... ....|G-2 2A.F ....|--- .... ....
....|..|--- .... ....|R-- .... ....|--- .... ....
 G-4|..|--- .... ....|G-2 2A.F ....|--- .... ....
....|..|--- .... ....|R-- .... ....|--- .... ....
 G-4|..|--- .... ....|G-2 2A.F ....|--- .... ....
....|..|--- .... ....|R-- .... ....|--- .... ....
 G-4|..|--- .... ....|G-2 2A.F ....|--- .... ....
....|..|--- .... ....|R-- .... ....|--- .... ....
 G-4|..|--- .... ....|G-3 2C.F ....|--- .... ....
....|..|--- .... ....|R-- .... ....|--- .... ....
 G-4|..|--- .... ....|G-2 2A.F ....|--- .... ....
....|..|--- .... ....|R-- .... ....|--- .... ....
 G-4|..|--- .... ....|G-2 2A.F ....|--- .... ....
....|..|--- .... ....|R-- .... ....|--- .... ....
 G-4|..|--- .... ....|G-2 2A.F ....|--- .... ....
....|..|--- .... ....|R-- .... ....|--- .... ....
 G-4|..|--- .... ....|G-2 2A.F ....|--- .... ....
....|..|--- .... ....|R-- .... ....|--- .... ....
 G-4|..|--- .... ....|G-2 2A.F ....|--- .... ....
....|..|--- .... ....|R-- .... ....|--- .... ....
 G-4|..|--- .... ....|G-2 2A.F ....|--- .... ....
....|..|--- .... ....|R-- .... ....|--- .... ....
 G-4|..|--- .... ....|G-2 2A.F ....|--- .... ....
....|..|--- .... ....|R-- .... ....|--- .... ....
 G-4|..|--- .... ....|G-3 2C.F ....|--- .... ....
....|..|--- .... ....|R-- .... ....|--- .... ....
 G-4|..|--- .... ....|G-2 2A.F ....|--- .... ....
....|..|--- .... ....|R-- .... ....|--- .... ....
 G-4|..|--- .... ....|G-2 2A.F ....|--- .... ....
....|..|--- .... ....|R-- .... ....|--- .... ....

[Pattern31]
 G-4|..|--- .... ....|G-2 2A.F ....|--- .... ....
....|..|--- .... ....|R-- .... ....|--- .... ....
 G-4|..|--- .... ....|G-2 2A.F ....|--- .... ....
....|..|--- .... ....|R-- .... ....|--- .... ....
 G-4|..|--- .... ....|G-2 2A.F ....|--- .... ....
....|..|--- .... ....|R-- .... ....|--- .... ....
 G-4|..|--- .... ....|G-2 2A.F ....|--- .... ....
....|..|--- .... ....|R-- .... ....|--- .... ....
 G-4|..|--- .... ....|G-2 2A.F ....|--- .... ....
....|..|--- .... ....|R-- .... ....|--- .... ....
 G-4|..|--- .... ....|G-3 2C.F ....|--- .... ....
....|..|--- .... ....|R-- .... ....|--- .... ....
 G-4|..|--- .... ....|G-2 2A.F ....|--- .... ....
....|..|--- .... ....|R-- .... ....|--- .... ....
 G-4|..|--- .... ....|G-2 2A.F ....|--- .... ....
....|..|--- .... ....|R-- .... ....|--- .... ....
 G-4|..|--- .... ....|G-2 2A.F ....|--- .... ....
....|..|--- .... ....|R-- .... ....|--- .... ....
 G-4|..|--- .... ....|G-2 2A.F ....|--- .... ....
....|..|--- .... ....|R-- .... ....|--- .... ....
 G-4|..|--- .... ....|G-2 2A.F ....|--- .... ....
....|..|--- .... ....|R-- .... ....|--- .... ....
 G-4|..|--- .... ....|G-2 2A.F ....|--- .... ....
....|..|--- .... ....|R-- .... ....|--- .... ....
 G-4|..|--- .... ....|G-2 2A.F ....|--- .... ....
....|..|--- .... ....|R-- .... ....|--- .... ....
 G-4|..|--- .... ....|G-3 2C.F ....|--- .... ....
....|..|--- .... ....|R-- .... ....|--- .... ....
 G-4|..|--- .... ....|G-2 2A.F ....|--- .... ....
....|..|--- .... ....|R-- .... ....|--- .... ....
 G-4|..|--- .... ....|G-2 2A.F ....|--- .... ....
....|..|--- .... ....|R-- .... ....|--- .... ....
 G-4|..|--- .... ....|G-2 2A.F ....|--- .... ....
....|..|--- .... ....|R-- .... ....|--- .... ....
 G-4|..|--- .... ....|G-2 2A.F ....|--- .... ....
....|..|--- .... ....|R-- .... ....|--- .... ....
 G-4|..|--- .... ....|G-2 2A.F ....|--- .... ....
....|..|--- .... ....|R-- .... ....|--- .... ....
 G-4|..|--- .... ....|G-2 2A.F ....|--- .... ....
....|..|--- .... ....|R-- .... ....|--- .... ....
 G-4|..|--- .... ....|G-2 2A.F ....|--- .... ....
....|..|--- .... ....|R-- .... ....|--- .... ....
 G-4|..|--- .... ....|G-2 2A.F ....|--- .... ....
....|..|--- .... ....|R-- .... ....|--- .... ....
 G-4|..|--- .... ....|G-2 2A.F ....|--- .... ....
....|..|--- .... ....|R-- .... ....|--- .... ....
 G-4|..|--- .... ....|G-2 2A.F ....|--- .... ....
....|..|--- .... ....|R-- .... ....|--- .... ....
 G-4|..|--- .... ....|G-2 2A.F ....|--- .... ....
....|..|--- .... ....|R-- .... ....|--- .... ....
 G-4|..|--- .... ....|G-2 2A.F ....|--- .... ....
....|..|--- .... ....|R-- .... ....|--- .... ....
 G-4|..|--- .... ....|G-2 2A.F ....|--- .... ....
....|..|--- .... ....|R-- .... ....|--- .... ....
 G-4|..|--- .... ....|G-2 2A.F ....|--- .... ....
....|..|--- .... ....|R-- .... ....|--- .... ....
 G-4|..|--- .... ....|G-2 2A.F ....|--- .... ....
 G-4|..|--- .... ....|G-2 2A.F ....|--- .... ....
 G-4|..|--- .... ....|G-2 2A.F ....|--- .... ....
 G-4|..|--- .... ....|G-2 2A.F ....|--- .... ....
 G-4|..|--- .... ....|G-2 2A.F ....|--- .... ....
 G-4|..|--- .... ....|G-2 2A.F ....|--- .... ....
 G-4|..|--- .... ....|G-2 2A.F ....|--- .... ....
 G-4|..|--- .... ....|G-2 2A.F ....|--- .... ....
....|..|G-3 2F.F ....|E-2 2F.F ....|--- .... ....
 G-4|..|--- .... ....|G-2 2A.F ....|--- .... ....
 G-4|..|A-3 2F.F ....|G-2 2A.F ....|--- .... ....
....|..|--- .... ....|G-2 2F.F ....|--- .... ....
....|..|A#3 2F.F ....|E-2 2F.F ....|--- .... ....
 G-4|..|--- .... ....|G-2 2A.F ....|--- .... ....
....|..|C#4 2F.F ....|E-2 2F.F ....|--- .... ....
 G-4|..|--- .... ....|G-2 2A.F ....|--- .... ....
....|..|--- .... ....|E-3 2F4F ....|--- .... ....
 G-4|..|--- .... ....|G-2 2A.F ....|--- .... ....
....|..|--- .... ....|E-2 2F.F ....|--- .... ....
 G-4|..|--- .... ....|G-3 2C.F ....|--- .... ....
....|..|D-4 2F.F ....|F-2 2F.F ....|--- .... ....
 G-4|..|--- .... ....|G-2 2A.F ....|--- .... ....
 G-4|..|G-3 2F.7 ....|G-2 2A.F ....|--- .... ....
 G-4|..|--- .... ....|G-2 2F.7 ....|--- .... ....
....|..|E-4 2F.F ....|E-2 2F.F ....|--- .... ....
 G-4|..|E-4 2F.F ....|G-2 2A.F ....|--- .... ....
 G-4|..|F-4 2F.F ....|G-2 2A.F ....|--- .... ....
 G-4|..|--- .... ....|G-2 2F.7 ....|--- .... ....
....|..|G-4 2F.F ....|E-2 2F.F ....|--- .... ....
 G-4|..|--- .... ....|G-2 2A.F ....|--- .... ....
....|..|F-4 2F.F ....|E-2 2F.F ....|--- .... ....
 G-4|..|--- .... ....|G-2 2A.F ....|--- .... ....
....|..|D-4 2F.A ....|E-3 2F4F ....|--- .... ....
 G-4|..|--- .... ....|G-2 2A.F ....|--- .... ....
....|..|D-4 2F.7 ....|D-3 2F1F ....|--- .... ....
....|..|--- .... ....|D-2 2F.F ....|--- .... ....
....|..|E-4 2F.F ....|D-3 2F4F ....|--- .... ....
....|..|E-4 2F.A ....|F-2 2F.F ....|--- .... ....
....|..|E-4 2F.7 ....|D#3 2F1F ....|--- .... ....
....|..|E-4 2F.7 ....|F-2 2F.F ....|--- .... ....
....|..|D-4 2F.F ....|E-2 2F.F ....|--- .... ....
 G-4|..|--- .... ....|G-2 2A.F ....|--- .... ....
 G-4|..|G-4 2F.7 ....|G-2 2A.F ....|--- .... ....
 G-4|..|--- .... ....|G-2 2A.F ....|--- .... ....
....|..|E-4 2F.F ....|E-2 2F.F ....|--- .... ....
 G-4|..|--- .... ....|G-2 2A.F ....|--- .... ....
....|..|D-4 2F.F ....|E-2 2F.F ....|--- .... ....
 G-4|..|--- .... ....|G-2 2A.F ....|--- .... ....
....|..|E-4 2F.A ....|E-3 2F4F ....|--- .... ....
 G-4|..|R-- .... ....|G-2 2A.F ....|--- .... ....
....|..|C#4 2F.F ....|E-2 2F.F ....|--- .... ....
 G-4|..|--- .... ....|G-3 2C.F ....|--- .... ....
....|..|D-4 2F.A ....|F-2 2F.F ....|--- .... ....
 G-4|..|R-- .... ....|G-2 2A.F ....|--- .... ....
 G-4|..|A#3 2F.F ....|G-2 2A.F ....|--- .... ....
 G-4|..|--- .... ....|G-2 2F.7 ....|--- .... ....
....|..|C#4 2F.F ....|E-3 2F4F ....|--- .... ....
....|..|--- .... ....|G-2 2F.F ....|--- .... ....
....|..|A#3 2F.F ....|G-2 2F.F ....|--- .... ....
 G-4|..|--- .... ....|G-2 2A.F ....|--- .... ....
....|..|A-3 2F.F ....|E-2 2F.F ....|--- .... ....
 G-4|..|R-- .... ....|G-2 2A.F ....|--- .... ....
....|..|C#4 2F.A ....|E-2 2F.F ....|--- .... ....
 G-4|..|R-- .... ....|G-2 2A.F ....|--- .... ....
....|..|G-3 2F.F ....|E-3 2F4F ....|--- .... ....
 G-4|..|R-- .... ....|G-2 2A.F ....|--- .... ....
....|..|A#3 2F.A ....|F-2 2F.F ....|--- .... ....
 G-4|..|R-- .... ....|G-2 2A.F ....|--- .... ....
 G-4|..|A#3 2F.7 ....|G-3 2C.F ....|--- .... ....
 G-4|..|--- .... ....|G-2 2A.F ....|--- .... ....
 G-4|..|C#4 2F.7 ....|G-2 2A.F ....|--- .... ....
....|..|--- .... ....|G-2 2F.F ....|--- .... ....

[Pattern32]
....|..|G-3 2F.F ....|E-2 2F.F ....|--- .... ....
 G-4|..|--- .... ....|G-2 2A.F ....|--- .... ....
 G-4|..|A-3 2F.F ....|G-2 2A.F ....|--- .... ....
....|..|--- .... ....|G-2 2F.F ....|--- .... ....
....|..|A#3 2F.F ....|E-2 2F.F ....|--- .... ....
 G-4|..|--- .... ....|G-2 2A.F ....|--- .... ....
....|..|C#4 2F.F ....|E-2 2F.F ....|--- .... ....
 G-4|..|--- .... ....|G-2 2A.F ....|--- .... ....
....|..|--- .... ....|E-3 2F4F ....|--- .... ....
 G-4|..|--- .... ....|G-2 2A.F ....|--- .... ....
....|..|D-4 2F.F ....|E-2 2F.F ....|--- .... ....
 G-4|..|--- .... ....|G-3 2C.F ....|--- .... ....
....|..|R-- .... ....|F-2 2F.F ....|--- .... ....
 G-4|..|--- .... ....|G-2 2A.F ....|--- .... ....
 G-4|..|E-4 2F.F ....|G-2 2A.F ....|--- .... ....
 G-4|..|--- .... ....|G-2 2F.7 ....|--- .... ....
....|..|F-4 2F.F ....|E-2 2F.F ....|--- .... ....
 G-4|..|--- .... ....|G-2 2A.F ....|--- .... ....
 G-4|..|G-4 2F.F ....|G-2 2A.F ....|--- .... ....
 G-4|..|--- .... ....|G-2 2F.7 ....|--- .... ....
....|..|A-4 2F.F ....|E-2 2F.F ....|--- .... ....
 G-4|..|--- .... ....|G-2 2A.F ....|--- .... ....
....|..|D-4 2F.A ....|E-2 2F.F ....|--- .... ....
 G-4|..|--- .... ....|G-2 2A.F ....|--- .... ....
....|..|G-4 2F.F ....|E-3 2F4F ....|--- .... ....
 G-4|..|A-4 2F.F ....|G-2 2A.F ....|--- .... ....
....|..|A-4 2F.F ....|D-3 2F1F ....|--- .... ....
....|..|G-4 2F.F ....|D-2 2F.F ....|--- .... ....
....|..|F-4 2F.F ....|D-3 2F4F ....|--- .... ....
....|..|--- .... ....|F-2 2F.F ....|--- .... ....
....|..|F-4 2F.7 ....|D#3 2F1F ....|--- .... ....
....|..|--- .... ....|F-2 2F.F ....|--- .... ....
....|..|F-4 2F.F ....|E-2 2F.F ....|--- .... ....
 G-4|..|E-4 2F.F ....|G-2 2A.F ....|--- .... ....
 G-4|..|A-4 2F.7 ....|G-2 2A.F ....|--- .... ....
 G-4|..|--- .... ....|G-2 2A.F ....|--- .... ....
....|..|D-4 2F.F ....|E-2 2F.F ....|--- .... ....
 G-4|..|A-4 2F.A ....|G-2 2A.F ....|--- .... ....
....|..|C#4 2F.F ....|E-2 2F.F ....|--- .... ....
 G-4|..|A-4 2F.7 ....|G-2 2A.F ....|--- .... ....
....|..|A#3 2F.F ....|E-3 2F4F ....|--- .... ....
 G-4|..|G-4 2F.7 ....|G-2 2A.F ....|--- .... ....
....|..|C#4 2F.F ....|E-2 2F.F ....|--- .... ....
 G-4|..|--- .... ....|G-3 2C.F ....|--- .... ....
....|..|A#3 2F.F ....|F-2 2F.F ....|--- .... ....
 G-4|..|E-4 2F.A ....|G-2 2A.F ....|--- .... ....
 G-4|..|A-3 2F.F ....|G-2 2A.F ....|--- .... ....
 G-4|..|E-4 2F.7 ....|G-2 2F.7 ....|--- .... ....
....|..|A#3 2F.F ....|E-3 2F4F ....|--- .... ....
....|..|--- .... ....|G-2 2F.F ....|--- .... ....
....|..|G-3 2F.F ....|G-2 2F.F ....|--- .... ....
 G-4|..|--- .... ....|G-2 2A.F ....|--- .... ....
....|..|A-3 2F.F ....|E-2 2F.F ....|--- .... ....
 G-4|..|--- .... ....|G-2 2A.F ....|--- .... ....
....|..|A#3 2F.F ....|E-2 2F.F ....|--- .... ....
 G-4|..|--- .... ....|G-2 2A.F ....|--- .... ....
....|..|D-4 2F.F ....|E-3 2F4F ....|--- .... ....
 G-4|..|--- .... ....|G-2 2A.F ....|--- .... ....
....|..|A#3 2F.7 ....|F-2 2F.F ....|--- .... ....
 G-4|..|--- .... ....|G-2 2A.F ....|--- .... ....
 G-4|..|A-3 2F.7 ....|G-3 2C.F ....|--- .... ....
 G-4|..|R-- .... ....|G-2 2A.F ....|--- .... ....
 G-4|..|A#3 2F.7 ....|G-2 2A.F ....|--- .... ....
....|..|--- .... ....|G-2 2F.7 ....|--- .... ....
....|..|G-3 2F.F ....|E-2 2F.F ....|--- .... ....
 G-4|..|--- .... ....|G-2 2A.F ....|--- .... ....
 G-4|..|A-3 2F.F ....|G-2 2A.F ....|--- .... ....
....|..|--- .... ....|G-2 2F.F ....|--- .... ....
....|..|A#3 2F.F ....|E-2 2F.F ....|--- .... ....
 G-4|..|--- .... ....|G-2 2A.F ....|--- .... ....
....|..|C#4 2F.F ....|E-2 2F.F ....|--- .... ....
 G-4|..|--- .... ....|G-2 2A.F ....|--- .... ....
....|..|--- .... ....|E-3 2F4F ....|--- .... ....
 G-4|..|R-- .... ....|G-2 2A.F ....|--- .... ....
....|..|--- .... ....|E-2 2F.F ....|--- .... ....
 G-4|..|R-- .... ....|G-3 2C.F ....|--- .... ....
....|..|D-4 2F.F ....|F-2 2F.F ....|--- .... ....
 G-4|..|--- .... ....|G-2 2A.F ....|--- .... ....
 G-4|..|G-3 2F.7 ....|G-2 2A.F ....|--- .... ....
 G-4|..|--- .... ....|G-2 2F.7 ....|--- .... ....
....|..|E-4 2F.F ....|E-2 2F.F ....|--- .... ....
 G-4|..|--- .... ....|G-2 2A.F ....|--- .... ....
 G-4|..|F-4 2F.F ....|G-2 2A.F ....|--- .... ....
 G-4|..|--- .... ....|G-2 2F.7 ....|--- .... ....
....|..|G-4 2F.F ....|E-2 2F.F ....|--- .... ....
 G-4|..|--- .... ....|G-2 2A.F ....|--- .... ....
....|..|F-4 2F.F ....|E-2 2F.F ....|--- .... ....
 G-4|..|--- .... ....|G-2 2A.F ....|--- .... ....
....|..|D-4 2F.A ....|E-3 2F4F ....|--- .... ....
 G-4|..|--- .... ....|G-2 2A.F ....|--- .... ....
....|..|D-4 2F.7 ....|D-3 2F1F ....|--- .... ....
....|..|--- .... ....|D-2 2F.F ....|--- .... ....
....|..|F-4 2F.F ....|D-3 2F4F ....|--- .... ....
....|..|E-4 2F.F ....|F-2 2F.F ....|--- .... ....
....|..|E-4 2F.7 ....|D#3 2F1F ....|--- .... ....
....|..|--- .... ....|F-2 2F.F ....|--- .... ....
....|..|D-4 2F.F ....|E-2 2F.F ....|--- .... ....
 G-4|..|--- .... ....|G-2 2A.F ....|--- .... ....
 G-4|..|G-4 2F.7 ....|G-2 2A.F ....|--- .... ....
 G-4|..|--- .... ....|G-2 2A.F ....|--- .... ....
....|..|E-4 2F.F ....|E-2 2F.F ....|--- .... ....
 G-4|..|--- .... ....|G-2 2A.F ....|--- .... ....
....|..|D-4 2F.F ....|E-2 2F.F ....|--- .... ....
 G-4|..|--- .... ....|G-2 2A.F ....|--- .... ....
....|..|F-4 2F.A ....|E-3 2F4F ....|--- .... ....
 G-4|..|E-4 2F.A ....|G-2 2A.F ....|--- .... ....
....|..|C#4 2F.F ....|E-2 2F.F ....|--- .... ....
 G-4|..|E-4 2F.7 ....|G-3 2C.F ....|--- .... ....
....|..|D-4 2F.A ....|F-2 2F.F ....|--- .... ....
 G-4|..|R-- .... ....|G-2 2A.F ....|--- .... ....
 G-4|..|A#3 2F.F ....|G-2 2A.F ....|--- .... ....
 G-4|..|--- .... ....|G-2 2F.7 ....|--- .... ....
....|..|C#4 2F.F ....|E-3 2F4F ....|--- .... ....
....|..|--- .... ....|G-2 2F.F ....|--- .... ....
....|..|A#3 2F.F ....|G-2 2F.F ....|--- .... ....
 G-4|..|--- .... ....|G-2 2A.F ....|--- .... ....
....|..|A-3 2F.F ....|E-2 2F.F ....|--- .... ....
 G-4|..|--- .... ....|G-2 2A.F ....|--- .... ....
....|..|C#4 2F.A ....|E-2 2F.F ....|--- .... ....
 G-4|..|--- .... ....|G-2 2A.F ....|--- .... ....
....|..|G-3 2F.F ....|E-3 2F4F ....|--- .... ....
 G-4|..|R-- .... ....|G-2 2A.F ....|--- .... ....
....|..|A#3 2F.A ....|F-2 2F.F ....|--- .... ....
 G-4|..|R-- .... ....|G-2 2A.F ....|--- .... ....
 G-4|..|A#3 2F.7 ....|G-3 2C.F ....|--- .... ....
 G-4|..|--- .... ....|G-2 2A.F ....|--- .... ....
 G-4|..|C#4 2F.7 ....|G-2 2A.F ....|--- .... ....
....|..|--- .... ....|G-2 2F.F ....|--- .... ....

[Pattern33]
....|..|G-3 2F.F ....|E-2 2F.F ....|--- .... ....
 G-4|..|--- .... ....|G-2 2A.F ....|--- .... ....
 G-4|..|A-3 2F.F ....|G-2 2A.F ....|--- .... ....
....|..|--- .... ....|G-2 2F.F ....|--- .... ....
....|..|A#3 2F.F ....|E-2 2F.F ....|--- .... ....
 G-4|..|--- .... ....|G-2 2A.F ....|--- .... ....
....|..|C#4 2F.F ....|E-2 2F.F ....|--- .... ....
 G-4|..|--- .... ....|G-2 2A.F ....|--- .... ....
....|..|--- .... ....|E-3 2F4F ....|--- .... ....
 G-4|..|--- .... ....|G-2 2A.F ....|--- .... ....
....|..|D-4 2F.F ....|E-2 2F.F ....|--- .... ....
 G-4|..|--- .... ....|G-3 2C.F ....|--- .... ....
....|..|R-- .... ....|F-2 2F.F ....|--- .... ....
 G-4|..|--- .... ....|G-2 2A.F ....|--- .... ....
 G-4|..|E-4 2F.F ....|G-2 2A.F ....|--- .... ....
 G-4|..|E-4 2F.F ....|G-2 2F.7 ....|--- .... ....
....|..|F-4 2F.F ....|E-2 2F.F ....|--- .... ....
 G-4|..|F-4 2F.F ....|G-2 2A.F ....|--- .... ....
 G-4|..|G-4 2F.F ....|G-2 2A.F ....|--- .... ....
 G-4|..|--- .... ....|G-2 2F.7 ....|--- .... ....
....|..|A-4 2F.F ....|E-2 2F.F ....|--- .... ....
 G-4|..|--- .... ....|G-2 2A.F ....|--- .... ....
....|..|D-4 2F.A ....|E-2 2F.F ....|--- .... ....
 G-4|..|R-- .... ....|G-2 2A.F ....|--- .... ....
....|..|G-4 2F.F ....|E-3 2F4F ....|--- .... ....
 G-4|..|A-4 2F.F ....|G-2 2A.F ....|--- .... ....
....|..|A-4 2F.F ....|D-3 2F1F ....|--- .... ....
....|..|G-4 2F.F ....|D-2 2F.F ....|--- .... ....
....|..|G-4 2F.F ....|D-3 2F4F ....|--- .... ....
....|..|F-4 2F.F ....|F-2 2F.F ....|--- .... ....
....|..|F-4 2F.7 ....|D#3 2F1F ....|--- .... ....
....|..|F-4 2F.7 ....|F-2 2F.F ....|--- .... ....
....|..|E-4 2F.F ....|E-2 2F.F ....|--- .... ....
 G-4|..|--- .... ....|G-2 2A.F ....|--- .... ....
 G-4|..|A-4 2F.7 ....|G-2 2A.F ....|--- .... ....
 G-4|..|R-- .... ....|G-2 2A.F ....|--- .... ....
....|..|D-4 2F.F ....|E-2 2F.F ....|--- .... ....
 G-4|..|R-- .... ....|G-2 2A.F ....|--- .... ....
....|..|C#4 2F.F ....|E-2 2F.F ....|--- .... ....
 G-4|..|A-4 2F.7 ....|G-2 2A.F ....|--- .... ....
....|..|A#3 2F.F ....|E-3 2F4F ....|--- .... ....
 G-4|..|G-4 2F.7 ....|G-2 2A.F ....|--- .... ....
....|..|C#4 2F.F ....|E-2 2F.F ....|--- .... ....
 G-4|..|F-4 2F.7 ....|G-3 2C.F ....|--- .... ....
....|..|A#3 2F.F ....|F-2 2F.F ....|--- .... ....
 G-4|..|--- .... ....|G-2 2A.F ....|--- .... ....
 G-4|..|A-3 2F.F ....|G-2 2A.F ....|--- .... ....
 G-4|..|--- .... ....|G-2 2F.7 ....|--- .... ....
....|..|A#3 2F.F ....|E-3 2F4F ....|--- .... ....
....|..|--- .... ....|G-2 2F.F ....|--- .... ....
....|..|G-3 2F.F ....|G-2 2F.F ....|--- .... ....
 G-4|..|--- .... ....|G-2 2A.F ....|--- .... ....
....|..|A-3 2F.F ....|E-2 2F.F ....|--- .... ....
 G-4|..|--- .... ....|G-2 2A.F ....|--- .... ....
....|..|A#3 2F.F ....|E-2 2F.F ....|--- .... ....
 G-4|..|--- .... ....|G-2 2A.F ....|--- .... ....
....|..|D-4 2F.F ....|E-3 2F4F ....|--- .... ....
 G-4|..|--- .... ....|G-2 2A.F ....|--- .... ....
....|..|A#3 2F.7 ....|F-2 2F.F ....|--- .... ....
 G-4|..|--- .... ....|G-2 2A.F ....|--- .... ....
 G-4|..|A-3 2F.7 ....|G-3 2C.F ....|--- .... ....
 G-4|..|R-- .... ....|G-2 2A.F ....|--- .... ....
 G-4|..|A#3 2F.7 ....|G-2 2A.F ....|--- .... ....
....|..|--- .... ....|G-2 2F.7 ....|--- .... ....
....|..|G-3 2F.F ....|E-2 2F.F ....|--- .... ....
 G-4|..|--- .... ....|G-2 2A.F ....|--- .... ....
 G-4|..|A-3 2F.F ....|G-2 2A.F ....|--- .... ....
....|..|--- .... ....|G-2 2F.F ....|--- .... ....
....|..|A#3 2F.F ....|E-2 2F.F ....|--- .... ....
 G-4|..|--- .... ....|G-2 2A.F ....|--- .... ....
....|..|C#4 2F.F ....|E-2 2F.F ....|--- .... ....
 G-4|..|--- .... ....|G-2 2A.F ....|--- .... ....
....|..|--- .... ....|E-3 2F4F ....|--- .... ....
 G-4|..|R-- .... ....|G-2 2A.F ....|--- .... ....
....|..|--- .... ....|E-2 2F.F ....|--- .... ....
 G-4|..|R-- .... ....|G-3 2C.F ....|--- .... ....
....|..|D-4 2F.F ....|F-2 2F.F ....|--- .... ....
 G-4|..|--- .... ....|G-2 2A.F ....|--- .... ....
 G-4|..|G-3 2F.7 ....|G-2 2A.F ....|--- .... ....
 G-4|..|--- .... ....|G-2 2F.7 ....|--- .... ....
....|..|E-4 2F.F ....|E-2 2F.F ....|--- .... ....
 G-4|..|E-4 2F.F ....|G-2 2A.F ....|--- .... ....
 G-4|..|F-4 2F.F ....|G-2 2A.F ....|--- .... ....
 G-4|..|--- .... ....|G-2 2F.7 ....|--- .... ....
....|..|G-4 2F.F ....|E-2 2F.F ....|--- .... ....
 G-4|..|--- .... ....|G-2 2A.F ....|--- .... ....
....|..|F-4 2F.F ....|E-2 2F.F ....|--- .... ....
 G-4|..|--- .... ....|G-2 2A.F ....|--- .... ....
....|..|D-4 2F.A ....|E-3 2F4F ....|--- .... ....
 G-4|..|--- .... ....|G-2 2A.F ....|--- .... ....
....|..|D-4 2F.7 ....|D-3 2F1F ....|--- .... ....
....|..|--- .... ....|D-2 2F.F ....|--- .... ....
....|..|E-4 2F.F ....|D-3 2F4F ....|--- .... ....
....|..|E-4 2F.A ....|F-2 2F.F ....|--- .... ....
....|..|E-4 2F.7 ....|D#3 2F1F ....|--- .... ....
....|..|E-4 2F.7 ....|F-2 2F.F ....|--- .... ....
....|..|D-4 2F.F ....|E-2 2F.F ....|--- .... ....
 G-4|..|--- .... ....|G-2 2A.F ....|--- .... ....
 G-4|..|G-4 2F.7 ....|G-2 2A.F ....|--- .... ....
 G-4|..|--- .... ....|G-2 2A.F ....|--- .... ....
....|..|E-4 2F.F ....|E-2 2F.F ....|--- .... ....
 G-4|..|--- .... ....|G-2 2A.F ....|--- .... ....
....|..|D-4 2F.F ....|E-2 2F.F ....|--- .... ....
 G-4|..|--- .... ....|G-2 2A.F ....|--- .... ....
....|..|E-4 2F.A ....|E-3 2F4F ....|--- .... ....
 G-4|..|R-- .... ....|G-2 2A.F ....|--- .... ....
....|..|C#4 2F.F ....|E-2 2F.F ....|--- .... ....
 G-4|..|--- .... ....|G-3 2C.F ....|--- .... ....
....|..|D-4 2F.A ....|F-2 2F.F ....|--- .... ....
 G-4|..|R-- .... ....|G-2 2A.F ....|--- .... ....
 G-4|..|A#3 2F.F ....|G-2 2A.F ....|--- .... ....
 G-4|..|--- .... ....|G-2 2F.7 ....|--- .... ....
....|..|C#4 2F.F ....|E-3 2F4F ....|--- .... ....
....|..|--- .... ....|G-2 2F.F ....|--- .... ....
....|..|A#3 2F.F ....|G-2 2F.F ....|--- .... ....
 G-4|..|--- .... ....|G-2 2A.F ....|--- .... ....
....|..|A-3 2F.F ....|E-2 2F.F ....|--- .... ....
 G-4|..|R-- .... ....|G-2 2A.F ....|--- .... ....
....|..|C#4 2F.A ....|E-2 2F.F ....|--- .... ....
 G-4|..|R-- .... ....|G-2 2A.F ....|--- .... ....
....|..|G-3 2F.F ....|E-3 2F4F ....|--- .... ....
 G-4|..|R-- .... ....|G-2 2A.F ....|--- .... ....
....|..|A#3 2F.A ....|F-2 2F.F ....|--- .... ....
 G-4|..|R-- .... ....|G-2 2A.F ....|--- .... ....
 G-4|..|A#3 2F.7 ....|G-3 2C.F ....|--- .... ....
 G-4|..|--- .... ....|G-2 2A.F ....|--- .... ....
 G-4|..|C#4 2F.7 ....|G-2 2A.F ....|--- .... ....
....|..|--- .... ....|G-2 2F.F ....|--- .... ....

[Pattern37]
....|..|G-3 2F.F ....|E-2 2F.F ....|--- .... ....
 G-4|..|--- .... ....|G-2 2A.F ....|--- .... ....
 G-4|..|A-3 2F.F ....|G-2 2A.F ....|--- .... ....
....|..|--- .... ....|G-2 2F.F ....|--- .... ....
....|..|A#3 2F.F ....|E-2 2F.F ....|--- .... ....
 G-4|..|--- .... ....|G-2 2A.F ....|--- .... ....
....|..|C#4 2F.F ....|E-2 2F.F ....|--- .... ....
 G-4|..|--- .... ....|G-2 2A.F ....|--- .... ....
....|..|--- .... ....|E-3 2F4F ....|--- .... ....
 G-4|..|--- .... ....|G-2 2A.F ....|--- .... ....
....|..|D-4 2F.F ....|E-2 2F.F ....|--- .... ....
 G-4|..|--- .... ....|G-3 2C.F ....|--- .... ....
....|..|R-- .... ....|F-2 2F.F ....|--- .... ....
 G-4|..|--- .... ....|G-2 2A.F ....|--- .... ....
 G-4|..|E-4 2F.F ....|G-2 2A.F ....|--- .... ....
 G-4|..|E-4 2F.F ....|G-2 2F.7 ....|--- .... ....
....|..|F-4 2F.F ....|E-2 2F.F ....|--- .... ....
 G-4|..|F-4 2F.F ....|G-2 2A.F ....|--- .... ....
 G-4|..|G-4 2F.F ....|G-2 2A.F ....|--- .... ....
 G-4|..|--- .... ....|G-2 2F.7 ....|--- .... ....
....|..|A-4 2F.F ....|E-2 2F.F ....|--- .... ....
 G-4|..|--- .... ....|G-2 2A.F ....|--- .... ....
....|..|D-4 2F.A ....|E-2 2F.F ....|--- .... ....
 G-4|..|R-- .... ....|G-2 2A.F ....|--- .... ....
....|..|G-4 2F.F ....|E-3 2F4F ....|--- .... ....
 G-4|..|A-4 2F.F ....|G-2 2A.F ....|--- .... ....
....|..|A-4 2F.F ....|D-3 2F1F ....|--- .... ....
....|..|G-4 2F.F ....|D-2 2F.F ....|--- .... ....
....|..|G-4 2F.F ....|D-3 2F4F ....|--- .... ....
....|..|F-4 2F.F ....|F-2 2F.F ....|--- .... ....
....|..|F-4 2F.7 ....|D#3 2F1F ....|--- .... ....
....|..|F-4 2F.7 ....|F-2 2F.F ....|--- .... ....
....|..|E-4 2F.F ....|E-2 2F.F ....|--- .... ....
 G-4|..|--- .... ....|G-2 2A.F ....|--- .... ....
 G-4|..|A-4 2F.7 ....|G-2 2A.F ....|--- .... ....
 G-4|..|R-- .... ....|G-2 2A.F ....|--- .... ....
....|..|D-4 2F.F ....|E-2 2F.F ....|--- .... ....
 G-4|..|R-- .... ....|G-2 2A.F ....|--- .... ....
....|..|C#4 2F.F ....|E-2 2F.F ....|--- .... ....
 G-4|..|A-4 2F.7 ....|G-2 2A.F ....|--- .... ....
....|..|A#3 2F.F ....|E-3 2F4F ....|--- .... ....
 G-4|..|G-4 2F.7 ....|G-2 2A.F ....|--- .... ....
....|..|C#4 2F.F ....|E-2 2F.F ....|--- .... ....
 G-4|..|F-4 2F.7 ....|G-3 2C.F ....|--- .... ....
....|..|A#3 2F.F ....|F-2 2F.F ....|--- .... ....
 G-4|..|--- .... ....|G-2 2A.F ....|--- .... ....
 G-4|..|A-3 2F.F ....|G-2 2A.F ....|--- .... ....
 G-4|..|--- .... ....|G-2 2F.7 ....|--- .... ....
....|..|A#3 2F.F ....|E-3 2F4F ....|--- .... ....
....|..|--- .... ....|G-2 2F.F ....|--- .... ....
....|..|G-3 2F.F ....|G-2 2F.F ....|--- .... ....
 G-4|..|--- .... ....|G-2 2A.F ....|--- .... ....
....|..|A-3 2F.F ....|E-2 2F.F ....|--- .... ....
 G-4|..|--- .... ....|G-2 2A.F ....|--- .... ....
....|..|A#3 2F.F ....|E-2 2F.F ....|--- .... ....
 G-4|..|--- .... ....|G-2 2A.F ....|--- .... ....
....|..|D-4 2F.F ....|E-3 2F4F ....|--- .... ....
 G-4|..|--- .... ....|G-2 2A.F ....|--- .... ....
....|..|A#3 2F.7 ....|F-2 2F.F ....|--- .... ....
 G-4|..|--- .... ....|G-2 2A.F ....|--- .... ....
 G-4|..|A-3 2F.7 ....|G-3 2C.F ....|--- .... ....
 G-4|..|R-- .... ....|G-2 2A.F ....|--- .... ....
 G-4|..|A#3 2F.7 ....|G-2 2A.F ....|--- .... ....
....|..|--- .... ....|G-2 2F.7 ....|--- .... ....
....|..|G-3 2F.7 ....|E-2 2F.F ....|--- .... ....
 G-4|..|--- .... ....|G-2 2A.F ....|--- .... ....
 G-4|..|A-3 2F.7 ....|G-2 2A.F ....|--- .... ....
....|..|--- .... ....|G-2 2F.F ....|--- .... ....
....|..|A#3 2F.7 ....|E-2 2F.F ....|--- .... ....
 G-4|..|--- .... ....|G-2 2A.F ....|--- .... ....
....|..|D-4 2F.7 ....|E-2 2F.F ....|--- .... ....
 G-4|..|--- .... ....|G-2 2A.F ....|--- .... ....
....|..|--- .... ....|E-3 2F4F ....|--- .... ....
 G-4|..|R-- .... ....|G-2 2A.F ....|--- .... ....
....|..|--- .... ....|E-2 2F.F ....|--- .... ....
 G-4|..|R-- .... ....|G-3 2C.F ....|--- .... ....
....|..|--- .... ....|F-2 2F.F ....|--- .... ....
 G-4|..|--- .... ....|G-2 2A.F ....|--- .... ....
 G-4|..|--- .... ....|G-2 2A.F ....|--- .... ....
 G-4|..|--- .... ....|G-2 2F.7 ....|--- .... ....
....|..|--- .... ....|E-3 2F4F ....|--- .... ....
....|..|--- .... ....|G-2 2F.F ....|--- .... ....
....|..|--- .... ....|G-2 2F.F ....|--- .... ....
 G-4|..|--- .... ....|G-2 2A.F ....|--- .... ....
....|..|--- .... ....|E-2 2F.F ....|--- .... ....
 G-4|..|--- .... ....|G-2 2A.F ....|--- .... ....
....|..|--- .... ....|E-2 2F.F ....|--- .... ....
 G-4|..|--- .... ....|G-2 2A.F ....|--- .... ....
....|..|--- .... ....|E-3 2F4F ....|--- .... ....
 G-4|..|--- .... ....|G-2 2A.F ....|--- .... ....
....|..|--- .... ....|F-2 2F.F ....|--- .... ....
 G-4|..|--- .... ....|G-2 2A.F ....|--- .... ....
 G-4|..|--- .... ....|G-3 2C.F ....|--- .... ....
 G-4|..|--- .... ....|G-2 2A.F ....|--- .... ....
 G-4|..|--- .... ....|G-2 2A.F ....|--- .... ....
....|..|--- .... ....|G-2 2F.7 ....|--- .... ....
....|..|--- .... ....|E-2 2F.F ....|--- .... ....
 G-4|..|--- .... ....|G-2 2A.F ....|--- .... ....
 G-4|..|--- .... ....|G-2 2A.F ....|--- .... ....
....|..|--- .... ....|G-2 2F.F ....|--- .... ....
....|..|--- .... ....|E-2 2F.F ....|--- .... ....
 G-4|..|--- .... ....|G-2 2A.F ....|--- .... ....
....|..|--- .... ....|E-2 2F.F ....|--- .... ....
 G-4|..|--- .... ....|G-2 2A.F ....|--- .... ....
....|..|--- .... ....|E-3 2F4F ....|--- .... ....
 G-4|..|--- .... ....|G-2 2A.F ....|--- .... ....
....|..|--- .... ....|E-2 2F.F ....|--- .... ....
 G-4|..|--- .... ....|G-3 2C.F ....|--- .... ....
....|..|--- .... ....|F-2 2F.F ....|--- .... ....
 G-4|..|--- .... ....|G-2 2A.F ....|--- .... ....
 G-4|..|--- .... ....|G-2 2A.F ....|--- .... ....
 G-4|..|--- .... ....|G-2 2F.7 ....|--- .... ....
....|..|--- .... ....|E-2 2F.F ....|--- .... ....
 G-4|..|--- .... ....|G-2 2A.F ....|--- .... ....
 G-4|..|--- .... ....|G-2 2A.F ....|--- .... ....
 G-4|..|--- .... ....|G-2 2F.7 ....|--- .... ....
....|..|--- .... ....|E-2 2F.F ....|--- .... ....
 G-4|..|--- .... ....|G-2 2A.F ....|--- .... ....
....|..|--- .... ....|E-2 2F.F ....|--- .... ....
 G-4|..|--- .... ....|G-2 2A.F ....|--- .... ....
....|..|--- .... ....|E-3 2F4F ....|--- .... ....
 G-4|..|--- .... ....|G-2 2A.F ....|--- .... ....
....|..|--- .... ....|D-3 2F1F ....|--- .... ....
....|..|--- .... ....|D-2 2F.F ....|--- .... ....
....|..|--- .... ....|D-3 2F4F ....|--- .... ....
....|..|--- .... ....|F-2 2F.F ....|--- .... ....
....|..|--- .... ....|D#3 2F1F ....|--- .... ....
....|..|--- .... ....|F-2 2F.F ....|--- .... ....

[Pattern38]
....|..|--- .... ....|E-2 2F.F ....|--- .... ....
 G-4|..|--- .... ....|G-2 2A.F ....|--- .... ....
 G-4|..|--- .... ....|G-2 2A.F ....|--- .... ....
 G-4|..|--- .... ....|G-2 2A.F ....|--- .... ....
....|..|--- .... ....|E-2 2F.F ....|--- .... ....
 G-4|..|--- .... ....|G-2 2A.F ....|--- .... ....
....|..|--- .... ....|E-2 2F.F ....|--- .... ....
 G-4|..|--- .... ....|G-2 2A.F ....|--- .... ....
....|..|--- .... ....|E-3 2F4F ....|--- .... ....
 G-4|..|--- .... ....|G-2 2A.F ....|--- .... ....
....|..|--- .... ....|E-2 2F.F ....|--- .... ....
 G-4|..|--- .... ....|G-3 2C.F ....|--- .... ....
....|..|--- .... ....|F-2 2F.F ....|--- .... ....
 G-4|..|--- .... ....|G-2 2A.F ....|--- .... ....
 G-4|..|--- .... ....|G-2 2A.F ....|--- .... ....
 G-4|..|--- .... ....|G-2 2F.7 ....|--- .... ....
....|..|--- .... ....|E-3 2F4F ....|--- .... ....
....|..|--- .... ....|G-2 2F.F ....|--- .... ....
....|..|--- .... ....|G-2 2F.F ....|--- .... ....
 G-4|..|--- .... ....|G-2 2A.F ....|--- .... ....
....|..|--- .... ....|E-2 2F.F ....|--- .... ....
 G-4|..|--- .... ....|G-2 2A.F ....|--- .... ....
....|..|--- .... ....|E-2 2F.F ....|--- .... ....
 G-4|..|--- .... ....|G-2 2A.F ....|--- .... ....
....|..|--- .... ....|E-3 2F4F ....|--- .... ....
 G-4|..|--- .... ....|G-2 2A.F ....|--- .... ....
....|..|--- .... ....|F-2 2F.F ....|--- .... ....
 G-4|..|--- .... ....|G-2 2A.F ....|--- .... ....
 G-4|..|--- .... ....|G-3 2C.F ....|--- .... ....
 G-4|..|--- .... ....|G-2 2A.F ....|--- .... ....
 G-4|..|--- .... ....|G-2 2A.F ....|--- .... ....
....|..|--- .... ....|G-2 2F.7 ....|--- .... ....
....|..|--- .... ....|E-2 2F.F ....|--- .... ....
 G-4|..|--- .... ....|G-2 2A.F ....|--- .... ....
 G-4|..|--- .... ....|G-2 2A.F ....|--- .... ....
....|..|--- .... ....|G-2 2F.F ....|--- .... ....
....|..|--- .... ....|E-2 2F.F ....|--- .... ....
 G-4|..|--- .... ....|G-2 2A.F ....|--- .... ....
....|..|--- .... ....|E-2 2F.F ....|--- .... ....
 G-4|..|--- .... ....|G-2 2A.F ....|--- .... ....
....|..|--- .... ....|E-3 2F4F ....|--- .... ....
 G-4|..|--- .... ....|G-2 2A.F ....|--- .... ....
....|..|--- .... ....|E-2 2F.F ....|--- .... ....
 G-4|..|--- .... ....|G-3 2C.F ....|--- .... ....
....|..|--- .... ....|F-2 2F.F ....|--- .... ....
 G-4|..|--- .... ....|G-2 2A.F ....|--- .... ....
 G-4|..|--- .... ....|G-2 2A.F ....|--- .... ....
 G-4|..|--- .... ....|G-2 2F.7 ....|--- .... ....
....|..|--- .... ....|E-2 2F.F ....|--- .... ....
 G-4|..|--- .... ....|G-2 2A.F ....|--- .... ....
 G-4|..|--- .... ....|G-2 2A.F ....|--- .... ....
 G-4|..|--- .... ....|G-2 2F.7 ....|--- .... ....
....|..|--- .... ....|E-2 2F.F ....|--- .... ....
 G-4|..|--- .... ....|G-2 2A.F ....|--- .... ....
....|..|--- .... ....|E-2 2F.F ....|--- .... ....
 G-4|..|--- .... ....|G-2 2A.F ....|--- .... ....
....|..|--- .... ....|E-3 2F4F ....|--- .... ....
 G-4|..|--- .... ....|G-2 2A.F ....|--- .... ....
....|..|--- .... ....|D-3 2F1F ....|--- .... ....
....|..|--- .... ....|D-2 2F.F ....|--- .... ....
....|..|--- .... ....|D-3 2F4F ....|--- .... ....
....|..|--- .... ....|F-2 2F.F ....|--- .... ....
....|..|--- .... ....|D#3 2F1F ....|--- .... ....
....|..|--- .... ....|F-2 2F.F ....|--- .... ....
....|..|--- .... ....|E-2 2F.F ....|--- .... ....
 G-4|..|--- .... ....|G-2 2A.F ....|--- .... ....
 G-4|..|--- .... ....|G-2 2A.F ....|--- .... ....
 G-4|..|--- .... ....|G-2 2A.F ....|--- .... ....
....|..|--- .... ....|E-2 2F.F ....|--- .... ....
 G-4|..|--- .... ....|G-2 2A.F ....|--- .... ....
....|..|--- .... ....|E-2 2F.F ....|--- .... ....
 G-4|..|--- .... ....|G-2 2A.F ....|--- .... ....
....|..|--- .... ....|E-3 2F4F ....|--- .... ....
 G-4|..|--- .... ....|G-2 2A.F ....|--- .... ....
....|..|--- .... ....|E-2 2F.F ....|--- .... ....
 G-4|..|--- .... ....|G-3 2C.F ....|--- .... ....
....|..|--- .... ....|F-2 2F.F ....|--- .... ....
 G-4|..|--- .... ....|G-2 2A.F ....|--- .... ....
 G-4|..|--- .... ....|G-2 2A.F ....|--- .... ....
 G-4|..|--- .... ....|G-2 2F.7 ....|--- .... ....
....|..|--- .... ....|E-3 2F4F ....|--- .... ....
....|..|--- .... ....|G-2 2F.F ....|--- .... ....
....|..|--- .... ....|G-2 2F.F ....|--- .... ....
 G-4|..|--- .... ....|G-2 2A.F ....|--- .... ....
....|..|--- .... ....|E-2 2F.F ....|--- .... ....
 G-4|..|--- .... ....|G-2 2A.F ....|--- .... ....
....|..|--- .... ....|E-2 2F.F ....|--- .... ....
 G-4|..|--- .... ....|G-2 2A.F ....|--- .... ....
....|..|--- .... ....|E-3 2F4F ....|--- .... ....
 G-4|..|--- .... ....|G-2 2A.F ....|--- .... ....
....|..|--- .... ....|F-2 2F.F ....|--- .... ....
 G-4|..|--- .... ....|G-2 2A.F ....|--- .... ....
 G-4|..|--- .... ....|G-3 2C.F ....|--- .... ....
 G-4|..|--- .... ....|G-2 2A.F ....|--- .... ....
 G-4|..|--- .... ....|G-2 2A.F ....|--- .... ....
....|..|--- .... ....|G-2 2F.7 ....|--- .... ....
....|..|--- .... ....|E-2 2F.F ....|--- .... ....
 G-4|..|--- .... ....|G-2 2A.F ....|--- .... ....
 G-4|..|--- .... ....|G-2 2A.F ....|--- .... ....
....|..|--- .... ....|G-2 2F.F ....|--- .... ....
....|..|--- .... ....|E-2 2F.F ....|--- .... ....
 G-4|..|--- .... ....|G-2 2A.F ....|--- .... ....
....|..|--- .... ....|E-2 2F.F ....|--- .... ....
 G-4|..|--- .... ....|G-2 2A.F ....|--- .... ....
....|..|--- .... ....|E-3 2F4F ....|--- .... ....
 G-4|..|--- .... ....|G-2 2A.F ....|--- .... ....
....|..|--- .... ....|E-2 2F.F ....|--- .... ....
 G-4|..|--- .... ....|G-3 2C.F ....|--- .... ....
....|..|--- .... ....|F-2 2F.F ....|--- .... ....
 G-4|..|--- .... ....|G-2 2A.F ....|--- .... ....
 G-4|..|--- .... ....|G-2 2A.F ....|--- .... ....
 G-4|..|--- .... ....|G-2 2F.7 ....|--- .... ....
....|..|--- .... ....|E-2 2F.F ....|--- .... ....
 G-4|..|--- .... ....|G-2 2A.F ....|--- .... ....
 G-4|..|--- .... ....|G-2 2A.F ....|--- .... ....
 G-4|..|--- .... ....|G-2 2F.7 ....|--- .... ....
....|..|--- .... ....|E-2 2F.F ....|--- .... ....
 G-4|..|--- .... ....|G-2 2A.F ....|--- .... ....
....|..|--- .... ....|E-2 2F.F ....|--- .... ....
 G-4|..|--- .... ....|G-2 2A.F ....|--- .... ....
....|..|--- .... ....|E-3 2F4F ....|--- .... ....
 G-4|..|--- .... ....|G-2 2A.F ....|--- .... ....
....|..|--- .... ....|D-3 2F1F ....|--- .... ....
....|..|--- .... ....|D-2 2F.F ....|--- .... ....
....|..|--- .... ....|D-3 2F4F ....|--- .... ....
....|..|--- .... ....|F-2 2F.F ....|--- .... ....
....|..|--- .... ....|D#3 2F1F ....|--- .... ....
....|..|--- .... ....|F-2 2F.F ....|--- .... ....

[Pattern39]
....|..|--- .... ....|E-2 2F.F ....|--- .... ....
 G-4|..|--- .... ....|G-2 2A.F ....|--- .... ....
 G-4|..|--- .... ....|G-2 2A.F ....|--- .... ....
 G-4|..|--- .... ....|G-2 2A.F ....|--- .... ....
....|..|--- .... ....|E-2 2F.F ....|--- .... ....
 G-4|..|--- .... ....|G-2 2A.F ....|--- .... ....
....|..|--- .... ....|E-2 2F.F ....|--- .... ....
 G-4|..|--- .... ....|G-2 2A.F ....|--- .... ....
....|..|--- .... ....|E-3 2F4F ....|--- .... ....
 G-4|..|--- .... ....|G-2 2A.F ....|--- .... ....
....|..|--- .... ....|E-2 2F.F ....|--- .... ....
 G-4|..|--- .... ....|G-3 2C.F ....|--- .... ....
....|..|--- .... ....|F-2 2F.F ....|--- .... ....
 G-4|..|--- .... ....|G-2 2A.F ....|--- .... ....
 G-4|..|--- .... ....|G-2 2A.F ....|--- .... ....
 G-4|..|--- .... ....|G-2 2F.7 ....|--- .... ....
....|..|--- .... ....|E-3 2F4F ....|--- .... ....
....|..|--- .... ....|G-2 2F.F ....|--- .... ....
....|..|--- .... ....|G-2 2F.F ....|--- .... ....
 G-4|..|--- .... ....|G-2 2A.F ....|--- .... ....
....|..|--- .... ....|E-2 2F.F ....|--- .... ....
 G-4|..|--- .... ....|G-2 2A.F ....|--- .... ....
....|..|--- .... ....|E-2 2F.F ....|--- .... ....
 G-4|..|--- .... ....|G-2 2A.F ....|--- .... ....
....|..|--- .... ....|E-3 2F4F ....|--- .... ....
 G-4|..|--- .... ....|G-2 2A.F ....|--- .... ....
....|..|--- .... ....|F-2 2F.F ....|--- .... ....
 G-4|..|--- .... ....|G-2 2A.F ....|--- .... ....
 G-4|..|--- .... ....|G-3 2C.F ....|--- .... ....
 G-4|..|--- .... ....|G-2 2A.F ....|--- .... ....
 G-4|..|--- .... ....|G-2 2A.F ....|--- .... ....
....|..|--- .... ....|G-2 2F.7 ....|--- .... ....
....|..|--- .... ....|G-2 2F.F ....|--- .... ....
 G-4|..|--- .... ....|G-2 2F.7 ....|--- .... ....
....|..|--- .... ....|E-2 2F.7 ....|--- .... ....
 G-4|..|--- .... ....|G-2 2F.7 ....|--- .... ....
....|..|--- .... ....|E-2 2F.7 ....|--- .... ....
 G-4|..|--- .... ....|G-2 2F.7 ....|--- .... ....
....|..|--- .... ....|G-2 2F.F ....|--- .... ....
....|..|--- .... ....|G-2 2F.F ....|--- .... ....
....|..|--- .... ....|G-2 2F.F ....|--- .... ....
 G-4|..|--- .... ....|G-2 2F.7 ....|--- .... ....
....|..|--- .... ....|G-2 2F.F ....|--- .... ....
 G-4|..|--- .... ....|G-2 2F.7 ....|--- .... ....
....|..|--- .... ....|G-2 2F.F ....|--- .... ....
....|..|--- .... ....|R-- .... ....|--- .... ....
....|..|--- .... ....|G-2 2F.F ....|--- .... ....
....|..|--- .... ....|R-- .... ....|--- .... ....
....|..|--- .... ....|G-2 2F.F ....|--- .... ....
....|..|--- .... ....|R-- .... ....|--- .... ....
....|..|--- .... ....|G-2 2F.F ....|--- .... ....
....|..|--- .... ....|R-- .... ....|--- .... ....
....|..|--- .... ....|G-2 2F.F ....|--- .... ....
....|..|--- .... ....|G-2 2F.7 ....|--- .... ....
....|..|--- .... ....|G-2 2F.F ....|--- .... ....
....|..|--- .... ....|R-- .... ....|--- .... ....
....|..|--- .... ....|G-2 2F.7 ....|--- .... ....
....|..|--- .... ....|R-- .... ....|--- .... ....
....|..|--- .... ....|G-2 2F.F ....|--- .... ....
....|..|--- .... ....|R-- .... ....|--- .... ....
....|..|--- .... ....|A-4 2F1F ....|--- .... ....
....|..|--- .... ....|C-5 2F1F ....|--- .... ....
....|..|--- .... ....|E-5 2F7F ....|--- .... ....
....|..|--- .... ....|G-5 2F1F ....|--- .... ....
....|..|--- .... ....|B-5 2F7F ....|--- .... ....
....|..|--- .... ....|A-3 2F.F ....|--- .... ....
....|..|--- .... ....|A-3 2F.F ....|--- .... ....
....|..|--- .... ....|R-- .... ....|--- .... ....
....|..|--- .... ....|G-2 2F.7 ....|--- .... ....
....|..|--- .... ....|--- .... ....|--- .... ....
....|..|--- .... ....|A-3 2F.F ....|--- .... ....
....|..|--- .... ....|R-- .... ....|--- .... ....
....|..|--- .... ....|C-2 2F.F ....|--- .... ....
....|..|--- .... ....|C-5 2F1A ....|--- .... ....
....|..|--- .... ....|A-3 2F.F ....|--- .... ....
....|..|--- .... ....|C-5 2F17 ....|--- .... ....
....|..|D#4 2F.F ....|A-3 2F.F ....|--- .... ....
....|..|--- .... ....|G-5 2F17 ....|--- .... ....
....|..|R-- .... ....|B-5 2F77 ....|--- .... ....
....|..|--- .... ....|A-3 2F.7 ....|--- .... ....
....|..|D-4 2F.F ....|A-3 2F.F ....|--- .... ....
....|..|--- .... ....|R-- .... ....|--- .... ....
....|..|D-4 2F.F ....|A-3 2F.A ....|--- .... ....
....|..|C-4 2F.F ....|R-- .... ....|--- .... ....
....|..|R-- .... ....|A-3 2F.7 ....|--- .... ....
....|..|--- .... ....|R-- .... ....|--- .... ....
....|..|A-3 2F.F ....|C-2 2F.7 ....|--- .... ....
....|..|--- .... ....|R-- .... ....|--- .... ....
....|..|R-- .... ....|C-2 2F.F ....|--- .... ....
....|..|--- .... ....|A-3 2F.F ....|--- .... ....
....|..|G-5 2F.F ....|D-2 2F.F ....|--- .... ....
....|..|--- .... ....|D-2 2F.F ....|--- .... ....
....|..|R-- .... ....|D-2 2F.F ....|--- .... ....
....|..|--- .... ....|A-3 2F.F ....|--- .... ....
....|..|D-4 2F.7 ....|D#2 2F.F ....|--- .... ....
....|..|C-4 2F.A ....|R-- .... ....|--- .... ....
....|..|G-5 2F.F ....|A-3 2F.F ....|--- .... ....
....|..|C-4 2F.7 ....|R-- .... ....|--- .... ....
....|..|R-- .... ....|A-3 2F.F ....|--- .... ....
....|..|--- .... ....|R-- .... ....|--- .... ....
....|..|A-3 2F.7 ....|C-2 2F.A ....|--- .... ....
....|..|--- .... ....|A-3 2F.A ....|--- .... ....
....|..|R-- .... ....|A-3 2F.F ....|--- .... ....
....|..|R-- .... ....|A-3 2F.7 ....|--- .... ....
....|..|G-5 2F.7 ....|C-2 2F.F ....|--- .... ....
....|..|--- .... ....|D-2 2F.7 ....|--- .... ....
....|..|R-- .... ....|A-3 2F.F ....|--- .... ....
....|..|--- .... ....|A-3 2F.7 ....|--- .... ....
....|..|D#4 2F.F ....|A-3 2F.F ....|--- .... ....
....|..|--- .... ....|R-- .... ....|--- .... ....
....|..|G-5 2F.7 ....|A-3 2F.7 ....|--- .... ....
....|..|--- .... ....|R-- .... ....|--- .... ....
....|..|D-4 2F.F ....|A-3 2F.F ....|--- .... ....
....|..|--- .... ....|R-- .... ....|--- .... ....
....|..|D-4 2F.F ....|A-3 2F.A ....|--- .... ....
....|..|C-4 2F.F ....|R-- .... ....|--- .... ....
....|..|R-- .... ....|A-3 2F.7 ....|--- .... ....
....|..|R-- .... ....|R-- .... ....|--- .... ....
....|..|A-3 2F.F ....|C-2 2F.7 ....|--- .... ....
....|..|--- .... ....|R-- .... ....|--- .... ....
....|..|R-- .... ....|C-2 2F.F ....|--- .... ....
....|..|--- .... ....|A-3 2F.F ....|--- .... ....
....|..|A-5 2F.F ....|A-3 2F.F ....|--- .... ....
....|..|A-2 2F.F ....|R-- .... ....|--- .... ....
....|..|G-4 2F.F ....|A-3 2F.A ....|--- .... ....
....|..|--- .... ....|R-- .... ....|--- .... ....
....|..|D-4 2F.7 ....|A-3 2F.7 ....|--- .... ....
....|..|C-4 2F.A ....|R-- .... ....|--- .... ....

[Pattern40]
....|..|A-5 2F.F ....|A-3 2F.F ....|--- .... ....
....|..|C-4 2F.7 ....|R-- .... ....|--- .... ....
....|..|R-- .... ....|A-3 2F.F ....|--- .... ....
....|..|--- .... ....|R-- .... ....|--- .... ....
....|..|A-3 2F.7 ....|C-2 2F.A ....|--- .... ....
....|..|--- .... ....|A-3 2F.A ....|--- .... ....
....|..|R-- .... ....|A-3 2F.F ....|--- .... ....
....|..|A-2 2F.A ....|A-3 2F.7 ....|--- .... ....
....|..|A-5 2F.7 ....|C-2 2F.F ....|--- .... ....
....|..|A-2 2F.7 ....|R-- .... ....|--- .... ....
....|..|G-4 2F.7 ....|A-3 2F.F ....|--- .... ....
....|..|--- .... ....|R-- .... ....|--- .... ....
....|..|D#4 2F.F ....|A-3 2F.F ....|--- .... ....
....|..|R-- .... ....|R-- .... ....|--- .... ....
....|..|A-5 2F.7 ....|A-3 2F.7 ....|--- .... ....
....|..|R-- .... ....|R-- .... ....|--- .... ....
....|..|D-4 2F.F ....|A-3 2F.F ....|--- .... ....
....|..|--- .... ....|R-- .... ....|--- .... ....
....|..|D-4 2F.F ....|A-3 2F.A ....|--- .... ....
....|..|C-4 2F.F ....|R-- .... ....|--- .... ....
....|..|R-- .... ....|A-3 2F.7 ....|--- .... ....
....|..|--- .... ....|R-- .... ....|--- .... ....
....|..|A-3 2F.F ....|C-2 2F.7 ....|--- .... ....
....|..|--- .... ....|R-- .... ....|--- .... ....
....|..|R-- .... ....|C-2 2F.F ....|--- .... ....
....|..|--- .... ....|A-3 2F.F ....|--- .... ....
....|..|G-5 2F.F ....|D-2 2F.F ....|--- .... ....
....|..|--- .... ....|D-2 2F.F ....|--- .... ....
....|..|A-1 2F.F ....|D-2 2F.F ....|--- .... ....
....|..|--- .... ....|A-3 2F.F ....|--- .... ....
....|..|A-2 2F.F ....|D#2 2F.F ....|--- .... ....
....|..|A-2 2F.F ....|R-- .... ....|--- .... ....
....|..|D#5 2F.F ....|A-3 2F.F ....|--- .... ....
....|..|C-4 2F.7 ....|R-- .... ....|--- .... ....
....|..|R-- .... ....|A-3 2F.F ....|--- .... ....
....|..|--- .... ....|R-- .... ....|--- .... ....
....|..|D-5 2F.F ....|C-2 2F.A ....|--- .... ....
....|..|--- .... ....|A-3 2F.A ....|--- .... ....
....|..|R-- .... ....|A-3 2F.F ....|--- .... ....
....|..|--- .... ....|A-3 2F.7 ....|--- .... ....
....|..|G-5 2F.7 ....|C-2 2F.F ....|--- .... ....
....|..|--- .... ....|D-2 2F.7 ....|--- .... ....
....|..|A-1 2F.7 ....|A-3 2F.F ....|--- .... ....
....|..|A-2 2F.A ....|A-3 2F.7 ....|--- .... ....
....|..|D#4 2F.F ....|A-3 2F.F ....|--- .... ....
....|..|A-2 2F.7 ....|R-- .... ....|--- .... ....
....|..|D#5 2F.7 ....|A-3 2F.7 ....|--- .... ....
....|..|R-- .... ....|R-- .... ....|--- .... ....
....|..|D-4 2F.F ....|A-3 2F.F ....|--- .... ....
....|..|--- .... ....|R-- .... ....|--- .... ....
....|..|D-4 2F.F ....|A-3 2F.A ....|--- .... ....
....|..|C-4 2F.F ....|R-- .... ....|--- .... ....
....|..|R-- .... ....|A-3 2F.7 ....|--- .... ....
....|..|--- .... ....|R-- .... ....|--- .... ....
....|..|A-3 2F.F ....|C-2 2F.7 ....|--- .... ....
....|..|--- .... ....|R-- .... ....|--- .... ....
....|..|R-- .... ....|C-2 2F.F ....|--- .... ....
....|..|--- .... ....|A-3 2F.F ....|--- .... ....
....|..|G-4 2F.F ....|A-3 2F.F ....|--- .... ....
....|..|G-3 2F.F ....|R-- .... ....|--- .... ....
....|..|F#4 2F.F ....|A-3 2F.A ....|--- .... ....
....|..|--- .... ....|R-- .... ....|--- .... ....
....|..|C-4 2F.F ....|A-3 2F.7 ....|--- .... ....
....|..|C-4 2F.A ....|R-- .... ....|--- .... ....
....|..|G-4 2F.F ....|A-3 2F.F ....|--- .... ....
....|..|C-4 2F.7 ....|R-- .... ....|--- .... ....
....|..|R-- .... ....|A-3 2F.F ....|--- .... ....
....|..|--- .... ....|R-- .... ....|--- .... ....
....|..|A-4 2F.F ....|C-2 2F.A ....|--- .... ....
....|..|A-4 2F.F ....|A-3 2F.A ....|--- .... ....
....|..|R-- .... ....|A-3 2F.F ....|--- .... ....
....|..|G-3 2F.A ....|A-3 2F.7 ....|--- .... ....
....|..|G-4 2F.7 ....|C-2 2F.F ....|--- .... ....
....|..|G-3 2F.7 ....|R-- .... ....|--- .... ....
....|..|F#4 2F.7 ....|A-3 2F.F ....|--- .... ....
....|..|--- .... ....|R-- .... ....|--- .... ....
....|..|D#4 2F.F ....|A-3 2F.F ....|--- .... ....
....|..|R-- .... ....|R-- .... ....|--- .... ....
....|..|G-4 2F.7 ....|A-3 2F.7 ....|--- .... ....
....|..|R-- .... ....|R-- .... ....|--- .... ....
....|..|D-4 2F.F ....|A-3 2F.F ....|--- .... ....
....|..|A-4 2F.A ....|R-- .... ....|--- .... ....
....|..|D-4 2F.F ....|A-3 2F.A ....|--- .... ....
....|..|C-4 2F.F ....|R-- .... ....|--- .... ....
....|..|R-- .... ....|A-3 2F.7 ....|--- .... ....
....|..|--- .... ....|R-- .... ....|--- .... ....
....|..|A-3 2F.F ....|C-2 2F.7 ....|--- .... ....
....|..|--- .... ....|R-- .... ....|--- .... ....
....|..|R-- .... ....|C-2 2F.F ....|--- .... ....
....|..|--- .... ....|A-3 2F.F ....|--- .... ....
....|..|G-5 2F.F ....|D-2 2F.F ....|--- .... ....
....|..|A-2 2F.F ....|D-2 2F.F ....|--- .... ....
....|..|G-3 2F.F ....|D-2 2F.F ....|--- .... ....
....|..|--- .... ....|A-3 2F.F ....|--- .... ....
....|..|A-3 2F.F ....|D#2 2F.F ....|--- .... ....
....|..|A-3 2F.F ....|R-- .... ....|--- .... ....
....|..|B-5 2F.F ....|A-3 2F.F ....|--- .... ....
....|..|C-4 2F.7 ....|R-- .... ....|--- .... ....
....|..|R-- .... ....|A-3 2F.F ....|--- .... ....
....|..|--- .... ....|R-- .... ....|--- .... ....
....|..|A-4 2F.F ....|C-2 2F.A ....|--- .... ....
....|..|R-- .... ....|A-3 2F.A ....|--- .... ....
....|..|R-- .... ....|A-3 2F.F ....|--- .... ....
....|..|A-2 2F.A ....|A-3 2F.7 ....|--- .... ....
....|..|G-5 2F.7 ....|C-2 2F.F ....|--- .... ....
....|..|A-2 2F.7 ....|D-2 2F.7 ....|--- .... ....
....|..|G-3 2F.7 ....|A-3 2F.F ....|--- .... ....
....|..|A-3 2F.A ....|A-3 2F.7 ....|--- .... ....
....|..|D#4 2F.F ....|A-3 2F.F ....|--- .... ....
....|..|A-3 2F.7 ....|R-- .... ....|--- .... ....
....|..|B-5 2F.7 ....|A-3 2F.7 ....|--- .... ....
....|..|R-- .... ....|R-- .... ....|--- .... ....
....|..|D-4 2F.F ....|A-3 2F.F ....|--- .... ....
....|..|R-- .... ....|R-- .... ....|--- .... ....
....|..|D-4 2F.F ....|A-3 2F.A ....|--- .... ....
....|..|C-4 2F.F ....|R-- .... ....|--- .... ....
....|..|R-- .... ....|A-3 2F.7 ....|--- .... ....
....|..|--- .... ....|R-- .... ....|--- .... ....
....|..|A-3 2F.F ....|C-2 2F.7 ....|--- .... ....
....|..|--- .... ....|R-- .... ....|--- .... ....
....|..|R-- .... ....|C-2 2F.F ....|--- .... ....
....|..|--- .... ....|A-3 2F.F ....|--- .... ....
....|..|A-5 2F.F ....|A-3 2F.F ....|--- .... ....
....|..|A-1 2F.F ....|R-- .... ....|--- .... ....
....|..|A-2 2F.F ....|A-3 2F.A ....|--- .... ....
....|..|--- .... ....|R-- .... ....|--- .... ....
....|..|A-2 2F.F ....|A-3 2F.7 ....|--- .... ....
....|..|A-1 2F.F ....|R-- .... ....|--- .... ....

[Pattern41]
....|..|C-6 2F.F ....|A-3 2F.F ....|--- .... ....
....|..|C-4 2F.7 ....|R-- .... ....|--- .... ....
....|..|R-- .... ....|A-3 2F.F ....|--- .... ....
....|..|--- .... ....|R-- .... ....|--- .... ....
....|..|A-5 2F.F ....|C-2 2F.A ....|--- .... ....
....|..|R-- .... ....|A-3 2F.A ....|--- .... ....
....|..|R-- .... ....|A-3 2F.F ....|--- .... ....
....|..|A-1 2F.A ....|A-3 2F.7 ....|--- .... ....
....|..|A-5 2F.7 ....|C-2 2F.F ....|--- .... ....
....|..|A-1 2F.7 ....|R-- .... ....|--- .... ....
....|..|A-2 2F.7 ....|A-3 2F.F ....|--- .... ....
....|..|A-1 2F.A ....|R-- .... ....|--- .... ....
....|..|G-5 2F.F ....|A-3 2F.F ....|--- .... ....
....|..|D#4 2F.F ....|R-- .... ....|--- .... ....
....|..|A-5 2F.F ....|A-3 2F.7 ....|--- .... ....
....|..|R-- .... ....|R-- .... ....|--- .... ....
....|..|D-4 2F.F ....|A-3 2F.F ....|--- .... ....
....|..|R-- .... ....|R-- .... ....|--- .... ....
....|..|G-5 2F.F ....|A-3 2F.A ....|--- .... ....
....|..|D-4 2F.F ....|R-- .... ....|--- .... ....
....|..|C-4 2F.F ....|A-3 2F.7 ....|--- .... ....
....|..|R-- .... ....|R-- .... ....|--- .... ....
....|..|A-3 2F.F ....|C-2 2F.7 ....|--- .... ....
....|..|--- .... ....|R-- .... ....|--- .... ....
....|..|R-- .... ....|C-2 2F.F ....|--- .... ....
....|..|D#4 2F.A ....|A-3 2F.F ....|--- .... ....
....|..|G-5 2F.7 ....|D-2 2F.F ....|--- .... ....
....|..|D#4 2F.7 ....|D-2 2F.F ....|--- .... ....
....|..|A-2 2F.F ....|D-2 2F.F ....|--- .... ....
....|..|R-- .... ....|A-3 2F.F ....|--- .... ....
....|..|A-3 2F.F ....|D#2 2F.F ....|--- .... ....
....|..|R-- .... ....|R-- .... ....|--- .... ....
....|..|G-5 2F.7 ....|A-3 2F.F ....|--- .... ....
....|..|D-4 2F.7 ....|R-- .... ....|--- .... ....
....|..|C-4 2F.7 ....|A-3 2F.F ....|--- .... ....
....|..|R-- .... ....|R-- .... ....|--- .... ....
....|..|A-3 2F.F ....|C-2 2F.A ....|--- .... ....
....|..|--- .... ....|A-3 2F.A ....|--- .... ....
....|..|R-- .... ....|A-3 2F.F ....|--- .... ....
....|..|--- .... ....|A-3 2F.7 ....|--- .... ....
....|..|A-2 2F.A ....|C-2 2F.F ....|--- .... ....
....|..|--- .... ....|D-2 2F.7 ....|--- .... ....
....|..|E-5 2F.F ....|A-3 2F.F ....|--- .... ....
....|..|R-- .... ....|A-3 2F.7 ....|--- .... ....
....|..|D#4 2F.F ....|A-3 2F.F ....|--- .... ....
....|..|R-- .... ....|R-- .... ....|--- .... ....
....|..|R-- .... ....|A-3 2F.7 ....|--- .... ....
....|..|--- .... ....|R-- .... ....|--- .... ....
....|..|G-5 2F.F ....|A-3 2F.F ....|--- .... ....
....|..|D-4 2F.F ....|R-- .... ....|--- .... ....
....|..|A-5 2F.F ....|A-3 2F.A ....|--- .... ....
....|..|D-4 2F.F ....|R-- .... ....|--- .... ....
....|..|C-4 2F.F ....|A-3 2F.7 ....|--- .... ....
....|..|R-- .... ....|R-- .... ....|--- .... ....
....|..|D#5 2F.F ....|C-2 2F.7 ....|--- .... ....
....|..|A-2 2F.F ....|R-- .... ....|--- .... ....
....|..|D-5 2F.F ....|C-2 2F.F ....|--- .... ....
....|..|R-- .... ....|A-3 2F.F ....|--- .... ....
....|..|A-3 2F.F ....|A-3 2F.F ....|--- .... ....
....|..|--- .... ....|R-- .... ....|--- .... ....
....|..|A-4 2F.F ....|A-3 2F.A ....|--- .... ....
....|..|D-4 2F.A ....|R-- .... ....|--- .... ....
....|..|G-5 2F.7 ....|A-3 2F.7 ....|--- .... ....
....|..|D-4 2F.7 ....|R-- .... ....|--- .... ....
....|..|A-5 2F.7 ....|E-2 2F.F ....|--- .... ....
....|..|D-4 2F.7 ....|A-3 2F.F ....|--- .... ....
....|..|C-4 2F.7 ....|A-3 2F.F ....|--- .... ....
....|..|R-- .... ....|R-- .... ....|--- .... ....
....|..|D#5 2F.7 ....|E-2 2F.F ....|--- .... ....
....|..|A-2 2F.7 ....|R-- .... ....|--- .... ....
....|..|D-5 2F.7 ....|E-2 2F.F ....|--- .... ....
....|..|R-- .... ....|A-3 2F.7 ....|--- .... ....
....|..|A-3 2F.7 ....|C-3 2F2F ....|--- .... ....
....|..|--- .... ....|C-2 2F.F ....|--- .... ....
....|..|A-4 2F.7 ....|C-3 2F2F ....|--- .... ....
....|..|--- .... ....|C-2 2F.F ....|--- .... ....
....|..|D#4 2F.F ....|C-3 2F3F ....|--- .... ....
....|..|--- .... ....|A-3 2F.F ....|--- .... ....
....|..|R-- .... ....|A-3 2F.F ....|--- .... ....
....|..|--- .... ....|A-3 2F.7 ....|--- .... ....
....|..|D-4 2F.F ....|E-2 2F.F ....|--- .... ....
....|..|--- .... ....|R-- .... ....|--- .... ....
....|..|D-4 2F.F ....|A-3 2F.F ....|--- .... ....
....|..|C-4 2F.F ....|R-- .... ....|--- .... ....
....|..|R-- .... ....|E-2 2F.F ....|--- .... ....
....|..|--- .... ....|R-- .... ....|--- .... ....
....|..|A-3 2F.F ....|E-2 2F.F ....|--- .... ....
....|..|--- .... ....|A-3 2F.F ....|--- .... ....
....|..|E-5 2F.F ....|C-3 2F2F ....|--- .... ....
....|..|R-- .... ....|C-2 2F.F ....|--- .... ....
....|..|G-5 2F.F ....|D-3 2F1F ....|--- .... ....
....|..|A-2 2F.F ....|D-2 2F.F ....|--- .... ....
....|..|G-3 2F.F ....|D-3 2F4F ....|--- .... ....
....|..|--- .... ....|F-2 2F.F ....|--- .... ....
....|..|A-3 2F.F ....|D#3 2F1F ....|--- .... ....
....|..|A-3 2F.F ....|F-2 2F.F ....|--- .... ....
....|..|C-6 2F.F ....|E-2 2F.F ....|--- .... ....
....|..|C-4 2F.7 ....|A-3 2F.F ....|--- .... ....
....|..|R-- .... ....|A-4 2F.F ....|--- .... ....
....|..|--- .... ....|A-3 2F.F ....|--- .... ....
....|..|A-5 2F.F ....|E-2 2F.F ....|--- .... ....
....|..|R-- .... ....|A-3 2F.7 ....|--- .... ....
....|..|E-5 2F.7 ....|E-2 2F.F ....|--- .... ....
....|..|R-- .... ....|C-2 2F.7 ....|--- .... ....
....|..|G-5 2F.7 ....|C-3 2F2F ....|--- .... ....
....|..|A-2 2F.7 ....|C-2 2F.F ....|--- .... ....
....|..|G-3 2F.7 ....|C-3 2F2F ....|--- .... ....
....|..|A-3 2F.A ....|C-2 2F.F ....|--- .... ....
....|..|D#4 2F.F ....|C-3 2F3F ....|--- .... ....
....|..|A-3 2F.7 ....|A-3 2F.F ....|--- .... ....
....|..|C-6 2F.7 ....|A-3 2F.F ....|--- .... ....
....|..|R-- .... ....|A-3 2F.7 ....|--- .... ....
....|..|A-5 2F.A ....|E-2 2F.F ....|--- .... ....
....|..|R-- .... ....|A-3 2F.7 ....|--- .... ....
....|..|D-4 2F.F ....|A-3 2F.F ....|--- .... ....
....|..|R-- .... ....|R-- .... ....|--- .... ....
....|..|R-- .... ....|E-2 2F.F ....|--- .... ....
....|..|--- .... ....|R-- .... ....|--- .... ....
....|..|C-4 2F.F ....|E-2 2F.F ....|--- .... ....
....|..|--- .... ....|A-3 2F.F ....|--- .... ....
....|..|R-- .... ....|C-3 2F2F ....|--- .... ....
....|..|--- .... ....|C-2 2F.F ....|--- .... ....
....|..|D#4 2F.7 ....|C-3 2F3F ....|--- .... ....
....|..|--- .... ....|C-4 2F.F ....|--- .... ....
....|..|C-6 2F.F ....|A-3 2F.7 ....|--- .... ....
....|..|A-3 2F.F ....|R-- .... ....|--- .... ....
....|..|C-6 2F.F ....|E-2 2F.7 ....|--- .... ....
....|..|A-5 2F.F ....|R-- .... ....|--- .... ....

[Pattern42]
....|..|A-1 2F.F ....|E-2 2F.F ....|--- .... ....
....|..|--- .... ....|A-3 2F.F ....|--- .... ....
....|..|R-- .... ....|A-3 2F.F ....|--- .... ....
....|..|--- .... ....|R-- .... ....|--- .... ....
....|..|C-4 2F.7 ....|E-2 2F.F ....|--- .... ....
....|..|--- .... ....|A-3 2F.7 ....|--- .... ....
....|..|R-- .... ....|E-2 2F.F ....|--- .... ....
....|..|--- .... ....|C-2 2F.7 ....|--- .... ....
....|..|C-6 2F.A ....|C-3 2F2F ....|--- .... ....
....|..|A-3 2F.A ....|C-2 2F.F ....|--- .... ....
....|..|C-6 2F.7 ....|C-3 2F2F ....|--- .... ....
....|..|A-3 2F.7 ....|C-2 2F.F ....|--- .... ....
....|..|D#4 2F.F ....|C-3 2F3F ....|--- .... ....
....|..|A-5 2F.7 ....|A-3 2F.F ....|--- .... ....
....|..|A-1 2F.7 ....|A-3 2F.F ....|--- .... ....
....|..|--- .... ....|A-3 2F.7 ....|--- .... ....
....|..|D-4 2F.F ....|E-2 2F.F ....|--- .... ....
....|..|--- .... ....|R-- .... ....|--- .... ....
....|..|D-4 2F.F ....|A-3 2F.F ....|--- .... ....
....|..|C-4 2F.F ....|R-- .... ....|--- .... ....
....|..|R-- .... ....|E-2 2F.F ....|--- .... ....
....|..|--- .... ....|R-- .... ....|--- .... ....
....|..|A-3 2F.F ....|E-2 2F.F ....|--- .... ....
....|..|--- .... ....|A-3 2F.F ....|--- .... ....
....|..|R-- .... ....|C-3 2F2F ....|--- .... ....
....|..|--- .... ....|C-2 2F.F ....|--- .... ....
....|..|A-2 2F.F ....|D-3 2F1F ....|--- .... ....
....|..|R-- .... ....|D-2 2F.F ....|--- .... ....
....|..|G-3 2F.F ....|D-3 2F4F ....|--- .... ....
....|..|F-5 2F.F ....|F-2 2F.F ....|--- .... ....
....|..|A-5 2F.F ....|D#3 2F1F ....|--- .... ....
....|..|C-6 2F.F ....|F-2 2F.F ....|--- .... ....
....|..|C-7 2F.F ....|E-2 2F.F ....|--- .... ....
....|..|C-7 2F.F ....|A-4 2F.F ....|--- .... ....
....|..|A-3 2F.F ....|C-4 2F.F ....|--- .... ....
....|..|R-- .... ....|R-- .... ....|--- .... ....
....|..|A-2 2F.F ....|E-2 2F.F ....|--- .... ....
....|..|--- .... ....|A-3 2F.7 ....|--- .... ....
....|..|R-- .... ....|E-2 2F.F ....|--- .... ....
....|..|R-- .... ....|C-2 2F.7 ....|--- .... ....
....|..|A-2 2F.7 ....|C-3 2F2F ....|--- .... ....
....|..|R-- .... ....|C-2 2F.F ....|--- .... ....
....|..|G-3 2F.7 ....|C-3 2F2F ....|--- .... ....
....|..|D#4 2F.F ....|C-2 2F.F ....|--- .... ....
....|..|A-5 2F.7 ....|C-3 2F3F ....|--- .... ....
....|..|D#4 2F.F ....|A-3 2F.F ....|--- .... ....
....|..|C-7 2F.7 ....|A-3 2F.F ....|--- .... ....
....|..|C-7 2F.7 ....|A-4 2F.7 ....|--- .... ....
....|..|D#4 2F.F ....|E-2 2F.F ....|--- .... ....
....|..|R-- .... ....|R-- .... ....|--- .... ....
....|..|A-2 2F.7 ....|A-3 2F.F ....|--- .... ....
....|..|D-4 2F.F ....|R-- .... ....|--- .... ....
....|..|R-- .... ....|E-2 2F.F ....|--- .... ....
....|..|R-- .... ....|R-- .... ....|--- .... ....
....|..|D-4 2F.F ....|E-2 2F.F ....|--- .... ....
....|..|R-- .... ....|A-3 2F.F ....|--- .... ....
....|..|D#6 2F.F ....|C-3 2F2F ....|--- .... ....
....|..|D-4 2F.F ....|C-2 2F.F ....|--- .... ....
....|..|R-- .... ....|C-3 2F3F ....|--- .... ....
....|..|C-4 2F.F ....|A-3 2F.F ....|--- .... ....
....|..|A-5 2F.F ....|C-4 2F.F ....|--- .... ....
....|..|R-- .... ....|R-- .... ....|--- .... ....
....|..|C-4 2F.F ....|A-3 2F.F ....|--- .... ....
....|..|D-4 2F.A ....|R-- .... ....|--- .... ....
....|..|R-- .... ....|E-2 2F.F ....|B-4 2F.F ....
....|..|D-4 2F.7 ....|F-3 2F.F ....|--- .... ....
....|..|D-4 2F.A ....|F-3 2F.F ....|--- .... ....
....|..|R-- .... ....|R-- .... ....|--- .... ....
....|..|A-5 2F.F ....|E-3 2F1F ....|--- .... ....
....|..|R-- .... ....|F#2 2F.F ....|--- .... ....
....|..|D#6 2F.7 ....|E-2 2F.F ....|--- .... ....
....|..|D-4 2F.7 ....|C-2 2F.7 ....|--- .... ....
....|..|A-5 2F.A ....|C-3 2F2F ....|--- .... ....
....|..|C-4 2F.7 ....|C-2 2F.F ....|--- .... ....
....|..|A-5 2F.7 ....|C-3 2F2F ....|--- .... ....
....|..|R-- .... ....|C-2 2F.F ....|--- .... ....
....|..|D#4 2F.F ....|C-3 2FEF ....|B-4 2F.A ....
....|..|--- .... ....|F-3 2F.F ....|--- .... ....
....|..|R-- .... ....|C-3 2F3F ....|B-4 2F.7 ....
....|..|--- .... ....|F-3 2F.F ....|--- .... ....
....|..|D-4 2F.F ....|E-2 2F.F ....|--- .... ....
....|..|R-- .... ....|R-- .... ....|--- .... ....
....|..|D-4 2F.F ....|F-3 2F.F ....|--- .... ....
....|..|C-4 2F.F ....|F#2 2F.7 ....|B-4 2F.F ....
....|..|R-- .... ....|E-3 2F1F ....|A-4 2F.F ....
....|..|--- .... ....|F#2 2F.F ....|--- .... ....
....|..|A-5 2F.F ....|E-2 2F.F ....|--- .... ....
....|..|A-3 2F.F ....|F-3 2F.F ....|--- .... ....
....|..|R-- .... ....|C-3 2F2F ....|--- .... ....
....|..|--- .... ....|C-2 2F.F ....|--- .... ....
....|..|D#4 2F.7 ....|D-3 2F1F ....|--- .... ....
....|..|--- .... ....|D-2 2F.F ....|--- .... ....
....|..|F-4 2F.F ....|D-3 2FFF ....|--- .... ....
....|..|A-2 2F.F ....|F-3 2F7F ....|--- .... ....
....|..|A-3 2F.F ....|D#3 2F1F ....|A-4 2F.F ....
....|..|R-- .... ....|F-2 2F.F ....|B-4 2F.F ....
....|..|D-4 2F.7 ....|E-2 2F.F ....|B-4 2F.F ....
....|..|C-4 2F.7 ....|F-3 2F.F ....|B-4 2F.7 ....
....|..|R-- .... ....|F-4 2F.F ....|A-4 2F.7 ....
....|..|A-3 2F.A ....|F-3 2F.F ....|--- .... ....
....|..|A-5 2F.F ....|E-3 2F1F ....|--- .... ....
....|..|A-3 2F.F ....|F#2 2F.F ....|--- .... ....
....|..|R-- .... ....|E-2 2F.F ....|--- .... ....
....|..|--- .... ....|C-2 2F.7 ....|--- .... ....
....|..|F-4 2F.A ....|C-3 2F2F ....|--- .... ....
....|..|A-2 2F.A ....|C-2 2F.F ....|--- .... ....
....|..|F-4 2F.7 ....|C-3 2F2F ....|A-4 2F.A ....
....|..|A-2 2F.7 ....|C-2 2F.F ....|B-4 2F.A ....
....|..|D#4 2F.F ....|C-3 2FEF ....|A-4 2F.7 ....
....|..|R-- .... ....|F-3 2F.F ....|B-4 2F.7 ....
....|..|R-- .... ....|C-3 2F3F ....|B-4 2F.7 ....
....|..|--- .... ....|F-3 2F.F ....|--- .... ....
....|..|D-4 2F.F ....|E-2 2F.F ....|--- .... ....
....|..|A-3 2F.A ....|F-3 2F.7 ....|--- .... ....
....|..|F-4 2F.F ....|F-3 2F.F ....|--- .... ....
....|..|D-4 2F.F ....|F#2 2F.7 ....|--- .... ....
....|..|C-4 2F.F ....|E-3 2F1F ....|A-4 2F.F ....
....|..|R-- .... ....|F#2 2F.F ....|--- .... ....
....|..|A-5 2F.F ....|E-2 2F.F ....|--- .... ....
....|..|A-3 2F.F ....|F-3 2F.F ....|--- .... ....
....|..|R-- .... ....|C-3 2F2F ....|--- .... ....
....|..|R-- .... ....|C-2 2F.F ....|--- .... ....
....|..|F-4 2F.F ....|C-3 2F3F ....|--- .... ....
....|..|--- .... ....|F-4 2F.F ....|--- .... ....
....|..|G-4 2F.F ....|C-3 2FEF ....|--- .... ....
....|..|--- .... ....|F-3 2F.7 ....|A-4 2F.F ....
....|..|D-4 2F.7 ....|C-3 2F3F ....|A-4 2F.F ....
....|..|D-4 2F.A ....|R-- .... ....|B-4 2F.F ....

[Pattern43]
....|..|F-4 2F.7 ....|E-2 2F.F ....|A-4 2F.A ....
....|..|D-4 2F.7 ....|D-3 2F.F ....|--- .... ....
....|..|C-4 2F.7 ....|D-3 2F.F ....|A-4 2F.7 ....
....|..|R-- .... ....|F#2 2F.7 ....|--- .... ....
....|..|A-5 2F.F ....|E-3 2F1F ....|--- .... ....
....|..|A-3 2F.7 ....|F#2 2F.F ....|--- .... ....
....|..|R-- .... ....|E-2 2F.F ....|--- .... ....
....|..|R-- .... ....|C-2 2F.7 ....|--- .... ....
....|..|F-4 2F.7 ....|C-3 2F2F ....|--- .... ....
....|..|--- .... ....|C-2 2F.F ....|A-4 2F.A ....
....|..|G-4 2F.7 ....|C-3 2F2F ....|A-4 2F.A ....
....|..|--- .... ....|C-2 2F.F ....|A-4 2F.7 ....
....|..|D#4 2F.F ....|C-3 2FEF ....|A-4 2F.7 ....
....|..|--- .... ....|D-3 2F.F ....|B-4 2F.7 ....
....|..|R-- .... ....|C-3 2F3F ....|--- .... ....
....|..|--- .... ....|D-3 2F.F ....|--- .... ....
....|..|D-4 2F.F ....|E-2 2F.F ....|--- .... ....
....|..|R-- .... ....|R-- .... ....|--- .... ....
....|..|A-5 2F.F ....|D-3 2F.F ....|B-4 2F.F ....
....|..|C-4 2F.F ....|F#2 2F.7 ....|A-4 2F.F ....
....|..|R-- .... ....|E-3 2F1F ....|--- .... ....
....|..|--- .... ....|F#2 2F.F ....|--- .... ....
....|..|A-3 2F.F ....|E-2 2F.F ....|--- .... ....
....|..|D-4 2F.F ....|D-3 2F.F ....|--- .... ....
....|..|R-- .... ....|C-3 2F2F ....|--- .... ....
....|..|R-- .... ....|C-2 2F.F ....|--- .... ....
....|..|D#4 2F.7 ....|D-3 2F1F ....|--- .... ....
....|..|--- .... ....|D-2 2F.F ....|--- .... ....
....|..|A-5 2F.F ....|D-3 2FFF ....|--- .... ....
....|..|--- .... ....|F-3 2F7F ....|A-4 2F.F ....
....|..|D-4 2F.7 ....|D#3 2F1F ....|D-3 2F.F ....
....|..|C-4 2F.A ....|F-2 2F.F ....|A-4 2F.F ....
....|..|F-4 2F.F ....|E-2 2F.F ....|A-4 2F.F ....
....|..|A-2 2F.F ....|F-3 2F.F ....|A-4 2F.7 ....
....|..|G-3 2F.F ....|F-3 2F.F ....|--- .... ....
....|..|D-4 2F.A ....|F#2 2F.7 ....|--- .... ....
....|..|A-5 2F.F ....|E-3 2F1F ....|--- .... ....
....|..|D-4 2F.7 ....|F#2 2F.F ....|--- .... ....
....|..|A-2 2F.F ....|E-2 2F.F ....|--- .... ....
....|..|R-- .... ....|C-2 2F.7 ....|--- .... ....
....|..|F-4 2F.F ....|C-3 2F2F ....|--- .... ....
....|..|A-3 2F.F ....|C-2 2F.F ....|A-4 2F.A ....
....|..|A-5 2F.F ....|C-3 2F2F ....|D-3 2F.A ....
....|..|R-- .... ....|C-2 2F.F ....|A-4 2F.7 ....
....|..|A-2 2F.F ....|C-3 2FEF ....|D-3 2F.7 ....
....|..|R-- .... ....|F-3 2F.F ....|A-4 2F.F ....
....|..|C-4 2F.F ....|C-3 2F3F ....|A-4 2F.7 ....
....|..|A-2 2F.7 ....|F-3 2F.F ....|E-4 2F.F ....
....|..|G-3 2F.7 ....|E-2 2F.F ....|G-4 2F.F ....
....|..|R-- .... ....|R-- .... ....|--- .... ....
....|..|G-5 2F.F ....|E-3 2F.F ....|--- .... ....
....|..|A-2 2F.F ....|F#2 2F.7 ....|--- .... ....
....|..|A-3 2F.F ....|E-3 2F1F ....|--- .... ....
....|..|R-- .... ....|F#2 2F.F ....|--- .... ....
....|..|D#5 2F.F ....|E-2 2F.F ....|--- .... ....
....|..|A-2 2F.F ....|E-3 2F.F ....|--- .... ....
....|..|D-5 2F.F ....|C-3 2F2F ....|--- .... ....
....|..|G-3 2F.F ....|C-2 2F.F ....|A-4 2F.A ....
....|..|C-5 2F.F ....|C-3 2F3F ....|--- .... ....
....|..|A-3 2F.F ....|E-3 2F.F ....|A-4 2F.7 ....
....|..|C-4 2F.7 ....|C-3 2FEF ....|G-4 2F.A ....
....|..|--- .... ....|G#3 2F.F ....|E-4 2F.7 ....
....|..|A-4 2F.F ....|C-3 2F3F ....|G-4 2F.7 ....
....|..|A-3 2F.F ....|E-3 2F.F ....|--- .... ....
....|..|G-5 2F.7 ....|E-2 2F.F ....|--- .... ....
 F#3|..|A-2 2F.7 ....|F#1 2A.F ....|--- .... ....
 F#3|..|A-3 2F.7 ....|F#1 2A.F ....|--- .... ....
....|..|R-- .... ....|F#2 2F.7 ....|--- .... ....
....|..|D#5 2F.7 ....|E-2 2F.F ....|--- .... ....
....|..|A-2 2F.7 ....|E-3 2F.7 ....|--- .... ....
....|..|D-5 2F.7 ....|E-2 2F.F ....|--- .... ....
....|..|G-3 2F.7 ....|C-2 2F.7 ....|--- .... ....
....|..|C-5 2F.7 ....|C-3 2F.F ....|--- .... ....
....|..|A-3 2F.7 ....|C-2 2F.F ....|--- .... ....
....|..|R-- .... ....|C-3 2F2F ....|R-- .... ....
....|..|A-3 2F.A ....|C-2 2F.F ....|--- .... ....
....|..|A-4 2F.7 ....|C-3 2F3F ....|R-- .... ....
....|..|A-3 2F.7 ....|E-3 2F.7 ....|--- .... ....
....|..|R-- .... ....|E-2 2F.7 ....|--- .... ....
 F#3|..|--- .... ....|F#1 2F.7 ....|--- .... ....
....|..|--- .... ....|E-2 2F.F ....|--- .... ....
 F#3|..|--- .... ....|F#1 2A.F ....|--- .... ....
 F#3|..|--- .... ....|F#1 2A.F ....|--- .... ....
....|..|--- .... ....|R-- .... ....|--- .... ....
....|..|--- .... ....|E-2 2F.F ....|--- .... ....
....|..|--- .... ....|R-- .... ....|--- .... ....
....|..|--- .... ....|E-2 2F.F ....|--- .... ....
 F#3|..|--- .... ....|F#1 2A.F ....|--- .... ....
....|..|--- .... ....|C-3 2F.F ....|--- .... ....
....|..|--- .... ....|C-2 2F.F ....|--- .... ....
....|..|--- .... ....|D-3 2F1F ....|--- .... ....
....|..|--- .... ....|D-2 2F.F ....|--- .... ....
....|..|--- .... ....|D-3 2F4F ....|--- .... ....
....|..|--- .... ....|F-2 2F.F ....|--- .... ....
....|..|--- .... ....|D#3 2F1F ....|--- .... ....
....|..|--- .... ....|F-2 2F.F ....|--- .... ....
....|..|--- .... ....|E-2 2F.F ....|--- .... ....
....|..|--- .... ....|R-- .... ....|--- .... ....
....|..|--- .... ....|E-2 2F.7 ....|--- .... ....
....|..|--- .... ....|R-- .... ....|--- .... ....
....|..|--- .... ....|E-2 2F.F ....|--- .... ....
 E-3|..|--- .... ....|E-1 2A.F ....|--- .... ....
....|..|--- .... ....|E-2 2F.F ....|--- .... ....
 E-3|..|--- .... ....|E-1 2A.F ....|--- .... ....
....|..|--- .... ....|C-3 2F.F ....|--- .... ....
....|..|--- .... ....|C-2 2F.F ....|--- .... ....
....|..|--- .... ....|C-3 2F2F ....|--- .... ....
....|..|--- .... ....|C-2 2F.F ....|--- .... ....
....|..|--- .... ....|C-3 2F3F ....|--- .... ....
....|..|--- .... ....|F-2 2F.7 ....|--- .... ....
....|..|--- .... ....|E-2 2F.7 ....|--- .... ....
....|..|--- .... ....|R-- .... ....|--- .... ....
....|..|--- .... ....|E-3 2F4F ....|--- .... ....
....|..|--- .... ....|G-2 2F.F ....|--- .... ....
....|..|--- .... ....|G-2 2F.F ....|--- .... ....
 E-3|..|--- .... ....|E-1 2A.F ....|--- .... ....
....|..|--- .... ....|E-2 2F.F ....|--- .... ....
 E-3|..|--- .... ....|E-1 2F.7 ....|--- .... ....
....|..|--- .... ....|E-2 2F.F ....|--- .... ....
 E-4|..|--- .... ....|E-2 2A.F ....|--- .... ....
....|..|--- .... ....|C-3 2F.F ....|--- .... ....
....|..|--- .... ....|C-2 2F.F ....|--- .... ....
....|..|--- .... ....|C-3 2F3F ....|--- .... ....
 E-3|..|--- .... ....|E-1 2A.F ....|--- .... ....
 E-4|..|--- .... ....|E-2 2A.F ....|--- .... ....
 E-3|..|--- .... ....|E-1 2A.F ....|--- .... ....
 E-4|..|--- .... ....|E-2 2A.F ....|--- .... ....
....|..|--- .... ....|G-2 2F.7 ....|--- .... ....

[Pattern44]
....|..|--- .... ....|E-2 2F.F ....|--- .... ....
 D#3|..|--- .... ....|D#1 2A.F ....|--- .... ....
 D#3|..|--- .... ....|D#1 2A.F ....|--- .... ....
....|..|--- .... ....|R-- .... ....|--- .... ....
....|..|--- .... ....|E-2 2F.F ....|--- .... ....
 E-4|..|--- .... ....|E-2 2F.7 ....|--- .... ....
....|..|--- .... ....|E-2 2F.F ....|--- .... ....
....|..|--- .... ....|C-2 2F.7 ....|--- .... ....
....|..|--- .... ....|C-3 2F.F ....|--- .... ....
....|..|--- .... ....|C-2 2F.F ....|--- .... ....
....|..|--- .... ....|C-3 2F2F ....|--- .... ....
....|..|--- .... ....|C-2 2F.F ....|--- .... ....
....|..|--- .... ....|C-3 2F3F ....|--- .... ....
....|..|--- .... ....|R-- .... ....|--- .... ....
....|..|--- .... ....|E-2 2F.7 ....|--- .... ....
 D#3|..|--- .... ....|D#1 2F.7 ....|--- .... ....
....|..|--- .... ....|E-2 2F.F ....|--- .... ....
 D#3|..|--- .... ....|D#1 2A.F ....|--- .... ....
 D#3|..|--- .... ....|D#1 2A.F ....|--- .... ....
....|..|--- .... ....|R-- .... ....|--- .... ....
....|..|--- .... ....|E-2 2F.F ....|--- .... ....
....|..|--- .... ....|R-- .... ....|--- .... ....
....|..|--- .... ....|E-2 2F.F ....|--- .... ....
 D#3|..|--- .... ....|D#1 2A.F ....|--- .... ....
....|..|--- .... ....|C-3 2F.F ....|--- .... ....
....|..|--- .... ....|C-2 2F.F ....|--- .... ....
....|..|--- .... ....|D-3 2F1F ....|--- .... ....
....|..|--- .... ....|D-2 2F.F ....|--- .... ....
....|..|--- .... ....|D-3 2F4F ....|--- .... ....
....|..|--- .... ....|F-2 2F.F ....|--- .... ....
....|..|--- .... ....|D#3 2F1F ....|--- .... ....
....|..|--- .... ....|F-2 2F.F ....|--- .... ....
....|..|--- .... ....|E-2 2F.F ....|--- .... ....
....|..|--- .... ....|R-- .... ....|--- .... ....
....|..|--- .... ....|E-2 2F.7 ....|--- .... ....
....|..|--- .... ....|R-- .... ....|--- .... ....
....|..|--- .... ....|E-2 2F.F ....|--- .... ....
 B-3|..|--- .... ....|B-1 2A.F ....|--- .... ....
....|..|--- .... ....|E-2 2F.F ....|--- .... ....
 B-3|..|--- .... ....|B-1 2A.F ....|--- .... ....
....|..|--- .... ....|C-3 2F.F ....|--- .... ....
....|..|--- .... ....|C-2 2F.F ....|--- .... ....
....|..|--- .... ....|C-3 2F2F ....|--- .... ....
....|..|--- .... ....|C-2 2F.F ....|--- .... ....
....|..|--- .... ....|C-3 2F3F ....|--- .... ....
....|..|--- .... ....|F-2 2F.7 ....|--- .... ....
....|..|--- .... ....|E-2 2F.7 ....|--- .... ....
....|..|--- .... ....|R-- .... ....|--- .... ....
....|..|--- .... ....|E-3 2F4F ....|--- .... ....
....|..|--- .... ....|G-2 2F.F ....|--- .... ....
....|..|--- .... ....|G-2 2F.F ....|--- .... ....
 B-3|..|--- .... ....|B-1 2A.F ....|--- .... ....
....|..|--- .... ....|E-2 2F.F ....|--- .... ....
 B-3|..|--- .... ....|B-1 2F.7 ....|--- .... ....
....|..|--- .... ....|E-2 2F.F ....|--- .... ....
 B-4|..|--- .... ....|B-2 2A.F ....|--- .... ....
....|..|--- .... ....|C-3 2F.F ....|--- .... ....
....|..|--- .... ....|C-2 2F.F ....|--- .... ....
....|..|--- .... ....|C-3 2F3F ....|--- .... ....
 B-3|..|--- .... ....|B-1 2A.F ....|--- .... ....
 B-4|..|--- .... ....|B-2 2A.F ....|--- .... ....
 B-3|..|--- .... ....|B-1 2A.F ....|--- .... ....
 B-4|..|--- .... ....|B-2 2A.F ....|--- .... ....
....|..|--- .... ....|G-2 2F.7 ....|--- .... ....
....|..|--- .... ....|E-2 2F.F ....|--- .... ....
 F#3|..|--- .... ....|F#1 2A.F ....|--- .... ....
 F#3|..|--- .... ....|F#1 2A.F ....|--- .... ....
....|..|--- .... ....|R-- .... ....|--- .... ....
....|..|--- .... ....|E-2 2F.F ....|--- .... ....
 B-4|..|--- .... ....|B-2 2F.7 ....|--- .... ....
....|..|--- .... ....|E-2 2F.F ....|--- .... ....
....|..|--- .... ....|C-2 2F.7 ....|--- .... ....
....|..|--- .... ....|C-3 2F.F ....|--- .... ....
....|..|--- .... ....|C-2 2F.F ....|--- .... ....
....|..|--- .... ....|C-3 2F2F ....|--- .... ....
....|..|--- .... ....|C-2 2F.F ....|--- .... ....
....|..|--- .... ....|C-3 2F3F ....|--- .... ....
....|..|--- .... ....|R-- .... ....|--- .... ....
....|..|--- .... ....|E-2 2F.7 ....|--- .... ....
 F#3|..|--- .... ....|F#1 2F.7 ....|--- .... ....
....|..|--- .... ....|E-2 2F.F ....|--- .... ....
 F#3|..|--- .... ....|F#1 2A.F ....|--- .... ....
 F#3|..|--- .... ....|F#1 2A.F ....|--- .... ....
....|..|--- .... ....|R-- .... ....|--- .... ....
....|..|--- .... ....|E-2 2F.F ....|--- .... ....
....|..|--- .... ....|R-- .... ....|--- .... ....
....|..|--- .... ....|E-2 2F.F ....|--- .... ....
 F#3|..|--- .... ....|F#1 2A.F ....|--- .... ....
....|..|--- .... ....|C-3 2F.F ....|--- .... ....
....|..|--- .... ....|C-2 2F.F ....|--- .... ....
....|..|--- .... ....|D-3 2F1F ....|--- .... ....
....|..|--- .... ....|D-2 2F.F ....|--- .... ....
....|..|--- .... ....|D-3 2F4F ....|--- .... ....
....|..|--- .... ....|F-2 2F.F ....|--- .... ....
....|..|--- .... ....|D#3 2F1F ....|--- .... ....
....|..|--- .... ....|F-2 2F.F ....|--- .... ....
....|..|--- .... ....|E-2 2F.F ....|--- .... ....
....|..|--- .... ....|R-- .... ....|--- .... ....
....|..|--- .... ....|E-2 2F.7 ....|--- .... ....
....|..|--- .... ....|R-- .... ....|--- .... ....
....|..|--- .... ....|E-2 2F.F ....|--- .... ....
 E-3|..|--- .... ....|E-1 2A.F ....|--- .... ....
....|..|--- .... ....|E-2 2F.F ....|--- .... ....
 E-3|..|--- .... ....|E-1 2A.F ....|--- .... ....
....|..|--- .... ....|C-3 2F.F ....|--- .... ....
....|..|--- .... ....|C-2 2F.F ....|--- .... ....
....|..|--- .... ....|C-3 2F2F ....|--- .... ....
....|..|--- .... ....|C-2 2F.F ....|--- .... ....
....|..|--- .... ....|C-3 2F3F ....|--- .... ....
....|..|--- .... ....|F-2 2F.7 ....|--- .... ....
....|..|--- .... ....|E-2 2F.7 ....|--- .... ....
....|..|--- .... ....|R-- .... ....|--- .... ....
....|..|--- .... ....|E-3 2F4F ....|--- .... ....
....|..|--- .... ....|G-2 2F.F ....|--- .... ....
....|..|--- .... ....|G-2 2F.F ....|--- .... ....
 E-3|..|--- .... ....|E-1 2A.F ....|--- .... ....
....|..|--- .... ....|E-2 2F.F ....|--- .... ....
 E-3|..|--- .... ....|E-1 2F.7 ....|--- .... ....
....|..|--- .... ....|E-2 2F.F ....|--- .... ....
 E-4|..|--- .... ....|E-2 2A.F ....|--- .... ....
....|..|--- .... ....|C-3 2F.F ....|--- .... ....
....|..|--- .... ....|C-2 2F.F ....|--- .... ....
....|..|--- .... ....|C-3 2F3F ....|--- .... ....
 E-3|..|--- .... ....|E-1 2A.F ....|--- .... ....
 E-4|..|--- .... ....|E-2 2A.F ....|--- .... ....
 E-3|..|--- .... ....|E-1 2A.F ....|--- .... ....
 E-4|..|--- .... ....|E-2 2A.F ....|--- .... ....
....|..|--- .... ....|G-2 2F.7 ....|--- .... ....

[Pattern46]
....|..|--- .... ....|E-2 2F.F ....|--- .... ....
 D#3|..|--- .... ....|D#1 2A.F ....|--- .... ....
 D#3|..|--- .... ....|D#1 2A.F ....|--- .... ....
....|..|--- .... ....|R-- .... ....|--- .... ....
....|..|--- .... ....|E-2 2F.F ....|--- .... ....
 E-4|..|--- .... ....|E-2 2F.7 ....|--- .... ....
....|..|--- .... ....|E-2 2F.F ....|--- .... ....
....|..|--- .... ....|C-2 2F.7 ....|--- .... ....
....|..|--- .... ....|C-3 2F.F ....|--- .... ....
....|..|--- .... ....|C-2 2F.F ....|--- .... ....
....|..|--- .... ....|C-3 2F2F ....|--- .... ....
....|..|--- .... ....|C-2 2F.F ....|--- .... ....
....|..|--- .... ....|C-3 2F3F ....|--- .... ....
....|..|--- .... ....|R-- .... ....|--- .... ....
....|..|--- .... ....|E-2 2F.7 ....|--- .... ....
 D#3|..|--- .... ....|D#1 2F.7 ....|--- .... ....
....|..|--- .... ....|E-2 2F.F ....|--- .... ....
 D#3|..|--- .... ....|D#1 2A.F ....|--- .... ....
 D#3|..|--- .... ....|D#1 2A.F ....|--- .... ....
....|..|--- .... ....|R-- .... ....|--- .... ....
....|..|--- .... ....|E-2 2F.F ....|--- .... ....
....|..|--- .... ....|R-- .... ....|--- .... ....
....|..|--- .... ....|E-2 2F.F ....|--- .... ....
 D#3|..|--- .... ....|D#1 2A.F ....|--- .... ....
....|..|--- .... ....|C-3 2F.F ....|--- .... ....
....|..|--- .... ....|C-2 2F.F ....|--- .... ....
....|..|--- .... ....|D-3 2F1F ....|--- .... ....
....|..|--- .... ....|D-2 2F.F ....|--- .... ....
....|..|--- .... ....|D-3 2F4F ....|--- .... ....
....|..|--- .... ....|F-2 2F.F ....|--- .... ....
....|..|--- .... ....|D#3 2F1F ....|--- .... ....
....|..|--- .... ....|F-2 2F.F ....|--- .... ....
....|..|--- .... ....|E-2 2F.F ....|--- .... ....
....|..|--- .... ....|R-- .... ....|--- .... ....
....|..|--- .... ....|E-2 2F.7 ....|--- .... ....
....|..|--- .... ....|R-- .... ....|--- .... ....
....|..|--- .... ....|E-2 2F.F ....|--- .... ....
 B-3|..|--- .... ....|B-1 2A.F ....|--- .... ....
....|..|--- .... ....|E-2 2F.F ....|--- .... ....
 B-3|..|--- .... ....|B-1 2A.F ....|--- .... ....
....|..|--- .... ....|C-3 2F.F ....|--- .... ....
....|..|--- .... ....|C-2 2F.F ....|--- .... ....
....|..|--- .... ....|C-3 2F2F ....|--- .... ....
....|..|--- .... ....|C-2 2F.F ....|--- .... ....
....|..|--- .... ....|C-3 2F3F ....|--- .... ....
....|..|--- .... ....|F-2 2F.7 ....|--- .... ....
....|..|--- .... ....|E-2 2F.7 ....|--- .... ....
....|..|--- .... ....|R-- .... ....|--- .... ....
....|..|--- .... ....|E-3 2F4F ....|--- .... ....
....|..|--- .... ....|G-2 2F.F ....|--- .... ....
....|..|--- .... ....|G-2 2F.F ....|--- .... ....
 B-3|..|--- .... ....|B-1 2A.F ....|--- .... ....
....|..|--- .... ....|E-2 2F.F ....|--- .... ....
 B-3|..|--- .... ....|B-1 2F.7 ....|--- .... ....
....|..|--- .... ....|E-2 2F.F ....|--- .... ....
 B-4|..|--- .... ....|B-2 2A.F ....|--- .... ....
....|..|--- .... ....|C-3 2F.F ....|--- .... ....
....|..|--- .... ....|C-2 2F.F ....|--- .... ....
....|..|--- .... ....|C-3 2F3F ....|--- .... ....
 B-3|..|--- .... ....|B-1 2A.F ....|--- .... ....
 B-4|..|--- .... ....|B-2 2A.F ....|--- .... ....
 B-3|..|--- .... ....|B-1 2A.F ....|--- .... ....
 B-4|..|--- .... ....|B-2 2A.F ....|--- .... ....
....|..|--- .... ....|G-2 2F.7 ....|--- .... ....
....|..|C#4 2F.F ....|E-2 2F.F ....|C#4 2F.F ....
 F#3|..|R-- .... ....|F#1 2A.F ....|R-- .... ....
 F#3|..|F#1 2F.F ....|F#1 2A.F ....|F#1 2F.F ....
....|..|R-- .... ....|R-- .... ....|R-- .... ....
....|..|F#2 2F.F ....|E-2 2F.F ....|F#2 2F.F ....
 B-4|..|R-- .... ....|B-2 2F.7 ....|R-- .... ....
....|..|C#4 2F.F ....|E-2 2F.F ....|C#4 2F.F ....
....|..|R-- .... ....|C-2 2F.7 ....|R-- .... ....
....|..|F#2 2F.F ....|C-3 2F.F ....|F#2 2F.F ....
....|..|R-- .... ....|C-2 2F.F ....|R-- .... ....
....|..|C#4 2F.F ....|C-3 2F2F ....|C#4 2F.F ....
....|..|R-- .... ....|C-2 2F.F ....|R-- .... ....
....|..|C#4 2F.A ....|C-3 2F3F ....|C#4 2F.A ....
....|..|R-- .... ....|R-- .... ....|R-- .... ....
....|..|B-3 2F.F ....|E-2 2F.7 ....|B-3 2F.F ....
 F#3|..|R-- .... ....|F#1 2F.7 ....|R-- .... ....
....|..|F#1 2F.F ....|E-2 2F.F ....|F#1 2F.F ....
 F#3|..|R-- .... ....|F#1 2A.F ....|R-- .... ....
 F#3|..|F#2 2F.F ....|F#1 2A.F ....|F#2 2F.F ....
....|..|R-- .... ....|R-- .... ....|R-- .... ....
....|..|B-3 2F.F ....|E-2 2F.F ....|B-3 2F.F ....
....|..|R-- .... ....|R-- .... ....|R-- .... ....
....|..|F#2 2F.F ....|E-2 2F.F ....|F#2 2F.F ....
 F#3|..|R-- .... ....|F#1 2A.F ....|R-- .... ....
....|..|B-3 2F.F ....|C-3 2F.F ....|B-3 2F.F ....
....|..|R-- .... ....|C-2 2F.F ....|R-- .... ....
....|..|B-3 2F.A ....|D-3 2F1F ....|B-3 2F.A ....
....|..|R-- .... ....|D-2 2F.F ....|R-- .... ....
....|..|F#3 2F.F ....|D-3 2F4F ....|F#3 2F.F ....
....|..|R-- .... ....|F-2 2F.F ....|R-- .... ....
....|..|F#1 2F.7 ....|D#3 2F1F ....|F#1 2F.7 ....
....|..|R-- .... ....|F-2 2F.F ....|R-- .... ....
....|..|F#2 2F.7 ....|E-2 2F.F ....|F#2 2F.7 ....
....|..|R-- .... ....|R-- .... ....|R-- .... ....
....|..|C#4 2F.F ....|E-2 2F.7 ....|C#4 2F.F ....
....|..|R-- .... ....|R-- .... ....|R-- .... ....
....|..|E-2 2F.F ....|E-2 2F.F ....|E-2 2F.F ....
 E-3|..|R-- .... ....|E-1 2A.F ....|R-- .... ....
....|..|B-3 2F.7 ....|E-2 2F.F ....|B-3 2F.7 ....
 E-3|..|R-- .... ....|E-1 2A.F ....|R-- .... ....
....|..|E-2 2F.F ....|C-3 2F.F ....|E-2 2F.F ....
....|..|R-- .... ....|C-2 2F.F ....|R-- .... ....
....|..|C#4 2F.F ....|C-3 2F2F ....|C#4 2F.F ....
....|..|R-- .... ....|C-2 2F.F ....|R-- .... ....
....|..|--- .... ....|C-3 2F3F ....|--- .... ....
....|..|--- .... ....|F-2 2F.7 ....|--- .... ....
....|..|C#4 2F.A ....|E-2 2F.7 ....|C#4 2F.A ....
....|..|R-- .... ....|R-- .... ....|R-- .... ....
....|..|E-1 2F.F ....|E-3 2F4F ....|E-1 2F.F ....
....|..|R-- .... ....|G-2 2F.F ....|R-- .... ....
....|..|B-3 2F.F ....|G-2 2F.F ....|B-3 2F.F ....
 E-3|..|R-- .... ....|E-1 2A.F ....|R-- .... ....
....|..|E-2 2F.A ....|E-2 2F.F ....|E-2 2F.A ....
 E-3|..|R-- .... ....|E-1 2F.7 ....|R-- .... ....
....|..|B-3 2F.F ....|E-2 2F.F ....|B-3 2F.F ....
 E-4|..|R-- .... ....|E-2 2A.F ....|R-- .... ....
....|..|C#4 2F.7 ....|C-3 2F.F ....|C#4 2F.7 ....
....|..|R-- .... ....|C-2 2F.F ....|R-- .... ....
....|..|A#3 2F.F ....|C-3 2F3F ....|A#3 2F.F ....
 E-3|..|R-- .... ....|E-1 2A.F ....|R-- .... ....
 E-4|..|E-2 2F.F ....|E-2 2A.F ....|E-2 2F.F ....
 E-3|..|R-- .... ....|E-1 2A.F ....|R-- .... ....
 E-4|..|F#3 2F.F ....|E-2 2A.F ....|F#3 2F.F ....
....|..|R-- .... ....|G-2 2F.7 ....|R-- .... ....

[Pattern47]
....|..|F-4 2F.F ....|E-2 2F.F ....|F-4 2F.F ....
 D#3|..|R-- .... ....|D#1 2A.F ....|R-- .... ....
 D#3|..|D#4 2F.F ....|D#1 2A.F ....|D#4 2F.F ....
....|..|R-- .... ....|R-- .... ....|R-- .... ....
....|..|A#3 2F.F ....|E-2 2F.F ....|A#3 2F.F ....
 E-4|..|R-- .... ....|E-2 2F.7 ....|R-- .... ....
....|..|D#1 2F.F ....|E-2 2F.F ....|D#1 2F.F ....
....|..|R-- .... ....|C-2 2F.7 ....|R-- .... ....
....|..|D#2 2F.F ....|C-3 2F.F ....|D#2 2F.F ....
....|..|R-- .... ....|C-2 2F.F ....|R-- .... ....
....|..|E-2 2F.7 ....|C-3 2F2F ....|E-2 2F.7 ....
....|..|R-- .... ....|C-2 2F.F ....|R-- .... ....
....|..|F#3 2F.7 ....|C-3 2F3F ....|F#3 2F.7 ....
....|..|R-- .... ....|R-- .... ....|R-- .... ....
....|..|G#3 2F.F ....|E-2 2F.7 ....|G#3 2F.F ....
 D#3|..|R-- .... ....|D#1 2F.7 ....|R-- .... ....
....|..|A#3 2F.F ....|E-2 2F.F ....|A#3 2F.F ....
 D#3|..|R-- .... ....|D#1 2A.F ....|R-- .... ....
 D#3|..|D#4 2F.F ....|D#1 2A.F ....|D#4 2F.F ....
....|..|R-- .... ....|R-- .... ....|R-- .... ....
....|..|C#4 2F.F ....|E-2 2F.F ....|C#4 2F.F ....
....|..|R-- .... ....|R-- .... ....|R-- .... ....
....|..|D#2 2F.F ....|E-2 2F.F ....|D#2 2F.F ....
 D#3|..|R-- .... ....|D#1 2A.F ....|R-- .... ....
....|..|--- .... ....|C-3 2F.F ....|--- .... ....
....|..|--- .... ....|C-2 2F.F ....|--- .... ....
....|..|F-4 2F.F ....|D-3 2F1F ....|F-4 2F.F ....
....|..|R-- .... ....|D-2 2F.F ....|R-- .... ....
....|..|G#3 2F.7 ....|D-3 2F4F ....|G#3 2F.7 ....
....|..|R-- .... ....|F-2 2F.F ....|R-- .... ....
....|..|D#4 2F.F ....|D#3 2F1F ....|D#4 2F.F ....
....|..|R-- .... ....|F-2 2F.F ....|R-- .... ....
....|..|D#4 2F.7 ....|E-2 2F.F ....|D#4 2F.7 ....
....|..|R-- .... ....|R-- .... ....|R-- .... ....
....|..|B-1 2F.F ....|E-2 2F.7 ....|B-1 2F.F ....
....|..|R-- .... ....|R-- .... ....|R-- .... ....
....|..|F-4 2F.F ....|E-2 2F.F ....|F-4 2F.F ....
 B-3|..|R-- .... ....|B-1 2A.F ....|R-- .... ....
....|..|D#4 2F.F ....|E-2 2F.F ....|D#4 2F.F ....
 B-3|..|R-- .... ....|B-1 2A.F ....|R-- .... ....
....|..|B-2 2F.F ....|C-3 2F.F ....|B-2 2F.F ....
....|..|R-- .... ....|C-2 2F.F ....|R-- .... ....
....|..|B-3 2F.F ....|C-3 2F2F ....|B-3 2F.F ....
....|..|R-- .... ....|C-2 2F.F ....|R-- .... ....
....|..|D#4 2F.7 ....|C-3 2F3F ....|D#4 2F.7 ....
....|..|R-- .... ....|F-2 2F.7 ....|R-- .... ....
....|..|B-3 2F.F ....|E-2 2F.7 ....|B-3 2F.F ....
....|..|R-- .... ....|R-- .... ....|R-- .... ....
....|..|B-1 2F.F ....|E-3 2F4F ....|B-1 2F.F ....
....|..|R-- .... ....|G-2 2F.F ....|R-- .... ....
....|..|B-2 2F.F ....|G-2 2F.F ....|B-2 2F.F ....
 B-3|..|R-- .... ....|B-1 2A.F ....|R-- .... ....
....|..|B-3 2F.F ....|E-2 2F.F ....|B-3 2F.F ....
 B-3|..|R-- .... ....|B-1 2F.7 ....|R-- .... ....
....|..|B-2 2F.F ....|E-2 2F.F ....|B-2 2F.F ....
 B-4|..|R-- .... ....|B-2 2A.F ....|R-- .... ....
....|..|B-3 2F.F ....|C-3 2F.F ....|B-3 2F.F ....
....|..|R-- .... ....|C-2 2F.F ....|R-- .... ....
....|..|B-3 2F.A ....|C-3 2F3F ....|B-3 2F.A ....
 B-3|..|R-- .... ....|B-1 2A.F ....|R-- .... ....
 B-4|..|C#4 2F.F ....|B-2 2A.F ....|C#4 2F.F ....
 B-3|..|R-- .... ....|B-1 2A.F ....|R-- .... ....
 B-4|..|D#4 2F.F ....|B-2 2A.F ....|D#4 2F.F ....
....|..|R-- .... ....|G-2 2F.7 ....|R-- .... ....
....|..|C#4 2F.F ....|E-2 2F.F ....|C#4 2F.F ....
 F#3|..|R-- .... ....|F#1 2A.F ....|R-- .... ....
 F#3|..|F#1 2F.F ....|F#1 2A.F ....|F#1 2F.F ....
....|..|R-- .... ....|R-- .... ....|R-- .... ....
....|..|F#2 2F.F ....|E-3 2F1F ....|F#2 2F.F ....
....|..|R-- .... ....|F#2 2F.F ....|R-- .... ....
....|..|C#4 2F.F ....|E-2 2F.F ....|C#4 2F.F ....
....|..|R-- .... ....|C-2 2F.7 ....|R-- .... ....
....|..|F#2 2F.F ....|C-3 2F.F ....|F#2 2F.F ....
....|..|R-- .... ....|C-2 2F.F ....|R-- .... ....
....|..|C#4 2F.F ....|C-3 2F2F ....|C#4 2F.F ....
....|..|R-- .... ....|C-2 2F.F ....|R-- .... ....
....|..|D#4 2F.7 ....|C-3 2FEF ....|D#4 2F.7 ....
....|..|R-- .... ....|R-- .... ....|R-- .... ....
....|..|B-3 2F.F ....|C-3 2F3F ....|B-3 2F.F ....
 F#3|..|R-- .... ....|F#1 2F.7 ....|R-- .... ....
....|..|F#1 2F.F ....|E-2 2F.F ....|F#1 2F.F ....
 F#3|..|R-- .... ....|F#1 2A.F ....|R-- .... ....
 F#3|..|F#2 2F.F ....|F#1 2A.F ....|F#2 2F.F ....
....|..|R-- .... ....|F#2 2F.7 ....|R-- .... ....
....|..|B-3 2F.F ....|E-3 2F1F ....|B-3 2F.F ....
....|..|R-- .... ....|F#2 2F.F ....|R-- .... ....
....|..|F#2 2F.F ....|E-2 2F.F ....|F#2 2F.F ....
 F#3|..|R-- .... ....|F#1 2A.F ....|R-- .... ....
....|..|B-3 2F.F ....|C-3 2F.F ....|B-3 2F.F ....
....|..|R-- .... ....|C-2 2F.F ....|R-- .... ....
....|..|B-3 2F.A ....|D-3 2F1F ....|B-3 2F.A ....
....|..|R-- .... ....|D-2 2F.F ....|R-- .... ....
....|..|F#3 2F.F ....|D-3 2FFF ....|F#3 2F.F ....
....|..|R-- .... ....|F-3 2F7F ....|R-- .... ....
....|..|F#1 2F.7 ....|D#3 2F1F ....|F#1 2F.7 ....
....|..|R-- .... ....|F-2 2F.F ....|R-- .... ....
....|..|F#2 2F.7 ....|E-2 2F.F ....|F#2 2F.7 ....
....|..|R-- .... ....|R-- .... ....|R-- .... ....
....|..|C#4 2F.F ....|E-3 2F17 ....|C#4 2F.F ....
....|..|R-- .... ....|F#2 2F.7 ....|R-- .... ....
....|..|E-2 2F.F ....|E-3 2F1F ....|E-2 2F.F ....
....|..|R-- .... ....|F#2 2F.F ....|R-- .... ....
....|..|B-3 2F.7 ....|E-2 2F.F ....|B-3 2F.7 ....
 E-3|..|R-- .... ....|E-1 2A.F ....|R-- .... ....
....|..|E-2 2F.F ....|C-3 2F.F ....|E-2 2F.F ....
....|..|R-- .... ....|C-2 2F.F ....|R-- .... ....
....|..|C#4 2F.F ....|C-3 2F2F ....|C#4 2F.F ....
....|..|R-- .... ....|C-2 2F.F ....|R-- .... ....
....|..|--- .... ....|C-3 2FEF ....|--- .... ....
....|..|--- .... ....|F-2 2F.7 ....|--- .... ....
....|..|C#4 2F.A ....|C-3 2F3F ....|C#4 2F.A ....
....|..|R-- .... ....|R-- .... ....|R-- .... ....
....|..|E-1 2F.F ....|E-3 2F4F ....|E-1 2F.F ....
....|..|R-- .... ....|G-2 2F.F ....|R-- .... ....
....|..|B-3 2F.F ....|G-2 2F.F ....|B-3 2F.F ....
 E-3|..|R-- .... ....|E-1 2A.F ....|R-- .... ....
....|..|E-2 2F.A ....|E-3 2F1F ....|E-2 2F.A ....
....|..|R-- .... ....|F#2 2F.F ....|R-- .... ....
....|..|B-3 2F.F ....|E-2 2F.F ....|B-3 2F.F ....
 E-4|..|R-- .... ....|E-2 2A.F ....|R-- .... ....
....|..|C#4 2F.7 ....|C-3 2F.F ....|C#4 2F.7 ....
....|..|R-- .... ....|C-2 2F.F ....|R-- .... ....
....|..|A#3 2F.F ....|C-3 2F3F ....|A#3 2F.F ....
 E-3|..|R-- .... ....|E-1 2A.F ....|R-- .... ....
....|..|E-2 2F.F ....|C-3 2FEF ....|E-2 2F.F ....
 E-4|..|R-- .... ....|E-2 2A.F ....|R-- .... ....
....|..|F#3 2F.F ....|C-3 2F3F ....|F#3 2F.F ....
 E-4|..|R-- .... ....|E-2 2A.F ....|R-- .... ....

[Pattern48]
....|..|F-4 2F.F ....|E-2 2F.F ....|F-4 2F.F ....
 D#3|..|R-- .... ....|D#1 2A.F ....|R-- .... ....
 D#3|..|D#4 2F.F ....|D#1 2A.F ....|D#4 2F.F ....
....|..|R-- .... ....|F#2 2F.7 ....|R-- .... ....
....|..|A#3 2F.F ....|E-3 2F1F ....|A#3 2F.F ....
....|..|R-- .... ....|F#2 2F.F ....|R-- .... ....
....|..|D#1 2F.F ....|E-2 2F.F ....|D#1 2F.F ....
....|..|R-- .... ....|C-2 2F.7 ....|R-- .... ....
....|..|D#2 2F.F ....|C-3 2F.F ....|D#2 2F.F ....
....|..|R-- .... ....|C-2 2F.F ....|R-- .... ....
....|..|E-2 2F.7 ....|C-3 2F2F ....|E-2 2F.7 ....
....|..|R-- .... ....|C-2 2F.F ....|R-- .... ....
....|..|F#3 2F.7 ....|C-3 2FEF ....|F#3 2F.7 ....
 E-4|..|R-- .... ....|E-2 2F.7 ....|R-- .... ....
....|..|G#3 2F.F ....|C-3 2F3F ....|G#3 2F.F ....
 D#3|..|R-- .... ....|D#1 2F.7 ....|R-- .... ....
....|..|A#3 2F.F ....|E-2 2F.F ....|A#3 2F.F ....
 D#3|..|R-- .... ....|D#1 2A.F ....|R-- .... ....
 D#3|..|D#4 2F.F ....|D#1 2A.F ....|D#4 2F.F ....
....|..|R-- .... ....|F#2 2F.7 ....|R-- .... ....
....|..|C#4 2F.F ....|E-3 2F1F ....|C#4 2F.F ....
....|..|R-- .... ....|F#2 2F.F ....|R-- .... ....
....|..|D#2 2F.F ....|E-2 2F.F ....|D#2 2F.F ....
 D#3|..|R-- .... ....|D#1 2A.F ....|R-- .... ....
....|..|--- .... ....|C-3 2F.F ....|--- .... ....
....|..|--- .... ....|C-2 2F.F ....|--- .... ....
....|..|F-4 2F.F ....|D-3 2F1F ....|F-4 2F.F ....
....|..|R-- .... ....|D-2 2F.F ....|R-- .... ....
....|..|G#3 2F.7 ....|D-3 2FFF ....|G#3 2F.7 ....
....|..|R-- .... ....|F-3 2F7F ....|R-- .... ....
....|..|D#4 2F.F ....|D#3 2F1F ....|D#4 2F.F ....
....|..|R-- .... ....|F-2 2F.F ....|R-- .... ....
....|..|D#4 2F.7 ....|E-2 2F.F ....|D#4 2F.7 ....
....|..|R-- .... ....|R-- .... ....|R-- .... ....
....|..|B-1 2F.F ....|E-3 2F17 ....|B-1 2F.F ....
....|..|R-- .... ....|F#2 2F.7 ....|R-- .... ....
....|..|F-4 2F.F ....|E-3 2F1F ....|F-4 2F.F ....
....|..|R-- .... ....|F#2 2F.F ....|R-- .... ....
....|..|D#4 2F.F ....|E-2 2F.F ....|D#4 2F.F ....
 B-3|..|R-- .... ....|B-1 2A.F ....|R-- .... ....
....|..|B-2 2F.F ....|C-3 2F.F ....|B-2 2F.F ....
....|..|R-- .... ....|C-2 2F.F ....|R-- .... ....
....|..|B-3 2F.F ....|C-3 2F2F ....|B-3 2F.F ....
....|..|R-- .... ....|C-2 2F.F ....|R-- .... ....
....|..|D#4 2F.7 ....|C-3 2FEF ....|D#4 2F.7 ....
....|..|R-- .... ....|F-2 2F.7 ....|R-- .... ....
....|..|B-3 2F.F ....|C-3 2F3F ....|B-3 2F.F ....
....|..|R-- .... ....|R-- .... ....|R-- .... ....
....|..|B-1 2F.F ....|E-3 2F4F ....|B-1 2F.F ....
....|..|R-- .... ....|G-2 2F.F ....|R-- .... ....
....|..|B-2 2F.F ....|G-2 2F.F ....|B-2 2F.F ....
 B-3|..|R-- .... ....|B-1 2A.F ....|R-- .... ....
....|..|B-3 2F.F ....|E-3 2F1F ....|B-3 2F.F ....
....|..|R-- .... ....|F#2 2F.F ....|R-- .... ....
....|..|B-2 2F.F ....|E-2 2F.F ....|B-2 2F.F ....
 B-4|..|R-- .... ....|B-2 2A.F ....|R-- .... ....
....|..|B-3 2F.F ....|C-3 2F.F ....|B-3 2F.F ....
....|..|R-- .... ....|C-2 2F.F ....|R-- .... ....
....|..|B-3 2F.A ....|C-3 2F3F ....|B-3 2F.A ....
 B-3|..|R-- .... ....|B-1 2A.F ....|R-- .... ....
....|..|C#4 2F.F ....|C-3 2FEF ....|C#4 2F.F ....
 B-4|..|R-- .... ....|B-2 2A.F ....|R-- .... ....
....|..|D#4 2F.F ....|C-3 2F3F ....|D#4 2F.F ....
 B-4|..|R-- .... ....|B-2 2A.F ....|R-- .... ....
....|..|C#4 2F.F ....|E-2 2F.F ....|C#4 2F.F ....
 F#3|..|R-- .... ....|F#1 2A.F ....|R-- .... ....
 F#3|..|F#1 2F.F ....|F#1 2A.F ....|F#1 2F.F ....
....|..|R-- .... ....|F#2 2F.7 ....|R-- .... ....
....|..|F#2 2F.F ....|E-3 2F1F ....|F#2 2F.F ....
....|..|R-- .... ....|F#2 2F.F ....|R-- .... ....
....|..|C#4 2F.F ....|E-2 2F.F ....|C#4 2F.F ....
....|..|R-- .... ....|C-2 2F.7 ....|R-- .... ....
....|..|F#2 2F.F ....|C-3 2F.F ....|F#2 2F.F ....
....|..|R-- .... ....|C-2 2F.F ....|R-- .... ....
....|..|C#4 2F.F ....|C-3 2F2F ....|C#4 2F.F ....
....|..|R-- .... ....|C-2 2F.F ....|R-- .... ....
....|..|D#4 2F.7 ....|C-3 2FEF ....|D#4 2F.7 ....
 B-4|..|R-- .... ....|B-2 2F.7 ....|R-- .... ....
....|..|B-3 2F.F ....|C-3 2F3F ....|B-3 2F.F ....
 F#3|..|R-- .... ....|F#1 2F.7 ....|R-- .... ....
....|..|F#1 2F.F ....|E-2 2F.F ....|F#1 2F.F ....
 F#3|..|R-- .... ....|F#1 2A.F ....|R-- .... ....
 F#3|..|F#2 2F.F ....|F#1 2A.F ....|F#2 2F.F ....
....|..|R-- .... ....|F#2 2F.7 ....|R-- .... ....
....|..|B-3 2F.F ....|E-3 2F1F ....|B-3 2F.F ....
....|..|R-- .... ....|F#2 2F.F ....|R-- .... ....
....|..|F#2 2F.F ....|E-2 2F.F ....|F#2 2F.F ....
 F#3|..|R-- .... ....|F#1 2A.F ....|R-- .... ....
....|..|B-3 2F.F ....|C-3 2F.F ....|B-3 2F.F ....
....|..|R-- .... ....|C-2 2F.F ....|R-- .... ....
....|..|B-3 2F.A ....|D-3 2F1F ....|B-3 2F.A ....
....|..|R-- .... ....|D-2 2F.F ....|R-- .... ....
....|..|F#3 2F.F ....|D-3 2FFF ....|F#3 2F.F ....
....|..|R-- .... ....|F-3 2F7F ....|R-- .... ....
....|..|F#1 2F.7 ....|D#3 2F1F ....|F#1 2F.7 ....
....|..|R-- .... ....|F-2 2F.F ....|R-- .... ....
....|..|F#2 2F.7 ....|E-2 2F.F ....|F#2 2F.7 ....
....|..|R-- .... ....|R-- .... ....|R-- .... ....
....|..|C#4 2F.F ....|E-3 2F17 ....|C#4 2F.F ....
....|..|R-- .... ....|F#2 2F.7 ....|R-- .... ....
....|..|E-2 2F.F ....|E-3 2F1F ....|E-2 2F.F ....
....|..|R-- .... ....|F#2 2F.F ....|R-- .... ....
....|..|B-3 2F.7 ....|E-2 2F.F ....|B-3 2F.7 ....
 E-3|..|R-- .... ....|E-1 2A.F ....|R-- .... ....
....|..|E-2 2F.F ....|C-3 2F.F ....|E-2 2F.F ....
....|..|R-- .... ....|C-2 2F.F ....|R-- .... ....
....|..|C#4 2F.F ....|C-3 2F2F ....|C#4 2F.F ....
....|..|R-- .... ....|C-2 2F.F ....|R-- .... ....
....|..|--- .... ....|C-3 2FEF ....|--- .... ....
....|..|--- .... ....|F-2 2F.7 ....|--- .... ....
....|..|C#4 2F.A ....|C-3 2F3F ....|C#4 2F.A ....
....|..|R-- .... ....|R-- .... ....|R-- .... ....
....|..|E-1 2F.F ....|E-3 2F4F ....|E-1 2F.F ....
....|..|R-- .... ....|G-2 2F.F ....|R-- .... ....
....|..|B-3 2F.F ....|G-2 2F.F ....|B-3 2F.F ....
 E-3|..|R-- .... ....|E-1 2A.F ....|R-- .... ....
....|..|E-2 2F.A ....|E-3 2F1F ....|E-2 2F.A ....
....|..|R-- .... ....|F#2 2F.F ....|R-- .... ....
....|..|B-3 2F.F ....|E-2 2F.F ....|B-3 2F.F ....
 E-4|..|R-- .... ....|E-2 2A.F ....|R-- .... ....
....|..|C#4 2F.7 ....|C-3 2F.F ....|C#4 2F.7 ....
....|..|R-- .... ....|C-2 2F.F ....|R-- .... ....
....|..|A#3 2F.F ....|C-3 2F3F ....|A#3 2F.F ....
 E-3|..|R-- .... ....|E-1 2A.F ....|R-- .... ....
....|..|E-2 2F.F ....|C-3 2FEF ....|E-2 2F.F ....
 E-4|..|R-- .... ....|E-2 2A.F ....|R-- .... ....
....|..|F#3 2F.F ....|C-3 2F3F ....|F#3 2F.F ....
 E-4|..|R-- .... ....|E-2 2A.F ....|R-- .... ....

[Pattern49]
....|..|F-4 2F.F ....|E-2 2F.F ....|F-4 2F.F ....
 D#3|..|R-- .... ....|D#1 2A.F ....|R-- .... ....
 D#3|..|D#4 2F.F ....|D#1 2A.F ....|D#4 2F.F ....
....|..|R-- .... ....|F#2 2F.7 ....|R-- .... ....
....|..|A#3 2F.F ....|E-3 2F1F ....|A#3 2F.F ....
....|..|R-- .... ....|F#2 2F.F ....|R-- .... ....
....|..|D#1 2F.F ....|E-2 2F.F ....|D#1 2F.F ....
....|..|R-- .... ....|C-2 2F.7 ....|R-- .... ....
....|..|D#2 2F.F ....|C-3 2F.F ....|D#2 2F.F ....
....|..|R-- .... ....|C-2 2F.F ....|R-- .... ....
....|..|E-2 2F.7 ....|C-3 2F2F ....|E-2 2F.7 ....
....|..|R-- .... ....|C-2 2F.F ....|R-- .... ....
....|..|F#3 2F.7 ....|C-3 2FEF ....|F#3 2F.7 ....
 E-4|..|R-- .... ....|E-2 2F.7 ....|R-- .... ....
....|..|G#3 2F.F ....|C-3 2F3F ....|G#3 2F.F ....
 D#3|..|R-- .... ....|D#1 2F.7 ....|R-- .... ....
....|..|A#3 2F.F ....|E-2 2F.F ....|A#3 2F.F ....
 D#3|..|R-- .... ....|D#1 2A.F ....|R-- .... ....
 D#3|..|D#4 2F.F ....|D#1 2A.F ....|D#4 2F.F ....
....|..|R-- .... ....|F#2 2F.7 ....|R-- .... ....
....|..|C#4 2F.F ....|E-3 2F1F ....|C#4 2F.F ....
....|..|R-- .... ....|F#2 2F.F ....|R-- .... ....
....|..|D#2 2F.F ....|E-2 2F.F ....|D#2 2F.F ....
 D#3|..|R-- .... ....|D#1 2A.F ....|R-- .... ....
....|..|--- .... ....|C-3 2F.F ....|--- .... ....
....|..|--- .... ....|C-2 2F.F ....|--- .... ....
....|..|F-4 2F.F ....|D-3 2F1F ....|F-4 2F.F ....
....|..|R-- .... ....|D-2 2F.F ....|R-- .... ....
....|..|G#3 2F.7 ....|D-3 2FFF ....|G#3 2F.7 ....
....|..|R-- .... ....|F-3 2F7F ....|R-- .... ....
....|..|D#4 2F.F ....|D#3 2F1F ....|D#4 2F.F ....
....|..|R-- .... ....|F-2 2F.F ....|R-- .... ....
....|..|D#4 2F.7 ....|E-2 2F.F ....|D#4 2F.7 ....
....|..|R-- .... ....|R-- .... ....|R-- .... ....
....|..|B-1 2F.F ....|E-3 2F17 ....|B-1 2F.F ....
....|..|R-- .... ....|F#2 2F.7 ....|R-- .... ....
....|..|F-4 2F.F ....|E-3 2F1F ....|F-4 2F.F ....
....|..|R-- .... ....|F#2 2F.F ....|R-- .... ....
....|..|D#4 2F.F ....|E-2 2F.F ....|D#4 2F.F ....
 B-3|..|R-- .... ....|B-1 2A.F ....|R-- .... ....
....|..|B-2 2F.F ....|C-3 2F.F ....|B-2 2F.F ....
....|..|R-- .... ....|C-2 2F.F ....|R-- .... ....
....|..|B-3 2F.F ....|C-3 2F2F ....|B-3 2F.F ....
....|..|R-- .... ....|C-2 2F.F ....|R-- .... ....
....|..|D#4 2F.7 ....|C-3 2FEF ....|D#4 2F.7 ....
....|..|R-- .... ....|F-2 2F.7 ....|R-- .... ....
....|..|B-3 2F.F ....|C-3 2F3F ....|B-3 2F.F ....
....|..|R-- .... ....|R-- .... ....|R-- .... ....
....|..|B-1 2F.F ....|E-3 2F4F ....|B-1 2F.F ....
....|..|R-- .... ....|G-2 2F.F ....|R-- .... ....
....|..|B-2 2F.F ....|G-2 2F.F ....|B-2 2F.F ....
 B-3|..|R-- .... ....|B-1 2A.F ....|R-- .... ....
....|..|B-3 2F.F ....|E-3 2F1F ....|B-3 2F.F ....
....|..|R-- .... ....|F#2 2F.F ....|R-- .... ....
....|..|B-2 2F.F ....|E-2 2F.F ....|B-2 2F.F ....
 B-4|..|R-- .... ....|B-2 2A.F ....|R-- .... ....
....|..|B-3 2F.F ....|C-3 2F.F ....|B-3 2F.F ....
....|..|R-- .... ....|C-2 2F.F ....|R-- .... ....
....|..|B-3 2F.A ....|C-3 2F3F ....|B-3 2F.A ....
 B-3|..|R-- .... ....|B-1 2A.F ....|R-- .... ....
....|..|C#4 2F.F ....|C-3 2FEF ....|C#4 2F.F ....
 B-4|..|R-- .... ....|B-2 2A.F ....|R-- .... ....
....|..|D#4 2F.F ....|C-3 2F3F ....|D#4 2F.F ....
 B-4|..|R-- .... ....|B-2 2A.F ....|R-- .... ....
 F#4|..|B-2 2F.7 ....|F#4 2C.F ....|B-2 2F.7 ....
....|..|R-- .... ....|E-2 2F.F ....|R-- .... ....
 F#4|..|B-3 2F.7 ....|F#2 2A.F ....|B-3 2F.7 ....
....|..|R-- .... ....|F#2 2F.7 ....|R-- .... ....
 F#4|..|B-2 2F.7 ....|F#3 2C.F ....|B-2 2F.7 ....
 F#4|..|R-- .... ....|F#3 2C.F ....|R-- .... ....
 C#4|..|B-3 2F.7 ....|C#4 2C.F ....|B-3 2F.7 ....
....|..|R-- .... ....|E-3 2F1F ....|R-- .... ....
 F#4|..|C#4 2F.A ....|F#3 2C.F ....|C#4 2F.A ....
....|..|R-- .... ....|E-2 2F.F ....|R-- .... ....
 G#4|..|C#4 2F.7 ....|G#4 2C.F ....|C#4 2F.7 ....
....|..|R-- .... ....|C-3 2F.F ....|R-- .... ....
 A#3|..|D#4 2F.7 ....|A#4 2C.F ....|D#4 2F.7 ....
....|..|R-- .... ....|C-3 2F2F ....|R-- .... ....
 F#4|..|--- .... ....|F#2 2A.F ....|--- .... ....
 F#4|..|--- .... ....|F#2 2A.F ....|--- .... ....
 F#4|..|--- .... ....|F#2 2A.F ....|--- .... ....
....|..|--- .... ....|C-3 2F3F ....|--- .... ....
 F#4|..|--- .... ....|F#3 2C.F ....|--- .... ....
....|..|--- .... ....|E-2 2F.F ....|--- .... ....
 C#4|..|--- .... ....|C#4 2C.F ....|--- .... ....
....|..|--- .... ....|E-3 2F1F ....|--- .... ....
 F#4|..|--- .... ....|F#4 2C.F ....|--- .... ....
....|..|--- .... ....|F#2 2F.F ....|--- .... ....
 A#3|..|--- .... ....|A#3 2C.F ....|--- .... ....
....|..|--- .... ....|E-2 2F.F ....|--- .... ....
 F#4|..|--- .... ....|F#2 2A.F ....|--- .... ....
....|..|--- .... ....|C-3 2F.F ....|--- .... ....
 G#4|..|--- .... ....|G#3 2C.F ....|--- .... ....
....|..|--- .... ....|D-3 2F1F ....|--- .... ....
 F#4|..|--- .... ....|F#3 2C.F ....|--- .... ....
....|..|--- .... ....|D-3 2FFF ....|--- .... ....
....|..|--- .... ....|F-3 2F7F ....|--- .... ....
....|..|--- .... ....|D#3 2F1F ....|--- .... ....
 E-4|..|--- .... ....|E-3 2C.F ....|--- .... ....
....|..|--- .... ....|E-2 2F.F ....|--- .... ....
 E-4|..|--- .... ....|E-2 2A.F ....|--- .... ....
....|..|--- .... ....|E-3 2F1F ....|--- .... ....
 E-4|..|--- .... ....|E-2 2A.F ....|--- .... ....
....|..|--- .... ....|F#2 2F.F ....|--- .... ....
 F#4|..|--- .... ....|F#3 2C.F ....|--- .... ....
....|..|--- .... ....|E-2 2F.F ....|--- .... ....
 E-4|..|--- .... ....|E-2 2A.F ....|--- .... ....
....|..|--- .... ....|C-3 2F.F ....|--- .... ....
 E-4|..|--- .... ....|E-2 2A.F ....|--- .... ....
....|..|--- .... ....|C-3 2F2F ....|--- .... ....
 A#3|..|--- .... ....|A#3 2C.F ....|--- .... ....
....|..|--- .... ....|C-3 2FEF ....|--- .... ....
....|..|--- .... ....|C-3 2F3F ....|--- .... ....
....|..|--- .... ....|E-3 2F4F ....|--- .... ....
 B-5|..|--- .... ....|B-3 2C.F ....|--- .... ....
....|..|--- .... ....|G-2 2F.F ....|--- .... ....
 E-4|..|--- .... ....|E-2 2A.F ....|--- .... ....
....|..|--- .... ....|G-2 2F.F ....|--- .... ....
 A#3|..|--- .... ....|A#4 2C.F ....|--- .... ....
....|..|--- .... ....|E-3 2F1F ....|--- .... ....
 B-4|..|--- .... ....|B-4 2C.F ....|--- .... ....
....|..|--- .... ....|E-2 2F.F ....|--- .... ....
 E-4|..|--- .... ....|E-2 2A.F ....|--- .... ....
....|..|--- .... ....|C-3 2F.F ....|--- .... ....
 B-4|..|--- .... ....|B-4 2C.F ....|--- .... ....
....|..|--- .... ....|C-3 2F3F ....|--- .... ....
 A#3|..|--- .... ....|A#4 2C.F ....|--- .... ....
....|..|--- .... ....|C-3 2FEF ....|--- .... ....

[Pattern50]
....|..|--- .... ....|C-3 2F3F ....|--- .... ....
....|..|--- .... ....|E-2 2F.F ....|--- .... ....
 G#4|..|--- .... ....|G#4 2C.F ....|--- .... ....
....|..|--- .... ....|G-2 2F.7 ....|--- .... ....
 F#4|..|--- .... ....|F#4 2C.F ....|--- .... ....
....|..|--- .... ....|E-3 2F1F ....|--- .... ....
 D#4|..|--- .... ....|D#2 2A.F ....|--- .... ....
 D#4|..|--- .... ....|D#2 2A.F ....|--- .... ....
 D#4|..|--- .... ....|D#2 2A.F ....|--- .... ....
....|..|--- .... ....|E-2 2F.F ....|--- .... ....
 D#4|..|--- .... ....|D#4 2C.F ....|--- .... ....
....|..|--- .... ....|C-3 2F.F ....|--- .... ....
 D#4|..|--- .... ....|D#2 2A.F ....|--- .... ....
....|..|--- .... ....|C-3 2F2F ....|--- .... ....
 A#3|..|--- .... ....|A#3 2C.F ....|--- .... ....
....|..|--- .... ....|C-3 2FEF ....|--- .... ....
 D#4|..|--- .... ....|D#2 2A.F ....|--- .... ....
....|..|--- .... ....|C-3 2F3F ....|--- .... ....
 F#4|..|--- .... ....|F#3 2C.F ....|--- .... ....
 F#4|..|--- .... ....|F#3 2C.F ....|--- .... ....
 F#4|..|--- .... ....|F#3 2C.F ....|--- .... ....
....|..|--- .... ....|E-3 2F1F ....|--- .... ....
 F#4|..|--- .... ....|F#3 2C.F ....|--- .... ....
....|..|--- .... ....|F#2 2F.F ....|--- .... ....
 F-4|..|--- .... ....|F-4 2C.F ....|--- .... ....
....|..|--- .... ....|E-2 2F.F ....|--- .... ....
 D#4|..|--- .... ....|D#4 2C.F ....|--- .... ....
....|..|--- .... ....|C-3 2F.F ....|--- .... ....
 A#3|..|--- .... ....|A#3 2C.F ....|--- .... ....
....|..|--- .... ....|D-3 2F1F ....|--- .... ....
 F#4|..|--- .... ....|F#3 2C.F ....|--- .... ....
....|..|--- .... ....|D-3 2FFF ....|--- .... ....
 B-3|..|--- .... ....|B-1 2A.F ....|--- .... ....
....|..|--- .... ....|D#3 2F1F ....|--- .... ....
 B-4|..|--- .... ....|B-2 2A.F ....|--- .... ....
....|..|--- .... ....|E-2 2F.F ....|--- .... ....
 B-5|..|--- .... ....|B-3 2C.F ....|--- .... ....
....|..|--- .... ....|E-3 2F1F ....|--- .... ....
 B-3|..|--- .... ....|B-1 2A.F ....|--- .... ....
....|..|--- .... ....|F#2 2F.F ....|--- .... ....
 C#4|..|--- .... ....|C#4 2C.F ....|--- .... ....
....|..|--- .... ....|E-2 2F.F ....|--- .... ....
 D#4|..|--- .... ....|D#4 2C.F ....|--- .... ....
....|..|--- .... ....|C-3 2F.F ....|--- .... ....
 B-3|..|--- .... ....|B-1 2A.F ....|--- .... ....
....|..|--- .... ....|C-3 2F2F ....|--- .... ....
 F#4|..|--- .... ....|F#4 2C.F ....|--- .... ....
....|..|--- .... ....|C-3 2FEF ....|--- .... ....
 B-3|..|--- .... ....|B-1 2A.F ....|--- .... ....
 B-3|..|--- .... ....|B-1 2A.F ....|--- .... ....
 B-3|..|--- .... ....|B-1 2A.F ....|--- .... ....
....|..|--- .... ....|E-3 2F4F ....|--- .... ....
 A#3|..|--- .... ....|A#4 2C.F ....|--- .... ....
....|..|--- .... ....|G-2 2F.F ....|--- .... ....
 B-4|..|--- .... ....|B-2 2A.F ....|--- .... ....
....|..|--- .... ....|E-3 2F1F ....|--- .... ....
 F#4|..|--- .... ....|F#4 2C.F ....|--- .... ....
....|..|--- .... ....|E-2 2F.F ....|--- .... ....
 B-3|..|--- .... ....|B-1 2A.F ....|--- .... ....
....|..|--- .... ....|C-3 2F.F ....|--- .... ....
 C#4|..|--- .... ....|C#4 2C.F ....|--- .... ....
....|..|--- .... ....|C-3 2F3F ....|--- .... ....
 F#4|..|--- .... ....|F#4 2C.F ....|--- .... ....
....|..|--- .... ....|C-3 2FEF ....|--- .... ....
 F#4|..|F#4 2F.F ....|F#4 2C.F ....|--- .... ....
....|..|R-- .... ....|C-3 2F3F ....|--- .... ....
 F#4|..|F#2 2F.F ....|F#2 2A.F ....|--- .... ....
....|..|--- .... ....|E-2 2F.F ....|--- .... ....
 F#4|..|F#3 2F.F ....|F#3 2C.F ....|--- .... ....
 F#4|..|F#3 2F.F ....|F#3 2C.F ....|--- .... ....
 C#4|..|C#4 2F.F ....|C#4 2C.F ....|--- .... ....
....|..|R-- .... ....|E-3 2F1F ....|--- .... ....
 F#4|..|F#3 2F.F ....|F#3 2C.F ....|--- .... ....
....|..|R-- .... ....|E-2 2F.F ....|--- .... ....
 G#4|..|G#4 2F.F ....|G#4 2C.F ....|--- .... ....
....|..|--- .... ....|C-3 2F.F ....|--- .... ....
 A#3|..|A#4 2F.F ....|A#4 2C.F ....|--- .... ....
....|..|R-- .... ....|C-3 2F2F ....|--- .... ....
 F#4|..|F#2 2F.F ....|F#2 2A.F ....|--- .... ....
 F#4|..|F#2 2F.F ....|F#2 2A.F ....|--- .... ....
 F#4|..|F#2 2F.F ....|F#2 2A.F ....|--- .... ....
....|..|R-- .... ....|C-3 2F3F ....|--- .... ....
 F#4|..|F#3 2F.F ....|F#3 2C.F ....|--- .... ....
....|..|F#3 2F.7 ....|E-2 2F.F ....|--- .... ....
 C#4|..|C#4 2F.F ....|C#4 2C.F ....|--- .... ....
....|..|R-- .... ....|E-3 2F1F ....|--- .... ....
 F#4|..|F#4 2F.F ....|F#4 2C.F ....|--- .... ....
....|..|R-- .... ....|F#2 2F.F ....|--- .... ....
 A#3|..|A#3 2F.F ....|A#3 2C.F ....|--- .... ....
....|..|R-- .... ....|E-2 2F.F ....|--- .... ....
 F#4|..|F#2 2F.F ....|F#2 2A.F ....|--- .... ....
....|..|R-- .... ....|C-3 2F.F ....|--- .... ....
 G#4|..|G#3 2F.F ....|G#3 2C.F ....|--- .... ....
....|..|F#2 2F.7 ....|D-3 2F1F ....|--- .... ....
 F#4|..|F#3 2F.F ....|F#3 2C.F ....|--- .... ....
....|..|R-- .... ....|D-3 2FFF ....|--- .... ....
....|..|F#3 2F.7 ....|F-3 2F7F ....|--- .... ....
....|..|R-- .... ....|D#3 2F1F ....|--- .... ....
 E-4|..|E-3 2F.F ....|E-3 2C.F ....|--- .... ....
....|..|R-- .... ....|E-2 2F.F ....|--- .... ....
 E-4|..|E-2 2F.F ....|E-2 2A.F ....|--- .... ....
....|..|R-- .... ....|E-3 2F1F ....|--- .... ....
 E-4|..|E-2 2F.F ....|E-2 2A.F ....|--- .... ....
....|..|R-- .... ....|F#2 2F.F ....|--- .... ....
 F#4|..|F#3 2F.F ....|F#3 2C.F ....|--- .... ....
....|..|R-- .... ....|E-2 2F.F ....|--- .... ....
 E-4|..|E-2 2F.F ....|E-2 2A.F ....|--- .... ....
....|..|R-- .... ....|C-3 2F.F ....|--- .... ....
 E-4|..|E-2 2F.F ....|E-2 2A.F ....|--- .... ....
....|..|R-- .... ....|C-3 2F2F ....|--- .... ....
 A#3|..|A#3 2F.F ....|A#3 2C.F ....|--- .... ....
....|..|--- .... ....|C-3 2FEF ....|--- .... ....
....|..|E-3 2F.7 ....|C-3 2F3F ....|--- .... ....
....|..|R-- .... ....|E-3 2F4F ....|--- .... ....
 B-5|..|B-3 2F.F ....|B-3 2C.F ....|--- .... ....
....|..|R-- .... ....|G-2 2F.F ....|--- .... ....
 E-4|..|E-2 2F.F ....|E-2 2A.F ....|--- .... ....
....|..|R-- .... ....|G-2 2F.F ....|--- .... ....
 A#3|..|A#4 2F.F ....|A#4 2C.F ....|--- .... ....
....|..|R-- .... ....|E-3 2F1F ....|--- .... ....
 B-4|..|B-4 2F.F ....|B-4 2C.F ....|--- .... ....
....|..|R-- .... ....|E-2 2F.F ....|--- .... ....
 E-4|..|E-2 2F.F ....|E-2 2A.F ....|--- .... ....
....|..|R-- .... ....|C-3 2F.F ....|--- .... ....
 B-4|..|B-4 2F.F ....|B-4 2C.F ....|--- .... ....
....|..|R-- .... ....|C-3 2F3F ....|--- .... ....
 A#3|..|A#4 2F.F ....|A#4 2C.F ....|--- .... ....
....|..|R-- .... ....|C-3 2FEF ....|--- .... ....

[Pattern51]
....|..|B-3 2F.7 ....|C-3 2F3F ....|--- .... ....
....|..|R-- .... ....|E-2 2F.F ....|--- .... ....
 G#4|..|G#4 2F.F ....|G#4 2C.F ....|--- .... ....
....|..|R-- .... ....|G-2 2F.7 ....|--- .... ....
 F#4|..|F#4 2F.F ....|F#4 2C.F ....|--- .... ....
....|..|R-- .... ....|E-3 2F1F ....|--- .... ....
 D#4|..|D#2 2F.F ....|D#2 2A.F ....|--- .... ....
 D#4|..|D#2 2F.F ....|D#2 2A.F ....|--- .... ....
 D#4|..|D#2 2F.F ....|D#2 2A.F ....|--- .... ....
....|..|R-- .... ....|E-2 2F.F ....|--- .... ....
 D#4|..|D#4 2F.F ....|D#4 2C.F ....|--- .... ....
....|..|R-- .... ....|C-3 2F.F ....|--- .... ....
 D#4|..|D#2 2F.F ....|D#2 2A.F ....|--- .... ....
....|..|R-- .... ....|C-3 2F2F ....|--- .... ....
 A#3|..|A#3 2F.F ....|A#3 2C.F ....|--- .... ....
....|..|R-- .... ....|C-3 2FEF ....|--- .... ....
 D#4|..|D#2 2F.F ....|D#2 2A.F ....|--- .... ....
....|..|R-- .... ....|C-3 2F3F ....|--- .... ....
 F#4|..|F#3 2F.F ....|F#3 2C.F ....|--- .... ....
 F#4|..|F#3 2F.F ....|F#3 2C.F ....|--- .... ....
 F#4|..|F#3 2F.F ....|F#3 2C.F ....|--- .... ....
....|..|D#2 2F.7 ....|E-3 2F1F ....|--- .... ....
 F-5|..|F#4 2F.F ....|F#5 2C.F ....|--- .... ....
....|..|R-- .... ....|F#2 2F.F ....|--- .... ....
 F-4|..|F-4 2F.F ....|F-5 2C.F ....|--- .... ....
....|..|R-- .... ....|E-2 2F.F ....|--- .... ....
 G#4|..|D#4 2F.F ....|D#5 2C.F ....|--- .... ....
....|..|R-- .... ....|C-3 2F.F ....|--- .... ....
 A#3|..|A#3 2F.F ....|A#4 2C.F ....|--- .... ....
....|..|R-- .... ....|D-3 2F1F ....|--- .... ....
 F#4|..|F#3 2F.F ....|F#4 2C.F ....|--- .... ....
....|..|R-- .... ....|D-3 2FFF ....|--- .... ....
 B-3|..|B-1 2F.F ....|B-1 2A.F ....|--- .... ....
....|..|F#3 2F.7 ....|D#3 2F1F ....|--- .... ....
 B-4|..|B-2 2F.F ....|B-2 2A.F ....|--- .... ....
....|..|R-- .... ....|E-2 2F.F ....|--- .... ....
 B-5|..|B-3 2F.F ....|B-3 2C.F ....|--- .... ....
....|..|R-- .... ....|E-3 2F1F ....|--- .... ....
 B-3|..|B-1 2F.F ....|B-1 2A.F ....|--- .... ....
....|..|R-- .... ....|F#2 2F.F ....|--- .... ....
 C#4|..|C#4 2F.F ....|C#4 2C.F ....|--- .... ....
....|..|R-- .... ....|E-2 2F.F ....|--- .... ....
 D#4|..|D#4 2F.F ....|D#4 2C.F ....|--- .... ....
....|..|--- .... ....|C-3 2F.F ....|--- .... ....
 B-3|..|B-1 2F.F ....|B-1 2A.F ....|--- .... ....
....|..|R-- .... ....|C-3 2F2F ....|--- .... ....
 F#4|..|F#4 2F.F ....|F#4 2C.F ....|--- .... ....
....|..|R-- .... ....|C-3 2FEF ....|--- .... ....
 B-3|..|B-1 2F.F ....|B-1 2A.F ....|--- .... ....
 B-3|..|B-1 2F.F ....|B-1 2A.F ....|--- .... ....
 B-3|..|B-1 2F.F ....|B-1 2A.F ....|--- .... ....
....|..|R-- .... ....|E-3 2F4F ....|--- .... ....
 A#3|..|A#4 2F.F ....|A#4 2C.F ....|--- .... ....
....|..|R-- .... ....|G-2 2F.F ....|--- .... ....
 B-4|..|B-2 2F.F ....|B-2 2A.F ....|--- .... ....
....|..|R-- .... ....|E-3 2F1F ....|--- .... ....
 F#4|..|F#4 2F.F ....|F#4 2C.F ....|--- .... ....
....|..|R-- .... ....|E-2 2F.F ....|--- .... ....
 B-3|..|B-1 2F.F ....|B-1 2A.F ....|--- .... ....
....|..|R-- .... ....|C-3 2F.F ....|--- .... ....
 C#4|..|C#4 2F.F ....|C#4 2C.F ....|--- .... ....
....|..|B-1 2F.A ....|C-3 2F3F ....|--- .... ....
 F#4|..|F#4 2F.F ....|F#4 2C.F ....|--- .... ....
....|..|B-1 2F.7 ....|C-3 2FEF ....|--- .... ....
 F#4|..|F#4 2F.F ....|F#4 2C.F ....|--- .... ....
....|..|R-- .... ....|C-3 2F3F ....|--- .... ....
 F#4|..|F#2 2F.F ....|F#2 2A.F ....|--- .... ....
....|..|R-- .... ....|E-2 2F.F ....|--- .... ....
 F#4|..|F#3 2F.F ....|F#3 2C.F ....|--- .... ....
 F#4|..|F#3 2F.F ....|F#3 2C.F ....|--- .... ....
 C#4|..|C#4 2F.F ....|C#4 2C.F ....|--- .... ....
....|..|R-- .... ....|E-2 2F.F ....|--- .... ....
 F#4|..|F#3 2F.F ....|F#3 2C.F ....|--- .... ....
....|..|R-- .... ....|E-2 2F.F ....|--- .... ....
 G#4|..|G#4 2F.F ....|G#4 2C.F ....|--- .... ....
....|..|--- .... ....|C-3 2F.F ....|--- .... ....
 A#3|..|A#4 2F.F ....|A#4 2C.F ....|--- .... ....
....|..|R-- .... ....|C-3 2F2F ....|--- .... ....
 F#4|..|F#2 2F.F ....|F#2 2A.F ....|--- .... ....
 F#4|..|F#2 2F.F ....|F#2 2A.F ....|--- .... ....
 F#4|..|F#2 2F.F ....|F#2 2A.F ....|--- .... ....
....|..|R-- .... ....|E-2 2F.F ....|--- .... ....
 F#4|..|F#3 2F.F ....|F#3 2C.F ....|--- .... ....
 F#3|..|F#3 2F.7 ....|F#1 2A.F ....|--- .... ....
 C#4|..|C#4 2F.F ....|C#4 2C.F ....|--- .... ....
....|..|R-- .... ....|E-2 2F.F ....|--- .... ....
 F#4|..|F#4 2F.F ....|F#4 2C.F ....|--- .... ....
....|..|R-- .... ....|E-2 2F.F ....|--- .... ....
 A#3|..|A#3 2F.F ....|A#3 2C.F ....|--- .... ....
....|..|R-- .... ....|C-3 2F.F ....|--- .... ....
 F#4|..|F#2 2F.F ....|F#2 2A.F ....|--- .... ....
....|..|R-- .... ....|C-2 2F.F ....|--- .... ....
 G#4|..|G#3 2F.F ....|G#3 2C.F ....|--- .... ....
....|..|F#2 2F.7 ....|D-3 2F1F ....|--- .... ....
 F#4|..|F#3 2F.F ....|F#3 2C.F ....|--- .... ....
....|..|R-- .... ....|D-3 2F4F ....|--- .... ....
....|..|F#3 2F.7 ....|F-2 2F.F ....|--- .... ....
....|..|R-- .... ....|D#3 2F1F ....|--- .... ....
 E-4|..|E-3 2F.F ....|E-3 2C.F ....|--- .... ....
....|..|R-- .... ....|E-2 2F.F ....|--- .... ....
 E-4|..|E-2 2F.F ....|E-2 2A.F ....|--- .... ....
....|..|R-- .... ....|E-2 2F.F ....|--- .... ....
 E-4|..|E-2 2F.F ....|E-2 2A.F ....|--- .... ....
....|..|R-- .... ....|E-2 2F.F ....|--- .... ....
 F#4|..|F#3 2F.F ....|F#3 2C.F ....|--- .... ....
....|..|R-- .... ....|C-3 2F.F ....|--- .... ....
 E-4|..|E-2 2F.F ....|E-2 2A.F ....|--- .... ....
....|..|R-- .... ....|C-2 2F.F ....|--- .... ....
 E-4|..|E-2 2F.F ....|E-2 2A.F ....|--- .... ....
....|..|R-- .... ....|C-3 2F2F ....|--- .... ....
 A#3|..|A#3 2F.F ....|A#3 2C.F ....|--- .... ....
....|..|--- .... ....|C-3 2F3F ....|--- .... ....
....|..|E-3 2F.7 ....|E-3 2F4F ....|--- .... ....
....|..|R-- .... ....|G-2 2F.F ....|--- .... ....
 B-5|..|B-3 2F.F ....|B-3 2C.F ....|--- .... ....
....|..|R-- .... ....|G-2 2F.F ....|--- .... ....
 E-4|..|E-2 2F.F ....|E-2 2A.F ....|--- .... ....
....|..|R-- .... ....|E-2 2F.F ....|--- .... ....
 A#3|..|A#4 2F.F ....|A#4 2C.F ....|--- .... ....
....|..|R-- .... ....|E-2 2F.F ....|--- .... ....
 B-4|..|B-4 2F.F ....|B-4 2C.F ....|--- .... ....
....|..|R-- .... ....|C-3 2F.F ....|--- .... ....
 E-4|..|E-2 2F.F ....|E-2 2A.F ....|--- .... ....
....|..|R-- .... ....|C-2 2F.F ....|--- .... ....
 B-4|..|C#5 2F.F ....|B-4 2C.F ....|--- .... ....
....|..|R-- .... ....|C-3 2F3F ....|--- .... ....
 A#3|..|A#4 2F.F ....|A#4 2C.F ....|--- .... ....
 E-3|..|R-- .... ....|E-1 2A.F ....|--- .... ....

[Pattern52]
....|..|B-3 2F.7 ....|E-2 2F.F ....|--- .... ....
 E-3|..|R-- .... ....|E-1 2A.F ....|--- .... ....
 G#4|..|G#4 2F.F ....|G#4 2C.F ....|--- .... ....
 D#3|..|R-- .... ....|D#1 2A.F ....|--- .... ....
 F#4|..|F#4 2F.F ....|F#4 2C.F ....|--- .... ....
....|..|R-- .... ....|E-2 2F.F ....|--- .... ....
 D#4|..|D#2 2F.F ....|D#2 2A.F ....|--- .... ....
 D#4|..|D#2 2F.F ....|D#2 2A.F ....|--- .... ....
 D#4|..|D#2 2F.F ....|D#2 2A.F ....|--- .... ....
....|..|R-- .... ....|E-2 2F.F ....|--- .... ....
 D#4|..|D#4 2F.F ....|D#4 2C.F ....|--- .... ....
....|..|R-- .... ....|C-3 2F.F ....|--- .... ....
 D#4|..|D#2 2F.F ....|D#2 2A.F ....|--- .... ....
....|..|R-- .... ....|C-3 2F2F ....|--- .... ....
 A#3|..|A#3 2F.F ....|A#3 2C.F ....|--- .... ....
....|..|R-- .... ....|C-3 2F3F ....|--- .... ....
 D#4|..|D#2 2F.F ....|D#2 2A.F ....|--- .... ....
....|..|R-- .... ....|E-2 2F.F ....|--- .... ....
 F#4|..|F#3 2F.F ....|F#3 2C.F ....|--- .... ....
 F#4|..|F#3 2F.F ....|F#3 2C.F ....|--- .... ....
 F#4|..|F#3 2F.F ....|F#3 2C.F ....|--- .... ....
....|..|D#2 2F.7 ....|E-2 2F.F ....|--- .... ....
 F-5|..|F#5 2F.F ....|F#5 2C.F ....|--- .... ....
....|..|R-- .... ....|E-2 2F.F ....|--- .... ....
 F-4|..|F-5 2F.F ....|F-5 2C.F ....|--- .... ....
....|..|R-- .... ....|C-3 2F.F ....|--- .... ....
 G#4|..|D#5 2F.F ....|D#5 2C.F ....|--- .... ....
....|..|R-- .... ....|C-2 2F.F ....|--- .... ....
 A#3|..|A#4 2F.F ....|A#4 2C.F ....|--- .... ....
....|..|R-- .... ....|D-3 2F1F ....|--- .... ....
 F#4|..|F#4 2F.F ....|F#4 2C.F ....|--- .... ....
....|..|R-- .... ....|D-3 2F4F ....|--- .... ....
 B-3|..|B-1 2F.F ....|B-1 2A.F ....|--- .... ....
....|..|F#3 2F.7 ....|D#3 2F1F ....|--- .... ....
 B-4|..|B-2 2F.F ....|B-2 2A.F ....|--- .... ....
....|..|R-- .... ....|E-2 2F.F ....|--- .... ....
 B-5|..|B-3 2F.F ....|B-3 2C.F ....|--- .... ....
....|..|R-- .... ....|E-2 2F.F ....|--- .... ....
 B-3|..|B-1 2F.F ....|B-1 2A.F ....|--- .... ....
....|..|R-- .... ....|E-2 2F.F ....|--- .... ....
 C#4|..|C#4 2F.F ....|C#4 2C.F ....|--- .... ....
....|..|R-- .... ....|C-3 2F.F ....|--- .... ....
 D#4|..|D#4 2F.F ....|D#4 2C.F ....|--- .... ....
....|..|--- .... ....|C-2 2F.F ....|--- .... ....
 B-3|..|B-1 2F.F ....|B-1 2A.F ....|--- .... ....
....|..|R-- .... ....|C-3 2F2F ....|--- .... ....
 F#4|..|F#4 2F.F ....|F#4 2C.F ....|--- .... ....
....|..|R-- .... ....|C-3 2F3F ....|--- .... ....
 B-3|..|B-1 2F.F ....|B-1 2A.F ....|--- .... ....
 B-3|..|B-1 2F.F ....|B-1 2A.F ....|--- .... ....
 B-3|..|B-1 2F.F ....|B-1 2A.F ....|--- .... ....
....|..|R-- .... ....|E-3 2F4F ....|--- .... ....
 A#3|..|A#4 2F.F ....|A#4 2C.F ....|--- .... ....
....|..|R-- .... ....|G-2 2F.F ....|--- .... ....
 B-4|..|B-2 2F.F ....|B-2 2A.F ....|--- .... ....
....|..|R-- .... ....|E-2 2F.F ....|--- .... ....
 F#4|..|F#4 2F.F ....|F#4 2C.F ....|--- .... ....
....|..|R-- .... ....|E-2 2F.F ....|--- .... ....
 B-3|..|B-1 2F.F ....|B-1 2A.F ....|--- .... ....
....|..|R-- .... ....|C-3 2F.F ....|--- .... ....
 C#4|..|C#4 2F.F ....|C#4 2C.F ....|--- .... ....
....|..|B-1 2F.A ....|C-3 2F3F ....|--- .... ....
 F#4|..|F#4 2F.F ....|F#4 2C.F ....|--- .... ....
 B-3|..|B-1 2F.7 ....|B-1 2A.F ....|--- .... ....
 F#4|..|F#4 2F.F ....|F#4 2C.F ....|--- .... ....
....|..|R-- .... ....|E-2 2F.F ....|--- .... ....
 F#4|..|F#2 2F.F ....|F#2 2A.F ....|--- .... ....
 F#3|..|R-- .... ....|F#1 2A.F ....|--- .... ....
 F#4|..|F#3 2F.F ....|F#3 2C.F ....|--- .... ....
 F#4|..|F#3 2F.F ....|F#3 2C.F ....|--- .... ....
 C#4|..|C#4 2F.F ....|C#4 2C.F ....|--- .... ....
....|..|R-- .... ....|E-2 2F.F ....|--- .... ....
 F#4|..|F#3 2F.F ....|F#3 2C.F ....|--- .... ....
....|..|R-- .... ....|E-2 2F.F ....|--- .... ....
 G#4|..|G#4 2F.F ....|G#4 2C.F ....|--- .... ....
....|..|--- .... ....|C-3 2F.F ....|--- .... ....
 A#3|..|A#4 2F.F ....|A#4 2C.F ....|--- .... ....
....|..|R-- .... ....|C-3 2F2F ....|--- .... ....
 F#4|..|F#2 2F.F ....|F#2 2A.F ....|--- .... ....
 F#4|..|F#2 2F.F ....|F#2 2A.F ....|--- .... ....
 F#4|..|F#2 2F.F ....|F#2 2A.F ....|--- .... ....
....|..|R-- .... ....|E-2 2F.F ....|--- .... ....
 F#4|..|F#3 2F.F ....|F#3 2C.F ....|--- .... ....
 F#3|..|F#3 2F.7 ....|F#1 2A.F ....|--- .... ....
 C#4|..|C#4 2F.F ....|C#4 2C.F ....|--- .... ....
....|..|R-- .... ....|E-2 2F.F ....|--- .... ....
 F#4|..|F#4 2F.F ....|F#4 2C.F ....|--- .... ....
....|..|R-- .... ....|E-2 2F.F ....|--- .... ....
 A#3|..|A#3 2F.F ....|A#3 2C.F ....|--- .... ....
....|..|R-- .... ....|C-3 2F.F ....|--- .... ....
 F#4|..|F#2 2F.F ....|F#2 2A.F ....|--- .... ....
....|..|R-- .... ....|C-2 2F.F ....|--- .... ....
 G#4|..|G#3 2F.F ....|G#3 2C.F ....|--- .... ....
....|..|F#2 2F.7 ....|D-3 2F1F ....|--- .... ....
 F#4|..|F#3 2F.F ....|F#3 2C.F ....|--- .... ....
....|..|R-- .... ....|D-3 2F4F ....|--- .... ....
....|..|F#3 2F.7 ....|F-2 2F.F ....|--- .... ....
....|..|R-- .... ....|D#3 2F1F ....|--- .... ....
 E-4|..|E-3 2F.F ....|E-3 2C.F ....|--- .... ....
....|..|R-- .... ....|E-2 2F.F ....|--- .... ....
 E-4|..|E-2 2F.F ....|E-2 2A.F ....|--- .... ....
....|..|R-- .... ....|E-2 2F.F ....|--- .... ....
 E-4|..|E-2 2F.F ....|E-2 2A.F ....|--- .... ....
....|..|R-- .... ....|E-2 2F.F ....|--- .... ....
 F#4|..|F#3 2F.F ....|F#3 2C.F ....|--- .... ....
....|..|R-- .... ....|C-3 2F.F ....|--- .... ....
 E-4|..|E-2 2F.F ....|E-2 2A.F ....|--- .... ....
....|..|R-- .... ....|C-2 2F.F ....|--- .... ....
 E-4|..|E-2 2F.F ....|E-2 2A.F ....|--- .... ....
....|..|R-- .... ....|C-3 2F2F ....|--- .... ....
 A#3|..|A#3 2F.F ....|A#3 2C.F ....|--- .... ....
....|..|--- .... ....|C-3 2F3F ....|--- .... ....
....|..|E-3 2F.7 ....|E-3 2F4F ....|--- .... ....
....|..|R-- .... ....|G-2 2F.F ....|--- .... ....
 B-5|..|B-3 2F.F ....|B-3 2C.F ....|--- .... ....
....|..|R-- .... ....|G-2 2F.F ....|--- .... ....
 E-4|..|E-2 2F.F ....|E-2 2A.F ....|--- .... ....
....|..|R-- .... ....|E-2 2F.F ....|--- .... ....
 A#3|..|A#4 2F.F ....|A#4 2C.F ....|--- .... ....
....|..|R-- .... ....|E-2 2F.F ....|--- .... ....
 B-4|..|B-4 2F.F ....|B-4 2C.F ....|--- .... ....
....|..|R-- .... ....|C-3 2F.F ....|--- .... ....
 E-4|..|E-2 2F.F ....|E-2 2A.F ....|--- .... ....
....|..|R-- .... ....|C-2 2F.F ....|--- .... ....
 B-4|..|C#5 2F.F ....|B-4 2C.F ....|--- .... ....
....|..|R-- .... ....|C-3 2F3F ....|--- .... ....
 A#3|..|A#4 2F.F ....|A#4 2C.F ....|--- .... ....
 E-3|..|R-- .... ....|E-1 2A.F ....|--- .... ....

[Pattern55]
....|..|B-3 2F.7 ....|E-2 2F.F ....|--- .... ....
 E-3|..|R-- .... ....|E-1 2A.F ....|--- .... ....
 G#4|..|G#4 2F.F ....|G#4 2C.F ....|--- .... ....
 D#3|..|R-- .... ....|D#1 2A.F ....|--- .... ....
 F#4|..|F#4 2F.F ....|F#4 2C.F ....|--- .... ....
....|..|R-- .... ....|E-2 2F.F ....|--- .... ....
 D#4|..|D#2 2F.F ....|D#2 2A.F ....|--- .... ....
 D#4|..|D#2 2F.F ....|D#2 2A.F ....|--- .... ....
 D#4|..|D#2 2F.F ....|D#2 2A.F ....|--- .... ....
....|..|R-- .... ....|E-2 2F.F ....|--- .... ....
 D#4|..|D#4 2F.F ....|D#4 2C.F ....|--- .... ....
....|..|R-- .... ....|C-3 2F.F ....|--- .... ....
 D#4|..|D#2 2F.F ....|D#2 2A.F ....|--- .... ....
....|..|R-- .... ....|C-3 2F2F ....|--- .... ....
 A#3|..|A#3 2F.F ....|A#3 2C.F ....|--- .... ....
....|..|R-- .... ....|C-3 2F3F ....|--- .... ....
 D#4|..|D#2 2F.F ....|D#2 2A.F ....|--- .... ....
....|..|R-- .... ....|E-2 2F.F ....|--- .... ....
 F#4|..|F#3 2F.F ....|F#3 2C.F ....|--- .... ....
 F#4|..|F#3 2F.F ....|F#3 2C.F ....|--- .... ....
 F#4|..|F#3 2F.F ....|F#3 2C.F ....|--- .... ....
....|..|D#2 2F.7 ....|E-2 2F.F ....|--- .... ....
 F-5|..|F#5 2F.F ....|F#5 2C.F ....|--- .... ....
....|..|R-- .... ....|E-2 2F.F ....|--- .... ....
 F-4|..|F-5 2F.F ....|F-5 2C.F ....|--- .... ....
....|..|R-- .... ....|C-3 2F.F ....|--- .... ....
 G#4|..|D#5 2F.F ....|D#5 2C.F ....|--- .... ....
....|..|R-- .... ....|C-2 2F.F ....|--- .... ....
 A#3|..|A#4 2F.F ....|A#4 2C.F ....|--- .... ....
....|..|R-- .... ....|D-3 2F1F ....|--- .... ....
 F#4|..|F#4 2F.F ....|F#4 2C.F ....|--- .... ....
....|..|R-- .... ....|D-3 2F4F ....|--- .... ....
 B-3|..|B-1 2F.F ....|B-1 2A.F ....|--- .... ....
....|..|F#3 2F.7 ....|D#3 2F1F ....|--- .... ....
 B-4|..|B-2 2F.F ....|B-2 2A.F ....|--- .... ....
....|..|R-- .... ....|E-2 2F.F ....|--- .... ....
 B-5|..|B-3 2F.F ....|B-3 2C.F ....|--- .... ....
....|..|R-- .... ....|E-2 2F.F ....|--- .... ....
 B-3|..|B-1 2F.F ....|B-1 2A.F ....|--- .... ....
....|..|R-- .... ....|E-2 2F.F ....|--- .... ....
 C#4|..|C#4 2F.F ....|C#4 2C.F ....|--- .... ....
....|..|R-- .... ....|C-3 2F.F ....|--- .... ....
 D#4|..|D#4 2F.F ....|D#4 2C.F ....|--- .... ....
....|..|--- .... ....|C-2 2F.F ....|--- .... ....
 B-3|..|B-1 2F.F ....|B-1 2A.F ....|--- .... ....
....|..|R-- .... ....|C-3 2F2F ....|--- .... ....
 F#4|..|F#4 2F.F ....|F#4 2C.F ....|--- .... ....
....|..|R-- .... ....|C-3 2F3F ....|--- .... ....
 B-3|..|B-1 2F.F ....|B-1 2A.F ....|--- .... ....
 B-3|..|B-1 2F.F ....|B-1 2A.F ....|--- .... ....
 B-3|..|B-1 2F.F ....|B-1 2A.F ....|--- .... ....
....|..|R-- .... ....|E-3 2F4F ....|--- .... ....
 A#3|..|A#4 2F.F ....|A#4 2C.F ....|--- .... ....
....|..|R-- .... ....|G-2 2F.F ....|--- .... ....
 B-4|..|B-2 2F.F ....|B-2 2A.F ....|--- .... ....
....|..|R-- .... ....|E-2 2F.F ....|--- .... ....
 F#4|..|F#4 2F.F ....|F#4 2C.F ....|--- .... ....
....|..|R-- .... ....|E-2 2F.F ....|--- .... ....
 B-3|..|B-1 2F.F ....|B-1 2A.F ....|--- .... ....
....|..|R-- .... ....|C-3 2F.F ....|--- .... ....
 C#4|..|C#4 2F.F ....|C#4 2C.F ....|--- .... ....
....|..|B-1 2F.A ....|C-3 2F3F ....|--- .... ....
 F#4|..|F#4 2F.F ....|F#4 2C.F ....|--- .... ....
 B-3|..|B-1 2F.7 ....|B-1 2A.F ....|--- .... ....
 B-3|..|B-1 2F.7 ....|B-1 2A.F ....|--- .... ....
 B-3|..|R-- .... ....|B-1 2A.F ....|--- .... ....
 A#3|..|A#4 2F.7 ....|A#4 2F.7 ....|--- .... ....
....|..|R-- .... ....|G-2 2F.7 ....|--- .... ....
 B-4|..|B-2 2F.7 ....|B-2 2F.7 ....|--- .... ....
....|..|R-- .... ....|E-2 2F.7 ....|--- .... ....
 F#4|..|F#4 2F.7 ....|F#4 2F.7 ....|--- .... ....
....|..|R-- .... ....|E-2 2F.7 ....|--- .... ....
 B-3|..|B-1 2F.7 ....|B-1 2F.7 ....|--- .... ....
....|..|R-- .... ....|C-3 2F.7 ....|--- .... ....
 C#4|..|C#4 2F.7 ....|C#4 2F.7 ....|--- .... ....
....|..|--- .... ....|C-3 2F37 ....|--- .... ....
 F#4|..|F#4 2F.7 ....|F#4 2F.7 ....|--- .... ....
 B-3|..|--- .... ....|B-1 2F.7 ....|--- .... ....
 B-3|..|R-- .... ....|B-1 2F.7 ....|--- .... ....
 B-3|..|--- .... ....|B-1 2F.7 ....|--- .... ....
....|..|--- .... ....|R-- .... ....|--- .... ....
....|..|--- .... ....|--- .... ....|--- .... ....
....|..|--- .... ....|--- .... ....|--- .... ....
....|..|--- .... ....|--- .... ....|--- .... ....
....|..|--- .... ....|--- .... ....|--- .... ....
....|..|--- .... ....|--- .... ....|--- .... ....
....|..|--- .... ....|--- .... ....|--- .... ....
....|..|--- .... ....|--- .... ....|--- .... ....
....|..|--- .... ....|--- .... ....|--- .... ....
....|..|--- .... ....|--- .... ....|--- .... ....
....|..|--- .... ....|--- .... ....|--- .... ....
....|..|--- .... ....|--- .... ....|--- .... ....
....|..|--- .... ....|--- .... ....|--- .... ....
....|..|--- .... ....|--- .... ....|--- .... ....
....|..|--- .... ....|--- .... ....|--- .... ....
....|..|--- .... ....|--- .... ....|--- .... ....
....|..|--- .... ....|--- .... ....|--- .... ....
....|..|--- .... ....|--- .... ....|--- .... ....
....|..|--- .... ....|--- .... ....|--- .... ....
....|..|--- .... ....|--- .... ....|--- .... ....
....|..|--- .... ....|--- .... ....|--- .... ....
....|..|--- .... ....|--- .... ....|--- .... ....
....|..|--- .... ....|--- .... ....|--- .... ....
....|..|--- .... ....|--- .... ....|--- .... ....
....|..|--- .... ....|--- .... ....|--- .... ....
....|..|--- .... ....|--- .... ....|--- .... ....
....|..|--- .... ....|--- .... ....|--- .... ....
....|..|--- .... ....|--- .... ....|--- .... ....
....|..|--- .... ....|--- .... ....|--- .... ....
....|..|--- .... ....|--- .... ....|--- .... ....
....|..|--- .... ....|--- .... ....|--- .... ....
....|..|--- .... ....|--- .... ....|--- .... ....
....|..|--- .... ....|--- .... ....|--- .... ....
....|..|--- .... ....|--- .... ....|--- .... ....
....|..|--- .... ....|--- .... ....|--- .... ....
....|..|--- .... ....|--- .... ....|--- .... ....
....|..|--- .... ....|--- .... ....|--- .... ....
....|..|--- .... ....|--- .... ....|--- .... ....
....|..|--- .... ....|--- .... ....|--- .... ....
....|..|--- .... ....|--- .... ....|--- .... ....
....|..|--- .... ....|--- .... ....|--- .... ....
....|..|--- .... ....|--- .... ....|--- .... ....
....|..|--- .... ....|--- .... ....|--- .... ....
....|..|--- .... ....|--- .... ....|--- .... ....
....|..|--- .... ....|--- .... ....|--- .... ....
....|..|--- .... ....|--- .... ....|--- .... ....
....|..|--- .... ....|--- .... ....|--- .... ....
....|..|--- .... ....|--- .... ....|--- .... ....

[Pattern57]
....|..|--- .... ....|--- .... ....|--- .... ....
....|..|--- .... ....|--- .... ....|--- .... ....
....|..|--- .... ....|--- .... ....|--- .... ....
....|..|--- .... ....|--- .... ....|--- .... ....
....|..|--- .... ....|--- .... ....|--- .... ....
....|..|--- .... ....|--- .... ....|--- .... ....
....|..|--- .... ....|--- .... ....|--- .... ....
....|..|--- .... ....|--- .... ....|--- .... ....
....|..|--- .... ....|--- .... ....|--- .... ....
....|..|--- .... ....|--- .... ....|--- .... ....
....|..|--- .... ....|--- .... ....|--- .... ....
....|..|--- .... ....|--- .... ....|--- .... ....
....|..|--- .... ....|--- .... ....|--- .... ....
....|..|--- .... ....|--- .... ....|--- .... ....
....|..|--- .... ....|--- .... ....|--- .... ....
....|..|--- .... ....|--- .... ....|--- .... ....
....|..|--- .... ....|--- .... ....|--- .... ....
....|..|--- .... ....|--- .... ....|--- .... ....
....|..|--- .... ....|--- .... ....|--- .... ....
....|..|--- .... ....|--- .... ....|--- .... ....
....|..|--- .... ....|--- .... ....|--- .... ....
....|..|--- .... ....|--- .... ....|--- .... ....
....|..|--- .... ....|--- .... ....|--- .... ....
....|..|--- .... ....|--- .... ....|--- .... ....
....|..|--- .... ....|--- .... ....|--- .... ....
....|..|--- .... ....|--- .... ....|--- .... ....
....|..|--- .... ....|--- .... ....|--- .... ....
....|..|--- .... ....|--- .... ....|--- .... ....
....|..|--- .... ....|--- .... ....|--- .... ....
....|..|--- .... ....|--- .... ....|--- .... ....
....|..|--- .... ....|--- .... ....|--- .... ....
....|..|--- .... ....|--- .... ....|--- .... ....
....|..|--- .... ....|--- .... ....|--- .... ....
....|..|--- .... ....|--- .... ....|--- .... ....
....|..|--- .... ....|--- .... ....|--- .... ....
....|..|--- .... ....|--- .... ....|--- .... ....
....|..|--- .... ....|--- .... ....|--- .... ....
....|..|--- .... ....|--- .... ....|--- .... ....
....|..|--- .... ....|--- .... ....|--- .... ....
....|..|--- .... ....|--- .... ....|--- .... ....
....|..|--- .... ....|--- .... ....|--- .... ....
....|..|--- .... ....|--- .... ....|--- .... ....
....|..|--- .... ....|--- .... ....|--- .... ....
....|..|--- .... ....|--- .... ....|--- .... ....
....|..|--- .... ....|--- .... ....|--- .... ....
....|..|--- .... ....|--- .... ....|--- .... ....
....|..|--- .... ....|--- .... ....|--- .... ....
....|..|--- .... ....|--- .... ....|--- .... ....
....|..|--- .... ....|--- .... ....|--- .... ....
....|..|--- .... ....|--- .... ....|--- .... ....
....|..|--- .... ....|--- .... ....|--- .... ....
....|..|--- .... ....|--- .... ....|--- .... ....
....|..|--- .... ....|--- .... ....|--- .... ....
....|..|--- .... ....|--- .... ....|--- .... ....
....|..|--- .... ....|--- .... ....|--- .... ....
....|..|--- .... ....|--- .... ....|--- .... ....
....|..|--- .... ....|--- .... ....|--- .... ....
....|..|--- .... ....|--- .... ....|--- .... ....
....|..|--- .... ....|--- .... ....|--- .... ....
....|..|--- .... ....|--- .... ....|--- .... ....
....|..|--- .... ....|--- .... ....|--- .... ....
....|..|--- .... ....|--- .... ....|--- .... ....
....|..|--- .... ....|--- .... ....|--- .... ....
....|..|--- .... ....|--- .... ....|--- .... ....
....|..|--- .... ....|--- .... ....|--- .... ....
....|..|--- .... ....|--- .... ....|--- .... ....
....|..|--- .... ....|--- .... ....|--- .... ....
....|..|--- .... ....|--- .... ....|--- .... ....
....|..|--- .... ....|--- .... ....|--- .... ....
....|..|--- .... ....|--- .... ....|--- .... ....
....|..|--- .... ....|--- .... ....|--- .... ....
....|..|--- .... ....|--- .... ....|--- .... ....
....|..|--- .... ....|--- .... ....|--- .... ....
....|..|--- .... ....|--- .... ....|--- .... ....
....|..|--- .... ....|--- .... ....|--- .... ....
....|..|--- .... ....|--- .... ....|--- .... ....
....|..|--- .... ....|--- .... ....|--- .... ....
....|..|--- .... ....|--- .... ....|--- .... ....
