[Module]
VortexTrackerII=0
Version=3.5
Title=1m,3m[3f]-2p[2],4meu[2e]
Author=oisee ^ 4d 29.05.2010
NoteTable=4
ChipFreq=1750000
Speed=3
PlayOrder=L0,1,2,3,0,1,2,3,0,1,2,3,12,13,14,15,16,17,18,19,20,21,22,23,24,25,26,27,28,29,30,31,32,33,34,35,36,37

[Ornament1]
L0,0,4,4,7,7

[Ornament2]
L0,0,3,3,7,7

[Ornament3]
L0

[Ornament4]
L0

[Ornament5]
L0

[Ornament6]
L0

[Ornament7]
L0

[Ornament8]
L0

[Ornament9]
L0

[Ornament10]
L0

[Ornament11]
L0

[Ornament12]
L0

[Ornament13]
L0

[Ornament14]
1,L0

[Ornament15]
L0

[Sample1]
TnE +000_ +00_ F_
TnE +000_ +00_ F_
TnE +000_ +00_ F_
TnE +000_ +00_ D_
TnE +000_ +00_ B_
TnE +000_ +00_ B_ L

[Sample2]
TnE +000_ +00_ F_ L

[Sample3]
TnE +001_ +00_ F_
TnE +002_ +00_ F_
TnE +001_ +00_ E_
TnE +002_ +00_ E_
TnE +000_ +00_ E_ L
TnE -001_ +00_ E_
TnE -002_ +00_ E_
TnE -001_ +00_ E_
TnE +000_ +00_ E_
TnE +001_ +00_ E_
TnE +002_ +00_ E_
TnE +001_ +00_ E_

[Sample4]
TnE +002_ +00_ D_
TnE +002_ +00_ D_
TnE +002_ +00_ C_
TnE +002_ +00_ B_
TnE +002_ +00_ A_ L
TnE +002_ +00_ A_
TnE +002_ +00_ A_
TnE +002_ +00_ A_
TnE +002_ +00_ A_
TnE +002_ +00_ A_
TnE +002_ +00_ A_
TnE +002_ +00_ A_

[Sample5]
TnE +000_ +00_ F_
TnE +000_ +00_ F_
tne +000_ +00_ 0_ L

[Sample6]
TnE -001_ +00_ F_ L

[Sample7]
TnE +006_ +00_ F_ L

[Sample8]
tNe +000_ +00_ F_
tNe +000_ +00_ B_
tNe +000_ +00_ 7_
tNe +000_ +00_ 6- L

[Sample9]
TnE +080_ +00_ F_
TnE +100_ +00_ E_
TnE +180_ +00_ E_
TnE +200_ +00_ E_
TnE +240_ +00_ D_
TnE +280_ +00_ D_
TnE +2C0_ +00_ D_
TnE +300_ +00_ C_
TnE +300_ +00_ C_
TnE +340_ +00_ C_
TnE +340_ +00_ C_
TnE +380_ +00_ B_
TnE +380_ +00_ B_
TnE +400_ +00_ B_
TnE +400_ +00_ B_
TnE +480_ +00_ A_
TnE +500_ +00_ 9_
TnE +580_ +00_ 7_
TnE +600_ +00_ 4_
TnE +680_ +00_ 1_
TnE +000_ +00_ 0_ L

[Sample10]
Tne +1C0_ +00_ F_
Tne +280_ +00_ E_
Tne +380_ +00_ C_
Tne +440_ +00_ A_
Tne +480_ +00_ 8_
TnE +000_ +00_ 0_ L

[Sample11]
TNe +200_ -0A_ F_
tNe +000_ +0F_ A_
TNe +200_ -07_ E_
tNe +000_ +0E_ B- L

[Sample12]
TNE +0A0_ +05_ F_
TNE +140_ +02_ D_
TNE +140_ +02_ B_
TNE +100_ +00_ A_ L
TNE +140_ +00_ A_
TNE +200_ +00_ A-

[Sample13]
Tne +200_ +00_ F_
Tne +2C0_ +00_ F_
Tne +380_ +00_ E_
Tne +500_ +00_ C_
Tne +520_ +00_ 9_
tne +000_ +00_ 0_ L

[Sample14]
TNE -100_ +00_ F_
TNE -100_ +00_ D_
TNE -100_ +00_ A_
TNE -100_ +00_ 5_
tne +000_ +00_ 0_ L

[Sample15]
TNE -100_ +00_ 5_
TNE -100_ +00_ 8_
TNE -100_ +00_ B_
TNE -100_ +00_ F_
TNe -100_ +00_ 9- L

[Sample16]
TnE +000_ +00_ C_
TnE +000_ +00_ E_
TnE +000_ +00_ F_
TnE +000_ +00_ F_
TnE +000_ +00_ E_
TnE +000_ +00_ D_
TnE +000_ +00_ C_
TnE +000_ +00_ C_ L
TnE +001_ +00_ C_
TnE +002_ +00_ C_
TnE +003_ +00_ C_
TnE +001_ +00_ C_
TnE +000_ +00_ C_
TnE -001_ +00_ C_
TnE -002_ +00_ C_
TnE -003_ +00_ C_
TnE -001_ +00_ C_
TnE +000_ +00_ C_
TnE +000_ +00_ C_

[Sample17]
Tne +1C0_ +00_ F_
Tne +280_ +00_ D_
Tne +380_ +00_ 7_
TNE +000_ +00_ 0_ L

[Sample18]
TnE -00C_ +00_ 0_ L

[Sample19]
TNe +000_ +00_ F_
TNe +000_ +00_ C_
TNe +000_ +00_ 6_
TNe +000_ +01_ A- L

[Sample20]
TNE +140_ +00_ F_
tNE +000_ +00_ B- L

[Sample21]
tNE +000_ +00_ D_
tNE +000_ +00_ 8_
tNE +000_ +00_ 1_
TNE +000_ +00_ 0_ L

[Sample22]
TnE +000_ +00_ D_ L
TnE +000_ +00_ D_
tne +000_ +00_ 9_
tne +000_ +00_ 9_
TnE +000_ +00_ D_
TnE +000_ +00_ D_
tne +000_ +00_ 9_
tne +000_ +00_ 9_
TnE +000_ +00_ D_
TnE +000_ +00_ D_
TnE +000_ +00_ D_
TnE +000_ +00_ D_
TnE +000_ +00_ D_
TnE +000_ +00_ D_
tne +000_ +00_ 9_
tne +000_ +00_ 9_

[Sample23]
TnE +000_ +00_ F_ L
TnE +010_ +01_ F_
TnE +010_ +01_ F_
TnE +010_ +01_ F_
TnE +010_ +01_ F_
TnE +000_ +00_ F_
TnE +000_ +00_ F_
TnE -010_ -01_ F_
TnE -010_ -01_ F_
TnE -010_ -01_ F_
TnE -010_ -01_ F_
TnE +000_ +00_ F_

[Sample24]
TNe +000_ -01_ C_
TNe +000_ -01_ D_
TNe +000_ -01_ E_
TNe +000_ -01_ F_
TNe +000_ -01_ F_
TNe +000_ -01_ F_
TNe +000_ -01_ F_
TNe +000_ -01_ F_
TNe +000_ -01_ E_
TNe +000_ -01_ E_
TNe +000_ -01_ E_
TNe +000_ -01_ F_
TNe +000_ -01_ F_ L

[Sample25]
TNE +000_ +00_ F_
TNE +000_ +00_ F_ L
TNE +000_ +00_ F_
TNE +000_ +00_ F_
TNE +000_ +00_ F-

[Sample26]
tne +000_ +00_ 0_ L

[Sample27]
TnE +100_ +05_ F_
TnE +200_ +02_ A_
TnE +300_ +02_ 7_
TNE +400_ +00_ 3- L

[Sample28]
tne +000_ +00_ 0_ L

[Sample29]
tnE +000_ +00_ 0_ L

[Sample30]
TNE +000_ +00_ C+ L

[Sample31]
TNe +1C0_ +00_ F_
Tne +280_ +00_ E_
Tne +380_ +00_ C_
Tne +440_ +00_ A_
Tne +480_ +00_ 8_
TnE +000_ +00_ 0_ L

[Pattern0]
 C-4|..|--- .... ....|G-5 3FFF ....|C-4 2CEF ....
....|..|--- .... ....|C-4 2F1F ....|--- .... ....
....|..|--- .... ....|--- .... ....|--- .... ....
....|..|--- .... ....|--- .... ....|--- .... ....
....|..|--- .... ....|E-5 3FFF ....|--- .... ....
....|..|--- .... ....|--- .... ....|--- .... ....
....|..|--- .... ....|G-5 3FFA ....|--- .... ....
....|..|--- .... ....|C-4 2F1A ....|--- .... ....
....|..|--- .... ....|--- .... ....|R-- .... ....
....|..|--- .... ....|--- .... ....|--- .... ....
....|..|--- .... ....|E-5 3FFA ....|--- .... ....
....|..|--- .... ....|--- .... ....|--- .... ....
 D-4|..|--- .... ....|G-5 3FF7 ....|D-4 2CEF ....
....|..|--- .... ....|C-4 2F17 ....|--- .... ....
....|..|--- .... ....|--- .... ....|--- .... ....
....|..|--- .... ....|--- .... ....|--- .... ....
....|..|--- .... ....|G-5 3FFF ....|--- .... ....
....|..|--- .... ....|--- .... ....|--- .... ....
....|..|--- .... ....|--- .... ....|--- .... ....
....|..|--- .... ....|--- .... ....|--- .... ....
....|..|--- .... ....|E-5 3FFF ....|--- .... ....
....|..|--- .... ....|--- .... ....|R-- .... ....
....|..|--- .... ....|G-5 3FFA ....|--- .... ....
....|..|--- .... ....|--- .... ....|--- .... ....
 F-3|..|--- .... ....|--- .... ....|F-4 2CEF ....
....|..|--- .... ....|--- .... ....|--- .... ....
....|..|--- .... ....|E-5 3FFA ....|--- .... ....
....|..|--- .... ....|--- .... ....|--- .... ....
....|..|--- .... ....|G-5 3FF7 ....|--- .... ....
....|..|--- .... ....|--- .... ....|R-- .... ....
....|..|--- .... ....|--- .... ....|--- .... ....
....|..|--- .... ....|--- .... ....|--- .... ....
 E-4|..|--- .... ....|G-5 3FFF ....|E-4 2CEF ....
....|..|--- .... ....|C-4 2F1F ....|--- .... ....
....|..|--- .... ....|--- .... ....|--- .... ....
....|..|--- .... ....|--- .... ....|--- .... ....
....|..|--- .... ....|--- .... ....|--- .... ....
....|..|--- .... ....|--- .... ....|--- .... ....
....|..|--- .... ....|G-5 3FFA ....|--- .... ....
....|..|--- .... ....|C-4 2F1A ....|--- .... ....
....|..|--- .... ....|E-5 3FFF ....|--- .... ....
....|..|--- .... ....|--- .... ....|--- .... ....
....|..|--- .... ....|--- .... ....|--- .... ....
....|..|--- .... ....|--- .... ....|--- .... ....
....|..|--- .... ....|G-5 3FF7 ....|--- .... ....
....|..|--- .... ....|C-4 2F17 ....|--- .... ....
....|..|--- .... ....|E-5 3FFA ....|--- .... ....
....|..|--- .... ....|--- .... ....|--- .... ....
....|..|--- .... ....|--- .... ....|--- .... ....
....|..|--- .... ....|--- .... ....|--- .... ....
....|..|--- .... ....|--- .... ....|--- .... ....
....|..|--- .... ....|--- .... ....|--- .... ....
....|..|--- .... ....|E-5 3FF7 ....|--- .... ....
....|..|--- .... ....|--- .... ....|--- .... ....
....|..|--- .... ....|--- .... ....|--- .... ....
....|..|--- .... ....|--- .... ....|--- .... ....
....|..|--- .... ....|--- .... ....|--- .... ....
....|..|--- .... ....|--- .... ....|--- .... ....
....|..|--- .... ....|--- .... ....|--- .... ....
....|..|--- .... ....|--- .... ....|--- .... ....
....|..|--- .... ....|--- .... ....|R-- .... ....
....|..|--- .... ....|--- .... ....|--- .... ....
....|..|--- .... ....|--- .... ....|--- .... ....
....|..|--- .... ....|--- .... ....|--- .... ....

[Pattern1]
 A-3|..|--- .... ....|E-5 3FFF ....|A-3 2CEF ....
....|..|--- .... ....|A-4 2F2F ....|--- .... ....
....|..|--- .... ....|--- .... ....|--- .... ....
....|..|--- .... ....|--- .... ....|--- .... ....
....|..|--- .... ....|D-5 3FFF ....|--- .... ....
....|..|--- .... ....|--- .... ....|--- .... ....
....|..|--- .... ....|E-5 3FFA ....|--- .... ....
 A-3|..|--- .... ....|A-4 2F2A ....|A-2 2CEF ....
....|..|--- .... ....|--- .... ....|--- .... ....
....|..|--- .... ....|--- .... ....|--- .... ....
....|..|--- .... ....|D-5 3FFA ....|--- .... ....
....|..|--- .... ....|--- .... ....|--- .... ....
....|..|--- .... ....|E-5 3FF7 ....|--- .... ....
....|..|--- .... ....|A-4 2F27 ....|--- .... ....
....|..|--- .... ....|--- .... ....|--- .... ....
....|..|--- .... ....|--- .... ....|--- .... ....
....|..|--- .... ....|E-5 3FFF ....|--- .... ....
....|..|--- .... ....|--- .... ....|--- .... ....
....|..|--- .... ....|--- .... ....|--- .... ....
....|..|--- .... ....|--- .... ....|--- .... ....
....|..|--- .... ....|D-5 3FFF ....|--- .... ....
....|..|--- .... ....|--- .... ....|--- .... ....
....|..|--- .... ....|E-5 3FFA ....|--- .... ....
....|..|--- .... ....|--- .... ....|--- .... ....
 D-4|..|--- .... ....|--- .... ....|D-4 2CEF ....
....|..|--- .... ....|--- .... ....|--- .... ....
....|..|--- .... ....|D-5 3FFA ....|--- .... ....
 A-3|..|--- .... ....|--- .... ....|A-2 2CEF ....
 C-4|..|--- .... ....|E-5 3FF7 ....|C-4 2CEF ....
....|..|--- .... ....|--- .... ....|--- .... ....
 A-3|..|--- .... ....|--- .... ....|A-2 2CEF ....
....|..|--- .... ....|--- .... ....|--- .... ....
....|..|--- .... ....|E-5 3FFF ....|--- .... ....
....|..|--- .... ....|A-4 2F2F ....|--- .... ....
....|..|--- .... ....|--- .... ....|--- .... ....
....|..|--- .... ....|--- .... ....|--- .... ....
 D-4|..|--- .... ....|--- .... ....|D-3 2CEF ....
....|..|--- .... ....|--- .... ....|--- .... ....
....|..|--- .... ....|E-5 3FFA ....|--- .... ....
....|..|--- .... ....|A-4 2F2A ....|--- .... ....
 A-3|..|--- .... ....|D-5 3FFF ....|A-2 2CEF ....
....|..|--- .... ....|--- .... ....|--- .... ....
....|..|--- .... ....|--- .... ....|--- .... ....
....|..|--- .... ....|--- .... ....|--- .... ....
 A-3|..|--- .... ....|E-5 3FF7 ....|A-3 2CEF ....
....|..|--- .... ....|A-4 2F27 ....|--- .... ....
....|..|--- .... ....|D-5 3FFA ....|--- .... ....
 A-3|..|--- .... ....|--- .... ....|A-2 2CEF ....
 C-4|..|--- .... ....|--- .... ....|C-3 2CEF ....
....|..|--- .... ....|--- .... ....|--- .... ....
....|..|--- .... ....|--- .... ....|--- .... ....
 A-3|..|--- .... ....|--- .... ....|A-2 2CEF ....
 B-2|..|--- .... ....|D-5 3FF7 ....|B-3 2CEF ....
....|..|--- .... ....|--- .... ....|--- .... ....
 A-3|..|--- .... ....|--- .... ....|A-2 2CEF ....
....|..|--- .... ....|--- .... ....|--- .... ....
 C-4|..|--- .... ....|--- .... ....|C-4 2CEF ....
....|..|--- .... ....|--- .... ....|--- .... ....
 C-4|..|--- .... ....|--- .... ....|C-4 2CEF ....
....|..|--- .... ....|--- .... ....|--- .... ....
....|..|--- .... ....|--- .... ....|R-- .... ....
....|..|--- .... ....|--- .... ....|--- .... ....
....|..|--- .... ....|--- .... ....|--- .... ....
....|..|--- .... ....|--- .... ....|--- .... ....

[Pattern2]
 G-4|..|--- .... ....|G-4 3FFF ....|G-2 2AEF ....
....|..|--- .... ....|E-4 2F2F ....|--- .... ....
....|..|--- .... ....|--- .... ....|--- .... ....
....|..|--- .... ....|--- .... ....|--- .... ....
....|..|--- .... ....|E-4 3FFF ....|--- .... ....
....|..|--- .... ....|--- .... ....|--- .... ....
....|..|--- .... ....|G-4 3FFA ....|--- .... ....
....|..|--- .... ....|E-4 2F2A ....|--- .... ....
....|..|--- .... ....|--- .... ....|--- .... ....
....|..|--- .... ....|--- .... ....|--- .... ....
....|..|--- .... ....|E-4 3FFA ....|--- .... ....
....|..|--- .... ....|--- .... ....|--- .... ....
....|..|--- .... ....|G-4 3FF7 ....|--- .... ....
....|..|--- .... ....|E-4 2F27 ....|--- .... ....
....|..|--- .... ....|--- .... ....|--- .... ....
....|..|--- .... ....|--- .... ....|--- .... ....
....|..|--- .... ....|G-4 3FFF ....|--- .... ....
....|..|--- .... ....|--- .... ....|--- .... ....
....|..|--- .... ....|--- .... ....|--- .... ....
....|..|--- .... ....|--- .... ....|--- .... ....
....|..|--- .... ....|E-4 3FFF ....|--- .... ....
....|..|--- .... ....|--- .... ....|--- .... ....
....|..|--- .... ....|G-4 3FFA ....|--- .... ....
....|..|--- .... ....|--- .... ....|R-- .... ....
 C-4|..|--- .... ....|--- .... ....|C-2 2AEF ....
....|..|--- .... ....|--- .... ....|--- .... ....
....|..|--- .... ....|E-4 3FFA ....|--- .... ....
....|..|--- .... ....|--- .... ....|--- .... ....
 C-4|..|--- .... ....|G-4 3FF7 ....|C-2 2AEF ....
 B-3|..|--- .... ....|--- .... ....|B-1 2AEF ....
....|..|--- .... ....|--- .... ....|--- .... ....
....|..|--- .... ....|--- .... ....|--- .... ....
....|..|--- .... ....|G-4 3FFF ....|--- .... ....
....|..|--- .... ....|E-4 2F2F ....|--- .... ....
....|..|--- .... ....|--- .... ....|--- .... ....
....|..|--- .... ....|--- .... ....|--- .... ....
....|..|--- .... ....|--- .... ....|--- .... ....
....|..|--- .... ....|--- .... ....|--- .... ....
....|..|--- .... ....|G-4 3FFA ....|--- .... ....
....|..|--- .... ....|E-4 2F2A ....|--- .... ....
....|..|--- .... ....|E-4 3FFF ....|--- .... ....
....|..|--- .... ....|--- .... ....|--- .... ....
....|..|--- .... ....|--- .... ....|--- .... ....
....|..|--- .... ....|--- .... ....|--- .... ....
....|..|--- .... ....|G-4 3FF7 ....|--- .... ....
....|..|--- .... ....|E-4 2F27 ....|--- .... ....
....|..|--- .... ....|E-4 3FFA ....|--- .... ....
....|..|--- .... ....|--- .... ....|--- .... ....
....|..|--- .... ....|--- .... ....|--- .... ....
....|..|--- .... ....|--- .... ....|--- .... ....
....|..|--- .... ....|--- .... ....|--- .... ....
....|..|--- .... ....|--- .... ....|--- .... ....
....|..|--- .... ....|E-4 3FF7 ....|--- .... ....
....|..|--- .... ....|--- .... ....|--- .... ....
....|..|--- .... ....|--- .... ....|--- .... ....
....|..|--- .... ....|--- .... ....|--- .... ....
....|..|--- .... ....|--- .... ....|--- .... ....
....|..|--- .... ....|--- .... ....|--- .... ....
....|..|--- .... ....|--- .... ....|--- .... ....
....|..|--- .... ....|--- .... ....|--- .... ....
....|..|--- .... ....|--- .... ....|--- .... ....
....|..|--- .... ....|--- .... ....|--- .... ....
....|..|--- .... ....|--- .... ....|--- .... ....
....|..|--- .... ....|--- .... ....|R-- .... ....

[Pattern3]
....|..|--- .... ....|A-4 3FFF ....|--- .... ....
....|..|--- .... ....|F-4 2F1F ....|--- .... ....
....|..|--- .... ....|--- .... ....|--- .... ....
....|..|--- .... ....|--- .... ....|--- .... ....
....|..|--- .... ....|F-4 3FFF ....|--- .... ....
....|..|--- .... ....|--- .... ....|--- .... ....
....|..|--- .... ....|A-4 3FFA ....|--- .... ....
....|..|--- .... ....|F-4 2F1A ....|--- .... ....
 B-2|..|--- .... ....|--- .... ....|B-3 2CEF ....
....|..|--- .... ....|--- .... ....|--- .... ....
....|..|--- .... ....|F-4 3FFA ....|--- .... ....
....|..|--- .... ....|--- .... ....|--- .... ....
 C-4|..|--- .... ....|A-4 3FF7 ....|C-4 2CEF ....
....|..|--- .... ....|F-4 2F17 ....|--- .... ....
....|..|--- .... ....|--- .... ....|--- .... ....
....|..|--- .... ....|--- .... ....|R-- .... ....
....|..|--- .... ....|A-4 3FFF ....|--- .... ....
....|..|--- .... ....|--- .... ....|--- .... ....
....|..|--- .... ....|--- .... ....|--- .... ....
....|..|--- .... ....|--- .... ....|--- .... ....
 D-4|..|--- .... ....|F-4 3FFF ....|D-4 2CEF ....
....|..|--- .... ....|--- .... ....|--- .... ....
....|..|--- .... ....|A-4 3FFA ....|--- .... ....
....|..|--- .... ....|--- .... ....|R-- .... ....
....|..|--- .... ....|--- .... ....|--- .... ....
....|..|--- .... ....|--- .... ....|--- .... ....
....|..|--- .... ....|F-4 3FFA ....|--- .... ....
....|..|--- .... ....|--- .... ....|--- .... ....
....|..|--- .... ....|A-4 3FF7 ....|--- .... ....
....|..|--- .... ....|--- .... ....|--- .... ....
....|..|--- .... ....|--- .... ....|--- .... ....
....|..|--- .... ....|--- .... ....|--- .... ....
....|..|--- .... ....|A-4 3FFF ....|--- .... ....
....|..|--- .... ....|F-4 2F1F ....|--- .... ....
....|..|--- .... ....|--- .... ....|--- .... ....
....|..|--- .... ....|--- .... ....|--- .... ....
....|..|--- .... ....|--- .... ....|--- .... ....
....|..|--- .... ....|--- .... ....|--- .... ....
....|..|--- .... ....|A-4 3FFA ....|--- .... ....
....|..|--- .... ....|F-4 2F1A ....|--- .... ....
 F-3|..|--- .... ....|F-4 3FFF ....|F-4 2CEF ....
....|..|--- .... ....|--- .... ....|--- .... ....
....|..|--- .... ....|--- .... ....|--- .... ....
....|..|--- .... ....|--- .... ....|--- .... ....
 E-4|..|--- .... ....|A-4 3FF7 ....|E-4 2CEF ....
....|..|--- .... ....|F-4 2F17 ....|--- .... ....
....|..|--- .... ....|F-4 3FFA ....|--- .... ....
....|..|--- .... ....|--- .... ....|--- .... ....
....|..|--- .... ....|--- .... ....|R-- .... ....
....|..|--- .... ....|--- .... ....|--- .... ....
....|..|--- .... ....|--- .... ....|--- .... ....
....|..|--- .... ....|--- .... ....|--- .... ....
 F-3|..|--- .... ....|F-4 3FF7 ....|F-4 2CEF ....
....|..|--- .... ....|--- .... ....|--- .... ....
....|..|--- .... ....|--- .... ....|--- .... ....
....|..|--- .... ....|--- .... ....|--- .... ....
 E-4|..|--- .... ....|--- .... ....|E-4 2CEF ....
....|..|--- .... ....|--- .... ....|--- .... ....
....|..|--- .... ....|--- .... ....|--- .... ....
....|..|--- .... ....|--- .... ....|--- .... ....
....|..|--- .... ....|--- .... ....|R-- .... ....
....|..|--- .... ....|--- .... ....|--- .... ....
....|..|--- .... ....|--- .... ....|--- .... ....
....|..|--- .... ....|--- .... ....|--- .... ....

[Pattern12]
 C-4|..|D-4 2F.F ....|G-5 3FFF ....|C-4 2CEF ....
....|..|--- .... ....|C-4 2F1F ....|--- .... ....
....|..|E-4 2F.F ....|--- .... ....|--- .... ....
....|..|--- .... ....|--- .... ....|--- .... ....
....|..|C-4 2F.F ....|E-5 3FFF ....|--- .... ....
....|..|--- .... ....|--- .... ....|--- .... ....
....|..|D-4 2F.A ....|G-5 3FFA ....|--- .... ....
....|..|--- .... ....|C-4 2F1A ....|--- .... ....
....|..|E-4 2F.A ....|--- .... ....|R-- .... ....
....|..|--- .... ....|--- .... ....|--- .... ....
....|..|C-4 2F.A ....|E-5 3FFA ....|--- .... ....
....|..|--- .... ....|--- .... ....|--- .... ....
 D-4|..|D-4 2F.7 ....|G-5 3FF7 ....|D-4 2CEF ....
....|..|--- .... ....|C-4 2F17 ....|--- .... ....
....|..|E-4 2F.7 ....|--- .... ....|--- .... ....
....|..|--- .... ....|--- .... ....|--- .... ....
....|..|C-4 2F.7 ....|G-5 3FFF ....|--- .... ....
....|..|--- .... ....|--- .... ....|--- .... ....
....|..|--- .... ....|--- .... ....|--- .... ....
....|..|--- .... ....|--- .... ....|--- .... ....
....|..|--- .... ....|E-5 3FFF ....|--- .... ....
....|..|--- .... ....|--- .... ....|R-- .... ....
....|..|--- .... ....|G-5 3FFA ....|--- .... ....
....|..|--- .... ....|--- .... ....|--- .... ....
 F-3|..|R-- .... ....|--- .... ....|F-4 2CEF ....
....|..|D-5 2F.F ....|--- .... ....|--- .... ....
....|..|C-5 2F.F ....|E-5 3FFA ....|--- .... ....
....|..|D-5 2F.F ....|--- .... ....|--- .... ....
....|..|E-5 2F.F ....|G-5 3FF7 ....|--- .... ....
....|..|D-5 2F.F ....|--- .... ....|R-- .... ....
....|..|E-5 2F.F ....|--- .... ....|--- .... ....
....|..|D-5 2F.F ....|--- .... ....|--- .... ....
 E-4|..|G-5 2F.F ....|G-5 3FFF ....|E-4 2CEF ....
....|..|D-5 2F.A ....|C-4 2F1F ....|--- .... ....
....|..|E-5 2F.A ....|--- .... ....|--- .... ....
....|..|D-5 2F.A ....|--- .... ....|--- .... ....
....|..|E-5 2F.A ....|--- .... ....|--- .... ....
....|..|D-5 2F.7 ....|--- .... ....|--- .... ....
....|..|C-5 2F.7 ....|G-5 3FFA ....|--- .... ....
....|..|D-5 2F.7 ....|C-4 2F1A ....|--- .... ....
....|..|E-5 2F.7 ....|E-5 3FFF ....|--- .... ....
....|..|D-5 2F.7 ....|--- .... ....|--- .... ....
....|..|E-5 2F.7 ....|--- .... ....|--- .... ....
....|..|D-5 2F.7 ....|--- .... ....|--- .... ....
....|..|G-5 2F.7 ....|G-5 3FF7 ....|--- .... ....
....|..|--- .... ....|C-4 2F17 ....|--- .... ....
....|..|--- .... ....|E-5 3FFA ....|--- .... ....
....|..|--- .... ....|--- .... ....|--- .... ....
....|..|C-6 2F.F ....|--- .... ....|--- .... ....
....|..|--- .... ....|--- .... ....|--- .... ....
....|..|D-6 2F.F ....|--- .... ....|--- .... ....
....|..|--- .... ....|--- .... ....|--- .... ....
....|..|G-5 2F.F ....|E-5 3FF7 ....|--- .... ....
....|..|--- .... ....|--- .... ....|--- .... ....
....|..|C-6 2F.A ....|--- .... ....|--- .... ....
....|..|--- .... ....|--- .... ....|--- .... ....
....|..|D-6 2F.A ....|--- .... ....|--- .... ....
....|..|--- .... ....|--- .... ....|--- .... ....
....|..|G-5 2F.A ....|--- .... ....|--- .... ....
....|..|--- .... ....|--- .... ....|--- .... ....
....|..|C-6 2F.7 ....|--- .... ....|R-- .... ....
....|..|--- .... ....|--- .... ....|--- .... ....
....|..|D-6 2F.7 ....|--- .... ....|--- .... ....
....|..|--- .... ....|--- .... ....|--- .... ....

[Pattern13]
 A-3|..|D-4 2F.F ....|E-5 3FFF ....|A-3 2CEF ....
....|..|--- .... ....|A-4 2F2F ....|--- .... ....
....|..|E-4 2F.F ....|--- .... ....|--- .... ....
....|..|--- .... ....|--- .... ....|--- .... ....
....|..|C-4 2F.F ....|D-5 3FFF ....|--- .... ....
....|..|--- .... ....|--- .... ....|--- .... ....
....|..|D-4 2F.A ....|E-5 3FFA ....|--- .... ....
 A-3|..|--- .... ....|A-4 2F2A ....|A-2 2CEF ....
....|..|E-4 2F.A ....|--- .... ....|--- .... ....
....|..|--- .... ....|--- .... ....|--- .... ....
....|..|C-4 2F.A ....|D-5 3FFA ....|--- .... ....
....|..|--- .... ....|--- .... ....|--- .... ....
....|..|D-4 2F.7 ....|E-5 3FF7 ....|--- .... ....
....|..|--- .... ....|A-4 2F27 ....|--- .... ....
....|..|E-4 2F.7 ....|--- .... ....|--- .... ....
....|..|--- .... ....|--- .... ....|--- .... ....
....|..|C-4 2F.7 ....|E-5 3FFF ....|--- .... ....
....|..|--- .... ....|--- .... ....|--- .... ....
....|..|--- .... ....|--- .... ....|--- .... ....
....|..|--- .... ....|--- .... ....|--- .... ....
....|..|--- .... ....|D-5 3FFF ....|--- .... ....
....|..|--- .... ....|--- .... ....|--- .... ....
....|..|--- .... ....|E-5 3FFA ....|--- .... ....
....|..|--- .... ....|--- .... ....|--- .... ....
 D-4|..|R-- .... ....|--- .... ....|D-4 2CEF ....
....|..|A-4 2F.F ....|--- .... ....|--- .... ....
....|..|G-4 2F.F ....|D-5 3FFA ....|--- .... ....
 A-3|..|A-4 2F.F ....|--- .... ....|A-2 2CEF ....
 C-4|..|C-5 2F.F ....|E-5 3FF7 ....|C-4 2CEF ....
....|..|A-4 2F.F ....|--- .... ....|--- .... ....
 A-3|..|C-5 2F.F ....|--- .... ....|A-2 2CEF ....
....|..|A-4 2F.F ....|--- .... ....|--- .... ....
....|..|D-5 2F.F ....|E-5 3FFF ....|--- .... ....
....|..|A-4 2F.A ....|A-4 2F2F ....|--- .... ....
....|..|C-5 2F.A ....|--- .... ....|--- .... ....
....|..|A-4 2F.A ....|--- .... ....|--- .... ....
 D-4|..|C-5 2F.A ....|--- .... ....|D-3 2CEF ....
....|..|A-4 2F.7 ....|--- .... ....|--- .... ....
....|..|G-4 2F.7 ....|E-5 3FFA ....|--- .... ....
....|..|A-4 2F.7 ....|A-4 2F2A ....|--- .... ....
 A-3|..|C-5 2F.7 ....|D-5 3FFF ....|A-2 2CEF ....
....|..|A-4 2F.7 ....|--- .... ....|--- .... ....
....|..|C-5 2F.7 ....|--- .... ....|--- .... ....
....|..|A-4 2F.7 ....|--- .... ....|--- .... ....
 A-3|..|D-5 2F.7 ....|E-5 3FF7 ....|A-3 2CEF ....
....|..|--- .... ....|A-4 2F27 ....|--- .... ....
....|..|--- .... ....|D-5 3FFA ....|--- .... ....
 A-3|..|--- .... ....|--- .... ....|A-2 2CEF ....
 C-4|..|G-5 2F.F ....|--- .... ....|C-3 2CEF ....
....|..|R-- .... ....|--- .... ....|--- .... ....
....|..|A-5 2F.F ....|--- .... ....|--- .... ....
 A-3|..|--- .... ....|--- .... ....|A-2 2CEF ....
 B-2|..|D-5 2F.F ....|D-5 3FF7 ....|B-3 2CEF ....
....|..|--- .... ....|--- .... ....|--- .... ....
 A-3|..|G-5 2F.A ....|--- .... ....|A-2 2CEF ....
....|..|R-- .... ....|--- .... ....|--- .... ....
 C-4|..|A-5 2F.A ....|--- .... ....|C-4 2CEF ....
....|..|--- .... ....|--- .... ....|--- .... ....
 C-4|..|D-5 2F.A ....|--- .... ....|C-4 2CEF ....
....|..|--- .... ....|--- .... ....|--- .... ....
....|..|G-5 2F.7 ....|--- .... ....|R-- .... ....
....|..|R-- .... ....|--- .... ....|--- .... ....
....|..|A-5 2F.7 ....|--- .... ....|--- .... ....
....|..|--- .... ....|--- .... ....|--- .... ....

[Pattern14]
 G-4|..|E-5 2F.F ....|G-4 3FFF ....|G-2 2AEF ....
....|..|--- .... ....|E-4 2F2F ....|--- .... ....
....|..|G-5 2F.F ....|--- .... ....|--- .... ....
....|..|--- .... ....|--- .... ....|--- .... ....
....|..|R-- .... ....|E-4 3FFF ....|--- .... ....
....|..|D-6 2F.F ....|--- .... ....|--- .... ....
....|..|E-5 2F.A ....|G-4 3FFA ....|--- .... ....
....|..|--- .... ....|E-4 2F2A ....|--- .... ....
....|..|G-5 2F.A ....|--- .... ....|--- .... ....
....|..|--- .... ....|--- .... ....|--- .... ....
....|..|R-- .... ....|E-4 3FFA ....|--- .... ....
....|..|D-6 2F.A ....|--- .... ....|--- .... ....
....|..|E-5 2F.7 ....|G-4 3FF7 ....|--- .... ....
....|..|--- .... ....|E-4 2F27 ....|--- .... ....
....|..|G-5 2F.7 ....|--- .... ....|--- .... ....
....|..|--- .... ....|--- .... ....|--- .... ....
....|..|R-- .... ....|G-4 3FFF ....|--- .... ....
....|..|D-6 2F.7 ....|--- .... ....|--- .... ....
....|..|--- .... ....|--- .... ....|--- .... ....
....|..|--- .... ....|--- .... ....|--- .... ....
....|..|--- .... ....|E-4 3FFF ....|--- .... ....
....|..|--- .... ....|--- .... ....|--- .... ....
....|..|--- .... ....|G-4 3FFA ....|--- .... ....
....|..|--- .... ....|--- .... ....|R-- .... ....
 C-4|..|E-5 2F.F ....|--- .... ....|C-2 2AEF ....
....|..|G-5 2F.F ....|--- .... ....|--- .... ....
....|..|E-5 2F.F ....|E-4 3FFA ....|--- .... ....
....|..|G-5 2F.F ....|--- .... ....|--- .... ....
 C-4|..|A-5 2F.F ....|G-4 3FF7 ....|C-2 2AEF ....
 B-3|..|G-5 2F.F ....|--- .... ....|B-1 2AEF ....
....|..|A-5 2F.F ....|--- .... ....|--- .... ....
....|..|G-5 2F.F ....|--- .... ....|--- .... ....
....|..|D-6 2F.F ....|G-4 3FFF ....|--- .... ....
....|..|G-5 2F.A ....|E-4 2F2F ....|--- .... ....
....|..|A-5 2F.A ....|--- .... ....|--- .... ....
....|..|G-5 2F.A ....|--- .... ....|--- .... ....
....|..|E-5 2F.7 ....|--- .... ....|--- .... ....
....|..|G-5 2F.7 ....|--- .... ....|--- .... ....
....|..|E-5 2F.7 ....|G-4 3FFA ....|--- .... ....
....|..|G-5 2F.7 ....|E-4 2F2A ....|--- .... ....
....|..|A-5 2F.7 ....|E-4 3FFF ....|--- .... ....
....|..|G-5 2F.7 ....|--- .... ....|--- .... ....
....|..|A-5 2F.7 ....|--- .... ....|--- .... ....
....|..|G-5 2F.7 ....|--- .... ....|--- .... ....
....|..|D-6 2F.7 ....|G-4 3FF7 ....|--- .... ....
....|..|--- .... ....|E-4 2F27 ....|--- .... ....
....|..|--- .... ....|E-4 3FFA ....|--- .... ....
....|..|--- .... ....|--- .... ....|--- .... ....
....|..|R-- .... ....|--- .... ....|--- .... ....
....|..|A-6 2F.F ....|--- .... ....|--- .... ....
....|..|G-6 2F.F ....|--- .... ....|--- .... ....
....|..|--- .... ....|--- .... ....|--- .... ....
....|..|A-6 2F.F ....|E-4 3FF7 ....|--- .... ....
....|..|--- .... ....|--- .... ....|--- .... ....
....|..|G-6 2F.F ....|--- .... ....|--- .... ....
....|..|A-6 2F.A ....|--- .... ....|--- .... ....
....|..|A-6 2F.F ....|--- .... ....|--- .... ....
....|..|--- .... ....|--- .... ....|--- .... ....
....|..|G-6 2F.F ....|--- .... ....|--- .... ....
....|..|--- .... ....|--- .... ....|--- .... ....
....|..|E-6 2F.F ....|--- .... ....|--- .... ....
....|..|A-6 2F.7 ....|--- .... ....|--- .... ....
....|..|D-6 2F.F ....|--- .... ....|--- .... ....
....|..|--- .... ....|--- .... ....|R-- .... ....

[Pattern15]
....|..|C-6 2F.F ....|A-4 3FFF ....|--- .... ....
....|..|--- .... ....|F-4 2F1F ....|--- .... ....
....|..|D-6 2F.F ....|--- .... ....|--- .... ....
....|..|--- .... ....|--- .... ....|--- .... ....
....|..|A-6 2F.7 ....|F-4 3FFF ....|--- .... ....
....|..|--- .... ....|--- .... ....|--- .... ....
....|..|C-6 2F.F ....|A-4 3FFA ....|--- .... ....
....|..|--- .... ....|F-4 2F1A ....|--- .... ....
 B-2|..|D-6 2F.F ....|--- .... ....|B-3 2CEF ....
....|..|--- .... ....|--- .... ....|--- .... ....
....|..|D-6 2F.7 ....|F-4 3FFA ....|--- .... ....
....|..|--- .... ....|--- .... ....|--- .... ....
 C-4|..|G-6 2F.F ....|A-4 3FF7 ....|C-4 2CEF ....
....|..|--- .... ....|F-4 2F17 ....|--- .... ....
....|..|D-6 2F.7 ....|--- .... ....|--- .... ....
....|..|--- .... ....|--- .... ....|R-- .... ....
....|..|--- .... ....|A-4 3FFF ....|--- .... ....
....|..|--- .... ....|--- .... ....|--- .... ....
....|..|C-6 2F.7 ....|--- .... ....|--- .... ....
....|..|--- .... ....|--- .... ....|--- .... ....
 D-4|..|D-6 2F.7 ....|F-4 3FFF ....|D-4 2CEF ....
....|..|--- .... ....|--- .... ....|--- .... ....
....|..|--- .... ....|A-4 3FFA ....|--- .... ....
....|..|R-- .... ....|--- .... ....|R-- .... ....
....|..|F-6 2F.F ....|--- .... ....|--- .... ....
....|..|E-6 2F.F ....|--- .... ....|--- .... ....
....|..|D-6 2F.F ....|F-4 3FFA ....|--- .... ....
....|..|C-6 2F.F ....|--- .... ....|--- .... ....
....|..|A-5 2F.F ....|A-4 3FF7 ....|--- .... ....
....|..|F-5 2F.F ....|--- .... ....|--- .... ....
....|..|E-5 2F.F ....|--- .... ....|--- .... ....
....|..|D-5 2F.F ....|--- .... ....|--- .... ....
....|..|C-5 2F.F ....|A-4 3FFF ....|--- .... ....
....|..|C-6 2F.A ....|F-4 2F1F ....|--- .... ....
....|..|A-5 2F.A ....|--- .... ....|--- .... ....
....|..|F-5 2F.A ....|--- .... ....|--- .... ....
....|..|F-6 2F.7 ....|--- .... ....|--- .... ....
....|..|E-6 2F.7 ....|--- .... ....|--- .... ....
....|..|D-6 2F.7 ....|A-4 3FFA ....|--- .... ....
....|..|C-6 2F.7 ....|F-4 2F1A ....|--- .... ....
 F-3|..|A-5 2F.7 ....|F-4 3FFF ....|F-4 2CEF ....
....|..|F-5 2F.7 ....|--- .... ....|--- .... ....
....|..|E-5 2F.7 ....|--- .... ....|--- .... ....
....|..|D-5 2F.7 ....|--- .... ....|--- .... ....
 E-4|..|C-5 2F.7 ....|A-4 3FF7 ....|E-4 2CEF ....
....|..|--- .... ....|F-4 2F17 ....|--- .... ....
....|..|--- .... ....|F-4 3FFA ....|--- .... ....
....|..|--- .... ....|--- .... ....|--- .... ....
....|..|D-5 2F.F ....|--- .... ....|R-- .... ....
....|..|--- .... ....|--- .... ....|--- .... ....
....|..|C-5 2F.F ....|--- .... ....|--- .... ....
....|..|--- .... ....|--- .... ....|--- .... ....
 F-3|..|D-5 2F.F ....|F-4 3FF7 ....|F-4 2CEF ....
....|..|--- .... ....|--- .... ....|--- .... ....
....|..|C-5 2F.F ....|--- .... ....|--- .... ....
....|..|--- .... ....|--- .... ....|--- .... ....
 E-4|..|F-5 2F.F ....|--- .... ....|E-4 2CEF ....
....|..|--- .... ....|--- .... ....|--- .... ....
....|..|E-5 2F.F ....|--- .... ....|--- .... ....
....|..|--- .... ....|--- .... ....|--- .... ....
....|..|F-5 2F.F ....|--- .... ....|R-- .... ....
....|..|--- .... ....|--- .... ....|--- .... ....
....|..|E-5 2F.F ....|--- .... ....|--- .... ....
....|..|--- .... ....|--- .... ....|--- .... ....

[Pattern16]
 C-4|..|D-4 2F.F ....|G-5 3FFF ....|C-4 2CEF ....
....|..|R-- .... ....|C-4 2F1F ....|--- .... ....
....|..|E-4 2F.F ....|--- .... ....|--- .... ....
....|..|--- .... ....|--- .... ....|--- .... ....
....|..|C-5 2F.F ....|E-5 3FFF ....|--- .... ....
....|..|--- .... ....|--- .... ....|--- .... ....
....|..|D-4 2F.F ....|G-5 3FFA ....|--- .... ....
....|..|R-- .... ....|C-4 2F1A ....|--- .... ....
....|..|E-4 2F.F ....|--- .... ....|R-- .... ....
....|..|--- .... ....|--- .... ....|--- .... ....
....|..|C-5 2F.F ....|E-5 3FFA ....|--- .... ....
....|..|--- .... ....|--- .... ....|--- .... ....
 D-4|..|D-4 2F.F ....|G-5 3FF7 ....|D-4 2CEF ....
....|..|R-- .... ....|C-4 2F17 ....|--- .... ....
....|..|E-4 2F.F ....|--- .... ....|--- .... ....
....|..|--- .... ....|--- .... ....|--- .... ....
....|..|G-5 2F.F ....|G-5 3FFF ....|--- .... ....
....|..|--- .... ....|--- .... ....|--- .... ....
....|..|D-4 2F.7 ....|--- .... ....|--- .... ....
....|..|R-- .... ....|--- .... ....|--- .... ....
....|..|E-4 2F.7 ....|E-5 3FFF ....|--- .... ....
....|..|--- .... ....|--- .... ....|R-- .... ....
....|..|D-5 2F.F ....|G-5 3FFA ....|--- .... ....
....|..|--- .... ....|--- .... ....|--- .... ....
 F-3|..|C-5 2F.F ....|--- .... ....|F-4 2CEF ....
....|..|D-5 2F.F ....|--- .... ....|--- .... ....
....|..|C-5 2F.F ....|E-5 3FFA ....|--- .... ....
....|..|D-5 2F.F ....|--- .... ....|--- .... ....
....|..|E-5 2F.F ....|G-5 3FF7 ....|--- .... ....
....|..|D-5 2F.F ....|--- .... ....|R-- .... ....
....|..|E-5 2F.F ....|--- .... ....|--- .... ....
....|..|D-5 2F.F ....|--- .... ....|--- .... ....
 E-4|..|C-5 2F.F ....|G-5 3FFF ....|E-4 2CEF ....
....|..|D-5 2F.F ....|C-4 2F1F ....|--- .... ....
....|..|C-5 2F.F ....|--- .... ....|--- .... ....
....|..|D-5 2F.F ....|--- .... ....|--- .... ....
....|..|E-5 2F.F ....|--- .... ....|--- .... ....
....|..|D-5 2F.F ....|--- .... ....|--- .... ....
....|..|E-5 2F.F ....|G-5 3FFA ....|--- .... ....
....|..|D-5 2F.F ....|C-4 2F1A ....|--- .... ....
....|..|G-5 2F.F ....|E-5 3FFF ....|--- .... ....
....|..|D-5 2F.7 ....|--- .... ....|--- .... ....
....|..|E-5 2F.7 ....|--- .... ....|--- .... ....
....|..|D-5 2F.7 ....|--- .... ....|--- .... ....
....|..|C-5 2F.7 ....|G-5 3FF7 ....|--- .... ....
....|..|C-6 2F.F ....|C-4 2F17 ....|--- .... ....
....|..|C-5 2F.7 ....|E-5 3FFA ....|--- .... ....
....|..|G-5 2F.F ....|--- .... ....|--- .... ....
....|..|C-6 2F.F ....|--- .... ....|--- .... ....
....|..|D-5 2F.7 ....|--- .... ....|--- .... ....
....|..|E-5 2F.7 ....|--- .... ....|--- .... ....
....|..|D-5 2F.7 ....|--- .... ....|--- .... ....
....|..|D-6 2F.F ....|E-5 3FF7 ....|--- .... ....
....|..|G-5 2F.A ....|--- .... ....|--- .... ....
....|..|C-6 2F.F ....|--- .... ....|--- .... ....
....|..|--- .... ....|--- .... ....|--- .... ....
....|..|R-- .... ....|--- .... ....|--- .... ....
....|..|C-6 2F.7 ....|--- .... ....|--- .... ....
....|..|G-5 2F.F ....|--- .... ....|--- .... ....
....|..|G-5 2F.7 ....|--- .... ....|--- .... ....
....|..|D-5 2F.F ....|--- .... ....|R-- .... ....
....|..|--- .... ....|--- .... ....|--- .... ....
....|..|R-- .... ....|--- .... ....|--- .... ....
....|..|C-6 2F.F ....|--- .... ....|--- .... ....

[Pattern17]
 A-3|..|D-4 2F.F ....|E-5 3FFF ....|A-3 2CEF ....
....|..|--- .... ....|A-4 2F2F ....|--- .... ....
....|..|E-4 2F.F ....|--- .... ....|--- .... ....
....|..|--- .... ....|--- .... ....|--- .... ....
....|..|R-- .... ....|D-5 3FFF ....|--- .... ....
....|..|C-5 2F.F ....|--- .... ....|--- .... ....
....|..|D-4 2F.F ....|E-5 3FFA ....|--- .... ....
 A-3|..|R-- .... ....|A-4 2F2A ....|A-2 2CEF ....
....|..|E-4 2F.F ....|--- .... ....|--- .... ....
....|..|--- .... ....|--- .... ....|--- .... ....
....|..|C-5 2F.F ....|D-5 3FFA ....|--- .... ....
....|..|C-6 2F.7 ....|--- .... ....|--- .... ....
....|..|D-4 2F.F ....|E-5 3FF7 ....|--- .... ....
....|..|R-- .... ....|A-4 2F27 ....|--- .... ....
....|..|E-4 2F.F ....|--- .... ....|--- .... ....
....|..|R-- .... ....|--- .... ....|--- .... ....
....|..|C-5 2F.F ....|E-5 3FFF ....|--- .... ....
....|..|C-5 2F.7 ....|--- .... ....|--- .... ....
....|..|D-4 2F.7 ....|--- .... ....|--- .... ....
....|..|R-- .... ....|--- .... ....|--- .... ....
....|..|E-4 2F.7 ....|D-5 3FFF ....|--- .... ....
....|..|R-- .... ....|--- .... ....|--- .... ....
....|..|C-5 2F.7 ....|E-5 3FFA ....|--- .... ....
....|..|--- .... ....|--- .... ....|--- .... ....
 D-4|..|G-4 2F.F ....|--- .... ....|D-4 2CEF ....
....|..|A-4 2F.F ....|--- .... ....|--- .... ....
....|..|G-4 2F.F ....|D-5 3FFA ....|--- .... ....
 A-3|..|A-4 2F.F ....|--- .... ....|A-2 2CEF ....
 C-4|..|C-5 2F.F ....|E-5 3FF7 ....|C-4 2CEF ....
....|..|A-4 2F.F ....|--- .... ....|--- .... ....
 A-3|..|C-5 2F.F ....|--- .... ....|A-2 2CEF ....
....|..|A-4 2F.F ....|--- .... ....|--- .... ....
....|..|D-5 2F.F ....|E-5 3FFF ....|--- .... ....
....|..|A-4 2F.A ....|A-4 2F2F ....|--- .... ....
....|..|C-5 2F.A ....|--- .... ....|--- .... ....
....|..|A-4 2F.A ....|--- .... ....|--- .... ....
 D-4|..|G-4 2F.7 ....|--- .... ....|D-3 2CEF ....
....|..|A-4 2F.7 ....|--- .... ....|--- .... ....
....|..|C-5 2F.F ....|E-5 3FFA ....|--- .... ....
....|..|A-4 2F.7 ....|A-4 2F2A ....|--- .... ....
 A-3|..|C-5 2F.7 ....|D-5 3FFF ....|A-2 2CEF ....
....|..|A-4 2F.7 ....|--- .... ....|--- .... ....
....|..|C-5 2F.7 ....|--- .... ....|--- .... ....
....|..|A-4 2F.7 ....|--- .... ....|--- .... ....
 A-3|..|B-4 2F.F ....|E-5 3FF7 ....|A-3 2CEF ....
....|..|--- .... ....|A-4 2F27 ....|--- .... ....
....|..|--- .... ....|D-5 3FFA ....|--- .... ....
 A-3|..|--- .... ....|--- .... ....|A-2 2CEF ....
 C-4|..|--- .... ....|--- .... ....|C-3 2CEF ....
....|..|--- .... ....|--- .... ....|--- .... ....
....|..|C-5 2F.7 ....|--- .... ....|--- .... ....
 A-3|..|--- .... ....|--- .... ....|A-2 2CEF ....
 B-2|..|C-5 2F.F ....|D-5 3FF7 ....|B-3 2CEF ....
....|..|--- .... ....|--- .... ....|--- .... ....
 A-3|..|--- .... ....|--- .... ....|A-2 2CEF ....
....|..|--- .... ....|--- .... ....|--- .... ....
 C-4|..|B-4 2F.7 ....|--- .... ....|C-4 2CEF ....
....|..|--- .... ....|--- .... ....|--- .... ....
 C-4|..|C-5 2F.A ....|--- .... ....|C-4 2CEF ....
....|..|--- .... ....|--- .... ....|--- .... ....
....|..|--- .... ....|--- .... ....|R-- .... ....
....|..|--- .... ....|--- .... ....|--- .... ....
....|..|--- .... ....|--- .... ....|--- .... ....
....|..|--- .... ....|--- .... ....|--- .... ....

[Pattern18]
 G-4|..|B-4 2F.F ....|G-4 3FFF ....|G-2 2AEF ....
....|..|--- .... ....|E-4 2F2F ....|--- .... ....
....|..|C-5 2F.F ....|--- .... ....|--- .... ....
....|..|--- .... ....|--- .... ....|--- .... ....
....|..|R-- .... ....|E-4 3FFF ....|--- .... ....
....|..|--- .... ....|--- .... ....|--- .... ....
....|..|B-4 2F.F ....|G-4 3FFA ....|--- .... ....
....|..|--- .... ....|E-4 2F2A ....|--- .... ....
....|..|C-5 2F.F ....|--- .... ....|--- .... ....
....|..|--- .... ....|--- .... ....|--- .... ....
....|..|R-- .... ....|E-4 3FFA ....|--- .... ....
....|..|--- .... ....|--- .... ....|--- .... ....
....|..|G-4 2F.F ....|G-4 3FF7 ....|--- .... ....
....|..|--- .... ....|E-4 2F27 ....|--- .... ....
....|..|C-5 2F.7 ....|--- .... ....|--- .... ....
....|..|--- .... ....|--- .... ....|--- .... ....
....|..|R-- .... ....|G-4 3FFF ....|--- .... ....
....|..|R-- .... ....|--- .... ....|--- .... ....
....|..|G-4 2F.F ....|--- .... ....|--- .... ....
....|..|--- .... ....|--- .... ....|--- .... ....
....|..|C-5 2F.7 ....|E-4 3FFF ....|--- .... ....
....|..|--- .... ....|--- .... ....|--- .... ....
....|..|--- .... ....|G-4 3FFA ....|--- .... ....
....|..|R-- .... ....|--- .... ....|R-- .... ....
 C-4|..|D-5 2F.F ....|--- .... ....|C-2 2AEF ....
....|..|C-5 2F.F ....|--- .... ....|--- .... ....
....|..|B-4 2F.F ....|E-4 3FFA ....|--- .... ....
....|..|C-5 2F.F ....|--- .... ....|--- .... ....
 C-4|..|B-4 2F.F ....|G-4 3FF7 ....|C-2 2AEF ....
 B-3|..|C-5 2F.F ....|--- .... ....|B-1 2AEF ....
....|..|B-4 2F.F ....|--- .... ....|--- .... ....
....|..|A-4 2F.F ....|--- .... ....|--- .... ....
....|..|G-4 2F.F ....|G-4 3FFF ....|--- .... ....
....|..|C-5 2F.A ....|E-4 2F2F ....|--- .... ....
....|..|B-4 2F.A ....|--- .... ....|--- .... ....
....|..|C-5 2F.A ....|--- .... ....|--- .... ....
....|..|D-5 2F.7 ....|--- .... ....|--- .... ....
....|..|C-5 2F.7 ....|--- .... ....|--- .... ....
....|..|B-4 2F.7 ....|G-4 3FFA ....|--- .... ....
....|..|C-5 2F.7 ....|E-4 2F2A ....|--- .... ....
....|..|B-4 2F.7 ....|E-4 3FFF ....|--- .... ....
....|..|C-5 2F.7 ....|--- .... ....|--- .... ....
....|..|B-4 2F.7 ....|--- .... ....|--- .... ....
....|..|A-4 2F.7 ....|--- .... ....|--- .... ....
....|..|G-4 2F.7 ....|G-4 3FF7 ....|--- .... ....
....|..|--- .... ....|E-4 2F27 ....|--- .... ....
....|..|--- .... ....|E-4 3FFA ....|--- .... ....
....|..|--- .... ....|--- .... ....|--- .... ....
....|..|A-6 2F.F ....|--- .... ....|--- .... ....
....|..|--- .... ....|--- .... ....|--- .... ....
....|..|G-6 2F.F ....|--- .... ....|--- .... ....
....|..|--- .... ....|--- .... ....|--- .... ....
....|..|A-6 2F.F ....|E-4 3FF7 ....|--- .... ....
....|..|--- .... ....|--- .... ....|--- .... ....
....|..|G-6 2F.F ....|--- .... ....|--- .... ....
....|..|--- .... ....|--- .... ....|--- .... ....
....|..|A-6 2F.F ....|--- .... ....|--- .... ....
....|..|--- .... ....|--- .... ....|--- .... ....
....|..|G-6 2F.F ....|--- .... ....|--- .... ....
....|..|--- .... ....|--- .... ....|--- .... ....
....|..|E-6 2F.F ....|--- .... ....|--- .... ....
....|..|--- .... ....|--- .... ....|--- .... ....
....|..|D-6 2F.F ....|--- .... ....|--- .... ....
....|..|--- .... ....|--- .... ....|R-- .... ....

[Pattern19]
....|..|C-6 2F.F ....|A-4 3FFF ....|--- .... ....
....|..|--- .... ....|F-4 2F1F ....|--- .... ....
....|..|D-6 2F.F ....|--- .... ....|--- .... ....
....|..|--- .... ....|--- .... ....|--- .... ....
....|..|A-6 2F.7 ....|F-4 3FFF ....|--- .... ....
....|..|--- .... ....|--- .... ....|--- .... ....
....|..|C-6 2F.F ....|A-4 3FFA ....|--- .... ....
....|..|--- .... ....|F-4 2F1A ....|--- .... ....
 B-2|..|D-6 2F.F ....|--- .... ....|B-3 2CEF ....
....|..|--- .... ....|--- .... ....|--- .... ....
....|..|D-6 2F.7 ....|F-4 3FFA ....|--- .... ....
....|..|--- .... ....|--- .... ....|--- .... ....
 C-4|..|G-6 2F.F ....|A-4 3FF7 ....|C-4 2CEF ....
....|..|--- .... ....|F-4 2F17 ....|--- .... ....
....|..|D-6 2F.7 ....|--- .... ....|--- .... ....
....|..|--- .... ....|--- .... ....|R-- .... ....
....|..|--- .... ....|A-4 3FFF ....|--- .... ....
....|..|--- .... ....|--- .... ....|--- .... ....
....|..|C-6 2F.7 ....|--- .... ....|--- .... ....
....|..|--- .... ....|--- .... ....|--- .... ....
 D-4|..|D-6 2F.7 ....|F-4 3FFF ....|D-4 2CEF ....
....|..|--- .... ....|--- .... ....|--- .... ....
....|..|--- .... ....|A-4 3FFA ....|--- .... ....
....|..|--- .... ....|--- .... ....|R-- .... ....
....|..|F-6 2F.F ....|--- .... ....|--- .... ....
....|..|E-6 2F.F ....|--- .... ....|--- .... ....
....|..|D-6 2F.F ....|F-4 3FFA ....|--- .... ....
....|..|C-6 2F.F ....|--- .... ....|--- .... ....
....|..|A-5 2F.F ....|A-4 3FF7 ....|--- .... ....
....|..|F-5 2F.F ....|--- .... ....|--- .... ....
....|..|E-5 2F.F ....|--- .... ....|--- .... ....
....|..|D-5 2F.F ....|--- .... ....|--- .... ....
....|..|C-5 2F.F ....|A-4 3FFF ....|--- .... ....
....|..|C-6 2F.A ....|F-4 2F1F ....|--- .... ....
....|..|A-5 2F.A ....|--- .... ....|--- .... ....
....|..|F-5 2F.A ....|--- .... ....|--- .... ....
....|..|F-6 2F.7 ....|--- .... ....|--- .... ....
....|..|E-6 2F.7 ....|--- .... ....|--- .... ....
....|..|D-6 2F.7 ....|A-4 3FFA ....|--- .... ....
....|..|C-6 2F.7 ....|F-4 2F1A ....|--- .... ....
 F-3|..|A-5 2F.7 ....|F-4 3FFF ....|F-4 2CEF ....
....|..|F-5 2F.7 ....|--- .... ....|--- .... ....
....|..|E-5 2F.7 ....|--- .... ....|--- .... ....
....|..|D-5 2F.7 ....|--- .... ....|--- .... ....
 E-4|..|C-5 2F.7 ....|A-4 3FF7 ....|E-4 2CEF ....
....|..|--- .... ....|F-4 2F17 ....|--- .... ....
....|..|--- .... ....|F-4 3FFA ....|--- .... ....
....|..|--- .... ....|--- .... ....|--- .... ....
....|..|D-5 2F.F ....|--- .... ....|R-- .... ....
....|..|--- .... ....|--- .... ....|--- .... ....
....|..|C-5 2F.F ....|--- .... ....|--- .... ....
....|..|--- .... ....|--- .... ....|--- .... ....
 F-3|..|D-5 2F.F ....|F-4 3FF7 ....|F-4 2CEF ....
....|..|--- .... ....|--- .... ....|--- .... ....
....|..|C-5 2F.F ....|--- .... ....|--- .... ....
....|..|--- .... ....|--- .... ....|--- .... ....
 E-4|..|F-5 2F.F ....|--- .... ....|E-4 2CEF ....
....|..|--- .... ....|--- .... ....|--- .... ....
....|..|E-5 2F.F ....|--- .... ....|--- .... ....
....|..|--- .... ....|--- .... ....|--- .... ....
....|..|F-5 2F.F ....|--- .... ....|R-- .... ....
....|..|--- .... ....|--- .... ....|--- .... ....
....|..|E-5 2F.F ....|--- .... ....|--- .... ....
....|..|--- .... ....|--- .... ....|--- .... ....

[Pattern20]
 C-4|..|D-5 2F.F ....|G-5 3FFF ....|C-4 2CEF ....
....|..|--- .... ....|C-4 2F1F ....|--- .... ....
....|..|E-5 2F.F ....|--- .... ....|--- .... ....
....|..|--- .... ....|--- .... ....|--- .... ....
....|..|C-5 2F.F ....|E-5 3FFF ....|--- .... ....
....|..|--- .... ....|--- .... ....|--- .... ....
....|..|D-5 2F.F ....|G-5 3FFA ....|--- .... ....
....|..|--- .... ....|C-4 2F1A ....|--- .... ....
....|..|E-5 2F.F ....|--- .... ....|R-- .... ....
....|..|--- .... ....|--- .... ....|--- .... ....
....|..|C-5 2F.F ....|E-5 3FFA ....|--- .... ....
....|..|--- .... ....|--- .... ....|--- .... ....
 D-4|..|D-5 2F.F ....|G-5 3FF7 ....|D-4 2CEF ....
....|..|--- .... ....|C-4 2F17 ....|--- .... ....
....|..|E-5 2F.F ....|--- .... ....|--- .... ....
....|..|--- .... ....|--- .... ....|--- .... ....
....|..|D-6 2F.F ....|G-5 3FFF ....|--- .... ....
....|..|--- .... ....|--- .... ....|--- .... ....
....|..|E-5 2F.F ....|--- .... ....|--- .... ....
....|..|--- .... ....|--- .... ....|--- .... ....
....|..|G-6 2F.F ....|E-5 3FFF ....|--- .... ....
....|..|--- .... ....|--- .... ....|R-- .... ....
....|..|D-5 2F.F ....|G-5 3FFA ....|--- .... ....
....|..|--- .... ....|--- .... ....|--- .... ....
 F-3|..|G-5 2F.F ....|--- .... ....|F-4 2CEF ....
....|..|--- .... ....|--- .... ....|--- .... ....
....|..|G-6 2F.F ....|E-5 3FFA ....|--- .... ....
....|..|--- .... ....|--- .... ....|--- .... ....
....|..|D-5 2F.F ....|G-5 3FF7 ....|--- .... ....
....|..|--- .... ....|--- .... ....|R-- .... ....
....|..|E-5 2F.F ....|--- .... ....|--- .... ....
....|..|--- .... ....|--- .... ....|--- .... ....
 E-4|..|E-6 2F.F ....|G-5 3FFF ....|E-4 2CEF ....
....|..|--- .... ....|C-4 2F1F ....|--- .... ....
....|..|E-5 2F.F ....|--- .... ....|--- .... ....
....|..|--- .... ....|--- .... ....|--- .... ....
....|..|C-5 2F.F ....|--- .... ....|--- .... ....
....|..|R-- .... ....|--- .... ....|--- .... ....
....|..|D-5 2F.F ....|G-5 3FFA ....|--- .... ....
....|..|--- .... ....|C-4 2F1A ....|--- .... ....
....|..|E-5 2F.F ....|E-5 3FFF ....|--- .... ....
....|..|--- .... ....|--- .... ....|--- .... ....
....|..|G-5 2F.F ....|--- .... ....|--- .... ....
....|..|R-- .... ....|--- .... ....|--- .... ....
....|..|E-5 2F.F ....|G-5 3FF7 ....|--- .... ....
....|..|R-- .... ....|C-4 2F17 ....|--- .... ....
....|..|D-5 2F.F ....|E-5 3FFA ....|--- .... ....
....|..|--- .... ....|--- .... ....|--- .... ....
....|..|E-5 2F.F ....|--- .... ....|--- .... ....
....|..|R-- .... ....|--- .... ....|--- .... ....
....|..|G-5 2F.F ....|--- .... ....|--- .... ....
....|..|R-- .... ....|--- .... ....|--- .... ....
....|..|D-5 2F.F ....|E-5 3FF7 ....|--- .... ....
....|..|R-- .... ....|--- .... ....|--- .... ....
....|..|E-5 2F.F ....|--- .... ....|--- .... ....
....|..|--- .... ....|--- .... ....|--- .... ....
....|..|G-5 2F.F ....|--- .... ....|--- .... ....
....|..|R-- .... ....|--- .... ....|--- .... ....
....|..|D-5 2F.F ....|--- .... ....|--- .... ....
....|..|R-- .... ....|--- .... ....|--- .... ....
....|..|E-5 2F.F ....|--- .... ....|R-- .... ....
....|..|--- .... ....|--- .... ....|--- .... ....
....|..|G-5 2F.F ....|--- .... ....|--- .... ....
....|..|--- .... ....|--- .... ....|--- .... ....

[Pattern21]
 A-3|..|D-5 2F.F ....|E-5 3FFF ....|A-3 2CEF ....
....|..|R-- .... ....|A-4 2F2F ....|--- .... ....
....|..|E-5 2F.F ....|--- .... ....|--- .... ....
....|..|--- .... ....|--- .... ....|--- .... ....
....|..|C-5 2F.F ....|D-5 3FFF ....|--- .... ....
....|..|--- .... ....|--- .... ....|--- .... ....
....|..|D-5 2F.F ....|E-5 3FFA ....|--- .... ....
 A-3|..|--- .... ....|A-4 2F2A ....|A-2 2CEF ....
....|..|E-5 2F.F ....|--- .... ....|--- .... ....
....|..|--- .... ....|--- .... ....|--- .... ....
....|..|C-5 2F.F ....|D-5 3FFA ....|--- .... ....
....|..|--- .... ....|--- .... ....|--- .... ....
....|..|D-5 2F.F ....|E-5 3FF7 ....|--- .... ....
....|..|--- .... ....|A-4 2F27 ....|--- .... ....
....|..|E-5 2F.F ....|--- .... ....|--- .... ....
....|..|--- .... ....|--- .... ....|--- .... ....
....|..|D-5 2F.F ....|E-5 3FFF ....|--- .... ....
....|..|--- .... ....|--- .... ....|--- .... ....
....|..|E-5 2F.F ....|--- .... ....|--- .... ....
....|..|--- .... ....|--- .... ....|--- .... ....
....|..|C-5 2F.F ....|D-5 3FFF ....|--- .... ....
....|..|--- .... ....|--- .... ....|--- .... ....
....|..|D-5 2F.F ....|E-5 3FFA ....|--- .... ....
....|..|--- .... ....|--- .... ....|--- .... ....
 D-4|..|E-5 2F.F ....|--- .... ....|D-4 2CEF ....
....|..|--- .... ....|--- .... ....|--- .... ....
....|..|G-5 2F.F ....|D-5 3FFA ....|--- .... ....
 A-3|..|--- .... ....|--- .... ....|A-2 2CEF ....
 C-4|..|E-5 2F.F ....|E-5 3FF7 ....|C-4 2CEF ....
....|..|--- .... ....|--- .... ....|--- .... ....
 A-3|..|D-5 2F.F ....|--- .... ....|A-2 2CEF ....
....|..|--- .... ....|--- .... ....|--- .... ....
....|..|E-5 2F.F ....|E-5 3FFF ....|--- .... ....
....|..|--- .... ....|A-4 2F2F ....|--- .... ....
....|..|G-5 2F.F ....|--- .... ....|--- .... ....
....|..|--- .... ....|--- .... ....|--- .... ....
 D-4|..|A-5 2F.F ....|--- .... ....|D-3 2CEF ....
....|..|--- .... ....|--- .... ....|--- .... ....
....|..|G-5 2F.F ....|E-5 3FFA ....|--- .... ....
....|..|--- .... ....|A-4 2F2A ....|--- .... ....
 A-3|..|A-5 2F.F ....|D-5 3FFF ....|A-2 2CEF ....
....|..|--- .... ....|--- .... ....|--- .... ....
....|..|G-5 2F.F ....|--- .... ....|--- .... ....
....|..|--- .... ....|--- .... ....|--- .... ....
 A-3|..|E-5 2F.F ....|E-5 3FF7 ....|A-3 2CEF ....
....|..|--- .... ....|A-4 2F27 ....|--- .... ....
....|..|D-5 2F.F ....|D-5 3FFA ....|--- .... ....
 A-3|..|--- .... ....|--- .... ....|A-2 2CEF ....
 C-4|..|E-5 2F.F ....|--- .... ....|C-3 2CEF ....
....|..|--- .... ....|--- .... ....|--- .... ....
....|..|G-5 2F.F ....|--- .... ....|--- .... ....
 A-3|..|--- .... ....|--- .... ....|A-2 2CEF ....
 B-2|..|D-5 2F.F ....|D-5 3FF7 ....|B-3 2CEF ....
....|..|--- .... ....|--- .... ....|--- .... ....
 A-3|..|E-5 2F.F ....|--- .... ....|A-2 2CEF ....
....|..|--- .... ....|--- .... ....|--- .... ....
 C-4|..|C-5 2F.F ....|--- .... ....|C-4 2CEF ....
....|..|--- .... ....|--- .... ....|--- .... ....
 C-4|..|E-5 2F.F ....|--- .... ....|C-4 2CEF ....
....|..|--- .... ....|--- .... ....|--- .... ....
....|..|D-5 2F.F ....|--- .... ....|R-- .... ....
....|..|--- .... ....|--- .... ....|--- .... ....
....|..|A-5 2F.F ....|--- .... ....|--- .... ....
....|..|--- .... ....|--- .... ....|--- .... ....

[Pattern22]
 G-4|..|D-5 2F.F ....|G-4 3FFF ....|G-2 2AEF ....
....|..|--- .... ....|E-4 2F2F ....|--- .... ....
....|..|E-5 2F.F ....|--- .... ....|--- .... ....
....|..|--- .... ....|--- .... ....|--- .... ....
....|..|C-5 2F.F ....|E-4 3FFF ....|--- .... ....
....|..|--- .... ....|--- .... ....|--- .... ....
....|..|D-5 2F.F ....|G-4 3FFA ....|--- .... ....
....|..|--- .... ....|E-4 2F2A ....|--- .... ....
....|..|E-5 2F.F ....|--- .... ....|--- .... ....
....|..|--- .... ....|--- .... ....|--- .... ....
....|..|C-5 2F.F ....|E-4 3FFA ....|--- .... ....
....|..|--- .... ....|--- .... ....|--- .... ....
....|..|D-5 2F.F ....|G-4 3FF7 ....|--- .... ....
....|..|--- .... ....|E-4 2F27 ....|--- .... ....
....|..|E-5 2F.F ....|--- .... ....|--- .... ....
....|..|--- .... ....|--- .... ....|--- .... ....
....|..|D-5 2F.F ....|G-4 3FFF ....|--- .... ....
....|..|--- .... ....|--- .... ....|--- .... ....
....|..|E-5 2F.F ....|--- .... ....|--- .... ....
....|..|--- .... ....|--- .... ....|--- .... ....
....|..|C-5 2F.F ....|E-4 3FFF ....|--- .... ....
....|..|--- .... ....|--- .... ....|--- .... ....
....|..|D-5 2F.F ....|G-4 3FFA ....|--- .... ....
....|..|--- .... ....|--- .... ....|R-- .... ....
 C-4|..|E-5 2F.F ....|--- .... ....|C-2 2AEF ....
....|..|--- .... ....|--- .... ....|--- .... ....
....|..|G-5 2F.F ....|E-4 3FFA ....|--- .... ....
....|..|--- .... ....|--- .... ....|--- .... ....
 C-4|..|E-5 2F.F ....|G-4 3FF7 ....|C-2 2AEF ....
 B-3|..|--- .... ....|--- .... ....|B-1 2AEF ....
....|..|D-5 2F.F ....|--- .... ....|--- .... ....
....|..|--- .... ....|--- .... ....|--- .... ....
....|..|E-5 2F.F ....|G-4 3FFF ....|--- .... ....
....|..|--- .... ....|E-4 2F2F ....|--- .... ....
....|..|G-5 2F.F ....|--- .... ....|--- .... ....
....|..|--- .... ....|--- .... ....|--- .... ....
....|..|A-5 2F.F ....|--- .... ....|--- .... ....
....|..|--- .... ....|--- .... ....|--- .... ....
....|..|G-5 2F.F ....|G-4 3FFA ....|--- .... ....
....|..|--- .... ....|E-4 2F2A ....|--- .... ....
....|..|A-5 2F.F ....|E-4 3FFF ....|--- .... ....
....|..|--- .... ....|--- .... ....|--- .... ....
....|..|G-5 2F.F ....|--- .... ....|--- .... ....
....|..|--- .... ....|--- .... ....|--- .... ....
....|..|E-5 2F.F ....|G-4 3FF7 ....|--- .... ....
....|..|--- .... ....|E-4 2F27 ....|--- .... ....
....|..|D-5 2F.F ....|E-4 3FFA ....|--- .... ....
....|..|--- .... ....|--- .... ....|--- .... ....
....|..|E-5 2F.F ....|--- .... ....|--- .... ....
....|..|--- .... ....|--- .... ....|--- .... ....
....|..|G-5 2F.F ....|--- .... ....|--- .... ....
....|..|--- .... ....|--- .... ....|--- .... ....
....|..|D-5 2F.F ....|E-4 3FF7 ....|--- .... ....
....|..|--- .... ....|--- .... ....|--- .... ....
....|..|E-5 2F.F ....|--- .... ....|--- .... ....
....|..|--- .... ....|--- .... ....|--- .... ....
....|..|C-5 2F.F ....|--- .... ....|--- .... ....
....|..|--- .... ....|--- .... ....|--- .... ....
....|..|E-5 2F.F ....|--- .... ....|--- .... ....
....|..|--- .... ....|--- .... ....|--- .... ....
....|..|D-5 2F.F ....|--- .... ....|--- .... ....
....|..|--- .... ....|--- .... ....|--- .... ....
....|..|G-5 2F.7 ....|--- .... ....|--- .... ....
....|..|A-5 2F.F ....|--- .... ....|R-- .... ....

[Pattern23]
....|..|D-5 2F.F ....|A-4 3FFF ....|--- .... ....
....|..|--- .... ....|F-4 2F1F ....|--- .... ....
....|..|E-5 2F.F ....|--- .... ....|--- .... ....
....|..|--- .... ....|--- .... ....|--- .... ....
....|..|C-5 2F.F ....|F-4 3FFF ....|--- .... ....
....|..|A-5 2F.A ....|--- .... ....|--- .... ....
....|..|D-5 2F.F ....|A-4 3FFA ....|--- .... ....
....|..|--- .... ....|F-4 2F1A ....|--- .... ....
 B-2|..|E-5 2F.F ....|--- .... ....|B-3 2CEF ....
....|..|--- .... ....|--- .... ....|--- .... ....
....|..|C-5 2F.F ....|F-4 3FFA ....|--- .... ....
....|..|A-5 2F.7 ....|--- .... ....|--- .... ....
 C-4|..|D-5 2F.F ....|A-4 3FF7 ....|C-4 2CEF ....
....|..|--- .... ....|F-4 2F17 ....|--- .... ....
....|..|E-5 2F.F ....|--- .... ....|--- .... ....
....|..|--- .... ....|--- .... ....|R-- .... ....
....|..|D-5 2F.F ....|A-4 3FFF ....|--- .... ....
....|..|--- .... ....|--- .... ....|--- .... ....
....|..|E-5 2F.F ....|--- .... ....|--- .... ....
....|..|--- .... ....|--- .... ....|--- .... ....
 D-4|..|C-5 2F.F ....|F-4 3FFF ....|D-4 2CEF ....
....|..|--- .... ....|--- .... ....|--- .... ....
....|..|D-5 2F.F ....|A-4 3FFA ....|--- .... ....
....|..|--- .... ....|--- .... ....|R-- .... ....
....|..|E-5 2F.F ....|--- .... ....|--- .... ....
....|..|--- .... ....|--- .... ....|--- .... ....
....|..|C-5 2F.F ....|F-4 3FFA ....|--- .... ....
....|..|--- .... ....|--- .... ....|--- .... ....
....|..|D-5 2F.F ....|A-4 3FF7 ....|--- .... ....
....|..|--- .... ....|--- .... ....|--- .... ....
....|..|E-5 2F.F ....|--- .... ....|--- .... ....
....|..|--- .... ....|--- .... ....|--- .... ....
....|..|D-5 2F.F ....|A-4 3FFF ....|--- .... ....
....|..|--- .... ....|F-4 2F1F ....|--- .... ....
....|..|E-5 2F.F ....|--- .... ....|--- .... ....
....|..|--- .... ....|--- .... ....|--- .... ....
....|..|C-5 2F.F ....|--- .... ....|--- .... ....
....|..|--- .... ....|--- .... ....|--- .... ....
....|..|D-5 2F.F ....|A-4 3FFA ....|--- .... ....
....|..|--- .... ....|F-4 2F1A ....|--- .... ....
 F-3|..|E-5 2F.F ....|F-4 3FFF ....|F-4 2CEF ....
....|..|--- .... ....|--- .... ....|--- .... ....
....|..|G-5 2F.F ....|--- .... ....|--- .... ....
....|..|--- .... ....|--- .... ....|--- .... ....
 E-4|..|E-5 2F.F ....|A-4 3FF7 ....|E-4 2CEF ....
....|..|--- .... ....|F-4 2F17 ....|--- .... ....
....|..|D-5 2F.F ....|F-4 3FFA ....|--- .... ....
....|..|--- .... ....|--- .... ....|--- .... ....
....|..|E-5 2F.F ....|--- .... ....|R-- .... ....
....|..|--- .... ....|--- .... ....|--- .... ....
....|..|G-5 2F.F ....|--- .... ....|--- .... ....
....|..|--- .... ....|--- .... ....|--- .... ....
 F-3|..|D-5 2F.F ....|F-4 3FF7 ....|F-4 2CEF ....
....|..|--- .... ....|--- .... ....|--- .... ....
....|..|E-5 2F.F ....|--- .... ....|--- .... ....
....|..|--- .... ....|--- .... ....|--- .... ....
 E-4|..|G-5 2F.F ....|--- .... ....|E-4 2CEF ....
....|..|--- .... ....|--- .... ....|--- .... ....
....|..|D-5 2F.F ....|--- .... ....|--- .... ....
....|..|--- .... ....|--- .... ....|--- .... ....
....|..|E-5 2F.F ....|--- .... ....|R-- .... ....
....|..|--- .... ....|--- .... ....|--- .... ....
....|..|G-5 2F.F ....|--- .... ....|--- .... ....
....|..|--- .... ....|--- .... ....|--- .... ....

[Pattern24]
....|..|D-4 2F.F ....|G-5 3FFF ....|--- .... ....
....|..|--- .... ....|C-4 2F1F ....|--- .... ....
....|..|E-4 2F.F ....|--- .... ....|--- .... ....
....|..|--- .... ....|--- .... ....|--- .... ....
....|..|C-4 2F.F ....|E-5 3FFF ....|--- .... ....
....|..|--- .... ....|--- .... ....|--- .... ....
....|..|D-5 2F.7 ....|G-5 3FFA ....|--- .... ....
....|..|--- .... ....|C-4 2F1A ....|--- .... ....
....|..|E-5 2F.7 ....|--- .... ....|--- .... ....
....|..|--- .... ....|--- .... ....|--- .... ....
....|..|G-5 2F.7 ....|E-5 3FFA ....|--- .... ....
....|..|--- .... ....|--- .... ....|--- .... ....
....|..|D-4 2F.7 ....|G-5 3FF7 ....|--- .... ....
....|..|--- .... ....|C-4 2F17 ....|--- .... ....
....|..|E-4 2F.7 ....|--- .... ....|--- .... ....
....|..|--- .... ....|--- .... ....|--- .... ....
....|..|C-4 2F.7 ....|G-5 3FFF ....|--- .... ....
....|..|--- .... ....|--- .... ....|--- .... ....
....|..|--- .... ....|--- .... ....|--- .... ....
....|..|--- .... ....|--- .... ....|--- .... ....
....|..|--- .... ....|E-5 3FFF ....|--- .... ....
....|..|--- .... ....|--- .... ....|--- .... ....
....|..|--- .... ....|G-5 3FFA ....|--- .... ....
....|..|--- .... ....|--- .... ....|--- .... ....
....|..|R-- .... ....|--- .... ....|--- .... ....
....|..|D-5 2F.F ....|--- .... ....|--- .... ....
....|..|C-5 2F.F ....|E-5 3FFA ....|--- .... ....
....|..|D-5 2F.F ....|--- .... ....|--- .... ....
....|..|E-5 2F.F ....|G-5 3FF7 ....|--- .... ....
....|..|D-5 2F.F ....|--- .... ....|--- .... ....
....|..|E-5 2F.F ....|--- .... ....|--- .... ....
....|..|D-5 2F.F ....|--- .... ....|--- .... ....
....|..|G-5 2F.F ....|G-5 3FFF ....|--- .... ....
....|..|D-5 2F.A ....|C-4 2F1F ....|--- .... ....
....|..|E-5 2F.A ....|--- .... ....|--- .... ....
....|..|D-5 2F.A ....|--- .... ....|--- .... ....
....|..|E-5 2F.A ....|--- .... ....|--- .... ....
....|..|D-5 2F.7 ....|--- .... ....|--- .... ....
....|..|C-5 2F.7 ....|G-5 3FFA ....|--- .... ....
....|..|D-5 2F.7 ....|C-4 2F1A ....|--- .... ....
....|..|E-5 2F.7 ....|E-5 3FFF ....|--- .... ....
....|..|D-5 2F.7 ....|--- .... ....|--- .... ....
....|..|E-5 2F.7 ....|--- .... ....|--- .... ....
....|..|D-5 2F.7 ....|--- .... ....|--- .... ....
....|..|G-5 2F.7 ....|G-5 3FF7 ....|--- .... ....
....|..|--- .... ....|C-4 2F17 ....|--- .... ....
....|..|--- .... ....|E-5 3FFA ....|--- .... ....
....|..|--- .... ....|--- .... ....|--- .... ....
....|..|C-6 2F.F ....|--- .... ....|--- .... ....
....|..|--- .... ....|--- .... ....|--- .... ....
....|..|D-6 2F.F ....|--- .... ....|--- .... ....
....|..|--- .... ....|--- .... ....|--- .... ....
....|..|G-5 2F.F ....|E-5 3FF7 ....|--- .... ....
....|..|--- .... ....|--- .... ....|--- .... ....
....|..|C-6 2F.A ....|--- .... ....|--- .... ....
....|..|--- .... ....|--- .... ....|--- .... ....
....|..|D-6 2F.A ....|--- .... ....|--- .... ....
....|..|--- .... ....|--- .... ....|--- .... ....
....|..|G-5 2F.A ....|--- .... ....|--- .... ....
....|..|--- .... ....|--- .... ....|--- .... ....
....|..|C-6 2F.7 ....|--- .... ....|--- .... ....
....|..|--- .... ....|--- .... ....|--- .... ....
....|..|D-6 2F.7 ....|--- .... ....|--- .... ....
....|..|--- .... ....|--- .... ....|--- .... ....

[Pattern25]
....|..|D-4 2F.F ....|R-- .... ....|--- .... ....
....|..|--- .... ....|--- .... ....|--- .... ....
....|..|E-4 2F.F ....|--- .... ....|--- .... ....
....|..|--- .... ....|--- .... ....|--- .... ....
....|..|C-4 2F.F ....|--- .... ....|--- .... ....
....|..|--- .... ....|--- .... ....|--- .... ....
....|..|D-4 2F.A ....|R-- .... ....|--- .... ....
....|..|--- .... ....|--- .... ....|--- .... ....
....|..|E-4 2F.A ....|--- .... ....|--- .... ....
....|..|--- .... ....|--- .... ....|--- .... ....
....|..|C-4 2F.A ....|--- .... ....|--- .... ....
....|..|--- .... ....|--- .... ....|--- .... ....
....|..|D-4 2F.7 ....|R-- .... ....|--- .... ....
....|..|--- .... ....|--- .... ....|--- .... ....
....|..|E-4 2F.7 ....|--- .... ....|--- .... ....
....|..|--- .... ....|--- .... ....|--- .... ....
....|..|C-4 2F.7 ....|--- .... ....|--- .... ....
....|..|--- .... ....|--- .... ....|--- .... ....
....|..|--- .... ....|--- .... ....|--- .... ....
....|..|--- .... ....|--- .... ....|--- .... ....
....|..|--- .... ....|--- .... ....|--- .... ....
....|..|--- .... ....|--- .... ....|--- .... ....
....|..|--- .... ....|--- .... ....|--- .... ....
....|..|--- .... ....|--- .... ....|--- .... ....
....|..|R-- .... ....|--- .... ....|--- .... ....
....|..|A-4 2F.F ....|--- .... ....|--- .... ....
....|..|G-4 2F.F ....|--- .... ....|--- .... ....
....|..|A-4 2F.F ....|--- .... ....|--- .... ....
....|..|C-5 2F.F ....|--- .... ....|--- .... ....
....|..|A-4 2F.F ....|--- .... ....|--- .... ....
....|..|C-5 2F.F ....|--- .... ....|--- .... ....
....|..|A-4 2F.F ....|--- .... ....|--- .... ....
....|..|D-5 2F.F ....|--- .... ....|--- .... ....
....|..|A-4 2F.A ....|--- .... ....|--- .... ....
....|..|C-5 2F.A ....|--- .... ....|--- .... ....
....|..|A-4 2F.A ....|--- .... ....|--- .... ....
....|..|C-5 2F.A ....|--- .... ....|--- .... ....
....|..|A-4 2F.7 ....|--- .... ....|--- .... ....
....|..|G-4 2F.7 ....|--- .... ....|--- .... ....
....|..|A-4 2F.7 ....|--- .... ....|--- .... ....
....|..|C-5 2F.7 ....|--- .... ....|--- .... ....
....|..|A-4 2F.7 ....|--- .... ....|--- .... ....
....|..|C-5 2F.7 ....|--- .... ....|--- .... ....
....|..|A-4 2F.7 ....|--- .... ....|--- .... ....
....|..|D-5 2F.7 ....|--- .... ....|--- .... ....
....|..|--- .... ....|--- .... ....|--- .... ....
....|..|--- .... ....|--- .... ....|--- .... ....
....|..|--- .... ....|--- .... ....|--- .... ....
....|..|G-5 2F.F ....|--- .... ....|--- .... ....
....|..|R-- .... ....|--- .... ....|--- .... ....
....|..|A-5 2F.F ....|--- .... ....|--- .... ....
....|..|--- .... ....|--- .... ....|--- .... ....
....|..|D-5 2F.F ....|--- .... ....|--- .... ....
....|..|--- .... ....|--- .... ....|--- .... ....
....|..|G-5 2F.A ....|--- .... ....|--- .... ....
....|..|R-- .... ....|--- .... ....|--- .... ....
....|..|A-5 2F.A ....|--- .... ....|--- .... ....
....|..|--- .... ....|--- .... ....|--- .... ....
....|..|D-5 2F.A ....|--- .... ....|--- .... ....
....|..|--- .... ....|--- .... ....|--- .... ....
....|..|G-5 2F.7 ....|--- .... ....|--- .... ....
....|..|R-- .... ....|--- .... ....|--- .... ....
....|..|A-5 2F.7 ....|--- .... ....|--- .... ....
....|..|--- .... ....|--- .... ....|--- .... ....

[Pattern26]
....|..|E-5 2F.F ....|--- .... ....|--- .... ....
....|..|--- .... ....|--- .... ....|--- .... ....
....|..|G-5 2F.F ....|--- .... ....|--- .... ....
....|..|--- .... ....|--- .... ....|--- .... ....
....|..|R-- .... ....|--- .... ....|--- .... ....
....|..|D-6 2F.F ....|--- .... ....|--- .... ....
....|..|E-5 2F.A ....|--- .... ....|--- .... ....
....|..|--- .... ....|--- .... ....|--- .... ....
....|..|G-5 2F.A ....|--- .... ....|--- .... ....
....|..|--- .... ....|--- .... ....|--- .... ....
....|..|R-- .... ....|--- .... ....|--- .... ....
....|..|D-6 2F.A ....|--- .... ....|--- .... ....
....|..|E-5 2F.7 ....|--- .... ....|--- .... ....
....|..|--- .... ....|--- .... ....|--- .... ....
....|..|G-5 2F.7 ....|--- .... ....|--- .... ....
....|..|--- .... ....|--- .... ....|--- .... ....
....|..|R-- .... ....|--- .... ....|--- .... ....
....|..|D-6 2F.7 ....|--- .... ....|--- .... ....
....|..|--- .... ....|--- .... ....|--- .... ....
....|..|--- .... ....|--- .... ....|--- .... ....
....|..|--- .... ....|--- .... ....|--- .... ....
....|..|--- .... ....|--- .... ....|--- .... ....
....|..|--- .... ....|--- .... ....|--- .... ....
....|..|--- .... ....|--- .... ....|--- .... ....
....|..|E-5 2F.F ....|--- .... ....|--- .... ....
....|..|G-5 2F.F ....|--- .... ....|--- .... ....
....|..|E-5 2F.F ....|--- .... ....|--- .... ....
....|..|G-5 2F.F ....|--- .... ....|--- .... ....
....|..|A-5 2F.F ....|--- .... ....|--- .... ....
....|..|G-5 2F.F ....|--- .... ....|--- .... ....
....|..|A-5 2F.F ....|--- .... ....|--- .... ....
....|..|G-5 2F.F ....|--- .... ....|--- .... ....
....|..|D-6 2F.F ....|--- .... ....|--- .... ....
....|..|G-5 2F.A ....|--- .... ....|--- .... ....
....|..|A-5 2F.A ....|--- .... ....|--- .... ....
....|..|G-5 2F.A ....|--- .... ....|--- .... ....
....|..|E-5 2F.7 ....|--- .... ....|--- .... ....
....|..|G-5 2F.7 ....|--- .... ....|--- .... ....
....|..|E-5 2F.7 ....|--- .... ....|--- .... ....
....|..|G-5 2F.7 ....|--- .... ....|--- .... ....
....|..|A-5 2F.7 ....|--- .... ....|--- .... ....
....|..|G-5 2F.7 ....|--- .... ....|--- .... ....
....|..|A-5 2F.7 ....|--- .... ....|--- .... ....
....|..|G-5 2F.7 ....|--- .... ....|--- .... ....
....|..|D-6 2F.7 ....|--- .... ....|--- .... ....
....|..|--- .... ....|--- .... ....|--- .... ....
....|..|--- .... ....|--- .... ....|--- .... ....
....|..|--- .... ....|--- .... ....|--- .... ....
....|..|R-- .... ....|--- .... ....|--- .... ....
....|..|A-6 2F.F ....|--- .... ....|--- .... ....
....|..|G-6 2F.F ....|--- .... ....|--- .... ....
....|..|--- .... ....|--- .... ....|--- .... ....
....|..|A-6 2F.F ....|--- .... ....|--- .... ....
....|..|--- .... ....|--- .... ....|--- .... ....
....|..|G-6 2F.F ....|--- .... ....|--- .... ....
....|..|A-6 2F.A ....|--- .... ....|--- .... ....
....|..|A-6 2F.F ....|--- .... ....|--- .... ....
....|..|--- .... ....|--- .... ....|--- .... ....
....|..|G-6 2F.F ....|--- .... ....|--- .... ....
....|..|--- .... ....|--- .... ....|--- .... ....
....|..|E-6 2F.F ....|--- .... ....|--- .... ....
....|..|A-6 2F.7 ....|--- .... ....|--- .... ....
....|..|D-6 2F.F ....|--- .... ....|--- .... ....
....|..|--- .... ....|--- .... ....|--- .... ....

[Pattern27]
....|..|C-6 2F.F ....|--- .... ....|--- .... ....
....|..|--- .... ....|--- .... ....|--- .... ....
....|..|D-6 2F.F ....|--- .... ....|--- .... ....
....|..|--- .... ....|--- .... ....|--- .... ....
....|..|A-6 2F.7 ....|--- .... ....|--- .... ....
....|..|--- .... ....|--- .... ....|--- .... ....
....|..|C-6 2F.F ....|--- .... ....|--- .... ....
....|..|--- .... ....|--- .... ....|--- .... ....
....|..|D-6 2F.F ....|--- .... ....|--- .... ....
....|..|--- .... ....|--- .... ....|--- .... ....
....|..|D-6 2F.7 ....|--- .... ....|--- .... ....
....|..|--- .... ....|--- .... ....|--- .... ....
....|..|G-6 2F.F ....|--- .... ....|--- .... ....
....|..|--- .... ....|--- .... ....|--- .... ....
....|..|D-6 2F.7 ....|--- .... ....|--- .... ....
....|..|--- .... ....|--- .... ....|--- .... ....
....|..|--- .... ....|--- .... ....|--- .... ....
....|..|--- .... ....|--- .... ....|--- .... ....
....|..|C-6 2F.7 ....|--- .... ....|--- .... ....
....|..|--- .... ....|--- .... ....|--- .... ....
....|..|D-6 2F.7 ....|--- .... ....|--- .... ....
....|..|--- .... ....|--- .... ....|--- .... ....
....|..|--- .... ....|--- .... ....|--- .... ....
....|..|R-- .... ....|--- .... ....|--- .... ....
....|..|F-6 2F.F ....|--- .... ....|--- .... ....
....|..|E-6 2F.F ....|--- .... ....|--- .... ....
....|..|D-6 2F.F ....|--- .... ....|--- .... ....
....|..|C-6 2F.F ....|--- .... ....|--- .... ....
....|..|A-5 2F.F ....|--- .... ....|--- .... ....
....|..|F-5 2F.F ....|--- .... ....|--- .... ....
....|..|E-5 2F.F ....|--- .... ....|--- .... ....
....|..|D-5 2F.F ....|--- .... ....|--- .... ....
....|..|C-5 2F.F ....|--- .... ....|--- .... ....
....|..|C-6 2F.A ....|--- .... ....|--- .... ....
....|..|A-5 2F.A ....|--- .... ....|--- .... ....
....|..|F-5 2F.A ....|--- .... ....|--- .... ....
....|..|F-6 2F.7 ....|--- .... ....|--- .... ....
....|..|E-6 2F.7 ....|--- .... ....|--- .... ....
....|..|D-6 2F.7 ....|--- .... ....|--- .... ....
....|..|C-6 2F.7 ....|--- .... ....|--- .... ....
....|..|A-5 2F.7 ....|--- .... ....|--- .... ....
....|..|F-5 2F.7 ....|--- .... ....|--- .... ....
....|..|E-5 2F.7 ....|--- .... ....|--- .... ....
....|..|D-5 2F.7 ....|--- .... ....|--- .... ....
....|..|C-5 2F.7 ....|--- .... ....|--- .... ....
....|..|--- .... ....|--- .... ....|--- .... ....
....|..|--- .... ....|--- .... ....|--- .... ....
....|..|--- .... ....|--- .... ....|--- .... ....
....|..|D-5 2F.F ....|--- .... ....|--- .... ....
....|..|--- .... ....|--- .... ....|--- .... ....
....|..|C-5 2F.F ....|--- .... ....|--- .... ....
....|..|--- .... ....|--- .... ....|--- .... ....
....|..|D-5 2F.F ....|--- .... ....|--- .... ....
....|..|--- .... ....|--- .... ....|--- .... ....
....|..|C-5 2F.F ....|--- .... ....|--- .... ....
....|..|--- .... ....|--- .... ....|--- .... ....
....|..|F-5 2F.F ....|--- .... ....|--- .... ....
....|..|--- .... ....|--- .... ....|--- .... ....
....|..|E-5 2F.F ....|--- .... ....|--- .... ....
....|..|--- .... ....|--- .... ....|--- .... ....
....|..|F-5 2F.F ....|--- .... ....|--- .... ....
....|..|--- .... ....|--- .... ....|--- .... ....
....|..|E-5 2F.F ....|--- .... ....|--- .... ....
....|..|--- .... ....|--- .... ....|--- .... ....

[Pattern28]
....|..|D-4 2F.F ....|--- .... ....|--- .... ....
....|..|R-- .... ....|--- .... ....|--- .... ....
....|..|E-4 2F.F ....|--- .... ....|--- .... ....
....|..|--- .... ....|--- .... ....|--- .... ....
....|..|C-5 2F.F ....|--- .... ....|--- .... ....
....|..|--- .... ....|--- .... ....|--- .... ....
....|..|D-4 2F.F ....|--- .... ....|--- .... ....
....|..|R-- .... ....|--- .... ....|--- .... ....
....|..|E-4 2F.F ....|--- .... ....|--- .... ....
....|..|--- .... ....|--- .... ....|--- .... ....
....|..|C-5 2F.F ....|--- .... ....|--- .... ....
....|..|--- .... ....|--- .... ....|--- .... ....
....|..|D-4 2F.F ....|--- .... ....|--- .... ....
....|..|R-- .... ....|--- .... ....|--- .... ....
....|..|E-4 2F.F ....|--- .... ....|--- .... ....
....|..|--- .... ....|--- .... ....|--- .... ....
....|..|G-5 2F.F ....|--- .... ....|--- .... ....
....|..|--- .... ....|--- .... ....|--- .... ....
....|..|D-4 2F.7 ....|--- .... ....|--- .... ....
....|..|R-- .... ....|--- .... ....|--- .... ....
....|..|E-4 2F.7 ....|--- .... ....|--- .... ....
....|..|--- .... ....|--- .... ....|--- .... ....
....|..|D-5 2F.F ....|--- .... ....|--- .... ....
....|..|--- .... ....|--- .... ....|--- .... ....
....|..|C-5 2F.F ....|--- .... ....|--- .... ....
....|..|D-5 2F.F ....|--- .... ....|--- .... ....
....|..|C-5 2F.F ....|--- .... ....|--- .... ....
....|..|D-5 2F.F ....|--- .... ....|--- .... ....
....|..|E-5 2F.F ....|--- .... ....|--- .... ....
....|..|D-5 2F.F ....|--- .... ....|--- .... ....
....|..|E-5 2F.F ....|--- .... ....|--- .... ....
....|..|D-5 2F.F ....|--- .... ....|--- .... ....
....|..|C-5 2F.F ....|--- .... ....|--- .... ....
....|..|D-5 2F.F ....|--- .... ....|--- .... ....
....|..|C-5 2F.F ....|--- .... ....|--- .... ....
....|..|D-5 2F.F ....|--- .... ....|--- .... ....
....|..|E-5 2F.F ....|--- .... ....|--- .... ....
....|..|D-5 2F.F ....|--- .... ....|--- .... ....
....|..|E-5 2F.F ....|--- .... ....|--- .... ....
....|..|D-5 2F.F ....|--- .... ....|--- .... ....
....|..|G-5 2F.F ....|--- .... ....|--- .... ....
....|..|D-5 2F.7 ....|--- .... ....|--- .... ....
....|..|E-5 2F.7 ....|--- .... ....|--- .... ....
....|..|D-5 2F.7 ....|--- .... ....|--- .... ....
....|..|C-5 2F.7 ....|--- .... ....|--- .... ....
....|..|C-6 2F.F ....|--- .... ....|--- .... ....
....|..|C-5 2F.7 ....|--- .... ....|--- .... ....
....|..|G-5 2F.F ....|--- .... ....|--- .... ....
....|..|C-6 2F.F ....|--- .... ....|--- .... ....
....|..|D-5 2F.7 ....|--- .... ....|--- .... ....
....|..|E-5 2F.7 ....|--- .... ....|--- .... ....
....|..|D-5 2F.7 ....|--- .... ....|--- .... ....
....|..|D-6 2F.F ....|--- .... ....|--- .... ....
....|..|G-5 2F.A ....|--- .... ....|--- .... ....
....|..|C-6 2F.F ....|--- .... ....|--- .... ....
....|..|--- .... ....|--- .... ....|--- .... ....
....|..|R-- .... ....|--- .... ....|--- .... ....
....|..|C-6 2F.7 ....|--- .... ....|--- .... ....
....|..|G-5 2F.F ....|--- .... ....|--- .... ....
....|..|G-5 2F.7 ....|--- .... ....|--- .... ....
....|..|D-5 2F.F ....|--- .... ....|--- .... ....
....|..|--- .... ....|--- .... ....|--- .... ....
....|..|R-- .... ....|--- .... ....|--- .... ....
....|..|C-6 2F.F ....|--- .... ....|--- .... ....

[Pattern29]
....|..|D-4 2F.F ....|--- .... ....|--- .... ....
....|..|--- .... ....|--- .... ....|--- .... ....
....|..|E-4 2F.F ....|--- .... ....|--- .... ....
....|..|--- .... ....|--- .... ....|--- .... ....
....|..|R-- .... ....|--- .... ....|--- .... ....
....|..|C-5 2F.F ....|--- .... ....|--- .... ....
....|..|D-4 2F.F ....|--- .... ....|--- .... ....
....|..|R-- .... ....|--- .... ....|--- .... ....
....|..|E-4 2F.F ....|--- .... ....|--- .... ....
....|..|--- .... ....|--- .... ....|--- .... ....
....|..|C-5 2F.F ....|--- .... ....|--- .... ....
....|..|C-6 2F.7 ....|--- .... ....|--- .... ....
....|..|D-4 2F.F ....|--- .... ....|--- .... ....
....|..|R-- .... ....|--- .... ....|--- .... ....
....|..|E-4 2F.F ....|--- .... ....|--- .... ....
....|..|R-- .... ....|--- .... ....|--- .... ....
....|..|C-5 2F.F ....|--- .... ....|--- .... ....
....|..|C-5 2F.7 ....|--- .... ....|--- .... ....
....|..|D-4 2F.7 ....|--- .... ....|--- .... ....
....|..|R-- .... ....|--- .... ....|--- .... ....
....|..|E-4 2F.7 ....|--- .... ....|--- .... ....
....|..|R-- .... ....|--- .... ....|--- .... ....
....|..|C-5 2F.7 ....|--- .... ....|--- .... ....
....|..|--- .... ....|--- .... ....|--- .... ....
....|..|G-4 2F.F ....|--- .... ....|--- .... ....
....|..|A-4 2F.F ....|--- .... ....|--- .... ....
....|..|G-4 2F.F ....|--- .... ....|--- .... ....
....|..|A-4 2F.F ....|--- .... ....|--- .... ....
....|..|C-5 2F.F ....|--- .... ....|--- .... ....
....|..|A-4 2F.F ....|--- .... ....|--- .... ....
....|..|C-5 2F.F ....|--- .... ....|--- .... ....
....|..|A-4 2F.F ....|--- .... ....|--- .... ....
....|..|D-5 2F.F ....|--- .... ....|--- .... ....
....|..|A-4 2F.A ....|--- .... ....|--- .... ....
....|..|C-5 2F.A ....|--- .... ....|--- .... ....
....|..|A-4 2F.A ....|--- .... ....|--- .... ....
....|..|G-4 2F.7 ....|--- .... ....|--- .... ....
....|..|A-4 2F.7 ....|--- .... ....|--- .... ....
....|..|C-5 2F.F ....|--- .... ....|--- .... ....
....|..|A-4 2F.7 ....|--- .... ....|--- .... ....
....|..|C-5 2F.7 ....|--- .... ....|--- .... ....
....|..|A-4 2F.7 ....|--- .... ....|--- .... ....
....|..|C-5 2F.7 ....|--- .... ....|--- .... ....
....|..|A-4 2F.7 ....|--- .... ....|--- .... ....
....|..|B-4 2F.F ....|--- .... ....|--- .... ....
....|..|--- .... ....|--- .... ....|--- .... ....
....|..|--- .... ....|--- .... ....|--- .... ....
....|..|--- .... ....|--- .... ....|--- .... ....
....|..|--- .... ....|--- .... ....|--- .... ....
....|..|--- .... ....|--- .... ....|--- .... ....
....|..|C-5 2F.7 ....|--- .... ....|--- .... ....
....|..|--- .... ....|--- .... ....|--- .... ....
....|..|C-5 2F.F ....|--- .... ....|--- .... ....
....|..|--- .... ....|--- .... ....|--- .... ....
....|..|--- .... ....|--- .... ....|--- .... ....
....|..|--- .... ....|--- .... ....|--- .... ....
....|..|B-4 2F.7 ....|--- .... ....|--- .... ....
....|..|--- .... ....|--- .... ....|--- .... ....
....|..|C-5 2F.A ....|--- .... ....|--- .... ....
....|..|--- .... ....|--- .... ....|--- .... ....
....|..|--- .... ....|--- .... ....|--- .... ....
....|..|--- .... ....|--- .... ....|--- .... ....
....|..|--- .... ....|--- .... ....|--- .... ....
....|..|--- .... ....|--- .... ....|--- .... ....

[Pattern30]
....|..|B-4 2F.F ....|--- .... ....|--- .... ....
....|..|--- .... ....|--- .... ....|--- .... ....
....|..|C-5 2F.F ....|--- .... ....|--- .... ....
....|..|--- .... ....|--- .... ....|--- .... ....
....|..|R-- .... ....|--- .... ....|--- .... ....
....|..|--- .... ....|--- .... ....|--- .... ....
....|..|B-4 2F.F ....|--- .... ....|--- .... ....
....|..|--- .... ....|--- .... ....|--- .... ....
....|..|C-5 2F.F ....|--- .... ....|--- .... ....
....|..|--- .... ....|--- .... ....|--- .... ....
....|..|R-- .... ....|--- .... ....|--- .... ....
....|..|--- .... ....|--- .... ....|--- .... ....
....|..|G-4 2F.F ....|--- .... ....|--- .... ....
....|..|--- .... ....|--- .... ....|--- .... ....
....|..|C-5 2F.7 ....|--- .... ....|--- .... ....
....|..|--- .... ....|--- .... ....|--- .... ....
....|..|R-- .... ....|--- .... ....|--- .... ....
....|..|R-- .... ....|--- .... ....|--- .... ....
....|..|G-4 2F.F ....|--- .... ....|--- .... ....
....|..|--- .... ....|--- .... ....|--- .... ....
....|..|C-5 2F.7 ....|--- .... ....|--- .... ....
....|..|--- .... ....|--- .... ....|--- .... ....
....|..|--- .... ....|--- .... ....|--- .... ....
....|..|R-- .... ....|--- .... ....|--- .... ....
....|..|D-5 2F.F ....|--- .... ....|--- .... ....
....|..|C-5 2F.F ....|--- .... ....|--- .... ....
....|..|B-4 2F.F ....|--- .... ....|--- .... ....
....|..|C-5 2F.F ....|--- .... ....|--- .... ....
....|..|B-4 2F.F ....|--- .... ....|--- .... ....
....|..|C-5 2F.F ....|--- .... ....|--- .... ....
....|..|B-4 2F.F ....|--- .... ....|--- .... ....
....|..|A-4 2F.F ....|--- .... ....|--- .... ....
....|..|G-4 2F.F ....|--- .... ....|--- .... ....
....|..|C-5 2F.A ....|--- .... ....|--- .... ....
....|..|B-4 2F.A ....|--- .... ....|--- .... ....
....|..|C-5 2F.A ....|--- .... ....|--- .... ....
....|..|D-5 2F.7 ....|--- .... ....|--- .... ....
....|..|C-5 2F.7 ....|--- .... ....|--- .... ....
....|..|B-4 2F.7 ....|--- .... ....|--- .... ....
....|..|C-5 2F.7 ....|--- .... ....|--- .... ....
....|..|B-4 2F.7 ....|--- .... ....|--- .... ....
....|..|C-5 2F.7 ....|--- .... ....|--- .... ....
....|..|B-4 2F.7 ....|--- .... ....|--- .... ....
....|..|A-4 2F.7 ....|--- .... ....|--- .... ....
....|..|G-4 2F.7 ....|--- .... ....|--- .... ....
....|..|--- .... ....|--- .... ....|--- .... ....
....|..|--- .... ....|--- .... ....|--- .... ....
....|..|--- .... ....|--- .... ....|--- .... ....
....|..|A-6 2F.F ....|--- .... ....|--- .... ....
....|..|--- .... ....|--- .... ....|--- .... ....
....|..|G-6 2F.F ....|--- .... ....|--- .... ....
....|..|--- .... ....|--- .... ....|--- .... ....
....|..|A-6 2F.F ....|--- .... ....|--- .... ....
....|..|--- .... ....|--- .... ....|--- .... ....
....|..|G-6 2F.F ....|--- .... ....|--- .... ....
....|..|--- .... ....|--- .... ....|--- .... ....
....|..|A-6 2F.F ....|--- .... ....|--- .... ....
....|..|--- .... ....|--- .... ....|--- .... ....
....|..|G-6 2F.F ....|--- .... ....|--- .... ....
....|..|--- .... ....|--- .... ....|--- .... ....
....|..|E-6 2F.F ....|--- .... ....|--- .... ....
....|..|--- .... ....|--- .... ....|--- .... ....
....|..|D-6 2F.F ....|--- .... ....|--- .... ....
....|..|--- .... ....|--- .... ....|--- .... ....

[Pattern31]
....|..|C-6 2F.F ....|--- .... ....|--- .... ....
....|..|--- .... ....|--- .... ....|--- .... ....
....|..|D-6 2F.F ....|--- .... ....|--- .... ....
....|..|--- .... ....|--- .... ....|--- .... ....
....|..|A-6 2F.7 ....|--- .... ....|--- .... ....
....|..|--- .... ....|--- .... ....|--- .... ....
....|..|C-6 2F.F ....|--- .... ....|--- .... ....
....|..|--- .... ....|--- .... ....|--- .... ....
....|..|D-6 2F.F ....|--- .... ....|--- .... ....
....|..|--- .... ....|--- .... ....|--- .... ....
....|..|D-6 2F.7 ....|--- .... ....|--- .... ....
....|..|--- .... ....|--- .... ....|--- .... ....
....|..|G-6 2F.F ....|--- .... ....|--- .... ....
....|..|--- .... ....|--- .... ....|--- .... ....
....|..|D-6 2F.7 ....|--- .... ....|--- .... ....
....|..|--- .... ....|--- .... ....|--- .... ....
....|..|--- .... ....|--- .... ....|--- .... ....
....|..|--- .... ....|--- .... ....|--- .... ....
....|..|C-6 2F.7 ....|--- .... ....|--- .... ....
....|..|--- .... ....|--- .... ....|--- .... ....
....|..|D-6 2F.7 ....|--- .... ....|--- .... ....
....|..|--- .... ....|--- .... ....|--- .... ....
....|..|--- .... ....|--- .... ....|--- .... ....
....|..|--- .... ....|--- .... ....|--- .... ....
....|..|F-6 2F.F ....|--- .... ....|--- .... ....
....|..|E-6 2F.F ....|--- .... ....|--- .... ....
....|..|D-6 2F.F ....|--- .... ....|--- .... ....
....|..|C-6 2F.F ....|--- .... ....|--- .... ....
....|..|A-5 2F.F ....|--- .... ....|--- .... ....
....|..|F-5 2F.F ....|--- .... ....|--- .... ....
....|..|E-5 2F.F ....|--- .... ....|--- .... ....
....|..|D-5 2F.F ....|--- .... ....|--- .... ....
....|..|C-5 2F.F ....|--- .... ....|--- .... ....
....|..|C-6 2F.A ....|--- .... ....|--- .... ....
....|..|A-5 2F.A ....|--- .... ....|--- .... ....
....|..|F-5 2F.A ....|--- .... ....|--- .... ....
....|..|F-6 2F.7 ....|--- .... ....|--- .... ....
....|..|E-6 2F.7 ....|--- .... ....|--- .... ....
....|..|D-6 2F.7 ....|--- .... ....|--- .... ....
....|..|C-6 2F.7 ....|--- .... ....|--- .... ....
....|..|A-5 2F.7 ....|--- .... ....|--- .... ....
....|..|F-5 2F.7 ....|--- .... ....|--- .... ....
....|..|E-5 2F.7 ....|--- .... ....|--- .... ....
....|..|D-5 2F.7 ....|--- .... ....|--- .... ....
....|..|C-5 2F.7 ....|--- .... ....|--- .... ....
....|..|--- .... ....|--- .... ....|--- .... ....
....|..|--- .... ....|--- .... ....|--- .... ....
....|..|--- .... ....|--- .... ....|--- .... ....
....|..|D-5 2F.F ....|--- .... ....|--- .... ....
....|..|--- .... ....|--- .... ....|--- .... ....
....|..|C-5 2F.F ....|--- .... ....|--- .... ....
....|..|--- .... ....|--- .... ....|--- .... ....
....|..|D-5 2F.F ....|--- .... ....|--- .... ....
....|..|--- .... ....|--- .... ....|--- .... ....
....|..|C-5 2F.F ....|--- .... ....|--- .... ....
....|..|--- .... ....|--- .... ....|--- .... ....
....|..|F-5 2F.F ....|--- .... ....|--- .... ....
....|..|--- .... ....|--- .... ....|--- .... ....
....|..|E-5 2F.F ....|--- .... ....|--- .... ....
....|..|--- .... ....|--- .... ....|--- .... ....
....|..|F-5 2F.F ....|--- .... ....|--- .... ....
....|..|--- .... ....|--- .... ....|--- .... ....
....|..|E-5 2F.F ....|--- .... ....|--- .... ....
....|..|--- .... ....|--- .... ....|--- .... ....

[Pattern32]
....|..|D-5 2F.F ....|--- .... ....|--- .... ....
....|..|--- .... ....|--- .... ....|--- .... ....
....|..|E-5 2F.F ....|--- .... ....|--- .... ....
....|..|--- .... ....|--- .... ....|--- .... ....
....|..|C-5 2F.F ....|--- .... ....|--- .... ....
....|..|--- .... ....|--- .... ....|--- .... ....
....|..|D-5 2F.F ....|--- .... ....|--- .... ....
....|..|--- .... ....|--- .... ....|--- .... ....
....|..|E-5 2F.F ....|--- .... ....|--- .... ....
....|..|--- .... ....|--- .... ....|--- .... ....
....|..|C-5 2F.F ....|--- .... ....|--- .... ....
....|..|--- .... ....|--- .... ....|--- .... ....
....|..|D-5 2F.F ....|--- .... ....|--- .... ....
....|..|--- .... ....|--- .... ....|--- .... ....
....|..|E-5 2F.F ....|--- .... ....|--- .... ....
....|..|--- .... ....|--- .... ....|--- .... ....
....|..|D-6 2F.F ....|--- .... ....|--- .... ....
....|..|--- .... ....|--- .... ....|--- .... ....
....|..|E-5 2F.F ....|--- .... ....|--- .... ....
....|..|--- .... ....|--- .... ....|--- .... ....
....|..|G-6 2F.F ....|--- .... ....|--- .... ....
....|..|--- .... ....|--- .... ....|--- .... ....
....|..|D-5 2F.F ....|--- .... ....|--- .... ....
....|..|--- .... ....|--- .... ....|--- .... ....
....|..|G-5 2F.F ....|--- .... ....|--- .... ....
....|..|--- .... ....|--- .... ....|--- .... ....
....|..|G-6 2F.F ....|--- .... ....|--- .... ....
....|..|--- .... ....|--- .... ....|--- .... ....
....|..|D-5 2F.F ....|--- .... ....|--- .... ....
....|..|--- .... ....|--- .... ....|--- .... ....
....|..|E-5 2F.F ....|--- .... ....|--- .... ....
....|..|--- .... ....|--- .... ....|--- .... ....
....|..|E-6 2F.F ....|--- .... ....|--- .... ....
....|..|--- .... ....|--- .... ....|--- .... ....
....|..|E-5 2F.F ....|--- .... ....|--- .... ....
....|..|--- .... ....|--- .... ....|--- .... ....
....|..|C-5 2F.F ....|--- .... ....|--- .... ....
....|..|R-- .... ....|--- .... ....|--- .... ....
....|..|D-5 2F.F ....|--- .... ....|--- .... ....
....|..|--- .... ....|--- .... ....|--- .... ....
....|..|E-5 2F.F ....|--- .... ....|--- .... ....
....|..|--- .... ....|--- .... ....|--- .... ....
....|..|G-5 2F.F ....|--- .... ....|--- .... ....
....|..|R-- .... ....|--- .... ....|--- .... ....
....|..|E-5 2F.F ....|--- .... ....|--- .... ....
....|..|R-- .... ....|--- .... ....|--- .... ....
....|..|D-5 2F.F ....|--- .... ....|--- .... ....
....|..|--- .... ....|--- .... ....|--- .... ....
....|..|E-5 2F.F ....|--- .... ....|--- .... ....
....|..|R-- .... ....|--- .... ....|--- .... ....
....|..|G-5 2F.F ....|--- .... ....|--- .... ....
....|..|R-- .... ....|--- .... ....|--- .... ....
....|..|D-5 2F.F ....|--- .... ....|--- .... ....
....|..|R-- .... ....|--- .... ....|--- .... ....
....|..|E-5 2F.F ....|--- .... ....|--- .... ....
....|..|--- .... ....|--- .... ....|--- .... ....
....|..|G-5 2F.F ....|--- .... ....|--- .... ....
....|..|R-- .... ....|--- .... ....|--- .... ....
....|..|D-5 2F.F ....|--- .... ....|--- .... ....
....|..|R-- .... ....|--- .... ....|--- .... ....
....|..|E-5 2F.F ....|--- .... ....|--- .... ....
....|..|--- .... ....|--- .... ....|--- .... ....
....|..|G-5 2F.F ....|--- .... ....|--- .... ....
....|..|--- .... ....|--- .... ....|--- .... ....

[Pattern33]
....|..|D-5 2F.F ....|--- .... ....|--- .... ....
....|..|R-- .... ....|--- .... ....|--- .... ....
....|..|E-5 2F.F ....|--- .... ....|--- .... ....
....|..|--- .... ....|--- .... ....|--- .... ....
....|..|C-5 2F.F ....|--- .... ....|--- .... ....
....|..|--- .... ....|--- .... ....|--- .... ....
....|..|D-5 2F.F ....|--- .... ....|--- .... ....
....|..|--- .... ....|--- .... ....|--- .... ....
....|..|E-5 2F.F ....|--- .... ....|--- .... ....
....|..|--- .... ....|--- .... ....|--- .... ....
....|..|C-5 2F.F ....|--- .... ....|--- .... ....
....|..|--- .... ....|--- .... ....|--- .... ....
....|..|D-5 2F.F ....|--- .... ....|--- .... ....
....|..|--- .... ....|--- .... ....|--- .... ....
....|..|E-5 2F.F ....|--- .... ....|--- .... ....
....|..|--- .... ....|--- .... ....|--- .... ....
....|..|D-5 2F.F ....|--- .... ....|--- .... ....
....|..|--- .... ....|--- .... ....|--- .... ....
....|..|E-5 2F.F ....|--- .... ....|--- .... ....
....|..|--- .... ....|--- .... ....|--- .... ....
....|..|C-5 2F.F ....|--- .... ....|--- .... ....
....|..|--- .... ....|--- .... ....|--- .... ....
....|..|D-5 2F.F ....|--- .... ....|--- .... ....
....|..|--- .... ....|--- .... ....|--- .... ....
....|..|E-5 2F.F ....|--- .... ....|--- .... ....
....|..|--- .... ....|--- .... ....|--- .... ....
....|..|G-5 2F.F ....|--- .... ....|--- .... ....
....|..|--- .... ....|--- .... ....|--- .... ....
....|..|E-5 2F.F ....|--- .... ....|--- .... ....
....|..|--- .... ....|--- .... ....|--- .... ....
....|..|D-5 2F.F ....|--- .... ....|--- .... ....
....|..|--- .... ....|--- .... ....|--- .... ....
....|..|E-5 2F.F ....|--- .... ....|--- .... ....
....|..|--- .... ....|--- .... ....|--- .... ....
....|..|G-5 2F.F ....|--- .... ....|--- .... ....
....|..|--- .... ....|--- .... ....|--- .... ....
....|..|A-5 2F.F ....|--- .... ....|--- .... ....
....|..|--- .... ....|--- .... ....|--- .... ....
....|..|G-5 2F.F ....|--- .... ....|--- .... ....
....|..|--- .... ....|--- .... ....|--- .... ....
....|..|A-5 2F.F ....|--- .... ....|--- .... ....
....|..|--- .... ....|--- .... ....|--- .... ....
....|..|G-5 2F.F ....|--- .... ....|--- .... ....
....|..|--- .... ....|--- .... ....|--- .... ....
....|..|E-5 2F.F ....|--- .... ....|--- .... ....
....|..|--- .... ....|--- .... ....|--- .... ....
....|..|D-5 2F.F ....|--- .... ....|--- .... ....
....|..|--- .... ....|--- .... ....|--- .... ....
....|..|E-5 2F.F ....|--- .... ....|--- .... ....
....|..|--- .... ....|--- .... ....|--- .... ....
....|..|G-5 2F.F ....|--- .... ....|--- .... ....
....|..|--- .... ....|--- .... ....|--- .... ....
....|..|D-5 2F.F ....|--- .... ....|--- .... ....
....|..|--- .... ....|--- .... ....|--- .... ....
....|..|E-5 2F.F ....|--- .... ....|--- .... ....
....|..|--- .... ....|--- .... ....|--- .... ....
....|..|C-5 2F.F ....|--- .... ....|--- .... ....
....|..|--- .... ....|--- .... ....|--- .... ....
....|..|E-5 2F.F ....|--- .... ....|--- .... ....
....|..|--- .... ....|--- .... ....|--- .... ....
....|..|D-5 2F.F ....|--- .... ....|--- .... ....
....|..|--- .... ....|--- .... ....|--- .... ....
....|..|A-5 2F.F ....|--- .... ....|--- .... ....
....|..|--- .... ....|--- .... ....|--- .... ....

[Pattern34]
....|..|D-5 2F.F ....|--- .... ....|--- .... ....
....|..|--- .... ....|--- .... ....|--- .... ....
....|..|E-5 2F.F ....|--- .... ....|--- .... ....
....|..|--- .... ....|--- .... ....|--- .... ....
....|..|C-5 2F.F ....|--- .... ....|--- .... ....
....|..|--- .... ....|--- .... ....|--- .... ....
....|..|D-5 2F.F ....|--- .... ....|--- .... ....
....|..|--- .... ....|--- .... ....|--- .... ....
....|..|E-5 2F.F ....|--- .... ....|--- .... ....
....|..|--- .... ....|--- .... ....|--- .... ....
....|..|C-5 2F.F ....|--- .... ....|--- .... ....
....|..|--- .... ....|--- .... ....|--- .... ....
....|..|D-5 2F.F ....|--- .... ....|--- .... ....
....|..|--- .... ....|--- .... ....|--- .... ....
....|..|E-5 2F.F ....|--- .... ....|--- .... ....
....|..|--- .... ....|--- .... ....|--- .... ....
....|..|D-5 2F.F ....|--- .... ....|--- .... ....
....|..|--- .... ....|--- .... ....|--- .... ....
....|..|E-5 2F.F ....|--- .... ....|--- .... ....
....|..|--- .... ....|--- .... ....|--- .... ....
....|..|C-5 2F.F ....|--- .... ....|--- .... ....
....|..|--- .... ....|--- .... ....|--- .... ....
....|..|D-5 2F.F ....|--- .... ....|--- .... ....
....|..|--- .... ....|--- .... ....|--- .... ....
....|..|E-5 2F.F ....|--- .... ....|--- .... ....
....|..|--- .... ....|--- .... ....|--- .... ....
....|..|G-5 2F.F ....|--- .... ....|--- .... ....
....|..|--- .... ....|--- .... ....|--- .... ....
....|..|E-5 2F.F ....|--- .... ....|--- .... ....
....|..|--- .... ....|--- .... ....|--- .... ....
....|..|D-5 2F.F ....|--- .... ....|--- .... ....
....|..|--- .... ....|--- .... ....|--- .... ....
....|..|E-5 2F.F ....|--- .... ....|--- .... ....
....|..|--- .... ....|--- .... ....|--- .... ....
....|..|G-5 2F.F ....|--- .... ....|--- .... ....
....|..|--- .... ....|--- .... ....|--- .... ....
....|..|A-5 2F.F ....|--- .... ....|--- .... ....
....|..|--- .... ....|--- .... ....|--- .... ....
....|..|G-5 2F.F ....|--- .... ....|--- .... ....
....|..|--- .... ....|--- .... ....|--- .... ....
....|..|A-5 2F.F ....|--- .... ....|--- .... ....
....|..|--- .... ....|--- .... ....|--- .... ....
....|..|G-5 2F.F ....|--- .... ....|--- .... ....
....|..|--- .... ....|--- .... ....|--- .... ....
....|..|E-5 2F.F ....|--- .... ....|--- .... ....
....|..|--- .... ....|--- .... ....|--- .... ....
....|..|D-5 2F.F ....|--- .... ....|--- .... ....
....|..|--- .... ....|--- .... ....|--- .... ....
....|..|E-5 2F.F ....|--- .... ....|--- .... ....
....|..|--- .... ....|--- .... ....|--- .... ....
....|..|G-5 2F.F ....|--- .... ....|--- .... ....
....|..|--- .... ....|--- .... ....|--- .... ....
....|..|D-5 2F.F ....|--- .... ....|--- .... ....
....|..|--- .... ....|--- .... ....|--- .... ....
....|..|E-5 2F.F ....|--- .... ....|--- .... ....
....|..|--- .... ....|--- .... ....|--- .... ....
....|..|C-5 2F.F ....|--- .... ....|--- .... ....
....|..|--- .... ....|--- .... ....|--- .... ....
....|..|E-5 2F.F ....|--- .... ....|--- .... ....
....|..|--- .... ....|--- .... ....|--- .... ....
....|..|D-5 2F.F ....|--- .... ....|--- .... ....
....|..|--- .... ....|--- .... ....|--- .... ....
....|..|G-5 2F.7 ....|--- .... ....|--- .... ....
....|..|A-5 2F.F ....|--- .... ....|--- .... ....

[Pattern35]
....|..|D-5 2F.F ....|--- .... ....|--- .... ....
....|..|--- .... ....|--- .... ....|--- .... ....
....|..|E-5 2F.F ....|--- .... ....|--- .... ....
....|..|--- .... ....|--- .... ....|--- .... ....
....|..|C-5 2F.F ....|--- .... ....|--- .... ....
....|..|A-5 2F.A ....|--- .... ....|--- .... ....
....|..|D-5 2F.F ....|--- .... ....|--- .... ....
....|..|--- .... ....|--- .... ....|--- .... ....
....|..|E-5 2F.F ....|--- .... ....|--- .... ....
....|..|--- .... ....|--- .... ....|--- .... ....
....|..|C-5 2F.F ....|--- .... ....|--- .... ....
....|..|A-5 2F.7 ....|--- .... ....|--- .... ....
....|..|D-5 2F.F ....|--- .... ....|--- .... ....
....|..|--- .... ....|--- .... ....|--- .... ....
....|..|E-5 2F.F ....|--- .... ....|--- .... ....
....|..|--- .... ....|--- .... ....|--- .... ....
....|..|D-5 2F.F ....|--- .... ....|--- .... ....
....|..|--- .... ....|--- .... ....|--- .... ....
....|..|E-5 2F.F ....|--- .... ....|--- .... ....
....|..|--- .... ....|--- .... ....|--- .... ....
....|..|C-5 2F.F ....|--- .... ....|--- .... ....
....|..|--- .... ....|--- .... ....|--- .... ....
....|..|D-5 2F.F ....|--- .... ....|--- .... ....
....|..|--- .... ....|--- .... ....|--- .... ....
....|..|E-5 2F.F ....|--- .... ....|--- .... ....
....|..|--- .... ....|--- .... ....|--- .... ....
....|..|C-5 2F.F ....|--- .... ....|--- .... ....
....|..|--- .... ....|--- .... ....|--- .... ....
....|..|D-5 2F.F ....|--- .... ....|--- .... ....
....|..|--- .... ....|--- .... ....|--- .... ....
....|..|E-5 2F.F ....|--- .... ....|--- .... ....
....|..|--- .... ....|--- .... ....|--- .... ....
....|..|D-5 2F.F ....|--- .... ....|--- .... ....
....|..|--- .... ....|--- .... ....|--- .... ....
....|..|E-5 2F.F ....|--- .... ....|--- .... ....
....|..|--- .... ....|--- .... ....|--- .... ....
....|..|C-5 2F.F ....|--- .... ....|--- .... ....
....|..|--- .... ....|--- .... ....|--- .... ....
....|..|D-5 2F.F ....|--- .... ....|--- .... ....
....|..|--- .... ....|--- .... ....|--- .... ....
....|..|E-5 2F.F ....|--- .... ....|--- .... ....
....|..|--- .... ....|--- .... ....|--- .... ....
....|..|G-5 2F.F ....|--- .... ....|--- .... ....
....|..|--- .... ....|--- .... ....|--- .... ....
....|..|E-5 2F.F ....|--- .... ....|--- .... ....
....|..|--- .... ....|--- .... ....|--- .... ....
....|..|D-5 2F.F ....|--- .... ....|--- .... ....
....|..|--- .... ....|--- .... ....|--- .... ....
....|..|E-5 2F.F ....|--- .... ....|--- .... ....
....|..|--- .... ....|--- .... ....|--- .... ....
....|..|G-5 2F.F ....|--- .... ....|--- .... ....
....|..|--- .... ....|--- .... ....|--- .... ....
....|..|D-5 2F.F ....|--- .... ....|--- .... ....
....|..|--- .... ....|--- .... ....|--- .... ....
....|..|E-5 2F.F ....|--- .... ....|--- .... ....
....|..|--- .... ....|--- .... ....|--- .... ....
....|..|G-5 2F.F ....|--- .... ....|--- .... ....
....|..|--- .... ....|--- .... ....|--- .... ....
....|..|D-5 2F.F ....|--- .... ....|--- .... ....
....|..|--- .... ....|--- .... ....|--- .... ....
....|..|E-5 2F.F ....|--- .... ....|--- .... ....
....|..|--- .... ....|--- .... ....|--- .... ....
....|..|G-5 2F.F ....|--- .... ....|--- .... ....
....|..|--- .... ....|--- .... ....|--- .... ....

[Pattern36]
....|..|C-6 2F.F ....|--- .... ....|--- .... ....
....|..|--- .... ....|--- .... ....|--- .... ....
....|..|D-6 2F.F ....|--- .... ....|--- .... ....
....|..|--- .... ....|--- .... ....|--- .... ....
....|..|G-5 2F.7 ....|--- .... ....|--- .... ....
....|..|--- .... ....|--- .... ....|--- .... ....
....|..|C-6 2F.F ....|--- .... ....|--- .... ....
....|..|--- .... ....|--- .... ....|--- .... ....
....|..|D-6 2F.F ....|--- .... ....|--- .... ....
....|..|--- .... ....|--- .... ....|--- .... ....
....|..|G-5 2F.7 ....|--- .... ....|--- .... ....
....|..|--- .... ....|--- .... ....|--- .... ....
....|..|G-6 2F.F ....|--- .... ....|--- .... ....
....|..|--- .... ....|--- .... ....|--- .... ....
....|..|D-6 2F.7 ....|--- .... ....|--- .... ....
....|..|--- .... ....|--- .... ....|--- .... ....
....|..|--- .... ....|--- .... ....|--- .... ....
....|..|--- .... ....|--- .... ....|--- .... ....
....|..|C-6 2F.7 ....|--- .... ....|--- .... ....
....|..|--- .... ....|--- .... ....|--- .... ....
....|..|D-6 2F.7 ....|--- .... ....|--- .... ....
....|..|--- .... ....|--- .... ....|--- .... ....
....|..|--- .... ....|--- .... ....|--- .... ....
....|..|--- .... ....|--- .... ....|--- .... ....
....|..|F-6 2F.F ....|--- .... ....|--- .... ....
....|..|E-6 2F.F ....|--- .... ....|--- .... ....
....|..|D-6 2F.F ....|--- .... ....|--- .... ....
....|..|C-6 2F.F ....|--- .... ....|--- .... ....
....|..|A-5 2F.F ....|--- .... ....|--- .... ....
....|..|F-5 2F.F ....|--- .... ....|--- .... ....
....|..|E-5 2F.F ....|--- .... ....|--- .... ....
....|..|D-5 2F.F ....|--- .... ....|--- .... ....
....|..|C-5 2F.F ....|--- .... ....|--- .... ....
....|..|C-6 2F.A ....|--- .... ....|--- .... ....
....|..|A-5 2F.A ....|--- .... ....|--- .... ....
....|..|F-5 2F.A ....|--- .... ....|--- .... ....
....|..|F-6 2F.7 ....|--- .... ....|--- .... ....
....|..|E-6 2F.7 ....|--- .... ....|--- .... ....
....|..|D-6 2F.7 ....|--- .... ....|--- .... ....
....|..|C-6 2F.7 ....|--- .... ....|--- .... ....
....|..|A-5 2F.7 ....|--- .... ....|--- .... ....
....|..|F-5 2F.7 ....|--- .... ....|--- .... ....
....|..|E-5 2F.7 ....|--- .... ....|--- .... ....
....|..|D-5 2F.7 ....|--- .... ....|--- .... ....
....|..|C-5 2F.7 ....|--- .... ....|--- .... ....
....|..|--- .... ....|--- .... ....|--- .... ....
....|..|--- .... ....|--- .... ....|--- .... ....
....|..|--- .... ....|--- .... ....|--- .... ....
....|..|D-5 2F.F ....|--- .... ....|--- .... ....
....|..|--- .... ....|--- .... ....|--- .... ....
....|..|C-5 2F.F ....|--- .... ....|--- .... ....
....|..|--- .... ....|--- .... ....|--- .... ....
....|..|D-5 2F.F ....|--- .... ....|--- .... ....
....|..|--- .... ....|--- .... ....|--- .... ....
....|..|C-5 2F.F ....|--- .... ....|--- .... ....
....|..|--- .... ....|--- .... ....|--- .... ....
....|..|F-5 2F.F ....|--- .... ....|--- .... ....
....|..|--- .... ....|--- .... ....|--- .... ....
....|..|E-5 2F.F ....|--- .... ....|--- .... ....
....|..|--- .... ....|--- .... ....|--- .... ....
....|..|F-5 2F.F ....|--- .... ....|--- .... ....
....|..|--- .... ....|--- .... ....|--- .... ....
....|..|E-5 2F.F ....|--- .... ....|--- .... ....
....|..|R-- .... ....|--- .... ....|--- .... ....

[Pattern37]
....|..|D-5 2F.7 ....|--- .... ....|--- .... ....
....|..|--- .... ....|--- .... ....|--- .... ....
....|..|C-5 2F.7 ....|--- .... ....|--- .... ....
....|..|--- .... ....|--- .... ....|--- .... ....
....|..|F-5 2F.7 ....|--- .... ....|--- .... ....
....|..|R-- .... ....|--- .... ....|--- .... ....
....|..|E-5 2F.7 ....|--- .... ....|--- .... ....
....|..|--- .... ....|--- .... ....|--- .... ....
....|..|F-5 2F.7 ....|--- .... ....|--- .... ....
....|..|--- .... ....|--- .... ....|--- .... ....
....|..|E-5 2F.7 ....|--- .... ....|--- .... ....

