[Module]
VortexTrackerII=0
Version=3.5
Title=eva_op.mid
Author=oisee ^ 4d 29.05.2010
NoteTable=4
ChipFreq=1750000
Speed=4
PlayOrder=L0,1,2,3,4,5,6,7,8,9,10,11,12,13,14,15,16,17,18,19,20,21,22,23,24,23,26,27,28,27,30,3,32,3,34,35,6,7,38,39,10,11,12,13,14,15,16,17,18,19,20,21,52,13,14,15,16,17,18,19,20,21,62


[Ornament1]
L0,0,5,5,9,9

[Ornament2]
L0,0,4,4,7,7

[Ornament3]
L0,0,3,3,7,7

[Ornament4]
L0,0,3,3,5,5

[Ornament5]
L0,0,5,5,7,7

[Ornament6]
L0,0,5,5,10,10

[Ornament7]
L0,0,2,2,7,7

[Ornament8]
L0,0,3,3,8,8

[Ornament9]
L0,0,3,3,6,6

[Ornament10]
L0,0,5,5,8,8

[Ornament11]
L0,0,4,4,9,9

[Ornament12]
L0,0,3,3,9,9

[Ornament13]
L0,0,2,2,5,5,9,9

[Ornament14]
L0,0,3,3,5,5,8,8

[Ornament15]
L0,0,4,4,5,5,9,9


[Sample1]
TnE +000_ +00_ F_
TnE +000_ +00_ F_
TnE +000_ +00_ F_
TnE +000_ +00_ D_
TnE +000_ +00_ B_
TnE +000_ +00_ B_ L

[Sample2]
TnE +000_ +00_ F_ L

[Sample3]
TnE +001_ +00_ F_
TnE +002_ +00_ F_
TnE +001_ +00_ E_
TnE +002_ +00_ E_
TnE +000_ +00_ E_ L
TnE -001_ +00_ E_
TnE -002_ +00_ E_
TnE -001_ +00_ E_
TnE +000_ +00_ E_
TnE +001_ +00_ E_
TnE +002_ +00_ E_
TnE +001_ +00_ E_

[Sample4]
TnE +002_ +00_ D_
TnE +002_ +00_ D_
TnE +002_ +00_ C_
TnE +002_ +00_ B_
TnE +002_ +00_ A_ L
TnE +002_ +00_ A_
TnE +002_ +00_ A_
TnE +002_ +00_ A_
TnE +002_ +00_ A_
TnE +002_ +00_ A_
TnE +002_ +00_ A_
TnE +002_ +00_ A_

[Sample5]
TnE +000_ +00_ F_
TnE +000_ +00_ F_
tne +000_ +00_ 0_ L

[Sample6]
TnE -001_ +00_ F_ L

[Sample7]
TnE +006_ +00_ F_ L

[Sample8]
tNe +000_ +00_ F_
tNe +000_ +00_ B_
tNe +000_ +00_ 7_
tNe +000_ +00_ 6- L

[Sample9]
TnE +080_ +00_ F_
TnE +100_ +00_ E_
TnE +180_ +00_ E_
TnE +200_ +00_ E_
TnE +240_ +00_ D_
TnE +280_ +00_ D_
TnE +2C0_ +00_ D_
TnE +300_ +00_ C_
TnE +300_ +00_ C_
TnE +340_ +00_ C_
TnE +340_ +00_ C_
TnE +380_ +00_ B_
TnE +380_ +00_ B_
TnE +400_ +00_ B_
TnE +400_ +00_ B_
TnE +480_ +00_ A_
TnE +500_ +00_ 9_
TnE +580_ +00_ 7_
TnE +600_ +00_ 4_
TnE +680_ +00_ 1_
TnE +000_ +00_ 0_ L

[Sample10]
Tne +1C0_ +00_ F_
Tne +280_ +00_ E_
Tne +380_ +00_ C_
Tne +440_ +00_ A_
Tne +480_ +00_ 8_
TnE +000_ +00_ 0_ L

[Sample11]
TNe +200_ -0A_ F_
tNe +000_ +0F_ A_
TNe +200_ -07_ E_
tNe +000_ +0E_ B- L

[Sample12]
TNE +0A0_ +05_ F_
TNE +140_ +02_ D_
TNE +140_ +02_ B_
TNE +100_ +00_ A_ L
TNE +140_ +00_ A_
TNE +200_ +00_ A-

[Sample13]
Tne +200_ +00_ F_
Tne +2C0_ +00_ F_
Tne +380_ +00_ E_
Tne +500_ +00_ C_
Tne +520_ +00_ 9_
tne +000_ +00_ 0_ L

[Sample14]
TNE -100_ +00_ F_
TNE -100_ +00_ D_
TNE -100_ +00_ A_
TNE -100_ +00_ 5_
tne +000_ +00_ 0_ L

[Sample15]
TNE -100_ +00_ 5_
TNE -100_ +00_ 8_
TNE -100_ +00_ B_
TNE -100_ +00_ F_
TNe -100_ +00_ 9- L

[Sample16]
TnE +000_ +00_ C_
TnE +000_ +00_ E_
TnE +000_ +00_ F_
TnE +000_ +00_ F_
TnE +000_ +00_ E_
TnE +000_ +00_ D_
TnE +000_ +00_ C_
TnE +000_ +00_ C_ L
TnE +001_ +00_ C_
TnE +002_ +00_ C_
TnE +003_ +00_ C_
TnE +001_ +00_ C_
TnE +000_ +00_ C_
TnE -001_ +00_ C_
TnE -002_ +00_ C_
TnE -003_ +00_ C_
TnE -001_ +00_ C_
TnE +000_ +00_ C_
TnE +000_ +00_ C_

[Sample17]
Tne +1C0_ +00_ F_
Tne +280_ +00_ D_
Tne +380_ +00_ 7_
TNE +000_ +00_ 0_ L

[Sample18]
tnE +000_ +00_ 0_ L

[Sample19]
TNe +000_ +00_ F_
TNe +000_ +00_ C_
TNe +000_ +00_ 6_
TNe +000_ +01_ A- L

[Sample20]
TNE +140_ +00_ F_
tNE +000_ +00_ B- L

[Sample21]
tNE +000_ +00_ D_
tNE +000_ +00_ 8_
tNE +000_ +00_ 1_
TNE +000_ +00_ 0_ L

[Sample22]
TnE +000_ +00_ D_ L
TnE +000_ +00_ D_
tne +000_ +00_ 9_
tne +000_ +00_ 9_
TnE +000_ +00_ D_
TnE +000_ +00_ D_
tne +000_ +00_ 9_
tne +000_ +00_ 9_
TnE +000_ +00_ D_
TnE +000_ +00_ D_
TnE +000_ +00_ D_
TnE +000_ +00_ D_
TnE +000_ +00_ D_
TnE +000_ +00_ D_
tne +000_ +00_ 9_
tne +000_ +00_ 9_

[Sample23]
TnE +000_ +00_ F_ L
TnE +010_ +01_ F_
TnE +010_ +01_ F_
TnE +010_ +01_ F_
TnE +010_ +01_ F_
TnE +000_ +00_ F_
TnE +000_ +00_ F_
TnE -010_ -01_ F_
TnE -010_ -01_ F_
TnE -010_ -01_ F_
TnE -010_ -01_ F_
TnE +000_ +00_ F_

[Sample24]
TNe +000_ -01_ C_
TNe +000_ -01_ D_
TNe +000_ -01_ E_
TNe +000_ -01_ F_
TNe +000_ -01_ F_
TNe +000_ -01_ F_
TNe +000_ -01_ F_
TNe +000_ -01_ F_
TNe +000_ -01_ E_
TNe +000_ -01_ E_
TNe +000_ -01_ E_
TNe +000_ -01_ F_
TNe +000_ -01_ F_ L

[Sample25]
TNE +000_ +00_ F_
TNE +000_ +00_ F_ L
TNE +000_ +00_ F_
TNE +000_ +00_ F_
TNE +000_ +00_ F-

[Sample26]
tne +000_ +00_ 0_ L

[Sample27]
tne +000_ +00_ 0_ L

[Sample28]
tne +000_ +00_ 0_ L

[Sample29]
tne +000_ +00_ 0_ L

[Sample30]
TNE +000_ +00_ C+ L

[Sample31]
TNe +1C0_ +00_ F_
Tne +280_ +00_ E_
Tne +380_ +00_ C_
Tne +440_ +00_ A_
Tne +480_ +00_ 8_
TnE +000_ +00_ 0_ L

[Pattern0]
....|..|C-4 ...F ....|--- .... ....|--- .... ....
....|..|--- .... ....|--- .... ....|--- .... ....
....|..|--- .... ....|--- .... ....|--- .... ....
....|..|--- .... ....|--- .... ....|--- .... ....
....|..|--- .... ....|--- .... ....|--- .... ....
....|..|--- .... ....|--- .... ....|--- .... ....
....|..|--- .... ....|--- .... ....|--- .... ....
....|..|--- .... ....|--- .... ....|--- .... ....
....|..|D#4 ...F ....|--- .... ....|--- .... ....
....|..|--- .... ....|--- .... ....|--- .... ....
....|..|D#4 ...F ....|--- .... ....|--- .... ....
....|..|--- .... ....|--- .... ....|--- .... ....
....|..|C-4 ...A ....|--- .... ....|--- .... ....
....|..|--- .... ....|--- .... ....|--- .... ....
....|..|--- .... ....|--- .... ....|--- .... ....
....|..|--- .... ....|--- .... ....|--- .... ....
....|..|F-4 ...F ....|--- .... ....|--- .... ....
....|..|--- .... ....|--- .... ....|--- .... ....
....|..|--- .... ....|--- .... ....|--- .... ....
....|..|--- .... ....|--- .... ....|--- .... ....
....|..|D#4 ...A ....|--- .... ....|--- .... ....
....|..|--- .... ....|--- .... ....|--- .... ....
....|..|D#4 ...F ....|--- .... ....|--- .... ....
....|..|--- .... ....|--- .... ....|--- .... ....
....|..|C-4 ...7 ....|--- .... ....|--- .... ....
....|..|--- .... ....|--- .... ....|--- .... ....
....|..|--- .... ....|--- .... ....|--- .... ....
....|..|--- .... ....|--- .... ....|--- .... ....
....|..|F-4 ...F ....|--- .... ....|--- .... ....
....|..|--- .... ....|--- .... ....|--- .... ....
....|..|--- .... ....|--- .... ....|--- .... ....
....|..|R-- .... ....|--- .... ....|--- .... ....
....|..|F-4 ...F ....|--- .... ....|--- .... ....
....|..|--- .... ....|--- .... ....|--- .... ....
....|..|D#4 ...7 ....|--- .... ....|--- .... ....
....|..|--- .... ....|--- .... ....|--- .... ....
....|..|F-4 ...F ....|--- .... ....|--- .... ....
....|..|--- .... ....|--- .... ....|--- .... ....
....|..|--- .... ....|--- .... ....|--- .... ....
....|..|R-- .... ....|--- .... ....|--- .... ....
....|..|A#4 ...F ....|--- .... ....|--- .... ....
....|..|--- .... ....|--- .... ....|--- .... ....
....|..|--- .... ....|--- .... ....|--- .... ....
....|..|R-- .... ....|--- .... ....|--- .... ....
....|..|G#4 ...F ....|--- .... ....|--- .... ....
....|..|--- .... ....|--- .... ....|--- .... ....
....|..|D#4 ...7 ....|--- .... ....|--- .... ....
....|..|--- .... ....|--- .... ....|--- .... ....
....|..|G-4 ...F ....|--- .... ....|--- .... ....
....|..|--- .... ....|--- .... ....|--- .... ....
....|..|F-4 ...F ....|--- .... ....|--- .... ....
....|..|R-- .... ....|--- .... ....|--- .... ....
....|..|F-4 ...7 ....|--- .... ....|--- .... ....
....|..|--- .... ....|--- .... ....|--- .... ....
....|..|G-4 ...F ....|--- .... ....|--- .... ....
....|..|R-- .... ....|--- .... ....|--- .... ....
....|..|F-4 ...7 ....|--- .... ....|--- .... ....
....|..|--- .... ....|--- .... ....|--- .... ....
....|..|R-- .... ....|--- .... ....|--- .... ....
....|..|--- .... ....|--- .... ....|--- .... ....
....|..|F-4 ...7 ....|--- .... ....|--- .... ....
....|..|--- .... ....|--- .... ....|--- .... ....
....|..|F-4 ...A ....|--- .... ....|--- .... ....
....|..|R-- .... ....|--- .... ....|--- .... ....

[Pattern1]
....|..|G-4 ...F ....|--- .... ....|--- .... ....
....|..|--- .... ....|--- .... ....|--- .... ....
....|..|G-4 ...A ....|--- .... ....|--- .... ....
....|..|--- .... ....|--- .... ....|--- .... ....
....|..|G#4 ...7 ....|--- .... ....|--- .... ....
....|..|--- .... ....|--- .... ....|--- .... ....
....|..|R-- .... ....|--- .... ....|--- .... ....
....|..|--- .... ....|--- .... ....|--- .... ....
....|..|A#4 ...F ....|--- .... ....|--- .... ....
....|..|--- .... ....|--- .... ....|--- .... ....
....|..|F-4 ...7 ....|--- .... ....|--- .... ....
....|..|--- .... ....|--- .... ....|--- .... ....
....|..|G-4 ...A ....|--- .... ....|--- .... ....
....|..|--- .... ....|--- .... ....|--- .... ....
....|..|G-4 ...7 ....|--- .... ....|--- .... ....
....|..|--- .... ....|--- .... ....|--- .... ....
....|..|C-5 ...F ....|--- .... ....|--- .... ....
....|..|--- .... ....|--- .... ....|--- .... ....
....|..|R-- .... ....|--- .... ....|--- .... ....
....|..|--- .... ....|--- .... ....|--- .... ....
....|..|A#4 ...A ....|--- .... ....|--- .... ....
....|..|--- .... ....|--- .... ....|--- .... ....
....|..|F-4 ...F ....|--- .... ....|--- .... ....
....|..|--- .... ....|--- .... ....|--- .... ....
....|..|G-4 ...7 ....|--- .... ....|--- .... ....
....|..|--- .... ....|--- .... ....|--- .... ....
....|..|--- .... ....|--- .... ....|--- .... ....
....|..|--- .... ....|--- .... ....|--- .... ....
....|..|D#4 ...F ....|--- .... ....|--- .... ....
....|..|--- .... ....|--- .... ....|--- .... ....
....|..|--- .... ....|--- .... ....|--- .... ....
....|..|--- .... ....|--- .... ....|--- .... ....
....|..|A#4 ...F ....|--- .... ....|--- .... ....
....|..|--- .... ....|--- .... ....|--- .... ....
....|..|F-4 ...A ....|--- .... ....|--- .... ....
....|..|--- .... ....|--- .... ....|--- .... ....
....|..|A#4 ...F ....|--- .... ....|--- .... ....
....|..|--- .... ....|--- .... ....|--- .... ....
....|..|--- .... ....|--- .... ....|--- .... ....
....|..|--- .... ....|--- .... ....|--- .... ....
....|..|G-4 ...F ....|--- .... ....|--- .... ....
....|..|--- .... ....|--- .... ....|--- .... ....
....|..|--- .... ....|--- .... ....|--- .... ....
....|..|--- .... ....|--- .... ....|--- .... ....
....|..|A#4 ...F ....|--- .... ....|--- .... ....
....|..|--- .... ....|--- .... ....|--- .... ....
....|..|F-4 ...7 ....|--- .... ....|--- .... ....
....|..|--- .... ....|--- .... ....|--- .... ....
....|..|A#4 ...F ....|--- .... ....|--- .... ....
....|..|--- .... ....|--- .... ....|--- .... ....
....|..|--- .... ....|--- .... ....|--- .... ....
....|..|--- .... ....|--- .... ....|--- .... ....
....|..|D#4 ...7 ....|--- .... ....|--- .... ....
....|..|--- .... ....|--- .... ....|--- .... ....
....|..|C-5 ...F ....|--- .... ....|--- .... ....
....|..|--- .... ....|--- .... ....|--- .... ....
....|..|A#4 ...7 ....|--- .... ....|--- .... ....
....|..|--- .... ....|--- .... ....|--- .... ....
....|..|--- .... ....|--- .... ....|--- .... ....
....|..|--- .... ....|--- .... ....|--- .... ....
....|..|A#4 ...7 ....|--- .... ....|--- .... ....
....|..|--- .... ....|--- .... ....|--- .... ....
....|..|--- .... ....|--- .... ....|--- .... ....
....|..|--- .... ....|--- .... ....|--- .... ....

[Pattern2]
....|..|G-4 ...7 ....|--- .... ....|--- .... ....
....|..|--- .... ....|--- .... ....|--- .... ....
....|..|C-5 ...A ....|--- .... ....|--- .... ....
....|..|--- .... ....|--- .... ....|--- .... ....
....|..|A#4 ...7 ....|--- .... ....|--- .... ....
....|..|--- .... ....|--- .... ....|--- .... ....
....|..|--- .... ....|--- .... ....|--- .... ....
....|..|--- .... ....|--- .... ....|--- .... ....
....|..|A#4 ...7 ....|--- .... ....|--- .... ....
....|..|--- .... ....|--- .... ....|--- .... ....
....|..|--- .... ....|--- .... ....|--- .... ....
....|..|--- .... ....|--- .... ....|--- .... ....
....|..|--- .... ....|--- .... ....|--- .... ....
....|..|--- .... ....|--- .... ....|--- .... ....
....|..|C-5 ...7 ....|--- .... ....|--- .... ....
....|..|--- .... ....|--- .... ....|--- .... ....
....|..|--- .... ....|--- .... ....|--- .... ....
....|..|--- .... ....|--- .... ....|--- .... ....
....|..|--- .... ....|--- .... ....|--- .... ....
....|..|--- .... ....|--- .... ....|--- .... ....
....|..|--- .... ....|--- .... ....|--- .... ....
....|..|--- .... ....|--- .... ....|--- .... ....
....|..|--- .... ....|--- .... ....|--- .... ....
....|..|--- .... ....|--- .... ....|--- .... ....
....|..|--- .... ....|--- .... ....|--- .... ....
....|..|--- .... ....|--- .... ....|--- .... ....
....|..|--- .... ....|--- .... ....|--- .... ....
....|..|--- .... ....|--- .... ....|--- .... ....
....|..|--- .... ....|--- .... ....|--- .... ....
....|..|--- .... ....|--- .... ....|--- .... ....
....|..|--- .... ....|--- .... ....|--- .... ....
....|..|--- .... ....|--- .... ....|--- .... ....
 C-4|..|R-- .... ....|C-2 .A.F ....|--- .... ....
....|..|--- .... ....|--- .... ....|--- .... ....
....|..|--- .... ....|--- .... ....|--- .... ....
....|..|--- .... ....|R-- .... ....|--- .... ....
 C-4|..|--- .... ....|C-2 .A.F ....|--- .... ....
....|..|--- .... ....|--- .... ....|--- .... ....
....|..|--- .... ....|--- .... ....|--- .... ....
....|..|--- .... ....|R-- .... ....|--- .... ....
 C-4|..|--- .... ....|C-2 .A.F ....|--- .... ....
....|..|--- .... ....|--- .... ....|--- .... ....
....|..|--- .... ....|--- .... ....|--- .... ....
....|..|--- .... ....|R-- .... ....|--- .... ....
 D-4|..|R-- .... ....|D-2 .A.F ....|--- .... ....
....|..|--- .... ....|--- .... ....|--- .... ....
 D#4|..|--- .... ....|D#2 .A.F ....|--- .... ....
....|..|--- .... ....|R-- .... ....|--- .... ....
 F-4|..|--- .... ....|F-2 .A.F ....|--- .... ....
....|..|--- .... ....|--- .... ....|--- .... ....
 F-4|..|--- .... ....|F-2 .A.F ....|--- .... ....
....|..|--- .... ....|R-- .... ....|--- .... ....
 C-4|..|--- .... ....|C-2 .F.A ....|--- .... ....
....|..|--- .... ....|R-- .... ....|--- .... ....
 F-4|..|--- .... ....|F-2 .A.F ....|--- .... ....
....|..|--- .... ....|R-- .... ....|--- .... ....
 D#4|..|R-- .... ....|D#2 .A.F ....|--- .... ....
....|..|--- .... ....|--- .... ....|--- .... ....
 D#4|..|--- .... ....|D#2 .F.A ....|--- .... ....
....|..|--- .... ....|R-- .... ....|--- .... ....
 C-4|..|--- .... ....|C-2 .A.F ....|--- .... ....
....|..|--- .... ....|--- .... ....|--- .... ....
 F-4|..|--- .... ....|F-2 .F.A ....|--- .... ....
....|..|--- .... ....|R-- .... ....|--- .... ....

[Pattern3]
 A#3|..|--- .... ....|A#1 .A.F ....|--- .... ....
....|..|--- .... ....|R-- .... ....|--- .... ....
 F-4|..|--- .... ....|F-2 .F.A ....|--- .... ....
....|..|--- .... ....|R-- .... ....|--- .... ....
 A#3|..|--- .... ....|A#1 .A.F ....|--- .... ....
....|..|--- .... ....|--- .... ....|--- .... ....
 D#4|..|--- .... ....|D#2 .F.7 ....|--- .... ....
....|..|--- .... ....|R-- .... ....|--- .... ....
 A#3|..|--- .... ....|A#1 .A.F ....|--- .... ....
....|..|--- .... ....|--- .... ....|--- .... ....
 F-4|..|--- .... ....|F-2 .F.7 ....|--- .... ....
....|..|--- .... ....|R-- .... ....|--- .... ....
 D-4|..|--- .... ....|D-2 .A.F ....|--- .... ....
....|..|--- .... ....|R-- .... ....|--- .... ....
 F-4|..|--- .... ....|F-2 .F.7 ....|--- .... ....
....|..|--- .... ....|R-- .... ....|--- .... ....
 D#4|..|--- .... ....|D#2 .A.F ....|--- .... ....
....|..|--- .... ....|--- .... ....|--- .... ....
 D#4|..|--- .... ....|D#2 .A.F ....|--- .... ....
....|..|--- .... ....|R-- .... ....|--- .... ....
 C-4|..|--- .... ....|C-2 .F.7 ....|--- .... ....
....|..|--- .... ....|R-- .... ....|--- .... ....
 D#4|..|--- .... ....|D#2 .A.F ....|--- .... ....
....|..|--- .... ....|R-- .... ....|--- .... ....
 D#4|..|--- .... ....|D#2 .A.F ....|--- .... ....
....|..|--- .... ....|--- .... ....|--- .... ....
....|..|--- .... ....|--- .... ....|--- .... ....
....|..|--- .... ....|R-- .... ....|--- .... ....
 D-4|..|--- .... ....|D-2 .A.F ....|--- .... ....
....|..|--- .... ....|--- .... ....|--- .... ....
 D#4|..|--- .... ....|D#2 .F.A ....|--- .... ....
....|..|--- .... ....|R-- .... ....|--- .... ....
 C-4|..|--- .... ....|C-2 .A.F ....|--- .... ....
....|..|--- .... ....|R-- .... ....|--- .... ....
 D#4|..|--- .... ....|D#2 .F.A ....|--- .... ....
....|..|--- .... ....|R-- .... ....|--- .... ....
 C-4|..|--- .... ....|C-2 .A.F ....|--- .... ....
....|..|--- .... ....|--- .... ....|--- .... ....
....|..|--- .... ....|--- .... ....|--- .... ....
....|..|--- .... ....|R-- .... ....|--- .... ....
 C-4|..|--- .... ....|C-2 .A.F ....|--- .... ....
....|..|--- .... ....|--- .... ....|--- .... ....
 D#4|..|--- .... ....|D#2 .F.7 ....|--- .... ....
....|..|--- .... ....|R-- .... ....|--- .... ....
 D-4|..|--- .... ....|D-2 .A.F ....|--- .... ....
....|..|--- .... ....|R-- .... ....|--- .... ....
 D#4|..|--- .... ....|D#2 .A.F ....|--- .... ....
....|..|--- .... ....|R-- .... ....|--- .... ....
 F-4|..|--- .... ....|F-2 .A.F ....|--- .... ....
....|..|--- .... ....|--- .... ....|--- .... ....
 F-4|..|--- .... ....|F-2 .A.F ....|--- .... ....
....|..|--- .... ....|R-- .... ....|--- .... ....
 D-4|..|--- .... ....|D-2 .F.7 ....|--- .... ....
....|..|--- .... ....|R-- .... ....|--- .... ....
 F-4|..|--- .... ....|F-2 .A.F ....|--- .... ....
....|..|--- .... ....|R-- .... ....|--- .... ....
 D#4|..|--- .... ....|D#2 .A.F ....|--- .... ....
....|..|--- .... ....|--- .... ....|--- .... ....
 D#4|..|--- .... ....|D#2 .F.A ....|--- .... ....
....|..|--- .... ....|R-- .... ....|--- .... ....
 C-4|..|--- .... ....|C-2 .A.F ....|--- .... ....
....|..|--- .... ....|--- .... ....|--- .... ....
 F-4|..|--- .... ....|F-2 .F.A ....|--- .... ....
....|..|--- .... ....|R-- .... ....|--- .... ....

[Pattern4]
 A#3|..|--- .... ....|A#1 .A.F ....|--- .... ....
....|..|--- .... ....|R-- .... ....|--- .... ....
 F-4|..|--- .... ....|F-2 .F.A ....|--- .... ....
....|..|--- .... ....|R-- .... ....|--- .... ....
 A#3|..|--- .... ....|A#1 .A.F ....|--- .... ....
....|..|--- .... ....|--- .... ....|--- .... ....
 D#4|..|--- .... ....|D#2 .F.7 ....|--- .... ....
....|..|--- .... ....|R-- .... ....|--- .... ....
 A#3|..|--- .... ....|A#1 .A.F ....|--- .... ....
....|..|--- .... ....|--- .... ....|--- .... ....
 F-4|..|--- .... ....|F-2 .F.7 ....|--- .... ....
....|..|--- .... ....|R-- .... ....|--- .... ....
 A#3|..|--- .... ....|A#1 .A.F ....|--- .... ....
....|..|--- .... ....|R-- .... ....|--- .... ....
 F-4|..|--- .... ....|F-2 .F.7 ....|--- .... ....
....|..|--- .... ....|R-- .... ....|--- .... ....
 C-4|..|--- .... ....|C-2 .A.F ....|--- .... ....
....|..|--- .... ....|--- .... ....|--- .... ....
....|..|--- .... ....|--- .... ....|--- .... ....
....|..|--- .... ....|R-- .... ....|--- .... ....
 C-4|..|--- .... ....|C-2 .A.F ....|--- .... ....
....|..|--- .... ....|--- .... ....|--- .... ....
....|..|--- .... ....|--- .... ....|--- .... ....
....|..|--- .... ....|R-- .... ....|--- .... ....
 C-4|..|--- .... ....|C-2 .A.F ....|--- .... ....
....|..|--- .... ....|--- .... ....|--- .... ....
....|..|--- .... ....|--- .... ....|--- .... ....
....|..|--- .... ....|R-- .... ....|--- .... ....
 C-4|..|--- .... ....|C-2 .A.F ....|--- .... ....
....|..|--- .... ....|--- .... ....|--- .... ....
....|..|--- .... ....|--- .... ....|--- .... ....
....|..|--- .... ....|R-- .... ....|--- .... ....
 D#4|..|--- .... ....|D#2 .A.F ....|A#3 .F1F ....
....|..|--- .... ....|--- .... ....|--- .... ....
....|..|--- .... ....|--- .... ....|--- .... ....
....|..|--- .... ....|R-- .... ....|--- .... ....
 A#3|..|--- .... ....|A#1 .F.7 ....|--- .... ....
....|..|--- .... ....|--- .... ....|--- .... ....
....|..|--- .... ....|--- .... ....|--- .... ....
....|..|--- .... ....|R-- .... ....|--- .... ....
 C-4|..|D#4 ...F ....|C-2 .F.7 ....|--- .... ....
....|..|--- .... ....|--- .... ....|--- .... ....
....|..|--- .... ....|--- .... ....|--- .... ....
....|..|--- .... ....|R-- .... ....|--- .... ....
 C-4|..|D#4 ...F ....|C-2 .F.7 ....|A#3 .F1A ....
....|..|A#3 ...F ....|--- .... ....|--- .... ....
....|..|A#3 ...F ....|--- .... ....|--- .... ....
....|..|--- .... ....|R-- .... ....|--- .... ....
 C-4|..|--- .... ....|C-2 .F.7 ....|--- .... ....
....|..|--- .... ....|--- .... ....|--- .... ....
....|..|--- .... ....|--- .... ....|--- .... ....
....|..|--- .... ....|R-- .... ....|--- .... ....
 C-4|..|R-- .... ....|C-2 .F.7 ....|--- .... ....
....|..|--- .... ....|--- .... ....|--- .... ....
....|..|--- .... ....|--- .... ....|--- .... ....
....|..|--- .... ....|R-- .... ....|--- .... ....
 D#4|..|D#4 ...A ....|D#2 .F.7 ....|A#3 .F17 ....
....|..|A#3 ...A ....|--- .... ....|--- .... ....
....|..|A#3 ...A ....|--- .... ....|--- .... ....
....|..|--- .... ....|--- .... ....|--- .... ....
....|..|D#4 ...F ....|--- .... ....|--- .... ....
....|..|--- .... ....|--- .... ....|--- .... ....
....|..|--- .... ....|--- .... ....|--- .... ....
....|..|R-- .... ....|--- .... ....|--- .... ....

[Pattern5]
 A#3|..|D#4 ...F ....|A#1 .A.F ....|A#3 .F2F ....
....|..|--- .... ....|--- .... ....|--- .... ....
....|..|--- .... ....|--- .... ....|--- .... ....
....|..|--- .... ....|--- .... ....|--- .... ....
....|..|D#4 ...7 ....|--- .... ....|--- .... ....
....|..|A#3 ...7 ....|--- .... ....|--- .... ....
....|..|F-4 ...F ....|--- .... ....|--- .... ....
....|..|--- .... ....|--- .... ....|--- .... ....
....|..|D#4 ...A ....|--- .... ....|--- .... ....
....|..|--- .... ....|--- .... ....|--- .... ....
....|..|--- .... ....|--- .... ....|--- .... ....
....|..|R-- .... ....|--- .... ....|--- .... ....
 A#3|..|A#3 ...F ....|A#1 .F.A ....|A#3 .F2A ....
....|..|--- .... ....|--- .... ....|--- .... ....
....|..|--- .... ....|--- .... ....|--- .... ....
....|..|--- .... ....|--- .... ....|--- .... ....
....|..|A#3 ...F ....|--- .... ....|--- .... ....
....|..|--- .... ....|--- .... ....|--- .... ....
....|..|F-4 ...A ....|--- .... ....|--- .... ....
....|..|--- .... ....|--- .... ....|--- .... ....
....|..|D#4 ...7 ....|--- .... ....|--- .... ....
....|..|--- .... ....|--- .... ....|--- .... ....
....|..|--- .... ....|--- .... ....|--- .... ....
....|..|R-- .... ....|--- .... ....|--- .... ....
 A#3|..|D#4 ...7 ....|A#1 .F.7 ....|A#3 .F27 ....
....|..|--- .... ....|--- .... ....|--- .... ....
....|..|--- .... ....|--- .... ....|--- .... ....
....|..|--- .... ....|--- .... ....|--- .... ....
....|..|A#3 ...F ....|--- .... ....|--- .... ....
....|..|--- .... ....|--- .... ....|--- .... ....
....|..|F-4 ...7 ....|--- .... ....|--- .... ....
....|..|--- .... ....|--- .... ....|--- .... ....
 C-4|..|G-4 ...F ....|C-2 .A.F ....|C-4 .F3F ....
....|..|--- .... ....|--- .... ....|--- .... ....
....|..|--- .... ....|--- .... ....|--- .... ....
....|..|--- .... ....|--- .... ....|--- .... ....
....|..|A#3 ...7 ....|--- .... ....|--- .... ....
....|..|--- .... ....|--- .... ....|--- .... ....
....|..|G#4 ...F ....|--- .... ....|--- .... ....
....|..|--- .... ....|--- .... ....|--- .... ....
....|..|A#3 ...7 ....|--- .... ....|--- .... ....
....|..|--- .... ....|--- .... ....|--- .... ....
....|..|--- .... ....|--- .... ....|--- .... ....
....|..|--- .... ....|--- .... ....|--- .... ....
 C-4|..|G-4 ...F ....|C-2 .F.A ....|C-4 .F3A ....
....|..|--- .... ....|--- .... ....|--- .... ....
....|..|--- .... ....|--- .... ....|--- .... ....
....|..|--- .... ....|--- .... ....|--- .... ....
 A#3|..|F-4 ...F ....|A#1 .A.F ....|D-4 .F4F ....
....|..|--- .... ....|--- .... ....|--- .... ....
....|..|G#4 ...A ....|--- .... ....|--- .... ....
....|..|--- .... ....|--- .... ....|--- .... ....
....|..|A#3 ...7 ....|--- .... ....|--- .... ....
....|..|--- .... ....|--- .... ....|--- .... ....
....|..|D#4 ...F ....|--- .... ....|--- .... ....
....|..|--- .... ....|--- .... ....|--- .... ....
 C-4|..|G-4 ...7 ....|C-2 .F.7 ....|C-4 .F37 ....
....|..|--- .... ....|--- .... ....|--- .... ....
....|..|--- .... ....|--- .... ....|--- .... ....
....|..|--- .... ....|--- .... ....|--- .... ....
 A#3|..|F-4 ...F ....|A#1 .F.A ....|D-4 .F4A ....
....|..|--- .... ....|--- .... ....|--- .... ....
....|..|G#4 ...7 ....|--- .... ....|--- .... ....
....|..|--- .... ....|--- .... ....|--- .... ....

[Pattern6]
 G#3|..|G-4 ...F ....|G#1 .A.F ....|C-4 .F3F ....
....|..|--- .... ....|--- .... ....|--- .... ....
....|..|D#4 ...A ....|--- .... ....|--- .... ....
....|..|--- .... ....|--- .... ....|--- .... ....
....|..|G-4 ...7 ....|--- .... ....|--- .... ....
....|..|--- .... ....|--- .... ....|--- .... ....
....|..|G#4 ...F ....|--- .... ....|--- .... ....
....|..|--- .... ....|--- .... ....|--- .... ....
 A#3|..|F-4 ...7 ....|A#1 .F.7 ....|D-4 .F47 ....
....|..|--- .... ....|--- .... ....|--- .... ....
....|..|--- .... ....|--- .... ....|--- .... ....
....|..|--- .... ....|--- .... ....|--- .... ....
 G#3|..|G-4 ...F ....|G#1 .F.A ....|C-4 .F3A ....
....|..|--- .... ....|--- .... ....|--- .... ....
....|..|D#4 ...7 ....|--- .... ....|--- .... ....
....|..|--- .... ....|--- .... ....|--- .... ....
....|..|C-4 ...F ....|--- .... ....|--- .... ....
....|..|--- .... ....|--- .... ....|--- .... ....
....|..|G#4 ...A ....|--- .... ....|--- .... ....
....|..|--- .... ....|--- .... ....|--- .... ....
....|..|F-4 ...7 ....|--- .... ....|--- .... ....
....|..|R-- .... ....|--- .... ....|--- .... ....
....|..|--- .... ....|--- .... ....|--- .... ....
....|..|--- .... ....|--- .... ....|--- .... ....
 G#3|..|G-4 ...7 ....|G#1 .F.7 ....|C-4 .F37 ....
....|..|--- .... ....|--- .... ....|--- .... ....
....|..|--- .... ....|--- .... ....|--- .... ....
....|..|--- .... ....|--- .... ....|--- .... ....
....|..|C-4 ...F ....|--- .... ....|--- .... ....
....|..|--- .... ....|--- .... ....|--- .... ....
....|..|D-4 ...F ....|--- .... ....|--- .... ....
....|..|--- .... ....|--- .... ....|--- .... ....
 A#3|..|D#4 ...F ....|A#1 .A.F ....|A#3 .F5F ....
....|..|R-- .... ....|--- .... ....|--- .... ....
....|..|--- .... ....|--- .... ....|--- .... ....
....|..|--- .... ....|--- .... ....|--- .... ....
....|..|G-4 ...7 ....|--- .... ....|--- .... ....
....|..|--- .... ....|--- .... ....|--- .... ....
....|..|D#4 ...F ....|--- .... ....|--- .... ....
....|..|--- .... ....|--- .... ....|--- .... ....
....|..|C-4 ...7 ....|--- .... ....|--- .... ....
....|..|--- .... ....|--- .... ....|--- .... ....
....|..|D-4 ...A ....|--- .... ....|--- .... ....
....|..|--- .... ....|--- .... ....|--- .... ....
 A#3|..|D-4 ...F ....|A#1 .F.A ....|A#3 .F5A ....
....|..|R-- .... ....|--- .... ....|--- .... ....
....|..|--- .... ....|--- .... ....|--- .... ....
....|..|--- .... ....|--- .... ....|--- .... ....
 A#3|..|D-4 ...F ....|A#1 .A.F ....|A#3 .F2F ....
....|..|--- .... ....|--- .... ....|--- .... ....
....|..|D#4 ...A ....|--- .... ....|--- .... ....
....|..|--- .... ....|--- .... ....|--- .... ....
....|..|C-4 ...7 ....|--- .... ....|--- .... ....
....|..|--- .... ....|--- .... ....|--- .... ....
....|..|D-4 ...7 ....|--- .... ....|--- .... ....
....|..|--- .... ....|--- .... ....|--- .... ....
 A#3|..|D#4 ...7 ....|A#1 .F.7 ....|A#3 .F57 ....
....|..|--- .... ....|--- .... ....|--- .... ....
....|..|--- .... ....|--- .... ....|--- .... ....
....|..|--- .... ....|--- .... ....|--- .... ....
 A#3|..|D#4 ...F ....|A#1 .F.A ....|A#3 .F2A ....
....|..|--- .... ....|--- .... ....|--- .... ....
....|..|F-4 ...F ....|--- .... ....|--- .... ....
....|..|--- .... ....|--- .... ....|--- .... ....

[Pattern7]
 D#4|..|G#4 ...F ....|D#2 .A.F ....|A#3 .F6F ....
....|..|--- .... ....|--- .... ....|--- .... ....
....|..|R-- .... ....|--- .... ....|--- .... ....
....|..|--- .... ....|--- .... ....|--- .... ....
....|..|D-4 ...7 ....|--- .... ....|--- .... ....
....|..|--- .... ....|--- .... ....|--- .... ....
....|..|G-4 ...F ....|--- .... ....|--- .... ....
....|..|--- .... ....|--- .... ....|--- .... ....
 A#3|..|D-4 ...7 ....|A#1 .F.7 ....|A#3 .F27 ....
....|..|--- .... ....|--- .... ....|--- .... ....
....|..|F-4 ...A ....|--- .... ....|--- .... ....
....|..|--- .... ....|--- .... ....|--- .... ....
 D#4|..|F-4 ...F ....|D#2 .F.A ....|A#3 .F6A ....
....|..|--- .... ....|--- .... ....|--- .... ....
....|..|R-- .... ....|--- .... ....|--- .... ....
....|..|--- .... ....|--- .... ....|--- .... ....
 C-4|..|D#4 ...F ....|C-2 .A.F ....|C-4 .F3F ....
....|..|--- .... ....|--- .... ....|--- .... ....
....|..|G-4 ...A ....|--- .... ....|--- .... ....
....|..|--- .... ....|--- .... ....|--- .... ....
....|..|D#4 ...7 ....|--- .... ....|--- .... ....
....|..|--- .... ....|--- .... ....|--- .... ....
....|..|F-4 ...7 ....|--- .... ....|--- .... ....
....|..|--- .... ....|--- .... ....|--- .... ....
 D#4|..|G#4 ...7 ....|D#2 .F.7 ....|A#3 .F67 ....
....|..|--- .... ....|--- .... ....|--- .... ....
....|..|--- .... ....|--- .... ....|--- .... ....
....|..|--- .... ....|--- .... ....|--- .... ....
 C-4|..|G-4 ...F ....|C-2 .F.A ....|C-4 .F3A ....
....|..|--- .... ....|--- .... ....|--- .... ....
....|..|G-4 ...7 ....|--- .... ....|--- .... ....
....|..|--- .... ....|--- .... ....|--- .... ....
 D-4|..|G-4 ...F ....|D-2 .A.F ....|A-3 .F6F ....
....|..|--- .... ....|--- .... ....|--- .... ....
....|..|R-- .... ....|--- .... ....|--- .... ....
....|..|--- .... ....|--- .... ....|--- .... ....
....|..|F-4 ...7 ....|--- .... ....|--- .... ....
....|..|--- .... ....|--- .... ....|--- .... ....
....|..|F-4 ...F ....|--- .... ....|--- .... ....
....|..|--- .... ....|--- .... ....|--- .... ....
 C-4|..|D#4 ...7 ....|C-2 .F.7 ....|C-4 .F37 ....
....|..|--- .... ....|--- .... ....|--- .... ....
....|..|--- .... ....|--- .... ....|--- .... ....
....|..|--- .... ....|--- .... ....|--- .... ....
 D-4|..|E-4 ...F ....|D-2 .F.A ....|A-3 .F6A ....
....|..|--- .... ....|--- .... ....|--- .... ....
....|..|R-- .... ....|--- .... ....|--- .... ....
....|..|--- .... ....|--- .... ....|--- .... ....
....|..|F-4 ...F ....|--- .... ....|--- .... ....
....|..|--- .... ....|--- .... ....|--- .... ....
....|..|F-4 ...A ....|--- .... ....|--- .... ....
....|..|--- .... ....|--- .... ....|--- .... ....
....|..|G-4 ...7 ....|--- .... ....|--- .... ....
....|..|--- .... ....|--- .... ....|--- .... ....
....|..|--- .... ....|--- .... ....|--- .... ....
....|..|--- .... ....|--- .... ....|--- .... ....
 D-4|..|C-4 ...F ....|D-2 .F.7 ....|A-3 .F67 ....
....|..|--- .... ....|--- .... ....|--- .... ....
....|..|--- .... ....|--- .... ....|--- .... ....
....|..|--- .... ....|--- .... ....|--- .... ....
....|..|F-4 ...A ....|--- .... ....|--- .... ....
....|..|--- .... ....|--- .... ....|--- .... ....
....|..|F-4 ...7 ....|--- .... ....|--- .... ....
....|..|--- .... ....|--- .... ....|--- .... ....

[Pattern8]
 G-3|..|C-4 ...F ....|G-1 .A.F ....|C-4 .F7F ....
....|..|--- .... ....|--- .... ....|--- .... ....
....|..|--- .... ....|--- .... ....|--- .... ....
....|..|--- .... ....|--- .... ....|--- .... ....
....|..|E-4 ...7 ....|--- .... ....|--- .... ....
....|..|--- .... ....|--- .... ....|--- .... ....
....|..|--- .... ....|--- .... ....|--- .... ....
....|..|--- .... ....|--- .... ....|--- .... ....
....|..|F-4 ...7 ....|--- .... ....|--- .... ....
....|..|--- .... ....|--- .... ....|--- .... ....
....|..|--- .... ....|--- .... ....|--- .... ....
....|..|--- .... ....|--- .... ....|--- .... ....
 G-3|..|D-4 ...F ....|G-1 .F.A ....|C-4 .F7A ....
....|..|--- .... ....|--- .... ....|--- .... ....
....|..|--- .... ....|--- .... ....|--- .... ....
....|..|--- .... ....|--- .... ....|--- .... ....
 G-4|..|D-4 ...F ....|G-2 .A.F ....|B-3 .F8F ....
....|..|--- .... ....|--- .... ....|--- .... ....
....|..|--- .... ....|--- .... ....|--- .... ....
....|..|--- .... ....|--- .... ....|--- .... ....
....|..|--- .... ....|--- .... ....|--- .... ....
....|..|--- .... ....|--- .... ....|--- .... ....
....|..|--- .... ....|--- .... ....|--- .... ....
....|..|--- .... ....|--- .... ....|--- .... ....
 G-3|..|C-4 ...7 ....|G-1 .F.7 ....|C-4 .F77 ....
....|..|--- .... ....|--- .... ....|--- .... ....
....|..|--- .... ....|--- .... ....|--- .... ....
....|..|--- .... ....|--- .... ....|--- .... ....
 G-4|..|D-4 ...A ....|G-2 .F.A ....|B-3 .F8A ....
....|..|--- .... ....|--- .... ....|--- .... ....
....|..|--- .... ....|--- .... ....|--- .... ....
....|..|--- .... ....|--- .... ....|--- .... ....
 D#4|..|--- .... ....|D#2 .A.F ....|A#3 .F1F ....
....|..|--- .... ....|--- .... ....|--- .... ....
....|..|--- .... ....|--- .... ....|--- .... ....
....|..|--- .... ....|--- .... ....|--- .... ....
....|..|D-4 ...7 ....|--- .... ....|--- .... ....
....|..|--- .... ....|--- .... ....|--- .... ....
....|..|--- .... ....|--- .... ....|--- .... ....
....|..|--- .... ....|--- .... ....|--- .... ....
 G-4|..|D#4 ...F ....|G-2 .F.7 ....|B-3 .F87 ....
....|..|--- .... ....|--- .... ....|--- .... ....
....|..|--- .... ....|--- .... ....|--- .... ....
....|..|--- .... ....|--- .... ....|--- .... ....
 D#4|..|R-- .... ....|D#2 .F.A ....|A#3 .F1A ....
....|..|--- .... ....|--- .... ....|--- .... ....
....|..|A#3 ...F ....|--- .... ....|--- .... ....
....|..|--- .... ....|--- .... ....|--- .... ....
....|..|R-- .... ....|--- .... ....|--- .... ....
....|..|R-- .... ....|--- .... ....|--- .... ....
....|..|--- .... ....|--- .... ....|--- .... ....
....|..|--- .... ....|--- .... ....|--- .... ....
....|..|D#4 ...A ....|--- .... ....|--- .... ....
....|..|--- .... ....|--- .... ....|--- .... ....
....|..|--- .... ....|--- .... ....|--- .... ....
....|..|--- .... ....|--- .... ....|--- .... ....
 D#4|..|R-- .... ....|D#2 .F.7 ....|A#3 .F17 ....
....|..|--- .... ....|--- .... ....|--- .... ....
....|..|A#3 ...A ....|--- .... ....|--- .... ....
....|..|--- .... ....|--- .... ....|--- .... ....
....|..|D#4 ...F ....|--- .... ....|--- .... ....
....|..|R-- .... ....|--- .... ....|--- .... ....
....|..|--- .... ....|--- .... ....|--- .... ....
....|..|R-- .... ....|--- .... ....|--- .... ....

[Pattern9]
 A#3|..|D#4 ...F ....|A#1 .A.F ....|A#3 .F2F ....
....|..|--- .... ....|--- .... ....|--- .... ....
....|..|--- .... ....|--- .... ....|--- .... ....
....|..|--- .... ....|--- .... ....|--- .... ....
....|..|R-- .... ....|--- .... ....|--- .... ....
....|..|--- .... ....|--- .... ....|--- .... ....
....|..|F-4 ...F ....|--- .... ....|--- .... ....
....|..|--- .... ....|--- .... ....|--- .... ....
....|..|D#4 ...A ....|--- .... ....|--- .... ....
....|..|R-- .... ....|--- .... ....|--- .... ....
....|..|--- .... ....|--- .... ....|--- .... ....
....|..|R-- .... ....|--- .... ....|--- .... ....
 A#3|..|A#3 ...F ....|A#1 .F.A ....|A#3 .F2A ....
....|..|--- .... ....|--- .... ....|--- .... ....
....|..|--- .... ....|--- .... ....|--- .... ....
....|..|--- .... ....|--- .... ....|--- .... ....
....|..|A#3 ...F ....|--- .... ....|--- .... ....
....|..|--- .... ....|--- .... ....|--- .... ....
....|..|F-4 ...A ....|--- .... ....|--- .... ....
....|..|--- .... ....|--- .... ....|--- .... ....
....|..|D#4 ...7 ....|--- .... ....|--- .... ....
....|..|--- .... ....|--- .... ....|--- .... ....
....|..|--- .... ....|--- .... ....|--- .... ....
....|..|R-- .... ....|--- .... ....|--- .... ....
 A#3|..|D#4 ...7 ....|A#1 .F.7 ....|A#3 .F27 ....
....|..|--- .... ....|--- .... ....|--- .... ....
....|..|--- .... ....|--- .... ....|--- .... ....
....|..|--- .... ....|--- .... ....|--- .... ....
....|..|A#3 ...F ....|--- .... ....|--- .... ....
....|..|--- .... ....|--- .... ....|--- .... ....
....|..|F-4 ...7 ....|--- .... ....|--- .... ....
....|..|--- .... ....|--- .... ....|--- .... ....
 C-4|..|G-4 ...F ....|C-2 .A.F ....|C-4 .F3F ....
....|..|--- .... ....|--- .... ....|--- .... ....
....|..|--- .... ....|--- .... ....|--- .... ....
....|..|--- .... ....|--- .... ....|--- .... ....
....|..|A#3 ...7 ....|--- .... ....|--- .... ....
....|..|--- .... ....|--- .... ....|--- .... ....
....|..|G#4 ...F ....|--- .... ....|--- .... ....
....|..|--- .... ....|--- .... ....|--- .... ....
....|..|A#3 ...7 ....|--- .... ....|--- .... ....
....|..|--- .... ....|--- .... ....|--- .... ....
....|..|--- .... ....|--- .... ....|--- .... ....
....|..|--- .... ....|--- .... ....|--- .... ....
 C-4|..|G-4 ...F ....|C-2 .F.A ....|C-4 .F3A ....
....|..|--- .... ....|--- .... ....|--- .... ....
....|..|--- .... ....|--- .... ....|--- .... ....
....|..|--- .... ....|--- .... ....|--- .... ....
 A#3|..|F-4 ...F ....|A#1 .A.F ....|D-4 .F4F ....
....|..|--- .... ....|--- .... ....|--- .... ....
....|..|G#4 ...A ....|--- .... ....|--- .... ....
....|..|--- .... ....|--- .... ....|--- .... ....
....|..|A#3 ...7 ....|--- .... ....|--- .... ....
....|..|--- .... ....|--- .... ....|--- .... ....
....|..|D#4 ...F ....|--- .... ....|--- .... ....
....|..|--- .... ....|--- .... ....|--- .... ....
 C-4|..|G-4 ...7 ....|C-2 .F.7 ....|C-4 .F37 ....
....|..|--- .... ....|--- .... ....|--- .... ....
....|..|--- .... ....|--- .... ....|--- .... ....
....|..|--- .... ....|--- .... ....|--- .... ....
 A#3|..|F-4 ...F ....|A#1 .F.A ....|D-4 .F4A ....
....|..|--- .... ....|--- .... ....|--- .... ....
....|..|G#4 ...7 ....|--- .... ....|--- .... ....
....|..|--- .... ....|--- .... ....|--- .... ....

[Pattern10]
 G#3|..|G-4 ...F ....|G#1 .A.F ....|C-4 .F3F ....
....|..|--- .... ....|--- .... ....|--- .... ....
....|..|D#4 ...A ....|--- .... ....|--- .... ....
....|..|--- .... ....|--- .... ....|--- .... ....
....|..|G-4 ...7 ....|--- .... ....|--- .... ....
....|..|--- .... ....|--- .... ....|--- .... ....
....|..|G#4 ...F ....|--- .... ....|--- .... ....
....|..|--- .... ....|--- .... ....|--- .... ....
 A#3|..|F-4 ...7 ....|A#1 .F.7 ....|D-4 .F47 ....
....|..|--- .... ....|--- .... ....|--- .... ....
....|..|--- .... ....|--- .... ....|--- .... ....
....|..|--- .... ....|--- .... ....|--- .... ....
 G#3|..|G-4 ...F ....|G#1 .F.A ....|C-4 .F3A ....
....|..|--- .... ....|--- .... ....|--- .... ....
....|..|D#4 ...7 ....|--- .... ....|--- .... ....
....|..|--- .... ....|--- .... ....|--- .... ....
....|..|C-4 ...F ....|--- .... ....|--- .... ....
....|..|--- .... ....|--- .... ....|--- .... ....
....|..|G#4 ...A ....|--- .... ....|--- .... ....
....|..|--- .... ....|--- .... ....|--- .... ....
....|..|F-4 ...7 ....|--- .... ....|--- .... ....
....|..|--- .... ....|--- .... ....|--- .... ....
....|..|R-- .... ....|--- .... ....|--- .... ....
....|..|--- .... ....|--- .... ....|--- .... ....
 G#3|..|G-4 ...7 ....|G#1 .F.7 ....|C-4 .F37 ....
....|..|--- .... ....|--- .... ....|--- .... ....
....|..|--- .... ....|--- .... ....|--- .... ....
....|..|--- .... ....|--- .... ....|--- .... ....
....|..|C-4 ...F ....|--- .... ....|--- .... ....
....|..|--- .... ....|--- .... ....|--- .... ....
....|..|D-4 ...F ....|--- .... ....|--- .... ....
....|..|--- .... ....|--- .... ....|--- .... ....
 A#3|..|D#4 ...F ....|A#1 .A.F ....|A#3 .F5F ....
....|..|--- .... ....|--- .... ....|--- .... ....
....|..|R-- .... ....|--- .... ....|--- .... ....
....|..|--- .... ....|--- .... ....|--- .... ....
....|..|G-4 ...7 ....|--- .... ....|--- .... ....
....|..|--- .... ....|--- .... ....|--- .... ....
....|..|D#4 ...F ....|--- .... ....|--- .... ....
....|..|--- .... ....|--- .... ....|--- .... ....
....|..|C-4 ...7 ....|--- .... ....|--- .... ....
....|..|--- .... ....|--- .... ....|--- .... ....
....|..|D-4 ...A ....|--- .... ....|--- .... ....
....|..|--- .... ....|--- .... ....|--- .... ....
 A#3|..|D-4 ...F ....|A#1 .F.A ....|A#3 .F5A ....
....|..|--- .... ....|--- .... ....|--- .... ....
....|..|R-- .... ....|--- .... ....|--- .... ....
....|..|--- .... ....|--- .... ....|--- .... ....
 A#3|..|D-4 ...F ....|A#1 .A.F ....|A#3 .F2F ....
....|..|--- .... ....|--- .... ....|--- .... ....
....|..|D#4 ...A ....|--- .... ....|--- .... ....
....|..|--- .... ....|--- .... ....|--- .... ....
....|..|C-4 ...7 ....|--- .... ....|--- .... ....
....|..|--- .... ....|--- .... ....|--- .... ....
....|..|D-4 ...7 ....|--- .... ....|--- .... ....
....|..|--- .... ....|--- .... ....|--- .... ....
 A#3|..|D#4 ...7 ....|A#1 .F.7 ....|A#3 .F57 ....
....|..|--- .... ....|--- .... ....|--- .... ....
....|..|--- .... ....|--- .... ....|--- .... ....
....|..|--- .... ....|--- .... ....|--- .... ....
 A#3|..|D#4 ...F ....|A#1 .F.A ....|A#3 .F2A ....
....|..|--- .... ....|--- .... ....|--- .... ....
....|..|F-4 ...F ....|--- .... ....|--- .... ....
....|..|--- .... ....|--- .... ....|--- .... ....

[Pattern11]
 D#4|..|G#4 ...F ....|D#2 .A.F ....|A#3 .F6F ....
....|..|--- .... ....|--- .... ....|--- .... ....
....|..|R-- .... ....|--- .... ....|--- .... ....
....|..|--- .... ....|--- .... ....|--- .... ....
....|..|D-4 ...7 ....|--- .... ....|--- .... ....
....|..|--- .... ....|--- .... ....|--- .... ....
....|..|G-4 ...F ....|--- .... ....|--- .... ....
....|..|--- .... ....|--- .... ....|--- .... ....
 A#3|..|D-4 ...7 ....|A#1 .F.7 ....|A#3 .F27 ....
....|..|--- .... ....|--- .... ....|--- .... ....
....|..|F-4 ...A ....|--- .... ....|--- .... ....
....|..|--- .... ....|--- .... ....|--- .... ....
 D#4|..|F-4 ...F ....|D#2 .F.A ....|A#3 .F6A ....
....|..|--- .... ....|--- .... ....|--- .... ....
....|..|R-- .... ....|--- .... ....|--- .... ....
....|..|--- .... ....|--- .... ....|--- .... ....
 C-4|..|D#4 ...F ....|C-2 .A.F ....|C-4 .F3F ....
....|..|--- .... ....|--- .... ....|--- .... ....
....|..|G-4 ...A ....|--- .... ....|--- .... ....
....|..|--- .... ....|--- .... ....|--- .... ....
....|..|D#4 ...7 ....|--- .... ....|--- .... ....
....|..|--- .... ....|--- .... ....|--- .... ....
....|..|F-4 ...7 ....|--- .... ....|--- .... ....
....|..|--- .... ....|--- .... ....|--- .... ....
 D#4|..|G#4 ...7 ....|D#2 .F.7 ....|A#3 .F67 ....
....|..|--- .... ....|--- .... ....|--- .... ....
....|..|--- .... ....|--- .... ....|--- .... ....
....|..|--- .... ....|--- .... ....|--- .... ....
 C-4|..|G-4 ...F ....|C-2 .F.A ....|C-4 .F3A ....
....|..|--- .... ....|--- .... ....|--- .... ....
....|..|G-4 ...7 ....|--- .... ....|--- .... ....
....|..|--- .... ....|--- .... ....|--- .... ....
 D-4|..|G-4 ...F ....|D-2 .A.F ....|C-4 .F1F ....
....|..|--- .... ....|--- .... ....|--- .... ....
....|..|R-- .... ....|--- .... ....|--- .... ....
....|..|--- .... ....|--- .... ....|--- .... ....
....|..|F-4 ...7 ....|--- .... ....|--- .... ....
....|..|--- .... ....|--- .... ....|--- .... ....
....|..|F-4 ...F ....|--- .... ....|--- .... ....
....|..|--- .... ....|--- .... ....|--- .... ....
 C-4|..|D#4 ...7 ....|C-2 .F.7 ....|C-4 .F37 ....
....|..|--- .... ....|--- .... ....|--- .... ....
....|..|--- .... ....|--- .... ....|--- .... ....
....|..|--- .... ....|--- .... ....|--- .... ....
 D-4|..|E-4 ...F ....|D-2 .F.A ....|C-4 .F1A ....
....|..|--- .... ....|--- .... ....|--- .... ....
....|..|R-- .... ....|--- .... ....|--- .... ....
....|..|--- .... ....|--- .... ....|--- .... ....
....|..|F-4 ...F ....|--- .... ....|D-4 .F9F ....
....|..|--- .... ....|--- .... ....|--- .... ....
....|..|F-4 ...A ....|--- .... ....|--- .... ....
....|..|--- .... ....|--- .... ....|--- .... ....
....|..|G-4 ...7 ....|--- .... ....|--- .... ....
....|..|--- .... ....|--- .... ....|--- .... ....
....|..|G-4 ...F ....|--- .... ....|--- .... ....
....|..|--- .... ....|--- .... ....|--- .... ....
 D-4|..|G-4 ...7 ....|D-2 .F.7 ....|C-4 .F17 ....
....|..|--- .... ....|--- .... ....|--- .... ....
....|..|--- .... ....|--- .... ....|--- .... ....
....|..|--- .... ....|--- .... ....|--- .... ....
....|..|G#4 ...F ....|--- .... ....|D-4 .F9A ....
....|..|--- .... ....|--- .... ....|--- .... ....
....|..|F-4 ...7 ....|--- .... ....|--- .... ....
....|..|--- .... ....|--- .... ....|--- .... ....

[Pattern12]
 G-3|..|G-4 ...F ....|G-1 .A.F ....|D-4 .F6F ....
....|..|--- .... ....|--- .... ....|--- .... ....
....|..|G-4 ...A ....|--- .... ....|--- .... ....
....|..|--- .... ....|--- .... ....|--- .... ....
....|..|E-4 ...7 ....|--- .... ....|--- .... ....
....|..|--- .... ....|--- .... ....|--- .... ....
....|..|--- .... ....|--- .... ....|--- .... ....
....|..|--- .... ....|--- .... ....|--- .... ....
 G-3|..|F-4 ...7 ....|G-1 .A.F ....|D-4 .F1F ....
....|..|--- .... ....|--- .... ....|--- .... ....
....|..|--- .... ....|--- .... ....|--- .... ....
....|..|--- .... ....|--- .... ....|--- .... ....
 G-3|..|G-4 ...A ....|G-1 .F.A ....|D-4 .F6A ....
....|..|--- .... ....|--- .... ....|--- .... ....
....|..|G-4 ...7 ....|--- .... ....|--- .... ....
....|..|--- .... ....|--- .... ....|--- .... ....
 G-4|..|R-- .... ....|G-2 .A.F ....|D-4 .F5F ....
....|..|--- .... ....|--- .... ....|--- .... ....
....|..|--- .... ....|--- .... ....|--- .... ....
....|..|--- .... ....|--- .... ....|--- .... ....
 G-3|..|G#4 ...7 ....|G-1 .F.A ....|D-4 .F1A ....
....|..|--- .... ....|--- .... ....|--- .... ....
....|..|--- .... ....|--- .... ....|--- .... ....
....|..|--- .... ....|--- .... ....|--- .... ....
 G-3|..|G-4 ...7 ....|G-1 .A.F ....|D-4 .F1F ....
....|..|--- .... ....|--- .... ....|--- .... ....
....|..|--- .... ....|--- .... ....|--- .... ....
....|..|--- .... ....|--- .... ....|--- .... ....
 G-4|..|R-- .... ....|G-2 .F.A ....|D-4 .F5A ....
....|..|--- .... ....|--- .... ....|--- .... ....
....|..|--- .... ....|--- .... ....|--- .... ....
....|..|--- .... ....|--- .... ....|--- .... ....
 G#3|..|D#4 ...F ....|G#1 .A.F ....|G#4 .F2F ....
....|..|--- .... ....|--- .... ....|--- .... ....
....|..|--- .... ....|--- .... ....|--- .... ....
....|..|--- .... ....|R-- .... ....|--- .... ....
 G#3|..|--- .... ....|G#1 .A.F ....|D-4 .F1A ....
....|..|R-- .... ....|--- .... ....|--- .... ....
....|..|D#4 ...F ....|--- .... ....|--- .... ....
....|..|--- .... ....|R-- .... ....|--- .... ....
 G#3|..|R-- .... ....|G#1 .A.F ....|D-4 .F57 ....
....|..|--- .... ....|--- .... ....|--- .... ....
 G#3|..|--- .... ....|G#1 .A.F ....|--- .... ....
....|..|R-- .... ....|--- .... ....|--- .... ....
 G#3|..|D-4 ...F ....|G#1 .F.A ....|G#4 .F2A ....
....|..|--- .... ....|--- .... ....|--- .... ....
 G#3|..|--- .... ....|G#1 .A.F ....|--- .... ....
....|..|R-- .... ....|R-- .... ....|--- .... ....
 G#3|..|D#4 ...F ....|G#1 .A.F ....|D-4 .F17 ....
....|..|R-- .... ....|R-- .... ....|--- .... ....
 G#3|..|D#4 ...A ....|G#1 .A.F ....|--- .... ....
....|..|--- .... ....|R-- .... ....|--- .... ....
 G#3|..|--- .... ....|G#1 .F.A ....|--- .... ....
....|..|R-- .... ....|R-- .... ....|--- .... ....
 G#3|..|D#4 ...F ....|G#1 .A.F ....|--- .... ....
....|..|R-- .... ....|R-- .... ....|--- .... ....
 G#3|..|D#4 ...7 ....|G#1 .A.F ....|G#4 .F27 ....
....|..|--- .... ....|--- .... ....|--- .... ....
 G#3|..|--- .... ....|G#1 .A.F ....|--- .... ....
....|..|R-- .... ....|R-- .... ....|--- .... ....
 G#3|..|D-4 ...F ....|G#1 .F.7 ....|--- .... ....
....|..|R-- .... ....|R-- .... ....|--- .... ....
 G#3|..|D#4 ...7 ....|G#1 .A.F ....|--- .... ....
....|..|R-- .... ....|R-- .... ....|--- .... ....

[Pattern13]
 G-3|..|F-4 ...F ....|G-1 .A.F ....|A#4 .F2F ....
....|..|R-- .... ....|R-- .... ....|--- .... ....
 G#3|..|D#4 ...A ....|G#1 .F.7 ....|--- .... ....
....|..|R-- .... ....|R-- .... ....|--- .... ....
 G-3|..|D-4 ...7 ....|G-1 .A.F ....|--- .... ....
....|..|R-- .... ....|--- .... ....|--- .... ....
 G#3|..|F-4 ...F ....|G#1 .F.7 ....|--- .... ....
....|..|R-- .... ....|R-- .... ....|--- .... ....
 G-3|..|D#4 ...7 ....|G-1 .A.F ....|--- .... ....
....|..|--- .... ....|R-- .... ....|--- .... ....
 G-3|..|--- .... ....|G-1 .A.F ....|--- .... ....
....|..|R-- .... ....|R-- .... ....|--- .... ....
 F-3|..|D#4 ...F ....|F-1 .A.F ....|A#4 .F2A ....
....|..|R-- .... ....|R-- .... ....|--- .... ....
 G-3|..|D#4 ...7 ....|G-1 .A.F ....|--- .... ....
....|..|R-- .... ....|R-- .... ....|--- .... ....
 C-4|..|D-4 ...F ....|C-2 .A.F ....|G-4 .FAF ....
....|..|R-- .... ....|R-- .... ....|--- .... ....
 C-4|..|F-4 ...A ....|C-2 .A.F ....|--- .... ....
....|..|R-- .... ....|R-- .... ....|--- .... ....
 G-3|..|D-4 ...7 ....|G-1 .F.A ....|--- .... ....
....|..|R-- .... ....|R-- .... ....|--- .... ....
 C-4|..|C-4 ...F ....|C-2 .A.F ....|--- .... ....
....|..|R-- .... ....|R-- .... ....|--- .... ....
 C-4|..|F-4 ...7 ....|C-2 .A.F ....|A#4 .F27 ....
....|..|--- .... ....|--- .... ....|--- .... ....
 C-4|..|--- .... ....|C-2 .A.F ....|--- .... ....
....|..|R-- .... ....|R-- .... ....|--- .... ....
 A#3|..|D-4 ...F ....|A#1 .A.F ....|G-4 .FAA ....
....|..|R-- .... ....|R-- .... ....|--- .... ....
 C-4|..|F-4 ...7 ....|C-2 .A.F ....|--- .... ....
....|..|R-- .... ....|R-- .... ....|--- .... ....
 F-3|..|D#4 ...F ....|F-1 .A.F ....|F-4 .F3F ....
....|..|R-- .... ....|R-- .... ....|--- .... ....
 G-3|..|C-4 ...A ....|G-1 .F.7 ....|--- .... ....
....|..|R-- .... ....|R-- .... ....|--- .... ....
 F-3|..|D#4 ...7 ....|F-1 .A.F ....|--- .... ....
....|..|R-- .... ....|--- .... ....|--- .... ....
 G-3|..|D#4 ...F ....|G-1 .F.7 ....|--- .... ....
....|..|R-- .... ....|R-- .... ....|--- .... ....
 F-3|..|D-4 ...7 ....|F-1 .A.F ....|G-4 .FA7 ....
....|..|--- .... ....|R-- .... ....|--- .... ....
 F-3|..|--- .... ....|F-1 .A.F ....|--- .... ....
....|..|R-- .... ....|R-- .... ....|--- .... ....
 F-3|..|D-4 ...F ....|F-1 .A.F ....|F-4 .F3A ....
....|..|R-- .... ....|R-- .... ....|--- .... ....
 F-3|..|C-4 ...7 ....|F-1 .A.F ....|--- .... ....
....|..|R-- .... ....|R-- .... ....|--- .... ....
 A#3|..|F-4 ...F ....|A#1 .A.F ....|D-4 .F9F ....
....|..|R-- .... ....|R-- .... ....|--- .... ....
 A#3|..|D#4 ...A ....|A#1 .A.F ....|--- .... ....
....|..|R-- .... ....|R-- .... ....|--- .... ....
 A#3|..|D-4 ...7 ....|A#1 .F.7 ....|--- .... ....
....|..|R-- .... ....|R-- .... ....|--- .... ....
 A#3|..|D-4 ...F ....|A#1 .A.F ....|--- .... ....
....|..|R-- .... ....|R-- .... ....|--- .... ....
 A#3|..|D#4 ...7 ....|A#1 .A.F ....|F-4 .F37 ....
....|..|--- .... ....|--- .... ....|--- .... ....
 A#3|..|--- .... ....|A#1 .A.F ....|--- .... ....
....|..|R-- .... ....|R-- .... ....|--- .... ....
 A#3|..|C-4 ...F ....|A#1 .A.F ....|D-4 .F9A ....
....|..|R-- .... ....|R-- .... ....|--- .... ....
 A#3|..|D#4 ...7 ....|A#1 .A.F ....|--- .... ....
....|..|R-- .... ....|R-- .... ....|--- .... ....

[Pattern14]
 A#3|..|A#3 ...F ....|A#1 .A.F ....|A#4 .F3F ....
....|..|R-- .... ....|R-- .... ....|--- .... ....
 F-3|..|D-4 ...A ....|F-1 .F.7 ....|--- .... ....
....|..|R-- .... ....|R-- .... ....|--- .... ....
 A#3|..|D-4 ...7 ....|A#1 .A.F ....|--- .... ....
....|..|--- .... ....|--- .... ....|--- .... ....
 F-3|..|--- .... ....|F-1 .F.7 ....|--- .... ....
....|..|R-- .... ....|R-- .... ....|--- .... ....
 A#3|..|F-4 ...7 ....|A#1 .A.F ....|C-4 .F3F ....
....|..|--- .... ....|R-- .... ....|--- .... ....
 A#3|..|--- .... ....|A#1 .A.F ....|--- .... ....
....|..|R-- .... ....|R-- .... ....|--- .... ....
 F-3|..|A#3 ...A ....|F-1 .A.F ....|A#4 .F3A ....
....|..|R-- .... ....|R-- .... ....|--- .... ....
 A#3|..|D-4 ...7 ....|A#1 .A.F ....|--- .... ....
....|..|--- .... ....|R-- .... ....|--- .... ....
 D#4|..|--- .... ....|D#2 .A.F ....|C#4 .F2F ....
....|..|--- .... ....|R-- .... ....|--- .... ....
 D#4|..|--- .... ....|D#2 .A.F ....|--- .... ....
....|..|R-- .... ....|R-- .... ....|--- .... ....
 A#3|..|C-4 ...7 ....|A#1 .F.7 ....|C-4 .F3A ....
....|..|--- .... ....|R-- .... ....|--- .... ....
 D#4|..|--- .... ....|D#2 .A.F ....|--- .... ....
....|..|R-- .... ....|R-- .... ....|--- .... ....
 D#4|..|A#3 ...7 ....|D#2 .A.F ....|D#4 .F2F ....
....|..|--- .... ....|--- .... ....|--- .... ....
 D#4|..|--- .... ....|D#2 .A.F ....|--- .... ....
....|..|--- .... ....|R-- .... ....|--- .... ....
 A#3|..|--- .... ....|A#1 .A.F ....|C#4 .F2A ....
....|..|--- .... ....|R-- .... ....|--- .... ....
 G-3|..|--- .... ....|G-1 .A.F ....|--- .... ....
....|..|--- .... ....|R-- .... ....|--- .... ....
 G#3|..|D#4 ...F ....|G#1 .A.F ....|D#4 .F1F ....
....|..|--- .... ....|R-- .... ....|--- .... ....
 A#3|..|--- .... ....|A#1 .F.7 ....|--- .... ....
....|..|--- .... ....|R-- .... ....|--- .... ....
 G#3|..|--- .... ....|G#1 .A.F ....|D#4 .F2A ....
....|..|R-- .... ....|--- .... ....|--- .... ....
 A#3|..|D#4 ...F ....|A#1 .F.7 ....|--- .... ....
....|..|--- .... ....|R-- .... ....|--- .... ....
 G#3|..|--- .... ....|G#1 .A.F ....|C#4 .F27 ....
....|..|--- .... ....|R-- .... ....|--- .... ....
 G#3|..|--- .... ....|G#1 .A.F ....|--- .... ....
....|..|R-- .... ....|R-- .... ....|--- .... ....
 G#3|..|D-4 ...F ....|G#1 .F.A ....|D#4 .F1A ....
....|..|--- .... ....|R-- .... ....|--- .... ....
 G#3|..|--- .... ....|G#1 .A.F ....|--- .... ....
....|..|R-- .... ....|R-- .... ....|--- .... ....
 G#3|..|D#4 ...F ....|G#1 .A.F ....|D#4 .F27 ....
....|..|R-- .... ....|R-- .... ....|--- .... ....
 G#3|..|D#4 ...A ....|G#1 .A.F ....|--- .... ....
....|..|--- .... ....|R-- .... ....|--- .... ....
 A#3|..|--- .... ....|A#1 .F.7 ....|--- .... ....
....|..|R-- .... ....|R-- .... ....|--- .... ....
 G#3|..|D#4 ...F ....|G#1 .A.F ....|--- .... ....
....|..|R-- .... ....|R-- .... ....|--- .... ....
 G#3|..|D#4 ...7 ....|G#1 .A.F ....|D#4 .F17 ....
....|..|--- .... ....|--- .... ....|--- .... ....
 G#3|..|--- .... ....|G#1 .A.F ....|--- .... ....
....|..|R-- .... ....|R-- .... ....|--- .... ....
 G#3|..|D-4 ...F ....|G#1 .F.7 ....|--- .... ....
....|..|R-- .... ....|R-- .... ....|--- .... ....
 G#3|..|D#4 ...7 ....|G#1 .A.F ....|--- .... ....
....|..|R-- .... ....|R-- .... ....|--- .... ....

[Pattern15]
 G-3|..|F-4 ...F ....|G-1 .A.F ....|D-4 .FAF ....
....|..|R-- .... ....|R-- .... ....|--- .... ....
 G#3|..|D#4 ...A ....|G#1 .F.7 ....|--- .... ....
....|..|R-- .... ....|R-- .... ....|--- .... ....
 G-3|..|D-4 ...7 ....|G-1 .A.F ....|--- .... ....
....|..|R-- .... ....|--- .... ....|--- .... ....
 G#3|..|F-4 ...F ....|G#1 .F.7 ....|--- .... ....
....|..|R-- .... ....|R-- .... ....|--- .... ....
 G-3|..|D#4 ...7 ....|G-1 .A.F ....|--- .... ....
....|..|--- .... ....|R-- .... ....|--- .... ....
 G-3|..|--- .... ....|G-1 .A.F ....|--- .... ....
....|..|R-- .... ....|R-- .... ....|--- .... ....
 F-3|..|D#4 ...F ....|F-1 .A.F ....|D-4 .FAA ....
....|..|R-- .... ....|R-- .... ....|--- .... ....
 G-3|..|D#4 ...7 ....|G-1 .A.F ....|--- .... ....
....|..|R-- .... ....|R-- .... ....|--- .... ....
 C-4|..|D-4 ...F ....|C-2 .A.F ....|D#4 .FBF ....
....|..|R-- .... ....|R-- .... ....|--- .... ....
 C-4|..|F-4 ...A ....|C-2 .A.F ....|--- .... ....
....|..|R-- .... ....|R-- .... ....|--- .... ....
 G-3|..|D-4 ...7 ....|G-1 .F.A ....|--- .... ....
....|..|R-- .... ....|R-- .... ....|--- .... ....
 C-4|..|D#4 ...F ....|C-2 .A.F ....|--- .... ....
....|..|R-- .... ....|R-- .... ....|--- .... ....
 C-4|..|F-4 ...7 ....|C-2 .A.F ....|D-4 .FA7 ....
....|..|--- .... ....|--- .... ....|--- .... ....
 C-4|..|--- .... ....|C-2 .A.F ....|--- .... ....
....|..|R-- .... ....|R-- .... ....|--- .... ....
 A#3|..|F-4 ...F ....|A#1 .A.F ....|D#4 .FBA ....
....|..|R-- .... ....|R-- .... ....|--- .... ....
 C-4|..|F-4 ...7 ....|C-2 .A.F ....|--- .... ....
....|..|R-- .... ....|R-- .... ....|--- .... ....
 D-4|..|G-4 ...F ....|D-2 .A.F ....|F-4 .FCF ....
....|..|R-- .... ....|R-- .... ....|--- .... ....
 G-3|..|D#4 ...A ....|G-1 .F.7 ....|--- .... ....
....|..|R-- .... ....|R-- .... ....|--- .... ....
 D-4|..|D#4 ...7 ....|D-2 .A.F ....|--- .... ....
....|..|R-- .... ....|--- .... ....|--- .... ....
 G-3|..|G#4 ...F ....|G-1 .F.7 ....|--- .... ....
....|..|R-- .... ....|R-- .... ....|--- .... ....
 D-4|..|D-4 ...7 ....|D-2 .A.F ....|D#4 .FB7 ....
....|..|--- .... ....|R-- .... ....|--- .... ....
 D-4|..|--- .... ....|D-2 .A.F ....|--- .... ....
....|..|R-- .... ....|R-- .... ....|--- .... ....
 D-4|..|G-4 ...F ....|D-2 .A.F ....|F-4 .FCA ....
....|..|R-- .... ....|R-- .... ....|--- .... ....
 D-4|..|D#4 ...7 ....|D-2 .A.F ....|--- .... ....
....|..|R-- .... ....|R-- .... ....|--- .... ....
 D-4|..|F-4 ...F ....|D-2 .A.F ....|--- .... ....
....|..|R-- .... ....|R-- .... ....|--- .... ....
 D-4|..|G#4 ...A ....|D-2 .A.F ....|--- .... ....
....|..|R-- .... ....|R-- .... ....|--- .... ....
 A#3|..|F-4 ...7 ....|A#1 .F.7 ....|--- .... ....
....|..|R-- .... ....|R-- .... ....|--- .... ....
 D-4|..|D#4 ...F ....|D-2 .A.F ....|--- .... ....
....|..|R-- .... ....|R-- .... ....|--- .... ....
 D-4|..|G-4 ...7 ....|D-2 .A.F ....|F-4 .FC7 ....
....|..|--- .... ....|--- .... ....|--- .... ....
 D-4|..|--- .... ....|D-2 .A.F ....|--- .... ....
....|..|R-- .... ....|R-- .... ....|--- .... ....
 D-4|..|F-4 ...F ....|D-2 .A.F ....|--- .... ....
....|..|R-- .... ....|R-- .... ....|--- .... ....
 D-4|..|G#4 ...7 ....|D-2 .A.F ....|--- .... ....
....|..|R-- .... ....|R-- .... ....|--- .... ....

[Pattern16]
 G-3|..|G-4 ...F ....|G-1 .A.F ....|R-- .... ....
....|..|R-- .... ....|R-- .... ....|--- .... ....
 D-4|..|D#4 ...A ....|D-2 .F.7 ....|--- .... ....
....|..|R-- .... ....|R-- .... ....|--- .... ....
 G-3|..|G-4 ...7 ....|G-1 .A.F ....|--- .... ....
....|..|--- .... ....|--- .... ....|--- .... ....
 D-4|..|--- .... ....|D-2 .F.7 ....|--- .... ....
....|..|R-- .... ....|R-- .... ....|--- .... ....
 G-3|..|F-4 ...7 ....|G-1 .A.F ....|--- .... ....
....|..|--- .... ....|R-- .... ....|--- .... ....
 G-3|..|--- .... ....|G-1 .A.F ....|--- .... ....
....|..|R-- .... ....|R-- .... ....|--- .... ....
 G-3|..|G-4 ...A ....|G-1 .A.F ....|R-- .... ....
....|..|R-- .... ....|R-- .... ....|--- .... ....
 G-3|..|D#4 ...7 ....|G-1 .A.F ....|--- .... ....
....|..|--- .... ....|R-- .... ....|--- .... ....
 G-3|..|R-- .... ....|G-1 .A.F ....|--- .... ....
....|..|--- .... ....|R-- .... ....|--- .... ....
 G-3|..|--- .... ....|G-1 .A.F ....|--- .... ....
....|..|R-- .... ....|R-- .... ....|--- .... ....
 D-4|..|F-4 ...7 ....|D-2 .F.7 ....|--- .... ....
....|..|--- .... ....|R-- .... ....|--- .... ....
 G-3|..|--- .... ....|G-1 .A.F ....|--- .... ....
....|..|R-- .... ....|R-- .... ....|--- .... ....
 G-3|..|G-4 ...7 ....|G-1 .A.F ....|R-- .... ....
....|..|--- .... ....|--- .... ....|--- .... ....
 G-3|..|--- .... ....|G-1 .A.F ....|--- .... ....
....|..|--- .... ....|R-- .... ....|--- .... ....
 G-3|..|R-- .... ....|G-1 .A.F ....|--- .... ....
....|..|--- .... ....|R-- .... ....|--- .... ....
 G-3|..|--- .... ....|G-1 .A.F ....|--- .... ....
....|..|--- .... ....|R-- .... ....|--- .... ....
 C-4|..|C-4 ...F ....|C-2 .A.F ....|--- .... ....
....|..|--- .... ....|R-- .... ....|--- .... ....
 G-3|..|--- .... ....|G-1 .F.7 ....|--- .... ....
....|..|--- .... ....|R-- .... ....|--- .... ....
 C-4|..|--- .... ....|C-2 .A.F ....|D#4 .FBF ....
....|..|--- .... ....|--- .... ....|--- .... ....
 G-3|..|--- .... ....|G-1 .F.7 ....|R-- .... ....
....|..|--- .... ....|R-- .... ....|--- .... ....
 C-4|..|D#4 ...F ....|C-2 .A.F ....|--- .... ....
....|..|--- .... ....|R-- .... ....|--- .... ....
 G-3|..|--- .... ....|G-1 .F.7 ....|D#4 .FBF ....
....|..|--- .... ....|R-- .... ....|--- .... ....
 D-4|..|C-4 ...A ....|D-2 .A.F ....|--- .... ....
....|..|--- .... ....|R-- .... ....|--- .... ....
 D#4|..|--- .... ....|D#2 .A.F ....|--- .... ....
....|..|--- .... ....|R-- .... ....|--- .... ....
 F-4|..|F-4 ...F ....|F-2 .A.F ....|F-4 .F3F ....
....|..|--- .... ....|--- .... ....|--- .... ....
 F-4|..|--- .... ....|F-2 .A.F ....|R-- .... ....
....|..|--- .... ....|R-- .... ....|--- .... ....
 G-3|..|D#4 ...A ....|G-1 .F.7 ....|--- .... ....
....|..|--- .... ....|R-- .... ....|--- .... ....
 F-4|..|D#4 ...F ....|F-2 .A.F ....|F-4 .F3F ....
....|..|--- .... ....|R-- .... ....|--- .... ....
 D#4|..|C-4 ...7 ....|D#2 .A.F ....|--- .... ....
....|..|--- .... ....|--- .... ....|--- .... ....
 D#4|..|--- .... ....|D#2 .F.A ....|--- .... ....
....|..|--- .... ....|R-- .... ....|--- .... ....
 C-4|..|F-4 ...F ....|C-2 .A.F ....|F-4 .F3F ....
....|..|--- .... ....|--- .... ....|--- .... ....
 F-4|..|--- .... ....|F-2 .F.A ....|R-- .... ....
....|..|R-- .... ....|R-- .... ....|--- .... ....

[Pattern17]
 A#3|..|F-4 ...F ....|A#1 .A.F ....|R-- .... ....
....|..|--- .... ....|R-- .... ....|--- .... ....
 F-4|..|D#4 ...A ....|F-2 .F.A ....|D#4 .FB7 ....
....|..|R-- .... ....|R-- .... ....|--- .... ....
 A#3|..|F-4 ...F ....|A#1 .A.F ....|F-4 .F1F ....
....|..|--- .... ....|--- .... ....|--- .... ....
 D#4|..|--- .... ....|D#2 .F.7 ....|R-- .... ....
....|..|R-- .... ....|R-- .... ....|--- .... ....
 A#3|..|A#4 ...F ....|A#1 .A.F ....|F-4 .F37 ....
....|..|--- .... ....|--- .... ....|--- .... ....
 F-4|..|--- .... ....|F-2 .F.7 ....|F-4 .F1F ....
....|..|R-- .... ....|R-- .... ....|--- .... ....
 D-4|..|G#4 ...F ....|D-2 .A.F ....|R-- .... ....
....|..|--- .... ....|R-- .... ....|--- .... ....
 F-4|..|D#4 ...7 ....|F-2 .F.7 ....|F-4 .F37 ....
....|..|R-- .... ....|R-- .... ....|--- .... ....
 D#4|..|G-4 ...F ....|D#2 .A.F ....|G-4 .F8F ....
....|..|--- .... ....|--- .... ....|--- .... ....
 D#4|..|F-4 ...F ....|D#2 .A.F ....|R-- .... ....
....|..|R-- .... ....|R-- .... ....|--- .... ....
 C-4|..|F-4 ...7 ....|C-2 .F.7 ....|F-4 .F37 ....
....|..|--- .... ....|R-- .... ....|--- .... ....
 D#4|..|G-4 ...F ....|D#2 .A.F ....|G-4 .F8F ....
....|..|R-- .... ....|R-- .... ....|--- .... ....
 D#4|..|F-4 ...7 ....|D#2 .A.F ....|R-- .... ....
....|..|--- .... ....|--- .... ....|--- .... ....
....|..|R-- .... ....|--- .... ....|--- .... ....
....|..|R-- .... ....|R-- .... ....|--- .... ....
 D-4|..|F-4 ...7 ....|D-2 .A.F ....|G-4 .F8F ....
....|..|--- .... ....|--- .... ....|--- .... ....
 D#4|..|F-4 ...A ....|D#2 .F.A ....|R-- .... ....
....|..|R-- .... ....|R-- .... ....|--- .... ....
 C-4|..|G-4 ...F ....|C-2 .A.F ....|R-- .... ....
....|..|--- .... ....|R-- .... ....|--- .... ....
 D#4|..|G-4 ...A ....|D#2 .F.A ....|F-4 .F17 ....
....|..|--- .... ....|R-- .... ....|--- .... ....
 C-4|..|G#4 ...7 ....|C-2 .A.F ....|D#4 .FBF ....
....|..|--- .... ....|--- .... ....|--- .... ....
....|..|R-- .... ....|--- .... ....|R-- .... ....
....|..|--- .... ....|R-- .... ....|--- .... ....
 C-4|..|A#4 ...F ....|C-2 .A.F ....|G-4 .F87 ....
....|..|--- .... ....|--- .... ....|--- .... ....
 D#4|..|F-4 ...7 ....|D#2 .F.7 ....|D#4 .FBF ....
....|..|--- .... ....|R-- .... ....|--- .... ....
 D-4|..|G-4 ...A ....|D-2 .A.F ....|R-- .... ....
....|..|--- .... ....|R-- .... ....|--- .... ....
 D#4|..|G-4 ...7 ....|D#2 .A.F ....|G-4 .F87 ....
....|..|--- .... ....|R-- .... ....|--- .... ....
 F-4|..|C-5 ...F ....|F-2 .A.F ....|F-4 .F3F ....
....|..|--- .... ....|--- .... ....|--- .... ....
 F-4|..|R-- .... ....|F-2 .A.F ....|R-- .... ....
....|..|--- .... ....|R-- .... ....|--- .... ....
 D-4|..|A#4 ...A ....|D-2 .F.7 ....|G-4 .F87 ....
....|..|--- .... ....|R-- .... ....|--- .... ....
 F-4|..|F-4 ...F ....|F-2 .A.F ....|F-4 .F3F ....
....|..|--- .... ....|R-- .... ....|--- .... ....
 D#4|..|G-4 ...7 ....|D#2 .A.F ....|R-- .... ....
....|..|--- .... ....|--- .... ....|--- .... ....
 D#4|..|--- .... ....|D#2 .F.A ....|--- .... ....
....|..|--- .... ....|R-- .... ....|--- .... ....
 C-4|..|D#4 ...F ....|C-2 .A.F ....|F-4 .F3F ....
....|..|--- .... ....|--- .... ....|--- .... ....
 F-4|..|--- .... ....|F-2 .F.A ....|R-- .... ....
....|..|--- .... ....|R-- .... ....|--- .... ....

[Pattern18]
 A#3|..|D-4 ...F ....|A#1 .A.F ....|R-- .... ....
....|..|--- .... ....|R-- .... ....|--- .... ....
 F-4|..|F-4 ...A ....|F-2 .F.A ....|D#4 .FB7 ....
....|..|R-- .... ....|R-- .... ....|--- .... ....
 A#3|..|D-4 ...F ....|A#1 .A.F ....|F-4 .F1F ....
....|..|--- .... ....|--- .... ....|--- .... ....
 D#4|..|--- .... ....|D#2 .F.7 ....|R-- .... ....
....|..|R-- .... ....|R-- .... ....|--- .... ....
 A#3|..|C-4 ...F ....|A#1 .A.F ....|F-4 .F37 ....
....|..|--- .... ....|--- .... ....|--- .... ....
 F-4|..|--- .... ....|F-2 .F.7 ....|F-4 .F1F ....
....|..|R-- .... ....|R-- .... ....|--- .... ....
 D-4|..|D-4 ...F ....|D-2 .A.F ....|R-- .... ....
....|..|--- .... ....|R-- .... ....|--- .... ....
 F-4|..|F-4 ...7 ....|F-2 .F.7 ....|F-4 .F37 ....
....|..|R-- .... ....|R-- .... ....|--- .... ....
 D#4|..|F-4 ...F ....|D#2 .A.F ....|G-4 .F8F ....
....|..|--- .... ....|--- .... ....|--- .... ....
 D#4|..|D#4 ...F ....|D#2 .A.F ....|R-- .... ....
....|..|R-- .... ....|R-- .... ....|--- .... ....
 C-4|..|D#4 ...7 ....|C-2 .F.7 ....|F-4 .F37 ....
....|..|R-- .... ....|R-- .... ....|--- .... ....
 D#4|..|D#4 ...F ....|D#2 .A.F ....|G-4 .F8F ....
....|..|R-- .... ....|R-- .... ....|--- .... ....
 D#4|..|D-4 ...7 ....|D#2 .A.F ....|R-- .... ....
....|..|--- .... ....|--- .... ....|--- .... ....
....|..|R-- .... ....|--- .... ....|--- .... ....
....|..|R-- .... ....|R-- .... ....|--- .... ....
 D-4|..|D-4 ...7 ....|D-2 .A.F ....|G-4 .F8F ....
....|..|--- .... ....|--- .... ....|--- .... ....
 D#4|..|D#4 ...A ....|D#2 .F.A ....|R-- .... ....
....|..|R-- .... ....|R-- .... ....|--- .... ....
 C-4|..|C-4 ...F ....|C-2 .A.F ....|R-- .... ....
....|..|R-- .... ....|R-- .... ....|--- .... ....
 D#4|..|D#4 ...A ....|D#2 .F.A ....|F-4 .F17 ....
....|..|R-- .... ....|R-- .... ....|--- .... ....
 C-4|..|D-4 ...7 ....|C-2 .A.F ....|D#4 .FBF ....
....|..|--- .... ....|--- .... ....|--- .... ....
....|..|R-- .... ....|--- .... ....|R-- .... ....
....|..|--- .... ....|R-- .... ....|--- .... ....
 C-4|..|D#4 ...F ....|C-2 .A.F ....|G-4 .F87 ....
....|..|--- .... ....|--- .... ....|--- .... ....
 D#4|..|D#4 ...7 ....|D#2 .F.7 ....|D#4 .FBF ....
....|..|--- .... ....|R-- .... ....|--- .... ....
 D-4|..|C-4 ...A ....|D-2 .A.F ....|R-- .... ....
....|..|R-- .... ....|R-- .... ....|--- .... ....
 D#4|..|D#4 ...7 ....|D#2 .A.F ....|G-4 .F87 ....
....|..|--- .... ....|R-- .... ....|--- .... ....
 F-4|..|F-4 ...F ....|F-2 .A.F ....|F-4 .F3F ....
....|..|--- .... ....|--- .... ....|--- .... ....
 F-4|..|R-- .... ....|F-2 .A.F ....|R-- .... ....
....|..|--- .... ....|R-- .... ....|--- .... ....
 D-4|..|D#4 ...A ....|D-2 .F.7 ....|G-4 .F87 ....
....|..|--- .... ....|R-- .... ....|--- .... ....
 F-4|..|D#4 ...F ....|F-2 .A.F ....|F-4 .F3F ....
....|..|--- .... ....|R-- .... ....|--- .... ....
 D#4|..|C-4 ...7 ....|D#2 .A.F ....|R-- .... ....
....|..|--- .... ....|--- .... ....|--- .... ....
 D#4|..|--- .... ....|D#2 .F.A ....|--- .... ....
....|..|--- .... ....|R-- .... ....|--- .... ....
 C-4|..|F-4 ...F ....|C-2 .A.F ....|F-4 .F3F ....
....|..|--- .... ....|--- .... ....|--- .... ....
 F-4|..|--- .... ....|F-2 .F.A ....|R-- .... ....
....|..|R-- .... ....|R-- .... ....|--- .... ....

[Pattern19]
 A#3|..|F-4 ...F ....|A#1 .A.F ....|R-- .... ....
....|..|--- .... ....|R-- .... ....|--- .... ....
 F-4|..|D#4 ...A ....|F-2 .F.A ....|D#4 .FB7 ....
....|..|R-- .... ....|R-- .... ....|--- .... ....
 A#3|..|F-4 ...F ....|A#1 .A.F ....|F-4 .F1F ....
....|..|--- .... ....|--- .... ....|--- .... ....
 D#4|..|--- .... ....|D#2 .F.7 ....|R-- .... ....
....|..|R-- .... ....|R-- .... ....|--- .... ....
 A#3|..|A#4 ...F ....|A#1 .A.F ....|F-4 .F37 ....
....|..|--- .... ....|--- .... ....|--- .... ....
 F-4|..|--- .... ....|F-2 .F.7 ....|F-4 .F1F ....
....|..|R-- .... ....|R-- .... ....|--- .... ....
 D-4|..|G#4 ...F ....|D-2 .A.F ....|R-- .... ....
....|..|--- .... ....|R-- .... ....|--- .... ....
 F-4|..|D#4 ...7 ....|F-2 .F.7 ....|F-4 .F37 ....
....|..|R-- .... ....|R-- .... ....|--- .... ....
 D#4|..|G-4 ...F ....|D#2 .A.F ....|G-4 .F8F ....
....|..|--- .... ....|--- .... ....|--- .... ....
 D#4|..|F-4 ...F ....|D#2 .A.F ....|R-- .... ....
....|..|R-- .... ....|R-- .... ....|--- .... ....
 C-4|..|F-4 ...7 ....|C-2 .F.7 ....|F-4 .F37 ....
....|..|R-- .... ....|R-- .... ....|--- .... ....
 D#4|..|G-4 ...F ....|D#2 .A.F ....|G-4 .F8F ....
....|..|R-- .... ....|R-- .... ....|--- .... ....
 D#4|..|F-4 ...7 ....|D#2 .A.F ....|R-- .... ....
....|..|--- .... ....|--- .... ....|--- .... ....
....|..|R-- .... ....|--- .... ....|--- .... ....
....|..|R-- .... ....|R-- .... ....|--- .... ....
 D-4|..|F-4 ...7 ....|D-2 .A.F ....|G-4 .F8F ....
....|..|--- .... ....|--- .... ....|--- .... ....
 D#4|..|F-4 ...A ....|D#2 .F.A ....|R-- .... ....
....|..|R-- .... ....|R-- .... ....|--- .... ....
 C-4|..|G-4 ...F ....|C-2 .A.F ....|R-- .... ....
....|..|R-- .... ....|R-- .... ....|--- .... ....
 D#4|..|G-4 ...A ....|D#2 .F.A ....|F-4 .F17 ....
....|..|--- .... ....|R-- .... ....|--- .... ....
 C-4|..|G#4 ...7 ....|C-2 .A.F ....|D#4 .FBF ....
....|..|--- .... ....|--- .... ....|--- .... ....
....|..|R-- .... ....|--- .... ....|R-- .... ....
....|..|R-- .... ....|R-- .... ....|--- .... ....
 C-4|..|A#4 ...F ....|C-2 .A.F ....|G-4 .F87 ....
....|..|--- .... ....|--- .... ....|--- .... ....
 D#4|..|F-4 ...7 ....|D#2 .F.7 ....|D#4 .FBF ....
....|..|--- .... ....|R-- .... ....|--- .... ....
 D-4|..|G-4 ...A ....|D-2 .A.F ....|R-- .... ....
....|..|R-- .... ....|R-- .... ....|--- .... ....
 D#4|..|G-4 ...7 ....|D#2 .A.F ....|G-4 .F87 ....
....|..|--- .... ....|R-- .... ....|--- .... ....
 F-4|..|C-5 ...F ....|F-2 .A.F ....|F-4 .F3F ....
....|..|--- .... ....|--- .... ....|--- .... ....
 F-4|..|R-- .... ....|F-2 .A.F ....|R-- .... ....
....|..|--- .... ....|R-- .... ....|--- .... ....
 D-4|..|A#4 ...A ....|D-2 .F.7 ....|G-4 .F87 ....
....|..|--- .... ....|R-- .... ....|--- .... ....
 F-4|..|F-4 ...F ....|F-2 .A.F ....|F-4 .F3F ....
....|..|--- .... ....|R-- .... ....|--- .... ....
 D#4|..|G-4 ...7 ....|D#2 .A.F ....|R-- .... ....
....|..|--- .... ....|--- .... ....|--- .... ....
 D#4|..|--- .... ....|D#2 .F.A ....|--- .... ....
....|..|--- .... ....|R-- .... ....|--- .... ....
 C-4|..|D#4 ...F ....|C-2 .A.F ....|F-4 .F3F ....
....|..|--- .... ....|--- .... ....|--- .... ....
 F-4|..|--- .... ....|F-2 .F.A ....|R-- .... ....
....|..|--- .... ....|R-- .... ....|--- .... ....

[Pattern20]
 A#3|..|A#4 ...F ....|A#1 .A.F ....|R-- .... ....
....|..|--- .... ....|R-- .... ....|--- .... ....
 F-4|..|F-4 ...A ....|F-2 .F.A ....|D#4 .FB7 ....
....|..|R-- .... ....|R-- .... ....|--- .... ....
 A#3|..|A#4 ...F ....|A#1 .A.F ....|F-4 .F1F ....
....|..|--- .... ....|--- .... ....|--- .... ....
 D#4|..|--- .... ....|D#2 .F.7 ....|R-- .... ....
....|..|R-- .... ....|R-- .... ....|--- .... ....
 A#3|..|G-4 ...F ....|A#1 .A.F ....|F-4 .F37 ....
....|..|--- .... ....|--- .... ....|--- .... ....
 F-4|..|--- .... ....|F-2 .F.7 ....|F-4 .F1F ....
....|..|R-- .... ....|R-- .... ....|--- .... ....
 A#3|..|A#4 ...F ....|A#1 .A.F ....|R-- .... ....
....|..|--- .... ....|R-- .... ....|--- .... ....
 A#3|..|F-4 ...7 ....|A#1 .A.F ....|F-4 .F37 ....
....|..|R-- .... ....|R-- .... ....|--- .... ....
 C-4|..|A#4 ...F ....|C-2 .A.F ....|D#4 .FBF ....
....|..|--- .... ....|--- .... ....|--- .... ....
 C-4|..|--- .... ....|C-2 .A.F ....|R-- .... ....
....|..|R-- .... ....|R-- .... ....|--- .... ....
 C-4|..|D#4 ...7 ....|C-2 .F.7 ....|F-4 .F37 ....
....|..|--- .... ....|R-- .... ....|--- .... ....
 C-4|..|C-5 ...F ....|C-2 .A.F ....|D#4 .FBF ....
....|..|R-- .... ....|R-- .... ....|--- .... ....
 C-4|..|A#4 ...7 ....|C-2 .A.F ....|R-- .... ....
....|..|R-- .... ....|--- .... ....|--- .... ....
 A#3|..|--- .... ....|A#1 .F.A ....|--- .... ....
....|..|R-- .... ....|R-- .... ....|--- .... ....
 C-4|..|A#4 ...7 ....|C-2 .A.F ....|F-4 .F17 ....
....|..|--- .... ....|--- .... ....|--- .... ....
 C-4|..|--- .... ....|C-2 .F.A ....|R-- .... ....
....|..|R-- .... ....|R-- .... ....|--- .... ....
 C-4|..|C-4 ...F ....|C-2 .A.F ....|R-- .... ....
....|..|--- .... ....|R-- .... ....|--- .... ....
 C-4|..|C-5 ...A ....|C-2 .F.A ....|F-4 .F17 ....
....|..|R-- .... ....|R-- .... ....|--- .... ....
 C-4|..|A#4 ...7 ....|C-2 .A.F ....|D#4 .FBF ....
....|..|R-- .... ....|--- .... ....|--- .... ....
 A#3|..|--- .... ....|A#1 .F.7 ....|R-- .... ....
....|..|R-- .... ....|R-- .... ....|--- .... ....
 C-4|..|D#4 ...F ....|C-2 .A.F ....|D#4 .FB7 ....
....|..|--- .... ....|--- .... ....|--- .... ....
 C-4|..|--- .... ....|C-2 .F.7 ....|D#4 .FBF ....
....|..|--- .... ....|R-- .... ....|--- .... ....
 D-4|..|C-4 ...A ....|D-2 .A.F ....|R-- .... ....
....|..|--- .... ....|R-- .... ....|--- .... ....
 D#4|..|C-5 ...7 ....|D#2 .A.F ....|D#4 .FB7 ....
....|..|--- .... ....|R-- .... ....|--- .... ....
 F-4|..|F-4 ...F ....|F-2 .A.F ....|F-4 .F3F ....
....|..|R-- .... ....|--- .... ....|--- .... ....
 F-4|..|--- .... ....|F-2 .A.F ....|R-- .... ....
....|..|--- .... ....|R-- .... ....|--- .... ....
 C-4|..|D#4 ...A ....|C-2 .F.7 ....|--- .... ....
....|..|--- .... ....|R-- .... ....|--- .... ....
 F-4|..|D#4 ...F ....|F-2 .A.F ....|F-4 .F3F ....
....|..|--- .... ....|R-- .... ....|--- .... ....
 D#4|..|C-4 ...7 ....|D#2 .A.F ....|R-- .... ....
....|..|--- .... ....|--- .... ....|--- .... ....
 D#4|..|--- .... ....|D#2 .F.A ....|--- .... ....
....|..|--- .... ....|R-- .... ....|--- .... ....
 C-4|..|F-4 ...F ....|C-2 .A.F ....|F-4 .F3F ....
....|..|--- .... ....|--- .... ....|--- .... ....
 F-4|..|--- .... ....|F-2 .F.A ....|R-- .... ....
....|..|R-- .... ....|R-- .... ....|--- .... ....

[Pattern21]
 A#3|..|F-4 ...F ....|A#1 .A.F ....|R-- .... ....
....|..|--- .... ....|R-- .... ....|--- .... ....
 F-4|..|D#4 ...A ....|F-2 .F.A ....|D#4 .FB7 ....
....|..|R-- .... ....|R-- .... ....|--- .... ....
 A#3|..|F-4 ...F ....|A#1 .A.F ....|F-4 .F1F ....
....|..|--- .... ....|--- .... ....|--- .... ....
 D#4|..|--- .... ....|D#2 .F.7 ....|R-- .... ....
....|..|R-- .... ....|R-- .... ....|--- .... ....
 A#3|..|A#4 ...F ....|A#1 .A.F ....|F-4 .F37 ....
....|..|--- .... ....|--- .... ....|--- .... ....
 F-4|..|--- .... ....|F-2 .F.7 ....|F-4 .F1F ....
....|..|R-- .... ....|R-- .... ....|--- .... ....
 D-4|..|G#4 ...F ....|D-2 .A.F ....|R-- .... ....
....|..|--- .... ....|R-- .... ....|--- .... ....
 F-4|..|D#4 ...7 ....|F-2 .F.7 ....|F-4 .F37 ....
....|..|R-- .... ....|R-- .... ....|--- .... ....
 D#4|..|G-4 ...F ....|D#2 .A.F ....|G-4 .F8F ....
....|..|--- .... ....|--- .... ....|--- .... ....
 D#4|..|F-4 ...F ....|D#2 .A.F ....|R-- .... ....
....|..|R-- .... ....|R-- .... ....|--- .... ....
 C-4|..|F-4 ...7 ....|C-2 .F.7 ....|F-4 .F37 ....
....|..|R-- .... ....|R-- .... ....|--- .... ....
 D#4|..|G-4 ...F ....|D#2 .A.F ....|G-4 .F8F ....
....|..|R-- .... ....|R-- .... ....|--- .... ....
 D#4|..|F-4 ...7 ....|D#2 .A.F ....|R-- .... ....
....|..|--- .... ....|--- .... ....|--- .... ....
....|..|R-- .... ....|--- .... ....|--- .... ....
....|..|R-- .... ....|R-- .... ....|--- .... ....
 D-4|..|F-4 ...7 ....|D-2 .A.F ....|G-4 .F8F ....
....|..|--- .... ....|--- .... ....|--- .... ....
 D#4|..|F-4 ...A ....|D#2 .F.A ....|R-- .... ....
....|..|R-- .... ....|R-- .... ....|--- .... ....
 C-4|..|G-4 ...F ....|C-2 .A.F ....|R-- .... ....
....|..|R-- .... ....|R-- .... ....|--- .... ....
 D#4|..|G-4 ...A ....|D#2 .F.A ....|F-4 .F17 ....
....|..|--- .... ....|R-- .... ....|--- .... ....
 C-4|..|G#4 ...7 ....|C-2 .A.F ....|D#4 .FBF ....
....|..|--- .... ....|--- .... ....|--- .... ....
....|..|R-- .... ....|--- .... ....|R-- .... ....
....|..|--- .... ....|R-- .... ....|--- .... ....
 C-4|..|A#4 ...F ....|C-2 .A.F ....|G-4 .F87 ....
....|..|--- .... ....|--- .... ....|--- .... ....
 D#4|..|F-4 ...7 ....|D#2 .F.7 ....|D#4 .FBF ....
....|..|--- .... ....|R-- .... ....|--- .... ....
 D-4|..|G-4 ...A ....|D-2 .A.F ....|R-- .... ....
....|..|R-- .... ....|R-- .... ....|--- .... ....
 D#4|..|G-4 ...7 ....|D#2 .A.F ....|G-4 .F87 ....
....|..|--- .... ....|R-- .... ....|--- .... ....
 F-4|..|C-5 ...F ....|F-2 .A.F ....|F-4 .F3F ....
....|..|--- .... ....|--- .... ....|--- .... ....
 F-4|..|R-- .... ....|F-2 .A.F ....|R-- .... ....
....|..|--- .... ....|R-- .... ....|--- .... ....
 D-4|..|A#4 ...A ....|D-2 .F.7 ....|G-4 .F87 ....
....|..|--- .... ....|R-- .... ....|--- .... ....
 F-4|..|F-4 ...F ....|F-2 .A.F ....|F-4 .F3F ....
....|..|--- .... ....|R-- .... ....|--- .... ....
 D#4|..|G-4 ...7 ....|D#2 .A.F ....|R-- .... ....
....|..|--- .... ....|--- .... ....|--- .... ....
 D#4|..|--- .... ....|D#2 .F.A ....|--- .... ....
....|..|--- .... ....|R-- .... ....|--- .... ....
 C-4|..|D#4 ...F ....|C-2 .A.F ....|F-4 .F3F ....
....|..|--- .... ....|--- .... ....|--- .... ....
 F-4|..|--- .... ....|F-2 .F.A ....|R-- .... ....
....|..|--- .... ....|R-- .... ....|--- .... ....

[Pattern22]
 A#3|..|A#4 ...F ....|A#1 .A.F ....|R-- .... ....
....|..|--- .... ....|R-- .... ....|--- .... ....
 F-4|..|F-4 ...A ....|F-2 .F.A ....|D#4 .FB7 ....
....|..|R-- .... ....|R-- .... ....|--- .... ....
 A#3|..|A#4 ...F ....|A#1 .A.F ....|F-4 .F1F ....
....|..|--- .... ....|--- .... ....|--- .... ....
 D#4|..|--- .... ....|D#2 .F.7 ....|R-- .... ....
....|..|R-- .... ....|R-- .... ....|--- .... ....
 G-3|..|G-4 ...F ....|G-1 .A.F ....|F-4 .F37 ....
....|..|--- .... ....|--- .... ....|--- .... ....
 F-4|..|--- .... ....|F-2 .F.7 ....|F-4 .F1F ....
....|..|R-- .... ....|R-- .... ....|--- .... ....
 A#3|..|A#4 ...F ....|A#1 .A.F ....|R-- .... ....
....|..|--- .... ....|R-- .... ....|--- .... ....
 F-4|..|F-4 ...7 ....|F-2 .F.7 ....|F-4 .F37 ....
....|..|R-- .... ....|R-- .... ....|--- .... ....
 A#3|..|A#4 ...F ....|A#1 .A.F ....|D#4 .FBF ....
....|..|--- .... ....|--- .... ....|--- .... ....
....|..|--- .... ....|--- .... ....|R-- .... ....
....|..|R-- .... ....|R-- .... ....|--- .... ....
 C-4|..|D#4 ...7 ....|C-2 .F.7 ....|F-4 .F37 ....
....|..|--- .... ....|--- .... ....|--- .... ....
 C-4|..|C-5 ...F ....|C-2 .A.F ....|D#4 .FBF ....
....|..|R-- .... ....|R-- .... ....|--- .... ....
 A#3|..|A#4 ...7 ....|A#1 .F.7 ....|R-- .... ....
....|..|R-- .... ....|R-- .... ....|--- .... ....
....|..|--- .... ....|--- .... ....|--- .... ....
....|..|R-- .... ....|R-- .... ....|--- .... ....
 A#3|..|A#4 ...7 ....|A#1 .F.7 ....|F-4 .F17 ....
....|..|--- .... ....|--- .... ....|--- .... ....
....|..|--- .... ....|--- .... ....|R-- .... ....
....|..|R-- .... ....|R-- .... ....|--- .... ....
 C-3|..|G-4 ...7 ....|C-1 .A.F ....|R-- .... ....
....|..|--- .... ....|--- .... ....|--- .... ....
 A#3|..|C-5 ...A ....|A#1 .A.F ....|F-4 .F17 ....
....|..|R-- .... ....|R-- .... ....|--- .... ....
 C-4|..|A#4 ...7 ....|C-2 .A.F ....|--- .... ....
....|..|R-- .... ....|R-- .... ....|--- .... ....
 G-3|..|--- .... ....|G-1 .A.F ....|--- .... ....
....|..|R-- .... ....|R-- .... ....|--- .... ....
 A#2|..|A#4 ...7 ....|A#1 .A.F ....|D#4 .FB7 ....
....|..|--- .... ....|--- .... ....|--- .... ....
 C-3|..|--- .... ....|C-1 .A.F ....|--- .... ....
....|..|--- .... ....|--- .... ....|--- .... ....
 D#3|..|--- .... ....|D#1 .A.F ....|R-- .... ....
....|..|--- .... ....|--- .... ....|--- .... ....
 G-3|..|C-5 ...7 ....|G-1 .A.F ....|D#4 .FB7 ....
....|..|--- .... ....|--- .... ....|--- .... ....
 C-3|..|--- .... ....|C-1 .A.F ....|--- .... ....
....|..|R-- .... ....|R-- .... ....|--- .... ....
 A#3|..|--- .... ....|A#1 .A.F ....|--- .... ....
....|..|--- .... ....|--- .... ....|--- .... ....
 C-4|..|--- .... ....|C-2 .A.F ....|--- .... ....
....|..|--- .... ....|--- .... ....|--- .... ....
 G-3|..|--- .... ....|G-1 .A.F ....|--- .... ....
....|..|--- .... ....|--- .... ....|--- .... ....
 A#2|..|--- .... ....|A#1 .A.F ....|R-- .... ....
....|..|--- .... ....|--- .... ....|--- .... ....
 C-3|..|--- .... ....|C-1 .A.F ....|--- .... ....
....|..|--- .... ....|--- .... ....|--- .... ....
 D#3|..|--- .... ....|D#1 .A.F ....|--- .... ....
....|..|--- .... ....|--- .... ....|--- .... ....
 G-3|..|--- .... ....|G-1 .A.F ....|--- .... ....
....|..|--- .... ....|--- .... ....|--- .... ....

[Pattern23]
 C-3|..|--- .... ....|C-1 .A.F ....|--- .... ....
....|..|--- .... ....|--- .... ....|--- .... ....
 A#3|..|--- .... ....|A#1 .A.F ....|--- .... ....
....|..|--- .... ....|--- .... ....|--- .... ....
 C-4|..|--- .... ....|C-2 .A.F ....|--- .... ....
....|..|--- .... ....|--- .... ....|--- .... ....
 G-3|..|--- .... ....|G-1 .A.F ....|--- .... ....
....|..|--- .... ....|--- .... ....|--- .... ....
 A#2|..|--- .... ....|A#1 .A.F ....|--- .... ....
....|..|--- .... ....|--- .... ....|--- .... ....
 C-3|..|--- .... ....|C-1 .A.F ....|--- .... ....
....|..|--- .... ....|--- .... ....|--- .... ....
 D#3|..|--- .... ....|D#1 .A.F ....|--- .... ....
....|..|--- .... ....|--- .... ....|--- .... ....
 G-3|..|--- .... ....|G-1 .A.F ....|--- .... ....
....|..|--- .... ....|--- .... ....|--- .... ....
 C-3|..|--- .... ....|C-1 .A.F ....|--- .... ....
....|..|--- .... ....|--- .... ....|--- .... ....
 A#3|..|--- .... ....|A#1 .A.F ....|--- .... ....
....|..|--- .... ....|--- .... ....|--- .... ....
 C-4|..|--- .... ....|C-2 .A.F ....|--- .... ....
....|..|--- .... ....|--- .... ....|--- .... ....
 G-3|..|--- .... ....|G-1 .A.F ....|--- .... ....
....|..|--- .... ....|--- .... ....|--- .... ....
 A#2|..|--- .... ....|A#1 .A.F ....|--- .... ....
....|..|--- .... ....|--- .... ....|--- .... ....
 C-3|..|--- .... ....|C-1 .A.F ....|--- .... ....
....|..|--- .... ....|--- .... ....|--- .... ....
 D#3|..|--- .... ....|D#1 .A.F ....|--- .... ....
....|..|--- .... ....|--- .... ....|--- .... ....
 G-3|..|--- .... ....|G-1 .A.F ....|--- .... ....
....|..|--- .... ....|--- .... ....|--- .... ....
 G#2|..|--- .... ....|G#1 .A.F ....|--- .... ....
....|..|--- .... ....|--- .... ....|--- .... ....
 G-3|..|--- .... ....|G-1 .A.F ....|--- .... ....
....|..|--- .... ....|--- .... ....|--- .... ....
 G#3|..|--- .... ....|G#1 .A.F ....|--- .... ....
....|..|--- .... ....|--- .... ....|--- .... ....
 D#3|..|--- .... ....|D#1 .A.F ....|--- .... ....
....|..|--- .... ....|--- .... ....|--- .... ....
 C-3|..|--- .... ....|C-1 .A.F ....|--- .... ....
....|..|--- .... ....|--- .... ....|--- .... ....
 D#3|..|--- .... ....|D#1 .A.F ....|--- .... ....
....|..|--- .... ....|--- .... ....|--- .... ....
 G-3|..|--- .... ....|G-1 .A.F ....|--- .... ....
....|..|--- .... ....|--- .... ....|--- .... ....
 G#3|..|--- .... ....|G#1 .A.F ....|--- .... ....
....|..|--- .... ....|--- .... ....|--- .... ....
 G#2|..|--- .... ....|G#1 .A.F ....|--- .... ....
....|..|--- .... ....|--- .... ....|--- .... ....
 G-3|..|--- .... ....|G-1 .A.F ....|--- .... ....
....|..|--- .... ....|--- .... ....|--- .... ....
 G#3|..|--- .... ....|G#1 .A.F ....|--- .... ....
....|..|--- .... ....|--- .... ....|--- .... ....
 D#3|..|--- .... ....|D#1 .A.F ....|--- .... ....
....|..|--- .... ....|--- .... ....|--- .... ....
 C-3|..|--- .... ....|C-1 .A.F ....|--- .... ....
....|..|--- .... ....|--- .... ....|--- .... ....
 D#3|..|--- .... ....|D#1 .A.F ....|--- .... ....
....|..|--- .... ....|--- .... ....|--- .... ....
 G-3|..|--- .... ....|G-1 .A.F ....|--- .... ....
....|..|--- .... ....|--- .... ....|--- .... ....
 G#3|..|--- .... ....|G#1 .A.F ....|--- .... ....
....|..|--- .... ....|--- .... ....|--- .... ....

[Pattern24]
 A#2|..|--- .... ....|A#1 .A.F ....|--- .... ....
....|..|--- .... ....|--- .... ....|--- .... ....
 G#3|..|--- .... ....|G#1 .A.F ....|--- .... ....
....|..|--- .... ....|--- .... ....|--- .... ....
 A#3|..|--- .... ....|A#1 .A.F ....|--- .... ....
....|..|--- .... ....|--- .... ....|--- .... ....
 F-3|..|--- .... ....|F-1 .A.F ....|--- .... ....
....|..|--- .... ....|--- .... ....|--- .... ....
 D-3|..|--- .... ....|D-1 .A.F ....|--- .... ....
....|..|--- .... ....|--- .... ....|--- .... ....
 F-3|..|--- .... ....|F-1 .A.F ....|--- .... ....
....|..|--- .... ....|--- .... ....|--- .... ....
 G#3|..|--- .... ....|G#1 .A.F ....|--- .... ....
....|..|--- .... ....|--- .... ....|--- .... ....
 A#3|..|--- .... ....|A#1 .A.F ....|--- .... ....
....|..|--- .... ....|--- .... ....|--- .... ....
 A#2|..|--- .... ....|A#1 .A.F ....|--- .... ....
....|..|--- .... ....|--- .... ....|--- .... ....
 G#3|..|--- .... ....|G#1 .A.F ....|--- .... ....
....|..|--- .... ....|--- .... ....|--- .... ....
 A#3|..|--- .... ....|A#1 .A.F ....|--- .... ....
....|..|--- .... ....|--- .... ....|--- .... ....
 F-3|..|--- .... ....|F-1 .A.F ....|--- .... ....
....|..|--- .... ....|--- .... ....|--- .... ....
 D-3|..|--- .... ....|D-1 .A.F ....|--- .... ....
....|..|--- .... ....|--- .... ....|--- .... ....
 F-3|..|--- .... ....|F-1 .A.F ....|--- .... ....
....|..|--- .... ....|--- .... ....|--- .... ....
 G#3|..|--- .... ....|G#1 .A.F ....|--- .... ....
....|..|--- .... ....|--- .... ....|--- .... ....
 A#3|..|--- .... ....|A#1 .A.F ....|--- .... ....
....|..|--- .... ....|--- .... ....|--- .... ....
 C-3|..|--- .... ....|C-1 .A.F ....|--- .... ....
....|..|--- .... ....|--- .... ....|--- .... ....
 A#3|..|--- .... ....|A#1 .A.F ....|--- .... ....
....|..|--- .... ....|--- .... ....|--- .... ....
 C-4|..|--- .... ....|C-2 .A.F ....|--- .... ....
....|..|--- .... ....|--- .... ....|--- .... ....
 G-3|..|--- .... ....|G-1 .A.F ....|--- .... ....
....|..|--- .... ....|--- .... ....|--- .... ....
 A#2|..|--- .... ....|A#1 .A.F ....|--- .... ....
....|..|--- .... ....|--- .... ....|--- .... ....
 C-3|..|--- .... ....|C-1 .A.F ....|--- .... ....
....|..|--- .... ....|--- .... ....|--- .... ....
 D#3|..|--- .... ....|D#1 .A.F ....|--- .... ....
....|..|--- .... ....|--- .... ....|--- .... ....
 G-3|..|--- .... ....|G-1 .A.F ....|--- .... ....
....|..|--- .... ....|--- .... ....|--- .... ....
 C-3|..|--- .... ....|C-1 .A.F ....|--- .... ....
....|..|--- .... ....|--- .... ....|--- .... ....
 A#3|..|--- .... ....|A#1 .A.F ....|--- .... ....
....|..|--- .... ....|--- .... ....|--- .... ....
 C-4|..|--- .... ....|C-2 .A.F ....|--- .... ....
....|..|--- .... ....|--- .... ....|--- .... ....
 G-3|..|--- .... ....|G-1 .A.F ....|--- .... ....
....|..|--- .... ....|--- .... ....|--- .... ....
 A#2|..|--- .... ....|A#1 .A.F ....|--- .... ....
....|..|--- .... ....|--- .... ....|--- .... ....
 C-3|..|--- .... ....|C-1 .A.F ....|--- .... ....
....|..|--- .... ....|--- .... ....|--- .... ....
 D#3|..|--- .... ....|D#1 .A.F ....|--- .... ....
....|..|--- .... ....|--- .... ....|--- .... ....
 G-3|..|--- .... ....|G-1 .A.F ....|--- .... ....
....|..|--- .... ....|--- .... ....|--- .... ....

[Pattern26]
 A#2|..|--- .... ....|A#1 .A.F ....|--- .... ....
....|..|--- .... ....|--- .... ....|--- .... ....
 G#3|..|--- .... ....|G#1 .A.F ....|--- .... ....
....|..|--- .... ....|--- .... ....|--- .... ....
 A#3|..|--- .... ....|A#1 .A.F ....|--- .... ....
....|..|--- .... ....|--- .... ....|--- .... ....
 F-3|..|--- .... ....|F-1 .A.F ....|--- .... ....
....|..|--- .... ....|--- .... ....|--- .... ....
 D-3|..|--- .... ....|D-1 .A.F ....|--- .... ....
....|..|--- .... ....|--- .... ....|--- .... ....
 F-3|..|--- .... ....|F-1 .A.F ....|--- .... ....
....|..|--- .... ....|--- .... ....|--- .... ....
 G#3|..|--- .... ....|G#1 .A.F ....|--- .... ....
....|..|--- .... ....|--- .... ....|--- .... ....
 A#3|..|--- .... ....|A#1 .A.F ....|--- .... ....
....|..|--- .... ....|--- .... ....|--- .... ....
 A#2|..|--- .... ....|A#1 .A.F ....|--- .... ....
....|..|--- .... ....|--- .... ....|--- .... ....
 G#3|..|--- .... ....|G#1 .A.F ....|--- .... ....
....|..|--- .... ....|--- .... ....|--- .... ....
 A#3|..|--- .... ....|A#1 .A.F ....|--- .... ....
....|..|--- .... ....|--- .... ....|--- .... ....
 F-3|..|--- .... ....|F-1 .A.F ....|--- .... ....
....|..|--- .... ....|--- .... ....|--- .... ....
 D-3|..|--- .... ....|D-1 .A.F ....|--- .... ....
....|..|--- .... ....|--- .... ....|--- .... ....
 F-3|..|--- .... ....|F-1 .A.F ....|--- .... ....
....|..|--- .... ....|--- .... ....|--- .... ....
 G#3|..|--- .... ....|G#1 .A.F ....|--- .... ....
....|..|--- .... ....|--- .... ....|--- .... ....
 A#3|..|--- .... ....|A#1 .A.F ....|--- .... ....
....|..|--- .... ....|--- .... ....|--- .... ....
 F-3|..|--- .... ....|F-1 .A.F ....|D#4 .FDF ....
....|..|--- .... ....|--- .... ....|--- .... ....
 F-3|..|--- .... ....|F-1 .F.7 ....|--- .... ....
....|..|--- .... ....|--- .... ....|--- .... ....
 F-3|..|--- .... ....|F-1 .A.F ....|D#4 .FDF ....
....|..|--- .... ....|--- .... ....|--- .... ....
 A#3|..|--- .... ....|A#1 .F.7 ....|--- .... ....
....|..|--- .... ....|--- .... ....|--- .... ....
 A#2|..|--- .... ....|A#1 .F.7 ....|--- .... ....
....|..|--- .... ....|R-- .... ....|--- .... ....
 F-3|..|--- .... ....|F-1 .A.F ....|D#4 .FDF ....
....|..|--- .... ....|R-- .... ....|--- .... ....
 F-3|..|--- .... ....|F-1 .A.F ....|D#4 .FDA ....
....|..|--- .... ....|R-- .... ....|--- .... ....
 F-3|..|--- .... ....|F-1 .A.F ....|--- .... ....
....|..|--- .... ....|R-- .... ....|--- .... ....
 F-3|..|--- .... ....|F-1 .A.F ....|D#4 .FDF ....
....|..|--- .... ....|--- .... ....|--- .... ....
 F-3|..|--- .... ....|F-1 .F.7 ....|--- .... ....
....|..|--- .... ....|--- .... ....|--- .... ....
 F-3|..|--- .... ....|F-1 .A.F ....|--- .... ....
....|..|--- .... ....|R-- .... ....|--- .... ....
 A#3|..|--- .... ....|A#1 .F.7 ....|D#4 .FDF ....
....|..|--- .... ....|R-- .... ....|--- .... ....
 F-3|..|--- .... ....|F-1 .F.7 ....|D#4 .FD7 ....
....|..|--- .... ....|R-- .... ....|--- .... ....
 F-3|..|--- .... ....|F-1 .A.F ....|--- .... ....
....|..|--- .... ....|R-- .... ....|--- .... ....
 F-3|..|--- .... ....|F-1 .A.F ....|D#4 .FDF ....
....|..|--- .... ....|R-- .... ....|--- .... ....
 F-3|..|--- .... ....|F-1 .A.F ....|--- .... ....
....|..|--- .... ....|R-- .... ....|--- .... ....

[Pattern27]
 G-3|..|--- .... ....|G-1 .A.F ....|D-4 .FEF ....
....|..|--- .... ....|R-- .... ....|--- .... ....
 F-3|..|--- .... ....|F-1 .F.7 ....|D#4 .FD7 ....
....|..|--- .... ....|R-- .... ....|--- .... ....
 G-3|..|--- .... ....|G-1 .A.F ....|D-4 .FEF ....
....|..|--- .... ....|R-- .... ....|--- .... ....
 F-3|..|--- .... ....|F-1 .F.7 ....|--- .... ....
....|..|--- .... ....|R-- .... ....|--- .... ....
 F-3|..|--- .... ....|F-1 .F.7 ....|D#4 .FD7 ....
....|..|--- .... ....|R-- .... ....|--- .... ....
 G-3|..|--- .... ....|G-1 .A.F ....|D-4 .FEF ....
....|..|--- .... ....|R-- .... ....|--- .... ....
 G-3|..|--- .... ....|G-1 .A.F ....|D-4 .FEA ....
....|..|--- .... ....|R-- .... ....|--- .... ....
 G-3|..|--- .... ....|G-1 .A.F ....|D#4 .FD7 ....
....|..|--- .... ....|R-- .... ....|--- .... ....
 G-3|..|--- .... ....|G-1 .A.F ....|D-4 .FEF ....
....|..|--- .... ....|R-- .... ....|--- .... ....
 F-3|..|--- .... ....|F-1 .F.7 ....|--- .... ....
....|..|--- .... ....|R-- .... ....|--- .... ....
 G-3|..|--- .... ....|G-1 .A.F ....|D#4 .FD7 ....
....|..|--- .... ....|R-- .... ....|--- .... ....
 F-3|..|--- .... ....|F-1 .F.7 ....|D-4 .FEF ....
....|..|--- .... ....|R-- .... ....|--- .... ....
 G-3|..|--- .... ....|G-1 .F.7 ....|D-4 .FE7 ....
....|..|--- .... ....|R-- .... ....|--- .... ....
 G-3|..|--- .... ....|G-1 .A.F ....|--- .... ....
....|..|--- .... ....|R-- .... ....|--- .... ....
 G-3|..|--- .... ....|G-1 .A.F ....|D-4 .FEF ....
....|..|--- .... ....|R-- .... ....|--- .... ....
 G-3|..|--- .... ....|G-1 .A.F ....|--- .... ....
....|..|--- .... ....|R-- .... ....|--- .... ....
 G#3|..|--- .... ....|G#1 .A.F ....|D#4 .FFF ....
....|..|--- .... ....|R-- .... ....|--- .... ....
 G-3|..|--- .... ....|G-1 .F.7 ....|D-4 .FE7 ....
....|..|--- .... ....|R-- .... ....|--- .... ....
 G#3|..|--- .... ....|G#1 .A.F ....|D#4 .FFF ....
....|..|--- .... ....|R-- .... ....|--- .... ....
 G-3|..|--- .... ....|G-1 .F.7 ....|--- .... ....
....|..|--- .... ....|R-- .... ....|--- .... ....
 G-3|..|--- .... ....|G-1 .F.7 ....|D-4 .FE7 ....
....|..|--- .... ....|R-- .... ....|--- .... ....
 G#3|..|--- .... ....|G#1 .A.F ....|D#4 .FFF ....
....|..|--- .... ....|R-- .... ....|--- .... ....
 G#3|..|--- .... ....|G#1 .A.F ....|D#4 .FFA ....
....|..|--- .... ....|R-- .... ....|--- .... ....
 G#3|..|--- .... ....|G#1 .A.F ....|D-4 .FE7 ....
....|..|--- .... ....|R-- .... ....|--- .... ....
 G#3|..|--- .... ....|G#1 .A.F ....|D#4 .FFF ....
....|..|--- .... ....|R-- .... ....|--- .... ....
 G-3|..|--- .... ....|G-1 .F.7 ....|--- .... ....
....|..|--- .... ....|R-- .... ....|--- .... ....
 G#3|..|--- .... ....|G#1 .A.F ....|D-4 .FE7 ....
....|..|--- .... ....|R-- .... ....|--- .... ....
 G-3|..|--- .... ....|G-1 .F.7 ....|D#4 .FFF ....
....|..|--- .... ....|R-- .... ....|--- .... ....
 G#3|..|--- .... ....|G#1 .F.7 ....|D#4 .FF7 ....
....|..|--- .... ....|R-- .... ....|--- .... ....
 G#3|..|--- .... ....|G#1 .A.F ....|--- .... ....
....|..|--- .... ....|R-- .... ....|--- .... ....
 G#3|..|--- .... ....|G#1 .A.F ....|D#4 .FFF ....
....|..|--- .... ....|R-- .... ....|--- .... ....
 G#3|..|--- .... ....|G#1 .A.F ....|--- .... ....
....|..|--- .... ....|R-- .... ....|--- .... ....

[Pattern28]
 G-3|..|--- .... ....|G-1 .A.F ....|D-4 .FEF ....
....|..|--- .... ....|R-- .... ....|--- .... ....
 G#3|..|--- .... ....|G#1 .F.7 ....|D#4 .FF7 ....
....|..|--- .... ....|R-- .... ....|--- .... ....
 G-3|..|--- .... ....|G-1 .A.F ....|D-4 .FEF ....
....|..|--- .... ....|R-- .... ....|--- .... ....
 G#3|..|--- .... ....|G#1 .F.7 ....|--- .... ....
....|..|--- .... ....|R-- .... ....|--- .... ....
 G#3|..|--- .... ....|G#1 .F.7 ....|D#4 .FF7 ....
....|..|--- .... ....|R-- .... ....|--- .... ....
 G-3|..|--- .... ....|G-1 .A.F ....|D-4 .FEF ....
....|..|--- .... ....|R-- .... ....|--- .... ....
 G-3|..|--- .... ....|G-1 .A.F ....|D-4 .FEA ....
....|..|--- .... ....|R-- .... ....|--- .... ....
 G-3|..|--- .... ....|G-1 .A.F ....|D#4 .FF7 ....
....|..|--- .... ....|R-- .... ....|--- .... ....
 G-3|..|--- .... ....|G-1 .A.F ....|D-4 .FEF ....
....|..|--- .... ....|R-- .... ....|--- .... ....
 G#3|..|--- .... ....|G#1 .F.7 ....|--- .... ....
....|..|--- .... ....|R-- .... ....|--- .... ....
 G-3|..|--- .... ....|G-1 .A.F ....|D#4 .FF7 ....
....|..|--- .... ....|R-- .... ....|--- .... ....
 G#3|..|--- .... ....|G#1 .F.7 ....|D-4 .FEF ....
....|..|--- .... ....|R-- .... ....|--- .... ....
 G-3|..|--- .... ....|G-1 .F.7 ....|D-4 .FE7 ....
....|..|--- .... ....|R-- .... ....|--- .... ....
 G-3|..|--- .... ....|G-1 .A.F ....|--- .... ....
....|..|--- .... ....|R-- .... ....|--- .... ....
 G-3|..|--- .... ....|G-1 .A.F ....|D-4 .FEF ....
....|..|--- .... ....|R-- .... ....|--- .... ....
 G-3|..|--- .... ....|G-1 .A.F ....|--- .... ....
....|..|--- .... ....|R-- .... ....|--- .... ....
 F-3|..|--- .... ....|F-1 .A.F ....|D#4 .FDF ....
....|..|--- .... ....|R-- .... ....|--- .... ....
 G-3|..|--- .... ....|G-1 .F.7 ....|D-4 .FE7 ....
....|..|--- .... ....|R-- .... ....|--- .... ....
 F-3|..|--- .... ....|F-1 .A.F ....|D#4 .FDF ....
....|..|--- .... ....|R-- .... ....|--- .... ....
 G-3|..|--- .... ....|G-1 .F.7 ....|--- .... ....
....|..|--- .... ....|R-- .... ....|--- .... ....
 G-3|..|--- .... ....|G-1 .F.7 ....|D-4 .FE7 ....
....|..|--- .... ....|R-- .... ....|--- .... ....
 F-3|..|--- .... ....|F-1 .A.F ....|D#4 .FDF ....
....|..|--- .... ....|R-- .... ....|--- .... ....
 F-3|..|--- .... ....|F-1 .A.F ....|D#4 .FDA ....
....|..|--- .... ....|R-- .... ....|--- .... ....
 F-3|..|--- .... ....|F-1 .A.F ....|D-4 .FE7 ....
....|..|--- .... ....|R-- .... ....|--- .... ....
 F-3|..|--- .... ....|F-1 .A.F ....|D#4 .FDF ....
....|..|--- .... ....|R-- .... ....|--- .... ....
 G-3|..|--- .... ....|G-1 .F.7 ....|--- .... ....
....|..|--- .... ....|R-- .... ....|--- .... ....
 F-3|..|--- .... ....|F-1 .A.F ....|D-4 .FE7 ....
....|..|--- .... ....|R-- .... ....|--- .... ....
 G-3|..|--- .... ....|G-1 .F.7 ....|D#4 .FDF ....
....|..|--- .... ....|R-- .... ....|--- .... ....
 F-3|..|--- .... ....|F-1 .F.7 ....|D#4 .FD7 ....
....|..|--- .... ....|R-- .... ....|--- .... ....
 F-3|..|--- .... ....|F-1 .A.F ....|--- .... ....
....|..|--- .... ....|R-- .... ....|--- .... ....
 F-3|..|--- .... ....|F-1 .A.F ....|D#4 .FDF ....
....|..|--- .... ....|R-- .... ....|--- .... ....
 F-3|..|--- .... ....|F-1 .A.F ....|--- .... ....
....|..|--- .... ....|R-- .... ....|--- .... ....

[Pattern30]
 A#3|..|--- .... ....|A#1 .A.F ....|D-4 .F8F ....
....|..|--- .... ....|R-- .... ....|--- .... ....
 G#3|..|--- .... ....|G#1 .F.7 ....|D#4 .FF7 ....
....|..|--- .... ....|R-- .... ....|--- .... ....
 A#3|..|--- .... ....|A#1 .A.F ....|D-4 .F8F ....
....|..|--- .... ....|R-- .... ....|--- .... ....
 G#3|..|--- .... ....|G#1 .F.7 ....|--- .... ....
....|..|--- .... ....|R-- .... ....|--- .... ....
 G#3|..|--- .... ....|G#1 .F.7 ....|D#4 .FF7 ....
....|..|--- .... ....|R-- .... ....|--- .... ....
 A#3|..|--- .... ....|A#1 .A.F ....|D-4 .F8F ....
....|..|--- .... ....|R-- .... ....|--- .... ....
 A#3|..|--- .... ....|A#1 .A.F ....|D-4 .F8A ....
....|..|--- .... ....|R-- .... ....|--- .... ....
 A#3|..|--- .... ....|A#1 .A.F ....|D#4 .FF7 ....
....|..|--- .... ....|R-- .... ....|--- .... ....
 A#3|..|--- .... ....|A#1 .A.F ....|D-4 .FCF ....
....|..|--- .... ....|R-- .... ....|--- .... ....
 G#3|..|--- .... ....|G#1 .F.7 ....|--- .... ....
....|..|--- .... ....|R-- .... ....|--- .... ....
 G#3|..|--- .... ....|G#1 .F.7 ....|D#4 .FF7 ....
....|..|--- .... ....|R-- .... ....|--- .... ....
 G#3|..|--- .... ....|G#1 .F.7 ....|D-4 .FCF ....
....|..|--- .... ....|R-- .... ....|--- .... ....
 B-3|..|--- .... ....|B-1 .A.F ....|D-4 .F87 ....
....|..|--- .... ....|R-- .... ....|--- .... ....
....|..|--- .... ....|R-- .... ....|--- .... ....
....|..|--- .... ....|R-- .... ....|--- .... ....
 A#3|..|--- .... ....|A#1 .F.7 ....|D-4 .FCF ....
....|..|--- .... ....|--- .... ....|--- .... ....
....|..|--- .... ....|--- .... ....|--- .... ....
....|..|--- .... ....|--- .... ....|--- .... ....
 C-4|..|--- .... ....|C-2 .A.F ....|R-- .... ....
....|..|--- .... ....|R-- .... ....|--- .... ....
 A#3|..|--- .... ....|A#1 .F.7 ....|D-4 .F87 ....
....|..|--- .... ....|R-- .... ....|--- .... ....
 C-4|..|--- .... ....|C-2 .A.F ....|--- .... ....
....|..|--- .... ....|R-- .... ....|--- .... ....
 A#3|..|--- .... ....|A#1 .F.7 ....|--- .... ....
....|..|--- .... ....|R-- .... ....|--- .... ....
 C-4|..|--- .... ....|C-2 .A.F ....|D-4 .FC7 ....
....|..|--- .... ....|--- .... ....|--- .... ....
....|..|--- .... ....|--- .... ....|--- .... ....
....|..|--- .... ....|R-- .... ....|--- .... ....
 D-4|..|--- .... ....|D-2 .A.F ....|R-- .... ....
....|..|--- .... ....|--- .... ....|--- .... ....
 D#4|..|--- .... ....|D#2 .A.F ....|D-4 .FC7 ....
....|..|--- .... ....|R-- .... ....|--- .... ....
 F-4|..|--- .... ....|F-2 .A.F ....|--- .... ....
....|..|--- .... ....|--- .... ....|--- .... ....
 F-4|..|--- .... ....|F-2 .A.F ....|--- .... ....
....|..|--- .... ....|R-- .... ....|--- .... ....
 C-4|..|--- .... ....|C-2 .F.A ....|D-4 .FC7 ....
....|..|--- .... ....|R-- .... ....|--- .... ....
 F-4|..|--- .... ....|F-2 .A.F ....|--- .... ....
....|..|--- .... ....|R-- .... ....|--- .... ....
 D#4|..|--- .... ....|D#2 .A.F ....|R-- .... ....
....|..|--- .... ....|--- .... ....|--- .... ....
 D#4|..|--- .... ....|D#2 .F.A ....|--- .... ....
....|..|--- .... ....|R-- .... ....|--- .... ....
 C-4|..|--- .... ....|C-2 .A.F ....|--- .... ....
....|..|--- .... ....|--- .... ....|--- .... ....
 F-4|..|--- .... ....|F-2 .F.A ....|--- .... ....
....|..|--- .... ....|R-- .... ....|--- .... ....

[Pattern32]
 A#3|..|--- .... ....|A#1 .A.F ....|--- .... ....
....|..|--- .... ....|R-- .... ....|--- .... ....
 F-4|..|--- .... ....|F-2 .F.A ....|--- .... ....
....|..|--- .... ....|R-- .... ....|--- .... ....
 A#3|..|--- .... ....|A#1 .A.F ....|--- .... ....
....|..|--- .... ....|--- .... ....|--- .... ....
 D#4|..|--- .... ....|D#2 .F.7 ....|--- .... ....
....|..|--- .... ....|R-- .... ....|--- .... ....
 A#3|..|--- .... ....|A#1 .A.F ....|--- .... ....
....|..|--- .... ....|--- .... ....|--- .... ....
 F-4|..|--- .... ....|F-2 .F.7 ....|--- .... ....
....|..|--- .... ....|R-- .... ....|--- .... ....
 A#3|..|--- .... ....|A#1 .A.F ....|--- .... ....
....|..|--- .... ....|R-- .... ....|--- .... ....
 F-4|..|--- .... ....|F-2 .F.7 ....|--- .... ....
....|..|--- .... ....|R-- .... ....|--- .... ....
 C-4|..|--- .... ....|C-2 .A.F ....|--- .... ....
....|..|--- .... ....|--- .... ....|--- .... ....
 C-4|..|--- .... ....|C-2 .A.F ....|--- .... ....
....|..|--- .... ....|R-- .... ....|--- .... ....
 C-4|..|--- .... ....|C-2 .F.7 ....|--- .... ....
....|..|--- .... ....|R-- .... ....|--- .... ....
 C-4|..|--- .... ....|C-2 .A.F ....|--- .... ....
....|..|--- .... ....|R-- .... ....|--- .... ....
 A#3|..|--- .... ....|A#1 .A.F ....|--- .... ....
....|..|--- .... ....|--- .... ....|--- .... ....
....|..|--- .... ....|--- .... ....|--- .... ....
....|..|--- .... ....|R-- .... ....|--- .... ....
 C-4|..|--- .... ....|C-2 .A.F ....|--- .... ....
....|..|--- .... ....|--- .... ....|--- .... ....
 C-4|..|--- .... ....|C-2 .F.A ....|--- .... ....
....|..|--- .... ....|R-- .... ....|--- .... ....
 C-4|..|--- .... ....|C-2 .A.F ....|--- .... ....
....|..|--- .... ....|R-- .... ....|--- .... ....
 C-4|..|--- .... ....|C-2 .F.A ....|--- .... ....
....|..|--- .... ....|R-- .... ....|--- .... ....
 C-4|..|--- .... ....|C-2 .A.F ....|--- .... ....
....|..|--- .... ....|--- .... ....|--- .... ....
....|..|--- .... ....|--- .... ....|--- .... ....
....|..|--- .... ....|R-- .... ....|--- .... ....
 C-4|..|--- .... ....|C-2 .A.F ....|--- .... ....
....|..|--- .... ....|--- .... ....|--- .... ....
 C-4|..|--- .... ....|C-2 .F.7 ....|--- .... ....
....|..|--- .... ....|R-- .... ....|--- .... ....
 D-4|..|--- .... ....|D-2 .A.F ....|--- .... ....
....|..|--- .... ....|R-- .... ....|--- .... ....
 D#4|..|--- .... ....|D#2 .A.F ....|--- .... ....
....|..|--- .... ....|R-- .... ....|--- .... ....
 F-4|..|--- .... ....|F-2 .A.F ....|--- .... ....
....|..|--- .... ....|--- .... ....|--- .... ....
 F-4|..|--- .... ....|F-2 .A.F ....|--- .... ....
....|..|--- .... ....|R-- .... ....|--- .... ....
 C-4|..|--- .... ....|C-2 .F.7 ....|--- .... ....
....|..|--- .... ....|R-- .... ....|--- .... ....
 F-4|..|--- .... ....|F-2 .A.F ....|--- .... ....
....|..|--- .... ....|R-- .... ....|--- .... ....
 D#4|..|--- .... ....|D#2 .A.F ....|--- .... ....
....|..|--- .... ....|--- .... ....|--- .... ....
 D#4|..|--- .... ....|D#2 .F.A ....|--- .... ....
....|..|--- .... ....|R-- .... ....|--- .... ....
 C-4|..|--- .... ....|C-2 .A.F ....|--- .... ....
....|..|--- .... ....|--- .... ....|--- .... ....
 F-4|..|--- .... ....|F-2 .F.A ....|--- .... ....
....|..|--- .... ....|R-- .... ....|--- .... ....

[Pattern34]
 A#3|..|--- .... ....|A#1 .A.F ....|--- .... ....
....|..|--- .... ....|R-- .... ....|--- .... ....
 F-4|..|--- .... ....|F-2 .F.A ....|--- .... ....
....|..|--- .... ....|R-- .... ....|--- .... ....
 A#3|..|--- .... ....|A#1 .A.F ....|--- .... ....
....|..|--- .... ....|--- .... ....|--- .... ....
 D#4|..|--- .... ....|D#2 .F.7 ....|--- .... ....
....|..|--- .... ....|R-- .... ....|--- .... ....
 A#3|..|--- .... ....|A#1 .A.F ....|--- .... ....
....|..|--- .... ....|--- .... ....|--- .... ....
 F-4|..|--- .... ....|F-2 .F.7 ....|--- .... ....
....|..|--- .... ....|R-- .... ....|--- .... ....
 A#3|..|--- .... ....|A#1 .A.F ....|--- .... ....
....|..|--- .... ....|R-- .... ....|--- .... ....
 F-4|..|--- .... ....|F-2 .F.7 ....|--- .... ....
....|..|--- .... ....|R-- .... ....|--- .... ....
 C-4|..|--- .... ....|C-2 .A.F ....|--- .... ....
....|..|--- .... ....|--- .... ....|--- .... ....
....|..|--- .... ....|--- .... ....|--- .... ....
....|..|--- .... ....|R-- .... ....|--- .... ....
 C-4|..|--- .... ....|C-2 .A.F ....|--- .... ....
....|..|--- .... ....|--- .... ....|--- .... ....
....|..|--- .... ....|--- .... ....|--- .... ....
....|..|--- .... ....|R-- .... ....|--- .... ....
 C-4|..|--- .... ....|C-2 .A.F ....|--- .... ....
....|..|--- .... ....|--- .... ....|--- .... ....
....|..|--- .... ....|--- .... ....|--- .... ....
....|..|--- .... ....|R-- .... ....|--- .... ....
 C-4|..|--- .... ....|C-2 .A.F ....|--- .... ....
....|..|--- .... ....|--- .... ....|--- .... ....
....|..|--- .... ....|--- .... ....|--- .... ....
....|..|--- .... ....|R-- .... ....|--- .... ....
 D#4|..|--- .... ....|D#2 .A.F ....|A#3 .F1F ....
....|..|--- .... ....|--- .... ....|--- .... ....
....|..|--- .... ....|--- .... ....|--- .... ....
....|..|--- .... ....|R-- .... ....|--- .... ....
 A#3|..|--- .... ....|A#1 .F.7 ....|--- .... ....
....|..|--- .... ....|--- .... ....|--- .... ....
....|..|--- .... ....|--- .... ....|--- .... ....
....|..|--- .... ....|R-- .... ....|--- .... ....
 C-4|..|D#4 ...F ....|C-2 .F.7 ....|--- .... ....
....|..|--- .... ....|--- .... ....|--- .... ....
....|..|--- .... ....|--- .... ....|--- .... ....
....|..|--- .... ....|R-- .... ....|--- .... ....
 C-4|..|R-- .... ....|C-2 .F.7 ....|A#3 .F1A ....
....|..|--- .... ....|--- .... ....|--- .... ....
....|..|A#3 ...F ....|--- .... ....|--- .... ....
....|..|--- .... ....|R-- .... ....|--- .... ....
 C-4|..|--- .... ....|C-2 .F.7 ....|--- .... ....
....|..|--- .... ....|--- .... ....|--- .... ....
....|..|--- .... ....|--- .... ....|--- .... ....
....|..|R-- .... ....|R-- .... ....|--- .... ....
 C-4|..|D#4 ...A ....|C-2 .F.7 ....|--- .... ....
....|..|--- .... ....|--- .... ....|--- .... ....
....|..|--- .... ....|--- .... ....|--- .... ....
....|..|--- .... ....|R-- .... ....|--- .... ....
 D#4|..|R-- .... ....|D#2 .F.7 ....|A#3 .F17 ....
....|..|--- .... ....|--- .... ....|--- .... ....
....|..|A#3 ...A ....|--- .... ....|--- .... ....
....|..|--- .... ....|--- .... ....|--- .... ....
....|..|D#4 ...F ....|--- .... ....|--- .... ....
....|..|--- .... ....|--- .... ....|--- .... ....
....|..|--- .... ....|--- .... ....|--- .... ....
....|..|R-- .... ....|--- .... ....|--- .... ....

[Pattern35]
 A#3|..|D#4 ...F ....|A#1 .A.F ....|A#3 .F2F ....
....|..|--- .... ....|--- .... ....|--- .... ....
....|..|--- .... ....|--- .... ....|--- .... ....
....|..|--- .... ....|--- .... ....|--- .... ....
....|..|R-- .... ....|--- .... ....|--- .... ....
....|..|--- .... ....|--- .... ....|--- .... ....
....|..|F-4 ...F ....|--- .... ....|--- .... ....
....|..|--- .... ....|--- .... ....|--- .... ....
....|..|D#4 ...A ....|--- .... ....|--- .... ....
....|..|--- .... ....|--- .... ....|--- .... ....
....|..|--- .... ....|--- .... ....|--- .... ....
....|..|R-- .... ....|--- .... ....|--- .... ....
 A#3|..|A#3 ...F ....|A#1 .F.A ....|A#3 .F2A ....
....|..|--- .... ....|--- .... ....|--- .... ....
....|..|--- .... ....|--- .... ....|--- .... ....
....|..|--- .... ....|--- .... ....|--- .... ....
....|..|A#3 ...F ....|--- .... ....|--- .... ....
....|..|--- .... ....|--- .... ....|--- .... ....
....|..|F-4 ...A ....|--- .... ....|--- .... ....
....|..|--- .... ....|--- .... ....|--- .... ....
....|..|D#4 ...7 ....|--- .... ....|--- .... ....
....|..|--- .... ....|--- .... ....|--- .... ....
....|..|--- .... ....|--- .... ....|--- .... ....
....|..|R-- .... ....|--- .... ....|--- .... ....
 A#3|..|D#4 ...7 ....|A#1 .F.7 ....|A#3 .F27 ....
....|..|--- .... ....|--- .... ....|--- .... ....
....|..|--- .... ....|--- .... ....|--- .... ....
....|..|--- .... ....|--- .... ....|--- .... ....
....|..|A#3 ...F ....|--- .... ....|--- .... ....
....|..|--- .... ....|--- .... ....|--- .... ....
....|..|F-4 ...7 ....|--- .... ....|--- .... ....
....|..|--- .... ....|--- .... ....|--- .... ....
 C-4|..|G-4 ...F ....|C-2 .A.F ....|C-4 .F3F ....
....|..|--- .... ....|--- .... ....|--- .... ....
....|..|--- .... ....|--- .... ....|--- .... ....
....|..|--- .... ....|--- .... ....|--- .... ....
....|..|A#3 ...7 ....|--- .... ....|--- .... ....
....|..|--- .... ....|--- .... ....|--- .... ....
....|..|G#4 ...F ....|--- .... ....|--- .... ....
....|..|--- .... ....|--- .... ....|--- .... ....
....|..|A#3 ...7 ....|--- .... ....|--- .... ....
....|..|--- .... ....|--- .... ....|--- .... ....
....|..|--- .... ....|--- .... ....|--- .... ....
....|..|--- .... ....|--- .... ....|--- .... ....
 C-4|..|G-4 ...F ....|C-2 .F.A ....|C-4 .F3A ....
....|..|--- .... ....|--- .... ....|--- .... ....
....|..|--- .... ....|--- .... ....|--- .... ....
....|..|--- .... ....|--- .... ....|--- .... ....
 A#3|..|F-4 ...F ....|A#1 .A.F ....|D-4 .F4F ....
....|..|--- .... ....|--- .... ....|--- .... ....
....|..|G#4 ...A ....|--- .... ....|--- .... ....
....|..|--- .... ....|--- .... ....|--- .... ....
....|..|A#3 ...7 ....|--- .... ....|--- .... ....
....|..|--- .... ....|--- .... ....|--- .... ....
....|..|D#4 ...F ....|--- .... ....|--- .... ....
....|..|--- .... ....|--- .... ....|--- .... ....
 C-4|..|G-4 ...7 ....|C-2 .F.7 ....|C-4 .F37 ....
....|..|--- .... ....|--- .... ....|--- .... ....
....|..|--- .... ....|--- .... ....|--- .... ....
....|..|--- .... ....|--- .... ....|--- .... ....
 A#3|..|F-4 ...F ....|A#1 .F.A ....|D-4 .F4A ....
....|..|--- .... ....|--- .... ....|--- .... ....
....|..|G#4 ...7 ....|--- .... ....|--- .... ....
....|..|--- .... ....|--- .... ....|--- .... ....

[Pattern38]
 G-3|..|C-4 ...F ....|G-1 .A.F ....|C-4 .F7F ....
....|..|--- .... ....|--- .... ....|--- .... ....
....|..|--- .... ....|--- .... ....|--- .... ....
....|..|--- .... ....|--- .... ....|--- .... ....
....|..|E-4 ...7 ....|--- .... ....|--- .... ....
....|..|--- .... ....|--- .... ....|--- .... ....
....|..|--- .... ....|--- .... ....|--- .... ....
....|..|--- .... ....|--- .... ....|--- .... ....
....|..|F-4 ...7 ....|--- .... ....|--- .... ....
....|..|--- .... ....|--- .... ....|--- .... ....
....|..|--- .... ....|--- .... ....|--- .... ....
....|..|--- .... ....|--- .... ....|--- .... ....
 G-3|..|D-4 ...F ....|G-1 .F.A ....|C-4 .F7A ....
....|..|--- .... ....|--- .... ....|--- .... ....
....|..|--- .... ....|--- .... ....|--- .... ....
....|..|--- .... ....|--- .... ....|--- .... ....
 G-4|..|D-4 ...F ....|G-2 .A.F ....|B-3 .F8F ....
....|..|--- .... ....|--- .... ....|--- .... ....
....|..|--- .... ....|--- .... ....|--- .... ....
....|..|--- .... ....|--- .... ....|--- .... ....
....|..|--- .... ....|--- .... ....|--- .... ....
....|..|--- .... ....|--- .... ....|--- .... ....
....|..|--- .... ....|--- .... ....|--- .... ....
....|..|--- .... ....|--- .... ....|--- .... ....
 G-3|..|C-4 ...7 ....|G-1 .F.7 ....|C-4 .F77 ....
....|..|--- .... ....|--- .... ....|--- .... ....
....|..|--- .... ....|--- .... ....|--- .... ....
....|..|--- .... ....|--- .... ....|--- .... ....
 G-4|..|D-4 ...A ....|G-2 .F.A ....|B-3 .F8A ....
....|..|--- .... ....|--- .... ....|--- .... ....
....|..|--- .... ....|--- .... ....|--- .... ....
....|..|--- .... ....|--- .... ....|--- .... ....
 D#4|..|--- .... ....|D#2 .A.F ....|A#3 .F1F ....
....|..|--- .... ....|--- .... ....|--- .... ....
....|..|--- .... ....|--- .... ....|--- .... ....
....|..|--- .... ....|--- .... ....|--- .... ....
....|..|D-4 ...7 ....|--- .... ....|--- .... ....
....|..|--- .... ....|--- .... ....|--- .... ....
....|..|--- .... ....|--- .... ....|--- .... ....
....|..|--- .... ....|--- .... ....|--- .... ....
 G-4|..|D#4 ...F ....|G-2 .F.7 ....|B-3 .F87 ....
....|..|--- .... ....|--- .... ....|--- .... ....
....|..|--- .... ....|--- .... ....|--- .... ....
....|..|--- .... ....|--- .... ....|--- .... ....
 D#4|..|A#3 ...F ....|D#2 .F.A ....|A#3 .F1A ....
....|..|--- .... ....|--- .... ....|--- .... ....
....|..|A#3 ...F ....|--- .... ....|--- .... ....
....|..|--- .... ....|--- .... ....|--- .... ....
....|..|R-- .... ....|--- .... ....|--- .... ....
....|..|--- .... ....|--- .... ....|--- .... ....
....|..|--- .... ....|--- .... ....|--- .... ....
....|..|--- .... ....|--- .... ....|--- .... ....
....|..|R-- .... ....|--- .... ....|--- .... ....
....|..|--- .... ....|--- .... ....|--- .... ....
....|..|--- .... ....|--- .... ....|--- .... ....
....|..|--- .... ....|--- .... ....|--- .... ....
 D#4|..|A#3 ...A ....|D#2 .F.7 ....|A#3 .F17 ....
....|..|--- .... ....|--- .... ....|--- .... ....
....|..|A#3 ...A ....|--- .... ....|--- .... ....
....|..|--- .... ....|--- .... ....|--- .... ....
....|..|D#4 ...F ....|--- .... ....|--- .... ....
....|..|--- .... ....|--- .... ....|--- .... ....
....|..|--- .... ....|--- .... ....|--- .... ....
....|..|R-- .... ....|--- .... ....|--- .... ....

[Pattern39]
 A#3|..|D#4 ...F ....|A#1 .A.F ....|A#3 .F2F ....
....|..|--- .... ....|--- .... ....|--- .... ....
....|..|--- .... ....|--- .... ....|--- .... ....
....|..|--- .... ....|--- .... ....|--- .... ....
....|..|A#3 ...7 ....|--- .... ....|--- .... ....
....|..|--- .... ....|--- .... ....|--- .... ....
....|..|F-4 ...F ....|--- .... ....|--- .... ....
....|..|--- .... ....|--- .... ....|--- .... ....
....|..|D#4 ...A ....|--- .... ....|--- .... ....
....|..|--- .... ....|--- .... ....|--- .... ....
....|..|--- .... ....|--- .... ....|--- .... ....
....|..|R-- .... ....|--- .... ....|--- .... ....
 A#3|..|A#3 ...F ....|A#1 .F.A ....|A#3 .F2A ....
....|..|--- .... ....|--- .... ....|--- .... ....
....|..|--- .... ....|--- .... ....|--- .... ....
....|..|--- .... ....|--- .... ....|--- .... ....
....|..|A#3 ...F ....|--- .... ....|--- .... ....
....|..|--- .... ....|--- .... ....|--- .... ....
....|..|F-4 ...A ....|--- .... ....|--- .... ....
....|..|--- .... ....|--- .... ....|--- .... ....
....|..|D#4 ...7 ....|--- .... ....|--- .... ....
....|..|--- .... ....|--- .... ....|--- .... ....
....|..|--- .... ....|--- .... ....|--- .... ....
....|..|R-- .... ....|--- .... ....|--- .... ....
 A#3|..|D#4 ...7 ....|A#1 .F.7 ....|A#3 .F27 ....
....|..|--- .... ....|--- .... ....|--- .... ....
....|..|--- .... ....|--- .... ....|--- .... ....
....|..|--- .... ....|--- .... ....|--- .... ....
....|..|A#3 ...F ....|--- .... ....|--- .... ....
....|..|--- .... ....|--- .... ....|--- .... ....
....|..|F-4 ...7 ....|--- .... ....|--- .... ....
....|..|--- .... ....|--- .... ....|--- .... ....
 C-4|..|G-4 ...F ....|C-2 .A.F ....|C-4 .F3F ....
....|..|--- .... ....|--- .... ....|--- .... ....
....|..|--- .... ....|--- .... ....|--- .... ....
....|..|--- .... ....|--- .... ....|--- .... ....
....|..|A#3 ...7 ....|--- .... ....|--- .... ....
....|..|--- .... ....|--- .... ....|--- .... ....
....|..|G#4 ...F ....|--- .... ....|--- .... ....
....|..|--- .... ....|--- .... ....|--- .... ....
....|..|A#3 ...7 ....|--- .... ....|--- .... ....
....|..|--- .... ....|--- .... ....|--- .... ....
....|..|--- .... ....|--- .... ....|--- .... ....
....|..|--- .... ....|--- .... ....|--- .... ....
 C-4|..|G-4 ...F ....|C-2 .F.A ....|C-4 .F3A ....
....|..|--- .... ....|--- .... ....|--- .... ....
....|..|--- .... ....|--- .... ....|--- .... ....
....|..|--- .... ....|--- .... ....|--- .... ....
 A#3|..|F-4 ...F ....|A#1 .A.F ....|D-4 .F4F ....
....|..|--- .... ....|--- .... ....|--- .... ....
....|..|G#4 ...A ....|--- .... ....|--- .... ....
....|..|--- .... ....|--- .... ....|--- .... ....
....|..|A#3 ...7 ....|--- .... ....|--- .... ....
....|..|--- .... ....|--- .... ....|--- .... ....
....|..|D#4 ...F ....|--- .... ....|--- .... ....
....|..|--- .... ....|--- .... ....|--- .... ....
 C-4|..|G-4 ...7 ....|C-2 .F.7 ....|C-4 .F37 ....
....|..|--- .... ....|--- .... ....|--- .... ....
....|..|--- .... ....|--- .... ....|--- .... ....
....|..|--- .... ....|--- .... ....|--- .... ....
 A#3|..|F-4 ...F ....|A#1 .F.A ....|D-4 .F4A ....
....|..|--- .... ....|--- .... ....|--- .... ....
....|..|G#4 ...7 ....|--- .... ....|--- .... ....
....|..|--- .... ....|--- .... ....|--- .... ....

[Pattern52]
 F-3|..|A#4 ...F ....|F-1 .A.F ....|R-- .... ....
....|..|--- .... ....|R-- .... ....|--- .... ....
 F-4|..|F-4 ...A ....|F-2 .F.A ....|D#4 .FB7 ....
....|..|R-- .... ....|R-- .... ....|--- .... ....
 F-3|..|A#4 ...F ....|F-1 .A.F ....|F-4 .F1F ....
....|..|--- .... ....|--- .... ....|--- .... ....
 D#4|..|--- .... ....|D#2 .F.7 ....|R-- .... ....
....|..|R-- .... ....|R-- .... ....|--- .... ....
 G-3|..|G-4 ...F ....|G-1 .A.F ....|F-4 .F37 ....
....|..|--- .... ....|--- .... ....|--- .... ....
 F-4|..|--- .... ....|F-2 .F.7 ....|F-4 .F1F ....
....|..|R-- .... ....|R-- .... ....|--- .... ....
 G-3|..|A#4 ...F ....|G-1 .A.F ....|R-- .... ....
....|..|--- .... ....|R-- .... ....|--- .... ....
 F-4|..|F-4 ...7 ....|F-2 .F.7 ....|F-4 .F37 ....
....|..|R-- .... ....|R-- .... ....|--- .... ....
 G#3|..|A#4 ...F ....|G#1 .A.F ....|D#4 .FBF ....
....|..|--- .... ....|--- .... ....|--- .... ....
....|..|--- .... ....|--- .... ....|R-- .... ....
....|..|R-- .... ....|R-- .... ....|--- .... ....
 G#3|..|D#4 ...7 ....|G#1 .A.F ....|F-4 .F37 ....
....|..|--- .... ....|--- .... ....|--- .... ....
....|..|C-5 ...F ....|--- .... ....|D#4 .FBF ....
....|..|R-- .... ....|R-- .... ....|--- .... ....
 A#3|..|A#4 ...7 ....|A#1 .A.F ....|R-- .... ....
....|..|R-- .... ....|--- .... ....|--- .... ....
....|..|--- .... ....|--- .... ....|--- .... ....
....|..|R-- .... ....|R-- .... ....|--- .... ....
 A#3|..|A#4 ...7 ....|A#1 .A.F ....|F-4 .F17 ....
....|..|--- .... ....|--- .... ....|--- .... ....
....|..|--- .... ....|--- .... ....|R-- .... ....
....|..|R-- .... ....|R-- .... ....|--- .... ....
 G#3|..|D#4 ...F ....|G#1 .A.F ....|G#4 .F2F ....
....|..|--- .... ....|--- .... ....|--- .... ....
....|..|C-5 ...A ....|--- .... ....|F-4 .F17 ....
....|..|R-- .... ....|R-- .... ....|--- .... ....
 G#3|..|A#4 ...7 ....|G#1 .A.F ....|--- .... ....
....|..|R-- .... ....|--- .... ....|--- .... ....
....|..|D#4 ...F ....|--- .... ....|--- .... ....
....|..|R-- .... ....|R-- .... ....|--- .... ....
 G#3|..|A#4 ...7 ....|G#1 .A.F ....|D#4 .FB7 ....
....|..|--- .... ....|--- .... ....|--- .... ....
 G#3|..|--- .... ....|G#1 .A.F ....|--- .... ....
....|..|R-- .... ....|R-- .... ....|--- .... ....
 G#3|..|D-4 ...F ....|G#1 .F.7 ....|G#4 .F2A ....
....|..|--- .... ....|--- .... ....|--- .... ....
 G#3|..|C-5 ...7 ....|G#1 .A.F ....|D#4 .FB7 ....
....|..|R-- .... ....|R-- .... ....|--- .... ....
 G#3|..|D#4 ...F ....|G#1 .A.F ....|--- .... ....
....|..|R-- .... ....|R-- .... ....|--- .... ....
 G#3|..|D#4 ...A ....|G#1 .A.F ....|--- .... ....
....|..|--- .... ....|R-- .... ....|--- .... ....
 A#3|..|--- .... ....|A#1 .F.7 ....|--- .... ....
....|..|R-- .... ....|R-- .... ....|--- .... ....
 G#3|..|D#4 ...F ....|G#1 .A.F ....|--- .... ....
....|..|R-- .... ....|R-- .... ....|--- .... ....
 G#3|..|D#4 ...7 ....|G#1 .A.F ....|G#4 .F27 ....
....|..|--- .... ....|--- .... ....|--- .... ....
 G#3|..|--- .... ....|G#1 .A.F ....|--- .... ....
....|..|R-- .... ....|R-- .... ....|--- .... ....
 G#3|..|D-4 ...F ....|G#1 .F.7 ....|--- .... ....
....|..|R-- .... ....|R-- .... ....|--- .... ....
 G#3|..|D#4 ...7 ....|G#1 .A.F ....|--- .... ....
....|..|R-- .... ....|R-- .... ....|--- .... ....

[Pattern62]
 A#3|..|A#4 ...F ....|A#1 .A.F ....|R-- .... ....
....|..|--- .... ....|R-- .... ....|--- .... ....
 F-4|..|F-4 ...A ....|F-2 .F.A ....|D#4 .FB7 ....
....|..|R-- .... ....|R-- .... ....|--- .... ....
 A#3|..|A#4 ...F ....|A#1 .A.F ....|F-4 .F1F ....
....|..|--- .... ....|--- .... ....|--- .... ....
 D#4|..|--- .... ....|D#2 .F.7 ....|R-- .... ....
....|..|R-- .... ....|R-- .... ....|--- .... ....
 G-3|..|G-4 ...F ....|G-1 .A.F ....|F-4 .F37 ....
....|..|--- .... ....|--- .... ....|--- .... ....
 F-4|..|--- .... ....|F-2 .F.7 ....|F-4 .F1F ....
....|..|R-- .... ....|R-- .... ....|--- .... ....
 A#3|..|A#4 ...F ....|A#1 .A.F ....|R-- .... ....
....|..|--- .... ....|R-- .... ....|--- .... ....
 F-4|..|F-4 ...7 ....|F-2 .F.7 ....|F-4 .F37 ....
....|..|R-- .... ....|R-- .... ....|--- .... ....
 A#3|..|A#4 ...F ....|A#1 .A.F ....|D#4 .FBF ....
....|..|--- .... ....|--- .... ....|--- .... ....
....|..|--- .... ....|--- .... ....|R-- .... ....
....|..|R-- .... ....|R-- .... ....|--- .... ....
 C-4|..|D#4 ...7 ....|C-2 .F.7 ....|F-4 .F37 ....
....|..|--- .... ....|--- .... ....|--- .... ....
 C-4|..|C-5 ...F ....|C-2 .A.F ....|D#4 .FBF ....
....|..|R-- .... ....|R-- .... ....|--- .... ....
 A#3|..|A#4 ...7 ....|A#1 .F.7 ....|R-- .... ....
....|..|R-- .... ....|R-- .... ....|--- .... ....
....|..|--- .... ....|--- .... ....|--- .... ....
....|..|R-- .... ....|R-- .... ....|--- .... ....
 A#3|..|A#4 ...7 ....|A#1 .F.7 ....|F-4 .F17 ....
....|..|--- .... ....|--- .... ....|--- .... ....
....|..|--- .... ....|--- .... ....|R-- .... ....
....|..|R-- .... ....|R-- .... ....|--- .... ....
 G-3|..|G-4 ...7 ....|G-1 .F.7 ....|R-- .... ....
....|..|--- .... ....|--- .... ....|--- .... ....
 C-4|..|C-5 ...A ....|C-2 .F.A ....|F-4 .F17 ....
....|..|R-- .... ....|R-- .... ....|--- .... ....
 A#3|..|A#4 ...7 ....|A#1 .F.7 ....|--- .... ....
....|..|R-- .... ....|R-- .... ....|--- .... ....
....|..|--- .... ....|--- .... ....|--- .... ....
....|..|R-- .... ....|R-- .... ....|--- .... ....
 A#3|..|A#4 ...7 ....|A#1 .F.7 ....|D#4 .FB7 ....
....|..|--- .... ....|--- .... ....|--- .... ....
....|..|--- .... ....|--- .... ....|--- .... ....
....|..|--- .... ....|--- .... ....|--- .... ....
....|..|--- .... ....|--- .... ....|R-- .... ....
....|..|--- .... ....|--- .... ....|--- .... ....
 C-4|..|C-5 ...7 ....|C-2 .F.7 ....|D#4 .FB7 ....
....|..|--- .... ....|--- .... ....|--- .... ....
....|..|--- .... ....|--- .... ....|--- .... ....
....|..|R-- .... ....|R-- .... ....|--- .... ....
....|..|--- .... ....|--- .... ....|--- .... ....
....|..|--- .... ....|--- .... ....|--- .... ....
....|..|--- .... ....|--- .... ....|--- .... ....
....|..|--- .... ....|--- .... ....|--- .... ....
....|..|--- .... ....|--- .... ....|--- .... ....
....|..|--- .... ....|--- .... ....|--- .... ....
