[Module]
VortexTrackerII=0
Version=3.5
Title=1du-2me,3p,4m
Author=oisee ^ 4d 29.05.2010
NoteTable=4
ChipFreq=1750000
Speed=4
PlayOrder=L0,1,2,3,4,5,6,7,8,9,10,11,12,13,14,15,16,17,18,19,20,21,22,23,24,25,26,27,28,29,30,31,32,33,34,35,36,37,38,39,40,41,42



[Sample1]
TnE +000_ +00_ F_
TnE +000_ +00_ F_
TnE +000_ +00_ F_
TnE +000_ +00_ D_
TnE +000_ +00_ B_
TnE +000_ +00_ B_ L

[Sample2]
TnE +000_ +00_ F_ L

[Sample3]
TnE +001_ +00_ F_
TnE +002_ +00_ F_
TnE +001_ +00_ E_
TnE +002_ +00_ E_
TnE +000_ +00_ E_ L
TnE -001_ +00_ E_
TnE -002_ +00_ E_
TnE -001_ +00_ E_
TnE +000_ +00_ E_
TnE +001_ +00_ E_
TnE +002_ +00_ E_
TnE +001_ +00_ E_

[Sample4]
TnE +002_ +00_ D_
TnE +002_ +00_ D_
TnE +002_ +00_ C_
TnE +002_ +00_ B_
TnE +002_ +00_ A_ L
TnE +002_ +00_ A_
TnE +002_ +00_ A_
TnE +002_ +00_ A_
TnE +002_ +00_ A_
TnE +002_ +00_ A_
TnE +002_ +00_ A_
TnE +002_ +00_ A_

[Sample5]
TnE +000_ +00_ F_
TnE +000_ +00_ F_
tne +000_ +00_ 0_ L

[Sample6]
TnE -001_ +00_ F_ L

[Sample7]
TnE +006_ +00_ F_ L

[Sample8]
tNe +000_ +00_ F_
tNe +000_ +00_ B_
tNe +000_ +00_ 7_
tNe +000_ +00_ 6- L

[Sample9]
TnE +080_ +00_ F_
TnE +100_ +00_ E_
TnE +180_ +00_ E_
TnE +200_ +00_ E_
TnE +240_ +00_ D_
TnE +280_ +00_ D_
TnE +2C0_ +00_ D_
TnE +300_ +00_ C_
TnE +300_ +00_ C_
TnE +340_ +00_ C_
TnE +340_ +00_ C_
TnE +380_ +00_ B_
TnE +380_ +00_ B_
TnE +400_ +00_ B_
TnE +400_ +00_ B_
TnE +480_ +00_ A_
TnE +500_ +00_ 9_
TnE +580_ +00_ 7_
TnE +600_ +00_ 4_
TnE +680_ +00_ 1_
TnE +000_ +00_ 0_ L

[Sample10]
Tne +1C0_ +00_ F_
Tne +280_ +00_ E_
Tne +380_ +00_ C_
Tne +440_ +00_ A_
Tne +480_ +00_ 8_
TnE +000_ +00_ 0_ L

[Sample11]
TNe +200_ -0A_ F_
tNe +000_ +0F_ A_
TNe +200_ -07_ E_
tNe +000_ +0E_ B- L

[Sample12]
TNE +0A0_ +05_ F_
TNE +140_ +02_ D_
TNE +140_ +02_ B_
TNE +100_ +00_ A_ L
TNE +140_ +00_ A_
TNE +200_ +00_ A-

[Sample13]
Tne +200_ +00_ F_
Tne +2C0_ +00_ F_
Tne +380_ +00_ E_
Tne +500_ +00_ C_
Tne +520_ +00_ 9_
tne +000_ +00_ 0_ L

[Sample14]
TNE -100_ +00_ F_
TNE -100_ +00_ D_
TNE -100_ +00_ A_
TNE -100_ +00_ 5_
tne +000_ +00_ 0_ L

[Sample15]
TNE -100_ +00_ 5_
TNE -100_ +00_ 8_
TNE -100_ +00_ B_
TNE -100_ +00_ F_
TNe -100_ +00_ 9- L

[Sample16]
TnE +000_ +00_ C_
TnE +000_ +00_ E_
TnE +000_ +00_ F_
TnE +000_ +00_ F_
TnE +000_ +00_ E_
TnE +000_ +00_ D_
TnE +000_ +00_ C_
TnE +000_ +00_ C_ L
TnE +001_ +00_ C_
TnE +002_ +00_ C_
TnE +003_ +00_ C_
TnE +001_ +00_ C_
TnE +000_ +00_ C_
TnE -001_ +00_ C_
TnE -002_ +00_ C_
TnE -003_ +00_ C_
TnE -001_ +00_ C_
TnE +000_ +00_ C_
TnE +000_ +00_ C_

[Sample17]
Tne +1C0_ +00_ F_
Tne +280_ +00_ D_
Tne +380_ +00_ 7_
TNE +000_ +00_ 0_ L

[Sample18]
TnE -00C_ +00_ 0_ L

[Sample19]
TNe +000_ +00_ F_
TNe +000_ +00_ C_
TNe +000_ +00_ 6_
TNe +000_ +01_ A- L

[Sample20]
TNE +140_ +00_ F_
tNE +000_ +00_ B- L

[Sample21]
tNE +000_ +00_ D_
tNE +000_ +00_ 8_
tNE +000_ +00_ 1_
TNE +000_ +00_ 0_ L

[Sample22]
TnE +000_ +00_ D_ L
TnE +000_ +00_ D_
tne +000_ +00_ 9_
tne +000_ +00_ 9_
TnE +000_ +00_ D_
TnE +000_ +00_ D_
tne +000_ +00_ 9_
tne +000_ +00_ 9_
TnE +000_ +00_ D_
TnE +000_ +00_ D_
TnE +000_ +00_ D_
TnE +000_ +00_ D_
TnE +000_ +00_ D_
TnE +000_ +00_ D_
tne +000_ +00_ 9_
tne +000_ +00_ 9_

[Sample23]
TnE +000_ +00_ F_ L
TnE +010_ +01_ F_
TnE +010_ +01_ F_
TnE +010_ +01_ F_
TnE +010_ +01_ F_
TnE +000_ +00_ F_
TnE +000_ +00_ F_
TnE -010_ -01_ F_
TnE -010_ -01_ F_
TnE -010_ -01_ F_
TnE -010_ -01_ F_
TnE +000_ +00_ F_

[Sample24]
TNe +000_ -01_ C_
TNe +000_ -01_ D_
TNe +000_ -01_ E_
TNe +000_ -01_ F_
TNe +000_ -01_ F_
TNe +000_ -01_ F_
TNe +000_ -01_ F_
TNe +000_ -01_ F_
TNe +000_ -01_ E_
TNe +000_ -01_ E_
TNe +000_ -01_ E_
TNe +000_ -01_ F_
TNe +000_ -01_ F_ L

[Sample25]
TNE +000_ +00_ F_
TNE +000_ +00_ F_ L
TNE +000_ +00_ F_
TNE +000_ +00_ F_
TNE +000_ +00_ F-

[Sample26]
tne +000_ +00_ 0_ L

[Sample27]
TnE +100_ +05_ F_
TnE +200_ +02_ A_
TnE +300_ +02_ 7_
TNE +400_ +00_ 3- L

[Sample28]
tne +000_ +00_ 0_ L

[Sample29]
tnE +000_ +00_ 0_ L

[Sample30]
TNE +000_ +00_ C+ L

[Sample31]
TNe +1C0_ +00_ F_
Tne +280_ +00_ E_
Tne +380_ +00_ C_
Tne +440_ +00_ A_
Tne +480_ +00_ 8_
TnE +000_ +00_ 0_ L

[Pattern0]
....|..|--- .... ....|--- .... ....|--- .... ....
....|..|--- .... ....|--- .... ....|--- .... ....
....|..|--- .... ....|--- .... ....|--- .... ....
....|..|--- .... ....|--- .... ....|--- .... ....
....|..|--- .... ....|--- .... ....|--- .... ....
....|..|--- .... ....|--- .... ....|--- .... ....
....|..|--- .... ....|--- .... ....|--- .... ....
....|..|--- .... ....|--- .... ....|--- .... ....
....|..|--- .... ....|--- .... ....|--- .... ....
....|..|--- .... ....|--- .... ....|--- .... ....
....|..|--- .... ....|--- .... ....|--- .... ....
....|..|--- .... ....|--- .... ....|--- .... ....
....|..|--- .... ....|--- .... ....|--- .... ....
....|..|--- .... ....|--- .... ....|--- .... ....
....|..|--- .... ....|--- .... ....|--- .... ....
....|..|--- .... ....|--- .... ....|--- .... ....
....|..|--- .... ....|--- .... ....|--- .... ....
....|..|--- .... ....|--- .... ....|--- .... ....
....|..|--- .... ....|--- .... ....|--- .... ....
....|..|--- .... ....|--- .... ....|--- .... ....
....|..|--- .... ....|--- .... ....|--- .... ....
....|..|--- .... ....|--- .... ....|--- .... ....
....|..|--- .... ....|--- .... ....|--- .... ....
....|..|--- .... ....|--- .... ....|--- .... ....
....|..|--- .... ....|--- .... ....|--- .... ....
....|..|--- .... ....|--- .... ....|--- .... ....
....|..|--- .... ....|--- .... ....|--- .... ....
....|..|--- .... ....|--- .... ....|--- .... ....
....|..|--- .... ....|--- .... ....|--- .... ....
....|..|--- .... ....|--- .... ....|--- .... ....
....|..|--- .... ....|--- .... ....|--- .... ....
....|..|--- .... ....|--- .... ....|--- .... ....
....|..|--- .... ....|--- .... ....|--- .... ....
....|..|--- .... ....|--- .... ....|--- .... ....
....|..|--- .... ....|--- .... ....|--- .... ....
....|..|--- .... ....|--- .... ....|--- .... ....
....|..|--- .... ....|--- .... ....|--- .... ....
....|..|--- .... ....|--- .... ....|--- .... ....
....|..|--- .... ....|--- .... ....|--- .... ....
....|..|--- .... ....|--- .... ....|--- .... ....
....|..|--- .... ....|--- .... ....|--- .... ....
....|..|--- .... ....|--- .... ....|--- .... ....
....|..|--- .... ....|--- .... ....|--- .... ....
....|..|--- .... ....|--- .... ....|--- .... ....
....|..|--- .... ....|--- .... ....|--- .... ....
....|..|--- .... ....|--- .... ....|--- .... ....
....|..|--- .... ....|--- .... ....|--- .... ....
....|..|--- .... ....|--- .... ....|--- .... ....
....|..|--- .... ....|--- .... ....|--- .... ....
....|..|--- .... ....|--- .... ....|--- .... ....
....|..|--- .... ....|--- .... ....|--- .... ....
....|..|--- .... ....|--- .... ....|--- .... ....
....|..|--- .... ....|--- .... ....|--- .... ....
....|..|--- .... ....|--- .... ....|--- .... ....
....|..|--- .... ....|--- .... ....|--- .... ....
....|..|--- .... ....|--- .... ....|--- .... ....
....|..|--- .... ....|--- .... ....|--- .... ....
....|..|--- .... ....|--- .... ....|--- .... ....
....|..|--- .... ....|--- .... ....|--- .... ....
....|..|--- .... ....|--- .... ....|--- .... ....
....|..|--- .... ....|--- .... ....|--- .... ....
....|..|--- .... ....|--- .... ....|--- .... ....
....|..|--- .... ....|--- .... ....|--- .... ....
....|..|--- .... ....|--- .... ....|--- .... ....

[Pattern1]
....|..|--- .... ....|--- .... ....|--- .... ....
....|..|--- .... ....|--- .... ....|--- .... ....
....|..|--- .... ....|--- .... ....|--- .... ....
....|..|--- .... ....|--- .... ....|--- .... ....
....|..|--- .... ....|--- .... ....|--- .... ....
....|..|--- .... ....|--- .... ....|--- .... ....
....|..|--- .... ....|--- .... ....|--- .... ....
....|..|--- .... ....|--- .... ....|--- .... ....
....|..|--- .... ....|--- .... ....|--- .... ....
....|..|--- .... ....|--- .... ....|--- .... ....
....|..|--- .... ....|--- .... ....|--- .... ....
....|..|--- .... ....|--- .... ....|--- .... ....
....|..|--- .... ....|--- .... ....|--- .... ....
....|..|--- .... ....|--- .... ....|--- .... ....
....|..|--- .... ....|--- .... ....|--- .... ....
....|..|--- .... ....|--- .... ....|--- .... ....
....|..|--- .... ....|--- .... ....|--- .... ....
....|..|--- .... ....|--- .... ....|--- .... ....
....|..|--- .... ....|--- .... ....|--- .... ....
....|..|--- .... ....|--- .... ....|--- .... ....
....|..|--- .... ....|--- .... ....|--- .... ....
....|..|--- .... ....|--- .... ....|--- .... ....
....|..|--- .... ....|--- .... ....|--- .... ....
....|..|--- .... ....|--- .... ....|--- .... ....
....|..|--- .... ....|--- .... ....|--- .... ....
....|..|--- .... ....|--- .... ....|--- .... ....
....|..|--- .... ....|--- .... ....|--- .... ....
....|..|--- .... ....|--- .... ....|--- .... ....
....|..|--- .... ....|--- .... ....|--- .... ....
....|..|--- .... ....|--- .... ....|--- .... ....
....|..|--- .... ....|--- .... ....|--- .... ....
....|..|--- .... ....|--- .... ....|--- .... ....
....|..|--- .... ....|--- .... ....|--- .... ....
....|..|--- .... ....|--- .... ....|--- .... ....
....|..|--- .... ....|--- .... ....|--- .... ....
....|..|--- .... ....|--- .... ....|--- .... ....
....|..|--- .... ....|--- .... ....|--- .... ....
....|..|--- .... ....|--- .... ....|--- .... ....
....|..|--- .... ....|--- .... ....|--- .... ....
....|..|--- .... ....|--- .... ....|--- .... ....
....|..|--- .... ....|--- .... ....|--- .... ....
....|..|--- .... ....|--- .... ....|--- .... ....
....|..|--- .... ....|--- .... ....|--- .... ....
....|..|--- .... ....|--- .... ....|--- .... ....
....|..|--- .... ....|--- .... ....|--- .... ....
....|..|--- .... ....|--- .... ....|--- .... ....
....|..|--- .... ....|--- .... ....|--- .... ....
....|..|--- .... ....|--- .... ....|--- .... ....
....|..|--- .... ....|--- .... ....|--- .... ....
....|..|--- .... ....|--- .... ....|--- .... ....
....|..|--- .... ....|--- .... ....|--- .... ....
....|..|--- .... ....|--- .... ....|--- .... ....
....|..|--- .... ....|--- .... ....|--- .... ....
....|..|--- .... ....|--- .... ....|--- .... ....
....|..|--- .... ....|--- .... ....|--- .... ....
....|..|--- .... ....|--- .... ....|--- .... ....
....|..|--- .... ....|--- .... ....|B-2 2F.F ....
....|..|--- .... ....|--- .... ....|--- .... ....
....|..|--- .... ....|--- .... ....|--- .... ....
....|..|--- .... ....|--- .... ....|B-2 2F.A ....
....|..|--- .... ....|--- .... ....|A-2 2F.F ....
....|..|--- .... ....|--- .... ....|--- .... ....
....|..|--- .... ....|--- .... ....|B-2 2F.7 ....
....|..|--- .... ....|--- .... ....|C-6 2F.F ....

[Pattern2]
....|..|C-5 VF.F ....|--- .... ....|C#3 2F.F ....
 B-4|..|B-4 2C.F ....|--- .... ....|C-6 2F.F ....
....|..|--- .... ....|--- .... ....|A-2 2F.7 ....
....|..|B-4 2F.A ....|--- .... ....|C#3 2F.A ....
....|..|--- .... ....|--- .... ....|C-6 2F.F ....
....|..|--- .... ....|--- .... ....|C-6 2F.F ....
....|..|B-4 2F.7 ....|--- .... ....|C#3 2F.7 ....
....|..|--- .... ....|--- .... ....|C-6 2F.F ....
....|..|--- .... ....|--- .... ....|F#2 2F.F ....
....|..|R-- .... ....|--- .... ....|C-6 2F.F ....
....|..|--- .... ....|--- .... ....|C-6 2F.7 ....
....|..|--- .... ....|--- .... ....|C-6 2F.F ....
....|..|C-5 VF.F ....|--- .... ....|F#2 2F.F ....
....|..|R-- .... ....|--- .... ....|C-6 2F.F ....
....|..|--- .... ....|--- .... ....|F#2 2F.7 ....
....|..|--- .... ....|--- .... ....|C-6 2F.F ....
....|..|C-5 VF.F ....|G-4 2F.F ....|F#2 2F.F ....
....|..|--- .... ....|--- .... ....|C-6 2F.7 ....
....|..|--- .... ....|--- .... ....|C-6 2F.F ....
....|..|--- .... ....|G-4 2F.A ....|C-6 2F.F ....
....|..|--- .... ....|--- .... ....|F#2 2F.F ....
....|..|--- .... ....|R-- .... ....|C-6 2F.F ....
....|..|R-- .... ....|G-4 2F.7 ....|F#2 2F.7 ....
....|..|--- .... ....|--- .... ....|F#2 2F.A ....
....|..|C-4 CF.F ....|G-4 2F.F ....|C-6 2F.F ....
....|..|--- .... ....|--- .... ....|C-6 2F.F ....
....|..|--- .... ....|--- .... ....|F#2 2F.7 ....
....|..|--- .... ....|G-4 2F.A ....|C-6 2F.F ....
....|..|--- .... ....|--- .... ....|F#2 2F.F ....
....|..|--- .... ....|--- .... ....|C-6 2F.F ....
....|..|R-- .... ....|G-4 2F.7 ....|C-6 2F.7 ....
....|..|R-- .... ....|--- .... ....|C-6 2F.F ....
....|..|C-4 AF.F ....|E-5 2F.F ....|F#2 2F.F ....
 C-3|..|C-5 2C.F ....|R-- .... ....|C-6 2F.F ....
....|..|R-- .... ....|--- .... ....|F#2 2F.7 ....
....|..|C-5 2F.A ....|E-5 2F.A ....|C-6 2F.7 ....
....|..|R-- .... ....|R-- .... ....|C-6 2F.F ....
....|..|--- .... ....|R-- .... ....|C-6 2F.F ....
....|..|C-5 2F.7 ....|E-5 2F.7 ....|F#2 2F.7 ....
....|..|--- .... ....|E-5 2F.F ....|C-6 2F.F ....
....|..|--- .... ....|R-- .... ....|F#2 2F.F ....
....|..|R-- .... ....|--- .... ....|C-6 2F.F ....
....|..|--- .... ....|E-5 2F.A ....|C-6 2F.7 ....
....|..|--- .... ....|R-- .... ....|C-6 2F.F ....
....|..|C-4 AF.F ....|--- .... ....|F#2 2F.F ....
....|..|R-- .... ....|E-5 2F.7 ....|C-6 2F.F ....
....|..|--- .... ....|--- .... ....|F#2 2F.7 ....
....|..|--- .... ....|--- .... ....|C-6 2F.F ....
....|..|C-4 AF.F ....|--- .... ....|F#2 2F.F ....
....|..|--- .... ....|--- .... ....|C-6 2F.7 ....
....|..|--- .... ....|--- .... ....|C-6 2F.F ....
....|..|--- .... ....|--- .... ....|C-6 2F.F ....
....|..|--- .... ....|--- .... ....|F#2 2F.F ....
....|..|--- .... ....|--- .... ....|C-6 2F.F ....
....|..|--- .... ....|--- .... ....|F#2 2F.7 ....
....|..|--- .... ....|R-- .... ....|F#2 2F.A ....
....|..|--- .... ....|--- .... ....|C-6 2F.F ....
....|..|R-- .... ....|--- .... ....|C-6 2F.F ....
....|..|--- .... ....|R-- .... ....|F#2 2F.7 ....
....|..|--- .... ....|--- .... ....|C-6 2F.F ....
....|..|C-4 AF.F ....|E-5 2F.F ....|F#2 2F.F ....
....|..|R-- .... ....|R-- .... ....|C-6 2F.F ....
 G-4|..|G-4 2C.F ....|--- .... ....|C-6 2F.7 ....
....|..|R-- .... ....|E-5 2F.A ....|C-6 2F.F ....

[Pattern3]
....|..|C-4 9F.F ....|D-5 2F.F ....|F#2 2F.F ....
 B-4|..|B-4 2C.F ....|--- .... ....|C-6 2F.F ....
....|..|G-4 2F.A ....|E-5 2F.7 ....|F#2 2F.7 ....
....|..|B-4 2F.A ....|D-5 2F.A ....|C-6 2F.7 ....
....|..|G-4 2F.7 ....|--- .... ....|C-6 2F.F ....
....|..|R-- .... ....|R-- .... ....|C-6 2F.F ....
....|..|B-4 2F.7 ....|D-5 2F.7 ....|F#2 2F.7 ....
....|..|--- .... ....|--- .... ....|C-6 2F.F ....
....|..|--- .... ....|--- .... ....|F#2 2F.F ....
....|..|R-- .... ....|--- .... ....|C-6 2F.F ....
....|..|--- .... ....|--- .... ....|C-6 2F.7 ....
....|..|--- .... ....|--- .... ....|C-6 2F.F ....
....|..|C-4 9F.F ....|--- .... ....|F#2 2F.F ....
....|..|R-- .... ....|R-- .... ....|C-6 2F.F ....
....|..|--- .... ....|--- .... ....|F#2 2F.7 ....
....|..|--- .... ....|--- .... ....|C-6 2F.F ....
....|..|C-4 9F.F ....|D-5 2F.F ....|F#2 2F.F ....
....|..|--- .... ....|--- .... ....|C-6 2F.7 ....
....|..|--- .... ....|--- .... ....|C-6 2F.F ....
....|..|--- .... ....|D-5 2F.A ....|C-6 2F.F ....
....|..|--- .... ....|--- .... ....|F#2 2F.F ....
....|..|--- .... ....|--- .... ....|C-6 2F.F ....
....|..|--- .... ....|D-5 2F.7 ....|F#2 2F.7 ....
....|..|--- .... ....|--- .... ....|F#2 2F.A ....
....|..|--- .... ....|--- .... ....|C-6 2F.F ....
....|..|R-- .... ....|--- .... ....|C-6 2F.F ....
....|..|--- .... ....|--- .... ....|F#2 2F.7 ....
....|..|--- .... ....|--- .... ....|C-6 2F.F ....
....|..|C-4 9F.F ....|--- .... ....|F#2 2F.F ....
....|..|R-- .... ....|R-- .... ....|C-6 2F.F ....
....|..|R-- .... ....|--- .... ....|C-6 2F.7 ....
....|..|--- .... ....|B-4 2F.F ....|C-6 2F.F ....
....|..|C-4 CF.F ....|R-- .... ....|F#2 2F.F ....
 A-3|..|A-4 2C.F ....|--- .... ....|C-6 2F.F ....
....|..|R-- .... ....|B-4 2F.A ....|F#2 2F.7 ....
....|..|A-4 2F.A ....|R-- .... ....|C-6 2F.7 ....
....|..|R-- .... ....|--- .... ....|C-6 2F.F ....
....|..|--- .... ....|A-4 2F.F ....|C-6 2F.F ....
....|..|A-4 2F.7 ....|R-- .... ....|F#2 2F.7 ....
....|..|--- .... ....|--- .... ....|C-6 2F.F ....
....|..|--- .... ....|A-4 2F.A ....|F#2 2F.F ....
....|..|R-- .... ....|R-- .... ....|C-6 2F.F ....
....|..|--- .... ....|--- .... ....|C-6 2F.7 ....
....|..|--- .... ....|A-4 2F.7 ....|C-6 2F.F ....
....|..|C-4 CF.F ....|--- .... ....|F#2 2F.F ....
....|..|R-- .... ....|--- .... ....|C-6 2F.F ....
....|..|--- .... ....|--- .... ....|F#2 2F.7 ....
....|..|--- .... ....|--- .... ....|C-6 2F.F ....
....|..|B-8 JF.F ....|--- .... ....|F#2 2F.F ....
....|..|--- .... ....|--- .... ....|C-6 2F.7 ....
....|..|--- .... ....|--- .... ....|C-6 2F.F ....
....|..|R-- .... ....|--- .... ....|C-6 2F.F ....
....|..|C-4 9F.F ....|--- .... ....|A#2 2F.F ....
....|..|--- .... ....|--- .... ....|C-6 2F.F ....
....|..|--- .... ....|--- .... ....|F#2 2F.7 ....
....|..|R-- .... ....|--- .... ....|A#2 2F.A ....
....|..|C-4 9F.F ....|R-- .... ....|C-6 2F.F ....
....|..|--- .... ....|--- .... ....|C-6 2F.F ....
....|..|--- .... ....|--- .... ....|A#2 2F.7 ....
....|..|--- .... ....|R-- .... ....|C-6 2F.F ....
....|..|C-4 CF.F ....|--- .... ....|A#2 2F.F ....
....|..|--- .... ....|--- .... ....|C-6 2F.F ....
....|..|R-- .... ....|R-- .... ....|C-6 2F.7 ....
....|..|R-- .... ....|--- .... ....|C-6 2F.F ....

[Pattern4]
....|..|C-5 VF.F ....|--- .... ....|F#2 2F.F ....
 B-4|..|B-4 2C.F ....|--- .... ....|C-6 2F.F ....
....|..|R-- .... ....|--- .... ....|A#2 2F.7 ....
....|..|B-4 2F.A ....|--- .... ....|C-6 2F.7 ....
....|..|R-- .... ....|--- .... ....|C-6 2F.F ....
....|..|--- .... ....|--- .... ....|C-6 2F.F ....
....|..|B-4 2F.7 ....|--- .... ....|F#2 2F.7 ....
....|..|--- .... ....|--- .... ....|C-6 2F.F ....
....|..|R-- .... ....|--- .... ....|F#2 2F.F ....
....|..|--- .... ....|--- .... ....|C-6 2F.F ....
....|..|--- .... ....|--- .... ....|C-6 2F.7 ....
....|..|--- .... ....|--- .... ....|C-6 2F.F ....
....|..|C-5 VF.F ....|G-4 2F.F ....|F#2 2F.F ....
....|..|R-- .... ....|--- .... ....|C-6 2F.F ....
....|..|--- .... ....|--- .... ....|F#2 2F.7 ....
....|..|--- .... ....|G-4 2F.A ....|C-6 2F.F ....
....|..|C-5 VF.F ....|--- .... ....|F#2 2F.F ....
....|..|--- .... ....|R-- .... ....|C-6 2F.7 ....
....|..|--- .... ....|G-4 2F.7 ....|C-6 2F.F ....
....|..|--- .... ....|--- .... ....|C-6 2F.F ....
....|..|--- .... ....|G-4 2F.F ....|F#2 2F.F ....
....|..|R-- .... ....|--- .... ....|C-6 2F.F ....
....|..|--- .... ....|--- .... ....|F#2 2F.7 ....
....|..|--- .... ....|G-4 2F.A ....|F#2 2F.A ....
....|..|C-4 CF.F ....|--- .... ....|C-6 2F.F ....
....|..|--- .... ....|R-- .... ....|C-6 2F.F ....
....|..|--- .... ....|G-4 2F.7 ....|F#2 2F.7 ....
....|..|--- .... ....|G-4 2F.F ....|C-6 2F.F ....
....|..|--- .... ....|R-- .... ....|F#2 2F.F ....
....|..|--- .... ....|--- .... ....|C-6 2F.F ....
....|..|--- .... ....|G-4 2F.A ....|C-6 2F.7 ....
....|..|R-- .... ....|R-- .... ....|C-6 2F.F ....
....|..|C-4 AF.F ....|E-5 2F.F ....|F#2 2F.F ....
 C-3|..|C-5 2C.F ....|G-4 2F.7 ....|C-6 2F.F ....
....|..|R-- .... ....|--- .... ....|F#2 2F.7 ....
....|..|C-5 2F.A ....|E-5 2F.A ....|C-6 2F.7 ....
....|..|--- .... ....|R-- .... ....|C-6 2F.F ....
....|..|R-- .... ....|--- .... ....|C-6 2F.F ....
....|..|C-5 2F.7 ....|E-5 2F.7 ....|F#2 2F.7 ....
....|..|--- .... ....|--- .... ....|C-6 2F.F ....
....|..|--- .... ....|--- .... ....|F#2 2F.F ....
....|..|R-- .... ....|--- .... ....|C-6 2F.F ....
....|..|--- .... ....|--- .... ....|C-6 2F.7 ....
....|..|--- .... ....|--- .... ....|C-6 2F.F ....
....|..|C-4 AF.F ....|--- .... ....|F#2 2F.F ....
....|..|R-- .... ....|--- .... ....|C-6 2F.F ....
....|..|--- .... ....|--- .... ....|F#2 2F.7 ....
....|..|--- .... ....|--- .... ....|C-6 2F.F ....
....|..|C-4 AF.F ....|--- .... ....|F#2 2F.F ....
....|..|--- .... ....|--- .... ....|C-6 2F.7 ....
....|..|--- .... ....|--- .... ....|C-6 2F.F ....
....|..|--- .... ....|--- .... ....|C-6 2F.F ....
....|..|--- .... ....|R-- .... ....|F#2 2F.F ....
....|..|--- .... ....|--- .... ....|C-6 2F.F ....
....|..|--- .... ....|--- .... ....|F#2 2F.7 ....
....|..|--- .... ....|R-- .... ....|F#2 2F.A ....
....|..|--- .... ....|--- .... ....|C-6 2F.F ....
....|..|R-- .... ....|--- .... ....|C-6 2F.F ....
....|..|--- .... ....|R-- .... ....|F#2 2F.7 ....
....|..|--- .... ....|--- .... ....|C-6 2F.F ....
....|..|C-4 AF.F ....|E-5 2F.F ....|F#2 2F.F ....
....|..|R-- .... ....|--- .... ....|C-6 2F.F ....
....|..|R-- .... ....|--- .... ....|C-6 2F.7 ....
....|..|--- .... ....|E-5 2F.A ....|C-6 2F.F ....

[Pattern5]
....|..|C-4 9F.F ....|D-5 2F.F ....|F#2 2F.F ....
 B-4|..|B-4 2C.F ....|--- .... ....|C-6 2F.F ....
....|..|R-- .... ....|E-5 2F.7 ....|F#2 2F.7 ....
....|..|B-4 2F.A ....|D-5 2F.A ....|C-6 2F.7 ....
....|..|R-- .... ....|--- .... ....|C-6 2F.F ....
....|..|--- .... ....|R-- .... ....|C-6 2F.F ....
....|..|B-4 2F.7 ....|D-5 2F.7 ....|F#2 2F.7 ....
....|..|--- .... ....|R-- .... ....|C-6 2F.F ....
....|..|--- .... ....|E-5 2F.F ....|F#2 2F.F ....
....|..|R-- .... ....|--- .... ....|C-6 2F.F ....
....|..|--- .... ....|R-- .... ....|C-6 2F.7 ....
....|..|--- .... ....|E-5 2F.A ....|C-6 2F.F ....
....|..|C-4 9F.F ....|D-5 2F.F ....|F#2 2F.F ....
....|..|R-- .... ....|R-- .... ....|C-6 2F.F ....
....|..|--- .... ....|E-5 2F.7 ....|F#2 2F.7 ....
....|..|--- .... ....|D-5 2F.A ....|C-6 2F.F ....
....|..|C-4 9F.F ....|--- .... ....|F#2 2F.F ....
....|..|--- .... ....|R-- .... ....|C-6 2F.7 ....
....|..|--- .... ....|D-5 2F.7 ....|C-6 2F.F ....
....|..|--- .... ....|--- .... ....|C-6 2F.F ....
....|..|--- .... ....|B-4 2F.F ....|F#2 2F.F ....
....|..|--- .... ....|--- .... ....|C-6 2F.F ....
....|..|--- .... ....|--- .... ....|F#2 2F.7 ....
....|..|--- .... ....|B-4 2F.A ....|F#2 2F.A ....
....|..|--- .... ....|--- .... ....|C-6 2F.F ....
....|..|R-- .... ....|R-- .... ....|C-6 2F.F ....
....|..|--- .... ....|B-4 2F.7 ....|F#2 2F.7 ....
....|..|--- .... ....|--- .... ....|C-6 2F.F ....
....|..|C-4 9F.F ....|A-4 2F.F ....|F#2 2F.F ....
....|..|R-- .... ....|--- .... ....|C-6 2F.F ....
....|..|R-- .... ....|--- .... ....|C-6 2F.7 ....
....|..|--- .... ....|A-4 2F.A ....|C-6 2F.F ....
....|..|C-4 CF.F ....|--- .... ....|F#2 2F.F ....
 A-3|..|A-4 2C.F ....|--- .... ....|C-6 2F.F ....
....|..|R-- .... ....|A-4 2F.7 ....|F#2 2F.7 ....
....|..|A-4 2F.A ....|--- .... ....|C-6 2F.7 ....
....|..|R-- .... ....|--- .... ....|C-6 2F.F ....
....|..|--- .... ....|--- .... ....|C-6 2F.F ....
....|..|A-4 2F.7 ....|--- .... ....|F#2 2F.7 ....
....|..|--- .... ....|--- .... ....|C-6 2F.F ....
....|..|--- .... ....|--- .... ....|F#2 2F.F ....
....|..|R-- .... ....|--- .... ....|C-6 2F.F ....
....|..|--- .... ....|--- .... ....|C-6 2F.7 ....
....|..|--- .... ....|--- .... ....|C-6 2F.F ....
....|..|C-4 CF.F ....|--- .... ....|F#2 2F.F ....
....|..|R-- .... ....|--- .... ....|C-6 2F.F ....
....|..|--- .... ....|--- .... ....|F#2 2F.7 ....
....|..|--- .... ....|--- .... ....|C-6 2F.F ....
....|..|B-8 JF.F ....|--- .... ....|F#2 2F.F ....
....|..|--- .... ....|--- .... ....|C-6 2F.7 ....
....|..|--- .... ....|R-- .... ....|C-6 2F.F ....
....|..|R-- .... ....|--- .... ....|C-6 2F.F ....
....|..|C-4 9F.F ....|--- .... ....|F#2 2F.F ....
....|..|--- .... ....|R-- .... ....|C-6 2F.F ....
....|..|--- .... ....|--- .... ....|F#2 2F.7 ....
....|..|R-- .... ....|--- .... ....|F#2 2F.A ....
....|..|C-4 9F.F ....|R-- .... ....|C-6 2F.F ....
....|..|--- .... ....|--- .... ....|C-6 2F.F ....
....|..|--- .... ....|--- .... ....|F#2 2F.7 ....
....|..|--- .... ....|--- .... ....|C-6 2F.F ....
....|..|C-4 CF.F ....|--- .... ....|A#2 2F.F ....
....|..|--- .... ....|--- .... ....|C-6 2F.F ....
....|..|R-- .... ....|--- .... ....|C-6 2F.7 ....
....|..|--- .... ....|--- .... ....|C-6 2F.F ....

[Pattern6]
....|..|C-5 VF.F ....|--- .... ....|F#2 2F.F ....
 B-4|..|B-4 2C.F ....|--- .... ....|C-6 2F.F ....
....|..|R-- .... ....|--- .... ....|A#2 2F.7 ....
....|..|B-4 2F.A ....|--- .... ....|C-6 2F.7 ....
....|..|R-- .... ....|--- .... ....|C-6 2F.F ....
....|..|--- .... ....|--- .... ....|C-6 2F.F ....
....|..|B-4 2F.7 ....|--- .... ....|F#2 2F.7 ....
....|..|--- .... ....|--- .... ....|C-6 2F.F ....
....|..|R-- .... ....|--- .... ....|F#2 2F.F ....
....|..|--- .... ....|--- .... ....|C-6 2F.F ....
....|..|--- .... ....|--- .... ....|C-6 2F.7 ....
....|..|--- .... ....|--- .... ....|C-6 2F.F ....
....|..|C-5 VF.F ....|--- .... ....|F#2 2F.F ....
....|..|R-- .... ....|--- .... ....|C-6 2F.F ....
....|..|--- .... ....|--- .... ....|F#2 2F.7 ....
....|..|--- .... ....|--- .... ....|C-6 2F.F ....
....|..|C-5 VF.F ....|G-4 2F.F ....|F#2 2F.F ....
....|..|--- .... ....|--- .... ....|C-6 2F.7 ....
....|..|--- .... ....|--- .... ....|C-6 2F.F ....
....|..|--- .... ....|G-4 2F.A ....|C-6 2F.F ....
....|..|--- .... ....|A-4 2F.F ....|F#2 2F.F ....
....|..|--- .... ....|--- .... ....|C-6 2F.F ....
....|..|--- .... ....|G-4 2F.7 ....|F#2 2F.7 ....
....|..|--- .... ....|A-4 2F.A ....|F#2 2F.A ....
....|..|--- .... ....|G-4 2F.F ....|C-6 2F.F ....
....|..|R-- .... ....|--- .... ....|C-6 2F.F ....
....|..|--- .... ....|A-4 2F.7 ....|F#2 2F.7 ....
....|..|--- .... ....|G-4 2F.A ....|C-6 2F.F ....
....|..|C-5 VF.F ....|--- .... ....|F#2 2F.F ....
 B-4|..|B-4 2C.F ....|--- .... ....|C-6 2F.F ....
....|..|R-- .... ....|G-4 2F.7 ....|C-6 2F.7 ....
....|..|--- .... ....|--- .... ....|C-6 2F.F ....
....|..|C-4 9F.F ....|D-5 2F.F ....|F#2 2F.F ....
 B-4|..|B-4 2C.F ....|R-- .... ....|C-6 2F.F ....
....|..|R-- .... ....|--- .... ....|F#2 2F.7 ....
....|..|B-4 2F.7 ....|D-5 2F.A ....|C-6 2F.7 ....
....|..|R-- .... ....|B-4 2F.F ....|C-6 2F.F ....
....|..|--- .... ....|--- .... ....|C-6 2F.F ....
....|..|B-4 2F.7 ....|D-5 2F.7 ....|F#2 2F.7 ....
....|..|--- .... ....|B-4 2F.A ....|C-6 2F.F ....
....|..|--- .... ....|--- .... ....|F#2 2F.F ....
....|..|R-- .... ....|--- .... ....|C-6 2F.F ....
....|..|--- .... ....|B-4 2F.7 ....|C-6 2F.7 ....
....|..|--- .... ....|--- .... ....|C-6 2F.F ....
....|..|C-4 9F.F ....|--- .... ....|F#2 2F.F ....
....|..|R-- .... ....|--- .... ....|C-6 2F.F ....
....|..|--- .... ....|--- .... ....|F#2 2F.7 ....
....|..|--- .... ....|--- .... ....|C-6 2F.F ....
....|..|C-4 9F.F ....|--- .... ....|F#2 2F.F ....
....|..|--- .... ....|--- .... ....|C-6 2F.7 ....
....|..|--- .... ....|--- .... ....|C-6 2F.F ....
....|..|--- .... ....|--- .... ....|C-6 2F.F ....
....|..|--- .... ....|--- .... ....|F#2 2F.F ....
....|..|R-- .... ....|R-- .... ....|C-6 2F.F ....
....|..|--- .... ....|--- .... ....|F#2 2F.7 ....
....|..|--- .... ....|--- .... ....|F#2 2F.A ....
....|..|C-4 CF.F ....|R-- .... ....|C-6 2F.F ....
....|..|--- .... ....|--- .... ....|C-6 2F.F ....
....|..|--- .... ....|--- .... ....|F#2 2F.7 ....
....|..|R-- .... ....|R-- .... ....|C-6 2F.F ....
....|..|C-4 9F.F ....|A-4 2F.F ....|F#2 2F.F ....
....|..|--- .... ....|--- .... ....|C-6 2F.F ....
 G-4|..|G-4 2C.F ....|--- .... ....|C-6 2F.7 ....
....|..|R-- .... ....|A-4 2F.A ....|C-6 2F.F ....

[Pattern7]
....|..|C-4 AF.F ....|G-4 2F.F ....|F#2 2F.F ....
 C-3|..|C-5 2C.F ....|--- .... ....|C-6 2F.F ....
....|..|G-4 2F.A ....|A-4 2F.7 ....|F#2 2F.7 ....
....|..|C-5 2F.A ....|G-4 2F.A ....|C-6 2F.7 ....
....|..|G-4 2F.7 ....|--- .... ....|C-6 2F.F ....
....|..|R-- .... ....|R-- .... ....|C-6 2F.F ....
....|..|C-5 2F.7 ....|G-4 2F.7 ....|F#2 2F.7 ....
....|..|--- .... ....|--- .... ....|C-6 2F.F ....
....|..|--- .... ....|--- .... ....|F#2 2F.F ....
....|..|R-- .... ....|--- .... ....|C-6 2F.F ....
....|..|--- .... ....|--- .... ....|C-6 2F.7 ....
....|..|--- .... ....|--- .... ....|C-6 2F.F ....
....|..|C-4 AF.F ....|--- .... ....|F#2 2F.F ....
....|..|R-- .... ....|R-- .... ....|C-6 2F.F ....
....|..|--- .... ....|--- .... ....|F#2 2F.7 ....
....|..|--- .... ....|--- .... ....|C-6 2F.F ....
....|..|C-4 AF.F ....|G-4 2F.F ....|F#2 2F.F ....
....|..|--- .... ....|--- .... ....|C-6 2F.7 ....
....|..|--- .... ....|--- .... ....|C-6 2F.F ....
....|..|--- .... ....|G-4 2F.A ....|C-6 2F.F ....
....|..|--- .... ....|--- .... ....|F#2 2F.F ....
....|..|--- .... ....|--- .... ....|C-6 2F.F ....
....|..|--- .... ....|G-4 2F.7 ....|F#2 2F.7 ....
....|..|--- .... ....|--- .... ....|F#2 2F.A ....
....|..|--- .... ....|--- .... ....|C-6 2F.F ....
....|..|R-- .... ....|--- .... ....|C-6 2F.F ....
....|..|--- .... ....|--- .... ....|F#2 2F.7 ....
....|..|--- .... ....|--- .... ....|C-6 2F.F ....
....|..|C-4 AF.F ....|R-- .... ....|F#2 2F.F ....
....|..|R-- .... ....|--- .... ....|C-6 2F.F ....
....|..|R-- .... ....|--- .... ....|C-6 2F.7 ....
....|..|--- .... ....|E-4 2F.F ....|C-6 2F.F ....
....|..|C-4 9F.F ....|--- .... ....|F#2 2F.F ....
 B-4|..|B-4 2C.F ....|--- .... ....|C-6 2F.F ....
....|..|R-- .... ....|E-4 2F.A ....|F#2 2F.7 ....
....|..|B-4 2F.A ....|R-- .... ....|C-6 2F.7 ....
....|..|R-- .... ....|--- .... ....|C-6 2F.F ....
....|..|--- .... ....|D-4 2F.F ....|C-6 2F.F ....
....|..|B-4 2F.7 ....|R-- .... ....|F#2 2F.7 ....
....|..|--- .... ....|--- .... ....|C-6 2F.F ....
....|..|--- .... ....|D-4 2F.A ....|F#2 2F.F ....
....|..|R-- .... ....|R-- .... ....|C-6 2F.F ....
....|..|--- .... ....|--- .... ....|C-6 2F.7 ....
....|..|--- .... ....|D-4 2F.7 ....|C-6 2F.F ....
....|..|C-4 9F.F ....|--- .... ....|F#2 2F.F ....
....|..|R-- .... ....|--- .... ....|C-6 2F.F ....
....|..|--- .... ....|--- .... ....|F#2 2F.7 ....
....|..|--- .... ....|--- .... ....|C-6 2F.F ....
....|..|C-4 9F.F ....|--- .... ....|A#2 2F.F ....
....|..|--- .... ....|--- .... ....|C-6 2F.7 ....
....|..|--- .... ....|--- .... ....|C-6 2F.F ....
....|..|--- .... ....|--- .... ....|C-6 2F.F ....
....|..|--- .... ....|--- .... ....|R-- .... ....
....|..|--- .... ....|--- .... ....|C-6 2F.F ....
....|..|--- .... ....|--- .... ....|A#2 2F.7 ....
....|..|--- .... ....|--- .... ....|R-- .... ....
....|..|--- .... ....|--- .... ....|C-6 2F.F ....
....|..|R-- .... ....|--- .... ....|C-6 2F.F ....
....|..|--- .... ....|--- .... ....|R-- .... ....
....|..|--- .... ....|--- .... ....|C-6 2F.F ....
....|..|C-4 CF.F ....|R-- .... ....|A#2 2F.F ....
....|..|R-- .... ....|--- .... ....|C-6 2F.F ....
....|..|--- .... ....|--- .... ....|C-6 2F.7 ....
....|..|--- .... ....|R-- .... ....|C-6 2F.F ....

[Pattern8]
....|..|C-4 9F.F ....|--- .... ....|F#2 2F.F ....
....|..|--- .... ....|--- .... ....|C-6 2F.F ....
....|..|--- .... ....|R-- .... ....|A#2 2F.7 ....
....|..|--- .... ....|--- .... ....|C-6 2F.7 ....
....|..|--- .... ....|--- .... ....|C-6 2F.F ....
....|..|--- .... ....|--- .... ....|C-6 2F.F ....
....|..|--- .... ....|--- .... ....|F#2 2F.7 ....
....|..|--- .... ....|--- .... ....|C-6 2F.F ....
....|..|--- .... ....|--- .... ....|F#2 2F.F ....
....|..|R-- .... ....|--- .... ....|C-6 2F.F ....
....|..|--- .... ....|--- .... ....|C-6 2F.7 ....
....|..|--- .... ....|--- .... ....|C-6 2F.F ....
....|..|C-4 9F.F ....|--- .... ....|F#2 2F.F ....
....|..|R-- .... ....|--- .... ....|C-6 2F.F ....
....|..|--- .... ....|--- .... ....|F#2 2F.7 ....
....|..|--- .... ....|--- .... ....|C-6 2F.F ....
....|..|C-4 9F.F ....|G-4 2F.F ....|F#2 2F.F ....
....|..|--- .... ....|--- .... ....|C-6 2F.7 ....
....|..|R-- .... ....|--- .... ....|C-6 2F.F ....
....|..|--- .... ....|G-4 2F.A ....|C-6 2F.F ....
....|..|B-8 JF.F ....|G-4 2F.F ....|F#2 2F.F ....
....|..|--- .... ....|--- .... ....|C-6 2F.F ....
....|..|--- .... ....|G-4 2F.7 ....|F#2 2F.7 ....
....|..|--- .... ....|G-4 2F.A ....|F#2 2F.A ....
....|..|C-5 VF.F ....|A-4 2F.F ....|C-6 2F.F ....
....|..|--- .... ....|R-- .... ....|C-6 2F.F ....
....|..|--- .... ....|G-4 2F.7 ....|F#2 2F.7 ....
....|..|--- .... ....|A-4 2F.A ....|C-6 2F.F ....
....|..|C-4 CF.F ....|B-4 2F.F ....|F#2 2F.F ....
....|..|R-- .... ....|R-- .... ....|C-6 2F.F ....
....|..|--- .... ....|A-4 2F.7 ....|C-6 2F.7 ....
....|..|--- .... ....|B-4 2F.A ....|C-6 2F.F ....
....|..|C-4 AF.F ....|--- .... ....|F#2 2F.F ....
 B-4|..|B-4 2C.F ....|R-- .... ....|C-6 2F.F ....
....|..|--- .... ....|B-4 2F.7 ....|F#2 2F.7 ....
....|..|B-4 2F.A ....|--- .... ....|C-6 2F.7 ....
....|..|--- .... ....|--- .... ....|C-6 2F.F ....
....|..|--- .... ....|--- .... ....|C-6 2F.F ....
....|..|B-4 2F.7 ....|--- .... ....|F#2 2F.7 ....
....|..|--- .... ....|--- .... ....|C-6 2F.F ....
....|..|--- .... ....|--- .... ....|F#2 2F.F ....
....|..|R-- .... ....|--- .... ....|C-6 2F.F ....
....|..|--- .... ....|--- .... ....|C-6 2F.7 ....
....|..|--- .... ....|--- .... ....|C-6 2F.F ....
....|..|C-4 AF.F ....|--- .... ....|F#2 2F.F ....
....|..|R-- .... ....|--- .... ....|C-6 2F.F ....
....|..|--- .... ....|--- .... ....|F#2 2F.7 ....
....|..|--- .... ....|--- .... ....|C-6 2F.F ....
....|..|C-4 AF.F ....|--- .... ....|F#2 2F.F ....
....|..|--- .... ....|--- .... ....|C-6 2F.7 ....
....|..|--- .... ....|R-- .... ....|C-6 2F.F ....
....|..|--- .... ....|--- .... ....|C-6 2F.F ....
....|..|--- .... ....|--- .... ....|F#2 2F.F ....
....|..|--- .... ....|R-- .... ....|C-6 2F.F ....
....|..|--- .... ....|--- .... ....|F#2 2F.7 ....
....|..|--- .... ....|--- .... ....|F#2 2F.A ....
....|..|--- .... ....|E-5 2F.F ....|C-6 2F.F ....
....|..|R-- .... ....|--- .... ....|C-6 2F.F ....
....|..|--- .... ....|--- .... ....|F#2 2F.7 ....
....|..|--- .... ....|E-5 2F.A ....|C-6 2F.F ....
....|..|C-4 AF.F ....|--- .... ....|F#2 2F.F ....
....|..|R-- .... ....|--- .... ....|C-6 2F.F ....
....|..|R-- .... ....|E-5 2F.7 ....|C-6 2F.7 ....
....|..|--- .... ....|R-- .... ....|C-6 2F.F ....

[Pattern9]
....|..|C-5 VF.F ....|D-5 2F.F ....|F#2 2F.F ....
 B-4|..|B-4 2C.F ....|--- .... ....|C-6 2F.F ....
....|..|--- .... ....|R-- .... ....|F#2 2F.7 ....
....|..|B-4 2F.A ....|D-5 2F.A ....|C-6 2F.7 ....
....|..|--- .... ....|E-5 2F.F ....|C-6 2F.F ....
....|..|--- .... ....|R-- .... ....|C-6 2F.F ....
....|..|B-4 2F.7 ....|D-5 2F.7 ....|F#2 2F.7 ....
....|..|--- .... ....|E-5 2F.A ....|C-6 2F.F ....
....|..|--- .... ....|--- .... ....|F#2 2F.F ....
....|..|R-- .... ....|R-- .... ....|C-6 2F.F ....
....|..|--- .... ....|E-5 2F.7 ....|C-6 2F.7 ....
....|..|--- .... ....|--- .... ....|C-6 2F.F ....
....|..|C-5 VF.F ....|D-5 2F.F ....|F#2 2F.F ....
....|..|R-- .... ....|--- .... ....|C-6 2F.F ....
....|..|--- .... ....|--- .... ....|F#2 2F.7 ....
....|..|--- .... ....|D-5 2F.A ....|C-6 2F.F ....
....|..|C-5 VF.F ....|--- .... ....|F#2 2F.F ....
....|..|--- .... ....|--- .... ....|C-6 2F.7 ....
....|..|--- .... ....|D-5 2F.7 ....|C-6 2F.F ....
....|..|--- .... ....|--- .... ....|C-6 2F.F ....
....|..|--- .... ....|B-4 2F.F ....|F#2 2F.F ....
....|..|--- .... ....|R-- .... ....|C-6 2F.F ....
....|..|--- .... ....|--- .... ....|F#2 2F.7 ....
....|..|--- .... ....|B-4 2F.A ....|F#2 2F.A ....
....|..|--- .... ....|R-- .... ....|C-6 2F.F ....
....|..|R-- .... ....|--- .... ....|C-6 2F.F ....
....|..|--- .... ....|B-4 2F.7 ....|F#2 2F.7 ....
....|..|--- .... ....|--- .... ....|C-6 2F.F ....
....|..|C-5 VF.F ....|A-4 2F.F ....|F#2 2F.F ....
 G-4|..|G-4 2C.F ....|R-- .... ....|C-6 2F.F ....
....|..|R-- .... ....|--- .... ....|C-6 2F.7 ....
....|..|--- .... ....|A-4 2F.A ....|C-6 2F.F ....
....|..|C-4 CF.F ....|--- .... ....|F#2 2F.F ....
 A-3|..|A-4 2C.F ....|--- .... ....|C-6 2F.F ....
....|..|R-- .... ....|A-4 2F.7 ....|F#2 2F.7 ....
....|..|G-4 2F.7 ....|--- .... ....|C-6 2F.7 ....
....|..|R-- .... ....|--- .... ....|C-6 2F.F ....
....|..|--- .... ....|--- .... ....|C-6 2F.F ....
....|..|A-4 2F.7 ....|--- .... ....|F#2 2F.7 ....
....|..|--- .... ....|--- .... ....|C-6 2F.F ....
....|..|--- .... ....|--- .... ....|F#2 2F.F ....
....|..|R-- .... ....|--- .... ....|C-6 2F.F ....
....|..|--- .... ....|--- .... ....|C-6 2F.7 ....
....|..|--- .... ....|--- .... ....|C-6 2F.F ....
....|..|C-4 CF.F ....|--- .... ....|F#2 2F.F ....
....|..|R-- .... ....|--- .... ....|C-6 2F.F ....
....|..|--- .... ....|--- .... ....|F#2 2F.7 ....
....|..|--- .... ....|--- .... ....|C-6 2F.F ....
....|..|C-4 CF.F ....|--- .... ....|F#2 2F.F ....
....|..|--- .... ....|--- .... ....|C-6 2F.7 ....
....|..|--- .... ....|--- .... ....|C-6 2F.F ....
....|..|--- .... ....|R-- .... ....|C-6 2F.F ....
....|..|--- .... ....|--- .... ....|F#2 2F.F ....
....|..|--- .... ....|--- .... ....|C-6 2F.F ....
....|..|--- .... ....|R-- .... ....|F#2 2F.7 ....
....|..|--- .... ....|--- .... ....|F#2 2F.A ....
....|..|--- .... ....|--- .... ....|C-6 2F.F ....
....|..|R-- .... ....|R-- .... ....|C-6 2F.F ....
....|..|--- .... ....|--- .... ....|F#2 2F.7 ....
....|..|--- .... ....|--- .... ....|C-6 2F.F ....
....|..|--- .... ....|--- .... ....|F#2 2F.F ....
....|..|--- .... ....|--- .... ....|C-6 2F.F ....
....|..|--- .... ....|--- .... ....|C-6 2F.7 ....
....|..|--- .... ....|--- .... ....|C-6 2F.F ....

[Pattern10]
....|..|C-4 CF.F ....|--- .... ....|F#2 2F.F ....
....|..|--- .... ....|--- .... ....|C-6 2F.F ....
....|..|--- .... ....|--- .... ....|F#2 2F.7 ....
....|..|--- .... ....|--- .... ....|C-6 2F.7 ....
....|..|--- .... ....|--- .... ....|C-6 2F.F ....
....|..|--- .... ....|--- .... ....|C-6 2F.F ....
....|..|--- .... ....|--- .... ....|F#2 2F.7 ....
....|..|--- .... ....|--- .... ....|C-6 2F.F ....
....|..|--- .... ....|--- .... ....|A#2 2F.F ....
....|..|R-- .... ....|--- .... ....|C-6 2F.F ....
....|..|--- .... ....|--- .... ....|C-6 2F.7 ....
....|..|--- .... ....|--- .... ....|C-6 2F.F ....
....|..|C-4 CF.F ....|--- .... ....|A#2 2F.F ....
....|..|--- .... ....|--- .... ....|C-6 2F.F ....
....|..|R-- .... ....|--- .... ....|A#2 2F.7 ....
....|..|--- .... ....|--- .... ....|C-6 2F.F ....
....|..|B-8 JF.F ....|--- .... ....|A#2 2F.F ....
....|..|--- .... ....|--- .... ....|C-6 2F.7 ....
....|..|R-- .... ....|--- .... ....|C-6 2F.F ....
....|..|--- .... ....|--- .... ....|C-6 2F.F ....
....|..|C-4 9F.F ....|--- .... ....|R-- .... ....
....|..|--- .... ....|--- .... ....|C-6 2F.F ....
....|..|--- .... ....|--- .... ....|A#2 2F.7 ....
....|..|R-- .... ....|--- .... ....|R-- .... ....
....|..|C-4 9F.F ....|--- .... ....|C-6 2F.F ....
....|..|--- .... ....|--- .... ....|C-6 2F.F ....
....|..|--- .... ....|--- .... ....|R-- .... ....
....|..|R-- .... ....|--- .... ....|C-6 2F.F ....
....|..|C-4 CF.F ....|--- .... ....|C-6 2F.A ....
....|..|--- .... ....|--- .... ....|C-6 2F.F ....
 F#3|..|F#4 2C.F ....|--- .... ....|C-6 2F.7 ....
....|..|R-- .... ....|--- .... ....|C-6 2F.F ....
....|..|C-5 VF.F ....|--- .... ....|C#3 2F.F ....
 B-4|..|B-4 2C.F ....|--- .... ....|C-6 2F.F ....
....|..|F#4 2F.A ....|--- .... ....|C-6 2F.A ....
....|..|B-4 2F.A ....|--- .... ....|C-6 2F.7 ....
....|..|F#4 2F.7 ....|--- .... ....|C-6 2F.F ....
....|..|R-- .... ....|--- .... ....|C-6 2F.F ....
....|..|B-4 2F.7 ....|--- .... ....|C#3 2F.7 ....
....|..|--- .... ....|--- .... ....|C-6 2F.F ....
....|..|--- .... ....|G-4 2F.F ....|F#2 2F.F ....
....|..|R-- .... ....|--- .... ....|C-6 2F.F ....
....|..|--- .... ....|--- .... ....|C-6 2F.7 ....
....|..|--- .... ....|G-4 2F.A ....|C-6 2F.F ....
....|..|C-5 VF.F ....|--- .... ....|F#2 2F.F ....
....|..|R-- .... ....|R-- .... ....|C-6 2F.F ....
....|..|--- .... ....|G-4 2F.7 ....|F#2 2F.7 ....
....|..|--- .... ....|--- .... ....|C-6 2F.F ....
....|..|C-5 VF.F ....|G-4 2F.F ....|F#2 2F.F ....
....|..|--- .... ....|--- .... ....|C-6 2F.7 ....
....|..|--- .... ....|--- .... ....|C-6 2F.F ....
....|..|--- .... ....|G-4 2F.A ....|C-6 2F.F ....
....|..|--- .... ....|--- .... ....|F#2 2F.F ....
....|..|R-- .... ....|--- .... ....|C-6 2F.F ....
....|..|--- .... ....|G-4 2F.7 ....|F#2 2F.7 ....
....|..|--- .... ....|--- .... ....|F#2 2F.A ....
....|..|C-4 CF.F ....|G-4 2F.F ....|C-6 2F.F ....
....|..|--- .... ....|R-- .... ....|C-6 2F.F ....
....|..|--- .... ....|--- .... ....|F#2 2F.7 ....
....|..|--- .... ....|G-4 2F.A ....|C-6 2F.F ....
....|..|--- .... ....|R-- .... ....|F#2 2F.F ....
 B-4|..|B-4 2C.F ....|R-- .... ....|C-6 2F.F ....
....|..|R-- .... ....|G-4 2F.7 ....|C-6 2F.7 ....
....|..|--- .... ....|--- .... ....|C-6 2F.F ....

[Pattern11]
....|..|C-4 AF.F ....|E-5 2F.F ....|F#2 2F.F ....
 C-3|..|C-5 2C.F ....|--- .... ....|C-6 2F.F ....
....|..|R-- .... ....|--- .... ....|F#2 2F.7 ....
....|..|B-4 2F.7 ....|E-5 2F.A ....|C-6 2F.7 ....
....|..|R-- .... ....|--- .... ....|C-6 2F.F ....
....|..|--- .... ....|--- .... ....|C-6 2F.F ....
....|..|C-5 2F.7 ....|E-5 2F.7 ....|F#2 2F.7 ....
....|..|--- .... ....|--- .... ....|C-6 2F.F ....
....|..|--- .... ....|--- .... ....|F#2 2F.F ....
....|..|R-- .... ....|--- .... ....|C-6 2F.F ....
....|..|--- .... ....|--- .... ....|C-6 2F.7 ....
....|..|--- .... ....|--- .... ....|C-6 2F.F ....
....|..|C-4 AF.F ....|--- .... ....|F#2 2F.F ....
....|..|R-- .... ....|--- .... ....|C-6 2F.F ....
....|..|--- .... ....|--- .... ....|F#2 2F.7 ....
....|..|--- .... ....|--- .... ....|C-6 2F.F ....
....|..|C-4 AF.F ....|--- .... ....|F#2 2F.F ....
....|..|--- .... ....|--- .... ....|C-6 2F.7 ....
....|..|--- .... ....|--- .... ....|C-6 2F.F ....
....|..|--- .... ....|--- .... ....|C-6 2F.F ....
....|..|--- .... ....|--- .... ....|F#2 2F.F ....
....|..|--- .... ....|--- .... ....|C-6 2F.F ....
....|..|--- .... ....|R-- .... ....|F#2 2F.7 ....
....|..|--- .... ....|--- .... ....|F#2 2F.A ....
....|..|--- .... ....|E-5 2F.F ....|C-6 2F.F ....
....|..|R-- .... ....|R-- .... ....|C-6 2F.F ....
....|..|--- .... ....|--- .... ....|F#2 2F.7 ....
....|..|--- .... ....|E-5 2F.A ....|C-6 2F.F ....
....|..|C-4 AF.F ....|R-- .... ....|F#2 2F.F ....
....|..|R-- .... ....|--- .... ....|C-6 2F.F ....
....|..|R-- .... ....|E-5 2F.7 ....|C-6 2F.7 ....
....|..|--- .... ....|R-- .... ....|C-6 2F.F ....
....|..|C-4 9F.F ....|D-5 2F.F ....|F#2 2F.F ....
 B-4|..|B-4 2C.F ....|--- .... ....|C-6 2F.F ....
....|..|R-- .... ....|R-- .... ....|F#2 2F.7 ....
....|..|B-4 2F.A ....|D-5 2F.A ....|C-6 2F.7 ....
....|..|R-- .... ....|--- .... ....|C-6 2F.F ....
....|..|--- .... ....|R-- .... ....|C-6 2F.F ....
....|..|B-4 2F.7 ....|D-5 2F.7 ....|F#2 2F.7 ....
....|..|--- .... ....|--- .... ....|C-6 2F.F ....
....|..|R-- .... ....|--- .... ....|F#2 2F.F ....
....|..|--- .... ....|--- .... ....|C-6 2F.F ....
....|..|--- .... ....|--- .... ....|C-6 2F.7 ....
....|..|--- .... ....|--- .... ....|C-6 2F.F ....
....|..|C-4 9F.F ....|R-- .... ....|F#2 2F.F ....
....|..|R-- .... ....|--- .... ....|C-6 2F.F ....
....|..|--- .... ....|--- .... ....|F#2 2F.7 ....
....|..|--- .... ....|R-- .... ....|C-6 2F.F ....
....|..|C-4 9F.F ....|D-5 2F.F ....|F#2 2F.F ....
....|..|--- .... ....|--- .... ....|C-6 2F.7 ....
....|..|--- .... ....|R-- .... ....|C-6 2F.F ....
....|..|--- .... ....|D-5 2F.A ....|C-6 2F.F ....
....|..|--- .... ....|--- .... ....|F#2 2F.F ....
....|..|--- .... ....|--- .... ....|C-6 2F.F ....
....|..|--- .... ....|D-5 2F.7 ....|F#2 2F.7 ....
....|..|R-- .... ....|--- .... ....|F#2 2F.A ....
....|..|C-4 CF.F ....|--- .... ....|C-6 2F.F ....
....|..|--- .... ....|--- .... ....|C-6 2F.F ....
....|..|--- .... ....|--- .... ....|F#2 2F.7 ....
....|..|R-- .... ....|--- .... ....|C-6 2F.F ....
....|..|C-4 9F.F ....|--- .... ....|F#2 2F.F ....
....|..|--- .... ....|R-- .... ....|C-6 2F.F ....
....|..|R-- .... ....|--- .... ....|C-6 2F.7 ....
....|..|--- .... ....|--- .... ....|C-6 2F.F ....

[Pattern12]
....|..|C-4 CF.F ....|B-4 2F.F ....|F#2 2F.F ....
 A-3|..|A-4 2C.F ....|--- .... ....|C-6 2F.F ....
....|..|R-- .... ....|--- .... ....|F#2 2F.7 ....
....|..|A-4 2F.A ....|B-4 2F.A ....|C-6 2F.7 ....
....|..|R-- .... ....|--- .... ....|C-6 2F.F ....
....|..|--- .... ....|A-4 2F.F ....|C-6 2F.F ....
....|..|A-4 2F.7 ....|B-4 2F.7 ....|F#2 2F.7 ....
....|..|--- .... ....|--- .... ....|C-6 2F.F ....
....|..|--- .... ....|A-4 2F.A ....|F#2 2F.F ....
....|..|R-- .... ....|R-- .... ....|C-6 2F.F ....
....|..|--- .... ....|--- .... ....|C-6 2F.7 ....
....|..|--- .... ....|A-4 2F.7 ....|C-6 2F.F ....
....|..|C-4 CF.F ....|--- .... ....|F#2 2F.F ....
....|..|--- .... ....|--- .... ....|C-6 2F.F ....
....|..|R-- .... ....|--- .... ....|F#2 2F.7 ....
....|..|--- .... ....|--- .... ....|C-6 2F.F ....
....|..|B-8 JF.F ....|--- .... ....|F#2 2F.F ....
....|..|--- .... ....|--- .... ....|C-6 2F.7 ....
....|..|--- .... ....|--- .... ....|C-6 2F.F ....
....|..|R-- .... ....|--- .... ....|C-6 2F.F ....
....|..|C-4 9F.F ....|--- .... ....|F#2 2F.F ....
....|..|--- .... ....|--- .... ....|C-6 2F.F ....
....|..|--- .... ....|--- .... ....|F#2 2F.7 ....
....|..|R-- .... ....|--- .... ....|F#2 2F.A ....
....|..|C-4 9F.F ....|--- .... ....|C-6 2F.F ....
....|..|--- .... ....|--- .... ....|C-6 2F.F ....
....|..|--- .... ....|R-- .... ....|F#2 2F.7 ....
....|..|--- .... ....|--- .... ....|C-6 2F.F ....
....|..|C-4 CF.F ....|--- .... ....|A#2 2F.F ....
....|..|--- .... ....|R-- .... ....|C-6 2F.F ....
....|..|R-- .... ....|--- .... ....|C-6 2F.7 ....
....|..|--- .... ....|--- .... ....|C-6 2F.F ....
....|..|C-5 VF.F ....|R-- .... ....|F#2 2F.F ....
 B-4|..|B-4 2C.F ....|--- .... ....|C-6 2F.F ....
....|..|R-- .... ....|--- .... ....|A#2 2F.7 ....
....|..|B-4 2F.A ....|--- .... ....|C-6 2F.7 ....
....|..|R-- .... ....|--- .... ....|C-6 2F.F ....
....|..|--- .... ....|--- .... ....|C-6 2F.F ....
....|..|B-4 2F.7 ....|--- .... ....|F#2 2F.7 ....
....|..|--- .... ....|--- .... ....|C-6 2F.F ....
....|..|--- .... ....|--- .... ....|F#2 2F.F ....
....|..|R-- .... ....|--- .... ....|C-6 2F.F ....
....|..|--- .... ....|--- .... ....|C-6 2F.7 ....
....|..|--- .... ....|--- .... ....|C-6 2F.F ....
....|..|C-5 VF.F ....|--- .... ....|F#2 2F.F ....
....|..|R-- .... ....|--- .... ....|C-6 2F.F ....
....|..|--- .... ....|--- .... ....|F#2 2F.7 ....
....|..|--- .... ....|--- .... ....|C-6 2F.F ....
....|..|C-5 VF.F ....|G-4 2F.F ....|F#2 2F.F ....
....|..|--- .... ....|--- .... ....|C-6 2F.7 ....
....|..|--- .... ....|--- .... ....|C-6 2F.F ....
....|..|--- .... ....|G-4 2F.A ....|C-6 2F.F ....
....|..|--- .... ....|G-4 2F.F ....|F#2 2F.F ....
....|..|--- .... ....|--- .... ....|C-6 2F.F ....
....|..|R-- .... ....|G-4 2F.7 ....|F#2 2F.7 ....
....|..|--- .... ....|G-4 2F.A ....|F#2 2F.A ....
....|..|C-5 VF.F ....|--- .... ....|C-6 2F.F ....
....|..|--- .... ....|R-- .... ....|C-6 2F.F ....
....|..|--- .... ....|G-4 2F.7 ....|F#2 2F.7 ....
....|..|R-- .... ....|--- .... ....|C-6 2F.F ....
....|..|C-4 CF.F ....|E-5 2F.F ....|F#2 2F.F ....
....|..|--- .... ....|--- .... ....|C-6 2F.F ....
....|..|R-- .... ....|--- .... ....|C-6 2F.7 ....
....|..|--- .... ....|E-5 2F.A ....|C-6 2F.F ....

[Pattern13]
....|..|C-4 AF.F ....|--- .... ....|F#2 2F.F ....
 C-3|..|C-5 2C.F ....|--- .... ....|C-6 2F.F ....
....|..|R-- .... ....|E-5 2F.7 ....|F#2 2F.7 ....
....|..|C-5 2F.A ....|--- .... ....|C-6 2F.7 ....
....|..|R-- .... ....|--- .... ....|C-6 2F.F ....
....|..|--- .... ....|--- .... ....|C-6 2F.F ....
....|..|C-5 2F.7 ....|--- .... ....|F#2 2F.7 ....
....|..|--- .... ....|--- .... ....|C-6 2F.F ....
....|..|--- .... ....|--- .... ....|F#2 2F.F ....
....|..|R-- .... ....|--- .... ....|C-6 2F.F ....
....|..|--- .... ....|--- .... ....|C-6 2F.7 ....
....|..|--- .... ....|--- .... ....|C-6 2F.F ....
....|..|C-4 AF.F ....|--- .... ....|F#2 2F.F ....
....|..|R-- .... ....|--- .... ....|C-6 2F.F ....
....|..|--- .... ....|--- .... ....|F#2 2F.7 ....
....|..|--- .... ....|--- .... ....|C-6 2F.F ....
....|..|C-4 AF.F ....|--- .... ....|F#2 2F.F ....
....|..|--- .... ....|--- .... ....|C-6 2F.7 ....
....|..|--- .... ....|--- .... ....|C-6 2F.F ....
....|..|--- .... ....|--- .... ....|C-6 2F.F ....
....|..|--- .... ....|R-- .... ....|F#2 2F.F ....
....|..|--- .... ....|--- .... ....|C-6 2F.F ....
....|..|--- .... ....|--- .... ....|F#2 2F.7 ....
....|..|--- .... ....|R-- .... ....|F#2 2F.A ....
....|..|--- .... ....|--- .... ....|C-6 2F.F ....
....|..|R-- .... ....|--- .... ....|C-6 2F.F ....
....|..|--- .... ....|R-- .... ....|F#2 2F.7 ....
....|..|--- .... ....|--- .... ....|C-6 2F.F ....
....|..|C-4 AF.F ....|E-5 2F.F ....|F#2 2F.F ....
....|..|R-- .... ....|--- .... ....|C-6 2F.F ....
....|..|R-- .... ....|--- .... ....|C-6 2F.7 ....
....|..|--- .... ....|E-5 2F.A ....|C-6 2F.F ....
....|..|C-4 9F.F ....|--- .... ....|F#2 2F.F ....
 B-4|..|B-4 2C.F ....|--- .... ....|C-6 2F.F ....
....|..|R-- .... ....|E-5 2F.7 ....|F#2 2F.7 ....
....|..|B-4 2F.A ....|R-- .... ....|C-6 2F.7 ....
....|..|R-- .... ....|D-5 2F.F ....|C-6 2F.F ....
....|..|--- .... ....|--- .... ....|C-6 2F.F ....
....|..|B-4 2F.7 ....|R-- .... ....|F#2 2F.7 ....
....|..|--- .... ....|D-5 2F.A ....|C-6 2F.F ....
....|..|--- .... ....|--- .... ....|F#2 2F.F ....
....|..|R-- .... ....|R-- .... ....|C-6 2F.F ....
....|..|--- .... ....|D-5 2F.7 ....|C-6 2F.7 ....
....|..|--- .... ....|--- .... ....|C-6 2F.F ....
....|..|C-4 9F.F ....|E-5 2F.F ....|F#2 2F.F ....
....|..|R-- .... ....|--- .... ....|C-6 2F.F ....
....|..|--- .... ....|--- .... ....|F#2 2F.7 ....
....|..|--- .... ....|E-5 2F.A ....|C-6 2F.F ....
....|..|C-4 9F.F ....|D-5 2F.F ....|F#2 2F.F ....
....|..|--- .... ....|--- .... ....|C-6 2F.7 ....
....|..|--- .... ....|E-5 2F.7 ....|C-6 2F.F ....
....|..|--- .... ....|D-5 2F.A ....|C-6 2F.F ....
....|..|--- .... ....|B-4 2F.F ....|F#2 2F.F ....
....|..|--- .... ....|R-- .... ....|C-6 2F.F ....
....|..|--- .... ....|D-5 2F.7 ....|F#2 2F.7 ....
....|..|--- .... ....|B-4 2F.A ....|F#2 2F.A ....
....|..|--- .... ....|R-- .... ....|C-6 2F.F ....
....|..|R-- .... ....|--- .... ....|C-6 2F.F ....
....|..|--- .... ....|B-4 2F.7 ....|F#2 2F.7 ....
....|..|--- .... ....|R-- .... ....|C-6 2F.F ....
....|..|C-4 9F.F ....|A-4 2F.F ....|F#2 2F.F ....
 B-4|..|B-4 2C.F ....|--- .... ....|C-6 2F.F ....
....|..|R-- .... ....|R-- .... ....|C-6 2F.7 ....
....|..|--- .... ....|A-4 2F.A ....|C-6 2F.F ....

[Pattern14]
....|..|C-4 CF.F ....|--- .... ....|F#2 2F.F ....
 A-3|..|A-4 2C.F ....|--- .... ....|C-6 2F.F ....
....|..|R-- .... ....|A-4 2F.7 ....|F#2 2F.7 ....
....|..|B-4 2F.7 ....|--- .... ....|C-6 2F.7 ....
....|..|R-- .... ....|--- .... ....|C-6 2F.F ....
....|..|--- .... ....|--- .... ....|C-6 2F.F ....
....|..|A-4 2F.7 ....|--- .... ....|F#2 2F.7 ....
....|..|--- .... ....|--- .... ....|C-6 2F.F ....
....|..|R-- .... ....|--- .... ....|F#2 2F.F ....
....|..|--- .... ....|--- .... ....|C-6 2F.F ....
....|..|--- .... ....|--- .... ....|C-6 2F.7 ....
....|..|--- .... ....|--- .... ....|C-6 2F.F ....
....|..|C-4 CF.F ....|--- .... ....|F#2 2F.F ....
....|..|R-- .... ....|--- .... ....|C-6 2F.F ....
....|..|--- .... ....|--- .... ....|F#2 2F.7 ....
....|..|--- .... ....|--- .... ....|C-6 2F.F ....
....|..|B-8 JF.F ....|--- .... ....|F#2 2F.F ....
....|..|--- .... ....|--- .... ....|C-6 2F.7 ....
....|..|R-- .... ....|--- .... ....|C-6 2F.F ....
....|..|--- .... ....|--- .... ....|C-6 2F.F ....
....|..|C-4 9F.F ....|R-- .... ....|A#2 2F.F ....
....|..|--- .... ....|--- .... ....|C-6 2F.F ....
....|..|--- .... ....|--- .... ....|F#2 2F.7 ....
....|..|R-- .... ....|R-- .... ....|A#2 2F.A ....
....|..|C-4 9F.F ....|--- .... ....|C-6 2F.F ....
....|..|--- .... ....|--- .... ....|C-6 2F.F ....
....|..|--- .... ....|R-- .... ....|A#2 2F.7 ....
....|..|--- .... ....|--- .... ....|C-6 2F.F ....
....|..|C-4 CF.F ....|--- .... ....|A#2 2F.F ....
....|..|--- .... ....|--- .... ....|C-6 2F.F ....
....|..|--- .... ....|--- .... ....|C-6 2F.7 ....
 F#3|..|F#4 2C.F ....|--- .... ....|C-6 2F.F ....
....|..|C-5 VF.F ....|--- .... ....|F#2 2F.F ....
 B-4|..|B-4 2C.F ....|--- .... ....|C-6 2F.F ....
....|..|F#4 2F.A ....|--- .... ....|A#2 2F.7 ....
....|..|B-4 2F.A ....|--- .... ....|C-6 2F.7 ....
....|..|--- .... ....|--- .... ....|C-6 2F.F ....
....|..|F#4 2F.7 ....|--- .... ....|C-6 2F.F ....
....|..|B-4 2F.7 ....|--- .... ....|F#2 2F.7 ....
....|..|--- .... ....|--- .... ....|C-6 2F.F ....
....|..|--- .... ....|--- .... ....|F#2 2F.F ....
....|..|R-- .... ....|--- .... ....|C-6 2F.F ....
....|..|--- .... ....|--- .... ....|C-6 2F.7 ....
....|..|--- .... ....|--- .... ....|C-6 2F.F ....
....|..|C-5 VF.F ....|--- .... ....|F#2 2F.F ....
....|..|R-- .... ....|--- .... ....|C-6 2F.F ....
....|..|--- .... ....|--- .... ....|F#2 2F.7 ....
....|..|--- .... ....|--- .... ....|C-6 2F.F ....
....|..|C-5 VF.F ....|G-4 2F.F ....|F#2 2F.F ....
....|..|--- .... ....|--- .... ....|C-6 2F.7 ....
....|..|--- .... ....|--- .... ....|C-6 2F.F ....
....|..|--- .... ....|G-4 2F.A ....|C-6 2F.F ....
....|..|--- .... ....|A-4 2F.F ....|F#2 2F.F ....
....|..|--- .... ....|--- .... ....|C-6 2F.F ....
....|..|--- .... ....|G-4 2F.7 ....|F#2 2F.7 ....
....|..|--- .... ....|A-4 2F.A ....|F#2 2F.A ....
....|..|--- .... ....|G-4 2F.F ....|C-6 2F.F ....
....|..|R-- .... ....|--- .... ....|C-6 2F.F ....
....|..|--- .... ....|A-4 2F.7 ....|F#2 2F.7 ....
....|..|--- .... ....|G-4 2F.A ....|C-6 2F.F ....
....|..|C-4 AF.F ....|--- .... ....|F#2 2F.F ....
....|..|--- .... ....|R-- .... ....|C-6 2F.F ....
....|..|R-- .... ....|G-4 2F.7 ....|C-6 2F.7 ....
....|..|--- .... ....|D-5 2F.F ....|C-6 2F.F ....

[Pattern15]
....|..|C-4 9F.F ....|R-- .... ....|F#2 2F.F ....
 B-4|..|B-4 2C.F ....|--- .... ....|C-6 2F.F ....
....|..|R-- .... ....|D-5 2F.A ....|F#2 2F.7 ....
....|..|B-4 2F.A ....|R-- .... ....|C-6 2F.7 ....
....|..|R-- .... ....|B-4 2F.F ....|C-6 2F.F ....
....|..|--- .... ....|D-5 2F.7 ....|C-6 2F.F ....
....|..|B-4 2F.7 ....|--- .... ....|F#2 2F.7 ....
....|..|--- .... ....|B-4 2F.A ....|C-6 2F.F ....
....|..|--- .... ....|--- .... ....|F#2 2F.F ....
....|..|R-- .... ....|--- .... ....|C-6 2F.F ....
....|..|--- .... ....|B-4 2F.7 ....|C-6 2F.7 ....
....|..|--- .... ....|--- .... ....|C-6 2F.F ....
....|..|C-4 9F.F ....|--- .... ....|F#2 2F.F ....
....|..|R-- .... ....|--- .... ....|C-6 2F.F ....
....|..|--- .... ....|--- .... ....|F#2 2F.7 ....
....|..|--- .... ....|--- .... ....|C-6 2F.F ....
....|..|C-4 9F.F ....|--- .... ....|F#2 2F.F ....
....|..|--- .... ....|--- .... ....|C-6 2F.7 ....
....|..|--- .... ....|--- .... ....|C-6 2F.F ....
....|..|--- .... ....|R-- .... ....|C-6 2F.F ....
....|..|--- .... ....|--- .... ....|F#2 2F.F ....
....|..|R-- .... ....|--- .... ....|C-6 2F.F ....
....|..|--- .... ....|R-- .... ....|F#2 2F.7 ....
....|..|--- .... ....|--- .... ....|F#2 2F.A ....
....|..|C-4 CF.F ....|--- .... ....|C-6 2F.F ....
....|..|--- .... ....|R-- .... ....|C-6 2F.F ....
....|..|--- .... ....|--- .... ....|F#2 2F.7 ....
....|..|--- .... ....|--- .... ....|C-6 2F.F ....
....|..|--- .... ....|A-4 2F.F ....|F#2 2F.F ....
....|..|R-- .... ....|--- .... ....|C-6 2F.F ....
 G-4|..|G-4 2C.F ....|--- .... ....|C-6 2F.7 ....
....|..|R-- .... ....|A-4 2F.A ....|C-6 2F.F ....
....|..|C-4 AF.F ....|G-4 2F.F ....|F#2 2F.F ....
 C-3|..|C-5 2C.F ....|--- .... ....|C-6 2F.F ....
....|..|G-4 2F.A ....|A-4 2F.7 ....|F#2 2F.7 ....
....|..|C-5 2F.A ....|G-4 2F.A ....|C-6 2F.7 ....
....|..|G-4 2F.7 ....|--- .... ....|C-6 2F.F ....
....|..|R-- .... ....|R-- .... ....|C-6 2F.F ....
....|..|C-5 2F.7 ....|G-4 2F.7 ....|F#2 2F.7 ....
....|..|--- .... ....|--- .... ....|C-6 2F.F ....
....|..|--- .... ....|--- .... ....|F#2 2F.F ....
....|..|R-- .... ....|--- .... ....|C-6 2F.F ....
....|..|--- .... ....|--- .... ....|C-6 2F.7 ....
....|..|--- .... ....|--- .... ....|C-6 2F.F ....
....|..|C-4 AF.F ....|--- .... ....|F#2 2F.F ....
....|..|R-- .... ....|--- .... ....|C-6 2F.F ....
....|..|--- .... ....|R-- .... ....|F#2 2F.7 ....
....|..|--- .... ....|--- .... ....|C-6 2F.F ....
....|..|C-4 AF.F ....|G-4 2F.F ....|F#2 2F.F ....
....|..|--- .... ....|R-- .... ....|C-6 2F.7 ....
....|..|--- .... ....|--- .... ....|C-6 2F.F ....
....|..|--- .... ....|G-4 2F.A ....|C-6 2F.F ....
....|..|--- .... ....|R-- .... ....|F#2 2F.F ....
....|..|--- .... ....|--- .... ....|C-6 2F.F ....
....|..|--- .... ....|G-4 2F.7 ....|F#2 2F.7 ....
....|..|--- .... ....|--- .... ....|F#2 2F.A ....
....|..|--- .... ....|--- .... ....|C-6 2F.F ....
....|..|R-- .... ....|--- .... ....|C-6 2F.F ....
....|..|--- .... ....|--- .... ....|F#2 2F.7 ....
....|..|--- .... ....|--- .... ....|C-6 2F.F ....
....|..|C-4 AF.F ....|--- .... ....|F#2 2F.F ....
....|..|R-- .... ....|R-- .... ....|C-6 2F.F ....
....|..|R-- .... ....|--- .... ....|C-6 2F.7 ....
....|..|--- .... ....|--- .... ....|C-6 2F.F ....

[Pattern16]
....|..|C-4 9F.F ....|E-4 2F.F ....|F#2 2F.F ....
 B-4|..|B-4 2C.F ....|--- .... ....|C-6 2F.F ....
....|..|R-- .... ....|--- .... ....|F#2 2F.7 ....
....|..|B-4 2F.A ....|E-4 2F.A ....|C-6 2F.7 ....
....|..|R-- .... ....|--- .... ....|C-6 2F.F ....
....|..|--- .... ....|D-4 2F.F ....|C-6 2F.F ....
....|..|B-4 2F.7 ....|E-4 2F.7 ....|F#2 2F.7 ....
....|..|--- .... ....|--- .... ....|C-6 2F.F ....
....|..|--- .... ....|D-4 2F.A ....|F#2 2F.F ....
....|..|R-- .... ....|R-- .... ....|C-6 2F.F ....
....|..|--- .... ....|--- .... ....|C-6 2F.7 ....
....|..|--- .... ....|D-4 2F.7 ....|C-6 2F.F ....
....|..|C-4 9F.F ....|--- .... ....|F#2 2F.F ....
....|..|R-- .... ....|--- .... ....|C-6 2F.F ....
....|..|--- .... ....|--- .... ....|F#2 2F.7 ....
....|..|--- .... ....|--- .... ....|C-6 2F.F ....
....|..|C-4 9F.F ....|--- .... ....|F#2 2F.F ....
....|..|--- .... ....|--- .... ....|C-6 2F.7 ....
....|..|--- .... ....|--- .... ....|C-6 2F.F ....
....|..|--- .... ....|--- .... ....|C-6 2F.F ....
....|..|--- .... ....|--- .... ....|F#2 2F.F ....
....|..|R-- .... ....|--- .... ....|C-6 2F.F ....
....|..|--- .... ....|--- .... ....|F#2 2F.7 ....
....|..|--- .... ....|--- .... ....|F#2 2F.A ....
....|..|C-4 CF.F ....|--- .... ....|C-6 2F.F ....
....|..|--- .... ....|--- .... ....|C-6 2F.F ....
....|..|--- .... ....|--- .... ....|F#2 2F.7 ....
....|..|--- .... ....|R-- .... ....|C-6 2F.F ....
....|..|--- .... ....|--- .... ....|A#2 2F.F ....
....|..|R-- .... ....|--- .... ....|C-6 2F.F ....
....|..|--- .... ....|R-- .... ....|C-6 2F.7 ....
....|..|--- .... ....|--- .... ....|C-6 2F.F ....
....|..|C-4 9F.F ....|--- .... ....|F#2 2F.F ....
....|..|--- .... ....|R-- .... ....|C-6 2F.F ....
....|..|--- .... ....|--- .... ....|A#2 2F.7 ....
....|..|--- .... ....|--- .... ....|C-6 2F.7 ....
....|..|--- .... ....|--- .... ....|C-6 2F.F ....
....|..|--- .... ....|--- .... ....|C-6 2F.F ....
....|..|--- .... ....|--- .... ....|F#2 2F.7 ....
....|..|--- .... ....|--- .... ....|C-6 2F.F ....
....|..|--- .... ....|--- .... ....|F#2 2F.F ....
....|..|R-- .... ....|--- .... ....|C-6 2F.F ....
....|..|--- .... ....|--- .... ....|C-6 2F.7 ....
....|..|--- .... ....|--- .... ....|C-6 2F.F ....
....|..|C-4 9F.F ....|--- .... ....|F#2 2F.F ....
....|..|R-- .... ....|--- .... ....|C-6 2F.F ....
....|..|--- .... ....|--- .... ....|F#2 2F.7 ....
....|..|--- .... ....|--- .... ....|C-6 2F.F ....
....|..|C-4 9F.F ....|G-4 2F.F ....|F#2 2F.F ....
....|..|--- .... ....|--- .... ....|C-6 2F.7 ....
....|..|R-- .... ....|--- .... ....|C-6 2F.F ....
....|..|--- .... ....|G-4 2F.A ....|C-6 2F.F ....
....|..|B-8 JF.F ....|A-4 2F.F ....|F#2 2F.F ....
....|..|--- .... ....|--- .... ....|C-6 2F.F ....
....|..|--- .... ....|G-4 2F.7 ....|F#2 2F.7 ....
....|..|R-- .... ....|A-4 2F.A ....|F#2 2F.A ....
....|..|C-5 VF.F ....|--- .... ....|C-6 2F.F ....
....|..|--- .... ....|R-- .... ....|C-6 2F.F ....
....|..|--- .... ....|A-4 2F.7 ....|F#2 2F.7 ....
....|..|R-- .... ....|--- .... ....|C-6 2F.F ....
....|..|C-4 CF.F ....|--- .... ....|F#2 2F.F ....
....|..|R-- .... ....|--- .... ....|C-6 2F.F ....
....|..|--- .... ....|R-- .... ....|C-6 2F.7 ....
....|..|--- .... ....|--- .... ....|C-6 2F.F ....

[Pattern17]
....|..|C-4 AF.F ....|B-4 2F.F ....|F#2 2F.F ....
 B-4|..|B-4 2C.F ....|R-- .... ....|C-6 2F.F ....
....|..|--- .... ....|--- .... ....|F#2 2F.7 ....
....|..|B-4 2F.A ....|B-4 2F.A ....|C-6 2F.7 ....
....|..|--- .... ....|R-- .... ....|C-6 2F.F ....
....|..|--- .... ....|B-4 2F.F ....|C-6 2F.F ....
....|..|B-4 2F.7 ....|B-4 2F.7 ....|F#2 2F.7 ....
....|..|--- .... ....|--- .... ....|C-6 2F.F ....
....|..|--- .... ....|B-4 2F.A ....|F#2 2F.F ....
....|..|R-- .... ....|R-- .... ....|C-6 2F.F ....
....|..|--- .... ....|--- .... ....|C-6 2F.7 ....
....|..|--- .... ....|B-4 2F.7 ....|C-6 2F.F ....
....|..|C-4 AF.F ....|--- .... ....|F#2 2F.F ....
....|..|R-- .... ....|--- .... ....|C-6 2F.F ....
....|..|--- .... ....|--- .... ....|F#2 2F.7 ....
....|..|--- .... ....|--- .... ....|C-6 2F.F ....
....|..|C-4 AF.F ....|--- .... ....|F#2 2F.F ....
....|..|--- .... ....|--- .... ....|C-6 2F.7 ....
....|..|--- .... ....|--- .... ....|C-6 2F.F ....
....|..|--- .... ....|R-- .... ....|C-6 2F.F ....
....|..|--- .... ....|--- .... ....|F#2 2F.F ....
....|..|--- .... ....|--- .... ....|C-6 2F.F ....
....|..|--- .... ....|R-- .... ....|F#2 2F.7 ....
....|..|--- .... ....|--- .... ....|F#2 2F.A ....
....|..|--- .... ....|--- .... ....|C-6 2F.F ....
....|..|R-- .... ....|R-- .... ....|C-6 2F.F ....
....|..|--- .... ....|--- .... ....|F#2 2F.7 ....
....|..|--- .... ....|--- .... ....|C-6 2F.F ....
....|..|C-4 AF.F ....|E-5 2F.F ....|F#2 2F.F ....
....|..|--- .... ....|--- .... ....|C-6 2F.F ....
....|..|R-- .... ....|--- .... ....|C-6 2F.7 ....
....|..|R-- .... ....|E-5 2F.A ....|C-6 2F.F ....
....|..|C-5 VF.F ....|D-5 2F.F ....|F#2 2F.F ....
 B-4|..|B-4 2C.F ....|--- .... ....|C-6 2F.F ....
....|..|R-- .... ....|E-5 2F.7 ....|F#2 2F.7 ....
....|..|B-4 2F.A ....|D-5 2F.A ....|C-6 2F.7 ....
....|..|R-- .... ....|R-- .... ....|C-6 2F.F ....
....|..|--- .... ....|E-5 2F.F ....|C-6 2F.F ....
....|..|B-4 2F.7 ....|D-5 2F.7 ....|F#2 2F.7 ....
....|..|--- .... ....|R-- .... ....|C-6 2F.F ....
....|..|--- .... ....|E-5 2F.A ....|F#2 2F.F ....
....|..|R-- .... ....|--- .... ....|C-6 2F.F ....
....|..|--- .... ....|R-- .... ....|C-6 2F.7 ....
....|..|--- .... ....|E-5 2F.7 ....|C-6 2F.F ....
....|..|C-5 VF.F ....|D-5 2F.F ....|F#2 2F.F ....
....|..|R-- .... ....|R-- .... ....|C-6 2F.F ....
....|..|--- .... ....|--- .... ....|F#2 2F.7 ....
....|..|--- .... ....|D-5 2F.A ....|C-6 2F.F ....
....|..|C-5 VF.F ....|R-- .... ....|F#2 2F.F ....
....|..|--- .... ....|--- .... ....|C-6 2F.7 ....
....|..|--- .... ....|D-5 2F.7 ....|C-6 2F.F ....
....|..|--- .... ....|R-- .... ....|C-6 2F.F ....
....|..|--- .... ....|B-4 2F.F ....|F#2 2F.F ....
....|..|--- .... ....|--- .... ....|C-6 2F.F ....
....|..|--- .... ....|R-- .... ....|F#2 2F.7 ....
....|..|--- .... ....|B-4 2F.A ....|F#2 2F.A ....
....|..|--- .... ....|--- .... ....|C-6 2F.F ....
....|..|R-- .... ....|R-- .... ....|C-6 2F.F ....
....|..|--- .... ....|B-4 2F.7 ....|F#2 2F.7 ....
....|..|--- .... ....|--- .... ....|C-6 2F.F ....
....|..|C-5 VF.F ....|A-4 2F.F ....|F#2 2F.F ....
....|..|R-- .... ....|R-- .... ....|C-6 2F.F ....
....|..|R-- .... ....|--- .... ....|C-6 2F.7 ....
....|..|--- .... ....|A-4 2F.A ....|C-6 2F.F ....

[Pattern18]
....|..|C-4 CF.F ....|R-- .... ....|F#2 2F.F ....
 A-3|..|A-4 2C.F ....|--- .... ....|C-6 2F.F ....
....|..|R-- .... ....|A-4 2F.7 ....|F#2 2F.7 ....
....|..|A-4 2F.A ....|--- .... ....|C-6 2F.7 ....
....|..|R-- .... ....|--- .... ....|C-6 2F.F ....
....|..|--- .... ....|--- .... ....|C-6 2F.F ....
....|..|A-4 2F.7 ....|--- .... ....|F#2 2F.7 ....
....|..|--- .... ....|--- .... ....|C-6 2F.F ....
....|..|--- .... ....|--- .... ....|F#2 2F.F ....
....|..|R-- .... ....|--- .... ....|C-6 2F.F ....
....|..|--- .... ....|--- .... ....|C-6 2F.7 ....
....|..|--- .... ....|--- .... ....|C-6 2F.F ....
....|..|C-4 CF.F ....|--- .... ....|F#2 2F.F ....
....|..|R-- .... ....|--- .... ....|C-6 2F.F ....
....|..|--- .... ....|--- .... ....|F#2 2F.7 ....
....|..|--- .... ....|--- .... ....|C-6 2F.F ....
....|..|C-4 CF.F ....|--- .... ....|F#2 2F.F ....
....|..|--- .... ....|--- .... ....|C-6 2F.7 ....
....|..|--- .... ....|--- .... ....|C-6 2F.F ....
....|..|--- .... ....|--- .... ....|C-6 2F.F ....
....|..|--- .... ....|--- .... ....|A#2 2F.F ....
....|..|--- .... ....|--- .... ....|C-6 2F.F ....
....|..|--- .... ....|--- .... ....|F#2 2F.7 ....
....|..|--- .... ....|--- .... ....|A#2 2F.A ....
....|..|--- .... ....|--- .... ....|C-6 2F.F ....
....|..|R-- .... ....|--- .... ....|C-6 2F.F ....
....|..|--- .... ....|--- .... ....|A#2 2F.7 ....
....|..|--- .... ....|R-- .... ....|C-6 2F.F ....
....|..|--- .... ....|--- .... ....|A#2 2F.F ....
....|..|--- .... ....|--- .... ....|C-6 2F.F ....
....|..|--- .... ....|R-- .... ....|C-6 2F.7 ....
....|..|--- .... ....|--- .... ....|C-6 2F.F ....
....|..|C-4 CF.F ....|--- .... ....|A#2 2F.F ....
....|..|--- .... ....|R-- .... ....|C-6 2F.F ....
....|..|--- .... ....|--- .... ....|A#2 2F.7 ....
....|..|--- .... ....|--- .... ....|C-6 2F.7 ....
....|..|C-5 VF.F ....|--- .... ....|C-6 2F.F ....
....|..|--- .... ....|--- .... ....|C-6 2F.F ....
....|..|--- .... ....|--- .... ....|A#2 2F.7 ....
....|..|--- .... ....|--- .... ....|C-6 2F.F ....
....|..|--- .... ....|--- .... ....|D#2 2F.F ....
....|..|R-- .... ....|--- .... ....|C-6 2F.F ....
....|..|--- .... ....|--- .... ....|C-6 2F.7 ....
....|..|--- .... ....|--- .... ....|C-6 2F.F ....
....|..|B-8 JF.F ....|--- .... ....|A#2 2F.F ....
....|..|--- .... ....|--- .... ....|C-6 2F.F ....
....|..|--- .... ....|--- .... ....|D#2 2F.7 ....
....|..|--- .... ....|--- .... ....|C-6 2F.F ....
....|..|--- .... ....|--- .... ....|B-1 2F.F ....
....|..|R-- .... ....|--- .... ....|C-6 2F.7 ....
....|..|--- .... ....|--- .... ....|C-6 2F.F ....
....|..|--- .... ....|--- .... ....|C-6 2F.F ....
....|..|C-4 9F.F ....|--- .... ....|R-- .... ....
....|..|--- .... ....|--- .... ....|C-6 2F.F ....
....|..|--- .... ....|--- .... ....|B-1 2F.7 ....
....|..|--- .... ....|--- .... ....|R-- .... ....
....|..|C-4 9F.F ....|--- .... ....|C-6 2F.F ....
....|..|--- .... ....|--- .... ....|C-6 2F.F ....
....|..|--- .... ....|--- .... ....|R-- .... ....
....|..|--- .... ....|--- .... ....|C-6 2F.F ....
....|..|C-4 CF.F ....|--- .... ....|C-6 2F.A ....
....|..|--- .... ....|--- .... ....|C-6 2F.F ....
....|..|R-- .... ....|--- .... ....|C-6 2F.7 ....
....|..|--- .... ....|--- .... ....|C-6 2F.7 ....

[Pattern19]
....|..|C-3 9F.F ....|--- .... ....|F#2 2F.F ....
 C-3|..|C-5 2C.F ....|--- .... ....|C-6 2F.7 ....
....|..|R-- .... ....|--- .... ....|R-- .... ....
....|..|C-5 2F.A ....|--- .... ....|C-6 2F.7 ....
....|..|C-4 AF.F ....|--- .... ....|F#2 2F.F ....
....|..|R-- .... ....|--- .... ....|--- .... ....
....|..|C-5 2F.7 ....|--- .... ....|F#2 2F.7 ....
....|..|R-- .... ....|--- .... ....|F#2 2F.A ....
....|..|C-3 9F.F ....|--- .... ....|F#2 2F.F ....
....|..|--- .... ....|F-5 2F.F ....|--- .... ....
....|..|--- .... ....|--- .... ....|F#2 2F.7 ....
....|..|R-- .... ....|R-- .... ....|F#2 2F.A ....
....|..|C-4 AF.F ....|F-5 2F.F ....|F#2 2F.F ....
....|..|--- .... ....|--- .... ....|--- .... ....
....|..|--- .... ....|R-- .... ....|F#2 2F.7 ....
....|..|R-- .... ....|F-5 2F.7 ....|F#2 2F.A ....
....|..|C-3 9F.F ....|F-5 2F.F ....|F#2 2F.F ....
....|..|--- .... ....|R-- .... ....|--- .... ....
....|..|--- .... ....|F-5 2F.7 ....|F#2 2F.7 ....
....|..|R-- .... ....|F-5 2F.A ....|F#2 2F.A ....
....|..|C-4 AF.F ....|R-- .... ....|F#2 2F.F ....
....|..|--- .... ....|--- .... ....|--- .... ....
....|..|--- .... ....|F-5 2F.7 ....|F#2 2F.7 ....
....|..|R-- .... ....|--- .... ....|F#2 2F.A ....
....|..|C-3 9F.F ....|E-5 2F.F ....|F#2 2F.F ....
....|..|--- .... ....|R-- .... ....|--- .... ....
....|..|--- .... ....|--- .... ....|F#2 2F.7 ....
....|..|R-- .... ....|E-5 2F.A ....|F#2 2F.A ....
....|..|C-4 AF.F ....|E-5 2F.F ....|F#2 2F.F ....
....|..|--- .... ....|--- .... ....|--- .... ....
....|..|--- .... ....|E-5 2F.7 ....|F#2 2F.7 ....
....|..|R-- .... ....|E-5 2F.A ....|F#2 2F.A ....
....|..|C-3 9F.F ....|--- .... ....|F#2 2F.F ....
....|..|--- .... ....|R-- .... ....|--- .... ....
....|..|--- .... ....|E-5 2F.7 ....|F#2 2F.7 ....
....|..|R-- .... ....|--- .... ....|F#2 2F.A ....
....|..|C-4 AF.F ....|D-5 2F.F ....|F#2 2F.F ....
....|..|--- .... ....|R-- .... ....|--- .... ....
....|..|--- .... ....|--- .... ....|F#2 2F.7 ....
....|..|R-- .... ....|D-5 2F.A ....|F#2 2F.A ....
....|..|C-3 9F.F ....|R-- .... ....|F#2 2F.F ....
....|..|--- .... ....|--- .... ....|--- .... ....
....|..|--- .... ....|D-5 2F.7 ....|F#2 2F.7 ....
....|..|R-- .... ....|--- .... ....|F#2 2F.A ....
....|..|C-4 AF.F ....|--- .... ....|F#2 2F.F ....
....|..|--- .... ....|--- .... ....|--- .... ....
....|..|--- .... ....|--- .... ....|F#2 2F.7 ....
....|..|R-- .... ....|--- .... ....|F#2 2F.A ....
....|..|C-3 9F.F ....|--- .... ....|F#2 2F.F ....
....|..|--- .... ....|R-- .... ....|--- .... ....
....|..|--- .... ....|--- .... ....|F#2 2F.7 ....
....|..|R-- .... ....|--- .... ....|F#2 2F.A ....
....|..|C-4 AF.F ....|R-- .... ....|F#2 2F.F ....
....|..|--- .... ....|--- .... ....|--- .... ....
....|..|--- .... ....|--- .... ....|F#2 2F.7 ....
....|..|--- .... ....|R-- .... ....|F#2 2F.A ....
....|..|C-3 9F.F ....|--- .... ....|F#2 2F.F ....
....|..|--- .... ....|--- .... ....|--- .... ....
....|..|--- .... ....|--- .... ....|F#2 2F.7 ....
....|..|R-- .... ....|--- .... ....|F#2 2F.A ....
....|..|C-4 AF.F ....|--- .... ....|F#2 2F.F ....
....|..|--- .... ....|--- .... ....|--- .... ....
....|..|--- .... ....|--- .... ....|F#2 2F.7 ....
....|..|--- .... ....|--- .... ....|F#2 2F.A ....

[Pattern20]
....|..|C-3 9F.F ....|--- .... ....|F#2 2F.F ....
....|..|--- .... ....|--- .... ....|--- .... ....
....|..|--- .... ....|--- .... ....|F#2 2F.7 ....
....|..|R-- .... ....|--- .... ....|F#2 2F.A ....
....|..|C-4 AF.F ....|--- .... ....|F#2 2F.F ....
....|..|--- .... ....|--- .... ....|--- .... ....
....|..|--- .... ....|--- .... ....|F#2 2F.7 ....
....|..|R-- .... ....|--- .... ....|F#2 2F.A ....
....|..|C-3 9F.F ....|F-5 2F.F ....|F#2 2F.F ....
....|..|--- .... ....|--- .... ....|--- .... ....
....|..|--- .... ....|--- .... ....|F#2 2F.7 ....
....|..|R-- .... ....|F-5 2F.A ....|F#2 2F.A ....
....|..|C-4 AF.F ....|--- .... ....|F#2 2F.F ....
....|..|--- .... ....|F-5 2F.F ....|--- .... ....
....|..|--- .... ....|F-5 2F.7 ....|F#2 2F.7 ....
....|..|R-- .... ....|--- .... ....|F#2 2F.A ....
....|..|C-3 9F.F ....|F-5 2F.A ....|F#2 2F.F ....
....|..|--- .... ....|F-5 2F.F ....|--- .... ....
....|..|--- .... ....|--- .... ....|F#2 2F.7 ....
....|..|R-- .... ....|F-5 2F.7 ....|F#2 2F.A ....
....|..|C-4 AF.F ....|F-5 2F.A ....|F#2 2F.F ....
....|..|--- .... ....|--- .... ....|--- .... ....
....|..|--- .... ....|R-- .... ....|F#2 2F.7 ....
....|..|--- .... ....|F-5 2F.7 ....|F#2 2F.A ....
....|..|C-3 9F.F ....|E-5 2F.F ....|F#2 2F.F ....
....|..|--- .... ....|R-- .... ....|--- .... ....
....|..|--- .... ....|--- .... ....|F#2 2F.7 ....
....|..|R-- .... ....|E-5 2F.A ....|F#2 2F.A ....
....|..|C-4 AF.F ....|E-5 2F.F ....|F#2 2F.F ....
....|..|--- .... ....|--- .... ....|--- .... ....
....|..|--- .... ....|E-5 2F.7 ....|F#2 2F.7 ....
....|..|--- .... ....|E-5 2F.A ....|F#2 2F.A ....
....|..|C-3 9F.F ....|--- .... ....|F#2 2F.F ....
....|..|--- .... ....|R-- .... ....|--- .... ....
....|..|--- .... ....|E-5 2F.7 ....|F#2 2F.7 ....
....|..|R-- .... ....|--- .... ....|F#2 2F.A ....
....|..|C-4 AF.F ....|D-5 2F.F ....|F#2 2F.F ....
....|..|--- .... ....|R-- .... ....|--- .... ....
....|..|--- .... ....|--- .... ....|F#2 2F.7 ....
....|..|--- .... ....|D-5 2F.A ....|F#2 2F.A ....
....|..|C-3 9F.F ....|R-- .... ....|F#2 2F.F ....
....|..|--- .... ....|--- .... ....|--- .... ....
....|..|--- .... ....|D-5 2F.7 ....|F#2 2F.7 ....
....|..|R-- .... ....|--- .... ....|F#2 2F.A ....
....|..|C-4 AF.F ....|--- .... ....|F#2 2F.F ....
....|..|--- .... ....|--- .... ....|--- .... ....
....|..|--- .... ....|--- .... ....|F#2 2F.7 ....
....|..|--- .... ....|--- .... ....|F#2 2F.A ....
....|..|C-3 9F.F ....|R-- .... ....|F#2 2F.F ....
....|..|--- .... ....|--- .... ....|--- .... ....
....|..|--- .... ....|--- .... ....|F#2 2F.7 ....
....|..|R-- .... ....|R-- .... ....|F#2 2F.A ....
....|..|C-4 AF.F ....|--- .... ....|F#2 2F.F ....
....|..|--- .... ....|--- .... ....|--- .... ....
....|..|--- .... ....|R-- .... ....|F#2 2F.7 ....
....|..|--- .... ....|--- .... ....|F#2 2F.A ....
....|..|C-3 9F.F ....|C-5 2F.F ....|F#2 2F.F ....
....|..|--- .... ....|--- .... ....|--- .... ....
....|..|--- .... ....|--- .... ....|F#2 2F.7 ....
....|..|R-- .... ....|C-5 2F.A ....|F#2 2F.A ....
....|..|C-4 AF.F ....|--- .... ....|--- .... ....
 A-3|..|A-4 2C.F ....|--- .... ....|--- .... ....
....|..|R-- .... ....|C-5 2F.7 ....|F#2 2F.7 ....
....|..|--- .... ....|--- .... ....|--- .... ....

[Pattern21]
....|..|C-4 9F.F ....|B-4 2F.F ....|F#2 2F.F ....
 B-4|..|B-4 2C.F ....|--- .... ....|--- .... ....
....|..|R-- .... ....|--- .... ....|--- .... ....
....|..|A-4 2F.7 ....|B-4 2F.A ....|F#2 2F.A ....
....|..|C-4 9F.F ....|--- .... ....|F#2 2F.F ....
....|..|R-- .... ....|--- .... ....|--- .... ....
....|..|B-4 2F.7 ....|B-4 2F.7 ....|F#2 2F.7 ....
....|..|R-- .... ....|--- .... ....|F#2 2F.A ....
....|..|C-4 9F.F ....|--- .... ....|F#2 2F.F ....
....|..|--- .... ....|--- .... ....|--- .... ....
....|..|--- .... ....|--- .... ....|F#2 2F.7 ....
....|..|R-- .... ....|--- .... ....|F#2 2F.A ....
....|..|C-4 9F.F ....|--- .... ....|F#2 2F.F ....
....|..|--- .... ....|--- .... ....|--- .... ....
....|..|--- .... ....|R-- .... ....|F#2 2F.7 ....
....|..|--- .... ....|--- .... ....|F#2 2F.A ....
....|..|C-4 9F.F ....|C-5 2F.F ....|F#2 2F.F ....
....|..|--- .... ....|R-- .... ....|--- .... ....
....|..|--- .... ....|--- .... ....|F#2 2F.7 ....
....|..|R-- .... ....|C-5 2F.A ....|F#2 2F.A ....
....|..|C-4 9F.F ....|C-5 2F.F ....|F#2 2F.F ....
....|..|--- .... ....|--- .... ....|--- .... ....
....|..|--- .... ....|C-5 2F.7 ....|F#2 2F.7 ....
....|..|--- .... ....|C-5 2F.A ....|F#2 2F.A ....
....|..|C-4 9F.F ....|B-4 2F.F ....|F#2 2F.F ....
....|..|--- .... ....|R-- .... ....|--- .... ....
....|..|--- .... ....|C-5 2F.7 ....|F#2 2F.7 ....
....|..|--- .... ....|B-4 2F.A ....|F#2 2F.A ....
....|..|C-4 9F.F ....|R-- .... ....|F#2 2F.F ....
....|..|--- .... ....|C-5 2F.F ....|--- .... ....
....|..|--- .... ....|B-4 2F.7 ....|F#2 2F.7 ....
....|..|--- .... ....|--- .... ....|F#2 2F.A ....
....|..|C-4 9F.F ....|C-5 2F.A ....|F#2 2F.F ....
....|..|--- .... ....|R-- .... ....|--- .... ....
....|..|--- .... ....|--- .... ....|F#2 2F.7 ....
....|..|--- .... ....|C-5 2F.7 ....|F#2 2F.A ....
....|..|C-4 9F.F ....|B-4 2F.F ....|F#2 2F.F ....
....|..|--- .... ....|--- .... ....|--- .... ....
....|..|--- .... ....|--- .... ....|F#2 2F.7 ....
....|..|--- .... ....|B-4 2F.A ....|F#2 2F.A ....
....|..|C-4 9F.F ....|--- .... ....|F#2 2F.F ....
....|..|--- .... ....|--- .... ....|--- .... ....
....|..|--- .... ....|B-4 2F.7 ....|F#2 2F.7 ....
....|..|--- .... ....|--- .... ....|F#2 2F.A ....
....|..|C-4 9F.F ....|--- .... ....|F#2 2F.F ....
....|..|--- .... ....|--- .... ....|--- .... ....
....|..|--- .... ....|--- .... ....|F#2 2F.7 ....
....|..|R-- .... ....|--- .... ....|F#2 2F.A ....
....|..|C-4 9F.F ....|--- .... ....|F#2 2F.F ....
....|..|--- .... ....|--- .... ....|--- .... ....
....|..|--- .... ....|--- .... ....|F#2 2F.7 ....
....|..|--- .... ....|--- .... ....|F#2 2F.A ....
....|..|C-4 9F.F ....|--- .... ....|F#2 2F.F ....
....|..|--- .... ....|--- .... ....|--- .... ....
....|..|--- .... ....|--- .... ....|F#2 2F.7 ....
....|..|--- .... ....|--- .... ....|F#2 2F.A ....
....|..|C-4 9F.F ....|--- .... ....|F#2 2F.F ....
....|..|--- .... ....|R-- .... ....|--- .... ....
....|..|--- .... ....|--- .... ....|F#2 2F.7 ....
....|..|R-- .... ....|--- .... ....|F#2 2F.A ....
....|..|C-4 9F.F ....|R-- .... ....|F#2 2F.F ....
....|..|--- .... ....|--- .... ....|--- .... ....
....|..|--- .... ....|--- .... ....|F#2 2F.7 ....
....|..|--- .... ....|R-- .... ....|F#2 2F.A ....

[Pattern22]
....|..|C-4 9F.F ....|--- .... ....|F#2 2F.F ....
....|..|--- .... ....|--- .... ....|--- .... ....
....|..|--- .... ....|--- .... ....|F#2 2F.7 ....
....|..|R-- .... ....|--- .... ....|F#2 2F.A ....
....|..|C-4 9F.F ....|--- .... ....|F#2 2F.F ....
....|..|--- .... ....|--- .... ....|--- .... ....
....|..|--- .... ....|--- .... ....|F#2 2F.7 ....
....|..|--- .... ....|--- .... ....|F#2 2F.A ....
....|..|C-4 9F.F ....|--- .... ....|F#2 2F.F ....
....|..|--- .... ....|--- .... ....|--- .... ....
....|..|--- .... ....|--- .... ....|F#2 2F.7 ....
....|..|--- .... ....|--- .... ....|F#2 2F.A ....
....|..|C-4 9F.F ....|--- .... ....|F#2 2F.F ....
....|..|--- .... ....|--- .... ....|--- .... ....
....|..|--- .... ....|--- .... ....|F#2 2F.7 ....
....|..|R-- .... ....|--- .... ....|F#2 2F.A ....
....|..|C-4 9F.F ....|--- .... ....|F#2 2F.F ....
....|..|--- .... ....|--- .... ....|--- .... ....
....|..|--- .... ....|--- .... ....|F#2 2F.7 ....
....|..|--- .... ....|--- .... ....|F#2 2F.A ....
....|..|C-4 9F.F ....|--- .... ....|F#2 2F.F ....
....|..|--- .... ....|--- .... ....|--- .... ....
....|..|--- .... ....|--- .... ....|F#2 2F.7 ....
....|..|--- .... ....|--- .... ....|F#2 2F.A ....
....|..|C-4 9F.F ....|--- .... ....|F#2 2F.F ....
....|..|--- .... ....|--- .... ....|--- .... ....
....|..|--- .... ....|--- .... ....|F#2 2F.7 ....
....|..|R-- .... ....|--- .... ....|F#2 2F.A ....
....|..|C-4 9F.F ....|--- .... ....|--- .... ....
....|..|--- .... ....|--- .... ....|--- .... ....
....|..|R-- .... ....|--- .... ....|F#2 2F.7 ....
....|..|--- .... ....|--- .... ....|--- .... ....
....|..|C-3 9F.F ....|--- .... ....|F#2 2F.F ....
 C-3|..|C-5 2C.F ....|--- .... ....|--- .... ....
....|..|R-- .... ....|--- .... ....|--- .... ....
....|..|C-5 2F.A ....|--- .... ....|F#2 2F.A ....
....|..|C-4 AF.F ....|--- .... ....|F#2 2F.F ....
 C-3|..|C-5 2C.F ....|--- .... ....|--- .... ....
....|..|C-5 2F.7 ....|--- .... ....|F#2 2F.7 ....
....|..|C-5 2F.A ....|--- .... ....|F#2 2F.A ....
....|..|C-3 9F.F ....|F-5 2F.F ....|F#2 2F.F ....
....|..|--- .... ....|--- .... ....|--- .... ....
....|..|C-5 2F.7 ....|--- .... ....|F#2 2F.7 ....
....|..|--- .... ....|F-5 2F.A ....|F#2 2F.A ....
....|..|C-4 AF.F ....|F-5 2F.F ....|F#2 2F.F ....
....|..|--- .... ....|--- .... ....|--- .... ....
....|..|--- .... ....|F-5 2F.7 ....|F#2 2F.7 ....
....|..|R-- .... ....|F-5 2F.A ....|F#2 2F.A ....
....|..|C-3 9F.F ....|F-5 2F.F ....|F#2 2F.F ....
....|..|--- .... ....|R-- .... ....|--- .... ....
....|..|--- .... ....|F-5 2F.7 ....|F#2 2F.7 ....
....|..|R-- .... ....|F-5 2F.A ....|F#2 2F.A ....
....|..|C-4 AF.F ....|E-5 2F.F ....|F#2 2F.F ....
....|..|--- .... ....|--- .... ....|--- .... ....
....|..|--- .... ....|F-5 2F.7 ....|F#2 2F.7 ....
....|..|R-- .... ....|E-5 2F.A ....|F#2 2F.A ....
....|..|C-3 9F.F ....|E-5 2F.F ....|F#2 2F.F ....
....|..|--- .... ....|R-- .... ....|--- .... ....
....|..|--- .... ....|E-5 2F.7 ....|F#2 2F.7 ....
....|..|R-- .... ....|E-5 2F.A ....|F#2 2F.A ....
....|..|C-4 AF.F ....|E-5 2F.F ....|F#2 2F.F ....
....|..|--- .... ....|--- .... ....|--- .... ....
....|..|--- .... ....|E-5 2F.7 ....|F#2 2F.7 ....
....|..|R-- .... ....|E-5 2F.A ....|F#2 2F.A ....

[Pattern23]
....|..|C-3 9F.F ....|--- .... ....|F#2 2F.F ....
....|..|--- .... ....|R-- .... ....|--- .... ....
....|..|--- .... ....|E-5 2F.7 ....|F#2 2F.7 ....
....|..|R-- .... ....|--- .... ....|F#2 2F.A ....
....|..|C-4 AF.F ....|D-5 2F.F ....|F#2 2F.F ....
....|..|--- .... ....|--- .... ....|--- .... ....
....|..|--- .... ....|--- .... ....|F#2 2F.7 ....
....|..|R-- .... ....|D-5 2F.A ....|F#2 2F.A ....
....|..|C-3 9F.F ....|--- .... ....|F#2 2F.F ....
....|..|--- .... ....|--- .... ....|--- .... ....
....|..|--- .... ....|D-5 2F.7 ....|F#2 2F.7 ....
....|..|R-- .... ....|--- .... ....|F#2 2F.A ....
....|..|C-4 AF.F ....|--- .... ....|F#2 2F.F ....
....|..|--- .... ....|--- .... ....|--- .... ....
....|..|--- .... ....|--- .... ....|F#2 2F.7 ....
....|..|--- .... ....|--- .... ....|F#2 2F.A ....
....|..|C-3 9F.F ....|--- .... ....|F#2 2F.F ....
....|..|--- .... ....|R-- .... ....|--- .... ....
....|..|--- .... ....|--- .... ....|F#2 2F.7 ....
....|..|R-- .... ....|--- .... ....|F#2 2F.A ....
....|..|C-4 AF.F ....|R-- .... ....|F#2 2F.F ....
....|..|--- .... ....|--- .... ....|--- .... ....
....|..|--- .... ....|--- .... ....|F#2 2F.7 ....
....|..|R-- .... ....|R-- .... ....|F#2 2F.A ....
....|..|C-3 9F.F ....|--- .... ....|F#2 2F.F ....
....|..|--- .... ....|--- .... ....|--- .... ....
....|..|--- .... ....|--- .... ....|F#2 2F.7 ....
....|..|R-- .... ....|--- .... ....|F#2 2F.A ....
....|..|C-4 AF.F ....|--- .... ....|F#2 2F.F ....
....|..|--- .... ....|--- .... ....|--- .... ....
....|..|--- .... ....|--- .... ....|F#2 2F.7 ....
....|..|R-- .... ....|--- .... ....|F#2 2F.A ....
....|..|C-3 9F.F ....|--- .... ....|F#2 2F.F ....
....|..|--- .... ....|--- .... ....|--- .... ....
....|..|--- .... ....|--- .... ....|F#2 2F.7 ....
....|..|R-- .... ....|--- .... ....|F#2 2F.A ....
....|..|C-4 AF.F ....|--- .... ....|F#2 2F.F ....
....|..|--- .... ....|--- .... ....|--- .... ....
....|..|--- .... ....|--- .... ....|F#2 2F.7 ....
....|..|--- .... ....|--- .... ....|F#2 2F.A ....
....|..|C-3 9F.F ....|F-5 2F.F ....|F#2 2F.F ....
....|..|--- .... ....|--- .... ....|--- .... ....
....|..|--- .... ....|--- .... ....|F#2 2F.7 ....
....|..|R-- .... ....|F-5 2F.A ....|F#2 2F.A ....
....|..|C-4 AF.F ....|F-5 2F.F ....|F#2 2F.F ....
....|..|--- .... ....|--- .... ....|--- .... ....
....|..|--- .... ....|F-5 2F.7 ....|F#2 2F.7 ....
....|..|--- .... ....|F-5 2F.A ....|F#2 2F.A ....
....|..|C-3 9F.F ....|F-5 2F.F ....|F#2 2F.F ....
....|..|--- .... ....|R-- .... ....|--- .... ....
....|..|--- .... ....|F-5 2F.7 ....|F#2 2F.7 ....
....|..|R-- .... ....|F-5 2F.A ....|F#2 2F.A ....
....|..|C-4 AF.F ....|E-5 2F.F ....|F#2 2F.F ....
....|..|--- .... ....|R-- .... ....|--- .... ....
....|..|--- .... ....|F-5 2F.7 ....|F#2 2F.7 ....
....|..|R-- .... ....|E-5 2F.A ....|F#2 2F.A ....
....|..|C-3 9F.F ....|E-5 2F.F ....|F#2 2F.F ....
....|..|--- .... ....|--- .... ....|--- .... ....
....|..|--- .... ....|E-5 2F.7 ....|F#2 2F.7 ....
....|..|R-- .... ....|E-5 2F.A ....|F#2 2F.A ....
....|..|C-4 AF.F ....|E-5 2F.F ....|F#2 2F.F ....
....|..|--- .... ....|R-- .... ....|--- .... ....
....|..|--- .... ....|E-5 2F.7 ....|F#2 2F.7 ....
....|..|--- .... ....|E-5 2F.A ....|F#2 2F.A ....

[Pattern24]
....|..|C-3 9F.F ....|R-- .... ....|F#2 2F.F ....
....|..|--- .... ....|--- .... ....|--- .... ....
....|..|--- .... ....|E-5 2F.7 ....|F#2 2F.7 ....
....|..|R-- .... ....|--- .... ....|F#2 2F.A ....
....|..|C-4 AF.F ....|D-5 2F.F ....|F#2 2F.F ....
....|..|--- .... ....|R-- .... ....|--- .... ....
....|..|--- .... ....|--- .... ....|F#2 2F.7 ....
....|..|--- .... ....|D-5 2F.A ....|F#2 2F.A ....
....|..|C-3 9F.F ....|R-- .... ....|F#2 2F.F ....
....|..|--- .... ....|--- .... ....|--- .... ....
....|..|--- .... ....|D-5 2F.7 ....|F#2 2F.7 ....
....|..|R-- .... ....|--- .... ....|F#2 2F.A ....
....|..|C-4 AF.F ....|--- .... ....|F#2 2F.F ....
....|..|--- .... ....|--- .... ....|--- .... ....
....|..|--- .... ....|--- .... ....|F#2 2F.7 ....
....|..|R-- .... ....|--- .... ....|F#2 2F.A ....
....|..|C-3 9F.F ....|--- .... ....|F#2 2F.F ....
....|..|--- .... ....|--- .... ....|--- .... ....
....|..|--- .... ....|--- .... ....|F#2 2F.7 ....
....|..|R-- .... ....|--- .... ....|F#2 2F.A ....
....|..|C-4 AF.F ....|R-- .... ....|A#2 2F.F ....
....|..|--- .... ....|--- .... ....|--- .... ....
....|..|--- .... ....|--- .... ....|F#2 2F.7 ....
....|..|--- .... ....|R-- .... ....|A#2 2F.A ....
....|..|C-3 9F.F ....|C-5 2F.F ....|A#2 2F.F ....
....|..|--- .... ....|--- .... ....|--- .... ....
....|..|--- .... ....|R-- .... ....|A#2 2F.7 ....
....|..|R-- .... ....|C-5 2F.A ....|A#2 2F.A ....
....|..|C-4 AF.F ....|--- .... ....|--- .... ....
....|..|--- .... ....|--- .... ....|--- .... ....
 F-4|..|F-4 2C.F ....|C-5 2F.7 ....|A#2 2F.7 ....
....|..|R-- .... ....|--- .... ....|--- .... ....
....|..|C-4 9F.F ....|R-- .... ....|F#2 2F.F ....
 B-4|..|B-4 2C.F ....|B-4 2F.F ....|--- .... ....
....|..|F-4 2F.A ....|--- .... ....|--- .... ....
....|..|B-4 2F.A ....|R-- .... ....|F#2 2F.A ....
....|..|C-4 9F.F ....|B-4 2F.A ....|F#2 2F.F ....
....|..|F-4 2F.7 ....|--- .... ....|--- .... ....
....|..|B-4 2F.7 ....|R-- .... ....|F#2 2F.7 ....
....|..|--- .... ....|B-4 2F.7 ....|F#2 2F.A ....
....|..|C-4 9F.F ....|--- .... ....|F#2 2F.F ....
....|..|--- .... ....|--- .... ....|--- .... ....
....|..|--- .... ....|--- .... ....|F#2 2F.7 ....
....|..|R-- .... ....|--- .... ....|F#2 2F.A ....
....|..|C-4 9F.F ....|--- .... ....|F#2 2F.F ....
....|..|--- .... ....|R-- .... ....|--- .... ....
....|..|--- .... ....|--- .... ....|F#2 2F.7 ....
....|..|--- .... ....|--- .... ....|F#2 2F.A ....
....|..|C-4 9F.F ....|C-5 2F.F ....|F#2 2F.F ....
....|..|--- .... ....|--- .... ....|--- .... ....
....|..|--- .... ....|--- .... ....|F#2 2F.7 ....
....|..|--- .... ....|C-5 2F.A ....|F#2 2F.A ....
....|..|C-4 9F.F ....|R-- .... ....|F#2 2F.F ....
....|..|--- .... ....|C-5 2F.F ....|--- .... ....
....|..|--- .... ....|C-5 2F.7 ....|F#2 2F.7 ....
....|..|--- .... ....|R-- .... ....|F#2 2F.A ....
....|..|C-4 9F.F ....|C-5 2F.A ....|F#2 2F.F ....
....|..|--- .... ....|B-4 2F.F ....|--- .... ....
....|..|--- .... ....|R-- .... ....|F#2 2F.7 ....
....|..|--- .... ....|C-5 2F.7 ....|F#2 2F.A ....
....|..|C-4 9F.F ....|B-4 2F.A ....|F#2 2F.F ....
....|..|--- .... ....|C-5 2F.F ....|--- .... ....
....|..|--- .... ....|R-- .... ....|F#2 2F.7 ....
....|..|--- .... ....|B-4 2F.7 ....|F#2 2F.A ....

[Pattern25]
....|..|C-4 9F.F ....|C-5 2F.A ....|F#2 2F.F ....
....|..|--- .... ....|R-- .... ....|--- .... ....
....|..|--- .... ....|R-- .... ....|F#2 2F.7 ....
....|..|R-- .... ....|C-5 2F.7 ....|F#2 2F.A ....
....|..|C-4 9F.F ....|--- .... ....|F#2 2F.F ....
....|..|--- .... ....|B-4 2F.F ....|--- .... ....
....|..|--- .... ....|--- .... ....|F#2 2F.7 ....
....|..|--- .... ....|--- .... ....|F#2 2F.A ....
....|..|C-4 9F.F ....|B-4 2F.A ....|F#2 2F.F ....
....|..|--- .... ....|--- .... ....|--- .... ....
....|..|--- .... ....|--- .... ....|F#2 2F.7 ....
....|..|--- .... ....|B-4 2F.7 ....|F#2 2F.A ....
....|..|C-4 9F.F ....|--- .... ....|F#2 2F.F ....
....|..|--- .... ....|--- .... ....|--- .... ....
....|..|--- .... ....|--- .... ....|F#2 2F.7 ....
....|..|--- .... ....|--- .... ....|F#2 2F.A ....
....|..|C-4 9F.F ....|--- .... ....|F#2 2F.F ....
....|..|--- .... ....|--- .... ....|--- .... ....
....|..|--- .... ....|--- .... ....|F#2 2F.7 ....
....|..|--- .... ....|--- .... ....|F#2 2F.A ....
....|..|C-4 9F.F ....|--- .... ....|F#2 2F.F ....
....|..|--- .... ....|--- .... ....|--- .... ....
....|..|--- .... ....|--- .... ....|F#2 2F.7 ....
....|..|--- .... ....|R-- .... ....|F#2 2F.A ....
....|..|C-4 9F.F ....|--- .... ....|F#2 2F.F ....
....|..|--- .... ....|--- .... ....|--- .... ....
....|..|--- .... ....|R-- .... ....|F#2 2F.7 ....
....|..|R-- .... ....|--- .... ....|F#2 2F.A ....
....|..|C-4 9F.F ....|--- .... ....|F#2 2F.F ....
....|..|--- .... ....|R-- .... ....|--- .... ....
....|..|R-- .... ....|--- .... ....|F#2 2F.7 ....
....|..|--- .... ....|--- .... ....|F#2 2F.A ....
....|..|C-4 CF.F ....|--- .... ....|F#2 2F.F ....
 A-3|..|A-4 2C.F ....|--- .... ....|--- .... ....
....|..|R-- .... ....|--- .... ....|F#2 2F.7 ....
....|..|A-4 2F.A ....|--- .... ....|F#2 2F.A ....
....|..|C-4 CF.F ....|--- .... ....|F#2 2F.F ....
....|..|R-- .... ....|--- .... ....|--- .... ....
....|..|A-4 2F.7 ....|--- .... ....|F#2 2F.7 ....
....|..|--- .... ....|--- .... ....|F#2 2F.A ....
....|..|C-4 CF.F ....|--- .... ....|F#2 2F.F ....
....|..|--- .... ....|--- .... ....|--- .... ....
....|..|--- .... ....|--- .... ....|F#2 2F.7 ....
....|..|R-- .... ....|--- .... ....|F#2 2F.A ....
....|..|C-4 CF.F ....|--- .... ....|F#2 2F.F ....
....|..|--- .... ....|--- .... ....|--- .... ....
....|..|--- .... ....|--- .... ....|F#2 2F.7 ....
....|..|R-- .... ....|--- .... ....|F#2 2F.A ....
....|..|C-4 CF.F ....|D-5 2F.F ....|A#2 2F.F ....
....|..|--- .... ....|--- .... ....|--- .... ....
....|..|--- .... ....|--- .... ....|F#2 2F.7 ....
....|..|--- .... ....|D-5 2F.A ....|A#2 2F.A ....
....|..|C-4 CF.F ....|E-5 2F.F ....|A#2 2F.F ....
....|..|--- .... ....|--- .... ....|--- .... ....
....|..|--- .... ....|D-5 2F.7 ....|A#2 2F.7 ....
....|..|--- .... ....|E-5 2F.A ....|A#2 2F.A ....
....|..|C-4 CF.F ....|D-5 2F.F ....|A#2 2F.F ....
....|..|--- .... ....|--- .... ....|--- .... ....
....|..|--- .... ....|E-5 2F.7 ....|A#2 2F.7 ....
....|..|--- .... ....|D-5 2F.A ....|A#2 2F.A ....
....|..|C-4 CF.F ....|E-5 2F.F ....|A#2 2F.F ....
....|..|--- .... ....|R-- .... ....|--- .... ....
....|..|--- .... ....|D-5 2F.7 ....|A#2 2F.7 ....
....|..|R-- .... ....|E-5 2F.A ....|A#2 2F.A ....

[Pattern26]
....|..|C-4 CF.F ....|--- .... ....|A#2 2F.F ....
....|..|--- .... ....|R-- .... ....|--- .... ....
....|..|--- .... ....|E-5 2F.7 ....|A#2 2F.7 ....
....|..|R-- .... ....|--- .... ....|A#2 2F.A ....
....|..|C-4 CF.F ....|D-5 2F.F ....|A#2 2F.F ....
....|..|--- .... ....|R-- .... ....|--- .... ....
....|..|--- .... ....|--- .... ....|A#2 2F.7 ....
....|..|--- .... ....|D-5 2F.A ....|A#2 2F.A ....
....|..|C-4 CF.F ....|R-- .... ....|A#2 2F.F ....
....|..|--- .... ....|--- .... ....|--- .... ....
....|..|--- .... ....|D-5 2F.7 ....|A#2 2F.7 ....
....|..|--- .... ....|--- .... ....|A#2 2F.A ....
....|..|C-4 CF.F ....|--- .... ....|B-1 2F.F ....
....|..|--- .... ....|--- .... ....|--- .... ....
....|..|--- .... ....|--- .... ....|A#2 2F.7 ....
....|..|R-- .... ....|--- .... ....|B-1 2F.A ....
....|..|C-4 CF.F ....|--- .... ....|B-1 2F.F ....
....|..|--- .... ....|--- .... ....|--- .... ....
....|..|--- .... ....|--- .... ....|B-1 2F.7 ....
....|..|--- .... ....|--- .... ....|B-1 2F.A ....
....|..|C-4 CF.F ....|--- .... ....|B-2 2F.F ....
....|..|--- .... ....|--- .... ....|--- .... ....
....|..|--- .... ....|R-- .... ....|B-1 2F.7 ....
....|..|R-- .... ....|--- .... ....|B-2 2F.A ....
....|..|C-4 CF.F ....|--- .... ....|--- .... ....
....|..|--- .... ....|R-- .... ....|--- .... ....
....|..|R-- .... ....|--- .... ....|B-2 2F.7 ....
....|..|--- .... ....|--- .... ....|--- .... ....
....|..|C-4 CF.F ....|R-- .... ....|A-2 2F.F ....
....|..|--- .... ....|--- .... ....|--- .... ....
....|..|R-- .... ....|--- .... ....|--- .... ....
....|..|--- .... ....|--- .... ....|C-6 2F.F ....
....|..|C-5 VF.F ....|--- .... ....|A-3 2F.F ....
 B-4|..|B-4 2C.F ....|--- .... ....|C-6 2F.F ....
....|..|R-- .... ....|--- .... ....|A-2 2F.7 ....
....|..|B-4 2F.A ....|--- .... ....|A-3 2F.A ....
....|..|R-- .... ....|--- .... ....|C-6 2F.F ....
....|..|--- .... ....|--- .... ....|C-6 2F.F ....
....|..|B-4 2F.7 ....|--- .... ....|A-3 2F.7 ....
....|..|--- .... ....|--- .... ....|C-6 2F.F ....
....|..|--- .... ....|B-4 2F.F ....|F#2 2F.F ....
....|..|R-- .... ....|--- .... ....|C-6 2F.F ....
....|..|--- .... ....|--- .... ....|C-6 2F.7 ....
....|..|--- .... ....|B-4 2F.A ....|C-6 2F.F ....
....|..|C-5 VF.F ....|A-4 2F.F ....|F#2 2F.F ....
....|..|R-- .... ....|--- .... ....|C-6 2F.F ....
....|..|--- .... ....|B-4 2F.7 ....|F#2 2F.7 ....
....|..|--- .... ....|A-4 2F.A ....|C-6 2F.F ....
....|..|C-5 VF.F ....|G-4 2F.F ....|F#2 2F.F ....
....|..|--- .... ....|--- .... ....|C-6 2F.7 ....
....|..|--- .... ....|A-4 2F.7 ....|C-6 2F.F ....
....|..|--- .... ....|G-4 2F.A ....|C-6 2F.F ....
....|..|--- .... ....|--- .... ....|F#2 2F.F ....
....|..|--- .... ....|--- .... ....|C-6 2F.F ....
....|..|--- .... ....|G-4 2F.7 ....|F#2 2F.7 ....
....|..|--- .... ....|--- .... ....|F#2 2F.A ....
....|..|--- .... ....|G-5 2F.F ....|C-6 2F.F ....
....|..|R-- .... ....|R-- .... ....|C-6 2F.F ....
....|..|--- .... ....|--- .... ....|F#2 2F.7 ....
....|..|--- .... ....|G-5 2F.A ....|C-6 2F.F ....
....|..|C-5 VF.F ....|R-- .... ....|F#2 2F.F ....
....|..|--- .... ....|--- .... ....|C-6 2F.F ....
....|..|--- .... ....|G-5 2F.7 ....|C-6 2F.7 ....
....|..|R-- .... ....|--- .... ....|C-6 2F.F ....

[Pattern27]
....|..|C-4 9F.F ....|E-5 2F.F ....|F#2 2F.F ....
 C-3|..|C-5 2C.F ....|R-- .... ....|C-6 2F.F ....
....|..|R-- .... ....|--- .... ....|F#2 2F.7 ....
....|..|C-5 2F.A ....|E-5 2F.A ....|C-6 2F.7 ....
....|..|--- .... ....|R-- .... ....|C-6 2F.F ....
....|..|R-- .... ....|--- .... ....|C-6 2F.F ....
....|..|C-5 2F.7 ....|E-5 2F.7 ....|F#2 2F.7 ....
....|..|--- .... ....|--- .... ....|C-6 2F.F ....
....|..|R-- .... ....|--- .... ....|F#2 2F.F ....
....|..|--- .... ....|--- .... ....|C-6 2F.F ....
....|..|--- .... ....|--- .... ....|C-6 2F.7 ....
....|..|--- .... ....|--- .... ....|C-6 2F.F ....
....|..|C-4 9F.F ....|--- .... ....|F#2 2F.F ....
....|..|--- .... ....|--- .... ....|C-6 2F.F ....
....|..|--- .... ....|--- .... ....|F#2 2F.7 ....
....|..|R-- .... ....|--- .... ....|C-6 2F.F ....
....|..|C-4 CF.F ....|--- .... ....|F#2 2F.F ....
 C-3|..|C-5 2C.F ....|--- .... ....|C-6 2F.7 ....
....|..|R-- .... ....|R-- .... ....|C-6 2F.F ....
....|..|C-5 2F.A ....|--- .... ....|C-6 2F.F ....
....|..|--- .... ....|--- .... ....|F#2 2F.F ....
....|..|R-- .... ....|R-- .... ....|C-6 2F.F ....
....|..|C-5 2F.7 ....|--- .... ....|F#2 2F.7 ....
....|..|--- .... ....|--- .... ....|F#2 2F.A ....
....|..|R-- .... ....|E-5 2F.F ....|C-6 2F.F ....
....|..|--- .... ....|--- .... ....|C-6 2F.F ....
....|..|--- .... ....|--- .... ....|F#2 2F.7 ....
....|..|--- .... ....|E-5 2F.A ....|C-6 2F.F ....
....|..|C-4 CF.F ....|--- .... ....|F#2 2F.F ....
....|..|--- .... ....|--- .... ....|C-6 2F.F ....
....|..|R-- .... ....|E-5 2F.7 ....|C-6 2F.7 ....
....|..|R-- .... ....|R-- .... ....|C-6 2F.F ....
....|..|C-4 9F.F ....|D-5 2F.F ....|F#2 2F.F ....
 B-4|..|B-4 2C.F ....|--- .... ....|C-6 2F.F ....
....|..|R-- .... ....|R-- .... ....|F#2 2F.7 ....
....|..|B-4 2F.A ....|D-5 2F.A ....|C-6 2F.7 ....
....|..|--- .... ....|--- .... ....|C-6 2F.F ....
....|..|R-- .... ....|R-- .... ....|C-6 2F.F ....
....|..|B-4 2F.7 ....|D-5 2F.7 ....|F#2 2F.7 ....
....|..|R-- .... ....|--- .... ....|C-6 2F.F ....
....|..|C-4 CF.F ....|--- .... ....|F#2 2F.F ....
....|..|--- .... ....|--- .... ....|C-6 2F.F ....
....|..|--- .... ....|--- .... ....|C-6 2F.7 ....
....|..|--- .... ....|--- .... ....|C-6 2F.F ....
....|..|--- .... ....|--- .... ....|F#2 2F.F ....
....|..|--- .... ....|R-- .... ....|C-6 2F.F ....
....|..|--- .... ....|--- .... ....|F#2 2F.7 ....
 B-4|..|B-4 2C.F ....|D-5 2F.F ....|C-6 2F.F ....
....|..|C-4 AF.F ....|R-- .... ....|F#2 2F.F ....
 B-4|..|B-4 2C.F ....|--- .... ....|C-6 2F.7 ....
....|..|B-4 2F.A ....|D-5 2F.A ....|C-6 2F.F ....
....|..|B-4 2F.A ....|R-- .... ....|C-6 2F.F ....
....|..|C-4 AF.F ....|--- .... ....|F#2 2F.F ....
....|..|B-4 2F.7 ....|D-5 2F.7 ....|C-6 2F.F ....
....|..|B-4 2F.7 ....|--- .... ....|F#2 2F.7 ....
....|..|--- .... ....|--- .... ....|F#2 2F.A ....
....|..|--- .... ....|--- .... ....|C-6 2F.F ....
....|..|R-- .... ....|--- .... ....|C-6 2F.F ....
....|..|--- .... ....|--- .... ....|F#2 2F.7 ....
....|..|--- .... ....|--- .... ....|C-6 2F.F ....
....|..|C-4 AF.F ....|--- .... ....|F#2 2F.F ....
....|..|--- .... ....|R-- .... ....|C-6 2F.F ....
 F#3|..|F#4 2C.F ....|--- .... ....|C-6 2F.7 ....
....|..|R-- .... ....|B-4 2F.F ....|C-6 2F.F ....

[Pattern28]
....|..|C-4 CF.F ....|R-- .... ....|F#2 2F.F ....
 A-3|..|A-4 2C.F ....|--- .... ....|C-6 2F.F ....
....|..|F#4 2F.A ....|B-4 2F.A ....|F#2 2F.7 ....
....|..|A-4 2F.A ....|R-- .... ....|C-6 2F.7 ....
....|..|F#4 2F.7 ....|--- .... ....|C-6 2F.F ....
....|..|R-- .... ....|A-4 2F.F ....|C-6 2F.F ....
....|..|A-4 2F.7 ....|R-- .... ....|F#2 2F.7 ....
....|..|--- .... ....|--- .... ....|C-6 2F.F ....
....|..|--- .... ....|A-4 2F.A ....|F#2 2F.F ....
....|..|R-- .... ....|R-- .... ....|C-6 2F.F ....
....|..|--- .... ....|--- .... ....|C-6 2F.7 ....
....|..|--- .... ....|A-4 2F.7 ....|C-6 2F.F ....
....|..|C-4 CF.F ....|--- .... ....|F#2 2F.F ....
....|..|R-- .... ....|--- .... ....|C-6 2F.F ....
....|..|--- .... ....|--- .... ....|F#2 2F.7 ....
....|..|--- .... ....|--- .... ....|C-6 2F.F ....
....|..|C-4 CF.F ....|--- .... ....|F#2 2F.F ....
....|..|--- .... ....|--- .... ....|C-6 2F.7 ....
....|..|--- .... ....|--- .... ....|C-6 2F.F ....
....|..|--- .... ....|--- .... ....|C-6 2F.F ....
....|..|--- .... ....|--- .... ....|F#2 2F.F ....
....|..|--- .... ....|--- .... ....|C-6 2F.F ....
....|..|--- .... ....|--- .... ....|F#2 2F.7 ....
....|..|--- .... ....|--- .... ....|F#2 2F.A ....
....|..|--- .... ....|R-- .... ....|C-6 2F.F ....
....|..|R-- .... ....|--- .... ....|C-6 2F.F ....
....|..|--- .... ....|--- .... ....|F#2 2F.7 ....
....|..|--- .... ....|R-- .... ....|C-6 2F.F ....
....|..|C-4 AF.F ....|--- .... ....|A#2 2F.F ....
....|..|--- .... ....|--- .... ....|C-6 2F.F ....
....|..|--- .... ....|R-- .... ....|C-6 2F.7 ....
....|..|R-- .... ....|--- .... ....|C-6 2F.F ....
....|..|C-5 VF.F ....|--- .... ....|F#2 2F.F ....
 B-4|..|B-4 2C.F ....|--- .... ....|C-6 2F.F ....
....|..|R-- .... ....|--- .... ....|A#2 2F.7 ....
....|..|B-4 2F.A ....|--- .... ....|C-6 2F.7 ....
....|..|--- .... ....|--- .... ....|C-6 2F.F ....
....|..|R-- .... ....|--- .... ....|C-6 2F.F ....
....|..|B-4 2F.7 ....|--- .... ....|F#2 2F.7 ....
....|..|--- .... ....|--- .... ....|C-6 2F.F ....
....|..|--- .... ....|--- .... ....|F#2 2F.F ....
....|..|R-- .... ....|--- .... ....|C-6 2F.F ....
....|..|--- .... ....|--- .... ....|C-6 2F.7 ....
....|..|--- .... ....|--- .... ....|C-6 2F.F ....
....|..|C-5 VF.F ....|G-4 2F.F ....|F#2 2F.F ....
....|..|R-- .... ....|--- .... ....|C-6 2F.F ....
....|..|--- .... ....|--- .... ....|F#2 2F.7 ....
....|..|--- .... ....|G-4 2F.A ....|C-6 2F.F ....
....|..|C-5 VF.F ....|--- .... ....|F#2 2F.F ....
....|..|--- .... ....|R-- .... ....|C-6 2F.7 ....
....|..|--- .... ....|G-4 2F.7 ....|C-6 2F.F ....
....|..|--- .... ....|--- .... ....|C-6 2F.F ....
....|..|--- .... ....|G-4 2F.F ....|F#2 2F.F ....
....|..|--- .... ....|--- .... ....|C-6 2F.F ....
....|..|--- .... ....|--- .... ....|F#2 2F.7 ....
....|..|--- .... ....|G-4 2F.A ....|F#2 2F.A ....
....|..|--- .... ....|--- .... ....|C-6 2F.F ....
....|..|R-- .... ....|R-- .... ....|C-6 2F.F ....
....|..|--- .... ....|G-4 2F.7 ....|F#2 2F.7 ....
....|..|--- .... ....|--- .... ....|C-6 2F.F ....
....|..|C-5 VF.F ....|G-5 2F.F ....|F#2 2F.F ....
....|..|R-- .... ....|--- .... ....|C-6 2F.F ....
....|..|R-- .... ....|--- .... ....|C-6 2F.7 ....
....|..|--- .... ....|G-5 2F.A ....|C-6 2F.F ....

[Pattern29]
....|..|C-4 AF.F ....|E-5 2F.F ....|F#2 2F.F ....
 C-3|..|C-5 2C.F ....|--- .... ....|C-6 2F.F ....
....|..|R-- .... ....|G-5 2F.7 ....|F#2 2F.7 ....
....|..|C-5 2F.A ....|E-5 2F.A ....|C-6 2F.7 ....
....|..|R-- .... ....|--- .... ....|C-6 2F.F ....
....|..|--- .... ....|--- .... ....|C-6 2F.F ....
....|..|C-5 2F.7 ....|E-5 2F.7 ....|F#2 2F.7 ....
....|..|--- .... ....|--- .... ....|C-6 2F.F ....
....|..|--- .... ....|--- .... ....|F#2 2F.F ....
....|..|R-- .... ....|--- .... ....|C-6 2F.F ....
....|..|--- .... ....|--- .... ....|C-6 2F.7 ....
....|..|--- .... ....|--- .... ....|C-6 2F.F ....
....|..|C-4 AF.F ....|--- .... ....|F#2 2F.F ....
....|..|R-- .... ....|--- .... ....|C-6 2F.F ....
....|..|--- .... ....|--- .... ....|F#2 2F.7 ....
....|..|--- .... ....|--- .... ....|C-6 2F.F ....
....|..|C-4 AF.F ....|--- .... ....|F#2 2F.F ....
....|..|--- .... ....|--- .... ....|C-6 2F.7 ....
....|..|--- .... ....|--- .... ....|C-6 2F.F ....
....|..|--- .... ....|--- .... ....|C-6 2F.F ....
....|..|--- .... ....|R-- .... ....|F#2 2F.F ....
....|..|--- .... ....|--- .... ....|C-6 2F.F ....
....|..|--- .... ....|--- .... ....|F#2 2F.7 ....
....|..|--- .... ....|R-- .... ....|F#2 2F.A ....
....|..|--- .... ....|--- .... ....|C-6 2F.F ....
....|..|R-- .... ....|--- .... ....|C-6 2F.F ....
....|..|--- .... ....|R-- .... ....|F#2 2F.7 ....
....|..|--- .... ....|--- .... ....|C-6 2F.F ....
....|..|C-4 AF.F ....|E-5 2F.F ....|F#2 2F.F ....
....|..|--- .... ....|--- .... ....|C-6 2F.F ....
....|..|R-- .... ....|--- .... ....|C-6 2F.7 ....
....|..|--- .... ....|E-5 2F.A ....|C-6 2F.F ....
....|..|C-4 9F.F ....|D-5 2F.F ....|F#2 2F.F ....
 B-4|..|B-4 2C.F ....|--- .... ....|C-6 2F.F ....
....|..|R-- .... ....|E-5 2F.7 ....|F#2 2F.7 ....
....|..|B-4 2F.A ....|D-5 2F.A ....|C-6 2F.7 ....
....|..|R-- .... ....|--- .... ....|C-6 2F.F ....
....|..|--- .... ....|E-5 2F.F ....|C-6 2F.F ....
....|..|B-4 2F.7 ....|D-5 2F.7 ....|F#2 2F.7 ....
....|..|--- .... ....|--- .... ....|C-6 2F.F ....
....|..|--- .... ....|E-5 2F.A ....|F#2 2F.F ....
....|..|R-- .... ....|R-- .... ....|C-6 2F.F ....
....|..|--- .... ....|R-- .... ....|C-6 2F.7 ....
....|..|--- .... ....|E-5 2F.7 ....|C-6 2F.F ....
....|..|C-4 9F.F ....|--- .... ....|F#2 2F.F ....
....|..|R-- .... ....|D-5 2F.F ....|C-6 2F.F ....
....|..|--- .... ....|--- .... ....|F#2 2F.7 ....
....|..|--- .... ....|--- .... ....|C-6 2F.F ....
....|..|C-4 9F.F ....|D-5 2F.A ....|F#2 2F.F ....
....|..|--- .... ....|R-- .... ....|C-6 2F.7 ....
....|..|--- .... ....|--- .... ....|C-6 2F.F ....
....|..|--- .... ....|D-5 2F.7 ....|C-6 2F.F ....
....|..|--- .... ....|B-4 2F.F ....|F#2 2F.F ....
....|..|--- .... ....|--- .... ....|C-6 2F.F ....
....|..|--- .... ....|--- .... ....|F#2 2F.7 ....
....|..|--- .... ....|B-4 2F.A ....|F#2 2F.A ....
....|..|R-- .... ....|--- .... ....|C-6 2F.F ....
....|..|--- .... ....|--- .... ....|C-6 2F.F ....
....|..|--- .... ....|B-4 2F.7 ....|F#2 2F.7 ....
....|..|--- .... ....|--- .... ....|C-6 2F.F ....
....|..|C-4 9F.F ....|--- .... ....|F#2 2F.F ....
....|..|R-- .... ....|R-- .... ....|C-6 2F.F ....
....|..|--- .... ....|--- .... ....|C-6 2F.7 ....
....|..|R-- .... ....|B-4 2F.F ....|C-6 2F.F ....

[Pattern30]
....|..|C-4 CF.F ....|R-- .... ....|F#2 2F.F ....
 A-3|..|A-4 2C.F ....|--- .... ....|C-6 2F.F ....
....|..|R-- .... ....|B-4 2F.A ....|F#2 2F.7 ....
....|..|A-4 2F.A ....|R-- .... ....|C-6 2F.7 ....
....|..|--- .... ....|--- .... ....|C-6 2F.F ....
....|..|R-- .... ....|B-4 2F.7 ....|C-6 2F.F ....
....|..|A-4 2F.7 ....|--- .... ....|F#2 2F.7 ....
....|..|--- .... ....|--- .... ....|C-6 2F.F ....
....|..|--- .... ....|--- .... ....|F#2 2F.F ....
....|..|R-- .... ....|--- .... ....|C-6 2F.F ....
....|..|--- .... ....|--- .... ....|C-6 2F.7 ....
....|..|--- .... ....|--- .... ....|C-6 2F.F ....
....|..|C-4 CF.F ....|--- .... ....|F#2 2F.F ....
....|..|R-- .... ....|--- .... ....|C-6 2F.F ....
....|..|--- .... ....|--- .... ....|F#2 2F.7 ....
....|..|--- .... ....|--- .... ....|C-6 2F.F ....
....|..|C-4 CF.F ....|--- .... ....|F#2 2F.F ....
....|..|--- .... ....|R-- .... ....|C-6 2F.7 ....
....|..|--- .... ....|--- .... ....|C-6 2F.F ....
....|..|--- .... ....|--- .... ....|C-6 2F.F ....
....|..|--- .... ....|R-- .... ....|A#2 2F.F ....
....|..|--- .... ....|--- .... ....|C-6 2F.F ....
....|..|--- .... ....|--- .... ....|F#2 2F.7 ....
....|..|--- .... ....|R-- .... ....|A#2 2F.A ....
....|..|--- .... ....|--- .... ....|C-6 2F.F ....
....|..|R-- .... ....|--- .... ....|C-6 2F.F ....
....|..|--- .... ....|--- .... ....|A#2 2F.7 ....
....|..|--- .... ....|--- .... ....|C-6 2F.F ....
....|..|C-4 9F.F ....|--- .... ....|A#2 2F.F ....
....|..|--- .... ....|--- .... ....|C-6 2F.F ....
....|..|R-- .... ....|--- .... ....|C-6 2F.7 ....
....|..|R-- .... ....|--- .... ....|C-6 2F.F ....
....|..|C-5 VF.F ....|--- .... ....|F#2 2F.F ....
 B-4|..|B-4 2C.F ....|--- .... ....|C-6 2F.F ....
....|..|R-- .... ....|--- .... ....|A#2 2F.7 ....
....|..|B-4 2F.A ....|--- .... ....|C-6 2F.7 ....
....|..|R-- .... ....|--- .... ....|C-6 2F.F ....
....|..|--- .... ....|--- .... ....|C-6 2F.F ....
....|..|B-4 2F.7 ....|--- .... ....|F#2 2F.7 ....
....|..|--- .... ....|--- .... ....|C-6 2F.F ....
....|..|--- .... ....|--- .... ....|F#2 2F.F ....
....|..|R-- .... ....|--- .... ....|C-6 2F.F ....
....|..|--- .... ....|--- .... ....|C-6 2F.7 ....
....|..|--- .... ....|--- .... ....|C-6 2F.F ....
....|..|C-5 VF.F ....|--- .... ....|F#2 2F.F ....
....|..|R-- .... ....|--- .... ....|C-6 2F.F ....
....|..|--- .... ....|--- .... ....|F#2 2F.7 ....
....|..|--- .... ....|--- .... ....|C-6 2F.F ....
....|..|C-5 VF.F ....|G-4 2F.F ....|F#2 2F.F ....
....|..|--- .... ....|--- .... ....|C-6 2F.7 ....
....|..|--- .... ....|R-- .... ....|C-6 2F.F ....
....|..|--- .... ....|G-4 2F.A ....|C-6 2F.F ....
....|..|--- .... ....|G-4 2F.F ....|F#2 2F.F ....
....|..|--- .... ....|R-- .... ....|C-6 2F.F ....
....|..|--- .... ....|G-4 2F.7 ....|F#2 2F.7 ....
....|..|--- .... ....|G-4 2F.A ....|F#2 2F.A ....
....|..|R-- .... ....|R-- .... ....|C-6 2F.F ....
....|..|--- .... ....|--- .... ....|C-6 2F.F ....
....|..|--- .... ....|G-4 2F.7 ....|F#2 2F.7 ....
....|..|--- .... ....|--- .... ....|C-6 2F.F ....
....|..|C-5 VF.F ....|--- .... ....|F#2 2F.F ....
....|..|--- .... ....|R-- .... ....|C-6 2F.F ....
....|..|R-- .... ....|--- .... ....|C-6 2F.7 ....
....|..|R-- .... ....|D-5 2F.F ....|C-6 2F.F ....

[Pattern31]
....|..|C-4 9F.F ....|R-- .... ....|F#2 2F.F ....
 B-4|..|B-4 2C.F ....|--- .... ....|C-6 2F.F ....
....|..|R-- .... ....|D-5 2F.A ....|F#2 2F.7 ....
....|..|B-4 2F.A ....|R-- .... ....|C-6 2F.7 ....
....|..|--- .... ....|--- .... ....|C-6 2F.F ....
....|..|R-- .... ....|D-5 2F.7 ....|C-6 2F.F ....
....|..|B-4 2F.7 ....|B-4 2F.F ....|F#2 2F.7 ....
....|..|--- .... ....|--- .... ....|C-6 2F.F ....
....|..|R-- .... ....|--- .... ....|F#2 2F.F ....
....|..|--- .... ....|B-4 2F.A ....|C-6 2F.F ....
....|..|--- .... ....|--- .... ....|C-6 2F.7 ....
....|..|--- .... ....|--- .... ....|C-6 2F.F ....
....|..|C-4 9F.F ....|B-4 2F.7 ....|F#2 2F.F ....
....|..|R-- .... ....|--- .... ....|C-6 2F.F ....
....|..|--- .... ....|--- .... ....|F#2 2F.7 ....
....|..|--- .... ....|--- .... ....|C-6 2F.F ....
....|..|C-4 9F.F ....|--- .... ....|F#2 2F.F ....
....|..|--- .... ....|--- .... ....|C-6 2F.7 ....
....|..|--- .... ....|--- .... ....|C-6 2F.F ....
....|..|--- .... ....|--- .... ....|C-6 2F.F ....
....|..|--- .... ....|--- .... ....|F#2 2F.F ....
....|..|--- .... ....|--- .... ....|C-6 2F.F ....
....|..|--- .... ....|R-- .... ....|F#2 2F.7 ....
....|..|--- .... ....|--- .... ....|F#2 2F.A ....
....|..|C-4 CF.F ....|--- .... ....|C-6 2F.F ....
....|..|--- .... ....|R-- .... ....|C-6 2F.F ....
....|..|--- .... ....|--- .... ....|F#2 2F.7 ....
....|..|--- .... ....|--- .... ....|C-6 2F.F ....
....|..|--- .... ....|A-4 2F.F ....|F#2 2F.F ....
....|..|--- .... ....|--- .... ....|C-6 2F.F ....
....|..|R-- .... ....|--- .... ....|C-6 2F.7 ....
....|..|R-- .... ....|A-4 2F.A ....|C-6 2F.F ....
....|..|C-4 AF.F ....|G-4 2F.F ....|F#2 2F.F ....
 C-3|..|C-5 2C.F ....|--- .... ....|C-6 2F.F ....
....|..|R-- .... ....|A-4 2F.7 ....|F#2 2F.7 ....
....|..|C-5 2F.A ....|G-4 2F.A ....|C-6 2F.7 ....
....|..|--- .... ....|--- .... ....|C-6 2F.F ....
....|..|R-- .... ....|R-- .... ....|C-6 2F.F ....
....|..|C-5 2F.7 ....|G-4 2F.7 ....|F#2 2F.7 ....
....|..|--- .... ....|--- .... ....|C-6 2F.F ....
....|..|--- .... ....|--- .... ....|F#2 2F.F ....
....|..|R-- .... ....|--- .... ....|C-6 2F.F ....
....|..|--- .... ....|--- .... ....|C-6 2F.7 ....
....|..|--- .... ....|--- .... ....|C-6 2F.F ....
....|..|C-4 AF.F ....|--- .... ....|F#2 2F.F ....
....|..|R-- .... ....|--- .... ....|C-6 2F.F ....
....|..|--- .... ....|R-- .... ....|F#2 2F.7 ....
....|..|--- .... ....|--- .... ....|C-6 2F.F ....
....|..|C-4 AF.F ....|G-4 2F.F ....|F#2 2F.F ....
....|..|--- .... ....|R-- .... ....|C-6 2F.7 ....
....|..|--- .... ....|--- .... ....|C-6 2F.F ....
....|..|--- .... ....|G-4 2F.A ....|C-6 2F.F ....
....|..|--- .... ....|R-- .... ....|F#2 2F.F ....
....|..|--- .... ....|--- .... ....|C-6 2F.F ....
....|..|--- .... ....|G-4 2F.7 ....|F#2 2F.7 ....
....|..|--- .... ....|--- .... ....|F#2 2F.A ....
....|..|R-- .... ....|--- .... ....|C-6 2F.F ....
....|..|--- .... ....|--- .... ....|C-6 2F.F ....
....|..|--- .... ....|--- .... ....|F#2 2F.7 ....
....|..|--- .... ....|--- .... ....|C-6 2F.F ....
....|..|C-4 AF.F ....|--- .... ....|F#2 2F.F ....
....|..|R-- .... ....|--- .... ....|C-6 2F.F ....
 G-4|..|G-4 2C.F ....|R-- .... ....|C-6 2F.7 ....
....|..|R-- .... ....|--- .... ....|C-6 2F.F ....

[Pattern32]
....|..|C-4 9F.F ....|E-4 2F.F ....|F#2 2F.F ....
 B-4|..|B-4 2C.F ....|R-- .... ....|C-6 2F.F ....
....|..|G-4 2F.A ....|--- .... ....|F#2 2F.7 ....
....|..|B-4 2F.A ....|E-4 2F.A ....|C-6 2F.7 ....
....|..|G-4 2F.7 ....|R-- .... ....|C-6 2F.F ....
....|..|R-- .... ....|D-4 2F.F ....|C-6 2F.F ....
....|..|B-4 2F.7 ....|E-4 2F.7 ....|F#2 2F.7 ....
....|..|--- .... ....|R-- .... ....|C-6 2F.F ....
....|..|--- .... ....|D-4 2F.A ....|F#2 2F.F ....
....|..|R-- .... ....|--- .... ....|C-6 2F.F ....
....|..|--- .... ....|R-- .... ....|C-6 2F.7 ....
....|..|--- .... ....|D-4 2F.7 ....|C-6 2F.F ....
....|..|C-4 9F.F ....|--- .... ....|F#2 2F.F ....
....|..|R-- .... ....|--- .... ....|C-6 2F.F ....
....|..|--- .... ....|--- .... ....|F#2 2F.7 ....
....|..|--- .... ....|--- .... ....|C-6 2F.F ....
....|..|C-4 9F.F ....|--- .... ....|F#2 2F.F ....
....|..|--- .... ....|--- .... ....|C-6 2F.7 ....
....|..|--- .... ....|--- .... ....|C-6 2F.F ....
....|..|--- .... ....|--- .... ....|C-6 2F.F ....
....|..|--- .... ....|--- .... ....|F#2 2F.F ....
....|..|--- .... ....|--- .... ....|C-6 2F.F ....
....|..|--- .... ....|--- .... ....|F#2 2F.7 ....
....|..|--- .... ....|--- .... ....|F#2 2F.A ....
....|..|--- .... ....|--- .... ....|C-6 2F.F ....
....|..|R-- .... ....|--- .... ....|C-6 2F.F ....
....|..|--- .... ....|R-- .... ....|F#2 2F.7 ....
....|..|--- .... ....|--- .... ....|C-6 2F.F ....
....|..|--- .... ....|--- .... ....|F#2 2F.F ....
....|..|--- .... ....|R-- .... ....|C-6 2F.F ....
....|..|--- .... ....|--- .... ....|C-6 2F.7 ....
....|..|--- .... ....|--- .... ....|C-6 2F.F ....
....|..|C-4 9F.F ....|R-- .... ....|F#2 2F.F ....
....|..|--- .... ....|--- .... ....|C-6 2F.F ....
....|..|--- .... ....|--- .... ....|F#2 2F.7 ....
....|..|--- .... ....|--- .... ....|C-6 2F.7 ....
....|..|--- .... ....|--- .... ....|C-6 2F.F ....
....|..|--- .... ....|--- .... ....|C-6 2F.F ....
....|..|--- .... ....|--- .... ....|F#2 2F.7 ....
....|..|--- .... ....|--- .... ....|C-6 2F.F ....
....|..|--- .... ....|--- .... ....|F#2 2F.F ....
....|..|R-- .... ....|--- .... ....|C-6 2F.F ....
....|..|--- .... ....|--- .... ....|C-6 2F.7 ....
....|..|--- .... ....|--- .... ....|C-6 2F.F ....
....|..|C-4 9F.F ....|--- .... ....|F#2 2F.F ....
....|..|R-- .... ....|--- .... ....|C-6 2F.F ....
....|..|--- .... ....|--- .... ....|F#2 2F.7 ....
....|..|--- .... ....|--- .... ....|C-6 2F.F ....
....|..|C-4 9F.F ....|G-4 2F.F ....|F#2 2F.F ....
....|..|--- .... ....|--- .... ....|C-6 2F.7 ....
....|..|--- .... ....|--- .... ....|C-6 2F.F ....
....|..|R-- .... ....|G-4 2F.A ....|C-6 2F.F ....
....|..|B-8 JF.F ....|A-4 2F.F ....|F#2 2F.F ....
....|..|--- .... ....|--- .... ....|C-6 2F.F ....
....|..|--- .... ....|G-4 2F.7 ....|F#2 2F.7 ....
....|..|--- .... ....|A-4 2F.A ....|F#2 2F.A ....
....|..|C-5 VF.F ....|--- .... ....|C-6 2F.F ....
....|..|--- .... ....|R-- .... ....|C-6 2F.F ....
....|..|--- .... ....|A-4 2F.7 ....|F#2 2F.7 ....
....|..|--- .... ....|--- .... ....|C-6 2F.F ....
....|..|C-4 CF.F ....|B-4 2F.F ....|A#2 2F.F ....
....|..|--- .... ....|--- .... ....|C-6 2F.F ....
....|..|--- .... ....|--- .... ....|C-6 2F.7 ....
....|..|R-- .... ....|B-4 2F.A ....|C-6 2F.F ....

[Pattern33]
....|..|C-4 AF.F ....|--- .... ....|F#2 2F.F ....
 B-4|..|B-4 2C.F ....|--- .... ....|C-6 2F.F ....
....|..|R-- .... ....|B-4 2F.7 ....|A#2 2F.7 ....
....|..|B-4 2F.A ....|--- .... ....|C-6 2F.7 ....
....|..|--- .... ....|--- .... ....|C-6 2F.F ....
....|..|R-- .... ....|--- .... ....|C-6 2F.F ....
....|..|B-4 2F.7 ....|--- .... ....|F#2 2F.7 ....
....|..|--- .... ....|--- .... ....|C-6 2F.F ....
....|..|--- .... ....|--- .... ....|F#2 2F.F ....
....|..|R-- .... ....|--- .... ....|C-6 2F.F ....
....|..|--- .... ....|--- .... ....|C-6 2F.7 ....
....|..|--- .... ....|--- .... ....|C-6 2F.F ....
....|..|C-4 AF.F ....|--- .... ....|F#2 2F.F ....
....|..|R-- .... ....|--- .... ....|C-6 2F.F ....
....|..|--- .... ....|--- .... ....|F#2 2F.7 ....
....|..|--- .... ....|--- .... ....|C-6 2F.F ....
....|..|C-4 AF.F ....|--- .... ....|F#2 2F.F ....
....|..|--- .... ....|--- .... ....|C-6 2F.7 ....
....|..|--- .... ....|--- .... ....|C-6 2F.F ....
....|..|--- .... ....|R-- .... ....|C-6 2F.F ....
....|..|--- .... ....|--- .... ....|F#2 2F.F ....
....|..|--- .... ....|--- .... ....|C-6 2F.F ....
....|..|--- .... ....|R-- .... ....|F#2 2F.7 ....
....|..|--- .... ....|--- .... ....|F#2 2F.A ....
....|..|--- .... ....|--- .... ....|C-6 2F.F ....
....|..|R-- .... ....|R-- .... ....|C-6 2F.F ....
....|..|--- .... ....|--- .... ....|F#2 2F.7 ....
....|..|--- .... ....|--- .... ....|C-6 2F.F ....
....|..|C-4 AF.F ....|E-5 2F.F ....|F#2 2F.F ....
....|..|--- .... ....|--- .... ....|C-6 2F.F ....
 B-4|..|B-4 2C.F ....|--- .... ....|C-6 2F.7 ....
....|..|R-- .... ....|E-5 2F.A ....|C-6 2F.F ....
....|..|C-5 VF.F ....|--- .... ....|F#2 2F.F ....
 B-4|..|B-4 2C.F ....|--- .... ....|C-6 2F.F ....
....|..|B-4 2F.A ....|E-5 2F.7 ....|F#2 2F.7 ....
....|..|B-4 2F.A ....|R-- .... ....|C-6 2F.7 ....
....|..|B-4 2F.7 ....|D-5 2F.F ....|C-6 2F.F ....
....|..|R-- .... ....|--- .... ....|C-6 2F.F ....
....|..|B-4 2F.7 ....|R-- .... ....|F#2 2F.7 ....
....|..|--- .... ....|D-5 2F.A ....|C-6 2F.F ....
....|..|R-- .... ....|--- .... ....|F#2 2F.F ....
....|..|--- .... ....|R-- .... ....|C-6 2F.F ....
....|..|--- .... ....|D-5 2F.7 ....|C-6 2F.7 ....
....|..|--- .... ....|--- .... ....|C-6 2F.F ....
....|..|C-5 VF.F ....|E-5 2F.F ....|F#2 2F.F ....
....|..|R-- .... ....|R-- .... ....|C-6 2F.F ....
....|..|--- .... ....|--- .... ....|F#2 2F.7 ....
....|..|--- .... ....|E-5 2F.A ....|C-6 2F.F ....
....|..|C-5 VF.F ....|D-5 2F.F ....|F#2 2F.F ....
....|..|--- .... ....|--- .... ....|C-6 2F.7 ....
....|..|--- .... ....|E-5 2F.7 ....|C-6 2F.F ....
....|..|--- .... ....|D-5 2F.A ....|C-6 2F.F ....
....|..|--- .... ....|B-4 2F.F ....|F#2 2F.F ....
....|..|--- .... ....|--- .... ....|C-6 2F.F ....
....|..|--- .... ....|D-5 2F.7 ....|F#2 2F.7 ....
....|..|--- .... ....|B-4 2F.A ....|F#2 2F.A ....
....|..|--- .... ....|--- .... ....|C-6 2F.F ....
....|..|R-- .... ....|R-- .... ....|C-6 2F.F ....
....|..|--- .... ....|B-4 2F.7 ....|F#2 2F.7 ....
....|..|--- .... ....|--- .... ....|C-6 2F.F ....
....|..|C-5 VF.F ....|G-4 2F.F ....|F#2 2F.F ....
....|..|R-- .... ....|R-- .... ....|C-6 2F.F ....
....|..|--- .... ....|--- .... ....|C-6 2F.7 ....
....|..|R-- .... ....|G-4 2F.A ....|C-6 2F.F ....

[Pattern34]
....|..|C-4 9F.F ....|R-- .... ....|F#2 2F.F ....
 B-4|..|B-4 2C.F ....|--- .... ....|C-6 2F.F ....
....|..|R-- .... ....|G-4 2F.7 ....|F#2 2F.7 ....
....|..|B-4 2F.A ....|--- .... ....|C-6 2F.7 ....
....|..|--- .... ....|--- .... ....|C-6 2F.F ....
....|..|R-- .... ....|--- .... ....|C-6 2F.F ....
....|..|B-4 2F.7 ....|--- .... ....|F#2 2F.7 ....
....|..|--- .... ....|--- .... ....|C-6 2F.F ....
....|..|R-- .... ....|--- .... ....|F#2 2F.F ....
....|..|--- .... ....|--- .... ....|C-6 2F.F ....
....|..|--- .... ....|--- .... ....|C-6 2F.7 ....
....|..|--- .... ....|--- .... ....|C-6 2F.F ....
....|..|C-4 9F.F ....|--- .... ....|F#2 2F.F ....
....|..|--- .... ....|--- .... ....|C-6 2F.F ....
....|..|R-- .... ....|--- .... ....|F#2 2F.7 ....
....|..|--- .... ....|--- .... ....|C-6 2F.F ....
....|..|C-4 9F.F ....|--- .... ....|F#2 2F.F ....
....|..|--- .... ....|--- .... ....|C-6 2F.7 ....
....|..|--- .... ....|--- .... ....|C-6 2F.F ....
....|..|--- .... ....|--- .... ....|C-6 2F.F ....
....|..|--- .... ....|--- .... ....|F#2 2F.F ....
....|..|--- .... ....|--- .... ....|C-6 2F.F ....
....|..|--- .... ....|R-- .... ....|F#2 2F.7 ....
....|..|--- .... ....|--- .... ....|F#2 2F.A ....
....|..|--- .... ....|--- .... ....|C-6 2F.F ....
....|..|R-- .... ....|R-- .... ....|C-6 2F.F ....
....|..|--- .... ....|--- .... ....|F#2 2F.7 ....
....|..|--- .... ....|--- .... ....|C-6 2F.F ....
....|..|C-4 CF.F ....|R-- .... ....|F#2 2F.F ....
....|..|R-- .... ....|--- .... ....|C-6 2F.F ....
....|..|--- .... ....|--- .... ....|C-6 2F.7 ....
....|..|--- .... ....|--- .... ....|C-6 2F.F ....
....|..|C-4 9F.F ....|--- .... ....|F#2 2F.F ....
....|..|--- .... ....|--- .... ....|C-6 2F.F ....
....|..|--- .... ....|--- .... ....|F#2 2F.7 ....
....|..|R-- .... ....|--- .... ....|C-6 2F.7 ....
....|..|C-4 9F.F ....|--- .... ....|C-6 2F.F ....
....|..|--- .... ....|--- .... ....|C-6 2F.F ....
....|..|--- .... ....|--- .... ....|F#2 2F.7 ....
....|..|R-- .... ....|--- .... ....|C-6 2F.F ....
....|..|C-4 9F.F ....|--- .... ....|A#2 2F.F ....
....|..|--- .... ....|--- .... ....|C-6 2F.F ....
....|..|--- .... ....|--- .... ....|C-6 2F.7 ....
....|..|R-- .... ....|--- .... ....|C-6 2F.F ....
....|..|C-4 9F.F ....|--- .... ....|A#2 2F.F ....
....|..|--- .... ....|--- .... ....|C-6 2F.F ....
....|..|--- .... ....|--- .... ....|A#2 2F.7 ....
....|..|R-- .... ....|--- .... ....|C-6 2F.F ....
....|..|C-4 9F.F ....|--- .... ....|C-6 2F.A ....
....|..|--- .... ....|--- .... ....|C-6 2F.7 ....
....|..|--- .... ....|--- .... ....|C-6 2F.F ....
....|..|--- .... ....|--- .... ....|C-6 2F.F ....
....|..|C-4 9F.F ....|--- .... ....|B-1 2F.F ....
....|..|--- .... ....|--- .... ....|C-6 2F.F ....
....|..|--- .... ....|--- .... ....|C-6 2F.A ....
....|..|R-- .... ....|--- .... ....|B-1 2F.A ....
....|..|C-4 9F.F ....|--- .... ....|C-6 2F.F ....
....|..|--- .... ....|--- .... ....|C-6 2F.F ....
....|..|--- .... ....|--- .... ....|B-1 2F.7 ....
....|..|--- .... ....|--- .... ....|C-6 2F.F ....
....|..|C-4 9F.F ....|--- .... ....|B-1 2F.F ....
....|..|--- .... ....|--- .... ....|C-6 2F.F ....
 B-4|..|B-4 2C.F ....|--- .... ....|C-6 2F.7 ....
....|..|R-- .... ....|--- .... ....|C-6 2F.F ....

[Pattern35]
....|..|C-5 VF.F ....|--- .... ....|A#2 2F.F ....
....|..|B-4 2F.A ....|--- .... ....|C-6 2F.F ....
....|..|R-- .... ....|--- .... ....|B-1 2F.7 ....
....|..|--- .... ....|--- .... ....|C-6 2F.7 ....
....|..|C-5 VF.F ....|--- .... ....|C-6 2F.F ....
....|..|B-4 2F.7 ....|--- .... ....|C-6 2F.F ....
....|..|R-- .... ....|--- .... ....|A#2 2F.7 ....
....|..|--- .... ....|--- .... ....|C-6 2F.F ....
....|..|C-5 VF.F ....|--- .... ....|C-6 2F.A ....
....|..|--- .... ....|--- .... ....|C-6 2F.F ....
....|..|--- .... ....|--- .... ....|C-6 2F.7 ....
....|..|--- .... ....|--- .... ....|C-6 2F.F ....
....|..|C-5 VF.F ....|--- .... ....|C-6 2F.A ....
....|..|--- .... ....|--- .... ....|C-6 2F.F ....
....|..|--- .... ....|--- .... ....|C-6 2F.A ....
....|..|--- .... ....|--- .... ....|C-6 2F.F ....
....|..|C-5 VF.F ....|--- .... ....|G#2 2F.F ....
....|..|--- .... ....|--- .... ....|C-6 2F.7 ....
....|..|--- .... ....|--- .... ....|C-6 2F.F ....
....|..|--- .... ....|--- .... ....|C-6 2F.F ....
....|..|C-5 VF.F ....|--- .... ....|R-- .... ....
....|..|--- .... ....|--- .... ....|C-6 2F.F ....
....|..|--- .... ....|--- .... ....|G#2 2F.7 ....
....|..|--- .... ....|--- .... ....|R-- .... ....
....|..|C-5 VF.F ....|--- .... ....|C-6 2F.F ....
....|..|--- .... ....|--- .... ....|C-6 2F.F ....
....|..|--- .... ....|--- .... ....|R-- .... ....
....|..|--- .... ....|--- .... ....|C-6 2F.F ....
....|..|C-5 VF.F ....|--- .... ....|C-6 2F.A ....
....|..|--- .... ....|--- .... ....|C-6 2F.F ....
....|..|--- .... ....|--- .... ....|C-6 2F.7 ....
....|..|R-- .... ....|--- .... ....|C-6 2F.F ....
....|..|B-8 JF.F ....|--- .... ....|C-6 2F.A ....
....|..|--- .... ....|--- .... ....|C-6 2F.F ....
....|..|--- .... ....|--- .... ....|C-6 2F.A ....
....|..|--- .... ....|--- .... ....|C-6 2F.7 ....
....|..|B-8 JF.F ....|--- .... ....|C-6 2F.F ....
....|..|--- .... ....|--- .... ....|C-6 2F.F ....
....|..|--- .... ....|--- .... ....|R-- .... ....
....|..|--- .... ....|--- .... ....|C-6 2F.F ....
....|..|B-8 JF.F ....|A-4 2F.F ....|C-6 2F.A ....
....|..|--- .... ....|--- .... ....|C-6 2F.F ....
....|..|--- .... ....|--- .... ....|C-6 2F.7 ....
....|..|--- .... ....|A-4 2F.A ....|C-6 2F.F ....
....|..|B-8 JF.F ....|--- .... ....|C-6 2F.A ....
....|..|--- .... ....|--- .... ....|C-6 2F.F ....
....|..|--- .... ....|A-4 2F.7 ....|C-6 2F.A ....
....|..|--- .... ....|--- .... ....|C-6 2F.F ....
....|..|B-8 JF.F ....|--- .... ....|C-6 2F.A ....
....|..|--- .... ....|--- .... ....|C-6 2F.7 ....
....|..|--- .... ....|R-- .... ....|C-6 2F.F ....
....|..|--- .... ....|--- .... ....|C-6 2F.F ....
....|..|B-8 JF.F ....|B-4 2F.F ....|R-- .... ....
....|..|--- .... ....|R-- .... ....|C-6 2F.F ....
....|..|--- .... ....|--- .... ....|C-6 2F.A ....
....|..|--- .... ....|B-4 2F.A ....|R-- .... ....
....|..|B-8 JF.F ....|R-- .... ....|C-6 2F.F ....
....|..|--- .... ....|--- .... ....|C-6 2F.F ....
....|..|--- .... ....|B-4 2F.7 ....|R-- .... ....
....|..|--- .... ....|--- .... ....|C-6 2F.F ....
....|..|B-8 JF.F ....|C#5 2F.F ....|C-6 2F.A ....
....|..|--- .... ....|R-- .... ....|C-6 2F.F ....
....|..|--- .... ....|--- .... ....|C-6 2F.7 ....
....|..|R-- .... ....|C#5 2F.A ....|C-6 2F.F ....

[Pattern36]
....|..|C-4 9F.F ....|R-- .... ....|C-6 2F.A ....
....|..|--- .... ....|--- .... ....|C-6 2F.F ....
....|..|--- .... ....|C#5 2F.7 ....|C-6 2F.A ....
....|..|--- .... ....|--- .... ....|C-6 2F.7 ....
....|..|C-4 9F.F ....|--- .... ....|C-6 2F.F ....
....|..|--- .... ....|--- .... ....|C-6 2F.F ....
....|..|--- .... ....|--- .... ....|R-- .... ....
....|..|--- .... ....|--- .... ....|C-6 2F.F ....
....|..|C-4 9F.F ....|--- .... ....|C-6 2F.A ....
....|..|--- .... ....|--- .... ....|C-6 2F.F ....
....|..|--- .... ....|--- .... ....|C-6 2F.7 ....
....|..|--- .... ....|--- .... ....|C-6 2F.F ....
....|..|C-4 9F.F ....|--- .... ....|C-6 2F.A ....
....|..|--- .... ....|--- .... ....|C-6 2F.F ....
....|..|--- .... ....|--- .... ....|C-6 2F.A ....
....|..|--- .... ....|--- .... ....|C-6 2F.F ....
....|..|C-4 9F.F ....|--- .... ....|C-6 2F.A ....
....|..|--- .... ....|--- .... ....|C-6 2F.7 ....
....|..|--- .... ....|--- .... ....|C-6 2F.F ....
....|..|--- .... ....|--- .... ....|C-6 2F.F ....
....|..|C-4 9F.F ....|--- .... ....|R-- .... ....
....|..|--- .... ....|R-- .... ....|C-6 2F.F ....
....|..|--- .... ....|--- .... ....|C-6 2F.A ....
....|..|--- .... ....|--- .... ....|R-- .... ....
....|..|C-4 9F.F ....|B-4 2F.F ....|C-6 2F.F ....
....|..|--- .... ....|--- .... ....|C-6 2F.F ....
....|..|--- .... ....|--- .... ....|R-- .... ....
....|..|--- .... ....|B-4 2F.A ....|C-6 2F.F ....
....|..|C-4 9F.F ....|--- .... ....|C-6 2F.A ....
....|..|--- .... ....|R-- .... ....|C-6 2F.F ....
....|..|--- .... ....|B-4 2F.7 ....|C-6 2F.7 ....
....|..|R-- .... ....|--- .... ....|C-6 2F.F ....
....|..|C-4 CF.F ....|A-4 2F.F ....|A#2 2F.F ....
....|..|--- .... ....|--- .... ....|C-6 2F.F ....
....|..|--- .... ....|--- .... ....|C-6 2F.A ....
....|..|--- .... ....|A-4 2F.A ....|C-6 2F.7 ....
....|..|C-4 CF.F ....|--- .... ....|C-6 2F.F ....
....|..|--- .... ....|--- .... ....|C-6 2F.F ....
....|..|--- .... ....|A-4 2F.7 ....|A#2 2F.7 ....
....|..|--- .... ....|--- .... ....|C-6 2F.F ....
....|..|C-4 CF.F ....|--- .... ....|C-6 2F.A ....
....|..|--- .... ....|--- .... ....|C-6 2F.F ....
....|..|--- .... ....|--- .... ....|C-6 2F.7 ....
....|..|--- .... ....|--- .... ....|C-6 2F.F ....
....|..|C-4 CF.F ....|--- .... ....|C-6 2F.A ....
....|..|--- .... ....|--- .... ....|C-6 2F.F ....
....|..|--- .... ....|R-- .... ....|C-6 2F.A ....
....|..|--- .... ....|--- .... ....|C-6 2F.F ....
....|..|C-4 CF.F ....|A-4 2F.F ....|C-6 2F.A ....
....|..|--- .... ....|R-- .... ....|C-6 2F.7 ....
....|..|--- .... ....|--- .... ....|C-6 2F.F ....
....|..|--- .... ....|A-4 2F.A ....|C-6 2F.F ....
....|..|C-4 CF.F ....|R-- .... ....|R-- .... ....
....|..|--- .... ....|--- .... ....|C-6 2F.F ....
....|..|--- .... ....|A-4 2F.7 ....|C-6 2F.A ....
....|..|--- .... ....|--- .... ....|R-- .... ....
....|..|C-4 CF.F ....|--- .... ....|C-6 2F.F ....
....|..|--- .... ....|--- .... ....|C-6 2F.F ....
....|..|--- .... ....|--- .... ....|R-- .... ....
....|..|--- .... ....|--- .... ....|C-6 2F.F ....
....|..|C-4 CF.F ....|--- .... ....|C-6 2F.A ....
....|..|--- .... ....|R-- .... ....|C-6 2F.F ....
....|..|--- .... ....|--- .... ....|C-6 2F.7 ....
....|..|R-- .... ....|--- .... ....|C-6 2F.F ....

[Pattern37]
....|..|C-4 9F.F ....|F#4 2F.F ....|A#2 2F.F ....
....|..|--- .... ....|--- .... ....|C-6 2F.F ....
....|..|--- .... ....|--- .... ....|C-6 2F.A ....
....|..|--- .... ....|F#4 2F.A ....|C-6 2F.7 ....
....|..|C-4 9F.F ....|--- .... ....|C-6 2F.F ....
....|..|--- .... ....|E-4 2F.F ....|C-6 2F.F ....
....|..|--- .... ....|F#4 2F.7 ....|A#2 2F.7 ....
....|..|--- .... ....|--- .... ....|C-6 2F.F ....
....|..|C-4 9F.F ....|E-4 2F.A ....|C-6 2F.A ....
....|..|--- .... ....|R-- .... ....|C-6 2F.F ....
....|..|--- .... ....|--- .... ....|C-6 2F.7 ....
....|..|--- .... ....|E-4 2F.7 ....|C-6 2F.F ....
....|..|C-4 9F.F ....|--- .... ....|C-6 2F.A ....
....|..|--- .... ....|--- .... ....|C-6 2F.F ....
....|..|R-- .... ....|--- .... ....|C-6 2F.A ....
....|..|--- .... ....|--- .... ....|C-6 2F.F ....
....|..|C-4 9F.F ....|--- .... ....|C-6 2F.A ....
....|..|--- .... ....|--- .... ....|C-6 2F.7 ....
....|..|--- .... ....|--- .... ....|C-6 2F.F ....
....|..|R-- .... ....|--- .... ....|C-6 2F.F ....
....|..|B-8 JF.F ....|--- .... ....|B-2 2F.F ....
....|..|--- .... ....|--- .... ....|C-6 2F.F ....
....|..|--- .... ....|--- .... ....|C-6 2F.A ....
....|..|--- .... ....|--- .... ....|B-2 2F.A ....
....|..|C-5 VF.F ....|--- .... ....|C-6 2F.F ....
....|..|--- .... ....|R-- .... ....|C-6 2F.F ....
....|..|--- .... ....|--- .... ....|B-2 2F.7 ....
....|..|--- .... ....|--- .... ....|C-6 2F.F ....
....|..|B-8 JF.F ....|R-- .... ....|A-2 2F.F ....
....|..|--- .... ....|--- .... ....|C-6 2F.F ....
....|..|--- .... ....|--- .... ....|C-6 2F.7 ....
....|..|--- .... ....|R-- .... ....|C-6 2F.F ....
....|..|C-4 AF.F ....|--- .... ....|C#3 2F.F ....
 C#4|..|C#5 2C.F ....|--- .... ....|C-6 2F.F ....
....|..|--- .... ....|--- .... ....|A-2 2F.7 ....
....|..|C#5 2F.A ....|--- .... ....|C-6 2F.7 ....
....|..|--- .... ....|--- .... ....|C-6 2F.F ....
....|..|--- .... ....|--- .... ....|C-6 2F.F ....
....|..|C#5 2F.7 ....|--- .... ....|C#3 2F.7 ....
....|..|--- .... ....|--- .... ....|C-6 2F.F ....
....|..|--- .... ....|--- .... ....|F#2 2F.F ....
....|..|R-- .... ....|--- .... ....|C-6 2F.F ....
....|..|--- .... ....|--- .... ....|C-6 2F.7 ....
....|..|--- .... ....|--- .... ....|C-6 2F.F ....
....|..|C-4 AF.F ....|--- .... ....|F#2 2F.F ....
....|..|--- .... ....|--- .... ....|C-6 2F.F ....
....|..|--- .... ....|--- .... ....|F#2 2F.7 ....
....|..|--- .... ....|--- .... ....|C-6 2F.F ....
....|..|C-4 9F.F ....|A-4 2F.F ....|F#2 2F.F ....
....|..|--- .... ....|--- .... ....|C-6 2F.7 ....
....|..|--- .... ....|--- .... ....|C-6 2F.F ....
....|..|R-- .... ....|A-4 2F.A ....|C-6 2F.F ....
....|..|B-8 JF.F ....|--- .... ....|F#2 2F.F ....
....|..|--- .... ....|B-4 2F.F ....|C-6 2F.F ....
....|..|--- .... ....|A-4 2F.7 ....|F#2 2F.7 ....
....|..|--- .... ....|--- .... ....|F#2 2F.A ....
....|..|C-5 VF.F ....|B-4 2F.A ....|C-6 2F.F ....
....|..|--- .... ....|R-- .... ....|C-6 2F.F ....
....|..|--- .... ....|R-- .... ....|F#2 2F.7 ....
....|..|R-- .... ....|B-4 2F.7 ....|C-6 2F.F ....
....|..|B-8 JF.F ....|E-5 2F.F ....|F#2 2F.F ....
....|..|--- .... ....|R-- .... ....|C-6 2F.F ....
....|..|--- .... ....|--- .... ....|C-6 2F.7 ....
....|..|R-- .... ....|E-5 2F.A ....|C-6 2F.F ....

[Pattern38]
....|..|C-4 RF.F ....|R-- .... ....|F#2 2F.F ....
 C#4|..|C#5 2C.F ....|--- .... ....|C-6 2F.F ....
....|..|R-- .... ....|E-5 2F.7 ....|F#2 2F.7 ....
....|..|C#5 2F.A ....|R-- .... ....|C-6 2F.7 ....
....|..|--- .... ....|C#5 2F.F ....|C-6 2F.F ....
....|..|R-- .... ....|--- .... ....|C-6 2F.F ....
....|..|C#5 2F.7 ....|R-- .... ....|F#2 2F.7 ....
....|..|--- .... ....|C#5 2F.A ....|C-6 2F.F ....
....|..|--- .... ....|--- .... ....|F#2 2F.F ....
....|..|R-- .... ....|R-- .... ....|C-6 2F.F ....
....|..|--- .... ....|C#5 2F.7 ....|C-6 2F.7 ....
....|..|--- .... ....|--- .... ....|C-6 2F.F ....
....|..|C-4 RF.F ....|--- .... ....|F#2 2F.F ....
....|..|R-- .... ....|--- .... ....|C-6 2F.F ....
....|..|--- .... ....|--- .... ....|F#2 2F.7 ....
....|..|--- .... ....|--- .... ....|C-6 2F.F ....
....|..|C-4 RF.F ....|--- .... ....|F#2 2F.F ....
....|..|--- .... ....|--- .... ....|C-6 2F.7 ....
....|..|--- .... ....|--- .... ....|C-6 2F.F ....
....|..|--- .... ....|--- .... ....|C-6 2F.F ....
....|..|--- .... ....|--- .... ....|F#2 2F.F ....
....|..|--- .... ....|R-- .... ....|C-6 2F.F ....
....|..|--- .... ....|--- .... ....|F#2 2F.7 ....
....|..|--- .... ....|--- .... ....|F#2 2F.A ....
....|..|--- .... ....|R-- .... ....|C-6 2F.F ....
....|..|R-- .... ....|--- .... ....|C-6 2F.F ....
....|..|--- .... ....|--- .... ....|F#2 2F.7 ....
....|..|--- .... ....|R-- .... ....|C-6 2F.F ....
....|..|C-4 RF.F ....|F#5 2F.F ....|F#2 2F.F ....
....|..|R-- .... ....|--- .... ....|C-6 2F.F ....
....|..|R-- .... ....|--- .... ....|C-6 2F.7 ....
....|..|--- .... ....|F#5 2F.A ....|C-6 2F.F ....
....|..|B-8 JF.F ....|--- .... ....|F#2 2F.F ....
 C#4|..|C#5 2C.F ....|--- .... ....|C-6 2F.F ....
....|..|R-- .... ....|F#5 2F.7 ....|F#2 2F.7 ....
....|..|C#5 2F.A ....|R-- .... ....|C-6 2F.7 ....
....|..|R-- .... ....|E-5 2F.F ....|C-6 2F.F ....
....|..|--- .... ....|--- .... ....|C-6 2F.F ....
....|..|C#5 2F.7 ....|R-- .... ....|F#2 2F.7 ....
....|..|--- .... ....|E-5 2F.A ....|C-6 2F.F ....
....|..|R-- .... ....|--- .... ....|F#2 2F.F ....
....|..|--- .... ....|R-- .... ....|C-6 2F.F ....
....|..|--- .... ....|E-5 2F.7 ....|C-6 2F.7 ....
....|..|--- .... ....|--- .... ....|C-6 2F.F ....
....|..|B-8 JF.F ....|F#5 2F.F ....|F#2 2F.F ....
....|..|R-- .... ....|R-- .... ....|C-6 2F.F ....
....|..|--- .... ....|--- .... ....|F#2 2F.7 ....
....|..|--- .... ....|F#5 2F.A ....|C-6 2F.F ....
....|..|B-8 JF.F ....|E-5 2F.F ....|F#2 2F.F ....
....|..|--- .... ....|--- .... ....|C-6 2F.7 ....
....|..|--- .... ....|F#5 2F.7 ....|C-6 2F.F ....
....|..|--- .... ....|E-5 2F.A ....|C-6 2F.F ....
....|..|--- .... ....|C#5 2F.F ....|F#2 2F.F ....
....|..|--- .... ....|--- .... ....|C-6 2F.F ....
....|..|--- .... ....|E-5 2F.7 ....|F#2 2F.7 ....
....|..|--- .... ....|C#5 2F.A ....|F#2 2F.A ....
....|..|--- .... ....|--- .... ....|C-6 2F.F ....
....|..|R-- .... ....|R-- .... ....|C-6 2F.F ....
....|..|--- .... ....|C#5 2F.7 ....|F#2 2F.7 ....
....|..|--- .... ....|--- .... ....|C-6 2F.F ....
....|..|--- .... ....|A-4 2F.F ....|F#2 2F.F ....
....|..|--- .... ....|R-- .... ....|C-6 2F.F ....
....|..|--- .... ....|--- .... ....|C-6 2F.7 ....
....|..|R-- .... ....|A-4 2F.A ....|C-6 2F.F ....

[Pattern39]
....|..|C-4 AF.F ....|R-- .... ....|F#2 2F.F ....
 C#4|..|C#5 2C.F ....|--- .... ....|C-6 2F.F ....
....|..|R-- .... ....|A-4 2F.7 ....|F#2 2F.7 ....
....|..|C#5 2F.A ....|--- .... ....|C-6 2F.7 ....
....|..|--- .... ....|--- .... ....|C-6 2F.F ....
....|..|R-- .... ....|--- .... ....|C-6 2F.F ....
....|..|C#5 2F.7 ....|--- .... ....|F#2 2F.7 ....
....|..|--- .... ....|--- .... ....|C-6 2F.F ....
....|..|--- .... ....|--- .... ....|F#2 2F.F ....
....|..|R-- .... ....|--- .... ....|C-6 2F.F ....
....|..|--- .... ....|--- .... ....|C-6 2F.7 ....
....|..|--- .... ....|--- .... ....|C-6 2F.F ....
....|..|C-4 AF.F ....|--- .... ....|F#2 2F.F ....
....|..|R-- .... ....|--- .... ....|C-6 2F.F ....
....|..|--- .... ....|--- .... ....|F#2 2F.7 ....
....|..|--- .... ....|--- .... ....|C-6 2F.F ....
....|..|C-4 AF.F ....|--- .... ....|F#2 2F.F ....
....|..|--- .... ....|--- .... ....|C-6 2F.7 ....
....|..|--- .... ....|--- .... ....|C-6 2F.F ....
....|..|--- .... ....|--- .... ....|C-6 2F.F ....
....|..|--- .... ....|--- .... ....|F#2 2F.F ....
....|..|--- .... ....|--- .... ....|C-6 2F.F ....
....|..|--- .... ....|--- .... ....|F#2 2F.7 ....
....|..|--- .... ....|--- .... ....|F#2 2F.A ....
....|..|R-- .... ....|--- .... ....|C-6 2F.F ....
....|..|--- .... ....|--- .... ....|C-6 2F.F ....
....|..|--- .... ....|--- .... ....|F#2 2F.7 ....
....|..|--- .... ....|--- .... ....|C-6 2F.F ....
....|..|C-5 VF.F ....|--- .... ....|A#2 2F.F ....
....|..|--- .... ....|--- .... ....|C-6 2F.F ....
....|..|--- .... ....|--- .... ....|C-6 2F.7 ....
....|..|--- .... ....|--- .... ....|C-6 2F.F ....
....|..|C-4 AF.F ....|--- .... ....|F#2 2F.F ....
....|..|--- .... ....|--- .... ....|C-6 2F.F ....
....|..|--- .... ....|--- .... ....|A#2 2F.7 ....
....|..|--- .... ....|--- .... ....|C-6 2F.7 ....
....|..|--- .... ....|--- .... ....|C-6 2F.F ....
....|..|--- .... ....|--- .... ....|C-6 2F.F ....
....|..|--- .... ....|--- .... ....|F#2 2F.7 ....
....|..|--- .... ....|--- .... ....|C-6 2F.F ....
....|..|--- .... ....|--- .... ....|F#2 2F.F ....
....|..|R-- .... ....|--- .... ....|C-6 2F.F ....
....|..|--- .... ....|--- .... ....|C-6 2F.7 ....
....|..|--- .... ....|--- .... ....|C-6 2F.F ....
....|..|C-4 AF.F ....|--- .... ....|F#2 2F.F ....
....|..|R-- .... ....|R-- .... ....|C-6 2F.F ....
....|..|--- .... ....|--- .... ....|F#2 2F.7 ....
....|..|--- .... ....|--- .... ....|C-6 2F.F ....
....|..|C-4 AF.F ....|A-4 2F.F ....|F#2 2F.F ....
....|..|--- .... ....|--- .... ....|C-6 2F.7 ....
....|..|--- .... ....|--- .... ....|C-6 2F.F ....
....|..|--- .... ....|A-4 2F.A ....|C-6 2F.F ....
....|..|--- .... ....|B-4 2F.F ....|F#2 2F.F ....
....|..|--- .... ....|--- .... ....|C-6 2F.F ....
....|..|--- .... ....|A-4 2F.7 ....|F#2 2F.7 ....
....|..|--- .... ....|B-4 2F.A ....|F#2 2F.A ....
....|..|R-- .... ....|--- .... ....|C-6 2F.F ....
....|..|--- .... ....|--- .... ....|C-6 2F.F ....
....|..|--- .... ....|B-4 2F.7 ....|F#2 2F.7 ....
....|..|--- .... ....|R-- .... ....|C-6 2F.F ....
....|..|C-4 AF.F ....|C#5 2F.F ....|F#2 2F.F ....
....|..|--- .... ....|--- .... ....|C-6 2F.F ....
 A-3|..|A-4 2C.F ....|R-- .... ....|C-6 2F.7 ....
....|..|R-- .... ....|C#5 2F.A ....|C-6 2F.F ....

[Pattern40]
....|..|B-8 JF.F ....|--- .... ....|F#2 2F.F ....
 C#4|..|C#5 2C.F ....|R-- .... ....|C-6 2F.F ....
....|..|A-4 2F.A ....|C#5 2F.7 ....|F#2 2F.7 ....
....|..|C#5 2F.A ....|--- .... ....|C-6 2F.7 ....
....|..|A-4 2F.7 ....|--- .... ....|C-6 2F.F ....
....|..|R-- .... ....|--- .... ....|C-6 2F.F ....
....|..|C#5 2F.7 ....|--- .... ....|F#2 2F.7 ....
....|..|--- .... ....|--- .... ....|C-6 2F.F ....
....|..|--- .... ....|--- .... ....|F#2 2F.F ....
....|..|R-- .... ....|--- .... ....|C-6 2F.F ....
....|..|--- .... ....|--- .... ....|C-6 2F.7 ....
....|..|--- .... ....|--- .... ....|C-6 2F.F ....
....|..|B-8 JF.F ....|--- .... ....|F#2 2F.F ....
....|..|R-- .... ....|--- .... ....|C-6 2F.F ....
....|..|--- .... ....|--- .... ....|F#2 2F.7 ....
....|..|--- .... ....|--- .... ....|C-6 2F.F ....
....|..|B-8 JF.F ....|--- .... ....|F#2 2F.F ....
....|..|--- .... ....|--- .... ....|C-6 2F.7 ....
....|..|--- .... ....|--- .... ....|C-6 2F.F ....
....|..|--- .... ....|--- .... ....|C-6 2F.F ....
....|..|--- .... ....|--- .... ....|F#2 2F.F ....
....|..|--- .... ....|--- .... ....|C-6 2F.F ....
....|..|--- .... ....|--- .... ....|F#2 2F.7 ....
....|..|--- .... ....|--- .... ....|F#2 2F.A ....
....|..|--- .... ....|--- .... ....|C-6 2F.F ....
....|..|R-- .... ....|--- .... ....|C-6 2F.F ....
....|..|--- .... ....|--- .... ....|F#2 2F.7 ....
....|..|--- .... ....|--- .... ....|C-6 2F.F ....
....|..|B-8 JF.F ....|--- .... ....|F#2 2F.F ....
....|..|R-- .... ....|--- .... ....|C-6 2F.F ....
 C#4|..|C#5 2C.F ....|--- .... ....|C-6 2F.7 ....
....|..|R-- .... ....|R-- .... ....|C-6 2F.F ....
....|..|C-4 AF.F ....|--- .... ....|F#2 2F.F ....
 C#4|..|C#5 2C.F ....|--- .... ....|C-6 2F.F ....
....|..|C#5 2F.A ....|R-- .... ....|F#2 2F.7 ....
....|..|C#5 2F.A ....|--- .... ....|C-6 2F.7 ....
....|..|C#5 2F.7 ....|--- .... ....|C-6 2F.F ....
....|..|R-- .... ....|R-- .... ....|C-6 2F.F ....
....|..|C#5 2F.7 ....|--- .... ....|F#2 2F.7 ....
....|..|--- .... ....|--- .... ....|C-6 2F.F ....
....|..|--- .... ....|--- .... ....|F#2 2F.F ....
....|..|R-- .... ....|--- .... ....|C-6 2F.F ....
....|..|--- .... ....|--- .... ....|C-6 2F.7 ....
....|..|--- .... ....|--- .... ....|C-6 2F.F ....
....|..|C-4 AF.F ....|--- .... ....|F#2 2F.F ....
....|..|R-- .... ....|--- .... ....|C-6 2F.F ....
....|..|--- .... ....|--- .... ....|F#2 2F.7 ....
....|..|--- .... ....|--- .... ....|C-6 2F.F ....
....|..|C-4 AF.F ....|--- .... ....|F#2 2F.F ....
....|..|--- .... ....|--- .... ....|C-6 2F.7 ....
....|..|--- .... ....|--- .... ....|C-6 2F.F ....
....|..|--- .... ....|--- .... ....|C-6 2F.F ....
....|..|--- .... ....|--- .... ....|F#2 2F.F ....
....|..|--- .... ....|--- .... ....|C-6 2F.F ....
....|..|--- .... ....|--- .... ....|F#2 2F.7 ....
....|..|--- .... ....|--- .... ....|F#2 2F.A ....
....|..|--- .... ....|--- .... ....|C-6 2F.F ....
....|..|R-- .... ....|--- .... ....|C-6 2F.F ....
....|..|--- .... ....|--- .... ....|F#2 2F.7 ....
....|..|--- .... ....|--- .... ....|C-6 2F.F ....
....|..|C-5 VF.F ....|--- .... ....|F#2 2F.F ....
....|..|--- .... ....|--- .... ....|C-6 2F.F ....
 A-3|..|A-4 2C.F ....|--- .... ....|C-6 2F.7 ....
....|..|R-- .... ....|--- .... ....|C-6 2F.F ....

[Pattern41]
....|..|C-4 CF.F ....|--- .... ....|F#2 2F.F ....
 D-4|..|D-5 2C.F ....|--- .... ....|C-6 2F.F ....
....|..|A-4 2F.A ....|--- .... ....|F#2 2F.7 ....
....|..|D-5 2F.A ....|--- .... ....|C-6 2F.7 ....
....|..|A-4 2F.7 ....|--- .... ....|C-6 2F.F ....
....|..|R-- .... ....|--- .... ....|C-6 2F.F ....
....|..|D-5 2F.7 ....|--- .... ....|F#2 2F.7 ....
....|..|--- .... ....|--- .... ....|C-6 2F.F ....
....|..|--- .... ....|--- .... ....|F#2 2F.F ....
....|..|R-- .... ....|--- .... ....|C-6 2F.F ....
....|..|--- .... ....|--- .... ....|C-6 2F.7 ....
....|..|--- .... ....|--- .... ....|C-6 2F.F ....
....|..|C-4 CF.F ....|--- .... ....|F#2 2F.F ....
....|..|R-- .... ....|--- .... ....|C-6 2F.F ....
....|..|--- .... ....|--- .... ....|F#2 2F.7 ....
....|..|--- .... ....|--- .... ....|C-6 2F.F ....
....|..|C-4 CF.F ....|--- .... ....|F#2 2F.F ....
....|..|--- .... ....|--- .... ....|C-6 2F.7 ....
....|..|--- .... ....|--- .... ....|C-6 2F.F ....
....|..|--- .... ....|--- .... ....|C-6 2F.F ....
....|..|--- .... ....|--- .... ....|F#2 2F.F ....
....|..|--- .... ....|--- .... ....|C-6 2F.F ....
....|..|--- .... ....|--- .... ....|F#2 2F.7 ....
....|..|--- .... ....|--- .... ....|F#2 2F.A ....
....|..|--- .... ....|--- .... ....|C-6 2F.F ....
....|..|R-- .... ....|--- .... ....|C-6 2F.F ....
....|..|--- .... ....|--- .... ....|F#2 2F.7 ....
....|..|--- .... ....|--- .... ....|C-6 2F.F ....
....|..|C-4 CF.F ....|--- .... ....|F#2 2F.F ....
....|..|R-- .... ....|--- .... ....|C-6 2F.F ....
....|..|R-- .... ....|--- .... ....|C-6 2F.7 ....
....|..|--- .... ....|--- .... ....|C-6 2F.F ....
....|..|C-4 AF.F ....|--- .... ....|A#2 2F.F ....
 C#4|..|C#5 2C.F ....|--- .... ....|C-6 2F.F ....
....|..|R-- .... ....|--- .... ....|F#2 2F.7 ....
....|..|C#5 2F.A ....|--- .... ....|C-6 2F.7 ....
....|..|R-- .... ....|--- .... ....|C-6 2F.F ....
....|..|--- .... ....|--- .... ....|C-6 2F.F ....
....|..|C#5 2F.7 ....|--- .... ....|A#2 2F.7 ....
....|..|--- .... ....|--- .... ....|C-6 2F.F ....
....|..|--- .... ....|--- .... ....|D#2 2F.F ....
....|..|R-- .... ....|--- .... ....|C-6 2F.F ....
....|..|--- .... ....|--- .... ....|C-6 2F.7 ....
....|..|--- .... ....|--- .... ....|C-6 2F.F ....
....|..|C-4 AF.F ....|--- .... ....|B-2 2F.F ....
....|..|R-- .... ....|--- .... ....|C-6 2F.F ....
....|..|--- .... ....|--- .... ....|D#2 2F.7 ....
....|..|--- .... ....|--- .... ....|C-6 2F.F ....
....|..|C-4 AF.F ....|--- .... ....|B-1 2F.F ....
....|..|--- .... ....|--- .... ....|C-6 2F.7 ....
....|..|--- .... ....|--- .... ....|C-6 2F.F ....
....|..|--- .... ....|--- .... ....|C-6 2F.F ....
....|..|--- .... ....|--- .... ....|A-2 2F.F ....
....|..|--- .... ....|--- .... ....|C-6 2F.F ....
....|..|R-- .... ....|--- .... ....|B-1 2F.7 ....
....|..|--- .... ....|--- .... ....|A-2 2F.A ....
....|..|C-5 VF.F ....|--- .... ....|C-6 2F.F ....
....|..|--- .... ....|--- .... ....|C-6 2F.F ....
....|..|--- .... ....|--- .... ....|A-2 2F.7 ....
....|..|--- .... ....|--- .... ....|C-6 2F.F ....
....|..|C-4 CF.F ....|--- .... ....|B-1 2F.F ....
....|..|--- .... ....|--- .... ....|C-6 2F.F ....
....|..|--- .... ....|--- .... ....|C-6 2F.7 ....
....|..|--- .... ....|--- .... ....|C-6 2F.F ....

[Pattern42]
....|..|C-4 AF.F ....|--- .... ....|C#3 2F.F ....
....|..|--- .... ....|--- .... ....|C-6 2F.7 ....
....|..|--- .... ....|--- .... ....|B-1 2F.7 ....
....|..|--- .... ....|--- .... ....|C-6 2F.7 ....
....|..|--- .... ....|--- .... ....|R-- .... ....
....|..|--- .... ....|--- .... ....|C-6 2F.7 ....
....|..|--- .... ....|--- .... ....|C#3 2F.7 ....
....|..|--- .... ....|--- .... ....|--- .... ....
....|..|--- .... ....|--- .... ....|--- .... ....
....|..|--- .... ....|--- .... ....|--- .... ....
....|..|--- .... ....|--- .... ....|--- .... ....
....|..|--- .... ....|--- .... ....|--- .... ....
....|..|--- .... ....|--- .... ....|--- .... ....
....|..|--- .... ....|--- .... ....|--- .... ....
....|..|--- .... ....|--- .... ....|--- .... ....
....|..|--- .... ....|--- .... ....|--- .... ....
....|..|--- .... ....|--- .... ....|--- .... ....
....|..|--- .... ....|--- .... ....|--- .... ....
....|..|--- .... ....|--- .... ....|--- .... ....
....|..|R-- .... ....|--- .... ....|--- .... ....
....|..|--- .... ....|--- .... ....|--- .... ....
....|..|--- .... ....|--- .... ....|--- .... ....
....|..|R-- .... ....|--- .... ....|--- .... ....
....|..|--- .... ....|--- .... ....|--- .... ....
....|..|R-- .... ....|--- .... ....|--- .... ....
....|..|R-- .... ....|--- .... ....|--- .... ....
....|..|--- .... ....|--- .... ....|--- .... ....
....|..|--- .... ....|--- .... ....|--- .... ....
....|..|--- .... ....|--- .... ....|--- .... ....
....|..|--- .... ....|--- .... ....|--- .... ....
