[Module]
VortexTrackerII=0
Version=3.5
Title=2me-3me+,4m[1f]-1m[2e]-3me+-2me+,1m[3d]-2me+-3me+
Author=oisee ^ 4d 29.05.2010
NoteTable=4
ChipFreq=1750000
Speed=4
PlayOrder=L0,1,2,1,4,5,6,5,8,9,10,5,12,13,14



[Sample1]
TnE +000_ +00_ F_
TnE +000_ +00_ F_
TnE +000_ +00_ F_
TnE +000_ +00_ D_
TnE +000_ +00_ B_
TnE +000_ +00_ B_ L

[Sample2]
TnE +000_ +00_ F_ L

[Sample3]
TnE +001_ +00_ F_
TnE +002_ +00_ F_
TnE +001_ +00_ E_
TnE +002_ +00_ E_
TnE +000_ +00_ E_ L
TnE -001_ +00_ E_
TnE -002_ +00_ E_
TnE -001_ +00_ E_
TnE +000_ +00_ E_
TnE +001_ +00_ E_
TnE +002_ +00_ E_
TnE +001_ +00_ E_

[Sample4]
TnE +002_ +00_ D_
TnE +002_ +00_ D_
TnE +002_ +00_ C_
TnE +002_ +00_ B_
TnE +002_ +00_ A_ L
TnE +002_ +00_ A_
TnE +002_ +00_ A_
TnE +002_ +00_ A_
TnE +002_ +00_ A_
TnE +002_ +00_ A_
TnE +002_ +00_ A_
TnE +002_ +00_ A_

[Sample5]
TnE +000_ +00_ F_
TnE +000_ +00_ F_
tne +000_ +00_ 0_ L

[Sample6]
TnE -001_ +00_ F_ L

[Sample7]
TnE +006_ +00_ F_ L

[Sample8]
tNe +000_ +00_ F_
tNe +000_ +00_ B_
tNe +000_ +00_ 7_
tNe +000_ +00_ 6- L

[Sample9]
TnE +080_ +00_ F_
TnE +100_ +00_ E_
TnE +180_ +00_ E_
TnE +200_ +00_ E_
TnE +240_ +00_ D_
TnE +280_ +00_ D_
TnE +2C0_ +00_ D_
TnE +300_ +00_ C_
TnE +300_ +00_ C_
TnE +340_ +00_ C_
TnE +340_ +00_ C_
TnE +380_ +00_ B_
TnE +380_ +00_ B_
TnE +400_ +00_ B_
TnE +400_ +00_ B_
TnE +480_ +00_ A_
TnE +500_ +00_ 9_
TnE +580_ +00_ 7_
TnE +600_ +00_ 4_
TnE +680_ +00_ 1_
TnE +000_ +00_ 0_ L

[Sample10]
Tne +1C0_ +00_ F_
Tne +280_ +00_ E_
Tne +380_ +00_ C_
Tne +440_ +00_ A_
Tne +480_ +00_ 8_
TnE +000_ +00_ 0_ L

[Sample11]
TNe +200_ -0A_ F_
tNe +000_ +0F_ A_
TNe +200_ -07_ E_
tNe +000_ +0E_ B- L

[Sample12]
TNE +0A0_ +05_ F_
TNE +140_ +02_ D_
TNE +140_ +02_ B_
TNE +100_ +00_ A_ L
TNE +140_ +00_ A_
TNE +200_ +00_ A-

[Sample13]
Tne +200_ +00_ F_
Tne +2C0_ +00_ F_
Tne +380_ +00_ E_
Tne +500_ +00_ C_
Tne +520_ +00_ 9_
tne +000_ +00_ 0_ L

[Sample14]
TNE -100_ +00_ F_
TNE -100_ +00_ D_
TNE -100_ +00_ A_
TNE -100_ +00_ 5_
tne +000_ +00_ 0_ L

[Sample15]
TNE -100_ +00_ 5_
TNE -100_ +00_ 8_
TNE -100_ +00_ B_
TNE -100_ +00_ F_
TNe -100_ +00_ 9- L

[Sample16]
TnE +000_ +00_ C_
TnE +000_ +00_ E_
TnE +000_ +00_ F_
TnE +000_ +00_ F_
TnE +000_ +00_ E_
TnE +000_ +00_ D_
TnE +000_ +00_ C_
TnE +000_ +00_ C_ L
TnE +001_ +00_ C_
TnE +002_ +00_ C_
TnE +003_ +00_ C_
TnE +001_ +00_ C_
TnE +000_ +00_ C_
TnE -001_ +00_ C_
TnE -002_ +00_ C_
TnE -003_ +00_ C_
TnE -001_ +00_ C_
TnE +000_ +00_ C_
TnE +000_ +00_ C_

[Sample17]
Tne +1C0_ +00_ F_
Tne +280_ +00_ D_
Tne +380_ +00_ 7_
TNE +000_ +00_ 0_ L

[Sample18]
TnE -00C_ +00_ 0_ L

[Sample19]
TNe +000_ +00_ F_
TNe +000_ +00_ C_
TNe +000_ +00_ 6_
TNe +000_ +01_ A- L

[Sample20]
TNE +140_ +00_ F_
tNE +000_ +00_ B- L

[Sample21]
tNE +000_ +00_ D_
tNE +000_ +00_ 8_
tNE +000_ +00_ 1_
TNE +000_ +00_ 0_ L

[Sample22]
TnE +000_ +00_ D_ L
TnE +000_ +00_ D_
tne +000_ +00_ 9_
tne +000_ +00_ 9_
TnE +000_ +00_ D_
TnE +000_ +00_ D_
tne +000_ +00_ 9_
tne +000_ +00_ 9_
TnE +000_ +00_ D_
TnE +000_ +00_ D_
TnE +000_ +00_ D_
TnE +000_ +00_ D_
TnE +000_ +00_ D_
TnE +000_ +00_ D_
tne +000_ +00_ 9_
tne +000_ +00_ 9_

[Sample23]
TnE +000_ +00_ F_ L
TnE +010_ +01_ F_
TnE +010_ +01_ F_
TnE +010_ +01_ F_
TnE +010_ +01_ F_
TnE +000_ +00_ F_
TnE +000_ +00_ F_
TnE -010_ -01_ F_
TnE -010_ -01_ F_
TnE -010_ -01_ F_
TnE -010_ -01_ F_
TnE +000_ +00_ F_

[Sample24]
TNe +000_ -01_ C_
TNe +000_ -01_ D_
TNe +000_ -01_ E_
TNe +000_ -01_ F_
TNe +000_ -01_ F_
TNe +000_ -01_ F_
TNe +000_ -01_ F_
TNe +000_ -01_ F_
TNe +000_ -01_ E_
TNe +000_ -01_ E_
TNe +000_ -01_ E_
TNe +000_ -01_ F_
TNe +000_ -01_ F_ L

[Sample25]
TNE +000_ +00_ F_
TNE +000_ +00_ F_ L
TNE +000_ +00_ F_
TNE +000_ +00_ F_
TNE +000_ +00_ F-

[Sample26]
tne +000_ +00_ 0_ L

[Sample27]
TnE +100_ +05_ F_
TnE +200_ +02_ A_
TnE +300_ +02_ 7_
TNE +400_ +00_ 3- L

[Sample28]
tne +000_ +00_ 0_ L

[Sample29]
tnE +000_ +00_ 0_ L

[Sample30]
TNE +000_ +00_ C+ L

[Sample31]
TNe +1C0_ +00_ F_
Tne +280_ +00_ E_
Tne +380_ +00_ C_
Tne +440_ +00_ A_
Tne +480_ +00_ 8_
TnE +000_ +00_ 0_ L

[Pattern0]
 E-4|..|E-2 2A.F ....|E-3 1FFF ....|E-2 2A.F ....
....|..|--- .... ....|--- .... ....|--- .... ....
....|..|R-- .... ....|R-- .... ....|R-- .... ....
....|..|--- .... ....|--- .... ....|--- .... ....
....|..|E-2 2F.A ....|E-3 1FFA ....|E-2 2F.A ....
 E-4|..|E-2 2A.F ....|E-2 2A.F ....|E-2 2A.F ....
....|..|R-- .... ....|R-- .... ....|R-- .... ....
....|..|--- .... ....|--- .... ....|--- .... ....
....|..|E-2 2F.7 ....|E-3 1FF7 ....|E-2 2F.7 ....
 C#4|..|C#2 2A.F ....|C#3 1FFF ....|C#2 2A.F ....
....|..|R-- .... ....|R-- .... ....|R-- .... ....
....|..|R-- .... ....|R-- .... ....|R-- .... ....
....|..|--- .... ....|--- .... ....|--- .... ....
....|..|E-2 2F.7 ....|C#3 1FFA ....|E-2 2F.7 ....
 C#4|..|C#2 2A.F ....|C#2 2A.F ....|C#2 2A.F ....
....|..|R-- .... ....|R-- .... ....|R-- .... ....
....|..|--- .... ....|--- .... ....|--- .... ....
....|..|C#2 2F.7 ....|C#3 1FF7 ....|C#2 2F.7 ....
 C#4|..|C#2 2A.F ....|C#2 2A.F ....|C#2 2A.F ....
....|..|R-- .... ....|R-- .... ....|R-- .... ....
....|..|R-- .... ....|R-- .... ....|R-- .... ....
....|..|--- .... ....|--- .... ....|--- .... ....
....|..|C#2 2F.7 ....|C#2 2F.7 ....|C#2 2F.7 ....
 C#4|..|C#2 2A.F ....|C#2 2A.F ....|C#2 2A.F ....
....|..|R-- .... ....|R-- .... ....|R-- .... ....
....|..|--- .... ....|--- .... ....|--- .... ....
....|..|C#2 2F.7 ....|C#2 2F.7 ....|C#2 2F.7 ....
 C#4|..|C#2 2A.F ....|C#2 2A.F ....|C#2 2A.F ....
....|..|R-- .... ....|R-- .... ....|R-- .... ....
....|..|R-- .... ....|R-- .... ....|R-- .... ....
....|..|--- .... ....|R-- .... ....|--- .... ....
....|..|C#2 2F.7 ....|C#2 2F.7 ....|C#2 2F.7 ....
 C#4|..|C#2 2A.F ....|C#2 2A.F ....|C#2 2A.F ....
....|..|R-- .... ....|C#3 1FFF ....|R-- .... ....
....|..|--- .... ....|R-- .... ....|--- .... ....
....|..|C#2 2F.7 ....|C#2 2F.7 ....|C#2 2F.7 ....
 C#4|..|C#2 2A.F ....|C#3 1FFF ....|C#2 2A.F ....
....|..|R-- .... ....|C#3 1FFA ....|R-- .... ....
....|..|R-- .... ....|R-- .... ....|R-- .... ....
....|..|--- .... ....|B-2 1FFF ....|--- .... ....
....|..|C#2 2F.7 ....|C#3 1FFA ....|C#2 2F.7 ....
 B-3|..|B-1 2A.F ....|B-1 2A.F ....|B-1 2A.F ....
....|..|R-- .... ....|R-- .... ....|R-- .... ....
....|..|--- .... ....|B-2 1FFA ....|--- .... ....
....|..|C#2 2F.7 ....|C#3 1FF7 ....|C#2 2F.7 ....
 A-3|..|A-1 2A.F ....|A-2 1FFF ....|A-1 2A.F ....
....|..|R-- .... ....|R-- .... ....|R-- .... ....
....|..|R-- .... ....|R-- .... ....|R-- .... ....
 E-3|..|E-1 2A.F ....|E-2 1FFF ....|E-1 2A.F ....
....|..|B-1 2F.7 ....|A-2 1FFA ....|B-1 2F.7 ....
....|..|R-- .... ....|R-- .... ....|R-- .... ....
....|..|R-- .... ....|R-- .... ....|R-- .... ....
....|..|E-1 2F.A ....|E-2 1FFA ....|E-1 2F.A ....
 E-3|..|E-1 2A.F ....|E-1 2A.F ....|E-1 2A.F ....
....|..|R-- .... ....|R-- .... ....|R-- .... ....
....|..|R-- .... ....|R-- .... ....|R-- .... ....
....|..|E-1 2F.7 ....|E-2 1FF7 ....|E-1 2F.7 ....
 F#3|..|F#1 2A.F ....|F#2 1FFF ....|F#1 2A.F ....
....|..|R-- .... ....|R-- .... ....|R-- .... ....
....|..|R-- .... ....|R-- .... ....|R-- .... ....
....|..|--- .... ....|--- .... ....|--- .... ....
....|..|E-1 2F.7 ....|F#2 1FFA ....|E-1 2F.7 ....
 F#3|..|F#1 2A.F ....|F#1 2A.F ....|F#1 2A.F ....
....|..|R-- .... ....|R-- .... ....|R-- .... ....
....|..|--- .... ....|--- .... ....|--- .... ....
....|..|F#1 2F.7 ....|F#2 1FF7 ....|F#1 2F.7 ....
 F#3|..|F#1 2A.F ....|F#1 2A.F ....|F#1 2A.F ....
....|..|R-- .... ....|R-- .... ....|R-- .... ....
....|..|R-- .... ....|R-- .... ....|R-- .... ....
....|..|--- .... ....|--- .... ....|--- .... ....
....|..|F#1 2F.7 ....|F#1 2F.7 ....|F#1 2F.7 ....
 F#3|..|F#1 2A.F ....|F#1 2A.F ....|F#1 2A.F ....
....|..|R-- .... ....|R-- .... ....|R-- .... ....
....|..|--- .... ....|--- .... ....|--- .... ....
....|..|F#1 2F.7 ....|F#1 2F.7 ....|F#1 2F.7 ....
 F#3|..|F#1 2A.F ....|F#1 2A.F ....|F#1 2A.F ....
....|..|R-- .... ....|R-- .... ....|R-- .... ....
....|..|R-- .... ....|R-- .... ....|R-- .... ....
....|..|--- .... ....|R-- .... ....|--- .... ....
....|..|F#1 2F.7 ....|F#1 2F.7 ....|F#1 2F.7 ....
 F#3|..|F#1 2A.F ....|F#1 2A.F ....|F#1 2A.F ....
....|..|R-- .... ....|R-- .... ....|R-- .... ....
....|..|--- .... ....|R-- .... ....|--- .... ....
....|..|F#1 2F.7 ....|F#1 2F.7 ....|F#1 2F.7 ....
 C#4|..|C#2 2A.F ....|B-2 1FFF ....|C#2 2A.F ....
....|..|R-- .... ....|R-- .... ....|R-- .... ....
....|..|R-- .... ....|R-- .... ....|R-- .... ....
....|..|--- .... ....|A-2 1FFF ....|--- .... ....
....|..|F#1 2F.7 ....|B-2 1FFA ....|F#1 2F.7 ....
 B-3|..|B-1 2A.F ....|B-1 2A.F ....|B-1 2A.F ....
....|..|R-- .... ....|R-- .... ....|R-- .... ....
....|..|--- .... ....|A-2 1FFA ....|--- .... ....
....|..|C#2 2F.7 ....|B-2 1FF7 ....|C#2 2F.7 ....
 A-3|..|A-1 2A.F ....|G#2 1FFF ....|A-1 2A.F ....
....|..|R-- .... ....|R-- .... ....|R-- .... ....
....|..|R-- .... ....|R-- .... ....|R-- .... ....

[Pattern1]
 F#3|..|F#1 2A.F ....|E-2 1FFF ....|F#1 2A.F ....
....|..|B-1 2F.7 ....|G#2 1FFA ....|B-1 2F.7 ....
....|..|R-- .... ....|R-- .... ....|R-- .... ....
....|..|R-- .... ....|R-- .... ....|R-- .... ....
....|..|F#1 2F.A ....|E-2 1FFA ....|F#1 2F.A ....
 F#3|..|F#1 2A.F ....|F#1 2A.F ....|F#1 2A.F ....
....|..|R-- .... ....|R-- .... ....|R-- .... ....
....|..|R-- .... ....|R-- .... ....|R-- .... ....
....|..|F#1 2F.7 ....|E-2 1FF7 ....|F#1 2F.7 ....
 G#3|..|G#1 2A.F ....|F#2 1FFF ....|G#1 2A.F ....
....|..|R-- .... ....|R-- .... ....|R-- .... ....
....|..|R-- .... ....|R-- .... ....|R-- .... ....
....|..|--- .... ....|--- .... ....|--- .... ....
....|..|F#1 2F.7 ....|F#2 1FFA ....|F#1 2F.7 ....
 G#3|..|G#1 2A.F ....|G#1 2A.F ....|G#1 2A.F ....
....|..|R-- .... ....|R-- .... ....|R-- .... ....
....|..|--- .... ....|--- .... ....|--- .... ....
....|..|G#1 2F.7 ....|F#2 1FF7 ....|G#1 2F.7 ....
 G#3|..|G#1 2A.F ....|G#1 2A.F ....|G#1 2A.F ....
....|..|R-- .... ....|R-- .... ....|R-- .... ....
....|..|R-- .... ....|R-- .... ....|R-- .... ....
....|..|--- .... ....|--- .... ....|--- .... ....
....|..|G#1 2F.7 ....|G#1 2F.7 ....|G#1 2F.7 ....
 G#3|..|G#1 2A.F ....|G#1 2A.F ....|G#1 2A.F ....
....|..|R-- .... ....|R-- .... ....|R-- .... ....
....|..|--- .... ....|--- .... ....|--- .... ....
....|..|G#1 2F.7 ....|G#1 2F.7 ....|G#1 2F.7 ....
 G#3|..|G#1 2A.F ....|G#1 2A.F ....|G#1 2A.F ....
....|..|R-- .... ....|R-- .... ....|R-- .... ....
....|..|R-- .... ....|R-- .... ....|R-- .... ....
....|..|--- .... ....|--- .... ....|--- .... ....
....|..|G#1 2F.7 ....|G#1 2F.7 ....|G#1 2F.7 ....
 G#3|..|G#1 2A.F ....|G#1 2A.F ....|G#1 2A.F ....
....|..|R-- .... ....|R-- .... ....|R-- .... ....
....|..|--- .... ....|--- .... ....|--- .... ....
....|..|G#1 2F.7 ....|G#1 2F.7 ....|G#1 2F.7 ....
 C#4|..|C#2 2A.F ....|C#3 1FFF ....|C#2 2A.F ....
....|..|R-- .... ....|R-- .... ....|R-- .... ....
....|..|R-- .... ....|R-- .... ....|R-- .... ....
....|..|--- .... ....|B-2 1FFF ....|--- .... ....
....|..|G#1 2F.7 ....|C#3 1FFA ....|G#1 2F.7 ....
 C#4|..|C#2 2A.F ....|C#2 2A.F ....|C#2 2A.F ....
....|..|R-- .... ....|R-- .... ....|R-- .... ....
....|..|--- .... ....|B-2 1FFA ....|--- .... ....
....|..|C#2 2F.7 ....|C#3 1FF7 ....|C#2 2F.7 ....
 E-4|..|E-2 2A.F ....|A-2 1FFF ....|E-2 2A.F ....
....|..|R-- .... ....|R-- .... ....|R-- .... ....
....|..|R-- .... ....|R-- .... ....|R-- .... ....
 B-3|..|B-1 2A.F ....|E-2 1FFF ....|B-1 2A.F ....
....|..|C#2 2F.7 ....|A-2 1FFA ....|C#2 2F.7 ....
....|..|R-- .... ....|R-- .... ....|R-- .... ....
....|..|R-- .... ....|R-- .... ....|R-- .... ....
....|..|B-1 2F.A ....|E-2 1FFA ....|B-1 2F.A ....
 B-3|..|B-1 2A.F ....|B-1 2A.F ....|B-1 2A.F ....
....|..|R-- .... ....|R-- .... ....|R-- .... ....
....|..|R-- .... ....|R-- .... ....|R-- .... ....
....|..|B-1 2F.7 ....|E-2 1FF7 ....|B-1 2F.7 ....
 A-3|..|A-1 2A.F ....|F#2 1FFF ....|A-1 2A.F ....
....|..|R-- .... ....|R-- .... ....|R-- .... ....
....|..|R-- .... ....|R-- .... ....|R-- .... ....
....|..|--- .... ....|--- .... ....|--- .... ....
....|..|B-1 2F.7 ....|F#2 1FFA ....|B-1 2F.7 ....
 A-3|..|A-1 2A.F ....|A-1 2A.F ....|A-1 2A.F ....
....|..|R-- .... ....|R-- .... ....|R-- .... ....
....|..|--- .... ....|--- .... ....|--- .... ....
....|..|A-1 2F.7 ....|F#2 1FF7 ....|A-1 2F.7 ....
 A-3|..|A-1 2A.F ....|A-1 2A.F ....|A-1 2A.F ....
....|..|R-- .... ....|R-- .... ....|R-- .... ....
....|..|R-- .... ....|R-- .... ....|R-- .... ....
....|..|--- .... ....|--- .... ....|--- .... ....
....|..|A-1 2F.7 ....|A-1 2F.7 ....|A-1 2F.7 ....
 A-3|..|A-1 2A.F ....|A-1 2A.F ....|A-1 2A.F ....
....|..|R-- .... ....|R-- .... ....|R-- .... ....
....|..|--- .... ....|--- .... ....|--- .... ....
....|..|A-1 2F.7 ....|A-1 2F.7 ....|A-1 2F.7 ....
 A-3|..|A-1 2A.F ....|A-1 2A.F ....|A-1 2A.F ....
....|..|R-- .... ....|R-- .... ....|R-- .... ....
....|..|R-- .... ....|R-- .... ....|R-- .... ....
....|..|--- .... ....|--- .... ....|--- .... ....
....|..|A-1 2F.7 ....|A-1 2F.7 ....|A-1 2F.7 ....
 A-3|..|A-1 2A.F ....|A-1 2A.F ....|A-1 2A.F ....
....|..|R-- .... ....|R-- .... ....|R-- .... ....
....|..|--- .... ....|--- .... ....|--- .... ....
....|..|A-1 2F.7 ....|A-1 2F.7 ....|A-1 2F.7 ....
 A-3|..|A-1 2A.F ....|A-1 2A.F ....|A-1 2A.F ....
....|..|R-- .... ....|R-- .... ....|R-- .... ....
....|..|R-- .... ....|R-- .... ....|R-- .... ....
....|..|--- .... ....|R-- .... ....|--- .... ....
....|..|A-1 2F.7 ....|A-1 2F.7 ....|A-1 2F.7 ....
 A-3|..|A-1 2A.F ....|A-1 2A.F ....|A-1 2A.F ....
....|..|R-- .... ....|R-- .... ....|R-- .... ....
....|..|--- .... ....|R-- .... ....|--- .... ....
....|..|A-1 2F.7 ....|A-1 2F.7 ....|A-1 2F.7 ....
 A-3|..|A-1 2A.F ....|A-1 2A.F ....|A-1 2A.F ....
....|..|R-- .... ....|R-- .... ....|R-- .... ....
....|..|R-- .... ....|R-- .... ....|R-- .... ....

[Pattern2]
 E-4|..|E-2 2A.F ....|E-3 1FFF ....|E-2 2A.F ....
....|..|A-1 2F.7 ....|A-1 2F.7 ....|A-1 2F.7 ....
....|..|R-- .... ....|R-- .... ....|R-- .... ....
....|..|R-- .... ....|R-- .... ....|R-- .... ....
....|..|E-2 2F.A ....|E-3 1FFA ....|E-2 2F.A ....
 E-4|..|E-2 2A.F ....|E-2 2A.F ....|E-2 2A.F ....
....|..|R-- .... ....|R-- .... ....|R-- .... ....
....|..|R-- .... ....|R-- .... ....|R-- .... ....
....|..|E-2 2F.7 ....|E-3 1FF7 ....|E-2 2F.7 ....
 C#4|..|C#2 2A.F ....|C#3 1FFF ....|C#2 2A.F ....
....|..|R-- .... ....|R-- .... ....|R-- .... ....
....|..|R-- .... ....|R-- .... ....|R-- .... ....
....|..|--- .... ....|--- .... ....|--- .... ....
....|..|E-2 2F.7 ....|C#3 1FFA ....|E-2 2F.7 ....
 C#4|..|C#2 2A.F ....|C#2 2A.F ....|C#2 2A.F ....
....|..|R-- .... ....|R-- .... ....|R-- .... ....
....|..|--- .... ....|--- .... ....|--- .... ....
....|..|C#2 2F.7 ....|C#3 1FF7 ....|C#2 2F.7 ....
 C#4|..|C#2 2A.F ....|C#2 2A.F ....|C#2 2A.F ....
....|..|R-- .... ....|R-- .... ....|R-- .... ....
....|..|R-- .... ....|R-- .... ....|R-- .... ....
....|..|--- .... ....|--- .... ....|--- .... ....
....|..|C#2 2F.7 ....|C#2 2F.7 ....|C#2 2F.7 ....
 C#4|..|C#2 2A.F ....|C#2 2A.F ....|C#2 2A.F ....
....|..|R-- .... ....|R-- .... ....|R-- .... ....
....|..|--- .... ....|--- .... ....|--- .... ....
....|..|C#2 2F.7 ....|C#2 2F.7 ....|C#2 2F.7 ....
 C#4|..|C#2 2A.F ....|C#2 2A.F ....|C#2 2A.F ....
....|..|R-- .... ....|R-- .... ....|R-- .... ....
....|..|R-- .... ....|R-- .... ....|R-- .... ....
....|..|--- .... ....|R-- .... ....|--- .... ....
....|..|C#2 2F.7 ....|C#2 2F.7 ....|C#2 2F.7 ....
 C#4|..|C#2 2A.F ....|C#2 2A.F ....|C#2 2A.F ....
....|..|R-- .... ....|C#3 1FFF ....|R-- .... ....
....|..|--- .... ....|R-- .... ....|--- .... ....
....|..|C#2 2F.7 ....|C#2 2F.7 ....|C#2 2F.7 ....
 C#4|..|C#2 2A.F ....|C#3 1FFF ....|C#2 2A.F ....
....|..|R-- .... ....|C#3 1FFA ....|R-- .... ....
....|..|R-- .... ....|R-- .... ....|R-- .... ....
....|..|--- .... ....|B-2 1FFF ....|--- .... ....
....|..|C#2 2F.7 ....|C#3 1FFA ....|C#2 2F.7 ....
 B-3|..|B-1 2A.F ....|B-1 2A.F ....|B-1 2A.F ....
....|..|R-- .... ....|R-- .... ....|R-- .... ....
....|..|--- .... ....|B-2 1FFA ....|--- .... ....
....|..|C#2 2F.7 ....|C#3 1FF7 ....|C#2 2F.7 ....
 A-3|..|A-1 2A.F ....|A-2 1FFF ....|A-1 2A.F ....
....|..|R-- .... ....|R-- .... ....|R-- .... ....
....|..|R-- .... ....|R-- .... ....|R-- .... ....
 E-3|..|E-1 2A.F ....|E-2 1FFF ....|E-1 2A.F ....
....|..|B-1 2F.7 ....|A-2 1FFA ....|B-1 2F.7 ....
....|..|R-- .... ....|R-- .... ....|R-- .... ....
....|..|R-- .... ....|R-- .... ....|R-- .... ....
....|..|E-1 2F.A ....|E-2 1FFA ....|E-1 2F.A ....
 E-3|..|E-1 2A.F ....|E-1 2A.F ....|E-1 2A.F ....
....|..|R-- .... ....|R-- .... ....|R-- .... ....
....|..|R-- .... ....|R-- .... ....|R-- .... ....
....|..|E-1 2F.7 ....|E-2 1FF7 ....|E-1 2F.7 ....
 F#3|..|F#1 2A.F ....|F#2 1FFF ....|F#1 2A.F ....
....|..|R-- .... ....|R-- .... ....|R-- .... ....
....|..|R-- .... ....|R-- .... ....|R-- .... ....
....|..|--- .... ....|--- .... ....|--- .... ....
....|..|E-1 2F.7 ....|F#2 1FFA ....|E-1 2F.7 ....
 F#3|..|F#1 2A.F ....|F#1 2A.F ....|F#1 2A.F ....
....|..|R-- .... ....|R-- .... ....|R-- .... ....
....|..|--- .... ....|--- .... ....|--- .... ....
....|..|F#1 2F.7 ....|F#2 1FF7 ....|F#1 2F.7 ....
 F#3|..|F#1 2A.F ....|F#1 2A.F ....|F#1 2A.F ....
....|..|R-- .... ....|R-- .... ....|R-- .... ....
....|..|R-- .... ....|R-- .... ....|R-- .... ....
....|..|--- .... ....|--- .... ....|--- .... ....
....|..|F#1 2F.7 ....|F#1 2F.7 ....|F#1 2F.7 ....
 F#3|..|F#1 2A.F ....|F#1 2A.F ....|F#1 2A.F ....
....|..|R-- .... ....|R-- .... ....|R-- .... ....
....|..|--- .... ....|--- .... ....|--- .... ....
....|..|F#1 2F.7 ....|F#1 2F.7 ....|F#1 2F.7 ....
 F#3|..|F#1 2A.F ....|F#1 2A.F ....|F#1 2A.F ....
....|..|R-- .... ....|R-- .... ....|R-- .... ....
....|..|R-- .... ....|R-- .... ....|R-- .... ....
....|..|--- .... ....|R-- .... ....|--- .... ....
....|..|F#1 2F.7 ....|F#1 2F.7 ....|F#1 2F.7 ....
 F#3|..|F#1 2A.F ....|F#1 2A.F ....|F#1 2A.F ....
....|..|R-- .... ....|R-- .... ....|R-- .... ....
....|..|--- .... ....|R-- .... ....|--- .... ....
....|..|F#1 2F.7 ....|F#1 2F.7 ....|F#1 2F.7 ....
 C#4|..|C#2 2A.F ....|B-2 1FFF ....|C#2 2A.F ....
....|..|R-- .... ....|R-- .... ....|R-- .... ....
....|..|R-- .... ....|R-- .... ....|R-- .... ....
....|..|--- .... ....|A-2 1FFF ....|--- .... ....
....|..|F#1 2F.7 ....|B-2 1FFA ....|F#1 2F.7 ....
 B-3|..|B-1 2A.F ....|B-1 2A.F ....|B-1 2A.F ....
....|..|R-- .... ....|R-- .... ....|R-- .... ....
....|..|--- .... ....|A-2 1FFA ....|--- .... ....
....|..|C#2 2F.7 ....|B-2 1FF7 ....|C#2 2F.7 ....
 A-3|..|A-1 2A.F ....|G#2 1FFF ....|A-1 2A.F ....
....|..|R-- .... ....|R-- .... ....|R-- .... ....
....|..|R-- .... ....|R-- .... ....|R-- .... ....

[Pattern4]
 F#4|..|F#2 2A.F ....|F#2 2A.F ....|F#2 2A.F ....
....|..|A-1 2F.7 ....|A-1 2F.7 ....|A-1 2F.7 ....
....|..|R-- .... ....|R-- .... ....|R-- .... ....
....|..|R-- .... ....|R-- .... ....|R-- .... ....
....|..|F#2 2F.A ....|F#2 2F.A ....|F#2 2F.A ....
....|..|A-1 2F.7 ....|A-1 2F.7 ....|A-1 2F.7 ....
....|..|--- .... ....|--- .... ....|--- .... ....
....|..|R-- .... ....|R-- .... ....|R-- .... ....
....|..|F#2 2F.7 ....|F#2 2F.7 ....|F#2 2F.7 ....
....|..|--- .... ....|--- .... ....|--- .... ....
....|..|--- .... ....|--- .... ....|--- .... ....
....|..|--- .... ....|--- .... ....|--- .... ....
....|..|--- .... ....|--- .... ....|--- .... ....
....|..|--- .... ....|--- .... ....|--- .... ....
....|..|--- .... ....|--- .... ....|--- .... ....
....|..|--- .... ....|--- .... ....|--- .... ....
....|..|--- .... ....|--- .... ....|--- .... ....
....|..|--- .... ....|--- .... ....|--- .... ....
....|..|--- .... ....|--- .... ....|--- .... ....
....|..|--- .... ....|--- .... ....|--- .... ....
....|..|--- .... ....|--- .... ....|--- .... ....
....|..|--- .... ....|--- .... ....|--- .... ....
....|..|--- .... ....|--- .... ....|--- .... ....
....|..|--- .... ....|--- .... ....|--- .... ....
....|..|--- .... ....|--- .... ....|--- .... ....
....|..|--- .... ....|--- .... ....|--- .... ....
....|..|--- .... ....|--- .... ....|--- .... ....
....|..|--- .... ....|--- .... ....|--- .... ....
....|..|--- .... ....|--- .... ....|--- .... ....
....|..|--- .... ....|--- .... ....|--- .... ....
....|..|--- .... ....|--- .... ....|--- .... ....
....|..|--- .... ....|--- .... ....|--- .... ....
....|..|--- .... ....|--- .... ....|--- .... ....
....|..|--- .... ....|--- .... ....|--- .... ....
....|..|--- .... ....|--- .... ....|--- .... ....
....|..|--- .... ....|--- .... ....|--- .... ....
 F#4|..|F#2 2A.F ....|F#2 2A.F ....|F#2 2A.F ....
....|..|--- .... ....|--- .... ....|--- .... ....
....|..|--- .... ....|--- .... ....|--- .... ....
....|..|--- .... ....|--- .... ....|--- .... ....
....|..|F#2 2F.A ....|F#2 2F.A ....|F#2 2F.A ....
....|..|--- .... ....|--- .... ....|--- .... ....
 F#4|..|F#2 2A.F ....|F#2 2A.F ....|F#2 2A.F ....
....|..|--- .... ....|--- .... ....|--- .... ....
....|..|F#2 2F.7 ....|F#2 2F.7 ....|F#2 2F.7 ....
....|..|--- .... ....|--- .... ....|--- .... ....
....|..|F#2 2F.A ....|F#2 2F.A ....|F#2 2F.A ....
....|..|--- .... ....|--- .... ....|--- .... ....
 C#4|..|C#2 2A.F ....|C#2 2A.F ....|C#2 2A.F ....
....|..|--- .... ....|--- .... ....|--- .... ....
....|..|F#2 2F.7 ....|F#2 2F.7 ....|F#2 2F.7 ....
....|..|--- .... ....|--- .... ....|--- .... ....
....|..|C#2 2F.A ....|C#2 2F.A ....|C#2 2F.A ....
....|..|--- .... ....|--- .... ....|--- .... ....
....|..|--- .... ....|--- .... ....|--- .... ....
....|..|--- .... ....|--- .... ....|--- .... ....
....|..|C#2 2F.7 ....|C#2 2F.7 ....|C#2 2F.7 ....
 D-4|..|D-2 2A.F ....|D-2 2A.F ....|D-2 2A.F ....
....|..|--- .... ....|--- .... ....|--- .... ....
....|..|--- .... ....|--- .... ....|--- .... ....
....|..|--- .... ....|--- .... ....|--- .... ....
....|..|D-2 2F.A ....|D-2 2F.A ....|D-2 2F.A ....
....|..|--- .... ....|--- .... ....|--- .... ....
....|..|--- .... ....|--- .... ....|--- .... ....
....|..|--- .... ....|--- .... ....|--- .... ....
....|..|D-2 2F.7 ....|D-2 2F.7 ....|D-2 2F.7 ....
....|..|--- .... ....|--- .... ....|--- .... ....
....|..|--- .... ....|--- .... ....|--- .... ....
....|..|--- .... ....|--- .... ....|--- .... ....
....|..|--- .... ....|--- .... ....|--- .... ....
....|..|--- .... ....|--- .... ....|--- .... ....
....|..|--- .... ....|--- .... ....|--- .... ....
....|..|--- .... ....|--- .... ....|--- .... ....
....|..|--- .... ....|--- .... ....|--- .... ....
....|..|--- .... ....|--- .... ....|--- .... ....
....|..|--- .... ....|--- .... ....|--- .... ....
....|..|--- .... ....|--- .... ....|--- .... ....
....|..|--- .... ....|--- .... ....|--- .... ....
....|..|--- .... ....|--- .... ....|--- .... ....
....|..|--- .... ....|--- .... ....|--- .... ....
....|..|--- .... ....|--- .... ....|--- .... ....
....|..|--- .... ....|--- .... ....|--- .... ....
....|..|--- .... ....|--- .... ....|--- .... ....
 D-2|..|D-1 2A.F ....|D-1 2A.F ....|D-1 2A.F ....
 D-4|..|D-2 2A.F ....|D-2 2A.F ....|D-2 2A.F ....
....|..|--- .... ....|--- .... ....|--- .... ....
....|..|--- .... ....|--- .... ....|--- .... ....
....|..|D-1 2F.A ....|D-1 2F.A ....|D-1 2F.A ....
....|..|D-2 2F.A ....|D-2 2F.A ....|D-2 2F.A ....
....|..|--- .... ....|--- .... ....|--- .... ....
....|..|--- .... ....|--- .... ....|--- .... ....
....|..|D-1 2F.7 ....|D-1 2F.7 ....|D-1 2F.7 ....
....|..|D-2 2F.7 ....|D-2 2F.7 ....|D-2 2F.7 ....
....|..|--- .... ....|--- .... ....|--- .... ....
....|..|--- .... ....|--- .... ....|--- .... ....
....|..|--- .... ....|--- .... ....|--- .... ....

[Pattern5]
 D-4|..|D-2 2A.F ....|D-2 2A.F ....|D-2 2A.F ....
....|..|--- .... ....|--- .... ....|--- .... ....
....|..|--- .... ....|--- .... ....|--- .... ....
....|..|--- .... ....|--- .... ....|--- .... ....
....|..|D-2 2F.A ....|D-2 2F.A ....|D-2 2F.A ....
....|..|--- .... ....|--- .... ....|--- .... ....
....|..|--- .... ....|--- .... ....|--- .... ....
....|..|--- .... ....|--- .... ....|--- .... ....
....|..|D-2 2F.7 ....|D-2 2F.7 ....|D-2 2F.7 ....
 E-4|..|E-2 2A.F ....|E-2 2A.F ....|E-2 2A.F ....
....|..|--- .... ....|--- .... ....|--- .... ....
....|..|--- .... ....|--- .... ....|--- .... ....
....|..|--- .... ....|--- .... ....|--- .... ....
....|..|E-2 2F.A ....|E-2 2F.A ....|E-2 2F.A ....
....|..|--- .... ....|--- .... ....|--- .... ....
....|..|--- .... ....|--- .... ....|--- .... ....
....|..|--- .... ....|--- .... ....|--- .... ....
....|..|E-2 2F.7 ....|E-2 2F.7 ....|E-2 2F.7 ....
....|..|--- .... ....|--- .... ....|--- .... ....
....|..|--- .... ....|--- .... ....|--- .... ....
....|..|--- .... ....|--- .... ....|--- .... ....
....|..|--- .... ....|--- .... ....|--- .... ....
....|..|--- .... ....|--- .... ....|--- .... ....
....|..|--- .... ....|--- .... ....|--- .... ....
....|..|--- .... ....|--- .... ....|--- .... ....
....|..|--- .... ....|--- .... ....|--- .... ....
....|..|--- .... ....|--- .... ....|--- .... ....
....|..|--- .... ....|--- .... ....|--- .... ....
....|..|--- .... ....|--- .... ....|--- .... ....
....|..|--- .... ....|--- .... ....|--- .... ....
....|..|--- .... ....|--- .... ....|--- .... ....
....|..|--- .... ....|--- .... ....|--- .... ....
....|..|--- .... ....|--- .... ....|--- .... ....
....|..|--- .... ....|--- .... ....|--- .... ....
....|..|--- .... ....|--- .... ....|--- .... ....
....|..|--- .... ....|--- .... ....|--- .... ....
....|..|--- .... ....|--- .... ....|--- .... ....
....|..|--- .... ....|--- .... ....|--- .... ....
....|..|--- .... ....|--- .... ....|--- .... ....
....|..|--- .... ....|--- .... ....|--- .... ....
....|..|--- .... ....|--- .... ....|--- .... ....
....|..|--- .... ....|--- .... ....|--- .... ....
....|..|R-- .... ....|R-- .... ....|R-- .... ....
....|..|--- .... ....|--- .... ....|--- .... ....
....|..|--- .... ....|--- .... ....|--- .... ....
....|..|--- .... ....|--- .... ....|--- .... ....
....|..|R-- .... ....|R-- .... ....|R-- .... ....
....|..|--- .... ....|--- .... ....|--- .... ....
 E-4|..|E-2 2A.F ....|E-2 2A.F ....|E-2 2A.F ....
....|..|--- .... ....|--- .... ....|--- .... ....
....|..|R-- .... ....|R-- .... ....|R-- .... ....
....|..|--- .... ....|--- .... ....|--- .... ....
....|..|E-2 2F.A ....|E-2 2F.A ....|E-2 2F.A ....
....|..|--- .... ....|--- .... ....|--- .... ....
....|..|--- .... ....|--- .... ....|--- .... ....
....|..|--- .... ....|--- .... ....|--- .... ....
....|..|E-2 2F.7 ....|E-2 2F.7 ....|E-2 2F.7 ....
 F#4|..|F#2 2A.F ....|F#2 2A.F ....|F#2 2A.F ....
....|..|--- .... ....|--- .... ....|--- .... ....
....|..|--- .... ....|--- .... ....|--- .... ....
....|..|--- .... ....|--- .... ....|--- .... ....
....|..|F#2 2F.A ....|F#2 2F.A ....|F#2 2F.A ....
....|..|--- .... ....|--- .... ....|--- .... ....
....|..|--- .... ....|--- .... ....|--- .... ....
....|..|--- .... ....|--- .... ....|--- .... ....
....|..|F#2 2F.7 ....|F#2 2F.7 ....|F#2 2F.7 ....
....|..|--- .... ....|--- .... ....|--- .... ....
....|..|--- .... ....|--- .... ....|--- .... ....
....|..|--- .... ....|--- .... ....|--- .... ....
....|..|--- .... ....|--- .... ....|--- .... ....
....|..|--- .... ....|--- .... ....|--- .... ....
....|..|--- .... ....|--- .... ....|--- .... ....
....|..|--- .... ....|--- .... ....|--- .... ....
....|..|--- .... ....|--- .... ....|--- .... ....
....|..|--- .... ....|--- .... ....|--- .... ....
....|..|--- .... ....|--- .... ....|--- .... ....
....|..|--- .... ....|--- .... ....|--- .... ....
....|..|--- .... ....|--- .... ....|--- .... ....
....|..|--- .... ....|--- .... ....|--- .... ....
....|..|--- .... ....|--- .... ....|--- .... ....
....|..|--- .... ....|--- .... ....|--- .... ....
....|..|--- .... ....|--- .... ....|--- .... ....
....|..|--- .... ....|--- .... ....|--- .... ....
....|..|--- .... ....|--- .... ....|--- .... ....
....|..|--- .... ....|--- .... ....|--- .... ....
....|..|--- .... ....|--- .... ....|--- .... ....
....|..|--- .... ....|--- .... ....|--- .... ....
....|..|--- .... ....|--- .... ....|--- .... ....
....|..|--- .... ....|--- .... ....|--- .... ....
....|..|--- .... ....|--- .... ....|--- .... ....
....|..|--- .... ....|--- .... ....|--- .... ....
....|..|--- .... ....|--- .... ....|--- .... ....
....|..|--- .... ....|--- .... ....|--- .... ....
....|..|--- .... ....|--- .... ....|--- .... ....
....|..|--- .... ....|--- .... ....|--- .... ....
....|..|--- .... ....|--- .... ....|--- .... ....

[Pattern6]
 F#4|..|F#2 2A.F ....|F#2 2A.F ....|F#2 2A.F ....
....|..|--- .... ....|--- .... ....|--- .... ....
....|..|--- .... ....|--- .... ....|--- .... ....
....|..|--- .... ....|--- .... ....|--- .... ....
....|..|F#2 2F.A ....|F#2 2F.A ....|F#2 2F.A ....
....|..|--- .... ....|--- .... ....|--- .... ....
....|..|--- .... ....|--- .... ....|--- .... ....
....|..|--- .... ....|--- .... ....|--- .... ....
....|..|F#2 2F.7 ....|F#2 2F.7 ....|F#2 2F.7 ....
....|..|--- .... ....|--- .... ....|--- .... ....
....|..|--- .... ....|--- .... ....|--- .... ....
....|..|--- .... ....|--- .... ....|--- .... ....
....|..|--- .... ....|--- .... ....|--- .... ....
....|..|--- .... ....|--- .... ....|--- .... ....
....|..|--- .... ....|--- .... ....|--- .... ....
....|..|--- .... ....|--- .... ....|--- .... ....
....|..|--- .... ....|--- .... ....|--- .... ....
....|..|--- .... ....|--- .... ....|--- .... ....
....|..|--- .... ....|--- .... ....|--- .... ....
....|..|--- .... ....|--- .... ....|--- .... ....
....|..|--- .... ....|--- .... ....|--- .... ....
....|..|--- .... ....|--- .... ....|--- .... ....
....|..|--- .... ....|--- .... ....|--- .... ....
....|..|--- .... ....|--- .... ....|--- .... ....
....|..|--- .... ....|--- .... ....|--- .... ....
....|..|--- .... ....|--- .... ....|--- .... ....
....|..|--- .... ....|--- .... ....|--- .... ....
....|..|--- .... ....|--- .... ....|--- .... ....
....|..|--- .... ....|--- .... ....|--- .... ....
....|..|--- .... ....|--- .... ....|--- .... ....
....|..|--- .... ....|--- .... ....|--- .... ....
....|..|--- .... ....|--- .... ....|--- .... ....
....|..|--- .... ....|--- .... ....|--- .... ....
....|..|--- .... ....|--- .... ....|--- .... ....
....|..|--- .... ....|--- .... ....|--- .... ....
....|..|--- .... ....|--- .... ....|--- .... ....
 F#4|..|F#2 2A.F ....|F#2 2A.F ....|F#2 2A.F ....
....|..|--- .... ....|--- .... ....|--- .... ....
....|..|--- .... ....|--- .... ....|--- .... ....
....|..|--- .... ....|--- .... ....|--- .... ....
....|..|F#2 2F.A ....|F#2 2F.A ....|F#2 2F.A ....
....|..|--- .... ....|--- .... ....|--- .... ....
 F#4|..|F#2 2A.F ....|F#2 2A.F ....|F#2 2A.F ....
....|..|--- .... ....|--- .... ....|--- .... ....
....|..|F#2 2F.7 ....|F#2 2F.7 ....|F#2 2F.7 ....
....|..|--- .... ....|--- .... ....|--- .... ....
....|..|F#2 2F.A ....|F#2 2F.A ....|F#2 2F.A ....
....|..|--- .... ....|--- .... ....|--- .... ....
 C#4|..|C#2 2A.F ....|C#2 2A.F ....|C#2 2A.F ....
....|..|--- .... ....|--- .... ....|--- .... ....
....|..|F#2 2F.7 ....|F#2 2F.7 ....|F#2 2F.7 ....
....|..|--- .... ....|--- .... ....|--- .... ....
....|..|C#2 2F.A ....|C#2 2F.A ....|C#2 2F.A ....
....|..|--- .... ....|--- .... ....|--- .... ....
....|..|--- .... ....|--- .... ....|--- .... ....
....|..|--- .... ....|--- .... ....|--- .... ....
....|..|C#2 2F.7 ....|C#2 2F.7 ....|C#2 2F.7 ....
 D-4|..|D-2 2A.F ....|D-2 2A.F ....|D-2 2A.F ....
....|..|--- .... ....|--- .... ....|--- .... ....
....|..|--- .... ....|--- .... ....|--- .... ....
....|..|--- .... ....|--- .... ....|--- .... ....
....|..|D-2 2F.A ....|D-2 2F.A ....|D-2 2F.A ....
....|..|--- .... ....|--- .... ....|--- .... ....
....|..|--- .... ....|--- .... ....|--- .... ....
....|..|--- .... ....|--- .... ....|--- .... ....
....|..|D-2 2F.7 ....|D-2 2F.7 ....|D-2 2F.7 ....
....|..|--- .... ....|--- .... ....|--- .... ....
....|..|--- .... ....|--- .... ....|--- .... ....
....|..|--- .... ....|--- .... ....|--- .... ....
....|..|--- .... ....|--- .... ....|--- .... ....
....|..|--- .... ....|--- .... ....|--- .... ....
....|..|--- .... ....|--- .... ....|--- .... ....
....|..|--- .... ....|--- .... ....|--- .... ....
....|..|--- .... ....|--- .... ....|--- .... ....
....|..|--- .... ....|--- .... ....|--- .... ....
....|..|--- .... ....|--- .... ....|--- .... ....
....|..|--- .... ....|--- .... ....|--- .... ....
....|..|--- .... ....|--- .... ....|--- .... ....
....|..|--- .... ....|--- .... ....|--- .... ....
....|..|--- .... ....|--- .... ....|--- .... ....
....|..|--- .... ....|--- .... ....|--- .... ....
....|..|--- .... ....|--- .... ....|--- .... ....
....|..|--- .... ....|--- .... ....|--- .... ....
 D-2|..|D-1 2A.F ....|D-1 2A.F ....|D-1 2A.F ....
 D-4|..|D-2 2A.F ....|D-2 2A.F ....|D-2 2A.F ....
....|..|--- .... ....|--- .... ....|--- .... ....
....|..|--- .... ....|--- .... ....|--- .... ....
....|..|D-1 2F.A ....|D-1 2F.A ....|D-1 2F.A ....
....|..|D-2 2F.A ....|D-2 2F.A ....|D-2 2F.A ....
....|..|--- .... ....|--- .... ....|--- .... ....
....|..|--- .... ....|--- .... ....|--- .... ....
....|..|D-1 2F.7 ....|D-1 2F.7 ....|D-1 2F.7 ....
....|..|D-2 2F.7 ....|D-2 2F.7 ....|D-2 2F.7 ....
....|..|--- .... ....|--- .... ....|--- .... ....
....|..|--- .... ....|--- .... ....|--- .... ....
....|..|--- .... ....|--- .... ....|--- .... ....

[Pattern8]
 F#4|..|F#2 2A.F ....|F#3 2FEF ....|F#3 3FDF ....
....|..|--- .... ....|--- .... ....|--- .... ....
....|..|--- .... ....|--- .... ....|--- .... ....
....|..|--- .... ....|--- .... ....|--- .... ....
....|..|F#2 2F.A ....|F#3 2FEA ....|F#3 3FDA ....
....|..|--- .... ....|F#3 2FEF ....|F#3 3FDF ....
....|..|--- .... ....|F#3 2FEF ....|F#3 3FDF ....
....|..|--- .... ....|--- .... ....|--- .... ....
....|..|F#2 2F.7 ....|F#3 2FE7 ....|F#3 3FD7 ....
....|..|--- .... ....|F#3 2FEA ....|F#3 3FDA ....
....|..|--- .... ....|F#3 2FEA ....|F#3 3FDA ....
....|..|--- .... ....|F#1 2FEF ....|F#1 3FDF ....
....|..|--- .... ....|C#4 2FEF ....|C#4 3FDF ....
....|..|--- .... ....|F#3 2FE7 ....|F#3 3FD7 ....
....|..|--- .... ....|F#3 2FE7 ....|F#3 3FD7 ....
....|..|--- .... ....|F#1 2FEA ....|F#1 3FDA ....
....|..|--- .... ....|C#4 2FEA ....|C#4 3FDA ....
....|..|--- .... ....|F#1 2FEF ....|F#1 3FDF ....
....|..|--- .... ....|C#4 2FEF ....|C#4 3FDF ....
....|..|--- .... ....|F#1 2FE7 ....|F#1 3FD7 ....
....|..|--- .... ....|C#4 2FE7 ....|C#4 3FD7 ....
....|..|--- .... ....|F#1 2FEA ....|F#1 3FDA ....
....|..|--- .... ....|C#4 2FEA ....|C#4 3FDA ....
....|..|--- .... ....|B-3 2FEF ....|B-3 3FDF ....
....|..|--- .... ....|C#4 2FEF ....|C#4 3FDF ....
....|..|--- .... ....|F#1 2FE7 ....|F#1 3FD7 ....
....|..|--- .... ....|C#4 2FE7 ....|C#4 3FD7 ....
....|..|--- .... ....|B-3 2FEA ....|B-3 3FDA ....
....|..|--- .... ....|C#4 2FEA ....|C#4 3FDA ....
....|..|--- .... ....|F#1 2FEF ....|F#1 3FDF ....
....|..|--- .... ....|C#4 2FEF ....|C#4 3FDF ....
....|..|--- .... ....|B-3 2FE7 ....|B-3 3FD7 ....
....|..|--- .... ....|C#4 2FE7 ....|C#4 3FD7 ....
....|..|--- .... ....|F#1 2FEA ....|F#1 3FDA ....
....|..|--- .... ....|C#4 2FEA ....|C#4 3FDA ....
....|..|--- .... ....|F#1 2FEF ....|F#1 3FDF ....
 F#4|..|F#2 2A.F ....|C#4 2FEF ....|C#4 3FDF ....
....|..|--- .... ....|F#1 2FE7 ....|F#1 3FD7 ....
....|..|--- .... ....|C#4 2FE7 ....|C#4 3FD7 ....
....|..|--- .... ....|F#1 2FEA ....|F#1 3FDA ....
....|..|F#2 2F.A ....|C#4 2FEA ....|C#4 3FDA ....
....|..|--- .... ....|F#1 2FEF ....|F#1 3FDF ....
 F#4|..|F#2 2A.F ....|F#2 2A.F ....|F#2 2A.F ....
....|..|--- .... ....|F#1 2FE7 ....|F#1 3FD7 ....
....|..|F#2 2F.7 ....|C#4 2FE7 ....|C#4 3FD7 ....
....|..|--- .... ....|C#4 2FEF ....|C#4 3FDF ....
....|..|F#2 2F.A ....|F#2 2F.A ....|F#2 2F.A ....
....|..|--- .... ....|--- .... ....|--- .... ....
 C#4|..|C#2 2A.F ....|C#5 2FEF ....|C#5 3FDF ....
....|..|--- .... ....|F#1 2FE7 ....|F#1 3FD7 ....
....|..|F#2 2F.7 ....|F#2 2F.7 ....|F#2 2F.7 ....
....|..|--- .... ....|--- .... ....|--- .... ....
....|..|C#2 2F.A ....|C#5 2FEA ....|C#5 3FDA ....
....|..|--- .... ....|F#3 2FEF ....|F#3 3FDF ....
....|..|--- .... ....|F#3 2FEF ....|F#3 3FDF ....
....|..|--- .... ....|--- .... ....|--- .... ....
....|..|C#2 2F.7 ....|C#5 2FE7 ....|C#5 3FD7 ....
 D-4|..|D-2 2A.F ....|D-2 2A.F ....|D-2 2A.F ....
....|..|--- .... ....|F#3 2FEA ....|F#3 3FDA ....
....|..|--- .... ....|F#1 2FEF ....|F#1 3FDF ....
....|..|--- .... ....|C#4 2FEF ....|C#4 3FDF ....
....|..|D-2 2F.A ....|D-2 2F.A ....|D-2 2F.A ....
....|..|--- .... ....|F#3 2FE7 ....|F#3 3FD7 ....
....|..|--- .... ....|F#1 2FEA ....|F#1 3FDA ....
....|..|--- .... ....|C#4 2FEA ....|C#4 3FDA ....
....|..|D-2 2F.7 ....|F#1 2FEF ....|F#1 3FDF ....
....|..|--- .... ....|C#4 2FEF ....|C#4 3FDF ....
....|..|--- .... ....|F#1 2FE7 ....|F#1 3FD7 ....
....|..|--- .... ....|C#4 2FE7 ....|C#4 3FD7 ....
....|..|--- .... ....|F#1 2FEA ....|F#1 3FDA ....
....|..|--- .... ....|C#4 2FEA ....|C#4 3FDA ....
....|..|--- .... ....|B-3 2FEF ....|B-3 3FDF ....
....|..|--- .... ....|C#4 2FEF ....|C#4 3FDF ....
....|..|--- .... ....|F#1 2FE7 ....|F#1 3FD7 ....
....|..|--- .... ....|C#4 2FE7 ....|C#4 3FD7 ....
....|..|--- .... ....|B-3 2FEA ....|B-3 3FDA ....
....|..|--- .... ....|C#4 2FEA ....|C#4 3FDA ....
....|..|--- .... ....|F#1 2FEF ....|F#1 3FDF ....
....|..|--- .... ....|C#4 2FEF ....|C#4 3FDF ....
....|..|--- .... ....|B-3 2FE7 ....|B-3 3FD7 ....
....|..|--- .... ....|C#4 2FE7 ....|C#4 3FD7 ....
....|..|--- .... ....|F#1 2FEA ....|F#1 3FDA ....
....|..|--- .... ....|C#4 2FEA ....|C#4 3FDA ....
 D-2|..|D-1 2A.F ....|F#1 2FEF ....|F#1 3FDF ....
 D-4|..|D-2 2A.F ....|A-3 2FEF ....|A-3 3FDF ....
....|..|--- .... ....|F#1 2FE7 ....|F#1 3FD7 ....
....|..|--- .... ....|C#4 2FE7 ....|C#4 3FD7 ....
....|..|D-1 2F.A ....|F#1 2FEA ....|F#1 3FDA ....
....|..|D-2 2F.A ....|A-3 2FEA ....|A-3 3FDA ....
....|..|--- .... ....|G#3 2FEF ....|G#3 3FDF ....
....|..|--- .... ....|A-3 2FEF ....|A-3 3FDF ....
....|..|D-1 2F.7 ....|F#1 2FE7 ....|F#1 3FD7 ....
....|..|D-2 2F.7 ....|A-3 2FEF ....|A-3 3FDF ....
....|..|--- .... ....|G#3 2FEA ....|G#3 3FDA ....
....|..|--- .... ....|E-3 2FEF ....|E-3 3FDF ....
....|..|--- .... ....|--- .... ....|--- .... ....

[Pattern9]
 D-4|..|D-2 2A.F ....|F#3 2FEF ....|F#3 3FDF ....
....|..|--- .... ....|G#3 2FE7 ....|G#3 3FD7 ....
....|..|--- .... ....|A-3 2FE7 ....|A-3 3FD7 ....
....|..|--- .... ....|--- .... ....|--- .... ....
....|..|D-2 2F.A ....|D-2 2F.A ....|D-2 2F.A ....
....|..|--- .... ....|F#3 2FEF ....|F#3 3FDF ....
....|..|--- .... ....|F#3 2FEF ....|F#3 3FDF ....
....|..|--- .... ....|--- .... ....|--- .... ....
....|..|D-2 2F.7 ....|F#3 2FE7 ....|F#3 3FD7 ....
 E-4|..|E-2 2A.F ....|E-2 2A.F ....|E-2 2A.F ....
....|..|--- .... ....|F#3 2FEA ....|F#3 3FDA ....
....|..|--- .... ....|B-1 2FEF ....|B-1 3FDF ....
....|..|--- .... ....|C#4 2FEF ....|C#4 3FDF ....
....|..|E-2 2F.A ....|E-2 2F.A ....|E-2 2F.A ....
....|..|--- .... ....|F#3 2FE7 ....|F#3 3FD7 ....
....|..|--- .... ....|B-1 2FEA ....|B-1 3FDA ....
....|..|--- .... ....|C#4 2FEA ....|C#4 3FDA ....
....|..|E-2 2F.7 ....|B-1 2FEF ....|B-1 3FDF ....
....|..|--- .... ....|C#4 2FEF ....|C#4 3FDF ....
....|..|--- .... ....|B-1 2FE7 ....|B-1 3FD7 ....
....|..|--- .... ....|C#4 2FE7 ....|C#4 3FD7 ....
....|..|--- .... ....|B-1 2FEA ....|B-1 3FDA ....
....|..|--- .... ....|C#4 2FEA ....|C#4 3FDA ....
....|..|--- .... ....|F#4 2FEF ....|F#4 3FDF ....
....|..|--- .... ....|C#4 2FEF ....|C#4 3FDF ....
....|..|--- .... ....|B-1 2FE7 ....|B-1 3FD7 ....
....|..|--- .... ....|C#4 2FE7 ....|C#4 3FD7 ....
....|..|--- .... ....|F#4 2FEA ....|F#4 3FDA ....
....|..|--- .... ....|C#4 2FEA ....|C#4 3FDA ....
....|..|--- .... ....|--- .... ....|--- .... ....
....|..|--- .... ....|C#4 2FEF ....|C#4 3FDF ....
....|..|--- .... ....|F#4 2FE7 ....|F#4 3FD7 ....
....|..|--- .... ....|D-4 2FEF ....|D-4 3FDF ....
....|..|--- .... ....|--- .... ....|--- .... ....
....|..|--- .... ....|E-4 2FEF ....|E-4 3FDF ....
....|..|--- .... ....|--- .... ....|--- .... ....
....|..|--- .... ....|C#4 2FEF ....|C#4 3FDF ....
....|..|--- .... ....|--- .... ....|--- .... ....
....|..|--- .... ....|C#4 2FE7 ....|C#4 3FD7 ....
....|..|--- .... ....|--- .... ....|--- .... ....
....|..|--- .... ....|D-4 2FE7 ....|D-4 3FD7 ....
....|..|--- .... ....|C#4 2FEF ....|C#4 3FDF ....
....|..|R-- .... ....|C#4 2FEF ....|C#4 3FDF ....
....|..|--- .... ....|--- .... ....|--- .... ....
....|..|--- .... ....|D-4 2FEF ....|D-4 3FDF ....
....|..|--- .... ....|C#4 2FEA ....|C#4 3FDA ....
....|..|R-- .... ....|F#4 2FEF ....|F#4 3FDF ....
....|..|--- .... ....|--- .... ....|--- .... ....
 E-4|..|E-2 2A.F ....|C#4 2FEF ....|C#4 3FDF ....
....|..|--- .... ....|C#4 2FE7 ....|C#4 3FD7 ....
....|..|R-- .... ....|C#4 2FE7 ....|C#4 3FD7 ....
....|..|--- .... ....|--- .... ....|--- .... ....
....|..|E-2 2F.A ....|E-2 2F.A ....|E-2 2F.A ....
....|..|--- .... ....|--- .... ....|--- .... ....
....|..|--- .... ....|E-4 2FEF ....|E-4 3FDF ....
....|..|--- .... ....|--- .... ....|--- .... ....
....|..|E-2 2F.7 ....|C#4 2FE7 ....|C#4 3FD7 ....
 F#4|..|F#2 2A.F ....|F#2 2A.F ....|F#2 2A.F ....
....|..|--- .... ....|E-4 2FEA ....|E-4 3FDA ....
....|..|--- .... ....|--- .... ....|--- .... ....
....|..|--- .... ....|--- .... ....|--- .... ....
....|..|F#2 2F.A ....|F#2 2F.A ....|F#2 2F.A ....
....|..|--- .... ....|E-4 2FE7 ....|E-4 3FD7 ....
....|..|--- .... ....|--- .... ....|--- .... ....
....|..|--- .... ....|--- .... ....|--- .... ....
....|..|F#2 2F.7 ....|F#2 2F.7 ....|F#2 2F.7 ....
....|..|--- .... ....|D-4 2FEF ....|D-4 3FDF ....
....|..|--- .... ....|--- .... ....|--- .... ....
....|..|--- .... ....|--- .... ....|--- .... ....
....|..|--- .... ....|--- .... ....|--- .... ....
....|..|--- .... ....|D-4 2FEA ....|D-4 3FDA ....
....|..|--- .... ....|--- .... ....|--- .... ....
....|..|--- .... ....|E-4 2FEF ....|E-4 3FDF ....
....|..|--- .... ....|--- .... ....|--- .... ....
....|..|--- .... ....|D-4 2FE7 ....|D-4 3FD7 ....
....|..|--- .... ....|--- .... ....|--- .... ....
....|..|--- .... ....|E-4 2FEA ....|E-4 3FDA ....
....|..|--- .... ....|--- .... ....|--- .... ....
....|..|--- .... ....|F#4 2FEF ....|F#4 3FDF ....
....|..|--- .... ....|--- .... ....|--- .... ....
....|..|--- .... ....|E-4 2FE7 ....|E-4 3FD7 ....
....|..|--- .... ....|--- .... ....|--- .... ....
....|..|--- .... ....|F#4 2FEA ....|F#4 3FDA ....
....|..|--- .... ....|--- .... ....|--- .... ....
....|..|--- .... ....|C#4 2FEF ....|C#4 3FDF ....
....|..|--- .... ....|--- .... ....|--- .... ....
....|..|--- .... ....|F#4 2FE7 ....|F#4 3FD7 ....
....|..|--- .... ....|--- .... ....|--- .... ....
....|..|--- .... ....|C#4 2FEA ....|C#4 3FDA ....
....|..|--- .... ....|B-3 2FEF ....|B-3 3FDF ....
....|..|--- .... ....|--- .... ....|--- .... ....
....|..|--- .... ....|--- .... ....|--- .... ....
....|..|--- .... ....|C#4 2FE7 ....|C#4 3FD7 ....
....|..|--- .... ....|A-3 2FEF ....|A-3 3FDF ....
....|..|--- .... ....|--- .... ....|--- .... ....
....|..|--- .... ....|--- .... ....|--- .... ....

[Pattern10]
 F#4|..|F#2 2A.F ....|F#2 2A.F ....|F#2 2A.F ....
....|..|--- .... ....|B-3 2FE7 ....|B-3 3FD7 ....
....|..|--- .... ....|--- .... ....|--- .... ....
....|..|--- .... ....|--- .... ....|--- .... ....
....|..|F#2 2F.A ....|F#2 2F.A ....|F#2 2F.A ....
....|..|--- .... ....|A-3 2FE7 ....|A-3 3FD7 ....
....|..|--- .... ....|--- .... ....|--- .... ....
....|..|--- .... ....|--- .... ....|--- .... ....
....|..|F#2 2F.7 ....|F#2 2F.7 ....|F#2 2F.7 ....
....|..|--- .... ....|--- .... ....|--- .... ....
....|..|--- .... ....|--- .... ....|--- .... ....
....|..|--- .... ....|--- .... ....|--- .... ....
....|..|--- .... ....|--- .... ....|--- .... ....
....|..|--- .... ....|--- .... ....|--- .... ....
....|..|--- .... ....|--- .... ....|--- .... ....
....|..|--- .... ....|--- .... ....|--- .... ....
....|..|--- .... ....|--- .... ....|--- .... ....
....|..|--- .... ....|--- .... ....|--- .... ....
....|..|--- .... ....|--- .... ....|--- .... ....
....|..|--- .... ....|--- .... ....|--- .... ....
....|..|--- .... ....|--- .... ....|--- .... ....
....|..|--- .... ....|--- .... ....|--- .... ....
....|..|--- .... ....|--- .... ....|--- .... ....
....|..|--- .... ....|--- .... ....|--- .... ....
....|..|--- .... ....|--- .... ....|--- .... ....
....|..|--- .... ....|--- .... ....|--- .... ....
....|..|--- .... ....|--- .... ....|--- .... ....
....|..|--- .... ....|--- .... ....|--- .... ....
....|..|--- .... ....|--- .... ....|--- .... ....
....|..|--- .... ....|--- .... ....|--- .... ....
....|..|--- .... ....|--- .... ....|--- .... ....
....|..|--- .... ....|--- .... ....|--- .... ....
....|..|--- .... ....|--- .... ....|--- .... ....
....|..|--- .... ....|--- .... ....|--- .... ....
....|..|--- .... ....|--- .... ....|--- .... ....
....|..|--- .... ....|--- .... ....|--- .... ....
 F#4|..|F#2 2A.F ....|F#2 2A.F ....|F#2 2A.F ....
....|..|--- .... ....|--- .... ....|--- .... ....
....|..|--- .... ....|--- .... ....|--- .... ....
....|..|--- .... ....|--- .... ....|--- .... ....
....|..|F#2 2F.A ....|F#2 2F.A ....|F#2 2F.A ....
....|..|--- .... ....|--- .... ....|--- .... ....
 F#4|..|F#2 2A.F ....|F#2 2A.F ....|F#2 2A.F ....
....|..|--- .... ....|--- .... ....|--- .... ....
....|..|F#2 2F.7 ....|F#2 2F.7 ....|F#2 2F.7 ....
....|..|--- .... ....|--- .... ....|--- .... ....
....|..|F#2 2F.A ....|F#2 2F.A ....|F#2 2F.A ....
....|..|--- .... ....|--- .... ....|--- .... ....
 C#4|..|C#2 2A.F ....|C#2 2A.F ....|C#2 2A.F ....
....|..|--- .... ....|--- .... ....|--- .... ....
....|..|F#2 2F.7 ....|F#2 2F.7 ....|F#2 2F.7 ....
....|..|--- .... ....|--- .... ....|--- .... ....
....|..|C#2 2F.A ....|C#2 2F.A ....|C#2 2F.A ....
....|..|--- .... ....|--- .... ....|--- .... ....
....|..|--- .... ....|--- .... ....|--- .... ....
....|..|--- .... ....|--- .... ....|--- .... ....
....|..|C#2 2F.7 ....|C#2 2F.7 ....|C#2 2F.7 ....
 D-4|..|D-2 2A.F ....|D-2 2A.F ....|D-2 2A.F ....
....|..|--- .... ....|--- .... ....|--- .... ....
....|..|--- .... ....|--- .... ....|--- .... ....
....|..|--- .... ....|--- .... ....|--- .... ....
....|..|D-2 2F.A ....|D-2 2F.A ....|D-2 2F.A ....
....|..|--- .... ....|--- .... ....|--- .... ....
....|..|--- .... ....|--- .... ....|--- .... ....
....|..|--- .... ....|--- .... ....|--- .... ....
....|..|D-2 2F.7 ....|D-2 2F.7 ....|D-2 2F.7 ....
....|..|--- .... ....|--- .... ....|--- .... ....
....|..|--- .... ....|--- .... ....|--- .... ....
....|..|--- .... ....|--- .... ....|--- .... ....
....|..|--- .... ....|--- .... ....|--- .... ....
....|..|--- .... ....|--- .... ....|--- .... ....
....|..|--- .... ....|--- .... ....|--- .... ....
....|..|--- .... ....|--- .... ....|--- .... ....
....|..|--- .... ....|--- .... ....|--- .... ....
....|..|--- .... ....|--- .... ....|--- .... ....
....|..|--- .... ....|--- .... ....|--- .... ....
....|..|--- .... ....|--- .... ....|--- .... ....
....|..|--- .... ....|--- .... ....|--- .... ....
....|..|--- .... ....|--- .... ....|--- .... ....
....|..|--- .... ....|--- .... ....|--- .... ....
....|..|--- .... ....|--- .... ....|--- .... ....
....|..|--- .... ....|--- .... ....|--- .... ....
....|..|--- .... ....|--- .... ....|--- .... ....
 D-2|..|D-1 2A.F ....|D-1 2A.F ....|D-1 2A.F ....
 D-4|..|D-2 2A.F ....|D-2 2A.F ....|D-2 2A.F ....
....|..|--- .... ....|--- .... ....|--- .... ....
....|..|--- .... ....|--- .... ....|--- .... ....
....|..|D-1 2F.A ....|D-1 2F.A ....|D-1 2F.A ....
....|..|D-2 2F.A ....|D-2 2F.A ....|D-2 2F.A ....
....|..|--- .... ....|--- .... ....|--- .... ....
....|..|--- .... ....|--- .... ....|--- .... ....
....|..|D-1 2F.7 ....|D-1 2F.7 ....|D-1 2F.7 ....
....|..|D-2 2F.7 ....|D-2 2F.7 ....|D-2 2F.7 ....
....|..|--- .... ....|--- .... ....|--- .... ....
....|..|--- .... ....|--- .... ....|--- .... ....
....|..|--- .... ....|--- .... ....|--- .... ....

[Pattern12]
....|..|R-- .... ....|F#3 2FEF ....|F#3 3FDF ....
....|..|--- .... ....|--- .... ....|--- .... ....
....|..|--- .... ....|--- .... ....|--- .... ....
....|..|--- .... ....|--- .... ....|--- .... ....
....|..|R-- .... ....|F#3 2FEA ....|F#3 3FDA ....
....|..|--- .... ....|F#3 2FEF ....|F#3 3FDF ....
....|..|--- .... ....|F#3 2FEF ....|F#3 3FDF ....
....|..|--- .... ....|--- .... ....|--- .... ....
....|..|R-- .... ....|F#3 2FE7 ....|F#3 3FD7 ....
....|..|--- .... ....|F#3 2FEA ....|F#3 3FDA ....
....|..|--- .... ....|F#3 2FEA ....|F#3 3FDA ....
....|..|--- .... ....|F#1 2FEF ....|F#1 3FDF ....
....|..|--- .... ....|C#4 2FEF ....|C#4 3FDF ....
....|..|--- .... ....|F#3 2FE7 ....|F#3 3FD7 ....
....|..|--- .... ....|F#3 2FE7 ....|F#3 3FD7 ....
....|..|--- .... ....|F#1 2FEA ....|F#1 3FDA ....
....|..|--- .... ....|C#4 2FEA ....|C#4 3FDA ....
....|..|--- .... ....|F#1 2FEF ....|F#1 3FDF ....
....|..|--- .... ....|C#4 2FEF ....|C#4 3FDF ....
....|..|--- .... ....|F#1 2FE7 ....|F#1 3FD7 ....
....|..|--- .... ....|C#4 2FE7 ....|C#4 3FD7 ....
....|..|--- .... ....|F#1 2FEA ....|F#1 3FDA ....
....|..|--- .... ....|C#4 2FEA ....|C#4 3FDA ....
....|..|--- .... ....|B-3 2FEF ....|B-3 3FDF ....
....|..|--- .... ....|C#4 2FEF ....|C#4 3FDF ....
....|..|--- .... ....|F#1 2FE7 ....|F#1 3FD7 ....
....|..|--- .... ....|C#4 2FE7 ....|C#4 3FD7 ....
....|..|--- .... ....|B-3 2FEA ....|B-3 3FDA ....
....|..|--- .... ....|C#4 2FEA ....|C#4 3FDA ....
....|..|--- .... ....|F#1 2FEF ....|F#1 3FDF ....
....|..|--- .... ....|C#4 2FEF ....|C#4 3FDF ....
....|..|--- .... ....|B-3 2FE7 ....|B-3 3FD7 ....
....|..|--- .... ....|C#4 2FE7 ....|C#4 3FD7 ....
....|..|--- .... ....|F#1 2FEA ....|F#1 3FDA ....
....|..|--- .... ....|C#4 2FEA ....|C#4 3FDA ....
....|..|--- .... ....|F#1 2FEF ....|F#1 3FDF ....
....|..|--- .... ....|C#4 2FEF ....|C#4 3FDF ....
....|..|--- .... ....|F#1 2FE7 ....|F#1 3FD7 ....
....|..|--- .... ....|C#4 2FE7 ....|C#4 3FD7 ....
....|..|--- .... ....|F#1 2FEA ....|F#1 3FDA ....
....|..|--- .... ....|C#4 2FEA ....|C#4 3FDA ....
....|..|--- .... ....|F#1 2FEF ....|F#1 3FDF ....
....|..|--- .... ....|--- .... ....|--- .... ....
....|..|--- .... ....|F#1 2FE7 ....|F#1 3FD7 ....
....|..|--- .... ....|C#4 2FE7 ....|C#4 3FD7 ....
....|..|--- .... ....|C#4 2FEF ....|C#4 3FDF ....
....|..|--- .... ....|--- .... ....|--- .... ....
....|..|--- .... ....|--- .... ....|--- .... ....
....|..|--- .... ....|C#5 2FEF ....|C#5 3FDF ....
....|..|--- .... ....|F#1 2FE7 ....|F#1 3FD7 ....
....|..|--- .... ....|--- .... ....|--- .... ....
....|..|--- .... ....|--- .... ....|--- .... ....
....|..|--- .... ....|C#5 2FEA ....|C#5 3FDA ....
....|..|--- .... ....|F#3 2FEF ....|F#3 3FDF ....
....|..|--- .... ....|F#3 2FEF ....|F#3 3FDF ....
....|..|--- .... ....|--- .... ....|--- .... ....
....|..|--- .... ....|C#5 2FE7 ....|C#5 3FD7 ....
....|..|--- .... ....|F#3 2FEA ....|F#3 3FDA ....
....|..|--- .... ....|F#3 2FEA ....|F#3 3FDA ....
....|..|--- .... ....|F#1 2FEF ....|F#1 3FDF ....
....|..|--- .... ....|C#4 2FEF ....|C#4 3FDF ....
....|..|--- .... ....|F#3 2FE7 ....|F#3 3FD7 ....
....|..|--- .... ....|F#3 2FE7 ....|F#3 3FD7 ....
....|..|--- .... ....|F#1 2FEA ....|F#1 3FDA ....
....|..|--- .... ....|C#4 2FEA ....|C#4 3FDA ....
....|..|--- .... ....|F#1 2FEF ....|F#1 3FDF ....
....|..|--- .... ....|C#4 2FEF ....|C#4 3FDF ....
....|..|--- .... ....|F#1 2FE7 ....|F#1 3FD7 ....
....|..|--- .... ....|C#4 2FE7 ....|C#4 3FD7 ....
....|..|--- .... ....|F#1 2FEA ....|F#1 3FDA ....
....|..|--- .... ....|C#4 2FEA ....|C#4 3FDA ....
....|..|--- .... ....|B-3 2FEF ....|B-3 3FDF ....
....|..|--- .... ....|C#4 2FEF ....|C#4 3FDF ....
....|..|--- .... ....|F#1 2FE7 ....|F#1 3FD7 ....
....|..|--- .... ....|C#4 2FE7 ....|C#4 3FD7 ....
....|..|--- .... ....|B-3 2FEA ....|B-3 3FDA ....
....|..|--- .... ....|C#4 2FEA ....|C#4 3FDA ....
....|..|--- .... ....|F#1 2FEF ....|F#1 3FDF ....
....|..|--- .... ....|C#4 2FEF ....|C#4 3FDF ....
....|..|--- .... ....|B-3 2FE7 ....|B-3 3FD7 ....
....|..|--- .... ....|C#4 2FE7 ....|C#4 3FD7 ....
....|..|--- .... ....|F#1 2FEA ....|F#1 3FDA ....
....|..|--- .... ....|C#4 2FEA ....|C#4 3FDA ....
....|..|--- .... ....|F#1 2FEF ....|F#1 3FDF ....
....|..|--- .... ....|A-3 2FEF ....|A-3 3FDF ....
....|..|--- .... ....|F#1 2FE7 ....|F#1 3FD7 ....
....|..|--- .... ....|C#4 2FE7 ....|C#4 3FD7 ....
....|..|--- .... ....|F#1 2FEA ....|F#1 3FDA ....
....|..|--- .... ....|A-3 2FEA ....|A-3 3FDA ....
....|..|--- .... ....|G#3 2FEF ....|G#3 3FDF ....
....|..|--- .... ....|A-3 2FEF ....|A-3 3FDF ....
....|..|--- .... ....|F#1 2FE7 ....|F#1 3FD7 ....
....|..|--- .... ....|A-3 2FEF ....|A-3 3FDF ....
....|..|--- .... ....|G#3 2FEA ....|G#3 3FDA ....
....|..|--- .... ....|E-3 2FEF ....|E-3 3FDF ....
....|..|--- .... ....|--- .... ....|--- .... ....

[Pattern13]
....|..|--- .... ....|F#3 2FEF ....|F#3 3FDF ....
....|..|--- .... ....|G#3 2FE7 ....|G#3 3FD7 ....
....|..|--- .... ....|A-3 2FE7 ....|A-3 3FD7 ....
....|..|--- .... ....|--- .... ....|--- .... ....
....|..|--- .... ....|A-3 2FE7 ....|A-3 3FD7 ....
....|..|--- .... ....|F#3 2FEF ....|F#3 3FDF ....
....|..|--- .... ....|F#3 2FEF ....|F#3 3FDF ....
....|..|--- .... ....|--- .... ....|--- .... ....
....|..|--- .... ....|F#3 2FE7 ....|F#3 3FD7 ....
....|..|--- .... ....|F#3 2FEA ....|F#3 3FDA ....
....|..|--- .... ....|F#3 2FEA ....|F#3 3FDA ....
....|..|--- .... ....|B-1 2FEF ....|B-1 3FDF ....
....|..|--- .... ....|C#4 2FEF ....|C#4 3FDF ....
....|..|--- .... ....|F#3 2FE7 ....|F#3 3FD7 ....
....|..|--- .... ....|F#3 2FE7 ....|F#3 3FD7 ....
....|..|--- .... ....|B-1 2FEA ....|B-1 3FDA ....
....|..|--- .... ....|C#4 2FEA ....|C#4 3FDA ....
....|..|--- .... ....|B-1 2FEF ....|B-1 3FDF ....
....|..|--- .... ....|C#4 2FEF ....|C#4 3FDF ....
....|..|--- .... ....|B-1 2FE7 ....|B-1 3FD7 ....
....|..|--- .... ....|C#4 2FE7 ....|C#4 3FD7 ....
....|..|--- .... ....|B-1 2FEA ....|B-1 3FDA ....
....|..|--- .... ....|C#4 2FEA ....|C#4 3FDA ....
....|..|--- .... ....|F#4 2FEF ....|F#4 3FDF ....
....|..|--- .... ....|C#4 2FEF ....|C#4 3FDF ....
....|..|--- .... ....|B-1 2FE7 ....|B-1 3FD7 ....
....|..|--- .... ....|C#4 2FE7 ....|C#4 3FD7 ....
....|..|--- .... ....|F#4 2FEA ....|F#4 3FDA ....
....|..|--- .... ....|C#4 2FEA ....|C#4 3FDA ....
....|..|--- .... ....|--- .... ....|--- .... ....
....|..|--- .... ....|C#4 2FEF ....|C#4 3FDF ....
....|..|--- .... ....|F#4 2FE7 ....|F#4 3FD7 ....
....|..|--- .... ....|D-4 2FEF ....|D-4 3FDF ....
....|..|--- .... ....|--- .... ....|--- .... ....
....|..|--- .... ....|E-4 2FEF ....|E-4 3FDF ....
....|..|--- .... ....|--- .... ....|--- .... ....
....|..|--- .... ....|C#4 2FEF ....|C#4 3FDF ....
....|..|--- .... ....|--- .... ....|--- .... ....
....|..|--- .... ....|C#4 2FE7 ....|C#4 3FD7 ....
....|..|--- .... ....|--- .... ....|--- .... ....
....|..|--- .... ....|D-4 2FE7 ....|D-4 3FD7 ....
....|..|--- .... ....|C#4 2FEF ....|C#4 3FDF ....
....|..|--- .... ....|C#4 2FEF ....|C#4 3FDF ....
....|..|--- .... ....|--- .... ....|--- .... ....
....|..|--- .... ....|D-4 2FEF ....|D-4 3FDF ....
....|..|--- .... ....|C#4 2FEA ....|C#4 3FDA ....
....|..|--- .... ....|F#4 2FEF ....|F#4 3FDF ....
....|..|--- .... ....|--- .... ....|--- .... ....
....|..|--- .... ....|C#4 2FEF ....|C#4 3FDF ....
....|..|--- .... ....|C#4 2FE7 ....|C#4 3FD7 ....
....|..|--- .... ....|C#4 2FE7 ....|C#4 3FD7 ....
....|..|--- .... ....|--- .... ....|--- .... ....
....|..|--- .... ....|D-4 2FE7 ....|D-4 3FD7 ....
....|..|--- .... ....|--- .... ....|--- .... ....
....|..|--- .... ....|E-4 2FEF ....|E-4 3FDF ....
....|..|--- .... ....|--- .... ....|--- .... ....
....|..|--- .... ....|C#4 2FE7 ....|C#4 3FD7 ....
....|..|--- .... ....|--- .... ....|--- .... ....
....|..|--- .... ....|E-4 2FEA ....|E-4 3FDA ....
....|..|--- .... ....|--- .... ....|--- .... ....
....|..|--- .... ....|--- .... ....|--- .... ....
....|..|--- .... ....|--- .... ....|--- .... ....
....|..|--- .... ....|E-4 2FE7 ....|E-4 3FD7 ....
....|..|--- .... ....|--- .... ....|--- .... ....
....|..|--- .... ....|--- .... ....|--- .... ....
....|..|--- .... ....|--- .... ....|--- .... ....
....|..|--- .... ....|D-4 2FEF ....|D-4 3FDF ....
....|..|--- .... ....|--- .... ....|--- .... ....
....|..|--- .... ....|--- .... ....|--- .... ....
....|..|--- .... ....|--- .... ....|--- .... ....
....|..|--- .... ....|D-4 2FEA ....|D-4 3FDA ....
....|..|--- .... ....|--- .... ....|--- .... ....
....|..|--- .... ....|E-4 2FEF ....|E-4 3FDF ....
....|..|--- .... ....|--- .... ....|--- .... ....
....|..|--- .... ....|D-4 2FE7 ....|D-4 3FD7 ....
....|..|--- .... ....|--- .... ....|--- .... ....
....|..|--- .... ....|E-4 2FEA ....|E-4 3FDA ....
....|..|--- .... ....|--- .... ....|--- .... ....
....|..|--- .... ....|F#4 2FEF ....|F#4 3FDF ....
....|..|--- .... ....|--- .... ....|--- .... ....
....|..|--- .... ....|E-4 2FE7 ....|E-4 3FD7 ....
....|..|--- .... ....|--- .... ....|--- .... ....
....|..|--- .... ....|F#4 2FEA ....|F#4 3FDA ....
....|..|--- .... ....|--- .... ....|--- .... ....
....|..|--- .... ....|C#4 2FEF ....|C#4 3FDF ....
....|..|--- .... ....|--- .... ....|--- .... ....
....|..|--- .... ....|F#4 2FE7 ....|F#4 3FD7 ....
....|..|--- .... ....|--- .... ....|--- .... ....
....|..|--- .... ....|C#4 2FEA ....|C#4 3FDA ....
....|..|--- .... ....|B-3 2FEF ....|B-3 3FDF ....
....|..|--- .... ....|--- .... ....|--- .... ....
....|..|--- .... ....|--- .... ....|--- .... ....
....|..|--- .... ....|C#4 2FE7 ....|C#4 3FD7 ....
....|..|--- .... ....|A-3 2FEF ....|A-3 3FDF ....
....|..|--- .... ....|--- .... ....|--- .... ....
....|..|--- .... ....|--- .... ....|--- .... ....

[Pattern14]
....|..|--- .... ....|R-- .... ....|R-- .... ....
....|..|--- .... ....|B-3 2FE7 ....|B-3 3FD7 ....
....|..|--- .... ....|--- .... ....|--- .... ....
....|..|--- .... ....|--- .... ....|--- .... ....
....|..|--- .... ....|R-- .... ....|R-- .... ....
....|..|--- .... ....|A-3 2FE7 ....|A-3 3FD7 ....
....|..|--- .... ....|--- .... ....|--- .... ....
....|..|--- .... ....|--- .... ....|--- .... ....
