[Module]
VortexTrackerII=0
Version=3.5
Title=4d-3me,2p,1p
Author=oisee ^ 4d 29.05.2010
NoteTable=4
ChipFreq=1750000
Speed=2
PlayOrder=L0,1,2,3,4,5,6,7,8,9,10,11,12,13,14,15,16,17,18,19,20,21,22,23,24,25,26,27,28,29,30,31,32,33,34,35,36,37,38,39,40,41,42,43

[Ornament1]
L0,0,4,4,9,9

[Ornament2]
L0,0,5,5,9,9

[Ornament3]
L0,0,3,3,7,7

[Ornament4]
L0,0,5,5,8,8

[Ornament5]
L0,0,5,5,10,10

[Ornament6]
L0,0,5,5,7,7

[Ornament7]
L0,0,3,3,5,5,7,7

[Ornament8]
L0,0,4,4

[Ornament9]
L0,0,4,4,7,7

[Ornament10]
L0,0,5,5

[Ornament11]
L0,0,6,6

[Ornament12]
L0,0,6,6,9,9

[Ornament13]
L0,0,3,3

[Ornament14]
L0,0,3,3,8,8

[Ornament15]
L0,0,2,2

[Sample1]
TnE +000_ +00_ F_
TnE +000_ +00_ F_
TnE +000_ +00_ F_
TnE +000_ +00_ D_
TnE +000_ +00_ B_
TnE +000_ +00_ B_ L

[Sample2]
TnE +000_ +00_ F_ L

[Sample3]
TnE +001_ +00_ F_
TnE +002_ +00_ F_
TnE +001_ +00_ E_
TnE +002_ +00_ E_
TnE +000_ +00_ E_ L
TnE -001_ +00_ E_
TnE -002_ +00_ E_
TnE -001_ +00_ E_
TnE +000_ +00_ E_
TnE +001_ +00_ E_
TnE +002_ +00_ E_
TnE +001_ +00_ E_

[Sample4]
TnE +002_ +00_ D_
TnE +002_ +00_ D_
TnE +002_ +00_ C_
TnE +002_ +00_ B_
TnE +002_ +00_ A_ L
TnE +002_ +00_ A_
TnE +002_ +00_ A_
TnE +002_ +00_ A_
TnE +002_ +00_ A_
TnE +002_ +00_ A_
TnE +002_ +00_ A_
TnE +002_ +00_ A_

[Sample5]
TnE +000_ +00_ F_
TnE +000_ +00_ F_
tne +000_ +00_ 0_ L

[Sample6]
TnE -001_ +00_ F_ L

[Sample7]
TnE +006_ +00_ F_ L

[Sample8]
tNe +000_ +00_ F_
tNe +000_ +00_ B_
tNe +000_ +00_ 7_
tNe +000_ +00_ 6- L

[Sample9]
TnE +080_ +00_ F_
TnE +100_ +00_ E_
TnE +180_ +00_ E_
TnE +200_ +00_ E_
TnE +240_ +00_ D_
TnE +280_ +00_ D_
TnE +2C0_ +00_ D_
TnE +300_ +00_ C_
TnE +300_ +00_ C_
TnE +340_ +00_ C_
TnE +340_ +00_ C_
TnE +380_ +00_ B_
TnE +380_ +00_ B_
TnE +400_ +00_ B_
TnE +400_ +00_ B_
TnE +480_ +00_ A_
TnE +500_ +00_ 9_
TnE +580_ +00_ 7_
TnE +600_ +00_ 4_
TnE +680_ +00_ 1_
TnE +000_ +00_ 0_ L

[Sample10]
Tne +1C0_ +00_ F_
Tne +280_ +00_ E_
Tne +380_ +00_ C_
Tne +440_ +00_ A_
Tne +480_ +00_ 8_
TnE +000_ +00_ 0_ L

[Sample11]
TNe +200_ -0A_ F_
tNe +000_ +0F_ A_
TNe +200_ -07_ E_
tNe +000_ +0E_ B- L

[Sample12]
TNE +0A0_ +05_ F_
TNE +140_ +02_ D_
TNE +140_ +02_ B_
TNE +100_ +00_ A_ L
TNE +140_ +00_ A_
TNE +200_ +00_ A-

[Sample13]
Tne +200_ +00_ F_
Tne +2C0_ +00_ F_
Tne +380_ +00_ E_
Tne +500_ +00_ C_
Tne +520_ +00_ 9_
tne +000_ +00_ 0_ L

[Sample14]
TNE -100_ +00_ F_
TNE -100_ +00_ D_
TNE -100_ +00_ A_
TNE -100_ +00_ 5_
tne +000_ +00_ 0_ L

[Sample15]
TNE -100_ +00_ 5_
TNE -100_ +00_ 8_
TNE -100_ +00_ B_
TNE -100_ +00_ F_
TNe -100_ +00_ 9- L

[Sample16]
TnE +000_ +00_ C_
TnE +000_ +00_ E_
TnE +000_ +00_ F_
TnE +000_ +00_ F_
TnE +000_ +00_ E_
TnE +000_ +00_ D_
TnE +000_ +00_ C_
TnE +000_ +00_ C_ L
TnE +001_ +00_ C_
TnE +002_ +00_ C_
TnE +003_ +00_ C_
TnE +001_ +00_ C_
TnE +000_ +00_ C_
TnE -001_ +00_ C_
TnE -002_ +00_ C_
TnE -003_ +00_ C_
TnE -001_ +00_ C_
TnE +000_ +00_ C_
TnE +000_ +00_ C_

[Sample17]
Tne +1C0_ +00_ F_
Tne +280_ +00_ D_
Tne +380_ +00_ 7_
TNE +000_ +00_ 0_ L

[Sample18]
TnE -00C_ +00_ 0_ L

[Sample19]
TNe +000_ +00_ F_
TNe +000_ +00_ C_
TNe +000_ +00_ 6_
TNe +000_ +01_ A- L

[Sample20]
TNE +140_ +00_ F_
tNE +000_ +00_ B- L

[Sample21]
tNE +000_ +00_ D_
tNE +000_ +00_ 8_
tNE +000_ +00_ 1_
TNE +000_ +00_ 0_ L

[Sample22]
TnE +000_ +00_ D_ L
TnE +000_ +00_ D_
tne +000_ +00_ 9_
tne +000_ +00_ 9_
TnE +000_ +00_ D_
TnE +000_ +00_ D_
tne +000_ +00_ 9_
tne +000_ +00_ 9_
TnE +000_ +00_ D_
TnE +000_ +00_ D_
TnE +000_ +00_ D_
TnE +000_ +00_ D_
TnE +000_ +00_ D_
TnE +000_ +00_ D_
tne +000_ +00_ 9_
tne +000_ +00_ 9_

[Sample23]
TnE +000_ +00_ F_ L
TnE +010_ +01_ F_
TnE +010_ +01_ F_
TnE +010_ +01_ F_
TnE +010_ +01_ F_
TnE +000_ +00_ F_
TnE +000_ +00_ F_
TnE -010_ -01_ F_
TnE -010_ -01_ F_
TnE -010_ -01_ F_
TnE -010_ -01_ F_
TnE +000_ +00_ F_

[Sample24]
TNe +000_ -01_ C_
TNe +000_ -01_ D_
TNe +000_ -01_ E_
TNe +000_ -01_ F_
TNe +000_ -01_ F_
TNe +000_ -01_ F_
TNe +000_ -01_ F_
TNe +000_ -01_ F_
TNe +000_ -01_ E_
TNe +000_ -01_ E_
TNe +000_ -01_ E_
TNe +000_ -01_ F_
TNe +000_ -01_ F_ L

[Sample25]
TNE +000_ +00_ F_
TNE +000_ +00_ F_ L
TNE +000_ +00_ F_
TNE +000_ +00_ F_
TNE +000_ +00_ F-

[Sample26]
tne +000_ +00_ 0_ L

[Sample27]
TnE +100_ +05_ F_
TnE +200_ +02_ A_
TnE +300_ +02_ 7_
TNE +400_ +00_ 3- L

[Sample28]
tne +000_ +00_ 0_ L

[Sample29]
tnE +000_ +00_ 0_ L

[Sample30]
TNE +000_ +00_ C+ L

[Sample31]
TNe +1C0_ +00_ F_
Tne +280_ +00_ E_
Tne +380_ +00_ C_
Tne +440_ +00_ A_
Tne +480_ +00_ 8_
TnE +000_ +00_ 0_ L

[Pattern0]
....|..|C-3 RF.F ....|--- .... ....|--- .... ....
....|..|--- .... ....|--- .... ....|--- .... ....
....|..|--- .... ....|--- .... ....|--- .... ....
....|..|--- .... ....|--- .... ....|--- .... ....
....|..|--- .... ....|--- .... ....|--- .... ....
....|..|--- .... ....|--- .... ....|--- .... ....
....|..|--- .... ....|--- .... ....|--- .... ....
....|..|--- .... ....|--- .... ....|--- .... ....
....|..|--- .... ....|--- .... ....|--- .... ....
....|..|--- .... ....|--- .... ....|--- .... ....
....|..|--- .... ....|--- .... ....|--- .... ....
....|..|--- .... ....|--- .... ....|--- .... ....
....|..|--- .... ....|--- .... ....|--- .... ....
....|..|--- .... ....|--- .... ....|--- .... ....
....|..|--- .... ....|--- .... ....|--- .... ....
....|..|--- .... ....|--- .... ....|--- .... ....
....|..|C-3 RF.F ....|--- .... ....|--- .... ....
....|..|--- .... ....|--- .... ....|--- .... ....
....|..|--- .... ....|--- .... ....|--- .... ....
....|..|--- .... ....|--- .... ....|--- .... ....
....|..|--- .... ....|--- .... ....|--- .... ....
....|..|--- .... ....|--- .... ....|--- .... ....
....|..|--- .... ....|--- .... ....|--- .... ....
....|..|--- .... ....|--- .... ....|--- .... ....
....|..|C-3 RF.A ....|--- .... ....|--- .... ....
....|..|--- .... ....|--- .... ....|--- .... ....
....|..|--- .... ....|--- .... ....|--- .... ....
....|..|--- .... ....|--- .... ....|--- .... ....
....|..|--- .... ....|--- .... ....|--- .... ....
....|..|--- .... ....|--- .... ....|--- .... ....
....|..|--- .... ....|--- .... ....|--- .... ....
....|..|--- .... ....|--- .... ....|--- .... ....
....|..|C-4 AF.F ....|--- .... ....|--- .... ....
....|..|--- .... ....|--- .... ....|--- .... ....
....|..|--- .... ....|--- .... ....|--- .... ....
....|..|--- .... ....|--- .... ....|--- .... ....
....|..|R-- .... ....|--- .... ....|--- .... ....
....|..|--- .... ....|--- .... ....|--- .... ....
....|..|--- .... ....|--- .... ....|--- .... ....
....|..|--- .... ....|--- .... ....|--- .... ....
....|..|C-4 CF.F ....|--- .... ....|--- .... ....
....|..|--- .... ....|--- .... ....|--- .... ....
....|..|--- .... ....|--- .... ....|--- .... ....
....|..|--- .... ....|--- .... ....|--- .... ....
....|..|C-4 CF.F ....|--- .... ....|--- .... ....
....|..|--- .... ....|--- .... ....|--- .... ....
....|..|--- .... ....|--- .... ....|--- .... ....
....|..|--- .... ....|--- .... ....|--- .... ....
....|..|C-4 CF.F ....|--- .... ....|--- .... ....
....|..|--- .... ....|--- .... ....|--- .... ....
....|..|--- .... ....|--- .... ....|--- .... ....
....|..|--- .... ....|--- .... ....|--- .... ....
....|..|C-4 CF.F ....|--- .... ....|--- .... ....
....|..|--- .... ....|--- .... ....|--- .... ....
....|..|--- .... ....|--- .... ....|--- .... ....
....|..|--- .... ....|--- .... ....|--- .... ....
....|..|C-4 AF.F ....|--- .... ....|--- .... ....
....|..|--- .... ....|--- .... ....|--- .... ....
....|..|--- .... ....|--- .... ....|--- .... ....
....|..|--- .... ....|--- .... ....|--- .... ....
....|..|R-- .... ....|--- .... ....|--- .... ....
....|..|--- .... ....|--- .... ....|--- .... ....
....|..|--- .... ....|--- .... ....|--- .... ....
....|..|--- .... ....|--- .... ....|--- .... ....
....|..|C-4 AF.F ....|E-3 2F1F ....|G#5 2F.F ....
 A-3|..|A-1 2A.F ....|--- .... ....|--- .... ....
....|..|--- .... ....|--- .... ....|--- .... ....
....|..|--- .... ....|--- .... ....|--- .... ....
....|..|C-4 CF.A ....|--- .... ....|E-4 2F.F ....
....|..|--- .... ....|--- .... ....|--- .... ....
....|..|--- .... ....|--- .... ....|--- .... ....
....|..|--- .... ....|--- .... ....|--- .... ....
....|..|C-3 RF.F ....|--- .... ....|E-4 2F.F ....
 A-3|..|A-1 2A.F ....|--- .... ....|--- .... ....
....|..|--- .... ....|--- .... ....|--- .... ....
....|..|--- .... ....|--- .... ....|--- .... ....
....|..|C-4 CF.A ....|--- .... ....|F#5 2F.F ....
....|..|--- .... ....|--- .... ....|--- .... ....
....|..|--- .... ....|--- .... ....|--- .... ....
....|..|--- .... ....|--- .... ....|--- .... ....
....|..|C-4 CF.F ....|E-3 2F1F ....|E-4 2F.F ....
 A-3|..|A-1 2A.F ....|--- .... ....|--- .... ....
....|..|--- .... ....|--- .... ....|--- .... ....
....|..|--- .... ....|--- .... ....|--- .... ....
....|..|R-- .... ....|--- .... ....|E-4 2F.F ....
....|..|--- .... ....|--- .... ....|--- .... ....
....|..|--- .... ....|--- .... ....|--- .... ....
....|..|--- .... ....|--- .... ....|--- .... ....
....|..|C-3 RF.F ....|E-3 2F1F ....|E-5 2F.F ....
 A-3|..|A-1 2A.F ....|--- .... ....|--- .... ....
....|..|--- .... ....|--- .... ....|--- .... ....
....|..|--- .... ....|--- .... ....|--- .... ....
....|..|C-4 CF.F ....|E-3 2F1F ....|E-4 2F.F ....
....|..|--- .... ....|--- .... ....|--- .... ....
....|..|--- .... ....|--- .... ....|--- .... ....
....|..|--- .... ....|--- .... ....|--- .... ....
....|..|C-4 AF.F ....|E-3 2F1F ....|E-4 2F.F ....
 A-3|..|A-1 2A.F ....|--- .... ....|--- .... ....
....|..|--- .... ....|--- .... ....|--- .... ....
....|..|--- .... ....|--- .... ....|--- .... ....
....|..|C-4 CF.7 ....|E-3 2F1F ....|F#5 2F.F ....
....|..|--- .... ....|--- .... ....|--- .... ....
....|..|--- .... ....|--- .... ....|--- .... ....
....|..|--- .... ....|--- .... ....|--- .... ....
....|..|C-4 AF.F ....|E-3 2F1F ....|E-4 2F.F ....
 A-3|..|A-1 2A.F ....|--- .... ....|--- .... ....
....|..|--- .... ....|--- .... ....|--- .... ....
....|..|--- .... ....|--- .... ....|--- .... ....
....|..|--- .... ....|--- .... ....|E-4 2F.F ....
....|..|--- .... ....|--- .... ....|--- .... ....
....|..|--- .... ....|--- .... ....|--- .... ....
....|..|--- .... ....|--- .... ....|--- .... ....
....|..|C-4 CF.F ....|E-3 2F1F ....|E-5 2F.F ....
 A-3|..|A-1 2A.F ....|--- .... ....|--- .... ....
....|..|--- .... ....|--- .... ....|--- .... ....
....|..|--- .... ....|--- .... ....|--- .... ....
....|..|C-4 CF.A ....|E-3 2F1A ....|E-4 2F.7 ....
....|..|--- .... ....|--- .... ....|--- .... ....
....|..|--- .... ....|--- .... ....|--- .... ....
....|..|--- .... ....|--- .... ....|--- .... ....
....|..|C-3 RF.F ....|E-3 2F1F ....|F#5 2F.F ....
 A-3|..|A-1 2A.F ....|--- .... ....|--- .... ....
....|..|--- .... ....|--- .... ....|--- .... ....
....|..|--- .... ....|--- .... ....|--- .... ....
....|..|--- .... ....|E-3 2F1F ....|F#5 2F.7 ....
....|..|--- .... ....|--- .... ....|--- .... ....
....|..|--- .... ....|--- .... ....|--- .... ....
....|..|--- .... ....|--- .... ....|--- .... ....
....|..|C-4 AF.F ....|F#3 2F2F ....|G#5 2F.F ....
 B-3|..|B-1 2A.F ....|--- .... ....|--- .... ....
....|..|--- .... ....|--- .... ....|--- .... ....
....|..|--- .... ....|--- .... ....|--- .... ....
....|..|--- .... ....|--- .... ....|E-4 2F.F ....
....|..|--- .... ....|--- .... ....|--- .... ....
....|..|--- .... ....|--- .... ....|--- .... ....
....|..|--- .... ....|--- .... ....|--- .... ....
....|..|C-4 AF.F ....|E-3 2F17 ....|E-4 2F.F ....
 B-3|..|B-1 2A.F ....|--- .... ....|--- .... ....
....|..|--- .... ....|--- .... ....|--- .... ....
....|..|--- .... ....|--- .... ....|--- .... ....
....|..|C-4 CF.7 ....|E-3 2F17 ....|F#5 2F.F ....
....|..|--- .... ....|--- .... ....|--- .... ....
....|..|--- .... ....|--- .... ....|--- .... ....
....|..|--- .... ....|--- .... ....|--- .... ....
....|..|C-4 CF.F ....|F#3 2F2F ....|E-4 2F.F ....
 B-3|..|B-1 2A.F ....|--- .... ....|--- .... ....
....|..|--- .... ....|--- .... ....|--- .... ....
....|..|--- .... ....|--- .... ....|--- .... ....
....|..|--- .... ....|E-3 2F17 ....|E-4 2F.F ....
....|..|--- .... ....|--- .... ....|--- .... ....
....|..|--- .... ....|--- .... ....|--- .... ....
....|..|--- .... ....|--- .... ....|--- .... ....
....|..|C-3 RF.F ....|F#3 2F2F ....|E-5 2F.F ....
 B-3|..|B-1 2A.F ....|--- .... ....|--- .... ....
....|..|--- .... ....|--- .... ....|--- .... ....
....|..|--- .... ....|--- .... ....|--- .... ....
....|..|C-4 CF.F ....|F#3 2F2F ....|E-4 2F.F ....
....|..|--- .... ....|--- .... ....|--- .... ....
....|..|--- .... ....|--- .... ....|--- .... ....
....|..|--- .... ....|--- .... ....|--- .... ....
....|..|C-4 AF.F ....|F#3 2F2F ....|E-4 2F.F ....
 B-3|..|B-1 2A.F ....|--- .... ....|--- .... ....
....|..|--- .... ....|--- .... ....|--- .... ....
....|..|--- .... ....|--- .... ....|--- .... ....
....|..|--- .... ....|F#3 2F2F ....|F#5 2F.F ....
....|..|--- .... ....|--- .... ....|--- .... ....
....|..|--- .... ....|--- .... ....|--- .... ....
....|..|--- .... ....|--- .... ....|--- .... ....
....|..|C-4 AF.F ....|F#3 2F2F ....|E-4 2F.F ....
 B-3|..|B-1 2A.F ....|--- .... ....|--- .... ....
....|..|--- .... ....|--- .... ....|--- .... ....
....|..|--- .... ....|--- .... ....|--- .... ....
....|..|--- .... ....|E-3 2F17 ....|E-4 2F.F ....
....|..|--- .... ....|--- .... ....|--- .... ....
....|..|--- .... ....|--- .... ....|--- .... ....
....|..|--- .... ....|--- .... ....|--- .... ....
....|..|C-4 CF.F ....|F#3 2F2F ....|E-5 2F.F ....
 B-3|..|B-1 2A.F ....|--- .... ....|--- .... ....
....|..|--- .... ....|--- .... ....|--- .... ....
....|..|--- .... ....|--- .... ....|--- .... ....
....|..|C-4 CF.A ....|F#3 2F2A ....|E-4 2F.7 ....
....|..|--- .... ....|--- .... ....|--- .... ....
....|..|--- .... ....|--- .... ....|--- .... ....
....|..|--- .... ....|--- .... ....|--- .... ....
....|..|C-3 RF.F ....|F#3 2F2F ....|F#5 2F.F ....
 B-3|..|B-1 2A.F ....|--- .... ....|--- .... ....
....|..|--- .... ....|--- .... ....|--- .... ....
....|..|--- .... ....|--- .... ....|--- .... ....
....|..|--- .... ....|F#3 2F2F ....|F#5 2F.7 ....
....|..|--- .... ....|--- .... ....|--- .... ....
....|..|--- .... ....|--- .... ....|--- .... ....
....|..|--- .... ....|--- .... ....|--- .... ....
....|..|C-4 AF.F ....|G#3 2F3F ....|G#5 2F.F ....
 G#3|..|G#1 2A.F ....|--- .... ....|--- .... ....
....|..|--- .... ....|--- .... ....|--- .... ....
....|..|--- .... ....|--- .... ....|--- .... ....
....|..|--- .... ....|--- .... ....|E-4 2F.F ....
....|..|--- .... ....|--- .... ....|--- .... ....
....|..|--- .... ....|--- .... ....|--- .... ....
....|..|--- .... ....|--- .... ....|--- .... ....
....|..|C-4 AF.F ....|F#3 2F27 ....|E-4 2F.F ....
 G#3|..|G#1 2A.F ....|--- .... ....|--- .... ....
....|..|--- .... ....|--- .... ....|--- .... ....
....|..|--- .... ....|--- .... ....|--- .... ....
....|..|C-4 CF.7 ....|F#3 2F27 ....|F#5 2F.F ....
....|..|--- .... ....|--- .... ....|--- .... ....
....|..|--- .... ....|--- .... ....|--- .... ....
....|..|--- .... ....|--- .... ....|--- .... ....
....|..|C-4 CF.F ....|G#3 2F3F ....|E-4 2F.F ....
 G#3|..|G#1 2A.F ....|--- .... ....|--- .... ....
....|..|--- .... ....|--- .... ....|--- .... ....
....|..|--- .... ....|--- .... ....|--- .... ....
....|..|--- .... ....|F#3 2F27 ....|E-4 2F.F ....
....|..|--- .... ....|--- .... ....|--- .... ....
....|..|--- .... ....|--- .... ....|--- .... ....
....|..|--- .... ....|--- .... ....|--- .... ....
....|..|C-3 RF.F ....|G#3 2F3F ....|E-5 2F.F ....
 G#3|..|G#1 2A.F ....|--- .... ....|--- .... ....
....|..|--- .... ....|--- .... ....|--- .... ....
....|..|--- .... ....|--- .... ....|--- .... ....
....|..|C-4 CF.F ....|G#3 2F3F ....|E-4 2F.F ....
....|..|--- .... ....|--- .... ....|--- .... ....
....|..|--- .... ....|--- .... ....|--- .... ....
....|..|--- .... ....|--- .... ....|--- .... ....
....|..|C-4 AF.F ....|G#3 2F3F ....|E-4 2F.F ....
 G#3|..|G#1 2A.F ....|--- .... ....|--- .... ....
....|..|--- .... ....|--- .... ....|--- .... ....
....|..|--- .... ....|--- .... ....|--- .... ....
....|..|--- .... ....|G#3 2F3F ....|F#5 2F.F ....
....|..|--- .... ....|--- .... ....|--- .... ....
....|..|--- .... ....|--- .... ....|--- .... ....
....|..|--- .... ....|--- .... ....|--- .... ....
....|..|C-4 AF.F ....|G#3 2F3F ....|E-4 2F.F ....
 G#3|..|G#1 2A.F ....|--- .... ....|--- .... ....
....|..|--- .... ....|--- .... ....|--- .... ....
....|..|--- .... ....|--- .... ....|--- .... ....
....|..|--- .... ....|F#3 2F27 ....|E-4 2F.F ....
....|..|--- .... ....|--- .... ....|--- .... ....
....|..|--- .... ....|--- .... ....|--- .... ....
....|..|--- .... ....|--- .... ....|--- .... ....
....|..|C-4 CF.F ....|G#3 2F3F ....|E-5 2F.F ....
 G#3|..|G#1 2A.F ....|--- .... ....|--- .... ....
....|..|--- .... ....|--- .... ....|--- .... ....
....|..|--- .... ....|--- .... ....|--- .... ....
....|..|C-4 CF.A ....|G#3 2F3A ....|E-4 2F.7 ....
....|..|--- .... ....|--- .... ....|--- .... ....
....|..|--- .... ....|--- .... ....|--- .... ....
....|..|--- .... ....|--- .... ....|--- .... ....
....|..|C-3 RF.F ....|G#3 2F3F ....|D#5 2F.F ....
 G#3|..|G#1 2A.F ....|--- .... ....|--- .... ....
....|..|--- .... ....|--- .... ....|--- .... ....
....|..|--- .... ....|--- .... ....|--- .... ....
....|..|--- .... ....|G#3 2F3F ....|F#5 2F.7 ....
....|..|--- .... ....|--- .... ....|--- .... ....
....|..|--- .... ....|--- .... ....|--- .... ....
....|..|--- .... ....|--- .... ....|--- .... ....

[Pattern1]
....|..|C-4 AF.F ....|G#3 2F4F ....|E-4 2F.7 ....
 C#4|..|C#2 2A.F ....|--- .... ....|--- .... ....
....|..|--- .... ....|--- .... ....|--- .... ....
....|..|--- .... ....|--- .... ....|--- .... ....
....|..|--- .... ....|--- .... ....|E-4 2F.7 ....
....|..|--- .... ....|--- .... ....|--- .... ....
....|..|--- .... ....|--- .... ....|--- .... ....
....|..|--- .... ....|--- .... ....|--- .... ....
....|..|C-4 AF.F ....|G#3 2F37 ....|E-5 2F.F ....
 C#4|..|C#2 2A.F ....|--- .... ....|--- .... ....
....|..|--- .... ....|--- .... ....|--- .... ....
....|..|--- .... ....|--- .... ....|--- .... ....
....|..|C-4 CF.7 ....|G#3 2F37 ....|E-4 2F.7 ....
....|..|--- .... ....|--- .... ....|--- .... ....
....|..|--- .... ....|--- .... ....|--- .... ....
....|..|--- .... ....|--- .... ....|--- .... ....
....|..|C-4 CF.F ....|G#3 2F4F ....|D#5 2F.F ....
 C#4|..|C#2 2A.F ....|--- .... ....|--- .... ....
....|..|--- .... ....|--- .... ....|--- .... ....
....|..|--- .... ....|--- .... ....|--- .... ....
....|..|--- .... ....|G#3 2F37 ....|F#5 2F.7 ....
....|..|--- .... ....|--- .... ....|--- .... ....
....|..|--- .... ....|--- .... ....|--- .... ....
....|..|--- .... ....|--- .... ....|--- .... ....
....|..|C-3 RF.F ....|G#3 2F4F ....|B-4 2F.F ....
 C#4|..|C#2 2A.F ....|--- .... ....|--- .... ....
....|..|--- .... ....|--- .... ....|--- .... ....
....|..|--- .... ....|--- .... ....|--- .... ....
....|..|C-4 CF.F ....|G#3 2F4F ....|E-4 2F.7 ....
....|..|--- .... ....|--- .... ....|--- .... ....
....|..|--- .... ....|--- .... ....|--- .... ....
....|..|--- .... ....|--- .... ....|--- .... ....
....|..|C-4 AF.F ....|G#3 2F4F ....|E-5 2F.7 ....
 C#4|..|C#2 2A.F ....|--- .... ....|--- .... ....
....|..|--- .... ....|--- .... ....|--- .... ....
....|..|--- .... ....|--- .... ....|--- .... ....
....|..|--- .... ....|G#3 2F4F ....|--- .... ....
....|..|--- .... ....|--- .... ....|--- .... ....
....|..|--- .... ....|--- .... ....|--- .... ....
....|..|--- .... ....|--- .... ....|--- .... ....
....|..|C-4 AF.F ....|G#3 2F4F ....|C#5 2F.F ....
 C#4|..|C#2 2A.F ....|--- .... ....|--- .... ....
....|..|--- .... ....|--- .... ....|--- .... ....
....|..|--- .... ....|--- .... ....|--- .... ....
....|..|--- .... ....|G#3 2F37 ....|--- .... ....
....|..|--- .... ....|--- .... ....|--- .... ....
....|..|--- .... ....|--- .... ....|--- .... ....
....|..|--- .... ....|--- .... ....|--- .... ....
....|..|C-4 CF.F ....|G#3 2F4F ....|D#5 2F.F ....
 C#4|..|C#2 2A.F ....|--- .... ....|--- .... ....
....|..|--- .... ....|--- .... ....|--- .... ....
....|..|--- .... ....|--- .... ....|--- .... ....
....|..|C-4 CF.A ....|G#3 2F4A ....|--- .... ....
....|..|--- .... ....|--- .... ....|--- .... ....
....|..|--- .... ....|--- .... ....|--- .... ....
....|..|--- .... ....|--- .... ....|--- .... ....
....|..|C-3 RF.F ....|G#3 2F4F ....|E-5 2F.F ....
 C#4|..|C#2 2A.F ....|--- .... ....|--- .... ....
....|..|--- .... ....|--- .... ....|--- .... ....
....|..|--- .... ....|--- .... ....|--- .... ....
....|..|--- .... ....|G#3 2F4F ....|--- .... ....
....|..|--- .... ....|--- .... ....|--- .... ....
....|..|--- .... ....|--- .... ....|--- .... ....
....|..|--- .... ....|--- .... ....|--- .... ....
....|..|C-4 AF.F ....|E-3 2F1F ....|G#5 2F.F ....
 A-3|..|A-1 2A.F ....|--- .... ....|--- .... ....
....|..|--- .... ....|--- .... ....|--- .... ....
....|..|--- .... ....|--- .... ....|--- .... ....
....|..|--- .... ....|--- .... ....|E-4 2F.F ....
....|..|--- .... ....|--- .... ....|--- .... ....
....|..|--- .... ....|--- .... ....|--- .... ....
....|..|--- .... ....|--- .... ....|--- .... ....
....|..|C-4 AF.F ....|G#3 2F47 ....|E-4 2F.F ....
 A-3|..|A-1 2A.F ....|--- .... ....|--- .... ....
....|..|--- .... ....|--- .... ....|--- .... ....
....|..|--- .... ....|--- .... ....|--- .... ....
....|..|C-4 CF.7 ....|G#3 2F47 ....|F#5 2F.F ....
....|..|--- .... ....|--- .... ....|--- .... ....
....|..|--- .... ....|--- .... ....|--- .... ....
....|..|--- .... ....|--- .... ....|--- .... ....
....|..|C-4 CF.F ....|E-3 2F1F ....|E-4 2F.F ....
 A-3|..|A-1 2A.F ....|--- .... ....|--- .... ....
....|..|--- .... ....|--- .... ....|--- .... ....
....|..|--- .... ....|--- .... ....|--- .... ....
....|..|--- .... ....|G#3 2F47 ....|E-4 2F.F ....
....|..|--- .... ....|--- .... ....|--- .... ....
....|..|--- .... ....|--- .... ....|--- .... ....
....|..|--- .... ....|--- .... ....|--- .... ....
....|..|C-3 RF.F ....|E-3 2F1F ....|E-5 2F.F ....
 A-3|..|A-1 2A.F ....|--- .... ....|--- .... ....
....|..|--- .... ....|--- .... ....|--- .... ....
....|..|--- .... ....|--- .... ....|--- .... ....
....|..|C-4 CF.F ....|E-3 2F1F ....|E-4 2F.F ....
....|..|--- .... ....|--- .... ....|--- .... ....
....|..|--- .... ....|--- .... ....|--- .... ....
....|..|--- .... ....|--- .... ....|--- .... ....
....|..|C-4 AF.F ....|E-3 2F1F ....|E-4 2F.F ....
 A-3|..|A-1 2A.F ....|--- .... ....|--- .... ....
....|..|--- .... ....|--- .... ....|--- .... ....
....|..|--- .... ....|--- .... ....|--- .... ....
....|..|--- .... ....|E-3 2F1F ....|F#5 2F.F ....
....|..|--- .... ....|--- .... ....|--- .... ....
....|..|--- .... ....|--- .... ....|--- .... ....
....|..|--- .... ....|--- .... ....|--- .... ....
....|..|C-4 AF.F ....|E-3 2F1F ....|E-4 2F.F ....
 A-3|..|A-1 2A.F ....|--- .... ....|--- .... ....
....|..|--- .... ....|--- .... ....|--- .... ....
....|..|--- .... ....|--- .... ....|--- .... ....
....|..|--- .... ....|G#3 2F47 ....|E-4 2F.F ....
....|..|--- .... ....|--- .... ....|--- .... ....
....|..|--- .... ....|--- .... ....|--- .... ....
....|..|--- .... ....|--- .... ....|--- .... ....
....|..|C-4 CF.F ....|E-3 2F1F ....|E-5 2F.F ....
 A-3|..|A-1 2A.F ....|--- .... ....|--- .... ....
....|..|--- .... ....|--- .... ....|--- .... ....
....|..|--- .... ....|--- .... ....|--- .... ....
....|..|C-4 CF.A ....|E-3 2F1A ....|E-4 2F.7 ....
....|..|--- .... ....|--- .... ....|--- .... ....
....|..|--- .... ....|--- .... ....|--- .... ....
....|..|--- .... ....|--- .... ....|--- .... ....
....|..|C-3 RF.F ....|E-3 2F1F ....|F#5 2F.F ....
 A-3|..|A-1 2A.F ....|--- .... ....|--- .... ....
....|..|--- .... ....|--- .... ....|--- .... ....
....|..|--- .... ....|--- .... ....|--- .... ....
....|..|--- .... ....|E-3 2F1F ....|F#5 2F.7 ....
....|..|--- .... ....|--- .... ....|--- .... ....
....|..|--- .... ....|--- .... ....|--- .... ....
....|..|--- .... ....|--- .... ....|--- .... ....
....|..|C-4 AF.F ....|F#3 2F2F ....|G#5 2F.F ....
 B-3|..|B-1 2A.F ....|--- .... ....|--- .... ....
....|..|--- .... ....|--- .... ....|--- .... ....
....|..|--- .... ....|--- .... ....|--- .... ....
....|..|--- .... ....|--- .... ....|E-4 2F.F ....
....|..|--- .... ....|--- .... ....|--- .... ....
....|..|--- .... ....|--- .... ....|--- .... ....
....|..|--- .... ....|--- .... ....|--- .... ....
....|..|C-4 AF.F ....|E-3 2F17 ....|E-4 2F.F ....
 B-3|..|B-1 2A.F ....|--- .... ....|--- .... ....
....|..|--- .... ....|--- .... ....|--- .... ....
....|..|--- .... ....|--- .... ....|--- .... ....
....|..|C-4 CF.7 ....|E-3 2F17 ....|F#5 2F.F ....
....|..|--- .... ....|--- .... ....|--- .... ....
....|..|--- .... ....|--- .... ....|--- .... ....
....|..|--- .... ....|--- .... ....|--- .... ....
....|..|C-4 CF.F ....|F#3 2F2F ....|E-4 2F.F ....
 B-3|..|B-1 2A.F ....|--- .... ....|--- .... ....
....|..|--- .... ....|--- .... ....|--- .... ....
....|..|--- .... ....|--- .... ....|--- .... ....
....|..|--- .... ....|E-3 2F17 ....|E-4 2F.F ....
....|..|--- .... ....|--- .... ....|--- .... ....
....|..|--- .... ....|--- .... ....|--- .... ....
....|..|--- .... ....|--- .... ....|--- .... ....
....|..|C-3 RF.F ....|F#3 2F2F ....|E-5 2F.F ....
 B-3|..|B-1 2A.F ....|--- .... ....|--- .... ....
....|..|--- .... ....|--- .... ....|--- .... ....
....|..|--- .... ....|--- .... ....|--- .... ....
....|..|C-4 CF.F ....|F#3 2F2F ....|E-4 2F.F ....
....|..|--- .... ....|--- .... ....|--- .... ....
....|..|--- .... ....|--- .... ....|--- .... ....
....|..|--- .... ....|--- .... ....|--- .... ....
....|..|C-4 AF.F ....|F#3 2F2F ....|E-4 2F.F ....
 B-3|..|B-1 2A.F ....|--- .... ....|--- .... ....
....|..|--- .... ....|--- .... ....|--- .... ....
....|..|--- .... ....|--- .... ....|--- .... ....
....|..|--- .... ....|F#3 2F2F ....|F#5 2F.F ....
....|..|--- .... ....|--- .... ....|--- .... ....
....|..|--- .... ....|--- .... ....|--- .... ....
....|..|--- .... ....|--- .... ....|--- .... ....
....|..|C-4 AF.F ....|F#3 2F2F ....|E-4 2F.F ....
 B-3|..|B-1 2A.F ....|--- .... ....|--- .... ....
....|..|--- .... ....|--- .... ....|--- .... ....
....|..|--- .... ....|--- .... ....|--- .... ....
....|..|--- .... ....|E-3 2F17 ....|E-4 2F.F ....
....|..|--- .... ....|--- .... ....|--- .... ....
....|..|--- .... ....|--- .... ....|--- .... ....
....|..|--- .... ....|--- .... ....|--- .... ....
....|..|C-4 CF.F ....|F#3 2F2F ....|E-5 2F.F ....
 B-3|..|B-1 2A.F ....|--- .... ....|--- .... ....
....|..|--- .... ....|--- .... ....|--- .... ....
....|..|--- .... ....|--- .... ....|--- .... ....
....|..|C-4 CF.A ....|F#3 2F2A ....|E-4 2F.7 ....
....|..|--- .... ....|--- .... ....|--- .... ....
....|..|--- .... ....|--- .... ....|--- .... ....
....|..|--- .... ....|--- .... ....|--- .... ....
....|..|C-3 RF.F ....|F#3 2F2F ....|F#5 2F.F ....
 B-3|..|B-1 2A.F ....|--- .... ....|--- .... ....
....|..|--- .... ....|--- .... ....|--- .... ....
....|..|--- .... ....|--- .... ....|--- .... ....
....|..|--- .... ....|F#3 2F2F ....|F#5 2F.7 ....
....|..|--- .... ....|--- .... ....|--- .... ....
....|..|--- .... ....|--- .... ....|--- .... ....
....|..|--- .... ....|--- .... ....|--- .... ....
....|..|C-4 AF.F ....|G#3 2F5F ....|G#5 2F.F ....
 C#4|..|C#2 2A.F ....|--- .... ....|--- .... ....
....|..|--- .... ....|--- .... ....|--- .... ....
....|..|--- .... ....|--- .... ....|F#5 2F.F ....
....|..|--- .... ....|--- .... ....|E-4 2F.7 ....
....|..|--- .... ....|--- .... ....|E-5 2F.F ....
....|..|--- .... ....|--- .... ....|--- .... ....
....|..|--- .... ....|--- .... ....|--- .... ....
....|..|C-4 AF.F ....|F#3 2F27 ....|G#5 2F.F ....
 C#4|..|C#2 2A.F ....|--- .... ....|--- .... ....
....|..|--- .... ....|--- .... ....|--- .... ....
....|..|--- .... ....|--- .... ....|F#5 2F.F ....
....|..|C-4 CF.7 ....|F#3 2F27 ....|E-4 2F.7 ....
....|..|--- .... ....|--- .... ....|E-5 2F.F ....
....|..|--- .... ....|--- .... ....|--- .... ....
....|..|--- .... ....|--- .... ....|--- .... ....
....|..|C-4 CF.F ....|G#3 2F5F ....|G#5 2F.F ....
 C#4|..|C#2 2A.F ....|--- .... ....|--- .... ....
....|..|--- .... ....|--- .... ....|--- .... ....
....|..|--- .... ....|--- .... ....|F#5 2F.F ....
....|..|--- .... ....|F#3 2F27 ....|F#5 2F.7 ....
....|..|--- .... ....|--- .... ....|E-5 2F.F ....
....|..|--- .... ....|--- .... ....|--- .... ....
....|..|--- .... ....|--- .... ....|--- .... ....
....|..|C-3 RF.F ....|F#3 2F27 ....|G#5 2F.F ....
 C#4|..|C#2 2A.F ....|--- .... ....|--- .... ....
....|..|--- .... ....|--- .... ....|--- .... ....
....|..|--- .... ....|--- .... ....|F#5 2F.F ....
....|..|C-4 CF.F ....|--- .... ....|E-4 2F.7 ....
....|..|--- .... ....|--- .... ....|E-5 2F.F ....
....|..|--- .... ....|--- .... ....|--- .... ....
....|..|--- .... ....|--- .... ....|--- .... ....
....|..|C-4 AF.F ....|G#3 2F5F ....|G#5 2F.F ....
 C#4|..|C#2 2A.F ....|--- .... ....|--- .... ....
....|..|--- .... ....|--- .... ....|--- .... ....
....|..|--- .... ....|--- .... ....|F#5 2F.F ....
....|..|--- .... ....|--- .... ....|--- .... ....
....|..|--- .... ....|--- .... ....|E-5 2F.F ....
....|..|--- .... ....|--- .... ....|--- .... ....
....|..|--- .... ....|--- .... ....|--- .... ....
....|..|C-4 AF.F ....|G#3 2F5F ....|G#5 2F.F ....
 C#4|..|C#2 2A.F ....|--- .... ....|--- .... ....
....|..|--- .... ....|--- .... ....|--- .... ....
....|..|--- .... ....|--- .... ....|F#5 2F.F ....
....|..|--- .... ....|F#3 2F27 ....|--- .... ....
....|..|--- .... ....|--- .... ....|E-5 2F.F ....
....|..|--- .... ....|--- .... ....|--- .... ....
....|..|--- .... ....|--- .... ....|--- .... ....
....|..|C-4 CF.F ....|G#3 2F5F ....|G#5 2F.F ....
 C#4|..|C#2 2A.F ....|--- .... ....|--- .... ....
....|..|--- .... ....|--- .... ....|--- .... ....
....|..|--- .... ....|--- .... ....|F#5 2F.F ....
....|..|C-4 CF.A ....|--- .... ....|--- .... ....
....|..|--- .... ....|--- .... ....|E-5 2F.F ....
....|..|--- .... ....|--- .... ....|--- .... ....
....|..|--- .... ....|--- .... ....|--- .... ....
....|..|C-3 RF.F ....|G#3 2F5F ....|G#5 2F.F ....
 C#4|..|C#2 2A.F ....|--- .... ....|--- .... ....
....|..|--- .... ....|--- .... ....|--- .... ....
....|..|--- .... ....|--- .... ....|F#5 2F.F ....
....|..|--- .... ....|G#3 2F5F ....|--- .... ....
 C#4|..|C#3 2C.F ....|--- .... ....|E-5 2F.F ....
....|..|--- .... ....|--- .... ....|--- .... ....
....|..|--- .... ....|--- .... ....|--- .... ....

[Pattern2]
....|..|C-4 AF.F ....|G#3 2F4F ....|G#5 2F.F ....
 C#4|..|C#3 2C.F ....|--- .... ....|--- .... ....
....|..|--- .... ....|--- .... ....|--- .... ....
....|..|--- .... ....|--- .... ....|F#5 2F.F ....
....|..|--- .... ....|--- .... ....|--- .... ....
....|..|--- .... ....|--- .... ....|E-5 2F.F ....
....|..|--- .... ....|--- .... ....|--- .... ....
....|..|--- .... ....|--- .... ....|--- .... ....
....|..|C-4 AF.F ....|G#3 2F5A ....|D#5 2F.F ....
 C#4|..|C#3 2C.F ....|--- .... ....|--- .... ....
....|..|--- .... ....|--- .... ....|--- .... ....
....|..|--- .... ....|--- .... ....|C#5 2F.F ....
....|..|C-4 CF.7 ....|--- .... ....|--- .... ....
....|..|--- .... ....|--- .... ....|B-4 2F.F ....
....|..|--- .... ....|--- .... ....|--- .... ....
....|..|--- .... ....|--- .... ....|--- .... ....
....|..|C-4 CF.F ....|G#3 2F4F ....|G#5 2F.F ....
 C#4|..|C#3 2C.F ....|--- .... ....|--- .... ....
....|..|--- .... ....|--- .... ....|--- .... ....
....|..|--- .... ....|--- .... ....|F#5 2F.F ....
....|..|--- .... ....|G#3 2F5A ....|--- .... ....
....|..|C#3 2F.A ....|--- .... ....|E-5 2F.F ....
....|..|--- .... ....|--- .... ....|--- .... ....
....|..|--- .... ....|--- .... ....|--- .... ....
....|..|C-3 RF.F ....|G#3 2F4F ....|D#5 2F.F ....
 C#4|..|C#3 2C.F ....|--- .... ....|--- .... ....
....|..|--- .... ....|--- .... ....|--- .... ....
....|..|--- .... ....|--- .... ....|C#5 2F.F ....
....|..|C-4 CF.F ....|G#3 2F4F ....|--- .... ....
....|..|--- .... ....|--- .... ....|B-4 2F.F ....
....|..|--- .... ....|--- .... ....|--- .... ....
....|..|--- .... ....|--- .... ....|--- .... ....
....|..|C-4 AF.F ....|G#3 2F4F ....|G#5 2F.F ....
 C#4|..|C#3 2C.F ....|--- .... ....|--- .... ....
....|..|--- .... ....|--- .... ....|--- .... ....
....|..|--- .... ....|--- .... ....|F#5 2F.F ....
....|..|--- .... ....|G#3 2F4F ....|--- .... ....
....|..|--- .... ....|--- .... ....|E-5 2F.F ....
....|..|--- .... ....|--- .... ....|--- .... ....
....|..|--- .... ....|--- .... ....|--- .... ....
....|..|C-4 AF.F ....|G#3 2F4F ....|D#5 2F.F ....
 C#4|..|C#3 2C.F ....|--- .... ....|--- .... ....
....|..|--- .... ....|--- .... ....|--- .... ....
....|..|--- .... ....|--- .... ....|C#5 2F.F ....
....|..|--- .... ....|G#3 2F57 ....|--- .... ....
....|..|C#3 2F.7 ....|--- .... ....|B-4 2F.F ....
....|..|--- .... ....|--- .... ....|--- .... ....
....|..|--- .... ....|--- .... ....|--- .... ....
....|..|C-4 CF.F ....|G#3 2F4F ....|D#5 2F.F ....
 C#4|..|C#3 2C.F ....|--- .... ....|--- .... ....
....|..|--- .... ....|--- .... ....|--- .... ....
....|..|--- .... ....|--- .... ....|F#5 2F.7 ....
....|..|C-4 CF.A ....|G#3 2F4A ....|B-4 2F.F ....
....|..|--- .... ....|--- .... ....|E-5 2F.7 ....
....|..|--- .... ....|--- .... ....|--- .... ....
....|..|--- .... ....|--- .... ....|--- .... ....
....|..|C-3 RF.F ....|G#3 2F4F ....|D#5 2F.7 ....
 C#4|..|C#3 2C.F ....|--- .... ....|--- .... ....
....|..|--- .... ....|--- .... ....|--- .... ....
....|..|--- .... ....|--- .... ....|C#5 2F.7 ....
....|..|--- .... ....|G#3 2F4F ....|--- .... ....
....|..|--- .... ....|--- .... ....|B-4 2F.7 ....
....|..|--- .... ....|--- .... ....|--- .... ....
....|..|--- .... ....|--- .... ....|--- .... ....
....|..|C-4 AF.F ....|E-3 2F1F ....|G#5 2F.F ....
 A-3|..|A-1 2A.F ....|--- .... ....|--- .... ....
....|..|--- .... ....|--- .... ....|--- .... ....
....|..|--- .... ....|--- .... ....|F#5 2F.7 ....
....|..|--- .... ....|--- .... ....|E-4 2F.F ....
....|..|--- .... ....|--- .... ....|E-5 2F.7 ....
....|..|--- .... ....|--- .... ....|--- .... ....
....|..|--- .... ....|--- .... ....|--- .... ....
....|..|C-4 AF.F ....|G#3 2F47 ....|E-4 2F.F ....
 A-3|..|A-1 2A.F ....|--- .... ....|--- .... ....
....|..|--- .... ....|--- .... ....|--- .... ....
....|..|--- .... ....|--- .... ....|C#5 2F.7 ....
....|..|C-4 CF.7 ....|G#3 2F47 ....|F#5 2F.F ....
....|..|--- .... ....|--- .... ....|B-4 2F.7 ....
....|..|--- .... ....|--- .... ....|--- .... ....
....|..|--- .... ....|--- .... ....|--- .... ....
....|..|C-4 CF.F ....|E-3 2F1F ....|E-4 2F.F ....
 A-3|..|A-1 2A.F ....|--- .... ....|--- .... ....
....|..|--- .... ....|--- .... ....|--- .... ....
....|..|--- .... ....|--- .... ....|F#5 2F.7 ....
....|..|--- .... ....|G#3 2F47 ....|E-4 2F.F ....
....|..|--- .... ....|--- .... ....|E-5 2F.7 ....
....|..|--- .... ....|--- .... ....|--- .... ....
....|..|--- .... ....|--- .... ....|--- .... ....
....|..|C-3 RF.F ....|E-3 2F1F ....|E-5 2F.F ....
 A-3|..|A-1 2A.F ....|--- .... ....|--- .... ....
....|..|--- .... ....|--- .... ....|--- .... ....
....|..|--- .... ....|--- .... ....|C#5 2F.7 ....
....|..|C-4 CF.F ....|E-3 2F1F ....|E-4 2F.F ....
....|..|--- .... ....|--- .... ....|B-4 2F.7 ....
....|..|--- .... ....|--- .... ....|--- .... ....
....|..|--- .... ....|--- .... ....|--- .... ....
....|..|C-4 AF.F ....|E-3 2F1F ....|E-4 2F.F ....
 A-3|..|A-1 2A.F ....|--- .... ....|--- .... ....
....|..|--- .... ....|--- .... ....|--- .... ....
....|..|--- .... ....|--- .... ....|--- .... ....
....|..|--- .... ....|E-3 2F1F ....|F#5 2F.F ....
....|..|--- .... ....|--- .... ....|--- .... ....
....|..|--- .... ....|--- .... ....|--- .... ....
....|..|--- .... ....|--- .... ....|--- .... ....
....|..|C-4 AF.F ....|E-3 2F1F ....|E-4 2F.F ....
 A-3|..|A-1 2A.F ....|--- .... ....|--- .... ....
....|..|--- .... ....|--- .... ....|--- .... ....
....|..|--- .... ....|--- .... ....|--- .... ....
....|..|--- .... ....|G#3 2F47 ....|E-4 2F.F ....
....|..|--- .... ....|--- .... ....|--- .... ....
....|..|--- .... ....|--- .... ....|--- .... ....
....|..|--- .... ....|--- .... ....|--- .... ....
....|..|C-4 CF.F ....|E-3 2F1F ....|E-5 2F.F ....
 A-3|..|A-1 2A.F ....|--- .... ....|--- .... ....
....|..|--- .... ....|--- .... ....|--- .... ....
....|..|--- .... ....|--- .... ....|--- .... ....
....|..|C-4 CF.A ....|E-3 2F1A ....|E-4 2F.7 ....
....|..|--- .... ....|--- .... ....|--- .... ....
....|..|--- .... ....|--- .... ....|--- .... ....
....|..|--- .... ....|--- .... ....|--- .... ....
....|..|C-3 RF.F ....|E-3 2F1F ....|F#5 2F.F ....
 A-3|..|A-1 2A.F ....|--- .... ....|--- .... ....
....|..|--- .... ....|--- .... ....|--- .... ....
....|..|--- .... ....|--- .... ....|--- .... ....
....|..|--- .... ....|E-3 2F1F ....|F#5 2F.7 ....
....|..|--- .... ....|--- .... ....|--- .... ....
....|..|--- .... ....|--- .... ....|--- .... ....
....|..|--- .... ....|--- .... ....|--- .... ....
....|..|C-4 AF.F ....|F#3 2F2F ....|G#5 2F.F ....
 B-3|..|B-1 2A.F ....|--- .... ....|--- .... ....
....|..|--- .... ....|--- .... ....|--- .... ....
....|..|--- .... ....|--- .... ....|--- .... ....
....|..|--- .... ....|--- .... ....|E-4 2F.F ....
....|..|--- .... ....|--- .... ....|--- .... ....
....|..|--- .... ....|--- .... ....|--- .... ....
....|..|--- .... ....|--- .... ....|--- .... ....
....|..|C-4 AF.F ....|E-3 2F17 ....|E-4 2F.F ....
 B-3|..|B-1 2A.F ....|--- .... ....|--- .... ....
....|..|--- .... ....|--- .... ....|--- .... ....
....|..|--- .... ....|--- .... ....|--- .... ....
....|..|C-4 CF.7 ....|E-3 2F17 ....|F#5 2F.F ....
....|..|--- .... ....|--- .... ....|--- .... ....
....|..|--- .... ....|--- .... ....|--- .... ....
....|..|--- .... ....|--- .... ....|--- .... ....
....|..|C-4 CF.F ....|F#3 2F2F ....|E-4 2F.F ....
 B-3|..|B-1 2A.F ....|--- .... ....|--- .... ....
....|..|--- .... ....|--- .... ....|--- .... ....
....|..|--- .... ....|--- .... ....|--- .... ....
....|..|--- .... ....|E-3 2F17 ....|E-4 2F.F ....
....|..|--- .... ....|--- .... ....|--- .... ....
....|..|--- .... ....|--- .... ....|--- .... ....
....|..|--- .... ....|--- .... ....|--- .... ....
....|..|C-3 RF.F ....|F#3 2F2F ....|E-5 2F.F ....
 B-3|..|B-1 2A.F ....|--- .... ....|--- .... ....
....|..|--- .... ....|--- .... ....|--- .... ....
....|..|--- .... ....|--- .... ....|--- .... ....
....|..|C-4 CF.F ....|F#3 2F2F ....|E-4 2F.F ....
....|..|--- .... ....|--- .... ....|--- .... ....
....|..|--- .... ....|--- .... ....|--- .... ....
....|..|--- .... ....|--- .... ....|--- .... ....
....|..|C-4 AF.F ....|F#3 2F2F ....|E-4 2F.F ....
 B-3|..|B-1 2A.F ....|--- .... ....|--- .... ....
....|..|--- .... ....|--- .... ....|--- .... ....
....|..|--- .... ....|--- .... ....|--- .... ....
....|..|--- .... ....|F#3 2F2F ....|F#5 2F.F ....
....|..|--- .... ....|--- .... ....|--- .... ....
....|..|--- .... ....|--- .... ....|--- .... ....
....|..|--- .... ....|--- .... ....|--- .... ....
....|..|C-4 AF.F ....|F#3 2F2F ....|E-4 2F.F ....
 B-3|..|B-1 2A.F ....|--- .... ....|--- .... ....
....|..|--- .... ....|--- .... ....|--- .... ....
....|..|--- .... ....|--- .... ....|--- .... ....
....|..|--- .... ....|E-3 2F17 ....|E-4 2F.F ....
....|..|--- .... ....|--- .... ....|--- .... ....
....|..|--- .... ....|--- .... ....|--- .... ....
....|..|--- .... ....|--- .... ....|--- .... ....
....|..|C-4 CF.F ....|F#3 2F2F ....|E-5 2F.F ....
 B-3|..|B-1 2A.F ....|--- .... ....|--- .... ....
....|..|--- .... ....|--- .... ....|--- .... ....
....|..|--- .... ....|--- .... ....|--- .... ....
....|..|C-4 CF.A ....|F#3 2F2A ....|E-4 2F.7 ....
....|..|--- .... ....|--- .... ....|--- .... ....
....|..|--- .... ....|--- .... ....|--- .... ....
....|..|--- .... ....|--- .... ....|--- .... ....
....|..|C-3 RF.F ....|F#3 2F2F ....|F#5 2F.F ....
 B-3|..|B-1 2A.F ....|--- .... ....|--- .... ....
....|..|--- .... ....|--- .... ....|--- .... ....
....|..|--- .... ....|--- .... ....|--- .... ....
....|..|--- .... ....|F#3 2F2F ....|F#5 2F.7 ....
....|..|--- .... ....|--- .... ....|--- .... ....
....|..|--- .... ....|--- .... ....|--- .... ....
....|..|--- .... ....|--- .... ....|--- .... ....
....|..|C-4 AF.F ....|G#3 2F3F ....|B-5 2F.F ....
 G#3|..|G#1 2A.F ....|--- .... ....|--- .... ....
....|..|--- .... ....|--- .... ....|--- .... ....
....|..|--- .... ....|--- .... ....|--- .... ....
....|..|--- .... ....|--- .... ....|E-4 2F.F ....
....|..|--- .... ....|--- .... ....|--- .... ....
....|..|--- .... ....|--- .... ....|--- .... ....
....|..|--- .... ....|--- .... ....|--- .... ....
....|..|C-4 AF.F ....|F#3 2F27 ....|E-4 2F.F ....
 G#3|..|G#1 2A.F ....|--- .... ....|--- .... ....
....|..|--- .... ....|--- .... ....|--- .... ....
....|..|--- .... ....|--- .... ....|--- .... ....
....|..|C-4 CF.7 ....|F#3 2F27 ....|B-5 2F.F ....
....|..|--- .... ....|--- .... ....|--- .... ....
....|..|--- .... ....|--- .... ....|--- .... ....
....|..|--- .... ....|--- .... ....|--- .... ....
....|..|C-4 CF.F ....|G#3 2F3F ....|E-4 2F.F ....
 G#3|..|G#1 2A.F ....|--- .... ....|--- .... ....
....|..|--- .... ....|--- .... ....|--- .... ....
....|..|--- .... ....|--- .... ....|--- .... ....
....|..|--- .... ....|F#3 2F27 ....|E-4 2F.F ....
....|..|--- .... ....|--- .... ....|--- .... ....
....|..|--- .... ....|--- .... ....|--- .... ....
....|..|--- .... ....|--- .... ....|--- .... ....
....|..|C-3 RF.F ....|G#3 2F3F ....|B-5 2F.F ....
 G#3|..|G#1 2A.F ....|--- .... ....|--- .... ....
....|..|--- .... ....|--- .... ....|--- .... ....
....|..|--- .... ....|--- .... ....|--- .... ....
....|..|C-4 CF.F ....|G#3 2F3F ....|E-4 2F.F ....
....|..|--- .... ....|--- .... ....|--- .... ....
....|..|--- .... ....|--- .... ....|--- .... ....
....|..|--- .... ....|--- .... ....|--- .... ....
....|..|C-4 AF.F ....|G#3 2F3F ....|E-4 2F.F ....
 G#3|..|G#1 2A.F ....|--- .... ....|--- .... ....
....|..|--- .... ....|--- .... ....|--- .... ....
....|..|--- .... ....|--- .... ....|--- .... ....
....|..|--- .... ....|G#3 2F3F ....|G#5 2F.F ....
....|..|--- .... ....|--- .... ....|--- .... ....
....|..|--- .... ....|--- .... ....|--- .... ....
....|..|--- .... ....|--- .... ....|--- .... ....
....|..|C-4 AF.F ....|G#3 2F3F ....|E-4 2F.F ....
 G#3|..|G#1 2A.F ....|--- .... ....|--- .... ....
....|..|--- .... ....|--- .... ....|--- .... ....
....|..|--- .... ....|--- .... ....|--- .... ....
....|..|--- .... ....|F#3 2F27 ....|E-4 2F.F ....
....|..|--- .... ....|--- .... ....|--- .... ....
....|..|--- .... ....|--- .... ....|--- .... ....
....|..|--- .... ....|--- .... ....|--- .... ....
....|..|C-4 CF.F ....|G#3 2F3F ....|F#5 2F.F ....
 G#3|..|G#1 2A.F ....|--- .... ....|--- .... ....
....|..|--- .... ....|--- .... ....|--- .... ....
....|..|--- .... ....|--- .... ....|--- .... ....
....|..|C-4 CF.A ....|G#3 2F3A ....|E-4 2F.F ....
....|..|--- .... ....|--- .... ....|--- .... ....
....|..|--- .... ....|--- .... ....|--- .... ....
....|..|--- .... ....|--- .... ....|--- .... ....
....|..|C-3 RF.F ....|G#3 2F3F ....|G#5 2F.F ....
 G#3|..|G#1 2A.F ....|--- .... ....|--- .... ....
....|..|--- .... ....|--- .... ....|--- .... ....
....|..|--- .... ....|--- .... ....|--- .... ....
....|..|--- .... ....|G#3 2F3F ....|E-4 2F.F ....
....|..|--- .... ....|--- .... ....|--- .... ....
....|..|--- .... ....|--- .... ....|--- .... ....
....|..|--- .... ....|--- .... ....|--- .... ....

[Pattern3]
....|..|C-4 AF.F ....|G#3 2F4F ....|F#5 2F.F ....
 C#4|..|C#2 2A.F ....|--- .... ....|--- .... ....
....|..|--- .... ....|--- .... ....|--- .... ....
....|..|--- .... ....|--- .... ....|--- .... ....
....|..|--- .... ....|--- .... ....|E-4 2F.F ....
....|..|--- .... ....|--- .... ....|--- .... ....
....|..|--- .... ....|--- .... ....|--- .... ....
....|..|--- .... ....|--- .... ....|--- .... ....
....|..|C-4 AF.F ....|G#3 2F37 ....|E-4 2F.F ....
 C#4|..|C#2 2A.F ....|--- .... ....|--- .... ....
....|..|--- .... ....|--- .... ....|--- .... ....
....|..|--- .... ....|--- .... ....|--- .... ....
....|..|C-4 CF.7 ....|G#3 2F37 ....|E-5 2F.F ....
....|..|--- .... ....|--- .... ....|--- .... ....
....|..|--- .... ....|--- .... ....|--- .... ....
....|..|--- .... ....|--- .... ....|--- .... ....
....|..|C-4 CF.F ....|G#3 2F4F ....|E-4 2F.F ....
 C#4|..|C#2 2A.F ....|--- .... ....|--- .... ....
....|..|--- .... ....|--- .... ....|--- .... ....
....|..|--- .... ....|--- .... ....|--- .... ....
....|..|--- .... ....|G#3 2F37 ....|E-4 2F.F ....
....|..|--- .... ....|--- .... ....|--- .... ....
....|..|--- .... ....|--- .... ....|--- .... ....
....|..|--- .... ....|--- .... ....|--- .... ....
....|..|C-3 RF.F ....|G#3 2F4F ....|F#5 2F.F ....
 C#4|..|C#2 2A.F ....|--- .... ....|--- .... ....
....|..|--- .... ....|--- .... ....|--- .... ....
....|..|--- .... ....|--- .... ....|--- .... ....
....|..|C-4 CF.F ....|G#3 2F4F ....|E-4 2F.F ....
....|..|--- .... ....|--- .... ....|--- .... ....
....|..|--- .... ....|--- .... ....|--- .... ....
....|..|--- .... ....|--- .... ....|--- .... ....
....|..|C-4 AF.F ....|G#3 2F4F ....|E-4 2F.F ....
 C#4|..|C#2 2A.F ....|--- .... ....|--- .... ....
....|..|--- .... ....|--- .... ....|--- .... ....
....|..|--- .... ....|--- .... ....|--- .... ....
....|..|--- .... ....|G#3 2F4F ....|D#5 2F.F ....
....|..|--- .... ....|--- .... ....|--- .... ....
....|..|--- .... ....|--- .... ....|--- .... ....
....|..|--- .... ....|--- .... ....|--- .... ....
....|..|C-4 AF.F ....|G#3 2F4F ....|E-4 2F.F ....
 C#4|..|C#2 2A.F ....|--- .... ....|--- .... ....
....|..|--- .... ....|--- .... ....|--- .... ....
....|..|--- .... ....|--- .... ....|--- .... ....
....|..|--- .... ....|G#3 2F37 ....|E-4 2F.F ....
....|..|--- .... ....|--- .... ....|--- .... ....
....|..|--- .... ....|--- .... ....|--- .... ....
....|..|--- .... ....|--- .... ....|--- .... ....
....|..|C-4 CF.F ....|G#3 2F4F ....|E-5 2F.F ....
 C#4|..|C#2 2A.F ....|--- .... ....|--- .... ....
....|..|--- .... ....|--- .... ....|--- .... ....
....|..|--- .... ....|--- .... ....|--- .... ....
....|..|C-4 CF.A ....|G#3 2F4A ....|E-4 2F.F ....
....|..|--- .... ....|--- .... ....|--- .... ....
....|..|--- .... ....|--- .... ....|--- .... ....
....|..|--- .... ....|--- .... ....|--- .... ....
....|..|C-3 RF.F ....|G#3 2F4F ....|F#5 2F.F ....
 C#4|..|C#2 2A.F ....|--- .... ....|--- .... ....
....|..|--- .... ....|--- .... ....|--- .... ....
....|..|--- .... ....|--- .... ....|--- .... ....
....|..|--- .... ....|G#3 2F4F ....|E-4 2F.F ....
....|..|--- .... ....|--- .... ....|--- .... ....
....|..|--- .... ....|--- .... ....|--- .... ....
....|..|--- .... ....|--- .... ....|--- .... ....
....|..|C-4 AF.F ....|E-3 2F1F ....|G#5 2F.F ....
 A-3|..|A-1 2A.F ....|--- .... ....|--- .... ....
....|..|--- .... ....|--- .... ....|--- .... ....
....|..|--- .... ....|--- .... ....|--- .... ....
....|..|--- .... ....|--- .... ....|E-4 2F.F ....
....|..|--- .... ....|--- .... ....|--- .... ....
....|..|--- .... ....|--- .... ....|--- .... ....
....|..|--- .... ....|--- .... ....|--- .... ....
....|..|C-4 AF.F ....|G#3 2F47 ....|E-4 2F.F ....
 A-3|..|A-1 2A.F ....|--- .... ....|--- .... ....
....|..|--- .... ....|--- .... ....|--- .... ....
....|..|--- .... ....|--- .... ....|--- .... ....
....|..|C-4 CF.7 ....|G#3 2F47 ....|F#5 2F.F ....
....|..|--- .... ....|--- .... ....|--- .... ....
....|..|--- .... ....|--- .... ....|--- .... ....
....|..|--- .... ....|--- .... ....|--- .... ....
....|..|C-4 CF.F ....|E-3 2F1F ....|E-4 2F.F ....
 A-3|..|A-1 2A.F ....|--- .... ....|--- .... ....
....|..|--- .... ....|--- .... ....|--- .... ....
....|..|--- .... ....|--- .... ....|--- .... ....
....|..|--- .... ....|G#3 2F47 ....|E-4 2F.F ....
....|..|--- .... ....|--- .... ....|--- .... ....
....|..|--- .... ....|--- .... ....|--- .... ....
....|..|--- .... ....|--- .... ....|--- .... ....
....|..|C-3 RF.F ....|E-3 2F1F ....|E-5 2F.F ....
 A-3|..|A-1 2A.F ....|--- .... ....|--- .... ....
....|..|--- .... ....|--- .... ....|--- .... ....
....|..|--- .... ....|--- .... ....|--- .... ....
....|..|C-4 CF.F ....|E-3 2F1F ....|E-4 2F.F ....
....|..|--- .... ....|--- .... ....|--- .... ....
....|..|--- .... ....|--- .... ....|--- .... ....
....|..|--- .... ....|--- .... ....|--- .... ....
....|..|C-4 AF.F ....|E-3 2F1F ....|E-4 2F.F ....
 A-3|..|A-1 2A.F ....|--- .... ....|--- .... ....
....|..|--- .... ....|--- .... ....|--- .... ....
....|..|--- .... ....|--- .... ....|--- .... ....
....|..|--- .... ....|E-3 2F1F ....|F#5 2F.F ....
....|..|--- .... ....|--- .... ....|--- .... ....
....|..|--- .... ....|--- .... ....|--- .... ....
....|..|--- .... ....|--- .... ....|--- .... ....
....|..|C-4 AF.F ....|E-3 2F1F ....|E-4 2F.F ....
 A-3|..|A-1 2A.F ....|--- .... ....|--- .... ....
....|..|--- .... ....|--- .... ....|--- .... ....
....|..|--- .... ....|--- .... ....|--- .... ....
....|..|--- .... ....|G#3 2F47 ....|E-4 2F.F ....
....|..|--- .... ....|--- .... ....|--- .... ....
....|..|--- .... ....|--- .... ....|--- .... ....
....|..|--- .... ....|--- .... ....|--- .... ....
....|..|C-4 CF.F ....|E-3 2F1F ....|E-5 2F.F ....
 A-3|..|A-1 2A.F ....|--- .... ....|--- .... ....
....|..|--- .... ....|--- .... ....|--- .... ....
....|..|--- .... ....|--- .... ....|--- .... ....
....|..|C-4 CF.A ....|E-3 2F1A ....|E-4 2F.7 ....
....|..|--- .... ....|--- .... ....|--- .... ....
....|..|--- .... ....|--- .... ....|--- .... ....
....|..|--- .... ....|--- .... ....|--- .... ....
....|..|C-3 RF.F ....|E-3 2F1F ....|F#5 2F.F ....
 A-3|..|A-1 2A.F ....|--- .... ....|--- .... ....
....|..|--- .... ....|--- .... ....|--- .... ....
....|..|--- .... ....|--- .... ....|--- .... ....
....|..|--- .... ....|E-3 2F1F ....|F#5 2F.7 ....
....|..|--- .... ....|--- .... ....|--- .... ....
....|..|--- .... ....|--- .... ....|--- .... ....
....|..|--- .... ....|--- .... ....|--- .... ....
....|..|C-4 AF.F ....|F#3 2F2F ....|G#5 2F.F ....
 B-3|..|B-1 2A.F ....|--- .... ....|--- .... ....
....|..|--- .... ....|--- .... ....|--- .... ....
....|..|--- .... ....|--- .... ....|--- .... ....
....|..|--- .... ....|--- .... ....|E-4 2F.F ....
....|..|--- .... ....|--- .... ....|--- .... ....
....|..|--- .... ....|--- .... ....|--- .... ....
....|..|--- .... ....|--- .... ....|--- .... ....
....|..|C-4 AF.F ....|E-3 2F17 ....|E-4 2F.F ....
 B-3|..|B-1 2A.F ....|--- .... ....|--- .... ....
....|..|--- .... ....|--- .... ....|--- .... ....
....|..|--- .... ....|--- .... ....|--- .... ....
....|..|C-4 CF.7 ....|E-3 2F17 ....|F#5 2F.F ....
....|..|--- .... ....|--- .... ....|--- .... ....
....|..|--- .... ....|--- .... ....|--- .... ....
....|..|--- .... ....|--- .... ....|--- .... ....
....|..|C-4 CF.F ....|F#3 2F2F ....|E-4 2F.F ....
 B-3|..|B-1 2A.F ....|--- .... ....|--- .... ....
....|..|--- .... ....|--- .... ....|--- .... ....
....|..|--- .... ....|--- .... ....|--- .... ....
....|..|--- .... ....|E-3 2F17 ....|E-4 2F.F ....
....|..|--- .... ....|--- .... ....|--- .... ....
....|..|--- .... ....|--- .... ....|--- .... ....
....|..|--- .... ....|--- .... ....|--- .... ....
....|..|C-3 RF.F ....|F#3 2F2F ....|E-5 2F.F ....
 B-3|..|B-1 2A.F ....|--- .... ....|--- .... ....
....|..|--- .... ....|--- .... ....|--- .... ....
....|..|--- .... ....|--- .... ....|--- .... ....
....|..|C-4 CF.F ....|F#3 2F2F ....|E-4 2F.F ....
....|..|--- .... ....|--- .... ....|--- .... ....
....|..|--- .... ....|--- .... ....|--- .... ....
....|..|--- .... ....|--- .... ....|--- .... ....
....|..|C-4 AF.F ....|F#3 2F2F ....|E-4 2F.F ....
 B-3|..|B-1 2A.F ....|--- .... ....|--- .... ....
....|..|--- .... ....|--- .... ....|--- .... ....
....|..|--- .... ....|--- .... ....|--- .... ....
....|..|--- .... ....|F#3 2F2F ....|F#5 2F.F ....
....|..|--- .... ....|--- .... ....|--- .... ....
....|..|--- .... ....|--- .... ....|--- .... ....
....|..|--- .... ....|--- .... ....|--- .... ....
....|..|C-4 AF.F ....|F#3 2F2F ....|E-4 2F.F ....
 B-3|..|B-1 2A.F ....|--- .... ....|--- .... ....
....|..|--- .... ....|--- .... ....|--- .... ....
....|..|--- .... ....|--- .... ....|--- .... ....
....|..|--- .... ....|E-3 2F17 ....|E-4 2F.F ....
....|..|--- .... ....|--- .... ....|--- .... ....
....|..|--- .... ....|--- .... ....|--- .... ....
....|..|--- .... ....|--- .... ....|--- .... ....
....|..|C-4 CF.F ....|F#3 2F2F ....|E-5 2F.F ....
 B-3|..|B-1 2A.F ....|--- .... ....|--- .... ....
....|..|--- .... ....|--- .... ....|--- .... ....
....|..|--- .... ....|--- .... ....|--- .... ....
....|..|C-4 CF.A ....|F#3 2F2A ....|E-4 2F.7 ....
....|..|--- .... ....|--- .... ....|--- .... ....
....|..|--- .... ....|--- .... ....|--- .... ....
....|..|--- .... ....|--- .... ....|--- .... ....
....|..|C-3 RF.F ....|F#3 2F2F ....|F#5 2F.F ....
 B-3|..|B-1 2A.F ....|--- .... ....|--- .... ....
....|..|--- .... ....|--- .... ....|--- .... ....
....|..|--- .... ....|--- .... ....|--- .... ....
....|..|--- .... ....|F#3 2F2F ....|F#5 2F.7 ....
....|..|--- .... ....|--- .... ....|--- .... ....
....|..|--- .... ....|--- .... ....|--- .... ....
....|..|--- .... ....|--- .... ....|--- .... ....
....|..|C-4 AF.F ....|C#4 2F6F ....|G#5 2F.F ....
 C#4|..|C#2 2A.F ....|--- .... ....|--- .... ....
....|..|--- .... ....|--- .... ....|--- .... ....
....|..|--- .... ....|--- .... ....|F#5 2F.F ....
....|..|--- .... ....|--- .... ....|E-4 2F.7 ....
....|..|--- .... ....|--- .... ....|E-5 2F.F ....
....|..|--- .... ....|--- .... ....|--- .... ....
....|..|--- .... ....|--- .... ....|--- .... ....
....|..|C-4 AF.F ....|F#3 2F27 ....|G#5 2F.F ....
 C#4|..|C#2 2A.F ....|--- .... ....|--- .... ....
....|..|--- .... ....|--- .... ....|--- .... ....
....|..|--- .... ....|--- .... ....|F#5 2F.F ....
....|..|C-4 CF.7 ....|F#3 2F27 ....|E-4 2F.7 ....
....|..|--- .... ....|--- .... ....|E-5 2F.F ....
....|..|--- .... ....|--- .... ....|--- .... ....
....|..|--- .... ....|--- .... ....|--- .... ....
....|..|C-4 CF.F ....|C#4 2F6F ....|G#5 2F.F ....
 C#4|..|C#2 2A.F ....|--- .... ....|--- .... ....
....|..|--- .... ....|--- .... ....|--- .... ....
....|..|--- .... ....|--- .... ....|F#5 2F.F ....
....|..|--- .... ....|F#3 2F27 ....|F#5 2F.7 ....
....|..|--- .... ....|--- .... ....|E-5 2F.F ....
....|..|--- .... ....|--- .... ....|--- .... ....
....|..|--- .... ....|--- .... ....|--- .... ....
....|..|C-3 RF.F ....|C#4 2F6F ....|G#5 2F.F ....
 C#4|..|C#2 2A.F ....|--- .... ....|--- .... ....
....|..|--- .... ....|--- .... ....|--- .... ....
....|..|--- .... ....|--- .... ....|F#5 2F.F ....
....|..|C-4 CF.F ....|--- .... ....|E-4 2F.7 ....
....|..|--- .... ....|--- .... ....|E-5 2F.F ....
....|..|--- .... ....|--- .... ....|--- .... ....
....|..|--- .... ....|--- .... ....|--- .... ....
....|..|C-4 AF.F ....|F#3 2F27 ....|G#5 2F.F ....
 C#4|..|C#2 2A.F ....|--- .... ....|--- .... ....
....|..|--- .... ....|--- .... ....|--- .... ....
....|..|--- .... ....|--- .... ....|F#5 2F.F ....
....|..|--- .... ....|--- .... ....|--- .... ....
....|..|--- .... ....|--- .... ....|E-5 2F.F ....
....|..|--- .... ....|--- .... ....|--- .... ....
....|..|--- .... ....|--- .... ....|--- .... ....
....|..|C-4 AF.F ....|C#4 2F6F ....|G#5 2F.F ....
 C#4|..|C#2 2A.F ....|--- .... ....|--- .... ....
....|..|--- .... ....|--- .... ....|--- .... ....
....|..|--- .... ....|--- .... ....|F#5 2F.F ....
....|..|--- .... ....|F#3 2F27 ....|--- .... ....
....|..|--- .... ....|--- .... ....|E-5 2F.F ....
....|..|--- .... ....|--- .... ....|--- .... ....
....|..|--- .... ....|--- .... ....|--- .... ....
....|..|C-4 CF.F ....|C#4 2F6F ....|G#5 2F.F ....
 C#4|..|C#2 2A.F ....|--- .... ....|--- .... ....
....|..|--- .... ....|--- .... ....|--- .... ....
....|..|--- .... ....|--- .... ....|F#5 2F.F ....
....|..|C-4 CF.A ....|--- .... ....|--- .... ....
....|..|--- .... ....|--- .... ....|E-5 2F.F ....
....|..|--- .... ....|--- .... ....|--- .... ....
....|..|--- .... ....|--- .... ....|--- .... ....
....|..|C-3 RF.F ....|C#4 2F6F ....|G#5 2F.F ....
 C#4|..|C#2 2A.F ....|--- .... ....|--- .... ....
....|..|--- .... ....|--- .... ....|--- .... ....
....|..|--- .... ....|--- .... ....|F#5 2F.F ....
....|..|--- .... ....|C#4 2F6F ....|--- .... ....
 C#4|..|C#3 2C.F ....|--- .... ....|E-5 2F.F ....
....|..|--- .... ....|--- .... ....|--- .... ....
....|..|--- .... ....|--- .... ....|--- .... ....

[Pattern4]
....|..|C-4 AF.F ....|C#4 2F6F ....|F-5 2F.F ....
 C#4|..|C#3 2C.F ....|--- .... ....|--- .... ....
....|..|--- .... ....|--- .... ....|--- .... ....
....|..|--- .... ....|--- .... ....|F#5 2F.7 ....
....|..|--- .... ....|--- .... ....|--- .... ....
....|..|--- .... ....|--- .... ....|E-5 2F.7 ....
....|..|--- .... ....|--- .... ....|--- .... ....
....|..|--- .... ....|--- .... ....|--- .... ....
....|..|C-4 AF.F ....|C#4 2F67 ....|G#5 2F.7 ....
....|..|C#2 2F.7 ....|--- .... ....|--- .... ....
....|..|--- .... ....|--- .... ....|--- .... ....
....|..|--- .... ....|--- .... ....|F#5 2F.7 ....
....|..|C-4 CF.7 ....|--- .... ....|--- .... ....
....|..|--- .... ....|--- .... ....|E-5 2F.7 ....
....|..|--- .... ....|--- .... ....|--- .... ....
....|..|--- .... ....|--- .... ....|--- .... ....
....|..|C-4 CF.F ....|C#4 2F7F ....|G#5 2F.7 ....
....|..|C#2 2F.7 ....|--- .... ....|--- .... ....
....|..|--- .... ....|--- .... ....|--- .... ....
....|..|--- .... ....|--- .... ....|F#5 2F.7 ....
....|..|--- .... ....|C#4 2F6A ....|--- .... ....
....|..|C#3 2F.A ....|--- .... ....|E-5 2F.7 ....
....|..|--- .... ....|--- .... ....|--- .... ....
....|..|--- .... ....|--- .... ....|--- .... ....
....|..|C-3 RF.F ....|C#4 2F67 ....|G#5 2F.7 ....
....|..|C#2 2F.7 ....|--- .... ....|--- .... ....
....|..|--- .... ....|--- .... ....|--- .... ....
....|..|--- .... ....|--- .... ....|F#5 2F.7 ....
....|..|C-4 CF.F ....|--- .... ....|--- .... ....
....|..|--- .... ....|--- .... ....|E-5 2F.7 ....
....|..|--- .... ....|--- .... ....|--- .... ....
....|..|--- .... ....|--- .... ....|--- .... ....
....|..|C-4 AF.F ....|C#4 2F67 ....|C#5 2F.F ....
 C#4|..|C#3 2C.F ....|--- .... ....|--- .... ....
....|..|--- .... ....|--- .... ....|--- .... ....
....|..|--- .... ....|--- .... ....|F#5 2F.7 ....
....|..|--- .... ....|--- .... ....|--- .... ....
....|..|--- .... ....|--- .... ....|E-5 2F.7 ....
....|..|--- .... ....|--- .... ....|--- .... ....
....|..|--- .... ....|--- .... ....|--- .... ....
....|..|C-4 AF.F ....|C#4 2F67 ....|G#5 2F.7 ....
....|..|C#2 2F.7 ....|--- .... ....|--- .... ....
....|..|--- .... ....|--- .... ....|--- .... ....
....|..|--- .... ....|--- .... ....|F#5 2F.7 ....
....|..|--- .... ....|C#4 2F67 ....|--- .... ....
....|..|C#3 2F.7 ....|--- .... ....|E-5 2F.7 ....
....|..|--- .... ....|--- .... ....|--- .... ....
....|..|--- .... ....|--- .... ....|--- .... ....
....|..|C-4 CF.F ....|C#4 2F67 ....|F-5 2F.7 ....
....|..|C#3 2F.7 ....|--- .... ....|--- .... ....
....|..|--- .... ....|--- .... ....|--- .... ....
....|..|--- .... ....|--- .... ....|--- .... ....
....|..|C-4 CF.A ....|--- .... ....|--- .... ....
....|..|--- .... ....|--- .... ....|--- .... ....
....|..|--- .... ....|--- .... ....|--- .... ....
....|..|--- .... ....|--- .... ....|--- .... ....
....|..|C-3 RF.F ....|--- .... ....|C#5 2F.A ....
....|..|C#3 2F.A ....|--- .... ....|--- .... ....
....|..|--- .... ....|--- .... ....|--- .... ....
....|..|--- .... ....|--- .... ....|--- .... ....
....|..|--- .... ....|--- .... ....|--- .... ....
....|..|--- .... ....|--- .... ....|--- .... ....
....|..|--- .... ....|--- .... ....|--- .... ....
....|..|--- .... ....|--- .... ....|--- .... ....
....|..|C-4 AF.F ....|G#3 2F4F ....|R-- .... ....
 C#4|..|C#2 2A.F ....|--- .... ....|--- .... ....
....|..|--- .... ....|--- .... ....|--- .... ....
....|..|--- .... ....|--- .... ....|--- .... ....
....|..|--- .... ....|--- .... ....|--- .... ....
....|..|--- .... ....|--- .... ....|--- .... ....
....|..|--- .... ....|--- .... ....|--- .... ....
....|..|--- .... ....|--- .... ....|--- .... ....
....|..|B-8 JF.F ....|--- .... ....|--- .... ....
....|..|--- .... ....|--- .... ....|--- .... ....
....|..|--- .... ....|--- .... ....|--- .... ....
....|..|--- .... ....|--- .... ....|--- .... ....
....|..|C-4 CF.7 ....|--- .... ....|--- .... ....
....|..|--- .... ....|--- .... ....|--- .... ....
....|..|--- .... ....|--- .... ....|--- .... ....
....|..|--- .... ....|--- .... ....|--- .... ....
....|..|C-4 AF.F ....|--- .... ....|C#5 2F.7 ....
....|..|C#3 2F.7 ....|--- .... ....|--- .... ....
....|..|--- .... ....|--- .... ....|--- .... ....
....|..|--- .... ....|--- .... ....|--- .... ....
....|..|--- .... ....|--- .... ....|--- .... ....
....|..|--- .... ....|--- .... ....|--- .... ....
....|..|--- .... ....|--- .... ....|--- .... ....
....|..|--- .... ....|--- .... ....|--- .... ....
....|..|B-8 JF.F ....|G#3 2F4A ....|R-- .... ....
....|..|C#2 2F.A ....|--- .... ....|--- .... ....
....|..|--- .... ....|--- .... ....|--- .... ....
....|..|--- .... ....|--- .... ....|--- .... ....
....|..|--- .... ....|--- .... ....|--- .... ....
....|..|--- .... ....|--- .... ....|--- .... ....
....|..|--- .... ....|--- .... ....|--- .... ....
....|..|--- .... ....|--- .... ....|--- .... ....
....|..|C-4 AF.F ....|--- .... ....|--- .... ....
....|..|--- .... ....|--- .... ....|--- .... ....
....|..|--- .... ....|--- .... ....|--- .... ....
....|..|--- .... ....|--- .... ....|--- .... ....
....|..|--- .... ....|--- .... ....|--- .... ....
....|..|--- .... ....|--- .... ....|--- .... ....
....|..|--- .... ....|--- .... ....|--- .... ....
....|..|--- .... ....|--- .... ....|--- .... ....
....|..|B-8 JF.F ....|--- .... ....|--- .... ....
....|..|--- .... ....|--- .... ....|--- .... ....
....|..|--- .... ....|--- .... ....|--- .... ....
....|..|--- .... ....|--- .... ....|--- .... ....
....|..|--- .... ....|--- .... ....|--- .... ....
....|..|--- .... ....|--- .... ....|--- .... ....
....|..|--- .... ....|--- .... ....|--- .... ....
....|..|--- .... ....|--- .... ....|--- .... ....
....|..|C-4 AF.F ....|G#3 2F47 ....|R-- .... ....
....|..|C#2 2F.7 ....|--- .... ....|--- .... ....
....|..|--- .... ....|--- .... ....|--- .... ....
....|..|--- .... ....|--- .... ....|--- .... ....
....|..|--- .... ....|--- .... ....|--- .... ....
....|..|--- .... ....|--- .... ....|--- .... ....
....|..|--- .... ....|--- .... ....|--- .... ....
....|..|--- .... ....|--- .... ....|--- .... ....
....|..|B-8 JF.F ....|--- .... ....|--- .... ....
....|..|--- .... ....|--- .... ....|--- .... ....
....|..|--- .... ....|--- .... ....|--- .... ....
....|..|--- .... ....|--- .... ....|--- .... ....
....|..|--- .... ....|--- .... ....|--- .... ....
....|..|--- .... ....|--- .... ....|--- .... ....
....|..|--- .... ....|--- .... ....|--- .... ....
....|..|--- .... ....|--- .... ....|--- .... ....
....|..|C-4 AF.F ....|--- .... ....|--- .... ....
....|..|--- .... ....|--- .... ....|--- .... ....
....|..|--- .... ....|--- .... ....|--- .... ....
....|..|--- .... ....|--- .... ....|--- .... ....
....|..|--- .... ....|--- .... ....|--- .... ....
....|..|--- .... ....|--- .... ....|--- .... ....
....|..|--- .... ....|--- .... ....|--- .... ....
....|..|--- .... ....|--- .... ....|--- .... ....
....|..|B-8 JF.F ....|--- .... ....|--- .... ....
....|..|--- .... ....|--- .... ....|--- .... ....
....|..|--- .... ....|--- .... ....|--- .... ....
....|..|--- .... ....|--- .... ....|--- .... ....
....|..|--- .... ....|--- .... ....|--- .... ....
....|..|--- .... ....|--- .... ....|--- .... ....
....|..|--- .... ....|--- .... ....|--- .... ....
....|..|--- .... ....|--- .... ....|--- .... ....
....|..|C-4 AF.F ....|--- .... ....|--- .... ....
....|..|--- .... ....|--- .... ....|--- .... ....
....|..|--- .... ....|--- .... ....|--- .... ....
....|..|--- .... ....|--- .... ....|--- .... ....
....|..|--- .... ....|--- .... ....|--- .... ....
....|..|--- .... ....|--- .... ....|--- .... ....
....|..|--- .... ....|--- .... ....|--- .... ....
....|..|--- .... ....|--- .... ....|--- .... ....
....|..|B-8 JF.F ....|--- .... ....|--- .... ....
....|..|--- .... ....|--- .... ....|--- .... ....
....|..|--- .... ....|--- .... ....|--- .... ....
....|..|--- .... ....|--- .... ....|--- .... ....
....|..|--- .... ....|--- .... ....|--- .... ....
....|..|--- .... ....|--- .... ....|--- .... ....
....|..|--- .... ....|--- .... ....|--- .... ....
....|..|--- .... ....|--- .... ....|--- .... ....
....|..|C-4 AF.F ....|--- .... ....|--- .... ....
....|..|--- .... ....|--- .... ....|--- .... ....
....|..|--- .... ....|--- .... ....|--- .... ....
....|..|--- .... ....|--- .... ....|--- .... ....
....|..|--- .... ....|--- .... ....|--- .... ....
....|..|--- .... ....|--- .... ....|--- .... ....
....|..|--- .... ....|--- .... ....|--- .... ....
....|..|--- .... ....|--- .... ....|--- .... ....
....|..|B-8 JF.F ....|--- .... ....|--- .... ....
....|..|--- .... ....|--- .... ....|--- .... ....
....|..|--- .... ....|--- .... ....|--- .... ....
....|..|--- .... ....|--- .... ....|--- .... ....
....|..|--- .... ....|--- .... ....|--- .... ....
....|..|--- .... ....|--- .... ....|--- .... ....
....|..|--- .... ....|--- .... ....|--- .... ....
....|..|--- .... ....|--- .... ....|--- .... ....
....|..|C-4 AF.F ....|--- .... ....|--- .... ....
....|..|--- .... ....|--- .... ....|--- .... ....
....|..|--- .... ....|--- .... ....|--- .... ....
....|..|--- .... ....|--- .... ....|--- .... ....
....|..|--- .... ....|--- .... ....|--- .... ....
....|..|--- .... ....|--- .... ....|--- .... ....
....|..|--- .... ....|--- .... ....|--- .... ....
....|..|--- .... ....|--- .... ....|--- .... ....
....|..|B-8 JF.F ....|--- .... ....|--- .... ....
....|..|--- .... ....|--- .... ....|--- .... ....
....|..|--- .... ....|--- .... ....|--- .... ....
....|..|--- .... ....|--- .... ....|--- .... ....
....|..|--- .... ....|--- .... ....|--- .... ....
....|..|--- .... ....|--- .... ....|--- .... ....
....|..|--- .... ....|--- .... ....|--- .... ....
....|..|--- .... ....|--- .... ....|--- .... ....
....|..|C-4 AF.F ....|F#3 2F2F ....|--- .... ....
 B-3|..|B-1 2A.F ....|--- .... ....|--- .... ....
....|..|--- .... ....|--- .... ....|--- .... ....
....|..|--- .... ....|--- .... ....|--- .... ....
....|..|--- .... ....|--- .... ....|--- .... ....
....|..|--- .... ....|--- .... ....|--- .... ....
....|..|--- .... ....|--- .... ....|--- .... ....
....|..|--- .... ....|--- .... ....|--- .... ....
....|..|B-8 JF.F ....|--- .... ....|--- .... ....
....|..|--- .... ....|--- .... ....|--- .... ....
....|..|--- .... ....|--- .... ....|--- .... ....
....|..|--- .... ....|--- .... ....|--- .... ....
....|..|--- .... ....|--- .... ....|--- .... ....
....|..|--- .... ....|--- .... ....|--- .... ....
....|..|--- .... ....|--- .... ....|--- .... ....
....|..|--- .... ....|--- .... ....|--- .... ....
....|..|C-4 AF.F ....|--- .... ....|--- .... ....
....|..|--- .... ....|--- .... ....|--- .... ....
....|..|--- .... ....|--- .... ....|--- .... ....
....|..|--- .... ....|--- .... ....|--- .... ....
....|..|--- .... ....|--- .... ....|--- .... ....
....|..|--- .... ....|--- .... ....|--- .... ....
....|..|--- .... ....|--- .... ....|--- .... ....
....|..|--- .... ....|--- .... ....|--- .... ....
....|..|B-8 JF.F ....|F#3 2F2A ....|--- .... ....
....|..|B-1 2F.A ....|--- .... ....|--- .... ....
....|..|--- .... ....|--- .... ....|--- .... ....
....|..|--- .... ....|--- .... ....|--- .... ....
....|..|B-8 JF.F ....|--- .... ....|--- .... ....
....|..|--- .... ....|--- .... ....|--- .... ....
....|..|--- .... ....|--- .... ....|--- .... ....
....|..|--- .... ....|--- .... ....|--- .... ....
....|..|C-4 AF.F ....|--- .... ....|--- .... ....
....|..|--- .... ....|--- .... ....|--- .... ....
....|..|--- .... ....|--- .... ....|--- .... ....
....|..|--- .... ....|--- .... ....|--- .... ....
....|..|--- .... ....|--- .... ....|--- .... ....
....|..|--- .... ....|--- .... ....|--- .... ....
....|..|--- .... ....|--- .... ....|--- .... ....
....|..|--- .... ....|--- .... ....|--- .... ....
....|..|B-8 JF.F ....|--- .... ....|--- .... ....
....|..|--- .... ....|--- .... ....|--- .... ....
....|..|--- .... ....|--- .... ....|--- .... ....
....|..|--- .... ....|--- .... ....|--- .... ....
....|..|--- .... ....|--- .... ....|--- .... ....
....|..|--- .... ....|--- .... ....|--- .... ....
....|..|--- .... ....|--- .... ....|--- .... ....
....|..|--- .... ....|--- .... ....|--- .... ....
....|..|C-4 AF.F ....|F#3 2F27 ....|--- .... ....
....|..|B-1 2F.7 ....|--- .... ....|--- .... ....
....|..|--- .... ....|--- .... ....|--- .... ....
....|..|--- .... ....|--- .... ....|--- .... ....
....|..|B-8 JF.A ....|--- .... ....|--- .... ....
....|..|--- .... ....|--- .... ....|--- .... ....
....|..|--- .... ....|--- .... ....|--- .... ....
....|..|--- .... ....|--- .... ....|--- .... ....
....|..|B-8 JF.F ....|F#3 2F2F ....|--- .... ....
....|..|--- .... ....|--- .... ....|--- .... ....
....|..|--- .... ....|--- .... ....|--- .... ....
....|..|--- .... ....|--- .... ....|--- .... ....
....|..|--- .... ....|--- .... ....|--- .... ....
....|..|--- .... ....|--- .... ....|--- .... ....
....|..|--- .... ....|--- .... ....|--- .... ....
....|..|--- .... ....|--- .... ....|--- .... ....

[Pattern5]
....|..|C-4 AF.F ....|D#4 2F.F ....|--- .... ....
....|..|--- .... ....|--- .... ....|--- .... ....
....|..|--- .... ....|--- .... ....|--- .... ....
....|..|--- .... ....|--- .... ....|--- .... ....
....|..|--- .... ....|--- .... ....|--- .... ....
....|..|--- .... ....|--- .... ....|--- .... ....
....|..|--- .... ....|--- .... ....|--- .... ....
....|..|--- .... ....|--- .... ....|--- .... ....
....|..|B-8 JF.F ....|B-3 2F8F ....|--- .... ....
....|..|--- .... ....|--- .... ....|--- .... ....
....|..|--- .... ....|--- .... ....|--- .... ....
....|..|--- .... ....|--- .... ....|--- .... ....
....|..|B-8 JF.7 ....|--- .... ....|--- .... ....
....|..|--- .... ....|--- .... ....|--- .... ....
....|..|--- .... ....|--- .... ....|--- .... ....
....|..|--- .... ....|--- .... ....|--- .... ....
....|..|C-4 AF.F ....|F#3 2F2A ....|--- .... ....
....|..|--- .... ....|--- .... ....|--- .... ....
....|..|--- .... ....|--- .... ....|--- .... ....
....|..|--- .... ....|--- .... ....|--- .... ....
....|..|--- .... ....|--- .... ....|--- .... ....
....|..|--- .... ....|--- .... ....|--- .... ....
....|..|--- .... ....|--- .... ....|--- .... ....
....|..|--- .... ....|--- .... ....|--- .... ....
....|..|B-8 JF.F ....|F#3 2F2F ....|--- .... ....
....|..|--- .... ....|--- .... ....|--- .... ....
....|..|--- .... ....|--- .... ....|--- .... ....
....|..|--- .... ....|--- .... ....|--- .... ....
....|..|B-8 JF.F ....|--- .... ....|--- .... ....
....|..|--- .... ....|--- .... ....|--- .... ....
....|..|--- .... ....|--- .... ....|--- .... ....
....|..|--- .... ....|--- .... ....|--- .... ....
....|..|C-4 AF.F ....|B-3 2F8A ....|--- .... ....
....|..|--- .... ....|--- .... ....|--- .... ....
....|..|--- .... ....|--- .... ....|--- .... ....
....|..|--- .... ....|--- .... ....|--- .... ....
....|..|--- .... ....|--- .... ....|--- .... ....
....|..|--- .... ....|--- .... ....|--- .... ....
....|..|--- .... ....|--- .... ....|--- .... ....
....|..|--- .... ....|--- .... ....|--- .... ....
....|..|B-8 JF.F ....|F#3 2F2F ....|--- .... ....
....|..|--- .... ....|--- .... ....|--- .... ....
....|..|--- .... ....|--- .... ....|--- .... ....
....|..|--- .... ....|--- .... ....|--- .... ....
....|..|--- .... ....|--- .... ....|--- .... ....
....|..|--- .... ....|--- .... ....|--- .... ....
....|..|--- .... ....|--- .... ....|--- .... ....
....|..|--- .... ....|--- .... ....|--- .... ....
....|..|C-4 AF.F ....|D-3 2F2F ....|--- .... ....
....|..|--- .... ....|R-- .... ....|--- .... ....
....|..|--- .... ....|--- .... ....|--- .... ....
....|..|--- .... ....|--- .... ....|--- .... ....
....|..|B-8 JF.A ....|--- .... ....|--- .... ....
....|..|--- .... ....|--- .... ....|--- .... ....
....|..|--- .... ....|--- .... ....|--- .... ....
....|..|--- .... ....|--- .... ....|--- .... ....
....|..|C-4 LF.F ....|B-3 2F87 ....|--- .... ....
....|..|--- .... ....|--- .... ....|--- .... ....
....|..|--- .... ....|--- .... ....|--- .... ....
....|..|--- .... ....|--- .... ....|--- .... ....
....|..|--- .... ....|--- .... ....|--- .... ....
....|..|--- .... ....|--- .... ....|--- .... ....
....|..|--- .... ....|--- .... ....|--- .... ....
....|..|--- .... ....|--- .... ....|--- .... ....
....|..|C-4 AF.F ....|E-3 2F2F ....|--- .... ....
 A-3|..|A-1 2A.F ....|--- .... ....|--- .... ....
....|..|--- .... ....|--- .... ....|--- .... ....
....|..|--- .... ....|--- .... ....|--- .... ....
....|..|--- .... ....|--- .... ....|--- .... ....
....|..|--- .... ....|--- .... ....|--- .... ....
....|..|--- .... ....|--- .... ....|--- .... ....
....|..|--- .... ....|--- .... ....|--- .... ....
....|..|B-8 JF.F ....|F#3 2F27 ....|--- .... ....
....|..|--- .... ....|R-- .... ....|--- .... ....
....|..|--- .... ....|--- .... ....|--- .... ....
....|..|--- .... ....|--- .... ....|--- .... ....
....|..|B-8 JF.7 ....|--- .... ....|--- .... ....
....|..|--- .... ....|--- .... ....|--- .... ....
....|..|--- .... ....|--- .... ....|--- .... ....
....|..|--- .... ....|--- .... ....|--- .... ....
....|..|C-4 AF.F ....|--- .... ....|--- .... ....
....|..|--- .... ....|--- .... ....|--- .... ....
....|..|--- .... ....|--- .... ....|--- .... ....
....|..|--- .... ....|--- .... ....|--- .... ....
....|..|--- .... ....|--- .... ....|--- .... ....
....|..|--- .... ....|--- .... ....|--- .... ....
....|..|--- .... ....|--- .... ....|--- .... ....
....|..|--- .... ....|--- .... ....|--- .... ....
....|..|B-8 JF.F ....|F#3 2F27 ....|--- .... ....
....|..|A-1 2F.A ....|--- .... ....|--- .... ....
....|..|--- .... ....|--- .... ....|--- .... ....
....|..|--- .... ....|--- .... ....|--- .... ....
....|..|--- .... ....|--- .... ....|--- .... ....
....|..|--- .... ....|--- .... ....|--- .... ....
....|..|--- .... ....|--- .... ....|--- .... ....
....|..|--- .... ....|--- .... ....|--- .... ....
....|..|C-4 AF.F ....|D-3 2F27 ....|--- .... ....
....|..|--- .... ....|R-- .... ....|--- .... ....
....|..|--- .... ....|--- .... ....|--- .... ....
....|..|--- .... ....|--- .... ....|--- .... ....
....|..|--- .... ....|--- .... ....|--- .... ....
....|..|--- .... ....|--- .... ....|--- .... ....
....|..|--- .... ....|--- .... ....|--- .... ....
....|..|--- .... ....|--- .... ....|--- .... ....
....|..|B-8 JF.F ....|--- .... ....|--- .... ....
....|..|--- .... ....|--- .... ....|--- .... ....
....|..|--- .... ....|--- .... ....|--- .... ....
....|..|--- .... ....|--- .... ....|--- .... ....
....|..|--- .... ....|--- .... ....|--- .... ....
....|..|--- .... ....|--- .... ....|--- .... ....
....|..|--- .... ....|--- .... ....|--- .... ....
....|..|--- .... ....|--- .... ....|--- .... ....
....|..|C-4 AF.F ....|E-3 2F27 ....|--- .... ....
....|..|A-1 2F.7 ....|--- .... ....|--- .... ....
....|..|--- .... ....|--- .... ....|--- .... ....
....|..|--- .... ....|--- .... ....|--- .... ....
....|..|--- .... ....|--- .... ....|--- .... ....
....|..|--- .... ....|--- .... ....|--- .... ....
....|..|--- .... ....|--- .... ....|--- .... ....
....|..|--- .... ....|--- .... ....|--- .... ....
....|..|B-8 JF.F ....|--- .... ....|--- .... ....
....|..|--- .... ....|--- .... ....|--- .... ....
....|..|--- .... ....|--- .... ....|--- .... ....
....|..|--- .... ....|--- .... ....|--- .... ....
....|..|--- .... ....|--- .... ....|--- .... ....
....|..|--- .... ....|--- .... ....|--- .... ....
....|..|--- .... ....|--- .... ....|--- .... ....
....|..|--- .... ....|--- .... ....|--- .... ....
....|..|C-4 AF.F ....|F#3 2F2F ....|--- .... ....
 B-3|..|B-1 2A.F ....|--- .... ....|--- .... ....
....|..|--- .... ....|--- .... ....|--- .... ....
....|..|--- .... ....|--- .... ....|--- .... ....
....|..|--- .... ....|--- .... ....|--- .... ....
....|..|--- .... ....|--- .... ....|--- .... ....
....|..|--- .... ....|--- .... ....|--- .... ....
....|..|--- .... ....|--- .... ....|--- .... ....
....|..|B-8 JF.F ....|--- .... ....|--- .... ....
....|..|--- .... ....|--- .... ....|--- .... ....
....|..|--- .... ....|--- .... ....|--- .... ....
....|..|--- .... ....|--- .... ....|--- .... ....
....|..|--- .... ....|--- .... ....|--- .... ....
....|..|--- .... ....|--- .... ....|--- .... ....
....|..|--- .... ....|--- .... ....|--- .... ....
....|..|--- .... ....|--- .... ....|--- .... ....
....|..|C-4 AF.F ....|--- .... ....|--- .... ....
....|..|--- .... ....|--- .... ....|--- .... ....
....|..|--- .... ....|--- .... ....|--- .... ....
....|..|--- .... ....|--- .... ....|--- .... ....
....|..|--- .... ....|--- .... ....|--- .... ....
....|..|--- .... ....|--- .... ....|--- .... ....
....|..|--- .... ....|--- .... ....|--- .... ....
....|..|--- .... ....|--- .... ....|--- .... ....
....|..|B-8 JF.F ....|F#3 2F2A ....|--- .... ....
....|..|B-1 2F.A ....|--- .... ....|--- .... ....
....|..|--- .... ....|--- .... ....|--- .... ....
....|..|--- .... ....|--- .... ....|--- .... ....
....|..|--- .... ....|--- .... ....|--- .... ....
....|..|--- .... ....|--- .... ....|--- .... ....
....|..|--- .... ....|--- .... ....|--- .... ....
....|..|--- .... ....|--- .... ....|--- .... ....
....|..|C-4 AF.F ....|--- .... ....|--- .... ....
....|..|--- .... ....|--- .... ....|--- .... ....
....|..|--- .... ....|--- .... ....|--- .... ....
....|..|--- .... ....|--- .... ....|--- .... ....
....|..|--- .... ....|--- .... ....|--- .... ....
....|..|--- .... ....|--- .... ....|--- .... ....
....|..|--- .... ....|--- .... ....|--- .... ....
....|..|--- .... ....|--- .... ....|--- .... ....
....|..|B-8 JF.F ....|--- .... ....|--- .... ....
....|..|--- .... ....|--- .... ....|--- .... ....
....|..|--- .... ....|--- .... ....|--- .... ....
....|..|--- .... ....|--- .... ....|--- .... ....
....|..|--- .... ....|--- .... ....|--- .... ....
....|..|--- .... ....|--- .... ....|--- .... ....
....|..|--- .... ....|--- .... ....|--- .... ....
....|..|--- .... ....|--- .... ....|--- .... ....
....|..|C-4 AF.F ....|F#3 2F27 ....|--- .... ....
....|..|B-1 2F.7 ....|--- .... ....|--- .... ....
....|..|--- .... ....|--- .... ....|--- .... ....
....|..|--- .... ....|--- .... ....|--- .... ....
....|..|--- .... ....|--- .... ....|--- .... ....
....|..|--- .... ....|--- .... ....|--- .... ....
....|..|--- .... ....|--- .... ....|--- .... ....
....|..|--- .... ....|--- .... ....|--- .... ....
....|..|B-8 JF.F ....|--- .... ....|--- .... ....
....|..|--- .... ....|--- .... ....|--- .... ....
....|..|--- .... ....|--- .... ....|--- .... ....
....|..|--- .... ....|--- .... ....|--- .... ....
....|..|--- .... ....|--- .... ....|--- .... ....
....|..|--- .... ....|--- .... ....|--- .... ....
....|..|--- .... ....|--- .... ....|--- .... ....
....|..|--- .... ....|--- .... ....|--- .... ....
....|..|C-4 AF.F ....|E-3 2F9F ....|--- .... ....
 E-3|..|E-1 2A.F ....|--- .... ....|--- .... ....
....|..|--- .... ....|--- .... ....|--- .... ....
....|..|--- .... ....|--- .... ....|--- .... ....
....|..|--- .... ....|--- .... ....|--- .... ....
....|..|--- .... ....|--- .... ....|--- .... ....
....|..|--- .... ....|--- .... ....|--- .... ....
....|..|--- .... ....|--- .... ....|--- .... ....
....|..|B-8 JF.F ....|--- .... ....|--- .... ....
....|..|--- .... ....|--- .... ....|--- .... ....
....|..|--- .... ....|--- .... ....|--- .... ....
....|..|--- .... ....|--- .... ....|--- .... ....
....|..|--- .... ....|--- .... ....|--- .... ....
....|..|--- .... ....|--- .... ....|--- .... ....
....|..|--- .... ....|--- .... ....|--- .... ....
....|..|--- .... ....|--- .... ....|--- .... ....
....|..|C-4 AF.F ....|--- .... ....|F-5 2F.F ....
....|..|--- .... ....|--- .... ....|--- .... ....
....|..|--- .... ....|--- .... ....|--- .... ....
....|..|--- .... ....|--- .... ....|--- .... ....
....|..|--- .... ....|--- .... ....|--- .... ....
....|..|--- .... ....|--- .... ....|--- .... ....
....|..|--- .... ....|--- .... ....|--- .... ....
....|..|--- .... ....|--- .... ....|--- .... ....
....|..|B-8 JF.F ....|E-3 2F9A ....|D#5 2F.F ....
....|..|E-1 2F.A ....|--- .... ....|--- .... ....
....|..|--- .... ....|--- .... ....|--- .... ....
....|..|--- .... ....|--- .... ....|--- .... ....
....|..|--- .... ....|--- .... ....|--- .... ....
....|..|--- .... ....|--- .... ....|--- .... ....
....|..|--- .... ....|--- .... ....|--- .... ....
....|..|--- .... ....|--- .... ....|--- .... ....
....|..|C-4 AF.F ....|--- .... ....|--- .... ....
....|..|--- .... ....|--- .... ....|--- .... ....
....|..|--- .... ....|--- .... ....|--- .... ....
....|..|--- .... ....|--- .... ....|--- .... ....
....|..|--- .... ....|--- .... ....|--- .... ....
....|..|--- .... ....|--- .... ....|--- .... ....
....|..|--- .... ....|--- .... ....|--- .... ....
....|..|--- .... ....|--- .... ....|--- .... ....
....|..|B-8 JF.F ....|--- .... ....|F-5 2F.A ....
....|..|--- .... ....|--- .... ....|--- .... ....
....|..|--- .... ....|--- .... ....|--- .... ....
....|..|--- .... ....|--- .... ....|--- .... ....
....|..|--- .... ....|--- .... ....|--- .... ....
....|..|--- .... ....|--- .... ....|--- .... ....
....|..|--- .... ....|--- .... ....|--- .... ....
....|..|--- .... ....|--- .... ....|--- .... ....
....|..|C-4 AF.F ....|E-3 2F97 ....|E-4 2F.F ....
....|..|E-1 2F.7 ....|--- .... ....|--- .... ....
....|..|--- .... ....|--- .... ....|--- .... ....
....|..|--- .... ....|--- .... ....|--- .... ....
....|..|--- .... ....|--- .... ....|--- .... ....
....|..|--- .... ....|--- .... ....|--- .... ....
....|..|--- .... ....|--- .... ....|--- .... ....
....|..|--- .... ....|--- .... ....|--- .... ....
....|..|B-8 JF.F ....|--- .... ....|F#4 2F.F ....
....|..|--- .... ....|--- .... ....|--- .... ....
....|..|--- .... ....|--- .... ....|--- .... ....
....|..|--- .... ....|--- .... ....|--- .... ....
 D#4|..|D#2 2A.F ....|--- .... ....|--- .... ....
....|..|--- .... ....|--- .... ....|--- .... ....
....|..|--- .... ....|--- .... ....|--- .... ....
....|..|--- .... ....|--- .... ....|--- .... ....

[Pattern6]
....|..|C-4 AF.F ....|A#3 2F.F ....|F#4 2F8F ....
 D#4|..|D#2 2A.F ....|--- .... ....|--- .... ....
....|..|--- .... ....|--- .... ....|--- .... ....
....|..|--- .... ....|--- .... ....|--- .... ....
....|..|--- .... ....|--- .... ....|--- .... ....
....|..|--- .... ....|--- .... ....|--- .... ....
....|..|--- .... ....|--- .... ....|--- .... ....
....|..|--- .... ....|--- .... ....|--- .... ....
....|..|B-8 JF.7 ....|--- .... ....|D#5 2F.7 ....
....|..|--- .... ....|--- .... ....|--- .... ....
....|..|--- .... ....|--- .... ....|--- .... ....
....|..|--- .... ....|--- .... ....|--- .... ....
....|..|--- .... ....|--- .... ....|--- .... ....
....|..|--- .... ....|--- .... ....|--- .... ....
....|..|--- .... ....|--- .... ....|--- .... ....
....|..|--- .... ....|--- .... ....|--- .... ....
....|..|C-4 AF.F ....|D#4 2F3F ....|F#4 2F8F ....
....|..|--- .... ....|--- .... ....|--- .... ....
....|..|--- .... ....|--- .... ....|--- .... ....
....|..|--- .... ....|--- .... ....|--- .... ....
....|..|D#2 2F.A ....|--- .... ....|--- .... ....
....|..|--- .... ....|--- .... ....|--- .... ....
....|..|--- .... ....|--- .... ....|--- .... ....
....|..|--- .... ....|--- .... ....|--- .... ....
....|..|C-4 LF.F ....|A#3 2F4F ....|F#4 2F8A ....
....|..|D#2 2F.A ....|--- .... ....|--- .... ....
....|..|--- .... ....|--- .... ....|--- .... ....
....|..|--- .... ....|--- .... ....|--- .... ....
....|..|--- .... ....|--- .... ....|--- .... ....
....|..|--- .... ....|--- .... ....|--- .... ....
....|..|--- .... ....|--- .... ....|--- .... ....
....|..|--- .... ....|--- .... ....|--- .... ....
....|..|C-4 AF.F ....|D#3 2FAF ....|E-4 2F.7 ....
 G#3|..|G#1 2A.F ....|--- .... ....|--- .... ....
....|..|--- .... ....|--- .... ....|--- .... ....
....|..|--- .... ....|--- .... ....|--- .... ....
....|..|--- .... ....|--- .... ....|--- .... ....
....|..|--- .... ....|--- .... ....|--- .... ....
....|..|--- .... ....|--- .... ....|--- .... ....
....|..|--- .... ....|--- .... ....|--- .... ....
....|..|C-3 RF.F ....|D#4 2F3A ....|F#4 2F.7 ....
....|..|--- .... ....|--- .... ....|--- .... ....
....|..|--- .... ....|--- .... ....|--- .... ....
....|..|--- .... ....|--- .... ....|--- .... ....
....|..|C-3 RF.F ....|--- .... ....|--- .... ....
....|..|--- .... ....|--- .... ....|--- .... ....
....|..|--- .... ....|--- .... ....|--- .... ....
....|..|--- .... ....|--- .... ....|--- .... ....
....|..|C-4 AF.F ....|B-3 2F1F ....|F#4 2F87 ....
....|..|D#2 2F.7 ....|--- .... ....|--- .... ....
....|..|--- .... ....|--- .... ....|--- .... ....
....|..|--- .... ....|--- .... ....|--- .... ....
....|..|--- .... ....|--- .... ....|--- .... ....
....|..|--- .... ....|--- .... ....|--- .... ....
....|..|--- .... ....|--- .... ....|--- .... ....
....|..|--- .... ....|--- .... ....|--- .... ....
....|..|R-- .... ....|B-3 2F1F ....|R-- .... ....
....|..|G#1 2F.A ....|--- .... ....|--- .... ....
....|..|--- .... ....|--- .... ....|--- .... ....
....|..|--- .... ....|--- .... ....|--- .... ....
....|..|--- .... ....|--- .... ....|--- .... ....
....|..|--- .... ....|--- .... ....|--- .... ....
....|..|--- .... ....|--- .... ....|--- .... ....
....|..|--- .... ....|--- .... ....|--- .... ....
....|..|C-4 AF.F ....|C#3 2F.F ....|E-4 2F.F ....
 C#4|..|C#2 2A.F ....|--- .... ....|--- .... ....
....|..|--- .... ....|--- .... ....|--- .... ....
....|..|--- .... ....|--- .... ....|--- .... ....
....|..|C-3 RF.A ....|--- .... ....|--- .... ....
....|..|--- .... ....|--- .... ....|--- .... ....
....|..|--- .... ....|R-- .... ....|R-- .... ....
....|..|--- .... ....|--- .... ....|--- .... ....
 C#4|..|C#2 2A.F ....|C#3 2F.F ....|E-4 2F.F ....
....|..|--- .... ....|--- .... ....|--- .... ....
....|..|--- .... ....|--- .... ....|--- .... ....
....|..|--- .... ....|--- .... ....|--- .... ....
....|..|--- .... ....|--- .... ....|--- .... ....
....|..|--- .... ....|--- .... ....|--- .... ....
....|..|--- .... ....|R-- .... ....|R-- .... ....
....|..|--- .... ....|--- .... ....|--- .... ....
....|..|C-4 AF.F ....|G#3 2F4F ....|E-4 2F.F ....
 C#4|..|C#2 2A.F ....|--- .... ....|--- .... ....
....|..|--- .... ....|--- .... ....|--- .... ....
....|..|--- .... ....|--- .... ....|--- .... ....
....|..|--- .... ....|--- .... ....|--- .... ....
....|..|--- .... ....|--- .... ....|--- .... ....
....|..|--- .... ....|--- .... ....|R-- .... ....
....|..|--- .... ....|--- .... ....|--- .... ....
 C#4|..|C#2 2A.F ....|C#3 2F.F ....|E-4 2F.F ....
....|..|C#2 2F.A ....|--- .... ....|--- .... ....
....|..|--- .... ....|--- .... ....|--- .... ....
....|..|--- .... ....|--- .... ....|--- .... ....
....|..|C-3 RF.7 ....|--- .... ....|--- .... ....
....|..|--- .... ....|--- .... ....|--- .... ....
....|..|--- .... ....|R-- .... ....|R-- .... ....
....|..|--- .... ....|--- .... ....|--- .... ....
....|..|C-4 AF.F ....|C#3 2F.F ....|E-4 2F.F ....
 C#4|..|C#2 2A.F ....|--- .... ....|--- .... ....
....|..|--- .... ....|--- .... ....|--- .... ....
....|..|--- .... ....|--- .... ....|--- .... ....
....|..|--- .... ....|--- .... ....|--- .... ....
....|..|--- .... ....|--- .... ....|--- .... ....
....|..|--- .... ....|R-- .... ....|R-- .... ....
....|..|--- .... ....|--- .... ....|--- .... ....
 C#4|..|C#2 2A.F ....|G#3 2F4F ....|E-4 2F.F ....
....|..|C#2 2F.A ....|--- .... ....|--- .... ....
....|..|--- .... ....|--- .... ....|--- .... ....
....|..|--- .... ....|--- .... ....|--- .... ....
....|..|--- .... ....|--- .... ....|--- .... ....
....|..|--- .... ....|--- .... ....|--- .... ....
....|..|--- .... ....|--- .... ....|R-- .... ....
....|..|--- .... ....|--- .... ....|--- .... ....
....|..|C-4 AF.F ....|G#3 2F4F ....|E-4 2F.F ....
 C#4|..|C#2 2A.F ....|--- .... ....|--- .... ....
....|..|--- .... ....|--- .... ....|--- .... ....
....|..|--- .... ....|--- .... ....|--- .... ....
....|..|--- .... ....|--- .... ....|--- .... ....
....|..|--- .... ....|--- .... ....|--- .... ....
....|..|--- .... ....|R-- .... ....|R-- .... ....
....|..|--- .... ....|--- .... ....|--- .... ....
 C#4|..|C#2 2A.F ....|G#3 2F4F ....|E-4 2F.F ....
....|..|C#2 2F.A ....|--- .... ....|--- .... ....
....|..|--- .... ....|--- .... ....|--- .... ....
....|..|--- .... ....|--- .... ....|--- .... ....
....|..|--- .... ....|--- .... ....|--- .... ....
....|..|--- .... ....|--- .... ....|--- .... ....
....|..|--- .... ....|R-- .... ....|R-- .... ....
....|..|--- .... ....|--- .... ....|--- .... ....
....|..|C-4 AF.F ....|C#3 2F.F ....|E-4 2F.F ....
 C#4|..|C#2 2A.F ....|--- .... ....|--- .... ....
....|..|--- .... ....|--- .... ....|--- .... ....
....|..|--- .... ....|--- .... ....|--- .... ....
....|..|--- .... ....|--- .... ....|--- .... ....
....|..|--- .... ....|--- .... ....|--- .... ....
....|..|--- .... ....|R-- .... ....|R-- .... ....
....|..|--- .... ....|--- .... ....|--- .... ....
 C#4|..|C#2 2A.F ....|C#3 2F.F ....|E-4 2F.F ....
....|..|C#2 2F.A ....|--- .... ....|--- .... ....
....|..|--- .... ....|--- .... ....|--- .... ....
....|..|--- .... ....|--- .... ....|--- .... ....
....|..|--- .... ....|--- .... ....|--- .... ....
....|..|--- .... ....|--- .... ....|--- .... ....
....|..|--- .... ....|R-- .... ....|R-- .... ....
....|..|--- .... ....|--- .... ....|--- .... ....
....|..|C-4 AF.F ....|G#3 2F4F ....|E-4 2F.F ....
 C#4|..|C#2 2A.F ....|--- .... ....|--- .... ....
....|..|--- .... ....|--- .... ....|--- .... ....
....|..|--- .... ....|--- .... ....|--- .... ....
....|..|--- .... ....|--- .... ....|--- .... ....
....|..|--- .... ....|--- .... ....|--- .... ....
....|..|--- .... ....|R-- .... ....|R-- .... ....
....|..|--- .... ....|--- .... ....|--- .... ....
....|..|B-8 JF.F ....|C#3 2F.F ....|E-4 2F.F ....
 C#4|..|C#2 2A.F ....|--- .... ....|--- .... ....
....|..|--- .... ....|--- .... ....|--- .... ....
....|..|--- .... ....|--- .... ....|--- .... ....
....|..|B-8 JF.F ....|--- .... ....|--- .... ....
....|..|--- .... ....|--- .... ....|--- .... ....
....|..|--- .... ....|R-- .... ....|R-- .... ....
....|..|--- .... ....|--- .... ....|--- .... ....
....|..|C-4 AF.F ....|C#3 2F.F ....|E-4 2F.F ....
 C#4|..|C#2 2A.F ....|--- .... ....|--- .... ....
....|..|--- .... ....|--- .... ....|--- .... ....
....|..|--- .... ....|--- .... ....|--- .... ....
....|..|--- .... ....|--- .... ....|--- .... ....
....|..|--- .... ....|--- .... ....|--- .... ....
....|..|--- .... ....|R-- .... ....|R-- .... ....
....|..|--- .... ....|--- .... ....|--- .... ....
 C#4|..|C#2 2A.F ....|G#3 2F4F ....|E-4 2F.F ....
....|..|C#2 2F.A ....|--- .... ....|--- .... ....
....|..|--- .... ....|--- .... ....|--- .... ....
....|..|--- .... ....|--- .... ....|--- .... ....
....|..|--- .... ....|--- .... ....|--- .... ....
....|..|--- .... ....|--- .... ....|--- .... ....
....|..|--- .... ....|--- .... ....|R-- .... ....
....|..|--- .... ....|--- .... ....|--- .... ....
....|..|C-4 AF.F ....|G#3 2F4F ....|E-4 2F.F ....
 C#4|..|C#2 2A.F ....|--- .... ....|--- .... ....
....|..|--- .... ....|--- .... ....|--- .... ....
....|..|--- .... ....|--- .... ....|--- .... ....
....|..|B-8 JF.A ....|--- .... ....|--- .... ....
....|..|--- .... ....|--- .... ....|--- .... ....
....|..|--- .... ....|R-- .... ....|R-- .... ....
....|..|--- .... ....|--- .... ....|--- .... ....
 C#4|..|C#2 2A.F ....|C#3 2F.F ....|E-4 2F.F ....
....|..|C#2 2F.A ....|--- .... ....|--- .... ....
....|..|--- .... ....|--- .... ....|--- .... ....
....|..|--- .... ....|--- .... ....|--- .... ....
....|..|--- .... ....|--- .... ....|--- .... ....
....|..|--- .... ....|--- .... ....|--- .... ....
....|..|--- .... ....|R-- .... ....|R-- .... ....
....|..|--- .... ....|--- .... ....|--- .... ....
....|..|C-4 AF.F ....|B-2 2F.F ....|D#4 2F.F ....
 B-3|..|B-1 2A.F ....|--- .... ....|--- .... ....
....|..|--- .... ....|--- .... ....|--- .... ....
....|..|--- .... ....|--- .... ....|--- .... ....
....|..|--- .... ....|--- .... ....|--- .... ....
....|..|--- .... ....|--- .... ....|--- .... ....
....|..|--- .... ....|R-- .... ....|R-- .... ....
....|..|--- .... ....|--- .... ....|--- .... ....
....|..|B-8 JF.F ....|B-2 2F.F ....|D#4 2F.F ....
 B-3|..|B-1 2A.F ....|--- .... ....|--- .... ....
....|..|--- .... ....|--- .... ....|--- .... ....
....|..|--- .... ....|--- .... ....|--- .... ....
....|..|B-8 JF.7 ....|--- .... ....|--- .... ....
....|..|--- .... ....|--- .... ....|--- .... ....
....|..|--- .... ....|R-- .... ....|R-- .... ....
....|..|--- .... ....|--- .... ....|--- .... ....
....|..|C-4 AF.F ....|F#3 2F2F ....|D#4 2F.F ....
 B-3|..|B-1 2A.F ....|--- .... ....|--- .... ....
....|..|--- .... ....|--- .... ....|--- .... ....
....|..|--- .... ....|--- .... ....|--- .... ....
....|..|--- .... ....|--- .... ....|--- .... ....
....|..|--- .... ....|--- .... ....|--- .... ....
....|..|--- .... ....|R-- .... ....|R-- .... ....
....|..|--- .... ....|--- .... ....|--- .... ....
....|..|B-8 JF.F ....|B-2 2F.F ....|D#4 2F.F ....
 B-3|..|B-1 2A.F ....|--- .... ....|--- .... ....
....|..|--- .... ....|--- .... ....|--- .... ....
....|..|--- .... ....|--- .... ....|--- .... ....
....|..|--- .... ....|--- .... ....|--- .... ....
....|..|--- .... ....|--- .... ....|--- .... ....
....|..|--- .... ....|R-- .... ....|R-- .... ....
....|..|--- .... ....|--- .... ....|--- .... ....
....|..|C-4 AF.F ....|B-2 2F.F ....|D#4 2F.F ....
 B-3|..|B-1 2A.F ....|--- .... ....|--- .... ....
....|..|--- .... ....|--- .... ....|--- .... ....
....|..|--- .... ....|--- .... ....|--- .... ....
....|..|--- .... ....|--- .... ....|--- .... ....
....|..|--- .... ....|--- .... ....|--- .... ....
....|..|--- .... ....|R-- .... ....|R-- .... ....
....|..|--- .... ....|--- .... ....|--- .... ....
....|..|B-8 JF.F ....|F#3 2F2F ....|D#4 2F.F ....
 B-3|..|B-1 2A.F ....|--- .... ....|--- .... ....
....|..|--- .... ....|--- .... ....|--- .... ....
....|..|--- .... ....|--- .... ....|--- .... ....
....|..|--- .... ....|--- .... ....|--- .... ....
....|..|--- .... ....|--- .... ....|--- .... ....
....|..|--- .... ....|R-- .... ....|R-- .... ....
....|..|--- .... ....|--- .... ....|--- .... ....
....|..|C-4 AF.F ....|B-2 2F.F ....|D#4 2F.F ....
 B-3|..|B-1 2A.F ....|--- .... ....|--- .... ....
....|..|--- .... ....|--- .... ....|--- .... ....
....|..|--- .... ....|--- .... ....|R-- .... ....
....|..|--- .... ....|--- .... ....|E-4 2F.F ....
....|..|--- .... ....|--- .... ....|--- .... ....
....|..|--- .... ....|R-- .... ....|R-- .... ....
....|..|--- .... ....|--- .... ....|R-- .... ....
....|..|B-8 JF.F ....|F#3 2F2F ....|D#4 2F.F ....
 B-3|..|B-1 2A.F ....|--- .... ....|--- .... ....
....|..|--- .... ....|--- .... ....|--- .... ....
....|..|--- .... ....|--- .... ....|R-- .... ....
....|..|--- .... ....|--- .... ....|E-4 2F.F ....
....|..|--- .... ....|--- .... ....|--- .... ....
....|..|--- .... ....|R-- .... ....|R-- .... ....
....|..|--- .... ....|--- .... ....|R-- .... ....

[Pattern7]
....|..|C-4 AF.F ....|B-2 2F.F ....|D#4 2F.F ....
 B-3|..|B-1 2A.F ....|--- .... ....|--- .... ....
....|..|--- .... ....|--- .... ....|--- .... ....
....|..|--- .... ....|--- .... ....|--- .... ....
....|..|--- .... ....|--- .... ....|E-4 2F.F ....
....|..|--- .... ....|--- .... ....|--- .... ....
....|..|--- .... ....|R-- .... ....|R-- .... ....
....|..|--- .... ....|--- .... ....|--- .... ....
....|..|B-8 JF.F ....|B-2 2F.F ....|D#4 2F.F ....
 B-3|..|B-1 2A.F ....|--- .... ....|--- .... ....
....|..|--- .... ....|--- .... ....|--- .... ....
....|..|--- .... ....|--- .... ....|R-- .... ....
....|..|--- .... ....|--- .... ....|E-4 2F.F ....
....|..|--- .... ....|--- .... ....|--- .... ....
....|..|--- .... ....|R-- .... ....|R-- .... ....
....|..|--- .... ....|--- .... ....|R-- .... ....
....|..|C-4 AF.F ....|B-2 2F.F ....|D#4 2F.F ....
 B-3|..|B-1 2A.F ....|--- .... ....|--- .... ....
....|..|--- .... ....|--- .... ....|--- .... ....
....|..|--- .... ....|--- .... ....|R-- .... ....
....|..|--- .... ....|--- .... ....|E-4 2F.F ....
....|..|--- .... ....|--- .... ....|--- .... ....
....|..|--- .... ....|R-- .... ....|R-- .... ....
....|..|--- .... ....|--- .... ....|R-- .... ....
....|..|B-8 JF.F ....|B-2 2F.F ....|D#4 2F.F ....
 B-3|..|B-1 2A.F ....|--- .... ....|--- .... ....
....|..|--- .... ....|--- .... ....|--- .... ....
....|..|--- .... ....|--- .... ....|--- .... ....
....|..|B-8 JF.F ....|--- .... ....|E-4 2F.F ....
....|..|--- .... ....|--- .... ....|--- .... ....
....|..|--- .... ....|R-- .... ....|R-- .... ....
....|..|--- .... ....|--- .... ....|--- .... ....
....|..|C-4 AF.F ....|B-2 2F.F ....|D#4 2F.F ....
 B-3|..|B-1 2A.F ....|--- .... ....|--- .... ....
....|..|--- .... ....|--- .... ....|--- .... ....
....|..|--- .... ....|--- .... ....|R-- .... ....
....|..|--- .... ....|--- .... ....|E-4 2F.F ....
....|..|--- .... ....|--- .... ....|--- .... ....
....|..|--- .... ....|R-- .... ....|--- .... ....
....|..|--- .... ....|--- .... ....|R-- .... ....
....|..|B-8 JF.F ....|F#3 2F2F ....|D#4 2F.F ....
 B-3|..|B-1 2A.F ....|--- .... ....|--- .... ....
....|..|--- .... ....|--- .... ....|--- .... ....
....|..|--- .... ....|--- .... ....|R-- .... ....
....|..|--- .... ....|--- .... ....|E-4 2F.F ....
....|..|--- .... ....|--- .... ....|--- .... ....
....|..|--- .... ....|R-- .... ....|--- .... ....
....|..|--- .... ....|--- .... ....|R-- .... ....
....|..|C-4 AF.F ....|F#3 2F2F ....|D#4 2F.F ....
 B-3|..|B-1 2A.F ....|--- .... ....|--- .... ....
....|..|--- .... ....|--- .... ....|--- .... ....
....|..|--- .... ....|--- .... ....|--- .... ....
....|..|B-8 JF.A ....|--- .... ....|E-4 2F.F ....
....|..|--- .... ....|--- .... ....|--- .... ....
....|..|--- .... ....|R-- .... ....|--- .... ....
....|..|--- .... ....|--- .... ....|--- .... ....
....|..|B-8 JF.F ....|F#3 2F2F ....|D#4 2F.F ....
 B-3|..|B-1 2A.F ....|--- .... ....|--- .... ....
....|..|--- .... ....|--- .... ....|--- .... ....
....|..|--- .... ....|--- .... ....|--- .... ....
....|..|--- .... ....|--- .... ....|E-4 2F.F ....
....|..|--- .... ....|--- .... ....|--- .... ....
....|..|--- .... ....|R-- .... ....|--- .... ....
....|..|--- .... ....|--- .... ....|--- .... ....
....|..|C-4 AF.F ....|A-2 2F.F ....|E-4 2F.F ....
 A-3|..|A-1 2A.F ....|--- .... ....|--- .... ....
....|..|--- .... ....|--- .... ....|--- .... ....
....|..|--- .... ....|--- .... ....|--- .... ....
....|..|--- .... ....|--- .... ....|E-4 2F.7 ....
....|..|--- .... ....|--- .... ....|--- .... ....
....|..|--- .... ....|R-- .... ....|R-- .... ....
....|..|--- .... ....|--- .... ....|--- .... ....
....|..|B-8 JF.F ....|A-2 2F.F ....|E-4 2F.F ....
 A-3|..|A-1 2A.F ....|--- .... ....|--- .... ....
....|..|--- .... ....|--- .... ....|--- .... ....
....|..|--- .... ....|--- .... ....|--- .... ....
....|..|B-8 JF.7 ....|--- .... ....|E-4 2F.7 ....
....|..|--- .... ....|--- .... ....|--- .... ....
....|..|--- .... ....|R-- .... ....|R-- .... ....
....|..|--- .... ....|--- .... ....|--- .... ....
....|..|C-4 AF.F ....|E-3 2F2F ....|E-4 2F.F ....
 A-3|..|A-1 2A.F ....|--- .... ....|--- .... ....
....|..|--- .... ....|--- .... ....|--- .... ....
....|..|--- .... ....|--- .... ....|--- .... ....
....|..|--- .... ....|--- .... ....|E-4 2F.7 ....
....|..|--- .... ....|--- .... ....|--- .... ....
....|..|--- .... ....|R-- .... ....|--- .... ....
....|..|--- .... ....|--- .... ....|--- .... ....
....|..|B-8 JF.F ....|A-2 2F.F ....|E-4 2F.F ....
 A-3|..|A-1 2A.F ....|--- .... ....|--- .... ....
....|..|--- .... ....|--- .... ....|--- .... ....
....|..|--- .... ....|--- .... ....|--- .... ....
....|..|--- .... ....|--- .... ....|E-4 2F.7 ....
....|..|--- .... ....|--- .... ....|--- .... ....
....|..|--- .... ....|R-- .... ....|R-- .... ....
....|..|--- .... ....|--- .... ....|--- .... ....
....|..|C-4 AF.F ....|A-2 2F.F ....|E-4 2F.F ....
 A-3|..|A-1 2A.F ....|--- .... ....|--- .... ....
....|..|--- .... ....|--- .... ....|--- .... ....
....|..|--- .... ....|--- .... ....|--- .... ....
....|..|--- .... ....|--- .... ....|E-4 2F.7 ....
....|..|--- .... ....|--- .... ....|--- .... ....
....|..|--- .... ....|R-- .... ....|R-- .... ....
....|..|--- .... ....|--- .... ....|--- .... ....
....|..|B-8 JF.F ....|E-3 2F2F ....|E-4 2F.F ....
 A-3|..|A-1 2A.F ....|--- .... ....|--- .... ....
....|..|--- .... ....|--- .... ....|--- .... ....
....|..|--- .... ....|--- .... ....|--- .... ....
....|..|--- .... ....|--- .... ....|E-4 2F.7 ....
....|..|--- .... ....|--- .... ....|--- .... ....
....|..|--- .... ....|--- .... ....|--- .... ....
....|..|--- .... ....|--- .... ....|--- .... ....
....|..|C-4 AF.F ....|E-3 2F2F ....|E-4 2F.F ....
 A-3|..|A-1 2A.F ....|--- .... ....|--- .... ....
....|..|--- .... ....|--- .... ....|--- .... ....
....|..|--- .... ....|--- .... ....|--- .... ....
....|..|--- .... ....|--- .... ....|--- .... ....
....|..|--- .... ....|--- .... ....|--- .... ....
....|..|--- .... ....|R-- .... ....|R-- .... ....
....|..|--- .... ....|--- .... ....|--- .... ....
....|..|B-8 JF.F ....|E-3 2F2F ....|E-4 2F.F ....
 A-3|..|A-1 2A.F ....|--- .... ....|--- .... ....
....|..|--- .... ....|--- .... ....|--- .... ....
....|..|--- .... ....|--- .... ....|--- .... ....
....|..|--- .... ....|--- .... ....|--- .... ....
....|..|--- .... ....|--- .... ....|--- .... ....
....|..|--- .... ....|R-- .... ....|R-- .... ....
....|..|--- .... ....|--- .... ....|--- .... ....
....|..|C-4 AF.F ....|B-2 2F.F ....|D#4 2F.F ....
 B-3|..|B-1 2A.F ....|--- .... ....|--- .... ....
....|..|--- .... ....|--- .... ....|--- .... ....
....|..|--- .... ....|--- .... ....|--- .... ....
....|..|--- .... ....|--- .... ....|--- .... ....
....|..|--- .... ....|--- .... ....|--- .... ....
....|..|--- .... ....|R-- .... ....|R-- .... ....
....|..|--- .... ....|--- .... ....|--- .... ....
....|..|B-8 JF.F ....|B-2 2F.F ....|D#4 2F.F ....
 B-3|..|B-1 2A.F ....|--- .... ....|--- .... ....
....|..|--- .... ....|--- .... ....|--- .... ....
....|..|--- .... ....|--- .... ....|--- .... ....
....|..|--- .... ....|--- .... ....|--- .... ....
....|..|--- .... ....|--- .... ....|--- .... ....
....|..|--- .... ....|R-- .... ....|R-- .... ....
....|..|--- .... ....|--- .... ....|--- .... ....
....|..|C-4 AF.F ....|F#3 2F2F ....|D#4 2F.F ....
 B-3|..|B-1 2A.F ....|--- .... ....|--- .... ....
....|..|--- .... ....|--- .... ....|--- .... ....
....|..|--- .... ....|--- .... ....|--- .... ....
....|..|--- .... ....|--- .... ....|--- .... ....
....|..|--- .... ....|--- .... ....|--- .... ....
....|..|--- .... ....|R-- .... ....|R-- .... ....
....|..|--- .... ....|--- .... ....|--- .... ....
....|..|B-8 JF.F ....|B-2 2F.F ....|D#4 2F.F ....
 B-3|..|B-1 2A.F ....|--- .... ....|--- .... ....
....|..|--- .... ....|--- .... ....|--- .... ....
....|..|--- .... ....|--- .... ....|--- .... ....
....|..|B-8 JF.F ....|--- .... ....|--- .... ....
....|..|--- .... ....|--- .... ....|--- .... ....
....|..|--- .... ....|R-- .... ....|R-- .... ....
....|..|--- .... ....|--- .... ....|--- .... ....
....|..|C-4 AF.F ....|B-2 2F.F ....|D#4 2F.F ....
 B-3|..|B-1 2A.F ....|--- .... ....|--- .... ....
....|..|--- .... ....|--- .... ....|--- .... ....
....|..|--- .... ....|--- .... ....|--- .... ....
....|..|--- .... ....|--- .... ....|--- .... ....
....|..|--- .... ....|--- .... ....|--- .... ....
....|..|--- .... ....|R-- .... ....|R-- .... ....
....|..|--- .... ....|--- .... ....|--- .... ....
....|..|B-8 JF.F ....|F#3 2F2F ....|D#4 2F.F ....
 B-3|..|B-1 2A.F ....|--- .... ....|--- .... ....
....|..|--- .... ....|--- .... ....|--- .... ....
....|..|--- .... ....|--- .... ....|--- .... ....
....|..|--- .... ....|--- .... ....|--- .... ....
....|..|--- .... ....|--- .... ....|--- .... ....
....|..|--- .... ....|--- .... ....|--- .... ....
....|..|--- .... ....|--- .... ....|--- .... ....
....|..|C-4 AF.F ....|F#3 2F2F ....|D#4 2F.F ....
 B-3|..|B-1 2A.F ....|--- .... ....|--- .... ....
....|..|--- .... ....|--- .... ....|--- .... ....
....|..|--- .... ....|--- .... ....|--- .... ....
....|..|B-8 JF.A ....|--- .... ....|--- .... ....
....|..|--- .... ....|--- .... ....|--- .... ....
....|..|--- .... ....|R-- .... ....|R-- .... ....
....|..|--- .... ....|--- .... ....|--- .... ....
....|..|B-8 JF.F ....|D#4 2F.F ....|D#4 2F.F ....
 B-3|..|B-1 2A.F ....|--- .... ....|--- .... ....
....|..|--- .... ....|--- .... ....|--- .... ....
....|..|--- .... ....|--- .... ....|--- .... ....
....|..|--- .... ....|--- .... ....|--- .... ....
....|..|--- .... ....|--- .... ....|--- .... ....
....|..|--- .... ....|D#4 2F.F ....|--- .... ....
....|..|--- .... ....|--- .... ....|--- .... ....
....|..|C-4 AF.F ....|D#4 2F.F ....|B-4 2F.F ....
 E-3|..|E-1 2A.F ....|--- .... ....|--- .... ....
....|..|--- .... ....|--- .... ....|R-- .... ....
....|..|--- .... ....|--- .... ....|A-4 2F.F ....
....|..|--- .... ....|--- .... ....|--- .... ....
....|..|--- .... ....|--- .... ....|G#4 2F.F ....
....|..|--- .... ....|D#4 2F.F ....|--- .... ....
....|..|--- .... ....|--- .... ....|R-- .... ....
....|..|B-8 JF.F ....|D#4 2F.F ....|B-4 2F.F ....
 E-3|..|E-1 2A.F ....|--- .... ....|--- .... ....
....|..|--- .... ....|--- .... ....|R-- .... ....
....|..|--- .... ....|--- .... ....|A-4 2F.F ....
....|..|B-8 JF.7 ....|--- .... ....|--- .... ....
....|..|--- .... ....|--- .... ....|G#4 2F.F ....
....|..|--- .... ....|D#4 2F.F ....|R-- .... ....
....|..|--- .... ....|--- .... ....|R-- .... ....
....|..|C-4 AF.F ....|E-3 2F8F ....|B-4 2F.F ....
 E-3|..|E-1 2A.F ....|--- .... ....|--- .... ....
....|..|--- .... ....|--- .... ....|R-- .... ....
....|..|--- .... ....|--- .... ....|A-4 2F.F ....
....|..|--- .... ....|--- .... ....|--- .... ....
....|..|--- .... ....|--- .... ....|G#4 2F.F ....
....|..|--- .... ....|R-- .... ....|--- .... ....
....|..|--- .... ....|--- .... ....|R-- .... ....
....|..|B-8 JF.F ....|D#4 2F.F ....|B-4 2F.F ....
 E-3|..|E-1 2A.F ....|--- .... ....|--- .... ....
....|..|--- .... ....|--- .... ....|R-- .... ....
....|..|--- .... ....|--- .... ....|A-4 2F.F ....
....|..|--- .... ....|--- .... ....|--- .... ....
....|..|--- .... ....|--- .... ....|G#4 2F.F ....
....|..|--- .... ....|D#4 2F.F ....|--- .... ....
....|..|--- .... ....|--- .... ....|R-- .... ....
....|..|C-4 AF.F ....|D#4 2F.F ....|B-4 2F.F ....
 E-3|..|E-1 2A.F ....|--- .... ....|--- .... ....
....|..|--- .... ....|--- .... ....|R-- .... ....
....|..|--- .... ....|--- .... ....|A-4 2F.F ....
....|..|--- .... ....|--- .... ....|--- .... ....
....|..|--- .... ....|--- .... ....|G#4 2F.F ....
....|..|--- .... ....|D#4 2F.F ....|R-- .... ....
....|..|--- .... ....|--- .... ....|R-- .... ....
....|..|B-8 JF.F ....|E-3 2F8F ....|B-4 2F.F ....
 E-3|..|E-1 2A.F ....|--- .... ....|--- .... ....
....|..|--- .... ....|--- .... ....|R-- .... ....
....|..|--- .... ....|--- .... ....|A-4 2F.F ....
....|..|--- .... ....|--- .... ....|--- .... ....
....|..|--- .... ....|--- .... ....|G#4 2F.F ....
....|..|--- .... ....|D#4 2F.7 ....|--- .... ....
....|..|--- .... ....|--- .... ....|R-- .... ....
....|..|C-4 AF.F ....|D#4 2F.F ....|B-4 2F.F ....
 E-3|..|E-1 2A.F ....|--- .... ....|--- .... ....
....|..|--- .... ....|--- .... ....|R-- .... ....
....|..|--- .... ....|--- .... ....|A-4 2F.F ....
....|..|--- .... ....|--- .... ....|--- .... ....
....|..|--- .... ....|--- .... ....|G#4 2F.F ....
....|..|--- .... ....|D#4 2F.7 ....|--- .... ....
....|..|--- .... ....|--- .... ....|R-- .... ....
....|..|B-8 JF.F ....|E-3 2F8F ....|B-4 2F.F ....
 E-3|..|E-1 2A.F ....|--- .... ....|--- .... ....
....|..|--- .... ....|--- .... ....|R-- .... ....
....|..|--- .... ....|--- .... ....|A-4 2F.F ....
....|..|--- .... ....|--- .... ....|--- .... ....
....|..|--- .... ....|--- .... ....|G#4 2F.F ....
....|..|--- .... ....|D#4 2F.7 ....|--- .... ....
....|..|--- .... ....|--- .... ....|R-- .... ....

[Pattern8]
....|..|C-4 AF.F ....|E-3 2F87 ....|B-4 2F.F ....
 E-3|..|E-1 2A.F ....|--- .... ....|--- .... ....
....|..|--- .... ....|--- .... ....|R-- .... ....
....|..|--- .... ....|--- .... ....|A-4 2F.F ....
....|..|--- .... ....|--- .... ....|--- .... ....
....|..|--- .... ....|--- .... ....|G#4 2F.F ....
....|..|--- .... ....|--- .... ....|--- .... ....
....|..|--- .... ....|--- .... ....|R-- .... ....
....|..|B-8 JF.F ....|D#4 2F.7 ....|B-4 2F.F ....
 E-3|..|E-1 2A.F ....|--- .... ....|--- .... ....
....|..|--- .... ....|--- .... ....|R-- .... ....
....|..|--- .... ....|--- .... ....|A-4 2F.F ....
....|..|--- .... ....|--- .... ....|--- .... ....
....|..|--- .... ....|--- .... ....|G#4 2F.F ....
....|..|--- .... ....|D#4 2F.7 ....|--- .... ....
....|..|--- .... ....|--- .... ....|R-- .... ....
....|..|C-4 AF.F ....|D-3 2FAF ....|B-4 2F.F ....
 E-3|..|E-1 2A.F ....|D#4 2F.F ....|--- .... ....
....|..|--- .... ....|--- .... ....|R-- .... ....
....|..|--- .... ....|--- .... ....|A-4 2F.F ....
....|..|--- .... ....|--- .... ....|--- .... ....
....|..|--- .... ....|--- .... ....|G#4 2F.F ....
....|..|--- .... ....|D#4 2F.7 ....|--- .... ....
....|..|--- .... ....|--- .... ....|R-- .... ....
....|..|B-8 JF.F ....|D#4 2FBF ....|B-4 2F.F ....
 E-3|..|E-1 2A.F ....|--- .... ....|--- .... ....
....|..|--- .... ....|--- .... ....|--- .... ....
....|..|--- .... ....|--- .... ....|A-4 2F.F ....
....|..|--- .... ....|--- .... ....|--- .... ....
....|..|--- .... ....|--- .... ....|G#4 2F.F ....
....|..|--- .... ....|--- .... ....|--- .... ....
....|..|--- .... ....|--- .... ....|--- .... ....
....|..|C-4 AF.F ....|D#4 2FAF ....|B-4 2F.F ....
 E-3|..|E-1 2A.F ....|--- .... ....|--- .... ....
....|..|--- .... ....|--- .... ....|--- .... ....
....|..|--- .... ....|--- .... ....|A-4 2F.F ....
....|..|--- .... ....|--- .... ....|--- .... ....
....|..|--- .... ....|--- .... ....|G#4 2F.F ....
....|..|--- .... ....|--- .... ....|--- .... ....
....|..|--- .... ....|--- .... ....|--- .... ....
....|..|B-8 JF.F ....|E-3 2F87 ....|B-4 2F.F ....
 E-3|..|E-1 2A.F ....|D#4 2F.A ....|--- .... ....
....|..|--- .... ....|--- .... ....|--- .... ....
....|..|--- .... ....|--- .... ....|A-4 2F.F ....
....|..|--- .... ....|--- .... ....|--- .... ....
....|..|--- .... ....|--- .... ....|G#4 2F.F ....
....|..|--- .... ....|--- .... ....|--- .... ....
....|..|--- .... ....|--- .... ....|--- .... ....
....|..|C-4 AF.F ....|D#4 2FBA ....|A-4 2F.F ....
 E-3|..|E-1 2A.F ....|--- .... ....|--- .... ....
....|..|--- .... ....|--- .... ....|--- .... ....
....|..|--- .... ....|--- .... ....|B-4 2F.F ....
....|..|--- .... ....|--- .... ....|--- .... ....
....|..|--- .... ....|--- .... ....|A-4 2F.F ....
....|..|--- .... ....|--- .... ....|--- .... ....
....|..|--- .... ....|--- .... ....|--- .... ....
 E-3|..|E-1 2A.F ....|D#4 2FAA ....|G#4 2F.F ....
....|..|E-1 2F.7 ....|--- .... ....|--- .... ....
....|..|--- .... ....|--- .... ....|--- .... ....
....|..|--- .... ....|--- .... ....|A-4 2F.7 ....
....|..|--- .... ....|--- .... ....|--- .... ....
....|..|--- .... ....|--- .... ....|G#4 2F.7 ....
....|..|--- .... ....|--- .... ....|--- .... ....
....|..|--- .... ....|--- .... ....|--- .... ....
....|..|C-4 AF.F ....|G#3 2F6F ....|A-3 2F.F ....
 A-3|..|A-1 2A.F ....|D#4 2F.7 ....|--- .... ....
....|..|--- .... ....|--- .... ....|--- .... ....
....|..|--- .... ....|--- .... ....|A-4 2F.7 ....
....|..|--- .... ....|--- .... ....|--- .... ....
....|..|--- .... ....|--- .... ....|G#4 2F.7 ....
....|..|--- .... ....|--- .... ....|--- .... ....
....|..|--- .... ....|--- .... ....|--- .... ....
....|..|B-8 JF.F ....|D#4 2FB7 ....|B-4 2F.7 ....
 A-3|..|A-1 2A.F ....|--- .... ....|--- .... ....
....|..|--- .... ....|--- .... ....|--- .... ....
....|..|--- .... ....|--- .... ....|A-4 2F.7 ....
....|..|--- .... ....|--- .... ....|--- .... ....
....|..|--- .... ....|--- .... ....|G#4 2F.7 ....
....|..|--- .... ....|--- .... ....|--- .... ....
....|..|--- .... ....|--- .... ....|--- .... ....
....|..|C-4 CF.F ....|G#3 2F6F ....|G#4 2F.F ....
 A-3|..|A-1 2A.F ....|--- .... ....|--- .... ....
....|..|--- .... ....|--- .... ....|--- .... ....
....|..|--- .... ....|--- .... ....|A-4 2F.7 ....
....|..|--- .... ....|--- .... ....|--- .... ....
....|..|--- .... ....|--- .... ....|G#4 2F.7 ....
....|..|--- .... ....|--- .... ....|--- .... ....
....|..|--- .... ....|--- .... ....|--- .... ....
....|..|B-8 JF.F ....|D-3 2FAF ....|B-4 2F.7 ....
 A-3|..|A-1 2A.F ....|D#4 2F.F ....|--- .... ....
....|..|--- .... ....|--- .... ....|--- .... ....
....|..|--- .... ....|--- .... ....|A-4 2F.7 ....
....|..|--- .... ....|--- .... ....|--- .... ....
....|..|--- .... ....|--- .... ....|G#4 2F.7 ....
....|..|--- .... ....|--- .... ....|--- .... ....
....|..|--- .... ....|--- .... ....|--- .... ....
....|..|C-4 AF.F ....|D-3 2FAF ....|A-4 2F.7 ....
 A-3|..|A-1 2A.F ....|D#4 2F.F ....|--- .... ....
....|..|--- .... ....|--- .... ....|--- .... ....
....|..|--- .... ....|--- .... ....|B-4 2F.7 ....
....|..|--- .... ....|--- .... ....|--- .... ....
....|..|--- .... ....|--- .... ....|A-4 2F.7 ....
....|..|--- .... ....|--- .... ....|--- .... ....
....|..|--- .... ....|--- .... ....|--- .... ....
....|..|C-4 AF.F ....|G#3 2F6F ....|F#4 2F.F ....
 A-3|..|A-1 2A.F ....|--- .... ....|--- .... ....
....|..|--- .... ....|--- .... ....|--- .... ....
....|..|--- .... ....|--- .... ....|--- .... ....
....|..|--- .... ....|--- .... ....|--- .... ....
....|..|--- .... ....|--- .... ....|--- .... ....
....|..|--- .... ....|--- .... ....|--- .... ....
....|..|--- .... ....|--- .... ....|--- .... ....
....|..|C-4 CF.F ....|D-3 2FAF ....|A-3 2F.7 ....
 A-3|..|A-1 2A.F ....|D#4 2F.F ....|--- .... ....
....|..|--- .... ....|--- .... ....|--- .... ....
....|..|--- .... ....|--- .... ....|--- .... ....
....|..|--- .... ....|--- .... ....|--- .... ....
....|..|--- .... ....|--- .... ....|--- .... ....
....|..|--- .... ....|--- .... ....|--- .... ....
....|..|--- .... ....|--- .... ....|--- .... ....
....|..|B-8 JF.F ....|G#3 2F6F ....|--- .... ....
 A-3|..|A-1 2A.F ....|D#4 2F.A ....|--- .... ....
....|..|--- .... ....|--- .... ....|--- .... ....
....|..|--- .... ....|--- .... ....|--- .... ....
....|..|--- .... ....|--- .... ....|--- .... ....
....|..|--- .... ....|--- .... ....|--- .... ....
....|..|--- .... ....|--- .... ....|--- .... ....
....|..|--- .... ....|--- .... ....|--- .... ....
....|..|C-4 AF.F ....|D-3 2FAF ....|E-4 2F.F ....
 A-3|..|A-1 2A.F ....|D#4 2F.F ....|--- .... ....
....|..|--- .... ....|--- .... ....|--- .... ....
....|..|--- .... ....|--- .... ....|--- .... ....
....|..|--- .... ....|--- .... ....|--- .... ....
....|..|--- .... ....|--- .... ....|--- .... ....
....|..|--- .... ....|--- .... ....|--- .... ....
....|..|--- .... ....|--- .... ....|--- .... ....
....|..|B-8 JF.F ....|D-3 2FAF ....|--- .... ....
 A-3|..|A-1 2A.F ....|D#4 2F.F ....|--- .... ....
....|..|--- .... ....|--- .... ....|--- .... ....
....|..|--- .... ....|--- .... ....|--- .... ....
....|..|--- .... ....|--- .... ....|--- .... ....
....|..|--- .... ....|--- .... ....|--- .... ....
....|..|--- .... ....|--- .... ....|--- .... ....
....|..|--- .... ....|--- .... ....|--- .... ....
....|..|C-4 CF.F ....|G#3 2F6F ....|--- .... ....
 A-3|..|A-1 2A.F ....|D#4 2F.7 ....|--- .... ....
....|..|--- .... ....|--- .... ....|--- .... ....
....|..|--- .... ....|--- .... ....|--- .... ....
....|..|--- .... ....|--- .... ....|--- .... ....
....|..|--- .... ....|--- .... ....|--- .... ....
....|..|--- .... ....|--- .... ....|--- .... ....
....|..|--- .... ....|--- .... ....|--- .... ....
....|..|B-8 JF.F ....|D-3 2FAF ....|D#4 2F.F ....
 A-3|..|A-1 2A.F ....|D#4 2F.F ....|--- .... ....
....|..|--- .... ....|--- .... ....|--- .... ....
....|..|--- .... ....|--- .... ....|--- .... ....
....|..|--- .... ....|D-3 2FAF ....|--- .... ....
....|..|--- .... ....|D#4 2F.F ....|--- .... ....
....|..|--- .... ....|--- .... ....|--- .... ....
....|..|--- .... ....|--- .... ....|--- .... ....
....|..|C-4 AF.F ....|D-3 2FAF ....|--- .... ....
 A-3|..|A-1 2A.F ....|D#4 2F.F ....|--- .... ....
....|..|--- .... ....|--- .... ....|--- .... ....
....|..|--- .... ....|--- .... ....|--- .... ....
....|..|--- .... ....|--- .... ....|--- .... ....
....|..|--- .... ....|--- .... ....|--- .... ....
....|..|--- .... ....|--- .... ....|--- .... ....
....|..|--- .... ....|--- .... ....|--- .... ....
....|..|C-4 AF.F ....|G#3 2F6F ....|--- .... ....
 A-3|..|A-1 2A.F ....|--- .... ....|--- .... ....
....|..|--- .... ....|--- .... ....|--- .... ....
....|..|--- .... ....|--- .... ....|--- .... ....
....|..|--- .... ....|--- .... ....|--- .... ....
....|..|--- .... ....|--- .... ....|--- .... ....
....|..|--- .... ....|--- .... ....|--- .... ....
....|..|--- .... ....|--- .... ....|--- .... ....
....|..|C-4 CF.F ....|D-3 2FA7 ....|B-3 2F.F ....
 A-3|..|A-1 2A.F ....|D#4 2F.7 ....|--- .... ....
....|..|--- .... ....|--- .... ....|--- .... ....
....|..|--- .... ....|--- .... ....|--- .... ....
....|..|--- .... ....|D-3 2FAA ....|--- .... ....
....|..|--- .... ....|D#4 2F.A ....|--- .... ....
....|..|--- .... ....|--- .... ....|--- .... ....
....|..|--- .... ....|--- .... ....|--- .... ....
....|..|B-8 JF.F ....|D-3 2FA7 ....|--- .... ....
 A-3|..|A-1 2A.F ....|D#4 2F.7 ....|--- .... ....
....|..|--- .... ....|--- .... ....|--- .... ....
....|..|--- .... ....|--- .... ....|--- .... ....
....|..|--- .... ....|--- .... ....|--- .... ....
....|..|--- .... ....|--- .... ....|--- .... ....
....|..|--- .... ....|--- .... ....|--- .... ....
....|..|--- .... ....|--- .... ....|--- .... ....
....|..|C-4 AF.F ....|A#3 2F2F ....|G#3 2F.F ....
 G#3|..|G#1 2A.F ....|R-- .... ....|--- .... ....
....|..|--- .... ....|--- .... ....|--- .... ....
....|..|--- .... ....|--- .... ....|--- .... ....
....|..|--- .... ....|--- .... ....|--- .... ....
....|..|--- .... ....|--- .... ....|--- .... ....
....|..|--- .... ....|--- .... ....|--- .... ....
....|..|--- .... ....|--- .... ....|--- .... ....
....|..|B-8 JF.F ....|A-3 2F5F ....|D#4 2F.7 ....
 G#3|..|G#1 2A.F ....|D#4 2F.7 ....|--- .... ....
....|..|--- .... ....|--- .... ....|--- .... ....
....|..|--- .... ....|--- .... ....|--- .... ....
....|..|--- .... ....|D-3 2FA7 ....|--- .... ....
....|..|--- .... ....|D#4 2F.7 ....|--- .... ....
....|..|--- .... ....|--- .... ....|--- .... ....
....|..|--- .... ....|--- .... ....|--- .... ....
....|..|C-4 CF.F ....|F#3 2FAF ....|--- .... ....
 G#3|..|G#1 2A.F ....|D#4 2F.7 ....|--- .... ....
....|..|--- .... ....|--- .... ....|--- .... ....
....|..|--- .... ....|--- .... ....|--- .... ....
....|..|--- .... ....|--- .... ....|--- .... ....
....|..|--- .... ....|--- .... ....|--- .... ....
....|..|--- .... ....|--- .... ....|--- .... ....
....|..|--- .... ....|--- .... ....|--- .... ....
....|..|B-8 JF.F ....|A-3 2F5F ....|D#4 2F.F ....
 G#3|..|G#1 2A.F ....|R-- .... ....|--- .... ....
....|..|--- .... ....|--- .... ....|--- .... ....
....|..|--- .... ....|--- .... ....|--- .... ....
....|..|--- .... ....|--- .... ....|--- .... ....
....|..|--- .... ....|--- .... ....|--- .... ....
....|..|--- .... ....|--- .... ....|--- .... ....
....|..|--- .... ....|--- .... ....|--- .... ....
....|..|C-4 AF.F ....|A-3 2F5F ....|B-3 2F.7 ....
 G#3|..|G#1 2A.F ....|R-- .... ....|--- .... ....
....|..|--- .... ....|--- .... ....|--- .... ....
....|..|--- .... ....|--- .... ....|--- .... ....
....|..|--- .... ....|--- .... ....|--- .... ....
....|..|--- .... ....|--- .... ....|--- .... ....
....|..|--- .... ....|--- .... ....|--- .... ....
....|..|--- .... ....|--- .... ....|--- .... ....
....|..|C-4 AF.F ....|F#3 2FAF ....|--- .... ....
 G#3|..|G#1 2A.F ....|--- .... ....|--- .... ....
....|..|--- .... ....|--- .... ....|--- .... ....
....|..|--- .... ....|--- .... ....|--- .... ....
....|..|--- .... ....|--- .... ....|--- .... ....
....|..|--- .... ....|--- .... ....|--- .... ....
....|..|--- .... ....|--- .... ....|--- .... ....
....|..|--- .... ....|--- .... ....|--- .... ....
....|..|C-4 CF.F ....|A-3 2F5F ....|B-3 2F.F ....
 G#3|..|G#1 2A.F ....|R-- .... ....|--- .... ....
....|..|--- .... ....|--- .... ....|--- .... ....
....|..|--- .... ....|--- .... ....|--- .... ....
....|..|--- .... ....|--- .... ....|--- .... ....
....|..|--- .... ....|--- .... ....|--- .... ....
....|..|--- .... ....|--- .... ....|--- .... ....
....|..|--- .... ....|--- .... ....|--- .... ....
....|..|B-8 JF.F ....|F#3 2FAF ....|--- .... ....
 G#3|..|G#1 2A.F ....|R-- .... ....|--- .... ....
....|..|--- .... ....|--- .... ....|--- .... ....
....|..|--- .... ....|--- .... ....|--- .... ....
....|..|--- .... ....|--- .... ....|--- .... ....
....|..|--- .... ....|--- .... ....|--- .... ....
....|..|--- .... ....|--- .... ....|--- .... ....
....|..|--- .... ....|--- .... ....|--- .... ....

[Pattern9]
....|..|C-4 AF.F ....|A-3 2F5F ....|--- .... ....
 G#3|..|G#1 2A.F ....|R-- .... ....|--- .... ....
....|..|--- .... ....|--- .... ....|--- .... ....
....|..|--- .... ....|--- .... ....|--- .... ....
....|..|--- .... ....|--- .... ....|--- .... ....
....|..|--- .... ....|--- .... ....|--- .... ....
....|..|--- .... ....|--- .... ....|--- .... ....
....|..|--- .... ....|--- .... ....|--- .... ....
....|..|B-8 JF.F ....|F#3 2FAF ....|C#4 2F.F ....
 G#3|..|G#1 2A.F ....|R-- .... ....|--- .... ....
....|..|--- .... ....|--- .... ....|--- .... ....
....|..|--- .... ....|--- .... ....|--- .... ....
....|..|--- .... ....|--- .... ....|--- .... ....
....|..|--- .... ....|--- .... ....|--- .... ....
....|..|--- .... ....|--- .... ....|--- .... ....
....|..|--- .... ....|--- .... ....|--- .... ....
....|..|C-4 CF.F ....|A-3 2F57 ....|--- .... ....
 G#3|..|G#1 2A.F ....|R-- .... ....|--- .... ....
....|..|--- .... ....|--- .... ....|--- .... ....
....|..|--- .... ....|--- .... ....|--- .... ....
....|..|--- .... ....|--- .... ....|--- .... ....
....|..|--- .... ....|--- .... ....|--- .... ....
....|..|--- .... ....|--- .... ....|--- .... ....
....|..|--- .... ....|--- .... ....|--- .... ....
....|..|B-8 JF.F ....|F#3 2FA7 ....|--- .... ....
 G#3|..|G#1 2A.F ....|R-- .... ....|--- .... ....
....|..|--- .... ....|--- .... ....|--- .... ....
....|..|--- .... ....|--- .... ....|--- .... ....
....|..|--- .... ....|--- .... ....|--- .... ....
....|..|--- .... ....|--- .... ....|--- .... ....
....|..|--- .... ....|--- .... ....|--- .... ....
....|..|--- .... ....|--- .... ....|--- .... ....
....|..|C-4 AF.F ....|A-3 2F57 ....|C#4 2F.F ....
 G#3|..|G#1 2A.F ....|R-- .... ....|--- .... ....
....|..|--- .... ....|--- .... ....|--- .... ....
....|..|--- .... ....|--- .... ....|--- .... ....
....|..|--- .... ....|--- .... ....|--- .... ....
....|..|--- .... ....|--- .... ....|--- .... ....
....|..|--- .... ....|--- .... ....|--- .... ....
....|..|--- .... ....|--- .... ....|--- .... ....
....|..|C-4 AF.F ....|A-3 2F5F ....|B-3 2F.F ....
 G#3|..|G#1 2A.F ....|R-- .... ....|--- .... ....
....|..|--- .... ....|--- .... ....|--- .... ....
....|..|--- .... ....|--- .... ....|--- .... ....
....|..|--- .... ....|--- .... ....|--- .... ....
....|..|--- .... ....|--- .... ....|--- .... ....
....|..|--- .... ....|--- .... ....|--- .... ....
....|..|--- .... ....|--- .... ....|--- .... ....
....|..|C-4 CF.F ....|A-3 2F5F ....|--- .... ....
 G#3|..|G#1 2A.F ....|R-- .... ....|--- .... ....
....|..|--- .... ....|--- .... ....|--- .... ....
....|..|--- .... ....|--- .... ....|--- .... ....
....|..|--- .... ....|--- .... ....|--- .... ....
....|..|--- .... ....|--- .... ....|--- .... ....
....|..|--- .... ....|--- .... ....|--- .... ....
....|..|--- .... ....|--- .... ....|--- .... ....
....|..|B-8 JF.F ....|A-3 2F5F ....|C#4 2F.7 ....
 G#3|..|G#1 2A.F ....|R-- .... ....|--- .... ....
....|..|--- .... ....|--- .... ....|--- .... ....
....|..|--- .... ....|--- .... ....|--- .... ....
....|..|--- .... ....|--- .... ....|--- .... ....
....|..|--- .... ....|--- .... ....|--- .... ....
....|..|--- .... ....|--- .... ....|--- .... ....
....|..|--- .... ....|--- .... ....|--- .... ....
....|..|C-4 AF.F ....|E-3 2FAF ....|A-3 2F.F ....
 F#3|..|F#1 2A.F ....|R-- .... ....|--- .... ....
....|..|--- .... ....|--- .... ....|--- .... ....
....|..|--- .... ....|--- .... ....|--- .... ....
....|..|--- .... ....|--- .... ....|--- .... ....
....|..|--- .... ....|--- .... ....|--- .... ....
....|..|--- .... ....|--- .... ....|--- .... ....
....|..|--- .... ....|--- .... ....|--- .... ....
....|..|B-8 JF.F ....|A-3 2F5A ....|--- .... ....
 F#3|..|F#1 2A.F ....|R-- .... ....|--- .... ....
....|..|--- .... ....|--- .... ....|--- .... ....
....|..|--- .... ....|--- .... ....|--- .... ....
....|..|--- .... ....|--- .... ....|--- .... ....
....|..|--- .... ....|--- .... ....|--- .... ....
....|..|--- .... ....|--- .... ....|--- .... ....
....|..|--- .... ....|--- .... ....|--- .... ....
....|..|C-4 CF.F ....|E-3 2FAF ....|F#4 2F.F ....
 F#3|..|F#1 2A.F ....|R-- .... ....|--- .... ....
....|..|--- .... ....|--- .... ....|--- .... ....
....|..|--- .... ....|--- .... ....|--- .... ....
....|..|--- .... ....|--- .... ....|--- .... ....
....|..|--- .... ....|--- .... ....|--- .... ....
....|..|--- .... ....|--- .... ....|--- .... ....
....|..|--- .... ....|--- .... ....|--- .... ....
....|..|B-8 JF.F ....|A-3 2F5F ....|B-3 2F.7 ....
 F#3|..|F#1 2A.F ....|R-- .... ....|--- .... ....
....|..|--- .... ....|--- .... ....|--- .... ....
....|..|--- .... ....|--- .... ....|--- .... ....
....|..|--- .... ....|--- .... ....|--- .... ....
....|..|--- .... ....|--- .... ....|--- .... ....
....|..|--- .... ....|--- .... ....|--- .... ....
....|..|--- .... ....|--- .... ....|--- .... ....
....|..|C-4 AF.F ....|A-3 2F5F ....|--- .... ....
 F#3|..|F#1 2A.F ....|R-- .... ....|--- .... ....
....|..|--- .... ....|--- .... ....|--- .... ....
....|..|--- .... ....|--- .... ....|--- .... ....
....|..|--- .... ....|--- .... ....|--- .... ....
....|..|--- .... ....|--- .... ....|--- .... ....
....|..|--- .... ....|--- .... ....|--- .... ....
....|..|--- .... ....|--- .... ....|--- .... ....
....|..|C-4 AF.F ....|E-3 2FAF ....|C#4 2F.F ....
 F#3|..|F#1 2A.F ....|R-- .... ....|--- .... ....
....|..|--- .... ....|--- .... ....|--- .... ....
....|..|--- .... ....|--- .... ....|--- .... ....
....|..|--- .... ....|--- .... ....|--- .... ....
....|..|--- .... ....|--- .... ....|--- .... ....
....|..|--- .... ....|--- .... ....|--- .... ....
....|..|--- .... ....|--- .... ....|--- .... ....
....|..|C-4 CF.F ....|E-3 2FA7 ....|A-3 2F.7 ....
 F#3|..|F#1 2A.F ....|R-- .... ....|--- .... ....
....|..|--- .... ....|--- .... ....|--- .... ....
....|..|--- .... ....|--- .... ....|--- .... ....
....|..|--- .... ....|--- .... ....|--- .... ....
....|..|--- .... ....|--- .... ....|--- .... ....
....|..|--- .... ....|--- .... ....|--- .... ....
....|..|--- .... ....|--- .... ....|--- .... ....
....|..|B-8 JF.F ....|E-3 2FAF ....|--- .... ....
 F#3|..|F#1 2A.F ....|R-- .... ....|--- .... ....
....|..|--- .... ....|--- .... ....|--- .... ....
....|..|--- .... ....|--- .... ....|--- .... ....
....|..|--- .... ....|--- .... ....|--- .... ....
....|..|--- .... ....|--- .... ....|--- .... ....
....|..|--- .... ....|--- .... ....|--- .... ....
....|..|--- .... ....|--- .... ....|--- .... ....
....|..|C-4 AF.F ....|F#3 2FAF ....|A-3 2F.F ....
 A-3|..|A-1 2A.F ....|--- .... ....|--- .... ....
....|..|--- .... ....|--- .... ....|--- .... ....
....|..|--- .... ....|--- .... ....|--- .... ....
....|..|--- .... ....|--- .... ....|--- .... ....
....|..|--- .... ....|--- .... ....|--- .... ....
....|..|--- .... ....|--- .... ....|--- .... ....
....|..|--- .... ....|--- .... ....|--- .... ....
....|..|B-8 JF.F ....|A-3 2F57 ....|--- .... ....
 A-3|..|A-1 2A.F ....|R-- .... ....|--- .... ....
....|..|--- .... ....|--- .... ....|--- .... ....
....|..|--- .... ....|--- .... ....|--- .... ....
....|..|--- .... ....|--- .... ....|--- .... ....
....|..|--- .... ....|--- .... ....|--- .... ....
....|..|--- .... ....|--- .... ....|--- .... ....
....|..|--- .... ....|--- .... ....|--- .... ....
....|..|C-4 CF.F ....|F#3 2FAF ....|E-4 2F.F ....
 A-3|..|A-1 2A.F ....|R-- .... ....|--- .... ....
....|..|--- .... ....|--- .... ....|--- .... ....
....|..|--- .... ....|--- .... ....|--- .... ....
....|..|--- .... ....|--- .... ....|--- .... ....
....|..|--- .... ....|--- .... ....|--- .... ....
....|..|--- .... ....|--- .... ....|--- .... ....
....|..|--- .... ....|--- .... ....|--- .... ....
....|..|B-8 JF.F ....|A-3 2F5F ....|C#4 2F.7 ....
 A-3|..|A-1 2A.F ....|R-- .... ....|--- .... ....
....|..|--- .... ....|--- .... ....|--- .... ....
....|..|--- .... ....|--- .... ....|--- .... ....
....|..|--- .... ....|--- .... ....|--- .... ....
....|..|--- .... ....|--- .... ....|--- .... ....
....|..|--- .... ....|--- .... ....|--- .... ....
....|..|--- .... ....|--- .... ....|--- .... ....
....|..|C-4 AF.F ....|A-3 2F5F ....|--- .... ....
 A-3|..|A-1 2A.F ....|R-- .... ....|--- .... ....
....|..|--- .... ....|--- .... ....|--- .... ....
....|..|--- .... ....|--- .... ....|--- .... ....
....|..|--- .... ....|--- .... ....|--- .... ....
....|..|--- .... ....|--- .... ....|--- .... ....
....|..|--- .... ....|--- .... ....|--- .... ....
....|..|--- .... ....|--- .... ....|--- .... ....
....|..|C-4 AF.F ....|F#3 2FAF ....|C#4 2F.F ....
 A-3|..|A-1 2A.F ....|--- .... ....|--- .... ....
....|..|--- .... ....|--- .... ....|--- .... ....
....|..|--- .... ....|--- .... ....|--- .... ....
....|..|--- .... ....|--- .... ....|--- .... ....
....|..|--- .... ....|--- .... ....|--- .... ....
....|..|--- .... ....|--- .... ....|--- .... ....
....|..|--- .... ....|--- .... ....|--- .... ....
....|..|C-4 CF.F ....|F#3 2FA7 ....|A-3 2F.7 ....
 A-3|..|A-1 2A.F ....|R-- .... ....|--- .... ....
....|..|--- .... ....|--- .... ....|--- .... ....
....|..|--- .... ....|--- .... ....|--- .... ....
....|..|--- .... ....|--- .... ....|--- .... ....
....|..|--- .... ....|--- .... ....|--- .... ....
....|..|--- .... ....|--- .... ....|--- .... ....
....|..|--- .... ....|--- .... ....|--- .... ....
....|..|B-8 JF.F ....|F#3 2FAF ....|--- .... ....
 A-3|..|A-1 2A.F ....|R-- .... ....|--- .... ....
....|..|--- .... ....|--- .... ....|--- .... ....
....|..|--- .... ....|--- .... ....|--- .... ....
....|..|--- .... ....|--- .... ....|--- .... ....
....|..|--- .... ....|--- .... ....|--- .... ....
....|..|--- .... ....|--- .... ....|--- .... ....
....|..|--- .... ....|--- .... ....|--- .... ....
....|..|C-4 AF.F ....|D#3 2F.F ....|D#3 2F.F ....
 G#3|..|G#1 2A.F ....|--- .... ....|--- .... ....
....|..|--- .... ....|--- .... ....|--- .... ....
....|..|--- .... ....|--- .... ....|--- .... ....
....|..|--- .... ....|--- .... ....|--- .... ....
....|..|--- .... ....|--- .... ....|--- .... ....
....|..|--- .... ....|--- .... ....|--- .... ....
....|..|--- .... ....|--- .... ....|--- .... ....
....|..|C-3 RF.F ....|D#3 2F.F ....|D#3 2F.F ....
 G#3|..|G#1 2A.F ....|R-- .... ....|--- .... ....
....|..|--- .... ....|--- .... ....|--- .... ....
....|..|--- .... ....|--- .... ....|--- .... ....
....|..|--- .... ....|--- .... ....|--- .... ....
....|..|--- .... ....|--- .... ....|--- .... ....
....|..|--- .... ....|--- .... ....|--- .... ....
....|..|--- .... ....|--- .... ....|--- .... ....
....|..|C-4 CF.F ....|D#3 2F.F ....|D#3 2F.F ....
 G#3|..|G#1 2A.F ....|R-- .... ....|--- .... ....
....|..|--- .... ....|--- .... ....|--- .... ....
....|..|--- .... ....|--- .... ....|--- .... ....
....|..|--- .... ....|--- .... ....|--- .... ....
....|..|--- .... ....|--- .... ....|--- .... ....
....|..|--- .... ....|--- .... ....|--- .... ....
....|..|--- .... ....|--- .... ....|--- .... ....
....|..|C-3 RF.F ....|D#3 2F.F ....|D#3 2F5F ....
 G#3|..|G#1 2A.F ....|--- .... ....|--- .... ....
....|..|--- .... ....|--- .... ....|--- .... ....
....|..|--- .... ....|--- .... ....|--- .... ....
....|..|--- .... ....|--- .... ....|--- .... ....
....|..|--- .... ....|--- .... ....|--- .... ....
....|..|--- .... ....|--- .... ....|--- .... ....
....|..|--- .... ....|--- .... ....|--- .... ....
....|..|C-4 AF.F ....|D#3 2F.F ....|G#4 2F.F ....
 G#3|..|G#1 2A.F ....|--- .... ....|--- .... ....
....|..|--- .... ....|--- .... ....|--- .... ....
....|..|--- .... ....|--- .... ....|--- .... ....
....|..|--- .... ....|--- .... ....|D#4 2F.F ....
....|..|--- .... ....|--- .... ....|--- .... ....
....|..|--- .... ....|--- .... ....|--- .... ....
....|..|--- .... ....|--- .... ....|--- .... ....
....|..|C-4 AF.F ....|D#3 2F.F ....|G#4 2F.F ....
 G#3|..|G#1 2A.F ....|--- .... ....|--- .... ....
....|..|--- .... ....|--- .... ....|--- .... ....
....|..|--- .... ....|--- .... ....|--- .... ....
....|..|--- .... ....|--- .... ....|D#4 2F.F ....
....|..|--- .... ....|--- .... ....|--- .... ....
....|..|--- .... ....|--- .... ....|--- .... ....
....|..|--- .... ....|--- .... ....|--- .... ....
....|..|C-4 CF.F ....|D#3 2F.F ....|D#4 2F.F ....
 G#3|..|G#1 2A.F ....|--- .... ....|--- .... ....
....|..|--- .... ....|--- .... ....|--- .... ....
....|..|--- .... ....|--- .... ....|--- .... ....
....|..|--- .... ....|--- .... ....|C#4 2F.F ....
....|..|--- .... ....|--- .... ....|--- .... ....
....|..|--- .... ....|--- .... ....|--- .... ....
....|..|--- .... ....|--- .... ....|--- .... ....
....|..|C-3 RF.F ....|D#3 2F.F ....|F#3 2F.F ....
 G#3|..|G#1 2A.F ....|--- .... ....|--- .... ....
....|..|--- .... ....|--- .... ....|--- .... ....
....|..|--- .... ....|--- .... ....|--- .... ....
....|..|--- .... ....|--- .... ....|D#3 2F.F ....
 G#4|..|G#2 2A.F ....|--- .... ....|--- .... ....
....|..|--- .... ....|--- .... ....|--- .... ....
....|..|--- .... ....|--- .... ....|--- .... ....

[Pattern10]
 G#4|..|G#2 2A.F ....|G#3 2F3F ....|D#4 2FAF ....
....|..|G#1 2F.7 ....|--- .... ....|--- .... ....
....|..|--- .... ....|--- .... ....|--- .... ....
....|..|--- .... ....|--- .... ....|--- .... ....
....|..|--- .... ....|--- .... ....|D#4 2F.A ....
....|..|--- .... ....|--- .... ....|--- .... ....
....|..|--- .... ....|--- .... ....|--- .... ....
....|..|--- .... ....|--- .... ....|--- .... ....
....|..|C-3 RF.7 ....|D#3 2F.7 ....|D#3 2F57 ....
....|..|G#1 2F.7 ....|--- .... ....|--- .... ....
....|..|--- .... ....|--- .... ....|--- .... ....
....|..|--- .... ....|--- .... ....|--- .... ....
....|..|--- .... ....|--- .... ....|C#4 2F.A ....
....|..|--- .... ....|--- .... ....|--- .... ....
....|..|--- .... ....|--- .... ....|--- .... ....
....|..|--- .... ....|--- .... ....|--- .... ....
....|..|C-4 CF.F ....|D#3 2F.7 ....|G#4 2F.7 ....
....|..|G#1 2F.7 ....|--- .... ....|--- .... ....
....|..|--- .... ....|--- .... ....|--- .... ....
....|..|--- .... ....|--- .... ....|--- .... ....
....|..|R-- .... ....|--- .... ....|D#4 2F.7 ....
....|..|G#2 2F.A ....|--- .... ....|--- .... ....
....|..|--- .... ....|--- .... ....|--- .... ....
....|..|--- .... ....|--- .... ....|--- .... ....
....|..|C-4 CF.F ....|D#3 2F.7 ....|G#4 2F.7 ....
....|..|G#1 2F.7 ....|--- .... ....|--- .... ....
....|..|--- .... ....|--- .... ....|--- .... ....
....|..|--- .... ....|--- .... ....|--- .... ....
....|..|C-4 CF.F ....|--- .... ....|D#4 2F.7 ....
....|..|--- .... ....|--- .... ....|--- .... ....
....|..|--- .... ....|--- .... ....|--- .... ....
....|..|--- .... ....|--- .... ....|--- .... ....
....|..|C-4 9F.F ....|D#3 2F.7 ....|D#4 2F.7 ....
....|..|G#1 2F.7 ....|--- .... ....|--- .... ....
....|..|--- .... ....|--- .... ....|--- .... ....
....|..|--- .... ....|--- .... ....|--- .... ....
....|..|R-- .... ....|--- .... ....|C#4 2F.7 ....
....|..|--- .... ....|--- .... ....|--- .... ....
....|..|--- .... ....|--- .... ....|--- .... ....
....|..|--- .... ....|--- .... ....|--- .... ....
....|..|C-4 CF.F ....|D#3 2F.7 ....|F#3 2F.7 ....
....|..|G#1 2F.7 ....|--- .... ....|--- .... ....
....|..|--- .... ....|--- .... ....|--- .... ....
....|..|--- .... ....|--- .... ....|--- .... ....
....|..|C-4 CF.F ....|--- .... ....|D#3 2F.7 ....
....|..|G#2 2F.7 ....|--- .... ....|--- .... ....
....|..|--- .... ....|--- .... ....|--- .... ....
....|..|--- .... ....|--- .... ....|--- .... ....
 G#4|..|G#2 2A.F ....|G#3 2F37 ....|D#4 2FA7 ....
....|..|--- .... ....|--- .... ....|--- .... ....
....|..|--- .... ....|--- .... ....|--- .... ....
....|..|--- .... ....|--- .... ....|--- .... ....
....|..|C-4 CF.F ....|--- .... ....|--- .... ....
....|..|--- .... ....|--- .... ....|--- .... ....
....|..|--- .... ....|--- .... ....|--- .... ....
....|..|--- .... ....|--- .... ....|--- .... ....
....|..|C-4 CF.F ....|R-- .... ....|R-- .... ....
....|..|R-- .... ....|--- .... ....|--- .... ....
....|..|--- .... ....|--- .... ....|--- .... ....
....|..|--- .... ....|--- .... ....|--- .... ....
....|..|C-4 CF.F ....|--- .... ....|--- .... ....
....|..|--- .... ....|--- .... ....|--- .... ....
....|..|--- .... ....|--- .... ....|--- .... ....
....|..|--- .... ....|--- .... ....|--- .... ....
....|..|C-4 AF.F ....|E-3 2F1F ....|E-4 2F1F ....
 A-3|..|A-1 2A.F ....|--- .... ....|--- .... ....
....|..|--- .... ....|--- .... ....|--- .... ....
....|..|--- .... ....|--- .... ....|--- .... ....
....|..|R-- .... ....|--- .... ....|--- .... ....
....|..|--- .... ....|--- .... ....|--- .... ....
....|..|--- .... ....|--- .... ....|--- .... ....
....|..|--- .... ....|--- .... ....|--- .... ....
....|..|C-3 RF.F ....|--- .... ....|--- .... ....
 A-3|..|A-1 2A.F ....|--- .... ....|--- .... ....
....|..|--- .... ....|--- .... ....|--- .... ....
....|..|--- .... ....|--- .... ....|--- .... ....
....|..|C-4 CF.7 ....|--- .... ....|--- .... ....
....|..|--- .... ....|--- .... ....|--- .... ....
....|..|--- .... ....|--- .... ....|--- .... ....
....|..|--- .... ....|--- .... ....|--- .... ....
....|..|C-4 CF.F ....|E-3 2F1F ....|R-- .... ....
 A-3|..|A-1 2A.F ....|--- .... ....|--- .... ....
....|..|--- .... ....|--- .... ....|--- .... ....
....|..|--- .... ....|--- .... ....|--- .... ....
....|..|R-- .... ....|--- .... ....|--- .... ....
....|..|--- .... ....|--- .... ....|--- .... ....
....|..|--- .... ....|--- .... ....|--- .... ....
....|..|--- .... ....|--- .... ....|--- .... ....
....|..|C-3 RF.F ....|E-3 2F1F ....|E-4 2F1F ....
 A-3|..|A-1 2A.F ....|--- .... ....|--- .... ....
....|..|--- .... ....|--- .... ....|--- .... ....
....|..|--- .... ....|--- .... ....|--- .... ....
....|..|C-4 CF.F ....|E-3 2F1F ....|--- .... ....
....|..|--- .... ....|--- .... ....|--- .... ....
....|..|--- .... ....|--- .... ....|--- .... ....
....|..|--- .... ....|--- .... ....|--- .... ....
....|..|C-4 AF.F ....|E-3 2F1F ....|--- .... ....
 A-3|..|A-1 2A.F ....|--- .... ....|--- .... ....
....|..|--- .... ....|--- .... ....|--- .... ....
....|..|--- .... ....|--- .... ....|--- .... ....
....|..|C-4 CF.7 ....|E-3 2F1F ....|--- .... ....
....|..|--- .... ....|--- .... ....|--- .... ....
....|..|--- .... ....|--- .... ....|--- .... ....
....|..|--- .... ....|--- .... ....|--- .... ....
....|..|C-4 AF.F ....|E-3 2F1F ....|--- .... ....
 A-3|..|A-1 2A.F ....|--- .... ....|--- .... ....
....|..|--- .... ....|--- .... ....|--- .... ....
....|..|--- .... ....|--- .... ....|--- .... ....
....|..|C-4 CF.7 ....|--- .... ....|--- .... ....
....|..|--- .... ....|--- .... ....|--- .... ....
....|..|--- .... ....|--- .... ....|--- .... ....
....|..|--- .... ....|--- .... ....|--- .... ....
....|..|C-4 CF.F ....|E-3 2F1F ....|E-4 2F17 ....
 A-3|..|A-1 2A.F ....|--- .... ....|--- .... ....
....|..|--- .... ....|--- .... ....|--- .... ....
....|..|--- .... ....|--- .... ....|--- .... ....
....|..|C-4 CF.A ....|E-3 2F1A ....|--- .... ....
....|..|--- .... ....|--- .... ....|--- .... ....
....|..|--- .... ....|--- .... ....|--- .... ....
....|..|--- .... ....|--- .... ....|--- .... ....
....|..|C-3 RF.F ....|E-3 2F1F ....|--- .... ....
 A-3|..|A-1 2A.F ....|--- .... ....|--- .... ....
....|..|--- .... ....|--- .... ....|--- .... ....
....|..|--- .... ....|--- .... ....|--- .... ....
....|..|--- .... ....|E-3 2F1F ....|--- .... ....
....|..|--- .... ....|--- .... ....|--- .... ....
....|..|--- .... ....|--- .... ....|--- .... ....
....|..|--- .... ....|--- .... ....|--- .... ....
....|..|C-4 AF.F ....|F#3 2F2F ....|D#4 2FEF ....
 B-3|..|B-1 2A.F ....|--- .... ....|--- .... ....
....|..|--- .... ....|--- .... ....|--- .... ....
....|..|--- .... ....|--- .... ....|--- .... ....
....|..|--- .... ....|--- .... ....|--- .... ....
....|..|--- .... ....|--- .... ....|--- .... ....
....|..|--- .... ....|--- .... ....|--- .... ....
....|..|--- .... ....|--- .... ....|--- .... ....
....|..|C-4 AF.F ....|E-3 2F17 ....|E-4 2F17 ....
 B-3|..|B-1 2A.F ....|--- .... ....|--- .... ....
....|..|--- .... ....|--- .... ....|--- .... ....
....|..|--- .... ....|--- .... ....|--- .... ....
....|..|C-4 CF.7 ....|E-3 2F17 ....|--- .... ....
....|..|--- .... ....|--- .... ....|--- .... ....
....|..|--- .... ....|--- .... ....|--- .... ....
....|..|--- .... ....|--- .... ....|--- .... ....
....|..|C-4 CF.F ....|F#3 2F2F ....|--- .... ....
 B-3|..|B-1 2A.F ....|--- .... ....|--- .... ....
....|..|--- .... ....|--- .... ....|--- .... ....
....|..|--- .... ....|--- .... ....|--- .... ....
....|..|--- .... ....|E-3 2F17 ....|--- .... ....
....|..|--- .... ....|--- .... ....|--- .... ....
....|..|--- .... ....|--- .... ....|--- .... ....
....|..|--- .... ....|--- .... ....|--- .... ....
....|..|C-3 RF.F ....|F#3 2F2F ....|D#4 2FEF ....
 B-3|..|B-1 2A.F ....|--- .... ....|--- .... ....
....|..|--- .... ....|--- .... ....|--- .... ....
....|..|--- .... ....|--- .... ....|--- .... ....
....|..|C-4 CF.F ....|F#3 2F2F ....|--- .... ....
....|..|--- .... ....|--- .... ....|--- .... ....
....|..|--- .... ....|--- .... ....|--- .... ....
....|..|--- .... ....|--- .... ....|--- .... ....
....|..|C-4 AF.F ....|F#3 2F2F ....|--- .... ....
 B-3|..|B-1 2A.F ....|--- .... ....|--- .... ....
....|..|--- .... ....|--- .... ....|--- .... ....
....|..|--- .... ....|--- .... ....|--- .... ....
....|..|--- .... ....|F#3 2F2F ....|--- .... ....
....|..|--- .... ....|--- .... ....|--- .... ....
....|..|--- .... ....|--- .... ....|--- .... ....
....|..|--- .... ....|--- .... ....|--- .... ....
....|..|C-4 AF.F ....|F#3 2F2F ....|--- .... ....
 B-3|..|B-1 2A.F ....|--- .... ....|--- .... ....
....|..|--- .... ....|--- .... ....|--- .... ....
....|..|--- .... ....|--- .... ....|--- .... ....
....|..|--- .... ....|E-3 2F17 ....|--- .... ....
....|..|--- .... ....|--- .... ....|--- .... ....
....|..|--- .... ....|--- .... ....|--- .... ....
....|..|--- .... ....|--- .... ....|--- .... ....
....|..|C-4 CF.F ....|F#3 2F2F ....|D#4 2FE7 ....
 B-3|..|B-1 2A.F ....|--- .... ....|--- .... ....
....|..|--- .... ....|--- .... ....|--- .... ....
....|..|--- .... ....|--- .... ....|--- .... ....
....|..|C-4 CF.A ....|F#3 2F2A ....|--- .... ....
....|..|--- .... ....|--- .... ....|--- .... ....
....|..|--- .... ....|--- .... ....|--- .... ....
....|..|--- .... ....|--- .... ....|--- .... ....
....|..|C-3 RF.F ....|F#3 2F2F ....|--- .... ....
 B-3|..|B-1 2A.F ....|--- .... ....|--- .... ....
....|..|--- .... ....|--- .... ....|--- .... ....
....|..|--- .... ....|--- .... ....|--- .... ....
....|..|--- .... ....|F#3 2F2F ....|--- .... ....
....|..|--- .... ....|--- .... ....|--- .... ....
....|..|--- .... ....|--- .... ....|--- .... ....
....|..|--- .... ....|--- .... ....|--- .... ....
....|..|C-4 AF.F ....|G#3 2F3F ....|D#4 2F4F ....
 G#3|..|G#1 2A.F ....|--- .... ....|--- .... ....
....|..|--- .... ....|--- .... ....|--- .... ....
....|..|--- .... ....|--- .... ....|--- .... ....
....|..|--- .... ....|--- .... ....|--- .... ....
....|..|--- .... ....|--- .... ....|--- .... ....
....|..|--- .... ....|--- .... ....|--- .... ....
....|..|--- .... ....|--- .... ....|--- .... ....
....|..|C-4 AF.F ....|F#3 2F27 ....|D#4 2FE7 ....
 G#3|..|G#1 2A.F ....|--- .... ....|--- .... ....
....|..|--- .... ....|--- .... ....|--- .... ....
....|..|--- .... ....|--- .... ....|--- .... ....
....|..|C-4 CF.7 ....|F#3 2F27 ....|--- .... ....
....|..|--- .... ....|--- .... ....|--- .... ....
....|..|--- .... ....|--- .... ....|--- .... ....
....|..|--- .... ....|--- .... ....|--- .... ....
....|..|C-4 CF.F ....|G#3 2F3F ....|--- .... ....
 G#3|..|G#1 2A.F ....|--- .... ....|--- .... ....
....|..|--- .... ....|--- .... ....|--- .... ....
....|..|--- .... ....|--- .... ....|--- .... ....
....|..|--- .... ....|F#3 2F27 ....|--- .... ....
....|..|--- .... ....|--- .... ....|--- .... ....
....|..|--- .... ....|--- .... ....|--- .... ....
....|..|--- .... ....|--- .... ....|--- .... ....
....|..|C-3 RF.F ....|G#3 2F3F ....|D#4 2F4F ....
 G#3|..|G#1 2A.F ....|--- .... ....|--- .... ....
....|..|--- .... ....|--- .... ....|--- .... ....
....|..|--- .... ....|--- .... ....|--- .... ....
....|..|C-4 CF.F ....|G#3 2F3F ....|--- .... ....
....|..|--- .... ....|--- .... ....|--- .... ....
....|..|--- .... ....|--- .... ....|--- .... ....
....|..|--- .... ....|--- .... ....|--- .... ....
....|..|C-4 AF.F ....|G#3 2F3F ....|--- .... ....
 G#3|..|G#1 2A.F ....|--- .... ....|--- .... ....
....|..|--- .... ....|--- .... ....|--- .... ....
....|..|--- .... ....|--- .... ....|--- .... ....
....|..|--- .... ....|G#3 2F3F ....|--- .... ....
....|..|--- .... ....|--- .... ....|--- .... ....
....|..|--- .... ....|--- .... ....|--- .... ....
....|..|--- .... ....|--- .... ....|--- .... ....
....|..|C-4 AF.F ....|G#3 2F3F ....|--- .... ....
 G#3|..|G#1 2A.F ....|--- .... ....|--- .... ....
....|..|--- .... ....|--- .... ....|--- .... ....
....|..|--- .... ....|--- .... ....|--- .... ....
....|..|--- .... ....|F#3 2F27 ....|--- .... ....
....|..|--- .... ....|--- .... ....|--- .... ....
....|..|--- .... ....|--- .... ....|--- .... ....
....|..|--- .... ....|--- .... ....|--- .... ....
....|..|C-4 CF.F ....|G#3 2F3F ....|D#4 2F47 ....
 G#3|..|G#1 2A.F ....|--- .... ....|--- .... ....
....|..|--- .... ....|--- .... ....|--- .... ....
....|..|--- .... ....|--- .... ....|--- .... ....
....|..|C-4 CF.A ....|G#3 2F3A ....|--- .... ....
....|..|--- .... ....|--- .... ....|--- .... ....
....|..|--- .... ....|--- .... ....|--- .... ....
....|..|--- .... ....|--- .... ....|--- .... ....
....|..|C-3 RF.F ....|G#3 2F3F ....|--- .... ....
 C#4|..|C#2 2A.F ....|--- .... ....|--- .... ....
....|..|--- .... ....|--- .... ....|--- .... ....
....|..|--- .... ....|--- .... ....|--- .... ....
....|..|--- .... ....|G#3 2F3F ....|--- .... ....
....|..|--- .... ....|--- .... ....|--- .... ....
....|..|--- .... ....|--- .... ....|--- .... ....
....|..|--- .... ....|--- .... ....|--- .... ....

[Pattern11]
....|..|C-4 AF.F ....|G#3 2F4F ....|E-4 2F1F ....
 C#4|..|C#2 2A.F ....|--- .... ....|--- .... ....
....|..|--- .... ....|--- .... ....|--- .... ....
....|..|--- .... ....|--- .... ....|--- .... ....
....|..|--- .... ....|--- .... ....|--- .... ....
....|..|--- .... ....|--- .... ....|--- .... ....
....|..|--- .... ....|--- .... ....|--- .... ....
....|..|--- .... ....|--- .... ....|--- .... ....
....|..|C-4 AF.F ....|G#3 2F37 ....|D#4 2F47 ....
 C#4|..|C#2 2A.F ....|--- .... ....|--- .... ....
....|..|--- .... ....|--- .... ....|--- .... ....
....|..|--- .... ....|--- .... ....|--- .... ....
....|..|C-4 CF.7 ....|G#3 2F37 ....|--- .... ....
....|..|--- .... ....|--- .... ....|--- .... ....
....|..|--- .... ....|--- .... ....|--- .... ....
....|..|--- .... ....|--- .... ....|--- .... ....
....|..|C-4 CF.F ....|G#3 2F4F ....|--- .... ....
 C#4|..|C#2 2A.F ....|--- .... ....|--- .... ....
....|..|--- .... ....|--- .... ....|--- .... ....
....|..|--- .... ....|--- .... ....|--- .... ....
....|..|--- .... ....|G#3 2F37 ....|--- .... ....
....|..|--- .... ....|--- .... ....|--- .... ....
....|..|--- .... ....|--- .... ....|--- .... ....
....|..|--- .... ....|--- .... ....|--- .... ....
....|..|C-3 RF.F ....|G#3 2F4F ....|E-4 2F1F ....
 C#4|..|C#2 2A.F ....|--- .... ....|--- .... ....
....|..|--- .... ....|--- .... ....|--- .... ....
....|..|--- .... ....|--- .... ....|--- .... ....
....|..|C-4 CF.F ....|G#3 2F4F ....|--- .... ....
....|..|--- .... ....|--- .... ....|--- .... ....
....|..|--- .... ....|--- .... ....|--- .... ....
....|..|--- .... ....|--- .... ....|--- .... ....
....|..|C-4 AF.F ....|G#3 2F4F ....|--- .... ....
 C#4|..|C#2 2A.F ....|--- .... ....|--- .... ....
....|..|--- .... ....|--- .... ....|--- .... ....
....|..|--- .... ....|--- .... ....|--- .... ....
....|..|--- .... ....|G#3 2F4F ....|--- .... ....
....|..|--- .... ....|--- .... ....|--- .... ....
....|..|--- .... ....|--- .... ....|--- .... ....
....|..|--- .... ....|--- .... ....|--- .... ....
....|..|C-4 AF.F ....|G#3 2F4F ....|--- .... ....
 G#3|..|G#1 2A.F ....|--- .... ....|--- .... ....
....|..|--- .... ....|--- .... ....|--- .... ....
....|..|--- .... ....|--- .... ....|--- .... ....
....|..|--- .... ....|G#3 2F37 ....|--- .... ....
....|..|--- .... ....|--- .... ....|--- .... ....
....|..|--- .... ....|--- .... ....|--- .... ....
....|..|--- .... ....|--- .... ....|--- .... ....
....|..|C-4 CF.F ....|G#3 2F4F ....|E-4 2F17 ....
 C#4|..|C#2 2A.F ....|--- .... ....|--- .... ....
....|..|--- .... ....|--- .... ....|--- .... ....
....|..|--- .... ....|--- .... ....|--- .... ....
....|..|C-4 CF.A ....|G#3 2F4A ....|--- .... ....
....|..|--- .... ....|--- .... ....|--- .... ....
....|..|--- .... ....|--- .... ....|--- .... ....
....|..|--- .... ....|--- .... ....|--- .... ....
....|..|C-3 RF.F ....|G#3 2F4F ....|--- .... ....
 B-3|..|B-1 2A.F ....|--- .... ....|--- .... ....
....|..|--- .... ....|--- .... ....|--- .... ....
....|..|--- .... ....|--- .... ....|--- .... ....
....|..|--- .... ....|G#3 2F4F ....|--- .... ....
....|..|--- .... ....|--- .... ....|--- .... ....
....|..|--- .... ....|--- .... ....|--- .... ....
....|..|--- .... ....|--- .... ....|--- .... ....
....|..|C-4 AF.F ....|F#3 2F3F ....|F#4 2F3F ....
 F#3|..|F#1 2A.F ....|--- .... ....|--- .... ....
....|..|--- .... ....|--- .... ....|--- .... ....
....|..|--- .... ....|--- .... ....|--- .... ....
....|..|--- .... ....|--- .... ....|--- .... ....
....|..|--- .... ....|--- .... ....|--- .... ....
....|..|--- .... ....|--- .... ....|--- .... ....
....|..|--- .... ....|--- .... ....|--- .... ....
....|..|C-4 AF.F ....|G#3 2F47 ....|E-4 2F17 ....
 F#3|..|F#1 2A.F ....|--- .... ....|--- .... ....
....|..|--- .... ....|--- .... ....|--- .... ....
....|..|--- .... ....|--- .... ....|--- .... ....
....|..|C-4 CF.7 ....|G#3 2F47 ....|--- .... ....
....|..|--- .... ....|--- .... ....|--- .... ....
....|..|--- .... ....|--- .... ....|--- .... ....
....|..|--- .... ....|--- .... ....|--- .... ....
....|..|C-4 CF.F ....|F#3 2F3F ....|G-3 2F1F ....
 F#3|..|F#1 2A.F ....|--- .... ....|R-- .... ....
....|..|--- .... ....|--- .... ....|--- .... ....
....|..|--- .... ....|--- .... ....|--- .... ....
....|..|--- .... ....|G#3 2F47 ....|--- .... ....
....|..|--- .... ....|--- .... ....|--- .... ....
....|..|--- .... ....|--- .... ....|--- .... ....
....|..|--- .... ....|--- .... ....|--- .... ....
....|..|C-3 RF.F ....|F#3 2F3F ....|F#4 2F3F ....
 F#3|..|F#1 2A.F ....|--- .... ....|--- .... ....
....|..|--- .... ....|--- .... ....|--- .... ....
....|..|--- .... ....|--- .... ....|--- .... ....
....|..|C-4 CF.F ....|F#3 2F3F ....|--- .... ....
....|..|--- .... ....|--- .... ....|--- .... ....
....|..|--- .... ....|--- .... ....|--- .... ....
....|..|--- .... ....|--- .... ....|--- .... ....
....|..|C-4 AF.F ....|F#3 2F3F ....|--- .... ....
 F#3|..|F#1 2A.F ....|--- .... ....|--- .... ....
....|..|--- .... ....|--- .... ....|--- .... ....
....|..|--- .... ....|--- .... ....|--- .... ....
....|..|--- .... ....|F#3 2F3F ....|--- .... ....
....|..|--- .... ....|--- .... ....|--- .... ....
....|..|--- .... ....|--- .... ....|--- .... ....
....|..|--- .... ....|--- .... ....|--- .... ....
....|..|C-4 AF.F ....|F#3 2F3F ....|F#4 2F3F ....
 F#3|..|F#1 2A.F ....|--- .... ....|R-- .... ....
....|..|--- .... ....|--- .... ....|--- .... ....
....|..|--- .... ....|--- .... ....|--- .... ....
....|..|--- .... ....|G#3 2F47 ....|--- .... ....
....|..|--- .... ....|--- .... ....|--- .... ....
....|..|--- .... ....|--- .... ....|--- .... ....
....|..|--- .... ....|--- .... ....|--- .... ....
....|..|C-4 CF.F ....|F#3 2F3F ....|F#4 2F3F ....
 F#3|..|F#1 2A.F ....|--- .... ....|--- .... ....
....|..|--- .... ....|--- .... ....|--- .... ....
....|..|--- .... ....|--- .... ....|--- .... ....
....|..|C-4 CF.A ....|F#3 2F3A ....|--- .... ....
....|..|--- .... ....|--- .... ....|--- .... ....
....|..|--- .... ....|--- .... ....|--- .... ....
....|..|--- .... ....|--- .... ....|--- .... ....
....|..|C-3 RF.F ....|F#3 2F3F ....|--- .... ....
 F#3|..|F#1 2A.F ....|--- .... ....|--- .... ....
....|..|--- .... ....|--- .... ....|--- .... ....
....|..|--- .... ....|--- .... ....|--- .... ....
....|..|--- .... ....|F#3 2F3F ....|--- .... ....
....|..|--- .... ....|--- .... ....|--- .... ....
....|..|--- .... ....|--- .... ....|--- .... ....
....|..|--- .... ....|--- .... ....|--- .... ....
....|..|C-4 AF.F ....|G#3 2F3F ....|D#4 2F4F ....
 G#3|..|G#1 2A.F ....|--- .... ....|R-- .... ....
....|..|--- .... ....|--- .... ....|--- .... ....
....|..|--- .... ....|--- .... ....|--- .... ....
....|..|--- .... ....|--- .... ....|--- .... ....
....|..|--- .... ....|--- .... ....|--- .... ....
....|..|--- .... ....|--- .... ....|--- .... ....
....|..|--- .... ....|--- .... ....|--- .... ....
....|..|C-4 AF.F ....|F#3 2F37 ....|F#4 2F37 ....
 G#3|..|G#1 2A.F ....|--- .... ....|--- .... ....
....|..|--- .... ....|--- .... ....|--- .... ....
....|..|--- .... ....|--- .... ....|--- .... ....
....|..|C-4 CF.7 ....|F#3 2F37 ....|--- .... ....
....|..|--- .... ....|--- .... ....|--- .... ....
....|..|--- .... ....|--- .... ....|--- .... ....
....|..|--- .... ....|--- .... ....|--- .... ....
....|..|C-4 CF.F ....|G#3 2F3F ....|G-3 2F1F ....
 G#3|..|G#1 2A.F ....|--- .... ....|R-- .... ....
....|..|--- .... ....|--- .... ....|--- .... ....
....|..|--- .... ....|--- .... ....|--- .... ....
....|..|--- .... ....|F#3 2F37 ....|--- .... ....
....|..|--- .... ....|--- .... ....|--- .... ....
....|..|--- .... ....|--- .... ....|--- .... ....
....|..|--- .... ....|--- .... ....|--- .... ....
....|..|C-3 RF.F ....|G#3 2F3F ....|G#4 2F.F ....
 G#3|..|G#1 2A.F ....|--- .... ....|--- .... ....
....|..|--- .... ....|--- .... ....|--- .... ....
....|..|--- .... ....|--- .... ....|--- .... ....
....|..|C-4 CF.F ....|G#3 2F3F ....|--- .... ....
....|..|--- .... ....|--- .... ....|--- .... ....
....|..|--- .... ....|--- .... ....|--- .... ....
....|..|--- .... ....|--- .... ....|--- .... ....
....|..|C-4 AF.F ....|G#3 2F3F ....|D#4 2F.F ....
 G#3|..|G#1 2A.F ....|--- .... ....|--- .... ....
....|..|--- .... ....|--- .... ....|--- .... ....
....|..|--- .... ....|--- .... ....|--- .... ....
....|..|--- .... ....|G#3 2F3F ....|--- .... ....
....|..|--- .... ....|--- .... ....|--- .... ....
....|..|--- .... ....|--- .... ....|--- .... ....
....|..|--- .... ....|--- .... ....|--- .... ....
....|..|C-4 AF.F ....|G#3 2F3F ....|B-3 2F.F ....
 G#3|..|G#1 2A.F ....|--- .... ....|R-- .... ....
....|..|--- .... ....|--- .... ....|--- .... ....
....|..|--- .... ....|--- .... ....|--- .... ....
....|..|--- .... ....|F#3 2F37 ....|--- .... ....
....|..|--- .... ....|--- .... ....|--- .... ....
....|..|--- .... ....|--- .... ....|--- .... ....
....|..|--- .... ....|--- .... ....|--- .... ....
....|..|C-4 CF.F ....|G#3 2F3F ....|D#4 2F4F ....
 G#3|..|G#1 2A.F ....|--- .... ....|--- .... ....
....|..|--- .... ....|--- .... ....|--- .... ....
....|..|--- .... ....|--- .... ....|--- .... ....
....|..|C-4 CF.A ....|G#3 2F3A ....|--- .... ....
....|..|--- .... ....|--- .... ....|--- .... ....
....|..|--- .... ....|--- .... ....|--- .... ....
....|..|--- .... ....|--- .... ....|--- .... ....
....|..|C-3 RF.F ....|G#3 2F3F ....|D#4 2F.A ....
 C#4|..|C#2 2A.F ....|--- .... ....|--- .... ....
....|..|--- .... ....|--- .... ....|--- .... ....
....|..|--- .... ....|--- .... ....|--- .... ....
....|..|--- .... ....|G#3 2F3F ....|--- .... ....
....|..|--- .... ....|--- .... ....|--- .... ....
....|..|--- .... ....|--- .... ....|--- .... ....
....|..|--- .... ....|--- .... ....|--- .... ....
....|..|C-4 AF.F ....|G#3 2F4F ....|C#4 2F3F ....
 C#4|..|C#2 2A.F ....|--- .... ....|R-- .... ....
....|..|--- .... ....|--- .... ....|--- .... ....
....|..|--- .... ....|--- .... ....|--- .... ....
....|..|--- .... ....|--- .... ....|--- .... ....
....|..|--- .... ....|--- .... ....|--- .... ....
....|..|--- .... ....|--- .... ....|--- .... ....
....|..|--- .... ....|--- .... ....|--- .... ....
....|..|C-4 AF.F ....|G#3 2F37 ....|G#4 2F.7 ....
 C#4|..|C#2 2A.F ....|--- .... ....|--- .... ....
....|..|--- .... ....|--- .... ....|--- .... ....
....|..|--- .... ....|--- .... ....|--- .... ....
....|..|C-4 CF.7 ....|G#3 2F37 ....|--- .... ....
....|..|--- .... ....|--- .... ....|--- .... ....
....|..|--- .... ....|--- .... ....|--- .... ....
....|..|--- .... ....|--- .... ....|--- .... ....
....|..|C-4 CF.F ....|G#3 2F4F ....|C#4 2F3F ....
 C#4|..|C#2 2A.F ....|--- .... ....|--- .... ....
....|..|--- .... ....|--- .... ....|--- .... ....
....|..|--- .... ....|--- .... ....|--- .... ....
....|..|--- .... ....|G#3 2F37 ....|--- .... ....
....|..|--- .... ....|--- .... ....|--- .... ....
....|..|--- .... ....|--- .... ....|--- .... ....
....|..|--- .... ....|--- .... ....|--- .... ....
....|..|C-3 RF.F ....|G#3 2F4F ....|C#4 2F3F ....
 C#4|..|C#2 2A.F ....|--- .... ....|--- .... ....
....|..|--- .... ....|--- .... ....|--- .... ....
....|..|--- .... ....|--- .... ....|--- .... ....
....|..|C-4 CF.F ....|G#3 2F4F ....|--- .... ....
....|..|--- .... ....|--- .... ....|--- .... ....
....|..|--- .... ....|--- .... ....|--- .... ....
....|..|--- .... ....|--- .... ....|--- .... ....
....|..|C-4 AF.F ....|G#3 2F4F ....|C#4 2F3F ....
 C#4|..|C#2 2A.F ....|--- .... ....|--- .... ....
....|..|--- .... ....|--- .... ....|--- .... ....
....|..|--- .... ....|--- .... ....|--- .... ....
....|..|--- .... ....|G#3 2F4F ....|--- .... ....
....|..|--- .... ....|--- .... ....|--- .... ....
....|..|--- .... ....|--- .... ....|--- .... ....
....|..|--- .... ....|--- .... ....|--- .... ....
....|..|C-4 AF.F ....|G#3 2F4F ....|C#4 2F3F ....
 G#3|..|G#1 2A.F ....|--- .... ....|--- .... ....
....|..|--- .... ....|--- .... ....|--- .... ....
....|..|--- .... ....|--- .... ....|--- .... ....
....|..|--- .... ....|G#3 2F37 ....|--- .... ....
....|..|--- .... ....|--- .... ....|--- .... ....
....|..|--- .... ....|--- .... ....|--- .... ....
....|..|--- .... ....|--- .... ....|--- .... ....
....|..|C-4 CF.F ....|G#3 2F4F ....|C#4 2F3F ....
 C#4|..|C#2 2A.F ....|--- .... ....|--- .... ....
....|..|--- .... ....|--- .... ....|--- .... ....
....|..|--- .... ....|--- .... ....|--- .... ....
....|..|C-4 CF.A ....|G#3 2F4A ....|--- .... ....
....|..|--- .... ....|--- .... ....|--- .... ....
....|..|--- .... ....|--- .... ....|--- .... ....
....|..|--- .... ....|--- .... ....|--- .... ....
....|..|C-3 RF.F ....|G#3 2F4F ....|C#4 2F3F ....
 B-3|..|B-1 2A.F ....|--- .... ....|--- .... ....
....|..|--- .... ....|--- .... ....|--- .... ....
....|..|--- .... ....|--- .... ....|--- .... ....
....|..|--- .... ....|G#3 2F4F ....|--- .... ....
....|..|--- .... ....|--- .... ....|--- .... ....
....|..|--- .... ....|--- .... ....|--- .... ....
....|..|--- .... ....|--- .... ....|--- .... ....

[Pattern12]
....|..|C-4 AF.F ....|B-3 2F9F ....|D-4 2F1F ....
....|..|C#2 2F.7 ....|--- .... ....|--- .... ....
....|..|--- .... ....|--- .... ....|--- .... ....
....|..|--- .... ....|--- .... ....|--- .... ....
....|..|--- .... ....|--- .... ....|--- .... ....
....|..|--- .... ....|--- .... ....|--- .... ....
....|..|--- .... ....|--- .... ....|--- .... ....
....|..|--- .... ....|--- .... ....|--- .... ....
....|..|C-3 RF.F ....|B-3 2F9F ....|D-4 2F1F ....
 G#3|..|G#1 2A.F ....|--- .... ....|--- .... ....
....|..|--- .... ....|--- .... ....|--- .... ....
....|..|--- .... ....|--- .... ....|--- .... ....
....|..|C-4 CF.7 ....|G#3 2F47 ....|--- .... ....
....|..|--- .... ....|--- .... ....|--- .... ....
....|..|--- .... ....|--- .... ....|--- .... ....
....|..|--- .... ....|--- .... ....|--- .... ....
....|..|C-4 AF.F ....|G#3 2F47 ....|C#4 2F37 ....
 B-3|..|B-1 2A.F ....|--- .... ....|--- .... ....
....|..|--- .... ....|--- .... ....|--- .... ....
....|..|--- .... ....|--- .... ....|--- .... ....
....|..|--- .... ....|G#3 2F47 ....|--- .... ....
....|..|--- .... ....|--- .... ....|--- .... ....
....|..|--- .... ....|--- .... ....|--- .... ....
....|..|--- .... ....|--- .... ....|--- .... ....
....|..|C-3 RF.F ....|F#3 2FCF ....|C-4 2FEF ....
 A-3|..|A-1 2A.F ....|--- .... ....|--- .... ....
....|..|--- .... ....|--- .... ....|--- .... ....
....|..|--- .... ....|--- .... ....|--- .... ....
....|..|C-4 AF.F ....|--- .... ....|--- .... ....
....|..|--- .... ....|--- .... ....|--- .... ....
....|..|--- .... ....|--- .... ....|--- .... ....
....|..|--- .... ....|--- .... ....|--- .... ....
....|..|C-3 RF.F ....|G#3 2F47 ....|C#4 2F37 ....
 G#3|..|G#1 2A.F ....|--- .... ....|--- .... ....
....|..|--- .... ....|--- .... ....|--- .... ....
....|..|--- .... ....|--- .... ....|--- .... ....
....|..|--- .... ....|--- .... ....|--- .... ....
....|..|--- .... ....|--- .... ....|--- .... ....
....|..|--- .... ....|--- .... ....|--- .... ....
....|..|--- .... ....|--- .... ....|--- .... ....
....|..|C-4 AF.F ....|F#3 2FCF ....|C-4 2FEF ....
....|..|B-1 2F.7 ....|--- .... ....|--- .... ....
....|..|--- .... ....|--- .... ....|--- .... ....
....|..|--- .... ....|--- .... ....|--- .... ....
....|..|--- .... ....|G#3 2F47 ....|--- .... ....
....|..|--- .... ....|--- .... ....|--- .... ....
....|..|--- .... ....|--- .... ....|--- .... ....
....|..|--- .... ....|--- .... ....|--- .... ....
....|..|C-4 AF.F ....|F#3 2FCF ....|C-4 2FEF ....
 E-3|..|E-1 2A.F ....|--- .... ....|--- .... ....
....|..|--- .... ....|--- .... ....|--- .... ....
....|..|--- .... ....|--- .... ....|--- .... ....
....|..|C-4 AF.A ....|--- .... ....|--- .... ....
....|..|--- .... ....|--- .... ....|--- .... ....
....|..|--- .... ....|--- .... ....|--- .... ....
....|..|--- .... ....|--- .... ....|--- .... ....
....|..|C-3 RF.F ....|B-3 2F97 ....|D-4 2F17 ....
 E-3|..|E-1 2A.F ....|--- .... ....|--- .... ....
....|..|--- .... ....|--- .... ....|--- .... ....
....|..|--- .... ....|--- .... ....|--- .... ....
....|..|--- .... ....|--- .... ....|--- .... ....
....|..|--- .... ....|--- .... ....|--- .... ....
....|..|--- .... ....|--- .... ....|--- .... ....
....|..|--- .... ....|--- .... ....|--- .... ....
....|..|C-4 AF.F ....|E-3 2F1F ....|E-4 2F1F ....
 A-3|..|A-1 2A.F ....|--- .... ....|--- .... ....
....|..|--- .... ....|--- .... ....|--- .... ....
....|..|--- .... ....|--- .... ....|--- .... ....
....|..|--- .... ....|--- .... ....|--- .... ....
....|..|--- .... ....|--- .... ....|--- .... ....
....|..|--- .... ....|--- .... ....|--- .... ....
....|..|--- .... ....|--- .... ....|--- .... ....
....|..|C-3 RF.F ....|F#3 2FC7 ....|C-4 2FE7 ....
 A-3|..|A-1 2A.F ....|--- .... ....|--- .... ....
....|..|--- .... ....|--- .... ....|--- .... ....
....|..|--- .... ....|--- .... ....|--- .... ....
....|..|C-4 AF.7 ....|--- .... ....|--- .... ....
....|..|--- .... ....|--- .... ....|--- .... ....
....|..|--- .... ....|--- .... ....|--- .... ....
....|..|--- .... ....|--- .... ....|--- .... ....
....|..|C-4 CF.F ....|E-3 2F1F ....|--- .... ....
 A-3|..|A-1 2A.F ....|--- .... ....|--- .... ....
....|..|--- .... ....|--- .... ....|--- .... ....
....|..|--- .... ....|--- .... ....|--- .... ....
....|..|--- .... ....|--- .... ....|--- .... ....
....|..|--- .... ....|--- .... ....|--- .... ....
....|..|--- .... ....|--- .... ....|--- .... ....
....|..|--- .... ....|--- .... ....|--- .... ....
....|..|C-3 RF.F ....|E-3 2F1F ....|E-4 2F1F ....
 A-3|..|A-1 2A.F ....|--- .... ....|--- .... ....
....|..|--- .... ....|--- .... ....|--- .... ....
....|..|--- .... ....|--- .... ....|--- .... ....
....|..|C-4 CF.F ....|E-3 2F1F ....|--- .... ....
....|..|--- .... ....|--- .... ....|--- .... ....
....|..|--- .... ....|--- .... ....|--- .... ....
....|..|--- .... ....|--- .... ....|--- .... ....
....|..|C-4 AF.F ....|E-3 2F1F ....|C-4 2FE7 ....
 A-3|..|A-1 2A.F ....|--- .... ....|--- .... ....
....|..|--- .... ....|--- .... ....|--- .... ....
....|..|--- .... ....|--- .... ....|--- .... ....
....|..|--- .... ....|E-3 2F1F ....|--- .... ....
....|..|--- .... ....|--- .... ....|--- .... ....
....|..|--- .... ....|--- .... ....|--- .... ....
....|..|--- .... ....|--- .... ....|--- .... ....
....|..|C-4 AF.F ....|E-3 2F1F ....|--- .... ....
 A-3|..|A-1 2A.F ....|--- .... ....|--- .... ....
....|..|--- .... ....|--- .... ....|--- .... ....
....|..|--- .... ....|--- .... ....|--- .... ....
....|..|--- .... ....|--- .... ....|--- .... ....
....|..|--- .... ....|--- .... ....|--- .... ....
....|..|--- .... ....|--- .... ....|--- .... ....
....|..|--- .... ....|--- .... ....|--- .... ....
....|..|C-4 CF.F ....|E-3 2F1F ....|E-4 2F17 ....
 A-3|..|A-1 2A.F ....|--- .... ....|--- .... ....
....|..|--- .... ....|--- .... ....|--- .... ....
....|..|--- .... ....|--- .... ....|--- .... ....
....|..|C-4 CF.A ....|E-3 2F1A ....|--- .... ....
....|..|--- .... ....|--- .... ....|--- .... ....
....|..|--- .... ....|--- .... ....|--- .... ....
....|..|--- .... ....|--- .... ....|--- .... ....
....|..|C-3 RF.F ....|E-3 2F1F ....|--- .... ....
 A-3|..|A-1 2A.F ....|--- .... ....|--- .... ....
....|..|--- .... ....|--- .... ....|--- .... ....
....|..|--- .... ....|--- .... ....|--- .... ....
....|..|--- .... ....|E-3 2F1F ....|--- .... ....
....|..|--- .... ....|--- .... ....|--- .... ....
....|..|--- .... ....|--- .... ....|--- .... ....
....|..|--- .... ....|--- .... ....|--- .... ....
....|..|C-4 AF.F ....|F#3 2F2F ....|D#4 2FEF ....
 B-3|..|B-1 2A.F ....|--- .... ....|--- .... ....
....|..|--- .... ....|--- .... ....|--- .... ....
....|..|--- .... ....|--- .... ....|--- .... ....
....|..|--- .... ....|--- .... ....|--- .... ....
....|..|--- .... ....|--- .... ....|--- .... ....
....|..|--- .... ....|--- .... ....|--- .... ....
....|..|--- .... ....|--- .... ....|--- .... ....
....|..|C-4 AF.F ....|E-3 2F17 ....|E-4 2F17 ....
 B-3|..|B-1 2A.F ....|--- .... ....|--- .... ....
....|..|--- .... ....|--- .... ....|--- .... ....
....|..|--- .... ....|--- .... ....|--- .... ....
....|..|C-4 CF.7 ....|E-3 2F17 ....|--- .... ....
....|..|--- .... ....|--- .... ....|--- .... ....
....|..|--- .... ....|--- .... ....|--- .... ....
....|..|--- .... ....|--- .... ....|--- .... ....
....|..|C-4 CF.F ....|F#3 2F2F ....|--- .... ....
 B-3|..|B-1 2A.F ....|--- .... ....|--- .... ....
....|..|--- .... ....|--- .... ....|--- .... ....
....|..|--- .... ....|--- .... ....|--- .... ....
....|..|--- .... ....|E-3 2F17 ....|--- .... ....
....|..|--- .... ....|--- .... ....|--- .... ....
....|..|--- .... ....|--- .... ....|--- .... ....
....|..|--- .... ....|--- .... ....|--- .... ....
....|..|C-3 RF.F ....|F#3 2F2F ....|D#4 2FEF ....
 B-3|..|B-1 2A.F ....|--- .... ....|--- .... ....
....|..|--- .... ....|--- .... ....|--- .... ....
....|..|--- .... ....|--- .... ....|--- .... ....
....|..|C-4 CF.F ....|F#3 2F2F ....|--- .... ....
....|..|--- .... ....|--- .... ....|--- .... ....
....|..|--- .... ....|--- .... ....|--- .... ....
....|..|--- .... ....|--- .... ....|--- .... ....
....|..|C-4 AF.F ....|F#3 2F2F ....|--- .... ....
 B-3|..|B-1 2A.F ....|--- .... ....|--- .... ....
....|..|--- .... ....|--- .... ....|--- .... ....
....|..|--- .... ....|--- .... ....|--- .... ....
....|..|--- .... ....|F#3 2F2F ....|--- .... ....
....|..|--- .... ....|--- .... ....|--- .... ....
....|..|--- .... ....|--- .... ....|--- .... ....
....|..|--- .... ....|--- .... ....|--- .... ....
....|..|C-4 AF.F ....|F#3 2F2F ....|--- .... ....
 B-3|..|B-1 2A.F ....|--- .... ....|--- .... ....
....|..|--- .... ....|--- .... ....|--- .... ....
....|..|--- .... ....|--- .... ....|--- .... ....
....|..|--- .... ....|E-3 2F17 ....|--- .... ....
....|..|--- .... ....|--- .... ....|--- .... ....
....|..|--- .... ....|--- .... ....|--- .... ....
....|..|--- .... ....|--- .... ....|--- .... ....
....|..|C-4 CF.F ....|F#3 2F2F ....|D#4 2FE7 ....
 B-3|..|B-1 2A.F ....|--- .... ....|--- .... ....
....|..|--- .... ....|--- .... ....|--- .... ....
....|..|--- .... ....|--- .... ....|--- .... ....
....|..|C-4 CF.A ....|F#3 2F2A ....|--- .... ....
....|..|--- .... ....|--- .... ....|--- .... ....
....|..|--- .... ....|--- .... ....|--- .... ....
....|..|--- .... ....|--- .... ....|--- .... ....
....|..|C-3 RF.F ....|F#3 2F2F ....|--- .... ....
 B-3|..|B-1 2A.F ....|--- .... ....|--- .... ....
....|..|--- .... ....|--- .... ....|--- .... ....
....|..|--- .... ....|--- .... ....|--- .... ....
....|..|--- .... ....|F#3 2F2F ....|--- .... ....
....|..|--- .... ....|--- .... ....|--- .... ....
....|..|--- .... ....|--- .... ....|--- .... ....
....|..|--- .... ....|--- .... ....|--- .... ....
....|..|C-4 AF.F ....|G#3 2F3F ....|D#4 2F4F ....
 G#3|..|G#1 2A.F ....|--- .... ....|--- .... ....
....|..|--- .... ....|--- .... ....|--- .... ....
....|..|--- .... ....|--- .... ....|--- .... ....
....|..|--- .... ....|--- .... ....|--- .... ....
....|..|--- .... ....|--- .... ....|--- .... ....
....|..|--- .... ....|--- .... ....|--- .... ....
....|..|--- .... ....|--- .... ....|--- .... ....
....|..|C-4 AF.F ....|F#3 2F27 ....|D#4 2FE7 ....
 G#3|..|G#1 2A.F ....|--- .... ....|--- .... ....
....|..|--- .... ....|--- .... ....|--- .... ....
....|..|--- .... ....|--- .... ....|--- .... ....
....|..|C-4 CF.7 ....|F#3 2F27 ....|--- .... ....
....|..|--- .... ....|--- .... ....|--- .... ....
....|..|--- .... ....|--- .... ....|--- .... ....
....|..|--- .... ....|--- .... ....|--- .... ....
....|..|C-4 CF.F ....|G#3 2F3F ....|--- .... ....
 G#3|..|G#1 2A.F ....|--- .... ....|--- .... ....
....|..|--- .... ....|--- .... ....|--- .... ....
....|..|--- .... ....|--- .... ....|--- .... ....
....|..|--- .... ....|F#3 2F27 ....|--- .... ....
....|..|--- .... ....|--- .... ....|--- .... ....
....|..|--- .... ....|--- .... ....|--- .... ....
....|..|--- .... ....|--- .... ....|--- .... ....
....|..|C-3 RF.F ....|G#3 2F3F ....|D#4 2F4F ....
 G#3|..|G#1 2A.F ....|--- .... ....|--- .... ....
....|..|--- .... ....|--- .... ....|--- .... ....
....|..|--- .... ....|--- .... ....|--- .... ....
....|..|C-4 CF.F ....|G#3 2F3F ....|--- .... ....
....|..|--- .... ....|--- .... ....|--- .... ....
....|..|--- .... ....|--- .... ....|--- .... ....
....|..|--- .... ....|--- .... ....|--- .... ....
....|..|C-4 AF.F ....|G#3 2F3F ....|--- .... ....
 G#3|..|G#1 2A.F ....|--- .... ....|--- .... ....
....|..|--- .... ....|--- .... ....|--- .... ....
....|..|--- .... ....|--- .... ....|--- .... ....
....|..|--- .... ....|G#3 2F3F ....|--- .... ....
....|..|--- .... ....|--- .... ....|--- .... ....
....|..|--- .... ....|--- .... ....|--- .... ....
....|..|--- .... ....|--- .... ....|--- .... ....
....|..|C-4 AF.F ....|G#3 2F3F ....|--- .... ....
 G#3|..|G#1 2A.F ....|--- .... ....|--- .... ....
....|..|--- .... ....|--- .... ....|--- .... ....
....|..|--- .... ....|--- .... ....|--- .... ....
....|..|--- .... ....|F#3 2F27 ....|--- .... ....
....|..|--- .... ....|--- .... ....|--- .... ....
....|..|--- .... ....|--- .... ....|--- .... ....
....|..|--- .... ....|--- .... ....|--- .... ....
....|..|C-4 CF.F ....|G#3 2F3F ....|D#4 2F47 ....
 G#3|..|G#1 2A.F ....|--- .... ....|--- .... ....
....|..|--- .... ....|--- .... ....|--- .... ....
....|..|--- .... ....|--- .... ....|--- .... ....
....|..|C-4 CF.A ....|G#3 2F3A ....|--- .... ....
....|..|--- .... ....|--- .... ....|--- .... ....
....|..|--- .... ....|--- .... ....|--- .... ....
....|..|--- .... ....|--- .... ....|--- .... ....
....|..|C-3 RF.F ....|G#3 2F3F ....|--- .... ....
 C#4|..|C#2 2A.F ....|--- .... ....|--- .... ....
....|..|--- .... ....|--- .... ....|--- .... ....
....|..|--- .... ....|--- .... ....|--- .... ....
....|..|--- .... ....|G#3 2F3F ....|--- .... ....
....|..|--- .... ....|--- .... ....|--- .... ....
....|..|--- .... ....|--- .... ....|--- .... ....
....|..|--- .... ....|--- .... ....|--- .... ....

[Pattern13]
....|..|C-4 AF.F ....|G#3 2F4F ....|E-4 2F1F ....
 C#4|..|C#2 2A.F ....|--- .... ....|--- .... ....
....|..|--- .... ....|--- .... ....|--- .... ....
....|..|--- .... ....|--- .... ....|--- .... ....
....|..|--- .... ....|--- .... ....|--- .... ....
....|..|--- .... ....|--- .... ....|--- .... ....
....|..|--- .... ....|--- .... ....|--- .... ....
....|..|--- .... ....|--- .... ....|--- .... ....
....|..|C-4 AF.F ....|G#3 2F37 ....|D#4 2F47 ....
 C#4|..|C#2 2A.F ....|--- .... ....|--- .... ....
....|..|--- .... ....|--- .... ....|--- .... ....
....|..|--- .... ....|--- .... ....|--- .... ....
....|..|C-4 CF.7 ....|G#3 2F37 ....|--- .... ....
....|..|--- .... ....|--- .... ....|--- .... ....
....|..|--- .... ....|--- .... ....|--- .... ....
....|..|--- .... ....|--- .... ....|--- .... ....
....|..|C-4 CF.F ....|G#3 2F4F ....|--- .... ....
 C#4|..|C#2 2A.F ....|--- .... ....|--- .... ....
....|..|--- .... ....|--- .... ....|--- .... ....
....|..|--- .... ....|--- .... ....|--- .... ....
....|..|--- .... ....|G#3 2F37 ....|--- .... ....
....|..|--- .... ....|--- .... ....|--- .... ....
....|..|--- .... ....|--- .... ....|--- .... ....
....|..|--- .... ....|--- .... ....|--- .... ....
....|..|C-3 RF.F ....|G#3 2F4F ....|E-4 2F1F ....
 C#4|..|C#2 2A.F ....|--- .... ....|--- .... ....
....|..|--- .... ....|--- .... ....|--- .... ....
....|..|--- .... ....|--- .... ....|--- .... ....
....|..|C-4 CF.F ....|G#3 2F4F ....|--- .... ....
....|..|--- .... ....|--- .... ....|--- .... ....
....|..|--- .... ....|--- .... ....|--- .... ....
....|..|--- .... ....|--- .... ....|--- .... ....
....|..|C-4 AF.F ....|G#3 2F4F ....|--- .... ....
 C#4|..|C#2 2A.F ....|--- .... ....|--- .... ....
....|..|--- .... ....|--- .... ....|--- .... ....
....|..|--- .... ....|--- .... ....|--- .... ....
....|..|--- .... ....|G#3 2F4F ....|--- .... ....
....|..|--- .... ....|--- .... ....|--- .... ....
....|..|--- .... ....|--- .... ....|--- .... ....
....|..|--- .... ....|--- .... ....|--- .... ....
....|..|C-4 AF.F ....|G#3 2F4F ....|--- .... ....
 G#3|..|G#1 2A.F ....|--- .... ....|--- .... ....
....|..|--- .... ....|--- .... ....|--- .... ....
....|..|--- .... ....|--- .... ....|--- .... ....
....|..|--- .... ....|G#3 2F37 ....|--- .... ....
....|..|--- .... ....|--- .... ....|--- .... ....
....|..|--- .... ....|--- .... ....|--- .... ....
....|..|--- .... ....|--- .... ....|--- .... ....
....|..|C-4 CF.F ....|G#3 2F4F ....|E-4 2F17 ....
 C#4|..|C#2 2A.F ....|--- .... ....|--- .... ....
....|..|--- .... ....|--- .... ....|--- .... ....
....|..|--- .... ....|--- .... ....|--- .... ....
....|..|C-4 CF.A ....|G#3 2F4A ....|--- .... ....
....|..|--- .... ....|--- .... ....|--- .... ....
....|..|--- .... ....|--- .... ....|--- .... ....
....|..|--- .... ....|--- .... ....|--- .... ....
....|..|C-3 RF.F ....|G#3 2F4F ....|--- .... ....
 B-3|..|B-1 2A.F ....|--- .... ....|--- .... ....
....|..|--- .... ....|--- .... ....|--- .... ....
....|..|--- .... ....|--- .... ....|--- .... ....
....|..|--- .... ....|G#3 2F4F ....|--- .... ....
....|..|--- .... ....|--- .... ....|--- .... ....
....|..|--- .... ....|--- .... ....|--- .... ....
....|..|--- .... ....|--- .... ....|--- .... ....
....|..|C-4 AF.F ....|F#3 2F3F ....|F#4 2F3F ....
 F#3|..|F#1 2A.F ....|--- .... ....|--- .... ....
....|..|--- .... ....|--- .... ....|--- .... ....
....|..|--- .... ....|--- .... ....|--- .... ....
....|..|--- .... ....|--- .... ....|--- .... ....
....|..|--- .... ....|--- .... ....|--- .... ....
....|..|--- .... ....|--- .... ....|--- .... ....
....|..|--- .... ....|--- .... ....|--- .... ....
....|..|C-4 AF.F ....|G#3 2F47 ....|E-4 2F17 ....
 F#3|..|F#1 2A.F ....|--- .... ....|--- .... ....
....|..|--- .... ....|--- .... ....|--- .... ....
....|..|--- .... ....|--- .... ....|--- .... ....
....|..|C-4 CF.7 ....|G#3 2F47 ....|--- .... ....
....|..|--- .... ....|--- .... ....|--- .... ....
....|..|--- .... ....|--- .... ....|--- .... ....
....|..|--- .... ....|--- .... ....|--- .... ....
....|..|C-4 CF.F ....|F#3 2F3F ....|--- .... ....
 F#3|..|F#1 2A.F ....|--- .... ....|--- .... ....
....|..|--- .... ....|--- .... ....|--- .... ....
....|..|--- .... ....|--- .... ....|--- .... ....
....|..|--- .... ....|G#3 2F47 ....|--- .... ....
....|..|--- .... ....|--- .... ....|--- .... ....
....|..|--- .... ....|--- .... ....|--- .... ....
....|..|--- .... ....|--- .... ....|--- .... ....
....|..|C-3 RF.F ....|F#3 2F3F ....|F#4 2F3F ....
 F#3|..|F#1 2A.F ....|--- .... ....|--- .... ....
....|..|--- .... ....|--- .... ....|--- .... ....
....|..|--- .... ....|--- .... ....|--- .... ....
....|..|C-4 CF.F ....|F#3 2F3F ....|--- .... ....
....|..|--- .... ....|--- .... ....|--- .... ....
....|..|--- .... ....|--- .... ....|--- .... ....
....|..|--- .... ....|--- .... ....|--- .... ....
....|..|C-4 AF.F ....|F#3 2F3F ....|--- .... ....
 F#3|..|F#1 2A.F ....|--- .... ....|--- .... ....
....|..|--- .... ....|--- .... ....|--- .... ....
....|..|--- .... ....|--- .... ....|--- .... ....
....|..|--- .... ....|F#3 2F3F ....|--- .... ....
....|..|--- .... ....|--- .... ....|--- .... ....
....|..|--- .... ....|--- .... ....|--- .... ....
....|..|--- .... ....|--- .... ....|--- .... ....
....|..|C-4 AF.F ....|F#3 2F3F ....|--- .... ....
 F#3|..|F#1 2A.F ....|--- .... ....|--- .... ....
....|..|--- .... ....|--- .... ....|--- .... ....
....|..|--- .... ....|--- .... ....|--- .... ....
....|..|--- .... ....|G#3 2F47 ....|--- .... ....
....|..|--- .... ....|--- .... ....|--- .... ....
....|..|--- .... ....|--- .... ....|--- .... ....
....|..|--- .... ....|--- .... ....|--- .... ....
....|..|C-4 CF.F ....|F#3 2F3F ....|F#4 2F37 ....
 F#3|..|F#1 2A.F ....|--- .... ....|--- .... ....
....|..|--- .... ....|--- .... ....|--- .... ....
....|..|--- .... ....|--- .... ....|--- .... ....
....|..|C-4 CF.A ....|F#3 2F3A ....|--- .... ....
....|..|--- .... ....|--- .... ....|--- .... ....
....|..|--- .... ....|--- .... ....|--- .... ....
....|..|--- .... ....|--- .... ....|--- .... ....
....|..|C-3 RF.F ....|F#3 2F3F ....|--- .... ....
 F#3|..|F#1 2A.F ....|--- .... ....|--- .... ....
....|..|--- .... ....|--- .... ....|--- .... ....
....|..|--- .... ....|--- .... ....|--- .... ....
....|..|--- .... ....|F#3 2F3F ....|--- .... ....
....|..|--- .... ....|--- .... ....|--- .... ....
....|..|--- .... ....|--- .... ....|--- .... ....
....|..|--- .... ....|--- .... ....|--- .... ....
....|..|C-4 AF.F ....|G#3 2F3F ....|D#4 2F4F ....
 G#3|..|G#1 2A.F ....|--- .... ....|--- .... ....
....|..|--- .... ....|--- .... ....|--- .... ....
....|..|--- .... ....|--- .... ....|--- .... ....
....|..|--- .... ....|--- .... ....|--- .... ....
....|..|--- .... ....|--- .... ....|--- .... ....
....|..|--- .... ....|--- .... ....|--- .... ....
....|..|--- .... ....|--- .... ....|--- .... ....
....|..|C-4 AF.F ....|F#3 2F37 ....|D#4 2F4F ....
 G#3|..|G#1 2A.F ....|--- .... ....|--- .... ....
....|..|--- .... ....|--- .... ....|--- .... ....
....|..|--- .... ....|--- .... ....|--- .... ....
....|..|C-4 CF.7 ....|F#3 2F37 ....|--- .... ....
....|..|--- .... ....|--- .... ....|--- .... ....
....|..|--- .... ....|--- .... ....|--- .... ....
....|..|--- .... ....|--- .... ....|--- .... ....
....|..|C-4 CF.F ....|G#3 2F3F ....|D#4 2F4F ....
 G#3|..|G#1 2A.F ....|--- .... ....|--- .... ....
....|..|--- .... ....|--- .... ....|--- .... ....
....|..|--- .... ....|--- .... ....|--- .... ....
....|..|--- .... ....|F#3 2F37 ....|--- .... ....
....|..|--- .... ....|--- .... ....|--- .... ....
....|..|--- .... ....|--- .... ....|--- .... ....
....|..|--- .... ....|--- .... ....|--- .... ....
....|..|C-3 RF.F ....|G#3 2F3F ....|D#4 2F4F ....
 G#3|..|G#1 2A.F ....|--- .... ....|--- .... ....
....|..|--- .... ....|--- .... ....|--- .... ....
....|..|--- .... ....|--- .... ....|--- .... ....
....|..|C-4 CF.F ....|G#3 2F3F ....|--- .... ....
....|..|--- .... ....|--- .... ....|--- .... ....
....|..|--- .... ....|--- .... ....|--- .... ....
....|..|--- .... ....|--- .... ....|--- .... ....
....|..|C-4 AF.F ....|G#3 2F3F ....|D#4 2F4F ....
 G#3|..|G#1 2A.F ....|--- .... ....|--- .... ....
....|..|--- .... ....|--- .... ....|--- .... ....
....|..|--- .... ....|--- .... ....|--- .... ....
....|..|--- .... ....|G#3 2F3F ....|--- .... ....
....|..|--- .... ....|--- .... ....|--- .... ....
....|..|--- .... ....|--- .... ....|--- .... ....
....|..|--- .... ....|--- .... ....|--- .... ....
....|..|C-4 AF.F ....|G#3 2F3F ....|D#4 2F4F ....
 G#3|..|G#1 2A.F ....|--- .... ....|--- .... ....
....|..|--- .... ....|--- .... ....|--- .... ....
....|..|--- .... ....|--- .... ....|--- .... ....
....|..|--- .... ....|F#3 2F37 ....|--- .... ....
....|..|--- .... ....|--- .... ....|--- .... ....
....|..|--- .... ....|--- .... ....|--- .... ....
....|..|--- .... ....|--- .... ....|--- .... ....
....|..|C-4 CF.F ....|G#3 2F3F ....|D#4 2F4F ....
 G#3|..|G#1 2A.F ....|--- .... ....|--- .... ....
....|..|--- .... ....|--- .... ....|--- .... ....
....|..|--- .... ....|--- .... ....|--- .... ....
....|..|C-4 CF.A ....|G#3 2F3A ....|--- .... ....
....|..|--- .... ....|--- .... ....|--- .... ....
....|..|--- .... ....|--- .... ....|--- .... ....
....|..|--- .... ....|--- .... ....|--- .... ....
....|..|C-3 RF.F ....|G#3 2F3F ....|D#4 2F4F ....
 G#3|..|G#1 2A.F ....|--- .... ....|--- .... ....
....|..|--- .... ....|--- .... ....|--- .... ....
....|..|--- .... ....|--- .... ....|--- .... ....
....|..|--- .... ....|G#3 2F3F ....|--- .... ....
....|..|--- .... ....|--- .... ....|--- .... ....
....|..|--- .... ....|--- .... ....|--- .... ....
....|..|--- .... ....|--- .... ....|--- .... ....
....|..|C-4 AF.F ....|E-3 2F1F ....|E-4 2F2F ....
 A-3|..|A-1 2A.F ....|--- .... ....|--- .... ....
....|..|--- .... ....|--- .... ....|--- .... ....
....|..|--- .... ....|--- .... ....|--- .... ....
....|..|--- .... ....|--- .... ....|--- .... ....
....|..|--- .... ....|--- .... ....|--- .... ....
....|..|--- .... ....|--- .... ....|--- .... ....
....|..|--- .... ....|--- .... ....|--- .... ....
....|..|C-4 AF.F ....|G#3 2F37 ....|G-3 2F8F ....
 A-3|..|A-1 2A.F ....|--- .... ....|R-- .... ....
....|..|--- .... ....|--- .... ....|--- .... ....
....|..|--- .... ....|--- .... ....|--- .... ....
....|..|C-4 CF.7 ....|G#3 2F37 ....|G-3 2F8F ....
....|..|--- .... ....|--- .... ....|R-- .... ....
....|..|--- .... ....|--- .... ....|--- .... ....
....|..|--- .... ....|--- .... ....|--- .... ....
....|..|C-4 CF.F ....|E-3 2F1F ....|E-4 2F2F ....
 A-3|..|A-1 2A.F ....|--- .... ....|--- .... ....
....|..|--- .... ....|--- .... ....|--- .... ....
....|..|--- .... ....|--- .... ....|--- .... ....
....|..|--- .... ....|G#3 2F37 ....|--- .... ....
....|..|--- .... ....|--- .... ....|--- .... ....
....|..|--- .... ....|--- .... ....|--- .... ....
....|..|--- .... ....|--- .... ....|--- .... ....
....|..|C-3 RF.F ....|E-3 2F1F ....|G-3 2F1F ....
 A-3|..|A-1 2A.F ....|--- .... ....|R-- .... ....
....|..|--- .... ....|--- .... ....|--- .... ....
....|..|--- .... ....|--- .... ....|--- .... ....
....|..|C-4 CF.F ....|E-3 2F1F ....|G-3 2F1F ....
....|..|--- .... ....|--- .... ....|R-- .... ....
....|..|--- .... ....|--- .... ....|--- .... ....
....|..|--- .... ....|--- .... ....|--- .... ....
....|..|C-4 AF.F ....|E-3 2F1F ....|G-3 2F1F ....
 A-3|..|A-1 2A.F ....|--- .... ....|R-- .... ....
....|..|--- .... ....|--- .... ....|--- .... ....
....|..|--- .... ....|--- .... ....|--- .... ....
....|..|--- .... ....|E-3 2F1F ....|G-3 2F1F ....
....|..|--- .... ....|--- .... ....|R-- .... ....
....|..|--- .... ....|--- .... ....|--- .... ....
....|..|--- .... ....|--- .... ....|--- .... ....
....|..|C-4 AF.F ....|E-3 2F1F ....|E-4 2F2F ....
 A-3|..|A-1 2A.F ....|--- .... ....|--- .... ....
....|..|--- .... ....|--- .... ....|--- .... ....
....|..|--- .... ....|--- .... ....|--- .... ....
....|..|--- .... ....|G#3 2F37 ....|--- .... ....
....|..|--- .... ....|--- .... ....|--- .... ....
....|..|--- .... ....|--- .... ....|--- .... ....
....|..|--- .... ....|--- .... ....|--- .... ....
....|..|C-4 CF.F ....|E-3 2F1F ....|E-4 2F2F ....
 A-3|..|A-1 2A.F ....|--- .... ....|R-- .... ....
....|..|--- .... ....|--- .... ....|--- .... ....
....|..|--- .... ....|--- .... ....|--- .... ....
....|..|C-4 CF.A ....|E-3 2F1A ....|G-3 2F1A ....
....|..|--- .... ....|--- .... ....|R-- .... ....
....|..|--- .... ....|--- .... ....|--- .... ....
....|..|--- .... ....|--- .... ....|--- .... ....
....|..|C-3 RF.F ....|E-3 2F1F ....|G-3 2F1F ....
 A-3|..|A-1 2A.F ....|--- .... ....|R-- .... ....
....|..|--- .... ....|--- .... ....|--- .... ....
....|..|--- .... ....|--- .... ....|--- .... ....
....|..|--- .... ....|E-3 2F1F ....|G-3 2F1F ....
....|..|--- .... ....|--- .... ....|R-- .... ....
....|..|--- .... ....|--- .... ....|--- .... ....
....|..|--- .... ....|--- .... ....|--- .... ....

[Pattern14]
....|..|C-4 AF.F ....|F#3 2F2F ....|F#4 2F2F ....
 B-3|..|B-1 2A.F ....|--- .... ....|--- .... ....
....|..|--- .... ....|--- .... ....|--- .... ....
....|..|--- .... ....|--- .... ....|--- .... ....
....|..|--- .... ....|--- .... ....|--- .... ....
....|..|--- .... ....|--- .... ....|--- .... ....
....|..|--- .... ....|--- .... ....|--- .... ....
....|..|--- .... ....|--- .... ....|--- .... ....
....|..|C-4 AF.F ....|E-3 2F17 ....|G-3 2F8F ....
 B-3|..|B-1 2A.F ....|--- .... ....|R-- .... ....
....|..|--- .... ....|--- .... ....|--- .... ....
....|..|--- .... ....|--- .... ....|--- .... ....
....|..|C-4 CF.7 ....|E-3 2F17 ....|G-3 2F8F ....
....|..|--- .... ....|--- .... ....|R-- .... ....
....|..|--- .... ....|--- .... ....|--- .... ....
....|..|--- .... ....|--- .... ....|--- .... ....
....|..|C-4 CF.F ....|F#3 2F2F ....|F#4 2F2F ....
 B-3|..|B-1 2A.F ....|--- .... ....|R-- .... ....
....|..|--- .... ....|--- .... ....|--- .... ....
....|..|--- .... ....|--- .... ....|--- .... ....
....|..|--- .... ....|E-3 2F17 ....|G-3 2F17 ....
....|..|--- .... ....|--- .... ....|R-- .... ....
....|..|--- .... ....|--- .... ....|--- .... ....
....|..|--- .... ....|--- .... ....|--- .... ....
....|..|C-3 RF.F ....|F#3 2F2F ....|G-3 2F1F ....
 B-3|..|B-1 2A.F ....|--- .... ....|R-- .... ....
....|..|--- .... ....|--- .... ....|--- .... ....
....|..|--- .... ....|--- .... ....|--- .... ....
....|..|C-4 CF.F ....|F#3 2F2F ....|G-3 2F1F ....
....|..|--- .... ....|--- .... ....|R-- .... ....
....|..|--- .... ....|--- .... ....|--- .... ....
....|..|--- .... ....|--- .... ....|--- .... ....
....|..|C-4 AF.F ....|F#3 2F2F ....|G-3 2F1F ....
 B-3|..|B-1 2A.F ....|--- .... ....|R-- .... ....
....|..|--- .... ....|--- .... ....|--- .... ....
....|..|--- .... ....|--- .... ....|--- .... ....
....|..|--- .... ....|F#3 2F2F ....|G-3 2F1F ....
....|..|--- .... ....|--- .... ....|R-- .... ....
....|..|--- .... ....|--- .... ....|--- .... ....
....|..|--- .... ....|--- .... ....|--- .... ....
....|..|C-4 AF.F ....|F#3 2F2F ....|F#4 2F2F ....
 B-3|..|B-1 2A.F ....|--- .... ....|R-- .... ....
....|..|--- .... ....|--- .... ....|--- .... ....
....|..|--- .... ....|--- .... ....|--- .... ....
....|..|--- .... ....|E-3 2F17 ....|G-3 2F17 ....
....|..|--- .... ....|--- .... ....|R-- .... ....
....|..|--- .... ....|--- .... ....|--- .... ....
....|..|--- .... ....|--- .... ....|--- .... ....
....|..|C-4 CF.F ....|F#3 2F2F ....|F#4 2F2F ....
 B-3|..|B-1 2A.F ....|--- .... ....|R-- .... ....
....|..|--- .... ....|--- .... ....|--- .... ....
....|..|--- .... ....|--- .... ....|--- .... ....
....|..|C-4 CF.A ....|F#3 2F2A ....|G-3 2F1A ....
....|..|--- .... ....|--- .... ....|R-- .... ....
....|..|--- .... ....|--- .... ....|--- .... ....
....|..|--- .... ....|--- .... ....|--- .... ....
....|..|C-3 RF.F ....|F#3 2F2F ....|G-3 2F1F ....
 B-3|..|B-1 2A.F ....|--- .... ....|R-- .... ....
....|..|--- .... ....|--- .... ....|--- .... ....
....|..|--- .... ....|--- .... ....|--- .... ....
....|..|--- .... ....|F#3 2F2F ....|G-3 2F1F ....
....|..|--- .... ....|--- .... ....|R-- .... ....
....|..|--- .... ....|--- .... ....|--- .... ....
....|..|--- .... ....|--- .... ....|--- .... ....
....|..|C-4 AF.F ....|G#3 2F5F ....|C#4 2F6F ....
 C#4|..|C#2 2A.F ....|--- .... ....|--- .... ....
....|..|--- .... ....|--- .... ....|--- .... ....
....|..|--- .... ....|--- .... ....|--- .... ....
....|..|--- .... ....|--- .... ....|--- .... ....
....|..|--- .... ....|--- .... ....|--- .... ....
....|..|--- .... ....|--- .... ....|--- .... ....
....|..|--- .... ....|--- .... ....|--- .... ....
....|..|C-4 AF.F ....|F#3 2F27 ....|G-3 2F17 ....
 C#4|..|C#2 2A.F ....|--- .... ....|R-- .... ....
....|..|--- .... ....|--- .... ....|--- .... ....
....|..|--- .... ....|--- .... ....|--- .... ....
....|..|C-4 CF.7 ....|F#3 2F27 ....|G-3 2F17 ....
....|..|--- .... ....|--- .... ....|R-- .... ....
....|..|--- .... ....|--- .... ....|--- .... ....
....|..|--- .... ....|--- .... ....|--- .... ....
....|..|C-4 CF.F ....|G#3 2F5F ....|C#4 2F6F ....
 C#4|..|C#2 2A.F ....|--- .... ....|R-- .... ....
....|..|--- .... ....|--- .... ....|--- .... ....
....|..|--- .... ....|--- .... ....|--- .... ....
....|..|--- .... ....|F#3 2F27 ....|G-3 2F17 ....
....|..|--- .... ....|--- .... ....|R-- .... ....
....|..|--- .... ....|--- .... ....|--- .... ....
....|..|--- .... ....|--- .... ....|--- .... ....
....|..|C-3 RF.F ....|G#3 2F5F ....|F#4 2F27 ....
 C#4|..|C#2 2A.F ....|--- .... ....|--- .... ....
....|..|--- .... ....|--- .... ....|--- .... ....
....|..|--- .... ....|--- .... ....|--- .... ....
....|..|C-4 CF.F ....|--- .... ....|--- .... ....
....|..|--- .... ....|--- .... ....|--- .... ....
....|..|--- .... ....|--- .... ....|--- .... ....
....|..|--- .... ....|--- .... ....|--- .... ....
....|..|C-4 AF.F ....|F#3 2F27 ....|C#4 2F6F ....
 C#4|..|C#2 2A.F ....|--- .... ....|--- .... ....
....|..|--- .... ....|--- .... ....|--- .... ....
....|..|--- .... ....|--- .... ....|--- .... ....
....|..|--- .... ....|--- .... ....|--- .... ....
....|..|--- .... ....|--- .... ....|--- .... ....
....|..|--- .... ....|--- .... ....|--- .... ....
....|..|--- .... ....|--- .... ....|--- .... ....
....|..|C-4 AF.F ....|G#3 2F5F ....|C#4 2F6F ....
 C#4|..|C#2 2A.F ....|--- .... ....|R-- .... ....
....|..|--- .... ....|--- .... ....|--- .... ....
....|..|--- .... ....|--- .... ....|--- .... ....
....|..|--- .... ....|F#3 2F27 ....|G-3 2F17 ....
....|..|--- .... ....|--- .... ....|R-- .... ....
....|..|--- .... ....|--- .... ....|--- .... ....
....|..|--- .... ....|--- .... ....|--- .... ....
....|..|C-4 CF.F ....|G#3 2F5F ....|C#4 2F6F ....
 C#4|..|C#2 2A.F ....|--- .... ....|--- .... ....
....|..|--- .... ....|--- .... ....|--- .... ....
....|..|--- .... ....|--- .... ....|--- .... ....
....|..|C-4 CF.A ....|--- .... ....|--- .... ....
....|..|--- .... ....|--- .... ....|--- .... ....
....|..|--- .... ....|--- .... ....|--- .... ....
....|..|--- .... ....|--- .... ....|--- .... ....
....|..|C-3 RF.F ....|G#3 2F5F ....|C#4 2F9F ....
 C#4|..|C#2 2A.F ....|--- .... ....|--- .... ....
....|..|--- .... ....|--- .... ....|--- .... ....
....|..|--- .... ....|--- .... ....|--- .... ....
....|..|--- .... ....|G#3 2F2F ....|--- .... ....
....|..|--- .... ....|--- .... ....|--- .... ....
....|..|--- .... ....|--- .... ....|--- .... ....
....|..|--- .... ....|--- .... ....|--- .... ....
....|..|C-4 AF.F ....|G#3 2F2F ....|C#4 2F67 ....
 C#4|..|C#2 2A.F ....|--- .... ....|--- .... ....
....|..|--- .... ....|--- .... ....|--- .... ....
....|..|--- .... ....|--- .... ....|--- .... ....
....|..|--- .... ....|--- .... ....|--- .... ....
....|..|--- .... ....|--- .... ....|--- .... ....
....|..|--- .... ....|--- .... ....|--- .... ....
....|..|--- .... ....|--- .... ....|--- .... ....
....|..|C-4 AF.F ....|G#3 2F57 ....|C#4 2F6A ....
....|..|C#2 2F.7 ....|--- .... ....|--- .... ....
....|..|--- .... ....|--- .... ....|--- .... ....
....|..|--- .... ....|--- .... ....|--- .... ....
....|..|C-4 CF.7 ....|--- .... ....|--- .... ....
....|..|--- .... ....|--- .... ....|--- .... ....
....|..|--- .... ....|--- .... ....|--- .... ....
....|..|--- .... ....|--- .... ....|--- .... ....
....|..|C-4 CF.F ....|G#3 2F5A ....|C#4 2F67 ....
 C#4|..|C#3 2C.F ....|--- .... ....|--- .... ....
....|..|--- .... ....|--- .... ....|--- .... ....
....|..|--- .... ....|--- .... ....|--- .... ....
....|..|--- .... ....|G#3 2F2A ....|--- .... ....
....|..|--- .... ....|--- .... ....|--- .... ....
....|..|--- .... ....|--- .... ....|--- .... ....
....|..|--- .... ....|--- .... ....|--- .... ....
....|..|C-3 RF.F ....|G#3 2F2F ....|C#4 2F67 ....
 C#4|..|C#3 2C.F ....|--- .... ....|--- .... ....
....|..|--- .... ....|--- .... ....|--- .... ....
....|..|--- .... ....|--- .... ....|--- .... ....
....|..|C-4 CF.F ....|--- .... ....|--- .... ....
....|..|--- .... ....|--- .... ....|--- .... ....
....|..|--- .... ....|--- .... ....|--- .... ....
....|..|--- .... ....|--- .... ....|--- .... ....
....|..|C-4 AF.F ....|G#3 2F57 ....|C#4 2F67 ....
 C#4|..|C#3 2C.F ....|--- .... ....|--- .... ....
....|..|--- .... ....|--- .... ....|--- .... ....
....|..|--- .... ....|--- .... ....|--- .... ....
....|..|--- .... ....|--- .... ....|--- .... ....
....|..|--- .... ....|--- .... ....|--- .... ....
....|..|--- .... ....|--- .... ....|--- .... ....
....|..|--- .... ....|--- .... ....|--- .... ....
....|..|C-4 AF.F ....|G#3 2F57 ....|C#4 2F97 ....
 C#4|..|C#3 2C.F ....|--- .... ....|--- .... ....
....|..|--- .... ....|--- .... ....|--- .... ....
....|..|--- .... ....|--- .... ....|--- .... ....
....|..|--- .... ....|G#3 2F27 ....|--- .... ....
....|..|--- .... ....|--- .... ....|--- .... ....
....|..|--- .... ....|--- .... ....|--- .... ....
....|..|--- .... ....|--- .... ....|--- .... ....
....|..|C-4 CF.F ....|G#3 2F27 ....|--- .... ....
 C#4|..|C#3 2C.F ....|--- .... ....|--- .... ....
....|..|--- .... ....|--- .... ....|--- .... ....
....|..|--- .... ....|--- .... ....|--- .... ....
....|..|C-4 CF.F ....|--- .... ....|--- .... ....
....|..|--- .... ....|--- .... ....|--- .... ....
....|..|--- .... ....|--- .... ....|--- .... ....
....|..|--- .... ....|--- .... ....|--- .... ....
....|..|C-4 CF.F ....|--- .... ....|--- .... ....
....|..|C#3 2F.A ....|--- .... ....|--- .... ....
....|..|--- .... ....|--- .... ....|--- .... ....
....|..|--- .... ....|--- .... ....|--- .... ....
....|..|C-4 CF.F ....|--- .... ....|--- .... ....
....|..|--- .... ....|--- .... ....|--- .... ....
....|..|--- .... ....|--- .... ....|--- .... ....
....|..|--- .... ....|--- .... ....|--- .... ....
....|..|C-4 AF.F ....|E-3 2F1F ....|G#5 2F.F ....
 A-3|..|A-1 2A.F ....|--- .... ....|--- .... ....
....|..|--- .... ....|--- .... ....|--- .... ....
....|..|--- .... ....|--- .... ....|--- .... ....
....|..|--- .... ....|--- .... ....|E-4 2F.F ....
....|..|--- .... ....|--- .... ....|--- .... ....
....|..|--- .... ....|--- .... ....|--- .... ....
....|..|--- .... ....|--- .... ....|--- .... ....
....|..|C-3 RF.F ....|G#3 2F27 ....|E-4 2F.F ....
 A-3|..|A-1 2A.F ....|--- .... ....|--- .... ....
....|..|--- .... ....|--- .... ....|--- .... ....
....|..|--- .... ....|--- .... ....|--- .... ....
....|..|C-4 CF.7 ....|--- .... ....|F#5 2F.F ....
....|..|--- .... ....|--- .... ....|--- .... ....
....|..|--- .... ....|--- .... ....|--- .... ....
....|..|--- .... ....|--- .... ....|--- .... ....
....|..|C-4 CF.F ....|E-3 2F1F ....|E-4 2F.F ....
 A-3|..|A-1 2A.F ....|--- .... ....|--- .... ....
....|..|--- .... ....|--- .... ....|--- .... ....
....|..|--- .... ....|--- .... ....|--- .... ....
....|..|C-4 CF.A ....|--- .... ....|E-4 2F.F ....
....|..|--- .... ....|--- .... ....|--- .... ....
....|..|--- .... ....|--- .... ....|--- .... ....
....|..|--- .... ....|--- .... ....|--- .... ....
....|..|C-3 RF.F ....|E-3 2F1F ....|E-5 2F.F ....
 A-3|..|A-1 2A.F ....|--- .... ....|--- .... ....
....|..|--- .... ....|--- .... ....|--- .... ....
....|..|--- .... ....|--- .... ....|--- .... ....
....|..|C-4 CF.F ....|E-3 2F1F ....|E-4 2F.F ....
....|..|--- .... ....|--- .... ....|--- .... ....
....|..|--- .... ....|--- .... ....|--- .... ....
....|..|--- .... ....|--- .... ....|--- .... ....
....|..|C-4 AF.F ....|E-3 2F1F ....|E-4 2F.F ....
 A-3|..|A-1 2A.F ....|--- .... ....|--- .... ....
....|..|--- .... ....|--- .... ....|--- .... ....
....|..|--- .... ....|--- .... ....|--- .... ....
....|..|C-4 CF.7 ....|E-3 2F1F ....|F#5 2F.F ....
....|..|--- .... ....|--- .... ....|--- .... ....
....|..|--- .... ....|--- .... ....|--- .... ....
....|..|--- .... ....|--- .... ....|--- .... ....
....|..|C-4 AF.F ....|E-3 2F1F ....|E-4 2F.F ....
 A-3|..|A-1 2A.F ....|--- .... ....|--- .... ....
....|..|--- .... ....|--- .... ....|--- .... ....
....|..|--- .... ....|--- .... ....|--- .... ....
....|..|C-4 CF.7 ....|--- .... ....|E-4 2F.F ....
....|..|--- .... ....|--- .... ....|--- .... ....
....|..|--- .... ....|--- .... ....|--- .... ....
....|..|--- .... ....|--- .... ....|--- .... ....
....|..|C-4 CF.F ....|E-3 2F1F ....|E-5 2F.F ....
 A-3|..|A-1 2A.F ....|--- .... ....|--- .... ....
....|..|--- .... ....|--- .... ....|--- .... ....
....|..|--- .... ....|--- .... ....|--- .... ....
....|..|C-4 CF.A ....|E-3 2F1A ....|E-4 2F.7 ....
....|..|--- .... ....|--- .... ....|--- .... ....
....|..|--- .... ....|--- .... ....|--- .... ....
....|..|--- .... ....|--- .... ....|--- .... ....
....|..|C-3 RF.F ....|E-3 2F1F ....|F#5 2F.F ....
 A-3|..|A-1 2A.F ....|--- .... ....|--- .... ....
....|..|--- .... ....|--- .... ....|--- .... ....
....|..|--- .... ....|--- .... ....|--- .... ....
....|..|--- .... ....|E-3 2F1F ....|F#5 2F.7 ....
....|..|--- .... ....|--- .... ....|--- .... ....
....|..|--- .... ....|--- .... ....|--- .... ....
....|..|--- .... ....|--- .... ....|--- .... ....

[Pattern15]
....|..|C-4 AF.F ....|F#3 2F2F ....|G#5 2F.F ....
 B-3|..|B-1 2A.F ....|--- .... ....|--- .... ....
....|..|--- .... ....|--- .... ....|--- .... ....
....|..|--- .... ....|--- .... ....|--- .... ....
....|..|--- .... ....|--- .... ....|E-4 2F.F ....
....|..|--- .... ....|--- .... ....|--- .... ....
....|..|--- .... ....|--- .... ....|--- .... ....
....|..|--- .... ....|--- .... ....|--- .... ....
....|..|C-4 AF.F ....|E-3 2F17 ....|E-4 2F.F ....
 B-3|..|B-1 2A.F ....|--- .... ....|--- .... ....
....|..|--- .... ....|--- .... ....|--- .... ....
....|..|--- .... ....|--- .... ....|--- .... ....
....|..|C-4 CF.7 ....|E-3 2F17 ....|F#5 2F.F ....
....|..|--- .... ....|--- .... ....|--- .... ....
....|..|--- .... ....|--- .... ....|--- .... ....
....|..|--- .... ....|--- .... ....|--- .... ....
....|..|C-4 CF.F ....|F#3 2F2F ....|E-4 2F.F ....
 B-3|..|B-1 2A.F ....|--- .... ....|--- .... ....
....|..|--- .... ....|--- .... ....|--- .... ....
....|..|--- .... ....|--- .... ....|--- .... ....
....|..|--- .... ....|E-3 2F17 ....|E-4 2F.F ....
....|..|--- .... ....|--- .... ....|--- .... ....
....|..|--- .... ....|--- .... ....|--- .... ....
....|..|--- .... ....|--- .... ....|--- .... ....
....|..|C-3 RF.F ....|F#3 2F2F ....|E-5 2F.F ....
 B-3|..|B-1 2A.F ....|--- .... ....|--- .... ....
....|..|--- .... ....|--- .... ....|--- .... ....
....|..|--- .... ....|--- .... ....|--- .... ....
....|..|C-4 CF.F ....|F#3 2F2F ....|E-4 2F.F ....
....|..|--- .... ....|--- .... ....|--- .... ....
....|..|--- .... ....|--- .... ....|--- .... ....
....|..|--- .... ....|--- .... ....|--- .... ....
....|..|C-4 AF.F ....|F#3 2F2F ....|E-4 2F.F ....
 B-3|..|B-1 2A.F ....|--- .... ....|--- .... ....
....|..|--- .... ....|--- .... ....|--- .... ....
....|..|--- .... ....|--- .... ....|--- .... ....
....|..|--- .... ....|F#3 2F2F ....|F#5 2F.F ....
....|..|--- .... ....|--- .... ....|--- .... ....
....|..|--- .... ....|--- .... ....|--- .... ....
....|..|--- .... ....|--- .... ....|--- .... ....
....|..|C-4 AF.F ....|F#3 2F2F ....|E-4 2F.F ....
 B-3|..|B-1 2A.F ....|--- .... ....|--- .... ....
....|..|--- .... ....|--- .... ....|--- .... ....
....|..|--- .... ....|--- .... ....|--- .... ....
....|..|--- .... ....|E-3 2F17 ....|E-4 2F.F ....
....|..|--- .... ....|--- .... ....|--- .... ....
....|..|--- .... ....|--- .... ....|--- .... ....
....|..|--- .... ....|--- .... ....|--- .... ....
....|..|C-4 CF.F ....|F#3 2F2F ....|E-5 2F.F ....
 B-3|..|B-1 2A.F ....|--- .... ....|--- .... ....
....|..|--- .... ....|--- .... ....|--- .... ....
....|..|--- .... ....|--- .... ....|--- .... ....
....|..|C-4 CF.A ....|F#3 2F2A ....|E-4 2F.7 ....
....|..|--- .... ....|--- .... ....|--- .... ....
....|..|--- .... ....|--- .... ....|--- .... ....
....|..|--- .... ....|--- .... ....|--- .... ....
....|..|C-3 RF.F ....|F#3 2F2F ....|F#5 2F.F ....
 B-3|..|B-1 2A.F ....|--- .... ....|--- .... ....
....|..|--- .... ....|--- .... ....|--- .... ....
....|..|--- .... ....|--- .... ....|--- .... ....
....|..|--- .... ....|F#3 2F2F ....|F#5 2F.7 ....
....|..|--- .... ....|--- .... ....|--- .... ....
....|..|--- .... ....|--- .... ....|--- .... ....
....|..|--- .... ....|--- .... ....|--- .... ....
....|..|C-4 AF.F ....|G#3 2F3F ....|G#5 2F.F ....
 G#3|..|G#1 2A.F ....|--- .... ....|--- .... ....
....|..|--- .... ....|--- .... ....|--- .... ....
....|..|--- .... ....|--- .... ....|--- .... ....
....|..|--- .... ....|--- .... ....|E-4 2F.F ....
....|..|--- .... ....|--- .... ....|--- .... ....
....|..|--- .... ....|--- .... ....|--- .... ....
....|..|--- .... ....|--- .... ....|--- .... ....
....|..|C-4 AF.F ....|F#3 2F27 ....|E-4 2F.F ....
 G#3|..|G#1 2A.F ....|--- .... ....|--- .... ....
....|..|--- .... ....|--- .... ....|--- .... ....
....|..|--- .... ....|--- .... ....|--- .... ....
....|..|C-4 CF.7 ....|F#3 2F27 ....|F#5 2F.F ....
....|..|--- .... ....|--- .... ....|--- .... ....
....|..|--- .... ....|--- .... ....|--- .... ....
....|..|--- .... ....|--- .... ....|--- .... ....
....|..|C-4 CF.F ....|G#3 2F3F ....|E-4 2F.F ....
 G#3|..|G#1 2A.F ....|--- .... ....|--- .... ....
....|..|--- .... ....|--- .... ....|--- .... ....
....|..|--- .... ....|--- .... ....|--- .... ....
....|..|--- .... ....|F#3 2F27 ....|E-4 2F.F ....
....|..|--- .... ....|--- .... ....|--- .... ....
....|..|--- .... ....|--- .... ....|--- .... ....
....|..|--- .... ....|--- .... ....|--- .... ....
....|..|C-3 RF.F ....|G#3 2F3F ....|E-5 2F.F ....
 G#3|..|G#1 2A.F ....|--- .... ....|--- .... ....
....|..|--- .... ....|--- .... ....|--- .... ....
....|..|--- .... ....|--- .... ....|--- .... ....
....|..|C-4 CF.F ....|G#3 2F3F ....|E-4 2F.F ....
....|..|--- .... ....|--- .... ....|--- .... ....
....|..|--- .... ....|--- .... ....|--- .... ....
....|..|--- .... ....|--- .... ....|--- .... ....
....|..|C-4 AF.F ....|G#3 2F3F ....|E-4 2F.F ....
 G#3|..|G#1 2A.F ....|--- .... ....|--- .... ....
....|..|--- .... ....|--- .... ....|--- .... ....
....|..|--- .... ....|--- .... ....|--- .... ....
....|..|--- .... ....|G#3 2F3F ....|F#5 2F.F ....
....|..|--- .... ....|--- .... ....|--- .... ....
....|..|--- .... ....|--- .... ....|--- .... ....
....|..|--- .... ....|--- .... ....|--- .... ....
....|..|C-4 AF.F ....|G#3 2F3F ....|E-4 2F.F ....
 G#3|..|G#1 2A.F ....|--- .... ....|--- .... ....
....|..|--- .... ....|--- .... ....|--- .... ....
....|..|--- .... ....|--- .... ....|--- .... ....
....|..|--- .... ....|F#3 2F27 ....|E-4 2F.F ....
....|..|--- .... ....|--- .... ....|--- .... ....
....|..|--- .... ....|--- .... ....|--- .... ....
....|..|--- .... ....|--- .... ....|--- .... ....
....|..|C-4 CF.F ....|G#3 2F3F ....|E-5 2F.F ....
 G#3|..|G#1 2A.F ....|--- .... ....|--- .... ....
....|..|--- .... ....|--- .... ....|--- .... ....
....|..|--- .... ....|--- .... ....|--- .... ....
....|..|C-4 CF.A ....|G#3 2F3A ....|E-4 2F.7 ....
....|..|--- .... ....|--- .... ....|--- .... ....
....|..|--- .... ....|--- .... ....|--- .... ....
....|..|--- .... ....|--- .... ....|--- .... ....
....|..|C-3 RF.F ....|G#3 2F3F ....|D#5 2F.F ....
 G#3|..|G#1 2A.F ....|--- .... ....|--- .... ....
....|..|--- .... ....|--- .... ....|--- .... ....
....|..|--- .... ....|--- .... ....|--- .... ....
....|..|--- .... ....|G#3 2F3F ....|F#5 2F.7 ....
....|..|--- .... ....|--- .... ....|--- .... ....
....|..|--- .... ....|--- .... ....|--- .... ....
....|..|--- .... ....|--- .... ....|--- .... ....
....|..|C-4 AF.F ....|G#3 2F4F ....|E-4 2F.7 ....
 C#4|..|C#2 2A.F ....|--- .... ....|--- .... ....
....|..|--- .... ....|--- .... ....|--- .... ....
....|..|--- .... ....|--- .... ....|--- .... ....
....|..|--- .... ....|--- .... ....|E-4 2F.7 ....
....|..|--- .... ....|--- .... ....|--- .... ....
....|..|--- .... ....|--- .... ....|--- .... ....
....|..|--- .... ....|--- .... ....|--- .... ....
....|..|C-4 AF.F ....|G#3 2F37 ....|E-5 2F.F ....
 C#4|..|C#2 2A.F ....|--- .... ....|--- .... ....
....|..|--- .... ....|--- .... ....|--- .... ....
....|..|--- .... ....|--- .... ....|--- .... ....
....|..|C-4 CF.7 ....|G#3 2F37 ....|E-4 2F.7 ....
....|..|--- .... ....|--- .... ....|--- .... ....
....|..|--- .... ....|--- .... ....|--- .... ....
....|..|--- .... ....|--- .... ....|--- .... ....
....|..|C-4 CF.F ....|G#3 2F4F ....|D#5 2F.F ....
 C#4|..|C#2 2A.F ....|--- .... ....|--- .... ....
....|..|--- .... ....|--- .... ....|--- .... ....
....|..|--- .... ....|--- .... ....|--- .... ....
....|..|--- .... ....|G#3 2F37 ....|F#5 2F.7 ....
....|..|--- .... ....|--- .... ....|--- .... ....
....|..|--- .... ....|--- .... ....|--- .... ....
....|..|--- .... ....|--- .... ....|--- .... ....
....|..|C-3 RF.F ....|G#3 2F4F ....|B-4 2F.F ....
 C#4|..|C#2 2A.F ....|--- .... ....|--- .... ....
....|..|--- .... ....|--- .... ....|--- .... ....
....|..|--- .... ....|--- .... ....|--- .... ....
....|..|C-4 CF.F ....|G#3 2F4F ....|E-4 2F.7 ....
....|..|--- .... ....|--- .... ....|--- .... ....
....|..|--- .... ....|--- .... ....|--- .... ....
....|..|--- .... ....|--- .... ....|--- .... ....
....|..|C-4 AF.F ....|G#3 2F4F ....|E-5 2F.7 ....
 C#4|..|C#2 2A.F ....|--- .... ....|--- .... ....
....|..|--- .... ....|--- .... ....|--- .... ....
....|..|--- .... ....|--- .... ....|--- .... ....
....|..|--- .... ....|G#3 2F4F ....|--- .... ....
....|..|--- .... ....|--- .... ....|--- .... ....
....|..|--- .... ....|--- .... ....|--- .... ....
....|..|--- .... ....|--- .... ....|--- .... ....
....|..|C-4 AF.F ....|G#3 2F4F ....|C#5 2F.F ....
 C#4|..|C#2 2A.F ....|--- .... ....|--- .... ....
....|..|--- .... ....|--- .... ....|--- .... ....
....|..|--- .... ....|--- .... ....|--- .... ....
....|..|--- .... ....|G#3 2F37 ....|--- .... ....
....|..|--- .... ....|--- .... ....|--- .... ....
....|..|--- .... ....|--- .... ....|--- .... ....
....|..|--- .... ....|--- .... ....|--- .... ....
....|..|C-4 CF.F ....|G#3 2F4F ....|D#5 2F.F ....
 C#4|..|C#2 2A.F ....|--- .... ....|--- .... ....
....|..|--- .... ....|--- .... ....|--- .... ....
....|..|--- .... ....|--- .... ....|--- .... ....
....|..|C-4 CF.A ....|G#3 2F4A ....|--- .... ....
....|..|--- .... ....|--- .... ....|--- .... ....
....|..|--- .... ....|--- .... ....|--- .... ....
....|..|--- .... ....|--- .... ....|--- .... ....
....|..|C-3 RF.F ....|G#3 2F4F ....|E-5 2F.F ....
 C#4|..|C#2 2A.F ....|--- .... ....|--- .... ....
....|..|--- .... ....|--- .... ....|--- .... ....
....|..|--- .... ....|--- .... ....|--- .... ....
....|..|--- .... ....|G#3 2F4F ....|--- .... ....
....|..|--- .... ....|--- .... ....|--- .... ....
....|..|--- .... ....|--- .... ....|--- .... ....
....|..|--- .... ....|--- .... ....|--- .... ....
....|..|C-4 AF.F ....|E-3 2F1F ....|G#5 2F.F ....
 A-3|..|A-1 2A.F ....|--- .... ....|--- .... ....
....|..|--- .... ....|--- .... ....|--- .... ....
....|..|--- .... ....|--- .... ....|--- .... ....
....|..|--- .... ....|--- .... ....|E-4 2F.F ....
....|..|--- .... ....|--- .... ....|--- .... ....
....|..|--- .... ....|--- .... ....|--- .... ....
....|..|--- .... ....|--- .... ....|--- .... ....
....|..|C-4 AF.F ....|G#3 2F47 ....|E-4 2F.F ....
 A-3|..|A-1 2A.F ....|--- .... ....|--- .... ....
....|..|--- .... ....|--- .... ....|--- .... ....
....|..|--- .... ....|--- .... ....|--- .... ....
....|..|C-4 CF.7 ....|G#3 2F47 ....|F#5 2F.F ....
....|..|--- .... ....|--- .... ....|--- .... ....
....|..|--- .... ....|--- .... ....|--- .... ....
....|..|--- .... ....|--- .... ....|--- .... ....
....|..|C-4 CF.F ....|E-3 2F1F ....|E-4 2F.F ....
 A-3|..|A-1 2A.F ....|--- .... ....|--- .... ....
....|..|--- .... ....|--- .... ....|--- .... ....
....|..|--- .... ....|--- .... ....|--- .... ....
....|..|--- .... ....|G#3 2F47 ....|E-4 2F.F ....
....|..|--- .... ....|--- .... ....|--- .... ....
....|..|--- .... ....|--- .... ....|--- .... ....
....|..|--- .... ....|--- .... ....|--- .... ....
....|..|C-3 RF.F ....|E-3 2F1F ....|E-5 2F.F ....
 A-3|..|A-1 2A.F ....|--- .... ....|--- .... ....
....|..|--- .... ....|--- .... ....|--- .... ....
....|..|--- .... ....|--- .... ....|--- .... ....
....|..|C-4 CF.F ....|E-3 2F1F ....|E-4 2F.F ....
....|..|--- .... ....|--- .... ....|--- .... ....
....|..|--- .... ....|--- .... ....|--- .... ....
....|..|--- .... ....|--- .... ....|--- .... ....
....|..|C-4 AF.F ....|E-3 2F1F ....|E-4 2F.F ....
 A-3|..|A-1 2A.F ....|--- .... ....|--- .... ....
....|..|--- .... ....|--- .... ....|--- .... ....
....|..|--- .... ....|--- .... ....|--- .... ....
....|..|--- .... ....|E-3 2F1F ....|F#5 2F.F ....
....|..|--- .... ....|--- .... ....|--- .... ....
....|..|--- .... ....|--- .... ....|--- .... ....
....|..|--- .... ....|--- .... ....|--- .... ....
....|..|C-4 AF.F ....|E-3 2F1F ....|E-4 2F.F ....
 A-3|..|A-1 2A.F ....|--- .... ....|--- .... ....
....|..|--- .... ....|--- .... ....|--- .... ....
....|..|--- .... ....|--- .... ....|--- .... ....
....|..|--- .... ....|G#3 2F47 ....|E-4 2F.F ....
....|..|--- .... ....|--- .... ....|--- .... ....
....|..|--- .... ....|--- .... ....|--- .... ....
....|..|--- .... ....|--- .... ....|--- .... ....
....|..|C-4 CF.F ....|E-3 2F1F ....|E-5 2F.F ....
 A-3|..|A-1 2A.F ....|--- .... ....|--- .... ....
....|..|--- .... ....|--- .... ....|--- .... ....
....|..|--- .... ....|--- .... ....|--- .... ....
....|..|C-4 CF.A ....|E-3 2F1A ....|E-4 2F.7 ....
....|..|--- .... ....|--- .... ....|--- .... ....
....|..|--- .... ....|--- .... ....|--- .... ....
....|..|--- .... ....|--- .... ....|--- .... ....
....|..|C-3 RF.F ....|E-3 2F1F ....|F#5 2F.F ....
 A-3|..|A-1 2A.F ....|--- .... ....|--- .... ....
....|..|--- .... ....|--- .... ....|--- .... ....
....|..|--- .... ....|--- .... ....|--- .... ....
....|..|--- .... ....|E-3 2F1F ....|F#5 2F.7 ....
....|..|--- .... ....|--- .... ....|--- .... ....
....|..|--- .... ....|--- .... ....|--- .... ....
....|..|--- .... ....|--- .... ....|--- .... ....

[Pattern16]
....|..|C-4 AF.F ....|F#3 2F2F ....|G#5 2F.F ....
 B-3|..|B-1 2A.F ....|--- .... ....|--- .... ....
....|..|--- .... ....|--- .... ....|--- .... ....
....|..|--- .... ....|--- .... ....|--- .... ....
....|..|--- .... ....|--- .... ....|E-4 2F.F ....
....|..|--- .... ....|--- .... ....|--- .... ....
....|..|--- .... ....|--- .... ....|--- .... ....
....|..|--- .... ....|--- .... ....|--- .... ....
....|..|C-4 AF.F ....|E-3 2F17 ....|E-4 2F.F ....
 B-3|..|B-1 2A.F ....|--- .... ....|--- .... ....
....|..|--- .... ....|--- .... ....|--- .... ....
....|..|--- .... ....|--- .... ....|--- .... ....
....|..|C-4 CF.7 ....|E-3 2F17 ....|F#5 2F.F ....
....|..|--- .... ....|--- .... ....|--- .... ....
....|..|--- .... ....|--- .... ....|--- .... ....
....|..|--- .... ....|--- .... ....|--- .... ....
....|..|C-4 CF.F ....|F#3 2F2F ....|E-4 2F.F ....
 B-3|..|B-1 2A.F ....|--- .... ....|--- .... ....
....|..|--- .... ....|--- .... ....|--- .... ....
....|..|--- .... ....|--- .... ....|--- .... ....
....|..|--- .... ....|E-3 2F17 ....|E-4 2F.F ....
....|..|--- .... ....|--- .... ....|--- .... ....
....|..|--- .... ....|--- .... ....|--- .... ....
....|..|--- .... ....|--- .... ....|--- .... ....
....|..|C-3 RF.F ....|F#3 2F2F ....|E-5 2F.F ....
 B-3|..|B-1 2A.F ....|--- .... ....|--- .... ....
....|..|--- .... ....|--- .... ....|--- .... ....
....|..|--- .... ....|--- .... ....|--- .... ....
....|..|C-4 CF.F ....|F#3 2F2F ....|E-4 2F.F ....
....|..|--- .... ....|--- .... ....|--- .... ....
....|..|--- .... ....|--- .... ....|--- .... ....
....|..|--- .... ....|--- .... ....|--- .... ....
....|..|C-4 AF.F ....|F#3 2F2F ....|E-4 2F.F ....
 B-3|..|B-1 2A.F ....|--- .... ....|--- .... ....
....|..|--- .... ....|--- .... ....|--- .... ....
....|..|--- .... ....|--- .... ....|--- .... ....
....|..|--- .... ....|F#3 2F2F ....|F#5 2F.F ....
....|..|--- .... ....|--- .... ....|--- .... ....
....|..|--- .... ....|--- .... ....|--- .... ....
....|..|--- .... ....|--- .... ....|--- .... ....
....|..|C-4 AF.F ....|F#3 2F2F ....|E-4 2F.F ....
 B-3|..|B-1 2A.F ....|--- .... ....|--- .... ....
....|..|--- .... ....|--- .... ....|--- .... ....
....|..|--- .... ....|--- .... ....|--- .... ....
....|..|--- .... ....|E-3 2F17 ....|E-4 2F.F ....
....|..|--- .... ....|--- .... ....|--- .... ....
....|..|--- .... ....|--- .... ....|--- .... ....
....|..|--- .... ....|--- .... ....|--- .... ....
....|..|C-4 CF.F ....|F#3 2F2F ....|E-5 2F.F ....
 B-3|..|B-1 2A.F ....|--- .... ....|--- .... ....
....|..|--- .... ....|--- .... ....|--- .... ....
....|..|--- .... ....|--- .... ....|--- .... ....
....|..|C-4 CF.A ....|F#3 2F2A ....|E-4 2F.7 ....
....|..|--- .... ....|--- .... ....|--- .... ....
....|..|--- .... ....|--- .... ....|--- .... ....
....|..|--- .... ....|--- .... ....|--- .... ....
....|..|C-3 RF.F ....|F#3 2F2F ....|F#5 2F.F ....
 B-3|..|B-1 2A.F ....|--- .... ....|--- .... ....
....|..|--- .... ....|--- .... ....|--- .... ....
....|..|--- .... ....|--- .... ....|--- .... ....
....|..|--- .... ....|F#3 2F2F ....|F#5 2F.7 ....
....|..|--- .... ....|--- .... ....|--- .... ....
....|..|--- .... ....|--- .... ....|--- .... ....
....|..|--- .... ....|--- .... ....|--- .... ....
....|..|C-4 AF.F ....|G#3 2F5F ....|G#5 2F.F ....
 G#3|..|G#1 2A.F ....|--- .... ....|--- .... ....
....|..|--- .... ....|--- .... ....|--- .... ....
....|..|--- .... ....|--- .... ....|F#5 2F.F ....
....|..|--- .... ....|--- .... ....|E-4 2F.7 ....
....|..|--- .... ....|--- .... ....|E-5 2F.F ....
....|..|--- .... ....|--- .... ....|--- .... ....
....|..|--- .... ....|--- .... ....|--- .... ....
....|..|C-4 AF.F ....|F#3 2F27 ....|G#5 2F.F ....
 G#3|..|G#1 2A.F ....|--- .... ....|--- .... ....
....|..|--- .... ....|--- .... ....|--- .... ....
....|..|--- .... ....|--- .... ....|F#5 2F.F ....
....|..|C-4 CF.7 ....|F#3 2F27 ....|E-4 2F.7 ....
....|..|--- .... ....|--- .... ....|E-5 2F.F ....
....|..|--- .... ....|--- .... ....|--- .... ....
....|..|--- .... ....|--- .... ....|--- .... ....
....|..|C-4 CF.F ....|G#3 2F5F ....|G#5 2F.F ....
 G#3|..|G#1 2A.F ....|--- .... ....|--- .... ....
....|..|--- .... ....|--- .... ....|--- .... ....
....|..|--- .... ....|--- .... ....|F#5 2F.F ....
....|..|--- .... ....|F#3 2F27 ....|F#5 2F.7 ....
....|..|--- .... ....|--- .... ....|E-5 2F.F ....
....|..|--- .... ....|--- .... ....|--- .... ....
....|..|--- .... ....|--- .... ....|--- .... ....
....|..|C-3 RF.F ....|F#3 2F27 ....|G#5 2F.F ....
 G#3|..|G#1 2A.F ....|--- .... ....|--- .... ....
....|..|--- .... ....|--- .... ....|--- .... ....
....|..|--- .... ....|--- .... ....|F#5 2F.F ....
....|..|C-4 CF.F ....|--- .... ....|E-4 2F.7 ....
....|..|--- .... ....|--- .... ....|E-5 2F.F ....
....|..|--- .... ....|--- .... ....|--- .... ....
....|..|--- .... ....|--- .... ....|--- .... ....
....|..|C-4 AF.F ....|G#3 2F5F ....|G#5 2F.F ....
 G#3|..|G#1 2A.F ....|--- .... ....|--- .... ....
....|..|--- .... ....|--- .... ....|--- .... ....
....|..|--- .... ....|--- .... ....|F#5 2F.F ....
....|..|--- .... ....|--- .... ....|--- .... ....
....|..|--- .... ....|--- .... ....|E-5 2F.F ....
....|..|--- .... ....|--- .... ....|--- .... ....
....|..|--- .... ....|--- .... ....|--- .... ....
....|..|C-4 AF.F ....|G#3 2F5F ....|G#5 2F.F ....
 G#3|..|G#1 2A.F ....|--- .... ....|--- .... ....
....|..|--- .... ....|--- .... ....|--- .... ....
....|..|--- .... ....|--- .... ....|F#5 2F.F ....
....|..|--- .... ....|F#3 2F27 ....|--- .... ....
....|..|--- .... ....|--- .... ....|E-5 2F.F ....
....|..|--- .... ....|--- .... ....|--- .... ....
....|..|--- .... ....|--- .... ....|--- .... ....
....|..|C-4 CF.F ....|G#3 2F5F ....|G#5 2F.F ....
 G#3|..|G#1 2A.F ....|--- .... ....|--- .... ....
....|..|--- .... ....|--- .... ....|--- .... ....
....|..|--- .... ....|--- .... ....|F#5 2F.F ....
....|..|C-4 CF.A ....|--- .... ....|--- .... ....
....|..|--- .... ....|--- .... ....|E-5 2F.F ....
....|..|--- .... ....|--- .... ....|--- .... ....
....|..|--- .... ....|--- .... ....|--- .... ....
....|..|C-3 RF.F ....|G#3 2F5F ....|G#5 2F.F ....
 G#3|..|G#1 2A.F ....|--- .... ....|--- .... ....
....|..|--- .... ....|--- .... ....|--- .... ....
....|..|--- .... ....|--- .... ....|F#5 2F.F ....
....|..|--- .... ....|G#3 2F5F ....|--- .... ....
 C#4|..|C#3 2C.F ....|--- .... ....|E-5 2F.F ....
....|..|--- .... ....|--- .... ....|--- .... ....
....|..|--- .... ....|--- .... ....|--- .... ....
....|..|C-4 AF.F ....|G#3 2F4F ....|G#5 2F.F ....
 C#4|..|C#3 2C.F ....|--- .... ....|--- .... ....
....|..|--- .... ....|--- .... ....|--- .... ....
....|..|--- .... ....|--- .... ....|F#5 2F.F ....
....|..|--- .... ....|--- .... ....|--- .... ....
....|..|--- .... ....|--- .... ....|E-5 2F.F ....
....|..|--- .... ....|--- .... ....|--- .... ....
....|..|--- .... ....|--- .... ....|--- .... ....
....|..|C-4 AF.F ....|G#3 2F5A ....|D#5 2F.F ....
 C#4|..|C#3 2C.F ....|--- .... ....|--- .... ....
....|..|--- .... ....|--- .... ....|--- .... ....
....|..|--- .... ....|--- .... ....|C#5 2F.F ....
....|..|C-4 CF.7 ....|--- .... ....|--- .... ....
....|..|--- .... ....|--- .... ....|B-4 2F.F ....
....|..|--- .... ....|--- .... ....|--- .... ....
....|..|--- .... ....|--- .... ....|--- .... ....
....|..|C-4 CF.F ....|G#3 2F4F ....|G#5 2F.F ....
 C#4|..|C#3 2C.F ....|--- .... ....|--- .... ....
....|..|--- .... ....|--- .... ....|--- .... ....
....|..|--- .... ....|--- .... ....|F#5 2F.F ....
....|..|--- .... ....|G#3 2F5A ....|--- .... ....
....|..|C#3 2F.A ....|--- .... ....|E-5 2F.F ....
....|..|--- .... ....|--- .... ....|--- .... ....
....|..|--- .... ....|--- .... ....|--- .... ....
....|..|C-3 RF.F ....|G#3 2F4F ....|D#5 2F.F ....
 C#4|..|C#3 2C.F ....|--- .... ....|--- .... ....
....|..|--- .... ....|--- .... ....|--- .... ....
....|..|--- .... ....|--- .... ....|C#5 2F.F ....
....|..|C-4 CF.F ....|G#3 2F4F ....|--- .... ....
....|..|--- .... ....|--- .... ....|B-4 2F.F ....
....|..|--- .... ....|--- .... ....|--- .... ....
....|..|--- .... ....|--- .... ....|--- .... ....
....|..|C-4 AF.F ....|G#3 2F4F ....|G#5 2F.F ....
 C#4|..|C#3 2C.F ....|--- .... ....|--- .... ....
....|..|--- .... ....|--- .... ....|--- .... ....
....|..|--- .... ....|--- .... ....|F#5 2F.F ....
....|..|--- .... ....|G#3 2F4F ....|--- .... ....
....|..|--- .... ....|--- .... ....|E-5 2F.F ....
....|..|--- .... ....|--- .... ....|--- .... ....
....|..|--- .... ....|--- .... ....|--- .... ....
....|..|C-4 AF.F ....|G#3 2F4F ....|D#5 2F.F ....
 C#4|..|C#3 2C.F ....|--- .... ....|--- .... ....
....|..|--- .... ....|--- .... ....|--- .... ....
....|..|--- .... ....|--- .... ....|C#5 2F.F ....
....|..|--- .... ....|G#3 2F57 ....|--- .... ....
....|..|C#3 2F.7 ....|--- .... ....|B-4 2F.F ....
....|..|--- .... ....|--- .... ....|--- .... ....
....|..|--- .... ....|--- .... ....|--- .... ....
....|..|C-4 CF.F ....|G#3 2F4F ....|D#5 2F.F ....
 C#4|..|C#3 2C.F ....|--- .... ....|--- .... ....
....|..|--- .... ....|--- .... ....|--- .... ....
....|..|--- .... ....|--- .... ....|F#5 2F.7 ....
....|..|C-4 CF.A ....|G#3 2F4A ....|B-4 2F.F ....
....|..|--- .... ....|--- .... ....|E-5 2F.7 ....
....|..|--- .... ....|--- .... ....|--- .... ....
....|..|--- .... ....|--- .... ....|--- .... ....
....|..|C-3 RF.F ....|G#3 2F4F ....|D#5 2F.7 ....
 C#4|..|C#3 2C.F ....|--- .... ....|--- .... ....
....|..|--- .... ....|--- .... ....|--- .... ....
....|..|--- .... ....|--- .... ....|C#5 2F.7 ....
....|..|--- .... ....|G#3 2F4F ....|--- .... ....
....|..|--- .... ....|--- .... ....|B-4 2F.7 ....
....|..|--- .... ....|--- .... ....|--- .... ....
....|..|--- .... ....|--- .... ....|--- .... ....
....|..|C-4 AF.F ....|E-3 2F1F ....|G#5 2F.F ....
 A-3|..|A-1 2A.F ....|--- .... ....|--- .... ....
....|..|--- .... ....|--- .... ....|--- .... ....
....|..|--- .... ....|--- .... ....|F#5 2F.7 ....
....|..|--- .... ....|--- .... ....|E-4 2F.F ....
....|..|--- .... ....|--- .... ....|E-5 2F.7 ....
....|..|--- .... ....|--- .... ....|--- .... ....
....|..|--- .... ....|--- .... ....|--- .... ....
....|..|C-4 AF.F ....|G#3 2F47 ....|E-4 2F.F ....
 A-3|..|A-1 2A.F ....|--- .... ....|--- .... ....
....|..|--- .... ....|--- .... ....|--- .... ....
....|..|--- .... ....|--- .... ....|C#5 2F.7 ....
....|..|C-4 CF.7 ....|G#3 2F47 ....|F#5 2F.F ....
....|..|--- .... ....|--- .... ....|B-4 2F.7 ....
....|..|--- .... ....|--- .... ....|--- .... ....
....|..|--- .... ....|--- .... ....|--- .... ....
....|..|C-4 CF.F ....|E-3 2F1F ....|E-4 2F.F ....
 A-3|..|A-1 2A.F ....|--- .... ....|--- .... ....
....|..|--- .... ....|--- .... ....|--- .... ....
....|..|--- .... ....|--- .... ....|F#5 2F.7 ....
....|..|--- .... ....|G#3 2F47 ....|E-4 2F.F ....
....|..|--- .... ....|--- .... ....|E-5 2F.7 ....
....|..|--- .... ....|--- .... ....|--- .... ....
....|..|--- .... ....|--- .... ....|--- .... ....
....|..|C-3 RF.F ....|E-3 2F1F ....|E-5 2F.F ....
 A-3|..|A-1 2A.F ....|--- .... ....|--- .... ....
....|..|--- .... ....|--- .... ....|--- .... ....
....|..|--- .... ....|--- .... ....|C#5 2F.7 ....
....|..|C-4 CF.F ....|E-3 2F1F ....|E-4 2F.F ....
....|..|--- .... ....|--- .... ....|B-4 2F.7 ....
....|..|--- .... ....|--- .... ....|--- .... ....
....|..|--- .... ....|--- .... ....|--- .... ....
....|..|C-4 AF.F ....|E-3 2F1F ....|E-4 2F.F ....
 A-3|..|A-1 2A.F ....|--- .... ....|--- .... ....
....|..|--- .... ....|--- .... ....|--- .... ....
....|..|--- .... ....|--- .... ....|--- .... ....
....|..|--- .... ....|E-3 2F1F ....|F#5 2F.F ....
....|..|--- .... ....|--- .... ....|--- .... ....
....|..|--- .... ....|--- .... ....|--- .... ....
....|..|--- .... ....|--- .... ....|--- .... ....
....|..|C-4 AF.F ....|E-3 2F1F ....|E-4 2F.F ....
 A-3|..|A-1 2A.F ....|--- .... ....|--- .... ....
....|..|--- .... ....|--- .... ....|--- .... ....
....|..|--- .... ....|--- .... ....|--- .... ....
....|..|--- .... ....|G#3 2F47 ....|E-4 2F.F ....
....|..|--- .... ....|--- .... ....|--- .... ....
....|..|--- .... ....|--- .... ....|--- .... ....
....|..|--- .... ....|--- .... ....|--- .... ....
....|..|C-4 CF.F ....|E-3 2F1F ....|E-5 2F.F ....
 A-3|..|A-1 2A.F ....|--- .... ....|--- .... ....
....|..|--- .... ....|--- .... ....|--- .... ....
....|..|--- .... ....|--- .... ....|--- .... ....
....|..|C-4 CF.A ....|E-3 2F1A ....|E-4 2F.7 ....
....|..|--- .... ....|--- .... ....|--- .... ....
....|..|--- .... ....|--- .... ....|--- .... ....
....|..|--- .... ....|--- .... ....|--- .... ....
....|..|C-3 RF.F ....|E-3 2F1F ....|F#5 2F.F ....
 A-3|..|A-1 2A.F ....|--- .... ....|--- .... ....
....|..|--- .... ....|--- .... ....|--- .... ....
....|..|--- .... ....|--- .... ....|--- .... ....
....|..|--- .... ....|E-3 2F1F ....|F#5 2F.7 ....
....|..|--- .... ....|--- .... ....|--- .... ....
....|..|--- .... ....|--- .... ....|--- .... ....
....|..|--- .... ....|--- .... ....|--- .... ....

[Pattern17]
....|..|C-4 AF.F ....|F#3 2F2F ....|G#5 2F.F ....
 B-3|..|B-1 2A.F ....|--- .... ....|--- .... ....
....|..|--- .... ....|--- .... ....|--- .... ....
....|..|--- .... ....|--- .... ....|--- .... ....
....|..|--- .... ....|--- .... ....|E-4 2F.F ....
....|..|--- .... ....|--- .... ....|--- .... ....
....|..|--- .... ....|--- .... ....|--- .... ....
....|..|--- .... ....|--- .... ....|--- .... ....
....|..|C-4 AF.F ....|E-3 2F17 ....|E-4 2F.F ....
 B-3|..|B-1 2A.F ....|--- .... ....|--- .... ....
....|..|--- .... ....|--- .... ....|--- .... ....
....|..|--- .... ....|--- .... ....|--- .... ....
....|..|C-4 CF.7 ....|E-3 2F17 ....|F#5 2F.F ....
....|..|--- .... ....|--- .... ....|--- .... ....
....|..|--- .... ....|--- .... ....|--- .... ....
....|..|--- .... ....|--- .... ....|--- .... ....
....|..|C-4 CF.F ....|F#3 2F2F ....|E-4 2F.F ....
 B-3|..|B-1 2A.F ....|--- .... ....|--- .... ....
....|..|--- .... ....|--- .... ....|--- .... ....
....|..|--- .... ....|--- .... ....|--- .... ....
....|..|--- .... ....|E-3 2F17 ....|E-4 2F.F ....
....|..|--- .... ....|--- .... ....|--- .... ....
....|..|--- .... ....|--- .... ....|--- .... ....
....|..|--- .... ....|--- .... ....|--- .... ....
....|..|C-3 RF.F ....|F#3 2F2F ....|E-5 2F.F ....
 B-3|..|B-1 2A.F ....|--- .... ....|--- .... ....
....|..|--- .... ....|--- .... ....|--- .... ....
....|..|--- .... ....|--- .... ....|--- .... ....
....|..|C-4 CF.F ....|F#3 2F2F ....|E-4 2F.F ....
....|..|--- .... ....|--- .... ....|--- .... ....
....|..|--- .... ....|--- .... ....|--- .... ....
....|..|--- .... ....|--- .... ....|--- .... ....
....|..|C-4 AF.F ....|F#3 2F2F ....|E-4 2F.F ....
 B-3|..|B-1 2A.F ....|--- .... ....|--- .... ....
....|..|--- .... ....|--- .... ....|--- .... ....
....|..|--- .... ....|--- .... ....|--- .... ....
....|..|--- .... ....|F#3 2F2F ....|F#5 2F.F ....
....|..|--- .... ....|--- .... ....|--- .... ....
....|..|--- .... ....|--- .... ....|--- .... ....
....|..|--- .... ....|--- .... ....|--- .... ....
....|..|C-4 AF.F ....|F#3 2F2F ....|E-4 2F.F ....
 B-3|..|B-1 2A.F ....|--- .... ....|--- .... ....
....|..|--- .... ....|--- .... ....|--- .... ....
....|..|--- .... ....|--- .... ....|--- .... ....
....|..|--- .... ....|E-3 2F17 ....|E-4 2F.F ....
....|..|--- .... ....|--- .... ....|--- .... ....
....|..|--- .... ....|--- .... ....|--- .... ....
....|..|--- .... ....|--- .... ....|--- .... ....
....|..|C-4 CF.F ....|F#3 2F2F ....|E-5 2F.F ....
 B-3|..|B-1 2A.F ....|--- .... ....|--- .... ....
....|..|--- .... ....|--- .... ....|--- .... ....
....|..|--- .... ....|--- .... ....|--- .... ....
....|..|C-4 CF.A ....|F#3 2F2A ....|E-4 2F.7 ....
....|..|--- .... ....|--- .... ....|--- .... ....
....|..|--- .... ....|--- .... ....|--- .... ....
....|..|--- .... ....|--- .... ....|--- .... ....
....|..|C-3 RF.F ....|F#3 2F2F ....|F#5 2F.F ....
 B-3|..|B-1 2A.F ....|--- .... ....|--- .... ....
....|..|--- .... ....|--- .... ....|--- .... ....
....|..|--- .... ....|--- .... ....|--- .... ....
....|..|--- .... ....|F#3 2F2F ....|F#5 2F.7 ....
....|..|--- .... ....|--- .... ....|--- .... ....
....|..|--- .... ....|--- .... ....|--- .... ....
....|..|--- .... ....|--- .... ....|--- .... ....
....|..|C-4 AF.F ....|G#3 2F3F ....|B-5 2F.F ....
 G#3|..|G#1 2A.F ....|--- .... ....|--- .... ....
....|..|--- .... ....|--- .... ....|--- .... ....
....|..|--- .... ....|--- .... ....|--- .... ....
....|..|--- .... ....|--- .... ....|E-4 2F.F ....
....|..|--- .... ....|--- .... ....|--- .... ....
....|..|--- .... ....|--- .... ....|--- .... ....
....|..|--- .... ....|--- .... ....|--- .... ....
....|..|C-4 AF.F ....|F#3 2F27 ....|E-4 2F.F ....
 G#3|..|G#1 2A.F ....|--- .... ....|--- .... ....
....|..|--- .... ....|--- .... ....|--- .... ....
....|..|--- .... ....|--- .... ....|--- .... ....
....|..|C-4 CF.7 ....|F#3 2F27 ....|B-5 2F.F ....
....|..|--- .... ....|--- .... ....|--- .... ....
....|..|--- .... ....|--- .... ....|--- .... ....
....|..|--- .... ....|--- .... ....|--- .... ....
....|..|C-4 CF.F ....|G#3 2F3F ....|E-4 2F.F ....
 G#3|..|G#1 2A.F ....|--- .... ....|--- .... ....
....|..|--- .... ....|--- .... ....|--- .... ....
....|..|--- .... ....|--- .... ....|--- .... ....
....|..|--- .... ....|F#3 2F27 ....|E-4 2F.F ....
....|..|--- .... ....|--- .... ....|--- .... ....
....|..|--- .... ....|--- .... ....|--- .... ....
....|..|--- .... ....|--- .... ....|--- .... ....
....|..|C-3 RF.F ....|G#3 2F3F ....|B-5 2F.F ....
 G#3|..|G#1 2A.F ....|--- .... ....|--- .... ....
....|..|--- .... ....|--- .... ....|--- .... ....
....|..|--- .... ....|--- .... ....|--- .... ....
....|..|C-4 CF.F ....|G#3 2F3F ....|E-4 2F.F ....
....|..|--- .... ....|--- .... ....|--- .... ....
....|..|--- .... ....|--- .... ....|--- .... ....
....|..|--- .... ....|--- .... ....|--- .... ....
....|..|C-4 AF.F ....|G#3 2F3F ....|E-4 2F.F ....
 G#3|..|G#1 2A.F ....|--- .... ....|--- .... ....
....|..|--- .... ....|--- .... ....|--- .... ....
....|..|--- .... ....|--- .... ....|--- .... ....
....|..|--- .... ....|G#3 2F3F ....|G#5 2F.F ....
....|..|--- .... ....|--- .... ....|--- .... ....
....|..|--- .... ....|--- .... ....|--- .... ....
....|..|--- .... ....|--- .... ....|--- .... ....
....|..|C-4 AF.F ....|G#3 2F3F ....|E-4 2F.F ....
 G#3|..|G#1 2A.F ....|--- .... ....|--- .... ....
....|..|--- .... ....|--- .... ....|--- .... ....
....|..|--- .... ....|--- .... ....|--- .... ....
....|..|--- .... ....|F#3 2F27 ....|E-4 2F.F ....
....|..|--- .... ....|--- .... ....|--- .... ....
....|..|--- .... ....|--- .... ....|--- .... ....
....|..|--- .... ....|--- .... ....|--- .... ....
....|..|C-4 CF.F ....|G#3 2F3F ....|F#5 2F.F ....
 G#3|..|G#1 2A.F ....|--- .... ....|--- .... ....
....|..|--- .... ....|--- .... ....|--- .... ....
....|..|--- .... ....|--- .... ....|--- .... ....
....|..|C-4 CF.A ....|G#3 2F3A ....|E-4 2F.F ....
....|..|--- .... ....|--- .... ....|--- .... ....
....|..|--- .... ....|--- .... ....|--- .... ....
....|..|--- .... ....|--- .... ....|--- .... ....
....|..|C-3 RF.F ....|G#3 2F3F ....|G#5 2F.F ....
 G#3|..|G#1 2A.F ....|--- .... ....|--- .... ....
....|..|--- .... ....|--- .... ....|--- .... ....
....|..|--- .... ....|--- .... ....|--- .... ....
....|..|--- .... ....|G#3 2F3F ....|E-4 2F.F ....
....|..|--- .... ....|--- .... ....|--- .... ....
....|..|--- .... ....|--- .... ....|--- .... ....
....|..|--- .... ....|--- .... ....|--- .... ....
....|..|C-4 AF.F ....|G#3 2F4F ....|E-5 2F.F ....
 C#4|..|C#2 2A.F ....|--- .... ....|--- .... ....
....|..|--- .... ....|--- .... ....|--- .... ....
....|..|--- .... ....|--- .... ....|--- .... ....
....|..|--- .... ....|--- .... ....|E-4 2F.7 ....
....|..|--- .... ....|--- .... ....|--- .... ....
....|..|--- .... ....|--- .... ....|--- .... ....
....|..|--- .... ....|--- .... ....|--- .... ....
....|..|C-4 AF.F ....|G#3 2F37 ....|F#5 2F.F ....
 C#4|..|C#2 2A.F ....|--- .... ....|--- .... ....
....|..|--- .... ....|--- .... ....|--- .... ....
....|..|--- .... ....|--- .... ....|--- .... ....
....|..|C-4 CF.7 ....|G#3 2F37 ....|E-4 2F.7 ....
....|..|--- .... ....|--- .... ....|--- .... ....
....|..|--- .... ....|--- .... ....|--- .... ....
....|..|--- .... ....|--- .... ....|--- .... ....
....|..|C-4 CF.F ....|G#3 2F4F ....|D#5 2F.F ....
 C#4|..|C#2 2A.F ....|--- .... ....|--- .... ....
....|..|--- .... ....|--- .... ....|--- .... ....
....|..|--- .... ....|--- .... ....|--- .... ....
....|..|--- .... ....|G#3 2F37 ....|G#5 2F.7 ....
....|..|--- .... ....|--- .... ....|--- .... ....
....|..|--- .... ....|--- .... ....|--- .... ....
....|..|--- .... ....|--- .... ....|--- .... ....
....|..|C-3 RF.F ....|G#3 2F4F ....|E-5 2F.F ....
 C#4|..|C#2 2A.F ....|--- .... ....|--- .... ....
....|..|--- .... ....|--- .... ....|--- .... ....
....|..|--- .... ....|--- .... ....|--- .... ....
....|..|C-4 CF.F ....|G#3 2F4F ....|E-4 2F.7 ....
....|..|--- .... ....|--- .... ....|--- .... ....
....|..|--- .... ....|--- .... ....|--- .... ....
....|..|--- .... ....|--- .... ....|--- .... ....
....|..|C-4 AF.F ....|G#3 2F4F ....|F#5 2F.7 ....
 C#4|..|C#2 2A.F ....|--- .... ....|--- .... ....
....|..|--- .... ....|--- .... ....|--- .... ....
....|..|--- .... ....|--- .... ....|--- .... ....
....|..|--- .... ....|G#3 2F4F ....|E-4 2F.7 ....
....|..|--- .... ....|--- .... ....|--- .... ....
....|..|--- .... ....|--- .... ....|--- .... ....
....|..|--- .... ....|--- .... ....|--- .... ....
....|..|C-4 AF.F ....|G#3 2F4F ....|F#5 2F.F ....
 C#4|..|C#2 2A.F ....|--- .... ....|--- .... ....
....|..|--- .... ....|--- .... ....|--- .... ....
....|..|--- .... ....|--- .... ....|--- .... ....
....|..|--- .... ....|G#3 2F37 ....|E-4 2F.7 ....
....|..|--- .... ....|--- .... ....|--- .... ....
....|..|--- .... ....|--- .... ....|--- .... ....
....|..|--- .... ....|--- .... ....|--- .... ....
....|..|C-4 CF.F ....|G#3 2F4F ....|E-5 2F.7 ....
 C#4|..|C#2 2A.F ....|--- .... ....|--- .... ....
....|..|--- .... ....|--- .... ....|--- .... ....
....|..|--- .... ....|--- .... ....|--- .... ....
....|..|C-4 CF.A ....|G#3 2F4A ....|--- .... ....
....|..|--- .... ....|--- .... ....|--- .... ....
....|..|--- .... ....|--- .... ....|--- .... ....
....|..|--- .... ....|--- .... ....|--- .... ....
....|..|C-3 RF.F ....|G#3 2F4F ....|B-4 2F.F ....
 C#4|..|C#2 2A.F ....|--- .... ....|--- .... ....
....|..|--- .... ....|--- .... ....|--- .... ....
....|..|--- .... ....|--- .... ....|--- .... ....
....|..|--- .... ....|G#3 2F4F ....|--- .... ....
....|..|--- .... ....|--- .... ....|--- .... ....
....|..|--- .... ....|--- .... ....|--- .... ....
....|..|--- .... ....|--- .... ....|--- .... ....
....|..|C-4 AF.F ....|E-3 2F1F ....|G#5 2F.F ....
 A-3|..|A-1 2A.F ....|--- .... ....|--- .... ....
....|..|--- .... ....|--- .... ....|--- .... ....
....|..|--- .... ....|--- .... ....|--- .... ....
....|..|--- .... ....|--- .... ....|E-4 2F.F ....
....|..|--- .... ....|--- .... ....|--- .... ....
....|..|--- .... ....|--- .... ....|--- .... ....
....|..|--- .... ....|--- .... ....|--- .... ....
....|..|C-4 AF.F ....|G#3 2F47 ....|E-4 2F.F ....
 A-3|..|A-1 2A.F ....|--- .... ....|--- .... ....
....|..|--- .... ....|--- .... ....|--- .... ....
....|..|--- .... ....|--- .... ....|--- .... ....
....|..|C-4 CF.7 ....|G#3 2F47 ....|F#5 2F.F ....
....|..|--- .... ....|--- .... ....|--- .... ....
....|..|--- .... ....|--- .... ....|--- .... ....
....|..|--- .... ....|--- .... ....|--- .... ....
....|..|C-4 CF.F ....|E-3 2F1F ....|E-4 2F.F ....
 A-3|..|A-1 2A.F ....|--- .... ....|--- .... ....
....|..|--- .... ....|--- .... ....|--- .... ....
....|..|--- .... ....|--- .... ....|--- .... ....
....|..|--- .... ....|G#3 2F47 ....|E-4 2F.F ....
....|..|--- .... ....|--- .... ....|--- .... ....
....|..|--- .... ....|--- .... ....|--- .... ....
....|..|--- .... ....|--- .... ....|--- .... ....
....|..|C-3 RF.F ....|E-3 2F1F ....|E-5 2F.F ....
 A-3|..|A-1 2A.F ....|--- .... ....|--- .... ....
....|..|--- .... ....|--- .... ....|--- .... ....
....|..|--- .... ....|--- .... ....|--- .... ....
....|..|C-4 CF.F ....|E-3 2F1F ....|E-4 2F.F ....
....|..|--- .... ....|--- .... ....|--- .... ....
....|..|--- .... ....|--- .... ....|--- .... ....
....|..|--- .... ....|--- .... ....|--- .... ....
....|..|C-4 AF.F ....|E-3 2F1F ....|E-4 2F.F ....
 A-3|..|A-1 2A.F ....|--- .... ....|--- .... ....
....|..|--- .... ....|--- .... ....|--- .... ....
....|..|--- .... ....|--- .... ....|--- .... ....
....|..|--- .... ....|E-3 2F1F ....|F#5 2F.F ....
....|..|--- .... ....|--- .... ....|--- .... ....
....|..|--- .... ....|--- .... ....|--- .... ....
....|..|--- .... ....|--- .... ....|--- .... ....
....|..|C-4 AF.F ....|E-3 2F1F ....|E-4 2F.F ....
 A-3|..|A-1 2A.F ....|--- .... ....|--- .... ....
....|..|--- .... ....|--- .... ....|--- .... ....
....|..|--- .... ....|--- .... ....|--- .... ....
....|..|--- .... ....|G#3 2F47 ....|E-4 2F.F ....
....|..|--- .... ....|--- .... ....|--- .... ....
....|..|--- .... ....|--- .... ....|--- .... ....
....|..|--- .... ....|--- .... ....|--- .... ....
....|..|C-4 CF.F ....|E-3 2F1F ....|E-5 2F.F ....
 A-3|..|A-1 2A.F ....|--- .... ....|--- .... ....
....|..|--- .... ....|--- .... ....|--- .... ....
....|..|--- .... ....|--- .... ....|--- .... ....
....|..|C-4 CF.A ....|E-3 2F1A ....|E-4 2F.7 ....
....|..|--- .... ....|--- .... ....|--- .... ....
....|..|--- .... ....|--- .... ....|--- .... ....
....|..|--- .... ....|--- .... ....|--- .... ....
....|..|C-3 RF.F ....|E-3 2F1F ....|F#5 2F.F ....
 A-3|..|A-1 2A.F ....|--- .... ....|--- .... ....
....|..|--- .... ....|--- .... ....|--- .... ....
....|..|--- .... ....|--- .... ....|--- .... ....
....|..|--- .... ....|E-3 2F1F ....|F#5 2F.7 ....
....|..|--- .... ....|--- .... ....|--- .... ....
....|..|--- .... ....|--- .... ....|--- .... ....
....|..|--- .... ....|--- .... ....|--- .... ....

[Pattern18]
....|..|C-4 AF.F ....|F#3 2F2F ....|G#5 2F.F ....
 B-3|..|B-1 2A.F ....|--- .... ....|--- .... ....
....|..|--- .... ....|--- .... ....|--- .... ....
....|..|--- .... ....|--- .... ....|--- .... ....
....|..|--- .... ....|--- .... ....|E-4 2F.F ....
....|..|--- .... ....|--- .... ....|--- .... ....
....|..|--- .... ....|--- .... ....|--- .... ....
....|..|--- .... ....|--- .... ....|--- .... ....
....|..|C-4 AF.F ....|E-3 2F17 ....|E-4 2F.F ....
 B-3|..|B-1 2A.F ....|--- .... ....|--- .... ....
....|..|--- .... ....|--- .... ....|--- .... ....
....|..|--- .... ....|--- .... ....|--- .... ....
....|..|C-4 CF.7 ....|E-3 2F17 ....|F#5 2F.F ....
....|..|--- .... ....|--- .... ....|--- .... ....
....|..|--- .... ....|--- .... ....|--- .... ....
....|..|--- .... ....|--- .... ....|--- .... ....
....|..|C-4 CF.F ....|F#3 2F2F ....|E-4 2F.F ....
 B-3|..|B-1 2A.F ....|--- .... ....|--- .... ....
....|..|--- .... ....|--- .... ....|--- .... ....
....|..|--- .... ....|--- .... ....|--- .... ....
....|..|--- .... ....|E-3 2F17 ....|E-4 2F.F ....
....|..|--- .... ....|--- .... ....|--- .... ....
....|..|--- .... ....|--- .... ....|--- .... ....
....|..|--- .... ....|--- .... ....|--- .... ....
....|..|C-3 RF.F ....|F#3 2F2F ....|E-5 2F.F ....
 B-3|..|B-1 2A.F ....|--- .... ....|--- .... ....
....|..|--- .... ....|--- .... ....|--- .... ....
....|..|--- .... ....|--- .... ....|--- .... ....
....|..|C-4 CF.F ....|F#3 2F2F ....|E-4 2F.F ....
....|..|--- .... ....|--- .... ....|--- .... ....
....|..|--- .... ....|--- .... ....|--- .... ....
....|..|--- .... ....|--- .... ....|--- .... ....
....|..|C-4 AF.F ....|F#3 2F2F ....|E-4 2F.F ....
 B-3|..|B-1 2A.F ....|--- .... ....|--- .... ....
....|..|--- .... ....|--- .... ....|--- .... ....
....|..|--- .... ....|--- .... ....|--- .... ....
....|..|--- .... ....|F#3 2F2F ....|F#5 2F.F ....
....|..|--- .... ....|--- .... ....|--- .... ....
....|..|--- .... ....|--- .... ....|--- .... ....
....|..|--- .... ....|--- .... ....|--- .... ....
....|..|C-4 AF.F ....|F#3 2F2F ....|E-4 2F.F ....
 B-3|..|B-1 2A.F ....|--- .... ....|--- .... ....
....|..|--- .... ....|--- .... ....|--- .... ....
....|..|--- .... ....|--- .... ....|--- .... ....
....|..|--- .... ....|E-3 2F17 ....|E-4 2F.F ....
....|..|--- .... ....|--- .... ....|--- .... ....
....|..|--- .... ....|--- .... ....|--- .... ....
....|..|--- .... ....|--- .... ....|--- .... ....
....|..|C-4 CF.F ....|F#3 2F2F ....|E-5 2F.F ....
 B-3|..|B-1 2A.F ....|--- .... ....|--- .... ....
....|..|--- .... ....|--- .... ....|--- .... ....
....|..|--- .... ....|--- .... ....|--- .... ....
....|..|C-4 CF.A ....|F#3 2F2A ....|E-4 2F.7 ....
....|..|--- .... ....|--- .... ....|--- .... ....
....|..|--- .... ....|--- .... ....|--- .... ....
....|..|--- .... ....|--- .... ....|--- .... ....
....|..|C-3 RF.F ....|F#3 2F2F ....|F#5 2F.F ....
 B-3|..|B-1 2A.F ....|--- .... ....|--- .... ....
....|..|--- .... ....|--- .... ....|--- .... ....
....|..|--- .... ....|--- .... ....|--- .... ....
....|..|--- .... ....|F#3 2F2F ....|F#5 2F.7 ....
....|..|--- .... ....|--- .... ....|--- .... ....
....|..|--- .... ....|--- .... ....|--- .... ....
....|..|--- .... ....|--- .... ....|--- .... ....
....|..|C-4 AF.F ....|C#4 2F6F ....|G#5 2F.F ....
 C#4|..|C#2 2A.F ....|--- .... ....|--- .... ....
....|..|--- .... ....|--- .... ....|--- .... ....
....|..|--- .... ....|--- .... ....|F#5 2F.F ....
....|..|--- .... ....|--- .... ....|E-4 2F.7 ....
....|..|--- .... ....|--- .... ....|E-5 2F.F ....
....|..|--- .... ....|--- .... ....|--- .... ....
....|..|--- .... ....|--- .... ....|--- .... ....
....|..|C-4 AF.F ....|F#3 2F27 ....|G#5 2F.F ....
 C#4|..|C#2 2A.F ....|--- .... ....|--- .... ....
....|..|--- .... ....|--- .... ....|--- .... ....
....|..|--- .... ....|--- .... ....|F#5 2F.F ....
....|..|C-4 CF.7 ....|F#3 2F27 ....|E-4 2F.7 ....
....|..|--- .... ....|--- .... ....|E-5 2F.F ....
....|..|--- .... ....|--- .... ....|--- .... ....
....|..|--- .... ....|--- .... ....|--- .... ....
....|..|C-4 CF.F ....|C#4 2F6F ....|G#5 2F.F ....
 C#4|..|C#2 2A.F ....|--- .... ....|--- .... ....
....|..|--- .... ....|--- .... ....|--- .... ....
....|..|--- .... ....|--- .... ....|F#5 2F.F ....
....|..|--- .... ....|F#3 2F27 ....|F#5 2F.7 ....
....|..|--- .... ....|--- .... ....|E-5 2F.F ....
....|..|--- .... ....|--- .... ....|--- .... ....
....|..|--- .... ....|--- .... ....|--- .... ....
....|..|C-3 RF.F ....|C#4 2F6F ....|G#5 2F.F ....
 C#4|..|C#2 2A.F ....|--- .... ....|--- .... ....
....|..|--- .... ....|--- .... ....|--- .... ....
....|..|--- .... ....|--- .... ....|F#5 2F.F ....
....|..|C-4 CF.F ....|--- .... ....|E-4 2F.7 ....
....|..|--- .... ....|--- .... ....|E-5 2F.F ....
....|..|--- .... ....|--- .... ....|--- .... ....
....|..|--- .... ....|--- .... ....|--- .... ....
....|..|C-4 AF.F ....|F#3 2F27 ....|G#5 2F.F ....
 C#4|..|C#2 2A.F ....|--- .... ....|--- .... ....
....|..|--- .... ....|--- .... ....|--- .... ....
....|..|--- .... ....|--- .... ....|F#5 2F.F ....
....|..|--- .... ....|--- .... ....|--- .... ....
....|..|--- .... ....|--- .... ....|E-5 2F.F ....
....|..|--- .... ....|--- .... ....|--- .... ....
....|..|--- .... ....|--- .... ....|--- .... ....
....|..|C-4 AF.F ....|C#4 2F6F ....|G#5 2F.F ....
 C#4|..|C#2 2A.F ....|--- .... ....|--- .... ....
....|..|--- .... ....|--- .... ....|--- .... ....
....|..|--- .... ....|--- .... ....|F#5 2F.F ....
....|..|--- .... ....|F#3 2F27 ....|--- .... ....
....|..|--- .... ....|--- .... ....|E-5 2F.F ....
....|..|--- .... ....|--- .... ....|--- .... ....
....|..|--- .... ....|--- .... ....|--- .... ....
....|..|C-4 CF.F ....|C#4 2F6F ....|G#5 2F.F ....
 C#4|..|C#2 2A.F ....|--- .... ....|--- .... ....
....|..|--- .... ....|--- .... ....|--- .... ....
....|..|--- .... ....|--- .... ....|F#5 2F.F ....
....|..|C-4 CF.A ....|--- .... ....|--- .... ....
....|..|--- .... ....|--- .... ....|E-5 2F.F ....
....|..|--- .... ....|--- .... ....|--- .... ....
....|..|--- .... ....|--- .... ....|--- .... ....
....|..|C-3 RF.F ....|C#4 2F6F ....|G#5 2F.F ....
 C#4|..|C#2 2A.F ....|--- .... ....|R-- .... ....
....|..|--- .... ....|--- .... ....|--- .... ....
....|..|--- .... ....|--- .... ....|A-5 2F.F ....
....|..|--- .... ....|C#4 2F6F ....|--- .... ....
 C#4|..|C#3 2C.F ....|--- .... ....|B-5 2F.F ....
....|..|--- .... ....|--- .... ....|--- .... ....
....|..|--- .... ....|--- .... ....|--- .... ....
....|..|C-4 AF.F ....|C#4 2F6F ....|A-5 2F.F ....
 C#4|..|C#3 2C.F ....|--- .... ....|--- .... ....
....|..|--- .... ....|--- .... ....|--- .... ....
....|..|--- .... ....|--- .... ....|F#5 2F.7 ....
....|..|--- .... ....|--- .... ....|G#6 2F.F ....
....|..|--- .... ....|--- .... ....|E-5 2F.7 ....
....|..|--- .... ....|--- .... ....|--- .... ....
....|..|--- .... ....|--- .... ....|--- .... ....
....|..|C-4 AF.F ....|C#4 2F67 ....|F#5 2F.F ....
....|..|C#2 2F.7 ....|--- .... ....|--- .... ....
....|..|--- .... ....|--- .... ....|--- .... ....
....|..|--- .... ....|--- .... ....|F#5 2F.7 ....
....|..|C-4 CF.7 ....|--- .... ....|E-5 2F.F ....
....|..|--- .... ....|--- .... ....|E-5 2F.7 ....
....|..|--- .... ....|--- .... ....|--- .... ....
....|..|--- .... ....|--- .... ....|--- .... ....
....|..|C-4 CF.F ....|C#4 2F6F ....|C#6 2F.F ....
....|..|C#2 2F.7 ....|--- .... ....|R-- .... ....
....|..|--- .... ....|--- .... ....|--- .... ....
....|..|--- .... ....|--- .... ....|F#5 2F.7 ....
....|..|--- .... ....|C#4 2F6A ....|B-4 2F.F ....
....|..|C#3 2F.A ....|--- .... ....|E-5 2F.7 ....
....|..|--- .... ....|--- .... ....|--- .... ....
....|..|--- .... ....|--- .... ....|--- .... ....
....|..|C-3 RF.F ....|C#4 2F67 ....|A-4 2F.F ....
....|..|C#2 2F.7 ....|--- .... ....|--- .... ....
....|..|--- .... ....|--- .... ....|--- .... ....
....|..|--- .... ....|--- .... ....|F#5 2F.7 ....
....|..|C-4 CF.F ....|--- .... ....|F#5 2F.F ....
....|..|--- .... ....|--- .... ....|E-5 2F.7 ....
....|..|--- .... ....|--- .... ....|--- .... ....
....|..|--- .... ....|--- .... ....|--- .... ....
....|..|C-4 AF.F ....|C#4 2F67 ....|E-4 2F.F ....
 C#4|..|C#3 2C.F ....|--- .... ....|--- .... ....
....|..|--- .... ....|--- .... ....|--- .... ....
....|..|--- .... ....|--- .... ....|F#5 2F.7 ....
....|..|--- .... ....|--- .... ....|F#5 2F.F ....
....|..|--- .... ....|--- .... ....|E-5 2F.7 ....
....|..|--- .... ....|--- .... ....|--- .... ....
....|..|--- .... ....|--- .... ....|--- .... ....
....|..|C-4 AF.F ....|C#4 2F67 ....|A-3 2F.F ....
....|..|C#2 2F.7 ....|--- .... ....|R-- .... ....
....|..|--- .... ....|--- .... ....|--- .... ....
....|..|--- .... ....|--- .... ....|A-5 2F.7 ....
....|..|--- .... ....|C#4 2F67 ....|G#3 2F.F ....
....|..|C#3 2F.7 ....|--- .... ....|B-5 2F.7 ....
....|..|--- .... ....|--- .... ....|--- .... ....
....|..|--- .... ....|--- .... ....|--- .... ....
....|..|C-4 CF.F ....|C#4 2F67 ....|E-4 2F.F ....
....|..|C#3 2F.7 ....|--- .... ....|--- .... ....
....|..|--- .... ....|--- .... ....|--- .... ....
....|..|--- .... ....|--- .... ....|--- .... ....
....|..|C-4 CF.A ....|--- .... ....|D#3 2F.F ....
....|..|--- .... ....|--- .... ....|--- .... ....
....|..|--- .... ....|--- .... ....|--- .... ....
....|..|--- .... ....|--- .... ....|--- .... ....
....|..|C-3 RF.F ....|--- .... ....|B-3 2F.F ....
....|..|C#3 2F.A ....|--- .... ....|--- .... ....
....|..|--- .... ....|--- .... ....|--- .... ....
....|..|--- .... ....|--- .... ....|--- .... ....
....|..|--- .... ....|--- .... ....|B-2 2F.F ....
....|..|--- .... ....|--- .... ....|R-- .... ....
....|..|--- .... ....|--- .... ....|--- .... ....
....|..|--- .... ....|--- .... ....|C#5 2F.F ....
....|..|C-4 AF.F ....|G#3 2F4F ....|C#6 2F.7 ....
 C#4|..|C#2 2A.F ....|--- .... ....|--- .... ....
....|..|--- .... ....|--- .... ....|--- .... ....
....|..|--- .... ....|--- .... ....|--- .... ....
....|..|--- .... ....|--- .... ....|B-4 2F.7 ....
....|..|--- .... ....|--- .... ....|--- .... ....
....|..|--- .... ....|--- .... ....|--- .... ....
....|..|--- .... ....|--- .... ....|--- .... ....
....|..|B-8 JF.F ....|--- .... ....|A-4 2F.7 ....
....|..|--- .... ....|--- .... ....|--- .... ....
....|..|--- .... ....|--- .... ....|--- .... ....
....|..|--- .... ....|--- .... ....|--- .... ....
....|..|C-4 CF.7 ....|--- .... ....|F#5 2F.7 ....
....|..|--- .... ....|--- .... ....|--- .... ....
....|..|--- .... ....|--- .... ....|--- .... ....
....|..|--- .... ....|--- .... ....|--- .... ....
....|..|C-4 AF.F ....|--- .... ....|E-4 2F.7 ....
....|..|C#3 2F.7 ....|--- .... ....|--- .... ....
....|..|--- .... ....|--- .... ....|--- .... ....
....|..|--- .... ....|--- .... ....|--- .... ....
....|..|--- .... ....|--- .... ....|F#5 2F.7 ....
....|..|--- .... ....|--- .... ....|R-- .... ....
....|..|--- .... ....|--- .... ....|--- .... ....
....|..|--- .... ....|--- .... ....|C#5 2F.A ....
....|..|B-8 JF.F ....|G#3 2F4A ....|A-3 2F.7 ....
....|..|C#2 2F.A ....|--- .... ....|--- .... ....
....|..|--- .... ....|--- .... ....|--- .... ....
....|..|--- .... ....|--- .... ....|--- .... ....
....|..|--- .... ....|--- .... ....|G#3 2F.7 ....
....|..|--- .... ....|--- .... ....|--- .... ....
....|..|--- .... ....|--- .... ....|--- .... ....
....|..|--- .... ....|--- .... ....|--- .... ....
....|..|C-4 AF.F ....|--- .... ....|E-4 2F.7 ....
....|..|--- .... ....|--- .... ....|--- .... ....
....|..|--- .... ....|--- .... ....|--- .... ....
....|..|--- .... ....|--- .... ....|--- .... ....
....|..|--- .... ....|--- .... ....|D#3 2F.7 ....
....|..|--- .... ....|--- .... ....|--- .... ....
....|..|--- .... ....|--- .... ....|--- .... ....
....|..|--- .... ....|--- .... ....|--- .... ....
....|..|B-8 JF.F ....|--- .... ....|B-3 2F.7 ....
....|..|--- .... ....|--- .... ....|--- .... ....
....|..|--- .... ....|--- .... ....|--- .... ....
....|..|--- .... ....|--- .... ....|--- .... ....
....|..|--- .... ....|--- .... ....|B-2 2F.7 ....
....|..|--- .... ....|--- .... ....|R-- .... ....
....|..|--- .... ....|--- .... ....|--- .... ....
....|..|--- .... ....|--- .... ....|C#5 2F.7 ....
....|..|C-4 AF.F ....|G#3 2F47 ....|--- .... ....
....|..|C#2 2F.7 ....|--- .... ....|--- .... ....
....|..|--- .... ....|--- .... ....|--- .... ....
....|..|--- .... ....|--- .... ....|--- .... ....
....|..|--- .... ....|--- .... ....|--- .... ....
....|..|--- .... ....|--- .... ....|--- .... ....
....|..|--- .... ....|--- .... ....|--- .... ....
....|..|--- .... ....|--- .... ....|--- .... ....
....|..|B-8 JF.F ....|--- .... ....|--- .... ....
....|..|--- .... ....|--- .... ....|--- .... ....
....|..|--- .... ....|--- .... ....|--- .... ....
....|..|--- .... ....|--- .... ....|--- .... ....
....|..|B-8 JF.F ....|--- .... ....|--- .... ....
....|..|--- .... ....|--- .... ....|--- .... ....
....|..|--- .... ....|--- .... ....|--- .... ....
....|..|--- .... ....|--- .... ....|--- .... ....

[Pattern19]
....|..|C-4 AF.F ....|--- .... ....|--- .... ....
....|..|--- .... ....|--- .... ....|--- .... ....
....|..|--- .... ....|--- .... ....|--- .... ....
....|..|--- .... ....|--- .... ....|--- .... ....
....|..|--- .... ....|--- .... ....|--- .... ....
....|..|--- .... ....|--- .... ....|--- .... ....
....|..|--- .... ....|--- .... ....|--- .... ....
....|..|--- .... ....|--- .... ....|--- .... ....
....|..|B-8 JF.F ....|--- .... ....|--- .... ....
....|..|--- .... ....|--- .... ....|--- .... ....
....|..|--- .... ....|--- .... ....|--- .... ....
....|..|--- .... ....|--- .... ....|--- .... ....
....|..|--- .... ....|--- .... ....|--- .... ....
....|..|--- .... ....|--- .... ....|--- .... ....
....|..|--- .... ....|--- .... ....|--- .... ....
....|..|--- .... ....|--- .... ....|--- .... ....
....|..|C-4 AF.F ....|--- .... ....|--- .... ....
....|..|--- .... ....|--- .... ....|--- .... ....
....|..|--- .... ....|--- .... ....|--- .... ....
....|..|--- .... ....|--- .... ....|--- .... ....
....|..|B-8 JF.A ....|--- .... ....|--- .... ....
....|..|--- .... ....|--- .... ....|--- .... ....
....|..|--- .... ....|--- .... ....|--- .... ....
....|..|--- .... ....|--- .... ....|--- .... ....
....|..|B-8 JF.F ....|--- .... ....|--- .... ....
....|..|--- .... ....|--- .... ....|--- .... ....
....|..|--- .... ....|--- .... ....|--- .... ....
....|..|--- .... ....|--- .... ....|--- .... ....
....|..|--- .... ....|--- .... ....|--- .... ....
....|..|--- .... ....|--- .... ....|--- .... ....
....|..|--- .... ....|--- .... ....|--- .... ....
....|..|--- .... ....|--- .... ....|--- .... ....
....|..|C-4 AF.F ....|G#4 2F.F ....|--- .... ....
....|..|--- .... ....|--- .... ....|--- .... ....
....|..|--- .... ....|--- .... ....|--- .... ....
....|..|--- .... ....|--- .... ....|--- .... ....
....|..|--- .... ....|--- .... ....|--- .... ....
....|..|--- .... ....|--- .... ....|--- .... ....
....|..|--- .... ....|--- .... ....|--- .... ....
....|..|--- .... ....|--- .... ....|--- .... ....
....|..|B-8 JF.F ....|--- .... ....|--- .... ....
....|..|--- .... ....|--- .... ....|--- .... ....
....|..|--- .... ....|--- .... ....|--- .... ....
....|..|--- .... ....|--- .... ....|--- .... ....
 C#4|..|C#2 2A.F ....|--- .... ....|--- .... ....
....|..|--- .... ....|--- .... ....|--- .... ....
....|..|--- .... ....|--- .... ....|--- .... ....
....|..|--- .... ....|--- .... ....|--- .... ....
....|..|C-4 AF.F ....|E-4 2F8F ....|G#3 2FAF ....
 B-3|..|B-1 2A.F ....|--- .... ....|--- .... ....
....|..|--- .... ....|--- .... ....|--- .... ....
....|..|--- .... ....|--- .... ....|--- .... ....
....|..|--- .... ....|--- .... ....|--- .... ....
....|..|--- .... ....|--- .... ....|--- .... ....
....|..|--- .... ....|--- .... ....|--- .... ....
....|..|--- .... ....|--- .... ....|--- .... ....
....|..|B-8 JF.F ....|G#4 2F.A ....|--- .... ....
....|..|--- .... ....|--- .... ....|--- .... ....
....|..|--- .... ....|--- .... ....|--- .... ....
....|..|--- .... ....|--- .... ....|--- .... ....
....|..|--- .... ....|--- .... ....|--- .... ....
....|..|--- .... ....|--- .... ....|--- .... ....
....|..|--- .... ....|--- .... ....|--- .... ....
....|..|--- .... ....|--- .... ....|--- .... ....
....|..|C-4 AF.F ....|F#3 2F2F ....|D#4 2F.F ....
 B-3|..|B-1 2A.F ....|--- .... ....|--- .... ....
....|..|--- .... ....|--- .... ....|--- .... ....
....|..|--- .... ....|--- .... ....|--- .... ....
....|..|C#2 2F.A ....|--- .... ....|--- .... ....
....|..|--- .... ....|--- .... ....|--- .... ....
....|..|--- .... ....|--- .... ....|--- .... ....
....|..|--- .... ....|--- .... ....|--- .... ....
....|..|B-8 JF.F ....|E-4 2F8A ....|G#3 2FAA ....
....|..|B-1 2F.A ....|--- .... ....|--- .... ....
....|..|--- .... ....|--- .... ....|--- .... ....
....|..|--- .... ....|--- .... ....|--- .... ....
....|..|--- .... ....|--- .... ....|--- .... ....
....|..|--- .... ....|--- .... ....|--- .... ....
....|..|--- .... ....|--- .... ....|--- .... ....
....|..|--- .... ....|--- .... ....|--- .... ....
....|..|C-4 AF.F ....|G#4 2F.7 ....|--- .... ....
....|..|--- .... ....|--- .... ....|--- .... ....
....|..|--- .... ....|--- .... ....|--- .... ....
....|..|--- .... ....|--- .... ....|--- .... ....
....|..|--- .... ....|--- .... ....|--- .... ....
....|..|--- .... ....|--- .... ....|--- .... ....
....|..|--- .... ....|--- .... ....|--- .... ....
....|..|--- .... ....|--- .... ....|--- .... ....
....|..|B-8 JF.F ....|F#3 2F2A ....|D#4 2F.A ....
....|..|B-1 2F.A ....|--- .... ....|--- .... ....
....|..|--- .... ....|--- .... ....|--- .... ....
....|..|--- .... ....|--- .... ....|--- .... ....
....|..|C#2 2F.7 ....|--- .... ....|--- .... ....
....|..|--- .... ....|--- .... ....|--- .... ....
....|..|--- .... ....|--- .... ....|--- .... ....
....|..|--- .... ....|--- .... ....|--- .... ....
....|..|C-4 AF.F ....|E-4 2F87 ....|G#3 2FA7 ....
....|..|B-1 2F.7 ....|--- .... ....|--- .... ....
....|..|--- .... ....|--- .... ....|--- .... ....
....|..|--- .... ....|--- .... ....|--- .... ....
....|..|--- .... ....|--- .... ....|--- .... ....
....|..|--- .... ....|--- .... ....|--- .... ....
....|..|--- .... ....|--- .... ....|--- .... ....
....|..|--- .... ....|--- .... ....|--- .... ....
....|..|B-8 JF.F ....|--- .... ....|--- .... ....
....|..|--- .... ....|--- .... ....|--- .... ....
....|..|--- .... ....|--- .... ....|--- .... ....
....|..|--- .... ....|--- .... ....|--- .... ....
....|..|--- .... ....|--- .... ....|--- .... ....
....|..|--- .... ....|--- .... ....|--- .... ....
....|..|--- .... ....|--- .... ....|--- .... ....
....|..|--- .... ....|--- .... ....|--- .... ....
....|..|C-4 AF.F ....|F#3 2F27 ....|D#4 2F.7 ....
....|..|B-1 2F.7 ....|--- .... ....|--- .... ....
....|..|--- .... ....|--- .... ....|--- .... ....
....|..|--- .... ....|--- .... ....|--- .... ....
....|..|--- .... ....|--- .... ....|--- .... ....
....|..|--- .... ....|--- .... ....|--- .... ....
....|..|--- .... ....|--- .... ....|--- .... ....
....|..|--- .... ....|--- .... ....|--- .... ....
....|..|B-8 JF.F ....|--- .... ....|--- .... ....
....|..|--- .... ....|--- .... ....|--- .... ....
....|..|--- .... ....|--- .... ....|--- .... ....
....|..|--- .... ....|--- .... ....|--- .... ....
....|..|B-8 JF.F ....|--- .... ....|--- .... ....
....|..|--- .... ....|--- .... ....|--- .... ....
....|..|--- .... ....|--- .... ....|--- .... ....
....|..|--- .... ....|--- .... ....|--- .... ....
....|..|C-4 AF.F ....|F#3 2F2F ....|E-4 2F.F ....
....|..|--- .... ....|--- .... ....|--- .... ....
....|..|--- .... ....|--- .... ....|--- .... ....
....|..|--- .... ....|--- .... ....|--- .... ....
....|..|--- .... ....|--- .... ....|--- .... ....
....|..|--- .... ....|--- .... ....|--- .... ....
....|..|--- .... ....|--- .... ....|--- .... ....
....|..|--- .... ....|--- .... ....|--- .... ....
....|..|B-8 JF.F ....|F#4 2F.F ....|--- .... ....
....|..|--- .... ....|--- .... ....|--- .... ....
....|..|--- .... ....|--- .... ....|--- .... ....
....|..|--- .... ....|--- .... ....|--- .... ....
....|..|--- .... ....|--- .... ....|--- .... ....
....|..|--- .... ....|--- .... ....|--- .... ....
....|..|--- .... ....|--- .... ....|--- .... ....
....|..|--- .... ....|--- .... ....|--- .... ....
....|..|C-4 AF.F ....|--- .... ....|--- .... ....
....|..|--- .... ....|--- .... ....|--- .... ....
....|..|--- .... ....|--- .... ....|--- .... ....
....|..|--- .... ....|--- .... ....|--- .... ....
....|..|B-8 JF.A ....|--- .... ....|--- .... ....
....|..|--- .... ....|--- .... ....|--- .... ....
....|..|--- .... ....|--- .... ....|--- .... ....
....|..|--- .... ....|--- .... ....|--- .... ....
....|..|C-4 LF.F ....|D#4 2FDF ....|E-4 2F.A ....
....|..|--- .... ....|--- .... ....|--- .... ....
....|..|--- .... ....|--- .... ....|--- .... ....
....|..|--- .... ....|--- .... ....|--- .... ....
....|..|--- .... ....|--- .... ....|--- .... ....
....|..|--- .... ....|--- .... ....|--- .... ....
....|..|--- .... ....|--- .... ....|--- .... ....
....|..|--- .... ....|--- .... ....|--- .... ....
....|..|C-4 AF.F ....|F#4 2F.A ....|--- .... ....
....|..|--- .... ....|--- .... ....|--- .... ....
....|..|--- .... ....|--- .... ....|--- .... ....
....|..|--- .... ....|--- .... ....|--- .... ....
....|..|--- .... ....|--- .... ....|--- .... ....
....|..|--- .... ....|--- .... ....|--- .... ....
....|..|--- .... ....|--- .... ....|--- .... ....
....|..|--- .... ....|--- .... ....|--- .... ....
....|..|B-8 JF.F ....|B-3 2F9F ....|--- .... ....
....|..|--- .... ....|--- .... ....|--- .... ....
....|..|--- .... ....|--- .... ....|--- .... ....
....|..|--- .... ....|--- .... ....|--- .... ....
....|..|B-8 JF.7 ....|--- .... ....|--- .... ....
....|..|--- .... ....|--- .... ....|--- .... ....
....|..|--- .... ....|--- .... ....|--- .... ....
....|..|--- .... ....|--- .... ....|--- .... ....
....|..|C-4 AF.F ....|F#3 2F27 ....|E-4 2F.7 ....
....|..|--- .... ....|--- .... ....|--- .... ....
....|..|--- .... ....|--- .... ....|--- .... ....
....|..|--- .... ....|--- .... ....|--- .... ....
....|..|--- .... ....|--- .... ....|--- .... ....
....|..|--- .... ....|--- .... ....|--- .... ....
....|..|--- .... ....|--- .... ....|--- .... ....
....|..|--- .... ....|--- .... ....|--- .... ....
....|..|B-8 JF.7 ....|F#4 2F.7 ....|--- .... ....
....|..|--- .... ....|--- .... ....|--- .... ....
....|..|--- .... ....|--- .... ....|--- .... ....
....|..|--- .... ....|--- .... ....|--- .... ....
....|..|--- .... ....|--- .... ....|--- .... ....
....|..|--- .... ....|--- .... ....|--- .... ....
....|..|--- .... ....|--- .... ....|--- .... ....
....|..|--- .... ....|--- .... ....|--- .... ....
....|..|C-4 AF.F ....|E-3 2F2F ....|C#4 2F.F ....
 A-3|..|A-1 2A.F ....|--- .... ....|--- .... ....
....|..|--- .... ....|--- .... ....|--- .... ....
....|..|--- .... ....|--- .... ....|--- .... ....
....|..|--- .... ....|--- .... ....|--- .... ....
....|..|--- .... ....|--- .... ....|--- .... ....
....|..|--- .... ....|--- .... ....|--- .... ....
....|..|--- .... ....|--- .... ....|--- .... ....
....|..|B-8 JF.F ....|D#4 2FD7 ....|--- .... ....
....|..|--- .... ....|--- .... ....|--- .... ....
....|..|--- .... ....|--- .... ....|--- .... ....
....|..|--- .... ....|--- .... ....|--- .... ....
....|..|--- .... ....|--- .... ....|--- .... ....
....|..|--- .... ....|--- .... ....|--- .... ....
....|..|--- .... ....|--- .... ....|--- .... ....
....|..|--- .... ....|--- .... ....|--- .... ....
....|..|C-4 AF.F ....|--- .... ....|--- .... ....
....|..|--- .... ....|--- .... ....|--- .... ....
....|..|--- .... ....|--- .... ....|--- .... ....
....|..|--- .... ....|--- .... ....|--- .... ....
....|..|--- .... ....|--- .... ....|--- .... ....
....|..|--- .... ....|--- .... ....|--- .... ....
....|..|--- .... ....|--- .... ....|--- .... ....
....|..|--- .... ....|--- .... ....|--- .... ....
....|..|B-8 JF.F ....|B-3 2F97 ....|C#4 2F.A ....
....|..|A-1 2F.A ....|--- .... ....|--- .... ....
....|..|--- .... ....|--- .... ....|--- .... ....
....|..|--- .... ....|--- .... ....|--- .... ....
....|..|--- .... ....|--- .... ....|--- .... ....
....|..|--- .... ....|--- .... ....|--- .... ....
....|..|--- .... ....|--- .... ....|--- .... ....
....|..|--- .... ....|--- .... ....|--- .... ....
....|..|C-4 AF.F ....|--- .... ....|--- .... ....
....|..|--- .... ....|--- .... ....|--- .... ....
....|..|--- .... ....|--- .... ....|--- .... ....
....|..|--- .... ....|--- .... ....|--- .... ....
....|..|--- .... ....|--- .... ....|--- .... ....
....|..|--- .... ....|--- .... ....|--- .... ....
....|..|--- .... ....|--- .... ....|--- .... ....
....|..|--- .... ....|--- .... ....|--- .... ....
....|..|B-8 JF.F ....|--- .... ....|--- .... ....
....|..|--- .... ....|--- .... ....|--- .... ....
....|..|--- .... ....|--- .... ....|--- .... ....
....|..|--- .... ....|--- .... ....|--- .... ....
....|..|--- .... ....|--- .... ....|--- .... ....
....|..|--- .... ....|--- .... ....|--- .... ....
....|..|--- .... ....|--- .... ....|--- .... ....
....|..|--- .... ....|--- .... ....|--- .... ....
....|..|C-4 AF.F ....|E-3 2F27 ....|C#4 2F.7 ....
....|..|A-1 2F.7 ....|--- .... ....|--- .... ....
....|..|--- .... ....|--- .... ....|--- .... ....
....|..|--- .... ....|--- .... ....|--- .... ....
....|..|--- .... ....|--- .... ....|--- .... ....
....|..|--- .... ....|--- .... ....|--- .... ....
....|..|--- .... ....|--- .... ....|--- .... ....
....|..|--- .... ....|--- .... ....|--- .... ....
....|..|B-8 JF.F ....|--- .... ....|--- .... ....
....|..|--- .... ....|--- .... ....|--- .... ....
....|..|--- .... ....|--- .... ....|--- .... ....
....|..|--- .... ....|--- .... ....|--- .... ....
....|..|B-8 JF.F ....|--- .... ....|--- .... ....
....|..|--- .... ....|--- .... ....|--- .... ....
....|..|--- .... ....|--- .... ....|--- .... ....
....|..|--- .... ....|--- .... ....|--- .... ....

[Pattern20]
....|..|C-4 AF.F ....|F#3 2F2F ....|E-4 2F.F ....
 B-3|..|B-1 2A.F ....|--- .... ....|--- .... ....
....|..|--- .... ....|--- .... ....|--- .... ....
....|..|--- .... ....|--- .... ....|--- .... ....
....|..|--- .... ....|--- .... ....|--- .... ....
....|..|--- .... ....|--- .... ....|--- .... ....
....|..|--- .... ....|--- .... ....|--- .... ....
....|..|--- .... ....|--- .... ....|--- .... ....
....|..|B-8 JF.F ....|--- .... ....|--- .... ....
....|..|--- .... ....|--- .... ....|--- .... ....
....|..|--- .... ....|--- .... ....|--- .... ....
....|..|--- .... ....|--- .... ....|--- .... ....
....|..|--- .... ....|--- .... ....|--- .... ....
....|..|--- .... ....|--- .... ....|--- .... ....
....|..|--- .... ....|--- .... ....|--- .... ....
....|..|--- .... ....|--- .... ....|--- .... ....
....|..|C-4 AF.F ....|--- .... ....|--- .... ....
....|..|--- .... ....|--- .... ....|--- .... ....
....|..|--- .... ....|--- .... ....|--- .... ....
....|..|--- .... ....|--- .... ....|--- .... ....
....|..|B-8 JF.A ....|--- .... ....|--- .... ....
....|..|--- .... ....|--- .... ....|--- .... ....
....|..|--- .... ....|--- .... ....|--- .... ....
....|..|--- .... ....|--- .... ....|--- .... ....
....|..|B-8 JF.F ....|F#3 2F2A ....|E-4 2F.A ....
....|..|B-1 2F.A ....|--- .... ....|--- .... ....
....|..|--- .... ....|--- .... ....|--- .... ....
....|..|--- .... ....|--- .... ....|--- .... ....
....|..|--- .... ....|--- .... ....|--- .... ....
....|..|--- .... ....|--- .... ....|--- .... ....
....|..|--- .... ....|--- .... ....|--- .... ....
....|..|--- .... ....|--- .... ....|--- .... ....
....|..|C-4 AF.F ....|--- .... ....|--- .... ....
....|..|--- .... ....|--- .... ....|--- .... ....
....|..|--- .... ....|--- .... ....|--- .... ....
....|..|--- .... ....|--- .... ....|--- .... ....
....|..|--- .... ....|--- .... ....|--- .... ....
....|..|--- .... ....|--- .... ....|--- .... ....
....|..|--- .... ....|--- .... ....|--- .... ....
....|..|--- .... ....|--- .... ....|--- .... ....
....|..|B-8 JF.F ....|--- .... ....|--- .... ....
....|..|--- .... ....|--- .... ....|--- .... ....
....|..|--- .... ....|--- .... ....|--- .... ....
....|..|--- .... ....|--- .... ....|--- .... ....
....|..|B-8 JF.7 ....|--- .... ....|--- .... ....
....|..|--- .... ....|--- .... ....|--- .... ....
....|..|--- .... ....|--- .... ....|--- .... ....
....|..|--- .... ....|--- .... ....|--- .... ....
....|..|C-4 AF.F ....|F#3 2F27 ....|E-4 2F.7 ....
....|..|B-1 2F.7 ....|--- .... ....|--- .... ....
....|..|--- .... ....|--- .... ....|--- .... ....
....|..|--- .... ....|--- .... ....|--- .... ....
....|..|--- .... ....|--- .... ....|--- .... ....
....|..|--- .... ....|--- .... ....|--- .... ....
....|..|--- .... ....|--- .... ....|--- .... ....
....|..|--- .... ....|--- .... ....|--- .... ....
....|..|B-8 JF.F ....|--- .... ....|--- .... ....
....|..|--- .... ....|--- .... ....|--- .... ....
....|..|--- .... ....|--- .... ....|--- .... ....
....|..|--- .... ....|--- .... ....|--- .... ....
....|..|--- .... ....|--- .... ....|--- .... ....
....|..|--- .... ....|--- .... ....|--- .... ....
....|..|--- .... ....|--- .... ....|--- .... ....
....|..|--- .... ....|--- .... ....|--- .... ....
....|..|C-4 AF.F ....|E-3 2F9F ....|G#4 2F.F ....
 E-3|..|E-1 2A.F ....|--- .... ....|--- .... ....
....|..|--- .... ....|--- .... ....|--- .... ....
....|..|--- .... ....|--- .... ....|--- .... ....
....|..|--- .... ....|--- .... ....|--- .... ....
....|..|--- .... ....|--- .... ....|--- .... ....
....|..|--- .... ....|--- .... ....|--- .... ....
....|..|--- .... ....|--- .... ....|--- .... ....
....|..|B-8 JF.F ....|--- .... ....|--- .... ....
....|..|--- .... ....|--- .... ....|--- .... ....
....|..|--- .... ....|--- .... ....|--- .... ....
....|..|--- .... ....|--- .... ....|--- .... ....
....|..|--- .... ....|--- .... ....|--- .... ....
....|..|--- .... ....|--- .... ....|--- .... ....
....|..|--- .... ....|--- .... ....|--- .... ....
....|..|--- .... ....|--- .... ....|--- .... ....
....|..|C-4 AF.F ....|--- .... ....|--- .... ....
....|..|--- .... ....|--- .... ....|--- .... ....
....|..|--- .... ....|--- .... ....|--- .... ....
....|..|--- .... ....|--- .... ....|--- .... ....
....|..|--- .... ....|--- .... ....|--- .... ....
....|..|--- .... ....|--- .... ....|--- .... ....
....|..|--- .... ....|--- .... ....|--- .... ....
....|..|--- .... ....|--- .... ....|--- .... ....
....|..|B-8 JF.F ....|E-3 2F9A ....|G#4 2F.A ....
....|..|E-1 2F.A ....|--- .... ....|--- .... ....
....|..|--- .... ....|--- .... ....|--- .... ....
....|..|--- .... ....|--- .... ....|--- .... ....
....|..|--- .... ....|--- .... ....|--- .... ....
....|..|--- .... ....|--- .... ....|--- .... ....
....|..|--- .... ....|--- .... ....|--- .... ....
....|..|--- .... ....|--- .... ....|--- .... ....
....|..|C-4 AF.F ....|--- .... ....|--- .... ....
....|..|--- .... ....|--- .... ....|--- .... ....
....|..|--- .... ....|--- .... ....|--- .... ....
....|..|--- .... ....|--- .... ....|--- .... ....
....|..|B-8 JF.F ....|--- .... ....|--- .... ....
....|..|--- .... ....|--- .... ....|--- .... ....
....|..|--- .... ....|--- .... ....|--- .... ....
....|..|--- .... ....|--- .... ....|--- .... ....
....|..|B-8 JF.F ....|--- .... ....|--- .... ....
....|..|--- .... ....|--- .... ....|--- .... ....
....|..|--- .... ....|--- .... ....|--- .... ....
....|..|--- .... ....|--- .... ....|--- .... ....
....|..|R-- .... ....|--- .... ....|--- .... ....
....|..|--- .... ....|--- .... ....|--- .... ....
....|..|--- .... ....|--- .... ....|--- .... ....
....|..|--- .... ....|--- .... ....|--- .... ....
....|..|C-4 AF.F ....|E-3 2F97 ....|G#4 2F.7 ....
....|..|E-1 2F.7 ....|--- .... ....|--- .... ....
....|..|--- .... ....|--- .... ....|--- .... ....
....|..|--- .... ....|--- .... ....|--- .... ....
....|..|--- .... ....|--- .... ....|--- .... ....
....|..|--- .... ....|--- .... ....|--- .... ....
....|..|--- .... ....|--- .... ....|--- .... ....
....|..|--- .... ....|--- .... ....|--- .... ....
....|..|B-8 JF.F ....|--- .... ....|--- .... ....
....|..|--- .... ....|--- .... ....|--- .... ....
....|..|--- .... ....|--- .... ....|--- .... ....
....|..|--- .... ....|--- .... ....|--- .... ....
 D#4|..|D#2 2A.F ....|--- .... ....|--- .... ....
....|..|--- .... ....|--- .... ....|--- .... ....
....|..|--- .... ....|--- .... ....|--- .... ....
....|..|--- .... ....|--- .... ....|--- .... ....
....|..|C-4 AF.F ....|A#3 2F.F ....|C#5 2F.F ....
 D#4|..|D#2 2A.F ....|--- .... ....|--- .... ....
....|..|--- .... ....|--- .... ....|--- .... ....
....|..|--- .... ....|--- .... ....|B-4 2F.F ....
....|..|R-- .... ....|--- .... ....|--- .... ....
....|..|--- .... ....|--- .... ....|A#4 2F.F ....
....|..|--- .... ....|--- .... ....|--- .... ....
....|..|--- .... ....|--- .... ....|--- .... ....
....|..|B-8 JF.7 ....|--- .... ....|C#5 2F.F ....
....|..|--- .... ....|--- .... ....|--- .... ....
....|..|--- .... ....|--- .... ....|--- .... ....
....|..|--- .... ....|--- .... ....|B-4 2F.F ....
....|..|--- .... ....|--- .... ....|--- .... ....
....|..|--- .... ....|--- .... ....|A#4 2F.F ....
....|..|--- .... ....|--- .... ....|--- .... ....
....|..|--- .... ....|--- .... ....|--- .... ....
....|..|C-4 AF.F ....|D#4 2F3F ....|G#4 2F.F ....
....|..|--- .... ....|--- .... ....|--- .... ....
....|..|--- .... ....|--- .... ....|--- .... ....
....|..|--- .... ....|--- .... ....|--- .... ....
....|..|B-8 JF.7 ....|--- .... ....|A#4 2F.F ....
....|..|--- .... ....|--- .... ....|--- .... ....
....|..|--- .... ....|--- .... ....|--- .... ....
....|..|--- .... ....|--- .... ....|--- .... ....
....|..|C-4 LF.F ....|A#3 2F4F ....|G#4 2F.F ....
....|..|D#2 2F.A ....|--- .... ....|--- .... ....
....|..|--- .... ....|--- .... ....|--- .... ....
....|..|--- .... ....|--- .... ....|B-4 2F.A ....
....|..|R-- .... ....|--- .... ....|F#4 2F.F ....
....|..|--- .... ....|--- .... ....|A#4 2F.A ....
....|..|--- .... ....|--- .... ....|--- .... ....
....|..|--- .... ....|--- .... ....|--- .... ....
....|..|C-4 AF.F ....|D#3 2FAF ....|F-3 2F5F ....
 G#3|..|G#1 2A.F ....|--- .... ....|--- .... ....
....|..|--- .... ....|--- .... ....|--- .... ....
....|..|--- .... ....|--- .... ....|B-4 2F.A ....
....|..|--- .... ....|--- .... ....|--- .... ....
....|..|--- .... ....|--- .... ....|A#4 2F.A ....
....|..|--- .... ....|--- .... ....|--- .... ....
....|..|--- .... ....|--- .... ....|--- .... ....
....|..|C-3 RF.F ....|D#4 2F3A ....|G#4 2F.A ....
....|..|--- .... ....|--- .... ....|--- .... ....
....|..|--- .... ....|--- .... ....|--- .... ....
....|..|--- .... ....|--- .... ....|--- .... ....
....|..|C-3 RF.F ....|--- .... ....|A#4 2F.A ....
....|..|--- .... ....|--- .... ....|--- .... ....
....|..|--- .... ....|--- .... ....|--- .... ....
....|..|--- .... ....|--- .... ....|--- .... ....
....|..|C-4 AF.F ....|B-3 2F1F ....|D#3 2F5F ....
....|..|D#2 2F.7 ....|--- .... ....|--- .... ....
....|..|--- .... ....|--- .... ....|--- .... ....
....|..|--- .... ....|--- .... ....|B-4 2F.7 ....
....|..|--- .... ....|--- .... ....|F#4 2F.A ....
....|..|--- .... ....|--- .... ....|A#4 2F.7 ....
....|..|--- .... ....|--- .... ....|--- .... ....
....|..|--- .... ....|--- .... ....|--- .... ....
....|..|R-- .... ....|B-3 2F1F ....|C#5 2F.7 ....
....|..|G#1 2F.A ....|--- .... ....|--- .... ....
....|..|--- .... ....|--- .... ....|--- .... ....
....|..|--- .... ....|--- .... ....|B-4 2F.7 ....
....|..|--- .... ....|--- .... ....|--- .... ....
....|..|--- .... ....|--- .... ....|A#4 2F.7 ....
....|..|--- .... ....|--- .... ....|--- .... ....
....|..|--- .... ....|--- .... ....|--- .... ....
....|..|C-4 AF.F ....|C#3 2F.F ....|E-4 2F.F ....
 C#4|..|C#2 2A.F ....|--- .... ....|--- .... ....
....|..|--- .... ....|--- .... ....|--- .... ....
....|..|--- .... ....|--- .... ....|--- .... ....
....|..|C-3 RF.A ....|--- .... ....|A#4 2F.7 ....
....|..|--- .... ....|--- .... ....|--- .... ....
....|..|--- .... ....|R-- .... ....|R-- .... ....
....|..|--- .... ....|--- .... ....|--- .... ....
....|..|B-8 JF.F ....|C#3 2F.F ....|E-4 2F.F ....
 C#4|..|C#2 2A.F ....|--- .... ....|--- .... ....
....|..|--- .... ....|--- .... ....|--- .... ....
....|..|--- .... ....|--- .... ....|--- .... ....
....|..|--- .... ....|--- .... ....|F#4 2F.7 ....
....|..|--- .... ....|--- .... ....|--- .... ....
....|..|--- .... ....|R-- .... ....|R-- .... ....
....|..|--- .... ....|--- .... ....|--- .... ....
....|..|C-4 AF.F ....|G#3 2F4F ....|E-4 2F.F ....
 C#4|..|C#2 2A.F ....|--- .... ....|--- .... ....
....|..|--- .... ....|--- .... ....|--- .... ....
....|..|--- .... ....|--- .... ....|--- .... ....
....|..|--- .... ....|--- .... ....|--- .... ....
....|..|--- .... ....|--- .... ....|--- .... ....
....|..|--- .... ....|--- .... ....|R-- .... ....
....|..|--- .... ....|--- .... ....|--- .... ....
....|..|B-8 JF.F ....|C#3 2F.F ....|E-4 2F.F ....
 C#4|..|C#2 2A.F ....|--- .... ....|--- .... ....
....|..|--- .... ....|--- .... ....|--- .... ....
....|..|--- .... ....|--- .... ....|--- .... ....
....|..|C-3 RF.7 ....|--- .... ....|--- .... ....
....|..|--- .... ....|--- .... ....|--- .... ....
....|..|--- .... ....|R-- .... ....|R-- .... ....
....|..|--- .... ....|--- .... ....|--- .... ....
....|..|C-4 AF.F ....|C#3 2F.F ....|E-4 2F.F ....
 C#4|..|C#2 2A.F ....|--- .... ....|--- .... ....
....|..|--- .... ....|--- .... ....|--- .... ....
....|..|--- .... ....|--- .... ....|--- .... ....
....|..|--- .... ....|--- .... ....|--- .... ....
....|..|--- .... ....|--- .... ....|--- .... ....
....|..|--- .... ....|R-- .... ....|R-- .... ....
....|..|--- .... ....|--- .... ....|--- .... ....
....|..|B-8 JF.F ....|G#3 2F4F ....|E-4 2F.F ....
 C#4|..|C#2 2A.F ....|--- .... ....|--- .... ....
....|..|--- .... ....|--- .... ....|--- .... ....
....|..|--- .... ....|--- .... ....|--- .... ....
....|..|--- .... ....|--- .... ....|--- .... ....
....|..|--- .... ....|--- .... ....|--- .... ....
....|..|--- .... ....|--- .... ....|R-- .... ....
....|..|--- .... ....|--- .... ....|--- .... ....
....|..|C-4 AF.F ....|G#3 2F4F ....|E-4 2F.F ....
 C#4|..|C#2 2A.F ....|--- .... ....|--- .... ....
....|..|--- .... ....|--- .... ....|--- .... ....
....|..|--- .... ....|--- .... ....|--- .... ....
....|..|--- .... ....|--- .... ....|--- .... ....
....|..|--- .... ....|--- .... ....|--- .... ....
....|..|--- .... ....|R-- .... ....|R-- .... ....
....|..|--- .... ....|--- .... ....|--- .... ....
....|..|B-8 JF.F ....|G#3 2F4F ....|E-4 2F.F ....
 C#4|..|C#2 2A.F ....|--- .... ....|--- .... ....
....|..|--- .... ....|--- .... ....|--- .... ....
....|..|--- .... ....|--- .... ....|--- .... ....
....|..|--- .... ....|--- .... ....|--- .... ....
....|..|--- .... ....|--- .... ....|--- .... ....
....|..|--- .... ....|R-- .... ....|R-- .... ....
....|..|--- .... ....|--- .... ....|--- .... ....

[Pattern21]
....|..|C-4 AF.F ....|C#3 2F.F ....|E-4 2F.F ....
 C#4|..|C#2 2A.F ....|--- .... ....|--- .... ....
....|..|--- .... ....|--- .... ....|--- .... ....
....|..|--- .... ....|--- .... ....|--- .... ....
....|..|--- .... ....|--- .... ....|--- .... ....
....|..|--- .... ....|--- .... ....|--- .... ....
....|..|--- .... ....|R-- .... ....|R-- .... ....
....|..|--- .... ....|--- .... ....|--- .... ....
....|..|B-8 JF.F ....|C#3 2F.F ....|E-4 2F.F ....
 C#4|..|C#2 2A.F ....|--- .... ....|--- .... ....
....|..|--- .... ....|--- .... ....|--- .... ....
....|..|--- .... ....|--- .... ....|--- .... ....
....|..|--- .... ....|--- .... ....|--- .... ....
....|..|--- .... ....|--- .... ....|--- .... ....
....|..|--- .... ....|R-- .... ....|R-- .... ....
....|..|--- .... ....|--- .... ....|--- .... ....
....|..|C-4 AF.F ....|G#3 2F4F ....|E-4 2F.F ....
 C#4|..|C#2 2A.F ....|--- .... ....|--- .... ....
....|..|--- .... ....|--- .... ....|--- .... ....
....|..|--- .... ....|--- .... ....|--- .... ....
....|..|--- .... ....|--- .... ....|--- .... ....
....|..|--- .... ....|--- .... ....|--- .... ....
....|..|--- .... ....|R-- .... ....|R-- .... ....
....|..|--- .... ....|--- .... ....|--- .... ....
....|..|B-8 JF.F ....|C#3 2F.F ....|E-4 2F.F ....
 C#4|..|C#2 2A.F ....|--- .... ....|--- .... ....
....|..|--- .... ....|--- .... ....|--- .... ....
....|..|--- .... ....|--- .... ....|--- .... ....
....|..|B-8 JF.F ....|--- .... ....|--- .... ....
....|..|--- .... ....|--- .... ....|--- .... ....
....|..|--- .... ....|R-- .... ....|R-- .... ....
....|..|--- .... ....|--- .... ....|--- .... ....
....|..|C-4 AF.F ....|C#3 2F.F ....|E-4 2F.F ....
 C#4|..|C#2 2A.F ....|--- .... ....|--- .... ....
....|..|--- .... ....|--- .... ....|--- .... ....
....|..|--- .... ....|--- .... ....|--- .... ....
....|..|--- .... ....|--- .... ....|--- .... ....
....|..|--- .... ....|--- .... ....|--- .... ....
....|..|--- .... ....|R-- .... ....|R-- .... ....
....|..|--- .... ....|--- .... ....|--- .... ....
....|..|B-8 JF.F ....|G#3 2F4F ....|E-4 2F.F ....
 C#4|..|C#2 2A.F ....|--- .... ....|--- .... ....
....|..|--- .... ....|--- .... ....|--- .... ....
....|..|--- .... ....|--- .... ....|--- .... ....
....|..|--- .... ....|--- .... ....|--- .... ....
....|..|--- .... ....|--- .... ....|--- .... ....
....|..|--- .... ....|--- .... ....|R-- .... ....
....|..|--- .... ....|--- .... ....|--- .... ....
....|..|C-4 AF.F ....|G#3 2F4F ....|E-4 2F.F ....
 C#4|..|C#2 2A.F ....|--- .... ....|--- .... ....
....|..|--- .... ....|--- .... ....|--- .... ....
....|..|--- .... ....|--- .... ....|--- .... ....
....|..|B-8 JF.A ....|--- .... ....|--- .... ....
....|..|--- .... ....|--- .... ....|--- .... ....
....|..|--- .... ....|R-- .... ....|R-- .... ....
....|..|--- .... ....|--- .... ....|--- .... ....
....|..|B-8 JF.F ....|C#3 2F.F ....|E-4 2F.F ....
 C#4|..|C#2 2A.F ....|--- .... ....|--- .... ....
....|..|--- .... ....|--- .... ....|--- .... ....
....|..|--- .... ....|--- .... ....|--- .... ....
....|..|--- .... ....|--- .... ....|--- .... ....
....|..|--- .... ....|--- .... ....|--- .... ....
....|..|--- .... ....|R-- .... ....|R-- .... ....
....|..|--- .... ....|--- .... ....|--- .... ....
....|..|C-4 AF.F ....|B-2 2F.F ....|D#4 2F.F ....
 B-3|..|B-1 2A.F ....|--- .... ....|--- .... ....
....|..|--- .... ....|--- .... ....|--- .... ....
....|..|--- .... ....|--- .... ....|--- .... ....
....|..|--- .... ....|--- .... ....|--- .... ....
....|..|--- .... ....|--- .... ....|--- .... ....
....|..|--- .... ....|R-- .... ....|R-- .... ....
....|..|--- .... ....|--- .... ....|--- .... ....
....|..|B-8 JF.F ....|B-2 2F.F ....|D#4 2F.F ....
 B-3|..|B-1 2A.F ....|--- .... ....|--- .... ....
....|..|--- .... ....|--- .... ....|--- .... ....
....|..|--- .... ....|--- .... ....|--- .... ....
....|..|B-8 JF.7 ....|--- .... ....|--- .... ....
....|..|--- .... ....|--- .... ....|--- .... ....
....|..|--- .... ....|R-- .... ....|R-- .... ....
....|..|--- .... ....|--- .... ....|--- .... ....
....|..|C-4 AF.F ....|F#3 2F2F ....|D#4 2F.F ....
 B-3|..|B-1 2A.F ....|--- .... ....|--- .... ....
....|..|--- .... ....|--- .... ....|--- .... ....
....|..|--- .... ....|--- .... ....|--- .... ....
....|..|--- .... ....|--- .... ....|--- .... ....
....|..|--- .... ....|--- .... ....|--- .... ....
....|..|--- .... ....|R-- .... ....|R-- .... ....
....|..|--- .... ....|--- .... ....|--- .... ....
....|..|B-8 JF.F ....|B-2 2F.F ....|D#4 2F.F ....
 B-3|..|B-1 2A.F ....|--- .... ....|--- .... ....
....|..|--- .... ....|--- .... ....|--- .... ....
....|..|--- .... ....|--- .... ....|--- .... ....
....|..|--- .... ....|--- .... ....|--- .... ....
....|..|--- .... ....|--- .... ....|--- .... ....
....|..|--- .... ....|R-- .... ....|R-- .... ....
....|..|--- .... ....|--- .... ....|--- .... ....
....|..|C-4 AF.F ....|B-2 2F.F ....|D#4 2F.F ....
 B-3|..|B-1 2A.F ....|--- .... ....|--- .... ....
....|..|--- .... ....|--- .... ....|--- .... ....
....|..|--- .... ....|--- .... ....|--- .... ....
....|..|--- .... ....|--- .... ....|--- .... ....
....|..|--- .... ....|--- .... ....|--- .... ....
....|..|--- .... ....|R-- .... ....|R-- .... ....
....|..|--- .... ....|--- .... ....|--- .... ....
....|..|B-8 JF.F ....|F#3 2F2F ....|D#4 2F.F ....
 B-3|..|B-1 2A.F ....|--- .... ....|--- .... ....
....|..|--- .... ....|--- .... ....|--- .... ....
....|..|--- .... ....|--- .... ....|--- .... ....
....|..|--- .... ....|--- .... ....|--- .... ....
....|..|--- .... ....|--- .... ....|--- .... ....
....|..|--- .... ....|R-- .... ....|R-- .... ....
....|..|--- .... ....|--- .... ....|--- .... ....
....|..|C-4 AF.F ....|B-2 2F.F ....|D#4 2F.F ....
 B-3|..|B-1 2A.F ....|--- .... ....|--- .... ....
....|..|--- .... ....|--- .... ....|--- .... ....
....|..|--- .... ....|--- .... ....|--- .... ....
....|..|--- .... ....|--- .... ....|--- .... ....
....|..|--- .... ....|--- .... ....|--- .... ....
....|..|--- .... ....|R-- .... ....|R-- .... ....
....|..|--- .... ....|--- .... ....|--- .... ....
....|..|B-8 JF.F ....|F#3 2F2F ....|D#4 2F.F ....
 B-3|..|B-1 2A.F ....|--- .... ....|--- .... ....
....|..|--- .... ....|--- .... ....|--- .... ....
....|..|--- .... ....|--- .... ....|--- .... ....
....|..|--- .... ....|--- .... ....|--- .... ....
....|..|--- .... ....|--- .... ....|--- .... ....
....|..|--- .... ....|R-- .... ....|R-- .... ....
....|..|--- .... ....|--- .... ....|--- .... ....
....|..|C-4 AF.F ....|B-2 2F.F ....|D#4 2F.F ....
 B-3|..|B-1 2A.F ....|--- .... ....|--- .... ....
....|..|--- .... ....|--- .... ....|--- .... ....
....|..|--- .... ....|--- .... ....|--- .... ....
....|..|--- .... ....|--- .... ....|E-4 2F.F ....
....|..|--- .... ....|--- .... ....|--- .... ....
....|..|--- .... ....|R-- .... ....|R-- .... ....
....|..|--- .... ....|--- .... ....|--- .... ....
....|..|B-8 JF.F ....|B-2 2F.F ....|D#4 2F.F ....
 B-3|..|B-1 2A.F ....|--- .... ....|--- .... ....
....|..|--- .... ....|--- .... ....|--- .... ....
....|..|--- .... ....|--- .... ....|--- .... ....
....|..|--- .... ....|--- .... ....|E-4 2F.F ....
....|..|--- .... ....|--- .... ....|--- .... ....
....|..|--- .... ....|R-- .... ....|R-- .... ....
....|..|--- .... ....|--- .... ....|--- .... ....
....|..|C-4 AF.F ....|B-2 2F.F ....|D#4 2F.F ....
 B-3|..|B-1 2A.F ....|--- .... ....|--- .... ....
....|..|--- .... ....|--- .... ....|--- .... ....
....|..|--- .... ....|--- .... ....|--- .... ....
....|..|--- .... ....|--- .... ....|E-4 2F.F ....
....|..|--- .... ....|--- .... ....|--- .... ....
....|..|--- .... ....|R-- .... ....|R-- .... ....
....|..|--- .... ....|--- .... ....|--- .... ....
....|..|B-8 JF.F ....|B-2 2F.F ....|D#4 2F.F ....
 B-3|..|B-1 2A.F ....|--- .... ....|--- .... ....
....|..|--- .... ....|--- .... ....|--- .... ....
....|..|--- .... ....|--- .... ....|--- .... ....
....|..|B-8 JF.F ....|--- .... ....|E-4 2F.F ....
....|..|--- .... ....|--- .... ....|--- .... ....
....|..|--- .... ....|R-- .... ....|R-- .... ....
....|..|--- .... ....|--- .... ....|--- .... ....
....|..|C-4 AF.F ....|B-2 2F.F ....|D#4 2F.F ....
 B-3|..|B-1 2A.F ....|--- .... ....|--- .... ....
....|..|--- .... ....|--- .... ....|--- .... ....
....|..|--- .... ....|--- .... ....|--- .... ....
....|..|--- .... ....|--- .... ....|E-4 2F.F ....
....|..|--- .... ....|--- .... ....|--- .... ....
....|..|--- .... ....|R-- .... ....|R-- .... ....
....|..|--- .... ....|--- .... ....|--- .... ....
....|..|B-8 JF.F ....|F#3 2F2F ....|D#4 2F.F ....
 B-3|..|B-1 2A.F ....|--- .... ....|--- .... ....
....|..|--- .... ....|--- .... ....|--- .... ....
....|..|--- .... ....|--- .... ....|--- .... ....
....|..|--- .... ....|--- .... ....|E-4 2F.F ....
....|..|--- .... ....|--- .... ....|--- .... ....
....|..|--- .... ....|R-- .... ....|R-- .... ....
....|..|--- .... ....|--- .... ....|--- .... ....
....|..|C-4 AF.F ....|F#3 2F2F ....|D#4 2F.F ....
 B-3|..|B-1 2A.F ....|--- .... ....|--- .... ....
....|..|--- .... ....|--- .... ....|--- .... ....
....|..|--- .... ....|--- .... ....|--- .... ....
....|..|B-8 JF.A ....|--- .... ....|E-4 2F.F ....
....|..|--- .... ....|--- .... ....|--- .... ....
....|..|--- .... ....|R-- .... ....|--- .... ....
....|..|--- .... ....|--- .... ....|--- .... ....
....|..|B-8 JF.F ....|F#3 2F2F ....|D#4 2F.F ....
 B-3|..|B-1 2A.F ....|--- .... ....|--- .... ....
....|..|--- .... ....|--- .... ....|--- .... ....
....|..|--- .... ....|--- .... ....|--- .... ....
....|..|--- .... ....|--- .... ....|E-4 2F.F ....
....|..|--- .... ....|--- .... ....|--- .... ....
....|..|--- .... ....|R-- .... ....|--- .... ....
....|..|--- .... ....|--- .... ....|--- .... ....
....|..|C-4 AF.F ....|A-2 2F.F ....|E-4 2F.F ....
 A-3|..|A-1 2A.F ....|--- .... ....|--- .... ....
....|..|--- .... ....|--- .... ....|--- .... ....
....|..|--- .... ....|--- .... ....|--- .... ....
....|..|--- .... ....|--- .... ....|E-4 2F.7 ....
....|..|--- .... ....|--- .... ....|--- .... ....
....|..|--- .... ....|R-- .... ....|R-- .... ....
....|..|--- .... ....|--- .... ....|--- .... ....
....|..|B-8 JF.F ....|A-2 2F.F ....|E-4 2F.F ....
 A-3|..|A-1 2A.F ....|--- .... ....|--- .... ....
....|..|--- .... ....|--- .... ....|--- .... ....
....|..|--- .... ....|--- .... ....|--- .... ....
....|..|B-8 JF.7 ....|--- .... ....|E-4 2F.7 ....
....|..|--- .... ....|--- .... ....|--- .... ....
....|..|--- .... ....|R-- .... ....|R-- .... ....
....|..|--- .... ....|--- .... ....|--- .... ....
....|..|C-4 AF.F ....|E-3 2F2F ....|E-4 2F.F ....
 A-3|..|A-1 2A.F ....|--- .... ....|--- .... ....
....|..|--- .... ....|--- .... ....|--- .... ....
....|..|--- .... ....|--- .... ....|--- .... ....
....|..|--- .... ....|--- .... ....|E-4 2F.7 ....
....|..|--- .... ....|--- .... ....|--- .... ....
....|..|--- .... ....|R-- .... ....|R-- .... ....
....|..|--- .... ....|--- .... ....|--- .... ....
....|..|B-8 JF.F ....|A-2 2F.F ....|E-4 2F.F ....
 A-3|..|A-1 2A.F ....|--- .... ....|--- .... ....
....|..|--- .... ....|--- .... ....|--- .... ....
....|..|--- .... ....|--- .... ....|--- .... ....
....|..|--- .... ....|--- .... ....|E-4 2F.7 ....
....|..|--- .... ....|--- .... ....|--- .... ....
....|..|--- .... ....|R-- .... ....|R-- .... ....
....|..|--- .... ....|--- .... ....|--- .... ....
....|..|C-4 AF.F ....|A-2 2F.F ....|E-4 2F.F ....
 A-3|..|A-1 2A.F ....|--- .... ....|--- .... ....
....|..|--- .... ....|--- .... ....|--- .... ....
....|..|--- .... ....|--- .... ....|--- .... ....
....|..|--- .... ....|--- .... ....|E-4 2F.7 ....
....|..|--- .... ....|--- .... ....|--- .... ....
....|..|--- .... ....|R-- .... ....|R-- .... ....
....|..|--- .... ....|--- .... ....|--- .... ....
....|..|B-8 JF.F ....|E-3 2F2F ....|E-4 2F.F ....
 A-3|..|A-1 2A.F ....|--- .... ....|--- .... ....
....|..|--- .... ....|--- .... ....|--- .... ....
....|..|--- .... ....|--- .... ....|--- .... ....
....|..|--- .... ....|--- .... ....|E-4 2F.7 ....
....|..|--- .... ....|--- .... ....|--- .... ....
....|..|--- .... ....|--- .... ....|R-- .... ....
....|..|--- .... ....|--- .... ....|--- .... ....
....|..|C-4 AF.F ....|E-3 2F2F ....|E-4 2F.F ....
 A-3|..|A-1 2A.F ....|--- .... ....|--- .... ....
....|..|--- .... ....|--- .... ....|--- .... ....
....|..|--- .... ....|--- .... ....|--- .... ....
....|..|--- .... ....|--- .... ....|--- .... ....
....|..|--- .... ....|--- .... ....|--- .... ....
....|..|--- .... ....|R-- .... ....|R-- .... ....
....|..|--- .... ....|--- .... ....|--- .... ....
....|..|B-8 JF.F ....|E-3 2F2F ....|E-4 2F.F ....
 A-3|..|A-1 2A.F ....|--- .... ....|--- .... ....
....|..|--- .... ....|--- .... ....|--- .... ....
....|..|--- .... ....|--- .... ....|--- .... ....
....|..|--- .... ....|--- .... ....|--- .... ....
....|..|--- .... ....|--- .... ....|--- .... ....
....|..|--- .... ....|R-- .... ....|R-- .... ....
....|..|--- .... ....|--- .... ....|--- .... ....

[Pattern22]
....|..|C-4 AF.F ....|B-2 2F.F ....|D#4 2F.F ....
 B-3|..|B-1 2A.F ....|--- .... ....|--- .... ....
....|..|--- .... ....|--- .... ....|--- .... ....
....|..|--- .... ....|--- .... ....|--- .... ....
....|..|--- .... ....|--- .... ....|--- .... ....
....|..|--- .... ....|--- .... ....|--- .... ....
....|..|--- .... ....|R-- .... ....|R-- .... ....
....|..|--- .... ....|--- .... ....|--- .... ....
....|..|B-8 JF.F ....|B-2 2F.F ....|D#4 2F.F ....
 B-3|..|B-1 2A.F ....|--- .... ....|--- .... ....
....|..|--- .... ....|--- .... ....|--- .... ....
....|..|--- .... ....|--- .... ....|--- .... ....
....|..|--- .... ....|--- .... ....|--- .... ....
....|..|--- .... ....|--- .... ....|--- .... ....
....|..|--- .... ....|R-- .... ....|R-- .... ....
....|..|--- .... ....|--- .... ....|--- .... ....
....|..|C-4 AF.F ....|F#3 2F2F ....|D#4 2F.F ....
 B-3|..|B-1 2A.F ....|--- .... ....|--- .... ....
....|..|--- .... ....|--- .... ....|--- .... ....
....|..|--- .... ....|--- .... ....|--- .... ....
....|..|--- .... ....|--- .... ....|--- .... ....
....|..|--- .... ....|--- .... ....|--- .... ....
....|..|--- .... ....|R-- .... ....|R-- .... ....
....|..|--- .... ....|--- .... ....|--- .... ....
....|..|B-8 JF.F ....|B-2 2F.F ....|D#4 2F.F ....
 B-3|..|B-1 2A.F ....|--- .... ....|--- .... ....
....|..|--- .... ....|--- .... ....|--- .... ....
....|..|--- .... ....|--- .... ....|--- .... ....
....|..|B-8 JF.F ....|--- .... ....|--- .... ....
....|..|--- .... ....|--- .... ....|--- .... ....
....|..|--- .... ....|R-- .... ....|R-- .... ....
....|..|--- .... ....|--- .... ....|--- .... ....
....|..|C-4 AF.F ....|B-2 2F.F ....|D#4 2F.F ....
 B-3|..|B-1 2A.F ....|--- .... ....|--- .... ....
....|..|--- .... ....|--- .... ....|--- .... ....
....|..|--- .... ....|--- .... ....|--- .... ....
....|..|--- .... ....|--- .... ....|--- .... ....
....|..|--- .... ....|--- .... ....|--- .... ....
....|..|--- .... ....|R-- .... ....|R-- .... ....
....|..|--- .... ....|--- .... ....|--- .... ....
....|..|B-8 JF.F ....|F#3 2F2F ....|D#4 2F.F ....
 B-3|..|B-1 2A.F ....|--- .... ....|--- .... ....
....|..|--- .... ....|--- .... ....|--- .... ....
....|..|--- .... ....|--- .... ....|--- .... ....
....|..|--- .... ....|--- .... ....|--- .... ....
....|..|--- .... ....|--- .... ....|--- .... ....
....|..|--- .... ....|--- .... ....|R-- .... ....
....|..|--- .... ....|--- .... ....|--- .... ....
....|..|C-4 AF.F ....|F#3 2F2F ....|D#4 2F.F ....
 B-3|..|B-1 2A.F ....|--- .... ....|--- .... ....
....|..|--- .... ....|--- .... ....|--- .... ....
....|..|--- .... ....|--- .... ....|--- .... ....
....|..|B-8 JF.A ....|--- .... ....|--- .... ....
....|..|--- .... ....|--- .... ....|--- .... ....
....|..|--- .... ....|R-- .... ....|R-- .... ....
....|..|--- .... ....|--- .... ....|--- .... ....
....|..|B-8 JF.F ....|D#4 2F.F ....|D#4 2F.F ....
 B-3|..|B-1 2A.F ....|--- .... ....|--- .... ....
....|..|--- .... ....|--- .... ....|--- .... ....
....|..|--- .... ....|--- .... ....|--- .... ....
....|..|--- .... ....|--- .... ....|--- .... ....
....|..|--- .... ....|--- .... ....|--- .... ....
....|..|--- .... ....|D#4 2F.F ....|R-- .... ....
....|..|--- .... ....|--- .... ....|--- .... ....
....|..|C-4 AF.F ....|D#4 2F.F ....|B-4 2F.F ....
 E-3|..|E-1 2A.F ....|--- .... ....|--- .... ....
....|..|--- .... ....|--- .... ....|--- .... ....
....|..|--- .... ....|--- .... ....|A-4 2F.F ....
....|..|--- .... ....|--- .... ....|--- .... ....
....|..|--- .... ....|--- .... ....|G#4 2F.F ....
....|..|--- .... ....|D#4 2F.F ....|R-- .... ....
....|..|--- .... ....|--- .... ....|--- .... ....
....|..|B-8 JF.F ....|D#4 2F.F ....|B-4 2F.F ....
 E-3|..|E-1 2A.F ....|--- .... ....|--- .... ....
....|..|--- .... ....|--- .... ....|--- .... ....
....|..|--- .... ....|--- .... ....|A-4 2F.F ....
....|..|B-8 JF.7 ....|--- .... ....|--- .... ....
....|..|--- .... ....|--- .... ....|G#4 2F.F ....
....|..|--- .... ....|D#4 2F.F ....|R-- .... ....
....|..|--- .... ....|--- .... ....|--- .... ....
....|..|C-4 AF.F ....|E-3 2F8F ....|B-4 2F.F ....
 E-3|..|E-1 2A.F ....|--- .... ....|--- .... ....
....|..|--- .... ....|--- .... ....|--- .... ....
....|..|--- .... ....|--- .... ....|A-4 2F.F ....
....|..|--- .... ....|--- .... ....|--- .... ....
....|..|--- .... ....|--- .... ....|G#4 2F.F ....
....|..|--- .... ....|R-- .... ....|R-- .... ....
....|..|--- .... ....|--- .... ....|--- .... ....
....|..|B-8 JF.F ....|D#4 2F.F ....|B-4 2F.F ....
 E-3|..|E-1 2A.F ....|--- .... ....|--- .... ....
....|..|--- .... ....|--- .... ....|--- .... ....
....|..|--- .... ....|--- .... ....|A-4 2F.F ....
....|..|--- .... ....|--- .... ....|--- .... ....
....|..|--- .... ....|--- .... ....|G#4 2F.F ....
....|..|--- .... ....|D#4 2F.F ....|R-- .... ....
....|..|--- .... ....|--- .... ....|--- .... ....
....|..|C-4 AF.F ....|D#4 2F.F ....|B-4 2F.F ....
 E-3|..|E-1 2A.F ....|--- .... ....|--- .... ....
....|..|--- .... ....|--- .... ....|--- .... ....
....|..|--- .... ....|--- .... ....|A-4 2F.F ....
....|..|--- .... ....|--- .... ....|--- .... ....
....|..|--- .... ....|--- .... ....|G#4 2F.F ....
....|..|--- .... ....|D#4 2F.F ....|R-- .... ....
....|..|--- .... ....|--- .... ....|--- .... ....
....|..|B-8 JF.F ....|E-3 2F8F ....|B-4 2F.F ....
 E-3|..|E-1 2A.F ....|--- .... ....|--- .... ....
....|..|--- .... ....|--- .... ....|--- .... ....
....|..|--- .... ....|--- .... ....|A-4 2F.F ....
....|..|--- .... ....|--- .... ....|--- .... ....
....|..|--- .... ....|--- .... ....|G#4 2F.F ....
....|..|--- .... ....|D#4 2F.7 ....|R-- .... ....
....|..|--- .... ....|--- .... ....|--- .... ....
....|..|C-4 AF.F ....|D#4 2F.F ....|B-4 2F.F ....
 E-3|..|E-1 2A.F ....|--- .... ....|--- .... ....
....|..|--- .... ....|--- .... ....|--- .... ....
....|..|--- .... ....|--- .... ....|A-4 2F.F ....
....|..|--- .... ....|--- .... ....|--- .... ....
....|..|--- .... ....|--- .... ....|G#4 2F.F ....
....|..|--- .... ....|D#4 2F.7 ....|--- .... ....
....|..|--- .... ....|--- .... ....|--- .... ....
....|..|B-8 JF.F ....|E-3 2F8F ....|B-4 2F.F ....
 E-3|..|E-1 2A.F ....|--- .... ....|--- .... ....
....|..|--- .... ....|--- .... ....|--- .... ....
....|..|--- .... ....|--- .... ....|A-4 2F.F ....
....|..|--- .... ....|--- .... ....|--- .... ....
....|..|--- .... ....|--- .... ....|G#4 2F.F ....
....|..|--- .... ....|D#4 2F.7 ....|--- .... ....
....|..|--- .... ....|--- .... ....|--- .... ....
....|..|C-4 AF.F ....|E-3 2F87 ....|B-4 2F.F ....
 E-3|..|E-1 2A.F ....|--- .... ....|--- .... ....
....|..|--- .... ....|--- .... ....|--- .... ....
....|..|--- .... ....|--- .... ....|A-4 2F.F ....
....|..|--- .... ....|--- .... ....|--- .... ....
....|..|--- .... ....|--- .... ....|G#4 2F.F ....
....|..|--- .... ....|--- .... ....|--- .... ....
....|..|--- .... ....|--- .... ....|--- .... ....
....|..|B-8 JF.F ....|D#4 2F.7 ....|B-4 2F.F ....
 E-3|..|E-1 2A.F ....|--- .... ....|--- .... ....
....|..|--- .... ....|--- .... ....|--- .... ....
....|..|--- .... ....|--- .... ....|A-4 2F.F ....
....|..|--- .... ....|--- .... ....|--- .... ....
....|..|--- .... ....|--- .... ....|G#4 2F.F ....
....|..|--- .... ....|D#4 2F.7 ....|--- .... ....
....|..|--- .... ....|--- .... ....|--- .... ....
....|..|C-4 AF.F ....|D-3 2FAF ....|B-4 2F.F ....
 E-3|..|E-1 2A.F ....|D#4 2F.F ....|--- .... ....
....|..|--- .... ....|--- .... ....|--- .... ....
....|..|--- .... ....|--- .... ....|A-4 2F.F ....
....|..|--- .... ....|--- .... ....|--- .... ....
....|..|--- .... ....|--- .... ....|G#4 2F.F ....
....|..|--- .... ....|D#4 2F.7 ....|--- .... ....
....|..|--- .... ....|--- .... ....|--- .... ....
....|..|B-8 JF.F ....|D#4 2FBF ....|B-4 2F.F ....
 E-3|..|E-1 2A.F ....|--- .... ....|--- .... ....
....|..|--- .... ....|--- .... ....|--- .... ....
....|..|--- .... ....|--- .... ....|A-4 2F.F ....
....|..|B-8 JF.F ....|--- .... ....|--- .... ....
....|..|--- .... ....|--- .... ....|G#4 2F.F ....
....|..|--- .... ....|--- .... ....|--- .... ....
....|..|--- .... ....|--- .... ....|--- .... ....
....|..|C-4 AF.F ....|D#4 2FAF ....|B-4 2F.F ....
 E-3|..|E-1 2A.F ....|--- .... ....|--- .... ....
....|..|--- .... ....|--- .... ....|--- .... ....
....|..|--- .... ....|--- .... ....|A-4 2F.F ....
....|..|--- .... ....|--- .... ....|--- .... ....
....|..|--- .... ....|--- .... ....|G#4 2F.F ....
....|..|--- .... ....|--- .... ....|--- .... ....
....|..|--- .... ....|--- .... ....|--- .... ....
....|..|B-8 JF.F ....|E-3 2F87 ....|B-4 2F.F ....
 E-3|..|E-1 2A.F ....|D#4 2F.A ....|--- .... ....
....|..|--- .... ....|--- .... ....|--- .... ....
....|..|--- .... ....|--- .... ....|A-4 2F.F ....
....|..|--- .... ....|--- .... ....|--- .... ....
....|..|--- .... ....|--- .... ....|G#4 2F.F ....
....|..|--- .... ....|--- .... ....|--- .... ....
....|..|--- .... ....|--- .... ....|--- .... ....
....|..|C-4 AF.F ....|D#4 2FBA ....|E-4 2F.F ....
 E-3|..|E-1 2A.F ....|--- .... ....|--- .... ....
....|..|--- .... ....|--- .... ....|--- .... ....
....|..|--- .... ....|--- .... ....|A-4 2F.7 ....
....|..|B-8 JF.A ....|--- .... ....|--- .... ....
....|..|--- .... ....|--- .... ....|G#4 2F.7 ....
....|..|--- .... ....|--- .... ....|--- .... ....
....|..|--- .... ....|--- .... ....|--- .... ....
....|..|C-4 LF.F ....|D#4 2FAA ....|B-4 2F.7 ....
 E-3|..|E-1 2A.F ....|--- .... ....|--- .... ....
....|..|--- .... ....|--- .... ....|--- .... ....
....|..|--- .... ....|--- .... ....|A-4 2F.7 ....
....|..|--- .... ....|--- .... ....|--- .... ....
....|..|--- .... ....|--- .... ....|G#4 2F.7 ....
....|..|--- .... ....|--- .... ....|--- .... ....
....|..|--- .... ....|--- .... ....|--- .... ....
....|..|C-4 AF.F ....|G#3 2F6F ....|E-4 2F.F ....
 A-3|..|A-1 2A.F ....|D#4 2F.7 ....|--- .... ....
....|..|--- .... ....|--- .... ....|--- .... ....
....|..|--- .... ....|--- .... ....|A-4 2F.7 ....
....|..|--- .... ....|--- .... ....|--- .... ....
....|..|--- .... ....|--- .... ....|G#4 2F.7 ....
....|..|--- .... ....|--- .... ....|--- .... ....
....|..|--- .... ....|--- .... ....|--- .... ....
....|..|B-8 JF.F ....|D#4 2FB7 ....|E-4 2F.F ....
 A-3|..|A-1 2A.F ....|--- .... ....|--- .... ....
....|..|--- .... ....|--- .... ....|--- .... ....
....|..|--- .... ....|--- .... ....|A-4 2F.7 ....
....|..|B-8 JF.7 ....|--- .... ....|--- .... ....
....|..|--- .... ....|--- .... ....|G#4 2F.7 ....
....|..|--- .... ....|--- .... ....|--- .... ....
....|..|--- .... ....|--- .... ....|--- .... ....
....|..|C-4 CF.F ....|G#3 2F6F ....|F#4 2F.F ....
 A-3|..|A-1 2A.F ....|--- .... ....|--- .... ....
....|..|--- .... ....|--- .... ....|--- .... ....
....|..|--- .... ....|--- .... ....|A-4 2F.7 ....
....|..|--- .... ....|--- .... ....|--- .... ....
....|..|--- .... ....|--- .... ....|G#4 2F.7 ....
....|..|--- .... ....|--- .... ....|--- .... ....
....|..|--- .... ....|--- .... ....|--- .... ....
....|..|B-8 JF.F ....|D-3 2FAF ....|F#4 2F.F ....
 A-3|..|A-1 2A.F ....|D#4 2F.F ....|--- .... ....
....|..|--- .... ....|--- .... ....|--- .... ....
....|..|--- .... ....|--- .... ....|A-4 2F.7 ....
....|..|--- .... ....|--- .... ....|--- .... ....
....|..|--- .... ....|--- .... ....|G#4 2F.7 ....
....|..|--- .... ....|--- .... ....|--- .... ....
....|..|--- .... ....|--- .... ....|--- .... ....
....|..|C-4 AF.F ....|D-3 2FAF ....|F#4 2F.F ....
 A-3|..|A-1 2A.F ....|D#4 2F.F ....|--- .... ....
....|..|--- .... ....|--- .... ....|--- .... ....
....|..|--- .... ....|--- .... ....|--- .... ....
....|..|--- .... ....|--- .... ....|--- .... ....
....|..|--- .... ....|--- .... ....|--- .... ....
....|..|--- .... ....|--- .... ....|--- .... ....
....|..|--- .... ....|--- .... ....|--- .... ....
....|..|C-4 AF.F ....|G#3 2F6F ....|F#4 2F.F ....
 A-3|..|A-1 2A.F ....|--- .... ....|--- .... ....
....|..|--- .... ....|--- .... ....|--- .... ....
....|..|--- .... ....|--- .... ....|--- .... ....
....|..|--- .... ....|--- .... ....|--- .... ....
....|..|--- .... ....|--- .... ....|--- .... ....
....|..|--- .... ....|--- .... ....|--- .... ....
....|..|--- .... ....|--- .... ....|--- .... ....
....|..|C-4 CF.F ....|D-3 2FAF ....|F#4 2F.F ....
 A-3|..|A-1 2A.F ....|D#4 2F.F ....|--- .... ....
....|..|--- .... ....|--- .... ....|--- .... ....
....|..|--- .... ....|--- .... ....|--- .... ....
....|..|--- .... ....|--- .... ....|--- .... ....
....|..|--- .... ....|--- .... ....|--- .... ....
....|..|--- .... ....|--- .... ....|--- .... ....
....|..|--- .... ....|--- .... ....|--- .... ....
....|..|B-8 JF.F ....|G#3 2F6F ....|F#4 2F.F ....
 A-3|..|A-1 2A.F ....|D#4 2F.A ....|--- .... ....
....|..|--- .... ....|--- .... ....|--- .... ....
....|..|--- .... ....|--- .... ....|--- .... ....
....|..|--- .... ....|--- .... ....|--- .... ....
....|..|--- .... ....|--- .... ....|--- .... ....
....|..|--- .... ....|--- .... ....|--- .... ....
....|..|--- .... ....|--- .... ....|--- .... ....

[Pattern23]
....|..|C-4 AF.F ....|D-3 2FAF ....|E-4 2F.F ....
 A-3|..|A-1 2A.F ....|D#4 2F.F ....|--- .... ....
....|..|--- .... ....|--- .... ....|--- .... ....
....|..|--- .... ....|--- .... ....|--- .... ....
....|..|--- .... ....|--- .... ....|--- .... ....
....|..|--- .... ....|--- .... ....|--- .... ....
....|..|--- .... ....|--- .... ....|--- .... ....
....|..|--- .... ....|--- .... ....|--- .... ....
....|..|B-8 JF.F ....|D-3 2FAF ....|E-4 2F.F ....
 A-3|..|A-1 2A.F ....|D#4 2F.F ....|--- .... ....
....|..|--- .... ....|--- .... ....|--- .... ....
....|..|--- .... ....|--- .... ....|--- .... ....
....|..|--- .... ....|--- .... ....|--- .... ....
....|..|--- .... ....|--- .... ....|--- .... ....
....|..|--- .... ....|--- .... ....|--- .... ....
....|..|--- .... ....|--- .... ....|--- .... ....
....|..|C-4 CF.F ....|G#3 2F6F ....|D#4 2F.F ....
 A-3|..|A-1 2A.F ....|D#4 2F.7 ....|--- .... ....
....|..|--- .... ....|--- .... ....|--- .... ....
....|..|--- .... ....|--- .... ....|--- .... ....
....|..|--- .... ....|--- .... ....|--- .... ....
....|..|--- .... ....|--- .... ....|--- .... ....
....|..|--- .... ....|--- .... ....|--- .... ....
....|..|--- .... ....|--- .... ....|--- .... ....
....|..|B-8 JF.F ....|D-3 2FAF ....|D#4 2F.F ....
 A-3|..|A-1 2A.F ....|D#4 2F.F ....|--- .... ....
....|..|--- .... ....|--- .... ....|--- .... ....
....|..|--- .... ....|--- .... ....|--- .... ....
....|..|--- .... ....|D-3 2FAF ....|--- .... ....
....|..|--- .... ....|D#4 2F.F ....|--- .... ....
....|..|--- .... ....|--- .... ....|--- .... ....
....|..|--- .... ....|--- .... ....|--- .... ....
....|..|C-4 AF.F ....|D-3 2FAF ....|D#4 2F.F ....
 A-3|..|A-1 2A.F ....|D#4 2F.F ....|--- .... ....
....|..|--- .... ....|--- .... ....|--- .... ....
....|..|--- .... ....|--- .... ....|--- .... ....
....|..|--- .... ....|--- .... ....|--- .... ....
....|..|--- .... ....|--- .... ....|--- .... ....
....|..|--- .... ....|--- .... ....|--- .... ....
....|..|--- .... ....|--- .... ....|--- .... ....
....|..|C-4 AF.F ....|G#3 2F6F ....|D#4 2F.F ....
 A-3|..|A-1 2A.F ....|--- .... ....|--- .... ....
....|..|--- .... ....|--- .... ....|--- .... ....
....|..|--- .... ....|--- .... ....|--- .... ....
....|..|--- .... ....|--- .... ....|--- .... ....
....|..|--- .... ....|--- .... ....|--- .... ....
....|..|--- .... ....|--- .... ....|--- .... ....
....|..|--- .... ....|--- .... ....|--- .... ....
....|..|C-4 CF.F ....|D-3 2FA7 ....|D#4 2F.F ....
 A-3|..|A-1 2A.F ....|D#4 2F.7 ....|--- .... ....
....|..|--- .... ....|--- .... ....|--- .... ....
....|..|--- .... ....|--- .... ....|--- .... ....
....|..|--- .... ....|D-3 2FAA ....|--- .... ....
....|..|--- .... ....|D#4 2F.A ....|--- .... ....
....|..|--- .... ....|--- .... ....|--- .... ....
....|..|--- .... ....|--- .... ....|--- .... ....
....|..|B-8 JF.F ....|D-3 2FA7 ....|D#4 2F.F ....
 A-3|..|A-1 2A.F ....|D#4 2F.7 ....|--- .... ....
....|..|--- .... ....|--- .... ....|--- .... ....
....|..|--- .... ....|--- .... ....|--- .... ....
....|..|--- .... ....|--- .... ....|--- .... ....
....|..|--- .... ....|--- .... ....|--- .... ....
....|..|--- .... ....|--- .... ....|--- .... ....
....|..|--- .... ....|--- .... ....|--- .... ....
....|..|C-4 AF.F ....|A#3 2F2F ....|D#4 2F.F ....
 G#3|..|G#1 2A.F ....|R-- .... ....|--- .... ....
....|..|--- .... ....|--- .... ....|--- .... ....
....|..|--- .... ....|--- .... ....|--- .... ....
....|..|--- .... ....|--- .... ....|--- .... ....
....|..|--- .... ....|--- .... ....|--- .... ....
....|..|--- .... ....|--- .... ....|--- .... ....
....|..|--- .... ....|--- .... ....|--- .... ....
....|..|B-8 JF.F ....|A-3 2F5F ....|D#4 2F.F ....
 G#3|..|G#1 2A.F ....|D#4 2F.7 ....|--- .... ....
....|..|--- .... ....|--- .... ....|--- .... ....
....|..|--- .... ....|--- .... ....|--- .... ....
....|..|--- .... ....|D-3 2FA7 ....|--- .... ....
....|..|--- .... ....|D#4 2F.7 ....|--- .... ....
....|..|--- .... ....|--- .... ....|--- .... ....
....|..|--- .... ....|--- .... ....|--- .... ....
....|..|C-4 CF.F ....|F#3 2FAF ....|D#4 2F.F ....
 G#3|..|G#1 2A.F ....|D#4 2F.7 ....|--- .... ....
....|..|--- .... ....|--- .... ....|--- .... ....
....|..|--- .... ....|--- .... ....|--- .... ....
....|..|--- .... ....|--- .... ....|--- .... ....
....|..|--- .... ....|--- .... ....|--- .... ....
....|..|--- .... ....|--- .... ....|--- .... ....
....|..|--- .... ....|--- .... ....|--- .... ....
....|..|B-8 JF.F ....|A-3 2F5F ....|D#4 2F.F ....
 G#3|..|G#1 2A.F ....|R-- .... ....|--- .... ....
....|..|--- .... ....|--- .... ....|--- .... ....
....|..|--- .... ....|--- .... ....|--- .... ....
....|..|--- .... ....|--- .... ....|--- .... ....
....|..|--- .... ....|--- .... ....|--- .... ....
....|..|--- .... ....|--- .... ....|--- .... ....
....|..|--- .... ....|--- .... ....|--- .... ....
....|..|C-4 AF.F ....|A-3 2F5F ....|D#4 2F.F ....
 G#3|..|G#1 2A.F ....|R-- .... ....|--- .... ....
....|..|--- .... ....|--- .... ....|--- .... ....
....|..|--- .... ....|--- .... ....|--- .... ....
....|..|--- .... ....|--- .... ....|--- .... ....
....|..|--- .... ....|--- .... ....|--- .... ....
....|..|--- .... ....|--- .... ....|--- .... ....
....|..|--- .... ....|--- .... ....|--- .... ....
....|..|C-4 AF.F ....|F#3 2FAF ....|D#4 2F.F ....
 G#3|..|G#1 2A.F ....|--- .... ....|--- .... ....
....|..|--- .... ....|--- .... ....|--- .... ....
....|..|--- .... ....|--- .... ....|--- .... ....
....|..|--- .... ....|--- .... ....|--- .... ....
....|..|--- .... ....|--- .... ....|--- .... ....
....|..|--- .... ....|--- .... ....|--- .... ....
....|..|--- .... ....|--- .... ....|--- .... ....
....|..|C-4 CF.F ....|A-3 2F5F ....|D#4 2F.F ....
 G#3|..|G#1 2A.F ....|R-- .... ....|--- .... ....
....|..|--- .... ....|--- .... ....|--- .... ....
....|..|--- .... ....|--- .... ....|--- .... ....
....|..|--- .... ....|--- .... ....|--- .... ....
....|..|--- .... ....|--- .... ....|--- .... ....
....|..|--- .... ....|--- .... ....|--- .... ....
....|..|--- .... ....|--- .... ....|--- .... ....
....|..|B-8 JF.F ....|F#3 2FAF ....|D#4 2F.F ....
 G#3|..|G#1 2A.F ....|R-- .... ....|--- .... ....
....|..|--- .... ....|--- .... ....|--- .... ....
....|..|--- .... ....|--- .... ....|--- .... ....
....|..|--- .... ....|--- .... ....|--- .... ....
....|..|--- .... ....|--- .... ....|--- .... ....
....|..|--- .... ....|--- .... ....|--- .... ....
....|..|--- .... ....|--- .... ....|--- .... ....
....|..|C-4 AF.F ....|A-3 2F5F ....|D#4 2F.F ....
 G#3|..|G#1 2A.F ....|R-- .... ....|--- .... ....
....|..|--- .... ....|--- .... ....|--- .... ....
....|..|--- .... ....|--- .... ....|--- .... ....
....|..|--- .... ....|--- .... ....|--- .... ....
....|..|--- .... ....|--- .... ....|--- .... ....
....|..|--- .... ....|--- .... ....|--- .... ....
....|..|--- .... ....|--- .... ....|--- .... ....
....|..|B-8 JF.F ....|F#3 2FAF ....|D#4 2F.F ....
 G#3|..|G#1 2A.F ....|R-- .... ....|--- .... ....
....|..|--- .... ....|--- .... ....|--- .... ....
....|..|--- .... ....|--- .... ....|--- .... ....
....|..|--- .... ....|--- .... ....|--- .... ....
....|..|--- .... ....|--- .... ....|--- .... ....
....|..|--- .... ....|--- .... ....|--- .... ....
....|..|--- .... ....|--- .... ....|--- .... ....
....|..|C-4 CF.F ....|A-3 2F57 ....|D#4 2F.F ....
 G#3|..|G#1 2A.F ....|R-- .... ....|--- .... ....
....|..|--- .... ....|--- .... ....|--- .... ....
....|..|--- .... ....|--- .... ....|--- .... ....
....|..|--- .... ....|--- .... ....|--- .... ....
....|..|--- .... ....|--- .... ....|--- .... ....
....|..|--- .... ....|--- .... ....|--- .... ....
....|..|--- .... ....|--- .... ....|--- .... ....
....|..|B-8 JF.F ....|F#3 2FA7 ....|E-4 2F.F ....
 G#3|..|G#1 2A.F ....|R-- .... ....|--- .... ....
....|..|--- .... ....|--- .... ....|--- .... ....
....|..|--- .... ....|--- .... ....|--- .... ....
....|..|--- .... ....|--- .... ....|--- .... ....
....|..|--- .... ....|--- .... ....|--- .... ....
....|..|--- .... ....|--- .... ....|--- .... ....
....|..|--- .... ....|--- .... ....|--- .... ....
....|..|C-4 AF.F ....|A-3 2F57 ....|D#4 2F.F ....
 G#3|..|G#1 2A.F ....|R-- .... ....|--- .... ....
....|..|--- .... ....|--- .... ....|--- .... ....
....|..|--- .... ....|--- .... ....|--- .... ....
....|..|--- .... ....|--- .... ....|--- .... ....
....|..|--- .... ....|--- .... ....|--- .... ....
....|..|--- .... ....|--- .... ....|--- .... ....
....|..|--- .... ....|--- .... ....|--- .... ....
....|..|C-4 AF.F ....|A-3 2F5F ....|C#4 2F.F ....
 G#3|..|G#1 2A.F ....|R-- .... ....|--- .... ....
....|..|--- .... ....|--- .... ....|--- .... ....
....|..|--- .... ....|--- .... ....|--- .... ....
....|..|--- .... ....|--- .... ....|--- .... ....
....|..|--- .... ....|--- .... ....|--- .... ....
....|..|--- .... ....|--- .... ....|--- .... ....
....|..|--- .... ....|--- .... ....|--- .... ....
....|..|C-4 CF.F ....|A-3 2F5F ....|B-3 2F.F ....
 G#3|..|G#1 2A.F ....|R-- .... ....|--- .... ....
....|..|--- .... ....|--- .... ....|--- .... ....
....|..|--- .... ....|--- .... ....|--- .... ....
....|..|--- .... ....|--- .... ....|--- .... ....
....|..|--- .... ....|--- .... ....|--- .... ....
....|..|--- .... ....|--- .... ....|--- .... ....
....|..|--- .... ....|--- .... ....|--- .... ....
....|..|B-8 JF.F ....|A-3 2F5F ....|G#3 2F.F ....
 G#3|..|G#1 2A.F ....|R-- .... ....|--- .... ....
....|..|--- .... ....|--- .... ....|--- .... ....
....|..|--- .... ....|--- .... ....|--- .... ....
....|..|--- .... ....|--- .... ....|--- .... ....
....|..|--- .... ....|--- .... ....|--- .... ....
....|..|--- .... ....|--- .... ....|--- .... ....
....|..|--- .... ....|--- .... ....|--- .... ....
....|..|C-4 AF.F ....|E-3 2FAF ....|B-3 2F.F ....
 F#3|..|F#1 2A.F ....|R-- .... ....|--- .... ....
....|..|--- .... ....|--- .... ....|--- .... ....
....|..|--- .... ....|--- .... ....|--- .... ....
....|..|--- .... ....|--- .... ....|--- .... ....
....|..|--- .... ....|--- .... ....|--- .... ....
....|..|--- .... ....|--- .... ....|--- .... ....
....|..|--- .... ....|--- .... ....|--- .... ....
....|..|B-8 JF.F ....|A-3 2F5A ....|B-3 2F.F ....
 F#3|..|F#1 2A.F ....|R-- .... ....|--- .... ....
....|..|--- .... ....|--- .... ....|--- .... ....
....|..|--- .... ....|--- .... ....|--- .... ....
....|..|--- .... ....|--- .... ....|--- .... ....
....|..|--- .... ....|--- .... ....|--- .... ....
....|..|--- .... ....|--- .... ....|--- .... ....
....|..|--- .... ....|--- .... ....|--- .... ....
....|..|C-4 CF.F ....|E-3 2FAF ....|C#4 2F.F ....
 F#3|..|F#1 2A.F ....|R-- .... ....|--- .... ....
....|..|--- .... ....|--- .... ....|--- .... ....
....|..|--- .... ....|--- .... ....|--- .... ....
....|..|--- .... ....|--- .... ....|--- .... ....
....|..|--- .... ....|--- .... ....|--- .... ....
....|..|--- .... ....|--- .... ....|--- .... ....
....|..|--- .... ....|--- .... ....|--- .... ....
....|..|B-8 JF.F ....|A-3 2F5F ....|C#4 2F.F ....
 F#3|..|F#1 2A.F ....|R-- .... ....|--- .... ....
....|..|--- .... ....|--- .... ....|--- .... ....
....|..|--- .... ....|--- .... ....|--- .... ....
....|..|--- .... ....|--- .... ....|--- .... ....
....|..|--- .... ....|--- .... ....|--- .... ....
....|..|--- .... ....|--- .... ....|--- .... ....
....|..|--- .... ....|--- .... ....|--- .... ....
....|..|C-4 AF.F ....|A-3 2F5F ....|C#4 2F.F ....
 F#3|..|F#1 2A.F ....|R-- .... ....|--- .... ....
....|..|--- .... ....|--- .... ....|--- .... ....
....|..|--- .... ....|--- .... ....|--- .... ....
....|..|--- .... ....|--- .... ....|--- .... ....
....|..|--- .... ....|--- .... ....|--- .... ....
....|..|--- .... ....|--- .... ....|--- .... ....
....|..|--- .... ....|--- .... ....|--- .... ....
....|..|C-4 AF.F ....|E-3 2FAF ....|C#4 2F.F ....
 F#3|..|F#1 2A.F ....|R-- .... ....|--- .... ....
....|..|--- .... ....|--- .... ....|--- .... ....
....|..|--- .... ....|--- .... ....|--- .... ....
....|..|--- .... ....|--- .... ....|--- .... ....
....|..|--- .... ....|--- .... ....|--- .... ....
....|..|--- .... ....|--- .... ....|--- .... ....
....|..|--- .... ....|--- .... ....|--- .... ....
....|..|C-4 CF.F ....|E-3 2FA7 ....|C#4 2F.F ....
 F#3|..|F#1 2A.F ....|R-- .... ....|--- .... ....
....|..|--- .... ....|--- .... ....|--- .... ....
....|..|--- .... ....|--- .... ....|--- .... ....
....|..|--- .... ....|--- .... ....|--- .... ....
....|..|--- .... ....|--- .... ....|--- .... ....
....|..|--- .... ....|--- .... ....|--- .... ....
....|..|--- .... ....|--- .... ....|--- .... ....
....|..|B-8 JF.F ....|E-3 2FAF ....|C#4 2F.F ....
 F#3|..|F#1 2A.F ....|R-- .... ....|--- .... ....
....|..|--- .... ....|--- .... ....|--- .... ....
....|..|--- .... ....|--- .... ....|--- .... ....
....|..|--- .... ....|--- .... ....|--- .... ....
....|..|--- .... ....|--- .... ....|--- .... ....
....|..|--- .... ....|--- .... ....|--- .... ....
....|..|--- .... ....|--- .... ....|--- .... ....

[Pattern24]
....|..|C-4 AF.F ....|F#3 2FAF ....|C#4 2F.F ....
 A-3|..|A-1 2A.F ....|--- .... ....|--- .... ....
....|..|--- .... ....|--- .... ....|--- .... ....
....|..|--- .... ....|--- .... ....|--- .... ....
....|..|--- .... ....|--- .... ....|--- .... ....
....|..|--- .... ....|--- .... ....|--- .... ....
....|..|--- .... ....|--- .... ....|--- .... ....
....|..|--- .... ....|--- .... ....|--- .... ....
....|..|B-8 JF.F ....|A-3 2F57 ....|C#4 2F.F ....
 A-3|..|A-1 2A.F ....|R-- .... ....|--- .... ....
....|..|--- .... ....|--- .... ....|--- .... ....
....|..|--- .... ....|--- .... ....|--- .... ....
....|..|--- .... ....|--- .... ....|--- .... ....
....|..|--- .... ....|--- .... ....|--- .... ....
....|..|--- .... ....|--- .... ....|--- .... ....
....|..|--- .... ....|--- .... ....|--- .... ....
....|..|C-4 CF.F ....|F#3 2FAF ....|C#4 2F.F ....
 A-3|..|A-1 2A.F ....|R-- .... ....|--- .... ....
....|..|--- .... ....|--- .... ....|--- .... ....
....|..|--- .... ....|--- .... ....|--- .... ....
....|..|--- .... ....|--- .... ....|--- .... ....
....|..|--- .... ....|--- .... ....|--- .... ....
....|..|--- .... ....|--- .... ....|--- .... ....
....|..|--- .... ....|--- .... ....|--- .... ....
....|..|B-8 JF.F ....|A-3 2F5F ....|C#4 2F.F ....
 A-3|..|A-1 2A.F ....|R-- .... ....|--- .... ....
....|..|--- .... ....|--- .... ....|--- .... ....
....|..|--- .... ....|--- .... ....|--- .... ....
....|..|--- .... ....|--- .... ....|--- .... ....
....|..|--- .... ....|--- .... ....|--- .... ....
....|..|--- .... ....|--- .... ....|--- .... ....
....|..|--- .... ....|--- .... ....|--- .... ....
....|..|C-4 AF.F ....|A-3 2F5F ....|C#4 2F.F ....
 A-3|..|A-1 2A.F ....|R-- .... ....|--- .... ....
....|..|--- .... ....|--- .... ....|--- .... ....
....|..|--- .... ....|--- .... ....|--- .... ....
....|..|--- .... ....|--- .... ....|--- .... ....
....|..|--- .... ....|--- .... ....|--- .... ....
....|..|--- .... ....|--- .... ....|--- .... ....
....|..|--- .... ....|--- .... ....|--- .... ....
....|..|C-4 AF.F ....|F#3 2FAF ....|C#4 2F.F ....
 A-3|..|A-1 2A.F ....|--- .... ....|--- .... ....
....|..|--- .... ....|--- .... ....|--- .... ....
....|..|--- .... ....|--- .... ....|--- .... ....
....|..|--- .... ....|--- .... ....|--- .... ....
....|..|--- .... ....|--- .... ....|--- .... ....
....|..|--- .... ....|--- .... ....|--- .... ....
....|..|--- .... ....|--- .... ....|--- .... ....
....|..|C-4 CF.F ....|F#3 2FA7 ....|C#4 2F.F ....
 A-3|..|A-1 2A.F ....|R-- .... ....|--- .... ....
....|..|--- .... ....|--- .... ....|--- .... ....
....|..|--- .... ....|--- .... ....|--- .... ....
....|..|--- .... ....|--- .... ....|--- .... ....
....|..|--- .... ....|--- .... ....|--- .... ....
....|..|--- .... ....|--- .... ....|--- .... ....
....|..|--- .... ....|--- .... ....|--- .... ....
....|..|B-8 JF.F ....|F#3 2FAF ....|C#4 2F.F ....
 A-3|..|A-1 2A.F ....|R-- .... ....|--- .... ....
....|..|--- .... ....|--- .... ....|--- .... ....
....|..|--- .... ....|--- .... ....|--- .... ....
....|..|--- .... ....|--- .... ....|--- .... ....
....|..|--- .... ....|--- .... ....|--- .... ....
....|..|--- .... ....|--- .... ....|--- .... ....
....|..|--- .... ....|--- .... ....|--- .... ....
....|..|C-4 AF.F ....|D#3 2F.F ....|C-5 2F.F ....
 G#3|..|G#1 2A.F ....|--- .... ....|--- .... ....
....|..|--- .... ....|--- .... ....|--- .... ....
....|..|--- .... ....|--- .... ....|C#5 2F.F ....
....|..|--- .... ....|--- .... ....|--- .... ....
....|..|--- .... ....|--- .... ....|C-5 2F.F ....
....|..|--- .... ....|--- .... ....|--- .... ....
....|..|--- .... ....|--- .... ....|--- .... ....
....|..|B-8 JF.F ....|D#3 2F.F ....|C#5 2F.F ....
 G#3|..|G#1 2A.F ....|R-- .... ....|--- .... ....
....|..|--- .... ....|--- .... ....|--- .... ....
....|..|--- .... ....|--- .... ....|C-5 2F.F ....
....|..|--- .... ....|--- .... ....|--- .... ....
....|..|--- .... ....|--- .... ....|C#5 2F.F ....
....|..|--- .... ....|--- .... ....|--- .... ....
....|..|--- .... ....|--- .... ....|--- .... ....
....|..|C-4 CF.F ....|D#3 2F.F ....|C-5 2F.F ....
 G#3|..|G#1 2A.F ....|R-- .... ....|--- .... ....
....|..|--- .... ....|--- .... ....|--- .... ....
....|..|--- .... ....|--- .... ....|C#5 2F.F ....
....|..|--- .... ....|--- .... ....|--- .... ....
....|..|--- .... ....|--- .... ....|C-5 2F.F ....
....|..|--- .... ....|--- .... ....|--- .... ....
....|..|--- .... ....|--- .... ....|--- .... ....
....|..|B-8 JF.F ....|D#3 2F.F ....|C#5 2F.F ....
 G#3|..|G#1 2A.F ....|--- .... ....|--- .... ....
....|..|--- .... ....|--- .... ....|--- .... ....
....|..|--- .... ....|--- .... ....|C-5 2F.F ....
....|..|--- .... ....|--- .... ....|--- .... ....
....|..|--- .... ....|--- .... ....|C#5 2F.F ....
....|..|--- .... ....|--- .... ....|--- .... ....
....|..|--- .... ....|--- .... ....|--- .... ....
....|..|C-4 AF.F ....|D#3 2F.F ....|C-5 2F.F ....
 G#3|..|G#1 2A.F ....|--- .... ....|--- .... ....
....|..|--- .... ....|--- .... ....|--- .... ....
....|..|--- .... ....|--- .... ....|C#5 2F.F ....
....|..|--- .... ....|--- .... ....|--- .... ....
....|..|--- .... ....|--- .... ....|C-5 2F.F ....
....|..|--- .... ....|--- .... ....|--- .... ....
....|..|--- .... ....|--- .... ....|--- .... ....
....|..|C-4 AF.F ....|D#3 2F.F ....|C#5 2F.F ....
 G#3|..|G#1 2A.F ....|--- .... ....|--- .... ....
....|..|--- .... ....|--- .... ....|--- .... ....
....|..|--- .... ....|--- .... ....|C-5 2F.F ....
....|..|--- .... ....|--- .... ....|--- .... ....
....|..|--- .... ....|--- .... ....|C#5 2F.F ....
....|..|--- .... ....|--- .... ....|--- .... ....
....|..|--- .... ....|--- .... ....|--- .... ....
....|..|C-4 CF.F ....|D#3 2F.F ....|C-5 2F.F ....
 G#3|..|G#1 2A.F ....|--- .... ....|--- .... ....
....|..|--- .... ....|--- .... ....|--- .... ....
....|..|--- .... ....|--- .... ....|C#5 2F.F ....
....|..|--- .... ....|--- .... ....|--- .... ....
....|..|--- .... ....|--- .... ....|C-5 2F.F ....
....|..|--- .... ....|--- .... ....|--- .... ....
....|..|--- .... ....|--- .... ....|--- .... ....
....|..|B-8 JF.F ....|D#3 2F.F ....|C#5 2F.F ....
 G#3|..|G#1 2A.F ....|--- .... ....|--- .... ....
....|..|--- .... ....|--- .... ....|--- .... ....
....|..|--- .... ....|--- .... ....|C-5 2F.F ....
....|..|--- .... ....|--- .... ....|--- .... ....
 G#4|..|G#2 2A.F ....|--- .... ....|C#5 2F.F ....
....|..|--- .... ....|--- .... ....|--- .... ....
....|..|--- .... ....|--- .... ....|--- .... ....
 G#4|..|G#2 2A.F ....|G#3 2F3F ....|E-5 2F.F ....
....|..|G#1 2F.7 ....|--- .... ....|--- .... ....
....|..|--- .... ....|--- .... ....|--- .... ....
....|..|--- .... ....|--- .... ....|F#5 2F.F ....
....|..|--- .... ....|--- .... ....|--- .... ....
....|..|--- .... ....|--- .... ....|E-5 2F.F ....
....|..|--- .... ....|--- .... ....|--- .... ....
....|..|--- .... ....|--- .... ....|--- .... ....
....|..|B-8 JF.7 ....|D#3 2F.7 ....|D#5 2F.F ....
....|..|G#1 2F.7 ....|--- .... ....|--- .... ....
....|..|--- .... ....|--- .... ....|--- .... ....
....|..|--- .... ....|--- .... ....|E-5 2F.F ....
....|..|--- .... ....|--- .... ....|--- .... ....
....|..|--- .... ....|--- .... ....|D#5 2F.F ....
....|..|--- .... ....|--- .... ....|--- .... ....
....|..|--- .... ....|--- .... ....|--- .... ....
....|..|C-4 CF.F ....|D-3 2F2F ....|E-5 2F.F ....
....|..|G#1 2F.7 ....|R-- .... ....|--- .... ....
....|..|--- .... ....|--- .... ....|--- .... ....
....|..|--- .... ....|--- .... ....|B-4 2F.F ....
....|..|R-- .... ....|--- .... ....|--- .... ....
....|..|G#2 2F.A ....|--- .... ....|C#5 2F.F ....
....|..|--- .... ....|--- .... ....|--- .... ....
....|..|--- .... ....|--- .... ....|--- .... ....
....|..|C-4 CF.F ....|D#3 2F.7 ....|B-4 2F.F ....
....|..|G#1 2F.7 ....|--- .... ....|--- .... ....
....|..|--- .... ....|--- .... ....|--- .... ....
....|..|--- .... ....|--- .... ....|A-4 2F.F ....
....|..|C-4 CF.F ....|--- .... ....|--- .... ....
....|..|--- .... ....|--- .... ....|G#4 2F.F ....
....|..|--- .... ....|--- .... ....|--- .... ....
....|..|--- .... ....|--- .... ....|--- .... ....
....|..|C-4 9F.F ....|D#3 2F.7 ....|F#4 2F.F ....
....|..|G#1 2F.7 ....|--- .... ....|--- .... ....
....|..|--- .... ....|--- .... ....|--- .... ....
....|..|--- .... ....|--- .... ....|C#5 2F.7 ....
....|..|R-- .... ....|--- .... ....|--- .... ....
....|..|--- .... ....|--- .... ....|C-5 2F.7 ....
....|..|--- .... ....|--- .... ....|--- .... ....
....|..|--- .... ....|--- .... ....|--- .... ....
....|..|C-4 CF.F ....|D#3 2F.7 ....|C#5 2F.7 ....
....|..|G#1 2F.7 ....|R-- .... ....|--- .... ....
....|..|--- .... ....|--- .... ....|--- .... ....
....|..|--- .... ....|--- .... ....|C-5 2F.7 ....
....|..|C-4 CF.F ....|--- .... ....|--- .... ....
....|..|G#2 2F.7 ....|--- .... ....|C#5 2F.7 ....
....|..|--- .... ....|--- .... ....|--- .... ....
....|..|--- .... ....|--- .... ....|--- .... ....
 G#4|..|G#2 2A.F ....|G#3 2F37 ....|E-5 2F.7 ....
....|..|--- .... ....|--- .... ....|--- .... ....
....|..|--- .... ....|--- .... ....|--- .... ....
....|..|--- .... ....|--- .... ....|F#5 2F.7 ....
....|..|C-4 CF.F ....|--- .... ....|D#3 2FAF ....
....|..|--- .... ....|--- .... ....|E-5 2F.7 ....
....|..|--- .... ....|--- .... ....|--- .... ....
....|..|--- .... ....|--- .... ....|--- .... ....
....|..|C-4 CF.F ....|--- .... ....|D#3 2FAF ....
....|..|R-- .... ....|--- .... ....|--- .... ....
....|..|--- .... ....|--- .... ....|--- .... ....
....|..|--- .... ....|--- .... ....|E-5 2F.7 ....
....|..|C-4 CF.F ....|--- .... ....|--- .... ....
....|..|--- .... ....|--- .... ....|D#5 2F.7 ....
....|..|--- .... ....|--- .... ....|--- .... ....
....|..|--- .... ....|--- .... ....|--- .... ....
....|..|C-4 AF.F ....|E-3 2F1F ....|E-4 2F1F ....
 A-3|..|A-1 2A.F ....|R-- .... ....|--- .... ....
....|..|--- .... ....|--- .... ....|--- .... ....
....|..|--- .... ....|--- .... ....|B-4 2F.7 ....
....|..|R-- .... ....|--- .... ....|--- .... ....
....|..|--- .... ....|--- .... ....|C#5 2F.7 ....
....|..|--- .... ....|--- .... ....|--- .... ....
....|..|--- .... ....|--- .... ....|--- .... ....
....|..|C-3 RF.F ....|--- .... ....|B-4 2F.7 ....
 A-3|..|A-1 2A.F ....|--- .... ....|--- .... ....
....|..|--- .... ....|--- .... ....|--- .... ....
....|..|--- .... ....|--- .... ....|A-4 2F.7 ....
....|..|C-4 CF.7 ....|--- .... ....|D#3 2FAA ....
....|..|--- .... ....|--- .... ....|G#4 2F.7 ....
....|..|--- .... ....|--- .... ....|--- .... ....
....|..|--- .... ....|--- .... ....|--- .... ....
....|..|C-4 CF.F ....|E-3 2F1F ....|F#4 2F.7 ....
 A-3|..|A-1 2A.F ....|--- .... ....|--- .... ....
....|..|--- .... ....|--- .... ....|--- .... ....
....|..|--- .... ....|--- .... ....|--- .... ....
....|..|R-- .... ....|--- .... ....|--- .... ....
....|..|--- .... ....|--- .... ....|--- .... ....
....|..|--- .... ....|--- .... ....|--- .... ....
....|..|--- .... ....|--- .... ....|--- .... ....
....|..|C-3 RF.F ....|E-3 2F1F ....|E-4 2F1F ....
 A-3|..|A-1 2A.F ....|--- .... ....|--- .... ....
....|..|--- .... ....|--- .... ....|--- .... ....
....|..|--- .... ....|--- .... ....|--- .... ....
....|..|C-4 CF.F ....|E-3 2F1F ....|--- .... ....
....|..|--- .... ....|--- .... ....|--- .... ....
....|..|--- .... ....|--- .... ....|--- .... ....
....|..|--- .... ....|--- .... ....|--- .... ....
....|..|C-4 AF.F ....|E-3 2F1F ....|--- .... ....
 A-3|..|A-1 2A.F ....|--- .... ....|--- .... ....
....|..|--- .... ....|--- .... ....|--- .... ....
....|..|--- .... ....|--- .... ....|--- .... ....
....|..|C-4 CF.7 ....|E-3 2F1F ....|D#3 2FA7 ....
....|..|--- .... ....|--- .... ....|--- .... ....
....|..|--- .... ....|--- .... ....|--- .... ....
....|..|--- .... ....|--- .... ....|--- .... ....
....|..|C-4 AF.F ....|E-3 2F1F ....|D#3 2FA7 ....
 A-3|..|A-1 2A.F ....|--- .... ....|--- .... ....
....|..|--- .... ....|--- .... ....|--- .... ....
....|..|--- .... ....|--- .... ....|--- .... ....
....|..|C-4 CF.7 ....|--- .... ....|--- .... ....
....|..|--- .... ....|--- .... ....|--- .... ....
....|..|--- .... ....|--- .... ....|--- .... ....
....|..|--- .... ....|--- .... ....|--- .... ....
....|..|C-4 CF.F ....|E-3 2F1F ....|E-4 2F17 ....
 A-3|..|A-1 2A.F ....|--- .... ....|--- .... ....
....|..|--- .... ....|--- .... ....|--- .... ....
....|..|--- .... ....|--- .... ....|--- .... ....
....|..|C-4 CF.A ....|E-3 2F1A ....|--- .... ....
....|..|--- .... ....|--- .... ....|--- .... ....
....|..|--- .... ....|--- .... ....|--- .... ....
....|..|--- .... ....|--- .... ....|--- .... ....
....|..|C-3 RF.F ....|E-3 2F1F ....|--- .... ....
 A-3|..|A-1 2A.F ....|--- .... ....|--- .... ....
....|..|--- .... ....|--- .... ....|--- .... ....
....|..|--- .... ....|--- .... ....|--- .... ....
....|..|--- .... ....|E-3 2F1F ....|--- .... ....
....|..|--- .... ....|--- .... ....|--- .... ....
....|..|--- .... ....|--- .... ....|--- .... ....
....|..|--- .... ....|--- .... ....|--- .... ....

[Pattern25]
....|..|C-4 AF.F ....|F#3 2F2F ....|D#4 2FEF ....
 B-3|..|B-1 2A.F ....|--- .... ....|--- .... ....
....|..|--- .... ....|--- .... ....|--- .... ....
....|..|--- .... ....|--- .... ....|--- .... ....
....|..|--- .... ....|--- .... ....|--- .... ....
....|..|--- .... ....|--- .... ....|--- .... ....
....|..|--- .... ....|--- .... ....|--- .... ....
....|..|--- .... ....|--- .... ....|--- .... ....
....|..|C-4 AF.F ....|E-3 2F17 ....|E-4 2F17 ....
 B-3|..|B-1 2A.F ....|--- .... ....|--- .... ....
....|..|--- .... ....|--- .... ....|--- .... ....
....|..|--- .... ....|--- .... ....|--- .... ....
....|..|C-4 CF.7 ....|E-3 2F17 ....|--- .... ....
....|..|--- .... ....|--- .... ....|--- .... ....
....|..|--- .... ....|--- .... ....|--- .... ....
....|..|--- .... ....|--- .... ....|--- .... ....
....|..|C-4 CF.F ....|F#3 2F2F ....|--- .... ....
 B-3|..|B-1 2A.F ....|--- .... ....|--- .... ....
....|..|--- .... ....|--- .... ....|--- .... ....
....|..|--- .... ....|--- .... ....|--- .... ....
....|..|--- .... ....|E-3 2F17 ....|--- .... ....
....|..|--- .... ....|--- .... ....|--- .... ....
....|..|--- .... ....|--- .... ....|--- .... ....
....|..|--- .... ....|--- .... ....|--- .... ....
....|..|C-3 RF.F ....|F#3 2F2F ....|D#4 2FEF ....
 B-3|..|B-1 2A.F ....|--- .... ....|--- .... ....
....|..|--- .... ....|--- .... ....|--- .... ....
....|..|--- .... ....|--- .... ....|--- .... ....
....|..|C-4 CF.F ....|F#3 2F2F ....|--- .... ....
....|..|--- .... ....|--- .... ....|--- .... ....
....|..|--- .... ....|--- .... ....|--- .... ....
....|..|--- .... ....|--- .... ....|--- .... ....
....|..|C-4 AF.F ....|F#3 2F2F ....|--- .... ....
 B-3|..|B-1 2A.F ....|--- .... ....|--- .... ....
....|..|--- .... ....|--- .... ....|--- .... ....
....|..|--- .... ....|--- .... ....|--- .... ....
....|..|--- .... ....|F#3 2F2F ....|--- .... ....
....|..|--- .... ....|--- .... ....|--- .... ....
....|..|--- .... ....|--- .... ....|--- .... ....
....|..|--- .... ....|--- .... ....|--- .... ....
....|..|C-4 AF.F ....|F#3 2F2F ....|--- .... ....
 B-3|..|B-1 2A.F ....|--- .... ....|--- .... ....
....|..|--- .... ....|--- .... ....|--- .... ....
....|..|--- .... ....|--- .... ....|--- .... ....
....|..|--- .... ....|E-3 2F17 ....|--- .... ....
....|..|--- .... ....|--- .... ....|--- .... ....
....|..|--- .... ....|--- .... ....|--- .... ....
....|..|--- .... ....|--- .... ....|--- .... ....
....|..|C-4 CF.F ....|F#3 2F2F ....|D#4 2FE7 ....
 B-3|..|B-1 2A.F ....|--- .... ....|--- .... ....
....|..|--- .... ....|--- .... ....|--- .... ....
....|..|--- .... ....|--- .... ....|--- .... ....
....|..|C-4 CF.A ....|F#3 2F2A ....|--- .... ....
....|..|--- .... ....|--- .... ....|--- .... ....
....|..|--- .... ....|--- .... ....|--- .... ....
....|..|--- .... ....|--- .... ....|--- .... ....
....|..|C-3 RF.F ....|F#3 2F2F ....|--- .... ....
 B-3|..|B-1 2A.F ....|--- .... ....|--- .... ....
....|..|--- .... ....|--- .... ....|--- .... ....
....|..|--- .... ....|--- .... ....|--- .... ....
....|..|--- .... ....|F#3 2F2F ....|--- .... ....
....|..|--- .... ....|--- .... ....|--- .... ....
....|..|--- .... ....|--- .... ....|--- .... ....
....|..|--- .... ....|--- .... ....|--- .... ....
....|..|C-4 AF.F ....|G#3 2F3F ....|D#4 2F4F ....
 G#3|..|G#1 2A.F ....|--- .... ....|--- .... ....
....|..|--- .... ....|--- .... ....|--- .... ....
....|..|--- .... ....|--- .... ....|--- .... ....
....|..|--- .... ....|--- .... ....|--- .... ....
....|..|--- .... ....|--- .... ....|--- .... ....
....|..|--- .... ....|--- .... ....|--- .... ....
....|..|--- .... ....|--- .... ....|--- .... ....
....|..|C-4 AF.F ....|F#3 2F27 ....|D#4 2FE7 ....
 G#3|..|G#1 2A.F ....|--- .... ....|--- .... ....
....|..|--- .... ....|--- .... ....|--- .... ....
....|..|--- .... ....|--- .... ....|--- .... ....
....|..|C-4 CF.7 ....|F#3 2F27 ....|--- .... ....
....|..|--- .... ....|--- .... ....|--- .... ....
....|..|--- .... ....|--- .... ....|--- .... ....
....|..|--- .... ....|--- .... ....|--- .... ....
....|..|C-4 CF.F ....|G#3 2F3F ....|--- .... ....
 G#3|..|G#1 2A.F ....|--- .... ....|--- .... ....
....|..|--- .... ....|--- .... ....|--- .... ....
....|..|--- .... ....|--- .... ....|--- .... ....
....|..|--- .... ....|F#3 2F27 ....|--- .... ....
....|..|--- .... ....|--- .... ....|--- .... ....
....|..|--- .... ....|--- .... ....|--- .... ....
....|..|--- .... ....|--- .... ....|--- .... ....
....|..|C-3 RF.F ....|G#3 2F3F ....|D#4 2F4F ....
 G#3|..|G#1 2A.F ....|--- .... ....|--- .... ....
....|..|--- .... ....|--- .... ....|--- .... ....
....|..|--- .... ....|--- .... ....|--- .... ....
....|..|C-4 CF.F ....|G#3 2F3F ....|--- .... ....
....|..|--- .... ....|--- .... ....|--- .... ....
....|..|--- .... ....|--- .... ....|--- .... ....
....|..|--- .... ....|--- .... ....|--- .... ....
....|..|C-4 AF.F ....|G#3 2F3F ....|--- .... ....
 G#3|..|G#1 2A.F ....|--- .... ....|--- .... ....
....|..|--- .... ....|--- .... ....|--- .... ....
....|..|--- .... ....|--- .... ....|--- .... ....
....|..|--- .... ....|G#3 2F3F ....|--- .... ....
....|..|--- .... ....|--- .... ....|--- .... ....
....|..|--- .... ....|--- .... ....|--- .... ....
....|..|--- .... ....|--- .... ....|--- .... ....
....|..|C-4 AF.F ....|G#3 2F3F ....|--- .... ....
 G#3|..|G#1 2A.F ....|--- .... ....|--- .... ....
....|..|--- .... ....|--- .... ....|--- .... ....
....|..|--- .... ....|--- .... ....|--- .... ....
....|..|--- .... ....|F#3 2F27 ....|--- .... ....
....|..|--- .... ....|--- .... ....|--- .... ....
....|..|--- .... ....|--- .... ....|--- .... ....
....|..|--- .... ....|--- .... ....|--- .... ....
....|..|C-4 CF.F ....|G#3 2F3F ....|D#4 2F47 ....
 G#3|..|G#1 2A.F ....|--- .... ....|--- .... ....
....|..|--- .... ....|--- .... ....|--- .... ....
....|..|--- .... ....|--- .... ....|--- .... ....
....|..|C-4 CF.A ....|G#3 2F3A ....|--- .... ....
....|..|--- .... ....|--- .... ....|--- .... ....
....|..|--- .... ....|--- .... ....|--- .... ....
....|..|--- .... ....|--- .... ....|--- .... ....
....|..|C-3 RF.F ....|G#3 2F3F ....|--- .... ....
 C#4|..|C#2 2A.F ....|--- .... ....|--- .... ....
....|..|--- .... ....|--- .... ....|--- .... ....
....|..|--- .... ....|--- .... ....|--- .... ....
....|..|--- .... ....|G#3 2F3F ....|--- .... ....
....|..|--- .... ....|--- .... ....|--- .... ....
....|..|--- .... ....|--- .... ....|--- .... ....
....|..|--- .... ....|--- .... ....|--- .... ....
....|..|C-4 AF.F ....|G#3 2F4F ....|E-4 2F1F ....
 C#4|..|C#2 2A.F ....|--- .... ....|--- .... ....
....|..|--- .... ....|--- .... ....|--- .... ....
....|..|--- .... ....|--- .... ....|--- .... ....
....|..|--- .... ....|--- .... ....|--- .... ....
....|..|--- .... ....|--- .... ....|--- .... ....
....|..|--- .... ....|--- .... ....|--- .... ....
....|..|--- .... ....|--- .... ....|--- .... ....
....|..|C-4 AF.F ....|G#3 2F37 ....|D#4 2F47 ....
 C#4|..|C#2 2A.F ....|--- .... ....|--- .... ....
....|..|--- .... ....|--- .... ....|--- .... ....
....|..|--- .... ....|--- .... ....|--- .... ....
....|..|C-4 CF.7 ....|G#3 2F37 ....|--- .... ....
....|..|--- .... ....|--- .... ....|--- .... ....
....|..|--- .... ....|--- .... ....|--- .... ....
....|..|--- .... ....|--- .... ....|--- .... ....
....|..|C-4 CF.F ....|G#3 2F4F ....|--- .... ....
 C#4|..|C#2 2A.F ....|--- .... ....|--- .... ....
....|..|--- .... ....|--- .... ....|--- .... ....
....|..|--- .... ....|--- .... ....|--- .... ....
....|..|--- .... ....|G#3 2F37 ....|--- .... ....
....|..|--- .... ....|--- .... ....|--- .... ....
....|..|--- .... ....|--- .... ....|--- .... ....
....|..|--- .... ....|--- .... ....|--- .... ....
....|..|C-3 RF.F ....|G#3 2F4F ....|E-4 2F1F ....
 C#4|..|C#2 2A.F ....|--- .... ....|--- .... ....
....|..|--- .... ....|--- .... ....|--- .... ....
....|..|--- .... ....|--- .... ....|--- .... ....
....|..|C-4 CF.F ....|G#3 2F4F ....|--- .... ....
....|..|--- .... ....|--- .... ....|--- .... ....
....|..|--- .... ....|--- .... ....|--- .... ....
....|..|--- .... ....|--- .... ....|--- .... ....
....|..|C-4 AF.F ....|G#3 2F4F ....|--- .... ....
 C#4|..|C#2 2A.F ....|--- .... ....|--- .... ....
....|..|--- .... ....|--- .... ....|--- .... ....
....|..|--- .... ....|--- .... ....|--- .... ....
....|..|--- .... ....|G#3 2F4F ....|--- .... ....
....|..|--- .... ....|--- .... ....|--- .... ....
....|..|--- .... ....|--- .... ....|--- .... ....
....|..|--- .... ....|--- .... ....|--- .... ....
....|..|C-4 AF.F ....|G#3 2F4F ....|--- .... ....
 G#3|..|G#1 2A.F ....|--- .... ....|--- .... ....
....|..|--- .... ....|--- .... ....|--- .... ....
....|..|--- .... ....|--- .... ....|--- .... ....
....|..|--- .... ....|G#3 2F37 ....|--- .... ....
....|..|--- .... ....|--- .... ....|--- .... ....
....|..|--- .... ....|--- .... ....|--- .... ....
....|..|--- .... ....|--- .... ....|--- .... ....
....|..|C-4 CF.F ....|G#3 2F4F ....|E-4 2F17 ....
 C#4|..|C#2 2A.F ....|--- .... ....|--- .... ....
....|..|--- .... ....|--- .... ....|--- .... ....
....|..|--- .... ....|--- .... ....|--- .... ....
....|..|C-4 CF.A ....|G#3 2F4A ....|--- .... ....
....|..|--- .... ....|--- .... ....|--- .... ....
....|..|--- .... ....|--- .... ....|--- .... ....
....|..|--- .... ....|--- .... ....|--- .... ....
....|..|C-3 RF.F ....|G#3 2F4F ....|--- .... ....
 B-3|..|B-1 2A.F ....|--- .... ....|--- .... ....
....|..|--- .... ....|--- .... ....|--- .... ....
....|..|--- .... ....|--- .... ....|--- .... ....
....|..|--- .... ....|G#3 2F4F ....|--- .... ....
....|..|--- .... ....|--- .... ....|--- .... ....
....|..|--- .... ....|--- .... ....|--- .... ....
....|..|--- .... ....|--- .... ....|--- .... ....
....|..|C-4 AF.F ....|F#3 2F3F ....|F#4 2F3F ....
 F#3|..|F#1 2A.F ....|--- .... ....|--- .... ....
....|..|--- .... ....|--- .... ....|--- .... ....
....|..|--- .... ....|--- .... ....|--- .... ....
....|..|--- .... ....|--- .... ....|--- .... ....
....|..|--- .... ....|--- .... ....|--- .... ....
....|..|--- .... ....|--- .... ....|--- .... ....
....|..|--- .... ....|--- .... ....|--- .... ....
....|..|C-4 AF.F ....|G#3 2F47 ....|E-4 2F17 ....
 F#3|..|F#1 2A.F ....|--- .... ....|--- .... ....
....|..|--- .... ....|--- .... ....|--- .... ....
....|..|--- .... ....|--- .... ....|--- .... ....
....|..|C-4 CF.7 ....|G#3 2F47 ....|--- .... ....
....|..|--- .... ....|--- .... ....|--- .... ....
....|..|--- .... ....|--- .... ....|--- .... ....
....|..|--- .... ....|--- .... ....|--- .... ....
....|..|C-4 CF.F ....|F#3 2F3F ....|G-3 2F1F ....
 F#3|..|F#1 2A.F ....|--- .... ....|R-- .... ....
....|..|--- .... ....|--- .... ....|--- .... ....
....|..|--- .... ....|--- .... ....|--- .... ....
....|..|--- .... ....|G#3 2F47 ....|--- .... ....
....|..|--- .... ....|--- .... ....|--- .... ....
....|..|--- .... ....|--- .... ....|--- .... ....
....|..|--- .... ....|--- .... ....|--- .... ....
....|..|C-3 RF.F ....|F#3 2F3F ....|F#4 2F3F ....
 F#3|..|F#1 2A.F ....|--- .... ....|--- .... ....
....|..|--- .... ....|--- .... ....|--- .... ....
....|..|--- .... ....|--- .... ....|--- .... ....
....|..|C-4 CF.F ....|F#3 2F3F ....|--- .... ....
....|..|--- .... ....|--- .... ....|--- .... ....
....|..|--- .... ....|--- .... ....|--- .... ....
....|..|--- .... ....|--- .... ....|--- .... ....
....|..|C-4 AF.F ....|F#3 2F3F ....|--- .... ....
 F#3|..|F#1 2A.F ....|--- .... ....|--- .... ....
....|..|--- .... ....|--- .... ....|--- .... ....
....|..|--- .... ....|--- .... ....|--- .... ....
....|..|--- .... ....|F#3 2F3F ....|--- .... ....
....|..|--- .... ....|--- .... ....|--- .... ....
....|..|--- .... ....|--- .... ....|--- .... ....
....|..|--- .... ....|--- .... ....|--- .... ....
....|..|C-4 AF.F ....|F#3 2F3F ....|F#4 2F3F ....
 F#3|..|F#1 2A.F ....|--- .... ....|R-- .... ....
....|..|--- .... ....|--- .... ....|--- .... ....
....|..|--- .... ....|--- .... ....|--- .... ....
....|..|--- .... ....|G#3 2F47 ....|--- .... ....
....|..|--- .... ....|--- .... ....|--- .... ....
....|..|--- .... ....|--- .... ....|--- .... ....
....|..|--- .... ....|--- .... ....|--- .... ....
....|..|C-4 CF.F ....|F#3 2F3F ....|F#4 2F3F ....
 F#3|..|F#1 2A.F ....|--- .... ....|--- .... ....
....|..|--- .... ....|--- .... ....|--- .... ....
....|..|--- .... ....|--- .... ....|--- .... ....
....|..|C-4 CF.A ....|F#3 2F3A ....|--- .... ....
....|..|--- .... ....|--- .... ....|--- .... ....
....|..|--- .... ....|--- .... ....|--- .... ....
....|..|--- .... ....|--- .... ....|--- .... ....
....|..|C-3 RF.F ....|F#3 2F3F ....|--- .... ....
 F#3|..|F#1 2A.F ....|--- .... ....|--- .... ....
....|..|--- .... ....|--- .... ....|--- .... ....
....|..|--- .... ....|--- .... ....|--- .... ....
....|..|--- .... ....|F#3 2F3F ....|--- .... ....
....|..|--- .... ....|--- .... ....|--- .... ....
....|..|--- .... ....|--- .... ....|--- .... ....
....|..|--- .... ....|--- .... ....|--- .... ....

[Pattern26]
....|..|C-4 AF.F ....|G#3 2F3F ....|D#4 2F4F ....
 G#3|..|G#1 2A.F ....|--- .... ....|R-- .... ....
....|..|--- .... ....|--- .... ....|--- .... ....
....|..|--- .... ....|--- .... ....|--- .... ....
....|..|--- .... ....|--- .... ....|--- .... ....
....|..|--- .... ....|--- .... ....|--- .... ....
....|..|--- .... ....|--- .... ....|--- .... ....
....|..|--- .... ....|--- .... ....|--- .... ....
....|..|C-4 AF.F ....|F#3 2F37 ....|F#4 2F37 ....
 G#3|..|G#1 2A.F ....|--- .... ....|--- .... ....
....|..|--- .... ....|--- .... ....|--- .... ....
....|..|--- .... ....|--- .... ....|--- .... ....
....|..|C-4 CF.7 ....|F#3 2F37 ....|--- .... ....
....|..|--- .... ....|--- .... ....|--- .... ....
....|..|--- .... ....|--- .... ....|--- .... ....
....|..|--- .... ....|--- .... ....|--- .... ....
....|..|C-4 CF.F ....|G#3 2F3F ....|G#3 2F.F ....
 G#3|..|G#1 2A.F ....|--- .... ....|--- .... ....
....|..|--- .... ....|--- .... ....|--- .... ....
....|..|--- .... ....|--- .... ....|--- .... ....
....|..|--- .... ....|F#3 2F37 ....|--- .... ....
....|..|--- .... ....|--- .... ....|--- .... ....
....|..|--- .... ....|--- .... ....|--- .... ....
....|..|--- .... ....|--- .... ....|--- .... ....
....|..|C-3 RF.F ....|G#3 2F3F ....|D#4 2F.F ....
 G#3|..|G#1 2A.F ....|--- .... ....|--- .... ....
....|..|--- .... ....|--- .... ....|--- .... ....
....|..|--- .... ....|--- .... ....|--- .... ....
....|..|C-4 CF.F ....|G#3 2F3F ....|--- .... ....
....|..|--- .... ....|--- .... ....|--- .... ....
....|..|--- .... ....|--- .... ....|--- .... ....
....|..|--- .... ....|--- .... ....|--- .... ....
....|..|C-4 AF.F ....|G#3 2F3F ....|G#4 2F.F ....
 G#3|..|G#1 2A.F ....|--- .... ....|--- .... ....
....|..|--- .... ....|--- .... ....|--- .... ....
....|..|--- .... ....|--- .... ....|--- .... ....
....|..|--- .... ....|G#3 2F3F ....|--- .... ....
....|..|--- .... ....|--- .... ....|--- .... ....
....|..|--- .... ....|--- .... ....|--- .... ....
....|..|--- .... ....|--- .... ....|--- .... ....
....|..|C-4 AF.F ....|G#3 2F3F ....|B-4 2F.F ....
 G#3|..|G#1 2A.F ....|--- .... ....|--- .... ....
....|..|--- .... ....|--- .... ....|--- .... ....
....|..|--- .... ....|--- .... ....|--- .... ....
....|..|--- .... ....|F#3 2F37 ....|--- .... ....
....|..|--- .... ....|--- .... ....|--- .... ....
....|..|--- .... ....|--- .... ....|--- .... ....
....|..|--- .... ....|--- .... ....|--- .... ....
....|..|C-4 CF.F ....|G#3 2F3F ....|D#4 2F4F ....
 G#3|..|G#1 2A.F ....|--- .... ....|--- .... ....
....|..|--- .... ....|--- .... ....|--- .... ....
....|..|--- .... ....|--- .... ....|--- .... ....
....|..|C-4 CF.A ....|G#3 2F3A ....|--- .... ....
....|..|--- .... ....|--- .... ....|--- .... ....
....|..|--- .... ....|--- .... ....|--- .... ....
....|..|--- .... ....|--- .... ....|--- .... ....
....|..|C-3 RF.F ....|G#3 2F3F ....|G#4 2F.A ....
 C#4|..|C#2 2A.F ....|--- .... ....|--- .... ....
....|..|--- .... ....|--- .... ....|--- .... ....
....|..|--- .... ....|--- .... ....|--- .... ....
....|..|--- .... ....|G#3 2F3F ....|--- .... ....
....|..|--- .... ....|--- .... ....|--- .... ....
....|..|--- .... ....|--- .... ....|--- .... ....
....|..|--- .... ....|--- .... ....|--- .... ....
....|..|C-4 AF.F ....|G#3 2F4F ....|C#4 2F3F ....
 C#4|..|C#2 2A.F ....|--- .... ....|--- .... ....
....|..|--- .... ....|--- .... ....|--- .... ....
....|..|--- .... ....|--- .... ....|--- .... ....
....|..|--- .... ....|--- .... ....|--- .... ....
....|..|--- .... ....|--- .... ....|--- .... ....
....|..|--- .... ....|--- .... ....|--- .... ....
....|..|--- .... ....|--- .... ....|--- .... ....
....|..|C-4 AF.F ....|G#3 2F37 ....|D#4 2F.7 ....
 C#4|..|C#2 2A.F ....|--- .... ....|--- .... ....
....|..|--- .... ....|--- .... ....|--- .... ....
....|..|--- .... ....|--- .... ....|--- .... ....
....|..|C-4 CF.7 ....|G#3 2F37 ....|--- .... ....
....|..|--- .... ....|--- .... ....|--- .... ....
....|..|--- .... ....|--- .... ....|--- .... ....
....|..|--- .... ....|--- .... ....|--- .... ....
....|..|C-4 CF.F ....|G#3 2F4F ....|C#4 2F3F ....
 C#4|..|C#2 2A.F ....|--- .... ....|--- .... ....
....|..|--- .... ....|--- .... ....|--- .... ....
....|..|--- .... ....|--- .... ....|--- .... ....
....|..|--- .... ....|G#3 2F37 ....|--- .... ....
....|..|--- .... ....|--- .... ....|--- .... ....
....|..|--- .... ....|--- .... ....|--- .... ....
....|..|--- .... ....|--- .... ....|--- .... ....
....|..|C-3 RF.F ....|G#3 2F4F ....|C#4 2F3F ....
 C#4|..|C#2 2A.F ....|--- .... ....|--- .... ....
....|..|--- .... ....|--- .... ....|--- .... ....
....|..|--- .... ....|--- .... ....|--- .... ....
....|..|C-4 CF.F ....|G#3 2F4F ....|--- .... ....
....|..|--- .... ....|--- .... ....|--- .... ....
....|..|--- .... ....|--- .... ....|--- .... ....
....|..|--- .... ....|--- .... ....|--- .... ....
....|..|C-4 AF.F ....|G#3 2F4F ....|C#4 2F3F ....
 C#4|..|C#2 2A.F ....|--- .... ....|--- .... ....
....|..|--- .... ....|--- .... ....|--- .... ....
....|..|--- .... ....|--- .... ....|--- .... ....
....|..|--- .... ....|G#3 2F4F ....|--- .... ....
....|..|--- .... ....|--- .... ....|--- .... ....
....|..|--- .... ....|--- .... ....|--- .... ....
....|..|--- .... ....|--- .... ....|--- .... ....
....|..|C-4 AF.F ....|G#3 2F4F ....|C#4 2F3F ....
 G#3|..|G#1 2A.F ....|--- .... ....|--- .... ....
....|..|--- .... ....|--- .... ....|--- .... ....
....|..|--- .... ....|--- .... ....|--- .... ....
....|..|--- .... ....|G#3 2F37 ....|--- .... ....
....|..|--- .... ....|--- .... ....|--- .... ....
....|..|--- .... ....|--- .... ....|--- .... ....
....|..|--- .... ....|--- .... ....|--- .... ....
....|..|C-4 CF.F ....|G#3 2F4F ....|C#4 2F3F ....
 C#4|..|C#2 2A.F ....|--- .... ....|--- .... ....
....|..|--- .... ....|--- .... ....|--- .... ....
....|..|--- .... ....|--- .... ....|--- .... ....
....|..|C-4 CF.A ....|G#3 2F4A ....|--- .... ....
....|..|--- .... ....|--- .... ....|--- .... ....
....|..|--- .... ....|--- .... ....|--- .... ....
....|..|--- .... ....|--- .... ....|--- .... ....
....|..|C-3 RF.F ....|G#3 2F4F ....|C#4 2F3F ....
 B-3|..|B-1 2A.F ....|--- .... ....|--- .... ....
....|..|--- .... ....|--- .... ....|--- .... ....
....|..|--- .... ....|--- .... ....|--- .... ....
....|..|--- .... ....|G#3 2F4F ....|--- .... ....
....|..|--- .... ....|--- .... ....|--- .... ....
....|..|--- .... ....|--- .... ....|--- .... ....
....|..|--- .... ....|--- .... ....|--- .... ....
....|..|C-4 AF.F ....|B-3 2F9F ....|D-4 2F1F ....
....|..|C#2 2F.7 ....|--- .... ....|--- .... ....
....|..|--- .... ....|--- .... ....|--- .... ....
....|..|--- .... ....|--- .... ....|--- .... ....
....|..|--- .... ....|--- .... ....|--- .... ....
....|..|--- .... ....|--- .... ....|--- .... ....
....|..|--- .... ....|--- .... ....|--- .... ....
....|..|--- .... ....|--- .... ....|--- .... ....
....|..|C-3 RF.F ....|B-3 2F9F ....|D-4 2F1F ....
 G#3|..|G#1 2A.F ....|--- .... ....|--- .... ....
....|..|--- .... ....|--- .... ....|--- .... ....
....|..|--- .... ....|--- .... ....|--- .... ....
....|..|C-4 CF.7 ....|G#3 2F47 ....|--- .... ....
....|..|--- .... ....|--- .... ....|--- .... ....
....|..|--- .... ....|--- .... ....|--- .... ....
....|..|--- .... ....|--- .... ....|--- .... ....
....|..|C-4 AF.F ....|G#3 2F47 ....|C#4 2F37 ....
 B-3|..|B-1 2A.F ....|--- .... ....|--- .... ....
....|..|--- .... ....|--- .... ....|--- .... ....
....|..|--- .... ....|--- .... ....|--- .... ....
....|..|--- .... ....|G#3 2F47 ....|--- .... ....
....|..|--- .... ....|--- .... ....|--- .... ....
....|..|--- .... ....|--- .... ....|--- .... ....
....|..|--- .... ....|--- .... ....|--- .... ....
....|..|C-3 RF.F ....|F#3 2FCF ....|C-4 2FEF ....
 A-3|..|A-1 2A.F ....|--- .... ....|--- .... ....
....|..|--- .... ....|--- .... ....|--- .... ....
....|..|--- .... ....|--- .... ....|--- .... ....
....|..|C-4 AF.F ....|--- .... ....|--- .... ....
....|..|--- .... ....|--- .... ....|--- .... ....
....|..|--- .... ....|--- .... ....|--- .... ....
....|..|--- .... ....|--- .... ....|--- .... ....
....|..|C-3 RF.F ....|G#3 2F47 ....|C#4 2F37 ....
 G#3|..|G#1 2A.F ....|--- .... ....|--- .... ....
....|..|--- .... ....|--- .... ....|--- .... ....
....|..|--- .... ....|--- .... ....|--- .... ....
....|..|--- .... ....|--- .... ....|--- .... ....
....|..|--- .... ....|--- .... ....|--- .... ....
....|..|--- .... ....|--- .... ....|--- .... ....
....|..|--- .... ....|--- .... ....|--- .... ....
....|..|C-4 AF.F ....|F#3 2FCF ....|C-4 2FEF ....
....|..|B-1 2F.7 ....|--- .... ....|--- .... ....
....|..|--- .... ....|--- .... ....|--- .... ....
....|..|--- .... ....|--- .... ....|--- .... ....
....|..|--- .... ....|G#3 2F47 ....|--- .... ....
....|..|--- .... ....|--- .... ....|--- .... ....
....|..|--- .... ....|--- .... ....|--- .... ....
....|..|--- .... ....|--- .... ....|--- .... ....
....|..|C-4 AF.F ....|F#3 2FCF ....|C-4 2FEF ....
 E-3|..|E-1 2A.F ....|--- .... ....|--- .... ....
....|..|--- .... ....|--- .... ....|--- .... ....
....|..|--- .... ....|--- .... ....|--- .... ....
....|..|C-4 AF.A ....|--- .... ....|--- .... ....
....|..|--- .... ....|--- .... ....|--- .... ....
....|..|--- .... ....|--- .... ....|--- .... ....
....|..|--- .... ....|--- .... ....|--- .... ....
....|..|C-3 RF.F ....|B-3 2F97 ....|D-4 2F17 ....
 E-3|..|E-1 2A.F ....|--- .... ....|--- .... ....
....|..|--- .... ....|--- .... ....|--- .... ....
....|..|--- .... ....|--- .... ....|--- .... ....
....|..|--- .... ....|--- .... ....|--- .... ....
....|..|--- .... ....|--- .... ....|--- .... ....
....|..|--- .... ....|--- .... ....|--- .... ....
....|..|--- .... ....|--- .... ....|--- .... ....
....|..|C-4 AF.F ....|E-3 2F1F ....|E-4 2F1F ....
 A-3|..|A-1 2A.F ....|--- .... ....|--- .... ....
....|..|--- .... ....|--- .... ....|--- .... ....
....|..|--- .... ....|--- .... ....|--- .... ....
....|..|--- .... ....|--- .... ....|--- .... ....
....|..|--- .... ....|--- .... ....|--- .... ....
....|..|--- .... ....|--- .... ....|--- .... ....
....|..|--- .... ....|--- .... ....|--- .... ....
....|..|C-3 RF.F ....|F#3 2FC7 ....|C-4 2FE7 ....
 A-3|..|A-1 2A.F ....|--- .... ....|--- .... ....
....|..|--- .... ....|--- .... ....|--- .... ....
....|..|--- .... ....|--- .... ....|--- .... ....
....|..|C-4 AF.7 ....|--- .... ....|--- .... ....
....|..|--- .... ....|--- .... ....|--- .... ....
....|..|--- .... ....|--- .... ....|--- .... ....
....|..|--- .... ....|--- .... ....|--- .... ....
....|..|C-4 CF.F ....|E-3 2F1F ....|--- .... ....
 A-3|..|A-1 2A.F ....|--- .... ....|--- .... ....
....|..|--- .... ....|--- .... ....|--- .... ....
....|..|--- .... ....|--- .... ....|--- .... ....
....|..|--- .... ....|--- .... ....|--- .... ....
....|..|--- .... ....|--- .... ....|--- .... ....
....|..|--- .... ....|--- .... ....|--- .... ....
....|..|--- .... ....|--- .... ....|--- .... ....
....|..|C-3 RF.F ....|E-3 2F1F ....|E-4 2F1F ....
 A-3|..|A-1 2A.F ....|--- .... ....|--- .... ....
....|..|--- .... ....|--- .... ....|--- .... ....
....|..|--- .... ....|--- .... ....|--- .... ....
....|..|C-4 CF.F ....|E-3 2F1F ....|--- .... ....
....|..|--- .... ....|--- .... ....|--- .... ....
....|..|--- .... ....|--- .... ....|--- .... ....
....|..|--- .... ....|--- .... ....|--- .... ....
....|..|C-4 AF.F ....|E-3 2F1F ....|C-4 2FE7 ....
 A-3|..|A-1 2A.F ....|--- .... ....|--- .... ....
....|..|--- .... ....|--- .... ....|--- .... ....
....|..|--- .... ....|--- .... ....|--- .... ....
....|..|--- .... ....|E-3 2F1F ....|--- .... ....
....|..|--- .... ....|--- .... ....|--- .... ....
....|..|--- .... ....|--- .... ....|--- .... ....
....|..|--- .... ....|--- .... ....|--- .... ....
....|..|C-4 AF.F ....|E-3 2F1F ....|--- .... ....
 A-3|..|A-1 2A.F ....|--- .... ....|--- .... ....
....|..|--- .... ....|--- .... ....|--- .... ....
....|..|--- .... ....|--- .... ....|--- .... ....
....|..|--- .... ....|--- .... ....|--- .... ....
....|..|--- .... ....|--- .... ....|--- .... ....
....|..|--- .... ....|--- .... ....|--- .... ....
....|..|--- .... ....|--- .... ....|--- .... ....
....|..|C-4 CF.F ....|E-3 2F1F ....|E-4 2F17 ....
 A-3|..|A-1 2A.F ....|--- .... ....|--- .... ....
....|..|--- .... ....|--- .... ....|--- .... ....
....|..|--- .... ....|--- .... ....|--- .... ....
....|..|C-4 CF.A ....|E-3 2F1A ....|--- .... ....
....|..|--- .... ....|--- .... ....|--- .... ....
....|..|--- .... ....|--- .... ....|--- .... ....
....|..|--- .... ....|--- .... ....|--- .... ....
....|..|C-3 RF.F ....|E-3 2F1F ....|--- .... ....
 A-3|..|A-1 2A.F ....|--- .... ....|--- .... ....
....|..|--- .... ....|--- .... ....|--- .... ....
....|..|--- .... ....|--- .... ....|--- .... ....
....|..|--- .... ....|E-3 2F1F ....|--- .... ....
....|..|--- .... ....|--- .... ....|--- .... ....
....|..|--- .... ....|--- .... ....|--- .... ....
....|..|--- .... ....|--- .... ....|--- .... ....

[Pattern27]
....|..|C-4 AF.F ....|F#3 2F2F ....|D#4 2FEF ....
 B-3|..|B-1 2A.F ....|--- .... ....|--- .... ....
....|..|--- .... ....|--- .... ....|--- .... ....
....|..|--- .... ....|--- .... ....|--- .... ....
....|..|--- .... ....|--- .... ....|--- .... ....
....|..|--- .... ....|--- .... ....|--- .... ....
....|..|--- .... ....|--- .... ....|--- .... ....
....|..|--- .... ....|--- .... ....|--- .... ....
....|..|C-4 AF.F ....|E-3 2F17 ....|E-4 2F17 ....
 B-3|..|B-1 2A.F ....|--- .... ....|--- .... ....
....|..|--- .... ....|--- .... ....|--- .... ....
....|..|--- .... ....|--- .... ....|--- .... ....
....|..|C-4 CF.7 ....|E-3 2F17 ....|--- .... ....
....|..|--- .... ....|--- .... ....|--- .... ....
....|..|--- .... ....|--- .... ....|--- .... ....
....|..|--- .... ....|--- .... ....|--- .... ....
....|..|C-4 CF.F ....|F#3 2F2F ....|--- .... ....
 B-3|..|B-1 2A.F ....|--- .... ....|--- .... ....
....|..|--- .... ....|--- .... ....|--- .... ....
....|..|--- .... ....|--- .... ....|--- .... ....
....|..|--- .... ....|E-3 2F17 ....|--- .... ....
....|..|--- .... ....|--- .... ....|--- .... ....
....|..|--- .... ....|--- .... ....|--- .... ....
....|..|--- .... ....|--- .... ....|--- .... ....
....|..|C-3 RF.F ....|F#3 2F2F ....|E-4 2F.F ....
 B-3|..|B-1 2A.F ....|--- .... ....|--- .... ....
....|..|--- .... ....|--- .... ....|--- .... ....
....|..|--- .... ....|--- .... ....|--- .... ....
....|..|C-4 CF.F ....|F#3 2F2F ....|F#4 2F.F ....
....|..|--- .... ....|--- .... ....|--- .... ....
....|..|--- .... ....|--- .... ....|--- .... ....
....|..|--- .... ....|--- .... ....|--- .... ....
....|..|C-4 AF.F ....|F#3 2F2F ....|E-4 2F.F ....
 B-3|..|B-1 2A.F ....|--- .... ....|--- .... ....
....|..|--- .... ....|--- .... ....|--- .... ....
....|..|--- .... ....|--- .... ....|--- .... ....
....|..|--- .... ....|F#3 2F2F ....|F#4 2F.F ....
....|..|--- .... ....|--- .... ....|--- .... ....
....|..|--- .... ....|--- .... ....|--- .... ....
....|..|--- .... ....|--- .... ....|--- .... ....
....|..|C-4 AF.F ....|F#3 2F2F ....|E-4 2F.F ....
 B-3|..|B-1 2A.F ....|--- .... ....|--- .... ....
....|..|--- .... ....|--- .... ....|--- .... ....
....|..|--- .... ....|--- .... ....|--- .... ....
....|..|--- .... ....|E-3 2F17 ....|F#4 2F.F ....
....|..|--- .... ....|--- .... ....|--- .... ....
....|..|--- .... ....|--- .... ....|--- .... ....
....|..|--- .... ....|--- .... ....|--- .... ....
....|..|C-4 CF.F ....|F#3 2F2F ....|G#4 2F.F ....
 B-3|..|B-1 2A.F ....|--- .... ....|--- .... ....
....|..|--- .... ....|--- .... ....|--- .... ....
....|..|--- .... ....|--- .... ....|--- .... ....
....|..|C-4 CF.A ....|F#3 2F2A ....|F#4 2F.A ....
....|..|--- .... ....|--- .... ....|--- .... ....
....|..|--- .... ....|--- .... ....|--- .... ....
....|..|--- .... ....|--- .... ....|--- .... ....
....|..|C-3 RF.F ....|F#3 2F2F ....|E-4 2F.A ....
 B-3|..|B-1 2A.F ....|--- .... ....|--- .... ....
....|..|--- .... ....|--- .... ....|--- .... ....
....|..|--- .... ....|--- .... ....|--- .... ....
....|..|--- .... ....|F#3 2F2F ....|F#4 2F.A ....
....|..|--- .... ....|--- .... ....|--- .... ....
....|..|--- .... ....|--- .... ....|--- .... ....
....|..|--- .... ....|--- .... ....|--- .... ....
....|..|C-4 AF.F ....|G#3 2F3F ....|D#4 2F4F ....
 G#3|..|G#1 2A.F ....|--- .... ....|--- .... ....
....|..|--- .... ....|--- .... ....|--- .... ....
....|..|--- .... ....|--- .... ....|--- .... ....
....|..|--- .... ....|--- .... ....|F#4 2F.A ....
....|..|--- .... ....|--- .... ....|--- .... ....
....|..|--- .... ....|--- .... ....|--- .... ....
....|..|--- .... ....|--- .... ....|--- .... ....
....|..|C-4 AF.F ....|F#3 2F27 ....|E-4 2F.7 ....
 G#3|..|G#1 2A.F ....|--- .... ....|--- .... ....
....|..|--- .... ....|--- .... ....|--- .... ....
....|..|--- .... ....|--- .... ....|--- .... ....
....|..|C-4 CF.7 ....|F#3 2F27 ....|F#4 2F.7 ....
....|..|--- .... ....|--- .... ....|--- .... ....
....|..|--- .... ....|--- .... ....|--- .... ....
....|..|--- .... ....|--- .... ....|--- .... ....
....|..|C-4 CF.F ....|G#3 2F3F ....|E-4 2F.7 ....
 G#3|..|G#1 2A.F ....|--- .... ....|--- .... ....
....|..|--- .... ....|--- .... ....|--- .... ....
....|..|--- .... ....|--- .... ....|--- .... ....
....|..|--- .... ....|F#3 2F27 ....|F#4 2F.7 ....
....|..|--- .... ....|--- .... ....|--- .... ....
....|..|--- .... ....|--- .... ....|--- .... ....
....|..|--- .... ....|--- .... ....|--- .... ....
....|..|C-3 RF.F ....|G#3 2F3F ....|D#4 2F4F ....
 G#3|..|G#1 2A.F ....|--- .... ....|--- .... ....
....|..|--- .... ....|--- .... ....|--- .... ....
....|..|--- .... ....|--- .... ....|--- .... ....
....|..|C-4 CF.F ....|G#3 2F3F ....|F#4 2F.7 ....
....|..|--- .... ....|--- .... ....|--- .... ....
....|..|--- .... ....|--- .... ....|--- .... ....
....|..|--- .... ....|--- .... ....|--- .... ....
....|..|C-4 AF.F ....|G#3 2F3F ....|G#4 2F.7 ....
 G#3|..|G#1 2A.F ....|--- .... ....|--- .... ....
....|..|--- .... ....|--- .... ....|--- .... ....
....|..|--- .... ....|--- .... ....|--- .... ....
....|..|--- .... ....|G#3 2F3F ....|--- .... ....
....|..|--- .... ....|--- .... ....|--- .... ....
....|..|--- .... ....|--- .... ....|--- .... ....
....|..|--- .... ....|--- .... ....|--- .... ....
....|..|C-4 AF.F ....|G#3 2F3F ....|--- .... ....
 G#3|..|G#1 2A.F ....|--- .... ....|--- .... ....
....|..|--- .... ....|--- .... ....|--- .... ....
....|..|--- .... ....|--- .... ....|--- .... ....
....|..|--- .... ....|F#3 2F27 ....|--- .... ....
....|..|--- .... ....|--- .... ....|--- .... ....
....|..|--- .... ....|--- .... ....|--- .... ....
....|..|--- .... ....|--- .... ....|--- .... ....
....|..|C-4 CF.F ....|G#3 2F3F ....|D#4 2F47 ....
 G#3|..|G#1 2A.F ....|--- .... ....|--- .... ....
....|..|--- .... ....|--- .... ....|--- .... ....
....|..|--- .... ....|--- .... ....|--- .... ....
....|..|C-4 CF.A ....|G#3 2F3A ....|--- .... ....
....|..|--- .... ....|--- .... ....|--- .... ....
....|..|--- .... ....|--- .... ....|--- .... ....
....|..|--- .... ....|--- .... ....|--- .... ....
....|..|C-3 RF.F ....|G#3 2F3F ....|--- .... ....
 C#4|..|C#2 2A.F ....|--- .... ....|--- .... ....
....|..|--- .... ....|--- .... ....|--- .... ....
....|..|--- .... ....|--- .... ....|--- .... ....
....|..|--- .... ....|G#3 2F3F ....|--- .... ....
....|..|--- .... ....|--- .... ....|--- .... ....
....|..|--- .... ....|--- .... ....|--- .... ....
....|..|--- .... ....|--- .... ....|--- .... ....
....|..|C-4 AF.F ....|G#3 2F4F ....|E-4 2F1F ....
 C#4|..|C#2 2A.F ....|--- .... ....|--- .... ....
....|..|--- .... ....|--- .... ....|--- .... ....
....|..|--- .... ....|--- .... ....|--- .... ....
....|..|--- .... ....|--- .... ....|--- .... ....
....|..|--- .... ....|--- .... ....|--- .... ....
....|..|--- .... ....|--- .... ....|--- .... ....
....|..|--- .... ....|--- .... ....|--- .... ....
....|..|C-4 AF.F ....|G#3 2F37 ....|D#4 2F47 ....
 C#4|..|C#2 2A.F ....|--- .... ....|--- .... ....
....|..|--- .... ....|--- .... ....|--- .... ....
....|..|--- .... ....|--- .... ....|--- .... ....
....|..|C-4 CF.7 ....|G#3 2F37 ....|--- .... ....
....|..|--- .... ....|--- .... ....|--- .... ....
....|..|--- .... ....|--- .... ....|--- .... ....
....|..|--- .... ....|--- .... ....|--- .... ....
....|..|C-4 CF.F ....|G#3 2F4F ....|--- .... ....
 C#4|..|C#2 2A.F ....|--- .... ....|--- .... ....
....|..|--- .... ....|--- .... ....|--- .... ....
....|..|--- .... ....|--- .... ....|--- .... ....
....|..|--- .... ....|G#3 2F37 ....|--- .... ....
....|..|--- .... ....|--- .... ....|--- .... ....
....|..|--- .... ....|--- .... ....|--- .... ....
....|..|--- .... ....|--- .... ....|--- .... ....
....|..|C-3 RF.F ....|G#3 2F4F ....|D#4 2F.F ....
 C#4|..|C#2 2A.F ....|--- .... ....|--- .... ....
....|..|--- .... ....|--- .... ....|--- .... ....
....|..|--- .... ....|--- .... ....|--- .... ....
....|..|C-4 CF.F ....|G#3 2F4F ....|E-4 2F.F ....
....|..|--- .... ....|--- .... ....|--- .... ....
....|..|--- .... ....|--- .... ....|--- .... ....
....|..|--- .... ....|--- .... ....|--- .... ....
....|..|C-4 AF.F ....|G#3 2F4F ....|D#4 2F.F ....
 C#4|..|C#2 2A.F ....|--- .... ....|--- .... ....
....|..|--- .... ....|--- .... ....|--- .... ....
....|..|--- .... ....|--- .... ....|--- .... ....
....|..|--- .... ....|G#3 2F4F ....|E-4 2F.F ....
....|..|--- .... ....|--- .... ....|--- .... ....
....|..|--- .... ....|--- .... ....|--- .... ....
....|..|--- .... ....|--- .... ....|--- .... ....
....|..|C-4 AF.F ....|G#3 2F4F ....|D#4 2F.F ....
 G#3|..|G#1 2A.F ....|--- .... ....|--- .... ....
....|..|--- .... ....|--- .... ....|--- .... ....
....|..|--- .... ....|--- .... ....|--- .... ....
....|..|--- .... ....|G#3 2F37 ....|F#4 2F.F ....
....|..|--- .... ....|--- .... ....|--- .... ....
....|..|--- .... ....|--- .... ....|--- .... ....
....|..|--- .... ....|--- .... ....|--- .... ....
....|..|C-4 CF.F ....|G#3 2F4F ....|D#4 2F.F ....
 C#4|..|C#2 2A.F ....|--- .... ....|--- .... ....
....|..|--- .... ....|--- .... ....|--- .... ....
....|..|--- .... ....|--- .... ....|--- .... ....
....|..|C-4 CF.A ....|G#3 2F4A ....|C#4 2F.F ....
....|..|--- .... ....|--- .... ....|--- .... ....
....|..|--- .... ....|--- .... ....|--- .... ....
....|..|--- .... ....|--- .... ....|--- .... ....
....|..|C-3 RF.F ....|G#3 2F4F ....|G#3 2F.F ....
 B-3|..|B-1 2A.F ....|--- .... ....|--- .... ....
....|..|--- .... ....|--- .... ....|--- .... ....
....|..|--- .... ....|--- .... ....|--- .... ....
....|..|--- .... ....|G#3 2F4F ....|E-4 2F.A ....
....|..|--- .... ....|--- .... ....|--- .... ....
....|..|--- .... ....|--- .... ....|--- .... ....
....|..|--- .... ....|--- .... ....|--- .... ....
....|..|C-4 AF.F ....|F#3 2F3F ....|F#4 2F3F ....
 F#3|..|F#1 2A.F ....|--- .... ....|--- .... ....
....|..|--- .... ....|--- .... ....|--- .... ....
....|..|--- .... ....|--- .... ....|--- .... ....
....|..|--- .... ....|--- .... ....|F#4 2F.A ....
....|..|--- .... ....|--- .... ....|--- .... ....
....|..|--- .... ....|--- .... ....|--- .... ....
....|..|--- .... ....|--- .... ....|--- .... ....
....|..|C-4 AF.F ....|G#3 2F47 ....|D#4 2F.7 ....
 F#3|..|F#1 2A.F ....|--- .... ....|--- .... ....
....|..|--- .... ....|--- .... ....|--- .... ....
....|..|--- .... ....|--- .... ....|--- .... ....
....|..|C-4 CF.7 ....|G#3 2F47 ....|E-4 2F.7 ....
....|..|--- .... ....|--- .... ....|--- .... ....
....|..|--- .... ....|--- .... ....|--- .... ....
....|..|--- .... ....|--- .... ....|--- .... ....
....|..|C-4 CF.F ....|F#3 2F3F ....|D#4 2F.7 ....
 F#3|..|F#1 2A.F ....|--- .... ....|--- .... ....
....|..|--- .... ....|--- .... ....|--- .... ....
....|..|--- .... ....|--- .... ....|--- .... ....
....|..|--- .... ....|G#3 2F47 ....|E-4 2F.7 ....
....|..|--- .... ....|--- .... ....|--- .... ....
....|..|--- .... ....|--- .... ....|--- .... ....
....|..|--- .... ....|--- .... ....|--- .... ....
....|..|C-3 RF.F ....|F#3 2F3F ....|F#4 2F3F ....
 F#3|..|F#1 2A.F ....|--- .... ....|--- .... ....
....|..|--- .... ....|--- .... ....|--- .... ....
....|..|--- .... ....|--- .... ....|--- .... ....
....|..|C-4 CF.F ....|F#3 2F3F ....|F#4 2F.7 ....
....|..|--- .... ....|--- .... ....|--- .... ....
....|..|--- .... ....|--- .... ....|--- .... ....
....|..|--- .... ....|--- .... ....|--- .... ....
....|..|C-4 AF.F ....|F#3 2F3F ....|D#4 2F.7 ....
 F#3|..|F#1 2A.F ....|--- .... ....|--- .... ....
....|..|--- .... ....|--- .... ....|--- .... ....
....|..|--- .... ....|--- .... ....|--- .... ....
....|..|--- .... ....|F#3 2F3F ....|C#4 2F.7 ....
....|..|--- .... ....|--- .... ....|--- .... ....
....|..|--- .... ....|--- .... ....|--- .... ....
....|..|--- .... ....|--- .... ....|--- .... ....
....|..|C-4 AF.F ....|F#3 2F3F ....|G#3 2F.7 ....
 F#3|..|F#1 2A.F ....|--- .... ....|--- .... ....
....|..|--- .... ....|--- .... ....|--- .... ....
....|..|--- .... ....|--- .... ....|--- .... ....
....|..|--- .... ....|G#3 2F47 ....|--- .... ....
....|..|--- .... ....|--- .... ....|--- .... ....
....|..|--- .... ....|--- .... ....|--- .... ....
....|..|--- .... ....|--- .... ....|--- .... ....
....|..|C-4 CF.F ....|F#3 2F3F ....|F#4 2F37 ....
 F#3|..|F#1 2A.F ....|--- .... ....|--- .... ....
....|..|--- .... ....|--- .... ....|--- .... ....
....|..|--- .... ....|--- .... ....|--- .... ....
....|..|C-4 CF.A ....|F#3 2F3A ....|--- .... ....
....|..|--- .... ....|--- .... ....|--- .... ....
....|..|--- .... ....|--- .... ....|--- .... ....
....|..|--- .... ....|--- .... ....|--- .... ....
....|..|C-3 RF.F ....|F#3 2F3F ....|--- .... ....
 F#3|..|F#1 2A.F ....|--- .... ....|--- .... ....
....|..|--- .... ....|--- .... ....|--- .... ....
....|..|--- .... ....|--- .... ....|--- .... ....
....|..|--- .... ....|F#3 2F3F ....|--- .... ....
....|..|--- .... ....|--- .... ....|--- .... ....
....|..|--- .... ....|--- .... ....|--- .... ....
....|..|--- .... ....|--- .... ....|--- .... ....

[Pattern28]
....|..|C-4 AF.F ....|G#3 2F3F ....|F#4 2F2F ....
 G#3|..|G#1 2A.F ....|--- .... ....|--- .... ....
....|..|--- .... ....|--- .... ....|--- .... ....
....|..|--- .... ....|--- .... ....|--- .... ....
....|..|--- .... ....|--- .... ....|--- .... ....
....|..|--- .... ....|--- .... ....|--- .... ....
....|..|--- .... ....|--- .... ....|--- .... ....
....|..|--- .... ....|--- .... ....|--- .... ....
....|..|C-4 AF.F ....|F#3 2F37 ....|F#4 2F2F ....
 G#3|..|G#1 2A.F ....|--- .... ....|--- .... ....
....|..|--- .... ....|--- .... ....|--- .... ....
....|..|--- .... ....|--- .... ....|--- .... ....
....|..|C-4 CF.7 ....|F#3 2F37 ....|--- .... ....
....|..|--- .... ....|--- .... ....|--- .... ....
....|..|--- .... ....|--- .... ....|--- .... ....
....|..|--- .... ....|--- .... ....|--- .... ....
....|..|C-4 CF.F ....|G#3 2F3F ....|F#4 2F2F ....
 G#3|..|G#1 2A.F ....|--- .... ....|--- .... ....
....|..|--- .... ....|--- .... ....|--- .... ....
....|..|--- .... ....|--- .... ....|--- .... ....
....|..|--- .... ....|F#3 2F37 ....|--- .... ....
....|..|--- .... ....|--- .... ....|--- .... ....
....|..|--- .... ....|--- .... ....|--- .... ....
....|..|--- .... ....|--- .... ....|--- .... ....
....|..|C-3 RF.F ....|G#3 2F3F ....|F#4 2F2F ....
 G#3|..|G#1 2A.F ....|--- .... ....|--- .... ....
....|..|--- .... ....|--- .... ....|--- .... ....
....|..|--- .... ....|--- .... ....|--- .... ....
....|..|C-4 CF.F ....|G#3 2F3F ....|--- .... ....
....|..|--- .... ....|--- .... ....|--- .... ....
....|..|--- .... ....|--- .... ....|--- .... ....
....|..|--- .... ....|--- .... ....|--- .... ....
....|..|C-4 AF.F ....|G#3 2F3F ....|F#4 2F2F ....
 G#3|..|G#1 2A.F ....|--- .... ....|--- .... ....
....|..|--- .... ....|--- .... ....|--- .... ....
....|..|--- .... ....|--- .... ....|--- .... ....
....|..|--- .... ....|G#3 2F3F ....|--- .... ....
....|..|--- .... ....|--- .... ....|--- .... ....
....|..|--- .... ....|--- .... ....|--- .... ....
....|..|--- .... ....|--- .... ....|--- .... ....
....|..|C-4 AF.F ....|G#3 2F3F ....|F#4 2F2F ....
 G#3|..|G#1 2A.F ....|--- .... ....|--- .... ....
....|..|--- .... ....|--- .... ....|--- .... ....
....|..|--- .... ....|--- .... ....|--- .... ....
....|..|--- .... ....|F#3 2F37 ....|--- .... ....
....|..|--- .... ....|--- .... ....|--- .... ....
....|..|--- .... ....|--- .... ....|--- .... ....
....|..|--- .... ....|--- .... ....|--- .... ....
....|..|C-4 CF.F ....|G#3 2F3F ....|F#4 2F2F ....
 G#3|..|G#1 2A.F ....|--- .... ....|--- .... ....
....|..|--- .... ....|--- .... ....|--- .... ....
....|..|--- .... ....|--- .... ....|--- .... ....
....|..|C-4 CF.A ....|G#3 2F3A ....|--- .... ....
....|..|--- .... ....|--- .... ....|--- .... ....
....|..|--- .... ....|--- .... ....|--- .... ....
....|..|--- .... ....|--- .... ....|--- .... ....
....|..|C-3 RF.F ....|G#3 2F3F ....|F#4 2F2F ....
 G#3|..|G#1 2A.F ....|--- .... ....|--- .... ....
....|..|--- .... ....|--- .... ....|--- .... ....
....|..|--- .... ....|--- .... ....|--- .... ....
....|..|--- .... ....|G#3 2F3F ....|--- .... ....
....|..|--- .... ....|--- .... ....|--- .... ....
....|..|--- .... ....|--- .... ....|--- .... ....
....|..|--- .... ....|--- .... ....|--- .... ....
....|..|C-4 AF.F ....|E-3 2F1F ....|E-4 2F2F ....
 A-3|..|A-1 2A.F ....|--- .... ....|--- .... ....
....|..|--- .... ....|--- .... ....|--- .... ....
....|..|--- .... ....|--- .... ....|--- .... ....
....|..|--- .... ....|--- .... ....|--- .... ....
....|..|--- .... ....|--- .... ....|--- .... ....
....|..|--- .... ....|--- .... ....|--- .... ....
....|..|--- .... ....|--- .... ....|--- .... ....
....|..|C-4 AF.F ....|G#3 2F37 ....|G-3 2F8F ....
 A-3|..|A-1 2A.F ....|--- .... ....|R-- .... ....
....|..|--- .... ....|--- .... ....|--- .... ....
....|..|--- .... ....|--- .... ....|--- .... ....
....|..|C-4 CF.7 ....|G#3 2F37 ....|G-3 2F8F ....
....|..|--- .... ....|--- .... ....|R-- .... ....
....|..|--- .... ....|--- .... ....|--- .... ....
....|..|--- .... ....|--- .... ....|--- .... ....
....|..|C-4 CF.F ....|E-3 2F1F ....|E-4 2F2F ....
 A-3|..|A-1 2A.F ....|--- .... ....|--- .... ....
....|..|--- .... ....|--- .... ....|--- .... ....
....|..|--- .... ....|--- .... ....|--- .... ....
....|..|--- .... ....|G#3 2F37 ....|--- .... ....
....|..|--- .... ....|--- .... ....|--- .... ....
....|..|--- .... ....|--- .... ....|--- .... ....
....|..|--- .... ....|--- .... ....|--- .... ....
....|..|C-3 RF.F ....|E-3 2F1F ....|G-3 2F1F ....
 A-3|..|A-1 2A.F ....|--- .... ....|R-- .... ....
....|..|--- .... ....|--- .... ....|--- .... ....
....|..|--- .... ....|--- .... ....|--- .... ....
....|..|C-4 CF.F ....|E-3 2F1F ....|G-3 2F1F ....
....|..|--- .... ....|--- .... ....|R-- .... ....
....|..|--- .... ....|--- .... ....|--- .... ....
....|..|--- .... ....|--- .... ....|--- .... ....
....|..|C-4 AF.F ....|E-3 2F1F ....|G-3 2F1F ....
 A-3|..|A-1 2A.F ....|--- .... ....|R-- .... ....
....|..|--- .... ....|--- .... ....|--- .... ....
....|..|--- .... ....|--- .... ....|--- .... ....
....|..|--- .... ....|E-3 2F1F ....|G-3 2F1F ....
....|..|--- .... ....|--- .... ....|R-- .... ....
....|..|--- .... ....|--- .... ....|--- .... ....
....|..|--- .... ....|--- .... ....|--- .... ....
....|..|C-4 AF.F ....|E-3 2F1F ....|E-4 2F2F ....
 A-3|..|A-1 2A.F ....|--- .... ....|--- .... ....
....|..|--- .... ....|--- .... ....|--- .... ....
....|..|--- .... ....|--- .... ....|--- .... ....
....|..|--- .... ....|G#3 2F37 ....|--- .... ....
....|..|--- .... ....|--- .... ....|--- .... ....
....|..|--- .... ....|--- .... ....|--- .... ....
....|..|--- .... ....|--- .... ....|--- .... ....
....|..|C-4 CF.F ....|E-3 2F1F ....|E-4 2F2F ....
 A-3|..|A-1 2A.F ....|--- .... ....|R-- .... ....
....|..|--- .... ....|--- .... ....|--- .... ....
....|..|--- .... ....|--- .... ....|--- .... ....
....|..|C-4 CF.A ....|E-3 2F1A ....|G-3 2F1A ....
....|..|--- .... ....|--- .... ....|R-- .... ....
....|..|--- .... ....|--- .... ....|--- .... ....
....|..|--- .... ....|--- .... ....|--- .... ....
....|..|C-3 RF.F ....|E-3 2F1F ....|G-3 2F1F ....
 A-3|..|A-1 2A.F ....|--- .... ....|R-- .... ....
....|..|--- .... ....|--- .... ....|--- .... ....
....|..|--- .... ....|--- .... ....|--- .... ....
....|..|--- .... ....|E-3 2F1F ....|G-3 2F1F ....
....|..|--- .... ....|--- .... ....|R-- .... ....
....|..|--- .... ....|--- .... ....|--- .... ....
....|..|--- .... ....|--- .... ....|--- .... ....
....|..|C-4 AF.F ....|F#3 2F2F ....|F#4 2F2F ....
 B-3|..|B-1 2A.F ....|--- .... ....|--- .... ....
....|..|--- .... ....|--- .... ....|--- .... ....
....|..|--- .... ....|--- .... ....|--- .... ....
....|..|--- .... ....|--- .... ....|--- .... ....
....|..|--- .... ....|--- .... ....|--- .... ....
....|..|--- .... ....|--- .... ....|--- .... ....
....|..|--- .... ....|--- .... ....|--- .... ....
....|..|C-4 AF.F ....|E-3 2F17 ....|G-3 2F8F ....
 B-3|..|B-1 2A.F ....|--- .... ....|R-- .... ....
....|..|--- .... ....|--- .... ....|--- .... ....
....|..|--- .... ....|--- .... ....|--- .... ....
....|..|C-4 CF.7 ....|E-3 2F17 ....|G-3 2F8F ....
....|..|--- .... ....|--- .... ....|R-- .... ....
....|..|--- .... ....|--- .... ....|--- .... ....
....|..|--- .... ....|--- .... ....|--- .... ....
....|..|C-4 CF.F ....|F#3 2F2F ....|F#4 2F2F ....
 B-3|..|B-1 2A.F ....|--- .... ....|R-- .... ....
....|..|--- .... ....|--- .... ....|--- .... ....
....|..|--- .... ....|--- .... ....|--- .... ....
....|..|--- .... ....|E-3 2F17 ....|G-3 2F17 ....
....|..|--- .... ....|--- .... ....|R-- .... ....
....|..|--- .... ....|--- .... ....|--- .... ....
....|..|--- .... ....|--- .... ....|--- .... ....
....|..|C-3 RF.F ....|F#3 2F2F ....|G-3 2F1F ....
 B-3|..|B-1 2A.F ....|--- .... ....|R-- .... ....
....|..|--- .... ....|--- .... ....|--- .... ....
....|..|--- .... ....|--- .... ....|--- .... ....
....|..|C-4 CF.F ....|F#3 2F2F ....|G-3 2F1F ....
....|..|--- .... ....|--- .... ....|R-- .... ....
....|..|--- .... ....|--- .... ....|--- .... ....
....|..|--- .... ....|--- .... ....|--- .... ....
....|..|C-4 AF.F ....|F#3 2F2F ....|G-3 2F1F ....
 B-3|..|B-1 2A.F ....|--- .... ....|R-- .... ....
....|..|--- .... ....|--- .... ....|--- .... ....
....|..|--- .... ....|--- .... ....|--- .... ....
....|..|--- .... ....|F#3 2F2F ....|G-3 2F1F ....
....|..|--- .... ....|--- .... ....|R-- .... ....
....|..|--- .... ....|--- .... ....|--- .... ....
....|..|--- .... ....|--- .... ....|--- .... ....
....|..|C-4 AF.F ....|F#3 2F2F ....|F#4 2F2F ....
 B-3|..|B-1 2A.F ....|--- .... ....|R-- .... ....
....|..|--- .... ....|--- .... ....|--- .... ....
....|..|--- .... ....|--- .... ....|--- .... ....
....|..|--- .... ....|E-3 2F17 ....|G-3 2F17 ....
....|..|--- .... ....|--- .... ....|R-- .... ....
....|..|--- .... ....|--- .... ....|--- .... ....
....|..|--- .... ....|--- .... ....|--- .... ....
....|..|C-4 CF.F ....|F#3 2F2F ....|F#4 2F2F ....
 B-3|..|B-1 2A.F ....|--- .... ....|R-- .... ....
....|..|--- .... ....|--- .... ....|--- .... ....
....|..|--- .... ....|--- .... ....|--- .... ....
....|..|C-4 CF.A ....|F#3 2F2A ....|G-3 2F1A ....
....|..|--- .... ....|--- .... ....|R-- .... ....
....|..|--- .... ....|--- .... ....|--- .... ....
....|..|--- .... ....|--- .... ....|--- .... ....
....|..|C-3 RF.F ....|F#3 2F2F ....|G-3 2F1F ....
 B-3|..|B-1 2A.F ....|--- .... ....|R-- .... ....
....|..|--- .... ....|--- .... ....|--- .... ....
....|..|--- .... ....|--- .... ....|--- .... ....
....|..|--- .... ....|F#3 2F2F ....|G-3 2F1F ....
....|..|--- .... ....|--- .... ....|R-- .... ....
....|..|--- .... ....|--- .... ....|--- .... ....
....|..|--- .... ....|--- .... ....|--- .... ....
....|..|C-4 AF.F ....|G#3 2F5F ....|C#4 2F6F ....
 C#4|..|C#2 2A.F ....|--- .... ....|--- .... ....
....|..|--- .... ....|--- .... ....|--- .... ....
....|..|--- .... ....|--- .... ....|--- .... ....
....|..|--- .... ....|--- .... ....|--- .... ....
....|..|--- .... ....|--- .... ....|--- .... ....
....|..|--- .... ....|--- .... ....|--- .... ....
....|..|--- .... ....|--- .... ....|--- .... ....
....|..|C-4 AF.F ....|F#3 2F27 ....|G-3 2F17 ....
 C#4|..|C#2 2A.F ....|--- .... ....|R-- .... ....
....|..|--- .... ....|--- .... ....|--- .... ....
....|..|--- .... ....|--- .... ....|--- .... ....
....|..|C-4 CF.7 ....|F#3 2F27 ....|G-3 2F17 ....
....|..|--- .... ....|--- .... ....|R-- .... ....
....|..|--- .... ....|--- .... ....|--- .... ....
....|..|--- .... ....|--- .... ....|--- .... ....
....|..|C-4 CF.F ....|G#3 2F5F ....|C#4 2F6F ....
 C#4|..|C#2 2A.F ....|--- .... ....|R-- .... ....
....|..|--- .... ....|--- .... ....|--- .... ....
....|..|--- .... ....|--- .... ....|--- .... ....
....|..|--- .... ....|F#3 2F27 ....|G-3 2F17 ....
....|..|--- .... ....|--- .... ....|R-- .... ....
....|..|--- .... ....|--- .... ....|--- .... ....
....|..|--- .... ....|--- .... ....|--- .... ....
....|..|C-3 RF.F ....|G#3 2F5F ....|F#4 2F27 ....
 C#4|..|C#2 2A.F ....|--- .... ....|--- .... ....
....|..|--- .... ....|--- .... ....|--- .... ....
....|..|--- .... ....|--- .... ....|--- .... ....
....|..|C-4 CF.F ....|--- .... ....|--- .... ....
....|..|--- .... ....|--- .... ....|--- .... ....
....|..|--- .... ....|--- .... ....|--- .... ....
....|..|--- .... ....|--- .... ....|--- .... ....
....|..|C-4 AF.F ....|F#3 2F27 ....|C#4 2F6F ....
 C#4|..|C#2 2A.F ....|--- .... ....|--- .... ....
....|..|--- .... ....|--- .... ....|--- .... ....
....|..|--- .... ....|--- .... ....|--- .... ....
....|..|--- .... ....|--- .... ....|--- .... ....
....|..|--- .... ....|--- .... ....|--- .... ....
....|..|--- .... ....|--- .... ....|--- .... ....
....|..|--- .... ....|--- .... ....|--- .... ....
....|..|C-4 AF.F ....|G#3 2F5F ....|C#4 2F6F ....
 C#4|..|C#2 2A.F ....|--- .... ....|R-- .... ....
....|..|--- .... ....|--- .... ....|--- .... ....
....|..|--- .... ....|--- .... ....|--- .... ....
....|..|--- .... ....|F#3 2F27 ....|G-3 2F17 ....
....|..|--- .... ....|--- .... ....|R-- .... ....
....|..|--- .... ....|--- .... ....|--- .... ....
....|..|--- .... ....|--- .... ....|--- .... ....
....|..|C-4 CF.F ....|G#3 2F5F ....|C#4 2F6F ....
 C#4|..|C#2 2A.F ....|--- .... ....|--- .... ....
....|..|--- .... ....|--- .... ....|--- .... ....
....|..|--- .... ....|--- .... ....|--- .... ....
....|..|C-4 CF.A ....|--- .... ....|--- .... ....
....|..|--- .... ....|--- .... ....|--- .... ....
....|..|--- .... ....|--- .... ....|--- .... ....
....|..|--- .... ....|--- .... ....|--- .... ....
....|..|C-3 RF.F ....|G#3 2F5F ....|C#4 2F9F ....
 C#4|..|C#2 2A.F ....|--- .... ....|--- .... ....
....|..|--- .... ....|--- .... ....|--- .... ....
....|..|--- .... ....|--- .... ....|--- .... ....
....|..|--- .... ....|G#3 2F2F ....|--- .... ....
....|..|--- .... ....|--- .... ....|--- .... ....
....|..|--- .... ....|--- .... ....|--- .... ....
....|..|--- .... ....|--- .... ....|--- .... ....

[Pattern29]
....|..|C-4 AF.F ....|G#3 2F2F ....|C#4 2F67 ....
 C#4|..|C#2 2A.F ....|--- .... ....|--- .... ....
....|..|--- .... ....|--- .... ....|--- .... ....
....|..|--- .... ....|--- .... ....|--- .... ....
....|..|--- .... ....|--- .... ....|--- .... ....
....|..|--- .... ....|--- .... ....|--- .... ....
....|..|--- .... ....|--- .... ....|--- .... ....
....|..|--- .... ....|--- .... ....|--- .... ....
....|..|C-4 AF.F ....|G#3 2F57 ....|C#4 2F6A ....
....|..|C#2 2F.7 ....|--- .... ....|--- .... ....
....|..|--- .... ....|--- .... ....|--- .... ....
....|..|--- .... ....|--- .... ....|--- .... ....
....|..|C-4 CF.7 ....|--- .... ....|--- .... ....
....|..|--- .... ....|--- .... ....|--- .... ....
....|..|--- .... ....|--- .... ....|--- .... ....
....|..|--- .... ....|--- .... ....|--- .... ....
....|..|C-4 CF.F ....|G#3 2F5A ....|C#4 2F67 ....
 C#4|..|C#3 2C.F ....|--- .... ....|--- .... ....
....|..|--- .... ....|--- .... ....|--- .... ....
....|..|--- .... ....|--- .... ....|--- .... ....
....|..|--- .... ....|G#3 2F2A ....|--- .... ....
....|..|--- .... ....|--- .... ....|--- .... ....
....|..|--- .... ....|--- .... ....|--- .... ....
....|..|--- .... ....|--- .... ....|--- .... ....
....|..|C-3 RF.F ....|G#3 2F2F ....|C#4 2F67 ....
 C#4|..|C#3 2C.F ....|--- .... ....|--- .... ....
....|..|--- .... ....|--- .... ....|--- .... ....
....|..|--- .... ....|--- .... ....|--- .... ....
....|..|C-4 CF.F ....|--- .... ....|--- .... ....
....|..|--- .... ....|--- .... ....|--- .... ....
....|..|--- .... ....|--- .... ....|--- .... ....
....|..|--- .... ....|--- .... ....|--- .... ....
....|..|C-4 AF.F ....|G#3 2F57 ....|C#4 2F67 ....
 C#4|..|C#3 2C.F ....|--- .... ....|--- .... ....
....|..|--- .... ....|--- .... ....|--- .... ....
....|..|--- .... ....|--- .... ....|--- .... ....
....|..|--- .... ....|--- .... ....|--- .... ....
....|..|--- .... ....|--- .... ....|--- .... ....
....|..|--- .... ....|--- .... ....|--- .... ....
....|..|--- .... ....|--- .... ....|--- .... ....
....|..|C-4 AF.F ....|G#3 2F57 ....|C#4 2F97 ....
 C#4|..|C#3 2C.F ....|--- .... ....|--- .... ....
....|..|--- .... ....|--- .... ....|--- .... ....
....|..|--- .... ....|--- .... ....|--- .... ....
....|..|--- .... ....|G#3 2F27 ....|--- .... ....
....|..|--- .... ....|--- .... ....|--- .... ....
....|..|--- .... ....|--- .... ....|--- .... ....
....|..|--- .... ....|--- .... ....|--- .... ....
....|..|C-4 CF.F ....|G#3 2F27 ....|--- .... ....
 C#4|..|C#3 2C.F ....|--- .... ....|--- .... ....
....|..|--- .... ....|--- .... ....|--- .... ....
....|..|--- .... ....|--- .... ....|--- .... ....
....|..|C-4 CF.F ....|--- .... ....|--- .... ....
....|..|--- .... ....|--- .... ....|--- .... ....
....|..|--- .... ....|--- .... ....|--- .... ....
....|..|--- .... ....|--- .... ....|--- .... ....
....|..|C-4 CF.F ....|--- .... ....|--- .... ....
....|..|C#3 2F.A ....|--- .... ....|--- .... ....
....|..|--- .... ....|--- .... ....|--- .... ....
....|..|--- .... ....|--- .... ....|--- .... ....
....|..|C-4 CF.F ....|--- .... ....|--- .... ....
....|..|--- .... ....|--- .... ....|--- .... ....
....|..|--- .... ....|--- .... ....|--- .... ....
....|..|--- .... ....|--- .... ....|--- .... ....
....|..|C-4 AF.F ....|E-3 2FAF ....|A-4 2F.F ....
 A-3|..|A-1 2A.F ....|--- .... ....|--- .... ....
....|..|--- .... ....|--- .... ....|--- .... ....
....|..|--- .... ....|--- .... ....|--- .... ....
....|..|--- .... ....|--- .... ....|--- .... ....
....|..|--- .... ....|--- .... ....|--- .... ....
....|..|--- .... ....|--- .... ....|R-- .... ....
....|..|--- .... ....|--- .... ....|--- .... ....
....|..|B-8 JF.F ....|G#3 2F27 ....|A-4 2F.F ....
....|..|C#3 2F.7 ....|--- .... ....|--- .... ....
....|..|--- .... ....|--- .... ....|--- .... ....
....|..|--- .... ....|--- .... ....|--- .... ....
....|..|C-4 CF.7 ....|--- .... ....|--- .... ....
....|..|--- .... ....|--- .... ....|--- .... ....
....|..|--- .... ....|--- .... ....|R-- .... ....
....|..|--- .... ....|--- .... ....|--- .... ....
....|..|C-4 AF.F ....|--- .... ....|A-4 2F.F ....
....|..|C#3 2F.7 ....|--- .... ....|--- .... ....
....|..|--- .... ....|--- .... ....|--- .... ....
....|..|--- .... ....|--- .... ....|--- .... ....
....|..|C-4 CF.A ....|--- .... ....|--- .... ....
....|..|--- .... ....|--- .... ....|--- .... ....
....|..|--- .... ....|--- .... ....|R-- .... ....
....|..|--- .... ....|--- .... ....|--- .... ....
....|..|B-8 JF.F ....|E-3 2FAA ....|A-4 2F.F ....
....|..|C#3 2F.7 ....|--- .... ....|--- .... ....
....|..|--- .... ....|--- .... ....|--- .... ....
....|..|--- .... ....|--- .... ....|--- .... ....
....|..|--- .... ....|--- .... ....|--- .... ....
....|..|--- .... ....|--- .... ....|--- .... ....
....|..|--- .... ....|--- .... ....|R-- .... ....
....|..|--- .... ....|--- .... ....|--- .... ....
....|..|C-4 AF.F ....|--- .... ....|A-4 2F.F ....
....|..|C#3 2F.7 ....|--- .... ....|--- .... ....
....|..|--- .... ....|--- .... ....|--- .... ....
....|..|--- .... ....|--- .... ....|--- .... ....
....|..|C-4 CF.7 ....|--- .... ....|--- .... ....
....|..|--- .... ....|--- .... ....|--- .... ....
....|..|--- .... ....|--- .... ....|R-- .... ....
....|..|--- .... ....|--- .... ....|--- .... ....
....|..|B-8 JF.F ....|--- .... ....|A-4 2F.F ....
....|..|--- .... ....|--- .... ....|--- .... ....
....|..|--- .... ....|--- .... ....|--- .... ....
....|..|--- .... ....|--- .... ....|--- .... ....
....|..|C-4 CF.7 ....|--- .... ....|--- .... ....
....|..|--- .... ....|--- .... ....|--- .... ....
....|..|--- .... ....|--- .... ....|R-- .... ....
....|..|--- .... ....|--- .... ....|--- .... ....
....|..|C-4 AF.F ....|E-3 2FA7 ....|A-4 2F.F ....
 A-3|..|A-1 2A.F ....|--- .... ....|--- .... ....
....|..|--- .... ....|--- .... ....|--- .... ....
....|..|--- .... ....|--- .... ....|--- .... ....
....|..|--- .... ....|--- .... ....|--- .... ....
....|..|--- .... ....|--- .... ....|--- .... ....
....|..|--- .... ....|--- .... ....|R-- .... ....
....|..|--- .... ....|--- .... ....|--- .... ....
....|..|B-8 JF.F ....|--- .... ....|A-4 2F.F ....
....|..|--- .... ....|--- .... ....|--- .... ....
....|..|--- .... ....|--- .... ....|--- .... ....
....|..|--- .... ....|--- .... ....|--- .... ....
....|..|B-8 JF.F ....|--- .... ....|--- .... ....
....|..|--- .... ....|--- .... ....|--- .... ....
....|..|--- .... ....|--- .... ....|R-- .... ....
....|..|--- .... ....|--- .... ....|--- .... ....
....|..|C-4 AF.F ....|--- .... ....|A-4 2F.F ....
 E-4|..|E-2 2A.F ....|--- .... ....|--- .... ....
....|..|--- .... ....|--- .... ....|--- .... ....
....|..|--- .... ....|--- .... ....|--- .... ....
....|..|--- .... ....|--- .... ....|--- .... ....
....|..|--- .... ....|--- .... ....|--- .... ....
....|..|--- .... ....|--- .... ....|R-- .... ....
....|..|--- .... ....|--- .... ....|--- .... ....
....|..|B-8 JF.F ....|--- .... ....|A-4 2F.F ....
....|..|A-1 2F.A ....|--- .... ....|--- .... ....
....|..|--- .... ....|--- .... ....|--- .... ....
....|..|--- .... ....|--- .... ....|--- .... ....
....|..|--- .... ....|--- .... ....|--- .... ....
....|..|--- .... ....|--- .... ....|--- .... ....
....|..|--- .... ....|--- .... ....|R-- .... ....
....|..|--- .... ....|--- .... ....|--- .... ....
....|..|C-4 AF.F ....|--- .... ....|A-4 2F.F ....
 E-4|..|E-2 2A.F ....|--- .... ....|--- .... ....
....|..|--- .... ....|--- .... ....|--- .... ....
....|..|--- .... ....|--- .... ....|--- .... ....
....|..|B-8 JF.A ....|--- .... ....|--- .... ....
....|..|--- .... ....|--- .... ....|--- .... ....
....|..|--- .... ....|--- .... ....|R-- .... ....
....|..|--- .... ....|--- .... ....|--- .... ....
....|..|C-4 LF.F ....|E-4 2F.F ....|A-4 2F.F ....
....|..|E-2 2F.A ....|--- .... ....|--- .... ....
....|..|--- .... ....|--- .... ....|--- .... ....
....|..|--- .... ....|--- .... ....|--- .... ....
....|..|--- .... ....|--- .... ....|--- .... ....
....|..|--- .... ....|--- .... ....|--- .... ....
....|..|--- .... ....|--- .... ....|R-- .... ....
....|..|--- .... ....|--- .... ....|--- .... ....
....|..|C-4 AF.F ....|E-4 2F2F ....|A-4 2F.F ....
....|..|A-1 2F.7 ....|--- .... ....|--- .... ....
....|..|--- .... ....|--- .... ....|--- .... ....
....|..|--- .... ....|--- .... ....|--- .... ....
....|..|--- .... ....|--- .... ....|--- .... ....
....|..|--- .... ....|--- .... ....|--- .... ....
....|..|--- .... ....|--- .... ....|R-- .... ....
....|..|--- .... ....|--- .... ....|--- .... ....
....|..|B-8 JF.F ....|--- .... ....|A-4 2F.F ....
 E-4|..|E-2 2A.F ....|--- .... ....|--- .... ....
....|..|--- .... ....|--- .... ....|--- .... ....
....|..|--- .... ....|--- .... ....|--- .... ....
....|..|B-8 JF.7 ....|--- .... ....|--- .... ....
....|..|--- .... ....|--- .... ....|--- .... ....
....|..|--- .... ....|--- .... ....|R-- .... ....
....|..|--- .... ....|--- .... ....|--- .... ....
....|..|C-4 AF.F ....|E-4 2F.A ....|A-4 2F.F ....
 B-4|..|B-2 2A.F ....|--- .... ....|--- .... ....
....|..|--- .... ....|--- .... ....|--- .... ....
....|..|--- .... ....|--- .... ....|--- .... ....
....|..|--- .... ....|--- .... ....|--- .... ....
....|..|--- .... ....|--- .... ....|--- .... ....
....|..|--- .... ....|--- .... ....|R-- .... ....
....|..|--- .... ....|--- .... ....|--- .... ....
 A-3|..|A-2 2C.F ....|E-4 2F2F ....|A-4 2F.F ....
....|..|--- .... ....|--- .... ....|--- .... ....
....|..|--- .... ....|--- .... ....|--- .... ....
....|..|--- .... ....|--- .... ....|--- .... ....
....|..|--- .... ....|--- .... ....|--- .... ....
....|..|--- .... ....|--- .... ....|--- .... ....
....|..|--- .... ....|--- .... ....|R-- .... ....
....|..|--- .... ....|--- .... ....|--- .... ....
....|..|C-4 AF.F ....|B-3 2F1F ....|G#4 2F.F ....
 G#4|..|G#2 2A.F ....|--- .... ....|--- .... ....
....|..|--- .... ....|--- .... ....|--- .... ....
....|..|--- .... ....|--- .... ....|--- .... ....
....|..|--- .... ....|--- .... ....|--- .... ....
....|..|--- .... ....|--- .... ....|--- .... ....
....|..|--- .... ....|--- .... ....|R-- .... ....
....|..|--- .... ....|--- .... ....|--- .... ....
....|..|B-8 JF.F ....|E-4 2F.7 ....|G#4 2F.F ....
....|..|B-2 2F.A ....|--- .... ....|--- .... ....
....|..|--- .... ....|--- .... ....|--- .... ....
....|..|--- .... ....|--- .... ....|--- .... ....
....|..|--- .... ....|--- .... ....|--- .... ....
....|..|--- .... ....|--- .... ....|--- .... ....
....|..|--- .... ....|--- .... ....|R-- .... ....
....|..|--- .... ....|--- .... ....|--- .... ....
....|..|C-4 AF.F ....|E-4 2F27 ....|G#4 2F.F ....
....|..|--- .... ....|--- .... ....|--- .... ....
....|..|--- .... ....|--- .... ....|--- .... ....
....|..|--- .... ....|--- .... ....|--- .... ....
....|..|--- .... ....|--- .... ....|--- .... ....
....|..|--- .... ....|--- .... ....|--- .... ....
....|..|--- .... ....|--- .... ....|R-- .... ....
....|..|--- .... ....|--- .... ....|--- .... ....
....|..|B-8 JF.F ....|B-3 2F1A ....|G#4 2F.F ....
....|..|E-2 2F.7 ....|--- .... ....|--- .... ....
....|..|--- .... ....|--- .... ....|--- .... ....
....|..|--- .... ....|--- .... ....|--- .... ....
....|..|B-8 JF.F ....|--- .... ....|--- .... ....
....|..|--- .... ....|--- .... ....|--- .... ....
....|..|--- .... ....|--- .... ....|R-- .... ....
....|..|--- .... ....|--- .... ....|--- .... ....
....|..|C-4 AF.F ....|--- .... ....|G#4 2F.F ....
....|..|B-2 2F.7 ....|--- .... ....|--- .... ....
....|..|--- .... ....|--- .... ....|--- .... ....
....|..|--- .... ....|--- .... ....|--- .... ....
....|..|--- .... ....|--- .... ....|--- .... ....
....|..|--- .... ....|--- .... ....|--- .... ....
....|..|--- .... ....|--- .... ....|R-- .... ....
....|..|--- .... ....|--- .... ....|--- .... ....
....|..|B-8 JF.F ....|E-4 2F27 ....|G#4 2F.F ....
....|..|--- .... ....|--- .... ....|--- .... ....
....|..|--- .... ....|--- .... ....|--- .... ....
....|..|--- .... ....|--- .... ....|--- .... ....
....|..|--- .... ....|--- .... ....|--- .... ....
....|..|--- .... ....|--- .... ....|--- .... ....
....|..|--- .... ....|--- .... ....|R-- .... ....
....|..|--- .... ....|--- .... ....|--- .... ....
....|..|C-4 AF.F ....|B-3 2F17 ....|G#4 2F.F ....
 D#4|..|D#2 2A.F ....|--- .... ....|--- .... ....
....|..|--- .... ....|--- .... ....|--- .... ....
....|..|--- .... ....|--- .... ....|--- .... ....
....|..|B-8 JF.A ....|--- .... ....|--- .... ....
....|..|--- .... ....|--- .... ....|--- .... ....
....|..|--- .... ....|--- .... ....|R-- .... ....
....|..|--- .... ....|--- .... ....|--- .... ....
....|..|B-8 JF.F ....|--- .... ....|G#4 2F.F ....
....|..|--- .... ....|--- .... ....|--- .... ....
....|..|--- .... ....|--- .... ....|--- .... ....
....|..|--- .... ....|--- .... ....|--- .... ....
....|..|--- .... ....|--- .... ....|--- .... ....
....|..|--- .... ....|--- .... ....|--- .... ....
....|..|--- .... ....|--- .... ....|R-- .... ....
....|..|--- .... ....|--- .... ....|--- .... ....

[Pattern30]
....|..|C-4 AF.F ....|D#4 2F.F ....|G#4 2F.F ....
 G#3|..|G#1 2A.F ....|--- .... ....|--- .... ....
....|..|--- .... ....|--- .... ....|--- .... ....
....|..|--- .... ....|--- .... ....|--- .... ....
....|..|B-8 JF.F ....|--- .... ....|--- .... ....
....|..|--- .... ....|--- .... ....|--- .... ....
....|..|--- .... ....|--- .... ....|R-- .... ....
....|..|--- .... ....|--- .... ....|--- .... ....
....|..|B-8 JF.F ....|--- .... ....|G#4 2F.F ....
....|..|D#2 2F.A ....|--- .... ....|--- .... ....
....|..|--- .... ....|--- .... ....|--- .... ....
....|..|--- .... ....|--- .... ....|--- .... ....
....|..|B-8 JF.7 ....|--- .... ....|--- .... ....
....|..|--- .... ....|--- .... ....|--- .... ....
....|..|--- .... ....|--- .... ....|R-- .... ....
....|..|--- .... ....|--- .... ....|--- .... ....
....|..|C-4 AF.F ....|--- .... ....|G#4 2F.F ....
....|..|--- .... ....|--- .... ....|--- .... ....
....|..|--- .... ....|--- .... ....|--- .... ....
....|..|--- .... ....|--- .... ....|--- .... ....
....|..|--- .... ....|--- .... ....|--- .... ....
....|..|--- .... ....|--- .... ....|--- .... ....
....|..|--- .... ....|--- .... ....|R-- .... ....
....|..|--- .... ....|--- .... ....|--- .... ....
....|..|C-4 LF.F ....|D#4 2F.A ....|G#4 2F.F ....
....|..|G#1 2F.A ....|--- .... ....|--- .... ....
....|..|--- .... ....|--- .... ....|--- .... ....
....|..|--- .... ....|--- .... ....|--- .... ....
....|..|B-8 JF.A ....|--- .... ....|--- .... ....
....|..|--- .... ....|--- .... ....|--- .... ....
....|..|--- .... ....|--- .... ....|R-- .... ....
....|..|--- .... ....|--- .... ....|--- .... ....
....|..|C-4 AF.F ....|--- .... ....|G#4 2F.F ....
 G#4|..|G#2 2A.F ....|--- .... ....|--- .... ....
....|..|--- .... ....|--- .... ....|--- .... ....
....|..|--- .... ....|--- .... ....|--- .... ....
....|..|--- .... ....|--- .... ....|--- .... ....
....|..|--- .... ....|--- .... ....|--- .... ....
....|..|--- .... ....|--- .... ....|R-- .... ....
....|..|--- .... ....|--- .... ....|--- .... ....
....|..|B-8 JF.7 ....|--- .... ....|G#4 2F.F ....
....|..|--- .... ....|--- .... ....|--- .... ....
....|..|--- .... ....|--- .... ....|--- .... ....
....|..|--- .... ....|--- .... ....|--- .... ....
....|..|--- .... ....|--- .... ....|--- .... ....
....|..|--- .... ....|--- .... ....|--- .... ....
....|..|--- .... ....|--- .... ....|R-- .... ....
....|..|--- .... ....|--- .... ....|--- .... ....
....|..|C-4 AF.F ....|D#4 2F.7 ....|G#4 2F.F ....
 G#3|..|G#1 2A.F ....|--- .... ....|--- .... ....
....|..|--- .... ....|--- .... ....|--- .... ....
....|..|--- .... ....|--- .... ....|--- .... ....
....|..|B-8 JF.7 ....|--- .... ....|--- .... ....
....|..|--- .... ....|--- .... ....|--- .... ....
....|..|--- .... ....|--- .... ....|R-- .... ....
....|..|--- .... ....|--- .... ....|--- .... ....
....|..|B-8 JF.7 ....|--- .... ....|G#4 2F.F ....
....|..|G#2 2F.A ....|--- .... ....|--- .... ....
....|..|--- .... ....|--- .... ....|--- .... ....
....|..|--- .... ....|--- .... ....|--- .... ....
....|..|--- .... ....|--- .... ....|--- .... ....
....|..|--- .... ....|--- .... ....|--- .... ....
....|..|--- .... ....|--- .... ....|R-- .... ....
....|..|--- .... ....|--- .... ....|--- .... ....
....|..|C-4 AF.F ....|C#4 2F4F ....|F#4 2F.F ....
 F#3|..|F#1 2A.F ....|--- .... ....|--- .... ....
....|..|--- .... ....|--- .... ....|--- .... ....
....|..|--- .... ....|--- .... ....|--- .... ....
....|..|--- .... ....|--- .... ....|--- .... ....
....|..|--- .... ....|--- .... ....|--- .... ....
....|..|--- .... ....|--- .... ....|R-- .... ....
....|..|--- .... ....|--- .... ....|--- .... ....
....|..|C-4 LF.7 ....|--- .... ....|F#4 2F.F ....
....|..|G#1 2F.A ....|--- .... ....|--- .... ....
....|..|--- .... ....|--- .... ....|--- .... ....
....|..|--- .... ....|--- .... ....|--- .... ....
....|..|--- .... ....|--- .... ....|--- .... ....
....|..|--- .... ....|--- .... ....|--- .... ....
....|..|--- .... ....|--- .... ....|R-- .... ....
....|..|--- .... ....|--- .... ....|--- .... ....
....|..|C-4 AF.F ....|--- .... ....|F#4 2F.F ....
....|..|G#2 2F.7 ....|--- .... ....|--- .... ....
....|..|--- .... ....|--- .... ....|--- .... ....
....|..|--- .... ....|--- .... ....|--- .... ....
....|..|--- .... ....|--- .... ....|--- .... ....
....|..|--- .... ....|--- .... ....|--- .... ....
....|..|--- .... ....|--- .... ....|R-- .... ....
....|..|--- .... ....|--- .... ....|--- .... ....
....|..|C-4 AF.A ....|C#4 2F4A ....|F#4 2F.F ....
....|..|F#1 2F.A ....|--- .... ....|--- .... ....
....|..|--- .... ....|--- .... ....|--- .... ....
....|..|--- .... ....|--- .... ....|--- .... ....
....|..|--- .... ....|--- .... ....|--- .... ....
....|..|--- .... ....|--- .... ....|--- .... ....
....|..|--- .... ....|--- .... ....|R-- .... ....
....|..|--- .... ....|--- .... ....|--- .... ....
....|..|C-4 AF.F ....|A-4 2F.F ....|F#4 2F.F ....
....|..|G#1 2F.7 ....|--- .... ....|--- .... ....
....|..|--- .... ....|--- .... ....|--- .... ....
....|..|--- .... ....|--- .... ....|--- .... ....
....|..|--- .... ....|--- .... ....|--- .... ....
....|..|--- .... ....|--- .... ....|--- .... ....
....|..|--- .... ....|--- .... ....|R-- .... ....
....|..|--- .... ....|--- .... ....|--- .... ....
....|..|C-4 AF.A ....|--- .... ....|F#4 2F.F ....
....|..|--- .... ....|--- .... ....|--- .... ....
....|..|--- .... ....|--- .... ....|--- .... ....
....|..|--- .... ....|--- .... ....|--- .... ....
....|..|--- .... ....|--- .... ....|--- .... ....
....|..|--- .... ....|--- .... ....|--- .... ....
....|..|--- .... ....|--- .... ....|R-- .... ....
....|..|--- .... ....|--- .... ....|--- .... ....
....|..|C-4 AF.F ....|F#4 2F.F ....|F#4 2F.F ....
....|..|F#1 2F.7 ....|--- .... ....|--- .... ....
....|..|--- .... ....|--- .... ....|--- .... ....
....|..|--- .... ....|--- .... ....|--- .... ....
....|..|--- .... ....|--- .... ....|--- .... ....
....|..|--- .... ....|--- .... ....|--- .... ....
....|..|--- .... ....|--- .... ....|R-- .... ....
....|..|--- .... ....|--- .... ....|--- .... ....
....|..|B-8 JF.F ....|A-4 2F.A ....|F#4 2F.F ....
 F#3|..|F#1 2A.F ....|--- .... ....|--- .... ....
....|..|--- .... ....|--- .... ....|--- .... ....
....|..|--- .... ....|--- .... ....|--- .... ....
....|..|B-8 JF.F ....|--- .... ....|--- .... ....
....|..|--- .... ....|--- .... ....|--- .... ....
....|..|--- .... ....|--- .... ....|R-- .... ....
....|..|--- .... ....|--- .... ....|--- .... ....
....|..|C-4 AF.F ....|B-3 2F1F ....|G#4 2F.F ....
....|..|--- .... ....|--- .... ....|--- .... ....
....|..|--- .... ....|--- .... ....|--- .... ....
....|..|--- .... ....|--- .... ....|--- .... ....
....|..|--- .... ....|--- .... ....|--- .... ....
....|..|--- .... ....|--- .... ....|--- .... ....
....|..|--- .... ....|--- .... ....|R-- .... ....
....|..|--- .... ....|--- .... ....|--- .... ....
....|..|C-4 AF.A ....|F#4 2F.A ....|G#4 2F.F ....
....|..|--- .... ....|--- .... ....|--- .... ....
....|..|--- .... ....|--- .... ....|--- .... ....
....|..|--- .... ....|--- .... ....|--- .... ....
....|..|--- .... ....|--- .... ....|--- .... ....
....|..|--- .... ....|--- .... ....|--- .... ....
....|..|--- .... ....|--- .... ....|R-- .... ....
....|..|--- .... ....|--- .... ....|--- .... ....
....|..|C-4 AF.F ....|A-4 2F.7 ....|G#4 2F.F ....
....|..|F#1 2F.A ....|--- .... ....|--- .... ....
....|..|--- .... ....|--- .... ....|--- .... ....
....|..|--- .... ....|--- .... ....|--- .... ....
....|..|B-8 JF.A ....|--- .... ....|--- .... ....
....|..|--- .... ....|--- .... ....|--- .... ....
....|..|--- .... ....|--- .... ....|R-- .... ....
....|..|--- .... ....|--- .... ....|--- .... ....
....|..|C-4 AF.A ....|B-3 2F1A ....|G#4 2F.F ....
....|..|--- .... ....|--- .... ....|--- .... ....
....|..|--- .... ....|--- .... ....|--- .... ....
....|..|--- .... ....|--- .... ....|--- .... ....
....|..|--- .... ....|--- .... ....|--- .... ....
....|..|--- .... ....|--- .... ....|--- .... ....
....|..|--- .... ....|--- .... ....|R-- .... ....
....|..|--- .... ....|--- .... ....|--- .... ....
....|..|C-4 AF.F ....|B-4 2F.F ....|G#4 2F.F ....
....|..|--- .... ....|--- .... ....|--- .... ....
....|..|--- .... ....|--- .... ....|--- .... ....
....|..|--- .... ....|--- .... ....|--- .... ....
....|..|--- .... ....|--- .... ....|--- .... ....
....|..|--- .... ....|--- .... ....|--- .... ....
....|..|--- .... ....|--- .... ....|R-- .... ....
....|..|--- .... ....|--- .... ....|--- .... ....
....|..|B-8 JF.7 ....|--- .... ....|G#4 2F.F ....
....|..|F#1 2F.7 ....|--- .... ....|--- .... ....
....|..|--- .... ....|--- .... ....|--- .... ....
....|..|--- .... ....|--- .... ....|--- .... ....
....|..|B-8 JF.7 ....|--- .... ....|--- .... ....
....|..|--- .... ....|--- .... ....|--- .... ....
....|..|--- .... ....|--- .... ....|R-- .... ....
....|..|--- .... ....|--- .... ....|--- .... ....
....|..|C-4 AF.F ....|G#4 2F.F ....|G#4 2F.F ....
....|..|--- .... ....|--- .... ....|--- .... ....
....|..|--- .... ....|--- .... ....|--- .... ....
....|..|--- .... ....|--- .... ....|--- .... ....
....|..|--- .... ....|--- .... ....|--- .... ....
....|..|--- .... ....|--- .... ....|--- .... ....
....|..|--- .... ....|--- .... ....|R-- .... ....
....|..|--- .... ....|--- .... ....|--- .... ....
 G#3|..|G#1 2A.F ....|B-4 2F.A ....|G#4 2F.F ....
....|..|--- .... ....|--- .... ....|--- .... ....
....|..|--- .... ....|--- .... ....|--- .... ....
....|..|--- .... ....|--- .... ....|--- .... ....
....|..|--- .... ....|--- .... ....|--- .... ....
....|..|--- .... ....|--- .... ....|--- .... ....
....|..|--- .... ....|--- .... ....|R-- .... ....
....|..|--- .... ....|--- .... ....|--- .... ....
....|..|C-4 AF.F ....|C#4 2F3F ....|G#4 2F.F ....
....|..|--- .... ....|--- .... ....|--- .... ....
....|..|--- .... ....|--- .... ....|--- .... ....
....|..|--- .... ....|--- .... ....|--- .... ....
....|..|B-8 JF.F ....|--- .... ....|--- .... ....
....|..|--- .... ....|--- .... ....|--- .... ....
....|..|--- .... ....|--- .... ....|R-- .... ....
....|..|--- .... ....|--- .... ....|--- .... ....
....|..|B-8 JF.F ....|G#4 2F.A ....|G#4 2F.F ....
....|..|--- .... ....|--- .... ....|--- .... ....
....|..|--- .... ....|--- .... ....|--- .... ....
....|..|--- .... ....|--- .... ....|--- .... ....
....|..|--- .... ....|--- .... ....|--- .... ....
....|..|--- .... ....|--- .... ....|--- .... ....
....|..|--- .... ....|--- .... ....|R-- .... ....
....|..|--- .... ....|--- .... ....|--- .... ....
....|..|C-4 AF.F ....|B-4 2F.7 ....|G#4 2F.F ....
....|..|--- .... ....|--- .... ....|--- .... ....
....|..|--- .... ....|--- .... ....|--- .... ....
....|..|--- .... ....|--- .... ....|--- .... ....
....|..|--- .... ....|--- .... ....|--- .... ....
....|..|--- .... ....|--- .... ....|--- .... ....
....|..|--- .... ....|--- .... ....|R-- .... ....
....|..|--- .... ....|--- .... ....|--- .... ....
....|..|B-8 JF.F ....|C#4 2F3A ....|G#4 2F.F ....
....|..|--- .... ....|--- .... ....|--- .... ....
....|..|--- .... ....|--- .... ....|--- .... ....
....|..|--- .... ....|--- .... ....|--- .... ....
....|..|B-8 JF.A ....|--- .... ....|--- .... ....
....|..|--- .... ....|--- .... ....|--- .... ....
....|..|--- .... ....|--- .... ....|R-- .... ....
....|..|--- .... ....|--- .... ....|--- .... ....
....|..|C-4 AF.F ....|E-4 2F1F ....|G#4 2F.F ....
....|..|--- .... ....|--- .... ....|--- .... ....
....|..|--- .... ....|--- .... ....|--- .... ....
....|..|--- .... ....|--- .... ....|--- .... ....
....|..|--- .... ....|--- .... ....|--- .... ....
....|..|--- .... ....|--- .... ....|--- .... ....
....|..|--- .... ....|--- .... ....|R-- .... ....
....|..|--- .... ....|--- .... ....|--- .... ....
....|..|B-8 JF.F ....|--- .... ....|G#4 2F.F ....
....|..|--- .... ....|--- .... ....|--- .... ....
....|..|--- .... ....|--- .... ....|--- .... ....
....|..|--- .... ....|--- .... ....|--- .... ....
....|..|--- .... ....|--- .... ....|--- .... ....
....|..|--- .... ....|--- .... ....|--- .... ....
....|..|--- .... ....|--- .... ....|R-- .... ....
....|..|--- .... ....|--- .... ....|--- .... ....
....|..|C-4 AF.F ....|C#4 2F37 ....|G#4 2F.F ....
 C#4|..|C#2 2A.F ....|--- .... ....|--- .... ....
....|..|--- .... ....|--- .... ....|--- .... ....
....|..|--- .... ....|--- .... ....|--- .... ....
....|..|B-8 JF.7 ....|--- .... ....|--- .... ....
....|..|--- .... ....|--- .... ....|--- .... ....
....|..|--- .... ....|--- .... ....|R-- .... ....
....|..|--- .... ....|--- .... ....|--- .... ....
....|..|B-8 JF.F ....|E-4 2F1A ....|G#4 2F.F ....
....|..|--- .... ....|--- .... ....|--- .... ....
....|..|--- .... ....|--- .... ....|--- .... ....
....|..|--- .... ....|--- .... ....|--- .... ....
....|..|--- .... ....|--- .... ....|--- .... ....
....|..|--- .... ....|--- .... ....|--- .... ....
....|..|--- .... ....|--- .... ....|R-- .... ....
....|..|--- .... ....|--- .... ....|--- .... ....

[Pattern31]
....|..|C-4 AF.F ....|F#3 2FAF ....|E-5 2F.F ....
 B-3|..|B-1 2A.F ....|--- .... ....|--- .... ....
....|..|--- .... ....|--- .... ....|--- .... ....
....|..|--- .... ....|--- .... ....|--- .... ....
....|..|--- .... ....|--- .... ....|D#5 2F.F ....
....|..|--- .... ....|--- .... ....|--- .... ....
....|..|--- .... ....|--- .... ....|R-- .... ....
....|..|--- .... ....|--- .... ....|--- .... ....
....|..|B-8 JF.7 ....|--- .... ....|E-5 2F.F ....
....|..|C#2 2F.A ....|--- .... ....|--- .... ....
....|..|--- .... ....|--- .... ....|--- .... ....
....|..|--- .... ....|--- .... ....|--- .... ....
....|..|--- .... ....|--- .... ....|D#5 2F.F ....
....|..|--- .... ....|--- .... ....|--- .... ....
....|..|--- .... ....|--- .... ....|R-- .... ....
....|..|--- .... ....|--- .... ....|--- .... ....
....|..|C-4 AF.F ....|E-4 2F17 ....|E-5 2F.F ....
 B-4|..|B-2 2A.F ....|--- .... ....|--- .... ....
....|..|--- .... ....|--- .... ....|--- .... ....
....|..|--- .... ....|--- .... ....|--- .... ....
....|..|C-3 RF.F ....|--- .... ....|D#5 2F.F ....
....|..|--- .... ....|--- .... ....|--- .... ....
....|..|--- .... ....|--- .... ....|R-- .... ....
....|..|--- .... ....|--- .... ....|--- .... ....
....|..|C-4 LF.F ....|F#3 2FAA ....|E-5 2F.F ....
....|..|B-1 2F.A ....|--- .... ....|--- .... ....
....|..|--- .... ....|--- .... ....|--- .... ....
....|..|--- .... ....|--- .... ....|--- .... ....
....|..|--- .... ....|--- .... ....|D#5 2F.F ....
....|..|--- .... ....|--- .... ....|--- .... ....
....|..|--- .... ....|--- .... ....|R-- .... ....
....|..|--- .... ....|--- .... ....|--- .... ....
....|..|C-4 AF.F ....|F#4 2FAF ....|E-5 2F.F ....
 B-3|..|B-1 2A.F ....|--- .... ....|--- .... ....
....|..|--- .... ....|--- .... ....|--- .... ....
....|..|--- .... ....|--- .... ....|--- .... ....
....|..|--- .... ....|--- .... ....|D#5 2F.F ....
....|..|--- .... ....|--- .... ....|--- .... ....
....|..|--- .... ....|--- .... ....|R-- .... ....
....|..|--- .... ....|--- .... ....|--- .... ....
....|..|C-3 RF.F ....|--- .... ....|E-5 2F.F ....
....|..|B-2 2F.A ....|--- .... ....|--- .... ....
....|..|--- .... ....|--- .... ....|--- .... ....
....|..|--- .... ....|--- .... ....|--- .... ....
....|..|C-3 RF.F ....|--- .... ....|D#5 2F.F ....
....|..|--- .... ....|--- .... ....|--- .... ....
....|..|--- .... ....|--- .... ....|R-- .... ....
....|..|--- .... ....|--- .... ....|--- .... ....
....|..|C-4 AF.F ....|F#3 2FA7 ....|C#5 2F.F ....
 A-3|..|A-1 2A.F ....|--- .... ....|--- .... ....
....|..|--- .... ....|--- .... ....|--- .... ....
....|..|--- .... ....|--- .... ....|--- .... ....
....|..|--- .... ....|--- .... ....|D#5 2F.7 ....
....|..|--- .... ....|--- .... ....|--- .... ....
....|..|--- .... ....|--- .... ....|--- .... ....
....|..|--- .... ....|--- .... ....|--- .... ....
 G-3|..|G-1 2A.F ....|F#4 2FAA ....|G#4 2F.F ....
....|..|B-1 2F.A ....|--- .... ....|--- .... ....
....|..|--- .... ....|--- .... ....|--- .... ....
....|..|--- .... ....|--- .... ....|--- .... ....
....|..|--- .... ....|--- .... ....|D#5 2F.7 ....
....|..|--- .... ....|--- .... ....|--- .... ....
....|..|--- .... ....|--- .... ....|--- .... ....
....|..|--- .... ....|--- .... ....|--- .... ....
....|..|C-4 AF.F ....|E-3 2FAF ....|E-5 2F.7 ....
....|..|B-2 2F.7 ....|--- .... ....|--- .... ....
....|..|--- .... ....|--- .... ....|--- .... ....
....|..|--- .... ....|--- .... ....|--- .... ....
....|..|C-3 RF.7 ....|--- .... ....|D#5 2F.7 ....
....|..|--- .... ....|--- .... ....|--- .... ....
....|..|--- .... ....|--- .... ....|--- .... ....
....|..|--- .... ....|--- .... ....|--- .... ....
....|..|B-8 JF.F ....|--- .... ....|E-5 2F.7 ....
....|..|A-1 2F.A ....|--- .... ....|--- .... ....
....|..|--- .... ....|--- .... ....|--- .... ....
....|..|--- .... ....|--- .... ....|--- .... ....
....|..|--- .... ....|--- .... ....|D#5 2F.7 ....
....|..|--- .... ....|--- .... ....|--- .... ....
....|..|--- .... ....|--- .... ....|--- .... ....
....|..|--- .... ....|--- .... ....|--- .... ....
....|..|C-4 AF.F ....|F#4 2FA7 ....|E-5 2F.7 ....
....|..|B-1 2F.7 ....|--- .... ....|--- .... ....
....|..|--- .... ....|--- .... ....|--- .... ....
....|..|--- .... ....|--- .... ....|--- .... ....
....|..|--- .... ....|--- .... ....|D#5 2F.7 ....
....|..|--- .... ....|--- .... ....|--- .... ....
....|..|--- .... ....|--- .... ....|--- .... ....
....|..|--- .... ....|--- .... ....|--- .... ....
....|..|B-8 JF.F ....|E-3 2FAA ....|E-5 2F.7 ....
....|..|--- .... ....|--- .... ....|--- .... ....
....|..|--- .... ....|--- .... ....|--- .... ....
....|..|--- .... ....|--- .... ....|--- .... ....
....|..|C-3 RF.7 ....|--- .... ....|D#5 2F.7 ....
....|..|--- .... ....|--- .... ....|--- .... ....
....|..|--- .... ....|--- .... ....|--- .... ....
....|..|--- .... ....|--- .... ....|--- .... ....
....|..|C-4 AF.F ....|E-4 2FAF ....|C#5 2F.7 ....
....|..|A-1 2F.7 ....|--- .... ....|--- .... ....
....|..|--- .... ....|--- .... ....|--- .... ....
....|..|--- .... ....|--- .... ....|--- .... ....
....|..|--- .... ....|--- .... ....|--- .... ....
....|..|--- .... ....|--- .... ....|--- .... ....
....|..|--- .... ....|--- .... ....|--- .... ....
....|..|--- .... ....|--- .... ....|--- .... ....
....|..|B-8 JF.F ....|--- .... ....|G#4 2F.7 ....
....|..|--- .... ....|--- .... ....|--- .... ....
....|..|--- .... ....|--- .... ....|--- .... ....
....|..|--- .... ....|--- .... ....|--- .... ....
....|..|--- .... ....|--- .... ....|--- .... ....
....|..|--- .... ....|--- .... ....|--- .... ....
....|..|--- .... ....|--- .... ....|--- .... ....
....|..|--- .... ....|--- .... ....|--- .... ....
....|..|C-4 AF.F ....|E-3 2FA7 ....|--- .... ....
....|..|--- .... ....|--- .... ....|--- .... ....
....|..|--- .... ....|--- .... ....|--- .... ....
....|..|--- .... ....|--- .... ....|--- .... ....
....|..|--- .... ....|--- .... ....|--- .... ....
....|..|--- .... ....|--- .... ....|--- .... ....
....|..|--- .... ....|--- .... ....|--- .... ....
....|..|--- .... ....|--- .... ....|--- .... ....
....|..|B-8 JF.F ....|E-4 2FAA ....|--- .... ....
 B-4|..|B-2 2A.F ....|--- .... ....|--- .... ....
....|..|--- .... ....|--- .... ....|--- .... ....
....|..|--- .... ....|--- .... ....|--- .... ....
....|..|B-8 JF.F ....|--- .... ....|--- .... ....
....|..|--- .... ....|--- .... ....|--- .... ....
....|..|--- .... ....|--- .... ....|--- .... ....
....|..|--- .... ....|--- .... ....|--- .... ....
....|..|C-4 AF.F ....|E-4 2F2F ....|G#4 2F.F ....
 C#4|..|C#3 2C.F ....|--- .... ....|--- .... ....
....|..|--- .... ....|--- .... ....|--- .... ....
....|..|--- .... ....|--- .... ....|--- .... ....
....|..|--- .... ....|--- .... ....|A-4 2F.F ....
....|..|--- .... ....|--- .... ....|--- .... ....
....|..|--- .... ....|--- .... ....|--- .... ....
....|..|--- .... ....|--- .... ....|--- .... ....
....|..|B-8 JF.F ....|--- .... ....|G#4 2F.F ....
....|..|--- .... ....|--- .... ....|--- .... ....
....|..|--- .... ....|--- .... ....|--- .... ....
....|..|--- .... ....|--- .... ....|--- .... ....
....|..|--- .... ....|--- .... ....|F#4 2F.F ....
....|..|--- .... ....|--- .... ....|--- .... ....
....|..|--- .... ....|--- .... ....|--- .... ....
....|..|--- .... ....|--- .... ....|--- .... ....
....|..|C-4 AF.F ....|E-4 2FA7 ....|G#4 2F.F ....
....|..|B-2 2F.A ....|--- .... ....|--- .... ....
....|..|--- .... ....|--- .... ....|--- .... ....
....|..|--- .... ....|--- .... ....|--- .... ....
....|..|B-8 JF.A ....|--- .... ....|--- .... ....
....|..|--- .... ....|--- .... ....|--- .... ....
....|..|--- .... ....|--- .... ....|--- .... ....
....|..|--- .... ....|--- .... ....|--- .... ....
....|..|B-8 JF.F ....|E-4 2F2A ....|C#5 2F.F ....
....|..|C#3 2F.A ....|--- .... ....|--- .... ....
....|..|--- .... ....|--- .... ....|--- .... ....
....|..|--- .... ....|--- .... ....|--- .... ....
....|..|--- .... ....|--- .... ....|A-4 2F.A ....
....|..|--- .... ....|--- .... ....|--- .... ....
....|..|--- .... ....|--- .... ....|--- .... ....
....|..|--- .... ....|--- .... ....|--- .... ....
....|..|C-4 AF.F ....|--- .... ....|G#4 2F.A ....
....|..|--- .... ....|--- .... ....|--- .... ....
....|..|--- .... ....|--- .... ....|--- .... ....
....|..|--- .... ....|--- .... ....|--- .... ....
....|..|--- .... ....|--- .... ....|F#4 2F.A ....
....|..|--- .... ....|--- .... ....|--- .... ....
....|..|--- .... ....|--- .... ....|--- .... ....
....|..|--- .... ....|--- .... ....|--- .... ....
....|..|B-8 JF.F ....|--- .... ....|G#4 2F.A ....
....|..|B-2 2F.7 ....|--- .... ....|--- .... ....
....|..|--- .... ....|--- .... ....|--- .... ....
....|..|--- .... ....|--- .... ....|--- .... ....
....|..|B-8 JF.7 ....|--- .... ....|--- .... ....
....|..|--- .... ....|--- .... ....|--- .... ....
....|..|--- .... ....|--- .... ....|--- .... ....
....|..|--- .... ....|--- .... ....|--- .... ....
....|..|C-4 AF.F ....|E-4 2F27 ....|G#4 2F.7 ....
....|..|C#3 2F.7 ....|--- .... ....|--- .... ....
....|..|--- .... ....|--- .... ....|--- .... ....
....|..|--- .... ....|--- .... ....|--- .... ....
....|..|--- .... ....|--- .... ....|A-4 2F.7 ....
....|..|--- .... ....|--- .... ....|--- .... ....
....|..|--- .... ....|--- .... ....|--- .... ....
....|..|--- .... ....|--- .... ....|--- .... ....
....|..|B-8 JF.F ....|--- .... ....|G#4 2F.7 ....
....|..|--- .... ....|--- .... ....|--- .... ....
....|..|--- .... ....|--- .... ....|--- .... ....
....|..|--- .... ....|--- .... ....|--- .... ....
....|..|--- .... ....|--- .... ....|F#4 2F.7 ....
....|..|--- .... ....|--- .... ....|--- .... ....
....|..|--- .... ....|--- .... ....|--- .... ....
....|..|--- .... ....|--- .... ....|--- .... ....
....|..|C-4 AF.F ....|D#4 2FAF ....|D#5 2F.F ....
 G#3|..|G#1 2A.F ....|--- .... ....|--- .... ....
....|..|--- .... ....|--- .... ....|--- .... ....
....|..|--- .... ....|--- .... ....|--- .... ....
....|..|--- .... ....|--- .... ....|--- .... ....
....|..|--- .... ....|--- .... ....|--- .... ....
....|..|--- .... ....|--- .... ....|--- .... ....
....|..|--- .... ....|--- .... ....|--- .... ....
....|..|B-8 JF.F ....|--- .... ....|C#5 2F.7 ....
....|..|--- .... ....|--- .... ....|--- .... ....
....|..|--- .... ....|--- .... ....|--- .... ....
....|..|--- .... ....|--- .... ....|--- .... ....
....|..|--- .... ....|--- .... ....|--- .... ....
....|..|--- .... ....|--- .... ....|--- .... ....
....|..|--- .... ....|--- .... ....|--- .... ....
....|..|--- .... ....|--- .... ....|--- .... ....
....|..|C-4 AF.F ....|--- .... ....|--- .... ....
....|..|--- .... ....|--- .... ....|--- .... ....
....|..|--- .... ....|--- .... ....|--- .... ....
....|..|--- .... ....|--- .... ....|--- .... ....
....|..|--- .... ....|--- .... ....|--- .... ....
....|..|--- .... ....|--- .... ....|--- .... ....
....|..|--- .... ....|--- .... ....|--- .... ....
....|..|--- .... ....|--- .... ....|--- .... ....
....|..|B-8 JF.F ....|D#4 2FAA ....|D#5 2F.A ....
....|..|G#1 2F.A ....|--- .... ....|--- .... ....
....|..|--- .... ....|--- .... ....|--- .... ....
....|..|--- .... ....|--- .... ....|--- .... ....
....|..|--- .... ....|--- .... ....|--- .... ....
....|..|--- .... ....|--- .... ....|--- .... ....
....|..|--- .... ....|--- .... ....|--- .... ....
....|..|--- .... ....|--- .... ....|--- .... ....
....|..|C-4 AF.F ....|D#4 2F4F ....|--- .... ....
....|..|--- .... ....|--- .... ....|--- .... ....
....|..|--- .... ....|--- .... ....|--- .... ....
....|..|--- .... ....|--- .... ....|--- .... ....
....|..|--- .... ....|--- .... ....|--- .... ....
....|..|--- .... ....|--- .... ....|--- .... ....
....|..|--- .... ....|--- .... ....|--- .... ....
....|..|--- .... ....|--- .... ....|--- .... ....
....|..|B-8 JF.F ....|--- .... ....|--- .... ....
....|..|--- .... ....|--- .... ....|--- .... ....
....|..|--- .... ....|--- .... ....|--- .... ....
....|..|--- .... ....|--- .... ....|--- .... ....
....|..|--- .... ....|--- .... ....|--- .... ....
....|..|--- .... ....|--- .... ....|--- .... ....
....|..|--- .... ....|--- .... ....|--- .... ....
....|..|--- .... ....|--- .... ....|--- .... ....
....|..|C-4 AF.F ....|D#4 2FA7 ....|D#5 2F.7 ....
....|..|G#1 2F.7 ....|--- .... ....|--- .... ....
....|..|--- .... ....|--- .... ....|--- .... ....
....|..|--- .... ....|--- .... ....|--- .... ....
....|..|--- .... ....|--- .... ....|--- .... ....
....|..|--- .... ....|--- .... ....|--- .... ....
....|..|--- .... ....|--- .... ....|--- .... ....
....|..|--- .... ....|--- .... ....|--- .... ....
....|..|B-8 JF.F ....|D#4 2F4A ....|--- .... ....
....|..|--- .... ....|--- .... ....|--- .... ....
....|..|--- .... ....|--- .... ....|--- .... ....
....|..|--- .... ....|--- .... ....|--- .... ....
....|..|--- .... ....|--- .... ....|--- .... ....
....|..|--- .... ....|--- .... ....|--- .... ....
....|..|--- .... ....|--- .... ....|--- .... ....
....|..|--- .... ....|--- .... ....|--- .... ....

[Pattern32]
....|..|C-4 AF.F ....|G#4 2F.F ....|D#5 2F.F ....
 G#3|..|G#1 2A.F ....|--- .... ....|--- .... ....
....|..|--- .... ....|--- .... ....|--- .... ....
....|..|--- .... ....|--- .... ....|--- .... ....
....|..|--- .... ....|--- .... ....|F#5 2F.F ....
....|..|--- .... ....|--- .... ....|--- .... ....
....|..|--- .... ....|--- .... ....|--- .... ....
....|..|--- .... ....|--- .... ....|--- .... ....
....|..|B-8 JF.F ....|--- .... ....|E-5 2F.F ....
....|..|--- .... ....|--- .... ....|--- .... ....
....|..|--- .... ....|--- .... ....|--- .... ....
....|..|--- .... ....|--- .... ....|--- .... ....
....|..|--- .... ....|--- .... ....|D#5 2F.F ....
....|..|--- .... ....|--- .... ....|--- .... ....
....|..|--- .... ....|--- .... ....|--- .... ....
....|..|--- .... ....|--- .... ....|--- .... ....
....|..|C-4 AF.F ....|D#4 2F47 ....|C#5 2F.F ....
....|..|--- .... ....|--- .... ....|--- .... ....
....|..|--- .... ....|--- .... ....|--- .... ....
....|..|--- .... ....|--- .... ....|--- .... ....
....|..|--- .... ....|--- .... ....|B-4 2F.F ....
....|..|--- .... ....|--- .... ....|--- .... ....
....|..|--- .... ....|--- .... ....|--- .... ....
....|..|--- .... ....|--- .... ....|--- .... ....
....|..|B-8 JF.F ....|G#4 2F.A ....|A-4 2F.F ....
....|..|G#1 2F.A ....|--- .... ....|--- .... ....
....|..|--- .... ....|--- .... ....|--- .... ....
....|..|--- .... ....|--- .... ....|--- .... ....
....|..|B-8 JF.F ....|--- .... ....|G#4 2F.F ....
....|..|--- .... ....|--- .... ....|--- .... ....
....|..|--- .... ....|--- .... ....|--- .... ....
....|..|--- .... ....|--- .... ....|--- .... ....
....|..|C-4 AF.F ....|D#4 2FAF ....|F#4 2F.F ....
 C#4|..|C#2 2A.F ....|--- .... ....|--- .... ....
....|..|--- .... ....|--- .... ....|--- .... ....
....|..|--- .... ....|--- .... ....|--- .... ....
....|..|--- .... ....|--- .... ....|D#5 2F.A ....
....|..|--- .... ....|--- .... ....|--- .... ....
....|..|--- .... ....|--- .... ....|--- .... ....
....|..|--- .... ....|--- .... ....|--- .... ....
....|..|B-8 JF.7 ....|--- .... ....|C#5 2F.A ....
....|..|--- .... ....|--- .... ....|--- .... ....
....|..|--- .... ....|--- .... ....|--- .... ....
....|..|--- .... ....|--- .... ....|--- .... ....
....|..|--- .... ....|--- .... ....|B-4 2F.A ....
....|..|--- .... ....|--- .... ....|--- .... ....
....|..|--- .... ....|--- .... ....|--- .... ....
....|..|--- .... ....|--- .... ....|--- .... ....
....|..|C-4 AF.F ....|G#4 2F.7 ....|D#5 2F.7 ....
 G#4|..|G#2 2A.F ....|--- .... ....|--- .... ....
....|..|--- .... ....|--- .... ....|--- .... ....
....|..|--- .... ....|--- .... ....|--- .... ....
....|..|B-8 JF.A ....|--- .... ....|F#5 2F.7 ....
....|..|--- .... ....|--- .... ....|--- .... ....
....|..|--- .... ....|--- .... ....|--- .... ....
....|..|--- .... ....|--- .... ....|--- .... ....
 E-4|..|E-2 2A.F ....|D#4 2FAA ....|F#4 2F.F ....
....|..|C#2 2F.A ....|--- .... ....|--- .... ....
....|..|--- .... ....|--- .... ....|--- .... ....
....|..|--- .... ....|--- .... ....|--- .... ....
....|..|--- .... ....|--- .... ....|D#5 2F.7 ....
....|..|--- .... ....|--- .... ....|F#4 2F.F ....
....|..|--- .... ....|--- .... ....|--- .... ....
....|..|--- .... ....|--- .... ....|--- .... ....
....|..|C-4 AF.F ....|A-3 2F1F ....|F#4 2F.F ....
 F#4|..|F#2 2A.F ....|--- .... ....|--- .... ....
....|..|--- .... ....|--- .... ....|--- .... ....
....|..|--- .... ....|--- .... ....|--- .... ....
....|..|--- .... ....|--- .... ....|B-4 2F.7 ....
....|..|--- .... ....|--- .... ....|--- .... ....
....|..|--- .... ....|--- .... ....|--- .... ....
....|..|--- .... ....|--- .... ....|--- .... ....
....|..|B-8 JF.7 ....|--- .... ....|A-4 2F.7 ....
....|..|G#2 2F.A ....|--- .... ....|--- .... ....
....|..|--- .... ....|--- .... ....|--- .... ....
....|..|--- .... ....|--- .... ....|--- .... ....
....|..|B-8 JF.7 ....|--- .... ....|G#4 2F.7 ....
....|..|--- .... ....|--- .... ....|--- .... ....
....|..|--- .... ....|--- .... ....|--- .... ....
....|..|--- .... ....|--- .... ....|--- .... ....
....|..|C-4 AF.F ....|D#4 2FA7 ....|F#4 2F.F ....
....|..|C#2 2F.7 ....|--- .... ....|--- .... ....
....|..|--- .... ....|--- .... ....|--- .... ....
....|..|--- .... ....|--- .... ....|--- .... ....
....|..|--- .... ....|--- .... ....|--- .... ....
....|..|--- .... ....|--- .... ....|F#4 2F.A ....
....|..|--- .... ....|--- .... ....|--- .... ....
....|..|--- .... ....|--- .... ....|--- .... ....
 C#4|..|C#2 2A.F ....|A-3 2F1A ....|G#4 2F.F ....
....|..|F#2 2F.A ....|--- .... ....|--- .... ....
....|..|--- .... ....|--- .... ....|--- .... ....
....|..|--- .... ....|--- .... ....|--- .... ....
....|..|--- .... ....|--- .... ....|--- .... ....
....|..|--- .... ....|--- .... ....|--- .... ....
....|..|--- .... ....|--- .... ....|--- .... ....
....|..|--- .... ....|--- .... ....|--- .... ....
....|..|C-4 AF.F ....|A-3 2F1F ....|--- .... ....
....|..|G#2 2F.7 ....|--- .... ....|--- .... ....
....|..|--- .... ....|--- .... ....|--- .... ....
....|..|--- .... ....|--- .... ....|--- .... ....
....|..|--- .... ....|--- .... ....|--- .... ....
....|..|--- .... ....|--- .... ....|--- .... ....
....|..|--- .... ....|--- .... ....|--- .... ....
....|..|--- .... ....|--- .... ....|--- .... ....
....|..|E-2 2F.7 ....|--- .... ....|A-4 2F.F ....
....|..|--- .... ....|--- .... ....|--- .... ....
....|..|--- .... ....|--- .... ....|--- .... ....
....|..|--- .... ....|--- .... ....|--- .... ....
....|..|--- .... ....|--- .... ....|--- .... ....
....|..|--- .... ....|--- .... ....|F#4 2F.7 ....
....|..|--- .... ....|--- .... ....|--- .... ....
....|..|--- .... ....|--- .... ....|--- .... ....
....|..|C-4 AF.F ....|A-3 2F17 ....|B-4 2F.F ....
 A-3|..|A-1 2A.F ....|--- .... ....|--- .... ....
....|..|--- .... ....|--- .... ....|--- .... ....
....|..|--- .... ....|--- .... ....|--- .... ....
....|..|--- .... ....|--- .... ....|--- .... ....
....|..|--- .... ....|--- .... ....|--- .... ....
....|..|--- .... ....|--- .... ....|--- .... ....
....|..|--- .... ....|--- .... ....|--- .... ....
....|..|C-4 AF.A ....|A-3 2F1A ....|C#5 2F.F ....
....|..|--- .... ....|--- .... ....|--- .... ....
....|..|--- .... ....|--- .... ....|--- .... ....
....|..|--- .... ....|--- .... ....|--- .... ....
 B-3|..|B-1 2A.F ....|--- .... ....|--- .... ....
....|..|--- .... ....|--- .... ....|--- .... ....
....|..|--- .... ....|--- .... ....|--- .... ....
....|..|--- .... ....|--- .... ....|--- .... ....
....|..|C-4 AF.F ....|E-3 2FAF ....|C#5 2F.F ....
 B-3|..|B-1 2A.F ....|--- .... ....|--- .... ....
....|..|--- .... ....|--- .... ....|--- .... ....
....|..|--- .... ....|--- .... ....|--- .... ....
....|..|--- .... ....|--- .... ....|--- .... ....
....|..|--- .... ....|--- .... ....|--- .... ....
....|..|--- .... ....|--- .... ....|--- .... ....
....|..|--- .... ....|--- .... ....|--- .... ....
....|..|C#2 2F.7 ....|--- .... ....|G#4 2F.7 ....
....|..|A-1 2F.A ....|--- .... ....|--- .... ....
....|..|--- .... ....|--- .... ....|--- .... ....
....|..|--- .... ....|--- .... ....|--- .... ....
....|..|--- .... ....|--- .... ....|--- .... ....
....|..|--- .... ....|--- .... ....|--- .... ....
....|..|--- .... ....|--- .... ....|--- .... ....
....|..|--- .... ....|--- .... ....|--- .... ....
....|..|C-4 AF.F ....|A-3 2F17 ....|E-5 2F.F ....
....|..|--- .... ....|--- .... ....|--- .... ....
....|..|--- .... ....|--- .... ....|--- .... ....
....|..|--- .... ....|--- .... ....|--- .... ....
....|..|B-1 2F.A ....|--- .... ....|--- .... ....
....|..|--- .... ....|--- .... ....|--- .... ....
....|..|--- .... ....|--- .... ....|--- .... ....
....|..|--- .... ....|--- .... ....|--- .... ....
....|..|C-4 AF.A ....|E-3 2FAA ....|A-4 2F.7 ....
....|..|B-1 2F.A ....|--- .... ....|--- .... ....
....|..|--- .... ....|--- .... ....|--- .... ....
....|..|--- .... ....|--- .... ....|--- .... ....
....|..|--- .... ....|--- .... ....|--- .... ....
....|..|--- .... ....|--- .... ....|--- .... ....
....|..|--- .... ....|--- .... ....|--- .... ....
....|..|--- .... ....|--- .... ....|--- .... ....
....|..|C-4 AF.F ....|E-3 2FAF ....|E-5 2F.F ....
 C#4|..|C#3 2C.F ....|--- .... ....|--- .... ....
....|..|--- .... ....|--- .... ....|--- .... ....
....|..|--- .... ....|--- .... ....|--- .... ....
....|..|--- .... ....|--- .... ....|--- .... ....
....|..|--- .... ....|--- .... ....|--- .... ....
....|..|--- .... ....|--- .... ....|--- .... ....
....|..|--- .... ....|--- .... ....|--- .... ....
....|..|C-4 AF.A ....|--- .... ....|C#5 2F.7 ....
....|..|--- .... ....|--- .... ....|--- .... ....
....|..|--- .... ....|--- .... ....|--- .... ....
....|..|--- .... ....|--- .... ....|--- .... ....
....|..|B-1 2F.7 ....|--- .... ....|--- .... ....
....|..|--- .... ....|--- .... ....|--- .... ....
....|..|--- .... ....|--- .... ....|--- .... ....
....|..|--- .... ....|--- .... ....|--- .... ....
....|..|C-4 AF.F ....|E-3 2FA7 ....|E-5 2F.F ....
 B-3|..|B-1 2A.F ....|--- .... ....|--- .... ....
....|..|--- .... ....|--- .... ....|--- .... ....
....|..|--- .... ....|--- .... ....|--- .... ....
....|..|--- .... ....|--- .... ....|--- .... ....
....|..|--- .... ....|--- .... ....|--- .... ....
....|..|--- .... ....|--- .... ....|--- .... ....
....|..|--- .... ....|--- .... ....|--- .... ....
....|..|C-4 AF.A ....|E-3 2FAA ....|E-5 2F.A ....
....|..|C#3 2F.A ....|--- .... ....|--- .... ....
....|..|--- .... ....|--- .... ....|--- .... ....
....|..|--- .... ....|--- .... ....|--- .... ....
....|..|--- .... ....|--- .... ....|--- .... ....
....|..|--- .... ....|--- .... ....|--- .... ....
....|..|--- .... ....|--- .... ....|--- .... ....
....|..|--- .... ....|--- .... ....|--- .... ....
....|..|C-4 AF.F ....|D#3 2FAF ....|D#5 2F.F ....
 G#3|..|G#1 2A.F ....|--- .... ....|--- .... ....
....|..|--- .... ....|--- .... ....|--- .... ....
....|..|--- .... ....|--- .... ....|--- .... ....
....|..|--- .... ....|--- .... ....|--- .... ....
....|..|--- .... ....|--- .... ....|--- .... ....
....|..|--- .... ....|--- .... ....|--- .... ....
....|..|--- .... ....|--- .... ....|--- .... ....
....|..|C-4 AF.F ....|D#3 2FAF ....|E-5 2F.A ....
 G#3|..|G#1 2A.F ....|--- .... ....|--- .... ....
....|..|--- .... ....|--- .... ....|--- .... ....
....|..|--- .... ....|--- .... ....|--- .... ....
....|..|--- .... ....|--- .... ....|--- .... ....
....|..|--- .... ....|--- .... ....|--- .... ....
....|..|--- .... ....|--- .... ....|--- .... ....
....|..|--- .... ....|--- .... ....|--- .... ....
....|..|C-4 AF.F ....|D#3 2FAF ....|E-5 2F.7 ....
 G#3|..|G#1 2A.F ....|--- .... ....|--- .... ....
....|..|--- .... ....|--- .... ....|--- .... ....
....|..|--- .... ....|--- .... ....|--- .... ....
....|..|--- .... ....|--- .... ....|--- .... ....
....|..|--- .... ....|--- .... ....|--- .... ....
....|..|--- .... ....|--- .... ....|--- .... ....
....|..|--- .... ....|--- .... ....|--- .... ....
....|..|C-4 AF.F ....|D#3 2FAF ....|D#5 2F.A ....
 G#3|..|G#1 2A.F ....|--- .... ....|--- .... ....
....|..|--- .... ....|--- .... ....|--- .... ....
....|..|--- .... ....|--- .... ....|--- .... ....
....|..|--- .... ....|--- .... ....|--- .... ....
....|..|--- .... ....|--- .... ....|--- .... ....
....|..|--- .... ....|--- .... ....|--- .... ....
....|..|--- .... ....|--- .... ....|--- .... ....
....|..|C-4 AF.F ....|D#3 2FAF ....|E-5 2F.7 ....
 G#3|..|G#1 2A.F ....|--- .... ....|--- .... ....
....|..|--- .... ....|--- .... ....|--- .... ....
....|..|--- .... ....|--- .... ....|--- .... ....
....|..|--- .... ....|--- .... ....|--- .... ....
....|..|--- .... ....|--- .... ....|--- .... ....
....|..|--- .... ....|--- .... ....|--- .... ....
....|..|--- .... ....|--- .... ....|--- .... ....
....|..|C-4 AF.F ....|D#3 2FAF ....|--- .... ....
 G#3|..|G#1 2A.F ....|--- .... ....|--- .... ....
....|..|--- .... ....|--- .... ....|--- .... ....
....|..|--- .... ....|--- .... ....|--- .... ....
....|..|--- .... ....|--- .... ....|--- .... ....
....|..|--- .... ....|--- .... ....|--- .... ....
....|..|--- .... ....|--- .... ....|--- .... ....
....|..|--- .... ....|--- .... ....|--- .... ....
....|..|C-4 AF.F ....|D#3 2FAF ....|D#4 2FAF ....
 G#3|..|G#1 2A.F ....|--- .... ....|--- .... ....
....|..|--- .... ....|--- .... ....|--- .... ....
....|..|--- .... ....|--- .... ....|--- .... ....
....|..|--- .... ....|--- .... ....|--- .... ....
....|..|--- .... ....|--- .... ....|--- .... ....
....|..|--- .... ....|--- .... ....|R-- .... ....
....|..|--- .... ....|--- .... ....|--- .... ....
....|..|C-4 AF.F ....|D#3 2FAF ....|D#4 2FAF ....
 G#3|..|G#1 2A.F ....|--- .... ....|--- .... ....
....|..|--- .... ....|--- .... ....|--- .... ....
....|..|--- .... ....|--- .... ....|--- .... ....
....|..|--- .... ....|--- .... ....|--- .... ....
....|..|--- .... ....|--- .... ....|--- .... ....
....|..|--- .... ....|--- .... ....|R-- .... ....
....|..|--- .... ....|--- .... ....|--- .... ....

[Pattern33]
....|..|C-4 AF.F ....|D#3 2FAF ....|D#4 2FAF ....
 G#3|..|G#1 2A.F ....|--- .... ....|--- .... ....
....|..|--- .... ....|--- .... ....|--- .... ....
....|..|--- .... ....|--- .... ....|--- .... ....
....|..|--- .... ....|--- .... ....|--- .... ....
....|..|--- .... ....|--- .... ....|--- .... ....
....|..|--- .... ....|--- .... ....|R-- .... ....
....|..|--- .... ....|--- .... ....|--- .... ....
....|..|C-4 AF.F ....|D#3 2FAF ....|D#4 2FAF ....
 G#3|..|G#1 2A.F ....|--- .... ....|--- .... ....
....|..|--- .... ....|--- .... ....|--- .... ....
....|..|--- .... ....|--- .... ....|--- .... ....
....|..|--- .... ....|--- .... ....|--- .... ....
....|..|--- .... ....|--- .... ....|--- .... ....
....|..|--- .... ....|--- .... ....|R-- .... ....
....|..|--- .... ....|--- .... ....|--- .... ....
....|..|C-4 AF.F ....|D#3 2FAF ....|D#4 2FAF ....
 G#3|..|G#1 2A.F ....|--- .... ....|--- .... ....
....|..|--- .... ....|--- .... ....|--- .... ....
....|..|--- .... ....|--- .... ....|--- .... ....
....|..|--- .... ....|--- .... ....|--- .... ....
....|..|--- .... ....|--- .... ....|--- .... ....
....|..|--- .... ....|--- .... ....|R-- .... ....
....|..|--- .... ....|--- .... ....|--- .... ....
....|..|C-4 AF.F ....|D#3 2FAF ....|D#4 2FAF ....
 G#3|..|G#1 2A.F ....|--- .... ....|--- .... ....
....|..|--- .... ....|--- .... ....|--- .... ....
....|..|--- .... ....|--- .... ....|--- .... ....
....|..|--- .... ....|--- .... ....|--- .... ....
....|..|--- .... ....|--- .... ....|--- .... ....
....|..|--- .... ....|--- .... ....|R-- .... ....
....|..|--- .... ....|--- .... ....|--- .... ....
....|..|C-4 AF.F ....|D#3 2FAF ....|D#4 2FAF ....
 G#3|..|G#1 2A.F ....|--- .... ....|--- .... ....
....|..|--- .... ....|--- .... ....|--- .... ....
....|..|--- .... ....|--- .... ....|--- .... ....
....|..|--- .... ....|--- .... ....|--- .... ....
....|..|--- .... ....|--- .... ....|--- .... ....
....|..|--- .... ....|--- .... ....|R-- .... ....
....|..|--- .... ....|--- .... ....|--- .... ....
....|..|C-4 AF.F ....|D#3 2FAF ....|D#4 2FAF ....
 G#3|..|G#1 2A.F ....|--- .... ....|--- .... ....
....|..|--- .... ....|--- .... ....|--- .... ....
....|..|--- .... ....|--- .... ....|--- .... ....
....|..|--- .... ....|--- .... ....|--- .... ....
....|..|--- .... ....|--- .... ....|--- .... ....
....|..|--- .... ....|--- .... ....|R-- .... ....
....|..|--- .... ....|--- .... ....|--- .... ....
....|..|C-4 AF.F ....|D#3 2FAF ....|D#4 2FAF ....
 G#3|..|G#1 2A.F ....|--- .... ....|--- .... ....
....|..|--- .... ....|--- .... ....|--- .... ....
....|..|--- .... ....|--- .... ....|--- .... ....
....|..|--- .... ....|--- .... ....|--- .... ....
....|..|--- .... ....|--- .... ....|--- .... ....
....|..|--- .... ....|--- .... ....|R-- .... ....
....|..|--- .... ....|--- .... ....|--- .... ....
....|..|C-4 AF.F ....|D#3 2FAF ....|D#4 2FAF ....
 G#3|..|G#1 2A.F ....|--- .... ....|--- .... ....
....|..|--- .... ....|--- .... ....|--- .... ....
....|..|--- .... ....|--- .... ....|--- .... ....
....|..|--- .... ....|--- .... ....|--- .... ....
....|..|--- .... ....|--- .... ....|--- .... ....
....|..|--- .... ....|--- .... ....|R-- .... ....
....|..|--- .... ....|--- .... ....|--- .... ....
....|..|C-4 AF.F ....|D#3 2FAF ....|D#4 2F4F ....
 G#3|..|G#1 2A.F ....|--- .... ....|--- .... ....
....|..|--- .... ....|--- .... ....|--- .... ....
....|..|--- .... ....|--- .... ....|--- .... ....
....|..|--- .... ....|--- .... ....|--- .... ....
....|..|--- .... ....|--- .... ....|--- .... ....
....|..|--- .... ....|--- .... ....|R-- .... ....
....|..|--- .... ....|--- .... ....|--- .... ....
....|..|C-4 AF.7 ....|D#3 2FA7 ....|D#4 2FA7 ....
....|..|G#1 2F.7 ....|--- .... ....|--- .... ....
....|..|--- .... ....|--- .... ....|--- .... ....
....|..|--- .... ....|--- .... ....|--- .... ....
....|..|--- .... ....|--- .... ....|--- .... ....
....|..|--- .... ....|--- .... ....|--- .... ....
....|..|--- .... ....|--- .... ....|R-- .... ....
....|..|--- .... ....|--- .... ....|--- .... ....
....|..|C-4 AF.7 ....|D#3 2FA7 ....|D#4 2FA7 ....
....|..|G#1 2F.7 ....|--- .... ....|--- .... ....
....|..|--- .... ....|--- .... ....|--- .... ....
....|..|--- .... ....|--- .... ....|--- .... ....
....|..|--- .... ....|--- .... ....|--- .... ....
....|..|--- .... ....|--- .... ....|--- .... ....
....|..|--- .... ....|--- .... ....|R-- .... ....
....|..|--- .... ....|--- .... ....|--- .... ....
....|..|C-4 AF.7 ....|D#3 2FA7 ....|D#4 2FA7 ....
....|..|G#1 2F.7 ....|--- .... ....|--- .... ....
....|..|--- .... ....|--- .... ....|--- .... ....
....|..|--- .... ....|--- .... ....|--- .... ....
....|..|--- .... ....|--- .... ....|--- .... ....
....|..|--- .... ....|--- .... ....|--- .... ....
....|..|--- .... ....|--- .... ....|R-- .... ....
....|..|--- .... ....|--- .... ....|--- .... ....
....|..|C-4 AF.7 ....|D#3 2FA7 ....|D#4 2FA7 ....
....|..|G#1 2F.7 ....|--- .... ....|--- .... ....
....|..|--- .... ....|--- .... ....|--- .... ....
....|..|--- .... ....|--- .... ....|--- .... ....
....|..|--- .... ....|--- .... ....|--- .... ....
....|..|--- .... ....|--- .... ....|--- .... ....
....|..|--- .... ....|--- .... ....|R-- .... ....
....|..|--- .... ....|--- .... ....|--- .... ....
....|..|C-4 AF.7 ....|D#3 2FA7 ....|D#4 2FA7 ....
....|..|G#1 2F.7 ....|--- .... ....|--- .... ....
....|..|--- .... ....|--- .... ....|--- .... ....
....|..|--- .... ....|--- .... ....|--- .... ....
....|..|--- .... ....|--- .... ....|--- .... ....
....|..|--- .... ....|--- .... ....|--- .... ....
....|..|--- .... ....|--- .... ....|R-- .... ....
....|..|--- .... ....|--- .... ....|--- .... ....
....|..|B-8 JF.F ....|D#3 2FA7 ....|D#4 2F47 ....
....|..|G#1 2F.7 ....|--- .... ....|--- .... ....
....|..|--- .... ....|--- .... ....|--- .... ....
....|..|--- .... ....|--- .... ....|--- .... ....
....|..|--- .... ....|--- .... ....|--- .... ....
....|..|--- .... ....|--- .... ....|--- .... ....
....|..|--- .... ....|--- .... ....|--- .... ....
....|..|--- .... ....|--- .... ....|--- .... ....
....|..|C-4 AF.F ....|D#3 2FAF ....|D#4 2F4F ....
 G#3|..|G#1 2A.F ....|--- .... ....|--- .... ....
....|..|--- .... ....|--- .... ....|--- .... ....
....|..|--- .... ....|--- .... ....|--- .... ....
....|..|--- .... ....|--- .... ....|--- .... ....
....|..|--- .... ....|--- .... ....|--- .... ....
....|..|--- .... ....|--- .... ....|--- .... ....
....|..|--- .... ....|--- .... ....|--- .... ....
....|..|C-4 AF.F ....|F-3 2FAF ....|F-4 2F4F ....
 A#3|..|A#1 2A.F ....|--- .... ....|--- .... ....
....|..|--- .... ....|--- .... ....|--- .... ....
....|..|--- .... ....|--- .... ....|--- .... ....
....|..|--- .... ....|--- .... ....|--- .... ....
....|..|--- .... ....|--- .... ....|--- .... ....
....|..|--- .... ....|--- .... ....|--- .... ....
....|..|--- .... ....|--- .... ....|--- .... ....
....|..|B-8 JF.A ....|--- .... ....|--- .... ....
....|..|--- .... ....|--- .... ....|--- .... ....
....|..|--- .... ....|--- .... ....|--- .... ....
....|..|--- .... ....|--- .... ....|--- .... ....
....|..|--- .... ....|--- .... ....|--- .... ....
....|..|--- .... ....|--- .... ....|--- .... ....
....|..|--- .... ....|--- .... ....|--- .... ....
....|..|--- .... ....|--- .... ....|--- .... ....
....|..|R-- .... ....|R-- .... ....|R-- .... ....
....|..|G#1 2F.A ....|--- .... ....|--- .... ....
....|..|--- .... ....|--- .... ....|--- .... ....
....|..|--- .... ....|--- .... ....|--- .... ....
....|..|--- .... ....|--- .... ....|--- .... ....
....|..|--- .... ....|--- .... ....|--- .... ....
....|..|--- .... ....|--- .... ....|--- .... ....
....|..|--- .... ....|--- .... ....|--- .... ....
....|..|B-8 JF.F ....|F-3 2FAA ....|F-4 2F4A ....
....|..|A#1 2F.A ....|--- .... ....|--- .... ....
....|..|--- .... ....|--- .... ....|--- .... ....
....|..|--- .... ....|--- .... ....|--- .... ....
....|..|--- .... ....|--- .... ....|--- .... ....
....|..|--- .... ....|--- .... ....|--- .... ....
....|..|--- .... ....|--- .... ....|--- .... ....
....|..|--- .... ....|--- .... ....|--- .... ....
....|..|C-4 CF.F ....|--- .... ....|--- .... ....
....|..|--- .... ....|--- .... ....|--- .... ....
....|..|--- .... ....|--- .... ....|--- .... ....
....|..|--- .... ....|--- .... ....|--- .... ....
....|..|D#4 9F.F ....|--- .... ....|--- .... ....
....|..|--- .... ....|--- .... ....|--- .... ....
....|..|--- .... ....|--- .... ....|--- .... ....
....|..|--- .... ....|--- .... ....|--- .... ....
....|..|D#4 9F.F ....|D#3 2FA7 ....|D#4 2F47 ....
....|..|G#1 2F.7 ....|--- .... ....|--- .... ....
....|..|--- .... ....|--- .... ....|--- .... ....
....|..|--- .... ....|--- .... ....|--- .... ....
....|..|C-4 CF.F ....|--- .... ....|--- .... ....
....|..|--- .... ....|--- .... ....|--- .... ....
....|..|--- .... ....|--- .... ....|--- .... ....
....|..|--- .... ....|--- .... ....|--- .... ....
....|..|C-4 9F.F ....|F-3 2FA7 ....|F-4 2F47 ....
....|..|A#1 2F.7 ....|--- .... ....|--- .... ....
....|..|--- .... ....|--- .... ....|--- .... ....
....|..|--- .... ....|--- .... ....|--- .... ....
....|..|--- .... ....|--- .... ....|--- .... ....
....|..|--- .... ....|--- .... ....|--- .... ....
....|..|--- .... ....|--- .... ....|--- .... ....
....|..|--- .... ....|--- .... ....|--- .... ....
....|..|C-4 CF.F ....|--- .... ....|--- .... ....
....|..|--- .... ....|--- .... ....|--- .... ....
....|..|--- .... ....|--- .... ....|--- .... ....
....|..|--- .... ....|--- .... ....|--- .... ....
....|..|C-4 CF.F ....|--- .... ....|--- .... ....
....|..|--- .... ....|--- .... ....|--- .... ....
....|..|--- .... ....|--- .... ....|--- .... ....
....|..|--- .... ....|--- .... ....|--- .... ....
....|..|C-4 AF.F ....|F#3 2F1F ....|F#4 2F1F ....
 B-3|..|B-1 2A.F ....|--- .... ....|--- .... ....
....|..|--- .... ....|--- .... ....|--- .... ....
....|..|--- .... ....|--- .... ....|--- .... ....
....|..|C-4 CF.A ....|--- .... ....|--- .... ....
....|..|--- .... ....|--- .... ....|--- .... ....
....|..|--- .... ....|--- .... ....|--- .... ....
....|..|--- .... ....|--- .... ....|--- .... ....
....|..|C-3 RF.F ....|--- .... ....|--- .... ....
 B-3|..|B-1 2A.F ....|--- .... ....|--- .... ....
....|..|--- .... ....|--- .... ....|--- .... ....
....|..|--- .... ....|--- .... ....|--- .... ....
....|..|--- .... ....|--- .... ....|--- .... ....
....|..|--- .... ....|--- .... ....|--- .... ....
....|..|--- .... ....|--- .... ....|--- .... ....
....|..|--- .... ....|--- .... ....|--- .... ....
....|..|C-4 CF.F ....|F#3 2F1F ....|--- .... ....
 B-3|..|B-1 2A.F ....|--- .... ....|--- .... ....
....|..|--- .... ....|--- .... ....|--- .... ....
....|..|--- .... ....|--- .... ....|--- .... ....
....|..|D#4 9F.7 ....|--- .... ....|--- .... ....
....|..|--- .... ....|--- .... ....|--- .... ....
....|..|--- .... ....|--- .... ....|--- .... ....
....|..|--- .... ....|--- .... ....|--- .... ....
....|..|C-3 RF.F ....|F#3 2F1F ....|F#4 2F1F ....
 B-3|..|B-1 2A.F ....|--- .... ....|--- .... ....
....|..|--- .... ....|--- .... ....|--- .... ....
....|..|--- .... ....|--- .... ....|--- .... ....
....|..|C-4 CF.F ....|F#3 2F1F ....|--- .... ....
....|..|--- .... ....|--- .... ....|--- .... ....
....|..|--- .... ....|--- .... ....|--- .... ....
....|..|--- .... ....|--- .... ....|--- .... ....
....|..|C-4 AF.F ....|F#3 2F1F ....|--- .... ....
 B-3|..|B-1 2A.F ....|--- .... ....|--- .... ....
....|..|--- .... ....|--- .... ....|--- .... ....
....|..|--- .... ....|--- .... ....|--- .... ....
....|..|--- .... ....|F#3 2F1F ....|--- .... ....
....|..|--- .... ....|--- .... ....|--- .... ....
....|..|--- .... ....|--- .... ....|--- .... ....
....|..|--- .... ....|--- .... ....|--- .... ....
....|..|C-4 AF.F ....|F#3 2F1F ....|--- .... ....
 G#3|..|G#1 2A.F ....|--- .... ....|--- .... ....
....|..|--- .... ....|--- .... ....|--- .... ....
....|..|--- .... ....|--- .... ....|--- .... ....
....|..|C-4 CF.7 ....|--- .... ....|--- .... ....
....|..|--- .... ....|--- .... ....|--- .... ....
....|..|--- .... ....|--- .... ....|--- .... ....
....|..|--- .... ....|--- .... ....|--- .... ....
....|..|C-4 CF.F ....|F#3 2F1F ....|F#4 2F17 ....
 B-3|..|B-1 2A.F ....|--- .... ....|--- .... ....
....|..|--- .... ....|--- .... ....|--- .... ....
....|..|--- .... ....|--- .... ....|--- .... ....
....|..|C-4 CF.A ....|F#3 2F1A ....|--- .... ....
....|..|--- .... ....|--- .... ....|--- .... ....
....|..|--- .... ....|--- .... ....|--- .... ....
....|..|--- .... ....|--- .... ....|--- .... ....
....|..|C-3 RF.F ....|F#3 2F1F ....|--- .... ....
 C-4|..|C-2 2A.F ....|--- .... ....|--- .... ....
....|..|--- .... ....|--- .... ....|--- .... ....
....|..|--- .... ....|--- .... ....|--- .... ....
....|..|--- .... ....|F#3 2F1F ....|--- .... ....
....|..|--- .... ....|--- .... ....|--- .... ....
....|..|--- .... ....|--- .... ....|--- .... ....
....|..|--- .... ....|--- .... ....|--- .... ....

[Pattern34]
....|..|C-4 AF.F ....|G#3 2F2F ....|F-4 2FEF ....
 C#4|..|C#2 2A.F ....|--- .... ....|--- .... ....
....|..|--- .... ....|--- .... ....|--- .... ....
....|..|--- .... ....|--- .... ....|--- .... ....
....|..|--- .... ....|--- .... ....|--- .... ....
....|..|--- .... ....|--- .... ....|--- .... ....
....|..|--- .... ....|--- .... ....|--- .... ....
....|..|--- .... ....|--- .... ....|--- .... ....
....|..|C-4 AF.F ....|F#3 2F17 ....|F#4 2F17 ....
 C#4|..|C#2 2A.F ....|--- .... ....|--- .... ....
....|..|--- .... ....|--- .... ....|--- .... ....
....|..|--- .... ....|--- .... ....|--- .... ....
....|..|C-4 CF.7 ....|F#3 2F17 ....|--- .... ....
....|..|--- .... ....|--- .... ....|--- .... ....
....|..|--- .... ....|--- .... ....|--- .... ....
....|..|--- .... ....|--- .... ....|--- .... ....
....|..|C-4 CF.F ....|G#3 2F2F ....|--- .... ....
 C#4|..|C#2 2A.F ....|--- .... ....|--- .... ....
....|..|--- .... ....|--- .... ....|--- .... ....
....|..|--- .... ....|--- .... ....|--- .... ....
....|..|--- .... ....|F#3 2F17 ....|--- .... ....
....|..|--- .... ....|--- .... ....|--- .... ....
....|..|--- .... ....|--- .... ....|--- .... ....
....|..|--- .... ....|--- .... ....|--- .... ....
....|..|C-3 RF.F ....|G#3 2F2F ....|F-4 2FEF ....
 C#4|..|C#2 2A.F ....|--- .... ....|--- .... ....
....|..|--- .... ....|--- .... ....|--- .... ....
....|..|--- .... ....|--- .... ....|--- .... ....
....|..|C-4 CF.F ....|G#3 2F2F ....|--- .... ....
....|..|--- .... ....|--- .... ....|--- .... ....
....|..|--- .... ....|--- .... ....|--- .... ....
....|..|--- .... ....|--- .... ....|--- .... ....
....|..|C-4 AF.F ....|G#3 2F2F ....|--- .... ....
 C#4|..|C#2 2A.F ....|--- .... ....|--- .... ....
....|..|--- .... ....|--- .... ....|--- .... ....
....|..|--- .... ....|--- .... ....|--- .... ....
....|..|--- .... ....|G#3 2F2F ....|--- .... ....
....|..|--- .... ....|--- .... ....|--- .... ....
....|..|--- .... ....|--- .... ....|--- .... ....
....|..|--- .... ....|--- .... ....|--- .... ....
....|..|C-4 AF.F ....|G#3 2F2F ....|--- .... ....
 C-4|..|C-2 2A.F ....|--- .... ....|--- .... ....
....|..|--- .... ....|--- .... ....|--- .... ....
....|..|--- .... ....|--- .... ....|--- .... ....
....|..|--- .... ....|F#3 2F17 ....|--- .... ....
....|..|--- .... ....|--- .... ....|--- .... ....
....|..|--- .... ....|--- .... ....|--- .... ....
....|..|--- .... ....|--- .... ....|--- .... ....
....|..|C-4 CF.F ....|G#3 2F2F ....|F-4 2FE7 ....
 C#4|..|C#2 2A.F ....|--- .... ....|--- .... ....
....|..|--- .... ....|--- .... ....|--- .... ....
....|..|--- .... ....|--- .... ....|--- .... ....
....|..|C-4 CF.A ....|G#3 2F2A ....|--- .... ....
....|..|--- .... ....|--- .... ....|--- .... ....
....|..|--- .... ....|--- .... ....|--- .... ....
....|..|--- .... ....|--- .... ....|--- .... ....
....|..|C-3 RF.F ....|G#3 2F2F ....|--- .... ....
 B-3|..|B-1 2A.F ....|--- .... ....|--- .... ....
....|..|--- .... ....|--- .... ....|--- .... ....
....|..|--- .... ....|--- .... ....|--- .... ....
....|..|--- .... ....|G#3 2F2F ....|--- .... ....
....|..|--- .... ....|--- .... ....|--- .... ....
....|..|--- .... ....|--- .... ....|--- .... ....
....|..|--- .... ....|--- .... ....|--- .... ....
....|..|C-4 AF.F ....|A#3 2F3F ....|F-4 2F4F ....
 A#3|..|A#1 2A.F ....|--- .... ....|--- .... ....
....|..|--- .... ....|--- .... ....|--- .... ....
....|..|--- .... ....|--- .... ....|--- .... ....
....|..|--- .... ....|--- .... ....|--- .... ....
....|..|--- .... ....|--- .... ....|--- .... ....
....|..|--- .... ....|--- .... ....|--- .... ....
....|..|--- .... ....|--- .... ....|--- .... ....
....|..|C-4 AF.F ....|G#3 2F27 ....|F-4 2FE7 ....
 A#3|..|A#1 2A.F ....|--- .... ....|--- .... ....
....|..|--- .... ....|--- .... ....|--- .... ....
....|..|--- .... ....|--- .... ....|--- .... ....
....|..|C-4 CF.7 ....|G#3 2F27 ....|--- .... ....
....|..|--- .... ....|--- .... ....|--- .... ....
....|..|--- .... ....|--- .... ....|--- .... ....
....|..|--- .... ....|--- .... ....|--- .... ....
....|..|C-4 CF.F ....|A#3 2F3F ....|--- .... ....
 A#3|..|A#1 2A.F ....|--- .... ....|--- .... ....
....|..|--- .... ....|--- .... ....|--- .... ....
....|..|--- .... ....|--- .... ....|--- .... ....
....|..|--- .... ....|G#3 2F27 ....|--- .... ....
....|..|--- .... ....|--- .... ....|--- .... ....
....|..|--- .... ....|--- .... ....|--- .... ....
....|..|--- .... ....|--- .... ....|--- .... ....
....|..|C-3 RF.F ....|A#3 2F3F ....|F-4 2F4F ....
 A#3|..|A#1 2A.F ....|--- .... ....|--- .... ....
....|..|--- .... ....|--- .... ....|--- .... ....
....|..|--- .... ....|--- .... ....|--- .... ....
....|..|C-4 CF.F ....|A#3 2F3F ....|--- .... ....
....|..|--- .... ....|--- .... ....|--- .... ....
....|..|--- .... ....|--- .... ....|--- .... ....
....|..|--- .... ....|--- .... ....|--- .... ....
....|..|C-4 AF.F ....|A#3 2F3F ....|--- .... ....
 A#3|..|A#1 2A.F ....|--- .... ....|--- .... ....
....|..|--- .... ....|--- .... ....|--- .... ....
....|..|--- .... ....|--- .... ....|--- .... ....
....|..|--- .... ....|A#3 2F3F ....|--- .... ....
....|..|--- .... ....|--- .... ....|--- .... ....
....|..|--- .... ....|--- .... ....|--- .... ....
....|..|--- .... ....|--- .... ....|--- .... ....
....|..|C-4 AF.F ....|A#3 2F3F ....|--- .... ....
 A#3|..|A#1 2A.F ....|--- .... ....|--- .... ....
....|..|--- .... ....|--- .... ....|--- .... ....
....|..|--- .... ....|--- .... ....|--- .... ....
....|..|--- .... ....|G#3 2F27 ....|--- .... ....
....|..|--- .... ....|--- .... ....|--- .... ....
....|..|--- .... ....|--- .... ....|--- .... ....
....|..|--- .... ....|--- .... ....|--- .... ....
....|..|C-4 CF.F ....|A#3 2F3F ....|F-4 2F47 ....
 B-3|..|B-1 2A.F ....|--- .... ....|--- .... ....
....|..|--- .... ....|--- .... ....|--- .... ....
....|..|--- .... ....|--- .... ....|--- .... ....
....|..|C-4 CF.A ....|A#3 2F3A ....|--- .... ....
....|..|--- .... ....|--- .... ....|--- .... ....
....|..|--- .... ....|--- .... ....|--- .... ....
....|..|--- .... ....|--- .... ....|--- .... ....
....|..|C-3 RF.F ....|A#3 2F3F ....|--- .... ....
 C#4|..|C#2 2A.F ....|--- .... ....|--- .... ....
....|..|--- .... ....|--- .... ....|--- .... ....
....|..|--- .... ....|--- .... ....|--- .... ....
....|..|--- .... ....|A#3 2F3F ....|--- .... ....
....|..|--- .... ....|--- .... ....|--- .... ....
....|..|--- .... ....|--- .... ....|--- .... ....
....|..|--- .... ....|--- .... ....|--- .... ....
....|..|C-4 AF.F ....|A#3 2F4F ....|F#4 2F1F ....
 D#4|..|D#2 2A.F ....|--- .... ....|--- .... ....
....|..|--- .... ....|--- .... ....|--- .... ....
....|..|--- .... ....|--- .... ....|--- .... ....
....|..|--- .... ....|--- .... ....|--- .... ....
....|..|--- .... ....|--- .... ....|--- .... ....
....|..|--- .... ....|--- .... ....|--- .... ....
....|..|--- .... ....|--- .... ....|--- .... ....
....|..|C-4 AF.F ....|A#3 2F37 ....|F-4 2F47 ....
 D#4|..|D#2 2A.F ....|--- .... ....|--- .... ....
....|..|--- .... ....|--- .... ....|--- .... ....
....|..|--- .... ....|--- .... ....|--- .... ....
....|..|C-4 CF.7 ....|A#3 2F37 ....|--- .... ....
....|..|--- .... ....|--- .... ....|--- .... ....
....|..|--- .... ....|--- .... ....|--- .... ....
....|..|--- .... ....|--- .... ....|--- .... ....
....|..|C-4 CF.F ....|A#3 2F4F ....|--- .... ....
 D#4|..|D#2 2A.F ....|--- .... ....|--- .... ....
....|..|--- .... ....|--- .... ....|--- .... ....
....|..|--- .... ....|--- .... ....|--- .... ....
....|..|--- .... ....|A#3 2F37 ....|--- .... ....
....|..|--- .... ....|--- .... ....|--- .... ....
....|..|--- .... ....|--- .... ....|--- .... ....
....|..|--- .... ....|--- .... ....|--- .... ....
....|..|C-3 RF.F ....|A#3 2F4F ....|F#4 2F1F ....
 D#4|..|D#2 2A.F ....|--- .... ....|--- .... ....
....|..|--- .... ....|--- .... ....|--- .... ....
....|..|--- .... ....|--- .... ....|--- .... ....
....|..|C-4 CF.F ....|A#3 2F4F ....|--- .... ....
....|..|--- .... ....|--- .... ....|--- .... ....
....|..|--- .... ....|--- .... ....|--- .... ....
....|..|--- .... ....|--- .... ....|--- .... ....
....|..|C-4 AF.F ....|A#3 2F4F ....|--- .... ....
 D#4|..|D#2 2A.F ....|--- .... ....|--- .... ....
....|..|--- .... ....|--- .... ....|--- .... ....
....|..|--- .... ....|--- .... ....|--- .... ....
....|..|--- .... ....|A#3 2F4F ....|--- .... ....
....|..|--- .... ....|--- .... ....|--- .... ....
....|..|--- .... ....|--- .... ....|--- .... ....
....|..|--- .... ....|--- .... ....|--- .... ....
....|..|C-4 AF.F ....|A#3 2F4F ....|--- .... ....
 C#4|..|C#2 2A.F ....|--- .... ....|--- .... ....
....|..|--- .... ....|--- .... ....|--- .... ....
....|..|--- .... ....|--- .... ....|--- .... ....
....|..|--- .... ....|A#3 2F37 ....|--- .... ....
....|..|--- .... ....|--- .... ....|--- .... ....
....|..|--- .... ....|--- .... ....|--- .... ....
....|..|--- .... ....|--- .... ....|--- .... ....
....|..|C-4 CF.F ....|A#3 2F4F ....|F#4 2F17 ....
 D#4|..|D#2 2A.F ....|--- .... ....|--- .... ....
....|..|--- .... ....|--- .... ....|--- .... ....
....|..|--- .... ....|--- .... ....|--- .... ....
....|..|C-4 CF.A ....|A#3 2F4A ....|--- .... ....
....|..|--- .... ....|--- .... ....|--- .... ....
....|..|--- .... ....|--- .... ....|--- .... ....
....|..|--- .... ....|--- .... ....|--- .... ....
....|..|C-3 RF.F ....|A#3 2F4F ....|--- .... ....
 B-3|..|B-1 2A.F ....|--- .... ....|--- .... ....
....|..|--- .... ....|--- .... ....|--- .... ....
....|..|--- .... ....|--- .... ....|--- .... ....
....|..|--- .... ....|A#3 2F4F ....|--- .... ....
....|..|--- .... ....|--- .... ....|--- .... ....
....|..|--- .... ....|--- .... ....|--- .... ....
....|..|--- .... ....|--- .... ....|--- .... ....
....|..|C-4 AF.F ....|G#3 2F3F ....|G#4 2F3F ....
 G#3|..|G#1 2A.F ....|--- .... ....|--- .... ....
....|..|--- .... ....|--- .... ....|--- .... ....
....|..|--- .... ....|--- .... ....|--- .... ....
....|..|--- .... ....|--- .... ....|--- .... ....
....|..|--- .... ....|--- .... ....|--- .... ....
....|..|--- .... ....|--- .... ....|--- .... ....
....|..|--- .... ....|--- .... ....|--- .... ....
....|..|C-4 AF.F ....|A#3 2F47 ....|F#4 2F17 ....
 G#3|..|G#1 2A.F ....|--- .... ....|--- .... ....
....|..|--- .... ....|--- .... ....|--- .... ....
....|..|--- .... ....|--- .... ....|--- .... ....
....|..|C-4 CF.7 ....|A#3 2F47 ....|--- .... ....
....|..|--- .... ....|--- .... ....|--- .... ....
....|..|--- .... ....|--- .... ....|--- .... ....
....|..|--- .... ....|--- .... ....|--- .... ....
....|..|C-4 CF.F ....|G#3 2F3F ....|G-3 2F1F ....
 G#3|..|G#1 2A.F ....|--- .... ....|R-- .... ....
....|..|--- .... ....|--- .... ....|--- .... ....
....|..|--- .... ....|--- .... ....|--- .... ....
....|..|--- .... ....|A#3 2F47 ....|--- .... ....
....|..|--- .... ....|--- .... ....|--- .... ....
....|..|--- .... ....|--- .... ....|--- .... ....
....|..|--- .... ....|--- .... ....|--- .... ....
....|..|C-3 RF.F ....|G#3 2F3F ....|G#4 2F3F ....
 G#3|..|G#1 2A.F ....|--- .... ....|--- .... ....
....|..|--- .... ....|--- .... ....|--- .... ....
....|..|--- .... ....|--- .... ....|--- .... ....
....|..|C-4 CF.F ....|G#3 2F3F ....|--- .... ....
....|..|--- .... ....|--- .... ....|--- .... ....
....|..|--- .... ....|--- .... ....|--- .... ....
....|..|--- .... ....|--- .... ....|--- .... ....
....|..|C-4 AF.F ....|G#3 2F3F ....|--- .... ....
 G#3|..|G#1 2A.F ....|--- .... ....|--- .... ....
....|..|--- .... ....|--- .... ....|--- .... ....
....|..|--- .... ....|--- .... ....|--- .... ....
....|..|--- .... ....|G#3 2F3F ....|--- .... ....
....|..|--- .... ....|--- .... ....|--- .... ....
....|..|--- .... ....|--- .... ....|--- .... ....
....|..|--- .... ....|--- .... ....|--- .... ....
....|..|C-4 AF.F ....|G#3 2F3F ....|G#4 2F3F ....
 G#3|..|G#1 2A.F ....|--- .... ....|R-- .... ....
....|..|--- .... ....|--- .... ....|--- .... ....
....|..|--- .... ....|--- .... ....|--- .... ....
....|..|--- .... ....|A#3 2F47 ....|--- .... ....
....|..|--- .... ....|--- .... ....|--- .... ....
....|..|--- .... ....|--- .... ....|--- .... ....
....|..|--- .... ....|--- .... ....|--- .... ....
....|..|C-4 CF.F ....|G#3 2F3F ....|G#4 2F3F ....
 G#3|..|G#1 2A.F ....|--- .... ....|--- .... ....
....|..|--- .... ....|--- .... ....|--- .... ....
....|..|--- .... ....|--- .... ....|--- .... ....
....|..|C-4 CF.A ....|G#3 2F3A ....|--- .... ....
....|..|--- .... ....|--- .... ....|--- .... ....
....|..|--- .... ....|--- .... ....|--- .... ....
....|..|--- .... ....|--- .... ....|--- .... ....
....|..|C-3 RF.F ....|G#3 2F3F ....|--- .... ....
 G#3|..|G#1 2A.F ....|--- .... ....|--- .... ....
....|..|--- .... ....|--- .... ....|--- .... ....
....|..|--- .... ....|--- .... ....|--- .... ....
....|..|--- .... ....|G#3 2F3F ....|--- .... ....
....|..|--- .... ....|--- .... ....|--- .... ....
....|..|--- .... ....|--- .... ....|--- .... ....
....|..|--- .... ....|--- .... ....|--- .... ....

[Pattern35]
....|..|C-4 AF.F ....|A#3 2F3F ....|F-4 2F4F ....
 A#3|..|A#1 2A.F ....|--- .... ....|R-- .... ....
....|..|--- .... ....|--- .... ....|--- .... ....
....|..|--- .... ....|--- .... ....|--- .... ....
....|..|--- .... ....|--- .... ....|--- .... ....
....|..|--- .... ....|--- .... ....|--- .... ....
....|..|--- .... ....|--- .... ....|--- .... ....
....|..|--- .... ....|--- .... ....|--- .... ....
....|..|C-4 AF.F ....|G#3 2F37 ....|G#4 2F37 ....
 A#3|..|A#1 2A.F ....|--- .... ....|--- .... ....
....|..|--- .... ....|--- .... ....|--- .... ....
....|..|--- .... ....|--- .... ....|--- .... ....
....|..|C-4 CF.7 ....|G#3 2F37 ....|--- .... ....
....|..|--- .... ....|--- .... ....|--- .... ....
....|..|--- .... ....|--- .... ....|--- .... ....
....|..|--- .... ....|--- .... ....|--- .... ....
....|..|C-4 CF.F ....|A#3 2F3F ....|G-3 2F1F ....
 A#3|..|A#1 2A.F ....|--- .... ....|R-- .... ....
....|..|--- .... ....|--- .... ....|--- .... ....
....|..|--- .... ....|--- .... ....|--- .... ....
....|..|--- .... ....|G#3 2F37 ....|--- .... ....
....|..|--- .... ....|--- .... ....|--- .... ....
....|..|--- .... ....|--- .... ....|--- .... ....
....|..|--- .... ....|--- .... ....|--- .... ....
....|..|C-3 RF.F ....|A#3 2F3F ....|A#4 2F.F ....
 A#3|..|A#1 2A.F ....|--- .... ....|--- .... ....
....|..|--- .... ....|--- .... ....|--- .... ....
....|..|--- .... ....|--- .... ....|--- .... ....
....|..|C-4 CF.F ....|A#3 2F3F ....|--- .... ....
....|..|--- .... ....|--- .... ....|--- .... ....
....|..|--- .... ....|--- .... ....|--- .... ....
....|..|--- .... ....|--- .... ....|--- .... ....
....|..|C-4 AF.F ....|A#3 2F3F ....|F-4 2F.F ....
 A#3|..|A#1 2A.F ....|--- .... ....|--- .... ....
....|..|--- .... ....|--- .... ....|--- .... ....
....|..|--- .... ....|--- .... ....|--- .... ....
....|..|--- .... ....|A#3 2F3F ....|--- .... ....
....|..|--- .... ....|--- .... ....|--- .... ....
....|..|--- .... ....|--- .... ....|--- .... ....
....|..|--- .... ....|--- .... ....|--- .... ....
....|..|C-4 AF.F ....|A#3 2F3F ....|C#4 2F.F ....
 A#3|..|A#1 2A.F ....|--- .... ....|R-- .... ....
....|..|--- .... ....|--- .... ....|--- .... ....
....|..|--- .... ....|--- .... ....|--- .... ....
....|..|--- .... ....|G#3 2F37 ....|--- .... ....
....|..|--- .... ....|--- .... ....|--- .... ....
....|..|--- .... ....|--- .... ....|--- .... ....
....|..|--- .... ....|--- .... ....|--- .... ....
....|..|C-4 CF.F ....|A#3 2F3F ....|F-4 2F4F ....
 B-3|..|B-1 2A.F ....|--- .... ....|--- .... ....
....|..|--- .... ....|--- .... ....|--- .... ....
....|..|--- .... ....|--- .... ....|--- .... ....
....|..|C-4 CF.A ....|A#3 2F3A ....|--- .... ....
....|..|--- .... ....|--- .... ....|--- .... ....
....|..|--- .... ....|--- .... ....|--- .... ....
....|..|--- .... ....|--- .... ....|--- .... ....
....|..|C-3 RF.F ....|A#3 2F3F ....|F-4 2F.A ....
 C#4|..|C#2 2A.F ....|--- .... ....|--- .... ....
....|..|--- .... ....|--- .... ....|--- .... ....
....|..|--- .... ....|--- .... ....|--- .... ....
....|..|--- .... ....|A#3 2F3F ....|--- .... ....
....|..|--- .... ....|--- .... ....|--- .... ....
....|..|--- .... ....|--- .... ....|--- .... ....
....|..|--- .... ....|--- .... ....|--- .... ....
....|..|C-4 AF.F ....|A#3 2F4F ....|D#4 2F3F ....
 D#4|..|D#2 2A.F ....|--- .... ....|R-- .... ....
....|..|--- .... ....|--- .... ....|--- .... ....
....|..|--- .... ....|--- .... ....|--- .... ....
....|..|--- .... ....|--- .... ....|--- .... ....
....|..|--- .... ....|--- .... ....|--- .... ....
....|..|--- .... ....|--- .... ....|--- .... ....
....|..|--- .... ....|--- .... ....|--- .... ....
....|..|C-4 AF.F ....|A#3 2F37 ....|A#4 2F.7 ....
 D#4|..|D#2 2A.F ....|--- .... ....|--- .... ....
....|..|--- .... ....|--- .... ....|--- .... ....
....|..|--- .... ....|--- .... ....|--- .... ....
....|..|C-4 CF.7 ....|A#3 2F37 ....|--- .... ....
....|..|--- .... ....|--- .... ....|--- .... ....
....|..|--- .... ....|--- .... ....|--- .... ....
....|..|--- .... ....|--- .... ....|--- .... ....
....|..|C-4 CF.F ....|A#3 2F4F ....|D#4 2F3F ....
 D#4|..|D#2 2A.F ....|--- .... ....|--- .... ....
....|..|--- .... ....|--- .... ....|--- .... ....
....|..|--- .... ....|--- .... ....|--- .... ....
....|..|--- .... ....|A#3 2F37 ....|--- .... ....
....|..|--- .... ....|--- .... ....|--- .... ....
....|..|--- .... ....|--- .... ....|--- .... ....
....|..|--- .... ....|--- .... ....|--- .... ....
....|..|C-3 RF.F ....|A#3 2F4F ....|D#4 2F3F ....
 D#4|..|D#2 2A.F ....|--- .... ....|--- .... ....
....|..|--- .... ....|--- .... ....|--- .... ....
....|..|--- .... ....|--- .... ....|--- .... ....
....|..|C-4 CF.F ....|A#3 2F4F ....|--- .... ....
....|..|--- .... ....|--- .... ....|--- .... ....
....|..|--- .... ....|--- .... ....|--- .... ....
....|..|--- .... ....|--- .... ....|--- .... ....
....|..|C-4 AF.F ....|A#3 2F4F ....|D#4 2F3F ....
 D#4|..|D#2 2A.F ....|--- .... ....|--- .... ....
....|..|--- .... ....|--- .... ....|--- .... ....
....|..|--- .... ....|--- .... ....|--- .... ....
....|..|--- .... ....|A#3 2F4F ....|--- .... ....
....|..|--- .... ....|--- .... ....|--- .... ....
....|..|--- .... ....|--- .... ....|--- .... ....
....|..|--- .... ....|--- .... ....|--- .... ....
....|..|C-4 AF.F ....|A#3 2F4F ....|D#4 2F3F ....
 A#3|..|A#1 2A.F ....|--- .... ....|--- .... ....
....|..|--- .... ....|--- .... ....|--- .... ....
....|..|--- .... ....|--- .... ....|--- .... ....
....|..|--- .... ....|A#3 2F37 ....|--- .... ....
....|..|--- .... ....|--- .... ....|--- .... ....
....|..|--- .... ....|--- .... ....|--- .... ....
....|..|--- .... ....|--- .... ....|--- .... ....
....|..|C-4 CF.F ....|A#3 2F4F ....|D#4 2F3F ....
 D#4|..|D#2 2A.F ....|--- .... ....|--- .... ....
....|..|--- .... ....|--- .... ....|--- .... ....
....|..|--- .... ....|--- .... ....|--- .... ....
....|..|C-4 CF.A ....|A#3 2F4A ....|--- .... ....
....|..|--- .... ....|--- .... ....|--- .... ....
....|..|--- .... ....|--- .... ....|--- .... ....
....|..|--- .... ....|--- .... ....|--- .... ....
....|..|C-3 RF.F ....|A#3 2F4F ....|D#4 2F3F ....
 C#4|..|C#2 2A.F ....|--- .... ....|--- .... ....
....|..|--- .... ....|--- .... ....|--- .... ....
....|..|--- .... ....|--- .... ....|--- .... ....
....|..|--- .... ....|A#3 2F4F ....|--- .... ....
....|..|--- .... ....|--- .... ....|--- .... ....
....|..|--- .... ....|--- .... ....|--- .... ....
....|..|--- .... ....|--- .... ....|--- .... ....
....|..|C-4 AF.F ....|C#4 2F9F ....|E-4 2F1F ....
....|..|D#2 2F.7 ....|--- .... ....|--- .... ....
....|..|--- .... ....|--- .... ....|--- .... ....
....|..|--- .... ....|--- .... ....|--- .... ....
....|..|--- .... ....|--- .... ....|--- .... ....
....|..|--- .... ....|--- .... ....|--- .... ....
....|..|--- .... ....|--- .... ....|--- .... ....
....|..|--- .... ....|--- .... ....|--- .... ....
....|..|C-3 RF.F ....|C#4 2F9F ....|E-4 2F1F ....
 G#3|..|G#1 2A.F ....|--- .... ....|--- .... ....
....|..|--- .... ....|--- .... ....|--- .... ....
....|..|--- .... ....|--- .... ....|--- .... ....
....|..|C-4 CF.7 ....|A#3 2F47 ....|--- .... ....
....|..|--- .... ....|--- .... ....|--- .... ....
....|..|--- .... ....|--- .... ....|--- .... ....
....|..|--- .... ....|--- .... ....|--- .... ....
....|..|C-4 AF.F ....|A#3 2F47 ....|D#4 2F37 ....
 C#4|..|C#2 2A.F ....|--- .... ....|--- .... ....
....|..|--- .... ....|--- .... ....|--- .... ....
....|..|--- .... ....|--- .... ....|--- .... ....
....|..|--- .... ....|A#3 2F47 ....|--- .... ....
....|..|--- .... ....|--- .... ....|--- .... ....
....|..|--- .... ....|--- .... ....|--- .... ....
....|..|--- .... ....|--- .... ....|--- .... ....
....|..|C-3 RF.F ....|G#3 2FCF ....|D-4 2FEF ....
 B-3|..|B-1 2A.F ....|--- .... ....|--- .... ....
....|..|--- .... ....|--- .... ....|--- .... ....
....|..|--- .... ....|--- .... ....|--- .... ....
....|..|C-4 CF.F ....|--- .... ....|--- .... ....
....|..|--- .... ....|--- .... ....|--- .... ....
....|..|--- .... ....|--- .... ....|--- .... ....
....|..|--- .... ....|--- .... ....|--- .... ....
....|..|C-3 RF.F ....|A#3 2F47 ....|D#4 2F37 ....
 A#3|..|A#1 2A.F ....|--- .... ....|--- .... ....
....|..|--- .... ....|--- .... ....|--- .... ....
....|..|--- .... ....|--- .... ....|--- .... ....
....|..|--- .... ....|--- .... ....|--- .... ....
....|..|--- .... ....|--- .... ....|--- .... ....
....|..|--- .... ....|--- .... ....|--- .... ....
....|..|--- .... ....|--- .... ....|--- .... ....
....|..|C-4 AF.F ....|G#3 2FCF ....|D-4 2FEF ....
....|..|C#2 2F.7 ....|--- .... ....|--- .... ....
....|..|--- .... ....|--- .... ....|--- .... ....
....|..|--- .... ....|--- .... ....|--- .... ....
....|..|C-4 CF.F ....|A#3 2F47 ....|--- .... ....
....|..|--- .... ....|--- .... ....|--- .... ....
....|..|--- .... ....|--- .... ....|--- .... ....
....|..|--- .... ....|--- .... ....|--- .... ....
 G#3|..|G#1 2A.F ....|G#3 2FCF ....|D-4 2FEF ....
....|..|B-1 2F.A ....|--- .... ....|--- .... ....
....|..|--- .... ....|--- .... ....|--- .... ....
....|..|--- .... ....|--- .... ....|--- .... ....
....|..|C-4 CF.A ....|--- .... ....|--- .... ....
....|..|--- .... ....|--- .... ....|--- .... ....
....|..|--- .... ....|--- .... ....|--- .... ....
....|..|--- .... ....|--- .... ....|--- .... ....
....|..|C-4 AF.F ....|C#4 2F97 ....|E-4 2F17 ....
 G#3|..|G#1 2A.F ....|--- .... ....|--- .... ....
....|..|--- .... ....|--- .... ....|--- .... ....
....|..|--- .... ....|--- .... ....|--- .... ....
....|..|C-4 CF.F ....|--- .... ....|--- .... ....
....|..|--- .... ....|--- .... ....|--- .... ....
....|..|--- .... ....|--- .... ....|--- .... ....
....|..|--- .... ....|--- .... ....|--- .... ....
....|..|C-4 AF.F ....|F#3 2F1F ....|F#4 2F1F ....
 B-3|..|B-1 2A.F ....|--- .... ....|--- .... ....
....|..|--- .... ....|--- .... ....|--- .... ....
....|..|--- .... ....|--- .... ....|--- .... ....
....|..|C-4 CF.A ....|--- .... ....|--- .... ....
....|..|--- .... ....|--- .... ....|--- .... ....
....|..|--- .... ....|--- .... ....|--- .... ....
....|..|--- .... ....|--- .... ....|--- .... ....
....|..|C-4 AF.F ....|G#3 2FC7 ....|D-4 2FE7 ....
 B-3|..|B-1 2A.F ....|--- .... ....|--- .... ....
....|..|--- .... ....|--- .... ....|--- .... ....
....|..|--- .... ....|--- .... ....|--- .... ....
....|..|C-4 CF.7 ....|--- .... ....|--- .... ....
....|..|--- .... ....|--- .... ....|--- .... ....
....|..|--- .... ....|--- .... ....|--- .... ....
....|..|--- .... ....|--- .... ....|--- .... ....
....|..|C-4 CF.F ....|F#3 2F1F ....|--- .... ....
 B-3|..|B-1 2A.F ....|--- .... ....|--- .... ....
....|..|--- .... ....|--- .... ....|--- .... ....
....|..|--- .... ....|--- .... ....|--- .... ....
....|..|C-4 CF.A ....|--- .... ....|--- .... ....
....|..|--- .... ....|--- .... ....|--- .... ....
....|..|--- .... ....|--- .... ....|--- .... ....
....|..|--- .... ....|--- .... ....|--- .... ....
....|..|C-3 RF.F ....|F#3 2F1F ....|F#4 2F1F ....
 B-3|..|B-1 2A.F ....|--- .... ....|--- .... ....
....|..|--- .... ....|--- .... ....|--- .... ....
....|..|--- .... ....|--- .... ....|--- .... ....
....|..|C-4 CF.F ....|F#3 2F1F ....|--- .... ....
....|..|--- .... ....|--- .... ....|--- .... ....
....|..|--- .... ....|--- .... ....|--- .... ....
....|..|--- .... ....|--- .... ....|--- .... ....
....|..|C-4 AF.F ....|F#3 2F1F ....|D-4 2FE7 ....
 B-3|..|B-1 2A.F ....|--- .... ....|--- .... ....
....|..|--- .... ....|--- .... ....|--- .... ....
....|..|--- .... ....|--- .... ....|--- .... ....
....|..|--- .... ....|F#3 2F1F ....|--- .... ....
....|..|--- .... ....|--- .... ....|--- .... ....
....|..|--- .... ....|--- .... ....|--- .... ....
....|..|--- .... ....|--- .... ....|--- .... ....
....|..|C-4 AF.F ....|F#3 2F1F ....|--- .... ....
 G#3|..|G#1 2A.F ....|--- .... ....|--- .... ....
....|..|--- .... ....|--- .... ....|--- .... ....
....|..|--- .... ....|--- .... ....|--- .... ....
....|..|C-4 CF.7 ....|--- .... ....|--- .... ....
....|..|--- .... ....|--- .... ....|--- .... ....
....|..|--- .... ....|--- .... ....|--- .... ....
....|..|--- .... ....|--- .... ....|--- .... ....
....|..|C-4 CF.F ....|F#3 2F1F ....|F#4 2F17 ....
 B-3|..|B-1 2A.F ....|--- .... ....|--- .... ....
....|..|--- .... ....|--- .... ....|--- .... ....
....|..|--- .... ....|--- .... ....|--- .... ....
....|..|C-4 CF.A ....|F#3 2F1A ....|--- .... ....
....|..|--- .... ....|--- .... ....|--- .... ....
....|..|--- .... ....|--- .... ....|--- .... ....
....|..|--- .... ....|--- .... ....|--- .... ....
....|..|C-3 RF.F ....|F#3 2F1F ....|--- .... ....
 C-4|..|C-2 2A.F ....|--- .... ....|--- .... ....
....|..|--- .... ....|--- .... ....|--- .... ....
....|..|--- .... ....|--- .... ....|--- .... ....
....|..|--- .... ....|F#3 2F1F ....|--- .... ....
....|..|--- .... ....|--- .... ....|--- .... ....
....|..|--- .... ....|--- .... ....|--- .... ....
....|..|--- .... ....|--- .... ....|--- .... ....

[Pattern36]
....|..|C-4 AF.F ....|G#3 2F2F ....|F-4 2FEF ....
 C#4|..|C#2 2A.F ....|--- .... ....|--- .... ....
....|..|--- .... ....|--- .... ....|--- .... ....
....|..|--- .... ....|--- .... ....|--- .... ....
....|..|--- .... ....|--- .... ....|--- .... ....
....|..|--- .... ....|--- .... ....|--- .... ....
....|..|--- .... ....|--- .... ....|--- .... ....
....|..|--- .... ....|--- .... ....|--- .... ....
....|..|C-4 AF.F ....|F#3 2F17 ....|F#4 2F17 ....
 C#4|..|C#2 2A.F ....|--- .... ....|--- .... ....
....|..|--- .... ....|--- .... ....|--- .... ....
....|..|--- .... ....|--- .... ....|--- .... ....
....|..|C-4 CF.7 ....|F#3 2F17 ....|--- .... ....
....|..|--- .... ....|--- .... ....|--- .... ....
....|..|--- .... ....|--- .... ....|--- .... ....
....|..|--- .... ....|--- .... ....|--- .... ....
....|..|C-4 CF.F ....|G#3 2F2F ....|--- .... ....
 C#4|..|C#2 2A.F ....|--- .... ....|--- .... ....
....|..|--- .... ....|--- .... ....|--- .... ....
....|..|--- .... ....|--- .... ....|--- .... ....
....|..|--- .... ....|F#3 2F17 ....|--- .... ....
....|..|--- .... ....|--- .... ....|--- .... ....
....|..|--- .... ....|--- .... ....|--- .... ....
....|..|--- .... ....|--- .... ....|--- .... ....
....|..|C-3 RF.F ....|G#3 2F2F ....|F-4 2FEF ....
 C#4|..|C#2 2A.F ....|--- .... ....|--- .... ....
....|..|--- .... ....|--- .... ....|--- .... ....
....|..|--- .... ....|--- .... ....|--- .... ....
....|..|C-4 CF.F ....|G#3 2F2F ....|--- .... ....
....|..|--- .... ....|--- .... ....|--- .... ....
....|..|--- .... ....|--- .... ....|--- .... ....
....|..|--- .... ....|--- .... ....|--- .... ....
....|..|C-4 AF.F ....|G#3 2F2F ....|--- .... ....
 C#4|..|C#2 2A.F ....|--- .... ....|--- .... ....
....|..|--- .... ....|--- .... ....|--- .... ....
....|..|--- .... ....|--- .... ....|--- .... ....
....|..|--- .... ....|G#3 2F2F ....|--- .... ....
....|..|--- .... ....|--- .... ....|--- .... ....
....|..|--- .... ....|--- .... ....|--- .... ....
....|..|--- .... ....|--- .... ....|--- .... ....
....|..|C-4 AF.F ....|G#3 2F2F ....|--- .... ....
 C-4|..|C-2 2A.F ....|--- .... ....|--- .... ....
....|..|--- .... ....|--- .... ....|--- .... ....
....|..|--- .... ....|--- .... ....|--- .... ....
....|..|--- .... ....|F#3 2F17 ....|--- .... ....
....|..|--- .... ....|--- .... ....|--- .... ....
....|..|--- .... ....|--- .... ....|--- .... ....
....|..|--- .... ....|--- .... ....|--- .... ....
....|..|C-4 CF.F ....|G#3 2F2F ....|F-4 2FE7 ....
 C#4|..|C#2 2A.F ....|--- .... ....|--- .... ....
....|..|--- .... ....|--- .... ....|--- .... ....
....|..|--- .... ....|--- .... ....|--- .... ....
....|..|C-4 CF.A ....|G#3 2F2A ....|--- .... ....
....|..|--- .... ....|--- .... ....|--- .... ....
....|..|--- .... ....|--- .... ....|--- .... ....
....|..|--- .... ....|--- .... ....|--- .... ....
....|..|C-3 RF.F ....|G#3 2F2F ....|--- .... ....
 B-3|..|B-1 2A.F ....|--- .... ....|--- .... ....
....|..|--- .... ....|--- .... ....|--- .... ....
....|..|--- .... ....|--- .... ....|--- .... ....
....|..|--- .... ....|G#3 2F2F ....|--- .... ....
....|..|--- .... ....|--- .... ....|--- .... ....
....|..|--- .... ....|--- .... ....|--- .... ....
....|..|--- .... ....|--- .... ....|--- .... ....
....|..|C-4 AF.F ....|A#3 2F3F ....|F-4 2F4F ....
 A#3|..|A#1 2A.F ....|--- .... ....|--- .... ....
....|..|--- .... ....|--- .... ....|--- .... ....
....|..|--- .... ....|--- .... ....|--- .... ....
....|..|--- .... ....|--- .... ....|--- .... ....
....|..|--- .... ....|--- .... ....|--- .... ....
....|..|--- .... ....|--- .... ....|--- .... ....
....|..|--- .... ....|--- .... ....|--- .... ....
....|..|C-4 AF.F ....|G#3 2F27 ....|F-4 2FE7 ....
 A#3|..|A#1 2A.F ....|--- .... ....|--- .... ....
....|..|--- .... ....|--- .... ....|--- .... ....
....|..|--- .... ....|--- .... ....|--- .... ....
....|..|C-4 CF.7 ....|G#3 2F27 ....|--- .... ....
....|..|--- .... ....|--- .... ....|--- .... ....
....|..|--- .... ....|--- .... ....|--- .... ....
....|..|--- .... ....|--- .... ....|--- .... ....
....|..|C-4 CF.F ....|A#3 2F3F ....|--- .... ....
 A#3|..|A#1 2A.F ....|--- .... ....|--- .... ....
....|..|--- .... ....|--- .... ....|--- .... ....
....|..|--- .... ....|--- .... ....|--- .... ....
....|..|--- .... ....|G#3 2F27 ....|--- .... ....
....|..|--- .... ....|--- .... ....|--- .... ....
....|..|--- .... ....|--- .... ....|--- .... ....
....|..|--- .... ....|--- .... ....|--- .... ....
....|..|C-3 RF.F ....|A#3 2F3F ....|F-4 2F4F ....
 A#3|..|A#1 2A.F ....|--- .... ....|--- .... ....
....|..|--- .... ....|--- .... ....|--- .... ....
....|..|--- .... ....|--- .... ....|--- .... ....
....|..|C-4 CF.F ....|A#3 2F3F ....|--- .... ....
....|..|--- .... ....|--- .... ....|--- .... ....
....|..|--- .... ....|--- .... ....|--- .... ....
....|..|--- .... ....|--- .... ....|--- .... ....
....|..|C-4 AF.F ....|A#3 2F3F ....|--- .... ....
 A#3|..|A#1 2A.F ....|--- .... ....|--- .... ....
....|..|--- .... ....|--- .... ....|--- .... ....
....|..|--- .... ....|--- .... ....|--- .... ....
....|..|--- .... ....|A#3 2F3F ....|--- .... ....
....|..|--- .... ....|--- .... ....|--- .... ....
....|..|--- .... ....|--- .... ....|--- .... ....
....|..|--- .... ....|--- .... ....|--- .... ....
....|..|C-4 AF.F ....|A#3 2F3F ....|--- .... ....
 A#3|..|A#1 2A.F ....|--- .... ....|--- .... ....
....|..|--- .... ....|--- .... ....|--- .... ....
....|..|--- .... ....|--- .... ....|--- .... ....
....|..|--- .... ....|G#3 2F27 ....|--- .... ....
....|..|--- .... ....|--- .... ....|--- .... ....
....|..|--- .... ....|--- .... ....|--- .... ....
....|..|--- .... ....|--- .... ....|--- .... ....
....|..|C-4 CF.F ....|A#3 2F3F ....|F-4 2F47 ....
 B-3|..|B-1 2A.F ....|--- .... ....|--- .... ....
....|..|--- .... ....|--- .... ....|--- .... ....
....|..|--- .... ....|--- .... ....|--- .... ....
....|..|C-4 CF.A ....|A#3 2F3A ....|--- .... ....
....|..|--- .... ....|--- .... ....|--- .... ....
....|..|--- .... ....|--- .... ....|--- .... ....
....|..|--- .... ....|--- .... ....|--- .... ....
....|..|C-3 RF.F ....|A#3 2F3F ....|--- .... ....
 C#4|..|C#2 2A.F ....|--- .... ....|--- .... ....
....|..|--- .... ....|--- .... ....|--- .... ....
....|..|--- .... ....|--- .... ....|--- .... ....
....|..|--- .... ....|A#3 2F3F ....|--- .... ....
....|..|--- .... ....|--- .... ....|--- .... ....
....|..|--- .... ....|--- .... ....|--- .... ....
....|..|--- .... ....|--- .... ....|--- .... ....
....|..|C-4 AF.F ....|A#3 2F4F ....|F#4 2F1F ....
 D#4|..|D#2 2A.F ....|--- .... ....|--- .... ....
....|..|--- .... ....|--- .... ....|--- .... ....
....|..|--- .... ....|--- .... ....|--- .... ....
....|..|--- .... ....|--- .... ....|--- .... ....
....|..|--- .... ....|--- .... ....|--- .... ....
....|..|--- .... ....|--- .... ....|--- .... ....
....|..|--- .... ....|--- .... ....|--- .... ....
....|..|C-4 AF.F ....|A#3 2F37 ....|F-4 2F47 ....
 D#4|..|D#2 2A.F ....|--- .... ....|--- .... ....
....|..|--- .... ....|--- .... ....|--- .... ....
....|..|--- .... ....|--- .... ....|--- .... ....
....|..|C-4 CF.7 ....|A#3 2F37 ....|--- .... ....
....|..|--- .... ....|--- .... ....|--- .... ....
....|..|--- .... ....|--- .... ....|--- .... ....
....|..|--- .... ....|--- .... ....|--- .... ....
....|..|C-4 CF.F ....|A#3 2F4F ....|--- .... ....
 D#4|..|D#2 2A.F ....|--- .... ....|--- .... ....
....|..|--- .... ....|--- .... ....|--- .... ....
....|..|--- .... ....|--- .... ....|--- .... ....
....|..|--- .... ....|A#3 2F37 ....|--- .... ....
....|..|--- .... ....|--- .... ....|--- .... ....
....|..|--- .... ....|--- .... ....|--- .... ....
....|..|--- .... ....|--- .... ....|--- .... ....
....|..|C-3 RF.F ....|A#3 2F4F ....|F#4 2F1F ....
 D#4|..|D#2 2A.F ....|--- .... ....|--- .... ....
....|..|--- .... ....|--- .... ....|--- .... ....
....|..|--- .... ....|--- .... ....|--- .... ....
....|..|C-4 CF.F ....|A#3 2F4F ....|--- .... ....
....|..|--- .... ....|--- .... ....|--- .... ....
....|..|--- .... ....|--- .... ....|--- .... ....
....|..|--- .... ....|--- .... ....|--- .... ....
....|..|C-4 AF.F ....|A#3 2F4F ....|--- .... ....
 D#4|..|D#2 2A.F ....|--- .... ....|--- .... ....
....|..|--- .... ....|--- .... ....|--- .... ....
....|..|--- .... ....|--- .... ....|--- .... ....
....|..|--- .... ....|A#3 2F4F ....|--- .... ....
....|..|--- .... ....|--- .... ....|--- .... ....
....|..|--- .... ....|--- .... ....|--- .... ....
....|..|--- .... ....|--- .... ....|--- .... ....
....|..|C-4 AF.F ....|A#3 2F4F ....|--- .... ....
 C#4|..|C#2 2A.F ....|--- .... ....|--- .... ....
....|..|--- .... ....|--- .... ....|--- .... ....
....|..|--- .... ....|--- .... ....|--- .... ....
....|..|--- .... ....|A#3 2F37 ....|--- .... ....
....|..|--- .... ....|--- .... ....|--- .... ....
....|..|--- .... ....|--- .... ....|--- .... ....
....|..|--- .... ....|--- .... ....|--- .... ....
....|..|C-4 CF.F ....|A#3 2F4F ....|F#4 2F17 ....
 D#4|..|D#2 2A.F ....|--- .... ....|--- .... ....
....|..|--- .... ....|--- .... ....|--- .... ....
....|..|--- .... ....|--- .... ....|--- .... ....
....|..|C-4 CF.A ....|A#3 2F4A ....|--- .... ....
....|..|--- .... ....|--- .... ....|--- .... ....
....|..|--- .... ....|--- .... ....|--- .... ....
....|..|--- .... ....|--- .... ....|--- .... ....
....|..|C-3 RF.F ....|A#3 2F4F ....|--- .... ....
 B-3|..|B-1 2A.F ....|--- .... ....|--- .... ....
....|..|--- .... ....|--- .... ....|--- .... ....
....|..|--- .... ....|--- .... ....|--- .... ....
....|..|--- .... ....|A#3 2F4F ....|--- .... ....
....|..|--- .... ....|--- .... ....|--- .... ....
....|..|--- .... ....|--- .... ....|--- .... ....
....|..|--- .... ....|--- .... ....|--- .... ....
....|..|C-4 AF.F ....|G#3 2F3F ....|G#4 2F3F ....
 G#3|..|G#1 2A.F ....|--- .... ....|--- .... ....
....|..|--- .... ....|--- .... ....|--- .... ....
....|..|--- .... ....|--- .... ....|--- .... ....
....|..|--- .... ....|--- .... ....|--- .... ....
....|..|--- .... ....|--- .... ....|--- .... ....
....|..|--- .... ....|--- .... ....|--- .... ....
....|..|--- .... ....|--- .... ....|--- .... ....
....|..|C-4 AF.F ....|A#3 2F47 ....|F#4 2F17 ....
 G#3|..|G#1 2A.F ....|--- .... ....|--- .... ....
....|..|--- .... ....|--- .... ....|--- .... ....
....|..|--- .... ....|--- .... ....|--- .... ....
....|..|C-4 CF.7 ....|A#3 2F47 ....|--- .... ....
....|..|--- .... ....|--- .... ....|--- .... ....
....|..|--- .... ....|--- .... ....|--- .... ....
....|..|--- .... ....|--- .... ....|--- .... ....
....|..|C-4 CF.F ....|G#3 2F3F ....|--- .... ....
 G#3|..|G#1 2A.F ....|--- .... ....|--- .... ....
....|..|--- .... ....|--- .... ....|--- .... ....
....|..|--- .... ....|--- .... ....|--- .... ....
....|..|--- .... ....|A#3 2F47 ....|--- .... ....
....|..|--- .... ....|--- .... ....|--- .... ....
....|..|--- .... ....|--- .... ....|--- .... ....
....|..|--- .... ....|--- .... ....|--- .... ....
....|..|C-3 RF.F ....|G#3 2F3F ....|G#4 2F3F ....
 G#3|..|G#1 2A.F ....|--- .... ....|--- .... ....
....|..|--- .... ....|--- .... ....|--- .... ....
....|..|--- .... ....|--- .... ....|--- .... ....
....|..|C-4 CF.F ....|G#3 2F3F ....|--- .... ....
....|..|--- .... ....|--- .... ....|--- .... ....
....|..|--- .... ....|--- .... ....|--- .... ....
....|..|--- .... ....|--- .... ....|--- .... ....
....|..|C-4 AF.F ....|G#3 2F3F ....|--- .... ....
 G#3|..|G#1 2A.F ....|--- .... ....|--- .... ....
....|..|--- .... ....|--- .... ....|--- .... ....
....|..|--- .... ....|--- .... ....|--- .... ....
....|..|--- .... ....|G#3 2F3F ....|--- .... ....
....|..|--- .... ....|--- .... ....|--- .... ....
....|..|--- .... ....|--- .... ....|--- .... ....
....|..|--- .... ....|--- .... ....|--- .... ....
....|..|C-4 AF.F ....|G#3 2F3F ....|--- .... ....
 G#3|..|G#1 2A.F ....|--- .... ....|--- .... ....
....|..|--- .... ....|--- .... ....|--- .... ....
....|..|--- .... ....|--- .... ....|--- .... ....
....|..|--- .... ....|A#3 2F47 ....|--- .... ....
....|..|--- .... ....|--- .... ....|--- .... ....
....|..|--- .... ....|--- .... ....|--- .... ....
....|..|--- .... ....|--- .... ....|--- .... ....
....|..|C-4 CF.F ....|G#3 2F3F ....|G#4 2F37 ....
 G#3|..|G#1 2A.F ....|--- .... ....|--- .... ....
....|..|--- .... ....|--- .... ....|--- .... ....
....|..|--- .... ....|--- .... ....|--- .... ....
....|..|C-4 CF.A ....|G#3 2F3A ....|--- .... ....
....|..|--- .... ....|--- .... ....|--- .... ....
....|..|--- .... ....|--- .... ....|--- .... ....
....|..|--- .... ....|--- .... ....|--- .... ....
....|..|C-3 RF.F ....|G#3 2F3F ....|--- .... ....
 G#3|..|G#1 2A.F ....|--- .... ....|--- .... ....
....|..|--- .... ....|--- .... ....|--- .... ....
....|..|--- .... ....|--- .... ....|--- .... ....
....|..|--- .... ....|G#3 2F3F ....|--- .... ....
....|..|--- .... ....|--- .... ....|--- .... ....
....|..|--- .... ....|--- .... ....|--- .... ....
....|..|--- .... ....|--- .... ....|--- .... ....

[Pattern37]
....|..|C-4 AF.F ....|A#3 2F3F ....|F-4 2F4F ....
 A#3|..|A#1 2A.F ....|--- .... ....|--- .... ....
....|..|--- .... ....|--- .... ....|--- .... ....
....|..|--- .... ....|--- .... ....|--- .... ....
....|..|--- .... ....|--- .... ....|--- .... ....
....|..|--- .... ....|--- .... ....|--- .... ....
....|..|--- .... ....|--- .... ....|--- .... ....
....|..|--- .... ....|--- .... ....|--- .... ....
....|..|C-4 AF.F ....|G#3 2F37 ....|F-4 2F4F ....
 A#3|..|A#1 2A.F ....|--- .... ....|--- .... ....
....|..|--- .... ....|--- .... ....|--- .... ....
....|..|--- .... ....|--- .... ....|--- .... ....
....|..|C-4 CF.7 ....|G#3 2F37 ....|--- .... ....
....|..|--- .... ....|--- .... ....|--- .... ....
....|..|--- .... ....|--- .... ....|--- .... ....
....|..|--- .... ....|--- .... ....|--- .... ....
....|..|C-4 CF.F ....|A#3 2F3F ....|F-4 2F4F ....
 A#3|..|A#1 2A.F ....|--- .... ....|--- .... ....
....|..|--- .... ....|--- .... ....|--- .... ....
....|..|--- .... ....|--- .... ....|--- .... ....
....|..|--- .... ....|G#3 2F37 ....|--- .... ....
....|..|--- .... ....|--- .... ....|--- .... ....
....|..|--- .... ....|--- .... ....|--- .... ....
....|..|--- .... ....|--- .... ....|--- .... ....
....|..|C-3 RF.F ....|A#3 2F3F ....|F-4 2F4F ....
 A#3|..|A#1 2A.F ....|--- .... ....|--- .... ....
....|..|--- .... ....|--- .... ....|--- .... ....
....|..|--- .... ....|--- .... ....|--- .... ....
....|..|C-4 CF.F ....|A#3 2F3F ....|--- .... ....
....|..|--- .... ....|--- .... ....|--- .... ....
....|..|--- .... ....|--- .... ....|--- .... ....
....|..|--- .... ....|--- .... ....|--- .... ....
....|..|C-4 AF.F ....|A#3 2F3F ....|F-4 2F4F ....
 A#3|..|A#1 2A.F ....|--- .... ....|--- .... ....
....|..|--- .... ....|--- .... ....|--- .... ....
....|..|--- .... ....|--- .... ....|--- .... ....
....|..|--- .... ....|A#3 2F3F ....|--- .... ....
....|..|--- .... ....|--- .... ....|--- .... ....
....|..|--- .... ....|--- .... ....|--- .... ....
....|..|--- .... ....|--- .... ....|--- .... ....
....|..|C-4 AF.F ....|A#3 2F3F ....|F-4 2F4F ....
 A#3|..|A#1 2A.F ....|--- .... ....|--- .... ....
....|..|--- .... ....|--- .... ....|--- .... ....
....|..|--- .... ....|--- .... ....|--- .... ....
....|..|--- .... ....|G#3 2F37 ....|--- .... ....
....|..|--- .... ....|--- .... ....|--- .... ....
....|..|--- .... ....|--- .... ....|--- .... ....
....|..|--- .... ....|--- .... ....|--- .... ....
....|..|C-4 CF.F ....|A#3 2F3F ....|F-4 2F4F ....
 A#3|..|A#1 2A.F ....|--- .... ....|--- .... ....
....|..|--- .... ....|--- .... ....|--- .... ....
....|..|--- .... ....|--- .... ....|--- .... ....
....|..|C-4 CF.A ....|A#3 2F3A ....|--- .... ....
....|..|--- .... ....|--- .... ....|--- .... ....
....|..|--- .... ....|--- .... ....|--- .... ....
....|..|--- .... ....|--- .... ....|--- .... ....
....|..|C-3 RF.F ....|A#3 2F3F ....|F-4 2F4F ....
 A#3|..|A#1 2A.F ....|--- .... ....|--- .... ....
....|..|--- .... ....|--- .... ....|--- .... ....
....|..|--- .... ....|--- .... ....|--- .... ....
....|..|--- .... ....|A#3 2F3F ....|--- .... ....
....|..|--- .... ....|--- .... ....|--- .... ....
....|..|--- .... ....|--- .... ....|--- .... ....
....|..|--- .... ....|--- .... ....|--- .... ....
....|..|C-4 AF.F ....|F#3 2F1F ....|F#4 2F2F ....
 B-3|..|B-1 2A.F ....|--- .... ....|--- .... ....
....|..|--- .... ....|--- .... ....|--- .... ....
....|..|--- .... ....|--- .... ....|--- .... ....
....|..|--- .... ....|--- .... ....|--- .... ....
....|..|--- .... ....|--- .... ....|--- .... ....
....|..|--- .... ....|--- .... ....|--- .... ....
....|..|--- .... ....|--- .... ....|--- .... ....
....|..|C-4 AF.F ....|A#3 2F37 ....|G-3 2F8F ....
 B-3|..|B-1 2A.F ....|--- .... ....|R-- .... ....
....|..|--- .... ....|--- .... ....|--- .... ....
....|..|--- .... ....|--- .... ....|--- .... ....
....|..|C-4 CF.7 ....|A#3 2F37 ....|G-3 2F8F ....
....|..|--- .... ....|--- .... ....|R-- .... ....
....|..|--- .... ....|--- .... ....|--- .... ....
....|..|--- .... ....|--- .... ....|--- .... ....
....|..|C-4 CF.F ....|F#3 2F1F ....|F#4 2F2F ....
 B-3|..|B-1 2A.F ....|--- .... ....|--- .... ....
....|..|--- .... ....|--- .... ....|--- .... ....
....|..|--- .... ....|--- .... ....|--- .... ....
....|..|--- .... ....|A#3 2F37 ....|--- .... ....
....|..|--- .... ....|--- .... ....|--- .... ....
....|..|--- .... ....|--- .... ....|--- .... ....
....|..|--- .... ....|--- .... ....|--- .... ....
....|..|C-3 RF.F ....|F#3 2F1F ....|G-3 2F1F ....
 B-3|..|B-1 2A.F ....|--- .... ....|R-- .... ....
....|..|--- .... ....|--- .... ....|--- .... ....
....|..|--- .... ....|--- .... ....|--- .... ....
....|..|C-4 CF.F ....|F#3 2F1F ....|G-3 2F1F ....
....|..|--- .... ....|--- .... ....|R-- .... ....
....|..|--- .... ....|--- .... ....|--- .... ....
....|..|--- .... ....|--- .... ....|--- .... ....
....|..|C-4 AF.F ....|F#3 2F1F ....|G-3 2F1F ....
 B-3|..|B-1 2A.F ....|--- .... ....|R-- .... ....
....|..|--- .... ....|--- .... ....|--- .... ....
....|..|--- .... ....|--- .... ....|--- .... ....
....|..|--- .... ....|F#3 2F1F ....|G-3 2F1F ....
....|..|--- .... ....|--- .... ....|R-- .... ....
....|..|--- .... ....|--- .... ....|--- .... ....
....|..|--- .... ....|--- .... ....|--- .... ....
....|..|C-4 AF.F ....|F#3 2F1F ....|F#4 2F2F ....
 B-3|..|B-1 2A.F ....|--- .... ....|--- .... ....
....|..|--- .... ....|--- .... ....|--- .... ....
....|..|--- .... ....|--- .... ....|--- .... ....
....|..|--- .... ....|A#3 2F37 ....|--- .... ....
....|..|--- .... ....|--- .... ....|--- .... ....
....|..|--- .... ....|--- .... ....|--- .... ....
....|..|--- .... ....|--- .... ....|--- .... ....
....|..|C-4 CF.F ....|F#3 2F1F ....|F#4 2F2F ....
 B-3|..|B-1 2A.F ....|--- .... ....|R-- .... ....
....|..|--- .... ....|--- .... ....|--- .... ....
....|..|--- .... ....|--- .... ....|--- .... ....
....|..|C-4 CF.A ....|F#3 2F1A ....|G-3 2F1A ....
....|..|--- .... ....|--- .... ....|R-- .... ....
....|..|--- .... ....|--- .... ....|--- .... ....
....|..|--- .... ....|--- .... ....|--- .... ....
....|..|C-3 RF.F ....|F#3 2F1F ....|G-3 2F1F ....
 B-3|..|B-1 2A.F ....|--- .... ....|R-- .... ....
....|..|--- .... ....|--- .... ....|--- .... ....
....|..|--- .... ....|--- .... ....|--- .... ....
....|..|--- .... ....|F#3 2F1F ....|G-3 2F1F ....
....|..|--- .... ....|--- .... ....|R-- .... ....
....|..|--- .... ....|--- .... ....|--- .... ....
....|..|--- .... ....|--- .... ....|--- .... ....
....|..|C-4 AF.F ....|G#3 2F2F ....|G#4 2F2F ....
 C#4|..|C#2 2A.F ....|--- .... ....|--- .... ....
....|..|--- .... ....|--- .... ....|--- .... ....
....|..|--- .... ....|--- .... ....|--- .... ....
....|..|--- .... ....|--- .... ....|--- .... ....
....|..|--- .... ....|--- .... ....|--- .... ....
....|..|--- .... ....|--- .... ....|--- .... ....
....|..|--- .... ....|--- .... ....|--- .... ....
....|..|C-4 AF.F ....|F#3 2F17 ....|G-3 2F8F ....
 C#4|..|C#2 2A.F ....|--- .... ....|R-- .... ....
....|..|--- .... ....|--- .... ....|--- .... ....
....|..|--- .... ....|--- .... ....|--- .... ....
....|..|C-4 CF.7 ....|F#3 2F17 ....|G-3 2F8F ....
....|..|--- .... ....|--- .... ....|R-- .... ....
....|..|--- .... ....|--- .... ....|--- .... ....
....|..|--- .... ....|--- .... ....|--- .... ....
....|..|C-4 CF.F ....|G#3 2F2F ....|G#4 2F2F ....
 C#4|..|C#2 2A.F ....|--- .... ....|R-- .... ....
....|..|--- .... ....|--- .... ....|--- .... ....
....|..|--- .... ....|--- .... ....|--- .... ....
....|..|--- .... ....|F#3 2F17 ....|G-3 2F17 ....
....|..|--- .... ....|--- .... ....|R-- .... ....
....|..|--- .... ....|--- .... ....|--- .... ....
....|..|--- .... ....|--- .... ....|--- .... ....
....|..|C-3 RF.F ....|G#3 2F2F ....|G-3 2F1F ....
 C#4|..|C#2 2A.F ....|--- .... ....|R-- .... ....
....|..|--- .... ....|--- .... ....|--- .... ....
....|..|--- .... ....|--- .... ....|--- .... ....
....|..|C-4 CF.F ....|G#3 2F2F ....|G-3 2F1F ....
....|..|--- .... ....|--- .... ....|R-- .... ....
....|..|--- .... ....|--- .... ....|--- .... ....
....|..|--- .... ....|--- .... ....|--- .... ....
....|..|C-4 AF.F ....|G#3 2F2F ....|G-3 2F1F ....
 C#4|..|C#2 2A.F ....|--- .... ....|R-- .... ....
....|..|--- .... ....|--- .... ....|--- .... ....
....|..|--- .... ....|--- .... ....|--- .... ....
....|..|--- .... ....|G#3 2F2F ....|G-3 2F1F ....
....|..|--- .... ....|--- .... ....|R-- .... ....
....|..|--- .... ....|--- .... ....|--- .... ....
....|..|--- .... ....|--- .... ....|--- .... ....
....|..|C-4 AF.F ....|G#3 2F2F ....|G#4 2F2F ....
 A#3|..|A#1 2A.F ....|--- .... ....|R-- .... ....
....|..|--- .... ....|--- .... ....|--- .... ....
....|..|--- .... ....|--- .... ....|--- .... ....
....|..|--- .... ....|F#3 2F17 ....|G-3 2F17 ....
....|..|--- .... ....|--- .... ....|R-- .... ....
....|..|--- .... ....|--- .... ....|--- .... ....
....|..|--- .... ....|--- .... ....|--- .... ....
....|..|C-4 CF.F ....|G#3 2F2F ....|G#4 2F2F ....
 C#4|..|C#2 2A.F ....|--- .... ....|R-- .... ....
....|..|--- .... ....|--- .... ....|--- .... ....
....|..|--- .... ....|--- .... ....|--- .... ....
....|..|C-4 CF.A ....|G#3 2F2A ....|G-3 2F1A ....
....|..|--- .... ....|--- .... ....|R-- .... ....
....|..|--- .... ....|--- .... ....|--- .... ....
....|..|--- .... ....|--- .... ....|--- .... ....
....|..|C-3 RF.F ....|G#3 2F2F ....|G-3 2F1F ....
 B-3|..|B-1 2A.F ....|--- .... ....|R-- .... ....
....|..|--- .... ....|--- .... ....|--- .... ....
....|..|--- .... ....|--- .... ....|--- .... ....
....|..|--- .... ....|G#3 2F2F ....|G-3 2F1F ....
....|..|--- .... ....|--- .... ....|R-- .... ....
....|..|--- .... ....|--- .... ....|--- .... ....
....|..|--- .... ....|--- .... ....|--- .... ....
....|..|C-4 AF.F ....|A#3 2F5F ....|G#4 2F3F ....
 D#4|..|D#2 2A.F ....|--- .... ....|--- .... ....
....|..|--- .... ....|--- .... ....|--- .... ....
....|..|--- .... ....|--- .... ....|--- .... ....
....|..|--- .... ....|--- .... ....|--- .... ....
....|..|--- .... ....|--- .... ....|--- .... ....
....|..|--- .... ....|--- .... ....|--- .... ....
....|..|--- .... ....|--- .... ....|--- .... ....
....|..|C-4 AF.F ....|G#3 2F27 ....|G-3 2F17 ....
 D#4|..|D#2 2A.F ....|--- .... ....|R-- .... ....
....|..|--- .... ....|--- .... ....|--- .... ....
....|..|--- .... ....|--- .... ....|--- .... ....
....|..|C-4 CF.7 ....|G#3 2F27 ....|G-3 2F17 ....
....|..|--- .... ....|--- .... ....|R-- .... ....
....|..|--- .... ....|--- .... ....|--- .... ....
....|..|--- .... ....|--- .... ....|--- .... ....
....|..|C-4 CF.F ....|A#3 2F5F ....|G-3 2F17 ....
 D#4|..|D#2 2A.F ....|--- .... ....|R-- .... ....
....|..|--- .... ....|--- .... ....|--- .... ....
....|..|--- .... ....|--- .... ....|--- .... ....
....|..|--- .... ....|G#3 2F27 ....|G-3 2F17 ....
....|..|--- .... ....|--- .... ....|R-- .... ....
....|..|--- .... ....|--- .... ....|--- .... ....
....|..|--- .... ....|--- .... ....|--- .... ....
....|..|C-3 RF.F ....|A#3 2F5F ....|G#4 2F27 ....
 D#4|..|D#2 2A.F ....|--- .... ....|--- .... ....
....|..|--- .... ....|--- .... ....|--- .... ....
....|..|--- .... ....|--- .... ....|--- .... ....
....|..|C-4 CF.F ....|--- .... ....|--- .... ....
....|..|--- .... ....|--- .... ....|--- .... ....
....|..|--- .... ....|--- .... ....|--- .... ....
....|..|--- .... ....|--- .... ....|--- .... ....
....|..|C-4 AF.F ....|G#3 2F27 ....|G#4 2F27 ....
 D#4|..|D#2 2A.F ....|--- .... ....|--- .... ....
....|..|--- .... ....|--- .... ....|--- .... ....
....|..|--- .... ....|--- .... ....|--- .... ....
....|..|--- .... ....|--- .... ....|--- .... ....
....|..|--- .... ....|--- .... ....|--- .... ....
....|..|--- .... ....|--- .... ....|--- .... ....
....|..|--- .... ....|--- .... ....|--- .... ....
....|..|C-4 AF.F ....|A#3 2F5F ....|G-3 2F17 ....
 D#4|..|D#2 2A.F ....|--- .... ....|R-- .... ....
....|..|--- .... ....|--- .... ....|--- .... ....
....|..|--- .... ....|--- .... ....|--- .... ....
....|..|--- .... ....|G#3 2F27 ....|G-3 2F17 ....
....|..|--- .... ....|--- .... ....|R-- .... ....
....|..|--- .... ....|--- .... ....|--- .... ....
....|..|--- .... ....|--- .... ....|--- .... ....
....|..|C-4 CF.F ....|A#3 2F5F ....|G#4 2F37 ....
 D#4|..|D#2 2A.F ....|--- .... ....|--- .... ....
....|..|--- .... ....|--- .... ....|--- .... ....
....|..|--- .... ....|--- .... ....|--- .... ....
....|..|C-4 CF.A ....|--- .... ....|--- .... ....
....|..|--- .... ....|--- .... ....|--- .... ....
....|..|--- .... ....|--- .... ....|--- .... ....
....|..|--- .... ....|--- .... ....|--- .... ....
....|..|C-3 RF.F ....|A#3 2F5F ....|--- .... ....
 D#4|..|D#2 2A.F ....|--- .... ....|--- .... ....
....|..|--- .... ....|--- .... ....|--- .... ....
....|..|--- .... ....|--- .... ....|--- .... ....
....|..|--- .... ....|A#3 2F2F ....|--- .... ....
....|..|--- .... ....|--- .... ....|--- .... ....
....|..|--- .... ....|--- .... ....|--- .... ....
....|..|--- .... ....|--- .... ....|--- .... ....

[Pattern38]
....|..|C-4 AF.F ....|A#3 2F2F ....|F#4 2F1F ....
....|..|D#2 2F.7 ....|--- .... ....|--- .... ....
....|..|--- .... ....|--- .... ....|--- .... ....
....|..|--- .... ....|--- .... ....|--- .... ....
....|..|--- .... ....|--- .... ....|--- .... ....
....|..|--- .... ....|--- .... ....|--- .... ....
....|..|--- .... ....|--- .... ....|--- .... ....
....|..|--- .... ....|--- .... ....|--- .... ....
....|..|C-4 AF.F ....|A#3 2F57 ....|--- .... ....
 D#4|..|D#3 2C.F ....|--- .... ....|--- .... ....
....|..|--- .... ....|--- .... ....|--- .... ....
....|..|--- .... ....|--- .... ....|--- .... ....
....|..|C-4 CF.7 ....|--- .... ....|--- .... ....
....|..|--- .... ....|--- .... ....|--- .... ....
....|..|--- .... ....|--- .... ....|--- .... ....
....|..|--- .... ....|--- .... ....|--- .... ....
....|..|C-4 CF.F ....|A#3 2F5A ....|--- .... ....
 D#4|..|D#3 2C.F ....|--- .... ....|--- .... ....
....|..|--- .... ....|--- .... ....|--- .... ....
....|..|--- .... ....|--- .... ....|--- .... ....
....|..|--- .... ....|A#3 2F2A ....|--- .... ....
....|..|--- .... ....|--- .... ....|--- .... ....
....|..|--- .... ....|--- .... ....|--- .... ....
....|..|--- .... ....|--- .... ....|--- .... ....
....|..|C-3 RF.F ....|A#3 2F2F ....|F#4 2F1A ....
 D#4|..|D#3 2C.F ....|--- .... ....|--- .... ....
....|..|--- .... ....|--- .... ....|--- .... ....
....|..|--- .... ....|--- .... ....|--- .... ....
....|..|--- .... ....|--- .... ....|--- .... ....
....|..|--- .... ....|--- .... ....|--- .... ....
....|..|--- .... ....|--- .... ....|--- .... ....
....|..|--- .... ....|--- .... ....|--- .... ....
....|..|C-4 AF.F ....|A#3 2F57 ....|--- .... ....
 D#4|..|D#3 2C.F ....|--- .... ....|--- .... ....
....|..|--- .... ....|--- .... ....|--- .... ....
....|..|--- .... ....|--- .... ....|--- .... ....
....|..|--- .... ....|--- .... ....|--- .... ....
....|..|--- .... ....|--- .... ....|--- .... ....
....|..|--- .... ....|--- .... ....|--- .... ....
....|..|--- .... ....|--- .... ....|--- .... ....
....|..|C-4 CF.F ....|A#3 2F57 ....|--- .... ....
....|..|D#2 2F.7 ....|--- .... ....|--- .... ....
....|..|--- .... ....|--- .... ....|--- .... ....
....|..|--- .... ....|--- .... ....|--- .... ....
....|..|C-4 CF.F ....|A#3 2F27 ....|--- .... ....
....|..|--- .... ....|--- .... ....|--- .... ....
....|..|--- .... ....|--- .... ....|--- .... ....
....|..|--- .... ....|--- .... ....|--- .... ....
....|..|C-4 AF.F ....|A#3 2F27 ....|A#4 2F.F ....
 G#3|..|G#1 2A.F ....|--- .... ....|--- .... ....
....|..|--- .... ....|--- .... ....|--- .... ....
....|..|--- .... ....|--- .... ....|--- .... ....
....|..|--- .... ....|--- .... ....|--- .... ....
....|..|--- .... ....|--- .... ....|--- .... ....
....|..|--- .... ....|--- .... ....|--- .... ....
....|..|--- .... ....|--- .... ....|--- .... ....
....|..|C-4 CF.F ....|--- .... ....|C#5 2F.F ....
....|..|D#3 2F.7 ....|--- .... ....|--- .... ....
....|..|--- .... ....|--- .... ....|--- .... ....
....|..|--- .... ....|--- .... ....|--- .... ....
....|..|C-4 CF.F ....|--- .... ....|--- .... ....
....|..|--- .... ....|--- .... ....|--- .... ....
....|..|--- .... ....|--- .... ....|--- .... ....
....|..|--- .... ....|--- .... ....|--- .... ....
....|..|C-4 AF.F ....|F#3 2F1F ....|C#5 2F.F ....
 A#3|..|A#2 2C.F ....|--- .... ....|--- .... ....
....|..|--- .... ....|--- .... ....|--- .... ....
....|..|--- .... ....|--- .... ....|--- .... ....
....|..|C-4 CF.A ....|--- .... ....|--- .... ....
....|..|--- .... ....|--- .... ....|--- .... ....
....|..|--- .... ....|--- .... ....|--- .... ....
....|..|--- .... ....|--- .... ....|--- .... ....
....|..|C-4 AF.F ....|A#3 2F27 ....|G#4 2F.F ....
 G#4|..|G#2 2A.F ....|--- .... ....|--- .... ....
....|..|--- .... ....|--- .... ....|--- .... ....
....|..|--- .... ....|--- .... ....|--- .... ....
....|..|--- .... ....|--- .... ....|F#4 2F.F ....
....|..|--- .... ....|--- .... ....|--- .... ....
....|..|--- .... ....|--- .... ....|--- .... ....
....|..|--- .... ....|--- .... ....|--- .... ....
....|..|C-4 CF.F ....|F#3 2F1F ....|G#4 2F.F ....
 F#4|..|F#2 2A.F ....|--- .... ....|--- .... ....
....|..|--- .... ....|--- .... ....|--- .... ....
....|..|--- .... ....|--- .... ....|--- .... ....
....|..|C-4 CF.A ....|--- .... ....|--- .... ....
....|..|--- .... ....|--- .... ....|--- .... ....
....|..|--- .... ....|--- .... ....|--- .... ....
....|..|--- .... ....|--- .... ....|--- .... ....
....|..|C-3 RF.F ....|F#3 2F1F ....|A#4 2F.F ....
 E-4|..|E-2 2A.F ....|--- .... ....|--- .... ....
....|..|--- .... ....|--- .... ....|--- .... ....
....|..|--- .... ....|--- .... ....|--- .... ....
....|..|C-4 CF.F ....|F#3 2F1F ....|--- .... ....
....|..|--- .... ....|--- .... ....|--- .... ....
....|..|--- .... ....|--- .... ....|--- .... ....
....|..|--- .... ....|--- .... ....|--- .... ....
....|..|C-4 AF.F ....|F#3 2F1F ....|G#4 2F.F ....
 C#4|..|C#2 2A.F ....|--- .... ....|--- .... ....
....|..|--- .... ....|--- .... ....|--- .... ....
....|..|--- .... ....|--- .... ....|--- .... ....
....|..|--- .... ....|F#3 2F1F ....|F#4 2F.F ....
....|..|--- .... ....|--- .... ....|--- .... ....
....|..|--- .... ....|--- .... ....|--- .... ....
....|..|--- .... ....|--- .... ....|D#4 2F.F ....
....|..|C-4 AF.F ....|F#3 2F1F ....|C#5 2F.7 ....
 B-3|..|B-1 2A.F ....|--- .... ....|--- .... ....
....|..|--- .... ....|--- .... ....|--- .... ....
....|..|--- .... ....|--- .... ....|F-4 2F.F ....
....|..|C-4 CF.7 ....|--- .... ....|--- .... ....
....|..|--- .... ....|--- .... ....|--- .... ....
....|..|--- .... ....|--- .... ....|G#4 2F.F ....
....|..|--- .... ....|--- .... ....|--- .... ....
....|..|C-4 CF.F ....|F#3 2F1F ....|C#5 2F.7 ....
 B-3|..|B-1 2A.F ....|--- .... ....|--- .... ....
....|..|--- .... ....|--- .... ....|F#4 2F.F ....
....|..|--- .... ....|--- .... ....|--- .... ....
....|..|C-4 CF.A ....|F#3 2F1A ....|--- .... ....
....|..|--- .... ....|--- .... ....|D#4 2F.F ....
....|..|--- .... ....|--- .... ....|--- .... ....
....|..|--- .... ....|--- .... ....|--- .... ....
....|..|C-3 RF.F ....|F#3 2F1F ....|G#4 2F.7 ....
 B-3|..|B-1 2A.F ....|--- .... ....|G#4 2F.F ....
....|..|--- .... ....|--- .... ....|--- .... ....
....|..|--- .... ....|--- .... ....|--- .... ....
....|..|--- .... ....|F#3 2F1F ....|F#4 2F.F ....
....|..|--- .... ....|--- .... ....|--- .... ....
....|..|--- .... ....|--- .... ....|--- .... ....
....|..|--- .... ....|--- .... ....|D#4 2F.A ....
....|..|C-4 AF.F ....|G#3 2F2F ....|A#3 2F.F ....
 C#4|..|C#2 2A.F ....|--- .... ....|--- .... ....
....|..|--- .... ....|--- .... ....|--- .... ....
....|..|--- .... ....|--- .... ....|F-4 2F.A ....
....|..|--- .... ....|--- .... ....|--- .... ....
....|..|--- .... ....|--- .... ....|--- .... ....
....|..|--- .... ....|--- .... ....|G#4 2F.A ....
....|..|--- .... ....|--- .... ....|--- .... ....
....|..|C-4 AF.F ....|F#3 2F17 ....|C#4 2F.F ....
 C#4|..|C#2 2A.F ....|--- .... ....|--- .... ....
....|..|--- .... ....|--- .... ....|F#4 2F.A ....
....|..|--- .... ....|--- .... ....|--- .... ....
....|..|C-4 CF.7 ....|F#3 2F17 ....|--- .... ....
....|..|--- .... ....|--- .... ....|D#4 2F.A ....
....|..|--- .... ....|--- .... ....|--- .... ....
....|..|--- .... ....|--- .... ....|--- .... ....
....|..|C-4 CF.F ....|G#3 2F2F ....|F-4 2F.F ....
 C#4|..|C#2 2A.F ....|--- .... ....|G#4 2F.A ....
....|..|--- .... ....|--- .... ....|--- .... ....
....|..|--- .... ....|--- .... ....|--- .... ....
....|..|--- .... ....|F#3 2F17 ....|F-4 2F.F ....
....|..|--- .... ....|--- .... ....|--- .... ....
....|..|--- .... ....|--- .... ....|--- .... ....
....|..|--- .... ....|--- .... ....|D#4 2F.7 ....
....|..|C-3 RF.F ....|G#3 2F2F ....|G#4 2F.F ....
 C#4|..|C#2 2A.F ....|--- .... ....|--- .... ....
....|..|--- .... ....|--- .... ....|--- .... ....
....|..|--- .... ....|--- .... ....|F-4 2F.7 ....
....|..|C-4 CF.F ....|G#3 2F2F ....|A#4 2F.F ....
....|..|--- .... ....|--- .... ....|--- .... ....
....|..|--- .... ....|--- .... ....|G#4 2F.7 ....
....|..|--- .... ....|--- .... ....|--- .... ....
....|..|C-4 AF.F ....|G#3 2F2F ....|C#5 2F.F ....
 C#4|..|C#2 2A.F ....|--- .... ....|--- .... ....
....|..|--- .... ....|--- .... ....|F#4 2F.7 ....
....|..|--- .... ....|--- .... ....|--- .... ....
....|..|--- .... ....|G#3 2F2F ....|--- .... ....
....|..|--- .... ....|--- .... ....|D#4 2F.7 ....
....|..|--- .... ....|--- .... ....|--- .... ....
....|..|--- .... ....|--- .... ....|--- .... ....
....|..|C-4 AF.F ....|G#3 2F2F ....|F-4 2F.A ....
 B-3|..|B-1 2A.F ....|--- .... ....|G#4 2F.7 ....
....|..|--- .... ....|--- .... ....|--- .... ....
....|..|--- .... ....|--- .... ....|--- .... ....
....|..|--- .... ....|F#3 2F17 ....|F#4 2F.7 ....
....|..|--- .... ....|--- .... ....|--- .... ....
....|..|--- .... ....|--- .... ....|--- .... ....
....|..|--- .... ....|--- .... ....|--- .... ....
....|..|C-4 CF.F ....|G#3 2F2F ....|D#5 2F.F ....
 C#4|..|C#2 2A.F ....|--- .... ....|--- .... ....
....|..|--- .... ....|--- .... ....|--- .... ....
....|..|--- .... ....|--- .... ....|--- .... ....
....|..|C-4 CF.A ....|G#3 2F2A ....|A#4 2F.A ....
....|..|--- .... ....|--- .... ....|--- .... ....
....|..|--- .... ....|--- .... ....|--- .... ....
....|..|--- .... ....|--- .... ....|--- .... ....
....|..|C-3 RF.F ....|G#3 2F2F ....|F#5 2F.F ....
 A#3|..|A#1 2A.F ....|--- .... ....|--- .... ....
....|..|--- .... ....|--- .... ....|--- .... ....
....|..|--- .... ....|--- .... ....|--- .... ....
....|..|--- .... ....|G#3 2F2F ....|--- .... ....
....|..|--- .... ....|--- .... ....|--- .... ....
....|..|--- .... ....|--- .... ....|--- .... ....
....|..|--- .... ....|--- .... ....|--- .... ....
....|..|C-4 AF.F ....|A#3 2F3F ....|F#5 2F.F ....
 A#3|..|A#1 2A.F ....|--- .... ....|--- .... ....
....|..|--- .... ....|--- .... ....|--- .... ....
....|..|--- .... ....|--- .... ....|--- .... ....
....|..|--- .... ....|--- .... ....|F-4 2F.7 ....
....|..|--- .... ....|--- .... ....|--- .... ....
....|..|--- .... ....|--- .... ....|--- .... ....
....|..|--- .... ....|--- .... ....|--- .... ....
....|..|C-4 AF.F ....|G#3 2F27 ....|F-5 2F.F ....
 A#3|..|A#1 2A.F ....|--- .... ....|--- .... ....
....|..|--- .... ....|--- .... ....|--- .... ....
....|..|--- .... ....|--- .... ....|--- .... ....
....|..|C-4 CF.7 ....|G#3 2F27 ....|A#4 2F.7 ....
....|..|--- .... ....|--- .... ....|--- .... ....
....|..|--- .... ....|--- .... ....|--- .... ....
....|..|--- .... ....|--- .... ....|--- .... ....
....|..|C-4 CF.F ....|A#3 2F3F ....|F#5 2F.F ....
 A#3|..|A#1 2A.F ....|--- .... ....|--- .... ....
....|..|--- .... ....|--- .... ....|--- .... ....
....|..|--- .... ....|--- .... ....|--- .... ....
....|..|--- .... ....|G#3 2F27 ....|--- .... ....
....|..|--- .... ....|--- .... ....|--- .... ....
....|..|--- .... ....|--- .... ....|--- .... ....
....|..|--- .... ....|--- .... ....|--- .... ....
....|..|C-3 RF.F ....|A#3 2F3F ....|A#4 2F.F ....
 A#3|..|A#1 2A.F ....|--- .... ....|--- .... ....
....|..|--- .... ....|--- .... ....|--- .... ....
....|..|--- .... ....|--- .... ....|--- .... ....
....|..|C-4 CF.F ....|A#3 2F3F ....|A#4 2F.F ....
....|..|--- .... ....|--- .... ....|--- .... ....
....|..|--- .... ....|--- .... ....|--- .... ....
....|..|--- .... ....|--- .... ....|--- .... ....
....|..|C-4 AF.F ....|A#3 2F3F ....|G#4 2F.F ....
 A#3|..|A#1 2A.F ....|--- .... ....|--- .... ....
....|..|--- .... ....|--- .... ....|--- .... ....
....|..|--- .... ....|--- .... ....|--- .... ....
....|..|--- .... ....|A#3 2F3F ....|--- .... ....
....|..|--- .... ....|--- .... ....|--- .... ....
....|..|--- .... ....|--- .... ....|--- .... ....
....|..|--- .... ....|--- .... ....|--- .... ....
....|..|C-4 AF.F ....|A#3 2F3F ....|A#4 2F.F ....
 A#3|..|A#1 2A.F ....|--- .... ....|--- .... ....
....|..|--- .... ....|--- .... ....|--- .... ....
....|..|--- .... ....|--- .... ....|--- .... ....
....|..|--- .... ....|G#3 2F27 ....|--- .... ....
....|..|--- .... ....|--- .... ....|--- .... ....
....|..|--- .... ....|--- .... ....|--- .... ....
....|..|--- .... ....|--- .... ....|--- .... ....
....|..|C-4 CF.F ....|A#3 2F3F ....|D#5 2F.F ....
 A#3|..|A#1 2A.F ....|--- .... ....|--- .... ....
....|..|--- .... ....|--- .... ....|--- .... ....
....|..|--- .... ....|--- .... ....|--- .... ....
....|..|C-4 CF.A ....|A#3 2F3A ....|A#4 2F.A ....
....|..|--- .... ....|--- .... ....|--- .... ....
....|..|--- .... ....|--- .... ....|--- .... ....
....|..|--- .... ....|--- .... ....|--- .... ....
....|..|C-3 RF.F ....|A#3 2F3F ....|A#4 2F.F ....
 D#4|..|D#2 2A.F ....|--- .... ....|--- .... ....
....|..|--- .... ....|--- .... ....|--- .... ....
....|..|--- .... ....|--- .... ....|--- .... ....
....|..|--- .... ....|A#3 2F3F ....|--- .... ....
....|..|--- .... ....|--- .... ....|--- .... ....
....|..|--- .... ....|--- .... ....|--- .... ....
....|..|--- .... ....|--- .... ....|--- .... ....

[Pattern39]
....|..|C-4 AF.F ....|A#3 2F4F ....|G#4 2F.F ....
 D#4|..|D#2 2A.F ....|--- .... ....|--- .... ....
....|..|--- .... ....|--- .... ....|--- .... ....
....|..|--- .... ....|--- .... ....|--- .... ....
....|..|--- .... ....|--- .... ....|--- .... ....
....|..|--- .... ....|--- .... ....|--- .... ....
....|..|--- .... ....|--- .... ....|--- .... ....
....|..|--- .... ....|--- .... ....|--- .... ....
....|..|C-4 AF.F ....|A#3 2F37 ....|G#4 2FFF ....
 D#4|..|D#2 2A.F ....|--- .... ....|--- .... ....
....|..|--- .... ....|--- .... ....|--- .... ....
....|..|--- .... ....|--- .... ....|--- .... ....
....|..|C-4 CF.7 ....|A#3 2F37 ....|A#4 2F.7 ....
....|..|--- .... ....|--- .... ....|--- .... ....
....|..|--- .... ....|--- .... ....|--- .... ....
....|..|--- .... ....|--- .... ....|--- .... ....
....|..|C-4 CF.F ....|A#3 2F4F ....|G#4 2F.7 ....
 D#4|..|D#2 2A.F ....|--- .... ....|--- .... ....
....|..|--- .... ....|--- .... ....|--- .... ....
....|..|--- .... ....|--- .... ....|--- .... ....
....|..|--- .... ....|A#3 2F37 ....|--- .... ....
....|..|--- .... ....|--- .... ....|--- .... ....
....|..|--- .... ....|--- .... ....|--- .... ....
....|..|--- .... ....|--- .... ....|--- .... ....
....|..|C-3 RF.F ....|A#3 2F4F ....|G#4 2FFF ....
 D#4|..|D#2 2A.F ....|--- .... ....|--- .... ....
....|..|--- .... ....|--- .... ....|--- .... ....
....|..|--- .... ....|--- .... ....|--- .... ....
....|..|C-4 CF.F ....|A#3 2F4F ....|--- .... ....
....|..|--- .... ....|--- .... ....|--- .... ....
....|..|--- .... ....|--- .... ....|--- .... ....
....|..|--- .... ....|--- .... ....|--- .... ....
....|..|C-4 AF.F ....|A#3 2F4F ....|D#5 2F.7 ....
 D#4|..|D#2 2A.F ....|--- .... ....|--- .... ....
....|..|--- .... ....|--- .... ....|--- .... ....
....|..|--- .... ....|--- .... ....|--- .... ....
....|..|--- .... ....|A#3 2F4F ....|--- .... ....
....|..|--- .... ....|--- .... ....|--- .... ....
....|..|--- .... ....|--- .... ....|--- .... ....
....|..|--- .... ....|--- .... ....|--- .... ....
....|..|C-4 AF.F ....|A#3 2F4F ....|A#4 2F.7 ....
 B-3|..|B-1 2A.F ....|--- .... ....|--- .... ....
....|..|--- .... ....|--- .... ....|--- .... ....
....|..|--- .... ....|--- .... ....|--- .... ....
....|..|--- .... ....|A#3 2F37 ....|D#5 2F.F ....
....|..|--- .... ....|--- .... ....|--- .... ....
....|..|--- .... ....|--- .... ....|--- .... ....
....|..|--- .... ....|--- .... ....|--- .... ....
....|..|C-4 CF.F ....|A#3 2F4F ....|D#5 2F.F ....
 D#4|..|D#2 2A.F ....|--- .... ....|--- .... ....
....|..|--- .... ....|--- .... ....|--- .... ....
....|..|--- .... ....|--- .... ....|--- .... ....
....|..|C-4 CF.A ....|A#3 2F4A ....|--- .... ....
....|..|--- .... ....|--- .... ....|--- .... ....
....|..|--- .... ....|--- .... ....|--- .... ....
....|..|--- .... ....|--- .... ....|--- .... ....
....|..|C-3 RF.F ....|A#3 2F4F ....|G#4 2FF7 ....
 C#4|..|C#2 2A.F ....|--- .... ....|--- .... ....
....|..|--- .... ....|--- .... ....|--- .... ....
....|..|--- .... ....|--- .... ....|--- .... ....
....|..|--- .... ....|A#3 2F4F ....|--- .... ....
....|..|--- .... ....|--- .... ....|--- .... ....
....|..|--- .... ....|--- .... ....|--- .... ....
....|..|--- .... ....|--- .... ....|--- .... ....
....|..|C-4 AF.F ....|G#3 2F3F ....|G#5 2F.F ....
 B-3|..|B-1 2A.F ....|--- .... ....|--- .... ....
....|..|--- .... ....|--- .... ....|--- .... ....
....|..|--- .... ....|--- .... ....|--- .... ....
....|..|--- .... ....|--- .... ....|D#5 2F.A ....
....|..|--- .... ....|--- .... ....|--- .... ....
....|..|--- .... ....|--- .... ....|--- .... ....
....|..|--- .... ....|--- .... ....|--- .... ....
....|..|C-4 AF.F ....|A#3 2F47 ....|G#4 2FF7 ....
 B-3|..|B-1 2A.F ....|--- .... ....|--- .... ....
....|..|--- .... ....|--- .... ....|--- .... ....
....|..|--- .... ....|--- .... ....|--- .... ....
....|..|C-4 CF.7 ....|A#3 2F47 ....|G#5 2F.F ....
....|..|--- .... ....|--- .... ....|--- .... ....
....|..|--- .... ....|--- .... ....|--- .... ....
....|..|--- .... ....|--- .... ....|--- .... ....
....|..|C-4 CF.F ....|G#3 2F3F ....|F#5 2F.F ....
 B-3|..|B-1 2A.F ....|--- .... ....|--- .... ....
....|..|--- .... ....|--- .... ....|--- .... ....
....|..|--- .... ....|--- .... ....|--- .... ....
....|..|--- .... ....|A#3 2F47 ....|F#5 2F.F ....
....|..|--- .... ....|--- .... ....|--- .... ....
....|..|--- .... ....|--- .... ....|--- .... ....
....|..|--- .... ....|--- .... ....|--- .... ....
....|..|C-3 RF.F ....|G#3 2F3F ....|F#5 2F.F ....
 B-3|..|B-1 2A.F ....|--- .... ....|--- .... ....
....|..|--- .... ....|--- .... ....|--- .... ....
....|..|--- .... ....|--- .... ....|--- .... ....
....|..|C-4 CF.F ....|G#3 2F3F ....|D#5 2F.7 ....
....|..|--- .... ....|--- .... ....|--- .... ....
....|..|--- .... ....|--- .... ....|--- .... ....
....|..|--- .... ....|--- .... ....|--- .... ....
....|..|C-4 AF.F ....|G#3 2F3F ....|F#5 2F.F ....
 B-3|..|B-1 2A.F ....|--- .... ....|--- .... ....
....|..|--- .... ....|--- .... ....|--- .... ....
....|..|--- .... ....|--- .... ....|--- .... ....
....|..|--- .... ....|G#3 2F3F ....|G#5 2F.A ....
....|..|--- .... ....|--- .... ....|--- .... ....
....|..|--- .... ....|--- .... ....|--- .... ....
....|..|--- .... ....|--- .... ....|--- .... ....
....|..|C-4 AF.F ....|G#3 2F3F ....|F-5 2F.F ....
 B-3|..|B-1 2A.F ....|--- .... ....|--- .... ....
....|..|--- .... ....|--- .... ....|--- .... ....
....|..|--- .... ....|--- .... ....|--- .... ....
....|..|--- .... ....|A#3 2F47 ....|F#5 2F.A ....
....|..|--- .... ....|--- .... ....|--- .... ....
....|..|--- .... ....|--- .... ....|--- .... ....
....|..|--- .... ....|--- .... ....|--- .... ....
....|..|C-4 CF.F ....|G#3 2F3F ....|F#5 2F.F ....
 B-3|..|B-1 2A.F ....|--- .... ....|--- .... ....
....|..|--- .... ....|--- .... ....|--- .... ....
....|..|--- .... ....|--- .... ....|--- .... ....
....|..|C-4 CF.A ....|G#3 2F3A ....|--- .... ....
....|..|--- .... ....|--- .... ....|--- .... ....
....|..|--- .... ....|--- .... ....|--- .... ....
....|..|--- .... ....|--- .... ....|--- .... ....
....|..|C-3 RF.F ....|G#3 2F3F ....|F-5 2F.F ....
 B-3|..|B-1 2A.F ....|--- .... ....|--- .... ....
....|..|--- .... ....|--- .... ....|--- .... ....
....|..|--- .... ....|--- .... ....|--- .... ....
....|..|--- .... ....|G#3 2F3F ....|F#5 2F.F ....
....|..|--- .... ....|--- .... ....|--- .... ....
....|..|--- .... ....|--- .... ....|--- .... ....
....|..|--- .... ....|--- .... ....|--- .... ....
....|..|C-4 AF.F ....|A#3 2F3F ....|F-5 2F.F ....
 C#4|..|C#2 2A.F ....|--- .... ....|--- .... ....
....|..|--- .... ....|--- .... ....|--- .... ....
....|..|--- .... ....|--- .... ....|--- .... ....
....|..|--- .... ....|--- .... ....|F#5 2F.7 ....
....|..|--- .... ....|--- .... ....|--- .... ....
....|..|--- .... ....|--- .... ....|--- .... ....
....|..|--- .... ....|--- .... ....|--- .... ....
....|..|C-4 AF.F ....|G#3 2F37 ....|F-5 2F.F ....
 C#4|..|C#2 2A.F ....|--- .... ....|--- .... ....
....|..|--- .... ....|--- .... ....|--- .... ....
....|..|--- .... ....|--- .... ....|--- .... ....
....|..|C-4 CF.7 ....|G#3 2F37 ....|--- .... ....
....|..|--- .... ....|--- .... ....|--- .... ....
....|..|--- .... ....|--- .... ....|--- .... ....
....|..|--- .... ....|--- .... ....|--- .... ....
....|..|C-4 CF.F ....|A#3 2F3F ....|D#5 2F.F ....
 C#4|..|C#2 2A.F ....|--- .... ....|--- .... ....
....|..|--- .... ....|--- .... ....|--- .... ....
....|..|--- .... ....|--- .... ....|--- .... ....
....|..|--- .... ....|G#3 2F37 ....|F#5 2F.A ....
....|..|--- .... ....|--- .... ....|--- .... ....
....|..|--- .... ....|--- .... ....|--- .... ....
....|..|--- .... ....|--- .... ....|--- .... ....
....|..|C-3 RF.F ....|A#3 2F3F ....|C#5 2F.F ....
 C#4|..|C#2 2A.F ....|--- .... ....|--- .... ....
....|..|--- .... ....|--- .... ....|--- .... ....
....|..|--- .... ....|--- .... ....|--- .... ....
....|..|C-4 CF.F ....|A#3 2F3F ....|--- .... ....
....|..|--- .... ....|--- .... ....|--- .... ....
....|..|--- .... ....|--- .... ....|--- .... ....
....|..|--- .... ....|--- .... ....|--- .... ....
....|..|C-4 AF.F ....|A#3 2F3F ....|C#5 2F.F ....
 C#4|..|C#2 2A.F ....|--- .... ....|--- .... ....
....|..|--- .... ....|--- .... ....|--- .... ....
....|..|--- .... ....|--- .... ....|--- .... ....
....|..|--- .... ....|A#3 2F3F ....|--- .... ....
....|..|--- .... ....|--- .... ....|--- .... ....
....|..|--- .... ....|--- .... ....|--- .... ....
....|..|--- .... ....|--- .... ....|--- .... ....
....|..|C-4 AF.F ....|A#3 2F3F ....|F-5 2F.7 ....
 C#4|..|C#2 2A.F ....|--- .... ....|--- .... ....
....|..|--- .... ....|--- .... ....|--- .... ....
....|..|--- .... ....|--- .... ....|--- .... ....
....|..|--- .... ....|G#3 2F37 ....|C#4 2FFF ....
....|..|--- .... ....|--- .... ....|--- .... ....
....|..|--- .... ....|--- .... ....|--- .... ....
....|..|--- .... ....|--- .... ....|--- .... ....
....|..|C-4 CF.F ....|A#3 2F3F ....|F-5 2F.7 ....
 C#4|..|C#2 2A.F ....|--- .... ....|--- .... ....
....|..|--- .... ....|--- .... ....|--- .... ....
....|..|--- .... ....|--- .... ....|--- .... ....
....|..|C-4 CF.A ....|A#3 2F3A ....|--- .... ....
....|..|--- .... ....|--- .... ....|--- .... ....
....|..|--- .... ....|--- .... ....|--- .... ....
....|..|--- .... ....|--- .... ....|--- .... ....
....|..|C-3 RF.F ....|A#3 2F3F ....|C#4 2FFF ....
 C#4|..|C#2 2A.F ....|--- .... ....|--- .... ....
....|..|--- .... ....|--- .... ....|--- .... ....
....|..|--- .... ....|--- .... ....|--- .... ....
....|..|--- .... ....|A#3 2F3F ....|--- .... ....
....|..|--- .... ....|--- .... ....|--- .... ....
....|..|--- .... ....|--- .... ....|--- .... ....
....|..|--- .... ....|--- .... ....|--- .... ....
....|..|C-4 AF.F ....|F#3 2F1F ....|D#5 2F.7 ....
 D#4|..|D#2 2A.F ....|--- .... ....|--- .... ....
....|..|--- .... ....|--- .... ....|--- .... ....
....|..|--- .... ....|--- .... ....|--- .... ....
....|..|--- .... ....|--- .... ....|C#4 2FFF ....
....|..|--- .... ....|--- .... ....|--- .... ....
....|..|--- .... ....|--- .... ....|--- .... ....
....|..|--- .... ....|--- .... ....|--- .... ....
....|..|C-4 AF.F ....|A#3 2F37 ....|C#5 2F.7 ....
 D#4|..|D#2 2A.F ....|--- .... ....|--- .... ....
....|..|--- .... ....|--- .... ....|--- .... ....
....|..|--- .... ....|--- .... ....|--- .... ....
....|..|C-4 CF.7 ....|A#3 2F37 ....|--- .... ....
....|..|--- .... ....|--- .... ....|--- .... ....
....|..|--- .... ....|--- .... ....|--- .... ....
....|..|--- .... ....|--- .... ....|--- .... ....
....|..|C-4 CF.F ....|F#3 2F1F ....|C#4 2FFF ....
 D#4|..|D#2 2A.F ....|--- .... ....|--- .... ....
....|..|--- .... ....|--- .... ....|--- .... ....
....|..|--- .... ....|--- .... ....|--- .... ....
....|..|--- .... ....|A#3 2F37 ....|--- .... ....
....|..|--- .... ....|--- .... ....|--- .... ....
....|..|--- .... ....|--- .... ....|--- .... ....
....|..|--- .... ....|--- .... ....|--- .... ....
....|..|C-3 RF.F ....|F#3 2F1F ....|--- .... ....
 D#4|..|D#2 2A.F ....|--- .... ....|--- .... ....
....|..|--- .... ....|--- .... ....|--- .... ....
....|..|--- .... ....|--- .... ....|--- .... ....
....|..|C-4 CF.F ....|F#3 2F1F ....|C#4 2FFF ....
....|..|--- .... ....|--- .... ....|--- .... ....
....|..|--- .... ....|--- .... ....|--- .... ....
....|..|--- .... ....|--- .... ....|--- .... ....
....|..|C-4 AF.F ....|F#3 2F1F ....|--- .... ....
 D#4|..|D#2 2A.F ....|--- .... ....|--- .... ....
....|..|--- .... ....|--- .... ....|--- .... ....
....|..|--- .... ....|--- .... ....|--- .... ....
....|..|--- .... ....|F#3 2F1F ....|--- .... ....
....|..|--- .... ....|--- .... ....|--- .... ....
....|..|--- .... ....|--- .... ....|--- .... ....
....|..|--- .... ....|--- .... ....|--- .... ....
....|..|C-4 AF.F ....|F#3 2F1F ....|C#4 2FFF ....
 D#4|..|D#2 2A.F ....|--- .... ....|--- .... ....
....|..|--- .... ....|--- .... ....|--- .... ....
....|..|--- .... ....|--- .... ....|--- .... ....
....|..|--- .... ....|A#3 2F37 ....|--- .... ....
....|..|--- .... ....|--- .... ....|--- .... ....
....|..|--- .... ....|--- .... ....|--- .... ....
....|..|--- .... ....|--- .... ....|--- .... ....
....|..|C-4 CF.F ....|F#3 2F1F ....|--- .... ....
 D#4|..|D#2 2A.F ....|--- .... ....|--- .... ....
....|..|--- .... ....|--- .... ....|--- .... ....
....|..|--- .... ....|--- .... ....|--- .... ....
....|..|C-4 CF.A ....|F#3 2F1A ....|C#4 2FFF ....
....|..|--- .... ....|--- .... ....|--- .... ....
....|..|--- .... ....|--- .... ....|--- .... ....
....|..|--- .... ....|--- .... ....|--- .... ....
....|..|C-3 RF.F ....|F#3 2F1F ....|--- .... ....
 D#4|..|D#2 2A.F ....|--- .... ....|--- .... ....
....|..|--- .... ....|--- .... ....|--- .... ....
....|..|--- .... ....|--- .... ....|--- .... ....
....|..|--- .... ....|F#3 2F1F ....|--- .... ....
....|..|--- .... ....|--- .... ....|--- .... ....
....|..|--- .... ....|--- .... ....|--- .... ....
....|..|--- .... ....|--- .... ....|--- .... ....

[Pattern40]
....|..|C-4 AF.F ....|F#3 2F1F ....|C#4 2FFF ....
....|..|D#2 2F.7 ....|--- .... ....|--- .... ....
....|..|--- .... ....|--- .... ....|--- .... ....
....|..|--- .... ....|--- .... ....|--- .... ....
....|..|--- .... ....|--- .... ....|--- .... ....
....|..|--- .... ....|--- .... ....|--- .... ....
....|..|--- .... ....|--- .... ....|--- .... ....
....|..|--- .... ....|--- .... ....|--- .... ....
....|..|C-4 AF.F ....|F#3 2F17 ....|--- .... ....
 D#4|..|D#3 2C.F ....|--- .... ....|--- .... ....
....|..|--- .... ....|--- .... ....|--- .... ....
....|..|--- .... ....|--- .... ....|--- .... ....
....|..|C-4 CF.7 ....|F#3 2F17 ....|C#4 2FFF ....
....|..|--- .... ....|--- .... ....|--- .... ....
....|..|--- .... ....|--- .... ....|--- .... ....
....|..|--- .... ....|--- .... ....|--- .... ....
....|..|C-4 CF.F ....|F#3 2F1F ....|--- .... ....
 D#4|..|D#3 2C.F ....|--- .... ....|--- .... ....
....|..|--- .... ....|--- .... ....|--- .... ....
....|..|--- .... ....|--- .... ....|--- .... ....
....|..|--- .... ....|F#3 2F17 ....|--- .... ....
....|..|--- .... ....|--- .... ....|--- .... ....
....|..|--- .... ....|--- .... ....|--- .... ....
....|..|--- .... ....|--- .... ....|--- .... ....
....|..|C-3 RF.F ....|F#3 2F1F ....|C#4 2FFF ....
 D#4|..|D#3 2C.F ....|--- .... ....|--- .... ....
....|..|--- .... ....|--- .... ....|--- .... ....
....|..|--- .... ....|--- .... ....|--- .... ....
....|..|--- .... ....|F#3 2F1F ....|--- .... ....
....|..|--- .... ....|--- .... ....|--- .... ....
....|..|--- .... ....|--- .... ....|--- .... ....
....|..|--- .... ....|--- .... ....|--- .... ....
....|..|C-3 RF.F ....|F#3 2F1F ....|--- .... ....
 D#4|..|D#3 2C.F ....|--- .... ....|--- .... ....
....|..|--- .... ....|--- .... ....|--- .... ....
....|..|--- .... ....|--- .... ....|--- .... ....
....|..|--- .... ....|F#3 2F1F ....|B-4 2F.F ....
....|..|--- .... ....|--- .... ....|--- .... ....
....|..|--- .... ....|--- .... ....|--- .... ....
....|..|--- .... ....|--- .... ....|--- .... ....
....|..|C-4 AF.F ....|F#3 2F1F ....|--- .... ....
....|..|D#2 2F.7 ....|--- .... ....|--- .... ....
....|..|--- .... ....|--- .... ....|--- .... ....
....|..|--- .... ....|--- .... ....|--- .... ....
....|..|--- .... ....|F#3 2F17 ....|F#5 2F.F ....
....|..|--- .... ....|--- .... ....|--- .... ....
....|..|--- .... ....|--- .... ....|--- .... ....
....|..|--- .... ....|--- .... ....|--- .... ....
....|..|C-4 AF.F ....|F#3 2F1F ....|C#4 2FF7 ....
 G#3|..|G#1 2A.F ....|--- .... ....|--- .... ....
....|..|--- .... ....|--- .... ....|--- .... ....
....|..|--- .... ....|--- .... ....|--- .... ....
....|..|--- .... ....|F#3 2F1A ....|F#5 2F.F ....
....|..|--- .... ....|--- .... ....|--- .... ....
....|..|--- .... ....|--- .... ....|--- .... ....
....|..|--- .... ....|--- .... ....|--- .... ....
....|..|C-3 RF.F ....|F#3 2F1F ....|--- .... ....
....|..|D#3 2F.7 ....|--- .... ....|--- .... ....
....|..|--- .... ....|--- .... ....|--- .... ....
....|..|--- .... ....|--- .... ....|--- .... ....
....|..|--- .... ....|F#3 2F1F ....|C#4 2FF7 ....
....|..|--- .... ....|--- .... ....|--- .... ....
....|..|--- .... ....|--- .... ....|--- .... ....
....|..|--- .... ....|--- .... ....|--- .... ....
....|..|C-4 AF.F ....|F#3 2F1F ....|D#5 2F.F ....
 B-3|..|B-1 2A.F ....|--- .... ....|--- .... ....
....|..|--- .... ....|--- .... ....|--- .... ....
....|..|--- .... ....|--- .... ....|--- .... ....
....|..|--- .... ....|--- .... ....|F#5 2F.A ....
....|..|--- .... ....|--- .... ....|--- .... ....
....|..|--- .... ....|--- .... ....|--- .... ....
....|..|--- .... ....|--- .... ....|--- .... ....
....|..|C-4 AF.F ....|F#3 2F17 ....|C#4 2FF7 ....
 B-3|..|B-1 2A.F ....|--- .... ....|--- .... ....
....|..|--- .... ....|--- .... ....|--- .... ....
....|..|--- .... ....|--- .... ....|--- .... ....
....|..|--- .... ....|F#3 2F17 ....|A#5 2F.F ....
....|..|--- .... ....|--- .... ....|--- .... ....
....|..|--- .... ....|--- .... ....|--- .... ....
....|..|--- .... ....|--- .... ....|--- .... ....
....|..|C-4 CF.F ....|F#3 2F1F ....|D#5 2F.F ....
 B-3|..|B-1 2A.F ....|--- .... ....|--- .... ....
....|..|--- .... ....|--- .... ....|--- .... ....
....|..|--- .... ....|--- .... ....|--- .... ....
....|..|--- .... ....|F#3 2F17 ....|B-4 2F.7 ....
....|..|--- .... ....|--- .... ....|--- .... ....
....|..|--- .... ....|--- .... ....|--- .... ....
....|..|--- .... ....|--- .... ....|--- .... ....
....|..|C-3 RF.F ....|F#3 2F1F ....|A#5 2F.F ....
 B-3|..|B-1 2A.F ....|--- .... ....|--- .... ....
....|..|--- .... ....|--- .... ....|--- .... ....
....|..|--- .... ....|--- .... ....|--- .... ....
....|..|C-4 CF.F ....|F#3 2F1F ....|D#5 2F.F ....
....|..|--- .... ....|--- .... ....|--- .... ....
....|..|--- .... ....|--- .... ....|--- .... ....
....|..|--- .... ....|--- .... ....|--- .... ....
....|..|C-4 AF.F ....|F#3 2F1F ....|--- .... ....
 B-3|..|B-1 2A.F ....|--- .... ....|--- .... ....
....|..|--- .... ....|--- .... ....|--- .... ....
....|..|--- .... ....|--- .... ....|--- .... ....
....|..|--- .... ....|F#3 2F1F ....|A#5 2F.F ....
....|..|--- .... ....|--- .... ....|--- .... ....
....|..|--- .... ....|--- .... ....|--- .... ....
....|..|--- .... ....|--- .... ....|--- .... ....
....|..|C-4 AF.F ....|F#3 2F1F ....|D#5 2F.F ....
 B-3|..|B-1 2A.F ....|--- .... ....|--- .... ....
....|..|--- .... ....|--- .... ....|--- .... ....
....|..|--- .... ....|--- .... ....|--- .... ....
....|..|--- .... ....|F#3 2F17 ....|--- .... ....
....|..|--- .... ....|--- .... ....|--- .... ....
....|..|--- .... ....|--- .... ....|--- .... ....
....|..|--- .... ....|--- .... ....|--- .... ....
....|..|C-4 CF.F ....|F#3 2F1F ....|D#5 2F.7 ....
 B-3|..|B-1 2A.F ....|--- .... ....|--- .... ....
....|..|--- .... ....|--- .... ....|--- .... ....
....|..|--- .... ....|--- .... ....|--- .... ....
....|..|C-4 CF.A ....|F#3 2F1A ....|D#5 2F.A ....
....|..|--- .... ....|--- .... ....|--- .... ....
....|..|--- .... ....|--- .... ....|--- .... ....
....|..|--- .... ....|--- .... ....|--- .... ....
....|..|C-3 RF.F ....|F#3 2F1F ....|A#5 2F.F ....
 B-3|..|B-1 2A.F ....|--- .... ....|--- .... ....
....|..|--- .... ....|--- .... ....|--- .... ....
....|..|--- .... ....|--- .... ....|--- .... ....
....|..|--- .... ....|F#3 2F1F ....|A#5 2F.7 ....
....|..|--- .... ....|--- .... ....|--- .... ....
....|..|--- .... ....|--- .... ....|--- .... ....
....|..|--- .... ....|--- .... ....|--- .... ....
....|..|C-4 AF.F ....|G#3 2F2F ....|A#5 2F.F ....
 C#4|..|C#2 2A.F ....|--- .... ....|--- .... ....
....|..|--- .... ....|--- .... ....|--- .... ....
....|..|--- .... ....|--- .... ....|--- .... ....
....|..|--- .... ....|--- .... ....|--- .... ....
....|..|--- .... ....|--- .... ....|--- .... ....
....|..|--- .... ....|--- .... ....|--- .... ....
....|..|--- .... ....|--- .... ....|--- .... ....
....|..|C-4 AF.F ....|F#3 2F17 ....|C#6 2F.F ....
 C#4|..|C#2 2A.F ....|--- .... ....|--- .... ....
....|..|--- .... ....|--- .... ....|--- .... ....
....|..|--- .... ....|--- .... ....|--- .... ....
....|..|C-4 CF.7 ....|F#3 2F17 ....|A#5 2F.F ....
....|..|--- .... ....|--- .... ....|--- .... ....
....|..|--- .... ....|--- .... ....|--- .... ....
....|..|--- .... ....|--- .... ....|--- .... ....
....|..|C-4 CF.F ....|G#3 2F2F ....|C#6 2F.F ....
 C#4|..|C#2 2A.F ....|--- .... ....|--- .... ....
....|..|--- .... ....|--- .... ....|--- .... ....
....|..|--- .... ....|--- .... ....|--- .... ....
....|..|--- .... ....|F#3 2F17 ....|A#5 2F.F ....
....|..|--- .... ....|--- .... ....|--- .... ....
....|..|--- .... ....|--- .... ....|--- .... ....
....|..|--- .... ....|--- .... ....|--- .... ....
....|..|C-3 RF.F ....|G#3 2F2F ....|A#5 2F.F ....
 C#4|..|C#2 2A.F ....|--- .... ....|--- .... ....
....|..|--- .... ....|--- .... ....|--- .... ....
....|..|--- .... ....|--- .... ....|--- .... ....
....|..|C-4 CF.F ....|G#3 2F2F ....|--- .... ....
....|..|--- .... ....|--- .... ....|--- .... ....
....|..|--- .... ....|--- .... ....|--- .... ....
....|..|--- .... ....|--- .... ....|--- .... ....
....|..|C-4 AF.F ....|G#3 2F2F ....|A#5 2F.F ....
 C#4|..|C#2 2A.F ....|--- .... ....|--- .... ....
....|..|--- .... ....|--- .... ....|--- .... ....
....|..|--- .... ....|--- .... ....|--- .... ....
....|..|--- .... ....|G#3 2F2F ....|A#5 2F.A ....
....|..|--- .... ....|--- .... ....|--- .... ....
....|..|--- .... ....|--- .... ....|--- .... ....
....|..|--- .... ....|--- .... ....|--- .... ....
....|..|C-4 AF.F ....|G#3 2F2F ....|F#5 2F.F ....
 B-3|..|B-1 2A.F ....|--- .... ....|--- .... ....
....|..|--- .... ....|--- .... ....|--- .... ....
....|..|--- .... ....|--- .... ....|--- .... ....
....|..|--- .... ....|F#3 2F17 ....|A#5 2F.A ....
....|..|--- .... ....|--- .... ....|--- .... ....
....|..|--- .... ....|--- .... ....|--- .... ....
....|..|--- .... ....|--- .... ....|--- .... ....
....|..|C-4 CF.F ....|G#3 2F2F ....|G#5 2F.F ....
 C#4|..|C#2 2A.F ....|--- .... ....|--- .... ....
....|..|--- .... ....|--- .... ....|--- .... ....
....|..|--- .... ....|--- .... ....|--- .... ....
....|..|C-4 CF.A ....|G#3 2F2A ....|--- .... ....
....|..|--- .... ....|--- .... ....|--- .... ....
....|..|--- .... ....|--- .... ....|--- .... ....
....|..|--- .... ....|--- .... ....|--- .... ....
....|..|C-3 RF.F ....|G#3 2F2F ....|F#5 2F.F ....
 A#3|..|A#1 2A.F ....|--- .... ....|--- .... ....
....|..|--- .... ....|--- .... ....|--- .... ....
....|..|--- .... ....|--- .... ....|--- .... ....
....|..|--- .... ....|G#3 2F2F ....|A#5 2F.7 ....
....|..|--- .... ....|--- .... ....|--- .... ....
....|..|--- .... ....|--- .... ....|--- .... ....
....|..|--- .... ....|--- .... ....|--- .... ....
....|..|C-4 AF.F ....|A#3 2F3F ....|F#5 2F.F ....
 A#3|..|A#1 2A.F ....|--- .... ....|--- .... ....
....|..|--- .... ....|--- .... ....|--- .... ....
....|..|--- .... ....|--- .... ....|--- .... ....
....|..|--- .... ....|--- .... ....|F-5 2F.F ....
....|..|--- .... ....|--- .... ....|--- .... ....
....|..|--- .... ....|--- .... ....|--- .... ....
....|..|--- .... ....|--- .... ....|F#5 2F.F ....
....|..|C-4 AF.F ....|G#3 2F27 ....|A#5 2F.7 ....
 A#3|..|A#1 2A.F ....|--- .... ....|--- .... ....
....|..|--- .... ....|--- .... ....|--- .... ....
....|..|--- .... ....|--- .... ....|G#5 2F.F ....
....|..|C-4 CF.7 ....|G#3 2F27 ....|--- .... ....
....|..|--- .... ....|--- .... ....|--- .... ....
....|..|--- .... ....|--- .... ....|F-5 2F.F ....
....|..|--- .... ....|--- .... ....|--- .... ....
....|..|C-4 CF.F ....|A#3 2F3F ....|A#5 2F.7 ....
 A#3|..|A#1 2A.F ....|--- .... ....|--- .... ....
....|..|--- .... ....|--- .... ....|F#5 2F.F ....
....|..|--- .... ....|--- .... ....|--- .... ....
....|..|--- .... ....|G#3 2F27 ....|--- .... ....
....|..|--- .... ....|--- .... ....|G#5 2F.F ....
....|..|--- .... ....|--- .... ....|--- .... ....
....|..|--- .... ....|--- .... ....|--- .... ....
....|..|C-3 RF.F ....|A#3 2F3F ....|F#5 2F.7 ....
 A#3|..|A#1 2A.F ....|--- .... ....|F-5 2F.F ....
....|..|--- .... ....|--- .... ....|--- .... ....
....|..|--- .... ....|--- .... ....|--- .... ....
....|..|C-4 CF.F ....|A#3 2F3F ....|F#5 2F.F ....
....|..|--- .... ....|--- .... ....|--- .... ....
....|..|--- .... ....|--- .... ....|--- .... ....
....|..|--- .... ....|--- .... ....|F#5 2F.A ....
....|..|C-4 AF.F ....|A#3 2F3F ....|F-5 2F.F ....
 A#3|..|A#1 2A.F ....|--- .... ....|--- .... ....
....|..|--- .... ....|--- .... ....|--- .... ....
....|..|--- .... ....|--- .... ....|G#5 2F.A ....
....|..|--- .... ....|A#3 2F3F ....|F#5 2F.F ....
....|..|--- .... ....|--- .... ....|--- .... ....
....|..|--- .... ....|--- .... ....|F-5 2F.A ....
....|..|--- .... ....|--- .... ....|--- .... ....
....|..|C-4 AF.F ....|A#3 2F3F ....|G#5 2F.F ....
 A#3|..|A#1 2A.F ....|--- .... ....|--- .... ....
....|..|--- .... ....|--- .... ....|F#5 2F.A ....
....|..|--- .... ....|--- .... ....|--- .... ....
....|..|--- .... ....|G#3 2F27 ....|A#5 2F.F ....
....|..|--- .... ....|--- .... ....|G#5 2F.A ....
....|..|--- .... ....|--- .... ....|--- .... ....
....|..|--- .... ....|--- .... ....|--- .... ....
....|..|C-4 CF.F ....|A#3 2F3F ....|A#5 2F.F ....
 A#3|..|A#1 2A.F ....|--- .... ....|F-5 2F.A ....
....|..|--- .... ....|--- .... ....|--- .... ....
....|..|--- .... ....|--- .... ....|--- .... ....
....|..|C-4 CF.A ....|A#3 2F3A ....|A#5 2F.F ....
....|..|--- .... ....|--- .... ....|--- .... ....
....|..|--- .... ....|--- .... ....|--- .... ....
....|..|--- .... ....|--- .... ....|F#5 2F.7 ....
....|..|C-3 RF.F ....|A#3 2F3F ....|B-5 2F.F ....
 D#4|..|D#2 2A.F ....|--- .... ....|--- .... ....
....|..|--- .... ....|--- .... ....|--- .... ....
....|..|--- .... ....|--- .... ....|G#5 2F.7 ....
....|..|--- .... ....|A#3 2F3F ....|B-5 2F.F ....
....|..|--- .... ....|--- .... ....|--- .... ....
....|..|--- .... ....|--- .... ....|F-5 2F.7 ....
....|..|--- .... ....|--- .... ....|--- .... ....

[Pattern41]
....|..|C-4 AF.F ....|A#3 2F4F ....|B-5 2F.F ....
 D#4|..|D#2 2A.F ....|--- .... ....|--- .... ....
....|..|--- .... ....|--- .... ....|F#5 2F.7 ....
....|..|--- .... ....|--- .... ....|--- .... ....
....|..|--- .... ....|--- .... ....|C#6 2F.F ....
....|..|--- .... ....|--- .... ....|G#5 2F.7 ....
....|..|--- .... ....|--- .... ....|--- .... ....
....|..|--- .... ....|--- .... ....|--- .... ....
....|..|C-4 AF.F ....|A#3 2F37 ....|A#5 2F.F ....
 D#4|..|D#2 2A.F ....|--- .... ....|F-5 2F.7 ....
....|..|--- .... ....|--- .... ....|--- .... ....
....|..|--- .... ....|--- .... ....|--- .... ....
....|..|C-4 CF.7 ....|A#3 2F37 ....|G#5 2F.F ....
....|..|--- .... ....|--- .... ....|--- .... ....
....|..|--- .... ....|--- .... ....|--- .... ....
....|..|--- .... ....|--- .... ....|--- .... ....
....|..|C-4 CF.F ....|A#3 2F4F ....|F#5 2F.F ....
 D#4|..|D#2 2A.F ....|--- .... ....|--- .... ....
....|..|--- .... ....|--- .... ....|--- .... ....
....|..|--- .... ....|--- .... ....|--- .... ....
....|..|--- .... ....|A#3 2F37 ....|F#5 2F.7 ....
....|..|--- .... ....|--- .... ....|--- .... ....
....|..|--- .... ....|--- .... ....|--- .... ....
....|..|--- .... ....|--- .... ....|--- .... ....
....|..|C-3 RF.F ....|A#3 2F4F ....|A#5 2F.F ....
 D#4|..|D#2 2A.F ....|--- .... ....|--- .... ....
....|..|--- .... ....|--- .... ....|--- .... ....
....|..|--- .... ....|--- .... ....|--- .... ....
....|..|C-4 CF.F ....|A#3 2F4F ....|C#6 2F.F ....
....|..|--- .... ....|--- .... ....|--- .... ....
....|..|--- .... ....|--- .... ....|--- .... ....
....|..|--- .... ....|--- .... ....|--- .... ....
....|..|C-4 AF.F ....|A#3 2F4F ....|C#6 2F.F ....
 D#4|..|D#2 2A.F ....|--- .... ....|--- .... ....
....|..|--- .... ....|--- .... ....|--- .... ....
....|..|--- .... ....|--- .... ....|--- .... ....
....|..|--- .... ....|A#3 2F4F ....|A#5 2F.F ....
....|..|--- .... ....|--- .... ....|--- .... ....
....|..|--- .... ....|--- .... ....|--- .... ....
....|..|--- .... ....|--- .... ....|--- .... ....
....|..|C-4 AF.F ....|A#3 2F4F ....|G#5 2F.F ....
 B-3|..|B-1 2A.F ....|--- .... ....|--- .... ....
....|..|--- .... ....|--- .... ....|--- .... ....
....|..|--- .... ....|--- .... ....|--- .... ....
....|..|--- .... ....|A#3 2F37 ....|F#5 2F.F ....
....|..|--- .... ....|--- .... ....|--- .... ....
....|..|--- .... ....|--- .... ....|--- .... ....
....|..|--- .... ....|--- .... ....|--- .... ....
....|..|C-4 CF.F ....|A#3 2F4F ....|F-5 2F.F ....
 D#4|..|D#2 2A.F ....|--- .... ....|--- .... ....
....|..|--- .... ....|--- .... ....|--- .... ....
....|..|--- .... ....|--- .... ....|--- .... ....
....|..|C-4 CF.A ....|A#3 2F4A ....|F#5 2F.F ....
....|..|--- .... ....|--- .... ....|--- .... ....
....|..|--- .... ....|--- .... ....|--- .... ....
....|..|--- .... ....|--- .... ....|--- .... ....
....|..|C-3 RF.F ....|A#3 2F4F ....|G#5 2F.F ....
 C#4|..|C#2 2A.F ....|--- .... ....|--- .... ....
....|..|--- .... ....|--- .... ....|--- .... ....
....|..|--- .... ....|--- .... ....|--- .... ....
....|..|--- .... ....|A#3 2F4F ....|B-5 2F.F ....
....|..|--- .... ....|--- .... ....|--- .... ....
....|..|--- .... ....|--- .... ....|--- .... ....
....|..|--- .... ....|--- .... ....|--- .... ....
....|..|C-4 AF.F ....|G#3 2F3F ....|C#6 2F.F ....
 B-3|..|B-1 2A.F ....|--- .... ....|--- .... ....
....|..|--- .... ....|--- .... ....|--- .... ....
....|..|--- .... ....|--- .... ....|--- .... ....
....|..|--- .... ....|--- .... ....|C#6 2F.F ....
....|..|--- .... ....|--- .... ....|--- .... ....
....|..|--- .... ....|--- .... ....|--- .... ....
....|..|--- .... ....|--- .... ....|--- .... ....
....|..|C-4 AF.F ....|A#3 2F47 ....|B-5 2F.F ....
 B-3|..|B-1 2A.F ....|--- .... ....|--- .... ....
....|..|--- .... ....|--- .... ....|--- .... ....
....|..|--- .... ....|--- .... ....|--- .... ....
....|..|C-4 CF.7 ....|A#3 2F47 ....|A#5 2F.F ....
....|..|--- .... ....|--- .... ....|--- .... ....
....|..|--- .... ....|--- .... ....|--- .... ....
....|..|--- .... ....|--- .... ....|--- .... ....
....|..|C-4 CF.F ....|G#3 2F3F ....|F#5 2F.F ....
 B-3|..|B-1 2A.F ....|--- .... ....|--- .... ....
....|..|--- .... ....|--- .... ....|--- .... ....
....|..|--- .... ....|--- .... ....|--- .... ....
....|..|--- .... ....|A#3 2F47 ....|F#5 2F.F ....
....|..|--- .... ....|--- .... ....|--- .... ....
....|..|--- .... ....|--- .... ....|--- .... ....
....|..|--- .... ....|--- .... ....|--- .... ....
....|..|C-3 RF.F ....|G#3 2F3F ....|G#5 2F.F ....
 B-3|..|B-1 2A.F ....|--- .... ....|--- .... ....
....|..|--- .... ....|--- .... ....|--- .... ....
....|..|--- .... ....|--- .... ....|--- .... ....
....|..|C-4 CF.F ....|G#3 2F3F ....|A#5 2F.F ....
....|..|--- .... ....|--- .... ....|--- .... ....
....|..|--- .... ....|--- .... ....|--- .... ....
....|..|--- .... ....|--- .... ....|--- .... ....
....|..|C-4 AF.F ....|G#3 2F3F ....|F#5 2F.F ....
 B-3|..|B-1 2A.F ....|--- .... ....|--- .... ....
....|..|--- .... ....|--- .... ....|--- .... ....
....|..|--- .... ....|--- .... ....|--- .... ....
....|..|--- .... ....|G#3 2F3F ....|F#5 2F.F ....
....|..|--- .... ....|--- .... ....|--- .... ....
....|..|--- .... ....|--- .... ....|--- .... ....
....|..|--- .... ....|--- .... ....|--- .... ....
....|..|C-4 AF.F ....|G#3 2F3F ....|G#5 2F.F ....
 B-3|..|B-1 2A.F ....|--- .... ....|--- .... ....
....|..|--- .... ....|--- .... ....|--- .... ....
....|..|--- .... ....|--- .... ....|--- .... ....
....|..|--- .... ....|A#3 2F47 ....|A#5 2F.F ....
....|..|--- .... ....|--- .... ....|--- .... ....
....|..|--- .... ....|--- .... ....|--- .... ....
....|..|--- .... ....|--- .... ....|--- .... ....
....|..|C-4 CF.F ....|G#3 2F3F ....|F#5 2F.F ....
 B-3|..|B-1 2A.F ....|--- .... ....|--- .... ....
....|..|--- .... ....|--- .... ....|--- .... ....
....|..|--- .... ....|--- .... ....|--- .... ....
....|..|C-4 CF.A ....|G#3 2F3A ....|F#5 2F.F ....
....|..|--- .... ....|--- .... ....|--- .... ....
....|..|--- .... ....|--- .... ....|--- .... ....
....|..|--- .... ....|--- .... ....|--- .... ....
....|..|C-3 RF.F ....|G#3 2F3F ....|G#5 2F.F ....
 B-3|..|B-1 2A.F ....|--- .... ....|--- .... ....
....|..|--- .... ....|--- .... ....|--- .... ....
....|..|--- .... ....|--- .... ....|--- .... ....
....|..|--- .... ....|G#3 2F3F ....|F#5 2F.F ....
....|..|--- .... ....|--- .... ....|--- .... ....
....|..|--- .... ....|--- .... ....|--- .... ....
....|..|--- .... ....|--- .... ....|--- .... ....
....|..|C-4 AF.F ....|A#3 2F3F ....|C#6 2F.F ....
 C#4|..|C#2 2A.F ....|--- .... ....|--- .... ....
....|..|--- .... ....|--- .... ....|--- .... ....
....|..|--- .... ....|--- .... ....|--- .... ....
....|..|--- .... ....|--- .... ....|C#6 2F.F ....
....|..|--- .... ....|--- .... ....|--- .... ....
....|..|--- .... ....|--- .... ....|--- .... ....
....|..|--- .... ....|--- .... ....|--- .... ....
....|..|C-4 AF.F ....|G#3 2F37 ....|B-5 2F.F ....
 C#4|..|C#2 2A.F ....|--- .... ....|--- .... ....
....|..|--- .... ....|--- .... ....|--- .... ....
....|..|--- .... ....|--- .... ....|--- .... ....
....|..|C-4 CF.7 ....|G#3 2F37 ....|A#5 2F.F ....
....|..|--- .... ....|--- .... ....|--- .... ....
....|..|--- .... ....|--- .... ....|--- .... ....
....|..|--- .... ....|--- .... ....|--- .... ....
....|..|C-4 CF.F ....|A#3 2F3F ....|F#5 2F.F ....
 C#4|..|C#2 2A.F ....|--- .... ....|--- .... ....
....|..|--- .... ....|--- .... ....|--- .... ....
....|..|--- .... ....|--- .... ....|--- .... ....
....|..|--- .... ....|G#3 2F37 ....|F#5 2F.F ....
....|..|--- .... ....|--- .... ....|--- .... ....
....|..|--- .... ....|--- .... ....|--- .... ....
....|..|--- .... ....|--- .... ....|--- .... ....
....|..|C-3 RF.F ....|A#3 2F3F ....|G#5 2F.F ....
 C#4|..|C#2 2A.F ....|--- .... ....|--- .... ....
....|..|--- .... ....|--- .... ....|--- .... ....
....|..|--- .... ....|--- .... ....|--- .... ....
....|..|C-4 CF.F ....|A#3 2F3F ....|A#5 2F.F ....
....|..|--- .... ....|--- .... ....|--- .... ....
....|..|--- .... ....|--- .... ....|--- .... ....
....|..|--- .... ....|--- .... ....|--- .... ....
....|..|C-4 AF.F ....|A#3 2F3F ....|F#5 2F.F ....
 C#4|..|C#2 2A.F ....|--- .... ....|--- .... ....
....|..|--- .... ....|--- .... ....|--- .... ....
....|..|--- .... ....|--- .... ....|--- .... ....
....|..|--- .... ....|A#3 2F3F ....|F#5 2F.F ....
....|..|--- .... ....|--- .... ....|--- .... ....
....|..|--- .... ....|--- .... ....|--- .... ....
....|..|--- .... ....|--- .... ....|--- .... ....
....|..|C-4 AF.F ....|A#3 2F3F ....|G#5 2F.F ....
 C#4|..|C#2 2A.F ....|--- .... ....|--- .... ....
....|..|--- .... ....|--- .... ....|--- .... ....
....|..|--- .... ....|--- .... ....|--- .... ....
....|..|--- .... ....|G#3 2F37 ....|A#5 2F.F ....
....|..|--- .... ....|--- .... ....|--- .... ....
....|..|--- .... ....|--- .... ....|--- .... ....
....|..|--- .... ....|--- .... ....|--- .... ....
....|..|C-4 CF.F ....|A#3 2F3F ....|F#5 2F.F ....
 C#4|..|C#2 2A.F ....|--- .... ....|--- .... ....
....|..|--- .... ....|--- .... ....|--- .... ....
....|..|--- .... ....|--- .... ....|--- .... ....
....|..|C-4 CF.A ....|A#3 2F3A ....|F#5 2F.F ....
....|..|--- .... ....|--- .... ....|--- .... ....
....|..|--- .... ....|--- .... ....|--- .... ....
....|..|--- .... ....|--- .... ....|--- .... ....
....|..|C-3 RF.F ....|A#3 2F3F ....|G#5 2F.F ....
 C#4|..|C#2 2A.F ....|--- .... ....|--- .... ....
....|..|--- .... ....|--- .... ....|--- .... ....
....|..|--- .... ....|--- .... ....|--- .... ....
....|..|--- .... ....|A#3 2F3F ....|F#5 2F.F ....
....|..|--- .... ....|--- .... ....|--- .... ....
....|..|--- .... ....|--- .... ....|--- .... ....
....|..|--- .... ....|--- .... ....|--- .... ....
....|..|C-4 AF.F ....|F#3 2F1F ....|C#6 2F.F ....
 D#4|..|D#2 2A.F ....|--- .... ....|--- .... ....
....|..|--- .... ....|--- .... ....|--- .... ....
....|..|--- .... ....|--- .... ....|--- .... ....
....|..|--- .... ....|--- .... ....|C#6 2F.F ....
....|..|--- .... ....|--- .... ....|--- .... ....
....|..|--- .... ....|--- .... ....|--- .... ....
....|..|--- .... ....|--- .... ....|--- .... ....
....|..|C-4 AF.F ....|A#3 2F37 ....|C#6 2F.F ....
 D#4|..|D#2 2A.F ....|--- .... ....|--- .... ....
....|..|--- .... ....|--- .... ....|--- .... ....
....|..|--- .... ....|--- .... ....|--- .... ....
....|..|C-4 CF.7 ....|A#3 2F37 ....|C#6 2F.F ....
....|..|--- .... ....|--- .... ....|--- .... ....
....|..|--- .... ....|--- .... ....|--- .... ....
....|..|--- .... ....|--- .... ....|--- .... ....
....|..|C-4 CF.F ....|F#3 2F1F ....|F#5 2F.7 ....
 D#4|..|D#2 2A.F ....|--- .... ....|--- .... ....
....|..|--- .... ....|--- .... ....|--- .... ....
....|..|--- .... ....|--- .... ....|--- .... ....
....|..|--- .... ....|A#3 2F37 ....|F#5 2F.7 ....
....|..|--- .... ....|--- .... ....|--- .... ....
....|..|--- .... ....|--- .... ....|--- .... ....
....|..|--- .... ....|--- .... ....|--- .... ....
....|..|C-3 RF.F ....|F#3 2F1F ....|G#5 2F.7 ....
 D#4|..|D#2 2A.F ....|--- .... ....|--- .... ....
....|..|--- .... ....|--- .... ....|--- .... ....
....|..|--- .... ....|--- .... ....|--- .... ....
....|..|--- .... ....|F#3 2F1F ....|A#5 2F.7 ....
....|..|--- .... ....|--- .... ....|--- .... ....
....|..|--- .... ....|--- .... ....|--- .... ....
....|..|--- .... ....|--- .... ....|--- .... ....
....|..|C-4 AF.F ....|F#3 2F1F ....|A#3 2FAF ....
 D#4|..|D#2 2A.F ....|--- .... ....|--- .... ....
....|..|--- .... ....|--- .... ....|--- .... ....
....|..|--- .... ....|--- .... ....|--- .... ....
....|..|--- .... ....|--- .... ....|F#5 2F.7 ....
....|..|--- .... ....|--- .... ....|--- .... ....
....|..|--- .... ....|--- .... ....|--- .... ....
....|..|--- .... ....|--- .... ....|--- .... ....
....|..|C-4 CF.F ....|A#3 2F37 ....|G#5 2F.7 ....
 D#4|..|D#2 2A.F ....|--- .... ....|--- .... ....
....|..|--- .... ....|--- .... ....|--- .... ....
....|..|--- .... ....|--- .... ....|--- .... ....
....|..|C-4 CF.F ....|A#3 2F37 ....|F#5 2F.7 ....
....|..|--- .... ....|--- .... ....|--- .... ....
....|..|--- .... ....|--- .... ....|--- .... ....
....|..|--- .... ....|--- .... ....|--- .... ....
....|..|C-4 AF.F ....|F#3 2F17 ....|C#6 2F.7 ....
 D#4|..|D#2 2A.F ....|--- .... ....|--- .... ....
....|..|--- .... ....|--- .... ....|--- .... ....
....|..|--- .... ....|--- .... ....|--- .... ....
....|..|--- .... ....|F#3 2F1A ....|C#6 2F.7 ....
....|..|--- .... ....|--- .... ....|--- .... ....
....|..|--- .... ....|--- .... ....|--- .... ....
....|..|--- .... ....|--- .... ....|--- .... ....
....|..|C-4 CF.F ....|F#3 2F1A ....|C#6 2F.7 ....
 D#4|..|D#2 2A.F ....|--- .... ....|--- .... ....
....|..|--- .... ....|--- .... ....|--- .... ....
....|..|--- .... ....|--- .... ....|--- .... ....
....|..|C-4 CF.F ....|--- .... ....|C#6 2F.7 ....
....|..|--- .... ....|--- .... ....|--- .... ....
....|..|--- .... ....|--- .... ....|--- .... ....
....|..|--- .... ....|--- .... ....|--- .... ....

[Pattern42]
....|..|C-4 AF.F ....|F#3 2F1F ....|G#4 2F.F ....
 D#4|..|D#2 2A.F ....|--- .... ....|--- .... ....
....|..|--- .... ....|--- .... ....|--- .... ....
....|..|--- .... ....|--- .... ....|--- .... ....
....|..|C-4 CF.A ....|--- .... ....|--- .... ....
....|..|--- .... ....|--- .... ....|--- .... ....
....|..|--- .... ....|--- .... ....|--- .... ....
....|..|--- .... ....|--- .... ....|--- .... ....
....|..|C-3 RF.7 ....|F#3 2F17 ....|--- .... ....
....|..|D#2 2F.7 ....|--- .... ....|--- .... ....
....|..|--- .... ....|--- .... ....|--- .... ....
....|..|--- .... ....|--- .... ....|--- .... ....
....|..|--- .... ....|F#3 2F17 ....|--- .... ....
....|..|--- .... ....|--- .... ....|--- .... ....
....|..|--- .... ....|--- .... ....|--- .... ....
....|..|--- .... ....|--- .... ....|--- .... ....
....|..|C-4 AF.7 ....|F#3 2F17 ....|A#3 2FA7 ....
....|..|D#2 2F.7 ....|--- .... ....|--- .... ....
....|..|--- .... ....|--- .... ....|--- .... ....
....|..|--- .... ....|--- .... ....|--- .... ....
....|..|C-4 CF.A ....|--- .... ....|--- .... ....
....|..|--- .... ....|--- .... ....|--- .... ....
....|..|--- .... ....|--- .... ....|--- .... ....
....|..|--- .... ....|--- .... ....|--- .... ....
....|..|C-4 CF.7 ....|F#3 2F1A ....|G#4 2F.A ....
....|..|D#2 2F.7 ....|--- .... ....|--- .... ....
....|..|--- .... ....|--- .... ....|--- .... ....
....|..|--- .... ....|--- .... ....|--- .... ....
....|..|C-4 CF.7 ....|--- .... ....|--- .... ....
....|..|--- .... ....|--- .... ....|--- .... ....
....|..|--- .... ....|--- .... ....|--- .... ....
....|..|--- .... ....|--- .... ....|--- .... ....
....|..|C-4 AF.7 ....|--- .... ....|--- .... ....
....|..|D#2 2F.7 ....|--- .... ....|--- .... ....
....|..|--- .... ....|--- .... ....|--- .... ....
....|..|--- .... ....|--- .... ....|--- .... ....
....|..|--- .... ....|--- .... ....|--- .... ....
....|..|--- .... ....|--- .... ....|--- .... ....
....|..|--- .... ....|--- .... ....|--- .... ....
....|..|--- .... ....|--- .... ....|--- .... ....
....|..|C-4 CF.7 ....|--- .... ....|--- .... ....
....|..|D#2 2F.7 ....|--- .... ....|--- .... ....
....|..|--- .... ....|--- .... ....|--- .... ....
....|..|--- .... ....|--- .... ....|--- .... ....
....|..|C-4 CF.7 ....|--- .... ....|--- .... ....
....|..|--- .... ....|--- .... ....|--- .... ....
....|..|--- .... ....|--- .... ....|--- .... ....
....|..|--- .... ....|--- .... ....|--- .... ....
....|..|C-4 AF.7 ....|F#3 2F17 ....|G#4 2F.7 ....
....|..|D#2 2F.7 ....|--- .... ....|--- .... ....
....|..|--- .... ....|--- .... ....|--- .... ....
....|..|--- .... ....|--- .... ....|--- .... ....
....|..|--- .... ....|--- .... ....|--- .... ....
....|..|--- .... ....|--- .... ....|--- .... ....
....|..|--- .... ....|--- .... ....|--- .... ....
....|..|--- .... ....|--- .... ....|--- .... ....
....|..|--- .... ....|--- .... ....|--- .... ....
....|..|--- .... ....|--- .... ....|--- .... ....
....|..|--- .... ....|--- .... ....|--- .... ....
....|..|--- .... ....|--- .... ....|--- .... ....
....|..|--- .... ....|--- .... ....|--- .... ....
....|..|--- .... ....|--- .... ....|--- .... ....
....|..|--- .... ....|--- .... ....|--- .... ....
....|..|--- .... ....|--- .... ....|--- .... ....
....|..|R-- .... ....|--- .... ....|--- .... ....
....|..|--- .... ....|--- .... ....|--- .... ....
....|..|--- .... ....|--- .... ....|--- .... ....
....|..|--- .... ....|--- .... ....|--- .... ....
....|..|--- .... ....|--- .... ....|--- .... ....
....|..|--- .... ....|--- .... ....|--- .... ....
....|..|--- .... ....|--- .... ....|--- .... ....
....|..|--- .... ....|--- .... ....|--- .... ....
....|..|--- .... ....|--- .... ....|--- .... ....
....|..|--- .... ....|--- .... ....|--- .... ....
....|..|--- .... ....|--- .... ....|--- .... ....
....|..|--- .... ....|--- .... ....|--- .... ....
....|..|--- .... ....|--- .... ....|--- .... ....
....|..|--- .... ....|--- .... ....|--- .... ....
....|..|--- .... ....|--- .... ....|--- .... ....
....|..|--- .... ....|--- .... ....|--- .... ....
....|..|--- .... ....|--- .... ....|--- .... ....
....|..|--- .... ....|--- .... ....|--- .... ....
....|..|--- .... ....|--- .... ....|--- .... ....
....|..|--- .... ....|--- .... ....|--- .... ....
....|..|--- .... ....|--- .... ....|--- .... ....
....|..|--- .... ....|--- .... ....|--- .... ....
....|..|--- .... ....|--- .... ....|--- .... ....
....|..|--- .... ....|--- .... ....|--- .... ....
....|..|--- .... ....|--- .... ....|--- .... ....
....|..|--- .... ....|--- .... ....|--- .... ....
....|..|--- .... ....|--- .... ....|--- .... ....
....|..|--- .... ....|--- .... ....|--- .... ....
....|..|--- .... ....|--- .... ....|--- .... ....
....|..|--- .... ....|--- .... ....|--- .... ....
....|..|--- .... ....|--- .... ....|--- .... ....
....|..|--- .... ....|--- .... ....|--- .... ....
....|..|--- .... ....|--- .... ....|--- .... ....
....|..|--- .... ....|--- .... ....|--- .... ....
....|..|--- .... ....|--- .... ....|--- .... ....
....|..|--- .... ....|--- .... ....|--- .... ....
....|..|--- .... ....|--- .... ....|--- .... ....
....|..|--- .... ....|--- .... ....|--- .... ....
....|..|--- .... ....|--- .... ....|--- .... ....
....|..|--- .... ....|--- .... ....|--- .... ....
....|..|--- .... ....|--- .... ....|--- .... ....
....|..|--- .... ....|--- .... ....|--- .... ....
....|..|--- .... ....|--- .... ....|--- .... ....
....|..|--- .... ....|--- .... ....|--- .... ....
....|..|--- .... ....|--- .... ....|--- .... ....
....|..|--- .... ....|--- .... ....|--- .... ....
....|..|--- .... ....|--- .... ....|--- .... ....
....|..|--- .... ....|--- .... ....|--- .... ....
....|..|--- .... ....|--- .... ....|--- .... ....
....|..|--- .... ....|--- .... ....|--- .... ....
....|..|--- .... ....|--- .... ....|--- .... ....
....|..|--- .... ....|--- .... ....|--- .... ....
....|..|--- .... ....|--- .... ....|--- .... ....
....|..|--- .... ....|--- .... ....|--- .... ....
....|..|--- .... ....|--- .... ....|--- .... ....
....|..|--- .... ....|--- .... ....|--- .... ....
....|..|--- .... ....|--- .... ....|--- .... ....
....|..|--- .... ....|--- .... ....|--- .... ....
....|..|--- .... ....|--- .... ....|--- .... ....
....|..|--- .... ....|--- .... ....|--- .... ....
....|..|--- .... ....|--- .... ....|--- .... ....
....|..|--- .... ....|--- .... ....|--- .... ....
....|..|--- .... ....|--- .... ....|--- .... ....
....|..|--- .... ....|--- .... ....|--- .... ....
....|..|--- .... ....|--- .... ....|--- .... ....
....|..|--- .... ....|--- .... ....|--- .... ....
....|..|--- .... ....|--- .... ....|--- .... ....
....|..|--- .... ....|--- .... ....|--- .... ....
....|..|--- .... ....|--- .... ....|--- .... ....
....|..|--- .... ....|--- .... ....|--- .... ....
....|..|--- .... ....|--- .... ....|--- .... ....
....|..|--- .... ....|--- .... ....|--- .... ....
....|..|--- .... ....|--- .... ....|--- .... ....
....|..|--- .... ....|--- .... ....|--- .... ....
....|..|--- .... ....|--- .... ....|--- .... ....
....|..|--- .... ....|--- .... ....|--- .... ....
....|..|--- .... ....|--- .... ....|--- .... ....
....|..|--- .... ....|--- .... ....|--- .... ....
....|..|--- .... ....|--- .... ....|--- .... ....
....|..|--- .... ....|--- .... ....|--- .... ....
....|..|--- .... ....|--- .... ....|--- .... ....
....|..|--- .... ....|--- .... ....|--- .... ....
....|..|--- .... ....|--- .... ....|--- .... ....
....|..|--- .... ....|--- .... ....|--- .... ....
....|..|--- .... ....|--- .... ....|--- .... ....
....|..|--- .... ....|--- .... ....|--- .... ....
....|..|--- .... ....|--- .... ....|--- .... ....
....|..|--- .... ....|--- .... ....|--- .... ....
....|..|--- .... ....|--- .... ....|--- .... ....
....|..|--- .... ....|--- .... ....|--- .... ....
....|..|--- .... ....|--- .... ....|--- .... ....
....|..|--- .... ....|--- .... ....|--- .... ....
....|..|--- .... ....|--- .... ....|--- .... ....
....|..|--- .... ....|--- .... ....|--- .... ....
....|..|--- .... ....|--- .... ....|--- .... ....
....|..|--- .... ....|--- .... ....|--- .... ....
....|..|--- .... ....|--- .... ....|--- .... ....
....|..|--- .... ....|--- .... ....|--- .... ....
....|..|--- .... ....|--- .... ....|--- .... ....
....|..|--- .... ....|--- .... ....|--- .... ....
....|..|--- .... ....|--- .... ....|--- .... ....
....|..|--- .... ....|--- .... ....|--- .... ....
....|..|--- .... ....|--- .... ....|--- .... ....
....|..|--- .... ....|--- .... ....|--- .... ....
....|..|--- .... ....|--- .... ....|--- .... ....
....|..|--- .... ....|--- .... ....|--- .... ....
....|..|--- .... ....|--- .... ....|--- .... ....
....|..|--- .... ....|--- .... ....|--- .... ....
....|..|--- .... ....|--- .... ....|--- .... ....
....|..|--- .... ....|--- .... ....|--- .... ....
....|..|--- .... ....|--- .... ....|--- .... ....
....|..|--- .... ....|--- .... ....|--- .... ....
....|..|--- .... ....|--- .... ....|--- .... ....
....|..|--- .... ....|--- .... ....|--- .... ....
....|..|--- .... ....|--- .... ....|--- .... ....
....|..|--- .... ....|--- .... ....|--- .... ....
....|..|--- .... ....|--- .... ....|--- .... ....
....|..|--- .... ....|--- .... ....|--- .... ....
....|..|--- .... ....|--- .... ....|--- .... ....
....|..|--- .... ....|--- .... ....|--- .... ....
....|..|--- .... ....|--- .... ....|--- .... ....
....|..|--- .... ....|--- .... ....|--- .... ....
....|..|--- .... ....|--- .... ....|--- .... ....
....|..|--- .... ....|--- .... ....|--- .... ....
....|..|--- .... ....|--- .... ....|--- .... ....
....|..|--- .... ....|--- .... ....|--- .... ....
....|..|--- .... ....|--- .... ....|--- .... ....
....|..|--- .... ....|--- .... ....|--- .... ....
....|..|--- .... ....|--- .... ....|A#3 2FAF ....
....|..|--- .... ....|--- .... ....|A#3 2FAF ....
....|..|--- .... ....|--- .... ....|--- .... ....
....|..|--- .... ....|--- .... ....|--- .... ....
....|..|--- .... ....|--- .... ....|--- .... ....
....|..|--- .... ....|--- .... ....|--- .... ....
....|..|--- .... ....|--- .... ....|--- .... ....
....|..|--- .... ....|--- .... ....|--- .... ....
....|..|--- .... ....|--- .... ....|--- .... ....
....|..|--- .... ....|--- .... ....|--- .... ....
....|..|--- .... ....|--- .... ....|--- .... ....
....|..|--- .... ....|--- .... ....|--- .... ....
....|..|--- .... ....|--- .... ....|--- .... ....
....|..|--- .... ....|--- .... ....|--- .... ....
....|..|--- .... ....|--- .... ....|--- .... ....
....|..|--- .... ....|--- .... ....|--- .... ....
....|..|--- .... ....|--- .... ....|--- .... ....
....|..|--- .... ....|--- .... ....|--- .... ....
....|..|--- .... ....|--- .... ....|--- .... ....
....|..|--- .... ....|--- .... ....|--- .... ....
....|..|--- .... ....|--- .... ....|--- .... ....
....|..|--- .... ....|--- .... ....|--- .... ....
....|..|--- .... ....|--- .... ....|--- .... ....
....|..|--- .... ....|--- .... ....|--- .... ....
....|..|--- .... ....|--- .... ....|A#3 2FAA ....
....|..|--- .... ....|--- .... ....|A#3 2FAA ....
....|..|--- .... ....|--- .... ....|--- .... ....
....|..|--- .... ....|--- .... ....|--- .... ....
....|..|--- .... ....|--- .... ....|--- .... ....
....|..|--- .... ....|--- .... ....|--- .... ....
....|..|--- .... ....|--- .... ....|--- .... ....
....|..|--- .... ....|--- .... ....|--- .... ....
....|..|--- .... ....|--- .... ....|F#4 2FAF ....
....|..|--- .... ....|--- .... ....|F#4 2FAF ....
....|..|--- .... ....|--- .... ....|--- .... ....
....|..|--- .... ....|--- .... ....|--- .... ....
....|..|--- .... ....|--- .... ....|--- .... ....
....|..|--- .... ....|--- .... ....|--- .... ....
....|..|--- .... ....|--- .... ....|--- .... ....
....|..|--- .... ....|--- .... ....|--- .... ....
....|..|--- .... ....|--- .... ....|--- .... ....
....|..|--- .... ....|--- .... ....|--- .... ....
....|..|--- .... ....|--- .... ....|--- .... ....
....|..|--- .... ....|--- .... ....|--- .... ....
....|..|--- .... ....|--- .... ....|--- .... ....
....|..|--- .... ....|--- .... ....|--- .... ....
....|..|--- .... ....|--- .... ....|--- .... ....
....|..|--- .... ....|--- .... ....|--- .... ....
....|..|--- .... ....|--- .... ....|A#3 2FA7 ....
....|..|--- .... ....|--- .... ....|A#3 2FA7 ....
....|..|--- .... ....|--- .... ....|--- .... ....
....|..|--- .... ....|--- .... ....|--- .... ....
....|..|--- .... ....|--- .... ....|--- .... ....
....|..|--- .... ....|--- .... ....|--- .... ....
....|..|--- .... ....|--- .... ....|--- .... ....
....|..|--- .... ....|--- .... ....|--- .... ....
....|..|--- .... ....|--- .... ....|F#4 2FAA ....
....|..|--- .... ....|--- .... ....|F#4 2FAA ....
....|..|--- .... ....|--- .... ....|--- .... ....
....|..|--- .... ....|--- .... ....|--- .... ....
....|..|--- .... ....|--- .... ....|--- .... ....
....|..|--- .... ....|--- .... ....|--- .... ....
....|..|--- .... ....|--- .... ....|--- .... ....
....|..|--- .... ....|--- .... ....|--- .... ....

[Pattern43]
....|..|C-4 CF.F ....|R-- .... ....|R-- .... ....
....|..|R-- .... ....|--- .... ....|--- .... ....
....|..|--- .... ....|--- .... ....|--- .... ....
....|..|C-4 CF.F ....|--- .... ....|--- .... ....
....|..|--- .... ....|--- .... ....|--- .... ....
....|..|C-4 CF.F ....|--- .... ....|--- .... ....
....|..|--- .... ....|--- .... ....|--- .... ....
....|..|--- .... ....|--- .... ....|--- .... ....
....|..|C-4 9F.F ....|--- .... ....|--- .... ....
....|..|--- .... ....|--- .... ....|--- .... ....
....|..|--- .... ....|--- .... ....|--- .... ....
....|..|--- .... ....|--- .... ....|--- .... ....
....|..|--- .... ....|--- .... ....|--- .... ....
....|..|--- .... ....|--- .... ....|--- .... ....
....|..|--- .... ....|--- .... ....|--- .... ....
....|..|--- .... ....|--- .... ....|--- .... ....
....|..|R-- .... ....|--- .... ....|F#4 2FA7 ....
....|..|--- .... ....|--- .... ....|F#4 2FA7 ....
....|..|--- .... ....|--- .... ....|--- .... ....
....|..|--- .... ....|--- .... ....|--- .... ....
....|..|--- .... ....|--- .... ....|--- .... ....
....|..|--- .... ....|--- .... ....|--- .... ....
....|..|--- .... ....|--- .... ....|--- .... ....
....|..|--- .... ....|--- .... ....|--- .... ....
....|..|C-4 CF.A ....|R-- .... ....|R-- .... ....
....|..|R-- .... ....|--- .... ....|--- .... ....
....|..|--- .... ....|--- .... ....|--- .... ....
....|..|C-4 CF.A ....|--- .... ....|--- .... ....
....|..|--- .... ....|--- .... ....|--- .... ....
....|..|C-4 CF.A ....|--- .... ....|--- .... ....
....|..|--- .... ....|--- .... ....|--- .... ....
....|..|--- .... ....|--- .... ....|--- .... ....
....|..|C-4 9F.A ....|--- .... ....|--- .... ....
....|..|--- .... ....|--- .... ....|--- .... ....
....|..|--- .... ....|--- .... ....|--- .... ....
....|..|--- .... ....|--- .... ....|--- .... ....
....|..|--- .... ....|--- .... ....|--- .... ....
....|..|--- .... ....|--- .... ....|--- .... ....
....|..|--- .... ....|--- .... ....|--- .... ....
....|..|--- .... ....|--- .... ....|--- .... ....
....|..|R-- .... ....|--- .... ....|--- .... ....
....|..|--- .... ....|--- .... ....|--- .... ....
....|..|--- .... ....|--- .... ....|--- .... ....
....|..|--- .... ....|--- .... ....|--- .... ....
....|..|--- .... ....|--- .... ....|--- .... ....
....|..|--- .... ....|--- .... ....|--- .... ....
....|..|--- .... ....|--- .... ....|--- .... ....
....|..|--- .... ....|--- .... ....|--- .... ....
....|..|C-4 CF.7 ....|R-- .... ....|R-- .... ....
....|..|R-- .... ....|--- .... ....|--- .... ....
....|..|--- .... ....|--- .... ....|--- .... ....
....|..|C-4 CF.7 ....|--- .... ....|--- .... ....
....|..|--- .... ....|--- .... ....|--- .... ....
....|..|C-4 CF.7 ....|--- .... ....|--- .... ....
....|..|--- .... ....|--- .... ....|--- .... ....
....|..|--- .... ....|--- .... ....|--- .... ....
....|..|C-4 9F.7 ....|--- .... ....|--- .... ....
....|..|--- .... ....|--- .... ....|--- .... ....
....|..|--- .... ....|--- .... ....|--- .... ....
....|..|--- .... ....|--- .... ....|--- .... ....
....|..|--- .... ....|--- .... ....|--- .... ....
....|..|--- .... ....|--- .... ....|--- .... ....
....|..|--- .... ....|--- .... ....|--- .... ....
....|..|--- .... ....|--- .... ....|--- .... ....

