[Module]
VortexTrackerII=0
Version=3.5
Title=haruka_kanata.mid
Author=oisee ^ 4d 29.05.2010
NoteTable=4
ChipFreq=1750000
Speed=3
PlayOrder=L0,0,2,2,4,5,6,7,8,9,10,11,12,13,14,11,16,17,18,19,20,21,22,19,24,25,26,27,28,29,30,31,32,33,34,35,36,37,38,11,12,41,42,11,16,17,18,19,20,21,22,19,24,25,26,27,28,29,30,31,32,33,34,63,64,65,66,67,68,69,70,71,72,73,74,75,76,77,78,79,80

[Ornament1]
L0,3,8

[Ornament2]
L0,5,9

[Ornament3]
L0,5,10

[Ornament4]
L0,7,12

[Ornament5]
L0,12

[Ornament6]
L0,5

[Ornament7]
L0,3,7

[Ornament8]
L0,7

[Ornament9]
L0,8

[Ornament10]
L0,3,6

[Ornament11]
L0

[Ornament12]
L0

[Ornament13]
L0

[Ornament14]
L0

[Ornament15]
L0,0,12,12,0,0,12,12,0

[Sample1]
TnE +000_ +00_ F_
TnE +000_ +00_ F_
TnE +000_ +00_ F_
TnE +000_ +00_ D_
TnE +000_ +00_ B_
TnE +000_ +00_ B_ L

[Sample2]
TnE +000_ +00_ F_ L

[Sample3]
TnE +001_ +00_ F_
TnE +002_ +00_ F_
TnE +001_ +00_ E_
TnE +002_ +00_ E_
TnE +000_ +00_ E_ L
TnE -001_ +00_ E_
TnE -002_ +00_ E_
TnE -001_ +00_ E_
TnE +000_ +00_ E_
TnE +001_ +00_ E_
TnE +002_ +00_ E_
TnE +001_ +00_ E_

[Sample4]
TnE +002_ +00_ D_
TnE +002_ +00_ D_
TnE +002_ +00_ C_
TnE +002_ +00_ B_
TnE +002_ +00_ A_ L
TnE +002_ +00_ A_
TnE +002_ +00_ A_
TnE +002_ +00_ A_
TnE +002_ +00_ A_
TnE +002_ +00_ A_
TnE +002_ +00_ A_
TnE +002_ +00_ A_

[Sample5]
TnE +000_ +00_ F_
TnE +000_ +00_ F_
tne +000_ +00_ 0_ L

[Sample6]
TnE -001_ +00_ F_ L

[Sample7]
TnE +006_ +00_ F_ L

[Sample8]
tNe +000_ +00_ F_
tNe +000_ +00_ B_
tNe +000_ +00_ 7_
tNe +000_ +00_ 6- L

[Sample9]
TnE +080_ +00_ F_
TnE +100_ +00_ E_
TnE +180_ +00_ E_
TnE +200_ +00_ E_
TnE +240_ +00_ D_
TnE +280_ +00_ D_
TnE +2C0_ +00_ D_
TnE +300_ +00_ C_
TnE +300_ +00_ C_
TnE +340_ +00_ C_
TnE +340_ +00_ C_
TnE +380_ +00_ B_
TnE +380_ +00_ B_
TnE +400_ +00_ B_
TnE +400_ +00_ B_
TnE +480_ +00_ A_
TnE +500_ +00_ 9_
TnE +580_ +00_ 7_
TnE +600_ +00_ 4_
TnE +680_ +00_ 1_
TnE +000_ +00_ 0_ L

[Sample10]
Tne +1C0_ +00_ F_
Tne +280_ +00_ E_
Tne +380_ +00_ C_
Tne +440_ +00_ A_
Tne +480_ +00_ 8_
TnE +000_ +00_ 0_ L

[Sample11]
TNe +200_ -0A_ F_
tNe +000_ +0F_ A_
TNe +200_ -07_ E_
tNe +000_ +0E_ B- L

[Sample12]
TNE +0A0_ +05_ F_
TNE +140_ +02_ D_
TNE +140_ +02_ B_
TNE +100_ +00_ A_ L
TNE +140_ +00_ A_
TNE +200_ +00_ A-

[Sample13]
Tne +200_ +00_ F_
Tne +2C0_ +00_ F_
Tne +380_ +00_ E_
Tne +500_ +00_ C_
Tne +520_ +00_ 9_
tne +000_ +00_ 0_ L

[Sample14]
TNE -100_ +00_ F_
TNE -100_ +00_ D_
TNE -100_ +00_ A_
TNE -100_ +00_ 5_
tne +000_ +00_ 0_ L

[Sample15]
TNE -100_ +00_ 5_
TNE -100_ +00_ 8_
TNE -100_ +00_ B_
TNE -100_ +00_ F_
TNe -100_ +00_ 9- L

[Sample16]
TnE +000_ +00_ C_
TnE +000_ +00_ E_
TnE +000_ +00_ F_
TnE +000_ +00_ F_
TnE +000_ +00_ E_
TnE +000_ +00_ D_
TnE +000_ +00_ C_
TnE +000_ +00_ C_ L
TnE +001_ +00_ C_
TnE +002_ +00_ C_
TnE +003_ +00_ C_
TnE +001_ +00_ C_
TnE +000_ +00_ C_
TnE -001_ +00_ C_
TnE -002_ +00_ C_
TnE -003_ +00_ C_
TnE -001_ +00_ C_
TnE +000_ +00_ C_
TnE +000_ +00_ C_

[Sample17]
Tne +1C0_ +00_ F_
Tne +280_ +00_ D_
Tne +380_ +00_ 7_
TNE +000_ +00_ 0_ L

[Sample18]
tnE +000_ +00_ 0_ L

[Sample19]
TNe +000_ +00_ F_
TNe +000_ +00_ C_
TNe +000_ +00_ 6_
TNe +000_ +01_ A- L

[Sample20]
TNE +140_ +00_ F_
tNE +000_ +00_ B- L

[Sample21]
tNE +000_ +00_ D_
tNE +000_ +00_ 8_
tNE +000_ +00_ 1_
TNE +000_ +00_ 0_ L

[Sample22]
TnE +000_ +00_ D_ L
TnE +000_ +00_ D_
tne +000_ +00_ 9_
tne +000_ +00_ 9_
TnE +000_ +00_ D_
TnE +000_ +00_ D_
tne +000_ +00_ 9_
tne +000_ +00_ 9_
TnE +000_ +00_ D_
TnE +000_ +00_ D_
TnE +000_ +00_ D_
TnE +000_ +00_ D_
TnE +000_ +00_ D_
TnE +000_ +00_ D_
tne +000_ +00_ 9_
tne +000_ +00_ 9_

[Sample23]
TnE +000_ +00_ F_ L
TnE +010_ +01_ F_
TnE +010_ +01_ F_
TnE +010_ +01_ F_
TnE +010_ +01_ F_
TnE +000_ +00_ F_
TnE +000_ +00_ F_
TnE -010_ -01_ F_
TnE -010_ -01_ F_
TnE -010_ -01_ F_
TnE -010_ -01_ F_
TnE +000_ +00_ F_

[Sample24]
TNe +000_ -01_ C_
TNe +000_ -01_ D_
TNe +000_ -01_ E_
TNe +000_ -01_ F_
TNe +000_ -01_ F_
TNe +000_ -01_ F_
TNe +000_ -01_ F_
TNe +000_ -01_ F_
TNe +000_ -01_ E_
TNe +000_ -01_ E_
TNe +000_ -01_ E_
TNe +000_ -01_ F_
TNe +000_ -01_ F_ L

[Sample25]
TNE +000_ +00_ F_
TNE +000_ +00_ F_ L
TNE +000_ +00_ F_
TNE +000_ +00_ F_
TNE +000_ +00_ F-

[Sample26]
tne +000_ +00_ 0_ L

[Sample27]
tne +000_ +00_ 0_ L

[Sample28]
tne +000_ +00_ 0_ L

[Sample29]
tne +000_ +00_ 0_ L

[Sample30]
TNE +000_ +00_ C+ L

[Sample31]
TNe +1C0_ +00_ F_
Tne +280_ +00_ E_
Tne +380_ +00_ C_
Tne +440_ +00_ A_
Tne +480_ +00_ 8_
TnE +000_ +00_ 0_ L

[Pattern0]
 E-3|..|E-1 GA.F ....|R-- .... ....|R-- .... ....
....|..|--- .... ....|--- .... ....|--- .... ....
....|..|--- .... ....|--- .... ....|--- .... ....
....|..|--- .... ....|--- .... ....|--- .... ....
 E-3|..|E-1 .A.F ....|--- .... ....|--- .... ....
....|..|--- .... ....|--- .... ....|--- .... ....
....|..|--- .... ....|--- .... ....|--- .... ....
....|..|--- .... ....|--- .... ....|--- .... ....
 E-3|..|E-1 .A.F ....|--- .... ....|--- .... ....
....|..|--- .... ....|--- .... ....|--- .... ....
....|..|--- .... ....|--- .... ....|--- .... ....
....|..|--- .... ....|--- .... ....|--- .... ....
 F#3|..|F#1 .A.F ....|--- .... ....|--- .... ....
....|..|--- .... ....|--- .... ....|--- .... ....
....|..|--- .... ....|--- .... ....|--- .... ....
....|..|--- .... ....|--- .... ....|--- .... ....
 E-3|..|E-1 .A.F ....|--- .... ....|--- .... ....
....|..|--- .... ....|--- .... ....|--- .... ....
....|..|--- .... ....|--- .... ....|--- .... ....
....|..|--- .... ....|--- .... ....|--- .... ....
 E-3|..|E-1 .A.F ....|--- .... ....|--- .... ....
....|..|--- .... ....|--- .... ....|--- .... ....
....|..|--- .... ....|--- .... ....|--- .... ....
....|..|--- .... ....|--- .... ....|--- .... ....
 A-3|..|A-1 .A.F ....|--- .... ....|--- .... ....
....|..|--- .... ....|--- .... ....|--- .... ....
....|..|--- .... ....|--- .... ....|--- .... ....
....|..|--- .... ....|--- .... ....|--- .... ....
 G#3|..|G#1 .A.F ....|--- .... ....|--- .... ....
....|..|--- .... ....|--- .... ....|--- .... ....
....|..|--- .... ....|--- .... ....|--- .... ....
....|..|--- .... ....|--- .... ....|--- .... ....
 E-3|..|E-1 .A.F ....|--- .... ....|--- .... ....
....|..|--- .... ....|--- .... ....|--- .... ....
....|..|--- .... ....|--- .... ....|--- .... ....
....|..|--- .... ....|--- .... ....|--- .... ....
 E-3|..|E-1 .A.F ....|--- .... ....|--- .... ....
....|..|--- .... ....|--- .... ....|--- .... ....
....|..|--- .... ....|--- .... ....|--- .... ....
....|..|--- .... ....|--- .... ....|--- .... ....
 E-3|..|E-1 .A.F ....|--- .... ....|--- .... ....
....|..|--- .... ....|--- .... ....|--- .... ....
....|..|--- .... ....|--- .... ....|--- .... ....
....|..|--- .... ....|--- .... ....|--- .... ....
 F#3|..|F#1 .A.F ....|--- .... ....|--- .... ....
....|..|--- .... ....|--- .... ....|--- .... ....
....|..|--- .... ....|--- .... ....|--- .... ....
....|..|--- .... ....|--- .... ....|--- .... ....
 E-3|..|E-1 .A.F ....|--- .... ....|--- .... ....
....|..|--- .... ....|--- .... ....|--- .... ....
....|..|--- .... ....|--- .... ....|--- .... ....
....|..|--- .... ....|--- .... ....|--- .... ....
 E-3|..|E-1 .A.F ....|--- .... ....|--- .... ....
....|..|--- .... ....|--- .... ....|--- .... ....
....|..|--- .... ....|--- .... ....|--- .... ....
....|..|--- .... ....|--- .... ....|--- .... ....
 A-3|..|A-1 .A.F ....|--- .... ....|--- .... ....
....|..|--- .... ....|--- .... ....|--- .... ....
....|..|--- .... ....|--- .... ....|--- .... ....
....|..|--- .... ....|--- .... ....|--- .... ....
 G#3|..|G#1 .A.F ....|--- .... ....|--- .... ....
....|..|--- .... ....|--- .... ....|--- .... ....
....|..|--- .... ....|--- .... ....|--- .... ....
....|..|--- .... ....|--- .... ....|--- .... ....

[Pattern2]
 E-3|..|E-1 .A.F ....|G#3 .F1F ....|--- .... ....
....|..|--- .... ....|--- .... ....|--- .... ....
....|..|--- .... ....|--- .... ....|--- .... ....
....|..|--- .... ....|--- .... ....|--- .... ....
 E-3|..|E-1 .A.F ....|G#3 .F1F ....|--- .... ....
....|..|--- .... ....|--- .... ....|--- .... ....
....|..|--- .... ....|--- .... ....|--- .... ....
....|..|--- .... ....|--- .... ....|--- .... ....
 E-3|..|E-1 .A.F ....|R-- .... ....|--- .... ....
....|..|--- .... ....|--- .... ....|--- .... ....
....|..|--- .... ....|--- .... ....|--- .... ....
....|..|--- .... ....|--- .... ....|--- .... ....
 F#3|..|F#1 .A.F ....|G#3 .F1A ....|--- .... ....
....|..|--- .... ....|--- .... ....|--- .... ....
....|..|--- .... ....|--- .... ....|--- .... ....
....|..|--- .... ....|--- .... ....|--- .... ....
 E-3|..|E-1 .A.F ....|G#3 .F1A ....|--- .... ....
....|..|--- .... ....|--- .... ....|--- .... ....
....|..|--- .... ....|--- .... ....|--- .... ....
....|..|--- .... ....|--- .... ....|--- .... ....
 E-3|..|E-1 .A.F ....|R-- .... ....|--- .... ....
....|..|--- .... ....|--- .... ....|--- .... ....
....|..|--- .... ....|--- .... ....|--- .... ....
....|..|--- .... ....|--- .... ....|--- .... ....
 A-3|..|A-1 .A.F ....|G#3 .F1F ....|--- .... ....
....|..|--- .... ....|--- .... ....|--- .... ....
....|..|--- .... ....|--- .... ....|--- .... ....
....|..|--- .... ....|--- .... ....|--- .... ....
 G#3|..|G#1 .A.F ....|G#3 .F1F ....|--- .... ....
....|..|--- .... ....|--- .... ....|--- .... ....
....|..|--- .... ....|--- .... ....|--- .... ....
....|..|--- .... ....|--- .... ....|--- .... ....
 E-3|..|E-1 .A.F ....|R-- .... ....|--- .... ....
....|..|--- .... ....|--- .... ....|--- .... ....
....|..|--- .... ....|--- .... ....|--- .... ....
....|..|--- .... ....|--- .... ....|--- .... ....
 E-3|..|E-1 .A.F ....|G#3 .F1A ....|--- .... ....
....|..|--- .... ....|--- .... ....|--- .... ....
....|..|--- .... ....|--- .... ....|--- .... ....
....|..|--- .... ....|--- .... ....|--- .... ....
 E-3|..|E-1 .A.F ....|G#3 .F1A ....|--- .... ....
....|..|--- .... ....|--- .... ....|--- .... ....
....|..|--- .... ....|--- .... ....|--- .... ....
....|..|--- .... ....|--- .... ....|--- .... ....
 F#3|..|F#1 .A.F ....|R-- .... ....|--- .... ....
....|..|--- .... ....|--- .... ....|--- .... ....
....|..|--- .... ....|--- .... ....|--- .... ....
....|..|--- .... ....|--- .... ....|--- .... ....
 E-3|..|E-1 .A.F ....|G#3 .F17 ....|--- .... ....
....|..|--- .... ....|--- .... ....|--- .... ....
....|..|--- .... ....|--- .... ....|--- .... ....
....|..|--- .... ....|--- .... ....|--- .... ....
 E-3|..|E-1 .A.F ....|G#3 .F17 ....|--- .... ....
....|..|--- .... ....|--- .... ....|--- .... ....
....|..|--- .... ....|--- .... ....|--- .... ....
....|..|--- .... ....|--- .... ....|--- .... ....
 A-3|..|A-1 .A.F ....|R-- .... ....|--- .... ....
....|..|--- .... ....|--- .... ....|--- .... ....
....|..|--- .... ....|--- .... ....|--- .... ....
....|..|--- .... ....|--- .... ....|--- .... ....
 G#3|..|G#1 .A.F ....|--- .... ....|--- .... ....
....|..|--- .... ....|--- .... ....|--- .... ....
....|..|--- .... ....|--- .... ....|--- .... ....
....|..|--- .... ....|--- .... ....|--- .... ....

[Pattern4]
 C#4|..|C#2 .A.F ....|C#4 .F.F ....|--- .... ....
....|..|--- .... ....|--- .... ....|--- .... ....
....|..|--- .... ....|--- .... ....|--- .... ....
....|..|--- .... ....|--- .... ....|--- .... ....
 C#4|..|C#2 .A.F ....|--- .... ....|--- .... ....
....|..|--- .... ....|--- .... ....|--- .... ....
....|..|--- .... ....|--- .... ....|--- .... ....
....|..|--- .... ....|--- .... ....|--- .... ....
 C#4|..|C#2 .A.F ....|C#4 .F.F ....|--- .... ....
....|..|--- .... ....|--- .... ....|--- .... ....
....|..|--- .... ....|--- .... ....|--- .... ....
....|..|--- .... ....|--- .... ....|--- .... ....
 C#4|..|C#2 .A.F ....|C#4 .F.A ....|--- .... ....
....|..|--- .... ....|--- .... ....|--- .... ....
....|..|--- .... ....|--- .... ....|--- .... ....
....|..|--- .... ....|--- .... ....|--- .... ....
 C#4|..|C#2 .A.F ....|C#4 .F.F ....|--- .... ....
....|..|--- .... ....|--- .... ....|--- .... ....
....|..|--- .... ....|--- .... ....|--- .... ....
....|..|--- .... ....|--- .... ....|--- .... ....
 C#4|..|C#2 .A.F ....|C#4 .F.F ....|--- .... ....
....|..|--- .... ....|--- .... ....|--- .... ....
....|..|--- .... ....|--- .... ....|--- .... ....
....|..|--- .... ....|--- .... ....|--- .... ....
 C#4|..|C#2 .A.F ....|C#4 .F.F ....|--- .... ....
....|..|--- .... ....|--- .... ....|--- .... ....
....|..|--- .... ....|--- .... ....|--- .... ....
....|..|--- .... ....|--- .... ....|--- .... ....
 B-3|..|B-1 .A.F ....|D#4 .F.F ....|--- .... ....
....|..|--- .... ....|--- .... ....|--- .... ....
....|..|--- .... ....|--- .... ....|--- .... ....
....|..|--- .... ....|--- .... ....|--- .... ....
 C#4|..|C#2 .A.7 ....|C#4 .F.7 ....|--- .... ....
....|..|--- .... ....|--- .... ....|--- .... ....
....|..|--- .... ....|--- .... ....|--- .... ....
....|..|--- .... ....|--- .... ....|--- .... ....
 B-3|..|B-1 .A.F ....|D#4 .F.F ....|--- .... ....
....|..|--- .... ....|--- .... ....|--- .... ....
....|..|--- .... ....|--- .... ....|--- .... ....
....|..|--- .... ....|--- .... ....|--- .... ....
 B-3|..|B-1 .A.F ....|D#4 .F.F ....|--- .... ....
....|..|--- .... ....|--- .... ....|--- .... ....
....|..|--- .... ....|--- .... ....|--- .... ....
....|..|--- .... ....|--- .... ....|--- .... ....
 B-3|..|B-1 .A.F ....|C#4 .F.7 ....|--- .... ....
....|..|--- .... ....|--- .... ....|--- .... ....
....|..|--- .... ....|--- .... ....|--- .... ....
....|..|--- .... ....|--- .... ....|--- .... ....
 B-3|..|B-1 .A.F ....|D#4 .F.F ....|--- .... ....
....|..|--- .... ....|--- .... ....|--- .... ....
....|..|--- .... ....|--- .... ....|--- .... ....
....|..|--- .... ....|--- .... ....|--- .... ....
 B-3|..|B-1 .A.F ....|D#4 .F.F ....|--- .... ....
....|..|--- .... ....|--- .... ....|--- .... ....
....|..|--- .... ....|--- .... ....|--- .... ....
....|..|--- .... ....|--- .... ....|--- .... ....
 B-3|..|B-1 .A.F ....|D#4 .F.F ....|--- .... ....
....|..|--- .... ....|--- .... ....|--- .... ....
....|..|--- .... ....|--- .... ....|--- .... ....
....|..|--- .... ....|--- .... ....|--- .... ....
 B-3|..|B-1 .A.F ....|D#4 .F.7 ....|--- .... ....
....|..|--- .... ....|--- .... ....|--- .... ....
....|..|--- .... ....|--- .... ....|--- .... ....
....|..|--- .... ....|--- .... ....|--- .... ....

[Pattern5]
 A-3|..|A-1 .A.F ....|E-4 .F.F ....|--- .... ....
....|..|--- .... ....|--- .... ....|--- .... ....
....|..|--- .... ....|--- .... ....|--- .... ....
....|..|--- .... ....|--- .... ....|--- .... ....
 A-3|..|A-1 .A.F ....|D#4 .F.A ....|--- .... ....
....|..|--- .... ....|--- .... ....|--- .... ....
....|..|--- .... ....|--- .... ....|--- .... ....
....|..|--- .... ....|--- .... ....|--- .... ....
 A-3|..|A-1 .A.F ....|E-4 .F.F ....|--- .... ....
....|..|--- .... ....|--- .... ....|--- .... ....
....|..|--- .... ....|--- .... ....|--- .... ....
....|..|--- .... ....|--- .... ....|--- .... ....
 A-3|..|A-1 .A.F ....|D#4 .F.7 ....|--- .... ....
....|..|--- .... ....|--- .... ....|--- .... ....
....|..|--- .... ....|--- .... ....|--- .... ....
....|..|--- .... ....|--- .... ....|--- .... ....
 A-3|..|A-1 .A.F ....|E-4 .F.F ....|--- .... ....
....|..|--- .... ....|--- .... ....|--- .... ....
....|..|--- .... ....|--- .... ....|--- .... ....
....|..|--- .... ....|--- .... ....|--- .... ....
 A-3|..|A-1 .A.F ....|E-4 .F.F ....|--- .... ....
....|..|--- .... ....|F#4 .F.F ....|--- .... ....
....|..|--- .... ....|--- .... ....|--- .... ....
....|..|--- .... ....|--- .... ....|--- .... ....
 A-3|..|A-1 .A.F ....|E-4 .F.7 ....|--- .... ....
....|..|--- .... ....|--- .... ....|--- .... ....
....|..|--- .... ....|--- .... ....|--- .... ....
....|..|--- .... ....|--- .... ....|--- .... ....
 A-3|..|A-1 .A.F ....|F#4 .F.F ....|--- .... ....
....|..|--- .... ....|G#4 .F.F ....|--- .... ....
....|..|--- .... ....|--- .... ....|--- .... ....
....|..|--- .... ....|--- .... ....|--- .... ....
 A-3|..|A-1 .A.F ....|E-4 .F.7 ....|--- .... ....
....|..|--- .... ....|F#4 .F.A ....|--- .... ....
....|..|--- .... ....|--- .... ....|--- .... ....
....|..|--- .... ....|--- .... ....|--- .... ....
 A-3|..|A-1 .A.F ....|G#4 .F.F ....|--- .... ....
....|..|--- .... ....|--- .... ....|--- .... ....
....|..|--- .... ....|--- .... ....|--- .... ....
....|..|--- .... ....|--- .... ....|--- .... ....
 A-3|..|A-1 .A.F ....|F#4 .F.F ....|--- .... ....
....|..|--- .... ....|G#4 .F.A ....|--- .... ....
....|..|--- .... ....|--- .... ....|--- .... ....
....|..|--- .... ....|--- .... ....|--- .... ....
 A-3|..|A-1 .A.F ....|E-4 .F.7 ....|--- .... ....
....|..|--- .... ....|F#4 .F.7 ....|--- .... ....
....|..|--- .... ....|--- .... ....|--- .... ....
....|..|--- .... ....|--- .... ....|--- .... ....
 A-3|..|A-1 .A.F ....|F#4 .F.F ....|--- .... ....
....|..|--- .... ....|--- .... ....|--- .... ....
....|..|--- .... ....|--- .... ....|--- .... ....
....|..|--- .... ....|--- .... ....|--- .... ....
 A-3|..|A-1 .A.F ....|F#4 .F.F ....|--- .... ....
....|..|R-- .... ....|G#4 .F.7 ....|--- .... ....
....|..|--- .... ....|--- .... ....|--- .... ....
....|..|--- .... ....|--- .... ....|--- .... ....
 A-3|..|A-1 .A.7 ....|R-- .... ....|--- .... ....
....|..|--- .... ....|--- .... ....|--- .... ....
....|..|--- .... ....|--- .... ....|--- .... ....
....|..|--- .... ....|--- .... ....|--- .... ....
 A-3|..|A-1 .A.7 ....|G#4 .F.7 ....|--- .... ....
....|..|--- .... ....|--- .... ....|--- .... ....
....|..|--- .... ....|--- .... ....|--- .... ....
....|..|--- .... ....|--- .... ....|--- .... ....

[Pattern6]
 E-3|..|E-1 .A.F ....|B-3 .F2F ....|--- .... ....
....|..|R-- .... ....|--- .... ....|--- .... ....
....|..|--- .... ....|--- .... ....|--- .... ....
....|..|--- .... ....|--- .... ....|--- .... ....
 E-3|..|E-1 .A.F ....|B-3 .F2F ....|--- .... ....
....|..|--- .... ....|--- .... ....|--- .... ....
....|..|--- .... ....|--- .... ....|--- .... ....
....|..|--- .... ....|--- .... ....|--- .... ....
 E-3|..|E-1 .A.F ....|B-3 .F2F ....|--- .... ....
....|..|--- .... ....|--- .... ....|--- .... ....
....|..|--- .... ....|--- .... ....|--- .... ....
....|..|--- .... ....|--- .... ....|--- .... ....
 E-3|..|E-1 .A.F ....|B-3 .F2F ....|--- .... ....
....|..|R-- .... ....|--- .... ....|--- .... ....
....|..|--- .... ....|--- .... ....|--- .... ....
....|..|--- .... ....|--- .... ....|--- .... ....
 E-3|..|E-1 .A.F ....|B-3 .F2F ....|--- .... ....
....|..|--- .... ....|--- .... ....|--- .... ....
....|..|--- .... ....|--- .... ....|--- .... ....
....|..|--- .... ....|--- .... ....|--- .... ....
 E-3|..|E-1 .A.F ....|B-3 .F2F ....|--- .... ....
....|..|--- .... ....|--- .... ....|--- .... ....
....|..|--- .... ....|--- .... ....|--- .... ....
....|..|--- .... ....|--- .... ....|--- .... ....
 E-3|..|E-1 .A.F ....|B-3 .F2F ....|--- .... ....
....|..|--- .... ....|--- .... ....|--- .... ....
....|..|--- .... ....|--- .... ....|--- .... ....
....|..|--- .... ....|--- .... ....|--- .... ....
 E-3|..|E-1 .A.F ....|B-3 .F2F ....|--- .... ....
....|..|--- .... ....|--- .... ....|--- .... ....
....|..|--- .... ....|G#4 .F.F ....|--- .... ....
....|..|--- .... ....|--- .... ....|--- .... ....
 E-3|..|E-1 .A.F ....|A-4 .F.F ....|--- .... ....
....|..|--- .... ....|--- .... ....|--- .... ....
....|..|--- .... ....|--- .... ....|--- .... ....
....|..|--- .... ....|--- .... ....|--- .... ....
 E-3|..|E-1 .A.F ....|A-4 .F.F ....|--- .... ....
....|..|--- .... ....|--- .... ....|--- .... ....
....|..|--- .... ....|--- .... ....|--- .... ....
....|..|--- .... ....|--- .... ....|--- .... ....
 E-3|..|E-1 .A.F ....|A-4 .F.F ....|--- .... ....
....|..|--- .... ....|--- .... ....|--- .... ....
....|..|--- .... ....|G#4 .F.A ....|--- .... ....
....|..|--- .... ....|--- .... ....|--- .... ....
 F#3|..|F#1 .A.F ....|A-4 .F.F ....|--- .... ....
....|..|--- .... ....|--- .... ....|--- .... ....
....|..|--- .... ....|--- .... ....|--- .... ....
....|..|--- .... ....|--- .... ....|--- .... ....
 E-3|..|E-1 .A.F ....|A-4 .F.F ....|--- .... ....
....|..|--- .... ....|--- .... ....|--- .... ....
....|..|--- .... ....|--- .... ....|--- .... ....
....|..|--- .... ....|--- .... ....|--- .... ....
 E-3|..|E-1 .A.F ....|A-4 .F.F ....|--- .... ....
....|..|--- .... ....|--- .... ....|--- .... ....
....|..|--- .... ....|G#4 .F.7 ....|--- .... ....
....|..|--- .... ....|--- .... ....|--- .... ....
 A-3|..|A-1 .A.F ....|A-4 .F.F ....|--- .... ....
....|..|--- .... ....|--- .... ....|--- .... ....
....|..|--- .... ....|--- .... ....|--- .... ....
....|..|--- .... ....|--- .... ....|--- .... ....
 G#3|..|G#1 .A.F ....|A-4 .F.F ....|--- .... ....
....|..|--- .... ....|--- .... ....|--- .... ....
....|..|--- .... ....|--- .... ....|--- .... ....
....|..|--- .... ....|--- .... ....|--- .... ....

[Pattern7]
 E-3|..|E-1 .A.F ....|A#4 .F.F ....|--- .... ....
....|..|--- .... ....|--- .... ....|--- .... ....
....|..|--- .... ....|--- .... ....|--- .... ....
....|..|--- .... ....|--- .... ....|--- .... ....
 E-3|..|E-1 .A.F ....|A#4 .F.F ....|--- .... ....
....|..|--- .... ....|--- .... ....|--- .... ....
....|..|--- .... ....|--- .... ....|--- .... ....
....|..|--- .... ....|--- .... ....|--- .... ....
 E-3|..|E-1 .A.F ....|A#4 .F.F ....|--- .... ....
....|..|--- .... ....|--- .... ....|--- .... ....
....|..|--- .... ....|--- .... ....|--- .... ....
....|..|--- .... ....|--- .... ....|--- .... ....
 E-3|..|E-1 .A.F ....|A#4 .F.F ....|--- .... ....
....|..|--- .... ....|--- .... ....|--- .... ....
....|..|--- .... ....|--- .... ....|--- .... ....
....|..|--- .... ....|--- .... ....|--- .... ....
 E-3|..|E-1 .A.F ....|A#4 .F.F ....|--- .... ....
....|..|--- .... ....|--- .... ....|--- .... ....
....|..|--- .... ....|--- .... ....|--- .... ....
....|..|--- .... ....|--- .... ....|--- .... ....
 E-3|..|E-1 .A.F ....|A#4 .F.F ....|--- .... ....
....|..|--- .... ....|--- .... ....|--- .... ....
....|..|--- .... ....|--- .... ....|--- .... ....
....|..|--- .... ....|--- .... ....|--- .... ....
 E-3|..|E-1 .A.F ....|A#4 .F.F ....|--- .... ....
....|..|--- .... ....|--- .... ....|--- .... ....
....|..|--- .... ....|--- .... ....|--- .... ....
....|..|--- .... ....|--- .... ....|--- .... ....
 E-3|..|E-1 .A.F ....|A#4 .F.F ....|--- .... ....
....|..|--- .... ....|--- .... ....|--- .... ....
....|..|--- .... ....|--- .... ....|--- .... ....
....|..|--- .... ....|--- .... ....|--- .... ....
 E-3|..|E-1 .A.F ....|B-3 .F3F ....|--- .... ....
....|..|--- .... ....|--- .... ....|--- .... ....
....|..|--- .... ....|--- .... ....|--- .... ....
....|..|--- .... ....|--- .... ....|--- .... ....
 E-3|..|E-1 .A.F ....|B-3 .F3F ....|--- .... ....
....|..|--- .... ....|--- .... ....|--- .... ....
....|..|--- .... ....|--- .... ....|--- .... ....
....|..|--- .... ....|--- .... ....|--- .... ....
 E-3|..|E-1 .A.F ....|B-3 .F3F ....|--- .... ....
....|..|--- .... ....|--- .... ....|--- .... ....
....|..|--- .... ....|--- .... ....|--- .... ....
....|..|--- .... ....|--- .... ....|--- .... ....
 F#3|..|F#1 .A.F ....|B-3 .F3F ....|--- .... ....
....|..|--- .... ....|--- .... ....|--- .... ....
....|..|--- .... ....|--- .... ....|--- .... ....
....|..|--- .... ....|--- .... ....|--- .... ....
 E-3|..|E-1 .A.F ....|B-3 .F3F ....|--- .... ....
....|..|--- .... ....|--- .... ....|--- .... ....
....|..|--- .... ....|--- .... ....|--- .... ....
....|..|--- .... ....|--- .... ....|--- .... ....
 E-3|..|E-1 .A.F ....|B-3 .F3F ....|--- .... ....
....|..|--- .... ....|--- .... ....|--- .... ....
....|..|--- .... ....|--- .... ....|--- .... ....
....|..|--- .... ....|--- .... ....|--- .... ....
 A-3|..|A-1 .A.F ....|B-3 .F3F ....|--- .... ....
....|..|--- .... ....|--- .... ....|--- .... ....
....|..|--- .... ....|--- .... ....|--- .... ....
....|..|--- .... ....|--- .... ....|--- .... ....
 G#3|..|G#1 .A.F ....|B-3 .F3F ....|--- .... ....
....|..|--- .... ....|--- .... ....|--- .... ....
....|..|--- .... ....|A-4 .F.F ....|--- .... ....
....|..|--- .... ....|--- .... ....|--- .... ....

[Pattern8]
 C#4|..|C#2 .A.F ....|C#4 .F.F ....|--- .... ....
....|..|--- .... ....|--- .... ....|--- .... ....
....|..|--- .... ....|--- .... ....|--- .... ....
....|..|--- .... ....|--- .... ....|--- .... ....
 C#4|..|C#2 .A.F ....|B-3 .F37 ....|--- .... ....
....|..|--- .... ....|--- .... ....|--- .... ....
....|..|--- .... ....|--- .... ....|--- .... ....
....|..|--- .... ....|--- .... ....|--- .... ....
 C#4|..|C#2 .A.F ....|C#4 .F.F ....|--- .... ....
....|..|--- .... ....|--- .... ....|--- .... ....
....|..|--- .... ....|A-4 .F.A ....|--- .... ....
....|..|--- .... ....|--- .... ....|--- .... ....
 C#4|..|C#2 .A.F ....|B-3 .F37 ....|--- .... ....
....|..|--- .... ....|--- .... ....|--- .... ....
....|..|--- .... ....|--- .... ....|--- .... ....
....|..|--- .... ....|--- .... ....|--- .... ....
 C#4|..|C#2 .A.F ....|C#4 .F.F ....|--- .... ....
....|..|--- .... ....|--- .... ....|--- .... ....
....|..|--- .... ....|--- .... ....|--- .... ....
....|..|--- .... ....|--- .... ....|--- .... ....
 C#4|..|C#2 .A.F ....|C#4 .F.F ....|--- .... ....
....|..|--- .... ....|--- .... ....|--- .... ....
....|..|--- .... ....|A-4 .F.7 ....|--- .... ....
....|..|--- .... ....|--- .... ....|--- .... ....
 C#4|..|C#2 .A.F ....|C#4 .F.F ....|--- .... ....
....|..|--- .... ....|--- .... ....|--- .... ....
....|..|--- .... ....|--- .... ....|--- .... ....
....|..|--- .... ....|--- .... ....|--- .... ....
 B-3|..|B-1 .A.F ....|D#4 .F.F ....|--- .... ....
....|..|--- .... ....|--- .... ....|--- .... ....
....|..|--- .... ....|--- .... ....|--- .... ....
....|..|--- .... ....|--- .... ....|--- .... ....
 C#4|..|C#2 .A.7 ....|C#4 .F.7 ....|--- .... ....
....|..|--- .... ....|--- .... ....|--- .... ....
....|..|--- .... ....|--- .... ....|--- .... ....
....|..|--- .... ....|--- .... ....|--- .... ....
 B-3|..|B-1 .A.F ....|D#4 .F.F ....|--- .... ....
....|..|--- .... ....|--- .... ....|--- .... ....
....|..|--- .... ....|--- .... ....|--- .... ....
....|..|--- .... ....|--- .... ....|--- .... ....
 B-3|..|B-1 .A.F ....|D#4 .F.F ....|--- .... ....
....|..|--- .... ....|--- .... ....|--- .... ....
....|..|--- .... ....|--- .... ....|--- .... ....
....|..|--- .... ....|--- .... ....|--- .... ....
 B-3|..|B-1 .A.F ....|C#4 .F.7 ....|--- .... ....
....|..|--- .... ....|--- .... ....|--- .... ....
....|..|--- .... ....|--- .... ....|--- .... ....
....|..|--- .... ....|--- .... ....|--- .... ....
 B-3|..|B-1 .A.F ....|D#4 .F.F ....|--- .... ....
....|..|--- .... ....|--- .... ....|--- .... ....
....|..|--- .... ....|--- .... ....|--- .... ....
....|..|--- .... ....|--- .... ....|--- .... ....
 B-3|..|B-1 .A.F ....|D#4 .F.F ....|--- .... ....
....|..|--- .... ....|--- .... ....|--- .... ....
....|..|--- .... ....|--- .... ....|--- .... ....
....|..|--- .... ....|--- .... ....|--- .... ....
 B-3|..|B-1 .A.F ....|D#4 .F.F ....|--- .... ....
....|..|--- .... ....|--- .... ....|--- .... ....
....|..|--- .... ....|--- .... ....|--- .... ....
....|..|--- .... ....|--- .... ....|--- .... ....
 B-3|..|B-1 .A.F ....|D#4 .F.7 ....|--- .... ....
....|..|--- .... ....|--- .... ....|--- .... ....
....|..|--- .... ....|--- .... ....|--- .... ....
....|..|--- .... ....|--- .... ....|--- .... ....

[Pattern9]
 A-3|..|A-1 .A.F ....|E-4 .F.F ....|--- .... ....
....|..|--- .... ....|--- .... ....|--- .... ....
....|..|--- .... ....|--- .... ....|--- .... ....
....|..|--- .... ....|--- .... ....|--- .... ....
 A-3|..|A-1 .A.F ....|D#4 .F.A ....|--- .... ....
....|..|--- .... ....|--- .... ....|--- .... ....
....|..|--- .... ....|--- .... ....|--- .... ....
....|..|--- .... ....|--- .... ....|--- .... ....
 A-3|..|A-1 .A.F ....|E-4 .F.F ....|--- .... ....
....|..|--- .... ....|--- .... ....|--- .... ....
....|..|--- .... ....|--- .... ....|--- .... ....
....|..|--- .... ....|--- .... ....|--- .... ....
 A-3|..|A-1 .A.F ....|D#4 .F.7 ....|--- .... ....
....|..|--- .... ....|--- .... ....|--- .... ....
....|..|--- .... ....|--- .... ....|--- .... ....
....|..|--- .... ....|--- .... ....|--- .... ....
 A-3|..|A-1 .A.F ....|E-4 .F.F ....|--- .... ....
....|..|--- .... ....|--- .... ....|--- .... ....
....|..|--- .... ....|--- .... ....|--- .... ....
....|..|--- .... ....|--- .... ....|--- .... ....
 A-3|..|A-1 .A.F ....|E-4 .F.F ....|--- .... ....
....|..|--- .... ....|F#4 .F.F ....|--- .... ....
....|..|--- .... ....|--- .... ....|--- .... ....
....|..|--- .... ....|--- .... ....|--- .... ....
 A-3|..|A-1 .A.F ....|E-4 .F.7 ....|--- .... ....
....|..|--- .... ....|--- .... ....|--- .... ....
....|..|--- .... ....|--- .... ....|--- .... ....
....|..|--- .... ....|--- .... ....|--- .... ....
 A-3|..|A-1 .A.F ....|F#4 .F.F ....|--- .... ....
....|..|--- .... ....|G#4 .F.F ....|--- .... ....
....|..|--- .... ....|--- .... ....|--- .... ....
....|..|--- .... ....|--- .... ....|--- .... ....
 A-3|..|A-1 .A.F ....|E-4 .F.7 ....|--- .... ....
....|..|--- .... ....|F#4 .F.A ....|--- .... ....
....|..|--- .... ....|--- .... ....|--- .... ....
....|..|--- .... ....|--- .... ....|--- .... ....
 A-3|..|A-1 .A.F ....|G#4 .F.F ....|--- .... ....
....|..|--- .... ....|--- .... ....|--- .... ....
....|..|--- .... ....|--- .... ....|--- .... ....
....|..|--- .... ....|--- .... ....|--- .... ....
 A-3|..|A-1 .A.F ....|F#4 .F.F ....|--- .... ....
....|..|--- .... ....|G#4 .F.A ....|--- .... ....
....|..|--- .... ....|--- .... ....|--- .... ....
....|..|--- .... ....|--- .... ....|--- .... ....
 A-3|..|A-1 .A.F ....|E-4 .F.7 ....|--- .... ....
....|..|--- .... ....|F#4 .F.7 ....|--- .... ....
....|..|--- .... ....|--- .... ....|--- .... ....
....|..|--- .... ....|--- .... ....|--- .... ....
 A-3|..|A-1 .A.F ....|F#4 .F.F ....|--- .... ....
....|..|--- .... ....|--- .... ....|--- .... ....
....|..|--- .... ....|--- .... ....|--- .... ....
....|..|--- .... ....|--- .... ....|--- .... ....
 A-3|..|A-1 .A.F ....|F#4 .F.F ....|--- .... ....
....|..|R-- .... ....|G#4 .F.7 ....|--- .... ....
....|..|--- .... ....|--- .... ....|--- .... ....
....|..|--- .... ....|--- .... ....|--- .... ....
 A-3|..|A-1 .A.7 ....|R-- .... ....|--- .... ....
....|..|--- .... ....|--- .... ....|--- .... ....
....|..|--- .... ....|--- .... ....|--- .... ....
....|..|--- .... ....|--- .... ....|--- .... ....
 A-3|..|A-1 .A.7 ....|G#4 .F.7 ....|C#5 GF.F ....
....|..|--- .... ....|--- .... ....|--- .... ....
....|..|--- .... ....|--- .... ....|--- .... ....
....|..|--- .... ....|--- .... ....|--- .... ....

[Pattern10]
 E-3|..|E-1 .A.F ....|E-3 .F4F ....|B-4 ...F ....
....|..|R-- .... ....|R-- .... ....|--- .... ....
....|..|--- .... ....|--- .... ....|--- .... ....
....|..|--- .... ....|--- .... ....|--- .... ....
 E-3|..|E-1 .A.F ....|E-3 .F4F ....|--- .... ....
....|..|--- .... ....|R-- .... ....|--- .... ....
....|..|--- .... ....|E-3 .F4F ....|--- .... ....
....|..|--- .... ....|R-- .... ....|R-- .... ....
 E-3|..|E-1 .A.F ....|E-3 .F4F ....|C#5 ...A ....
....|..|--- .... ....|R-- .... ....|--- .... ....
....|..|--- .... ....|--- .... ....|--- .... ....
....|..|--- .... ....|--- .... ....|--- .... ....
 E-3|..|E-1 .A.F ....|E-3 .F4F ....|C#5 ...F ....
....|..|R-- .... ....|R-- .... ....|--- .... ....
....|..|--- .... ....|E-3 .F4F ....|--- .... ....
....|..|--- .... ....|R-- .... ....|--- .... ....
 E-3|..|E-1 .A.F ....|E-3 .F4F ....|B-4 ...F ....
....|..|--- .... ....|R-- .... ....|--- .... ....
....|..|--- .... ....|E-3 .F4A ....|--- .... ....
....|..|--- .... ....|R-- .... ....|R-- .... ....
 E-3|..|E-1 .A.F ....|E-3 .F4F ....|C#5 ...7 ....
....|..|--- .... ....|R-- .... ....|--- .... ....
....|..|--- .... ....|E-3 .F4F ....|--- .... ....
....|..|--- .... ....|R-- .... ....|R-- .... ....
 E-3|..|E-1 .A.F ....|E-3 .F4F ....|B-4 ...7 ....
....|..|--- .... ....|R-- .... ....|--- .... ....
....|..|--- .... ....|E-3 .F4A ....|--- .... ....
....|..|--- .... ....|R-- .... ....|--- .... ....
 E-3|..|E-1 .A.F ....|E-3 .F4F ....|C#5 ...F ....
....|..|--- .... ....|R-- .... ....|--- .... ....
....|..|--- .... ....|E-3 .F4F ....|--- .... ....
....|..|--- .... ....|R-- .... ....|R-- .... ....
 E-3|..|E-1 .A.F ....|E-3 .F4F ....|D#5 ...F ....
....|..|--- .... ....|R-- .... ....|--- .... ....
....|..|--- .... ....|E-3 .F4A ....|--- .... ....
....|..|--- .... ....|R-- .... ....|R-- .... ....
 E-3|..|E-1 .A.F ....|E-3 .F4F ....|C#5 ...7 ....
....|..|--- .... ....|R-- .... ....|--- .... ....
....|..|--- .... ....|E-3 .F4F ....|--- .... ....
....|..|--- .... ....|R-- .... ....|R-- .... ....
 E-3|..|E-1 .A.F ....|E-3 .F4F ....|C#5 ...F ....
....|..|--- .... ....|R-- .... ....|--- .... ....
....|..|--- .... ....|E-3 .F4A ....|--- .... ....
....|..|--- .... ....|R-- .... ....|--- .... ....
 E-3|..|E-1 .A.F ....|E-3 .F4F ....|B-4 ...F ....
....|..|--- .... ....|R-- .... ....|--- .... ....
....|..|--- .... ....|E-3 .F4F ....|--- .... ....
....|..|--- .... ....|R-- .... ....|R-- .... ....
 E-3|..|E-1 .A.F ....|E-3 .F4F ....|--- .... ....
....|..|--- .... ....|R-- .... ....|--- .... ....
....|..|--- .... ....|E-3 .F4A ....|--- .... ....
....|..|--- .... ....|R-- .... ....|R-- .... ....
 E-3|..|E-1 .A.F ....|E-3 .F4F ....|C#5 ...7 ....
....|..|--- .... ....|R-- .... ....|--- .... ....
....|..|--- .... ....|E-3 .F4F ....|--- .... ....
....|..|--- .... ....|R-- .... ....|--- .... ....
 E-3|..|E-1 .A.F ....|E-3 .F4F ....|D#5 ...7 ....
....|..|--- .... ....|R-- .... ....|--- .... ....
....|..|--- .... ....|E-3 .F4A ....|--- .... ....
....|..|--- .... ....|R-- .... ....|--- .... ....
 E-3|..|E-1 .A.F ....|E-3 .F4F ....|C#5 ...F ....
....|..|--- .... ....|R-- .... ....|--- .... ....
....|..|--- .... ....|E-3 .F4F ....|--- .... ....
....|..|--- .... ....|R-- .... ....|R-- .... ....

[Pattern11]
 E-3|..|E-1 .A.F ....|E-3 .F4F ....|B-4 ...F ....
....|..|--- .... ....|R-- .... ....|--- .... ....
....|..|--- .... ....|E-3 .F4A ....|--- .... ....
....|..|--- .... ....|R-- .... ....|--- .... ....
 E-3|..|E-1 .A.F ....|E-3 .F4F ....|B-4 ...7 ....
....|..|--- .... ....|R-- .... ....|--- .... ....
....|..|--- .... ....|E-3 .F4F ....|--- .... ....
....|..|--- .... ....|R-- .... ....|R-- .... ....
 E-3|..|E-1 .A.F ....|E-3 .F4F ....|C#5 ...A ....
....|..|--- .... ....|R-- .... ....|--- .... ....
....|..|--- .... ....|E-3 .F4A ....|--- .... ....
....|..|--- .... ....|R-- .... ....|R-- .... ....
 E-3|..|E-1 .A.F ....|E-3 .F4F ....|C#5 ...F ....
....|..|--- .... ....|R-- .... ....|--- .... ....
....|..|--- .... ....|E-3 .F4F ....|--- .... ....
....|..|--- .... ....|R-- .... ....|--- .... ....
 E-3|..|E-1 .A.F ....|E-3 .F4F ....|B-4 ...F ....
....|..|--- .... ....|R-- .... ....|--- .... ....
....|..|--- .... ....|E-3 .F4A ....|--- .... ....
....|..|--- .... ....|R-- .... ....|R-- .... ....
 E-3|..|E-1 .A.F ....|E-3 .F4F ....|C#5 ...7 ....
....|..|--- .... ....|R-- .... ....|--- .... ....
....|..|--- .... ....|E-3 .F4F ....|--- .... ....
....|..|--- .... ....|R-- .... ....|R-- .... ....
 E-3|..|E-1 .A.F ....|E-3 .F4F ....|B-4 ...7 ....
....|..|--- .... ....|R-- .... ....|--- .... ....
....|..|--- .... ....|E-3 .F4A ....|--- .... ....
....|..|--- .... ....|R-- .... ....|--- .... ....
 E-3|..|E-1 .A.F ....|E-3 .F4F ....|C#5 ...F ....
....|..|--- .... ....|R-- .... ....|--- .... ....
....|..|--- .... ....|E-3 .F4F ....|--- .... ....
....|..|--- .... ....|R-- .... ....|R-- .... ....
 E-3|..|E-1 .A.F ....|E-3 .F4F ....|B-4 ...F ....
....|..|--- .... ....|R-- .... ....|--- .... ....
....|..|--- .... ....|E-3 .F4A ....|--- .... ....
....|..|--- .... ....|R-- .... ....|R-- .... ....
 E-3|..|E-1 .A.F ....|E-3 .F4F ....|C#5 ...7 ....
....|..|--- .... ....|R-- .... ....|--- .... ....
....|..|--- .... ....|E-3 .F4F ....|--- .... ....
....|..|--- .... ....|R-- .... ....|R-- .... ....
 E-3|..|E-1 .A.F ....|E-3 .F4F ....|E-5 ...F ....
....|..|--- .... ....|R-- .... ....|--- .... ....
....|..|--- .... ....|E-3 .F4A ....|--- .... ....
....|..|--- .... ....|R-- .... ....|--- .... ....
 E-3|..|E-1 .A.F ....|E-3 .F4F ....|B-4 ...A ....
....|..|--- .... ....|R-- .... ....|--- .... ....
....|..|--- .... ....|E-3 .F4F ....|--- .... ....
....|..|--- .... ....|R-- .... ....|R-- .... ....
 E-3|..|E-1 .A.F ....|E-3 .F4F ....|F#5 ...F ....
....|..|--- .... ....|R-- .... ....|--- .... ....
....|..|--- .... ....|E-3 .F4A ....|--- .... ....
....|..|--- .... ....|R-- .... ....|R-- .... ....
 E-3|..|E-1 .A.F ....|E-3 .F4F ....|C#5 ...7 ....
....|..|--- .... ....|R-- .... ....|--- .... ....
....|..|--- .... ....|E-3 .F4F ....|--- .... ....
....|..|--- .... ....|R-- .... ....|R-- .... ....
 E-3|..|E-1 .A.F ....|E-3 .F4F ....|E-5 ...F ....
....|..|--- .... ....|R-- .... ....|--- .... ....
....|..|--- .... ....|E-3 .F4A ....|--- .... ....
....|..|--- .... ....|R-- .... ....|R-- .... ....
 E-3|..|E-1 .A.F ....|E-3 .F4F ....|E-5 ...F ....
....|..|--- .... ....|R-- .... ....|--- .... ....
....|..|--- .... ....|E-3 .F4F ....|--- .... ....
....|..|--- .... ....|R-- .... ....|R-- .... ....

[Pattern12]
 C#4|..|C#2 .A.F ....|C#4 .F.F ....|E-5 ...F ....
....|..|--- .... ....|R-- .... ....|--- .... ....
....|..|--- .... ....|E-3 .F4A ....|--- .... ....
....|..|--- .... ....|R-- .... ....|R-- .... ....
 C#4|..|C#2 .A.F ....|E-3 .F47 ....|E-5 ...A ....
....|..|--- .... ....|R-- .... ....|--- .... ....
....|..|--- .... ....|E-3 .F47 ....|--- .... ....
....|..|--- .... ....|R-- .... ....|R-- .... ....
 C#4|..|C#2 .A.F ....|C#4 .F.F ....|F#5 ...7 ....
....|..|--- .... ....|R-- .... ....|--- .... ....
....|..|--- .... ....|E-3 .F4A ....|--- .... ....
....|..|--- .... ....|R-- .... ....|--- .... ....
 C#4|..|C#2 .A.F ....|E-3 .F47 ....|E-5 ...A ....
....|..|--- .... ....|R-- .... ....|--- .... ....
....|..|--- .... ....|E-3 .F47 ....|--- .... ....
....|..|--- .... ....|R-- .... ....|R-- .... ....
 C#4|..|C#2 .A.F ....|C#4 .F.F ....|E-5 ...7 ....
....|..|--- .... ....|R-- .... ....|--- .... ....
....|..|--- .... ....|--- .... ....|--- .... ....
....|..|--- .... ....|--- .... ....|--- .... ....
 C#4|..|C#2 .A.F ....|C#4 .F.F ....|E-5 ...7 ....
....|..|--- .... ....|R-- .... ....|--- .... ....
....|..|--- .... ....|E-3 .F47 ....|R-- .... ....
....|..|--- .... ....|R-- .... ....|--- .... ....
 C#4|..|C#2 .A.F ....|C#4 .F.F ....|F#5 ...F ....
....|..|--- .... ....|--- .... ....|--- .... ....
....|..|--- .... ....|--- .... ....|--- .... ....
....|..|--- .... ....|--- .... ....|--- .... ....
 C#4|..|C#2 .A.F ....|C#4 .F.F ....|--- .... ....
....|..|--- .... ....|--- .... ....|--- .... ....
....|..|--- .... ....|--- .... ....|--- .... ....
....|..|--- .... ....|--- .... ....|R-- .... ....
 B-3|..|B-1 .A.F ....|D#4 .F.F ....|G#5 ...F ....
....|..|--- .... ....|--- .... ....|--- .... ....
....|..|--- .... ....|--- .... ....|R-- .... ....
....|..|--- .... ....|--- .... ....|--- .... ....
 B-3|..|B-1 .A.F ....|D#4 .F.F ....|F#5 ...A ....
....|..|--- .... ....|--- .... ....|--- .... ....
....|..|--- .... ....|--- .... ....|--- .... ....
....|..|--- .... ....|--- .... ....|R-- .... ....
 B-3|..|B-1 .A.F ....|D#4 .F.F ....|F#5 ...F ....
....|..|--- .... ....|--- .... ....|--- .... ....
....|..|--- .... ....|--- .... ....|--- .... ....
....|..|--- .... ....|--- .... ....|R-- .... ....
 B-3|..|B-1 .A.F ....|C#4 .F.7 ....|G#5 ...A ....
....|..|--- .... ....|--- .... ....|--- .... ....
....|..|--- .... ....|--- .... ....|R-- .... ....
....|..|--- .... ....|--- .... ....|R-- .... ....
 B-3|..|B-1 .A.F ....|D#4 .F.F ....|E-5 ...F ....
....|..|--- .... ....|--- .... ....|--- .... ....
....|..|--- .... ....|--- .... ....|--- .... ....
....|..|--- .... ....|--- .... ....|R-- .... ....
 B-3|..|B-1 .A.F ....|D#4 .F.F ....|F#5 ...A ....
....|..|--- .... ....|--- .... ....|--- .... ....
....|..|--- .... ....|--- .... ....|--- .... ....
....|..|--- .... ....|--- .... ....|R-- .... ....
 B-3|..|B-1 .A.F ....|D#4 .F.F ....|D#5 ...F ....
....|..|--- .... ....|--- .... ....|--- .... ....
....|..|--- .... ....|--- .... ....|--- .... ....
....|..|--- .... ....|--- .... ....|R-- .... ....
 B-3|..|B-1 .A.F ....|D#4 .F.7 ....|E-5 ...A ....
....|..|--- .... ....|--- .... ....|--- .... ....
....|..|--- .... ....|--- .... ....|--- .... ....
....|..|--- .... ....|--- .... ....|R-- .... ....

[Pattern13]
 A-3|..|A-1 .A.F ....|E-4 .F.F ....|E-5 ...F ....
....|..|--- .... ....|--- .... ....|--- .... ....
....|..|--- .... ....|--- .... ....|--- .... ....
....|..|--- .... ....|--- .... ....|R-- .... ....
 A-3|..|A-1 .A.F ....|D#4 .F.A ....|D#5 ...A ....
....|..|--- .... ....|--- .... ....|--- .... ....
....|..|--- .... ....|--- .... ....|--- .... ....
....|..|--- .... ....|--- .... ....|R-- .... ....
 A-3|..|A-1 .A.F ....|E-4 .F.F ....|E-5 ...7 ....
....|..|--- .... ....|--- .... ....|--- .... ....
....|..|--- .... ....|--- .... ....|--- .... ....
....|..|--- .... ....|--- .... ....|R-- .... ....
 A-3|..|A-1 .A.F ....|D#4 .F.7 ....|E-5 ...A ....
....|..|--- .... ....|--- .... ....|--- .... ....
....|..|--- .... ....|--- .... ....|--- .... ....
....|..|--- .... ....|--- .... ....|R-- .... ....
 A-3|..|A-1 .A.F ....|E-4 .F.F ....|D#5 ...7 ....
....|..|--- .... ....|--- .... ....|--- .... ....
....|..|--- .... ....|--- .... ....|--- .... ....
....|..|--- .... ....|--- .... ....|--- .... ....
 A-3|..|A-1 .A.F ....|E-4 .F.F ....|--- .... ....
....|..|--- .... ....|F#4 .F.F ....|--- .... ....
....|..|--- .... ....|--- .... ....|--- .... ....
....|..|--- .... ....|--- .... ....|R-- .... ....
 A-3|..|A-1 .A.F ....|E-4 .F.7 ....|E-5 ...7 ....
....|..|--- .... ....|--- .... ....|--- .... ....
....|..|--- .... ....|--- .... ....|--- .... ....
....|..|--- .... ....|--- .... ....|--- .... ....
 A-3|..|A-1 .A.F ....|F#4 .F.F ....|--- .... ....
....|..|--- .... ....|G#4 .F.F ....|--- .... ....
....|..|--- .... ....|--- .... ....|--- .... ....
....|..|--- .... ....|--- .... ....|--- .... ....
 A-3|..|A-1 .A.F ....|E-4 .F.7 ....|--- .... ....
....|..|--- .... ....|F#4 .F.A ....|--- .... ....
....|..|--- .... ....|--- .... ....|--- .... ....
....|..|--- .... ....|--- .... ....|--- .... ....
 A-3|..|A-1 .A.F ....|G#4 .F.F ....|--- .... ....
....|..|--- .... ....|--- .... ....|--- .... ....
....|..|--- .... ....|--- .... ....|--- .... ....
....|..|--- .... ....|--- .... ....|--- .... ....
 A-3|..|A-1 .A.F ....|F#4 .F.F ....|--- .... ....
....|..|--- .... ....|G#4 .F.A ....|--- .... ....
....|..|--- .... ....|--- .... ....|--- .... ....
....|..|--- .... ....|--- .... ....|--- .... ....
 A-3|..|A-1 .A.F ....|E-4 .F.7 ....|--- .... ....
....|..|--- .... ....|F#4 .F.7 ....|--- .... ....
....|..|--- .... ....|--- .... ....|R-- .... ....
....|..|--- .... ....|--- .... ....|--- .... ....
 A-3|..|A-1 .A.F ....|E-4 .F.F ....|--- .... ....
....|..|--- .... ....|--- .... ....|--- .... ....
....|..|--- .... ....|--- .... ....|--- .... ....
....|..|--- .... ....|--- .... ....|--- .... ....
 A-3|..|A-1 .A.F ....|E-4 .F.F ....|--- .... ....
....|..|--- .... ....|G#4 .F.7 ....|--- .... ....
....|..|--- .... ....|--- .... ....|--- .... ....
....|..|--- .... ....|--- .... ....|--- .... ....
 A-3|..|A-1 .A.F ....|E-4 .F.F ....|--- .... ....
....|..|--- .... ....|--- .... ....|--- .... ....
....|..|--- .... ....|--- .... ....|R-- .... ....
....|..|--- .... ....|--- .... ....|--- .... ....
 A-3|..|A-1 .A.F ....|E-4 .F.F ....|C#5 ...F ....
....|..|--- .... ....|--- .... ....|--- .... ....
....|..|--- .... ....|--- .... ....|--- .... ....
....|..|--- .... ....|--- .... ....|--- .... ....

[Pattern14]
 E-3|..|E-1 .A.F ....|E-3 .F4F ....|B-4 ...F ....
....|..|--- .... ....|R-- .... ....|--- .... ....
....|..|--- .... ....|--- .... ....|--- .... ....
....|..|--- .... ....|--- .... ....|--- .... ....
 E-3|..|E-1 .A.F ....|E-3 .F4F ....|--- .... ....
....|..|--- .... ....|R-- .... ....|--- .... ....
....|..|--- .... ....|E-3 .F4F ....|R-- .... ....
....|..|--- .... ....|R-- .... ....|R-- .... ....
 E-3|..|E-1 .A.F ....|E-3 .F4F ....|C#5 ...A ....
....|..|--- .... ....|R-- .... ....|--- .... ....
....|..|--- .... ....|--- .... ....|--- .... ....
....|..|--- .... ....|--- .... ....|--- .... ....
 E-3|..|E-1 .A.F ....|E-3 .F4F ....|C#5 ...F ....
....|..|--- .... ....|R-- .... ....|--- .... ....
....|..|--- .... ....|E-3 .F4F ....|--- .... ....
....|..|--- .... ....|R-- .... ....|--- .... ....
 E-3|..|E-1 .A.F ....|E-3 .F4F ....|B-4 ...F ....
....|..|--- .... ....|R-- .... ....|--- .... ....
....|..|--- .... ....|E-3 .F4A ....|--- .... ....
....|..|--- .... ....|R-- .... ....|R-- .... ....
 E-3|..|E-1 .A.F ....|E-3 .F4F ....|C#5 ...7 ....
....|..|--- .... ....|R-- .... ....|--- .... ....
....|..|--- .... ....|E-3 .F4F ....|--- .... ....
....|..|--- .... ....|R-- .... ....|R-- .... ....
 E-3|..|E-1 .A.F ....|E-3 .F4F ....|B-4 ...7 ....
....|..|--- .... ....|R-- .... ....|--- .... ....
....|..|--- .... ....|E-3 .F4A ....|--- .... ....
....|..|--- .... ....|R-- .... ....|--- .... ....
 E-3|..|E-1 .A.F ....|E-3 .F4F ....|C#5 ...F ....
....|..|--- .... ....|R-- .... ....|--- .... ....
....|..|--- .... ....|E-3 .F4F ....|--- .... ....
....|..|--- .... ....|R-- .... ....|R-- .... ....
 E-3|..|E-1 .A.F ....|E-3 .F4F ....|D#5 ...F ....
....|..|--- .... ....|R-- .... ....|--- .... ....
....|..|--- .... ....|E-3 .F4A ....|--- .... ....
....|..|--- .... ....|R-- .... ....|R-- .... ....
 E-3|..|E-1 .A.F ....|E-3 .F4F ....|C#5 ...7 ....
....|..|--- .... ....|R-- .... ....|--- .... ....
....|..|--- .... ....|E-3 .F4F ....|--- .... ....
....|..|--- .... ....|R-- .... ....|R-- .... ....
 E-3|..|E-1 .A.F ....|E-3 .F4F ....|C#5 ...F ....
....|..|--- .... ....|R-- .... ....|--- .... ....
....|..|--- .... ....|E-3 .F4A ....|--- .... ....
....|..|--- .... ....|R-- .... ....|--- .... ....
 E-3|..|E-1 .A.F ....|E-3 .F4F ....|B-4 ...F ....
....|..|--- .... ....|R-- .... ....|--- .... ....
....|..|--- .... ....|E-3 .F4F ....|--- .... ....
....|..|--- .... ....|R-- .... ....|R-- .... ....
 E-3|..|E-1 .A.F ....|E-3 .F4F ....|--- .... ....
....|..|--- .... ....|R-- .... ....|--- .... ....
....|..|--- .... ....|E-3 .F4A ....|--- .... ....
....|..|--- .... ....|R-- .... ....|R-- .... ....
 E-3|..|E-1 .A.F ....|E-3 .F4F ....|C#5 ...7 ....
....|..|--- .... ....|R-- .... ....|--- .... ....
....|..|--- .... ....|E-3 .F4F ....|--- .... ....
....|..|--- .... ....|R-- .... ....|--- .... ....
 E-3|..|E-1 .A.F ....|E-3 .F4F ....|D#5 ...7 ....
....|..|--- .... ....|R-- .... ....|--- .... ....
....|..|--- .... ....|E-3 .F4A ....|--- .... ....
....|..|--- .... ....|R-- .... ....|--- .... ....
 E-3|..|E-1 .A.F ....|E-3 .F4F ....|C#5 ...F ....
....|..|--- .... ....|R-- .... ....|--- .... ....
....|..|--- .... ....|E-3 .F4F ....|--- .... ....
....|..|--- .... ....|R-- .... ....|R-- .... ....

[Pattern16]
 C#4|..|C#2 .A.F ....|C#4 .F.F ....|E-5 ...F ....
....|..|--- .... ....|R-- .... ....|--- .... ....
....|..|--- .... ....|E-3 .F4A ....|--- .... ....
....|..|--- .... ....|R-- .... ....|R-- .... ....
 C#4|..|C#2 .A.F ....|E-3 .F47 ....|E-5 ...A ....
....|..|--- .... ....|R-- .... ....|--- .... ....
....|..|--- .... ....|E-3 .F47 ....|--- .... ....
....|..|--- .... ....|R-- .... ....|R-- .... ....
 C#4|..|C#2 .A.F ....|C#4 .F.F ....|F#5 ...7 ....
....|..|--- .... ....|R-- .... ....|--- .... ....
....|..|--- .... ....|E-3 .F4A ....|--- .... ....
....|..|--- .... ....|--- .... ....|--- .... ....
 C#4|..|C#2 .A.F ....|E-3 .F47 ....|E-5 ...A ....
....|..|--- .... ....|R-- .... ....|--- .... ....
....|..|--- .... ....|E-3 .F47 ....|--- .... ....
....|..|--- .... ....|R-- .... ....|R-- .... ....
 C#4|..|C#2 .A.F ....|C#4 .F.F ....|E-5 ...7 ....
....|..|--- .... ....|--- .... ....|--- .... ....
....|..|--- .... ....|--- .... ....|--- .... ....
....|..|--- .... ....|--- .... ....|--- .... ....
 C#4|..|C#2 .A.F ....|C#4 .F.F ....|E-5 ...7 ....
....|..|--- .... ....|--- .... ....|--- .... ....
....|..|--- .... ....|E-3 .F47 ....|R-- .... ....
....|..|--- .... ....|--- .... ....|--- .... ....
 C#4|..|C#2 .A.F ....|C#4 .F.F ....|F#5 ...F ....
....|..|--- .... ....|--- .... ....|--- .... ....
....|..|--- .... ....|--- .... ....|--- .... ....
....|..|--- .... ....|--- .... ....|--- .... ....
 C#4|..|C#2 .A.F ....|C#4 .F.F ....|--- .... ....
....|..|--- .... ....|--- .... ....|--- .... ....
....|..|--- .... ....|--- .... ....|--- .... ....
....|..|--- .... ....|--- .... ....|R-- .... ....
 B-3|..|B-1 .A.F ....|D#4 .F.F ....|G#5 ...F ....
....|..|--- .... ....|--- .... ....|--- .... ....
....|..|--- .... ....|--- .... ....|R-- .... ....
....|..|--- .... ....|--- .... ....|--- .... ....
 B-3|..|B-1 .A.F ....|D#4 .F.F ....|F#5 ...A ....
....|..|--- .... ....|--- .... ....|--- .... ....
....|..|--- .... ....|--- .... ....|--- .... ....
....|..|--- .... ....|--- .... ....|R-- .... ....
 B-3|..|B-1 .A.F ....|D#4 .F.F ....|F#5 ...F ....
....|..|--- .... ....|--- .... ....|--- .... ....
....|..|--- .... ....|--- .... ....|--- .... ....
....|..|--- .... ....|--- .... ....|R-- .... ....
 B-3|..|B-1 .A.F ....|C#4 .F.7 ....|G#5 ...A ....
....|..|--- .... ....|--- .... ....|--- .... ....
....|..|--- .... ....|--- .... ....|R-- .... ....
....|..|--- .... ....|--- .... ....|R-- .... ....
 B-3|..|B-1 .A.F ....|D#4 .F.F ....|E-5 ...F ....
....|..|--- .... ....|--- .... ....|--- .... ....
....|..|--- .... ....|--- .... ....|--- .... ....
....|..|--- .... ....|--- .... ....|R-- .... ....
 B-3|..|B-1 .A.F ....|D#4 .F.F ....|F#5 ...A ....
....|..|--- .... ....|--- .... ....|--- .... ....
....|..|--- .... ....|--- .... ....|--- .... ....
....|..|--- .... ....|--- .... ....|R-- .... ....
 B-3|..|B-1 .A.F ....|D#4 .F.F ....|D#5 ...F ....
....|..|--- .... ....|--- .... ....|--- .... ....
....|..|--- .... ....|--- .... ....|--- .... ....
....|..|--- .... ....|--- .... ....|R-- .... ....
 B-3|..|B-1 .A.F ....|D#4 .F.7 ....|E-5 ...A ....
....|..|--- .... ....|--- .... ....|--- .... ....
....|..|--- .... ....|--- .... ....|--- .... ....
....|..|--- .... ....|--- .... ....|R-- .... ....

[Pattern17]
 A-3|..|A-1 .A.F ....|E-4 .F.F ....|E-5 ...F ....
....|..|--- .... ....|--- .... ....|--- .... ....
....|..|--- .... ....|--- .... ....|--- .... ....
....|..|--- .... ....|--- .... ....|R-- .... ....
 A-3|..|A-1 .A.F ....|D#4 .F.A ....|D#5 ...A ....
....|..|--- .... ....|--- .... ....|--- .... ....
....|..|--- .... ....|--- .... ....|--- .... ....
....|..|--- .... ....|--- .... ....|R-- .... ....
 A-3|..|A-1 .A.F ....|E-4 .F.F ....|E-5 ...7 ....
....|..|--- .... ....|--- .... ....|--- .... ....
....|..|--- .... ....|--- .... ....|--- .... ....
....|..|--- .... ....|--- .... ....|R-- .... ....
 A-3|..|A-1 .A.F ....|D#4 .F.7 ....|E-5 ...A ....
....|..|--- .... ....|--- .... ....|--- .... ....
....|..|--- .... ....|--- .... ....|--- .... ....
....|..|--- .... ....|--- .... ....|R-- .... ....
 A-3|..|A-1 .A.F ....|E-4 .F.F ....|D#5 ...7 ....
....|..|--- .... ....|--- .... ....|--- .... ....
....|..|--- .... ....|--- .... ....|--- .... ....
....|..|--- .... ....|--- .... ....|--- .... ....
 A-3|..|A-1 .A.F ....|E-4 .F.F ....|--- .... ....
....|..|--- .... ....|F#4 .F.F ....|--- .... ....
....|..|--- .... ....|--- .... ....|--- .... ....
....|..|--- .... ....|--- .... ....|R-- .... ....
 A-3|..|A-1 .A.F ....|E-4 .F.7 ....|E-5 ...7 ....
....|..|--- .... ....|--- .... ....|--- .... ....
....|..|--- .... ....|--- .... ....|--- .... ....
....|..|--- .... ....|--- .... ....|--- .... ....
 A-3|..|A-1 .A.F ....|F#4 .F.F ....|--- .... ....
....|..|--- .... ....|G#4 .F.F ....|--- .... ....
....|..|--- .... ....|--- .... ....|--- .... ....
....|..|--- .... ....|--- .... ....|--- .... ....
 A-3|..|A-1 .A.F ....|E-4 .F.7 ....|--- .... ....
....|..|--- .... ....|F#4 .F.A ....|--- .... ....
....|..|--- .... ....|--- .... ....|--- .... ....
....|..|--- .... ....|--- .... ....|--- .... ....
 A-3|..|A-1 .A.F ....|G#4 .F.F ....|--- .... ....
....|..|--- .... ....|--- .... ....|--- .... ....
....|..|--- .... ....|--- .... ....|--- .... ....
....|..|--- .... ....|--- .... ....|--- .... ....
 A-3|..|A-1 .A.F ....|F#4 .F.F ....|--- .... ....
....|..|--- .... ....|G#4 .F.A ....|--- .... ....
....|..|--- .... ....|--- .... ....|--- .... ....
....|..|--- .... ....|--- .... ....|--- .... ....
 A-3|..|A-1 .A.F ....|E-4 .F.7 ....|--- .... ....
....|..|--- .... ....|F#4 .F.7 ....|--- .... ....
....|..|--- .... ....|--- .... ....|R-- .... ....
....|..|--- .... ....|--- .... ....|--- .... ....
 A-3|..|A-1 .A.F ....|E-4 .F.F ....|--- .... ....
....|..|--- .... ....|--- .... ....|--- .... ....
....|..|--- .... ....|--- .... ....|--- .... ....
....|..|--- .... ....|--- .... ....|--- .... ....
 A-3|..|A-1 .A.F ....|E-4 .F.F ....|--- .... ....
....|..|--- .... ....|G#4 .F.7 ....|--- .... ....
....|..|--- .... ....|--- .... ....|--- .... ....
....|..|--- .... ....|--- .... ....|--- .... ....
 A-3|..|A-1 .A.F ....|E-4 .F.F ....|--- .... ....
....|..|--- .... ....|--- .... ....|--- .... ....
....|..|--- .... ....|--- .... ....|R-- .... ....
....|..|--- .... ....|--- .... ....|--- .... ....
 A-3|..|A-1 .A.F ....|E-4 .F.F ....|--- .... ....
....|..|--- .... ....|--- .... ....|--- .... ....
....|..|--- .... ....|--- .... ....|--- .... ....
....|..|--- .... ....|--- .... ....|--- .... ....

[Pattern18]
 C#4|..|C#2 .A.F ....|G#4 .F.F ....|--- .... ....
....|..|--- .... ....|--- .... ....|--- .... ....
....|..|--- .... ....|--- .... ....|--- .... ....
....|..|--- .... ....|--- .... ....|--- .... ....
 A-3|..|A-1 .A.7 ....|E-4 .F.A ....|--- .... ....
....|..|--- .... ....|--- .... ....|--- .... ....
....|..|--- .... ....|--- .... ....|R-- .... ....
....|..|R-- .... ....|--- .... ....|--- .... ....
 C#4|..|C#2 .A.F ....|B-4 .F.F ....|--- .... ....
....|..|--- .... ....|--- .... ....|--- .... ....
....|..|--- .... ....|--- .... ....|--- .... ....
....|..|--- .... ....|--- .... ....|--- .... ....
 A-3|..|A-1 .A.7 ....|E-4 .F.7 ....|--- .... ....
....|..|--- .... ....|--- .... ....|--- .... ....
....|..|--- .... ....|--- .... ....|--- .... ....
....|..|R-- .... ....|--- .... ....|--- .... ....
 C#4|..|C#2 .A.F ....|C#5 .F.F ....|--- .... ....
....|..|--- .... ....|--- .... ....|--- .... ....
....|..|--- .... ....|--- .... ....|--- .... ....
....|..|R-- .... ....|--- .... ....|--- .... ....
 G#3|..|G#1 .A.F ....|E-4 .F.7 ....|--- .... ....
....|..|--- .... ....|--- .... ....|--- .... ....
....|..|--- .... ....|--- .... ....|--- .... ....
....|..|--- .... ....|--- .... ....|--- .... ....
 C#4|..|C#2 .A.F ....|B-4 .F.F ....|C#5 ...F ....
....|..|--- .... ....|--- .... ....|--- .... ....
....|..|--- .... ....|--- .... ....|--- .... ....
....|..|R-- .... ....|--- .... ....|--- .... ....
 G#3|..|G#1 .A.F ....|C#5 .F.A ....|C#5 ...F ....
....|..|--- .... ....|--- .... ....|--- .... ....
....|..|--- .... ....|--- .... ....|--- .... ....
....|..|R-- .... ....|--- .... ....|--- .... ....
 C#4|..|C#2 .A.F ....|G#4 .F.F ....|C#5 ...F ....
....|..|--- .... ....|--- .... ....|--- .... ....
....|..|--- .... ....|--- .... ....|--- .... ....
....|..|--- .... ....|--- .... ....|--- .... ....
 C#4|..|C#2 .A.A ....|B-4 .F.A ....|C#5 ...A ....
....|..|--- .... ....|--- .... ....|--- .... ....
....|..|--- .... ....|--- .... ....|--- .... ....
....|..|R-- .... ....|--- .... ....|R-- .... ....
 D#4|..|D#2 .A.F ....|B-4 .F.F ....|D#5 ...F ....
....|..|--- .... ....|--- .... ....|--- .... ....
....|..|--- .... ....|--- .... ....|--- .... ....
....|..|--- .... ....|--- .... ....|--- .... ....
 G#3|..|G#1 .A.7 ....|G#4 .F.A ....|C#5 ...A ....
....|..|--- .... ....|--- .... ....|--- .... ....
....|..|--- .... ....|--- .... ....|--- .... ....
....|..|R-- .... ....|--- .... ....|R-- .... ....
 E-4|..|E-2 .A.F ....|C#5 .F.F ....|E-5 ...F ....
....|..|--- .... ....|--- .... ....|--- .... ....
....|..|--- .... ....|--- .... ....|--- .... ....
....|..|R-- .... ....|--- .... ....|R-- .... ....
 G#3|..|G#1 .A.7 ....|B-4 .F.A ....|C#5 ...7 ....
....|..|--- .... ....|--- .... ....|--- .... ....
....|..|--- .... ....|--- .... ....|--- .... ....
....|..|R-- .... ....|--- .... ....|R-- .... ....
 D#4|..|D#2 .A.F ....|B-4 .F.F ....|C#5 ...F ....
....|..|--- .... ....|--- .... ....|--- .... ....
....|..|--- .... ....|--- .... ....|--- .... ....
....|..|R-- .... ....|--- .... ....|R-- .... ....
 E-4|..|E-2 .A.A ....|C#5 .F.A ....|E-5 ...A ....
....|..|--- .... ....|--- .... ....|--- .... ....
....|..|--- .... ....|--- .... ....|--- .... ....
....|..|R-- .... ....|--- .... ....|R-- .... ....

[Pattern19]
 G#3|..|G#1 .A.F ....|G#4 .F.F ....|D#5 ...7 ....
....|..|--- .... ....|--- .... ....|--- .... ....
....|..|--- .... ....|--- .... ....|--- .... ....
....|..|R-- .... ....|--- .... ....|R-- .... ....
 D#4|..|D#2 .A.A ....|B-4 .F.A ....|C#5 ...A ....
....|..|--- .... ....|--- .... ....|--- .... ....
....|..|--- .... ....|--- .... ....|--- .... ....
....|..|R-- .... ....|--- .... ....|R-- .... ....
 G#3|..|G#1 .A.F ....|B-4 .F.F ....|E-5 ...7 ....
....|..|--- .... ....|--- .... ....|--- .... ....
....|..|--- .... ....|--- .... ....|--- .... ....
....|..|R-- .... ....|--- .... ....|R-- .... ....
 G#3|..|G#1 .A.A ....|G#4 .F.A ....|--- .... ....
....|..|--- .... ....|--- .... ....|--- .... ....
....|..|--- .... ....|--- .... ....|--- .... ....
....|..|R-- .... ....|--- .... ....|R-- .... ....
 G#3|..|G#1 .A.F ....|C#5 .F.F ....|C#5 ...7 ....
....|..|--- .... ....|--- .... ....|--- .... ....
....|..|--- .... ....|--- .... ....|--- .... ....
....|..|R-- .... ....|--- .... ....|--- .... ....
 G#3|..|G#1 .A.A ....|B-4 .F.A ....|--- .... ....
....|..|--- .... ....|--- .... ....|--- .... ....
....|..|--- .... ....|--- .... ....|--- .... ....
....|..|R-- .... ....|--- .... ....|R-- .... ....
 G#3|..|G#1 .A.F ....|B-4 .F.F ....|C#5 ...F ....
....|..|--- .... ....|--- .... ....|--- .... ....
....|..|--- .... ....|--- .... ....|--- .... ....
....|..|R-- .... ....|--- .... ....|--- .... ....
 G#3|..|G#1 .A.A ....|C#5 .F.A ....|C#5 ...F ....
....|..|--- .... ....|--- .... ....|--- .... ....
....|..|--- .... ....|--- .... ....|--- .... ....
....|..|R-- .... ....|--- .... ....|--- .... ....
 G#3|..|G#1 .A.F ....|G#4 .F.F ....|C#5 ...F ....
....|..|--- .... ....|--- .... ....|--- .... ....
....|..|--- .... ....|--- .... ....|--- .... ....
....|..|R-- .... ....|--- .... ....|--- .... ....
 G#3|..|G#1 .A.A ....|B-4 .F.A ....|C#5 ...A ....
....|..|--- .... ....|--- .... ....|--- .... ....
....|..|--- .... ....|--- .... ....|--- .... ....
....|..|R-- .... ....|--- .... ....|R-- .... ....
 G#3|..|G#1 .A.F ....|B-4 .F.F ....|D#5 ...F ....
....|..|--- .... ....|--- .... ....|--- .... ....
....|..|--- .... ....|--- .... ....|--- .... ....
....|..|R-- .... ....|--- .... ....|--- .... ....
 G#3|..|G#1 .A.A ....|G#4 .F.A ....|C#5 ...A ....
....|..|--- .... ....|--- .... ....|--- .... ....
....|..|--- .... ....|--- .... ....|--- .... ....
....|..|R-- .... ....|--- .... ....|R-- .... ....
 G#3|..|G#1 .A.F ....|C#5 .F.F ....|E-5 ...F ....
....|..|--- .... ....|--- .... ....|--- .... ....
....|..|--- .... ....|--- .... ....|--- .... ....
....|..|R-- .... ....|--- .... ....|R-- .... ....
 F#3|..|F#1 .A.F ....|B-4 .F.A ....|C#5 ...7 ....
....|..|--- .... ....|--- .... ....|--- .... ....
....|..|--- .... ....|--- .... ....|--- .... ....
....|..|R-- .... ....|--- .... ....|R-- .... ....
 G#3|..|G#1 .A.F ....|B-4 .F.F ....|C#5 ...F ....
....|..|--- .... ....|--- .... ....|--- .... ....
....|..|--- .... ....|--- .... ....|--- .... ....
....|..|R-- .... ....|--- .... ....|R-- .... ....
 G#3|..|G#1 .A.A ....|C#5 .F.A ....|E-5 ...A ....
....|..|--- .... ....|--- .... ....|--- .... ....
....|..|--- .... ....|--- .... ....|--- .... ....
....|..|R-- .... ....|--- .... ....|R-- .... ....

[Pattern20]
 A-3|..|A-1 .A.F ....|G#4 .F.F ....|D#5 ...7 ....
....|..|--- .... ....|--- .... ....|--- .... ....
....|..|--- .... ....|--- .... ....|--- .... ....
....|..|--- .... ....|--- .... ....|R-- .... ....
 G#3|..|G#1 .A.A ....|B-4 .F.A ....|C#5 ...A ....
....|..|--- .... ....|--- .... ....|--- .... ....
....|..|--- .... ....|--- .... ....|--- .... ....
....|..|R-- .... ....|--- .... ....|R-- .... ....
 A-3|..|A-1 .A.F ....|B-4 .F.F ....|E-5 ...7 ....
....|..|--- .... ....|--- .... ....|--- .... ....
....|..|--- .... ....|--- .... ....|--- .... ....
....|..|R-- .... ....|--- .... ....|R-- .... ....
 F#3|..|F#1 .A.7 ....|G#4 .F.A ....|--- .... ....
....|..|--- .... ....|--- .... ....|--- .... ....
....|..|--- .... ....|--- .... ....|--- .... ....
....|..|R-- .... ....|--- .... ....|R-- .... ....
 A-3|..|A-1 .A.F ....|C#5 .F.F ....|C#5 ...7 ....
....|..|--- .... ....|--- .... ....|--- .... ....
....|..|--- .... ....|--- .... ....|--- .... ....
....|..|R-- .... ....|--- .... ....|--- .... ....
 A-3|..|A-1 .A.A ....|B-4 .F.A ....|--- .... ....
....|..|--- .... ....|--- .... ....|--- .... ....
....|..|--- .... ....|--- .... ....|--- .... ....
....|..|R-- .... ....|--- .... ....|R-- .... ....
 A-3|..|A-1 .A.F ....|B-4 .F.F ....|C#5 ...F ....
....|..|--- .... ....|--- .... ....|--- .... ....
....|..|--- .... ....|--- .... ....|--- .... ....
....|..|R-- .... ....|--- .... ....|--- .... ....
 A-3|..|A-1 .A.A ....|C#5 .F.A ....|--- .... ....
....|..|--- .... ....|--- .... ....|--- .... ....
....|..|--- .... ....|--- .... ....|--- .... ....
....|..|R-- .... ....|--- .... ....|R-- .... ....
 A-3|..|A-1 .A.F ....|G#4 .F.F ....|C#5 ...F ....
....|..|--- .... ....|--- .... ....|--- .... ....
....|..|--- .... ....|--- .... ....|--- .... ....
....|..|R-- .... ....|--- .... ....|--- .... ....
 A-3|..|A-1 .A.A ....|B-4 .F.A ....|C#5 ...A ....
....|..|--- .... ....|--- .... ....|--- .... ....
....|..|--- .... ....|--- .... ....|--- .... ....
....|..|R-- .... ....|--- .... ....|R-- .... ....
 B-3|..|B-1 .A.F ....|B-4 .F.F ....|D#5 ...F ....
....|..|--- .... ....|--- .... ....|--- .... ....
....|..|--- .... ....|--- .... ....|--- .... ....
....|..|R-- .... ....|--- .... ....|R-- .... ....
 A-3|..|A-1 .A.A ....|G#4 .F.A ....|C#5 ...A ....
....|..|--- .... ....|--- .... ....|--- .... ....
....|..|--- .... ....|--- .... ....|--- .... ....
....|..|R-- .... ....|--- .... ....|R-- .... ....
 C#4|..|C#2 .A.F ....|C#5 .F.F ....|E-5 ...F ....
....|..|--- .... ....|--- .... ....|--- .... ....
....|..|--- .... ....|--- .... ....|--- .... ....
....|..|R-- .... ....|--- .... ....|R-- .... ....
 B-3|..|B-1 .A.A ....|B-4 .F.A ....|D#5 ...A ....
....|..|--- .... ....|--- .... ....|--- .... ....
....|..|--- .... ....|--- .... ....|--- .... ....
....|..|R-- .... ....|--- .... ....|R-- .... ....
 A-3|..|A-1 .A.F ....|B-4 .F.F ....|C#5 ...F ....
....|..|--- .... ....|--- .... ....|--- .... ....
....|..|--- .... ....|--- .... ....|--- .... ....
....|..|R-- .... ....|--- .... ....|R-- .... ....
 C#4|..|C#2 .A.A ....|C#5 .F.A ....|E-5 ...A ....
....|..|--- .... ....|--- .... ....|--- .... ....
....|..|--- .... ....|--- .... ....|--- .... ....
....|..|R-- .... ....|--- .... ....|R-- .... ....

[Pattern21]
 E-4|..|E-2 .A.F ....|G#4 .F.F ....|G#5 ...F ....
....|..|--- .... ....|--- .... ....|--- .... ....
....|..|--- .... ....|--- .... ....|--- .... ....
....|..|R-- .... ....|--- .... ....|R-- .... ....
 A-3|..|A-1 .A.A ....|B-4 .F.A ....|C#5 ...A ....
....|..|--- .... ....|--- .... ....|--- .... ....
....|..|--- .... ....|--- .... ....|--- .... ....
....|..|R-- .... ....|--- .... ....|R-- .... ....
 E-4|..|E-2 .A.F ....|B-4 .F.F ....|E-5 ...7 ....
....|..|--- .... ....|--- .... ....|--- .... ....
....|..|--- .... ....|--- .... ....|--- .... ....
....|..|R-- .... ....|--- .... ....|R-- .... ....
 E-4|..|E-2 .A.A ....|G#4 .F.A ....|G#5 ...A ....
....|..|--- .... ....|--- .... ....|--- .... ....
....|..|--- .... ....|--- .... ....|--- .... ....
....|..|R-- .... ....|--- .... ....|R-- .... ....
 E-4|..|E-2 .A.F ....|C#5 .F.F ....|C#5 ...7 ....
....|..|--- .... ....|--- .... ....|--- .... ....
....|..|--- .... ....|--- .... ....|--- .... ....
....|..|R-- .... ....|--- .... ....|--- .... ....
 E-4|..|E-2 .A.A ....|B-4 .F.A ....|--- .... ....
....|..|--- .... ....|--- .... ....|--- .... ....
....|..|--- .... ....|--- .... ....|--- .... ....
....|..|R-- .... ....|--- .... ....|R-- .... ....
 E-4|..|E-2 .A.F ....|B-4 .F.F ....|G#5 ...7 ....
....|..|--- .... ....|--- .... ....|--- .... ....
....|..|--- .... ....|--- .... ....|--- .... ....
....|..|R-- .... ....|--- .... ....|--- .... ....
 F#4|..|F#2 .A.F ....|C#5 .F.A ....|--- .... ....
....|..|--- .... ....|--- .... ....|--- .... ....
....|..|--- .... ....|--- .... ....|R-- .... ....
....|..|R-- .... ....|--- .... ....|--- .... ....
 E-4|..|E-2 .A.F ....|G#4 .F.F ....|--- .... ....
....|..|--- .... ....|--- .... ....|--- .... ....
....|..|--- .... ....|--- .... ....|--- .... ....
....|..|R-- .... ....|--- .... ....|--- .... ....
 E-4|..|E-2 .A.A ....|B-4 .F.A ....|--- .... ....
....|..|--- .... ....|--- .... ....|--- .... ....
....|..|--- .... ....|--- .... ....|--- .... ....
....|..|R-- .... ....|--- .... ....|--- .... ....
 E-4|..|E-2 .A.F ....|B-4 .F.F ....|--- .... ....
....|..|--- .... ....|--- .... ....|--- .... ....
....|..|--- .... ....|--- .... ....|R-- .... ....
....|..|--- .... ....|--- .... ....|--- .... ....
 E-4|..|E-2 .A.A ....|G#4 .F.A ....|--- .... ....
....|..|--- .... ....|--- .... ....|--- .... ....
....|..|--- .... ....|--- .... ....|--- .... ....
....|..|R-- .... ....|--- .... ....|--- .... ....
 D#4|..|D#2 .A.F ....|C#5 .F.F ....|--- .... ....
....|..|--- .... ....|--- .... ....|--- .... ....
....|..|--- .... ....|--- .... ....|--- .... ....
....|..|R-- .... ....|--- .... ....|--- .... ....
 F#4|..|F#2 .A.7 ....|B-4 .F.A ....|--- .... ....
....|..|--- .... ....|--- .... ....|--- .... ....
....|..|--- .... ....|--- .... ....|R-- .... ....
....|..|R-- .... ....|--- .... ....|--- .... ....
 D#4|..|D#2 .A.F ....|B-4 .F.F ....|--- .... ....
....|..|--- .... ....|--- .... ....|--- .... ....
....|..|--- .... ....|--- .... ....|--- .... ....
....|..|R-- .... ....|--- .... ....|--- .... ....
 D#4|..|D#2 .A.A ....|C#5 .F.A ....|--- .... ....
....|..|--- .... ....|--- .... ....|--- .... ....
....|..|--- .... ....|--- .... ....|--- .... ....
....|..|R-- .... ....|--- .... ....|--- .... ....

[Pattern22]
 C#4|..|C#2 .A.F ....|G#4 .F.F ....|--- .... ....
....|..|--- .... ....|--- .... ....|--- .... ....
....|..|--- .... ....|--- .... ....|--- .... ....
....|..|R-- .... ....|--- .... ....|--- .... ....
 D#4|..|D#2 .A.A ....|B-4 .F.A ....|--- .... ....
....|..|--- .... ....|--- .... ....|--- .... ....
....|..|--- .... ....|--- .... ....|--- .... ....
....|..|R-- .... ....|--- .... ....|--- .... ....
 C#4|..|C#2 .A.F ....|B-4 .F.F ....|--- .... ....
....|..|--- .... ....|--- .... ....|--- .... ....
....|..|--- .... ....|--- .... ....|--- .... ....
....|..|R-- .... ....|--- .... ....|--- .... ....
 C#4|..|C#2 .A.A ....|G#4 .F.A ....|--- .... ....
....|..|--- .... ....|--- .... ....|--- .... ....
....|..|--- .... ....|--- .... ....|--- .... ....
....|..|R-- .... ....|--- .... ....|--- .... ....
 C#4|..|C#2 .A.F ....|C#5 .F.F ....|--- .... ....
....|..|--- .... ....|--- .... ....|--- .... ....
....|..|--- .... ....|--- .... ....|--- .... ....
....|..|R-- .... ....|--- .... ....|--- .... ....
 G#3|..|G#1 .A.F ....|B-4 .F.A ....|--- .... ....
....|..|--- .... ....|--- .... ....|--- .... ....
....|..|--- .... ....|--- .... ....|--- .... ....
....|..|R-- .... ....|--- .... ....|--- .... ....
 C#4|..|C#2 .A.F ....|B-4 .F.F ....|C#5 ...F ....
....|..|--- .... ....|--- .... ....|--- .... ....
....|..|--- .... ....|--- .... ....|--- .... ....
....|..|R-- .... ....|--- .... ....|--- .... ....
 G#3|..|G#1 .A.F ....|C#5 .F.A ....|C#5 ...F ....
....|..|--- .... ....|--- .... ....|--- .... ....
....|..|--- .... ....|--- .... ....|--- .... ....
....|..|R-- .... ....|--- .... ....|--- .... ....
 C#4|..|C#2 .A.F ....|G#4 .F.F ....|C#5 ...F ....
....|..|--- .... ....|--- .... ....|--- .... ....
....|..|--- .... ....|--- .... ....|--- .... ....
....|..|--- .... ....|--- .... ....|--- .... ....
 C#4|..|C#2 .A.A ....|B-4 .F.A ....|C#5 ...A ....
....|..|--- .... ....|--- .... ....|--- .... ....
....|..|--- .... ....|--- .... ....|--- .... ....
....|..|R-- .... ....|--- .... ....|R-- .... ....
 D#4|..|D#2 .A.F ....|B-4 .F.F ....|D#5 ...F ....
....|..|--- .... ....|--- .... ....|--- .... ....
....|..|--- .... ....|--- .... ....|--- .... ....
....|..|--- .... ....|--- .... ....|--- .... ....
 G#3|..|G#1 .A.7 ....|G#4 .F.A ....|C#5 ...A ....
....|..|--- .... ....|--- .... ....|--- .... ....
....|..|--- .... ....|--- .... ....|--- .... ....
....|..|R-- .... ....|--- .... ....|R-- .... ....
 E-4|..|E-2 .A.F ....|C#5 .F.F ....|E-5 ...F ....
....|..|--- .... ....|--- .... ....|--- .... ....
....|..|--- .... ....|--- .... ....|--- .... ....
....|..|R-- .... ....|--- .... ....|R-- .... ....
 G#3|..|G#1 .A.7 ....|B-4 .F.A ....|C#5 ...7 ....
....|..|--- .... ....|--- .... ....|--- .... ....
....|..|--- .... ....|--- .... ....|--- .... ....
....|..|R-- .... ....|--- .... ....|R-- .... ....
 D#4|..|D#2 .A.F ....|B-4 .F.F ....|C#5 ...F ....
....|..|--- .... ....|--- .... ....|--- .... ....
....|..|--- .... ....|--- .... ....|--- .... ....
....|..|R-- .... ....|--- .... ....|R-- .... ....
 E-4|..|E-2 .A.A ....|C#5 .F.A ....|E-5 ...A ....
....|..|--- .... ....|--- .... ....|--- .... ....
....|..|--- .... ....|--- .... ....|--- .... ....
....|..|R-- .... ....|--- .... ....|R-- .... ....

[Pattern24]
 A-3|..|A-1 .A.F ....|A-4 .F.F ....|E-5 ...F ....
....|..|--- .... ....|--- .... ....|--- .... ....
....|..|--- .... ....|--- .... ....|--- .... ....
....|..|--- .... ....|--- .... ....|R-- .... ....
 G#3|..|G#1 .A.A ....|B-4 .F.A ....|C#5 ...A ....
....|..|--- .... ....|--- .... ....|--- .... ....
....|..|--- .... ....|--- .... ....|--- .... ....
....|..|R-- .... ....|--- .... ....|R-- .... ....
 G#3|..|G#1 .A.7 ....|C#5 .F.7 ....|E-5 ...7 ....
....|..|--- .... ....|--- .... ....|--- .... ....
....|..|--- .... ....|--- .... ....|--- .... ....
....|..|R-- .... ....|--- .... ....|R-- .... ....
 G#3|..|G#1 .A.F ....|G#4 .F.F ....|E-5 ...A ....
....|..|--- .... ....|--- .... ....|--- .... ....
....|..|--- .... ....|--- .... ....|--- .... ....
....|..|--- .... ....|--- .... ....|R-- .... ....
 G#3|..|G#1 .A.7 ....|B-4 .F.7 ....|C#5 ...7 ....
....|..|--- .... ....|--- .... ....|--- .... ....
....|..|--- .... ....|--- .... ....|--- .... ....
....|..|--- .... ....|--- .... ....|--- .... ....
....|..|--- .... ....|--- .... ....|--- .... ....
....|..|--- .... ....|--- .... ....|--- .... ....
....|..|--- .... ....|--- .... ....|--- .... ....
....|..|R-- .... ....|R-- .... ....|R-- .... ....
 A-3|..|A-1 .A.F ....|A-4 .F.F ....|E-5 ...7 ....
....|..|--- .... ....|--- .... ....|--- .... ....
....|..|--- .... ....|--- .... ....|--- .... ....
....|..|--- .... ....|--- .... ....|--- .... ....
....|..|--- .... ....|--- .... ....|--- .... ....
....|..|--- .... ....|--- .... ....|--- .... ....
....|..|--- .... ....|--- .... ....|--- .... ....
....|..|--- .... ....|--- .... ....|--- .... ....
....|..|--- .... ....|--- .... ....|--- .... ....
....|..|--- .... ....|--- .... ....|--- .... ....
....|..|--- .... ....|--- .... ....|--- .... ....
....|..|R-- .... ....|R-- .... ....|--- .... ....
 G#3|..|G#1 .A.F ....|G#4 .F.F ....|--- .... ....
....|..|--- .... ....|--- .... ....|--- .... ....
....|..|--- .... ....|--- .... ....|--- .... ....
....|..|--- .... ....|--- .... ....|--- .... ....
....|..|--- .... ....|--- .... ....|--- .... ....
....|..|--- .... ....|--- .... ....|--- .... ....
....|..|--- .... ....|--- .... ....|--- .... ....
....|..|--- .... ....|--- .... ....|--- .... ....
....|..|--- .... ....|--- .... ....|--- .... ....
....|..|--- .... ....|--- .... ....|--- .... ....
....|..|--- .... ....|--- .... ....|--- .... ....
....|..|R-- .... ....|R-- .... ....|--- .... ....
 A-3|..|A-1 .A.F ....|A-4 .F.F ....|R-- .... ....
....|..|--- .... ....|--- .... ....|--- .... ....
....|..|--- .... ....|--- .... ....|--- .... ....
....|..|--- .... ....|--- .... ....|--- .... ....
....|..|--- .... ....|--- .... ....|--- .... ....
....|..|--- .... ....|--- .... ....|--- .... ....
....|..|--- .... ....|--- .... ....|--- .... ....
....|..|R-- .... ....|R-- .... ....|--- .... ....
 G#3|..|G#1 .A.F ....|G#4 .F.F ....|--- .... ....
....|..|--- .... ....|--- .... ....|--- .... ....
....|..|--- .... ....|--- .... ....|--- .... ....
....|..|R-- .... ....|R-- .... ....|--- .... ....
 G#3|..|G#1 .A.7 ....|G#4 .F.7 ....|R-- .... ....
....|..|--- .... ....|--- .... ....|--- .... ....
....|..|--- .... ....|--- .... ....|--- .... ....
....|..|R-- .... ....|R-- .... ....|--- .... ....

[Pattern25]
 A-3|..|A-1 .A.F ....|A-4 .F.F ....|G#5 ...F ....
....|..|--- .... ....|--- .... ....|--- .... ....
....|..|--- .... ....|--- .... ....|--- .... ....
....|..|R-- .... ....|R-- .... ....|--- .... ....
 G#3|..|G#1 .A.A ....|G#4 .F.A ....|--- .... ....
....|..|--- .... ....|--- .... ....|--- .... ....
....|..|--- .... ....|--- .... ....|--- .... ....
....|..|R-- .... ....|R-- .... ....|--- .... ....
 A-3|..|A-1 .A.7 ....|A-4 .F.7 ....|R-- .... ....
....|..|--- .... ....|--- .... ....|--- .... ....
....|..|--- .... ....|--- .... ....|--- .... ....
....|..|R-- .... ....|R-- .... ....|--- .... ....
 G#3|..|G#1 .A.F ....|G#4 .F.F ....|G#5 ...A ....
....|..|--- .... ....|--- .... ....|--- .... ....
....|..|--- .... ....|--- .... ....|--- .... ....
....|..|R-- .... ....|R-- .... ....|--- .... ....
 G#3|..|G#1 .A.7 ....|G#4 .F.7 ....|--- .... ....
....|..|--- .... ....|--- .... ....|--- .... ....
....|..|--- .... ....|--- .... ....|--- .... ....
....|..|--- .... ....|--- .... ....|--- .... ....
....|..|--- .... ....|--- .... ....|--- .... ....
....|..|--- .... ....|--- .... ....|--- .... ....
....|..|--- .... ....|--- .... ....|--- .... ....
....|..|R-- .... ....|R-- .... ....|--- .... ....
 A-3|..|A-1 .A.F ....|A-4 .F.F ....|G#5 ...7 ....
....|..|--- .... ....|--- .... ....|--- .... ....
....|..|--- .... ....|--- .... ....|--- .... ....
....|..|--- .... ....|--- .... ....|--- .... ....
....|..|--- .... ....|--- .... ....|--- .... ....
....|..|--- .... ....|--- .... ....|--- .... ....
....|..|--- .... ....|--- .... ....|--- .... ....
....|..|--- .... ....|--- .... ....|--- .... ....
....|..|--- .... ....|--- .... ....|--- .... ....
....|..|--- .... ....|--- .... ....|--- .... ....
....|..|--- .... ....|--- .... ....|--- .... ....
....|..|R-- .... ....|R-- .... ....|--- .... ....
 G#3|..|G#1 .A.F ....|G#4 .F.F ....|--- .... ....
....|..|--- .... ....|--- .... ....|--- .... ....
....|..|--- .... ....|--- .... ....|--- .... ....
....|..|--- .... ....|--- .... ....|--- .... ....
....|..|--- .... ....|--- .... ....|--- .... ....
....|..|--- .... ....|--- .... ....|--- .... ....
....|..|--- .... ....|--- .... ....|--- .... ....
....|..|--- .... ....|--- .... ....|--- .... ....
....|..|--- .... ....|--- .... ....|--- .... ....
....|..|--- .... ....|--- .... ....|--- .... ....
....|..|--- .... ....|--- .... ....|--- .... ....
....|..|R-- .... ....|R-- .... ....|--- .... ....
 A-3|..|A-1 .A.F ....|A-4 .F.F ....|R-- .... ....
....|..|--- .... ....|--- .... ....|--- .... ....
....|..|--- .... ....|--- .... ....|--- .... ....
....|..|--- .... ....|--- .... ....|--- .... ....
....|..|--- .... ....|--- .... ....|--- .... ....
....|..|--- .... ....|--- .... ....|--- .... ....
....|..|--- .... ....|--- .... ....|--- .... ....
....|..|R-- .... ....|R-- .... ....|--- .... ....
 G#3|..|G#1 .A.F ....|G#4 .F.F ....|--- .... ....
....|..|--- .... ....|--- .... ....|--- .... ....
....|..|--- .... ....|--- .... ....|--- .... ....
....|..|R-- .... ....|R-- .... ....|--- .... ....
 G#3|..|G#1 .A.7 ....|G#4 .F.7 ....|R-- .... ....
....|..|--- .... ....|--- .... ....|--- .... ....
....|..|--- .... ....|--- .... ....|--- .... ....
....|..|R-- .... ....|R-- .... ....|--- .... ....

[Pattern26]
 E-3|..|E-1 .A.F ....|E-4 .F.F ....|--- .... ....
....|..|--- .... ....|--- .... ....|--- .... ....
....|..|--- .... ....|--- .... ....|--- .... ....
....|..|R-- .... ....|R-- .... ....|--- .... ....
 G#3|..|G#1 .A.A ....|E-4 .F.F ....|--- .... ....
....|..|--- .... ....|--- .... ....|--- .... ....
....|..|--- .... ....|--- .... ....|--- .... ....
....|..|R-- .... ....|R-- .... ....|--- .... ....
 A-3|..|A-1 .A.7 ....|E-4 .F.F ....|R-- .... ....
....|..|--- .... ....|--- .... ....|--- .... ....
....|..|--- .... ....|--- .... ....|--- .... ....
....|..|R-- .... ....|R-- .... ....|--- .... ....
 E-3|..|E-1 .A.A ....|E-4 .F.F ....|--- .... ....
....|..|--- .... ....|--- .... ....|--- .... ....
....|..|--- .... ....|--- .... ....|--- .... ....
....|..|R-- .... ....|R-- .... ....|--- .... ....
 G#3|..|G#1 .A.7 ....|B-4 .F.F ....|--- .... ....
....|..|--- .... ....|--- .... ....|--- .... ....
....|..|--- .... ....|--- .... ....|--- .... ....
....|..|--- .... ....|--- .... ....|--- .... ....
....|..|--- .... ....|B-4 .F.F ....|--- .... ....
....|..|--- .... ....|--- .... ....|--- .... ....
....|..|--- .... ....|--- .... ....|--- .... ....
....|..|R-- .... ....|R-- .... ....|--- .... ....
 E-3|..|E-1 .A.7 ....|B-4 .F.F ....|--- .... ....
....|..|--- .... ....|--- .... ....|--- .... ....
....|..|--- .... ....|--- .... ....|--- .... ....
....|..|--- .... ....|--- .... ....|--- .... ....
....|..|--- .... ....|B-4 .F.F ....|--- .... ....
....|..|--- .... ....|--- .... ....|--- .... ....
....|..|--- .... ....|--- .... ....|--- .... ....
....|..|--- .... ....|--- .... ....|--- .... ....
....|..|--- .... ....|C#5 .F.F ....|--- .... ....
....|..|--- .... ....|--- .... ....|--- .... ....
....|..|--- .... ....|--- .... ....|--- .... ....
....|..|--- .... ....|--- .... ....|--- .... ....
....|..|--- .... ....|C#5 .F.F ....|--- .... ....
....|..|--- .... ....|--- .... ....|--- .... ....
....|..|--- .... ....|--- .... ....|--- .... ....
....|..|--- .... ....|--- .... ....|--- .... ....
....|..|--- .... ....|C#5 .F.F ....|--- .... ....
....|..|--- .... ....|--- .... ....|--- .... ....
....|..|--- .... ....|--- .... ....|--- .... ....
....|..|--- .... ....|--- .... ....|--- .... ....
....|..|--- .... ....|C#5 .F.F ....|--- .... ....
....|..|--- .... ....|--- .... ....|--- .... ....
....|..|--- .... ....|--- .... ....|--- .... ....
....|..|--- .... ....|--- .... ....|--- .... ....
....|..|--- .... ....|A-4 .F.F ....|--- .... ....
....|..|--- .... ....|--- .... ....|--- .... ....
....|..|--- .... ....|--- .... ....|--- .... ....
....|..|--- .... ....|--- .... ....|--- .... ....
....|..|--- .... ....|A-4 .F.F ....|--- .... ....
....|..|--- .... ....|--- .... ....|--- .... ....
....|..|--- .... ....|--- .... ....|--- .... ....
....|..|--- .... ....|--- .... ....|--- .... ....
....|..|--- .... ....|A-4 .F.F ....|--- .... ....
....|..|--- .... ....|--- .... ....|--- .... ....
....|..|--- .... ....|--- .... ....|--- .... ....
....|..|--- .... ....|--- .... ....|--- .... ....
....|..|--- .... ....|A-4 .F.F ....|--- .... ....
....|..|--- .... ....|--- .... ....|--- .... ....
....|..|R-- .... ....|--- .... ....|--- .... ....
....|..|--- .... ....|--- .... ....|--- .... ....

[Pattern27]
 E-4|..|E-2 .A.F ....|E-4 .F.F ....|--- .... ....
....|..|--- .... ....|--- .... ....|--- .... ....
....|..|--- .... ....|--- .... ....|--- .... ....
....|..|--- .... ....|--- .... ....|--- .... ....
....|..|--- .... ....|E-4 .F.F ....|--- .... ....
....|..|--- .... ....|--- .... ....|--- .... ....
....|..|--- .... ....|--- .... ....|--- .... ....
....|..|--- .... ....|--- .... ....|--- .... ....
....|..|--- .... ....|E-4 .F.F ....|--- .... ....
....|..|--- .... ....|--- .... ....|--- .... ....
....|..|R-- .... ....|--- .... ....|--- .... ....
....|..|--- .... ....|--- .... ....|--- .... ....
 E-4|..|E-2 .A.A ....|E-4 .F.F ....|--- .... ....
....|..|--- .... ....|--- .... ....|--- .... ....
....|..|--- .... ....|--- .... ....|--- .... ....
....|..|--- .... ....|--- .... ....|--- .... ....
....|..|--- .... ....|B-4 .F.F ....|--- .... ....
....|..|--- .... ....|--- .... ....|--- .... ....
....|..|--- .... ....|--- .... ....|--- .... ....
....|..|--- .... ....|--- .... ....|--- .... ....
....|..|--- .... ....|B-4 .F.F ....|--- .... ....
....|..|--- .... ....|--- .... ....|--- .... ....
....|..|R-- .... ....|--- .... ....|--- .... ....
....|..|--- .... ....|--- .... ....|--- .... ....
 E-4|..|E-2 .A.7 ....|B-4 .F.F ....|--- .... ....
....|..|--- .... ....|--- .... ....|--- .... ....
....|..|--- .... ....|--- .... ....|--- .... ....
....|..|--- .... ....|--- .... ....|--- .... ....
....|..|--- .... ....|B-4 .F.F ....|--- .... ....
....|..|--- .... ....|--- .... ....|--- .... ....
....|..|--- .... ....|--- .... ....|--- .... ....
....|..|--- .... ....|--- .... ....|--- .... ....
....|..|--- .... ....|C#5 .F.F ....|--- .... ....
....|..|--- .... ....|--- .... ....|--- .... ....
....|..|--- .... ....|--- .... ....|--- .... ....
....|..|--- .... ....|--- .... ....|--- .... ....
....|..|--- .... ....|C#5 .F.F ....|--- .... ....
....|..|--- .... ....|--- .... ....|--- .... ....
....|..|--- .... ....|--- .... ....|--- .... ....
....|..|--- .... ....|--- .... ....|--- .... ....
....|..|--- .... ....|C#5 .F.F ....|--- .... ....
....|..|--- .... ....|--- .... ....|--- .... ....
....|..|--- .... ....|--- .... ....|--- .... ....
....|..|--- .... ....|--- .... ....|--- .... ....
....|..|--- .... ....|C#5 .F.F ....|--- .... ....
....|..|--- .... ....|--- .... ....|--- .... ....
....|..|--- .... ....|--- .... ....|--- .... ....
....|..|--- .... ....|--- .... ....|--- .... ....
....|..|--- .... ....|A-4 .F.F ....|--- .... ....
....|..|--- .... ....|--- .... ....|--- .... ....
....|..|--- .... ....|--- .... ....|--- .... ....
....|..|--- .... ....|--- .... ....|--- .... ....
....|..|--- .... ....|A-4 .F.F ....|E-5 ...F ....
....|..|--- .... ....|--- .... ....|--- .... ....
....|..|--- .... ....|--- .... ....|--- .... ....
....|..|--- .... ....|--- .... ....|--- .... ....
....|..|--- .... ....|A-4 .F.F ....|E-5 ...F ....
....|..|--- .... ....|--- .... ....|--- .... ....
....|..|--- .... ....|--- .... ....|--- .... ....
....|..|--- .... ....|--- .... ....|--- .... ....
....|..|--- .... ....|A-4 .F.F ....|E-5 ...F ....
....|..|--- .... ....|--- .... ....|--- .... ....
....|..|R-- .... ....|--- .... ....|--- .... ....
....|..|--- .... ....|--- .... ....|--- .... ....

[Pattern28]
 E-3|..|E-1 .A.F ....|E-4 .F.F ....|E-5 ...F ....
....|..|--- .... ....|--- .... ....|--- .... ....
....|..|--- .... ....|--- .... ....|--- .... ....
....|..|--- .... ....|--- .... ....|--- .... ....
 E-3|..|E-1 .A.F ....|C#5 .F.7 ....|E-5 ...A ....
....|..|--- .... ....|--- .... ....|--- .... ....
....|..|--- .... ....|--- .... ....|--- .... ....
....|..|--- .... ....|R-- .... ....|R-- .... ....
 E-3|..|E-1 .A.F ....|E-4 .F.F ....|G#5 ...F ....
....|..|--- .... ....|--- .... ....|--- .... ....
....|..|R-- .... ....|--- .... ....|--- .... ....
....|..|--- .... ....|--- .... ....|--- .... ....
 E-3|..|E-1 .A.F ....|A-4 .F.7 ....|E-5 ...7 ....
....|..|--- .... ....|--- .... ....|--- .... ....
....|..|--- .... ....|--- .... ....|--- .... ....
....|..|--- .... ....|R-- .... ....|--- .... ....
 E-3|..|E-1 .A.F ....|E-4 .F.F ....|E-5 ...7 ....
....|..|--- .... ....|--- .... ....|--- .... ....
....|..|--- .... ....|--- .... ....|--- .... ....
....|..|--- .... ....|R-- .... ....|R-- .... ....
 E-3|..|E-1 .A.F ....|E-4 .F.F ....|E-5 ...7 ....
....|..|--- .... ....|--- .... ....|--- .... ....
....|..|R-- .... ....|--- .... ....|--- .... ....
....|..|--- .... ....|--- .... ....|--- .... ....
 E-3|..|E-1 .A.F ....|E-4 .F.F ....|E-5 ...7 ....
....|..|--- .... ....|--- .... ....|--- .... ....
....|..|--- .... ....|--- .... ....|--- .... ....
....|..|--- .... ....|R-- .... ....|--- .... ....
 E-3|..|E-1 .A.F ....|E-4 .F.F ....|--- .... ....
....|..|--- .... ....|--- .... ....|--- .... ....
....|..|--- .... ....|--- .... ....|--- .... ....
....|..|--- .... ....|R-- .... ....|R-- .... ....
 E-3|..|E-1 .A.F ....|E-4 .F.7 ....|G#5 ...7 ....
....|..|--- .... ....|--- .... ....|--- .... ....
....|..|--- .... ....|--- .... ....|--- .... ....
....|..|--- .... ....|--- .... ....|--- .... ....
 E-3|..|E-1 .A.F ....|E-4 .F.F ....|--- .... ....
....|..|--- .... ....|--- .... ....|--- .... ....
....|..|--- .... ....|--- .... ....|--- .... ....
....|..|--- .... ....|R-- .... ....|--- .... ....
 E-3|..|E-1 .A.F ....|E-4 .F.F ....|--- .... ....
....|..|--- .... ....|--- .... ....|--- .... ....
....|..|--- .... ....|--- .... ....|--- .... ....
....|..|--- .... ....|--- .... ....|--- .... ....
 E-3|..|E-1 .A.F ....|E-4 .F.7 ....|--- .... ....
....|..|--- .... ....|--- .... ....|--- .... ....
....|..|--- .... ....|--- .... ....|R-- .... ....
....|..|--- .... ....|R-- .... ....|--- .... ....
 E-3|..|E-1 .A.F ....|E-4 .F.F ....|--- .... ....
....|..|--- .... ....|--- .... ....|--- .... ....
....|..|--- .... ....|--- .... ....|--- .... ....
....|..|--- .... ....|--- .... ....|--- .... ....
 E-3|..|E-1 .A.F ....|E-4 .F.F ....|E-5 ...F ....
....|..|--- .... ....|--- .... ....|--- .... ....
....|..|--- .... ....|--- .... ....|--- .... ....
....|..|--- .... ....|--- .... ....|--- .... ....
 E-3|..|E-1 .A.F ....|E-4 .F.F ....|E-5 ...F ....
....|..|--- .... ....|--- .... ....|--- .... ....
....|..|--- .... ....|--- .... ....|R-- .... ....
....|..|--- .... ....|R-- .... ....|--- .... ....
 E-3|..|E-1 .A.F ....|E-4 .F.7 ....|E-5 ...F ....
....|..|--- .... ....|--- .... ....|--- .... ....
....|..|--- .... ....|--- .... ....|--- .... ....
....|..|--- .... ....|R-- .... ....|--- .... ....

[Pattern29]
 D#4|..|D#2 .A.F ....|D#4 .F.F ....|E-5 ...F ....
....|..|--- .... ....|--- .... ....|--- .... ....
....|..|--- .... ....|--- .... ....|--- .... ....
....|..|--- .... ....|--- .... ....|--- .... ....
 D#4|..|D#2 .A.F ....|E-4 .F.A ....|E-5 ...A ....
....|..|--- .... ....|--- .... ....|--- .... ....
....|..|--- .... ....|--- .... ....|R-- .... ....
....|..|--- .... ....|R-- .... ....|R-- .... ....
 D#4|..|D#2 .A.F ....|D#4 .F.F ....|G#5 ...F ....
....|..|--- .... ....|--- .... ....|--- .... ....
....|..|--- .... ....|--- .... ....|--- .... ....
....|..|--- .... ....|R-- .... ....|--- .... ....
 D#4|..|D#2 .A.F ....|E-4 .F.7 ....|E-5 ...7 ....
....|..|--- .... ....|--- .... ....|--- .... ....
....|..|--- .... ....|--- .... ....|--- .... ....
....|..|--- .... ....|R-- .... ....|--- .... ....
 D#4|..|D#2 .A.F ....|D#4 .F.F ....|E-5 ...7 ....
....|..|--- .... ....|--- .... ....|--- .... ....
....|..|--- .... ....|--- .... ....|--- .... ....
....|..|--- .... ....|R-- .... ....|R-- .... ....
 D#4|..|D#2 .A.F ....|D#4 .F.F ....|E-5 ...7 ....
....|..|--- .... ....|--- .... ....|--- .... ....
....|..|--- .... ....|--- .... ....|--- .... ....
....|..|--- .... ....|R-- .... ....|--- .... ....
 D#4|..|D#2 .A.F ....|D#4 .F.F ....|E-5 ...7 ....
....|..|--- .... ....|--- .... ....|--- .... ....
....|..|--- .... ....|--- .... ....|--- .... ....
....|..|--- .... ....|R-- .... ....|--- .... ....
 D#4|..|D#2 .A.F ....|D#4 .F.F ....|--- .... ....
....|..|--- .... ....|--- .... ....|--- .... ....
....|..|--- .... ....|--- .... ....|--- .... ....
....|..|--- .... ....|R-- .... ....|R-- .... ....
 D#4|..|D#2 .A.F ....|D#4 .F.7 ....|G#5 ...7 ....
....|..|--- .... ....|--- .... ....|--- .... ....
....|..|--- .... ....|--- .... ....|--- .... ....
....|..|--- .... ....|--- .... ....|--- .... ....
 D#4|..|D#2 .A.F ....|D#4 .F.F ....|--- .... ....
....|..|--- .... ....|--- .... ....|--- .... ....
....|..|--- .... ....|--- .... ....|--- .... ....
....|..|--- .... ....|R-- .... ....|--- .... ....
 D#4|..|D#2 .A.F ....|D#4 .F.F ....|--- .... ....
....|..|--- .... ....|--- .... ....|--- .... ....
....|..|--- .... ....|--- .... ....|--- .... ....
....|..|--- .... ....|--- .... ....|--- .... ....
 D#4|..|D#2 .A.F ....|D#4 .F.7 ....|--- .... ....
....|..|--- .... ....|--- .... ....|--- .... ....
....|..|--- .... ....|--- .... ....|R-- .... ....
....|..|--- .... ....|R-- .... ....|--- .... ....
 D#4|..|D#2 .A.F ....|D#4 .F.F ....|--- .... ....
....|..|--- .... ....|--- .... ....|--- .... ....
....|..|--- .... ....|--- .... ....|--- .... ....
....|..|--- .... ....|--- .... ....|--- .... ....
 D#4|..|D#2 .A.F ....|D#4 .F.F ....|--- .... ....
....|..|--- .... ....|--- .... ....|--- .... ....
....|..|--- .... ....|--- .... ....|--- .... ....
....|..|--- .... ....|--- .... ....|--- .... ....
 D#4|..|D#2 .A.F ....|D#4 .F.F ....|E-5 ...F ....
....|..|--- .... ....|--- .... ....|--- .... ....
....|..|--- .... ....|--- .... ....|R-- .... ....
....|..|--- .... ....|R-- .... ....|--- .... ....
 D#4|..|D#2 .A.F ....|D#4 .F.7 ....|F#5 ...F ....
....|..|--- .... ....|--- .... ....|--- .... ....
....|..|--- .... ....|--- .... ....|--- .... ....
....|..|--- .... ....|R-- .... ....|--- .... ....

[Pattern30]
 C#4|..|C#2 .A.F ....|E-4 .F.F ....|G#5 ...F ....
....|..|--- .... ....|--- .... ....|--- .... ....
....|..|--- .... ....|--- .... ....|--- .... ....
....|..|--- .... ....|--- .... ....|--- .... ....
 C#4|..|C#2 .A.F ....|D#4 .F.A ....|G#5 ...F ....
....|..|--- .... ....|--- .... ....|--- .... ....
....|..|--- .... ....|--- .... ....|R-- .... ....
....|..|--- .... ....|R-- .... ....|--- .... ....
 C#4|..|C#2 .A.F ....|E-4 .F.F ....|F#5 ...F ....
....|..|--- .... ....|--- .... ....|--- .... ....
....|..|--- .... ....|--- .... ....|--- .... ....
....|..|--- .... ....|R-- .... ....|--- .... ....
 C#4|..|C#2 .A.F ....|D#4 .F.7 ....|E-5 ...F ....
....|..|--- .... ....|--- .... ....|--- .... ....
....|..|--- .... ....|--- .... ....|--- .... ....
....|..|--- .... ....|R-- .... ....|--- .... ....
 C#4|..|C#2 .A.F ....|E-4 .F.F ....|E-5 ...7 ....
....|..|--- .... ....|--- .... ....|--- .... ....
....|..|--- .... ....|--- .... ....|--- .... ....
....|..|--- .... ....|R-- .... ....|--- .... ....
 C#4|..|C#2 .A.F ....|E-4 .F.F ....|E-5 ...F ....
....|..|--- .... ....|--- .... ....|--- .... ....
....|..|--- .... ....|--- .... ....|--- .... ....
....|..|--- .... ....|R-- .... ....|--- .... ....
 C#4|..|C#2 .A.F ....|E-4 .F.F ....|E-5 ...F ....
....|..|--- .... ....|--- .... ....|--- .... ....
....|..|--- .... ....|--- .... ....|--- .... ....
....|..|--- .... ....|R-- .... ....|--- .... ....
 B-3|..|B-1 .A.F ....|D#4 .F.F ....|F#5 ...F ....
....|..|--- .... ....|--- .... ....|--- .... ....
....|..|--- .... ....|--- .... ....|--- .... ....
....|..|--- .... ....|R-- .... ....|--- .... ....
 B-3|..|B-1 .A.F ....|E-4 .F.7 ....|G#5 ...F ....
....|..|--- .... ....|--- .... ....|--- .... ....
....|..|--- .... ....|--- .... ....|--- .... ....
....|..|--- .... ....|--- .... ....|--- .... ....
 B-3|..|B-1 .A.F ....|D#4 .F.F ....|E-5 ...7 ....
....|..|--- .... ....|--- .... ....|--- .... ....
....|..|--- .... ....|--- .... ....|--- .... ....
....|..|--- .... ....|R-- .... ....|R-- .... ....
 B-3|..|B-1 .A.F ....|D#4 .F.F ....|F#5 ...F ....
....|..|--- .... ....|--- .... ....|--- .... ....
....|..|--- .... ....|--- .... ....|--- .... ....
....|..|--- .... ....|--- .... ....|--- .... ....
 B-3|..|B-1 .A.F ....|E-4 .F.7 ....|E-5 ...F ....
....|..|--- .... ....|--- .... ....|--- .... ....
....|..|--- .... ....|--- .... ....|--- .... ....
....|..|--- .... ....|R-- .... ....|--- .... ....
 B-3|..|B-1 .A.F ....|D#4 .F.F ....|E-5 ...7 ....
....|..|--- .... ....|--- .... ....|--- .... ....
....|..|--- .... ....|--- .... ....|--- .... ....
....|..|--- .... ....|--- .... ....|R-- .... ....
 B-3|..|B-1 .A.F ....|D#4 .F.F ....|E-5 ...F ....
....|..|--- .... ....|--- .... ....|--- .... ....
....|..|--- .... ....|--- .... ....|--- .... ....
....|..|--- .... ....|--- .... ....|--- .... ....
 B-3|..|B-1 .A.F ....|D#4 .F.F ....|G#5 ...7 ....
....|..|--- .... ....|--- .... ....|--- .... ....
....|..|--- .... ....|--- .... ....|--- .... ....
....|..|--- .... ....|R-- .... ....|R-- .... ....
 B-3|..|B-1 .A.F ....|D#4 .F.7 ....|F#5 ...F ....
....|..|--- .... ....|--- .... ....|--- .... ....
....|..|--- .... ....|--- .... ....|--- .... ....
....|..|--- .... ....|R-- .... ....|R-- .... ....

[Pattern31]
 A-3|..|A-1 .A.F ....|C#4 .F.F ....|E-5 ...F ....
....|..|--- .... ....|--- .... ....|--- .... ....
....|..|--- .... ....|--- .... ....|--- .... ....
....|..|--- .... ....|--- .... ....|--- .... ....
 A-3|..|A-1 .A.F ....|D#4 .F.A ....|E-5 ...7 ....
....|..|--- .... ....|--- .... ....|--- .... ....
....|..|--- .... ....|--- .... ....|--- .... ....
....|..|--- .... ....|R-- .... ....|R-- .... ....
 A-3|..|A-1 .A.F ....|C#4 .F.F ....|R-- .... ....
....|..|--- .... ....|--- .... ....|--- .... ....
....|..|--- .... ....|--- .... ....|--- .... ....
....|..|--- .... ....|R-- .... ....|--- .... ....
 A-3|..|A-1 .A.F ....|D#4 .F.7 ....|F#5 ...F ....
....|..|--- .... ....|--- .... ....|--- .... ....
....|..|--- .... ....|--- .... ....|--- .... ....
....|..|--- .... ....|R-- .... ....|--- .... ....
 A-3|..|A-1 .A.F ....|C#4 .F.F ....|E-5 ...F ....
....|..|--- .... ....|--- .... ....|--- .... ....
....|..|--- .... ....|--- .... ....|--- .... ....
....|..|--- .... ....|R-- .... ....|R-- .... ....
 A-3|..|A-1 .A.F ....|C#4 .F.F ....|F#5 ...7 ....
....|..|--- .... ....|--- .... ....|--- .... ....
....|..|--- .... ....|--- .... ....|--- .... ....
....|..|--- .... ....|R-- .... ....|--- .... ....
 A-3|..|A-1 .A.F ....|C#4 .F.F ....|F#5 ...F ....
....|..|--- .... ....|--- .... ....|--- .... ....
....|..|--- .... ....|--- .... ....|--- .... ....
....|..|--- .... ....|R-- .... ....|--- .... ....
 A-3|..|A-1 .A.F ....|C#4 .F.F ....|E-5 ...F ....
....|..|--- .... ....|--- .... ....|--- .... ....
....|..|--- .... ....|--- .... ....|--- .... ....
....|..|--- .... ....|R-- .... ....|R-- .... ....
 A-3|..|A-1 .A.F ....|C#4 .F.7 ....|R-- .... ....
....|..|--- .... ....|--- .... ....|--- .... ....
....|..|--- .... ....|--- .... ....|--- .... ....
....|..|--- .... ....|--- .... ....|--- .... ....
 A-3|..|A-1 .A.F ....|C#4 .F.F ....|F#5 ...7 ....
....|..|--- .... ....|--- .... ....|--- .... ....
....|..|--- .... ....|--- .... ....|--- .... ....
....|..|--- .... ....|R-- .... ....|--- .... ....
 A-3|..|A-1 .A.F ....|C#4 .F.F ....|E-5 ...7 ....
....|..|--- .... ....|--- .... ....|--- .... ....
....|..|--- .... ....|--- .... ....|--- .... ....
....|..|--- .... ....|--- .... ....|--- .... ....
 A-3|..|A-1 .A.F ....|C#4 .F.7 ....|R-- .... ....
....|..|--- .... ....|--- .... ....|--- .... ....
....|..|--- .... ....|--- .... ....|R-- .... ....
....|..|--- .... ....|R-- .... ....|--- .... ....
 A-3|..|A-1 .A.F ....|C#4 .F.F ....|F#5 ...7 ....
....|..|--- .... ....|--- .... ....|--- .... ....
....|..|--- .... ....|--- .... ....|--- .... ....
....|..|--- .... ....|--- .... ....|--- .... ....
 A-3|..|A-1 .A.F ....|C#4 .F.F ....|E-5 ...F ....
....|..|--- .... ....|--- .... ....|--- .... ....
....|..|--- .... ....|--- .... ....|--- .... ....
....|..|--- .... ....|--- .... ....|--- .... ....
 A-3|..|A-1 .A.F ....|C#4 .F.F ....|E-5 ...F ....
....|..|--- .... ....|--- .... ....|--- .... ....
....|..|--- .... ....|--- .... ....|R-- .... ....
....|..|--- .... ....|R-- .... ....|--- .... ....
 A-3|..|A-1 .A.F ....|C#4 .F.7 ....|E-5 ...F ....
....|..|--- .... ....|--- .... ....|--- .... ....
....|..|--- .... ....|--- .... ....|--- .... ....
....|..|--- .... ....|R-- .... ....|--- .... ....

[Pattern32]
 E-3|..|E-1 .A.F ....|E-4 .F.F ....|E-5 ...F ....
....|..|--- .... ....|--- .... ....|--- .... ....
....|..|--- .... ....|--- .... ....|--- .... ....
....|..|--- .... ....|--- .... ....|--- .... ....
 E-3|..|E-1 .A.F ....|C#4 .F.A ....|E-5 ...A ....
....|..|--- .... ....|--- .... ....|--- .... ....
....|..|--- .... ....|--- .... ....|R-- .... ....
....|..|--- .... ....|R-- .... ....|R-- .... ....
 E-3|..|E-1 .A.F ....|E-4 .F.F ....|G#5 ...F ....
....|..|--- .... ....|--- .... ....|--- .... ....
....|..|--- .... ....|--- .... ....|--- .... ....
....|..|--- .... ....|R-- .... ....|--- .... ....
 E-3|..|E-1 .A.F ....|C#4 .F.7 ....|E-5 ...7 ....
....|..|--- .... ....|--- .... ....|--- .... ....
....|..|--- .... ....|--- .... ....|--- .... ....
....|..|--- .... ....|R-- .... ....|--- .... ....
 E-3|..|E-1 .A.F ....|E-4 .F.F ....|E-5 ...7 ....
....|..|--- .... ....|--- .... ....|--- .... ....
....|..|--- .... ....|--- .... ....|--- .... ....
....|..|--- .... ....|R-- .... ....|R-- .... ....
 E-3|..|E-1 .A.F ....|E-4 .F.F ....|E-5 ...7 ....
....|..|--- .... ....|--- .... ....|--- .... ....
....|..|--- .... ....|--- .... ....|--- .... ....
....|..|--- .... ....|R-- .... ....|--- .... ....
 E-3|..|E-1 .A.F ....|E-4 .F.F ....|E-5 ...7 ....
....|..|--- .... ....|--- .... ....|--- .... ....
....|..|--- .... ....|--- .... ....|--- .... ....
....|..|--- .... ....|R-- .... ....|--- .... ....
 E-3|..|E-1 .A.F ....|E-4 .F.F ....|--- .... ....
....|..|--- .... ....|--- .... ....|--- .... ....
....|..|--- .... ....|--- .... ....|--- .... ....
....|..|--- .... ....|R-- .... ....|R-- .... ....
 E-3|..|E-1 .A.F ....|E-4 .F.7 ....|G#5 ...7 ....
....|..|--- .... ....|--- .... ....|--- .... ....
....|..|--- .... ....|--- .... ....|--- .... ....
....|..|--- .... ....|--- .... ....|--- .... ....
 E-3|..|E-1 .A.F ....|E-4 .F.F ....|--- .... ....
....|..|--- .... ....|--- .... ....|--- .... ....
....|..|--- .... ....|--- .... ....|--- .... ....
....|..|--- .... ....|R-- .... ....|--- .... ....
 E-3|..|E-1 .A.F ....|E-4 .F.F ....|--- .... ....
....|..|--- .... ....|--- .... ....|--- .... ....
....|..|--- .... ....|--- .... ....|--- .... ....
....|..|--- .... ....|--- .... ....|--- .... ....
 E-3|..|E-1 .A.F ....|E-4 .F.7 ....|--- .... ....
....|..|--- .... ....|--- .... ....|--- .... ....
....|..|--- .... ....|--- .... ....|R-- .... ....
....|..|--- .... ....|R-- .... ....|--- .... ....
 E-3|..|E-1 .A.F ....|E-4 .F.F ....|--- .... ....
....|..|--- .... ....|--- .... ....|--- .... ....
....|..|--- .... ....|--- .... ....|--- .... ....
....|..|--- .... ....|--- .... ....|--- .... ....
 E-3|..|E-1 .A.F ....|E-4 .F.F ....|E-5 ...F ....
....|..|--- .... ....|--- .... ....|--- .... ....
....|..|--- .... ....|--- .... ....|--- .... ....
....|..|--- .... ....|--- .... ....|--- .... ....
 E-3|..|E-1 .A.F ....|E-4 .F.F ....|E-5 ...F ....
....|..|--- .... ....|--- .... ....|--- .... ....
....|..|--- .... ....|--- .... ....|R-- .... ....
....|..|--- .... ....|R-- .... ....|--- .... ....
 E-3|..|E-1 .A.F ....|E-4 .F.7 ....|E-5 ...F ....
....|..|--- .... ....|--- .... ....|--- .... ....
....|..|--- .... ....|--- .... ....|--- .... ....
....|..|--- .... ....|R-- .... ....|--- .... ....

[Pattern33]
 D#4|..|D#2 .A.F ....|D#4 .F.F ....|E-5 ...F ....
....|..|--- .... ....|--- .... ....|--- .... ....
....|..|--- .... ....|--- .... ....|--- .... ....
....|..|--- .... ....|--- .... ....|--- .... ....
 D#4|..|D#2 .A.F ....|E-4 .F.A ....|E-5 ...A ....
....|..|--- .... ....|--- .... ....|--- .... ....
....|..|--- .... ....|--- .... ....|R-- .... ....
....|..|--- .... ....|R-- .... ....|R-- .... ....
 D#4|..|D#2 .A.F ....|D#4 .F.F ....|G#5 ...F ....
....|..|--- .... ....|--- .... ....|--- .... ....
....|..|--- .... ....|--- .... ....|--- .... ....
....|..|--- .... ....|R-- .... ....|--- .... ....
 D#4|..|D#2 .A.F ....|E-4 .F.7 ....|E-5 ...7 ....
....|..|--- .... ....|--- .... ....|--- .... ....
....|..|--- .... ....|--- .... ....|--- .... ....
....|..|--- .... ....|R-- .... ....|--- .... ....
 D#4|..|D#2 .A.F ....|D#4 .F.F ....|E-5 ...7 ....
....|..|--- .... ....|--- .... ....|--- .... ....
....|..|--- .... ....|--- .... ....|--- .... ....
....|..|--- .... ....|R-- .... ....|R-- .... ....
 D#4|..|D#2 .A.F ....|D#4 .F.F ....|E-5 ...7 ....
....|..|--- .... ....|--- .... ....|--- .... ....
....|..|--- .... ....|--- .... ....|--- .... ....
....|..|--- .... ....|R-- .... ....|--- .... ....
 D#4|..|D#2 .A.F ....|D#4 .F.F ....|E-5 ...7 ....
....|..|--- .... ....|--- .... ....|--- .... ....
....|..|--- .... ....|--- .... ....|--- .... ....
....|..|--- .... ....|R-- .... ....|--- .... ....
 D#4|..|D#2 .A.F ....|D#4 .F.F ....|--- .... ....
....|..|--- .... ....|--- .... ....|--- .... ....
....|..|--- .... ....|--- .... ....|--- .... ....
....|..|--- .... ....|R-- .... ....|R-- .... ....
 D#4|..|D#2 .A.F ....|D#4 .F.7 ....|G#5 ...7 ....
....|..|--- .... ....|--- .... ....|--- .... ....
....|..|--- .... ....|--- .... ....|--- .... ....
....|..|--- .... ....|--- .... ....|--- .... ....
 D#4|..|D#2 .A.F ....|D#4 .F.F ....|--- .... ....
....|..|--- .... ....|--- .... ....|--- .... ....
....|..|--- .... ....|--- .... ....|--- .... ....
....|..|--- .... ....|R-- .... ....|--- .... ....
 D#4|..|D#2 .A.F ....|D#4 .F.F ....|--- .... ....
....|..|--- .... ....|--- .... ....|--- .... ....
....|..|--- .... ....|--- .... ....|--- .... ....
....|..|--- .... ....|--- .... ....|--- .... ....
 D#4|..|D#2 .A.F ....|D#4 .F.7 ....|--- .... ....
....|..|--- .... ....|--- .... ....|--- .... ....
....|..|--- .... ....|--- .... ....|R-- .... ....
....|..|--- .... ....|R-- .... ....|--- .... ....
 D#4|..|D#2 .A.F ....|D#4 .F.F ....|--- .... ....
....|..|--- .... ....|--- .... ....|--- .... ....
....|..|--- .... ....|--- .... ....|--- .... ....
....|..|--- .... ....|--- .... ....|--- .... ....
 D#4|..|D#2 .A.F ....|D#4 .F.F ....|E-5 ...F ....
....|..|--- .... ....|--- .... ....|--- .... ....
....|..|--- .... ....|--- .... ....|--- .... ....
....|..|--- .... ....|--- .... ....|--- .... ....
 D#4|..|D#2 .A.F ....|D#4 .F.F ....|E-5 ...F ....
....|..|--- .... ....|--- .... ....|--- .... ....
....|..|--- .... ....|--- .... ....|R-- .... ....
....|..|--- .... ....|R-- .... ....|--- .... ....
 D#4|..|D#2 .A.F ....|D#4 .F.7 ....|F#5 ...F ....
....|..|--- .... ....|--- .... ....|--- .... ....
....|..|--- .... ....|--- .... ....|--- .... ....
....|..|--- .... ....|R-- .... ....|--- .... ....

[Pattern34]
 C#4|..|C#2 .A.F ....|C#4 .F.F ....|G#5 ...F ....
....|..|--- .... ....|--- .... ....|--- .... ....
....|..|--- .... ....|--- .... ....|--- .... ....
....|..|--- .... ....|--- .... ....|--- .... ....
 C#4|..|C#2 .A.F ....|D#4 .F.A ....|G#5 ...F ....
....|..|--- .... ....|--- .... ....|--- .... ....
....|..|--- .... ....|--- .... ....|R-- .... ....
....|..|--- .... ....|R-- .... ....|--- .... ....
 C#4|..|C#2 .A.F ....|C#4 .F.F ....|F#5 ...F ....
....|..|--- .... ....|--- .... ....|--- .... ....
....|..|--- .... ....|--- .... ....|--- .... ....
....|..|--- .... ....|R-- .... ....|--- .... ....
 C#4|..|C#2 .A.F ....|D#4 .F.7 ....|E-5 ...F ....
....|..|--- .... ....|--- .... ....|--- .... ....
....|..|--- .... ....|--- .... ....|--- .... ....
....|..|--- .... ....|--- .... ....|--- .... ....
 C#4|..|C#2 .A.F ....|C#4 .F.F ....|E-5 ...7 ....
....|..|--- .... ....|--- .... ....|--- .... ....
....|..|--- .... ....|--- .... ....|--- .... ....
....|..|--- .... ....|--- .... ....|--- .... ....
 C#4|..|C#2 .A.F ....|C#4 .F.F ....|E-5 ...F ....
....|..|--- .... ....|--- .... ....|--- .... ....
....|..|--- .... ....|--- .... ....|--- .... ....
....|..|--- .... ....|R-- .... ....|--- .... ....
 C#4|..|C#2 .A.F ....|C#4 .F.F ....|E-5 ...F ....
....|..|--- .... ....|--- .... ....|--- .... ....
....|..|--- .... ....|--- .... ....|--- .... ....
....|..|--- .... ....|--- .... ....|--- .... ....
 B-3|..|B-1 .A.F ....|B-3 .F.F ....|F#5 ...F ....
....|..|--- .... ....|--- .... ....|--- .... ....
....|..|--- .... ....|--- .... ....|--- .... ....
....|..|--- .... ....|--- .... ....|--- .... ....
 B-3|..|B-1 .A.F ....|C#4 .F.7 ....|G#5 ...F ....
....|..|--- .... ....|--- .... ....|--- .... ....
....|..|--- .... ....|--- .... ....|--- .... ....
....|..|--- .... ....|--- .... ....|--- .... ....
 B-3|..|B-1 .A.F ....|B-3 .F.F ....|G#5 ...F ....
....|..|--- .... ....|--- .... ....|--- .... ....
....|..|--- .... ....|--- .... ....|--- .... ....
....|..|--- .... ....|--- .... ....|--- .... ....
 B-3|..|B-1 .A.F ....|B-3 .F.F ....|F#5 ...F ....
....|..|--- .... ....|--- .... ....|--- .... ....
....|..|--- .... ....|--- .... ....|--- .... ....
....|..|--- .... ....|--- .... ....|--- .... ....
 B-3|..|B-1 .A.F ....|C#4 .F.7 ....|E-5 ...F ....
....|..|--- .... ....|--- .... ....|--- .... ....
....|..|--- .... ....|--- .... ....|--- .... ....
....|..|--- .... ....|--- .... ....|--- .... ....
 B-3|..|B-1 .A.F ....|B-3 .F.F ....|E-5 ...7 ....
....|..|--- .... ....|--- .... ....|--- .... ....
....|..|--- .... ....|--- .... ....|--- .... ....
....|..|--- .... ....|--- .... ....|--- .... ....
 B-3|..|B-1 .A.F ....|B-3 .F.F ....|E-5 ...F ....
....|..|--- .... ....|--- .... ....|--- .... ....
....|..|--- .... ....|--- .... ....|--- .... ....
....|..|--- .... ....|--- .... ....|--- .... ....
 B-3|..|B-1 .A.F ....|B-3 .F.F ....|E-5 ...F ....
....|..|--- .... ....|--- .... ....|--- .... ....
....|..|--- .... ....|--- .... ....|--- .... ....
....|..|--- .... ....|--- .... ....|--- .... ....
 B-3|..|B-1 .A.F ....|B-3 .F.7 ....|F#5 ...F ....
....|..|--- .... ....|--- .... ....|--- .... ....
....|..|--- .... ....|--- .... ....|--- .... ....
....|..|--- .... ....|--- .... ....|--- .... ....

[Pattern35]
 A-3|..|A-1 .A.F ....|A-3 .F.F ....|E-5 ...F ....
....|..|--- .... ....|--- .... ....|--- .... ....
....|..|--- .... ....|--- .... ....|--- .... ....
....|..|--- .... ....|--- .... ....|--- .... ....
 A-3|..|A-1 .A.F ....|B-3 .F.A ....|E-5 ...7 ....
....|..|--- .... ....|--- .... ....|--- .... ....
....|..|--- .... ....|--- .... ....|--- .... ....
....|..|--- .... ....|--- .... ....|R-- .... ....
 A-3|..|A-1 .A.F ....|A-3 .F.F ....|E-5 ...F ....
....|..|--- .... ....|--- .... ....|--- .... ....
....|..|--- .... ....|--- .... ....|--- .... ....
....|..|--- .... ....|--- .... ....|--- .... ....
 A-3|..|A-1 .A.F ....|B-3 .F.7 ....|E-5 ...F ....
....|..|--- .... ....|--- .... ....|--- .... ....
....|..|--- .... ....|--- .... ....|--- .... ....
....|..|--- .... ....|--- .... ....|--- .... ....
 A-3|..|A-1 .A.F ....|A-3 .F.F ....|E-5 ...7 ....
....|..|--- .... ....|--- .... ....|--- .... ....
....|..|--- .... ....|--- .... ....|--- .... ....
....|..|--- .... ....|--- .... ....|R-- .... ....
 A-3|..|A-1 .A.F ....|A-3 .F.F ....|E-5 ...F ....
....|..|--- .... ....|--- .... ....|--- .... ....
....|..|--- .... ....|--- .... ....|--- .... ....
....|..|--- .... ....|--- .... ....|--- .... ....
 A-3|..|A-1 .A.F ....|A-3 .F.F ....|E-5 ...F ....
....|..|--- .... ....|--- .... ....|--- .... ....
....|..|--- .... ....|--- .... ....|--- .... ....
....|..|--- .... ....|--- .... ....|--- .... ....
 A-3|..|A-1 .A.F ....|A-3 .F.F ....|--- .... ....
....|..|--- .... ....|--- .... ....|--- .... ....
....|..|--- .... ....|--- .... ....|--- .... ....
....|..|--- .... ....|--- .... ....|R-- .... ....
 A-3|..|A-1 .A.F ....|A-3 .F.F ....|E-5 ...F ....
....|..|--- .... ....|--- .... ....|--- .... ....
....|..|--- .... ....|--- .... ....|--- .... ....
....|..|--- .... ....|--- .... ....|--- .... ....
 A-3|..|A-1 .A.F ....|A-3 .F.F ....|E-5 ...F ....
....|..|--- .... ....|--- .... ....|--- .... ....
....|..|--- .... ....|--- .... ....|--- .... ....
....|..|--- .... ....|--- .... ....|--- .... ....
 A-3|..|A-1 .A.F ....|A-3 .F.F ....|E-5 ...F ....
....|..|--- .... ....|--- .... ....|--- .... ....
....|..|--- .... ....|--- .... ....|--- .... ....
....|..|--- .... ....|--- .... ....|R-- .... ....
 A-3|..|A-1 .A.F ....|A-3 .F.7 ....|F#5 ...F ....
....|..|--- .... ....|--- .... ....|--- .... ....
....|..|--- .... ....|--- .... ....|--- .... ....
....|..|--- .... ....|--- .... ....|--- .... ....
 A-3|..|A-1 .A.F ....|A-3 .F.F ....|G#5 ...F ....
....|..|--- .... ....|--- .... ....|--- .... ....
....|..|--- .... ....|--- .... ....|--- .... ....
....|..|--- .... ....|--- .... ....|--- .... ....
 A-3|..|A-1 .A.F ....|A-3 .F.F ....|F#5 ...F ....
....|..|--- .... ....|--- .... ....|--- .... ....
....|..|--- .... ....|--- .... ....|--- .... ....
....|..|--- .... ....|--- .... ....|R-- .... ....
 A-3|..|A-1 .A.F ....|A-3 .F.F ....|E-5 ...F ....
....|..|--- .... ....|--- .... ....|--- .... ....
....|..|--- .... ....|--- .... ....|--- .... ....
....|..|--- .... ....|--- .... ....|--- .... ....
 A-3|..|A-1 .A.F ....|A-3 .F.7 ....|E-5 ...7 ....
....|..|--- .... ....|--- .... ....|--- .... ....
....|..|--- .... ....|--- .... ....|--- .... ....
....|..|--- .... ....|--- .... ....|R-- .... ....

[Pattern36]
 E-3|..|E-1 .A.F ....|A-3 .F.7 ....|E-5 ...7 ....
....|..|--- .... ....|--- .... ....|--- .... ....
....|..|--- .... ....|--- .... ....|--- .... ....
....|..|--- .... ....|--- .... ....|--- .... ....
 E-3|..|E-1 .A.F ....|A-3 .F.A ....|F#5 ...7 ....
....|..|--- .... ....|--- .... ....|--- .... ....
....|..|--- .... ....|--- .... ....|--- .... ....
....|..|--- .... ....|--- .... ....|--- .... ....
 E-3|..|E-1 .A.F ....|A-3 .F.7 ....|G#5 ...7 ....
....|..|--- .... ....|--- .... ....|--- .... ....
....|..|--- .... ....|--- .... ....|--- .... ....
....|..|--- .... ....|--- .... ....|R-- .... ....
 F#3|..|F#1 .A.F ....|A-3 .F.7 ....|F#5 ...7 ....
....|..|--- .... ....|--- .... ....|--- .... ....
....|..|--- .... ....|--- .... ....|--- .... ....
....|..|--- .... ....|--- .... ....|--- .... ....
 E-3|..|E-1 .A.F ....|A-3 .F.7 ....|E-5 ...7 ....
....|..|--- .... ....|--- .... ....|--- .... ....
....|..|--- .... ....|--- .... ....|--- .... ....
....|..|--- .... ....|--- .... ....|--- .... ....
 E-3|..|E-1 .A.F ....|--- .... ....|--- .... ....
....|..|--- .... ....|--- .... ....|--- .... ....
....|..|--- .... ....|--- .... ....|--- .... ....
....|..|--- .... ....|--- .... ....|R-- .... ....
 A-3|..|A-1 .A.F ....|R-- .... ....|--- .... ....
....|..|--- .... ....|--- .... ....|--- .... ....
....|..|--- .... ....|--- .... ....|--- .... ....
....|..|--- .... ....|--- .... ....|--- .... ....
 G#3|..|G#1 .A.F ....|--- .... ....|--- .... ....
....|..|--- .... ....|--- .... ....|--- .... ....
....|..|--- .... ....|--- .... ....|--- .... ....
....|..|--- .... ....|--- .... ....|--- .... ....
 E-3|..|E-1 .A.F ....|--- .... ....|--- .... ....
....|..|--- .... ....|--- .... ....|--- .... ....
....|..|--- .... ....|--- .... ....|--- .... ....
....|..|--- .... ....|--- .... ....|--- .... ....
 E-3|..|E-1 .A.F ....|--- .... ....|--- .... ....
....|..|--- .... ....|--- .... ....|--- .... ....
....|..|--- .... ....|--- .... ....|--- .... ....
....|..|--- .... ....|--- .... ....|--- .... ....
 E-3|..|E-1 .A.F ....|--- .... ....|--- .... ....
....|..|--- .... ....|--- .... ....|--- .... ....
....|..|--- .... ....|--- .... ....|--- .... ....
....|..|--- .... ....|--- .... ....|--- .... ....
 F#3|..|F#1 .A.F ....|--- .... ....|--- .... ....
....|..|--- .... ....|--- .... ....|--- .... ....
....|..|--- .... ....|--- .... ....|--- .... ....
....|..|--- .... ....|--- .... ....|--- .... ....
 E-3|..|E-1 .A.F ....|--- .... ....|--- .... ....
....|..|--- .... ....|--- .... ....|--- .... ....
....|..|--- .... ....|--- .... ....|--- .... ....
....|..|--- .... ....|--- .... ....|--- .... ....
 E-3|..|E-1 .A.F ....|--- .... ....|--- .... ....
....|..|--- .... ....|--- .... ....|--- .... ....
....|..|--- .... ....|--- .... ....|--- .... ....
....|..|--- .... ....|--- .... ....|--- .... ....
 A-3|..|A-1 .A.F ....|--- .... ....|--- .... ....
....|..|--- .... ....|--- .... ....|--- .... ....
....|..|--- .... ....|--- .... ....|--- .... ....
....|..|--- .... ....|--- .... ....|--- .... ....
 G#3|..|G#1 .A.F ....|--- .... ....|--- .... ....
....|..|--- .... ....|--- .... ....|--- .... ....
....|..|--- .... ....|--- .... ....|--- .... ....
....|..|--- .... ....|--- .... ....|--- .... ....

[Pattern37]
 E-3|..|E-1 .A.F ....|G#3 .F1F ....|--- .... ....
....|..|--- .... ....|--- .... ....|--- .... ....
....|..|--- .... ....|--- .... ....|--- .... ....
....|..|--- .... ....|--- .... ....|--- .... ....
 E-3|..|E-1 .A.F ....|G#3 .F1F ....|--- .... ....
....|..|--- .... ....|--- .... ....|--- .... ....
....|..|--- .... ....|--- .... ....|--- .... ....
....|..|--- .... ....|--- .... ....|--- .... ....
 E-3|..|E-1 .A.F ....|R-- .... ....|--- .... ....
....|..|--- .... ....|--- .... ....|--- .... ....
....|..|--- .... ....|--- .... ....|--- .... ....
....|..|--- .... ....|--- .... ....|--- .... ....
 F#3|..|F#1 .A.F ....|G#3 .F1A ....|--- .... ....
....|..|--- .... ....|--- .... ....|--- .... ....
....|..|--- .... ....|--- .... ....|--- .... ....
....|..|--- .... ....|--- .... ....|--- .... ....
 E-3|..|E-1 .A.F ....|G#3 .F1A ....|--- .... ....
....|..|--- .... ....|--- .... ....|--- .... ....
....|..|--- .... ....|--- .... ....|--- .... ....
....|..|--- .... ....|--- .... ....|--- .... ....
 E-3|..|E-1 .A.F ....|R-- .... ....|--- .... ....
....|..|--- .... ....|--- .... ....|--- .... ....
....|..|--- .... ....|--- .... ....|--- .... ....
....|..|--- .... ....|--- .... ....|--- .... ....
 A-3|..|A-1 .A.F ....|G#3 .F1F ....|--- .... ....
....|..|--- .... ....|--- .... ....|--- .... ....
....|..|--- .... ....|--- .... ....|--- .... ....
....|..|--- .... ....|--- .... ....|--- .... ....
 G#3|..|G#1 .A.F ....|G#3 .F1F ....|--- .... ....
....|..|--- .... ....|--- .... ....|--- .... ....
....|..|--- .... ....|--- .... ....|--- .... ....
....|..|--- .... ....|--- .... ....|--- .... ....
 E-3|..|E-1 .A.F ....|R-- .... ....|--- .... ....
....|..|--- .... ....|--- .... ....|--- .... ....
....|..|--- .... ....|--- .... ....|--- .... ....
....|..|--- .... ....|--- .... ....|--- .... ....
 E-3|..|E-1 .A.F ....|G#3 .F1A ....|--- .... ....
....|..|--- .... ....|--- .... ....|--- .... ....
....|..|--- .... ....|--- .... ....|--- .... ....
....|..|--- .... ....|--- .... ....|--- .... ....
 E-3|..|E-1 .A.F ....|G#3 .F1A ....|--- .... ....
....|..|--- .... ....|--- .... ....|--- .... ....
....|..|--- .... ....|--- .... ....|--- .... ....
....|..|--- .... ....|--- .... ....|--- .... ....
 F#3|..|F#1 .A.F ....|R-- .... ....|--- .... ....
....|..|--- .... ....|--- .... ....|--- .... ....
....|..|--- .... ....|--- .... ....|--- .... ....
....|..|--- .... ....|--- .... ....|--- .... ....
 E-3|..|E-1 .A.F ....|G#3 .F17 ....|--- .... ....
....|..|--- .... ....|--- .... ....|--- .... ....
....|..|--- .... ....|--- .... ....|--- .... ....
....|..|--- .... ....|--- .... ....|--- .... ....
 E-3|..|E-1 .A.F ....|G#3 .F17 ....|--- .... ....
....|..|--- .... ....|--- .... ....|--- .... ....
....|..|--- .... ....|--- .... ....|--- .... ....
....|..|--- .... ....|--- .... ....|--- .... ....
 A-3|..|A-1 .A.F ....|R-- .... ....|--- .... ....
....|..|--- .... ....|--- .... ....|--- .... ....
....|..|--- .... ....|--- .... ....|--- .... ....
....|..|--- .... ....|--- .... ....|--- .... ....
 G#3|..|G#1 .A.F ....|--- .... ....|C#5 ...F ....
....|..|--- .... ....|--- .... ....|--- .... ....
....|..|--- .... ....|--- .... ....|--- .... ....
....|..|--- .... ....|--- .... ....|--- .... ....

[Pattern38]
 E-3|..|E-1 .A.F ....|E-3 .F4F ....|B-4 ...F ....
....|..|--- .... ....|R-- .... ....|--- .... ....
....|..|--- .... ....|--- .... ....|--- .... ....
....|..|--- .... ....|--- .... ....|--- .... ....
 E-3|..|E-1 .A.F ....|E-3 .F4F ....|--- .... ....
....|..|--- .... ....|R-- .... ....|--- .... ....
....|..|--- .... ....|E-3 .F4F ....|--- .... ....
....|..|--- .... ....|R-- .... ....|R-- .... ....
 E-3|..|E-1 .A.F ....|E-3 .F4F ....|C#5 ...A ....
....|..|--- .... ....|R-- .... ....|--- .... ....
....|..|--- .... ....|--- .... ....|--- .... ....
....|..|--- .... ....|--- .... ....|--- .... ....
 E-3|..|E-1 .A.F ....|E-3 .F4F ....|C#5 ...F ....
....|..|--- .... ....|R-- .... ....|--- .... ....
....|..|--- .... ....|E-3 .F4F ....|--- .... ....
....|..|--- .... ....|R-- .... ....|--- .... ....
 E-3|..|E-1 .A.F ....|E-3 .F4F ....|B-4 ...F ....
....|..|--- .... ....|R-- .... ....|--- .... ....
....|..|--- .... ....|E-3 .F4A ....|--- .... ....
....|..|--- .... ....|R-- .... ....|R-- .... ....
 E-3|..|E-1 .A.F ....|E-3 .F4F ....|C#5 ...7 ....
....|..|--- .... ....|R-- .... ....|--- .... ....
....|..|--- .... ....|E-3 .F4F ....|--- .... ....
....|..|--- .... ....|R-- .... ....|R-- .... ....
 E-3|..|E-1 .A.F ....|E-3 .F4F ....|B-4 ...7 ....
....|..|--- .... ....|R-- .... ....|--- .... ....
....|..|--- .... ....|E-3 .F4A ....|--- .... ....
....|..|--- .... ....|R-- .... ....|--- .... ....
 E-3|..|E-1 .A.F ....|E-3 .F4F ....|C#5 ...F ....
....|..|--- .... ....|R-- .... ....|--- .... ....
....|..|--- .... ....|E-3 .F4F ....|--- .... ....
....|..|--- .... ....|R-- .... ....|R-- .... ....
 E-3|..|E-1 .A.F ....|E-3 .F4F ....|D#5 ...F ....
....|..|--- .... ....|R-- .... ....|--- .... ....
....|..|--- .... ....|E-3 .F4A ....|--- .... ....
....|..|--- .... ....|R-- .... ....|R-- .... ....
 E-3|..|E-1 .A.F ....|E-3 .F4F ....|C#5 ...7 ....
....|..|--- .... ....|R-- .... ....|--- .... ....
....|..|--- .... ....|E-3 .F4F ....|--- .... ....
....|..|--- .... ....|R-- .... ....|R-- .... ....
 E-3|..|E-1 .A.F ....|E-3 .F4F ....|C#5 ...F ....
....|..|--- .... ....|R-- .... ....|--- .... ....
....|..|--- .... ....|E-3 .F4A ....|--- .... ....
....|..|--- .... ....|R-- .... ....|--- .... ....
 E-3|..|E-1 .A.F ....|E-3 .F4F ....|B-4 ...F ....
....|..|--- .... ....|R-- .... ....|--- .... ....
....|..|--- .... ....|E-3 .F4F ....|--- .... ....
....|..|--- .... ....|R-- .... ....|R-- .... ....
 E-3|..|E-1 .A.F ....|E-3 .F4F ....|--- .... ....
....|..|--- .... ....|R-- .... ....|--- .... ....
....|..|--- .... ....|E-3 .F4A ....|--- .... ....
....|..|--- .... ....|R-- .... ....|R-- .... ....
 E-3|..|E-1 .A.F ....|E-3 .F4F ....|C#5 ...7 ....
....|..|--- .... ....|R-- .... ....|--- .... ....
....|..|--- .... ....|E-3 .F4F ....|--- .... ....
....|..|--- .... ....|R-- .... ....|--- .... ....
 E-3|..|E-1 .A.F ....|E-3 .F4F ....|D#5 ...7 ....
....|..|--- .... ....|R-- .... ....|--- .... ....
....|..|--- .... ....|E-3 .F4A ....|--- .... ....
....|..|--- .... ....|R-- .... ....|--- .... ....
 E-3|..|E-1 .A.F ....|E-3 .F4F ....|C#5 ...F ....
....|..|--- .... ....|R-- .... ....|--- .... ....
....|..|--- .... ....|E-3 .F4F ....|--- .... ....
....|..|--- .... ....|R-- .... ....|R-- .... ....

[Pattern41]
 A-3|..|A-1 .A.F ....|E-4 .F.F ....|E-5 ...F ....
....|..|--- .... ....|--- .... ....|--- .... ....
....|..|--- .... ....|--- .... ....|--- .... ....
....|..|--- .... ....|--- .... ....|R-- .... ....
 A-3|..|A-1 .A.F ....|D#4 .F.A ....|D#5 ...A ....
....|..|--- .... ....|--- .... ....|--- .... ....
....|..|--- .... ....|--- .... ....|--- .... ....
....|..|--- .... ....|--- .... ....|R-- .... ....
 A-3|..|A-1 .A.F ....|E-4 .F.F ....|E-5 ...7 ....
....|..|--- .... ....|--- .... ....|--- .... ....
....|..|--- .... ....|--- .... ....|--- .... ....
....|..|--- .... ....|--- .... ....|R-- .... ....
 A-3|..|A-1 .A.F ....|D#4 .F.7 ....|E-5 ...A ....
....|..|--- .... ....|--- .... ....|--- .... ....
....|..|--- .... ....|--- .... ....|--- .... ....
....|..|--- .... ....|--- .... ....|R-- .... ....
 A-3|..|A-1 .A.F ....|E-4 .F.F ....|D#5 ...7 ....
....|..|--- .... ....|--- .... ....|--- .... ....
....|..|--- .... ....|--- .... ....|--- .... ....
....|..|--- .... ....|--- .... ....|--- .... ....
 A-3|..|A-1 .A.F ....|E-4 .F.F ....|--- .... ....
....|..|--- .... ....|F#4 .F.F ....|--- .... ....
....|..|--- .... ....|--- .... ....|--- .... ....
....|..|--- .... ....|--- .... ....|R-- .... ....
 A-3|..|A-1 .A.F ....|E-4 .F.7 ....|E-5 ...7 ....
....|..|--- .... ....|--- .... ....|--- .... ....
....|..|--- .... ....|--- .... ....|--- .... ....
....|..|--- .... ....|--- .... ....|--- .... ....
 A-3|..|A-1 .A.F ....|F#4 .F.F ....|--- .... ....
....|..|--- .... ....|G#4 .F.F ....|--- .... ....
....|..|--- .... ....|--- .... ....|--- .... ....
....|..|--- .... ....|--- .... ....|--- .... ....
 A-3|..|A-1 .A.F ....|E-4 .F.7 ....|--- .... ....
....|..|--- .... ....|F#4 .F.A ....|--- .... ....
....|..|--- .... ....|--- .... ....|--- .... ....
....|..|--- .... ....|--- .... ....|--- .... ....
 A-3|..|A-1 .A.F ....|G#4 .F.F ....|--- .... ....
....|..|--- .... ....|--- .... ....|--- .... ....
....|..|--- .... ....|--- .... ....|--- .... ....
....|..|--- .... ....|--- .... ....|--- .... ....
 A-3|..|A-1 .A.F ....|F#4 .F.F ....|--- .... ....
....|..|--- .... ....|G#4 .F.A ....|--- .... ....
....|..|--- .... ....|--- .... ....|--- .... ....
....|..|--- .... ....|--- .... ....|--- .... ....
 A-3|..|A-1 .A.F ....|E-4 .F.7 ....|--- .... ....
....|..|--- .... ....|F#4 .F.7 ....|--- .... ....
....|..|--- .... ....|--- .... ....|R-- .... ....
....|..|--- .... ....|--- .... ....|--- .... ....
 A-3|..|A-1 .A.F ....|E-4 .F.F ....|--- .... ....
....|..|--- .... ....|--- .... ....|--- .... ....
....|..|--- .... ....|--- .... ....|--- .... ....
....|..|--- .... ....|--- .... ....|--- .... ....
 A-3|..|A-1 .A.7 ....|F#4 .F.7 ....|--- .... ....
....|..|--- .... ....|G#4 .F.7 ....|--- .... ....
....|..|--- .... ....|--- .... ....|--- .... ....
....|..|R-- .... ....|R-- .... ....|--- .... ....
 A-3|..|A-1 .A.7 ....|--- .... ....|--- .... ....
....|..|--- .... ....|--- .... ....|--- .... ....
....|..|--- .... ....|--- .... ....|R-- .... ....
....|..|--- .... ....|--- .... ....|--- .... ....
 A-3|..|A-1 .A.7 ....|G#4 .F.7 ....|C#5 ...F ....
....|..|--- .... ....|--- .... ....|--- .... ....
....|..|--- .... ....|--- .... ....|--- .... ....
....|..|--- .... ....|--- .... ....|--- .... ....

[Pattern42]
 E-3|..|E-1 .A.F ....|E-3 .F4F ....|B-4 ...F ....
....|..|--- .... ....|R-- .... ....|--- .... ....
....|..|--- .... ....|--- .... ....|--- .... ....
....|..|R-- .... ....|R-- .... ....|--- .... ....
 E-3|..|E-1 .A.F ....|E-3 .F4F ....|--- .... ....
....|..|--- .... ....|R-- .... ....|--- .... ....
....|..|--- .... ....|E-3 .F4F ....|R-- .... ....
....|..|--- .... ....|R-- .... ....|R-- .... ....
 E-3|..|E-1 .A.F ....|E-3 .F4F ....|C#5 ...A ....
....|..|--- .... ....|R-- .... ....|--- .... ....
....|..|--- .... ....|--- .... ....|--- .... ....
....|..|--- .... ....|--- .... ....|--- .... ....
 E-3|..|E-1 .A.F ....|E-3 .F4F ....|C#5 ...F ....
....|..|--- .... ....|R-- .... ....|--- .... ....
....|..|--- .... ....|E-3 .F4F ....|--- .... ....
....|..|R-- .... ....|R-- .... ....|--- .... ....
 E-3|..|E-1 .A.F ....|E-3 .F4F ....|B-4 ...F ....
....|..|--- .... ....|R-- .... ....|--- .... ....
....|..|--- .... ....|E-3 .F4A ....|--- .... ....
....|..|--- .... ....|R-- .... ....|R-- .... ....
 E-3|..|E-1 .A.F ....|E-3 .F4F ....|C#5 ...7 ....
....|..|--- .... ....|R-- .... ....|--- .... ....
....|..|--- .... ....|E-3 .F4F ....|--- .... ....
....|..|--- .... ....|R-- .... ....|R-- .... ....
 E-3|..|E-1 .A.F ....|E-3 .F4F ....|B-4 ...7 ....
....|..|--- .... ....|R-- .... ....|--- .... ....
....|..|--- .... ....|E-3 .F4A ....|--- .... ....
....|..|--- .... ....|R-- .... ....|--- .... ....
 E-3|..|E-1 .A.F ....|E-3 .F4F ....|C#5 ...F ....
....|..|--- .... ....|R-- .... ....|--- .... ....
....|..|--- .... ....|E-3 .F4F ....|--- .... ....
....|..|--- .... ....|R-- .... ....|R-- .... ....
 E-3|..|E-1 .A.F ....|E-3 .F4F ....|D#5 ...F ....
....|..|--- .... ....|R-- .... ....|--- .... ....
....|..|--- .... ....|E-3 .F4A ....|--- .... ....
....|..|--- .... ....|R-- .... ....|R-- .... ....
 E-3|..|E-1 .A.F ....|E-3 .F4F ....|C#5 ...7 ....
....|..|--- .... ....|R-- .... ....|--- .... ....
....|..|--- .... ....|E-3 .F4F ....|--- .... ....
....|..|--- .... ....|R-- .... ....|R-- .... ....
 E-3|..|E-1 .A.F ....|E-3 .F4F ....|C#5 ...F ....
....|..|--- .... ....|R-- .... ....|--- .... ....
....|..|--- .... ....|E-3 .F4A ....|--- .... ....
....|..|--- .... ....|R-- .... ....|--- .... ....
 E-3|..|E-1 .A.F ....|E-3 .F4F ....|B-4 ...F ....
....|..|--- .... ....|R-- .... ....|--- .... ....
....|..|--- .... ....|E-3 .F4F ....|--- .... ....
....|..|--- .... ....|R-- .... ....|R-- .... ....
 E-3|..|E-1 .A.F ....|E-3 .F4F ....|--- .... ....
....|..|--- .... ....|R-- .... ....|--- .... ....
....|..|--- .... ....|E-3 .F4A ....|--- .... ....
....|..|--- .... ....|R-- .... ....|R-- .... ....
 E-3|..|E-1 .A.F ....|E-3 .F4F ....|C#5 ...7 ....
....|..|--- .... ....|R-- .... ....|--- .... ....
....|..|--- .... ....|E-3 .F4F ....|--- .... ....
....|..|--- .... ....|R-- .... ....|--- .... ....
 E-3|..|E-1 .A.F ....|E-3 .F4F ....|D#5 ...7 ....
....|..|--- .... ....|R-- .... ....|--- .... ....
....|..|--- .... ....|E-3 .F4A ....|--- .... ....
....|..|--- .... ....|R-- .... ....|--- .... ....
 E-3|..|E-1 .A.F ....|E-3 .F4F ....|C#5 ...F ....
....|..|--- .... ....|R-- .... ....|--- .... ....
....|..|--- .... ....|E-3 .F4F ....|--- .... ....
....|..|--- .... ....|R-- .... ....|R-- .... ....

[Pattern63]
 A-3|..|A-1 .A.F ....|A-3 .F5F ....|E-5 ...F ....
....|..|--- .... ....|--- .... ....|--- .... ....
....|..|--- .... ....|--- .... ....|--- .... ....
....|..|--- .... ....|--- .... ....|--- .... ....
 B-3|..|B-1 .A.7 ....|B-3 .F.A ....|E-5 ...7 ....
 G#3|..|G#1 .A.F ....|G#3 .F5F ....|--- .... ....
....|..|--- .... ....|--- .... ....|--- .... ....
....|..|--- .... ....|--- .... ....|--- .... ....
 B-3|..|B-1 .A.7 ....|B-3 .F.7 ....|R-- .... ....
....|..|--- .... ....|--- .... ....|--- .... ....
....|..|--- .... ....|--- .... ....|--- .... ....
 E-3|..|E-1 .A.F ....|E-3 .F5F ....|--- .... ....
 B-3|..|B-1 .A.7 ....|B-3 .F.7 ....|E-5 ...7 ....
....|..|--- .... ....|--- .... ....|--- .... ....
....|..|--- .... ....|--- .... ....|--- .... ....
....|..|--- .... ....|--- .... ....|--- .... ....
 A-3|..|A-1 .A.F ....|A-3 .F5F ....|E-5 ...7 ....
 G#3|..|G#1 .A.A ....|G#3 .F5A ....|--- .... ....
....|..|--- .... ....|--- .... ....|--- .... ....
....|..|--- .... ....|--- .... ....|--- .... ....
 B-3|..|B-1 .A.7 ....|--- .... ....|F#5 ...7 ....
 G#3|..|G#1 .A.F ....|G#3 .F5F ....|--- .... ....
....|..|--- .... ....|--- .... ....|--- .... ....
 E-3|..|E-1 .A.A ....|E-3 .F5A ....|--- .... ....
 A-3|..|A-1 .A.7 ....|A-3 .F57 ....|E-5 ...7 ....
....|..|--- .... ....|--- .... ....|--- .... ....
....|..|--- .... ....|--- .... ....|--- .... ....
 E-3|..|E-1 .A.F ....|E-3 .F5F ....|--- .... ....
 A-3|..|A-1 .A.A ....|A-3 .F5A ....|--- .... ....
 G#3|..|G#1 .A.7 ....|G#3 .F57 ....|--- .... ....
....|..|--- .... ....|--- .... ....|R-- .... ....
....|..|--- .... ....|--- .... ....|--- .... ....
 A-3|..|A-1 .A.F ....|A-3 .F5F ....|E-5 ...F ....
 G#3|..|G#1 .A.A ....|G#3 .F5A ....|--- .... ....
....|..|--- .... ....|--- .... ....|--- .... ....
 E-3|..|E-1 .A.7 ....|E-3 .F57 ....|--- .... ....
....|..|--- .... ....|--- .... ....|--- .... ....
 G#3|..|G#1 .A.F ....|G#3 .F5F ....|E-5 ...F ....
....|..|--- .... ....|--- .... ....|--- .... ....
 E-3|..|E-1 .A.A ....|E-3 .F5A ....|--- .... ....
 A-3|..|A-1 .A.7 ....|A-3 .F57 ....|--- .... ....
....|..|--- .... ....|--- .... ....|--- .... ....
....|..|--- .... ....|--- .... ....|R-- .... ....
 E-3|..|E-1 .A.F ....|E-3 .F5F ....|F#5 ...F ....
 A-3|..|A-1 .A.A ....|A-3 .F5A ....|E-5 ...A ....
 G#3|..|G#1 .A.7 ....|G#3 .F57 ....|--- .... ....
....|..|--- .... ....|--- .... ....|--- .... ....
....|..|--- .... ....|--- .... ....|--- .... ....
 G#3|..|G#1 .A.F ....|G#3 .F5F ....|G#5 ...F ....
 G#3|..|G#1 .A.A ....|G#3 .F5A ....|E-5 ...A ....
....|..|--- .... ....|--- .... ....|--- .... ....
 E-3|..|E-1 .A.7 ....|E-3 .F57 ....|--- .... ....
....|..|--- .... ....|--- .... ....|--- .... ....
 A-3|..|A-1 .A.F ....|A-3 .F5F ....|F#5 ...F ....
....|..|--- .... ....|--- .... ....|R-- .... ....
 E-3|..|E-1 .A.A ....|E-3 .F5A ....|F#5 ...A ....
 A-3|..|A-1 .A.7 ....|A-3 .F57 ....|E-5 ...7 ....
....|..|--- .... ....|--- .... ....|--- .... ....
....|..|--- .... ....|--- .... ....|--- .... ....
 B-3|..|B-1 .A.F ....|B-3 .F5F ....|E-5 ...F ....
 G#3|..|G#1 .A.A ....|G#3 .F5A ....|G#5 ...A ....
 G#3|..|G#1 .A.7 ....|G#3 .F57 ....|E-5 ...7 ....
....|..|--- .... ....|--- .... ....|--- .... ....
....|..|--- .... ....|--- .... ....|--- .... ....

[Pattern64]
 E-3|..|E-1 .A.F ....|E-3 .F5F ....|E-5 ...F ....
 A-3|..|A-1 .A.A ....|A-3 .F5A ....|F#5 ...A ....
....|..|--- .... ....|--- .... ....|--- .... ....
 E-3|..|E-1 .A.7 ....|E-3 .F57 ....|F#5 ...7 ....
....|..|--- .... ....|--- .... ....|--- .... ....
....|..|--- .... ....|--- .... ....|--- .... ....
....|..|--- .... ....|--- .... ....|--- .... ....
 B-3|..|B-1 .A.A ....|B-3 .F5A ....|E-5 ...A ....
 G#3|..|G#1 .A.7 ....|G#3 .F57 ....|G#5 ...7 ....
....|..|--- .... ....|--- .... ....|--- .... ....
....|..|--- .... ....|--- .... ....|--- .... ....
....|..|--- .... ....|--- .... ....|--- .... ....
 E-3|..|E-1 .A.A ....|E-3 .F5A ....|E-5 ...A ....
 A-3|..|A-1 .A.7 ....|A-3 .F57 ....|F#5 ...7 ....
....|..|--- .... ....|--- .... ....|--- .... ....
....|..|--- .... ....|--- .... ....|--- .... ....
....|..|--- .... ....|--- .... ....|--- .... ....
....|..|--- .... ....|--- .... ....|--- .... ....
....|..|--- .... ....|--- .... ....|--- .... ....
 B-3|..|B-1 .A.7 ....|B-3 .F57 ....|E-5 ...7 ....
....|..|--- .... ....|--- .... ....|--- .... ....
....|..|--- .... ....|--- .... ....|--- .... ....
....|..|--- .... ....|--- .... ....|--- .... ....
....|..|--- .... ....|--- .... ....|--- .... ....
 E-3|..|E-1 .A.7 ....|E-3 .F57 ....|E-5 ...7 ....
....|..|--- .... ....|--- .... ....|--- .... ....
....|..|--- .... ....|--- .... ....|--- .... ....
....|..|--- .... ....|--- .... ....|--- .... ....
....|..|--- .... ....|--- .... ....|--- .... ....
....|..|--- .... ....|--- .... ....|--- .... ....
....|..|--- .... ....|--- .... ....|--- .... ....
....|..|--- .... ....|--- .... ....|--- .... ....
....|..|--- .... ....|--- .... ....|--- .... ....
....|..|--- .... ....|--- .... ....|--- .... ....
....|..|--- .... ....|--- .... ....|--- .... ....
....|..|--- .... ....|--- .... ....|--- .... ....
....|..|--- .... ....|--- .... ....|--- .... ....
....|..|--- .... ....|--- .... ....|--- .... ....
....|..|--- .... ....|--- .... ....|--- .... ....
....|..|--- .... ....|--- .... ....|--- .... ....
....|..|--- .... ....|--- .... ....|--- .... ....
....|..|--- .... ....|--- .... ....|--- .... ....
....|..|--- .... ....|--- .... ....|--- .... ....
....|..|R-- .... ....|--- .... ....|--- .... ....
 B-3|..|B-1 .A.F ....|--- .... ....|--- .... ....
....|..|--- .... ....|--- .... ....|--- .... ....
....|..|--- .... ....|--- .... ....|R-- .... ....
....|..|--- .... ....|--- .... ....|--- .... ....
 E-4|..|E-2 .A.F ....|--- .... ....|--- .... ....
....|..|--- .... ....|--- .... ....|--- .... ....
....|..|--- .... ....|--- .... ....|--- .... ....
....|..|--- .... ....|--- .... ....|--- .... ....
....|..|--- .... ....|--- .... ....|--- .... ....
....|..|--- .... ....|--- .... ....|--- .... ....
....|..|--- .... ....|--- .... ....|--- .... ....
....|..|R-- .... ....|--- .... ....|--- .... ....
 B-3|..|B-1 .A.A ....|--- .... ....|--- .... ....
....|..|--- .... ....|--- .... ....|--- .... ....
....|..|--- .... ....|--- .... ....|R-- .... ....
....|..|--- .... ....|R-- .... ....|--- .... ....
 E-4|..|E-2 .A.A ....|E-4 .F.F ....|--- .... ....
....|..|--- .... ....|--- .... ....|--- .... ....
....|..|--- .... ....|--- .... ....|--- .... ....
....|..|--- .... ....|--- .... ....|--- .... ....

[Pattern65]
....|..|--- .... ....|--- .... ....|--- .... ....
....|..|--- .... ....|--- .... ....|--- .... ....
....|..|--- .... ....|--- .... ....|--- .... ....
....|..|R-- .... ....|--- .... ....|--- .... ....
 B-3|..|B-1 .A.7 ....|--- .... ....|--- .... ....
....|..|--- .... ....|--- .... ....|--- .... ....
....|..|R-- .... ....|--- .... ....|R-- .... ....
....|..|--- .... ....|R-- .... ....|--- .... ....
 F#4|..|F#2 .A.F ....|B-3 .F.F ....|--- .... ....
....|..|--- .... ....|--- .... ....|--- .... ....
....|..|--- .... ....|--- .... ....|--- .... ....
....|..|--- .... ....|--- .... ....|--- .... ....
 E-4|..|E-2 .A.F ....|--- .... ....|--- .... ....
....|..|--- .... ....|--- .... ....|--- .... ....
....|..|--- .... ....|--- .... ....|--- .... ....
....|..|--- .... ....|--- .... ....|--- .... ....
 E-4|..|E-2 .A.F ....|--- .... ....|--- .... ....
....|..|--- .... ....|--- .... ....|--- .... ....
....|..|R-- .... ....|--- .... ....|--- .... ....
....|..|--- .... ....|R-- .... ....|--- .... ....
 F#4|..|F#2 .A.F ....|G#3 .F.F ....|--- .... ....
....|..|--- .... ....|--- .... ....|--- .... ....
....|..|--- .... ....|--- .... ....|--- .... ....
....|..|--- .... ....|--- .... ....|--- .... ....
 E-4|..|E-2 .A.F ....|--- .... ....|--- .... ....
....|..|--- .... ....|--- .... ....|--- .... ....
....|..|--- .... ....|--- .... ....|--- .... ....
....|..|--- .... ....|--- .... ....|--- .... ....
 E-4|..|E-2 .A.F ....|--- .... ....|--- .... ....
....|..|--- .... ....|--- .... ....|--- .... ....
....|..|R-- .... ....|--- .... ....|--- .... ....
....|..|--- .... ....|R-- .... ....|--- .... ....
 C#4|..|C#2 .A.F ....|E-3 .F5F ....|--- .... ....
....|..|--- .... ....|--- .... ....|--- .... ....
....|..|--- .... ....|--- .... ....|--- .... ....
....|..|--- .... ....|--- .... ....|--- .... ....
 C#4|..|C#2 .A.F ....|E-3 .F5F ....|--- .... ....
....|..|--- .... ....|--- .... ....|--- .... ....
....|..|--- .... ....|--- .... ....|--- .... ....
....|..|--- .... ....|--- .... ....|--- .... ....
 C#4|..|C#2 .A.F ....|E-3 .F5F ....|--- .... ....
....|..|--- .... ....|--- .... ....|--- .... ....
....|..|--- .... ....|--- .... ....|--- .... ....
....|..|--- .... ....|R-- .... ....|--- .... ....
 C#4|..|C#2 .A.F ....|E-3 .F5F ....|--- .... ....
....|..|--- .... ....|--- .... ....|--- .... ....
....|..|--- .... ....|--- .... ....|--- .... ....
....|..|--- .... ....|--- .... ....|--- .... ....
 C#4|..|C#2 .A.F ....|E-3 .F5F ....|--- .... ....
....|..|--- .... ....|--- .... ....|--- .... ....
....|..|--- .... ....|--- .... ....|--- .... ....
....|..|--- .... ....|--- .... ....|--- .... ....
 C#4|..|C#2 .A.F ....|E-3 .F5F ....|--- .... ....
....|..|--- .... ....|--- .... ....|--- .... ....
....|..|--- .... ....|--- .... ....|--- .... ....
....|..|--- .... ....|R-- .... ....|--- .... ....
 B-3|..|B-1 .A.F ....|F#3 .F5F ....|--- .... ....
....|..|--- .... ....|--- .... ....|--- .... ....
....|..|--- .... ....|--- .... ....|--- .... ....
....|..|--- .... ....|--- .... ....|--- .... ....
 B-3|..|B-1 .A.F ....|F#3 .F5F ....|--- .... ....
....|..|--- .... ....|--- .... ....|--- .... ....
....|..|--- .... ....|--- .... ....|--- .... ....
....|..|--- .... ....|--- .... ....|--- .... ....

[Pattern66]
 B-3|..|B-1 .A.F ....|F#3 .F5F ....|--- .... ....
....|..|--- .... ....|--- .... ....|--- .... ....
....|..|--- .... ....|--- .... ....|--- .... ....
....|..|--- .... ....|--- .... ....|--- .... ....
 B-3|..|B-1 .A.F ....|F#3 .F5F ....|--- .... ....
....|..|--- .... ....|--- .... ....|--- .... ....
....|..|--- .... ....|--- .... ....|--- .... ....
....|..|--- .... ....|--- .... ....|--- .... ....
 B-3|..|B-1 .A.F ....|F#3 .F5F ....|--- .... ....
....|..|--- .... ....|--- .... ....|--- .... ....
....|..|--- .... ....|--- .... ....|--- .... ....
....|..|--- .... ....|--- .... ....|--- .... ....
 B-3|..|B-1 .A.F ....|F#3 .F5F ....|--- .... ....
....|..|--- .... ....|--- .... ....|--- .... ....
....|..|--- .... ....|--- .... ....|--- .... ....
....|..|--- .... ....|--- .... ....|--- .... ....
 A-3|..|A-1 .A.F ....|G#3 .F5F ....|--- .... ....
....|..|--- .... ....|--- .... ....|--- .... ....
....|..|--- .... ....|--- .... ....|--- .... ....
....|..|--- .... ....|--- .... ....|--- .... ....
 A-3|..|A-1 .A.F ....|G#3 .F5F ....|--- .... ....
....|..|--- .... ....|--- .... ....|--- .... ....
....|..|--- .... ....|--- .... ....|--- .... ....
....|..|--- .... ....|--- .... ....|--- .... ....
 A-3|..|A-1 .A.F ....|G#3 .F5F ....|--- .... ....
....|..|--- .... ....|--- .... ....|--- .... ....
....|..|--- .... ....|--- .... ....|--- .... ....
....|..|--- .... ....|--- .... ....|--- .... ....
 A-3|..|A-1 .A.F ....|G#3 .F5F ....|--- .... ....
....|..|--- .... ....|--- .... ....|--- .... ....
....|..|--- .... ....|--- .... ....|--- .... ....
....|..|--- .... ....|--- .... ....|--- .... ....
 A-3|..|A-1 .A.F ....|G#3 .F5F ....|--- .... ....
....|..|--- .... ....|--- .... ....|--- .... ....
....|..|--- .... ....|--- .... ....|--- .... ....
....|..|--- .... ....|--- .... ....|--- .... ....
 A-3|..|A-1 .A.F ....|G#3 .F5F ....|--- .... ....
....|..|--- .... ....|--- .... ....|--- .... ....
....|..|--- .... ....|--- .... ....|--- .... ....
....|..|--- .... ....|--- .... ....|--- .... ....
 A-3|..|A-1 .A.F ....|F#3 .F5F ....|--- .... ....
....|..|--- .... ....|--- .... ....|--- .... ....
....|..|--- .... ....|--- .... ....|--- .... ....
....|..|--- .... ....|--- .... ....|--- .... ....
 A-3|..|A-1 .A.F ....|F#3 .F5F ....|--- .... ....
....|..|--- .... ....|--- .... ....|--- .... ....
....|..|--- .... ....|--- .... ....|--- .... ....
....|..|--- .... ....|--- .... ....|--- .... ....
 A-3|..|A-1 .A.F ....|F#3 .F5F ....|--- .... ....
....|..|--- .... ....|--- .... ....|--- .... ....
....|..|--- .... ....|--- .... ....|--- .... ....
....|..|--- .... ....|--- .... ....|--- .... ....
 A-3|..|A-1 .A.F ....|F#3 .F5F ....|--- .... ....
....|..|--- .... ....|--- .... ....|--- .... ....
....|..|--- .... ....|--- .... ....|--- .... ....
....|..|--- .... ....|--- .... ....|--- .... ....
 A-3|..|A-1 .A.F ....|F#3 .F5F ....|--- .... ....
....|..|--- .... ....|--- .... ....|--- .... ....
....|..|--- .... ....|--- .... ....|--- .... ....
....|..|--- .... ....|--- .... ....|--- .... ....
 A-3|..|A-1 .A.F ....|F#3 .F5F ....|--- .... ....
....|..|--- .... ....|--- .... ....|--- .... ....
....|..|--- .... ....|--- .... ....|--- .... ....
....|..|--- .... ....|--- .... ....|--- .... ....

[Pattern67]
 E-3|..|E-1 .A.F ....|E-3 .F5F ....|--- .... ....
....|..|--- .... ....|--- .... ....|--- .... ....
....|..|--- .... ....|--- .... ....|--- .... ....
....|..|--- .... ....|--- .... ....|--- .... ....
 A-3|..|A-1 .A.7 ....|F#3 .F57 ....|--- .... ....
....|..|--- .... ....|--- .... ....|--- .... ....
....|..|--- .... ....|--- .... ....|--- .... ....
....|..|--- .... ....|--- .... ....|--- .... ....
 A-3|..|A-1 .A.7 ....|F#3 .F57 ....|--- .... ....
....|..|--- .... ....|--- .... ....|--- .... ....
....|..|--- .... ....|--- .... ....|--- .... ....
....|..|--- .... ....|--- .... ....|--- .... ....
 A-3|..|A-1 .A.7 ....|F#3 .F57 ....|--- .... ....
....|..|--- .... ....|--- .... ....|--- .... ....
....|..|--- .... ....|--- .... ....|--- .... ....
....|..|--- .... ....|--- .... ....|--- .... ....
 A-3|..|A-1 .A.7 ....|F#3 .F57 ....|--- .... ....
....|..|--- .... ....|--- .... ....|--- .... ....
....|..|--- .... ....|--- .... ....|--- .... ....
....|..|--- .... ....|--- .... ....|--- .... ....
 A-3|..|A-1 .A.7 ....|F#3 .F57 ....|--- .... ....
....|..|--- .... ....|--- .... ....|--- .... ....
....|..|--- .... ....|--- .... ....|--- .... ....
....|..|--- .... ....|--- .... ....|--- .... ....
 E-3|..|E-1 .A.7 ....|E-3 .F57 ....|--- .... ....
....|..|--- .... ....|--- .... ....|--- .... ....
....|..|--- .... ....|--- .... ....|--- .... ....
....|..|--- .... ....|--- .... ....|--- .... ....
....|..|--- .... ....|--- .... ....|--- .... ....
....|..|--- .... ....|--- .... ....|--- .... ....
....|..|--- .... ....|--- .... ....|--- .... ....
....|..|--- .... ....|--- .... ....|--- .... ....
....|..|--- .... ....|--- .... ....|--- .... ....
....|..|--- .... ....|--- .... ....|--- .... ....
....|..|--- .... ....|--- .... ....|--- .... ....
....|..|--- .... ....|--- .... ....|--- .... ....
....|..|--- .... ....|--- .... ....|--- .... ....
....|..|--- .... ....|--- .... ....|--- .... ....
....|..|--- .... ....|--- .... ....|--- .... ....
....|..|--- .... ....|--- .... ....|--- .... ....
....|..|--- .... ....|--- .... ....|--- .... ....
....|..|--- .... ....|--- .... ....|--- .... ....
....|..|--- .... ....|--- .... ....|--- .... ....
....|..|R-- .... ....|--- .... ....|--- .... ....
 B-3|..|B-1 .A.F ....|--- .... ....|--- .... ....
....|..|--- .... ....|--- .... ....|--- .... ....
....|..|--- .... ....|--- .... ....|--- .... ....
....|..|--- .... ....|--- .... ....|--- .... ....
 E-4|..|E-2 .A.F ....|--- .... ....|--- .... ....
....|..|--- .... ....|--- .... ....|--- .... ....
....|..|--- .... ....|--- .... ....|--- .... ....
....|..|--- .... ....|--- .... ....|--- .... ....
....|..|--- .... ....|--- .... ....|--- .... ....
....|..|--- .... ....|--- .... ....|--- .... ....
....|..|--- .... ....|--- .... ....|--- .... ....
....|..|R-- .... ....|--- .... ....|--- .... ....
 B-3|..|B-1 .A.A ....|--- .... ....|--- .... ....
....|..|--- .... ....|--- .... ....|--- .... ....
....|..|--- .... ....|--- .... ....|--- .... ....
....|..|--- .... ....|R-- .... ....|--- .... ....
 E-4|..|E-2 .A.A ....|E-4 .F.F ....|--- .... ....
....|..|--- .... ....|--- .... ....|--- .... ....
....|..|--- .... ....|--- .... ....|--- .... ....
....|..|--- .... ....|--- .... ....|--- .... ....

[Pattern68]
....|..|--- .... ....|--- .... ....|--- .... ....
....|..|--- .... ....|--- .... ....|--- .... ....
....|..|--- .... ....|--- .... ....|--- .... ....
....|..|R-- .... ....|--- .... ....|--- .... ....
 B-3|..|B-1 .A.7 ....|--- .... ....|--- .... ....
....|..|--- .... ....|--- .... ....|--- .... ....
....|..|R-- .... ....|--- .... ....|--- .... ....
....|..|--- .... ....|R-- .... ....|--- .... ....
 F#4|..|F#2 .A.F ....|B-3 .F.F ....|--- .... ....
....|..|--- .... ....|--- .... ....|--- .... ....
....|..|--- .... ....|--- .... ....|--- .... ....
....|..|--- .... ....|--- .... ....|--- .... ....
 E-4|..|E-2 .A.F ....|--- .... ....|--- .... ....
....|..|--- .... ....|--- .... ....|--- .... ....
....|..|--- .... ....|--- .... ....|--- .... ....
....|..|--- .... ....|--- .... ....|--- .... ....
 B-4|..|B-2 .A.F ....|--- .... ....|--- .... ....
....|..|--- .... ....|--- .... ....|--- .... ....
....|..|R-- .... ....|--- .... ....|--- .... ....
....|..|--- .... ....|R-- .... ....|--- .... ....
 G#4|..|A-2 .A.F ....|G#3 .F.F ....|--- .... ....
....|..|--- .... ....|--- .... ....|--- .... ....
....|..|--- .... ....|--- .... ....|--- .... ....
....|..|--- .... ....|--- .... ....|--- .... ....
 G#4|..|G#2 .A.F ....|--- .... ....|--- .... ....
....|..|--- .... ....|--- .... ....|--- .... ....
....|..|--- .... ....|--- .... ....|--- .... ....
....|..|--- .... ....|--- .... ....|--- .... ....
 E-4|..|E-2 .A.F ....|--- .... ....|--- .... ....
....|..|--- .... ....|--- .... ....|--- .... ....
....|..|R-- .... ....|--- .... ....|--- .... ....
....|..|--- .... ....|R-- .... ....|--- .... ....
 C#4|..|C#2 .A.F ....|E-3 .F5F ....|--- .... ....
....|..|--- .... ....|--- .... ....|--- .... ....
....|..|--- .... ....|--- .... ....|--- .... ....
....|..|--- .... ....|--- .... ....|--- .... ....
 C#4|..|C#2 .A.F ....|E-3 .F5F ....|--- .... ....
....|..|--- .... ....|--- .... ....|--- .... ....
....|..|--- .... ....|--- .... ....|--- .... ....
....|..|--- .... ....|--- .... ....|--- .... ....
 C#4|..|C#2 .A.F ....|E-3 .F5F ....|--- .... ....
....|..|--- .... ....|--- .... ....|--- .... ....
....|..|--- .... ....|--- .... ....|--- .... ....
....|..|--- .... ....|R-- .... ....|--- .... ....
 C#4|..|C#2 .A.F ....|E-3 .F5F ....|--- .... ....
....|..|--- .... ....|--- .... ....|--- .... ....
....|..|--- .... ....|--- .... ....|--- .... ....
....|..|--- .... ....|--- .... ....|--- .... ....
 C#4|..|C#2 .A.F ....|E-3 .F5F ....|--- .... ....
....|..|--- .... ....|--- .... ....|--- .... ....
....|..|--- .... ....|--- .... ....|--- .... ....
....|..|--- .... ....|--- .... ....|--- .... ....
 C#4|..|C#2 .A.F ....|E-3 .F5F ....|--- .... ....
....|..|--- .... ....|--- .... ....|--- .... ....
....|..|--- .... ....|--- .... ....|--- .... ....
....|..|--- .... ....|R-- .... ....|--- .... ....
 B-3|..|B-1 .A.F ....|F#3 .F5F ....|--- .... ....
....|..|--- .... ....|--- .... ....|--- .... ....
....|..|--- .... ....|--- .... ....|--- .... ....
....|..|--- .... ....|--- .... ....|--- .... ....
 B-3|..|B-1 .A.F ....|F#3 .F5F ....|--- .... ....
....|..|--- .... ....|--- .... ....|--- .... ....
....|..|--- .... ....|--- .... ....|--- .... ....
....|..|--- .... ....|--- .... ....|--- .... ....

[Pattern69]
 B-3|..|B-1 .A.F ....|F#3 .F5F ....|--- .... ....
....|..|--- .... ....|--- .... ....|--- .... ....
....|..|--- .... ....|--- .... ....|--- .... ....
....|..|--- .... ....|--- .... ....|--- .... ....
 B-3|..|B-1 .A.F ....|F#3 .F5F ....|--- .... ....
....|..|--- .... ....|--- .... ....|--- .... ....
....|..|--- .... ....|--- .... ....|--- .... ....
....|..|--- .... ....|--- .... ....|--- .... ....
 B-3|..|B-1 .A.F ....|F#3 .F5F ....|--- .... ....
....|..|--- .... ....|--- .... ....|--- .... ....
....|..|--- .... ....|--- .... ....|--- .... ....
....|..|--- .... ....|--- .... ....|--- .... ....
 B-3|..|B-1 .A.F ....|F#3 .F5F ....|--- .... ....
....|..|--- .... ....|--- .... ....|--- .... ....
....|..|--- .... ....|--- .... ....|--- .... ....
....|..|--- .... ....|--- .... ....|--- .... ....
 A-3|..|A-1 .A.F ....|G#3 .F5F ....|--- .... ....
....|..|--- .... ....|--- .... ....|--- .... ....
....|..|--- .... ....|--- .... ....|--- .... ....
....|..|--- .... ....|--- .... ....|--- .... ....
 A-3|..|A-1 .A.F ....|G#3 .F5F ....|--- .... ....
....|..|--- .... ....|--- .... ....|--- .... ....
....|..|--- .... ....|--- .... ....|--- .... ....
....|..|--- .... ....|--- .... ....|--- .... ....
 A-3|..|A-1 .A.F ....|G#3 .F5F ....|--- .... ....
....|..|--- .... ....|--- .... ....|--- .... ....
....|..|--- .... ....|--- .... ....|--- .... ....
....|..|--- .... ....|--- .... ....|--- .... ....
 A-3|..|A-1 .A.F ....|G#3 .F5F ....|--- .... ....
....|..|--- .... ....|--- .... ....|--- .... ....
....|..|--- .... ....|--- .... ....|--- .... ....
....|..|--- .... ....|--- .... ....|--- .... ....
 A-3|..|A-1 .A.F ....|G#3 .F5F ....|--- .... ....
....|..|--- .... ....|--- .... ....|--- .... ....
....|..|--- .... ....|--- .... ....|--- .... ....
....|..|--- .... ....|--- .... ....|--- .... ....
 A-3|..|A-1 .A.F ....|G#3 .F5F ....|--- .... ....
....|..|--- .... ....|--- .... ....|--- .... ....
....|..|--- .... ....|--- .... ....|--- .... ....
....|..|--- .... ....|--- .... ....|--- .... ....
 A-3|..|A-1 .A.F ....|A-3 .F5F ....|--- .... ....
....|..|--- .... ....|--- .... ....|--- .... ....
....|..|--- .... ....|--- .... ....|--- .... ....
....|..|--- .... ....|--- .... ....|--- .... ....
 G#3|..|G#1 .A.F ....|A-3 .F5F ....|--- .... ....
....|..|--- .... ....|--- .... ....|--- .... ....
....|..|--- .... ....|--- .... ....|--- .... ....
....|..|--- .... ....|--- .... ....|--- .... ....
 E-3|..|E-1 .A.F ....|A-3 .F5F ....|--- .... ....
....|..|--- .... ....|--- .... ....|--- .... ....
....|..|--- .... ....|--- .... ....|--- .... ....
....|..|--- .... ....|--- .... ....|--- .... ....
 A-3|..|A-1 .A.F ....|A-3 .F5F ....|--- .... ....
....|..|--- .... ....|--- .... ....|--- .... ....
....|..|--- .... ....|--- .... ....|--- .... ....
....|..|--- .... ....|--- .... ....|--- .... ....
 G#3|..|G#1 .A.F ....|A-3 .F5F ....|--- .... ....
....|..|--- .... ....|--- .... ....|--- .... ....
....|..|--- .... ....|--- .... ....|--- .... ....
....|..|--- .... ....|--- .... ....|--- .... ....
 F#3|..|F#1 .A.F ....|A-3 .F5F ....|--- .... ....
....|..|--- .... ....|--- .... ....|--- .... ....
....|..|--- .... ....|--- .... ....|--- .... ....
....|..|--- .... ....|--- .... ....|--- .... ....

[Pattern70]
 G#3|..|G#1 .A.F ....|A-3 .F57 ....|--- .... ....
....|..|--- .... ....|--- .... ....|--- .... ....
....|..|--- .... ....|--- .... ....|--- .... ....
....|..|--- .... ....|--- .... ....|--- .... ....
 G#3|..|G#1 .A.F ....|A-3 .F57 ....|--- .... ....
....|..|--- .... ....|--- .... ....|--- .... ....
....|..|--- .... ....|--- .... ....|--- .... ....
....|..|--- .... ....|--- .... ....|--- .... ....
 G#3|..|G#1 .A.F ....|A-3 .F57 ....|--- .... ....
....|..|--- .... ....|--- .... ....|--- .... ....
....|..|--- .... ....|--- .... ....|--- .... ....
....|..|--- .... ....|--- .... ....|--- .... ....
 G#3|..|G#1 .A.F ....|C-4 .F1F ....|D#5 ...F ....
....|..|--- .... ....|--- .... ....|--- .... ....
....|..|--- .... ....|--- .... ....|--- .... ....
....|..|--- .... ....|--- .... ....|--- .... ....
 G#3|..|G#1 .A.F ....|A-3 .F57 ....|--- .... ....
....|..|--- .... ....|--- .... ....|--- .... ....
....|..|--- .... ....|--- .... ....|--- .... ....
....|..|--- .... ....|--- .... ....|R-- .... ....
 G#3|..|G#1 .A.F ....|A-3 .F57 ....|D#5 ...F ....
....|..|--- .... ....|--- .... ....|--- .... ....
....|..|--- .... ....|--- .... ....|--- .... ....
....|..|--- .... ....|--- .... ....|--- .... ....
 G#3|..|G#1 .A.F ....|R-- .... ....|D#5 ...F ....
....|..|--- .... ....|--- .... ....|--- .... ....
....|..|--- .... ....|--- .... ....|--- .... ....
....|..|--- .... ....|--- .... ....|--- .... ....
 G#3|..|G#1 .A.F ....|--- .... ....|--- .... ....
....|..|--- .... ....|--- .... ....|--- .... ....
....|..|--- .... ....|--- .... ....|--- .... ....
....|..|--- .... ....|--- .... ....|R-- .... ....
 G#3|..|G#1 .A.F ....|--- .... ....|D#5 ...A ....
....|..|--- .... ....|--- .... ....|--- .... ....
....|..|--- .... ....|R-- .... ....|--- .... ....
....|..|--- .... ....|--- .... ....|R-- .... ....
 G#3|..|G#1 .A.F ....|C-4 .F1F ....|F#5 ...F ....
....|..|--- .... ....|--- .... ....|--- .... ....
....|..|--- .... ....|--- .... ....|--- .... ....
....|..|--- .... ....|--- .... ....|--- .... ....
 G#3|..|G#1 .A.F ....|--- .... ....|--- .... ....
....|..|--- .... ....|--- .... ....|--- .... ....
....|..|--- .... ....|--- .... ....|--- .... ....
....|..|--- .... ....|--- .... ....|R-- .... ....
 G#3|..|G#1 .A.F ....|--- .... ....|D#5 ...7 ....
....|..|--- .... ....|--- .... ....|--- .... ....
....|..|--- .... ....|R-- .... ....|--- .... ....
....|..|--- .... ....|D#4 .F6F ....|R-- .... ....
 C#4|..|C#2 .A.F ....|C-4 .F1A ....|E-5 ...F ....
....|..|--- .... ....|--- .... ....|--- .... ....
....|..|--- .... ....|--- .... ....|--- .... ....
....|..|--- .... ....|--- .... ....|--- .... ....
 C#4|..|C#2 .A.F ....|--- .... ....|--- .... ....
....|..|--- .... ....|--- .... ....|--- .... ....
....|..|--- .... ....|--- .... ....|--- .... ....
....|..|--- .... ....|--- .... ....|--- .... ....
 C#4|..|C#2 .A.F ....|--- .... ....|--- .... ....
....|..|--- .... ....|--- .... ....|--- .... ....
....|..|--- .... ....|R-- .... ....|--- .... ....
....|..|--- .... ....|R-- .... ....|R-- .... ....
 C#4|..|C#2 .A.F ....|C#4 .F7F ....|F#5 ...7 ....
....|..|--- .... ....|--- .... ....|--- .... ....
....|..|--- .... ....|--- .... ....|--- .... ....
....|..|--- .... ....|--- .... ....|--- .... ....

[Pattern71]
 C#4|..|C#2 .A.F ....|--- .... ....|--- .... ....
....|..|--- .... ....|--- .... ....|--- .... ....
....|..|--- .... ....|--- .... ....|--- .... ....
....|..|--- .... ....|--- .... ....|--- .... ....
 C#4|..|C#2 .A.F ....|--- .... ....|F#5 ...F ....
....|..|--- .... ....|--- .... ....|--- .... ....
....|..|--- .... ....|--- .... ....|--- .... ....
....|..|--- .... ....|D#4 .F67 ....|R-- .... ....
 C#4|..|C#2 .A.F ....|C#4 .F7A ....|G#5 ...F ....
....|..|--- .... ....|--- .... ....|--- .... ....
....|..|--- .... ....|--- .... ....|--- .... ....
....|..|--- .... ....|--- .... ....|--- .... ....
 C#4|..|C#2 .A.F ....|--- .... ....|--- .... ....
....|..|--- .... ....|--- .... ....|--- .... ....
....|..|--- .... ....|--- .... ....|--- .... ....
....|..|--- .... ....|--- .... ....|--- .... ....
 C#4|..|C#2 .A.F ....|--- .... ....|F#5 ...A ....
....|..|--- .... ....|--- .... ....|--- .... ....
....|..|--- .... ....|R-- .... ....|--- .... ....
....|..|--- .... ....|R-- .... ....|R-- .... ....
 C#4|..|C#2 .A.F ....|C#4 .F7F ....|F#5 ...F ....
....|..|--- .... ....|--- .... ....|--- .... ....
....|..|--- .... ....|--- .... ....|--- .... ....
....|..|--- .... ....|--- .... ....|--- .... ....
 C#4|..|C#2 .A.F ....|--- .... ....|--- .... ....
....|..|--- .... ....|--- .... ....|--- .... ....
....|..|--- .... ....|--- .... ....|--- .... ....
....|..|--- .... ....|--- .... ....|R-- .... ....
 C#4|..|C#2 .A.F ....|--- .... ....|E-5 ...F ....
....|..|--- .... ....|--- .... ....|--- .... ....
....|..|--- .... ....|R-- .... ....|--- .... ....
....|..|--- .... ....|C#4 .F8F ....|R-- .... ....
 A-3|..|A-1 .A.F ....|C#4 .F7A ....|E-5 ...F ....
....|..|--- .... ....|--- .... ....|--- .... ....
....|..|--- .... ....|--- .... ....|--- .... ....
....|..|--- .... ....|--- .... ....|--- .... ....
 A-3|..|A-1 .A.F ....|--- .... ....|--- .... ....
....|..|--- .... ....|--- .... ....|--- .... ....
....|..|--- .... ....|--- .... ....|--- .... ....
....|..|--- .... ....|--- .... ....|R-- .... ....
 A-3|..|A-1 .A.F ....|--- .... ....|E-5 ...A ....
....|..|--- .... ....|--- .... ....|--- .... ....
....|..|--- .... ....|R-- .... ....|--- .... ....
....|..|--- .... ....|R-- .... ....|R-- .... ....
 A-3|..|A-1 .A.F ....|C#4 .F1F ....|C#5 ...F ....
....|..|--- .... ....|--- .... ....|--- .... ....
....|..|--- .... ....|--- .... ....|--- .... ....
....|..|--- .... ....|--- .... ....|--- .... ....
 A-3|..|A-1 .A.F ....|--- .... ....|--- .... ....
....|..|--- .... ....|--- .... ....|--- .... ....
....|..|--- .... ....|--- .... ....|--- .... ....
....|..|--- .... ....|--- .... ....|R-- .... ....
 A-3|..|A-1 .A.F ....|--- .... ....|E-5 ...F ....
....|..|--- .... ....|--- .... ....|--- .... ....
....|..|--- .... ....|--- .... ....|--- .... ....
....|..|--- .... ....|C#4 .F87 ....|R-- .... ....
 A-3|..|A-1 .A.F ....|C#4 .F1A ....|G#5 ...F ....
....|..|--- .... ....|--- .... ....|--- .... ....
....|..|--- .... ....|--- .... ....|--- .... ....
....|..|--- .... ....|--- .... ....|--- .... ....
 A-3|..|A-1 .A.F ....|--- .... ....|--- .... ....
....|..|--- .... ....|--- .... ....|--- .... ....
....|..|--- .... ....|--- .... ....|--- .... ....
....|..|--- .... ....|--- .... ....|R-- .... ....

[Pattern72]
 A-3|..|A-1 .A.F ....|--- .... ....|G#5 ...F ....
....|..|--- .... ....|--- .... ....|--- .... ....
....|..|--- .... ....|R-- .... ....|--- .... ....
....|..|--- .... ....|R-- .... ....|R-- .... ....
 A-3|..|A-1 .A.F ....|C#4 .F1F ....|F#5 ...F ....
....|..|--- .... ....|--- .... ....|--- .... ....
....|..|--- .... ....|--- .... ....|--- .... ....
....|..|--- .... ....|--- .... ....|--- .... ....
 A-3|..|A-1 .A.F ....|--- .... ....|--- .... ....
....|..|--- .... ....|--- .... ....|--- .... ....
....|..|--- .... ....|--- .... ....|--- .... ....
....|..|--- .... ....|--- .... ....|R-- .... ....
 A-3|..|A-1 .A.F ....|--- .... ....|E-5 ...F ....
....|..|--- .... ....|--- .... ....|--- .... ....
....|..|--- .... ....|R-- .... ....|--- .... ....
....|..|--- .... ....|C#4 .F9F ....|--- .... ....
 B-3|..|B-1 .A.F ....|C#4 .F1A ....|F#5 ...F ....
....|..|--- .... ....|--- .... ....|--- .... ....
....|..|--- .... ....|--- .... ....|--- .... ....
....|..|--- .... ....|--- .... ....|--- .... ....
 B-3|..|B-1 .A.F ....|--- .... ....|--- .... ....
....|..|--- .... ....|--- .... ....|--- .... ....
....|..|--- .... ....|--- .... ....|--- .... ....
....|..|--- .... ....|--- .... ....|R-- .... ....
 B-3|..|B-1 .A.F ....|--- .... ....|G#5 ...7 ....
....|..|--- .... ....|--- .... ....|--- .... ....
....|..|--- .... ....|R-- .... ....|--- .... ....
....|..|--- .... ....|R-- .... ....|--- .... ....
 B-3|..|B-1 .A.F ....|D#4 .F1F ....|F#5 ...7 ....
....|..|--- .... ....|--- .... ....|--- .... ....
....|..|--- .... ....|--- .... ....|--- .... ....
....|..|--- .... ....|--- .... ....|--- .... ....
 B-3|..|B-1 .A.F ....|--- .... ....|--- .... ....
....|..|--- .... ....|--- .... ....|--- .... ....
....|..|--- .... ....|--- .... ....|--- .... ....
....|..|--- .... ....|--- .... ....|R-- .... ....
 B-3|..|B-1 .A.F ....|--- .... ....|E-5 ...7 ....
....|..|--- .... ....|--- .... ....|--- .... ....
....|..|--- .... ....|--- .... ....|--- .... ....
....|..|--- .... ....|C#4 .F97 ....|--- .... ....
 A-3|..|A-1 .A.F ....|D#4 .F1A ....|F#5 ...7 ....
....|..|--- .... ....|--- .... ....|--- .... ....
....|..|--- .... ....|--- .... ....|--- .... ....
....|..|--- .... ....|--- .... ....|--- .... ....
 A-3|..|A-1 .A.F ....|--- .... ....|--- .... ....
....|..|--- .... ....|--- .... ....|--- .... ....
....|..|--- .... ....|--- .... ....|--- .... ....
....|..|--- .... ....|--- .... ....|--- .... ....
 A-3|..|A-1 .A.F ....|--- .... ....|--- .... ....
....|..|--- .... ....|--- .... ....|--- .... ....
....|..|--- .... ....|R-- .... ....|--- .... ....
....|..|--- .... ....|R-- .... ....|--- .... ....
 A-3|..|A-1 .A.F ....|D#4 .FAF ....|R-- .... ....
....|..|--- .... ....|--- .... ....|--- .... ....
....|..|--- .... ....|--- .... ....|--- .... ....
....|..|--- .... ....|--- .... ....|--- .... ....
 A-3|..|A-1 .A.F ....|--- .... ....|--- .... ....
....|..|--- .... ....|--- .... ....|--- .... ....
....|..|--- .... ....|--- .... ....|--- .... ....
....|..|--- .... ....|--- .... ....|--- .... ....
 A-3|..|A-1 .A.F ....|--- .... ....|--- .... ....
....|..|--- .... ....|--- .... ....|--- .... ....
....|..|--- .... ....|R-- .... ....|--- .... ....
....|..|--- .... ....|--- .... ....|--- .... ....

[Pattern73]
 G#3|..|G#1 .A.F ....|D#4 .FAA ....|R-- .... ....
....|..|--- .... ....|--- .... ....|--- .... ....
....|..|--- .... ....|--- .... ....|--- .... ....
....|..|--- .... ....|--- .... ....|--- .... ....
 G#3|..|G#1 .A.F ....|--- .... ....|--- .... ....
....|..|--- .... ....|--- .... ....|--- .... ....
....|..|--- .... ....|--- .... ....|--- .... ....
....|..|--- .... ....|--- .... ....|--- .... ....
 G#3|..|G#1 .A.F ....|--- .... ....|--- .... ....
....|..|--- .... ....|--- .... ....|--- .... ....
....|..|--- .... ....|R-- .... ....|--- .... ....
....|..|--- .... ....|R-- .... ....|--- .... ....
 G#3|..|G#1 .A.F ....|C-4 .F1F ....|D#5 ...F ....
....|..|--- .... ....|--- .... ....|--- .... ....
....|..|--- .... ....|--- .... ....|--- .... ....
....|..|--- .... ....|--- .... ....|--- .... ....
 G#3|..|G#1 .A.F ....|--- .... ....|--- .... ....
....|..|--- .... ....|--- .... ....|--- .... ....
....|..|--- .... ....|--- .... ....|--- .... ....
....|..|--- .... ....|--- .... ....|R-- .... ....
 G#3|..|G#1 .A.F ....|--- .... ....|D#5 ...F ....
....|..|--- .... ....|--- .... ....|--- .... ....
....|..|--- .... ....|--- .... ....|--- .... ....
....|..|--- .... ....|R-- .... ....|--- .... ....
 G#3|..|G#1 .A.F ....|C-4 .F1A ....|D#5 ...F ....
....|..|--- .... ....|--- .... ....|--- .... ....
....|..|--- .... ....|--- .... ....|--- .... ....
....|..|--- .... ....|--- .... ....|--- .... ....
 G#3|..|G#1 .A.F ....|--- .... ....|--- .... ....
....|..|--- .... ....|--- .... ....|--- .... ....
....|..|--- .... ....|--- .... ....|--- .... ....
....|..|--- .... ....|--- .... ....|R-- .... ....
 G#3|..|G#1 .A.F ....|--- .... ....|D#5 ...A ....
....|..|--- .... ....|--- .... ....|--- .... ....
....|..|--- .... ....|R-- .... ....|--- .... ....
....|..|--- .... ....|R-- .... ....|R-- .... ....
 G#3|..|G#1 .A.F ....|C-4 .F1F ....|F#5 ...F ....
....|..|--- .... ....|--- .... ....|--- .... ....
....|..|--- .... ....|--- .... ....|--- .... ....
....|..|--- .... ....|--- .... ....|--- .... ....
 G#3|..|G#1 .A.F ....|--- .... ....|--- .... ....
....|..|--- .... ....|--- .... ....|--- .... ....
....|..|--- .... ....|--- .... ....|--- .... ....
....|..|--- .... ....|--- .... ....|R-- .... ....
 G#3|..|G#1 .A.F ....|--- .... ....|D#5 ...7 ....
....|..|--- .... ....|--- .... ....|--- .... ....
....|..|--- .... ....|R-- .... ....|--- .... ....
....|..|--- .... ....|D#4 .F6F ....|R-- .... ....
 C#4|..|C#2 .A.F ....|C-4 .F1A ....|E-5 ...F ....
....|..|--- .... ....|--- .... ....|--- .... ....
....|..|--- .... ....|--- .... ....|--- .... ....
....|..|--- .... ....|--- .... ....|--- .... ....
 C#4|..|C#2 .A.F ....|--- .... ....|--- .... ....
....|..|--- .... ....|--- .... ....|--- .... ....
....|..|--- .... ....|--- .... ....|--- .... ....
....|..|--- .... ....|--- .... ....|--- .... ....
 C#4|..|C#2 .A.F ....|--- .... ....|--- .... ....
....|..|--- .... ....|--- .... ....|--- .... ....
....|..|--- .... ....|R-- .... ....|--- .... ....
....|..|--- .... ....|R-- .... ....|R-- .... ....
 C#4|..|C#2 .A.F ....|C#4 .F7F ....|F#5 ...7 ....
....|..|--- .... ....|--- .... ....|--- .... ....
....|..|--- .... ....|--- .... ....|--- .... ....
....|..|--- .... ....|--- .... ....|--- .... ....

[Pattern74]
 C#4|..|C#2 .A.F ....|--- .... ....|--- .... ....
....|..|--- .... ....|--- .... ....|--- .... ....
....|..|--- .... ....|--- .... ....|--- .... ....
....|..|--- .... ....|--- .... ....|--- .... ....
 C#4|..|C#2 .A.F ....|--- .... ....|F#5 ...F ....
....|..|--- .... ....|--- .... ....|--- .... ....
....|..|--- .... ....|--- .... ....|--- .... ....
....|..|--- .... ....|D#4 .F67 ....|R-- .... ....
 C#4|..|C#2 .A.F ....|C#4 .F7A ....|G#5 ...F ....
....|..|--- .... ....|--- .... ....|--- .... ....
....|..|--- .... ....|--- .... ....|--- .... ....
....|..|--- .... ....|--- .... ....|--- .... ....
 C#4|..|C#2 .A.F ....|--- .... ....|--- .... ....
....|..|--- .... ....|--- .... ....|--- .... ....
....|..|--- .... ....|--- .... ....|--- .... ....
....|..|--- .... ....|--- .... ....|--- .... ....
 C#4|..|C#2 .A.F ....|--- .... ....|F#5 ...A ....
....|..|--- .... ....|--- .... ....|--- .... ....
....|..|--- .... ....|R-- .... ....|--- .... ....
....|..|--- .... ....|R-- .... ....|R-- .... ....
 C#4|..|C#2 .A.F ....|C#4 .F7F ....|F#5 ...F ....
....|..|--- .... ....|--- .... ....|--- .... ....
....|..|--- .... ....|--- .... ....|--- .... ....
....|..|--- .... ....|--- .... ....|--- .... ....
 C#4|..|C#2 .A.F ....|--- .... ....|--- .... ....
....|..|--- .... ....|--- .... ....|--- .... ....
....|..|--- .... ....|--- .... ....|--- .... ....
....|..|--- .... ....|--- .... ....|R-- .... ....
 C#4|..|C#2 .A.F ....|--- .... ....|E-5 ...F ....
....|..|--- .... ....|--- .... ....|--- .... ....
....|..|--- .... ....|R-- .... ....|--- .... ....
....|..|--- .... ....|R-- .... ....|R-- .... ....
 A-3|..|A-1 .A.F ....|C#4 .F7A ....|E-5 ...F ....
....|..|--- .... ....|--- .... ....|--- .... ....
....|..|--- .... ....|--- .... ....|--- .... ....
....|..|--- .... ....|--- .... ....|--- .... ....
 E-3|..|E-1 .A.F ....|--- .... ....|--- .... ....
....|..|--- .... ....|--- .... ....|--- .... ....
....|..|--- .... ....|--- .... ....|--- .... ....
....|..|--- .... ....|--- .... ....|R-- .... ....
 E-3|..|E-1 .A.F ....|--- .... ....|E-5 ...A ....
....|..|--- .... ....|--- .... ....|--- .... ....
....|..|--- .... ....|R-- .... ....|--- .... ....
....|..|--- .... ....|R-- .... ....|R-- .... ....
 A-3|..|A-1 .A.F ....|C#4 .F77 ....|F#5 ...7 ....
....|..|--- .... ....|--- .... ....|--- .... ....
....|..|--- .... ....|--- .... ....|--- .... ....
....|..|--- .... ....|--- .... ....|--- .... ....
 E-3|..|E-1 .A.F ....|--- .... ....|--- .... ....
....|..|--- .... ....|--- .... ....|--- .... ....
....|..|--- .... ....|--- .... ....|--- .... ....
....|..|--- .... ....|--- .... ....|R-- .... ....
 E-3|..|E-1 .A.F ....|--- .... ....|E-5 ...7 ....
....|..|--- .... ....|--- .... ....|--- .... ....
....|..|--- .... ....|--- .... ....|--- .... ....
....|..|--- .... ....|R-- .... ....|R-- .... ....
 A-3|..|A-1 .A.F ....|--- .... ....|E-5 ...7 ....
....|..|--- .... ....|--- .... ....|--- .... ....
....|..|--- .... ....|--- .... ....|--- .... ....
....|..|--- .... ....|--- .... ....|--- .... ....
 E-3|..|E-1 .A.F ....|--- .... ....|--- .... ....
....|..|--- .... ....|--- .... ....|--- .... ....
....|..|--- .... ....|--- .... ....|--- .... ....
....|..|--- .... ....|--- .... ....|--- .... ....

[Pattern75]
 E-3|..|E-1 .A.F ....|--- .... ....|--- .... ....
....|..|--- .... ....|--- .... ....|--- .... ....
....|..|--- .... ....|--- .... ....|--- .... ....
....|..|--- .... ....|--- .... ....|R-- .... ....
 A-3|..|A-1 .A.F ....|--- .... ....|--- .... ....
....|..|--- .... ....|--- .... ....|--- .... ....
....|..|--- .... ....|--- .... ....|--- .... ....
....|..|--- .... ....|--- .... ....|--- .... ....
 E-3|..|E-1 .A.F ....|--- .... ....|--- .... ....
....|..|--- .... ....|--- .... ....|--- .... ....
....|..|--- .... ....|--- .... ....|--- .... ....
....|..|--- .... ....|--- .... ....|--- .... ....
 E-3|..|E-1 .A.F ....|--- .... ....|E-5 ...F ....
....|..|--- .... ....|--- .... ....|--- .... ....
....|..|--- .... ....|--- .... ....|--- .... ....
....|..|--- .... ....|--- .... ....|--- .... ....
 C-4|..|C-2 .A.F ....|--- .... ....|E-5 ...F ....
....|..|--- .... ....|--- .... ....|--- .... ....
....|..|--- .... ....|--- .... ....|--- .... ....
....|..|--- .... ....|--- .... ....|--- .... ....
 C-4|..|C-2 .A.F ....|--- .... ....|--- .... ....
....|..|--- .... ....|--- .... ....|--- .... ....
....|..|--- .... ....|--- .... ....|--- .... ....
....|..|--- .... ....|--- .... ....|--- .... ....
 C-4|..|C-2 .A.F ....|--- .... ....|E-5 ...A ....
....|..|--- .... ....|--- .... ....|--- .... ....
....|..|--- .... ....|--- .... ....|--- .... ....
....|..|--- .... ....|--- .... ....|--- .... ....
 C-4|..|C-2 .A.F ....|--- .... ....|E-5 ...A ....
....|..|--- .... ....|--- .... ....|--- .... ....
....|..|--- .... ....|--- .... ....|--- .... ....
....|..|--- .... ....|--- .... ....|--- .... ....
 C-4|..|C-2 .A.F ....|--- .... ....|--- .... ....
....|..|--- .... ....|--- .... ....|--- .... ....
....|..|--- .... ....|--- .... ....|--- .... ....
....|..|--- .... ....|--- .... ....|--- .... ....
 C-4|..|C-2 .A.F ....|--- .... ....|E-5 ...7 ....
....|..|--- .... ....|--- .... ....|--- .... ....
....|..|--- .... ....|--- .... ....|--- .... ....
....|..|--- .... ....|--- .... ....|--- .... ....
 C-4|..|C-2 .A.F ....|--- .... ....|E-5 ...7 ....
....|..|--- .... ....|--- .... ....|--- .... ....
....|..|--- .... ....|--- .... ....|--- .... ....
....|..|--- .... ....|--- .... ....|--- .... ....
 C-4|..|C-2 .A.F ....|--- .... ....|F#5 ...F ....
....|..|--- .... ....|--- .... ....|--- .... ....
....|..|--- .... ....|--- .... ....|--- .... ....
....|..|--- .... ....|--- .... ....|--- .... ....
 C-4|..|C-2 .A.F ....|--- .... ....|--- .... ....
....|..|--- .... ....|--- .... ....|--- .... ....
....|..|--- .... ....|--- .... ....|--- .... ....
....|..|--- .... ....|--- .... ....|--- .... ....
 C-4|..|C-2 .A.F ....|--- .... ....|--- .... ....
....|..|--- .... ....|--- .... ....|--- .... ....
....|..|--- .... ....|--- .... ....|--- .... ....
....|..|--- .... ....|--- .... ....|--- .... ....
 D-4|..|D-2 .A.F ....|--- .... ....|F#5 ...A ....
....|..|--- .... ....|--- .... ....|--- .... ....
....|..|--- .... ....|--- .... ....|--- .... ....
....|..|--- .... ....|--- .... ....|--- .... ....
 D#4|..|D#2 .A.F ....|--- .... ....|--- .... ....
....|..|--- .... ....|--- .... ....|--- .... ....
....|..|--- .... ....|--- .... ....|--- .... ....
....|..|--- .... ....|--- .... ....|R-- .... ....

[Pattern76]
 E-4|..|E-2 .A.F ....|G#3 .F.F ....|E-5 ...F ....
....|..|--- .... ....|--- .... ....|--- .... ....
....|..|--- .... ....|--- .... ....|--- .... ....
....|..|--- .... ....|--- .... ....|--- .... ....
 C-4|..|C-2 .A.7 ....|--- .... ....|F#5 ...7 ....
....|..|--- .... ....|--- .... ....|--- .... ....
....|..|--- .... ....|--- .... ....|--- .... ....
....|..|--- .... ....|--- .... ....|--- .... ....
 C-4|..|C-2 .A.7 ....|--- .... ....|--- .... ....
....|..|--- .... ....|--- .... ....|--- .... ....
....|..|--- .... ....|--- .... ....|--- .... ....
....|..|--- .... ....|--- .... ....|R-- .... ....
 C-4|..|C-2 .A.7 ....|G#3 .F.A ....|E-5 ...A ....
....|..|--- .... ....|--- .... ....|--- .... ....
....|..|--- .... ....|--- .... ....|--- .... ....
....|..|--- .... ....|--- .... ....|--- .... ....
 D-4|..|D-2 .A.7 ....|--- .... ....|--- .... ....
....|..|--- .... ....|--- .... ....|--- .... ....
....|..|--- .... ....|--- .... ....|--- .... ....
....|..|--- .... ....|--- .... ....|--- .... ....
 D#4|..|D#2 .A.7 ....|--- .... ....|--- .... ....
....|..|--- .... ....|--- .... ....|--- .... ....
....|..|--- .... ....|--- .... ....|--- .... ....
....|..|--- .... ....|--- .... ....|R-- .... ....
 E-4|..|E-2 .A.7 ....|G#3 .F.7 ....|E-5 ...7 ....
....|..|--- .... ....|--- .... ....|--- .... ....
....|..|--- .... ....|--- .... ....|--- .... ....
....|..|--- .... ....|--- .... ....|--- .... ....
....|..|--- .... ....|--- .... ....|--- .... ....
....|..|--- .... ....|--- .... ....|--- .... ....
....|..|--- .... ....|--- .... ....|--- .... ....
....|..|--- .... ....|--- .... ....|--- .... ....
....|..|--- .... ....|--- .... ....|--- .... ....
....|..|--- .... ....|--- .... ....|--- .... ....
....|..|--- .... ....|--- .... ....|--- .... ....
....|..|--- .... ....|--- .... ....|--- .... ....
....|..|--- .... ....|--- .... ....|--- .... ....
....|..|--- .... ....|--- .... ....|--- .... ....
....|..|--- .... ....|--- .... ....|--- .... ....
....|..|--- .... ....|--- .... ....|--- .... ....
....|..|--- .... ....|--- .... ....|--- .... ....
....|..|--- .... ....|--- .... ....|--- .... ....
....|..|--- .... ....|--- .... ....|--- .... ....
....|..|--- .... ....|--- .... ....|--- .... ....
....|..|--- .... ....|--- .... ....|--- .... ....
....|..|--- .... ....|--- .... ....|--- .... ....
....|..|R-- .... ....|--- .... ....|R-- .... ....
....|..|--- .... ....|--- .... ....|--- .... ....
 E-3|..|E-1 .A.F ....|--- .... ....|--- .... ....
....|..|--- .... ....|--- .... ....|--- .... ....
....|..|--- .... ....|--- .... ....|--- .... ....
....|..|--- .... ....|--- .... ....|--- .... ....
....|..|--- .... ....|--- .... ....|--- .... ....
....|..|--- .... ....|--- .... ....|--- .... ....
....|..|--- .... ....|--- .... ....|--- .... ....
....|..|--- .... ....|--- .... ....|--- .... ....
....|..|--- .... ....|--- .... ....|--- .... ....
....|..|--- .... ....|--- .... ....|--- .... ....
....|..|R-- .... ....|--- .... ....|R-- .... ....
....|..|--- .... ....|--- .... ....|--- .... ....
 E-3|..|E-1 .A.A ....|--- .... ....|--- .... ....
....|..|--- .... ....|--- .... ....|--- .... ....
....|..|--- .... ....|--- .... ....|--- .... ....
....|..|--- .... ....|--- .... ....|--- .... ....

[Pattern77]
....|..|--- .... ....|--- .... ....|--- .... ....
....|..|--- .... ....|--- .... ....|--- .... ....
....|..|--- .... ....|--- .... ....|--- .... ....
....|..|--- .... ....|--- .... ....|--- .... ....
....|..|--- .... ....|--- .... ....|--- .... ....
....|..|--- .... ....|--- .... ....|--- .... ....
....|..|R-- .... ....|--- .... ....|R-- .... ....
....|..|--- .... ....|--- .... ....|--- .... ....
 E-3|..|E-1 .A.7 ....|--- .... ....|--- .... ....
....|..|--- .... ....|--- .... ....|--- .... ....
....|..|--- .... ....|--- .... ....|--- .... ....
....|..|--- .... ....|--- .... ....|--- .... ....
....|..|--- .... ....|--- .... ....|--- .... ....
....|..|--- .... ....|--- .... ....|--- .... ....
....|..|--- .... ....|--- .... ....|--- .... ....
....|..|--- .... ....|--- .... ....|--- .... ....
....|..|--- .... ....|--- .... ....|--- .... ....
....|..|--- .... ....|--- .... ....|--- .... ....
....|..|--- .... ....|--- .... ....|--- .... ....
....|..|--- .... ....|--- .... ....|--- .... ....
....|..|--- .... ....|--- .... ....|--- .... ....
....|..|--- .... ....|--- .... ....|--- .... ....
....|..|--- .... ....|--- .... ....|--- .... ....
....|..|--- .... ....|--- .... ....|--- .... ....
....|..|--- .... ....|--- .... ....|--- .... ....
....|..|--- .... ....|--- .... ....|--- .... ....
....|..|--- .... ....|--- .... ....|--- .... ....
....|..|R-- .... ....|--- .... ....|--- .... ....
 E-3|..|E-1 .A.F ....|--- .... ....|--- .... ....
....|..|--- .... ....|--- .... ....|--- .... ....
....|..|--- .... ....|R-- .... ....|--- .... ....
....|..|--- .... ....|--- .... ....|--- .... ....
 E-3|..|E-1 .A.F ....|--- .... ....|--- .... ....
....|..|--- .... ....|--- .... ....|--- .... ....
....|..|--- .... ....|--- .... ....|--- .... ....
....|..|--- .... ....|--- .... ....|--- .... ....
....|..|--- .... ....|--- .... ....|--- .... ....
....|..|--- .... ....|--- .... ....|--- .... ....
....|..|--- .... ....|--- .... ....|--- .... ....
....|..|R-- .... ....|--- .... ....|--- .... ....
 E-3|..|E-1 .A.A ....|--- .... ....|--- .... ....
....|..|--- .... ....|--- .... ....|--- .... ....
....|..|--- .... ....|R-- .... ....|--- .... ....
....|..|--- .... ....|--- .... ....|--- .... ....
 E-3|..|E-1 .A.A ....|--- .... ....|--- .... ....
....|..|--- .... ....|--- .... ....|--- .... ....
....|..|--- .... ....|--- .... ....|--- .... ....
....|..|--- .... ....|--- .... ....|--- .... ....
 E-3|..|E-1 .A.F ....|--- .... ....|--- .... ....
....|..|--- .... ....|--- .... ....|--- .... ....
....|..|--- .... ....|--- .... ....|--- .... ....
....|..|R-- .... ....|--- .... ....|--- .... ....
 E-3|..|E-1 .A.F ....|--- .... ....|--- .... ....
....|..|--- .... ....|--- .... ....|--- .... ....
....|..|--- .... ....|R-- .... ....|--- .... ....
....|..|--- .... ....|--- .... ....|--- .... ....
 E-3|..|E-1 .A.F ....|--- .... ....|--- .... ....
....|..|--- .... ....|--- .... ....|--- .... ....
....|..|--- .... ....|--- .... ....|--- .... ....
....|..|--- .... ....|--- .... ....|--- .... ....
 E-3|..|E-1 .A.A ....|--- .... ....|--- .... ....
....|..|--- .... ....|--- .... ....|--- .... ....
....|..|--- .... ....|--- .... ....|--- .... ....
....|..|--- .... ....|--- .... ....|--- .... ....

[Pattern78]
 E-3|..|E-1 .A.A ....|--- .... ....|--- .... ....
....|..|--- .... ....|--- .... ....|--- .... ....
....|..|--- .... ....|--- .... ....|--- .... ....
....|..|--- .... ....|--- .... ....|--- .... ....
 E-3|..|E-1 .A.A ....|--- .... ....|--- .... ....
....|..|--- .... ....|--- .... ....|--- .... ....
....|..|--- .... ....|--- .... ....|--- .... ....
....|..|--- .... ....|--- .... ....|--- .... ....
 E-3|..|E-1 .A.F ....|--- .... ....|--- .... ....
....|..|--- .... ....|--- .... ....|--- .... ....
....|..|--- .... ....|--- .... ....|--- .... ....
....|..|--- .... ....|--- .... ....|--- .... ....
 E-3|..|E-1 .A.F ....|--- .... ....|--- .... ....
....|..|--- .... ....|--- .... ....|--- .... ....
....|..|--- .... ....|--- .... ....|--- .... ....
....|..|--- .... ....|--- .... ....|--- .... ....
 E-3|..|E-1 .A.F ....|--- .... ....|--- .... ....
....|..|--- .... ....|--- .... ....|--- .... ....
....|..|--- .... ....|--- .... ....|--- .... ....
....|..|--- .... ....|--- .... ....|--- .... ....
 E-3|..|E-1 .A.A ....|--- .... ....|--- .... ....
....|..|--- .... ....|--- .... ....|--- .... ....
....|..|--- .... ....|--- .... ....|--- .... ....
....|..|--- .... ....|--- .... ....|--- .... ....
 E-3|..|E-1 .A.A ....|--- .... ....|--- .... ....
....|..|--- .... ....|--- .... ....|--- .... ....
....|..|--- .... ....|--- .... ....|--- .... ....
....|..|--- .... ....|--- .... ....|--- .... ....
 E-3|..|E-1 .A.A ....|--- .... ....|--- .... ....
....|..|--- .... ....|--- .... ....|--- .... ....
....|..|--- .... ....|--- .... ....|--- .... ....
....|..|--- .... ....|--- .... ....|--- .... ....
 E-3|..|E-1 .A.F ....|--- .... ....|--- .... ....
....|..|--- .... ....|--- .... ....|--- .... ....
....|..|--- .... ....|--- .... ....|--- .... ....
....|..|--- .... ....|--- .... ....|--- .... ....
 E-3|..|E-1 .A.F ....|--- .... ....|--- .... ....
....|..|--- .... ....|--- .... ....|--- .... ....
....|..|--- .... ....|--- .... ....|--- .... ....
....|..|--- .... ....|--- .... ....|--- .... ....
 E-3|..|E-1 .A.F ....|--- .... ....|--- .... ....
....|..|--- .... ....|--- .... ....|--- .... ....
....|..|--- .... ....|--- .... ....|--- .... ....
....|..|--- .... ....|--- .... ....|--- .... ....
 E-3|..|E-1 .A.A ....|--- .... ....|--- .... ....
....|..|--- .... ....|--- .... ....|--- .... ....
....|..|--- .... ....|--- .... ....|--- .... ....
....|..|--- .... ....|--- .... ....|--- .... ....
 E-3|..|E-1 .A.A ....|--- .... ....|--- .... ....
....|..|--- .... ....|--- .... ....|--- .... ....
....|..|--- .... ....|--- .... ....|--- .... ....
....|..|--- .... ....|--- .... ....|--- .... ....
 E-3|..|E-1 .A.A ....|--- .... ....|--- .... ....
....|..|--- .... ....|--- .... ....|--- .... ....
....|..|--- .... ....|--- .... ....|--- .... ....
....|..|--- .... ....|--- .... ....|--- .... ....
 E-3|..|E-1 .A.F ....|--- .... ....|--- .... ....
....|..|--- .... ....|--- .... ....|--- .... ....
....|..|--- .... ....|--- .... ....|--- .... ....
....|..|--- .... ....|--- .... ....|--- .... ....
 E-3|..|E-1 .A.F ....|--- .... ....|--- .... ....
....|..|--- .... ....|--- .... ....|--- .... ....
....|..|--- .... ....|--- .... ....|--- .... ....
....|..|--- .... ....|--- .... ....|--- .... ....

[Pattern79]
 C#4|..|C#2 .A.F ....|C#3 .F5F ....|--- .... ....
....|..|--- .... ....|--- .... ....|--- .... ....
....|..|--- .... ....|--- .... ....|--- .... ....
....|..|--- .... ....|--- .... ....|--- .... ....
 C#4|..|C#2 .A.F ....|C#3 .F5F ....|--- .... ....
....|..|--- .... ....|--- .... ....|--- .... ....
....|..|--- .... ....|--- .... ....|--- .... ....
....|..|--- .... ....|--- .... ....|--- .... ....
 C#4|..|C#2 .A.F ....|C#3 .F5F ....|--- .... ....
....|..|--- .... ....|--- .... ....|--- .... ....
....|..|--- .... ....|--- .... ....|--- .... ....
....|..|--- .... ....|--- .... ....|--- .... ....
 C#4|..|C#2 .A.F ....|C#3 .F5F ....|--- .... ....
....|..|--- .... ....|--- .... ....|--- .... ....
....|..|--- .... ....|--- .... ....|--- .... ....
....|..|--- .... ....|--- .... ....|--- .... ....
 C#4|..|C#2 .A.F ....|C#3 .F5F ....|--- .... ....
....|..|--- .... ....|--- .... ....|--- .... ....
....|..|--- .... ....|--- .... ....|--- .... ....
....|..|--- .... ....|--- .... ....|--- .... ....
 C#4|..|C#2 .A.F ....|C#3 .F5F ....|--- .... ....
....|..|--- .... ....|--- .... ....|--- .... ....
....|..|--- .... ....|--- .... ....|--- .... ....
....|..|--- .... ....|--- .... ....|--- .... ....
 B-3|..|B-1 .A.F ....|D#3 .F5F ....|--- .... ....
....|..|--- .... ....|--- .... ....|--- .... ....
....|..|--- .... ....|--- .... ....|--- .... ....
....|..|--- .... ....|--- .... ....|--- .... ....
 B-3|..|B-1 .A.F ....|D#3 .F5F ....|--- .... ....
....|..|--- .... ....|--- .... ....|--- .... ....
....|..|--- .... ....|--- .... ....|--- .... ....
....|..|--- .... ....|--- .... ....|--- .... ....
 B-3|..|B-1 .A.F ....|D#3 .F5F ....|--- .... ....
....|..|--- .... ....|--- .... ....|--- .... ....
....|..|--- .... ....|--- .... ....|--- .... ....
....|..|--- .... ....|--- .... ....|--- .... ....
 B-3|..|B-1 .A.F ....|D#3 .F5F ....|--- .... ....
....|..|--- .... ....|--- .... ....|--- .... ....
....|..|--- .... ....|--- .... ....|--- .... ....
....|..|--- .... ....|--- .... ....|--- .... ....
 B-3|..|B-1 .A.F ....|D#3 .F5F ....|--- .... ....
....|..|--- .... ....|--- .... ....|--- .... ....
....|..|--- .... ....|--- .... ....|--- .... ....
....|..|--- .... ....|--- .... ....|--- .... ....
 B-3|..|B-1 .A.F ....|D#3 .F5F ....|--- .... ....
....|..|--- .... ....|--- .... ....|--- .... ....
....|..|--- .... ....|--- .... ....|--- .... ....
....|..|--- .... ....|--- .... ....|--- .... ....
 A-3|..|A-1 .A.F ....|E-3 .F5F ....|--- .... ....
....|..|--- .... ....|--- .... ....|--- .... ....
....|..|--- .... ....|--- .... ....|--- .... ....
....|..|R-- .... ....|R-- .... ....|--- .... ....
 B-3|..|B-1 .A.7 ....|D#3 .F57 ....|--- .... ....
....|..|--- .... ....|--- .... ....|--- .... ....
....|..|--- .... ....|--- .... ....|--- .... ....
....|..|--- .... ....|--- .... ....|--- .... ....
 B-3|..|B-1 .A.7 ....|D#3 .F57 ....|--- .... ....
....|..|--- .... ....|--- .... ....|--- .... ....
....|..|--- .... ....|--- .... ....|--- .... ....
....|..|--- .... ....|--- .... ....|--- .... ....
 B-3|..|B-1 .A.7 ....|D#3 .F57 ....|--- .... ....
....|..|--- .... ....|--- .... ....|--- .... ....
....|..|--- .... ....|--- .... ....|--- .... ....
....|..|R-- .... ....|R-- .... ....|--- .... ....

[Pattern80]
 B-3|..|B-1 .A.7 ....|D#3 .F57 ....|--- .... ....
....|..|--- .... ....|--- .... ....|--- .... ....
....|..|--- .... ....|--- .... ....|--- .... ....
....|..|--- .... ....|--- .... ....|--- .... ....
 B-3|..|B-1 .A.7 ....|D#3 .F57 ....|--- .... ....
....|..|--- .... ....|--- .... ....|--- .... ....
....|..|--- .... ....|--- .... ....|--- .... ....
....|..|--- .... ....|--- .... ....|--- .... ....
 A-3|..|A-1 .A.7 ....|E-3 .F57 ....|--- .... ....
....|..|--- .... ....|--- .... ....|--- .... ....
....|..|--- .... ....|--- .... ....|--- .... ....

