[Module]
VortexTrackerII=0
Version=3.5
Title=3me[2d],2m[6f],1m[1e]
Author=oisee ^ 4d 29.05.2010
NoteTable=4
ChipFreq=1750000
Speed=5
PlayOrder=L0,1,2,3,2,5,6,7,8,9,10,11,12,13,14,15,16,17,18,19,18,21,22,23

[Ornament1]
L0

[Ornament2]
L0

[Ornament3]
L0

[Ornament4]
L0

[Ornament5]
L0

[Ornament6]
L0

[Ornament7]
L0

[Ornament8]
L0

[Ornament9]
L0

[Ornament10]
L0

[Ornament11]
L0

[Ornament12]
L0

[Ornament13]
12,12,L0,0

[Ornament14]
L12,0

[Ornament15]
12,L0

[Sample1]
TnE +000_ +00_ F_
TnE +000_ +00_ F_
TnE +000_ +00_ F_
TnE +000_ +00_ D_
TnE +000_ +00_ B_
TnE +000_ +00_ B_ L

[Sample2]
TnE +000_ +00_ F_ L

[Sample3]
TnE +001_ +00_ F_
TnE +002_ +00_ F_
TnE +001_ +00_ E_
TnE +002_ +00_ E_
TnE +000_ +00_ E_ L
TnE -001_ +00_ E_
TnE -002_ +00_ E_
TnE -001_ +00_ E_
TnE +000_ +00_ E_
TnE +001_ +00_ E_
TnE +002_ +00_ E_
TnE +001_ +00_ E_

[Sample4]
TnE +002_ +00_ D_
TnE +002_ +00_ D_
TnE +002_ +00_ C_
TnE +002_ +00_ B_
TnE +002_ +00_ A_ L
TnE +002_ +00_ A_
TnE +002_ +00_ A_
TnE +002_ +00_ A_
TnE +002_ +00_ A_
TnE +002_ +00_ A_
TnE +002_ +00_ A_
TnE +002_ +00_ A_

[Sample5]
TnE +000_ +00_ F_
TnE +000_ +00_ F_
tne +000_ +00_ 0_ L

[Sample6]
TNE +000_ +00_ F_
TnE +000_ +00_ E_ L

[Sample7]
TnE +006_ +00_ F_ L

[Sample8]
tNe +000_ +00_ F_
tNe +000_ +00_ B_
tNe +000_ +00_ 7_
tNe +000_ +00_ 6- L

[Sample9]
TnE +080_ +00_ F_
TnE +100_ +00_ E_
TnE +180_ +00_ E_
TnE +200_ +00_ E_
TnE +240_ +00_ D_
TnE +280_ +00_ D_
TnE +2C0_ +00_ D_
TnE +300_ +00_ C_
TnE +300_ +00_ C_
TnE +340_ +00_ C_
TnE +340_ +00_ C_
TnE +380_ +00_ B_
TnE +380_ +00_ B_
TnE +400_ +00_ B_
TnE +400_ +00_ B_
TnE +480_ +00_ A_
TnE +500_ +00_ 9_
TnE +580_ +00_ 7_
TnE +600_ +00_ 4_
TnE +680_ +00_ 1_
TnE +000_ +00_ 0_ L

[Sample10]
Tne +1C0_ +00_ F_
Tne +280_ +00_ E_
Tne +380_ +00_ C_
Tne +440_ +00_ A_
Tne +480_ +00_ 8_
TnE +000_ +00_ 0_ L

[Sample11]
TNe +200_ -0A_ F_
tNe +000_ +0F_ A_
TNe +200_ -07_ E_
tNe +000_ +0E_ B- L

[Sample12]
TNE +0A0_ +05_ F_
TNE +140_ +02_ D_
TNE +140_ +02_ B_
TNE +100_ +00_ A_ L
TNE +140_ +00_ A_
TNE +200_ +00_ A-

[Sample13]
Tne +200_ +00_ F_
Tne +2C0_ +00_ F_
Tne +380_ +00_ E_
Tne +500_ +00_ C_
Tne +520_ +00_ 9_
tne +000_ +00_ 0_ L

[Sample14]
TNE -100_ +00_ F_
TNE -100_ +00_ D_
TNE -100_ +00_ A_
TNE -100_ +00_ 5_
tne +000_ +00_ 0_ L

[Sample15]
TNE -100_ +00_ 5_
TNE -100_ +00_ 8_
TNE -100_ +00_ B_
TNE -100_ +00_ F_
TNe -100_ +00_ 9- L

[Sample16]
TnE +000_ +00_ C_
TnE +000_ +00_ E_
TnE +000_ +00_ F_
TnE +000_ +00_ F_
TnE +000_ +00_ E_
TnE +000_ +00_ D_
TnE +000_ +00_ C_
TnE +000_ +00_ C_ L
TnE +001_ +00_ C_
TnE +002_ +00_ C_
TnE +003_ +00_ C_
TnE +001_ +00_ C_
TnE +000_ +00_ C_
TnE -001_ +00_ C_
TnE -002_ +00_ C_
TnE -003_ +00_ C_
TnE -001_ +00_ C_
TnE +000_ +00_ C_
TnE +000_ +00_ C_

[Sample17]
Tne +1C0_ +00_ F_
Tne +280_ +00_ D_
Tne +380_ +00_ 7_
TNE +000_ +00_ 0_ L

[Sample18]
TnE -00C_ +00_ 0_ L

[Sample19]
TNe +000_ +00_ F_
TNe +000_ +00_ C_
TNe +000_ +00_ 6_
TNe +000_ +01_ A- L

[Sample20]
TNE +140_ +00_ F_
tNE +000_ +00_ B- L

[Sample21]
tNE +000_ +00_ D_
tNE +000_ +00_ 8_
tNE +000_ +00_ 1_
TNE +000_ +00_ 0_ L

[Sample22]
TnE +000_ +00_ D_ L
TnE +000_ +00_ D_
tne +000_ +00_ 9_
tne +000_ +00_ 9_
TnE +000_ +00_ D_
TnE +000_ +00_ D_
tne +000_ +00_ 9_
tne +000_ +00_ 9_
TnE +000_ +00_ D_
TnE +000_ +00_ D_
TnE +000_ +00_ D_
TnE +000_ +00_ D_
TnE +000_ +00_ D_
TnE +000_ +00_ D_
tne +000_ +00_ 9_
tne +000_ +00_ 9_

[Sample23]
TnE +000_ +00_ F_ L
TnE +010_ +01_ F_
TnE +010_ +01_ F_
TnE +010_ +01_ F_
TnE +010_ +01_ F_
TnE +000_ +00_ F_
TnE +000_ +00_ F_
TnE -010_ -01_ F_
TnE -010_ -01_ F_
TnE -010_ -01_ F_
TnE -010_ -01_ F_
TnE +000_ +00_ F_

[Sample24]
TNe +000_ -01_ C_
TNe +000_ -01_ D_
TNe +000_ -01_ E_
TNe +000_ -01_ F_
TNe +000_ -01_ F_
TNe +000_ -01_ F_
TNe +000_ -01_ F_
TNe +000_ -01_ F_
TNe +000_ -01_ E_
TNe +000_ -01_ E_
TNe +000_ -01_ E_
TNe +000_ -01_ F_
TNe +000_ -01_ F_ L

[Sample25]
TNE +000_ +00_ F_
TNE +000_ +00_ F_ L
TNE +000_ +00_ F_
TNE +000_ +00_ F_
TNE +000_ +00_ F-

[Sample26]
tne +000_ +00_ 0_ L

[Sample27]
TnE +100_ +05_ F_
TnE +200_ +02_ A_
TnE +300_ +02_ 7_
TNE +400_ +00_ 3- L

[Sample28]
tne +000_ +00_ 0_ L

[Sample29]
tnE +000_ +00_ 0_ L

[Sample30]
TNE +000_ +00_ C+ L

[Sample31]
TNe +1C0_ +00_ F_
Tne +280_ +00_ E_
Tne +380_ +00_ C_
Tne +440_ +00_ A_
Tne +480_ +00_ 8_
TnE +000_ +00_ 0_ L

[Pattern0]
 G-3|..|G-1 2ADF ....|G-1 6FFF ....|--- .... ....
....|..|--- .... ....|--- .... ....|--- .... ....
 D-4|..|D-2 2ADF ....|G-1 6FFF ....|--- .... ....
....|..|G-1 2FDA ....|G-1 6FFA ....|--- .... ....
 G-4|..|G-2 2ADF ....|R-- .... ....|--- .... ....
....|..|D-2 2FDA ....|G-1 6FFA ....|--- .... ....
....|..|G-1 2FD7 ....|G-1 6FF7 ....|--- .... ....
....|..|G-2 2FDA ....|R-- .... ....|--- .... ....
....|..|D-2 2FD7 ....|G-2 6FFF ....|--- .... ....
....|..|R-- .... ....|--- .... ....|--- .... ....
....|..|G-2 2FD7 ....|G-2 6FFF ....|--- .... ....
....|..|--- .... ....|G-2 6FFA ....|--- .... ....
....|..|R-- .... ....|R-- .... ....|--- .... ....
....|..|--- .... ....|G-2 6FFA ....|--- .... ....
....|..|--- .... ....|G-2 6FF7 ....|--- .... ....
....|..|--- .... ....|R-- .... ....|--- .... ....
 A#3|..|A#1 2ADF ....|A#1 6FFF ....|--- .... ....
....|..|--- .... ....|--- .... ....|--- .... ....
 F-4|..|F-2 2ADF ....|A#1 6FFF ....|--- .... ....
....|..|A#1 2FDA ....|A#1 6FFA ....|--- .... ....
 A#3|..|A#2 2CDF ....|R-- .... ....|--- .... ....
....|..|F-2 2FDA ....|A#1 6FFA ....|--- .... ....
....|..|A#1 2FD7 ....|A#1 6FF7 ....|--- .... ....
....|..|A#2 2FDA ....|R-- .... ....|--- .... ....
....|..|F-2 2FD7 ....|A#2 6FFF ....|--- .... ....
....|..|R-- .... ....|--- .... ....|--- .... ....
....|..|A#2 2FD7 ....|A#2 6FFF ....|--- .... ....
....|..|--- .... ....|A#2 6FFA ....|--- .... ....
....|..|R-- .... ....|R-- .... ....|--- .... ....
....|..|--- .... ....|A#2 6FFA ....|--- .... ....
....|..|--- .... ....|A#2 6FF7 ....|--- .... ....
....|..|--- .... ....|R-- .... ....|--- .... ....
 C-4|..|C-2 2ADF ....|A#2 6FF7 ....|F-3 1FEF ....
....|..|--- .... ....|--- .... ....|--- .... ....
 G-4|..|G-2 2ADF ....|R-- .... ....|G-3 1FEF ....
....|..|C-2 2FDA ....|--- .... ....|F-3 1FEA ....
 C-3|..|C-3 2CDF ....|--- .... ....|R-- .... ....
....|..|G-2 2FDA ....|--- .... ....|G-3 1FEA ....
 G-4|..|G-2 2ADF ....|--- .... ....|F-3 1FE7 ....
....|..|C-3 2FDA ....|--- .... ....|R-- .... ....
 D#4|..|D#3 2CDF ....|--- .... ....|G-3 1FE7 ....
....|..|G-2 2FDA ....|--- .... ....|--- .... ....
 G-4|..|G-2 2ADF ....|--- .... ....|R-- .... ....
....|..|D#3 2FDA ....|--- .... ....|--- .... ....
 C-3|..|C-3 2CDF ....|--- .... ....|G-3 1FEF ....
....|..|G-2 2FDA ....|--- .... ....|F-3 1FEF ....
 G-4|..|G-2 2ADF ....|D-3 6FFF ....|R-- .... ....
....|..|C-3 2FDA ....|--- .... ....|G-3 1FEA ....
 C-4|..|C-2 2ADF ....|R-- .... ....|F-3 1FEF ....
....|..|G-2 2FDA ....|D-3 6FFA ....|R-- .... ....
 G-4|..|G-2 2ADF ....|--- .... ....|G-3 1FE7 ....
....|..|C-2 2FDA ....|R-- .... ....|F-3 1FE7 ....
 C-3|..|C-3 2CDF ....|D-3 6FF7 ....|R-- .... ....
....|..|G-2 2FDA ....|--- .... ....|--- .... ....
 G-4|..|G-2 2ADF ....|R-- .... ....|F-3 1FE7 ....
....|..|C-3 2FDA ....|--- .... ....|--- .... ....
 D#4|..|D#3 2CDF ....|A#2 6FFF ....|--- .... ....
....|..|G-2 2FDA ....|--- .... ....|R-- .... ....
 G-4|..|G-2 2ADF ....|--- .... ....|--- .... ....
....|..|D#3 2FDA ....|A#2 6FFA ....|--- .... ....
 C-3|..|C-3 2CDF ....|--- .... ....|R-- .... ....
....|..|G-2 2FDA ....|--- .... ....|--- .... ....
 G-4|..|G-2 2ADF ....|A#2 6FF7 ....|--- .... ....
....|..|C-3 2FDA ....|--- .... ....|--- .... ....

[Pattern1]
 G-3|..|G-1 2ADF ....|--- .... ....|--- .... ....
....|..|G-2 2FDA ....|R-- .... ....|--- .... ....
 D-4|..|D-2 2ADF ....|--- .... ....|--- .... ....
....|..|G-1 2FDA ....|--- .... ....|--- .... ....
 G-4|..|G-2 2ADF ....|D-3 6FFF ....|--- .... ....
....|..|D-2 2FDA ....|--- .... ....|--- .... ....
....|..|G-1 2FD7 ....|C-3 6FFF ....|--- .... ....
....|..|G-2 2FDA ....|D-3 6FFA ....|--- .... ....
 F-3|..|F-1 2ADF ....|R-- .... ....|--- .... ....
....|..|--- .... ....|C-3 6FFA ....|--- .... ....
 C-4|..|C-2 2ADF ....|D-3 6FF7 ....|--- .... ....
....|..|F-1 2FDA ....|R-- .... ....|--- .... ....
 F-4|..|F-2 2ADF ....|C-3 6FFF ....|--- .... ....
....|..|C-2 2FDA ....|--- .... ....|--- .... ....
....|..|F-1 2FD7 ....|A#2 6FFF ....|--- .... ....
....|..|F-2 2FDA ....|C-3 6FFA ....|--- .... ....
 D#3|..|D#1 2ADF ....|R-- .... ....|--- .... ....
....|..|--- .... ....|A#2 6FFA ....|--- .... ....
 A#3|..|A#1 2ADF ....|C-3 6FF7 ....|--- .... ....
....|..|D#1 2FDA ....|R-- .... ....|--- .... ....
 D#4|..|D#2 2ADF ....|A-2 6FFF ....|--- .... ....
....|..|A#1 2FDA ....|--- .... ....|--- .... ....
....|..|D#1 2FD7 ....|G-2 6FFF ....|--- .... ....
....|..|D#2 2FDA ....|A-2 6FFA ....|--- .... ....
 D-3|..|D-1 2ADF ....|R-- .... ....|--- .... ....
....|..|--- .... ....|G-2 6FFA ....|--- .... ....
 A-3|..|A-1 2ADF ....|A-2 6FF7 ....|--- .... ....
....|..|D-1 2FDA ....|R-- .... ....|--- .... ....
 D-4|..|D-2 2ADF ....|D-2 6FFF ....|--- .... ....
....|..|A-1 2FDA ....|--- .... ....|--- .... ....
....|..|D-1 2FD7 ....|C-2 6FFF ....|--- .... ....
....|..|D-2 2FDA ....|D-2 6FFA ....|--- .... ....
 C-3|..|C-1 2ADF ....|R-- .... ....|F-3 1FEF ....
....|..|--- .... ....|C-2 6FFA ....|--- .... ....
 G-3|..|G-1 2ADF ....|D-2 6FF7 ....|G-3 1FEF ....
....|..|C-1 2FDA ....|R-- .... ....|F-3 1FEA ....
 C-4|..|C-2 2ADF ....|C-2 6FF7 ....|R-- .... ....
....|..|G-1 2FDA ....|--- .... ....|G-3 1FEA ....
 G-3|..|G-1 2ADF ....|R-- .... ....|F-3 1FE7 ....
....|..|C-2 2FDA ....|--- .... ....|R-- .... ....
 D#4|..|D#2 2ADF ....|--- .... ....|G-3 1FE7 ....
....|..|G-1 2FDA ....|--- .... ....|--- .... ....
 G-3|..|G-1 2ADF ....|--- .... ....|R-- .... ....
....|..|D#2 2FDA ....|--- .... ....|--- .... ....
 C-4|..|C-2 2ADF ....|--- .... ....|G-3 1FEF ....
....|..|G-1 2FDA ....|--- .... ....|F-3 1FEF ....
 G-3|..|G-1 2ADF ....|D-3 6FFF ....|R-- .... ....
....|..|C-2 2FDA ....|--- .... ....|G-3 1FEA ....
 C-3|..|C-1 2ADF ....|R-- .... ....|F-3 1FEF ....
....|..|G-1 2FDA ....|D-3 6FFA ....|R-- .... ....
 G-3|..|G-1 2ADF ....|--- .... ....|G-3 1FE7 ....
....|..|C-1 2FDA ....|R-- .... ....|F-3 1FE7 ....
 C-4|..|C-2 2ADF ....|D-3 6FF7 ....|R-- .... ....
....|..|G-1 2FDA ....|--- .... ....|--- .... ....
 G-3|..|G-1 2ADF ....|R-- .... ....|F-3 1FE7 ....
....|..|C-2 2FDA ....|--- .... ....|--- .... ....
 D#4|..|D#2 2ADF ....|A#2 6FFF ....|--- .... ....
....|..|G-1 2FDA ....|--- .... ....|R-- .... ....
 G-3|..|G-1 2ADF ....|--- .... ....|--- .... ....
....|..|D#2 2FDA ....|A#2 6FFA ....|--- .... ....
 C-4|..|C-2 2ADF ....|--- .... ....|R-- .... ....
....|..|G-1 2FDA ....|--- .... ....|--- .... ....
 G-3|..|G-1 2ADF ....|A#2 6FF7 ....|--- .... ....
....|..|C-2 2FDA ....|--- .... ....|--- .... ....

[Pattern2]
 G-3|..|G-1 2ADF ....|G-1 6FFF ....|--- .... ....
....|..|G-1 2FDA ....|R-- .... ....|--- .... ....
 D-4|..|D-2 2ADF ....|G-1 6FFF ....|--- .... ....
....|..|G-1 2FDA ....|G-1 6FFA ....|--- .... ....
 G-4|..|G-2 2ADF ....|R-- .... ....|--- .... ....
....|..|D-2 2FDA ....|G-1 6FFA ....|--- .... ....
....|..|G-1 2FD7 ....|G-1 6FF7 ....|--- .... ....
....|..|G-2 2FDA ....|R-- .... ....|--- .... ....
....|..|D-2 2FD7 ....|G-2 6FFF ....|--- .... ....
....|..|R-- .... ....|--- .... ....|--- .... ....
....|..|G-2 2FD7 ....|G-2 6FFF ....|--- .... ....
....|..|--- .... ....|G-2 6FFA ....|--- .... ....
....|..|R-- .... ....|R-- .... ....|--- .... ....
....|..|--- .... ....|G-2 6FFA ....|--- .... ....
....|..|--- .... ....|G-2 6FF7 ....|--- .... ....
....|..|--- .... ....|R-- .... ....|--- .... ....
 A#3|..|A#1 2ADF ....|A#1 6FFF ....|--- .... ....
....|..|--- .... ....|--- .... ....|--- .... ....
 F-4|..|F-2 2ADF ....|A#1 6FFF ....|--- .... ....
....|..|A#1 2FDA ....|A#1 6FFA ....|--- .... ....
 A#3|..|A#2 2CDF ....|R-- .... ....|--- .... ....
....|..|F-2 2FDA ....|A#1 6FFA ....|--- .... ....
....|..|A#1 2FD7 ....|A#1 6FF7 ....|--- .... ....
....|..|A#2 2FDA ....|R-- .... ....|--- .... ....
....|..|F-2 2FD7 ....|A#2 6FFF ....|--- .... ....
....|..|R-- .... ....|--- .... ....|--- .... ....
....|..|A#2 2FD7 ....|A#2 6FFF ....|--- .... ....
....|..|--- .... ....|A#2 6FFA ....|--- .... ....
....|..|R-- .... ....|R-- .... ....|--- .... ....
....|..|--- .... ....|A#2 6FFA ....|--- .... ....
....|..|--- .... ....|A#2 6FF7 ....|--- .... ....
....|..|--- .... ....|R-- .... ....|--- .... ....
 C-4|..|C-2 2ADF ....|A#2 6FF7 ....|F-3 1FEF ....
....|..|--- .... ....|--- .... ....|--- .... ....
 G-4|..|G-2 2ADF ....|R-- .... ....|G-3 1FEF ....
....|..|C-2 2FDA ....|--- .... ....|F-3 1FEA ....
 C-3|..|C-3 2CDF ....|--- .... ....|R-- .... ....
....|..|G-2 2FDA ....|--- .... ....|G-3 1FEA ....
 G-4|..|G-2 2ADF ....|--- .... ....|F-3 1FE7 ....
....|..|C-3 2FDA ....|--- .... ....|R-- .... ....
 D#4|..|D#3 2CDF ....|--- .... ....|G-3 1FE7 ....
....|..|G-2 2FDA ....|--- .... ....|--- .... ....
 G-4|..|G-2 2ADF ....|--- .... ....|R-- .... ....
....|..|D#3 2FDA ....|--- .... ....|--- .... ....
 C-3|..|C-3 2CDF ....|--- .... ....|G-3 1FEF ....
....|..|G-2 2FDA ....|--- .... ....|F-3 1FEF ....
 G-4|..|G-2 2ADF ....|D-3 6FFF ....|R-- .... ....
....|..|C-3 2FDA ....|--- .... ....|G-3 1FEA ....
 C-4|..|C-2 2ADF ....|R-- .... ....|F-3 1FEF ....
....|..|G-2 2FDA ....|D-3 6FFA ....|R-- .... ....
 G-4|..|G-2 2ADF ....|--- .... ....|G-3 1FE7 ....
....|..|C-2 2FDA ....|R-- .... ....|F-3 1FE7 ....
 C-3|..|C-3 2CDF ....|D-3 6FF7 ....|R-- .... ....
....|..|G-2 2FDA ....|--- .... ....|--- .... ....
 G-4|..|G-2 2ADF ....|R-- .... ....|F-3 1FE7 ....
....|..|C-3 2FDA ....|--- .... ....|--- .... ....
 D#4|..|D#3 2CDF ....|A#2 6FFF ....|--- .... ....
....|..|G-2 2FDA ....|--- .... ....|R-- .... ....
 G-4|..|G-2 2ADF ....|--- .... ....|--- .... ....
....|..|D#3 2FDA ....|A#2 6FFA ....|--- .... ....
 C-3|..|C-3 2CDF ....|--- .... ....|R-- .... ....
....|..|G-2 2FDA ....|--- .... ....|--- .... ....
 G-4|..|G-2 2ADF ....|A#2 6FF7 ....|--- .... ....
....|..|C-3 2FDA ....|--- .... ....|--- .... ....

[Pattern3]
 G-3|..|G-1 2ADF ....|--- .... ....|--- .... ....
....|..|G-2 2FDA ....|R-- .... ....|--- .... ....
 D-4|..|D-2 2ADF ....|--- .... ....|--- .... ....
....|..|G-1 2FDA ....|--- .... ....|--- .... ....
 G-4|..|G-2 2ADF ....|G-2 6FFF ....|--- .... ....
....|..|D-2 2FDA ....|--- .... ....|--- .... ....
....|..|G-1 2FD7 ....|F-2 6FFF ....|--- .... ....
....|..|G-2 2FDA ....|G-2 6FFA ....|--- .... ....
 F-3|..|F-1 2ADF ....|R-- .... ....|--- .... ....
....|..|--- .... ....|F-2 6FFA ....|--- .... ....
 C-4|..|C-2 2ADF ....|G-2 6FF7 ....|--- .... ....
....|..|F-1 2FDA ....|R-- .... ....|--- .... ....
 F-4|..|F-2 2ADF ....|C-3 6FFF ....|--- .... ....
....|..|C-2 2FDA ....|--- .... ....|--- .... ....
....|..|F-1 2FD7 ....|A#2 6FFF ....|--- .... ....
....|..|F-2 2FDA ....|C-3 6FFA ....|--- .... ....
 D#3|..|D#1 2ADF ....|R-- .... ....|--- .... ....
....|..|--- .... ....|A#2 6FFA ....|--- .... ....
 A#3|..|A#1 2ADF ....|C-3 6FF7 ....|--- .... ....
....|..|D#1 2FDA ....|R-- .... ....|--- .... ....
 D#4|..|D#2 2ADF ....|D-3 6FFF ....|--- .... ....
....|..|A#1 2FDA ....|--- .... ....|--- .... ....
....|..|D#1 2FD7 ....|C-3 6FFF ....|--- .... ....
....|..|D#2 2FDA ....|D-3 6FFA ....|--- .... ....
 D-3|..|D-1 2ADF ....|R-- .... ....|--- .... ....
....|..|--- .... ....|C-3 6FFA ....|--- .... ....
 A-3|..|A-1 2ADF ....|D-3 6FF7 ....|--- .... ....
....|..|D-1 2FDA ....|R-- .... ....|--- .... ....
 D-4|..|D-2 2ADF ....|A-1 6FFF ....|--- .... ....
....|..|A-1 2FDA ....|--- .... ....|--- .... ....
....|..|D-1 2FD7 ....|G-1 6FFF ....|--- .... ....
....|..|D-2 2FDA ....|A-1 6FFA ....|--- .... ....
 C-3|..|C-1 2ADF ....|R-- .... ....|F-3 1FEF ....
....|..|--- .... ....|G-1 6FFA ....|--- .... ....
 G-3|..|G-1 2ADF ....|A-1 6FF7 ....|G-3 1FEF ....
....|..|C-1 2FDA ....|R-- .... ....|F-3 1FEA ....
 C-4|..|C-2 2ADF ....|G-1 6FF7 ....|R-- .... ....
....|..|G-1 2FDA ....|--- .... ....|G-3 1FEA ....
 G-3|..|G-1 2ADF ....|R-- .... ....|F-3 1FE7 ....
....|..|C-2 2FDA ....|--- .... ....|R-- .... ....
 D#4|..|D#2 2ADF ....|--- .... ....|G-3 1FE7 ....
....|..|G-1 2FDA ....|--- .... ....|--- .... ....
 G-3|..|G-1 2ADF ....|--- .... ....|R-- .... ....
....|..|D#2 2FDA ....|--- .... ....|--- .... ....
 C-4|..|C-2 2ADF ....|--- .... ....|G-3 1FEF ....
....|..|G-1 2FDA ....|--- .... ....|F-3 1FEF ....
 G-3|..|G-1 2ADF ....|D-3 6FFF ....|R-- .... ....
....|..|C-2 2FDA ....|--- .... ....|G-3 1FEA ....
 C-3|..|C-1 2ADF ....|R-- .... ....|F-3 1FEF ....
....|..|G-1 2FDA ....|D-3 6FFA ....|R-- .... ....
 G-3|..|G-1 2ADF ....|--- .... ....|G-3 1FE7 ....
....|..|C-1 2FDA ....|R-- .... ....|F-3 1FE7 ....
 C-4|..|C-2 2ADF ....|D-3 6FF7 ....|R-- .... ....
....|..|G-1 2FDA ....|--- .... ....|--- .... ....
 G-3|..|G-1 2ADF ....|R-- .... ....|F-3 1FE7 ....
....|..|C-2 2FDA ....|--- .... ....|--- .... ....
 D#4|..|D#2 2ADF ....|A#2 6FFF ....|--- .... ....
....|..|G-1 2FDA ....|--- .... ....|R-- .... ....
 G-3|..|G-1 2ADF ....|--- .... ....|--- .... ....
....|..|D#2 2FDA ....|A#2 6FFA ....|--- .... ....
 C-4|..|C-2 2ADF ....|--- .... ....|R-- .... ....
....|..|G-1 2FDA ....|--- .... ....|--- .... ....
 G-3|..|G-1 2ADF ....|A#2 6FF7 ....|--- .... ....
....|..|C-2 2FDA ....|--- .... ....|--- .... ....

[Pattern5]
 G-3|..|G-1 2ADF ....|--- .... ....|--- .... ....
....|..|G-2 2FDA ....|R-- .... ....|--- .... ....
 D-4|..|D-2 2ADF ....|--- .... ....|--- .... ....
....|..|G-1 2FDA ....|--- .... ....|--- .... ....
 G-4|..|G-2 2ADF ....|D-3 6FFF ....|--- .... ....
....|..|D-2 2FDA ....|--- .... ....|--- .... ....
....|..|G-1 2FD7 ....|C-3 6FFF ....|--- .... ....
....|..|G-2 2FDA ....|D-3 6FFA ....|--- .... ....
 F-3|..|F-1 2ADF ....|R-- .... ....|--- .... ....
....|..|--- .... ....|C-3 6FFA ....|--- .... ....
 C-4|..|C-2 2ADF ....|D-3 6FF7 ....|--- .... ....
....|..|F-1 2FDA ....|R-- .... ....|--- .... ....
 F-4|..|F-2 2ADF ....|C-3 6FFF ....|--- .... ....
....|..|C-2 2FDA ....|--- .... ....|--- .... ....
....|..|F-1 2FD7 ....|A#2 6FFF ....|--- .... ....
....|..|F-2 2FDA ....|C-3 6FFA ....|--- .... ....
 D#3|..|D#1 2ADF ....|R-- .... ....|--- .... ....
....|..|--- .... ....|A#2 6FFA ....|--- .... ....
 A#3|..|A#1 2ADF ....|C-3 6FF7 ....|--- .... ....
....|..|D#1 2FDA ....|R-- .... ....|--- .... ....
 D#4|..|D#2 2ADF ....|A-2 6FFF ....|--- .... ....
....|..|A#1 2FDA ....|--- .... ....|--- .... ....
....|..|D#1 2FD7 ....|G-2 6FFF ....|--- .... ....
....|..|D#2 2FDA ....|A-2 6FFA ....|--- .... ....
 D-3|..|D-1 2ADF ....|R-- .... ....|--- .... ....
....|..|--- .... ....|G-2 6FFA ....|--- .... ....
 A-3|..|A-1 2ADF ....|A-2 6FF7 ....|--- .... ....
....|..|D-1 2FDA ....|R-- .... ....|--- .... ....
 D-4|..|D-2 2ADF ....|D-2 6FFF ....|--- .... ....
....|..|A-1 2FDA ....|--- .... ....|--- .... ....
....|..|D-1 2FD7 ....|C-2 6FFF ....|--- .... ....
....|..|D-2 2FDA ....|D-2 6FFA ....|--- .... ....
 C-4|..|C-2 2ADF ....|D-3 6FFF ....|G-3 1FEF ....
....|..|--- .... ....|C-2 6FFA ....|--- .... ....
....|..|D-2 2FD7 ....|C-3 6FFF ....|F-3 1FEF ....
....|..|C-2 2FDA ....|D-3 6FFA ....|G-3 1FEA ....
 C-4|..|C-2 2ADF ....|D-3 6FFF ....|G-3 1FEF ....
....|..|--- .... ....|C-3 6FFA ....|F-3 1FEA ....
....|..|C-2 2FD7 ....|C-3 6FFF ....|F-3 1FEF ....
....|..|C-2 2FDA ....|D-3 6FFA ....|G-3 1FEA ....
 C-4|..|C-2 2ADF ....|D-3 6FFF ....|G-3 1FEF ....
....|..|--- .... ....|C-3 6FFA ....|F-3 1FEA ....
....|..|C-2 2FD7 ....|C-3 6FFF ....|F-3 1FEF ....
....|..|C-2 2FDA ....|D-3 6FFA ....|G-3 1FEA ....
 C-4|..|C-2 2ADF ....|D-3 6FFF ....|G-3 1FEF ....
....|..|--- .... ....|C-3 6FFA ....|F-3 1FEA ....
....|..|C-2 2FD7 ....|C-3 6FFF ....|F-3 1FEF ....
....|..|C-2 2FDA ....|D-3 6FFA ....|G-3 1FEA ....
 C-4|..|C-2 2ADF ....|D-3 6FFF ....|G-3 1FEF ....
....|..|--- .... ....|C-3 6FFA ....|F-3 1FEA ....
....|..|C-2 2FD7 ....|C-3 6FFF ....|F-3 1FEF ....
....|..|C-2 2FDA ....|D-3 6FFA ....|G-3 1FEA ....
 C-4|..|C-2 2ADF ....|D-3 6FFF ....|G-3 1FEF ....
....|..|--- .... ....|C-3 6FFA ....|F-3 1FEA ....
....|..|C-2 2FD7 ....|C-3 6FFF ....|F-3 1FEF ....
....|..|C-2 2FDA ....|D-3 6FFA ....|G-3 1FEA ....
 F-3|..|F-1 2ADF ....|C-3 6FF7 ....|F-3 1FE7 ....
....|..|--- .... ....|C-3 6FFA ....|F-3 1FEA ....
 G-3|..|G-1 2ADF ....|D-3 6FF7 ....|G-3 1FE7 ....
....|..|F-1 2FDA ....|R-- .... ....|R-- .... ....
 D-3|..|D-1 2ADF ....|C-3 6FF7 ....|F-3 1FE7 ....
....|..|G-1 2FDA ....|--- .... ....|--- .... ....
 F-3|..|F-1 2ADF ....|R-- .... ....|R-- .... ....
....|..|D-1 2FDA ....|--- .... ....|--- .... ....

[Pattern6]
 G-3|..|G-1 2ADF ....|G-1 6FFF ....|--- .... ....
....|..|F-1 2FDA ....|--- .... ....|--- .... ....
 D-4|..|D-2 2ADF ....|G-1 6FFF ....|--- .... ....
....|..|G-1 2FDA ....|G-1 6FFA ....|--- .... ....
 G-4|..|G-2 2ADF ....|D-3 6FFF ....|--- .... ....
....|..|D-2 2FDA ....|G-1 6FFA ....|--- .... ....
....|..|G-1 2FD7 ....|C-3 6FFF ....|--- .... ....
....|..|G-2 2FDA ....|D-3 6FFA ....|--- .... ....
 F-3|..|F-1 2ADF ....|G-2 6FFF ....|--- .... ....
....|..|--- .... ....|C-3 6FFA ....|--- .... ....
 C-4|..|C-2 2ADF ....|G-2 6FFF ....|--- .... ....
....|..|F-1 2FDA ....|G-2 6FFA ....|--- .... ....
 F-4|..|F-2 2ADF ....|C-3 6FFF ....|--- .... ....
....|..|C-2 2FDA ....|G-2 6FFA ....|--- .... ....
....|..|F-1 2FD7 ....|A#2 6FFF ....|--- .... ....
....|..|F-2 2FDA ....|C-3 6FFA ....|--- .... ....
 D#3|..|D#1 2ADF ....|A#1 6FFF ....|--- .... ....
....|..|--- .... ....|A#2 6FFA ....|--- .... ....
 A#3|..|A#1 2ADF ....|A#1 6FFF ....|--- .... ....
....|..|D#1 2FDA ....|A#1 6FFA ....|--- .... ....
 D#4|..|D#2 2ADF ....|A-2 6FFF ....|--- .... ....
....|..|A#1 2FDA ....|A#1 6FFA ....|--- .... ....
....|..|D#1 2FD7 ....|G-2 6FFF ....|--- .... ....
....|..|D#2 2FDA ....|A-2 6FFA ....|--- .... ....
 D-3|..|D-1 2ADF ....|A#2 6FFF ....|--- .... ....
....|..|--- .... ....|G-2 6FFA ....|--- .... ....
 A-3|..|A-1 2ADF ....|A#2 6FFF ....|--- .... ....
....|..|D-1 2FDA ....|A#2 6FFA ....|--- .... ....
 D-4|..|D-2 2ADF ....|D-2 6FFF ....|--- .... ....
....|..|A-1 2FDA ....|A#2 6FFA ....|--- .... ....
....|..|D-1 2FD7 ....|C-2 6FFF ....|--- .... ....
....|..|D-2 2FDA ....|D-2 6FFA ....|--- .... ....
 C-3|..|C-1 2ADF ....|A#2 6FF7 ....|F-3 1FEF ....
....|..|--- .... ....|C-2 6FFA ....|--- .... ....
 G-3|..|G-1 2ADF ....|D-2 6FF7 ....|G-3 1FEF ....
....|..|C-1 2FDA ....|R-- .... ....|F-3 1FEA ....
 C-4|..|C-2 2ADF ....|C-2 6FF7 ....|R-- .... ....
....|..|G-1 2FDA ....|--- .... ....|G-3 1FEA ....
 G-3|..|G-1 2ADF ....|R-- .... ....|F-3 1FE7 ....
....|..|C-2 2FDA ....|--- .... ....|R-- .... ....
 D#4|..|D#2 2ADF ....|--- .... ....|G-3 1FE7 ....
....|..|G-1 2FDA ....|--- .... ....|--- .... ....
 G-3|..|G-1 2ADF ....|--- .... ....|R-- .... ....
....|..|D#2 2FDA ....|--- .... ....|--- .... ....
 C-4|..|C-2 2ADF ....|--- .... ....|G-3 1FEF ....
....|..|G-1 2FDA ....|--- .... ....|F-3 1FEF ....
 G-3|..|G-1 2ADF ....|D-3 6FFF ....|R-- .... ....
....|..|C-2 2FDA ....|--- .... ....|G-3 1FEA ....
 C-3|..|C-1 2ADF ....|R-- .... ....|F-3 1FEF ....
....|..|G-1 2FDA ....|D-3 6FFA ....|R-- .... ....
 G-3|..|G-1 2ADF ....|--- .... ....|G-3 1FE7 ....
....|..|C-1 2FDA ....|R-- .... ....|F-3 1FE7 ....
 C-4|..|C-2 2ADF ....|D-3 6FF7 ....|R-- .... ....
....|..|G-1 2FDA ....|--- .... ....|--- .... ....
 G-3|..|G-1 2ADF ....|R-- .... ....|F-3 1FE7 ....
....|..|C-2 2FDA ....|--- .... ....|--- .... ....
 D#4|..|D#2 2ADF ....|A#2 6FFF ....|--- .... ....
....|..|G-1 2FDA ....|--- .... ....|R-- .... ....
 G-3|..|G-1 2ADF ....|--- .... ....|--- .... ....
....|..|D#2 2FDA ....|A#2 6FFA ....|--- .... ....
 C-4|..|C-2 2ADF ....|--- .... ....|R-- .... ....
....|..|G-1 2FDA ....|--- .... ....|--- .... ....
 G-3|..|G-1 2ADF ....|A#2 6FF7 ....|--- .... ....
....|..|C-2 2FDA ....|--- .... ....|--- .... ....

[Pattern7]
 G-3|..|G-1 2ADF ....|G-1 6FFF ....|--- .... ....
....|..|G-1 2FDA ....|R-- .... ....|--- .... ....
 D-4|..|D-2 2ADF ....|G-1 6FFF ....|--- .... ....
....|..|G-1 2FDA ....|G-1 6FFA ....|--- .... ....
 G-4|..|G-2 2ADF ....|G-2 6FFF ....|--- .... ....
....|..|D-2 2FDA ....|G-1 6FFA ....|--- .... ....
....|..|G-1 2FD7 ....|F-2 6FFF ....|--- .... ....
....|..|G-2 2FDA ....|G-2 6FFA ....|--- .... ....
 F-3|..|F-1 2ADF ....|G-2 6FFF ....|--- .... ....
....|..|--- .... ....|F-2 6FFA ....|--- .... ....
 C-4|..|C-2 2ADF ....|G-2 6FFF ....|--- .... ....
....|..|F-1 2FDA ....|G-2 6FFA ....|--- .... ....
 F-4|..|F-2 2ADF ....|A#2 6FFF ....|--- .... ....
....|..|C-2 2FDA ....|G-2 6FFA ....|--- .... ....
....|..|F-1 2FD7 ....|A#2 6FFF ....|--- .... ....
....|..|F-2 2FDA ....|A#2 6FFA ....|--- .... ....
 D#3|..|D#1 2ADF ....|A#1 6FFF ....|--- .... ....
....|..|--- .... ....|A#2 6FFA ....|--- .... ....
 A#3|..|A#1 2ADF ....|A#1 6FFF ....|--- .... ....
....|..|D#1 2FDA ....|A#1 6FFA ....|--- .... ....
 D#4|..|D#2 2ADF ....|D-3 6FFF ....|--- .... ....
....|..|A#1 2FDA ....|A#1 6FFA ....|--- .... ....
....|..|D#1 2FD7 ....|C-3 6FFF ....|--- .... ....
....|..|D#2 2FDA ....|D-3 6FFA ....|--- .... ....
 D-3|..|D-1 2ADF ....|A#2 6FFF ....|--- .... ....
....|..|--- .... ....|C-3 6FFA ....|--- .... ....
 A-3|..|A-1 2ADF ....|A#2 6FFF ....|--- .... ....
....|..|D-1 2FDA ....|A#2 6FFA ....|--- .... ....
 D-4|..|D-2 2ADF ....|A-1 6FFF ....|--- .... ....
....|..|A-1 2FDA ....|A#2 6FFA ....|--- .... ....
....|..|D-1 2FD7 ....|G-1 6FFF ....|--- .... ....
....|..|D-2 2FDA ....|A-1 6FFA ....|--- .... ....
 C-3|..|C-1 2ADF ....|A#2 6FF7 ....|F-3 1FEF ....
....|..|--- .... ....|G-1 6FFA ....|--- .... ....
 G-3|..|G-1 2ADF ....|A-1 6FF7 ....|G-3 1FEF ....
....|..|C-1 2FDA ....|R-- .... ....|F-3 1FEA ....
 C-4|..|C-2 2ADF ....|G-1 6FF7 ....|R-- .... ....
....|..|G-1 2FDA ....|--- .... ....|G-3 1FEA ....
 G-3|..|G-1 2ADF ....|R-- .... ....|F-3 1FE7 ....
....|..|C-2 2FDA ....|--- .... ....|R-- .... ....
 D#4|..|D#2 2ADF ....|--- .... ....|G-3 1FE7 ....
....|..|G-1 2FDA ....|--- .... ....|--- .... ....
 G-3|..|G-1 2ADF ....|--- .... ....|R-- .... ....
....|..|D#2 2FDA ....|--- .... ....|--- .... ....
 C-4|..|C-2 2ADF ....|--- .... ....|G-3 1FEF ....
....|..|G-1 2FDA ....|--- .... ....|F-3 1FEF ....
 G-3|..|G-1 2ADF ....|D-3 6FFF ....|R-- .... ....
....|..|C-2 2FDA ....|--- .... ....|G-3 1FEA ....
 C-3|..|C-1 2ADF ....|R-- .... ....|F-3 1FEF ....
....|..|G-1 2FDA ....|D-3 6FFA ....|R-- .... ....
 G-3|..|G-1 2ADF ....|--- .... ....|G-3 1FE7 ....
....|..|C-1 2FDA ....|R-- .... ....|F-3 1FE7 ....
 C-4|..|C-2 2ADF ....|D-3 6FF7 ....|R-- .... ....
....|..|G-1 2FDA ....|--- .... ....|--- .... ....
 G-3|..|G-1 2ADF ....|R-- .... ....|F-3 1FE7 ....
....|..|C-2 2FDA ....|--- .... ....|--- .... ....
 D#4|..|D#2 2ADF ....|A#2 6FFF ....|--- .... ....
....|..|G-1 2FDA ....|--- .... ....|R-- .... ....
 G-3|..|G-1 2ADF ....|--- .... ....|--- .... ....
....|..|D#2 2FDA ....|A#2 6FFA ....|--- .... ....
 C-4|..|C-2 2ADF ....|--- .... ....|R-- .... ....
....|..|G-1 2FDA ....|--- .... ....|--- .... ....
 G-3|..|G-1 2ADF ....|A#2 6FF7 ....|--- .... ....
....|..|C-2 2FDA ....|--- .... ....|--- .... ....

[Pattern8]
 G-3|..|G-1 2ADF ....|G-1 6FFF ....|--- .... ....
....|..|G-1 2FDA ....|R-- .... ....|--- .... ....
 D-4|..|D-2 2ADF ....|G-1 6FFF ....|--- .... ....
....|..|G-1 2FDA ....|G-1 6FFA ....|--- .... ....
 G-4|..|G-2 2ADF ....|D-3 6FFF ....|--- .... ....
....|..|D-2 2FDA ....|G-1 6FFA ....|--- .... ....
....|..|G-1 2FD7 ....|C-3 6FFF ....|--- .... ....
....|..|G-2 2FDA ....|D-3 6FFA ....|--- .... ....
 F-3|..|F-1 2ADF ....|G-2 6FFF ....|--- .... ....
....|..|--- .... ....|C-3 6FFA ....|--- .... ....
 C-4|..|C-2 2ADF ....|G-2 6FFF ....|--- .... ....
....|..|F-1 2FDA ....|G-2 6FFA ....|--- .... ....
 F-4|..|F-2 2ADF ....|C-3 6FFF ....|--- .... ....
....|..|C-2 2FDA ....|G-2 6FFA ....|--- .... ....
....|..|F-1 2FD7 ....|A#2 6FFF ....|--- .... ....
....|..|F-2 2FDA ....|C-3 6FFA ....|--- .... ....
 D#3|..|D#1 2ADF ....|A#1 6FFF ....|--- .... ....
....|..|--- .... ....|A#2 6FFA ....|--- .... ....
 A#3|..|A#1 2ADF ....|A#1 6FFF ....|--- .... ....
....|..|D#1 2FDA ....|A#1 6FFA ....|--- .... ....
 D#4|..|D#2 2ADF ....|A-2 6FFF ....|--- .... ....
....|..|A#1 2FDA ....|A#1 6FFA ....|--- .... ....
....|..|D#1 2FD7 ....|G-2 6FFF ....|--- .... ....
....|..|D#2 2FDA ....|A-2 6FFA ....|--- .... ....
 D-3|..|D-1 2ADF ....|A#2 6FFF ....|--- .... ....
....|..|--- .... ....|G-2 6FFA ....|--- .... ....
 A-3|..|A-1 2ADF ....|A#2 6FFF ....|--- .... ....
....|..|D-1 2FDA ....|A#2 6FFA ....|--- .... ....
 D-4|..|D-2 2ADF ....|D-2 6FFF ....|--- .... ....
....|..|A-1 2FDA ....|A#2 6FFA ....|--- .... ....
....|..|D-1 2FD7 ....|C-2 6FFF ....|--- .... ....
....|..|D-2 2FDA ....|D-2 6FFA ....|--- .... ....
 C-4|..|C-2 2ADF ....|G-1 6FFF ....|--- .... ....
....|..|--- .... ....|C-2 6FFA ....|--- .... ....
....|..|D-2 2FD7 ....|A#1 6FFF ....|--- .... ....
....|..|C-2 2FDA ....|G-1 6FFA ....|--- .... ....
 C-4|..|C-2 2ADF ....|C-2 6FFF ....|--- .... ....
....|..|--- .... ....|A#1 6FFA ....|--- .... ....
....|..|C-2 2FD7 ....|A#1 6FFF ....|--- .... ....
....|..|C-2 2FDA ....|C-2 6FFA ....|--- .... ....
 C-4|..|C-2 2ADF ....|G-2 6FFF ....|--- .... ....
....|..|--- .... ....|A#1 6FFA ....|--- .... ....
....|..|C-2 2FD7 ....|A#2 6FFF ....|--- .... ....
....|..|C-2 2FDA ....|G-2 6FFA ....|--- .... ....
 C-4|..|C-2 2ADF ....|C-3 6FFF ....|--- .... ....
....|..|--- .... ....|A#2 6FFA ....|--- .... ....
....|..|C-2 2FD7 ....|A#2 6FFF ....|--- .... ....
....|..|C-2 2FDA ....|C-3 6FFA ....|--- .... ....
 C-4|..|C-2 2ADF ....|D-3 6FFF ....|--- .... ....
....|..|--- .... ....|A#2 6FFA ....|--- .... ....
....|..|C-2 2FD7 ....|C-3 6FFF ....|--- .... ....
....|..|C-2 2FDA ....|D-3 6FFA ....|--- .... ....
 C-4|..|C-2 2ADF ....|A#2 6FFF ....|--- .... ....
....|..|--- .... ....|C-3 6FFA ....|--- .... ....
....|..|C-2 2FD7 ....|G-2 6FFF ....|--- .... ....
....|..|C-2 2FDA ....|A#2 6FFA ....|--- .... ....
 C-4|..|C-2 2ADF ....|F-2 6FFF ....|--- .... ....
....|..|--- .... ....|G-2 6FFA ....|--- .... ....
....|..|C-2 2FD7 ....|G-2 6FFF ....|--- .... ....
....|..|C-2 2FDA ....|F-2 6FFA ....|--- .... ....
 C-4|..|C-2 2ADF ....|A#2 6FFF ....|--- .... ....
....|..|--- .... ....|G-2 6FFA ....|--- .... ....
....|..|C-2 2FD7 ....|G-2 6FFF ....|--- .... ....
....|..|C-2 2FDA ....|A#2 6FFA ....|--- .... ....

[Pattern9]
 G-4|..|G-2 2ADF ....|G-1 6FFF ....|--- .... ....
....|..|--- .... ....|G-2 6FFA ....|--- .... ....
....|..|C-2 2FD7 ....|A#1 6FFF ....|--- .... ....
....|..|G-2 2FDA ....|G-1 6FFA ....|--- .... ....
 G-4|..|G-2 2ADF ....|G-2 6FFF ....|--- .... ....
....|..|R-- .... ....|A#1 6FFA ....|--- .... ....
....|..|G-2 2FD7 ....|A#2 6FFF ....|--- .... ....
....|..|G-2 2FDA ....|G-2 6FFA ....|--- .... ....
 G-4|..|G-2 2ADF ....|D-3 6FFF ....|--- .... ....
....|..|R-- .... ....|A#2 6FFA ....|--- .... ....
....|..|G-2 2FD7 ....|A#2 6FFF ....|--- .... ....
....|..|G-2 2FDA ....|D-3 6FFA ....|--- .... ....
 G-4|..|G-2 2ADF ....|G-2 6FFF ....|--- .... ....
....|..|R-- .... ....|A#2 6FFA ....|--- .... ....
....|..|G-2 2FD7 ....|A#2 6FFF ....|--- .... ....
....|..|G-2 2FDA ....|G-2 6FFA ....|--- .... ....
 F-4|..|F-2 2ADF ....|F-1 6FFF ....|--- .... ....
....|..|R-- .... ....|A#2 6FFA ....|--- .... ....
....|..|G-2 2FD7 ....|F-2 6FFF ....|--- .... ....
....|..|F-2 2FDA ....|F-1 6FFA ....|--- .... ....
 F-4|..|F-2 2ADF ....|A#2 6FFF ....|--- .... ....
....|..|R-- .... ....|F-2 6FFA ....|--- .... ....
....|..|F-2 2FD7 ....|F-2 6FFF ....|--- .... ....
....|..|F-2 2FDA ....|A#2 6FFA ....|--- .... ....
 F-4|..|F-2 2ADF ....|C-3 6FFF ....|--- .... ....
....|..|R-- .... ....|F-2 6FFA ....|--- .... ....
....|..|F-2 2FD7 ....|A#2 6FFF ....|--- .... ....
....|..|F-2 2FDA ....|C-3 6FFA ....|--- .... ....
 F-4|..|F-2 2ADF ....|A-2 6FFF ....|--- .... ....
....|..|R-- .... ....|A#2 6FFA ....|--- .... ....
....|..|F-2 2FD7 ....|A#2 6FFF ....|--- .... ....
....|..|F-2 2FDA ....|A-2 6FFA ....|--- .... ....
 E-4|..|E-2 2ADF ....|E-1 6FFF ....|--- .... ....
....|..|R-- .... ....|A#2 6FFA ....|--- .... ....
....|..|F-2 2FD7 ....|E-2 6FFF ....|--- .... ....
....|..|E-2 2FDA ....|E-1 6FFA ....|--- .... ....
 E-4|..|E-2 2ADF ....|G-2 6FFF ....|--- .... ....
....|..|R-- .... ....|E-2 6FFA ....|--- .... ....
....|..|E-2 2FD7 ....|E-2 6FFF ....|--- .... ....
....|..|E-2 2FDA ....|G-2 6FFA ....|--- .... ....
 E-4|..|E-2 2ADF ....|C-3 6FFF ....|C-4 1FEF ....
....|..|R-- .... ....|E-2 6FFA ....|--- .... ....
....|..|E-2 2FD7 ....|A#2 6FFF ....|A#3 1FEF ....
....|..|E-2 2FDA ....|C-3 6FFA ....|C-4 1FEA ....
 E-4|..|E-2 2ADF ....|G-2 6FFF ....|G-3 1FEF ....
....|..|--- .... ....|A#2 6FFA ....|A#3 1FEA ....
....|..|E-2 2FD7 ....|E-2 6FFF ....|E-3 1FEF ....
....|..|E-2 2FDA ....|G-2 6FFA ....|G-3 1FEA ....
 D#4|..|D#2 2ADF ....|D#2 6FFF ....|A#3 1FE7 ....
....|..|--- .... ....|E-2 6FFA ....|E-3 1FEA ....
....|..|E-2 2FD7 ....|D#2 6FFF ....|G-3 1FE7 ....
....|..|D#2 2FDA ....|D#2 6FFA ....|R-- .... ....
 D#4|..|D#2 2ADF ....|G-2 6FFF ....|G-3 1FEF ....
....|..|--- .... ....|D#2 6FFA ....|--- .... ....
....|..|D#2 2FD7 ....|A#2 6FFF ....|A#3 1FEF ....
....|..|D#2 2FDA ....|G-2 6FFA ....|G-3 1FEA ....
 G-4|..|G-2 2ADF ....|G-1 6FFF ....|R-- .... ....
....|..|--- .... ....|A#2 6FFA ....|A#3 1FEA ....
 G-4|..|G-2 2ADF ....|G-1 6FFF ....|G-3 1FE7 ....
....|..|G-2 2FDA ....|G-1 6FFA ....|R-- .... ....
 G-4|..|G-2 2ADF ....|G-1 6FFF ....|A#3 1FE7 ....
....|..|G-2 2FDA ....|G-1 6FFA ....|--- .... ....
 G-4|..|G-2 2ADF ....|G-1 6FFF ....|R-- .... ....
....|..|G-2 2FDA ....|G-1 6FFA ....|--- .... ....

[Pattern10]
 G-4|..|G-2 2ADF ....|G-1 6FFF ....|--- .... ....
....|..|G-2 2FDA ....|G-1 6FFA ....|--- .... ....
....|..|G-2 2FD7 ....|A#1 6FFF ....|--- .... ....
....|..|G-2 2FDA ....|G-1 6FFA ....|--- .... ....
 G-4|..|G-2 2ADF ....|G-2 6FFF ....|--- .... ....
....|..|--- .... ....|A#1 6FFA ....|--- .... ....
....|..|G-2 2FD7 ....|A#2 6FFF ....|--- .... ....
....|..|G-2 2FDA ....|G-2 6FFA ....|--- .... ....
 G-4|..|G-2 2ADF ....|D-3 6FFF ....|--- .... ....
....|..|--- .... ....|A#2 6FFA ....|--- .... ....
....|..|G-2 2FD7 ....|A#2 6FFF ....|--- .... ....
....|..|G-2 2FDA ....|D-3 6FFA ....|--- .... ....
 G-4|..|G-2 2ADF ....|G-2 6FFF ....|--- .... ....
....|..|--- .... ....|A#2 6FFA ....|--- .... ....
....|..|G-2 2FD7 ....|A#2 6FFF ....|--- .... ....
....|..|G-2 2FDA ....|G-2 6FFA ....|--- .... ....
 F-4|..|F-2 2ADF ....|F-1 6FFF ....|--- .... ....
....|..|--- .... ....|A#2 6FFA ....|--- .... ....
....|..|G-2 2FD7 ....|F-2 6FFF ....|--- .... ....
....|..|F-2 2FDA ....|F-1 6FFA ....|--- .... ....
 F-4|..|F-2 2ADF ....|A#2 6FFF ....|--- .... ....
....|..|--- .... ....|F-2 6FFA ....|--- .... ....
....|..|F-2 2FD7 ....|F-2 6FFF ....|--- .... ....
....|..|F-2 2FDA ....|A#2 6FFA ....|--- .... ....
 F-4|..|F-2 2ADF ....|C-3 6FFF ....|--- .... ....
....|..|--- .... ....|F-2 6FFA ....|--- .... ....
....|..|F-2 2FD7 ....|A#2 6FFF ....|--- .... ....
....|..|F-2 2FDA ....|C-3 6FFA ....|--- .... ....
 F-4|..|F-2 2ADF ....|A-2 6FFF ....|--- .... ....
....|..|--- .... ....|A#2 6FFA ....|--- .... ....
....|..|F-2 2FD7 ....|A#2 6FFF ....|--- .... ....
....|..|F-2 2FDA ....|A-2 6FFA ....|--- .... ....
 E-4|..|E-2 2ADF ....|A#2 6FFF ....|A#3 1FEF ....
....|..|--- .... ....|A#2 6FFA ....|--- .... ....
....|..|F-2 2FD7 ....|A#2 6FFF ....|A#3 1FEF ....
....|..|E-2 2FDA ....|A#2 6FFA ....|A#3 1FEA ....
 E-4|..|E-2 2ADF ....|G-2 6FFF ....|G-3 1FEF ....
....|..|--- .... ....|A#2 6FFA ....|A#3 1FEA ....
....|..|E-2 2FD7 ....|G-2 6FFF ....|G-3 1FEF ....
....|..|E-2 2FDA ....|G-2 6FFA ....|G-3 1FEA ....
 E-4|..|E-2 2ADF ....|A#2 6FFF ....|A#3 1FE7 ....
....|..|--- .... ....|G-2 6FFA ....|G-3 1FEA ....
....|..|E-2 2FD7 ....|A#2 6FFF ....|G-3 1FE7 ....
....|..|E-2 2FDA ....|A#2 6FFA ....|R-- .... ....
 E-4|..|E-2 2ADF ....|G-2 6FFF ....|G-3 1FE7 ....
....|..|--- .... ....|A#2 6FFA ....|--- .... ....
....|..|E-2 2FD7 ....|G-2 6FFF ....|R-- .... ....
....|..|E-2 2FDA ....|G-2 6FFA ....|--- .... ....
 D#4|..|D#2 2ADF ....|A#2 6FFF ....|A#3 1FEF ....
....|..|--- .... ....|G-2 6FFA ....|--- .... ....
....|..|E-2 2FD7 ....|A#2 6FFF ....|A#3 1FEF ....
....|..|D#2 2FDA ....|A#2 6FFA ....|A#3 1FEA ....
....|..|--- .... ....|G-2 6FFF ....|G-3 1FEF ....
....|..|--- .... ....|A#2 6FFA ....|A#3 1FEA ....
....|..|D#2 2FD7 ....|G-2 6FFF ....|G-3 1FEF ....
....|..|--- .... ....|G-2 6FFA ....|G-3 1FEA ....
 D-4|..|D-2 2ADF ....|A#2 6FFF ....|A#3 1FEF ....
....|..|--- .... ....|G-2 6FFA ....|G-3 1FEA ....
....|..|--- .... ....|A#2 6FFF ....|A#3 1FEF ....
....|..|D-2 2FDA ....|A#2 6FFA ....|A#3 1FEA ....
....|..|--- .... ....|G-2 6FFF ....|G-3 1FEF ....
....|..|--- .... ....|A#2 6FFA ....|A#3 1FEA ....
....|..|D-2 2FD7 ....|G-2 6FFF ....|G-3 1FEF ....
....|..|--- .... ....|G-2 6FFA ....|G-3 1FEA ....

[Pattern11]
 G-3|..|G-1 2ADF ....|G-1 6FFF ....|A#3 1FE7 ....
....|..|--- .... ....|G-2 6FFA ....|G-3 1FEA ....
 D-4|..|D-2 2ADF ....|A#1 6FFF ....|G-3 1FE7 ....
....|..|G-1 2FDA ....|G-1 6FFA ....|R-- .... ....
 G-4|..|G-2 2ADF ....|G-2 6FFF ....|G-3 1FE7 ....
....|..|D-2 2FDA ....|A#1 6FFA ....|--- .... ....
 D-4|..|D-2 2ADF ....|A#2 6FFF ....|R-- .... ....
....|..|G-2 2FDA ....|G-2 6FFA ....|--- .... ....
 A#3|..|A#2 2CDF ....|D-3 6FFF ....|--- .... ....
....|..|D-2 2FDA ....|A#2 6FFA ....|--- .... ....
 D-4|..|D-2 2ADF ....|A#2 6FFF ....|--- .... ....
....|..|A#2 2FDA ....|D-3 6FFA ....|--- .... ....
 G-4|..|G-2 2ADF ....|G-2 6FFF ....|--- .... ....
....|..|D-2 2FDA ....|A#2 6FFA ....|--- .... ....
 D-4|..|D-2 2ADF ....|A#2 6FFF ....|--- .... ....
....|..|G-2 2FDA ....|G-2 6FFA ....|--- .... ....
 F-3|..|F-1 2ADF ....|F-1 6FFF ....|--- .... ....
....|..|D-2 2FDA ....|A#2 6FFA ....|--- .... ....
 C-4|..|C-2 2ADF ....|F-2 6FFF ....|--- .... ....
....|..|F-1 2FDA ....|F-1 6FFA ....|--- .... ....
 F-4|..|F-2 2ADF ....|A#2 6FFF ....|--- .... ....
....|..|C-2 2FDA ....|F-2 6FFA ....|--- .... ....
 C-4|..|C-2 2ADF ....|F-2 6FFF ....|--- .... ....
....|..|F-2 2FDA ....|A#2 6FFA ....|--- .... ....
 A-3|..|A-2 2CDF ....|C-3 6FFF ....|--- .... ....
....|..|C-2 2FDA ....|F-2 6FFA ....|--- .... ....
 C-4|..|C-2 2ADF ....|A#2 6FFF ....|--- .... ....
....|..|A-2 2FDA ....|C-3 6FFA ....|--- .... ....
 F-4|..|F-2 2ADF ....|A-2 6FFF ....|--- .... ....
....|..|C-2 2FDA ....|A#2 6FFA ....|--- .... ....
 C-4|..|C-2 2ADF ....|A#2 6FFF ....|--- .... ....
....|..|F-2 2FDA ....|A-2 6FFA ....|--- .... ....
 E-3|..|E-1 2ADF ....|E-1 6FFF ....|--- .... ....
....|..|C-2 2FDA ....|A#2 6FFA ....|--- .... ....
 C-4|..|C-2 2ADF ....|E-2 6FFF ....|--- .... ....
....|..|E-1 2FDA ....|E-1 6FFA ....|--- .... ....
 E-4|..|E-2 2ADF ....|G-2 6FFF ....|--- .... ....
....|..|C-2 2FDA ....|E-2 6FFA ....|--- .... ....
 C-4|..|C-2 2ADF ....|E-2 6FFF ....|--- .... ....
....|..|E-2 2FDA ....|G-2 6FFA ....|--- .... ....
 G-4|..|G-2 2ADF ....|C-3 6FFF ....|C-4 1FEF ....
....|..|C-2 2FDA ....|E-2 6FFA ....|--- .... ....
 C-4|..|C-2 2ADF ....|A#2 6FFF ....|A#3 1FEF ....
....|..|G-2 2FDA ....|C-3 6FFA ....|C-4 1FEA ....
 E-4|..|E-2 2ADF ....|G-2 6FFF ....|G-3 1FEF ....
....|..|C-2 2FDA ....|A#2 6FFA ....|A#3 1FEA ....
 C-4|..|C-2 2ADF ....|E-2 6FFF ....|E-3 1FEF ....
....|..|E-2 2FDA ....|G-2 6FFA ....|G-3 1FEA ....
 D#3|..|D#1 2ADF ....|D#2 6FFF ....|A#3 1FE7 ....
....|..|C-2 2FDA ....|E-2 6FFA ....|E-3 1FEA ....
 A#3|..|A#1 2ADF ....|D#2 6FFF ....|G-3 1FE7 ....
....|..|D#1 2FDA ....|D#2 6FFA ....|R-- .... ....
 D#4|..|D#2 2ADF ....|G-2 6FFF ....|G-3 1FEF ....
....|..|A#1 2FDA ....|D#2 6FFA ....|--- .... ....
 A#3|..|A#1 2ADF ....|A#2 6FFF ....|A#3 1FEF ....
....|..|D#2 2FDA ....|G-2 6FFA ....|G-3 1FEA ....
 G-4|..|G-2 2ADF ....|G-1 6FFF ....|R-- .... ....
....|..|A#1 2FDA ....|A#2 6FFA ....|A#3 1FEA ....
 G-4|..|G-2 2ADF ....|G-1 6FFF ....|G-3 1FE7 ....
....|..|G-2 2FDA ....|G-1 6FFA ....|R-- .... ....
 G-4|..|G-2 2ADF ....|G-1 6FFF ....|A#3 1FE7 ....
....|..|G-2 2FDA ....|G-1 6FFA ....|--- .... ....
 G-4|..|G-2 2ADF ....|G-1 6FFF ....|R-- .... ....
....|..|G-2 2FDA ....|G-1 6FFA ....|--- .... ....

[Pattern12]
 G-3|..|G-1 2ADF ....|G-1 6FFF ....|--- .... ....
....|..|G-2 2FDA ....|G-1 6FFA ....|--- .... ....
 D-4|..|D-2 2ADF ....|A#1 6FFF ....|--- .... ....
....|..|G-1 2FDA ....|G-1 6FFA ....|--- .... ....
 G-4|..|G-2 2ADF ....|G-2 6FFF ....|--- .... ....
....|..|D-2 2FDA ....|A#1 6FFA ....|--- .... ....
 D-4|..|D-2 2ADF ....|A#2 6FFF ....|--- .... ....
....|..|G-2 2FDA ....|G-2 6FFA ....|--- .... ....
 A#3|..|A#2 2CDF ....|D-3 6FFF ....|--- .... ....
....|..|D-2 2FDA ....|A#2 6FFA ....|--- .... ....
 D-4|..|D-2 2ADF ....|A#2 6FFF ....|--- .... ....
....|..|A#2 2FDA ....|D-3 6FFA ....|--- .... ....
 G-4|..|G-2 2ADF ....|G-2 6FFF ....|--- .... ....
....|..|D-2 2FDA ....|A#2 6FFA ....|--- .... ....
 D-4|..|D-2 2ADF ....|A#2 6FFF ....|--- .... ....
....|..|G-2 2FDA ....|G-2 6FFA ....|--- .... ....
 F-3|..|F-1 2ADF ....|F-1 6FFF ....|--- .... ....
....|..|D-2 2FDA ....|A#2 6FFA ....|--- .... ....
 C-4|..|C-2 2ADF ....|F-2 6FFF ....|--- .... ....
....|..|F-1 2FDA ....|F-1 6FFA ....|--- .... ....
 F-4|..|F-2 2ADF ....|A#2 6FFF ....|--- .... ....
....|..|C-2 2FDA ....|F-2 6FFA ....|--- .... ....
 C-4|..|C-2 2ADF ....|F-2 6FFF ....|--- .... ....
....|..|F-2 2FDA ....|A#2 6FFA ....|--- .... ....
 A-3|..|A-2 2CDF ....|C-3 6FFF ....|--- .... ....
....|..|C-2 2FDA ....|F-2 6FFA ....|--- .... ....
 C-4|..|C-2 2ADF ....|A#2 6FFF ....|--- .... ....
....|..|A-2 2FDA ....|C-3 6FFA ....|--- .... ....
 F-4|..|F-2 2ADF ....|A-2 6FFF ....|--- .... ....
....|..|C-2 2FDA ....|A#2 6FFA ....|--- .... ....
 C-4|..|C-2 2ADF ....|A#2 6FFF ....|--- .... ....
....|..|F-2 2FDA ....|A-2 6FFA ....|--- .... ....
 E-3|..|E-1 2ADF ....|A#2 6FFF ....|A#3 1FEF ....
....|..|C-2 2FDA ....|A#2 6FFA ....|--- .... ....
 C-4|..|C-2 2ADF ....|A#2 6FFF ....|A#3 1FEF ....
....|..|E-1 2FDA ....|A#2 6FFA ....|A#3 1FEA ....
 E-4|..|E-2 2ADF ....|G-2 6FFF ....|G-3 1FEF ....
....|..|C-2 2FDA ....|A#2 6FFA ....|A#3 1FEA ....
 C-4|..|C-2 2ADF ....|G-2 6FFF ....|G-3 1FEF ....
....|..|E-2 2FDA ....|G-2 6FFA ....|G-3 1FEA ....
 G-4|..|G-2 2ADF ....|A#2 6FFF ....|A#3 1FE7 ....
....|..|C-2 2FDA ....|G-2 6FFA ....|G-3 1FEA ....
 C-4|..|C-2 2ADF ....|A#2 6FFF ....|G-3 1FE7 ....
....|..|G-2 2FDA ....|A#2 6FFA ....|R-- .... ....
 E-4|..|E-2 2ADF ....|G-2 6FFF ....|G-3 1FE7 ....
....|..|C-2 2FDA ....|A#2 6FFA ....|--- .... ....
 C-4|..|C-2 2ADF ....|G-2 6FFF ....|R-- .... ....
....|..|E-2 2FDA ....|G-2 6FFA ....|--- .... ....
 D#3|..|D#1 2ADF ....|A#2 6FFF ....|A#3 1FEF ....
....|..|C-2 2FDA ....|G-2 6FFA ....|--- .... ....
 A#3|..|A#1 2ADF ....|A#2 6FFF ....|A#3 1FEF ....
....|..|D#1 2FDA ....|A#2 6FFA ....|A#3 1FEA ....
 D#4|..|D#2 2ADF ....|G-2 6FFF ....|G-3 1FEF ....
....|..|A#1 2FDA ....|A#2 6FFA ....|A#3 1FEA ....
 A#3|..|A#1 2ADF ....|G-2 6FFF ....|G-3 1FEF ....
....|..|D#2 2FDA ....|G-2 6FFA ....|G-3 1FEA ....
 D-3|..|D-1 2ADF ....|A#2 6FFF ....|A#3 1FEF ....
....|..|A#1 2FDA ....|G-2 6FFA ....|G-3 1FEA ....
 A-3|..|A-1 2ADF ....|A#2 6FFF ....|A#3 1FEF ....
....|..|D-1 2FDA ....|A#2 6FFA ....|A#3 1FEA ....
 D-4|..|D-2 2ADF ....|G-2 6FFF ....|G-3 1FEF ....
....|..|A-1 2FDA ....|A#2 6FFA ....|A#3 1FEA ....
 A-3|..|A-1 2ADF ....|G-2 6FFF ....|G-3 1FEF ....
....|..|D-2 2FDA ....|G-2 6FFA ....|G-3 1FEA ....

[Pattern13]
 G-3|..|G-1 2ADF ....|F-2 6FFF ....|A#3 1FE7 ....
....|..|A-1 2FDA ....|G-2 6FFA ....|G-3 1FEA ....
 D-4|..|D-2 2ADF ....|G-2 6FFF ....|G-3 1FE7 ....
....|..|G-1 2FDA ....|F-2 6FFA ....|R-- .... ....
 G-4|..|G-2 2ADF ....|A#2 6FFF ....|G-3 1FE7 ....
....|..|D-2 2FDA ....|G-2 6FFA ....|--- .... ....
 D-4|..|D-2 2ADF ....|G-2 6FFF ....|R-- .... ....
....|..|G-2 2FDA ....|A#2 6FFA ....|--- .... ....
 A#3|..|A#2 2CDF ....|D-3 6FFF ....|--- .... ....
....|..|D-2 2FDA ....|G-2 6FFA ....|--- .... ....
 D-4|..|D-2 2ADF ....|C-3 6FFF ....|--- .... ....
....|..|A#2 2FDA ....|D-3 6FFA ....|--- .... ....
 G-4|..|G-2 2ADF ....|A#2 6FFF ....|--- .... ....
....|..|D-2 2FDA ....|C-3 6FFA ....|--- .... ....
 D-4|..|D-2 2ADF ....|G-2 6FFF ....|--- .... ....
....|..|G-2 2FDA ....|A#2 6FFA ....|--- .... ....
 F-3|..|F-1 2ADF ....|F-2 6FFF ....|--- .... ....
....|..|D-2 2FDA ....|G-2 6FFA ....|--- .... ....
 C-4|..|C-2 2ADF ....|G-2 6FFF ....|--- .... ....
....|..|F-1 2FDA ....|F-2 6FFA ....|--- .... ....
 F-4|..|F-2 2ADF ....|A#2 6FFF ....|--- .... ....
....|..|C-2 2FDA ....|G-2 6FFA ....|--- .... ....
 C-4|..|C-2 2ADF ....|G-2 6FFF ....|--- .... ....
....|..|F-2 2FDA ....|A#2 6FFA ....|--- .... ....
 A-3|..|A-2 2CDF ....|D-3 6FFF ....|--- .... ....
....|..|C-2 2FDA ....|G-2 6FFA ....|--- .... ....
 C-4|..|C-2 2ADF ....|C-3 6FFF ....|--- .... ....
....|..|A-2 2FDA ....|D-3 6FFA ....|--- .... ....
 F-4|..|F-2 2ADF ....|A#2 6FFF ....|--- .... ....
....|..|C-2 2FDA ....|C-3 6FFA ....|--- .... ....
 C-4|..|C-2 2ADF ....|G-2 6FFF ....|--- .... ....
....|..|F-2 2FDA ....|A#2 6FFA ....|--- .... ....
 E-3|..|E-1 2ADF ....|A#2 6FFF ....|--- .... ....
....|..|C-2 2FDA ....|G-2 6FFA ....|--- .... ....
 C-4|..|C-2 2ADF ....|A#2 6FFF ....|--- .... ....
....|..|E-1 2FDA ....|A#2 6FFA ....|--- .... ....
 E-4|..|E-2 2ADF ....|G-2 6FFF ....|--- .... ....
....|..|C-2 2FDA ....|A#2 6FFA ....|--- .... ....
 C-4|..|C-2 2ADF ....|G-2 6FFF ....|--- .... ....
....|..|E-2 2FDA ....|G-2 6FFA ....|--- .... ....
 G-4|..|G-2 2ADF ....|A#1 6FFF ....|--- .... ....
....|..|C-2 2FDA ....|G-2 6FFA ....|--- .... ....
 C-4|..|C-2 2ADF ....|A#1 6FFF ....|--- .... ....
....|..|G-2 2FDA ....|A#1 6FFA ....|--- .... ....
 E-4|..|E-2 2ADF ....|G-1 6FFF ....|--- .... ....
....|..|C-2 2FDA ....|A#1 6FFA ....|--- .... ....
 C-4|..|C-2 2ADF ....|G-1 6FFF ....|--- .... ....
....|..|E-2 2FDA ....|G-1 6FFA ....|--- .... ....
 D#3|..|D#1 2ADF ....|A#2 6FFF ....|--- .... ....
....|..|C-2 2FDA ....|G-1 6FFA ....|--- .... ....
 A#3|..|A#1 2ADF ....|A#2 6FFF ....|--- .... ....
....|..|D#1 2FDA ....|A#2 6FFA ....|--- .... ....
 D#4|..|D#2 2ADF ....|G-2 6FFF ....|--- .... ....
....|..|A#1 2FDA ....|A#2 6FFA ....|--- .... ....
 A#3|..|A#1 2ADF ....|G-2 6FFF ....|--- .... ....
....|..|D#2 2FDA ....|G-2 6FFA ....|--- .... ....
 D-3|..|D-1 2ADF ....|A#2 6FFF ....|--- .... ....
....|..|A#1 2FDA ....|G-2 6FFA ....|--- .... ....
 A-3|..|A-1 2ADF ....|A#2 6FFF ....|--- .... ....
....|..|D-1 2FDA ....|A#2 6FFA ....|--- .... ....
 D-4|..|D-2 2ADF ....|G-2 6FFF ....|--- .... ....
....|..|A-1 2FDA ....|A#2 6FFA ....|--- .... ....
 A-3|..|A-1 2ADF ....|G-2 6FFF ....|--- .... ....
....|..|D-2 2FDA ....|G-2 6FFA ....|--- .... ....

[Pattern14]
 G-3|..|G-1 2ADF ....|F-1 6FFF ....|--- .... ....
....|..|A-1 2FDA ....|G-2 6FFA ....|--- .... ....
 D-4|..|D-2 2ADF ....|G-1 6FFF ....|--- .... ....
....|..|G-1 2FDA ....|F-1 6FFA ....|--- .... ....
 G-4|..|G-2 2ADF ....|A#1 6FFF ....|--- .... ....
....|..|D-2 2FDA ....|G-1 6FFA ....|--- .... ....
 D-4|..|D-2 2ADF ....|G-1 6FFF ....|--- .... ....
....|..|G-2 2FDA ....|A#1 6FFA ....|--- .... ....
 A#3|..|A#2 2CDF ....|D-2 6FFF ....|--- .... ....
....|..|D-2 2FDA ....|G-1 6FFA ....|--- .... ....
 D-4|..|D-2 2ADF ....|C-2 6FFF ....|--- .... ....
....|..|A#2 2FDA ....|D-2 6FFA ....|--- .... ....
 G-4|..|G-2 2ADF ....|A#1 6FFF ....|--- .... ....
....|..|D-2 2FDA ....|C-2 6FFA ....|--- .... ....
 D-4|..|D-2 2ADF ....|G-1 6FFF ....|--- .... ....
....|..|G-2 2FDA ....|A#1 6FFA ....|--- .... ....
 F-3|..|F-1 2ADF ....|F-1 6FFF ....|--- .... ....
....|..|D-2 2FDA ....|G-1 6FFA ....|--- .... ....
 C-4|..|C-2 2ADF ....|G-1 6FFF ....|--- .... ....
....|..|F-1 2FDA ....|F-1 6FFA ....|--- .... ....
 F-4|..|F-2 2ADF ....|A#1 6FFF ....|--- .... ....
....|..|C-2 2FDA ....|G-1 6FFA ....|--- .... ....
 C-4|..|C-2 2ADF ....|G-1 6FFF ....|--- .... ....
....|..|F-2 2FDA ....|A#1 6FFA ....|--- .... ....
 A-3|..|A-2 2CDF ....|D-2 6FFF ....|--- .... ....
....|..|C-2 2FDA ....|G-1 6FFA ....|--- .... ....
 C-4|..|C-2 2ADF ....|C-2 6FFF ....|--- .... ....
....|..|A-2 2FDA ....|D-2 6FFA ....|--- .... ....
 F-4|..|F-2 2ADF ....|A#1 6FFF ....|--- .... ....
....|..|C-2 2FDA ....|C-2 6FFA ....|--- .... ....
 C-4|..|C-2 2ADF ....|G-1 6FFF ....|--- .... ....
....|..|F-2 2FDA ....|A#1 6FFA ....|--- .... ....
 E-3|..|E-1 2ADF ....|F-2 6FFF ....|--- .... ....
....|..|C-2 2FDA ....|G-1 6FFA ....|--- .... ....
 C-4|..|C-2 2ADF ....|G-2 6FFF ....|--- .... ....
....|..|E-1 2FDA ....|F-2 6FFA ....|--- .... ....
 E-4|..|E-2 2ADF ....|A#2 6FFF ....|--- .... ....
....|..|C-2 2FDA ....|G-2 6FFA ....|--- .... ....
 C-4|..|C-2 2ADF ....|G-2 6FFF ....|--- .... ....
....|..|E-2 2FDA ....|A#2 6FFA ....|--- .... ....
 G-4|..|G-2 2ADF ....|C-3 6FFF ....|--- .... ....
....|..|C-2 2FDA ....|D-3 6FFF ....|--- .... ....
 C-4|..|C-2 2ADF ....|C-3 6FFF ....|--- .... ....
....|..|G-2 2FDA ....|C-3 6FFA ....|--- .... ....
 E-4|..|E-2 2ADF ....|A#2 6FFF ....|--- .... ....
....|..|C-2 2FDA ....|C-3 6FFA ....|--- .... ....
 C-4|..|C-2 2ADF ....|G-2 6FFF ....|--- .... ....
....|..|E-2 2FDA ....|D-3 6FF7 ....|--- .... ....
 D#3|..|D#1 2ADF ....|F-2 6FFF ....|--- .... ....
....|..|C-2 2FDA ....|G-2 6FFA ....|--- .... ....
 A#3|..|A#1 2ADF ....|G-2 6FFF ....|--- .... ....
....|..|D#1 2FDA ....|F-2 6FFA ....|--- .... ....
 D#4|..|D#2 2ADF ....|A#2 6FFF ....|--- .... ....
....|..|A#1 2FDA ....|G-2 6FFA ....|--- .... ....
....|..|D#1 2FD7 ....|C-3 6FFF ....|--- .... ....
....|..|D#2 2FDA ....|A#2 6FFA ....|--- .... ....
 G-4|..|G-2 2ADF ....|G-1 6FFF ....|--- .... ....
....|..|--- .... ....|C-3 6FFA ....|--- .... ....
 G-4|..|G-2 2ADF ....|G-1 6FFF ....|--- .... ....
....|..|G-2 2FDA ....|G-1 6FFA ....|--- .... ....
 G-4|..|G-2 2ADF ....|G-1 6FFF ....|--- .... ....
....|..|G-2 2FDA ....|G-1 6FFA ....|--- .... ....
 G-4|..|G-2 2ADF ....|G-1 6FFF ....|--- .... ....
....|..|G-2 2FDA ....|G-1 6FFA ....|--- .... ....

[Pattern15]
 G-3|..|G-1 2ADF ....|F-2 6FFF ....|--- .... ....
....|..|G-2 2FDA ....|G-1 6FFA ....|--- .... ....
 D-4|..|D-2 2ADF ....|G-2 6FFF ....|--- .... ....
....|..|G-1 2FDA ....|F-2 6FFA ....|--- .... ....
 G-4|..|G-2 2ADF ....|A#2 6FFF ....|--- .... ....
....|..|D-2 2FDA ....|G-2 6FFA ....|--- .... ....
 D-4|..|D-2 2ADF ....|G-2 6FFF ....|--- .... ....
....|..|G-2 2FDA ....|A#2 6FFA ....|--- .... ....
 A#3|..|A#2 2CDF ....|D-3 6FFF ....|--- .... ....
....|..|D-2 2FDA ....|G-2 6FFA ....|--- .... ....
 D-4|..|D-2 2ADF ....|G-2 6FFF ....|--- .... ....
....|..|A#2 2FDA ....|A#2 6FFF ....|--- .... ....
 G-4|..|G-2 2ADF ....|G-2 6FF7 ....|--- .... ....
....|..|D-2 2FDA ....|G-2 6FFF ....|--- .... ....
 D-4|..|D-2 2ADF ....|F-2 6FFF ....|--- .... ....
....|..|G-2 2FDA ....|--- .... ....|--- .... ....
 F-3|..|F-1 2ADF ....|G-2 6FF7 ....|--- .... ....
....|..|D-2 2FDA ....|A#2 6FF7 ....|--- .... ....
 C-4|..|C-2 2ADF ....|G-2 6FFF ....|--- .... ....
....|..|F-1 2FDA ....|G-2 6FF7 ....|--- .... ....
 F-4|..|F-2 2ADF ....|A#2 6FFF ....|--- .... ....
....|..|C-2 2FDA ....|G-2 6FFA ....|--- .... ....
 C-4|..|C-2 2ADF ....|G-2 6FFF ....|--- .... ....
....|..|F-2 2FDA ....|A#2 6FFA ....|--- .... ....
 A-3|..|A-2 2CDF ....|D-3 6FFF ....|--- .... ....
....|..|C-2 2FDA ....|G-2 6FFA ....|--- .... ....
 C-4|..|C-2 2ADF ....|A#2 6FF7 ....|--- .... ....
....|..|A-2 2FDA ....|A#2 6FFF ....|--- .... ....
 F-4|..|F-2 2ADF ....|G-2 6FF7 ....|--- .... ....
....|..|C-2 2FDA ....|R-- .... ....|--- .... ....
 C-4|..|C-2 2ADF ....|D-3 6FF7 ....|--- .... ....
....|..|F-2 2FDA ....|--- .... ....|--- .... ....
 E-3|..|E-1 2ADF ....|F-2 6FFF ....|--- .... ....
....|..|C-2 2FDA ....|A#2 6FF7 ....|--- .... ....
 C-4|..|C-2 2ADF ....|G-2 6FFF ....|--- .... ....
....|..|E-1 2FDA ....|F-2 6FFA ....|--- .... ....
 E-4|..|E-2 2ADF ....|A#2 6FFF ....|--- .... ....
....|..|C-2 2FDA ....|G-2 6FFF ....|--- .... ....
 C-4|..|C-2 2ADF ....|D-3 6FFF ....|--- .... ....
....|..|E-2 2FDA ....|A#2 6FFA ....|--- .... ....
 G-4|..|G-2 2ADF ....|A#2 6FFF ....|--- .... ....
....|..|C-2 2FDA ....|D-3 6FFA ....|--- .... ....
 C-4|..|C-2 2ADF ....|G-2 6FFF ....|--- .... ....
....|..|G-2 2FDA ....|G-2 6FF7 ....|--- .... ....
 E-4|..|E-2 2ADF ....|F-2 6FFF ....|--- .... ....
....|..|C-2 2FDA ....|G-2 6FFA ....|--- .... ....
 C-4|..|C-2 2ADF ....|G-2 6FFF ....|--- .... ....
....|..|E-2 2FDA ....|F-2 6FFA ....|--- .... ....
 D#3|..|D#1 2ADF ....|A#1 6FFF ....|--- .... ....
....|..|C-2 2FDA ....|G-2 6FFA ....|--- .... ....
 A#3|..|A#1 2ADF ....|C-2 6FFF ....|--- .... ....
....|..|D#1 2FDA ....|G-1 6FFF ....|--- .... ....
 D#4|..|D#2 2ADF ....|G-2 6FF7 ....|--- .... ....
....|..|A#1 2FDA ....|F-1 6FFF ....|--- .... ....
 A#3|..|A#1 2ADF ....|A#1 6FFF ....|--- .... ....
....|..|D#2 2FDA ....|--- .... ....|--- .... ....
 D-3|..|D-1 2ADF ....|G-1 6FFF ....|--- .... ....
....|..|A#1 2FDA ....|G-1 6FF7 ....|--- .... ....
 A-3|..|A-1 2ADF ....|F-1 6FFF ....|--- .... ....
....|..|D-1 2FDA ....|F-1 6FF7 ....|--- .... ....
 G-4|..|G-2 2ADF ....|A#1 6FF7 ....|--- .... ....
....|..|A-1 2FDA ....|F-1 6FFA ....|--- .... ....
 G-4|..|G-2 2ADF ....|G-1 6FF7 ....|--- .... ....
....|..|G-2 2FDA ....|R-- .... ....|--- .... ....

[Pattern16]
 G-3|..|G-1 2ADF ....|C-3 6FFF ....|--- .... ....
....|..|G-2 2FDA ....|D-3 6FFF ....|--- .... ....
 D-4|..|D-2 2ADF ....|C-3 6FFF ....|--- .... ....
....|..|G-1 2FDA ....|C-3 6FFA ....|--- .... ....
 G-4|..|G-2 2ADF ....|G-1 6FFF ....|--- .... ....
....|..|D-2 2FDA ....|C-3 6FFA ....|--- .... ....
 D-4|..|D-2 2ADF ....|G-1 6FFF ....|--- .... ....
....|..|G-2 2FDA ....|D-3 6FF7 ....|--- .... ....
 A#3|..|A#2 2CDF ....|F-2 6FFF ....|--- .... ....
....|..|D-2 2FDA ....|G-1 6FFA ....|--- .... ....
 D-4|..|D-2 2ADF ....|G-2 6FFF ....|--- .... ....
....|..|A#2 2FDA ....|F-2 6FFA ....|--- .... ....
 G-4|..|G-2 2ADF ....|F-2 6FFF ....|--- .... ....
....|..|D-2 2FDA ....|G-2 6FFA ....|--- .... ....
 D-4|..|D-2 2ADF ....|G-2 6FFF ....|--- .... ....
....|..|G-2 2FDA ....|F-2 6FFA ....|--- .... ....
 F-3|..|F-1 2ADF ....|C-3 6FFF ....|--- .... ....
....|..|D-2 2FDA ....|G-2 6FFA ....|--- .... ....
 C-4|..|C-2 2ADF ....|A#2 6FFF ....|--- .... ....
....|..|F-1 2FDA ....|C-3 6FFA ....|--- .... ....
 F-4|..|F-2 2ADF ....|F-2 6FFF ....|--- .... ....
....|..|C-2 2FDA ....|A#2 6FFA ....|--- .... ....
 C-4|..|C-2 2ADF ....|G-2 6FFF ....|--- .... ....
....|..|F-2 2FDA ....|F-2 6FFA ....|--- .... ....
 A-3|..|A-2 2CDF ....|A#2 6FFF ....|--- .... ....
....|..|C-2 2FDA ....|G-2 6FFA ....|--- .... ....
 C-4|..|C-2 2ADF ....|G-2 6FFF ....|--- .... ....
....|..|A-2 2FDA ....|A#2 6FFA ....|--- .... ....
 F-4|..|F-2 2ADF ....|D-3 6FFF ....|--- .... ....
....|..|C-2 2FDA ....|G-2 6FFA ....|--- .... ....
 C-4|..|C-2 2ADF ....|C-3 6FFF ....|--- .... ....
....|..|F-2 2FDA ....|D-3 6FFA ....|--- .... ....
 E-3|..|E-1 2ADF ....|C-3 6FFF ....|--- .... ....
....|..|C-2 2FDA ....|G-2 6FFF ....|--- .... ....
 C-4|..|C-2 2ADF ....|A#2 6FFF ....|--- .... ....
....|..|E-1 2FDA ....|G-2 6FFF ....|--- .... ....
 E-4|..|E-2 2ADF ....|C-3 6FFF ....|--- .... ....
....|..|C-2 2FDA ....|G-2 6FFF ....|--- .... ....
 C-4|..|C-2 2ADF ....|A#2 6FFF ....|--- .... ....
....|..|E-2 2FDA ....|G-2 6FFF ....|--- .... ....
 G-4|..|G-2 2ADF ....|C-3 6FFF ....|--- .... ....
....|..|C-2 2FDA ....|G-2 6FFF ....|--- .... ....
 C-4|..|C-2 2ADF ....|A#2 6FFF ....|--- .... ....
....|..|G-2 2FDA ....|G-2 6FFF ....|--- .... ....
 E-4|..|E-2 2ADF ....|C-3 6FFF ....|--- .... ....
....|..|C-2 2FDA ....|G-2 6FFF ....|--- .... ....
 C-4|..|C-2 2ADF ....|A#2 6FFF ....|--- .... ....
....|..|E-2 2FDA ....|D-3 6FFF ....|--- .... ....
 D#3|..|D#1 2ADF ....|D-3 6FFF ....|--- .... ....
....|..|C-2 2FDA ....|G-2 6FF7 ....|--- .... ....
 A#3|..|A#1 2ADF ....|C-3 6FFF ....|--- .... ....
....|..|D#1 2FDA ....|G-2 6FF7 ....|--- .... ....
 D#4|..|D#2 2ADF ....|A#2 6FFF ....|--- .... ....
....|..|A#1 2FDA ....|D-3 6FF7 ....|--- .... ....
 A#3|..|A#1 2ADF ....|C-3 6FFF ....|--- .... ....
....|..|D#2 2FDA ....|A#2 6FFA ....|--- .... ....
 G-4|..|G-2 2ADF ....|C-3 6FF7 ....|--- .... ....
....|..|A#1 2FDA ....|C-3 6FFA ....|--- .... ....
 G-4|..|G-2 2ADF ....|A#2 6FF7 ....|--- .... ....
....|..|G-2 2FDA ....|R-- .... ....|--- .... ....
 G-4|..|G-2 2ADF ....|C-3 6FF7 ....|--- .... ....
....|..|G-2 2FDA ....|--- .... ....|--- .... ....
 G-4|..|G-2 2ADF ....|F-2 6FFF ....|--- .... ....
....|..|G-2 2FDA ....|G-2 6FFF ....|--- .... ....

[Pattern17]
 G-3|..|G-1 2ADF ....|A#2 6FFF ....|--- .... ....
....|..|G-2 2FDA ....|F-2 6FFA ....|--- .... ....
 D-4|..|D-2 2ADF ....|A#2 6FFF ....|--- .... ....
....|..|G-1 2FDA ....|A#2 6FFA ....|--- .... ....
 G-4|..|G-2 2ADF ....|A#2 6FFF ....|--- .... ....
....|..|D-2 2FDA ....|G-2 6FF7 ....|--- .... ....
 D-4|..|D-2 2ADF ....|G-2 6FFF ....|--- .... ....
....|..|G-2 2FDA ....|A#2 6FFA ....|--- .... ....
 A#3|..|A#2 2CDF ....|D-3 6FFF ....|--- .... ....
....|..|D-2 2FDA ....|G-2 6FFA ....|--- .... ....
 D-4|..|D-2 2ADF ....|G-2 6FFF ....|--- .... ....
....|..|A#2 2FDA ....|A#2 6FFF ....|--- .... ....
 G-4|..|G-2 2ADF ....|G-2 6FF7 ....|--- .... ....
....|..|D-2 2FDA ....|G-2 6FFF ....|--- .... ....
 D-4|..|D-2 2ADF ....|D-3 6FF7 ....|--- .... ....
....|..|G-2 2FDA ....|F-2 6FFF ....|--- .... ....
 F-3|..|F-1 2ADF ....|G-2 6FF7 ....|--- .... ....
....|..|D-2 2FDA ....|A#2 6FF7 ....|--- .... ....
 C-4|..|C-2 2ADF ....|G-2 6FFF ....|--- .... ....
....|..|F-1 2FDA ....|G-2 6FF7 ....|--- .... ....
 F-4|..|F-2 2ADF ....|A#2 6FFF ....|--- .... ....
....|..|C-2 2FDA ....|F-2 6FF7 ....|--- .... ....
 C-4|..|C-2 2ADF ....|G-2 6FFF ....|--- .... ....
....|..|F-2 2FDA ....|A#2 6FFA ....|--- .... ....
 A-3|..|A-2 2CDF ....|D-3 6FFF ....|--- .... ....
....|..|C-2 2FDA ....|G-2 6FFA ....|--- .... ....
 C-4|..|C-2 2ADF ....|A#2 6FF7 ....|--- .... ....
....|..|A-2 2FDA ....|A#2 6FFF ....|--- .... ....
 F-4|..|F-2 2ADF ....|G-2 6FF7 ....|--- .... ....
....|..|C-2 2FDA ....|--- .... ....|--- .... ....
 C-4|..|C-2 2ADF ....|D-3 6FF7 ....|--- .... ....
....|..|F-2 2FDA ....|G-1 6FFF ....|--- .... ....
 E-3|..|E-1 2ADF ....|A#1 6FFF ....|--- .... ....
....|..|C-2 2FDA ....|A#2 6FF7 ....|--- .... ....
 C-4|..|C-2 2ADF ....|A#1 6FFF ....|--- .... ....
....|..|E-1 2FDA ....|A#1 6FFA ....|--- .... ....
 E-4|..|E-2 2ADF ....|A#1 6FFF ....|--- .... ....
....|..|C-2 2FDA ....|G-1 6FF7 ....|--- .... ....
 C-4|..|C-2 2ADF ....|G-1 6FFF ....|--- .... ....
....|..|E-2 2FDA ....|A#1 6FFA ....|--- .... ....
 G-4|..|G-2 2ADF ....|D-2 6FFF ....|--- .... ....
....|..|C-2 2FDA ....|C-2 6FFF ....|--- .... ....
 C-4|..|C-2 2ADF ....|A#1 6FF7 ....|--- .... ....
....|..|G-2 2FDA ....|A#1 6FFF ....|--- .... ....
 E-4|..|E-2 2ADF ....|G-1 6FF7 ....|--- .... ....
....|..|C-2 2FDA ....|R-- .... ....|--- .... ....
 C-4|..|C-2 2ADF ....|D-2 6FF7 ....|--- .... ....
....|..|E-2 2FDA ....|G-1 6FFF ....|--- .... ....
 D#3|..|D#1 2ADF ....|A#1 6FFF ....|--- .... ....
....|..|C-2 2FDA ....|A#1 6FF7 ....|--- .... ....
 A#3|..|A#1 2ADF ....|G-1 6FFF ....|--- .... ....
....|..|D#1 2FDA ....|A#1 6FFA ....|--- .... ....
 D#4|..|D#2 2ADF ....|D-2 6FFF ....|--- .... ....
....|..|A#1 2FDA ....|G-1 6FF7 ....|--- .... ....
 A#3|..|A#1 2ADF ....|C-2 6FFF ....|--- .... ....
....|..|D#2 2FDA ....|D-2 6FFA ....|--- .... ....
 D-3|..|D-1 2ADF ....|A#2 6FFF ....|--- .... ....
....|..|A#1 2FDA ....|D-3 6FFF ....|--- .... ....
 A-3|..|A-1 2ADF ....|D-2 6FF7 ....|--- .... ....
....|..|D-1 2FDA ....|C-3 6FFF ....|--- .... ....
 D-4|..|D-2 2ADF ....|C-2 6FF7 ....|--- .... ....
....|..|A-1 2FDA ....|A#2 6FFF ....|--- .... ....
 A-3|..|A-1 2ADF ....|G-2 6FFF ....|--- .... ....
....|..|D-2 2FDA ....|D-3 6FF7 ....|--- .... ....

[Pattern18]
 G-3|..|G-1 2ADF ....|G-2 6FFF ....|--- .... ....
....|..|A-1 2FDA ....|C-3 6FF7 ....|--- .... ....
 D-4|..|D-2 2ADF ....|F-2 6FFF ....|--- .... ....
....|..|G-1 2FDA ....|A#2 6FF7 ....|--- .... ....
 G-4|..|G-2 2ADF ....|G-2 6FFF ....|--- .... ....
....|..|D-2 2FDA ....|F-2 6FFA ....|--- .... ....
 D-4|..|D-2 2ADF ....|D-2 6FFF ....|--- .... ....
....|..|G-2 2FDA ....|G-2 6FFA ....|--- .... ....
 A#3|..|A#2 2CDF ....|F-2 6FFF ....|--- .... ....
....|..|D-2 2FDA ....|G-2 6FFF ....|--- .... ....
 D-4|..|D-2 2ADF ....|G-2 6FF7 ....|--- .... ....
....|..|A#2 2FDA ....|G-2 6FFF ....|--- .... ....
 G-4|..|G-2 2ADF ....|D-2 6FF7 ....|--- .... ....
....|..|D-2 2FDA ....|D-3 6FFF ....|--- .... ....
 D-4|..|D-2 2ADF ....|F-2 6FF7 ....|--- .... ....
....|..|G-2 2FDA ....|C-3 6FFF ....|--- .... ....
 F-3|..|F-1 2ADF ....|D-3 6FFA ....|--- .... ....
....|..|D-2 2FDA ....|G-2 6FF7 ....|--- .... ....
 C-4|..|C-2 2ADF ....|G-2 6FFF ....|--- .... ....
....|..|F-1 2FDA ....|D-3 6FF7 ....|--- .... ....
 F-4|..|F-2 2ADF ....|G-2 6FFF ....|--- .... ....
....|..|C-2 2FDA ....|C-3 6FF7 ....|--- .... ....
 C-4|..|C-2 2ADF ....|F-2 6FFF ....|--- .... ....
....|..|F-2 2FDA ....|G-2 6FFA ....|--- .... ....
 A-3|..|A-2 2CDF ....|G-2 6FFF ....|--- .... ....
....|..|C-2 2FDA ....|F-2 6FFF ....|--- .... ....
 C-4|..|C-2 2ADF ....|G-2 6FF7 ....|--- .... ....
....|..|A-2 2FDA ....|G-2 6FFF ....|--- .... ....
 F-4|..|F-2 2ADF ....|F-2 6FF7 ....|--- .... ....
....|..|C-2 2FDA ....|C-3 6FFF ....|--- .... ....
 C-4|..|C-2 2ADF ....|G-2 6FF7 ....|--- .... ....
....|..|F-2 2FDA ....|A#2 6FFF ....|--- .... ....
 E-3|..|E-1 2ADF ....|C-3 6FFA ....|--- .... ....
....|..|C-2 2FDA ....|G-2 6FF7 ....|--- .... ....
 C-4|..|C-2 2ADF ....|F-2 6FFF ....|--- .... ....
....|..|E-1 2FDA ....|C-3 6FF7 ....|--- .... ....
 E-4|..|E-2 2ADF ....|G-2 6FFF ....|--- .... ....
....|..|C-2 2FDA ....|A#2 6FF7 ....|--- .... ....
 C-4|..|C-2 2ADF ....|D-2 6FFF ....|--- .... ....
....|..|E-2 2FDA ....|G-2 6FFA ....|--- .... ....
 G-4|..|G-2 2ADF ....|F-2 6FFF ....|--- .... ....
....|..|C-2 2FDA ....|G-2 6FFF ....|--- .... ....
 C-4|..|C-2 2ADF ....|G-2 6FF7 ....|--- .... ....
....|..|G-2 2FDA ....|G-2 6FFF ....|--- .... ....
 E-4|..|E-2 2ADF ....|D-2 6FF7 ....|--- .... ....
....|..|C-2 2FDA ....|R-- .... ....|--- .... ....
 C-4|..|C-2 2ADF ....|F-2 6FF7 ....|--- .... ....
....|..|E-2 2FDA ....|G-2 6FF7 ....|--- .... ....
 D#4|..|D#2 2ADF ....|G-3 6FFF ....|--- .... ....
....|..|C-2 2FDA ....|G-2 6FF7 ....|--- .... ....
....|..|E-2 2FD7 ....|G-3 6FFF ....|--- .... ....
....|..|D#2 2FDA ....|G-3 6FFA ....|--- .... ....
....|..|C-2 2FD7 ....|G-2 6FFF ....|--- .... ....
....|..|R-- .... ....|G-3 6FFA ....|--- .... ....
....|..|D#2 2FD7 ....|G-2 6FFF ....|--- .... ....
....|..|--- .... ....|G-2 6FFA ....|--- .... ....
 D-4|..|D-2 2ADF ....|G-1 6FFF ....|--- .... ....
....|..|--- .... ....|G-1 6FFF ....|--- .... ....
....|..|R-- .... ....|G-2 6FF7 ....|--- .... ....
....|..|D-2 2FDA ....|G-1 6FFF ....|--- .... ....
 G-4|..|G-2 2ADF ....|G-2 6FF7 ....|--- .... ....
....|..|R-- .... ....|--- .... ....|--- .... ....
 G-4|..|G-2 2ADF ....|G-1 6FF7 ....|--- .... ....
....|..|G-2 2FDA ....|G-1 6FF7 ....|--- .... ....

[Pattern19]
 G-3|..|G-1 2ADF ....|C-3 6FFF ....|--- .... ....
....|..|G-2 2FDA ....|D-3 6FFF ....|--- .... ....
 D-4|..|D-2 2ADF ....|C-3 6FFF ....|--- .... ....
....|..|G-1 2FDA ....|C-3 6FFA ....|--- .... ....
 G-4|..|G-2 2ADF ....|G-1 6FFF ....|--- .... ....
....|..|D-2 2FDA ....|C-3 6FFA ....|--- .... ....
 D-4|..|D-2 2ADF ....|G-1 6FFF ....|--- .... ....
....|..|G-2 2FDA ....|D-3 6FF7 ....|--- .... ....
 A#3|..|A#2 2CDF ....|F-2 6FFF ....|--- .... ....
....|..|D-2 2FDA ....|G-1 6FFA ....|--- .... ....
 D-4|..|D-2 2ADF ....|G-2 6FFF ....|--- .... ....
....|..|A#2 2FDA ....|F-2 6FFA ....|--- .... ....
 G-4|..|G-2 2ADF ....|F-2 6FFF ....|--- .... ....
....|..|D-2 2FDA ....|G-2 6FFA ....|--- .... ....
 D-4|..|D-2 2ADF ....|G-2 6FFF ....|--- .... ....
....|..|G-2 2FDA ....|F-2 6FFA ....|--- .... ....
 F-3|..|F-1 2ADF ....|C-3 6FFF ....|--- .... ....
....|..|D-2 2FDA ....|G-2 6FFA ....|--- .... ....
 C-4|..|C-2 2ADF ....|A#2 6FFF ....|--- .... ....
....|..|F-1 2FDA ....|C-3 6FFA ....|--- .... ....
 F-4|..|F-2 2ADF ....|D-2 6FFF ....|--- .... ....
....|..|C-2 2FDA ....|A#2 6FFA ....|--- .... ....
 C-4|..|C-2 2ADF ....|C-2 6FFF ....|--- .... ....
....|..|F-2 2FDA ....|D-2 6FFA ....|--- .... ....
 A-3|..|A-2 2CDF ....|A#1 6FFF ....|--- .... ....
....|..|C-2 2FDA ....|C-2 6FFA ....|--- .... ....
 C-4|..|C-2 2ADF ....|G-1 6FFF ....|--- .... ....
....|..|A-2 2FDA ....|A#1 6FFA ....|--- .... ....
 F-4|..|F-2 2ADF ....|G-1 6FFF ....|--- .... ....
....|..|C-2 2FDA ....|G-1 6FFA ....|--- .... ....
 C-4|..|C-2 2ADF ....|G-1 6FFF ....|--- .... ....
....|..|F-2 2FDA ....|G-1 6FFA ....|--- .... ....
 E-3|..|E-1 2ADF ....|G-1 6FFF ....|--- .... ....
....|..|C-2 2FDA ....|G-1 6FFA ....|--- .... ....
 C-4|..|C-2 2ADF ....|D-1 6FFF ....|--- .... ....
....|..|E-1 2FDA ....|G-1 6FFA ....|--- .... ....
 E-4|..|E-2 2ADF ....|F-1 6FFF ....|--- .... ....
....|..|C-2 2FDA ....|D-1 6FFA ....|--- .... ....
 C-4|..|C-2 2ADF ....|D-1 6FFF ....|--- .... ....
....|..|E-2 2FDA ....|F-1 6FFA ....|--- .... ....
 G-4|..|G-2 2ADF ....|F-1 6FFF ....|--- .... ....
....|..|C-2 2FDA ....|G-1 6FFF ....|--- .... ....
 C-4|..|C-2 2ADF ....|F-1 6FF7 ....|--- .... ....
....|..|G-2 2FDA ....|G-1 6FFF ....|--- .... ....
 E-4|..|E-2 2ADF ....|D-1 6FF7 ....|--- .... ....
....|..|C-2 2FDA ....|R-- .... ....|--- .... ....
 C-4|..|C-2 2ADF ....|F-1 6FF7 ....|--- .... ....
....|..|E-2 2FDA ....|G-1 6FF7 ....|--- .... ....
 D#3|..|D#1 2ADF ....|D-3 6FFF ....|--- .... ....
....|..|C-2 2FDA ....|G-1 6FF7 ....|--- .... ....
 A#3|..|A#1 2ADF ....|--- .... ....|--- .... ....
....|..|D#1 2FDA ....|C-3 6FFF ....|--- .... ....
 D#4|..|D#2 2ADF ....|--- .... ....|--- .... ....
....|..|A#1 2FDA ....|--- .... ....|--- .... ....
 A#3|..|A#1 2ADF ....|A#2 6FFF ....|--- .... ....
....|..|D#2 2FDA ....|--- .... ....|--- .... ....
 D-3|..|D-1 2ADF ....|A#2 6FFF ....|--- .... ....
....|..|A#1 2FDA ....|D-3 6FFF ....|--- .... ....
 A-3|..|A-1 2ADF ....|--- .... ....|--- .... ....
....|..|D-1 2FDA ....|C-3 6FFF ....|--- .... ....
 D-4|..|D-2 2ADF ....|A#2 6FF7 ....|--- .... ....
....|..|A-1 2FDA ....|A#2 6FFF ....|--- .... ....
 A-3|..|A-1 2ADF ....|G-2 6FFF ....|--- .... ....
....|..|D-2 2FDA ....|D-3 6FF7 ....|--- .... ....

[Pattern21]
 G-3|..|G-1 2ADF ....|D-3 6FFF ....|--- .... ....
....|..|G-2 2FDA ....|G-1 6FF7 ....|--- .... ....
 D-4|..|D-2 2ADF ....|C-3 6FFF ....|--- .... ....
....|..|G-1 2FDA ....|D-3 6FFA ....|--- .... ....
 G-4|..|G-2 2ADF ....|A#2 6FFF ....|--- .... ....
....|..|D-2 2FDA ....|C-3 6FFA ....|--- .... ....
 D-4|..|D-2 2ADF ....|G-2 6FFF ....|--- .... ....
....|..|G-2 2FDA ....|A#2 6FFA ....|--- .... ....
 A#3|..|A#2 2CDF ....|C-3 6FF7 ....|--- .... ....
....|..|D-2 2FDA ....|G-2 6FFA ....|--- .... ....
 D-4|..|D-2 2ADF ....|A#2 6FF7 ....|--- .... ....
....|..|A#2 2FDA ....|R-- .... ....|--- .... ....
 G-4|..|G-2 2ADF ....|G-2 6FF7 ....|--- .... ....
....|..|D-2 2FDA ....|--- .... ....|--- .... ....
 D-4|..|D-2 2ADF ....|R-- .... ....|--- .... ....
....|..|G-2 2FDA ....|--- .... ....|--- .... ....
 F-3|..|F-1 2ADF ....|F-2 6FFF ....|--- .... ....
....|..|D-2 2FDA ....|--- .... ....|--- .... ....
 C-4|..|C-2 2ADF ....|G-2 6FFF ....|--- .... ....
....|..|F-1 2FDA ....|F-2 6FFA ....|--- .... ....
 F-4|..|F-2 2ADF ....|A#2 6FFF ....|--- .... ....
....|..|C-2 2FDA ....|G-2 6FFA ....|--- .... ....
 C-4|..|C-2 2ADF ....|G-2 6FFF ....|--- .... ....
....|..|F-2 2FDA ....|A#2 6FFA ....|--- .... ....
 A-3|..|A-2 2CDF ....|G-2 6FF7 ....|--- .... ....
....|..|C-2 2FDA ....|G-2 6FFA ....|--- .... ....
 C-4|..|C-2 2ADF ....|A#2 6FF7 ....|--- .... ....
....|..|A-2 2FDA ....|R-- .... ....|--- .... ....
 F-4|..|F-2 2ADF ....|G-2 6FF7 ....|--- .... ....
....|..|C-2 2FDA ....|--- .... ....|--- .... ....
 C-4|..|C-2 2ADF ....|R-- .... ....|--- .... ....
....|..|F-2 2FDA ....|--- .... ....|--- .... ....
 E-3|..|E-1 2ADF ....|D-2 6FFF ....|--- .... ....
....|..|C-2 2FDA ....|--- .... ....|--- .... ....
 C-4|..|C-2 2ADF ....|C-2 6FFF ....|--- .... ....
....|..|E-1 2FDA ....|D-2 6FFA ....|--- .... ....
 E-4|..|E-2 2ADF ....|A#1 6FFF ....|--- .... ....
....|..|C-2 2FDA ....|C-2 6FFA ....|--- .... ....
 C-4|..|C-2 2ADF ....|G-1 6FFF ....|--- .... ....
....|..|E-2 2FDA ....|A#1 6FFA ....|--- .... ....
 G-4|..|G-2 2ADF ....|C-2 6FF7 ....|--- .... ....
....|..|C-2 2FDA ....|G-1 6FFA ....|--- .... ....
 C-4|..|C-2 2ADF ....|A#1 6FF7 ....|--- .... ....
....|..|G-2 2FDA ....|R-- .... ....|--- .... ....
 E-4|..|E-2 2ADF ....|G-1 6FF7 ....|--- .... ....
....|..|C-2 2FDA ....|--- .... ....|--- .... ....
 C-4|..|C-2 2ADF ....|R-- .... ....|--- .... ....
....|..|E-2 2FDA ....|--- .... ....|--- .... ....
 A#3|..|A#2 2CDF ....|A#1 6FFF ....|--- .... ....
....|..|C-2 2FDA ....|--- .... ....|--- .... ....
 A#3|..|A#2 2CDF ....|A#1 6FFF ....|--- .... ....
....|..|A#2 2FDA ....|A#1 6FFA ....|--- .... ....
 C-3|..|C-3 2CDF ....|C-2 6FFF ....|--- .... ....
....|..|A#2 2FDA ....|A#1 6FFA ....|--- .... ....
 C-3|..|C-3 2CDF ....|C-2 6FFF ....|--- .... ....
....|..|C-3 2FDA ....|C-2 6FFA ....|--- .... ....
 G-4|..|G-2 2ADF ....|G-1 6FFF ....|--- .... ....
....|..|C-3 2FDA ....|C-2 6FFA ....|--- .... ....
 G-4|..|G-2 2ADF ....|G-1 6FFF ....|--- .... ....
....|..|G-2 2FDA ....|G-1 6FFA ....|--- .... ....
 G-4|..|G-2 2ADF ....|G-1 6FFF ....|--- .... ....
....|..|G-2 2FDA ....|G-1 6FFA ....|--- .... ....
 G-4|..|G-2 2ADF ....|G-1 6FFF ....|--- .... ....
....|..|G-2 2FDA ....|G-1 6FFA ....|--- .... ....

[Pattern22]
 G-3|..|G-1 2ADF ....|D-3 6FFF ....|--- .... ....
....|..|G-2 2FDA ....|G-1 6FFA ....|--- .... ....
 D-4|..|D-2 2ADF ....|C-3 6FFF ....|--- .... ....
....|..|G-1 2FDA ....|D-3 6FFA ....|--- .... ....
 G-4|..|G-2 2ADF ....|A#2 6FFF ....|--- .... ....
....|..|D-2 2FDA ....|C-3 6FFA ....|--- .... ....
 D-4|..|D-2 2ADF ....|G-2 6FFF ....|--- .... ....
....|..|G-2 2FDA ....|A#2 6FFA ....|--- .... ....
 A#3|..|A#2 2CDF ....|D-2 6FFF ....|--- .... ....
....|..|D-2 2FDA ....|G-2 6FFA ....|--- .... ....
 D-4|..|D-2 2ADF ....|C-2 6FFF ....|--- .... ....
....|..|A#2 2FDA ....|D-2 6FFA ....|--- .... ....
 G-4|..|G-2 2ADF ....|A#1 6FFF ....|--- .... ....
....|..|D-2 2FDA ....|C-2 6FFA ....|--- .... ....
 D-4|..|D-2 2ADF ....|G-1 6FFF ....|--- .... ....
....|..|G-2 2FDA ....|A#1 6FFA ....|--- .... ....
 F-3|..|F-1 2ADF ....|F-2 6FFF ....|--- .... ....
....|..|D-2 2FDA ....|G-1 6FFA ....|--- .... ....
 C-4|..|C-2 2ADF ....|G-2 6FFF ....|--- .... ....
....|..|F-1 2FDA ....|F-2 6FFA ....|--- .... ....
 F-4|..|F-2 2ADF ....|A#2 6FFF ....|--- .... ....
....|..|C-2 2FDA ....|G-2 6FFA ....|--- .... ....
 C-4|..|C-2 2ADF ....|G-2 6FFF ....|--- .... ....
....|..|F-2 2FDA ....|A#2 6FFA ....|--- .... ....
 A-3|..|A-2 2CDF ....|F-1 6FFF ....|--- .... ....
....|..|C-2 2FDA ....|G-2 6FFA ....|--- .... ....
 C-4|..|C-2 2ADF ....|G-1 6FFF ....|--- .... ....
....|..|A-2 2FDA ....|F-1 6FFA ....|--- .... ....
 F-4|..|F-2 2ADF ....|A#1 6FFF ....|--- .... ....
....|..|C-2 2FDA ....|G-1 6FFA ....|--- .... ....
 C-4|..|C-2 2ADF ....|G-1 6FFF ....|--- .... ....
....|..|F-2 2FDA ....|A#1 6FFA ....|--- .... ....
 E-3|..|E-1 2ADF ....|D-2 6FFF ....|--- .... ....
....|..|C-2 2FDA ....|G-1 6FFA ....|--- .... ....
 C-4|..|C-2 2ADF ....|C-2 6FFF ....|--- .... ....
....|..|E-1 2FDA ....|D-2 6FFA ....|--- .... ....
 E-4|..|E-2 2ADF ....|A#1 6FFF ....|--- .... ....
....|..|C-2 2FDA ....|C-2 6FFA ....|--- .... ....
 C-4|..|C-2 2ADF ....|G-1 6FFF ....|--- .... ....
....|..|E-2 2FDA ....|A#1 6FFA ....|--- .... ....
 G-4|..|G-2 2ADF ....|D-3 6FFF ....|--- .... ....
....|..|C-2 2FDA ....|G-1 6FFA ....|--- .... ....
 C-4|..|C-2 2ADF ....|C-3 6FFF ....|--- .... ....
....|..|G-2 2FDA ....|D-3 6FFA ....|--- .... ....
 E-4|..|E-2 2ADF ....|A#2 6FFF ....|--- .... ....
....|..|C-2 2FDA ....|C-3 6FFA ....|--- .... ....
 C-4|..|C-2 2ADF ....|G-2 6FFF ....|--- .... ....
....|..|E-2 2FDA ....|A#2 6FFA ....|--- .... ....
 D#3|..|D#1 2ADF ....|G-2 6FFF ....|--- .... ....
....|..|C-2 2FDA ....|G-2 6FFA ....|--- .... ....
 A#3|..|A#1 2ADF ....|G-2 6FFF ....|--- .... ....
....|..|D#1 2FDA ....|G-2 6FFA ....|--- .... ....
 D#4|..|D#2 2ADF ....|G-2 6FFF ....|--- .... ....
....|..|A#1 2FDA ....|G-2 6FFA ....|--- .... ....
 A#3|..|A#1 2ADF ....|G-2 6FFF ....|--- .... ....
....|..|D#2 2FDA ....|G-2 6FFA ....|--- .... ....
 G-4|..|G-2 2ADF ....|G-2 6FF7 ....|--- .... ....
....|..|A#1 2FDA ....|G-2 6FFA ....|--- .... ....
 G-4|..|G-2 2ADF ....|G-2 6FF7 ....|--- .... ....
....|..|G-2 2FDA ....|R-- .... ....|--- .... ....
 G-4|..|G-2 2ADF ....|G-2 6FF7 ....|--- .... ....
....|..|G-2 2FDA ....|--- .... ....|--- .... ....
 G-4|..|G-2 2ADF ....|R-- .... ....|--- .... ....
....|..|G-2 2FDA ....|--- .... ....|--- .... ....

[Pattern23]
....|..|G-2 2FD7 ....|--- .... ....|--- .... ....
....|..|G-2 2FDA ....|--- .... ....|--- .... ....
....|..|G-2 2FD7 ....|--- .... ....|--- .... ....
....|..|R-- .... ....|--- .... ....|--- .... ....
....|..|G-2 2FD7 ....|--- .... ....|--- .... ....
....|..|--- .... ....|--- .... ....|--- .... ....

