[Module]
VortexTrackerII=0
Version=3.5
Title=3me[2d],2m[6f],1m[1e]
Author=oisee ^ 4d 29.05.2010
NoteTable=4
Speed=3
PlayOrder=L0,1,2,3,4,1,5,6,4,1,2,7,8,9,10,11,12,13,14,15,16,17,18,19,20,21,22,23,24,25,26,27,28,29,30,31,32,33,34,35,32,33,36,37,38,39,40

[Ornament13]
12,12,L0

[Ornament14]
12,L0

[Ornament15]
12,L0

[Sample1]
TnE +000_ +00_ F_
TnE +000_ +00_ F_
TnE +000_ +00_ F_
TnE +000_ +00_ D_
TnE +000_ +00_ B_
TnE +000_ +00_ B_ L

[Sample2]
TnE +000_ +00_ F_ L

[Sample6]
TNE +000_ +00_ D_
TnE +000_ +00_ E_ L

[Pattern0]
..1E|..|G-1 2ADF ....|G-3 6FFF ....|--- .... ....
....|..|--- .... ....|--- .... ....|--- .... ....
....|..|--- .... ....|--- .... ....|--- .... ....
....|..|--- .... ....|--- .... ....|--- .... ....
..14|..|D-2 .AD. ....|G-3 .... ....|--- .... ....
....|..|--- .... ....|--- .... ....|--- .... ....
....|..|G-1 .FDA ....|G-3 ...A ....|--- .... ....
....|..|--- .... ....|--- .... ....|--- .... ....
...F|..|G-2 .ADF ....|R-- .... ....|--- .... ....
....|..|--- .... ....|--- .... ....|--- .... ....
....|..|D-2 .FDA ....|G-3 .... ....|--- .... ....
....|..|--- .... ....|--- .... ....|--- .... ....
....|..|G-1 ...7 ....|G-3 ...7 ....|--- .... ....
....|..|--- .... ....|--- .... ....|--- .... ....
....|..|G-2 ...A ....|R-- .... ....|--- .... ....
....|..|--- .... ....|--- .... ....|--- .... ....
....|..|D-2 ...7 ....|G-4 ...F ....|--- .... ....
....|..|--- .... ....|--- .... ....|--- .... ....
....|..|R-- .... ....|--- .... ....|--- .... ....
....|..|--- .... ....|--- .... ....|--- .... ....
....|..|G-2 .... ....|G-4 .... ....|--- .... ....
....|..|--- .... ....|--- .... ....|--- .... ....
....|..|--- .... ....|G-4 ...A ....|--- .... ....
....|..|--- .... ....|--- .... ....|--- .... ....
....|..|R-- .... ....|R-- .... ....|--- .... ....
....|..|--- .... ....|--- .... ....|--- .... ....
....|..|--- .... ....|G-4 .... ....|--- .... ....
....|..|--- .... ....|--- .... ....|--- .... ....
....|..|--- .... ....|G-4 ...7 ....|--- .... ....
....|..|--- .... ....|--- .... ....|--- .... ....
....|..|--- .... ....|R-- .... ....|--- .... ....
....|..|--- .... ....|--- .... ....|--- .... ....
..19|..|A#1 .ADF ....|A#3 ...F ....|--- .... ....
....|..|--- .... ....|--- .... ....|--- .... ....
....|..|--- .... ....|--- .... ....|--- .... ....
....|..|--- .... ....|--- .... ....|--- .... ....
..11|..|F-2 .AD. ....|A#3 .... ....|--- .... ....
....|..|--- .... ....|--- .... ....|--- .... ....
....|..|A#1 .FDA ....|A#3 ...A ....|--- .... ....
....|..|--- .... ....|--- .... ....|--- .... ....
..19|..|A#2 .CDF ....|R-- .... ....|--- .... ....
....|..|--- .... ....|--- .... ....|--- .... ....
....|..|F-2 .FDA ....|A#3 .... ....|--- .... ....
....|..|--- .... ....|--- .... ....|--- .... ....
....|..|A#1 ...7 ....|A#3 ...7 ....|--- .... ....
....|..|--- .... ....|--- .... ....|--- .... ....
....|..|A#2 ...A ....|R-- .... ....|--- .... ....
....|..|--- .... ....|--- .... ....|--- .... ....
....|..|F-2 ...7 ....|A#4 ...F ....|--- .... ....
....|..|--- .... ....|--- .... ....|--- .... ....
....|..|R-- .... ....|--- .... ....|--- .... ....
....|..|--- .... ....|--- .... ....|--- .... ....
....|..|A#2 .... ....|A#4 .... ....|--- .... ....
....|..|--- .... ....|--- .... ....|--- .... ....
....|..|--- .... ....|A#4 ...A ....|--- .... ....
....|..|--- .... ....|--- .... ....|--- .... ....
....|..|R-- .... ....|R-- .... ....|--- .... ....
....|..|--- .... ....|--- .... ....|--- .... ....
....|..|--- .... ....|A#4 .... ....|--- .... ....
....|..|--- .... ....|--- .... ....|--- .... ....
....|..|--- .... ....|A#4 ...7 ....|--- .... ....
....|..|--- .... ....|--- .... ....|--- .... ....
....|..|--- .... ....|R-- .... ....|--- .... ....
....|..|--- .... ....|--- .... ....|--- .... ....

[Pattern1]
..16|..|C-2 2ADF ....|A#4 6FF7 ....|F-5 1FEF ....
....|..|--- .... ....|--- .... ....|--- .... ....
....|..|--- .... ....|--- .... ....|--- .... ....
....|..|--- .... ....|--- .... ....|--- .... ....
...F|..|G-2 .AD. ....|R-- .... ....|G-5 .... ....
....|..|--- .... ....|--- .... ....|--- .... ....
....|..|C-2 .FDA ....|--- .... ....|F-5 ...A ....
....|..|--- .... ....|--- .... ....|--- .... ....
..2D|..|C-3 .CDF ....|--- .... ....|R-- .... ....
....|..|--- .... ....|--- .... ....|--- .... ....
....|..|G-2 .FDA ....|--- .... ....|G-5 .... ....
....|..|--- .... ....|--- .... ....|--- .... ....
...F|..|G-2 .ADF ....|--- .... ....|F-5 ...7 ....
....|..|--- .... ....|--- .... ....|--- .... ....
....|..|C-3 .FDA ....|--- .... ....|R-- .... ....
....|..|--- .... ....|--- .... ....|--- .... ....
..13|..|D#3 .CDF ....|--- .... ....|G-5 .... ....
....|..|--- .... ....|--- .... ....|--- .... ....
....|..|G-2 .FDA ....|--- .... ....|--- .... ....
....|..|--- .... ....|--- .... ....|--- .... ....
...F|..|G-2 .ADF ....|--- .... ....|R-- .... ....
....|..|--- .... ....|--- .... ....|--- .... ....
....|..|D#3 .FDA ....|--- .... ....|--- .... ....
....|..|--- .... ....|--- .... ....|--- .... ....
..2D|..|C-3 .CDF ....|--- .... ....|G-5 ...F ....
....|..|--- .... ....|--- .... ....|--- .... ....
....|..|G-2 .FDA ....|--- .... ....|F-5 .... ....
....|..|--- .... ....|--- .... ....|--- .... ....
...F|..|G-2 .ADF ....|D-5 ...F ....|R-- .... ....
....|..|--- .... ....|--- .... ....|--- .... ....
....|..|C-3 .FDA ....|--- .... ....|G-5 ...A ....
....|..|--- .... ....|--- .... ....|--- .... ....
..16|..|C-2 .ADF ....|R-- .... ....|F-5 ...F ....
....|..|--- .... ....|--- .... ....|--- .... ....
....|..|G-2 .FDA ....|D-5 ...A ....|R-- .... ....
....|..|--- .... ....|--- .... ....|--- .... ....
...F|..|G-2 .ADF ....|--- .... ....|G-5 ...7 ....
....|..|--- .... ....|--- .... ....|--- .... ....
....|..|C-2 .FDA ....|R-- .... ....|F-5 .... ....
....|..|--- .... ....|--- .... ....|--- .... ....
..2D|..|C-3 .CDF ....|D-5 ...7 ....|R-- .... ....
....|..|--- .... ....|--- .... ....|--- .... ....
....|..|G-2 .FDA ....|--- .... ....|--- .... ....
....|..|--- .... ....|--- .... ....|--- .... ....
...F|..|G-2 .ADF ....|R-- .... ....|F-5 .... ....
....|..|--- .... ....|--- .... ....|--- .... ....
....|..|C-3 .FDA ....|--- .... ....|--- .... ....
....|..|--- .... ....|--- .... ....|--- .... ....
..13|..|D#3 .CDF ....|A#4 ...F ....|--- .... ....
....|..|--- .... ....|--- .... ....|--- .... ....
....|..|G-2 .FDA ....|--- .... ....|R-- .... ....
....|..|--- .... ....|--- .... ....|--- .... ....
...F|..|G-2 .ADF ....|--- .... ....|--- .... ....
....|..|--- .... ....|--- .... ....|--- .... ....
....|..|D#3 .FDA ....|A#4 ...A ....|--- .... ....
....|..|--- .... ....|--- .... ....|--- .... ....
..2D|..|C-3 .CDF ....|--- .... ....|R-- .... ....
....|..|--- .... ....|--- .... ....|--- .... ....
....|..|G-2 .FDA ....|--- .... ....|--- .... ....
....|..|--- .... ....|--- .... ....|--- .... ....
...F|..|G-2 .ADF ....|A#4 ...7 ....|--- .... ....
....|..|--- .... ....|--- .... ....|--- .... ....
....|..|C-3 .FDA ....|--- .... ....|--- .... ....
....|..|--- .... ....|--- .... ....|--- .... ....

[Pattern2]
..1E|..|G-1 2ADF ....|--- .... ....|--- .... ....
....|..|--- .... ....|--- .... ....|--- .... ....
....|..|G-2 .FDA ....|R-- .... ....|--- .... ....
....|..|--- .... ....|--- .... ....|--- .... ....
..14|..|D-2 .ADF ....|--- .... ....|--- .... ....
....|..|--- .... ....|--- .... ....|--- .... ....
....|..|G-1 .FDA ....|--- .... ....|--- .... ....
....|..|--- .... ....|--- .... ....|--- .... ....
...F|..|G-2 .ADF ....|D-5 6FFF ....|--- .... ....
....|..|--- .... ....|--- .... ....|--- .... ....
....|..|D-2 .FDA ....|--- .... ....|--- .... ....
....|..|--- .... ....|--- .... ....|--- .... ....
....|..|G-1 ...7 ....|C-5 .... ....|--- .... ....
....|..|--- .... ....|--- .... ....|--- .... ....
....|..|G-2 ...A ....|D-5 ...A ....|--- .... ....
....|..|--- .... ....|--- .... ....|--- .... ....
..22|..|F-1 .ADF ....|R-- .... ....|--- .... ....
....|..|--- .... ....|--- .... ....|--- .... ....
....|..|--- .... ....|C-5 .... ....|--- .... ....
....|..|--- .... ....|--- .... ....|--- .... ....
..16|..|C-2 .AD. ....|D-5 ...7 ....|--- .... ....
....|..|--- .... ....|--- .... ....|--- .... ....
....|..|F-1 .FDA ....|R-- .... ....|--- .... ....
....|..|--- .... ....|--- .... ....|--- .... ....
..11|..|F-2 .ADF ....|C-5 ...F ....|--- .... ....
....|..|--- .... ....|--- .... ....|--- .... ....
....|..|C-2 .FDA ....|--- .... ....|--- .... ....
....|..|--- .... ....|--- .... ....|--- .... ....
....|..|F-1 ...7 ....|A#4 .... ....|--- .... ....
....|..|--- .... ....|--- .... ....|--- .... ....
....|..|F-2 ...A ....|C-5 ...A ....|--- .... ....
....|..|--- .... ....|--- .... ....|--- .... ....
..26|..|D#1 .ADF ....|R-- .... ....|--- .... ....
....|..|--- .... ....|--- .... ....|--- .... ....
....|..|--- .... ....|A#4 .... ....|--- .... ....
....|..|--- .... ....|--- .... ....|--- .... ....
..19|..|A#1 .AD. ....|C-5 ...7 ....|--- .... ....
....|..|--- .... ....|--- .... ....|--- .... ....
....|..|D#1 .FDA ....|R-- .... ....|--- .... ....
....|..|--- .... ....|--- .... ....|--- .... ....
..13|..|D#2 .ADF ....|A-4 ...F ....|--- .... ....
....|..|--- .... ....|--- .... ....|--- .... ....
....|..|A#1 .FDA ....|--- .... ....|--- .... ....
....|..|--- .... ....|--- .... ....|--- .... ....
....|..|D#1 ...7 ....|G-4 .... ....|--- .... ....
....|..|--- .... ....|--- .... ....|--- .... ....
....|..|D#2 ...A ....|A-4 ...A ....|--- .... ....
....|..|--- .... ....|--- .... ....|--- .... ....
..28|..|D-1 .ADF ....|R-- .... ....|--- .... ....
....|..|--- .... ....|--- .... ....|--- .... ....
....|..|--- .... ....|G-4 .... ....|--- .... ....
....|..|--- .... ....|--- .... ....|--- .... ....
..1B|..|A-1 .AD. ....|A-4 ...7 ....|--- .... ....
....|..|--- .... ....|--- .... ....|--- .... ....
....|..|D-1 .FDA ....|R-- .... ....|--- .... ....
....|..|--- .... ....|--- .... ....|--- .... ....
..14|..|D-2 .ADF ....|D-4 ...F ....|--- .... ....
....|..|--- .... ....|--- .... ....|--- .... ....
....|..|A-1 .FDA ....|--- .... ....|--- .... ....
....|..|--- .... ....|--- .... ....|--- .... ....
....|..|D-1 ...7 ....|C-4 .... ....|--- .... ....
....|..|--- .... ....|--- .... ....|--- .... ....
....|..|D-2 ...A ....|D-4 ...A ....|--- .... ....
....|..|--- .... ....|--- .... ....|--- .... ....

[Pattern3]
..2D|..|C-1 2ADF ....|R-- .... ....|F-5 1FEF ....
....|..|--- .... ....|--- .... ....|--- .... ....
....|..|--- .... ....|C-4 6FFA ....|--- .... ....
....|..|--- .... ....|--- .... ....|--- .... ....
..1E|..|G-1 .AD. ....|D-4 ...7 ....|G-5 .... ....
....|..|--- .... ....|--- .... ....|--- .... ....
....|..|C-1 .FDA ....|R-- .... ....|F-5 ...A ....
....|..|--- .... ....|--- .... ....|--- .... ....
..16|..|C-2 .ADF ....|C-4 .... ....|R-- .... ....
....|..|--- .... ....|--- .... ....|--- .... ....
....|..|G-1 .FDA ....|--- .... ....|G-5 .... ....
....|..|--- .... ....|--- .... ....|--- .... ....
..1E|..|G-1 .ADF ....|R-- .... ....|F-5 ...7 ....
....|..|--- .... ....|--- .... ....|--- .... ....
....|..|C-2 .FDA ....|--- .... ....|R-- .... ....
....|..|--- .... ....|--- .... ....|--- .... ....
..13|..|D#2 .ADF ....|--- .... ....|G-5 .... ....
....|..|--- .... ....|--- .... ....|--- .... ....
....|..|G-1 .FDA ....|--- .... ....|--- .... ....
....|..|--- .... ....|--- .... ....|--- .... ....
..1E|..|G-1 .ADF ....|--- .... ....|R-- .... ....
....|..|--- .... ....|--- .... ....|--- .... ....
....|..|D#2 .FDA ....|--- .... ....|--- .... ....
....|..|--- .... ....|--- .... ....|--- .... ....
..16|..|C-2 .ADF ....|--- .... ....|G-5 ...F ....
....|..|--- .... ....|--- .... ....|--- .... ....
....|..|G-1 .FDA ....|--- .... ....|F-5 .... ....
....|..|--- .... ....|--- .... ....|--- .... ....
..1E|..|G-1 .ADF ....|D-5 ...F ....|R-- .... ....
....|..|--- .... ....|--- .... ....|--- .... ....
....|..|C-2 .FDA ....|--- .... ....|G-5 ...A ....
....|..|--- .... ....|--- .... ....|--- .... ....
..2D|..|C-1 .ADF ....|R-- .... ....|F-5 ...F ....
....|..|--- .... ....|--- .... ....|--- .... ....
....|..|G-1 .FDA ....|D-5 ...A ....|R-- .... ....
....|..|--- .... ....|--- .... ....|--- .... ....
..1E|..|G-1 .ADF ....|--- .... ....|G-5 ...7 ....
....|..|--- .... ....|--- .... ....|--- .... ....
....|..|C-1 .FDA ....|R-- .... ....|F-5 .... ....
....|..|--- .... ....|--- .... ....|--- .... ....
..16|..|C-2 .ADF ....|D-5 ...7 ....|R-- .... ....
....|..|--- .... ....|--- .... ....|--- .... ....
....|..|G-1 .FDA ....|--- .... ....|--- .... ....
....|..|--- .... ....|--- .... ....|--- .... ....
..1E|..|G-1 .ADF ....|R-- .... ....|F-5 .... ....
....|..|--- .... ....|--- .... ....|--- .... ....
....|..|C-2 .FDA ....|--- .... ....|--- .... ....
....|..|--- .... ....|--- .... ....|--- .... ....
..13|..|D#2 .ADF ....|A#4 ...F ....|--- .... ....
....|..|--- .... ....|--- .... ....|--- .... ....
....|..|G-1 .FDA ....|--- .... ....|R-- .... ....
....|..|--- .... ....|--- .... ....|--- .... ....
..1E|..|G-1 .ADF ....|--- .... ....|--- .... ....
....|..|--- .... ....|--- .... ....|--- .... ....
....|..|D#2 .FDA ....|A#4 ...A ....|--- .... ....
....|..|--- .... ....|--- .... ....|--- .... ....
..16|..|C-2 .ADF ....|--- .... ....|R-- .... ....
....|..|--- .... ....|--- .... ....|--- .... ....
....|..|G-1 .FDA ....|--- .... ....|--- .... ....
....|..|--- .... ....|--- .... ....|--- .... ....
..1E|..|G-1 .ADF ....|A#4 ...7 ....|--- .... ....
....|..|--- .... ....|--- .... ....|--- .... ....
....|..|C-2 .FDA ....|--- .... ....|--- .... ....
....|..|--- .... ....|--- .... ....|--- .... ....

[Pattern4]
..1E|..|G-1 2ADF ....|G-3 6FFF ....|--- .... ....
....|..|--- .... ....|--- .... ....|--- .... ....
....|..|G-1 .FDA ....|R-- .... ....|--- .... ....
....|..|--- .... ....|--- .... ....|--- .... ....
..14|..|D-2 .ADF ....|G-3 .... ....|--- .... ....
....|..|--- .... ....|--- .... ....|--- .... ....
....|..|G-1 .FDA ....|G-3 ...A ....|--- .... ....
....|..|--- .... ....|--- .... ....|--- .... ....
...F|..|G-2 .ADF ....|R-- .... ....|--- .... ....
....|..|--- .... ....|--- .... ....|--- .... ....
....|..|D-2 .FDA ....|G-3 .... ....|--- .... ....
....|..|--- .... ....|--- .... ....|--- .... ....
....|..|G-1 ...7 ....|G-3 ...7 ....|--- .... ....
....|..|--- .... ....|--- .... ....|--- .... ....
....|..|G-2 ...A ....|R-- .... ....|--- .... ....
....|..|--- .... ....|--- .... ....|--- .... ....
....|..|D-2 ...7 ....|G-4 ...F ....|--- .... ....
....|..|--- .... ....|--- .... ....|--- .... ....
....|..|R-- .... ....|--- .... ....|--- .... ....
....|..|--- .... ....|--- .... ....|--- .... ....
....|..|G-2 .... ....|G-4 .... ....|--- .... ....
....|..|--- .... ....|--- .... ....|--- .... ....
....|..|--- .... ....|G-4 ...A ....|--- .... ....
....|..|--- .... ....|--- .... ....|--- .... ....
....|..|R-- .... ....|R-- .... ....|--- .... ....
....|..|--- .... ....|--- .... ....|--- .... ....
....|..|--- .... ....|G-4 .... ....|--- .... ....
....|..|--- .... ....|--- .... ....|--- .... ....
....|..|--- .... ....|G-4 ...7 ....|--- .... ....
....|..|--- .... ....|--- .... ....|--- .... ....
....|..|--- .... ....|R-- .... ....|--- .... ....
....|..|--- .... ....|--- .... ....|--- .... ....
..19|..|A#1 .ADF ....|A#3 ...F ....|--- .... ....
....|..|--- .... ....|--- .... ....|--- .... ....
....|..|--- .... ....|--- .... ....|--- .... ....
....|..|--- .... ....|--- .... ....|--- .... ....
..11|..|F-2 .AD. ....|A#3 .... ....|--- .... ....
....|..|--- .... ....|--- .... ....|--- .... ....
....|..|A#1 .FDA ....|A#3 ...A ....|--- .... ....
....|..|--- .... ....|--- .... ....|--- .... ....
..19|..|A#2 .CDF ....|R-- .... ....|--- .... ....
....|..|--- .... ....|--- .... ....|--- .... ....
....|..|F-2 .FDA ....|A#3 .... ....|--- .... ....
....|..|--- .... ....|--- .... ....|--- .... ....
....|..|A#1 ...7 ....|A#3 ...7 ....|--- .... ....
....|..|--- .... ....|--- .... ....|--- .... ....
....|..|A#2 ...A ....|R-- .... ....|--- .... ....
....|..|--- .... ....|--- .... ....|--- .... ....
....|..|F-2 ...7 ....|A#4 ...F ....|--- .... ....
....|..|--- .... ....|--- .... ....|--- .... ....
....|..|R-- .... ....|--- .... ....|--- .... ....
....|..|--- .... ....|--- .... ....|--- .... ....
....|..|A#2 .... ....|A#4 .... ....|--- .... ....
....|..|--- .... ....|--- .... ....|--- .... ....
....|..|--- .... ....|A#4 ...A ....|--- .... ....
....|..|--- .... ....|--- .... ....|--- .... ....
....|..|R-- .... ....|R-- .... ....|--- .... ....
....|..|--- .... ....|--- .... ....|--- .... ....
....|..|--- .... ....|A#4 .... ....|--- .... ....
....|..|--- .... ....|--- .... ....|--- .... ....
....|..|--- .... ....|A#4 ...7 ....|--- .... ....
....|..|--- .... ....|--- .... ....|--- .... ....
....|..|--- .... ....|R-- .... ....|--- .... ....
....|..|--- .... ....|--- .... ....|--- .... ....

[Pattern5]
..1E|..|G-1 2ADF ....|--- .... ....|--- .... ....
....|..|--- .... ....|--- .... ....|--- .... ....
....|..|G-2 .FDA ....|R-- .... ....|--- .... ....
....|..|--- .... ....|--- .... ....|--- .... ....
..14|..|D-2 .ADF ....|--- .... ....|--- .... ....
....|..|--- .... ....|--- .... ....|--- .... ....
....|..|G-1 .FDA ....|--- .... ....|--- .... ....
....|..|--- .... ....|--- .... ....|--- .... ....
...F|..|G-2 .ADF ....|G-4 6FFF ....|--- .... ....
....|..|--- .... ....|--- .... ....|--- .... ....
....|..|D-2 .FDA ....|--- .... ....|--- .... ....
....|..|--- .... ....|--- .... ....|--- .... ....
....|..|G-1 ...7 ....|F-4 .... ....|--- .... ....
....|..|--- .... ....|--- .... ....|--- .... ....
....|..|G-2 ...A ....|G-4 ...A ....|--- .... ....
....|..|--- .... ....|--- .... ....|--- .... ....
..22|..|F-1 .ADF ....|R-- .... ....|--- .... ....
....|..|--- .... ....|--- .... ....|--- .... ....
....|..|--- .... ....|F-4 .... ....|--- .... ....
....|..|--- .... ....|--- .... ....|--- .... ....
..16|..|C-2 .AD. ....|G-4 ...7 ....|--- .... ....
....|..|--- .... ....|--- .... ....|--- .... ....
....|..|F-1 .FDA ....|R-- .... ....|--- .... ....
....|..|--- .... ....|--- .... ....|--- .... ....
..11|..|F-2 .ADF ....|C-5 ...F ....|--- .... ....
....|..|--- .... ....|--- .... ....|--- .... ....
....|..|C-2 .FDA ....|--- .... ....|--- .... ....
....|..|--- .... ....|--- .... ....|--- .... ....
....|..|F-1 ...7 ....|A#4 .... ....|--- .... ....
....|..|--- .... ....|--- .... ....|--- .... ....
....|..|F-2 ...A ....|C-5 ...A ....|--- .... ....
....|..|--- .... ....|--- .... ....|--- .... ....
..26|..|D#1 .ADF ....|R-- .... ....|--- .... ....
....|..|--- .... ....|--- .... ....|--- .... ....
....|..|--- .... ....|A#4 .... ....|--- .... ....
....|..|--- .... ....|--- .... ....|--- .... ....
..19|..|A#1 .AD. ....|C-5 ...7 ....|--- .... ....
....|..|--- .... ....|--- .... ....|--- .... ....
....|..|D#1 .FDA ....|R-- .... ....|--- .... ....
....|..|--- .... ....|--- .... ....|--- .... ....
..13|..|D#2 .ADF ....|D-5 ...F ....|--- .... ....
....|..|--- .... ....|--- .... ....|--- .... ....
....|..|A#1 .FDA ....|--- .... ....|--- .... ....
....|..|--- .... ....|--- .... ....|--- .... ....
....|..|D#1 ...7 ....|C-5 .... ....|--- .... ....
....|..|--- .... ....|--- .... ....|--- .... ....
....|..|D#2 ...A ....|D-5 ...A ....|--- .... ....
....|..|--- .... ....|--- .... ....|--- .... ....
..28|..|D-1 .ADF ....|R-- .... ....|--- .... ....
....|..|--- .... ....|--- .... ....|--- .... ....
....|..|--- .... ....|C-5 .... ....|--- .... ....
....|..|--- .... ....|--- .... ....|--- .... ....
..1B|..|A-1 .AD. ....|D-5 ...7 ....|--- .... ....
....|..|--- .... ....|--- .... ....|--- .... ....
....|..|D-1 .FDA ....|R-- .... ....|--- .... ....
....|..|--- .... ....|--- .... ....|--- .... ....
..14|..|D-2 .ADF ....|A-3 ...F ....|--- .... ....
....|..|--- .... ....|--- .... ....|--- .... ....
....|..|A-1 .FDA ....|--- .... ....|--- .... ....
....|..|--- .... ....|--- .... ....|--- .... ....
....|..|D-1 ...7 ....|G-3 .... ....|--- .... ....
....|..|--- .... ....|--- .... ....|--- .... ....
....|..|D-2 ...A ....|A-3 ...A ....|--- .... ....
....|..|--- .... ....|--- .... ....|--- .... ....

[Pattern6]
..2D|..|C-1 2ADF ....|R-- .... ....|F-5 1FEF ....
....|..|--- .... ....|--- .... ....|--- .... ....
....|..|--- .... ....|G-3 6FFA ....|--- .... ....
....|..|--- .... ....|--- .... ....|--- .... ....
..1E|..|G-1 .AD. ....|A-3 ...7 ....|G-5 .... ....
....|..|--- .... ....|--- .... ....|--- .... ....
....|..|C-1 .FDA ....|R-- .... ....|F-5 ...A ....
....|..|--- .... ....|--- .... ....|--- .... ....
..16|..|C-2 .ADF ....|G-3 .... ....|R-- .... ....
....|..|--- .... ....|--- .... ....|--- .... ....
....|..|G-1 .FDA ....|--- .... ....|G-5 .... ....
....|..|--- .... ....|--- .... ....|--- .... ....
..1E|..|G-1 .ADF ....|R-- .... ....|F-5 ...7 ....
....|..|--- .... ....|--- .... ....|--- .... ....
....|..|C-2 .FDA ....|--- .... ....|R-- .... ....
....|..|--- .... ....|--- .... ....|--- .... ....
..13|..|D#2 .ADF ....|--- .... ....|G-5 .... ....
....|..|--- .... ....|--- .... ....|--- .... ....
....|..|G-1 .FDA ....|--- .... ....|--- .... ....
....|..|--- .... ....|--- .... ....|--- .... ....
..1E|..|G-1 .ADF ....|--- .... ....|R-- .... ....
....|..|--- .... ....|--- .... ....|--- .... ....
....|..|D#2 .FDA ....|--- .... ....|--- .... ....
....|..|--- .... ....|--- .... ....|--- .... ....
..16|..|C-2 .ADF ....|--- .... ....|G-5 ...F ....
....|..|--- .... ....|--- .... ....|--- .... ....
....|..|G-1 .FDA ....|--- .... ....|F-5 .... ....
....|..|--- .... ....|--- .... ....|--- .... ....
..1E|..|G-1 .ADF ....|D-5 ...F ....|R-- .... ....
....|..|--- .... ....|--- .... ....|--- .... ....
....|..|C-2 .FDA ....|--- .... ....|G-5 ...A ....
....|..|--- .... ....|--- .... ....|--- .... ....
..2D|..|C-1 .ADF ....|R-- .... ....|F-5 ...F ....
....|..|--- .... ....|--- .... ....|--- .... ....
....|..|G-1 .FDA ....|D-5 ...A ....|R-- .... ....
....|..|--- .... ....|--- .... ....|--- .... ....
..1E|..|G-1 .ADF ....|--- .... ....|G-5 ...7 ....
....|..|--- .... ....|--- .... ....|--- .... ....
....|..|C-1 .FDA ....|R-- .... ....|F-5 .... ....
....|..|--- .... ....|--- .... ....|--- .... ....
..16|..|C-2 .ADF ....|D-5 ...7 ....|R-- .... ....
....|..|--- .... ....|--- .... ....|--- .... ....
....|..|G-1 .FDA ....|--- .... ....|--- .... ....
....|..|--- .... ....|--- .... ....|--- .... ....
..1E|..|G-1 .ADF ....|R-- .... ....|F-5 .... ....
....|..|--- .... ....|--- .... ....|--- .... ....
....|..|C-2 .FDA ....|--- .... ....|--- .... ....
....|..|--- .... ....|--- .... ....|--- .... ....
..13|..|D#2 .ADF ....|A#4 ...F ....|--- .... ....
....|..|--- .... ....|--- .... ....|--- .... ....
....|..|G-1 .FDA ....|--- .... ....|R-- .... ....
....|..|--- .... ....|--- .... ....|--- .... ....
..1E|..|G-1 .ADF ....|--- .... ....|--- .... ....
....|..|--- .... ....|--- .... ....|--- .... ....
....|..|D#2 .FDA ....|A#4 ...A ....|--- .... ....
....|..|--- .... ....|--- .... ....|--- .... ....
..16|..|C-2 .ADF ....|--- .... ....|R-- .... ....
....|..|--- .... ....|--- .... ....|--- .... ....
....|..|G-1 .FDA ....|--- .... ....|--- .... ....
....|..|--- .... ....|--- .... ....|--- .... ....
..1E|..|G-1 .ADF ....|A#4 ...7 ....|--- .... ....
....|..|--- .... ....|--- .... ....|--- .... ....
....|..|C-2 .FDA ....|--- .... ....|--- .... ....
....|..|--- .... ....|--- .... ....|--- .... ....

[Pattern7]
..16|..|C-2 2ADF ....|D-5 6FFF ....|G-5 1FEF ....
....|..|--- .... ....|--- .... ....|--- .... ....
....|..|--- .... ....|C-4 ...A ....|--- .... ....
....|..|--- .... ....|--- .... ....|--- .... ....
....|..|D-2 .FD7 ....|C-5 ...F ....|F-5 .... ....
....|..|--- .... ....|--- .... ....|--- .... ....
....|..|C-2 ...A ....|D-5 ...A ....|G-5 ...A ....
....|..|--- .... ....|--- .... ....|--- .... ....
..16|..|C-2 .ADF ....|D-5 ...F ....|G-5 ...F ....
....|..|--- .... ....|--- .... ....|--- .... ....
....|..|--- .... ....|C-5 ...A ....|F-5 ...A ....
....|..|--- .... ....|--- .... ....|--- .... ....
....|..|C-2 .FD7 ....|C-5 ...F ....|F-5 ...F ....
....|..|--- .... ....|--- .... ....|--- .... ....
....|..|C-2 ...A ....|D-5 ...A ....|G-5 ...A ....
....|..|--- .... ....|--- .... ....|--- .... ....
..16|..|C-2 .ADF ....|D-5 ...F ....|G-5 ...F ....
....|..|--- .... ....|--- .... ....|--- .... ....
....|..|--- .... ....|C-5 ...A ....|F-5 ...A ....
....|..|--- .... ....|--- .... ....|--- .... ....
....|..|C-2 .FD7 ....|C-5 ...F ....|F-5 ...F ....
....|..|--- .... ....|--- .... ....|--- .... ....
....|..|C-2 ...A ....|D-5 ...A ....|G-5 ...A ....
....|..|--- .... ....|--- .... ....|--- .... ....
..16|..|C-2 .ADF ....|D-5 ...F ....|G-5 ...F ....
....|..|--- .... ....|--- .... ....|--- .... ....
....|..|--- .... ....|C-5 ...A ....|F-5 ...A ....
....|..|--- .... ....|--- .... ....|--- .... ....
....|..|C-2 .FD7 ....|C-5 ...F ....|F-5 ...F ....
....|..|--- .... ....|--- .... ....|--- .... ....
....|..|C-2 ...A ....|D-5 ...A ....|G-5 ...A ....
....|..|--- .... ....|--- .... ....|--- .... ....
..16|..|C-2 .ADF ....|D-5 ...F ....|G-5 ...F ....
....|..|--- .... ....|--- .... ....|--- .... ....
....|..|--- .... ....|C-5 ...A ....|F-5 ...A ....
....|..|--- .... ....|--- .... ....|--- .... ....
....|..|C-2 .FD7 ....|C-5 ...F ....|F-5 ...F ....
....|..|--- .... ....|--- .... ....|--- .... ....
....|..|C-2 ...A ....|D-5 ...A ....|G-5 ...A ....
....|..|--- .... ....|--- .... ....|--- .... ....
..16|..|C-2 .ADF ....|D-5 ...F ....|G-5 ...F ....
....|..|--- .... ....|--- .... ....|--- .... ....
....|..|--- .... ....|C-5 ...A ....|F-5 ...A ....
....|..|--- .... ....|--- .... ....|--- .... ....
....|..|C-2 .FD7 ....|C-5 ...F ....|F-5 ...F ....
....|..|--- .... ....|--- .... ....|--- .... ....
....|..|C-2 ...A ....|D-5 ...A ....|G-5 ...A ....
....|..|--- .... ....|--- .... ....|--- .... ....
..22|..|F-1 .ADF ....|C-5 ...7 ....|F-5 ...7 ....
....|..|--- .... ....|--- .... ....|--- .... ....
....|..|--- .... ....|C-5 ...A ....|F-5 ...A ....
....|..|--- .... ....|--- .... ....|--- .... ....
..1E|..|G-1 .AD. ....|D-5 ...7 ....|G-5 ...7 ....
....|..|--- .... ....|--- .... ....|--- .... ....
....|..|F-1 .FDA ....|R-- .... ....|R-- .... ....
....|..|--- .... ....|--- .... ....|--- .... ....
..28|..|D-1 .ADF ....|C-5 .... ....|F-5 .... ....
....|..|--- .... ....|--- .... ....|--- .... ....
....|..|G-1 .FDA ....|--- .... ....|--- .... ....
....|..|--- .... ....|--- .... ....|--- .... ....
..22|..|F-1 .ADF ....|R-- .... ....|R-- .... ....
....|..|--- .... ....|--- .... ....|--- .... ....
....|..|D-1 .FDA ....|--- .... ....|--- .... ....
....|..|--- .... ....|--- .... ....|--- .... ....

[Pattern8]
..1E|..|G-1 2ADF ....|G-3 6FFF ....|--- .... ....
....|..|--- .... ....|--- .... ....|--- .... ....
....|..|F-1 .FDA ....|--- .... ....|--- .... ....
....|..|--- .... ....|--- .... ....|--- .... ....
..14|..|D-2 .ADF ....|G-3 .... ....|--- .... ....
....|..|--- .... ....|--- .... ....|--- .... ....
....|..|G-1 .FDA ....|G-3 ...A ....|--- .... ....
....|..|--- .... ....|--- .... ....|--- .... ....
...F|..|G-2 .ADF ....|D-5 ...F ....|--- .... ....
....|..|--- .... ....|--- .... ....|--- .... ....
....|..|D-2 .FDA ....|G-3 ...A ....|--- .... ....
....|..|--- .... ....|--- .... ....|--- .... ....
....|..|G-1 ...7 ....|C-5 ...F ....|--- .... ....
....|..|--- .... ....|--- .... ....|--- .... ....
....|..|G-2 ...A ....|D-5 ...A ....|--- .... ....
....|..|--- .... ....|--- .... ....|--- .... ....
..22|..|F-1 .ADF ....|G-4 ...F ....|--- .... ....
....|..|--- .... ....|--- .... ....|--- .... ....
....|..|--- .... ....|C-5 ...A ....|--- .... ....
....|..|--- .... ....|--- .... ....|--- .... ....
..16|..|C-2 .AD. ....|G-4 ...F ....|--- .... ....
....|..|--- .... ....|--- .... ....|--- .... ....
....|..|F-1 .FDA ....|G-4 ...A ....|--- .... ....
....|..|--- .... ....|--- .... ....|--- .... ....
..11|..|F-2 .ADF ....|C-5 ...F ....|--- .... ....
....|..|--- .... ....|--- .... ....|--- .... ....
....|..|C-2 .FDA ....|G-4 ...A ....|--- .... ....
....|..|--- .... ....|--- .... ....|--- .... ....
....|..|F-1 ...7 ....|A#4 ...F ....|--- .... ....
....|..|--- .... ....|--- .... ....|--- .... ....
....|..|F-2 ...A ....|C-5 ...A ....|--- .... ....
....|..|--- .... ....|--- .... ....|--- .... ....
..26|..|D#1 .ADF ....|A#3 ...F ....|--- .... ....
....|..|--- .... ....|--- .... ....|--- .... ....
....|..|--- .... ....|A#4 ...A ....|--- .... ....
....|..|--- .... ....|--- .... ....|--- .... ....
..19|..|A#1 .AD. ....|A#3 ...F ....|--- .... ....
....|..|--- .... ....|--- .... ....|--- .... ....
....|..|D#1 .FDA ....|A#3 ...A ....|--- .... ....
....|..|--- .... ....|--- .... ....|--- .... ....
..13|..|D#2 .ADF ....|A-4 ...F ....|--- .... ....
....|..|--- .... ....|--- .... ....|--- .... ....
....|..|A#1 .FDA ....|A#3 ...A ....|--- .... ....
....|..|--- .... ....|--- .... ....|--- .... ....
....|..|D#1 ...7 ....|G-4 ...F ....|--- .... ....
....|..|--- .... ....|--- .... ....|--- .... ....
....|..|D#2 ...A ....|A-4 ...A ....|--- .... ....
....|..|--- .... ....|--- .... ....|--- .... ....
..28|..|D-1 .ADF ....|A#4 ...F ....|--- .... ....
....|..|--- .... ....|--- .... ....|--- .... ....
....|..|--- .... ....|G-4 ...A ....|--- .... ....
....|..|--- .... ....|--- .... ....|--- .... ....
..1B|..|A-1 .AD. ....|A#4 ...F ....|--- .... ....
....|..|--- .... ....|--- .... ....|--- .... ....
....|..|D-1 .FDA ....|A#4 ...A ....|--- .... ....
....|..|--- .... ....|--- .... ....|--- .... ....
..14|..|D-2 .ADF ....|D-4 ...F ....|--- .... ....
....|..|--- .... ....|--- .... ....|--- .... ....
....|..|A-1 .FDA ....|A#4 ...A ....|--- .... ....
....|..|--- .... ....|--- .... ....|--- .... ....
....|..|D-1 ...7 ....|C-4 ...F ....|--- .... ....
....|..|--- .... ....|--- .... ....|--- .... ....
....|..|D-2 ...A ....|D-4 ...A ....|--- .... ....
....|..|--- .... ....|--- .... ....|--- .... ....

[Pattern9]
..2D|..|C-1 2ADF ....|A#4 6FF7 ....|F-5 1FEF ....
....|..|--- .... ....|--- .... ....|--- .... ....
....|..|--- .... ....|C-4 ...A ....|--- .... ....
....|..|--- .... ....|--- .... ....|--- .... ....
..1E|..|G-1 .AD. ....|D-4 ...7 ....|G-5 .... ....
....|..|--- .... ....|--- .... ....|--- .... ....
....|..|C-1 .FDA ....|R-- .... ....|F-5 ...A ....
....|..|--- .... ....|--- .... ....|--- .... ....
..16|..|C-2 .ADF ....|C-4 .... ....|R-- .... ....
....|..|--- .... ....|--- .... ....|--- .... ....
....|..|G-1 .FDA ....|--- .... ....|G-5 .... ....
....|..|--- .... ....|--- .... ....|--- .... ....
..1E|..|G-1 .ADF ....|R-- .... ....|F-5 ...7 ....
....|..|--- .... ....|--- .... ....|--- .... ....
....|..|C-2 .FDA ....|--- .... ....|R-- .... ....
....|..|--- .... ....|--- .... ....|--- .... ....
..13|..|D#2 .ADF ....|--- .... ....|G-5 .... ....
....|..|--- .... ....|--- .... ....|--- .... ....
....|..|G-1 .FDA ....|--- .... ....|--- .... ....
....|..|--- .... ....|--- .... ....|--- .... ....
..1E|..|G-1 .ADF ....|--- .... ....|R-- .... ....
....|..|--- .... ....|--- .... ....|--- .... ....
....|..|D#2 .FDA ....|--- .... ....|--- .... ....
....|..|--- .... ....|--- .... ....|--- .... ....
..16|..|C-2 .ADF ....|--- .... ....|G-5 ...F ....
....|..|--- .... ....|--- .... ....|--- .... ....
....|..|G-1 .FDA ....|--- .... ....|F-5 .... ....
....|..|--- .... ....|--- .... ....|--- .... ....
..1E|..|G-1 .ADF ....|D-5 ...F ....|R-- .... ....
....|..|--- .... ....|--- .... ....|--- .... ....
....|..|C-2 .FDA ....|--- .... ....|G-5 ...A ....
....|..|--- .... ....|--- .... ....|--- .... ....
..2D|..|C-1 .ADF ....|R-- .... ....|F-5 ...F ....
....|..|--- .... ....|--- .... ....|--- .... ....
....|..|G-1 .FDA ....|D-5 ...A ....|R-- .... ....
....|..|--- .... ....|--- .... ....|--- .... ....
..1E|..|G-1 .ADF ....|--- .... ....|G-5 ...7 ....
....|..|--- .... ....|--- .... ....|--- .... ....
....|..|C-1 .FDA ....|R-- .... ....|F-5 .... ....
....|..|--- .... ....|--- .... ....|--- .... ....
..16|..|C-2 .ADF ....|D-5 ...7 ....|R-- .... ....
....|..|--- .... ....|--- .... ....|--- .... ....
....|..|G-1 .FDA ....|--- .... ....|--- .... ....
....|..|--- .... ....|--- .... ....|--- .... ....
..1E|..|G-1 .ADF ....|R-- .... ....|F-5 .... ....
....|..|--- .... ....|--- .... ....|--- .... ....
....|..|C-2 .FDA ....|--- .... ....|--- .... ....
....|..|--- .... ....|--- .... ....|--- .... ....
..13|..|D#2 .ADF ....|A#4 ...F ....|--- .... ....
....|..|--- .... ....|--- .... ....|--- .... ....
....|..|G-1 .FDA ....|--- .... ....|R-- .... ....
....|..|--- .... ....|--- .... ....|--- .... ....
..1E|..|G-1 .ADF ....|--- .... ....|--- .... ....
....|..|--- .... ....|--- .... ....|--- .... ....
....|..|D#2 .FDA ....|A#4 ...A ....|--- .... ....
....|..|--- .... ....|--- .... ....|--- .... ....
..16|..|C-2 .ADF ....|--- .... ....|R-- .... ....
....|..|--- .... ....|--- .... ....|--- .... ....
....|..|G-1 .FDA ....|--- .... ....|--- .... ....
....|..|--- .... ....|--- .... ....|--- .... ....
..1E|..|G-1 .ADF ....|A#4 ...7 ....|--- .... ....
....|..|--- .... ....|--- .... ....|--- .... ....
....|..|C-2 .FDA ....|--- .... ....|--- .... ....
....|..|--- .... ....|--- .... ....|--- .... ....

[Pattern10]
..1E|..|G-1 2ADF ....|G-3 6FFF ....|--- .... ....
....|..|--- .... ....|--- .... ....|--- .... ....
....|..|G-1 .FDA ....|R-- .... ....|--- .... ....
....|..|--- .... ....|--- .... ....|--- .... ....
..14|..|D-2 .ADF ....|G-3 .... ....|--- .... ....
....|..|--- .... ....|--- .... ....|--- .... ....
....|..|G-1 .FDA ....|G-3 ...A ....|--- .... ....
....|..|--- .... ....|--- .... ....|--- .... ....
...F|..|G-2 .ADF ....|G-4 ...F ....|--- .... ....
....|..|--- .... ....|--- .... ....|--- .... ....
....|..|D-2 .FDA ....|G-3 ...A ....|--- .... ....
....|..|--- .... ....|--- .... ....|--- .... ....
....|..|G-1 ...7 ....|F-4 ...F ....|--- .... ....
....|..|--- .... ....|--- .... ....|--- .... ....
....|..|G-2 ...A ....|G-4 ...A ....|--- .... ....
....|..|--- .... ....|--- .... ....|--- .... ....
..22|..|F-1 .ADF ....|G-4 ...F ....|--- .... ....
....|..|--- .... ....|--- .... ....|--- .... ....
....|..|--- .... ....|F-4 ...A ....|--- .... ....
....|..|--- .... ....|--- .... ....|--- .... ....
..16|..|C-2 .AD. ....|G-4 ...F ....|--- .... ....
....|..|--- .... ....|--- .... ....|--- .... ....
....|..|F-1 .FDA ....|G-4 ...A ....|--- .... ....
....|..|--- .... ....|--- .... ....|--- .... ....
..11|..|F-2 .ADF ....|A#4 ...F ....|--- .... ....
....|..|--- .... ....|--- .... ....|--- .... ....
....|..|C-2 .FDA ....|G-4 ...A ....|--- .... ....
....|..|--- .... ....|--- .... ....|--- .... ....
....|..|F-1 ...7 ....|A#4 ...F ....|--- .... ....
....|..|--- .... ....|--- .... ....|--- .... ....
....|..|F-2 ...A ....|A#4 ...A ....|--- .... ....
....|..|--- .... ....|--- .... ....|--- .... ....
..26|..|D#1 .ADF ....|A#3 ...F ....|--- .... ....
....|..|--- .... ....|--- .... ....|--- .... ....
....|..|--- .... ....|A#4 ...A ....|--- .... ....
....|..|--- .... ....|--- .... ....|--- .... ....
..19|..|A#1 .AD. ....|A#3 ...F ....|--- .... ....
....|..|--- .... ....|--- .... ....|--- .... ....
....|..|D#1 .FDA ....|A#3 ...A ....|--- .... ....
....|..|--- .... ....|--- .... ....|--- .... ....
..13|..|D#2 .ADF ....|D-5 ...F ....|--- .... ....
....|..|--- .... ....|--- .... ....|--- .... ....
....|..|A#1 .FDA ....|A#3 ...A ....|--- .... ....
....|..|--- .... ....|--- .... ....|--- .... ....
....|..|D#1 ...7 ....|C-5 ...F ....|--- .... ....
....|..|--- .... ....|--- .... ....|--- .... ....
....|..|D#2 ...A ....|D-5 ...A ....|--- .... ....
....|..|--- .... ....|--- .... ....|--- .... ....
..28|..|D-1 .ADF ....|A#4 ...F ....|--- .... ....
....|..|--- .... ....|--- .... ....|--- .... ....
....|..|--- .... ....|C-5 ...A ....|--- .... ....
....|..|--- .... ....|--- .... ....|--- .... ....
..1B|..|A-1 .AD. ....|A#4 ...F ....|--- .... ....
....|..|--- .... ....|--- .... ....|--- .... ....
....|..|D-1 .FDA ....|A#4 ...A ....|--- .... ....
....|..|--- .... ....|--- .... ....|--- .... ....
..14|..|D-2 .ADF ....|A-3 ...F ....|--- .... ....
....|..|--- .... ....|--- .... ....|--- .... ....
....|..|A-1 .FDA ....|A#4 ...A ....|--- .... ....
....|..|--- .... ....|--- .... ....|--- .... ....
....|..|D-1 ...7 ....|G-3 ...F ....|--- .... ....
....|..|--- .... ....|--- .... ....|--- .... ....
....|..|D-2 ...A ....|A-3 ...A ....|--- .... ....
....|..|--- .... ....|--- .... ....|--- .... ....

[Pattern11]
..2D|..|C-1 2ADF ....|A#4 6FF7 ....|F-5 1FEF ....
....|..|--- .... ....|--- .... ....|--- .... ....
....|..|--- .... ....|G-3 ...A ....|--- .... ....
....|..|--- .... ....|--- .... ....|--- .... ....
..1E|..|G-1 .AD. ....|A-3 ...7 ....|G-5 .... ....
....|..|--- .... ....|--- .... ....|--- .... ....
....|..|C-1 .FDA ....|R-- .... ....|F-5 ...A ....
....|..|--- .... ....|--- .... ....|--- .... ....
..16|..|C-2 .ADF ....|G-3 .... ....|R-- .... ....
....|..|--- .... ....|--- .... ....|--- .... ....
....|..|G-1 .FDA ....|--- .... ....|G-5 .... ....
....|..|--- .... ....|--- .... ....|--- .... ....
..1E|..|G-1 .ADF ....|R-- .... ....|F-5 ...7 ....
....|..|--- .... ....|--- .... ....|--- .... ....
....|..|C-2 .FDA ....|--- .... ....|R-- .... ....
....|..|--- .... ....|--- .... ....|--- .... ....
..13|..|D#2 .ADF ....|--- .... ....|G-5 .... ....
....|..|--- .... ....|--- .... ....|--- .... ....
....|..|G-1 .FDA ....|--- .... ....|--- .... ....
....|..|--- .... ....|--- .... ....|--- .... ....
..1E|..|G-1 .ADF ....|--- .... ....|R-- .... ....
....|..|--- .... ....|--- .... ....|--- .... ....
....|..|D#2 .FDA ....|--- .... ....|--- .... ....
....|..|--- .... ....|--- .... ....|--- .... ....
..16|..|C-2 .ADF ....|--- .... ....|G-5 ...F ....
....|..|--- .... ....|--- .... ....|--- .... ....
....|..|G-1 .FDA ....|--- .... ....|F-5 .... ....
....|..|--- .... ....|--- .... ....|--- .... ....
..1E|..|G-1 .ADF ....|D-5 ...F ....|R-- .... ....
....|..|--- .... ....|--- .... ....|--- .... ....
....|..|C-2 .FDA ....|--- .... ....|G-5 ...A ....
....|..|--- .... ....|--- .... ....|--- .... ....
..2D|..|C-1 .ADF ....|R-- .... ....|F-5 ...F ....
....|..|--- .... ....|--- .... ....|--- .... ....
....|..|G-1 .FDA ....|D-5 ...A ....|R-- .... ....
....|..|--- .... ....|--- .... ....|--- .... ....
..1E|..|G-1 .ADF ....|--- .... ....|G-5 ...7 ....
....|..|--- .... ....|--- .... ....|--- .... ....
....|..|C-1 .FDA ....|R-- .... ....|F-5 .... ....
....|..|--- .... ....|--- .... ....|--- .... ....
..16|..|C-2 .ADF ....|D-5 ...7 ....|R-- .... ....
....|..|--- .... ....|--- .... ....|--- .... ....
....|..|G-1 .FDA ....|--- .... ....|--- .... ....
....|..|--- .... ....|--- .... ....|--- .... ....
..1E|..|G-1 .ADF ....|R-- .... ....|F-5 .... ....
....|..|--- .... ....|--- .... ....|--- .... ....
....|..|C-2 .FDA ....|--- .... ....|--- .... ....
....|..|--- .... ....|--- .... ....|--- .... ....
..13|..|D#2 .ADF ....|A#4 ...F ....|--- .... ....
....|..|--- .... ....|--- .... ....|--- .... ....
....|..|G-1 .FDA ....|--- .... ....|R-- .... ....
....|..|--- .... ....|--- .... ....|--- .... ....
..1E|..|G-1 .ADF ....|--- .... ....|--- .... ....
....|..|--- .... ....|--- .... ....|--- .... ....
....|..|D#2 .FDA ....|A#4 ...A ....|--- .... ....
....|..|--- .... ....|--- .... ....|--- .... ....
..16|..|C-2 .ADF ....|--- .... ....|R-- .... ....
....|..|--- .... ....|--- .... ....|--- .... ....
....|..|G-1 .FDA ....|--- .... ....|--- .... ....
....|..|--- .... ....|--- .... ....|--- .... ....
..1E|..|G-1 .ADF ....|A#4 ...7 ....|--- .... ....
....|..|--- .... ....|--- .... ....|--- .... ....
....|..|C-2 .FDA ....|--- .... ....|--- .... ....
....|..|--- .... ....|--- .... ....|--- .... ....

[Pattern12]
..1E|..|G-1 2ADF ....|G-3 6FFF ....|--- .... ....
....|..|--- .... ....|--- .... ....|--- .... ....
....|..|G-1 .FDA ....|R-- .... ....|--- .... ....
....|..|--- .... ....|--- .... ....|--- .... ....
..14|..|D-2 .ADF ....|G-3 .... ....|--- .... ....
....|..|--- .... ....|--- .... ....|--- .... ....
....|..|G-1 .FDA ....|G-3 ...A ....|--- .... ....
....|..|--- .... ....|--- .... ....|--- .... ....
...F|..|G-2 .ADF ....|D-5 ...F ....|--- .... ....
....|..|--- .... ....|--- .... ....|--- .... ....
....|..|D-2 .FDA ....|G-3 ...A ....|--- .... ....
....|..|--- .... ....|--- .... ....|--- .... ....
....|..|G-1 ...7 ....|C-5 ...F ....|--- .... ....
....|..|--- .... ....|--- .... ....|--- .... ....
....|..|G-2 ...A ....|D-5 ...A ....|--- .... ....
....|..|--- .... ....|--- .... ....|--- .... ....
..22|..|F-1 .ADF ....|G-4 ...F ....|--- .... ....
....|..|--- .... ....|--- .... ....|--- .... ....
....|..|--- .... ....|C-5 ...A ....|--- .... ....
....|..|--- .... ....|--- .... ....|--- .... ....
..16|..|C-2 .AD. ....|G-4 ...F ....|--- .... ....
....|..|--- .... ....|--- .... ....|--- .... ....
....|..|F-1 .FDA ....|G-4 ...A ....|--- .... ....
....|..|--- .... ....|--- .... ....|--- .... ....
..11|..|F-2 .ADF ....|C-5 ...F ....|--- .... ....
....|..|--- .... ....|--- .... ....|--- .... ....
....|..|C-2 .FDA ....|G-4 ...A ....|--- .... ....
....|..|--- .... ....|--- .... ....|--- .... ....
....|..|F-1 ...7 ....|A#4 ...F ....|--- .... ....
....|..|--- .... ....|--- .... ....|--- .... ....
....|..|F-2 ...A ....|C-5 ...A ....|--- .... ....
....|..|--- .... ....|--- .... ....|--- .... ....
..26|..|D#1 .ADF ....|A#3 ...F ....|--- .... ....
....|..|--- .... ....|--- .... ....|--- .... ....
....|..|--- .... ....|A#4 ...A ....|--- .... ....
....|..|--- .... ....|--- .... ....|--- .... ....
..19|..|A#1 .AD. ....|A#3 ...F ....|--- .... ....
....|..|--- .... ....|--- .... ....|--- .... ....
....|..|D#1 .FDA ....|A#3 ...A ....|--- .... ....
....|..|--- .... ....|--- .... ....|--- .... ....
..13|..|D#2 .ADF ....|A-4 ...F ....|--- .... ....
....|..|--- .... ....|--- .... ....|--- .... ....
....|..|A#1 .FDA ....|A#3 ...A ....|--- .... ....
....|..|--- .... ....|--- .... ....|--- .... ....
....|..|D#1 ...7 ....|G-4 ...F ....|--- .... ....
....|..|--- .... ....|--- .... ....|--- .... ....
....|..|D#2 ...A ....|A-4 ...A ....|--- .... ....
....|..|--- .... ....|--- .... ....|--- .... ....
..28|..|D-1 .ADF ....|A#4 ...F ....|--- .... ....
....|..|--- .... ....|--- .... ....|--- .... ....
....|..|--- .... ....|G-4 ...A ....|--- .... ....
....|..|--- .... ....|--- .... ....|--- .... ....
..1B|..|A-1 .AD. ....|A#4 ...F ....|--- .... ....
....|..|--- .... ....|--- .... ....|--- .... ....
....|..|D-1 .FDA ....|A#4 ...A ....|--- .... ....
....|..|--- .... ....|--- .... ....|--- .... ....
..14|..|D-2 .ADF ....|D-4 ...F ....|--- .... ....
....|..|--- .... ....|--- .... ....|--- .... ....
....|..|A-1 .FDA ....|A#4 ...A ....|--- .... ....
....|..|--- .... ....|--- .... ....|--- .... ....
....|..|D-1 ...7 ....|C-4 ...F ....|--- .... ....
....|..|--- .... ....|--- .... ....|--- .... ....
....|..|D-2 ...A ....|D-4 ...A ....|--- .... ....
....|..|--- .... ....|--- .... ....|--- .... ....

[Pattern13]
..16|..|C-2 2ADF ....|G-3 6FFF ....|--- .... ....
....|..|--- .... ....|--- .... ....|--- .... ....
....|..|--- .... ....|C-4 ...A ....|--- .... ....
....|..|--- .... ....|--- .... ....|--- .... ....
....|..|D-2 .FD7 ....|A#3 ...F ....|--- .... ....
....|..|--- .... ....|--- .... ....|--- .... ....
....|..|C-2 ...A ....|G-3 ...A ....|--- .... ....
....|..|--- .... ....|--- .... ....|--- .... ....
..16|..|C-2 .ADF ....|C-4 ...F ....|--- .... ....
....|..|--- .... ....|--- .... ....|--- .... ....
....|..|--- .... ....|A#3 ...A ....|--- .... ....
....|..|--- .... ....|--- .... ....|--- .... ....
....|..|C-2 .FD7 ....|A#3 ...F ....|--- .... ....
....|..|--- .... ....|--- .... ....|--- .... ....
....|..|C-2 ...A ....|C-4 ...A ....|--- .... ....
....|..|--- .... ....|--- .... ....|--- .... ....
..16|..|C-2 .ADF ....|G-4 ...F ....|--- .... ....
....|..|--- .... ....|--- .... ....|--- .... ....
....|..|--- .... ....|A#3 ...A ....|--- .... ....
....|..|--- .... ....|--- .... ....|--- .... ....
....|..|C-2 .FD7 ....|A#4 ...F ....|--- .... ....
....|..|--- .... ....|--- .... ....|--- .... ....
....|..|C-2 ...A ....|G-4 ...A ....|--- .... ....
....|..|--- .... ....|--- .... ....|--- .... ....
..16|..|C-2 .ADF ....|C-5 ...F ....|--- .... ....
....|..|--- .... ....|--- .... ....|--- .... ....
....|..|--- .... ....|A#4 ...A ....|--- .... ....
....|..|--- .... ....|--- .... ....|--- .... ....
....|..|C-2 .FD7 ....|A#4 ...F ....|--- .... ....
....|..|--- .... ....|--- .... ....|--- .... ....
....|..|C-2 ...A ....|C-5 ...A ....|--- .... ....
....|..|--- .... ....|--- .... ....|--- .... ....
..16|..|C-2 .ADF ....|D-5 ...F ....|--- .... ....
....|..|--- .... ....|--- .... ....|--- .... ....
....|..|--- .... ....|A#4 ...A ....|--- .... ....
....|..|--- .... ....|--- .... ....|--- .... ....
....|..|C-2 .FD7 ....|C-5 ...F ....|--- .... ....
....|..|--- .... ....|--- .... ....|--- .... ....
....|..|C-2 ...A ....|D-5 ...A ....|--- .... ....
....|..|--- .... ....|--- .... ....|--- .... ....
..16|..|C-2 .ADF ....|A#4 ...F ....|--- .... ....
....|..|--- .... ....|--- .... ....|--- .... ....
....|..|--- .... ....|C-5 ...A ....|--- .... ....
....|..|--- .... ....|--- .... ....|--- .... ....
....|..|C-2 .FD7 ....|G-4 ...F ....|--- .... ....
....|..|--- .... ....|--- .... ....|--- .... ....
....|..|C-2 ...A ....|A#4 ...A ....|--- .... ....
....|..|--- .... ....|--- .... ....|--- .... ....
..16|..|C-2 .ADF ....|F-4 ...F ....|--- .... ....
....|..|--- .... ....|--- .... ....|--- .... ....
....|..|--- .... ....|G-4 ...A ....|--- .... ....
....|..|--- .... ....|--- .... ....|--- .... ....
....|..|C-2 .FD7 ....|G-4 ...F ....|--- .... ....
....|..|--- .... ....|--- .... ....|--- .... ....
....|..|C-2 ...A ....|F-4 ...A ....|--- .... ....
....|..|--- .... ....|--- .... ....|--- .... ....
..16|..|C-2 .ADF ....|A#4 ...F ....|--- .... ....
....|..|--- .... ....|--- .... ....|--- .... ....
....|..|--- .... ....|G-4 ...A ....|--- .... ....
....|..|--- .... ....|--- .... ....|--- .... ....
....|..|C-2 .FD7 ....|G-4 ...F ....|--- .... ....
....|..|--- .... ....|--- .... ....|--- .... ....
....|..|C-2 ...A ....|A#4 ...A ....|--- .... ....
....|..|--- .... ....|--- .... ....|--- .... ....

[Pattern14]
...F|..|G-2 2ADF ....|G-3 6FFF ....|--- .... ....
....|..|--- .... ....|--- .... ....|--- .... ....
....|..|--- .... ....|G-4 ...A ....|--- .... ....
....|..|--- .... ....|--- .... ....|--- .... ....
....|..|C-2 .FD7 ....|A#3 ...F ....|--- .... ....
....|..|--- .... ....|--- .... ....|--- .... ....
....|..|G-2 ...A ....|G-3 ...A ....|--- .... ....
....|..|--- .... ....|--- .... ....|--- .... ....
...F|..|G-2 .ADF ....|G-4 ...F ....|--- .... ....
....|..|--- .... ....|--- .... ....|--- .... ....
....|..|R-- .... ....|A#3 ...A ....|--- .... ....
....|..|--- .... ....|--- .... ....|--- .... ....
....|..|G-2 .FD7 ....|A#4 ...F ....|--- .... ....
....|..|--- .... ....|--- .... ....|--- .... ....
....|..|G-2 ...A ....|G-4 ...A ....|--- .... ....
....|..|--- .... ....|--- .... ....|--- .... ....
...F|..|G-2 .ADF ....|D-5 ...F ....|--- .... ....
....|..|--- .... ....|--- .... ....|--- .... ....
....|..|R-- .... ....|A#4 ...A ....|--- .... ....
....|..|--- .... ....|--- .... ....|--- .... ....
....|..|G-2 .FD7 ....|A#4 ...F ....|--- .... ....
....|..|--- .... ....|--- .... ....|--- .... ....
....|..|G-2 ...A ....|D-5 ...A ....|--- .... ....
....|..|--- .... ....|--- .... ....|--- .... ....
...F|..|G-2 .ADF ....|G-4 ...F ....|--- .... ....
....|..|--- .... ....|--- .... ....|--- .... ....
....|..|R-- .... ....|A#4 ...A ....|--- .... ....
....|..|--- .... ....|--- .... ....|--- .... ....
....|..|G-2 .FD7 ....|A#4 ...F ....|--- .... ....
....|..|--- .... ....|--- .... ....|--- .... ....
....|..|G-2 ...A ....|G-4 ...A ....|--- .... ....
....|..|--- .... ....|--- .... ....|--- .... ....
..11|..|F-2 .ADF ....|F-3 ...F ....|--- .... ....
....|..|--- .... ....|--- .... ....|--- .... ....
....|..|R-- .... ....|A#4 ...A ....|--- .... ....
....|..|--- .... ....|--- .... ....|--- .... ....
....|..|G-2 .FD7 ....|F-4 ...F ....|--- .... ....
....|..|--- .... ....|--- .... ....|--- .... ....
....|..|F-2 ...A ....|F-3 ...A ....|--- .... ....
....|..|--- .... ....|--- .... ....|--- .... ....
..11|..|F-2 .ADF ....|A#4 ...F ....|--- .... ....
....|..|--- .... ....|--- .... ....|--- .... ....
....|..|R-- .... ....|F-4 ...A ....|--- .... ....
....|..|--- .... ....|--- .... ....|--- .... ....
....|..|F-2 .FD7 ....|F-4 ...F ....|--- .... ....
....|..|--- .... ....|--- .... ....|--- .... ....
....|..|F-2 ...A ....|A#4 ...A ....|--- .... ....
....|..|--- .... ....|--- .... ....|--- .... ....
..11|..|F-2 .ADF ....|C-5 ...F ....|--- .... ....
....|..|--- .... ....|--- .... ....|--- .... ....
....|..|R-- .... ....|F-4 ...A ....|--- .... ....
....|..|--- .... ....|--- .... ....|--- .... ....
....|..|F-2 .FD7 ....|A#4 ...F ....|--- .... ....
....|..|--- .... ....|--- .... ....|--- .... ....
....|..|F-2 ...A ....|C-5 ...A ....|--- .... ....
....|..|--- .... ....|--- .... ....|--- .... ....
..11|..|F-2 .ADF ....|A-4 ...F ....|--- .... ....
....|..|--- .... ....|--- .... ....|--- .... ....
....|..|R-- .... ....|A#4 ...A ....|--- .... ....
....|..|--- .... ....|--- .... ....|--- .... ....
....|..|F-2 .FD7 ....|A#4 ...F ....|--- .... ....
....|..|--- .... ....|--- .... ....|--- .... ....
....|..|F-2 ...A ....|A-4 ...A ....|--- .... ....
....|..|--- .... ....|--- .... ....|--- .... ....

[Pattern15]
..12|..|E-2 2ADF ....|E-3 6FFF ....|--- .... ....
....|..|--- .... ....|--- .... ....|--- .... ....
....|..|R-- .... ....|A#4 ...A ....|--- .... ....
....|..|--- .... ....|--- .... ....|--- .... ....
....|..|F-2 .FD7 ....|E-4 ...F ....|--- .... ....
....|..|--- .... ....|--- .... ....|--- .... ....
....|..|E-2 ...A ....|E-3 ...A ....|--- .... ....
....|..|--- .... ....|--- .... ....|--- .... ....
..12|..|E-2 .ADF ....|G-4 ...F ....|--- .... ....
....|..|--- .... ....|--- .... ....|--- .... ....
....|..|R-- .... ....|E-4 ...A ....|--- .... ....
....|..|--- .... ....|--- .... ....|--- .... ....
....|..|E-2 .FD7 ....|E-4 ...F ....|--- .... ....
....|..|--- .... ....|--- .... ....|--- .... ....
....|..|E-2 ...A ....|G-4 ...A ....|--- .... ....
....|..|--- .... ....|--- .... ....|--- .... ....
..12|..|E-2 .ADF ....|C-5 ...F ....|C-6 1FEF ....
....|..|--- .... ....|--- .... ....|--- .... ....
....|..|R-- .... ....|E-4 ...A ....|--- .... ....
....|..|--- .... ....|--- .... ....|--- .... ....
....|..|E-2 .FD7 ....|A#4 ...F ....|A#5 .... ....
....|..|--- .... ....|--- .... ....|--- .... ....
....|..|E-2 ...A ....|C-5 ...A ....|C-6 ...A ....
....|..|--- .... ....|--- .... ....|--- .... ....
..12|..|E-2 .ADF ....|G-4 ...F ....|G-5 ...F ....
....|..|--- .... ....|--- .... ....|--- .... ....
....|..|--- .... ....|A#4 ...A ....|A#5 ...A ....
....|..|--- .... ....|--- .... ....|--- .... ....
....|..|E-2 .FD7 ....|E-4 ...F ....|E-5 ...F ....
....|..|--- .... ....|--- .... ....|--- .... ....
....|..|E-2 ...A ....|G-4 ...A ....|G-5 ...A ....
....|..|--- .... ....|--- .... ....|--- .... ....
..13|..|D#2 .ADF ....|D#4 ...F ....|A#5 ...7 ....
....|..|--- .... ....|--- .... ....|--- .... ....
....|..|--- .... ....|E-4 ...A ....|E-5 ...A ....
....|..|--- .... ....|--- .... ....|--- .... ....
....|..|E-2 .FD7 ....|D#4 ...F ....|G-5 ...7 ....
....|..|--- .... ....|--- .... ....|--- .... ....
....|..|D#2 ...A ....|D#4 ...A ....|R-- .... ....
....|..|--- .... ....|--- .... ....|--- .... ....
..13|..|D#2 .ADF ....|G-4 ...F ....|G-5 ...F ....
....|..|--- .... ....|--- .... ....|--- .... ....
....|..|--- .... ....|D#4 ...A ....|--- .... ....
....|..|--- .... ....|--- .... ....|--- .... ....
....|..|D#2 .FD7 ....|A#4 ...F ....|A#5 .... ....
....|..|--- .... ....|--- .... ....|--- .... ....
....|..|D#2 ...A ....|G-4 ...A ....|G-5 ...A ....
....|..|--- .... ....|--- .... ....|--- .... ....
...F|..|G-2 .ADF ....|G-3 ...F ....|R-- .... ....
....|..|--- .... ....|--- .... ....|--- .... ....
....|..|--- .... ....|A#4 ...A ....|A#5 .... ....
....|..|--- .... ....|--- .... ....|--- .... ....
...F|..|G-2 .AD. ....|G-3 ...F ....|G-5 ...7 ....
....|..|--- .... ....|--- .... ....|--- .... ....
....|..|G-2 .FDA ....|G-3 ...A ....|R-- .... ....
....|..|--- .... ....|--- .... ....|--- .... ....
...F|..|G-2 .ADF ....|G-3 ...F ....|A#5 .... ....
....|..|--- .... ....|--- .... ....|--- .... ....
....|..|G-2 .FDA ....|G-3 ...A ....|--- .... ....
....|..|--- .... ....|--- .... ....|--- .... ....
...F|..|G-2 .ADF ....|G-3 ...F ....|R-- .... ....
....|..|--- .... ....|--- .... ....|--- .... ....
....|..|G-2 .FDA ....|G-3 ...A ....|--- .... ....
....|..|--- .... ....|--- .... ....|--- .... ....

[Pattern16]
...F|..|G-2 2ADF ....|G-3 6FFF ....|--- .... ....
....|..|--- .... ....|--- .... ....|--- .... ....
....|..|G-2 .FDA ....|G-3 ...A ....|--- .... ....
....|..|--- .... ....|--- .... ....|--- .... ....
....|..|G-2 ...7 ....|A#3 ...F ....|--- .... ....
....|..|--- .... ....|--- .... ....|--- .... ....
....|..|G-2 ...A ....|G-3 ...A ....|--- .... ....
....|..|--- .... ....|--- .... ....|--- .... ....
...F|..|G-2 .ADF ....|G-4 ...F ....|--- .... ....
....|..|--- .... ....|--- .... ....|--- .... ....
....|..|--- .... ....|A#3 ...A ....|--- .... ....
....|..|--- .... ....|--- .... ....|--- .... ....
....|..|G-2 .FD7 ....|A#4 ...F ....|--- .... ....
....|..|--- .... ....|--- .... ....|--- .... ....
....|..|G-2 ...A ....|G-4 ...A ....|--- .... ....
....|..|--- .... ....|--- .... ....|--- .... ....
...F|..|G-2 .ADF ....|D-5 ...F ....|--- .... ....
....|..|--- .... ....|--- .... ....|--- .... ....
....|..|--- .... ....|A#4 ...A ....|--- .... ....
....|..|--- .... ....|--- .... ....|--- .... ....
....|..|G-2 .FD7 ....|A#4 ...F ....|--- .... ....
....|..|--- .... ....|--- .... ....|--- .... ....
....|..|G-2 ...A ....|D-5 ...A ....|--- .... ....
....|..|--- .... ....|--- .... ....|--- .... ....
...F|..|G-2 .ADF ....|G-4 ...F ....|--- .... ....
....|..|--- .... ....|--- .... ....|--- .... ....
....|..|--- .... ....|A#4 ...A ....|--- .... ....
....|..|--- .... ....|--- .... ....|--- .... ....
....|..|G-2 .FD7 ....|A#4 ...F ....|--- .... ....
....|..|--- .... ....|--- .... ....|--- .... ....
....|..|G-2 ...A ....|G-4 ...A ....|--- .... ....
....|..|--- .... ....|--- .... ....|--- .... ....
..11|..|F-2 .ADF ....|F-3 ...F ....|--- .... ....
....|..|--- .... ....|--- .... ....|--- .... ....
....|..|--- .... ....|A#4 ...A ....|--- .... ....
....|..|--- .... ....|--- .... ....|--- .... ....
....|..|G-2 .FD7 ....|F-4 ...F ....|--- .... ....
....|..|--- .... ....|--- .... ....|--- .... ....
....|..|F-2 ...A ....|F-3 ...A ....|--- .... ....
....|..|--- .... ....|--- .... ....|--- .... ....
..11|..|F-2 .ADF ....|A#4 ...F ....|--- .... ....
....|..|--- .... ....|--- .... ....|--- .... ....
....|..|--- .... ....|F-4 ...A ....|--- .... ....
....|..|--- .... ....|--- .... ....|--- .... ....
....|..|F-2 .FD7 ....|F-4 ...F ....|--- .... ....
....|..|--- .... ....|--- .... ....|--- .... ....
....|..|F-2 ...A ....|A#4 ...A ....|--- .... ....
....|..|--- .... ....|--- .... ....|--- .... ....
..11|..|F-2 .ADF ....|C-5 ...F ....|--- .... ....
....|..|--- .... ....|--- .... ....|--- .... ....
....|..|--- .... ....|F-4 ...A ....|--- .... ....
....|..|--- .... ....|--- .... ....|--- .... ....
....|..|F-2 .FD7 ....|A#4 ...F ....|--- .... ....
....|..|--- .... ....|--- .... ....|--- .... ....
....|..|F-2 ...A ....|C-5 ...A ....|--- .... ....
....|..|--- .... ....|--- .... ....|--- .... ....
..11|..|F-2 .ADF ....|A-4 ...F ....|--- .... ....
....|..|--- .... ....|--- .... ....|--- .... ....
....|..|--- .... ....|A#4 ...A ....|--- .... ....
....|..|--- .... ....|--- .... ....|--- .... ....
....|..|F-2 .FD7 ....|A#4 ...F ....|--- .... ....
....|..|--- .... ....|--- .... ....|--- .... ....
....|..|F-2 ...A ....|A-4 ...A ....|--- .... ....
....|..|--- .... ....|--- .... ....|--- .... ....

[Pattern17]
..12|..|E-2 2ADF ....|A#4 6FFF ....|A#5 1FEF ....
....|..|--- .... ....|--- .... ....|--- .... ....
....|..|--- .... ....|A#4 ...A ....|--- .... ....
....|..|--- .... ....|--- .... ....|--- .... ....
....|..|F-2 .FD7 ....|A#4 ...F ....|A#5 .... ....
....|..|--- .... ....|--- .... ....|--- .... ....
....|..|E-2 ...A ....|A#4 ...A ....|A#5 ...A ....
....|..|--- .... ....|--- .... ....|--- .... ....
..12|..|E-2 .ADF ....|G-4 ...F ....|G-5 ...F ....
....|..|--- .... ....|--- .... ....|--- .... ....
....|..|--- .... ....|A#4 ...A ....|A#5 ...A ....
....|..|--- .... ....|--- .... ....|--- .... ....
....|..|E-2 .FD7 ....|G-4 ...F ....|G-5 ...F ....
....|..|--- .... ....|--- .... ....|--- .... ....
....|..|E-2 ...A ....|G-4 ...A ....|G-5 ...A ....
....|..|--- .... ....|--- .... ....|--- .... ....
..12|..|E-2 .ADF ....|A#4 ...F ....|A#5 ...7 ....
....|..|--- .... ....|--- .... ....|--- .... ....
....|..|--- .... ....|G-4 ...A ....|G-5 ...A ....
....|..|--- .... ....|--- .... ....|--- .... ....
....|..|E-2 .FD7 ....|A#4 ...F ....|G-5 ...7 ....
....|..|--- .... ....|--- .... ....|--- .... ....
....|..|E-2 ...A ....|A#4 ...A ....|R-- .... ....
....|..|--- .... ....|--- .... ....|--- .... ....
..12|..|E-2 .ADF ....|G-4 ...F ....|G-5 .... ....
....|..|--- .... ....|--- .... ....|--- .... ....
....|..|--- .... ....|A#4 ...A ....|--- .... ....
....|..|--- .... ....|--- .... ....|--- .... ....
....|..|E-2 .FD7 ....|G-4 ...F ....|R-- .... ....
....|..|--- .... ....|--- .... ....|--- .... ....
....|..|E-2 ...A ....|G-4 ...A ....|--- .... ....
....|..|--- .... ....|--- .... ....|--- .... ....
..13|..|D#2 .ADF ....|A#4 ...F ....|A#5 ...F ....
....|..|--- .... ....|--- .... ....|--- .... ....
....|..|--- .... ....|G-4 ...A ....|--- .... ....
....|..|--- .... ....|--- .... ....|--- .... ....
....|..|E-2 .FD7 ....|A#4 ...F ....|A#5 .... ....
....|..|--- .... ....|--- .... ....|--- .... ....
....|..|D#2 ...A ....|A#4 ...A ....|A#5 ...A ....
....|..|--- .... ....|--- .... ....|--- .... ....
....|..|--- .... ....|G-4 ...F ....|G-5 ...F ....
....|..|--- .... ....|--- .... ....|--- .... ....
....|..|--- .... ....|A#4 ...A ....|A#5 ...A ....
....|..|--- .... ....|--- .... ....|--- .... ....
....|..|D#2 ...7 ....|G-4 ...F ....|G-5 ...F ....
....|..|--- .... ....|--- .... ....|--- .... ....
....|..|--- .... ....|G-4 ...A ....|G-5 ...A ....
....|..|--- .... ....|--- .... ....|--- .... ....
..14|..|D-2 .ADF ....|A#4 ...F ....|A#5 ...F ....
....|..|--- .... ....|--- .... ....|--- .... ....
....|..|--- .... ....|G-4 ...A ....|G-5 ...A ....
....|..|--- .... ....|--- .... ....|--- .... ....
....|..|--- .... ....|A#4 ...F ....|A#5 ...F ....
....|..|--- .... ....|--- .... ....|--- .... ....
....|..|D-2 .FDA ....|A#4 ...A ....|A#5 ...A ....
....|..|--- .... ....|--- .... ....|--- .... ....
....|..|--- .... ....|G-4 ...F ....|G-5 ...F ....
....|..|--- .... ....|--- .... ....|--- .... ....
....|..|--- .... ....|A#4 ...A ....|A#5 ...A ....
....|..|--- .... ....|--- .... ....|--- .... ....
....|..|D-2 ...7 ....|G-4 ...F ....|G-5 ...F ....
....|..|--- .... ....|--- .... ....|--- .... ....
....|..|--- .... ....|G-4 ...A ....|G-5 ...A ....
....|..|--- .... ....|--- .... ....|--- .... ....

[Pattern18]
..1E|..|G-1 2ADF ....|G-3 6FFF ....|A#5 1FE7 ....
....|..|--- .... ....|--- .... ....|--- .... ....
....|..|--- .... ....|G-4 ...A ....|G-5 ...A ....
....|..|--- .... ....|--- .... ....|--- .... ....
..14|..|D-2 .AD. ....|A#3 ...F ....|G-5 ...7 ....
....|..|--- .... ....|--- .... ....|--- .... ....
....|..|G-1 .FDA ....|G-3 ...A ....|R-- .... ....
....|..|--- .... ....|--- .... ....|--- .... ....
...F|..|G-2 .ADF ....|G-4 ...F ....|G-5 .... ....
....|..|--- .... ....|--- .... ....|--- .... ....
....|..|D-2 .FDA ....|A#3 ...A ....|--- .... ....
....|..|--- .... ....|--- .... ....|--- .... ....
..14|..|D-2 .ADF ....|A#4 ...F ....|R-- .... ....
....|..|--- .... ....|--- .... ....|--- .... ....
....|..|G-2 .FDA ....|G-4 ...A ....|--- .... ....
....|..|--- .... ....|--- .... ....|--- .... ....
..19|..|A#2 .CDF ....|D-5 ...F ....|--- .... ....
....|..|--- .... ....|--- .... ....|--- .... ....
....|..|D-2 .FDA ....|A#4 ...A ....|--- .... ....
....|..|--- .... ....|--- .... ....|--- .... ....
..14|..|D-2 .ADF ....|A#4 ...F ....|--- .... ....
....|..|--- .... ....|--- .... ....|--- .... ....
....|..|A#2 .FDA ....|D-5 ...A ....|--- .... ....
....|..|--- .... ....|--- .... ....|--- .... ....
...F|..|G-2 .ADF ....|G-4 ...F ....|--- .... ....
....|..|--- .... ....|--- .... ....|--- .... ....
....|..|D-2 .FDA ....|A#4 ...A ....|--- .... ....
....|..|--- .... ....|--- .... ....|--- .... ....
..14|..|D-2 .ADF ....|A#4 ...F ....|--- .... ....
....|..|--- .... ....|--- .... ....|--- .... ....
....|..|G-2 .FDA ....|G-4 ...A ....|--- .... ....
....|..|--- .... ....|--- .... ....|--- .... ....
..22|..|F-1 .ADF ....|F-3 ...F ....|--- .... ....
....|..|--- .... ....|--- .... ....|--- .... ....
....|..|D-2 .FDA ....|A#4 ...A ....|--- .... ....
....|..|--- .... ....|--- .... ....|--- .... ....
..16|..|C-2 .ADF ....|F-4 ...F ....|--- .... ....
....|..|--- .... ....|--- .... ....|--- .... ....
....|..|F-1 .FDA ....|F-3 ...A ....|--- .... ....
....|..|--- .... ....|--- .... ....|--- .... ....
..11|..|F-2 .ADF ....|A#4 ...F ....|--- .... ....
....|..|--- .... ....|--- .... ....|--- .... ....
....|..|C-2 .FDA ....|F-4 ...A ....|--- .... ....
....|..|--- .... ....|--- .... ....|--- .... ....
..16|..|C-2 .ADF ....|F-4 ...F ....|--- .... ....
....|..|--- .... ....|--- .... ....|--- .... ....
....|..|F-2 .FDA ....|A#4 ...A ....|--- .... ....
....|..|--- .... ....|--- .... ....|--- .... ....
..1B|..|A-2 .CDF ....|C-5 ...F ....|--- .... ....
....|..|--- .... ....|--- .... ....|--- .... ....
....|..|C-2 .FDA ....|F-4 ...A ....|--- .... ....
....|..|--- .... ....|--- .... ....|--- .... ....
..16|..|C-2 .ADF ....|A#4 ...F ....|--- .... ....
....|..|--- .... ....|--- .... ....|--- .... ....
....|..|A-2 .FDA ....|C-5 ...A ....|--- .... ....
....|..|--- .... ....|--- .... ....|--- .... ....
..11|..|F-2 .ADF ....|A-4 ...F ....|--- .... ....
....|..|--- .... ....|--- .... ....|--- .... ....
....|..|C-2 .FDA ....|A#4 ...A ....|--- .... ....
....|..|--- .... ....|--- .... ....|--- .... ....
..16|..|C-2 .ADF ....|A#4 ...F ....|--- .... ....
....|..|--- .... ....|--- .... ....|--- .... ....
....|..|F-2 .FDA ....|A-4 ...A ....|--- .... ....
....|..|--- .... ....|--- .... ....|--- .... ....

[Pattern19]
..24|..|E-1 2ADF ....|E-3 6FFF ....|--- .... ....
....|..|--- .... ....|--- .... ....|--- .... ....
....|..|C-2 .FDA ....|A#4 ...A ....|--- .... ....
....|..|--- .... ....|--- .... ....|--- .... ....
..16|..|C-2 .ADF ....|E-4 ...F ....|--- .... ....
....|..|--- .... ....|--- .... ....|--- .... ....
....|..|E-1 .FDA ....|E-3 ...A ....|--- .... ....
....|..|--- .... ....|--- .... ....|--- .... ....
..12|..|E-2 .ADF ....|G-4 ...F ....|--- .... ....
....|..|--- .... ....|--- .... ....|--- .... ....
....|..|C-2 .FDA ....|E-4 ...A ....|--- .... ....
....|..|--- .... ....|--- .... ....|--- .... ....
..16|..|C-2 .ADF ....|E-4 ...F ....|--- .... ....
....|..|--- .... ....|--- .... ....|--- .... ....
....|..|E-2 .FDA ....|G-4 ...A ....|--- .... ....
....|..|--- .... ....|--- .... ....|--- .... ....
...F|..|G-2 .ADF ....|C-5 ...F ....|C-6 1FEF ....
....|..|--- .... ....|--- .... ....|--- .... ....
....|..|C-2 .FDA ....|E-4 ...A ....|--- .... ....
....|..|--- .... ....|--- .... ....|--- .... ....
..16|..|C-2 .ADF ....|A#4 ...F ....|A#5 .... ....
....|..|--- .... ....|--- .... ....|--- .... ....
....|..|G-2 .FDA ....|C-5 ...A ....|C-6 ...A ....
....|..|--- .... ....|--- .... ....|--- .... ....
..12|..|E-2 .ADF ....|G-4 ...F ....|G-5 ...F ....
....|..|--- .... ....|--- .... ....|--- .... ....
....|..|C-2 .FDA ....|A#4 ...A ....|A#5 ...A ....
....|..|--- .... ....|--- .... ....|--- .... ....
..16|..|C-2 .ADF ....|E-4 ...F ....|E-5 ...F ....
....|..|--- .... ....|--- .... ....|--- .... ....
....|..|E-2 .FDA ....|G-4 ...A ....|G-5 ...A ....
....|..|--- .... ....|--- .... ....|--- .... ....
..26|..|D#1 .ADF ....|D#4 ...F ....|A#5 ...7 ....
....|..|--- .... ....|--- .... ....|--- .... ....
....|..|C-2 .FDA ....|E-4 ...A ....|E-5 ...A ....
....|..|--- .... ....|--- .... ....|--- .... ....
..19|..|A#1 .ADF ....|D#4 ...F ....|G-5 ...7 ....
....|..|--- .... ....|--- .... ....|--- .... ....
....|..|D#1 .FDA ....|D#4 ...A ....|R-- .... ....
....|..|--- .... ....|--- .... ....|--- .... ....
..13|..|D#2 .ADF ....|G-4 ...F ....|G-5 ...F ....
....|..|--- .... ....|--- .... ....|--- .... ....
....|..|A#1 .FDA ....|D#4 ...A ....|--- .... ....
....|..|--- .... ....|--- .... ....|--- .... ....
..19|..|A#1 .ADF ....|A#4 ...F ....|A#5 .... ....
....|..|--- .... ....|--- .... ....|--- .... ....
....|..|D#2 .FDA ....|G-4 ...A ....|G-5 ...A ....
....|..|--- .... ....|--- .... ....|--- .... ....
...F|..|G-2 .ADF ....|G-3 ...F ....|R-- .... ....
....|..|--- .... ....|--- .... ....|--- .... ....
....|..|A#1 .FDA ....|A#4 ...A ....|A#5 .... ....
....|..|--- .... ....|--- .... ....|--- .... ....
...F|..|G-2 .ADF ....|G-3 ...F ....|G-5 ...7 ....
....|..|--- .... ....|--- .... ....|--- .... ....
....|..|G-2 .FDA ....|G-3 ...A ....|R-- .... ....
....|..|--- .... ....|--- .... ....|--- .... ....
...F|..|G-2 .ADF ....|G-3 ...F ....|A#5 .... ....
....|..|--- .... ....|--- .... ....|--- .... ....
....|..|G-2 .FDA ....|G-3 ...A ....|--- .... ....
....|..|--- .... ....|--- .... ....|--- .... ....
...F|..|G-2 .ADF ....|G-3 ...F ....|R-- .... ....
....|..|--- .... ....|--- .... ....|--- .... ....
....|..|G-2 .FDA ....|G-3 ...A ....|--- .... ....
....|..|--- .... ....|--- .... ....|--- .... ....

[Pattern20]
..1E|..|G-1 2ADF ....|G-3 6FFF ....|--- .... ....
....|..|--- .... ....|--- .... ....|--- .... ....
....|..|G-2 .FDA ....|G-3 ...A ....|--- .... ....
....|..|--- .... ....|--- .... ....|--- .... ....
..14|..|D-2 .ADF ....|A#3 ...F ....|--- .... ....
....|..|--- .... ....|--- .... ....|--- .... ....
....|..|G-1 .FDA ....|G-3 ...A ....|--- .... ....
....|..|--- .... ....|--- .... ....|--- .... ....
...F|..|G-2 .ADF ....|G-4 ...F ....|--- .... ....
....|..|--- .... ....|--- .... ....|--- .... ....
....|..|D-2 .FDA ....|A#3 ...A ....|--- .... ....
....|..|--- .... ....|--- .... ....|--- .... ....
..14|..|D-2 .ADF ....|A#4 ...F ....|--- .... ....
....|..|--- .... ....|--- .... ....|--- .... ....
....|..|G-2 .FDA ....|G-4 ...A ....|--- .... ....
....|..|--- .... ....|--- .... ....|--- .... ....
..19|..|A#2 .CDF ....|D-5 ...F ....|--- .... ....
....|..|--- .... ....|--- .... ....|--- .... ....
....|..|D-2 .FDA ....|A#4 ...A ....|--- .... ....
....|..|--- .... ....|--- .... ....|--- .... ....
..14|..|D-2 .ADF ....|A#4 ...F ....|--- .... ....
....|..|--- .... ....|--- .... ....|--- .... ....
....|..|A#2 .FDA ....|D-5 ...A ....|--- .... ....
....|..|--- .... ....|--- .... ....|--- .... ....
...F|..|G-2 .ADF ....|G-4 ...F ....|--- .... ....
....|..|--- .... ....|--- .... ....|--- .... ....
....|..|D-2 .FDA ....|A#4 ...A ....|--- .... ....
....|..|--- .... ....|--- .... ....|--- .... ....
..14|..|D-2 .ADF ....|A#4 ...F ....|--- .... ....
....|..|--- .... ....|--- .... ....|--- .... ....
....|..|G-2 .FDA ....|G-4 ...A ....|--- .... ....
....|..|--- .... ....|--- .... ....|--- .... ....
..22|..|F-1 .ADF ....|F-3 ...F ....|--- .... ....
....|..|--- .... ....|--- .... ....|--- .... ....
....|..|D-2 .FDA ....|A#4 ...A ....|--- .... ....
....|..|--- .... ....|--- .... ....|--- .... ....
..16|..|C-2 .ADF ....|F-4 ...F ....|--- .... ....
....|..|--- .... ....|--- .... ....|--- .... ....
....|..|F-1 .FDA ....|F-3 ...A ....|--- .... ....
....|..|--- .... ....|--- .... ....|--- .... ....
..11|..|F-2 .ADF ....|A#4 ...F ....|--- .... ....
....|..|--- .... ....|--- .... ....|--- .... ....
....|..|C-2 .FDA ....|F-4 ...A ....|--- .... ....
....|..|--- .... ....|--- .... ....|--- .... ....
..16|..|C-2 .ADF ....|F-4 ...F ....|--- .... ....
....|..|--- .... ....|--- .... ....|--- .... ....
....|..|F-2 .FDA ....|A#4 ...A ....|--- .... ....
....|..|--- .... ....|--- .... ....|--- .... ....
..1B|..|A-2 .CDF ....|C-5 ...F ....|--- .... ....
....|..|--- .... ....|--- .... ....|--- .... ....
....|..|C-2 .FDA ....|F-4 ...A ....|--- .... ....
....|..|--- .... ....|--- .... ....|--- .... ....
..16|..|C-2 .ADF ....|A#4 ...F ....|--- .... ....
....|..|--- .... ....|--- .... ....|--- .... ....
....|..|A-2 .FDA ....|C-5 ...A ....|--- .... ....
....|..|--- .... ....|--- .... ....|--- .... ....
..11|..|F-2 .ADF ....|A-4 ...F ....|--- .... ....
....|..|--- .... ....|--- .... ....|--- .... ....
....|..|C-2 .FDA ....|A#4 ...A ....|--- .... ....
....|..|--- .... ....|--- .... ....|--- .... ....
..16|..|C-2 .ADF ....|A#4 ...F ....|--- .... ....
....|..|--- .... ....|--- .... ....|--- .... ....
....|..|F-2 .FDA ....|A-4 ...A ....|--- .... ....
....|..|--- .... ....|--- .... ....|--- .... ....

[Pattern21]
..24|..|E-1 2ADF ....|A#4 6FFF ....|A#5 1FEF ....
....|..|--- .... ....|--- .... ....|--- .... ....
....|..|C-2 .FDA ....|A#4 ...A ....|--- .... ....
....|..|--- .... ....|--- .... ....|--- .... ....
..16|..|C-2 .ADF ....|A#4 ...F ....|A#5 .... ....
....|..|--- .... ....|--- .... ....|--- .... ....
....|..|E-1 .FDA ....|A#4 ...A ....|A#5 ...A ....
....|..|--- .... ....|--- .... ....|--- .... ....
..12|..|E-2 .ADF ....|G-4 ...F ....|G-5 ...F ....
....|..|--- .... ....|--- .... ....|--- .... ....
....|..|C-2 .FDA ....|A#4 ...A ....|A#5 ...A ....
....|..|--- .... ....|--- .... ....|--- .... ....
..16|..|C-2 .ADF ....|G-4 ...F ....|G-5 ...F ....
....|..|--- .... ....|--- .... ....|--- .... ....
....|..|E-2 .FDA ....|G-4 ...A ....|G-5 ...A ....
....|..|--- .... ....|--- .... ....|--- .... ....
...F|..|G-2 .ADF ....|A#4 ...F ....|A#5 ...7 ....
....|..|--- .... ....|--- .... ....|--- .... ....
....|..|C-2 .FDA ....|G-4 ...A ....|G-5 ...A ....
....|..|--- .... ....|--- .... ....|--- .... ....
..16|..|C-2 .ADF ....|A#4 ...F ....|G-5 ...7 ....
....|..|--- .... ....|--- .... ....|--- .... ....
....|..|G-2 .FDA ....|A#4 ...A ....|R-- .... ....
....|..|--- .... ....|--- .... ....|--- .... ....
..12|..|E-2 .ADF ....|G-4 ...F ....|G-5 .... ....
....|..|--- .... ....|--- .... ....|--- .... ....
....|..|C-2 .FDA ....|A#4 ...A ....|--- .... ....
....|..|--- .... ....|--- .... ....|--- .... ....
..16|..|C-2 .ADF ....|G-4 ...F ....|R-- .... ....
....|..|--- .... ....|--- .... ....|--- .... ....
....|..|E-2 .FDA ....|G-4 ...A ....|--- .... ....
....|..|--- .... ....|--- .... ....|--- .... ....
..26|..|D#1 .ADF ....|A#4 ...F ....|A#5 ...F ....
....|..|--- .... ....|--- .... ....|--- .... ....
....|..|C-2 .FDA ....|G-4 ...A ....|--- .... ....
....|..|--- .... ....|--- .... ....|--- .... ....
..19|..|A#1 .ADF ....|A#4 ...F ....|A#5 .... ....
....|..|--- .... ....|--- .... ....|--- .... ....
....|..|D#1 .FDA ....|A#4 ...A ....|A#5 ...A ....
....|..|--- .... ....|--- .... ....|--- .... ....
..13|..|D#2 .ADF ....|G-4 ...F ....|G-5 ...F ....
....|..|--- .... ....|--- .... ....|--- .... ....
....|..|A#1 .FDA ....|A#4 ...A ....|A#5 ...A ....
....|..|--- .... ....|--- .... ....|--- .... ....
..19|..|A#1 .ADF ....|G-4 ...F ....|G-5 ...F ....
....|..|--- .... ....|--- .... ....|--- .... ....
....|..|D#2 .FDA ....|G-4 ...A ....|G-5 ...A ....
....|..|--- .... ....|--- .... ....|--- .... ....
..28|..|D-1 .ADF ....|A#4 ...F ....|A#5 ...F ....
....|..|--- .... ....|--- .... ....|--- .... ....
....|..|A#1 .FDA ....|G-4 ...A ....|G-5 ...A ....
....|..|--- .... ....|--- .... ....|--- .... ....
..1B|..|A-1 .ADF ....|A#4 ...F ....|A#5 ...F ....
....|..|--- .... ....|--- .... ....|--- .... ....
....|..|D-1 .FDA ....|A#4 ...A ....|A#5 ...A ....
....|..|--- .... ....|--- .... ....|--- .... ....
..14|..|D-2 .ADF ....|G-4 ...F ....|G-5 ...F ....
....|..|--- .... ....|--- .... ....|--- .... ....
....|..|A-1 .FDA ....|A#4 ...A ....|A#5 ...A ....
....|..|--- .... ....|--- .... ....|--- .... ....
..1B|..|A-1 .ADF ....|G-4 ...F ....|G-5 ...F ....
....|..|--- .... ....|--- .... ....|--- .... ....
....|..|D-2 .FDA ....|G-4 ...A ....|G-5 ...A ....
....|..|--- .... ....|--- .... ....|--- .... ....

[Pattern22]
..1E|..|G-1 2ADF ....|F-4 6FFF ....|A#5 1FE7 ....
....|..|--- .... ....|--- .... ....|--- .... ....
....|..|A-1 .FDA ....|G-4 ...A ....|G-5 ...A ....
....|..|--- .... ....|--- .... ....|--- .... ....
..14|..|D-2 .ADF ....|G-4 ...F ....|G-5 ...7 ....
....|..|--- .... ....|--- .... ....|--- .... ....
....|..|G-1 .FDA ....|F-4 ...A ....|R-- .... ....
....|..|--- .... ....|--- .... ....|--- .... ....
...F|..|G-2 .ADF ....|A#4 ...F ....|G-5 .... ....
....|..|--- .... ....|--- .... ....|--- .... ....
....|..|D-2 .FDA ....|G-4 ...A ....|--- .... ....
....|..|--- .... ....|--- .... ....|--- .... ....
..14|..|D-2 .ADF ....|G-4 ...F ....|R-- .... ....
....|..|--- .... ....|--- .... ....|--- .... ....
....|..|G-2 .FDA ....|A#4 ...A ....|--- .... ....
....|..|--- .... ....|--- .... ....|--- .... ....
..19|..|A#2 .CDF ....|D-5 ...F ....|--- .... ....
....|..|--- .... ....|--- .... ....|--- .... ....
....|..|D-2 .FDA ....|G-4 ...A ....|--- .... ....
....|..|--- .... ....|--- .... ....|--- .... ....
..14|..|D-2 .ADF ....|C-5 ...F ....|--- .... ....
....|..|--- .... ....|--- .... ....|--- .... ....
....|..|A#2 .FDA ....|D-5 ...A ....|--- .... ....
....|..|--- .... ....|--- .... ....|--- .... ....
...F|..|G-2 .ADF ....|A#4 ...F ....|--- .... ....
....|..|--- .... ....|--- .... ....|--- .... ....
....|..|D-2 .FDA ....|C-5 ...A ....|--- .... ....
....|..|--- .... ....|--- .... ....|--- .... ....
..14|..|D-2 .ADF ....|G-4 ...F ....|--- .... ....
....|..|--- .... ....|--- .... ....|--- .... ....
....|..|G-2 .FDA ....|A#4 ...A ....|--- .... ....
....|..|--- .... ....|--- .... ....|--- .... ....
..22|..|F-1 .ADF ....|F-4 ...F ....|--- .... ....
....|..|--- .... ....|--- .... ....|--- .... ....
....|..|D-2 .FDA ....|G-4 ...A ....|--- .... ....
....|..|--- .... ....|--- .... ....|--- .... ....
..16|..|C-2 .ADF ....|G-4 ...F ....|--- .... ....
....|..|--- .... ....|--- .... ....|--- .... ....
....|..|F-1 .FDA ....|F-4 ...A ....|--- .... ....
....|..|--- .... ....|--- .... ....|--- .... ....
..11|..|F-2 .ADF ....|A#4 ...F ....|--- .... ....
....|..|--- .... ....|--- .... ....|--- .... ....
....|..|C-2 .FDA ....|G-4 ...A ....|--- .... ....
....|..|--- .... ....|--- .... ....|--- .... ....
..16|..|C-2 .ADF ....|G-4 ...F ....|--- .... ....
....|..|--- .... ....|--- .... ....|--- .... ....
....|..|F-2 .FDA ....|A#4 ...A ....|--- .... ....
....|..|--- .... ....|--- .... ....|--- .... ....
..1B|..|A-2 .CDF ....|D-5 ...F ....|--- .... ....
....|..|--- .... ....|--- .... ....|--- .... ....
....|..|C-2 .FDA ....|G-4 ...A ....|--- .... ....
....|..|--- .... ....|--- .... ....|--- .... ....
..16|..|C-2 .ADF ....|C-5 ...F ....|--- .... ....
....|..|--- .... ....|--- .... ....|--- .... ....
....|..|A-2 .FDA ....|D-5 ...A ....|--- .... ....
....|..|--- .... ....|--- .... ....|--- .... ....
..11|..|F-2 .ADF ....|A#4 ...F ....|--- .... ....
....|..|--- .... ....|--- .... ....|--- .... ....
....|..|C-2 .FDA ....|C-5 ...A ....|--- .... ....
....|..|--- .... ....|--- .... ....|--- .... ....
..16|..|C-2 .ADF ....|G-4 ...F ....|--- .... ....
....|..|--- .... ....|--- .... ....|--- .... ....
....|..|F-2 .FDA ....|A#4 ...A ....|--- .... ....
....|..|--- .... ....|--- .... ....|--- .... ....

[Pattern23]
..24|..|E-1 2ADF ....|A#4 6FFF ....|--- .... ....
....|..|--- .... ....|--- .... ....|--- .... ....
....|..|C-2 .FDA ....|G-4 ...A ....|--- .... ....
....|..|--- .... ....|--- .... ....|--- .... ....
..16|..|C-2 .ADF ....|A#4 ...F ....|--- .... ....
....|..|--- .... ....|--- .... ....|--- .... ....
....|..|E-1 .FDA ....|A#4 ...A ....|--- .... ....
....|..|--- .... ....|--- .... ....|--- .... ....
..12|..|E-2 .ADF ....|G-4 ...F ....|--- .... ....
....|..|--- .... ....|--- .... ....|--- .... ....
....|..|C-2 .FDA ....|A#4 ...A ....|--- .... ....
....|..|--- .... ....|--- .... ....|--- .... ....
..16|..|C-2 .ADF ....|G-4 ...F ....|--- .... ....
....|..|--- .... ....|--- .... ....|--- .... ....
....|..|E-2 .FDA ....|G-4 ...A ....|--- .... ....
....|..|--- .... ....|--- .... ....|--- .... ....
...F|..|G-2 .ADF ....|A#3 ...F ....|--- .... ....
....|..|--- .... ....|--- .... ....|--- .... ....
....|..|C-2 .FDA ....|G-4 ...A ....|--- .... ....
....|..|--- .... ....|--- .... ....|--- .... ....
..16|..|C-2 .ADF ....|A#3 ...F ....|--- .... ....
....|..|--- .... ....|--- .... ....|--- .... ....
....|..|G-2 .FDA ....|A#3 ...A ....|--- .... ....
....|..|--- .... ....|--- .... ....|--- .... ....
..12|..|E-2 .ADF ....|G-3 ...F ....|--- .... ....
....|..|--- .... ....|--- .... ....|--- .... ....
....|..|C-2 .FDA ....|A#3 ...A ....|--- .... ....
....|..|--- .... ....|--- .... ....|--- .... ....
..16|..|C-2 .ADF ....|G-3 ...F ....|--- .... ....
....|..|--- .... ....|--- .... ....|--- .... ....
....|..|E-2 .FDA ....|G-3 ...A ....|--- .... ....
....|..|--- .... ....|--- .... ....|--- .... ....
..26|..|D#1 .ADF ....|A#4 ...F ....|--- .... ....
....|..|--- .... ....|--- .... ....|--- .... ....
....|..|C-2 .FDA ....|G-3 ...A ....|--- .... ....
....|..|--- .... ....|--- .... ....|--- .... ....
..19|..|A#1 .ADF ....|A#4 ...F ....|--- .... ....
....|..|--- .... ....|--- .... ....|--- .... ....
....|..|D#1 .FDA ....|A#4 ...A ....|--- .... ....
....|..|--- .... ....|--- .... ....|--- .... ....
..13|..|D#2 .ADF ....|G-4 ...F ....|--- .... ....
....|..|--- .... ....|--- .... ....|--- .... ....
....|..|A#1 .FDA ....|A#4 ...A ....|--- .... ....
....|..|--- .... ....|--- .... ....|--- .... ....
..19|..|A#1 .ADF ....|G-4 ...F ....|--- .... ....
....|..|--- .... ....|--- .... ....|--- .... ....
....|..|D#2 .FDA ....|G-4 ...A ....|--- .... ....
....|..|--- .... ....|--- .... ....|--- .... ....
..28|..|D-1 .ADF ....|A#4 ...F ....|--- .... ....
....|..|--- .... ....|--- .... ....|--- .... ....
....|..|A#1 .FDA ....|G-4 ...A ....|--- .... ....
....|..|--- .... ....|--- .... ....|--- .... ....
..1B|..|A-1 .ADF ....|A#4 ...F ....|--- .... ....
....|..|--- .... ....|--- .... ....|--- .... ....
....|..|D-1 .FDA ....|A#4 ...A ....|--- .... ....
....|..|--- .... ....|--- .... ....|--- .... ....
..14|..|D-2 .ADF ....|G-4 ...F ....|--- .... ....
....|..|--- .... ....|--- .... ....|--- .... ....
....|..|A-1 .FDA ....|A#4 ...A ....|--- .... ....
....|..|--- .... ....|--- .... ....|--- .... ....
..1B|..|A-1 .ADF ....|G-4 ...F ....|--- .... ....
....|..|--- .... ....|--- .... ....|--- .... ....
....|..|D-2 .FDA ....|G-4 ...A ....|--- .... ....
....|..|--- .... ....|--- .... ....|--- .... ....

[Pattern24]
..1E|..|G-1 2ADF ....|F-3 6FFF ....|--- .... ....
....|..|--- .... ....|--- .... ....|--- .... ....
....|..|A-1 .FDA ....|G-4 ...A ....|--- .... ....
....|..|--- .... ....|--- .... ....|--- .... ....
..14|..|D-2 .ADF ....|G-3 ...F ....|--- .... ....
....|..|--- .... ....|--- .... ....|--- .... ....
....|..|G-1 .FDA ....|F-3 ...A ....|--- .... ....
....|..|--- .... ....|--- .... ....|--- .... ....
...F|..|G-2 .ADF ....|A#3 ...F ....|--- .... ....
....|..|--- .... ....|--- .... ....|--- .... ....
....|..|D-2 .FDA ....|G-3 ...A ....|--- .... ....
....|..|--- .... ....|--- .... ....|--- .... ....
..14|..|D-2 .ADF ....|G-3 ...F ....|--- .... ....
....|..|--- .... ....|--- .... ....|--- .... ....
....|..|G-2 .FDA ....|A#3 ...A ....|--- .... ....
....|..|--- .... ....|--- .... ....|--- .... ....
..19|..|A#2 .CDF ....|D-4 ...F ....|--- .... ....
....|..|--- .... ....|--- .... ....|--- .... ....
....|..|D-2 .FDA ....|G-3 ...A ....|--- .... ....
....|..|--- .... ....|--- .... ....|--- .... ....
..14|..|D-2 .ADF ....|C-4 ...F ....|--- .... ....
....|..|--- .... ....|--- .... ....|--- .... ....
....|..|A#2 .FDA ....|D-4 ...A ....|--- .... ....
....|..|--- .... ....|--- .... ....|--- .... ....
...F|..|G-2 .ADF ....|A#3 ...F ....|--- .... ....
....|..|--- .... ....|--- .... ....|--- .... ....
....|..|D-2 .FDA ....|C-4 ...A ....|--- .... ....
....|..|--- .... ....|--- .... ....|--- .... ....
..14|..|D-2 .ADF ....|G-3 ...F ....|--- .... ....
....|..|--- .... ....|--- .... ....|--- .... ....
....|..|G-2 .FDA ....|A#3 ...A ....|--- .... ....
....|..|--- .... ....|--- .... ....|--- .... ....
..22|..|F-1 .ADF ....|F-3 ...F ....|--- .... ....
....|..|--- .... ....|--- .... ....|--- .... ....
....|..|D-2 .FDA ....|G-3 ...A ....|--- .... ....
....|..|--- .... ....|--- .... ....|--- .... ....
..16|..|C-2 .ADF ....|G-3 ...F ....|--- .... ....
....|..|--- .... ....|--- .... ....|--- .... ....
....|..|F-1 .FDA ....|F-3 ...A ....|--- .... ....
....|..|--- .... ....|--- .... ....|--- .... ....
..11|..|F-2 .ADF ....|A#3 ...F ....|--- .... ....
....|..|--- .... ....|--- .... ....|--- .... ....
....|..|C-2 .FDA ....|G-3 ...A ....|--- .... ....
....|..|--- .... ....|--- .... ....|--- .... ....
..16|..|C-2 .ADF ....|G-3 ...F ....|--- .... ....
....|..|--- .... ....|--- .... ....|--- .... ....
....|..|F-2 .FDA ....|A#3 ...A ....|--- .... ....
....|..|--- .... ....|--- .... ....|--- .... ....
..1B|..|A-2 .CDF ....|D-4 ...F ....|--- .... ....
....|..|--- .... ....|--- .... ....|--- .... ....
....|..|C-2 .FDA ....|G-3 ...A ....|--- .... ....
....|..|--- .... ....|--- .... ....|--- .... ....
..16|..|C-2 .ADF ....|C-4 ...F ....|--- .... ....
....|..|--- .... ....|--- .... ....|--- .... ....
....|..|A-2 .FDA ....|D-4 ...A ....|--- .... ....
....|..|--- .... ....|--- .... ....|--- .... ....
..11|..|F-2 .ADF ....|A#3 ...F ....|--- .... ....
....|..|--- .... ....|--- .... ....|--- .... ....
....|..|C-2 .FDA ....|C-4 ...A ....|--- .... ....
....|..|--- .... ....|--- .... ....|--- .... ....
..16|..|C-2 .ADF ....|G-3 ...F ....|--- .... ....
....|..|--- .... ....|--- .... ....|--- .... ....
....|..|F-2 .FDA ....|A#3 ...A ....|--- .... ....
....|..|--- .... ....|--- .... ....|--- .... ....

[Pattern25]
..24|..|E-1 2ADF ....|F-4 6FFF ....|--- .... ....
....|..|--- .... ....|--- .... ....|--- .... ....
....|..|C-2 .FDA ....|G-3 ...A ....|--- .... ....
....|..|--- .... ....|--- .... ....|--- .... ....
..16|..|C-2 .ADF ....|G-4 ...F ....|--- .... ....
....|..|--- .... ....|--- .... ....|--- .... ....
....|..|E-1 .FDA ....|F-4 ...A ....|--- .... ....
....|..|--- .... ....|--- .... ....|--- .... ....
..12|..|E-2 .ADF ....|A#4 ...F ....|--- .... ....
....|..|--- .... ....|--- .... ....|--- .... ....
....|..|C-2 .FDA ....|G-4 ...A ....|--- .... ....
....|..|--- .... ....|--- .... ....|--- .... ....
..16|..|C-2 .ADF ....|G-4 ...F ....|--- .... ....
....|..|--- .... ....|--- .... ....|--- .... ....
....|..|E-2 .FDA ....|A#4 ...A ....|--- .... ....
....|..|--- .... ....|--- .... ....|--- .... ....
...F|..|G-2 .ADF ....|C-5 ...F ....|--- .... ....
....|..|--- .... ....|D-5 .... ....|--- .... ....
....|..|C-2 .FDA ....|G-4 ...A ....|--- .... ....
....|..|--- .... ....|--- .... ....|--- .... ....
..16|..|C-2 .ADF ....|C-5 ...F ....|--- .... ....
....|..|--- .... ....|--- .... ....|--- .... ....
....|..|G-2 .FDA ....|C-5 ...A ....|--- .... ....
....|..|--- .... ....|D-5 .... ....|--- .... ....
..12|..|E-2 .ADF ....|A#4 ...F ....|--- .... ....
....|..|--- .... ....|--- .... ....|--- .... ....
....|..|C-2 .FDA ....|C-5 ...A ....|--- .... ....
....|..|--- .... ....|--- .... ....|--- .... ....
..16|..|C-2 .ADF ....|G-4 ...F ....|--- .... ....
....|..|--- .... ....|D-5 ...7 ....|--- .... ....
....|..|E-2 .FDA ....|A#4 ...A ....|--- .... ....
....|..|--- .... ....|--- .... ....|--- .... ....
..26|..|D#1 .ADF ....|F-4 ...F ....|--- .... ....
....|..|--- .... ....|--- .... ....|--- .... ....
....|..|C-2 .FDA ....|G-4 ...A ....|--- .... ....
....|..|--- .... ....|--- .... ....|--- .... ....
..19|..|A#1 .ADF ....|G-4 ...F ....|--- .... ....
....|..|--- .... ....|--- .... ....|--- .... ....
....|..|D#1 .FDA ....|F-4 ...A ....|--- .... ....
....|..|--- .... ....|--- .... ....|--- .... ....
..13|..|D#2 .ADF ....|A#4 ...F ....|--- .... ....
....|..|--- .... ....|--- .... ....|--- .... ....
....|..|A#1 .FDA ....|G-4 ...A ....|--- .... ....
....|..|--- .... ....|--- .... ....|--- .... ....
....|..|D#1 ...7 ....|C-5 ...F ....|--- .... ....
....|..|--- .... ....|--- .... ....|--- .... ....
....|..|D#2 ...A ....|A#4 ...A ....|--- .... ....
....|..|--- .... ....|--- .... ....|--- .... ....
...F|..|G-2 .ADF ....|G-3 ...F ....|--- .... ....
....|..|--- .... ....|--- .... ....|--- .... ....
....|..|--- .... ....|C-5 ...A ....|--- .... ....
....|..|--- .... ....|--- .... ....|--- .... ....
...F|..|G-2 .AD. ....|G-3 ...F ....|--- .... ....
....|..|--- .... ....|--- .... ....|--- .... ....
....|..|G-2 .FDA ....|G-3 ...A ....|--- .... ....
....|..|--- .... ....|--- .... ....|--- .... ....
...F|..|G-2 .ADF ....|G-3 ...F ....|--- .... ....
....|..|--- .... ....|--- .... ....|--- .... ....
....|..|G-2 .FDA ....|G-3 ...A ....|--- .... ....
....|..|--- .... ....|--- .... ....|--- .... ....
...F|..|G-2 .ADF ....|G-3 ...F ....|--- .... ....
....|..|--- .... ....|--- .... ....|--- .... ....
....|..|G-2 .FDA ....|G-3 ...A ....|--- .... ....
....|..|--- .... ....|--- .... ....|--- .... ....

[Pattern26]
..1E|..|G-1 2ADF ....|F-4 6FFF ....|--- .... ....
....|..|--- .... ....|--- .... ....|--- .... ....
....|..|G-2 .FDA ....|G-3 ...A ....|--- .... ....
....|..|--- .... ....|--- .... ....|--- .... ....
..14|..|D-2 .ADF ....|G-4 ...F ....|--- .... ....
....|..|--- .... ....|--- .... ....|--- .... ....
....|..|G-1 .FDA ....|F-4 ...A ....|--- .... ....
....|..|--- .... ....|--- .... ....|--- .... ....
...F|..|G-2 .ADF ....|A#4 ...F ....|--- .... ....
....|..|--- .... ....|--- .... ....|--- .... ....
....|..|D-2 .FDA ....|G-4 ...A ....|--- .... ....
....|..|--- .... ....|--- .... ....|--- .... ....
..14|..|D-2 .ADF ....|G-4 ...F ....|--- .... ....
....|..|--- .... ....|--- .... ....|--- .... ....
....|..|G-2 .FDA ....|A#4 ...A ....|--- .... ....
....|..|--- .... ....|--- .... ....|--- .... ....
..19|..|A#2 .CDF ....|D-5 ...F ....|--- .... ....
....|..|--- .... ....|--- .... ....|--- .... ....
....|..|D-2 .FDA ....|G-4 ...A ....|--- .... ....
....|..|--- .... ....|--- .... ....|--- .... ....
..14|..|D-2 .ADF ....|G-4 ...F ....|--- .... ....
....|..|--- .... ....|--- .... ....|--- .... ....
....|..|A#2 .FDA ....|A#4 .... ....|--- .... ....
....|..|--- .... ....|--- .... ....|--- .... ....
...F|..|G-2 .ADF ....|G-4 ...7 ....|--- .... ....
....|..|--- .... ....|--- .... ....|--- .... ....
....|..|D-2 .FDA ....|G-4 ...F ....|--- .... ....
....|..|--- .... ....|--- .... ....|--- .... ....
..14|..|D-2 .ADF ....|F-4 .... ....|--- .... ....
....|..|--- .... ....|--- .... ....|--- .... ....
....|..|G-2 .FDA ....|--- .... ....|--- .... ....
....|..|--- .... ....|--- .... ....|--- .... ....
..22|..|F-1 .ADF ....|G-4 ...7 ....|--- .... ....
....|..|--- .... ....|--- .... ....|--- .... ....
....|..|D-2 .FDA ....|A#4 .... ....|--- .... ....
....|..|--- .... ....|--- .... ....|--- .... ....
..16|..|C-2 .ADF ....|G-4 ...F ....|--- .... ....
....|..|--- .... ....|--- .... ....|--- .... ....
....|..|F-1 .FDA ....|G-4 ...7 ....|--- .... ....
....|..|--- .... ....|--- .... ....|--- .... ....
..11|..|F-2 .ADF ....|A#4 ...F ....|--- .... ....
....|..|--- .... ....|--- .... ....|--- .... ....
....|..|C-2 .FDA ....|G-4 ...A ....|--- .... ....
....|..|--- .... ....|--- .... ....|--- .... ....
..16|..|C-2 .ADF ....|G-4 ...F ....|--- .... ....
....|..|--- .... ....|--- .... ....|--- .... ....
....|..|F-2 .FDA ....|A#4 ...A ....|--- .... ....
....|..|--- .... ....|--- .... ....|--- .... ....
..1B|..|A-2 .CDF ....|D-5 ...F ....|--- .... ....
....|..|--- .... ....|--- .... ....|--- .... ....
....|..|C-2 .FDA ....|G-4 ...A ....|--- .... ....
....|..|--- .... ....|--- .... ....|--- .... ....
..16|..|C-2 .ADF ....|A#4 ...7 ....|--- .... ....
....|..|--- .... ....|--- .... ....|--- .... ....
....|..|A-2 .FDA ....|A#4 ...F ....|--- .... ....
....|..|--- .... ....|--- .... ....|--- .... ....
..11|..|F-2 .ADF ....|G-4 ...7 ....|--- .... ....
....|..|--- .... ....|--- .... ....|--- .... ....
....|..|C-2 .FDA ....|R-- .... ....|--- .... ....
....|..|--- .... ....|--- .... ....|--- .... ....
..16|..|C-2 .ADF ....|D-5 .... ....|--- .... ....
....|..|--- .... ....|--- .... ....|--- .... ....
....|..|F-2 .FDA ....|--- .... ....|--- .... ....
....|..|--- .... ....|--- .... ....|--- .... ....

[Pattern27]
..24|..|E-1 2ADF ....|F-4 6FFF ....|--- .... ....
....|..|--- .... ....|--- .... ....|--- .... ....
....|..|C-2 .FDA ....|A#4 ...7 ....|--- .... ....
....|..|--- .... ....|--- .... ....|--- .... ....
..16|..|C-2 .ADF ....|G-4 ...F ....|--- .... ....
....|..|--- .... ....|--- .... ....|--- .... ....
....|..|E-1 .FDA ....|F-4 ...A ....|--- .... ....
....|..|--- .... ....|--- .... ....|--- .... ....
..12|..|E-2 .ADF ....|A#4 ...F ....|--- .... ....
....|..|--- .... ....|--- .... ....|--- .... ....
....|..|C-2 .FDA ....|G-4 .... ....|--- .... ....
....|..|--- .... ....|--- .... ....|--- .... ....
..16|..|C-2 .ADF ....|D-5 .... ....|--- .... ....
....|..|--- .... ....|--- .... ....|--- .... ....
....|..|E-2 .FDA ....|A#4 ...A ....|--- .... ....
....|..|--- .... ....|--- .... ....|--- .... ....
...F|..|G-2 .ADF ....|A#4 ...F ....|--- .... ....
....|..|--- .... ....|--- .... ....|--- .... ....
....|..|C-2 .FDA ....|D-5 ...A ....|--- .... ....
....|..|--- .... ....|--- .... ....|--- .... ....
..16|..|C-2 .ADF ....|G-4 ...F ....|--- .... ....
....|..|--- .... ....|--- .... ....|--- .... ....
....|..|G-2 .FDA ....|G-4 ...7 ....|--- .... ....
....|..|--- .... ....|--- .... ....|--- .... ....
..12|..|E-2 .ADF ....|F-4 ...F ....|--- .... ....
....|..|--- .... ....|--- .... ....|--- .... ....
....|..|C-2 .FDA ....|G-4 ...A ....|--- .... ....
....|..|--- .... ....|--- .... ....|--- .... ....
..16|..|C-2 .ADF ....|G-4 ...F ....|--- .... ....
....|..|--- .... ....|--- .... ....|--- .... ....
....|..|E-2 .FDA ....|F-4 ...A ....|--- .... ....
....|..|--- .... ....|--- .... ....|--- .... ....
..26|..|D#1 .ADF ....|A#3 ...F ....|--- .... ....
....|..|--- .... ....|--- .... ....|--- .... ....
....|..|C-2 .FDA ....|G-4 ...A ....|--- .... ....
....|..|--- .... ....|--- .... ....|--- .... ....
..19|..|A#1 .ADF ....|C-4 ...F ....|--- .... ....
....|..|--- .... ....|--- .... ....|--- .... ....
....|..|D#1 .FDA ....|G-3 .... ....|--- .... ....
....|..|--- .... ....|--- .... ....|--- .... ....
..13|..|D#2 .ADF ....|G-4 ...7 ....|--- .... ....
....|..|--- .... ....|--- .... ....|--- .... ....
....|..|A#1 .FDA ....|F-3 ...F ....|--- .... ....
....|..|--- .... ....|--- .... ....|--- .... ....
..19|..|A#1 .ADF ....|A#3 .... ....|--- .... ....
....|..|--- .... ....|--- .... ....|--- .... ....
....|..|D#2 .FDA ....|--- .... ....|--- .... ....
....|..|--- .... ....|--- .... ....|--- .... ....
..28|..|D-1 .ADF ....|G-3 .... ....|--- .... ....
....|..|--- .... ....|--- .... ....|--- .... ....
....|..|A#1 .FDA ....|G-3 ...7 ....|--- .... ....
....|..|--- .... ....|--- .... ....|--- .... ....
..1B|..|A-1 .ADF ....|F-3 ...F ....|--- .... ....
....|..|--- .... ....|--- .... ....|--- .... ....
....|..|D-1 .FDA ....|F-3 ...7 ....|--- .... ....
....|..|--- .... ....|--- .... ....|--- .... ....
...F|..|G-2 .ADF ....|A#3 .... ....|--- .... ....
....|..|--- .... ....|--- .... ....|--- .... ....
....|..|A-1 .FDA ....|F-3 ...A ....|--- .... ....
....|..|--- .... ....|--- .... ....|--- .... ....
...F|..|G-2 .ADF ....|G-3 ...7 ....|--- .... ....
....|..|--- .... ....|--- .... ....|--- .... ....
....|..|G-2 .FDA ....|R-- .... ....|--- .... ....
....|..|--- .... ....|--- .... ....|--- .... ....

[Pattern28]
..1E|..|G-1 2ADF ....|C-5 6FFF ....|--- .... ....
....|..|--- .... ....|D-5 .... ....|--- .... ....
....|..|G-2 .FDA ....|--- .... ....|--- .... ....
....|..|--- .... ....|--- .... ....|--- .... ....
..14|..|D-2 .ADF ....|C-5 .... ....|--- .... ....
....|..|--- .... ....|--- .... ....|--- .... ....
....|..|G-1 .FDA ....|C-5 ...A ....|--- .... ....
....|..|--- .... ....|D-5 .... ....|--- .... ....
...F|..|G-2 .ADF ....|G-3 ...F ....|--- .... ....
....|..|--- .... ....|--- .... ....|--- .... ....
....|..|D-2 .FDA ....|C-5 ...A ....|--- .... ....
....|..|--- .... ....|--- .... ....|--- .... ....
..14|..|D-2 .ADF ....|G-3 ...F ....|--- .... ....
....|..|--- .... ....|D-5 ...7 ....|--- .... ....
....|..|G-2 .FDA ....|G-3 ...A ....|--- .... ....
....|..|--- .... ....|--- .... ....|--- .... ....
..19|..|A#2 .CDF ....|F-4 ...F ....|--- .... ....
....|..|--- .... ....|--- .... ....|--- .... ....
....|..|D-2 .FDA ....|G-3 ...A ....|--- .... ....
....|..|--- .... ....|--- .... ....|--- .... ....
..14|..|D-2 .ADF ....|G-4 ...F ....|--- .... ....
....|..|--- .... ....|--- .... ....|--- .... ....
....|..|A#2 .FDA ....|F-4 ...A ....|--- .... ....
....|..|--- .... ....|--- .... ....|--- .... ....
...F|..|G-2 .ADF ....|F-4 ...F ....|--- .... ....
....|..|--- .... ....|--- .... ....|--- .... ....
....|..|D-2 .FDA ....|G-4 ...A ....|--- .... ....
....|..|--- .... ....|--- .... ....|--- .... ....
..14|..|D-2 .ADF ....|G-4 ...F ....|--- .... ....
....|..|--- .... ....|--- .... ....|--- .... ....
....|..|G-2 .FDA ....|F-4 ...A ....|--- .... ....
....|..|--- .... ....|--- .... ....|--- .... ....
..22|..|F-1 .ADF ....|C-5 ...F ....|--- .... ....
....|..|--- .... ....|--- .... ....|--- .... ....
....|..|D-2 .FDA ....|G-4 ...A ....|--- .... ....
....|..|--- .... ....|--- .... ....|--- .... ....
..16|..|C-2 .ADF ....|A#4 ...F ....|--- .... ....
....|..|--- .... ....|--- .... ....|--- .... ....
....|..|F-1 .FDA ....|C-5 ...A ....|--- .... ....
....|..|--- .... ....|--- .... ....|--- .... ....
..11|..|F-2 .ADF ....|F-4 ...F ....|--- .... ....
....|..|--- .... ....|--- .... ....|--- .... ....
....|..|C-2 .FDA ....|A#4 ...A ....|--- .... ....
....|..|--- .... ....|--- .... ....|--- .... ....
..16|..|C-2 .ADF ....|G-4 ...F ....|--- .... ....
....|..|--- .... ....|--- .... ....|--- .... ....
....|..|F-2 .FDA ....|F-4 ...A ....|--- .... ....
....|..|--- .... ....|--- .... ....|--- .... ....
..1B|..|A-2 .CDF ....|A#4 ...F ....|--- .... ....
....|..|--- .... ....|--- .... ....|--- .... ....
....|..|C-2 .FDA ....|G-4 ...A ....|--- .... ....
....|..|--- .... ....|--- .... ....|--- .... ....
..16|..|C-2 .ADF ....|G-4 ...F ....|--- .... ....
....|..|--- .... ....|--- .... ....|--- .... ....
....|..|A-2 .FDA ....|A#4 ...A ....|--- .... ....
....|..|--- .... ....|--- .... ....|--- .... ....
..11|..|F-2 .ADF ....|D-5 ...F ....|--- .... ....
....|..|--- .... ....|--- .... ....|--- .... ....
....|..|C-2 .FDA ....|G-4 ...A ....|--- .... ....
....|..|--- .... ....|--- .... ....|--- .... ....
..16|..|C-2 .ADF ....|C-5 ...F ....|--- .... ....
....|..|--- .... ....|--- .... ....|--- .... ....
....|..|F-2 .FDA ....|D-5 ...A ....|--- .... ....
....|..|--- .... ....|--- .... ....|--- .... ....

[Pattern29]
..24|..|E-1 2ADF ....|C-5 6FFF ....|--- .... ....
....|..|--- .... ....|--- .... ....|--- .... ....
....|..|C-2 .FDA ....|G-4 .... ....|--- .... ....
....|..|--- .... ....|--- .... ....|--- .... ....
..16|..|C-2 .ADF ....|A#4 .... ....|--- .... ....
....|..|--- .... ....|--- .... ....|--- .... ....
....|..|E-1 .FDA ....|G-4 .... ....|--- .... ....
....|..|--- .... ....|--- .... ....|--- .... ....
..12|..|E-2 .ADF ....|C-5 .... ....|--- .... ....
....|..|--- .... ....|--- .... ....|--- .... ....
....|..|C-2 .FDA ....|G-4 .... ....|--- .... ....
....|..|--- .... ....|--- .... ....|--- .... ....
..16|..|C-2 .ADF ....|A#4 .... ....|--- .... ....
....|..|--- .... ....|--- .... ....|--- .... ....
....|..|E-2 .FDA ....|G-4 .... ....|--- .... ....
....|..|--- .... ....|--- .... ....|--- .... ....
...F|..|G-2 .ADF ....|C-5 .... ....|--- .... ....
....|..|--- .... ....|--- .... ....|--- .... ....
....|..|C-2 .FDA ....|G-4 .... ....|--- .... ....
....|..|--- .... ....|--- .... ....|--- .... ....
..16|..|C-2 .ADF ....|A#4 .... ....|--- .... ....
....|..|--- .... ....|--- .... ....|--- .... ....
....|..|G-2 .FDA ....|G-4 .... ....|--- .... ....
....|..|--- .... ....|--- .... ....|--- .... ....
..12|..|E-2 .ADF ....|C-5 .... ....|--- .... ....
....|..|--- .... ....|--- .... ....|--- .... ....
....|..|C-2 .FDA ....|G-4 .... ....|--- .... ....
....|..|--- .... ....|--- .... ....|--- .... ....
..16|..|C-2 .ADF ....|A#4 .... ....|--- .... ....
....|..|--- .... ....|--- .... ....|--- .... ....
....|..|E-2 .FDA ....|D-5 .... ....|--- .... ....
....|..|--- .... ....|--- .... ....|--- .... ....
..26|..|D#1 .ADF ....|D-5 .... ....|--- .... ....
....|..|--- .... ....|--- .... ....|--- .... ....
....|..|C-2 .FDA ....|G-4 ...7 ....|--- .... ....
....|..|--- .... ....|--- .... ....|--- .... ....
..19|..|A#1 .ADF ....|C-5 ...F ....|--- .... ....
....|..|--- .... ....|--- .... ....|--- .... ....
....|..|D#1 .FDA ....|G-4 ...7 ....|--- .... ....
....|..|--- .... ....|--- .... ....|--- .... ....
..13|..|D#2 .ADF ....|A#4 ...F ....|--- .... ....
....|..|--- .... ....|--- .... ....|--- .... ....
....|..|A#1 .FDA ....|D-5 ...7 ....|--- .... ....
....|..|--- .... ....|--- .... ....|--- .... ....
..19|..|A#1 .ADF ....|C-5 ...F ....|--- .... ....
....|..|--- .... ....|--- .... ....|--- .... ....
....|..|D#2 .FDA ....|A#4 ...A ....|--- .... ....
....|..|--- .... ....|--- .... ....|--- .... ....
...F|..|G-2 .ADF ....|C-5 ...7 ....|--- .... ....
....|..|--- .... ....|--- .... ....|--- .... ....
....|..|A#1 .FDA ....|C-5 ...A ....|--- .... ....
....|..|--- .... ....|--- .... ....|--- .... ....
...F|..|G-2 .ADF ....|A#4 ...7 ....|--- .... ....
....|..|--- .... ....|--- .... ....|--- .... ....
....|..|G-2 .FDA ....|R-- .... ....|--- .... ....
....|..|--- .... ....|--- .... ....|--- .... ....
...F|..|G-2 .ADF ....|C-5 .... ....|--- .... ....
....|..|--- .... ....|--- .... ....|--- .... ....
....|..|G-2 .FDA ....|--- .... ....|--- .... ....
....|..|--- .... ....|--- .... ....|--- .... ....
...F|..|G-2 .ADF ....|F-4 ...F ....|--- .... ....
....|..|--- .... ....|--- .... ....|--- .... ....
....|..|G-2 .FDA ....|G-4 .... ....|--- .... ....
....|..|--- .... ....|--- .... ....|--- .... ....

[Pattern30]
..1E|..|G-1 2ADF ....|A#4 6FFF ....|--- .... ....
....|..|--- .... ....|--- .... ....|--- .... ....
....|..|G-2 .FDA ....|F-4 ...A ....|--- .... ....
....|..|--- .... ....|--- .... ....|--- .... ....
..14|..|D-2 .ADF ....|A#4 ...F ....|--- .... ....
....|..|--- .... ....|--- .... ....|--- .... ....
....|..|G-1 .FDA ....|A#4 ...A ....|--- .... ....
....|..|--- .... ....|--- .... ....|--- .... ....
...F|..|G-2 .ADF ....|A#4 ...F ....|--- .... ....
....|..|--- .... ....|--- .... ....|--- .... ....
....|..|D-2 .FDA ....|G-4 ...7 ....|--- .... ....
....|..|--- .... ....|--- .... ....|--- .... ....
..14|..|D-2 .ADF ....|G-4 ...F ....|--- .... ....
....|..|--- .... ....|--- .... ....|--- .... ....
....|..|G-2 .FDA ....|A#4 ...A ....|--- .... ....
....|..|--- .... ....|--- .... ....|--- .... ....
..19|..|A#2 .CDF ....|D-5 ...F ....|--- .... ....
....|..|--- .... ....|--- .... ....|--- .... ....
....|..|D-2 .FDA ....|G-4 ...A ....|--- .... ....
....|..|--- .... ....|--- .... ....|--- .... ....
..14|..|D-2 .ADF ....|G-4 ...F ....|--- .... ....
....|..|--- .... ....|--- .... ....|--- .... ....
....|..|A#2 .FDA ....|A#4 .... ....|--- .... ....
....|..|--- .... ....|--- .... ....|--- .... ....
...F|..|G-2 .ADF ....|G-4 ...7 ....|--- .... ....
....|..|--- .... ....|--- .... ....|--- .... ....
....|..|D-2 .FDA ....|G-4 ...F ....|--- .... ....
....|..|--- .... ....|--- .... ....|--- .... ....
..14|..|D-2 .ADF ....|D-5 ...7 ....|--- .... ....
....|..|--- .... ....|--- .... ....|--- .... ....
....|..|G-2 .FDA ....|F-4 ...F ....|--- .... ....
....|..|--- .... ....|--- .... ....|--- .... ....
..22|..|F-1 .ADF ....|G-4 ...7 ....|--- .... ....
....|..|--- .... ....|--- .... ....|--- .... ....
....|..|D-2 .FDA ....|A#4 .... ....|--- .... ....
....|..|--- .... ....|--- .... ....|--- .... ....
..16|..|C-2 .ADF ....|G-4 ...F ....|--- .... ....
....|..|--- .... ....|--- .... ....|--- .... ....
....|..|F-1 .FDA ....|G-4 ...7 ....|--- .... ....
....|..|--- .... ....|--- .... ....|--- .... ....
..11|..|F-2 .ADF ....|A#4 ...F ....|--- .... ....
....|..|--- .... ....|--- .... ....|--- .... ....
....|..|C-2 .FDA ....|F-4 ...7 ....|--- .... ....
....|..|--- .... ....|--- .... ....|--- .... ....
..16|..|C-2 .ADF ....|G-4 ...F ....|--- .... ....
....|..|--- .... ....|--- .... ....|--- .... ....
....|..|F-2 .FDA ....|A#4 ...A ....|--- .... ....
....|..|--- .... ....|--- .... ....|--- .... ....
..1B|..|A-2 .CDF ....|D-5 ...F ....|--- .... ....
....|..|--- .... ....|--- .... ....|--- .... ....
....|..|C-2 .FDA ....|G-4 ...A ....|--- .... ....
....|..|--- .... ....|--- .... ....|--- .... ....
..16|..|C-2 .ADF ....|A#4 ...7 ....|--- .... ....
....|..|--- .... ....|--- .... ....|--- .... ....
....|..|A-2 .FDA ....|A#4 ...F ....|--- .... ....
....|..|--- .... ....|--- .... ....|--- .... ....
..11|..|F-2 .ADF ....|G-4 ...7 ....|--- .... ....
....|..|--- .... ....|--- .... ....|--- .... ....
....|..|C-2 .FDA ....|--- .... ....|--- .... ....
....|..|--- .... ....|--- .... ....|--- .... ....
..16|..|C-2 .ADF ....|D-5 .... ....|--- .... ....
....|..|--- .... ....|--- .... ....|--- .... ....
....|..|F-2 .FDA ....|G-3 ...F ....|--- .... ....
....|..|--- .... ....|--- .... ....|--- .... ....

[Pattern31]
..24|..|E-1 2ADF ....|A#3 6FFF ....|--- .... ....
....|..|--- .... ....|--- .... ....|--- .... ....
....|..|C-2 .FDA ....|A#4 ...7 ....|--- .... ....
....|..|--- .... ....|--- .... ....|--- .... ....
..16|..|C-2 .ADF ....|A#3 ...F ....|--- .... ....
....|..|--- .... ....|--- .... ....|--- .... ....
....|..|E-1 .FDA ....|A#3 ...A ....|--- .... ....
....|..|--- .... ....|--- .... ....|--- .... ....
..12|..|E-2 .ADF ....|A#3 ...F ....|--- .... ....
....|..|--- .... ....|--- .... ....|--- .... ....
....|..|C-2 .FDA ....|G-3 ...7 ....|--- .... ....
....|..|--- .... ....|--- .... ....|--- .... ....
..16|..|C-2 .ADF ....|G-3 ...F ....|--- .... ....
....|..|--- .... ....|--- .... ....|--- .... ....
....|..|E-2 .FDA ....|A#3 ...A ....|--- .... ....
....|..|--- .... ....|--- .... ....|--- .... ....
...F|..|G-2 .ADF ....|D-4 ...F ....|--- .... ....
....|..|--- .... ....|--- .... ....|--- .... ....
....|..|C-2 .FDA ....|C-4 .... ....|--- .... ....
....|..|--- .... ....|--- .... ....|--- .... ....
..16|..|C-2 .ADF ....|A#3 ...7 ....|--- .... ....
....|..|--- .... ....|--- .... ....|--- .... ....
....|..|G-2 .FDA ....|A#3 ...F ....|--- .... ....
....|..|--- .... ....|--- .... ....|--- .... ....
..12|..|E-2 .ADF ....|G-3 ...7 ....|--- .... ....
....|..|--- .... ....|--- .... ....|--- .... ....
....|..|C-2 .FDA ....|R-- .... ....|--- .... ....
....|..|--- .... ....|--- .... ....|--- .... ....
..16|..|C-2 .ADF ....|D-4 .... ....|--- .... ....
....|..|--- .... ....|--- .... ....|--- .... ....
....|..|E-2 .FDA ....|G-3 ...F ....|--- .... ....
....|..|--- .... ....|--- .... ....|--- .... ....
..26|..|D#1 .ADF ....|A#3 .... ....|--- .... ....
....|..|--- .... ....|--- .... ....|--- .... ....
....|..|C-2 .FDA ....|A#3 ...7 ....|--- .... ....
....|..|--- .... ....|--- .... ....|--- .... ....
..19|..|A#1 .ADF ....|G-3 ...F ....|--- .... ....
....|..|--- .... ....|--- .... ....|--- .... ....
....|..|D#1 .FDA ....|A#3 ...A ....|--- .... ....
....|..|--- .... ....|--- .... ....|--- .... ....
..13|..|D#2 .ADF ....|D-4 ...F ....|--- .... ....
....|..|--- .... ....|--- .... ....|--- .... ....
....|..|A#1 .FDA ....|G-3 ...7 ....|--- .... ....
....|..|--- .... ....|--- .... ....|--- .... ....
..19|..|A#1 .ADF ....|C-4 ...F ....|--- .... ....
....|..|--- .... ....|--- .... ....|--- .... ....
....|..|D#2 .FDA ....|D-4 ...A ....|--- .... ....
....|..|--- .... ....|--- .... ....|--- .... ....
..28|..|D-1 .ADF ....|A#4 ...F ....|--- .... ....
....|..|--- .... ....|--- .... ....|--- .... ....
....|..|A#1 .FDA ....|D-5 .... ....|--- .... ....
....|..|--- .... ....|--- .... ....|--- .... ....
..1B|..|A-1 .ADF ....|D-4 ...7 ....|--- .... ....
....|..|--- .... ....|--- .... ....|--- .... ....
....|..|D-1 .FDA ....|C-5 ...F ....|--- .... ....
....|..|--- .... ....|--- .... ....|--- .... ....
..14|..|D-2 .ADF ....|C-4 ...7 ....|--- .... ....
....|..|--- .... ....|--- .... ....|--- .... ....
....|..|A-1 .FDA ....|A#4 ...F ....|--- .... ....
....|..|--- .... ....|--- .... ....|--- .... ....
..1B|..|A-1 .ADF ....|G-4 .... ....|--- .... ....
....|..|--- .... ....|--- .... ....|--- .... ....
....|..|D-2 .FDA ....|D-5 ...7 ....|--- .... ....
....|..|--- .... ....|--- .... ....|--- .... ....

[Pattern32]
..1E|..|G-1 2ADF ....|G-4 6FFF ....|--- .... ....
....|..|--- .... ....|--- .... ....|--- .... ....
....|..|A-1 .FDA ....|C-5 ...7 ....|--- .... ....
....|..|--- .... ....|--- .... ....|--- .... ....
..14|..|D-2 .ADF ....|F-4 ...F ....|--- .... ....
....|..|--- .... ....|--- .... ....|--- .... ....
....|..|G-1 .FDA ....|A#4 ...7 ....|--- .... ....
....|..|--- .... ....|--- .... ....|--- .... ....
...F|..|G-2 .ADF ....|G-4 ...F ....|--- .... ....
....|..|--- .... ....|--- .... ....|--- .... ....
....|..|D-2 .FDA ....|F-4 ...A ....|--- .... ....
....|..|--- .... ....|--- .... ....|--- .... ....
..14|..|D-2 .ADF ....|D-4 ...F ....|--- .... ....
....|..|--- .... ....|--- .... ....|--- .... ....
....|..|G-2 .FDA ....|G-4 ...A ....|--- .... ....
....|..|--- .... ....|--- .... ....|--- .... ....
..19|..|A#2 .CDF ....|F-4 ...F ....|--- .... ....
....|..|--- .... ....|--- .... ....|--- .... ....
....|..|D-2 .FDA ....|G-4 .... ....|--- .... ....
....|..|--- .... ....|--- .... ....|--- .... ....
..14|..|D-2 .ADF ....|G-4 ...7 ....|--- .... ....
....|..|--- .... ....|--- .... ....|--- .... ....
....|..|A#2 .FDA ....|G-4 ...F ....|--- .... ....
....|..|--- .... ....|--- .... ....|--- .... ....
...F|..|G-2 .ADF ....|D-4 ...7 ....|--- .... ....
....|..|--- .... ....|--- .... ....|--- .... ....
....|..|D-2 .FDA ....|D-5 ...F ....|--- .... ....
....|..|--- .... ....|--- .... ....|--- .... ....
..14|..|D-2 .ADF ....|F-4 ...7 ....|--- .... ....
....|..|--- .... ....|--- .... ....|--- .... ....
....|..|G-2 .FDA ....|C-5 ...F ....|--- .... ....
....|..|--- .... ....|--- .... ....|--- .... ....
..22|..|F-1 .ADF ....|D-5 ...A ....|--- .... ....
....|..|--- .... ....|--- .... ....|--- .... ....
....|..|D-2 .FDA ....|G-4 ...7 ....|--- .... ....
....|..|--- .... ....|--- .... ....|--- .... ....
..16|..|C-2 .ADF ....|G-4 ...F ....|--- .... ....
....|..|--- .... ....|--- .... ....|--- .... ....
....|..|F-1 .FDA ....|D-5 ...7 ....|--- .... ....
....|..|--- .... ....|--- .... ....|--- .... ....
..11|..|F-2 .ADF ....|G-4 ...F ....|--- .... ....
....|..|--- .... ....|--- .... ....|--- .... ....
....|..|C-2 .FDA ....|C-5 ...7 ....|--- .... ....
....|..|--- .... ....|--- .... ....|--- .... ....
..16|..|C-2 .ADF ....|F-4 ...F ....|--- .... ....
....|..|--- .... ....|--- .... ....|--- .... ....
....|..|F-2 .FDA ....|G-4 ...A ....|--- .... ....
....|..|--- .... ....|--- .... ....|--- .... ....
..1B|..|A-2 .CDF ....|G-4 ...F ....|--- .... ....
....|..|--- .... ....|--- .... ....|--- .... ....
....|..|C-2 .FDA ....|F-4 .... ....|--- .... ....
....|..|--- .... ....|--- .... ....|--- .... ....
..16|..|C-2 .ADF ....|G-4 ...7 ....|--- .... ....
....|..|--- .... ....|--- .... ....|--- .... ....
....|..|A-2 .FDA ....|G-4 ...F ....|--- .... ....
....|..|--- .... ....|--- .... ....|--- .... ....
..11|..|F-2 .ADF ....|F-4 ...7 ....|--- .... ....
....|..|--- .... ....|--- .... ....|--- .... ....
....|..|C-2 .FDA ....|C-5 ...F ....|--- .... ....
....|..|--- .... ....|--- .... ....|--- .... ....
..16|..|C-2 .ADF ....|G-4 ...7 ....|--- .... ....
....|..|--- .... ....|A#4 ...F ....|--- .... ....
....|..|F-2 .FDA ....|F-4 ...7 ....|--- .... ....
....|..|--- .... ....|--- .... ....|--- .... ....

[Pattern33]
..24|..|E-1 2ADF ....|C-5 6FFA ....|--- .... ....
....|..|--- .... ....|--- .... ....|--- .... ....
....|..|C-2 .FDA ....|G-4 ...7 ....|--- .... ....
....|..|--- .... ....|A#4 ...A ....|--- .... ....
..16|..|C-2 .ADF ....|F-4 ...F ....|--- .... ....
....|..|--- .... ....|--- .... ....|--- .... ....
....|..|E-1 .FDA ....|C-5 ...7 ....|--- .... ....
....|..|--- .... ....|--- .... ....|--- .... ....
..12|..|E-2 .ADF ....|G-4 ...F ....|--- .... ....
....|..|--- .... ....|A#4 ...7 ....|--- .... ....
....|..|C-2 .FDA ....|F-4 ...A ....|--- .... ....
....|..|--- .... ....|--- .... ....|--- .... ....
..16|..|C-2 .ADF ....|D-4 ...F ....|--- .... ....
....|..|--- .... ....|--- .... ....|--- .... ....
....|..|E-2 .FDA ....|G-4 ...A ....|--- .... ....
....|..|--- .... ....|R-- .... ....|--- .... ....
...F|..|G-2 .ADF ....|F-4 ...F ....|--- .... ....
....|..|--- .... ....|--- .... ....|--- .... ....
....|..|C-2 .FDA ....|G-4 .... ....|--- .... ....
....|..|--- .... ....|--- .... ....|--- .... ....
..16|..|C-2 .ADF ....|G-4 ...7 ....|--- .... ....
....|..|--- .... ....|R-- .... ....|--- .... ....
....|..|G-2 .FDA ....|G-4 ...F ....|--- .... ....
....|..|--- .... ....|--- .... ....|--- .... ....
..12|..|E-2 .ADF ....|D-4 ...7 ....|--- .... ....
....|..|--- .... ....|--- .... ....|--- .... ....
....|..|C-2 .FDA ....|R-- .... ....|--- .... ....
....|..|--- .... ....|R-- .... ....|--- .... ....
..16|..|C-2 .ADF ....|F-4 .... ....|--- .... ....
....|..|--- .... ....|--- .... ....|--- .... ....
....|..|E-2 .FDA ....|G-4 .... ....|--- .... ....
....|..|--- .... ....|--- .... ....|--- .... ....
..13|..|D#2 .ADF ....|G-5 ...F ....|--- .... ....
....|..|--- .... ....|--- .... ....|--- .... ....
....|..|C-2 .FDA ....|G-4 ...7 ....|--- .... ....
....|..|--- .... ....|--- .... ....|--- .... ....
....|..|E-2 ...7 ....|G-5 ...F ....|--- .... ....
....|..|--- .... ....|--- .... ....|--- .... ....
....|..|D#2 ...A ....|G-5 ...A ....|--- .... ....
....|..|--- .... ....|--- .... ....|--- .... ....
....|..|C-2 ...7 ....|G-4 ...F ....|--- .... ....
....|..|--- .... ....|--- .... ....|--- .... ....
....|..|R-- .... ....|G-5 ...A ....|--- .... ....
....|..|--- .... ....|--- .... ....|--- .... ....
....|..|D#2 .... ....|G-4 ...F ....|--- .... ....
....|..|--- .... ....|--- .... ....|--- .... ....
....|..|--- .... ....|G-4 ...A ....|--- .... ....
....|..|--- .... ....|--- .... ....|--- .... ....
..14|..|D-2 .ADF ....|G-3 ...F ....|--- .... ....
....|..|--- .... ....|--- .... ....|--- .... ....
....|..|--- .... ....|G-3 .... ....|--- .... ....
....|..|--- .... ....|--- .... ....|--- .... ....
....|..|R-- .... ....|G-4 ...7 ....|--- .... ....
....|..|--- .... ....|--- .... ....|--- .... ....
....|..|D-2 .FDA ....|G-3 ...F ....|--- .... ....
....|..|--- .... ....|--- .... ....|--- .... ....
...F|..|G-2 .ADF ....|G-4 ...7 ....|--- .... ....
....|..|--- .... ....|--- .... ....|--- .... ....
....|..|R-- .... ....|--- .... ....|--- .... ....
....|..|--- .... ....|--- .... ....|--- .... ....
...F|..|G-2 .AD. ....|G-3 .... ....|--- .... ....
....|..|--- .... ....|--- .... ....|--- .... ....
....|..|G-2 .FDA ....|G-3 .... ....|--- .... ....
....|..|--- .... ....|--- .... ....|--- .... ....

[Pattern34]
..1E|..|G-1 2ADF ....|C-5 6FFF ....|--- .... ....
....|..|--- .... ....|D-5 .... ....|--- .... ....
....|..|G-2 .FDA ....|G-3 ...7 ....|--- .... ....
....|..|--- .... ....|--- .... ....|--- .... ....
..14|..|D-2 .ADF ....|C-5 ...F ....|--- .... ....
....|..|--- .... ....|--- .... ....|--- .... ....
....|..|G-1 .FDA ....|C-5 ...A ....|--- .... ....
....|..|--- .... ....|D-5 .... ....|--- .... ....
...F|..|G-2 .ADF ....|G-3 ...F ....|--- .... ....
....|..|--- .... ....|--- .... ....|--- .... ....
....|..|D-2 .FDA ....|C-5 ...A ....|--- .... ....
....|..|--- .... ....|--- .... ....|--- .... ....
..14|..|D-2 .ADF ....|G-3 ...F ....|--- .... ....
....|..|--- .... ....|D-5 ...7 ....|--- .... ....
....|..|G-2 .FDA ....|G-3 ...A ....|--- .... ....
....|..|--- .... ....|--- .... ....|--- .... ....
..19|..|A#2 .CDF ....|F-4 ...F ....|--- .... ....
....|..|--- .... ....|--- .... ....|--- .... ....
....|..|D-2 .FDA ....|G-3 ...A ....|--- .... ....
....|..|--- .... ....|--- .... ....|--- .... ....
..14|..|D-2 .ADF ....|G-4 ...F ....|--- .... ....
....|..|--- .... ....|--- .... ....|--- .... ....
....|..|A#2 .FDA ....|F-4 ...A ....|--- .... ....
....|..|--- .... ....|--- .... ....|--- .... ....
...F|..|G-2 .ADF ....|F-4 ...F ....|--- .... ....
....|..|--- .... ....|--- .... ....|--- .... ....
....|..|D-2 .FDA ....|G-4 ...A ....|--- .... ....
....|..|--- .... ....|--- .... ....|--- .... ....
..14|..|D-2 .ADF ....|G-4 ...F ....|--- .... ....
....|..|--- .... ....|--- .... ....|--- .... ....
....|..|G-2 .FDA ....|F-4 ...A ....|--- .... ....
....|..|--- .... ....|--- .... ....|--- .... ....
..22|..|F-1 .ADF ....|C-5 ...F ....|--- .... ....
....|..|--- .... ....|--- .... ....|--- .... ....
....|..|D-2 .FDA ....|G-4 ...A ....|--- .... ....
....|..|--- .... ....|--- .... ....|--- .... ....
..16|..|C-2 .ADF ....|A#4 ...F ....|--- .... ....
....|..|--- .... ....|--- .... ....|--- .... ....
....|..|F-1 .FDA ....|C-5 ...A ....|--- .... ....
....|..|--- .... ....|--- .... ....|--- .... ....
..11|..|F-2 .ADF ....|D-4 ...F ....|--- .... ....
....|..|--- .... ....|--- .... ....|--- .... ....
....|..|C-2 .FDA ....|A#4 ...A ....|--- .... ....
....|..|--- .... ....|--- .... ....|--- .... ....
..16|..|C-2 .ADF ....|C-4 ...F ....|--- .... ....
....|..|--- .... ....|--- .... ....|--- .... ....
....|..|F-2 .FDA ....|D-4 ...A ....|--- .... ....
....|..|--- .... ....|--- .... ....|--- .... ....
..1B|..|A-2 .CDF ....|A#3 ...F ....|--- .... ....
....|..|--- .... ....|--- .... ....|--- .... ....
....|..|C-2 .FDA ....|C-4 ...A ....|--- .... ....
....|..|--- .... ....|--- .... ....|--- .... ....
..16|..|C-2 .ADF ....|G-3 ...F ....|--- .... ....
....|..|--- .... ....|--- .... ....|--- .... ....
....|..|A-2 .FDA ....|A#3 ...A ....|--- .... ....
....|..|--- .... ....|--- .... ....|--- .... ....
..11|..|F-2 .ADF ....|G-3 ...F ....|--- .... ....
....|..|--- .... ....|--- .... ....|--- .... ....
....|..|C-2 .FDA ....|G-3 ...A ....|--- .... ....
....|..|--- .... ....|--- .... ....|--- .... ....
..16|..|C-2 .ADF ....|G-3 ...F ....|--- .... ....
....|..|--- .... ....|--- .... ....|--- .... ....
....|..|F-2 .FDA ....|G-3 ...A ....|--- .... ....
....|..|--- .... ....|--- .... ....|--- .... ....

[Pattern35]
..24|..|E-1 2ADF ....|G-3 6FFF ....|--- .... ....
....|..|--- .... ....|--- .... ....|--- .... ....
....|..|C-2 .FDA ....|G-3 ...A ....|--- .... ....
....|..|--- .... ....|--- .... ....|--- .... ....
..16|..|C-2 .ADF ....|D-3 ...F ....|--- .... ....
....|..|--- .... ....|--- .... ....|--- .... ....
....|..|E-1 .FDA ....|G-3 ...A ....|--- .... ....
....|..|--- .... ....|--- .... ....|--- .... ....
..12|..|E-2 .ADF ....|F-3 ...F ....|--- .... ....
....|..|--- .... ....|--- .... ....|--- .... ....
....|..|C-2 .FDA ....|D-3 ...A ....|--- .... ....
....|..|--- .... ....|--- .... ....|--- .... ....
..16|..|C-2 .ADF ....|D-3 ...F ....|--- .... ....
....|..|--- .... ....|--- .... ....|--- .... ....
....|..|E-2 .FDA ....|F-3 ...A ....|--- .... ....
....|..|--- .... ....|--- .... ....|--- .... ....
...F|..|G-2 .ADF ....|F-3 ...F ....|--- .... ....
....|..|--- .... ....|--- .... ....|--- .... ....
....|..|C-2 .FDA ....|G-3 .... ....|--- .... ....
....|..|--- .... ....|--- .... ....|--- .... ....
..16|..|C-2 .ADF ....|F-3 ...7 ....|--- .... ....
....|..|--- .... ....|--- .... ....|--- .... ....
....|..|G-2 .FDA ....|G-3 ...F ....|--- .... ....
....|..|--- .... ....|--- .... ....|--- .... ....
..12|..|E-2 .ADF ....|D-3 ...7 ....|--- .... ....
....|..|--- .... ....|--- .... ....|--- .... ....
....|..|C-2 .FDA ....|R-- .... ....|--- .... ....
....|..|--- .... ....|--- .... ....|--- .... ....
..16|..|C-2 .ADF ....|F-3 .... ....|--- .... ....
....|..|--- .... ....|--- .... ....|--- .... ....
....|..|E-2 .FDA ....|G-3 .... ....|--- .... ....
....|..|--- .... ....|--- .... ....|--- .... ....
..26|..|D#1 .ADF ....|D-5 ...F ....|--- .... ....
....|..|--- .... ....|--- .... ....|--- .... ....
....|..|C-2 .FDA ....|G-3 ...7 ....|--- .... ....
....|..|--- .... ....|--- .... ....|--- .... ....
..19|..|A#1 .ADF ....|--- .... ....|--- .... ....
....|..|--- .... ....|--- .... ....|--- .... ....
....|..|D#1 .FDA ....|C-5 ...F ....|--- .... ....
....|..|--- .... ....|--- .... ....|--- .... ....
..13|..|D#2 .ADF ....|--- .... ....|--- .... ....
....|..|--- .... ....|--- .... ....|--- .... ....
....|..|A#1 .FDA ....|--- .... ....|--- .... ....
....|..|--- .... ....|--- .... ....|--- .... ....
..19|..|A#1 .ADF ....|A#4 .... ....|--- .... ....
....|..|--- .... ....|--- .... ....|--- .... ....
....|..|D#2 .FDA ....|--- .... ....|--- .... ....
....|..|--- .... ....|--- .... ....|--- .... ....
..28|..|D-1 .ADF ....|A#4 .... ....|--- .... ....
....|..|--- .... ....|--- .... ....|--- .... ....
....|..|A#1 .FDA ....|D-5 .... ....|--- .... ....
....|..|--- .... ....|--- .... ....|--- .... ....
..1B|..|A-1 .ADF ....|--- .... ....|--- .... ....
....|..|--- .... ....|--- .... ....|--- .... ....
....|..|D-1 .FDA ....|C-5 .... ....|--- .... ....
....|..|--- .... ....|--- .... ....|--- .... ....
..14|..|D-2 .ADF ....|A#4 ...7 ....|--- .... ....
....|..|--- .... ....|--- .... ....|--- .... ....
....|..|A-1 .FDA ....|A#4 ...F ....|--- .... ....
....|..|--- .... ....|--- .... ....|--- .... ....
..1B|..|A-1 .ADF ....|G-4 .... ....|--- .... ....
....|..|--- .... ....|--- .... ....|--- .... ....
....|..|D-2 .FDA ....|D-5 ...7 ....|--- .... ....
....|..|--- .... ....|--- .... ....|--- .... ....

[Pattern36]
..1E|..|G-1 2ADF ....|D-5 6FFF ....|--- .... ....
....|..|--- .... ....|--- .... ....|--- .... ....
....|..|G-2 .FDA ....|G-3 ...7 ....|--- .... ....
....|..|--- .... ....|--- .... ....|--- .... ....
..14|..|D-2 .ADF ....|C-5 ...F ....|--- .... ....
....|..|--- .... ....|--- .... ....|--- .... ....
....|..|G-1 .FDA ....|D-5 ...A ....|--- .... ....
....|..|--- .... ....|--- .... ....|--- .... ....
...F|..|G-2 .ADF ....|A#4 ...F ....|--- .... ....
....|..|--- .... ....|--- .... ....|--- .... ....
....|..|D-2 .FDA ....|C-5 ...A ....|--- .... ....
....|..|--- .... ....|--- .... ....|--- .... ....
..14|..|D-2 .ADF ....|G-4 ...F ....|--- .... ....
....|..|--- .... ....|--- .... ....|--- .... ....
....|..|G-2 .FDA ....|A#4 ...A ....|--- .... ....
....|..|--- .... ....|--- .... ....|--- .... ....
..19|..|A#2 .CDF ....|C-5 ...7 ....|--- .... ....
....|..|--- .... ....|--- .... ....|--- .... ....
....|..|D-2 .FDA ....|G-4 ...A ....|--- .... ....
....|..|--- .... ....|--- .... ....|--- .... ....
..14|..|D-2 .ADF ....|A#4 ...7 ....|--- .... ....
....|..|--- .... ....|--- .... ....|--- .... ....
....|..|A#2 .FDA ....|R-- .... ....|--- .... ....
....|..|--- .... ....|--- .... ....|--- .... ....
...F|..|G-2 .ADF ....|G-4 .... ....|--- .... ....
....|..|--- .... ....|--- .... ....|--- .... ....
....|..|D-2 .FDA ....|--- .... ....|--- .... ....
....|..|--- .... ....|--- .... ....|--- .... ....
..14|..|D-2 .ADF ....|R-- .... ....|--- .... ....
....|..|--- .... ....|--- .... ....|--- .... ....
....|..|G-2 .FDA ....|--- .... ....|--- .... ....
....|..|--- .... ....|--- .... ....|--- .... ....
..22|..|F-1 .ADF ....|F-4 ...F ....|--- .... ....
....|..|--- .... ....|--- .... ....|--- .... ....
....|..|D-2 .FDA ....|--- .... ....|--- .... ....
....|..|--- .... ....|--- .... ....|--- .... ....
..16|..|C-2 .ADF ....|G-4 .... ....|--- .... ....
....|..|--- .... ....|--- .... ....|--- .... ....
....|..|F-1 .FDA ....|F-4 ...A ....|--- .... ....
....|..|--- .... ....|--- .... ....|--- .... ....
..11|..|F-2 .ADF ....|A#4 ...F ....|--- .... ....
....|..|--- .... ....|--- .... ....|--- .... ....
....|..|C-2 .FDA ....|G-4 ...A ....|--- .... ....
....|..|--- .... ....|--- .... ....|--- .... ....
..16|..|C-2 .ADF ....|G-4 ...F ....|--- .... ....
....|..|--- .... ....|--- .... ....|--- .... ....
....|..|F-2 .FDA ....|A#4 ...A ....|--- .... ....
....|..|--- .... ....|--- .... ....|--- .... ....
..1B|..|A-2 .CDF ....|G-4 ...7 ....|--- .... ....
....|..|--- .... ....|--- .... ....|--- .... ....
....|..|C-2 .FDA ....|G-4 ...A ....|--- .... ....
....|..|--- .... ....|--- .... ....|--- .... ....
..16|..|C-2 .ADF ....|A#4 ...7 ....|--- .... ....
....|..|--- .... ....|--- .... ....|--- .... ....
....|..|A-2 .FDA ....|R-- .... ....|--- .... ....
....|..|--- .... ....|--- .... ....|--- .... ....
..11|..|F-2 .ADF ....|G-4 .... ....|--- .... ....
....|..|--- .... ....|--- .... ....|--- .... ....
....|..|C-2 .FDA ....|--- .... ....|--- .... ....
....|..|--- .... ....|--- .... ....|--- .... ....
..16|..|C-2 .ADF ....|R-- .... ....|--- .... ....
....|..|--- .... ....|--- .... ....|--- .... ....
....|..|F-2 .FDA ....|--- .... ....|--- .... ....
....|..|--- .... ....|--- .... ....|--- .... ....

[Pattern37]
..24|..|E-1 2ADF ....|D-4 6FFF ....|--- .... ....
....|..|--- .... ....|--- .... ....|--- .... ....
....|..|C-2 .FDA ....|--- .... ....|--- .... ....
....|..|--- .... ....|--- .... ....|--- .... ....
..16|..|C-2 .ADF ....|C-4 .... ....|--- .... ....
....|..|--- .... ....|--- .... ....|--- .... ....
....|..|E-1 .FDA ....|D-4 ...A ....|--- .... ....
....|..|--- .... ....|--- .... ....|--- .... ....
..12|..|E-2 .ADF ....|A#3 ...F ....|--- .... ....
....|..|--- .... ....|--- .... ....|--- .... ....
....|..|C-2 .FDA ....|C-4 ...A ....|--- .... ....
....|..|--- .... ....|--- .... ....|--- .... ....
..16|..|C-2 .ADF ....|G-3 ...F ....|--- .... ....
....|..|--- .... ....|--- .... ....|--- .... ....
....|..|E-2 .FDA ....|A#3 ...A ....|--- .... ....
....|..|--- .... ....|--- .... ....|--- .... ....
...F|..|G-2 .ADF ....|C-4 ...7 ....|--- .... ....
....|..|--- .... ....|--- .... ....|--- .... ....
....|..|C-2 .FDA ....|G-3 ...A ....|--- .... ....
....|..|--- .... ....|--- .... ....|--- .... ....
..16|..|C-2 .ADF ....|A#3 ...7 ....|--- .... ....
....|..|--- .... ....|--- .... ....|--- .... ....
....|..|G-2 .FDA ....|R-- .... ....|--- .... ....
....|..|--- .... ....|--- .... ....|--- .... ....
..12|..|E-2 .ADF ....|G-3 .... ....|--- .... ....
....|..|--- .... ....|--- .... ....|--- .... ....
....|..|C-2 .FDA ....|--- .... ....|--- .... ....
....|..|--- .... ....|--- .... ....|--- .... ....
..16|..|C-2 .ADF ....|R-- .... ....|--- .... ....
....|..|--- .... ....|--- .... ....|--- .... ....
....|..|E-2 .FDA ....|--- .... ....|--- .... ....
....|..|--- .... ....|--- .... ....|--- .... ....
..19|..|A#2 .CDF ....|A#3 ...F ....|--- .... ....
....|..|--- .... ....|--- .... ....|--- .... ....
....|..|C-2 .FDA ....|--- .... ....|--- .... ....
....|..|--- .... ....|--- .... ....|--- .... ....
..19|..|A#2 .CDF ....|A#3 .... ....|--- .... ....
....|..|--- .... ....|--- .... ....|--- .... ....
....|..|A#2 .FDA ....|A#3 ...A ....|--- .... ....
....|..|--- .... ....|--- .... ....|--- .... ....
..2D|..|C-3 .CDF ....|C-4 ...F ....|--- .... ....
....|..|--- .... ....|--- .... ....|--- .... ....
....|..|A#2 .FDA ....|A#3 ...A ....|--- .... ....
....|..|--- .... ....|--- .... ....|--- .... ....
..2D|..|C-3 .CDF ....|C-4 ...F ....|--- .... ....
....|..|--- .... ....|--- .... ....|--- .... ....
....|..|C-3 .FDA ....|C-4 ...A ....|--- .... ....
....|..|--- .... ....|--- .... ....|--- .... ....
...F|..|G-2 .ADF ....|G-3 ...F ....|--- .... ....
....|..|--- .... ....|--- .... ....|--- .... ....
....|..|C-3 .FDA ....|C-4 ...A ....|--- .... ....
....|..|--- .... ....|--- .... ....|--- .... ....
...F|..|G-2 .ADF ....|G-3 ...F ....|--- .... ....
....|..|--- .... ....|--- .... ....|--- .... ....
....|..|G-2 .FDA ....|G-3 ...A ....|--- .... ....
....|..|--- .... ....|--- .... ....|--- .... ....
...F|..|G-2 .ADF ....|G-3 ...F ....|--- .... ....
....|..|--- .... ....|--- .... ....|--- .... ....
....|..|G-2 .FDA ....|G-3 ...A ....|--- .... ....
....|..|--- .... ....|--- .... ....|--- .... ....
...F|..|G-2 .ADF ....|G-3 ...F ....|--- .... ....
....|..|--- .... ....|--- .... ....|--- .... ....
....|..|G-2 .FDA ....|G-3 ...A ....|--- .... ....
....|..|--- .... ....|--- .... ....|--- .... ....

[Pattern38]
..1E|..|G-1 2ADF ....|D-5 6FFF ....|--- .... ....
....|..|--- .... ....|--- .... ....|--- .... ....
....|..|G-2 .FDA ....|G-3 ...A ....|--- .... ....
....|..|--- .... ....|--- .... ....|--- .... ....
..14|..|D-2 .ADF ....|C-5 ...F ....|--- .... ....
....|..|--- .... ....|--- .... ....|--- .... ....
....|..|G-1 .FDA ....|D-5 ...A ....|--- .... ....
....|..|--- .... ....|--- .... ....|--- .... ....
...F|..|G-2 .ADF ....|A#4 ...F ....|--- .... ....
....|..|--- .... ....|--- .... ....|--- .... ....
....|..|D-2 .FDA ....|C-5 ...A ....|--- .... ....
....|..|--- .... ....|--- .... ....|--- .... ....
..14|..|D-2 .ADF ....|G-4 ...F ....|--- .... ....
....|..|--- .... ....|--- .... ....|--- .... ....
....|..|G-2 .FDA ....|A#4 ...A ....|--- .... ....
....|..|--- .... ....|--- .... ....|--- .... ....
..19|..|A#2 .CDF ....|D-4 ...F ....|--- .... ....
....|..|--- .... ....|--- .... ....|--- .... ....
....|..|D-2 .FDA ....|G-4 ...A ....|--- .... ....
....|..|--- .... ....|--- .... ....|--- .... ....
..14|..|D-2 .ADF ....|C-4 ...F ....|--- .... ....
....|..|--- .... ....|--- .... ....|--- .... ....
....|..|A#2 .FDA ....|D-4 ...A ....|--- .... ....
....|..|--- .... ....|--- .... ....|--- .... ....
...F|..|G-2 .ADF ....|A#3 ...F ....|--- .... ....
....|..|--- .... ....|--- .... ....|--- .... ....
....|..|D-2 .FDA ....|C-4 ...A ....|--- .... ....
....|..|--- .... ....|--- .... ....|--- .... ....
..14|..|D-2 .ADF ....|G-3 ...F ....|--- .... ....
....|..|--- .... ....|--- .... ....|--- .... ....
....|..|G-2 .FDA ....|A#3 ...A ....|--- .... ....
....|..|--- .... ....|--- .... ....|--- .... ....
..22|..|F-1 .ADF ....|F-4 ...F ....|--- .... ....
....|..|--- .... ....|--- .... ....|--- .... ....
....|..|D-2 .FDA ....|G-3 ...A ....|--- .... ....
....|..|--- .... ....|--- .... ....|--- .... ....
..16|..|C-2 .ADF ....|G-4 ...F ....|--- .... ....
....|..|--- .... ....|--- .... ....|--- .... ....
....|..|F-1 .FDA ....|F-4 ...A ....|--- .... ....
....|..|--- .... ....|--- .... ....|--- .... ....
..11|..|F-2 .ADF ....|A#4 ...F ....|--- .... ....
....|..|--- .... ....|--- .... ....|--- .... ....
....|..|C-2 .FDA ....|G-4 ...A ....|--- .... ....
....|..|--- .... ....|--- .... ....|--- .... ....
..16|..|C-2 .ADF ....|G-4 ...F ....|--- .... ....
....|..|--- .... ....|--- .... ....|--- .... ....
....|..|F-2 .FDA ....|A#4 ...A ....|--- .... ....
....|..|--- .... ....|--- .... ....|--- .... ....
..1B|..|A-2 .CDF ....|F-3 ...F ....|--- .... ....
....|..|--- .... ....|--- .... ....|--- .... ....
....|..|C-2 .FDA ....|G-4 ...A ....|--- .... ....
....|..|--- .... ....|--- .... ....|--- .... ....
..16|..|C-2 .ADF ....|G-3 ...F ....|--- .... ....
....|..|--- .... ....|--- .... ....|--- .... ....
....|..|A-2 .FDA ....|F-3 ...A ....|--- .... ....
....|..|--- .... ....|--- .... ....|--- .... ....
..11|..|F-2 .ADF ....|A#3 ...F ....|--- .... ....
....|..|--- .... ....|--- .... ....|--- .... ....
....|..|C-2 .FDA ....|G-3 ...A ....|--- .... ....
....|..|--- .... ....|--- .... ....|--- .... ....
..16|..|C-2 .ADF ....|G-3 ...F ....|--- .... ....
....|..|--- .... ....|--- .... ....|--- .... ....
....|..|F-2 .FDA ....|A#3 ...A ....|--- .... ....
....|..|--- .... ....|--- .... ....|--- .... ....

[Pattern39]
..24|..|E-1 2ADF ....|D-4 6FFF ....|--- .... ....
....|..|--- .... ....|--- .... ....|--- .... ....
....|..|C-2 .FDA ....|G-3 ...A ....|--- .... ....
....|..|--- .... ....|--- .... ....|--- .... ....
..16|..|C-2 .ADF ....|C-4 ...F ....|--- .... ....
....|..|--- .... ....|--- .... ....|--- .... ....
....|..|E-1 .FDA ....|D-4 ...A ....|--- .... ....
....|..|--- .... ....|--- .... ....|--- .... ....
..12|..|E-2 .ADF ....|A#3 ...F ....|--- .... ....
....|..|--- .... ....|--- .... ....|--- .... ....
....|..|C-2 .FDA ....|C-4 ...A ....|--- .... ....
....|..|--- .... ....|--- .... ....|--- .... ....
..16|..|C-2 .ADF ....|G-3 ...F ....|--- .... ....
....|..|--- .... ....|--- .... ....|--- .... ....
....|..|E-2 .FDA ....|A#3 ...A ....|--- .... ....
....|..|--- .... ....|--- .... ....|--- .... ....
...F|..|G-2 .ADF ....|D-5 ...F ....|--- .... ....
....|..|--- .... ....|--- .... ....|--- .... ....
....|..|C-2 .FDA ....|G-3 ...A ....|--- .... ....
....|..|--- .... ....|--- .... ....|--- .... ....
..16|..|C-2 .ADF ....|C-5 ...F ....|--- .... ....
....|..|--- .... ....|--- .... ....|--- .... ....
....|..|G-2 .FDA ....|D-5 ...A ....|--- .... ....
....|..|--- .... ....|--- .... ....|--- .... ....
..12|..|E-2 .ADF ....|A#4 ...F ....|--- .... ....
....|..|--- .... ....|--- .... ....|--- .... ....
....|..|C-2 .FDA ....|C-5 ...A ....|--- .... ....
....|..|--- .... ....|--- .... ....|--- .... ....
..16|..|C-2 .ADF ....|G-4 ...F ....|--- .... ....
....|..|--- .... ....|--- .... ....|--- .... ....
....|..|E-2 .FDA ....|A#4 ...A ....|--- .... ....
....|..|--- .... ....|--- .... ....|--- .... ....
..26|..|D#1 .ADF ....|G-4 ...F ....|--- .... ....
....|..|--- .... ....|--- .... ....|--- .... ....
....|..|C-2 .FDA ....|G-4 ...A ....|--- .... ....
....|..|--- .... ....|--- .... ....|--- .... ....
..19|..|A#1 .ADF ....|G-4 ...F ....|--- .... ....
....|..|--- .... ....|--- .... ....|--- .... ....
....|..|D#1 .FDA ....|G-4 ...A ....|--- .... ....
....|..|--- .... ....|--- .... ....|--- .... ....
..13|..|D#2 .ADF ....|G-4 ...F ....|--- .... ....
....|..|--- .... ....|--- .... ....|--- .... ....
....|..|A#1 .FDA ....|G-4 ...A ....|--- .... ....
....|..|--- .... ....|--- .... ....|--- .... ....
..19|..|A#1 .ADF ....|G-4 ...F ....|--- .... ....
....|..|--- .... ....|--- .... ....|--- .... ....
....|..|D#2 .FDA ....|G-4 ...A ....|--- .... ....
....|..|--- .... ....|--- .... ....|--- .... ....
...F|..|G-2 .ADF ....|G-4 ...7 ....|--- .... ....
....|..|--- .... ....|--- .... ....|--- .... ....
....|..|A#1 .FDA ....|G-4 ...A ....|--- .... ....
....|..|--- .... ....|--- .... ....|--- .... ....
...F|..|G-2 .ADF ....|G-4 ...7 ....|--- .... ....
....|..|--- .... ....|--- .... ....|--- .... ....
....|..|G-2 .FDA ....|R-- .... ....|--- .... ....
....|..|--- .... ....|--- .... ....|--- .... ....
...F|..|G-2 .ADF ....|G-4 .... ....|--- .... ....
....|..|--- .... ....|--- .... ....|--- .... ....
....|..|G-2 .FDA ....|--- .... ....|--- .... ....
....|..|--- .... ....|--- .... ....|--- .... ....
...F|..|G-2 .ADF ....|R-- .... ....|--- .... ....
....|..|--- .... ....|--- .... ....|--- .... ....
....|..|G-2 .FDA ....|--- .... ....|--- .... ....
....|..|--- .... ....|--- .... ....|--- .... ....

[Pattern40]
....|..|G-2 2FD7 ....|--- .... ....|--- .... ....
....|..|--- .... ....|--- .... ....|--- .... ....
....|..|G-2 ...A ....|--- .... ....|--- .... ....
....|..|--- .... ....|--- .... ....|--- .... ....
....|..|G-2 ...7 ....|--- .... ....|--- .... ....
....|..|--- .... ....|--- .... ....|--- .... ....
....|..|R-- .... ....|--- .... ....|--- .... ....
....|..|--- .... ....|--- .... ....|--- .... ....
....|..|G-2 .... ....|--- .... ....|--- .... ....
....|..|--- .... ....|--- .... ....|--- .... ....
....|..|--- .... ....|--- .... ....|--- .... ....
....|..|--- .... ....|--- .... ....|--- .... ....
