[Module]
VortexTrackerII=0
Version=3.5
Title=3me[2d],2m[6f],1m[1e]
Author=oisee ^ 4d 29.05.2010
NoteTable=4
ChipFreq=1750000
Speed=4
PlayOrder=L0,1,2,3,4,1,6,7,4,1,2,11,12,3,14,7,16,17,18,19,20,21,22,23,24,25,26,27,28,29,30,31,32,33,34,35,36,37,38,39,36,37,42,43,44,45,46



[Sample1]
TnE +000_ +00_ F_
TnE +000_ +00_ F_
TnE +000_ +00_ F_
TnE +000_ +00_ D_
TnE +000_ +00_ B_
TnE +000_ +00_ B_ L

[Sample2]
TnE +000_ +00_ F_ L

[Sample3]
TnE +001_ +00_ F_
TnE +002_ +00_ F_
TnE +001_ +00_ E_
TnE +002_ +00_ E_
TnE +000_ +00_ E_ L
TnE -001_ +00_ E_
TnE -002_ +00_ E_
TnE -001_ +00_ E_
TnE +000_ +00_ E_
TnE +001_ +00_ E_
TnE +002_ +00_ E_
TnE +001_ +00_ E_

[Sample4]
TnE +002_ +00_ D_
TnE +002_ +00_ D_
TnE +002_ +00_ C_
TnE +002_ +00_ B_
TnE +002_ +00_ A_ L
TnE +002_ +00_ A_
TnE +002_ +00_ A_
TnE +002_ +00_ A_
TnE +002_ +00_ A_
TnE +002_ +00_ A_
TnE +002_ +00_ A_
TnE +002_ +00_ A_

[Sample5]
TnE +000_ +00_ F_
TnE +000_ +00_ F_
tne +000_ +00_ 0_ L

[Sample6]
TnE -001_ +00_ F_ L

[Sample7]
TnE +006_ +00_ F_ L

[Sample8]
tNe +000_ +00_ F_
tNe +000_ +00_ B_
tNe +000_ +00_ 7_
tNe +000_ +00_ 6- L

[Sample9]
TnE +080_ +00_ F_
TnE +100_ +00_ E_
TnE +180_ +00_ E_
TnE +200_ +00_ E_
TnE +240_ +00_ D_
TnE +280_ +00_ D_
TnE +2C0_ +00_ D_
TnE +300_ +00_ C_
TnE +300_ +00_ C_
TnE +340_ +00_ C_
TnE +340_ +00_ C_
TnE +380_ +00_ B_
TnE +380_ +00_ B_
TnE +400_ +00_ B_
TnE +400_ +00_ B_
TnE +480_ +00_ A_
TnE +500_ +00_ 9_
TnE +580_ +00_ 7_
TnE +600_ +00_ 4_
TnE +680_ +00_ 1_
TnE +000_ +00_ 0_ L

[Sample10]
Tne +1C0_ +00_ F_
Tne +280_ +00_ E_
Tne +380_ +00_ C_
Tne +440_ +00_ A_
Tne +480_ +00_ 8_
TnE +000_ +00_ 0_ L

[Sample11]
TNe +200_ -0A_ F_
tNe +000_ +0F_ A_
TNe +200_ -07_ E_
tNe +000_ +0E_ B- L

[Sample12]
TNE +0A0_ +05_ F_
TNE +140_ +02_ D_
TNE +140_ +02_ B_
TNE +100_ +00_ A_ L
TNE +140_ +00_ A_
TNE +200_ +00_ A-

[Sample13]
Tne +200_ +00_ F_
Tne +2C0_ +00_ F_
Tne +380_ +00_ E_
Tne +500_ +00_ C_
Tne +520_ +00_ 9_
tne +000_ +00_ 0_ L

[Sample14]
TNE -100_ +00_ F_
TNE -100_ +00_ D_
TNE -100_ +00_ A_
TNE -100_ +00_ 5_
tne +000_ +00_ 0_ L

[Sample15]
TNE -100_ +00_ 5_
TNE -100_ +00_ 8_
TNE -100_ +00_ B_
TNE -100_ +00_ F_
TNe -100_ +00_ 9- L

[Sample16]
TnE +000_ +00_ C_
TnE +000_ +00_ E_
TnE +000_ +00_ F_
TnE +000_ +00_ F_
TnE +000_ +00_ E_
TnE +000_ +00_ D_
TnE +000_ +00_ C_
TnE +000_ +00_ C_ L
TnE +001_ +00_ C_
TnE +002_ +00_ C_
TnE +003_ +00_ C_
TnE +001_ +00_ C_
TnE +000_ +00_ C_
TnE -001_ +00_ C_
TnE -002_ +00_ C_
TnE -003_ +00_ C_
TnE -001_ +00_ C_
TnE +000_ +00_ C_
TnE +000_ +00_ C_

[Sample17]
Tne +1C0_ +00_ F_
Tne +280_ +00_ D_
Tne +380_ +00_ 7_
TNE +000_ +00_ 0_ L

[Sample18]
TnE -00C_ +00_ 0_ L

[Sample19]
TNe +000_ +00_ F_
TNe +000_ +00_ C_
TNe +000_ +00_ 6_
TNe +000_ +01_ A- L

[Sample20]
TNE +140_ +00_ F_
tNE +000_ +00_ B- L

[Sample21]
tNE +000_ +00_ D_
tNE +000_ +00_ 8_
tNE +000_ +00_ 1_
TNE +000_ +00_ 0_ L

[Sample22]
TnE +000_ +00_ D_ L
TnE +000_ +00_ D_
tne +000_ +00_ 9_
tne +000_ +00_ 9_
TnE +000_ +00_ D_
TnE +000_ +00_ D_
tne +000_ +00_ 9_
tne +000_ +00_ 9_
TnE +000_ +00_ D_
TnE +000_ +00_ D_
TnE +000_ +00_ D_
TnE +000_ +00_ D_
TnE +000_ +00_ D_
TnE +000_ +00_ D_
tne +000_ +00_ 9_
tne +000_ +00_ 9_

[Sample23]
TnE +000_ +00_ F_ L
TnE +010_ +01_ F_
TnE +010_ +01_ F_
TnE +010_ +01_ F_
TnE +010_ +01_ F_
TnE +000_ +00_ F_
TnE +000_ +00_ F_
TnE -010_ -01_ F_
TnE -010_ -01_ F_
TnE -010_ -01_ F_
TnE -010_ -01_ F_
TnE +000_ +00_ F_

[Sample24]
TNe +000_ -01_ C_
TNe +000_ -01_ D_
TNe +000_ -01_ E_
TNe +000_ -01_ F_
TNe +000_ -01_ F_
TNe +000_ -01_ F_
TNe +000_ -01_ F_
TNe +000_ -01_ F_
TNe +000_ -01_ E_
TNe +000_ -01_ E_
TNe +000_ -01_ E_
TNe +000_ -01_ F_
TNe +000_ -01_ F_ L

[Sample25]
TNE +000_ +00_ F_
TNE +000_ +00_ F_ L
TNE +000_ +00_ F_
TNE +000_ +00_ F_
TNE +000_ +00_ F-

[Sample26]
tne +000_ +00_ 0_ L

[Sample27]
TnE +100_ +05_ F_
TnE +200_ +02_ A_
TnE +300_ +02_ 7_
TNE +400_ +00_ 3- L

[Sample28]
tne +000_ +00_ 0_ L

[Sample29]
tnE +000_ +00_ 0_ L

[Sample30]
TNE +000_ +00_ C+ L

[Sample31]
TNe +1C0_ +00_ F_
Tne +280_ +00_ E_
Tne +380_ +00_ C_
Tne +440_ +00_ A_
Tne +480_ +00_ 8_
TnE +000_ +00_ 0_ L

[Pattern0]
 G-3|..|G-1 2ADF ....|G-3 6FFF ....|--- .... ....
....|..|--- .... ....|--- .... ....|--- .... ....
....|..|--- .... ....|--- .... ....|--- .... ....
....|..|G-1 2FDA ....|G-3 6FFA ....|--- .... ....
 D-4|..|D-2 2ADF ....|G-3 6FFF ....|--- .... ....
....|..|--- .... ....|--- .... ....|--- .... ....
....|..|G-1 2FD7 ....|G-3 6FF7 ....|--- .... ....
....|..|D-2 2FDA ....|G-3 6FFA ....|--- .... ....
 G-4|..|G-2 2ADF ....|R-- .... ....|--- .... ....
....|..|--- .... ....|--- .... ....|--- .... ....
....|..|D-2 2FD7 ....|G-3 6FF7 ....|--- .... ....
....|..|G-2 2FDA ....|R-- .... ....|--- .... ....
....|..|R-- .... ....|--- .... ....|--- .... ....
....|..|--- .... ....|--- .... ....|--- .... ....
....|..|G-2 2FD7 ....|R-- .... ....|--- .... ....
....|..|R-- .... ....|--- .... ....|--- .... ....
....|..|--- .... ....|G-4 6FFF ....|--- .... ....
....|..|--- .... ....|--- .... ....|--- .... ....
....|..|R-- .... ....|--- .... ....|--- .... ....
....|..|--- .... ....|G-4 6FFA ....|--- .... ....
....|..|--- .... ....|G-4 6FFF ....|--- .... ....
....|..|--- .... ....|--- .... ....|--- .... ....
....|..|--- .... ....|G-4 6FF7 ....|--- .... ....
....|..|--- .... ....|G-4 6FFA ....|--- .... ....
....|..|--- .... ....|R-- .... ....|--- .... ....
....|..|--- .... ....|--- .... ....|--- .... ....
....|..|--- .... ....|G-4 6FF7 ....|--- .... ....
....|..|--- .... ....|R-- .... ....|--- .... ....
....|..|--- .... ....|--- .... ....|--- .... ....
....|..|--- .... ....|--- .... ....|--- .... ....
....|..|--- .... ....|R-- .... ....|--- .... ....
....|..|--- .... ....|--- .... ....|--- .... ....
 A#3|..|A#1 2ADF ....|A#3 6FFF ....|--- .... ....
....|..|--- .... ....|--- .... ....|--- .... ....
....|..|--- .... ....|--- .... ....|--- .... ....
....|..|A#1 2FDA ....|A#3 6FFA ....|--- .... ....
 F-4|..|F-2 2ADF ....|A#3 6FFF ....|--- .... ....
....|..|--- .... ....|--- .... ....|--- .... ....
....|..|A#1 2FD7 ....|A#3 6FF7 ....|--- .... ....
....|..|F-2 2FDA ....|A#3 6FFA ....|--- .... ....
 A#3|..|A#2 2CDF ....|R-- .... ....|--- .... ....
....|..|--- .... ....|--- .... ....|--- .... ....
....|..|F-2 2FD7 ....|A#3 6FF7 ....|--- .... ....
....|..|A#2 2FDA ....|R-- .... ....|--- .... ....
....|..|R-- .... ....|--- .... ....|--- .... ....
....|..|--- .... ....|--- .... ....|--- .... ....
....|..|A#2 2FD7 ....|R-- .... ....|--- .... ....
....|..|R-- .... ....|--- .... ....|--- .... ....
....|..|--- .... ....|A#4 6FFF ....|--- .... ....
....|..|--- .... ....|--- .... ....|--- .... ....
....|..|R-- .... ....|--- .... ....|--- .... ....
....|..|--- .... ....|A#4 6FFA ....|--- .... ....
....|..|--- .... ....|A#4 6FFF ....|--- .... ....
....|..|--- .... ....|--- .... ....|--- .... ....
....|..|--- .... ....|A#4 6FF7 ....|--- .... ....
....|..|--- .... ....|A#4 6FFA ....|--- .... ....
....|..|--- .... ....|R-- .... ....|--- .... ....
....|..|--- .... ....|--- .... ....|--- .... ....
....|..|--- .... ....|A#4 6FF7 ....|--- .... ....
....|..|--- .... ....|R-- .... ....|--- .... ....
....|..|--- .... ....|--- .... ....|--- .... ....
....|..|--- .... ....|--- .... ....|--- .... ....
....|..|--- .... ....|R-- .... ....|--- .... ....
....|..|--- .... ....|--- .... ....|--- .... ....

[Pattern1]
 C-4|..|C-2 2ADF ....|--- .... ....|F-5 1FEF ....
....|..|--- .... ....|--- .... ....|--- .... ....
....|..|--- .... ....|--- .... ....|--- .... ....
....|..|C-2 2FDA ....|--- .... ....|F-5 1FEA ....
 G-4|..|G-2 2ADF ....|--- .... ....|G-5 1FEF ....
....|..|--- .... ....|--- .... ....|--- .... ....
....|..|C-2 2FD7 ....|--- .... ....|F-5 1FE7 ....
....|..|G-2 2FDA ....|--- .... ....|G-5 1FEA ....
 C-3|..|C-3 2CDF ....|--- .... ....|R-- .... ....
....|..|--- .... ....|--- .... ....|--- .... ....
....|..|G-2 2FD7 ....|--- .... ....|G-5 1FE7 ....
....|..|C-3 2FDA ....|--- .... ....|R-- .... ....
 G-4|..|G-2 2ADF ....|--- .... ....|--- .... ....
....|..|--- .... ....|--- .... ....|--- .... ....
....|..|C-3 2FD7 ....|--- .... ....|R-- .... ....
....|..|G-2 2FDA ....|--- .... ....|--- .... ....
 D#4|..|D#3 2CDF ....|--- .... ....|--- .... ....
....|..|--- .... ....|--- .... ....|--- .... ....
....|..|G-2 2FD7 ....|--- .... ....|--- .... ....
....|..|D#3 2FDA ....|--- .... ....|--- .... ....
 G-4|..|G-2 2ADF ....|--- .... ....|--- .... ....
....|..|--- .... ....|--- .... ....|--- .... ....
....|..|D#3 2FD7 ....|--- .... ....|--- .... ....
....|..|G-2 2FDA ....|--- .... ....|--- .... ....
 C-3|..|C-3 2CDF ....|--- .... ....|G-5 1FEF ....
....|..|--- .... ....|--- .... ....|--- .... ....
....|..|G-2 2FD7 ....|--- .... ....|F-5 1FEF ....
....|..|C-3 2FDA ....|--- .... ....|G-5 1FEA ....
 G-4|..|G-2 2ADF ....|D-5 6FFF ....|R-- .... ....
....|..|--- .... ....|--- .... ....|F-5 1FEA ....
....|..|C-3 2FD7 ....|--- .... ....|G-5 1FE7 ....
....|..|G-2 2FDA ....|D-5 6FFA ....|R-- .... ....
 C-4|..|C-2 2ADF ....|R-- .... ....|F-5 1FEF ....
....|..|--- .... ....|--- .... ....|--- .... ....
....|..|G-2 2FD7 ....|D-5 6FF7 ....|R-- .... ....
....|..|C-2 2FDA ....|R-- .... ....|F-5 1FEA ....
 G-4|..|G-2 2ADF ....|--- .... ....|--- .... ....
....|..|--- .... ....|--- .... ....|--- .... ....
....|..|C-2 2FD7 ....|R-- .... ....|F-5 1FE7 ....
....|..|G-2 2FDA ....|--- .... ....|--- .... ....
 C-3|..|C-3 2CDF ....|--- .... ....|--- .... ....
....|..|--- .... ....|--- .... ....|--- .... ....
....|..|G-2 2FD7 ....|--- .... ....|--- .... ....
....|..|C-3 2FDA ....|--- .... ....|--- .... ....
 G-4|..|G-2 2ADF ....|--- .... ....|R-- .... ....
....|..|--- .... ....|--- .... ....|--- .... ....
....|..|C-3 2FD7 ....|--- .... ....|--- .... ....
....|..|G-2 2FDA ....|--- .... ....|R-- .... ....
 D#4|..|D#3 2CDF ....|A#4 6FFF ....|--- .... ....
....|..|--- .... ....|--- .... ....|--- .... ....
....|..|G-2 2FD7 ....|--- .... ....|R-- .... ....
....|..|D#3 2FDA ....|A#4 6FFA ....|--- .... ....
 G-4|..|G-2 2ADF ....|--- .... ....|--- .... ....
....|..|--- .... ....|--- .... ....|--- .... ....
....|..|D#3 2FD7 ....|A#4 6FF7 ....|--- .... ....
....|..|G-2 2FDA ....|--- .... ....|--- .... ....
 C-3|..|C-3 2CDF ....|--- .... ....|--- .... ....
....|..|--- .... ....|--- .... ....|--- .... ....
....|..|G-2 2FD7 ....|--- .... ....|--- .... ....
....|..|C-3 2FDA ....|--- .... ....|--- .... ....
 G-4|..|G-2 2ADF ....|R-- .... ....|--- .... ....
....|..|--- .... ....|--- .... ....|--- .... ....
....|..|C-3 2FD7 ....|--- .... ....|--- .... ....
....|..|G-2 2FDA ....|R-- .... ....|--- .... ....

[Pattern2]
 G-3|..|G-1 2ADF ....|--- .... ....|--- .... ....
....|..|--- .... ....|--- .... ....|--- .... ....
....|..|G-2 2FD7 ....|R-- .... ....|--- .... ....
....|..|G-1 2FDA ....|--- .... ....|--- .... ....
 D-4|..|D-2 2ADF ....|--- .... ....|--- .... ....
....|..|--- .... ....|--- .... ....|--- .... ....
....|..|G-1 2FD7 ....|--- .... ....|--- .... ....
....|..|D-2 2FDA ....|--- .... ....|--- .... ....
 G-4|..|G-2 2ADF ....|D-5 6FFF ....|--- .... ....
....|..|--- .... ....|--- .... ....|--- .... ....
....|..|D-2 2FD7 ....|--- .... ....|--- .... ....
....|..|G-2 2FDA ....|D-5 6FFA ....|--- .... ....
....|..|--- .... ....|C-5 6FFF ....|--- .... ....
....|..|--- .... ....|--- .... ....|--- .... ....
....|..|G-2 2FD7 ....|D-5 6FF7 ....|--- .... ....
....|..|--- .... ....|C-5 6FFA ....|--- .... ....
 F-3|..|F-1 2ADF ....|R-- .... ....|--- .... ....
....|..|--- .... ....|--- .... ....|--- .... ....
....|..|--- .... ....|C-5 6FF7 ....|--- .... ....
....|..|F-1 2FDA ....|R-- .... ....|--- .... ....
 C-4|..|C-2 2ADF ....|--- .... ....|--- .... ....
....|..|--- .... ....|--- .... ....|--- .... ....
....|..|F-1 2FD7 ....|R-- .... ....|--- .... ....
....|..|C-2 2FDA ....|--- .... ....|--- .... ....
 F-4|..|F-2 2ADF ....|C-5 6FFF ....|--- .... ....
....|..|--- .... ....|--- .... ....|--- .... ....
....|..|C-2 2FD7 ....|--- .... ....|--- .... ....
....|..|F-2 2FDA ....|C-5 6FFA ....|--- .... ....
....|..|--- .... ....|A#4 6FFF ....|--- .... ....
....|..|--- .... ....|--- .... ....|--- .... ....
....|..|F-2 2FD7 ....|C-5 6FF7 ....|--- .... ....
....|..|--- .... ....|A#4 6FFA ....|--- .... ....
 D#3|..|D#1 2ADF ....|R-- .... ....|--- .... ....
....|..|--- .... ....|--- .... ....|--- .... ....
....|..|--- .... ....|A#4 6FF7 ....|--- .... ....
....|..|D#1 2FDA ....|R-- .... ....|--- .... ....
 A#3|..|A#1 2ADF ....|--- .... ....|--- .... ....
....|..|--- .... ....|--- .... ....|--- .... ....
....|..|D#1 2FD7 ....|R-- .... ....|--- .... ....
....|..|A#1 2FDA ....|--- .... ....|--- .... ....
 D#4|..|D#2 2ADF ....|A-4 6FFF ....|--- .... ....
....|..|--- .... ....|--- .... ....|--- .... ....
....|..|A#1 2FD7 ....|--- .... ....|--- .... ....
....|..|D#2 2FDA ....|A-4 6FFA ....|--- .... ....
....|..|--- .... ....|G-4 6FFF ....|--- .... ....
....|..|--- .... ....|--- .... ....|--- .... ....
....|..|D#2 2FD7 ....|A-4 6FF7 ....|--- .... ....
....|..|--- .... ....|G-4 6FFA ....|--- .... ....
 D-3|..|D-1 2ADF ....|R-- .... ....|--- .... ....
....|..|--- .... ....|--- .... ....|--- .... ....
....|..|--- .... ....|G-4 6FF7 ....|--- .... ....
....|..|D-1 2FDA ....|R-- .... ....|--- .... ....
 A-3|..|A-1 2ADF ....|--- .... ....|--- .... ....
....|..|--- .... ....|--- .... ....|--- .... ....
....|..|D-1 2FD7 ....|R-- .... ....|--- .... ....
....|..|A-1 2FDA ....|--- .... ....|--- .... ....
 D-4|..|D-2 2ADF ....|D-4 6FFF ....|--- .... ....
....|..|--- .... ....|--- .... ....|--- .... ....
....|..|A-1 2FD7 ....|--- .... ....|--- .... ....
....|..|D-2 2FDA ....|D-4 6FFA ....|--- .... ....
....|..|--- .... ....|C-4 6FFF ....|--- .... ....
....|..|--- .... ....|--- .... ....|--- .... ....
....|..|D-2 2FD7 ....|D-4 6FF7 ....|--- .... ....
....|..|--- .... ....|C-4 6FFA ....|--- .... ....

[Pattern3]
 C-3|..|C-1 2ADF ....|R-- .... ....|F-5 1FEF ....
....|..|--- .... ....|--- .... ....|--- .... ....
....|..|--- .... ....|C-4 6FF7 ....|--- .... ....
....|..|C-1 2FDA ....|R-- .... ....|F-5 1FEA ....
 G-3|..|G-1 2ADF ....|--- .... ....|G-5 1FEF ....
....|..|--- .... ....|--- .... ....|--- .... ....
....|..|C-1 2FD7 ....|R-- .... ....|F-5 1FE7 ....
....|..|G-1 2FDA ....|--- .... ....|G-5 1FEA ....
 C-4|..|C-2 2ADF ....|--- .... ....|R-- .... ....
....|..|--- .... ....|--- .... ....|--- .... ....
....|..|G-1 2FD7 ....|--- .... ....|G-5 1FE7 ....
....|..|C-2 2FDA ....|--- .... ....|R-- .... ....
 G-3|..|G-1 2ADF ....|--- .... ....|--- .... ....
....|..|--- .... ....|--- .... ....|--- .... ....
....|..|C-2 2FD7 ....|--- .... ....|R-- .... ....
....|..|G-1 2FDA ....|--- .... ....|--- .... ....
 D#4|..|D#2 2ADF ....|--- .... ....|--- .... ....
....|..|--- .... ....|--- .... ....|--- .... ....
....|..|G-1 2FD7 ....|--- .... ....|--- .... ....
....|..|D#2 2FDA ....|--- .... ....|--- .... ....
 G-3|..|G-1 2ADF ....|--- .... ....|--- .... ....
....|..|--- .... ....|--- .... ....|--- .... ....
....|..|D#2 2FD7 ....|--- .... ....|--- .... ....
....|..|G-1 2FDA ....|--- .... ....|--- .... ....
 C-4|..|C-2 2ADF ....|--- .... ....|G-5 1FEF ....
....|..|--- .... ....|--- .... ....|--- .... ....
....|..|G-1 2FD7 ....|--- .... ....|F-5 1FEF ....
....|..|C-2 2FDA ....|--- .... ....|G-5 1FEA ....
 G-3|..|G-1 2ADF ....|D-5 6FFF ....|R-- .... ....
....|..|--- .... ....|--- .... ....|F-5 1FEA ....
....|..|C-2 2FD7 ....|--- .... ....|G-5 1FE7 ....
....|..|G-1 2FDA ....|D-5 6FFA ....|R-- .... ....
 C-3|..|C-1 2ADF ....|R-- .... ....|F-5 1FEF ....
....|..|--- .... ....|--- .... ....|--- .... ....
....|..|G-1 2FD7 ....|D-5 6FF7 ....|R-- .... ....
....|..|C-1 2FDA ....|R-- .... ....|F-5 1FEA ....
 G-3|..|G-1 2ADF ....|--- .... ....|--- .... ....
....|..|--- .... ....|--- .... ....|--- .... ....
....|..|C-1 2FD7 ....|R-- .... ....|F-5 1FE7 ....
....|..|G-1 2FDA ....|--- .... ....|--- .... ....
 C-4|..|C-2 2ADF ....|--- .... ....|--- .... ....
....|..|--- .... ....|--- .... ....|--- .... ....
....|..|G-1 2FD7 ....|--- .... ....|--- .... ....
....|..|C-2 2FDA ....|--- .... ....|--- .... ....
 G-3|..|G-1 2ADF ....|--- .... ....|R-- .... ....
....|..|--- .... ....|--- .... ....|--- .... ....
....|..|C-2 2FD7 ....|--- .... ....|--- .... ....
....|..|G-1 2FDA ....|--- .... ....|R-- .... ....
 D#4|..|D#2 2ADF ....|A#4 6FFF ....|--- .... ....
....|..|--- .... ....|--- .... ....|--- .... ....
....|..|G-1 2FD7 ....|--- .... ....|R-- .... ....
....|..|D#2 2FDA ....|A#4 6FFA ....|--- .... ....
 G-3|..|G-1 2ADF ....|--- .... ....|--- .... ....
....|..|--- .... ....|--- .... ....|--- .... ....
....|..|D#2 2FD7 ....|A#4 6FF7 ....|--- .... ....
....|..|G-1 2FDA ....|--- .... ....|--- .... ....
 C-4|..|C-2 2ADF ....|--- .... ....|--- .... ....
....|..|--- .... ....|--- .... ....|--- .... ....
....|..|G-1 2FD7 ....|--- .... ....|--- .... ....
....|..|C-2 2FDA ....|--- .... ....|--- .... ....
 G-3|..|G-1 2ADF ....|R-- .... ....|--- .... ....
....|..|--- .... ....|--- .... ....|--- .... ....
....|..|C-2 2FD7 ....|--- .... ....|--- .... ....
....|..|G-1 2FDA ....|R-- .... ....|--- .... ....

[Pattern4]
 G-3|..|G-1 2ADF ....|G-3 6FFF ....|--- .... ....
....|..|--- .... ....|--- .... ....|--- .... ....
....|..|G-1 2FD7 ....|R-- .... ....|--- .... ....
....|..|G-1 2FDA ....|G-3 6FFA ....|--- .... ....
 D-4|..|D-2 2ADF ....|G-3 6FFF ....|--- .... ....
....|..|--- .... ....|--- .... ....|--- .... ....
....|..|G-1 2FD7 ....|G-3 6FF7 ....|--- .... ....
....|..|D-2 2FDA ....|G-3 6FFA ....|--- .... ....
 G-4|..|G-2 2ADF ....|R-- .... ....|--- .... ....
....|..|--- .... ....|--- .... ....|--- .... ....
....|..|D-2 2FD7 ....|G-3 6FF7 ....|--- .... ....
....|..|G-2 2FDA ....|R-- .... ....|--- .... ....
....|..|R-- .... ....|--- .... ....|--- .... ....
....|..|--- .... ....|--- .... ....|--- .... ....
....|..|G-2 2FD7 ....|R-- .... ....|--- .... ....
....|..|R-- .... ....|--- .... ....|--- .... ....
....|..|--- .... ....|G-4 6FFF ....|--- .... ....
....|..|--- .... ....|--- .... ....|--- .... ....
....|..|R-- .... ....|--- .... ....|--- .... ....
....|..|--- .... ....|G-4 6FFA ....|--- .... ....
....|..|--- .... ....|G-4 6FFF ....|--- .... ....
....|..|--- .... ....|--- .... ....|--- .... ....
....|..|--- .... ....|G-4 6FF7 ....|--- .... ....
....|..|--- .... ....|G-4 6FFA ....|--- .... ....
....|..|--- .... ....|R-- .... ....|--- .... ....
....|..|--- .... ....|--- .... ....|--- .... ....
....|..|--- .... ....|G-4 6FF7 ....|--- .... ....
....|..|--- .... ....|R-- .... ....|--- .... ....
....|..|--- .... ....|--- .... ....|--- .... ....
....|..|--- .... ....|--- .... ....|--- .... ....
....|..|--- .... ....|R-- .... ....|--- .... ....
....|..|--- .... ....|--- .... ....|--- .... ....
 A#3|..|A#1 2ADF ....|A#3 6FFF ....|--- .... ....
....|..|--- .... ....|--- .... ....|--- .... ....
....|..|--- .... ....|--- .... ....|--- .... ....
....|..|A#1 2FDA ....|A#3 6FFA ....|--- .... ....
 F-4|..|F-2 2ADF ....|A#3 6FFF ....|--- .... ....
....|..|--- .... ....|--- .... ....|--- .... ....
....|..|A#1 2FD7 ....|A#3 6FF7 ....|--- .... ....
....|..|F-2 2FDA ....|A#3 6FFA ....|--- .... ....
 A#3|..|A#2 2CDF ....|R-- .... ....|--- .... ....
....|..|--- .... ....|--- .... ....|--- .... ....
....|..|F-2 2FD7 ....|A#3 6FF7 ....|--- .... ....
....|..|A#2 2FDA ....|R-- .... ....|--- .... ....
....|..|R-- .... ....|--- .... ....|--- .... ....
....|..|--- .... ....|--- .... ....|--- .... ....
....|..|A#2 2FD7 ....|R-- .... ....|--- .... ....
....|..|R-- .... ....|--- .... ....|--- .... ....
....|..|--- .... ....|A#4 6FFF ....|--- .... ....
....|..|--- .... ....|--- .... ....|--- .... ....
....|..|R-- .... ....|--- .... ....|--- .... ....
....|..|--- .... ....|A#4 6FFA ....|--- .... ....
....|..|--- .... ....|A#4 6FFF ....|--- .... ....
....|..|--- .... ....|--- .... ....|--- .... ....
....|..|--- .... ....|A#4 6FF7 ....|--- .... ....
....|..|--- .... ....|A#4 6FFA ....|--- .... ....
....|..|--- .... ....|R-- .... ....|--- .... ....
....|..|--- .... ....|--- .... ....|--- .... ....
....|..|--- .... ....|A#4 6FF7 ....|--- .... ....
....|..|--- .... ....|R-- .... ....|--- .... ....
....|..|--- .... ....|--- .... ....|--- .... ....
....|..|--- .... ....|--- .... ....|--- .... ....
....|..|--- .... ....|R-- .... ....|--- .... ....
....|..|--- .... ....|--- .... ....|--- .... ....

[Pattern6]
 G-3|..|G-1 2ADF ....|--- .... ....|--- .... ....
....|..|--- .... ....|--- .... ....|--- .... ....
....|..|G-2 2FD7 ....|R-- .... ....|--- .... ....
....|..|G-1 2FDA ....|--- .... ....|--- .... ....
 D-4|..|D-2 2ADF ....|--- .... ....|--- .... ....
....|..|--- .... ....|--- .... ....|--- .... ....
....|..|G-1 2FD7 ....|--- .... ....|--- .... ....
....|..|D-2 2FDA ....|--- .... ....|--- .... ....
 G-4|..|G-2 2ADF ....|G-4 6FFF ....|--- .... ....
....|..|--- .... ....|--- .... ....|--- .... ....
....|..|D-2 2FD7 ....|--- .... ....|--- .... ....
....|..|G-2 2FDA ....|G-4 6FFA ....|--- .... ....
....|..|--- .... ....|F-4 6FFF ....|--- .... ....
....|..|--- .... ....|--- .... ....|--- .... ....
....|..|G-2 2FD7 ....|G-4 6FF7 ....|--- .... ....
....|..|--- .... ....|F-4 6FFA ....|--- .... ....
 F-3|..|F-1 2ADF ....|R-- .... ....|--- .... ....
....|..|--- .... ....|--- .... ....|--- .... ....
....|..|--- .... ....|F-4 6FF7 ....|--- .... ....
....|..|F-1 2FDA ....|R-- .... ....|--- .... ....
 C-4|..|C-2 2ADF ....|--- .... ....|--- .... ....
....|..|--- .... ....|--- .... ....|--- .... ....
....|..|F-1 2FD7 ....|R-- .... ....|--- .... ....
....|..|C-2 2FDA ....|--- .... ....|--- .... ....
 F-4|..|F-2 2ADF ....|C-5 6FFF ....|--- .... ....
....|..|--- .... ....|--- .... ....|--- .... ....
....|..|C-2 2FD7 ....|--- .... ....|--- .... ....
....|..|F-2 2FDA ....|C-5 6FFA ....|--- .... ....
....|..|--- .... ....|A#4 6FFF ....|--- .... ....
....|..|--- .... ....|--- .... ....|--- .... ....
....|..|F-2 2FD7 ....|C-5 6FF7 ....|--- .... ....
....|..|--- .... ....|A#4 6FFA ....|--- .... ....
 D#3|..|D#1 2ADF ....|R-- .... ....|--- .... ....
....|..|--- .... ....|--- .... ....|--- .... ....
....|..|--- .... ....|A#4 6FF7 ....|--- .... ....
....|..|D#1 2FDA ....|R-- .... ....|--- .... ....
 A#3|..|A#1 2ADF ....|--- .... ....|--- .... ....
....|..|--- .... ....|--- .... ....|--- .... ....
....|..|D#1 2FD7 ....|R-- .... ....|--- .... ....
....|..|A#1 2FDA ....|--- .... ....|--- .... ....
 D#4|..|D#2 2ADF ....|D-5 6FFF ....|--- .... ....
....|..|--- .... ....|--- .... ....|--- .... ....
....|..|A#1 2FD7 ....|--- .... ....|--- .... ....
....|..|D#2 2FDA ....|D-5 6FFA ....|--- .... ....
....|..|--- .... ....|C-5 6FFF ....|--- .... ....
....|..|--- .... ....|--- .... ....|--- .... ....
....|..|D#2 2FD7 ....|D-5 6FF7 ....|--- .... ....
....|..|--- .... ....|C-5 6FFA ....|--- .... ....
 D-3|..|D-1 2ADF ....|R-- .... ....|--- .... ....
....|..|--- .... ....|--- .... ....|--- .... ....
....|..|--- .... ....|C-5 6FF7 ....|--- .... ....
....|..|D-1 2FDA ....|R-- .... ....|--- .... ....
 A-3|..|A-1 2ADF ....|--- .... ....|--- .... ....
....|..|--- .... ....|--- .... ....|--- .... ....
....|..|D-1 2FD7 ....|R-- .... ....|--- .... ....
....|..|A-1 2FDA ....|--- .... ....|--- .... ....
 D-4|..|D-2 2ADF ....|A-3 6FFF ....|--- .... ....
....|..|--- .... ....|--- .... ....|--- .... ....
....|..|A-1 2FD7 ....|--- .... ....|--- .... ....
....|..|D-2 2FDA ....|A-3 6FFA ....|--- .... ....
....|..|--- .... ....|G-3 6FFF ....|--- .... ....
....|..|--- .... ....|--- .... ....|--- .... ....
....|..|D-2 2FD7 ....|A-3 6FF7 ....|--- .... ....
....|..|--- .... ....|G-3 6FFA ....|--- .... ....

[Pattern7]
 C-3|..|C-1 2ADF ....|R-- .... ....|F-5 1FEF ....
....|..|--- .... ....|--- .... ....|--- .... ....
....|..|--- .... ....|G-3 6FF7 ....|--- .... ....
....|..|C-1 2FDA ....|R-- .... ....|F-5 1FEA ....
 G-3|..|G-1 2ADF ....|--- .... ....|G-5 1FEF ....
....|..|--- .... ....|--- .... ....|--- .... ....
....|..|C-1 2FD7 ....|R-- .... ....|F-5 1FE7 ....
....|..|G-1 2FDA ....|--- .... ....|G-5 1FEA ....
 C-4|..|C-2 2ADF ....|--- .... ....|R-- .... ....
....|..|--- .... ....|--- .... ....|--- .... ....
....|..|G-1 2FD7 ....|--- .... ....|G-5 1FE7 ....
....|..|C-2 2FDA ....|--- .... ....|R-- .... ....
 G-3|..|G-1 2ADF ....|--- .... ....|--- .... ....
....|..|--- .... ....|--- .... ....|--- .... ....
....|..|C-2 2FD7 ....|--- .... ....|R-- .... ....
....|..|G-1 2FDA ....|--- .... ....|--- .... ....
 D#4|..|D#2 2ADF ....|--- .... ....|--- .... ....
....|..|--- .... ....|--- .... ....|--- .... ....
....|..|G-1 2FD7 ....|--- .... ....|--- .... ....
....|..|D#2 2FDA ....|--- .... ....|--- .... ....
 G-3|..|G-1 2ADF ....|--- .... ....|--- .... ....
....|..|--- .... ....|--- .... ....|--- .... ....
....|..|D#2 2FD7 ....|--- .... ....|--- .... ....
....|..|G-1 2FDA ....|--- .... ....|--- .... ....
 C-4|..|C-2 2ADF ....|--- .... ....|G-5 1FEF ....
....|..|--- .... ....|--- .... ....|--- .... ....
....|..|G-1 2FD7 ....|--- .... ....|F-5 1FEF ....
....|..|C-2 2FDA ....|--- .... ....|G-5 1FEA ....
 G-3|..|G-1 2ADF ....|D-5 6FFF ....|R-- .... ....
....|..|--- .... ....|--- .... ....|F-5 1FEA ....
....|..|C-2 2FD7 ....|--- .... ....|G-5 1FE7 ....
....|..|G-1 2FDA ....|D-5 6FFA ....|R-- .... ....
 C-3|..|C-1 2ADF ....|R-- .... ....|F-5 1FEF ....
....|..|--- .... ....|--- .... ....|--- .... ....
....|..|G-1 2FD7 ....|D-5 6FF7 ....|R-- .... ....
....|..|C-1 2FDA ....|R-- .... ....|F-5 1FEA ....
 G-3|..|G-1 2ADF ....|--- .... ....|--- .... ....
....|..|--- .... ....|--- .... ....|--- .... ....
....|..|C-1 2FD7 ....|R-- .... ....|F-5 1FE7 ....
....|..|G-1 2FDA ....|--- .... ....|--- .... ....
 C-4|..|C-2 2ADF ....|--- .... ....|--- .... ....
....|..|--- .... ....|--- .... ....|--- .... ....
....|..|G-1 2FD7 ....|--- .... ....|--- .... ....
....|..|C-2 2FDA ....|--- .... ....|--- .... ....
 G-3|..|G-1 2ADF ....|--- .... ....|R-- .... ....
....|..|--- .... ....|--- .... ....|--- .... ....
....|..|C-2 2FD7 ....|--- .... ....|--- .... ....
....|..|G-1 2FDA ....|--- .... ....|R-- .... ....
 D#4|..|D#2 2ADF ....|A#4 6FFF ....|--- .... ....
....|..|--- .... ....|--- .... ....|--- .... ....
....|..|G-1 2FD7 ....|--- .... ....|R-- .... ....
....|..|D#2 2FDA ....|A#4 6FFA ....|--- .... ....
 G-3|..|G-1 2ADF ....|--- .... ....|--- .... ....
....|..|--- .... ....|--- .... ....|--- .... ....
....|..|D#2 2FD7 ....|A#4 6FF7 ....|--- .... ....
....|..|G-1 2FDA ....|--- .... ....|--- .... ....
 C-4|..|C-2 2ADF ....|--- .... ....|--- .... ....
....|..|--- .... ....|--- .... ....|--- .... ....
....|..|G-1 2FD7 ....|--- .... ....|--- .... ....
....|..|C-2 2FDA ....|--- .... ....|--- .... ....
 G-3|..|G-1 2ADF ....|R-- .... ....|--- .... ....
....|..|--- .... ....|--- .... ....|--- .... ....
....|..|C-2 2FD7 ....|--- .... ....|--- .... ....
....|..|G-1 2FDA ....|R-- .... ....|--- .... ....

[Pattern11]
 C-4|..|C-2 2ADF ....|D-5 6FFF ....|G-5 1FEF ....
....|..|--- .... ....|--- .... ....|--- .... ....
....|..|--- .... ....|C-4 6FF7 ....|--- .... ....
....|..|C-2 2FDA ....|D-5 6FFA ....|G-5 1FEA ....
....|..|--- .... ....|C-5 6FFF ....|F-5 1FEF ....
....|..|--- .... ....|--- .... ....|--- .... ....
....|..|C-2 2FD7 ....|D-5 6FF7 ....|G-5 1FE7 ....
....|..|--- .... ....|C-5 6FFA ....|F-5 1FEA ....
 C-4|..|C-2 2ADF ....|D-5 6FFF ....|G-5 1FEF ....
....|..|--- .... ....|--- .... ....|--- .... ....
....|..|--- .... ....|C-5 6FF7 ....|F-5 1FE7 ....
....|..|C-2 2FDA ....|D-5 6FFA ....|G-5 1FEA ....
....|..|--- .... ....|C-5 6FFF ....|F-5 1FEF ....
....|..|--- .... ....|--- .... ....|--- .... ....
....|..|C-2 2FD7 ....|D-5 6FF7 ....|G-5 1FE7 ....
....|..|--- .... ....|C-5 6FFA ....|F-5 1FEA ....
 C-4|..|C-2 2ADF ....|D-5 6FFF ....|G-5 1FEF ....
....|..|--- .... ....|--- .... ....|--- .... ....
....|..|--- .... ....|C-5 6FF7 ....|F-5 1FE7 ....
....|..|C-2 2FDA ....|D-5 6FFA ....|G-5 1FEA ....
....|..|--- .... ....|C-5 6FFF ....|F-5 1FEF ....
....|..|--- .... ....|--- .... ....|--- .... ....
....|..|C-2 2FD7 ....|D-5 6FF7 ....|G-5 1FE7 ....
....|..|--- .... ....|C-5 6FFA ....|F-5 1FEA ....
 C-4|..|C-2 2ADF ....|D-5 6FFF ....|G-5 1FEF ....
....|..|--- .... ....|--- .... ....|--- .... ....
....|..|--- .... ....|C-5 6FF7 ....|F-5 1FE7 ....
....|..|C-2 2FDA ....|D-5 6FFA ....|G-5 1FEA ....
....|..|--- .... ....|C-5 6FFF ....|F-5 1FEF ....
....|..|--- .... ....|--- .... ....|--- .... ....
....|..|C-2 2FD7 ....|D-5 6FF7 ....|G-5 1FE7 ....
....|..|--- .... ....|C-5 6FFA ....|F-5 1FEA ....
 C-4|..|C-2 2ADF ....|D-5 6FFF ....|G-5 1FEF ....
....|..|--- .... ....|--- .... ....|--- .... ....
....|..|--- .... ....|C-5 6FF7 ....|F-5 1FE7 ....
....|..|C-2 2FDA ....|D-5 6FFA ....|G-5 1FEA ....
....|..|--- .... ....|C-5 6FFF ....|F-5 1FEF ....
....|..|--- .... ....|--- .... ....|--- .... ....
....|..|C-2 2FD7 ....|D-5 6FF7 ....|G-5 1FE7 ....
....|..|--- .... ....|C-5 6FFA ....|F-5 1FEA ....
 C-4|..|C-2 2ADF ....|D-5 6FFF ....|G-5 1FEF ....
....|..|--- .... ....|--- .... ....|--- .... ....
....|..|--- .... ....|C-5 6FF7 ....|F-5 1FE7 ....
....|..|C-2 2FDA ....|D-5 6FFA ....|G-5 1FEA ....
....|..|--- .... ....|C-5 6FFF ....|F-5 1FEF ....
....|..|--- .... ....|--- .... ....|--- .... ....
....|..|C-2 2FD7 ....|D-5 6FF7 ....|G-5 1FE7 ....
....|..|--- .... ....|C-5 6FFA ....|F-5 1FEA ....
 F-3|..|F-1 2ADF ....|R-- .... ....|R-- .... ....
....|..|--- .... ....|--- .... ....|--- .... ....
....|..|--- .... ....|C-5 6FF7 ....|F-5 1FE7 ....
....|..|F-1 2FDA ....|R-- .... ....|R-- .... ....
 G-3|..|G-1 2ADF ....|--- .... ....|--- .... ....
....|..|--- .... ....|--- .... ....|--- .... ....
....|..|F-1 2FD7 ....|R-- .... ....|R-- .... ....
....|..|G-1 2FDA ....|--- .... ....|--- .... ....
 D-3|..|D-1 2ADF ....|--- .... ....|--- .... ....
....|..|--- .... ....|--- .... ....|--- .... ....
....|..|G-1 2FD7 ....|--- .... ....|--- .... ....
....|..|D-1 2FDA ....|--- .... ....|--- .... ....
 F-3|..|F-1 2ADF ....|--- .... ....|--- .... ....
....|..|--- .... ....|--- .... ....|--- .... ....
....|..|D-1 2FD7 ....|--- .... ....|--- .... ....
....|..|F-1 2FDA ....|--- .... ....|--- .... ....

[Pattern12]
 G-3|..|G-1 2ADF ....|G-3 6FFF ....|--- .... ....
....|..|--- .... ....|--- .... ....|--- .... ....
....|..|F-1 2FD7 ....|--- .... ....|--- .... ....
....|..|G-1 2FDA ....|G-3 6FFA ....|--- .... ....
 D-4|..|D-2 2ADF ....|G-3 6FFF ....|--- .... ....
....|..|--- .... ....|--- .... ....|--- .... ....
....|..|G-1 2FD7 ....|G-3 6FF7 ....|--- .... ....
....|..|D-2 2FDA ....|G-3 6FFA ....|--- .... ....
 G-4|..|G-2 2ADF ....|D-5 6FFF ....|--- .... ....
....|..|--- .... ....|--- .... ....|--- .... ....
....|..|D-2 2FD7 ....|G-3 6FF7 ....|--- .... ....
....|..|G-2 2FDA ....|D-5 6FFA ....|--- .... ....
....|..|--- .... ....|C-5 6FFF ....|--- .... ....
....|..|--- .... ....|--- .... ....|--- .... ....
....|..|G-2 2FD7 ....|D-5 6FF7 ....|--- .... ....
....|..|--- .... ....|C-5 6FFA ....|--- .... ....
 F-3|..|F-1 2ADF ....|G-4 6FFF ....|--- .... ....
....|..|--- .... ....|--- .... ....|--- .... ....
....|..|--- .... ....|C-5 6FF7 ....|--- .... ....
....|..|F-1 2FDA ....|G-4 6FFA ....|--- .... ....
 C-4|..|C-2 2ADF ....|G-4 6FFF ....|--- .... ....
....|..|--- .... ....|--- .... ....|--- .... ....
....|..|F-1 2FD7 ....|G-4 6FF7 ....|--- .... ....
....|..|C-2 2FDA ....|G-4 6FFA ....|--- .... ....
 F-4|..|F-2 2ADF ....|C-5 6FFF ....|--- .... ....
....|..|--- .... ....|--- .... ....|--- .... ....
....|..|C-2 2FD7 ....|G-4 6FF7 ....|--- .... ....
....|..|F-2 2FDA ....|C-5 6FFA ....|--- .... ....
....|..|--- .... ....|A#4 6FFF ....|--- .... ....
....|..|--- .... ....|--- .... ....|--- .... ....
....|..|F-2 2FD7 ....|C-5 6FF7 ....|--- .... ....
....|..|--- .... ....|A#4 6FFA ....|--- .... ....
 D#3|..|D#1 2ADF ....|A#3 6FFF ....|--- .... ....
....|..|--- .... ....|--- .... ....|--- .... ....
....|..|--- .... ....|A#4 6FF7 ....|--- .... ....
....|..|D#1 2FDA ....|A#3 6FFA ....|--- .... ....
 A#3|..|A#1 2ADF ....|A#3 6FFF ....|--- .... ....
....|..|--- .... ....|--- .... ....|--- .... ....
....|..|D#1 2FD7 ....|A#3 6FF7 ....|--- .... ....
....|..|A#1 2FDA ....|A#3 6FFA ....|--- .... ....
 D#4|..|D#2 2ADF ....|A-4 6FFF ....|--- .... ....
....|..|--- .... ....|--- .... ....|--- .... ....
....|..|A#1 2FD7 ....|A#3 6FF7 ....|--- .... ....
....|..|D#2 2FDA ....|A-4 6FFA ....|--- .... ....
....|..|--- .... ....|G-4 6FFF ....|--- .... ....
....|..|--- .... ....|--- .... ....|--- .... ....
....|..|D#2 2FD7 ....|A-4 6FF7 ....|--- .... ....
....|..|--- .... ....|G-4 6FFA ....|--- .... ....
 D-3|..|D-1 2ADF ....|A#4 6FFF ....|--- .... ....
....|..|--- .... ....|--- .... ....|--- .... ....
....|..|--- .... ....|G-4 6FF7 ....|--- .... ....
....|..|D-1 2FDA ....|A#4 6FFA ....|--- .... ....
 A-3|..|A-1 2ADF ....|A#4 6FFF ....|--- .... ....
....|..|--- .... ....|--- .... ....|--- .... ....
....|..|D-1 2FD7 ....|A#4 6FF7 ....|--- .... ....
....|..|A-1 2FDA ....|A#4 6FFA ....|--- .... ....
 D-4|..|D-2 2ADF ....|D-4 6FFF ....|--- .... ....
....|..|--- .... ....|--- .... ....|--- .... ....
....|..|A-1 2FD7 ....|A#4 6FF7 ....|--- .... ....
....|..|D-2 2FDA ....|D-4 6FFA ....|--- .... ....
....|..|--- .... ....|C-4 6FFF ....|--- .... ....
....|..|--- .... ....|--- .... ....|--- .... ....
....|..|D-2 2FD7 ....|D-4 6FF7 ....|--- .... ....
....|..|--- .... ....|C-4 6FFA ....|--- .... ....

[Pattern14]
 G-3|..|G-1 2ADF ....|G-3 6FFF ....|--- .... ....
....|..|--- .... ....|--- .... ....|--- .... ....
....|..|G-1 2FD7 ....|R-- .... ....|--- .... ....
....|..|G-1 2FDA ....|G-3 6FFA ....|--- .... ....
 D-4|..|D-2 2ADF ....|G-3 6FFF ....|--- .... ....
....|..|--- .... ....|--- .... ....|--- .... ....
....|..|G-1 2FD7 ....|G-3 6FF7 ....|--- .... ....
....|..|D-2 2FDA ....|G-3 6FFA ....|--- .... ....
 G-4|..|G-2 2ADF ....|G-4 6FFF ....|--- .... ....
....|..|--- .... ....|--- .... ....|--- .... ....
....|..|D-2 2FD7 ....|G-3 6FF7 ....|--- .... ....
....|..|G-2 2FDA ....|G-4 6FFA ....|--- .... ....
....|..|--- .... ....|F-4 6FFF ....|--- .... ....
....|..|--- .... ....|--- .... ....|--- .... ....
....|..|G-2 2FD7 ....|G-4 6FF7 ....|--- .... ....
....|..|--- .... ....|F-4 6FFA ....|--- .... ....
 F-3|..|F-1 2ADF ....|G-4 6FFF ....|--- .... ....
....|..|--- .... ....|--- .... ....|--- .... ....
....|..|--- .... ....|F-4 6FF7 ....|--- .... ....
....|..|F-1 2FDA ....|G-4 6FFA ....|--- .... ....
 C-4|..|C-2 2ADF ....|G-4 6FFF ....|--- .... ....
....|..|--- .... ....|--- .... ....|--- .... ....
....|..|F-1 2FD7 ....|G-4 6FF7 ....|--- .... ....
....|..|C-2 2FDA ....|G-4 6FFA ....|--- .... ....
 F-4|..|F-2 2ADF ....|A#4 6FFF ....|--- .... ....
....|..|--- .... ....|--- .... ....|--- .... ....
....|..|C-2 2FD7 ....|G-4 6FF7 ....|--- .... ....
....|..|F-2 2FDA ....|A#4 6FFA ....|--- .... ....
....|..|--- .... ....|A#4 6FFF ....|--- .... ....
....|..|--- .... ....|--- .... ....|--- .... ....
....|..|F-2 2FD7 ....|A#4 6FF7 ....|--- .... ....
....|..|--- .... ....|A#4 6FFA ....|--- .... ....
 D#3|..|D#1 2ADF ....|A#3 6FFF ....|--- .... ....
....|..|--- .... ....|--- .... ....|--- .... ....
....|..|--- .... ....|A#4 6FF7 ....|--- .... ....
....|..|D#1 2FDA ....|A#3 6FFA ....|--- .... ....
 A#3|..|A#1 2ADF ....|A#3 6FFF ....|--- .... ....
....|..|--- .... ....|--- .... ....|--- .... ....
....|..|D#1 2FD7 ....|A#3 6FF7 ....|--- .... ....
....|..|A#1 2FDA ....|A#3 6FFA ....|--- .... ....
 D#4|..|D#2 2ADF ....|D-5 6FFF ....|--- .... ....
....|..|--- .... ....|--- .... ....|--- .... ....
....|..|A#1 2FD7 ....|A#3 6FF7 ....|--- .... ....
....|..|D#2 2FDA ....|D-5 6FFA ....|--- .... ....
....|..|--- .... ....|C-5 6FFF ....|--- .... ....
....|..|--- .... ....|--- .... ....|--- .... ....
....|..|D#2 2FD7 ....|D-5 6FF7 ....|--- .... ....
....|..|--- .... ....|C-5 6FFA ....|--- .... ....
 D-3|..|D-1 2ADF ....|A#4 6FFF ....|--- .... ....
....|..|--- .... ....|--- .... ....|--- .... ....
....|..|--- .... ....|C-5 6FF7 ....|--- .... ....
....|..|D-1 2FDA ....|A#4 6FFA ....|--- .... ....
 A-3|..|A-1 2ADF ....|A#4 6FFF ....|--- .... ....
....|..|--- .... ....|--- .... ....|--- .... ....
....|..|D-1 2FD7 ....|A#4 6FF7 ....|--- .... ....
....|..|A-1 2FDA ....|A#4 6FFA ....|--- .... ....
 D-4|..|D-2 2ADF ....|A-3 6FFF ....|--- .... ....
....|..|--- .... ....|--- .... ....|--- .... ....
....|..|A-1 2FD7 ....|A#4 6FF7 ....|--- .... ....
....|..|D-2 2FDA ....|A-3 6FFA ....|--- .... ....
....|..|--- .... ....|G-3 6FFF ....|--- .... ....
....|..|--- .... ....|--- .... ....|--- .... ....
....|..|D-2 2FD7 ....|A-3 6FF7 ....|--- .... ....
....|..|--- .... ....|G-3 6FFA ....|--- .... ....

[Pattern16]
 G-3|..|G-1 2ADF ....|G-3 6FFF ....|--- .... ....
....|..|--- .... ....|--- .... ....|--- .... ....
....|..|G-1 2FD7 ....|R-- .... ....|--- .... ....
....|..|G-1 2FDA ....|G-3 6FFA ....|--- .... ....
 D-4|..|D-2 2ADF ....|G-3 6FFF ....|--- .... ....
....|..|--- .... ....|--- .... ....|--- .... ....
....|..|G-1 2FD7 ....|G-3 6FF7 ....|--- .... ....
....|..|D-2 2FDA ....|G-3 6FFA ....|--- .... ....
 G-4|..|G-2 2ADF ....|D-5 6FFF ....|--- .... ....
....|..|--- .... ....|--- .... ....|--- .... ....
....|..|D-2 2FD7 ....|G-3 6FF7 ....|--- .... ....
....|..|G-2 2FDA ....|D-5 6FFA ....|--- .... ....
....|..|--- .... ....|C-5 6FFF ....|--- .... ....
....|..|--- .... ....|--- .... ....|--- .... ....
....|..|G-2 2FD7 ....|D-5 6FF7 ....|--- .... ....
....|..|--- .... ....|C-5 6FFA ....|--- .... ....
 F-3|..|F-1 2ADF ....|G-4 6FFF ....|--- .... ....
....|..|--- .... ....|--- .... ....|--- .... ....
....|..|--- .... ....|C-5 6FF7 ....|--- .... ....
....|..|F-1 2FDA ....|G-4 6FFA ....|--- .... ....
 C-4|..|C-2 2ADF ....|G-4 6FFF ....|--- .... ....
....|..|--- .... ....|--- .... ....|--- .... ....
....|..|F-1 2FD7 ....|G-4 6FF7 ....|--- .... ....
....|..|C-2 2FDA ....|G-4 6FFA ....|--- .... ....
 F-4|..|F-2 2ADF ....|C-5 6FFF ....|--- .... ....
....|..|--- .... ....|--- .... ....|--- .... ....
....|..|C-2 2FD7 ....|G-4 6FF7 ....|--- .... ....
....|..|F-2 2FDA ....|C-5 6FFA ....|--- .... ....
....|..|--- .... ....|A#4 6FFF ....|--- .... ....
....|..|--- .... ....|--- .... ....|--- .... ....
....|..|F-2 2FD7 ....|C-5 6FF7 ....|--- .... ....
....|..|--- .... ....|A#4 6FFA ....|--- .... ....
 D#3|..|D#1 2ADF ....|A#3 6FFF ....|--- .... ....
....|..|--- .... ....|--- .... ....|--- .... ....
....|..|--- .... ....|A#4 6FF7 ....|--- .... ....
....|..|D#1 2FDA ....|A#3 6FFA ....|--- .... ....
 A#3|..|A#1 2ADF ....|A#3 6FFF ....|--- .... ....
....|..|--- .... ....|--- .... ....|--- .... ....
....|..|D#1 2FD7 ....|A#3 6FF7 ....|--- .... ....
....|..|A#1 2FDA ....|A#3 6FFA ....|--- .... ....
 D#4|..|D#2 2ADF ....|A-4 6FFF ....|--- .... ....
....|..|--- .... ....|--- .... ....|--- .... ....
....|..|A#1 2FD7 ....|A#3 6FF7 ....|--- .... ....
....|..|D#2 2FDA ....|A-4 6FFA ....|--- .... ....
....|..|--- .... ....|G-4 6FFF ....|--- .... ....
....|..|--- .... ....|--- .... ....|--- .... ....
....|..|D#2 2FD7 ....|A-4 6FF7 ....|--- .... ....
....|..|--- .... ....|G-4 6FFA ....|--- .... ....
 D-3|..|D-1 2ADF ....|A#4 6FFF ....|--- .... ....
....|..|--- .... ....|--- .... ....|--- .... ....
....|..|--- .... ....|G-4 6FF7 ....|--- .... ....
....|..|D-1 2FDA ....|A#4 6FFA ....|--- .... ....
 A-3|..|A-1 2ADF ....|A#4 6FFF ....|--- .... ....
....|..|--- .... ....|--- .... ....|--- .... ....
....|..|D-1 2FD7 ....|A#4 6FF7 ....|--- .... ....
....|..|A-1 2FDA ....|A#4 6FFA ....|--- .... ....
 D-4|..|D-2 2ADF ....|D-4 6FFF ....|--- .... ....
....|..|--- .... ....|--- .... ....|--- .... ....
....|..|A-1 2FD7 ....|A#4 6FF7 ....|--- .... ....
....|..|D-2 2FDA ....|D-4 6FFA ....|--- .... ....
....|..|--- .... ....|C-4 6FFF ....|--- .... ....
....|..|--- .... ....|--- .... ....|--- .... ....
....|..|D-2 2FD7 ....|D-4 6FF7 ....|--- .... ....
....|..|--- .... ....|C-4 6FFA ....|--- .... ....

[Pattern17]
 C-4|..|C-2 2ADF ....|G-3 6FFF ....|--- .... ....
....|..|--- .... ....|--- .... ....|--- .... ....
....|..|--- .... ....|C-4 6FF7 ....|--- .... ....
....|..|C-2 2FDA ....|G-3 6FFA ....|--- .... ....
....|..|--- .... ....|A#3 6FFF ....|--- .... ....
....|..|--- .... ....|--- .... ....|--- .... ....
....|..|C-2 2FD7 ....|G-3 6FF7 ....|--- .... ....
....|..|--- .... ....|A#3 6FFA ....|--- .... ....
 C-4|..|C-2 2ADF ....|C-4 6FFF ....|--- .... ....
....|..|--- .... ....|--- .... ....|--- .... ....
....|..|--- .... ....|A#3 6FF7 ....|--- .... ....
....|..|C-2 2FDA ....|C-4 6FFA ....|--- .... ....
....|..|--- .... ....|A#3 6FFF ....|--- .... ....
....|..|--- .... ....|--- .... ....|--- .... ....
....|..|C-2 2FD7 ....|C-4 6FF7 ....|--- .... ....
....|..|--- .... ....|A#3 6FFA ....|--- .... ....
 C-4|..|C-2 2ADF ....|G-4 6FFF ....|--- .... ....
....|..|--- .... ....|--- .... ....|--- .... ....
....|..|--- .... ....|A#3 6FF7 ....|--- .... ....
....|..|C-2 2FDA ....|G-4 6FFA ....|--- .... ....
....|..|--- .... ....|A#4 6FFF ....|--- .... ....
....|..|--- .... ....|--- .... ....|--- .... ....
....|..|C-2 2FD7 ....|G-4 6FF7 ....|--- .... ....
....|..|--- .... ....|A#4 6FFA ....|--- .... ....
 C-4|..|C-2 2ADF ....|C-5 6FFF ....|--- .... ....
....|..|--- .... ....|--- .... ....|--- .... ....
....|..|--- .... ....|A#4 6FF7 ....|--- .... ....
....|..|C-2 2FDA ....|C-5 6FFA ....|--- .... ....
....|..|--- .... ....|A#4 6FFF ....|--- .... ....
....|..|--- .... ....|--- .... ....|--- .... ....
....|..|C-2 2FD7 ....|C-5 6FF7 ....|--- .... ....
....|..|--- .... ....|A#4 6FFA ....|--- .... ....
 C-4|..|C-2 2ADF ....|D-5 6FFF ....|--- .... ....
....|..|--- .... ....|--- .... ....|--- .... ....
....|..|--- .... ....|A#4 6FF7 ....|--- .... ....
....|..|C-2 2FDA ....|D-5 6FFA ....|--- .... ....
....|..|--- .... ....|C-5 6FFF ....|--- .... ....
....|..|--- .... ....|--- .... ....|--- .... ....
....|..|C-2 2FD7 ....|D-5 6FF7 ....|--- .... ....
....|..|--- .... ....|C-5 6FFA ....|--- .... ....
 C-4|..|C-2 2ADF ....|A#4 6FFF ....|--- .... ....
....|..|--- .... ....|--- .... ....|--- .... ....
....|..|--- .... ....|C-5 6FF7 ....|--- .... ....
....|..|C-2 2FDA ....|A#4 6FFA ....|--- .... ....
....|..|--- .... ....|G-4 6FFF ....|--- .... ....
....|..|--- .... ....|--- .... ....|--- .... ....
....|..|C-2 2FD7 ....|A#4 6FF7 ....|--- .... ....
....|..|--- .... ....|G-4 6FFA ....|--- .... ....
 C-4|..|C-2 2ADF ....|F-4 6FFF ....|--- .... ....
....|..|--- .... ....|--- .... ....|--- .... ....
....|..|--- .... ....|G-4 6FF7 ....|--- .... ....
....|..|C-2 2FDA ....|F-4 6FFA ....|--- .... ....
....|..|--- .... ....|G-4 6FFF ....|--- .... ....
....|..|--- .... ....|--- .... ....|--- .... ....
....|..|C-2 2FD7 ....|F-4 6FF7 ....|--- .... ....
....|..|--- .... ....|G-4 6FFA ....|--- .... ....
 C-4|..|C-2 2ADF ....|A#4 6FFF ....|--- .... ....
....|..|--- .... ....|--- .... ....|--- .... ....
....|..|--- .... ....|G-4 6FF7 ....|--- .... ....
....|..|C-2 2FDA ....|A#4 6FFA ....|--- .... ....
....|..|--- .... ....|G-4 6FFF ....|--- .... ....
....|..|--- .... ....|--- .... ....|--- .... ....
....|..|C-2 2FD7 ....|A#4 6FF7 ....|--- .... ....
....|..|--- .... ....|G-4 6FFA ....|--- .... ....

[Pattern18]
 G-4|..|G-2 2ADF ....|G-3 6FFF ....|--- .... ....
....|..|--- .... ....|--- .... ....|--- .... ....
....|..|--- .... ....|G-4 6FF7 ....|--- .... ....
....|..|G-2 2FDA ....|G-3 6FFA ....|--- .... ....
....|..|R-- .... ....|A#3 6FFF ....|--- .... ....
....|..|--- .... ....|--- .... ....|--- .... ....
....|..|G-2 2FD7 ....|G-3 6FF7 ....|--- .... ....
....|..|R-- .... ....|A#3 6FFA ....|--- .... ....
 G-4|..|G-2 2ADF ....|G-4 6FFF ....|--- .... ....
....|..|--- .... ....|--- .... ....|--- .... ....
....|..|R-- .... ....|A#3 6FF7 ....|--- .... ....
....|..|G-2 2FDA ....|G-4 6FFA ....|--- .... ....
....|..|R-- .... ....|A#4 6FFF ....|--- .... ....
....|..|--- .... ....|--- .... ....|--- .... ....
....|..|G-2 2FD7 ....|G-4 6FF7 ....|--- .... ....
....|..|R-- .... ....|A#4 6FFA ....|--- .... ....
 G-4|..|G-2 2ADF ....|D-5 6FFF ....|--- .... ....
....|..|--- .... ....|--- .... ....|--- .... ....
....|..|R-- .... ....|A#4 6FF7 ....|--- .... ....
....|..|G-2 2FDA ....|D-5 6FFA ....|--- .... ....
....|..|R-- .... ....|A#4 6FFF ....|--- .... ....
....|..|--- .... ....|--- .... ....|--- .... ....
....|..|G-2 2FD7 ....|D-5 6FF7 ....|--- .... ....
....|..|R-- .... ....|A#4 6FFA ....|--- .... ....
 G-4|..|G-2 2ADF ....|G-4 6FFF ....|--- .... ....
....|..|--- .... ....|--- .... ....|--- .... ....
....|..|R-- .... ....|A#4 6FF7 ....|--- .... ....
....|..|G-2 2FDA ....|G-4 6FFA ....|--- .... ....
....|..|R-- .... ....|A#4 6FFF ....|--- .... ....
....|..|--- .... ....|--- .... ....|--- .... ....
....|..|G-2 2FD7 ....|G-4 6FF7 ....|--- .... ....
....|..|R-- .... ....|A#4 6FFA ....|--- .... ....
 F-4|..|F-2 2ADF ....|F-3 6FFF ....|--- .... ....
....|..|--- .... ....|--- .... ....|--- .... ....
....|..|R-- .... ....|A#4 6FF7 ....|--- .... ....
....|..|F-2 2FDA ....|F-3 6FFA ....|--- .... ....
....|..|R-- .... ....|F-4 6FFF ....|--- .... ....
....|..|--- .... ....|--- .... ....|--- .... ....
....|..|F-2 2FD7 ....|F-3 6FF7 ....|--- .... ....
....|..|R-- .... ....|F-4 6FFA ....|--- .... ....
 F-4|..|F-2 2ADF ....|A#4 6FFF ....|--- .... ....
....|..|--- .... ....|--- .... ....|--- .... ....
....|..|R-- .... ....|F-4 6FF7 ....|--- .... ....
....|..|F-2 2FDA ....|A#4 6FFA ....|--- .... ....
....|..|R-- .... ....|F-4 6FFF ....|--- .... ....
....|..|--- .... ....|--- .... ....|--- .... ....
....|..|F-2 2FD7 ....|A#4 6FF7 ....|--- .... ....
....|..|R-- .... ....|F-4 6FFA ....|--- .... ....
 F-4|..|F-2 2ADF ....|C-5 6FFF ....|--- .... ....
....|..|--- .... ....|--- .... ....|--- .... ....
....|..|R-- .... ....|F-4 6FF7 ....|--- .... ....
....|..|F-2 2FDA ....|C-5 6FFA ....|--- .... ....
....|..|R-- .... ....|A#4 6FFF ....|--- .... ....
....|..|--- .... ....|--- .... ....|--- .... ....
....|..|F-2 2FD7 ....|C-5 6FF7 ....|--- .... ....
....|..|R-- .... ....|A#4 6FFA ....|--- .... ....
 F-4|..|F-2 2ADF ....|A-4 6FFF ....|--- .... ....
....|..|--- .... ....|--- .... ....|--- .... ....
....|..|R-- .... ....|A#4 6FF7 ....|--- .... ....
....|..|F-2 2FDA ....|A-4 6FFA ....|--- .... ....
....|..|R-- .... ....|A#4 6FFF ....|--- .... ....
....|..|--- .... ....|--- .... ....|--- .... ....
....|..|F-2 2FD7 ....|A-4 6FF7 ....|--- .... ....
....|..|R-- .... ....|A#4 6FFA ....|--- .... ....

[Pattern19]
 E-4|..|E-2 2ADF ....|E-3 6FFF ....|--- .... ....
....|..|--- .... ....|--- .... ....|--- .... ....
....|..|R-- .... ....|A#4 6FF7 ....|--- .... ....
....|..|E-2 2FDA ....|E-3 6FFA ....|--- .... ....
....|..|R-- .... ....|E-4 6FFF ....|--- .... ....
....|..|--- .... ....|--- .... ....|--- .... ....
....|..|E-2 2FD7 ....|E-3 6FF7 ....|--- .... ....
....|..|R-- .... ....|E-4 6FFA ....|--- .... ....
 E-4|..|E-2 2ADF ....|G-4 6FFF ....|--- .... ....
....|..|--- .... ....|--- .... ....|--- .... ....
....|..|R-- .... ....|E-4 6FF7 ....|--- .... ....
....|..|E-2 2FDA ....|G-4 6FFA ....|--- .... ....
....|..|R-- .... ....|E-4 6FFF ....|--- .... ....
....|..|--- .... ....|--- .... ....|--- .... ....
....|..|E-2 2FD7 ....|G-4 6FF7 ....|--- .... ....
....|..|R-- .... ....|E-4 6FFA ....|--- .... ....
 E-4|..|E-2 2ADF ....|C-5 6FFF ....|C-6 1FEF ....
....|..|--- .... ....|--- .... ....|--- .... ....
....|..|R-- .... ....|E-4 6FF7 ....|--- .... ....
....|..|E-2 2FDA ....|C-5 6FFA ....|C-6 1FEA ....
....|..|--- .... ....|A#4 6FFF ....|A#5 1FEF ....
....|..|--- .... ....|--- .... ....|--- .... ....
....|..|E-2 2FD7 ....|C-5 6FF7 ....|C-6 1FE7 ....
....|..|--- .... ....|A#4 6FFA ....|A#5 1FEA ....
 E-4|..|E-2 2ADF ....|G-4 6FFF ....|G-5 1FEF ....
....|..|--- .... ....|--- .... ....|--- .... ....
....|..|--- .... ....|A#4 6FF7 ....|A#5 1FE7 ....
....|..|E-2 2FDA ....|G-4 6FFA ....|G-5 1FEA ....
....|..|--- .... ....|E-4 6FFF ....|E-5 1FEF ....
....|..|--- .... ....|--- .... ....|--- .... ....
....|..|E-2 2FD7 ....|G-4 6FF7 ....|G-5 1FE7 ....
....|..|--- .... ....|E-4 6FFA ....|E-5 1FEA ....
 D#4|..|D#2 2ADF ....|D#4 6FFF ....|R-- .... ....
....|..|--- .... ....|--- .... ....|--- .... ....
....|..|--- .... ....|E-4 6FF7 ....|E-5 1FE7 ....
....|..|D#2 2FDA ....|D#4 6FFA ....|R-- .... ....
....|..|--- .... ....|D#4 6FFF ....|--- .... ....
....|..|--- .... ....|--- .... ....|--- .... ....
....|..|D#2 2FD7 ....|D#4 6FF7 ....|R-- .... ....
....|..|--- .... ....|D#4 6FFA ....|--- .... ....
 D#4|..|D#2 2ADF ....|G-4 6FFF ....|G-5 1FEF ....
....|..|--- .... ....|--- .... ....|--- .... ....
....|..|--- .... ....|D#4 6FF7 ....|--- .... ....
....|..|D#2 2FDA ....|G-4 6FFA ....|G-5 1FEA ....
....|..|--- .... ....|A#4 6FFF ....|A#5 1FEF ....
....|..|--- .... ....|--- .... ....|--- .... ....
....|..|D#2 2FD7 ....|G-4 6FF7 ....|G-5 1FE7 ....
....|..|--- .... ....|A#4 6FFA ....|A#5 1FEA ....
 G-4|..|G-2 2ADF ....|G-3 6FFF ....|R-- .... ....
....|..|--- .... ....|--- .... ....|--- .... ....
....|..|--- .... ....|A#4 6FF7 ....|A#5 1FE7 ....
....|..|G-2 2FDA ....|G-3 6FFA ....|R-- .... ....
 G-4|..|G-2 2ADF ....|G-3 6FFF ....|--- .... ....
....|..|--- .... ....|--- .... ....|--- .... ....
....|..|G-2 2FD7 ....|G-3 6FF7 ....|R-- .... ....
....|..|G-2 2FDA ....|G-3 6FFA ....|--- .... ....
 G-4|..|G-2 2ADF ....|G-3 6FFF ....|--- .... ....
....|..|--- .... ....|--- .... ....|--- .... ....
....|..|G-2 2FD7 ....|G-3 6FF7 ....|--- .... ....
....|..|G-2 2FDA ....|G-3 6FFA ....|--- .... ....
 G-4|..|G-2 2ADF ....|G-3 6FFF ....|--- .... ....
....|..|--- .... ....|--- .... ....|--- .... ....
....|..|G-2 2FD7 ....|G-3 6FF7 ....|--- .... ....
....|..|G-2 2FDA ....|G-3 6FFA ....|--- .... ....

[Pattern20]
 G-4|..|G-2 2ADF ....|G-3 6FFF ....|--- .... ....
....|..|--- .... ....|--- .... ....|--- .... ....
....|..|G-2 2FD7 ....|G-3 6FF7 ....|--- .... ....
....|..|G-2 2FDA ....|G-3 6FFA ....|--- .... ....
....|..|--- .... ....|A#3 6FFF ....|--- .... ....
....|..|--- .... ....|--- .... ....|--- .... ....
....|..|G-2 2FD7 ....|G-3 6FF7 ....|--- .... ....
....|..|--- .... ....|A#3 6FFA ....|--- .... ....
 G-4|..|G-2 2ADF ....|G-4 6FFF ....|--- .... ....
....|..|--- .... ....|--- .... ....|--- .... ....
....|..|--- .... ....|A#3 6FF7 ....|--- .... ....
....|..|G-2 2FDA ....|G-4 6FFA ....|--- .... ....
....|..|--- .... ....|A#4 6FFF ....|--- .... ....
....|..|--- .... ....|--- .... ....|--- .... ....
....|..|G-2 2FD7 ....|G-4 6FF7 ....|--- .... ....
....|..|--- .... ....|A#4 6FFA ....|--- .... ....
 G-4|..|G-2 2ADF ....|D-5 6FFF ....|--- .... ....
....|..|--- .... ....|--- .... ....|--- .... ....
....|..|--- .... ....|A#4 6FF7 ....|--- .... ....
....|..|G-2 2FDA ....|D-5 6FFA ....|--- .... ....
....|..|--- .... ....|A#4 6FFF ....|--- .... ....
....|..|--- .... ....|--- .... ....|--- .... ....
....|..|G-2 2FD7 ....|D-5 6FF7 ....|--- .... ....
....|..|--- .... ....|A#4 6FFA ....|--- .... ....
 G-4|..|G-2 2ADF ....|G-4 6FFF ....|--- .... ....
....|..|--- .... ....|--- .... ....|--- .... ....
....|..|--- .... ....|A#4 6FF7 ....|--- .... ....
....|..|G-2 2FDA ....|G-4 6FFA ....|--- .... ....
....|..|--- .... ....|A#4 6FFF ....|--- .... ....
....|..|--- .... ....|--- .... ....|--- .... ....
....|..|G-2 2FD7 ....|G-4 6FF7 ....|--- .... ....
....|..|--- .... ....|A#4 6FFA ....|--- .... ....
 F-4|..|F-2 2ADF ....|F-3 6FFF ....|--- .... ....
....|..|--- .... ....|--- .... ....|--- .... ....
....|..|--- .... ....|A#4 6FF7 ....|--- .... ....
....|..|F-2 2FDA ....|F-3 6FFA ....|--- .... ....
....|..|--- .... ....|F-4 6FFF ....|--- .... ....
....|..|--- .... ....|--- .... ....|--- .... ....
....|..|F-2 2FD7 ....|F-3 6FF7 ....|--- .... ....
....|..|--- .... ....|F-4 6FFA ....|--- .... ....
 F-4|..|F-2 2ADF ....|A#4 6FFF ....|--- .... ....
....|..|--- .... ....|--- .... ....|--- .... ....
....|..|--- .... ....|F-4 6FF7 ....|--- .... ....
....|..|F-2 2FDA ....|A#4 6FFA ....|--- .... ....
....|..|--- .... ....|F-4 6FFF ....|--- .... ....
....|..|--- .... ....|--- .... ....|--- .... ....
....|..|F-2 2FD7 ....|A#4 6FF7 ....|--- .... ....
....|..|--- .... ....|F-4 6FFA ....|--- .... ....
 F-4|..|F-2 2ADF ....|C-5 6FFF ....|--- .... ....
....|..|--- .... ....|--- .... ....|--- .... ....
....|..|--- .... ....|F-4 6FF7 ....|--- .... ....
....|..|F-2 2FDA ....|C-5 6FFA ....|--- .... ....
....|..|--- .... ....|A#4 6FFF ....|--- .... ....
....|..|--- .... ....|--- .... ....|--- .... ....
....|..|F-2 2FD7 ....|C-5 6FF7 ....|--- .... ....
....|..|--- .... ....|A#4 6FFA ....|--- .... ....
 F-4|..|F-2 2ADF ....|A-4 6FFF ....|--- .... ....
....|..|--- .... ....|--- .... ....|--- .... ....
....|..|--- .... ....|A#4 6FF7 ....|--- .... ....
....|..|F-2 2FDA ....|A-4 6FFA ....|--- .... ....
....|..|--- .... ....|A#4 6FFF ....|--- .... ....
....|..|--- .... ....|--- .... ....|--- .... ....
....|..|F-2 2FD7 ....|A-4 6FF7 ....|--- .... ....
....|..|--- .... ....|A#4 6FFA ....|--- .... ....

[Pattern21]
 E-4|..|E-2 2ADF ....|A#4 6FFF ....|A#5 1FEF ....
....|..|--- .... ....|--- .... ....|--- .... ....
....|..|--- .... ....|A#4 6FF7 ....|--- .... ....
....|..|E-2 2FDA ....|A#4 6FFA ....|A#5 1FEA ....
....|..|--- .... ....|A#4 6FFF ....|A#5 1FEF ....
....|..|--- .... ....|--- .... ....|--- .... ....
....|..|E-2 2FD7 ....|A#4 6FF7 ....|A#5 1FE7 ....
....|..|--- .... ....|A#4 6FFA ....|A#5 1FEA ....
 E-4|..|E-2 2ADF ....|G-4 6FFF ....|G-5 1FEF ....
....|..|--- .... ....|--- .... ....|--- .... ....
....|..|--- .... ....|A#4 6FF7 ....|A#5 1FE7 ....
....|..|E-2 2FDA ....|G-4 6FFA ....|G-5 1FEA ....
....|..|--- .... ....|G-4 6FFF ....|G-5 1FEF ....
....|..|--- .... ....|--- .... ....|--- .... ....
....|..|E-2 2FD7 ....|G-4 6FF7 ....|G-5 1FE7 ....
....|..|--- .... ....|G-4 6FFA ....|G-5 1FEA ....
 E-4|..|E-2 2ADF ....|A#4 6FFF ....|R-- .... ....
....|..|--- .... ....|--- .... ....|--- .... ....
....|..|--- .... ....|G-4 6FF7 ....|G-5 1FE7 ....
....|..|E-2 2FDA ....|A#4 6FFA ....|R-- .... ....
....|..|--- .... ....|A#4 6FFF ....|--- .... ....
....|..|--- .... ....|--- .... ....|--- .... ....
....|..|E-2 2FD7 ....|A#4 6FF7 ....|R-- .... ....
....|..|--- .... ....|A#4 6FFA ....|--- .... ....
 E-4|..|E-2 2ADF ....|G-4 6FFF ....|--- .... ....
....|..|--- .... ....|--- .... ....|--- .... ....
....|..|--- .... ....|A#4 6FF7 ....|--- .... ....
....|..|E-2 2FDA ....|G-4 6FFA ....|--- .... ....
....|..|--- .... ....|G-4 6FFF ....|--- .... ....
....|..|--- .... ....|--- .... ....|--- .... ....
....|..|E-2 2FD7 ....|G-4 6FF7 ....|--- .... ....
....|..|--- .... ....|G-4 6FFA ....|--- .... ....
 D#4|..|D#2 2ADF ....|A#4 6FFF ....|A#5 1FEF ....
....|..|--- .... ....|--- .... ....|--- .... ....
....|..|--- .... ....|G-4 6FF7 ....|--- .... ....
....|..|D#2 2FDA ....|A#4 6FFA ....|A#5 1FEA ....
....|..|--- .... ....|A#4 6FFF ....|A#5 1FEF ....
....|..|--- .... ....|--- .... ....|--- .... ....
....|..|D#2 2FD7 ....|A#4 6FF7 ....|A#5 1FE7 ....
....|..|--- .... ....|A#4 6FFA ....|A#5 1FEA ....
....|..|--- .... ....|G-4 6FFF ....|G-5 1FEF ....
....|..|--- .... ....|--- .... ....|--- .... ....
....|..|--- .... ....|A#4 6FF7 ....|A#5 1FE7 ....
....|..|--- .... ....|G-4 6FFA ....|G-5 1FEA ....
....|..|--- .... ....|G-4 6FFF ....|G-5 1FEF ....
....|..|--- .... ....|--- .... ....|--- .... ....
....|..|--- .... ....|G-4 6FF7 ....|G-5 1FE7 ....
....|..|--- .... ....|G-4 6FFA ....|G-5 1FEA ....
 D-4|..|D-2 2ADF ....|A#4 6FFF ....|A#5 1FEF ....
....|..|--- .... ....|--- .... ....|--- .... ....
....|..|--- .... ....|G-4 6FF7 ....|G-5 1FE7 ....
....|..|D-2 2FDA ....|A#4 6FFA ....|A#5 1FEA ....
....|..|--- .... ....|A#4 6FFF ....|A#5 1FEF ....
....|..|--- .... ....|--- .... ....|--- .... ....
....|..|D-2 2FD7 ....|A#4 6FF7 ....|A#5 1FE7 ....
....|..|--- .... ....|A#4 6FFA ....|A#5 1FEA ....
....|..|--- .... ....|G-4 6FFF ....|G-5 1FEF ....
....|..|--- .... ....|--- .... ....|--- .... ....
....|..|--- .... ....|A#4 6FF7 ....|A#5 1FE7 ....
....|..|--- .... ....|G-4 6FFA ....|G-5 1FEA ....
....|..|--- .... ....|G-4 6FFF ....|G-5 1FEF ....
....|..|--- .... ....|--- .... ....|--- .... ....
....|..|--- .... ....|G-4 6FF7 ....|G-5 1FE7 ....
....|..|--- .... ....|G-4 6FFA ....|G-5 1FEA ....

[Pattern22]
 G-3|..|G-1 2ADF ....|G-3 6FFF ....|R-- .... ....
....|..|--- .... ....|--- .... ....|--- .... ....
....|..|--- .... ....|G-4 6FF7 ....|G-5 1FE7 ....
....|..|G-1 2FDA ....|G-3 6FFA ....|R-- .... ....
 D-4|..|D-2 2ADF ....|A#3 6FFF ....|--- .... ....
....|..|--- .... ....|--- .... ....|--- .... ....
....|..|G-1 2FD7 ....|G-3 6FF7 ....|R-- .... ....
....|..|D-2 2FDA ....|A#3 6FFA ....|--- .... ....
 G-4|..|G-2 2ADF ....|G-4 6FFF ....|--- .... ....
....|..|--- .... ....|--- .... ....|--- .... ....
....|..|D-2 2FD7 ....|A#3 6FF7 ....|--- .... ....
....|..|G-2 2FDA ....|G-4 6FFA ....|--- .... ....
 D-4|..|D-2 2ADF ....|A#4 6FFF ....|--- .... ....
....|..|--- .... ....|--- .... ....|--- .... ....
....|..|G-2 2FD7 ....|G-4 6FF7 ....|--- .... ....
....|..|D-2 2FDA ....|A#4 6FFA ....|--- .... ....
 A#3|..|A#2 2CDF ....|D-5 6FFF ....|--- .... ....
....|..|--- .... ....|--- .... ....|--- .... ....
....|..|D-2 2FD7 ....|A#4 6FF7 ....|--- .... ....
....|..|A#2 2FDA ....|D-5 6FFA ....|--- .... ....
 D-4|..|D-2 2ADF ....|A#4 6FFF ....|--- .... ....
....|..|--- .... ....|--- .... ....|--- .... ....
....|..|A#2 2FD7 ....|D-5 6FF7 ....|--- .... ....
....|..|D-2 2FDA ....|A#4 6FFA ....|--- .... ....
 G-4|..|G-2 2ADF ....|G-4 6FFF ....|--- .... ....
....|..|--- .... ....|--- .... ....|--- .... ....
....|..|D-2 2FD7 ....|A#4 6FF7 ....|--- .... ....
....|..|G-2 2FDA ....|G-4 6FFA ....|--- .... ....
 D-4|..|D-2 2ADF ....|A#4 6FFF ....|--- .... ....
....|..|--- .... ....|--- .... ....|--- .... ....
....|..|G-2 2FD7 ....|G-4 6FF7 ....|--- .... ....
....|..|D-2 2FDA ....|A#4 6FFA ....|--- .... ....
 F-3|..|F-1 2ADF ....|F-3 6FFF ....|--- .... ....
....|..|--- .... ....|--- .... ....|--- .... ....
....|..|D-2 2FD7 ....|A#4 6FF7 ....|--- .... ....
....|..|F-1 2FDA ....|F-3 6FFA ....|--- .... ....
 C-4|..|C-2 2ADF ....|F-4 6FFF ....|--- .... ....
....|..|--- .... ....|--- .... ....|--- .... ....
....|..|F-1 2FD7 ....|F-3 6FF7 ....|--- .... ....
....|..|C-2 2FDA ....|F-4 6FFA ....|--- .... ....
 F-4|..|F-2 2ADF ....|A#4 6FFF ....|--- .... ....
....|..|--- .... ....|--- .... ....|--- .... ....
....|..|C-2 2FD7 ....|F-4 6FF7 ....|--- .... ....
....|..|F-2 2FDA ....|A#4 6FFA ....|--- .... ....
 C-4|..|C-2 2ADF ....|F-4 6FFF ....|--- .... ....
....|..|--- .... ....|--- .... ....|--- .... ....
....|..|F-2 2FD7 ....|A#4 6FF7 ....|--- .... ....
....|..|C-2 2FDA ....|F-4 6FFA ....|--- .... ....
 A-3|..|A-2 2CDF ....|C-5 6FFF ....|--- .... ....
....|..|--- .... ....|--- .... ....|--- .... ....
....|..|C-2 2FD7 ....|F-4 6FF7 ....|--- .... ....
....|..|A-2 2FDA ....|C-5 6FFA ....|--- .... ....
 C-4|..|C-2 2ADF ....|A#4 6FFF ....|--- .... ....
....|..|--- .... ....|--- .... ....|--- .... ....
....|..|A-2 2FD7 ....|C-5 6FF7 ....|--- .... ....
....|..|C-2 2FDA ....|A#4 6FFA ....|--- .... ....
 F-4|..|F-2 2ADF ....|A-4 6FFF ....|--- .... ....
....|..|--- .... ....|--- .... ....|--- .... ....
....|..|C-2 2FD7 ....|A#4 6FF7 ....|--- .... ....
....|..|F-2 2FDA ....|A-4 6FFA ....|--- .... ....
 C-4|..|C-2 2ADF ....|A#4 6FFF ....|--- .... ....
....|..|--- .... ....|--- .... ....|--- .... ....
....|..|F-2 2FD7 ....|A-4 6FF7 ....|--- .... ....
....|..|C-2 2FDA ....|A#4 6FFA ....|--- .... ....

[Pattern23]
 E-3|..|E-1 2ADF ....|E-3 6FFF ....|--- .... ....
....|..|--- .... ....|--- .... ....|--- .... ....
....|..|C-2 2FD7 ....|A#4 6FF7 ....|--- .... ....
....|..|E-1 2FDA ....|E-3 6FFA ....|--- .... ....
 C-4|..|C-2 2ADF ....|E-4 6FFF ....|--- .... ....
....|..|--- .... ....|--- .... ....|--- .... ....
....|..|E-1 2FD7 ....|E-3 6FF7 ....|--- .... ....
....|..|C-2 2FDA ....|E-4 6FFA ....|--- .... ....
 E-4|..|E-2 2ADF ....|G-4 6FFF ....|--- .... ....
....|..|--- .... ....|--- .... ....|--- .... ....
....|..|C-2 2FD7 ....|E-4 6FF7 ....|--- .... ....
....|..|E-2 2FDA ....|G-4 6FFA ....|--- .... ....
 C-4|..|C-2 2ADF ....|E-4 6FFF ....|--- .... ....
....|..|--- .... ....|--- .... ....|--- .... ....
....|..|E-2 2FD7 ....|G-4 6FF7 ....|--- .... ....
....|..|C-2 2FDA ....|E-4 6FFA ....|--- .... ....
 G-4|..|G-2 2ADF ....|C-5 6FFF ....|C-6 1FEF ....
....|..|--- .... ....|--- .... ....|--- .... ....
....|..|C-2 2FD7 ....|E-4 6FF7 ....|--- .... ....
....|..|G-2 2FDA ....|C-5 6FFA ....|C-6 1FEA ....
 C-4|..|C-2 2ADF ....|A#4 6FFF ....|A#5 1FEF ....
....|..|--- .... ....|--- .... ....|--- .... ....
....|..|G-2 2FD7 ....|C-5 6FF7 ....|C-6 1FE7 ....
....|..|C-2 2FDA ....|A#4 6FFA ....|A#5 1FEA ....
 E-4|..|E-2 2ADF ....|G-4 6FFF ....|G-5 1FEF ....
....|..|--- .... ....|--- .... ....|--- .... ....
....|..|C-2 2FD7 ....|A#4 6FF7 ....|A#5 1FE7 ....
....|..|E-2 2FDA ....|G-4 6FFA ....|G-5 1FEA ....
 C-4|..|C-2 2ADF ....|E-4 6FFF ....|E-5 1FEF ....
....|..|--- .... ....|--- .... ....|--- .... ....
....|..|E-2 2FD7 ....|G-4 6FF7 ....|G-5 1FE7 ....
....|..|C-2 2FDA ....|E-4 6FFA ....|E-5 1FEA ....
 D#3|..|D#1 2ADF ....|D#4 6FFF ....|R-- .... ....
....|..|--- .... ....|--- .... ....|--- .... ....
....|..|C-2 2FD7 ....|E-4 6FF7 ....|E-5 1FE7 ....
....|..|D#1 2FDA ....|D#4 6FFA ....|R-- .... ....
 A#3|..|A#1 2ADF ....|D#4 6FFF ....|--- .... ....
....|..|--- .... ....|--- .... ....|--- .... ....
....|..|D#1 2FD7 ....|D#4 6FF7 ....|R-- .... ....
....|..|A#1 2FDA ....|D#4 6FFA ....|--- .... ....
 D#4|..|D#2 2ADF ....|G-4 6FFF ....|G-5 1FEF ....
....|..|--- .... ....|--- .... ....|--- .... ....
....|..|A#1 2FD7 ....|D#4 6FF7 ....|--- .... ....
....|..|D#2 2FDA ....|G-4 6FFA ....|G-5 1FEA ....
 A#3|..|A#1 2ADF ....|A#4 6FFF ....|A#5 1FEF ....
....|..|--- .... ....|--- .... ....|--- .... ....
....|..|D#2 2FD7 ....|G-4 6FF7 ....|G-5 1FE7 ....
....|..|A#1 2FDA ....|A#4 6FFA ....|A#5 1FEA ....
 G-4|..|G-2 2ADF ....|G-3 6FFF ....|R-- .... ....
....|..|--- .... ....|--- .... ....|--- .... ....
....|..|A#1 2FD7 ....|A#4 6FF7 ....|A#5 1FE7 ....
....|..|G-2 2FDA ....|G-3 6FFA ....|R-- .... ....
 G-4|..|G-2 2ADF ....|G-3 6FFF ....|--- .... ....
....|..|--- .... ....|--- .... ....|--- .... ....
....|..|G-2 2FD7 ....|G-3 6FF7 ....|R-- .... ....
....|..|G-2 2FDA ....|G-3 6FFA ....|--- .... ....
 G-4|..|G-2 2ADF ....|G-3 6FFF ....|--- .... ....
....|..|--- .... ....|--- .... ....|--- .... ....
....|..|G-2 2FD7 ....|G-3 6FF7 ....|--- .... ....
....|..|G-2 2FDA ....|G-3 6FFA ....|--- .... ....
 G-4|..|G-2 2ADF ....|G-3 6FFF ....|--- .... ....
....|..|--- .... ....|--- .... ....|--- .... ....
....|..|G-2 2FD7 ....|G-3 6FF7 ....|--- .... ....
....|..|G-2 2FDA ....|G-3 6FFA ....|--- .... ....

[Pattern24]
 G-3|..|G-1 2ADF ....|G-3 6FFF ....|--- .... ....
....|..|--- .... ....|--- .... ....|--- .... ....
....|..|G-2 2FD7 ....|G-3 6FF7 ....|--- .... ....
....|..|G-1 2FDA ....|G-3 6FFA ....|--- .... ....
 D-4|..|D-2 2ADF ....|A#3 6FFF ....|--- .... ....
....|..|--- .... ....|--- .... ....|--- .... ....
....|..|G-1 2FD7 ....|G-3 6FF7 ....|--- .... ....
....|..|D-2 2FDA ....|A#3 6FFA ....|--- .... ....
 G-4|..|G-2 2ADF ....|G-4 6FFF ....|--- .... ....
....|..|--- .... ....|--- .... ....|--- .... ....
....|..|D-2 2FD7 ....|A#3 6FF7 ....|--- .... ....
....|..|G-2 2FDA ....|G-4 6FFA ....|--- .... ....
 D-4|..|D-2 2ADF ....|A#4 6FFF ....|--- .... ....
....|..|--- .... ....|--- .... ....|--- .... ....
....|..|G-2 2FD7 ....|G-4 6FF7 ....|--- .... ....
....|..|D-2 2FDA ....|A#4 6FFA ....|--- .... ....
 A#3|..|A#2 2CDF ....|D-5 6FFF ....|--- .... ....
....|..|--- .... ....|--- .... ....|--- .... ....
....|..|D-2 2FD7 ....|A#4 6FF7 ....|--- .... ....
....|..|A#2 2FDA ....|D-5 6FFA ....|--- .... ....
 D-4|..|D-2 2ADF ....|A#4 6FFF ....|--- .... ....
....|..|--- .... ....|--- .... ....|--- .... ....
....|..|A#2 2FD7 ....|D-5 6FF7 ....|--- .... ....
....|..|D-2 2FDA ....|A#4 6FFA ....|--- .... ....
 G-4|..|G-2 2ADF ....|G-4 6FFF ....|--- .... ....
....|..|--- .... ....|--- .... ....|--- .... ....
....|..|D-2 2FD7 ....|A#4 6FF7 ....|--- .... ....
....|..|G-2 2FDA ....|G-4 6FFA ....|--- .... ....
 D-4|..|D-2 2ADF ....|A#4 6FFF ....|--- .... ....
....|..|--- .... ....|--- .... ....|--- .... ....
....|..|G-2 2FD7 ....|G-4 6FF7 ....|--- .... ....
....|..|D-2 2FDA ....|A#4 6FFA ....|--- .... ....
 F-3|..|F-1 2ADF ....|F-3 6FFF ....|--- .... ....
....|..|--- .... ....|--- .... ....|--- .... ....
....|..|D-2 2FD7 ....|A#4 6FF7 ....|--- .... ....
....|..|F-1 2FDA ....|F-3 6FFA ....|--- .... ....
 C-4|..|C-2 2ADF ....|F-4 6FFF ....|--- .... ....
....|..|--- .... ....|--- .... ....|--- .... ....
....|..|F-1 2FD7 ....|F-3 6FF7 ....|--- .... ....
....|..|C-2 2FDA ....|F-4 6FFA ....|--- .... ....
 F-4|..|F-2 2ADF ....|A#4 6FFF ....|--- .... ....
....|..|--- .... ....|--- .... ....|--- .... ....
....|..|C-2 2FD7 ....|F-4 6FF7 ....|--- .... ....
....|..|F-2 2FDA ....|A#4 6FFA ....|--- .... ....
 C-4|..|C-2 2ADF ....|F-4 6FFF ....|--- .... ....
....|..|--- .... ....|--- .... ....|--- .... ....
....|..|F-2 2FD7 ....|A#4 6FF7 ....|--- .... ....
....|..|C-2 2FDA ....|F-4 6FFA ....|--- .... ....
 A-3|..|A-2 2CDF ....|C-5 6FFF ....|--- .... ....
....|..|--- .... ....|--- .... ....|--- .... ....
....|..|C-2 2FD7 ....|F-4 6FF7 ....|--- .... ....
....|..|A-2 2FDA ....|C-5 6FFA ....|--- .... ....
 C-4|..|C-2 2ADF ....|A#4 6FFF ....|--- .... ....
....|..|--- .... ....|--- .... ....|--- .... ....
....|..|A-2 2FD7 ....|C-5 6FF7 ....|--- .... ....
....|..|C-2 2FDA ....|A#4 6FFA ....|--- .... ....
 F-4|..|F-2 2ADF ....|A-4 6FFF ....|--- .... ....
....|..|--- .... ....|--- .... ....|--- .... ....
....|..|C-2 2FD7 ....|A#4 6FF7 ....|--- .... ....
....|..|F-2 2FDA ....|A-4 6FFA ....|--- .... ....
 C-4|..|C-2 2ADF ....|A#4 6FFF ....|--- .... ....
....|..|--- .... ....|--- .... ....|--- .... ....
....|..|F-2 2FD7 ....|A-4 6FF7 ....|--- .... ....
....|..|C-2 2FDA ....|A#4 6FFA ....|--- .... ....

[Pattern25]
 E-3|..|E-1 2ADF ....|A#4 6FFF ....|A#5 1FEF ....
....|..|--- .... ....|--- .... ....|--- .... ....
....|..|C-2 2FD7 ....|A#4 6FF7 ....|--- .... ....
....|..|E-1 2FDA ....|A#4 6FFA ....|A#5 1FEA ....
 C-4|..|C-2 2ADF ....|A#4 6FFF ....|A#5 1FEF ....
....|..|--- .... ....|--- .... ....|--- .... ....
....|..|E-1 2FD7 ....|A#4 6FF7 ....|A#5 1FE7 ....
....|..|C-2 2FDA ....|A#4 6FFA ....|A#5 1FEA ....
 E-4|..|E-2 2ADF ....|G-4 6FFF ....|G-5 1FEF ....
....|..|--- .... ....|--- .... ....|--- .... ....
....|..|C-2 2FD7 ....|A#4 6FF7 ....|A#5 1FE7 ....
....|..|E-2 2FDA ....|G-4 6FFA ....|G-5 1FEA ....
 C-4|..|C-2 2ADF ....|G-4 6FFF ....|G-5 1FEF ....
....|..|--- .... ....|--- .... ....|--- .... ....
....|..|E-2 2FD7 ....|G-4 6FF7 ....|G-5 1FE7 ....
....|..|C-2 2FDA ....|G-4 6FFA ....|G-5 1FEA ....
 G-4|..|G-2 2ADF ....|A#4 6FFF ....|R-- .... ....
....|..|--- .... ....|--- .... ....|--- .... ....
....|..|C-2 2FD7 ....|G-4 6FF7 ....|G-5 1FE7 ....
....|..|G-2 2FDA ....|A#4 6FFA ....|R-- .... ....
 C-4|..|C-2 2ADF ....|A#4 6FFF ....|--- .... ....
....|..|--- .... ....|--- .... ....|--- .... ....
....|..|G-2 2FD7 ....|A#4 6FF7 ....|R-- .... ....
....|..|C-2 2FDA ....|A#4 6FFA ....|--- .... ....
 E-4|..|E-2 2ADF ....|G-4 6FFF ....|--- .... ....
....|..|--- .... ....|--- .... ....|--- .... ....
....|..|C-2 2FD7 ....|A#4 6FF7 ....|--- .... ....
....|..|E-2 2FDA ....|G-4 6FFA ....|--- .... ....
 C-4|..|C-2 2ADF ....|G-4 6FFF ....|--- .... ....
....|..|--- .... ....|--- .... ....|--- .... ....
....|..|E-2 2FD7 ....|G-4 6FF7 ....|--- .... ....
....|..|C-2 2FDA ....|G-4 6FFA ....|--- .... ....
 D#3|..|D#1 2ADF ....|A#4 6FFF ....|A#5 1FEF ....
....|..|--- .... ....|--- .... ....|--- .... ....
....|..|C-2 2FD7 ....|G-4 6FF7 ....|--- .... ....
....|..|D#1 2FDA ....|A#4 6FFA ....|A#5 1FEA ....
 A#3|..|A#1 2ADF ....|A#4 6FFF ....|A#5 1FEF ....
....|..|--- .... ....|--- .... ....|--- .... ....
....|..|D#1 2FD7 ....|A#4 6FF7 ....|A#5 1FE7 ....
....|..|A#1 2FDA ....|A#4 6FFA ....|A#5 1FEA ....
 D#4|..|D#2 2ADF ....|G-4 6FFF ....|G-5 1FEF ....
....|..|--- .... ....|--- .... ....|--- .... ....
....|..|A#1 2FD7 ....|A#4 6FF7 ....|A#5 1FE7 ....
....|..|D#2 2FDA ....|G-4 6FFA ....|G-5 1FEA ....
 A#3|..|A#1 2ADF ....|G-4 6FFF ....|G-5 1FEF ....
....|..|--- .... ....|--- .... ....|--- .... ....
....|..|D#2 2FD7 ....|G-4 6FF7 ....|G-5 1FE7 ....
....|..|A#1 2FDA ....|G-4 6FFA ....|G-5 1FEA ....
 D-3|..|D-1 2ADF ....|A#4 6FFF ....|A#5 1FEF ....
....|..|--- .... ....|--- .... ....|--- .... ....
....|..|A#1 2FD7 ....|G-4 6FF7 ....|G-5 1FE7 ....
....|..|D-1 2FDA ....|A#4 6FFA ....|A#5 1FEA ....
 A-3|..|A-1 2ADF ....|A#4 6FFF ....|A#5 1FEF ....
....|..|--- .... ....|--- .... ....|--- .... ....
....|..|D-1 2FD7 ....|A#4 6FF7 ....|A#5 1FE7 ....
....|..|A-1 2FDA ....|A#4 6FFA ....|A#5 1FEA ....
 D-4|..|D-2 2ADF ....|G-4 6FFF ....|G-5 1FEF ....
....|..|--- .... ....|--- .... ....|--- .... ....
....|..|A-1 2FD7 ....|A#4 6FF7 ....|A#5 1FE7 ....
....|..|D-2 2FDA ....|G-4 6FFA ....|G-5 1FEA ....
 A-3|..|A-1 2ADF ....|G-4 6FFF ....|G-5 1FEF ....
....|..|--- .... ....|--- .... ....|--- .... ....
....|..|D-2 2FD7 ....|G-4 6FF7 ....|G-5 1FE7 ....
....|..|A-1 2FDA ....|G-4 6FFA ....|G-5 1FEA ....

[Pattern26]
 G-3|..|G-1 2ADF ....|F-4 6FFF ....|R-- .... ....
....|..|--- .... ....|--- .... ....|--- .... ....
....|..|A-1 2FD7 ....|G-4 6FF7 ....|G-5 1FE7 ....
....|..|G-1 2FDA ....|F-4 6FFA ....|R-- .... ....
 D-4|..|D-2 2ADF ....|G-4 6FFF ....|--- .... ....
....|..|--- .... ....|--- .... ....|--- .... ....
....|..|G-1 2FD7 ....|F-4 6FF7 ....|R-- .... ....
....|..|D-2 2FDA ....|G-4 6FFA ....|--- .... ....
 G-4|..|G-2 2ADF ....|A#4 6FFF ....|--- .... ....
....|..|--- .... ....|--- .... ....|--- .... ....
....|..|D-2 2FD7 ....|G-4 6FF7 ....|--- .... ....
....|..|G-2 2FDA ....|A#4 6FFA ....|--- .... ....
 D-4|..|D-2 2ADF ....|G-4 6FFF ....|--- .... ....
....|..|--- .... ....|--- .... ....|--- .... ....
....|..|G-2 2FD7 ....|A#4 6FF7 ....|--- .... ....
....|..|D-2 2FDA ....|G-4 6FFA ....|--- .... ....
 A#3|..|A#2 2CDF ....|D-5 6FFF ....|--- .... ....
....|..|--- .... ....|--- .... ....|--- .... ....
....|..|D-2 2FD7 ....|G-4 6FF7 ....|--- .... ....
....|..|A#2 2FDA ....|D-5 6FFA ....|--- .... ....
 D-4|..|D-2 2ADF ....|C-5 6FFF ....|--- .... ....
....|..|--- .... ....|--- .... ....|--- .... ....
....|..|A#2 2FD7 ....|D-5 6FF7 ....|--- .... ....
....|..|D-2 2FDA ....|C-5 6FFA ....|--- .... ....
 G-4|..|G-2 2ADF ....|A#4 6FFF ....|--- .... ....
....|..|--- .... ....|--- .... ....|--- .... ....
....|..|D-2 2FD7 ....|C-5 6FF7 ....|--- .... ....
....|..|G-2 2FDA ....|A#4 6FFA ....|--- .... ....
 D-4|..|D-2 2ADF ....|G-4 6FFF ....|--- .... ....
....|..|--- .... ....|--- .... ....|--- .... ....
....|..|G-2 2FD7 ....|A#4 6FF7 ....|--- .... ....
....|..|D-2 2FDA ....|G-4 6FFA ....|--- .... ....
 F-3|..|F-1 2ADF ....|F-4 6FFF ....|--- .... ....
....|..|--- .... ....|--- .... ....|--- .... ....
....|..|D-2 2FD7 ....|G-4 6FF7 ....|--- .... ....
....|..|F-1 2FDA ....|F-4 6FFA ....|--- .... ....
 C-4|..|C-2 2ADF ....|G-4 6FFF ....|--- .... ....
....|..|--- .... ....|--- .... ....|--- .... ....
....|..|F-1 2FD7 ....|F-4 6FF7 ....|--- .... ....
....|..|C-2 2FDA ....|G-4 6FFA ....|--- .... ....
 F-4|..|F-2 2ADF ....|A#4 6FFF ....|--- .... ....
....|..|--- .... ....|--- .... ....|--- .... ....
....|..|C-2 2FD7 ....|G-4 6FF7 ....|--- .... ....
....|..|F-2 2FDA ....|A#4 6FFA ....|--- .... ....
 C-4|..|C-2 2ADF ....|G-4 6FFF ....|--- .... ....
....|..|--- .... ....|--- .... ....|--- .... ....
....|..|F-2 2FD7 ....|A#4 6FF7 ....|--- .... ....
....|..|C-2 2FDA ....|G-4 6FFA ....|--- .... ....
 A-3|..|A-2 2CDF ....|D-5 6FFF ....|--- .... ....
....|..|--- .... ....|--- .... ....|--- .... ....
....|..|C-2 2FD7 ....|G-4 6FF7 ....|--- .... ....
....|..|A-2 2FDA ....|D-5 6FFA ....|--- .... ....
 C-4|..|C-2 2ADF ....|C-5 6FFF ....|--- .... ....
....|..|--- .... ....|--- .... ....|--- .... ....
....|..|A-2 2FD7 ....|D-5 6FF7 ....|--- .... ....
....|..|C-2 2FDA ....|C-5 6FFA ....|--- .... ....
 F-4|..|F-2 2ADF ....|A#4 6FFF ....|--- .... ....
....|..|--- .... ....|--- .... ....|--- .... ....
....|..|C-2 2FD7 ....|C-5 6FF7 ....|--- .... ....
....|..|F-2 2FDA ....|A#4 6FFA ....|--- .... ....
 C-4|..|C-2 2ADF ....|G-4 6FFF ....|--- .... ....
....|..|--- .... ....|--- .... ....|--- .... ....
....|..|F-2 2FD7 ....|A#4 6FF7 ....|--- .... ....
....|..|C-2 2FDA ....|G-4 6FFA ....|--- .... ....

[Pattern27]
 E-3|..|E-1 2ADF ....|A#4 6FFF ....|--- .... ....
....|..|--- .... ....|--- .... ....|--- .... ....
....|..|C-2 2FD7 ....|G-4 6FF7 ....|--- .... ....
....|..|E-1 2FDA ....|A#4 6FFA ....|--- .... ....
 C-4|..|C-2 2ADF ....|A#4 6FFF ....|--- .... ....
....|..|--- .... ....|--- .... ....|--- .... ....
....|..|E-1 2FD7 ....|A#4 6FF7 ....|--- .... ....
....|..|C-2 2FDA ....|A#4 6FFA ....|--- .... ....
 E-4|..|E-2 2ADF ....|G-4 6FFF ....|--- .... ....
....|..|--- .... ....|--- .... ....|--- .... ....
....|..|C-2 2FD7 ....|A#4 6FF7 ....|--- .... ....
....|..|E-2 2FDA ....|G-4 6FFA ....|--- .... ....
 C-4|..|C-2 2ADF ....|G-4 6FFF ....|--- .... ....
....|..|--- .... ....|--- .... ....|--- .... ....
....|..|E-2 2FD7 ....|G-4 6FF7 ....|--- .... ....
....|..|C-2 2FDA ....|G-4 6FFA ....|--- .... ....
 G-4|..|G-2 2ADF ....|A#3 6FFF ....|--- .... ....
....|..|--- .... ....|--- .... ....|--- .... ....
....|..|C-2 2FD7 ....|G-4 6FF7 ....|--- .... ....
....|..|G-2 2FDA ....|A#3 6FFA ....|--- .... ....
 C-4|..|C-2 2ADF ....|A#3 6FFF ....|--- .... ....
....|..|--- .... ....|--- .... ....|--- .... ....
....|..|G-2 2FD7 ....|A#3 6FF7 ....|--- .... ....
....|..|C-2 2FDA ....|A#3 6FFA ....|--- .... ....
 E-4|..|E-2 2ADF ....|G-3 6FFF ....|--- .... ....
....|..|--- .... ....|--- .... ....|--- .... ....
....|..|C-2 2FD7 ....|A#3 6FF7 ....|--- .... ....
....|..|E-2 2FDA ....|G-3 6FFA ....|--- .... ....
 C-4|..|C-2 2ADF ....|G-3 6FFF ....|--- .... ....
....|..|--- .... ....|--- .... ....|--- .... ....
....|..|E-2 2FD7 ....|G-3 6FF7 ....|--- .... ....
....|..|C-2 2FDA ....|G-3 6FFA ....|--- .... ....
 D#3|..|D#1 2ADF ....|A#4 6FFF ....|--- .... ....
....|..|--- .... ....|--- .... ....|--- .... ....
....|..|C-2 2FD7 ....|G-3 6FF7 ....|--- .... ....
....|..|D#1 2FDA ....|A#4 6FFA ....|--- .... ....
 A#3|..|A#1 2ADF ....|A#4 6FFF ....|--- .... ....
....|..|--- .... ....|--- .... ....|--- .... ....
....|..|D#1 2FD7 ....|A#4 6FF7 ....|--- .... ....
....|..|A#1 2FDA ....|A#4 6FFA ....|--- .... ....
 D#4|..|D#2 2ADF ....|G-4 6FFF ....|--- .... ....
....|..|--- .... ....|--- .... ....|--- .... ....
....|..|A#1 2FD7 ....|A#4 6FF7 ....|--- .... ....
....|..|D#2 2FDA ....|G-4 6FFA ....|--- .... ....
 A#3|..|A#1 2ADF ....|G-4 6FFF ....|--- .... ....
....|..|--- .... ....|--- .... ....|--- .... ....
....|..|D#2 2FD7 ....|G-4 6FF7 ....|--- .... ....
....|..|A#1 2FDA ....|G-4 6FFA ....|--- .... ....
 D-3|..|D-1 2ADF ....|A#4 6FFF ....|--- .... ....
....|..|--- .... ....|--- .... ....|--- .... ....
....|..|A#1 2FD7 ....|G-4 6FF7 ....|--- .... ....
....|..|D-1 2FDA ....|A#4 6FFA ....|--- .... ....
 A-3|..|A-1 2ADF ....|A#4 6FFF ....|--- .... ....
....|..|--- .... ....|--- .... ....|--- .... ....
....|..|D-1 2FD7 ....|A#4 6FF7 ....|--- .... ....
....|..|A-1 2FDA ....|A#4 6FFA ....|--- .... ....
 D-4|..|D-2 2ADF ....|G-4 6FFF ....|--- .... ....
....|..|--- .... ....|--- .... ....|--- .... ....
....|..|A-1 2FD7 ....|A#4 6FF7 ....|--- .... ....
....|..|D-2 2FDA ....|G-4 6FFA ....|--- .... ....
 A-3|..|A-1 2ADF ....|G-4 6FFF ....|--- .... ....
....|..|--- .... ....|--- .... ....|--- .... ....
....|..|D-2 2FD7 ....|G-4 6FF7 ....|--- .... ....
....|..|A-1 2FDA ....|G-4 6FFA ....|--- .... ....

[Pattern28]
 G-3|..|G-1 2ADF ....|F-3 6FFF ....|--- .... ....
....|..|--- .... ....|--- .... ....|--- .... ....
....|..|A-1 2FD7 ....|G-4 6FF7 ....|--- .... ....
....|..|G-1 2FDA ....|F-3 6FFA ....|--- .... ....
 D-4|..|D-2 2ADF ....|G-3 6FFF ....|--- .... ....
....|..|--- .... ....|--- .... ....|--- .... ....
....|..|G-1 2FD7 ....|F-3 6FF7 ....|--- .... ....
....|..|D-2 2FDA ....|G-3 6FFA ....|--- .... ....
 G-4|..|G-2 2ADF ....|A#3 6FFF ....|--- .... ....
....|..|--- .... ....|--- .... ....|--- .... ....
....|..|D-2 2FD7 ....|G-3 6FF7 ....|--- .... ....
....|..|G-2 2FDA ....|A#3 6FFA ....|--- .... ....
 D-4|..|D-2 2ADF ....|G-3 6FFF ....|--- .... ....
....|..|--- .... ....|--- .... ....|--- .... ....
....|..|G-2 2FD7 ....|A#3 6FF7 ....|--- .... ....
....|..|D-2 2FDA ....|G-3 6FFA ....|--- .... ....
 A#3|..|A#2 2CDF ....|D-4 6FFF ....|--- .... ....
....|..|--- .... ....|--- .... ....|--- .... ....
....|..|D-2 2FD7 ....|G-3 6FF7 ....|--- .... ....
....|..|A#2 2FDA ....|D-4 6FFA ....|--- .... ....
 D-4|..|D-2 2ADF ....|C-4 6FFF ....|--- .... ....
....|..|--- .... ....|--- .... ....|--- .... ....
....|..|A#2 2FD7 ....|D-4 6FF7 ....|--- .... ....
....|..|D-2 2FDA ....|C-4 6FFA ....|--- .... ....
 G-4|..|G-2 2ADF ....|A#3 6FFF ....|--- .... ....
....|..|--- .... ....|--- .... ....|--- .... ....
....|..|D-2 2FD7 ....|C-4 6FF7 ....|--- .... ....
....|..|G-2 2FDA ....|A#3 6FFA ....|--- .... ....
 D-4|..|D-2 2ADF ....|G-3 6FFF ....|--- .... ....
....|..|--- .... ....|--- .... ....|--- .... ....
....|..|G-2 2FD7 ....|A#3 6FF7 ....|--- .... ....
....|..|D-2 2FDA ....|G-3 6FFA ....|--- .... ....
 F-3|..|F-1 2ADF ....|F-3 6FFF ....|--- .... ....
....|..|--- .... ....|--- .... ....|--- .... ....
....|..|D-2 2FD7 ....|G-3 6FF7 ....|--- .... ....
....|..|F-1 2FDA ....|F-3 6FFA ....|--- .... ....
 C-4|..|C-2 2ADF ....|G-3 6FFF ....|--- .... ....
....|..|--- .... ....|--- .... ....|--- .... ....
....|..|F-1 2FD7 ....|F-3 6FF7 ....|--- .... ....
....|..|C-2 2FDA ....|G-3 6FFA ....|--- .... ....
 F-4|..|F-2 2ADF ....|A#3 6FFF ....|--- .... ....
....|..|--- .... ....|--- .... ....|--- .... ....
....|..|C-2 2FD7 ....|G-3 6FF7 ....|--- .... ....
....|..|F-2 2FDA ....|A#3 6FFA ....|--- .... ....
 C-4|..|C-2 2ADF ....|G-3 6FFF ....|--- .... ....
....|..|--- .... ....|--- .... ....|--- .... ....
....|..|F-2 2FD7 ....|A#3 6FF7 ....|--- .... ....
....|..|C-2 2FDA ....|G-3 6FFA ....|--- .... ....
 A-3|..|A-2 2CDF ....|D-4 6FFF ....|--- .... ....
....|..|--- .... ....|--- .... ....|--- .... ....
....|..|C-2 2FD7 ....|G-3 6FF7 ....|--- .... ....
....|..|A-2 2FDA ....|D-4 6FFA ....|--- .... ....
 C-4|..|C-2 2ADF ....|C-4 6FFF ....|--- .... ....
....|..|--- .... ....|--- .... ....|--- .... ....
....|..|A-2 2FD7 ....|D-4 6FF7 ....|--- .... ....
....|..|C-2 2FDA ....|C-4 6FFA ....|--- .... ....
 F-4|..|F-2 2ADF ....|A#3 6FFF ....|--- .... ....
....|..|--- .... ....|--- .... ....|--- .... ....
....|..|C-2 2FD7 ....|C-4 6FF7 ....|--- .... ....
....|..|F-2 2FDA ....|A#3 6FFA ....|--- .... ....
 C-4|..|C-2 2ADF ....|G-3 6FFF ....|--- .... ....
....|..|--- .... ....|--- .... ....|--- .... ....
....|..|F-2 2FD7 ....|A#3 6FF7 ....|--- .... ....
....|..|C-2 2FDA ....|G-3 6FFA ....|--- .... ....

[Pattern29]
 E-3|..|E-1 2ADF ....|F-4 6FFF ....|--- .... ....
....|..|--- .... ....|--- .... ....|--- .... ....
....|..|C-2 2FD7 ....|G-3 6FF7 ....|--- .... ....
....|..|E-1 2FDA ....|F-4 6FFA ....|--- .... ....
 C-4|..|C-2 2ADF ....|G-4 6FFF ....|--- .... ....
....|..|--- .... ....|--- .... ....|--- .... ....
....|..|E-1 2FD7 ....|F-4 6FF7 ....|--- .... ....
....|..|C-2 2FDA ....|G-4 6FFA ....|--- .... ....
 E-4|..|E-2 2ADF ....|A#4 6FFF ....|--- .... ....
....|..|--- .... ....|--- .... ....|--- .... ....
....|..|C-2 2FD7 ....|G-4 6FF7 ....|--- .... ....
....|..|E-2 2FDA ....|A#4 6FFA ....|--- .... ....
 C-4|..|C-2 2ADF ....|G-4 6FFF ....|--- .... ....
....|..|--- .... ....|--- .... ....|--- .... ....
....|..|E-2 2FD7 ....|A#4 6FF7 ....|--- .... ....
....|..|C-2 2FDA ....|G-4 6FFA ....|--- .... ....
 G-4|..|G-2 2ADF ....|C-5 6FFF ....|--- .... ....
....|..|--- .... ....|D-5 6FFF ....|--- .... ....
....|..|C-2 2FD7 ....|G-4 6FF7 ....|--- .... ....
....|..|G-2 2FDA ....|C-5 6FFA ....|--- .... ....
 C-4|..|C-2 2ADF ....|C-5 6FFF ....|--- .... ....
....|..|--- .... ....|--- .... ....|--- .... ....
....|..|G-2 2FD7 ....|C-5 6FF7 ....|--- .... ....
....|..|C-2 2FDA ....|D-5 6FF7 ....|--- .... ....
 E-4|..|E-2 2ADF ....|A#4 6FFF ....|--- .... ....
....|..|--- .... ....|--- .... ....|--- .... ....
....|..|C-2 2FD7 ....|C-5 6FF7 ....|--- .... ....
....|..|E-2 2FDA ....|A#4 6FFA ....|--- .... ....
 C-4|..|C-2 2ADF ....|G-4 6FFF ....|--- .... ....
....|..|--- .... ....|--- .... ....|--- .... ....
....|..|E-2 2FD7 ....|A#4 6FF7 ....|--- .... ....
....|..|C-2 2FDA ....|G-4 6FFA ....|--- .... ....
 D#3|..|D#1 2ADF ....|F-4 6FFF ....|--- .... ....
....|..|--- .... ....|--- .... ....|--- .... ....
....|..|C-2 2FD7 ....|G-4 6FF7 ....|--- .... ....
....|..|D#1 2FDA ....|F-4 6FFA ....|--- .... ....
 A#3|..|A#1 2ADF ....|G-4 6FFF ....|--- .... ....
....|..|--- .... ....|--- .... ....|--- .... ....
....|..|D#1 2FD7 ....|F-4 6FF7 ....|--- .... ....
....|..|A#1 2FDA ....|G-4 6FFA ....|--- .... ....
 D#4|..|D#2 2ADF ....|A#4 6FFF ....|--- .... ....
....|..|--- .... ....|--- .... ....|--- .... ....
....|..|A#1 2FD7 ....|G-4 6FF7 ....|--- .... ....
....|..|D#2 2FDA ....|A#4 6FFA ....|--- .... ....
....|..|--- .... ....|C-5 6FFF ....|--- .... ....
....|..|--- .... ....|--- .... ....|--- .... ....
....|..|D#2 2FD7 ....|A#4 6FF7 ....|--- .... ....
....|..|--- .... ....|C-5 6FFA ....|--- .... ....
 G-4|..|G-2 2ADF ....|G-3 6FFF ....|--- .... ....
....|..|--- .... ....|--- .... ....|--- .... ....
....|..|--- .... ....|C-5 6FF7 ....|--- .... ....
....|..|G-2 2FDA ....|G-3 6FFA ....|--- .... ....
 G-4|..|G-2 2ADF ....|G-3 6FFF ....|--- .... ....
....|..|--- .... ....|--- .... ....|--- .... ....
....|..|G-2 2FD7 ....|G-3 6FF7 ....|--- .... ....
....|..|G-2 2FDA ....|G-3 6FFA ....|--- .... ....
 G-4|..|G-2 2ADF ....|G-3 6FFF ....|--- .... ....
....|..|--- .... ....|--- .... ....|--- .... ....
....|..|G-2 2FD7 ....|G-3 6FF7 ....|--- .... ....
....|..|G-2 2FDA ....|G-3 6FFA ....|--- .... ....
 G-4|..|G-2 2ADF ....|G-3 6FFF ....|--- .... ....
....|..|--- .... ....|--- .... ....|--- .... ....
....|..|G-2 2FD7 ....|G-3 6FF7 ....|--- .... ....
....|..|G-2 2FDA ....|G-3 6FFA ....|--- .... ....

[Pattern30]
 G-3|..|G-1 2ADF ....|F-4 6FFF ....|--- .... ....
....|..|--- .... ....|--- .... ....|--- .... ....
....|..|G-2 2FD7 ....|G-3 6FF7 ....|--- .... ....
....|..|G-1 2FDA ....|F-4 6FFA ....|--- .... ....
 D-4|..|D-2 2ADF ....|G-4 6FFF ....|--- .... ....
....|..|--- .... ....|--- .... ....|--- .... ....
....|..|G-1 2FD7 ....|F-4 6FF7 ....|--- .... ....
....|..|D-2 2FDA ....|G-4 6FFA ....|--- .... ....
 G-4|..|G-2 2ADF ....|A#4 6FFF ....|--- .... ....
....|..|--- .... ....|--- .... ....|--- .... ....
....|..|D-2 2FD7 ....|G-4 6FF7 ....|--- .... ....
....|..|G-2 2FDA ....|A#4 6FFA ....|--- .... ....
 D-4|..|D-2 2ADF ....|G-4 6FFF ....|--- .... ....
....|..|--- .... ....|--- .... ....|--- .... ....
....|..|G-2 2FD7 ....|A#4 6FF7 ....|--- .... ....
....|..|D-2 2FDA ....|G-4 6FFA ....|--- .... ....
 A#3|..|A#2 2CDF ....|D-5 6FFF ....|--- .... ....
....|..|--- .... ....|--- .... ....|--- .... ....
....|..|D-2 2FD7 ....|G-4 6FF7 ....|--- .... ....
....|..|A#2 2FDA ....|D-5 6FFA ....|--- .... ....
 D-4|..|D-2 2ADF ....|G-4 6FFF ....|--- .... ....
....|..|--- .... ....|--- .... ....|--- .... ....
....|..|A#2 2FD7 ....|A#4 6FFF ....|--- .... ....
....|..|D-2 2FDA ....|G-4 6FFA ....|--- .... ....
 G-4|..|G-2 2ADF ....|--- .... ....|--- .... ....
....|..|--- .... ....|A#4 6FFA ....|--- .... ....
....|..|D-2 2FD7 ....|G-4 6FFF ....|--- .... ....
....|..|G-2 2FDA ....|--- .... ....|--- .... ....
 D-4|..|D-2 2ADF ....|F-4 6FFF ....|--- .... ....
....|..|--- .... ....|G-4 6FFA ....|--- .... ....
....|..|G-2 2FD7 ....|--- .... ....|--- .... ....
....|..|D-2 2FDA ....|F-4 6FFA ....|--- .... ....
 F-3|..|F-1 2ADF ....|G-4 6FF7 ....|--- .... ....
....|..|--- .... ....|--- .... ....|--- .... ....
....|..|D-2 2FD7 ....|F-4 6FF7 ....|--- .... ....
....|..|F-1 2FDA ....|--- .... ....|--- .... ....
 C-4|..|C-2 2ADF ....|G-4 6FFF ....|--- .... ....
....|..|--- .... ....|--- .... ....|--- .... ....
....|..|F-1 2FD7 ....|--- .... ....|--- .... ....
....|..|C-2 2FDA ....|G-4 6FFA ....|--- .... ....
 F-4|..|F-2 2ADF ....|A#4 6FFF ....|--- .... ....
....|..|--- .... ....|--- .... ....|--- .... ....
....|..|C-2 2FD7 ....|G-4 6FF7 ....|--- .... ....
....|..|F-2 2FDA ....|A#4 6FFA ....|--- .... ....
 C-4|..|C-2 2ADF ....|G-4 6FFF ....|--- .... ....
....|..|--- .... ....|--- .... ....|--- .... ....
....|..|F-2 2FD7 ....|A#4 6FF7 ....|--- .... ....
....|..|C-2 2FDA ....|G-4 6FFA ....|--- .... ....
 A-3|..|A-2 2CDF ....|D-5 6FFF ....|--- .... ....
....|..|--- .... ....|--- .... ....|--- .... ....
....|..|C-2 2FD7 ....|G-4 6FF7 ....|--- .... ....
....|..|A-2 2FDA ....|D-5 6FFA ....|--- .... ....
 C-4|..|C-2 2ADF ....|--- .... ....|--- .... ....
....|..|--- .... ....|--- .... ....|--- .... ....
....|..|A-2 2FD7 ....|A#4 6FFF ....|--- .... ....
....|..|C-2 2FDA ....|--- .... ....|--- .... ....
 F-4|..|F-2 2ADF ....|--- .... ....|--- .... ....
....|..|--- .... ....|A#4 6FFA ....|--- .... ....
....|..|C-2 2FD7 ....|R-- .... ....|--- .... ....
....|..|F-2 2FDA ....|--- .... ....|--- .... ....
 C-4|..|C-2 2ADF ....|A#4 6FF7 ....|--- .... ....
....|..|--- .... ....|R-- .... ....|--- .... ....
....|..|F-2 2FD7 ....|--- .... ....|--- .... ....
....|..|C-2 2FDA ....|--- .... ....|--- .... ....

[Pattern31]
 E-3|..|E-1 2ADF ....|F-4 6FFF ....|--- .... ....
....|..|--- .... ....|--- .... ....|--- .... ....
....|..|C-2 2FD7 ....|--- .... ....|--- .... ....
....|..|E-1 2FDA ....|F-4 6FFA ....|--- .... ....
 C-4|..|C-2 2ADF ....|G-4 6FFF ....|--- .... ....
....|..|--- .... ....|--- .... ....|--- .... ....
....|..|E-1 2FD7 ....|F-4 6FF7 ....|--- .... ....
....|..|C-2 2FDA ....|G-4 6FFA ....|--- .... ....
 E-4|..|E-2 2ADF ....|A#4 6FFF ....|--- .... ....
....|..|--- .... ....|--- .... ....|--- .... ....
....|..|C-2 2FD7 ....|G-4 6FFF ....|--- .... ....
....|..|E-2 2FDA ....|A#4 6FFA ....|--- .... ....
 C-4|..|C-2 2ADF ....|D-5 6FFF ....|--- .... ....
....|..|--- .... ....|G-4 6FFA ....|--- .... ....
....|..|E-2 2FD7 ....|A#4 6FF7 ....|--- .... ....
....|..|C-2 2FDA ....|D-5 6FFA ....|--- .... ....
 G-4|..|G-2 2ADF ....|A#4 6FFF ....|--- .... ....
....|..|--- .... ....|--- .... ....|--- .... ....
....|..|C-2 2FD7 ....|D-5 6FF7 ....|--- .... ....
....|..|G-2 2FDA ....|A#4 6FFA ....|--- .... ....
 C-4|..|C-2 2ADF ....|G-4 6FFF ....|--- .... ....
....|..|--- .... ....|--- .... ....|--- .... ....
....|..|G-2 2FD7 ....|A#4 6FF7 ....|--- .... ....
....|..|C-2 2FDA ....|G-4 6FFA ....|--- .... ....
 E-4|..|E-2 2ADF ....|F-4 6FFF ....|--- .... ....
....|..|--- .... ....|--- .... ....|--- .... ....
....|..|C-2 2FD7 ....|G-4 6FF7 ....|--- .... ....
....|..|E-2 2FDA ....|F-4 6FFA ....|--- .... ....
 C-4|..|C-2 2ADF ....|G-4 6FFF ....|--- .... ....
....|..|--- .... ....|--- .... ....|--- .... ....
....|..|E-2 2FD7 ....|F-4 6FF7 ....|--- .... ....
....|..|C-2 2FDA ....|G-4 6FFA ....|--- .... ....
 D#3|..|D#1 2ADF ....|A#3 6FFF ....|--- .... ....
....|..|--- .... ....|--- .... ....|--- .... ....
....|..|C-2 2FD7 ....|G-4 6FF7 ....|--- .... ....
....|..|D#1 2FDA ....|A#3 6FFA ....|--- .... ....
 A#3|..|A#1 2ADF ....|C-4 6FFF ....|--- .... ....
....|..|--- .... ....|--- .... ....|--- .... ....
....|..|D#1 2FD7 ....|G-3 6FFF ....|--- .... ....
....|..|A#1 2FDA ....|C-4 6FFA ....|--- .... ....
 D#4|..|D#2 2ADF ....|--- .... ....|--- .... ....
....|..|--- .... ....|G-3 6FFA ....|--- .... ....
....|..|A#1 2FD7 ....|F-3 6FFF ....|--- .... ....
....|..|D#2 2FDA ....|--- .... ....|--- .... ....
 A#3|..|A#1 2ADF ....|A#3 6FFF ....|--- .... ....
....|..|--- .... ....|F-3 6FFA ....|--- .... ....
....|..|D#2 2FD7 ....|--- .... ....|--- .... ....
....|..|A#1 2FDA ....|A#3 6FFA ....|--- .... ....
 D-3|..|D-1 2ADF ....|G-3 6FFF ....|--- .... ....
....|..|--- .... ....|--- .... ....|--- .... ....
....|..|A#1 2FD7 ....|A#3 6FF7 ....|--- .... ....
....|..|D-1 2FDA ....|G-3 6FFA ....|--- .... ....
 A-3|..|A-1 2ADF ....|F-3 6FFF ....|--- .... ....
....|..|--- .... ....|--- .... ....|--- .... ....
....|..|D-1 2FD7 ....|G-3 6FF7 ....|--- .... ....
....|..|A-1 2FDA ....|F-3 6FFA ....|--- .... ....
 G-4|..|G-2 2ADF ....|R-- .... ....|--- .... ....
....|..|--- .... ....|--- .... ....|--- .... ....
....|..|A-1 2FD7 ....|F-3 6FF7 ....|--- .... ....
....|..|G-2 2FDA ....|R-- .... ....|--- .... ....
 G-4|..|G-2 2ADF ....|--- .... ....|--- .... ....
....|..|--- .... ....|--- .... ....|--- .... ....
....|..|G-2 2FD7 ....|R-- .... ....|--- .... ....
....|..|G-2 2FDA ....|--- .... ....|--- .... ....

[Pattern32]
 G-3|..|G-1 2ADF ....|C-5 6FFF ....|--- .... ....
....|..|--- .... ....|D-5 6FFF ....|--- .... ....
....|..|G-2 2FD7 ....|--- .... ....|--- .... ....
....|..|G-1 2FDA ....|C-5 6FFA ....|--- .... ....
 D-4|..|D-2 2ADF ....|C-5 6FFF ....|--- .... ....
....|..|--- .... ....|--- .... ....|--- .... ....
....|..|G-1 2FD7 ....|C-5 6FF7 ....|--- .... ....
....|..|D-2 2FDA ....|D-5 6FF7 ....|--- .... ....
 G-4|..|G-2 2ADF ....|G-3 6FFF ....|--- .... ....
....|..|--- .... ....|--- .... ....|--- .... ....
....|..|D-2 2FD7 ....|C-5 6FF7 ....|--- .... ....
....|..|G-2 2FDA ....|G-3 6FFA ....|--- .... ....
 D-4|..|D-2 2ADF ....|G-3 6FFF ....|--- .... ....
....|..|--- .... ....|--- .... ....|--- .... ....
....|..|G-2 2FD7 ....|G-3 6FF7 ....|--- .... ....
....|..|D-2 2FDA ....|G-3 6FFA ....|--- .... ....
 A#3|..|A#2 2CDF ....|F-4 6FFF ....|--- .... ....
....|..|--- .... ....|--- .... ....|--- .... ....
....|..|D-2 2FD7 ....|G-3 6FF7 ....|--- .... ....
....|..|A#2 2FDA ....|F-4 6FFA ....|--- .... ....
 D-4|..|D-2 2ADF ....|G-4 6FFF ....|--- .... ....
....|..|--- .... ....|--- .... ....|--- .... ....
....|..|A#2 2FD7 ....|F-4 6FF7 ....|--- .... ....
....|..|D-2 2FDA ....|G-4 6FFA ....|--- .... ....
 G-4|..|G-2 2ADF ....|F-4 6FFF ....|--- .... ....
....|..|--- .... ....|--- .... ....|--- .... ....
....|..|D-2 2FD7 ....|G-4 6FF7 ....|--- .... ....
....|..|G-2 2FDA ....|F-4 6FFA ....|--- .... ....
 D-4|..|D-2 2ADF ....|G-4 6FFF ....|--- .... ....
....|..|--- .... ....|--- .... ....|--- .... ....
....|..|G-2 2FD7 ....|F-4 6FF7 ....|--- .... ....
....|..|D-2 2FDA ....|G-4 6FFA ....|--- .... ....
 F-3|..|F-1 2ADF ....|C-5 6FFF ....|--- .... ....
....|..|--- .... ....|--- .... ....|--- .... ....
....|..|D-2 2FD7 ....|G-4 6FF7 ....|--- .... ....
....|..|F-1 2FDA ....|C-5 6FFA ....|--- .... ....
 C-4|..|C-2 2ADF ....|A#4 6FFF ....|--- .... ....
....|..|--- .... ....|--- .... ....|--- .... ....
....|..|F-1 2FD7 ....|C-5 6FF7 ....|--- .... ....
....|..|C-2 2FDA ....|A#4 6FFA ....|--- .... ....
 F-4|..|F-2 2ADF ....|F-4 6FFF ....|--- .... ....
....|..|--- .... ....|--- .... ....|--- .... ....
....|..|C-2 2FD7 ....|A#4 6FF7 ....|--- .... ....
....|..|F-2 2FDA ....|F-4 6FFA ....|--- .... ....
 C-4|..|C-2 2ADF ....|G-4 6FFF ....|--- .... ....
....|..|--- .... ....|--- .... ....|--- .... ....
....|..|F-2 2FD7 ....|F-4 6FF7 ....|--- .... ....
....|..|C-2 2FDA ....|G-4 6FFA ....|--- .... ....
 A-3|..|A-2 2CDF ....|A#4 6FFF ....|--- .... ....
....|..|--- .... ....|--- .... ....|--- .... ....
....|..|C-2 2FD7 ....|G-4 6FF7 ....|--- .... ....
....|..|A-2 2FDA ....|A#4 6FFA ....|--- .... ....
 C-4|..|C-2 2ADF ....|G-4 6FFF ....|--- .... ....
....|..|--- .... ....|--- .... ....|--- .... ....
....|..|A-2 2FD7 ....|A#4 6FF7 ....|--- .... ....
....|..|C-2 2FDA ....|G-4 6FFA ....|--- .... ....
 F-4|..|F-2 2ADF ....|D-5 6FFF ....|--- .... ....
....|..|--- .... ....|--- .... ....|--- .... ....
....|..|C-2 2FD7 ....|G-4 6FF7 ....|--- .... ....
....|..|F-2 2FDA ....|D-5 6FFA ....|--- .... ....
 C-4|..|C-2 2ADF ....|C-5 6FFF ....|--- .... ....
....|..|--- .... ....|--- .... ....|--- .... ....
....|..|F-2 2FD7 ....|D-5 6FF7 ....|--- .... ....
....|..|C-2 2FDA ....|C-5 6FFA ....|--- .... ....

[Pattern33]
 E-3|..|E-1 2ADF ....|C-5 6FFF ....|--- .... ....
....|..|--- .... ....|--- .... ....|--- .... ....
....|..|C-2 2FD7 ....|G-4 6FFF ....|--- .... ....
....|..|E-1 2FDA ....|C-5 6FFA ....|--- .... ....
 C-4|..|C-2 2ADF ....|A#4 6FFF ....|--- .... ....
....|..|--- .... ....|G-4 6FFA ....|--- .... ....
....|..|E-1 2FD7 ....|G-4 6FFF ....|--- .... ....
....|..|C-2 2FDA ....|A#4 6FFA ....|--- .... ....
 E-4|..|E-2 2ADF ....|C-5 6FFF ....|--- .... ....
....|..|--- .... ....|G-4 6FFA ....|--- .... ....
....|..|C-2 2FD7 ....|G-4 6FFF ....|--- .... ....
....|..|E-2 2FDA ....|C-5 6FFA ....|--- .... ....
 C-4|..|C-2 2ADF ....|A#4 6FFF ....|--- .... ....
....|..|--- .... ....|G-4 6FFA ....|--- .... ....
....|..|E-2 2FD7 ....|G-4 6FFF ....|--- .... ....
....|..|C-2 2FDA ....|A#4 6FFA ....|--- .... ....
 G-4|..|G-2 2ADF ....|C-5 6FFF ....|--- .... ....
....|..|--- .... ....|G-4 6FFA ....|--- .... ....
....|..|C-2 2FD7 ....|G-4 6FFF ....|--- .... ....
....|..|G-2 2FDA ....|C-5 6FFA ....|--- .... ....
 C-4|..|C-2 2ADF ....|A#4 6FFF ....|--- .... ....
....|..|--- .... ....|G-4 6FFA ....|--- .... ....
....|..|G-2 2FD7 ....|G-4 6FFF ....|--- .... ....
....|..|C-2 2FDA ....|A#4 6FFA ....|--- .... ....
 E-4|..|E-2 2ADF ....|C-5 6FFF ....|--- .... ....
....|..|--- .... ....|G-4 6FFA ....|--- .... ....
....|..|C-2 2FD7 ....|G-4 6FFF ....|--- .... ....
....|..|E-2 2FDA ....|C-5 6FFA ....|--- .... ....
 C-4|..|C-2 2ADF ....|A#4 6FFF ....|--- .... ....
....|..|--- .... ....|G-4 6FFA ....|--- .... ....
....|..|E-2 2FD7 ....|D-5 6FFF ....|--- .... ....
....|..|C-2 2FDA ....|A#4 6FFA ....|--- .... ....
 D#3|..|D#1 2ADF ....|D-5 6FFF ....|--- .... ....
....|..|--- .... ....|D-5 6FFA ....|--- .... ....
....|..|C-2 2FD7 ....|A#4 6FF7 ....|--- .... ....
....|..|D#1 2FDA ....|D-5 6FFA ....|--- .... ....
 A#3|..|A#1 2ADF ....|C-5 6FFF ....|--- .... ....
....|..|--- .... ....|--- .... ....|--- .... ....
....|..|D#1 2FD7 ....|D-5 6FF7 ....|--- .... ....
....|..|A#1 2FDA ....|C-5 6FFA ....|--- .... ....
 D#4|..|D#2 2ADF ....|A#4 6FFF ....|--- .... ....
....|..|--- .... ....|--- .... ....|--- .... ....
....|..|A#1 2FD7 ....|C-5 6FF7 ....|--- .... ....
....|..|D#2 2FDA ....|A#4 6FFA ....|--- .... ....
 A#3|..|A#1 2ADF ....|C-5 6FFF ....|--- .... ....
....|..|--- .... ....|--- .... ....|--- .... ....
....|..|D#2 2FD7 ....|A#4 6FF7 ....|--- .... ....
....|..|A#1 2FDA ....|C-5 6FFA ....|--- .... ....
 G-4|..|G-2 2ADF ....|R-- .... ....|--- .... ....
....|..|--- .... ....|--- .... ....|--- .... ....
....|..|A#1 2FD7 ....|C-5 6FF7 ....|--- .... ....
....|..|G-2 2FDA ....|R-- .... ....|--- .... ....
 G-4|..|G-2 2ADF ....|--- .... ....|--- .... ....
....|..|--- .... ....|--- .... ....|--- .... ....
....|..|G-2 2FD7 ....|R-- .... ....|--- .... ....
....|..|G-2 2FDA ....|--- .... ....|--- .... ....
 G-4|..|G-2 2ADF ....|--- .... ....|--- .... ....
....|..|--- .... ....|--- .... ....|--- .... ....
....|..|G-2 2FD7 ....|--- .... ....|--- .... ....
....|..|G-2 2FDA ....|--- .... ....|--- .... ....
 G-4|..|G-2 2ADF ....|F-4 6FFF ....|--- .... ....
....|..|--- .... ....|--- .... ....|--- .... ....
....|..|G-2 2FD7 ....|G-4 6FFF ....|--- .... ....
....|..|G-2 2FDA ....|F-4 6FFA ....|--- .... ....

[Pattern34]
 G-3|..|G-1 2ADF ....|A#4 6FFF ....|--- .... ....
....|..|--- .... ....|G-4 6FFA ....|--- .... ....
....|..|G-2 2FD7 ....|F-4 6FF7 ....|--- .... ....
....|..|G-1 2FDA ....|A#4 6FFA ....|--- .... ....
 D-4|..|D-2 2ADF ....|A#4 6FFF ....|--- .... ....
....|..|--- .... ....|--- .... ....|--- .... ....
....|..|G-1 2FD7 ....|A#4 6FF7 ....|--- .... ....
....|..|D-2 2FDA ....|A#4 6FFA ....|--- .... ....
 G-4|..|G-2 2ADF ....|A#4 6FFF ....|--- .... ....
....|..|--- .... ....|--- .... ....|--- .... ....
....|..|D-2 2FD7 ....|A#4 6FF7 ....|--- .... ....
....|..|G-2 2FDA ....|A#4 6FFA ....|--- .... ....
 D-4|..|D-2 2ADF ....|G-4 6FFF ....|--- .... ....
....|..|--- .... ....|--- .... ....|--- .... ....
....|..|G-2 2FD7 ....|A#4 6FF7 ....|--- .... ....
....|..|D-2 2FDA ....|G-4 6FFA ....|--- .... ....
 A#3|..|A#2 2CDF ....|D-5 6FFF ....|--- .... ....
....|..|--- .... ....|--- .... ....|--- .... ....
....|..|D-2 2FD7 ....|G-4 6FF7 ....|--- .... ....
....|..|A#2 2FDA ....|D-5 6FFA ....|--- .... ....
 D-4|..|D-2 2ADF ....|G-4 6FFF ....|--- .... ....
....|..|--- .... ....|--- .... ....|--- .... ....
....|..|A#2 2FD7 ....|A#4 6FFF ....|--- .... ....
....|..|D-2 2FDA ....|G-4 6FFA ....|--- .... ....
 G-4|..|G-2 2ADF ....|--- .... ....|--- .... ....
....|..|--- .... ....|A#4 6FFA ....|--- .... ....
....|..|D-2 2FD7 ....|G-4 6FFF ....|--- .... ....
....|..|G-2 2FDA ....|--- .... ....|--- .... ....
 D-4|..|D-2 2ADF ....|A#4 6FF7 ....|--- .... ....
....|..|--- .... ....|G-4 6FFA ....|--- .... ....
....|..|G-2 2FD7 ....|F-4 6FFF ....|--- .... ....
....|..|D-2 2FDA ....|--- .... ....|--- .... ....
 F-3|..|F-1 2ADF ....|G-4 6FF7 ....|--- .... ....
....|..|--- .... ....|F-4 6FFA ....|--- .... ....
....|..|D-2 2FD7 ....|--- .... ....|--- .... ....
....|..|F-1 2FDA ....|--- .... ....|--- .... ....
 C-4|..|C-2 2ADF ....|G-4 6FFF ....|--- .... ....
....|..|--- .... ....|--- .... ....|--- .... ....
....|..|F-1 2FD7 ....|--- .... ....|--- .... ....
....|..|C-2 2FDA ....|G-4 6FFA ....|--- .... ....
 F-4|..|F-2 2ADF ....|A#4 6FFF ....|--- .... ....
....|..|--- .... ....|--- .... ....|--- .... ....
....|..|C-2 2FD7 ....|G-4 6FF7 ....|--- .... ....
....|..|F-2 2FDA ....|A#4 6FFA ....|--- .... ....
 C-4|..|C-2 2ADF ....|G-4 6FFF ....|--- .... ....
....|..|--- .... ....|--- .... ....|--- .... ....
....|..|F-2 2FD7 ....|A#4 6FF7 ....|--- .... ....
....|..|C-2 2FDA ....|G-4 6FFA ....|--- .... ....
 A-3|..|A-2 2CDF ....|D-5 6FFF ....|--- .... ....
....|..|--- .... ....|--- .... ....|--- .... ....
....|..|C-2 2FD7 ....|G-4 6FF7 ....|--- .... ....
....|..|A-2 2FDA ....|D-5 6FFA ....|--- .... ....
 C-4|..|C-2 2ADF ....|--- .... ....|--- .... ....
....|..|--- .... ....|--- .... ....|--- .... ....
....|..|A-2 2FD7 ....|A#4 6FFF ....|--- .... ....
....|..|C-2 2FDA ....|--- .... ....|--- .... ....
 F-4|..|F-2 2ADF ....|--- .... ....|--- .... ....
....|..|--- .... ....|A#4 6FFA ....|--- .... ....
....|..|C-2 2FD7 ....|--- .... ....|--- .... ....
....|..|F-2 2FDA ....|--- .... ....|--- .... ....
 C-4|..|C-2 2ADF ....|A#4 6FF7 ....|--- .... ....
....|..|--- .... ....|--- .... ....|--- .... ....
....|..|F-2 2FD7 ....|G-3 6FFF ....|--- .... ....
....|..|C-2 2FDA ....|R-- .... ....|--- .... ....

[Pattern35]
 E-3|..|E-1 2ADF ....|A#3 6FFF ....|--- .... ....
....|..|--- .... ....|G-3 6FFA ....|--- .... ....
....|..|C-2 2FD7 ....|R-- .... ....|--- .... ....
....|..|E-1 2FDA ....|A#3 6FFA ....|--- .... ....
 C-4|..|C-2 2ADF ....|A#3 6FFF ....|--- .... ....
....|..|--- .... ....|--- .... ....|--- .... ....
....|..|E-1 2FD7 ....|A#3 6FF7 ....|--- .... ....
....|..|C-2 2FDA ....|A#3 6FFA ....|--- .... ....
 E-4|..|E-2 2ADF ....|A#3 6FFF ....|--- .... ....
....|..|--- .... ....|--- .... ....|--- .... ....
....|..|C-2 2FD7 ....|A#3 6FF7 ....|--- .... ....
....|..|E-2 2FDA ....|A#3 6FFA ....|--- .... ....
 C-4|..|C-2 2ADF ....|G-3 6FFF ....|--- .... ....
....|..|--- .... ....|--- .... ....|--- .... ....
....|..|E-2 2FD7 ....|A#3 6FF7 ....|--- .... ....
....|..|C-2 2FDA ....|G-3 6FFA ....|--- .... ....
 G-4|..|G-2 2ADF ....|D-4 6FFF ....|--- .... ....
....|..|--- .... ....|--- .... ....|--- .... ....
....|..|C-2 2FD7 ....|C-4 6FFF ....|--- .... ....
....|..|G-2 2FDA ....|D-4 6FFA ....|--- .... ....
 C-4|..|C-2 2ADF ....|R-- .... ....|--- .... ....
....|..|--- .... ....|C-4 6FFA ....|--- .... ....
....|..|G-2 2FD7 ....|A#3 6FFF ....|--- .... ....
....|..|C-2 2FDA ....|R-- .... ....|--- .... ....
 E-4|..|E-2 2ADF ....|C-4 6FF7 ....|--- .... ....
....|..|--- .... ....|A#3 6FFA ....|--- .... ....
....|..|C-2 2FD7 ....|R-- .... ....|--- .... ....
....|..|E-2 2FDA ....|--- .... ....|--- .... ....
 C-4|..|C-2 2ADF ....|A#3 6FF7 ....|--- .... ....
....|..|--- .... ....|--- .... ....|--- .... ....
....|..|E-2 2FD7 ....|G-3 6FFF ....|--- .... ....
....|..|C-2 2FDA ....|R-- .... ....|--- .... ....
 D#3|..|D#1 2ADF ....|A#3 6FFF ....|--- .... ....
....|..|--- .... ....|G-3 6FFA ....|--- .... ....
....|..|C-2 2FD7 ....|R-- .... ....|--- .... ....
....|..|D#1 2FDA ....|A#3 6FFA ....|--- .... ....
 A#3|..|A#1 2ADF ....|G-3 6FFF ....|--- .... ....
....|..|--- .... ....|--- .... ....|--- .... ....
....|..|D#1 2FD7 ....|A#3 6FF7 ....|--- .... ....
....|..|A#1 2FDA ....|G-3 6FFA ....|--- .... ....
 D#4|..|D#2 2ADF ....|D-4 6FFF ....|--- .... ....
....|..|--- .... ....|--- .... ....|--- .... ....
....|..|A#1 2FD7 ....|G-3 6FF7 ....|--- .... ....
....|..|D#2 2FDA ....|D-4 6FFA ....|--- .... ....
 A#3|..|A#1 2ADF ....|C-4 6FFF ....|--- .... ....
....|..|--- .... ....|--- .... ....|--- .... ....
....|..|D#2 2FD7 ....|D-4 6FF7 ....|--- .... ....
....|..|A#1 2FDA ....|C-4 6FFA ....|--- .... ....
 D-3|..|D-1 2ADF ....|A#4 6FFF ....|--- .... ....
....|..|--- .... ....|--- .... ....|--- .... ....
....|..|A#1 2FD7 ....|D-5 6FFF ....|--- .... ....
....|..|D-1 2FDA ....|A#4 6FFA ....|--- .... ....
 A-3|..|A-1 2ADF ....|--- .... ....|--- .... ....
....|..|--- .... ....|D-5 6FFA ....|--- .... ....
....|..|D-1 2FD7 ....|C-5 6FFF ....|--- .... ....
....|..|A-1 2FDA ....|--- .... ....|--- .... ....
 D-4|..|D-2 2ADF ....|D-5 6FF7 ....|--- .... ....
....|..|--- .... ....|C-5 6FFA ....|--- .... ....
....|..|A-1 2FD7 ....|A#4 6FFF ....|--- .... ....
....|..|D-2 2FDA ....|--- .... ....|--- .... ....
 A-3|..|A-1 2ADF ....|G-4 6FFF ....|--- .... ....
....|..|--- .... ....|A#4 6FFA ....|--- .... ....
....|..|D-2 2FD7 ....|--- .... ....|--- .... ....
....|..|A-1 2FDA ....|G-4 6FFA ....|--- .... ....

[Pattern36]
 G-3|..|G-1 2ADF ....|G-4 6FFF ....|--- .... ....
....|..|--- .... ....|--- .... ....|--- .... ....
....|..|A-1 2FD7 ....|G-4 6FF7 ....|--- .... ....
....|..|G-1 2FDA ....|G-4 6FFA ....|--- .... ....
 D-4|..|D-2 2ADF ....|F-4 6FFF ....|--- .... ....
....|..|--- .... ....|--- .... ....|--- .... ....
....|..|G-1 2FD7 ....|G-4 6FF7 ....|--- .... ....
....|..|D-2 2FDA ....|F-4 6FFA ....|--- .... ....
 G-4|..|G-2 2ADF ....|G-4 6FFF ....|--- .... ....
....|..|--- .... ....|--- .... ....|--- .... ....
....|..|D-2 2FD7 ....|F-4 6FF7 ....|--- .... ....
....|..|G-2 2FDA ....|G-4 6FFA ....|--- .... ....
 D-4|..|D-2 2ADF ....|D-4 6FFF ....|--- .... ....
....|..|--- .... ....|--- .... ....|--- .... ....
....|..|G-2 2FD7 ....|G-4 6FF7 ....|--- .... ....
....|..|D-2 2FDA ....|D-4 6FFA ....|--- .... ....
 A#3|..|A#2 2CDF ....|F-4 6FFF ....|--- .... ....
....|..|--- .... ....|--- .... ....|--- .... ....
....|..|D-2 2FD7 ....|G-4 6FFF ....|--- .... ....
....|..|A#2 2FDA ....|F-4 6FFA ....|--- .... ....
 D-4|..|D-2 2ADF ....|--- .... ....|--- .... ....
....|..|--- .... ....|G-4 6FFA ....|--- .... ....
....|..|A#2 2FD7 ....|G-4 6FFF ....|--- .... ....
....|..|D-2 2FDA ....|--- .... ....|--- .... ....
 G-4|..|G-2 2ADF ....|G-4 6FF7 ....|--- .... ....
....|..|--- .... ....|G-4 6FFA ....|--- .... ....
....|..|D-2 2FD7 ....|D-5 6FFF ....|--- .... ....
....|..|G-2 2FDA ....|--- .... ....|--- .... ....
 D-4|..|D-2 2ADF ....|G-4 6FF7 ....|--- .... ....
....|..|--- .... ....|D-5 6FFA ....|--- .... ....
....|..|G-2 2FD7 ....|C-5 6FFF ....|--- .... ....
....|..|D-2 2FDA ....|--- .... ....|--- .... ....
 F-3|..|F-1 2ADF ....|D-5 6FF7 ....|--- .... ....
....|..|--- .... ....|C-5 6FFA ....|--- .... ....
....|..|D-2 2FD7 ....|--- .... ....|--- .... ....
....|..|F-1 2FDA ....|--- .... ....|--- .... ....
 C-4|..|C-2 2ADF ....|G-4 6FFF ....|--- .... ....
....|..|--- .... ....|--- .... ....|--- .... ....
....|..|F-1 2FD7 ....|--- .... ....|--- .... ....
....|..|C-2 2FDA ....|G-4 6FFA ....|--- .... ....
 F-4|..|F-2 2ADF ....|G-4 6FFF ....|--- .... ....
....|..|--- .... ....|--- .... ....|--- .... ....
....|..|C-2 2FD7 ....|G-4 6FF7 ....|--- .... ....
....|..|F-2 2FDA ....|G-4 6FFA ....|--- .... ....
 C-4|..|C-2 2ADF ....|F-4 6FFF ....|--- .... ....
....|..|--- .... ....|--- .... ....|--- .... ....
....|..|F-2 2FD7 ....|G-4 6FF7 ....|--- .... ....
....|..|C-2 2FDA ....|F-4 6FFA ....|--- .... ....
 A-3|..|A-2 2CDF ....|G-4 6FFF ....|--- .... ....
....|..|--- .... ....|--- .... ....|--- .... ....
....|..|C-2 2FD7 ....|F-4 6FFF ....|--- .... ....
....|..|A-2 2FDA ....|G-4 6FFA ....|--- .... ....
 C-4|..|C-2 2ADF ....|--- .... ....|--- .... ....
....|..|--- .... ....|F-4 6FFA ....|--- .... ....
....|..|A-2 2FD7 ....|G-4 6FFF ....|--- .... ....
....|..|C-2 2FDA ....|--- .... ....|--- .... ....
 F-4|..|F-2 2ADF ....|F-4 6FF7 ....|--- .... ....
....|..|--- .... ....|G-4 6FFA ....|--- .... ....
....|..|C-2 2FD7 ....|C-5 6FFF ....|--- .... ....
....|..|F-2 2FDA ....|--- .... ....|--- .... ....
 C-4|..|C-2 2ADF ....|G-4 6FF7 ....|--- .... ....
....|..|--- .... ....|A#4 6FFF ....|--- .... ....
....|..|F-2 2FD7 ....|--- .... ....|--- .... ....
....|..|C-2 2FDA ....|--- .... ....|--- .... ....

[Pattern37]
 E-3|..|E-1 2ADF ....|C-5 6FF7 ....|--- .... ....
....|..|--- .... ....|--- .... ....|--- .... ....
....|..|C-2 2FD7 ....|--- .... ....|--- .... ....
....|..|E-1 2FDA ....|A#4 6FF7 ....|--- .... ....
 C-4|..|C-2 2ADF ....|F-4 6FFF ....|--- .... ....
....|..|--- .... ....|--- .... ....|--- .... ....
....|..|E-1 2FD7 ....|--- .... ....|--- .... ....
....|..|C-2 2FDA ....|F-4 6FFA ....|--- .... ....
 E-4|..|E-2 2ADF ....|G-4 6FFF ....|--- .... ....
....|..|--- .... ....|--- .... ....|--- .... ....
....|..|C-2 2FD7 ....|F-4 6FF7 ....|--- .... ....
....|..|E-2 2FDA ....|G-4 6FFA ....|--- .... ....
 C-4|..|C-2 2ADF ....|D-4 6FFF ....|--- .... ....
....|..|--- .... ....|--- .... ....|--- .... ....
....|..|E-2 2FD7 ....|G-4 6FF7 ....|--- .... ....
....|..|C-2 2FDA ....|D-4 6FFA ....|--- .... ....
 G-4|..|G-2 2ADF ....|F-4 6FFF ....|--- .... ....
....|..|--- .... ....|--- .... ....|--- .... ....
....|..|C-2 2FD7 ....|G-4 6FFF ....|--- .... ....
....|..|G-2 2FDA ....|F-4 6FFA ....|--- .... ....
 C-4|..|C-2 2ADF ....|--- .... ....|--- .... ....
....|..|--- .... ....|G-4 6FFA ....|--- .... ....
....|..|G-2 2FD7 ....|G-4 6FFF ....|--- .... ....
....|..|C-2 2FDA ....|--- .... ....|--- .... ....
 E-4|..|E-2 2ADF ....|G-4 6FF7 ....|--- .... ....
....|..|--- .... ....|G-4 6FFA ....|--- .... ....
....|..|C-2 2FD7 ....|R-- .... ....|--- .... ....
....|..|E-2 2FDA ....|--- .... ....|--- .... ....
 C-4|..|C-2 2ADF ....|G-4 6FF7 ....|--- .... ....
....|..|--- .... ....|R-- .... ....|--- .... ....
....|..|E-2 2FD7 ....|--- .... ....|--- .... ....
....|..|C-2 2FDA ....|--- .... ....|--- .... ....
 D#4|..|D#2 2ADF ....|G-5 6FFF ....|--- .... ....
....|..|--- .... ....|--- .... ....|--- .... ....
....|..|C-2 2FD7 ....|--- .... ....|--- .... ....
....|..|D#2 2FDA ....|G-5 6FFA ....|--- .... ....
....|..|R-- .... ....|G-5 6FFF ....|--- .... ....
....|..|--- .... ....|--- .... ....|--- .... ....
....|..|D#2 2FD7 ....|G-5 6FF7 ....|--- .... ....
....|..|R-- .... ....|G-5 6FFA ....|--- .... ....
....|..|--- .... ....|G-4 6FFF ....|--- .... ....
....|..|--- .... ....|--- .... ....|--- .... ....
....|..|R-- .... ....|G-5 6FF7 ....|--- .... ....
....|..|--- .... ....|G-4 6FFA ....|--- .... ....
....|..|--- .... ....|G-4 6FFF ....|--- .... ....
....|..|--- .... ....|--- .... ....|--- .... ....
....|..|--- .... ....|G-4 6FF7 ....|--- .... ....
....|..|--- .... ....|G-4 6FFA ....|--- .... ....
 D-4|..|D-2 2ADF ....|G-3 6FFF ....|--- .... ....
....|..|--- .... ....|--- .... ....|--- .... ....
....|..|--- .... ....|G-3 6FFF ....|--- .... ....
....|..|D-2 2FDA ....|G-3 6FFA ....|--- .... ....
....|..|R-- .... ....|--- .... ....|--- .... ....
....|..|--- .... ....|G-3 6FFA ....|--- .... ....
....|..|D-2 2FD7 ....|G-3 6FFF ....|--- .... ....
....|..|R-- .... ....|--- .... ....|--- .... ....
 G-4|..|G-2 2ADF ....|G-3 6FF7 ....|--- .... ....
....|..|--- .... ....|G-3 6FFA ....|--- .... ....
....|..|R-- .... ....|--- .... ....|--- .... ....
....|..|G-2 2FDA ....|R-- .... ....|--- .... ....
 G-4|..|G-2 2ADF ....|G-3 6FF7 ....|--- .... ....
....|..|--- .... ....|--- .... ....|--- .... ....
....|..|G-2 2FD7 ....|R-- .... ....|--- .... ....
....|..|G-2 2FDA ....|--- .... ....|--- .... ....

[Pattern38]
 G-3|..|G-1 2ADF ....|C-5 6FFF ....|--- .... ....
....|..|--- .... ....|D-5 6FFF ....|--- .... ....
....|..|G-2 2FD7 ....|--- .... ....|--- .... ....
....|..|G-1 2FDA ....|C-5 6FFA ....|--- .... ....
 D-4|..|D-2 2ADF ....|C-5 6FFF ....|--- .... ....
....|..|--- .... ....|--- .... ....|--- .... ....
....|..|G-1 2FD7 ....|C-5 6FF7 ....|--- .... ....
....|..|D-2 2FDA ....|D-5 6FF7 ....|--- .... ....
 G-4|..|G-2 2ADF ....|G-3 6FFF ....|--- .... ....
....|..|--- .... ....|--- .... ....|--- .... ....
....|..|D-2 2FD7 ....|C-5 6FF7 ....|--- .... ....
....|..|G-2 2FDA ....|G-3 6FFA ....|--- .... ....
 D-4|..|D-2 2ADF ....|G-3 6FFF ....|--- .... ....
....|..|--- .... ....|--- .... ....|--- .... ....
....|..|G-2 2FD7 ....|G-3 6FF7 ....|--- .... ....
....|..|D-2 2FDA ....|G-3 6FFA ....|--- .... ....
 A#3|..|A#2 2CDF ....|F-4 6FFF ....|--- .... ....
....|..|--- .... ....|--- .... ....|--- .... ....
....|..|D-2 2FD7 ....|G-3 6FF7 ....|--- .... ....
....|..|A#2 2FDA ....|F-4 6FFA ....|--- .... ....
 D-4|..|D-2 2ADF ....|G-4 6FFF ....|--- .... ....
....|..|--- .... ....|--- .... ....|--- .... ....
....|..|A#2 2FD7 ....|F-4 6FF7 ....|--- .... ....
....|..|D-2 2FDA ....|G-4 6FFA ....|--- .... ....
 G-4|..|G-2 2ADF ....|F-4 6FFF ....|--- .... ....
....|..|--- .... ....|--- .... ....|--- .... ....
....|..|D-2 2FD7 ....|G-4 6FF7 ....|--- .... ....
....|..|G-2 2FDA ....|F-4 6FFA ....|--- .... ....
 D-4|..|D-2 2ADF ....|G-4 6FFF ....|--- .... ....
....|..|--- .... ....|--- .... ....|--- .... ....
....|..|G-2 2FD7 ....|F-4 6FF7 ....|--- .... ....
....|..|D-2 2FDA ....|G-4 6FFA ....|--- .... ....
 F-3|..|F-1 2ADF ....|C-5 6FFF ....|--- .... ....
....|..|--- .... ....|--- .... ....|--- .... ....
....|..|D-2 2FD7 ....|G-4 6FF7 ....|--- .... ....
....|..|F-1 2FDA ....|C-5 6FFA ....|--- .... ....
 C-4|..|C-2 2ADF ....|A#4 6FFF ....|--- .... ....
....|..|--- .... ....|--- .... ....|--- .... ....
....|..|F-1 2FD7 ....|C-5 6FF7 ....|--- .... ....
....|..|C-2 2FDA ....|A#4 6FFA ....|--- .... ....
 F-4|..|F-2 2ADF ....|D-4 6FFF ....|--- .... ....
....|..|--- .... ....|--- .... ....|--- .... ....
....|..|C-2 2FD7 ....|A#4 6FF7 ....|--- .... ....
....|..|F-2 2FDA ....|D-4 6FFA ....|--- .... ....
 C-4|..|C-2 2ADF ....|C-4 6FFF ....|--- .... ....
....|..|--- .... ....|--- .... ....|--- .... ....
....|..|F-2 2FD7 ....|D-4 6FF7 ....|--- .... ....
....|..|C-2 2FDA ....|C-4 6FFA ....|--- .... ....
 A-3|..|A-2 2CDF ....|A#3 6FFF ....|--- .... ....
....|..|--- .... ....|--- .... ....|--- .... ....
....|..|C-2 2FD7 ....|C-4 6FF7 ....|--- .... ....
....|..|A-2 2FDA ....|A#3 6FFA ....|--- .... ....
 C-4|..|C-2 2ADF ....|G-3 6FFF ....|--- .... ....
....|..|--- .... ....|--- .... ....|--- .... ....
....|..|A-2 2FD7 ....|A#3 6FF7 ....|--- .... ....
....|..|C-2 2FDA ....|G-3 6FFA ....|--- .... ....
 F-4|..|F-2 2ADF ....|G-3 6FFF ....|--- .... ....
....|..|--- .... ....|--- .... ....|--- .... ....
....|..|C-2 2FD7 ....|G-3 6FF7 ....|--- .... ....
....|..|F-2 2FDA ....|G-3 6FFA ....|--- .... ....
 C-4|..|C-2 2ADF ....|G-3 6FFF ....|--- .... ....
....|..|--- .... ....|--- .... ....|--- .... ....
....|..|F-2 2FD7 ....|G-3 6FF7 ....|--- .... ....
....|..|C-2 2FDA ....|G-3 6FFA ....|--- .... ....

[Pattern39]
 E-3|..|E-1 2ADF ....|G-3 6FFF ....|--- .... ....
....|..|--- .... ....|--- .... ....|--- .... ....
....|..|C-2 2FD7 ....|G-3 6FF7 ....|--- .... ....
....|..|E-1 2FDA ....|G-3 6FFA ....|--- .... ....
 C-4|..|C-2 2ADF ....|D-3 6FFF ....|--- .... ....
....|..|--- .... ....|--- .... ....|--- .... ....
....|..|E-1 2FD7 ....|G-3 6FF7 ....|--- .... ....
....|..|C-2 2FDA ....|D-3 6FFA ....|--- .... ....
 E-4|..|E-2 2ADF ....|F-3 6FFF ....|--- .... ....
....|..|--- .... ....|--- .... ....|--- .... ....
....|..|C-2 2FD7 ....|D-3 6FF7 ....|--- .... ....
....|..|E-2 2FDA ....|F-3 6FFA ....|--- .... ....
 C-4|..|C-2 2ADF ....|D-3 6FFF ....|--- .... ....
....|..|--- .... ....|--- .... ....|--- .... ....
....|..|E-2 2FD7 ....|F-3 6FF7 ....|--- .... ....
....|..|C-2 2FDA ....|D-3 6FFA ....|--- .... ....
 G-4|..|G-2 2ADF ....|F-3 6FFF ....|--- .... ....
....|..|--- .... ....|--- .... ....|--- .... ....
....|..|C-2 2FD7 ....|G-3 6FFF ....|--- .... ....
....|..|G-2 2FDA ....|F-3 6FFA ....|--- .... ....
 C-4|..|C-2 2ADF ....|--- .... ....|--- .... ....
....|..|--- .... ....|G-3 6FFA ....|--- .... ....
....|..|G-2 2FD7 ....|G-3 6FFF ....|--- .... ....
....|..|C-2 2FDA ....|--- .... ....|--- .... ....
 E-4|..|E-2 2ADF ....|G-3 6FF7 ....|--- .... ....
....|..|--- .... ....|G-3 6FFA ....|--- .... ....
....|..|C-2 2FD7 ....|R-- .... ....|--- .... ....
....|..|E-2 2FDA ....|--- .... ....|--- .... ....
 C-4|..|C-2 2ADF ....|G-3 6FF7 ....|--- .... ....
....|..|--- .... ....|R-- .... ....|--- .... ....
....|..|E-2 2FD7 ....|--- .... ....|--- .... ....
....|..|C-2 2FDA ....|--- .... ....|--- .... ....
 D#3|..|D#1 2ADF ....|D-5 6FFF ....|--- .... ....
....|..|--- .... ....|--- .... ....|--- .... ....
....|..|C-2 2FD7 ....|--- .... ....|--- .... ....
....|..|D#1 2FDA ....|D-5 6FFA ....|--- .... ....
 A#3|..|A#1 2ADF ....|--- .... ....|--- .... ....
....|..|--- .... ....|--- .... ....|--- .... ....
....|..|D#1 2FD7 ....|C-5 6FFF ....|--- .... ....
....|..|A#1 2FDA ....|--- .... ....|--- .... ....
 D#4|..|D#2 2ADF ....|--- .... ....|--- .... ....
....|..|--- .... ....|C-5 6FFA ....|--- .... ....
....|..|A#1 2FD7 ....|--- .... ....|--- .... ....
....|..|D#2 2FDA ....|--- .... ....|--- .... ....
 A#3|..|A#1 2ADF ....|A#4 6FFF ....|--- .... ....
....|..|--- .... ....|--- .... ....|--- .... ....
....|..|D#2 2FD7 ....|--- .... ....|--- .... ....
....|..|A#1 2FDA ....|A#4 6FFA ....|--- .... ....
 D-3|..|D-1 2ADF ....|A#4 6FFF ....|--- .... ....
....|..|--- .... ....|--- .... ....|--- .... ....
....|..|A#1 2FD7 ....|D-5 6FFF ....|--- .... ....
....|..|D-1 2FDA ....|A#4 6FFA ....|--- .... ....
 A-3|..|A-1 2ADF ....|--- .... ....|--- .... ....
....|..|--- .... ....|D-5 6FFA ....|--- .... ....
....|..|D-1 2FD7 ....|C-5 6FFF ....|--- .... ....
....|..|A-1 2FDA ....|--- .... ....|--- .... ....
 D-4|..|D-2 2ADF ....|D-5 6FF7 ....|--- .... ....
....|..|--- .... ....|C-5 6FFA ....|--- .... ....
....|..|A-1 2FD7 ....|A#4 6FFF ....|--- .... ....
....|..|D-2 2FDA ....|--- .... ....|--- .... ....
 A-3|..|A-1 2ADF ....|G-4 6FFF ....|--- .... ....
....|..|--- .... ....|A#4 6FFA ....|--- .... ....
....|..|D-2 2FD7 ....|--- .... ....|--- .... ....
....|..|A-1 2FDA ....|G-4 6FFA ....|--- .... ....

[Pattern42]
 G-3|..|G-1 2ADF ....|D-5 6FFF ....|--- .... ....
....|..|--- .... ....|--- .... ....|--- .... ....
....|..|G-2 2FD7 ....|--- .... ....|--- .... ....
....|..|G-1 2FDA ....|D-5 6FFA ....|--- .... ....
 D-4|..|D-2 2ADF ....|C-5 6FFF ....|--- .... ....
....|..|--- .... ....|--- .... ....|--- .... ....
....|..|G-1 2FD7 ....|D-5 6FF7 ....|--- .... ....
....|..|D-2 2FDA ....|C-5 6FFA ....|--- .... ....
 G-4|..|G-2 2ADF ....|A#4 6FFF ....|--- .... ....
....|..|--- .... ....|--- .... ....|--- .... ....
....|..|D-2 2FD7 ....|C-5 6FF7 ....|--- .... ....
....|..|G-2 2FDA ....|A#4 6FFA ....|--- .... ....
 D-4|..|D-2 2ADF ....|G-4 6FFF ....|--- .... ....
....|..|--- .... ....|--- .... ....|--- .... ....
....|..|G-2 2FD7 ....|A#4 6FF7 ....|--- .... ....
....|..|D-2 2FDA ....|G-4 6FFA ....|--- .... ....
 A#3|..|A#2 2CDF ....|R-- .... ....|--- .... ....
....|..|--- .... ....|--- .... ....|--- .... ....
....|..|D-2 2FD7 ....|G-4 6FF7 ....|--- .... ....
....|..|A#2 2FDA ....|R-- .... ....|--- .... ....
 D-4|..|D-2 2ADF ....|--- .... ....|--- .... ....
....|..|--- .... ....|--- .... ....|--- .... ....
....|..|A#2 2FD7 ....|R-- .... ....|--- .... ....
....|..|D-2 2FDA ....|--- .... ....|--- .... ....
 G-4|..|G-2 2ADF ....|--- .... ....|--- .... ....
....|..|--- .... ....|--- .... ....|--- .... ....
....|..|D-2 2FD7 ....|--- .... ....|--- .... ....
....|..|G-2 2FDA ....|--- .... ....|--- .... ....
 D-4|..|D-2 2ADF ....|--- .... ....|--- .... ....
....|..|--- .... ....|--- .... ....|--- .... ....
....|..|G-2 2FD7 ....|--- .... ....|--- .... ....
....|..|D-2 2FDA ....|--- .... ....|--- .... ....
 F-3|..|F-1 2ADF ....|F-4 6FFF ....|--- .... ....
....|..|--- .... ....|--- .... ....|--- .... ....
....|..|D-2 2FD7 ....|--- .... ....|--- .... ....
....|..|F-1 2FDA ....|F-4 6FFA ....|--- .... ....
 C-4|..|C-2 2ADF ....|G-4 6FFF ....|--- .... ....
....|..|--- .... ....|--- .... ....|--- .... ....
....|..|F-1 2FD7 ....|F-4 6FF7 ....|--- .... ....
....|..|C-2 2FDA ....|G-4 6FFA ....|--- .... ....
 F-4|..|F-2 2ADF ....|A#4 6FFF ....|--- .... ....
....|..|--- .... ....|--- .... ....|--- .... ....
....|..|C-2 2FD7 ....|G-4 6FF7 ....|--- .... ....
....|..|F-2 2FDA ....|A#4 6FFA ....|--- .... ....
 C-4|..|C-2 2ADF ....|G-4 6FFF ....|--- .... ....
....|..|--- .... ....|--- .... ....|--- .... ....
....|..|F-2 2FD7 ....|A#4 6FF7 ....|--- .... ....
....|..|C-2 2FDA ....|G-4 6FFA ....|--- .... ....
 A-3|..|A-2 2CDF ....|R-- .... ....|--- .... ....
....|..|--- .... ....|--- .... ....|--- .... ....
....|..|C-2 2FD7 ....|G-4 6FF7 ....|--- .... ....
....|..|A-2 2FDA ....|R-- .... ....|--- .... ....
 C-4|..|C-2 2ADF ....|--- .... ....|--- .... ....
....|..|--- .... ....|--- .... ....|--- .... ....
....|..|A-2 2FD7 ....|R-- .... ....|--- .... ....
....|..|C-2 2FDA ....|--- .... ....|--- .... ....
 F-4|..|F-2 2ADF ....|--- .... ....|--- .... ....
....|..|--- .... ....|--- .... ....|--- .... ....
....|..|C-2 2FD7 ....|--- .... ....|--- .... ....
....|..|F-2 2FDA ....|--- .... ....|--- .... ....
 C-4|..|C-2 2ADF ....|--- .... ....|--- .... ....
....|..|--- .... ....|--- .... ....|--- .... ....
....|..|F-2 2FD7 ....|--- .... ....|--- .... ....
....|..|C-2 2FDA ....|--- .... ....|--- .... ....

[Pattern43]
 E-3|..|E-1 2ADF ....|D-4 6FFF ....|--- .... ....
....|..|--- .... ....|--- .... ....|--- .... ....
....|..|C-2 2FD7 ....|--- .... ....|--- .... ....
....|..|E-1 2FDA ....|D-4 6FFA ....|--- .... ....
 C-4|..|C-2 2ADF ....|C-4 6FFF ....|--- .... ....
....|..|--- .... ....|--- .... ....|--- .... ....
....|..|E-1 2FD7 ....|D-4 6FF7 ....|--- .... ....
....|..|C-2 2FDA ....|C-4 6FFA ....|--- .... ....
 E-4|..|E-2 2ADF ....|A#3 6FFF ....|--- .... ....
....|..|--- .... ....|--- .... ....|--- .... ....
....|..|C-2 2FD7 ....|C-4 6FF7 ....|--- .... ....
....|..|E-2 2FDA ....|A#3 6FFA ....|--- .... ....
 C-4|..|C-2 2ADF ....|G-3 6FFF ....|--- .... ....
....|..|--- .... ....|--- .... ....|--- .... ....
....|..|E-2 2FD7 ....|A#3 6FF7 ....|--- .... ....
....|..|C-2 2FDA ....|G-3 6FFA ....|--- .... ....
 G-4|..|G-2 2ADF ....|R-- .... ....|--- .... ....
....|..|--- .... ....|--- .... ....|--- .... ....
....|..|C-2 2FD7 ....|G-3 6FF7 ....|--- .... ....
....|..|G-2 2FDA ....|R-- .... ....|--- .... ....
 C-4|..|C-2 2ADF ....|--- .... ....|--- .... ....
....|..|--- .... ....|--- .... ....|--- .... ....
....|..|G-2 2FD7 ....|R-- .... ....|--- .... ....
....|..|C-2 2FDA ....|--- .... ....|--- .... ....
 E-4|..|E-2 2ADF ....|--- .... ....|--- .... ....
....|..|--- .... ....|--- .... ....|--- .... ....
....|..|C-2 2FD7 ....|--- .... ....|--- .... ....
....|..|E-2 2FDA ....|--- .... ....|--- .... ....
 C-4|..|C-2 2ADF ....|--- .... ....|--- .... ....
....|..|--- .... ....|--- .... ....|--- .... ....
....|..|E-2 2FD7 ....|--- .... ....|--- .... ....
....|..|C-2 2FDA ....|--- .... ....|--- .... ....
 A#3|..|A#2 2CDF ....|A#3 6FFF ....|--- .... ....
....|..|--- .... ....|--- .... ....|--- .... ....
....|..|C-2 2FD7 ....|--- .... ....|--- .... ....
....|..|A#2 2FDA ....|A#3 6FFA ....|--- .... ....
 A#3|..|A#2 2CDF ....|A#3 6FFF ....|--- .... ....
....|..|--- .... ....|--- .... ....|--- .... ....
....|..|A#2 2FD7 ....|A#3 6FF7 ....|--- .... ....
....|..|A#2 2FDA ....|A#3 6FFA ....|--- .... ....
 C-3|..|C-3 2CDF ....|C-4 6FFF ....|--- .... ....
....|..|--- .... ....|--- .... ....|--- .... ....
....|..|A#2 2FD7 ....|A#3 6FF7 ....|--- .... ....
....|..|C-3 2FDA ....|C-4 6FFA ....|--- .... ....
 C-3|..|C-3 2CDF ....|C-4 6FFF ....|--- .... ....
....|..|--- .... ....|--- .... ....|--- .... ....
....|..|C-3 2FD7 ....|C-4 6FF7 ....|--- .... ....
....|..|C-3 2FDA ....|C-4 6FFA ....|--- .... ....
 G-4|..|G-2 2ADF ....|G-3 6FFF ....|--- .... ....
....|..|--- .... ....|--- .... ....|--- .... ....
....|..|C-3 2FD7 ....|C-4 6FF7 ....|--- .... ....
....|..|G-2 2FDA ....|G-3 6FFA ....|--- .... ....
 G-4|..|G-2 2ADF ....|G-3 6FFF ....|--- .... ....
....|..|--- .... ....|--- .... ....|--- .... ....
....|..|G-2 2FD7 ....|G-3 6FF7 ....|--- .... ....
....|..|G-2 2FDA ....|G-3 6FFA ....|--- .... ....
 G-4|..|G-2 2ADF ....|G-3 6FFF ....|--- .... ....
....|..|--- .... ....|--- .... ....|--- .... ....
....|..|G-2 2FD7 ....|G-3 6FF7 ....|--- .... ....
....|..|G-2 2FDA ....|G-3 6FFA ....|--- .... ....
 G-4|..|G-2 2ADF ....|G-3 6FFF ....|--- .... ....
....|..|--- .... ....|--- .... ....|--- .... ....
....|..|G-2 2FD7 ....|G-3 6FF7 ....|--- .... ....
....|..|G-2 2FDA ....|G-3 6FFA ....|--- .... ....

[Pattern44]
 G-3|..|G-1 2ADF ....|D-5 6FFF ....|--- .... ....
....|..|--- .... ....|--- .... ....|--- .... ....
....|..|G-2 2FD7 ....|G-3 6FF7 ....|--- .... ....
....|..|G-1 2FDA ....|D-5 6FFA ....|--- .... ....
 D-4|..|D-2 2ADF ....|C-5 6FFF ....|--- .... ....
....|..|--- .... ....|--- .... ....|--- .... ....
....|..|G-1 2FD7 ....|D-5 6FF7 ....|--- .... ....
....|..|D-2 2FDA ....|C-5 6FFA ....|--- .... ....
 G-4|..|G-2 2ADF ....|A#4 6FFF ....|--- .... ....
....|..|--- .... ....|--- .... ....|--- .... ....
....|..|D-2 2FD7 ....|C-5 6FF7 ....|--- .... ....
....|..|G-2 2FDA ....|A#4 6FFA ....|--- .... ....
 D-4|..|D-2 2ADF ....|G-4 6FFF ....|--- .... ....
....|..|--- .... ....|--- .... ....|--- .... ....
....|..|G-2 2FD7 ....|A#4 6FF7 ....|--- .... ....
....|..|D-2 2FDA ....|G-4 6FFA ....|--- .... ....
 A#3|..|A#2 2CDF ....|D-4 6FFF ....|--- .... ....
....|..|--- .... ....|--- .... ....|--- .... ....
....|..|D-2 2FD7 ....|G-4 6FF7 ....|--- .... ....
....|..|A#2 2FDA ....|D-4 6FFA ....|--- .... ....
 D-4|..|D-2 2ADF ....|C-4 6FFF ....|--- .... ....
....|..|--- .... ....|--- .... ....|--- .... ....
....|..|A#2 2FD7 ....|D-4 6FF7 ....|--- .... ....
....|..|D-2 2FDA ....|C-4 6FFA ....|--- .... ....
 G-4|..|G-2 2ADF ....|A#3 6FFF ....|--- .... ....
....|..|--- .... ....|--- .... ....|--- .... ....
....|..|D-2 2FD7 ....|C-4 6FF7 ....|--- .... ....
....|..|G-2 2FDA ....|A#3 6FFA ....|--- .... ....
 D-4|..|D-2 2ADF ....|G-3 6FFF ....|--- .... ....
....|..|--- .... ....|--- .... ....|--- .... ....
....|..|G-2 2FD7 ....|A#3 6FF7 ....|--- .... ....
....|..|D-2 2FDA ....|G-3 6FFA ....|--- .... ....
 F-3|..|F-1 2ADF ....|F-4 6FFF ....|--- .... ....
....|..|--- .... ....|--- .... ....|--- .... ....
....|..|D-2 2FD7 ....|G-3 6FF7 ....|--- .... ....
....|..|F-1 2FDA ....|F-4 6FFA ....|--- .... ....
 C-4|..|C-2 2ADF ....|G-4 6FFF ....|--- .... ....
....|..|--- .... ....|--- .... ....|--- .... ....
....|..|F-1 2FD7 ....|F-4 6FF7 ....|--- .... ....
....|..|C-2 2FDA ....|G-4 6FFA ....|--- .... ....
 F-4|..|F-2 2ADF ....|A#4 6FFF ....|--- .... ....
....|..|--- .... ....|--- .... ....|--- .... ....
....|..|C-2 2FD7 ....|G-4 6FF7 ....|--- .... ....
....|..|F-2 2FDA ....|A#4 6FFA ....|--- .... ....
 C-4|..|C-2 2ADF ....|G-4 6FFF ....|--- .... ....
....|..|--- .... ....|--- .... ....|--- .... ....
....|..|F-2 2FD7 ....|A#4 6FF7 ....|--- .... ....
....|..|C-2 2FDA ....|G-4 6FFA ....|--- .... ....
 A-3|..|A-2 2CDF ....|F-3 6FFF ....|--- .... ....
....|..|--- .... ....|--- .... ....|--- .... ....
....|..|C-2 2FD7 ....|G-4 6FF7 ....|--- .... ....
....|..|A-2 2FDA ....|F-3 6FFA ....|--- .... ....
 C-4|..|C-2 2ADF ....|G-3 6FFF ....|--- .... ....
....|..|--- .... ....|--- .... ....|--- .... ....
....|..|A-2 2FD7 ....|F-3 6FF7 ....|--- .... ....
....|..|C-2 2FDA ....|G-3 6FFA ....|--- .... ....
 F-4|..|F-2 2ADF ....|A#3 6FFF ....|--- .... ....
....|..|--- .... ....|--- .... ....|--- .... ....
....|..|C-2 2FD7 ....|G-3 6FF7 ....|--- .... ....
....|..|F-2 2FDA ....|A#3 6FFA ....|--- .... ....
 C-4|..|C-2 2ADF ....|G-3 6FFF ....|--- .... ....
....|..|--- .... ....|--- .... ....|--- .... ....
....|..|F-2 2FD7 ....|A#3 6FF7 ....|--- .... ....
....|..|C-2 2FDA ....|G-3 6FFA ....|--- .... ....

[Pattern45]
 E-3|..|E-1 2ADF ....|D-4 6FFF ....|--- .... ....
....|..|--- .... ....|--- .... ....|--- .... ....
....|..|C-2 2FD7 ....|G-3 6FF7 ....|--- .... ....
....|..|E-1 2FDA ....|D-4 6FFA ....|--- .... ....
 C-4|..|C-2 2ADF ....|C-4 6FFF ....|--- .... ....
....|..|--- .... ....|--- .... ....|--- .... ....
....|..|E-1 2FD7 ....|D-4 6FF7 ....|--- .... ....
....|..|C-2 2FDA ....|C-4 6FFA ....|--- .... ....
 E-4|..|E-2 2ADF ....|A#3 6FFF ....|--- .... ....
....|..|--- .... ....|--- .... ....|--- .... ....
....|..|C-2 2FD7 ....|C-4 6FF7 ....|--- .... ....
....|..|E-2 2FDA ....|A#3 6FFA ....|--- .... ....
 C-4|..|C-2 2ADF ....|G-3 6FFF ....|--- .... ....
....|..|--- .... ....|--- .... ....|--- .... ....
....|..|E-2 2FD7 ....|A#3 6FF7 ....|--- .... ....
....|..|C-2 2FDA ....|G-3 6FFA ....|--- .... ....
 G-4|..|G-2 2ADF ....|D-5 6FFF ....|--- .... ....
....|..|--- .... ....|--- .... ....|--- .... ....
....|..|C-2 2FD7 ....|G-3 6FF7 ....|--- .... ....
....|..|G-2 2FDA ....|D-5 6FFA ....|--- .... ....
 C-4|..|C-2 2ADF ....|C-5 6FFF ....|--- .... ....
....|..|--- .... ....|--- .... ....|--- .... ....
....|..|G-2 2FD7 ....|D-5 6FF7 ....|--- .... ....
....|..|C-2 2FDA ....|C-5 6FFA ....|--- .... ....
 E-4|..|E-2 2ADF ....|A#4 6FFF ....|--- .... ....
....|..|--- .... ....|--- .... ....|--- .... ....
....|..|C-2 2FD7 ....|C-5 6FF7 ....|--- .... ....
....|..|E-2 2FDA ....|A#4 6FFA ....|--- .... ....
 C-4|..|C-2 2ADF ....|G-4 6FFF ....|--- .... ....
....|..|--- .... ....|--- .... ....|--- .... ....
....|..|E-2 2FD7 ....|A#4 6FF7 ....|--- .... ....
....|..|C-2 2FDA ....|G-4 6FFA ....|--- .... ....
 D#3|..|D#1 2ADF ....|G-4 6FFF ....|--- .... ....
....|..|--- .... ....|--- .... ....|--- .... ....
....|..|C-2 2FD7 ....|G-4 6FF7 ....|--- .... ....
....|..|D#1 2FDA ....|G-4 6FFA ....|--- .... ....
 A#3|..|A#1 2ADF ....|G-4 6FFF ....|--- .... ....
....|..|--- .... ....|--- .... ....|--- .... ....
....|..|D#1 2FD7 ....|G-4 6FF7 ....|--- .... ....
....|..|A#1 2FDA ....|G-4 6FFA ....|--- .... ....
 D#4|..|D#2 2ADF ....|G-4 6FFF ....|--- .... ....
....|..|--- .... ....|--- .... ....|--- .... ....
....|..|A#1 2FD7 ....|G-4 6FF7 ....|--- .... ....
....|..|D#2 2FDA ....|G-4 6FFA ....|--- .... ....
 A#3|..|A#1 2ADF ....|G-4 6FFF ....|--- .... ....
....|..|--- .... ....|--- .... ....|--- .... ....
....|..|D#2 2FD7 ....|G-4 6FF7 ....|--- .... ....
....|..|A#1 2FDA ....|G-4 6FFA ....|--- .... ....
 G-4|..|G-2 2ADF ....|R-- .... ....|--- .... ....
....|..|--- .... ....|--- .... ....|--- .... ....
....|..|A#1 2FD7 ....|G-4 6FF7 ....|--- .... ....
....|..|G-2 2FDA ....|R-- .... ....|--- .... ....
 G-4|..|G-2 2ADF ....|--- .... ....|--- .... ....
....|..|--- .... ....|--- .... ....|--- .... ....
....|..|G-2 2FD7 ....|R-- .... ....|--- .... ....
....|..|G-2 2FDA ....|--- .... ....|--- .... ....
 G-4|..|G-2 2ADF ....|--- .... ....|--- .... ....
....|..|--- .... ....|--- .... ....|--- .... ....
....|..|G-2 2FD7 ....|--- .... ....|--- .... ....
....|..|G-2 2FDA ....|--- .... ....|--- .... ....
 G-4|..|G-2 2ADF ....|--- .... ....|--- .... ....
....|..|--- .... ....|--- .... ....|--- .... ....
....|..|G-2 2FD7 ....|--- .... ....|--- .... ....
....|..|G-2 2FDA ....|--- .... ....|--- .... ....

[Pattern46]
....|..|R-- .... ....|--- .... ....|--- .... ....
....|..|--- .... ....|--- .... ....|--- .... ....
....|..|G-2 2FD7 ....|--- .... ....|--- .... ....
....|..|R-- .... ....|--- .... ....|--- .... ....
....|..|--- .... ....|--- .... ....|--- .... ....
....|..|--- .... ....|--- .... ....|--- .... ....
