[Module]
VortexTrackerII=0
Version=3.5
Title=./test/im_suli_full.mid
Author=oisee ^ 4d 29.05.2010
NoteTable=4
ChipFreq=1750000
Speed=3
PlayOrder=L2,3,4,5,6,7,8,9,10,11,12,13,14,15,16,17,18,19,20,21,20,23,24,25,26,27,28,29,30,31,32,33,34,35,36,37,38,39,40,41,42,43,42,45,46,47,17,49,50,51,52,53,54,55

[Ornament1]
L0

[Ornament2]
L0

[Ornament3]
L0

[Ornament4]
L0

[Ornament5]
L0

[Ornament6]
L0

[Ornament7]
L0

[Ornament8]
L0

[Ornament9]
L0

[Ornament10]
L0

[Ornament11]
L0

[Ornament12]
L0

[Ornament13]
L0

[Ornament14]
L0

[Ornament15]
L0

[Sample1]
TnE +000_ +00_ F_
TnE +000_ +00_ F_
TnE +000_ +00_ F_
TnE +000_ +00_ D_
TnE +000_ +00_ B_
TnE +000_ +00_ B_ L

[Sample2]
TnE +000_ +00_ F_ L

[Sample3]
TnE +001_ +00_ F_
TnE +002_ +00_ F_
TnE +001_ +00_ E_
TnE +002_ +00_ E_
TnE +000_ +00_ E_ L
TnE -001_ +00_ E_
TnE -002_ +00_ E_
TnE -001_ +00_ E_
TnE +000_ +00_ E_
TnE +001_ +00_ E_
TnE +002_ +00_ E_
TnE +001_ +00_ E_

[Sample4]
TnE +002_ +00_ D_
TnE +002_ +00_ D_
TnE +002_ +00_ C_
TnE +002_ +00_ B_
TnE +002_ +00_ A_ L
TnE +002_ +00_ A_
TnE +002_ +00_ A_
TnE +002_ +00_ A_
TnE +002_ +00_ A_
TnE +002_ +00_ A_
TnE +002_ +00_ A_
TnE +002_ +00_ A_

[Sample5]
TnE +000_ +00_ F_
TnE +000_ +00_ F_
tne +000_ +00_ 0_ L

[Sample6]
TnE -001_ +00_ F_ L

[Sample7]
TnE +006_ +00_ F_ L

[Sample8]
tNe +000_ +00_ F_
tNe +000_ +00_ B_
tNe +000_ +00_ 7_
tNe +000_ +00_ 6- L

[Sample9]
TnE +080_ +00_ F_
TnE +100_ +00_ E_
TnE +180_ +00_ E_
TnE +200_ +00_ E_
TnE +240_ +00_ D_
TnE +280_ +00_ D_
TnE +2C0_ +00_ D_
TnE +300_ +00_ C_
TnE +300_ +00_ C_
TnE +340_ +00_ C_
TnE +340_ +00_ C_
TnE +380_ +00_ B_
TnE +380_ +00_ B_
TnE +400_ +00_ B_
TnE +400_ +00_ B_
TnE +480_ +00_ A_
TnE +500_ +00_ 9_
TnE +580_ +00_ 7_
TnE +600_ +00_ 4_
TnE +680_ +00_ 1_
TnE +000_ +00_ 0_ L

[Sample10]
Tne +1C0_ +00_ F_
Tne +280_ +00_ E_
Tne +380_ +00_ C_
Tne +440_ +00_ A_
Tne +480_ +00_ 8_
TnE +000_ +00_ 0_ L

[Sample11]
TNe +200_ -0A_ F_
tNe +000_ +0F_ A_
TNe +200_ -07_ E_
tNe +000_ +0E_ B- L

[Sample12]
TNE +0A0_ +05_ F_
TNE +140_ +02_ D_
TNE +140_ +02_ B_
TNE +100_ +00_ A_ L
TNE +140_ +00_ A_
TNE +200_ +00_ A-

[Sample13]
Tne +200_ +00_ F_
Tne +2C0_ +00_ F_
Tne +380_ +00_ E_
Tne +500_ +00_ C_
Tne +520_ +00_ 9_
tne +000_ +00_ 0_ L

[Sample14]
TNE -100_ +00_ F_
TNE -100_ +00_ D_
TNE -100_ +00_ A_
TNE -100_ +00_ 5_
tne +000_ +00_ 0_ L

[Sample15]
TNE -100_ +00_ 5_
TNE -100_ +00_ 8_
TNE -100_ +00_ B_
TNE -100_ +00_ F_
TNe -100_ +00_ 9- L

[Sample16]
TnE +000_ +00_ C_
TnE +000_ +00_ E_
TnE +000_ +00_ F_
TnE +000_ +00_ F_
TnE +000_ +00_ E_
TnE +000_ +00_ D_
TnE +000_ +00_ C_
TnE +000_ +00_ C_ L
TnE +001_ +00_ C_
TnE +002_ +00_ C_
TnE +003_ +00_ C_
TnE +001_ +00_ C_
TnE +000_ +00_ C_
TnE -001_ +00_ C_
TnE -002_ +00_ C_
TnE -003_ +00_ C_
TnE -001_ +00_ C_
TnE +000_ +00_ C_
TnE +000_ +00_ C_

[Sample17]
Tne +1C0_ +00_ F_
Tne +280_ +00_ D_
Tne +380_ +00_ 7_
TNE +000_ +00_ 0_ L

[Sample18]
TnE -00C_ +00_ 0_ L

[Sample19]
TNe +000_ +00_ F_
TNe +000_ +00_ C_
TNe +000_ +00_ 6_
TNe +000_ +01_ A- L

[Sample20]
TNE +140_ +00_ F_
tNE +000_ +00_ B- L

[Sample21]
tNE +000_ +00_ D_
tNE +000_ +00_ 8_
tNE +000_ +00_ 1_
TNE +000_ +00_ 0_ L

[Sample22]
TnE +000_ +00_ D_ L
TnE +000_ +00_ D_
tne +000_ +00_ 9_
tne +000_ +00_ 9_
TnE +000_ +00_ D_
TnE +000_ +00_ D_
tne +000_ +00_ 9_
tne +000_ +00_ 9_
TnE +000_ +00_ D_
TnE +000_ +00_ D_
TnE +000_ +00_ D_
TnE +000_ +00_ D_
TnE +000_ +00_ D_
TnE +000_ +00_ D_
tne +000_ +00_ 9_
tne +000_ +00_ 9_

[Sample23]
TnE +000_ +00_ F_ L
TnE +010_ +01_ F_
TnE +010_ +01_ F_
TnE +010_ +01_ F_
TnE +010_ +01_ F_
TnE +000_ +00_ F_
TnE +000_ +00_ F_
TnE -010_ -01_ F_
TnE -010_ -01_ F_
TnE -010_ -01_ F_
TnE -010_ -01_ F_
TnE +000_ +00_ F_

[Sample24]
TNe +000_ -01_ C_
TNe +000_ -01_ D_
TNe +000_ -01_ E_
TNe +000_ -01_ F_
TNe +000_ -01_ F_
TNe +000_ -01_ F_
TNe +000_ -01_ F_
TNe +000_ -01_ F_
TNe +000_ -01_ E_
TNe +000_ -01_ E_
TNe +000_ -01_ E_
TNe +000_ -01_ F_
TNe +000_ -01_ F_ L

[Sample25]
TNE +000_ +00_ F_
TNE +000_ +00_ F_ L
TNE +000_ +00_ F_
TNE +000_ +00_ F_
TNE +000_ +00_ F-

[Sample26]
tne +000_ +00_ 0_ L

[Sample27]
TnE +100_ +05_ F_
TnE +200_ +02_ A_
TnE +300_ +02_ 7_
TNE +400_ +00_ 3- L

[Sample28]
tne +000_ +00_ 0_ L

[Sample29]
tnE +000_ +00_ 0_ L

[Sample30]
TNE +000_ +00_ C+ L

[Sample31]
TNe +1C0_ +00_ F_
Tne +280_ +00_ E_
Tne +380_ +00_ C_
Tne +440_ +00_ A_
Tne +480_ +00_ 8_
TnE +000_ +00_ 0_ L

[Pattern0]
....|..|--- .... ....|--- .... ....|--- .... ....
....|..|--- .... ....|--- .... ....|--- .... ....
....|..|--- .... ....|--- .... ....|--- .... ....
....|..|--- .... ....|--- .... ....|--- .... ....
....|..|--- .... ....|--- .... ....|--- .... ....
....|..|--- .... ....|--- .... ....|--- .... ....
....|..|--- .... ....|--- .... ....|--- .... ....
....|..|--- .... ....|--- .... ....|--- .... ....
....|..|--- .... ....|--- .... ....|--- .... ....
....|..|--- .... ....|--- .... ....|--- .... ....
....|..|--- .... ....|--- .... ....|--- .... ....
....|..|--- .... ....|--- .... ....|--- .... ....
....|..|--- .... ....|--- .... ....|--- .... ....
....|..|--- .... ....|--- .... ....|--- .... ....
....|..|--- .... ....|--- .... ....|--- .... ....
....|..|--- .... ....|--- .... ....|--- .... ....
....|..|--- .... ....|--- .... ....|--- .... ....
....|..|--- .... ....|--- .... ....|--- .... ....
....|..|--- .... ....|--- .... ....|--- .... ....
....|..|--- .... ....|--- .... ....|--- .... ....
....|..|--- .... ....|--- .... ....|--- .... ....
....|..|--- .... ....|--- .... ....|--- .... ....
....|..|--- .... ....|--- .... ....|--- .... ....
....|..|--- .... ....|--- .... ....|--- .... ....
....|..|--- .... ....|--- .... ....|--- .... ....
....|..|--- .... ....|--- .... ....|--- .... ....
....|..|--- .... ....|--- .... ....|--- .... ....
....|..|--- .... ....|--- .... ....|--- .... ....
....|..|--- .... ....|--- .... ....|--- .... ....
....|..|--- .... ....|--- .... ....|--- .... ....
....|..|--- .... ....|--- .... ....|--- .... ....
....|..|--- .... ....|--- .... ....|--- .... ....
....|..|--- .... ....|--- .... ....|--- .... ....
....|..|--- .... ....|--- .... ....|--- .... ....
....|..|--- .... ....|--- .... ....|--- .... ....
....|..|--- .... ....|--- .... ....|--- .... ....
....|..|--- .... ....|--- .... ....|--- .... ....
....|..|--- .... ....|--- .... ....|--- .... ....
....|..|--- .... ....|--- .... ....|--- .... ....
....|..|--- .... ....|--- .... ....|--- .... ....
....|..|--- .... ....|--- .... ....|--- .... ....
....|..|--- .... ....|--- .... ....|--- .... ....
....|..|--- .... ....|--- .... ....|--- .... ....
....|..|--- .... ....|--- .... ....|--- .... ....
....|..|--- .... ....|--- .... ....|--- .... ....
....|..|--- .... ....|--- .... ....|--- .... ....
....|..|--- .... ....|--- .... ....|--- .... ....
....|..|--- .... ....|--- .... ....|--- .... ....
....|..|--- .... ....|--- .... ....|--- .... ....
....|..|--- .... ....|--- .... ....|--- .... ....
....|..|--- .... ....|--- .... ....|--- .... ....
....|..|--- .... ....|--- .... ....|--- .... ....
....|..|--- .... ....|--- .... ....|--- .... ....
....|..|--- .... ....|--- .... ....|--- .... ....
....|..|--- .... ....|--- .... ....|--- .... ....
....|..|--- .... ....|--- .... ....|--- .... ....
....|..|--- .... ....|--- .... ....|--- .... ....
....|..|--- .... ....|--- .... ....|--- .... ....
....|..|--- .... ....|--- .... ....|--- .... ....
....|..|--- .... ....|--- .... ....|--- .... ....
....|..|--- .... ....|--- .... ....|--- .... ....
....|..|--- .... ....|--- .... ....|--- .... ....
....|..|--- .... ....|--- .... ....|--- .... ....
....|..|--- .... ....|--- .... ....|--- .... ....
....|..|--- .... ....|--- .... ....|--- .... ....
....|..|--- .... ....|--- .... ....|--- .... ....
....|..|--- .... ....|--- .... ....|--- .... ....
....|..|--- .... ....|--- .... ....|--- .... ....
....|..|--- .... ....|--- .... ....|--- .... ....
....|..|--- .... ....|--- .... ....|--- .... ....
....|..|--- .... ....|--- .... ....|--- .... ....
....|..|--- .... ....|--- .... ....|--- .... ....
....|..|--- .... ....|--- .... ....|--- .... ....
....|..|--- .... ....|--- .... ....|--- .... ....
....|..|--- .... ....|--- .... ....|--- .... ....
....|..|--- .... ....|--- .... ....|--- .... ....
....|..|--- .... ....|--- .... ....|--- .... ....
....|..|--- .... ....|--- .... ....|--- .... ....
....|..|--- .... ....|--- .... ....|--- .... ....
....|..|--- .... ....|--- .... ....|--- .... ....
....|..|--- .... ....|--- .... ....|--- .... ....
....|..|--- .... ....|--- .... ....|--- .... ....
....|..|--- .... ....|--- .... ....|--- .... ....
....|..|--- .... ....|--- .... ....|--- .... ....
....|..|--- .... ....|--- .... ....|--- .... ....
....|..|--- .... ....|--- .... ....|--- .... ....
....|..|--- .... ....|--- .... ....|--- .... ....
....|..|--- .... ....|--- .... ....|--- .... ....
....|..|--- .... ....|--- .... ....|--- .... ....
....|..|--- .... ....|--- .... ....|--- .... ....
....|..|--- .... ....|--- .... ....|--- .... ....
....|..|--- .... ....|--- .... ....|--- .... ....
....|..|--- .... ....|--- .... ....|--- .... ....
....|..|--- .... ....|--- .... ....|--- .... ....
....|..|--- .... ....|--- .... ....|--- .... ....
....|..|--- .... ....|--- .... ....|--- .... ....
....|..|--- .... ....|--- .... ....|--- .... ....
....|..|--- .... ....|--- .... ....|--- .... ....
....|..|--- .... ....|--- .... ....|--- .... ....
....|..|--- .... ....|--- .... ....|--- .... ....
....|..|--- .... ....|--- .... ....|--- .... ....
....|..|--- .... ....|--- .... ....|--- .... ....
....|..|--- .... ....|--- .... ....|--- .... ....
....|..|--- .... ....|--- .... ....|--- .... ....
....|..|--- .... ....|--- .... ....|--- .... ....
....|..|--- .... ....|--- .... ....|--- .... ....
....|..|--- .... ....|--- .... ....|--- .... ....
....|..|--- .... ....|--- .... ....|--- .... ....
....|..|--- .... ....|--- .... ....|--- .... ....
....|..|--- .... ....|--- .... ....|--- .... ....
....|..|--- .... ....|--- .... ....|--- .... ....
....|..|--- .... ....|--- .... ....|--- .... ....
....|..|--- .... ....|--- .... ....|--- .... ....
....|..|--- .... ....|--- .... ....|--- .... ....
....|..|--- .... ....|--- .... ....|--- .... ....
....|..|--- .... ....|--- .... ....|--- .... ....
....|..|--- .... ....|--- .... ....|--- .... ....
....|..|--- .... ....|--- .... ....|--- .... ....
....|..|--- .... ....|--- .... ....|--- .... ....
....|..|--- .... ....|--- .... ....|--- .... ....
....|..|--- .... ....|--- .... ....|--- .... ....
....|..|--- .... ....|--- .... ....|--- .... ....
....|..|--- .... ....|--- .... ....|--- .... ....
....|..|--- .... ....|--- .... ....|--- .... ....
....|..|--- .... ....|--- .... ....|--- .... ....
....|..|--- .... ....|--- .... ....|--- .... ....
....|..|--- .... ....|--- .... ....|--- .... ....
....|..|--- .... ....|--- .... ....|--- .... ....

[Pattern2]
....|..|R-- .... ....|F-3 2F.F ....|R-- .... ....
....|..|--- .... ....|--- .... ....|--- .... ....
....|..|--- .... ....|G#3 2F.F ....|--- .... ....
....|..|--- .... ....|--- .... ....|--- .... ....
....|..|--- .... ....|A#3 2F.F ....|--- .... ....
....|..|--- .... ....|--- .... ....|--- .... ....
....|..|--- .... ....|C-4 2F.F ....|--- .... ....
....|..|--- .... ....|--- .... ....|--- .... ....
....|..|--- .... ....|D#4 2F.F ....|--- .... ....
....|..|--- .... ....|--- .... ....|--- .... ....
....|..|--- .... ....|F-4 2F.F ....|--- .... ....
....|..|--- .... ....|--- .... ....|--- .... ....
....|..|--- .... ....|G#4 2F.F ....|--- .... ....
....|..|--- .... ....|--- .... ....|--- .... ....
....|..|--- .... ....|F-4 2F.F ....|--- .... ....
....|..|--- .... ....|--- .... ....|--- .... ....
....|..|--- .... ....|A#3 2F.A ....|--- .... ....
....|..|--- .... ....|--- .... ....|--- .... ....
....|..|--- .... ....|C-4 2F.A ....|--- .... ....
....|..|--- .... ....|--- .... ....|--- .... ....
....|..|--- .... ....|D#4 2F.A ....|--- .... ....
....|..|--- .... ....|--- .... ....|--- .... ....
....|..|--- .... ....|F-4 2F.A ....|--- .... ....
....|..|--- .... ....|--- .... ....|--- .... ....
....|..|--- .... ....|F-3 2F.7 ....|--- .... ....
....|..|--- .... ....|--- .... ....|--- .... ....
....|..|--- .... ....|G#3 2F.7 ....|--- .... ....
....|..|--- .... ....|--- .... ....|--- .... ....
....|..|--- .... ....|A#3 2F.7 ....|--- .... ....
....|..|--- .... ....|--- .... ....|--- .... ....
....|..|--- .... ....|C-4 2F.7 ....|--- .... ....
....|..|--- .... ....|--- .... ....|--- .... ....
....|..|--- .... ....|F-3 2F.F ....|--- .... ....
....|..|--- .... ....|--- .... ....|--- .... ....
....|..|--- .... ....|G#3 2F.F ....|--- .... ....
....|..|--- .... ....|--- .... ....|--- .... ....
....|..|--- .... ....|A#3 2F.F ....|--- .... ....
....|..|--- .... ....|--- .... ....|--- .... ....
....|..|--- .... ....|C-4 2F.F ....|--- .... ....
....|..|--- .... ....|--- .... ....|--- .... ....
....|..|--- .... ....|D#4 2F.F ....|--- .... ....
....|..|--- .... ....|--- .... ....|--- .... ....
....|..|--- .... ....|F-4 2F.F ....|--- .... ....
....|..|--- .... ....|--- .... ....|--- .... ....
....|..|--- .... ....|G#4 2F.F ....|--- .... ....
....|..|--- .... ....|--- .... ....|--- .... ....
....|..|--- .... ....|F-4 2F.F ....|--- .... ....
....|..|--- .... ....|--- .... ....|--- .... ....
....|..|--- .... ....|R-- .... ....|--- .... ....
....|..|--- .... ....|--- .... ....|--- .... ....
....|..|--- .... ....|C-4 2F.A ....|--- .... ....
....|..|--- .... ....|--- .... ....|--- .... ....
....|..|--- .... ....|G#4 2F.F ....|--- .... ....
....|..|--- .... ....|--- .... ....|--- .... ....
....|..|--- .... ....|R-- .... ....|--- .... ....
....|..|--- .... ....|--- .... ....|--- .... ....
....|..|--- .... ....|F-3 2F.7 ....|--- .... ....
....|..|--- .... ....|--- .... ....|--- .... ....
....|..|--- .... ....|G#3 2F.7 ....|--- .... ....
....|..|--- .... ....|--- .... ....|--- .... ....
....|..|--- .... ....|A#3 2F.7 ....|--- .... ....
....|..|--- .... ....|--- .... ....|--- .... ....
....|..|--- .... ....|C-4 2F.7 ....|--- .... ....
....|..|--- .... ....|--- .... ....|--- .... ....
....|..|--- .... ....|F-3 2F.F ....|--- .... ....
....|..|--- .... ....|--- .... ....|--- .... ....
....|..|--- .... ....|G#3 2F.F ....|--- .... ....
....|..|--- .... ....|--- .... ....|--- .... ....
....|..|--- .... ....|A#3 2F.F ....|--- .... ....
....|..|--- .... ....|--- .... ....|--- .... ....
....|..|--- .... ....|C-4 2F.F ....|--- .... ....
....|..|--- .... ....|--- .... ....|--- .... ....
....|..|--- .... ....|D#4 2F.F ....|--- .... ....
....|..|--- .... ....|--- .... ....|--- .... ....
....|..|--- .... ....|F-4 2F.F ....|--- .... ....
....|..|--- .... ....|--- .... ....|--- .... ....
....|..|--- .... ....|G#4 2F.F ....|--- .... ....
....|..|--- .... ....|--- .... ....|--- .... ....
....|..|--- .... ....|F-4 2F.F ....|--- .... ....
....|..|--- .... ....|--- .... ....|--- .... ....
....|..|--- .... ....|A#3 2F.A ....|--- .... ....
....|..|--- .... ....|--- .... ....|--- .... ....
....|..|--- .... ....|C-4 2F.A ....|--- .... ....
....|..|--- .... ....|--- .... ....|--- .... ....
....|..|--- .... ....|D#4 2F.A ....|--- .... ....
....|..|--- .... ....|--- .... ....|--- .... ....
....|..|--- .... ....|F-4 2F.A ....|--- .... ....
....|..|--- .... ....|--- .... ....|--- .... ....
....|..|--- .... ....|F-3 2F.7 ....|--- .... ....
....|..|--- .... ....|--- .... ....|--- .... ....
....|..|--- .... ....|G#3 2F.7 ....|--- .... ....
....|..|--- .... ....|--- .... ....|--- .... ....
....|..|--- .... ....|A#3 2F.7 ....|--- .... ....
....|..|--- .... ....|--- .... ....|--- .... ....
....|..|--- .... ....|C-4 2F.7 ....|--- .... ....
....|..|--- .... ....|--- .... ....|--- .... ....
....|..|--- .... ....|F-3 2F.F ....|--- .... ....
....|..|--- .... ....|--- .... ....|--- .... ....
....|..|--- .... ....|G#3 2F.F ....|--- .... ....
....|..|--- .... ....|--- .... ....|--- .... ....
....|..|--- .... ....|A#3 2F.F ....|--- .... ....
....|..|--- .... ....|--- .... ....|--- .... ....
....|..|--- .... ....|C-4 2F.F ....|--- .... ....
....|..|--- .... ....|--- .... ....|--- .... ....
....|..|--- .... ....|D#4 2F.F ....|--- .... ....
....|..|--- .... ....|--- .... ....|--- .... ....
....|..|--- .... ....|F-4 2F.F ....|--- .... ....
....|..|--- .... ....|--- .... ....|--- .... ....
....|..|--- .... ....|G#4 2F.F ....|--- .... ....
....|..|--- .... ....|--- .... ....|--- .... ....
....|..|--- .... ....|A#3 2F.F ....|--- .... ....
....|..|--- .... ....|--- .... ....|--- .... ....
....|..|--- .... ....|R-- .... ....|--- .... ....
....|..|--- .... ....|--- .... ....|--- .... ....
....|..|--- .... ....|C-4 2F.A ....|--- .... ....
....|..|--- .... ....|--- .... ....|--- .... ....
....|..|--- .... ....|C-4 2F.F ....|--- .... ....
....|..|--- .... ....|--- .... ....|--- .... ....
....|..|--- .... ....|F-4 2F.A ....|--- .... ....
....|..|--- .... ....|--- .... ....|--- .... ....
....|..|--- .... ....|F-3 2F.7 ....|--- .... ....
....|..|--- .... ....|--- .... ....|--- .... ....
....|..|--- .... ....|G#3 2F.7 ....|--- .... ....
....|..|--- .... ....|--- .... ....|--- .... ....
....|..|--- .... ....|A#3 2F.7 ....|--- .... ....
....|..|--- .... ....|--- .... ....|--- .... ....
....|..|--- .... ....|C-4 2F.7 ....|--- .... ....
....|..|--- .... ....|--- .... ....|--- .... ....

[Pattern3]
....|..|--- .... ....|F-3 2F.F ....|--- .... ....
....|..|--- .... ....|--- .... ....|--- .... ....
....|..|--- .... ....|G#3 2F.F ....|--- .... ....
....|..|--- .... ....|--- .... ....|--- .... ....
....|..|--- .... ....|A#3 2F.F ....|--- .... ....
....|..|--- .... ....|--- .... ....|--- .... ....
....|..|--- .... ....|C-4 2F.F ....|--- .... ....
....|..|--- .... ....|--- .... ....|--- .... ....
....|..|--- .... ....|D#4 2F.F ....|--- .... ....
....|..|--- .... ....|--- .... ....|--- .... ....
....|..|--- .... ....|F-4 2F.F ....|--- .... ....
....|..|--- .... ....|--- .... ....|--- .... ....
....|..|--- .... ....|G#4 2F.F ....|--- .... ....
....|..|--- .... ....|--- .... ....|--- .... ....
....|..|--- .... ....|A#4 2F.F ....|--- .... ....
....|..|--- .... ....|--- .... ....|--- .... ....
....|..|--- .... ....|R-- .... ....|--- .... ....
....|..|--- .... ....|--- .... ....|--- .... ....
....|..|--- .... ....|C-4 2F.A ....|--- .... ....
....|..|--- .... ....|--- .... ....|--- .... ....
....|..|--- .... ....|D#4 2F.A ....|--- .... ....
....|..|--- .... ....|--- .... ....|--- .... ....
....|..|--- .... ....|F-4 2F.A ....|--- .... ....
....|..|--- .... ....|--- .... ....|--- .... ....
....|..|--- .... ....|F-3 2F.7 ....|--- .... ....
....|..|--- .... ....|--- .... ....|--- .... ....
....|..|--- .... ....|G#3 2F.7 ....|--- .... ....
....|..|--- .... ....|--- .... ....|--- .... ....
....|..|--- .... ....|A#3 2F.7 ....|--- .... ....
....|..|--- .... ....|--- .... ....|--- .... ....
....|..|--- .... ....|C-4 2F.7 ....|--- .... ....
....|..|--- .... ....|--- .... ....|--- .... ....
....|..|--- .... ....|F-3 2F.F ....|--- .... ....
....|..|--- .... ....|--- .... ....|--- .... ....
....|..|--- .... ....|G#3 2F.F ....|--- .... ....
....|..|--- .... ....|--- .... ....|--- .... ....
....|..|--- .... ....|A#3 2F.F ....|--- .... ....
....|..|--- .... ....|--- .... ....|--- .... ....
....|..|--- .... ....|C-4 2F.F ....|--- .... ....
....|..|--- .... ....|--- .... ....|--- .... ....
....|..|--- .... ....|D#4 2F.F ....|--- .... ....
....|..|--- .... ....|--- .... ....|--- .... ....
....|..|--- .... ....|F-4 2F.F ....|--- .... ....
....|..|--- .... ....|--- .... ....|--- .... ....
....|..|--- .... ....|G#4 2F.F ....|--- .... ....
....|..|--- .... ....|--- .... ....|--- .... ....
....|..|--- .... ....|B-4 2F.F ....|--- .... ....
....|..|--- .... ....|--- .... ....|--- .... ....
....|..|--- .... ....|R-- .... ....|--- .... ....
....|..|--- .... ....|--- .... ....|--- .... ....
....|..|--- .... ....|C-4 2F.A ....|--- .... ....
....|..|--- .... ....|--- .... ....|--- .... ....
....|..|--- .... ....|A#4 2F.F ....|--- .... ....
....|..|--- .... ....|--- .... ....|--- .... ....
....|..|--- .... ....|F-4 2F.A ....|--- .... ....
....|..|--- .... ....|--- .... ....|--- .... ....
....|..|--- .... ....|F-3 2F.7 ....|--- .... ....
....|..|--- .... ....|--- .... ....|--- .... ....
....|..|--- .... ....|G#3 2F.7 ....|--- .... ....
....|..|--- .... ....|--- .... ....|--- .... ....
....|..|--- .... ....|A#3 2F.7 ....|--- .... ....
....|..|--- .... ....|--- .... ....|--- .... ....
....|..|--- .... ....|C-4 2F.7 ....|--- .... ....
....|..|--- .... ....|--- .... ....|--- .... ....
....|..|--- .... ....|F-3 2F.F ....|--- .... ....
....|..|--- .... ....|--- .... ....|--- .... ....
....|..|--- .... ....|G#3 2F.F ....|--- .... ....
....|..|--- .... ....|--- .... ....|--- .... ....
....|..|--- .... ....|A#3 2F.F ....|--- .... ....
....|..|--- .... ....|--- .... ....|--- .... ....
....|..|--- .... ....|C-4 2F.F ....|--- .... ....
....|..|--- .... ....|--- .... ....|--- .... ....
....|..|--- .... ....|D#4 2F.F ....|--- .... ....
....|..|--- .... ....|--- .... ....|--- .... ....
....|..|--- .... ....|F-4 2F.F ....|--- .... ....
....|..|--- .... ....|--- .... ....|--- .... ....
....|..|--- .... ....|G#4 2F.F ....|--- .... ....
....|..|--- .... ....|--- .... ....|--- .... ....
....|..|--- .... ....|F-4 2F.F ....|--- .... ....
....|..|--- .... ....|--- .... ....|--- .... ....
....|..|--- .... ....|R-- .... ....|--- .... ....
....|..|--- .... ....|--- .... ....|--- .... ....
....|..|--- .... ....|C-4 2F.A ....|--- .... ....
....|..|--- .... ....|--- .... ....|--- .... ....
....|..|--- .... ....|D#4 2F.A ....|--- .... ....
....|..|--- .... ....|--- .... ....|--- .... ....
....|..|--- .... ....|F-4 2F.A ....|--- .... ....
....|..|--- .... ....|--- .... ....|--- .... ....
....|..|--- .... ....|F-3 2F.7 ....|--- .... ....
....|..|--- .... ....|--- .... ....|--- .... ....
....|..|--- .... ....|G#3 2F.7 ....|--- .... ....
....|..|--- .... ....|--- .... ....|--- .... ....
....|..|--- .... ....|A#3 2F.7 ....|--- .... ....
....|..|--- .... ....|--- .... ....|--- .... ....
....|..|--- .... ....|C-4 2F.7 ....|--- .... ....
....|..|--- .... ....|--- .... ....|--- .... ....
....|..|--- .... ....|F-3 2F.F ....|--- .... ....
....|..|--- .... ....|--- .... ....|--- .... ....
....|..|--- .... ....|G#3 2F.F ....|--- .... ....
....|..|--- .... ....|--- .... ....|--- .... ....
....|..|--- .... ....|A#3 2F.F ....|--- .... ....
....|..|--- .... ....|--- .... ....|--- .... ....
....|..|--- .... ....|C-4 2F.F ....|--- .... ....
....|..|--- .... ....|--- .... ....|--- .... ....
....|..|--- .... ....|D-4 2F.F ....|--- .... ....
....|..|--- .... ....|--- .... ....|--- .... ....
....|..|--- .... ....|D#4 2F.F ....|--- .... ....
....|..|--- .... ....|--- .... ....|--- .... ....
....|..|--- .... ....|F-4 2F.F ....|--- .... ....
....|..|--- .... ....|--- .... ....|--- .... ....
....|..|--- .... ....|G#4 2F.F ....|--- .... ....
....|..|--- .... ....|--- .... ....|--- .... ....
....|..|--- .... ....|C-5 2F.F ....|--- .... ....
....|..|--- .... ....|--- .... ....|--- .... ....
....|..|--- .... ....|G#4 2F.F ....|--- .... ....
....|..|--- .... ....|--- .... ....|--- .... ....
....|..|--- .... ....|F-4 2F.F ....|--- .... ....
....|..|--- .... ....|--- .... ....|--- .... ....
....|..|--- .... ....|C-4 2F.F ....|--- .... ....
....|..|--- .... ....|--- .... ....|--- .... ....
....|..|--- .... ....|A#3 2F.F ....|--- .... ....
....|..|--- .... ....|--- .... ....|--- .... ....
....|..|--- .... ....|G#3 2F.F ....|--- .... ....
....|..|--- .... ....|--- .... ....|--- .... ....
....|..|--- .... ....|F-3 2F.F ....|--- .... ....
....|..|--- .... ....|--- .... ....|--- .... ....
....|..|--- .... ....|G#3 2F.F ....|--- .... ....
....|..|--- .... ....|--- .... ....|--- .... ....

[Pattern4]
....|..|C-4 AF.F ....|F-3 2F.F ....|--- .... ....
....|..|--- .... ....|--- .... ....|--- .... ....
....|..|--- .... ....|G#3 2F.F ....|--- .... ....
....|..|--- .... ....|--- .... ....|--- .... ....
....|..|C-4 AF.F ....|A#3 2F.F ....|--- .... ....
....|..|--- .... ....|--- .... ....|--- .... ....
....|..|--- .... ....|C-4 2F.F ....|--- .... ....
....|..|--- .... ....|--- .... ....|--- .... ....
....|..|C-4 BF.F ....|D#4 2F.F ....|--- .... ....
....|..|--- .... ....|--- .... ....|--- .... ....
....|..|--- .... ....|F-4 2F.F ....|--- .... ....
....|..|--- .... ....|--- .... ....|--- .... ....
....|..|C-4 AF.F ....|G#4 2F.F ....|--- .... ....
....|..|--- .... ....|--- .... ....|--- .... ....
....|..|--- .... ....|F-4 2F.F ....|--- .... ....
....|..|--- .... ....|--- .... ....|--- .... ....
....|..|C-4 AF.F ....|A#3 2F.7 ....|--- .... ....
....|..|--- .... ....|--- .... ....|--- .... ....
....|..|--- .... ....|G#3 2F.7 ....|--- .... ....
....|..|--- .... ....|--- .... ....|--- .... ....
....|..|C-4 BF.A ....|F-3 2F.7 ....|--- .... ....
....|..|--- .... ....|--- .... ....|--- .... ....
....|..|--- .... ....|G#3 2F.7 ....|--- .... ....
....|..|--- .... ....|--- .... ....|--- .... ....
....|..|C-4 BF.F ....|F-3 2F.7 ....|--- .... ....
....|..|--- .... ....|--- .... ....|--- .... ....
....|..|--- .... ....|G#3 2F.7 ....|--- .... ....
....|..|--- .... ....|--- .... ....|--- .... ....
....|..|C-4 AF.F ....|A#3 2F.7 ....|--- .... ....
....|..|--- .... ....|--- .... ....|--- .... ....
....|..|--- .... ....|C-4 2F.7 ....|--- .... ....
....|..|--- .... ....|--- .... ....|--- .... ....
....|..|C-4 BF.7 ....|F-3 2F.F ....|--- .... ....
....|..|--- .... ....|--- .... ....|--- .... ....
....|..|--- .... ....|G#3 2F.F ....|--- .... ....
....|..|--- .... ....|--- .... ....|--- .... ....
....|..|C-4 AF.F ....|A#3 2F.F ....|--- .... ....
....|..|--- .... ....|--- .... ....|--- .... ....
....|..|--- .... ....|C-4 2F.F ....|--- .... ....
....|..|--- .... ....|--- .... ....|--- .... ....
....|..|C-4 BF.F ....|D#4 2F.F ....|--- .... ....
....|..|--- .... ....|--- .... ....|--- .... ....
....|..|--- .... ....|F-4 2F.F ....|--- .... ....
....|..|--- .... ....|--- .... ....|--- .... ....
....|..|C-4 AF.F ....|G#4 2F.F ....|--- .... ....
....|..|--- .... ....|--- .... ....|--- .... ....
....|..|--- .... ....|F-4 2F.F ....|--- .... ....
....|..|--- .... ....|--- .... ....|--- .... ....
....|..|C-4 AF.F ....|R-- .... ....|--- .... ....
....|..|--- .... ....|--- .... ....|--- .... ....
....|..|--- .... ....|C-4 2F.A ....|--- .... ....
....|..|--- .... ....|--- .... ....|--- .... ....
....|..|C-4 AF.7 ....|G#4 2F.F ....|--- .... ....
....|..|--- .... ....|--- .... ....|--- .... ....
....|..|--- .... ....|R-- .... ....|--- .... ....
....|..|--- .... ....|--- .... ....|--- .... ....
....|..|C-4 BF.F ....|F-3 2F.7 ....|--- .... ....
....|..|--- .... ....|--- .... ....|--- .... ....
....|..|--- .... ....|G#3 2F.7 ....|--- .... ....
....|..|--- .... ....|--- .... ....|--- .... ....
....|..|C-4 AF.F ....|A#3 2F.7 ....|--- .... ....
....|..|--- .... ....|--- .... ....|--- .... ....
....|..|--- .... ....|C-4 2F.7 ....|--- .... ....
....|..|--- .... ....|--- .... ....|--- .... ....
....|..|C-4 AF.F ....|F-3 2F.F ....|--- .... ....
....|..|--- .... ....|--- .... ....|--- .... ....
....|..|--- .... ....|G#3 2F.F ....|--- .... ....
....|..|--- .... ....|--- .... ....|--- .... ....
....|..|C-4 AF.F ....|A#3 2F.F ....|--- .... ....
....|..|--- .... ....|--- .... ....|--- .... ....
....|..|--- .... ....|C-4 2F.F ....|--- .... ....
....|..|--- .... ....|--- .... ....|--- .... ....
....|..|C-4 BF.F ....|D#4 2F.F ....|--- .... ....
....|..|--- .... ....|--- .... ....|--- .... ....
....|..|--- .... ....|F-4 2F.F ....|--- .... ....
....|..|--- .... ....|--- .... ....|--- .... ....
....|..|C-4 AF.F ....|G#4 2F.F ....|--- .... ....
....|..|--- .... ....|--- .... ....|--- .... ....
....|..|--- .... ....|F-4 2F.F ....|--- .... ....
....|..|--- .... ....|--- .... ....|--- .... ....
....|..|C-4 AF.F ....|A#3 2F.A ....|--- .... ....
....|..|--- .... ....|--- .... ....|--- .... ....
....|..|--- .... ....|C-4 2F.A ....|--- .... ....
....|..|--- .... ....|--- .... ....|--- .... ....
....|..|C-4 AF.7 ....|D#4 2F.A ....|--- .... ....
....|..|--- .... ....|--- .... ....|--- .... ....
....|..|--- .... ....|F-4 2F.A ....|--- .... ....
....|..|--- .... ....|--- .... ....|--- .... ....
....|..|C-4 BF.F ....|F-3 2F.7 ....|--- .... ....
....|..|--- .... ....|--- .... ....|--- .... ....
....|..|--- .... ....|G#3 2F.7 ....|--- .... ....
....|..|--- .... ....|--- .... ....|--- .... ....
....|..|C-4 AF.F ....|A#3 2F.7 ....|--- .... ....
....|..|--- .... ....|--- .... ....|--- .... ....
....|..|--- .... ....|C-4 2F.7 ....|--- .... ....
....|..|--- .... ....|--- .... ....|--- .... ....
....|..|C-4 BF.7 ....|F-3 2F.F ....|--- .... ....
....|..|--- .... ....|--- .... ....|--- .... ....
....|..|--- .... ....|G#3 2F.F ....|--- .... ....
....|..|--- .... ....|--- .... ....|--- .... ....
....|..|C-4 AF.F ....|A#3 2F.F ....|--- .... ....
....|..|--- .... ....|--- .... ....|--- .... ....
....|..|--- .... ....|C-4 2F.F ....|--- .... ....
....|..|--- .... ....|--- .... ....|--- .... ....
....|..|C-4 BF.F ....|D#4 2F.F ....|--- .... ....
....|..|--- .... ....|--- .... ....|--- .... ....
....|..|--- .... ....|F-4 2F.F ....|--- .... ....
....|..|--- .... ....|--- .... ....|--- .... ....
....|..|C-4 AF.F ....|G#4 2F.F ....|--- .... ....
....|..|--- .... ....|--- .... ....|--- .... ....
....|..|--- .... ....|A#3 2F.F ....|--- .... ....
....|..|--- .... ....|--- .... ....|--- .... ....
....|..|C-4 AF.F ....|R-- .... ....|--- .... ....
....|..|--- .... ....|--- .... ....|--- .... ....
....|..|--- .... ....|C-4 2F.A ....|--- .... ....
....|..|--- .... ....|--- .... ....|--- .... ....
....|..|C-4 AF.7 ....|C-4 2F.F ....|--- .... ....
....|..|--- .... ....|--- .... ....|--- .... ....
....|..|--- .... ....|F-4 2F.A ....|--- .... ....
....|..|--- .... ....|--- .... ....|--- .... ....
....|..|C-4 BF.F ....|F-3 2F.7 ....|--- .... ....
....|..|--- .... ....|--- .... ....|--- .... ....
....|..|--- .... ....|G#3 2F.7 ....|--- .... ....
....|..|--- .... ....|--- .... ....|--- .... ....
....|..|C-4 AF.F ....|A#3 2F.7 ....|--- .... ....
....|..|--- .... ....|--- .... ....|--- .... ....
....|..|--- .... ....|C-4 2F.7 ....|--- .... ....
....|..|--- .... ....|--- .... ....|--- .... ....

[Pattern5]
....|..|C-4 AF.F ....|F-3 2F.F ....|--- .... ....
....|..|--- .... ....|--- .... ....|--- .... ....
....|..|--- .... ....|G#3 2F.F ....|--- .... ....
....|..|--- .... ....|--- .... ....|--- .... ....
....|..|C-4 AF.F ....|A#3 2F.F ....|--- .... ....
....|..|--- .... ....|--- .... ....|--- .... ....
....|..|--- .... ....|C-4 2F.F ....|--- .... ....
....|..|--- .... ....|--- .... ....|--- .... ....
....|..|C-4 BF.F ....|D#4 2F.F ....|--- .... ....
....|..|--- .... ....|--- .... ....|--- .... ....
....|..|--- .... ....|F-4 2F.F ....|--- .... ....
....|..|--- .... ....|--- .... ....|--- .... ....
....|..|C-4 AF.F ....|G#4 2F.F ....|--- .... ....
....|..|--- .... ....|--- .... ....|--- .... ....
....|..|--- .... ....|A#4 2F.F ....|--- .... ....
....|..|--- .... ....|--- .... ....|--- .... ....
....|..|C-4 AF.F ....|R-- .... ....|--- .... ....
....|..|--- .... ....|--- .... ....|--- .... ....
....|..|--- .... ....|C-4 2F.A ....|--- .... ....
....|..|--- .... ....|--- .... ....|--- .... ....
....|..|C-4 AF.7 ....|D#4 2F.A ....|--- .... ....
....|..|--- .... ....|--- .... ....|--- .... ....
....|..|--- .... ....|F-4 2F.A ....|--- .... ....
....|..|--- .... ....|--- .... ....|--- .... ....
....|..|C-4 BF.F ....|F-3 2F.7 ....|--- .... ....
....|..|--- .... ....|--- .... ....|--- .... ....
....|..|--- .... ....|G#3 2F.7 ....|--- .... ....
....|..|--- .... ....|--- .... ....|--- .... ....
....|..|C-4 AF.F ....|A#3 2F.7 ....|--- .... ....
....|..|--- .... ....|--- .... ....|--- .... ....
....|..|--- .... ....|C-4 2F.7 ....|--- .... ....
....|..|--- .... ....|--- .... ....|--- .... ....
....|..|C-4 BF.7 ....|F-3 2F.F ....|--- .... ....
....|..|--- .... ....|--- .... ....|--- .... ....
....|..|--- .... ....|G#3 2F.F ....|--- .... ....
....|..|--- .... ....|--- .... ....|--- .... ....
....|..|C-4 AF.F ....|A#3 2F.F ....|--- .... ....
....|..|--- .... ....|--- .... ....|--- .... ....
....|..|--- .... ....|C-4 2F.F ....|--- .... ....
....|..|--- .... ....|--- .... ....|--- .... ....
....|..|C-4 BF.F ....|D#4 2F.F ....|--- .... ....
....|..|--- .... ....|--- .... ....|--- .... ....
....|..|--- .... ....|F-4 2F.F ....|--- .... ....
....|..|--- .... ....|--- .... ....|--- .... ....
....|..|C-4 AF.F ....|G#4 2F.F ....|--- .... ....
....|..|--- .... ....|--- .... ....|--- .... ....
....|..|--- .... ....|B-4 2F.F ....|--- .... ....
....|..|--- .... ....|--- .... ....|--- .... ....
....|..|C-4 AF.F ....|R-- .... ....|--- .... ....
....|..|--- .... ....|--- .... ....|--- .... ....
....|..|--- .... ....|C-4 2F.A ....|--- .... ....
....|..|--- .... ....|--- .... ....|--- .... ....
....|..|C-4 AF.7 ....|A#4 2F.F ....|--- .... ....
....|..|--- .... ....|--- .... ....|--- .... ....
....|..|--- .... ....|F-4 2F.A ....|--- .... ....
....|..|--- .... ....|--- .... ....|--- .... ....
....|..|C-4 BF.F ....|F-3 2F.7 ....|--- .... ....
....|..|--- .... ....|--- .... ....|--- .... ....
....|..|--- .... ....|G#3 2F.7 ....|--- .... ....
....|..|--- .... ....|--- .... ....|--- .... ....
....|..|C-4 AF.F ....|A#3 2F.7 ....|--- .... ....
....|..|--- .... ....|--- .... ....|--- .... ....
....|..|--- .... ....|C-4 2F.7 ....|--- .... ....
....|..|--- .... ....|--- .... ....|--- .... ....
....|..|C-4 AF.F ....|F-3 2F.F ....|--- .... ....
....|..|--- .... ....|--- .... ....|--- .... ....
....|..|--- .... ....|G#3 2F.F ....|--- .... ....
....|..|--- .... ....|--- .... ....|--- .... ....
....|..|C-4 AF.F ....|A#3 2F.F ....|--- .... ....
....|..|--- .... ....|--- .... ....|--- .... ....
....|..|--- .... ....|C-4 2F.F ....|--- .... ....
....|..|--- .... ....|--- .... ....|--- .... ....
....|..|C-4 BF.F ....|D#4 2F.F ....|--- .... ....
....|..|--- .... ....|--- .... ....|--- .... ....
....|..|--- .... ....|F-4 2F.F ....|--- .... ....
....|..|--- .... ....|--- .... ....|--- .... ....
....|..|C-4 AF.F ....|G#4 2F.F ....|--- .... ....
....|..|--- .... ....|--- .... ....|--- .... ....
....|..|--- .... ....|F-4 2F.F ....|--- .... ....
....|..|--- .... ....|--- .... ....|--- .... ....
....|..|C-4 AF.F ....|R-- .... ....|--- .... ....
....|..|--- .... ....|--- .... ....|--- .... ....
....|..|--- .... ....|C-4 2F.A ....|--- .... ....
....|..|--- .... ....|--- .... ....|--- .... ....
....|..|C-4 AF.7 ....|D#4 2F.A ....|--- .... ....
....|..|--- .... ....|--- .... ....|--- .... ....
....|..|--- .... ....|F-4 2F.A ....|--- .... ....
....|..|--- .... ....|--- .... ....|--- .... ....
....|..|C-4 BF.F ....|F-3 2F.7 ....|--- .... ....
....|..|--- .... ....|--- .... ....|--- .... ....
....|..|--- .... ....|G#3 2F.7 ....|--- .... ....
....|..|--- .... ....|--- .... ....|--- .... ....
....|..|C-4 AF.F ....|A#3 2F.7 ....|--- .... ....
....|..|--- .... ....|--- .... ....|--- .... ....
....|..|--- .... ....|C-4 2F.7 ....|--- .... ....
....|..|--- .... ....|--- .... ....|--- .... ....
....|..|C-4 BF.7 ....|F-3 2F.F ....|--- .... ....
....|..|--- .... ....|--- .... ....|--- .... ....
....|..|--- .... ....|G#3 2F.F ....|--- .... ....
....|..|--- .... ....|--- .... ....|--- .... ....
....|..|C-4 AF.F ....|A#3 2F.F ....|--- .... ....
....|..|--- .... ....|--- .... ....|--- .... ....
....|..|--- .... ....|C-4 2F.F ....|--- .... ....
....|..|--- .... ....|--- .... ....|--- .... ....
....|..|C-4 BF.F ....|D-4 2F.F ....|--- .... ....
....|..|--- .... ....|--- .... ....|--- .... ....
....|..|--- .... ....|D#4 2F.F ....|--- .... ....
....|..|--- .... ....|--- .... ....|--- .... ....
....|..|C-4 AF.F ....|F-4 2F.F ....|--- .... ....
....|..|--- .... ....|--- .... ....|--- .... ....
....|..|--- .... ....|G#4 2F.F ....|--- .... ....
....|..|--- .... ....|--- .... ....|--- .... ....
....|..|C-4 AF.F ....|C-5 2F.F ....|--- .... ....
....|..|--- .... ....|--- .... ....|--- .... ....
....|..|--- .... ....|G#4 2F.F ....|--- .... ....
....|..|--- .... ....|--- .... ....|--- .... ....
....|..|C-4 AF.7 ....|F-4 2F.F ....|--- .... ....
....|..|--- .... ....|--- .... ....|--- .... ....
....|..|--- .... ....|C-4 2F.F ....|--- .... ....
....|..|--- .... ....|--- .... ....|--- .... ....
....|..|C-4 BF.F ....|A#3 2F.F ....|--- .... ....
....|..|--- .... ....|--- .... ....|--- .... ....
....|..|--- .... ....|G#3 2F.F ....|--- .... ....
....|..|--- .... ....|--- .... ....|--- .... ....
....|..|C-4 AF.F ....|F-3 2F.F ....|--- .... ....
....|..|--- .... ....|--- .... ....|--- .... ....
....|..|--- .... ....|G#3 2F.F ....|--- .... ....
....|..|--- .... ....|--- .... ....|--- .... ....

[Pattern6]
 F-3|..|C-4 AF.F ....|F-1 2A.F ....|F-1 2A.F ....
 F-3|..|F-1 2A.F ....|--- .... ....|--- .... ....
....|..|--- .... ....|D#4 2F.7 ....|--- .... ....
....|..|--- .... ....|--- .... ....|--- .... ....
....|..|C-4 AF.7 ....|F-4 2F.7 ....|R-- .... ....
....|..|--- .... ....|--- .... ....|--- .... ....
....|..|--- .... ....|G#4 2F.7 ....|--- .... ....
....|..|--- .... ....|--- .... ....|--- .... ....
 F-3|..|C-4 AF.F ....|F-1 2A.F ....|F-1 2A.F ....
 F-3|..|F-1 2A.F ....|--- .... ....|--- .... ....
....|..|--- .... ....|G#4 2F.7 ....|--- .... ....
....|..|--- .... ....|--- .... ....|--- .... ....
....|..|R-- .... ....|F-4 2F.7 ....|R-- .... ....
 F-3|..|F-1 2F.A ....|--- .... ....|--- .... ....
....|..|--- .... ....|C-4 2F.7 ....|--- .... ....
....|..|--- .... ....|--- .... ....|--- .... ....
 F-3|..|C-4 AF.F ....|F-1 2A.F ....|F-1 2A.F ....
 F-3|..|F-1 2A.F ....|--- .... ....|--- .... ....
....|..|--- .... ....|G#3 2F.7 ....|--- .... ....
....|..|--- .... ....|--- .... ....|--- .... ....
....|..|C-4 AF.7 ....|F-3 2F.7 ....|R-- .... ....
 F-3|..|F-1 2F.A ....|--- .... ....|--- .... ....
....|..|--- .... ....|G#3 2F.7 ....|--- .... ....
....|..|--- .... ....|--- .... ....|--- .... ....
 F-3|..|C-4 AF.F ....|F-1 2A.F ....|F-1 2A.F ....
 F-3|..|F-1 2A.F ....|--- .... ....|--- .... ....
....|..|--- .... ....|--- .... ....|--- .... ....
....|..|--- .... ....|--- .... ....|--- .... ....
....|..|R-- .... ....|R-- .... ....|R-- .... ....
 F-3|..|F-1 2F.A ....|--- .... ....|--- .... ....
....|..|--- .... ....|--- .... ....|--- .... ....
....|..|--- .... ....|--- .... ....|--- .... ....
 F-3|..|C-4 AF.F ....|F-1 2A.F ....|F-1 2A.F ....
 F-3|..|F-1 2A.F ....|--- .... ....|--- .... ....
....|..|--- .... ....|--- .... ....|--- .... ....
....|..|--- .... ....|--- .... ....|--- .... ....
....|..|R-- .... ....|R-- .... ....|R-- .... ....
 F-3|..|F-1 2F.A ....|--- .... ....|--- .... ....
....|..|--- .... ....|--- .... ....|--- .... ....
....|..|--- .... ....|--- .... ....|--- .... ....
 F-3|..|C-4 AF.F ....|F-1 2A.F ....|F-1 2A.F ....
 F-3|..|F-1 2A.F ....|--- .... ....|--- .... ....
....|..|R-- .... ....|R-- .... ....|R-- .... ....
....|..|--- .... ....|--- .... ....|--- .... ....
 F-3|..|F-1 2A.F ....|F-1 2A.F ....|F-1 2A.F ....
 F-3|..|F-1 2F.A ....|--- .... ....|--- .... ....
....|..|--- .... ....|--- .... ....|--- .... ....
....|..|--- .... ....|--- .... ....|--- .... ....
 F-3|..|C-4 AF.F ....|F-1 2F.7 ....|F-1 2F.7 ....
 F-3|..|F-1 2F.7 ....|--- .... ....|--- .... ....
....|..|--- .... ....|--- .... ....|--- .... ....
....|..|--- .... ....|--- .... ....|--- .... ....
 D#3|..|D#1 2A.F ....|D#1 2A.F ....|D#1 2A.F ....
 F-3|..|F-1 2F.A ....|--- .... ....|--- .... ....
....|..|R-- .... ....|R-- .... ....|R-- .... ....
....|..|--- .... ....|--- .... ....|--- .... ....
 F-3|..|C-4 AF.F ....|F-1 2A.F ....|F-1 2A.F ....
 F-3|..|F-1 2A.F ....|--- .... ....|--- .... ....
....|..|--- .... ....|--- .... ....|--- .... ....
....|..|--- .... ....|--- .... ....|--- .... ....
....|..|R-- .... ....|R-- .... ....|R-- .... ....
....|..|R-- .... ....|--- .... ....|--- .... ....
....|..|--- .... ....|--- .... ....|--- .... ....
....|..|--- .... ....|--- .... ....|--- .... ....
 G#3|..|C-4 AF.F ....|G#1 2A.F ....|G#1 2A.F ....
 G#3|..|G#1 2A.F ....|--- .... ....|--- .... ....
....|..|R-- .... ....|R-- .... ....|R-- .... ....
....|..|--- .... ....|--- .... ....|--- .... ....
 F-3|..|F-1 2F.7 ....|F-1 2F.7 ....|F-1 2F.7 ....
 F-3|..|F-1 2F.A ....|--- .... ....|--- .... ....
....|..|--- .... ....|--- .... ....|--- .... ....
....|..|--- .... ....|--- .... ....|--- .... ....
 F-3|..|C-4 AF.F ....|F-1 2A.F ....|F-1 2A.F ....
 F-3|..|F-1 2A.F ....|--- .... ....|--- .... ....
....|..|--- .... ....|--- .... ....|--- .... ....
....|..|--- .... ....|--- .... ....|--- .... ....
 D#3|..|D#1 2F.7 ....|D#1 2F.7 ....|D#1 2F.7 ....
 G#3|..|G#1 2F.A ....|--- .... ....|--- .... ....
....|..|--- .... ....|--- .... ....|--- .... ....
....|..|--- .... ....|--- .... ....|--- .... ....
 F-3|..|C-4 AF.F ....|F-1 2A.F ....|F-1 2A.F ....
 F-3|..|F-1 2A.F ....|--- .... ....|--- .... ....
....|..|--- .... ....|--- .... ....|--- .... ....
....|..|--- .... ....|--- .... ....|--- .... ....
....|..|R-- .... ....|R-- .... ....|R-- .... ....
 F-3|..|F-1 2F.A ....|--- .... ....|--- .... ....
....|..|--- .... ....|--- .... ....|--- .... ....
....|..|--- .... ....|--- .... ....|--- .... ....
 F-3|..|C-4 AF.F ....|F-1 2A.F ....|F-1 2A.F ....
 F-3|..|F-1 2A.F ....|--- .... ....|--- .... ....
....|..|--- .... ....|--- .... ....|--- .... ....
....|..|--- .... ....|--- .... ....|--- .... ....
....|..|R-- .... ....|R-- .... ....|R-- .... ....
 F-3|..|F-1 2F.A ....|--- .... ....|--- .... ....
....|..|--- .... ....|--- .... ....|--- .... ....
....|..|--- .... ....|--- .... ....|--- .... ....
 F-3|..|C-4 AF.F ....|F-1 2A.F ....|F-1 2A.F ....
 F-3|..|F-1 2A.F ....|--- .... ....|--- .... ....
....|..|--- .... ....|--- .... ....|--- .... ....
....|..|--- .... ....|--- .... ....|--- .... ....
....|..|R-- .... ....|R-- .... ....|R-- .... ....
 F-3|..|F-1 2F.A ....|--- .... ....|--- .... ....
....|..|--- .... ....|--- .... ....|--- .... ....
....|..|--- .... ....|--- .... ....|--- .... ....
 D#3|..|C-4 AF.F ....|D#1 2A.F ....|D#1 2A.F ....
 D#3|..|D#1 2A.F ....|--- .... ....|--- .... ....
....|..|--- .... ....|--- .... ....|--- .... ....
....|..|--- .... ....|--- .... ....|--- .... ....
 F-3|..|F-1 2A.F ....|F-1 2A.F ....|F-1 2A.F ....
 F-3|..|F-1 2F.A ....|--- .... ....|--- .... ....
....|..|--- .... ....|--- .... ....|--- .... ....
....|..|--- .... ....|--- .... ....|--- .... ....
 F-3|..|C-4 AF.F ....|F-1 2F.7 ....|F-1 2F.7 ....
 F-3|..|F-1 2F.7 ....|--- .... ....|--- .... ....
....|..|--- .... ....|--- .... ....|--- .... ....
....|..|--- .... ....|--- .... ....|--- .... ....
 D#3|..|D#1 2A.F ....|D#1 2A.F ....|D#1 2A.F ....
 D#3|..|D#1 2F.A ....|--- .... ....|--- .... ....
....|..|--- .... ....|--- .... ....|--- .... ....
....|..|--- .... ....|--- .... ....|--- .... ....
 F-3|..|C-4 AF.F ....|F-1 2A.F ....|F-1 2A.F ....
 F-3|..|F-1 2A.F ....|--- .... ....|--- .... ....
....|..|--- .... ....|--- .... ....|--- .... ....
....|..|--- .... ....|--- .... ....|--- .... ....
....|..|R-- .... ....|R-- .... ....|R-- .... ....
....|..|R-- .... ....|--- .... ....|--- .... ....
....|..|--- .... ....|--- .... ....|--- .... ....
....|..|--- .... ....|--- .... ....|--- .... ....

[Pattern7]
 G-3|..|C-4 AF.F ....|G-1 2A.F ....|G-1 2A.F ....
 G-3|..|G-1 2A.F ....|--- .... ....|--- .... ....
....|..|--- .... ....|--- .... ....|--- .... ....
....|..|--- .... ....|--- .... ....|--- .... ....
 F-3|..|F-1 2F.7 ....|F-1 2F.7 ....|F-1 2F.7 ....
 F-3|..|F-1 2F.A ....|--- .... ....|--- .... ....
....|..|--- .... ....|--- .... ....|--- .... ....
....|..|--- .... ....|--- .... ....|--- .... ....
 F-3|..|C-4 AF.F ....|F-1 2A.F ....|F-1 2A.F ....
 F-3|..|F-1 2A.F ....|--- .... ....|--- .... ....
....|..|--- .... ....|--- .... ....|--- .... ....
....|..|--- .... ....|--- .... ....|--- .... ....
 D#3|..|D#1 2F.7 ....|D#1 2F.7 ....|D#1 2F.7 ....
 G-3|..|G-1 2F.A ....|--- .... ....|--- .... ....
....|..|--- .... ....|--- .... ....|--- .... ....
....|..|--- .... ....|--- .... ....|--- .... ....
 F-3|..|C-4 AF.F ....|F-1 2A.F ....|F-1 2A.F ....
 F-3|..|F-1 2A.F ....|--- .... ....|--- .... ....
....|..|--- .... ....|--- .... ....|--- .... ....
....|..|--- .... ....|--- .... ....|--- .... ....
....|..|R-- .... ....|R-- .... ....|R-- .... ....
 F-3|..|F-1 2F.A ....|--- .... ....|--- .... ....
....|..|--- .... ....|--- .... ....|--- .... ....
....|..|--- .... ....|--- .... ....|--- .... ....
 F-3|..|C-4 AF.F ....|F-1 2A.F ....|F-1 2A.F ....
 F-3|..|F-1 2A.F ....|--- .... ....|--- .... ....
....|..|--- .... ....|--- .... ....|--- .... ....
....|..|--- .... ....|--- .... ....|--- .... ....
....|..|R-- .... ....|R-- .... ....|R-- .... ....
 F-3|..|F-1 2F.A ....|--- .... ....|--- .... ....
....|..|--- .... ....|--- .... ....|--- .... ....
....|..|--- .... ....|--- .... ....|--- .... ....
 D#3|..|C-4 AF.F ....|D#1 2A.F ....|D#1 2A.F ....
 D#3|..|D#1 2A.F ....|--- .... ....|--- .... ....
....|..|--- .... ....|--- .... ....|--- .... ....
....|..|--- .... ....|--- .... ....|--- .... ....
....|..|R-- .... ....|R-- .... ....|R-- .... ....
 F-3|..|F-1 2F.A ....|--- .... ....|--- .... ....
....|..|--- .... ....|--- .... ....|--- .... ....
....|..|--- .... ....|--- .... ....|--- .... ....
 F-3|..|C-4 AF.F ....|F-1 2A.F ....|F-1 2A.F ....
 F-3|..|F-1 2A.F ....|--- .... ....|--- .... ....
....|..|--- .... ....|--- .... ....|--- .... ....
....|..|--- .... ....|--- .... ....|--- .... ....
 F-3|..|F-1 2A.F ....|F-1 2A.F ....|F-1 2A.F ....
 D#3|..|D#1 2F.A ....|--- .... ....|--- .... ....
....|..|--- .... ....|--- .... ....|--- .... ....
....|..|--- .... ....|--- .... ....|--- .... ....
 F-3|..|C-4 AF.F ....|F-1 2F.7 ....|F-1 2F.7 ....
 F-3|..|F-1 2F.7 ....|--- .... ....|--- .... ....
....|..|--- .... ....|--- .... ....|--- .... ....
....|..|--- .... ....|--- .... ....|--- .... ....
 D#3|..|D#1 2A.F ....|D#1 2A.F ....|D#1 2A.F ....
 F-3|..|F-1 2F.A ....|--- .... ....|--- .... ....
....|..|--- .... ....|--- .... ....|--- .... ....
....|..|--- .... ....|--- .... ....|--- .... ....
 F-3|..|C-4 AF.F ....|F-1 2A.F ....|F-1 2A.F ....
 F-3|..|F-1 2A.F ....|--- .... ....|--- .... ....
....|..|--- .... ....|--- .... ....|--- .... ....
....|..|--- .... ....|--- .... ....|--- .... ....
 D#3|..|D#1 2A.F ....|D#1 2A.F ....|D#1 2A.F ....
....|..|R-- .... ....|--- .... ....|--- .... ....
....|..|--- .... ....|--- .... ....|--- .... ....
....|..|--- .... ....|--- .... ....|--- .... ....
 G#3|..|C-4 AF.F ....|G#1 2A.F ....|G#1 2A.F ....
 G#3|..|G#1 2A.F ....|--- .... ....|--- .... ....
....|..|--- .... ....|--- .... ....|--- .... ....
....|..|--- .... ....|--- .... ....|--- .... ....
 F-3|..|F-1 2F.7 ....|F-1 2F.7 ....|F-1 2F.7 ....
 F-3|..|F-1 2F.A ....|--- .... ....|--- .... ....
....|..|--- .... ....|--- .... ....|--- .... ....
....|..|--- .... ....|--- .... ....|--- .... ....
 F-3|..|C-4 AF.F ....|F-1 2A.F ....|F-1 2A.F ....
 F-3|..|F-1 2A.F ....|--- .... ....|--- .... ....
....|..|--- .... ....|--- .... ....|--- .... ....
....|..|--- .... ....|--- .... ....|--- .... ....
 D#3|..|D#1 2F.7 ....|D#1 2F.7 ....|D#1 2F.7 ....
 G#3|..|G#1 2F.A ....|--- .... ....|--- .... ....
....|..|--- .... ....|--- .... ....|--- .... ....
....|..|--- .... ....|--- .... ....|--- .... ....
 F-3|..|C-4 AF.F ....|F-1 2A.F ....|F-1 2A.F ....
 F-3|..|F-1 2A.F ....|--- .... ....|--- .... ....
....|..|--- .... ....|--- .... ....|--- .... ....
....|..|--- .... ....|--- .... ....|--- .... ....
 D#3|..|D#1 2F.7 ....|D#1 2F.7 ....|D#1 2F.7 ....
 F-3|..|F-1 2F.A ....|--- .... ....|--- .... ....
....|..|--- .... ....|--- .... ....|--- .... ....
....|..|--- .... ....|--- .... ....|--- .... ....
 F-3|..|C-4 AF.F ....|F-1 2A.F ....|F-1 2A.F ....
 F-3|..|F-1 2A.F ....|--- .... ....|--- .... ....
....|..|--- .... ....|--- .... ....|--- .... ....
....|..|--- .... ....|--- .... ....|--- .... ....
....|..|R-- .... ....|R-- .... ....|R-- .... ....
 F-3|..|F-1 2F.A ....|--- .... ....|--- .... ....
....|..|--- .... ....|--- .... ....|--- .... ....
....|..|--- .... ....|--- .... ....|--- .... ....
 D#3|..|C-4 AF.F ....|D#1 2A.F ....|D#1 2A.F ....
 D#3|..|D#1 2A.F ....|--- .... ....|--- .... ....
....|..|--- .... ....|--- .... ....|--- .... ....
....|..|--- .... ....|--- .... ....|--- .... ....
....|..|R-- .... ....|R-- .... ....|R-- .... ....
 F-3|..|F-1 2F.A ....|--- .... ....|--- .... ....
....|..|--- .... ....|--- .... ....|--- .... ....
....|..|--- .... ....|--- .... ....|--- .... ....
 F-3|..|C-4 AF.F ....|F-1 2A.F ....|F-1 2A.F ....
 F-3|..|F-1 2A.F ....|--- .... ....|--- .... ....
....|..|--- .... ....|--- .... ....|--- .... ....
....|..|--- .... ....|--- .... ....|--- .... ....
 F-3|..|F-1 2A.F ....|F-1 2A.F ....|F-1 2A.F ....
 D#3|..|D#1 2F.A ....|--- .... ....|--- .... ....
....|..|--- .... ....|--- .... ....|--- .... ....
....|..|--- .... ....|--- .... ....|--- .... ....
 F-3|..|C-4 AF.F ....|F-1 2F.7 ....|F-1 2F.7 ....
 F-3|..|F-1 2F.7 ....|--- .... ....|--- .... ....
....|..|--- .... ....|--- .... ....|--- .... ....
....|..|--- .... ....|--- .... ....|--- .... ....
 F-3|..|F-1 2A.F ....|F-1 2A.F ....|F-1 2A.F ....
 F-3|..|F-1 2F.A ....|--- .... ....|--- .... ....
....|..|--- .... ....|--- .... ....|--- .... ....
....|..|--- .... ....|--- .... ....|--- .... ....
 C-4|..|C-4 AF.F ....|C-2 2A.F ....|C-2 2A.F ....
 C-4|..|C-2 2A.F ....|--- .... ....|--- .... ....
....|..|--- .... ....|--- .... ....|--- .... ....
....|..|--- .... ....|--- .... ....|--- .... ....
....|..|R-- .... ....|R-- .... ....|R-- .... ....
....|..|R-- .... ....|--- .... ....|--- .... ....
....|..|--- .... ....|--- .... ....|--- .... ....
....|..|--- .... ....|--- .... ....|--- .... ....

[Pattern8]
 F-3|..|C-4 AF.F ....|F-3 2F.F ....|F-1 2A.F ....
 F-3|..|F-1 2A.F ....|F-1 2A.F ....|--- .... ....
....|..|B-8 JF.F ....|G#3 2F.F ....|--- .... ....
....|..|--- .... ....|--- .... ....|--- .... ....
 F-3|..|F-1 2F.7 ....|A#3 2F.F ....|F-1 2F.7 ....
 C-4|..|C-2 2F.A ....|R-- .... ....|--- .... ....
....|..|--- .... ....|C-4 2F.F ....|--- .... ....
....|..|--- .... ....|--- .... ....|--- .... ....
 F-3|..|C-4 AF.F ....|D#4 2F.F ....|F-1 2A.F ....
 F-3|..|F-1 2A.F ....|F-1 2A.F ....|--- .... ....
....|..|--- .... ....|F-4 2F.F ....|--- .... ....
....|..|--- .... ....|--- .... ....|--- .... ....
 F-3|..|B-8 JF.F ....|G#4 2F.F ....|F-1 2F.7 ....
....|..|R-- .... ....|R-- .... ....|--- .... ....
....|..|B-8 JF.F ....|F-4 2F.F ....|--- .... ....
....|..|--- .... ....|--- .... ....|--- .... ....
 F-3|..|C-4 AF.F ....|F-1 2A.F ....|F-1 2A.F ....
 F-3|..|F-1 2A.F ....|R-- .... ....|--- .... ....
....|..|--- .... ....|C-4 2F.A ....|--- .... ....
....|..|--- .... ....|--- .... ....|--- .... ....
....|..|R-- .... ....|R-- .... ....|R-- .... ....
 F-3|..|F-1 2F.A ....|F-1 2F.A ....|--- .... ....
....|..|--- .... ....|F-4 2F.A ....|--- .... ....
....|..|--- .... ....|--- .... ....|--- .... ....
 F-3|..|C-4 AF.F ....|F-1 2A.F ....|F-1 2A.F ....
 F-3|..|F-1 2A.F ....|F-1 2F.7 ....|--- .... ....
....|..|B-8 JF.7 ....|G#3 2F.7 ....|--- .... ....
....|..|--- .... ....|--- .... ....|--- .... ....
....|..|R-- .... ....|A#3 2F.7 ....|R-- .... ....
 F-3|..|F-1 2F.A ....|R-- .... ....|--- .... ....
....|..|--- .... ....|C-4 2F.7 ....|--- .... ....
....|..|--- .... ....|--- .... ....|--- .... ....
 F-3|..|C-4 AF.F ....|F-3 2F.F ....|F-1 2A.F ....
 F-3|..|F-1 2A.F ....|F-1 2A.F ....|--- .... ....
....|..|B-8 JF.F ....|G#3 2F.F ....|--- .... ....
....|..|--- .... ....|--- .... ....|--- .... ....
....|..|B-8 JF.7 ....|A#3 2F.F ....|R-- .... ....
....|..|R-- .... ....|R-- .... ....|--- .... ....
....|..|B-8 JF.7 ....|C-4 2F.F ....|--- .... ....
....|..|--- .... ....|--- .... ....|--- .... ....
 F-3|..|C-4 AF.F ....|D#4 2F.F ....|F-1 2A.F ....
 F-3|..|F-1 2A.F ....|F-1 2A.F ....|--- .... ....
....|..|R-- .... ....|F-4 2F.F ....|R-- .... ....
....|..|--- .... ....|R-- .... ....|--- .... ....
 F-3|..|B-8 JF.F ....|G#4 2F.F ....|F-1 2A.F ....
 F-3|..|F-1 2A.F ....|F-1 2A.F ....|--- .... ....
....|..|B-8 JF.F ....|F-4 2F.F ....|--- .... ....
....|..|--- .... ....|--- .... ....|--- .... ....
 F-3|..|C-4 AF.F ....|F-1 2F.7 ....|F-1 2F.7 ....
 F-3|..|F-1 2F.7 ....|R-- .... ....|--- .... ....
....|..|--- .... ....|C-4 2F.A ....|--- .... ....
....|..|--- .... ....|--- .... ....|--- .... ....
 D#3|..|B-8 JF.F ....|G#4 2F.F ....|D#1 2A.F ....
 D#3|..|D#1 2A.F ....|D#1 2A.F ....|--- .... ....
....|..|B-8 JF.F ....|R-- .... ....|R-- .... ....
....|..|--- .... ....|R-- .... ....|--- .... ....
 F-3|..|C-4 AF.F ....|F-1 2A.F ....|F-1 2A.F ....
 F-3|..|F-1 2A.F ....|F-1 2F.7 ....|--- .... ....
....|..|B-8 JF.7 ....|G#3 2F.7 ....|--- .... ....
....|..|--- .... ....|--- .... ....|--- .... ....
....|..|R-- .... ....|A#3 2F.7 ....|R-- .... ....
....|..|R-- .... ....|R-- .... ....|--- .... ....
....|..|--- .... ....|C-4 2F.7 ....|--- .... ....
....|..|--- .... ....|--- .... ....|--- .... ....
 G#3|..|C-4 AF.F ....|F-3 2F.F ....|G#1 2A.F ....
 G#3|..|G#1 2A.F ....|G#1 2A.F ....|--- .... ....
....|..|B-8 JF.F ....|G#3 2F.F ....|R-- .... ....
....|..|--- .... ....|R-- .... ....|--- .... ....
 F-3|..|B-8 JF.7 ....|A#3 2F.F ....|F-1 2F.7 ....
 F-3|..|F-1 2F.7 ....|F-1 2F.7 ....|--- .... ....
....|..|B-8 JF.7 ....|C-4 2F.F ....|--- .... ....
....|..|--- .... ....|--- .... ....|--- .... ....
 F-3|..|C-4 AF.F ....|D#4 2F.F ....|F-1 2A.F ....
 F-3|..|F-1 2A.F ....|F-1 2A.F ....|--- .... ....
....|..|--- .... ....|F-4 2F.F ....|--- .... ....
....|..|--- .... ....|--- .... ....|--- .... ....
 D#3|..|B-8 JF.F ....|G#4 2F.F ....|D#1 2F.7 ....
 D#3|..|D#1 2F.7 ....|D#1 2F.7 ....|--- .... ....
....|..|B-8 JF.F ....|F-4 2F.F ....|--- .... ....
....|..|--- .... ....|--- .... ....|--- .... ....
 F-3|..|C-4 AF.F ....|F-1 2A.F ....|F-1 2A.F ....
 F-3|..|F-1 2A.F ....|--- .... ....|--- .... ....
....|..|--- .... ....|C-4 2F.A ....|--- .... ....
....|..|--- .... ....|--- .... ....|--- .... ....
....|..|R-- .... ....|R-- .... ....|R-- .... ....
 F-3|..|F-1 2F.A ....|F-1 2F.A ....|--- .... ....
....|..|--- .... ....|F-4 2F.A ....|--- .... ....
....|..|--- .... ....|--- .... ....|--- .... ....
 F-3|..|C-4 AF.F ....|F-1 2A.F ....|F-1 2A.F ....
 F-3|..|F-1 2A.F ....|G#1 2F.7 ....|--- .... ....
....|..|B-8 JF.7 ....|G#3 2F.7 ....|--- .... ....
....|..|--- .... ....|--- .... ....|--- .... ....
....|..|R-- .... ....|A#3 2F.7 ....|R-- .... ....
 F-3|..|F-1 2F.A ....|--- .... ....|--- .... ....
....|..|--- .... ....|C-4 2F.7 ....|--- .... ....
....|..|--- .... ....|--- .... ....|--- .... ....
 F-3|..|C-4 AF.F ....|F-3 2F.F ....|F-1 2A.F ....
 F-3|..|F-1 2A.F ....|F-1 2A.F ....|--- .... ....
....|..|B-8 JF.F ....|G#3 2F.F ....|--- .... ....
....|..|--- .... ....|--- .... ....|--- .... ....
....|..|B-8 JF.7 ....|A#3 2F.F ....|R-- .... ....
....|..|R-- .... ....|R-- .... ....|--- .... ....
....|..|B-8 JF.7 ....|C-4 2F.F ....|--- .... ....
....|..|--- .... ....|--- .... ....|--- .... ....
 D#3|..|C-4 AF.F ....|D#4 2F.F ....|D#1 2A.F ....
 D#3|..|D#1 2A.F ....|D#1 2A.F ....|--- .... ....
....|..|--- .... ....|F-4 2F.F ....|--- .... ....
....|..|--- .... ....|--- .... ....|--- .... ....
 F-3|..|B-8 JF.F ....|G#4 2F.F ....|F-1 2A.F ....
 F-3|..|F-1 2A.F ....|F-1 2A.F ....|--- .... ....
....|..|B-8 JF.F ....|A#3 2F.F ....|--- .... ....
....|..|--- .... ....|--- .... ....|--- .... ....
 F-3|..|C-4 AF.F ....|F-1 2F.7 ....|F-1 2F.7 ....
 F-3|..|F-1 2F.7 ....|R-- .... ....|--- .... ....
....|..|--- .... ....|C-4 2F.A ....|--- .... ....
....|..|--- .... ....|--- .... ....|--- .... ....
 D#3|..|B-8 JF.F ....|C-4 2F.F ....|D#1 2A.F ....
 D#3|..|D#1 2A.F ....|D#1 2A.F ....|--- .... ....
....|..|B-8 JF.F ....|F-4 2F.A ....|--- .... ....
....|..|--- .... ....|--- .... ....|--- .... ....
 F-3|..|C-4 AF.F ....|F-1 2A.F ....|F-1 2A.F ....
 F-3|..|F-1 2A.F ....|F-1 2F.7 ....|--- .... ....
....|..|B-8 JF.7 ....|G#3 2F.7 ....|--- .... ....
....|..|--- .... ....|--- .... ....|--- .... ....
....|..|R-- .... ....|A#3 2F.7 ....|R-- .... ....
....|..|R-- .... ....|R-- .... ....|--- .... ....
....|..|--- .... ....|C-4 2F.7 ....|--- .... ....
....|..|--- .... ....|--- .... ....|--- .... ....

[Pattern9]
 G-3|..|C-4 AF.F ....|F-3 2F.F ....|G-1 2A.F ....
 G-3|..|G-1 2A.F ....|G-1 2A.F ....|--- .... ....
....|..|B-8 JF.F ....|G#3 2F.F ....|--- .... ....
....|..|--- .... ....|--- .... ....|--- .... ....
 F-3|..|B-8 JF.7 ....|A#3 2F.F ....|F-1 2F.7 ....
 F-3|..|F-1 2F.7 ....|F-1 2F.7 ....|--- .... ....
....|..|B-8 JF.7 ....|C-4 2F.F ....|--- .... ....
....|..|--- .... ....|--- .... ....|--- .... ....
 F-3|..|C-4 AF.F ....|D#4 2F.F ....|F-1 2A.F ....
 F-3|..|F-1 2A.F ....|F-1 2A.F ....|--- .... ....
....|..|--- .... ....|F-4 2F.F ....|--- .... ....
....|..|--- .... ....|--- .... ....|--- .... ....
 D#3|..|B-8 JF.F ....|G#4 2F.F ....|D#1 2F.7 ....
 D#3|..|D#1 2F.7 ....|D#1 2F.7 ....|--- .... ....
....|..|B-8 JF.F ....|A#4 2F.F ....|--- .... ....
....|..|--- .... ....|--- .... ....|--- .... ....
 F-3|..|C-4 AF.F ....|F-1 2A.F ....|F-1 2A.F ....
 F-3|..|F-1 2A.F ....|--- .... ....|--- .... ....
....|..|--- .... ....|C-4 2F.A ....|--- .... ....
....|..|--- .... ....|--- .... ....|--- .... ....
....|..|R-- .... ....|R-- .... ....|R-- .... ....
 F-3|..|F-1 2F.A ....|F-1 2F.A ....|--- .... ....
....|..|--- .... ....|F-4 2F.A ....|--- .... ....
....|..|--- .... ....|--- .... ....|--- .... ....
 F-3|..|C-4 AF.F ....|F-1 2A.F ....|F-1 2A.F ....
 F-3|..|F-1 2A.F ....|G-1 2F.7 ....|--- .... ....
....|..|B-8 JF.7 ....|G#3 2F.7 ....|--- .... ....
....|..|--- .... ....|--- .... ....|--- .... ....
....|..|R-- .... ....|A#3 2F.7 ....|R-- .... ....
 F-3|..|F-1 2F.A ....|--- .... ....|--- .... ....
....|..|--- .... ....|C-4 2F.7 ....|--- .... ....
....|..|--- .... ....|--- .... ....|--- .... ....
 D#3|..|C-4 AF.F ....|F-3 2F.F ....|D#1 2A.F ....
 D#3|..|D#1 2A.F ....|D#1 2A.F ....|--- .... ....
....|..|B-8 JF.F ....|G#3 2F.F ....|--- .... ....
....|..|--- .... ....|--- .... ....|--- .... ....
....|..|B-8 JF.7 ....|A#3 2F.F ....|R-- .... ....
....|..|R-- .... ....|R-- .... ....|--- .... ....
....|..|B-8 JF.7 ....|C-4 2F.F ....|--- .... ....
....|..|--- .... ....|--- .... ....|--- .... ....
 F-3|..|C-4 AF.F ....|D#4 2F.F ....|F-1 2A.F ....
 F-3|..|F-1 2A.F ....|F-1 2A.F ....|--- .... ....
....|..|--- .... ....|F-4 2F.F ....|--- .... ....
....|..|--- .... ....|--- .... ....|--- .... ....
 F-3|..|B-8 JF.F ....|G#4 2F.F ....|F-1 2A.F ....
 F-3|..|F-1 2A.F ....|F-1 2A.F ....|--- .... ....
....|..|B-8 JF.F ....|B-4 2F.F ....|--- .... ....
....|..|--- .... ....|--- .... ....|--- .... ....
 F-3|..|C-4 AF.F ....|F-1 2F.7 ....|F-1 2F.7 ....
 F-3|..|F-1 2F.7 ....|R-- .... ....|--- .... ....
....|..|--- .... ....|C-4 2F.A ....|--- .... ....
....|..|--- .... ....|--- .... ....|--- .... ....
 D#3|..|B-8 JF.F ....|A#4 2F.F ....|D#1 2A.F ....
 D#3|..|D#1 2A.F ....|D#1 2A.F ....|--- .... ....
....|..|B-8 JF.F ....|F-4 2F.A ....|--- .... ....
....|..|--- .... ....|--- .... ....|--- .... ....
 F-3|..|C-4 AF.F ....|F-1 2A.F ....|F-1 2A.F ....
 D#3|..|F-1 2A.F ....|D#1 2F.7 ....|--- .... ....
....|..|B-8 JF.7 ....|G#3 2F.7 ....|--- .... ....
....|..|--- .... ....|--- .... ....|--- .... ....
 D#3|..|D#1 2A.F ....|D#1 2A.F ....|D#1 2A.F ....
....|..|R-- .... ....|R-- .... ....|--- .... ....
....|..|--- .... ....|C-4 2F.7 ....|--- .... ....
....|..|--- .... ....|--- .... ....|--- .... ....
 G#3|..|C-4 AF.F ....|F-3 2F.F ....|G#1 2A.F ....
 G#3|..|G#1 2A.F ....|G#1 2A.F ....|--- .... ....
....|..|B-8 JF.F ....|G#3 2F.F ....|--- .... ....
....|..|--- .... ....|--- .... ....|--- .... ....
 F-3|..|B-8 JF.7 ....|A#3 2F.F ....|F-1 2F.7 ....
 F-3|..|F-1 2F.7 ....|F-1 2F.7 ....|--- .... ....
....|..|B-8 JF.7 ....|C-4 2F.F ....|--- .... ....
....|..|--- .... ....|--- .... ....|--- .... ....
 F-3|..|C-4 AF.F ....|D#4 2F.F ....|F-1 2A.F ....
 F-3|..|F-1 2A.F ....|F-1 2A.F ....|--- .... ....
....|..|--- .... ....|F-4 2F.F ....|--- .... ....
....|..|--- .... ....|--- .... ....|--- .... ....
 D#3|..|B-8 JF.F ....|G#4 2F.F ....|D#1 2F.7 ....
 D#3|..|D#1 2F.7 ....|D#1 2F.7 ....|--- .... ....
....|..|B-8 JF.F ....|F-4 2F.F ....|--- .... ....
....|..|--- .... ....|--- .... ....|--- .... ....
 F-3|..|C-4 AF.F ....|F-1 2A.F ....|F-1 2A.F ....
 F-3|..|F-1 2A.F ....|--- .... ....|--- .... ....
....|..|--- .... ....|C-4 2F.A ....|--- .... ....
....|..|--- .... ....|--- .... ....|--- .... ....
 D#3|..|D#1 2F.7 ....|D#1 2F.7 ....|D#1 2F.7 ....
 F-3|..|F-1 2F.A ....|F-1 2F.A ....|--- .... ....
....|..|--- .... ....|F-4 2F.A ....|--- .... ....
....|..|--- .... ....|--- .... ....|--- .... ....
 F-3|..|C-4 AF.F ....|F-1 2A.F ....|F-1 2A.F ....
 F-3|..|F-1 2A.F ....|G#1 2F.7 ....|--- .... ....
....|..|B-8 JF.7 ....|G#3 2F.7 ....|--- .... ....
....|..|--- .... ....|--- .... ....|--- .... ....
....|..|R-- .... ....|A#3 2F.7 ....|R-- .... ....
 F-3|..|F-1 2F.A ....|--- .... ....|--- .... ....
....|..|--- .... ....|C-4 2F.7 ....|--- .... ....
....|..|--- .... ....|--- .... ....|--- .... ....
 D#3|..|C-4 AF.F ....|F-3 2F.F ....|D#1 2A.F ....
 D#3|..|D#1 2A.F ....|D#1 2A.F ....|--- .... ....
....|..|B-8 JF.F ....|G#3 2F.F ....|--- .... ....
....|..|--- .... ....|--- .... ....|--- .... ....
....|..|B-8 JF.7 ....|A#3 2F.F ....|R-- .... ....
....|..|R-- .... ....|R-- .... ....|--- .... ....
....|..|B-8 JF.7 ....|C-4 2F.F ....|--- .... ....
....|..|--- .... ....|--- .... ....|--- .... ....
 F-3|..|C-4 AF.F ....|D-4 2F.F ....|F-1 2A.F ....
 F-3|..|F-1 2A.F ....|F-1 2A.F ....|--- .... ....
....|..|--- .... ....|D#4 2F.F ....|--- .... ....
....|..|--- .... ....|--- .... ....|--- .... ....
 F-3|..|B-8 JF.F ....|F-4 2F.F ....|F-1 2A.F ....
 F-3|..|F-1 2A.F ....|F-1 2A.F ....|--- .... ....
....|..|B-8 JF.F ....|G#4 2F.F ....|--- .... ....
....|..|--- .... ....|--- .... ....|--- .... ....
 F-3|..|C-4 AF.F ....|C-5 2F.F ....|F-1 2F.7 ....
 F-3|..|F-1 2F.7 ....|R-- .... ....|--- .... ....
....|..|--- .... ....|G#4 2F.F ....|--- .... ....
....|..|--- .... ....|--- .... ....|--- .... ....
 F-3|..|B-8 JF.F ....|F-4 2F.F ....|F-1 2A.F ....
 F-3|..|F-1 2A.F ....|F-1 2A.F ....|--- .... ....
....|..|B-8 JF.F ....|C-4 2F.F ....|--- .... ....
....|..|--- .... ....|--- .... ....|--- .... ....
 C-4|..|C-4 AF.F ....|A#3 2F.F ....|C-2 2A.F ....
 C-4|..|C-2 2A.F ....|C-2 2A.F ....|--- .... ....
....|..|B-8 JF.7 ....|G#3 2F.F ....|--- .... ....
....|..|--- .... ....|--- .... ....|--- .... ....
....|..|R-- .... ....|F-3 2F.F ....|R-- .... ....
....|..|R-- .... ....|R-- .... ....|--- .... ....
....|..|--- .... ....|G#3 2F.F ....|--- .... ....
....|..|--- .... ....|--- .... ....|--- .... ....

[Pattern10]
 F-3|..|C-4 AF.F ....|F-1 2A.F ....|F-1 2A.F ....
 F-3|..|F-1 2A.F ....|F-1 2F.7 ....|--- .... ....
....|..|B-8 JF.A ....|D#4 2F.7 ....|--- .... ....
....|..|--- .... ....|--- .... ....|--- .... ....
 F-3|..|B-8 JF.F ....|F-4 2F.7 ....|F-1 2F.7 ....
 F-3|..|F-1 2F.7 ....|F-1 2F.7 ....|--- .... ....
....|..|B-8 JF.7 ....|G#4 2F.7 ....|--- .... ....
....|..|--- .... ....|--- .... ....|--- .... ....
 F-3|..|C-4 AF.F ....|F-1 2A.F ....|F-1 2A.F ....
 F-3|..|F-1 2A.F ....|R-- .... ....|--- .... ....
....|..|--- .... ....|G#4 2F.7 ....|--- .... ....
....|..|--- .... ....|--- .... ....|--- .... ....
 F-3|..|B-8 JF.F ....|F-4 2F.7 ....|F-1 2F.7 ....
 F-3|..|F-1 2F.7 ....|F-1 2F.7 ....|--- .... ....
....|..|B-8 JF.7 ....|C-4 2F.7 ....|--- .... ....
....|..|--- .... ....|--- .... ....|--- .... ....
 F-3|..|C-4 AF.F ....|F-1 2A.F ....|F-1 2A.F ....
 C-4|..|F-1 2A.F ....|C-2 2F.7 ....|--- .... ....
....|..|--- .... ....|G#3 2F.7 ....|--- .... ....
....|..|--- .... ....|--- .... ....|--- .... ....
....|..|B-8 JF.F ....|F-3 2F.7 ....|R-- .... ....
....|..|R-- .... ....|--- .... ....|--- .... ....
....|..|--- .... ....|G#3 2F.7 ....|--- .... ....
....|..|--- .... ....|--- .... ....|--- .... ....
 F-3|..|C-4 AF.F ....|F-1 2A.F ....|F-1 2A.F ....
 F-3|..|F-1 2A.F ....|--- .... ....|--- .... ....
....|..|--- .... ....|--- .... ....|--- .... ....
....|..|--- .... ....|--- .... ....|--- .... ....
....|..|B-8 JF.F ....|R-- .... ....|R-- .... ....
....|..|R-- .... ....|--- .... ....|--- .... ....
....|..|--- .... ....|--- .... ....|--- .... ....
....|..|--- .... ....|--- .... ....|--- .... ....
 F-3|..|C-4 AF.F ....|F-1 2A.F ....|F-1 2A.F ....
 F-3|..|F-1 2A.F ....|--- .... ....|--- .... ....
....|..|--- .... ....|--- .... ....|--- .... ....
....|..|--- .... ....|--- .... ....|--- .... ....
....|..|B-8 JF.F ....|R-- .... ....|R-- .... ....
....|..|R-- .... ....|--- .... ....|--- .... ....
....|..|--- .... ....|--- .... ....|--- .... ....
....|..|--- .... ....|--- .... ....|--- .... ....
 F-3|..|C-4 AF.F ....|F-1 2A.F ....|F-1 2A.F ....
 F-3|..|F-1 2A.F ....|--- .... ....|--- .... ....
....|..|R-- .... ....|R-- .... ....|R-- .... ....
....|..|--- .... ....|--- .... ....|--- .... ....
 F-3|..|B-8 JF.F ....|F-1 2A.F ....|F-1 2A.F ....
 F-3|..|F-1 2A.F ....|--- .... ....|--- .... ....
....|..|--- .... ....|--- .... ....|--- .... ....
....|..|--- .... ....|--- .... ....|--- .... ....
 F-3|..|C-4 AF.F ....|F-1 2F.7 ....|F-1 2F.7 ....
 F-3|..|F-1 2F.7 ....|--- .... ....|--- .... ....
....|..|--- .... ....|--- .... ....|--- .... ....
....|..|--- .... ....|--- .... ....|--- .... ....
 D#3|..|B-8 JF.F ....|D#1 2A.F ....|D#1 2A.F ....
 D#3|..|D#1 2A.F ....|--- .... ....|--- .... ....
....|..|R-- .... ....|R-- .... ....|R-- .... ....
....|..|--- .... ....|--- .... ....|--- .... ....
 F-3|..|C-4 AF.F ....|F-1 2A.F ....|F-1 2A.F ....
 F-3|..|F-1 2A.F ....|--- .... ....|--- .... ....
....|..|--- .... ....|--- .... ....|--- .... ....
....|..|--- .... ....|--- .... ....|--- .... ....
....|..|B-8 JF.F ....|R-- .... ....|R-- .... ....
....|..|R-- .... ....|--- .... ....|--- .... ....
....|..|--- .... ....|--- .... ....|--- .... ....
....|..|--- .... ....|--- .... ....|--- .... ....
 G#3|..|C-4 AF.F ....|G#1 2A.F ....|G#1 2A.F ....
 G#3|..|G#1 2A.F ....|--- .... ....|--- .... ....
....|..|R-- .... ....|R-- .... ....|R-- .... ....
....|..|--- .... ....|--- .... ....|--- .... ....
 F-3|..|B-8 JF.F ....|F-1 2F.7 ....|F-1 2F.7 ....
 F-3|..|F-1 2F.7 ....|--- .... ....|--- .... ....
....|..|--- .... ....|--- .... ....|--- .... ....
....|..|--- .... ....|--- .... ....|--- .... ....
 F-3|..|C-4 AF.F ....|F-1 2A.F ....|F-1 2A.F ....
 F-3|..|F-1 2A.F ....|--- .... ....|--- .... ....
....|..|--- .... ....|--- .... ....|--- .... ....
....|..|--- .... ....|--- .... ....|--- .... ....
 D#3|..|B-8 JF.F ....|D#1 2F.7 ....|D#1 2F.7 ....
 D#3|..|D#1 2F.7 ....|--- .... ....|--- .... ....
....|..|--- .... ....|--- .... ....|--- .... ....
....|..|--- .... ....|--- .... ....|--- .... ....
 F-3|..|C-4 AF.F ....|F-1 2A.F ....|F-1 2A.F ....
 F-3|..|F-1 2A.F ....|--- .... ....|--- .... ....
....|..|--- .... ....|--- .... ....|--- .... ....
....|..|--- .... ....|--- .... ....|--- .... ....
....|..|B-8 JF.F ....|R-- .... ....|R-- .... ....
....|..|R-- .... ....|--- .... ....|--- .... ....
....|..|--- .... ....|--- .... ....|--- .... ....
....|..|--- .... ....|--- .... ....|--- .... ....
 F-3|..|C-4 AF.F ....|F-1 2A.F ....|F-1 2A.F ....
 F-3|..|F-1 2A.F ....|--- .... ....|--- .... ....
....|..|--- .... ....|--- .... ....|--- .... ....
....|..|--- .... ....|--- .... ....|--- .... ....
....|..|B-8 JF.F ....|R-- .... ....|R-- .... ....
....|..|R-- .... ....|--- .... ....|--- .... ....
....|..|--- .... ....|--- .... ....|--- .... ....
....|..|--- .... ....|--- .... ....|--- .... ....
 F-3|..|C-4 AF.F ....|F-1 2A.F ....|F-1 2A.F ....
 F-3|..|F-1 2A.F ....|--- .... ....|--- .... ....
....|..|--- .... ....|--- .... ....|--- .... ....
....|..|--- .... ....|--- .... ....|--- .... ....
....|..|B-8 JF.F ....|R-- .... ....|R-- .... ....
....|..|R-- .... ....|--- .... ....|--- .... ....
....|..|--- .... ....|--- .... ....|--- .... ....
....|..|--- .... ....|--- .... ....|--- .... ....
 D#3|..|C-4 AF.F ....|D#1 2A.F ....|D#1 2A.F ....
 D#3|..|D#1 2A.F ....|--- .... ....|--- .... ....
....|..|--- .... ....|--- .... ....|--- .... ....
....|..|--- .... ....|--- .... ....|--- .... ....
 F-3|..|B-8 JF.F ....|F-1 2A.F ....|F-1 2A.F ....
 F-3|..|F-1 2A.F ....|--- .... ....|--- .... ....
....|..|--- .... ....|--- .... ....|--- .... ....
....|..|--- .... ....|--- .... ....|--- .... ....
 F-3|..|C-4 AF.F ....|F-1 2F.7 ....|F-1 2F.7 ....
 F-3|..|F-1 2F.7 ....|--- .... ....|--- .... ....
....|..|--- .... ....|--- .... ....|--- .... ....
....|..|--- .... ....|--- .... ....|--- .... ....
 D#3|..|B-8 JF.F ....|D#1 2A.F ....|D#1 2A.F ....
 D#3|..|D#1 2A.F ....|--- .... ....|--- .... ....
....|..|--- .... ....|--- .... ....|--- .... ....
....|..|--- .... ....|--- .... ....|--- .... ....
 F-3|..|C-4 AF.F ....|F-1 2A.F ....|F-1 2A.F ....
 F-3|..|F-1 2A.F ....|--- .... ....|--- .... ....
....|..|--- .... ....|--- .... ....|--- .... ....
....|..|--- .... ....|--- .... ....|--- .... ....
....|..|B-8 JF.F ....|R-- .... ....|R-- .... ....
....|..|R-- .... ....|--- .... ....|--- .... ....
....|..|--- .... ....|--- .... ....|--- .... ....
....|..|--- .... ....|--- .... ....|--- .... ....

[Pattern11]
 G-3|..|C-4 AF.F ....|G-1 2A.F ....|G-1 2A.F ....
 G-3|..|G-1 2A.F ....|--- .... ....|--- .... ....
....|..|--- .... ....|--- .... ....|--- .... ....
....|..|--- .... ....|--- .... ....|--- .... ....
 F-3|..|B-8 JF.F ....|F-1 2F.7 ....|F-1 2F.7 ....
 F-3|..|F-1 2F.7 ....|--- .... ....|--- .... ....
....|..|--- .... ....|--- .... ....|--- .... ....
....|..|--- .... ....|--- .... ....|--- .... ....
 F-3|..|C-4 AF.F ....|F-1 2A.F ....|F-1 2A.F ....
 F-3|..|F-1 2A.F ....|--- .... ....|--- .... ....
....|..|--- .... ....|--- .... ....|--- .... ....
....|..|--- .... ....|--- .... ....|--- .... ....
 D#3|..|B-8 JF.F ....|D#1 2F.7 ....|D#1 2F.7 ....
 D#3|..|D#1 2F.7 ....|--- .... ....|--- .... ....
....|..|--- .... ....|--- .... ....|--- .... ....
....|..|--- .... ....|--- .... ....|--- .... ....
 F-3|..|C-4 AF.F ....|F-1 2A.F ....|F-1 2A.F ....
 F-3|..|F-1 2A.F ....|--- .... ....|--- .... ....
....|..|--- .... ....|--- .... ....|--- .... ....
....|..|--- .... ....|--- .... ....|--- .... ....
....|..|B-8 JF.F ....|R-- .... ....|R-- .... ....
....|..|R-- .... ....|--- .... ....|--- .... ....
....|..|--- .... ....|--- .... ....|--- .... ....
....|..|--- .... ....|--- .... ....|--- .... ....
 F-3|..|C-4 AF.F ....|F-1 2A.F ....|F-1 2A.F ....
 F-3|..|F-1 2A.F ....|--- .... ....|--- .... ....
....|..|--- .... ....|--- .... ....|--- .... ....
....|..|--- .... ....|--- .... ....|--- .... ....
....|..|B-8 JF.F ....|R-- .... ....|R-- .... ....
....|..|R-- .... ....|--- .... ....|--- .... ....
....|..|--- .... ....|--- .... ....|--- .... ....
....|..|--- .... ....|--- .... ....|--- .... ....
 D#3|..|C-4 AF.F ....|D#1 2A.F ....|D#1 2A.F ....
 D#3|..|D#1 2A.F ....|--- .... ....|--- .... ....
....|..|--- .... ....|--- .... ....|--- .... ....
....|..|--- .... ....|--- .... ....|--- .... ....
....|..|B-8 JF.F ....|R-- .... ....|R-- .... ....
....|..|R-- .... ....|--- .... ....|--- .... ....
....|..|--- .... ....|--- .... ....|--- .... ....
....|..|--- .... ....|--- .... ....|--- .... ....
 F-3|..|C-4 AF.F ....|F-1 2A.F ....|F-1 2A.F ....
 F-3|..|F-1 2A.F ....|--- .... ....|--- .... ....
....|..|--- .... ....|--- .... ....|--- .... ....
....|..|--- .... ....|--- .... ....|--- .... ....
 F-3|..|B-8 JF.F ....|F-1 2A.F ....|F-1 2A.F ....
 F-3|..|F-1 2A.F ....|--- .... ....|--- .... ....
....|..|--- .... ....|--- .... ....|--- .... ....
....|..|--- .... ....|--- .... ....|--- .... ....
 F-3|..|C-4 AF.F ....|F-1 2F.7 ....|F-1 2F.7 ....
 F-3|..|F-1 2F.7 ....|--- .... ....|--- .... ....
....|..|--- .... ....|--- .... ....|--- .... ....
....|..|--- .... ....|--- .... ....|--- .... ....
 D#3|..|B-8 JF.F ....|D#1 2A.F ....|D#1 2A.F ....
 D#3|..|D#1 2A.F ....|--- .... ....|--- .... ....
....|..|--- .... ....|--- .... ....|--- .... ....
....|..|--- .... ....|--- .... ....|--- .... ....
 F-3|..|C-4 AF.F ....|F-1 2A.F ....|F-1 2A.F ....
 F-3|..|F-1 2A.F ....|--- .... ....|--- .... ....
....|..|--- .... ....|--- .... ....|--- .... ....
....|..|--- .... ....|--- .... ....|--- .... ....
 D#3|..|B-8 JF.F ....|D#1 2A.F ....|D#1 2A.F ....
 D#3|..|D#1 2A.F ....|--- .... ....|--- .... ....
....|..|--- .... ....|--- .... ....|--- .... ....
....|..|--- .... ....|--- .... ....|--- .... ....
 G#3|..|C-4 AF.F ....|G#1 2A.F ....|G#1 2A.F ....
 G#3|..|G#1 2A.F ....|--- .... ....|--- .... ....
....|..|--- .... ....|--- .... ....|--- .... ....
....|..|--- .... ....|--- .... ....|--- .... ....
 F-3|..|B-8 JF.F ....|F-1 2F.7 ....|F-1 2F.7 ....
 F-3|..|F-1 2F.7 ....|--- .... ....|--- .... ....
....|..|--- .... ....|--- .... ....|--- .... ....
....|..|--- .... ....|--- .... ....|--- .... ....
 F-3|..|C-4 AF.F ....|F-1 2A.F ....|F-1 2A.F ....
 F-3|..|F-1 2A.F ....|--- .... ....|--- .... ....
....|..|--- .... ....|--- .... ....|--- .... ....
....|..|--- .... ....|--- .... ....|--- .... ....
 D#3|..|B-8 JF.F ....|D#1 2F.7 ....|D#1 2F.7 ....
 D#3|..|D#1 2F.7 ....|--- .... ....|--- .... ....
....|..|--- .... ....|--- .... ....|--- .... ....
....|..|--- .... ....|--- .... ....|--- .... ....
 F-3|..|C-4 AF.F ....|F-1 2A.F ....|F-1 2A.F ....
 F-3|..|F-1 2A.F ....|--- .... ....|--- .... ....
....|..|--- .... ....|--- .... ....|--- .... ....
....|..|--- .... ....|--- .... ....|--- .... ....
 D#3|..|B-8 JF.F ....|D#1 2F.7 ....|D#1 2F.7 ....
 D#3|..|D#1 2F.7 ....|--- .... ....|--- .... ....
....|..|--- .... ....|--- .... ....|--- .... ....
....|..|--- .... ....|--- .... ....|--- .... ....
 F-3|..|C-4 AF.F ....|F-1 2A.F ....|F-1 2A.F ....
 F-3|..|F-1 2A.F ....|--- .... ....|--- .... ....
....|..|--- .... ....|--- .... ....|--- .... ....
....|..|--- .... ....|--- .... ....|--- .... ....
....|..|B-8 JF.F ....|R-- .... ....|R-- .... ....
....|..|R-- .... ....|--- .... ....|--- .... ....
....|..|--- .... ....|--- .... ....|--- .... ....
....|..|--- .... ....|--- .... ....|--- .... ....
 D#3|..|C-4 AF.F ....|D#1 2A.F ....|D#1 2A.F ....
 D#3|..|D#1 2A.F ....|--- .... ....|--- .... ....
....|..|--- .... ....|--- .... ....|--- .... ....
....|..|--- .... ....|--- .... ....|--- .... ....
....|..|B-8 JF.F ....|R-- .... ....|R-- .... ....
....|..|R-- .... ....|--- .... ....|--- .... ....
....|..|--- .... ....|--- .... ....|--- .... ....
....|..|--- .... ....|--- .... ....|--- .... ....
 F-3|..|C-4 AF.F ....|F-1 2A.F ....|F-1 2A.F ....
 F-3|..|F-1 2A.F ....|--- .... ....|--- .... ....
....|..|--- .... ....|--- .... ....|--- .... ....
....|..|--- .... ....|--- .... ....|--- .... ....
 F-3|..|B-8 JF.F ....|F-1 2A.F ....|F-1 2A.F ....
 F-3|..|F-1 2A.F ....|--- .... ....|--- .... ....
....|..|--- .... ....|--- .... ....|--- .... ....
....|..|--- .... ....|--- .... ....|--- .... ....
 F-3|..|C-4 AF.7 ....|F-1 2F.7 ....|F-1 2F.7 ....
 F-3|..|F-1 2F.7 ....|--- .... ....|--- .... ....
....|..|--- .... ....|--- .... ....|--- .... ....
....|..|--- .... ....|--- .... ....|--- .... ....
 D#3|..|D#1 2A.F ....|R-- .... ....|D#1 2A.F ....
....|..|R-- .... ....|--- .... ....|--- .... ....
....|..|--- .... ....|--- .... ....|--- .... ....
....|..|--- .... ....|--- .... ....|--- .... ....
 D#3|..|F-1 2A.F ....|D#1 2F.7 ....|F-1 2A.F ....
 D#3|..|D#1 2F.7 ....|--- .... ....|--- .... ....
....|..|--- .... ....|--- .... ....|--- .... ....
....|..|--- .... ....|--- .... ....|--- .... ....
 F-4|..|F-2 2A.F ....|R-- .... ....|F-2 2A.F ....
....|..|R-- .... ....|--- .... ....|--- .... ....
....|..|--- .... ....|--- .... ....|--- .... ....
....|..|--- .... ....|--- .... ....|--- .... ....

[Pattern12]
 F-3|..|C-4 AF.F ....|F-1 2F.7 ....|G#2 2A.F ....
 G#4|..|G#2 2A.F ....|--- .... ....|--- .... ....
....|..|--- .... ....|--- .... ....|--- .... ....
....|..|--- .... ....|--- .... ....|--- .... ....
 F-3|..|F-1 2A.F ....|F-1 2A.F ....|F-1 2A.F ....
 F-3|..|F-1 2A.F ....|--- .... ....|F-1 2A.F ....
....|..|--- .... ....|--- .... ....|--- .... ....
....|..|--- .... ....|--- .... ....|--- .... ....
....|..|C-4 AF.F ....|R-- .... ....|R-- .... ....
....|..|R-- .... ....|--- .... ....|--- .... ....
....|..|--- .... ....|--- .... ....|--- .... ....
....|..|--- .... ....|--- .... ....|--- .... ....
 F-3|..|F-1 2A.F ....|F-1 2A.F ....|F-2 2A.F ....
 F-3|..|F-2 2A.F ....|--- .... ....|F-1 2A.F ....
....|..|--- .... ....|--- .... ....|--- .... ....
....|..|--- .... ....|--- .... ....|--- .... ....
 F-3|..|C-4 AF.F ....|R-- .... ....|F-1 2F.7 ....
 F-3|..|R-- .... ....|--- .... ....|F-1 2F.A ....
....|..|--- .... ....|--- .... ....|--- .... ....
....|..|--- .... ....|--- .... ....|--- .... ....
 D#3|..|F-1 2A.F ....|F-1 2A.F ....|D#1 2A.F ....
 D#3|..|D#1 2A.F ....|--- .... ....|F-1 2A.F ....
....|..|--- .... ....|--- .... ....|--- .... ....
....|..|--- .... ....|--- .... ....|--- .... ....
 F-3|..|C-4 AF.F ....|R-- .... ....|F-1 2A.F ....
 F-3|..|F-1 2A.F ....|--- .... ....|R-- .... ....
....|..|--- .... ....|--- .... ....|--- .... ....
....|..|--- .... ....|--- .... ....|--- .... ....
 F-3|..|F-1 2A.F ....|F-1 2A.F ....|F-2 2A.F ....
 F-3|..|F-2 2A.F ....|--- .... ....|F-1 2A.F ....
....|..|--- .... ....|--- .... ....|--- .... ....
....|..|--- .... ....|--- .... ....|--- .... ....
 G#4|..|C-4 AF.F ....|R-- .... ....|G#2 2A.F ....
 G#4|..|G#2 2A.F ....|--- .... ....|R-- .... ....
....|..|--- .... ....|--- .... ....|--- .... ....
....|..|--- .... ....|--- .... ....|--- .... ....
 F-3|..|F-1 2A.F ....|F-1 2A.F ....|F-1 2A.F ....
 F-3|..|F-1 2A.F ....|--- .... ....|F-1 2A.F ....
....|..|--- .... ....|--- .... ....|--- .... ....
....|..|--- .... ....|--- .... ....|--- .... ....
 F-4|..|C-4 AF.F ....|R-- .... ....|F-2 2A.F ....
 F-4|..|F-2 2A.F ....|--- .... ....|R-- .... ....
....|..|--- .... ....|--- .... ....|--- .... ....
....|..|--- .... ....|--- .... ....|--- .... ....
 D#4|..|F-1 2A.F ....|F-1 2A.F ....|D#2 2A.F ....
 D#4|..|D#2 2A.F ....|--- .... ....|F-1 2A.F ....
....|..|--- .... ....|--- .... ....|--- .... ....
....|..|--- .... ....|--- .... ....|--- .... ....
 F-3|..|C-4 AF.F ....|R-- .... ....|F-1 2F.7 ....
 F-3|..|F-1 2F.7 ....|--- .... ....|R-- .... ....
....|..|--- .... ....|--- .... ....|--- .... ....
....|..|--- .... ....|--- .... ....|--- .... ....
 D#3|..|F-1 2A.F ....|F-1 2A.F ....|D#1 2A.F ....
 D#3|..|D#1 2A.F ....|--- .... ....|F-1 2A.F ....
....|..|--- .... ....|--- .... ....|--- .... ....
....|..|--- .... ....|--- .... ....|--- .... ....
 F-3|..|C-4 AF.F ....|R-- .... ....|F-1 2A.F ....
 F-3|..|F-1 2A.F ....|--- .... ....|R-- .... ....
....|..|--- .... ....|--- .... ....|--- .... ....
....|..|--- .... ....|--- .... ....|--- .... ....
 F-3|..|F-1 2A.F ....|F-1 2A.F ....|F-2 2A.F ....
 F-3|..|F-2 2A.F ....|--- .... ....|F-1 2A.F ....
....|..|--- .... ....|--- .... ....|--- .... ....
....|..|--- .... ....|--- .... ....|--- .... ....
 G#4|..|C-4 AF.F ....|R-- .... ....|G#2 2A.F ....
 G#4|..|G#2 2A.F ....|--- .... ....|R-- .... ....
....|..|--- .... ....|--- .... ....|--- .... ....
....|..|--- .... ....|--- .... ....|--- .... ....
 F-3|..|F-1 2A.F ....|F-1 2A.F ....|F-1 2A.F ....
 F-3|..|F-1 2A.F ....|--- .... ....|F-1 2A.F ....
....|..|--- .... ....|--- .... ....|--- .... ....
....|..|--- .... ....|--- .... ....|--- .... ....
....|..|C-4 AF.F ....|R-- .... ....|R-- .... ....
 F-3|..|R-- .... ....|--- .... ....|F-1 2F.A ....
....|..|--- .... ....|--- .... ....|--- .... ....
....|..|--- .... ....|--- .... ....|--- .... ....
 F-3|..|F-1 2A.F ....|F-1 2A.F ....|F-2 2A.F ....
 F-3|..|F-2 2A.F ....|--- .... ....|F-1 2A.F ....
....|..|--- .... ....|--- .... ....|--- .... ....
....|..|--- .... ....|--- .... ....|--- .... ....
 F-3|..|C-4 AF.F ....|R-- .... ....|F-1 2F.7 ....
 F-3|..|F-1 2F.7 ....|--- .... ....|R-- .... ....
....|..|--- .... ....|--- .... ....|--- .... ....
....|..|--- .... ....|--- .... ....|--- .... ....
 D#3|..|F-1 2A.F ....|F-1 2A.F ....|D#1 2A.F ....
 D#3|..|D#1 2A.F ....|--- .... ....|F-1 2A.F ....
....|..|--- .... ....|--- .... ....|--- .... ....
....|..|--- .... ....|--- .... ....|--- .... ....
 F-3|..|C-4 AF.F ....|R-- .... ....|F-1 2A.F ....
 F-3|..|F-1 2A.F ....|--- .... ....|R-- .... ....
....|..|--- .... ....|--- .... ....|--- .... ....
....|..|--- .... ....|--- .... ....|--- .... ....
 F-3|..|F-1 2A.F ....|F-1 2A.F ....|F-2 2A.F ....
 F-3|..|F-2 2A.F ....|--- .... ....|F-1 2A.F ....
....|..|--- .... ....|--- .... ....|--- .... ....
....|..|--- .... ....|--- .... ....|--- .... ....
 D#4|..|C-4 AF.F ....|R-- .... ....|D#2 2A.F ....
 D#4|..|D#2 2A.F ....|--- .... ....|R-- .... ....
....|..|--- .... ....|--- .... ....|--- .... ....
....|..|--- .... ....|--- .... ....|--- .... ....
 F-3|..|F-1 2A.F ....|F-1 2A.F ....|F-1 2A.F ....
 F-3|..|F-1 2A.F ....|--- .... ....|F-1 2A.F ....
....|..|--- .... ....|--- .... ....|--- .... ....
....|..|--- .... ....|--- .... ....|--- .... ....
 F-4|..|C-4 AF.F ....|R-- .... ....|F-2 2A.F ....
 F-4|..|F-2 2A.F ....|--- .... ....|R-- .... ....
....|..|--- .... ....|--- .... ....|--- .... ....
....|..|--- .... ....|--- .... ....|--- .... ....
 F-3|..|F-1 2A.F ....|F-1 2A.F ....|G#2 2A.F ....
 F-3|..|G#2 2A.F ....|--- .... ....|F-1 2A.F ....
....|..|--- .... ....|--- .... ....|--- .... ....
....|..|--- .... ....|--- .... ....|--- .... ....
 F-3|..|C-4 AF.F ....|R-- .... ....|F-1 2F.7 ....
 F-3|..|F-1 2F.7 ....|--- .... ....|R-- .... ....
....|..|--- .... ....|--- .... ....|--- .... ....
....|..|--- .... ....|--- .... ....|--- .... ....
 D#3|..|F-1 2A.F ....|F-1 2A.F ....|D#1 2A.F ....
 D#3|..|D#1 2A.F ....|--- .... ....|F-1 2A.F ....
....|..|--- .... ....|--- .... ....|--- .... ....
....|..|--- .... ....|--- .... ....|--- .... ....
 F-3|..|C-4 AF.F ....|R-- .... ....|F-1 2A.F ....
 F-3|..|F-1 2A.F ....|--- .... ....|R-- .... ....
....|..|--- .... ....|--- .... ....|--- .... ....
....|..|--- .... ....|--- .... ....|--- .... ....
 F-3|..|F-1 2A.F ....|F-1 2A.F ....|F-2 2A.F ....
 F-3|..|F-2 2A.F ....|--- .... ....|F-1 2A.F ....
....|..|--- .... ....|--- .... ....|--- .... ....
....|..|--- .... ....|--- .... ....|--- .... ....

[Pattern13]
 A#3|..|C-4 AF.F ....|R-- .... ....|A#2 2C.F ....
 A#3|..|A#2 2C.F ....|--- .... ....|R-- .... ....
....|..|--- .... ....|--- .... ....|--- .... ....
....|..|--- .... ....|--- .... ....|--- .... ....
 F-3|..|F-1 2A.F ....|F-1 2A.F ....|F-1 2A.F ....
 F-3|..|F-1 2A.F ....|--- .... ....|F-1 2A.F ....
....|..|--- .... ....|--- .... ....|--- .... ....
....|..|--- .... ....|--- .... ....|--- .... ....
 F-4|..|C-4 AF.F ....|R-- .... ....|F-2 2A.F ....
 F-4|..|F-2 2A.F ....|--- .... ....|R-- .... ....
....|..|--- .... ....|--- .... ....|--- .... ....
....|..|--- .... ....|--- .... ....|--- .... ....
 D#4|..|F-1 2A.F ....|F-1 2A.F ....|D#2 2A.F ....
 D#4|..|D#2 2A.F ....|--- .... ....|F-1 2A.F ....
....|..|--- .... ....|--- .... ....|--- .... ....
....|..|--- .... ....|--- .... ....|--- .... ....
 F-3|..|C-4 AF.F ....|R-- .... ....|F-1 2F.7 ....
 F-3|..|F-1 2F.7 ....|--- .... ....|R-- .... ....
....|..|--- .... ....|--- .... ....|--- .... ....
....|..|--- .... ....|--- .... ....|--- .... ....
 D#3|..|F-1 2A.F ....|F-1 2A.F ....|D#1 2A.F ....
 D#3|..|D#1 2A.F ....|--- .... ....|F-1 2A.F ....
....|..|--- .... ....|--- .... ....|--- .... ....
....|..|--- .... ....|--- .... ....|--- .... ....
 F-3|..|C-4 AF.F ....|R-- .... ....|F-1 2A.F ....
 F-3|..|F-1 2A.F ....|--- .... ....|R-- .... ....
....|..|--- .... ....|--- .... ....|--- .... ....
....|..|--- .... ....|--- .... ....|--- .... ....
 F-3|..|F-1 2A.F ....|F-1 2A.F ....|F-2 2A.F ....
 F-3|..|F-2 2A.F ....|--- .... ....|F-1 2A.F ....
....|..|--- .... ....|--- .... ....|--- .... ....
....|..|--- .... ....|--- .... ....|--- .... ....
 G#4|..|C-4 AF.F ....|R-- .... ....|G#2 2A.F ....
 G#4|..|G#2 2A.F ....|--- .... ....|R-- .... ....
....|..|--- .... ....|--- .... ....|--- .... ....
....|..|--- .... ....|--- .... ....|--- .... ....
 F-3|..|F-1 2A.F ....|F-1 2A.F ....|F-1 2A.F ....
 F-3|..|F-1 2A.F ....|--- .... ....|F-1 2A.F ....
....|..|--- .... ....|--- .... ....|--- .... ....
....|..|--- .... ....|--- .... ....|--- .... ....
 F-4|..|C-4 AF.F ....|R-- .... ....|F-2 2A.F ....
 F-4|..|F-2 2A.F ....|--- .... ....|R-- .... ....
....|..|--- .... ....|--- .... ....|--- .... ....
....|..|--- .... ....|--- .... ....|--- .... ....
 A#3|..|F-1 2A.F ....|F-1 2A.F ....|A#2 2C.F ....
 A#3|..|A#2 2C.F ....|--- .... ....|F-1 2A.F ....
....|..|--- .... ....|--- .... ....|--- .... ....
....|..|--- .... ....|--- .... ....|--- .... ....
 F-3|..|C-4 AF.F ....|R-- .... ....|F-1 2F.7 ....
 F-3|..|F-1 2F.7 ....|--- .... ....|R-- .... ....
....|..|--- .... ....|--- .... ....|--- .... ....
....|..|--- .... ....|--- .... ....|--- .... ....
 D#3|..|F-1 2A.F ....|F-1 2A.F ....|D#1 2A.F ....
 D#3|..|D#1 2A.F ....|--- .... ....|F-1 2A.F ....
....|..|--- .... ....|--- .... ....|--- .... ....
....|..|--- .... ....|--- .... ....|--- .... ....
 F-3|..|C-4 AF.F ....|R-- .... ....|F-1 2A.F ....
 F-3|..|F-1 2A.F ....|--- .... ....|R-- .... ....
....|..|--- .... ....|--- .... ....|--- .... ....
....|..|--- .... ....|--- .... ....|--- .... ....
 F-3|..|F-1 2A.F ....|F-1 2A.F ....|F-2 2A.F ....
 F-3|..|F-2 2A.F ....|--- .... ....|F-1 2A.F ....
....|..|--- .... ....|--- .... ....|--- .... ....
....|..|--- .... ....|--- .... ....|--- .... ....
 G#4|..|C-4 AF.F ....|R-- .... ....|G#2 2A.F ....
 G#4|..|G#2 2A.F ....|--- .... ....|R-- .... ....
....|..|--- .... ....|--- .... ....|--- .... ....
....|..|--- .... ....|--- .... ....|--- .... ....
 F-3|..|F-1 2A.F ....|F-1 2A.F ....|F-1 2A.F ....
 F-3|..|F-1 2A.F ....|--- .... ....|F-1 2A.F ....
....|..|--- .... ....|--- .... ....|--- .... ....
....|..|--- .... ....|--- .... ....|--- .... ....
....|..|C-4 AF.F ....|R-- .... ....|R-- .... ....
 F-3|..|R-- .... ....|--- .... ....|F-1 2F.A ....
....|..|--- .... ....|--- .... ....|--- .... ....
....|..|--- .... ....|--- .... ....|--- .... ....
 F-3|..|F-1 2A.F ....|F-1 2A.F ....|F-2 2A.F ....
 F-3|..|F-2 2A.F ....|--- .... ....|F-1 2A.F ....
....|..|--- .... ....|--- .... ....|--- .... ....
....|..|--- .... ....|--- .... ....|--- .... ....
 F-3|..|C-4 AF.F ....|R-- .... ....|F-1 2F.7 ....
 F-3|..|F-1 2F.7 ....|--- .... ....|R-- .... ....
....|..|--- .... ....|--- .... ....|--- .... ....
....|..|--- .... ....|--- .... ....|--- .... ....
 D#3|..|F-1 2A.F ....|F-1 2A.F ....|D#1 2A.F ....
 D#3|..|D#1 2A.F ....|--- .... ....|F-1 2A.F ....
....|..|--- .... ....|--- .... ....|--- .... ....
....|..|--- .... ....|--- .... ....|--- .... ....
 F-3|..|C-4 AF.F ....|R-- .... ....|F-1 2A.F ....
 F-3|..|F-1 2A.F ....|--- .... ....|R-- .... ....
....|..|--- .... ....|--- .... ....|--- .... ....
....|..|--- .... ....|--- .... ....|--- .... ....
 F-3|..|F-1 2A.F ....|F-1 2A.F ....|F-2 2A.F ....
 F-3|..|F-2 2A.F ....|--- .... ....|F-1 2A.F ....
....|..|--- .... ....|--- .... ....|--- .... ....
....|..|--- .... ....|--- .... ....|--- .... ....
 G#4|..|C-4 AF.F ....|R-- .... ....|G#2 2A.F ....
 G#4|..|G#2 2A.F ....|--- .... ....|R-- .... ....
....|..|--- .... ....|--- .... ....|--- .... ....
....|..|--- .... ....|--- .... ....|--- .... ....
 F-3|..|F-1 2A.F ....|F-1 2A.F ....|F-1 2A.F ....
 F-3|..|F-1 2A.F ....|--- .... ....|F-1 2A.F ....
....|..|--- .... ....|--- .... ....|--- .... ....
....|..|--- .... ....|--- .... ....|--- .... ....
....|..|C-4 AF.F ....|R-- .... ....|R-- .... ....
 F-3|..|R-- .... ....|--- .... ....|F-1 2F.A ....
....|..|--- .... ....|--- .... ....|--- .... ....
....|..|--- .... ....|--- .... ....|--- .... ....
 F-3|..|C-4 AF.F ....|F-1 2A.F ....|F-2 2A.F ....
 F-3|..|F-1 2A.F ....|--- .... ....|F-1 2A.F ....
 F-4|..|F-2 2A.F ....|--- .... ....|--- .... ....
....|..|--- .... ....|--- .... ....|--- .... ....
 D#4|..|C-4 AF.F ....|R-- .... ....|D#2 2A.F ....
 D#4|..|D#2 2A.F ....|--- .... ....|R-- .... ....
....|..|--- .... ....|--- .... ....|--- .... ....
....|..|R-- .... ....|--- .... ....|R-- .... ....
 F-3|..|C-4 AF.F ....|F-1 2A.F ....|F-1 2A.F ....
 F-3|..|F-1 2A.F ....|--- .... ....|F-1 2A.F ....
 F-3|..|F-1 2A.F ....|--- .... ....|--- .... ....
....|..|R-- .... ....|--- .... ....|R-- .... ....
 C-4|..|C-4 AF.F ....|R-- .... ....|C-2 2A.F ....
 C-4|..|C-2 2A.F ....|--- .... ....|R-- .... ....
 F-4|..|F-2 2F.A ....|--- .... ....|--- .... ....
....|..|R-- .... ....|--- .... ....|R-- .... ....
 F-3|..|C-4 AF.F ....|F-1 2A.F ....|F-1 2A.F ....
 F-3|..|F-1 2A.F ....|--- .... ....|F-1 2A.F ....
 F-3|..|F-1 2A.F ....|--- .... ....|--- .... ....
....|..|R-- .... ....|--- .... ....|R-- .... ....

[Pattern14]
 G#4|..|C-4 AF.F ....|R-- .... ....|G#2 2A.F ....
 G#4|..|G#2 2A.F ....|--- .... ....|R-- .... ....
 F-3|..|F-1 2F.A ....|--- .... ....|--- .... ....
....|..|R-- .... ....|--- .... ....|R-- .... ....
 F-3|..|F-1 2A.F ....|F-1 2A.F ....|F-1 2A.F ....
 F-3|..|F-1 2A.F ....|--- .... ....|F-1 2A.F ....
 F-4|..|F-2 2F.7 ....|--- .... ....|--- .... ....
....|..|R-- .... ....|--- .... ....|R-- .... ....
 D#4|..|C-4 AF.F ....|R-- .... ....|D#2 2F.7 ....
 D#4|..|D#2 2F.7 ....|--- .... ....|R-- .... ....
 F-3|..|F-1 2F.A ....|--- .... ....|--- .... ....
....|..|R-- .... ....|--- .... ....|R-- .... ....
 F-3|..|F-1 2A.F ....|F-1 2A.F ....|F-2 2A.F ....
 F-3|..|F-2 2A.F ....|--- .... ....|F-1 2A.F ....
 F-3|..|F-1 2F.7 ....|--- .... ....|--- .... ....
....|..|R-- .... ....|--- .... ....|R-- .... ....
 C-4|..|C-4 AF.F ....|R-- .... ....|C-2 2F.7 ....
 C-4|..|C-2 2F.7 ....|--- .... ....|R-- .... ....
....|..|--- .... ....|--- .... ....|--- .... ....
....|..|R-- .... ....|--- .... ....|R-- .... ....
 D#3|..|F-1 2A.F ....|F-1 2A.F ....|D#1 2A.F ....
 D#3|..|D#1 2A.F ....|--- .... ....|F-1 2A.F ....
 F-3|..|F-1 2F.7 ....|--- .... ....|--- .... ....
....|..|R-- .... ....|--- .... ....|R-- .... ....
 F-3|..|C-4 AF.F ....|R-- .... ....|F-1 2A.F ....
 F-3|..|F-1 2A.F ....|--- .... ....|R-- .... ....
....|..|--- .... ....|--- .... ....|--- .... ....
....|..|--- .... ....|--- .... ....|--- .... ....
 F-3|..|F-1 2A.F ....|F-1 2A.F ....|F-2 2A.F ....
 F-3|..|F-2 2A.F ....|--- .... ....|F-1 2A.F ....
....|..|--- .... ....|--- .... ....|--- .... ....
....|..|--- .... ....|--- .... ....|--- .... ....
 G#4|..|C-4 AF.F ....|R-- .... ....|G#2 2A.F ....
 G#4|..|G#2 2A.F ....|--- .... ....|R-- .... ....
....|..|--- .... ....|--- .... ....|--- .... ....
....|..|--- .... ....|--- .... ....|--- .... ....
 F-3|..|F-1 2A.F ....|F-1 2A.F ....|F-1 2A.F ....
 F-3|..|F-1 2A.F ....|--- .... ....|F-1 2A.F ....
....|..|--- .... ....|--- .... ....|--- .... ....
....|..|--- .... ....|--- .... ....|--- .... ....
 F-4|..|C-4 AF.F ....|R-- .... ....|F-2 2A.F ....
 F-4|..|F-2 2A.F ....|--- .... ....|R-- .... ....
....|..|--- .... ....|--- .... ....|--- .... ....
....|..|--- .... ....|--- .... ....|--- .... ....
 D#4|..|F-1 2A.F ....|F-1 2A.F ....|D#2 2A.F ....
 D#4|..|D#2 2A.F ....|--- .... ....|F-1 2A.F ....
....|..|--- .... ....|--- .... ....|--- .... ....
....|..|--- .... ....|--- .... ....|--- .... ....
 F-3|..|C-4 AF.F ....|R-- .... ....|F-1 2F.7 ....
 F-3|..|F-1 2F.7 ....|--- .... ....|R-- .... ....
....|..|--- .... ....|--- .... ....|--- .... ....
....|..|--- .... ....|--- .... ....|--- .... ....
 D#3|..|F-1 2A.F ....|F-1 2A.F ....|D#1 2A.F ....
 D#3|..|D#1 2A.F ....|--- .... ....|F-1 2A.F ....
....|..|--- .... ....|--- .... ....|--- .... ....
....|..|--- .... ....|--- .... ....|--- .... ....
 F-3|..|C-4 AF.F ....|R-- .... ....|F-1 2A.F ....
 F-3|..|F-1 2A.F ....|--- .... ....|R-- .... ....
....|..|--- .... ....|--- .... ....|--- .... ....
....|..|--- .... ....|--- .... ....|--- .... ....
 F-3|..|F-1 2A.F ....|F-1 2A.F ....|F-2 2A.F ....
 F-3|..|F-2 2A.F ....|--- .... ....|F-1 2A.F ....
....|..|--- .... ....|--- .... ....|--- .... ....
....|..|--- .... ....|--- .... ....|--- .... ....
 G#4|..|C-4 AF.F ....|R-- .... ....|G#2 2A.F ....
 G#4|..|G#2 2A.F ....|--- .... ....|R-- .... ....
....|..|--- .... ....|--- .... ....|--- .... ....
....|..|--- .... ....|--- .... ....|--- .... ....
 F-3|..|F-1 2A.F ....|F-1 2A.F ....|F-1 2A.F ....
 F-3|..|F-1 2A.F ....|--- .... ....|F-1 2A.F ....
....|..|--- .... ....|--- .... ....|--- .... ....
....|..|--- .... ....|--- .... ....|--- .... ....
....|..|C-4 AF.F ....|R-- .... ....|R-- .... ....
 F-3|..|R-- .... ....|--- .... ....|F-1 2F.A ....
....|..|--- .... ....|--- .... ....|--- .... ....
....|..|--- .... ....|--- .... ....|--- .... ....
 F-3|..|F-1 2A.F ....|F-1 2A.F ....|F-2 2A.F ....
 F-3|..|F-2 2A.F ....|--- .... ....|F-1 2A.F ....
....|..|--- .... ....|--- .... ....|--- .... ....
....|..|--- .... ....|--- .... ....|--- .... ....
 F-3|..|C-4 AF.F ....|R-- .... ....|F-1 2F.7 ....
 F-3|..|F-1 2F.7 ....|--- .... ....|R-- .... ....
....|..|--- .... ....|--- .... ....|--- .... ....
....|..|--- .... ....|--- .... ....|--- .... ....
 D#3|..|F-1 2A.F ....|F-1 2A.F ....|D#1 2A.F ....
 D#3|..|D#1 2A.F ....|--- .... ....|F-1 2A.F ....
....|..|--- .... ....|--- .... ....|--- .... ....
....|..|--- .... ....|--- .... ....|--- .... ....
 F-3|..|C-4 AF.F ....|R-- .... ....|F-1 2A.F ....
 F-3|..|F-1 2A.F ....|--- .... ....|R-- .... ....
....|..|--- .... ....|--- .... ....|--- .... ....
....|..|--- .... ....|--- .... ....|--- .... ....
 F-3|..|F-1 2A.F ....|F-1 2A.F ....|F-2 2A.F ....
 F-3|..|F-2 2A.F ....|--- .... ....|F-1 2A.F ....
....|..|--- .... ....|--- .... ....|--- .... ....
....|..|--- .... ....|--- .... ....|--- .... ....
 D#4|..|C-4 AF.F ....|R-- .... ....|D#2 2A.F ....
 D#4|..|D#2 2A.F ....|--- .... ....|R-- .... ....
....|..|--- .... ....|--- .... ....|--- .... ....
....|..|--- .... ....|--- .... ....|--- .... ....
 F-3|..|F-1 2A.F ....|F-1 2A.F ....|F-1 2A.F ....
 F-3|..|F-1 2A.F ....|--- .... ....|F-1 2A.F ....
....|..|--- .... ....|--- .... ....|--- .... ....
....|..|--- .... ....|--- .... ....|--- .... ....
 F-4|..|C-4 AF.F ....|R-- .... ....|F-2 2A.F ....
 F-4|..|F-2 2A.F ....|--- .... ....|R-- .... ....
....|..|--- .... ....|--- .... ....|--- .... ....
....|..|--- .... ....|--- .... ....|--- .... ....
 F-3|..|F-1 2A.F ....|F-1 2A.F ....|G#2 2A.F ....
 F-3|..|G#2 2A.F ....|--- .... ....|F-1 2A.F ....
....|..|--- .... ....|--- .... ....|--- .... ....
....|..|--- .... ....|--- .... ....|--- .... ....
 F-3|..|C-4 AF.F ....|R-- .... ....|F-1 2F.7 ....
 F-3|..|F-1 2F.7 ....|--- .... ....|R-- .... ....
....|..|--- .... ....|--- .... ....|--- .... ....
....|..|--- .... ....|--- .... ....|--- .... ....
 D#3|..|F-1 2A.F ....|F-1 2A.F ....|D#1 2A.F ....
 D#3|..|D#1 2A.F ....|--- .... ....|F-1 2A.F ....
....|..|--- .... ....|--- .... ....|--- .... ....
....|..|--- .... ....|--- .... ....|--- .... ....
 F-3|..|C-4 AF.F ....|R-- .... ....|F-1 2A.F ....
 F-3|..|F-1 2A.F ....|--- .... ....|R-- .... ....
....|..|--- .... ....|--- .... ....|--- .... ....
....|..|--- .... ....|--- .... ....|--- .... ....
 F-3|..|F-1 2A.F ....|F-1 2A.F ....|F-2 2A.F ....
 F-3|..|F-2 2A.F ....|--- .... ....|F-1 2A.F ....
....|..|--- .... ....|--- .... ....|--- .... ....
....|..|--- .... ....|--- .... ....|--- .... ....

[Pattern15]
 A#3|..|C-4 AF.F ....|R-- .... ....|A#2 2C.F ....
 A#3|..|A#2 2C.F ....|--- .... ....|R-- .... ....
....|..|--- .... ....|--- .... ....|--- .... ....
....|..|--- .... ....|--- .... ....|--- .... ....
 F-3|..|F-1 2A.F ....|F-1 2A.F ....|F-1 2A.F ....
 F-3|..|F-1 2A.F ....|--- .... ....|F-1 2A.F ....
....|..|--- .... ....|--- .... ....|--- .... ....
....|..|--- .... ....|--- .... ....|--- .... ....
 F-4|..|C-4 AF.F ....|R-- .... ....|F-2 2A.F ....
 F-4|..|F-2 2A.F ....|--- .... ....|R-- .... ....
....|..|--- .... ....|--- .... ....|--- .... ....
....|..|--- .... ....|--- .... ....|--- .... ....
 D#4|..|F-1 2A.F ....|F-1 2A.F ....|D#2 2A.F ....
 D#4|..|D#2 2A.F ....|--- .... ....|F-1 2A.F ....
....|..|--- .... ....|--- .... ....|--- .... ....
....|..|--- .... ....|--- .... ....|--- .... ....
 F-3|..|C-4 AF.F ....|R-- .... ....|F-1 2F.7 ....
 F-3|..|F-1 2F.7 ....|--- .... ....|R-- .... ....
....|..|--- .... ....|--- .... ....|--- .... ....
....|..|--- .... ....|--- .... ....|--- .... ....
 D#3|..|F-1 2A.F ....|F-1 2A.F ....|D#1 2A.F ....
 D#3|..|D#1 2A.F ....|--- .... ....|F-1 2A.F ....
....|..|--- .... ....|--- .... ....|--- .... ....
....|..|--- .... ....|--- .... ....|--- .... ....
 F-3|..|C-4 AF.F ....|R-- .... ....|F-1 2A.F ....
 F-3|..|F-1 2A.F ....|--- .... ....|R-- .... ....
....|..|--- .... ....|--- .... ....|--- .... ....
....|..|--- .... ....|--- .... ....|--- .... ....
 F-3|..|F-1 2A.F ....|F-1 2A.F ....|F-2 2A.F ....
 F-3|..|F-2 2A.F ....|--- .... ....|F-1 2A.F ....
....|..|--- .... ....|--- .... ....|--- .... ....
....|..|--- .... ....|--- .... ....|--- .... ....
 G#4|..|C-4 AF.F ....|R-- .... ....|G#2 2A.F ....
 G#4|..|G#2 2A.F ....|--- .... ....|R-- .... ....
....|..|--- .... ....|--- .... ....|--- .... ....
....|..|--- .... ....|--- .... ....|--- .... ....
 F-3|..|F-1 2A.F ....|F-1 2A.F ....|F-1 2A.F ....
 F-3|..|F-1 2A.F ....|--- .... ....|F-1 2A.F ....
....|..|--- .... ....|--- .... ....|--- .... ....
....|..|--- .... ....|--- .... ....|--- .... ....
 F-4|..|C-4 AF.F ....|R-- .... ....|F-2 2A.F ....
 F-4|..|F-2 2A.F ....|--- .... ....|R-- .... ....
....|..|--- .... ....|--- .... ....|--- .... ....
....|..|--- .... ....|--- .... ....|--- .... ....
 A#3|..|F-1 2A.F ....|F-1 2A.F ....|A#2 2C.F ....
 A#3|..|A#2 2C.F ....|--- .... ....|F-1 2A.F ....
....|..|--- .... ....|--- .... ....|--- .... ....
....|..|--- .... ....|--- .... ....|--- .... ....
 F-3|..|C-4 AF.F ....|R-- .... ....|F-1 2F.7 ....
 F-3|..|F-1 2F.7 ....|--- .... ....|R-- .... ....
....|..|--- .... ....|--- .... ....|--- .... ....
....|..|--- .... ....|--- .... ....|--- .... ....
 D#3|..|F-1 2A.F ....|F-1 2A.F ....|D#1 2A.F ....
 D#3|..|D#1 2A.F ....|--- .... ....|F-1 2A.F ....
....|..|--- .... ....|--- .... ....|--- .... ....
....|..|--- .... ....|--- .... ....|--- .... ....
 F-3|..|C-4 AF.F ....|R-- .... ....|F-1 2A.F ....
 F-3|..|F-1 2A.F ....|--- .... ....|R-- .... ....
....|..|--- .... ....|--- .... ....|--- .... ....
....|..|--- .... ....|--- .... ....|--- .... ....
 F-3|..|F-1 2A.F ....|F-1 2A.F ....|F-2 2A.F ....
 F-3|..|F-2 2A.F ....|--- .... ....|F-1 2A.F ....
....|..|--- .... ....|--- .... ....|--- .... ....
....|..|--- .... ....|--- .... ....|--- .... ....
 G#4|..|C-4 AF.F ....|R-- .... ....|G#2 2A.F ....
 G#4|..|G#2 2A.F ....|--- .... ....|R-- .... ....
....|..|--- .... ....|--- .... ....|--- .... ....
....|..|--- .... ....|--- .... ....|--- .... ....
 F-3|..|F-1 2A.F ....|F-1 2A.F ....|F-1 2A.F ....
 F-3|..|F-1 2A.F ....|--- .... ....|F-1 2A.F ....
....|..|--- .... ....|--- .... ....|--- .... ....
....|..|--- .... ....|--- .... ....|--- .... ....
....|..|C-4 AF.F ....|R-- .... ....|R-- .... ....
 F-3|..|R-- .... ....|--- .... ....|F-1 2F.A ....
....|..|--- .... ....|--- .... ....|--- .... ....
....|..|--- .... ....|--- .... ....|--- .... ....
 F-3|..|F-1 2A.F ....|F-1 2A.F ....|F-2 2A.F ....
 F-3|..|F-2 2A.F ....|--- .... ....|F-1 2A.F ....
....|..|--- .... ....|--- .... ....|--- .... ....
....|..|--- .... ....|--- .... ....|--- .... ....
 F-3|..|C-4 AF.F ....|R-- .... ....|F-1 2F.7 ....
 F-3|..|F-1 2F.7 ....|--- .... ....|R-- .... ....
....|..|--- .... ....|--- .... ....|--- .... ....
....|..|--- .... ....|--- .... ....|--- .... ....
 D#3|..|F-1 2A.F ....|F-1 2A.F ....|D#1 2A.F ....
 D#3|..|D#1 2A.F ....|--- .... ....|F-1 2A.F ....
....|..|--- .... ....|--- .... ....|--- .... ....
....|..|--- .... ....|--- .... ....|--- .... ....
 F-3|..|C-4 AF.F ....|R-- .... ....|F-1 2A.F ....
 F-3|..|F-1 2A.F ....|--- .... ....|R-- .... ....
....|..|--- .... ....|--- .... ....|--- .... ....
....|..|--- .... ....|--- .... ....|--- .... ....
 F-3|..|F-1 2A.F ....|F-1 2A.F ....|F-2 2A.F ....
 F-3|..|F-2 2A.F ....|--- .... ....|F-1 2A.F ....
....|..|--- .... ....|--- .... ....|--- .... ....
....|..|--- .... ....|--- .... ....|--- .... ....
 G#4|..|C-4 AF.F ....|R-- .... ....|G#2 2A.F ....
 G#4|..|G#2 2A.F ....|--- .... ....|R-- .... ....
....|..|--- .... ....|--- .... ....|--- .... ....
....|..|--- .... ....|--- .... ....|--- .... ....
 F-3|..|C-4 AF.F ....|F-1 2A.F ....|F-1 2A.F ....
 F-3|..|F-1 2A.F ....|--- .... ....|F-1 2A.F ....
 F-3|..|F-1 2A.F ....|--- .... ....|--- .... ....
....|..|--- .... ....|--- .... ....|--- .... ....
....|..|C-4 AF.F ....|R-- .... ....|R-- .... ....
 F-3|..|R-- .... ....|--- .... ....|F-1 2F.A ....
....|..|--- .... ....|--- .... ....|--- .... ....
....|..|--- .... ....|--- .... ....|--- .... ....
 F-3|..|C-4 AF.F ....|F-1 2A.F ....|F-2 2A.F ....
 F-3|..|F-1 2A.F ....|--- .... ....|F-1 2A.F ....
 F-4|..|F-2 2A.F ....|--- .... ....|--- .... ....
....|..|--- .... ....|--- .... ....|--- .... ....
 D#4|..|C-4 AF.F ....|R-- .... ....|D#2 2A.F ....
 D#4|..|D#2 2A.F ....|--- .... ....|R-- .... ....
 F-3|..|F-1 2F.A ....|--- .... ....|--- .... ....
....|..|R-- .... ....|--- .... ....|R-- .... ....
 F-3|..|C-4 AF.F ....|F-1 2A.F ....|F-1 2A.F ....
 F-3|..|F-1 2A.F ....|--- .... ....|F-1 2A.F ....
 F-3|..|F-1 2A.F ....|--- .... ....|--- .... ....
....|..|R-- .... ....|--- .... ....|R-- .... ....
 C-4|..|C-4 AF.F ....|R-- .... ....|C-2 2A.F ....
 C-4|..|C-2 2A.F ....|--- .... ....|R-- .... ....
 F-4|..|F-2 2F.A ....|--- .... ....|--- .... ....
....|..|R-- .... ....|--- .... ....|R-- .... ....
 F-3|..|C-4 AF.F ....|F-1 2A.F ....|F-1 2A.F ....
 F-3|..|F-1 2A.F ....|--- .... ....|F-1 2A.F ....
 F-3|..|F-1 2A.F ....|--- .... ....|--- .... ....
....|..|R-- .... ....|--- .... ....|R-- .... ....

[Pattern16]
....|..|C-4 AF.F ....|R-- .... ....|R-- .... ....
 F-3|..|R-- .... ....|--- .... ....|F-1 2F.A ....
 F-3|..|F-1 2F.A ....|--- .... ....|--- .... ....
....|..|R-- .... ....|--- .... ....|R-- .... ....
 F-3|..|F-1 2A.F ....|F-1 2A.F ....|F-1 2A.F ....
 F-3|..|F-1 2F.7 ....|--- .... ....|F-1 2F.7 ....
 F-4|..|F-2 2F.7 ....|--- .... ....|--- .... ....
....|..|R-- .... ....|--- .... ....|R-- .... ....
 D#4|..|C-4 AF.F ....|R-- .... ....|D#2 2F.7 ....
 D#4|..|D#2 2F.7 ....|--- .... ....|R-- .... ....
 F-3|..|F-1 2F.A ....|--- .... ....|--- .... ....
....|..|R-- .... ....|--- .... ....|R-- .... ....
 F-3|..|F-1 2A.F ....|F-1 2A.F ....|F-1 2A.F ....
 F-3|..|F-1 2F.7 ....|--- .... ....|F-1 2F.7 ....
 F-3|..|F-1 2F.7 ....|--- .... ....|--- .... ....
....|..|R-- .... ....|--- .... ....|R-- .... ....
 C-4|..|C-4 AF.F ....|R-- .... ....|C-2 2F.7 ....
 C-4|..|C-2 2F.7 ....|--- .... ....|R-- .... ....
....|..|--- .... ....|--- .... ....|--- .... ....
....|..|R-- .... ....|--- .... ....|R-- .... ....
 F-3|..|F-1 2A.F ....|F-1 2A.F ....|F-1 2A.F ....
 F-3|..|F-1 2F.7 ....|--- .... ....|F-1 2F.7 ....
 F-3|..|F-1 2F.7 ....|--- .... ....|--- .... ....
....|..|R-- .... ....|--- .... ....|R-- .... ....
....|..|C-4 AF.F ....|R-- .... ....|R-- .... ....
....|..|R-- .... ....|--- .... ....|--- .... ....
....|..|--- .... ....|--- .... ....|--- .... ....
....|..|--- .... ....|--- .... ....|--- .... ....
 F-3|..|F-1 2A.F ....|F-1 2A.F ....|F-1 2A.F ....
....|..|R-- .... ....|--- .... ....|--- .... ....
....|..|--- .... ....|--- .... ....|--- .... ....
....|..|--- .... ....|--- .... ....|--- .... ....
....|..|C-4 AF.F ....|R-- .... ....|R-- .... ....
....|..|R-- .... ....|--- .... ....|--- .... ....
....|..|--- .... ....|--- .... ....|--- .... ....
....|..|--- .... ....|--- .... ....|--- .... ....
 F-3|..|F-1 2A.F ....|F-1 2A.F ....|F-1 2A.F ....
....|..|R-- .... ....|--- .... ....|--- .... ....
....|..|--- .... ....|--- .... ....|--- .... ....
....|..|--- .... ....|--- .... ....|--- .... ....
....|..|C-4 AF.F ....|R-- .... ....|R-- .... ....
....|..|R-- .... ....|--- .... ....|--- .... ....
....|..|--- .... ....|--- .... ....|--- .... ....
....|..|--- .... ....|--- .... ....|--- .... ....
 F-3|..|F-1 2A.F ....|F-1 2A.F ....|F-1 2A.F ....
....|..|R-- .... ....|--- .... ....|--- .... ....
....|..|--- .... ....|--- .... ....|--- .... ....
....|..|--- .... ....|--- .... ....|--- .... ....
....|..|C-4 AF.F ....|R-- .... ....|R-- .... ....
....|..|R-- .... ....|--- .... ....|--- .... ....
....|..|--- .... ....|--- .... ....|--- .... ....
....|..|--- .... ....|--- .... ....|--- .... ....
 F-3|..|F-1 2A.F ....|F-1 2A.F ....|F-1 2A.F ....
....|..|R-- .... ....|--- .... ....|--- .... ....
....|..|--- .... ....|--- .... ....|--- .... ....
....|..|--- .... ....|--- .... ....|--- .... ....
....|..|C-4 AF.F ....|R-- .... ....|R-- .... ....
....|..|R-- .... ....|--- .... ....|--- .... ....
....|..|--- .... ....|--- .... ....|--- .... ....
....|..|--- .... ....|--- .... ....|--- .... ....
 F-3|..|F-1 2A.F ....|F-1 2A.F ....|F-1 2A.F ....
....|..|R-- .... ....|--- .... ....|--- .... ....
....|..|--- .... ....|--- .... ....|--- .... ....
....|..|--- .... ....|--- .... ....|--- .... ....
....|..|C-4 AF.F ....|R-- .... ....|R-- .... ....
....|..|R-- .... ....|--- .... ....|--- .... ....
....|..|--- .... ....|--- .... ....|--- .... ....
....|..|--- .... ....|--- .... ....|--- .... ....
 F-3|..|F-1 2A.F ....|F-1 2A.F ....|F-1 2A.F ....
....|..|R-- .... ....|--- .... ....|--- .... ....
....|..|--- .... ....|--- .... ....|--- .... ....
....|..|--- .... ....|--- .... ....|--- .... ....
....|..|C-4 AF.F ....|R-- .... ....|R-- .... ....
....|..|R-- .... ....|--- .... ....|--- .... ....
....|..|--- .... ....|--- .... ....|--- .... ....
....|..|--- .... ....|--- .... ....|--- .... ....
 F-3|..|F-1 2A.F ....|F-1 2A.F ....|F-1 2A.F ....
....|..|R-- .... ....|--- .... ....|--- .... ....
....|..|--- .... ....|--- .... ....|--- .... ....
....|..|--- .... ....|--- .... ....|--- .... ....
....|..|C-4 AF.F ....|R-- .... ....|R-- .... ....
....|..|R-- .... ....|--- .... ....|--- .... ....
....|..|--- .... ....|--- .... ....|--- .... ....
....|..|--- .... ....|--- .... ....|--- .... ....
 F-3|..|F-1 2A.F ....|F-1 2A.F ....|F-1 2A.F ....
....|..|R-- .... ....|--- .... ....|--- .... ....
....|..|--- .... ....|--- .... ....|--- .... ....
....|..|--- .... ....|--- .... ....|--- .... ....
....|..|C-4 AF.F ....|R-- .... ....|R-- .... ....
....|..|R-- .... ....|--- .... ....|--- .... ....
....|..|--- .... ....|--- .... ....|--- .... ....
....|..|--- .... ....|--- .... ....|--- .... ....
 F-3|..|F-1 2A.F ....|F-1 2A.F ....|F-1 2A.F ....
....|..|R-- .... ....|--- .... ....|--- .... ....
....|..|--- .... ....|--- .... ....|--- .... ....
....|..|--- .... ....|--- .... ....|--- .... ....
....|..|C-4 AF.F ....|R-- .... ....|R-- .... ....
....|..|R-- .... ....|--- .... ....|--- .... ....
....|..|--- .... ....|--- .... ....|--- .... ....
....|..|--- .... ....|--- .... ....|--- .... ....
 F-3|..|F-1 2A.F ....|F-1 2A.F ....|F-1 2A.F ....
....|..|R-- .... ....|--- .... ....|--- .... ....
....|..|--- .... ....|--- .... ....|--- .... ....
....|..|--- .... ....|--- .... ....|--- .... ....
....|..|C-4 AF.F ....|R-- .... ....|R-- .... ....
....|..|R-- .... ....|--- .... ....|--- .... ....
....|..|--- .... ....|--- .... ....|--- .... ....
....|..|--- .... ....|--- .... ....|--- .... ....
 F-3|..|F-1 2A.F ....|F-1 2A.F ....|F-1 2A.F ....
....|..|R-- .... ....|--- .... ....|--- .... ....
....|..|--- .... ....|--- .... ....|--- .... ....
....|..|--- .... ....|--- .... ....|--- .... ....
....|..|C-4 AF.F ....|R-- .... ....|R-- .... ....
....|..|R-- .... ....|--- .... ....|--- .... ....
....|..|--- .... ....|--- .... ....|--- .... ....
....|..|--- .... ....|--- .... ....|--- .... ....
 F-3|..|F-1 2A.F ....|F-1 2A.F ....|F-1 2A.F ....
....|..|R-- .... ....|--- .... ....|--- .... ....
....|..|--- .... ....|--- .... ....|--- .... ....
....|..|--- .... ....|--- .... ....|--- .... ....
....|..|C-4 AF.F ....|R-- .... ....|R-- .... ....
....|..|R-- .... ....|--- .... ....|--- .... ....
....|..|--- .... ....|--- .... ....|--- .... ....
....|..|--- .... ....|--- .... ....|--- .... ....
 F-3|..|F-1 2A.F ....|F-1 2A.F ....|F-1 2A.F ....
....|..|R-- .... ....|--- .... ....|--- .... ....
....|..|--- .... ....|--- .... ....|--- .... ....
....|..|--- .... ....|--- .... ....|--- .... ....

[Pattern17]
....|..|C-4 AF.F ....|R-- .... ....|R-- .... ....
....|..|R-- .... ....|--- .... ....|--- .... ....
....|..|--- .... ....|--- .... ....|--- .... ....
....|..|--- .... ....|--- .... ....|--- .... ....
 F-3|..|F-1 2A.F ....|F-1 2A.F ....|F-1 2A.F ....
....|..|R-- .... ....|--- .... ....|--- .... ....
....|..|--- .... ....|--- .... ....|--- .... ....
....|..|--- .... ....|--- .... ....|--- .... ....
....|..|C-4 AF.F ....|R-- .... ....|R-- .... ....
....|..|R-- .... ....|--- .... ....|--- .... ....
....|..|--- .... ....|--- .... ....|--- .... ....
....|..|--- .... ....|--- .... ....|--- .... ....
 F-3|..|F-1 2A.F ....|F-1 2A.F ....|F-1 2A.F ....
....|..|R-- .... ....|--- .... ....|--- .... ....
....|..|--- .... ....|--- .... ....|--- .... ....
....|..|--- .... ....|--- .... ....|--- .... ....
....|..|C-4 AF.F ....|R-- .... ....|R-- .... ....
....|..|R-- .... ....|--- .... ....|--- .... ....
....|..|--- .... ....|--- .... ....|--- .... ....
....|..|--- .... ....|--- .... ....|--- .... ....
 F-3|..|F-1 2A.F ....|F-1 2A.F ....|F-1 2A.F ....
....|..|R-- .... ....|--- .... ....|--- .... ....
....|..|--- .... ....|--- .... ....|--- .... ....
....|..|--- .... ....|--- .... ....|--- .... ....
....|..|C-4 AF.F ....|R-- .... ....|R-- .... ....
....|..|R-- .... ....|--- .... ....|--- .... ....
....|..|--- .... ....|--- .... ....|--- .... ....
....|..|--- .... ....|--- .... ....|--- .... ....
 F-3|..|F-1 2A.F ....|F-1 2A.F ....|F-1 2A.F ....
....|..|R-- .... ....|--- .... ....|--- .... ....
....|..|--- .... ....|--- .... ....|--- .... ....
....|..|--- .... ....|--- .... ....|--- .... ....
....|..|C-4 AF.F ....|R-- .... ....|R-- .... ....
....|..|R-- .... ....|--- .... ....|--- .... ....
....|..|--- .... ....|--- .... ....|--- .... ....
....|..|--- .... ....|--- .... ....|--- .... ....
 F-3|..|F-1 2A.F ....|F-1 2A.F ....|F-1 2A.F ....
....|..|R-- .... ....|--- .... ....|--- .... ....
....|..|--- .... ....|--- .... ....|--- .... ....
....|..|--- .... ....|--- .... ....|--- .... ....
....|..|C-4 AF.F ....|R-- .... ....|R-- .... ....
....|..|R-- .... ....|--- .... ....|--- .... ....
....|..|--- .... ....|--- .... ....|--- .... ....
....|..|--- .... ....|--- .... ....|--- .... ....
 F-3|..|F-1 2A.F ....|F-1 2A.F ....|F-1 2A.F ....
....|..|R-- .... ....|--- .... ....|--- .... ....
....|..|--- .... ....|--- .... ....|--- .... ....
....|..|--- .... ....|--- .... ....|--- .... ....
....|..|C-4 AF.F ....|R-- .... ....|R-- .... ....
....|..|R-- .... ....|--- .... ....|--- .... ....
....|..|--- .... ....|--- .... ....|--- .... ....
....|..|--- .... ....|--- .... ....|--- .... ....
 F-3|..|F-1 2A.F ....|F-1 2A.F ....|F-1 2A.F ....
....|..|R-- .... ....|--- .... ....|--- .... ....
....|..|--- .... ....|--- .... ....|--- .... ....
....|..|--- .... ....|--- .... ....|--- .... ....
....|..|C-4 AF.F ....|R-- .... ....|R-- .... ....
....|..|R-- .... ....|--- .... ....|--- .... ....
....|..|--- .... ....|--- .... ....|--- .... ....
....|..|--- .... ....|--- .... ....|--- .... ....
 F-3|..|F-1 2A.F ....|F-1 2A.F ....|F-1 2A.F ....
....|..|R-- .... ....|--- .... ....|--- .... ....
....|..|--- .... ....|--- .... ....|--- .... ....
....|..|--- .... ....|--- .... ....|--- .... ....
....|..|C-4 AF.F ....|R-- .... ....|R-- .... ....
....|..|R-- .... ....|--- .... ....|--- .... ....
....|..|--- .... ....|--- .... ....|--- .... ....
....|..|--- .... ....|--- .... ....|--- .... ....
 F-3|..|F-1 2A.F ....|F-1 2A.F ....|F-1 2A.F ....
....|..|R-- .... ....|--- .... ....|--- .... ....
....|..|--- .... ....|--- .... ....|--- .... ....
....|..|--- .... ....|--- .... ....|--- .... ....
....|..|C-4 AF.F ....|R-- .... ....|R-- .... ....
....|..|R-- .... ....|--- .... ....|--- .... ....
....|..|--- .... ....|--- .... ....|--- .... ....
....|..|--- .... ....|--- .... ....|--- .... ....
 F-3|..|F-1 2A.F ....|F-1 2A.F ....|F-1 2A.F ....
....|..|R-- .... ....|--- .... ....|--- .... ....
....|..|--- .... ....|--- .... ....|--- .... ....
....|..|--- .... ....|--- .... ....|--- .... ....
....|..|C-4 AF.F ....|R-- .... ....|R-- .... ....
....|..|R-- .... ....|--- .... ....|--- .... ....
....|..|--- .... ....|--- .... ....|--- .... ....
....|..|--- .... ....|--- .... ....|--- .... ....
 F-3|..|F-1 2A.F ....|F-1 2A.F ....|F-1 2A.F ....
....|..|R-- .... ....|--- .... ....|--- .... ....
....|..|--- .... ....|--- .... ....|--- .... ....
....|..|--- .... ....|--- .... ....|--- .... ....
....|..|C-4 AF.F ....|R-- .... ....|R-- .... ....
....|..|R-- .... ....|--- .... ....|--- .... ....
....|..|--- .... ....|--- .... ....|--- .... ....
....|..|--- .... ....|--- .... ....|--- .... ....
 F-3|..|F-1 2A.F ....|F-1 2A.F ....|F-1 2A.F ....
....|..|R-- .... ....|--- .... ....|--- .... ....
....|..|--- .... ....|--- .... ....|--- .... ....
....|..|--- .... ....|--- .... ....|--- .... ....
....|..|C-4 AF.F ....|R-- .... ....|R-- .... ....
....|..|R-- .... ....|--- .... ....|--- .... ....
....|..|--- .... ....|--- .... ....|--- .... ....
....|..|--- .... ....|--- .... ....|--- .... ....
 F-3|..|F-1 2A.F ....|F-1 2A.F ....|F-1 2A.F ....
....|..|R-- .... ....|--- .... ....|--- .... ....
....|..|--- .... ....|--- .... ....|--- .... ....
....|..|--- .... ....|--- .... ....|--- .... ....
....|..|C-4 AF.F ....|R-- .... ....|R-- .... ....
....|..|R-- .... ....|--- .... ....|--- .... ....
....|..|--- .... ....|--- .... ....|--- .... ....
....|..|--- .... ....|--- .... ....|--- .... ....
 F-3|..|F-1 2A.F ....|F-1 2A.F ....|F-1 2A.F ....
....|..|R-- .... ....|--- .... ....|--- .... ....
....|..|--- .... ....|--- .... ....|--- .... ....
....|..|--- .... ....|--- .... ....|--- .... ....
....|..|C-4 AF.F ....|R-- .... ....|R-- .... ....
....|..|R-- .... ....|--- .... ....|--- .... ....
....|..|--- .... ....|--- .... ....|--- .... ....
....|..|--- .... ....|--- .... ....|--- .... ....
 F-3|..|F-1 2A.F ....|F-1 2A.F ....|F-1 2A.F ....
....|..|R-- .... ....|--- .... ....|--- .... ....
....|..|--- .... ....|--- .... ....|--- .... ....
....|..|--- .... ....|--- .... ....|--- .... ....
....|..|C-4 AF.F ....|R-- .... ....|R-- .... ....
....|..|R-- .... ....|--- .... ....|--- .... ....
....|..|--- .... ....|--- .... ....|--- .... ....
....|..|--- .... ....|--- .... ....|--- .... ....
 F-3|..|F-1 2A.F ....|F-1 2A.F ....|F-1 2A.F ....
....|..|R-- .... ....|--- .... ....|--- .... ....
....|..|--- .... ....|--- .... ....|--- .... ....
....|..|--- .... ....|--- .... ....|--- .... ....

[Pattern18]
 D#3|..|C-4 LF.F ....|R-- .... ....|D#1 2A.F ....
 D#3|..|D#1 2A.F ....|--- .... ....|R-- .... ....
....|..|--- .... ....|--- .... ....|--- .... ....
....|..|--- .... ....|--- .... ....|--- .... ....
 F-3|..|F-1 2A.F ....|F-1 2F.7 ....|F-1 2A.F ....
....|..|R-- .... ....|--- .... ....|--- .... ....
....|..|--- .... ....|--- .... ....|--- .... ....
....|..|--- .... ....|--- .... ....|--- .... ....
 F-4|..|F-2 2A.F ....|R-- .... ....|F-2 2A.F ....
....|..|R-- .... ....|--- .... ....|--- .... ....
....|..|--- .... ....|--- .... ....|--- .... ....
....|..|--- .... ....|--- .... ....|--- .... ....
 F-3|..|G#2 2A.F ....|F-1 2F.7 ....|G#2 2A.F ....
 D#3|..|D#1 2F.A ....|--- .... ....|R-- .... ....
....|..|--- .... ....|--- .... ....|--- .... ....
....|..|--- .... ....|--- .... ....|--- .... ....
 D#4|..|D#2 2A.F ....|R-- .... ....|D#2 2A.F ....
....|..|R-- .... ....|--- .... ....|--- .... ....
....|..|--- .... ....|--- .... ....|--- .... ....
....|..|--- .... ....|--- .... ....|--- .... ....
 F-3|..|F-2 2A.F ....|F-1 2F.7 ....|F-2 2A.F ....
....|..|--- .... ....|--- .... ....|--- .... ....
....|..|--- .... ....|--- .... ....|--- .... ....
....|..|--- .... ....|--- .... ....|--- .... ....
 D#4|..|D#2 2A.F ....|R-- .... ....|D#2 2A.F ....
 D#3|..|D#1 2F.7 ....|--- .... ....|R-- .... ....
....|..|--- .... ....|--- .... ....|--- .... ....
....|..|--- .... ....|--- .... ....|--- .... ....
 F-4|..|F-2 2A.F ....|--- .... ....|F-2 2A.F ....
....|..|--- .... ....|--- .... ....|--- .... ....
....|..|--- .... ....|--- .... ....|--- .... ....
....|..|--- .... ....|--- .... ....|--- .... ....
 G#4|..|G#2 2A.F ....|--- .... ....|G#2 2A.F ....
....|..|--- .... ....|--- .... ....|--- .... ....
....|..|--- .... ....|--- .... ....|--- .... ....
....|..|--- .... ....|--- .... ....|--- .... ....
 D#4|..|D#2 2A.F ....|--- .... ....|D#2 2A.F ....
....|..|--- .... ....|--- .... ....|--- .... ....
....|..|--- .... ....|--- .... ....|--- .... ....
....|..|--- .... ....|--- .... ....|--- .... ....
 G#4|..|G#2 2A.F ....|--- .... ....|G#2 2A.F ....
....|..|--- .... ....|--- .... ....|--- .... ....
....|..|--- .... ....|--- .... ....|--- .... ....
....|..|--- .... ....|--- .... ....|--- .... ....
 D#4|..|D#2 2A.F ....|--- .... ....|D#2 2A.F ....
....|..|--- .... ....|--- .... ....|--- .... ....
....|..|--- .... ....|--- .... ....|--- .... ....
....|..|--- .... ....|--- .... ....|--- .... ....
 G-4|..|G-2 2A.F ....|--- .... ....|G-2 2A.F ....
....|..|--- .... ....|--- .... ....|--- .... ....
....|..|--- .... ....|--- .... ....|--- .... ....
....|..|--- .... ....|--- .... ....|--- .... ....
 F-4|..|F-2 2A.F ....|--- .... ....|F-2 2A.F ....
....|..|--- .... ....|--- .... ....|--- .... ....
....|..|--- .... ....|--- .... ....|--- .... ....
....|..|--- .... ....|--- .... ....|--- .... ....
 G#4|..|G#2 2F.7 ....|--- .... ....|G#2 2F.7 ....
....|..|--- .... ....|--- .... ....|--- .... ....
....|..|--- .... ....|--- .... ....|--- .... ....
....|..|--- .... ....|--- .... ....|--- .... ....
 D#4|..|D#2 2F.7 ....|--- .... ....|D#2 2F.7 ....
....|..|--- .... ....|--- .... ....|--- .... ....
....|..|--- .... ....|--- .... ....|--- .... ....
....|..|--- .... ....|--- .... ....|--- .... ....
 D#3|..|D#1 2A.F ....|--- .... ....|D#1 2A.F ....
....|..|--- .... ....|--- .... ....|--- .... ....
....|..|--- .... ....|--- .... ....|--- .... ....
....|..|--- .... ....|--- .... ....|--- .... ....
 F-3|..|F-1 2A.F ....|--- .... ....|F-1 2A.F ....
....|..|--- .... ....|--- .... ....|--- .... ....
....|..|--- .... ....|--- .... ....|--- .... ....
....|..|--- .... ....|--- .... ....|--- .... ....
 F-4|..|F-2 2A.F ....|--- .... ....|F-2 2A.F ....
....|..|--- .... ....|--- .... ....|--- .... ....
....|..|--- .... ....|--- .... ....|--- .... ....
....|..|--- .... ....|--- .... ....|--- .... ....
 G#4|..|G#2 2A.F ....|--- .... ....|G#2 2A.F ....
....|..|--- .... ....|--- .... ....|--- .... ....
....|..|--- .... ....|--- .... ....|--- .... ....
....|..|--- .... ....|--- .... ....|--- .... ....
 D#4|..|D#2 2A.F ....|--- .... ....|D#2 2A.F ....
....|..|--- .... ....|--- .... ....|--- .... ....
....|..|--- .... ....|--- .... ....|--- .... ....
....|..|--- .... ....|--- .... ....|--- .... ....
 F-4|..|F-2 2A.F ....|--- .... ....|F-2 2A.F ....
....|..|--- .... ....|--- .... ....|--- .... ....
....|..|--- .... ....|--- .... ....|--- .... ....
....|..|--- .... ....|--- .... ....|--- .... ....
 D#4|..|D#2 2A.F ....|--- .... ....|D#2 2A.F ....
....|..|--- .... ....|--- .... ....|--- .... ....
....|..|--- .... ....|--- .... ....|--- .... ....
....|..|--- .... ....|--- .... ....|--- .... ....
 F-4|..|F-2 2A.F ....|--- .... ....|F-2 2A.F ....
....|..|--- .... ....|--- .... ....|--- .... ....
....|..|--- .... ....|--- .... ....|--- .... ....
....|..|--- .... ....|--- .... ....|--- .... ....
 G#4|..|G#2 2A.F ....|--- .... ....|G#2 2A.F ....
....|..|--- .... ....|--- .... ....|--- .... ....
....|..|--- .... ....|--- .... ....|--- .... ....
....|..|--- .... ....|--- .... ....|--- .... ....
 D#4|..|D#2 2A.F ....|--- .... ....|D#2 2A.F ....
....|..|--- .... ....|--- .... ....|--- .... ....
....|..|--- .... ....|--- .... ....|--- .... ....
....|..|--- .... ....|--- .... ....|--- .... ....
 G#4|..|G#2 2A.F ....|--- .... ....|G#2 2A.F ....
....|..|--- .... ....|--- .... ....|--- .... ....
....|..|--- .... ....|--- .... ....|--- .... ....
....|..|--- .... ....|--- .... ....|--- .... ....
 D#4|..|D#2 2A.F ....|--- .... ....|D#2 2A.F ....
....|..|--- .... ....|--- .... ....|--- .... ....
....|..|--- .... ....|--- .... ....|--- .... ....
....|..|--- .... ....|--- .... ....|--- .... ....
 G-4|..|G-2 2A.F ....|--- .... ....|G-2 2A.F ....
....|..|--- .... ....|--- .... ....|--- .... ....
....|..|--- .... ....|--- .... ....|--- .... ....
....|..|--- .... ....|--- .... ....|--- .... ....
 F-4|..|F-2 2F.7 ....|--- .... ....|F-2 2F.7 ....
....|..|--- .... ....|--- .... ....|--- .... ....
....|..|--- .... ....|--- .... ....|--- .... ....
....|..|--- .... ....|--- .... ....|--- .... ....
 G#4|..|G#2 2F.7 ....|--- .... ....|G#2 2F.7 ....
....|..|--- .... ....|--- .... ....|--- .... ....
....|..|--- .... ....|--- .... ....|--- .... ....
....|..|--- .... ....|--- .... ....|--- .... ....
 D#4|..|D#2 2F.7 ....|--- .... ....|D#2 2F.7 ....
....|..|--- .... ....|--- .... ....|--- .... ....
....|..|--- .... ....|--- .... ....|--- .... ....
....|..|--- .... ....|--- .... ....|--- .... ....

[Pattern19]
 D#3|..|C-4 AF.F ....|--- .... ....|D#1 2A.F ....
 D#3|..|D#1 2A.F ....|--- .... ....|--- .... ....
....|..|--- .... ....|--- .... ....|--- .... ....
....|..|--- .... ....|--- .... ....|--- .... ....
 F-3|..|C-4 AF.F ....|--- .... ....|F-1 2A.F ....
 F-3|..|F-1 2A.F ....|--- .... ....|--- .... ....
....|..|--- .... ....|--- .... ....|--- .... ....
....|..|--- .... ....|--- .... ....|--- .... ....
 F-4|..|F-2 2A.F ....|--- .... ....|F-2 2A.F ....
....|..|--- .... ....|--- .... ....|--- .... ....
....|..|--- .... ....|--- .... ....|--- .... ....
....|..|--- .... ....|--- .... ....|--- .... ....
 G#4|..|C-4 AF.F ....|--- .... ....|G#2 2A.F ....
 G#4|..|G#2 2A.F ....|--- .... ....|--- .... ....
....|..|--- .... ....|--- .... ....|--- .... ....
....|..|--- .... ....|--- .... ....|--- .... ....
 D#4|..|C-4 AF.F ....|--- .... ....|D#2 2A.F ....
 D#4|..|D#2 2A.F ....|--- .... ....|--- .... ....
....|..|--- .... ....|--- .... ....|--- .... ....
....|..|--- .... ....|--- .... ....|--- .... ....
 F-4|..|F-2 2A.F ....|--- .... ....|F-2 2A.F ....
....|..|--- .... ....|--- .... ....|--- .... ....
....|..|--- .... ....|--- .... ....|--- .... ....
....|..|--- .... ....|--- .... ....|--- .... ....
 D#4|..|D#2 2A.F ....|--- .... ....|D#2 2A.F ....
 D#3|..|D#1 2F.7 ....|--- .... ....|--- .... ....
....|..|--- .... ....|--- .... ....|--- .... ....
....|..|--- .... ....|--- .... ....|--- .... ....
 F-4|..|C-4 AF.F ....|--- .... ....|F-2 2A.F ....
 F-4|..|F-2 2A.F ....|--- .... ....|--- .... ....
....|..|--- .... ....|--- .... ....|--- .... ....
....|..|--- .... ....|--- .... ....|--- .... ....
 G#4|..|G#2 2A.F ....|--- .... ....|G#2 2A.F ....
....|..|--- .... ....|--- .... ....|--- .... ....
....|..|--- .... ....|--- .... ....|--- .... ....
....|..|--- .... ....|--- .... ....|--- .... ....
 D#4|..|C-4 AF.F ....|--- .... ....|D#2 2A.F ....
 D#4|..|D#2 2A.F ....|--- .... ....|--- .... ....
....|..|--- .... ....|--- .... ....|--- .... ....
....|..|--- .... ....|--- .... ....|--- .... ....
 G#4|..|G#2 2A.F ....|--- .... ....|G#2 2A.F ....
 D#4|..|D#2 2F.7 ....|--- .... ....|--- .... ....
....|..|--- .... ....|--- .... ....|--- .... ....
....|..|--- .... ....|--- .... ....|--- .... ....
 D#4|..|C-4 AF.F ....|--- .... ....|D#2 2A.F ....
 D#4|..|D#2 2A.F ....|--- .... ....|--- .... ....
....|..|--- .... ....|--- .... ....|--- .... ....
....|..|--- .... ....|--- .... ....|--- .... ....
 G-4|..|C-4 AF.F ....|--- .... ....|G-2 2A.F ....
 G-4|..|G-2 2A.F ....|--- .... ....|--- .... ....
....|..|--- .... ....|--- .... ....|--- .... ....
....|..|--- .... ....|--- .... ....|--- .... ....
 F-4|..|C-4 AF.F ....|--- .... ....|F-2 2A.F ....
 F-4|..|F-2 2A.F ....|--- .... ....|--- .... ....
....|..|--- .... ....|--- .... ....|--- .... ....
....|..|--- .... ....|--- .... ....|--- .... ....
 G#4|..|G#2 2F.7 ....|--- .... ....|G#2 2F.7 ....
 D#4|..|D#2 2F.A ....|--- .... ....|--- .... ....
....|..|--- .... ....|--- .... ....|--- .... ....
....|..|--- .... ....|--- .... ....|--- .... ....
 D#4|..|C-4 AF.7 ....|--- .... ....|D#2 2F.7 ....
 D#4|..|D#2 2F.7 ....|--- .... ....|--- .... ....
....|..|--- .... ....|--- .... ....|--- .... ....
....|..|--- .... ....|--- .... ....|--- .... ....
 D#3|..|C-4 AF.F ....|--- .... ....|D#1 2A.F ....
 D#3|..|D#1 2A.F ....|--- .... ....|--- .... ....
....|..|--- .... ....|--- .... ....|--- .... ....
....|..|--- .... ....|--- .... ....|--- .... ....
 F-3|..|C-4 AF.F ....|--- .... ....|F-1 2A.F ....
 F-3|..|F-1 2A.F ....|--- .... ....|--- .... ....
....|..|--- .... ....|--- .... ....|--- .... ....
....|..|--- .... ....|--- .... ....|--- .... ....
 F-4|..|F-2 2A.F ....|--- .... ....|F-2 2A.F ....
 G-4|..|G-2 2F.7 ....|--- .... ....|--- .... ....
....|..|--- .... ....|--- .... ....|--- .... ....
....|..|--- .... ....|--- .... ....|--- .... ....
 G#4|..|C-4 AF.F ....|--- .... ....|G#2 2A.F ....
 G#4|..|G#2 2A.F ....|--- .... ....|--- .... ....
....|..|--- .... ....|--- .... ....|--- .... ....
....|..|--- .... ....|--- .... ....|--- .... ....
 D#4|..|C-4 AF.F ....|--- .... ....|D#2 2A.F ....
 D#4|..|D#2 2A.F ....|--- .... ....|--- .... ....
....|..|--- .... ....|--- .... ....|--- .... ....
....|..|--- .... ....|--- .... ....|--- .... ....
 F-4|..|F-2 2A.F ....|--- .... ....|F-2 2A.F ....
....|..|--- .... ....|--- .... ....|--- .... ....
....|..|--- .... ....|--- .... ....|--- .... ....
....|..|--- .... ....|--- .... ....|--- .... ....
 D#4|..|D#2 2A.F ....|--- .... ....|D#2 2A.F ....
 D#3|..|D#1 2F.7 ....|--- .... ....|--- .... ....
....|..|--- .... ....|--- .... ....|--- .... ....
....|..|--- .... ....|--- .... ....|--- .... ....
 F-4|..|C-4 AF.F ....|--- .... ....|F-2 2A.F ....
 F-4|..|F-2 2A.F ....|--- .... ....|--- .... ....
....|..|--- .... ....|--- .... ....|--- .... ....
....|..|--- .... ....|--- .... ....|--- .... ....
 G#4|..|G#2 2A.F ....|--- .... ....|G#2 2A.F ....
....|..|--- .... ....|--- .... ....|--- .... ....
....|..|--- .... ....|--- .... ....|--- .... ....
....|..|--- .... ....|--- .... ....|--- .... ....
 D#4|..|C-4 AF.F ....|--- .... ....|D#2 2A.F ....
 D#4|..|D#2 2A.F ....|--- .... ....|--- .... ....
....|..|--- .... ....|--- .... ....|--- .... ....
....|..|--- .... ....|--- .... ....|--- .... ....
 G#4|..|G#2 2A.F ....|--- .... ....|G#2 2A.F ....
 D#4|..|D#2 2F.7 ....|--- .... ....|--- .... ....
....|..|--- .... ....|--- .... ....|--- .... ....
....|..|--- .... ....|--- .... ....|--- .... ....
 D#4|..|C-4 AF.F ....|--- .... ....|D#2 2A.F ....
 D#4|..|D#2 2A.F ....|--- .... ....|--- .... ....
....|..|--- .... ....|--- .... ....|--- .... ....
....|..|--- .... ....|--- .... ....|--- .... ....
 G-4|..|C-4 AF.F ....|--- .... ....|G-2 2A.F ....
 G-4|..|G-2 2A.F ....|--- .... ....|--- .... ....
....|..|--- .... ....|--- .... ....|--- .... ....
....|..|--- .... ....|--- .... ....|--- .... ....
 F-4|..|C-4 AF.F ....|--- .... ....|F-2 2F.7 ....
 F-4|..|F-2 2F.7 ....|--- .... ....|--- .... ....
....|..|--- .... ....|--- .... ....|--- .... ....
....|..|--- .... ....|--- .... ....|--- .... ....
 G#4|..|G#2 2F.7 ....|--- .... ....|G#2 2F.7 ....
 D#4|..|D#2 2F.A ....|--- .... ....|--- .... ....
....|..|--- .... ....|--- .... ....|--- .... ....
....|..|--- .... ....|--- .... ....|--- .... ....
 D#4|..|C-4 AF.F ....|--- .... ....|D#2 2F.7 ....
 D#4|..|D#2 2F.7 ....|--- .... ....|--- .... ....
....|..|--- .... ....|--- .... ....|--- .... ....
....|..|--- .... ....|--- .... ....|--- .... ....

[Pattern20]
 D#3|..|C-4 AF.F ....|--- .... ....|D#1 2A.F ....
 D#3|..|D#1 2A.F ....|--- .... ....|--- .... ....
....|..|--- .... ....|--- .... ....|--- .... ....
....|..|--- .... ....|--- .... ....|--- .... ....
 F-3|..|C-4 AF.F ....|--- .... ....|F-1 2A.F ....
 F-3|..|F-1 2A.F ....|--- .... ....|--- .... ....
....|..|--- .... ....|--- .... ....|--- .... ....
....|..|--- .... ....|--- .... ....|--- .... ....
 F-4|..|C-4 BF.F ....|--- .... ....|F-2 2A.F ....
 F-4|..|F-2 2A.F ....|--- .... ....|--- .... ....
....|..|--- .... ....|--- .... ....|--- .... ....
....|..|--- .... ....|--- .... ....|--- .... ....
 G#4|..|C-4 AF.F ....|--- .... ....|G#2 2A.F ....
 G#4|..|G#2 2A.F ....|--- .... ....|--- .... ....
....|..|--- .... ....|--- .... ....|--- .... ....
....|..|--- .... ....|--- .... ....|--- .... ....
 D#4|..|C-4 AF.F ....|--- .... ....|D#2 2A.F ....
 D#4|..|D#2 2A.F ....|--- .... ....|--- .... ....
....|..|--- .... ....|--- .... ....|--- .... ....
....|..|--- .... ....|--- .... ....|--- .... ....
 F-4|..|F-2 2A.F ....|--- .... ....|F-2 2A.F ....
 F-4|..|F-2 2F.A ....|--- .... ....|--- .... ....
....|..|--- .... ....|--- .... ....|--- .... ....
....|..|--- .... ....|--- .... ....|--- .... ....
 D#4|..|C-4 BF.F ....|--- .... ....|D#2 2A.F ....
 D#4|..|D#2 2A.F ....|--- .... ....|--- .... ....
....|..|--- .... ....|--- .... ....|--- .... ....
....|..|--- .... ....|--- .... ....|--- .... ....
 F-4|..|C-4 AF.F ....|--- .... ....|F-2 2A.F ....
 F-4|..|F-2 2A.F ....|--- .... ....|--- .... ....
....|..|--- .... ....|--- .... ....|--- .... ....
....|..|--- .... ....|--- .... ....|--- .... ....
 G#4|..|B-8 JF.F ....|--- .... ....|G#2 2A.F ....
 G#4|..|G#2 2A.F ....|--- .... ....|--- .... ....
....|..|--- .... ....|--- .... ....|--- .... ....
....|..|--- .... ....|--- .... ....|--- .... ....
 D#4|..|C-4 AF.F ....|--- .... ....|D#2 2A.F ....
 D#4|..|D#2 2A.F ....|--- .... ....|--- .... ....
....|..|--- .... ....|--- .... ....|--- .... ....
....|..|--- .... ....|--- .... ....|--- .... ....
 G#4|..|C-4 BF.F ....|--- .... ....|G#2 2A.F ....
 G#4|..|G#2 2A.F ....|--- .... ....|--- .... ....
....|..|--- .... ....|--- .... ....|--- .... ....
....|..|--- .... ....|--- .... ....|--- .... ....
 D#4|..|C-4 AF.F ....|--- .... ....|D#2 2A.F ....
 D#4|..|D#2 2A.F ....|--- .... ....|--- .... ....
....|..|--- .... ....|--- .... ....|--- .... ....
....|..|--- .... ....|--- .... ....|--- .... ....
 G-4|..|C-4 AF.F ....|--- .... ....|G-2 2A.F ....
 G-4|..|G-2 2A.F ....|--- .... ....|--- .... ....
....|..|--- .... ....|--- .... ....|--- .... ....
....|..|--- .... ....|--- .... ....|--- .... ....
 F-4|..|C-4 AF.F ....|--- .... ....|F-2 2A.F ....
 F-4|..|F-2 2A.F ....|--- .... ....|--- .... ....
....|..|--- .... ....|--- .... ....|--- .... ....
....|..|--- .... ....|--- .... ....|--- .... ....
 G#4|..|C-4 BF.F ....|--- .... ....|G#2 2F.7 ....
 G#4|..|G#2 2F.7 ....|--- .... ....|--- .... ....
....|..|--- .... ....|--- .... ....|--- .... ....
....|..|--- .... ....|--- .... ....|--- .... ....
 D#4|..|C-4 AF.7 ....|--- .... ....|D#2 2F.7 ....
 D#4|..|D#2 2F.7 ....|--- .... ....|--- .... ....
....|..|--- .... ....|--- .... ....|--- .... ....
....|..|--- .... ....|--- .... ....|--- .... ....
 D#3|..|C-4 AF.F ....|--- .... ....|D#1 2A.F ....
 D#3|..|D#1 2A.F ....|--- .... ....|--- .... ....
....|..|--- .... ....|--- .... ....|--- .... ....
....|..|--- .... ....|--- .... ....|--- .... ....
 F-3|..|C-4 AF.F ....|--- .... ....|F-1 2A.F ....
 F-3|..|F-1 2A.F ....|--- .... ....|--- .... ....
....|..|--- .... ....|--- .... ....|--- .... ....
....|..|--- .... ....|--- .... ....|--- .... ....
 F-4|..|C-4 BF.F ....|--- .... ....|F-2 2A.F ....
 F-4|..|F-2 2A.F ....|--- .... ....|--- .... ....
....|..|--- .... ....|--- .... ....|--- .... ....
....|..|--- .... ....|--- .... ....|--- .... ....
 G#4|..|C-4 AF.F ....|--- .... ....|G#2 2A.F ....
 G#4|..|G#2 2A.F ....|--- .... ....|--- .... ....
....|..|--- .... ....|--- .... ....|--- .... ....
....|..|--- .... ....|--- .... ....|--- .... ....
 D#4|..|C-4 AF.F ....|--- .... ....|D#2 2A.F ....
 D#4|..|D#2 2A.F ....|--- .... ....|--- .... ....
....|..|--- .... ....|--- .... ....|--- .... ....
....|..|--- .... ....|--- .... ....|--- .... ....
 F-4|..|F-2 2A.F ....|--- .... ....|F-2 2A.F ....
 F-4|..|F-2 2F.A ....|--- .... ....|--- .... ....
....|..|--- .... ....|--- .... ....|--- .... ....
....|..|--- .... ....|--- .... ....|--- .... ....
 D#4|..|C-4 BF.F ....|--- .... ....|D#2 2A.F ....
 D#4|..|D#2 2A.F ....|--- .... ....|--- .... ....
....|..|--- .... ....|--- .... ....|--- .... ....
....|..|--- .... ....|--- .... ....|--- .... ....
 F-4|..|C-4 AF.F ....|--- .... ....|F-2 2A.F ....
 F-4|..|F-2 2A.F ....|--- .... ....|--- .... ....
....|..|--- .... ....|--- .... ....|--- .... ....
....|..|--- .... ....|--- .... ....|--- .... ....
 G#4|..|B-8 JF.F ....|--- .... ....|G#2 2A.F ....
 G#4|..|G#2 2A.F ....|--- .... ....|--- .... ....
....|..|--- .... ....|--- .... ....|--- .... ....
....|..|--- .... ....|--- .... ....|--- .... ....
 D#4|..|C-4 AF.F ....|--- .... ....|D#2 2A.F ....
 D#4|..|D#2 2A.F ....|--- .... ....|--- .... ....
....|..|--- .... ....|--- .... ....|--- .... ....
....|..|--- .... ....|--- .... ....|--- .... ....
 G#4|..|C-4 BF.F ....|--- .... ....|G#2 2A.F ....
 G#4|..|G#2 2A.F ....|--- .... ....|--- .... ....
....|..|--- .... ....|--- .... ....|--- .... ....
....|..|--- .... ....|--- .... ....|--- .... ....
 D#4|..|C-4 AF.F ....|--- .... ....|D#2 2A.F ....
 D#4|..|D#2 2A.F ....|--- .... ....|--- .... ....
....|..|--- .... ....|--- .... ....|--- .... ....
....|..|--- .... ....|--- .... ....|--- .... ....
 G-4|..|C-4 AF.F ....|--- .... ....|G-2 2A.F ....
 G-4|..|G-2 2A.F ....|--- .... ....|--- .... ....
....|..|--- .... ....|--- .... ....|--- .... ....
....|..|--- .... ....|--- .... ....|--- .... ....
 F-4|..|C-4 AF.F ....|--- .... ....|F-2 2F.7 ....
 F-4|..|F-2 2F.7 ....|--- .... ....|--- .... ....
....|..|--- .... ....|--- .... ....|--- .... ....
....|..|--- .... ....|--- .... ....|--- .... ....
 G#4|..|C-4 BF.F ....|--- .... ....|G#2 2F.7 ....
 G#4|..|G#2 2F.7 ....|--- .... ....|--- .... ....
....|..|--- .... ....|--- .... ....|--- .... ....
....|..|--- .... ....|--- .... ....|--- .... ....
 D#4|..|C-4 AF.F ....|--- .... ....|D#2 2F.7 ....
 D#4|..|D#2 2F.7 ....|--- .... ....|--- .... ....
....|..|--- .... ....|--- .... ....|--- .... ....
....|..|--- .... ....|--- .... ....|--- .... ....

[Pattern21]
 D#3|..|C-4 AF.F ....|--- .... ....|D#1 2A.F ....
 D#3|..|D#1 2A.F ....|--- .... ....|--- .... ....
....|..|--- .... ....|--- .... ....|--- .... ....
....|..|--- .... ....|--- .... ....|--- .... ....
 F-3|..|C-4 AF.F ....|--- .... ....|F-1 2A.F ....
 F-3|..|F-1 2A.F ....|--- .... ....|--- .... ....
....|..|--- .... ....|--- .... ....|--- .... ....
....|..|--- .... ....|--- .... ....|--- .... ....
 F-4|..|C-4 BF.F ....|--- .... ....|F-2 2A.F ....
 F-4|..|F-2 2A.F ....|--- .... ....|--- .... ....
....|..|--- .... ....|--- .... ....|--- .... ....
....|..|--- .... ....|--- .... ....|--- .... ....
 G#4|..|C-4 AF.F ....|--- .... ....|G#2 2A.F ....
 G#4|..|G#2 2A.F ....|--- .... ....|--- .... ....
....|..|--- .... ....|--- .... ....|--- .... ....
....|..|--- .... ....|--- .... ....|--- .... ....
 D#4|..|C-4 AF.F ....|--- .... ....|D#2 2A.F ....
 D#4|..|D#2 2A.F ....|--- .... ....|--- .... ....
....|..|--- .... ....|--- .... ....|--- .... ....
....|..|--- .... ....|--- .... ....|--- .... ....
 F-4|..|F-2 2A.F ....|--- .... ....|F-2 2A.F ....
 F-4|..|F-2 2F.A ....|--- .... ....|--- .... ....
....|..|--- .... ....|--- .... ....|--- .... ....
....|..|--- .... ....|--- .... ....|--- .... ....
 D#4|..|C-4 BF.F ....|--- .... ....|D#2 2A.F ....
 D#4|..|D#2 2A.F ....|--- .... ....|--- .... ....
....|..|--- .... ....|--- .... ....|--- .... ....
....|..|--- .... ....|--- .... ....|--- .... ....
 F-4|..|C-4 AF.F ....|--- .... ....|F-2 2A.F ....
 F-4|..|F-2 2A.F ....|--- .... ....|--- .... ....
....|..|--- .... ....|--- .... ....|--- .... ....
....|..|--- .... ....|--- .... ....|--- .... ....
 G#4|..|B-8 JF.F ....|--- .... ....|G#2 2A.F ....
 G#4|..|G#2 2A.F ....|--- .... ....|--- .... ....
....|..|--- .... ....|--- .... ....|--- .... ....
....|..|--- .... ....|--- .... ....|--- .... ....
 D#4|..|C-4 AF.F ....|--- .... ....|D#2 2A.F ....
 D#4|..|D#2 2A.F ....|--- .... ....|--- .... ....
....|..|--- .... ....|--- .... ....|--- .... ....
....|..|--- .... ....|--- .... ....|--- .... ....
 G#4|..|C-4 BF.F ....|--- .... ....|G#2 2A.F ....
 G#4|..|G#2 2A.F ....|--- .... ....|--- .... ....
....|..|--- .... ....|--- .... ....|--- .... ....
....|..|--- .... ....|--- .... ....|--- .... ....
 D#4|..|C-4 AF.F ....|--- .... ....|D#2 2A.F ....
 D#4|..|D#2 2A.F ....|--- .... ....|--- .... ....
....|..|--- .... ....|--- .... ....|--- .... ....
....|..|--- .... ....|--- .... ....|--- .... ....
 G-4|..|C-4 AF.F ....|--- .... ....|G-2 2A.F ....
 G-4|..|G-2 2A.F ....|--- .... ....|--- .... ....
....|..|--- .... ....|--- .... ....|--- .... ....
....|..|--- .... ....|--- .... ....|--- .... ....
 F-4|..|C-4 AF.F ....|--- .... ....|F-2 2A.F ....
 F-4|..|F-2 2A.F ....|--- .... ....|--- .... ....
....|..|--- .... ....|--- .... ....|--- .... ....
....|..|--- .... ....|--- .... ....|--- .... ....
 G#4|..|C-4 BF.F ....|--- .... ....|G#2 2F.7 ....
 G#4|..|G#2 2F.7 ....|--- .... ....|--- .... ....
....|..|--- .... ....|--- .... ....|--- .... ....
....|..|--- .... ....|--- .... ....|--- .... ....
 D#4|..|C-4 AF.7 ....|--- .... ....|D#2 2F.7 ....
 D#4|..|D#2 2F.7 ....|--- .... ....|--- .... ....
....|..|--- .... ....|--- .... ....|--- .... ....
....|..|--- .... ....|--- .... ....|--- .... ....
 D#3|..|C-4 AF.F ....|--- .... ....|D#1 2A.F ....
 D#3|..|D#1 2A.F ....|--- .... ....|--- .... ....
....|..|--- .... ....|--- .... ....|--- .... ....
....|..|--- .... ....|--- .... ....|--- .... ....
 F-3|..|C-4 AF.F ....|--- .... ....|F-1 2A.F ....
 F-3|..|F-1 2A.F ....|--- .... ....|--- .... ....
....|..|--- .... ....|--- .... ....|--- .... ....
....|..|--- .... ....|--- .... ....|--- .... ....
 F-4|..|C-4 BF.F ....|--- .... ....|F-2 2A.F ....
 F-4|..|F-2 2A.F ....|--- .... ....|--- .... ....
....|..|--- .... ....|--- .... ....|--- .... ....
....|..|--- .... ....|--- .... ....|--- .... ....
 G#4|..|C-4 AF.F ....|--- .... ....|G#2 2A.F ....
 G#4|..|G#2 2A.F ....|--- .... ....|--- .... ....
....|..|--- .... ....|--- .... ....|--- .... ....
....|..|--- .... ....|--- .... ....|--- .... ....
 D#4|..|C-4 AF.F ....|--- .... ....|D#2 2A.F ....
 D#4|..|D#2 2A.F ....|--- .... ....|--- .... ....
....|..|--- .... ....|--- .... ....|--- .... ....
....|..|--- .... ....|--- .... ....|--- .... ....
 F-4|..|F-2 2A.F ....|--- .... ....|F-2 2A.F ....
 F-4|..|F-2 2F.A ....|--- .... ....|--- .... ....
....|..|--- .... ....|--- .... ....|--- .... ....
....|..|--- .... ....|--- .... ....|--- .... ....
 D#4|..|C-4 BF.F ....|--- .... ....|D#2 2A.F ....
 D#4|..|D#2 2A.F ....|--- .... ....|--- .... ....
....|..|--- .... ....|--- .... ....|--- .... ....
....|..|--- .... ....|--- .... ....|--- .... ....
 F-4|..|C-4 AF.F ....|--- .... ....|F-2 2A.F ....
 F-4|..|F-2 2A.F ....|--- .... ....|--- .... ....
....|..|--- .... ....|--- .... ....|--- .... ....
....|..|--- .... ....|--- .... ....|--- .... ....
 G#4|..|B-8 JF.F ....|--- .... ....|G#2 2A.F ....
 G#4|..|G#2 2A.F ....|--- .... ....|--- .... ....
....|..|--- .... ....|--- .... ....|--- .... ....
....|..|--- .... ....|--- .... ....|--- .... ....
 D#4|..|D#2 2A.F ....|--- .... ....|D#2 2A.F ....
 G#4|..|G#2 2F.7 ....|--- .... ....|--- .... ....
....|..|--- .... ....|--- .... ....|--- .... ....
....|..|--- .... ....|--- .... ....|--- .... ....
 G#4|..|C-4 BF.F ....|--- .... ....|G#2 2A.F ....
 G#4|..|G#2 2A.F ....|--- .... ....|--- .... ....
....|..|--- .... ....|--- .... ....|--- .... ....
....|..|--- .... ....|--- .... ....|--- .... ....
 D#4|..|D#2 2A.F ....|--- .... ....|D#2 2A.F ....
 G#4|..|G#2 2F.A ....|--- .... ....|--- .... ....
....|..|--- .... ....|--- .... ....|--- .... ....
....|..|--- .... ....|--- .... ....|--- .... ....
 G-4|..|B-8 JF.F ....|--- .... ....|G-2 2A.F ....
 G-4|..|G-2 2A.F ....|--- .... ....|--- .... ....
....|..|--- .... ....|--- .... ....|--- .... ....
....|..|--- .... ....|--- .... ....|--- .... ....
 F-4|..|C-4 AF.7 ....|--- .... ....|F-2 2F.7 ....
 F-4|..|F-2 2F.7 ....|--- .... ....|--- .... ....
....|..|--- .... ....|--- .... ....|--- .... ....
....|..|--- .... ....|--- .... ....|--- .... ....
 G#4|..|C-4 BF.F ....|--- .... ....|G#2 2F.7 ....
 G#4|..|G#2 2F.7 ....|--- .... ....|--- .... ....
....|..|--- .... ....|--- .... ....|--- .... ....
....|..|--- .... ....|--- .... ....|--- .... ....
 D#4|..|D#2 2F.7 ....|--- .... ....|D#2 2F.7 ....
 G-4|..|G-2 2F.A ....|--- .... ....|--- .... ....
....|..|--- .... ....|--- .... ....|--- .... ....
....|..|--- .... ....|--- .... ....|--- .... ....

[Pattern23]
 D#3|..|C-4 AF.F ....|--- .... ....|D#1 2A.F ....
 D#3|..|D#1 2A.F ....|--- .... ....|--- .... ....
....|..|--- .... ....|--- .... ....|--- .... ....
....|..|--- .... ....|--- .... ....|--- .... ....
 F-3|..|C-4 AF.F ....|--- .... ....|F-1 2A.F ....
 F-3|..|F-1 2A.F ....|--- .... ....|--- .... ....
....|..|--- .... ....|--- .... ....|--- .... ....
....|..|--- .... ....|--- .... ....|--- .... ....
 F-4|..|C-4 BF.F ....|--- .... ....|F-2 2A.F ....
 F-4|..|F-2 2A.F ....|--- .... ....|--- .... ....
....|..|--- .... ....|--- .... ....|--- .... ....
....|..|--- .... ....|--- .... ....|--- .... ....
 G#4|..|C-4 AF.F ....|--- .... ....|G#2 2A.F ....
 G#4|..|G#2 2A.F ....|--- .... ....|--- .... ....
....|..|--- .... ....|--- .... ....|--- .... ....
....|..|--- .... ....|--- .... ....|--- .... ....
 D#4|..|C-4 AF.F ....|--- .... ....|D#2 2A.F ....
 D#4|..|D#2 2A.F ....|--- .... ....|--- .... ....
....|..|--- .... ....|--- .... ....|--- .... ....
....|..|--- .... ....|--- .... ....|--- .... ....
 F-4|..|F-2 2A.F ....|--- .... ....|F-2 2A.F ....
 F-4|..|F-2 2F.A ....|--- .... ....|--- .... ....
....|..|--- .... ....|--- .... ....|--- .... ....
....|..|--- .... ....|--- .... ....|--- .... ....
 D#4|..|C-4 BF.F ....|--- .... ....|D#2 2A.F ....
 D#4|..|D#2 2A.F ....|--- .... ....|--- .... ....
....|..|--- .... ....|--- .... ....|--- .... ....
....|..|--- .... ....|--- .... ....|--- .... ....
 F-4|..|C-4 AF.F ....|--- .... ....|F-2 2A.F ....
 F-4|..|F-2 2A.F ....|--- .... ....|--- .... ....
....|..|--- .... ....|--- .... ....|--- .... ....
....|..|--- .... ....|--- .... ....|--- .... ....
 G#4|..|B-8 JF.F ....|--- .... ....|G#2 2A.F ....
 G#4|..|G#2 2A.F ....|--- .... ....|--- .... ....
....|..|--- .... ....|--- .... ....|--- .... ....
....|..|--- .... ....|--- .... ....|--- .... ....
 D#4|..|C-4 AF.F ....|--- .... ....|D#2 2A.F ....
 D#4|..|D#2 2A.F ....|--- .... ....|--- .... ....
....|..|--- .... ....|--- .... ....|--- .... ....
....|..|--- .... ....|--- .... ....|--- .... ....
 G#4|..|C-4 BF.F ....|--- .... ....|G#2 2A.F ....
 G#4|..|G#2 2A.F ....|--- .... ....|--- .... ....
....|..|--- .... ....|--- .... ....|--- .... ....
....|..|--- .... ....|--- .... ....|--- .... ....
 D#4|..|C-4 AF.F ....|--- .... ....|D#2 2A.F ....
 D#4|..|D#2 2A.F ....|--- .... ....|--- .... ....
....|..|--- .... ....|--- .... ....|--- .... ....
....|..|--- .... ....|--- .... ....|--- .... ....
 G-4|..|C-4 AF.F ....|--- .... ....|G-2 2A.F ....
 G-4|..|G-2 2A.F ....|--- .... ....|--- .... ....
....|..|--- .... ....|--- .... ....|--- .... ....
....|..|--- .... ....|--- .... ....|--- .... ....
 F-4|..|C-4 AF.F ....|--- .... ....|F-2 2A.F ....
 F-4|..|F-2 2A.F ....|--- .... ....|--- .... ....
....|..|--- .... ....|--- .... ....|--- .... ....
....|..|--- .... ....|--- .... ....|--- .... ....
 G#4|..|C-4 BF.F ....|--- .... ....|G#2 2F.7 ....
 G#4|..|G#2 2F.7 ....|--- .... ....|--- .... ....
....|..|--- .... ....|--- .... ....|--- .... ....
....|..|--- .... ....|--- .... ....|--- .... ....
 D#4|..|C-4 AF.7 ....|--- .... ....|D#2 2F.7 ....
 D#4|..|D#2 2F.7 ....|--- .... ....|--- .... ....
....|..|--- .... ....|--- .... ....|--- .... ....
....|..|--- .... ....|--- .... ....|--- .... ....
 D#3|..|C-4 AF.F ....|--- .... ....|D#1 2A.F ....
 D#3|..|D#1 2A.F ....|--- .... ....|--- .... ....
....|..|--- .... ....|--- .... ....|--- .... ....
....|..|--- .... ....|--- .... ....|--- .... ....
 F-3|..|C-4 AF.F ....|--- .... ....|F-1 2A.F ....
 F-3|..|F-1 2A.F ....|--- .... ....|--- .... ....
....|..|--- .... ....|--- .... ....|--- .... ....
....|..|--- .... ....|--- .... ....|--- .... ....
 F-4|..|C-4 BF.F ....|--- .... ....|F-2 2A.F ....
 F-4|..|F-2 2A.F ....|--- .... ....|--- .... ....
....|..|--- .... ....|--- .... ....|--- .... ....
....|..|--- .... ....|--- .... ....|--- .... ....
 G#4|..|C-4 AF.F ....|--- .... ....|G#2 2A.F ....
 G#4|..|G#2 2A.F ....|--- .... ....|--- .... ....
....|..|--- .... ....|--- .... ....|--- .... ....
....|..|--- .... ....|--- .... ....|--- .... ....
 D#4|..|C-4 AF.F ....|--- .... ....|D#2 2A.F ....
 D#4|..|D#2 2A.F ....|--- .... ....|--- .... ....
....|..|--- .... ....|--- .... ....|--- .... ....
....|..|--- .... ....|--- .... ....|--- .... ....
 F-4|..|F-2 2A.F ....|--- .... ....|F-2 2A.F ....
 F-4|..|F-2 2F.A ....|--- .... ....|--- .... ....
....|..|--- .... ....|--- .... ....|--- .... ....
....|..|--- .... ....|--- .... ....|--- .... ....
 D#4|..|C-4 BF.F ....|--- .... ....|D#2 2A.F ....
 D#4|..|D#2 2A.F ....|--- .... ....|--- .... ....
....|..|--- .... ....|--- .... ....|--- .... ....
....|..|--- .... ....|--- .... ....|--- .... ....
 F-4|..|C-4 AF.F ....|--- .... ....|F-2 2A.F ....
 F-4|..|F-2 2A.F ....|--- .... ....|--- .... ....
....|..|--- .... ....|--- .... ....|--- .... ....
....|..|--- .... ....|--- .... ....|--- .... ....
 F-4|..|C-4 BF.7 ....|--- .... ....|F-2 2F.7 ....
 F-4|..|F-2 2F.7 ....|--- .... ....|--- .... ....
....|..|--- .... ....|--- .... ....|--- .... ....
....|..|--- .... ....|--- .... ....|--- .... ....
 G#4|..|C-4 AF.7 ....|--- .... ....|G#2 2F.7 ....
 G#4|..|G#2 2F.7 ....|--- .... ....|--- .... ....
....|..|--- .... ....|--- .... ....|--- .... ....
....|..|--- .... ....|--- .... ....|--- .... ....
 D#4|..|C-4 AF.7 ....|--- .... ....|D#2 2F.7 ....
 D#4|..|D#2 2F.7 ....|--- .... ....|--- .... ....
....|..|--- .... ....|--- .... ....|--- .... ....
....|..|--- .... ....|--- .... ....|--- .... ....
 F-4|..|F-2 2F.7 ....|--- .... ....|F-2 2F.7 ....
....|..|--- .... ....|--- .... ....|--- .... ....
....|..|--- .... ....|--- .... ....|--- .... ....
....|..|--- .... ....|--- .... ....|--- .... ....
 D#4|..|C-4 BF.7 ....|--- .... ....|D#2 2F.7 ....
 D#4|..|D#2 2F.7 ....|--- .... ....|--- .... ....
....|..|--- .... ....|--- .... ....|--- .... ....
....|..|--- .... ....|--- .... ....|--- .... ....
 F-4|..|C-4 AF.7 ....|--- .... ....|F-2 2F.7 ....
 F-4|..|F-2 2F.7 ....|--- .... ....|--- .... ....
....|..|--- .... ....|--- .... ....|--- .... ....
....|..|--- .... ....|--- .... ....|--- .... ....
....|..|R-- .... ....|--- .... ....|R-- .... ....
....|..|--- .... ....|--- .... ....|--- .... ....
....|..|--- .... ....|--- .... ....|--- .... ....
....|..|--- .... ....|--- .... ....|--- .... ....
....|..|--- .... ....|--- .... ....|--- .... ....
....|..|--- .... ....|--- .... ....|--- .... ....
....|..|--- .... ....|--- .... ....|--- .... ....
....|..|--- .... ....|--- .... ....|--- .... ....

[Pattern24]
 D#3|..|C-4 AF.F ....|--- .... ....|D#1 2A.F ....
 D#3|..|D#1 2A.F ....|--- .... ....|--- .... ....
....|..|--- .... ....|--- .... ....|--- .... ....
....|..|--- .... ....|--- .... ....|--- .... ....
 F-3|..|F-1 2A.F ....|F-1 2A.F ....|F-1 2A.F ....
 F-3|..|F-1 2A.F ....|--- .... ....|F-1 2A.F ....
....|..|--- .... ....|--- .... ....|--- .... ....
....|..|--- .... ....|--- .... ....|--- .... ....
 F-4|..|C-4 AF.F ....|R-- .... ....|F-2 2A.F ....
 F-4|..|F-2 2A.F ....|--- .... ....|R-- .... ....
....|..|--- .... ....|--- .... ....|--- .... ....
....|..|--- .... ....|--- .... ....|--- .... ....
 F-3|..|F-1 2A.F ....|F-1 2A.F ....|G#2 2A.F ....
 F-3|..|G#2 2A.F ....|--- .... ....|F-1 2A.F ....
....|..|--- .... ....|--- .... ....|--- .... ....
....|..|--- .... ....|--- .... ....|--- .... ....
 D#4|..|C-4 AF.F ....|R-- .... ....|D#2 2A.F ....
 D#4|..|D#2 2A.F ....|--- .... ....|R-- .... ....
....|..|--- .... ....|--- .... ....|--- .... ....
....|..|--- .... ....|--- .... ....|--- .... ....
 F-3|..|F-1 2A.F ....|F-1 2A.F ....|F-2 2A.F ....
 F-3|..|F-2 2A.F ....|--- .... ....|F-1 2A.F ....
....|..|--- .... ....|--- .... ....|--- .... ....
....|..|--- .... ....|--- .... ....|--- .... ....
 D#4|..|C-4 AF.F ....|R-- .... ....|D#2 2A.F ....
 D#4|..|D#2 2A.F ....|--- .... ....|R-- .... ....
....|..|--- .... ....|--- .... ....|--- .... ....
....|..|--- .... ....|--- .... ....|--- .... ....
 F-3|..|F-1 2A.F ....|F-1 2A.F ....|F-2 2A.F ....
 F-3|..|F-2 2A.F ....|--- .... ....|F-1 2A.F ....
....|..|--- .... ....|--- .... ....|--- .... ....
....|..|--- .... ....|--- .... ....|--- .... ....
 G#4|..|C-4 AF.F ....|R-- .... ....|G#2 2A.F ....
 G#4|..|G#2 2A.F ....|--- .... ....|R-- .... ....
....|..|--- .... ....|--- .... ....|--- .... ....
....|..|--- .... ....|--- .... ....|--- .... ....
 D#4|..|F-1 2A.F ....|F-1 2A.F ....|D#2 2A.F ....
 D#4|..|D#2 2A.F ....|--- .... ....|F-1 2A.F ....
....|..|--- .... ....|--- .... ....|--- .... ....
....|..|--- .... ....|--- .... ....|--- .... ....
 G#4|..|C-4 AF.F ....|R-- .... ....|G#2 2A.F ....
 G#4|..|G#2 2A.F ....|--- .... ....|R-- .... ....
....|..|--- .... ....|--- .... ....|--- .... ....
....|..|--- .... ....|--- .... ....|--- .... ....
 D#4|..|F-1 2A.F ....|F-1 2A.F ....|D#2 2A.F ....
 D#4|..|D#2 2A.F ....|--- .... ....|F-1 2A.F ....
....|..|--- .... ....|--- .... ....|--- .... ....
....|..|--- .... ....|--- .... ....|--- .... ....
 G-4|..|C-4 AF.F ....|R-- .... ....|G-2 2A.F ....
 G-4|..|G-2 2A.F ....|--- .... ....|R-- .... ....
....|..|--- .... ....|--- .... ....|--- .... ....
....|..|--- .... ....|--- .... ....|--- .... ....
 F-3|..|F-1 2A.F ....|F-1 2A.F ....|F-2 2A.F ....
 F-3|..|F-2 2A.F ....|--- .... ....|F-1 2A.F ....
....|..|--- .... ....|--- .... ....|--- .... ....
....|..|--- .... ....|--- .... ....|--- .... ....
 G#4|..|C-4 AF.F ....|R-- .... ....|G#2 2F.7 ....
 G#4|..|G#2 2F.7 ....|--- .... ....|R-- .... ....
....|..|--- .... ....|--- .... ....|--- .... ....
....|..|--- .... ....|--- .... ....|--- .... ....
 F-3|..|F-1 2A.F ....|F-1 2A.F ....|F-1 2A.F ....
 D#4|..|D#2 2F.7 ....|--- .... ....|F-1 2F.7 ....
....|..|--- .... ....|--- .... ....|--- .... ....
....|..|--- .... ....|--- .... ....|--- .... ....
 D#3|..|C-4 AF.F ....|R-- .... ....|D#1 2A.F ....
 D#3|..|D#1 2A.F ....|--- .... ....|R-- .... ....
....|..|--- .... ....|--- .... ....|--- .... ....
....|..|--- .... ....|--- .... ....|--- .... ....
 F-3|..|F-1 2A.F ....|F-1 2A.F ....|F-1 2A.F ....
 F-3|..|F-1 2A.F ....|--- .... ....|F-1 2A.F ....
....|..|--- .... ....|--- .... ....|--- .... ....
....|..|--- .... ....|--- .... ....|--- .... ....
 F-4|..|C-4 AF.F ....|R-- .... ....|F-2 2A.F ....
 F-4|..|F-2 2A.F ....|--- .... ....|R-- .... ....
....|..|--- .... ....|--- .... ....|--- .... ....
....|..|--- .... ....|--- .... ....|--- .... ....
 F-3|..|F-1 2A.F ....|F-1 2A.F ....|G#2 2A.F ....
 F-3|..|G#2 2A.F ....|--- .... ....|F-1 2A.F ....
....|..|--- .... ....|--- .... ....|--- .... ....
....|..|--- .... ....|--- .... ....|--- .... ....
 D#4|..|C-4 AF.F ....|R-- .... ....|D#2 2A.F ....
 D#4|..|D#2 2A.F ....|--- .... ....|R-- .... ....
....|..|--- .... ....|--- .... ....|--- .... ....
....|..|--- .... ....|--- .... ....|--- .... ....
 F-3|..|F-1 2A.F ....|F-1 2A.F ....|F-2 2A.F ....
 F-3|..|F-2 2A.F ....|--- .... ....|F-1 2A.F ....
....|..|--- .... ....|--- .... ....|--- .... ....
....|..|--- .... ....|--- .... ....|--- .... ....
 D#4|..|C-4 AF.F ....|R-- .... ....|D#2 2A.F ....
 D#4|..|D#2 2A.F ....|--- .... ....|R-- .... ....
....|..|--- .... ....|--- .... ....|--- .... ....
....|..|--- .... ....|--- .... ....|--- .... ....
 F-3|..|F-1 2A.F ....|F-1 2A.F ....|F-2 2A.F ....
 F-3|..|F-2 2A.F ....|--- .... ....|F-1 2A.F ....
....|..|--- .... ....|--- .... ....|--- .... ....
....|..|--- .... ....|--- .... ....|--- .... ....
 G#4|..|C-4 AF.F ....|R-- .... ....|G#2 2A.F ....
 G#4|..|G#2 2A.F ....|--- .... ....|R-- .... ....
....|..|--- .... ....|--- .... ....|--- .... ....
....|..|--- .... ....|--- .... ....|--- .... ....
 D#4|..|F-1 2A.F ....|F-1 2A.F ....|D#2 2A.F ....
 D#4|..|D#2 2A.F ....|--- .... ....|F-1 2A.F ....
....|..|--- .... ....|--- .... ....|--- .... ....
....|..|--- .... ....|--- .... ....|--- .... ....
 G#4|..|C-4 AF.F ....|R-- .... ....|G#2 2A.F ....
 G#4|..|G#2 2A.F ....|--- .... ....|R-- .... ....
....|..|--- .... ....|--- .... ....|--- .... ....
....|..|--- .... ....|--- .... ....|--- .... ....
 D#4|..|F-1 2A.F ....|F-1 2A.F ....|D#2 2A.F ....
 D#4|..|D#2 2A.F ....|--- .... ....|F-1 2A.F ....
....|..|--- .... ....|--- .... ....|--- .... ....
....|..|--- .... ....|--- .... ....|--- .... ....
 G-4|..|C-4 AF.F ....|R-- .... ....|G-2 2A.F ....
 G-4|..|G-2 2A.F ....|--- .... ....|R-- .... ....
....|..|--- .... ....|--- .... ....|--- .... ....
....|..|--- .... ....|--- .... ....|--- .... ....
 F-3|..|F-1 2A.F ....|F-1 2A.F ....|F-1 2A.F ....
 F-3|..|F-2 2F.7 ....|--- .... ....|F-1 2F.7 ....
....|..|--- .... ....|--- .... ....|--- .... ....
....|..|--- .... ....|--- .... ....|--- .... ....
 G#4|..|C-4 AF.F ....|R-- .... ....|G#2 2F.7 ....
 G#4|..|G#2 2F.7 ....|--- .... ....|R-- .... ....
....|..|--- .... ....|--- .... ....|--- .... ....
....|..|--- .... ....|--- .... ....|--- .... ....
 F-3|..|F-1 2A.F ....|F-1 2A.F ....|F-1 2A.F ....
 D#4|..|D#2 2F.7 ....|--- .... ....|F-1 2F.7 ....
....|..|--- .... ....|--- .... ....|--- .... ....
....|..|--- .... ....|--- .... ....|--- .... ....

[Pattern25]
 D#3|..|C-4 AF.F ....|R-- .... ....|D#1 2A.F ....
 D#3|..|D#1 2A.F ....|--- .... ....|R-- .... ....
....|..|--- .... ....|--- .... ....|--- .... ....
....|..|--- .... ....|--- .... ....|--- .... ....
 F-3|..|F-1 2A.F ....|F-1 2A.F ....|F-1 2A.F ....
 F-3|..|F-1 2A.F ....|--- .... ....|F-1 2A.F ....
....|..|--- .... ....|--- .... ....|--- .... ....
....|..|--- .... ....|--- .... ....|--- .... ....
 F-4|..|C-4 AF.F ....|R-- .... ....|F-2 2A.F ....
 F-4|..|F-2 2A.F ....|--- .... ....|R-- .... ....
....|..|--- .... ....|--- .... ....|--- .... ....
....|..|--- .... ....|--- .... ....|--- .... ....
 F-3|..|F-1 2A.F ....|F-1 2A.F ....|G#2 2A.F ....
 F-3|..|G#2 2A.F ....|--- .... ....|F-1 2A.F ....
....|..|--- .... ....|--- .... ....|--- .... ....
....|..|--- .... ....|--- .... ....|--- .... ....
 D#4|..|C-4 AF.F ....|R-- .... ....|D#2 2A.F ....
 D#4|..|D#2 2A.F ....|--- .... ....|R-- .... ....
....|..|--- .... ....|--- .... ....|--- .... ....
....|..|--- .... ....|--- .... ....|--- .... ....
 F-3|..|F-1 2A.F ....|F-1 2A.F ....|F-2 2A.F ....
 F-3|..|F-2 2A.F ....|--- .... ....|F-1 2A.F ....
....|..|--- .... ....|--- .... ....|--- .... ....
....|..|--- .... ....|--- .... ....|--- .... ....
 D#4|..|C-4 AF.F ....|R-- .... ....|D#2 2A.F ....
 D#4|..|D#2 2A.F ....|--- .... ....|R-- .... ....
....|..|--- .... ....|--- .... ....|--- .... ....
....|..|--- .... ....|--- .... ....|--- .... ....
 F-3|..|F-1 2A.F ....|F-1 2A.F ....|F-2 2A.F ....
 F-3|..|F-2 2A.F ....|--- .... ....|F-1 2A.F ....
....|..|--- .... ....|--- .... ....|--- .... ....
....|..|--- .... ....|--- .... ....|--- .... ....
 G#4|..|C-4 AF.F ....|R-- .... ....|G#2 2A.F ....
 G#4|..|G#2 2A.F ....|--- .... ....|R-- .... ....
....|..|--- .... ....|--- .... ....|--- .... ....
....|..|--- .... ....|--- .... ....|--- .... ....
 D#4|..|F-1 2A.F ....|F-1 2A.F ....|D#2 2A.F ....
 D#4|..|D#2 2A.F ....|--- .... ....|F-1 2A.F ....
....|..|--- .... ....|--- .... ....|--- .... ....
....|..|--- .... ....|--- .... ....|--- .... ....
 G#4|..|C-4 AF.F ....|R-- .... ....|G#2 2A.F ....
 G#4|..|G#2 2A.F ....|--- .... ....|R-- .... ....
....|..|--- .... ....|--- .... ....|--- .... ....
....|..|--- .... ....|--- .... ....|--- .... ....
 D#4|..|F-1 2A.F ....|F-1 2A.F ....|D#2 2A.F ....
 D#4|..|D#2 2A.F ....|--- .... ....|F-1 2A.F ....
....|..|--- .... ....|--- .... ....|--- .... ....
....|..|--- .... ....|--- .... ....|--- .... ....
 G-4|..|C-4 AF.F ....|R-- .... ....|G-2 2A.F ....
 G-4|..|G-2 2A.F ....|--- .... ....|R-- .... ....
....|..|--- .... ....|--- .... ....|--- .... ....
....|..|--- .... ....|--- .... ....|--- .... ....
 F-3|..|F-1 2A.F ....|F-1 2A.F ....|F-2 2A.F ....
 F-3|..|F-2 2A.F ....|--- .... ....|F-1 2A.F ....
....|..|--- .... ....|--- .... ....|--- .... ....
....|..|--- .... ....|--- .... ....|--- .... ....
 G#4|..|C-4 AF.F ....|R-- .... ....|G#2 2F.7 ....
 G#4|..|G#2 2F.7 ....|--- .... ....|R-- .... ....
....|..|--- .... ....|--- .... ....|--- .... ....
....|..|--- .... ....|--- .... ....|--- .... ....
 F-3|..|F-1 2A.F ....|F-1 2A.F ....|F-1 2A.F ....
 D#4|..|D#2 2F.7 ....|--- .... ....|F-1 2F.7 ....
....|..|--- .... ....|--- .... ....|--- .... ....
....|..|--- .... ....|--- .... ....|--- .... ....
 D#3|..|C-4 AF.F ....|R-- .... ....|D#1 2A.F ....
 D#3|..|D#1 2A.F ....|--- .... ....|R-- .... ....
....|..|--- .... ....|--- .... ....|--- .... ....
....|..|--- .... ....|--- .... ....|--- .... ....
 F-3|..|F-1 2A.F ....|F-1 2A.F ....|F-1 2A.F ....
 F-3|..|F-1 2A.F ....|--- .... ....|F-1 2A.F ....
....|..|--- .... ....|--- .... ....|--- .... ....
....|..|--- .... ....|--- .... ....|--- .... ....
 F-4|..|C-4 AF.F ....|R-- .... ....|F-2 2A.F ....
 F-4|..|F-2 2A.F ....|--- .... ....|R-- .... ....
....|..|--- .... ....|--- .... ....|--- .... ....
....|..|--- .... ....|--- .... ....|--- .... ....
 F-3|..|F-1 2A.F ....|F-1 2A.F ....|G#2 2A.F ....
 F-3|..|G#2 2A.F ....|--- .... ....|F-1 2A.F ....
....|..|--- .... ....|--- .... ....|--- .... ....
....|..|--- .... ....|--- .... ....|--- .... ....
 D#4|..|C-4 AF.F ....|R-- .... ....|D#2 2A.F ....
 D#4|..|D#2 2A.F ....|--- .... ....|R-- .... ....
....|..|--- .... ....|--- .... ....|--- .... ....
....|..|--- .... ....|--- .... ....|--- .... ....
 F-3|..|F-1 2A.F ....|F-1 2A.F ....|F-2 2A.F ....
 F-3|..|F-2 2A.F ....|--- .... ....|F-1 2A.F ....
....|..|--- .... ....|--- .... ....|--- .... ....
....|..|--- .... ....|--- .... ....|--- .... ....
 D#4|..|C-4 AF.F ....|R-- .... ....|D#2 2A.F ....
 D#4|..|D#2 2A.F ....|--- .... ....|R-- .... ....
....|..|--- .... ....|--- .... ....|--- .... ....
....|..|--- .... ....|--- .... ....|--- .... ....
 F-3|..|F-1 2A.F ....|F-1 2A.F ....|F-2 2A.F ....
 F-3|..|F-2 2A.F ....|--- .... ....|F-1 2A.F ....
....|..|--- .... ....|--- .... ....|--- .... ....
....|..|--- .... ....|--- .... ....|--- .... ....
 G#4|..|C-4 AF.F ....|R-- .... ....|G#2 2A.F ....
 G#4|..|G#2 2A.F ....|--- .... ....|R-- .... ....
....|..|--- .... ....|--- .... ....|--- .... ....
....|..|--- .... ....|--- .... ....|--- .... ....
 D#4|..|F-1 2A.F ....|F-1 2A.F ....|D#2 2A.F ....
 D#4|..|D#2 2A.F ....|--- .... ....|F-1 2A.F ....
....|..|--- .... ....|--- .... ....|--- .... ....
....|..|--- .... ....|--- .... ....|--- .... ....
 G#4|..|C-4 AF.F ....|R-- .... ....|G#2 2A.F ....
 G#4|..|G#2 2A.F ....|--- .... ....|R-- .... ....
....|..|--- .... ....|--- .... ....|--- .... ....
....|..|--- .... ....|--- .... ....|--- .... ....
 D#4|..|F-1 2A.F ....|F-1 2A.F ....|D#2 2A.F ....
 D#4|..|D#2 2A.F ....|--- .... ....|F-1 2A.F ....
....|..|--- .... ....|--- .... ....|--- .... ....
....|..|--- .... ....|--- .... ....|--- .... ....
 G-4|..|C-4 AF.F ....|R-- .... ....|G-2 2A.F ....
 G-4|..|G-2 2A.F ....|--- .... ....|R-- .... ....
....|..|--- .... ....|--- .... ....|--- .... ....
....|..|--- .... ....|--- .... ....|--- .... ....
 F-3|..|F-1 2A.F ....|F-1 2A.F ....|F-1 2A.F ....
 F-3|..|F-2 2F.7 ....|--- .... ....|F-1 2F.7 ....
....|..|--- .... ....|--- .... ....|--- .... ....
....|..|--- .... ....|--- .... ....|--- .... ....
 G#4|..|C-4 BF.F ....|R-- .... ....|G#2 2F.7 ....
 G#4|..|G#2 2F.7 ....|--- .... ....|R-- .... ....
....|..|--- .... ....|--- .... ....|--- .... ....
....|..|--- .... ....|--- .... ....|--- .... ....
 D#4|..|C-4 BF.F ....|F-1 2F.7 ....|D#2 2F.7 ....
 D#4|..|D#2 2F.7 ....|--- .... ....|F-1 2F.7 ....
....|..|--- .... ....|--- .... ....|--- .... ....
....|..|--- .... ....|--- .... ....|--- .... ....

[Pattern26]
 D#3|..|C-4 AF.F ....|R-- .... ....|D#1 2A.F ....
 D#3|..|D#1 2A.F ....|--- .... ....|R-- .... ....
....|..|--- .... ....|--- .... ....|--- .... ....
....|..|--- .... ....|--- .... ....|--- .... ....
 F-3|..|B-8 JF.F ....|F-1 2A.F ....|F-1 2A.F ....
 F-3|..|F-1 2A.F ....|--- .... ....|F-1 2A.F ....
 F-3|..|F-1 2A.F ....|--- .... ....|--- .... ....
....|..|--- .... ....|--- .... ....|--- .... ....
 F-4|..|C-4 AF.F ....|R-- .... ....|F-2 2A.F ....
 F-4|..|F-2 2A.F ....|--- .... ....|R-- .... ....
....|..|--- .... ....|--- .... ....|--- .... ....
....|..|--- .... ....|--- .... ....|--- .... ....
 F-3|..|B-8 JF.F ....|F-1 2A.F ....|G#2 2A.F ....
 F-3|..|F-1 2A.F ....|--- .... ....|F-1 2A.F ....
 G#4|..|G#2 2A.F ....|--- .... ....|--- .... ....
....|..|--- .... ....|--- .... ....|--- .... ....
 D#4|..|C-4 AF.F ....|R-- .... ....|D#2 2A.F ....
 D#4|..|D#2 2A.F ....|--- .... ....|R-- .... ....
 F-3|..|F-1 2F.A ....|--- .... ....|--- .... ....
....|..|--- .... ....|--- .... ....|--- .... ....
 F-3|..|B-8 JF.F ....|F-1 2A.F ....|F-2 2A.F ....
 F-3|..|F-1 2A.F ....|--- .... ....|F-1 2A.F ....
 F-4|..|F-2 2A.F ....|--- .... ....|--- .... ....
....|..|--- .... ....|--- .... ....|--- .... ....
 D#4|..|C-4 AF.F ....|R-- .... ....|D#2 2A.F ....
 D#4|..|D#2 2A.F ....|--- .... ....|R-- .... ....
 G#4|..|G#2 2F.A ....|--- .... ....|--- .... ....
....|..|--- .... ....|--- .... ....|--- .... ....
 F-3|..|B-8 JF.F ....|F-1 2A.F ....|F-2 2A.F ....
 F-3|..|F-1 2A.F ....|--- .... ....|F-1 2A.F ....
 F-4|..|F-2 2A.F ....|--- .... ....|--- .... ....
....|..|--- .... ....|--- .... ....|--- .... ....
 G#4|..|C-4 AF.F ....|R-- .... ....|G#2 2A.F ....
 G#4|..|G#2 2A.F ....|--- .... ....|R-- .... ....
 F-4|..|F-2 2F.A ....|--- .... ....|--- .... ....
....|..|--- .... ....|--- .... ....|--- .... ....
 D#4|..|B-8 JF.F ....|F-1 2A.F ....|D#2 2A.F ....
 F-3|..|F-1 2A.F ....|--- .... ....|F-1 2A.F ....
 D#4|..|D#2 2A.F ....|--- .... ....|--- .... ....
....|..|--- .... ....|--- .... ....|--- .... ....
 G#4|..|C-4 AF.F ....|R-- .... ....|G#2 2A.F ....
 G#4|..|G#2 2A.F ....|--- .... ....|R-- .... ....
 F-4|..|F-2 2F.A ....|--- .... ....|--- .... ....
....|..|--- .... ....|--- .... ....|--- .... ....
 D#4|..|B-8 JF.F ....|F-1 2A.F ....|D#2 2A.F ....
 F-3|..|F-1 2A.F ....|--- .... ....|F-1 2A.F ....
 D#4|..|D#2 2A.F ....|--- .... ....|--- .... ....
....|..|--- .... ....|--- .... ....|--- .... ....
 G-4|..|C-4 AF.F ....|R-- .... ....|G-2 2A.F ....
 G-4|..|G-2 2A.F ....|--- .... ....|R-- .... ....
 D#4|..|D#2 2F.A ....|--- .... ....|--- .... ....
....|..|--- .... ....|--- .... ....|--- .... ....
 F-3|..|B-8 JF.F ....|F-1 2A.F ....|F-2 2A.F ....
 F-3|..|F-1 2A.F ....|--- .... ....|F-1 2A.F ....
 F-4|..|F-2 2A.F ....|--- .... ....|--- .... ....
....|..|--- .... ....|--- .... ....|--- .... ....
 G#4|..|C-4 AF.F ....|R-- .... ....|G#2 2F.7 ....
 G#4|..|G#2 2F.7 ....|--- .... ....|R-- .... ....
 D#4|..|D#2 2F.A ....|--- .... ....|--- .... ....
....|..|--- .... ....|--- .... ....|--- .... ....
 F-3|..|B-8 JF.F ....|F-1 2A.F ....|F-1 2A.F ....
 F-3|..|F-1 2A.F ....|--- .... ....|F-1 2F.7 ....
 D#4|..|D#2 2F.7 ....|--- .... ....|--- .... ....
....|..|--- .... ....|--- .... ....|--- .... ....
 D#3|..|C-4 AF.F ....|R-- .... ....|D#1 2A.F ....
 D#3|..|D#1 2A.F ....|--- .... ....|R-- .... ....
 F-4|..|F-2 2F.A ....|--- .... ....|--- .... ....
....|..|--- .... ....|--- .... ....|--- .... ....
 F-3|..|B-8 JF.F ....|F-1 2A.F ....|F-1 2A.F ....
 F-3|..|F-1 2A.F ....|--- .... ....|F-1 2A.F ....
 F-3|..|F-1 2A.F ....|--- .... ....|--- .... ....
....|..|--- .... ....|--- .... ....|--- .... ....
 F-4|..|C-4 AF.F ....|R-- .... ....|F-2 2A.F ....
 F-4|..|F-2 2A.F ....|--- .... ....|R-- .... ....
....|..|--- .... ....|--- .... ....|--- .... ....
....|..|--- .... ....|--- .... ....|--- .... ....
 F-3|..|B-8 JF.F ....|F-1 2A.F ....|G#2 2A.F ....
 F-3|..|F-1 2A.F ....|--- .... ....|F-1 2A.F ....
 G#4|..|G#2 2A.F ....|--- .... ....|--- .... ....
....|..|--- .... ....|--- .... ....|--- .... ....
 D#4|..|C-4 AF.F ....|R-- .... ....|D#2 2A.F ....
 D#4|..|D#2 2A.F ....|--- .... ....|R-- .... ....
 F-3|..|F-1 2F.A ....|--- .... ....|--- .... ....
....|..|--- .... ....|--- .... ....|--- .... ....
 F-3|..|B-8 JF.F ....|F-1 2A.F ....|F-2 2A.F ....
 F-3|..|F-1 2A.F ....|--- .... ....|F-1 2A.F ....
 F-4|..|F-2 2A.F ....|--- .... ....|--- .... ....
....|..|--- .... ....|--- .... ....|--- .... ....
 D#4|..|C-4 AF.F ....|R-- .... ....|D#2 2A.F ....
 D#4|..|D#2 2A.F ....|--- .... ....|R-- .... ....
 G#4|..|G#2 2F.A ....|--- .... ....|--- .... ....
....|..|--- .... ....|--- .... ....|--- .... ....
 F-3|..|B-8 JF.F ....|F-1 2A.F ....|F-2 2A.F ....
 F-3|..|F-1 2A.F ....|--- .... ....|F-1 2A.F ....
 F-4|..|F-2 2A.F ....|--- .... ....|--- .... ....
....|..|--- .... ....|--- .... ....|--- .... ....
 G#4|..|C-4 AF.F ....|R-- .... ....|G#2 2A.F ....
 G#4|..|G#2 2A.F ....|--- .... ....|R-- .... ....
 F-4|..|F-2 2F.A ....|--- .... ....|--- .... ....
....|..|--- .... ....|--- .... ....|--- .... ....
 D#4|..|B-8 JF.F ....|F-1 2A.F ....|D#2 2A.F ....
 F-3|..|F-1 2A.F ....|--- .... ....|F-1 2A.F ....
 D#4|..|D#2 2A.F ....|--- .... ....|--- .... ....
....|..|--- .... ....|--- .... ....|--- .... ....
 G#4|..|C-4 AF.F ....|R-- .... ....|G#2 2A.F ....
 G#4|..|G#2 2A.F ....|--- .... ....|R-- .... ....
 F-4|..|F-2 2F.A ....|--- .... ....|--- .... ....
....|..|--- .... ....|--- .... ....|--- .... ....
 D#4|..|B-8 JF.F ....|F-1 2A.F ....|D#2 2A.F ....
 F-3|..|F-1 2A.F ....|--- .... ....|F-1 2A.F ....
 D#4|..|D#2 2A.F ....|--- .... ....|--- .... ....
....|..|--- .... ....|--- .... ....|--- .... ....
 G-4|..|C-4 AF.F ....|R-- .... ....|G-2 2A.F ....
 G-4|..|G-2 2A.F ....|--- .... ....|R-- .... ....
 D#4|..|D#2 2F.A ....|--- .... ....|--- .... ....
....|..|--- .... ....|--- .... ....|--- .... ....
 F-3|..|B-8 JF.F ....|F-1 2A.F ....|F-1 2A.F ....
 F-3|..|F-1 2A.F ....|--- .... ....|F-1 2F.7 ....
 F-4|..|F-2 2F.7 ....|--- .... ....|--- .... ....
....|..|--- .... ....|--- .... ....|--- .... ....
 G#4|..|C-4 AF.F ....|R-- .... ....|G#2 2F.7 ....
 G#4|..|G#2 2F.7 ....|--- .... ....|R-- .... ....
 D#4|..|D#2 2F.A ....|--- .... ....|--- .... ....
....|..|--- .... ....|--- .... ....|--- .... ....
 F-3|..|B-8 JF.F ....|F-1 2A.F ....|F-1 2A.F ....
 F-3|..|F-1 2A.F ....|--- .... ....|F-1 2F.7 ....
 D#4|..|D#2 2F.7 ....|--- .... ....|--- .... ....
....|..|--- .... ....|--- .... ....|--- .... ....

[Pattern27]
 D#3|..|C-4 AF.F ....|R-- .... ....|D#1 2A.F ....
 D#3|..|D#1 2A.F ....|--- .... ....|R-- .... ....
....|..|--- .... ....|--- .... ....|--- .... ....
....|..|--- .... ....|--- .... ....|--- .... ....
 F-3|..|B-8 JF.F ....|F-1 2A.F ....|F-1 2A.F ....
 F-3|..|F-1 2A.F ....|--- .... ....|F-1 2A.F ....
 F-3|..|F-1 2A.F ....|--- .... ....|--- .... ....
....|..|--- .... ....|--- .... ....|--- .... ....
 F-4|..|C-4 AF.F ....|R-- .... ....|F-2 2A.F ....
 F-4|..|F-2 2A.F ....|--- .... ....|R-- .... ....
....|..|--- .... ....|--- .... ....|--- .... ....
....|..|--- .... ....|--- .... ....|--- .... ....
 F-3|..|B-8 JF.F ....|F-1 2A.F ....|G#2 2A.F ....
 F-3|..|F-1 2A.F ....|--- .... ....|F-1 2A.F ....
 G#4|..|G#2 2A.F ....|--- .... ....|--- .... ....
....|..|--- .... ....|--- .... ....|--- .... ....
 D#4|..|C-4 AF.F ....|R-- .... ....|D#2 2A.F ....
 D#4|..|D#2 2A.F ....|--- .... ....|R-- .... ....
 F-3|..|F-1 2F.A ....|--- .... ....|--- .... ....
....|..|--- .... ....|--- .... ....|--- .... ....
 F-3|..|B-8 JF.F ....|F-1 2A.F ....|F-2 2A.F ....
 F-3|..|F-1 2A.F ....|--- .... ....|F-1 2A.F ....
 F-4|..|F-2 2A.F ....|--- .... ....|--- .... ....
....|..|--- .... ....|--- .... ....|--- .... ....
 D#4|..|C-4 AF.F ....|R-- .... ....|D#2 2A.F ....
 D#4|..|D#2 2A.F ....|--- .... ....|R-- .... ....
 G#4|..|G#2 2F.A ....|--- .... ....|--- .... ....
....|..|--- .... ....|--- .... ....|--- .... ....
 F-3|..|B-8 JF.F ....|F-1 2A.F ....|F-2 2A.F ....
 F-3|..|F-1 2A.F ....|--- .... ....|F-1 2A.F ....
 F-4|..|F-2 2A.F ....|--- .... ....|--- .... ....
....|..|--- .... ....|--- .... ....|--- .... ....
 G#4|..|C-4 AF.F ....|R-- .... ....|G#2 2A.F ....
 G#4|..|G#2 2A.F ....|--- .... ....|R-- .... ....
 F-4|..|F-2 2F.A ....|--- .... ....|--- .... ....
....|..|--- .... ....|--- .... ....|--- .... ....
 D#4|..|B-8 JF.F ....|F-1 2A.F ....|D#2 2A.F ....
 F-3|..|F-1 2A.F ....|--- .... ....|F-1 2A.F ....
 D#4|..|D#2 2A.F ....|--- .... ....|--- .... ....
....|..|--- .... ....|--- .... ....|--- .... ....
 G#4|..|C-4 AF.F ....|R-- .... ....|G#2 2A.F ....
 G#4|..|G#2 2A.F ....|--- .... ....|R-- .... ....
 F-4|..|F-2 2F.A ....|--- .... ....|--- .... ....
....|..|--- .... ....|--- .... ....|--- .... ....
 D#4|..|B-8 JF.F ....|F-1 2A.F ....|D#2 2A.F ....
 F-3|..|F-1 2A.F ....|--- .... ....|F-1 2A.F ....
 D#4|..|D#2 2A.F ....|--- .... ....|--- .... ....
....|..|--- .... ....|--- .... ....|--- .... ....
 G-4|..|C-4 AF.F ....|R-- .... ....|G-2 2A.F ....
 G-4|..|G-2 2A.F ....|--- .... ....|R-- .... ....
 D#4|..|D#2 2F.A ....|--- .... ....|--- .... ....
....|..|--- .... ....|--- .... ....|--- .... ....
 F-3|..|B-8 JF.F ....|F-1 2A.F ....|F-2 2A.F ....
 F-3|..|F-1 2A.F ....|--- .... ....|F-1 2A.F ....
 F-4|..|F-2 2A.F ....|--- .... ....|--- .... ....
....|..|--- .... ....|--- .... ....|--- .... ....
 G#4|..|C-4 AF.F ....|R-- .... ....|G#2 2F.7 ....
 G#4|..|G#2 2F.7 ....|--- .... ....|R-- .... ....
 D#4|..|D#2 2F.A ....|--- .... ....|--- .... ....
....|..|--- .... ....|--- .... ....|--- .... ....
 F-3|..|B-8 JF.F ....|F-1 2A.F ....|F-1 2A.F ....
 F-3|..|F-1 2A.F ....|--- .... ....|F-1 2F.7 ....
 D#4|..|D#2 2F.7 ....|--- .... ....|--- .... ....
....|..|--- .... ....|--- .... ....|--- .... ....
 D#3|..|C-4 AF.F ....|R-- .... ....|D#1 2A.F ....
 D#3|..|D#1 2A.F ....|--- .... ....|R-- .... ....
 F-4|..|F-2 2F.A ....|--- .... ....|--- .... ....
....|..|--- .... ....|--- .... ....|--- .... ....
 F-3|..|B-8 JF.F ....|G#1 2A.F ....|F-1 2A.F ....
 G#3|..|G#1 2A.F ....|--- .... ....|G#1 2A.F ....
 F-3|..|F-1 2A.F ....|--- .... ....|--- .... ....
....|..|--- .... ....|--- .... ....|--- .... ....
 F-4|..|C-4 AF.F ....|R-- .... ....|F-2 2A.F ....
 F-4|..|F-2 2A.F ....|--- .... ....|R-- .... ....
....|..|--- .... ....|--- .... ....|--- .... ....
....|..|--- .... ....|--- .... ....|--- .... ....
 G#3|..|B-8 JF.F ....|G#1 2A.F ....|G#2 2A.F ....
 G#3|..|G#1 2A.F ....|--- .... ....|G#1 2A.F ....
 G#4|..|G#2 2A.F ....|--- .... ....|--- .... ....
....|..|--- .... ....|--- .... ....|--- .... ....
 D#4|..|C-4 AF.F ....|R-- .... ....|D#2 2A.F ....
 D#4|..|D#2 2A.F ....|--- .... ....|R-- .... ....
 F-3|..|F-1 2F.A ....|--- .... ....|--- .... ....
....|..|--- .... ....|--- .... ....|--- .... ....
 F-4|..|B-8 JF.F ....|G#1 2A.F ....|F-2 2A.F ....
 G#3|..|G#1 2A.F ....|--- .... ....|G#1 2A.F ....
 F-4|..|F-2 2A.F ....|--- .... ....|--- .... ....
....|..|--- .... ....|--- .... ....|--- .... ....
 D#4|..|C-4 AF.F ....|R-- .... ....|D#2 2A.F ....
 D#4|..|D#2 2A.F ....|--- .... ....|R-- .... ....
 G#4|..|G#2 2F.A ....|--- .... ....|--- .... ....
....|..|--- .... ....|--- .... ....|--- .... ....
 F-4|..|B-8 JF.F ....|G#1 2A.F ....|F-2 2A.F ....
 G#3|..|G#1 2A.F ....|--- .... ....|G#1 2A.F ....
 F-4|..|F-2 2A.F ....|--- .... ....|--- .... ....
....|..|--- .... ....|--- .... ....|--- .... ....
 A#3|..|C-4 AF.F ....|R-- .... ....|A#2 2C.F ....
 A#3|..|A#2 2C.F ....|--- .... ....|R-- .... ....
 F-4|..|F-2 2F.A ....|--- .... ....|--- .... ....
....|..|--- .... ....|--- .... ....|--- .... ....
 A#3|..|B-8 JF.F ....|A#1 2A.F ....|A#1 2A.F ....
 A#3|..|A#1 2A.F ....|--- .... ....|A#1 2A.F ....
 A#3|..|A#1 2A.F ....|--- .... ....|--- .... ....
....|..|--- .... ....|--- .... ....|--- .... ....
 A#3|..|C-4 AF.F ....|R-- .... ....|A#2 2C.F ....
 A#3|..|A#2 2C.F ....|--- .... ....|R-- .... ....
 F-4|..|F-2 2F.A ....|--- .... ....|--- .... ....
....|..|--- .... ....|--- .... ....|--- .... ....
 A#3|..|B-8 JF.F ....|A#1 2A.F ....|A#1 2A.F ....
 A#3|..|A#1 2A.F ....|--- .... ....|A#1 2A.F ....
 A#3|..|A#1 2A.F ....|--- .... ....|--- .... ....
....|..|--- .... ....|--- .... ....|--- .... ....
 G#4|..|C-4 AF.F ....|R-- .... ....|G#2 2A.F ....
 G#4|..|G#2 2A.F ....|--- .... ....|R-- .... ....
 A#3|..|A#1 2F.A ....|--- .... ....|--- .... ....
....|..|--- .... ....|--- .... ....|--- .... ....
 A#3|..|B-8 JF.F ....|A#1 2A.F ....|A#1 2A.F ....
 A#3|..|A#1 2A.F ....|--- .... ....|G#1 2F.7 ....
 F-4|..|F-2 2F.7 ....|--- .... ....|--- .... ....
....|..|--- .... ....|--- .... ....|--- .... ....
 A#3|..|C-4 AF.F ....|R-- .... ....|A#2 2F.7 ....
 A#3|..|A#2 2F.7 ....|--- .... ....|R-- .... ....
 A#3|..|A#1 2F.A ....|--- .... ....|--- .... ....
....|..|--- .... ....|--- .... ....|--- .... ....
 A#3|..|B-8 JF.F ....|A#1 2A.F ....|A#1 2A.F ....
 A#3|..|A#1 2A.F ....|--- .... ....|A#1 2F.7 ....
 A#3|..|A#1 2F.7 ....|--- .... ....|--- .... ....
....|..|--- .... ....|--- .... ....|--- .... ....

[Pattern28]
 A#3|..|C-4 AF.F ....|R-- .... ....|A#2 2F.7 ....
 A#3|..|A#2 2F.7 ....|--- .... ....|R-- .... ....
....|..|--- .... ....|--- .... ....|--- .... ....
....|..|--- .... ....|--- .... ....|--- .... ....
 F-3|..|F-1 2A.F ....|F-1 2A.F ....|F-1 2A.F ....
 A#3|..|A#1 2F.7 ....|--- .... ....|A#1 2F.7 ....
 A#3|..|A#1 2F.7 ....|--- .... ....|--- .... ....
....|..|--- .... ....|--- .... ....|--- .... ....
 G#4|..|C-4 AF.F ....|R-- .... ....|G#2 2F.7 ....
 G#4|..|G#2 2F.7 ....|--- .... ....|R-- .... ....
....|..|--- .... ....|--- .... ....|--- .... ....
....|..|--- .... ....|--- .... ....|--- .... ....
 F-3|..|F-1 2A.F ....|F-1 2A.F ....|F-1 2A.F ....
 A#3|..|A#1 2F.7 ....|--- .... ....|--- .... ....
....|..|--- .... ....|--- .... ....|--- .... ....
....|..|--- .... ....|--- .... ....|--- .... ....
....|..|C-4 AF.F ....|R-- .... ....|R-- .... ....
....|..|R-- .... ....|--- .... ....|--- .... ....
....|..|--- .... ....|--- .... ....|--- .... ....
....|..|--- .... ....|--- .... ....|--- .... ....
 F-3|..|F-1 2A.F ....|F-1 2A.F ....|F-1 2A.F ....
 A#3|..|A#1 2F.7 ....|--- .... ....|--- .... ....
....|..|--- .... ....|--- .... ....|--- .... ....
....|..|--- .... ....|--- .... ....|--- .... ....
....|..|C-4 AF.F ....|R-- .... ....|R-- .... ....
....|..|R-- .... ....|--- .... ....|--- .... ....
....|..|--- .... ....|--- .... ....|--- .... ....
....|..|--- .... ....|--- .... ....|--- .... ....
 F-3|..|F-1 2A.F ....|F-1 2A.F ....|F-1 2A.F ....
....|..|R-- .... ....|--- .... ....|--- .... ....
....|..|--- .... ....|--- .... ....|--- .... ....
....|..|--- .... ....|--- .... ....|--- .... ....
....|..|C-4 AF.F ....|R-- .... ....|R-- .... ....
....|..|R-- .... ....|--- .... ....|--- .... ....
....|..|--- .... ....|--- .... ....|--- .... ....
....|..|--- .... ....|--- .... ....|--- .... ....
 G-3|..|G-1 2A.F ....|G-1 2A.F ....|G-1 2A.F ....
....|..|R-- .... ....|--- .... ....|--- .... ....
....|..|--- .... ....|--- .... ....|--- .... ....
....|..|--- .... ....|--- .... ....|--- .... ....
....|..|C-4 AF.F ....|R-- .... ....|R-- .... ....
....|..|R-- .... ....|--- .... ....|--- .... ....
....|..|--- .... ....|--- .... ....|--- .... ....
....|..|--- .... ....|--- .... ....|--- .... ....
 G-3|..|G-1 2A.F ....|G-1 2A.F ....|G-1 2A.F ....
....|..|R-- .... ....|--- .... ....|--- .... ....
....|..|--- .... ....|--- .... ....|--- .... ....
....|..|--- .... ....|--- .... ....|--- .... ....
....|..|C-4 AF.F ....|R-- .... ....|R-- .... ....
....|..|R-- .... ....|--- .... ....|--- .... ....
....|..|--- .... ....|--- .... ....|--- .... ....
....|..|--- .... ....|--- .... ....|--- .... ....
 G-3|..|G-1 2A.F ....|G-1 2A.F ....|G-1 2A.F ....
....|..|R-- .... ....|--- .... ....|--- .... ....
....|..|--- .... ....|--- .... ....|--- .... ....
....|..|--- .... ....|--- .... ....|--- .... ....
....|..|C-4 AF.F ....|R-- .... ....|R-- .... ....
....|..|R-- .... ....|--- .... ....|--- .... ....
....|..|--- .... ....|--- .... ....|--- .... ....
....|..|--- .... ....|--- .... ....|--- .... ....
 G-3|..|G-1 2A.F ....|G-1 2A.F ....|G-1 2A.F ....
....|..|R-- .... ....|--- .... ....|--- .... ....
....|..|--- .... ....|--- .... ....|--- .... ....
....|..|--- .... ....|--- .... ....|--- .... ....
....|..|C-4 AF.F ....|R-- .... ....|R-- .... ....
....|..|R-- .... ....|--- .... ....|--- .... ....
....|..|--- .... ....|--- .... ....|--- .... ....
....|..|--- .... ....|--- .... ....|--- .... ....
 G#3|..|G#1 2A.F ....|G#1 2A.F ....|G#1 2A.F ....
....|..|R-- .... ....|--- .... ....|--- .... ....
....|..|--- .... ....|--- .... ....|--- .... ....
....|..|--- .... ....|--- .... ....|--- .... ....
....|..|C-4 AF.F ....|R-- .... ....|R-- .... ....
....|..|R-- .... ....|--- .... ....|--- .... ....
....|..|--- .... ....|--- .... ....|--- .... ....
....|..|--- .... ....|--- .... ....|--- .... ....
 G#3|..|G#1 2A.F ....|G#1 2A.F ....|G#1 2A.F ....
....|..|R-- .... ....|--- .... ....|--- .... ....
....|..|--- .... ....|--- .... ....|--- .... ....
....|..|--- .... ....|--- .... ....|--- .... ....
....|..|C-4 AF.F ....|R-- .... ....|R-- .... ....
....|..|R-- .... ....|--- .... ....|--- .... ....
....|..|--- .... ....|--- .... ....|--- .... ....
....|..|--- .... ....|--- .... ....|--- .... ....
 G#3|..|G#1 2A.F ....|G#1 2A.F ....|G#1 2A.F ....
....|..|R-- .... ....|--- .... ....|--- .... ....
....|..|--- .... ....|--- .... ....|--- .... ....
....|..|--- .... ....|--- .... ....|--- .... ....
....|..|C-4 AF.F ....|R-- .... ....|R-- .... ....
....|..|R-- .... ....|--- .... ....|--- .... ....
....|..|--- .... ....|--- .... ....|--- .... ....
....|..|--- .... ....|--- .... ....|--- .... ....
 G#3|..|G#1 2A.F ....|G#1 2A.F ....|G#1 2A.F ....
....|..|R-- .... ....|--- .... ....|--- .... ....
....|..|--- .... ....|--- .... ....|--- .... ....
....|..|--- .... ....|--- .... ....|--- .... ....
....|..|C-4 AF.F ....|R-- .... ....|R-- .... ....
....|..|R-- .... ....|--- .... ....|--- .... ....
....|..|--- .... ....|--- .... ....|--- .... ....
....|..|--- .... ....|--- .... ....|--- .... ....
 A#3|..|A#1 2A.F ....|A#1 2A.F ....|A#1 2A.F ....
....|..|R-- .... ....|--- .... ....|--- .... ....
....|..|--- .... ....|--- .... ....|--- .... ....
....|..|--- .... ....|--- .... ....|--- .... ....
....|..|C-4 AF.F ....|R-- .... ....|R-- .... ....
....|..|R-- .... ....|--- .... ....|--- .... ....
....|..|--- .... ....|--- .... ....|--- .... ....
....|..|--- .... ....|--- .... ....|--- .... ....
 A#3|..|A#1 2A.F ....|A#1 2A.F ....|A#1 2A.F ....
....|..|R-- .... ....|--- .... ....|--- .... ....
....|..|--- .... ....|--- .... ....|--- .... ....
....|..|--- .... ....|--- .... ....|--- .... ....
....|..|C-4 AF.F ....|R-- .... ....|R-- .... ....
....|..|R-- .... ....|--- .... ....|--- .... ....
....|..|--- .... ....|--- .... ....|--- .... ....
....|..|--- .... ....|--- .... ....|--- .... ....
 A#3|..|A#1 2A.F ....|A#1 2A.F ....|A#1 2A.F ....
....|..|R-- .... ....|--- .... ....|--- .... ....
....|..|--- .... ....|--- .... ....|--- .... ....
....|..|--- .... ....|--- .... ....|--- .... ....
....|..|C-4 AF.F ....|R-- .... ....|R-- .... ....
....|..|R-- .... ....|--- .... ....|--- .... ....
....|..|--- .... ....|--- .... ....|--- .... ....
....|..|--- .... ....|--- .... ....|--- .... ....
 A#3|..|A#1 2A.F ....|A#1 2A.F ....|A#1 2A.F ....
....|..|R-- .... ....|--- .... ....|--- .... ....
....|..|--- .... ....|--- .... ....|--- .... ....
....|..|--- .... ....|--- .... ....|--- .... ....

[Pattern29]
....|..|C-4 AF.F ....|R-- .... ....|R-- .... ....
....|..|R-- .... ....|--- .... ....|--- .... ....
....|..|--- .... ....|--- .... ....|--- .... ....
....|..|--- .... ....|--- .... ....|--- .... ....
 F-3|..|F-1 2A.F ....|F-1 2A.F ....|F-1 2A.F ....
....|..|R-- .... ....|--- .... ....|--- .... ....
....|..|--- .... ....|--- .... ....|--- .... ....
....|..|--- .... ....|--- .... ....|--- .... ....
....|..|C-4 AF.F ....|R-- .... ....|R-- .... ....
....|..|R-- .... ....|--- .... ....|--- .... ....
....|..|--- .... ....|--- .... ....|--- .... ....
....|..|--- .... ....|--- .... ....|--- .... ....
 F-3|..|F-1 2A.F ....|F-1 2A.F ....|F-1 2A.F ....
....|..|R-- .... ....|--- .... ....|--- .... ....
....|..|--- .... ....|--- .... ....|--- .... ....
....|..|--- .... ....|--- .... ....|--- .... ....
....|..|C-4 AF.F ....|R-- .... ....|R-- .... ....
....|..|R-- .... ....|--- .... ....|--- .... ....
....|..|--- .... ....|--- .... ....|--- .... ....
....|..|--- .... ....|--- .... ....|--- .... ....
 F-3|..|F-1 2A.F ....|F-1 2A.F ....|F-1 2A.F ....
....|..|R-- .... ....|--- .... ....|--- .... ....
....|..|--- .... ....|--- .... ....|--- .... ....
....|..|--- .... ....|--- .... ....|--- .... ....
....|..|C-4 AF.F ....|R-- .... ....|R-- .... ....
....|..|R-- .... ....|--- .... ....|--- .... ....
....|..|--- .... ....|--- .... ....|--- .... ....
....|..|--- .... ....|--- .... ....|--- .... ....
 F-3|..|F-1 2A.F ....|F-1 2A.F ....|F-1 2A.F ....
....|..|R-- .... ....|--- .... ....|--- .... ....
....|..|--- .... ....|--- .... ....|--- .... ....
....|..|--- .... ....|--- .... ....|--- .... ....
....|..|C-4 AF.F ....|R-- .... ....|R-- .... ....
....|..|R-- .... ....|--- .... ....|--- .... ....
....|..|--- .... ....|--- .... ....|--- .... ....
....|..|--- .... ....|--- .... ....|--- .... ....
 G-3|..|G-1 2A.F ....|G-1 2A.F ....|G-1 2A.F ....
....|..|R-- .... ....|--- .... ....|--- .... ....
....|..|--- .... ....|--- .... ....|--- .... ....
....|..|--- .... ....|--- .... ....|--- .... ....
....|..|C-4 AF.F ....|R-- .... ....|R-- .... ....
....|..|R-- .... ....|--- .... ....|--- .... ....
....|..|--- .... ....|--- .... ....|--- .... ....
....|..|--- .... ....|--- .... ....|--- .... ....
 G-3|..|G-1 2A.F ....|G-1 2A.F ....|G-1 2A.F ....
....|..|R-- .... ....|--- .... ....|--- .... ....
....|..|--- .... ....|--- .... ....|--- .... ....
....|..|--- .... ....|--- .... ....|--- .... ....
....|..|C-4 AF.F ....|R-- .... ....|R-- .... ....
....|..|R-- .... ....|--- .... ....|--- .... ....
....|..|--- .... ....|--- .... ....|--- .... ....
....|..|--- .... ....|--- .... ....|--- .... ....
 G-3|..|G-1 2A.F ....|G-1 2A.F ....|G-1 2A.F ....
....|..|R-- .... ....|--- .... ....|--- .... ....
....|..|--- .... ....|--- .... ....|--- .... ....
....|..|--- .... ....|--- .... ....|--- .... ....
....|..|C-4 AF.F ....|R-- .... ....|R-- .... ....
....|..|R-- .... ....|--- .... ....|--- .... ....
....|..|--- .... ....|--- .... ....|--- .... ....
....|..|--- .... ....|--- .... ....|--- .... ....
 G-3|..|G-1 2A.F ....|G-1 2A.F ....|G-1 2A.F ....
....|..|R-- .... ....|--- .... ....|--- .... ....
....|..|--- .... ....|--- .... ....|--- .... ....
....|..|--- .... ....|--- .... ....|--- .... ....
....|..|C-4 AF.F ....|R-- .... ....|R-- .... ....
....|..|R-- .... ....|--- .... ....|--- .... ....
....|..|--- .... ....|--- .... ....|--- .... ....
....|..|--- .... ....|--- .... ....|--- .... ....
 G#3|..|G#1 2A.F ....|G#1 2A.F ....|G#1 2A.F ....
....|..|R-- .... ....|--- .... ....|--- .... ....
....|..|--- .... ....|--- .... ....|--- .... ....
....|..|--- .... ....|--- .... ....|--- .... ....
....|..|C-4 AF.F ....|R-- .... ....|R-- .... ....
....|..|R-- .... ....|--- .... ....|--- .... ....
....|..|--- .... ....|--- .... ....|--- .... ....
....|..|--- .... ....|--- .... ....|--- .... ....
 G#3|..|G#1 2A.F ....|G#1 2A.F ....|G#1 2A.F ....
....|..|R-- .... ....|--- .... ....|--- .... ....
....|..|--- .... ....|--- .... ....|--- .... ....
....|..|--- .... ....|--- .... ....|--- .... ....
....|..|C-4 AF.F ....|R-- .... ....|R-- .... ....
....|..|R-- .... ....|--- .... ....|--- .... ....
....|..|--- .... ....|--- .... ....|--- .... ....
....|..|--- .... ....|--- .... ....|--- .... ....
 G#3|..|G#1 2A.F ....|G#1 2A.F ....|G#1 2A.F ....
....|..|R-- .... ....|--- .... ....|--- .... ....
....|..|--- .... ....|--- .... ....|--- .... ....
....|..|--- .... ....|--- .... ....|--- .... ....
....|..|C-4 AF.F ....|R-- .... ....|R-- .... ....
....|..|R-- .... ....|--- .... ....|--- .... ....
....|..|--- .... ....|--- .... ....|--- .... ....
....|..|--- .... ....|--- .... ....|--- .... ....
 G#3|..|C-4 AF.F ....|G#1 2A.F ....|G#1 2A.F ....
....|..|C-4 AF.F ....|--- .... ....|--- .... ....
 G#3|..|G#1 2A.F ....|--- .... ....|--- .... ....
....|..|C-4 AF.F ....|--- .... ....|--- .... ....
....|..|C-4 AF.F ....|R-- .... ....|R-- .... ....
....|..|R-- .... ....|--- .... ....|--- .... ....
....|..|--- .... ....|--- .... ....|--- .... ....
....|..|--- .... ....|--- .... ....|--- .... ....
 A#3|..|C-4 AF.F ....|A#1 2A.F ....|A#1 2A.F ....
....|..|C-4 AF.F ....|--- .... ....|--- .... ....
 A#3|..|A#1 2A.F ....|--- .... ....|--- .... ....
....|..|C-4 AF.F ....|--- .... ....|--- .... ....
....|..|C-4 AF.F ....|R-- .... ....|R-- .... ....
....|..|R-- .... ....|--- .... ....|--- .... ....
 G#3|..|G#1 2F.A ....|--- .... ....|--- .... ....
....|..|C-4 AF.A ....|--- .... ....|--- .... ....
 A#3|..|C-4 AF.F ....|A#1 2A.F ....|A#1 2A.F ....
....|..|C-4 AF.F ....|--- .... ....|--- .... ....
 A#3|..|A#1 2A.F ....|--- .... ....|--- .... ....
....|..|C-4 AF.F ....|--- .... ....|--- .... ....
....|..|C-4 AF.F ....|R-- .... ....|R-- .... ....
....|..|R-- .... ....|--- .... ....|--- .... ....
 A#3|..|A#1 2F.A ....|--- .... ....|--- .... ....
....|..|C-4 AF.A ....|--- .... ....|--- .... ....
 G#3|..|C-4 LF.F ....|G#1 2F.7 ....|G#1 2F.7 ....
....|..|C-4 LF.F ....|--- .... ....|--- .... ....
 G#3|..|G#1 2F.7 ....|--- .... ....|--- .... ....
....|..|C-4 LF.F ....|--- .... ....|--- .... ....
....|..|C-4 AF.F ....|R-- .... ....|R-- .... ....
....|..|R-- .... ....|--- .... ....|--- .... ....
 A#3|..|A#1 2F.A ....|--- .... ....|--- .... ....
....|..|C-4 AF.A ....|--- .... ....|--- .... ....
 A#3|..|C-4 LF.F ....|A#1 2F.7 ....|A#1 2F.7 ....
....|..|C-4 AF.7 ....|--- .... ....|--- .... ....
 A#3|..|A#1 2F.7 ....|--- .... ....|--- .... ....
....|..|C-4 AF.7 ....|--- .... ....|--- .... ....

[Pattern30]
....|..|C-4 AF.F ....|F-4 2F.F ....|R-- .... ....
....|..|R-- .... ....|--- .... ....|--- .... ....
....|..|--- .... ....|--- .... ....|--- .... ....
....|..|C-4 LF.A ....|--- .... ....|--- .... ....
 F-3|..|B-8 JF.F ....|G#4 2F.F ....|F-1 2A.F ....
 F-3|..|F-1 2A.F ....|F-1 2A.F ....|--- .... ....
 A#3|..|A#1 2F.7 ....|--- .... ....|--- .... ....
....|..|C-4 AF.7 ....|--- .... ....|--- .... ....
....|..|C-4 AF.F ....|C-5 2F.F ....|R-- .... ....
....|..|R-- .... ....|R-- .... ....|--- .... ....
....|..|--- .... ....|--- .... ....|--- .... ....
....|..|--- .... ....|--- .... ....|--- .... ....
 F-3|..|B-8 JF.F ....|F-5 2F.F ....|F-1 2A.F ....
 F-3|..|F-1 2A.F ....|F-1 2A.F ....|--- .... ....
....|..|--- .... ....|--- .... ....|--- .... ....
....|..|C-4 LF.7 ....|--- .... ....|--- .... ....
....|..|C-4 AF.F ....|F-4 2F.F ....|R-- .... ....
....|..|R-- .... ....|R-- .... ....|--- .... ....
....|..|--- .... ....|--- .... ....|--- .... ....
....|..|--- .... ....|--- .... ....|--- .... ....
 F-3|..|B-8 JF.F ....|F-5 2F.F ....|F-1 2A.F ....
 F-3|..|F-1 2A.F ....|F-1 2A.F ....|--- .... ....
....|..|--- .... ....|--- .... ....|--- .... ....
....|..|--- .... ....|--- .... ....|--- .... ....
....|..|C-4 AF.F ....|F-4 2F.F ....|R-- .... ....
....|..|R-- .... ....|R-- .... ....|--- .... ....
....|..|--- .... ....|--- .... ....|--- .... ....
....|..|--- .... ....|--- .... ....|--- .... ....
 F-3|..|B-8 JF.F ....|G#4 2F.F ....|F-1 2A.F ....
 F-3|..|F-1 2A.F ....|F-1 2A.F ....|--- .... ....
....|..|--- .... ....|--- .... ....|--- .... ....
....|..|--- .... ....|--- .... ....|--- .... ....
....|..|C-4 AF.F ....|G-4 2F.F ....|R-- .... ....
....|..|R-- .... ....|R-- .... ....|--- .... ....
....|..|--- .... ....|--- .... ....|--- .... ....
....|..|--- .... ....|--- .... ....|--- .... ....
 G-3|..|B-8 JF.F ....|B-4 2F.F ....|G-1 2A.F ....
 G-3|..|G-1 2A.F ....|G-1 2A.F ....|--- .... ....
....|..|--- .... ....|--- .... ....|--- .... ....
....|..|--- .... ....|--- .... ....|--- .... ....
....|..|C-4 AF.F ....|D-5 2F.F ....|R-- .... ....
....|..|R-- .... ....|R-- .... ....|--- .... ....
....|..|--- .... ....|--- .... ....|--- .... ....
....|..|--- .... ....|--- .... ....|--- .... ....
 G-3|..|B-8 JF.F ....|G-4 2F.F ....|G-1 2A.F ....
 G-3|..|G-1 2A.F ....|G-1 2A.F ....|--- .... ....
....|..|--- .... ....|--- .... ....|--- .... ....
....|..|--- .... ....|--- .... ....|--- .... ....
....|..|C-4 AF.F ....|F-5 2F.F ....|R-- .... ....
....|..|R-- .... ....|R-- .... ....|--- .... ....
....|..|--- .... ....|--- .... ....|--- .... ....
....|..|--- .... ....|--- .... ....|--- .... ....
 G-3|..|B-8 JF.F ....|G-1 2A.F ....|G-1 2A.F ....
 F-3|..|G-1 2A.F ....|F-1 2F.7 ....|--- .... ....
....|..|--- .... ....|--- .... ....|--- .... ....
....|..|--- .... ....|--- .... ....|--- .... ....
....|..|C-4 AF.F ....|G-4 2F.7 ....|R-- .... ....
....|..|R-- .... ....|R-- .... ....|--- .... ....
....|..|--- .... ....|--- .... ....|--- .... ....
....|..|--- .... ....|--- .... ....|--- .... ....
 G-3|..|B-8 JF.F ....|G-1 2A.F ....|G-1 2A.F ....
 G-3|..|G-1 2A.F ....|G-1 2F.7 ....|--- .... ....
....|..|--- .... ....|--- .... ....|--- .... ....
....|..|--- .... ....|--- .... ....|--- .... ....
....|..|C-4 AF.F ....|A#4 2F.F ....|R-- .... ....
....|..|R-- .... ....|R-- .... ....|--- .... ....
....|..|--- .... ....|--- .... ....|--- .... ....
....|..|--- .... ....|--- .... ....|--- .... ....
 G#3|..|B-8 JF.F ....|C-5 2F.F ....|G#1 2A.F ....
 G#3|..|G#1 2A.F ....|G#1 2A.F ....|--- .... ....
....|..|--- .... ....|--- .... ....|--- .... ....
....|..|--- .... ....|--- .... ....|--- .... ....
....|..|C-4 AF.F ....|G#4 2F.F ....|R-- .... ....
....|..|R-- .... ....|R-- .... ....|--- .... ....
....|..|--- .... ....|--- .... ....|--- .... ....
....|..|--- .... ....|--- .... ....|--- .... ....
 G#3|..|B-8 JF.F ....|F-5 2F.F ....|G#1 2A.F ....
 G#3|..|G#1 2A.F ....|G#1 2A.F ....|--- .... ....
....|..|--- .... ....|--- .... ....|--- .... ....
....|..|--- .... ....|--- .... ....|--- .... ....
....|..|C-4 AF.F ....|G#4 2F.F ....|R-- .... ....
....|..|R-- .... ....|R-- .... ....|--- .... ....
....|..|--- .... ....|--- .... ....|--- .... ....
....|..|--- .... ....|--- .... ....|--- .... ....
 G#3|..|B-8 JF.F ....|C-5 2F.F ....|G#1 2A.F ....
 G#3|..|G#1 2A.F ....|G#1 2A.F ....|--- .... ....
....|..|--- .... ....|--- .... ....|--- .... ....
....|..|--- .... ....|--- .... ....|--- .... ....
....|..|C-4 AF.F ....|G#4 2F.F ....|R-- .... ....
....|..|R-- .... ....|R-- .... ....|--- .... ....
....|..|--- .... ....|--- .... ....|--- .... ....
....|..|--- .... ....|--- .... ....|--- .... ....
 G#3|..|B-8 JF.F ....|C-5 2F.F ....|G#1 2A.F ....
 G#3|..|G#1 2A.F ....|G#1 2A.F ....|--- .... ....
....|..|--- .... ....|--- .... ....|--- .... ....
....|..|--- .... ....|--- .... ....|--- .... ....
....|..|C-4 AF.F ....|A#5 2F.F ....|R-- .... ....
....|..|R-- .... ....|R-- .... ....|--- .... ....
....|..|--- .... ....|--- .... ....|--- .... ....
....|..|--- .... ....|--- .... ....|--- .... ....
 A#3|..|B-8 JF.F ....|A#4 2F.F ....|A#1 2A.F ....
 A#3|..|A#1 2A.F ....|A#1 2A.F ....|--- .... ....
....|..|--- .... ....|--- .... ....|--- .... ....
....|..|--- .... ....|--- .... ....|--- .... ....
....|..|C-4 AF.F ....|F-5 2F.F ....|R-- .... ....
....|..|R-- .... ....|R-- .... ....|--- .... ....
....|..|--- .... ....|--- .... ....|--- .... ....
....|..|--- .... ....|--- .... ....|--- .... ....
 A#3|..|B-8 JF.F ....|A#4 2F.F ....|A#1 2A.F ....
 A#3|..|A#1 2A.F ....|A#1 2A.F ....|--- .... ....
....|..|--- .... ....|--- .... ....|--- .... ....
....|..|--- .... ....|--- .... ....|--- .... ....
....|..|C-4 AF.F ....|A#5 2F.F ....|R-- .... ....
....|..|R-- .... ....|R-- .... ....|--- .... ....
....|..|--- .... ....|--- .... ....|--- .... ....
....|..|--- .... ....|--- .... ....|--- .... ....
 A#3|..|B-8 JF.F ....|A#1 2A.F ....|A#1 2A.F ....
 A#3|..|A#1 2A.F ....|G#1 2F.7 ....|--- .... ....
....|..|--- .... ....|--- .... ....|--- .... ....
....|..|--- .... ....|--- .... ....|--- .... ....
....|..|C-4 AF.F ....|F-5 2F.F ....|R-- .... ....
....|..|R-- .... ....|R-- .... ....|--- .... ....
....|..|--- .... ....|--- .... ....|--- .... ....
....|..|--- .... ....|--- .... ....|--- .... ....
 A#3|..|B-8 JF.F ....|C#5 2F.F ....|A#1 2A.F ....
 A#3|..|A#1 2A.F ....|A#1 2A.F ....|--- .... ....
....|..|--- .... ....|--- .... ....|--- .... ....
....|..|--- .... ....|--- .... ....|--- .... ....

[Pattern31]
....|..|C-4 AF.F ....|F-4 2F.F ....|R-- .... ....
....|..|R-- .... ....|R-- .... ....|--- .... ....
....|..|--- .... ....|--- .... ....|--- .... ....
....|..|--- .... ....|--- .... ....|--- .... ....
 F-3|..|B-8 JF.F ....|G#4 2F.F ....|F-1 2A.F ....
 F-3|..|F-1 2A.F ....|F-1 2A.F ....|--- .... ....
....|..|--- .... ....|--- .... ....|--- .... ....
....|..|--- .... ....|--- .... ....|--- .... ....
....|..|C-4 AF.F ....|C-5 2F.F ....|R-- .... ....
....|..|R-- .... ....|R-- .... ....|--- .... ....
....|..|--- .... ....|--- .... ....|--- .... ....
....|..|--- .... ....|--- .... ....|--- .... ....
 F-3|..|B-8 JF.F ....|F-5 2F.F ....|F-1 2A.F ....
 F-3|..|F-1 2A.F ....|F-1 2A.F ....|--- .... ....
....|..|--- .... ....|--- .... ....|--- .... ....
....|..|--- .... ....|--- .... ....|--- .... ....
....|..|C-4 AF.F ....|C-5 2F.F ....|R-- .... ....
....|..|R-- .... ....|R-- .... ....|--- .... ....
....|..|--- .... ....|--- .... ....|--- .... ....
....|..|--- .... ....|--- .... ....|--- .... ....
 F-3|..|B-8 JF.F ....|F-5 2F.F ....|F-1 2A.F ....
 F-3|..|F-1 2A.F ....|F-1 2A.F ....|--- .... ....
....|..|--- .... ....|--- .... ....|--- .... ....
....|..|--- .... ....|--- .... ....|--- .... ....
....|..|C-4 AF.F ....|F-4 2F.F ....|R-- .... ....
....|..|R-- .... ....|R-- .... ....|--- .... ....
....|..|--- .... ....|--- .... ....|--- .... ....
....|..|--- .... ....|--- .... ....|--- .... ....
 F-3|..|B-8 JF.F ....|G#4 2F.F ....|F-1 2A.F ....
 F-3|..|F-1 2A.F ....|F-1 2A.F ....|--- .... ....
....|..|--- .... ....|--- .... ....|--- .... ....
....|..|--- .... ....|--- .... ....|--- .... ....
....|..|C-4 AF.F ....|G-4 2F.F ....|R-- .... ....
....|..|R-- .... ....|R-- .... ....|--- .... ....
....|..|--- .... ....|--- .... ....|--- .... ....
....|..|--- .... ....|--- .... ....|--- .... ....
 G-3|..|B-8 JF.F ....|B-4 2F.F ....|G-1 2A.F ....
 G-3|..|G-1 2A.F ....|G-1 2A.F ....|--- .... ....
....|..|--- .... ....|--- .... ....|--- .... ....
....|..|--- .... ....|--- .... ....|--- .... ....
....|..|C-4 AF.F ....|D-5 2F.F ....|R-- .... ....
....|..|R-- .... ....|R-- .... ....|--- .... ....
....|..|--- .... ....|--- .... ....|--- .... ....
....|..|--- .... ....|--- .... ....|--- .... ....
 G-3|..|B-8 JF.F ....|G-4 2F.F ....|G-1 2A.F ....
 G-3|..|G-1 2A.F ....|G-1 2A.F ....|--- .... ....
....|..|--- .... ....|--- .... ....|--- .... ....
....|..|--- .... ....|--- .... ....|--- .... ....
....|..|C-4 AF.F ....|F-5 2F.F ....|R-- .... ....
....|..|R-- .... ....|R-- .... ....|--- .... ....
....|..|--- .... ....|--- .... ....|--- .... ....
....|..|--- .... ....|--- .... ....|--- .... ....
 G-3|..|B-8 JF.F ....|G-1 2A.F ....|G-1 2A.F ....
 F-3|..|G-1 2A.F ....|F-1 2F.7 ....|--- .... ....
....|..|--- .... ....|--- .... ....|--- .... ....
....|..|--- .... ....|--- .... ....|--- .... ....
....|..|C-4 AF.F ....|G-4 2F.7 ....|R-- .... ....
....|..|R-- .... ....|R-- .... ....|--- .... ....
....|..|--- .... ....|--- .... ....|--- .... ....
....|..|--- .... ....|--- .... ....|--- .... ....
 G-3|..|B-8 JF.F ....|G-1 2A.F ....|G-1 2A.F ....
 G-3|..|G-1 2A.F ....|G-1 2F.7 ....|--- .... ....
....|..|--- .... ....|--- .... ....|--- .... ....
....|..|--- .... ....|--- .... ....|--- .... ....
....|..|C-4 AF.F ....|F-4 2F.F ....|R-- .... ....
....|..|R-- .... ....|R-- .... ....|--- .... ....
....|..|--- .... ....|--- .... ....|--- .... ....
....|..|--- .... ....|--- .... ....|--- .... ....
 G#3|..|B-8 JF.F ....|G#4 2F.F ....|G#1 2A.F ....
 G#3|..|G#1 2A.F ....|G#1 2A.F ....|--- .... ....
....|..|--- .... ....|--- .... ....|--- .... ....
....|..|--- .... ....|--- .... ....|--- .... ....
....|..|C-4 AF.F ....|C-5 2F.F ....|R-- .... ....
....|..|R-- .... ....|R-- .... ....|--- .... ....
....|..|--- .... ....|--- .... ....|--- .... ....
....|..|--- .... ....|--- .... ....|--- .... ....
 G#3|..|B-8 JF.F ....|F-5 2F.F ....|G#1 2A.F ....
 G#3|..|G#1 2A.F ....|G#1 2A.F ....|--- .... ....
....|..|--- .... ....|--- .... ....|--- .... ....
....|..|--- .... ....|--- .... ....|--- .... ....
....|..|C-4 AF.F ....|R-- .... ....|R-- .... ....
 G#3|..|R-- .... ....|G#1 2F.A ....|--- .... ....
....|..|--- .... ....|--- .... ....|--- .... ....
....|..|--- .... ....|--- .... ....|--- .... ....
 G#3|..|B-8 JF.F ....|F-4 2F.F ....|G#1 2A.F ....
 G#3|..|G#1 2A.F ....|G#1 2A.F ....|--- .... ....
....|..|--- .... ....|--- .... ....|--- .... ....
....|..|--- .... ....|--- .... ....|--- .... ....
....|..|C-4 AF.F ....|C-5 2F.F ....|R-- .... ....
....|..|R-- .... ....|R-- .... ....|--- .... ....
....|..|--- .... ....|--- .... ....|--- .... ....
....|..|--- .... ....|--- .... ....|--- .... ....
 G#3|..|B-8 JF.F ....|F-5 2F.F ....|G#1 2A.F ....
 G#3|..|G#1 2A.F ....|G#1 2A.F ....|--- .... ....
....|..|--- .... ....|--- .... ....|--- .... ....
....|..|--- .... ....|--- .... ....|--- .... ....
....|..|C-4 AF.F ....|A#5 2F.F ....|R-- .... ....
....|..|R-- .... ....|R-- .... ....|--- .... ....
....|..|--- .... ....|--- .... ....|--- .... ....
....|..|--- .... ....|--- .... ....|--- .... ....
 A#3|..|B-8 JF.F ....|A#1 2A.F ....|A#1 2A.F ....
 A#3|..|A#1 2A.F ....|G#1 2F.7 ....|--- .... ....
....|..|--- .... ....|--- .... ....|--- .... ....
....|..|--- .... ....|--- .... ....|--- .... ....
....|..|C-4 AF.F ....|A#5 2F.F ....|R-- .... ....
....|..|R-- .... ....|R-- .... ....|--- .... ....
....|..|--- .... ....|--- .... ....|--- .... ....
....|..|--- .... ....|--- .... ....|--- .... ....
 A#3|..|B-8 JF.F ....|A#1 2A.F ....|A#1 2A.F ....
 A#3|..|A#1 2A.F ....|G#1 2F.7 ....|--- .... ....
....|..|--- .... ....|--- .... ....|--- .... ....
....|..|--- .... ....|--- .... ....|--- .... ....
....|..|C-4 AF.F ....|C#6 2F.F ....|R-- .... ....
....|..|R-- .... ....|R-- .... ....|--- .... ....
....|..|--- .... ....|--- .... ....|--- .... ....
....|..|--- .... ....|--- .... ....|--- .... ....
 A#3|..|B-8 JF.F ....|A#1 2A.F ....|A#1 2A.F ....
 A#3|..|A#1 2A.F ....|G#1 2F.7 ....|--- .... ....
....|..|--- .... ....|--- .... ....|--- .... ....
....|..|--- .... ....|--- .... ....|--- .... ....
....|..|C-4 AF.F ....|C-6 2F.F ....|R-- .... ....
....|..|R-- .... ....|R-- .... ....|--- .... ....
....|..|--- .... ....|--- .... ....|--- .... ....
....|..|--- .... ....|--- .... ....|--- .... ....
 A#3|..|B-8 JF.F ....|A#1 2A.F ....|A#1 2A.F ....
 A#3|..|A#1 2A.F ....|R-- .... ....|--- .... ....
....|..|--- .... ....|--- .... ....|--- .... ....
....|..|--- .... ....|--- .... ....|--- .... ....

[Pattern32]
 F-4|..|C-4 LF.F ....|A#5 2F.7 ....|F-2 2A.F ....
....|..|R-- .... ....|R-- .... ....|R-- .... ....
....|..|--- .... ....|--- .... ....|--- .... ....
....|..|--- .... ....|--- .... ....|--- .... ....
 A#3|..|B-8 JF.7 ....|A#1 2F.7 ....|C-3 2C.F ....
 A#3|..|A#1 2F.7 ....|R-- .... ....|--- .... ....
....|..|--- .... ....|--- .... ....|--- .... ....
....|..|--- .... ....|--- .... ....|--- .... ....
 F-4|..|C-4 AF.7 ....|C#6 2F.7 ....|F-3 2C.F ....
....|..|R-- .... ....|R-- .... ....|--- .... ....
....|..|--- .... ....|--- .... ....|--- .... ....
....|..|--- .... ....|--- .... ....|--- .... ....
 A#3|..|B-8 JF.7 ....|A#1 2F.7 ....|G-3 2C.F ....
 A#3|..|A#1 2F.7 ....|--- .... ....|R-- .... ....
....|..|--- .... ....|--- .... ....|--- .... ....
....|..|--- .... ....|--- .... ....|--- .... ....
 G#4|..|C-4 AF.7 ....|C-6 2F.7 ....|G#3 2C.F ....
....|..|R-- .... ....|R-- .... ....|--- .... ....
....|..|--- .... ....|--- .... ....|--- .... ....
....|..|--- .... ....|--- .... ....|--- .... ....
 A#3|..|B-8 JF.7 ....|A#1 2F.7 ....|C-4 2C.F ....
 A#3|..|A#1 2F.7 ....|--- .... ....|--- .... ....
....|..|--- .... ....|--- .... ....|--- .... ....
....|..|--- .... ....|--- .... ....|--- .... ....
 C-4|..|C-4 LF.7 ....|R-- .... ....|C-3 2C.F ....
....|..|R-- .... ....|--- .... ....|R-- .... ....
....|..|--- .... ....|--- .... ....|--- .... ....
....|..|--- .... ....|--- .... ....|--- .... ....
 F-4|..|--- .... ....|--- .... ....|F-3 2C.F ....
....|..|--- .... ....|--- .... ....|--- .... ....
....|..|--- .... ....|--- .... ....|--- .... ....
....|..|--- .... ....|--- .... ....|--- .... ....
 F-4|..|R-- .... ....|--- .... ....|F-2 2A.F ....
....|..|--- .... ....|--- .... ....|--- .... ....
....|..|--- .... ....|--- .... ....|--- .... ....
....|..|--- .... ....|--- .... ....|--- .... ....
 C-4|..|--- .... ....|--- .... ....|C-3 2C.F ....
....|..|--- .... ....|--- .... ....|--- .... ....
....|..|--- .... ....|--- .... ....|--- .... ....
....|..|--- .... ....|--- .... ....|--- .... ....
 F-4|..|--- .... ....|--- .... ....|F-3 2C.F ....
....|..|--- .... ....|--- .... ....|--- .... ....
....|..|--- .... ....|--- .... ....|--- .... ....
....|..|--- .... ....|--- .... ....|--- .... ....
 G-4|..|R-- .... ....|--- .... ....|G-3 2C.F ....
....|..|--- .... ....|--- .... ....|--- .... ....
....|..|--- .... ....|--- .... ....|--- .... ....
....|..|--- .... ....|--- .... ....|--- .... ....
 G#4|..|--- .... ....|--- .... ....|G#3 2C.F ....
....|..|--- .... ....|--- .... ....|--- .... ....
....|..|--- .... ....|--- .... ....|--- .... ....
....|..|--- .... ....|--- .... ....|--- .... ....
 C-4|..|--- .... ....|--- .... ....|C-4 2C.F ....
....|..|--- .... ....|--- .... ....|--- .... ....
....|..|--- .... ....|--- .... ....|--- .... ....
....|..|--- .... ....|--- .... ....|--- .... ....
 C-4|..|R-- .... ....|--- .... ....|C-3 2C.F ....
....|..|--- .... ....|--- .... ....|--- .... ....
....|..|--- .... ....|--- .... ....|--- .... ....
....|..|--- .... ....|--- .... ....|--- .... ....
 F-4|..|--- .... ....|--- .... ....|F-3 2C.F ....
....|..|--- .... ....|--- .... ....|--- .... ....
....|..|--- .... ....|--- .... ....|--- .... ....
....|..|--- .... ....|--- .... ....|--- .... ....
 G#4|..|--- .... ....|--- .... ....|G#2 2A.F ....
....|..|--- .... ....|--- .... ....|--- .... ....
....|..|--- .... ....|--- .... ....|--- .... ....
....|..|--- .... ....|--- .... ....|--- .... ....
 C-4|..|--- .... ....|--- .... ....|C-3 2C.F ....
....|..|--- .... ....|--- .... ....|--- .... ....
....|..|--- .... ....|--- .... ....|--- .... ....
....|..|--- .... ....|--- .... ....|--- .... ....
 D#4|..|--- .... ....|--- .... ....|D#3 2C.F ....
....|..|--- .... ....|--- .... ....|--- .... ....
....|..|--- .... ....|--- .... ....|--- .... ....
....|..|--- .... ....|--- .... ....|--- .... ....
 G#4|..|--- .... ....|--- .... ....|G#3 2C.F ....
....|..|--- .... ....|--- .... ....|--- .... ....
....|..|--- .... ....|--- .... ....|--- .... ....
....|..|--- .... ....|--- .... ....|--- .... ....
 C-4|..|--- .... ....|--- .... ....|C-3 2F.7 ....
....|..|--- .... ....|--- .... ....|--- .... ....
....|..|--- .... ....|--- .... ....|--- .... ....
....|..|--- .... ....|--- .... ....|--- .... ....
 F-4|..|--- .... ....|--- .... ....|F-3 2C.F ....
....|..|--- .... ....|--- .... ....|--- .... ....
....|..|--- .... ....|--- .... ....|--- .... ....
....|..|--- .... ....|--- .... ....|--- .... ....
 G-4|..|--- .... ....|--- .... ....|G-3 2C.F ....
....|..|--- .... ....|--- .... ....|--- .... ....
....|..|--- .... ....|--- .... ....|--- .... ....
....|..|--- .... ....|--- .... ....|--- .... ....
 C-4|..|--- .... ....|--- .... ....|C-3 2F.7 ....
....|..|--- .... ....|--- .... ....|--- .... ....
....|..|--- .... ....|--- .... ....|--- .... ....
....|..|--- .... ....|--- .... ....|--- .... ....
 A#3|..|--- .... ....|--- .... ....|A#2 2C.F ....
....|..|--- .... ....|--- .... ....|--- .... ....
....|..|--- .... ....|--- .... ....|--- .... ....
....|..|--- .... ....|--- .... ....|--- .... ....
 D#4|..|--- .... ....|--- .... ....|D#3 2C.F ....
....|..|--- .... ....|--- .... ....|--- .... ....
....|..|--- .... ....|--- .... ....|--- .... ....
....|..|--- .... ....|--- .... ....|--- .... ....
 F-4|..|--- .... ....|--- .... ....|F-3 2C.F ....
....|..|--- .... ....|--- .... ....|--- .... ....
....|..|--- .... ....|--- .... ....|--- .... ....
....|..|--- .... ....|--- .... ....|--- .... ....
 A#3|..|--- .... ....|--- .... ....|A#3 2C.F ....
....|..|--- .... ....|--- .... ....|--- .... ....
....|..|--- .... ....|--- .... ....|--- .... ....
....|..|--- .... ....|--- .... ....|--- .... ....
 G-4|..|--- .... ....|--- .... ....|G-3 2F.7 ....
....|..|--- .... ....|--- .... ....|--- .... ....
....|..|--- .... ....|--- .... ....|--- .... ....
....|..|--- .... ....|--- .... ....|--- .... ....
 G#4|..|--- .... ....|--- .... ....|G#3 2C.F ....
....|..|--- .... ....|--- .... ....|--- .... ....
....|..|--- .... ....|--- .... ....|--- .... ....
....|..|--- .... ....|--- .... ....|--- .... ....
 A#3|..|--- .... ....|--- .... ....|A#2 2F.7 ....
....|..|--- .... ....|--- .... ....|--- .... ....
....|..|--- .... ....|--- .... ....|--- .... ....
....|..|--- .... ....|--- .... ....|--- .... ....
 G-4|..|--- .... ....|--- .... ....|G-3 2C.F ....
....|..|--- .... ....|--- .... ....|--- .... ....
....|..|--- .... ....|--- .... ....|--- .... ....
....|..|--- .... ....|--- .... ....|--- .... ....

[Pattern33]
 F-4|..|--- .... ....|--- .... ....|F-2 2A.F ....
....|..|--- .... ....|--- .... ....|--- .... ....
....|..|--- .... ....|--- .... ....|--- .... ....
....|..|--- .... ....|--- .... ....|--- .... ....
 C-4|..|--- .... ....|--- .... ....|C-3 2C.F ....
....|..|--- .... ....|--- .... ....|--- .... ....
....|..|--- .... ....|--- .... ....|--- .... ....
....|..|--- .... ....|--- .... ....|--- .... ....
 F-4|..|--- .... ....|--- .... ....|F-3 2C.F ....
....|..|--- .... ....|--- .... ....|--- .... ....
....|..|--- .... ....|--- .... ....|--- .... ....
....|..|--- .... ....|--- .... ....|--- .... ....
 G-4|..|--- .... ....|--- .... ....|G-3 2C.F ....
....|..|--- .... ....|--- .... ....|--- .... ....
....|..|--- .... ....|--- .... ....|--- .... ....
....|..|--- .... ....|--- .... ....|--- .... ....
 G#4|..|--- .... ....|--- .... ....|G#3 2C.F ....
....|..|--- .... ....|--- .... ....|--- .... ....
....|..|--- .... ....|--- .... ....|--- .... ....
....|..|--- .... ....|--- .... ....|--- .... ....
 C-4|..|--- .... ....|--- .... ....|C-4 2C.F ....
....|..|--- .... ....|--- .... ....|--- .... ....
....|..|--- .... ....|--- .... ....|--- .... ....
....|..|--- .... ....|--- .... ....|--- .... ....
 C-4|..|--- .... ....|--- .... ....|C-3 2C.F ....
....|..|--- .... ....|--- .... ....|--- .... ....
....|..|--- .... ....|--- .... ....|--- .... ....
....|..|--- .... ....|--- .... ....|--- .... ....
 F-4|..|--- .... ....|--- .... ....|F-3 2C.F ....
....|..|--- .... ....|--- .... ....|--- .... ....
....|..|--- .... ....|--- .... ....|--- .... ....
....|..|--- .... ....|--- .... ....|--- .... ....
 F-4|..|--- .... ....|--- .... ....|F-2 2A.F ....
....|..|--- .... ....|--- .... ....|--- .... ....
....|..|--- .... ....|--- .... ....|--- .... ....
....|..|--- .... ....|--- .... ....|--- .... ....
 C-4|..|--- .... ....|--- .... ....|C-3 2C.F ....
....|..|--- .... ....|--- .... ....|--- .... ....
....|..|--- .... ....|--- .... ....|--- .... ....
....|..|--- .... ....|--- .... ....|--- .... ....
 F-4|..|--- .... ....|--- .... ....|F-3 2C.F ....
....|..|--- .... ....|--- .... ....|--- .... ....
....|..|--- .... ....|--- .... ....|--- .... ....
....|..|--- .... ....|--- .... ....|--- .... ....
 G-4|..|--- .... ....|--- .... ....|G-3 2C.F ....
....|..|--- .... ....|--- .... ....|--- .... ....
....|..|--- .... ....|--- .... ....|--- .... ....
....|..|--- .... ....|--- .... ....|--- .... ....
 G#4|..|--- .... ....|--- .... ....|G#3 2C.F ....
....|..|--- .... ....|--- .... ....|--- .... ....
....|..|--- .... ....|--- .... ....|--- .... ....
....|..|--- .... ....|--- .... ....|--- .... ....
 C-4|..|--- .... ....|--- .... ....|C-4 2C.F ....
....|..|--- .... ....|--- .... ....|--- .... ....
....|..|--- .... ....|--- .... ....|--- .... ....
....|..|--- .... ....|--- .... ....|--- .... ....
 C-4|..|--- .... ....|--- .... ....|C-3 2C.F ....
....|..|--- .... ....|--- .... ....|--- .... ....
....|..|--- .... ....|--- .... ....|--- .... ....
....|..|--- .... ....|--- .... ....|--- .... ....
 F-4|..|--- .... ....|--- .... ....|F-3 2C.F ....
....|..|--- .... ....|--- .... ....|--- .... ....
....|..|--- .... ....|--- .... ....|--- .... ....
....|..|--- .... ....|--- .... ....|--- .... ....
 A#3|..|--- .... ....|--- .... ....|A#3 2C.F ....
....|..|--- .... ....|--- .... ....|--- .... ....
....|..|--- .... ....|--- .... ....|--- .... ....
....|..|--- .... ....|--- .... ....|--- .... ....
 A#3|..|--- .... ....|--- .... ....|A#2 2C.F ....
....|..|--- .... ....|--- .... ....|--- .... ....
....|..|--- .... ....|--- .... ....|--- .... ....
....|..|--- .... ....|--- .... ....|--- .... ....
 F-4|..|--- .... ....|--- .... ....|F-3 2C.F ....
....|..|--- .... ....|--- .... ....|--- .... ....
....|..|--- .... ....|--- .... ....|--- .... ....
....|..|--- .... ....|--- .... ....|--- .... ....
 A#3|..|--- .... ....|--- .... ....|A#3 2C.F ....
....|..|--- .... ....|--- .... ....|--- .... ....
....|..|--- .... ....|--- .... ....|--- .... ....
....|..|--- .... ....|--- .... ....|--- .... ....
 A#3|..|--- .... ....|--- .... ....|A#2 2C.F ....
....|..|--- .... ....|--- .... ....|--- .... ....
....|..|--- .... ....|--- .... ....|--- .... ....
....|..|--- .... ....|--- .... ....|--- .... ....
 C#4|..|--- .... ....|--- .... ....|C#3 2C.F ....
....|..|--- .... ....|--- .... ....|--- .... ....
....|..|--- .... ....|--- .... ....|--- .... ....
....|..|--- .... ....|--- .... ....|--- .... ....
 F-4|..|--- .... ....|--- .... ....|F-3 2C.F ....
....|..|--- .... ....|--- .... ....|--- .... ....
....|..|--- .... ....|--- .... ....|--- .... ....
....|..|--- .... ....|--- .... ....|--- .... ....
 C#4|..|--- .... ....|--- .... ....|C#3 2C.F ....
....|..|--- .... ....|--- .... ....|--- .... ....
....|..|--- .... ....|--- .... ....|--- .... ....
....|..|--- .... ....|--- .... ....|--- .... ....
 C#4|..|--- .... ....|--- .... ....|C#2 2A.F ....
....|..|--- .... ....|--- .... ....|--- .... ....
....|..|--- .... ....|--- .... ....|--- .... ....
....|..|--- .... ....|--- .... ....|--- .... ....
 C#4|..|--- .... ....|--- .... ....|C#3 2C.F ....
....|..|--- .... ....|--- .... ....|--- .... ....
....|..|--- .... ....|--- .... ....|--- .... ....
....|..|--- .... ....|--- .... ....|--- .... ....
 E-4|..|--- .... ....|--- .... ....|E-3 2C.F ....
....|..|--- .... ....|--- .... ....|--- .... ....
....|..|--- .... ....|--- .... ....|--- .... ....
....|..|--- .... ....|--- .... ....|--- .... ....
 G-4|..|--- .... ....|--- .... ....|G-3 2C.F ....
....|..|--- .... ....|--- .... ....|--- .... ....
....|..|--- .... ....|--- .... ....|--- .... ....
....|..|--- .... ....|--- .... ....|--- .... ....
 E-4|..|--- .... ....|--- .... ....|E-2 2A.F ....
....|..|--- .... ....|--- .... ....|--- .... ....
....|..|--- .... ....|--- .... ....|--- .... ....
....|..|--- .... ....|--- .... ....|--- .... ....
 A#3|..|--- .... ....|--- .... ....|A#2 2C.F ....
....|..|--- .... ....|--- .... ....|A#4 2F.F ....
....|..|--- .... ....|--- .... ....|--- .... ....
....|..|--- .... ....|--- .... ....|--- .... ....
 E-4|..|--- .... ....|--- .... ....|E-3 2C.F ....
....|..|--- .... ....|--- .... ....|G#4 2F.F ....
....|..|--- .... ....|--- .... ....|A#4 2F.F ....
....|..|--- .... ....|--- .... ....|G#4 2F.F ....
 G-4|..|--- .... ....|--- .... ....|G-3 2C.F ....
....|..|--- .... ....|--- .... ....|G-4 2F.F ....
....|..|--- .... ....|--- .... ....|--- .... ....
....|..|--- .... ....|--- .... ....|--- .... ....

[Pattern34]
 F-4|..|--- .... ....|--- .... ....|F-2 2A.F ....
....|..|--- .... ....|--- .... ....|G#4 2F.F ....
....|..|--- .... ....|--- .... ....|--- .... ....
....|..|--- .... ....|--- .... ....|--- .... ....
 C-4|..|--- .... ....|--- .... ....|C-3 2C.F ....
....|..|--- .... ....|--- .... ....|G#4 2F.A ....
....|..|--- .... ....|--- .... ....|A#4 2F.A ....
....|..|--- .... ....|--- .... ....|G#4 2F.A ....
 F-4|..|--- .... ....|--- .... ....|F-3 2C.F ....
....|..|--- .... ....|--- .... ....|G-4 2F.F ....
....|..|--- .... ....|--- .... ....|--- .... ....
....|..|--- .... ....|--- .... ....|--- .... ....
 G-4|..|--- .... ....|--- .... ....|G-3 2C.F ....
....|..|--- .... ....|--- .... ....|F-4 2F.F ....
....|..|--- .... ....|--- .... ....|--- .... ....
....|..|--- .... ....|--- .... ....|--- .... ....
 G#4|..|--- .... ....|--- .... ....|G#3 2C.F ....
....|..|--- .... ....|--- .... ....|G#4 2F.7 ....
....|..|--- .... ....|--- .... ....|A#4 2F.7 ....
....|..|--- .... ....|--- .... ....|G#4 2F.7 ....
 C-4|..|--- .... ....|--- .... ....|C-4 2C.F ....
....|..|--- .... ....|--- .... ....|G-4 2F.7 ....
....|..|--- .... ....|--- .... ....|--- .... ....
....|..|--- .... ....|--- .... ....|--- .... ....
 C-4|..|--- .... ....|--- .... ....|C-3 2C.F ....
....|..|--- .... ....|--- .... ....|G#4 2F.7 ....
....|..|--- .... ....|--- .... ....|--- .... ....
....|..|--- .... ....|--- .... ....|--- .... ....
 F-4|..|--- .... ....|--- .... ....|F-3 2C.F ....
....|..|--- .... ....|--- .... ....|F-4 2F.F ....
....|..|--- .... ....|--- .... ....|--- .... ....
....|..|--- .... ....|--- .... ....|--- .... ....
 F-4|..|--- .... ....|--- .... ....|F-2 2A.F ....
....|..|--- .... ....|--- .... ....|G-4 2F.7 ....
....|..|--- .... ....|--- .... ....|--- .... ....
....|..|--- .... ....|--- .... ....|--- .... ....
 C-4|..|--- .... ....|--- .... ....|C-3 2C.F ....
....|..|--- .... ....|--- .... ....|E-4 2F.F ....
....|..|--- .... ....|--- .... ....|--- .... ....
....|..|--- .... ....|--- .... ....|--- .... ....
 F-4|..|--- .... ....|--- .... ....|F-3 2C.F ....
....|..|--- .... ....|--- .... ....|F-4 2F.F ....
....|..|--- .... ....|--- .... ....|--- .... ....
....|..|--- .... ....|--- .... ....|--- .... ....
 G-4|..|--- .... ....|--- .... ....|G-3 2C.F ....
....|..|--- .... ....|--- .... ....|E-4 2F.F ....
....|..|--- .... ....|--- .... ....|--- .... ....
....|..|--- .... ....|--- .... ....|--- .... ....
 G#4|..|--- .... ....|--- .... ....|G#3 2C.F ....
....|..|--- .... ....|--- .... ....|C#4 2F.F ....
....|..|--- .... ....|--- .... ....|--- .... ....
....|..|--- .... ....|--- .... ....|--- .... ....
 C-4|..|--- .... ....|--- .... ....|C-4 2C.F ....
....|..|--- .... ....|--- .... ....|A#4 2F.F ....
....|..|--- .... ....|--- .... ....|--- .... ....
....|..|--- .... ....|--- .... ....|--- .... ....
 C-4|..|--- .... ....|--- .... ....|C-3 2C.F ....
....|..|--- .... ....|--- .... ....|G#4 2F.F ....
....|..|--- .... ....|--- .... ....|A#4 2F.F ....
....|..|--- .... ....|--- .... ....|G#4 2F.F ....
 F-4|..|--- .... ....|--- .... ....|F-3 2C.F ....
....|..|--- .... ....|--- .... ....|G-4 2F.F ....
....|..|--- .... ....|--- .... ....|--- .... ....
....|..|--- .... ....|--- .... ....|--- .... ....
 G#4|..|--- .... ....|--- .... ....|G#2 2A.F ....
....|..|--- .... ....|--- .... ....|G#4 2F.F ....
....|..|--- .... ....|--- .... ....|--- .... ....
....|..|--- .... ....|--- .... ....|--- .... ....
 C-4|..|--- .... ....|--- .... ....|C-3 2C.F ....
....|..|--- .... ....|--- .... ....|E-4 2F.7 ....
....|..|--- .... ....|--- .... ....|A#4 2F.A ....
....|..|--- .... ....|--- .... ....|G#4 2F.A ....
 D#4|..|--- .... ....|--- .... ....|D#3 2C.F ....
....|..|--- .... ....|--- .... ....|G-4 2F.F ....
....|..|--- .... ....|--- .... ....|--- .... ....
....|..|--- .... ....|--- .... ....|--- .... ....
 G#4|..|--- .... ....|--- .... ....|G#3 2C.F ....
....|..|--- .... ....|--- .... ....|F-4 2F.F ....
....|..|--- .... ....|--- .... ....|--- .... ....
....|..|--- .... ....|--- .... ....|--- .... ....
 C-4|..|--- .... ....|--- .... ....|C-3 2F.7 ....
....|..|--- .... ....|--- .... ....|G#4 2F.7 ....
....|..|--- .... ....|--- .... ....|A#4 2F.7 ....
....|..|--- .... ....|--- .... ....|G#4 2F.7 ....
 F-4|..|--- .... ....|--- .... ....|F-3 2C.F ....
....|..|--- .... ....|--- .... ....|G-4 2F.7 ....
....|..|--- .... ....|--- .... ....|--- .... ....
....|..|--- .... ....|--- .... ....|--- .... ....
 G-4|..|--- .... ....|--- .... ....|G-3 2C.F ....
....|..|--- .... ....|--- .... ....|G#4 2F.7 ....
....|..|--- .... ....|--- .... ....|--- .... ....
....|..|--- .... ....|--- .... ....|--- .... ....
....|..|--- .... ....|--- .... ....|E-4 2F.F ....
....|..|--- .... ....|--- .... ....|--- .... ....
....|..|--- .... ....|--- .... ....|--- .... ....
....|..|--- .... ....|--- .... ....|--- .... ....
 A#3|..|--- .... ....|--- .... ....|A#2 2C.F ....
....|..|--- .... ....|--- .... ....|F-4 2F.F ....
....|..|--- .... ....|--- .... ....|--- .... ....
....|..|--- .... ....|--- .... ....|--- .... ....
 D#4|..|--- .... ....|--- .... ....|D#3 2C.F ....
....|..|--- .... ....|--- .... ....|G-4 2F.F ....
....|..|--- .... ....|--- .... ....|--- .... ....
....|..|--- .... ....|--- .... ....|--- .... ....
 F-4|..|--- .... ....|--- .... ....|F-3 2C.F ....
....|..|--- .... ....|--- .... ....|G#4 2F.F ....
....|..|--- .... ....|--- .... ....|--- .... ....
....|..|--- .... ....|--- .... ....|--- .... ....
 A#3|..|--- .... ....|--- .... ....|A#3 2C.F ....
....|..|--- .... ....|--- .... ....|A#4 2F.F ....
....|..|--- .... ....|--- .... ....|--- .... ....
....|..|--- .... ....|--- .... ....|--- .... ....
 G-4|..|--- .... ....|--- .... ....|G-3 2F.7 ....
....|..|--- .... ....|--- .... ....|G-4 2F.A ....
....|..|--- .... ....|--- .... ....|--- .... ....
....|..|--- .... ....|--- .... ....|--- .... ....
 G#4|..|--- .... ....|--- .... ....|G#3 2C.F ....
....|..|--- .... ....|--- .... ....|A#4 2F.F ....
....|..|--- .... ....|--- .... ....|--- .... ....
....|..|--- .... ....|--- .... ....|--- .... ....
....|..|--- .... ....|--- .... ....|G#4 2F.F ....
....|..|--- .... ....|--- .... ....|A#4 2F.F ....
....|..|--- .... ....|--- .... ....|--- .... ....
....|..|--- .... ....|--- .... ....|G#4 2F.F ....
 G-4|..|--- .... ....|--- .... ....|G-3 2C.F ....
....|..|--- .... ....|--- .... ....|G-4 2F.F ....
....|..|--- .... ....|--- .... ....|--- .... ....
....|..|--- .... ....|--- .... ....|--- .... ....

[Pattern35]
 F-4|..|--- .... ....|--- .... ....|F-2 2A.F ....
....|..|--- .... ....|--- .... ....|G#4 2F.F ....
....|..|--- .... ....|--- .... ....|--- .... ....
....|..|--- .... ....|--- .... ....|--- .... ....
 C-4|..|--- .... ....|--- .... ....|C-3 2C.F ....
....|..|--- .... ....|--- .... ....|A#4 2F.7 ....
....|..|--- .... ....|--- .... ....|--- .... ....
....|..|--- .... ....|--- .... ....|G#4 2F.A ....
 F-4|..|--- .... ....|--- .... ....|F-3 2C.F ....
....|..|--- .... ....|--- .... ....|G-4 2F.F ....
....|..|--- .... ....|--- .... ....|--- .... ....
....|..|--- .... ....|--- .... ....|--- .... ....
 G-4|..|--- .... ....|--- .... ....|G-3 2C.F ....
....|..|--- .... ....|--- .... ....|F-4 2F.F ....
....|..|--- .... ....|--- .... ....|--- .... ....
....|..|--- .... ....|--- .... ....|--- .... ....
 G#4|..|--- .... ....|--- .... ....|G#3 2C.F ....
....|..|--- .... ....|--- .... ....|A#4 2F.7 ....
....|..|--- .... ....|--- .... ....|--- .... ....
....|..|--- .... ....|--- .... ....|G#4 2F.7 ....
 C-4|..|--- .... ....|--- .... ....|C-4 2C.F ....
....|..|--- .... ....|--- .... ....|G-4 2F.7 ....
....|..|--- .... ....|--- .... ....|--- .... ....
....|..|--- .... ....|--- .... ....|--- .... ....
 C-4|..|--- .... ....|--- .... ....|C-3 2C.F ....
....|..|--- .... ....|--- .... ....|E-4 2F.F ....
....|..|--- .... ....|--- .... ....|--- .... ....
....|..|--- .... ....|--- .... ....|--- .... ....
 F-4|..|--- .... ....|--- .... ....|F-3 2C.F ....
....|..|--- .... ....|--- .... ....|F-4 2F.F ....
....|..|--- .... ....|--- .... ....|--- .... ....
....|..|--- .... ....|--- .... ....|--- .... ....
 F-4|..|--- .... ....|--- .... ....|F-2 2A.F ....
....|..|--- .... ....|--- .... ....|G-4 2F.7 ....
....|..|--- .... ....|--- .... ....|--- .... ....
....|..|--- .... ....|--- .... ....|--- .... ....
 C-4|..|--- .... ....|--- .... ....|C-3 2C.F ....
....|..|--- .... ....|--- .... ....|E-4 2F.F ....
....|..|--- .... ....|--- .... ....|--- .... ....
....|..|--- .... ....|--- .... ....|--- .... ....
 F-4|..|--- .... ....|--- .... ....|F-3 2C.F ....
....|..|--- .... ....|--- .... ....|F-4 2F.F ....
....|..|--- .... ....|--- .... ....|--- .... ....
....|..|--- .... ....|--- .... ....|--- .... ....
 G-4|..|--- .... ....|--- .... ....|G-3 2C.F ....
....|..|--- .... ....|--- .... ....|--- .... ....
....|..|--- .... ....|--- .... ....|--- .... ....
....|..|--- .... ....|--- .... ....|--- .... ....
 G#4|..|--- .... ....|--- .... ....|G#3 2C.F ....
....|..|--- .... ....|--- .... ....|E-4 2F.F ....
....|..|--- .... ....|--- .... ....|--- .... ....
....|..|--- .... ....|--- .... ....|--- .... ....
 C-4|..|--- .... ....|--- .... ....|C-4 2C.F ....
....|..|--- .... ....|--- .... ....|F-4 2F.F ....
....|..|--- .... ....|--- .... ....|--- .... ....
....|..|--- .... ....|--- .... ....|--- .... ....
 C-4|..|--- .... ....|--- .... ....|C-3 2C.F ....
....|..|--- .... ....|--- .... ....|G-4 2F.F ....
....|..|--- .... ....|--- .... ....|--- .... ....
....|..|--- .... ....|--- .... ....|--- .... ....
 F-4|..|--- .... ....|--- .... ....|F-3 2C.F ....
....|..|--- .... ....|--- .... ....|G#4 2F.F ....
....|..|--- .... ....|--- .... ....|--- .... ....
....|..|--- .... ....|--- .... ....|--- .... ....
 A#3|..|--- .... ....|--- .... ....|A#3 2C.F ....
....|..|--- .... ....|--- .... ....|A#4 2F.F ....
....|..|--- .... ....|--- .... ....|--- .... ....
....|..|--- .... ....|--- .... ....|--- .... ....
 A#3|..|--- .... ....|--- .... ....|A#2 2C.F ....
....|..|--- .... ....|--- .... ....|G-4 2F.A ....
....|..|--- .... ....|--- .... ....|--- .... ....
....|..|--- .... ....|--- .... ....|--- .... ....
 F-4|..|--- .... ....|--- .... ....|F-3 2C.F ....
....|..|--- .... ....|--- .... ....|F-4 2F.F ....
....|..|--- .... ....|--- .... ....|--- .... ....
....|..|--- .... ....|--- .... ....|--- .... ....
 A#3|..|--- .... ....|--- .... ....|A#3 2C.F ....
....|..|--- .... ....|--- .... ....|C-5 2F.F ....
....|..|--- .... ....|--- .... ....|--- .... ....
....|..|--- .... ....|--- .... ....|--- .... ....
 A#3|..|--- .... ....|--- .... ....|A#2 2C.F ....
....|..|--- .... ....|--- .... ....|G-4 2F.7 ....
....|..|--- .... ....|--- .... ....|--- .... ....
....|..|--- .... ....|--- .... ....|--- .... ....
 C#4|..|--- .... ....|--- .... ....|C#3 2C.F ....
....|..|--- .... ....|--- .... ....|G-4 2F.F ....
....|..|--- .... ....|--- .... ....|--- .... ....
....|..|--- .... ....|--- .... ....|--- .... ....
 F-4|..|--- .... ....|--- .... ....|F-3 2C.F ....
....|..|--- .... ....|--- .... ....|C#5 2F.F ....
....|..|--- .... ....|--- .... ....|--- .... ....
....|..|--- .... ....|--- .... ....|--- .... ....
 C#4|..|--- .... ....|--- .... ....|C#3 2C.F ....
....|..|--- .... ....|--- .... ....|--- .... ....
....|..|--- .... ....|--- .... ....|--- .... ....
....|..|--- .... ....|--- .... ....|--- .... ....
 C#4|..|--- .... ....|--- .... ....|C#2 2A.F ....
....|..|--- .... ....|--- .... ....|G#4 2F.F ....
....|..|--- .... ....|--- .... ....|--- .... ....
....|..|--- .... ....|--- .... ....|--- .... ....
 C#4|..|--- .... ....|--- .... ....|C#3 2C.F ....
....|..|--- .... ....|--- .... ....|E-5 2F.F ....
....|..|--- .... ....|--- .... ....|--- .... ....
....|..|--- .... ....|--- .... ....|--- .... ....
 E-4|..|--- .... ....|--- .... ....|E-3 2C.F ....
....|..|--- .... ....|--- .... ....|--- .... ....
....|..|--- .... ....|--- .... ....|--- .... ....
....|..|--- .... ....|--- .... ....|--- .... ....
 G-4|..|--- .... ....|--- .... ....|G-3 2C.F ....
....|..|--- .... ....|--- .... ....|C#5 2F.F ....
....|..|--- .... ....|--- .... ....|--- .... ....
....|..|--- .... ....|--- .... ....|--- .... ....
 E-4|..|--- .... ....|--- .... ....|E-2 2A.F ....
....|..|--- .... ....|--- .... ....|F-5 2F.F ....
....|..|--- .... ....|--- .... ....|--- .... ....
....|..|--- .... ....|--- .... ....|--- .... ....
 A#3|..|--- .... ....|A#5 2F.F ....|A#2 2C.F ....
....|..|--- .... ....|--- .... ....|A#5 2F.F ....
....|..|--- .... ....|--- .... ....|--- .... ....
....|..|--- .... ....|--- .... ....|--- .... ....
 E-4|..|--- .... ....|G#5 2F.F ....|E-3 2C.F ....
....|..|--- .... ....|A#5 2F.F ....|G#5 2F.F ....
....|..|--- .... ....|--- .... ....|A#5 2F.F ....
....|..|--- .... ....|G#5 2F.F ....|G#5 2F.F ....
 G-4|..|--- .... ....|G-5 2F.F ....|G-3 2C.F ....
....|..|--- .... ....|--- .... ....|G-5 2F.F ....
....|..|--- .... ....|--- .... ....|--- .... ....
....|..|--- .... ....|--- .... ....|--- .... ....

[Pattern36]
 F-4|..|--- .... ....|G#5 2F.F ....|F-2 2A.F ....
....|..|--- .... ....|--- .... ....|G#4 2F.F ....
....|..|--- .... ....|--- .... ....|--- .... ....
....|..|--- .... ....|--- .... ....|--- .... ....
 C-4|..|--- .... ....|G#5 2F.A ....|C-3 2C.F ....
....|..|--- .... ....|A#5 2F.A ....|C#5 2F.7 ....
....|..|--- .... ....|--- .... ....|A#5 2F.A ....
....|..|--- .... ....|G#5 2F.A ....|G#5 2F.A ....
 F-4|..|--- .... ....|G-5 2F.F ....|F-3 2C.F ....
....|..|--- .... ....|--- .... ....|G-4 2F.F ....
....|..|--- .... ....|--- .... ....|--- .... ....
....|..|--- .... ....|--- .... ....|--- .... ....
 G-4|..|--- .... ....|F-5 2F.F ....|G-3 2C.F ....
....|..|--- .... ....|--- .... ....|F-4 2F.F ....
....|..|--- .... ....|--- .... ....|--- .... ....
....|..|--- .... ....|--- .... ....|--- .... ....
 G#4|..|--- .... ....|G#5 2F.7 ....|G#3 2C.F ....
....|..|--- .... ....|A#5 2F.7 ....|G#5 2F.7 ....
....|..|--- .... ....|--- .... ....|A#5 2F.7 ....
....|..|--- .... ....|G#5 2F.7 ....|G#5 2F.7 ....
 C-4|..|--- .... ....|G-5 2F.7 ....|C-4 2C.F ....
....|..|--- .... ....|--- .... ....|G-5 2F.7 ....
....|..|--- .... ....|--- .... ....|--- .... ....
....|..|--- .... ....|--- .... ....|--- .... ....
 C-4|..|--- .... ....|G#5 2F.7 ....|C-3 2C.F ....
....|..|--- .... ....|--- .... ....|G#4 2F.7 ....
....|..|--- .... ....|--- .... ....|--- .... ....
....|..|--- .... ....|--- .... ....|--- .... ....
 F-4|..|--- .... ....|F-5 2F.F ....|F-3 2C.F ....
....|..|--- .... ....|--- .... ....|F-4 2F.F ....
....|..|--- .... ....|--- .... ....|--- .... ....
....|..|--- .... ....|--- .... ....|--- .... ....
 F-4|..|--- .... ....|G-5 2F.7 ....|F-2 2A.F ....
....|..|--- .... ....|--- .... ....|G-4 2F.7 ....
....|..|--- .... ....|--- .... ....|--- .... ....
....|..|--- .... ....|--- .... ....|--- .... ....
 C-4|..|--- .... ....|E-5 2F.F ....|C-3 2C.F ....
....|..|--- .... ....|--- .... ....|E-4 2F.F ....
....|..|--- .... ....|--- .... ....|--- .... ....
....|..|--- .... ....|--- .... ....|--- .... ....
 F-4|..|--- .... ....|F-5 2F.F ....|F-3 2C.F ....
....|..|--- .... ....|--- .... ....|F-4 2F.F ....
....|..|--- .... ....|--- .... ....|--- .... ....
....|..|--- .... ....|--- .... ....|--- .... ....
 G-4|..|--- .... ....|E-5 2F.F ....|G-3 2C.F ....
....|..|--- .... ....|--- .... ....|E-4 2F.F ....
....|..|--- .... ....|--- .... ....|--- .... ....
....|..|--- .... ....|--- .... ....|--- .... ....
 G#4|..|--- .... ....|C#5 2F.F ....|G#3 2C.F ....
....|..|--- .... ....|--- .... ....|C#4 2F.F ....
....|..|--- .... ....|--- .... ....|--- .... ....
....|..|--- .... ....|--- .... ....|--- .... ....
 C-4|..|--- .... ....|A#5 2F.F ....|C-4 2C.F ....
....|..|--- .... ....|--- .... ....|A#4 2F.F ....
....|..|--- .... ....|--- .... ....|--- .... ....
....|..|--- .... ....|--- .... ....|--- .... ....
 C-4|..|--- .... ....|G#5 2F.F ....|C-3 2C.F ....
....|..|--- .... ....|A#5 2F.F ....|G#4 2F.F ....
....|..|--- .... ....|--- .... ....|A#4 2F.F ....
....|..|--- .... ....|G#5 2F.F ....|G#4 2F.F ....
 F-4|..|--- .... ....|G-5 2F.F ....|F-3 2C.F ....
....|..|--- .... ....|--- .... ....|G-4 2F.F ....
....|..|--- .... ....|--- .... ....|--- .... ....
....|..|--- .... ....|--- .... ....|--- .... ....
 G#4|..|--- .... ....|G#5 2F.F ....|G#2 2A.F ....
....|..|--- .... ....|--- .... ....|G#4 2F.F ....
....|..|--- .... ....|--- .... ....|--- .... ....
....|..|--- .... ....|--- .... ....|--- .... ....
 C-4|..|--- .... ....|E-5 2F.7 ....|C-3 2C.F ....
....|..|--- .... ....|A#5 2F.A ....|E-4 2F.7 ....
....|..|--- .... ....|--- .... ....|A#4 2F.A ....
....|..|--- .... ....|G#5 2F.A ....|G#4 2F.A ....
 D#4|..|--- .... ....|G-5 2F.F ....|D#3 2C.F ....
....|..|--- .... ....|--- .... ....|G-4 2F.F ....
....|..|--- .... ....|--- .... ....|--- .... ....
....|..|--- .... ....|--- .... ....|--- .... ....
 G#4|..|--- .... ....|F-5 2F.F ....|G#3 2C.F ....
....|..|--- .... ....|--- .... ....|F-4 2F.F ....
....|..|--- .... ....|--- .... ....|--- .... ....
....|..|--- .... ....|--- .... ....|--- .... ....
 C-4|..|--- .... ....|G#5 2F.7 ....|C-3 2F.7 ....
....|..|--- .... ....|A#5 2F.7 ....|G#4 2F.7 ....
....|..|--- .... ....|--- .... ....|A#4 2F.7 ....
....|..|--- .... ....|G#5 2F.7 ....|G#4 2F.7 ....
 F-4|..|--- .... ....|G-5 2F.7 ....|F-3 2C.F ....
....|..|--- .... ....|--- .... ....|G-4 2F.7 ....
....|..|--- .... ....|--- .... ....|--- .... ....
....|..|--- .... ....|--- .... ....|--- .... ....
 G-4|..|--- .... ....|G#5 2F.7 ....|G-3 2C.F ....
....|..|--- .... ....|--- .... ....|G#4 2F.7 ....
....|..|--- .... ....|--- .... ....|--- .... ....
....|..|--- .... ....|--- .... ....|--- .... ....
....|..|--- .... ....|E-5 2F.F ....|E-4 2F.F ....
....|..|--- .... ....|--- .... ....|--- .... ....
....|..|--- .... ....|--- .... ....|--- .... ....
....|..|--- .... ....|--- .... ....|--- .... ....
 A#3|..|--- .... ....|F-5 2F.F ....|A#2 2C.F ....
....|..|--- .... ....|--- .... ....|F-4 2F.F ....
....|..|--- .... ....|--- .... ....|--- .... ....
....|..|--- .... ....|--- .... ....|--- .... ....
 D#4|..|--- .... ....|G-5 2F.F ....|D#3 2C.F ....
....|..|--- .... ....|--- .... ....|G-4 2F.F ....
....|..|--- .... ....|--- .... ....|--- .... ....
....|..|--- .... ....|--- .... ....|--- .... ....
 F-4|..|--- .... ....|G#5 2F.F ....|F-3 2C.F ....
....|..|--- .... ....|--- .... ....|G#4 2F.F ....
....|..|--- .... ....|--- .... ....|--- .... ....
....|..|--- .... ....|--- .... ....|--- .... ....
 A#3|..|--- .... ....|A#5 2F.F ....|A#3 2C.F ....
....|..|--- .... ....|--- .... ....|A#4 2F.F ....
....|..|--- .... ....|--- .... ....|--- .... ....
....|..|--- .... ....|--- .... ....|--- .... ....
 G-4|..|--- .... ....|G-5 2F.A ....|G-3 2F.7 ....
....|..|--- .... ....|--- .... ....|G-4 2F.A ....
....|..|--- .... ....|--- .... ....|--- .... ....
....|..|--- .... ....|--- .... ....|--- .... ....
 G#4|..|--- .... ....|A#5 2F.F ....|G#3 2C.F ....
....|..|--- .... ....|--- .... ....|A#4 2F.F ....
....|..|--- .... ....|--- .... ....|--- .... ....
....|..|--- .... ....|--- .... ....|--- .... ....
....|..|--- .... ....|G#5 2F.F ....|G#4 2F.F ....
....|..|--- .... ....|A#5 2F.F ....|A#4 2F.F ....
....|..|--- .... ....|--- .... ....|--- .... ....
....|..|--- .... ....|G#5 2F.F ....|G#4 2F.F ....
 G-4|..|--- .... ....|G-5 2F.F ....|G-3 2C.F ....
....|..|--- .... ....|--- .... ....|G-4 2F.F ....
....|..|--- .... ....|--- .... ....|--- .... ....
....|..|--- .... ....|--- .... ....|--- .... ....

[Pattern37]
 F-4|..|--- .... ....|G#5 2F.F ....|F-2 2A.F ....
....|..|--- .... ....|--- .... ....|G#4 2F.F ....
....|..|--- .... ....|--- .... ....|--- .... ....
....|..|--- .... ....|--- .... ....|--- .... ....
 C-4|..|--- .... ....|A#5 2F.7 ....|C-3 2C.F ....
....|..|--- .... ....|A#5 2F.A ....|A#4 2F.7 ....
....|..|--- .... ....|--- .... ....|--- .... ....
....|..|--- .... ....|G#5 2F.A ....|G#4 2F.A ....
 F-4|..|--- .... ....|G-5 2F.F ....|F-3 2C.F ....
....|..|--- .... ....|--- .... ....|G-4 2F.F ....
....|..|--- .... ....|--- .... ....|--- .... ....
....|..|--- .... ....|--- .... ....|--- .... ....
 G-4|..|--- .... ....|F-5 2F.F ....|G-3 2C.F ....
....|..|--- .... ....|--- .... ....|F-4 2F.F ....
....|..|--- .... ....|--- .... ....|--- .... ....
....|..|--- .... ....|--- .... ....|--- .... ....
 G#4|..|--- .... ....|G#5 2F.7 ....|G#3 2C.F ....
....|..|--- .... ....|A#5 2F.7 ....|A#4 2F.7 ....
....|..|--- .... ....|--- .... ....|--- .... ....
....|..|--- .... ....|G#5 2F.7 ....|G#4 2F.7 ....
 C-4|..|--- .... ....|G-5 2F.7 ....|C-4 2C.F ....
....|..|--- .... ....|--- .... ....|G-4 2F.7 ....
....|..|--- .... ....|--- .... ....|--- .... ....
....|..|--- .... ....|--- .... ....|--- .... ....
 C-4|..|--- .... ....|E-5 2F.F ....|C-3 2C.F ....
....|..|--- .... ....|--- .... ....|E-4 2F.F ....
....|..|--- .... ....|--- .... ....|--- .... ....
....|..|--- .... ....|--- .... ....|--- .... ....
 F-4|..|--- .... ....|F-5 2F.F ....|F-3 2C.F ....
....|..|--- .... ....|--- .... ....|F-4 2F.F ....
....|..|--- .... ....|--- .... ....|--- .... ....
....|..|--- .... ....|--- .... ....|--- .... ....
 F-4|..|--- .... ....|G-5 2F.7 ....|F-2 2A.F ....
....|..|--- .... ....|--- .... ....|G-4 2F.7 ....
....|..|--- .... ....|--- .... ....|--- .... ....
....|..|--- .... ....|--- .... ....|--- .... ....
 C-4|..|--- .... ....|E-5 2F.F ....|C-3 2C.F ....
....|..|--- .... ....|--- .... ....|E-4 2F.F ....
....|..|--- .... ....|--- .... ....|--- .... ....
....|..|--- .... ....|--- .... ....|--- .... ....
 F-4|..|--- .... ....|F-5 2F.F ....|F-3 2C.F ....
....|..|--- .... ....|--- .... ....|F-4 2F.F ....
....|..|--- .... ....|--- .... ....|--- .... ....
....|..|--- .... ....|--- .... ....|--- .... ....
 G-4|..|--- .... ....|--- .... ....|G-3 2C.F ....
....|..|--- .... ....|--- .... ....|--- .... ....
....|..|--- .... ....|--- .... ....|--- .... ....
....|..|--- .... ....|--- .... ....|--- .... ....
 G#4|..|--- .... ....|E-5 2F.F ....|G#3 2C.F ....
....|..|--- .... ....|--- .... ....|E-4 2F.F ....
....|..|--- .... ....|--- .... ....|--- .... ....
....|..|--- .... ....|--- .... ....|--- .... ....
 C-4|..|--- .... ....|F-5 2F.F ....|C-4 2C.F ....
....|..|--- .... ....|--- .... ....|F-4 2F.F ....
....|..|--- .... ....|--- .... ....|--- .... ....
....|..|--- .... ....|--- .... ....|--- .... ....
 C-4|..|--- .... ....|G-5 2F.F ....|C-3 2C.F ....
....|..|--- .... ....|--- .... ....|G-4 2F.F ....
....|..|--- .... ....|--- .... ....|--- .... ....
....|..|--- .... ....|--- .... ....|--- .... ....
 F-4|..|--- .... ....|G#5 2F.F ....|F-3 2C.F ....
....|..|--- .... ....|--- .... ....|G#4 2F.F ....
....|..|--- .... ....|--- .... ....|--- .... ....
....|..|--- .... ....|--- .... ....|--- .... ....
 A#3|..|--- .... ....|A#5 2F.F ....|A#3 2C.F ....
....|..|--- .... ....|--- .... ....|A#4 2F.F ....
....|..|--- .... ....|--- .... ....|--- .... ....
....|..|--- .... ....|--- .... ....|--- .... ....
 A#3|..|--- .... ....|G-5 2F.A ....|A#2 2C.F ....
....|..|--- .... ....|--- .... ....|G-4 2F.A ....
....|..|--- .... ....|--- .... ....|--- .... ....
....|..|--- .... ....|--- .... ....|--- .... ....
 F-4|..|--- .... ....|F-5 2F.F ....|F-3 2C.F ....
....|..|--- .... ....|--- .... ....|F-4 2F.F ....
....|..|--- .... ....|--- .... ....|--- .... ....
....|..|--- .... ....|--- .... ....|--- .... ....
 A#3|..|--- .... ....|C-6 2F.F ....|A#3 2C.F ....
....|..|--- .... ....|--- .... ....|C-5 2F.F ....
....|..|--- .... ....|--- .... ....|--- .... ....
....|..|--- .... ....|--- .... ....|--- .... ....
 A#3|..|--- .... ....|G-5 2F.7 ....|A#2 2C.F ....
....|..|--- .... ....|--- .... ....|G-4 2F.7 ....
....|..|--- .... ....|--- .... ....|--- .... ....
....|..|--- .... ....|--- .... ....|--- .... ....
 C#4|..|--- .... ....|G-5 2F.F ....|C#3 2C.F ....
....|..|--- .... ....|--- .... ....|G-4 2F.F ....
....|..|--- .... ....|--- .... ....|--- .... ....
....|..|--- .... ....|--- .... ....|--- .... ....
 F-4|..|--- .... ....|C#6 2F.F ....|F-3 2C.F ....
....|..|--- .... ....|--- .... ....|C#5 2F.F ....
....|..|--- .... ....|--- .... ....|--- .... ....
....|..|--- .... ....|--- .... ....|--- .... ....
 C#4|..|--- .... ....|--- .... ....|C#3 2C.F ....
....|..|--- .... ....|--- .... ....|--- .... ....
....|..|--- .... ....|--- .... ....|--- .... ....
....|..|--- .... ....|--- .... ....|--- .... ....
 C#4|..|--- .... ....|G#5 2F.F ....|C#2 2A.F ....
....|..|--- .... ....|--- .... ....|G#4 2F.F ....
....|..|--- .... ....|--- .... ....|--- .... ....
....|..|--- .... ....|--- .... ....|--- .... ....
 C#4|..|--- .... ....|E-6 2F.F ....|C#3 2C.F ....
....|..|--- .... ....|--- .... ....|E-5 2F.F ....
....|..|--- .... ....|--- .... ....|--- .... ....
....|..|--- .... ....|--- .... ....|--- .... ....
 E-4|..|--- .... ....|--- .... ....|E-3 2C.F ....
....|..|--- .... ....|--- .... ....|--- .... ....
....|..|--- .... ....|--- .... ....|--- .... ....
....|..|--- .... ....|--- .... ....|--- .... ....
 G-4|..|--- .... ....|C#6 2F.F ....|G-3 2C.F ....
....|..|--- .... ....|--- .... ....|C#5 2F.F ....
....|..|--- .... ....|--- .... ....|--- .... ....
....|..|--- .... ....|--- .... ....|--- .... ....
 E-4|..|--- .... ....|F-6 2F.F ....|E-2 2A.F ....
....|..|--- .... ....|--- .... ....|F-5 2F.F ....
....|..|--- .... ....|--- .... ....|--- .... ....
....|..|--- .... ....|--- .... ....|--- .... ....
 A#3|..|--- .... ....|--- .... ....|A#2 2C.F ....
....|..|--- .... ....|--- .... ....|--- .... ....
....|..|--- .... ....|--- .... ....|--- .... ....
....|..|--- .... ....|--- .... ....|--- .... ....
 E-4|..|--- .... ....|G#5 2F.7 ....|E-3 2C.F ....
....|..|--- .... ....|--- .... ....|G#4 2F.7 ....
....|..|--- .... ....|--- .... ....|--- .... ....
....|..|--- .... ....|--- .... ....|--- .... ....
 G-4|..|--- .... ....|E-6 2F.7 ....|G-3 2C.F ....
....|..|--- .... ....|--- .... ....|E-5 2F.7 ....
....|..|--- .... ....|--- .... ....|--- .... ....
....|..|--- .... ....|--- .... ....|--- .... ....

[Pattern38]
 E-4|..|--- .... ....|R-- .... ....|E-3 2F.7 ....
....|..|--- .... ....|--- .... ....|--- .... ....
....|..|--- .... ....|--- .... ....|--- .... ....
....|..|--- .... ....|--- .... ....|--- .... ....
 G-4|..|--- .... ....|C#6 2F.7 ....|G-3 2F.7 ....
....|..|--- .... ....|--- .... ....|C#5 2F.7 ....
....|..|--- .... ....|--- .... ....|--- .... ....
....|..|--- .... ....|--- .... ....|--- .... ....
 E-4|..|--- .... ....|F-6 2F.7 ....|E-2 2F.7 ....
....|..|--- .... ....|--- .... ....|F-5 2F.7 ....
....|..|--- .... ....|--- .... ....|--- .... ....
....|..|--- .... ....|--- .... ....|--- .... ....
 A#3|..|--- .... ....|R-- .... ....|A#2 2F.7 ....
....|..|--- .... ....|--- .... ....|--- .... ....
....|..|--- .... ....|--- .... ....|--- .... ....
....|..|--- .... ....|--- .... ....|--- .... ....
 E-4|..|--- .... ....|--- .... ....|E-3 2F.7 ....
....|..|--- .... ....|--- .... ....|--- .... ....
....|..|--- .... ....|--- .... ....|--- .... ....
....|..|--- .... ....|--- .... ....|--- .... ....
 G-4|..|--- .... ....|--- .... ....|G-3 2F.7 ....
....|..|--- .... ....|--- .... ....|--- .... ....
....|..|--- .... ....|--- .... ....|--- .... ....
....|..|--- .... ....|--- .... ....|--- .... ....
....|..|--- .... ....|R-- .... ....|R-- .... ....
....|..|--- .... ....|--- .... ....|--- .... ....
....|..|--- .... ....|--- .... ....|--- .... ....
....|..|--- .... ....|--- .... ....|--- .... ....
....|..|--- .... ....|--- .... ....|--- .... ....
....|..|--- .... ....|--- .... ....|--- .... ....
....|..|--- .... ....|--- .... ....|--- .... ....
....|..|--- .... ....|--- .... ....|--- .... ....
....|..|--- .... ....|--- .... ....|--- .... ....
....|..|--- .... ....|--- .... ....|--- .... ....
....|..|--- .... ....|--- .... ....|--- .... ....
....|..|--- .... ....|--- .... ....|--- .... ....
....|..|--- .... ....|--- .... ....|--- .... ....
....|..|--- .... ....|--- .... ....|--- .... ....
....|..|--- .... ....|--- .... ....|--- .... ....
....|..|--- .... ....|--- .... ....|--- .... ....
....|..|--- .... ....|--- .... ....|--- .... ....
....|..|--- .... ....|--- .... ....|--- .... ....
....|..|--- .... ....|--- .... ....|--- .... ....
....|..|--- .... ....|--- .... ....|--- .... ....
....|..|--- .... ....|--- .... ....|--- .... ....
....|..|--- .... ....|--- .... ....|--- .... ....
....|..|--- .... ....|--- .... ....|--- .... ....
....|..|--- .... ....|--- .... ....|--- .... ....
....|..|--- .... ....|--- .... ....|--- .... ....
....|..|--- .... ....|--- .... ....|--- .... ....
....|..|--- .... ....|--- .... ....|--- .... ....
....|..|--- .... ....|--- .... ....|--- .... ....
....|..|--- .... ....|--- .... ....|--- .... ....
....|..|--- .... ....|--- .... ....|--- .... ....
....|..|--- .... ....|--- .... ....|--- .... ....
....|..|--- .... ....|--- .... ....|--- .... ....
....|..|--- .... ....|--- .... ....|--- .... ....
....|..|--- .... ....|--- .... ....|--- .... ....
....|..|--- .... ....|--- .... ....|--- .... ....
....|..|--- .... ....|--- .... ....|--- .... ....
....|..|--- .... ....|--- .... ....|--- .... ....
....|..|--- .... ....|--- .... ....|--- .... ....
....|..|--- .... ....|--- .... ....|--- .... ....
....|..|--- .... ....|--- .... ....|--- .... ....
 F-3|..|C-4 AF.F ....|F-1 2A.F ....|F-1 2A.F ....
 F-3|..|F-1 2A.F ....|--- .... ....|--- .... ....
....|..|--- .... ....|--- .... ....|--- .... ....
....|..|--- .... ....|--- .... ....|--- .... ....
 F-4|..|F-2 2A.F ....|F-2 2A.F ....|F-2 2A.F ....
....|..|--- .... ....|--- .... ....|--- .... ....
....|..|--- .... ....|--- .... ....|--- .... ....
....|..|--- .... ....|--- .... ....|--- .... ....
 F-3|..|C-4 AF.F ....|F-1 2A.F ....|F-1 2A.F ....
 F-3|..|F-1 2A.F ....|--- .... ....|--- .... ....
....|..|--- .... ....|--- .... ....|--- .... ....
....|..|--- .... ....|--- .... ....|--- .... ....
 F-4|..|F-2 2A.F ....|F-2 2A.F ....|F-2 2A.F ....
 F-3|..|F-1 2F.A ....|--- .... ....|--- .... ....
....|..|--- .... ....|--- .... ....|--- .... ....
....|..|--- .... ....|--- .... ....|--- .... ....
 F-3|..|C-4 AF.F ....|F-1 2A.F ....|F-1 2A.F ....
 F-3|..|F-1 2A.F ....|--- .... ....|--- .... ....
....|..|--- .... ....|--- .... ....|--- .... ....
....|..|--- .... ....|--- .... ....|--- .... ....
 F-4|..|F-2 2A.F ....|F-2 2A.F ....|F-2 2A.F ....
 F-3|..|F-1 2F.A ....|--- .... ....|--- .... ....
....|..|--- .... ....|--- .... ....|--- .... ....
....|..|--- .... ....|--- .... ....|--- .... ....
 F-3|..|C-4 AF.F ....|F-1 2A.F ....|F-1 2A.F ....
 F-3|..|F-1 2A.F ....|--- .... ....|--- .... ....
....|..|--- .... ....|--- .... ....|--- .... ....
....|..|--- .... ....|--- .... ....|--- .... ....
 F-4|..|F-2 2A.F ....|F-2 2A.F ....|F-2 2A.F ....
 F-3|..|F-1 2F.A ....|--- .... ....|--- .... ....
....|..|--- .... ....|--- .... ....|--- .... ....
....|..|--- .... ....|--- .... ....|--- .... ....
 F-3|..|C-4 AF.F ....|F-1 2A.F ....|F-1 2A.F ....
 F-3|..|F-1 2A.F ....|--- .... ....|--- .... ....
....|..|--- .... ....|--- .... ....|--- .... ....
....|..|--- .... ....|--- .... ....|--- .... ....
 F-4|..|F-2 2A.F ....|F-2 2A.F ....|F-2 2A.F ....
 F-3|..|F-1 2F.A ....|--- .... ....|--- .... ....
....|..|--- .... ....|--- .... ....|--- .... ....
....|..|--- .... ....|--- .... ....|--- .... ....
 F-3|..|C-4 AF.F ....|F-1 2A.F ....|F-1 2A.F ....
 F-3|..|F-1 2A.F ....|--- .... ....|--- .... ....
....|..|--- .... ....|--- .... ....|--- .... ....
....|..|--- .... ....|--- .... ....|--- .... ....
 F-4|..|F-2 2A.F ....|F-2 2A.F ....|F-2 2A.F ....
 F-3|..|F-1 2F.A ....|--- .... ....|--- .... ....
....|..|--- .... ....|--- .... ....|--- .... ....
....|..|--- .... ....|--- .... ....|--- .... ....
 F-3|..|C-4 AF.F ....|F-1 2A.F ....|F-1 2A.F ....
 F-3|..|F-1 2A.F ....|--- .... ....|--- .... ....
....|..|--- .... ....|--- .... ....|--- .... ....
....|..|--- .... ....|--- .... ....|--- .... ....
 F-4|..|F-2 2A.F ....|F-2 2A.F ....|F-2 2A.F ....
 F-3|..|F-1 2F.A ....|--- .... ....|--- .... ....
....|..|--- .... ....|--- .... ....|--- .... ....
....|..|--- .... ....|--- .... ....|--- .... ....
 F-3|..|C-4 AF.F ....|F-1 2A.F ....|F-1 2A.F ....
 F-3|..|F-1 2A.F ....|--- .... ....|--- .... ....
....|..|--- .... ....|--- .... ....|--- .... ....
....|..|--- .... ....|--- .... ....|--- .... ....
 F-4|..|F-2 2A.F ....|F-2 2A.F ....|F-2 2A.F ....
 F-3|..|F-1 2F.A ....|--- .... ....|--- .... ....
....|..|--- .... ....|--- .... ....|--- .... ....
....|..|--- .... ....|--- .... ....|--- .... ....

[Pattern39]
 F-3|..|C-4 AF.F ....|F-1 2A.F ....|F-1 2A.F ....
 F-3|..|F-1 2A.F ....|--- .... ....|--- .... ....
....|..|--- .... ....|--- .... ....|--- .... ....
....|..|--- .... ....|--- .... ....|--- .... ....
 F-4|..|C-4 AF.F ....|F-2 2A.F ....|F-2 2A.F ....
 F-4|..|F-2 2A.F ....|--- .... ....|--- .... ....
....|..|--- .... ....|--- .... ....|--- .... ....
....|..|--- .... ....|--- .... ....|--- .... ....
 F-3|..|C-4 AF.F ....|F-1 2A.F ....|F-1 2A.F ....
 F-3|..|F-1 2A.F ....|--- .... ....|--- .... ....
....|..|--- .... ....|--- .... ....|--- .... ....
....|..|--- .... ....|--- .... ....|--- .... ....
 F-4|..|C-4 AF.F ....|F-2 2A.F ....|F-2 2A.F ....
 F-4|..|F-2 2A.F ....|--- .... ....|--- .... ....
....|..|--- .... ....|--- .... ....|--- .... ....
....|..|--- .... ....|--- .... ....|--- .... ....
 F-3|..|C-4 AF.F ....|F-1 2A.F ....|F-1 2A.F ....
 F-3|..|F-1 2A.F ....|--- .... ....|--- .... ....
....|..|--- .... ....|--- .... ....|--- .... ....
....|..|--- .... ....|--- .... ....|--- .... ....
 F-4|..|C-4 AF.F ....|F-2 2A.F ....|F-2 2A.F ....
 F-4|..|F-2 2A.F ....|--- .... ....|--- .... ....
....|..|--- .... ....|--- .... ....|--- .... ....
....|..|--- .... ....|--- .... ....|--- .... ....
 F-3|..|C-4 AF.F ....|F-1 2A.F ....|F-1 2A.F ....
 F-3|..|F-1 2A.F ....|--- .... ....|--- .... ....
....|..|--- .... ....|--- .... ....|--- .... ....
....|..|--- .... ....|--- .... ....|--- .... ....
 F-4|..|C-4 AF.F ....|F-2 2A.F ....|F-2 2A.F ....
 F-4|..|F-2 2A.F ....|--- .... ....|--- .... ....
....|..|--- .... ....|--- .... ....|--- .... ....
....|..|--- .... ....|--- .... ....|--- .... ....
 F-3|..|C-4 AF.F ....|F-1 2A.F ....|F-1 2A.F ....
 F-3|..|F-1 2A.F ....|--- .... ....|--- .... ....
....|..|C-4 AF.F ....|--- .... ....|--- .... ....
....|..|--- .... ....|--- .... ....|--- .... ....
 F-4|..|C-4 AF.F ....|F-2 2A.F ....|F-2 2A.F ....
 F-4|..|F-2 2A.F ....|--- .... ....|--- .... ....
....|..|C-4 AF.F ....|--- .... ....|--- .... ....
....|..|--- .... ....|--- .... ....|--- .... ....
 F-3|..|C-4 AF.F ....|F-1 2A.F ....|F-1 2A.F ....
 F-3|..|F-1 2A.F ....|--- .... ....|--- .... ....
....|..|C-4 AF.F ....|--- .... ....|--- .... ....
....|..|--- .... ....|--- .... ....|--- .... ....
 F-4|..|C-4 AF.F ....|F-2 2A.F ....|F-2 2A.F ....
 F-4|..|F-2 2A.F ....|--- .... ....|--- .... ....
....|..|C-4 AF.F ....|--- .... ....|--- .... ....
....|..|--- .... ....|--- .... ....|--- .... ....
 F-3|..|C-4 AF.F ....|F-1 2A.F ....|F-1 2A.F ....
 F-3|..|F-1 2A.F ....|--- .... ....|--- .... ....
....|..|R-- .... ....|R-- .... ....|R-- .... ....
....|..|--- .... ....|--- .... ....|--- .... ....
....|..|C-4 AF.7 ....|A#5 2F.F ....|A#4 2F.F ....
 F-4|..|F-2 2F.7 ....|--- .... ....|--- .... ....
....|..|C-4 AF.A ....|--- .... ....|--- .... ....
....|..|--- .... ....|--- .... ....|--- .... ....
....|..|C-4 AF.7 ....|G#5 2F.F ....|G#4 2F.F ....
 F-3|..|F-1 2F.7 ....|A#5 2F.F ....|A#4 2F.F ....
....|..|C-4 AF.7 ....|--- .... ....|--- .... ....
....|..|--- .... ....|G#5 2F.F ....|G#4 2F.F ....
....|..|C-4 AF.7 ....|G-5 2F.F ....|G-4 2F.F ....
 F-4|..|F-2 2F.7 ....|--- .... ....|--- .... ....
....|..|C-4 AF.7 ....|R-- .... ....|R-- .... ....
....|..|--- .... ....|--- .... ....|--- .... ....
....|..|C-4 AF.F ....|G#5 2F.F ....|G#4 2F.F ....
 F-3|..|F-1 2F.7 ....|--- .... ....|--- .... ....
....|..|C-4 AF.7 ....|--- .... ....|--- .... ....
....|..|--- .... ....|--- .... ....|--- .... ....
 F-3|..|F-1 2A.F ....|F-1 2A.F ....|F-1 2A.F ....
 F-4|..|F-2 2F.7 ....|A#5 2F.A ....|A#4 2F.A ....
....|..|C-4 AF.7 ....|--- .... ....|--- .... ....
....|..|--- .... ....|G#5 2F.A ....|G#4 2F.A ....
....|..|C-4 AF.F ....|G-5 2F.F ....|G-4 2F.F ....
 F-3|..|F-1 2F.7 ....|R-- .... ....|R-- .... ....
....|..|R-- .... ....|R-- .... ....|R-- .... ....
....|..|--- .... ....|--- .... ....|--- .... ....
 F-3|..|F-1 2A.F ....|F-5 2F.F ....|F-4 2F.F ....
 F-3|..|--- .... ....|F-1 2A.F ....|F-1 2A.F ....
....|..|--- .... ....|--- .... ....|--- .... ....
....|..|--- .... ....|--- .... ....|--- .... ....
....|..|C-4 AF.F ....|G#5 2F.7 ....|G#4 2F.7 ....
....|..|R-- .... ....|A#5 2F.7 ....|A#4 2F.7 ....
....|..|--- .... ....|--- .... ....|--- .... ....
....|..|--- .... ....|G#5 2F.7 ....|G#4 2F.7 ....
 F-3|..|F-1 2A.F ....|F-1 2A.F ....|F-1 2A.F ....
....|..|R-- .... ....|R-- .... ....|R-- .... ....
....|..|--- .... ....|--- .... ....|--- .... ....
....|..|--- .... ....|--- .... ....|--- .... ....
....|..|C-4 AF.F ....|G#5 2F.7 ....|G#4 2F.7 ....
 F-3|..|R-- .... ....|F-1 2F.A ....|F-1 2F.A ....
....|..|--- .... ....|--- .... ....|--- .... ....
....|..|--- .... ....|--- .... ....|--- .... ....
 F-3|..|F-1 2A.F ....|F-5 2F.F ....|F-4 2F.F ....
 F-3|..|R-- .... ....|F-1 2A.F ....|F-1 2A.F ....
....|..|--- .... ....|--- .... ....|--- .... ....
....|..|--- .... ....|--- .... ....|--- .... ....
....|..|C-4 AF.F ....|G-5 2F.7 ....|G-4 2F.7 ....
....|..|R-- .... ....|R-- .... ....|R-- .... ....
....|..|--- .... ....|--- .... ....|--- .... ....
....|..|--- .... ....|--- .... ....|--- .... ....
 F-3|..|F-1 2A.F ....|E-5 2F.F ....|E-4 2F.F ....
 F-3|..|R-- .... ....|F-1 2A.F ....|F-1 2A.F ....
....|..|--- .... ....|--- .... ....|--- .... ....
....|..|--- .... ....|--- .... ....|--- .... ....
....|..|C-4 AF.F ....|F-5 2F.F ....|F-4 2F.F ....
....|..|R-- .... ....|R-- .... ....|R-- .... ....
....|..|--- .... ....|--- .... ....|--- .... ....
....|..|--- .... ....|--- .... ....|--- .... ....
 F-3|..|F-1 2A.F ....|E-5 2F.F ....|E-4 2F.F ....
 F-3|..|R-- .... ....|F-1 2A.F ....|F-1 2A.F ....
....|..|--- .... ....|--- .... ....|--- .... ....
....|..|--- .... ....|--- .... ....|--- .... ....
....|..|C-4 AF.F ....|C#5 2F.F ....|C#4 2F.F ....
....|..|R-- .... ....|R-- .... ....|R-- .... ....
....|..|--- .... ....|--- .... ....|--- .... ....
....|..|--- .... ....|--- .... ....|--- .... ....
 F-3|..|F-1 2A.F ....|A#5 2F.F ....|A#4 2F.F ....
 F-3|..|R-- .... ....|F-1 2A.F ....|F-1 2A.F ....
....|..|--- .... ....|--- .... ....|--- .... ....
....|..|--- .... ....|--- .... ....|--- .... ....
....|..|C-4 AF.F ....|G#5 2F.F ....|G#4 2F.F ....
....|..|R-- .... ....|A#5 2F.F ....|A#4 2F.F ....
....|..|--- .... ....|R-- .... ....|R-- .... ....
....|..|--- .... ....|G#5 2F.F ....|G#4 2F.F ....
 F-3|..|F-1 2A.F ....|G-5 2F.F ....|G-4 2F.F ....
 F-3|..|R-- .... ....|F-1 2A.F ....|F-1 2A.F ....
....|..|--- .... ....|--- .... ....|--- .... ....
....|..|--- .... ....|--- .... ....|--- .... ....

[Pattern40]
....|..|C-4 AF.F ....|G#5 2F.F ....|G#4 2F.F ....
....|..|R-- .... ....|R-- .... ....|R-- .... ....
....|..|--- .... ....|--- .... ....|--- .... ....
....|..|--- .... ....|--- .... ....|--- .... ....
 G#3|..|G#1 2A.F ....|G#1 2A.F ....|G#1 2A.F ....
 F-3|..|R-- .... ....|F-1 2F.7 ....|F-1 2F.7 ....
....|..|--- .... ....|R-- .... ....|R-- .... ....
....|..|--- .... ....|G#5 2F.A ....|G#4 2F.A ....
....|..|C-4 AF.F ....|G-5 2F.F ....|G-4 2F.F ....
....|..|R-- .... ....|R-- .... ....|R-- .... ....
....|..|--- .... ....|--- .... ....|--- .... ....
....|..|--- .... ....|--- .... ....|--- .... ....
 G#3|..|G#1 2A.F ....|F-5 2F.F ....|F-4 2F.F ....
 G#3|..|R-- .... ....|G#1 2A.F ....|G#1 2A.F ....
....|..|--- .... ....|--- .... ....|--- .... ....
....|..|--- .... ....|--- .... ....|--- .... ....
....|..|C-4 AF.F ....|G#5 2F.7 ....|G#4 2F.7 ....
....|..|R-- .... ....|A#5 2F.7 ....|A#4 2F.7 ....
....|..|--- .... ....|R-- .... ....|R-- .... ....
....|..|--- .... ....|G#5 2F.7 ....|G#4 2F.7 ....
 G#3|..|G#1 2A.F ....|G#1 2A.F ....|G#1 2A.F ....
 F-3|..|R-- .... ....|F-1 2F.7 ....|F-1 2F.7 ....
....|..|--- .... ....|--- .... ....|--- .... ....
....|..|--- .... ....|--- .... ....|--- .... ....
....|..|C-4 AF.F ....|G#5 2F.7 ....|G#4 2F.7 ....
....|..|R-- .... ....|R-- .... ....|R-- .... ....
....|..|--- .... ....|--- .... ....|--- .... ....
....|..|--- .... ....|--- .... ....|--- .... ....
 G#3|..|G#1 2A.F ....|E-5 2F.F ....|E-4 2F.F ....
 G#3|..|R-- .... ....|G#1 2A.F ....|G#1 2A.F ....
....|..|--- .... ....|--- .... ....|--- .... ....
....|..|--- .... ....|--- .... ....|--- .... ....
....|..|C-4 AF.F ....|F-5 2F.F ....|F-4 2F.F ....
....|..|R-- .... ....|R-- .... ....|R-- .... ....
....|..|--- .... ....|--- .... ....|--- .... ....
....|..|--- .... ....|--- .... ....|--- .... ....
 A#3|..|A#1 2A.F ....|G-5 2F.F ....|G-4 2F.F ....
 A#3|..|R-- .... ....|A#1 2A.F ....|A#1 2A.F ....
....|..|--- .... ....|--- .... ....|--- .... ....
....|..|--- .... ....|--- .... ....|--- .... ....
....|..|C-4 AF.F ....|G#5 2F.F ....|G#4 2F.F ....
....|..|R-- .... ....|R-- .... ....|R-- .... ....
....|..|--- .... ....|--- .... ....|--- .... ....
....|..|--- .... ....|--- .... ....|--- .... ....
 A#3|..|A#1 2A.F ....|A#5 2F.F ....|A#4 2F.F ....
 A#3|..|R-- .... ....|A#1 2A.F ....|A#1 2A.F ....
....|..|--- .... ....|--- .... ....|--- .... ....
....|..|--- .... ....|--- .... ....|--- .... ....
....|..|C-4 AF.F ....|R-- .... ....|R-- .... ....
 A#3|..|R-- .... ....|A#1 2F.A ....|A#1 2F.A ....
....|..|--- .... ....|--- .... ....|--- .... ....
....|..|--- .... ....|--- .... ....|--- .... ....
 A#3|..|A#1 2A.F ....|A#5 2F.F ....|A#4 2F.F ....
 A#3|..|R-- .... ....|A#1 2A.F ....|A#1 2A.F ....
....|..|--- .... ....|--- .... ....|--- .... ....
....|..|--- .... ....|--- .... ....|--- .... ....
....|..|C-4 AF.F ....|G#5 2F.F ....|G#4 2F.F ....
....|..|R-- .... ....|A#5 2F.F ....|A#4 2F.F ....
....|..|--- .... ....|R-- .... ....|R-- .... ....
....|..|--- .... ....|G#5 2F.F ....|G#4 2F.F ....
 A#3|..|A#1 2A.F ....|G-5 2F.F ....|G-4 2F.F ....
 A#3|..|R-- .... ....|A#1 2A.F ....|A#1 2A.F ....
....|..|--- .... ....|--- .... ....|--- .... ....
....|..|--- .... ....|--- .... ....|--- .... ....
....|..|C-4 AF.F ....|G#5 2F.F ....|G#4 2F.F ....
....|..|R-- .... ....|R-- .... ....|R-- .... ....
....|..|--- .... ....|--- .... ....|--- .... ....
....|..|--- .... ....|--- .... ....|--- .... ....
 F-3|..|F-1 2A.F ....|F-1 2A.F ....|F-1 2A.F ....
 A#3|..|R-- .... ....|A#1 2F.7 ....|A#1 2F.7 ....
....|..|--- .... ....|R-- .... ....|R-- .... ....
....|..|--- .... ....|G#5 2F.A ....|G#4 2F.A ....
....|..|C-4 AF.F ....|G-5 2F.F ....|G-4 2F.F ....
....|..|R-- .... ....|R-- .... ....|R-- .... ....
....|..|--- .... ....|--- .... ....|--- .... ....
....|..|--- .... ....|--- .... ....|--- .... ....
 F-3|..|F-1 2A.F ....|F-5 2F.F ....|F-4 2F.F ....
 F-3|..|R-- .... ....|F-1 2A.F ....|F-1 2A.F ....
....|..|--- .... ....|--- .... ....|--- .... ....
....|..|--- .... ....|--- .... ....|--- .... ....
....|..|C-4 AF.F ....|G#5 2F.7 ....|G#4 2F.7 ....
....|..|R-- .... ....|A#5 2F.7 ....|A#4 2F.7 ....
....|..|--- .... ....|R-- .... ....|R-- .... ....
....|..|--- .... ....|G#5 2F.7 ....|G#4 2F.7 ....
 F-3|..|F-1 2A.F ....|F-1 2A.F ....|F-1 2A.F ....
 A#3|..|R-- .... ....|A#1 2F.7 ....|A#1 2F.7 ....
....|..|--- .... ....|--- .... ....|--- .... ....
....|..|--- .... ....|--- .... ....|--- .... ....
....|..|C-4 AF.F ....|E-5 2F.F ....|E-4 2F.F ....
....|..|R-- .... ....|R-- .... ....|R-- .... ....
....|..|--- .... ....|--- .... ....|--- .... ....
....|..|--- .... ....|--- .... ....|--- .... ....
 F-3|..|F-1 2A.F ....|F-5 2F.F ....|F-4 2F.F ....
 F-3|..|R-- .... ....|F-1 2A.F ....|F-1 2A.F ....
....|..|--- .... ....|--- .... ....|--- .... ....
....|..|--- .... ....|--- .... ....|--- .... ....
....|..|C-4 AF.F ....|G-5 2F.7 ....|G-4 2F.7 ....
....|..|R-- .... ....|R-- .... ....|R-- .... ....
....|..|--- .... ....|--- .... ....|--- .... ....
....|..|--- .... ....|--- .... ....|--- .... ....
 F-3|..|F-1 2A.F ....|E-5 2F.F ....|E-4 2F.F ....
 F-3|..|R-- .... ....|F-1 2A.F ....|F-1 2A.F ....
....|..|--- .... ....|--- .... ....|--- .... ....
....|..|--- .... ....|--- .... ....|--- .... ....
....|..|C-4 AF.F ....|F-5 2F.F ....|F-4 2F.F ....
....|..|R-- .... ....|R-- .... ....|R-- .... ....
....|..|--- .... ....|--- .... ....|--- .... ....
....|..|--- .... ....|--- .... ....|--- .... ....
 F-3|..|F-1 2A.F ....|F-1 2A.F ....|F-1 2A.F ....
....|..|R-- .... ....|--- .... ....|--- .... ....
....|..|--- .... ....|--- .... ....|--- .... ....
....|..|--- .... ....|--- .... ....|--- .... ....
....|..|C-4 AF.F ....|E-5 2F.F ....|E-4 2F.F ....
....|..|R-- .... ....|R-- .... ....|R-- .... ....
....|..|--- .... ....|--- .... ....|--- .... ....
....|..|--- .... ....|--- .... ....|--- .... ....
 F-3|..|F-1 2A.F ....|F-5 2F.F ....|F-4 2F.F ....
 F-3|..|R-- .... ....|F-1 2A.F ....|F-1 2A.F ....
....|..|--- .... ....|--- .... ....|--- .... ....
....|..|--- .... ....|--- .... ....|--- .... ....
....|..|C-4 AF.F ....|G-5 2F.F ....|G-4 2F.F ....
....|..|R-- .... ....|R-- .... ....|R-- .... ....
....|..|--- .... ....|--- .... ....|--- .... ....
....|..|--- .... ....|--- .... ....|--- .... ....
 F-3|..|F-1 2A.F ....|G#5 2F.F ....|G#4 2F.F ....
 F-3|..|R-- .... ....|F-1 2A.F ....|F-1 2A.F ....
....|..|--- .... ....|--- .... ....|--- .... ....
....|..|--- .... ....|--- .... ....|--- .... ....

[Pattern41]
....|..|C-4 AF.F ....|A#5 2F.F ....|A#4 2F.F ....
....|..|R-- .... ....|R-- .... ....|R-- .... ....
....|..|--- .... ....|--- .... ....|--- .... ....
....|..|--- .... ....|--- .... ....|--- .... ....
 A#3|..|A#1 2A.F ....|A#1 2A.F ....|A#1 2A.F ....
....|..|R-- .... ....|R-- .... ....|R-- .... ....
....|..|--- .... ....|--- .... ....|--- .... ....
....|..|--- .... ....|--- .... ....|--- .... ....
....|..|C-4 AF.F ....|F-5 2F.F ....|F-4 2F.F ....
....|..|R-- .... ....|R-- .... ....|R-- .... ....
....|..|--- .... ....|--- .... ....|--- .... ....
....|..|--- .... ....|--- .... ....|--- .... ....
 A#3|..|A#1 2A.F ....|C-6 2F.F ....|C-5 2F.F ....
 A#3|..|R-- .... ....|A#1 2A.F ....|A#1 2A.F ....
....|..|--- .... ....|--- .... ....|--- .... ....
....|..|--- .... ....|--- .... ....|--- .... ....
....|..|C-4 AF.F ....|G-5 2F.7 ....|G-4 2F.7 ....
....|..|R-- .... ....|R-- .... ....|R-- .... ....
....|..|--- .... ....|--- .... ....|--- .... ....
....|..|--- .... ....|--- .... ....|--- .... ....
 A#3|..|A#1 2A.F ....|G-5 2F.F ....|G-4 2F.F ....
 A#3|..|R-- .... ....|A#1 2A.F ....|A#1 2A.F ....
....|..|--- .... ....|--- .... ....|--- .... ....
....|..|--- .... ....|--- .... ....|--- .... ....
....|..|C-4 AF.F ....|C#6 2F.F ....|C#5 2F.F ....
....|..|R-- .... ....|R-- .... ....|R-- .... ....
....|..|--- .... ....|--- .... ....|--- .... ....
....|..|--- .... ....|--- .... ....|--- .... ....
 A#3|..|A#1 2A.F ....|A#1 2A.F ....|A#1 2A.F ....
....|..|R-- .... ....|--- .... ....|--- .... ....
....|..|--- .... ....|--- .... ....|--- .... ....
....|..|--- .... ....|--- .... ....|--- .... ....
....|..|C-4 AF.F ....|G#5 2F.F ....|G#4 2F.F ....
....|..|R-- .... ....|R-- .... ....|R-- .... ....
....|..|--- .... ....|--- .... ....|--- .... ....
....|..|--- .... ....|--- .... ....|--- .... ....
 C#3|..|C#1 2A.F ....|E-6 2F.F ....|E-5 2F.F ....
 C#3|..|R-- .... ....|C#1 2A.F ....|C#1 2A.F ....
....|..|--- .... ....|--- .... ....|--- .... ....
....|..|--- .... ....|--- .... ....|--- .... ....
....|..|C-4 AF.F ....|R-- .... ....|R-- .... ....
....|..|R-- .... ....|--- .... ....|--- .... ....
....|..|--- .... ....|--- .... ....|--- .... ....
....|..|--- .... ....|--- .... ....|--- .... ....
 E-3|..|E-1 2A.F ....|C#6 2F.F ....|C#5 2F.F ....
 E-3|..|R-- .... ....|E-1 2A.F ....|E-1 2A.F ....
....|..|--- .... ....|--- .... ....|--- .... ....
....|..|--- .... ....|--- .... ....|--- .... ....
....|..|C-4 AF.F ....|F-6 2F.F ....|F-5 2F.F ....
....|..|R-- .... ....|R-- .... ....|R-- .... ....
....|..|--- .... ....|--- .... ....|--- .... ....
....|..|--- .... ....|--- .... ....|--- .... ....
 G-3|..|G-1 2A.F ....|A#5 2F.F ....|A#5 2F.F ....
 G-3|..|R-- .... ....|G-1 2A.F ....|G-1 2A.F ....
....|..|--- .... ....|--- .... ....|--- .... ....
....|..|--- .... ....|--- .... ....|--- .... ....
....|..|C-4 AF.F ....|G#5 2F.F ....|G#5 2F.F ....
....|..|R-- .... ....|A#5 2F.F ....|A#5 2F.F ....
....|..|--- .... ....|R-- .... ....|R-- .... ....
....|..|--- .... ....|G#5 2F.F ....|G#5 2F.F ....
 A#3|..|A#1 2A.F ....|G-5 2F.F ....|G-5 2F.F ....
 A#3|..|R-- .... ....|A#1 2A.F ....|A#1 2A.F ....
....|..|--- .... ....|--- .... ....|--- .... ....
....|..|--- .... ....|--- .... ....|--- .... ....
....|..|C-4 AF.F ....|G#5 2F.F ....|G#4 2F.F ....
....|..|R-- .... ....|R-- .... ....|R-- .... ....
....|..|--- .... ....|--- .... ....|--- .... ....
....|..|--- .... ....|--- .... ....|--- .... ....
 F-3|..|B-8 JF.F ....|F-1 2A.F ....|F-1 2A.F ....
 E-3|..|F-1 2A.F ....|E-1 2F.7 ....|E-1 2F.7 ....
....|..|B-8 JF.F ....|R-- .... ....|R-- .... ....
....|..|--- .... ....|G#5 2F.A ....|G#5 2F.A ....
....|..|C-4 AF.F ....|G-5 2F.F ....|G-4 2F.F ....
....|..|R-- .... ....|R-- .... ....|R-- .... ....
....|..|--- .... ....|--- .... ....|--- .... ....
....|..|--- .... ....|--- .... ....|--- .... ....
....|..|B-8 JF.F ....|F-5 2F.F ....|F-4 2F.F ....
 F-3|..|F-1 2A.F ....|F-1 2A.F ....|F-1 2A.F ....
....|..|B-8 JF.F ....|--- .... ....|--- .... ....
....|..|--- .... ....|--- .... ....|--- .... ....
....|..|C-4 AF.F ....|G#5 2F.7 ....|G#5 2F.7 ....
....|..|R-- .... ....|A#5 2F.7 ....|A#5 2F.7 ....
....|..|B-8 JF.A ....|R-- .... ....|R-- .... ....
....|..|--- .... ....|G#5 2F.7 ....|G#5 2F.7 ....
 F-3|..|B-8 JF.F ....|F-1 2A.F ....|F-1 2A.F ....
 A#3|..|F-1 2A.F ....|A#1 2F.7 ....|A#1 2F.7 ....
....|..|B-8 JF.F ....|--- .... ....|--- .... ....
....|..|--- .... ....|--- .... ....|--- .... ....
....|..|C-4 AF.F ....|G#5 2F.7 ....|G#4 2F.7 ....
....|..|R-- .... ....|R-- .... ....|R-- .... ....
....|..|B-8 JF.A ....|--- .... ....|--- .... ....
....|..|--- .... ....|--- .... ....|--- .... ....
....|..|B-8 JF.F ....|F-5 2F.F ....|F-4 2F.F ....
 F-3|..|F-1 2A.F ....|F-1 2A.F ....|F-1 2A.F ....
....|..|B-8 JF.F ....|--- .... ....|--- .... ....
....|..|--- .... ....|--- .... ....|--- .... ....
....|..|C-4 AF.F ....|G-5 2F.7 ....|G-4 2F.7 ....
....|..|R-- .... ....|R-- .... ....|R-- .... ....
....|..|B-8 JF.A ....|--- .... ....|--- .... ....
....|..|--- .... ....|--- .... ....|--- .... ....
....|..|B-8 JF.F ....|E-5 2F.F ....|E-4 2F.F ....
 F-3|..|F-1 2A.F ....|F-1 2A.F ....|F-1 2A.F ....
....|..|B-8 JF.F ....|--- .... ....|--- .... ....
....|..|--- .... ....|--- .... ....|--- .... ....
....|..|C-4 AF.F ....|F-5 2F.F ....|F-4 2F.F ....
....|..|R-- .... ....|R-- .... ....|R-- .... ....
....|..|B-8 JF.A ....|--- .... ....|--- .... ....
....|..|--- .... ....|--- .... ....|--- .... ....
....|..|B-8 JF.F ....|E-5 2F.F ....|E-4 2F.F ....
 F-3|..|F-1 2A.F ....|F-1 2A.F ....|F-1 2A.F ....
....|..|B-8 JF.F ....|--- .... ....|--- .... ....
....|..|--- .... ....|--- .... ....|--- .... ....
....|..|C-4 AF.F ....|C#5 2F.F ....|C#4 2F.F ....
....|..|R-- .... ....|R-- .... ....|R-- .... ....
....|..|B-8 JF.A ....|--- .... ....|--- .... ....
....|..|--- .... ....|--- .... ....|--- .... ....
....|..|B-8 JF.F ....|A#5 2F.F ....|A#4 2F.F ....
 F-3|..|F-1 2A.F ....|F-1 2A.F ....|F-1 2A.F ....
....|..|B-8 JF.F ....|--- .... ....|--- .... ....
....|..|--- .... ....|--- .... ....|--- .... ....
....|..|C-4 AF.F ....|G#5 2F.F ....|G#4 2F.F ....
....|..|R-- .... ....|A#5 2F.F ....|A#4 2F.F ....
....|..|B-8 JF.A ....|R-- .... ....|R-- .... ....
....|..|--- .... ....|G#5 2F.F ....|G#4 2F.F ....
....|..|B-8 JF.F ....|G-5 2F.F ....|G-4 2F.F ....
 F-3|..|F-1 2A.F ....|F-1 2A.F ....|F-1 2A.F ....
....|..|B-8 JF.F ....|--- .... ....|--- .... ....
....|..|--- .... ....|--- .... ....|--- .... ....

[Pattern42]
....|..|C-4 AF.F ....|G#5 2F.F ....|G#4 2F.F ....
....|..|R-- .... ....|R-- .... ....|R-- .... ....
....|..|B-8 JF.A ....|--- .... ....|--- .... ....
....|..|--- .... ....|--- .... ....|--- .... ....
 G#3|..|B-8 JF.F ....|G#1 2A.F ....|G#1 2A.F ....
 F-3|..|G#1 2A.F ....|F-1 2F.7 ....|F-1 2F.7 ....
....|..|B-8 JF.F ....|R-- .... ....|R-- .... ....
....|..|--- .... ....|G#5 2F.A ....|G#4 2F.A ....
....|..|C-4 AF.F ....|G-5 2F.F ....|G-4 2F.F ....
....|..|R-- .... ....|R-- .... ....|R-- .... ....
....|..|B-8 JF.A ....|--- .... ....|--- .... ....
....|..|--- .... ....|--- .... ....|--- .... ....
....|..|B-8 JF.F ....|F-5 2F.F ....|F-4 2F.F ....
 G#3|..|G#1 2A.F ....|G#1 2A.F ....|G#1 2A.F ....
....|..|B-8 JF.F ....|--- .... ....|--- .... ....
....|..|--- .... ....|--- .... ....|--- .... ....
....|..|C-4 AF.F ....|G#5 2F.7 ....|G#4 2F.7 ....
....|..|R-- .... ....|A#5 2F.7 ....|A#4 2F.7 ....
....|..|B-8 JF.A ....|R-- .... ....|R-- .... ....
....|..|--- .... ....|G#5 2F.7 ....|G#4 2F.7 ....
 G#3|..|B-8 JF.F ....|G#1 2A.F ....|G#1 2A.F ....
 F-3|..|G#1 2A.F ....|F-1 2F.7 ....|F-1 2F.7 ....
....|..|B-8 JF.F ....|--- .... ....|--- .... ....
....|..|--- .... ....|--- .... ....|--- .... ....
....|..|C-4 AF.F ....|G#5 2F.7 ....|G#4 2F.7 ....
....|..|R-- .... ....|R-- .... ....|R-- .... ....
....|..|B-8 JF.A ....|--- .... ....|--- .... ....
....|..|--- .... ....|--- .... ....|--- .... ....
....|..|B-8 JF.F ....|E-5 2F.F ....|E-4 2F.F ....
 G#3|..|G#1 2A.F ....|G#1 2A.F ....|G#1 2A.F ....
....|..|B-8 JF.F ....|--- .... ....|--- .... ....
....|..|--- .... ....|--- .... ....|--- .... ....
....|..|C-4 AF.F ....|F-5 2F.F ....|F-4 2F.F ....
....|..|R-- .... ....|R-- .... ....|R-- .... ....
....|..|B-8 JF.A ....|--- .... ....|--- .... ....
....|..|--- .... ....|--- .... ....|--- .... ....
....|..|B-8 JF.F ....|G-5 2F.F ....|G-4 2F.F ....
 A#3|..|A#1 2A.F ....|A#1 2A.F ....|A#1 2A.F ....
....|..|B-8 JF.F ....|--- .... ....|--- .... ....
....|..|--- .... ....|--- .... ....|--- .... ....
....|..|C-4 AF.F ....|G#5 2F.F ....|G#4 2F.F ....
....|..|R-- .... ....|R-- .... ....|R-- .... ....
....|..|B-8 JF.A ....|--- .... ....|--- .... ....
....|..|--- .... ....|--- .... ....|--- .... ....
....|..|B-8 JF.F ....|A#5 2F.F ....|A#4 2F.F ....
 A#3|..|A#1 2A.F ....|A#1 2A.F ....|A#1 2A.F ....
....|..|B-8 JF.F ....|--- .... ....|--- .... ....
....|..|--- .... ....|--- .... ....|--- .... ....
....|..|C-4 AF.F ....|R-- .... ....|R-- .... ....
 A#3|..|R-- .... ....|A#1 2F.A ....|A#1 2F.A ....
....|..|B-8 JF.A ....|--- .... ....|--- .... ....
....|..|--- .... ....|--- .... ....|--- .... ....
....|..|B-8 JF.F ....|A#5 2F.F ....|A#4 2F.F ....
 A#3|..|A#1 2A.F ....|A#1 2A.F ....|A#1 2A.F ....
....|..|B-8 JF.F ....|--- .... ....|--- .... ....
....|..|--- .... ....|--- .... ....|--- .... ....
....|..|C-4 AF.F ....|G#5 2F.F ....|G#4 2F.F ....
....|..|R-- .... ....|A#5 2F.F ....|A#4 2F.F ....
....|..|B-8 JF.A ....|R-- .... ....|R-- .... ....
....|..|--- .... ....|G#5 2F.F ....|G#4 2F.F ....
....|..|B-8 JF.F ....|G-5 2F.F ....|G-4 2F.F ....
 A#3|..|A#1 2A.F ....|A#1 2A.F ....|A#1 2A.F ....
....|..|B-8 JF.F ....|--- .... ....|--- .... ....
....|..|--- .... ....|--- .... ....|--- .... ....
....|..|C-4 AF.F ....|G#5 2F.F ....|G#4 2F.F ....
....|..|R-- .... ....|R-- .... ....|R-- .... ....
....|..|B-8 JF.A ....|--- .... ....|--- .... ....
....|..|--- .... ....|--- .... ....|--- .... ....
 F-3|..|B-8 JF.F ....|F-1 2A.F ....|F-1 2A.F ....
 A#3|..|F-1 2A.F ....|A#1 2F.7 ....|A#1 2F.7 ....
....|..|B-8 JF.F ....|R-- .... ....|R-- .... ....
....|..|--- .... ....|G#5 2F.A ....|G#4 2F.A ....
....|..|C-4 AF.F ....|G-5 2F.F ....|G-4 2F.F ....
....|..|R-- .... ....|R-- .... ....|R-- .... ....
....|..|B-8 JF.A ....|--- .... ....|--- .... ....
....|..|--- .... ....|--- .... ....|--- .... ....
....|..|B-8 JF.F ....|F-5 2F.F ....|F-4 2F.F ....
 F-3|..|F-1 2A.F ....|F-1 2A.F ....|F-1 2A.F ....
....|..|B-8 JF.F ....|--- .... ....|--- .... ....
....|..|--- .... ....|--- .... ....|--- .... ....
....|..|C-4 AF.F ....|G#5 2F.7 ....|G#4 2F.7 ....
....|..|R-- .... ....|A#5 2F.7 ....|A#4 2F.7 ....
....|..|B-8 JF.A ....|R-- .... ....|R-- .... ....
....|..|--- .... ....|G#5 2F.7 ....|G#4 2F.7 ....
 F-3|..|B-8 JF.F ....|F-1 2A.F ....|F-1 2A.F ....
 A#3|..|F-1 2A.F ....|A#1 2F.7 ....|A#1 2F.7 ....
....|..|B-8 JF.F ....|--- .... ....|--- .... ....
....|..|--- .... ....|--- .... ....|--- .... ....
....|..|C-4 AF.F ....|E-5 2F.F ....|E-4 2F.F ....
....|..|R-- .... ....|R-- .... ....|R-- .... ....
....|..|B-8 JF.A ....|--- .... ....|--- .... ....
....|..|--- .... ....|--- .... ....|--- .... ....
....|..|B-8 JF.F ....|F-5 2F.F ....|F-4 2F.F ....
 F-3|..|F-1 2A.F ....|F-1 2A.F ....|F-1 2A.F ....
....|..|B-8 JF.F ....|--- .... ....|--- .... ....
....|..|--- .... ....|--- .... ....|--- .... ....
....|..|C-4 AF.F ....|G-5 2F.7 ....|G-4 2F.7 ....
....|..|R-- .... ....|R-- .... ....|R-- .... ....
....|..|B-8 JF.A ....|--- .... ....|--- .... ....
....|..|--- .... ....|--- .... ....|--- .... ....
....|..|B-8 JF.F ....|E-5 2F.F ....|E-4 2F.F ....
 F-3|..|F-1 2A.F ....|F-1 2A.F ....|F-1 2A.F ....
....|..|B-8 JF.F ....|--- .... ....|--- .... ....
....|..|--- .... ....|--- .... ....|--- .... ....
....|..|C-4 AF.F ....|F-5 2F.F ....|F-4 2F.F ....
....|..|R-- .... ....|R-- .... ....|R-- .... ....
....|..|B-8 JF.A ....|--- .... ....|--- .... ....
....|..|--- .... ....|--- .... ....|--- .... ....
 F-3|..|B-8 JF.F ....|F-1 2A.F ....|F-1 2A.F ....
 F-3|..|F-1 2A.F ....|--- .... ....|--- .... ....
....|..|B-8 JF.F ....|--- .... ....|--- .... ....
....|..|--- .... ....|--- .... ....|--- .... ....
....|..|C-4 AF.F ....|E-5 2F.F ....|E-4 2F.F ....
....|..|R-- .... ....|R-- .... ....|R-- .... ....
....|..|B-8 JF.A ....|--- .... ....|--- .... ....
....|..|--- .... ....|--- .... ....|--- .... ....
....|..|B-8 JF.F ....|F-5 2F.F ....|F-4 2F.F ....
 F-3|..|F-1 2A.F ....|F-1 2A.F ....|F-1 2A.F ....
....|..|B-8 JF.F ....|--- .... ....|--- .... ....
....|..|--- .... ....|--- .... ....|--- .... ....
....|..|C-4 AF.F ....|G-5 2F.F ....|G-4 2F.F ....
....|..|R-- .... ....|R-- .... ....|R-- .... ....
....|..|B-8 JF.A ....|--- .... ....|--- .... ....
....|..|--- .... ....|--- .... ....|--- .... ....
....|..|B-8 JF.F ....|G#5 2F.F ....|G#4 2F.F ....
 F-3|..|F-1 2A.F ....|F-1 2A.F ....|F-1 2A.F ....
....|..|B-8 JF.F ....|--- .... ....|--- .... ....
....|..|--- .... ....|--- .... ....|--- .... ....

[Pattern43]
....|..|C-4 AF.F ....|A#5 2F.F ....|A#4 2F.F ....
....|..|R-- .... ....|R-- .... ....|R-- .... ....
....|..|B-8 JF.A ....|--- .... ....|--- .... ....
....|..|--- .... ....|--- .... ....|--- .... ....
 A#3|..|B-8 JF.F ....|A#1 2A.F ....|A#1 2A.F ....
 A#3|..|A#1 2A.F ....|R-- .... ....|R-- .... ....
....|..|B-8 JF.F ....|--- .... ....|--- .... ....
....|..|--- .... ....|--- .... ....|--- .... ....
....|..|C-4 AF.F ....|F-5 2F.F ....|F-4 2F.F ....
....|..|R-- .... ....|R-- .... ....|R-- .... ....
....|..|B-8 JF.A ....|--- .... ....|--- .... ....
....|..|--- .... ....|--- .... ....|--- .... ....
....|..|B-8 JF.F ....|C-6 2F.F ....|C-5 2F.F ....
 A#3|..|A#1 2A.F ....|A#1 2A.F ....|A#1 2A.F ....
....|..|B-8 JF.F ....|--- .... ....|--- .... ....
....|..|--- .... ....|--- .... ....|--- .... ....
....|..|C-4 AF.F ....|G-5 2F.7 ....|G-4 2F.7 ....
....|..|R-- .... ....|R-- .... ....|R-- .... ....
....|..|B-8 JF.A ....|--- .... ....|--- .... ....
....|..|--- .... ....|--- .... ....|--- .... ....
....|..|B-8 JF.F ....|G-5 2F.F ....|G-4 2F.F ....
 A#3|..|A#1 2A.F ....|A#1 2A.F ....|A#1 2A.F ....
....|..|B-8 JF.F ....|--- .... ....|--- .... ....
....|..|--- .... ....|--- .... ....|--- .... ....
....|..|C-4 AF.F ....|C#6 2F.F ....|C#5 2F.F ....
....|..|R-- .... ....|R-- .... ....|R-- .... ....
....|..|B-8 JF.A ....|--- .... ....|--- .... ....
....|..|--- .... ....|--- .... ....|--- .... ....
 A#3|..|B-8 JF.F ....|A#1 2A.F ....|A#1 2A.F ....
 A#3|..|A#1 2A.F ....|--- .... ....|--- .... ....
....|..|B-8 JF.F ....|--- .... ....|--- .... ....
....|..|--- .... ....|--- .... ....|--- .... ....
....|..|B-8 JF.F ....|G#5 2F.F ....|G#4 2F.F ....
....|..|R-- .... ....|R-- .... ....|R-- .... ....
....|..|R-- .... ....|--- .... ....|--- .... ....
....|..|--- .... ....|--- .... ....|--- .... ....
....|..|C-4 AF.F ....|E-6 2F.F ....|E-5 2F.F ....
 C#3|..|C#1 2A.F ....|C#1 2A.F ....|C#1 2A.F ....
....|..|C-5 BF.F ....|--- .... ....|--- .... ....
....|..|--- .... ....|--- .... ....|--- .... ....
....|..|C-5 BF.F ....|R-- .... ....|R-- .... ....
....|..|R-- .... ....|--- .... ....|--- .... ....
....|..|C-5 BF.F ....|--- .... ....|--- .... ....
....|..|--- .... ....|--- .... ....|--- .... ....
....|..|B-8 JF.F ....|C#6 2F.F ....|C#5 2F.F ....
 E-3|..|E-1 2A.F ....|E-1 2A.F ....|E-1 2A.F ....
....|..|B-8 JF.F ....|--- .... ....|--- .... ....
....|..|--- .... ....|--- .... ....|--- .... ....
....|..|C-4 AF.F ....|F-6 2F.F ....|F-5 2F.F ....
....|..|R-- .... ....|R-- .... ....|R-- .... ....
....|..|C-5 BF.F ....|--- .... ....|--- .... ....
....|..|--- .... ....|--- .... ....|--- .... ....
 G-3|..|C-5 BF.F ....|G-1 2A.F ....|A#4 2F.F ....
 G-3|..|G-1 2A.F ....|--- .... ....|G-1 2A.F ....
....|..|C-5 BF.F ....|--- .... ....|--- .... ....
....|..|--- .... ....|--- .... ....|--- .... ....
....|..|C-4 AF.F ....|G#5 2F.7 ....|G#4 2F.F ....
....|..|C-5 BF.F ....|R-- .... ....|A#4 2F.F ....
....|..|C-5 BF.F ....|--- .... ....|R-- .... ....
....|..|C-5 BF.F ....|--- .... ....|G#4 2F.F ....
 A#3|..|C-5 BF.F ....|A#1 2A.F ....|G-4 2F.F ....
 A#3|..|C-5 BF.F ....|C#1 2F.7 ....|A#1 2A.F ....
....|..|C-5 BF.F ....|--- .... ....|--- .... ....
....|..|C-5 BF.F ....|--- .... ....|--- .... ....
....|..|C-4 AF.F ....|G#5 2F.F ....|G#4 2F.F ....
....|..|R-- .... ....|R-- .... ....|R-- .... ....
....|..|C-5 BF.7 ....|--- .... ....|--- .... ....
....|..|--- .... ....|--- .... ....|--- .... ....
 F-3|..|B-8 JF.F ....|F-1 2A.F ....|F-1 2A.F ....
 E-3|..|F-1 2A.F ....|E-1 2F.7 ....|E-1 2F.7 ....
....|..|B-8 JF.F ....|--- .... ....|R-- .... ....
....|..|C-5 BF.A ....|--- .... ....|G#4 2F.A ....
....|..|C-4 AF.F ....|G-5 2F.F ....|G-4 2F.F ....
....|..|R-- .... ....|R-- .... ....|R-- .... ....
....|..|C-5 BF.7 ....|--- .... ....|--- .... ....
....|..|C-5 BF.A ....|--- .... ....|--- .... ....
....|..|B-8 JF.F ....|F-5 2F.F ....|F-4 2F.F ....
 F-3|..|F-1 2A.F ....|F-1 2A.F ....|F-1 2A.F ....
....|..|B-8 JF.F ....|--- .... ....|--- .... ....
....|..|--- .... ....|--- .... ....|--- .... ....
....|..|C-4 AF.F ....|R-- .... ....|G#4 2F.7 ....
....|..|C-5 BF.7 ....|--- .... ....|A#4 2F.7 ....
....|..|C-5 BF.7 ....|--- .... ....|R-- .... ....
....|..|C-5 BF.7 ....|--- .... ....|G#4 2F.7 ....
 F-3|..|B-8 JF.F ....|F-1 2A.F ....|F-1 2A.F ....
 A#3|..|F-1 2A.F ....|R-- .... ....|A#1 2F.7 ....
....|..|B-8 JF.F ....|--- .... ....|--- .... ....
....|..|C-5 BF.7 ....|--- .... ....|--- .... ....
....|..|C-4 AF.F ....|G#5 2F.7 ....|G#4 2F.7 ....
....|..|R-- .... ....|R-- .... ....|R-- .... ....
....|..|B-8 JF.A ....|--- .... ....|--- .... ....
....|..|--- .... ....|--- .... ....|--- .... ....
....|..|B-8 JF.F ....|F-5 2F.F ....|F-4 2F.F ....
 F-3|..|F-1 2A.F ....|F-1 2A.F ....|F-1 2A.F ....
....|..|B-8 JF.F ....|--- .... ....|--- .... ....
....|..|--- .... ....|--- .... ....|--- .... ....
....|..|C-4 AF.F ....|G-5 2F.7 ....|G-4 2F.7 ....
....|..|R-- .... ....|R-- .... ....|R-- .... ....
....|..|B-8 JF.A ....|--- .... ....|--- .... ....
....|..|--- .... ....|--- .... ....|--- .... ....
....|..|B-8 JF.F ....|E-5 2F.F ....|E-4 2F.F ....
 F-3|..|F-1 2A.F ....|F-1 2A.F ....|F-1 2A.F ....
....|..|B-8 JF.F ....|--- .... ....|--- .... ....
....|..|--- .... ....|--- .... ....|--- .... ....
....|..|C-4 AF.F ....|F-5 2F.F ....|F-4 2F.F ....
....|..|R-- .... ....|R-- .... ....|R-- .... ....
....|..|B-8 JF.A ....|--- .... ....|--- .... ....
....|..|--- .... ....|--- .... ....|--- .... ....
....|..|B-8 JF.F ....|E-5 2F.F ....|E-4 2F.F ....
 F-3|..|F-1 2A.F ....|F-1 2A.F ....|F-1 2A.F ....
....|..|B-8 JF.F ....|--- .... ....|--- .... ....
....|..|--- .... ....|--- .... ....|--- .... ....
....|..|C-4 AF.F ....|C#5 2F.F ....|C#4 2F.F ....
....|..|R-- .... ....|R-- .... ....|R-- .... ....
....|..|B-8 JF.A ....|--- .... ....|--- .... ....
....|..|--- .... ....|--- .... ....|--- .... ....
....|..|B-8 JF.F ....|A#5 2F.F ....|A#4 2F.F ....
 F-3|..|F-1 2A.F ....|F-1 2A.F ....|F-1 2A.F ....
....|..|B-8 JF.F ....|--- .... ....|--- .... ....
....|..|--- .... ....|--- .... ....|--- .... ....
....|..|C-4 AF.F ....|G#5 2F.F ....|G#4 2F.F ....
....|..|R-- .... ....|A#5 2F.F ....|A#4 2F.F ....
....|..|B-8 JF.A ....|R-- .... ....|R-- .... ....
....|..|--- .... ....|G#5 2F.F ....|G#4 2F.F ....
....|..|B-8 JF.F ....|G-5 2F.F ....|G-4 2F.F ....
 F-3|..|F-1 2A.F ....|F-1 2A.F ....|F-1 2A.F ....
....|..|B-8 JF.F ....|--- .... ....|--- .... ....
....|..|--- .... ....|--- .... ....|--- .... ....

[Pattern45]
....|..|C-4 AF.F ....|A#5 2F.F ....|A#4 2F.F ....
....|..|R-- .... ....|R-- .... ....|R-- .... ....
....|..|R-- .... ....|--- .... ....|--- .... ....
....|..|--- .... ....|--- .... ....|--- .... ....
 A#3|..|B-8 JF.F ....|A#1 2A.F ....|A#1 2A.F ....
 A#3|..|A#1 2A.F ....|R-- .... ....|R-- .... ....
....|..|B-8 JF.F ....|--- .... ....|--- .... ....
....|..|--- .... ....|--- .... ....|--- .... ....
....|..|C-4 BF.F ....|F-5 2F.F ....|F-4 2F.F ....
....|..|R-- .... ....|R-- .... ....|R-- .... ....
....|..|R-- .... ....|--- .... ....|--- .... ....
....|..|--- .... ....|--- .... ....|--- .... ....
....|..|C-4 AF.F ....|C-6 2F.F ....|C-5 2F.F ....
 A#3|..|A#1 2A.F ....|A#1 2A.F ....|A#1 2A.F ....
....|..|B-8 JF.F ....|--- .... ....|--- .... ....
....|..|--- .... ....|--- .... ....|--- .... ....
....|..|B-8 JF.F ....|G-5 2F.7 ....|G-4 2F.7 ....
....|..|R-- .... ....|R-- .... ....|R-- .... ....
....|..|R-- .... ....|--- .... ....|--- .... ....
....|..|--- .... ....|--- .... ....|--- .... ....
....|..|C-4 BF.F ....|G-5 2F.F ....|G-4 2F.F ....
 A#3|..|A#1 2A.F ....|A#1 2A.F ....|A#1 2A.F ....
....|..|B-8 JF.F ....|--- .... ....|--- .... ....
....|..|--- .... ....|--- .... ....|--- .... ....
....|..|C-4 AF.F ....|C#6 2F.F ....|C#5 2F.F ....
....|..|R-- .... ....|R-- .... ....|R-- .... ....
....|..|R-- .... ....|--- .... ....|--- .... ....
....|..|--- .... ....|--- .... ....|--- .... ....
 A#3|..|C-5 BF.F ....|A#1 2A.F ....|A#1 2A.F ....
....|..|C-5 BF.F ....|--- .... ....|--- .... ....
....|..|C-5 BF.F ....|--- .... ....|--- .... ....
....|..|C-5 BF.F ....|--- .... ....|--- .... ....
....|..|C-5 BF.F ....|G#5 2F.F ....|G#4 2F.F ....
....|..|R-- .... ....|R-- .... ....|R-- .... ....
....|..|R-- .... ....|--- .... ....|--- .... ....
....|..|--- .... ....|--- .... ....|--- .... ....
....|..|C-4 AF.F ....|E-6 2F.F ....|E-5 2F.F ....
 C#3|..|C#1 2A.F ....|C#1 2A.F ....|C#1 2A.F ....
....|..|B-8 JF.F ....|--- .... ....|--- .... ....
....|..|--- .... ....|--- .... ....|--- .... ....
....|..|B-8 JF.F ....|R-- .... ....|R-- .... ....
....|..|R-- .... ....|--- .... ....|--- .... ....
....|..|R-- .... ....|--- .... ....|--- .... ....
....|..|C-5 BF.A ....|--- .... ....|--- .... ....
....|..|B-8 JF.F ....|C#6 2F.F ....|C#5 2F.F ....
 E-3|..|E-1 2A.F ....|E-1 2A.F ....|E-1 2A.F ....
....|..|B-8 JF.F ....|--- .... ....|--- .... ....
....|..|--- .... ....|--- .... ....|--- .... ....
....|..|C-4 AF.F ....|F-6 2F.F ....|F-5 2F.F ....
....|..|R-- .... ....|R-- .... ....|R-- .... ....
....|..|R-- .... ....|--- .... ....|--- .... ....
....|..|--- .... ....|--- .... ....|--- .... ....
 G-3|..|B-8 JF.F ....|G-1 2A.F ....|A#4 2F.F ....
 G-3|..|G-1 2A.F ....|--- .... ....|G-1 2A.F ....
....|..|B-8 JF.F ....|--- .... ....|--- .... ....
....|..|C-5 BF.7 ....|--- .... ....|--- .... ....
....|..|C-4 AF.F ....|G#5 2F.7 ....|G#4 2F.F ....
....|..|R-- .... ....|R-- .... ....|A#4 2F.F ....
....|..|R-- .... ....|--- .... ....|R-- .... ....
....|..|--- .... ....|--- .... ....|G#4 2F.F ....
 A#3|..|B-8 JF.F ....|A#1 2A.F ....|G-4 2F.F ....
 A#3|..|A#1 2A.F ....|C#1 2F.7 ....|A#1 2A.F ....
....|..|B-8 JF.F ....|--- .... ....|--- .... ....
....|..|--- .... ....|--- .... ....|--- .... ....
....|..|C-4 AF.F ....|R-- .... ....|G#4 2F.F ....
....|..|R-- .... ....|--- .... ....|R-- .... ....
....|..|R-- .... ....|--- .... ....|--- .... ....
....|..|--- .... ....|--- .... ....|--- .... ....
 F-3|..|F-1 2A.F ....|F-1 2A.F ....|F-1 2A.F ....
 E-3|..|E-1 2F.7 ....|E-1 2F.7 ....|E-1 2F.7 ....
....|..|B-8 JF.7 ....|--- .... ....|R-- .... ....
....|..|--- .... ....|--- .... ....|G#4 2F.A ....
....|..|C-4 AF.F ....|F-6 2F.7 ....|G-4 2F.F ....
....|..|R-- .... ....|R-- .... ....|R-- .... ....
....|..|R-- .... ....|--- .... ....|--- .... ....
....|..|--- .... ....|--- .... ....|--- .... ....
 F-3|..|F-1 2A.F ....|F-1 2A.F ....|C-4 2F.F ....
 F-3|..|G-1 2F.7 ....|--- .... ....|F-1 2A.F ....
....|..|B-8 JF.7 ....|--- .... ....|--- .... ....
....|..|--- .... ....|--- .... ....|--- .... ....
....|..|C-4 AF.F ....|R-- .... ....|G#4 2F.7 ....
....|..|R-- .... ....|--- .... ....|A#4 2F.7 ....
....|..|R-- .... ....|--- .... ....|R-- .... ....
....|..|--- .... ....|--- .... ....|G#4 2F.7 ....
 F-3|..|F-1 2A.F ....|F-1 2A.F ....|F-1 2A.F ....
 A#3|..|A#1 2F.7 ....|--- .... ....|A#1 2F.7 ....
....|..|B-8 JF.7 ....|--- .... ....|--- .... ....
....|..|--- .... ....|--- .... ....|--- .... ....
....|..|C-4 AF.F ....|R-- .... ....|E-4 2F.F ....
....|..|R-- .... ....|--- .... ....|R-- .... ....
....|..|--- .... ....|--- .... ....|--- .... ....
....|..|--- .... ....|--- .... ....|--- .... ....
 F-3|..|F-1 2A.F ....|F-1 2A.F ....|F-4 2F.F ....
 F-3|..|R-- .... ....|--- .... ....|F-1 2A.F ....
....|..|--- .... ....|--- .... ....|--- .... ....
....|..|--- .... ....|--- .... ....|--- .... ....
....|..|C-4 AF.F ....|R-- .... ....|G-4 2F.7 ....
....|..|R-- .... ....|--- .... ....|R-- .... ....
....|..|--- .... ....|--- .... ....|--- .... ....
....|..|--- .... ....|--- .... ....|--- .... ....
 F-3|..|F-1 2A.F ....|F-1 2A.F ....|E-4 2F.F ....
 F-3|..|R-- .... ....|--- .... ....|F-1 2A.F ....
....|..|--- .... ....|--- .... ....|--- .... ....
....|..|--- .... ....|--- .... ....|--- .... ....
....|..|C-4 AF.F ....|R-- .... ....|F-4 2F.F ....
....|..|R-- .... ....|--- .... ....|R-- .... ....
....|..|--- .... ....|--- .... ....|--- .... ....
....|..|--- .... ....|--- .... ....|--- .... ....
 F-3|..|F-1 2A.F ....|F-1 2A.F ....|E-4 2F.F ....
 F-3|..|R-- .... ....|--- .... ....|F-1 2A.F ....
....|..|--- .... ....|--- .... ....|--- .... ....
....|..|--- .... ....|--- .... ....|--- .... ....
....|..|C-4 AF.F ....|R-- .... ....|C#4 2F.F ....
....|..|R-- .... ....|--- .... ....|R-- .... ....
....|..|--- .... ....|--- .... ....|--- .... ....
....|..|--- .... ....|--- .... ....|--- .... ....
 F-3|..|F-1 2A.F ....|F-1 2A.F ....|A#4 2F.F ....
 F-3|..|R-- .... ....|--- .... ....|F-1 2A.F ....
....|..|--- .... ....|--- .... ....|--- .... ....
....|..|--- .... ....|--- .... ....|--- .... ....
....|..|C-4 AF.F ....|R-- .... ....|G#4 2F.F ....
....|..|R-- .... ....|--- .... ....|A#4 2F.F ....
....|..|--- .... ....|--- .... ....|R-- .... ....
....|..|--- .... ....|--- .... ....|G#4 2F.F ....
 F-3|..|F-1 2A.F ....|F-1 2A.F ....|G-4 2F.F ....
 F-3|..|R-- .... ....|--- .... ....|F-1 2A.F ....
....|..|--- .... ....|--- .... ....|--- .... ....
....|..|--- .... ....|--- .... ....|--- .... ....

[Pattern46]
....|..|C-4 AF.F ....|R-- .... ....|G#4 2F.F ....
....|..|R-- .... ....|--- .... ....|R-- .... ....
....|..|--- .... ....|--- .... ....|--- .... ....
....|..|--- .... ....|--- .... ....|--- .... ....
 G#3|..|G#1 2A.F ....|G#1 2A.F ....|G#1 2A.F ....
 F-3|..|R-- .... ....|--- .... ....|F-1 2F.7 ....
....|..|--- .... ....|--- .... ....|R-- .... ....
....|..|--- .... ....|--- .... ....|G#4 2F.A ....
....|..|C-4 AF.F ....|R-- .... ....|G-4 2F.F ....
....|..|R-- .... ....|--- .... ....|R-- .... ....
....|..|--- .... ....|--- .... ....|--- .... ....
....|..|--- .... ....|--- .... ....|--- .... ....
 G#3|..|G#1 2A.F ....|G#1 2A.F ....|G#3 2F.F ....
 G#3|..|R-- .... ....|--- .... ....|G#1 2A.F ....
....|..|--- .... ....|--- .... ....|--- .... ....
....|..|--- .... ....|--- .... ....|--- .... ....
....|..|C-4 AF.F ....|R-- .... ....|G#4 2F.7 ....
....|..|R-- .... ....|--- .... ....|A#4 2F.7 ....
....|..|--- .... ....|--- .... ....|R-- .... ....
....|..|--- .... ....|--- .... ....|G#4 2F.7 ....
 G#3|..|G#1 2A.F ....|G#1 2A.F ....|G#1 2A.F ....
 F-3|..|R-- .... ....|--- .... ....|F-1 2F.7 ....
....|..|--- .... ....|--- .... ....|--- .... ....
....|..|--- .... ....|--- .... ....|--- .... ....
....|..|C-4 AF.F ....|R-- .... ....|G#4 2F.7 ....
....|..|R-- .... ....|--- .... ....|R-- .... ....
....|..|--- .... ....|--- .... ....|--- .... ....
....|..|--- .... ....|--- .... ....|--- .... ....
 G#3|..|G#1 2A.F ....|G#1 2A.F ....|C-4 2F.F ....
 G#3|..|R-- .... ....|--- .... ....|G#1 2A.F ....
....|..|--- .... ....|--- .... ....|--- .... ....
....|..|--- .... ....|--- .... ....|--- .... ....
....|..|C-4 AF.F ....|R-- .... ....|C#4 2F.F ....
....|..|R-- .... ....|--- .... ....|R-- .... ....
....|..|--- .... ....|--- .... ....|--- .... ....
....|..|--- .... ....|--- .... ....|--- .... ....
 A#3|..|A#1 2A.F ....|A#1 2A.F ....|C-4 2F.F ....
 A#3|..|R-- .... ....|--- .... ....|A#1 2A.F ....
....|..|--- .... ....|--- .... ....|--- .... ....
....|..|--- .... ....|--- .... ....|--- .... ....
....|..|C-4 AF.F ....|R-- .... ....|C#4 2F.F ....
....|..|R-- .... ....|--- .... ....|R-- .... ....
....|..|--- .... ....|--- .... ....|--- .... ....
....|..|--- .... ....|--- .... ....|--- .... ....
 A#3|..|A#1 2A.F ....|A#1 2A.F ....|A#4 2F.F ....
 A#3|..|R-- .... ....|--- .... ....|A#1 2A.F ....
....|..|--- .... ....|--- .... ....|--- .... ....
....|..|--- .... ....|--- .... ....|--- .... ....
....|..|C-4 AF.F ....|R-- .... ....|R-- .... ....
 A#3|..|R-- .... ....|--- .... ....|A#1 2F.A ....
....|..|--- .... ....|--- .... ....|--- .... ....
....|..|--- .... ....|--- .... ....|--- .... ....
 A#3|..|A#1 2A.F ....|A#1 2A.F ....|A#4 2F.F ....
 A#3|..|R-- .... ....|--- .... ....|A#1 2A.F ....
....|..|--- .... ....|--- .... ....|--- .... ....
....|..|--- .... ....|--- .... ....|--- .... ....
....|..|C-4 AF.F ....|R-- .... ....|G#4 2F.F ....
....|..|R-- .... ....|--- .... ....|A#4 2F.F ....
....|..|--- .... ....|--- .... ....|G#4 2F.F ....
....|..|--- .... ....|--- .... ....|R-- .... ....
 A#3|..|A#1 2A.F ....|A#1 2A.F ....|G-4 2F.F ....
 A#3|..|R-- .... ....|--- .... ....|A#1 2A.F ....
....|..|--- .... ....|--- .... ....|--- .... ....
....|..|--- .... ....|--- .... ....|--- .... ....
....|..|C-4 AF.F ....|R-- .... ....|G#4 2F.F ....
....|..|R-- .... ....|--- .... ....|R-- .... ....
....|..|--- .... ....|--- .... ....|--- .... ....
....|..|--- .... ....|--- .... ....|--- .... ....
 F-3|..|F-1 2A.F ....|F-1 2A.F ....|F-1 2A.F ....
 A#3|..|R-- .... ....|--- .... ....|A#1 2F.7 ....
....|..|--- .... ....|--- .... ....|G#4 2F.A ....
....|..|--- .... ....|--- .... ....|R-- .... ....
....|..|C-4 AF.F ....|R-- .... ....|G-4 2F.F ....
....|..|R-- .... ....|--- .... ....|R-- .... ....
....|..|--- .... ....|--- .... ....|--- .... ....
....|..|--- .... ....|--- .... ....|--- .... ....
 F-3|..|F-1 2A.F ....|F-1 2A.F ....|F-4 2F.F ....
 F-3|..|R-- .... ....|--- .... ....|F-1 2A.F ....
....|..|--- .... ....|--- .... ....|--- .... ....
....|..|--- .... ....|--- .... ....|--- .... ....
....|..|C-4 AF.F ....|R-- .... ....|G#4 2F.7 ....
....|..|R-- .... ....|--- .... ....|A#4 2F.7 ....
....|..|--- .... ....|--- .... ....|G#4 2F.7 ....
....|..|--- .... ....|--- .... ....|R-- .... ....
 F-3|..|F-1 2A.F ....|F-1 2A.F ....|C-4 2F.F ....
 F-3|..|R-- .... ....|--- .... ....|F-1 2A.F ....
....|..|--- .... ....|--- .... ....|--- .... ....
....|..|--- .... ....|--- .... ....|--- .... ....
....|..|C-4 AF.F ....|R-- .... ....|C-5 2F.F ....
....|..|R-- .... ....|--- .... ....|R-- .... ....
....|..|--- .... ....|--- .... ....|--- .... ....
....|..|--- .... ....|--- .... ....|--- .... ....
 F-3|..|F-1 2A.F ....|F-1 2A.F ....|G#4 2F.F ....
 F-3|..|R-- .... ....|--- .... ....|F-1 2A.F ....
....|..|--- .... ....|--- .... ....|--- .... ....
....|..|--- .... ....|--- .... ....|--- .... ....
....|..|C-4 AF.F ....|R-- .... ....|G-4 2F.7 ....
....|..|R-- .... ....|--- .... ....|R-- .... ....
....|..|--- .... ....|--- .... ....|A#4 2F.F ....
....|..|--- .... ....|--- .... ....|--- .... ....
 F-3|..|F-1 2A.F ....|F-1 2A.F ....|G#4 2F.F ....
 F-3|..|R-- .... ....|--- .... ....|F-1 2A.F ....
....|..|--- .... ....|--- .... ....|G-4 2F.F ....
....|..|--- .... ....|--- .... ....|--- .... ....
....|..|C-4 AF.F ....|R-- .... ....|G#4 2F.F ....
....|..|R-- .... ....|--- .... ....|R-- .... ....
....|..|--- .... ....|--- .... ....|G-4 2F.F ....
....|..|--- .... ....|--- .... ....|--- .... ....
 F-3|..|F-1 2A.F ....|F-1 2A.F ....|C#4 2F.F ....
 F-3|..|R-- .... ....|--- .... ....|F-1 2A.F ....
....|..|--- .... ....|--- .... ....|A#4 2F.A ....
....|..|--- .... ....|--- .... ....|--- .... ....
....|..|C-4 AF.F ....|R-- .... ....|C-4 2F.F ....
....|..|R-- .... ....|--- .... ....|R-- .... ....
....|..|--- .... ....|--- .... ....|G-4 2F.A ....
....|..|--- .... ....|--- .... ....|--- .... ....
 F-3|..|F-1 2A.F ....|F-1 2A.F ....|F-4 2F.F ....
 F-3|..|R-- .... ....|--- .... ....|F-1 2A.F ....
....|..|--- .... ....|--- .... ....|G-4 2F.A ....
....|..|--- .... ....|--- .... ....|--- .... ....
....|..|C-4 AF.F ....|R-- .... ....|G-4 2F.F ....
....|..|R-- .... ....|--- .... ....|R-- .... ....
....|..|--- .... ....|--- .... ....|A#4 2F.7 ....
....|..|--- .... ....|--- .... ....|--- .... ....
 F-3|..|F-1 2A.F ....|F-1 2A.F ....|G#4 2F.F ....
 F-3|..|R-- .... ....|--- .... ....|F-1 2A.F ....
....|..|--- .... ....|--- .... ....|G-4 2F.7 ....
....|..|--- .... ....|--- .... ....|--- .... ....

[Pattern47]
....|..|C-4 AF.F ....|R-- .... ....|A#4 2F.F ....
....|..|R-- .... ....|--- .... ....|R-- .... ....
....|..|--- .... ....|--- .... ....|G-4 2F.7 ....
....|..|--- .... ....|--- .... ....|--- .... ....
 A#3|..|A#1 2A.F ....|A#1 2A.F ....|A#1 2A.F ....
 F-3|..|R-- .... ....|--- .... ....|F-1 2F.7 ....
....|..|--- .... ....|--- .... ....|--- .... ....
....|..|--- .... ....|--- .... ....|--- .... ....
....|..|C-4 AF.F ....|R-- .... ....|F-4 2F.F ....
....|..|R-- .... ....|--- .... ....|R-- .... ....
....|..|--- .... ....|--- .... ....|--- .... ....
....|..|--- .... ....|--- .... ....|--- .... ....
 A#3|..|A#1 2A.F ....|A#1 2A.F ....|C-5 2F.F ....
 A#3|..|R-- .... ....|--- .... ....|A#1 2A.F ....
....|..|--- .... ....|--- .... ....|--- .... ....
....|..|--- .... ....|--- .... ....|--- .... ....
....|..|C-4 AF.F ....|R-- .... ....|G-4 2F.7 ....
....|..|R-- .... ....|--- .... ....|R-- .... ....
....|..|--- .... ....|--- .... ....|--- .... ....
....|..|--- .... ....|--- .... ....|--- .... ....
 A#3|..|A#1 2A.F ....|A#1 2A.F ....|G-4 2F.F ....
 A#3|..|R-- .... ....|--- .... ....|A#1 2A.F ....
....|..|--- .... ....|--- .... ....|--- .... ....
....|..|--- .... ....|--- .... ....|--- .... ....
....|..|C-4 AF.F ....|R-- .... ....|C#5 2F.F ....
....|..|R-- .... ....|--- .... ....|R-- .... ....
....|..|--- .... ....|--- .... ....|--- .... ....
....|..|--- .... ....|--- .... ....|--- .... ....
 A#3|..|A#1 2A.F ....|A#1 2A.F ....|A#1 2A.F ....
....|..|R-- .... ....|--- .... ....|--- .... ....
....|..|--- .... ....|--- .... ....|--- .... ....
....|..|--- .... ....|--- .... ....|--- .... ....
....|..|C-4 AF.F ....|R-- .... ....|G#4 2F.F ....
....|..|R-- .... ....|--- .... ....|R-- .... ....
....|..|--- .... ....|--- .... ....|--- .... ....
....|..|--- .... ....|--- .... ....|--- .... ....
 C#3|..|C#1 2A.F ....|C#1 2A.F ....|E-5 2F.F ....
 C#3|..|R-- .... ....|--- .... ....|C#1 2A.F ....
....|..|--- .... ....|--- .... ....|--- .... ....
....|..|--- .... ....|--- .... ....|--- .... ....
....|..|C-4 AF.F ....|R-- .... ....|R-- .... ....
....|..|R-- .... ....|--- .... ....|--- .... ....
....|..|--- .... ....|--- .... ....|--- .... ....
....|..|--- .... ....|--- .... ....|--- .... ....
 E-3|..|E-1 2A.F ....|E-1 2A.F ....|C#5 2F.F ....
 E-3|..|R-- .... ....|--- .... ....|E-1 2A.F ....
....|..|--- .... ....|--- .... ....|--- .... ....
....|..|--- .... ....|--- .... ....|--- .... ....
....|..|C-4 AF.F ....|R-- .... ....|F-5 2F.F ....
....|..|R-- .... ....|--- .... ....|R-- .... ....
....|..|--- .... ....|--- .... ....|--- .... ....
....|..|--- .... ....|--- .... ....|--- .... ....
 G-3|..|G-1 2A.F ....|G-1 2A.F ....|G-1 2A.F ....
....|..|R-- .... ....|--- .... ....|--- .... ....
....|..|--- .... ....|--- .... ....|--- .... ....
....|..|--- .... ....|--- .... ....|--- .... ....
....|..|C-4 AF.F ....|R-- .... ....|G#4 2F.7 ....
....|..|R-- .... ....|--- .... ....|R-- .... ....
....|..|--- .... ....|--- .... ....|--- .... ....
....|..|--- .... ....|--- .... ....|--- .... ....
 A#3|..|A#1 2A.F ....|A#1 2A.F ....|A#1 2A.F ....
 C#3|..|R-- .... ....|--- .... ....|C#1 2F.7 ....
....|..|--- .... ....|--- .... ....|--- .... ....
....|..|--- .... ....|--- .... ....|--- .... ....
....|..|C-4 AF.F ....|R-- .... ....|R-- .... ....
....|..|R-- .... ....|--- .... ....|--- .... ....
....|..|--- .... ....|--- .... ....|--- .... ....
....|..|--- .... ....|--- .... ....|--- .... ....
 F-3|..|F-1 2A.F ....|F-1 2A.F ....|F-1 2A.F ....
 E-3|..|R-- .... ....|--- .... ....|E-1 2F.7 ....
....|..|--- .... ....|--- .... ....|--- .... ....
....|..|--- .... ....|--- .... ....|--- .... ....
....|..|C-4 AF.F ....|R-- .... ....|F-5 2F.7 ....
....|..|R-- .... ....|--- .... ....|R-- .... ....
....|..|--- .... ....|--- .... ....|--- .... ....
....|..|--- .... ....|--- .... ....|--- .... ....
 F-3|..|F-1 2A.F ....|F-1 2A.F ....|F-1 2A.F ....
....|..|R-- .... ....|--- .... ....|--- .... ....
....|..|--- .... ....|--- .... ....|--- .... ....
....|..|--- .... ....|--- .... ....|--- .... ....
....|..|C-4 AF.F ....|R-- .... ....|R-- .... ....
....|..|R-- .... ....|--- .... ....|--- .... ....
....|..|--- .... ....|--- .... ....|--- .... ....
....|..|--- .... ....|--- .... ....|--- .... ....
 F-3|..|F-1 2A.F ....|F-1 2A.F ....|F-1 2A.F ....
....|..|R-- .... ....|--- .... ....|--- .... ....
....|..|--- .... ....|--- .... ....|--- .... ....
....|..|--- .... ....|--- .... ....|--- .... ....
....|..|C-4 AF.F ....|R-- .... ....|R-- .... ....
....|..|R-- .... ....|--- .... ....|--- .... ....
....|..|--- .... ....|--- .... ....|--- .... ....
....|..|--- .... ....|--- .... ....|--- .... ....
 F-3|..|F-1 2A.F ....|F-1 2A.F ....|F-1 2A.F ....
....|..|R-- .... ....|--- .... ....|--- .... ....
....|..|--- .... ....|--- .... ....|--- .... ....
....|..|--- .... ....|--- .... ....|--- .... ....
....|..|C-4 AF.F ....|R-- .... ....|R-- .... ....
....|..|R-- .... ....|--- .... ....|--- .... ....
....|..|--- .... ....|--- .... ....|--- .... ....
....|..|--- .... ....|--- .... ....|--- .... ....
 F-3|..|F-1 2A.F ....|F-1 2A.F ....|F-1 2A.F ....
....|..|R-- .... ....|--- .... ....|--- .... ....
....|..|--- .... ....|--- .... ....|--- .... ....
....|..|--- .... ....|--- .... ....|--- .... ....
....|..|C-4 AF.F ....|R-- .... ....|R-- .... ....
....|..|R-- .... ....|--- .... ....|--- .... ....
....|..|--- .... ....|--- .... ....|--- .... ....
....|..|--- .... ....|--- .... ....|--- .... ....
 F-3|..|F-1 2A.F ....|F-1 2A.F ....|F-1 2A.F ....
....|..|R-- .... ....|--- .... ....|--- .... ....
....|..|--- .... ....|--- .... ....|--- .... ....
....|..|--- .... ....|--- .... ....|--- .... ....
....|..|C-4 AF.F ....|R-- .... ....|R-- .... ....
....|..|R-- .... ....|--- .... ....|--- .... ....
....|..|--- .... ....|--- .... ....|--- .... ....
....|..|--- .... ....|--- .... ....|--- .... ....
 F-3|..|F-1 2A.F ....|F-1 2A.F ....|F-1 2A.F ....
....|..|R-- .... ....|--- .... ....|--- .... ....
....|..|--- .... ....|--- .... ....|--- .... ....
....|..|--- .... ....|--- .... ....|--- .... ....
....|..|C-4 AF.F ....|R-- .... ....|R-- .... ....
....|..|R-- .... ....|--- .... ....|--- .... ....
....|..|--- .... ....|--- .... ....|--- .... ....
....|..|--- .... ....|--- .... ....|--- .... ....
 F-3|..|F-1 2A.F ....|F-1 2A.F ....|F-1 2A.F ....
....|..|R-- .... ....|--- .... ....|--- .... ....
....|..|--- .... ....|--- .... ....|--- .... ....
....|..|--- .... ....|--- .... ....|--- .... ....

[Pattern49]
....|..|C-4 AF.F ....|R-- .... ....|R-- .... ....
....|..|R-- .... ....|--- .... ....|--- .... ....
....|..|--- .... ....|--- .... ....|--- .... ....
....|..|--- .... ....|--- .... ....|--- .... ....
 F-3|..|F-1 2A.F ....|F-1 2A.F ....|F-1 2A.F ....
....|..|R-- .... ....|--- .... ....|--- .... ....
....|..|--- .... ....|--- .... ....|--- .... ....
....|..|--- .... ....|--- .... ....|--- .... ....
....|..|C-4 AF.F ....|R-- .... ....|R-- .... ....
....|..|R-- .... ....|--- .... ....|--- .... ....
....|..|--- .... ....|--- .... ....|--- .... ....
....|..|--- .... ....|--- .... ....|--- .... ....
 F-3|..|F-1 2A.F ....|F-1 2A.F ....|F-1 2A.F ....
....|..|R-- .... ....|--- .... ....|--- .... ....
....|..|--- .... ....|--- .... ....|--- .... ....
....|..|--- .... ....|--- .... ....|--- .... ....
....|..|C-4 AF.F ....|R-- .... ....|R-- .... ....
....|..|R-- .... ....|--- .... ....|--- .... ....
....|..|--- .... ....|--- .... ....|--- .... ....
....|..|--- .... ....|--- .... ....|--- .... ....
 F-3|..|F-1 2A.F ....|F-1 2A.F ....|F-1 2A.F ....
....|..|R-- .... ....|--- .... ....|--- .... ....
....|..|--- .... ....|--- .... ....|--- .... ....
....|..|--- .... ....|--- .... ....|--- .... ....
....|..|C-4 AF.F ....|R-- .... ....|R-- .... ....
....|..|R-- .... ....|--- .... ....|--- .... ....
....|..|--- .... ....|--- .... ....|--- .... ....
....|..|--- .... ....|--- .... ....|--- .... ....
 F-3|..|F-1 2A.F ....|F-1 2A.F ....|F-1 2A.F ....
....|..|R-- .... ....|--- .... ....|--- .... ....
....|..|--- .... ....|--- .... ....|--- .... ....
....|..|--- .... ....|--- .... ....|--- .... ....
....|..|B-8 JF.F ....|R-- .... ....|R-- .... ....
....|..|R-- .... ....|--- .... ....|--- .... ....
....|..|--- .... ....|--- .... ....|--- .... ....
....|..|--- .... ....|--- .... ....|--- .... ....
 F-3|..|F-1 2F.7 ....|F-1 2F.7 ....|F-1 2F.7 ....
....|..|R-- .... ....|--- .... ....|--- .... ....
....|..|--- .... ....|--- .... ....|--- .... ....
....|..|--- .... ....|--- .... ....|--- .... ....
....|..|C-4 BF.F ....|R-- .... ....|R-- .... ....
....|..|R-- .... ....|--- .... ....|--- .... ....
....|..|--- .... ....|--- .... ....|--- .... ....
....|..|--- .... ....|--- .... ....|--- .... ....
 F-3|..|F-1 2F.7 ....|F-1 2F.7 ....|F-1 2F.7 ....
....|..|R-- .... ....|--- .... ....|--- .... ....
....|..|--- .... ....|--- .... ....|--- .... ....
....|..|--- .... ....|--- .... ....|--- .... ....
....|..|C-4 AF.7 ....|R-- .... ....|R-- .... ....
....|..|R-- .... ....|--- .... ....|--- .... ....
....|..|--- .... ....|--- .... ....|--- .... ....
....|..|--- .... ....|--- .... ....|--- .... ....
 F-3|..|F-1 2F.7 ....|F-1 2F.7 ....|F-1 2F.7 ....
....|..|--- .... ....|--- .... ....|--- .... ....
....|..|--- .... ....|--- .... ....|--- .... ....
....|..|--- .... ....|--- .... ....|--- .... ....
....|..|B-8 JF.7 ....|R-- .... ....|R-- .... ....
....|..|R-- .... ....|--- .... ....|--- .... ....
....|..|--- .... ....|--- .... ....|--- .... ....
....|..|--- .... ....|--- .... ....|--- .... ....
....|..|R-- .... ....|--- .... ....|--- .... ....
....|..|--- .... ....|--- .... ....|--- .... ....
....|..|--- .... ....|--- .... ....|--- .... ....
....|..|--- .... ....|--- .... ....|--- .... ....
....|..|C-4 AF.F ....|--- .... ....|--- .... ....
....|..|--- .... ....|--- .... ....|--- .... ....
....|..|--- .... ....|--- .... ....|--- .... ....
....|..|--- .... ....|--- .... ....|--- .... ....
 D#4|..|F-1 2A.F ....|F-1 2A.F ....|D#3 2C.F ....
 D#4|..|D#3 2C.F ....|--- .... ....|F-1 2A.F ....
....|..|R-- .... ....|--- .... ....|R-- .... ....
....|..|--- .... ....|--- .... ....|--- .... ....
....|..|C-4 AF.F ....|R-- .... ....|R-- .... ....
....|..|R-- .... ....|--- .... ....|--- .... ....
....|..|--- .... ....|--- .... ....|--- .... ....
....|..|--- .... ....|--- .... ....|--- .... ....
 F-3|..|F-1 2A.F ....|F-1 2A.F ....|F-1 2A.F ....
....|..|--- .... ....|--- .... ....|--- .... ....
....|..|--- .... ....|--- .... ....|--- .... ....
....|..|--- .... ....|--- .... ....|--- .... ....
 F-4|..|C-4 AF.F ....|R-- .... ....|F-3 2C.F ....
 F-4|..|F-3 2C.F ....|--- .... ....|R-- .... ....
....|..|R-- .... ....|--- .... ....|R-- .... ....
....|..|--- .... ....|--- .... ....|--- .... ....
 F-3|..|F-1 2A.F ....|F-1 2A.F ....|F-1 2A.F ....
....|..|R-- .... ....|--- .... ....|--- .... ....
....|..|--- .... ....|--- .... ....|--- .... ....
....|..|--- .... ....|--- .... ....|--- .... ....
....|..|C-4 AF.F ....|R-- .... ....|R-- .... ....
....|..|R-- .... ....|--- .... ....|--- .... ....
....|..|--- .... ....|--- .... ....|--- .... ....
....|..|--- .... ....|--- .... ....|--- .... ....
 F-3|..|F-1 2A.F ....|F-1 2A.F ....|F-1 2A.F ....
 D#4|..|D#3 2F.7 ....|--- .... ....|F-1 2F.7 ....
....|..|R-- .... ....|--- .... ....|R-- .... ....
....|..|--- .... ....|--- .... ....|--- .... ....
 D#4|..|C-4 AF.F ....|R-- .... ....|D#3 2C.F ....
 D#4|..|D#3 2C.F ....|--- .... ....|R-- .... ....
....|..|R-- .... ....|--- .... ....|R-- .... ....
....|..|--- .... ....|--- .... ....|--- .... ....
 F-3|..|F-1 2A.F ....|F-1 2A.F ....|F-1 2A.F ....
....|..|R-- .... ....|--- .... ....|--- .... ....
....|..|--- .... ....|--- .... ....|--- .... ....
....|..|--- .... ....|--- .... ....|--- .... ....
 F-4|..|C-4 AF.F ....|R-- .... ....|F-3 2F.7 ....
 F-4|..|F-3 2F.7 ....|--- .... ....|R-- .... ....
....|..|R-- .... ....|--- .... ....|R-- .... ....
....|..|--- .... ....|--- .... ....|--- .... ....
 F-3|..|F-1 2A.F ....|F-1 2A.F ....|F-3 2C.F ....
 F-3|..|F-3 2C.F ....|--- .... ....|F-1 2A.F ....
....|..|R-- .... ....|--- .... ....|R-- .... ....
....|..|--- .... ....|--- .... ....|--- .... ....
....|..|C-4 AF.F ....|R-- .... ....|R-- .... ....
....|..|R-- .... ....|--- .... ....|--- .... ....
....|..|--- .... ....|--- .... ....|--- .... ....
....|..|--- .... ....|--- .... ....|--- .... ....
 G#3|..|G#1 2A.F ....|G#1 2A.F ....|G#1 2A.F ....
....|..|R-- .... ....|--- .... ....|--- .... ....
....|..|--- .... ....|--- .... ....|--- .... ....
....|..|--- .... ....|--- .... ....|--- .... ....
 D#4|..|C-4 AF.F ....|R-- .... ....|D#3 2F.7 ....
 D#4|..|D#3 2F.7 ....|--- .... ....|R-- .... ....
....|..|R-- .... ....|--- .... ....|R-- .... ....
....|..|--- .... ....|--- .... ....|--- .... ....
 F-3|..|F-1 2A.F ....|F-1 2A.F ....|F-1 2A.F ....
....|..|R-- .... ....|--- .... ....|--- .... ....
....|..|--- .... ....|--- .... ....|--- .... ....
....|..|--- .... ....|--- .... ....|--- .... ....

[Pattern50]
....|..|C-4 AF.F ....|R-- .... ....|R-- .... ....
....|..|R-- .... ....|--- .... ....|--- .... ....
....|..|--- .... ....|--- .... ....|--- .... ....
....|..|--- .... ....|--- .... ....|--- .... ....
 D#4|..|F-1 2A.F ....|F-1 2A.F ....|D#3 2C.F ....
 D#4|..|D#3 2C.F ....|--- .... ....|F-1 2A.F ....
....|..|R-- .... ....|--- .... ....|R-- .... ....
....|..|--- .... ....|--- .... ....|--- .... ....
....|..|C-4 AF.F ....|R-- .... ....|R-- .... ....
....|..|R-- .... ....|--- .... ....|--- .... ....
....|..|--- .... ....|--- .... ....|--- .... ....
....|..|--- .... ....|--- .... ....|--- .... ....
 F-3|..|F-1 2A.F ....|F-1 2A.F ....|F-1 2A.F ....
....|..|R-- .... ....|--- .... ....|--- .... ....
....|..|--- .... ....|--- .... ....|--- .... ....
....|..|--- .... ....|--- .... ....|--- .... ....
 F-4|..|C-4 AF.F ....|R-- .... ....|F-3 2C.F ....
 F-4|..|F-3 2C.F ....|--- .... ....|R-- .... ....
....|..|R-- .... ....|--- .... ....|R-- .... ....
....|..|--- .... ....|--- .... ....|--- .... ....
 F-3|..|F-1 2A.F ....|F-1 2A.F ....|F-1 2A.F ....
....|..|R-- .... ....|--- .... ....|--- .... ....
....|..|--- .... ....|--- .... ....|--- .... ....
....|..|--- .... ....|--- .... ....|--- .... ....
....|..|C-4 AF.F ....|R-- .... ....|R-- .... ....
....|..|R-- .... ....|--- .... ....|--- .... ....
....|..|--- .... ....|--- .... ....|--- .... ....
....|..|--- .... ....|--- .... ....|--- .... ....
 F-3|..|F-1 2A.F ....|F-1 2A.F ....|F-1 2A.F ....
 D#4|..|D#3 2F.7 ....|--- .... ....|F-1 2F.7 ....
....|..|R-- .... ....|--- .... ....|R-- .... ....
....|..|--- .... ....|--- .... ....|--- .... ....
 D#4|..|C-4 AF.F ....|R-- .... ....|D#3 2C.F ....
 D#4|..|D#3 2C.F ....|--- .... ....|R-- .... ....
....|..|R-- .... ....|--- .... ....|R-- .... ....
....|..|--- .... ....|--- .... ....|--- .... ....
 F-3|..|F-1 2A.F ....|F-1 2A.F ....|F-1 2A.F ....
....|..|R-- .... ....|--- .... ....|--- .... ....
....|..|--- .... ....|--- .... ....|--- .... ....
....|..|--- .... ....|--- .... ....|--- .... ....
 F-4|..|C-4 AF.F ....|R-- .... ....|F-3 2F.7 ....
 F-4|..|F-3 2F.7 ....|--- .... ....|R-- .... ....
....|..|R-- .... ....|--- .... ....|R-- .... ....
....|..|--- .... ....|--- .... ....|--- .... ....
 F-3|..|F-1 2A.F ....|F-1 2A.F ....|F-3 2C.F ....
 F-3|..|F-3 2C.F ....|--- .... ....|F-1 2A.F ....
....|..|R-- .... ....|--- .... ....|R-- .... ....
....|..|--- .... ....|--- .... ....|--- .... ....
....|..|C-4 AF.F ....|R-- .... ....|R-- .... ....
....|..|R-- .... ....|--- .... ....|--- .... ....
....|..|--- .... ....|--- .... ....|--- .... ....
....|..|--- .... ....|--- .... ....|--- .... ....
 D#3|..|D#1 2A.F ....|D#1 2A.F ....|D#1 2A.F ....
....|..|R-- .... ....|--- .... ....|--- .... ....
....|..|--- .... ....|--- .... ....|--- .... ....
....|..|--- .... ....|--- .... ....|--- .... ....
 F-4|..|C-4 AF.F ....|R-- .... ....|F-4 2C.F ....
 F-4|..|F-4 2C.F ....|--- .... ....|R-- .... ....
....|..|R-- .... ....|--- .... ....|R-- .... ....
....|..|--- .... ....|--- .... ....|--- .... ....
 A#3|..|A#1 2A.F ....|A#1 2A.F ....|F-4 2C.F ....
 A#3|..|F-4 2C.F ....|--- .... ....|A#1 2A.F ....
....|..|R-- .... ....|--- .... ....|R-- .... ....
....|..|--- .... ....|--- .... ....|--- .... ....
....|..|C-4 AF.F ....|R-- .... ....|R-- .... ....
....|..|R-- .... ....|--- .... ....|--- .... ....
....|..|--- .... ....|--- .... ....|--- .... ....
....|..|--- .... ....|--- .... ....|--- .... ....
 D#4|..|F-1 2A.F ....|F-1 2A.F ....|D#3 2C.F ....
 D#4|..|D#3 2C.F ....|--- .... ....|F-1 2A.F ....
....|..|R-- .... ....|--- .... ....|R-- .... ....
....|..|--- .... ....|--- .... ....|--- .... ....
....|..|C-4 AF.F ....|R-- .... ....|R-- .... ....
 A#3|..|R-- .... ....|--- .... ....|A#1 2F.A ....
....|..|R-- .... ....|--- .... ....|R-- .... ....
....|..|--- .... ....|--- .... ....|--- .... ....
 F-3|..|F-1 2A.F ....|F-1 2A.F ....|F-1 2A.F ....
....|..|R-- .... ....|--- .... ....|--- .... ....
....|..|--- .... ....|--- .... ....|--- .... ....
....|..|--- .... ....|--- .... ....|--- .... ....
 F-4|..|C-4 AF.F ....|R-- .... ....|F-3 2C.F ....
 F-4|..|F-3 2C.F ....|--- .... ....|R-- .... ....
....|..|R-- .... ....|--- .... ....|R-- .... ....
....|..|--- .... ....|--- .... ....|--- .... ....
 F-3|..|F-1 2A.F ....|F-1 2A.F ....|F-1 2A.F ....
 A#3|..|F-4 2F.7 ....|--- .... ....|A#1 2F.7 ....
....|..|R-- .... ....|--- .... ....|R-- .... ....
....|..|--- .... ....|--- .... ....|--- .... ....
....|..|C-4 AF.F ....|R-- .... ....|R-- .... ....
....|..|R-- .... ....|--- .... ....|--- .... ....
....|..|--- .... ....|--- .... ....|--- .... ....
....|..|--- .... ....|--- .... ....|--- .... ....
 F-3|..|F-1 2A.F ....|F-1 2A.F ....|F-1 2A.F ....
 D#4|..|D#3 2F.7 ....|--- .... ....|F-1 2F.7 ....
....|..|R-- .... ....|--- .... ....|R-- .... ....
....|..|--- .... ....|--- .... ....|--- .... ....
 D#4|..|C-4 AF.F ....|R-- .... ....|D#3 2C.F ....
 D#4|..|D#3 2C.F ....|--- .... ....|R-- .... ....
....|..|R-- .... ....|--- .... ....|R-- .... ....
....|..|--- .... ....|--- .... ....|--- .... ....
 F-3|..|F-1 2A.F ....|F-1 2A.F ....|F-1 2A.F ....
....|..|R-- .... ....|--- .... ....|--- .... ....
....|..|--- .... ....|--- .... ....|--- .... ....
....|..|--- .... ....|--- .... ....|--- .... ....
 F-4|..|C-4 AF.F ....|R-- .... ....|F-3 2F.7 ....
 F-4|..|F-3 2F.7 ....|--- .... ....|R-- .... ....
....|..|R-- .... ....|--- .... ....|R-- .... ....
....|..|--- .... ....|--- .... ....|--- .... ....
 F-3|..|F-1 2A.F ....|F-1 2A.F ....|F-3 2C.F ....
 F-3|..|F-3 2C.F ....|--- .... ....|F-1 2A.F ....
....|..|R-- .... ....|--- .... ....|R-- .... ....
....|..|--- .... ....|--- .... ....|--- .... ....
....|..|C-4 AF.F ....|R-- .... ....|R-- .... ....
....|..|R-- .... ....|--- .... ....|--- .... ....
....|..|--- .... ....|--- .... ....|--- .... ....
....|..|--- .... ....|--- .... ....|--- .... ....
 G#3|..|G#1 2A.F ....|G#1 2A.F ....|G#1 2A.F ....
....|..|R-- .... ....|--- .... ....|--- .... ....
....|..|--- .... ....|--- .... ....|--- .... ....
....|..|--- .... ....|--- .... ....|--- .... ....
 G#4|..|C-4 AF.F ....|R-- .... ....|G#3 2C.F ....
 G#4|..|G#3 2C.F ....|--- .... ....|R-- .... ....
....|..|R-- .... ....|--- .... ....|R-- .... ....
....|..|--- .... ....|--- .... ....|--- .... ....
 F-3|..|F-1 2A.F ....|F-1 2A.F ....|F-3 2C.F ....
 F-3|..|F-3 2C.F ....|--- .... ....|F-1 2A.F ....
....|..|R-- .... ....|--- .... ....|R-- .... ....
....|..|--- .... ....|--- .... ....|--- .... ....

[Pattern51]
....|..|C-4 AF.F ....|R-- .... ....|R-- .... ....
....|..|R-- .... ....|--- .... ....|--- .... ....
....|..|--- .... ....|--- .... ....|--- .... ....
....|..|--- .... ....|--- .... ....|--- .... ....
 D#4|..|F-1 2A.F ....|F-1 2A.F ....|D#3 2C.F ....
 D#4|..|D#3 2C.F ....|--- .... ....|F-1 2A.F ....
....|..|R-- .... ....|--- .... ....|R-- .... ....
....|..|--- .... ....|--- .... ....|--- .... ....
....|..|C-4 AF.F ....|R-- .... ....|R-- .... ....
 F-3|..|R-- .... ....|--- .... ....|F-1 2F.A ....
....|..|R-- .... ....|--- .... ....|R-- .... ....
....|..|--- .... ....|--- .... ....|--- .... ....
 F-3|..|F-1 2A.F ....|F-1 2A.F ....|F-1 2A.F ....
....|..|R-- .... ....|--- .... ....|--- .... ....
....|..|--- .... ....|--- .... ....|--- .... ....
....|..|--- .... ....|--- .... ....|--- .... ....
 F-4|..|C-4 AF.F ....|R-- .... ....|F-3 2C.F ....
 F-4|..|F-3 2C.F ....|--- .... ....|R-- .... ....
....|..|R-- .... ....|--- .... ....|R-- .... ....
....|..|--- .... ....|--- .... ....|--- .... ....
 F-3|..|F-1 2A.F ....|F-1 2A.F ....|F-1 2A.F ....
 F-3|..|F-3 2F.7 ....|--- .... ....|F-1 2F.7 ....
....|..|R-- .... ....|--- .... ....|R-- .... ....
....|..|--- .... ....|--- .... ....|--- .... ....
....|..|C-4 AF.F ....|R-- .... ....|R-- .... ....
....|..|R-- .... ....|--- .... ....|--- .... ....
....|..|--- .... ....|--- .... ....|--- .... ....
....|..|--- .... ....|--- .... ....|--- .... ....
 F-3|..|F-1 2A.F ....|F-1 2A.F ....|F-1 2A.F ....
 D#4|..|D#3 2F.7 ....|--- .... ....|F-1 2F.7 ....
....|..|R-- .... ....|--- .... ....|R-- .... ....
....|..|--- .... ....|--- .... ....|--- .... ....
 D#4|..|C-4 AF.F ....|R-- .... ....|D#3 2C.F ....
 D#4|..|D#3 2C.F ....|--- .... ....|R-- .... ....
....|..|R-- .... ....|--- .... ....|R-- .... ....
....|..|--- .... ....|--- .... ....|--- .... ....
 F-3|..|F-1 2A.F ....|F-1 2A.F ....|F-1 2A.F ....
....|..|R-- .... ....|--- .... ....|--- .... ....
....|..|--- .... ....|--- .... ....|--- .... ....
....|..|--- .... ....|--- .... ....|--- .... ....
 F-4|..|C-4 AF.F ....|R-- .... ....|F-3 2F.7 ....
 F-4|..|F-3 2F.7 ....|--- .... ....|R-- .... ....
....|..|R-- .... ....|--- .... ....|R-- .... ....
....|..|--- .... ....|--- .... ....|--- .... ....
 F-3|..|F-1 2A.F ....|F-1 2A.F ....|F-3 2C.F ....
 F-3|..|F-3 2C.F ....|--- .... ....|F-1 2A.F ....
....|..|R-- .... ....|--- .... ....|R-- .... ....
....|..|--- .... ....|--- .... ....|--- .... ....
....|..|C-4 AF.F ....|R-- .... ....|R-- .... ....
....|..|R-- .... ....|--- .... ....|--- .... ....
....|..|--- .... ....|--- .... ....|--- .... ....
....|..|--- .... ....|--- .... ....|--- .... ....
 G#3|..|G#1 2A.F ....|G#1 2A.F ....|G#1 2A.F ....
....|..|R-- .... ....|--- .... ....|--- .... ....
....|..|--- .... ....|--- .... ....|--- .... ....
....|..|--- .... ....|--- .... ....|--- .... ....
 A#3|..|C-4 BF.F ....|A#1 2A.F ....|F-4 2C.F ....
 A#3|..|A#1 2A.F ....|--- .... ....|A#1 2A.F ....
 F-4|..|F-4 2C.F ....|--- .... ....|R-- .... ....
....|..|R-- .... ....|--- .... ....|--- .... ....
 B-3|..|B-1 2A.F ....|B-1 2A.F ....|F-4 2C.F ....
 B-3|..|F-4 2C.F ....|--- .... ....|B-1 2A.F ....
....|..|R-- .... ....|--- .... ....|R-- .... ....
....|..|--- .... ....|--- .... ....|--- .... ....
....|..|C-4 AF.F ....|R-- .... ....|R-- .... ....
....|..|R-- .... ....|--- .... ....|--- .... ....
....|..|--- .... ....|--- .... ....|--- .... ....
....|..|--- .... ....|--- .... ....|--- .... ....
 D#4|..|F-1 2A.F ....|F-1 2A.F ....|D#3 2C.F ....
 D#4|..|D#3 2C.F ....|--- .... ....|F-1 2A.F ....
....|..|R-- .... ....|--- .... ....|R-- .... ....
....|..|R-- .... ....|--- .... ....|--- .... ....
....|..|C-4 AF.F ....|R-- .... ....|R-- .... ....
 B-3|..|R-- .... ....|--- .... ....|B-1 2F.A ....
....|..|R-- .... ....|--- .... ....|R-- .... ....
....|..|--- .... ....|--- .... ....|--- .... ....
 F-3|..|F-1 2A.F ....|F-1 2A.F ....|F-1 2A.F ....
....|..|R-- .... ....|--- .... ....|--- .... ....
....|..|--- .... ....|--- .... ....|--- .... ....
....|..|--- .... ....|--- .... ....|--- .... ....
 A#3|..|C-4 AF.F ....|A#1 2F.7 ....|F-3 2C.F ....
 A#3|..|F-3 2C.F ....|--- .... ....|A#1 2F.7 ....
 F-4|..|F-4 2F.7 ....|--- .... ....|R-- .... ....
....|..|R-- .... ....|--- .... ....|--- .... ....
 F-3|..|F-1 2A.F ....|F-1 2A.F ....|F-1 2A.F ....
 B-3|..|F-4 2F.7 ....|--- .... ....|B-1 2F.7 ....
....|..|R-- .... ....|--- .... ....|R-- .... ....
....|..|--- .... ....|--- .... ....|--- .... ....
....|..|C-4 AF.F ....|R-- .... ....|R-- .... ....
....|..|R-- .... ....|--- .... ....|--- .... ....
....|..|--- .... ....|--- .... ....|--- .... ....
....|..|--- .... ....|--- .... ....|--- .... ....
 F-3|..|F-1 2A.F ....|F-1 2A.F ....|F-1 2A.F ....
 D#4|..|D#3 2F.7 ....|--- .... ....|F-1 2F.7 ....
....|..|--- .... ....|--- .... ....|--- .... ....
....|..|--- .... ....|--- .... ....|--- .... ....
 D#4|..|C-4 AF.F ....|R-- .... ....|D#3 2C.F ....
 D#4|..|D#3 2C.F ....|--- .... ....|R-- .... ....
....|..|--- .... ....|--- .... ....|--- .... ....
....|..|--- .... ....|--- .... ....|--- .... ....
 F-3|..|F-1 2A.F ....|F-1 2A.F ....|F-1 2A.F ....
....|..|R-- .... ....|--- .... ....|--- .... ....
....|..|--- .... ....|--- .... ....|--- .... ....
....|..|--- .... ....|--- .... ....|--- .... ....
 F-4|..|C-4 AF.F ....|R-- .... ....|F-3 2F.7 ....
 F-4|..|F-3 2F.7 ....|--- .... ....|R-- .... ....
....|..|--- .... ....|--- .... ....|--- .... ....
....|..|--- .... ....|--- .... ....|--- .... ....
 F-3|..|F-1 2A.F ....|F-1 2A.F ....|F-3 2C.F ....
 F-3|..|F-3 2C.F ....|--- .... ....|F-1 2A.F ....
....|..|--- .... ....|--- .... ....|--- .... ....
....|..|--- .... ....|--- .... ....|--- .... ....
....|..|C-4 AF.F ....|R-- .... ....|R-- .... ....
....|..|R-- .... ....|--- .... ....|--- .... ....
....|..|--- .... ....|--- .... ....|--- .... ....
....|..|--- .... ....|--- .... ....|--- .... ....
 G#3|..|G#1 2A.F ....|G#1 2A.F ....|G#1 2A.F ....
....|..|R-- .... ....|--- .... ....|--- .... ....
....|..|--- .... ....|--- .... ....|--- .... ....
....|..|--- .... ....|--- .... ....|--- .... ....
 G#4|..|C-4 AF.F ....|R-- .... ....|G#3 2C.F ....
 G#4|..|G#3 2C.F ....|--- .... ....|R-- .... ....
....|..|--- .... ....|--- .... ....|--- .... ....
....|..|--- .... ....|--- .... ....|--- .... ....
 F-3|..|F-1 2A.F ....|F-1 2A.F ....|F-3 2C.F ....
 F-3|..|F-3 2C.F ....|--- .... ....|F-1 2A.F ....
....|..|--- .... ....|--- .... ....|--- .... ....
....|..|--- .... ....|--- .... ....|--- .... ....

[Pattern52]
....|..|C-4 AF.F ....|R-- .... ....|R-- .... ....
....|..|R-- .... ....|--- .... ....|--- .... ....
....|..|--- .... ....|--- .... ....|--- .... ....
....|..|--- .... ....|--- .... ....|--- .... ....
 D#4|..|F-1 2A.F ....|F-1 2A.F ....|D#3 2C.F ....
 D#4|..|D#3 2C.F ....|--- .... ....|F-1 2A.F ....
....|..|--- .... ....|--- .... ....|--- .... ....
....|..|--- .... ....|--- .... ....|--- .... ....
....|..|C-4 AF.F ....|R-- .... ....|R-- .... ....
 F-3|..|R-- .... ....|--- .... ....|F-1 2F.A ....
....|..|--- .... ....|--- .... ....|--- .... ....
....|..|--- .... ....|--- .... ....|--- .... ....
 F-3|..|F-1 2A.F ....|F-1 2A.F ....|F-1 2A.F ....
....|..|R-- .... ....|--- .... ....|--- .... ....
....|..|--- .... ....|--- .... ....|--- .... ....
....|..|--- .... ....|--- .... ....|--- .... ....
 F-4|..|C-4 AF.F ....|R-- .... ....|F-3 2C.F ....
 F-4|..|F-3 2C.F ....|--- .... ....|R-- .... ....
....|..|--- .... ....|--- .... ....|--- .... ....
....|..|--- .... ....|--- .... ....|--- .... ....
 F-3|..|F-1 2A.F ....|F-1 2A.F ....|F-1 2A.F ....
 F-3|..|F-3 2F.7 ....|--- .... ....|F-1 2F.7 ....
....|..|--- .... ....|--- .... ....|--- .... ....
....|..|--- .... ....|--- .... ....|--- .... ....
....|..|C-4 AF.F ....|R-- .... ....|R-- .... ....
....|..|R-- .... ....|--- .... ....|--- .... ....
....|..|--- .... ....|--- .... ....|--- .... ....
....|..|--- .... ....|--- .... ....|--- .... ....
 F-3|..|F-1 2A.F ....|F-1 2A.F ....|F-1 2A.F ....
 D#4|..|D#3 2F.7 ....|--- .... ....|F-1 2F.7 ....
....|..|--- .... ....|--- .... ....|--- .... ....
....|..|--- .... ....|--- .... ....|--- .... ....
 D#4|..|C-4 AF.F ....|R-- .... ....|D#3 2C.F ....
 D#4|..|D#3 2C.F ....|--- .... ....|R-- .... ....
....|..|--- .... ....|--- .... ....|--- .... ....
....|..|--- .... ....|--- .... ....|--- .... ....
 F-3|..|F-1 2A.F ....|F-1 2A.F ....|F-1 2A.F ....
....|..|R-- .... ....|--- .... ....|--- .... ....
....|..|--- .... ....|--- .... ....|--- .... ....
....|..|--- .... ....|--- .... ....|--- .... ....
 F-4|..|C-4 AF.F ....|R-- .... ....|F-3 2F.7 ....
 F-4|..|F-3 2F.7 ....|--- .... ....|R-- .... ....
....|..|--- .... ....|--- .... ....|--- .... ....
....|..|--- .... ....|--- .... ....|--- .... ....
 F-3|..|F-1 2A.F ....|F-1 2A.F ....|F-3 2C.F ....
 F-3|..|F-3 2C.F ....|--- .... ....|F-1 2A.F ....
....|..|--- .... ....|--- .... ....|--- .... ....
....|..|--- .... ....|--- .... ....|--- .... ....
....|..|C-4 AF.F ....|R-- .... ....|R-- .... ....
....|..|R-- .... ....|--- .... ....|--- .... ....
....|..|--- .... ....|--- .... ....|--- .... ....
....|..|--- .... ....|--- .... ....|--- .... ....
 D#3|..|D#1 2A.F ....|D#1 2A.F ....|D#1 2A.F ....
....|..|R-- .... ....|--- .... ....|--- .... ....
....|..|--- .... ....|--- .... ....|--- .... ....
....|..|--- .... ....|--- .... ....|--- .... ....
 F-4|..|C-4 AF.F ....|R-- .... ....|F-4 2C.F ....
 F-4|..|F-4 2C.F ....|--- .... ....|R-- .... ....
....|..|--- .... ....|--- .... ....|--- .... ....
....|..|--- .... ....|--- .... ....|--- .... ....
 F-4|..|F-2 2A.F ....|F-2 2A.F ....|F-2 2A.F ....
....|..|R-- .... ....|--- .... ....|--- .... ....
....|..|--- .... ....|--- .... ....|--- .... ....
....|..|--- .... ....|--- .... ....|--- .... ....
....|..|C-4 AF.F ....|R-- .... ....|R-- .... ....
....|..|R-- .... ....|--- .... ....|--- .... ....
....|..|--- .... ....|--- .... ....|--- .... ....
....|..|--- .... ....|--- .... ....|--- .... ....
 D#4|..|F-1 2A.F ....|F-1 2A.F ....|D#3 2C.F ....
 D#4|..|D#3 2C.F ....|--- .... ....|F-1 2A.F ....
....|..|--- .... ....|--- .... ....|--- .... ....
....|..|--- .... ....|--- .... ....|--- .... ....
....|..|C-4 AF.F ....|R-- .... ....|R-- .... ....
....|..|R-- .... ....|--- .... ....|--- .... ....
....|..|--- .... ....|--- .... ....|--- .... ....
....|..|--- .... ....|--- .... ....|--- .... ....
 F-3|..|F-1 2A.F ....|F-1 2A.F ....|F-1 2A.F ....
....|..|R-- .... ....|--- .... ....|--- .... ....
....|..|--- .... ....|--- .... ....|--- .... ....
....|..|--- .... ....|--- .... ....|--- .... ....
 F-4|..|C-4 AF.F ....|R-- .... ....|F-3 2C.F ....
 F-4|..|F-3 2C.F ....|--- .... ....|R-- .... ....
....|..|--- .... ....|--- .... ....|--- .... ....
....|..|--- .... ....|--- .... ....|--- .... ....
 F-3|..|F-1 2A.F ....|F-1 2A.F ....|F-1 2A.F ....
....|..|R-- .... ....|--- .... ....|--- .... ....
....|..|--- .... ....|--- .... ....|--- .... ....
....|..|--- .... ....|--- .... ....|--- .... ....
....|..|C-4 AF.F ....|R-- .... ....|R-- .... ....
....|..|R-- .... ....|--- .... ....|--- .... ....
....|..|--- .... ....|--- .... ....|--- .... ....
....|..|--- .... ....|--- .... ....|--- .... ....
 F-3|..|F-1 2A.F ....|F-1 2A.F ....|F-1 2A.F ....
 D#4|..|D#3 2F.7 ....|--- .... ....|F-1 2F.7 ....
....|..|--- .... ....|--- .... ....|--- .... ....
....|..|--- .... ....|--- .... ....|--- .... ....
 D#4|..|C-4 AF.F ....|R-- .... ....|D#3 2C.F ....
 D#4|..|D#3 2C.F ....|--- .... ....|R-- .... ....
....|..|--- .... ....|--- .... ....|--- .... ....
....|..|--- .... ....|--- .... ....|--- .... ....
 F-3|..|F-1 2A.F ....|F-1 2A.F ....|F-1 2A.F ....
....|..|R-- .... ....|--- .... ....|--- .... ....
....|..|--- .... ....|--- .... ....|--- .... ....
....|..|--- .... ....|--- .... ....|--- .... ....
 F-4|..|C-4 AF.F ....|R-- .... ....|F-3 2F.7 ....
 F-4|..|F-3 2F.7 ....|--- .... ....|R-- .... ....
....|..|--- .... ....|--- .... ....|--- .... ....
....|..|--- .... ....|--- .... ....|--- .... ....
 F-3|..|F-1 2A.F ....|F-1 2A.F ....|F-3 2C.F ....
 F-3|..|F-3 2C.F ....|--- .... ....|F-1 2A.F ....
....|..|--- .... ....|--- .... ....|--- .... ....
....|..|--- .... ....|--- .... ....|--- .... ....
....|..|C-4 AF.F ....|R-- .... ....|R-- .... ....
....|..|R-- .... ....|--- .... ....|--- .... ....
....|..|--- .... ....|--- .... ....|--- .... ....
....|..|--- .... ....|--- .... ....|--- .... ....
 G#3|..|G#1 2A.F ....|G#1 2A.F ....|G#1 2A.F ....
....|..|R-- .... ....|--- .... ....|--- .... ....
....|..|--- .... ....|--- .... ....|--- .... ....
....|..|--- .... ....|--- .... ....|--- .... ....
 D#4|..|C-4 AF.F ....|R-- .... ....|D#3 2F.7 ....
 D#4|..|D#3 2F.7 ....|--- .... ....|R-- .... ....
....|..|--- .... ....|--- .... ....|--- .... ....
....|..|--- .... ....|--- .... ....|--- .... ....
 F-3|..|F-1 2A.F ....|F-1 2A.F ....|F-1 2A.F ....
....|..|R-- .... ....|--- .... ....|--- .... ....
....|..|--- .... ....|--- .... ....|--- .... ....
....|..|--- .... ....|--- .... ....|--- .... ....

[Pattern53]
....|..|C-4 AF.F ....|R-- .... ....|R-- .... ....
....|..|R-- .... ....|--- .... ....|--- .... ....
....|..|--- .... ....|--- .... ....|--- .... ....
....|..|--- .... ....|--- .... ....|--- .... ....
 D#4|..|F-1 2A.F ....|F-1 2A.F ....|D#3 2C.F ....
 D#4|..|D#3 2C.F ....|--- .... ....|F-1 2A.F ....
....|..|--- .... ....|--- .... ....|--- .... ....
....|..|--- .... ....|--- .... ....|--- .... ....
....|..|C-4 AF.F ....|R-- .... ....|R-- .... ....
....|..|R-- .... ....|--- .... ....|--- .... ....
....|..|--- .... ....|--- .... ....|--- .... ....
....|..|--- .... ....|--- .... ....|--- .... ....
 F-3|..|F-1 2A.F ....|F-1 2A.F ....|F-1 2A.F ....
....|..|R-- .... ....|--- .... ....|--- .... ....
....|..|--- .... ....|--- .... ....|--- .... ....
....|..|--- .... ....|--- .... ....|--- .... ....
 F-4|..|C-4 AF.F ....|R-- .... ....|F-3 2C.F ....
 F-4|..|F-3 2C.F ....|--- .... ....|R-- .... ....
....|..|--- .... ....|--- .... ....|--- .... ....
....|..|--- .... ....|--- .... ....|--- .... ....
 F-3|..|F-1 2A.F ....|F-1 2A.F ....|F-1 2A.F ....
....|..|R-- .... ....|--- .... ....|--- .... ....
....|..|--- .... ....|--- .... ....|--- .... ....
....|..|--- .... ....|--- .... ....|--- .... ....
....|..|C-4 AF.F ....|R-- .... ....|R-- .... ....
....|..|R-- .... ....|--- .... ....|--- .... ....
....|..|--- .... ....|--- .... ....|--- .... ....
....|..|--- .... ....|--- .... ....|--- .... ....
 F-3|..|F-1 2A.F ....|F-1 2A.F ....|F-1 2A.F ....
 D#4|..|D#3 2F.7 ....|--- .... ....|F-1 2F.7 ....
....|..|--- .... ....|--- .... ....|--- .... ....
....|..|--- .... ....|--- .... ....|--- .... ....
 D#4|..|C-4 AF.F ....|R-- .... ....|D#3 2C.F ....
 D#4|..|D#3 2C.F ....|--- .... ....|R-- .... ....
....|..|--- .... ....|--- .... ....|--- .... ....
....|..|--- .... ....|--- .... ....|--- .... ....
 F-3|..|F-1 2A.F ....|F-1 2A.F ....|F-1 2A.F ....
....|..|R-- .... ....|--- .... ....|--- .... ....
....|..|--- .... ....|--- .... ....|--- .... ....
....|..|--- .... ....|--- .... ....|--- .... ....
 F-4|..|C-4 AF.F ....|R-- .... ....|F-3 2F.7 ....
 F-4|..|F-3 2F.7 ....|--- .... ....|R-- .... ....
....|..|--- .... ....|--- .... ....|--- .... ....
....|..|--- .... ....|--- .... ....|--- .... ....
 F-3|..|F-1 2A.F ....|F-1 2A.F ....|F-3 2C.F ....
 F-3|..|F-3 2C.F ....|--- .... ....|F-1 2A.F ....
....|..|--- .... ....|--- .... ....|--- .... ....
....|..|--- .... ....|--- .... ....|--- .... ....
 C-4|..|C-3 RF.F ....|C-2 2A.F ....|C-2 2A.F ....
 C-4|..|C-2 2A.F ....|--- .... ....|--- .... ....
....|..|R-- .... ....|--- .... ....|--- .... ....
....|..|--- .... ....|--- .... ....|--- .... ....
 B-3|..|B-1 2A.F ....|B-1 2A.F ....|B-1 2A.F ....
....|..|R-- .... ....|--- .... ....|--- .... ....
....|..|--- .... ....|--- .... ....|--- .... ....
....|..|--- .... ....|--- .... ....|--- .... ....
 F-4|..|C-4 BF.F ....|G#1 2A.F ....|F-4 2C.F ....
 G#3|..|G#1 2A.F ....|--- .... ....|G#1 2A.F ....
 F-4|..|F-4 2C.F ....|--- .... ....|--- .... ....
....|..|--- .... ....|--- .... ....|--- .... ....
 G-3|..|G-1 2A.F ....|G-1 2A.F ....|G-1 2A.F ....
....|..|R-- .... ....|--- .... ....|--- .... ....
....|..|R-- .... ....|--- .... ....|--- .... ....
....|..|--- .... ....|--- .... ....|--- .... ....
 F-3|..|F-1 2A.F ....|F-1 2A.F ....|F-1 2A.F ....
....|..|R-- .... ....|--- .... ....|--- .... ....
....|..|--- .... ....|--- .... ....|--- .... ....
....|..|--- .... ....|--- .... ....|--- .... ....
 D#4|..|D#3 2C.F ....|F-1 2F.7 ....|D#3 2C.F ....
 F-3|..|F-3 2F.7 ....|--- .... ....|F-1 2F.7 ....
....|..|R-- .... ....|--- .... ....|R-- .... ....
....|..|--- .... ....|--- .... ....|--- .... ....
 C-4|..|C-3 RF.7 ....|C-2 2F.7 ....|C-2 2F.7 ....
 C-4|..|C-2 2F.7 ....|--- .... ....|--- .... ....
....|..|R-- .... ....|--- .... ....|--- .... ....
....|..|--- .... ....|--- .... ....|--- .... ....
 B-3|..|B-1 2F.7 ....|B-1 2F.7 ....|B-1 2F.7 ....
....|..|R-- .... ....|--- .... ....|--- .... ....
....|..|--- .... ....|--- .... ....|--- .... ....
....|..|--- .... ....|--- .... ....|--- .... ....
 F-4|..|F-3 2C.F ....|G#1 2F.7 ....|F-3 2C.F ....
 G#3|..|G#1 2F.7 ....|--- .... ....|G#1 2F.7 ....
 F-4|..|F-4 2F.7 ....|--- .... ....|R-- .... ....
....|..|--- .... ....|--- .... ....|--- .... ....
 G-3|..|G-1 2F.7 ....|G-1 2F.7 ....|G-1 2F.7 ....
....|..|--- .... ....|--- .... ....|--- .... ....
....|..|--- .... ....|--- .... ....|--- .... ....
....|..|--- .... ....|--- .... ....|--- .... ....
 F-3|..|F-1 2F.7 ....|F-1 2F.7 ....|F-1 2F.7 ....
....|..|R-- .... ....|--- .... ....|--- .... ....
....|..|--- .... ....|--- .... ....|--- .... ....
....|..|--- .... ....|--- .... ....|--- .... ....
 D#4|..|D#3 2F.7 ....|--- .... ....|D#3 2F.7 ....
....|..|--- .... ....|--- .... ....|--- .... ....
....|..|R-- .... ....|--- .... ....|R-- .... ....
....|..|--- .... ....|--- .... ....|--- .... ....
 D#4|..|D#3 2C.F ....|R-- .... ....|D#3 2C.F ....
....|..|--- .... ....|--- .... ....|--- .... ....
....|..|R-- .... ....|--- .... ....|R-- .... ....
....|..|--- .... ....|--- .... ....|--- .... ....
....|..|--- .... ....|--- .... ....|--- .... ....
....|..|--- .... ....|--- .... ....|--- .... ....
....|..|--- .... ....|--- .... ....|--- .... ....
....|..|--- .... ....|--- .... ....|--- .... ....
 F-4|..|F-3 2F.7 ....|--- .... ....|F-3 2F.7 ....
....|..|--- .... ....|--- .... ....|--- .... ....
....|..|R-- .... ....|--- .... ....|R-- .... ....
....|..|--- .... ....|--- .... ....|--- .... ....
 F-4|..|F-3 2C.F ....|--- .... ....|F-3 2C.F ....
....|..|--- .... ....|--- .... ....|--- .... ....
....|..|R-- .... ....|--- .... ....|R-- .... ....
....|..|--- .... ....|--- .... ....|--- .... ....
....|..|--- .... ....|--- .... ....|--- .... ....
....|..|--- .... ....|--- .... ....|--- .... ....
....|..|--- .... ....|--- .... ....|--- .... ....
....|..|--- .... ....|--- .... ....|--- .... ....
....|..|--- .... ....|--- .... ....|--- .... ....
....|..|--- .... ....|--- .... ....|--- .... ....
....|..|--- .... ....|--- .... ....|--- .... ....
....|..|--- .... ....|--- .... ....|--- .... ....
 D#4|..|D#3 2F.7 ....|--- .... ....|D#3 2F.7 ....
....|..|--- .... ....|--- .... ....|--- .... ....
....|..|R-- .... ....|--- .... ....|R-- .... ....
....|..|--- .... ....|--- .... ....|--- .... ....
....|..|--- .... ....|--- .... ....|--- .... ....
....|..|--- .... ....|--- .... ....|--- .... ....
....|..|--- .... ....|--- .... ....|--- .... ....
....|..|--- .... ....|--- .... ....|--- .... ....

[Pattern54]
....|..|--- .... ....|--- .... ....|--- .... ....
....|..|--- .... ....|--- .... ....|--- .... ....
....|..|--- .... ....|--- .... ....|--- .... ....
....|..|--- .... ....|--- .... ....|--- .... ....
 D#4|..|D#3 2C.F ....|--- .... ....|D#3 2C.F ....
....|..|--- .... ....|--- .... ....|--- .... ....
....|..|R-- .... ....|--- .... ....|R-- .... ....
....|..|--- .... ....|--- .... ....|--- .... ....
....|..|--- .... ....|--- .... ....|--- .... ....
....|..|--- .... ....|--- .... ....|--- .... ....
....|..|--- .... ....|--- .... ....|--- .... ....
....|..|--- .... ....|--- .... ....|--- .... ....
....|..|--- .... ....|--- .... ....|--- .... ....
....|..|--- .... ....|--- .... ....|--- .... ....
....|..|--- .... ....|--- .... ....|--- .... ....
....|..|--- .... ....|--- .... ....|--- .... ....
 F-4|..|F-3 2C.F ....|--- .... ....|F-3 2C.F ....
....|..|--- .... ....|--- .... ....|--- .... ....
....|..|R-- .... ....|--- .... ....|R-- .... ....
....|..|--- .... ....|--- .... ....|--- .... ....
....|..|--- .... ....|--- .... ....|--- .... ....
....|..|--- .... ....|--- .... ....|--- .... ....
....|..|--- .... ....|--- .... ....|--- .... ....
....|..|--- .... ....|--- .... ....|--- .... ....
....|..|--- .... ....|--- .... ....|--- .... ....
....|..|--- .... ....|--- .... ....|--- .... ....
....|..|--- .... ....|--- .... ....|--- .... ....
....|..|--- .... ....|--- .... ....|--- .... ....
 D#4|..|D#3 2F.7 ....|--- .... ....|D#3 2F.7 ....
....|..|--- .... ....|--- .... ....|--- .... ....
....|..|R-- .... ....|--- .... ....|R-- .... ....
....|..|--- .... ....|--- .... ....|--- .... ....
 D#4|..|D#3 2C.F ....|--- .... ....|D#3 2C.F ....
....|..|--- .... ....|--- .... ....|--- .... ....
....|..|R-- .... ....|--- .... ....|R-- .... ....
....|..|--- .... ....|--- .... ....|--- .... ....
....|..|--- .... ....|--- .... ....|--- .... ....
....|..|--- .... ....|--- .... ....|--- .... ....
....|..|--- .... ....|--- .... ....|--- .... ....
....|..|--- .... ....|--- .... ....|--- .... ....
 F-4|..|F-3 2F.7 ....|--- .... ....|F-3 2F.7 ....
....|..|--- .... ....|--- .... ....|--- .... ....
....|..|R-- .... ....|--- .... ....|R-- .... ....
....|..|--- .... ....|--- .... ....|--- .... ....
 F-4|..|F-3 2C.F ....|--- .... ....|F-3 2C.F ....
....|..|--- .... ....|--- .... ....|--- .... ....
....|..|R-- .... ....|--- .... ....|R-- .... ....
....|..|--- .... ....|--- .... ....|--- .... ....
....|..|--- .... ....|--- .... ....|--- .... ....
....|..|--- .... ....|--- .... ....|--- .... ....
....|..|--- .... ....|--- .... ....|--- .... ....
....|..|--- .... ....|--- .... ....|--- .... ....
....|..|--- .... ....|--- .... ....|--- .... ....
....|..|--- .... ....|--- .... ....|--- .... ....
....|..|--- .... ....|--- .... ....|--- .... ....
....|..|--- .... ....|--- .... ....|--- .... ....
 F-4|..|F-4 2C.F ....|--- .... ....|F-4 2C.F ....
....|..|--- .... ....|--- .... ....|--- .... ....
....|..|R-- .... ....|--- .... ....|R-- .... ....
....|..|--- .... ....|--- .... ....|--- .... ....
 F-4|..|F-4 2C.F ....|--- .... ....|F-4 2C.F ....
....|..|--- .... ....|--- .... ....|--- .... ....
....|..|R-- .... ....|--- .... ....|R-- .... ....
....|..|--- .... ....|--- .... ....|--- .... ....
....|..|--- .... ....|--- .... ....|--- .... ....
....|..|--- .... ....|--- .... ....|--- .... ....
....|..|--- .... ....|--- .... ....|--- .... ....
....|..|--- .... ....|--- .... ....|--- .... ....
 D#4|..|D#3 2C.F ....|--- .... ....|D#3 2C.F ....
....|..|--- .... ....|--- .... ....|--- .... ....
....|..|R-- .... ....|--- .... ....|R-- .... ....
....|..|--- .... ....|--- .... ....|--- .... ....
 F-4|..|F-4 2F.A ....|--- .... ....|F-4 2F.A ....
....|..|--- .... ....|--- .... ....|--- .... ....
....|..|R-- .... ....|--- .... ....|R-- .... ....
....|..|--- .... ....|--- .... ....|--- .... ....
....|..|--- .... ....|--- .... ....|--- .... ....
....|..|--- .... ....|--- .... ....|--- .... ....
....|..|--- .... ....|--- .... ....|--- .... ....
....|..|--- .... ....|--- .... ....|--- .... ....
 F-4|..|F-3 2C.F ....|--- .... ....|F-3 2C.F ....
....|..|--- .... ....|--- .... ....|--- .... ....
....|..|R-- .... ....|--- .... ....|R-- .... ....
....|..|--- .... ....|--- .... ....|--- .... ....
 F-4|..|F-4 2F.7 ....|--- .... ....|F-4 2F.7 ....
....|..|--- .... ....|--- .... ....|--- .... ....
....|..|R-- .... ....|--- .... ....|R-- .... ....
....|..|--- .... ....|--- .... ....|--- .... ....
....|..|--- .... ....|--- .... ....|--- .... ....
....|..|--- .... ....|--- .... ....|--- .... ....
....|..|--- .... ....|--- .... ....|--- .... ....
....|..|--- .... ....|--- .... ....|--- .... ....
 D#4|..|D#3 2F.7 ....|--- .... ....|D#3 2F.7 ....
....|..|--- .... ....|--- .... ....|--- .... ....
....|..|R-- .... ....|--- .... ....|R-- .... ....
....|..|--- .... ....|--- .... ....|--- .... ....
 D#4|..|D#3 2C.F ....|--- .... ....|D#3 2C.F ....
....|..|--- .... ....|--- .... ....|--- .... ....
....|..|R-- .... ....|--- .... ....|R-- .... ....
....|..|--- .... ....|--- .... ....|--- .... ....
....|..|--- .... ....|--- .... ....|--- .... ....
....|..|--- .... ....|--- .... ....|--- .... ....
....|..|--- .... ....|--- .... ....|--- .... ....
....|..|--- .... ....|--- .... ....|--- .... ....
 F-4|..|F-3 2F.7 ....|--- .... ....|F-3 2F.7 ....
....|..|--- .... ....|--- .... ....|--- .... ....
....|..|R-- .... ....|--- .... ....|R-- .... ....
....|..|--- .... ....|--- .... ....|--- .... ....
 F-4|..|F-3 2C.F ....|--- .... ....|F-3 2C.F ....
....|..|--- .... ....|--- .... ....|--- .... ....
....|..|R-- .... ....|--- .... ....|R-- .... ....
....|..|--- .... ....|--- .... ....|--- .... ....
....|..|--- .... ....|--- .... ....|--- .... ....
....|..|--- .... ....|--- .... ....|--- .... ....
....|..|--- .... ....|--- .... ....|--- .... ....
....|..|--- .... ....|--- .... ....|--- .... ....
....|..|--- .... ....|--- .... ....|--- .... ....
....|..|--- .... ....|--- .... ....|--- .... ....
....|..|--- .... ....|--- .... ....|--- .... ....
....|..|--- .... ....|--- .... ....|--- .... ....
 G#4|..|G#3 2C.F ....|--- .... ....|G#3 2C.F ....
....|..|--- .... ....|--- .... ....|--- .... ....
....|..|R-- .... ....|--- .... ....|R-- .... ....
....|..|--- .... ....|--- .... ....|--- .... ....
 F-4|..|F-3 2C.F ....|--- .... ....|F-3 2C.F ....
....|..|--- .... ....|--- .... ....|--- .... ....
....|..|R-- .... ....|--- .... ....|R-- .... ....
....|..|--- .... ....|--- .... ....|--- .... ....

[Pattern55]
....|..|--- .... ....|--- .... ....|--- .... ....
....|..|--- .... ....|--- .... ....|--- .... ....
....|..|--- .... ....|--- .... ....|--- .... ....
....|..|--- .... ....|--- .... ....|--- .... ....
 D#4|..|D#3 2C.F ....|--- .... ....|D#3 2C.F ....
....|..|--- .... ....|--- .... ....|--- .... ....
....|..|R-- .... ....|--- .... ....|R-- .... ....
....|..|--- .... ....|--- .... ....|--- .... ....
 F-4|..|F-3 2F.A ....|--- .... ....|F-3 2F.A ....
....|..|--- .... ....|--- .... ....|--- .... ....
....|..|R-- .... ....|--- .... ....|R-- .... ....
....|..|--- .... ....|--- .... ....|--- .... ....
....|..|--- .... ....|--- .... ....|--- .... ....
....|..|--- .... ....|--- .... ....|--- .... ....
....|..|--- .... ....|--- .... ....|--- .... ....
....|..|--- .... ....|--- .... ....|--- .... ....
 F-4|..|F-3 2C.F ....|--- .... ....|F-3 2C.F ....
....|..|--- .... ....|--- .... ....|--- .... ....
....|..|R-- .... ....|--- .... ....|R-- .... ....
....|..|--- .... ....|--- .... ....|--- .... ....
 F-4|..|F-3 2F.7 ....|--- .... ....|F-3 2F.7 ....
....|..|--- .... ....|--- .... ....|--- .... ....
....|..|R-- .... ....|--- .... ....|R-- .... ....
....|..|--- .... ....|--- .... ....|--- .... ....
....|..|--- .... ....|--- .... ....|--- .... ....
....|..|--- .... ....|--- .... ....|--- .... ....
....|..|--- .... ....|--- .... ....|--- .... ....
....|..|--- .... ....|--- .... ....|--- .... ....
 D#4|..|D#3 2F.7 ....|--- .... ....|D#3 2F.7 ....
....|..|--- .... ....|--- .... ....|--- .... ....
....|..|R-- .... ....|--- .... ....|R-- .... ....
....|..|--- .... ....|--- .... ....|--- .... ....
 D#4|..|D#3 2C.F ....|--- .... ....|D#3 2C.F ....
....|..|--- .... ....|--- .... ....|--- .... ....
....|..|R-- .... ....|--- .... ....|R-- .... ....
....|..|--- .... ....|--- .... ....|--- .... ....
....|..|--- .... ....|--- .... ....|--- .... ....
....|..|--- .... ....|--- .... ....|--- .... ....
....|..|--- .... ....|--- .... ....|--- .... ....
....|..|--- .... ....|--- .... ....|--- .... ....
 F-4|..|F-3 2F.7 ....|--- .... ....|F-3 2F.7 ....
....|..|--- .... ....|--- .... ....|--- .... ....
....|..|R-- .... ....|--- .... ....|R-- .... ....
....|..|--- .... ....|--- .... ....|--- .... ....
 F-4|..|F-3 2C.F ....|--- .... ....|F-3 2C.F ....
....|..|--- .... ....|--- .... ....|--- .... ....
....|..|R-- .... ....|--- .... ....|R-- .... ....
....|..|--- .... ....|--- .... ....|--- .... ....
....|..|--- .... ....|--- .... ....|--- .... ....
....|..|--- .... ....|--- .... ....|--- .... ....
....|..|--- .... ....|--- .... ....|--- .... ....
....|..|--- .... ....|--- .... ....|--- .... ....
....|..|--- .... ....|--- .... ....|--- .... ....
....|..|--- .... ....|--- .... ....|--- .... ....
....|..|--- .... ....|--- .... ....|--- .... ....
....|..|--- .... ....|--- .... ....|--- .... ....
 F-4|..|F-4 2C.F ....|--- .... ....|F-4 2C.F ....
....|..|--- .... ....|--- .... ....|--- .... ....
....|..|R-- .... ....|--- .... ....|R-- .... ....
....|..|--- .... ....|--- .... ....|--- .... ....
 F-4|..|F-4 2C.F ....|--- .... ....|F-4 2C.F ....
....|..|--- .... ....|--- .... ....|--- .... ....
....|..|R-- .... ....|--- .... ....|R-- .... ....
....|..|--- .... ....|--- .... ....|--- .... ....
....|..|--- .... ....|--- .... ....|--- .... ....
....|..|--- .... ....|--- .... ....|--- .... ....
....|..|--- .... ....|--- .... ....|--- .... ....
....|..|--- .... ....|--- .... ....|--- .... ....
 F-4|..|F-3 2F.7 ....|--- .... ....|F-3 2F.7 ....
....|..|--- .... ....|--- .... ....|--- .... ....
....|..|R-- .... ....|--- .... ....|R-- .... ....
....|..|--- .... ....|--- .... ....|--- .... ....
 F-4|..|F-4 2F.A ....|--- .... ....|F-4 2F.A ....
....|..|--- .... ....|--- .... ....|--- .... ....
....|..|R-- .... ....|--- .... ....|R-- .... ....
....|..|--- .... ....|--- .... ....|--- .... ....
....|..|--- .... ....|--- .... ....|--- .... ....
....|..|--- .... ....|--- .... ....|--- .... ....
....|..|--- .... ....|--- .... ....|--- .... ....
....|..|--- .... ....|--- .... ....|--- .... ....
 F-4|..|F-4 2F.7 ....|--- .... ....|F-4 2F.7 ....
....|..|--- .... ....|--- .... ....|--- .... ....
....|..|R-- .... ....|--- .... ....|R-- .... ....
....|..|--- .... ....|--- .... ....|--- .... ....
 F-4|..|F-4 2F.7 ....|--- .... ....|F-4 2F.7 ....
....|..|--- .... ....|--- .... ....|--- .... ....

