[Module]
VortexTrackerII=0
Version=3.5
Title=7du-1me-2p,4me-3me+-8m,6m-5me-9m
Author=oisee ^ 4d 29.05.2010
NoteTable=4
ChipFreq=1750000
Speed=4
PlayOrder=L0,1,2,3,4,5,6,7,8,9,10,11,12,13,14,15,16,17,18,19,20,21,22,23,24,25,26,27,28,29,30,31,32,33,34,35,36,37,38,39,40,41,42,43,44,45,46,47,48,49,50,51,52,53,54,55,56,57,18,55,20,61,62,63,62,63,62,67,68,69,70,71,68,69,70,75



[Sample1]
TnE +000_ +00_ F_
TnE +000_ +00_ F_
TnE +000_ +00_ F_
TnE +000_ +00_ D_
TnE +000_ +00_ B_
TnE +000_ +00_ B_ L

[Sample2]
TnE +000_ +00_ F_ L

[Sample3]
TnE +001_ +00_ F_
TnE +002_ +00_ F_
TnE +001_ +00_ E_
TnE +002_ +00_ E_
TnE +000_ +00_ E_ L
TnE -001_ +00_ E_
TnE -002_ +00_ E_
TnE -001_ +00_ E_
TnE +000_ +00_ E_
TnE +001_ +00_ E_
TnE +002_ +00_ E_
TnE +001_ +00_ E_

[Sample4]
TnE +002_ +00_ D_
TnE +002_ +00_ D_
TnE +002_ +00_ C_
TnE +002_ +00_ B_
TnE +002_ +00_ A_ L
TnE +002_ +00_ A_
TnE +002_ +00_ A_
TnE +002_ +00_ A_
TnE +002_ +00_ A_
TnE +002_ +00_ A_
TnE +002_ +00_ A_
TnE +002_ +00_ A_

[Sample5]
TnE +000_ +00_ F_
TnE +000_ +00_ F_
tne +000_ +00_ 0_ L

[Sample6]
TnE -001_ +00_ F_ L

[Sample7]
TnE +006_ +00_ F_ L

[Sample8]
tNe +000_ +00_ F_
tNe +000_ +00_ B_
tNe +000_ +00_ 7_
tNe +000_ +00_ 6- L

[Sample9]
TnE +080_ +00_ F_
TnE +100_ +00_ E_
TnE +180_ +00_ E_
TnE +200_ +00_ E_
TnE +240_ +00_ D_
TnE +280_ +00_ D_
TnE +2C0_ +00_ D_
TnE +300_ +00_ C_
TnE +300_ +00_ C_
TnE +340_ +00_ C_
TnE +340_ +00_ C_
TnE +380_ +00_ B_
TnE +380_ +00_ B_
TnE +400_ +00_ B_
TnE +400_ +00_ B_
TnE +480_ +00_ A_
TnE +500_ +00_ 9_
TnE +580_ +00_ 7_
TnE +600_ +00_ 4_
TnE +680_ +00_ 1_
TnE +000_ +00_ 0_ L

[Sample10]
Tne +1C0_ +00_ F_
Tne +280_ +00_ E_
Tne +380_ +00_ C_
Tne +440_ +00_ A_
Tne +480_ +00_ 8_
TnE +000_ +00_ 0_ L

[Sample11]
TNe +200_ -0A_ F_
tNe +000_ +0F_ A_
TNe +200_ -07_ E_
tNe +000_ +0E_ B- L

[Sample12]
TNE +0A0_ +05_ F_
TNE +140_ +02_ D_
TNE +140_ +02_ B_
TNE +100_ +00_ A_ L
TNE +140_ +00_ A_
TNE +200_ +00_ A-

[Sample13]
Tne +200_ +00_ F_
Tne +2C0_ +00_ F_
Tne +380_ +00_ E_
Tne +500_ +00_ C_
Tne +520_ +00_ 9_
tne +000_ +00_ 0_ L

[Sample14]
TNE -100_ +00_ F_
TNE -100_ +00_ D_
TNE -100_ +00_ A_
TNE -100_ +00_ 5_
tne +000_ +00_ 0_ L

[Sample15]
TNE -100_ +00_ 5_
TNE -100_ +00_ 8_
TNE -100_ +00_ B_
TNE -100_ +00_ F_
TNe -100_ +00_ 9- L

[Sample16]
TnE +000_ +00_ C_
TnE +000_ +00_ E_
TnE +000_ +00_ F_
TnE +000_ +00_ F_
TnE +000_ +00_ E_
TnE +000_ +00_ D_
TnE +000_ +00_ C_
TnE +000_ +00_ C_ L
TnE +001_ +00_ C_
TnE +002_ +00_ C_
TnE +003_ +00_ C_
TnE +001_ +00_ C_
TnE +000_ +00_ C_
TnE -001_ +00_ C_
TnE -002_ +00_ C_
TnE -003_ +00_ C_
TnE -001_ +00_ C_
TnE +000_ +00_ C_
TnE +000_ +00_ C_

[Sample17]
Tne +1C0_ +00_ F_
Tne +280_ +00_ D_
Tne +380_ +00_ 7_
TNE +000_ +00_ 0_ L

[Sample18]
TnE -00C_ +00_ 0_ L

[Sample19]
TNe +000_ +00_ F_
TNe +000_ +00_ C_
TNe +000_ +00_ 6_
TNe +000_ +01_ A- L

[Sample20]
TNE +140_ +00_ F_
tNE +000_ +00_ B- L

[Sample21]
tNE +000_ +00_ D_
tNE +000_ +00_ 8_
tNE +000_ +00_ 1_
TNE +000_ +00_ 0_ L

[Sample22]
TnE +000_ +00_ D_ L
TnE +000_ +00_ D_
tne +000_ +00_ 9_
tne +000_ +00_ 9_
TnE +000_ +00_ D_
TnE +000_ +00_ D_
tne +000_ +00_ 9_
tne +000_ +00_ 9_
TnE +000_ +00_ D_
TnE +000_ +00_ D_
TnE +000_ +00_ D_
TnE +000_ +00_ D_
TnE +000_ +00_ D_
TnE +000_ +00_ D_
tne +000_ +00_ 9_
tne +000_ +00_ 9_

[Sample23]
TnE +000_ +00_ F_ L
TnE +010_ +01_ F_
TnE +010_ +01_ F_
TnE +010_ +01_ F_
TnE +010_ +01_ F_
TnE +000_ +00_ F_
TnE +000_ +00_ F_
TnE -010_ -01_ F_
TnE -010_ -01_ F_
TnE -010_ -01_ F_
TnE -010_ -01_ F_
TnE +000_ +00_ F_

[Sample24]
TNe +000_ -01_ C_
TNe +000_ -01_ D_
TNe +000_ -01_ E_
TNe +000_ -01_ F_
TNe +000_ -01_ F_
TNe +000_ -01_ F_
TNe +000_ -01_ F_
TNe +000_ -01_ F_
TNe +000_ -01_ E_
TNe +000_ -01_ E_
TNe +000_ -01_ E_
TNe +000_ -01_ F_
TNe +000_ -01_ F_ L

[Sample25]
TNE +000_ +00_ F_
TNE +000_ +00_ F_ L
TNE +000_ +00_ F_
TNE +000_ +00_ F_
TNE +000_ +00_ F-

[Sample26]
tne +000_ +00_ 0_ L

[Sample27]
TnE +100_ +05_ F_
TnE +200_ +02_ A_
TnE +300_ +02_ 7_
TNE +400_ +00_ 3- L

[Sample28]
tne +000_ +00_ 0_ L

[Sample29]
tnE +000_ +00_ 0_ L

[Sample30]
TNE +000_ +00_ C+ L

[Sample31]
TNe +1C0_ +00_ F_
Tne +280_ +00_ E_
Tne +380_ +00_ C_
Tne +440_ +00_ A_
Tne +480_ +00_ 8_
TnE +000_ +00_ 0_ L

[Pattern0]
....|..|--- .... ....|--- .... ....|--- .... ....
....|..|--- .... ....|--- .... ....|--- .... ....
....|..|--- .... ....|--- .... ....|--- .... ....
....|..|--- .... ....|--- .... ....|--- .... ....
....|..|--- .... ....|--- .... ....|--- .... ....
....|..|--- .... ....|--- .... ....|--- .... ....
....|..|--- .... ....|--- .... ....|--- .... ....
....|..|--- .... ....|--- .... ....|--- .... ....
....|..|--- .... ....|--- .... ....|--- .... ....
....|..|--- .... ....|--- .... ....|--- .... ....
....|..|--- .... ....|--- .... ....|--- .... ....
....|..|--- .... ....|--- .... ....|--- .... ....
....|..|--- .... ....|--- .... ....|--- .... ....
....|..|--- .... ....|--- .... ....|--- .... ....
....|..|--- .... ....|--- .... ....|--- .... ....
....|..|--- .... ....|--- .... ....|--- .... ....
....|..|--- .... ....|--- .... ....|--- .... ....
....|..|--- .... ....|--- .... ....|--- .... ....
....|..|--- .... ....|--- .... ....|--- .... ....
....|..|--- .... ....|--- .... ....|--- .... ....
....|..|--- .... ....|--- .... ....|--- .... ....
....|..|--- .... ....|--- .... ....|--- .... ....
....|..|--- .... ....|--- .... ....|--- .... ....
....|..|--- .... ....|--- .... ....|--- .... ....
....|..|--- .... ....|--- .... ....|--- .... ....
....|..|--- .... ....|--- .... ....|--- .... ....
....|..|--- .... ....|--- .... ....|--- .... ....
....|..|--- .... ....|--- .... ....|--- .... ....
....|..|--- .... ....|--- .... ....|--- .... ....
....|..|--- .... ....|--- .... ....|--- .... ....
....|..|--- .... ....|--- .... ....|--- .... ....
....|..|--- .... ....|--- .... ....|--- .... ....
....|..|--- .... ....|--- .... ....|--- .... ....
....|..|--- .... ....|--- .... ....|--- .... ....
....|..|--- .... ....|--- .... ....|--- .... ....
....|..|--- .... ....|--- .... ....|--- .... ....
....|..|--- .... ....|--- .... ....|--- .... ....
....|..|--- .... ....|--- .... ....|--- .... ....
....|..|--- .... ....|--- .... ....|--- .... ....
....|..|--- .... ....|--- .... ....|--- .... ....
....|..|--- .... ....|--- .... ....|--- .... ....
....|..|--- .... ....|--- .... ....|--- .... ....
....|..|--- .... ....|--- .... ....|--- .... ....
....|..|--- .... ....|--- .... ....|--- .... ....
....|..|--- .... ....|--- .... ....|--- .... ....
....|..|--- .... ....|--- .... ....|--- .... ....
....|..|--- .... ....|--- .... ....|--- .... ....
....|..|--- .... ....|--- .... ....|--- .... ....
....|..|--- .... ....|--- .... ....|--- .... ....
....|..|--- .... ....|--- .... ....|--- .... ....
....|..|--- .... ....|--- .... ....|--- .... ....
....|..|--- .... ....|--- .... ....|--- .... ....
....|..|--- .... ....|--- .... ....|--- .... ....
....|..|--- .... ....|--- .... ....|--- .... ....
....|..|--- .... ....|--- .... ....|--- .... ....
....|..|--- .... ....|--- .... ....|--- .... ....
....|..|--- .... ....|--- .... ....|--- .... ....
....|..|--- .... ....|--- .... ....|--- .... ....
....|..|--- .... ....|--- .... ....|--- .... ....
....|..|--- .... ....|--- .... ....|--- .... ....
....|..|--- .... ....|--- .... ....|--- .... ....
....|..|--- .... ....|--- .... ....|--- .... ....
....|..|--- .... ....|--- .... ....|--- .... ....
....|..|--- .... ....|--- .... ....|--- .... ....
....|..|--- .... ....|--- .... ....|--- .... ....
....|..|--- .... ....|--- .... ....|--- .... ....
....|..|--- .... ....|--- .... ....|--- .... ....
....|..|--- .... ....|--- .... ....|--- .... ....
....|..|--- .... ....|--- .... ....|--- .... ....
....|..|--- .... ....|--- .... ....|--- .... ....
....|..|--- .... ....|--- .... ....|--- .... ....
....|..|--- .... ....|--- .... ....|--- .... ....
....|..|--- .... ....|--- .... ....|--- .... ....
....|..|--- .... ....|--- .... ....|--- .... ....
....|..|--- .... ....|--- .... ....|--- .... ....
....|..|--- .... ....|--- .... ....|--- .... ....
....|..|--- .... ....|--- .... ....|--- .... ....
....|..|--- .... ....|--- .... ....|--- .... ....
....|..|--- .... ....|--- .... ....|--- .... ....
....|..|--- .... ....|--- .... ....|--- .... ....
....|..|--- .... ....|--- .... ....|--- .... ....
....|..|--- .... ....|--- .... ....|--- .... ....
....|..|--- .... ....|--- .... ....|--- .... ....
....|..|--- .... ....|--- .... ....|--- .... ....
....|..|--- .... ....|--- .... ....|--- .... ....
....|..|--- .... ....|--- .... ....|--- .... ....
....|..|--- .... ....|--- .... ....|--- .... ....
....|..|--- .... ....|--- .... ....|--- .... ....
....|..|--- .... ....|--- .... ....|--- .... ....
....|..|--- .... ....|--- .... ....|--- .... ....
....|..|--- .... ....|--- .... ....|--- .... ....
....|..|--- .... ....|--- .... ....|--- .... ....
....|..|--- .... ....|--- .... ....|--- .... ....
....|..|--- .... ....|--- .... ....|--- .... ....
....|..|--- .... ....|--- .... ....|--- .... ....
....|..|--- .... ....|--- .... ....|--- .... ....

[Pattern1]
 C-3|..|C-3 2C.F ....|--- .... ....|--- .... ....
....|..|--- .... ....|--- .... ....|--- .... ....
....|..|--- .... ....|--- .... ....|--- .... ....
....|..|R-- .... ....|--- .... ....|--- .... ....
....|..|C-3 2F.A ....|--- .... ....|--- .... ....
....|..|--- .... ....|--- .... ....|--- .... ....
 G-4|..|G-3 2C.F ....|--- .... ....|--- .... ....
....|..|R-- .... ....|--- .... ....|--- .... ....
....|..|C-3 2F.7 ....|--- .... ....|--- .... ....
 A#3|..|A#3 2C.F ....|--- .... ....|--- .... ....
 A#3|..|A#3 2C.F ....|--- .... ....|--- .... ....
....|..|R-- .... ....|--- .... ....|--- .... ....
....|..|--- .... ....|--- .... ....|--- .... ....
....|..|A#3 2F.A ....|--- .... ....|--- .... ....
....|..|G-3 2F.7 ....|--- .... ....|--- .... ....
 C-3|..|C-3 2C.F ....|--- .... ....|--- .... ....
....|..|--- .... ....|--- .... ....|--- .... ....
....|..|A#3 2F.7 ....|--- .... ....|--- .... ....
....|..|A#3 2F.7 ....|--- .... ....|--- .... ....
....|..|C-3 2F.A ....|--- .... ....|--- .... ....
....|..|--- .... ....|--- .... ....|--- .... ....
 G-4|..|G-3 2C.F ....|--- .... ....|--- .... ....
....|..|R-- .... ....|--- .... ....|--- .... ....
....|..|C-3 2F.7 ....|--- .... ....|--- .... ....
....|..|--- .... ....|--- .... ....|--- .... ....
....|..|G-3 2F.A ....|--- .... ....|--- .... ....
....|..|--- .... ....|--- .... ....|--- .... ....
 A#3|..|A#3 2C.F ....|--- .... ....|--- .... ....
 A#3|..|A#3 2C.F ....|--- .... ....|--- .... ....
....|..|G-3 2F.7 ....|--- .... ....|--- .... ....
....|..|--- .... ....|--- .... ....|--- .... ....
....|..|A#3 2F.A ....|--- .... ....|--- .... ....
....|..|A#3 2F.A ....|--- .... ....|--- .... ....
 C-3|..|C-3 2C.F ....|--- .... ....|--- .... ....
....|..|--- .... ....|--- .... ....|--- .... ....
....|..|A#3 2F.7 ....|--- .... ....|--- .... ....
 G-4|..|G-3 2C.F ....|--- .... ....|--- .... ....
 G-4|..|G-3 2C.F ....|--- .... ....|--- .... ....
....|..|--- .... ....|--- .... ....|--- .... ....
....|..|--- .... ....|--- .... ....|--- .... ....
....|..|G-3 2F.A ....|--- .... ....|--- .... ....
....|..|C-3 2F.7 ....|--- .... ....|--- .... ....
 A#3|..|A#3 2C.F ....|--- .... ....|--- .... ....
 A#3|..|A#3 2C.F ....|--- .... ....|--- .... ....
....|..|G-3 2F.7 ....|--- .... ....|--- .... ....
....|..|G-3 2F.7 ....|--- .... ....|--- .... ....
....|..|A#3 2F.A ....|--- .... ....|--- .... ....
....|..|A#3 2F.A ....|--- .... ....|--- .... ....
 C-3|..|C-3 2C.F ....|--- .... ....|--- .... ....
....|..|--- .... ....|--- .... ....|--- .... ....
....|..|A#3 2F.7 ....|--- .... ....|--- .... ....
....|..|A#3 2F.7 ....|--- .... ....|--- .... ....
....|..|C-3 2F.A ....|--- .... ....|--- .... ....
....|..|--- .... ....|--- .... ....|--- .... ....
 G-4|..|G-3 2C.F ....|--- .... ....|--- .... ....
....|..|--- .... ....|--- .... ....|--- .... ....
....|..|C-3 2F.7 ....|--- .... ....|--- .... ....
 A#3|..|A#3 2C.F ....|--- .... ....|--- .... ....
 A#3|..|A#3 2C.F ....|--- .... ....|--- .... ....
....|..|--- .... ....|--- .... ....|--- .... ....
....|..|R-- .... ....|--- .... ....|--- .... ....
....|..|A#3 2F.A ....|--- .... ....|--- .... ....
....|..|G-3 2F.7 ....|--- .... ....|--- .... ....
 C-3|..|C-3 2C.F ....|--- .... ....|--- .... ....
....|..|--- .... ....|--- .... ....|--- .... ....
....|..|A#3 2F.7 ....|--- .... ....|--- .... ....
....|..|A#3 2F.7 ....|--- .... ....|--- .... ....
....|..|C-3 2F.A ....|--- .... ....|--- .... ....
....|..|R-- .... ....|--- .... ....|--- .... ....
 G-4|..|G-3 2C.F ....|--- .... ....|--- .... ....
....|..|--- .... ....|--- .... ....|--- .... ....
....|..|C-3 2F.7 ....|--- .... ....|--- .... ....
....|..|R-- .... ....|--- .... ....|--- .... ....
....|..|G-3 2F.A ....|--- .... ....|--- .... ....
....|..|--- .... ....|--- .... ....|--- .... ....
 A#3|..|A#3 2C.F ....|--- .... ....|--- .... ....
 A#3|..|A#3 2C.F ....|--- .... ....|--- .... ....
....|..|G-3 2F.7 ....|--- .... ....|--- .... ....
....|..|--- .... ....|--- .... ....|--- .... ....
....|..|A#3 2F.A ....|--- .... ....|--- .... ....
....|..|A#3 2F.A ....|--- .... ....|--- .... ....
 C-3|..|C-3 2C.F ....|--- .... ....|--- .... ....
....|..|--- .... ....|--- .... ....|--- .... ....
....|..|A#3 2F.7 ....|--- .... ....|--- .... ....
 G-4|..|G-3 2C.F ....|--- .... ....|--- .... ....
....|..|C-3 2F.A ....|--- .... ....|--- .... ....
 G-4|..|G-3 2C.F ....|--- .... ....|--- .... ....
....|..|--- .... ....|--- .... ....|--- .... ....
....|..|G-3 2F.A ....|--- .... ....|--- .... ....
....|..|C-3 2F.7 ....|--- .... ....|--- .... ....
 G-4|..|G-3 2C.F ....|--- .... ....|--- .... ....
 A#3|..|A#1 2A.F ....|--- .... ....|--- .... ....
....|..|G-3 2F.7 ....|--- .... ....|--- .... ....
 B-3|..|B-1 2A.F ....|--- .... ....|--- .... ....
....|..|G-3 2F.7 ....|--- .... ....|--- .... ....
 B-3|..|B-1 2A.F ....|--- .... ....|--- .... ....

[Pattern2]
 C-3|..|C-3 2C.F ....|--- .... ....|--- .... ....
 C-3|..|C-3 2C.F ....|--- .... ....|--- .... ....
....|..|G-3 2F.7 ....|--- .... ....|--- .... ....
....|..|A#1 2F.7 ....|--- .... ....|--- .... ....
....|..|C-3 2F.A ....|--- .... ....|--- .... ....
....|..|B-1 2F.7 ....|--- .... ....|--- .... ....
 G-4|..|G-3 2C.F ....|--- .... ....|--- .... ....
....|..|B-1 2F.7 ....|--- .... ....|--- .... ....
....|..|C-3 2F.7 ....|--- .... ....|--- .... ....
 A#3|..|A#3 2C.F ....|--- .... ....|--- .... ....
 A#3|..|A#3 2C.F ....|--- .... ....|--- .... ....
....|..|--- .... ....|--- .... ....|--- .... ....
....|..|R-- .... ....|--- .... ....|--- .... ....
....|..|A#3 2F.A ....|--- .... ....|--- .... ....
....|..|G-3 2F.7 ....|--- .... ....|--- .... ....
 C-3|..|C-3 2C.F ....|--- .... ....|--- .... ....
....|..|--- .... ....|--- .... ....|--- .... ....
....|..|A#3 2F.7 ....|--- .... ....|--- .... ....
....|..|A#3 2F.7 ....|--- .... ....|--- .... ....
....|..|C-3 2F.A ....|--- .... ....|--- .... ....
....|..|R-- .... ....|--- .... ....|--- .... ....
 G-4|..|G-3 2C.F ....|--- .... ....|--- .... ....
....|..|--- .... ....|--- .... ....|--- .... ....
....|..|C-3 2F.7 ....|--- .... ....|--- .... ....
....|..|R-- .... ....|--- .... ....|--- .... ....
....|..|G-3 2F.A ....|--- .... ....|--- .... ....
....|..|--- .... ....|--- .... ....|--- .... ....
 A#3|..|A#3 2C.F ....|--- .... ....|--- .... ....
 A#3|..|A#3 2C.F ....|--- .... ....|--- .... ....
....|..|G-3 2F.7 ....|--- .... ....|--- .... ....
....|..|--- .... ....|--- .... ....|--- .... ....
....|..|A#3 2F.A ....|--- .... ....|--- .... ....
....|..|A#3 2F.A ....|--- .... ....|--- .... ....
 C-3|..|C-3 2C.F ....|--- .... ....|--- .... ....
....|..|--- .... ....|--- .... ....|--- .... ....
....|..|A#3 2F.7 ....|--- .... ....|--- .... ....
 G-4|..|G-3 2C.F ....|--- .... ....|--- .... ....
 G-4|..|G-3 2C.F ....|--- .... ....|--- .... ....
....|..|--- .... ....|--- .... ....|--- .... ....
....|..|--- .... ....|--- .... ....|--- .... ....
....|..|G-3 2F.A ....|--- .... ....|--- .... ....
....|..|C-3 2F.7 ....|--- .... ....|--- .... ....
 A#3|..|A#3 2C.F ....|--- .... ....|--- .... ....
 A#3|..|A#3 2C.F ....|--- .... ....|--- .... ....
....|..|G-3 2F.7 ....|--- .... ....|--- .... ....
....|..|G-3 2F.7 ....|--- .... ....|--- .... ....
....|..|A#3 2F.A ....|--- .... ....|--- .... ....
....|..|A#3 2F.A ....|--- .... ....|--- .... ....
 C-3|..|C-3 2C.F ....|--- .... ....|--- .... ....
....|..|--- .... ....|--- .... ....|--- .... ....
....|..|A#3 2F.7 ....|--- .... ....|--- .... ....
....|..|A#3 2F.7 ....|--- .... ....|--- .... ....
....|..|C-3 2F.A ....|--- .... ....|--- .... ....
....|..|--- .... ....|--- .... ....|--- .... ....
 G-4|..|G-3 2C.F ....|--- .... ....|--- .... ....
....|..|--- .... ....|--- .... ....|--- .... ....
....|..|C-3 2F.7 ....|--- .... ....|--- .... ....
 A#3|..|A#3 2C.F ....|--- .... ....|--- .... ....
 A#3|..|A#3 2C.F ....|--- .... ....|--- .... ....
....|..|--- .... ....|--- .... ....|--- .... ....
....|..|R-- .... ....|--- .... ....|--- .... ....
....|..|A#3 2F.A ....|--- .... ....|--- .... ....
....|..|G-3 2F.7 ....|--- .... ....|--- .... ....
 C-3|..|C-3 2C.F ....|--- .... ....|--- .... ....
....|..|--- .... ....|--- .... ....|--- .... ....
....|..|A#3 2F.7 ....|--- .... ....|--- .... ....
....|..|A#3 2F.7 ....|--- .... ....|--- .... ....
....|..|C-3 2F.A ....|--- .... ....|--- .... ....
....|..|--- .... ....|--- .... ....|--- .... ....
 G-4|..|G-3 2C.F ....|--- .... ....|--- .... ....
....|..|--- .... ....|--- .... ....|--- .... ....
....|..|C-3 2F.7 ....|--- .... ....|--- .... ....
....|..|--- .... ....|--- .... ....|--- .... ....
....|..|G-3 2F.A ....|--- .... ....|--- .... ....
....|..|--- .... ....|--- .... ....|--- .... ....
 A#3|..|A#3 2C.F ....|--- .... ....|--- .... ....
 A#3|..|A#3 2C.F ....|--- .... ....|--- .... ....
....|..|G-3 2F.7 ....|--- .... ....|--- .... ....
....|..|--- .... ....|--- .... ....|--- .... ....
....|..|A#3 2F.A ....|--- .... ....|--- .... ....
....|..|A#3 2F.A ....|--- .... ....|--- .... ....
 C-3|..|C-3 2C.F ....|--- .... ....|--- .... ....
....|..|--- .... ....|--- .... ....|--- .... ....
....|..|A#3 2F.7 ....|--- .... ....|--- .... ....
 G-4|..|G-3 2C.F ....|--- .... ....|--- .... ....
 G-4|..|G-3 2C.F ....|--- .... ....|--- .... ....
....|..|--- .... ....|--- .... ....|--- .... ....
....|..|--- .... ....|--- .... ....|--- .... ....
....|..|G-3 2F.A ....|--- .... ....|--- .... ....
....|..|C-3 2F.7 ....|--- .... ....|--- .... ....
 G-4|..|G-3 2C.F ....|--- .... ....|--- .... ....
 A#3|..|A#1 2A.F ....|--- .... ....|--- .... ....
....|..|G-3 2F.7 ....|--- .... ....|--- .... ....
 B-3|..|B-1 2A.F ....|--- .... ....|--- .... ....
 B-3|..|B-1 2A.F ....|--- .... ....|--- .... ....
....|..|A#1 2F.A ....|--- .... ....|--- .... ....

[Pattern3]
....|..|C-4 AF.F ....|--- .... ....|--- .... ....
....|..|C-4 AF.F ....|--- .... ....|--- .... ....
 C-4|..|C-2 2A.F ....|--- .... ....|--- .... ....
....|..|C-4 LF.F ....|--- .... ....|--- .... ....
 C-4|..|C-2 2A.F ....|--- .... ....|--- .... ....
....|..|G-3 2F.7 ....|--- .... ....|--- .... ....
....|..|C-4 LF.F ....|--- .... ....|--- .... ....
 C-3|..|C-3 2C.F ....|--- .... ....|--- .... ....
....|..|B-1 2F.7 ....|--- .... ....|--- .... ....
....|..|C-4 LF.F ....|--- .... ....|--- .... ....
 A#3|..|A#3 2C.F ....|--- .... ....|--- .... ....
....|..|C-2 2F.7 ....|--- .... ....|--- .... ....
....|..|C-5 VF.F ....|--- .... ....|--- .... ....
....|..|A#3 2F.A ....|--- .... ....|--- .... ....
....|..|C-5 VF.F ....|--- .... ....|--- .... ....
....|..|C-4 LF.F ....|--- .... ....|--- .... ....
....|..|C-2 2F.A ....|--- .... ....|--- .... ....
....|..|A#3 2F.7 ....|--- .... ....|--- .... ....
....|..|C-4 LF.F ....|--- .... ....|--- .... ....
 C-3|..|C-3 2C.F ....|--- .... ....|--- .... ....
....|..|C-2 2F.7 ....|--- .... ....|--- .... ....
....|..|C-4 AF.F ....|--- .... ....|--- .... ....
 G-4|..|G-3 2C.F ....|--- .... ....|--- .... ....
 G-4|..|G-3 2C.F ....|--- .... ....|--- .... ....
....|..|C-4 LF.F ....|--- .... ....|--- .... ....
....|..|G-3 2F.A ....|--- .... ....|--- .... ....
....|..|C-3 2F.7 ....|--- .... ....|--- .... ....
....|..|C-4 LF.F ....|--- .... ....|--- .... ....
 A#3|..|A#3 2C.F ....|--- .... ....|--- .... ....
 A#3|..|A#3 2C.F ....|--- .... ....|--- .... ....
....|..|C-4 AF.F ....|--- .... ....|--- .... ....
....|..|A#3 2F.A ....|--- .... ....|--- .... ....
....|..|C-4 AF.F ....|--- .... ....|--- .... ....
....|..|C-4 LF.F ....|--- .... ....|--- .... ....
....|..|A#3 2F.A ....|--- .... ....|--- .... ....
 C-3|..|C-3 2C.F ....|--- .... ....|--- .... ....
....|..|C-5 VF.F ....|--- .... ....|--- .... ....
 G-4|..|G-3 2C.F ....|--- .... ....|--- .... ....
....|..|C-5 VF.F ....|--- .... ....|--- .... ....
....|..|C-4 LF.F ....|--- .... ....|--- .... ....
....|..|G-3 2F.A ....|--- .... ....|--- .... ....
....|..|C-3 2F.7 ....|--- .... ....|--- .... ....
....|..|C-4 LF.F ....|--- .... ....|--- .... ....
 A#3|..|A#3 2C.F ....|--- .... ....|--- .... ....
 A#3|..|A#3 2C.F ....|--- .... ....|--- .... ....
....|..|C-4 LF.F ....|--- .... ....|--- .... ....
....|..|A#3 2F.A ....|--- .... ....|--- .... ....
....|..|A#3 2F.A ....|--- .... ....|--- .... ....
....|..|C-4 AF.F ....|--- .... ....|--- .... ....
....|..|C-2 2F.A ....|--- .... ....|--- .... ....
....|..|C-4 AF.F ....|--- .... ....|--- .... ....
....|..|C-4 LF.F ....|--- .... ....|--- .... ....
....|..|C-2 2F.A ....|--- .... ....|--- .... ....
 C-3|..|C-3 2C.F ....|--- .... ....|--- .... ....
....|..|C-4 LF.F ....|--- .... ....|--- .... ....
 G-4|..|G-3 2C.F ....|--- .... ....|--- .... ....
 G-4|..|G-3 2C.F ....|--- .... ....|--- .... ....
....|..|C-4 LF.F ....|--- .... ....|--- .... ....
 A#3|..|A#3 2C.F ....|--- .... ....|--- .... ....
 A#3|..|A#3 2C.F ....|--- .... ....|--- .... ....
....|..|C-5 VF.F ....|--- .... ....|--- .... ....
....|..|A#3 2F.A ....|--- .... ....|--- .... ....
....|..|G-3 2F.7 ....|--- .... ....|--- .... ....
....|..|C-4 LF.F ....|--- .... ....|--- .... ....
....|..|C-2 2F.A ....|--- .... ....|--- .... ....
....|..|A#3 2F.7 ....|--- .... ....|--- .... ....
....|..|C-4 LF.F ....|--- .... ....|--- .... ....
 C-3|..|C-3 2C.F ....|--- .... ....|--- .... ....
....|..|C-2 2F.7 ....|--- .... ....|--- .... ....
....|..|C-4 AF.F ....|--- .... ....|--- .... ....
 G-4|..|G-3 2C.F ....|--- .... ....|--- .... ....
 G-4|..|G-3 2C.F ....|--- .... ....|--- .... ....
....|..|C-4 LF.F ....|--- .... ....|--- .... ....
....|..|G-3 2F.A ....|--- .... ....|--- .... ....
....|..|C-3 2F.7 ....|--- .... ....|--- .... ....
....|..|C-4 LF.F ....|--- .... ....|--- .... ....
 A#3|..|A#3 2C.F ....|--- .... ....|--- .... ....
 A#3|..|A#3 2C.F ....|--- .... ....|--- .... ....
....|..|C-4 AF.F ....|--- .... ....|--- .... ....
....|..|D-2 2F.A ....|--- .... ....|--- .... ....
....|..|C-4 AF.F ....|--- .... ....|--- .... ....
....|..|C-4 LF.F ....|--- .... ....|--- .... ....
....|..|C-2 2F.A ....|--- .... ....|--- .... ....
....|..|A#3 2F.A ....|--- .... ....|--- .... ....
....|..|C-5 VF.F ....|--- .... ....|--- .... ....
....|..|C-3 2F.A ....|--- .... ....|--- .... ....
 G-4|..|G-3 2C.F ....|--- .... ....|--- .... ....
....|..|C-4 LF.F ....|--- .... ....|--- .... ....
 G-4|..|G-3 2C.F ....|--- .... ....|--- .... ....
....|..|G-3 2F.A ....|--- .... ....|--- .... ....
....|..|C-4 LF.F ....|--- .... ....|--- .... ....
 A#3|..|A#1 2A.F ....|--- .... ....|--- .... ....
 G-4|..|G-3 2C.F ....|--- .... ....|--- .... ....
....|..|C-4 AF.F ....|--- .... ....|--- .... ....
....|..|C-4 LF.F ....|--- .... ....|--- .... ....
 B-3|..|B-1 2A.F ....|--- .... ....|--- .... ....

[Pattern4]
....|..|C-4 AF.F ....|--- .... ....|--- .... ....
 C-4|..|C-2 2A.F ....|--- .... ....|--- .... ....
 C-4|..|C-2 2A.F ....|--- .... ....|--- .... ....
....|..|C-4 LF.F ....|--- .... ....|--- .... ....
 C-3|..|C-3 2C.F ....|--- .... ....|--- .... ....
 C-3|..|C-3 2C.F ....|--- .... ....|--- .... ....
....|..|C-4 LF.F ....|--- .... ....|--- .... ....
 G-4|..|G-3 2C.F ....|--- .... ....|--- .... ....
 G-4|..|G-3 2C.F ....|--- .... ....|--- .... ....
....|..|C-4 LF.F ....|--- .... ....|--- .... ....
 A#3|..|A#3 2C.F ....|--- .... ....|--- .... ....
 A#3|..|A#3 2C.F ....|--- .... ....|--- .... ....
....|..|C-5 VF.F ....|--- .... ....|--- .... ....
....|..|A#3 2F.A ....|--- .... ....|--- .... ....
....|..|C-3 2F.7 ....|--- .... ....|--- .... ....
....|..|C-4 LF.F ....|--- .... ....|--- .... ....
....|..|C-2 2F.A ....|--- .... ....|--- .... ....
....|..|G-3 2F.7 ....|--- .... ....|--- .... ....
....|..|C-4 LF.F ....|--- .... ....|--- .... ....
....|..|C-2 2F.A ....|--- .... ....|--- .... ....
 C-3|..|C-3 2C.F ....|--- .... ....|--- .... ....
....|..|C-4 AF.F ....|--- .... ....|--- .... ....
 G-4|..|G-3 2C.F ....|--- .... ....|--- .... ....
 G-4|..|G-3 2C.F ....|--- .... ....|--- .... ....
....|..|C-4 LF.F ....|--- .... ....|--- .... ....
....|..|G-3 2F.A ....|--- .... ....|--- .... ....
....|..|C-3 2F.7 ....|--- .... ....|--- .... ....
....|..|C-4 LF.F ....|--- .... ....|--- .... ....
 A#3|..|A#3 2C.F ....|--- .... ....|--- .... ....
 A#3|..|A#3 2C.F ....|--- .... ....|--- .... ....
....|..|C-4 AF.F ....|--- .... ....|--- .... ....
....|..|D-2 2F.A ....|--- .... ....|--- .... ....
....|..|A#3 2F.A ....|--- .... ....|--- .... ....
....|..|C-4 LF.F ....|--- .... ....|--- .... ....
 C-3|..|C-3 2C.F ....|--- .... ....|--- .... ....
....|..|A#3 2F.7 ....|--- .... ....|--- .... ....
....|..|C-5 VF.F ....|--- .... ....|--- .... ....
 G-4|..|G-3 2C.F ....|--- .... ....|--- .... ....
 G-4|..|G-3 2C.F ....|--- .... ....|--- .... ....
....|..|C-4 LF.F ....|--- .... ....|--- .... ....
....|..|G-3 2F.A ....|--- .... ....|--- .... ....
....|..|C-3 2F.7 ....|--- .... ....|--- .... ....
....|..|C-4 LF.F ....|--- .... ....|--- .... ....
 A#3|..|A#3 2C.F ....|--- .... ....|--- .... ....
 A#3|..|A#3 2C.F ....|--- .... ....|--- .... ....
....|..|C-4 LF.F ....|--- .... ....|--- .... ....
....|..|A#3 2F.A ....|--- .... ....|--- .... ....
....|..|A#3 2F.A ....|--- .... ....|--- .... ....
....|..|C-4 AF.F ....|--- .... ....|--- .... ....
....|..|C-4 LF.F ....|--- .... ....|--- .... ....
....|..|A#3 2F.7 ....|--- .... ....|--- .... ....
....|..|C-4 LF.F ....|--- .... ....|--- .... ....
 C-3|..|C-3 2C.F ....|--- .... ....|--- .... ....
....|..|C-2 2F.7 ....|--- .... ....|--- .... ....
....|..|C-4 LF.F ....|--- .... ....|--- .... ....
 G-4|..|G-3 2C.F ....|--- .... ....|--- .... ....
 G-4|..|G-3 2C.F ....|--- .... ....|--- .... ....
....|..|C-4 LF.F ....|--- .... ....|--- .... ....
 A#3|..|A#3 2C.F ....|--- .... ....|--- .... ....
 A#3|..|A#3 2C.F ....|--- .... ....|--- .... ....
....|..|C-5 VF.F ....|--- .... ....|--- .... ....
....|..|A#3 2F.A ....|--- .... ....|--- .... ....
....|..|G-3 2F.7 ....|--- .... ....|--- .... ....
....|..|C-4 LF.F ....|--- .... ....|--- .... ....
....|..|C-2 2F.A ....|--- .... ....|--- .... ....
....|..|A#3 2F.7 ....|--- .... ....|--- .... ....
....|..|C-4 LF.F ....|--- .... ....|--- .... ....
 C-3|..|C-3 2C.F ....|--- .... ....|--- .... ....
....|..|C-2 2F.7 ....|--- .... ....|--- .... ....
....|..|C-4 AF.F ....|--- .... ....|--- .... ....
 G-4|..|G-3 2C.F ....|--- .... ....|--- .... ....
....|..|C-4 AF.F ....|--- .... ....|--- .... ....
....|..|C-4 LF.F ....|--- .... ....|--- .... ....
 G-4|..|G-3 2C.F ....|--- .... ....|--- .... ....
....|..|G-3 2F.A ....|--- .... ....|--- .... ....
....|..|C-4 LF.F ....|--- .... ....|--- .... ....
 A#3|..|A#3 2C.F ....|--- .... ....|--- .... ....
 A#3|..|A#3 2C.F ....|--- .... ....|--- .... ....
....|..|C-4 AF.F ....|--- .... ....|--- .... ....
....|..|A#3 2F.A ....|--- .... ....|--- .... ....
....|..|A#3 2F.A ....|--- .... ....|--- .... ....
....|..|C-4 LF.F ....|--- .... ....|--- .... ....
 C-3|..|C-3 2C.F ....|--- .... ....|--- .... ....
....|..|A#3 2F.7 ....|--- .... ....|--- .... ....
....|..|C-5 VF.F ....|--- .... ....|--- .... ....
 G-4|..|G-3 2C.F ....|--- .... ....|--- .... ....
 G-4|..|G-3 2C.F ....|--- .... ....|--- .... ....
....|..|C-4 LF.F ....|--- .... ....|--- .... ....
....|..|G-3 2F.A ....|--- .... ....|--- .... ....
....|..|C-3 2F.7 ....|--- .... ....|--- .... ....
....|..|C-4 LF.F ....|--- .... ....|--- .... ....
 G-4|..|G-3 2C.F ....|--- .... ....|--- .... ....
 A#3|..|A#1 2A.F ....|--- .... ....|--- .... ....
....|..|C-4 LF.F ....|--- .... ....|--- .... ....
 B-3|..|B-1 2A.F ....|--- .... ....|--- .... ....
 B-3|..|B-1 2A.F ....|--- .... ....|--- .... ....

[Pattern5]
 G-4|..|C-4 AF.F ....|G-4 2C.F ....|G-4 2F.F ....
....|..|C-4 AF.F ....|--- .... ....|--- .... ....
....|..|A#1 2F.A ....|--- .... ....|--- .... ....
....|..|C-4 LF.F ....|--- .... ....|--- .... ....
....|..|B-1 2F.A ....|G-4 2F.A ....|G-4 2F.A ....
....|..|C-4 LF.F ....|--- .... ....|--- .... ....
....|..|C-4 LF.F ....|--- .... ....|--- .... ....
....|..|C-4 LF.F ....|--- .... ....|--- .... ....
....|..|B-1 2F.7 ....|G-4 2F.7 ....|G-4 2F.7 ....
....|..|C-4 LF.F ....|--- .... ....|--- .... ....
....|..|C-4 LF.F ....|--- .... ....|--- .... ....
....|..|C-2 2F.7 ....|--- .... ....|--- .... ....
....|..|C-5 VF.F ....|--- .... ....|--- .... ....
....|..|C-2 2F.A ....|--- .... ....|--- .... ....
....|..|C-5 VF.F ....|--- .... ....|--- .... ....
....|..|C-4 LF.F ....|--- .... ....|--- .... ....
....|..|C-2 2F.A ....|--- .... ....|--- .... ....
....|..|C-2 2F.7 ....|--- .... ....|--- .... ....
....|..|C-4 LF.F ....|--- .... ....|--- .... ....
....|..|C-2 2F.A ....|--- .... ....|--- .... ....
....|..|C-2 2F.7 ....|--- .... ....|--- .... ....
....|..|C-4 AF.F ....|--- .... ....|--- .... ....
....|..|C-2 2F.A ....|--- .... ....|--- .... ....
....|..|C-4 AF.F ....|--- .... ....|--- .... ....
....|..|C-4 LF.F ....|--- .... ....|--- .... ....
....|..|C-2 2F.A ....|--- .... ....|--- .... ....
....|..|C-2 2F.7 ....|--- .... ....|--- .... ....
....|..|C-4 LF.F ....|--- .... ....|--- .... ....
....|..|A#1 2F.A ....|--- .... ....|--- .... ....
....|..|C-4 LF.F ....|--- .... ....|--- .... ....
....|..|C-4 AF.F ....|--- .... ....|--- .... ....
....|..|C-2 2F.A ....|--- .... ....|--- .... ....
....|..|C-4 AF.F ....|--- .... ....|--- .... ....
....|..|C-4 LF.F ....|--- .... ....|--- .... ....
....|..|C-4 LF.F ....|--- .... ....|--- .... ....
....|..|C-2 2F.7 ....|--- .... ....|--- .... ....
 A#3|..|C-5 VF.F ....|A#4 2C.F ....|--- .... ....
 A#3|..|C-2 2F.A ....|A#4 2C.F ....|--- .... ....
....|..|C-5 VF.F ....|--- .... ....|--- .... ....
....|..|C-4 LF.F ....|--- .... ....|--- .... ....
....|..|C-2 2F.A ....|A#4 2F.A ....|--- .... ....
....|..|C-2 2F.7 ....|A#4 2F.A ....|--- .... ....
....|..|C-4 LF.F ....|--- .... ....|--- .... ....
....|..|C-2 2F.A ....|--- .... ....|--- .... ....
....|..|C-2 2F.7 ....|A#4 2F.7 ....|--- .... ....
....|..|C-4 LF.F ....|A#4 2F.7 ....|--- .... ....
....|..|C-2 2F.A ....|--- .... ....|--- .... ....
....|..|C-2 2F.7 ....|--- .... ....|--- .... ....
 A#3|..|C-4 AF.F ....|A#4 2C.F ....|G-4 2F.F ....
 D#4|..|C-4 AF.F ....|D#4 2C.F ....|--- .... ....
....|..|C-4 AF.F ....|--- .... ....|D#4 2F.F ....
....|..|C-4 LF.F ....|--- .... ....|--- .... ....
....|..|C-4 LF.F ....|A#4 2F.A ....|G-4 2F.A ....
....|..|C-2 2F.7 ....|D#4 2F.A ....|--- .... ....
....|..|C-4 LF.F ....|--- .... ....|D#4 2F.A ....
....|..|C-4 LF.F ....|--- .... ....|--- .... ....
....|..|C-2 2F.7 ....|A#4 2F.7 ....|G-4 2F.7 ....
....|..|C-4 LF.F ....|D#4 2F.7 ....|--- .... ....
....|..|C-2 2F.A ....|--- .... ....|D#4 2F.7 ....
....|..|C-4 LF.F ....|--- .... ....|--- .... ....
....|..|C-5 VF.F ....|--- .... ....|--- .... ....
....|..|C-2 2F.A ....|--- .... ....|--- .... ....
....|..|C-2 2F.7 ....|--- .... ....|--- .... ....
....|..|C-4 LF.F ....|--- .... ....|--- .... ....
....|..|C-2 2F.A ....|--- .... ....|--- .... ....
....|..|C-2 2F.7 ....|--- .... ....|--- .... ....
....|..|C-4 LF.F ....|--- .... ....|--- .... ....
....|..|C-2 2F.A ....|--- .... ....|--- .... ....
....|..|C-2 2F.7 ....|--- .... ....|--- .... ....
....|..|C-4 AF.F ....|--- .... ....|--- .... ....
....|..|C-2 2F.A ....|--- .... ....|--- .... ....
....|..|C-4 AF.F ....|--- .... ....|--- .... ....
....|..|C-4 LF.F ....|--- .... ....|--- .... ....
....|..|C-2 2F.A ....|--- .... ....|--- .... ....
....|..|C-2 2F.7 ....|--- .... ....|--- .... ....
....|..|C-4 LF.F ....|--- .... ....|--- .... ....
....|..|A#1 2F.A ....|--- .... ....|--- .... ....
....|..|C-4 LF.F ....|--- .... ....|--- .... ....
....|..|C-4 AF.F ....|--- .... ....|--- .... ....
....|..|C-2 2F.A ....|--- .... ....|--- .... ....
....|..|C-4 AF.F ....|--- .... ....|--- .... ....
....|..|C-4 LF.F ....|--- .... ....|--- .... ....
....|..|C-4 LF.F ....|--- .... ....|--- .... ....
....|..|C-2 2F.7 ....|--- .... ....|--- .... ....
 G-4|..|C-5 VF.F ....|G-4 2C.F ....|--- .... ....
....|..|C-2 2F.A ....|--- .... ....|--- .... ....
....|..|D-2 2F.7 ....|--- .... ....|--- .... ....
....|..|C-4 LF.F ....|--- .... ....|--- .... ....
....|..|C-2 2F.A ....|G-4 2F.A ....|--- .... ....
....|..|C-2 2F.7 ....|--- .... ....|--- .... ....
....|..|C-4 LF.F ....|--- .... ....|--- .... ....
....|..|C-2 2F.A ....|--- .... ....|--- .... ....
....|..|C-2 2F.7 ....|G-4 2F.7 ....|--- .... ....
....|..|C-4 AF.F ....|--- .... ....|--- .... ....
....|..|C-4 LF.F ....|--- .... ....|--- .... ....
....|..|C-2 2F.7 ....|--- .... ....|--- .... ....

[Pattern6]
 C-3|..|C-4 AF.F ....|C-4 2C.F ....|D#4 2F.F ....
....|..|C-4 AF.F ....|--- .... ....|C-4 2F.F ....
....|..|C-2 2F.7 ....|--- .... ....|--- .... ....
....|..|C-4 LF.F ....|--- .... ....|--- .... ....
....|..|C-4 LF.F ....|C-4 2F.A ....|D#4 2F.A ....
....|..|C-2 2F.7 ....|--- .... ....|C-4 2F.A ....
....|..|C-4 LF.F ....|--- .... ....|--- .... ....
....|..|C-2 2F.A ....|--- .... ....|--- .... ....
....|..|C-2 2F.7 ....|C-4 2F.7 ....|D#4 2F.7 ....
....|..|C-4 LF.F ....|--- .... ....|C-4 2F.7 ....
....|..|C-4 LF.F ....|--- .... ....|--- .... ....
....|..|C-2 2F.7 ....|--- .... ....|--- .... ....
....|..|C-5 VF.F ....|--- .... ....|--- .... ....
....|..|C-2 2F.A ....|--- .... ....|--- .... ....
....|..|C-5 VF.F ....|--- .... ....|--- .... ....
....|..|C-4 LF.F ....|--- .... ....|--- .... ....
....|..|C-2 2F.A ....|--- .... ....|--- .... ....
....|..|C-2 2F.7 ....|--- .... ....|--- .... ....
....|..|C-4 LF.F ....|--- .... ....|--- .... ....
....|..|C-2 2F.A ....|--- .... ....|--- .... ....
....|..|C-2 2F.7 ....|--- .... ....|--- .... ....
....|..|C-4 AF.F ....|--- .... ....|--- .... ....
....|..|C-2 2F.A ....|--- .... ....|--- .... ....
....|..|C-4 AF.F ....|--- .... ....|--- .... ....
....|..|C-4 LF.F ....|--- .... ....|--- .... ....
....|..|C-2 2F.A ....|--- .... ....|--- .... ....
....|..|C-2 2F.7 ....|--- .... ....|--- .... ....
....|..|C-4 LF.F ....|--- .... ....|--- .... ....
....|..|A#1 2F.A ....|--- .... ....|--- .... ....
....|..|C-2 2F.7 ....|--- .... ....|--- .... ....
....|..|C-4 AF.F ....|--- .... ....|--- .... ....
....|..|C-2 2F.A ....|--- .... ....|--- .... ....
....|..|A#1 2F.7 ....|--- .... ....|--- .... ....
....|..|C-4 LF.F ....|--- .... ....|--- .... ....
....|..|C-4 LF.F ....|--- .... ....|--- .... ....
....|..|C-2 2F.7 ....|--- .... ....|--- .... ....
....|..|C-5 VF.F ....|--- .... ....|--- .... ....
....|..|C-2 2F.A ....|--- .... ....|--- .... ....
....|..|C-5 VF.F ....|--- .... ....|--- .... ....
....|..|C-4 LF.F ....|--- .... ....|--- .... ....
....|..|C-2 2F.A ....|--- .... ....|--- .... ....
....|..|C-2 2F.7 ....|--- .... ....|--- .... ....
....|..|C-4 LF.F ....|--- .... ....|--- .... ....
....|..|C-2 2F.A ....|--- .... ....|--- .... ....
....|..|C-2 2F.7 ....|--- .... ....|--- .... ....
....|..|C-4 LF.F ....|--- .... ....|--- .... ....
....|..|C-2 2F.A ....|--- .... ....|--- .... ....
....|..|C-2 2F.7 ....|--- .... ....|--- .... ....
....|..|C-4 AF.F ....|--- .... ....|--- .... ....
....|..|C-4 LF.F ....|--- .... ....|--- .... ....
....|..|C-2 2F.7 ....|--- .... ....|--- .... ....
....|..|C-4 LF.F ....|--- .... ....|--- .... ....
....|..|C-4 LF.F ....|--- .... ....|--- .... ....
....|..|C-2 2F.7 ....|--- .... ....|--- .... ....
....|..|C-4 LF.F ....|--- .... ....|--- .... ....
....|..|C-4 LF.F ....|--- .... ....|--- .... ....
....|..|C-2 2F.7 ....|--- .... ....|--- .... ....
....|..|C-4 LF.F ....|--- .... ....|--- .... ....
....|..|C-4 LF.F ....|--- .... ....|--- .... ....
....|..|C-2 2F.7 ....|--- .... ....|--- .... ....
....|..|C-5 VF.F ....|--- .... ....|--- .... ....
....|..|C-2 2F.A ....|--- .... ....|--- .... ....
....|..|C-5 VF.F ....|--- .... ....|--- .... ....
....|..|C-4 LF.F ....|--- .... ....|--- .... ....
....|..|C-2 2F.A ....|--- .... ....|--- .... ....
....|..|C-2 2F.7 ....|--- .... ....|--- .... ....
....|..|C-4 LF.F ....|--- .... ....|--- .... ....
....|..|C-2 2F.A ....|--- .... ....|--- .... ....
....|..|C-2 2F.7 ....|--- .... ....|--- .... ....
....|..|C-4 AF.F ....|--- .... ....|--- .... ....
....|..|C-2 2F.A ....|--- .... ....|--- .... ....
....|..|C-4 AF.F ....|--- .... ....|--- .... ....
....|..|C-4 LF.F ....|--- .... ....|--- .... ....
....|..|C-2 2F.A ....|--- .... ....|--- .... ....
....|..|C-2 2F.7 ....|--- .... ....|--- .... ....
....|..|C-4 LF.F ....|--- .... ....|--- .... ....
....|..|A#1 2F.A ....|--- .... ....|--- .... ....
....|..|C-2 2F.7 ....|--- .... ....|--- .... ....
....|..|C-4 AF.F ....|--- .... ....|--- .... ....
....|..|C-2 2F.A ....|--- .... ....|--- .... ....
....|..|A#1 2F.7 ....|--- .... ....|--- .... ....
....|..|C-4 LF.F ....|--- .... ....|--- .... ....
....|..|C-4 LF.F ....|--- .... ....|--- .... ....
....|..|C-2 2F.7 ....|--- .... ....|--- .... ....
....|..|C-5 VF.F ....|--- .... ....|--- .... ....
....|..|C-2 2F.A ....|--- .... ....|--- .... ....
....|..|C-5 VF.F ....|--- .... ....|--- .... ....
....|..|C-4 LF.F ....|R-- .... ....|--- .... ....
....|..|C-2 2F.A ....|--- .... ....|--- .... ....
....|..|C-2 2F.7 ....|--- .... ....|--- .... ....
....|..|C-4 LF.F ....|--- .... ....|--- .... ....
....|..|C-2 2F.A ....|R-- .... ....|--- .... ....
....|..|C-2 2F.7 ....|--- .... ....|--- .... ....
....|..|C-4 LF.F ....|--- .... ....|--- .... ....
....|..|C-2 2F.A ....|--- .... ....|--- .... ....
....|..|C-2 2F.7 ....|R-- .... ....|--- .... ....

[Pattern7]
 G-4|..|C-4 AF.F ....|G-4 2C.F ....|G-4 2F.F ....
....|..|C-4 AF.F ....|--- .... ....|G-4 2F.F ....
....|..|C-2 2F.7 ....|--- .... ....|--- .... ....
....|..|C-4 LF.F ....|--- .... ....|--- .... ....
....|..|C-2 2F.A ....|G-4 2F.A ....|G-4 2F.A ....
....|..|C-4 LF.F ....|--- .... ....|G-4 2F.A ....
....|..|C-4 LF.F ....|--- .... ....|--- .... ....
....|..|C-4 LF.F ....|--- .... ....|--- .... ....
....|..|C-2 2F.7 ....|G-4 2F.7 ....|G-4 2F.7 ....
....|..|C-4 LF.F ....|--- .... ....|G-4 2F.7 ....
....|..|C-4 LF.F ....|--- .... ....|--- .... ....
....|..|C-2 2F.7 ....|--- .... ....|--- .... ....
....|..|C-5 VF.F ....|--- .... ....|--- .... ....
....|..|C-2 2F.A ....|--- .... ....|--- .... ....
....|..|C-5 VF.F ....|--- .... ....|--- .... ....
....|..|C-4 LF.F ....|--- .... ....|--- .... ....
....|..|C-2 2F.A ....|--- .... ....|--- .... ....
....|..|C-2 2F.7 ....|--- .... ....|--- .... ....
....|..|C-4 LF.F ....|--- .... ....|--- .... ....
....|..|C-2 2F.A ....|--- .... ....|--- .... ....
....|..|C-2 2F.7 ....|--- .... ....|--- .... ....
....|..|C-4 AF.F ....|--- .... ....|--- .... ....
....|..|C-2 2F.A ....|--- .... ....|--- .... ....
....|..|C-4 AF.F ....|--- .... ....|--- .... ....
....|..|C-4 LF.F ....|--- .... ....|--- .... ....
....|..|C-2 2F.A ....|--- .... ....|--- .... ....
....|..|C-2 2F.7 ....|--- .... ....|--- .... ....
....|..|C-4 LF.F ....|--- .... ....|--- .... ....
....|..|A#1 2F.A ....|--- .... ....|--- .... ....
....|..|C-4 LF.F ....|--- .... ....|--- .... ....
....|..|C-4 AF.F ....|--- .... ....|--- .... ....
....|..|C-2 2F.A ....|--- .... ....|--- .... ....
....|..|C-4 AF.F ....|--- .... ....|--- .... ....
....|..|C-4 LF.F ....|--- .... ....|--- .... ....
....|..|C-4 LF.F ....|--- .... ....|--- .... ....
....|..|C-2 2F.7 ....|--- .... ....|--- .... ....
 A#3|..|C-5 VF.F ....|A#4 2C.F ....|--- .... ....
....|..|C-2 2F.A ....|--- .... ....|--- .... ....
....|..|C-5 VF.F ....|--- .... ....|--- .... ....
....|..|C-4 LF.F ....|--- .... ....|--- .... ....
....|..|C-2 2F.A ....|A#4 2F.A ....|--- .... ....
....|..|C-2 2F.7 ....|--- .... ....|--- .... ....
....|..|C-4 LF.F ....|--- .... ....|--- .... ....
....|..|C-2 2F.A ....|--- .... ....|--- .... ....
....|..|C-2 2F.7 ....|A#4 2F.7 ....|--- .... ....
....|..|C-4 LF.F ....|--- .... ....|--- .... ....
....|..|C-2 2F.A ....|--- .... ....|--- .... ....
....|..|C-2 2F.7 ....|--- .... ....|--- .... ....
 A#3|..|C-4 AF.F ....|A#4 2C.F ....|D#4 2F.F ....
 D#4|..|C-4 AF.F ....|D#4 2C.F ....|--- .... ....
....|..|C-4 AF.F ....|--- .... ....|--- .... ....
....|..|C-4 LF.F ....|--- .... ....|--- .... ....
....|..|C-4 LF.F ....|A#4 2F.A ....|D#4 2F.A ....
....|..|C-2 2F.7 ....|D#4 2F.A ....|--- .... ....
....|..|C-4 LF.F ....|--- .... ....|--- .... ....
....|..|C-4 LF.F ....|--- .... ....|--- .... ....
....|..|C-2 2F.7 ....|A#4 2F.7 ....|D#4 2F.7 ....
....|..|C-4 LF.F ....|D#4 2F.7 ....|--- .... ....
....|..|C-2 2F.A ....|--- .... ....|--- .... ....
....|..|C-4 LF.F ....|--- .... ....|--- .... ....
....|..|C-5 VF.F ....|--- .... ....|--- .... ....
....|..|C-2 2F.A ....|--- .... ....|--- .... ....
....|..|C-2 2F.7 ....|--- .... ....|--- .... ....
....|..|C-4 LF.F ....|--- .... ....|--- .... ....
....|..|C-2 2F.A ....|--- .... ....|--- .... ....
....|..|C-2 2F.7 ....|--- .... ....|--- .... ....
....|..|C-4 LF.F ....|--- .... ....|--- .... ....
....|..|C-2 2F.A ....|--- .... ....|--- .... ....
....|..|C-2 2F.7 ....|--- .... ....|--- .... ....
....|..|C-4 AF.F ....|--- .... ....|--- .... ....
....|..|C-2 2F.A ....|--- .... ....|--- .... ....
....|..|C-4 AF.F ....|--- .... ....|--- .... ....
....|..|C-4 LF.F ....|--- .... ....|--- .... ....
....|..|C-2 2F.A ....|--- .... ....|--- .... ....
....|..|C-2 2F.7 ....|--- .... ....|--- .... ....
....|..|C-4 LF.F ....|--- .... ....|--- .... ....
....|..|A#1 2F.A ....|--- .... ....|--- .... ....
....|..|C-4 LF.F ....|--- .... ....|--- .... ....
....|..|C-4 AF.F ....|--- .... ....|--- .... ....
....|..|C-2 2F.A ....|--- .... ....|--- .... ....
....|..|C-4 AF.F ....|--- .... ....|--- .... ....
....|..|C-4 LF.F ....|--- .... ....|--- .... ....
....|..|C-4 LF.F ....|--- .... ....|--- .... ....
....|..|C-2 2F.7 ....|--- .... ....|--- .... ....
 G-4|..|C-5 VF.F ....|G-4 2C.F ....|--- .... ....
....|..|C-2 2F.A ....|--- .... ....|--- .... ....
....|..|D-2 2F.7 ....|--- .... ....|--- .... ....
....|..|C-4 LF.F ....|--- .... ....|--- .... ....
....|..|C-2 2F.A ....|G-4 2F.A ....|--- .... ....
....|..|C-2 2F.7 ....|--- .... ....|--- .... ....
....|..|C-4 LF.F ....|--- .... ....|--- .... ....
....|..|C-2 2F.A ....|--- .... ....|--- .... ....
....|..|C-2 2F.7 ....|G-4 2F.7 ....|--- .... ....
....|..|C-4 AF.F ....|--- .... ....|--- .... ....
....|..|C-4 LF.F ....|--- .... ....|--- .... ....
....|..|C-2 2F.7 ....|--- .... ....|--- .... ....

[Pattern8]
 C-3|..|C-4 AF.F ....|C-4 2C.F ....|D#4 2F.F ....
....|..|C-4 AF.F ....|--- .... ....|C-4 2F.F ....
....|..|C-2 2F.7 ....|--- .... ....|--- .... ....
....|..|C-4 LF.F ....|--- .... ....|--- .... ....
....|..|C-4 LF.F ....|C-4 2F.A ....|D#4 2F.A ....
....|..|C-2 2F.7 ....|--- .... ....|C-4 2F.A ....
....|..|C-4 LF.F ....|--- .... ....|--- .... ....
....|..|C-2 2F.A ....|--- .... ....|--- .... ....
....|..|C-2 2F.7 ....|C-4 2F.7 ....|D#4 2F.7 ....
....|..|C-4 LF.F ....|--- .... ....|C-4 2F.7 ....
....|..|C-4 LF.F ....|--- .... ....|--- .... ....
....|..|C-2 2F.7 ....|--- .... ....|--- .... ....
....|..|C-5 VF.F ....|--- .... ....|--- .... ....
....|..|C-2 2F.A ....|--- .... ....|--- .... ....
....|..|C-5 VF.F ....|--- .... ....|--- .... ....
....|..|C-4 LF.F ....|--- .... ....|--- .... ....
....|..|C-2 2F.A ....|--- .... ....|--- .... ....
....|..|C-2 2F.7 ....|--- .... ....|--- .... ....
....|..|C-4 LF.F ....|--- .... ....|--- .... ....
....|..|C-2 2F.A ....|--- .... ....|--- .... ....
....|..|C-2 2F.7 ....|--- .... ....|--- .... ....
....|..|C-4 AF.F ....|--- .... ....|--- .... ....
....|..|C-2 2F.A ....|--- .... ....|--- .... ....
....|..|C-4 AF.F ....|--- .... ....|--- .... ....
....|..|C-4 LF.F ....|--- .... ....|--- .... ....
....|..|C-2 2F.A ....|--- .... ....|--- .... ....
....|..|C-2 2F.7 ....|--- .... ....|--- .... ....
....|..|C-4 LF.F ....|--- .... ....|--- .... ....
....|..|A#1 2F.A ....|--- .... ....|--- .... ....
....|..|C-2 2F.7 ....|--- .... ....|--- .... ....
....|..|C-4 AF.F ....|--- .... ....|--- .... ....
....|..|C-2 2F.A ....|--- .... ....|--- .... ....
....|..|A#1 2F.7 ....|--- .... ....|--- .... ....
....|..|C-4 LF.F ....|--- .... ....|--- .... ....
....|..|C-4 LF.F ....|--- .... ....|--- .... ....
....|..|C-2 2F.7 ....|--- .... ....|--- .... ....
....|..|C-5 VF.F ....|--- .... ....|--- .... ....
....|..|C-2 2F.A ....|--- .... ....|--- .... ....
....|..|C-5 VF.F ....|--- .... ....|--- .... ....
....|..|C-4 LF.F ....|--- .... ....|--- .... ....
....|..|C-2 2F.A ....|--- .... ....|--- .... ....
....|..|C-2 2F.7 ....|--- .... ....|--- .... ....
....|..|C-4 LF.F ....|--- .... ....|--- .... ....
....|..|C-2 2F.A ....|--- .... ....|--- .... ....
....|..|C-2 2F.7 ....|--- .... ....|--- .... ....
....|..|C-4 LF.F ....|--- .... ....|--- .... ....
....|..|C-2 2F.A ....|--- .... ....|--- .... ....
....|..|C-2 2F.7 ....|--- .... ....|--- .... ....
....|..|C-4 AF.F ....|--- .... ....|--- .... ....
....|..|C-4 LF.F ....|--- .... ....|--- .... ....
....|..|C-2 2F.7 ....|--- .... ....|--- .... ....
....|..|C-4 LF.F ....|--- .... ....|--- .... ....
....|..|C-4 LF.F ....|--- .... ....|--- .... ....
....|..|C-2 2F.7 ....|--- .... ....|--- .... ....
....|..|C-4 LF.F ....|--- .... ....|--- .... ....
....|..|C-4 LF.F ....|--- .... ....|--- .... ....
....|..|C-2 2F.7 ....|--- .... ....|--- .... ....
....|..|C-4 LF.F ....|--- .... ....|--- .... ....
....|..|C-4 LF.F ....|--- .... ....|--- .... ....
....|..|C-2 2F.7 ....|--- .... ....|--- .... ....
....|..|C-5 VF.F ....|--- .... ....|--- .... ....
....|..|C-2 2F.A ....|--- .... ....|--- .... ....
....|..|C-5 VF.F ....|--- .... ....|--- .... ....
....|..|C-4 LF.F ....|--- .... ....|--- .... ....
....|..|C-2 2F.A ....|--- .... ....|--- .... ....
....|..|C-2 2F.7 ....|--- .... ....|--- .... ....
....|..|C-4 LF.F ....|--- .... ....|--- .... ....
....|..|C-2 2F.A ....|--- .... ....|--- .... ....
....|..|C-2 2F.7 ....|--- .... ....|--- .... ....
....|..|C-4 AF.F ....|--- .... ....|--- .... ....
....|..|C-2 2F.A ....|--- .... ....|--- .... ....
....|..|C-4 AF.F ....|--- .... ....|--- .... ....
....|..|C-4 LF.F ....|--- .... ....|--- .... ....
....|..|C-2 2F.A ....|--- .... ....|--- .... ....
....|..|C-2 2F.7 ....|--- .... ....|--- .... ....
....|..|C-4 LF.F ....|--- .... ....|--- .... ....
 C-3|..|C-4 2C.F ....|--- .... ....|--- .... ....
....|..|C-2 2F.7 ....|--- .... ....|--- .... ....
....|..|C-4 AF.F ....|--- .... ....|--- .... ....
 C-3|..|C-4 2C.F ....|--- .... ....|--- .... ....
....|..|C-4 2F.A ....|--- .... ....|--- .... ....
....|..|C-4 LF.F ....|--- .... ....|--- .... ....
....|..|C-4 LF.F ....|--- .... ....|--- .... ....
 C-3|..|C-4 2C.F ....|--- .... ....|--- .... ....
....|..|C-5 VF.F ....|--- .... ....|--- .... ....
....|..|C-4 2F.A ....|--- .... ....|--- .... ....
....|..|C-5 VF.F ....|--- .... ....|--- .... ....
....|..|C-4 LF.F ....|--- .... ....|--- .... ....
....|..|C-4 2F.A ....|--- .... ....|--- .... ....
....|..|C-4 2F.7 ....|--- .... ....|R-- .... ....
....|..|C-4 LF.F ....|--- .... ....|--- .... ....
....|..|D#4 2F.A ....|--- .... ....|--- .... ....
....|..|C-4 2F.7 ....|--- .... ....|--- .... ....
....|..|C-4 LF.F ....|--- .... ....|R-- .... ....
....|..|C-4 2F.A ....|--- .... ....|--- .... ....
....|..|C-2 2F.7 ....|R-- .... ....|--- .... ....

[Pattern9]
 A#3|..|C-4 AF.F ....|A#2 2C.F ....|--- .... ....
....|..|C-4 AF.F ....|R-- .... ....|R-- .... ....
 C-3|..|C-4 2C.F ....|--- .F.. ....|--- .... ....
 C-3|..|C-4 LF.F ....|C-3 2C.F ....|--- .... ....
....|..|C-4 2F.A ....|A#2 2F.A ....|--- .... ....
....|..|C-4 LF.F ....|R-- .... ....|--- .... ....
 C-3|..|C-4 LF.F ....|C-3 2C.F ....|--- .... ....
....|..|C-4 LF.F ....|C-3 2F.A ....|--- .... ....
....|..|C-4 2F.7 ....|A#2 2F.7 ....|--- .... ....
 C-3|..|C-4 LF.F ....|C-3 2C.F ....|--- .... ....
....|..|C-4 LF.F ....|C-3 2F.A ....|--- .... ....
....|..|C-2 2F.7 ....|C-3 2F.7 ....|--- .... ....
 C-3|..|C-5 VF.F ....|C-3 2C.F ....|--- .... ....
....|..|C-2 2F.A ....|C-3 2F.A ....|--- .... ....
....|..|C-5 VF.F ....|C-3 2F.7 ....|--- .... ....
 C-3|..|C-4 LF.F ....|C-3 2C.F ....|--- .... ....
....|..|C-2 2F.A ....|C-3 2F.A ....|--- .... ....
....|..|C-2 2F.7 ....|C-3 2F.7 ....|--- .... ....
....|..|C-4 LF.F ....|--- .... ....|--- .... ....
....|..|C-2 2F.A ....|C-3 2F.A ....|--- .... ....
....|..|C-2 2F.7 ....|C-3 2F.7 ....|--- .... ....
 C-3|..|C-4 AF.F ....|C-3 2C.F ....|--- .... ....
....|..|C-2 2F.A ....|R-- .... ....|--- .... ....
....|..|C-4 AF.F ....|C-3 2F.7 ....|--- .... ....
 C-3|..|C-4 LF.F ....|C-3 2C.F ....|--- .... ....
....|..|C-2 2F.A ....|C-3 2F.A ....|--- .... ....
....|..|C-2 2F.7 ....|R-- .... ....|--- .... ....
 C-3|..|C-4 LF.F ....|C-3 2C.F ....|--- .... ....
....|..|C-2 2F.A ....|C-3 2F.A ....|--- .... ....
....|..|C-4 LF.F ....|C-3 2F.7 ....|--- .... ....
 C-3|..|C-4 AF.F ....|C-3 2C.F ....|--- .... ....
....|..|C-2 2F.A ....|C-3 2F.A ....|--- .... ....
....|..|C-4 AF.F ....|C-3 2F.7 ....|--- .... ....
 C-3|..|C-4 LF.F ....|C-3 2C.F ....|--- .... ....
....|..|C-4 LF.F ....|C-3 2F.A ....|--- .... ....
....|..|C-2 2F.7 ....|C-3 2F.7 ....|--- .... ....
 C-3|..|C-5 VF.F ....|C-3 2C.F ....|--- .... ....
....|..|C-2 2F.A ....|C-3 2F.A ....|--- .... ....
....|..|C-5 VF.F ....|C-3 2F.7 ....|--- .... ....
 C-3|..|C-4 LF.F ....|C-3 2C.F ....|--- .... ....
....|..|C-2 2F.A ....|C-3 2F.A ....|--- .... ....
....|..|C-2 2F.7 ....|C-3 2F.7 ....|--- .... ....
....|..|C-4 LF.F ....|R-- .... ....|--- .... ....
....|..|C-2 2F.A ....|C-3 2F.A ....|--- .... ....
....|..|C-2 2F.7 ....|C-3 2F.7 ....|--- .... ....
 C-3|..|C-4 LF.F ....|C-3 2C.F ....|--- .... ....
....|..|C-2 2F.A ....|R-- .... ....|--- .... ....
....|..|C-2 2F.7 ....|C-3 2F.7 ....|--- .... ....
 G#4|..|C-4 AF.F ....|G#2 2A.F ....|--- .... ....
....|..|C-4 AF.F ....|C-3 2F.A ....|--- .... ....
....|..|C-4 AF.F ....|R-- .... ....|--- .... ....
 A#3|..|C-4 LF.F ....|A#2 2C.F ....|--- .... ....
....|..|C-4 LF.F ....|G#2 2F.A ....|--- .... ....
....|..|C-2 2F.7 ....|C-3 2F.7 ....|--- .... ....
 A#3|..|C-4 LF.F ....|A#2 2C.F ....|--- .... ....
....|..|C-4 LF.F ....|A#2 2F.A ....|--- .... ....
....|..|C-2 2F.7 ....|G#2 2F.7 ....|--- .... ....
 A#3|..|C-4 LF.F ....|A#2 2C.F ....|--- .... ....
....|..|A#1 2F.A ....|A#2 2F.A ....|--- .... ....
....|..|C-4 LF.F ....|A#2 2F.7 ....|--- .... ....
 A#3|..|C-5 VF.F ....|A#2 2C.F ....|--- .... ....
....|..|A#1 2F.A ....|A#2 2F.A ....|--- .... ....
....|..|A#1 2F.7 ....|A#2 2F.7 ....|--- .... ....
 A#3|..|C-4 LF.F ....|A#2 2C.F ....|--- .... ....
....|..|A#1 2F.A ....|A#2 2F.A ....|--- .... ....
....|..|A#1 2F.7 ....|A#2 2F.7 ....|--- .... ....
....|..|C-4 LF.F ....|R-- .... ....|--- .... ....
....|..|A#1 2F.A ....|A#2 2F.A ....|--- .... ....
....|..|A#1 2F.7 ....|A#2 2F.7 ....|--- .... ....
 A#3|..|C-4 AF.F ....|A#2 2C.F ....|--- .... ....
....|..|A#1 2F.A ....|R-- .... ....|--- .... ....
....|..|C-4 AF.F ....|A#2 2F.7 ....|--- .... ....
 A#3|..|C-4 LF.F ....|A#2 2C.F ....|--- .... ....
 C-3|..|C-4 2C.F ....|A#2 2F.A ....|--- .... ....
....|..|A#1 2F.7 ....|R-- .... ....|--- .... ....
 A#3|..|C-4 LF.F ....|A#2 2C.F ....|--- .... ....
....|..|C-4 2F.A ....|A#2 2F.A ....|--- .... ....
....|..|C-4 LF.F ....|A#2 2F.7 ....|--- .... ....
 A#3|..|C-4 AF.F ....|A#2 2C.F ....|--- .... ....
 D-4|..|D-4 2C.F ....|A#2 2F.A ....|--- .... ....
....|..|C-4 AF.F ....|A#2 2F.7 ....|--- .... ....
 A#3|..|C-4 LF.F ....|A#2 2C.F ....|--- .... ....
....|..|C-4 LF.F ....|A#2 2F.A ....|--- .... ....
....|..|C-4 2F.7 ....|A#2 2F.7 ....|--- .... ....
 A#3|..|C-5 VF.F ....|A#2 2C.F ....|--- .... ....
....|..|D-4 2F.A ....|A#2 2F.A ....|--- .... ....
....|..|D-4 2F.7 ....|A#2 2F.7 ....|--- .... ....
 A#3|..|C-4 LF.F ....|A#2 2C.F ....|--- .... ....
....|..|A#1 2F.A ....|A#2 2F.A ....|--- .... ....
....|..|A#1 2F.7 ....|A#2 2F.7 ....|--- .... ....
 A#3|..|C-4 LF.F ....|A#2 2C.F ....|--- .... ....
 D#4|..|D#4 2C.F ....|A#2 2F.A ....|--- .... ....
....|..|A#1 2F.7 ....|A#2 2F.7 ....|--- .... ....
 G#4|..|C-4 AF.F ....|G#2 2A.F ....|--- .... ....
....|..|C-4 LF.F ....|A#2 2F.A ....|--- .... ....
....|..|D#4 2F.A ....|A#2 2F.7 ....|--- .... ....

[Pattern10]
 G#4|..|C-4 AF.F ....|G#2 2A.F ....|--- .... ....
....|..|C-4 AF.F ....|G#2 2F.A ....|--- .... ....
....|..|D#4 2F.7 ....|A#2 2F.7 ....|--- .... ....
 G#4|..|C-4 LF.F ....|G#2 2A.F ....|--- .... ....
....|..|C-4 LF.F ....|G#2 2F.A ....|--- .... ....
....|..|A#1 2F.7 ....|G#2 2F.7 ....|--- .... ....
 G#4|..|C-4 LF.F ....|G#2 2A.F ....|--- .... ....
 D-4|..|D-4 2C.F ....|G#2 2F.A ....|--- .... ....
....|..|A#1 2F.7 ....|G#2 2F.7 ....|--- .... ....
....|..|C-4 LF.F ....|R-- .... ....|--- .... ....
....|..|C-4 LF.F ....|G#2 2F.A ....|--- .... ....
....|..|D-4 2F.A ....|G#2 2F.7 ....|--- .... ....
 G#4|..|C-5 VF.F ....|G#2 2A.F ....|--- .... ....
....|..|G#1 2F.A ....|R-- .... ....|--- .... ....
....|..|C-5 VF.F ....|G#2 2F.7 ....|--- .... ....
 G#4|..|C-4 LF.F ....|G#2 2A.F ....|--- .... ....
....|..|G#1 2F.A ....|G#2 2F.A ....|--- .... ....
....|..|G#1 2F.7 ....|R-- .... ....|--- .... ....
....|..|C-4 LF.F ....|--- .... ....|--- .... ....
 C-3|..|C-4 2C.F ....|G#2 2F.A ....|--- .... ....
....|..|G#1 2F.7 ....|G#2 2F.7 ....|--- .... ....
 G#4|..|C-4 AF.F ....|G#2 2A.F ....|--- .... ....
....|..|C-4 2F.A ....|R-- .... ....|--- .... ....
....|..|C-4 AF.F ....|G#2 2F.7 ....|--- .... ....
 G#4|..|C-4 LF.F ....|G#2 2A.F ....|--- .... ....
....|..|G#1 2F.A ....|G#2 2F.A ....|--- .... ....
....|..|C-4 2F.7 ....|R-- .... ....|--- .... ....
 G#4|..|C-4 LF.F ....|G#2 2A.F ....|--- .... ....
....|..|G#1 2F.A ....|G#2 2F.A ....|--- .... ....
....|..|G#1 2F.7 ....|G#2 2F.7 ....|--- .... ....
 G#4|..|C-4 AF.F ....|G#2 2A.F ....|--- .... ....
 A#3|..|A#3 2C.F ....|G#2 2F.A ....|--- .... ....
....|..|G#1 2F.7 ....|G#2 2F.7 ....|--- .... ....
 G#4|..|C-4 LF.F ....|G#2 2A.F ....|--- .... ....
....|..|C-4 LF.F ....|G#2 2F.A ....|--- .... ....
 A#3|..|A#3 2C.F ....|G#2 2F.7 ....|--- .... ....
 G#4|..|C-5 VF.F ....|G#2 2A.F ....|--- .... ....
....|..|A#3 2F.A ....|G#2 2F.A ....|--- .... ....
....|..|C-5 VF.F ....|G#2 2F.7 ....|--- .... ....
 G#4|..|C-4 LF.F ....|G#2 2A.F ....|--- .... ....
....|..|A#3 2F.A ....|G#2 2F.A ....|--- .... ....
....|..|A#3 2F.7 ....|G#2 2F.7 ....|--- .... ....
 G#4|..|C-4 LF.F ....|G#2 2A.F ....|--- .... ....
....|..|G#1 2F.A ....|G#2 2F.A ....|--- .... ....
 G-4|..|G-3 2C.F ....|G#2 2F.7 ....|--- .... ....
 G#4|..|C-4 LF.F ....|G#2 2A.F ....|--- .... ....
....|..|G-3 2F.A ....|G#2 2F.A ....|--- .... ....
....|..|G#1 2F.7 ....|G#2 2F.7 ....|--- .... ....
 G#4|..|C-4 AF.F ....|G#2 2A.F ....|--- .... ....
....|..|C-4 LF.F ....|G#2 2F.A ....|--- .... ....
 G-4|..|G-3 2C.F ....|G#2 2F.7 ....|--- .... ....
 G#4|..|C-4 LF.F ....|G#2 2A.F ....|--- .... ....
....|..|C-4 LF.F ....|G#2 2F.A ....|--- .... ....
....|..|G-3 2F.7 ....|G#2 2F.7 ....|--- .... ....
 G#4|..|C-4 LF.F ....|G#2 2A.F ....|--- .... ....
....|..|C-4 LF.F ....|G#2 2F.A ....|--- .... ....
....|..|F-3 2F.A ....|G#2 2F.7 ....|--- .... ....
 G#4|..|C-4 LF.F ....|G#2 2A.F ....|--- .... ....
....|..|C-4 LF.F ....|G#2 2F.A ....|--- .... ....
....|..|G-3 2F.7 ....|G#2 2F.7 ....|--- .... ....
 G#4|..|C-5 VF.F ....|G#2 2A.F ....|--- .... ....
....|..|G#1 2F.A ....|G#2 2F.A ....|--- .... ....
....|..|C-5 VF.F ....|G#2 2F.7 ....|--- .... ....
 G#4|..|C-4 LF.F ....|G#2 2A.F ....|--- .... ....
....|..|G#1 2F.A ....|G#2 2F.A ....|--- .... ....
....|..|G#1 2F.7 ....|G#2 2F.7 ....|--- .... ....
 G#4|..|C-4 LF.F ....|G#2 2A.F ....|--- .... ....
....|..|G#1 2F.A ....|G#2 2F.A ....|--- .... ....
....|..|G#1 2F.7 ....|G#2 2F.7 ....|--- .... ....
 G#4|..|C-4 AF.F ....|G#2 2A.F ....|--- .... ....
....|..|G#1 2F.A ....|G#2 2F.A ....|--- .... ....
....|..|C-4 AF.F ....|G#2 2F.7 ....|--- .... ....
 G#4|..|C-4 LF.F ....|G#2 2A.F ....|--- .... ....
....|..|G#1 2F.A ....|G#2 2F.A ....|--- .... ....
....|..|G#1 2F.7 ....|G#2 2F.7 ....|--- .... ....
 G#4|..|C-4 LF.F ....|G#2 2A.F ....|--- .... ....
....|..|G#1 2F.A ....|G#2 2F.A ....|--- .... ....
....|..|G#1 2F.7 ....|G#2 2F.7 ....|--- .... ....
 G#4|..|C-4 AF.F ....|G#2 2A.F ....|--- .... ....
 C-3|..|C-4 2C.F ....|G#2 2F.A ....|--- .... ....
....|..|G#1 2F.7 ....|G#2 2F.7 ....|--- .... ....
 A#3|..|C-4 LF.F ....|A#2 2C.F ....|--- .... ....
....|..|C-4 LF.F ....|G#2 2F.A ....|--- .... ....
....|..|C-4 2F.A ....|G#2 2F.7 ....|--- .... ....
 A#3|..|C-5 VF.F ....|A#2 2C.F ....|--- .... ....
 D#4|..|D#4 2C.F ....|A#2 2F.A ....|--- .... ....
....|..|C-5 VF.F ....|G#2 2F.7 ....|--- .... ....
 A#3|..|C-4 LF.F ....|A#2 2C.F ....|--- .... ....
....|..|D#4 2F.A ....|A#2 2F.A ....|--- .... ....
....|..|A#1 2F.7 ....|A#2 2F.7 ....|--- .... ....
 A#3|..|C-4 LF.F ....|A#2 2C.F ....|--- .... ....
 C-3|..|C-4 2C.F ....|A#2 2F.A ....|--- .... ....
....|..|D#4 2F.7 ....|A#2 2F.7 ....|--- .... ....
 A#3|..|C-4 LF.F ....|A#2 2C.F ....|--- .... ....
....|..|C-4 2F.A ....|A#2 2F.A ....|--- .... ....
....|..|A#1 2F.7 ....|A#2 2F.7 ....|--- .... ....

[Pattern11]
 A#3|..|C-4 AF.F ....|A#2 2C.F ....|--- .... ....
....|..|C-4 AF.F ....|A#2 2F.A ....|--- .... ....
 C-3|..|C-4 2C.F ....|A#2 2F.7 ....|--- .... ....
 C-3|..|C-4 LF.F ....|C-3 2C.F ....|--- .... ....
....|..|C-4 2F.A ....|A#2 2F.A ....|--- .... ....
....|..|C-4 LF.F ....|A#2 2F.7 ....|--- .... ....
 C-3|..|C-4 LF.F ....|C-3 2C.F ....|--- .... ....
....|..|C-4 LF.F ....|C-3 2F.A ....|--- .... ....
....|..|C-4 2F.7 ....|A#2 2F.7 ....|--- .... ....
 C-3|..|C-4 LF.F ....|C-3 2C.F ....|--- .... ....
....|..|C-4 LF.F ....|C-3 2F.A ....|--- .... ....
....|..|C-2 2F.7 ....|C-3 2F.7 ....|--- .... ....
 C-3|..|C-5 VF.F ....|C-3 2C.F ....|--- .... ....
....|..|C-2 2F.A ....|C-3 2F.A ....|--- .... ....
....|..|C-5 VF.F ....|C-3 2F.7 ....|--- .... ....
 C-3|..|C-4 LF.F ....|C-3 2C.F ....|--- .... ....
....|..|C-2 2F.A ....|C-3 2F.A ....|--- .... ....
....|..|C-2 2F.7 ....|C-3 2F.7 ....|--- .... ....
....|..|C-4 LF.F ....|--- .... ....|--- .... ....
....|..|C-2 2F.A ....|C-3 2F.A ....|--- .... ....
....|..|C-2 2F.7 ....|C-3 2F.7 ....|--- .... ....
 C-3|..|C-4 AF.F ....|C-3 2C.F ....|--- .... ....
....|..|C-2 2F.A ....|R-- .... ....|--- .... ....
....|..|C-4 AF.F ....|C-3 2F.7 ....|--- .... ....
 C-3|..|C-4 LF.F ....|C-3 2C.F ....|--- .... ....
....|..|C-2 2F.A ....|C-3 2F.A ....|--- .... ....
....|..|C-2 2F.7 ....|R-- .... ....|--- .... ....
 C-3|..|C-4 LF.F ....|C-3 2C.F ....|--- .... ....
....|..|C-2 2F.A ....|C-3 2F.A ....|--- .... ....
....|..|C-4 LF.F ....|C-3 2F.7 ....|--- .... ....
 C-3|..|C-4 AF.F ....|C-3 2C.F ....|--- .... ....
....|..|C-2 2F.A ....|C-3 2F.A ....|--- .... ....
....|..|C-4 AF.F ....|C-3 2F.7 ....|--- .... ....
 C-3|..|C-4 LF.F ....|C-3 2C.F ....|--- .... ....
....|..|C-4 LF.F ....|C-3 2F.A ....|--- .... ....
....|..|C-2 2F.7 ....|C-3 2F.7 ....|--- .... ....
 C-3|..|C-5 VF.F ....|C-3 2C.F ....|--- .... ....
....|..|C-2 2F.A ....|C-3 2F.A ....|--- .... ....
....|..|C-5 VF.F ....|C-3 2F.7 ....|--- .... ....
 C-3|..|C-4 LF.F ....|C-3 2C.F ....|--- .... ....
....|..|C-2 2F.A ....|C-3 2F.A ....|--- .... ....
....|..|C-2 2F.7 ....|C-3 2F.7 ....|--- .... ....
....|..|C-4 LF.F ....|R-- .... ....|--- .... ....
....|..|C-2 2F.A ....|C-3 2F.A ....|--- .... ....
....|..|C-2 2F.7 ....|C-3 2F.7 ....|--- .... ....
 C-3|..|C-4 LF.F ....|C-3 2C.F ....|--- .... ....
....|..|C-2 2F.A ....|R-- .... ....|--- .... ....
....|..|C-2 2F.7 ....|C-3 2F.7 ....|--- .... ....
 G#4|..|C-4 AF.F ....|G#2 2A.F ....|D#5 2F.F ....
....|..|C-4 AF.F ....|C-3 2F.A ....|--- .... ....
....|..|C-4 AF.F ....|R-- .... ....|--- .... ....
 A#3|..|C-4 LF.F ....|A#2 2C.F ....|--- .... ....
....|..|C-4 LF.F ....|G#2 2F.A ....|D#5 2F.A ....
....|..|C-2 2F.7 ....|C-3 2F.7 ....|--- .... ....
 A#3|..|C-4 LF.F ....|A#2 2C.F ....|--- .... ....
....|..|C-4 LF.F ....|A#2 2F.A ....|--- .... ....
....|..|C-2 2F.7 ....|G#2 2F.7 ....|D#5 2F.7 ....
 A#3|..|C-4 LF.F ....|A#2 2C.F ....|--- .... ....
....|..|A#1 2F.A ....|A#2 2F.A ....|--- .... ....
....|..|C-4 LF.F ....|A#2 2F.7 ....|--- .... ....
 A#3|..|C-5 VF.F ....|A#2 2C.F ....|--- .... ....
....|..|A#1 2F.A ....|A#2 2F.A ....|--- .... ....
....|..|A#1 2F.7 ....|A#2 2F.7 ....|--- .... ....
 A#3|..|C-4 LF.F ....|A#2 2C.F ....|--- .... ....
....|..|A#1 2F.A ....|A#2 2F.A ....|--- .... ....
....|..|A#1 2F.7 ....|A#2 2F.7 ....|--- .... ....
....|..|C-4 LF.F ....|R-- .... ....|--- .... ....
....|..|A#1 2F.A ....|A#2 2F.A ....|--- .... ....
....|..|A#1 2F.7 ....|A#2 2F.7 ....|--- .... ....
 A#3|..|C-4 AF.F ....|A#2 2C.F ....|--- .... ....
....|..|A#1 2F.A ....|R-- .... ....|--- .... ....
....|..|C-4 AF.F ....|A#2 2F.7 ....|--- .... ....
 A#3|..|C-4 LF.F ....|A#2 2C.F ....|--- .... ....
 C-3|..|C-4 2C.F ....|A#2 2F.A ....|--- .... ....
....|..|A#1 2F.7 ....|R-- .... ....|--- .... ....
 A#3|..|C-4 LF.F ....|A#2 2C.F ....|--- .... ....
....|..|C-4 2F.A ....|A#2 2F.A ....|--- .... ....
....|..|C-4 LF.F ....|A#2 2F.7 ....|--- .... ....
 A#3|..|C-4 AF.F ....|A#2 2C.F ....|--- .... ....
 D-4|..|D-4 2C.F ....|A#2 2F.A ....|--- .... ....
....|..|C-4 AF.F ....|A#2 2F.7 ....|--- .... ....
 A#3|..|C-4 LF.F ....|A#2 2C.F ....|--- .... ....
....|..|C-4 LF.F ....|A#2 2F.A ....|--- .... ....
....|..|C-4 2F.7 ....|A#2 2F.7 ....|--- .... ....
 A#3|..|C-5 VF.F ....|A#2 2C.F ....|D#5 2F.F ....
....|..|D-4 2F.A ....|A#2 2F.A ....|--- .... ....
....|..|D-4 2F.7 ....|A#2 2F.7 ....|G#4 2F.F ....
 A#3|..|C-4 LF.F ....|A#2 2C.F ....|--- .... ....
....|..|A#1 2F.A ....|A#2 2F.A ....|D#5 2F.A ....
....|..|A#1 2F.7 ....|A#2 2F.7 ....|--- .... ....
 A#3|..|C-4 LF.F ....|A#2 2C.F ....|G#4 2F.A ....
 D#4|..|D#4 2C.F ....|A#2 2F.A ....|--- .... ....
 D#4|..|D#4 2C.F ....|A#2 2F.7 ....|D#5 2F.7 ....
 G#4|..|C-4 AF.F ....|G#2 2A.F ....|--- .... ....
....|..|C-4 LF.F ....|A#2 2F.A ....|G#4 2F.7 ....
....|..|D#4 2F.A ....|A#2 2F.7 ....|--- .... ....

[Pattern12]
 G#4|..|C-4 AF.F ....|G#2 2A.F ....|--- .... ....
....|..|C-4 AF.F ....|G#2 2F.A ....|--- .... ....
....|..|D#4 2F.A ....|A#2 2F.7 ....|--- .... ....
 G#4|..|C-4 LF.F ....|G#2 2A.F ....|--- .... ....
....|..|C-4 LF.F ....|G#2 2F.A ....|--- .... ....
....|..|D#4 2F.7 ....|G#2 2F.7 ....|--- .... ....
 G#4|..|C-4 LF.F ....|G#2 2A.F ....|--- .... ....
 D#4|..|D#4 2C.F ....|G#2 2F.A ....|--- .... ....
....|..|A#1 2F.7 ....|G#2 2F.7 ....|--- .... ....
....|..|C-4 LF.F ....|F-4 2F.A ....|--- .... ....
....|..|C-4 LF.F ....|G#2 2F.A ....|--- .... ....
....|..|D#4 2F.A ....|G#2 2F.7 ....|--- .... ....
 G#4|..|C-5 VF.F ....|G#2 2A.F ....|--- .... ....
 D#4|..|D#4 2C.F ....|F-4 2F.7 ....|--- .... ....
....|..|C-5 VF.F ....|G#2 2F.7 ....|--- .... ....
 G#4|..|C-4 LF.F ....|G#2 2A.F ....|D-5 2F.F ....
 D-4|..|D-4 2C.F ....|G#2 2F.A ....|D-5 2F.F ....
....|..|D-4 2F.A ....|R-- .... ....|--- .... ....
....|..|C-4 LF.F ....|--- .... ....|--- .... ....
....|..|D#4 2F.A ....|G#2 2F.A ....|D-5 2F.A ....
 D-4|..|D-4 2C.F ....|G#2 2F.7 ....|D-5 2F.A ....
 G#4|..|C-4 AF.F ....|G#2 2A.F ....|--- .... ....
....|..|D-4 2F.A ....|R-- .... ....|--- .... ....
....|..|C-4 AF.F ....|G#2 2F.7 ....|D-5 2F.7 ....
 G#4|..|C-4 LF.F ....|G#2 2A.F ....|D-5 2F.7 ....
 G-4|..|G-3 2C.F ....|G#2 2F.A ....|--- .... ....
....|..|D-4 2F.7 ....|R-- .... ....|--- .... ....
 G#4|..|C-4 LF.F ....|G#2 2A.F ....|D-5 2F.F ....
....|..|G-3 2F.A ....|G#2 2F.A ....|--- .... ....
....|..|G#1 2F.7 ....|G#2 2F.7 ....|--- .... ....
 G#4|..|C-4 AF.F ....|G#2 2A.F ....|--- .... ....
....|..|G#1 2F.A ....|G#2 2F.A ....|D-5 2F.A ....
....|..|G-3 2F.7 ....|D#4 2F.F ....|--- .... ....
 G#4|..|C-4 LF.F ....|G#2 2A.F ....|--- .... ....
....|..|C-4 LF.F ....|G#2 2F.A ....|--- .... ....
....|..|G#1 2F.7 ....|G#2 2F.7 ....|D-5 2F.7 ....
 G#4|..|C-5 VF.F ....|G#2 2A.F ....|--- .... ....
 F-4|..|F-3 2C.F ....|G#2 2F.A ....|--- .... ....
....|..|C-5 VF.F ....|G#2 2F.7 ....|--- .... ....
 G#4|..|C-4 LF.F ....|G#2 2A.F ....|--- .... ....
....|..|F-3 2F.A ....|G#2 2F.A ....|--- .... ....
....|..|G#1 2F.7 ....|G#2 2F.7 ....|--- .... ....
 G#4|..|C-4 LF.F ....|G#2 2A.F ....|--- .... ....
 F-4|..|F-3 2C.F ....|G#2 2F.A ....|--- .... ....
....|..|F-3 2F.7 ....|G#2 2F.7 ....|--- .... ....
 G#4|..|C-4 LF.F ....|G#2 2A.F ....|--- .... ....
....|..|F-3 2F.A ....|G#2 2F.A ....|--- .... ....
....|..|G#1 2F.7 ....|G#2 2F.7 ....|--- .... ....
 G#4|..|C-4 AF.F ....|G#2 2A.F ....|--- .... ....
....|..|C-4 LF.F ....|G#2 2F.A ....|--- .... ....
....|..|F-3 2F.7 ....|G#2 2F.7 ....|--- .... ....
 G#4|..|C-4 LF.F ....|G#2 2A.F ....|--- .... ....
....|..|C-4 LF.F ....|G#2 2F.A ....|--- .... ....
....|..|G#1 2F.7 ....|G#2 2F.7 ....|--- .... ....
 G#4|..|C-4 LF.F ....|G#2 2A.F ....|--- .... ....
....|..|C-4 LF.F ....|G#2 2F.A ....|--- .... ....
 D#4|..|D#3 2C.F ....|G#2 2F.7 ....|G-4 2F.F ....
 G#4|..|C-4 LF.F ....|G#2 2A.F ....|--- .... ....
....|..|C-4 LF.F ....|G#2 2F.A ....|--- .... ....
....|..|D#3 2F.A ....|G#2 2F.7 ....|--- .... ....
 G#4|..|C-5 VF.F ....|G#2 2A.F ....|G-4 2F.A ....
....|..|G#1 2F.A ....|G#2 2F.A ....|--- .... ....
....|..|C-5 VF.F ....|G#2 2F.7 ....|--- .... ....
 G#4|..|C-4 LF.F ....|G#2 2A.F ....|--- .... ....
....|..|G#1 2F.A ....|G#2 2F.A ....|G-4 2F.7 ....
....|..|G#1 2F.7 ....|G#2 2F.7 ....|--- .... ....
 G#4|..|C-4 LF.F ....|G#2 2A.F ....|--- .... ....
....|..|G#1 2F.A ....|G#2 2F.A ....|--- .... ....
....|..|G#1 2F.F ....|G#2 2F.7 ....|--- .... ....
 G#4|..|C-4 AF.F ....|G#2 2A.F ....|--- .... ....
....|..|G#1 2F.A ....|G#2 2F.A ....|--- .... ....
....|..|C-4 AF.F ....|G#2 2F.7 ....|--- .... ....
 G#4|..|C-4 LF.F ....|G#2 2A.F ....|--- .... ....
....|..|G#1 2F.A ....|G#2 2F.A ....|--- .... ....
....|..|A#1 2F.F ....|G#2 2F.7 ....|--- .... ....
 G#4|..|C-4 LF.F ....|G#2 2A.F ....|--- .... ....
....|..|A#1 2F.A ....|G#2 2F.A ....|--- .... ....
....|..|A#1 2F.F ....|G#2 2F.7 ....|--- .... ....
 G#4|..|C-4 AF.F ....|G#2 2A.F ....|--- .... ....
 C-3|..|C-4 2C.F ....|G#2 2F.A ....|--- .... ....
....|..|G#1 2F.7 ....|G#2 2F.7 ....|--- .... ....
 A#3|..|C-4 LF.F ....|A#2 2C.F ....|--- .... ....
....|..|C-4 LF.F ....|G#2 2F.A ....|--- .... ....
....|..|C-4 2F.A ....|G#2 2F.7 ....|--- .... ....
 A#3|..|C-5 VF.F ....|A#2 2C.F ....|--- .... ....
 D#4|..|D#4 2C.F ....|A#2 2F.A ....|--- .... ....
....|..|C-5 VF.F ....|G#2 2F.7 ....|--- .... ....
 A#3|..|C-4 LF.F ....|A#2 2C.F ....|--- .... ....
....|..|D#4 2F.A ....|A#2 2F.A ....|--- .... ....
....|..|A#1 2F.7 ....|A#2 2F.7 ....|--- .... ....
 A#3|..|C-4 LF.F ....|A#2 2C.F ....|--- .... ....
 C-3|..|C-4 2C.F ....|A#2 2F.A ....|--- .... ....
....|..|D#4 2F.7 ....|A#2 2F.7 ....|--- .... ....
 A#3|..|C-4 LF.F ....|A#2 2C.F ....|--- .... ....
....|..|C-4 2F.A ....|A#2 2F.A ....|--- .... ....
....|..|A#1 2F.7 ....|A#2 2F.7 ....|--- .... ....

[Pattern13]
 A#3|..|C-4 AF.F ....|A#2 2C.F ....|--- .... ....
....|..|C-4 AF.F ....|A#2 2F.A ....|--- .... ....
 C-3|..|C-4 2C.F ....|G-4 2F.F ....|--- .... ....
 C-3|..|C-4 LF.F ....|C-3 2C.F ....|--- .... ....
....|..|C-4 2F.A ....|A#2 2F.A ....|--- .... ....
....|..|C-4 LF.F ....|A#2 2F.7 ....|--- .... ....
 C-3|..|C-4 LF.F ....|C-3 2C.F ....|--- .... ....
....|..|C-4 LF.F ....|C-3 2F.A ....|--- .... ....
....|..|C-4 2F.7 ....|A#2 2F.7 ....|--- .... ....
 C-3|..|C-4 LF.F ....|C-3 2C.F ....|--- .... ....
....|..|C-4 LF.F ....|C-3 2F.A ....|--- .... ....
....|..|C-2 2F.7 ....|C-3 2F.7 ....|D#5 2F.F ....
 C-3|..|C-5 VF.F ....|C-3 2C.F ....|--- .... ....
....|..|C-2 2F.A ....|C-3 2F.A ....|--- .... ....
....|..|C-5 VF.F ....|C-3 2F.7 ....|--- .... ....
 C-3|..|C-4 LF.F ....|C-3 2C.F ....|D#5 2F.A ....
....|..|C-2 2F.A ....|C-3 2F.A ....|--- .... ....
....|..|C-2 2F.7 ....|C-3 2F.7 ....|--- .... ....
....|..|C-4 LF.F ....|--- .... ....|--- .... ....
....|..|C-2 2F.A ....|C-3 2F.A ....|D#5 2F.7 ....
....|..|C-2 2F.7 ....|C-3 2F.7 ....|--- .... ....
 C-3|..|C-4 AF.F ....|C-3 2C.F ....|--- .... ....
....|..|C-2 2F.A ....|R-- .... ....|--- .... ....
....|..|C-4 AF.F ....|C-3 2F.7 ....|--- .... ....
 C-3|..|C-4 LF.F ....|C-3 2C.F ....|--- .... ....
....|..|C-2 2F.A ....|C-3 2F.A ....|--- .... ....
....|..|C-2 2F.7 ....|R-- .... ....|--- .... ....
 C-3|..|C-4 LF.F ....|C-3 2C.F ....|--- .... ....
....|..|C-2 2F.A ....|C-3 2F.A ....|--- .... ....
....|..|C-4 LF.F ....|C-3 2F.7 ....|--- .... ....
 C-3|..|C-4 AF.F ....|C-3 2C.F ....|--- .... ....
....|..|C-2 2F.A ....|C-3 2F.A ....|D#5 2F.F ....
....|..|C-4 AF.F ....|C-3 2F.7 ....|--- .... ....
 C-3|..|C-4 LF.F ....|C-3 2C.F ....|--- .... ....
....|..|C-4 LF.F ....|C-3 2F.A ....|--- .... ....
....|..|C-2 2F.7 ....|C-3 2F.7 ....|D#5 2F.A ....
 C-3|..|C-5 VF.F ....|C-3 2C.F ....|--- .... ....
....|..|C-2 2F.A ....|C-3 2F.A ....|--- .... ....
....|..|C-5 VF.F ....|C-3 2F.7 ....|--- .... ....
 C-3|..|C-4 LF.F ....|C-3 2C.F ....|D#5 2F.7 ....
....|..|C-2 2F.A ....|C-3 2F.A ....|--- .... ....
....|..|C-2 2F.7 ....|C-3 2F.7 ....|--- .... ....
....|..|C-4 LF.F ....|R-- .... ....|--- .... ....
....|..|C-2 2F.A ....|C-3 2F.A ....|--- .... ....
....|..|C-2 2F.7 ....|C-3 2F.7 ....|--- .... ....
 C-3|..|C-4 LF.F ....|C-3 2C.F ....|--- .... ....
....|..|C-2 2F.A ....|R-- .... ....|--- .... ....
....|..|C-2 2F.7 ....|C-3 2F.7 ....|--- .... ....
 G#4|..|C-4 AF.F ....|G#2 2A.F ....|--- .... ....
....|..|C-4 AF.F ....|C-3 2F.A ....|--- .... ....
....|..|C-4 AF.F ....|R-- .... ....|--- .... ....
 A#3|..|C-4 LF.F ....|A#2 2C.F ....|--- .... ....
....|..|C-4 LF.F ....|G#2 2F.A ....|--- .... ....
....|..|C-2 2F.7 ....|C-3 2F.7 ....|--- .... ....
 A#3|..|C-4 LF.F ....|A#2 2C.F ....|--- .... ....
....|..|C-4 LF.F ....|A#2 2F.A ....|--- .... ....
....|..|C-2 2F.7 ....|G#2 2F.7 ....|--- .... ....
 A#3|..|C-4 LF.F ....|A#2 2C.F ....|--- .... ....
....|..|A#1 2F.A ....|A#2 2F.A ....|--- .... ....
....|..|C-4 LF.F ....|A#2 2F.7 ....|--- .... ....
 A#3|..|C-5 VF.F ....|A#2 2C.F ....|--- .... ....
....|..|A#1 2F.A ....|A#2 2F.A ....|--- .... ....
....|..|A#1 2F.7 ....|A#2 2F.7 ....|--- .... ....
 A#3|..|C-4 LF.F ....|A#2 2C.F ....|--- .... ....
....|..|A#1 2F.A ....|A#2 2F.A ....|--- .... ....
....|..|A#1 2F.7 ....|A#2 2F.7 ....|F-5 2F.F ....
....|..|C-4 LF.F ....|R-- .... ....|--- .... ....
....|..|A#1 2F.A ....|A#2 2F.A ....|--- .... ....
....|..|A#1 2F.7 ....|A#2 2F.7 ....|--- .... ....
 A#3|..|C-4 AF.F ....|A#2 2C.F ....|F-5 2F.A ....
....|..|A#1 2F.A ....|R-- .... ....|--- .... ....
....|..|C-4 AF.F ....|A#2 2F.7 ....|--- .... ....
 A#3|..|C-4 LF.F ....|A#2 2C.F ....|--- .... ....
 C-3|..|C-4 2C.F ....|A#2 2F.A ....|F-5 2F.7 ....
....|..|A#1 2F.7 ....|F-4 2F.F ....|--- .... ....
 A#3|..|C-4 LF.F ....|A#2 2C.F ....|--- .... ....
....|..|C-4 2F.A ....|A#2 2F.A ....|--- .... ....
....|..|C-4 LF.F ....|A#2 2F.7 ....|--- .... ....
 A#3|..|C-4 AF.F ....|A#2 2C.F ....|--- .... ....
 D-4|..|D-4 2C.F ....|A#2 2F.A ....|--- .... ....
....|..|C-4 AF.F ....|A#2 2F.7 ....|--- .... ....
 A#3|..|C-4 LF.F ....|A#2 2C.F ....|--- .... ....
....|..|C-4 LF.F ....|A#2 2F.A ....|F-5 2F.F ....
....|..|C-4 2F.7 ....|A#2 2F.7 ....|--- .... ....
 A#3|..|C-5 VF.F ....|A#2 2C.F ....|--- .... ....
....|..|D-4 2F.A ....|A#2 2F.A ....|--- .... ....
....|..|D-4 2F.7 ....|A#2 2F.7 ....|F-5 2F.A ....
 A#3|..|C-4 LF.F ....|A#2 2C.F ....|--- .... ....
....|..|A#1 2F.A ....|A#2 2F.A ....|--- .... ....
....|..|A#1 2F.7 ....|A#2 2F.7 ....|--- .... ....
 A#3|..|C-4 LF.F ....|A#2 2C.F ....|F-5 2F.7 ....
 D#4|..|D#4 2C.F ....|A#2 2F.A ....|--- .... ....
....|..|A#1 2F.7 ....|A#2 2F.7 ....|--- .... ....
 G#4|..|C-4 AF.F ....|G#2 2A.F ....|--- .... ....
....|..|C-4 LF.F ....|A#2 2F.A ....|--- .... ....
....|..|D#4 2F.A ....|A#2 2F.7 ....|--- .... ....

[Pattern14]
 G#4|..|C-4 AF.F ....|G#2 2A.F ....|--- .... ....
....|..|C-4 AF.F ....|G#2 2F.A ....|--- .... ....
....|..|D#4 2F.7 ....|A#2 2F.7 ....|--- .... ....
 G#4|..|C-4 LF.F ....|G#2 2A.F ....|--- .... ....
....|..|C-4 LF.F ....|G#2 2F.A ....|--- .... ....
....|..|A#1 2F.7 ....|G#2 2F.7 ....|--- .... ....
 G#4|..|C-4 LF.F ....|G#2 2A.F ....|--- .... ....
 D-4|..|D-4 2C.F ....|G#2 2F.A ....|--- .... ....
....|..|A#1 2F.7 ....|G#2 2F.7 ....|--- .... ....
....|..|C-4 LF.F ....|F-4 2F.F ....|--- .... ....
....|..|C-4 LF.F ....|G#2 2F.A ....|--- .... ....
....|..|D-4 2F.A ....|G#2 2F.7 ....|--- .... ....
 G#4|..|C-5 VF.F ....|G#2 2A.F ....|F-5 2F.F ....
....|..|G#1 2F.A ....|F-4 2F.A ....|--- .... ....
....|..|C-5 VF.F ....|G#2 2F.7 ....|--- .... ....
 G#4|..|C-4 LF.F ....|G#2 2A.F ....|--- .... ....
....|..|G#1 2F.A ....|G#2 2F.A ....|F-5 2F.A ....
....|..|G#1 2F.7 ....|F-4 2F.7 ....|--- .... ....
....|..|C-4 LF.F ....|--- .... ....|--- .... ....
 D-4|..|D-4 2C.F ....|G#2 2F.A ....|--- .... ....
 C-3|..|C-4 2C.F ....|D#4 2F.F ....|F-5 2F.7 ....
 G#4|..|C-4 AF.F ....|G#2 2A.F ....|--- .... ....
....|..|D-4 2F.A ....|R-- .... ....|--- .... ....
....|..|C-4 AF.F ....|G#2 2F.7 ....|--- .... ....
 G#4|..|C-4 LF.F ....|G#2 2A.F ....|D-5 2F.F ....
....|..|C-4 2F.A ....|G#2 2F.A ....|--- .... ....
....|..|D-4 2F.7 ....|D#4 2F.A ....|--- .... ....
 G#4|..|C-4 LF.F ....|G#2 2A.F ....|--- .... ....
....|..|G#1 2F.A ....|G#2 2F.A ....|D-5 2F.A ....
....|..|G#1 2F.7 ....|G#2 2F.7 ....|--- .... ....
 G#4|..|C-4 AF.F ....|G#2 2A.F ....|--- .... ....
 A#3|..|A#3 2C.F ....|G#2 2F.A ....|--- .... ....
....|..|G#1 2F.7 ....|G#2 2F.7 ....|D-5 2F.7 ....
 G#4|..|C-4 LF.F ....|G#2 2A.F ....|--- .... ....
....|..|C-4 LF.F ....|G#2 2F.A ....|--- .... ....
....|..|A#3 2F.A ....|G#2 2F.7 ....|--- .... ....
 G#4|..|C-5 VF.F ....|G#2 2A.F ....|--- .... ....
....|..|G#1 2F.A ....|G#2 2F.A ....|--- .... ....
....|..|C-5 VF.F ....|G#2 2F.7 ....|--- .... ....
 G#4|..|C-4 LF.F ....|G#2 2A.F ....|--- .... ....
....|..|G#1 2F.A ....|G#2 2F.A ....|--- .... ....
....|..|G#1 2F.7 ....|G#2 2F.7 ....|--- .... ....
 G#4|..|C-4 LF.F ....|G#2 2A.F ....|--- .... ....
 A#3|..|A#3 2C.F ....|G#2 2F.A ....|--- .... ....
 G-4|..|G-3 2C.F ....|G#2 2F.7 ....|--- .... ....
 G#4|..|C-4 LF.F ....|G#2 2A.F ....|--- .... ....
....|..|A#3 2F.A ....|G#2 2F.A ....|--- .... ....
....|..|G-3 2F.A ....|G#2 2F.7 ....|--- .... ....
 G#4|..|C-4 AF.F ....|G#2 2A.F ....|--- .... ....
....|..|C-4 LF.F ....|G#2 2F.A ....|--- .... ....
....|..|A#3 2F.7 ....|G#2 2F.7 ....|--- .... ....
 G#4|..|C-4 LF.F ....|G#2 2A.F ....|--- .... ....
....|..|C-4 LF.F ....|G#2 2F.A ....|--- .... ....
....|..|G-3 2F.7 ....|G#2 2F.7 ....|--- .... ....
 G#4|..|C-4 LF.F ....|G#2 2A.F ....|--- .... ....
....|..|C-4 LF.F ....|G#2 2F.A ....|--- .... ....
 G-4|..|G-3 2C.F ....|G#2 2F.7 ....|--- .... ....
 G#4|..|C-4 LF.F ....|G#2 2A.F ....|--- .... ....
....|..|C-4 LF.F ....|G#2 2F.A ....|--- .... ....
....|..|G-3 2F.A ....|G#2 2F.7 ....|--- .... ....
 G#4|..|C-5 VF.F ....|G#2 2A.F ....|--- .... ....
....|..|F-3 2F.A ....|G#2 2F.A ....|--- .... ....
....|..|C-5 VF.F ....|G#2 2F.7 ....|--- .... ....
 G#4|..|C-4 LF.F ....|G#2 2A.F ....|--- .... ....
....|..|G#1 2F.A ....|G#2 2F.A ....|--- .... ....
....|..|F-3 2F.7 ....|G#2 2F.7 ....|--- .... ....
 G#4|..|C-4 LF.F ....|G#2 2A.F ....|--- .... ....
....|..|G#1 2F.A ....|G#2 2F.A ....|--- .... ....
....|..|G#1 2F.F ....|G#2 2F.7 ....|--- .... ....
 G#4|..|C-4 AF.F ....|G#2 2A.F ....|--- .... ....
....|..|G#1 2F.A ....|G#2 2F.A ....|--- .... ....
....|..|C-4 AF.F ....|G#2 2F.7 ....|--- .... ....
 G#4|..|C-4 LF.F ....|G#2 2A.F ....|--- .... ....
....|..|G#1 2F.A ....|G#2 2F.A ....|--- .... ....
....|..|A#1 2F.F ....|G#2 2F.7 ....|--- .... ....
 G#4|..|C-4 LF.F ....|G#2 2A.F ....|--- .... ....
 C-3|..|C-4 2C.F ....|G#2 2F.A ....|--- .... ....
....|..|G#1 2F.7 ....|G#2 2F.7 ....|--- .... ....
 G#4|..|C-4 AF.F ....|G#2 2A.F ....|--- .... ....
....|..|C-4 2F.A ....|G#2 2F.A ....|--- .... ....
....|..|G#1 2F.7 ....|G#2 2F.7 ....|--- .... ....
 A#3|..|C-4 LF.F ....|A#2 2C.F ....|--- .... ....
....|..|C-4 LF.F ....|G#2 2F.A ....|--- .... ....
 D#4|..|D#4 2C.F ....|G#2 2F.7 ....|--- .... ....
 A#3|..|C-5 VF.F ....|A#2 2C.F ....|--- .... ....
....|..|D#4 2F.A ....|A#2 2F.A ....|--- .... ....
....|..|C-5 VF.F ....|G#2 2F.7 ....|R-- .... ....
 A#3|..|C-4 LF.F ....|A#2 2C.F ....|--- .... ....
 C-3|..|C-4 2C.F ....|A#2 2F.A ....|--- .... ....
....|..|D#4 2F.7 ....|A#2 2F.7 ....|--- .... ....
 A#3|..|C-4 LF.F ....|A#2 2C.F ....|R-- .... ....
 C-3|..|C-4 2C.F ....|A#2 2F.A ....|--- .... ....
....|..|C-4 2F.A ....|A#2 2F.7 ....|--- .... ....
 A#3|..|C-4 LF.F ....|A#2 2C.F ....|--- .... ....
....|..|C-4 2F.A ....|A#2 2F.A ....|R-- .... ....
....|..|C-4 2F.7 ....|A#2 2F.7 ....|--- .... ....

[Pattern15]
 A#3|..|C-4 AF.F ....|A#2 2C.F ....|--- .... ....
....|..|C-4 AF.F ....|A#2 2F.A ....|--- .... ....
....|..|C-4 2F.7 ....|A#2 2F.7 ....|--- .... ....
 C-3|..|C-4 LF.F ....|C-3 2C.F ....|--- .... ....
....|..|A#1 2F.A ....|A#2 2F.A ....|--- .... ....
....|..|C-4 LF.F ....|A#2 2F.7 ....|--- .... ....
 C-3|..|C-4 LF.F ....|C-3 2C.F ....|--- .... ....
....|..|C-4 LF.F ....|C-3 2F.A ....|--- .... ....
....|..|A#1 2F.7 ....|A#2 2F.7 ....|--- .... ....
 C-3|..|C-4 LF.F ....|C-3 2C.F ....|--- .... ....
....|..|C-4 LF.F ....|C-3 2F.A ....|--- .... ....
....|..|C-2 2F.7 ....|C-3 2F.7 ....|--- .... ....
 C-3|..|C-5 VF.F ....|C-3 2C.F ....|G-4 2F.F ....
....|..|C-2 2F.A ....|C-3 2F.A ....|--- .... ....
....|..|C-5 VF.F ....|C-3 2F.7 ....|--- .... ....
 C-3|..|C-4 LF.F ....|C-3 2C.F ....|--- .... ....
....|..|C-2 2F.A ....|C-3 2F.A ....|G-4 2F.A ....
....|..|C-2 2F.7 ....|C-3 2F.7 ....|--- .... ....
....|..|C-4 LF.F ....|--- .... ....|--- .... ....
....|..|C-2 2F.A ....|C-3 2F.A ....|--- .... ....
....|..|C-2 2F.7 ....|C-3 2F.7 ....|G-4 2F.7 ....
 C-3|..|C-4 AF.F ....|C-3 2C.F ....|--- .... ....
....|..|C-2 2F.A ....|R-- .... ....|--- .... ....
....|..|C-4 AF.F ....|C-3 2F.7 ....|--- .... ....
 C-3|..|C-4 LF.F ....|C-3 2C.F ....|--- .... ....
....|..|C-2 2F.A ....|C-3 2F.A ....|--- .... ....
....|..|C-2 2F.7 ....|R-- .... ....|--- .... ....
 C-3|..|C-4 LF.F ....|C-3 2C.F ....|--- .... ....
....|..|C-2 2F.A ....|C-3 2F.A ....|--- .... ....
....|..|C-4 LF.F ....|C-3 2F.7 ....|--- .... ....
 C-3|..|C-4 AF.F ....|C-3 2C.F ....|--- .... ....
....|..|C-2 2F.A ....|C-3 2F.A ....|--- .... ....
....|..|C-4 AF.F ....|C-3 2F.7 ....|--- .... ....
 C-3|..|C-4 LF.F ....|C-3 2C.F ....|--- .... ....
....|..|C-4 LF.F ....|C-3 2F.A ....|--- .... ....
....|..|C-2 2F.7 ....|C-3 2F.7 ....|--- .... ....
 C-3|..|C-5 VF.F ....|C-3 2C.F ....|--- .... ....
....|..|C-2 2F.A ....|C-3 2F.A ....|--- .... ....
....|..|C-5 VF.F ....|C-3 2F.7 ....|--- .... ....
 C-3|..|C-4 LF.F ....|C-3 2C.F ....|--- .... ....
....|..|C-2 2F.A ....|C-3 2F.A ....|--- .... ....
....|..|C-2 2F.7 ....|C-3 2F.7 ....|--- .... ....
....|..|C-4 LF.F ....|R-- .... ....|--- .... ....
....|..|C-2 2F.A ....|C-3 2F.A ....|--- .... ....
....|..|C-2 2F.7 ....|C-3 2F.7 ....|--- .... ....
 C-3|..|C-4 LF.F ....|C-3 2C.F ....|--- .... ....
....|..|C-2 2F.A ....|R-- .... ....|--- .... ....
....|..|C-2 2F.7 ....|C-3 2F.7 ....|--- .... ....
 G#4|..|C-4 AF.F ....|G#2 2A.F ....|--- .... ....
....|..|C-4 AF.F ....|C-3 2F.A ....|--- .... ....
....|..|C-4 AF.F ....|R-- .... ....|--- .... ....
 A#3|..|C-4 LF.F ....|A#2 2C.F ....|--- .... ....
....|..|C-4 LF.F ....|G#2 2F.A ....|--- .... ....
....|..|C-2 2F.7 ....|C-3 2F.7 ....|--- .... ....
 A#3|..|C-4 LF.F ....|A#2 2C.F ....|--- .... ....
....|..|C-4 LF.F ....|A#2 2F.A ....|--- .... ....
....|..|C-2 2F.7 ....|G#2 2F.7 ....|--- .... ....
 A#3|..|C-4 LF.F ....|A#2 2C.F ....|--- .... ....
....|..|A#1 2F.A ....|A#2 2F.A ....|--- .... ....
....|..|C-4 LF.F ....|A#2 2F.7 ....|--- .... ....
 A#3|..|C-5 VF.F ....|A#2 2C.F ....|--- .... ....
....|..|A#1 2F.A ....|A#2 2F.A ....|--- .... ....
....|..|A#1 2F.7 ....|A#2 2F.7 ....|--- .... ....
 A#3|..|C-4 LF.F ....|A#2 2C.F ....|--- .... ....
....|..|A#1 2F.A ....|A#2 2F.A ....|--- .... ....
....|..|A#1 2F.7 ....|A#2 2F.7 ....|--- .... ....
....|..|C-4 LF.F ....|R-- .... ....|--- .... ....
....|..|A#1 2F.A ....|A#2 2F.A ....|--- .... ....
....|..|A#1 2F.7 ....|A#2 2F.7 ....|--- .... ....
 A#3|..|C-4 AF.F ....|A#2 2C.F ....|--- .... ....
....|..|A#1 2F.A ....|R-- .... ....|--- .... ....
....|..|C-4 AF.F ....|A#2 2F.7 ....|--- .... ....
 A#3|..|C-4 LF.F ....|A#2 2C.F ....|--- .... ....
 C-3|..|C-4 2C.F ....|A#2 2F.A ....|--- .... ....
....|..|A#1 2F.7 ....|R-- .... ....|--- .... ....
 A#3|..|C-4 LF.F ....|A#2 2C.F ....|--- .... ....
....|..|C-4 2F.A ....|A#2 2F.A ....|--- .... ....
....|..|C-4 LF.F ....|A#2 2F.7 ....|--- .... ....
 A#3|..|C-4 AF.F ....|A#2 2C.F ....|--- .... ....
 D-4|..|D-4 2C.F ....|A#2 2F.A ....|--- .... ....
....|..|C-4 AF.F ....|A#2 2F.7 ....|--- .... ....
 A#3|..|C-4 LF.F ....|A#2 2C.F ....|--- .... ....
....|..|C-4 LF.F ....|A#2 2F.A ....|--- .... ....
....|..|C-4 2F.7 ....|A#2 2F.7 ....|--- .... ....
 A#3|..|C-5 VF.F ....|A#2 2C.F ....|--- .... ....
....|..|D-4 2F.A ....|A#2 2F.A ....|--- .... ....
....|..|D-4 2F.7 ....|A#2 2F.7 ....|--- .... ....
 A#3|..|C-4 LF.F ....|A#2 2C.F ....|--- .... ....
....|..|A#1 2F.A ....|A#2 2F.A ....|--- .... ....
....|..|A#1 2F.7 ....|A#2 2F.7 ....|--- .... ....
 A#3|..|C-4 LF.F ....|A#2 2C.F ....|--- .... ....
 D#4|..|D#4 2C.F ....|A#2 2F.A ....|--- .... ....
....|..|A#1 2F.7 ....|A#2 2F.7 ....|--- .... ....
 G#4|..|C-4 AF.F ....|G#2 2A.F ....|--- .... ....
....|..|C-4 LF.F ....|A#2 2F.A ....|--- .... ....
....|..|D#4 2F.A ....|A#2 2F.7 ....|--- .... ....

[Pattern16]
 G#4|..|C-4 AF.F ....|G#2 2A.F ....|--- .... ....
....|..|C-4 AF.F ....|G#2 2F.A ....|--- .... ....
....|..|D#4 2F.7 ....|A#2 2F.7 ....|--- .... ....
 G#4|..|C-4 LF.F ....|G#2 2A.F ....|--- .... ....
....|..|C-4 LF.F ....|G#2 2F.A ....|--- .... ....
....|..|A#1 2F.7 ....|G#2 2F.7 ....|--- .... ....
 G#4|..|C-4 LF.F ....|G#2 2A.F ....|--- .... ....
....|..|G#1 2F.A ....|G#2 2F.A ....|--- .... ....
....|..|A#1 2F.7 ....|G#2 2F.7 ....|--- .... ....
....|..|C-4 LF.F ....|R-- .... ....|--- .... ....
....|..|C-4 LF.F ....|G#2 2F.A ....|--- .... ....
....|..|G#1 2F.7 ....|G#2 2F.7 ....|--- .... ....
 G#4|..|C-5 VF.F ....|G#2 2A.F ....|A#4 2F.F ....
 D#4|..|D#4 2C.F ....|R-- .... ....|--- .... ....
....|..|C-5 VF.F ....|G#2 2F.7 ....|--- .... ....
 G#4|..|C-4 LF.F ....|G#2 2A.F ....|--- .... ....
....|..|D#4 2F.A ....|G#2 2F.A ....|A#4 2F.A ....
....|..|G#1 2F.7 ....|R-- .... ....|--- .... ....
....|..|C-4 LF.F ....|--- .... ....|--- .... ....
 F-4|..|F-4 2C.F ....|G#2 2F.A ....|--- .... ....
 F-4|..|F-4 2C.F ....|G#2 2F.7 ....|A#4 2F.7 ....
 G#4|..|C-4 AF.F ....|G#2 2A.F ....|--- .... ....
....|..|F-4 2F.A ....|R-- .... ....|--- .... ....
....|..|C-4 AF.F ....|G#2 2F.7 ....|--- .... ....
 G#4|..|C-4 LF.F ....|G#2 2A.F ....|--- .... ....
....|..|F-4 2F.A ....|G#2 2F.A ....|--- .... ....
 C-3|..|C-4 2C.F ....|R-- .... ....|--- .... ....
 G#4|..|C-4 LF.F ....|G#2 2A.F ....|--- .... ....
....|..|C-4 2F.A ....|G#2 2F.A ....|--- .... ....
....|..|F-4 2F.7 ....|G#2 2F.7 ....|--- .... ....
 G#4|..|C-4 AF.F ....|G#2 2A.F ....|--- .... ....
 D-4|..|D-4 2C.F ....|G#2 2F.A ....|A#4 2F.F ....
 D-4|..|D-4 2C.F ....|G#2 2F.7 ....|--- .... ....
 G#4|..|C-4 LF.F ....|G#2 2A.F ....|--- .... ....
....|..|C-4 LF.F ....|G#2 2F.A ....|--- .... ....
....|..|D-4 2F.A ....|G#2 2F.7 ....|A#4 2F.A ....
 G#4|..|C-5 VF.F ....|G#2 2A.F ....|--- .... ....
....|..|G#1 2F.A ....|G#2 2F.A ....|--- .... ....
....|..|C-5 VF.F ....|G#2 2F.7 ....|--- .... ....
 G#4|..|C-4 LF.F ....|G#2 2A.F ....|A#4 2F.7 ....
....|..|G#1 2F.A ....|G#2 2F.A ....|--- .... ....
....|..|G#1 2F.7 ....|G#2 2F.7 ....|--- .... ....
 G#4|..|C-4 LF.F ....|G#2 2A.F ....|--- .... ....
 D#4|..|D#4 2C.F ....|G#2 2F.A ....|--- .... ....
....|..|G#1 2F.7 ....|G#2 2F.7 ....|--- .... ....
 G#4|..|C-4 LF.F ....|G#2 2A.F ....|--- .... ....
....|..|D#4 2F.A ....|G#2 2F.A ....|--- .... ....
....|..|G#1 2F.7 ....|G#2 2F.7 ....|--- .... ....
 G#4|..|C-4 LF.F ....|G#2 2A.F ....|--- .... ....
....|..|C-4 LF.F ....|G#2 2F.A ....|--- .... ....
....|..|D#4 2F.7 ....|G#2 2F.7 ....|--- .... ....
 G#4|..|C-4 LF.F ....|G#2 2A.F ....|--- .... ....
....|..|C-4 LF.F ....|G#2 2F.A ....|--- .... ....
....|..|G#1 2F.7 ....|G#2 2F.7 ....|--- .... ....
 G#4|..|C-4 AF.F ....|G#2 2A.F ....|--- .... ....
....|..|C-4 LF.F ....|G#2 2F.A ....|--- .... ....
....|..|G#1 2F.7 ....|G#2 2F.7 ....|--- .... ....
 G#4|..|C-4 LF.F ....|G#2 2A.F ....|C-6 2F.F ....
....|..|C-4 LF.F ....|G#2 2F.A ....|--- .... ....
....|..|G#1 2F.7 ....|G#2 2F.7 ....|--- .... ....
 G#4|..|C-5 VF.F ....|G#2 2A.F ....|--- .... ....
....|..|G#1 2F.A ....|G#2 2F.A ....|C-6 2F.A ....
....|..|C-5 VF.F ....|G#2 2F.7 ....|--- .... ....
 G#4|..|C-4 LF.F ....|G#2 2A.F ....|--- .... ....
....|..|G#1 2F.A ....|G#2 2F.A ....|--- .... ....
....|..|G#1 2F.7 ....|G#2 2F.7 ....|C-6 2F.7 ....
 G#4|..|C-4 LF.F ....|G#2 2A.F ....|--- .... ....
....|..|G#1 2F.A ....|G#2 2F.A ....|--- .... ....
....|..|G#1 2F.7 ....|G#2 2F.7 ....|C-6 2F.F ....
 G#4|..|C-4 AF.F ....|G#2 2A.F ....|--- .... ....
....|..|G#1 2F.A ....|G#2 2F.A ....|--- .... ....
....|..|C-4 AF.F ....|G#2 2F.7 ....|--- .... ....
 G#4|..|C-4 LF.F ....|G#2 2A.F ....|C-6 2F.A ....
....|..|G#1 2F.A ....|G#2 2F.A ....|--- .... ....
....|..|G#1 2F.7 ....|G#2 2F.7 ....|--- .... ....
 G#4|..|C-4 LF.F ....|G#2 2A.F ....|--- .... ....
....|..|G#1 2F.A ....|G#2 2F.A ....|C-6 2F.7 ....
....|..|G#1 2F.7 ....|G#2 2F.7 ....|--- .... ....
 G#4|..|C-4 AF.F ....|G#2 2A.F ....|--- .... ....
 G-4|..|G-3 2C.F ....|G#2 2F.A ....|--- .... ....
....|..|G#1 2F.7 ....|G#2 2F.7 ....|--- .... ....
 A#3|..|C-4 LF.F ....|A#2 2C.F ....|--- .... ....
....|..|C-4 LF.F ....|G#2 2F.A ....|--- .... ....
....|..|G-3 2F.A ....|G#2 2F.7 ....|--- .... ....
 A#3|..|C-5 VF.F ....|A#2 2C.F ....|--- .... ....
 F-4|..|F-3 2C.F ....|A#2 2F.A ....|--- .... ....
....|..|C-5 VF.F ....|G#2 2F.7 ....|--- .... ....
 A#3|..|C-4 LF.F ....|A#2 2C.F ....|R-- .... ....
....|..|F-3 2F.A ....|A#2 2F.A ....|--- .... ....
....|..|A#1 2F.7 ....|A#2 2F.7 ....|--- .... ....
 A#3|..|C-4 LF.F ....|A#2 2C.F ....|--- .... ....
 D#4|..|D#3 2C.F ....|A#2 2F.A ....|R-- .... ....
....|..|F-3 2F.7 ....|A#2 2F.7 ....|--- .... ....
 A#3|..|C-4 LF.F ....|A#2 2C.F ....|--- .... ....
 F-4|..|F-3 2C.F ....|A#2 2F.A ....|--- .... ....
....|..|D#3 2F.A ....|A#2 2F.7 ....|R-- .... ....

[Pattern17]
 A#3|..|C-4 AF.F ....|A#2 2C.F ....|--- .... ....
....|..|C-4 AF.F ....|A#2 2F.A ....|--- .... ....
....|..|F-3 2F.A ....|A#2 2F.7 ....|--- .... ....
 C-3|..|C-4 LF.F ....|C-3 2C.F ....|--- .... ....
....|..|C-2 2F.A ....|A#2 2F.A ....|--- .... ....
....|..|C-4 LF.F ....|A#2 2F.7 ....|--- .... ....
 C-3|..|C-4 LF.F ....|C-3 2C.F ....|--- .... ....
....|..|C-4 LF.F ....|C-3 2F.A ....|--- .... ....
....|..|F-3 2F.7 ....|A#2 2F.7 ....|--- .... ....
 C-3|..|C-4 LF.F ....|C-3 2C.F ....|--- .... ....
....|..|C-4 LF.F ....|C-3 2F.A ....|--- .... ....
....|..|G-3 2F.A ....|C-3 2F.7 ....|--- .... ....
 C-3|..|C-5 VF.F ....|C-3 2C.F ....|--- .... ....
....|..|C-2 2F.A ....|C-3 2F.A ....|--- .... ....
....|..|C-5 VF.F ....|C-3 2F.7 ....|--- .... ....
 C-3|..|C-4 LF.F ....|C-3 2C.F ....|--- .... ....
....|..|C-2 2F.A ....|C-3 2F.A ....|--- .... ....
....|..|C-2 2F.7 ....|C-3 2F.7 ....|--- .... ....
....|..|C-4 LF.F ....|--- .... ....|--- .... ....
....|..|C-2 2F.A ....|C-3 2F.A ....|--- .... ....
....|..|C-2 2F.7 ....|C-3 2F.7 ....|--- .... ....
 C-3|..|C-4 AF.F ....|C-3 2C.F ....|--- .... ....
....|..|C-2 2F.A ....|R-- .... ....|--- .... ....
....|..|C-4 AF.F ....|C-3 2F.7 ....|--- .... ....
 C-3|..|C-4 LF.F ....|C-3 2C.F ....|--- .... ....
....|..|C-2 2F.A ....|C-3 2F.A ....|--- .... ....
....|..|C-2 2F.7 ....|R-- .... ....|--- .... ....
 C-3|..|C-4 LF.F ....|C-3 2C.F ....|--- .... ....
....|..|A#1 2F.A ....|C-3 2F.A ....|--- .... ....
....|..|C-4 LF.F ....|C-3 2F.7 ....|--- .... ....
 C-3|..|C-4 AF.F ....|C-3 2C.F ....|--- .... ....
 G-4|..|G-3 2C.F ....|C-3 2F.A ....|--- .... ....
....|..|C-4 AF.F ....|C-3 2F.7 ....|--- .... ....
 C-3|..|C-4 LF.F ....|C-3 2C.F ....|--- .... ....
....|..|C-4 LF.F ....|C-3 2F.A ....|--- .... ....
....|..|G-3 2F.A ....|C-3 2F.7 ....|--- .... ....
 C-3|..|C-5 VF.F ....|C-3 2C.F ....|--- .... ....
 F-4|..|F-3 2C.F ....|C-3 2F.A ....|--- .... ....
....|..|C-5 VF.F ....|C-3 2F.7 ....|--- .... ....
 C-3|..|C-4 LF.F ....|C-3 2C.F ....|--- .... ....
....|..|F-3 2F.A ....|C-3 2F.A ....|--- .... ....
....|..|C-2 2F.7 ....|C-3 2F.7 ....|--- .... ....
....|..|C-4 LF.F ....|R-- .... ....|--- .... ....
 D#4|..|D#3 2C.F ....|C-3 2F.A ....|--- .... ....
....|..|F-3 2F.7 ....|C-3 2F.7 ....|--- .... ....
 C-3|..|C-4 LF.F ....|C-3 2C.F ....|--- .... ....
 F-4|..|F-3 2C.F ....|R-- .... ....|--- .... ....
....|..|D#3 2F.A ....|C-3 2F.7 ....|--- .... ....
 A#3|..|C-4 LF.F ....|A#2 2C.F ....|--- .... ....
....|..|C-4 LF.F ....|C-3 2F.A ....|--- .... ....
....|..|F-3 2F.A ....|R-- .... ....|--- .... ....
 C-3|..|C-4 LF.F ....|C-3 2C.F ....|--- .... ....
....|..|C-4 LF.F ....|A#2 2F.A ....|--- .... ....
....|..|D#3 2F.7 ....|C-3 2F.7 ....|--- .... ....
 C-3|..|C-4 AF.F ....|C-3 2C.F ....|--- .... ....
....|..|C-4 AF.F ....|C-3 2F.A ....|--- .... ....
....|..|C-4 AF.F ....|A#2 2F.7 ....|--- .... ....
 C-3|..|C-4 LF.F ....|C-3 2C.F ....|--- .... ....
....|..|C-3 2F.A ....|C-3 2F.A ....|--- .... ....
....|..|C-4 LF.F ....|C-3 2F.7 ....|--- .... ....
 C-3|..|C-5 VF.F ....|C-3 2C.F ....|--- .... ....
....|..|C-2 2F.A ....|C-3 2F.A ....|--- .... ....
....|..|C-3 2F.7 ....|C-3 2F.7 ....|--- .... ....
 C-3|..|C-4 LF.F ....|C-3 2C.F ....|--- .... ....
....|..|C-2 2F.A ....|C-3 2F.A ....|--- .... ....
....|..|C-2 2F.7 ....|C-3 2F.7 ....|--- .... ....
....|..|C-4 LF.F ....|R-- .... ....|--- .... ....
....|..|C-2 2F.A ....|C-3 2F.A ....|--- .... ....
....|..|C-2 2F.7 ....|C-3 2F.7 ....|--- .... ....
 C-3|..|C-4 AF.F ....|C-3 2C.F ....|--- .... ....
....|..|C-2 2F.A ....|R-- .... ....|--- .... ....
....|..|C-4 AF.F ....|C-3 2F.7 ....|--- .... ....
 C-3|..|C-4 LF.F ....|C-3 2C.F ....|--- .... ....
....|..|C-2 2F.A ....|C-3 2F.A ....|--- .... ....
....|..|C-4 LF.F ....|R-- .... ....|--- .... ....
 C-3|..|C-4 LF.F ....|C-3 2C.F ....|--- .... ....
....|..|A#1 2F.A ....|C-3 2F.A ....|--- .... ....
....|..|C-4 LF.F ....|C-3 2F.7 ....|--- .... ....
 C-3|..|C-4 AF.F ....|C-3 2C.F ....|--- .... ....
 G-4|..|G-3 2C.F ....|C-3 2F.A ....|--- .... ....
....|..|C-4 AF.F ....|C-3 2F.7 ....|--- .... ....
 C-3|..|C-4 LF.F ....|C-3 2C.F ....|--- .... ....
....|..|C-4 LF.F ....|C-3 2F.A ....|--- .... ....
....|..|G-3 2F.A ....|C-3 2F.7 ....|--- .... ....
 C-3|..|C-5 VF.F ....|C-3 2C.F ....|--- .... ....
 F-4|..|F-3 2C.F ....|C-3 2F.A ....|--- .... ....
....|..|C-4 LF.F ....|C-3 2F.7 ....|--- .... ....
 C-3|..|C-4 LF.F ....|C-3 2C.F ....|--- .... ....
....|..|F-3 2F.A ....|C-3 2F.A ....|--- .... ....
....|..|C-2 2F.7 ....|C-3 2F.7 ....|--- .... ....
 C-3|..|C-4 LF.F ....|C-3 2C.F ....|--- .... ....
 D#4|..|D#3 2C.F ....|C-3 2F.A ....|--- .... ....
....|..|F-3 2F.7 ....|C-3 2F.7 ....|--- .... ....
 C-3|..|C-4 AF.F ....|C-3 2C.F ....|--- .... ....
....|..|C-4 LF.F ....|C-3 2F.A ....|--- .... ....
 F-4|..|F-3 2C.F ....|C-3 2F.7 ....|--- .... ....

[Pattern18]
 C-3|..|C-4 AF.F ....|C-3 2C.F ....|--- .... ....
....|..|C-4 AF.F ....|C-3 2F.A ....|--- .... ....
....|..|F-3 2F.A ....|C-3 2F.7 ....|--- .... ....
 C-3|..|C-4 LF.F ....|C-3 2C.F ....|--- .... ....
....|..|C-4 LF.F ....|C-3 2F.A ....|--- .... ....
....|..|D#3 2F.7 ....|C-3 2F.7 ....|--- .... ....
 C-3|..|C-4 LF.F ....|C-3 2C.F ....|--- .... ....
....|..|C-2 2F.A ....|C-3 2F.A ....|--- .... ....
 C-3|..|C-3 2C.F ....|C-3 2F.7 ....|--- .... ....
....|..|C-4 LF.F ....|R-- .... ....|--- .... ....
....|..|C-4 LF.F ....|C-3 2F.A ....|--- .... ....
....|..|C-3 2F.A ....|C-3 2F.7 ....|--- .... ....
 C-3|..|C-5 VF.F ....|C-3 2C.F ....|--- .... ....
....|..|C-2 2F.A ....|R-- .... ....|--- .... ....
....|..|C-5 VF.F ....|C-3 2F.7 ....|--- .... ....
 C-3|..|C-4 LF.F ....|C-3 2C.F ....|--- .... ....
....|..|C-2 2F.A ....|C-3 2F.A ....|--- .... ....
....|..|C-2 2F.7 ....|R-- .... ....|--- .... ....
....|..|C-4 LF.F ....|--- .... ....|--- .... ....
....|..|C-4 LF.F ....|C-3 2F.A ....|--- .... ....
....|..|C-2 2F.7 ....|C-3 2F.7 ....|--- .... ....
 C-3|..|C-4 AF.F ....|C-3 2C.F ....|--- .... ....
....|..|C-2 2F.A ....|R-- .... ....|--- .... ....
....|..|C-4 AF.F ....|C-3 2F.7 ....|--- .... ....
 C-3|..|C-4 LF.F ....|C-3 2C.F ....|--- .... ....
....|..|C-2 2F.A ....|C-3 2F.A ....|--- .... ....
....|..|C-2 2F.7 ....|R-- .... ....|--- .... ....
 C-3|..|C-4 LF.F ....|C-3 2C.F ....|--- .... ....
....|..|A#1 2F.A ....|C-3 2F.A ....|--- .... ....
....|..|C-2 2F.7 ....|C-3 2F.7 ....|--- .... ....
 C-3|..|C-4 AF.F ....|C-3 2C.F ....|--- .... ....
....|..|C-2 2F.A ....|C-3 2F.A ....|--- .... ....
....|..|C-4 AF.F ....|C-3 2F.7 ....|--- .... ....
 C-3|..|C-4 LF.F ....|C-3 2C.F ....|--- .... ....
....|..|C-4 LF.F ....|C-3 2F.A ....|--- .... ....
....|..|C-2 2F.7 ....|C-3 2F.7 ....|--- .... ....
 C-3|..|C-5 VF.F ....|C-3 2C.F ....|--- .... ....
....|..|C-2 2F.A ....|C-3 2F.A ....|--- .... ....
....|..|C-5 VF.F ....|C-3 2F.7 ....|--- .... ....
 C-3|..|C-4 LF.F ....|C-3 2C.F ....|--- .... ....
....|..|C-2 2F.A ....|C-3 2F.A ....|--- .... ....
....|..|C-2 2F.7 ....|C-3 2F.7 ....|--- .... ....
 C-3|..|C-4 LF.F ....|C-3 2C.F ....|--- .... ....
 C-3|..|C-3 2C.F ....|C-3 2F.A ....|--- .... ....
....|..|C-2 2F.7 ....|C-3 2F.7 ....|--- .... ....
 C-3|..|C-4 LF.F ....|C-3 2C.F ....|--- .... ....
....|..|C-3 2F.A ....|C-3 2F.A ....|--- .... ....
....|..|C-2 2F.7 ....|C-3 2F.7 ....|--- .... ....
 C-3|..|C-4 LF.F ....|C-3 2C.F ....|--- .... ....
....|..|C-4 LF.F ....|C-3 2F.A ....|--- .... ....
 C-3|..|C-3 2C.F ....|C-3 2F.7 ....|--- .... ....
 C-3|..|C-4 LF.F ....|C-3 2C.F ....|--- .... ....
....|..|C-4 LF.F ....|C-3 2F.A ....|--- .... ....
....|..|C-2 2F.7 ....|C-3 2F.7 ....|--- .... ....
 C-3|..|C-4 AF.F ....|C-3 2C.F ....|--- .... ....
....|..|C-4 LF.F ....|C-3 2F.A ....|--- .... ....
 G-4|..|G-3 2C.F ....|C-3 2F.7 ....|--- .... ....
 C-3|..|C-4 LF.F ....|C-3 2C.F ....|--- .... ....
....|..|C-4 LF.F ....|C-3 2F.A ....|--- .... ....
....|..|C-3 2F.7 ....|C-3 2F.7 ....|--- .... ....
 C-3|..|C-5 VF.F ....|C-3 2C.F ....|--- .... ....
....|..|G-3 2F.A ....|C-3 2F.A ....|--- .... ....
....|..|C-5 VF.F ....|C-3 2F.7 ....|--- .... ....
 C-3|..|C-4 LF.F ....|C-3 2C.F ....|--- .... ....
....|..|C-2 2F.A ....|C-3 2F.A ....|--- .... ....
....|..|C-2 2F.7 ....|C-3 2F.7 ....|--- .... ....
 C-3|..|C-4 AF.F ....|C-3 2C.F ....|--- .... ....
....|..|C-4 LF.F ....|C-3 2F.A ....|--- .... ....
 F-4|..|F-3 2C.F ....|C-3 2F.7 ....|--- .... ....
 C-3|..|C-4 AF.F ....|C-3 2C.F ....|--- .... ....
....|..|C-4 AF.F ....|C-3 2F.A ....|--- .... ....
....|..|C-4 AF.F ....|C-3 2F.7 ....|--- .... ....
 C-3|..|C-4 LF.F ....|C-3 2C.F ....|--- .... ....
....|..|C-4 LF.F ....|C-3 2F.A ....|--- .... ....
....|..|F-3 2F.7 ....|C-3 2F.7 ....|--- .... ....
 C-3|..|C-4 LF.F ....|C-3 2C.F ....|--- .... ....
 F-4|..|F-3 2C.F ....|C-3 2F.A ....|--- .... ....
 D#4|..|D#3 2C.F ....|C-3 2F.7 ....|--- .... ....
 C-3|..|C-4 AF.F ....|C-3 2C.F ....|--- .... ....
 G-4|..|G-3 2C.F ....|C-3 2F.A ....|--- .... ....
....|..|F-3 2F.A ....|C-3 2F.7 ....|--- .... ....
 C-3|..|C-4 LF.F ....|C-3 2C.F ....|--- .... ....
....|..|C-4 LF.F ....|C-3 2F.A ....|--- .... ....
....|..|D#3 2F.A ....|C-3 2F.7 ....|--- .... ....
 C-3|..|C-5 VF.F ....|C-3 2C.F ....|--- .... ....
....|..|G-3 2F.A ....|C-3 2F.A ....|--- .... ....
....|..|C-5 VF.F ....|C-3 2F.7 ....|--- .... ....
 C-3|..|C-4 LF.F ....|C-3 2C.F ....|--- .... ....
....|..|F-3 2F.A ....|C-3 2F.A ....|--- .... ....
....|..|C-2 2F.7 ....|C-3 2F.7 ....|--- .... ....
 C-3|..|C-4 LF.F ....|C-3 2C.F ....|--- .... ....
 D#4|..|D#3 2C.F ....|C-3 2F.A ....|--- .... ....
....|..|F-3 2F.7 ....|C-3 2F.7 ....|--- .... ....
 C-3|..|C-4 LF.F ....|C-3 2C.F ....|--- .... ....
 F-4|..|F-3 2C.F ....|C-3 2F.A ....|--- .... ....
....|..|D#3 2F.A ....|C-3 2F.7 ....|--- .... ....

[Pattern19]
 A#3|..|C-4 AF.F ....|A#2 2C.F ....|--- .... ....
....|..|C-4 AF.F ....|C-3 2F.A ....|--- .... ....
....|..|F-3 2F.A ....|C-3 2F.7 ....|--- .... ....
 C-3|..|C-4 LF.F ....|C-3 2C.F ....|--- .... ....
....|..|C-2 2F.A ....|A#2 2F.A ....|--- .... ....
....|..|C-4 LF.F ....|C-3 2F.7 ....|--- .... ....
 C-3|..|C-4 LF.F ....|C-3 2C.F ....|--- .... ....
....|..|C-4 LF.F ....|C-3 2F.A ....|--- .... ....
 G-4|..|G-3 2C.F ....|A#2 2F.7 ....|--- .... ....
 C-3|..|C-4 LF.F ....|C-3 2C.F ....|--- .... ....
....|..|C-4 LF.F ....|C-3 2F.A ....|--- .... ....
....|..|C-2 2F.7 ....|C-3 2F.7 ....|--- .... ....
 C-3|..|C-5 VF.F ....|C-3 2C.F ....|--- .... ....
....|..|C-2 2F.A ....|C-3 2F.A ....|--- .... ....
....|..|C-5 VF.F ....|C-3 2F.7 ....|--- .... ....
 C-3|..|C-4 LF.F ....|C-3 2C.F ....|--- .... ....
....|..|C-2 2F.A ....|C-3 2F.A ....|--- .... ....
....|..|C-2 2F.F ....|C-3 2F.7 ....|--- .... ....
....|..|C-4 LF.F ....|--- .... ....|--- .... ....
....|..|C-4 LF.F ....|C-3 2F.A ....|--- .... ....
....|..|C-2 2F.7 ....|C-3 2F.7 ....|--- .... ....
 C-3|..|C-4 AF.F ....|C-3 2C.F ....|--- .... ....
....|..|C-2 2F.A ....|R-- .... ....|--- .... ....
....|..|C-4 AF.F ....|C-3 2F.7 ....|--- .... ....
 C-3|..|C-4 LF.F ....|C-3 2C.F ....|--- .... ....
....|..|C-2 2F.A ....|C-3 2F.A ....|--- .... ....
....|..|C-2 2F.7 ....|R-- .... ....|--- .... ....
 C-3|..|C-4 LF.F ....|C-3 2C.F ....|--- .... ....
....|..|A#1 2F.A ....|C-3 2F.A ....|--- .... ....
....|..|C-4 LF.F ....|C-3 2F.7 ....|--- .... ....
 C-3|..|C-4 AF.F ....|C-3 2C.F ....|--- .... ....
 G-4|..|G-3 2C.F ....|C-3 2F.A ....|--- .... ....
....|..|C-4 AF.F ....|C-3 2F.7 ....|--- .... ....
 C-3|..|C-4 LF.F ....|C-3 2C.F ....|--- .... ....
....|..|C-4 LF.F ....|C-3 2F.A ....|--- .... ....
....|..|G-3 2F.A ....|C-3 2F.7 ....|--- .... ....
 C-3|..|C-5 VF.F ....|C-3 2C.F ....|--- .... ....
 F-4|..|F-3 2C.F ....|C-3 2F.A ....|--- .... ....
....|..|C-5 VF.F ....|C-3 2F.7 ....|--- .... ....
 C-3|..|C-4 LF.F ....|C-3 2C.F ....|--- .... ....
....|..|F-3 2F.A ....|C-3 2F.A ....|--- .... ....
....|..|C-2 2F.7 ....|C-3 2F.7 ....|--- .... ....
....|..|C-4 LF.F ....|R-- .... ....|--- .... ....
 D#4|..|D#3 2C.F ....|C-3 2F.A ....|--- .... ....
....|..|F-3 2F.7 ....|C-3 2F.7 ....|--- .... ....
 C-3|..|C-4 LF.F ....|C-3 2C.F ....|--- .... ....
 F-4|..|F-3 2C.F ....|R-- .... ....|--- .... ....
....|..|D#3 2F.A ....|C-3 2F.7 ....|--- .... ....
 A#3|..|C-4 LF.F ....|A#2 2C.F ....|--- .... ....
....|..|C-4 LF.F ....|C-3 2F.A ....|--- .... ....
....|..|F-3 2F.A ....|R-- .... ....|--- .... ....
 C-3|..|C-4 LF.F ....|C-3 2C.F ....|--- .... ....
....|..|C-4 LF.F ....|A#2 2F.A ....|--- .... ....
 C-3|..|C-3 2C.F ....|C-3 2F.7 ....|--- .... ....
 C-3|..|C-4 AF.F ....|C-3 2C.F ....|--- .... ....
....|..|C-4 AF.F ....|C-3 2F.A ....|--- .... ....
....|..|C-4 AF.F ....|A#2 2F.7 ....|--- .... ....
 C-3|..|C-4 LF.F ....|C-3 2C.F ....|--- .... ....
....|..|C-2 2F.A ....|C-3 2F.A ....|--- .... ....
....|..|C-4 LF.F ....|C-3 2F.7 ....|--- .... ....
 C-3|..|C-5 VF.F ....|C-3 2C.F ....|--- .... ....
....|..|C-2 2F.A ....|C-3 2F.A ....|--- .... ....
....|..|C-2 2F.7 ....|C-3 2F.7 ....|--- .... ....
 C-3|..|C-4 LF.F ....|C-3 2C.F ....|--- .... ....
....|..|C-2 2F.A ....|C-3 2F.A ....|--- .... ....
....|..|C-2 2F.F ....|C-3 2F.7 ....|--- .... ....
....|..|C-4 LF.F ....|R-- .... ....|--- .... ....
....|..|C-2 2F.A ....|C-3 2F.A ....|--- .... ....
....|..|C-2 2F.F ....|C-3 2F.7 ....|--- .... ....
 C-3|..|C-4 AF.F ....|C-3 2C.F ....|--- .... ....
....|..|C-2 2F.A ....|R-- .... ....|--- .... ....
....|..|C-4 AF.F ....|C-3 2F.7 ....|--- .... ....
 C-3|..|C-4 LF.F ....|C-3 2C.F ....|--- .... ....
....|..|C-4 LF.F ....|C-3 2F.A ....|--- .... ....
....|..|C-2 2F.7 ....|R-- .... ....|--- .... ....
 C-3|..|C-4 LF.F ....|C-3 2C.F ....|--- .... ....
....|..|A#1 2F.A ....|C-3 2F.A ....|--- .... ....
....|..|C-4 LF.F ....|C-3 2F.7 ....|--- .... ....
 C-3|..|C-4 AF.F ....|C-3 2C.F ....|--- .... ....
 G-4|..|G-3 2C.F ....|C-3 2F.A ....|--- .... ....
....|..|C-4 AF.F ....|C-3 2F.7 ....|--- .... ....
 C-3|..|C-4 LF.F ....|C-3 2C.F ....|--- .... ....
....|..|C-4 LF.F ....|C-3 2F.A ....|--- .... ....
....|..|G-3 2F.A ....|C-3 2F.7 ....|--- .... ....
 C-3|..|C-5 VF.F ....|C-3 2C.F ....|--- .... ....
 F-4|..|F-3 2C.F ....|C-3 2F.A ....|--- .... ....
....|..|G-3 2F.7 ....|C-3 2F.7 ....|--- .... ....
 C-3|..|C-4 LF.F ....|C-3 2C.F ....|--- .... ....
....|..|F-3 2F.A ....|C-3 2F.A ....|--- .... ....
....|..|C-2 2F.7 ....|C-3 2F.7 ....|--- .... ....
 C-3|..|C-4 LF.F ....|C-3 2C.F ....|--- .... ....
 D#4|..|D#3 2C.F ....|C-3 2F.A ....|--- .... ....
....|..|F-3 2F.7 ....|C-3 2F.7 ....|--- .... ....
 C-3|..|C-4 AF.F ....|C-3 2C.F ....|--- .... ....
....|..|C-4 LF.F ....|C-3 2F.A ....|--- .... ....
 F-4|..|F-3 2C.F ....|C-3 2F.7 ....|--- .... ....

[Pattern20]
 C-3|..|C-4 AF.F ....|C-3 2C.F ....|--- .... ....
....|..|C-4 AF.F ....|C-3 2F.A ....|--- .... ....
....|..|F-3 2F.A ....|C-3 2F.7 ....|--- .... ....
 C-3|..|C-4 LF.F ....|C-3 2C.F ....|--- .... ....
....|..|C-4 LF.F ....|C-3 2F.A ....|--- .... ....
....|..|D#3 2F.7 ....|C-3 2F.7 ....|--- .... ....
 C-3|..|C-4 LF.F ....|C-3 2C.F ....|--- .... ....
....|..|C-2 2F.A ....|C-3 2F.A ....|--- .... ....
 C-3|..|C-3 2C.F ....|C-3 2F.7 ....|--- .... ....
....|..|C-4 LF.F ....|R-- .... ....|--- .... ....
....|..|C-4 LF.F ....|C-3 2F.A ....|--- .... ....
....|..|C-3 2F.A ....|C-3 2F.7 ....|--- .... ....
 C-3|..|C-5 VF.F ....|C-3 2C.F ....|--- .... ....
....|..|C-2 2F.A ....|R-- .... ....|--- .... ....
....|..|C-5 VF.F ....|C-3 2F.7 ....|--- .... ....
 C-3|..|C-4 LF.F ....|C-3 2C.F ....|--- .... ....
....|..|C-2 2F.A ....|C-3 2F.A ....|--- .... ....
....|..|C-2 2F.7 ....|R-- .... ....|--- .... ....
....|..|C-4 LF.F ....|--- .... ....|--- .... ....
....|..|C-4 LF.F ....|C-3 2F.A ....|--- .... ....
....|..|C-2 2F.7 ....|C-3 2F.7 ....|--- .... ....
 C-3|..|C-4 AF.F ....|C-3 2C.F ....|--- .... ....
....|..|C-2 2F.A ....|R-- .... ....|--- .... ....
....|..|C-4 AF.F ....|C-3 2F.7 ....|--- .... ....
 C-3|..|C-4 LF.F ....|C-3 2C.F ....|--- .... ....
....|..|C-2 2F.A ....|C-3 2F.A ....|--- .... ....
....|..|C-2 2F.7 ....|R-- .... ....|--- .... ....
 C-3|..|C-4 LF.F ....|C-3 2C.F ....|--- .... ....
....|..|A#1 2F.A ....|C-3 2F.A ....|--- .... ....
....|..|C-2 2F.7 ....|C-3 2F.7 ....|--- .... ....
 C-3|..|C-4 AF.F ....|C-3 2C.F ....|--- .... ....
....|..|C-2 2F.A ....|C-3 2F.A ....|--- .... ....
....|..|C-4 AF.F ....|C-3 2F.7 ....|--- .... ....
 C-3|..|C-4 LF.F ....|C-3 2C.F ....|--- .... ....
....|..|C-4 LF.F ....|C-3 2F.A ....|--- .... ....
....|..|C-2 2F.7 ....|C-3 2F.7 ....|--- .... ....
 C-3|..|C-5 VF.F ....|C-3 2C.F ....|--- .... ....
....|..|C-2 2F.A ....|C-3 2F.A ....|--- .... ....
....|..|C-5 VF.F ....|C-3 2F.7 ....|--- .... ....
 C-3|..|C-4 LF.F ....|C-3 2C.F ....|--- .... ....
....|..|C-2 2F.A ....|C-3 2F.A ....|--- .... ....
....|..|C-2 2F.7 ....|C-3 2F.7 ....|--- .... ....
 C-3|..|C-4 LF.F ....|C-3 2C.F ....|--- .... ....
 C-3|..|C-3 2C.F ....|C-3 2F.A ....|--- .... ....
....|..|C-2 2F.7 ....|C-3 2F.7 ....|--- .... ....
 C-3|..|C-4 LF.F ....|C-3 2C.F ....|--- .... ....
....|..|C-3 2F.A ....|C-3 2F.A ....|--- .... ....
....|..|C-2 2F.7 ....|C-3 2F.7 ....|--- .... ....
 C-3|..|C-4 LF.F ....|C-3 2C.F ....|--- .... ....
....|..|C-4 LF.F ....|C-3 2F.A ....|--- .... ....
 C-3|..|C-3 2C.F ....|C-3 2F.7 ....|--- .... ....
 C-3|..|C-4 LF.F ....|C-3 2C.F ....|--- .... ....
....|..|C-4 LF.F ....|C-3 2F.A ....|--- .... ....
....|..|C-2 2F.7 ....|C-3 2F.7 ....|--- .... ....
 C-3|..|C-4 AF.F ....|C-3 2C.F ....|--- .... ....
....|..|C-4 LF.F ....|C-3 2F.A ....|--- .... ....
 G-4|..|G-3 2C.F ....|C-3 2F.7 ....|--- .... ....
 C-3|..|C-4 LF.F ....|C-3 2C.F ....|--- .... ....
....|..|C-4 LF.F ....|C-3 2F.A ....|--- .... ....
....|..|C-3 2F.7 ....|C-3 2F.7 ....|--- .... ....
 C-3|..|C-5 VF.F ....|C-3 2C.F ....|--- .... ....
....|..|G-3 2F.A ....|C-3 2F.A ....|--- .... ....
....|..|C-5 VF.F ....|C-3 2F.7 ....|--- .... ....
 C-3|..|C-4 LF.F ....|C-3 2C.F ....|--- .... ....
....|..|C-2 2F.A ....|C-3 2F.A ....|--- .... ....
....|..|C-2 2F.7 ....|C-3 2F.7 ....|--- .... ....
 C-3|..|C-4 AF.F ....|C-3 2C.F ....|--- .... ....
....|..|C-4 LF.F ....|C-3 2F.A ....|--- .... ....
 F-4|..|F-3 2C.F ....|C-3 2F.7 ....|--- .... ....
 C-3|..|C-4 AF.F ....|C-3 2C.F ....|--- .... ....
....|..|C-4 AF.F ....|C-3 2F.A ....|--- .... ....
....|..|C-4 AF.F ....|C-3 2F.7 ....|--- .... ....
 C-3|..|C-4 LF.F ....|C-3 2C.F ....|--- .... ....
....|..|C-4 LF.F ....|C-3 2F.A ....|--- .... ....
....|..|F-3 2F.7 ....|C-3 2F.7 ....|--- .... ....
 C-3|..|C-4 LF.F ....|C-3 2C.F ....|--- .... ....
....|..|A#1 2F.A ....|C-3 2F.A ....|--- .... ....
....|..|C-2 2F.7 ....|C-3 2F.7 ....|--- .... ....
 C-3|..|C-4 AF.F ....|C-3 2C.F ....|--- .... ....
 D#4|..|D#3 2C.F ....|C-3 2F.A ....|--- .... ....
....|..|A#1 2F.7 ....|C-3 2F.7 ....|--- .... ....
 C-3|..|C-4 LF.F ....|C-3 2C.F ....|--- .... ....
....|..|C-4 LF.F ....|C-3 2F.A ....|--- .... ....
....|..|C-2 2F.7 ....|C-3 2F.7 ....|--- .... ....
 C-3|..|C-5 VF.F ....|C-3 2C.F ....|--- .... ....
....|..|C-2 2F.A ....|C-3 2F.A ....|--- .... ....
....|..|C-5 VF.F ....|C-3 2F.7 ....|--- .... ....
 C-3|..|C-4 LF.F ....|C-3 2C.F ....|--- .... ....
....|..|C-2 2F.A ....|C-3 2F.A ....|--- .... ....
....|..|C-2 2F.7 ....|C-3 2F.7 ....|--- .... ....
 C-3|..|C-4 LF.F ....|C-3 2C.F ....|--- .... ....
....|..|C-2 2F.A ....|C-3 2F.A ....|--- .... ....
....|..|C-2 2F.F ....|C-3 2F.7 ....|--- .... ....
 C-3|..|C-4 LF.F ....|C-3 2C.F ....|--- .... ....
....|..|C-2 2F.A ....|C-3 2F.A ....|--- .... ....
....|..|C-2 2F.F ....|C-3 2F.7 ....|--- .... ....

[Pattern21]
 C-3|..|C-4 AF.F ....|--- .... ....|C-4 2C.F ....
....|..|C-4 AF.F ....|C-3 2F.A ....|R-- .... ....
....|..|C-2 2F.7 ....|C-3 2F.7 ....|--- .... ....
 C-3|..|C-4 LF.F ....|R-- .... ....|C-4 2C.F ....
....|..|C-2 2F.A ....|--- .... ....|C-4 2F.A ....
....|..|C-4 LF.F ....|C-3 2F.7 ....|R-- .... ....
 C-3|..|C-4 LF.F ....|R-- .... ....|C-4 2C.F ....
....|..|C-4 LF.F ....|--- .... ....|C-4 2F.A ....
....|..|C-2 2F.7 ....|--- .... ....|C-4 2F.7 ....
 C-3|..|C-4 LF.F ....|--- .... ....|C-4 2C.F ....
....|..|C-4 LF.F ....|--- .... ....|C-4 2F.A ....
....|..|C-2 2F.7 ....|--- .... ....|C-4 2F.7 ....
 C-3|..|C-5 VF.F ....|--- .... ....|C-4 2C.F ....
....|..|C-2 2F.A ....|--- .... ....|C-4 2F.A ....
....|..|C-5 VF.F ....|--- .... ....|C-4 2F.7 ....
 C-3|..|C-4 LF.F ....|--- .... ....|C-4 2C.F ....
....|..|C-2 2F.A ....|--- .... ....|C-4 2F.A ....
....|..|C-2 2F.7 ....|--- .... ....|C-4 2F.7 ....
 C-3|..|C-4 LF.F ....|--- .... ....|C-4 2C.F ....
....|..|C-2 2F.A ....|--- .... ....|C-4 2F.A ....
....|..|C-2 2F.7 ....|--- .... ....|C-4 2F.7 ....
 C-3|..|C-4 AF.F ....|--- .... ....|C-4 2C.F ....
....|..|C-2 2F.A ....|--- .... ....|C-4 2F.A ....
....|..|C-4 AF.F ....|--- .... ....|C-4 2F.7 ....
 D#4|..|C-4 LF.F ....|--- .... ....|D#4 2C.F ....
....|..|C-2 2F.A ....|--- .... ....|C-4 2F.A ....
....|..|C-2 2F.7 ....|--- .... ....|C-4 2F.7 ....
 D#4|..|C-4 LF.F ....|--- .... ....|D#4 2C.F ....
....|..|A#1 2F.A ....|--- .... ....|D#4 2F.A ....
....|..|C-4 LF.F ....|--- .... ....|C-4 2F.7 ....
 C-3|..|C-4 AF.F ....|--- .... ....|C-4 2C.F ....
....|..|C-2 2F.A ....|--- .... ....|D#4 2F.A ....
....|..|C-4 AF.F ....|--- .... ....|D#4 2F.7 ....
 C-3|..|C-4 LF.F ....|--- .... ....|C-4 2C.F ....
....|..|C-4 LF.F ....|--- .... ....|C-4 2F.A ....
....|..|C-2 2F.7 ....|--- .... ....|D#4 2F.7 ....
 C-3|..|C-5 VF.F ....|--- .... ....|C-4 2C.F ....
....|..|C-2 2F.A ....|--- .... ....|C-4 2F.A ....
....|..|C-5 VF.F ....|--- .... ....|C-4 2F.7 ....
 C-3|..|C-4 LF.F ....|--- .... ....|C-4 2C.F ....
....|..|C-2 2F.A ....|--- .... ....|C-4 2F.A ....
....|..|C-2 2F.7 ....|--- .... ....|C-4 2F.7 ....
 C-3|..|C-4 LF.F ....|--- .... ....|C-4 2C.F ....
....|..|C-2 2F.A ....|--- .... ....|C-4 2F.A ....
....|..|C-2 2F.7 ....|--- .... ....|C-4 2F.7 ....
 C-3|..|C-4 LF.F ....|--- .... ....|C-4 2C.F ....
....|..|C-2 2F.A ....|--- .... ....|C-4 2F.A ....
....|..|C-2 2F.7 ....|--- .... ....|C-4 2F.7 ....
 C-3|..|C-4 LF.F ....|--- .... ....|C-4 2C.F ....
....|..|C-4 LF.F ....|--- .... ....|C-4 2F.A ....
....|..|C-2 2F.7 ....|--- .... ....|C-4 2F.7 ....
 C-3|..|C-4 LF.F ....|--- .... ....|C-4 2C.F ....
....|..|C-4 LF.F ....|--- .... ....|C-4 2F.A ....
....|..|C-2 2F.7 ....|--- .... ....|C-4 2F.7 ....
 C-3|..|C-4 AF.F ....|--- .... ....|C-4 2C.F ....
....|..|C-4 AF.F ....|--- .... ....|C-4 2F.A ....
....|..|C-4 AF.F ....|--- .... ....|C-4 2F.7 ....
 C-3|..|C-4 LF.F ....|--- .... ....|C-4 2C.F ....
....|..|C-2 2F.A ....|--- .... ....|C-4 2F.A ....
....|..|C-4 LF.F ....|--- .... ....|C-4 2F.7 ....
 C-3|..|C-5 VF.F ....|--- .... ....|C-4 2C.F ....
....|..|C-2 2F.A ....|--- .... ....|C-4 2F.A ....
....|..|C-2 2F.7 ....|--- .... ....|C-4 2F.7 ....
 C-3|..|C-4 LF.F ....|--- .... ....|C-4 2C.F ....
....|..|C-2 2F.A ....|--- .... ....|C-4 2F.A ....
....|..|C-2 2F.7 ....|--- .... ....|C-4 2F.7 ....
 C-3|..|C-4 LF.F ....|--- .... ....|C-4 2C.F ....
....|..|C-2 2F.A ....|--- .... ....|C-4 2F.A ....
....|..|C-2 2F.7 ....|--- .... ....|C-4 2F.7 ....
 C-3|..|C-4 AF.F ....|--- .... ....|C-4 2C.F ....
....|..|C-2 2F.A ....|--- .... ....|C-4 2F.A ....
....|..|C-4 AF.F ....|--- .... ....|C-4 2F.7 ....
 D#4|..|C-4 LF.F ....|--- .... ....|D#4 2C.F ....
....|..|C-2 2F.A ....|--- .... ....|C-4 2F.A ....
....|..|C-2 2F.7 ....|--- .... ....|C-4 2F.7 ....
 D#4|..|C-4 LF.F ....|--- .... ....|D#4 2C.F ....
....|..|A#1 2F.A ....|--- .... ....|D#4 2F.A ....
....|..|C-4 LF.F ....|--- .... ....|C-4 2F.7 ....
 D#4|..|C-4 AF.F ....|--- .... ....|D#4 2C.F ....
....|..|C-2 2F.A ....|--- .... ....|D#4 2F.A ....
....|..|C-4 AF.F ....|--- .... ....|D#4 2F.7 ....
 C-3|..|C-4 LF.F ....|--- .... ....|C-4 2C.F ....
....|..|C-4 LF.F ....|--- .... ....|D#4 2F.A ....
....|..|C-2 2F.7 ....|--- .... ....|D#4 2F.7 ....
 C-3|..|C-5 VF.F ....|--- .... ....|C-4 2C.F ....
....|..|C-2 2F.A ....|--- .... ....|C-4 2F.A ....
....|..|D-2 2F.7 ....|--- .... ....|D#4 2F.7 ....
 C-3|..|C-4 LF.F ....|--- .... ....|C-4 2C.F ....
....|..|C-2 2F.A ....|--- .... ....|C-4 2F.A ....
....|..|C-2 2F.7 ....|--- .... ....|C-4 2F.7 ....
 C-3|..|C-4 LF.F ....|--- .... ....|C-4 2C.F ....
....|..|C-2 2F.A ....|--- .... ....|C-4 2F.A ....
....|..|C-2 2F.7 ....|--- .... ....|C-4 2F.7 ....
 C-3|..|C-4 AF.F ....|--- .... ....|C-4 2C.F ....
....|..|C-4 LF.F ....|--- .... ....|C-4 2F.A ....
....|..|C-2 2F.7 ....|--- .... ....|C-4 2F.7 ....

[Pattern22]
 C-3|..|C-4 AF.F ....|--- .... ....|C-4 2C.F ....
....|..|C-4 AF.F ....|--- .... ....|C-4 2F.A ....
....|..|C-2 2F.7 ....|--- .... ....|C-4 2F.7 ....
 C-3|..|C-4 LF.F ....|--- .... ....|C-4 2C.F ....
....|..|C-4 LF.F ....|--- .... ....|C-4 2F.A ....
....|..|C-2 2F.7 ....|--- .... ....|C-4 2F.7 ....
 C-3|..|C-4 LF.F ....|--- .... ....|C-4 2C.F ....
....|..|C-2 2F.A ....|--- .... ....|C-4 2F.A ....
....|..|C-2 2F.7 ....|--- .... ....|C-4 2F.7 ....
 C-3|..|C-4 LF.F ....|--- .... ....|C-4 2C.F ....
....|..|C-4 LF.F ....|--- .... ....|C-4 2F.A ....
....|..|C-2 2F.7 ....|--- .... ....|C-4 2F.7 ....
 C-3|..|C-5 VF.F ....|--- .... ....|C-4 2C.F ....
....|..|C-2 2F.A ....|--- .... ....|C-4 2F.A ....
....|..|C-5 VF.F ....|--- .... ....|C-4 2F.7 ....
 C-3|..|C-4 LF.F ....|--- .... ....|C-4 2C.F ....
....|..|C-2 2F.A ....|--- .... ....|C-4 2F.A ....
....|..|C-2 2F.7 ....|--- .... ....|C-4 2F.7 ....
 C-3|..|C-4 LF.F ....|--- .... ....|C-4 2C.F ....
....|..|C-2 2F.A ....|--- .... ....|C-4 2F.A ....
....|..|C-2 2F.7 ....|--- .... ....|C-4 2F.7 ....
 C-3|..|C-4 AF.F ....|--- .... ....|C-4 2C.F ....
....|..|C-2 2F.A ....|--- .... ....|C-4 2F.A ....
....|..|C-4 AF.F ....|--- .... ....|C-4 2F.7 ....
 D#4|..|C-4 LF.F ....|--- .... ....|D#4 2C.F ....
....|..|C-2 2F.A ....|--- .... ....|C-4 2F.A ....
....|..|C-2 2F.7 ....|--- .... ....|C-4 2F.7 ....
 D#4|..|C-4 LF.F ....|--- .... ....|D#4 2C.F ....
....|..|A#1 2F.A ....|--- .... ....|D#4 2F.A ....
....|..|C-2 2F.7 ....|--- .... ....|C-4 2F.7 ....
 C-3|..|C-4 AF.F ....|--- .... ....|C-4 2C.F ....
....|..|C-2 2F.A ....|--- .... ....|D#4 2F.A ....
....|..|A#1 2F.7 ....|--- .... ....|D#4 2F.7 ....
 C-3|..|C-4 LF.F ....|--- .... ....|C-4 2C.F ....
....|..|C-4 LF.F ....|--- .... ....|C-4 2F.A ....
....|..|C-2 2F.7 ....|--- .... ....|D#4 2F.7 ....
 C-3|..|C-5 VF.F ....|--- .... ....|C-4 2C.F ....
....|..|C-2 2F.A ....|--- .... ....|C-4 2F.A ....
....|..|C-5 VF.F ....|--- .... ....|C-4 2F.7 ....
 C-3|..|C-4 LF.F ....|--- .... ....|C-4 2C.F ....
....|..|C-2 2F.A ....|--- .... ....|C-4 2F.A ....
....|..|C-2 2F.7 ....|--- .... ....|C-4 2F.7 ....
 C-3|..|C-4 LF.F ....|--- .... ....|C-4 2C.F ....
....|..|C-2 2F.A ....|--- .... ....|C-4 2F.A ....
....|..|C-2 2F.7 ....|--- .... ....|C-4 2F.7 ....
 C-3|..|C-4 LF.F ....|--- .... ....|C-4 2C.F ....
....|..|C-2 2F.A ....|--- .... ....|C-4 2F.A ....
....|..|C-2 2F.7 ....|--- .... ....|C-4 2F.7 ....
 C-3|..|C-4 LF.F ....|--- .... ....|C-4 2C.F ....
....|..|C-4 LF.F ....|--- .... ....|C-4 2F.A ....
....|..|C-2 2F.7 ....|--- .... ....|C-4 2F.7 ....
 C-3|..|C-4 LF.F ....|--- .... ....|C-4 2C.F ....
....|..|C-4 LF.F ....|--- .... ....|C-4 2F.A ....
....|..|C-2 2F.7 ....|--- .... ....|C-4 2F.7 ....
 C-3|..|C-4 AF.F ....|--- .... ....|C-4 2C.F ....
....|..|C-4 LF.F ....|--- .... ....|C-4 2F.A ....
....|..|C-2 2F.7 ....|--- .... ....|C-4 2F.7 ....
 C-3|..|C-4 LF.F ....|--- .... ....|C-4 2C.F ....
....|..|C-4 LF.F ....|--- .... ....|C-4 2F.A ....
....|..|C-2 2F.7 ....|--- .... ....|C-4 2F.7 ....
 C-3|..|C-5 VF.F ....|--- .... ....|C-4 2C.F ....
....|..|C-2 2F.A ....|--- .... ....|C-4 2F.A ....
....|..|C-5 VF.F ....|--- .... ....|C-4 2F.7 ....
 C-3|..|C-4 LF.F ....|--- .... ....|C-4 2C.F ....
....|..|C-2 2F.A ....|--- .... ....|C-4 2F.A ....
....|..|C-2 2F.7 ....|--- .... ....|C-4 2F.7 ....
 C-3|..|C-4 AF.F ....|--- .... ....|C-4 2C.F ....
....|..|C-4 LF.F ....|--- .... ....|C-4 2F.A ....
....|..|C-2 2F.7 ....|--- .... ....|C-4 2F.7 ....
 C-3|..|C-4 AF.F ....|--- .... ....|C-4 2C.F ....
....|..|C-2 2F.A ....|--- .... ....|C-4 2F.A ....
....|..|C-4 AF.F ....|--- .... ....|C-4 2F.7 ....
 D#4|..|C-4 LF.F ....|--- .... ....|D#4 2C.F ....
....|..|C-2 2F.A ....|--- .... ....|C-4 2F.A ....
....|..|C-2 2F.7 ....|--- .... ....|C-4 2F.7 ....
 D#4|..|C-4 LF.F ....|--- .... ....|D#4 2C.F ....
....|..|A#1 2F.A ....|--- .... ....|D#4 2F.A ....
....|..|C-2 2F.7 ....|--- .... ....|C-4 2F.7 ....
 C-3|..|C-4 AF.F ....|--- .... ....|C-4 2C.F ....
....|..|C-2 2F.A ....|--- .... ....|D#4 2F.A ....
....|..|A#1 2F.7 ....|--- .... ....|D#4 2F.7 ....
 C-3|..|C-4 LF.F ....|--- .... ....|C-4 2C.F ....
....|..|C-4 LF.F ....|--- .... ....|C-4 2F.A ....
....|..|C-2 2F.7 ....|--- .... ....|D#4 2F.7 ....
 C-3|..|C-5 VF.F ....|--- .... ....|C-4 2C.F ....
....|..|C-2 2F.A ....|--- .... ....|C-4 2F.A ....
....|..|C-5 VF.F ....|--- .... ....|C-4 2F.7 ....
 C-3|..|C-4 LF.F ....|--- .... ....|C-4 2C.F ....
....|..|C-2 2F.A ....|--- .... ....|C-4 2F.A ....
....|..|C-2 2F.7 ....|--- .... ....|C-4 2F.7 ....
 C-3|..|C-4 LF.F ....|--- .... ....|C-4 2C.F ....
....|..|C-2 2F.A ....|--- .... ....|C-4 2F.A ....
....|..|C-2 2F.7 ....|--- .... ....|C-4 2F.7 ....
 C-3|..|C-4 LF.F ....|--- .... ....|C-4 2C.F ....
....|..|C-2 2F.A ....|--- .... ....|C-4 2F.A ....
....|..|C-2 2F.7 ....|--- .... ....|C-4 2F.7 ....

[Pattern23]
 G-4|..|C-4 AF.F ....|G-4 2C.F ....|G-4 2F.F ....
 C-3|..|C-4 AF.F ....|--- .F.. ....|C-4 2C.F ....
....|..|C-2 2F.7 ....|--- .... ....|C-4 2F.A ....
 C-3|..|C-4 LF.F ....|--- .... ....|C-4 2C.F ....
....|..|C-2 2F.A ....|G-4 2F.A ....|G-4 2F.A ....
....|..|C-4 LF.F ....|--- .... ....|C-4 2F.A ....
 C-3|..|C-4 LF.F ....|--- .... ....|C-4 2C.F ....
....|..|C-4 LF.F ....|--- .... ....|C-4 2F.A ....
....|..|C-2 2F.7 ....|G-4 2F.7 ....|G-4 2F.7 ....
 C-3|..|C-4 LF.F ....|--- .... ....|C-4 2C.F ....
....|..|C-4 LF.F ....|--- .... ....|C-4 2F.A ....
....|..|C-2 2F.7 ....|--- .... ....|C-4 2F.7 ....
 C-3|..|C-5 VF.F ....|--- .... ....|C-4 2C.F ....
....|..|C-2 2F.A ....|--- .... ....|C-4 2F.A ....
....|..|C-5 VF.F ....|--- .... ....|C-4 2F.7 ....
 C-3|..|C-4 LF.F ....|--- .... ....|C-4 2C.F ....
....|..|C-2 2F.A ....|--- .... ....|C-4 2F.A ....
....|..|C-2 2F.7 ....|--- .... ....|C-4 2F.7 ....
 C-3|..|C-4 LF.F ....|--- .... ....|C-4 2C.F ....
....|..|C-2 2F.A ....|--- .... ....|C-4 2F.A ....
....|..|C-2 2F.7 ....|--- .... ....|C-4 2F.7 ....
 C-3|..|C-4 AF.F ....|--- .... ....|C-4 2C.F ....
....|..|C-2 2F.A ....|--- .... ....|C-4 2F.A ....
....|..|C-4 AF.F ....|--- .... ....|C-4 2F.7 ....
 C-3|..|C-4 LF.F ....|--- .... ....|C-4 2C.F ....
....|..|C-2 2F.A ....|--- .... ....|C-4 2F.A ....
....|..|C-2 2F.7 ....|--- .... ....|C-4 2F.7 ....
 C-3|..|C-4 LF.F ....|--- .... ....|C-4 2C.F ....
....|..|C-2 2F.A ....|--- .... ....|C-4 2F.A ....
....|..|C-4 LF.F ....|--- .... ....|C-4 2F.7 ....
 C-3|..|C-4 AF.F ....|--- .... ....|C-4 2C.F ....
....|..|C-2 2F.A ....|--- .... ....|C-4 2F.A ....
....|..|C-4 AF.F ....|--- .... ....|C-4 2F.7 ....
 C-3|..|C-4 LF.F ....|--- .... ....|C-4 2C.F ....
....|..|C-4 LF.F ....|--- .... ....|C-4 2F.A ....
....|..|C-2 2F.7 ....|--- .... ....|C-4 2F.7 ....
 A#3|..|C-5 VF.F ....|A#4 2C.F ....|C-4 2F.F ....
 A#3|..|C-2 2F.A ....|A#4 2C.F ....|C-4 2F.A ....
....|..|C-5 VF.F ....|--- .... ....|C-4 2F.7 ....
 C-3|..|C-4 LF.F ....|--- .F.. ....|C-4 2C.F ....
....|..|C-2 2F.A ....|A#4 2F.A ....|C-4 2F.A ....
....|..|C-2 2F.7 ....|A#4 2F.A ....|C-4 2F.7 ....
 C-3|..|C-4 LF.F ....|--- .... ....|C-4 2C.F ....
....|..|C-2 2F.A ....|--- .... ....|C-4 2F.A ....
....|..|C-2 2F.7 ....|A#4 2F.7 ....|C-4 2F.7 ....
 C-3|..|C-4 LF.F ....|A#4 2F.7 ....|C-4 2C.F ....
....|..|C-2 2F.A ....|--- .... ....|C-4 2F.A ....
....|..|C-2 2F.7 ....|--- .... ....|C-4 2F.7 ....
 A#3|..|C-4 AF.F ....|A#4 2C.F ....|G-4 2F.F ....
 D#4|..|C-4 AF.F ....|D#4 2C.F ....|A#3 2F.F ....
....|..|C-4 AF.F ....|--- .... ....|D#4 2F.F ....
 A#3|..|C-4 LF.F ....|--- .F.. ....|A#3 2C.F ....
....|..|C-4 LF.F ....|A#4 2F.A ....|G-4 2F.A ....
....|..|C-2 2F.7 ....|D#4 2F.A ....|C-4 2F.7 ....
 A#3|..|C-4 LF.F ....|--- .... ....|A#3 2C.F ....
....|..|C-4 LF.F ....|--- .... ....|A#3 2F.A ....
....|..|C-2 2F.7 ....|A#4 2F.7 ....|G-4 2F.7 ....
 A#3|..|C-4 LF.F ....|D#4 2F.7 ....|A#3 2C.F ....
....|..|A#1 2F.A ....|--- .... ....|A#3 2F.A ....
....|..|C-4 LF.F ....|--- .... ....|A#3 2F.7 ....
 A#3|..|C-5 VF.F ....|--- .... ....|A#3 2C.F ....
....|..|A#1 2F.A ....|--- .... ....|A#3 2F.A ....
....|..|A#1 2F.7 ....|--- .... ....|A#3 2F.7 ....
 A#3|..|C-4 LF.F ....|--- .... ....|A#3 2C.F ....
....|..|A#1 2F.A ....|--- .... ....|A#3 2F.A ....
....|..|A#1 2F.7 ....|--- .... ....|A#3 2F.7 ....
 A#3|..|C-4 LF.F ....|--- .... ....|A#3 2C.F ....
....|..|A#1 2F.A ....|--- .... ....|A#3 2F.A ....
....|..|A#1 2F.7 ....|--- .... ....|A#3 2F.7 ....
 A#3|..|C-4 AF.F ....|--- .... ....|A#3 2C.F ....
....|..|A#1 2F.A ....|--- .... ....|A#3 2F.A ....
....|..|C-4 AF.F ....|--- .... ....|A#3 2F.7 ....
 A#3|..|C-4 LF.F ....|--- .... ....|A#3 2C.F ....
....|..|A#1 2F.A ....|--- .... ....|A#3 2F.A ....
....|..|A#1 2F.7 ....|--- .... ....|A#3 2F.7 ....
 A#3|..|C-4 LF.F ....|--- .... ....|A#3 2C.F ....
....|..|A#1 2F.A ....|--- .... ....|A#3 2F.A ....
....|..|C-4 LF.F ....|--- .... ....|A#3 2F.7 ....
 A#3|..|C-4 AF.F ....|--- .... ....|A#3 2C.F ....
....|..|A#1 2F.A ....|--- .... ....|A#3 2F.A ....
....|..|C-4 AF.F ....|--- .... ....|A#3 2F.7 ....
 A#3|..|C-4 LF.F ....|--- .... ....|A#3 2C.F ....
....|..|C-4 LF.F ....|--- .... ....|A#3 2F.A ....
....|..|A#1 2F.7 ....|--- .... ....|A#3 2F.7 ....
 G-4|..|C-5 VF.F ....|G-4 2C.F ....|A#3 2F.F ....
....|..|A#1 2F.A ....|--- .... ....|A#3 2F.A ....
....|..|A#1 2F.7 ....|--- .... ....|A#3 2F.7 ....
 A#3|..|C-4 LF.F ....|--- .F.. ....|A#3 2C.F ....
....|..|A#1 2F.A ....|G-4 2F.A ....|A#3 2F.A ....
....|..|A#1 2F.7 ....|--- .... ....|A#3 2F.7 ....
 A#3|..|C-4 LF.F ....|--- .... ....|A#3 2C.F ....
....|..|A#1 2F.A ....|--- .... ....|A#3 2F.A ....
....|..|A#1 2F.7 ....|G-4 2F.7 ....|A#3 2F.7 ....
 A#3|..|C-4 AF.F ....|--- .... ....|A#3 2C.F ....
....|..|C-4 LF.F ....|--- .... ....|A#3 2F.A ....
....|..|A#1 2F.7 ....|--- .... ....|A#3 2F.7 ....

[Pattern24]
 C-3|..|C-4 AF.F ....|C-4 2C.F ....|D#4 2F.F ....
....|..|C-4 AF.F ....|--- .... ....|C-4 2F.F ....
 G#4|..|A#1 2F.7 ....|--- .F.. ....|G#3 2C.F ....
 G#4|..|C-4 LF.F ....|--- .... ....|G#3 2C.F ....
....|..|C-4 LF.F ....|C-4 2F.A ....|D#4 2F.A ....
....|..|A#1 2F.7 ....|--- .... ....|C-4 2F.A ....
 G#4|..|C-4 LF.F ....|--- .... ....|G#3 2C.F ....
....|..|G#1 2F.A ....|--- .... ....|G#3 2F.A ....
....|..|A#1 2F.7 ....|C-4 2F.7 ....|D#4 2F.7 ....
 G#4|..|C-4 LF.F ....|--- .... ....|G#3 2C.F ....
....|..|C-4 LF.F ....|--- .... ....|G#3 2F.A ....
....|..|G#1 2F.7 ....|--- .... ....|G#3 2F.7 ....
 G#4|..|C-5 VF.F ....|--- .... ....|G#3 2C.F ....
....|..|G#1 2F.A ....|--- .... ....|G#3 2F.A ....
....|..|C-5 VF.F ....|--- .... ....|G#3 2F.7 ....
 G#4|..|C-4 LF.F ....|--- .... ....|G#3 2C.F ....
....|..|G#1 2F.A ....|--- .... ....|G#3 2F.A ....
....|..|G#1 2F.7 ....|--- .... ....|G#3 2F.7 ....
 G#4|..|C-4 LF.F ....|--- .... ....|G#3 2C.F ....
....|..|G#1 2F.A ....|--- .... ....|G#3 2F.A ....
....|..|G#1 2F.7 ....|--- .... ....|G#3 2F.7 ....
 G#4|..|C-4 AF.F ....|--- .... ....|G#3 2C.F ....
....|..|G#1 2F.A ....|--- .... ....|G#3 2F.A ....
....|..|C-4 AF.F ....|--- .... ....|G#3 2F.7 ....
 G#4|..|C-4 LF.F ....|--- .... ....|G#3 2C.F ....
....|..|G#1 2F.A ....|--- .... ....|G#3 2F.A ....
....|..|G#1 2F.7 ....|--- .... ....|G#3 2F.7 ....
 G#4|..|C-4 LF.F ....|--- .... ....|G#3 2C.F ....
....|..|G#1 2F.A ....|--- .... ....|G#3 2F.A ....
....|..|G#1 2F.7 ....|--- .... ....|G#3 2F.7 ....
 G#4|..|C-4 AF.F ....|--- .... ....|G#3 2C.F ....
....|..|G#1 2F.A ....|--- .... ....|G#3 2F.A ....
....|..|G#1 2F.7 ....|--- .... ....|G#3 2F.7 ....
 G#4|..|C-4 LF.F ....|--- .... ....|G#3 2C.F ....
....|..|C-4 LF.F ....|--- .... ....|G#3 2F.A ....
....|..|G#1 2F.7 ....|--- .... ....|G#3 2F.7 ....
 D#4|..|C-5 VF.F ....|D#4 2C.F ....|G#3 2F.F ....
....|..|G#1 2F.A ....|--- .... ....|G#3 2F.A ....
....|..|C-5 VF.F ....|--- .... ....|G#3 2F.7 ....
 G#4|..|C-4 LF.F ....|--- .F.. ....|G#3 2C.F ....
....|..|G#1 2F.A ....|D#4 2F.A ....|G#3 2F.A ....
....|..|G#1 2F.7 ....|--- .... ....|G#3 2F.7 ....
 G#4|..|C-4 LF.F ....|--- .... ....|G#3 2C.F ....
....|..|G#1 2F.A ....|--- .... ....|G#3 2F.A ....
....|..|G#1 2F.7 ....|D#4 2F.7 ....|G#3 2F.7 ....
 G#4|..|C-4 LF.F ....|--- .... ....|G#3 2C.F ....
....|..|G#1 2F.A ....|--- .... ....|G#3 2F.A ....
....|..|G#1 2F.7 ....|--- .... ....|G#3 2F.7 ....
 G#4|..|C-4 AF.F ....|G#3 2C.F ....|G#3 2C.F ....
....|..|C-4 LF.F ....|--- .... ....|G#3 2F.A ....
....|..|G#1 2F.7 ....|--- .... ....|G#3 2F.7 ....
 G#4|..|C-4 LF.F ....|--- .... ....|G#3 2C.F ....
....|..|C-4 LF.F ....|G#3 2F.A ....|G#3 2F.A ....
....|..|G#1 2F.7 ....|--- .... ....|G#3 2F.7 ....
 G#4|..|C-4 LF.F ....|--- .... ....|G#3 2C.F ....
....|..|C-4 LF.F ....|--- .... ....|G#3 2F.A ....
....|..|G#1 2F.7 ....|G#3 2F.7 ....|G#3 2F.7 ....
 G#4|..|C-4 LF.F ....|--- .... ....|G#3 2C.F ....
....|..|C-4 LF.F ....|--- .... ....|G#3 2F.A ....
....|..|G#1 2F.7 ....|--- .... ....|G#3 2F.7 ....
 G#4|..|C-5 VF.F ....|--- .... ....|G#3 2C.F ....
....|..|G#1 2F.A ....|--- .... ....|G#3 2F.A ....
....|..|C-5 VF.F ....|--- .... ....|G#3 2F.7 ....
 G#4|..|C-4 LF.F ....|--- .... ....|G#3 2C.F ....
....|..|G#1 2F.A ....|--- .... ....|G#3 2F.A ....
....|..|G#1 2F.7 ....|--- .... ....|G#3 2F.7 ....
 G#4|..|C-4 LF.F ....|G#3 2C.F ....|G#3 2C.F ....
 G-4|..|G#1 2F.A ....|G-3 2C.F ....|G#3 2F.A ....
....|..|G#1 2F.7 ....|--- .... ....|G#3 2F.7 ....
 G#4|..|C-4 AF.F ....|--- .F.. ....|G#3 2C.F ....
....|..|G#1 2F.A ....|G#3 2F.A ....|G#3 2F.A ....
....|..|C-4 AF.F ....|G-3 2F.A ....|G#3 2F.7 ....
 G#4|..|C-4 LF.F ....|--- .... ....|G#3 2C.F ....
....|..|G#1 2F.A ....|--- .... ....|G#3 2F.A ....
....|..|G#1 2F.7 ....|G#3 2F.7 ....|G#3 2F.7 ....
 G#4|..|C-4 LF.F ....|G-3 2F.7 ....|G#3 2C.F ....
....|..|G#1 2F.A ....|--- .... ....|G#3 2F.A ....
....|..|G#1 2F.7 ....|--- .... ....|G#3 2F.7 ....
 A#3|..|C-4 AF.F ....|--- .... ....|A#3 2C.F ....
....|..|A#1 2F.A ....|--- .... ....|G#3 2F.A ....
....|..|G#1 2F.7 ....|--- .... ....|G#3 2F.7 ....
 A#3|..|C-4 LF.F ....|--- .... ....|A#3 2C.F ....
....|..|C-4 LF.F ....|--- .... ....|A#3 2F.A ....
....|..|A#1 2F.7 ....|--- .... ....|G#3 2F.7 ....
 A#3|..|C-5 VF.F ....|--- .... ....|A#3 2C.F ....
....|..|A#1 2F.A ....|--- .... ....|A#3 2F.A ....
....|..|C-5 VF.F ....|--- .... ....|A#3 2F.7 ....
 A#3|..|C-4 LF.F ....|--- .... ....|A#3 2C.F ....
....|..|A#1 2F.A ....|--- .... ....|A#3 2F.A ....
....|..|A#1 2F.7 ....|--- .... ....|A#3 2F.7 ....
 A#3|..|C-4 LF.F ....|--- .... ....|A#3 2C.F ....
....|..|A#1 2F.A ....|--- .... ....|A#3 2F.A ....
....|..|A#1 2F.7 ....|--- .... ....|A#3 2F.7 ....
 A#3|..|C-4 LF.F ....|--- .... ....|A#3 2C.F ....
....|..|A#1 2F.A ....|R-- .... ....|A#3 2F.A ....
....|..|A#1 2F.7 ....|--- .... ....|A#3 2F.7 ....

[Pattern25]
 G-4|..|C-4 AF.F ....|G-4 2C.F ....|G-4 2F.F ....
....|..|C-4 AF.F ....|--- .... ....|G-4 2F.F ....
 C-3|..|A#1 2F.7 ....|R-- .... ....|C-4 2C.F ....
 C-3|..|C-4 LF.F ....|--- .... ....|C-4 2C.F ....
....|..|A#1 2F.A ....|G-4 2F.A ....|G-4 2F.A ....
....|..|C-4 LF.F ....|--- .... ....|G-4 2F.A ....
 C-3|..|C-4 LF.F ....|R-- .... ....|C-4 2C.F ....
....|..|C-4 LF.F ....|--- .... ....|C-4 2F.A ....
....|..|A#1 2F.7 ....|G-4 2F.7 ....|G-4 2F.7 ....
 C-3|..|C-4 LF.F ....|--- .... ....|C-4 2C.F ....
....|..|C-4 LF.F ....|--- .... ....|C-4 2F.A ....
....|..|C-2 2F.7 ....|--- .... ....|C-4 2F.7 ....
 C-3|..|C-5 VF.F ....|--- .... ....|C-4 2C.F ....
....|..|C-2 2F.A ....|--- .... ....|C-4 2F.A ....
....|..|C-5 VF.F ....|--- .... ....|C-4 2F.7 ....
 C-3|..|C-4 LF.F ....|--- .... ....|C-4 2C.F ....
....|..|C-2 2F.A ....|--- .... ....|C-4 2F.A ....
....|..|C-2 2F.7 ....|--- .... ....|C-4 2F.7 ....
 C-3|..|C-4 LF.F ....|--- .... ....|C-4 2C.F ....
....|..|C-2 2F.A ....|--- .... ....|C-4 2F.A ....
....|..|C-2 2F.7 ....|--- .... ....|C-4 2F.7 ....
 C-3|..|C-4 AF.F ....|--- .... ....|C-4 2C.F ....
....|..|C-2 2F.A ....|--- .... ....|C-4 2F.A ....
....|..|C-4 AF.F ....|--- .... ....|C-4 2F.7 ....
 C-3|..|C-4 LF.F ....|--- .... ....|C-4 2C.F ....
....|..|C-2 2F.A ....|--- .... ....|C-4 2F.A ....
....|..|C-2 2F.7 ....|--- .... ....|C-4 2F.7 ....
 C-3|..|C-4 LF.F ....|--- .... ....|C-4 2C.F ....
....|..|C-2 2F.A ....|--- .... ....|C-4 2F.A ....
....|..|C-4 LF.F ....|--- .... ....|C-4 2F.7 ....
 C-3|..|C-4 AF.F ....|--- .... ....|C-4 2C.F ....
....|..|C-2 2F.A ....|--- .... ....|C-4 2F.A ....
....|..|C-4 AF.F ....|--- .... ....|C-4 2F.7 ....
 C-3|..|C-4 LF.F ....|--- .... ....|C-4 2C.F ....
....|..|C-4 LF.F ....|--- .... ....|C-4 2F.A ....
....|..|C-2 2F.7 ....|--- .... ....|C-4 2F.7 ....
 A#3|..|C-5 VF.F ....|A#4 2C.F ....|C-4 2F.F ....
....|..|C-2 2F.A ....|--- .... ....|C-4 2F.A ....
....|..|C-5 VF.F ....|--- .... ....|C-4 2F.7 ....
 C-3|..|C-4 LF.F ....|--- .F.. ....|C-4 2C.F ....
....|..|C-2 2F.A ....|A#4 2F.A ....|C-4 2F.A ....
....|..|C-2 2F.7 ....|--- .... ....|C-4 2F.7 ....
 C-3|..|C-4 LF.F ....|--- .... ....|C-4 2C.F ....
....|..|C-2 2F.A ....|--- .... ....|C-4 2F.A ....
....|..|C-2 2F.7 ....|A#4 2F.7 ....|C-4 2F.7 ....
 C-3|..|C-4 LF.F ....|--- .... ....|C-4 2C.F ....
....|..|C-2 2F.A ....|--- .... ....|C-4 2F.A ....
....|..|C-2 2F.7 ....|--- .... ....|C-4 2F.7 ....
 A#3|..|C-4 AF.F ....|A#4 2C.F ....|D#4 2F.F ....
 D#4|..|C-4 AF.F ....|D#4 2C.F ....|A#3 2F.F ....
....|..|C-4 AF.F ....|--- .... ....|C-4 2F.A ....
 A#3|..|C-4 LF.F ....|--- .F.. ....|A#3 2C.F ....
....|..|C-4 LF.F ....|A#4 2F.A ....|D#4 2F.A ....
....|..|C-2 2F.7 ....|D#4 2F.A ....|A#3 2F.A ....
 A#3|..|C-4 LF.F ....|--- .... ....|A#3 2C.F ....
....|..|C-4 LF.F ....|--- .... ....|A#3 2F.A ....
....|..|C-2 2F.7 ....|A#4 2F.7 ....|D#4 2F.7 ....
 A#3|..|C-4 LF.F ....|D#4 2F.7 ....|A#3 2C.F ....
....|..|A#1 2F.A ....|--- .... ....|A#3 2F.A ....
....|..|C-4 LF.F ....|--- .... ....|A#3 2F.7 ....
 A#3|..|C-5 VF.F ....|--- .... ....|A#3 2C.F ....
....|..|A#1 2F.A ....|--- .... ....|A#3 2F.A ....
....|..|A#1 2F.7 ....|--- .... ....|A#3 2F.7 ....
 A#3|..|C-4 LF.F ....|--- .... ....|A#3 2C.F ....
....|..|A#1 2F.A ....|--- .... ....|A#3 2F.A ....
....|..|A#1 2F.7 ....|--- .... ....|A#3 2F.7 ....
 A#3|..|C-4 LF.F ....|--- .... ....|A#3 2C.F ....
....|..|A#1 2F.A ....|--- .... ....|A#3 2F.A ....
....|..|A#1 2F.7 ....|--- .... ....|A#3 2F.7 ....
 A#3|..|C-4 AF.F ....|--- .... ....|A#3 2C.F ....
....|..|A#1 2F.A ....|--- .... ....|A#3 2F.A ....
....|..|C-4 AF.F ....|--- .... ....|A#3 2F.7 ....
 A#3|..|C-4 LF.F ....|--- .... ....|A#3 2C.F ....
....|..|A#1 2F.A ....|--- .... ....|A#3 2F.A ....
....|..|A#1 2F.7 ....|--- .... ....|A#3 2F.7 ....
 A#3|..|C-4 LF.F ....|--- .... ....|A#3 2C.F ....
....|..|A#1 2F.A ....|--- .... ....|A#3 2F.A ....
....|..|C-4 LF.F ....|--- .... ....|A#3 2F.7 ....
 A#3|..|C-4 AF.F ....|--- .... ....|A#3 2C.F ....
....|..|A#1 2F.A ....|--- .... ....|A#3 2F.A ....
....|..|C-4 AF.F ....|--- .... ....|A#3 2F.7 ....
 A#3|..|C-4 LF.F ....|--- .... ....|A#3 2C.F ....
....|..|C-4 LF.F ....|--- .... ....|A#3 2F.A ....
....|..|A#1 2F.7 ....|--- .... ....|A#3 2F.7 ....
 G-4|..|C-5 VF.F ....|G-4 2C.F ....|A#3 2F.F ....
....|..|A#1 2F.A ....|--- .... ....|A#3 2F.A ....
....|..|A#1 2F.7 ....|--- .... ....|A#3 2F.7 ....
 A#3|..|C-4 LF.F ....|--- .F.. ....|A#3 2C.F ....
....|..|A#1 2F.A ....|G-4 2F.A ....|A#3 2F.A ....
....|..|A#1 2F.7 ....|--- .... ....|A#3 2F.7 ....
 A#3|..|C-4 LF.F ....|--- .... ....|A#3 2C.F ....
....|..|A#1 2F.A ....|--- .... ....|A#3 2F.A ....
....|..|A#1 2F.7 ....|G-4 2F.7 ....|A#3 2F.7 ....
 A#3|..|C-4 AF.F ....|--- .... ....|A#3 2C.F ....
....|..|C-4 LF.F ....|--- .... ....|A#3 2F.A ....
....|..|A#1 2F.7 ....|--- .... ....|A#3 2F.7 ....

[Pattern26]
 C-3|..|C-4 AF.F ....|C-4 2C.F ....|D#4 2F.F ....
....|..|C-4 AF.F ....|--- .... ....|C-4 2F.F ....
 G#4|..|A#1 2F.7 ....|--- .F.. ....|G#3 2C.F ....
 G#4|..|C-4 LF.F ....|--- .... ....|G#3 2C.F ....
....|..|C-4 LF.F ....|C-4 2F.A ....|D#4 2F.A ....
....|..|A#1 2F.7 ....|--- .... ....|C-4 2F.A ....
 G#4|..|C-4 LF.F ....|--- .... ....|G#3 2C.F ....
....|..|G#1 2F.A ....|--- .... ....|G#3 2F.A ....
....|..|A#1 2F.7 ....|C-4 2F.7 ....|D#4 2F.7 ....
 G#4|..|C-4 LF.F ....|--- .... ....|G#3 2C.F ....
....|..|C-4 LF.F ....|--- .... ....|G#3 2F.A ....
....|..|G#1 2F.7 ....|--- .... ....|G#3 2F.7 ....
 G#4|..|C-5 VF.F ....|--- .... ....|G#3 2C.F ....
....|..|G#1 2F.A ....|--- .... ....|G#3 2F.A ....
....|..|C-5 VF.F ....|--- .... ....|G#3 2F.7 ....
 G#4|..|C-4 LF.F ....|--- .... ....|G#3 2C.F ....
....|..|G#1 2F.A ....|--- .... ....|G#3 2F.A ....
....|..|G#1 2F.7 ....|--- .... ....|G#3 2F.7 ....
 G#4|..|C-4 LF.F ....|--- .... ....|G#3 2C.F ....
....|..|G#1 2F.A ....|--- .... ....|G#3 2F.A ....
....|..|G#1 2F.7 ....|--- .... ....|G#3 2F.7 ....
 G#4|..|C-4 AF.F ....|--- .... ....|G#3 2C.F ....
....|..|G#1 2F.A ....|--- .... ....|G#3 2F.A ....
....|..|C-4 AF.F ....|--- .... ....|G#3 2F.7 ....
 G#4|..|C-4 LF.F ....|--- .... ....|G#3 2C.F ....
....|..|G#1 2F.A ....|--- .... ....|G#3 2F.A ....
....|..|G#1 2F.7 ....|--- .... ....|G#3 2F.7 ....
 G#4|..|C-4 LF.F ....|--- .... ....|G#3 2C.F ....
....|..|G#1 2F.A ....|--- .... ....|G#3 2F.A ....
....|..|G#1 2F.7 ....|--- .... ....|G#3 2F.7 ....
 G#4|..|C-4 AF.F ....|--- .... ....|G#3 2C.F ....
....|..|G#1 2F.A ....|--- .... ....|G#3 2F.A ....
....|..|G#1 2F.7 ....|--- .... ....|G#3 2F.7 ....
 G#4|..|C-4 LF.F ....|--- .... ....|G#3 2C.F ....
....|..|C-4 LF.F ....|--- .... ....|G#3 2F.A ....
....|..|G#1 2F.7 ....|--- .... ....|G#3 2F.7 ....
 D#4|..|C-5 VF.F ....|D#4 2C.F ....|G#3 2F.F ....
 D#4|..|G#1 2F.A ....|D#4 2C.F ....|G#3 2F.A ....
....|..|C-5 VF.F ....|--- .... ....|G#3 2F.7 ....
 G#4|..|C-4 LF.F ....|--- .F.. ....|G#3 2C.F ....
....|..|G#1 2F.A ....|D#4 2F.A ....|G#3 2F.A ....
....|..|G#1 2F.7 ....|D#4 2F.A ....|G#3 2F.7 ....
 G#4|..|C-4 LF.F ....|--- .... ....|G#3 2C.F ....
....|..|G#1 2F.A ....|--- .... ....|G#3 2F.A ....
....|..|G#1 2F.7 ....|D#4 2F.7 ....|G#3 2F.7 ....
 G#4|..|C-4 LF.F ....|D#4 2F.7 ....|G#3 2C.F ....
....|..|G#1 2F.A ....|--- .... ....|G#3 2F.A ....
....|..|G#1 2F.7 ....|--- .... ....|G#3 2F.7 ....
 D#4|..|C-4 AF.F ....|D#4 2C.F ....|G#3 2F.F ....
 G#4|..|C-4 LF.F ....|G#3 2C.F ....|G#3 2F.A ....
....|..|G#1 2F.7 ....|--- .... ....|G#3 2F.7 ....
 G#4|..|C-4 LF.F ....|--- .... ....|G#3 2C.F ....
....|..|C-4 LF.F ....|D#4 2F.A ....|G#3 2F.A ....
....|..|G#1 2F.7 ....|G#3 2F.A ....|G#3 2F.7 ....
 G#4|..|C-4 LF.F ....|--- .... ....|G#3 2C.F ....
....|..|C-4 LF.F ....|--- .... ....|G#3 2F.A ....
....|..|G#1 2F.7 ....|D#4 2F.7 ....|G#3 2F.7 ....
 G#4|..|C-4 LF.F ....|G#3 2F.7 ....|G#3 2C.F ....
....|..|C-4 LF.F ....|--- .... ....|G#3 2F.A ....
....|..|G#1 2F.7 ....|--- .... ....|G#3 2F.7 ....
 G#4|..|C-5 VF.F ....|--- .... ....|G#3 2C.F ....
....|..|G#1 2F.A ....|--- .... ....|G#3 2F.A ....
....|..|C-5 VF.F ....|--- .... ....|G#3 2F.7 ....
 G#4|..|C-4 LF.F ....|--- .... ....|G#3 2C.F ....
....|..|G#1 2F.A ....|--- .... ....|G#3 2F.A ....
....|..|G#1 2F.7 ....|--- .... ....|G#3 2F.7 ....
 G#4|..|C-4 LF.F ....|G#3 2C.F ....|G#3 2C.F ....
 G-4|..|G#1 2F.A ....|G-3 2C.F ....|G#3 2F.A ....
....|..|G#1 2F.7 ....|--- .... ....|G#3 2F.7 ....
 G#4|..|C-4 AF.F ....|--- .F.. ....|G#3 2C.F ....
....|..|G#1 2F.A ....|G#3 2F.A ....|G#3 2F.A ....
....|..|C-4 AF.F ....|G-3 2F.A ....|G#3 2F.7 ....
 G#4|..|C-4 LF.F ....|--- .... ....|G#3 2C.F ....
....|..|G#1 2F.A ....|--- .... ....|G#3 2F.A ....
....|..|G#1 2F.7 ....|G#3 2F.7 ....|G#3 2F.7 ....
 G#4|..|C-4 LF.F ....|G-3 2F.7 ....|G#3 2C.F ....
....|..|G#1 2F.A ....|--- .... ....|G#3 2F.A ....
....|..|G#1 2F.7 ....|--- .... ....|G#3 2F.7 ....
 A#3|..|C-4 AF.F ....|R-- .... ....|A#3 2C.F ....
....|..|A#1 2F.A ....|--- .... ....|G#3 2F.A ....
....|..|G#1 2F.7 ....|--- .... ....|G#3 2F.7 ....
 A#3|..|C-4 LF.F ....|--- .... ....|A#3 2C.F ....
....|..|C-4 LF.F ....|R-- .... ....|A#3 2F.A ....
....|..|A#1 2F.7 ....|--- .... ....|G#3 2F.7 ....
 A#3|..|C-5 VF.F ....|--- .... ....|A#3 2C.F ....
 D#4|..|D#4 2C.F ....|--- .... ....|A#3 2F.A ....
....|..|C-5 VF.F ....|--- .... ....|A#3 2F.7 ....
 A#3|..|C-4 LF.F ....|--- .... ....|A#3 2C.F ....
....|..|D#4 2F.A ....|--- .... ....|A#3 2F.A ....
....|..|A#1 2F.7 ....|--- .... ....|A#3 2F.7 ....
 A#3|..|C-4 LF.F ....|--- .... ....|A#3 2C.F ....
 C-3|..|C-4 2C.F ....|--- .... ....|A#3 2F.A ....
....|..|D#4 2F.7 ....|--- .... ....|A#3 2F.7 ....
 A#3|..|C-4 LF.F ....|--- .... ....|A#3 2C.F ....
 C-3|..|C-4 2C.F ....|--- .... ....|A#3 2F.A ....
....|..|C-4 2F.A ....|--- .... ....|A#3 2F.7 ....

[Pattern27]
 A#3|..|C-4 AF.F ....|A#2 2C.F ....|R-- .... ....
....|..|C-4 AF.F ....|R-- .... ....|A#3 2F.A ....
....|..|C-4 2F.A ....|--- .... ....|A#3 2F.7 ....
 C-3|..|C-4 LF.F ....|C-3 2C.F ....|R-- .... ....
....|..|C-2 2F.A ....|A#2 2F.A ....|--- .... ....
....|..|C-4 LF.F ....|R-- .... ....|A#3 2F.7 ....
 C-3|..|C-4 LF.F ....|C-3 2C.F ....|R-- .... ....
....|..|C-4 LF.F ....|C-3 2F.A ....|--- .... ....
....|..|C-4 2F.7 ....|A#2 2F.7 ....|--- .... ....
 C-3|..|C-4 LF.F ....|C-3 2C.F ....|--- .... ....
....|..|C-4 LF.F ....|C-3 2F.A ....|--- .... ....
....|..|C-2 2F.7 ....|C-3 2F.7 ....|--- .... ....
 C-3|..|C-5 VF.F ....|C-3 2C.F ....|--- .... ....
....|..|C-2 2F.A ....|C-3 2F.A ....|--- .... ....
....|..|C-5 VF.F ....|C-3 2F.7 ....|--- .... ....
 C-3|..|C-4 LF.F ....|C-3 2C.F ....|--- .... ....
....|..|C-2 2F.A ....|C-3 2F.A ....|--- .... ....
....|..|C-2 2F.7 ....|C-3 2F.7 ....|--- .... ....
....|..|C-4 LF.F ....|--- .... ....|--- .... ....
....|..|C-2 2F.A ....|C-3 2F.A ....|--- .... ....
....|..|C-2 2F.7 ....|C-3 2F.7 ....|--- .... ....
 C-3|..|C-4 AF.F ....|C-3 2C.F ....|--- .... ....
....|..|C-2 2F.A ....|R-- .... ....|--- .... ....
....|..|C-4 AF.F ....|C-3 2F.7 ....|--- .... ....
 C-3|..|C-4 LF.F ....|C-3 2C.F ....|--- .... ....
....|..|C-2 2F.A ....|C-3 2F.A ....|--- .... ....
....|..|C-2 2F.7 ....|R-- .... ....|--- .... ....
 C-3|..|C-4 LF.F ....|C-3 2C.F ....|--- .... ....
....|..|C-2 2F.A ....|C-3 2F.A ....|--- .... ....
....|..|C-4 LF.F ....|C-3 2F.7 ....|--- .... ....
 C-3|..|C-4 AF.F ....|C-3 2C.F ....|--- .... ....
....|..|C-2 2F.A ....|C-3 2F.A ....|--- .... ....
....|..|C-4 AF.F ....|C-3 2F.7 ....|--- .... ....
 C-3|..|C-4 LF.F ....|C-3 2C.F ....|--- .... ....
....|..|C-4 LF.F ....|C-3 2F.A ....|--- .... ....
....|..|C-2 2F.7 ....|C-3 2F.7 ....|--- .... ....
 C-3|..|C-5 VF.F ....|C-3 2C.F ....|--- .... ....
....|..|C-2 2F.A ....|C-3 2F.A ....|--- .... ....
....|..|C-5 VF.F ....|C-3 2F.7 ....|--- .... ....
 C-3|..|C-4 LF.F ....|C-3 2C.F ....|--- .... ....
....|..|C-2 2F.A ....|C-3 2F.A ....|--- .... ....
....|..|C-2 2F.7 ....|C-3 2F.7 ....|--- .... ....
....|..|C-4 LF.F ....|R-- .... ....|--- .... ....
....|..|C-2 2F.A ....|C-3 2F.A ....|--- .... ....
....|..|C-2 2F.7 ....|C-3 2F.7 ....|--- .... ....
 C-3|..|C-4 LF.F ....|C-3 2C.F ....|--- .... ....
....|..|C-2 2F.A ....|R-- .... ....|--- .... ....
....|..|C-2 2F.7 ....|C-3 2F.7 ....|--- .... ....
 G#4|..|C-4 AF.F ....|G#2 2A.F ....|--- .... ....
....|..|C-4 AF.F ....|C-3 2F.A ....|--- .... ....
....|..|C-4 AF.F ....|R-- .... ....|--- .... ....
 A#3|..|C-4 LF.F ....|A#2 2C.F ....|--- .... ....
....|..|C-4 LF.F ....|G#2 2F.A ....|--- .... ....
....|..|C-2 2F.7 ....|C-3 2F.7 ....|--- .... ....
 A#3|..|C-4 LF.F ....|A#2 2C.F ....|--- .... ....
....|..|C-4 LF.F ....|A#2 2F.A ....|--- .... ....
....|..|C-2 2F.7 ....|G#2 2F.7 ....|--- .... ....
 A#3|..|C-4 LF.F ....|A#2 2C.F ....|--- .... ....
....|..|A#1 2F.A ....|A#2 2F.A ....|--- .... ....
....|..|C-4 LF.F ....|A#2 2F.7 ....|--- .... ....
 A#3|..|C-5 VF.F ....|A#2 2C.F ....|--- .... ....
....|..|A#1 2F.A ....|A#2 2F.A ....|--- .... ....
....|..|A#1 2F.7 ....|A#2 2F.7 ....|--- .... ....
 A#3|..|C-4 LF.F ....|A#2 2C.F ....|--- .... ....
....|..|A#1 2F.A ....|A#2 2F.A ....|--- .... ....
....|..|A#1 2F.7 ....|A#2 2F.7 ....|--- .... ....
....|..|C-4 LF.F ....|R-- .... ....|--- .... ....
....|..|A#1 2F.A ....|A#2 2F.A ....|--- .... ....
....|..|A#1 2F.7 ....|A#2 2F.7 ....|--- .... ....
 A#3|..|C-4 AF.F ....|A#2 2C.F ....|--- .... ....
....|..|A#1 2F.A ....|R-- .... ....|--- .... ....
....|..|C-4 AF.F ....|A#2 2F.7 ....|--- .... ....
 A#3|..|C-4 LF.F ....|A#2 2C.F ....|--- .... ....
 C-3|..|C-4 2C.F ....|A#2 2F.A ....|--- .... ....
....|..|A#1 2F.7 ....|R-- .... ....|--- .... ....
 A#3|..|C-4 LF.F ....|A#2 2C.F ....|--- .... ....
....|..|C-4 2F.A ....|A#2 2F.A ....|--- .... ....
....|..|C-4 LF.F ....|A#2 2F.7 ....|--- .... ....
 A#3|..|C-4 AF.F ....|A#2 2C.F ....|--- .... ....
 D-4|..|D-4 2C.F ....|A#2 2F.A ....|--- .... ....
....|..|C-4 AF.F ....|A#2 2F.7 ....|--- .... ....
 A#3|..|C-4 LF.F ....|A#2 2C.F ....|--- .... ....
....|..|C-4 LF.F ....|A#2 2F.A ....|--- .... ....
....|..|C-4 2F.7 ....|A#2 2F.7 ....|--- .... ....
 A#3|..|C-5 VF.F ....|A#2 2C.F ....|--- .... ....
....|..|D-4 2F.A ....|A#2 2F.A ....|--- .... ....
....|..|D-4 2F.7 ....|A#2 2F.7 ....|--- .... ....
 A#3|..|C-4 LF.F ....|A#2 2C.F ....|--- .... ....
....|..|A#1 2F.A ....|A#2 2F.A ....|--- .... ....
....|..|A#1 2F.7 ....|A#2 2F.7 ....|--- .... ....
 A#3|..|C-4 LF.F ....|A#2 2C.F ....|--- .... ....
 D#4|..|D#4 2C.F ....|A#2 2F.A ....|--- .... ....
....|..|A#1 2F.7 ....|A#2 2F.7 ....|--- .... ....
 G#4|..|C-4 AF.F ....|G#2 2A.F ....|--- .... ....
....|..|C-4 LF.F ....|A#2 2F.A ....|--- .... ....
....|..|D#4 2F.A ....|A#2 2F.7 ....|--- .... ....

[Pattern28]
 G#4|..|C-4 AF.F ....|G#2 2A.F ....|--- .... ....
....|..|C-4 AF.F ....|G#2 2F.A ....|--- .... ....
....|..|D#4 2F.7 ....|A#2 2F.7 ....|--- .... ....
 G#4|..|C-4 LF.F ....|G#2 2A.F ....|--- .... ....
....|..|C-4 LF.F ....|G#2 2F.A ....|--- .... ....
....|..|A#1 2F.7 ....|G#2 2F.7 ....|--- .... ....
 G#4|..|C-4 LF.F ....|G#2 2A.F ....|--- .... ....
 D-4|..|D-4 2C.F ....|G#2 2F.A ....|--- .... ....
....|..|A#1 2F.7 ....|G#2 2F.7 ....|--- .... ....
....|..|C-4 LF.F ....|R-- .... ....|--- .... ....
....|..|C-4 LF.F ....|G#2 2F.A ....|--- .... ....
....|..|D-4 2F.A ....|G#2 2F.7 ....|--- .... ....
 G#4|..|C-5 VF.F ....|G#2 2A.F ....|--- .... ....
....|..|G#1 2F.A ....|R-- .... ....|--- .... ....
....|..|C-5 VF.F ....|G#2 2F.7 ....|--- .... ....
 G#4|..|C-4 LF.F ....|G#2 2A.F ....|--- .... ....
....|..|G#1 2F.A ....|G#2 2F.A ....|--- .... ....
....|..|G#1 2F.7 ....|R-- .... ....|--- .... ....
....|..|C-4 LF.F ....|--- .... ....|--- .... ....
 C-3|..|C-4 2C.F ....|G#2 2F.A ....|--- .... ....
....|..|G#1 2F.7 ....|G#2 2F.7 ....|--- .... ....
 G#4|..|C-4 AF.F ....|G#2 2A.F ....|--- .... ....
....|..|C-4 2F.A ....|R-- .... ....|--- .... ....
....|..|C-4 AF.F ....|G#2 2F.7 ....|--- .... ....
 G#4|..|C-4 LF.F ....|G#2 2A.F ....|--- .... ....
....|..|G#1 2F.A ....|G#2 2F.A ....|--- .... ....
....|..|C-4 2F.7 ....|R-- .... ....|--- .... ....
 G#4|..|C-4 LF.F ....|G#2 2A.F ....|--- .... ....
....|..|G#1 2F.A ....|G#2 2F.A ....|--- .... ....
....|..|G#1 2F.7 ....|G#2 2F.7 ....|--- .... ....
 G#4|..|C-4 AF.F ....|G#2 2A.F ....|--- .... ....
 A#3|..|A#3 2C.F ....|G#2 2F.A ....|--- .... ....
....|..|G#1 2F.7 ....|G#2 2F.7 ....|--- .... ....
 G#4|..|C-4 LF.F ....|G#2 2A.F ....|--- .... ....
....|..|C-4 LF.F ....|G#2 2F.A ....|--- .... ....
....|..|A#3 2F.A ....|G#2 2F.7 ....|--- .... ....
 G#4|..|C-5 VF.F ....|G#2 2A.F ....|--- .... ....
....|..|G#1 2F.A ....|G#2 2F.A ....|--- .... ....
....|..|C-5 VF.F ....|G#2 2F.7 ....|--- .... ....
 G#4|..|C-4 LF.F ....|G#2 2A.F ....|--- .... ....
....|..|G#1 2F.A ....|G#2 2F.A ....|--- .... ....
....|..|G#1 2F.7 ....|G#2 2F.7 ....|--- .... ....
 G#4|..|C-4 LF.F ....|G#2 2A.F ....|--- .... ....
 G-4|..|G-3 2C.F ....|G#2 2F.A ....|--- .... ....
....|..|G#1 2F.7 ....|G#2 2F.7 ....|--- .... ....
 G#4|..|C-4 LF.F ....|G#2 2A.F ....|--- .... ....
....|..|G-3 2F.A ....|G#2 2F.A ....|--- .... ....
....|..|G#1 2F.7 ....|G#2 2F.7 ....|--- .... ....
 G#4|..|C-4 AF.F ....|G#2 2A.F ....|--- .... ....
....|..|C-4 LF.F ....|G#2 2F.A ....|--- .... ....
....|..|G-3 2F.7 ....|G#2 2F.7 ....|--- .... ....
 G#4|..|C-4 LF.F ....|G#2 2A.F ....|--- .... ....
....|..|C-4 LF.F ....|G#2 2F.A ....|--- .... ....
....|..|G#1 2F.7 ....|G#2 2F.7 ....|--- .... ....
 G#4|..|C-4 LF.F ....|G#2 2A.F ....|--- .... ....
....|..|C-4 LF.F ....|G#2 2F.A ....|--- .... ....
 F-4|..|F-3 2C.F ....|G#2 2F.7 ....|--- .... ....
 G#4|..|C-4 LF.F ....|G#2 2A.F ....|--- .... ....
....|..|C-4 LF.F ....|G#2 2F.A ....|--- .... ....
....|..|F-3 2F.A ....|G#2 2F.7 ....|--- .... ....
 G#4|..|C-5 VF.F ....|G#2 2A.F ....|--- .... ....
....|..|G#1 2F.A ....|G#2 2F.A ....|--- .... ....
....|..|C-5 VF.F ....|G#2 2F.7 ....|--- .... ....
 G#4|..|C-4 LF.F ....|G#2 2A.F ....|--- .... ....
....|..|G#1 2F.A ....|G#2 2F.A ....|--- .... ....
....|..|G#1 2F.7 ....|G#2 2F.7 ....|--- .... ....
 G#4|..|C-4 LF.F ....|G#2 2A.F ....|--- .... ....
....|..|G#1 2F.A ....|G#2 2F.A ....|--- .... ....
....|..|G#1 2F.F ....|G#2 2F.7 ....|--- .... ....
 G#4|..|C-4 AF.F ....|G#2 2A.F ....|--- .... ....
....|..|G#1 2F.A ....|G#2 2F.A ....|--- .... ....
....|..|C-4 AF.F ....|G#2 2F.7 ....|--- .... ....
 G#4|..|C-4 LF.F ....|G#2 2A.F ....|--- .... ....
....|..|G#1 2F.A ....|G#2 2F.A ....|--- .... ....
....|..|A#1 2F.F ....|G#2 2F.7 ....|--- .... ....
 G#4|..|C-4 LF.F ....|G#2 2A.F ....|--- .... ....
....|..|A#1 2F.A ....|G#2 2F.A ....|--- .... ....
....|..|A#1 2F.F ....|G#2 2F.7 ....|--- .... ....
 G#4|..|C-4 AF.F ....|G#2 2A.F ....|--- .... ....
 C-3|..|C-4 2C.F ....|G#2 2F.A ....|--- .... ....
....|..|G#1 2F.7 ....|G#2 2F.7 ....|--- .... ....
 A#3|..|C-4 LF.F ....|A#2 2C.F ....|--- .... ....
....|..|C-4 LF.F ....|G#2 2F.A ....|--- .... ....
 C-3|..|C-4 2C.F ....|G#2 2F.7 ....|--- .... ....
 A#3|..|C-5 VF.F ....|A#2 2C.F ....|--- .... ....
....|..|C-4 2F.A ....|A#2 2F.A ....|--- .... ....
....|..|C-5 VF.F ....|G#2 2F.7 ....|--- .... ....
 A#3|..|C-4 LF.F ....|A#2 2C.F ....|--- .... ....
....|..|C-4 2F.A ....|A#2 2F.A ....|--- .... ....
....|..|C-4 2F.7 ....|A#2 2F.7 ....|--- .... ....
 A#3|..|C-4 LF.F ....|A#2 2C.F ....|--- .... ....
....|..|D#4 2F.A ....|A#2 2F.A ....|--- .... ....
....|..|C-4 2F.7 ....|A#2 2F.7 ....|--- .... ....
 A#3|..|C-4 LF.F ....|A#2 2C.F ....|--- .... ....
....|..|C-4 2F.A ....|A#2 2F.A ....|--- .... ....
 C-3|..|C-4 2C.F ....|A#2 2F.7 ....|--- .... ....

[Pattern29]
 A#3|..|C-4 AF.F ....|A#2 2C.F ....|--- .... ....
....|..|C-4 AF.F ....|A#2 2F.A ....|--- .... ....
....|..|C-4 2F.A ....|A#2 2F.7 ....|--- .... ....
 C-3|..|C-4 LF.F ....|C-3 2C.F ....|--- .... ....
....|..|C-2 2F.A ....|A#2 2F.A ....|--- .... ....
....|..|C-4 LF.F ....|A#2 2F.7 ....|--- .... ....
 C-3|..|C-4 LF.F ....|C-3 2C.F ....|--- .... ....
....|..|C-4 LF.F ....|C-3 2F.A ....|--- .... ....
....|..|A#1 2F.7 ....|A#2 2F.7 ....|--- .... ....
 C-3|..|C-4 LF.F ....|C-3 2C.F ....|--- .... ....
....|..|C-4 LF.F ....|C-3 2F.A ....|--- .... ....
....|..|C-2 2F.7 ....|C-3 2F.7 ....|--- .... ....
 C-3|..|C-5 VF.F ....|C-3 2C.F ....|--- .... ....
....|..|C-2 2F.A ....|C-3 2F.A ....|--- .... ....
....|..|C-5 VF.F ....|C-3 2F.7 ....|--- .... ....
 C-3|..|C-4 LF.F ....|C-3 2C.F ....|--- .... ....
....|..|C-2 2F.A ....|C-3 2F.A ....|--- .... ....
....|..|C-2 2F.7 ....|C-3 2F.7 ....|--- .... ....
....|..|C-4 LF.F ....|--- .... ....|--- .... ....
....|..|C-2 2F.A ....|C-3 2F.A ....|--- .... ....
....|..|C-2 2F.7 ....|C-3 2F.7 ....|--- .... ....
 C-3|..|C-4 AF.F ....|C-3 2C.F ....|--- .... ....
....|..|C-2 2F.A ....|R-- .... ....|--- .... ....
....|..|C-4 AF.F ....|C-3 2F.7 ....|--- .... ....
 C-3|..|C-4 LF.F ....|C-3 2C.F ....|--- .... ....
....|..|C-2 2F.A ....|C-3 2F.A ....|--- .... ....
....|..|C-2 2F.7 ....|R-- .... ....|--- .... ....
 C-3|..|C-4 LF.F ....|C-3 2C.F ....|--- .... ....
....|..|C-2 2F.A ....|C-3 2F.A ....|--- .... ....
....|..|C-4 LF.F ....|C-3 2F.7 ....|--- .... ....
 C-3|..|C-4 AF.F ....|C-3 2C.F ....|--- .... ....
....|..|C-2 2F.A ....|C-3 2F.A ....|--- .... ....
....|..|C-4 AF.F ....|C-3 2F.7 ....|--- .... ....
 C-3|..|C-4 LF.F ....|C-3 2C.F ....|--- .... ....
....|..|C-4 LF.F ....|C-3 2F.A ....|--- .... ....
....|..|C-2 2F.7 ....|C-3 2F.7 ....|--- .... ....
 C-3|..|C-5 VF.F ....|C-3 2C.F ....|--- .... ....
....|..|C-2 2F.A ....|C-3 2F.A ....|--- .... ....
....|..|C-5 VF.F ....|C-3 2F.7 ....|--- .... ....
 C-3|..|C-4 LF.F ....|C-3 2C.F ....|--- .... ....
....|..|C-2 2F.A ....|C-3 2F.A ....|--- .... ....
....|..|C-2 2F.7 ....|C-3 2F.7 ....|--- .... ....
....|..|C-4 LF.F ....|R-- .... ....|--- .... ....
....|..|C-2 2F.A ....|C-3 2F.A ....|--- .... ....
....|..|C-2 2F.7 ....|C-3 2F.7 ....|--- .... ....
 C-3|..|C-4 LF.F ....|C-3 2C.F ....|--- .... ....
....|..|C-2 2F.A ....|R-- .... ....|--- .... ....
....|..|C-2 2F.7 ....|C-3 2F.7 ....|--- .... ....
 G#4|..|C-4 AF.F ....|G#2 2A.F ....|D#5 2F.F ....
....|..|C-4 AF.F ....|C-3 2F.A ....|--- .... ....
....|..|C-4 AF.F ....|R-- .... ....|--- .... ....
 A#3|..|C-4 LF.F ....|A#2 2C.F ....|--- .... ....
....|..|C-4 LF.F ....|G#2 2F.A ....|D#5 2F.A ....
....|..|C-2 2F.7 ....|C-3 2F.7 ....|--- .... ....
 A#3|..|C-4 LF.F ....|A#2 2C.F ....|--- .... ....
....|..|C-4 LF.F ....|A#2 2F.A ....|--- .... ....
....|..|C-2 2F.7 ....|G#2 2F.7 ....|D#5 2F.7 ....
 A#3|..|C-4 LF.F ....|A#2 2C.F ....|--- .... ....
....|..|A#1 2F.A ....|A#2 2F.A ....|--- .... ....
....|..|C-4 LF.F ....|A#2 2F.7 ....|--- .... ....
 A#3|..|C-5 VF.F ....|A#2 2C.F ....|--- .... ....
....|..|A#1 2F.A ....|A#2 2F.A ....|--- .... ....
....|..|A#1 2F.7 ....|A#2 2F.7 ....|--- .... ....
 A#3|..|C-4 LF.F ....|A#2 2C.F ....|--- .... ....
....|..|A#1 2F.A ....|A#2 2F.A ....|--- .... ....
....|..|A#1 2F.7 ....|A#2 2F.7 ....|--- .... ....
....|..|C-4 LF.F ....|R-- .... ....|--- .... ....
....|..|A#1 2F.A ....|A#2 2F.A ....|--- .... ....
....|..|A#1 2F.7 ....|A#2 2F.7 ....|--- .... ....
 A#3|..|C-4 AF.F ....|A#2 2C.F ....|--- .... ....
....|..|A#1 2F.A ....|R-- .... ....|--- .... ....
....|..|C-4 AF.F ....|A#2 2F.7 ....|--- .... ....
 A#3|..|C-4 LF.F ....|A#2 2C.F ....|--- .... ....
 C-3|..|C-4 2C.F ....|A#2 2F.A ....|--- .... ....
....|..|A#1 2F.7 ....|R-- .... ....|--- .... ....
 A#3|..|C-4 LF.F ....|A#2 2C.F ....|--- .... ....
....|..|C-4 2F.A ....|A#2 2F.A ....|--- .... ....
....|..|C-4 LF.F ....|A#2 2F.7 ....|--- .... ....
 A#3|..|C-4 AF.F ....|A#2 2C.F ....|--- .... ....
 D-4|..|D-4 2C.F ....|A#2 2F.A ....|--- .... ....
....|..|C-4 AF.F ....|A#2 2F.7 ....|--- .... ....
 A#3|..|C-4 LF.F ....|A#2 2C.F ....|--- .... ....
....|..|C-4 LF.F ....|A#2 2F.A ....|--- .... ....
....|..|C-4 2F.7 ....|A#2 2F.7 ....|--- .... ....
 A#3|..|C-5 VF.F ....|A#2 2C.F ....|D#5 2F.F ....
....|..|D-4 2F.A ....|A#2 2F.A ....|--- .... ....
....|..|D-4 2F.7 ....|A#2 2F.7 ....|G#4 2F.F ....
 A#3|..|C-4 LF.F ....|A#2 2C.F ....|--- .... ....
....|..|A#1 2F.A ....|A#2 2F.A ....|D#5 2F.A ....
....|..|A#1 2F.7 ....|A#2 2F.7 ....|--- .... ....
 A#3|..|C-4 LF.F ....|A#2 2C.F ....|G#4 2F.A ....
 D#4|..|D#4 2C.F ....|A#2 2F.A ....|--- .... ....
....|..|A#1 2F.7 ....|A#2 2F.7 ....|D#5 2F.7 ....
 G#4|..|C-4 AF.F ....|G#2 2A.F ....|--- .... ....
....|..|C-4 LF.F ....|A#2 2F.A ....|G#4 2F.7 ....
....|..|D#4 2F.A ....|A#2 2F.7 ....|--- .... ....

[Pattern30]
 G#4|..|C-4 AF.F ....|G#2 2A.F ....|--- .... ....
....|..|C-4 AF.F ....|G#2 2F.A ....|--- .... ....
....|..|D#4 2F.7 ....|A#2 2F.7 ....|--- .... ....
 G#4|..|C-4 LF.F ....|G#2 2A.F ....|--- .... ....
....|..|C-4 LF.F ....|G#2 2F.A ....|--- .... ....
....|..|A#1 2F.7 ....|G#2 2F.7 ....|--- .... ....
 G#4|..|C-4 LF.F ....|G#2 2A.F ....|--- .... ....
 D#4|..|D#4 2C.F ....|G#2 2F.A ....|--- .... ....
....|..|A#1 2F.7 ....|G#2 2F.7 ....|--- .... ....
....|..|C-4 LF.F ....|F-4 2F.A ....|--- .... ....
....|..|C-4 LF.F ....|G#2 2F.A ....|--- .... ....
....|..|G#1 2F.7 ....|G#2 2F.7 ....|--- .... ....
 G#4|..|C-5 VF.F ....|G#2 2A.F ....|--- .... ....
 D-4|..|D-4 2C.F ....|F-4 2F.7 ....|--- .... ....
....|..|C-5 VF.F ....|G#2 2F.7 ....|--- .... ....
 G#4|..|C-4 LF.F ....|G#2 2A.F ....|D-5 2F.F ....
....|..|D-4 2F.A ....|G#2 2F.A ....|D-5 2F.F ....
....|..|G#1 2F.7 ....|R-- .... ....|--- .... ....
....|..|C-4 LF.F ....|--- .... ....|--- .... ....
 C-3|..|C-4 2C.F ....|G#2 2F.A ....|D-5 2F.A ....
....|..|D-4 2F.7 ....|G#2 2F.7 ....|D-5 2F.A ....
 G#4|..|C-4 AF.F ....|G#2 2A.F ....|--- .... ....
....|..|C-4 2F.A ....|R-- .... ....|--- .... ....
....|..|C-4 AF.F ....|G#2 2F.7 ....|D-5 2F.7 ....
 G#4|..|C-4 LF.F ....|G#2 2A.F ....|D-5 2F.7 ....
 G-4|..|G-3 2C.F ....|G#2 2F.A ....|--- .... ....
....|..|C-4 2F.7 ....|R-- .... ....|--- .... ....
 G#4|..|C-4 LF.F ....|G#2 2A.F ....|D-5 2F.F ....
....|..|G-3 2F.A ....|G#2 2F.A ....|--- .... ....
....|..|G#1 2F.7 ....|G#2 2F.7 ....|--- .... ....
 G#4|..|C-4 AF.F ....|G#2 2A.F ....|--- .... ....
....|..|G#1 2F.A ....|G#2 2F.A ....|D-5 2F.A ....
....|..|G-3 2F.7 ....|D#4 2F.F ....|--- .... ....
 G#4|..|C-4 LF.F ....|G#2 2A.F ....|--- .... ....
....|..|C-4 LF.F ....|G#2 2F.A ....|--- .... ....
 F-4|..|F-3 2C.F ....|G#2 2F.7 ....|D-5 2F.7 ....
 G#4|..|C-5 VF.F ....|G#2 2A.F ....|--- .... ....
....|..|F-3 2F.A ....|G#2 2F.A ....|--- .... ....
....|..|C-5 VF.F ....|G#2 2F.7 ....|--- .... ....
 G#4|..|C-4 LF.F ....|G#2 2A.F ....|--- .... ....
....|..|G#1 2F.A ....|G#2 2F.A ....|--- .... ....
....|..|F-3 2F.7 ....|G#2 2F.7 ....|--- .... ....
 G#4|..|C-4 LF.F ....|G#2 2A.F ....|--- .... ....
 F-4|..|F-3 2C.F ....|G#2 2F.A ....|--- .... ....
....|..|G#1 2F.7 ....|G#2 2F.7 ....|--- .... ....
 G#4|..|C-4 LF.F ....|G#2 2A.F ....|--- .... ....
....|..|F-3 2F.A ....|G#2 2F.A ....|--- .... ....
....|..|G#1 2F.7 ....|G#2 2F.7 ....|--- .... ....
 G#4|..|C-4 AF.F ....|G#2 2A.F ....|--- .... ....
....|..|C-4 LF.F ....|G#2 2F.A ....|--- .... ....
....|..|F-3 2F.7 ....|G#2 2F.7 ....|--- .... ....
 G#4|..|C-4 LF.F ....|G#2 2A.F ....|--- .... ....
....|..|C-4 LF.F ....|G#2 2F.A ....|--- .... ....
....|..|G#1 2F.7 ....|G#2 2F.7 ....|--- .... ....
 G#4|..|C-4 LF.F ....|G#2 2A.F ....|--- .... ....
....|..|C-4 LF.F ....|G#2 2F.A ....|--- .... ....
 D#4|..|D#3 2C.F ....|G#2 2F.7 ....|G-4 2F.F ....
 G#4|..|C-4 LF.F ....|G#2 2A.F ....|--- .... ....
....|..|C-4 LF.F ....|G#2 2F.A ....|--- .... ....
....|..|D#3 2F.A ....|G#2 2F.7 ....|--- .... ....
 G#4|..|C-5 VF.F ....|G#2 2A.F ....|G-4 2F.A ....
....|..|G#1 2F.A ....|G#2 2F.A ....|--- .... ....
....|..|C-5 VF.F ....|G#2 2F.7 ....|--- .... ....
 G#4|..|C-4 LF.F ....|G#2 2A.F ....|--- .... ....
....|..|G#1 2F.A ....|G#2 2F.A ....|G-4 2F.7 ....
....|..|G#1 2F.7 ....|G#2 2F.7 ....|--- .... ....
 G#4|..|C-4 LF.F ....|G#2 2A.F ....|--- .... ....
....|..|G#1 2F.A ....|G#2 2F.A ....|--- .... ....
....|..|G#1 2F.F ....|G#2 2F.7 ....|--- .... ....
 G#4|..|C-4 AF.F ....|G#2 2A.F ....|--- .... ....
....|..|G#1 2F.A ....|G#2 2F.A ....|--- .... ....
....|..|C-4 AF.F ....|G#2 2F.7 ....|--- .... ....
 G#4|..|C-4 LF.F ....|G#2 2A.F ....|--- .... ....
....|..|G#1 2F.A ....|G#2 2F.A ....|--- .... ....
....|..|A#1 2F.F ....|G#2 2F.7 ....|--- .... ....
 G#4|..|C-4 LF.F ....|G#2 2A.F ....|--- .... ....
 C-3|..|C-4 2C.F ....|G#2 2F.A ....|--- .... ....
....|..|G#1 2F.7 ....|G#2 2F.7 ....|--- .... ....
 G#4|..|C-4 AF.F ....|G#2 2A.F ....|--- .... ....
 C-3|..|C-4 2C.F ....|G#2 2F.A ....|--- .... ....
....|..|C-4 2F.A ....|G#2 2F.7 ....|--- .... ....
 A#3|..|C-4 LF.F ....|A#2 2C.F ....|--- .... ....
....|..|C-4 LF.F ....|G#2 2F.A ....|--- .... ....
 C-3|..|C-4 2C.F ....|G#2 2F.7 ....|--- .... ....
 A#3|..|C-5 VF.F ....|A#2 2C.F ....|--- .... ....
....|..|C-4 2F.A ....|A#2 2F.A ....|--- .... ....
....|..|C-5 VF.F ....|G#2 2F.7 ....|--- .... ....
 A#3|..|C-4 LF.F ....|A#2 2C.F ....|--- .... ....
....|..|C-4 2F.A ....|A#2 2F.A ....|--- .... ....
....|..|C-4 2F.7 ....|A#2 2F.7 ....|--- .... ....
 A#3|..|C-4 LF.F ....|A#2 2C.F ....|--- .... ....
....|..|D#4 2F.A ....|A#2 2F.A ....|--- .... ....
....|..|C-4 2F.7 ....|A#2 2F.7 ....|--- .... ....
 A#3|..|C-4 LF.F ....|A#2 2C.F ....|--- .... ....
....|..|C-4 2F.A ....|A#2 2F.A ....|--- .... ....
 C-3|..|C-4 2C.F ....|A#2 2F.7 ....|--- .... ....

[Pattern31]
 A#3|..|C-4 AF.F ....|A#2 2C.F ....|--- .... ....
....|..|C-4 AF.F ....|A#2 2F.A ....|--- .... ....
....|..|C-4 2F.A ....|G-4 2F.F ....|--- .... ....
 C-3|..|C-4 LF.F ....|C-3 2C.F ....|--- .... ....
....|..|C-2 2F.A ....|A#2 2F.A ....|--- .... ....
....|..|C-4 LF.F ....|A#2 2F.7 ....|--- .... ....
 C-3|..|C-4 LF.F ....|C-3 2C.F ....|--- .... ....
....|..|C-4 LF.F ....|C-3 2F.A ....|--- .... ....
....|..|C-4 2F.7 ....|A#2 2F.7 ....|--- .... ....
 C-3|..|C-4 LF.F ....|C-3 2C.F ....|--- .... ....
....|..|C-4 LF.F ....|C-3 2F.A ....|--- .... ....
....|..|C-2 2F.7 ....|C-3 2F.7 ....|D#5 2F.F ....
 C-3|..|C-5 VF.F ....|C-3 2C.F ....|--- .... ....
....|..|C-2 2F.A ....|C-3 2F.A ....|--- .... ....
....|..|C-5 VF.F ....|C-3 2F.7 ....|--- .... ....
 C-3|..|C-4 LF.F ....|C-3 2C.F ....|D#5 2F.A ....
....|..|C-2 2F.A ....|C-3 2F.A ....|--- .... ....
....|..|C-2 2F.7 ....|C-3 2F.7 ....|--- .... ....
....|..|C-4 LF.F ....|--- .... ....|--- .... ....
....|..|C-2 2F.A ....|C-3 2F.A ....|D#5 2F.7 ....
....|..|C-2 2F.7 ....|C-3 2F.7 ....|--- .... ....
 C-3|..|C-4 AF.F ....|C-3 2C.F ....|--- .... ....
....|..|C-2 2F.A ....|R-- .... ....|--- .... ....
....|..|C-4 AF.F ....|C-3 2F.7 ....|--- .... ....
 C-3|..|C-4 LF.F ....|C-3 2C.F ....|--- .... ....
....|..|C-2 2F.A ....|C-3 2F.A ....|--- .... ....
....|..|C-2 2F.7 ....|R-- .... ....|--- .... ....
 C-3|..|C-4 LF.F ....|C-3 2C.F ....|--- .... ....
....|..|C-2 2F.A ....|C-3 2F.A ....|--- .... ....
....|..|C-4 LF.F ....|C-3 2F.7 ....|--- .... ....
 C-3|..|C-4 AF.F ....|C-3 2C.F ....|--- .... ....
....|..|C-2 2F.A ....|C-3 2F.A ....|D#5 2F.F ....
....|..|C-4 AF.F ....|C-3 2F.7 ....|--- .... ....
 C-3|..|C-4 LF.F ....|C-3 2C.F ....|--- .... ....
....|..|C-4 LF.F ....|C-3 2F.A ....|--- .... ....
....|..|C-2 2F.7 ....|C-3 2F.7 ....|D#5 2F.A ....
 C-3|..|C-5 VF.F ....|C-3 2C.F ....|--- .... ....
....|..|C-2 2F.A ....|C-3 2F.A ....|--- .... ....
....|..|C-5 VF.F ....|C-3 2F.7 ....|--- .... ....
 C-3|..|C-4 LF.F ....|C-3 2C.F ....|D#5 2F.7 ....
....|..|C-2 2F.A ....|C-3 2F.A ....|--- .... ....
....|..|C-2 2F.7 ....|C-3 2F.7 ....|--- .... ....
....|..|C-4 LF.F ....|R-- .... ....|--- .... ....
....|..|C-2 2F.A ....|C-3 2F.A ....|--- .... ....
....|..|C-2 2F.7 ....|C-3 2F.7 ....|--- .... ....
 C-3|..|C-4 LF.F ....|C-3 2C.F ....|--- .... ....
....|..|C-2 2F.A ....|R-- .... ....|--- .... ....
....|..|C-2 2F.7 ....|C-3 2F.7 ....|--- .... ....
 G#4|..|C-4 AF.F ....|G#2 2A.F ....|--- .... ....
....|..|C-4 AF.F ....|C-3 2F.A ....|--- .... ....
....|..|C-4 AF.F ....|R-- .... ....|--- .... ....
 A#3|..|C-4 LF.F ....|A#2 2C.F ....|--- .... ....
....|..|C-4 LF.F ....|G#2 2F.A ....|--- .... ....
....|..|C-2 2F.7 ....|C-3 2F.7 ....|--- .... ....
 A#3|..|C-4 LF.F ....|A#2 2C.F ....|--- .... ....
....|..|C-4 LF.F ....|A#2 2F.A ....|--- .... ....
....|..|C-2 2F.7 ....|G#2 2F.7 ....|--- .... ....
 A#3|..|C-4 LF.F ....|A#2 2C.F ....|--- .... ....
....|..|A#1 2F.A ....|A#2 2F.A ....|--- .... ....
....|..|C-4 LF.F ....|A#2 2F.7 ....|--- .... ....
 A#3|..|C-5 VF.F ....|A#2 2C.F ....|--- .... ....
....|..|A#1 2F.A ....|A#2 2F.A ....|--- .... ....
....|..|A#1 2F.7 ....|A#2 2F.7 ....|--- .... ....
 A#3|..|C-4 LF.F ....|A#2 2C.F ....|--- .... ....
....|..|A#1 2F.A ....|A#2 2F.A ....|--- .... ....
....|..|A#1 2F.7 ....|A#2 2F.7 ....|F-5 2F.F ....
....|..|C-4 LF.F ....|R-- .... ....|--- .... ....
....|..|A#1 2F.A ....|A#2 2F.A ....|--- .... ....
....|..|A#1 2F.7 ....|A#2 2F.7 ....|--- .... ....
 A#3|..|C-4 AF.F ....|A#2 2C.F ....|F-5 2F.A ....
....|..|A#1 2F.A ....|R-- .... ....|--- .... ....
....|..|C-4 AF.F ....|A#2 2F.7 ....|--- .... ....
 A#3|..|C-4 LF.F ....|A#2 2C.F ....|--- .... ....
 C-3|..|C-4 2C.F ....|A#2 2F.A ....|F-5 2F.7 ....
....|..|A#1 2F.7 ....|F-4 2F.F ....|--- .... ....
 A#3|..|C-4 LF.F ....|A#2 2C.F ....|--- .... ....
....|..|C-4 2F.A ....|A#2 2F.A ....|--- .... ....
....|..|C-4 LF.F ....|A#2 2F.7 ....|--- .... ....
 A#3|..|C-4 AF.F ....|A#2 2C.F ....|--- .... ....
 D-4|..|D-4 2C.F ....|A#2 2F.A ....|--- .... ....
....|..|C-4 AF.F ....|A#2 2F.7 ....|--- .... ....
 A#3|..|C-4 LF.F ....|A#2 2C.F ....|--- .... ....
....|..|C-4 LF.F ....|A#2 2F.A ....|F-5 2F.F ....
....|..|A#1 2F.7 ....|A#2 2F.7 ....|--- .... ....
 A#3|..|C-5 VF.F ....|A#2 2C.F ....|--- .... ....
....|..|D-4 2F.A ....|A#2 2F.A ....|--- .... ....
 C-3|..|C-4 2C.F ....|A#2 2F.7 ....|F-5 2F.A ....
 A#3|..|C-4 LF.F ....|A#2 2C.F ....|--- .... ....
....|..|C-4 2F.A ....|A#2 2F.A ....|--- .... ....
....|..|A#1 2F.7 ....|A#2 2F.7 ....|--- .... ....
 A#3|..|C-4 LF.F ....|A#2 2C.F ....|F-5 2F.7 ....
 D-4|..|D-4 2C.F ....|A#2 2F.A ....|--- .... ....
 D-4|..|D-4 2C.F ....|A#2 2F.7 ....|--- .... ....
 G#4|..|C-4 AF.F ....|G#2 2A.F ....|--- .... ....
....|..|C-4 LF.F ....|A#2 2F.A ....|--- .... ....
....|..|D-4 2F.A ....|A#2 2F.7 ....|--- .... ....

[Pattern32]
 G#4|..|C-4 AF.F ....|G#2 2A.F ....|--- .... ....
....|..|C-4 AF.F ....|G#2 2F.A ....|--- .... ....
 D#4|..|D#4 2C.F ....|A#2 2F.7 ....|--- .... ....
 G#4|..|C-4 LF.F ....|G#2 2A.F ....|--- .... ....
....|..|C-4 LF.F ....|G#2 2F.A ....|--- .... ....
....|..|D-4 2F.7 ....|G#2 2F.7 ....|--- .... ....
 G#4|..|C-4 LF.F ....|G#2 2A.F ....|--- .... ....
....|..|D#4 2F.A ....|G#2 2F.A ....|--- .... ....
....|..|D#4 2F.7 ....|G#2 2F.7 ....|--- .... ....
....|..|C-4 LF.F ....|F-4 2F.F ....|--- .... ....
....|..|C-4 LF.F ....|G#2 2F.A ....|--- .... ....
....|..|G#1 2F.7 ....|G#2 2F.7 ....|--- .... ....
 G#4|..|C-5 VF.F ....|G#2 2A.F ....|F-5 2F.F ....
 D#4|..|D#4 2C.F ....|F-4 2F.A ....|--- .... ....
....|..|C-5 VF.F ....|G#2 2F.7 ....|--- .... ....
 G#4|..|C-4 LF.F ....|G#2 2A.F ....|--- .... ....
....|..|D#4 2F.A ....|G#2 2F.A ....|F-5 2F.A ....
....|..|G#1 2F.7 ....|F-4 2F.7 ....|--- .... ....
....|..|C-4 LF.F ....|--- .... ....|--- .... ....
 D#4|..|D#4 2C.F ....|G#2 2F.A ....|--- .... ....
 D-4|..|D-4 2C.F ....|D#4 2F.F ....|F-5 2F.7 ....
 G#4|..|C-4 AF.F ....|G#2 2A.F ....|--- .... ....
....|..|D#4 2F.A ....|R-- .... ....|--- .... ....
....|..|C-4 AF.F ....|G#2 2F.7 ....|--- .... ....
 G#4|..|C-4 LF.F ....|G#2 2A.F ....|D-5 2F.F ....
 C-3|..|C-4 2C.F ....|G#2 2F.A ....|--- .... ....
....|..|D#4 2F.7 ....|D#4 2F.A ....|--- .... ....
 G#4|..|C-4 LF.F ....|G#2 2A.F ....|--- .... ....
....|..|G#1 2F.A ....|G#2 2F.A ....|D-5 2F.A ....
....|..|G#1 2F.7 ....|G#2 2F.7 ....|--- .... ....
 G#4|..|C-4 AF.F ....|G#2 2A.F ....|--- .... ....
....|..|G#1 2F.A ....|G#2 2F.A ....|--- .... ....
....|..|C-4 2F.7 ....|G#2 2F.7 ....|D-5 2F.7 ....
 G#4|..|C-4 LF.F ....|G#2 2A.F ....|--- .... ....
....|..|C-4 LF.F ....|G#2 2F.A ....|--- .... ....
....|..|G#1 2F.7 ....|G#2 2F.7 ....|--- .... ....
 G#4|..|C-5 VF.F ....|G#2 2A.F ....|--- .... ....
 A#3|..|A#3 2C.F ....|G#2 2F.A ....|--- .... ....
....|..|C-5 VF.F ....|G#2 2F.7 ....|--- .... ....
 G#4|..|C-4 LF.F ....|G#2 2A.F ....|--- .... ....
....|..|A#3 2F.A ....|G#2 2F.A ....|--- .... ....
....|..|G#1 2F.7 ....|G#2 2F.7 ....|--- .... ....
 G#4|..|C-4 LF.F ....|G#2 2A.F ....|--- .... ....
 G-4|..|G-3 2C.F ....|G#2 2F.A ....|--- .... ....
....|..|A#3 2F.7 ....|G#2 2F.7 ....|--- .... ....
 G#4|..|C-4 LF.F ....|G#2 2A.F ....|--- .... ....
....|..|G-3 2F.A ....|G#2 2F.A ....|--- .... ....
....|..|G#1 2F.7 ....|G#2 2F.7 ....|--- .... ....
 G#4|..|C-4 AF.F ....|G#2 2A.F ....|--- .... ....
....|..|C-4 LF.F ....|G#2 2F.A ....|--- .... ....
 G-4|..|G-3 2C.F ....|G#2 2F.7 ....|--- .... ....
 G#4|..|C-4 LF.F ....|G#2 2A.F ....|--- .... ....
....|..|C-4 LF.F ....|G#2 2F.A ....|--- .... ....
....|..|F-3 2F.A ....|G#2 2F.7 ....|--- .... ....
 G#4|..|C-4 LF.F ....|G#2 2A.F ....|--- .... ....
....|..|C-4 LF.F ....|G#2 2F.A ....|--- .... ....
....|..|G-3 2F.7 ....|G#2 2F.7 ....|--- .... ....
 G#4|..|C-4 LF.F ....|G#2 2A.F ....|--- .... ....
....|..|C-4 LF.F ....|G#2 2F.A ....|--- .... ....
....|..|F-3 2F.7 ....|G#2 2F.7 ....|--- .... ....
 G#4|..|C-5 VF.F ....|G#2 2A.F ....|--- .... ....
....|..|G#1 2F.A ....|G#2 2F.A ....|--- .... ....
....|..|C-5 VF.F ....|G#2 2F.7 ....|--- .... ....
 G#4|..|C-4 LF.F ....|G#2 2A.F ....|--- .... ....
....|..|G#1 2F.A ....|G#2 2F.A ....|--- .... ....
....|..|G#1 2F.7 ....|G#2 2F.7 ....|--- .... ....
 G#4|..|C-4 LF.F ....|G#2 2A.F ....|--- .... ....
....|..|G#1 2F.A ....|G#2 2F.A ....|--- .... ....
....|..|G#1 2F.7 ....|G#2 2F.7 ....|--- .... ....
 G#4|..|C-4 AF.F ....|G#2 2A.F ....|--- .... ....
....|..|G#1 2F.A ....|G#2 2F.A ....|--- .... ....
....|..|C-4 AF.F ....|G#2 2F.7 ....|--- .... ....
 G#4|..|C-4 LF.F ....|G#2 2A.F ....|--- .... ....
....|..|G#1 2F.A ....|G#2 2F.A ....|--- .... ....
....|..|G#1 2F.7 ....|G#2 2F.7 ....|--- .... ....
 G#4|..|C-4 LF.F ....|G#2 2A.F ....|--- .... ....
 C-3|..|C-4 2C.F ....|G#2 2F.A ....|--- .... ....
....|..|G#1 2F.7 ....|G#2 2F.7 ....|--- .... ....
 G#4|..|C-4 AF.F ....|G#2 2A.F ....|--- .... ....
....|..|C-4 2F.A ....|G#2 2F.A ....|--- .... ....
....|..|G#1 2F.7 ....|G#2 2F.7 ....|--- .... ....
 A#3|..|C-4 LF.F ....|A#2 2C.F ....|--- .... ....
....|..|C-4 LF.F ....|G#2 2F.A ....|--- .... ....
 C-3|..|C-4 2C.F ....|G#2 2F.7 ....|--- .... ....
 A#3|..|C-5 VF.F ....|A#2 2C.F ....|--- .... ....
 D#4|..|D#4 2C.F ....|A#2 2F.A ....|--- .... ....
....|..|C-5 VF.F ....|G#2 2F.7 ....|R-- .... ....
 A#3|..|C-4 LF.F ....|A#2 2C.F ....|--- .... ....
 D#4|..|D#4 2C.F ....|A#2 2F.A ....|--- .... ....
....|..|D#4 2F.A ....|A#2 2F.7 ....|--- .... ....
 A#3|..|C-4 LF.F ....|A#2 2C.F ....|R-- .... ....
....|..|D#4 2F.A ....|A#2 2F.A ....|--- .... ....
....|..|D#4 2F.7 ....|A#2 2F.7 ....|--- .... ....
 A#3|..|C-4 LF.F ....|A#2 2C.F ....|--- .... ....
 C-3|..|C-4 2C.F ....|A#2 2F.A ....|R-- .... ....
....|..|D#4 2F.7 ....|A#2 2F.7 ....|--- .... ....

[Pattern33]
 A#3|..|C-4 AF.F ....|A#2 2C.F ....|--- .... ....
....|..|C-4 AF.F ....|A#2 2F.A ....|--- .... ....
....|..|C-4 2F.A ....|A#2 2F.7 ....|--- .... ....
 C-3|..|C-4 LF.F ....|C-3 2C.F ....|--- .... ....
....|..|A#1 2F.A ....|A#2 2F.A ....|--- .... ....
....|..|C-4 LF.F ....|A#2 2F.7 ....|--- .... ....
 C-3|..|C-4 LF.F ....|C-3 2C.F ....|--- .... ....
....|..|C-4 LF.F ....|C-3 2F.A ....|--- .... ....
....|..|A#1 2F.7 ....|A#2 2F.7 ....|--- .... ....
 C-3|..|C-4 LF.F ....|C-3 2C.F ....|--- .... ....
....|..|C-4 LF.F ....|C-3 2F.A ....|--- .... ....
....|..|C-2 2F.7 ....|C-3 2F.7 ....|--- .... ....
 C-3|..|C-5 VF.F ....|C-3 2C.F ....|G-3 2F.F ....
....|..|C-2 2F.A ....|C-3 2F.A ....|--- .... ....
....|..|C-5 VF.F ....|C-3 2F.7 ....|--- .... ....
 C-3|..|C-4 LF.F ....|C-3 2C.F ....|--- .... ....
....|..|C-2 2F.A ....|C-3 2F.A ....|G-3 2F.A ....
....|..|C-2 2F.7 ....|C-3 2F.7 ....|--- .... ....
....|..|C-4 LF.F ....|--- .... ....|D#4 2F.F ....
....|..|C-2 2F.A ....|C-3 2F.A ....|D#4 2F.F ....
....|..|C-2 2F.7 ....|C-3 2F.7 ....|G-3 2F.7 ....
 C-3|..|C-4 AF.F ....|C-3 2C.F ....|--- .... ....
....|..|C-2 2F.A ....|R-- .... ....|D#4 2F.A ....
....|..|C-4 AF.F ....|C-3 2F.7 ....|D#4 2F.A ....
 C-3|..|C-4 LF.F ....|C-3 2C.F ....|--- .... ....
....|..|C-2 2F.A ....|C-3 2F.A ....|--- .... ....
....|..|C-2 2F.7 ....|R-- .... ....|D#4 2F.7 ....
 C-3|..|C-4 LF.F ....|C-3 2C.F ....|D#4 2F.7 ....
....|..|C-2 2F.A ....|C-3 2F.A ....|--- .... ....
....|..|C-4 LF.F ....|C-3 2F.7 ....|--- .... ....
 C-3|..|C-4 AF.F ....|C-3 2C.F ....|--- .... ....
....|..|C-2 2F.A ....|C-3 2F.A ....|--- .... ....
....|..|C-4 AF.F ....|C-3 2F.7 ....|--- .... ....
 C-3|..|C-4 LF.F ....|C-3 2C.F ....|--- .... ....
....|..|C-4 LF.F ....|C-3 2F.A ....|--- .... ....
....|..|C-2 2F.7 ....|C-3 2F.7 ....|--- .... ....
 C-3|..|C-5 VF.F ....|C-3 2C.F ....|--- .... ....
....|..|C-2 2F.A ....|C-3 2F.A ....|--- .... ....
....|..|C-5 VF.F ....|C-3 2F.7 ....|--- .... ....
 C-3|..|C-4 LF.F ....|C-3 2C.F ....|--- .... ....
....|..|C-2 2F.A ....|C-3 2F.A ....|--- .... ....
....|..|C-2 2F.7 ....|C-3 2F.7 ....|--- .... ....
....|..|C-4 LF.F ....|R-- .... ....|--- .... ....
....|..|C-2 2F.A ....|C-3 2F.A ....|--- .... ....
....|..|C-2 2F.7 ....|C-3 2F.7 ....|--- .... ....
 C-3|..|C-4 LF.F ....|C-3 2C.F ....|--- .... ....
....|..|C-2 2F.A ....|R-- .... ....|--- .... ....
....|..|C-2 2F.7 ....|C-3 2F.7 ....|R-- .... ....
 G#4|..|C-4 AF.F ....|G#2 2A.F ....|G-3 2F.F ....
....|..|C-4 AF.F ....|C-3 2F.A ....|--- .... ....
....|..|C-4 AF.F ....|R-- .... ....|--- .... ....
 A#3|..|C-4 LF.F ....|A#2 2C.F ....|R-- .... ....
....|..|C-4 LF.F ....|G#2 2F.A ....|G-3 2F.A ....
....|..|C-2 2F.7 ....|C-3 2F.7 ....|--- .... ....
 A#3|..|C-4 LF.F ....|A#2 2C.F ....|D-4 2F.F ....
....|..|C-4 LF.F ....|A#2 2F.A ....|R-- .... ....
....|..|C-2 2F.7 ....|G#2 2F.7 ....|D-4 2F.F ....
 A#3|..|C-4 LF.F ....|A#2 2C.F ....|--- .... ....
....|..|A#1 2F.A ....|A#2 2F.A ....|D-4 2F.A ....
....|..|C-4 LF.F ....|A#2 2F.7 ....|--- .... ....
 A#3|..|C-5 VF.F ....|A#2 2C.F ....|D-4 2F.A ....
....|..|A#1 2F.A ....|A#2 2F.A ....|--- .... ....
....|..|A#1 2F.7 ....|A#2 2F.7 ....|D-4 2F.7 ....
 A#3|..|C-4 LF.F ....|A#2 2C.F ....|--- .... ....
....|..|A#1 2F.A ....|A#2 2F.A ....|D-4 2F.7 ....
....|..|A#1 2F.7 ....|A#2 2F.7 ....|--- .... ....
....|..|C-4 LF.F ....|R-- .... ....|--- .... ....
....|..|A#1 2F.A ....|A#2 2F.A ....|--- .... ....
....|..|A#1 2F.7 ....|A#2 2F.7 ....|--- .... ....
 A#3|..|C-4 AF.F ....|A#2 2C.F ....|--- .... ....
....|..|A#1 2F.A ....|R-- .... ....|--- .... ....
....|..|C-4 AF.F ....|A#2 2F.7 ....|--- .... ....
 A#3|..|C-4 LF.F ....|A#2 2C.F ....|--- .... ....
....|..|A#1 2F.A ....|A#2 2F.A ....|--- .... ....
....|..|A#1 2F.7 ....|R-- .... ....|--- .... ....
 A#3|..|C-4 LF.F ....|A#2 2C.F ....|--- .... ....
....|..|A#1 2F.A ....|A#2 2F.A ....|--- .... ....
....|..|C-4 LF.F ....|A#2 2F.7 ....|--- .... ....
 A#3|..|C-4 AF.F ....|A#2 2C.F ....|--- .... ....
....|..|A#1 2F.A ....|A#2 2F.A ....|--- .... ....
....|..|C-4 AF.F ....|A#2 2F.7 ....|--- .... ....
 A#3|..|C-4 LF.F ....|A#2 2C.F ....|--- .... ....
....|..|C-4 LF.F ....|A#2 2F.A ....|--- .... ....
....|..|A#1 2F.7 ....|A#2 2F.7 ....|--- .... ....
 A#3|..|C-5 VF.F ....|A#2 2C.F ....|--- .... ....
....|..|A#1 2F.A ....|A#2 2F.A ....|--- .... ....
....|..|A#1 2F.7 ....|A#2 2F.7 ....|--- .... ....
 A#3|..|C-4 LF.F ....|A#2 2C.F ....|--- .... ....
....|..|A#1 2F.A ....|A#2 2F.A ....|--- .... ....
....|..|A#1 2F.7 ....|A#2 2F.7 ....|--- .... ....
 A#3|..|C-4 LF.F ....|A#2 2C.F ....|--- .... ....
....|..|A#1 2F.A ....|A#2 2F.A ....|--- .... ....
....|..|A#1 2F.7 ....|A#2 2F.7 ....|--- .... ....
 G#4|..|C-4 AF.F ....|G#2 2A.F ....|R-- .... ....
....|..|C-4 LF.F ....|A#2 2F.A ....|--- .... ....
....|..|A#1 2F.7 ....|A#2 2F.7 ....|--- .... ....

[Pattern34]
 G#4|..|C-4 AF.F ....|G#2 2A.F ....|C-4 2F.F ....
....|..|C-4 AF.F ....|G#2 2F.A ....|R-- .... ....
 D#4|..|D#4 2C.F ....|A#2 2F.7 ....|--- .... ....
 G#4|..|C-4 LF.F ....|G#2 2A.F ....|--- .... ....
....|..|C-4 LF.F ....|G#2 2F.A ....|C-4 2F.A ....
....|..|D#4 2F.A ....|G#2 2F.7 ....|R-- .... ....
 G#4|..|C-4 LF.F ....|G#2 2A.F ....|--- .... ....
....|..|G#1 2F.A ....|G#2 2F.A ....|--- .... ....
....|..|D#4 2F.7 ....|G#2 2F.7 ....|C-4 2F.7 ....
....|..|C-4 LF.F ....|R-- .... ....|--- .... ....
....|..|C-4 LF.F ....|G#2 2F.A ....|--- .... ....
....|..|G#1 2F.7 ....|G#2 2F.7 ....|--- .... ....
 G#4|..|C-5 VF.F ....|G#2 2A.F ....|--- .... ....
 D#4|..|D#4 2C.F ....|R-- .... ....|--- .... ....
....|..|C-5 VF.F ....|G#2 2F.7 ....|--- .... ....
 G#4|..|C-4 LF.F ....|G#2 2A.F ....|--- .... ....
....|..|D#4 2F.A ....|G#2 2F.A ....|--- .... ....
....|..|G#1 2F.7 ....|R-- .... ....|--- .... ....
....|..|C-4 LF.F ....|--- .... ....|--- .... ....
 F-4|..|F-4 2C.F ....|G#2 2F.A ....|--- .... ....
 F-4|..|F-4 2C.F ....|G#2 2F.7 ....|--- .... ....
 G#4|..|C-4 AF.F ....|G#2 2A.F ....|--- .... ....
....|..|F-4 2F.A ....|R-- .... ....|--- .... ....
....|..|C-4 AF.F ....|G#2 2F.7 ....|--- .... ....
 G#4|..|C-4 LF.F ....|G#2 2A.F ....|--- .... ....
 C-3|..|C-4 2C.F ....|G#2 2F.A ....|--- .... ....
 F-4|..|F-4 2C.F ....|R-- .... ....|--- .... ....
 G#4|..|C-4 LF.F ....|G#2 2A.F ....|--- .... ....
....|..|F-4 2F.A ....|G#2 2F.A ....|--- .... ....
....|..|C-4 2F.A ....|G#2 2F.7 ....|--- .... ....
 G#4|..|C-4 AF.F ....|G#2 2A.F ....|--- .... ....
 D-4|..|D-4 2C.F ....|G#2 2F.A ....|--- .... ....
 D-4|..|D-4 2C.F ....|G#2 2F.7 ....|--- .... ....
 G#4|..|C-4 LF.F ....|G#2 2A.F ....|--- .... ....
....|..|C-4 LF.F ....|G#2 2F.A ....|--- .... ....
....|..|C-4 2F.7 ....|G#2 2F.7 ....|--- .... ....
 G#4|..|C-5 VF.F ....|G#2 2A.F ....|--- .... ....
....|..|D-4 2F.A ....|G#2 2F.A ....|--- .... ....
....|..|C-5 VF.F ....|G#2 2F.7 ....|--- .... ....
 G#4|..|C-4 LF.F ....|G#2 2A.F ....|--- .... ....
....|..|G#1 2F.A ....|G#2 2F.A ....|--- .... ....
....|..|D-4 2F.7 ....|G#2 2F.7 ....|--- .... ....
 G#4|..|C-4 LF.F ....|G#2 2A.F ....|--- .... ....
 D#4|..|D#4 2C.F ....|G#2 2F.A ....|--- .... ....
....|..|G#1 2F.7 ....|G#2 2F.7 ....|--- .... ....
 G#4|..|C-4 LF.F ....|G#2 2A.F ....|--- .... ....
....|..|D#4 2F.A ....|G#2 2F.A ....|--- .... ....
....|..|G#1 2F.7 ....|G#2 2F.7 ....|--- .... ....
 G#4|..|C-4 AF.F ....|G#2 2A.F ....|--- .... ....
....|..|C-4 LF.F ....|G#2 2F.A ....|R-- .... ....
....|..|D#4 2F.7 ....|G#2 2F.7 ....|--- .... ....
 G#4|..|C-4 LF.F ....|G#2 2A.F ....|--- .... ....
....|..|C-4 LF.F ....|G#2 2F.A ....|--- .... ....
....|..|G#1 2F.7 ....|G#2 2F.7 ....|R-- .... ....
 G#4|..|C-4 LF.F ....|G#2 2A.F ....|--- .... ....
....|..|C-4 LF.F ....|G#2 2F.A ....|--- .... ....
....|..|G#1 2F.7 ....|G#2 2F.7 ....|--- .... ....
 G#4|..|C-4 LF.F ....|G#2 2A.F ....|R-- .... ....
....|..|C-4 LF.F ....|G#2 2F.A ....|--- .... ....
....|..|G#1 2F.7 ....|G#2 2F.7 ....|--- .... ....
 G#4|..|C-5 VF.F ....|G#2 2A.F ....|--- .... ....
....|..|G#1 2F.A ....|G#2 2F.A ....|--- .... ....
....|..|C-5 VF.F ....|G#2 2F.7 ....|--- .... ....
 G#4|..|C-4 LF.F ....|G#2 2A.F ....|--- .... ....
....|..|G#1 2F.A ....|G#2 2F.A ....|--- .... ....
....|..|G#1 2F.7 ....|G#2 2F.7 ....|--- .... ....
 G#4|..|C-4 LF.F ....|G#2 2A.F ....|--- .... ....
....|..|G#1 2F.A ....|G#2 2F.A ....|--- .... ....
....|..|G#1 2F.7 ....|G#2 2F.7 ....|--- .... ....
 G#4|..|C-4 AF.F ....|G#2 2A.F ....|--- .... ....
....|..|G#1 2F.A ....|G#2 2F.A ....|--- .... ....
....|..|C-4 AF.F ....|G#2 2F.7 ....|--- .... ....
 G#4|..|C-4 LF.F ....|G#2 2A.F ....|--- .... ....
....|..|G#1 2F.A ....|G#2 2F.A ....|--- .... ....
....|..|G#1 2F.7 ....|G#2 2F.7 ....|--- .... ....
 G#4|..|C-4 LF.F ....|G#2 2A.F ....|--- .... ....
....|..|G#1 2F.A ....|G#2 2F.A ....|--- .... ....
....|..|G#1 2F.7 ....|G#2 2F.7 ....|--- .... ....
 G#4|..|C-4 AF.F ....|G#2 2A.F ....|--- .... ....
 G-4|..|G-3 2C.F ....|G#2 2F.A ....|--- .... ....
....|..|G#1 2F.7 ....|G#2 2F.7 ....|--- .... ....
 A#3|..|C-4 LF.F ....|A#2 2C.F ....|--- .... ....
....|..|C-4 LF.F ....|G#2 2F.A ....|--- .... ....
....|..|G-3 2F.A ....|G#2 2F.7 ....|--- .... ....
 A#3|..|C-5 VF.F ....|A#2 2C.F ....|--- .... ....
 F-4|..|F-3 2C.F ....|A#2 2F.A ....|--- .... ....
....|..|C-5 VF.F ....|G#2 2F.7 ....|--- .... ....
 A#3|..|C-4 LF.F ....|A#2 2C.F ....|--- .... ....
....|..|F-3 2F.A ....|A#2 2F.A ....|--- .... ....
....|..|A#1 2F.7 ....|A#2 2F.7 ....|--- .... ....
 A#3|..|C-4 LF.F ....|A#2 2C.F ....|--- .... ....
 D#4|..|D#3 2C.F ....|A#2 2F.A ....|--- .... ....
....|..|F-3 2F.7 ....|A#2 2F.7 ....|--- .... ....
 A#3|..|C-4 LF.F ....|A#2 2C.F ....|--- .... ....
 F-4|..|F-3 2C.F ....|A#2 2F.A ....|--- .... ....
....|..|D#3 2F.A ....|A#2 2F.7 ....|--- .... ....

[Pattern35]
....|..|C-4 AF.F ....|--- .... ....|--- .... ....
....|..|C-4 AF.F ....|A#2 2F.A ....|--- .... ....
....|..|F-3 2F.A ....|A#2 2F.7 ....|--- .... ....
....|..|C-4 LF.F ....|R-- .... ....|--- .... ....
....|..|C-2 2F.A ....|--- .... ....|--- .... ....
....|..|C-4 LF.F ....|A#2 2F.7 ....|--- .... ....
....|..|C-4 LF.F ....|R-- .... ....|--- .... ....
....|..|C-4 LF.F ....|--- .... ....|--- .... ....
....|..|F-3 2F.7 ....|--- .... ....|--- .... ....
....|..|C-4 LF.F ....|--- .... ....|--- .... ....
....|..|C-4 LF.F ....|--- .... ....|--- .... ....
....|..|G-3 2F.A ....|--- .... ....|--- .... ....
....|..|C-5 VF.F ....|--- .... ....|--- .... ....
....|..|C-2 2F.A ....|--- .... ....|--- .... ....
....|..|C-5 VF.F ....|--- .... ....|--- .... ....
....|..|C-4 LF.F ....|--- .... ....|--- .... ....
....|..|C-2 2F.A ....|--- .... ....|--- .... ....
....|..|C-2 2F.7 ....|--- .... ....|--- .... ....
....|..|C-4 LF.F ....|--- .... ....|--- .... ....
....|..|C-2 2F.A ....|--- .... ....|--- .... ....
....|..|C-2 2F.7 ....|--- .... ....|--- .... ....
....|..|C-4 AF.F ....|--- .... ....|--- .... ....
....|..|C-2 2F.A ....|--- .... ....|--- .... ....
....|..|C-4 AF.F ....|--- .... ....|--- .... ....
....|..|C-4 LF.F ....|--- .... ....|--- .... ....
....|..|C-2 2F.A ....|--- .... ....|--- .... ....
....|..|C-2 2F.7 ....|--- .... ....|--- .... ....
....|..|C-4 LF.F ....|--- .... ....|--- .... ....
....|..|A#1 2F.A ....|--- .... ....|--- .... ....
....|..|C-4 LF.F ....|--- .... ....|--- .... ....
....|..|C-4 AF.F ....|--- .... ....|--- .... ....
 G-4|..|G-3 2C.F ....|--- .... ....|--- .... ....
....|..|C-4 AF.F ....|--- .... ....|--- .... ....
....|..|C-4 LF.F ....|--- .... ....|--- .... ....
....|..|C-4 LF.F ....|--- .... ....|--- .... ....
....|..|G-3 2F.A ....|--- .... ....|--- .... ....
....|..|C-5 VF.F ....|--- .... ....|--- .... ....
 F-4|..|F-3 2C.F ....|--- .... ....|--- .... ....
....|..|C-5 VF.F ....|--- .... ....|--- .... ....
....|..|C-4 LF.F ....|--- .... ....|--- .... ....
....|..|F-3 2F.A ....|--- .... ....|--- .... ....
....|..|C-2 2F.7 ....|--- .... ....|--- .... ....
....|..|C-4 LF.F ....|--- .... ....|--- .... ....
 D#4|..|D#3 2C.F ....|--- .... ....|--- .... ....
....|..|F-3 2F.7 ....|--- .... ....|--- .... ....
....|..|C-4 LF.F ....|--- .... ....|--- .... ....
 F-4|..|F-3 2C.F ....|--- .... ....|--- .... ....
....|..|D#3 2F.A ....|--- .... ....|--- .... ....
....|..|C-4 AF.F ....|--- .... ....|--- .... ....
....|..|C-4 AF.F ....|--- .... ....|--- .... ....
....|..|C-4 AF.F ....|--- .... ....|--- .... ....
....|..|C-4 LF.F ....|--- .... ....|--- .... ....
....|..|C-4 LF.F ....|--- .... ....|--- .... ....
....|..|D#3 2F.7 ....|--- .... ....|--- .... ....
....|..|C-4 LF.F ....|--- .... ....|--- .... ....
....|..|C-4 LF.F ....|--- .... ....|--- .... ....
....|..|C-2 2F.7 ....|--- .... ....|--- .... ....
....|..|C-4 LF.F ....|--- .... ....|--- .... ....
....|..|C-3 2F.A ....|--- .... ....|--- .... ....
....|..|C-4 LF.F ....|--- .... ....|--- .... ....
....|..|C-5 VF.F ....|--- .... ....|--- .... ....
....|..|C-2 2F.A ....|--- .... ....|--- .... ....
....|..|C-3 2F.7 ....|--- .... ....|--- .... ....
....|..|C-4 LF.F ....|--- .... ....|--- .... ....
....|..|C-2 2F.A ....|--- .... ....|--- .... ....
....|..|C-2 2F.7 ....|--- .... ....|--- .... ....
....|..|C-4 LF.F ....|--- .... ....|--- .... ....
....|..|C-2 2F.A ....|--- .... ....|--- .... ....
....|..|C-2 2F.7 ....|--- .... ....|--- .... ....
....|..|C-4 AF.F ....|--- .... ....|--- .... ....
....|..|C-2 2F.A ....|--- .... ....|--- .... ....
....|..|C-4 AF.F ....|--- .... ....|--- .... ....
....|..|C-4 LF.F ....|--- .... ....|--- .... ....
....|..|C-2 2F.A ....|--- .... ....|--- .... ....
....|..|C-4 LF.F ....|--- .... ....|--- .... ....
....|..|C-4 LF.F ....|--- .... ....|--- .... ....
....|..|A#1 2F.A ....|--- .... ....|--- .... ....
....|..|C-4 LF.F ....|--- .... ....|--- .... ....
....|..|C-4 AF.F ....|--- .... ....|--- .... ....
 G-4|..|G-3 2C.F ....|--- .... ....|--- .... ....
....|..|C-4 AF.F ....|--- .... ....|--- .... ....
....|..|C-4 LF.F ....|--- .... ....|--- .... ....
....|..|C-4 LF.F ....|--- .... ....|--- .... ....
....|..|G-3 2F.A ....|--- .... ....|--- .... ....
....|..|C-5 VF.F ....|--- .... ....|--- .... ....
 F-4|..|F-3 2C.F ....|--- .... ....|--- .... ....
....|..|C-4 LF.F ....|--- .... ....|--- .... ....
....|..|C-4 LF.F ....|--- .... ....|--- .... ....
....|..|F-3 2F.A ....|--- .... ....|--- .... ....
....|..|C-2 2F.7 ....|--- .... ....|--- .... ....
....|..|C-4 LF.F ....|--- .... ....|--- .... ....
 D#4|..|D#3 2C.F ....|--- .... ....|--- .... ....
....|..|F-3 2F.7 ....|--- .... ....|--- .... ....
....|..|C-4 AF.F ....|--- .... ....|--- .... ....
....|..|C-4 LF.F ....|--- .... ....|--- .... ....
 F-4|..|F-3 2C.F ....|--- .... ....|--- .... ....

[Pattern36]
....|..|C-4 AF.F ....|--- .... ....|--- .... ....
....|..|C-4 AF.F ....|--- .... ....|--- .... ....
....|..|F-3 2F.A ....|--- .... ....|--- .... ....
....|..|C-4 LF.F ....|--- .... ....|--- .... ....
....|..|C-4 LF.F ....|--- .... ....|--- .... ....
....|..|D#3 2F.7 ....|--- .... ....|--- .... ....
....|..|C-4 LF.F ....|--- .... ....|--- .... ....
....|..|C-2 2F.A ....|--- .... ....|--- .... ....
 C-3|..|C-3 2C.F ....|--- .... ....|--- .... ....
....|..|C-4 LF.F ....|--- .... ....|--- .... ....
....|..|C-4 LF.F ....|--- .... ....|--- .... ....
....|..|C-3 2F.A ....|--- .... ....|--- .... ....
....|..|C-5 VF.F ....|--- .... ....|--- .... ....
....|..|C-2 2F.A ....|--- .... ....|--- .... ....
....|..|C-5 VF.F ....|--- .... ....|--- .... ....
....|..|C-4 LF.F ....|--- .... ....|--- .... ....
....|..|C-2 2F.A ....|--- .... ....|--- .... ....
....|..|C-2 2F.7 ....|--- .... ....|--- .... ....
....|..|C-4 LF.F ....|--- .... ....|--- .... ....
....|..|C-4 LF.F ....|--- .... ....|--- .... ....
....|..|C-2 2F.7 ....|--- .... ....|--- .... ....
....|..|C-4 AF.F ....|--- .... ....|--- .... ....
....|..|C-2 2F.A ....|--- .... ....|--- .... ....
....|..|C-4 AF.F ....|--- .... ....|--- .... ....
....|..|C-4 LF.F ....|--- .... ....|--- .... ....
....|..|C-2 2F.A ....|--- .... ....|--- .... ....
....|..|C-2 2F.7 ....|--- .... ....|--- .... ....
....|..|C-4 LF.F ....|--- .... ....|--- .... ....
....|..|A#1 2F.A ....|--- .... ....|--- .... ....
....|..|C-2 2F.7 ....|--- .... ....|--- .... ....
....|..|C-4 AF.F ....|--- .... ....|--- .... ....
....|..|C-2 2F.A ....|--- .... ....|--- .... ....
....|..|C-4 AF.F ....|--- .... ....|--- .... ....
....|..|C-4 LF.F ....|--- .... ....|--- .... ....
....|..|C-4 LF.F ....|--- .... ....|--- .... ....
....|..|C-2 2F.7 ....|--- .... ....|--- .... ....
....|..|C-5 VF.F ....|--- .... ....|--- .... ....
....|..|C-2 2F.A ....|--- .... ....|--- .... ....
....|..|C-5 VF.F ....|--- .... ....|--- .... ....
....|..|C-4 LF.F ....|--- .... ....|--- .... ....
....|..|C-2 2F.A ....|--- .... ....|--- .... ....
....|..|C-2 2F.7 ....|--- .... ....|--- .... ....
....|..|C-4 LF.F ....|--- .... ....|--- .... ....
 C-3|..|C-3 2C.F ....|--- .... ....|--- .... ....
....|..|C-2 2F.7 ....|--- .... ....|--- .... ....
....|..|C-4 LF.F ....|--- .... ....|--- .... ....
....|..|C-3 2F.A ....|--- .... ....|--- .... ....
....|..|C-2 2F.7 ....|--- .... ....|--- .... ....
....|..|C-4 LF.F ....|--- .... ....|--- .... ....
....|..|C-4 LF.F ....|--- .... ....|--- .... ....
 C-3|..|C-3 2C.F ....|--- .... ....|--- .... ....
....|..|C-4 LF.F ....|--- .... ....|--- .... ....
....|..|C-4 LF.F ....|--- .... ....|--- .... ....
....|..|C-2 2F.7 ....|--- .... ....|--- .... ....
....|..|C-4 AF.F ....|--- .... ....|--- .... ....
....|..|C-4 LF.F ....|--- .... ....|--- .... ....
 G-4|..|G-3 2C.F ....|--- .... ....|--- .... ....
....|..|C-4 LF.F ....|--- .... ....|--- .... ....
....|..|C-4 LF.F ....|--- .... ....|--- .... ....
....|..|C-3 2F.7 ....|--- .... ....|--- .... ....
....|..|C-5 VF.F ....|--- .... ....|--- .... ....
....|..|G-3 2F.A ....|--- .... ....|--- .... ....
....|..|C-5 VF.F ....|--- .... ....|--- .... ....
....|..|C-4 LF.F ....|--- .... ....|--- .... ....
....|..|C-2 2F.A ....|--- .... ....|--- .... ....
....|..|C-2 2F.7 ....|--- .... ....|--- .... ....
....|..|C-4 LF.F ....|--- .... ....|--- .... ....
 F-4|..|F-3 2C.F ....|--- .... ....|--- .... ....
....|..|C-2 2F.7 ....|--- .... ....|--- .... ....
....|..|C-4 AF.F ....|--- .... ....|--- .... ....
....|..|C-4 AF.F ....|--- .... ....|--- .... ....
....|..|C-4 AF.F ....|--- .... ....|--- .... ....
....|..|C-4 LF.F ....|--- .... ....|--- .... ....
....|..|C-4 LF.F ....|--- .... ....|--- .... ....
....|..|F-3 2F.7 ....|--- .... ....|--- .... ....
....|..|C-4 LF.F ....|--- .... ....|--- .... ....
 F-4|..|F-3 2C.F ....|--- .... ....|--- .... ....
 D#4|..|D#3 2C.F ....|--- .... ....|--- .... ....
....|..|C-4 AF.F ....|--- .... ....|--- .... ....
 G-4|..|G-3 2C.F ....|--- .... ....|--- .... ....
....|..|F-3 2F.A ....|--- .... ....|--- .... ....
....|..|C-4 LF.F ....|--- .... ....|--- .... ....
....|..|C-4 LF.F ....|--- .... ....|--- .... ....
....|..|D#3 2F.A ....|--- .... ....|--- .... ....
....|..|C-5 VF.F ....|--- .... ....|--- .... ....
....|..|G-3 2F.A ....|--- .... ....|--- .... ....
....|..|C-5 VF.F ....|--- .... ....|--- .... ....
....|..|C-4 LF.F ....|--- .... ....|--- .... ....
....|..|F-3 2F.A ....|--- .... ....|--- .... ....
....|..|C-2 2F.7 ....|--- .... ....|--- .... ....
....|..|C-4 LF.F ....|--- .... ....|--- .... ....
 D#4|..|D#3 2C.F ....|--- .... ....|--- .... ....
....|..|F-3 2F.7 ....|--- .... ....|--- .... ....
....|..|C-4 LF.F ....|--- .... ....|--- .... ....
 F-4|..|F-3 2C.F ....|--- .... ....|--- .... ....
....|..|D#3 2F.A ....|--- .... ....|--- .... ....

[Pattern37]
....|..|C-4 AF.F ....|--- .... ....|--- .... ....
....|..|C-4 AF.F ....|--- .... ....|--- .... ....
....|..|F-3 2F.A ....|--- .... ....|--- .... ....
....|..|C-4 LF.F ....|--- .... ....|--- .... ....
....|..|C-2 2F.A ....|--- .... ....|--- .... ....
....|..|C-4 LF.F ....|--- .... ....|--- .... ....
....|..|C-4 LF.F ....|--- .... ....|--- .... ....
....|..|C-4 LF.F ....|--- .... ....|--- .... ....
....|..|F-3 2F.7 ....|--- .... ....|--- .... ....
....|..|C-4 LF.F ....|--- .... ....|--- .... ....
....|..|C-4 LF.F ....|--- .... ....|--- .... ....
....|..|G-3 2F.A ....|--- .... ....|--- .... ....
....|..|C-5 VF.F ....|--- .... ....|--- .... ....
....|..|C-2 2F.A ....|--- .... ....|--- .... ....
....|..|C-5 VF.F ....|--- .... ....|--- .... ....
....|..|C-4 LF.F ....|--- .... ....|--- .... ....
....|..|C-2 2F.A ....|--- .... ....|--- .... ....
....|..|C-2 2F.7 ....|--- .... ....|--- .... ....
....|..|C-4 LF.F ....|--- .... ....|--- .... ....
....|..|C-4 LF.F ....|--- .... ....|--- .... ....
....|..|C-2 2F.7 ....|--- .... ....|--- .... ....
....|..|C-4 AF.F ....|--- .... ....|--- .... ....
....|..|C-2 2F.A ....|--- .... ....|--- .... ....
....|..|C-4 AF.F ....|--- .... ....|--- .... ....
....|..|C-4 LF.F ....|--- .... ....|--- .... ....
....|..|C-2 2F.A ....|--- .... ....|--- .... ....
....|..|C-2 2F.7 ....|--- .... ....|--- .... ....
....|..|C-4 LF.F ....|--- .... ....|--- .... ....
....|..|A#1 2F.A ....|--- .... ....|--- .... ....
....|..|C-4 LF.F ....|--- .... ....|--- .... ....
....|..|C-4 AF.F ....|--- .... ....|--- .... ....
 G-4|..|G-3 2C.F ....|--- .... ....|--- .... ....
....|..|C-4 AF.F ....|--- .... ....|--- .... ....
....|..|C-4 LF.F ....|--- .... ....|--- .... ....
....|..|C-4 LF.F ....|--- .... ....|--- .... ....
....|..|G-3 2F.A ....|--- .... ....|--- .... ....
....|..|C-5 VF.F ....|--- .... ....|--- .... ....
 F-4|..|F-3 2C.F ....|--- .... ....|--- .... ....
....|..|C-5 VF.F ....|--- .... ....|--- .... ....
....|..|C-4 LF.F ....|--- .... ....|--- .... ....
....|..|F-3 2F.A ....|--- .... ....|--- .... ....
....|..|C-2 2F.7 ....|--- .... ....|--- .... ....
....|..|C-4 LF.F ....|--- .... ....|--- .... ....
 D#4|..|D#3 2C.F ....|--- .... ....|--- .... ....
....|..|F-3 2F.7 ....|--- .... ....|--- .... ....
....|..|C-4 LF.F ....|--- .... ....|--- .... ....
 F-4|..|F-3 2C.F ....|--- .... ....|--- .... ....
....|..|D#3 2F.A ....|--- .... ....|--- .... ....
....|..|C-4 LF.F ....|--- .... ....|--- .... ....
....|..|C-4 LF.F ....|--- .... ....|--- .... ....
....|..|F-3 2F.A ....|--- .... ....|--- .... ....
....|..|C-4 LF.F ....|--- .... ....|--- .... ....
....|..|C-4 LF.F ....|--- .... ....|--- .... ....
....|..|D#3 2F.7 ....|--- .... ....|--- .... ....
....|..|C-4 AF.F ....|--- .... ....|--- .... ....
....|..|C-4 AF.F ....|--- .... ....|--- .... ....
....|..|C-4 AF.F ....|--- .... ....|--- .... ....
....|..|C-4 LF.F ....|--- .... ....|--- .... ....
....|..|C-3 2F.A ....|--- .... ....|--- .... ....
....|..|C-4 LF.F ....|--- .... ....|--- .... ....
....|..|C-5 VF.F ....|--- .... ....|--- .... ....
....|..|C-2 2F.A ....|--- .... ....|--- .... ....
....|..|C-3 2F.7 ....|--- .... ....|--- .... ....
....|..|C-4 LF.F ....|--- .... ....|--- .... ....
....|..|C-2 2F.A ....|--- .... ....|--- .... ....
....|..|C-2 2F.7 ....|--- .... ....|--- .... ....
....|..|C-4 LF.F ....|--- .... ....|--- .... ....
....|..|C-2 2F.A ....|--- .... ....|--- .... ....
....|..|C-2 2F.7 ....|--- .... ....|--- .... ....
....|..|C-4 AF.F ....|--- .... ....|--- .... ....
....|..|C-2 2F.A ....|--- .... ....|--- .... ....
....|..|C-4 AF.F ....|--- .... ....|--- .... ....
....|..|C-4 LF.F ....|--- .... ....|--- .... ....
....|..|C-4 LF.F ....|--- .... ....|--- .... ....
....|..|C-2 2F.7 ....|--- .... ....|--- .... ....
....|..|C-4 LF.F ....|--- .... ....|--- .... ....
....|..|A#1 2F.A ....|--- .... ....|--- .... ....
....|..|C-4 LF.F ....|--- .... ....|--- .... ....
....|..|C-4 AF.F ....|--- .... ....|--- .... ....
 G-4|..|G-3 2C.F ....|--- .... ....|--- .... ....
....|..|C-4 AF.F ....|--- .... ....|--- .... ....
....|..|C-4 LF.F ....|--- .... ....|--- .... ....
....|..|C-4 LF.F ....|--- .... ....|--- .... ....
....|..|G-3 2F.A ....|--- .... ....|--- .... ....
....|..|C-5 VF.F ....|--- .... ....|--- .... ....
 F-4|..|F-3 2C.F ....|--- .... ....|--- .... ....
....|..|G-3 2F.7 ....|--- .... ....|--- .... ....
....|..|C-4 LF.F ....|--- .... ....|--- .... ....
....|..|F-3 2F.A ....|--- .... ....|--- .... ....
....|..|C-2 2F.7 ....|--- .... ....|--- .... ....
....|..|C-4 LF.F ....|--- .... ....|--- .... ....
 D#4|..|D#3 2C.F ....|--- .... ....|--- .... ....
....|..|F-3 2F.7 ....|--- .... ....|--- .... ....
....|..|C-4 AF.F ....|--- .... ....|--- .... ....
....|..|C-4 LF.F ....|--- .... ....|--- .... ....
 F-4|..|F-3 2C.F ....|--- .... ....|--- .... ....

[Pattern38]
....|..|C-4 AF.F ....|--- .... ....|--- .... ....
....|..|C-4 AF.F ....|--- .... ....|--- .... ....
....|..|F-3 2F.A ....|--- .... ....|--- .... ....
....|..|C-4 LF.F ....|--- .... ....|--- .... ....
....|..|C-4 LF.F ....|--- .... ....|--- .... ....
....|..|D#3 2F.7 ....|--- .... ....|--- .... ....
....|..|C-4 LF.F ....|--- .... ....|--- .... ....
....|..|C-2 2F.A ....|--- .... ....|--- .... ....
 C-3|..|C-3 2C.F ....|--- .... ....|--- .... ....
....|..|C-4 LF.F ....|--- .... ....|--- .... ....
....|..|C-4 LF.F ....|--- .... ....|--- .... ....
....|..|C-3 2F.A ....|--- .... ....|--- .... ....
....|..|C-5 VF.F ....|--- .... ....|--- .... ....
....|..|C-2 2F.A ....|--- .... ....|--- .... ....
....|..|C-5 VF.F ....|--- .... ....|--- .... ....
....|..|C-4 LF.F ....|--- .... ....|--- .... ....
....|..|C-2 2F.A ....|--- .... ....|--- .... ....
....|..|C-2 2F.7 ....|--- .... ....|--- .... ....
....|..|C-4 LF.F ....|--- .... ....|--- .... ....
....|..|C-4 LF.F ....|--- .... ....|--- .... ....
....|..|C-2 2F.7 ....|--- .... ....|--- .... ....
....|..|C-4 AF.F ....|--- .... ....|--- .... ....
....|..|C-2 2F.A ....|--- .... ....|--- .... ....
....|..|C-4 AF.F ....|--- .... ....|--- .... ....
....|..|C-4 LF.F ....|--- .... ....|--- .... ....
....|..|C-2 2F.A ....|--- .... ....|--- .... ....
....|..|C-2 2F.7 ....|--- .... ....|--- .... ....
....|..|C-4 LF.F ....|--- .... ....|--- .... ....
....|..|A#1 2F.A ....|--- .... ....|--- .... ....
....|..|C-2 2F.7 ....|--- .... ....|--- .... ....
....|..|C-4 AF.F ....|--- .... ....|--- .... ....
....|..|C-2 2F.A ....|--- .... ....|--- .... ....
....|..|C-4 AF.F ....|--- .... ....|--- .... ....
....|..|C-4 LF.F ....|--- .... ....|--- .... ....
....|..|C-4 LF.F ....|--- .... ....|--- .... ....
....|..|C-2 2F.7 ....|--- .... ....|--- .... ....
....|..|C-5 VF.F ....|--- .... ....|--- .... ....
....|..|C-2 2F.A ....|--- .... ....|--- .... ....
....|..|C-5 VF.F ....|--- .... ....|--- .... ....
....|..|C-4 LF.F ....|--- .... ....|--- .... ....
....|..|C-2 2F.A ....|--- .... ....|--- .... ....
....|..|C-2 2F.7 ....|--- .... ....|--- .... ....
....|..|C-4 LF.F ....|--- .... ....|--- .... ....
 C-3|..|C-3 2C.F ....|--- .... ....|--- .... ....
....|..|C-2 2F.7 ....|--- .... ....|--- .... ....
....|..|C-4 LF.F ....|--- .... ....|--- .... ....
....|..|C-3 2F.A ....|--- .... ....|--- .... ....
....|..|C-2 2F.7 ....|--- .... ....|--- .... ....
....|..|C-4 LF.F ....|--- .... ....|--- .... ....
....|..|C-4 LF.F ....|--- .... ....|--- .... ....
 C-3|..|C-3 2C.F ....|--- .... ....|--- .... ....
....|..|C-4 LF.F ....|--- .... ....|--- .... ....
....|..|C-4 LF.F ....|--- .... ....|--- .... ....
....|..|C-2 2F.7 ....|--- .... ....|--- .... ....
....|..|C-4 AF.F ....|--- .... ....|--- .... ....
....|..|C-4 LF.F ....|--- .... ....|--- .... ....
 G-4|..|G-3 2C.F ....|--- .... ....|--- .... ....
....|..|C-4 LF.F ....|--- .... ....|--- .... ....
....|..|C-4 LF.F ....|--- .... ....|--- .... ....
....|..|C-3 2F.7 ....|--- .... ....|--- .... ....
....|..|C-5 VF.F ....|--- .... ....|--- .... ....
....|..|G-3 2F.A ....|--- .... ....|--- .... ....
....|..|C-5 VF.F ....|--- .... ....|--- .... ....
....|..|C-4 LF.F ....|--- .... ....|--- .... ....
....|..|C-2 2F.A ....|--- .... ....|--- .... ....
....|..|C-2 2F.7 ....|--- .... ....|--- .... ....
....|..|C-4 AF.F ....|--- .... ....|--- .... ....
....|..|C-4 LF.F ....|--- .... ....|--- .... ....
 F-4|..|F-3 2C.F ....|--- .... ....|--- .... ....
....|..|C-4 AF.F ....|--- .... ....|--- .... ....
....|..|C-4 AF.F ....|--- .... ....|--- .... ....
....|..|C-4 AF.F ....|--- .... ....|--- .... ....
....|..|C-4 LF.F ....|--- .... ....|--- .... ....
....|..|C-4 LF.F ....|--- .... ....|--- .... ....
....|..|F-3 2F.7 ....|--- .... ....|--- .... ....
....|..|C-4 LF.F ....|--- .... ....|--- .... ....
....|..|A#1 2F.A ....|--- .... ....|--- .... ....
....|..|C-2 2F.7 ....|--- .... ....|--- .... ....
....|..|C-4 AF.F ....|--- .... ....|--- .... ....
 D#4|..|D#3 2C.F ....|--- .... ....|--- .... ....
....|..|A#1 2F.7 ....|--- .... ....|--- .... ....
....|..|C-4 LF.F ....|--- .... ....|--- .... ....
....|..|C-4 LF.F ....|--- .... ....|--- .... ....
....|..|C-2 2F.7 ....|--- .... ....|--- .... ....
....|..|C-5 VF.F ....|--- .... ....|--- .... ....
....|..|C-2 2F.A ....|--- .... ....|--- .... ....
....|..|C-5 VF.F ....|--- .... ....|--- .... ....
....|..|C-4 LF.F ....|--- .... ....|--- .... ....
....|..|C-2 2F.A ....|--- .... ....|--- .... ....
....|..|C-2 2F.7 ....|--- .... ....|--- .... ....
....|..|C-4 LF.F ....|--- .... ....|--- .... ....
....|..|C-2 2F.A ....|--- .... ....|--- .... ....
....|..|C-2 2F.F ....|--- .... ....|--- .... ....
....|..|C-4 LF.F ....|--- .... ....|--- .... ....
....|..|C-2 2F.A ....|--- .... ....|--- .... ....
....|..|C-2 2F.F ....|--- .... ....|--- .... ....

[Pattern39]
 C-3|..|C-4 AF.F ....|--- .... ....|C-4 2C.F ....
....|..|C-4 AF.F ....|--- .... ....|R-- .... ....
....|..|C-2 2F.7 ....|--- .... ....|--- .... ....
 C-3|..|C-4 LF.F ....|--- .... ....|C-4 2C.F ....
....|..|C-2 2F.A ....|--- .... ....|C-4 2F.A ....
....|..|C-4 LF.F ....|--- .... ....|R-- .... ....
 C-3|..|C-4 LF.F ....|--- .... ....|C-4 2C.F ....
....|..|C-4 LF.F ....|--- .... ....|C-4 2F.A ....
....|..|C-2 2F.7 ....|--- .... ....|C-4 2F.7 ....
 C-3|..|C-4 LF.F ....|--- .... ....|C-4 2C.F ....
....|..|C-4 LF.F ....|--- .... ....|C-4 2F.A ....
....|..|C-2 2F.7 ....|--- .... ....|C-4 2F.7 ....
 C-3|..|C-5 VF.F ....|--- .... ....|C-4 2C.F ....
....|..|C-2 2F.A ....|--- .... ....|C-4 2F.A ....
....|..|C-5 VF.F ....|--- .... ....|C-4 2F.7 ....
 C-3|..|C-4 LF.F ....|--- .... ....|C-4 2C.F ....
....|..|C-2 2F.A ....|--- .... ....|C-4 2F.A ....
....|..|C-2 2F.7 ....|--- .... ....|C-4 2F.7 ....
 C-3|..|C-4 LF.F ....|--- .... ....|C-4 2C.F ....
....|..|C-2 2F.A ....|--- .... ....|C-4 2F.A ....
....|..|C-2 2F.7 ....|--- .... ....|C-4 2F.7 ....
 C-3|..|C-4 AF.F ....|--- .... ....|C-4 2C.F ....
....|..|C-2 2F.A ....|--- .... ....|C-4 2F.A ....
....|..|C-4 AF.F ....|--- .... ....|C-4 2F.7 ....
 D#4|..|C-4 LF.F ....|--- .... ....|D#4 2C.F ....
....|..|C-2 2F.A ....|--- .... ....|C-4 2F.A ....
....|..|C-2 2F.7 ....|--- .... ....|C-4 2F.7 ....
 D#4|..|C-4 LF.F ....|--- .... ....|D#4 2C.F ....
....|..|A#1 2F.A ....|--- .... ....|D#4 2F.A ....
....|..|C-4 LF.F ....|--- .... ....|C-4 2F.7 ....
 C-3|..|C-4 AF.F ....|--- .... ....|C-4 2C.F ....
....|..|C-2 2F.A ....|--- .... ....|D#4 2F.A ....
....|..|C-4 AF.F ....|--- .... ....|D#4 2F.7 ....
 C-3|..|C-4 LF.F ....|--- .... ....|C-4 2C.F ....
....|..|C-4 LF.F ....|--- .... ....|C-4 2F.A ....
....|..|C-2 2F.7 ....|--- .... ....|D#4 2F.7 ....
 C-3|..|C-5 VF.F ....|--- .... ....|C-4 2C.F ....
....|..|C-2 2F.A ....|--- .... ....|C-4 2F.A ....
....|..|C-5 VF.F ....|--- .... ....|C-4 2F.7 ....
 C-3|..|C-4 LF.F ....|--- .... ....|C-4 2C.F ....
....|..|C-2 2F.A ....|--- .... ....|C-4 2F.A ....
....|..|C-2 2F.7 ....|--- .... ....|C-4 2F.7 ....
 C-3|..|C-4 LF.F ....|--- .... ....|C-4 2C.F ....
....|..|C-2 2F.A ....|--- .... ....|C-4 2F.A ....
....|..|C-2 2F.7 ....|--- .... ....|C-4 2F.7 ....
 C-3|..|C-4 LF.F ....|--- .... ....|C-4 2C.F ....
....|..|C-2 2F.A ....|--- .... ....|C-4 2F.A ....
....|..|C-2 2F.7 ....|--- .... ....|C-4 2F.7 ....
 C-3|..|C-4 AF.F ....|--- .... ....|C-4 2C.F ....
....|..|C-4 AF.F ....|--- .... ....|C-4 2F.A ....
....|..|C-4 AF.F ....|--- .... ....|C-4 2F.7 ....
 C-3|..|C-4 LF.F ....|--- .... ....|C-4 2C.F ....
....|..|C-4 LF.F ....|--- .... ....|C-4 2F.A ....
....|..|C-2 2F.7 ....|--- .... ....|C-4 2F.7 ....
 C-3|..|C-4 LF.F ....|--- .... ....|C-4 2C.F ....
....|..|C-4 LF.F ....|--- .... ....|C-4 2F.A ....
....|..|C-2 2F.7 ....|--- .... ....|C-4 2F.7 ....
 C-3|..|C-4 LF.F ....|--- .... ....|C-4 2C.F ....
....|..|C-2 2F.A ....|--- .... ....|C-4 2F.A ....
....|..|C-4 LF.F ....|--- .... ....|C-4 2F.7 ....
 C-3|..|C-5 VF.F ....|--- .... ....|C-4 2C.F ....
....|..|C-2 2F.A ....|--- .... ....|C-4 2F.A ....
....|..|C-2 2F.7 ....|--- .... ....|C-4 2F.7 ....
 C-3|..|C-4 LF.F ....|--- .... ....|C-4 2C.F ....
....|..|C-2 2F.A ....|--- .... ....|C-4 2F.A ....
....|..|C-2 2F.7 ....|--- .... ....|C-4 2F.7 ....
 C-3|..|C-4 LF.F ....|--- .... ....|C-4 2C.F ....
....|..|C-2 2F.A ....|--- .... ....|C-4 2F.A ....
....|..|C-2 2F.7 ....|--- .... ....|C-4 2F.7 ....
 C-3|..|C-4 AF.F ....|--- .... ....|C-4 2C.F ....
....|..|C-2 2F.A ....|--- .... ....|C-4 2F.A ....
....|..|C-4 AF.F ....|--- .... ....|C-4 2F.7 ....
 D#4|..|C-4 LF.F ....|--- .... ....|D#4 2C.F ....
....|..|C-2 2F.A ....|--- .... ....|C-4 2F.A ....
....|..|C-2 2F.7 ....|--- .... ....|C-4 2F.7 ....
 D#4|..|C-4 LF.F ....|--- .... ....|D#4 2C.F ....
....|..|A#1 2F.A ....|--- .... ....|D#4 2F.A ....
....|..|C-4 LF.F ....|--- .... ....|C-4 2F.7 ....
 D#4|..|C-4 AF.F ....|--- .... ....|D#4 2C.F ....
....|..|C-2 2F.A ....|--- .... ....|D#4 2F.A ....
....|..|C-4 AF.F ....|--- .... ....|D#4 2F.7 ....
 C-3|..|C-4 LF.F ....|--- .... ....|C-4 2C.F ....
....|..|C-4 LF.F ....|--- .... ....|D#4 2F.A ....
....|..|C-2 2F.7 ....|--- .... ....|D#4 2F.7 ....
 C-3|..|C-5 VF.F ....|--- .... ....|C-4 2C.F ....
....|..|C-2 2F.A ....|--- .... ....|C-4 2F.A ....
....|..|D-2 2F.7 ....|--- .... ....|D#4 2F.7 ....
 C-3|..|C-4 LF.F ....|--- .... ....|C-4 2C.F ....
....|..|C-2 2F.A ....|--- .... ....|C-4 2F.A ....
....|..|C-2 2F.7 ....|--- .... ....|C-4 2F.7 ....
 C-3|..|C-4 LF.F ....|--- .... ....|C-4 2C.F ....
....|..|C-2 2F.A ....|--- .... ....|C-4 2F.A ....
....|..|C-2 2F.7 ....|--- .... ....|C-4 2F.7 ....
 C-3|..|C-4 AF.F ....|--- .... ....|C-4 2C.F ....
....|..|C-4 LF.F ....|--- .... ....|C-4 2F.A ....
....|..|C-2 2F.7 ....|--- .... ....|C-4 2F.7 ....

[Pattern40]
 C-3|..|C-4 AF.F ....|--- .... ....|C-4 2C.F ....
....|..|C-4 AF.F ....|--- .... ....|C-4 2F.A ....
....|..|C-2 2F.7 ....|--- .... ....|C-4 2F.7 ....
 C-3|..|C-4 LF.F ....|--- .... ....|C-4 2C.F ....
....|..|C-4 LF.F ....|--- .... ....|C-4 2F.A ....
....|..|C-2 2F.7 ....|--- .... ....|C-4 2F.7 ....
 C-3|..|C-4 LF.F ....|--- .... ....|C-4 2C.F ....
....|..|C-2 2F.A ....|--- .... ....|C-4 2F.A ....
....|..|C-2 2F.7 ....|--- .... ....|C-4 2F.7 ....
 C-3|..|C-4 LF.F ....|--- .... ....|C-4 2C.F ....
....|..|C-4 LF.F ....|--- .... ....|C-4 2F.A ....
....|..|C-2 2F.7 ....|--- .... ....|C-4 2F.7 ....
 C-3|..|C-5 VF.F ....|--- .... ....|C-4 2C.F ....
....|..|C-2 2F.A ....|--- .... ....|C-4 2F.A ....
....|..|C-5 VF.F ....|--- .... ....|C-4 2F.7 ....
 C-3|..|C-4 LF.F ....|--- .... ....|C-4 2C.F ....
....|..|C-2 2F.A ....|--- .... ....|C-4 2F.A ....
....|..|C-2 2F.7 ....|--- .... ....|C-4 2F.7 ....
 C-3|..|C-4 LF.F ....|--- .... ....|C-4 2C.F ....
....|..|C-2 2F.A ....|--- .... ....|C-4 2F.A ....
....|..|C-2 2F.7 ....|--- .... ....|C-4 2F.7 ....
 C-3|..|C-4 AF.F ....|--- .... ....|C-4 2C.F ....
....|..|C-2 2F.A ....|--- .... ....|C-4 2F.A ....
....|..|C-4 AF.F ....|--- .... ....|C-4 2F.7 ....
 D#4|..|C-4 LF.F ....|--- .... ....|D#4 2C.F ....
....|..|C-2 2F.A ....|--- .... ....|C-4 2F.A ....
....|..|C-2 2F.7 ....|--- .... ....|C-4 2F.7 ....
 D#4|..|C-4 LF.F ....|--- .... ....|D#4 2C.F ....
....|..|A#1 2F.A ....|--- .... ....|D#4 2F.A ....
....|..|C-2 2F.7 ....|--- .... ....|C-4 2F.7 ....
 C-3|..|C-4 AF.F ....|--- .... ....|C-4 2C.F ....
....|..|C-2 2F.A ....|--- .... ....|D#4 2F.A ....
....|..|A#1 2F.7 ....|--- .... ....|D#4 2F.7 ....
 C-3|..|C-4 LF.F ....|--- .... ....|C-4 2C.F ....
....|..|C-4 LF.F ....|--- .... ....|C-4 2F.A ....
....|..|C-2 2F.7 ....|--- .... ....|D#4 2F.7 ....
 C-3|..|C-5 VF.F ....|--- .... ....|C-4 2C.F ....
....|..|C-2 2F.A ....|--- .... ....|C-4 2F.A ....
....|..|C-5 VF.F ....|--- .... ....|C-4 2F.7 ....
 C-3|..|C-4 LF.F ....|--- .... ....|C-4 2C.F ....
....|..|C-2 2F.A ....|--- .... ....|C-4 2F.A ....
....|..|C-2 2F.7 ....|--- .... ....|C-4 2F.7 ....
 C-3|..|C-4 LF.F ....|--- .... ....|C-4 2C.F ....
....|..|C-2 2F.A ....|--- .... ....|C-4 2F.A ....
....|..|C-2 2F.7 ....|--- .... ....|C-4 2F.7 ....
 C-3|..|C-4 LF.F ....|--- .... ....|C-4 2C.F ....
....|..|C-2 2F.A ....|--- .... ....|C-4 2F.A ....
....|..|C-2 2F.7 ....|--- .... ....|C-4 2F.7 ....
 C-3|..|C-4 AF.F ....|--- .... ....|C-4 2C.F ....
....|..|C-4 LF.F ....|--- .... ....|C-4 2F.A ....
....|..|C-2 2F.7 ....|--- .... ....|C-4 2F.7 ....
 C-3|..|C-4 LF.F ....|--- .... ....|C-4 2C.F ....
....|..|C-4 LF.F ....|--- .... ....|C-4 2F.A ....
....|..|C-2 2F.7 ....|--- .... ....|C-4 2F.7 ....
 C-3|..|C-4 LF.F ....|--- .... ....|C-4 2C.F ....
....|..|C-4 LF.F ....|--- .... ....|C-4 2F.A ....
....|..|C-2 2F.7 ....|--- .... ....|C-4 2F.7 ....
 C-3|..|C-4 LF.F ....|--- .... ....|C-4 2C.F ....
....|..|C-4 LF.F ....|--- .... ....|C-4 2F.A ....
....|..|C-2 2F.7 ....|--- .... ....|C-4 2F.7 ....
 C-3|..|C-5 VF.F ....|--- .... ....|C-4 2C.F ....
....|..|C-2 2F.A ....|--- .... ....|C-4 2F.A ....
....|..|C-5 VF.F ....|--- .... ....|C-4 2F.7 ....
 C-3|..|C-4 LF.F ....|--- .... ....|C-4 2C.F ....
....|..|C-2 2F.A ....|--- .... ....|C-4 2F.A ....
....|..|C-2 2F.7 ....|--- .... ....|C-4 2F.7 ....
 C-3|..|C-4 LF.F ....|--- .... ....|C-4 2C.F ....
....|..|C-2 2F.A ....|--- .... ....|C-4 2F.A ....
....|..|C-2 2F.7 ....|--- .... ....|C-4 2F.7 ....
 C-3|..|C-4 AF.F ....|--- .... ....|C-4 2C.F ....
....|..|C-2 2F.A ....|--- .... ....|C-4 2F.A ....
....|..|C-4 AF.F ....|--- .... ....|C-4 2F.7 ....
 D#4|..|C-4 LF.F ....|--- .... ....|D#4 2C.F ....
....|..|C-2 2F.A ....|--- .... ....|C-4 2F.A ....
....|..|C-2 2F.7 ....|--- .... ....|C-4 2F.7 ....
 D#4|..|C-4 LF.F ....|--- .... ....|D#4 2C.F ....
....|..|A#1 2F.A ....|--- .... ....|D#4 2F.A ....
....|..|C-2 2F.7 ....|--- .... ....|C-4 2F.7 ....
 C-3|..|C-4 AF.F ....|--- .... ....|C-4 2C.F ....
....|..|C-2 2F.A ....|--- .... ....|D#4 2F.A ....
....|..|A#1 2F.7 ....|--- .... ....|D#4 2F.7 ....
 C-3|..|C-4 LF.F ....|--- .... ....|C-4 2C.F ....
....|..|C-4 LF.F ....|--- .... ....|C-4 2F.A ....
....|..|C-2 2F.7 ....|--- .... ....|D#4 2F.7 ....
 C-3|..|C-5 VF.F ....|--- .... ....|C-4 2C.F ....
....|..|C-2 2F.A ....|--- .... ....|C-4 2F.A ....
....|..|C-5 VF.F ....|--- .... ....|C-4 2F.7 ....
 C-3|..|C-4 LF.F ....|--- .... ....|C-4 2C.F ....
....|..|C-2 2F.A ....|--- .... ....|C-4 2F.A ....
....|..|C-2 2F.7 ....|--- .... ....|C-4 2F.7 ....
 C-3|..|C-4 LF.F ....|--- .... ....|C-4 2C.F ....
....|..|C-2 2F.A ....|--- .... ....|C-4 2F.A ....
....|..|C-2 2F.7 ....|--- .... ....|C-4 2F.7 ....
 C-3|..|C-4 LF.F ....|--- .... ....|C-4 2C.F ....
....|..|C-2 2F.A ....|--- .... ....|C-4 2F.A ....
....|..|C-2 2F.7 ....|--- .... ....|C-4 2F.7 ....

[Pattern41]
 C-3|..|C-4 AF.F ....|G-4 2F.F ....|C-4 2C.F ....
....|..|C-4 AF.F ....|R-- .... ....|C-4 2F.A ....
....|..|C-2 2F.7 ....|--- .... ....|C-4 2F.7 ....
 C-3|..|C-4 LF.F ....|G-4 2F.F ....|C-4 2C.F ....
....|..|C-2 2F.A ....|G-4 2F.A ....|C-4 2F.A ....
....|..|C-4 LF.F ....|R-- .... ....|C-4 2F.7 ....
 C-3|..|C-4 LF.F ....|--- .... ....|C-4 2C.F ....
....|..|C-4 LF.F ....|G-4 2F.A ....|C-4 2F.A ....
....|..|C-2 2F.7 ....|G-4 2F.7 ....|C-4 2F.7 ....
 C-3|..|C-4 LF.F ....|G-4 2F.F ....|C-4 2C.F ....
....|..|C-4 LF.F ....|R-- .... ....|C-4 2F.A ....
....|..|C-2 2F.7 ....|G-4 2F.7 ....|C-4 2F.7 ....
 C-3|..|C-5 VF.F ....|G-4 2F.F ....|C-4 2C.F ....
....|..|C-2 2F.A ....|G-4 2F.A ....|C-4 2F.A ....
....|..|C-5 VF.F ....|R-- .... ....|C-4 2F.7 ....
 C-3|..|C-4 LF.F ....|R-- .... ....|C-4 2C.F ....
....|..|C-2 2F.A ....|G-4 2F.A ....|C-4 2F.A ....
....|..|C-2 2F.7 ....|G-4 2F.7 ....|C-4 2F.7 ....
 C-3|..|C-4 LF.F ....|G-4 2F.F ....|C-4 2C.F ....
....|..|C-2 2F.A ....|C-4 2F.F ....|C-4 2F.A ....
....|..|C-2 2F.7 ....|G-4 2F.7 ....|C-4 2F.7 ....
 C-3|..|C-4 AF.F ....|G-4 2F.F ....|C-4 2C.F ....
....|..|C-2 2F.A ....|G-4 2F.A ....|C-4 2F.A ....
....|..|C-4 AF.F ....|C-4 2F.A ....|C-4 2F.7 ....
 D#4|..|C-4 LF.F ....|G-4 2F.F ....|D#4 2C.F ....
....|..|C-2 2F.A ....|G-4 2F.A ....|C-4 2F.A ....
....|..|C-2 2F.7 ....|G-4 2F.7 ....|C-4 2F.7 ....
 D#4|..|C-4 LF.F ....|G-4 2F.F ....|D#4 2C.F ....
....|..|A#1 2F.A ....|G-4 2F.A ....|D#4 2F.A ....
....|..|C-4 LF.F ....|G-4 2F.7 ....|C-4 2F.7 ....
 C-3|..|C-4 AF.F ....|R-- .... ....|C-4 2C.F ....
....|..|C-2 2F.A ....|G-4 2F.A ....|D#4 2F.A ....
....|..|C-4 AF.F ....|G-4 2F.7 ....|D#4 2F.7 ....
 C-3|..|C-4 LF.F ....|G-4 2F.F ....|C-4 2C.F ....
....|..|C-4 LF.F ....|R-- .... ....|C-4 2F.A ....
....|..|C-2 2F.7 ....|G-4 2F.7 ....|D#4 2F.7 ....
 C-3|..|C-5 VF.F ....|G-4 2F.F ....|C-4 2C.F ....
....|..|C-2 2F.A ....|G-4 2F.A ....|C-4 2F.A ....
....|..|C-5 VF.F ....|R-- .... ....|C-4 2F.7 ....
 C-3|..|C-4 LF.F ....|R-- .... ....|C-4 2C.F ....
....|..|C-2 2F.A ....|G-4 2F.A ....|C-4 2F.A ....
....|..|C-2 2F.7 ....|G-4 2F.7 ....|C-4 2F.7 ....
 C-3|..|C-4 LF.F ....|G-4 2F.F ....|C-4 2C.F ....
....|..|C-2 2F.A ....|R-- .... ....|C-4 2F.A ....
....|..|C-2 2F.7 ....|G-4 2F.7 ....|C-4 2F.7 ....
 C-3|..|C-4 LF.F ....|G-4 2F.F ....|C-4 2C.F ....
....|..|C-2 2F.A ....|G-4 2F.A ....|C-4 2F.A ....
....|..|C-2 2F.7 ....|R-- .... ....|C-4 2F.7 ....
 C-3|..|C-4 AF.F ....|G-4 2F.F ....|C-4 2C.F ....
....|..|C-4 AF.F ....|C-4 2F.F ....|C-4 2F.A ....
....|..|C-4 AF.F ....|G-4 2F.7 ....|C-4 2F.7 ....
 C-3|..|C-4 LF.F ....|G-4 2F.F ....|C-4 2C.F ....
....|..|C-4 LF.F ....|G-4 2F.A ....|C-4 2F.A ....
....|..|C-2 2F.7 ....|G-4 2F.7 ....|C-4 2F.7 ....
 C-3|..|C-4 LF.F ....|R-- .... ....|C-4 2C.F ....
....|..|C-4 LF.F ....|G-4 2F.A ....|C-4 2F.A ....
....|..|C-2 2F.7 ....|G-4 2F.7 ....|C-4 2F.7 ....
 C-3|..|C-4 LF.F ....|G-4 2F.F ....|C-4 2C.F ....
....|..|C-2 2F.A ....|R-- .... ....|C-4 2F.A ....
....|..|C-4 LF.F ....|G-4 2F.7 ....|C-4 2F.7 ....
 C-3|..|C-5 VF.F ....|G-4 2F.F ....|C-4 2C.F ....
....|..|C-2 2F.A ....|G-4 2F.A ....|C-4 2F.A ....
....|..|C-2 2F.7 ....|R-- .... ....|C-4 2F.7 ....
 C-3|..|C-4 LF.F ....|--- .... ....|C-4 2C.F ....
....|..|C-2 2F.A ....|G-4 2F.A ....|C-4 2F.A ....
....|..|C-2 2F.7 ....|G-4 2F.7 ....|C-4 2F.7 ....
 C-3|..|C-4 LF.F ....|G-4 2F.F ....|C-4 2C.F ....
....|..|C-2 2F.A ....|G-4 2F.F ....|C-4 2F.A ....
....|..|C-2 2F.7 ....|G-4 2F.7 ....|C-4 2F.7 ....
 C-3|..|C-4 AF.F ....|G-4 2F.F ....|C-4 2C.F ....
....|..|C-2 2F.A ....|C-4 2F.F ....|C-4 2F.A ....
....|..|C-4 AF.F ....|G-4 2F.A ....|C-4 2F.7 ....
 D#4|..|C-4 LF.F ....|G-4 2F.F ....|D#4 2C.F ....
....|..|C-2 2F.A ....|G-4 2F.F ....|C-4 2F.A ....
....|..|C-2 2F.7 ....|G-4 2F.7 ....|C-4 2F.7 ....
 D#4|..|C-4 LF.F ....|G-4 2F.F ....|D#4 2C.F ....
....|..|A#1 2F.A ....|G-4 2F.A ....|D#4 2F.A ....
....|..|C-4 LF.F ....|G-4 2F.7 ....|C-4 2F.7 ....
 D#4|..|C-4 AF.F ....|C-4 2F.7 ....|D#4 2C.F ....
....|..|C-2 2F.A ....|G-4 2F.A ....|D#4 2F.A ....
....|..|C-4 AF.F ....|G-4 2F.7 ....|D#4 2F.7 ....
 C-3|..|C-4 LF.F ....|G-4 2F.F ....|C-4 2C.F ....
....|..|C-4 LF.F ....|R-- .... ....|D#4 2F.A ....
....|..|C-2 2F.7 ....|G-4 2F.7 ....|D#4 2F.7 ....
 C-3|..|C-5 VF.F ....|G-4 2F.F ....|C-4 2C.F ....
....|..|C-2 2F.A ....|G-4 2F.A ....|C-4 2F.A ....
....|..|D-2 2F.7 ....|R-- .... ....|D#4 2F.7 ....
 C-3|..|C-4 LF.F ....|R-- .... ....|C-4 2C.F ....
....|..|C-2 2F.A ....|G-4 2F.A ....|C-4 2F.A ....
....|..|C-2 2F.7 ....|G-4 2F.7 ....|C-4 2F.7 ....
 C-3|..|C-4 LF.F ....|G-4 2F.F ....|C-4 2C.F ....
....|..|C-2 2F.A ....|G-4 2F.F ....|C-4 2F.A ....
....|..|C-2 2F.7 ....|G-4 2F.7 ....|C-4 2F.7 ....
 C-3|..|C-4 AF.F ....|G-4 2F.F ....|C-4 2C.F ....
....|..|C-4 LF.F ....|G-4 2F.A ....|C-4 2F.A ....
....|..|C-2 2F.7 ....|G-4 2F.A ....|C-4 2F.7 ....

[Pattern42]
 C-3|..|C-4 AF.F ....|G-4 2F.F ....|C-4 2C.F ....
....|..|C-4 AF.F ....|G-4 2F.A ....|C-4 2F.A ....
....|..|C-2 2F.7 ....|G-4 2F.7 ....|C-4 2F.7 ....
 C-3|..|C-4 LF.F ....|G-4 2F.F ....|C-4 2C.F ....
....|..|C-4 LF.F ....|G-4 2F.A ....|C-4 2F.A ....
....|..|C-2 2F.7 ....|G-4 2F.7 ....|C-4 2F.7 ....
 C-3|..|C-4 LF.F ....|R-- .... ....|C-4 2C.F ....
....|..|C-2 2F.A ....|G-4 2F.A ....|C-4 2F.A ....
....|..|C-2 2F.7 ....|G-4 2F.7 ....|C-4 2F.7 ....
 C-3|..|C-4 LF.F ....|G-4 2F.F ....|C-4 2C.F ....
....|..|C-4 LF.F ....|G-4 2F.F ....|C-4 2F.A ....
....|..|C-2 2F.7 ....|G-4 2F.7 ....|C-4 2F.7 ....
 C-3|..|C-5 VF.F ....|G-4 2F.F ....|C-4 2C.F ....
....|..|C-2 2F.A ....|G-4 2F.A ....|C-4 2F.A ....
....|..|C-5 VF.F ....|G-4 2F.A ....|C-4 2F.7 ....
 C-3|..|C-4 LF.F ....|R-- .... ....|C-4 2C.F ....
....|..|C-2 2F.A ....|G-4 2F.A ....|C-4 2F.A ....
....|..|C-2 2F.7 ....|G-4 2F.7 ....|C-4 2F.7 ....
 C-3|..|C-4 LF.F ....|G-4 2F.F ....|C-4 2C.F ....
....|..|C-2 2F.A ....|C-4 2F.F ....|C-4 2F.A ....
....|..|C-2 2F.7 ....|G-4 2F.7 ....|C-4 2F.7 ....
 C-3|..|C-4 AF.F ....|G-4 2F.F ....|C-4 2C.F ....
....|..|C-2 2F.A ....|C-4 2F.F ....|C-4 2F.A ....
....|..|C-4 AF.F ....|C-4 2F.A ....|C-4 2F.7 ....
 D#4|..|C-4 LF.F ....|G-4 2F.F ....|D#4 2C.F ....
....|..|C-2 2F.A ....|G-4 2F.A ....|C-4 2F.A ....
....|..|C-2 2F.7 ....|G-4 2F.7 ....|C-4 2F.7 ....
 D#4|..|C-4 LF.F ....|G-4 2F.F ....|D#4 2C.F ....
....|..|A#1 2F.A ....|G-4 2F.A ....|D#4 2F.A ....
....|..|C-2 2F.7 ....|G-4 2F.7 ....|C-4 2F.7 ....
 C-3|..|C-4 AF.F ....|C-4 2F.7 ....|C-4 2C.F ....
....|..|C-2 2F.A ....|G-4 2F.A ....|D#4 2F.A ....
....|..|A#1 2F.7 ....|G-4 2F.7 ....|D#4 2F.7 ....
 C-3|..|C-4 LF.F ....|G-4 2F.F ....|C-4 2C.F ....
....|..|C-4 LF.F ....|G-4 2F.F ....|C-4 2F.A ....
....|..|C-2 2F.7 ....|G-4 2F.7 ....|D#4 2F.7 ....
 C-3|..|C-5 VF.F ....|G-4 2F.F ....|C-4 2C.F ....
....|..|C-2 2F.A ....|G-4 2F.A ....|C-4 2F.A ....
....|..|C-5 VF.F ....|G-4 2F.A ....|C-4 2F.7 ....
 C-3|..|C-4 LF.F ....|R-- .... ....|C-4 2C.F ....
....|..|C-2 2F.A ....|G-4 2F.A ....|C-4 2F.A ....
....|..|C-2 2F.7 ....|G-4 2F.7 ....|C-4 2F.7 ....
 C-3|..|C-4 LF.F ....|G-4 2F.F ....|C-4 2C.F ....
....|..|C-2 2F.A ....|R-- .... ....|C-4 2F.A ....
....|..|C-2 2F.7 ....|G-4 2F.7 ....|C-4 2F.7 ....
 C-3|..|C-4 LF.F ....|G-4 2F.F ....|C-4 2C.F ....
....|..|C-2 2F.A ....|C-4 2F.F ....|C-4 2F.A ....
....|..|C-2 2F.7 ....|R-- .... ....|C-4 2F.7 ....
 C-3|..|C-4 AF.F ....|G-4 2F.F ....|C-4 2C.F ....
....|..|C-4 LF.F ....|G-4 2F.F ....|C-4 2F.A ....
....|..|C-2 2F.7 ....|G-4 2F.7 ....|C-4 2F.7 ....
 C-3|..|C-4 LF.F ....|G-4 2F.F ....|C-4 2C.F ....
....|..|C-4 LF.F ....|G-4 2F.A ....|C-4 2F.A ....
....|..|C-2 2F.7 ....|G-4 2F.7 ....|C-4 2F.7 ....
 C-3|..|C-4 LF.F ....|C-4 2F.7 ....|C-4 2C.F ....
....|..|C-4 LF.F ....|G-4 2F.A ....|C-4 2F.A ....
....|..|C-2 2F.7 ....|G-4 2F.7 ....|C-4 2F.7 ....
 C-3|..|C-4 LF.F ....|G-4 2F.F ....|C-4 2C.F ....
....|..|C-4 LF.F ....|G-4 2F.F ....|C-4 2F.A ....
....|..|C-2 2F.7 ....|G-4 2F.7 ....|C-4 2F.7 ....
 C-3|..|C-5 VF.F ....|G-4 2F.F ....|C-4 2C.F ....
....|..|C-2 2F.A ....|G-4 2F.A ....|C-4 2F.A ....
....|..|C-5 VF.F ....|G-4 2F.A ....|C-4 2F.7 ....
 C-3|..|C-4 LF.F ....|R-- .... ....|C-4 2C.F ....
....|..|C-2 2F.A ....|G-4 2F.A ....|C-4 2F.A ....
....|..|C-2 2F.7 ....|G-4 2F.7 ....|C-4 2F.7 ....
 C-3|..|C-4 LF.F ....|G-4 2F.F ....|C-4 2C.F ....
....|..|C-2 2F.A ....|G-4 2F.F ....|C-4 2F.A ....
....|..|C-2 2F.7 ....|G-4 2F.7 ....|C-4 2F.7 ....
 C-3|..|C-4 AF.F ....|G-4 2F.F ....|C-4 2C.F ....
....|..|C-2 2F.A ....|G-4 2F.A ....|C-4 2F.A ....
....|..|C-4 AF.F ....|G-4 2F.A ....|C-4 2F.7 ....
 D#4|..|C-4 LF.F ....|G-4 2F.F ....|D#4 2C.F ....
....|..|C-2 2F.A ....|G-4 2F.F ....|C-4 2F.A ....
....|..|C-2 2F.7 ....|G-4 2F.7 ....|C-4 2F.7 ....
 D#4|..|C-4 LF.F ....|G-4 2F.F ....|D#4 2C.F ....
....|..|A#1 2F.A ....|G-4 2F.A ....|D#4 2F.A ....
....|..|C-2 2F.7 ....|G-4 2F.7 ....|C-4 2F.7 ....
 C-3|..|C-4 AF.F ....|R-- .... ....|C-4 2C.F ....
....|..|C-2 2F.A ....|G-4 2F.A ....|D#4 2F.A ....
....|..|A#1 2F.7 ....|G-4 2F.7 ....|D#4 2F.7 ....
 C-3|..|C-4 LF.F ....|G-4 2F.F ....|C-4 2C.F ....
....|..|C-4 LF.F ....|G-4 2F.F ....|C-4 2F.A ....
....|..|C-2 2F.7 ....|G-4 2F.7 ....|D#4 2F.7 ....
 C-3|..|C-5 VF.F ....|G-4 2F.F ....|C-4 2C.F ....
....|..|C-2 2F.A ....|G-4 2F.A ....|C-4 2F.A ....
....|..|C-5 VF.F ....|G-4 2F.A ....|C-4 2F.7 ....
 C-3|..|C-4 LF.F ....|R-- .... ....|C-4 2C.F ....
....|..|C-2 2F.A ....|G-4 2F.A ....|C-4 2F.A ....
....|..|C-2 2F.7 ....|G-4 2F.7 ....|C-4 2F.7 ....
 C-3|..|C-4 LF.F ....|G-4 2F.F ....|C-4 2C.F ....
....|..|C-2 2F.A ....|G-4 2F.F ....|C-4 2F.A ....
....|..|C-2 2F.7 ....|G-4 2F.7 ....|C-4 2F.7 ....
 C-3|..|C-4 LF.F ....|G-4 2F.F ....|C-4 2C.F ....
....|..|C-2 2F.A ....|G-4 2F.F ....|C-4 2F.A ....
....|..|C-2 2F.7 ....|G-4 2F.A ....|C-4 2F.7 ....

[Pattern43]
 C-3|..|C-4 AF.F ....|G-4 2F.F ....|C-4 2C.F ....
....|..|C-4 AF.F ....|G-4 2F.A ....|C-4 2F.A ....
....|..|C-2 2F.7 ....|G-4 2F.7 ....|C-4 2F.7 ....
 C-3|..|C-4 LF.F ....|G-4 2F.F ....|C-4 2C.F ....
....|..|C-2 2F.A ....|G-4 2F.A ....|C-4 2F.A ....
....|..|C-4 LF.F ....|G-4 2F.F ....|C-4 2F.7 ....
 C-3|..|C-4 LF.F ....|G-4 2F.7 ....|C-4 2C.F ....
....|..|C-4 LF.F ....|G-4 2F.A ....|C-4 2F.A ....
....|..|C-2 2F.7 ....|G-4 2F.7 ....|C-4 2F.7 ....
 C-3|..|C-4 LF.F ....|G-4 2F.F ....|C-4 2C.F ....
....|..|C-4 LF.F ....|G-4 2F.F ....|C-4 2F.A ....
....|..|C-2 2F.7 ....|G-4 2F.7 ....|C-4 2F.7 ....
 C-3|..|C-5 VF.F ....|G-4 2F.F ....|C-4 2C.F ....
....|..|C-2 2F.A ....|G-4 2F.7 ....|C-4 2F.A ....
....|..|C-5 VF.F ....|G-4 2F.A ....|C-4 2F.7 ....
 C-3|..|C-4 LF.F ....|R-- .... ....|C-4 2C.F ....
....|..|C-2 2F.A ....|G-4 2F.A ....|C-4 2F.A ....
....|..|C-2 2F.7 ....|G-4 2F.7 ....|C-4 2F.7 ....
 C-3|..|C-4 LF.F ....|G-4 2F.F ....|C-4 2C.F ....
....|..|C-2 2F.A ....|G-4 2F.F ....|C-4 2F.A ....
....|..|C-2 2F.7 ....|G-4 2F.7 ....|C-4 2F.7 ....
 C-3|..|C-4 AF.F ....|G-4 2F.F ....|C-4 2C.F ....
....|..|C-2 2F.A ....|C-4 2F.F ....|C-4 2F.A ....
....|..|C-4 AF.F ....|G-4 2F.A ....|C-4 2F.7 ....
 D#4|..|C-4 LF.F ....|G-4 2F.F ....|D#4 2C.F ....
....|..|C-2 2F.A ....|G-4 2F.F ....|C-4 2F.A ....
....|..|C-2 2F.7 ....|G-4 2F.7 ....|C-4 2F.7 ....
 D#4|..|C-4 LF.F ....|G-4 2F.F ....|D#4 2C.F ....
....|..|A#1 2F.A ....|G-4 2F.A ....|D#4 2F.A ....
....|..|C-4 LF.F ....|G-4 2F.7 ....|C-4 2F.7 ....
 C-3|..|C-4 AF.F ....|C-4 2F.7 ....|C-4 2C.F ....
....|..|C-2 2F.A ....|G-4 2F.A ....|D#4 2F.A ....
....|..|C-4 AF.F ....|G-4 2F.7 ....|D#4 2F.7 ....
 C-3|..|C-4 LF.F ....|C-5 2F.F ....|C-4 2C.F ....
....|..|C-4 LF.F ....|G-4 2F.F ....|C-4 2F.A ....
....|..|C-2 2F.7 ....|G-4 2F.7 ....|D#4 2F.7 ....
 C-3|..|C-5 VF.F ....|C-5 2F.F ....|C-4 2C.F ....
....|..|C-2 2F.A ....|C-5 2F.A ....|C-4 2F.A ....
....|..|C-5 VF.F ....|G-4 2F.A ....|C-4 2F.7 ....
 C-3|..|C-4 LF.F ....|C-5 2F.F ....|C-4 2C.F ....
....|..|C-2 2F.A ....|C-5 2F.A ....|C-4 2F.A ....
....|..|C-2 2F.7 ....|C-5 2F.7 ....|C-4 2F.7 ....
 C-3|..|C-4 LF.F ....|C-5 2F.F ....|C-4 2C.F ....
....|..|C-2 2F.A ....|G-4 2F.F ....|C-4 2F.A ....
....|..|C-2 2F.7 ....|C-5 2F.7 ....|C-4 2F.7 ....
 C-3|..|C-4 LF.F ....|C-5 2F.F ....|C-4 2C.F ....
....|..|C-2 2F.A ....|C-5 2F.F ....|C-4 2F.A ....
....|..|C-2 2F.7 ....|C-5 2F.7 ....|C-4 2F.7 ....
 C-3|..|C-4 AF.F ....|C-5 2F.F ....|C-4 2C.F ....
....|..|C-4 AF.F ....|G-4 2F.F ....|C-4 2F.A ....
....|..|C-4 AF.F ....|C-5 2F.7 ....|C-4 2F.7 ....
 C-3|..|C-4 LF.F ....|C-5 2F.F ....|C-4 2C.F ....
....|..|C-4 LF.F ....|C-5 2F.A ....|C-4 2F.A ....
....|..|C-2 2F.7 ....|C-5 2F.7 ....|C-4 2F.7 ....
 C-3|..|C-4 LF.F ....|C-5 2F.7 ....|C-4 2C.F ....
....|..|C-4 LF.F ....|C-5 2F.A ....|C-4 2F.A ....
....|..|C-2 2F.7 ....|C-5 2F.7 ....|C-4 2F.7 ....
 C-3|..|C-4 LF.F ....|C-5 2F.F ....|C-4 2C.F ....
....|..|C-2 2F.A ....|G-4 2F.F ....|C-4 2F.A ....
....|..|C-4 LF.F ....|C-5 2F.7 ....|C-4 2F.7 ....
 C-3|..|C-5 VF.F ....|C-5 2F.F ....|C-4 2C.F ....
....|..|C-2 2F.A ....|C-5 2F.A ....|C-4 2F.A ....
....|..|C-2 2F.7 ....|G-4 2F.A ....|C-4 2F.7 ....
 C-3|..|C-4 LF.F ....|R-- .... ....|C-4 2C.F ....
....|..|C-2 2F.A ....|C-5 2F.A ....|C-4 2F.A ....
....|..|C-2 2F.7 ....|C-5 2F.7 ....|C-4 2F.7 ....
 C-3|..|C-4 LF.F ....|C-5 2F.F ....|C-4 2C.F ....
....|..|C-2 2F.A ....|G-4 2F.F ....|C-4 2F.A ....
....|..|C-2 2F.7 ....|C-5 2F.7 ....|C-4 2F.7 ....
 C-3|..|C-4 AF.F ....|C-5 2F.F ....|C-4 2C.F ....
....|..|C-2 2F.A ....|C-5 2F.A ....|C-4 2F.A ....
....|..|C-4 AF.F ....|G-4 2F.A ....|C-4 2F.7 ....
 D#4|..|C-4 LF.F ....|C-5 2F.F ....|D#4 2C.F ....
....|..|C-2 2F.A ....|G-4 2F.F ....|C-4 2F.A ....
....|..|C-2 2F.7 ....|C-5 2F.7 ....|C-4 2F.7 ....
 D#4|..|C-4 LF.F ....|C-5 2F.F ....|D#4 2C.F ....
....|..|A#1 2F.A ....|C-5 2F.A ....|D#4 2F.A ....
....|..|C-4 LF.F ....|C-5 2F.7 ....|C-4 2F.7 ....
 D#4|..|C-4 AF.F ....|R-- .... ....|D#4 2C.F ....
....|..|C-2 2F.A ....|C-5 2F.F ....|D#4 2F.A ....
....|..|C-4 AF.F ....|C-5 2F.7 ....|D#4 2F.7 ....
 C-3|..|C-4 LF.F ....|C-5 2F.F ....|C-4 2C.F ....
....|..|C-4 LF.F ....|G-4 2F.F ....|D#4 2F.A ....
....|..|C-2 2F.7 ....|C-5 2F.7 ....|D#4 2F.7 ....
 C-3|..|C-5 VF.F ....|C-5 2F.F ....|C-4 2C.F ....
....|..|C-2 2F.A ....|C-5 2F.A ....|C-4 2F.A ....
....|..|D-2 2F.7 ....|G-4 2F.A ....|D#4 2F.7 ....
 C-3|..|C-4 LF.F ....|C-5 2F.7 ....|C-4 2C.F ....
....|..|C-2 2F.A ....|C-5 2F.A ....|C-4 2F.A ....
....|..|C-2 2F.7 ....|C-5 2F.7 ....|C-4 2F.7 ....
 C-3|..|C-4 LF.F ....|C-5 2F.F ....|C-4 2C.F ....
....|..|C-2 2F.A ....|G-4 2F.F ....|C-4 2F.A ....
....|..|C-2 2F.7 ....|C-5 2F.7 ....|C-4 2F.7 ....
 C-3|..|C-4 AF.F ....|C-5 2F.F ....|C-4 2C.F ....
....|..|C-4 LF.F ....|C-5 2F.A ....|C-4 2F.A ....
....|..|C-2 2F.7 ....|G-4 2F.A ....|C-4 2F.7 ....

[Pattern44]
 C-3|..|C-4 AF.F ....|C-5 2F.F ....|C-4 2C.F ....
....|..|C-4 AF.F ....|G-4 2F.F ....|C-4 2F.A ....
....|..|C-2 2F.7 ....|C-5 2F.7 ....|C-4 2F.7 ....
 C-3|..|C-4 LF.F ....|C-5 2F.F ....|C-4 2C.F ....
....|..|C-4 LF.F ....|C-5 2F.A ....|C-4 2F.A ....
....|..|C-2 2F.7 ....|C-5 2F.7 ....|C-4 2F.7 ....
 C-3|..|C-4 LF.F ....|R-- .... ....|C-4 2C.F ....
....|..|C-2 2F.A ....|C-5 2F.F ....|C-4 2F.A ....
....|..|C-2 2F.7 ....|C-5 2F.7 ....|C-4 2F.7 ....
 C-3|..|C-4 LF.F ....|C-5 2F.F ....|C-4 2C.F ....
....|..|C-4 LF.F ....|G-4 2F.F ....|C-4 2F.A ....
....|..|C-2 2F.7 ....|C-5 2F.7 ....|C-4 2F.7 ....
 C-3|..|C-5 VF.F ....|C-5 2F.F ....|C-4 2C.F ....
....|..|C-2 2F.A ....|C-5 2F.A ....|C-4 2F.A ....
....|..|C-5 VF.F ....|G-4 2F.A ....|C-4 2F.7 ....
 C-3|..|C-4 LF.F ....|C-5 2F.F ....|C-4 2C.F ....
....|..|C-2 2F.A ....|C-5 2F.A ....|C-4 2F.A ....
....|..|C-2 2F.7 ....|C-5 2F.7 ....|C-4 2F.7 ....
 C-3|..|C-4 LF.F ....|C-5 2F.F ....|C-4 2C.F ....
....|..|C-2 2F.A ....|G-4 2F.F ....|C-4 2F.A ....
....|..|C-2 2F.7 ....|C-5 2F.7 ....|C-4 2F.7 ....
 C-3|..|C-4 AF.F ....|C-5 2F.F ....|C-4 2C.F ....
....|..|C-2 2F.A ....|C-5 2F.A ....|C-4 2F.A ....
....|..|C-4 AF.F ....|C-5 2F.7 ....|C-4 2F.7 ....
 D#4|..|C-4 LF.F ....|C-5 2F.F ....|D#4 2C.F ....
....|..|C-2 2F.A ....|G-4 2F.F ....|C-4 2F.A ....
....|..|C-2 2F.7 ....|C-5 2F.7 ....|C-4 2F.7 ....
 D#4|..|C-4 LF.F ....|C-5 2F.F ....|D#4 2C.F ....
....|..|A#1 2F.A ....|C-5 2F.A ....|D#4 2F.A ....
....|..|C-2 2F.7 ....|C-5 2F.7 ....|C-4 2F.7 ....
 C-3|..|C-4 AF.F ....|C-5 2F.F ....|C-4 2C.F ....
....|..|C-2 2F.A ....|C-5 2F.A ....|D#4 2F.A ....
....|..|A#1 2F.7 ....|C-5 2F.7 ....|D#4 2F.7 ....
 C-3|..|C-4 LF.F ....|C-5 2F.F ....|C-4 2C.F ....
....|..|C-4 LF.F ....|G-4 2F.F ....|C-4 2F.A ....
....|..|C-2 2F.7 ....|C-5 2F.7 ....|D#4 2F.7 ....
 C-3|..|C-5 VF.F ....|C-5 2F.F ....|C-4 2C.F ....
....|..|C-2 2F.A ....|C-5 2F.A ....|C-4 2F.A ....
....|..|C-5 VF.F ....|C-5 2F.7 ....|C-4 2F.7 ....
 C-3|..|C-4 LF.F ....|R-- .... ....|C-4 2C.F ....
....|..|C-2 2F.A ....|C-5 2F.A ....|C-4 2F.A ....
....|..|C-2 2F.7 ....|C-5 2F.7 ....|C-4 2F.7 ....
 C-3|..|C-4 LF.F ....|C-5 2F.F ....|C-4 2C.F ....
....|..|C-2 2F.A ....|G-4 2F.F ....|C-4 2F.A ....
....|..|C-2 2F.7 ....|C-5 2F.7 ....|C-4 2F.7 ....
 C-3|..|C-4 LF.F ....|C-5 2F.F ....|C-4 2C.F ....
....|..|C-2 2F.A ....|C-5 2F.A ....|C-4 2F.A ....
....|..|C-2 2F.7 ....|G-4 2F.A ....|C-4 2F.7 ....
 C-3|..|C-4 AF.F ....|C-5 2F.F ....|C-4 2C.F ....
....|..|C-4 LF.F ....|G-4 2F.F ....|C-4 2F.A ....
....|..|C-2 2F.7 ....|C-5 2F.7 ....|C-4 2F.7 ....
 C-3|..|C-4 LF.F ....|C-5 2F.F ....|C-4 2C.F ....
....|..|C-4 LF.F ....|C-5 2F.A ....|C-4 2F.A ....
....|..|C-2 2F.7 ....|C-5 2F.7 ....|C-4 2F.7 ....
 C-3|..|C-4 LF.F ....|R-- .... ....|C-4 2C.F ....
....|..|C-4 LF.F ....|C-5 2F.F ....|C-4 2F.A ....
....|..|C-2 2F.7 ....|C-5 2F.7 ....|C-4 2F.7 ....
 C-3|..|C-4 LF.F ....|C-5 2F.F ....|C-4 2C.F ....
....|..|C-4 LF.F ....|G-4 2F.F ....|C-4 2F.A ....
....|..|C-2 2F.7 ....|C-5 2F.7 ....|C-4 2F.7 ....
 C-3|..|C-5 VF.F ....|C-5 2F.F ....|C-4 2C.F ....
....|..|C-2 2F.A ....|C-5 2F.A ....|C-4 2F.A ....
....|..|C-5 VF.F ....|G-4 2F.A ....|C-4 2F.7 ....
 C-3|..|C-4 LF.F ....|C-5 2F.7 ....|C-4 2C.F ....
....|..|C-2 2F.A ....|C-5 2F.A ....|C-4 2F.A ....
....|..|C-2 2F.7 ....|C-5 2F.7 ....|C-4 2F.7 ....
 C-3|..|C-4 LF.F ....|C-5 2F.F ....|C-4 2C.F ....
....|..|C-2 2F.A ....|G-4 2F.F ....|C-4 2F.A ....
....|..|C-2 2F.7 ....|C-5 2F.7 ....|C-4 2F.7 ....
 C-3|..|C-4 AF.F ....|C-5 2F.F ....|C-4 2C.F ....
....|..|C-2 2F.A ....|C-5 2F.A ....|C-4 2F.A ....
....|..|C-4 AF.F ....|G-4 2F.A ....|C-4 2F.7 ....
 D#4|..|C-4 LF.F ....|C-5 2F.F ....|D#4 2C.F ....
....|..|C-2 2F.A ....|G-4 2F.F ....|C-4 2F.A ....
....|..|C-2 2F.7 ....|C-5 2F.7 ....|C-4 2F.7 ....
 D#4|..|C-4 LF.F ....|C-5 2F.F ....|D#4 2C.F ....
 C-3|..|C-4 2C.F ....|C-5 2F.A ....|D#4 2F.A ....
....|..|C-2 2F.7 ....|C-5 2F.7 ....|C-4 2F.7 ....
 C-3|..|C-4 AF.F ....|C-5 2F.F ....|C-4 2C.F ....
 C-3|..|C-4 2C.F ....|C-5 2F.A ....|D#4 2F.A ....
....|..|C-4 2F.A ....|C-5 2F.7 ....|D#4 2F.7 ....
 C-3|..|C-4 LF.F ....|C-5 2F.F ....|C-4 2C.F ....
....|..|C-4 LF.F ....|G-4 2F.F ....|C-4 2F.A ....
 C-3|..|C-4 2C.F ....|C-5 2F.7 ....|D#4 2F.7 ....
 C-3|..|C-5 VF.F ....|C-5 2F.F ....|C-4 2C.F ....
....|..|C-4 2F.A ....|C-5 2F.A ....|C-4 2F.A ....
....|..|C-5 VF.F ....|C-5 2F.7 ....|C-4 2F.7 ....
 C-3|..|C-4 LF.F ....|C-5 2F.F ....|C-4 2C.F ....
....|..|C-4 2F.A ....|C-5 2F.A ....|C-4 2F.A ....
....|..|C-4 2F.7 ....|C-5 2F.7 ....|C-4 2F.7 ....
 C-3|..|C-4 LF.F ....|C-5 2F.F ....|C-4 2C.F ....
....|..|D#4 2F.A ....|C-5 2F.A ....|C-4 2F.A ....
....|..|C-4 2F.7 ....|C-5 2F.7 ....|C-4 2F.7 ....
 C-3|..|C-4 LF.F ....|C-5 2F.F ....|C-4 2C.F ....
....|..|C-4 2F.A ....|C-5 2F.A ....|C-4 2F.A ....
....|..|C-2 2F.7 ....|C-5 2F.7 ....|C-4 2F.7 ....

[Pattern45]
 A#3|..|C-4 AF.F ....|A#2 2C.F ....|G-6 2F.F ....
....|..|C-4 AF.F ....|C-5 2F.A ....|C-4 2F.A ....
 C-3|..|C-4 2C.F ....|C-5 2F.7 ....|C-4 2F.7 ....
 C-3|..|C-4 LF.F ....|C-3 2C.F ....|R-- .... ....
....|..|C-4 2F.A ....|A#2 2F.A ....|G-6 2F.A ....
....|..|C-4 LF.F ....|C-5 2F.7 ....|C-4 2F.7 ....
 C-3|..|C-4 LF.F ....|C-3 2C.F ....|R-- .... ....
....|..|C-4 LF.F ....|C-3 2F.A ....|--- .... ....
....|..|C-4 2F.7 ....|A#2 2F.7 ....|G-6 2F.7 ....
 C-3|..|C-4 LF.F ....|C-3 2C.F ....|--- .... ....
....|..|C-4 LF.F ....|C-3 2F.A ....|--- .... ....
....|..|C-2 2F.7 ....|C-3 2F.7 ....|--- .... ....
 C-3|..|C-5 VF.F ....|C-3 2C.F ....|--- .... ....
....|..|C-2 2F.A ....|C-3 2F.A ....|--- .... ....
....|..|C-5 VF.F ....|C-3 2F.7 ....|--- .... ....
 C-3|..|C-4 LF.F ....|C-3 2C.F ....|--- .... ....
....|..|C-2 2F.A ....|C-3 2F.A ....|--- .... ....
....|..|C-2 2F.7 ....|C-3 2F.7 ....|--- .... ....
....|..|C-4 LF.F ....|--- .... ....|--- .... ....
....|..|C-2 2F.A ....|C-3 2F.A ....|--- .... ....
....|..|C-2 2F.7 ....|C-3 2F.7 ....|--- .... ....
 C-3|..|C-4 AF.F ....|C-3 2C.F ....|--- .... ....
....|..|C-2 2F.A ....|R-- .... ....|--- .... ....
....|..|C-4 AF.F ....|C-3 2F.7 ....|--- .... ....
 C-3|..|C-4 LF.F ....|C-3 2C.F ....|--- .... ....
....|..|C-2 2F.A ....|C-3 2F.A ....|--- .... ....
....|..|C-2 2F.7 ....|R-- .... ....|--- .... ....
 C-3|..|C-4 LF.F ....|C-3 2C.F ....|--- .... ....
....|..|A#1 2F.A ....|C-3 2F.A ....|--- .... ....
....|..|C-4 LF.F ....|C-3 2F.7 ....|--- .... ....
 C-3|..|C-4 AF.F ....|C-3 2C.F ....|--- .... ....
....|..|C-2 2F.A ....|C-3 2F.A ....|--- .... ....
....|..|C-4 AF.F ....|C-3 2F.7 ....|--- .... ....
 C-3|..|C-4 LF.F ....|C-3 2C.F ....|--- .... ....
....|..|C-4 LF.F ....|C-3 2F.A ....|--- .... ....
....|..|C-2 2F.7 ....|C-3 2F.7 ....|--- .... ....
 C-3|..|C-5 VF.F ....|C-3 2C.F ....|--- .... ....
....|..|C-2 2F.A ....|C-3 2F.A ....|--- .... ....
....|..|C-5 VF.F ....|C-3 2F.7 ....|--- .... ....
 C-3|..|C-4 LF.F ....|C-3 2C.F ....|--- .... ....
....|..|C-2 2F.A ....|C-3 2F.A ....|--- .... ....
....|..|C-2 2F.7 ....|C-3 2F.7 ....|--- .... ....
....|..|C-4 LF.F ....|R-- .... ....|--- .... ....
....|..|C-2 2F.A ....|C-3 2F.A ....|--- .... ....
....|..|C-2 2F.7 ....|C-3 2F.7 ....|--- .... ....
 C-3|..|C-4 LF.F ....|C-3 2C.F ....|--- .... ....
....|..|C-2 2F.A ....|R-- .... ....|--- .... ....
....|..|C-2 2F.7 ....|C-3 2F.7 ....|--- .... ....
 A#3|..|C-4 AF.F ....|A#2 2C.F ....|G#6 2F.F ....
....|..|C-4 AF.F ....|C-3 2F.A ....|--- .... ....
....|..|C-4 AF.F ....|R-- .... ....|G#6 2F.F ....
 C-3|..|C-4 LF.F ....|C-3 2C.F ....|--- .... ....
....|..|C-4 LF.F ....|A#2 2F.A ....|G#6 2F.A ....
....|..|C-2 2F.7 ....|C-3 2F.7 ....|--- .... ....
 C-3|..|C-4 LF.F ....|C-3 2C.F ....|G#6 2F.A ....
....|..|C-4 LF.F ....|C-3 2F.A ....|--- .... ....
....|..|C-2 2F.7 ....|A#2 2F.7 ....|G#6 2F.7 ....
 C-3|..|C-4 LF.F ....|C-3 2C.F ....|--- .... ....
....|..|C-2 2F.A ....|C-3 2F.A ....|G#6 2F.7 ....
....|..|C-4 LF.F ....|C-3 2F.7 ....|--- .... ....
 C-3|..|C-5 VF.F ....|C-3 2C.F ....|--- .... ....
....|..|C-2 2F.A ....|C-3 2F.A ....|--- .... ....
....|..|C-2 2F.7 ....|C-3 2F.7 ....|--- .... ....
 C-3|..|C-4 LF.F ....|C-3 2C.F ....|--- .... ....
....|..|C-2 2F.A ....|C-3 2F.A ....|--- .... ....
....|..|C-2 2F.7 ....|C-3 2F.7 ....|--- .... ....
....|..|C-4 LF.F ....|R-- .... ....|--- .... ....
....|..|C-2 2F.A ....|C-3 2F.A ....|--- .... ....
....|..|C-2 2F.7 ....|C-3 2F.7 ....|--- .... ....
 C-3|..|C-4 AF.F ....|C-3 2C.F ....|--- .... ....
....|..|C-2 2F.A ....|R-- .... ....|--- .... ....
....|..|C-4 AF.F ....|C-3 2F.7 ....|--- .... ....
 C-3|..|C-4 LF.F ....|C-3 2C.F ....|--- .... ....
 C-3|..|C-4 2C.F ....|C-3 2F.A ....|--- .... ....
....|..|C-2 2F.7 ....|R-- .... ....|--- .... ....
 C-3|..|C-4 LF.F ....|C-3 2C.F ....|--- .... ....
....|..|C-4 2F.A ....|C-3 2F.A ....|--- .... ....
....|..|C-4 LF.F ....|C-3 2F.7 ....|--- .... ....
 C-3|..|C-4 AF.F ....|C-3 2C.F ....|--- .... ....
 D-4|..|D-4 2C.F ....|C-3 2F.A ....|--- .... ....
....|..|C-4 AF.F ....|C-3 2F.7 ....|--- .... ....
 C-3|..|C-4 LF.F ....|C-3 2C.F ....|--- .... ....
....|..|C-4 LF.F ....|C-3 2F.A ....|--- .... ....
....|..|C-4 2F.7 ....|C-3 2F.7 ....|--- .... ....
 C-3|..|C-5 VF.F ....|C-3 2C.F ....|--- .... ....
....|..|D-4 2F.A ....|C-3 2F.A ....|--- .... ....
....|..|D-4 2F.7 ....|C-3 2F.7 ....|--- .... ....
 C-3|..|C-4 LF.F ....|C-3 2C.F ....|--- .... ....
....|..|C-2 2F.A ....|C-3 2F.A ....|--- .... ....
....|..|C-2 2F.7 ....|C-3 2F.7 ....|--- .... ....
 C-3|..|C-4 LF.F ....|C-3 2C.F ....|--- .... ....
 D#4|..|D#4 2C.F ....|C-3 2F.A ....|--- .... ....
....|..|C-2 2F.7 ....|C-3 2F.7 ....|--- .... ....
 C-3|..|C-4 AF.F ....|C-3 2C.F ....|--- .... ....
....|..|C-4 LF.F ....|C-3 2F.A ....|--- .... ....
....|..|D#4 2F.A ....|C-3 2F.7 ....|--- .... ....

[Pattern46]
 C-3|..|C-4 AF.F ....|C-3 2C.F ....|A-6 2F.F ....
....|..|C-4 AF.F ....|C-3 2F.A ....|--- .... ....
....|..|D#4 2F.7 ....|C-3 2F.7 ....|--- .... ....
 C-3|..|C-4 LF.F ....|C-3 2C.F ....|--- .... ....
....|..|C-4 LF.F ....|C-3 2F.A ....|A-6 2F.A ....
....|..|C-2 2F.7 ....|C-3 2F.7 ....|--- .... ....
 C-3|..|C-4 LF.F ....|C-3 2C.F ....|--- .... ....
 D-4|..|D-4 2C.F ....|C-3 2F.A ....|--- .... ....
....|..|C-2 2F.7 ....|C-3 2F.7 ....|A-6 2F.7 ....
....|..|C-4 LF.F ....|R-- .... ....|--- .... ....
....|..|C-4 LF.F ....|C-3 2F.A ....|--- .... ....
....|..|D-4 2F.A ....|C-3 2F.7 ....|--- .... ....
 C-3|..|C-5 VF.F ....|C-3 2C.F ....|--- .... ....
....|..|C-2 2F.A ....|R-- .... ....|--- .... ....
....|..|C-5 VF.F ....|C-3 2F.7 ....|--- .... ....
 C-3|..|C-4 LF.F ....|C-3 2C.F ....|--- .... ....
....|..|C-2 2F.A ....|C-3 2F.A ....|--- .... ....
....|..|C-2 2F.7 ....|R-- .... ....|--- .... ....
....|..|C-4 LF.F ....|--- .... ....|--- .... ....
 C-3|..|C-4 2C.F ....|C-3 2F.A ....|--- .... ....
....|..|C-2 2F.7 ....|C-3 2F.7 ....|--- .... ....
 C-3|..|C-4 AF.F ....|C-3 2C.F ....|--- .... ....
....|..|C-4 2F.A ....|R-- .... ....|--- .... ....
....|..|C-4 AF.F ....|C-3 2F.7 ....|--- .... ....
 C-3|..|C-4 LF.F ....|C-3 2C.F ....|--- .... ....
....|..|C-2 2F.A ....|C-3 2F.A ....|--- .... ....
....|..|C-4 2F.7 ....|R-- .... ....|--- .... ....
 C-3|..|C-4 LF.F ....|C-3 2C.F ....|--- .... ....
....|..|A#1 2F.A ....|C-3 2F.A ....|--- .... ....
....|..|C-2 2F.7 ....|C-3 2F.7 ....|--- .... ....
 C-3|..|C-4 AF.F ....|C-3 2C.F ....|--- .... ....
 A#3|..|A#3 2C.F ....|C-3 2F.A ....|--- .... ....
....|..|A#1 2F.7 ....|C-3 2F.7 ....|--- .... ....
 C-3|..|C-4 LF.F ....|C-3 2C.F ....|--- .... ....
....|..|C-4 LF.F ....|C-3 2F.A ....|--- .... ....
 A#3|..|A#3 2C.F ....|C-3 2F.7 ....|--- .... ....
 C-3|..|C-5 VF.F ....|C-3 2C.F ....|--- .... ....
....|..|A#3 2F.A ....|C-3 2F.A ....|--- .... ....
....|..|C-5 VF.F ....|C-3 2F.7 ....|--- .... ....
 C-3|..|C-4 LF.F ....|C-3 2C.F ....|--- .... ....
....|..|A#3 2F.A ....|C-3 2F.A ....|--- .... ....
....|..|A#3 2F.7 ....|C-3 2F.7 ....|--- .... ....
 C-3|..|C-4 LF.F ....|C-3 2C.F ....|--- .... ....
....|..|C-2 2F.A ....|C-3 2F.A ....|--- .... ....
 G-4|..|G-3 2C.F ....|C-3 2F.7 ....|--- .... ....
 C-3|..|C-4 LF.F ....|C-3 2C.F ....|--- .... ....
....|..|G-3 2F.A ....|C-3 2F.A ....|--- .... ....
....|..|C-2 2F.7 ....|C-3 2F.7 ....|--- .... ....
 C-3|..|C-4 AF.F ....|C-3 2C.F ....|G#6 2F.F ....
....|..|C-4 LF.F ....|C-3 2F.A ....|--- .... ....
 G-4|..|G-3 2C.F ....|C-3 2F.7 ....|--- .... ....
 C-3|..|C-4 LF.F ....|C-3 2C.F ....|--- .... ....
....|..|C-4 LF.F ....|C-3 2F.A ....|G#6 2F.A ....
....|..|G-3 2F.7 ....|C-3 2F.7 ....|--- .... ....
 C-3|..|C-4 LF.F ....|C-3 2C.F ....|--- .... ....
....|..|C-4 LF.F ....|C-3 2F.A ....|--- .... ....
....|..|F-3 2F.A ....|C-3 2F.7 ....|G#6 2F.7 ....
 C-3|..|C-4 LF.F ....|C-3 2C.F ....|--- .... ....
....|..|C-4 LF.F ....|C-3 2F.A ....|--- .... ....
....|..|G-3 2F.7 ....|C-3 2F.7 ....|--- .... ....
 C-3|..|C-5 VF.F ....|C-3 2C.F ....|--- .... ....
....|..|C-2 2F.A ....|C-3 2F.A ....|--- .... ....
....|..|C-5 VF.F ....|C-3 2F.7 ....|--- .... ....
 C-3|..|C-4 LF.F ....|C-3 2C.F ....|--- .... ....
....|..|C-2 2F.A ....|C-3 2F.A ....|--- .... ....
....|..|C-2 2F.7 ....|C-3 2F.7 ....|--- .... ....
 C-3|..|C-4 LF.F ....|C-3 2C.F ....|--- .... ....
....|..|C-2 2F.A ....|C-3 2F.A ....|--- .... ....
....|..|C-2 2F.7 ....|C-3 2F.7 ....|--- .... ....
 C-3|..|C-4 AF.F ....|C-3 2C.F ....|--- .... ....
....|..|C-2 2F.A ....|C-3 2F.A ....|--- .... ....
....|..|C-4 AF.F ....|C-3 2F.7 ....|--- .... ....
 C-3|..|C-4 LF.F ....|C-3 2C.F ....|--- .... ....
....|..|C-2 2F.A ....|C-3 2F.A ....|--- .... ....
....|..|C-2 2F.7 ....|C-3 2F.7 ....|--- .... ....
 C-3|..|C-4 LF.F ....|C-3 2C.F ....|--- .... ....
....|..|A#1 2F.A ....|C-3 2F.A ....|--- .... ....
....|..|C-2 2F.7 ....|C-3 2F.7 ....|--- .... ....
 C-3|..|C-4 AF.F ....|C-3 2C.F ....|--- .... ....
 C-3|..|C-4 2C.F ....|C-3 2F.A ....|--- .... ....
....|..|A#1 2F.7 ....|C-3 2F.7 ....|--- .... ....
 C-3|..|C-4 LF.F ....|C-3 2C.F ....|--- .... ....
....|..|C-4 LF.F ....|C-3 2F.A ....|--- .... ....
....|..|C-4 2F.A ....|C-3 2F.7 ....|--- .... ....
 C-3|..|C-5 VF.F ....|C-3 2C.F ....|--- .... ....
 D#4|..|D#4 2C.F ....|C-3 2F.A ....|--- .... ....
....|..|C-5 VF.F ....|C-3 2F.7 ....|--- .... ....
 C-3|..|C-4 LF.F ....|C-3 2C.F ....|--- .... ....
....|..|D#4 2F.A ....|C-3 2F.A ....|--- .... ....
....|..|C-2 2F.7 ....|C-3 2F.7 ....|--- .... ....
 C-3|..|C-4 LF.F ....|C-3 2C.F ....|--- .... ....
 C-3|..|C-4 2C.F ....|C-3 2F.A ....|--- .... ....
....|..|D#4 2F.7 ....|C-3 2F.7 ....|--- .... ....
 C-3|..|C-4 LF.F ....|C-3 2C.F ....|--- .... ....
....|..|C-4 2F.A ....|C-3 2F.A ....|--- .... ....
....|..|C-2 2F.7 ....|C-3 2F.7 ....|--- .... ....

[Pattern47]
 A#3|..|C-4 AF.F ....|A#2 2C.F ....|G#6 2F.F ....
....|..|C-4 AF.F ....|C-3 2F.A ....|G-6 2F.F ....
 C-3|..|C-4 2C.F ....|C-3 2F.7 ....|--- .... ....
 C-3|..|C-4 LF.F ....|C-3 2C.F ....|--- .... ....
....|..|C-4 2F.A ....|A#2 2F.A ....|G#6 2F.A ....
....|..|C-4 LF.F ....|C-3 2F.7 ....|G-6 2F.A ....
 C-3|..|C-4 LF.F ....|C-3 2C.F ....|--- .... ....
....|..|C-4 LF.F ....|C-3 2F.A ....|--- .... ....
....|..|C-4 2F.7 ....|A#2 2F.7 ....|G#6 2F.7 ....
 C-3|..|C-4 LF.F ....|C-3 2C.F ....|G-6 2F.7 ....
....|..|C-4 LF.F ....|C-3 2F.A ....|--- .... ....
....|..|C-2 2F.7 ....|C-3 2F.7 ....|--- .... ....
 C-3|..|C-5 VF.F ....|C-3 2C.F ....|--- .... ....
....|..|C-2 2F.A ....|C-3 2F.A ....|--- .... ....
....|..|C-5 VF.F ....|C-3 2F.7 ....|--- .... ....
 C-3|..|C-4 LF.F ....|C-3 2C.F ....|--- .... ....
....|..|C-2 2F.A ....|C-3 2F.A ....|--- .... ....
....|..|C-2 2F.7 ....|C-3 2F.7 ....|--- .... ....
....|..|C-4 LF.F ....|--- .... ....|--- .... ....
....|..|C-2 2F.A ....|C-3 2F.A ....|--- .... ....
....|..|C-2 2F.7 ....|C-3 2F.7 ....|--- .... ....
 C-3|..|C-4 AF.F ....|C-3 2C.F ....|--- .... ....
....|..|C-2 2F.A ....|R-- .... ....|--- .... ....
....|..|C-4 AF.F ....|C-3 2F.7 ....|--- .... ....
 C-3|..|C-4 LF.F ....|C-3 2C.F ....|--- .... ....
....|..|C-2 2F.A ....|C-3 2F.A ....|--- .... ....
....|..|C-2 2F.7 ....|R-- .... ....|--- .... ....
 C-3|..|C-4 LF.F ....|C-3 2C.F ....|--- .... ....
....|..|A#1 2F.A ....|C-3 2F.A ....|--- .... ....
....|..|C-4 LF.F ....|C-3 2F.7 ....|--- .... ....
 C-3|..|C-4 AF.F ....|C-3 2C.F ....|--- .... ....
....|..|C-2 2F.A ....|C-3 2F.A ....|--- .... ....
....|..|C-4 AF.F ....|C-3 2F.7 ....|--- .... ....
 C-3|..|C-4 LF.F ....|C-3 2C.F ....|--- .... ....
....|..|C-4 LF.F ....|C-3 2F.A ....|--- .... ....
....|..|C-2 2F.7 ....|C-3 2F.7 ....|--- .... ....
 C-3|..|C-5 VF.F ....|C-3 2C.F ....|--- .... ....
....|..|C-2 2F.A ....|C-3 2F.A ....|--- .... ....
....|..|C-5 VF.F ....|C-3 2F.7 ....|--- .... ....
 C-3|..|C-4 LF.F ....|C-3 2C.F ....|--- .... ....
....|..|C-2 2F.A ....|C-3 2F.A ....|--- .... ....
....|..|C-2 2F.7 ....|C-3 2F.7 ....|--- .... ....
....|..|C-4 LF.F ....|R-- .... ....|--- .... ....
....|..|C-2 2F.A ....|C-3 2F.A ....|--- .... ....
....|..|C-2 2F.7 ....|C-3 2F.7 ....|--- .... ....
 C-3|..|C-4 LF.F ....|C-3 2C.F ....|--- .... ....
....|..|C-2 2F.A ....|R-- .... ....|--- .... ....
....|..|C-2 2F.7 ....|C-3 2F.7 ....|--- .... ....
 A#3|..|C-4 AF.F ....|A#2 2C.F ....|G#6 2F.F ....
....|..|C-4 AF.F ....|C-3 2F.A ....|G#6 2F.F ....
....|..|C-4 AF.F ....|R-- .... ....|--- .... ....
 C-3|..|C-4 LF.F ....|C-3 2C.F ....|--- .... ....
....|..|C-4 LF.F ....|A#2 2F.A ....|G#6 2F.A ....
....|..|C-2 2F.7 ....|C-3 2F.7 ....|G#6 2F.A ....
 C-3|..|C-4 LF.F ....|C-3 2C.F ....|--- .... ....
....|..|C-4 LF.F ....|C-3 2F.A ....|--- .... ....
....|..|C-2 2F.7 ....|A#2 2F.7 ....|G#6 2F.7 ....
 C-3|..|C-4 LF.F ....|C-3 2C.F ....|G#6 2F.7 ....
....|..|C-2 2F.A ....|C-3 2F.A ....|--- .... ....
....|..|C-4 LF.F ....|C-3 2F.7 ....|--- .... ....
 C-3|..|C-5 VF.F ....|C-3 2C.F ....|--- .... ....
....|..|C-2 2F.A ....|C-3 2F.A ....|--- .... ....
....|..|C-2 2F.7 ....|C-3 2F.7 ....|--- .... ....
 C-3|..|C-4 LF.F ....|C-3 2C.F ....|--- .... ....
....|..|C-2 2F.A ....|C-3 2F.A ....|--- .... ....
....|..|C-2 2F.7 ....|C-3 2F.7 ....|--- .... ....
....|..|C-4 LF.F ....|R-- .... ....|--- .... ....
....|..|C-2 2F.A ....|C-3 2F.A ....|--- .... ....
....|..|C-2 2F.7 ....|C-3 2F.7 ....|--- .... ....
 C-3|..|C-4 AF.F ....|C-3 2C.F ....|--- .... ....
....|..|C-2 2F.A ....|R-- .... ....|--- .... ....
....|..|C-4 AF.F ....|C-3 2F.7 ....|--- .... ....
 C-3|..|C-4 LF.F ....|C-3 2C.F ....|--- .... ....
 C-3|..|C-4 2C.F ....|C-3 2F.A ....|--- .... ....
....|..|C-2 2F.7 ....|R-- .... ....|--- .... ....
 C-3|..|C-4 LF.F ....|C-3 2C.F ....|--- .... ....
....|..|C-4 2F.A ....|C-3 2F.A ....|--- .... ....
....|..|C-4 LF.F ....|C-3 2F.7 ....|--- .... ....
 C-3|..|C-4 AF.F ....|C-3 2C.F ....|--- .... ....
 D-4|..|D-4 2C.F ....|C-3 2F.A ....|--- .... ....
....|..|C-4 AF.F ....|C-3 2F.7 ....|--- .... ....
 C-3|..|C-4 LF.F ....|C-3 2C.F ....|--- .... ....
....|..|C-4 LF.F ....|C-3 2F.A ....|--- .... ....
....|..|C-4 2F.7 ....|C-3 2F.7 ....|--- .... ....
 C-3|..|C-5 VF.F ....|C-3 2C.F ....|--- .... ....
....|..|D-4 2F.A ....|C-3 2F.A ....|--- .... ....
....|..|D-4 2F.7 ....|C-3 2F.7 ....|--- .... ....
 C-3|..|C-4 LF.F ....|C-3 2C.F ....|--- .... ....
....|..|C-2 2F.A ....|C-3 2F.A ....|--- .... ....
....|..|C-2 2F.7 ....|C-3 2F.7 ....|--- .... ....
 C-3|..|C-4 LF.F ....|C-3 2C.F ....|--- .... ....
 D#4|..|D#4 2C.F ....|C-3 2F.A ....|--- .... ....
 D#4|..|D#4 2C.F ....|C-3 2F.7 ....|--- .... ....
 C-3|..|C-4 AF.F ....|C-3 2C.F ....|--- .... ....
....|..|C-4 LF.F ....|C-3 2F.A ....|--- .... ....
....|..|D#4 2F.A ....|C-3 2F.7 ....|--- .... ....

[Pattern48]
 C-3|..|C-4 AF.F ....|C-3 2C.F ....|A-6 2F.F ....
....|..|C-4 AF.F ....|C-3 2F.A ....|A-6 2F.F ....
....|..|D#4 2F.A ....|C-3 2F.7 ....|--- .... ....
 C-3|..|C-4 LF.F ....|C-3 2C.F ....|--- .... ....
....|..|C-4 LF.F ....|C-3 2F.A ....|A-6 2F.A ....
....|..|D#4 2F.7 ....|C-3 2F.7 ....|A-6 2F.A ....
 C-3|..|C-4 LF.F ....|C-3 2C.F ....|--- .... ....
 D#4|..|D#4 2C.F ....|C-3 2F.A ....|--- .... ....
....|..|C-2 2F.7 ....|C-3 2F.7 ....|A-6 2F.7 ....
....|..|C-4 LF.F ....|R-- .... ....|A-6 2F.7 ....
....|..|C-4 LF.F ....|C-3 2F.A ....|--- .... ....
....|..|D#4 2F.A ....|C-3 2F.7 ....|--- .... ....
 C-3|..|C-5 VF.F ....|C-3 2C.F ....|--- .... ....
 D#4|..|D#4 2C.F ....|R-- .... ....|--- .... ....
....|..|C-5 VF.F ....|C-3 2F.7 ....|--- .... ....
 C-3|..|C-4 LF.F ....|C-3 2C.F ....|--- .... ....
 D-4|..|D-4 2C.F ....|C-3 2F.A ....|--- .... ....
....|..|D-4 2F.A ....|R-- .... ....|--- .... ....
....|..|C-4 LF.F ....|--- .... ....|--- .... ....
....|..|D#4 2F.A ....|C-3 2F.A ....|--- .... ....
 D-4|..|D-4 2C.F ....|C-3 2F.7 ....|--- .... ....
 C-3|..|C-4 AF.F ....|C-3 2C.F ....|--- .... ....
....|..|D-4 2F.A ....|R-- .... ....|--- .... ....
....|..|C-4 AF.F ....|C-3 2F.7 ....|--- .... ....
 C-3|..|C-4 LF.F ....|C-3 2C.F ....|--- .... ....
 G-4|..|G-3 2C.F ....|C-3 2F.A ....|--- .... ....
....|..|D-4 2F.7 ....|R-- .... ....|--- .... ....
 C-3|..|C-4 LF.F ....|C-3 2C.F ....|--- .... ....
....|..|G-3 2F.A ....|C-3 2F.A ....|--- .... ....
....|..|C-2 2F.7 ....|C-3 2F.7 ....|--- .... ....
 C-3|..|C-4 AF.F ....|C-3 2C.F ....|--- .... ....
....|..|C-2 2F.A ....|C-3 2F.A ....|--- .... ....
....|..|G-3 2F.7 ....|C-3 2F.7 ....|--- .... ....
 C-3|..|C-4 LF.F ....|C-3 2C.F ....|--- .... ....
....|..|C-4 LF.F ....|C-3 2F.A ....|--- .... ....
....|..|C-2 2F.7 ....|C-3 2F.7 ....|--- .... ....
 C-3|..|C-5 VF.F ....|C-3 2C.F ....|--- .... ....
 F-4|..|F-3 2C.F ....|C-3 2F.A ....|--- .... ....
....|..|C-5 VF.F ....|C-3 2F.7 ....|--- .... ....
 C-3|..|C-4 LF.F ....|C-3 2C.F ....|--- .... ....
....|..|F-3 2F.A ....|C-3 2F.A ....|--- .... ....
....|..|C-2 2F.7 ....|C-3 2F.7 ....|--- .... ....
 C-3|..|C-4 LF.F ....|C-3 2C.F ....|--- .... ....
 F-4|..|F-3 2C.F ....|C-3 2F.A ....|--- .... ....
....|..|F-3 2F.7 ....|C-3 2F.7 ....|--- .... ....
 C-3|..|C-4 LF.F ....|C-3 2C.F ....|--- .... ....
....|..|F-3 2F.A ....|C-3 2F.A ....|--- .... ....
....|..|C-2 2F.7 ....|C-3 2F.7 ....|--- .... ....
 C-3|..|C-4 AF.F ....|C-3 2C.F ....|G#6 2F.F ....
....|..|C-4 LF.F ....|C-3 2F.A ....|--- .... ....
....|..|F-3 2F.7 ....|C-3 2F.7 ....|--- .... ....
 C-3|..|C-4 LF.F ....|C-3 2C.F ....|--- .... ....
....|..|C-4 LF.F ....|C-3 2F.A ....|G#6 2F.A ....
....|..|C-2 2F.7 ....|C-3 2F.7 ....|--- .... ....
 C-3|..|C-4 LF.F ....|C-3 2C.F ....|--- .... ....
....|..|C-4 LF.F ....|C-3 2F.A ....|--- .... ....
 D#4|..|D#3 2C.F ....|C-3 2F.7 ....|G#6 2F.7 ....
 C-3|..|C-4 LF.F ....|C-3 2C.F ....|--- .... ....
....|..|C-4 LF.F ....|C-3 2F.A ....|--- .... ....
....|..|D#3 2F.A ....|C-3 2F.7 ....|--- .... ....
 C-3|..|C-5 VF.F ....|C-3 2C.F ....|--- .... ....
....|..|C-2 2F.A ....|C-3 2F.A ....|--- .... ....
....|..|C-5 VF.F ....|C-3 2F.7 ....|--- .... ....
 C-3|..|C-4 LF.F ....|C-3 2C.F ....|--- .... ....
....|..|C-2 2F.A ....|C-3 2F.A ....|--- .... ....
....|..|C-2 2F.7 ....|C-3 2F.7 ....|--- .... ....
 C-3|..|C-4 LF.F ....|C-3 2C.F ....|--- .... ....
....|..|C-2 2F.A ....|C-3 2F.A ....|--- .... ....
....|..|C-2 2F.F ....|C-3 2F.7 ....|--- .... ....
 C-3|..|C-4 AF.F ....|C-3 2C.F ....|--- .... ....
....|..|C-2 2F.A ....|C-3 2F.A ....|--- .... ....
....|..|C-4 AF.F ....|C-3 2F.7 ....|--- .... ....
 C-3|..|C-4 LF.F ....|C-3 2C.F ....|--- .... ....
....|..|A#1 2F.A ....|C-3 2F.A ....|--- .... ....
....|..|C-2 2F.F ....|C-3 2F.7 ....|--- .... ....
 C-3|..|C-4 LF.F ....|C-3 2C.F ....|--- .... ....
....|..|C-2 2F.A ....|C-3 2F.A ....|--- .... ....
....|..|D-2 2F.F ....|C-3 2F.7 ....|--- .... ....
 C-3|..|C-4 AF.F ....|C-3 2C.F ....|--- .... ....
....|..|D-2 2F.A ....|C-3 2F.A ....|--- .... ....
....|..|C-2 2F.F ....|C-3 2F.7 ....|--- .... ....
 C-3|..|C-4 LF.F ....|C-3 2C.F ....|--- .... ....
....|..|C-4 LF.F ....|C-3 2F.A ....|--- .... ....
....|..|C-2 2F.7 ....|C-3 2F.7 ....|--- .... ....
 C-3|..|C-5 VF.F ....|C-3 2C.F ....|--- .... ....
....|..|C-2 2F.A ....|C-3 2F.A ....|--- .... ....
....|..|C-5 VF.F ....|C-3 2F.7 ....|--- .... ....
 C-3|..|C-4 LF.F ....|C-3 2C.F ....|--- .... ....
....|..|C-2 2F.A ....|C-3 2F.A ....|--- .... ....
....|..|C-2 2F.7 ....|C-3 2F.7 ....|--- .... ....
 C-3|..|C-4 LF.F ....|C-3 2C.F ....|--- .... ....
....|..|C-2 2F.A ....|C-3 2F.A ....|--- .... ....
....|..|C-2 2F.7 ....|C-3 2F.7 ....|R-- .... ....
 C-3|..|C-4 LF.F ....|C-3 2C.F ....|--- .... ....
....|..|C-2 2F.A ....|C-3 2F.A ....|--- .... ....
....|..|C-2 2F.7 ....|C-3 2F.7 ....|--- .... ....

[Pattern49]
 A#3|..|C-4 AF.F ....|A#2 2C.F ....|G-4 2F.F ....
 C-3|..|C-4 AF.F ....|C-3 2F.A ....|C-4 2C.F ....
....|..|C-2 2F.7 ....|C-3 2F.7 ....|R-- .... ....
 C-3|..|C-4 LF.F ....|C-4 2C.F ....|C-4 2C.F ....
....|..|C-2 2F.A ....|A#2 2F.A ....|G-4 2F.A ....
....|..|C-4 LF.F ....|C-3 2F.7 ....|C-4 2F.A ....
 C-3|..|C-4 LF.F ....|C-4 2C.F ....|C-4 2C.F ....
....|..|C-4 LF.F ....|C-3 2F.A ....|C-4 2F.A ....
....|..|C-2 2F.7 ....|A#2 2F.7 ....|G-4 2F.7 ....
 C-3|..|C-4 LF.F ....|C-4 2C.F ....|C-4 2C.F ....
....|..|C-4 LF.F ....|C-3 2F.A ....|C-4 2F.A ....
....|..|C-2 2F.7 ....|C-3 2F.7 ....|C-4 2F.7 ....
 C-3|..|C-5 VF.F ....|C-4 2C.F ....|C-4 2C.F ....
....|..|C-2 2F.A ....|C-3 2F.A ....|C-4 2F.A ....
....|..|C-5 VF.F ....|C-3 2F.7 ....|C-4 2F.7 ....
 C-3|..|C-4 LF.F ....|C-4 2C.F ....|C-4 2C.F ....
....|..|C-2 2F.A ....|C-3 2F.A ....|C-4 2F.A ....
....|..|C-2 2F.7 ....|C-3 2F.7 ....|C-4 2F.7 ....
 C-3|..|C-4 LF.F ....|--- .... ....|C-4 2C.F ....
....|..|C-2 2F.A ....|C-3 2F.A ....|C-4 2F.A ....
....|..|C-2 2F.7 ....|C-3 2F.7 ....|C-4 2F.7 ....
 C-3|..|C-4 AF.F ....|C-4 2C.F ....|C-4 2C.F ....
....|..|C-2 2F.A ....|R-- .... ....|C-4 2F.A ....
....|..|C-4 AF.F ....|C-3 2F.7 ....|C-4 2F.7 ....
 C-3|..|C-4 LF.F ....|C-4 2C.F ....|C-4 2C.F ....
....|..|C-2 2F.A ....|C-3 2F.A ....|C-4 2F.A ....
....|..|C-2 2F.7 ....|R-- .... ....|C-4 2F.7 ....
 C-3|..|C-4 LF.F ....|C-4 2C.F ....|C-4 2C.F ....
....|..|C-2 2F.A ....|C-3 2F.A ....|C-4 2F.A ....
....|..|C-4 LF.F ....|C-3 2F.7 ....|C-4 2F.7 ....
 C-3|..|C-4 AF.F ....|C-4 2C.F ....|C-4 2C.F ....
....|..|C-2 2F.A ....|C-3 2F.A ....|C-4 2F.A ....
....|..|C-4 AF.F ....|C-3 2F.7 ....|C-4 2F.7 ....
 C-3|..|C-4 LF.F ....|C-4 2C.F ....|C-4 2C.F ....
....|..|C-4 LF.F ....|C-3 2F.A ....|C-4 2F.A ....
....|..|C-2 2F.7 ....|C-3 2F.7 ....|C-4 2F.7 ....
 C-3|..|C-5 VF.F ....|C-4 2C.F ....|C-4 2C.F ....
 A#3|..|C-2 2F.A ....|A#4 2C.F ....|C-4 2F.A ....
....|..|C-5 VF.F ....|C-3 2F.7 ....|C-4 2F.7 ....
 C-3|..|C-4 LF.F ....|C-4 2C.F ....|C-4 2C.F ....
....|..|C-2 2F.A ....|C-3 2F.A ....|C-4 2F.A ....
....|..|C-2 2F.7 ....|A#4 2F.A ....|C-4 2F.7 ....
 C-3|..|C-4 LF.F ....|R-- .... ....|C-4 2C.F ....
....|..|C-2 2F.A ....|C-3 2F.A ....|C-4 2F.A ....
....|..|C-2 2F.7 ....|C-3 2F.7 ....|C-4 2F.7 ....
 C-3|..|C-4 LF.F ....|C-4 2C.F ....|C-4 2C.F ....
....|..|C-2 2F.A ....|R-- .... ....|C-4 2F.A ....
....|..|C-2 2F.7 ....|C-3 2F.7 ....|C-4 2F.7 ....
 G#4|..|C-4 AF.F ....|G#2 2A.F ....|G-4 2F.F ....
 D#4|..|C-4 AF.F ....|D#4 2C.F ....|A#3 2F.F ....
....|..|C-4 AF.F ....|R-- .... ....|D#4 2F.F ....
 A#3|..|C-4 LF.F ....|A#3 2C.F ....|A#3 2C.F ....
....|..|C-4 LF.F ....|G#2 2F.A ....|G-4 2F.A ....
....|..|C-2 2F.7 ....|D#4 2F.A ....|C-4 2F.7 ....
 A#3|..|C-4 LF.F ....|A#3 2C.F ....|A#3 2C.F ....
....|..|C-4 LF.F ....|A#2 2F.A ....|A#3 2F.A ....
....|..|C-2 2F.7 ....|G#2 2F.7 ....|G-4 2F.7 ....
 A#3|..|C-4 LF.F ....|A#3 2C.F ....|A#3 2C.F ....
....|..|A#1 2F.A ....|A#2 2F.A ....|A#3 2F.A ....
....|..|C-4 LF.F ....|A#2 2F.7 ....|A#3 2F.7 ....
 A#3|..|C-5 VF.F ....|A#3 2C.F ....|A#3 2C.F ....
....|..|A#1 2F.A ....|A#2 2F.A ....|A#3 2F.A ....
....|..|A#1 2F.7 ....|A#2 2F.7 ....|A#3 2F.7 ....
 A#3|..|C-4 LF.F ....|A#3 2C.F ....|A#3 2C.F ....
....|..|A#1 2F.A ....|A#2 2F.A ....|A#3 2F.A ....
....|..|A#1 2F.7 ....|A#2 2F.7 ....|A#3 2F.7 ....
 A#3|..|C-4 LF.F ....|R-- .... ....|A#3 2C.F ....
....|..|A#1 2F.A ....|A#2 2F.A ....|A#3 2F.A ....
....|..|A#1 2F.7 ....|A#2 2F.7 ....|A#3 2F.7 ....
 A#3|..|C-4 AF.F ....|A#3 2C.F ....|A#3 2C.F ....
....|..|A#1 2F.A ....|R-- .... ....|A#3 2F.A ....
....|..|C-4 AF.F ....|A#2 2F.7 ....|A#3 2F.7 ....
 A#3|..|C-4 LF.F ....|A#3 2C.F ....|A#3 2C.F ....
....|..|A#1 2F.A ....|A#2 2F.A ....|A#3 2F.A ....
....|..|A#1 2F.7 ....|R-- .... ....|A#3 2F.7 ....
 A#3|..|C-4 LF.F ....|A#3 2C.F ....|A#3 2C.F ....
....|..|A#1 2F.A ....|A#2 2F.A ....|A#3 2F.A ....
....|..|C-4 LF.F ....|A#2 2F.7 ....|A#3 2F.7 ....
 A#3|..|C-4 AF.F ....|A#3 2C.F ....|A#3 2C.F ....
....|..|A#1 2F.A ....|A#2 2F.A ....|A#3 2F.A ....
....|..|C-4 AF.F ....|A#2 2F.7 ....|A#3 2F.7 ....
 A#3|..|C-4 LF.F ....|A#3 2C.F ....|A#3 2C.F ....
....|..|C-4 LF.F ....|A#2 2F.A ....|A#3 2F.A ....
....|..|A#1 2F.7 ....|A#2 2F.7 ....|A#3 2F.7 ....
 A#3|..|C-5 VF.F ....|A#3 2C.F ....|A#3 2C.F ....
....|..|A#1 2F.A ....|A#2 2F.A ....|A#3 2F.A ....
....|..|A#1 2F.7 ....|A#2 2F.7 ....|A#3 2F.7 ....
 A#3|..|C-4 LF.F ....|A#3 2C.F ....|A#3 2C.F ....
....|..|A#1 2F.A ....|A#2 2F.A ....|A#3 2F.A ....
....|..|A#1 2F.7 ....|A#2 2F.7 ....|A#3 2F.7 ....
 A#3|..|C-4 LF.F ....|A#3 2C.F ....|A#3 2C.F ....
....|..|A#1 2F.A ....|A#2 2F.A ....|A#3 2F.A ....
....|..|A#1 2F.7 ....|A#2 2F.7 ....|A#3 2F.7 ....
 A#3|..|C-4 AF.F ....|G#2 2F.F ....|A#3 2C.F ....
....|..|C-4 LF.F ....|A#2 2F.A ....|A#3 2F.A ....
....|..|A#1 2F.7 ....|A#2 2F.7 ....|A#3 2F.7 ....

[Pattern50]
 G#4|..|C-4 AF.F ....|G#2 2A.F ....|D#4 2F.F ....
....|..|C-4 AF.F ....|G#2 2F.A ....|C-4 2F.F ....
 G#4|..|A#1 2F.7 ....|A#2 2F.7 ....|G#3 2C.F ....
 G#4|..|C-4 LF.F ....|G#3 2C.F ....|G#3 2C.F ....
....|..|C-4 LF.F ....|G#2 2F.A ....|D#4 2F.A ....
....|..|A#1 2F.7 ....|G#2 2F.7 ....|C-4 2F.A ....
 G#4|..|C-4 LF.F ....|G#3 2C.F ....|G#3 2C.F ....
....|..|G#1 2F.A ....|G#2 2F.A ....|G#3 2F.A ....
....|..|A#1 2F.7 ....|G#2 2F.7 ....|D#4 2F.7 ....
 G#4|..|C-4 LF.F ....|R-- .... ....|G#3 2C.F ....
....|..|C-4 LF.F ....|G#2 2F.A ....|G#3 2F.A ....
....|..|G#1 2F.7 ....|G#2 2F.7 ....|G#3 2F.7 ....
 G#4|..|C-5 VF.F ....|G#3 2C.F ....|G#3 2C.F ....
....|..|G#1 2F.A ....|R-- .... ....|G#3 2F.A ....
....|..|C-5 VF.F ....|G#2 2F.7 ....|G#3 2F.7 ....
 G#4|..|C-4 LF.F ....|G#3 2C.F ....|G#3 2C.F ....
....|..|G#1 2F.A ....|G#2 2F.A ....|G#3 2F.A ....
....|..|G#1 2F.7 ....|R-- .... ....|G#3 2F.7 ....
 G#4|..|C-4 LF.F ....|--- .... ....|G#3 2C.F ....
....|..|G#1 2F.A ....|G#2 2F.A ....|G#3 2F.A ....
....|..|G#1 2F.7 ....|G#2 2F.7 ....|G#3 2F.7 ....
 G#4|..|C-4 AF.F ....|G#3 2C.F ....|G#3 2C.F ....
....|..|G#1 2F.A ....|R-- .... ....|G#3 2F.A ....
....|..|C-4 AF.F ....|G#2 2F.7 ....|G#3 2F.7 ....
 G#4|..|C-4 LF.F ....|G#3 2C.F ....|G#3 2C.F ....
....|..|G#1 2F.A ....|G#2 2F.A ....|G#3 2F.A ....
....|..|G#1 2F.7 ....|R-- .... ....|G#3 2F.7 ....
 G#4|..|C-4 LF.F ....|G#3 2C.F ....|G#3 2C.F ....
....|..|G#1 2F.A ....|G#2 2F.A ....|G#3 2F.A ....
....|..|G#1 2F.7 ....|G#2 2F.7 ....|G#3 2F.7 ....
 G#4|..|C-4 AF.F ....|G#3 2C.F ....|G#3 2C.F ....
....|..|G#1 2F.A ....|G#2 2F.A ....|G#3 2F.A ....
....|..|G#1 2F.7 ....|G#2 2F.7 ....|G#3 2F.7 ....
 G#4|..|C-4 LF.F ....|G#3 2C.F ....|G#3 2C.F ....
....|..|C-4 LF.F ....|G#2 2F.A ....|G#3 2F.A ....
....|..|G#1 2F.7 ....|G#2 2F.7 ....|G#3 2F.7 ....
 G#4|..|C-5 VF.F ....|G#3 2C.F ....|G#3 2C.F ....
....|..|G#1 2F.A ....|G#2 2F.A ....|G#3 2F.A ....
....|..|C-5 VF.F ....|G#2 2F.7 ....|G#3 2F.7 ....
 G#4|..|C-4 LF.F ....|G#3 2C.F ....|G#3 2C.F ....
....|..|G#1 2F.A ....|G#2 2F.A ....|G#3 2F.A ....
....|..|G#1 2F.7 ....|G#2 2F.7 ....|G#3 2F.7 ....
 G#4|..|C-4 LF.F ....|G#3 2C.F ....|G#3 2C.F ....
....|..|G#1 2F.A ....|G#2 2F.A ....|G#3 2F.A ....
....|..|G#1 2F.7 ....|G#2 2F.7 ....|G#3 2F.7 ....
 G#4|..|C-4 LF.F ....|G#3 2C.F ....|G#3 2C.F ....
....|..|G#1 2F.A ....|G#2 2F.A ....|G#3 2F.A ....
....|..|G#1 2F.7 ....|G#2 2F.7 ....|G#3 2F.7 ....
 G#4|..|C-4 AF.F ....|G#3 2C.F ....|G#3 2C.F ....
....|..|C-4 LF.F ....|G#2 2F.A ....|G#3 2F.A ....
....|..|G#1 2F.7 ....|G#2 2F.7 ....|G#3 2F.7 ....
 G#4|..|C-4 LF.F ....|G#3 2C.F ....|G#3 2C.F ....
....|..|C-4 LF.F ....|G#2 2F.A ....|G#3 2F.A ....
....|..|G#1 2F.7 ....|G#2 2F.7 ....|G#3 2F.7 ....
 G#4|..|C-4 LF.F ....|G#3 2C.F ....|G#3 2C.F ....
....|..|C-4 LF.F ....|G#2 2F.A ....|G#3 2F.A ....
....|..|G#1 2F.7 ....|G#2 2F.7 ....|G#3 2F.7 ....
 G#4|..|C-4 LF.F ....|G#3 2C.F ....|G#3 2C.F ....
....|..|C-4 LF.F ....|G#2 2F.A ....|G#3 2F.A ....
....|..|G#1 2F.7 ....|G#2 2F.7 ....|G#3 2F.7 ....
 G#4|..|C-5 VF.F ....|G#3 2C.F ....|G#3 2C.F ....
....|..|G#1 2F.A ....|G#2 2F.A ....|G#3 2F.A ....
....|..|C-5 VF.F ....|G#2 2F.7 ....|G#3 2F.7 ....
 G#4|..|C-4 LF.F ....|G#3 2C.F ....|G#3 2C.F ....
....|..|G#1 2F.A ....|G#2 2F.A ....|G#3 2F.A ....
....|..|G#1 2F.7 ....|G#2 2F.7 ....|G#3 2F.7 ....
 G#4|..|C-4 LF.F ....|G#3 2C.F ....|G#3 2C.F ....
 G-4|..|G#1 2F.A ....|G-3 2C.F ....|G#3 2F.A ....
....|..|G#1 2F.7 ....|G#2 2F.7 ....|G#3 2F.7 ....
 G#4|..|C-4 AF.F ....|G#3 2C.F ....|G#3 2C.F ....
....|..|G#1 2F.A ....|G#2 2F.A ....|G#3 2F.A ....
....|..|C-4 AF.F ....|G-3 2F.A ....|G#3 2F.7 ....
 G#4|..|C-4 LF.F ....|G#3 2C.F ....|G#3 2C.F ....
....|..|G#1 2F.A ....|G#2 2F.A ....|G#3 2F.A ....
....|..|G#1 2F.7 ....|G#2 2F.7 ....|G#3 2F.7 ....
 G#4|..|C-4 LF.F ....|G#3 2C.F ....|G#3 2C.F ....
....|..|G#1 2F.A ....|G#2 2F.A ....|G#3 2F.A ....
....|..|G#1 2F.7 ....|G#2 2F.7 ....|G#3 2F.7 ....
 A#3|..|C-4 AF.F ....|G#2 2F.F ....|A#3 2C.F ....
....|..|A#1 2F.A ....|G#2 2F.A ....|G#3 2F.A ....
....|..|G#1 2F.7 ....|G#2 2F.7 ....|G#3 2F.7 ....
 A#3|..|C-4 LF.F ....|A#3 2C.F ....|A#3 2C.F ....
....|..|C-4 LF.F ....|G#2 2F.A ....|A#3 2F.A ....
....|..|A#1 2F.7 ....|G#2 2F.7 ....|G#3 2F.7 ....
 A#3|..|C-5 VF.F ....|A#3 2C.F ....|A#3 2C.F ....
....|..|A#1 2F.A ....|A#2 2F.A ....|A#3 2F.A ....
....|..|C-5 VF.F ....|G#2 2F.7 ....|A#3 2F.7 ....
 A#3|..|C-4 LF.F ....|A#3 2C.F ....|A#3 2C.F ....
....|..|A#1 2F.A ....|A#2 2F.A ....|A#3 2F.A ....
....|..|A#1 2F.7 ....|A#2 2F.7 ....|A#3 2F.7 ....
 A#3|..|C-4 LF.F ....|A#3 2C.F ....|A#3 2C.F ....
....|..|A#1 2F.A ....|A#2 2F.A ....|A#3 2F.A ....
....|..|A#1 2F.7 ....|A#2 2F.7 ....|A#3 2F.7 ....
 A#3|..|C-4 LF.F ....|A#3 2C.F ....|A#3 2C.F ....
....|..|A#1 2F.A ....|R-- .... ....|A#3 2F.A ....
....|..|A#1 2F.7 ....|A#2 2F.7 ....|A#3 2F.7 ....

[Pattern51]
 A#3|..|C-4 AF.F ....|A#2 2C.F ....|G-4 2F.F ....
....|..|C-4 AF.F ....|A#2 2F.A ....|G-4 2F.F ....
 C-3|..|A#1 2F.7 ....|R-- .... ....|C-4 2C.F ....
 C-3|..|C-4 LF.F ....|C-4 2C.F ....|C-4 2C.F ....
....|..|A#1 2F.A ....|A#2 2F.A ....|G-4 2F.A ....
....|..|C-4 LF.F ....|A#2 2F.7 ....|G-4 2F.A ....
 C-3|..|C-4 LF.F ....|C-4 2C.F ....|C-4 2C.F ....
....|..|C-4 LF.F ....|C-3 2F.A ....|C-4 2F.A ....
....|..|A#1 2F.7 ....|A#2 2F.7 ....|G-4 2F.7 ....
 C-3|..|C-4 LF.F ....|C-4 2C.F ....|C-4 2C.F ....
....|..|C-4 LF.F ....|C-3 2F.A ....|C-4 2F.A ....
....|..|C-2 2F.7 ....|C-3 2F.7 ....|C-4 2F.7 ....
 C-3|..|C-5 VF.F ....|C-4 2C.F ....|C-4 2C.F ....
....|..|C-2 2F.A ....|C-3 2F.A ....|C-4 2F.A ....
....|..|C-5 VF.F ....|C-3 2F.7 ....|C-4 2F.7 ....
 C-3|..|C-4 LF.F ....|C-4 2C.F ....|C-4 2C.F ....
....|..|C-2 2F.A ....|C-3 2F.A ....|C-4 2F.A ....
....|..|C-2 2F.7 ....|C-3 2F.7 ....|C-4 2F.7 ....
 C-3|..|C-4 LF.F ....|--- .... ....|C-4 2C.F ....
....|..|C-2 2F.A ....|C-3 2F.A ....|C-4 2F.A ....
....|..|C-2 2F.7 ....|C-3 2F.7 ....|C-4 2F.7 ....
 C-3|..|C-4 AF.F ....|C-4 2C.F ....|C-4 2C.F ....
....|..|C-2 2F.A ....|R-- .... ....|C-4 2F.A ....
....|..|C-4 AF.F ....|C-3 2F.7 ....|C-4 2F.7 ....
 C-3|..|C-4 LF.F ....|C-4 2C.F ....|C-4 2C.F ....
....|..|C-2 2F.A ....|C-3 2F.A ....|C-4 2F.A ....
....|..|C-2 2F.7 ....|R-- .... ....|C-4 2F.7 ....
 C-3|..|C-4 LF.F ....|C-4 2C.F ....|C-4 2C.F ....
....|..|C-2 2F.A ....|C-3 2F.A ....|C-4 2F.A ....
....|..|C-4 LF.F ....|C-3 2F.7 ....|C-4 2F.7 ....
 C-3|..|C-4 AF.F ....|C-4 2C.F ....|C-4 2C.F ....
....|..|C-2 2F.A ....|C-3 2F.A ....|C-4 2F.A ....
....|..|C-4 AF.F ....|C-3 2F.7 ....|C-4 2F.7 ....
 C-3|..|C-4 LF.F ....|C-4 2C.F ....|C-4 2C.F ....
....|..|C-4 LF.F ....|C-3 2F.A ....|C-4 2F.A ....
....|..|C-2 2F.7 ....|C-3 2F.7 ....|C-4 2F.7 ....
 C-3|..|C-5 VF.F ....|C-4 2C.F ....|C-4 2C.F ....
....|..|C-2 2F.A ....|C-3 2F.A ....|C-4 2F.A ....
....|..|C-5 VF.F ....|C-3 2F.7 ....|C-4 2F.7 ....
 C-3|..|C-4 LF.F ....|C-4 2C.F ....|C-4 2C.F ....
....|..|C-2 2F.A ....|C-3 2F.A ....|C-4 2F.A ....
....|..|C-2 2F.7 ....|C-3 2F.7 ....|C-4 2F.7 ....
 C-3|..|C-4 LF.F ....|R-- .... ....|C-4 2C.F ....
....|..|C-2 2F.A ....|C-3 2F.A ....|C-4 2F.A ....
....|..|C-2 2F.7 ....|C-3 2F.7 ....|C-4 2F.7 ....
 C-3|..|C-4 LF.F ....|C-4 2C.F ....|C-4 2C.F ....
....|..|C-2 2F.A ....|R-- .... ....|C-4 2F.A ....
....|..|C-2 2F.7 ....|C-3 2F.7 ....|C-4 2F.7 ....
 G#4|..|C-4 AF.F ....|G#2 2A.F ....|D#4 2F.F ....
 D#4|..|C-4 AF.F ....|D#4 2C.F ....|A#3 2F.F ....
....|..|C-4 AF.F ....|R-- .... ....|C-4 2F.A ....
 A#3|..|C-4 LF.F ....|A#3 2C.F ....|A#3 2C.F ....
....|..|C-4 LF.F ....|G#2 2F.A ....|D#4 2F.A ....
....|..|C-2 2F.7 ....|D#4 2F.A ....|A#3 2F.A ....
 A#3|..|C-4 LF.F ....|A#3 2C.F ....|A#3 2C.F ....
....|..|C-4 LF.F ....|A#2 2F.A ....|A#3 2F.A ....
....|..|C-2 2F.7 ....|G#2 2F.7 ....|D#4 2F.7 ....
 A#3|..|C-4 LF.F ....|A#3 2C.F ....|A#3 2C.F ....
....|..|A#1 2F.A ....|A#2 2F.A ....|A#3 2F.A ....
....|..|C-4 LF.F ....|A#2 2F.7 ....|A#3 2F.7 ....
 A#3|..|C-5 VF.F ....|A#3 2C.F ....|A#3 2C.F ....
....|..|A#1 2F.A ....|A#2 2F.A ....|A#3 2F.A ....
....|..|A#1 2F.7 ....|A#2 2F.7 ....|A#3 2F.7 ....
 A#3|..|C-4 LF.F ....|A#3 2C.F ....|A#3 2C.F ....
....|..|A#1 2F.A ....|A#2 2F.A ....|A#3 2F.A ....
....|..|A#1 2F.7 ....|A#2 2F.7 ....|A#3 2F.7 ....
 A#3|..|C-4 LF.F ....|R-- .... ....|A#3 2C.F ....
....|..|A#1 2F.A ....|A#2 2F.A ....|A#3 2F.A ....
....|..|A#1 2F.7 ....|A#2 2F.7 ....|A#3 2F.7 ....
 A#3|..|C-4 AF.F ....|A#3 2C.F ....|A#3 2C.F ....
....|..|A#1 2F.A ....|R-- .... ....|A#3 2F.A ....
....|..|C-4 AF.F ....|A#2 2F.7 ....|A#3 2F.7 ....
 A#3|..|C-4 LF.F ....|A#3 2C.F ....|A#3 2C.F ....
....|..|A#1 2F.A ....|A#2 2F.A ....|A#3 2F.A ....
....|..|A#1 2F.7 ....|R-- .... ....|A#3 2F.7 ....
 A#3|..|C-4 LF.F ....|A#3 2C.F ....|A#3 2C.F ....
....|..|A#1 2F.A ....|A#2 2F.A ....|A#3 2F.A ....
....|..|C-4 LF.F ....|A#2 2F.7 ....|A#3 2F.7 ....
 A#3|..|C-4 AF.F ....|A#3 2C.F ....|A#3 2C.F ....
....|..|A#1 2F.A ....|A#2 2F.A ....|A#3 2F.A ....
....|..|C-4 AF.F ....|A#2 2F.7 ....|A#3 2F.7 ....
 A#3|..|C-4 LF.F ....|A#3 2C.F ....|A#3 2C.F ....
....|..|C-4 LF.F ....|A#2 2F.A ....|A#3 2F.A ....
....|..|A#1 2F.7 ....|A#2 2F.7 ....|A#3 2F.7 ....
 A#3|..|C-5 VF.F ....|A#3 2C.F ....|A#3 2C.F ....
....|..|A#1 2F.A ....|A#2 2F.A ....|A#3 2F.A ....
....|..|A#1 2F.7 ....|A#2 2F.7 ....|A#3 2F.7 ....
 A#3|..|C-4 LF.F ....|A#3 2C.F ....|A#3 2C.F ....
....|..|A#1 2F.A ....|A#2 2F.A ....|A#3 2F.A ....
....|..|A#1 2F.7 ....|A#2 2F.7 ....|A#3 2F.7 ....
 A#3|..|C-4 LF.F ....|A#3 2C.F ....|A#3 2C.F ....
....|..|A#1 2F.A ....|A#2 2F.A ....|A#3 2F.A ....
....|..|A#1 2F.7 ....|A#2 2F.7 ....|A#3 2F.7 ....
 A#3|..|C-4 AF.F ....|G#2 2F.F ....|A#3 2C.F ....
....|..|C-4 LF.F ....|A#2 2F.A ....|A#3 2F.A ....
....|..|A#1 2F.7 ....|A#2 2F.7 ....|A#3 2F.7 ....

[Pattern52]
 G#4|..|C-4 AF.F ....|G#2 2A.F ....|D#4 2F.F ....
....|..|C-4 AF.F ....|G#2 2F.A ....|C-4 2F.F ....
 G#4|..|A#1 2F.7 ....|A#2 2F.7 ....|G#3 2C.F ....
 G#4|..|C-4 LF.F ....|G#3 2C.F ....|G#3 2C.F ....
....|..|C-4 LF.F ....|G#2 2F.A ....|D#4 2F.A ....
....|..|A#1 2F.7 ....|G#2 2F.7 ....|C-4 2F.A ....
 G#4|..|C-4 LF.F ....|G#3 2C.F ....|G#3 2C.F ....
....|..|G#1 2F.A ....|G#2 2F.A ....|G#3 2F.A ....
....|..|A#1 2F.7 ....|G#2 2F.7 ....|D#4 2F.7 ....
 G#4|..|C-4 LF.F ....|R-- .... ....|G#3 2C.F ....
....|..|C-4 LF.F ....|G#2 2F.A ....|G#3 2F.A ....
....|..|G#1 2F.7 ....|G#2 2F.7 ....|G#3 2F.7 ....
 G#4|..|C-5 VF.F ....|G#3 2C.F ....|G#3 2C.F ....
....|..|G#1 2F.A ....|R-- .... ....|G#3 2F.A ....
....|..|C-5 VF.F ....|G#2 2F.7 ....|G#3 2F.7 ....
 G#4|..|C-4 LF.F ....|G#3 2C.F ....|G#3 2C.F ....
....|..|G#1 2F.A ....|G#2 2F.A ....|G#3 2F.A ....
....|..|G#1 2F.7 ....|R-- .... ....|G#3 2F.7 ....
 G#4|..|C-4 LF.F ....|--- .... ....|G#3 2C.F ....
....|..|G#1 2F.A ....|G#2 2F.A ....|G#3 2F.A ....
....|..|G#1 2F.7 ....|G#2 2F.7 ....|G#3 2F.7 ....
 G#4|..|C-4 AF.F ....|G#3 2C.F ....|G#3 2C.F ....
....|..|G#1 2F.A ....|R-- .... ....|G#3 2F.A ....
....|..|C-4 AF.F ....|G#2 2F.7 ....|G#3 2F.7 ....
 G#4|..|C-4 LF.F ....|G#3 2C.F ....|G#3 2C.F ....
....|..|G#1 2F.A ....|G#2 2F.A ....|G#3 2F.A ....
....|..|G#1 2F.7 ....|R-- .... ....|G#3 2F.7 ....
 G#4|..|C-4 LF.F ....|G#3 2C.F ....|G#3 2C.F ....
....|..|G#1 2F.A ....|G#2 2F.A ....|G#3 2F.A ....
....|..|G#1 2F.7 ....|G#2 2F.7 ....|G#3 2F.7 ....
 G#4|..|C-4 AF.F ....|G#3 2C.F ....|G#3 2C.F ....
....|..|G#1 2F.A ....|G#2 2F.A ....|G#3 2F.A ....
....|..|G#1 2F.7 ....|G#2 2F.7 ....|G#3 2F.7 ....
 G#4|..|C-4 LF.F ....|G#3 2C.F ....|G#3 2C.F ....
....|..|C-4 LF.F ....|G#2 2F.A ....|G#3 2F.A ....
....|..|G#1 2F.7 ....|G#2 2F.7 ....|G#3 2F.7 ....
 G#4|..|C-5 VF.F ....|G#3 2C.F ....|G#3 2C.F ....
 D#4|..|G#1 2F.A ....|D#4 2C.F ....|G#3 2F.A ....
....|..|C-5 VF.F ....|G#2 2F.7 ....|G#3 2F.7 ....
 G#4|..|C-4 LF.F ....|G#3 2C.F ....|G#3 2C.F ....
....|..|G#1 2F.A ....|G#2 2F.A ....|G#3 2F.A ....
....|..|G#1 2F.7 ....|D#4 2F.A ....|G#3 2F.7 ....
 G#4|..|C-4 LF.F ....|G#3 2C.F ....|G#3 2C.F ....
....|..|G#1 2F.A ....|G#2 2F.A ....|G#3 2F.A ....
....|..|G#1 2F.7 ....|G#2 2F.7 ....|G#3 2F.7 ....
 G#4|..|C-4 LF.F ....|G#3 2C.F ....|G#3 2C.F ....
....|..|G#1 2F.A ....|G#2 2F.A ....|G#3 2F.A ....
....|..|G#1 2F.7 ....|G#2 2F.7 ....|G#3 2F.7 ....
 G#4|..|C-4 AF.F ....|G#3 2C.F ....|G#3 2C.F ....
 G#4|..|C-4 LF.F ....|G#3 2C.F ....|G#3 2F.A ....
....|..|G#1 2F.7 ....|G#2 2F.7 ....|G#3 2F.7 ....
 G#4|..|C-4 LF.F ....|G#3 2C.F ....|G#3 2C.F ....
....|..|C-4 LF.F ....|G#2 2F.A ....|G#3 2F.A ....
....|..|G#1 2F.7 ....|G#3 2F.A ....|G#3 2F.7 ....
 G#4|..|C-4 LF.F ....|G#3 2C.F ....|G#3 2C.F ....
....|..|C-4 LF.F ....|G#2 2F.A ....|G#3 2F.A ....
....|..|G#1 2F.7 ....|G#2 2F.7 ....|G#3 2F.7 ....
 G#4|..|C-4 LF.F ....|G#3 2C.F ....|G#3 2C.F ....
....|..|C-4 LF.F ....|G#2 2F.A ....|G#3 2F.A ....
....|..|G#1 2F.7 ....|G#2 2F.7 ....|G#3 2F.7 ....
 G#4|..|C-5 VF.F ....|G#3 2C.F ....|G#3 2C.F ....
....|..|G#1 2F.A ....|G#2 2F.A ....|G#3 2F.A ....
....|..|C-5 VF.F ....|G#2 2F.7 ....|G#3 2F.7 ....
 G#4|..|C-4 LF.F ....|G#3 2C.F ....|G#3 2C.F ....
....|..|G#1 2F.A ....|G#2 2F.A ....|G#3 2F.A ....
....|..|G#1 2F.7 ....|G#2 2F.7 ....|G#3 2F.7 ....
 G#4|..|C-4 LF.F ....|G#3 2C.F ....|G#3 2C.F ....
 G-4|..|G#1 2F.A ....|G-3 2C.F ....|G#3 2F.A ....
....|..|G#1 2F.7 ....|G#2 2F.7 ....|G#3 2F.7 ....
 G#4|..|C-4 AF.F ....|G#3 2C.F ....|G#3 2C.F ....
....|..|G#1 2F.A ....|G#2 2F.A ....|G#3 2F.A ....
....|..|C-4 AF.F ....|G-3 2F.A ....|G#3 2F.7 ....
 G#4|..|C-4 LF.F ....|G#3 2C.F ....|G#3 2C.F ....
....|..|G#1 2F.A ....|G#2 2F.A ....|G#3 2F.A ....
....|..|G#1 2F.7 ....|G#2 2F.7 ....|G#3 2F.7 ....
 G#4|..|C-4 LF.F ....|G#3 2C.F ....|G#3 2C.F ....
....|..|G#1 2F.A ....|G#2 2F.A ....|G#3 2F.A ....
....|..|G#1 2F.7 ....|G#2 2F.7 ....|G#3 2F.7 ....
 A#3|..|C-4 AF.F ....|G#2 2F.F ....|A#3 2C.F ....
 G-4|..|G-3 2C.F ....|G#2 2F.A ....|G#3 2F.A ....
....|..|G#1 2F.7 ....|G#2 2F.7 ....|G#3 2F.7 ....
 A#3|..|C-4 LF.F ....|A#3 2C.F ....|A#3 2C.F ....
....|..|C-4 LF.F ....|G#2 2F.A ....|A#3 2F.A ....
....|..|G-3 2F.A ....|G#2 2F.7 ....|G#3 2F.7 ....
 A#3|..|C-5 VF.F ....|A#3 2C.F ....|A#3 2C.F ....
 F-4|..|F-3 2C.F ....|A#2 2F.A ....|A#3 2F.A ....
....|..|C-5 VF.F ....|G#2 2F.7 ....|A#3 2F.7 ....
 A#3|..|C-4 LF.F ....|A#3 2C.F ....|A#3 2C.F ....
....|..|F-3 2F.A ....|A#2 2F.A ....|A#3 2F.A ....
....|..|A#1 2F.7 ....|A#2 2F.7 ....|A#3 2F.7 ....
 A#3|..|C-4 LF.F ....|A#3 2C.F ....|A#3 2C.F ....
 D#4|..|D#3 2C.F ....|A#2 2F.A ....|A#3 2F.A ....
....|..|F-3 2F.7 ....|A#2 2F.7 ....|A#3 2F.7 ....
 A#3|..|C-4 LF.F ....|A#3 2C.F ....|A#3 2C.F ....
 F-4|..|F-3 2C.F ....|A#2 2F.A ....|A#3 2F.A ....
....|..|D#3 2F.A ....|A#2 2F.7 ....|A#3 2F.7 ....

[Pattern53]
 A#3|..|C-4 AF.F ....|A#2 2C.F ....|R-- .... ....
....|..|C-4 AF.F ....|A#2 2F.A ....|A#3 2F.A ....
....|..|F-3 2F.A ....|A#2 2F.7 ....|A#3 2F.7 ....
 C-3|..|C-4 LF.F ....|C-3 2C.F ....|R-- .... ....
....|..|C-2 2F.A ....|A#2 2F.A ....|--- .... ....
....|..|C-4 LF.F ....|A#2 2F.7 ....|A#3 2F.7 ....
 C-3|..|C-4 LF.F ....|C-3 2C.F ....|R-- .... ....
....|..|C-4 LF.F ....|C-3 2F.A ....|--- .... ....
....|..|F-3 2F.7 ....|A#2 2F.7 ....|--- .... ....
 C-3|..|C-4 LF.F ....|C-3 2C.F ....|--- .... ....
....|..|C-4 LF.F ....|C-3 2F.A ....|--- .... ....
....|..|G-3 2F.A ....|C-3 2F.7 ....|--- .... ....
 C-3|..|C-5 VF.F ....|C-3 2C.F ....|--- .... ....
....|..|C-2 2F.A ....|C-3 2F.A ....|--- .... ....
....|..|C-5 VF.F ....|C-3 2F.7 ....|--- .... ....
 C-3|..|C-4 LF.F ....|C-3 2C.F ....|--- .... ....
....|..|C-2 2F.A ....|C-3 2F.A ....|--- .... ....
....|..|C-2 2F.7 ....|C-3 2F.7 ....|--- .... ....
....|..|C-4 LF.F ....|--- .... ....|--- .... ....
....|..|C-2 2F.A ....|C-3 2F.A ....|--- .... ....
....|..|C-2 2F.7 ....|C-3 2F.7 ....|--- .... ....
 C-3|..|C-4 AF.F ....|C-3 2C.F ....|--- .... ....
....|..|C-2 2F.A ....|R-- .... ....|--- .... ....
....|..|C-4 AF.F ....|C-3 2F.7 ....|--- .... ....
 C-3|..|C-4 LF.F ....|C-3 2C.F ....|--- .... ....
....|..|C-2 2F.A ....|C-3 2F.A ....|--- .... ....
....|..|C-2 2F.7 ....|R-- .... ....|--- .... ....
 C-3|..|C-4 LF.F ....|C-3 2C.F ....|--- .... ....
....|..|A#1 2F.A ....|C-3 2F.A ....|--- .... ....
....|..|C-4 LF.F ....|C-3 2F.7 ....|--- .... ....
 C-3|..|C-4 AF.F ....|C-3 2C.F ....|--- .... ....
 G-4|..|G-3 2C.F ....|C-3 2F.A ....|--- .... ....
....|..|C-4 AF.F ....|C-3 2F.7 ....|--- .... ....
 C-3|..|C-4 LF.F ....|C-3 2C.F ....|--- .... ....
....|..|C-4 LF.F ....|C-3 2F.A ....|--- .... ....
....|..|G-3 2F.A ....|C-3 2F.7 ....|--- .... ....
 C-3|..|C-5 VF.F ....|C-3 2C.F ....|--- .... ....
 F-4|..|F-3 2C.F ....|C-3 2F.A ....|--- .... ....
....|..|C-5 VF.F ....|C-3 2F.7 ....|--- .... ....
 C-3|..|C-4 LF.F ....|C-3 2C.F ....|--- .... ....
....|..|F-3 2F.A ....|C-3 2F.A ....|--- .... ....
....|..|C-2 2F.7 ....|C-3 2F.7 ....|--- .... ....
....|..|C-4 LF.F ....|R-- .... ....|--- .... ....
 D#4|..|D#3 2C.F ....|C-3 2F.A ....|--- .... ....
....|..|F-3 2F.7 ....|C-3 2F.7 ....|--- .... ....
 C-3|..|C-4 LF.F ....|C-3 2C.F ....|--- .... ....
 F-4|..|F-3 2C.F ....|R-- .... ....|--- .... ....
....|..|D#3 2F.A ....|C-3 2F.7 ....|--- .... ....
 A#3|..|C-4 AF.F ....|A#2 2C.F ....|--- .... ....
....|..|C-4 AF.F ....|C-3 2F.A ....|--- .... ....
....|..|C-4 AF.F ....|R-- .... ....|--- .... ....
 C-3|..|C-4 LF.F ....|C-3 2C.F ....|--- .... ....
....|..|C-4 LF.F ....|A#2 2F.A ....|--- .... ....
....|..|D#3 2F.7 ....|C-3 2F.7 ....|--- .... ....
 C-3|..|C-4 LF.F ....|C-3 2C.F ....|--- .... ....
....|..|C-4 LF.F ....|C-3 2F.A ....|--- .... ....
....|..|C-2 2F.7 ....|A#2 2F.7 ....|--- .... ....
 C-3|..|C-4 LF.F ....|C-3 2C.F ....|--- .... ....
....|..|C-3 2F.A ....|C-3 2F.A ....|--- .... ....
....|..|C-4 LF.F ....|C-3 2F.7 ....|--- .... ....
 C-3|..|C-5 VF.F ....|C-3 2C.F ....|--- .... ....
....|..|C-2 2F.A ....|C-3 2F.A ....|--- .... ....
....|..|C-3 2F.7 ....|C-3 2F.7 ....|--- .... ....
 C-3|..|C-4 LF.F ....|C-3 2C.F ....|--- .... ....
....|..|C-2 2F.A ....|C-3 2F.A ....|--- .... ....
....|..|C-2 2F.7 ....|C-3 2F.7 ....|--- .... ....
....|..|C-4 LF.F ....|R-- .... ....|--- .... ....
....|..|C-2 2F.A ....|C-3 2F.A ....|--- .... ....
....|..|C-2 2F.7 ....|C-3 2F.7 ....|--- .... ....
 C-3|..|C-4 AF.F ....|C-3 2C.F ....|--- .... ....
....|..|C-2 2F.A ....|R-- .... ....|--- .... ....
....|..|C-4 AF.F ....|C-3 2F.7 ....|--- .... ....
 C-3|..|C-4 LF.F ....|C-3 2C.F ....|--- .... ....
....|..|C-2 2F.A ....|C-3 2F.A ....|--- .... ....
....|..|C-4 LF.F ....|R-- .... ....|--- .... ....
 C-3|..|C-4 LF.F ....|C-3 2C.F ....|--- .... ....
....|..|A#1 2F.A ....|C-3 2F.A ....|--- .... ....
....|..|C-4 LF.F ....|C-3 2F.7 ....|--- .... ....
 C-3|..|C-4 AF.F ....|C-3 2C.F ....|--- .... ....
 G-4|..|G-3 2C.F ....|C-3 2F.A ....|--- .... ....
....|..|C-4 AF.F ....|C-3 2F.7 ....|--- .... ....
 C-3|..|C-4 LF.F ....|C-3 2C.F ....|--- .... ....
....|..|C-4 LF.F ....|C-3 2F.A ....|--- .... ....
....|..|G-3 2F.A ....|C-3 2F.7 ....|--- .... ....
 C-3|..|C-5 VF.F ....|C-3 2C.F ....|--- .... ....
 F-4|..|F-3 2C.F ....|C-3 2F.A ....|--- .... ....
....|..|C-4 LF.F ....|C-3 2F.7 ....|--- .... ....
 C-3|..|C-4 LF.F ....|C-3 2C.F ....|--- .... ....
....|..|F-3 2F.A ....|C-3 2F.A ....|--- .... ....
....|..|C-2 2F.7 ....|C-3 2F.7 ....|--- .... ....
 C-3|..|C-4 LF.F ....|C-3 2C.F ....|--- .... ....
 D#4|..|D#3 2C.F ....|C-3 2F.A ....|--- .... ....
....|..|F-3 2F.7 ....|C-3 2F.7 ....|--- .... ....
 C-3|..|C-4 AF.F ....|C-3 2C.F ....|--- .... ....
....|..|C-4 LF.F ....|C-3 2F.A ....|--- .... ....
 F-4|..|F-3 2C.F ....|C-3 2F.7 ....|--- .... ....

[Pattern54]
 C-3|..|C-4 AF.F ....|C-3 2C.F ....|--- .... ....
....|..|C-4 AF.F ....|C-3 2F.A ....|--- .... ....
....|..|F-3 2F.A ....|C-3 2F.7 ....|--- .... ....
 C-3|..|C-4 LF.F ....|C-3 2C.F ....|--- .... ....
....|..|C-4 LF.F ....|C-3 2F.A ....|--- .... ....
....|..|D#3 2F.7 ....|C-3 2F.7 ....|--- .... ....
 C-3|..|C-4 LF.F ....|C-3 2C.F ....|--- .... ....
....|..|C-2 2F.A ....|C-3 2F.A ....|--- .... ....
 C-3|..|C-3 2C.F ....|C-3 2F.7 ....|--- .... ....
....|..|C-4 LF.F ....|R-- .... ....|--- .... ....
....|..|C-4 LF.F ....|C-3 2F.A ....|--- .... ....
....|..|C-3 2F.A ....|C-3 2F.7 ....|--- .... ....
 C-3|..|C-5 VF.F ....|C-3 2C.F ....|--- .... ....
....|..|C-2 2F.A ....|R-- .... ....|--- .... ....
....|..|C-5 VF.F ....|C-3 2F.7 ....|--- .... ....
 C-3|..|C-4 LF.F ....|C-3 2C.F ....|--- .... ....
....|..|C-2 2F.A ....|C-3 2F.A ....|--- .... ....
....|..|C-2 2F.7 ....|R-- .... ....|--- .... ....
....|..|C-4 LF.F ....|--- .... ....|--- .... ....
....|..|C-4 LF.F ....|C-3 2F.A ....|--- .... ....
....|..|C-2 2F.7 ....|C-3 2F.7 ....|--- .... ....
 C-3|..|C-4 AF.F ....|C-3 2C.F ....|--- .... ....
....|..|C-2 2F.A ....|R-- .... ....|--- .... ....
....|..|C-4 AF.F ....|C-3 2F.7 ....|--- .... ....
 C-3|..|C-4 LF.F ....|C-3 2C.F ....|--- .... ....
....|..|C-2 2F.A ....|C-3 2F.A ....|--- .... ....
....|..|C-2 2F.7 ....|R-- .... ....|--- .... ....
 C-3|..|C-4 LF.F ....|C-3 2C.F ....|--- .... ....
....|..|A#1 2F.A ....|C-3 2F.A ....|--- .... ....
....|..|C-2 2F.7 ....|C-3 2F.7 ....|--- .... ....
 C-3|..|C-4 AF.F ....|C-3 2C.F ....|--- .... ....
....|..|C-2 2F.A ....|C-3 2F.A ....|--- .... ....
....|..|C-4 AF.F ....|C-3 2F.7 ....|--- .... ....
 C-3|..|C-4 LF.F ....|C-3 2C.F ....|--- .... ....
....|..|C-4 LF.F ....|C-3 2F.A ....|--- .... ....
....|..|C-2 2F.7 ....|C-3 2F.7 ....|--- .... ....
 C-3|..|C-5 VF.F ....|C-3 2C.F ....|--- .... ....
....|..|C-2 2F.A ....|C-3 2F.A ....|--- .... ....
....|..|C-5 VF.F ....|C-3 2F.7 ....|--- .... ....
 C-3|..|C-4 LF.F ....|C-3 2C.F ....|--- .... ....
....|..|C-2 2F.A ....|C-3 2F.A ....|--- .... ....
....|..|C-2 2F.7 ....|C-3 2F.7 ....|--- .... ....
 C-3|..|C-4 LF.F ....|C-3 2C.F ....|--- .... ....
 C-3|..|C-3 2C.F ....|C-3 2F.A ....|--- .... ....
....|..|C-2 2F.7 ....|C-3 2F.7 ....|--- .... ....
 C-3|..|C-4 LF.F ....|C-3 2C.F ....|--- .... ....
....|..|C-3 2F.A ....|C-3 2F.A ....|--- .... ....
....|..|C-2 2F.7 ....|C-3 2F.7 ....|--- .... ....
 C-3|..|C-4 LF.F ....|C-3 2C.F ....|--- .... ....
....|..|C-4 LF.F ....|C-3 2F.A ....|--- .... ....
 C-3|..|C-3 2C.F ....|C-3 2F.7 ....|--- .... ....
 C-3|..|C-4 LF.F ....|C-3 2C.F ....|--- .... ....
....|..|C-4 LF.F ....|C-3 2F.A ....|--- .... ....
....|..|C-2 2F.7 ....|C-3 2F.7 ....|--- .... ....
 C-3|..|C-4 AF.F ....|C-3 2C.F ....|--- .... ....
....|..|C-4 LF.F ....|C-3 2F.A ....|--- .... ....
 G-4|..|G-3 2C.F ....|C-3 2F.7 ....|--- .... ....
 C-3|..|C-4 LF.F ....|C-3 2C.F ....|--- .... ....
....|..|C-4 LF.F ....|C-3 2F.A ....|--- .... ....
....|..|C-3 2F.7 ....|C-3 2F.7 ....|--- .... ....
 C-3|..|C-5 VF.F ....|C-3 2C.F ....|--- .... ....
....|..|G-3 2F.A ....|C-3 2F.A ....|--- .... ....
....|..|C-5 VF.F ....|C-3 2F.7 ....|--- .... ....
 C-3|..|C-4 LF.F ....|C-3 2C.F ....|--- .... ....
....|..|C-2 2F.A ....|C-3 2F.A ....|--- .... ....
....|..|C-2 2F.7 ....|C-3 2F.7 ....|--- .... ....
 C-3|..|C-4 LF.F ....|C-3 2C.F ....|--- .... ....
 F-4|..|F-3 2C.F ....|C-3 2F.A ....|--- .... ....
....|..|C-2 2F.7 ....|C-3 2F.7 ....|--- .... ....
 C-3|..|C-4 AF.F ....|C-3 2C.F ....|--- .... ....
....|..|C-4 AF.F ....|C-3 2F.A ....|--- .... ....
....|..|C-4 AF.F ....|C-3 2F.7 ....|--- .... ....
 C-3|..|C-4 LF.F ....|C-3 2C.F ....|--- .... ....
....|..|C-4 LF.F ....|C-3 2F.A ....|--- .... ....
....|..|F-3 2F.7 ....|C-3 2F.7 ....|--- .... ....
 C-3|..|C-4 LF.F ....|C-3 2C.F ....|--- .... ....
 F-4|..|F-3 2C.F ....|C-3 2F.A ....|--- .... ....
 D#4|..|D#3 2C.F ....|C-3 2F.7 ....|--- .... ....
 C-3|..|C-4 AF.F ....|C-3 2C.F ....|--- .... ....
 G-4|..|G-3 2C.F ....|C-3 2F.A ....|--- .... ....
....|..|F-3 2F.A ....|C-3 2F.7 ....|--- .... ....
 C-3|..|C-4 LF.F ....|C-3 2C.F ....|--- .... ....
....|..|C-4 LF.F ....|C-3 2F.A ....|--- .... ....
....|..|D#3 2F.A ....|C-3 2F.7 ....|--- .... ....
 C-3|..|C-5 VF.F ....|C-3 2C.F ....|--- .... ....
....|..|G-3 2F.A ....|C-3 2F.A ....|--- .... ....
....|..|C-5 VF.F ....|C-3 2F.7 ....|--- .... ....
 C-3|..|C-4 LF.F ....|C-3 2C.F ....|--- .... ....
....|..|F-3 2F.A ....|C-3 2F.A ....|--- .... ....
....|..|C-2 2F.7 ....|C-3 2F.7 ....|--- .... ....
 C-3|..|C-4 LF.F ....|C-3 2C.F ....|--- .... ....
 D#4|..|D#3 2C.F ....|C-3 2F.A ....|--- .... ....
....|..|F-3 2F.7 ....|C-3 2F.7 ....|--- .... ....
 C-3|..|C-4 LF.F ....|C-3 2C.F ....|--- .... ....
 F-4|..|F-3 2C.F ....|C-3 2F.A ....|--- .... ....
....|..|D#3 2F.A ....|C-3 2F.7 ....|--- .... ....

[Pattern55]
 A#3|..|C-4 AF.F ....|A#2 2C.F ....|--- .... ....
....|..|C-4 AF.F ....|C-3 2F.A ....|--- .... ....
....|..|F-3 2F.A ....|C-3 2F.7 ....|--- .... ....
 C-3|..|C-4 LF.F ....|C-3 2C.F ....|--- .... ....
....|..|C-2 2F.A ....|A#2 2F.A ....|--- .... ....
....|..|C-4 LF.F ....|C-3 2F.7 ....|--- .... ....
 C-3|..|C-4 LF.F ....|C-3 2C.F ....|--- .... ....
....|..|C-4 LF.F ....|C-3 2F.A ....|--- .... ....
....|..|F-3 2F.7 ....|A#2 2F.7 ....|--- .... ....
 C-3|..|C-4 LF.F ....|C-3 2C.F ....|--- .... ....
....|..|C-4 LF.F ....|C-3 2F.A ....|--- .... ....
....|..|G-3 2F.A ....|C-3 2F.7 ....|--- .... ....
 C-3|..|C-5 VF.F ....|C-3 2C.F ....|--- .... ....
....|..|C-2 2F.A ....|C-3 2F.A ....|--- .... ....
....|..|C-5 VF.F ....|C-3 2F.7 ....|--- .... ....
 C-3|..|C-4 LF.F ....|C-3 2C.F ....|--- .... ....
....|..|C-2 2F.A ....|C-3 2F.A ....|--- .... ....
....|..|C-2 2F.7 ....|C-3 2F.7 ....|--- .... ....
....|..|C-4 LF.F ....|--- .... ....|--- .... ....
....|..|C-4 LF.F ....|C-3 2F.A ....|--- .... ....
....|..|C-2 2F.7 ....|C-3 2F.7 ....|--- .... ....
 C-3|..|C-4 AF.F ....|C-3 2C.F ....|--- .... ....
....|..|C-2 2F.A ....|R-- .... ....|--- .... ....
....|..|C-4 AF.F ....|C-3 2F.7 ....|--- .... ....
 C-3|..|C-4 LF.F ....|C-3 2C.F ....|--- .... ....
....|..|C-2 2F.A ....|C-3 2F.A ....|--- .... ....
....|..|C-2 2F.7 ....|R-- .... ....|--- .... ....
 C-3|..|C-4 LF.F ....|C-3 2C.F ....|--- .... ....
....|..|A#1 2F.A ....|C-3 2F.A ....|--- .... ....
....|..|C-4 LF.F ....|C-3 2F.7 ....|--- .... ....
 C-3|..|C-4 AF.F ....|C-3 2C.F ....|--- .... ....
 G-4|..|G-3 2C.F ....|C-3 2F.A ....|--- .... ....
....|..|C-4 AF.F ....|C-3 2F.7 ....|--- .... ....
 C-3|..|C-4 LF.F ....|C-3 2C.F ....|--- .... ....
....|..|C-4 LF.F ....|C-3 2F.A ....|--- .... ....
....|..|G-3 2F.A ....|C-3 2F.7 ....|--- .... ....
 C-3|..|C-5 VF.F ....|C-3 2C.F ....|--- .... ....
 F-4|..|F-3 2C.F ....|C-3 2F.A ....|--- .... ....
....|..|C-5 VF.F ....|C-3 2F.7 ....|--- .... ....
 C-3|..|C-4 LF.F ....|C-3 2C.F ....|--- .... ....
....|..|F-3 2F.A ....|C-3 2F.A ....|--- .... ....
....|..|C-2 2F.7 ....|C-3 2F.7 ....|--- .... ....
....|..|C-4 LF.F ....|R-- .... ....|--- .... ....
 D#4|..|D#3 2C.F ....|C-3 2F.A ....|--- .... ....
....|..|F-3 2F.7 ....|C-3 2F.7 ....|--- .... ....
 C-3|..|C-4 LF.F ....|C-3 2C.F ....|--- .... ....
 F-4|..|F-3 2C.F ....|R-- .... ....|--- .... ....
....|..|D#3 2F.A ....|C-3 2F.7 ....|--- .... ....
 A#3|..|C-4 LF.F ....|A#2 2C.F ....|--- .... ....
....|..|C-4 LF.F ....|C-3 2F.A ....|--- .... ....
....|..|F-3 2F.A ....|R-- .... ....|--- .... ....
 C-3|..|C-4 LF.F ....|C-3 2C.F ....|--- .... ....
....|..|C-4 LF.F ....|A#2 2F.A ....|--- .... ....
....|..|D#3 2F.7 ....|C-3 2F.7 ....|--- .... ....
 C-3|..|C-4 AF.F ....|C-3 2C.F ....|--- .... ....
....|..|C-4 AF.F ....|C-3 2F.A ....|--- .... ....
....|..|C-4 AF.F ....|A#2 2F.7 ....|--- .... ....
 C-3|..|C-4 LF.F ....|C-3 2C.F ....|--- .... ....
....|..|C-3 2F.A ....|C-3 2F.A ....|--- .... ....
....|..|C-4 LF.F ....|C-3 2F.7 ....|--- .... ....
 C-3|..|C-5 VF.F ....|C-3 2C.F ....|--- .... ....
....|..|C-2 2F.A ....|C-3 2F.A ....|--- .... ....
....|..|C-3 2F.7 ....|C-3 2F.7 ....|--- .... ....
 C-3|..|C-4 LF.F ....|C-3 2C.F ....|--- .... ....
....|..|C-2 2F.A ....|C-3 2F.A ....|--- .... ....
....|..|C-2 2F.7 ....|C-3 2F.7 ....|--- .... ....
....|..|C-4 LF.F ....|R-- .... ....|--- .... ....
....|..|C-2 2F.A ....|C-3 2F.A ....|--- .... ....
....|..|C-2 2F.7 ....|C-3 2F.7 ....|--- .... ....
 C-3|..|C-4 AF.F ....|C-3 2C.F ....|--- .... ....
....|..|C-2 2F.A ....|R-- .... ....|--- .... ....
....|..|C-4 AF.F ....|C-3 2F.7 ....|--- .... ....
 C-3|..|C-4 LF.F ....|C-3 2C.F ....|--- .... ....
....|..|C-4 LF.F ....|C-3 2F.A ....|--- .... ....
....|..|C-2 2F.7 ....|R-- .... ....|--- .... ....
 C-3|..|C-4 LF.F ....|C-3 2C.F ....|--- .... ....
....|..|A#1 2F.A ....|C-3 2F.A ....|--- .... ....
....|..|C-4 LF.F ....|C-3 2F.7 ....|--- .... ....
 C-3|..|C-4 AF.F ....|C-3 2C.F ....|--- .... ....
 G-4|..|G-3 2C.F ....|C-3 2F.A ....|--- .... ....
....|..|C-4 AF.F ....|C-3 2F.7 ....|--- .... ....
 C-3|..|C-4 LF.F ....|C-3 2C.F ....|--- .... ....
....|..|C-4 LF.F ....|C-3 2F.A ....|--- .... ....
....|..|G-3 2F.A ....|C-3 2F.7 ....|--- .... ....
 C-3|..|C-5 VF.F ....|C-3 2C.F ....|--- .... ....
 F-4|..|F-3 2C.F ....|C-3 2F.A ....|--- .... ....
....|..|G-3 2F.7 ....|C-3 2F.7 ....|--- .... ....
 C-3|..|C-4 LF.F ....|C-3 2C.F ....|--- .... ....
....|..|F-3 2F.A ....|C-3 2F.A ....|--- .... ....
....|..|C-2 2F.7 ....|C-3 2F.7 ....|--- .... ....
 C-3|..|C-4 LF.F ....|C-3 2C.F ....|--- .... ....
 D#4|..|D#3 2C.F ....|C-3 2F.A ....|--- .... ....
....|..|F-3 2F.7 ....|C-3 2F.7 ....|--- .... ....
 C-3|..|C-4 AF.F ....|C-3 2C.F ....|--- .... ....
....|..|C-4 LF.F ....|C-3 2F.A ....|--- .... ....
 F-4|..|F-3 2C.F ....|C-3 2F.7 ....|--- .... ....

[Pattern56]
 C-3|..|C-4 AF.F ....|C-3 2C.F ....|--- .... ....
....|..|C-4 AF.F ....|C-3 2F.A ....|--- .... ....
....|..|F-3 2F.A ....|C-3 2F.7 ....|--- .... ....
 C-3|..|C-4 LF.F ....|C-3 2C.F ....|--- .... ....
....|..|C-4 LF.F ....|C-3 2F.A ....|--- .... ....
....|..|D#3 2F.7 ....|C-3 2F.7 ....|--- .... ....
 C-3|..|C-4 LF.F ....|C-3 2C.F ....|--- .... ....
....|..|C-2 2F.A ....|C-3 2F.A ....|--- .... ....
 C-3|..|C-3 2C.F ....|C-3 2F.7 ....|--- .... ....
....|..|C-4 LF.F ....|R-- .... ....|--- .... ....
....|..|C-4 LF.F ....|C-3 2F.A ....|--- .... ....
....|..|C-3 2F.A ....|C-3 2F.7 ....|--- .... ....
 C-3|..|C-5 VF.F ....|C-3 2C.F ....|--- .... ....
....|..|C-2 2F.A ....|R-- .... ....|--- .... ....
....|..|C-5 VF.F ....|C-3 2F.7 ....|--- .... ....
 C-3|..|C-4 LF.F ....|C-3 2C.F ....|--- .... ....
....|..|C-2 2F.A ....|C-3 2F.A ....|--- .... ....
....|..|C-2 2F.7 ....|R-- .... ....|--- .... ....
....|..|C-4 LF.F ....|--- .... ....|--- .... ....
....|..|C-4 LF.F ....|C-3 2F.A ....|--- .... ....
....|..|C-2 2F.7 ....|C-3 2F.7 ....|--- .... ....
 C-3|..|C-4 AF.F ....|C-3 2C.F ....|--- .... ....
....|..|C-2 2F.A ....|R-- .... ....|--- .... ....
....|..|C-4 AF.F ....|C-3 2F.7 ....|--- .... ....
 C-3|..|C-4 LF.F ....|C-3 2C.F ....|--- .... ....
....|..|C-2 2F.A ....|C-3 2F.A ....|--- .... ....
....|..|C-2 2F.7 ....|R-- .... ....|--- .... ....
 C-3|..|C-4 LF.F ....|C-3 2C.F ....|--- .... ....
....|..|A#1 2F.A ....|C-3 2F.A ....|--- .... ....
....|..|C-2 2F.7 ....|C-3 2F.7 ....|--- .... ....
 C-3|..|C-4 AF.F ....|C-3 2C.F ....|--- .... ....
....|..|C-2 2F.A ....|C-3 2F.A ....|--- .... ....
....|..|C-4 AF.F ....|C-3 2F.7 ....|--- .... ....
 C-3|..|C-4 LF.F ....|C-3 2C.F ....|--- .... ....
....|..|C-4 LF.F ....|C-3 2F.A ....|--- .... ....
....|..|C-2 2F.7 ....|C-3 2F.7 ....|--- .... ....
 C-3|..|C-5 VF.F ....|C-3 2C.F ....|--- .... ....
....|..|C-2 2F.A ....|C-3 2F.A ....|--- .... ....
....|..|C-5 VF.F ....|C-3 2F.7 ....|--- .... ....
 C-3|..|C-4 LF.F ....|C-3 2C.F ....|--- .... ....
....|..|C-2 2F.A ....|C-3 2F.A ....|--- .... ....
....|..|C-2 2F.7 ....|C-3 2F.7 ....|--- .... ....
 C-3|..|C-4 LF.F ....|C-3 2C.F ....|--- .... ....
 C-3|..|C-3 2C.F ....|C-3 2F.A ....|--- .... ....
....|..|C-2 2F.7 ....|C-3 2F.7 ....|--- .... ....
 C-3|..|C-4 LF.F ....|C-3 2C.F ....|--- .... ....
....|..|C-3 2F.A ....|C-3 2F.A ....|--- .... ....
....|..|C-2 2F.7 ....|C-3 2F.7 ....|--- .... ....
 C-3|..|C-4 LF.F ....|C-3 2C.F ....|--- .... ....
....|..|C-4 LF.F ....|C-3 2F.A ....|--- .... ....
 C-3|..|C-3 2C.F ....|C-3 2F.7 ....|--- .... ....
 C-3|..|C-4 LF.F ....|C-3 2C.F ....|--- .... ....
....|..|C-4 LF.F ....|C-3 2F.A ....|--- .... ....
....|..|C-2 2F.7 ....|C-3 2F.7 ....|--- .... ....
 C-3|..|C-4 AF.F ....|C-3 2C.F ....|--- .... ....
....|..|C-4 LF.F ....|C-3 2F.A ....|--- .... ....
 G-4|..|G-3 2C.F ....|C-3 2F.7 ....|--- .... ....
 C-3|..|C-4 LF.F ....|C-3 2C.F ....|--- .... ....
....|..|C-4 LF.F ....|C-3 2F.A ....|--- .... ....
....|..|C-3 2F.7 ....|C-3 2F.7 ....|--- .... ....
 C-3|..|C-5 VF.F ....|C-3 2C.F ....|--- .... ....
....|..|G-3 2F.A ....|C-3 2F.A ....|--- .... ....
....|..|C-5 VF.F ....|C-3 2F.7 ....|--- .... ....
 C-3|..|C-4 LF.F ....|C-3 2C.F ....|--- .... ....
....|..|C-2 2F.A ....|C-3 2F.A ....|--- .... ....
....|..|C-2 2F.7 ....|C-3 2F.7 ....|--- .... ....
 C-3|..|C-4 AF.F ....|C-3 2C.F ....|--- .... ....
....|..|C-4 LF.F ....|C-3 2F.A ....|--- .... ....
 F-4|..|F-3 2C.F ....|C-3 2F.7 ....|--- .... ....
 C-3|..|C-4 AF.F ....|C-3 2C.F ....|--- .... ....
....|..|C-4 AF.F ....|C-3 2F.A ....|--- .... ....
....|..|C-4 AF.F ....|C-3 2F.7 ....|--- .... ....
 C-3|..|C-4 LF.F ....|C-3 2C.F ....|--- .... ....
....|..|C-4 LF.F ....|C-3 2F.A ....|--- .... ....
....|..|F-3 2F.7 ....|C-3 2F.7 ....|--- .... ....
 C-3|..|C-4 LF.F ....|C-3 2C.F ....|--- .... ....
....|..|A#1 2F.A ....|C-3 2F.A ....|--- .... ....
....|..|C-2 2F.7 ....|C-3 2F.7 ....|--- .... ....
 C-3|..|C-4 AF.F ....|C-3 2C.F ....|--- .... ....
 G-4|..|G-3 2C.F ....|C-3 2F.A ....|--- .... ....
....|..|A#1 2F.7 ....|C-3 2F.7 ....|--- .... ....
 C-3|..|C-4 LF.F ....|C-3 2C.F ....|--- .... ....
....|..|C-4 LF.F ....|C-3 2F.A ....|--- .... ....
....|..|G-3 2F.A ....|C-3 2F.7 ....|--- .... ....
 C-3|..|C-5 VF.F ....|C-3 2C.F ....|--- .... ....
 F-4|..|F-3 2C.F ....|C-3 2F.A ....|--- .... ....
....|..|C-5 VF.F ....|C-3 2F.7 ....|--- .... ....
 C-3|..|C-4 LF.F ....|C-3 2C.F ....|--- .... ....
....|..|F-3 2F.A ....|C-3 2F.A ....|--- .... ....
....|..|C-2 2F.7 ....|C-3 2F.7 ....|--- .... ....
 C-3|..|C-4 LF.F ....|C-3 2C.F ....|--- .... ....
 D#4|..|D#3 2C.F ....|C-3 2F.A ....|--- .... ....
....|..|F-3 2F.7 ....|C-3 2F.7 ....|--- .... ....
 C-3|..|C-4 LF.F ....|C-3 2C.F ....|--- .... ....
 F-4|..|F-3 2C.F ....|C-3 2F.A ....|--- .... ....
....|..|D#3 2F.A ....|C-3 2F.7 ....|--- .... ....

[Pattern57]
 A#3|..|C-4 AF.F ....|A#2 2C.F ....|--- .... ....
....|..|C-4 AF.F ....|C-3 2F.A ....|--- .... ....
....|..|F-3 2F.A ....|C-3 2F.7 ....|--- .... ....
 C-3|..|C-4 LF.F ....|C-3 2C.F ....|--- .... ....
....|..|C-2 2F.A ....|A#2 2F.A ....|--- .... ....
....|..|C-4 LF.F ....|C-3 2F.7 ....|--- .... ....
 C-3|..|C-4 LF.F ....|C-3 2C.F ....|--- .... ....
....|..|C-4 LF.F ....|C-3 2F.A ....|--- .... ....
....|..|F-3 2F.7 ....|A#2 2F.7 ....|--- .... ....
 C-3|..|C-4 LF.F ....|C-3 2C.F ....|--- .... ....
....|..|C-4 LF.F ....|C-3 2F.A ....|--- .... ....
....|..|G-3 2F.A ....|C-3 2F.7 ....|--- .... ....
 C-3|..|C-5 VF.F ....|C-3 2C.F ....|--- .... ....
....|..|C-2 2F.A ....|C-3 2F.A ....|--- .... ....
....|..|C-5 VF.F ....|C-3 2F.7 ....|--- .... ....
 C-3|..|C-4 LF.F ....|C-3 2C.F ....|--- .... ....
....|..|C-2 2F.A ....|C-3 2F.A ....|--- .... ....
....|..|C-2 2F.7 ....|C-3 2F.7 ....|--- .... ....
....|..|C-4 LF.F ....|--- .... ....|--- .... ....
....|..|C-2 2F.A ....|C-3 2F.A ....|--- .... ....
....|..|C-2 2F.7 ....|C-3 2F.7 ....|--- .... ....
 C-3|..|C-4 AF.F ....|C-3 2C.F ....|--- .... ....
....|..|C-2 2F.A ....|R-- .... ....|--- .... ....
....|..|C-4 AF.F ....|C-3 2F.7 ....|--- .... ....
 C-3|..|C-4 LF.F ....|C-3 2C.F ....|--- .... ....
....|..|C-2 2F.A ....|C-3 2F.A ....|--- .... ....
....|..|C-2 2F.7 ....|R-- .... ....|--- .... ....
 C-3|..|C-4 LF.F ....|C-3 2C.F ....|--- .... ....
....|..|A#1 2F.A ....|C-3 2F.A ....|--- .... ....
....|..|C-4 LF.F ....|C-3 2F.7 ....|--- .... ....
 C-3|..|C-4 AF.F ....|C-3 2C.F ....|--- .... ....
 G-4|..|G-3 2C.F ....|C-3 2F.A ....|--- .... ....
....|..|C-4 AF.F ....|C-3 2F.7 ....|--- .... ....
 C-3|..|C-4 LF.F ....|C-3 2C.F ....|--- .... ....
....|..|C-4 LF.F ....|C-3 2F.A ....|--- .... ....
....|..|G-3 2F.A ....|C-3 2F.7 ....|--- .... ....
 C-3|..|C-5 VF.F ....|C-3 2C.F ....|--- .... ....
 F-4|..|F-3 2C.F ....|C-3 2F.A ....|--- .... ....
....|..|C-5 VF.F ....|C-3 2F.7 ....|--- .... ....
 C-3|..|C-4 LF.F ....|C-3 2C.F ....|--- .... ....
....|..|F-3 2F.A ....|C-3 2F.A ....|--- .... ....
....|..|C-2 2F.7 ....|C-3 2F.7 ....|--- .... ....
....|..|C-4 LF.F ....|R-- .... ....|--- .... ....
 D#4|..|D#3 2C.F ....|C-3 2F.A ....|--- .... ....
....|..|F-3 2F.7 ....|C-3 2F.7 ....|--- .... ....
 C-3|..|C-4 LF.F ....|C-3 2C.F ....|--- .... ....
 F-4|..|F-3 2C.F ....|R-- .... ....|--- .... ....
....|..|D#3 2F.A ....|C-3 2F.7 ....|--- .... ....
 A#3|..|C-4 LF.F ....|A#2 2C.F ....|--- .... ....
....|..|C-4 LF.F ....|C-3 2F.A ....|--- .... ....
....|..|F-3 2F.A ....|R-- .... ....|--- .... ....
 C-3|..|C-4 LF.F ....|C-3 2C.F ....|--- .... ....
....|..|C-4 LF.F ....|A#2 2F.A ....|--- .... ....
....|..|D#3 2F.7 ....|C-3 2F.7 ....|--- .... ....
 C-3|..|C-4 AF.F ....|C-3 2C.F ....|--- .... ....
....|..|C-4 AF.F ....|C-3 2F.A ....|--- .... ....
....|..|C-4 AF.F ....|A#2 2F.7 ....|--- .... ....
 C-3|..|C-4 LF.F ....|C-3 2C.F ....|--- .... ....
....|..|C-3 2F.A ....|C-3 2F.A ....|--- .... ....
....|..|C-4 LF.F ....|C-3 2F.7 ....|--- .... ....
 C-3|..|C-5 VF.F ....|C-3 2C.F ....|--- .... ....
....|..|C-2 2F.A ....|C-3 2F.A ....|--- .... ....
....|..|C-3 2F.7 ....|C-3 2F.7 ....|--- .... ....
 C-3|..|C-4 LF.F ....|C-3 2C.F ....|--- .... ....
....|..|C-2 2F.A ....|C-3 2F.A ....|--- .... ....
....|..|C-2 2F.7 ....|C-3 2F.7 ....|--- .... ....
....|..|C-4 LF.F ....|R-- .... ....|--- .... ....
....|..|C-2 2F.A ....|C-3 2F.A ....|--- .... ....
....|..|C-2 2F.7 ....|C-3 2F.7 ....|--- .... ....
 C-3|..|C-4 AF.F ....|C-3 2C.F ....|--- .... ....
....|..|C-2 2F.A ....|R-- .... ....|--- .... ....
....|..|C-4 AF.F ....|C-3 2F.7 ....|--- .... ....
 C-3|..|C-4 LF.F ....|C-3 2C.F ....|--- .... ....
....|..|C-2 2F.A ....|C-3 2F.A ....|--- .... ....
....|..|C-4 LF.F ....|R-- .... ....|--- .... ....
 C-3|..|C-4 LF.F ....|C-3 2C.F ....|--- .... ....
....|..|A#1 2F.A ....|C-3 2F.A ....|--- .... ....
....|..|C-4 LF.F ....|C-3 2F.7 ....|--- .... ....
 C-3|..|C-4 AF.F ....|C-3 2C.F ....|--- .... ....
 G-4|..|G-3 2C.F ....|C-3 2F.A ....|--- .... ....
....|..|C-4 AF.F ....|C-3 2F.7 ....|--- .... ....
 C-3|..|C-4 LF.F ....|C-3 2C.F ....|--- .... ....
....|..|C-4 LF.F ....|C-3 2F.A ....|--- .... ....
....|..|G-3 2F.A ....|C-3 2F.7 ....|--- .... ....
 C-3|..|C-5 VF.F ....|C-3 2C.F ....|--- .... ....
 F-4|..|F-3 2C.F ....|C-3 2F.A ....|--- .... ....
....|..|C-4 LF.F ....|C-3 2F.7 ....|--- .... ....
 C-3|..|C-4 LF.F ....|C-3 2C.F ....|--- .... ....
....|..|F-3 2F.A ....|C-3 2F.A ....|--- .... ....
....|..|C-2 2F.7 ....|C-3 2F.7 ....|--- .... ....
 C-3|..|C-4 LF.F ....|C-3 2C.F ....|--- .... ....
 D#4|..|D#3 2C.F ....|C-3 2F.A ....|--- .... ....
....|..|F-3 2F.7 ....|C-3 2F.7 ....|--- .... ....
 C-3|..|C-4 AF.F ....|C-3 2C.F ....|--- .... ....
....|..|C-4 LF.F ....|C-3 2F.A ....|--- .... ....
 F-4|..|F-3 2C.F ....|C-3 2F.7 ....|--- .... ....

[Pattern61]
....|..|C-4 AF.F ....|--- .... ....|--- .... ....
....|..|C-4 AF.F ....|C-3 2F.A ....|--- .... ....
 C-4|..|C-2 2A.F ....|C-3 2F.7 ....|--- .... ....
....|..|C-4 LF.F ....|R-- .... ....|--- .... ....
 C-3|..|C-3 2C.F ....|--- .... ....|--- .... ....
....|..|C-4 LF.F ....|C-3 2F.7 ....|--- .... ....
....|..|C-4 LF.F ....|R-- .... ....|--- .... ....
....|..|C-4 LF.F ....|--- .... ....|--- .... ....
 G-4|..|G-3 2C.F ....|--- .... ....|--- .... ....
....|..|C-4 LF.F ....|--- .... ....|--- .... ....
....|..|C-4 LF.F ....|--- .... ....|--- .... ....
....|..|C-2 2F.7 ....|--- .... ....|--- .... ....
....|..|C-5 VF.F ....|--- .... ....|--- .... ....
 A#3|..|A#3 2C.F ....|--- .... ....|--- .... ....
....|..|C-5 VF.F ....|--- .... ....|--- .... ....
....|..|C-4 LF.F ....|--- .... ....|--- .... ....
....|..|A#3 2F.A ....|--- .... ....|--- .... ....
....|..|G-3 2F.7 ....|--- .... ....|--- .... ....
....|..|C-4 LF.F ....|--- .... ....|--- .... ....
....|..|C-2 2F.A ....|--- .... ....|--- .... ....
 C-3|..|C-3 2C.F ....|--- .... ....|--- .... ....
....|..|C-4 AF.F ....|--- .... ....|--- .... ....
 G-4|..|G-3 2C.F ....|--- .... ....|--- .... ....
....|..|C-4 AF.F ....|--- .... ....|--- .... ....
....|..|C-4 LF.F ....|--- .... ....|--- .... ....
 G-4|..|G-3 2C.F ....|--- .... ....|--- .... ....
....|..|G-3 2F.A ....|--- .... ....|--- .... ....
....|..|C-4 LF.F ....|--- .... ....|--- .... ....
 A#3|..|A#3 2C.F ....|--- .... ....|--- .... ....
....|..|C-4 LF.F ....|--- .... ....|--- .... ....
....|..|C-4 AF.F ....|--- .... ....|--- .... ....
....|..|A#3 2F.A ....|--- .... ....|--- .... ....
....|..|C-4 AF.F ....|--- .... ....|--- .... ....
....|..|C-4 LF.F ....|--- .... ....|--- .... ....
....|..|C-4 LF.F ....|--- .... ....|--- .... ....
....|..|A#3 2F.A ....|--- .... ....|--- .... ....
....|..|C-5 VF.F ....|--- .... ....|--- .... ....
 G-4|..|G-3 2C.F ....|--- .... ....|--- .... ....
....|..|C-5 VF.F ....|--- .... ....|--- .... ....
....|..|C-4 LF.F ....|--- .... ....|--- .... ....
....|..|G-3 2F.A ....|--- .... ....|--- .... ....
....|..|C-3 2F.7 ....|--- .... ....|--- .... ....
....|..|C-4 LF.F ....|--- .... ....|--- .... ....
 A#3|..|A#3 2C.F ....|--- .... ....|--- .... ....
 A#3|..|A#3 2C.F ....|--- .... ....|--- .... ....
....|..|C-4 LF.F ....|--- .... ....|--- .... ....
....|..|A#3 2F.A ....|--- .... ....|--- .... ....
....|..|A#3 2F.A ....|--- .... ....|--- .... ....
....|..|C-4 AF.F ....|--- .... ....|--- .... ....
....|..|C-4 AF.F ....|--- .... ....|--- .... ....
....|..|C-4 AF.F ....|--- .... ....|--- .... ....
....|..|C-4 LF.F ....|--- .... ....|--- .... ....
....|..|C-4 LF.F ....|--- .... ....|--- .... ....
....|..|A#3 2F.7 ....|--- .... ....|--- .... ....
....|..|C-4 LF.F ....|--- .... ....|--- .... ....
....|..|C-4 LF.F ....|--- .... ....|--- .... ....
 G-4|..|G-3 2C.F ....|--- .... ....|--- .... ....
....|..|C-4 LF.F ....|--- .... ....|--- .... ....
 G-4|..|G-3 2C.F ....|--- .... ....|--- .... ....
....|..|C-4 LF.F ....|--- .... ....|--- .... ....
....|..|C-5 VF.F ....|--- .... ....|--- .... ....
 A#3|..|A#3 2C.F ....|--- .... ....|--- .... ....
....|..|C-3 2F.7 ....|--- .... ....|--- .... ....
....|..|C-4 LF.F ....|--- .... ....|--- .... ....
....|..|A#3 2F.A ....|--- .... ....|--- .... ....
....|..|G-3 2F.7 ....|--- .... ....|--- .... ....
....|..|C-4 LF.F ....|--- .... ....|--- .... ....
....|..|C-2 2F.A ....|--- .... ....|--- .... ....
 C-3|..|C-3 2C.F ....|--- .... ....|--- .... ....
....|..|C-4 AF.F ....|--- .... ....|--- .... ....
 G-4|..|G-3 2C.F ....|--- .... ....|--- .... ....
....|..|C-4 AF.F ....|--- .... ....|--- .... ....
....|..|C-4 LF.F ....|--- .... ....|--- .... ....
....|..|C-3 2F.A ....|--- .... ....|--- .... ....
 G-4|..|G-3 2C.F ....|--- .... ....|--- .... ....
....|..|C-4 LF.F ....|--- .... ....|--- .... ....
 A#3|..|A#3 2C.F ....|--- .... ....|--- .... ....
....|..|C-4 LF.F ....|--- .... ....|--- .... ....
....|..|C-4 AF.F ....|--- .... ....|--- .... ....
....|..|D-2 2F.A ....|--- .... ....|--- .... ....
....|..|C-4 AF.F ....|--- .... ....|--- .... ....
....|..|C-4 LF.F ....|--- .... ....|--- .... ....
....|..|C-4 LF.F ....|--- .... ....|--- .... ....
....|..|A#3 2F.A ....|--- .... ....|--- .... ....
....|..|C-5 VF.F ....|--- .... ....|--- .... ....
....|..|C-3 2F.A ....|--- .... ....|--- .... ....
 G-4|..|G-3 2C.F ....|--- .... ....|--- .... ....
....|..|C-4 LF.F ....|--- .... ....|--- .... ....
 G-4|..|G-3 2C.F ....|--- .... ....|--- .... ....
....|..|G-3 2F.A ....|--- .... ....|--- .... ....
....|..|C-4 LF.F ....|--- .... ....|--- .... ....
 A#3|..|A#1 2A.F ....|--- .... ....|--- .... ....
 G-4|..|G-3 2C.F ....|--- .... ....|--- .... ....
....|..|C-4 AF.F ....|--- .... ....|--- .... ....
....|..|C-4 LF.F ....|--- .... ....|--- .... ....
 B-3|..|B-1 2A.F ....|--- .... ....|--- .... ....

[Pattern62]
....|..|C-4 AF.F ....|--- .... ....|--- .... ....
....|..|C-4 AF.F ....|--- .... ....|--- .... ....
 C-4|..|C-2 2A.F ....|--- .... ....|--- .... ....
....|..|C-4 LF.F ....|--- .... ....|--- .... ....
....|..|C-4 LF.F ....|--- .... ....|--- .... ....
....|..|G-3 2F.7 ....|--- .... ....|--- .... ....
....|..|C-4 LF.F ....|--- .... ....|--- .... ....
 C-3|..|C-3 2C.F ....|--- .... ....|--- .... ....
....|..|B-1 2F.7 ....|--- .... ....|--- .... ....
....|..|C-4 LF.F ....|--- .... ....|--- .... ....
....|..|C-4 LF.F ....|--- .... ....|--- .... ....
....|..|C-2 2F.7 ....|--- .... ....|--- .... ....
....|..|C-5 VF.F ....|--- .... ....|--- .... ....
 A#3|..|A#3 2C.F ....|--- .... ....|--- .... ....
....|..|C-5 VF.F ....|--- .... ....|--- .... ....
....|..|C-4 LF.F ....|--- .... ....|--- .... ....
....|..|A#3 2F.A ....|--- .... ....|--- .... ....
....|..|G-3 2F.7 ....|--- .... ....|--- .... ....
....|..|C-4 LF.F ....|--- .... ....|--- .... ....
....|..|C-2 2F.A ....|--- .... ....|--- .... ....
 C-3|..|C-3 2C.F ....|--- .... ....|--- .... ....
....|..|C-4 AF.F ....|--- .... ....|--- .... ....
 G-4|..|G-3 2C.F ....|--- .... ....|--- .... ....
....|..|C-4 AF.F ....|--- .... ....|--- .... ....
....|..|C-4 LF.F ....|--- .... ....|--- .... ....
....|..|C-3 2F.A ....|--- .... ....|--- .... ....
 G-4|..|G-3 2C.F ....|--- .... ....|--- .... ....
....|..|C-4 LF.F ....|--- .... ....|--- .... ....
 A#3|..|A#3 2C.F ....|--- .... ....|--- .... ....
....|..|C-3 2F.7 ....|--- .... ....|--- .... ....
....|..|C-4 AF.F ....|--- .... ....|--- .... ....
....|..|D-2 2F.A ....|--- .... ....|--- .... ....
....|..|A#3 2F.A ....|--- .... ....|--- .... ....
....|..|C-4 LF.F ....|--- .... ....|--- .... ....
....|..|C-4 LF.F ....|--- .... ....|--- .... ....
 C-3|..|C-3 2C.F ....|--- .... ....|--- .... ....
....|..|C-5 VF.F ....|--- .... ....|--- .... ....
 G-4|..|G-3 2C.F ....|--- .... ....|--- .... ....
....|..|C-5 VF.F ....|--- .... ....|--- .... ....
....|..|C-4 LF.F ....|--- .... ....|--- .... ....
....|..|G-3 2F.A ....|--- .... ....|--- .... ....
....|..|C-3 2F.7 ....|--- .... ....|--- .... ....
....|..|C-4 LF.F ....|--- .... ....|--- .... ....
 A#3|..|A#3 2C.F ....|--- .... ....|--- .... ....
 A#3|..|A#3 2C.F ....|--- .... ....|--- .... ....
....|..|C-4 LF.F ....|--- .... ....|--- .... ....
....|..|A#3 2F.A ....|--- .... ....|--- .... ....
....|..|A#3 2F.A ....|--- .... ....|--- .... ....
....|..|C-4 AF.F ....|--- .... ....|--- .... ....
....|..|C-4 LF.F ....|--- .... ....|--- .... ....
....|..|A#3 2F.7 ....|--- .... ....|--- .... ....
....|..|C-4 LF.F ....|--- .... ....|--- .... ....
....|..|C-4 LF.F ....|--- .... ....|--- .... ....
 C-3|..|C-3 2C.F ....|--- .... ....|--- .... ....
....|..|C-4 LF.F ....|--- .... ....|--- .... ....
....|..|C-4 LF.F ....|--- .... ....|--- .... ....
 G-4|..|G-3 2C.F ....|--- .... ....|--- .... ....
....|..|C-4 LF.F ....|--- .... ....|--- .... ....
....|..|C-4 LF.F ....|--- .... ....|--- .... ....
 A#3|..|A#3 2C.F ....|--- .... ....|--- .... ....
....|..|C-5 VF.F ....|--- .... ....|--- .... ....
 A#3|..|A#3 2C.F ....|--- .... ....|--- .... ....
....|..|C-5 VF.F ....|--- .... ....|--- .... ....
....|..|C-4 LF.F ....|--- .... ....|--- .... ....
....|..|A#3 2F.A ....|--- .... ....|--- .... ....
....|..|G-3 2F.7 ....|--- .... ....|--- .... ....
....|..|C-4 LF.F ....|--- .... ....|--- .... ....
....|..|C-2 2F.A ....|--- .... ....|--- .... ....
 C-3|..|C-3 2C.F ....|--- .... ....|--- .... ....
....|..|C-4 AF.F ....|--- .... ....|--- .... ....
 G-4|..|G-3 2C.F ....|--- .... ....|--- .... ....
....|..|C-4 AF.F ....|--- .... ....|--- .... ....
....|..|C-4 LF.F ....|--- .... ....|--- .... ....
 G-4|..|G-3 2C.F ....|--- .... ....|--- .... ....
....|..|G-3 2F.A ....|--- .... ....|--- .... ....
....|..|C-4 LF.F ....|--- .... ....|--- .... ....
 A#3|..|A#3 2C.F ....|--- .... ....|--- .... ....
 A#3|..|A#3 2C.F ....|--- .... ....|--- .... ....
....|..|C-4 AF.F ....|--- .... ....|--- .... ....
....|..|A#3 2F.A ....|--- .... ....|--- .... ....
....|..|A#3 2F.A ....|--- .... ....|--- .... ....
....|..|C-4 LF.F ....|--- .... ....|--- .... ....
....|..|C-4 LF.F ....|--- .... ....|--- .... ....
 C-3|..|C-3 2C.F ....|--- .... ....|--- .... ....
....|..|C-5 VF.F ....|--- .... ....|--- .... ....
 G-4|..|G-3 2C.F ....|--- .... ....|--- .... ....
....|..|C-5 VF.F ....|--- .... ....|--- .... ....
....|..|C-4 LF.F ....|--- .... ....|--- .... ....
....|..|G-3 2F.A ....|--- .... ....|--- .... ....
....|..|C-3 2F.7 ....|--- .... ....|--- .... ....
....|..|C-4 LF.F ....|--- .... ....|--- .... ....
 G-4|..|G-3 2C.F ....|--- .... ....|--- .... ....
 A#3|..|A#1 2A.F ....|--- .... ....|--- .... ....
....|..|C-4 LF.F ....|--- .... ....|--- .... ....
 B-3|..|B-1 2A.F ....|--- .... ....|--- .... ....
 B-3|..|B-1 2A.F ....|--- .... ....|--- .... ....

[Pattern63]
....|..|C-4 AF.F ....|--- .... ....|--- .... ....
....|..|C-4 AF.F ....|--- .... ....|--- .... ....
....|..|A#1 2F.A ....|--- .... ....|--- .... ....
....|..|C-4 LF.F ....|--- .... ....|--- .... ....
 C-4|..|C-2 2A.F ....|--- .... ....|--- .... ....
....|..|C-4 LF.F ....|--- .... ....|--- .... ....
....|..|C-4 LF.F ....|--- .... ....|--- .... ....
....|..|C-4 LF.F ....|--- .... ....|--- .... ....
....|..|B-1 2F.7 ....|--- .... ....|--- .... ....
....|..|C-4 LF.F ....|--- .... ....|--- .... ....
....|..|C-4 LF.F ....|--- .... ....|--- .... ....
....|..|C-2 2F.7 ....|--- .... ....|--- .... ....
....|..|C-5 VF.F ....|--- .... ....|--- .... ....
 A#3|..|A#3 2C.F ....|--- .... ....|--- .... ....
....|..|C-5 VF.F ....|--- .... ....|--- .... ....
....|..|C-4 LF.F ....|--- .... ....|--- .... ....
....|..|A#3 2F.A ....|--- .... ....|--- .... ....
....|..|G-3 2F.7 ....|--- .... ....|--- .... ....
....|..|C-4 LF.F ....|--- .... ....|--- .... ....
....|..|C-2 2F.A ....|--- .... ....|--- .... ....
 C-3|..|C-3 2C.F ....|--- .... ....|--- .... ....
....|..|C-4 AF.F ....|--- .... ....|--- .... ....
 G-4|..|G-3 2C.F ....|--- .... ....|--- .... ....
....|..|C-4 AF.F ....|--- .... ....|--- .... ....
....|..|C-4 LF.F ....|--- .... ....|--- .... ....
 G-4|..|G-3 2C.F ....|--- .... ....|--- .... ....
....|..|G-3 2F.A ....|--- .... ....|--- .... ....
....|..|C-4 LF.F ....|--- .... ....|--- .... ....
 A#3|..|A#3 2C.F ....|--- .... ....|--- .... ....
....|..|C-4 LF.F ....|--- .... ....|--- .... ....
....|..|C-4 AF.F ....|--- .... ....|--- .... ....
....|..|A#3 2F.A ....|--- .... ....|--- .... ....
....|..|C-4 AF.F ....|--- .... ....|--- .... ....
....|..|C-4 LF.F ....|--- .... ....|--- .... ....
....|..|C-4 LF.F ....|--- .... ....|--- .... ....
....|..|A#3 2F.A ....|--- .... ....|--- .... ....
....|..|C-5 VF.F ....|--- .... ....|--- .... ....
 G-4|..|G-3 2C.F ....|--- .... ....|--- .... ....
....|..|C-5 VF.F ....|--- .... ....|--- .... ....
....|..|C-4 LF.F ....|--- .... ....|--- .... ....
....|..|G-3 2F.A ....|--- .... ....|--- .... ....
....|..|C-3 2F.7 ....|--- .... ....|--- .... ....
....|..|C-4 LF.F ....|--- .... ....|--- .... ....
 A#3|..|A#3 2C.F ....|--- .... ....|--- .... ....
 A#3|..|A#3 2C.F ....|--- .... ....|--- .... ....
....|..|C-4 LF.F ....|--- .... ....|--- .... ....
....|..|A#3 2F.A ....|--- .... ....|--- .... ....
....|..|A#3 2F.A ....|--- .... ....|--- .... ....
....|..|C-4 AF.F ....|--- .... ....|--- .... ....
....|..|C-4 AF.F ....|--- .... ....|--- .... ....
....|..|C-4 AF.F ....|--- .... ....|--- .... ....
....|..|C-4 LF.F ....|--- .... ....|--- .... ....
....|..|C-4 LF.F ....|--- .... ....|--- .... ....
....|..|A#3 2F.7 ....|--- .... ....|--- .... ....
....|..|C-4 LF.F ....|--- .... ....|--- .... ....
....|..|C-4 LF.F ....|--- .... ....|--- .... ....
 G-4|..|G-3 2C.F ....|--- .... ....|--- .... ....
....|..|C-4 LF.F ....|--- .... ....|--- .... ....
 G-4|..|G-3 2C.F ....|--- .... ....|--- .... ....
....|..|C-4 LF.F ....|--- .... ....|--- .... ....
....|..|C-5 VF.F ....|--- .... ....|--- .... ....
 A#3|..|A#3 2C.F ....|--- .... ....|--- .... ....
....|..|C-3 2F.7 ....|--- .... ....|--- .... ....
....|..|C-4 LF.F ....|--- .... ....|--- .... ....
....|..|A#3 2F.A ....|--- .... ....|--- .... ....
....|..|G-3 2F.7 ....|--- .... ....|--- .... ....
....|..|C-4 LF.F ....|--- .... ....|--- .... ....
....|..|C-2 2F.A ....|--- .... ....|--- .... ....
 C-3|..|C-3 2C.F ....|--- .... ....|--- .... ....
....|..|C-4 AF.F ....|--- .... ....|--- .... ....
 G-4|..|G-3 2C.F ....|--- .... ....|--- .... ....
....|..|C-4 AF.F ....|--- .... ....|--- .... ....
....|..|C-4 LF.F ....|--- .... ....|--- .... ....
....|..|C-3 2F.A ....|--- .... ....|--- .... ....
 G-4|..|G-3 2C.F ....|--- .... ....|--- .... ....
....|..|C-4 LF.F ....|--- .... ....|--- .... ....
 A#3|..|A#3 2C.F ....|--- .... ....|--- .... ....
....|..|C-4 LF.F ....|--- .... ....|--- .... ....
....|..|C-4 AF.F ....|--- .... ....|--- .... ....
....|..|D-2 2F.A ....|--- .... ....|--- .... ....
....|..|C-4 AF.F ....|--- .... ....|--- .... ....
....|..|C-4 LF.F ....|--- .... ....|--- .... ....
....|..|C-4 LF.F ....|--- .... ....|--- .... ....
....|..|A#3 2F.A ....|--- .... ....|--- .... ....
....|..|C-5 VF.F ....|--- .... ....|--- .... ....
....|..|C-3 2F.A ....|--- .... ....|--- .... ....
 G-4|..|G-3 2C.F ....|--- .... ....|--- .... ....
....|..|C-4 LF.F ....|--- .... ....|--- .... ....
 G-4|..|G-3 2C.F ....|--- .... ....|--- .... ....
....|..|G-3 2F.A ....|--- .... ....|--- .... ....
....|..|C-4 LF.F ....|--- .... ....|--- .... ....
 A#3|..|A#1 2A.F ....|--- .... ....|--- .... ....
 G-4|..|G-3 2C.F ....|--- .... ....|--- .... ....
....|..|C-4 AF.F ....|--- .... ....|--- .... ....
....|..|C-4 LF.F ....|--- .... ....|--- .... ....
 B-3|..|B-1 2A.F ....|--- .... ....|--- .... ....

[Pattern67]
....|..|C-4 AF.F ....|G-4 2F.F ....|--- .... ....
....|..|C-4 AF.F ....|R-- .... ....|--- .... ....
....|..|A#1 2F.A ....|--- .... ....|--- .... ....
....|..|C-4 LF.F ....|G-4 2F.F ....|--- .... ....
 C-4|..|C-2 2A.F ....|G-4 2F.A ....|--- .... ....
....|..|C-4 LF.F ....|R-- .... ....|--- .... ....
....|..|C-4 LF.F ....|--- .... ....|--- .... ....
....|..|C-4 LF.F ....|G-4 2F.A ....|--- .... ....
....|..|B-1 2F.7 ....|G-4 2F.7 ....|--- .... ....
....|..|C-4 LF.F ....|G-4 2F.F ....|--- .... ....
....|..|C-4 LF.F ....|R-- .... ....|--- .... ....
....|..|C-2 2F.7 ....|G-4 2F.7 ....|--- .... ....
....|..|C-5 VF.F ....|G-4 2F.F ....|--- .... ....
 A#3|..|A#3 2C.F ....|G-4 2F.A ....|--- .... ....
....|..|C-5 VF.F ....|R-- .... ....|--- .... ....
....|..|C-4 LF.F ....|R-- .... ....|--- .... ....
....|..|A#3 2F.A ....|G-4 2F.A ....|--- .... ....
....|..|G-3 2F.7 ....|G-4 2F.7 ....|--- .... ....
....|..|C-4 LF.F ....|G-4 2F.F ....|--- .... ....
....|..|C-2 2F.A ....|C-4 2F.F ....|--- .... ....
 C-3|..|C-3 2C.F ....|G-4 2F.7 ....|--- .... ....
....|..|C-4 AF.F ....|G-4 2F.F ....|--- .... ....
 G-4|..|G-3 2C.F ....|G-4 2F.A ....|--- .... ....
....|..|C-4 AF.F ....|C-4 2F.A ....|--- .... ....
....|..|C-4 LF.F ....|G-4 2F.F ....|--- .... ....
 G-4|..|G-3 2C.F ....|G-4 2F.A ....|--- .... ....
....|..|G-3 2F.A ....|G-4 2F.7 ....|--- .... ....
....|..|C-4 LF.F ....|G-4 2F.F ....|--- .... ....
 A#3|..|A#3 2C.F ....|G-4 2F.A ....|--- .... ....
....|..|C-4 LF.F ....|G-4 2F.7 ....|--- .... ....
....|..|C-4 AF.F ....|R-- .... ....|--- .... ....
....|..|A#3 2F.A ....|G-4 2F.A ....|--- .... ....
....|..|C-4 AF.F ....|G-4 2F.7 ....|--- .... ....
....|..|C-4 LF.F ....|G-4 2F.F ....|--- .... ....
....|..|C-4 LF.F ....|R-- .... ....|--- .... ....
....|..|A#3 2F.A ....|G-4 2F.7 ....|--- .... ....
....|..|C-5 VF.F ....|G-4 2F.F ....|--- .... ....
 G-4|..|G-3 2C.F ....|G-4 2F.A ....|--- .... ....
....|..|C-5 VF.F ....|R-- .... ....|--- .... ....
....|..|C-4 LF.F ....|R-- .... ....|--- .... ....
....|..|G-3 2F.A ....|G-4 2F.A ....|--- .... ....
....|..|C-3 2F.7 ....|G-4 2F.7 ....|--- .... ....
....|..|C-4 LF.F ....|G-4 2F.F ....|--- .... ....
 A#3|..|A#3 2C.F ....|R-- .... ....|--- .... ....
 A#3|..|A#3 2C.F ....|G-4 2F.7 ....|--- .... ....
....|..|C-4 LF.F ....|G-4 2F.F ....|--- .... ....
....|..|A#3 2F.A ....|G-4 2F.A ....|--- .... ....
....|..|A#3 2F.A ....|R-- .... ....|--- .... ....
....|..|C-4 AF.F ....|G-4 2F.F ....|--- .... ....
....|..|C-4 AF.F ....|C-4 2F.F ....|--- .... ....
....|..|C-4 AF.F ....|G-4 2F.7 ....|--- .... ....
....|..|C-4 LF.F ....|G-4 2F.F ....|--- .... ....
....|..|C-4 LF.F ....|G-4 2F.A ....|--- .... ....
....|..|A#3 2F.7 ....|G-4 2F.7 ....|--- .... ....
....|..|C-4 LF.F ....|R-- .... ....|--- .... ....
....|..|C-4 LF.F ....|G-4 2F.A ....|--- .... ....
 G-4|..|G-3 2C.F ....|G-4 2F.7 ....|--- .... ....
....|..|C-4 LF.F ....|G-4 2F.F ....|--- .... ....
 G-4|..|G-3 2C.F ....|R-- .... ....|--- .... ....
....|..|C-4 LF.F ....|G-4 2F.7 ....|--- .... ....
....|..|C-5 VF.F ....|G-4 2F.F ....|--- .... ....
 A#3|..|A#3 2C.F ....|G-4 2F.A ....|--- .... ....
....|..|C-3 2F.7 ....|R-- .... ....|--- .... ....
....|..|C-4 LF.F ....|--- .... ....|--- .... ....
....|..|A#3 2F.A ....|G-4 2F.A ....|--- .... ....
....|..|G-3 2F.7 ....|G-4 2F.7 ....|--- .... ....
....|..|C-4 LF.F ....|G-4 2F.F ....|--- .... ....
....|..|C-2 2F.A ....|G-4 2F.F ....|--- .... ....
 C-3|..|C-3 2C.F ....|G-4 2F.7 ....|--- .... ....
....|..|C-4 AF.F ....|G-4 2F.F ....|--- .... ....
 G-4|..|G-3 2C.F ....|C-4 2F.F ....|--- .... ....
....|..|C-4 AF.F ....|G-4 2F.A ....|--- .... ....
....|..|C-4 LF.F ....|G-4 2F.F ....|--- .... ....
....|..|C-3 2F.A ....|G-4 2F.F ....|--- .... ....
 G-4|..|G-3 2C.F ....|G-4 2F.7 ....|--- .... ....
....|..|C-4 LF.F ....|G-4 2F.F ....|--- .... ....
 A#3|..|A#3 2C.F ....|G-4 2F.A ....|--- .... ....
....|..|C-4 LF.F ....|G-4 2F.7 ....|--- .... ....
....|..|C-4 AF.F ....|C-4 2F.7 ....|--- .... ....
....|..|D-2 2F.A ....|G-4 2F.A ....|--- .... ....
....|..|C-4 AF.F ....|G-4 2F.7 ....|--- .... ....
....|..|C-4 LF.F ....|G-4 2F.F ....|--- .... ....
....|..|C-4 LF.F ....|R-- .... ....|--- .... ....
....|..|A#3 2F.A ....|G-4 2F.7 ....|--- .... ....
....|..|C-5 VF.F ....|G-4 2F.F ....|--- .... ....
....|..|C-3 2F.A ....|G-4 2F.A ....|--- .... ....
 G-4|..|G-3 2C.F ....|R-- .... ....|--- .... ....
....|..|C-4 LF.F ....|R-- .... ....|--- .... ....
 G-4|..|G-3 2C.F ....|G-4 2F.A ....|--- .... ....
....|..|G-3 2F.A ....|G-4 2F.7 ....|--- .... ....
....|..|C-4 LF.F ....|G-4 2F.F ....|--- .... ....
 A#3|..|A#1 2A.F ....|G-4 2F.F ....|--- .... ....
 G-4|..|G-3 2C.F ....|G-4 2F.7 ....|--- .... ....
....|..|C-4 AF.F ....|G-4 2F.F ....|--- .... ....
....|..|C-4 LF.F ....|G-4 2F.A ....|--- .... ....
 B-3|..|B-1 2A.F ....|G-4 2F.A ....|--- .... ....

[Pattern68]
....|..|C-4 AF.F ....|G-4 2F.F ....|--- .... ....
....|..|C-4 AF.F ....|G-4 2F.A ....|--- .... ....
 C-4|..|C-2 2A.F ....|G-4 2F.7 ....|--- .... ....
....|..|C-4 LF.F ....|G-4 2F.F ....|--- .... ....
....|..|C-4 LF.F ....|G-4 2F.A ....|--- .... ....
....|..|G-3 2F.7 ....|G-4 2F.7 ....|--- .... ....
....|..|C-4 LF.F ....|R-- .... ....|--- .... ....
 C-3|..|C-3 2C.F ....|G-4 2F.A ....|--- .... ....
....|..|B-1 2F.7 ....|G-4 2F.7 ....|--- .... ....
....|..|C-4 LF.F ....|G-4 2F.F ....|--- .... ....
....|..|C-4 LF.F ....|G-4 2F.F ....|--- .... ....
....|..|C-2 2F.7 ....|G-4 2F.7 ....|--- .... ....
....|..|C-5 VF.F ....|G-4 2F.F ....|--- .... ....
 A#3|..|A#3 2C.F ....|G-4 2F.A ....|--- .... ....
....|..|C-5 VF.F ....|G-4 2F.A ....|--- .... ....
....|..|C-4 LF.F ....|R-- .... ....|--- .... ....
....|..|A#3 2F.A ....|G-4 2F.A ....|--- .... ....
....|..|G-3 2F.7 ....|G-4 2F.7 ....|--- .... ....
....|..|C-4 LF.F ....|G-4 2F.F ....|--- .... ....
....|..|C-2 2F.A ....|C-4 2F.F ....|--- .... ....
 C-3|..|C-3 2C.F ....|G-4 2F.7 ....|--- .... ....
....|..|C-4 AF.F ....|G-4 2F.F ....|--- .... ....
 G-4|..|G-3 2C.F ....|C-4 2F.F ....|--- .... ....
....|..|C-4 AF.F ....|C-4 2F.A ....|--- .... ....
....|..|C-4 LF.F ....|G-4 2F.F ....|--- .... ....
....|..|C-3 2F.A ....|G-4 2F.A ....|--- .... ....
 G-4|..|G-3 2C.F ....|G-4 2F.7 ....|--- .... ....
....|..|C-4 LF.F ....|G-4 2F.F ....|--- .... ....
 A#3|..|A#3 2C.F ....|G-4 2F.A ....|--- .... ....
....|..|C-3 2F.7 ....|G-4 2F.7 ....|--- .... ....
....|..|C-4 AF.F ....|C-4 2F.7 ....|--- .... ....
....|..|D-2 2F.A ....|G-4 2F.A ....|--- .... ....
....|..|A#3 2F.A ....|G-4 2F.7 ....|--- .... ....
....|..|C-4 LF.F ....|G-4 2F.F ....|--- .... ....
....|..|C-4 LF.F ....|G-4 2F.F ....|--- .... ....
 C-3|..|C-3 2C.F ....|G-4 2F.7 ....|--- .... ....
....|..|C-5 VF.F ....|G-4 2F.F ....|--- .... ....
 G-4|..|G-3 2C.F ....|G-4 2F.A ....|--- .... ....
....|..|C-5 VF.F ....|G-4 2F.A ....|--- .... ....
....|..|C-4 LF.F ....|R-- .... ....|--- .... ....
....|..|G-3 2F.A ....|G-4 2F.A ....|--- .... ....
....|..|C-3 2F.7 ....|G-4 2F.7 ....|--- .... ....
....|..|C-4 LF.F ....|G-4 2F.F ....|--- .... ....
 A#3|..|A#3 2C.F ....|R-- .... ....|--- .... ....
 A#3|..|A#3 2C.F ....|G-4 2F.7 ....|--- .... ....
....|..|C-4 LF.F ....|G-4 2F.F ....|--- .... ....
....|..|A#3 2F.A ....|C-4 2F.F ....|--- .... ....
....|..|A#3 2F.A ....|R-- .... ....|--- .... ....
....|..|C-4 AF.F ....|G-4 2F.F ....|--- .... ....
....|..|C-4 LF.F ....|G-4 2F.F ....|--- .... ....
....|..|A#3 2F.7 ....|G-4 2F.7 ....|--- .... ....
....|..|C-4 LF.F ....|G-4 2F.F ....|--- .... ....
....|..|C-4 LF.F ....|G-4 2F.A ....|--- .... ....
 C-3|..|C-3 2C.F ....|G-4 2F.7 ....|--- .... ....
....|..|C-4 LF.F ....|C-4 2F.7 ....|--- .... ....
....|..|C-4 LF.F ....|G-4 2F.A ....|--- .... ....
 G-4|..|G-3 2C.F ....|G-4 2F.7 ....|--- .... ....
....|..|C-4 LF.F ....|G-4 2F.F ....|--- .... ....
....|..|C-4 LF.F ....|G-4 2F.F ....|--- .... ....
 A#3|..|A#3 2C.F ....|G-4 2F.7 ....|--- .... ....
....|..|C-5 VF.F ....|G-4 2F.F ....|--- .... ....
 A#3|..|A#3 2C.F ....|G-4 2F.A ....|--- .... ....
....|..|C-5 VF.F ....|G-4 2F.A ....|--- .... ....
....|..|C-4 LF.F ....|R-- .... ....|--- .... ....
....|..|A#3 2F.A ....|G-4 2F.A ....|--- .... ....
....|..|G-3 2F.7 ....|G-4 2F.7 ....|--- .... ....
....|..|C-4 LF.F ....|G-4 2F.F ....|--- .... ....
....|..|C-2 2F.A ....|G-4 2F.F ....|--- .... ....
 C-3|..|C-3 2C.F ....|G-4 2F.7 ....|--- .... ....
....|..|C-4 AF.F ....|G-4 2F.F ....|--- .... ....
 G-4|..|G-3 2C.F ....|G-4 2F.A ....|--- .... ....
....|..|C-4 AF.F ....|G-4 2F.A ....|--- .... ....
....|..|C-4 LF.F ....|G-4 2F.F ....|--- .... ....
 G-4|..|G-3 2C.F ....|G-4 2F.F ....|--- .... ....
....|..|G-3 2F.A ....|G-4 2F.7 ....|--- .... ....
....|..|C-4 LF.F ....|G-4 2F.F ....|--- .... ....
 A#3|..|A#3 2C.F ....|G-4 2F.A ....|--- .... ....
 A#3|..|A#3 2C.F ....|G-4 2F.7 ....|--- .... ....
....|..|C-4 AF.F ....|R-- .... ....|--- .... ....
....|..|A#3 2F.A ....|G-4 2F.A ....|--- .... ....
....|..|A#3 2F.A ....|G-4 2F.7 ....|--- .... ....
....|..|C-4 LF.F ....|G-4 2F.F ....|--- .... ....
....|..|C-4 LF.F ....|G-4 2F.F ....|--- .... ....
 C-3|..|C-3 2C.F ....|G-4 2F.7 ....|--- .... ....
....|..|C-5 VF.F ....|G-4 2F.F ....|--- .... ....
 G-4|..|G-3 2C.F ....|G-4 2F.A ....|--- .... ....
....|..|C-5 VF.F ....|G-4 2F.A ....|--- .... ....
....|..|C-4 LF.F ....|R-- .... ....|--- .... ....
....|..|G-3 2F.A ....|G-4 2F.A ....|--- .... ....
....|..|C-3 2F.7 ....|G-4 2F.7 ....|--- .... ....
....|..|C-4 LF.F ....|G-4 2F.F ....|--- .... ....
 G-4|..|G-3 2C.F ....|G-4 2F.F ....|--- .... ....
 A#3|..|A#1 2A.F ....|G-4 2F.7 ....|--- .... ....
....|..|C-4 LF.F ....|G-4 2F.F ....|--- .... ....
 B-3|..|B-1 2A.F ....|G-4 2F.F ....|--- .... ....
 B-3|..|B-1 2A.F ....|G-4 2F.A ....|--- .... ....

[Pattern69]
....|..|C-4 AF.F ....|G-4 2F.F ....|--- .... ....
....|..|C-4 AF.F ....|G-4 2F.A ....|--- .... ....
....|..|A#1 2F.A ....|G-4 2F.7 ....|--- .... ....
....|..|C-4 LF.F ....|G-4 2F.F ....|--- .... ....
 C-4|..|C-2 2A.F ....|G-4 2F.A ....|--- .... ....
....|..|C-4 LF.F ....|G-4 2F.F ....|--- .... ....
....|..|C-4 LF.F ....|G-4 2F.7 ....|--- .... ....
....|..|C-4 LF.F ....|G-4 2F.A ....|--- .... ....
....|..|B-1 2F.7 ....|G-4 2F.7 ....|--- .... ....
....|..|C-4 LF.F ....|G-4 2F.F ....|--- .... ....
....|..|C-4 LF.F ....|G-4 2F.F ....|--- .... ....
....|..|C-2 2F.7 ....|G-4 2F.7 ....|--- .... ....
....|..|C-5 VF.F ....|G-4 2F.F ....|--- .... ....
 A#3|..|A#3 2C.F ....|G-4 2F.7 ....|--- .... ....
....|..|C-5 VF.F ....|G-4 2F.A ....|--- .... ....
....|..|C-4 LF.F ....|R-- .... ....|--- .... ....
....|..|A#3 2F.A ....|G-4 2F.A ....|--- .... ....
....|..|G-3 2F.7 ....|G-4 2F.7 ....|--- .... ....
....|..|C-4 LF.F ....|G-4 2F.F ....|--- .... ....
....|..|C-2 2F.A ....|G-4 2F.F ....|--- .... ....
 C-3|..|C-3 2C.F ....|G-4 2F.7 ....|--- .... ....
....|..|C-4 AF.F ....|G-4 2F.F ....|--- .... ....
 G-4|..|G-3 2C.F ....|C-4 2F.F ....|--- .... ....
....|..|C-4 AF.F ....|G-4 2F.A ....|--- .... ....
....|..|C-4 LF.F ....|G-4 2F.F ....|--- .... ....
 G-4|..|G-3 2C.F ....|G-4 2F.F ....|--- .... ....
....|..|G-3 2F.A ....|G-4 2F.7 ....|--- .... ....
....|..|C-4 LF.F ....|G-4 2F.F ....|--- .... ....
 A#3|..|A#3 2C.F ....|G-4 2F.A ....|--- .... ....
....|..|C-4 LF.F ....|G-4 2F.7 ....|--- .... ....
....|..|C-4 AF.F ....|C-4 2F.7 ....|--- .... ....
....|..|A#3 2F.A ....|G-4 2F.A ....|--- .... ....
....|..|C-4 AF.F ....|G-4 2F.7 ....|--- .... ....
....|..|C-4 LF.F ....|C-5 2F.F ....|--- .... ....
....|..|C-4 LF.F ....|G-4 2F.F ....|--- .... ....
....|..|A#3 2F.A ....|G-4 2F.7 ....|--- .... ....
....|..|C-5 VF.F ....|C-5 2F.F ....|--- .... ....
 G-4|..|G-3 2C.F ....|C-5 2F.A ....|--- .... ....
....|..|C-5 VF.F ....|G-4 2F.A ....|--- .... ....
....|..|C-4 LF.F ....|C-5 2F.F ....|--- .... ....
....|..|G-3 2F.A ....|C-5 2F.A ....|--- .... ....
....|..|C-3 2F.7 ....|C-5 2F.7 ....|--- .... ....
....|..|C-4 LF.F ....|C-5 2F.F ....|--- .... ....
 A#3|..|A#3 2C.F ....|G-4 2F.F ....|--- .... ....
 A#3|..|A#3 2C.F ....|C-5 2F.7 ....|--- .... ....
....|..|C-4 LF.F ....|C-5 2F.F ....|--- .... ....
....|..|A#3 2F.A ....|C-5 2F.F ....|--- .... ....
....|..|A#3 2F.A ....|C-5 2F.7 ....|--- .... ....
....|..|C-4 AF.F ....|C-5 2F.F ....|--- .... ....
....|..|C-4 AF.F ....|G-4 2F.F ....|--- .... ....
....|..|C-4 AF.F ....|C-5 2F.7 ....|--- .... ....
....|..|C-4 LF.F ....|C-5 2F.F ....|--- .... ....
....|..|C-4 LF.F ....|C-5 2F.A ....|--- .... ....
....|..|A#3 2F.7 ....|C-5 2F.7 ....|--- .... ....
....|..|C-4 LF.F ....|C-5 2F.7 ....|--- .... ....
....|..|C-4 LF.F ....|C-5 2F.A ....|--- .... ....
 G-4|..|G-3 2C.F ....|C-5 2F.7 ....|--- .... ....
....|..|C-4 LF.F ....|C-5 2F.F ....|--- .... ....
 G-4|..|G-3 2C.F ....|G-4 2F.F ....|--- .... ....
....|..|C-4 LF.F ....|C-5 2F.7 ....|--- .... ....
....|..|C-5 VF.F ....|C-5 2F.F ....|--- .... ....
 A#3|..|A#3 2C.F ....|C-5 2F.A ....|--- .... ....
....|..|C-3 2F.7 ....|G-4 2F.A ....|--- .... ....
....|..|C-4 LF.F ....|R-- .... ....|--- .... ....
....|..|A#3 2F.A ....|C-5 2F.A ....|--- .... ....
....|..|G-3 2F.7 ....|C-5 2F.7 ....|--- .... ....
....|..|C-4 LF.F ....|C-5 2F.F ....|--- .... ....
....|..|C-2 2F.A ....|G-4 2F.F ....|--- .... ....
 C-3|..|C-3 2C.F ....|C-5 2F.7 ....|--- .... ....
....|..|C-4 AF.F ....|C-5 2F.F ....|--- .... ....
 G-4|..|G-3 2C.F ....|C-5 2F.A ....|--- .... ....
....|..|C-4 AF.F ....|G-4 2F.A ....|--- .... ....
....|..|C-4 LF.F ....|C-5 2F.F ....|--- .... ....
....|..|C-3 2F.A ....|G-4 2F.F ....|--- .... ....
 G-4|..|G-3 2C.F ....|C-5 2F.7 ....|--- .... ....
....|..|C-4 LF.F ....|C-5 2F.F ....|--- .... ....
 A#3|..|A#3 2C.F ....|C-5 2F.A ....|--- .... ....
....|..|C-4 LF.F ....|C-5 2F.7 ....|--- .... ....
....|..|C-4 AF.F ....|R-- .... ....|--- .... ....
....|..|D-2 2F.A ....|C-5 2F.F ....|--- .... ....
....|..|C-4 AF.F ....|C-5 2F.7 ....|--- .... ....
....|..|C-4 LF.F ....|C-5 2F.F ....|--- .... ....
....|..|C-4 LF.F ....|G-4 2F.F ....|--- .... ....
....|..|A#3 2F.A ....|C-5 2F.7 ....|--- .... ....
....|..|C-5 VF.F ....|C-5 2F.F ....|--- .... ....
....|..|C-3 2F.A ....|C-5 2F.A ....|--- .... ....
 G-4|..|G-3 2C.F ....|G-4 2F.A ....|--- .... ....
....|..|C-4 LF.F ....|C-5 2F.7 ....|--- .... ....
 G-4|..|G-3 2C.F ....|C-5 2F.A ....|--- .... ....
....|..|G-3 2F.A ....|C-5 2F.7 ....|--- .... ....
....|..|C-4 LF.F ....|C-5 2F.F ....|--- .... ....
 A#3|..|A#1 2A.F ....|G-4 2F.F ....|--- .... ....
 G-4|..|G-3 2C.F ....|C-5 2F.7 ....|--- .... ....
....|..|C-4 AF.F ....|C-5 2F.F ....|--- .... ....
....|..|C-4 LF.F ....|C-5 2F.A ....|--- .... ....
 B-3|..|B-1 2A.F ....|G-4 2F.A ....|--- .... ....

[Pattern70]
....|..|C-4 AF.F ....|C-5 2F.F ....|--- .... ....
....|..|C-4 AF.F ....|G-4 2F.F ....|--- .... ....
 C-4|..|C-2 2A.F ....|C-5 2F.7 ....|--- .... ....
....|..|C-4 LF.F ....|C-5 2F.F ....|--- .... ....
....|..|C-4 LF.F ....|C-5 2F.A ....|--- .... ....
....|..|G-3 2F.7 ....|C-5 2F.7 ....|--- .... ....
....|..|C-4 LF.F ....|R-- .... ....|--- .... ....
 C-3|..|C-3 2C.F ....|C-5 2F.F ....|--- .... ....
....|..|B-1 2F.7 ....|C-5 2F.7 ....|--- .... ....
....|..|C-4 LF.F ....|C-5 2F.F ....|--- .... ....
....|..|C-4 LF.F ....|G-4 2F.F ....|--- .... ....
....|..|C-2 2F.7 ....|C-5 2F.7 ....|--- .... ....
....|..|C-5 VF.F ....|C-5 2F.F ....|--- .... ....
 A#3|..|A#3 2C.F ....|C-5 2F.A ....|--- .... ....
....|..|C-5 VF.F ....|G-4 2F.A ....|--- .... ....
....|..|C-4 LF.F ....|C-5 2F.F ....|--- .... ....
....|..|A#3 2F.A ....|C-5 2F.A ....|--- .... ....
....|..|G-3 2F.7 ....|C-5 2F.7 ....|--- .... ....
....|..|C-4 LF.F ....|C-5 2F.F ....|--- .... ....
....|..|C-2 2F.A ....|G-4 2F.F ....|--- .... ....
 C-3|..|C-3 2C.F ....|C-5 2F.7 ....|--- .... ....
....|..|C-4 AF.F ....|C-5 2F.F ....|--- .... ....
 G-4|..|G-3 2C.F ....|C-5 2F.A ....|--- .... ....
....|..|C-4 AF.F ....|C-5 2F.7 ....|--- .... ....
....|..|C-4 LF.F ....|C-5 2F.F ....|--- .... ....
....|..|C-3 2F.A ....|G-4 2F.F ....|--- .... ....
 G-4|..|G-3 2C.F ....|C-5 2F.7 ....|--- .... ....
....|..|C-4 LF.F ....|C-5 2F.F ....|--- .... ....
 A#3|..|A#3 2C.F ....|C-5 2F.A ....|--- .... ....
....|..|C-3 2F.7 ....|C-5 2F.7 ....|--- .... ....
....|..|C-4 AF.F ....|C-5 2F.F ....|--- .... ....
....|..|D-2 2F.A ....|C-5 2F.A ....|--- .... ....
....|..|A#3 2F.A ....|C-5 2F.7 ....|--- .... ....
....|..|C-4 LF.F ....|C-5 2F.F ....|--- .... ....
....|..|C-4 LF.F ....|G-4 2F.F ....|--- .... ....
 C-3|..|C-3 2C.F ....|C-5 2F.7 ....|--- .... ....
....|..|C-5 VF.F ....|C-5 2F.F ....|--- .... ....
 G-4|..|G-3 2C.F ....|C-5 2F.A ....|--- .... ....
....|..|C-5 VF.F ....|C-5 2F.7 ....|--- .... ....
....|..|C-4 LF.F ....|R-- .... ....|--- .... ....
....|..|G-3 2F.A ....|C-5 2F.A ....|--- .... ....
....|..|C-3 2F.7 ....|C-5 2F.7 ....|--- .... ....
....|..|C-4 LF.F ....|C-5 2F.F ....|--- .... ....
 A#3|..|A#3 2C.F ....|G-4 2F.F ....|--- .... ....
 A#3|..|A#3 2C.F ....|C-5 2F.7 ....|--- .... ....
....|..|C-4 LF.F ....|C-5 2F.F ....|--- .... ....
....|..|A#3 2F.A ....|C-5 2F.A ....|--- .... ....
....|..|A#3 2F.A ....|G-4 2F.A ....|--- .... ....
....|..|C-4 AF.F ....|C-5 2F.F ....|--- .... ....
....|..|C-4 LF.F ....|G-4 2F.F ....|--- .... ....
....|..|A#3 2F.7 ....|C-5 2F.7 ....|--- .... ....
....|..|C-4 LF.F ....|C-5 2F.F ....|--- .... ....
....|..|C-4 LF.F ....|C-5 2F.A ....|--- .... ....
 C-3|..|C-3 2C.F ....|C-5 2F.7 ....|--- .... ....
....|..|C-4 LF.F ....|R-- .... ....|--- .... ....
....|..|C-4 LF.F ....|C-5 2F.F ....|--- .... ....
 G-4|..|G-3 2C.F ....|C-5 2F.7 ....|--- .... ....
....|..|C-4 LF.F ....|C-5 2F.F ....|--- .... ....
....|..|C-4 LF.F ....|G-4 2F.F ....|--- .... ....
 A#3|..|A#3 2C.F ....|C-5 2F.7 ....|--- .... ....
....|..|C-5 VF.F ....|C-5 2F.F ....|--- .... ....
 A#3|..|A#3 2C.F ....|C-5 2F.A ....|--- .... ....
....|..|C-5 VF.F ....|G-4 2F.A ....|--- .... ....
....|..|C-4 LF.F ....|C-5 2F.7 ....|--- .... ....
....|..|A#3 2F.A ....|C-5 2F.A ....|--- .... ....
....|..|G-3 2F.7 ....|C-5 2F.7 ....|--- .... ....
....|..|C-4 LF.F ....|C-5 2F.F ....|--- .... ....
....|..|C-2 2F.A ....|G-4 2F.F ....|--- .... ....
 C-3|..|C-3 2C.F ....|C-5 2F.7 ....|--- .... ....
....|..|C-4 AF.F ....|C-5 2F.F ....|--- .... ....
 G-4|..|G-3 2C.F ....|C-5 2F.A ....|--- .... ....
....|..|C-4 AF.F ....|G-4 2F.A ....|--- .... ....
....|..|C-4 LF.F ....|C-5 2F.F ....|--- .... ....
 G-4|..|G-3 2C.F ....|G-4 2F.F ....|--- .... ....
....|..|G-3 2F.A ....|C-5 2F.7 ....|--- .... ....
....|..|C-4 LF.F ....|C-5 2F.F ....|--- .... ....
 A#3|..|A#3 2C.F ....|C-5 2F.A ....|--- .... ....
 A#3|..|A#3 2C.F ....|C-5 2F.7 ....|--- .... ....
....|..|C-4 AF.F ....|C-5 2F.F ....|--- .... ....
....|..|A#3 2F.A ....|C-5 2F.A ....|--- .... ....
....|..|A#3 2F.A ....|C-5 2F.7 ....|--- .... ....
....|..|C-4 LF.F ....|C-5 2F.F ....|--- .... ....
....|..|C-4 LF.F ....|G-4 2F.F ....|--- .... ....
 C-3|..|C-3 2C.F ....|C-5 2F.7 ....|--- .... ....
....|..|C-5 VF.F ....|C-5 2F.F ....|--- .... ....
 G-4|..|G-3 2C.F ....|C-5 2F.A ....|--- .... ....
....|..|C-5 VF.F ....|C-5 2F.7 ....|--- .... ....
....|..|C-4 LF.F ....|C-5 2F.F ....|--- .... ....
....|..|G-3 2F.A ....|C-5 2F.A ....|--- .... ....
....|..|C-3 2F.7 ....|C-5 2F.7 ....|--- .... ....
....|..|C-4 LF.F ....|C-5 2F.F ....|--- .... ....
 G-4|..|G-3 2C.F ....|C-5 2F.A ....|--- .... ....
 A#3|..|A#1 2A.F ....|C-5 2F.7 ....|--- .... ....
....|..|C-4 LF.F ....|C-5 2F.F ....|--- .... ....
 B-3|..|B-1 2A.F ....|C-5 2F.A ....|--- .... ....
 B-3|..|B-1 2A.F ....|C-5 2F.7 ....|--- .... ....

[Pattern71]
....|..|C-4 AF.F ....|G-4 2F.F ....|--- .... ....
....|..|C-4 AF.F ....|C-5 2F.A ....|--- .... ....
....|..|A#1 2F.A ....|C-5 2F.7 ....|--- .... ....
....|..|C-4 LF.F ....|G-4 2F.F ....|--- .... ....
 C-4|..|C-2 2A.F ....|G-4 2F.A ....|--- .... ....
....|..|C-4 LF.F ....|C-5 2F.7 ....|--- .... ....
....|..|C-4 LF.F ....|--- .... ....|--- .... ....
....|..|C-4 LF.F ....|G-4 2F.A ....|--- .... ....
....|..|B-1 2F.7 ....|G-4 2F.7 ....|--- .... ....
....|..|C-4 LF.F ....|G-4 2F.F ....|--- .... ....
....|..|C-4 LF.F ....|R-- .... ....|--- .... ....
....|..|C-2 2F.7 ....|G-4 2F.7 ....|--- .... ....
....|..|C-5 VF.F ....|G-4 2F.F ....|--- .... ....
 A#3|..|A#3 2C.F ....|G-4 2F.A ....|--- .... ....
....|..|C-5 VF.F ....|R-- .... ....|--- .... ....
....|..|C-4 LF.F ....|R-- .... ....|--- .... ....
....|..|A#3 2F.A ....|G-4 2F.A ....|--- .... ....
....|..|G-3 2F.7 ....|G-4 2F.7 ....|--- .... ....
....|..|C-4 LF.F ....|G-4 2F.F ....|--- .... ....
....|..|C-2 2F.A ....|C-4 2F.F ....|--- .... ....
 C-3|..|C-3 2C.F ....|G-4 2F.7 ....|--- .... ....
....|..|C-4 AF.F ....|G-4 2F.F ....|--- .... ....
 G-4|..|G-3 2C.F ....|G-4 2F.A ....|--- .... ....
....|..|C-4 AF.F ....|C-4 2F.A ....|--- .... ....
....|..|C-4 LF.F ....|G-4 2F.F ....|--- .... ....
 G-4|..|G-3 2C.F ....|G-4 2F.A ....|--- .... ....
....|..|G-3 2F.A ....|G-4 2F.7 ....|--- .... ....
....|..|C-4 LF.F ....|G-4 2F.F ....|--- .... ....
 A#3|..|A#3 2C.F ....|G-4 2F.A ....|--- .... ....
....|..|C-4 LF.F ....|G-4 2F.7 ....|--- .... ....
....|..|C-4 AF.F ....|R-- .... ....|--- .... ....
....|..|A#3 2F.A ....|G-4 2F.A ....|--- .... ....
....|..|C-4 AF.F ....|G-4 2F.7 ....|--- .... ....
....|..|C-4 LF.F ....|G-4 2F.F ....|--- .... ....
....|..|C-4 LF.F ....|R-- .... ....|--- .... ....
....|..|A#3 2F.A ....|G-4 2F.7 ....|--- .... ....
....|..|C-5 VF.F ....|G-4 2F.F ....|--- .... ....
 G-4|..|G-3 2C.F ....|G-4 2F.A ....|--- .... ....
....|..|C-5 VF.F ....|R-- .... ....|--- .... ....
....|..|C-4 LF.F ....|R-- .... ....|--- .... ....
....|..|G-3 2F.A ....|G-4 2F.A ....|--- .... ....
....|..|C-3 2F.7 ....|G-4 2F.7 ....|--- .... ....
....|..|C-4 LF.F ....|G-4 2F.F ....|--- .... ....
 A#3|..|A#3 2C.F ....|R-- .... ....|--- .... ....
 A#3|..|A#3 2C.F ....|G-4 2F.7 ....|--- .... ....
....|..|C-4 LF.F ....|G-4 2F.F ....|--- .... ....
....|..|A#3 2F.A ....|G-4 2F.A ....|--- .... ....
....|..|A#3 2F.A ....|R-- .... ....|--- .... ....
....|..|C-4 AF.F ....|G-4 2F.F ....|--- .... ....
....|..|C-4 AF.F ....|C-4 2F.F ....|--- .... ....
....|..|C-4 AF.F ....|G-4 2F.7 ....|--- .... ....
....|..|C-4 LF.F ....|G-4 2F.F ....|--- .... ....
....|..|C-4 LF.F ....|G-4 2F.A ....|--- .... ....
....|..|A#3 2F.7 ....|G-4 2F.7 ....|--- .... ....
....|..|C-4 LF.F ....|R-- .... ....|--- .... ....
....|..|C-4 LF.F ....|G-4 2F.A ....|--- .... ....
 G-4|..|G-3 2C.F ....|G-4 2F.7 ....|--- .... ....
....|..|C-4 LF.F ....|G-4 2F.F ....|--- .... ....
 G-4|..|G-3 2C.F ....|R-- .... ....|--- .... ....
....|..|C-4 LF.F ....|G-4 2F.7 ....|--- .... ....
....|..|C-5 VF.F ....|G-4 2F.F ....|--- .... ....
 A#3|..|A#3 2C.F ....|G-4 2F.A ....|--- .... ....
....|..|C-3 2F.7 ....|R-- .... ....|--- .... ....
....|..|C-4 LF.F ....|--- .... ....|--- .... ....
....|..|A#3 2F.A ....|G-4 2F.A ....|--- .... ....
....|..|G-3 2F.7 ....|G-4 2F.7 ....|--- .... ....
....|..|C-4 LF.F ....|G-4 2F.F ....|--- .... ....
....|..|C-2 2F.A ....|G-4 2F.F ....|--- .... ....
 C-3|..|C-3 2C.F ....|G-4 2F.7 ....|--- .... ....
....|..|C-4 AF.F ....|G-4 2F.F ....|--- .... ....
 G-4|..|G-3 2C.F ....|C-4 2F.F ....|--- .... ....
....|..|C-4 AF.F ....|G-4 2F.A ....|--- .... ....
....|..|C-4 LF.F ....|G-4 2F.F ....|--- .... ....
....|..|C-3 2F.A ....|G-4 2F.F ....|--- .... ....
 G-4|..|G-3 2C.F ....|G-4 2F.7 ....|--- .... ....
....|..|C-4 LF.F ....|G-4 2F.F ....|--- .... ....
 A#3|..|A#3 2C.F ....|G-4 2F.A ....|--- .... ....
....|..|C-4 LF.F ....|G-4 2F.7 ....|--- .... ....
....|..|C-4 AF.F ....|C-4 2F.7 ....|--- .... ....
....|..|D-2 2F.A ....|G-4 2F.A ....|--- .... ....
....|..|C-4 AF.F ....|G-4 2F.7 ....|--- .... ....
....|..|C-4 LF.F ....|G-4 2F.F ....|--- .... ....
....|..|C-4 LF.F ....|R-- .... ....|--- .... ....
....|..|A#3 2F.A ....|G-4 2F.7 ....|--- .... ....
....|..|C-5 VF.F ....|G-4 2F.F ....|--- .... ....
....|..|C-3 2F.A ....|G-4 2F.A ....|--- .... ....
 G-4|..|G-3 2C.F ....|R-- .... ....|--- .... ....
....|..|C-4 LF.F ....|R-- .... ....|--- .... ....
 G-4|..|G-3 2C.F ....|G-4 2F.A ....|--- .... ....
....|..|G-3 2F.A ....|G-4 2F.7 ....|--- .... ....
....|..|C-4 LF.F ....|G-4 2F.F ....|--- .... ....
 A#3|..|A#1 2A.F ....|G-4 2F.F ....|--- .... ....
 G-4|..|G-3 2C.F ....|G-4 2F.7 ....|--- .... ....
....|..|C-4 AF.F ....|G-4 2F.F ....|--- .... ....
....|..|C-4 LF.F ....|G-4 2F.A ....|--- .... ....
 B-3|..|B-1 2A.F ....|G-4 2F.A ....|--- .... ....

[Pattern75]
....|..|R-- .... ....|R-- .... ....|--- .... ....
....|..|B-1 2F.A ....|C-5 2F.A ....|--- .... ....
....|..|G-3 2F.7 ....|C-5 2F.7 ....|--- .... ....
....|..|A#1 2F.7 ....|R-- .... ....|--- .... ....
....|..|C-2 2F.A ....|--- .... ....|--- .... ....
....|..|B-1 2F.7 ....|C-5 2F.7 ....|--- .... ....
....|..|B-1 2F.7 ....|--- .... ....|--- .... ....
....|..|C-2 2F.7 ....|R-- .... ....|--- .... ....
....|..|R-- .... ....|--- .... ....|--- .... ....
