[Module]
VortexTrackerII=0
Version=3.5
Title=1ps,2m,3m,
Author=oisee ^ 4d 29.05.2010
NoteTable=4
ChipFreq=1750000
Speed=4
PlayOrder=L0,1,2,3,4,5,6,7,8,9,10,11,12,13,14,15,16,17,18,19,20,21,22,23,24,25,26,27,28,29,30,31,32,33,34,35,36,37,38,39,40,41


[Ornament1]
L0,0,4,4,7,7

[Ornament2]
L0,0,3,3

[Ornament3]
L0,0,5,5

[Ornament4]
L0,0,3,3,8,8

[Ornament5]
L0,0,5,5,8,8

[Ornament6]
L0,0,4,4

[Ornament7]
L0,0,4,4,9,9

[Ornament8]
L0,0,3,3,7,7

[Ornament9]
L0,0,5,5,10,10

[Ornament10]
L0,0,5,5,9,9

[Ornament11]
L0,0,5,5,7,7

[Ornament12]
L0,0,2,2,7,7

[Ornament13]
L0,0,3,3,5,5,7,7


[Sample1]
TnE +000_ +00_ F_
TnE +000_ +00_ F_
TnE +000_ +00_ F_
TnE +000_ +00_ D_
TnE +000_ +00_ B_
TnE +000_ +00_ B_ L

[Sample2]
TnE +000_ +00_ F_ L

[Sample3]
TnE +001_ +00_ F_
TnE +002_ +00_ F_
TnE +001_ +00_ E_
TnE +002_ +00_ E_
TnE +000_ +00_ E_ L
TnE -001_ +00_ E_
TnE -002_ +00_ E_
TnE -001_ +00_ E_
TnE +000_ +00_ E_
TnE +001_ +00_ E_
TnE +002_ +00_ E_
TnE +001_ +00_ E_

[Sample4]
TnE +002_ +00_ D_
TnE +002_ +00_ D_
TnE +002_ +00_ C_
TnE +002_ +00_ B_
TnE +002_ +00_ A_ L
TnE +002_ +00_ A_
TnE +002_ +00_ A_
TnE +002_ +00_ A_
TnE +002_ +00_ A_
TnE +002_ +00_ A_
TnE +002_ +00_ A_
TnE +002_ +00_ A_

[Sample5]
TnE +000_ +00_ F_
TnE +000_ +00_ F_
tne +000_ +00_ 0_ L

[Sample6]
TnE -001_ +00_ F_ L

[Sample7]
TnE +006_ +00_ F_ L

[Sample8]
tNe +000_ +00_ F_
tNe +000_ +00_ B_
tNe +000_ +00_ 7_
tNe +000_ +00_ 6- L

[Sample9]
TnE +080_ +00_ F_
TnE +100_ +00_ E_
TnE +180_ +00_ E_
TnE +200_ +00_ E_
TnE +240_ +00_ D_
TnE +280_ +00_ D_
TnE +2C0_ +00_ D_
TnE +300_ +00_ C_
TnE +300_ +00_ C_
TnE +340_ +00_ C_
TnE +340_ +00_ C_
TnE +380_ +00_ B_
TnE +380_ +00_ B_
TnE +400_ +00_ B_
TnE +400_ +00_ B_
TnE +480_ +00_ A_
TnE +500_ +00_ 9_
TnE +580_ +00_ 7_
TnE +600_ +00_ 4_
TnE +680_ +00_ 1_
TnE +000_ +00_ 0_ L

[Sample10]
Tne +1C0_ +00_ F_
Tne +280_ +00_ E_
Tne +380_ +00_ C_
Tne +440_ +00_ A_
Tne +480_ +00_ 8_
TnE +000_ +00_ 0_ L

[Sample11]
TNe +200_ -0A_ F_
tNe +000_ +0F_ A_
TNe +200_ -07_ E_
tNe +000_ +0E_ B- L

[Sample12]
TNE +0A0_ +05_ F_
TNE +140_ +02_ D_
TNE +140_ +02_ B_
TNE +100_ +00_ A_ L
TNE +140_ +00_ A_
TNE +200_ +00_ A-

[Sample13]
Tne +200_ +00_ F_
Tne +2C0_ +00_ F_
Tne +380_ +00_ E_
Tne +500_ +00_ C_
Tne +520_ +00_ 9_
tne +000_ +00_ 0_ L

[Sample14]
TNE -100_ +00_ F_
TNE -100_ +00_ D_
TNE -100_ +00_ A_
TNE -100_ +00_ 5_
tne +000_ +00_ 0_ L

[Sample15]
TNE -100_ +00_ 5_
TNE -100_ +00_ 8_
TNE -100_ +00_ B_
TNE -100_ +00_ F_
TNe -100_ +00_ 9- L

[Sample16]
TnE +000_ +00_ C_
TnE +000_ +00_ E_
TnE +000_ +00_ F_
TnE +000_ +00_ F_
TnE +000_ +00_ E_
TnE +000_ +00_ D_
TnE +000_ +00_ C_
TnE +000_ +00_ C_ L
TnE +001_ +00_ C_
TnE +002_ +00_ C_
TnE +003_ +00_ C_
TnE +001_ +00_ C_
TnE +000_ +00_ C_
TnE -001_ +00_ C_
TnE -002_ +00_ C_
TnE -003_ +00_ C_
TnE -001_ +00_ C_
TnE +000_ +00_ C_
TnE +000_ +00_ C_

[Sample17]
Tne +1C0_ +00_ F_
Tne +280_ +00_ D_
Tne +380_ +00_ 7_
TNE +000_ +00_ 0_ L

[Sample18]
TnE -00C_ +00_ 0_ L

[Sample19]
TNe +000_ +00_ F_
TNe +000_ +00_ C_
TNe +000_ +00_ 6_
TNe +000_ +01_ A- L

[Sample20]
TNE +140_ +00_ F_
tNE +000_ +00_ B- L

[Sample21]
tNE +000_ +00_ D_
tNE +000_ +00_ 8_
tNE +000_ +00_ 1_
TNE +000_ +00_ 0_ L

[Sample22]
TnE +000_ +00_ D_ L
TnE +000_ +00_ D_
tne +000_ +00_ 9_
tne +000_ +00_ 9_
TnE +000_ +00_ D_
TnE +000_ +00_ D_
tne +000_ +00_ 9_
tne +000_ +00_ 9_
TnE +000_ +00_ D_
TnE +000_ +00_ D_
TnE +000_ +00_ D_
TnE +000_ +00_ D_
TnE +000_ +00_ D_
TnE +000_ +00_ D_
tne +000_ +00_ 9_
tne +000_ +00_ 9_

[Sample23]
TnE +000_ +00_ F_ L
TnE +010_ +01_ F_
TnE +010_ +01_ F_
TnE +010_ +01_ F_
TnE +010_ +01_ F_
TnE +000_ +00_ F_
TnE +000_ +00_ F_
TnE -010_ -01_ F_
TnE -010_ -01_ F_
TnE -010_ -01_ F_
TnE -010_ -01_ F_
TnE +000_ +00_ F_

[Sample24]
TNe +000_ -01_ C_
TNe +000_ -01_ D_
TNe +000_ -01_ E_
TNe +000_ -01_ F_
TNe +000_ -01_ F_
TNe +000_ -01_ F_
TNe +000_ -01_ F_
TNe +000_ -01_ F_
TNe +000_ -01_ E_
TNe +000_ -01_ E_
TNe +000_ -01_ E_
TNe +000_ -01_ F_
TNe +000_ -01_ F_ L

[Sample25]
TNE +000_ +00_ F_
TNE +000_ +00_ F_ L
TNE +000_ +00_ F_
TNE +000_ +00_ F_
TNE +000_ +00_ F-

[Sample26]
tne +000_ +00_ 0_ L

[Sample27]
TnE +100_ +05_ F_
TnE +200_ +02_ A_
TnE +300_ +02_ 7_
TNE +400_ +00_ 3- L

[Sample28]
tne +000_ +00_ 0_ L

[Sample29]
tnE +000_ +00_ 0_ L

[Sample30]
TNE +000_ +00_ C+ L

[Sample31]
TNe +1C0_ +00_ F_
Tne +280_ +00_ E_
Tne +380_ +00_ C_
Tne +440_ +00_ A_
Tne +480_ +00_ 8_
TnE +000_ +00_ 0_ L

[Pattern0]
....|..|--- .... ....|--- .... ....|--- .... ....
....|..|--- .... ....|--- .... ....|--- .... ....
....|..|--- .... ....|--- .... ....|--- .... ....
....|..|--- .... ....|--- .... ....|--- .... ....
....|..|--- .... ....|--- .... ....|--- .... ....
....|..|--- .... ....|--- .... ....|--- .... ....
....|..|--- .... ....|--- .... ....|--- .... ....
....|..|--- .... ....|--- .... ....|--- .... ....
....|..|--- .... ....|--- .... ....|--- .... ....
....|..|--- .... ....|--- .... ....|--- .... ....
....|..|--- .... ....|--- .... ....|--- .... ....
....|..|--- .... ....|--- .... ....|--- .... ....
....|..|--- .... ....|--- .... ....|--- .... ....
....|..|--- .... ....|--- .... ....|--- .... ....
....|..|--- .... ....|--- .... ....|--- .... ....
....|..|--- .... ....|--- .... ....|--- .... ....
....|..|--- .... ....|--- .... ....|--- .... ....
....|..|--- .... ....|--- .... ....|--- .... ....
....|..|--- .... ....|--- .... ....|--- .... ....
....|..|--- .... ....|--- .... ....|--- .... ....
....|..|--- .... ....|--- .... ....|--- .... ....
....|..|--- .... ....|--- .... ....|--- .... ....
....|..|--- .... ....|--- .... ....|--- .... ....
....|..|--- .... ....|--- .... ....|--- .... ....
....|..|--- .... ....|--- .... ....|--- .... ....
....|..|--- .... ....|--- .... ....|--- .... ....
....|..|--- .... ....|--- .... ....|--- .... ....
....|..|--- .... ....|--- .... ....|--- .... ....
....|..|--- .... ....|--- .... ....|--- .... ....
....|..|--- .... ....|--- .... ....|--- .... ....
....|..|--- .... ....|--- .... ....|--- .... ....
....|..|--- .... ....|--- .... ....|--- .... ....
....|..|--- .... ....|--- .... ....|--- .... ....
....|..|--- .... ....|--- .... ....|--- .... ....
....|..|--- .... ....|--- .... ....|--- .... ....
....|..|--- .... ....|--- .... ....|--- .... ....
....|..|--- .... ....|--- .... ....|--- .... ....
....|..|--- .... ....|--- .... ....|--- .... ....
....|..|--- .... ....|--- .... ....|--- .... ....
....|..|--- .... ....|--- .... ....|--- .... ....
....|..|--- .... ....|--- .... ....|--- .... ....
....|..|--- .... ....|--- .... ....|--- .... ....
....|..|--- .... ....|--- .... ....|--- .... ....
....|..|--- .... ....|--- .... ....|--- .... ....
....|..|--- .... ....|--- .... ....|--- .... ....
....|..|--- .... ....|--- .... ....|--- .... ....
....|..|--- .... ....|--- .... ....|--- .... ....
....|..|--- .... ....|--- .... ....|--- .... ....
....|..|--- .... ....|--- .... ....|--- .... ....
....|..|--- .... ....|--- .... ....|--- .... ....
....|..|--- .... ....|--- .... ....|--- .... ....
....|..|--- .... ....|--- .... ....|--- .... ....
....|..|--- .... ....|--- .... ....|--- .... ....
....|..|--- .... ....|--- .... ....|--- .... ....
....|..|--- .... ....|--- .... ....|--- .... ....
....|..|--- .... ....|--- .... ....|--- .... ....
....|..|--- .... ....|--- .... ....|--- .... ....
....|..|--- .... ....|--- .... ....|--- .... ....
....|..|--- .... ....|--- .... ....|--- .... ....
....|..|--- .... ....|--- .... ....|--- .... ....
....|..|--- .... ....|--- .... ....|--- .... ....
....|..|--- .... ....|--- .... ....|--- .... ....
....|..|--- .... ....|--- .... ....|--- .... ....
....|..|--- .... ....|--- .... ....|--- .... ....

[Pattern1]
....|..|--- .... ....|--- .... ....|--- .... ....
....|..|--- .... ....|--- .... ....|--- .... ....
....|..|--- .... ....|--- .... ....|--- .... ....
....|..|--- .... ....|--- .... ....|--- .... ....
....|..|--- .... ....|--- .... ....|--- .... ....
....|..|--- .... ....|--- .... ....|--- .... ....
....|..|--- .... ....|--- .... ....|--- .... ....
....|..|--- .... ....|--- .... ....|--- .... ....
....|..|--- .... ....|--- .... ....|--- .... ....
....|..|--- .... ....|--- .... ....|--- .... ....
....|..|--- .... ....|--- .... ....|--- .... ....
....|..|--- .... ....|--- .... ....|--- .... ....
....|..|--- .... ....|--- .... ....|--- .... ....
....|..|--- .... ....|--- .... ....|--- .... ....
....|..|--- .... ....|--- .... ....|--- .... ....
....|..|--- .... ....|--- .... ....|--- .... ....
....|..|--- .... ....|--- .... ....|--- .... ....
....|..|--- .... ....|--- .... ....|--- .... ....
....|..|--- .... ....|--- .... ....|--- .... ....
....|..|--- .... ....|--- .... ....|--- .... ....
....|..|--- .... ....|--- .... ....|--- .... ....
....|..|--- .... ....|--- .... ....|--- .... ....
....|..|--- .... ....|--- .... ....|--- .... ....
....|..|--- .... ....|--- .... ....|--- .... ....
....|..|--- .... ....|--- .... ....|--- .... ....
....|..|--- .... ....|--- .... ....|--- .... ....
....|..|--- .... ....|--- .... ....|D#4 2F.F ....
....|..|--- .... ....|--- .... ....|--- .... ....
....|..|--- .... ....|--- .... ....|F#4 2F.F ....
....|..|--- .... ....|--- .... ....|--- .... ....
....|..|F#5 2F.F ....|--- .... ....|G#4 2F.F ....
....|..|A#5 2F.F ....|--- .... ....|G#4 2F.F ....
....|..|F#4 2F1F ....|--- .... ....|F#4 2F.F ....
....|..|--- .... ....|--- .... ....|--- .... ....
....|..|--- .... ....|--- .... ....|F#4 2F.F ....
....|..|--- .... ....|--- .... ....|--- .... ....
....|..|F#5 2F.A ....|--- .... ....|C#5 2F.F ....
....|..|A#5 2F.A ....|--- .... ....|C#5 2F.F ....
....|..|F#4 2F1A ....|--- .... ....|C#5 2F.F ....
....|..|--- .... ....|--- .... ....|C#5 2F.F ....
....|..|--- .... ....|--- .... ....|F#4 2F.F ....
....|..|--- .... ....|--- .... ....|--- .... ....
....|..|F#5 2F.7 ....|--- .... ....|F#4 2F.F ....
....|..|A#5 2F.7 ....|--- .... ....|G#4 2F.7 ....
....|..|F#4 2F17 ....|--- .... ....|C#5 2F.F ....
....|..|--- .... ....|--- .... ....|C#5 2F.F ....
....|..|--- .... ....|--- .... ....|C#5 2F.F ....
....|..|--- .... ....|--- .... ....|C#5 2F.F ....
....|..|--- .... ....|--- .... ....|F#4 2F.F ....
....|..|--- .... ....|--- .... ....|C#5 2F.7 ....
....|..|--- .... ....|--- .... ....|F#4 2F.F ....
....|..|--- .... ....|--- .... ....|C#5 2F.7 ....
....|..|--- .... ....|--- .... ....|F#4 2F.F ....
....|..|--- .... ....|--- .... ....|D#4 2F.F ....
....|..|--- .... ....|--- .... ....|F#4 2F.F ....
....|..|--- .... ....|--- .... ....|F#4 2F.F ....
....|..|--- .... ....|--- .... ....|G#4 2F.F ....
....|..|--- .... ....|--- .... ....|G#4 2F.F ....
....|..|--- .... ....|--- .... ....|A#4 2F.F ....
....|..|--- .... ....|--- .... ....|C#5 2F.7 ....
....|..|--- .... ....|--- .... ....|C#5 2F.F ....
....|..|--- .... ....|--- .... ....|F#4 2F.A ....
....|..|--- .... ....|--- .... ....|C#5 2F.F ....
....|..|--- .... ....|--- .... ....|A#4 2F.F ....

[Pattern2]
....|..|--- .... ....|--- .... ....|F#4 2F.F ....
....|..|--- .... ....|--- .... ....|D#4 2F.7 ....
....|..|--- .... ....|--- .... ....|F#4 2F.F ....
....|..|--- .... ....|--- .... ....|F#4 2F.7 ....
....|..|--- .... ....|--- .... ....|G#4 2F.F ....
....|..|--- .... ....|--- .... ....|G#4 2F.F ....
....|..|--- .... ....|--- .... ....|B-4 2F.F ....
....|..|--- .... ....|--- .... ....|B-4 2F.F ....
....|..|--- .... ....|--- .... ....|C#5 2F.F ....
....|..|--- .... ....|--- .... ....|--- .... ....
....|..|--- .... ....|--- .... ....|C#5 2F.F ....
....|..|--- .... ....|--- .... ....|A#4 2F.7 ....
....|..|--- .... ....|--- .... ....|C#5 2F.F ....
....|..|--- .... ....|--- .... ....|G#4 2F.F ....
....|..|--- .... ....|--- .... ....|B-4 2F.F ....
....|..|--- .... ....|--- .... ....|B-4 2F.F ....
....|..|--- .... ....|--- .... ....|C#5 2F.F ....
....|..|--- .... ....|--- .... ....|G#4 2F.7 ....
....|..|--- .... ....|--- .... ....|C#5 2F.F ....
....|..|--- .... ....|--- .... ....|B-4 2F.7 ....
....|..|--- .... ....|--- .... ....|C#5 2F.F ....
....|..|--- .... ....|--- .... ....|G#4 2F.F ....
....|..|--- .... ....|--- .... ....|G#4 2F.F ....
....|..|--- .... ....|--- .... ....|D#4 2F.F ....
....|..|--- .... ....|--- .... ....|C#5 2F.F ....
....|..|--- .... ....|--- .... ....|C#5 2F.F ....
....|..|--- .... ....|--- .... ....|C#5 2F.F ....
....|..|--- .... ....|--- .... ....|B-4 2F.7 ....
....|..|--- .... ....|--- .... ....|B-4 2F.F ....
....|..|--- .... ....|--- .... ....|D#4 2F.A ....
....|..|R-- .... ....|--- .... ....|G#4 2F.F ....
....|..|--- .... ....|--- .... ....|D#4 2F.F ....
....|..|A#4 2F2F ....|F#4 2F.F ....|C#5 2F.F ....
....|..|F#4 2F1F ....|--- .... ....|G#4 2F.7 ....
....|..|--- .... ....|--- .... ....|G#4 2F.7 ....
....|..|--- .... ....|--- .... ....|D#4 2F.7 ....
....|..|R-- .... ....|--- .... ....|C#5 2F.F ....
....|..|--- .... ....|--- .... ....|C#5 2F.7 ....
....|..|A#4 2F2A ....|F#4 2F.A ....|C#5 2F.F ....
....|..|F#4 2F1A ....|--- .... ....|--- .... ....
....|..|--- .... ....|--- .... ....|C#5 2F.F ....
....|..|--- .... ....|R-- .... ....|--- .... ....
....|..|R-- .... ....|--- .... ....|C#5 2F.F ....
....|..|--- .... ....|--- .... ....|D#4 2F.7 ....
....|..|A#4 2F27 ....|F#5 2F.F ....|C#5 2F.F ....
....|..|F#4 2F17 ....|--- .... ....|--- .... ....
....|..|--- .... ....|R-- .... ....|C#5 2F.F ....
....|..|--- .... ....|R-- .... ....|--- .... ....
....|..|--- .... ....|F-5 2F.F ....|C#5 2F.F ....
....|..|--- .... ....|--- .... ....|--- .... ....
....|..|--- .... ....|F#5 2F.A ....|C#5 2F.F ....
....|..|--- .... ....|--- .... ....|--- .... ....
....|..|--- .... ....|R-- .... ....|C#5 2F.F ....
....|..|--- .... ....|R-- .... ....|--- .... ....
....|..|--- .... ....|C#5 2F.F ....|C#5 2F.F ....
....|..|--- .... ....|--- .... ....|--- .... ....
....|..|--- .... ....|F#5 2F.7 ....|C#5 2F.F ....
....|..|--- .... ....|--- .... ....|--- .... ....
....|..|--- .... ....|R-- .... ....|C#5 2F.F ....
....|..|--- .... ....|R-- .... ....|--- .... ....
....|..|--- .... ....|A#4 2F.F ....|C#5 2F.F ....
....|..|R-- .... ....|R-- .... ....|--- .... ....
....|..|--- .... ....|--- .... ....|C#5 2F.F ....
....|..|--- .... ....|--- .... ....|--- .... ....

[Pattern3]
....|..|D#4 2F3F ....|D#5 2F.F ....|D#5 2F.F ....
....|..|C-4 2F4F ....|R-- .... ....|--- .... ....
....|..|--- .... ....|C#5 2F.7 ....|C#5 2F.7 ....
....|..|R-- .... ....|R-- .... ....|--- .... ....
....|..|--- .... ....|--- .... ....|D#5 2F.F ....
....|..|--- .... ....|--- .... ....|--- .... ....
....|..|D#4 2F3A ....|D#5 2F.A ....|D#5 2F.F ....
....|..|C-4 2F4A ....|--- .... ....|--- .... ....
....|..|--- .... ....|A#4 2F.7 ....|D#5 2F.F ....
....|..|R-- .... ....|R-- .... ....|--- .... ....
....|..|--- .... ....|--- .... ....|D#5 2F.F ....
....|..|--- .... ....|--- .... ....|--- .... ....
....|..|D#4 2F37 ....|D#5 2F.7 ....|D#5 2F.F ....
....|..|C-4 2F47 ....|--- .... ....|--- .... ....
....|..|--- .... ....|--- .... ....|D#5 2F.F ....
....|..|--- .... ....|R-- .... ....|--- .... ....
....|..|--- .... ....|G#4 2F.F ....|D#5 2F.F ....
....|..|--- .... ....|--- .... ....|--- .... ....
....|..|--- .... ....|--- .... ....|D#5 2F.F ....
....|..|--- .... ....|--- .... ....|--- .... ....
....|..|--- .... ....|--- .... ....|D#5 2F.F ....
....|..|--- .... ....|R-- .... ....|--- .... ....
....|..|--- .... ....|G#4 2F.A ....|D#5 2F.F ....
....|..|--- .... ....|--- .... ....|--- .... ....
....|..|--- .... ....|--- .... ....|D#5 2F.F ....
....|..|--- .... ....|--- .... ....|--- .... ....
....|..|--- .... ....|--- .... ....|D#5 2F.F ....
....|..|--- .... ....|F#4 2F.F ....|--- .... ....
....|..|--- .... ....|F-4 2F.F ....|D#5 2F.F ....
....|..|R-- .... ....|B-3 2F.F ....|--- .... ....
....|..|--- .... ....|R-- .... ....|D#5 2F.F ....
....|..|--- .... ....|--- .... ....|--- .... ....
....|..|F-4 2F2F ....|G#4 2F.F ....|C-5 2F.F ....
....|..|C-4 2F5F ....|F#4 2F.A ....|--- .... ....
....|..|--- .... ....|F-4 2F.A ....|D#5 2F.7 ....
....|..|R-- .... ....|B-3 2F.A ....|--- .... ....
....|..|--- .... ....|R-- .... ....|C-5 2F.F ....
....|..|--- .... ....|--- .... ....|--- .... ....
....|..|F-4 2F2A ....|G#4 2F.A ....|C-5 2F.F ....
....|..|C-4 2F5A ....|F#4 2F.7 ....|--- .... ....
....|..|--- .... ....|F-4 2F.7 ....|C-5 2F.F ....
....|..|R-- .... ....|B-3 2F.7 ....|--- .... ....
....|..|--- .... ....|R-- .... ....|C-5 2F.F ....
....|..|--- .... ....|--- .... ....|--- .... ....
....|..|F-4 2F27 ....|A#4 2F.F ....|C-5 2F.F ....
....|..|C-4 2F57 ....|--- .... ....|--- .... ....
....|..|C-4 2F3F ....|R-- .... ....|C-5 2F.F ....
....|..|R-- .... ....|--- .... ....|--- .... ....
....|..|C#4 2F6F ....|C#5 2F.F ....|A#4 2F.F ....
....|..|C#4 2F7F ....|--- .... ....|--- .... ....
....|..|--- .... ....|A#4 2F.A ....|A#4 2F.F ....
....|..|--- .... ....|--- .... ....|--- .... ....
....|..|C-4 2F3A ....|G#4 2F.F ....|A#4 2F.F ....
....|..|R-- .... ....|R-- .... ....|--- .... ....
....|..|C#4 2F6A ....|C#5 2F.A ....|A#4 2F.F ....
....|..|C#4 2F7A ....|--- .... ....|--- .... ....
....|..|--- .... ....|F-4 2F.F ....|A#4 2F.F ....
....|..|--- .... ....|--- .... ....|--- .... ....
....|..|C-4 2F37 ....|G#4 2F.A ....|A#4 2F.F ....
....|..|R-- .... ....|R-- .... ....|--- .... ....
....|..|C#4 2F67 ....|G#4 2F.F ....|A#4 2F.F ....
....|..|C#4 2F77 ....|--- .... ....|--- .... ....
....|..|F-4 2F3F ....|F-4 2F.A ....|A#4 2F.F ....
....|..|R-- .... ....|--- .... ....|--- .... ....

[Pattern4]
....|..|F#4 2F6F ....|G#4 2F.7 ....|A#4 2F.F ....
....|..|D#4 2F8F ....|R-- .... ....|--- .... ....
....|..|--- .... ....|F#4 2F.F ....|A#4 2F.7 ....
....|..|--- .... ....|--- .... ....|--- .... ....
....|..|F-4 2F3A ....|F-4 2F.7 ....|A#4 2F.F ....
....|..|R-- .... ....|--- .... ....|--- .... ....
....|..|F#4 2F6A ....|--- .... ....|A#4 2F.F ....
....|..|D#4 2F8A ....|R-- .... ....|--- .... ....
....|..|--- .... ....|G#4 2F.7 ....|A#4 2F.F ....
....|..|--- .... ....|--- .... ....|--- .... ....
....|..|F-4 2F37 ....|--- .... ....|A#4 2F.F ....
....|..|R-- .... ....|--- .... ....|--- .... ....
....|..|F#4 2F67 ....|--- .... ....|A#4 2F.F ....
....|..|D#4 2F87 ....|R-- .... ....|--- .... ....
....|..|--- .... ....|F#4 2F.7 ....|A#4 2F.F ....
....|..|--- .... ....|--- .... ....|--- .... ....
....|..|--- .... ....|--- .... ....|A#4 2F.F ....
....|..|--- .... ....|--- .... ....|--- .... ....
....|..|--- .... ....|--- .... ....|A#4 2F.F ....
....|..|--- .... ....|--- .... ....|--- .... ....
....|..|--- .... ....|--- .... ....|A#4 2F.F ....
....|..|--- .... ....|--- .... ....|--- .... ....
....|..|--- .... ....|--- .... ....|A#4 2F.F ....
....|..|--- .... ....|--- .... ....|--- .... ....
....|..|--- .... ....|--- .... ....|A#4 2F.F ....
....|..|--- .... ....|--- .... ....|--- .... ....
....|..|--- .... ....|--- .... ....|A#4 2F.F ....
....|..|--- .... ....|--- .... ....|--- .... ....
....|..|--- .... ....|--- .... ....|A#4 2F.F ....
....|..|R-- .... ....|R-- .... ....|--- .... ....
....|..|--- .... ....|--- .... ....|A#4 2F.F ....
....|..|--- .... ....|--- .... ....|--- .... ....
....|..|D#4 2F2F ....|F#4 2F.F ....|B-4 2F.F ....
....|..|B-3 2F1F ....|--- .... ....|--- .... ....
....|..|--- .... ....|--- .... ....|A#4 2F.7 ....
....|..|R-- .... ....|R-- .... ....|--- .... ....
....|..|--- .... ....|--- .... ....|B-4 2F.F ....
....|..|--- .... ....|--- .... ....|--- .... ....
....|..|D#4 2F2A ....|F#4 2F.A ....|B-4 2F.F ....
....|..|B-3 2F1A ....|--- .... ....|--- .... ....
....|..|--- .... ....|--- .... ....|B-4 2F.F ....
....|..|R-- .... ....|R-- .... ....|--- .... ....
....|..|--- .... ....|R-- .... ....|B-4 2F.F ....
....|..|--- .... ....|--- .... ....|--- .... ....
....|..|D#4 2F27 ....|F#4 2F.F ....|B-4 2F.F ....
....|..|B-3 2F17 ....|R-- .... ....|--- .... ....
....|..|--- .... ....|--- .... ....|B-4 2F.F ....
....|..|--- .... ....|--- .... ....|--- .... ....
....|..|--- .... ....|D#5 2F.F ....|B-4 2F.F ....
....|..|--- .... ....|--- .... ....|--- .... ....
....|..|--- .... ....|F#4 2F.A ....|B-4 2F.F ....
....|..|--- .... ....|R-- .... ....|--- .... ....
....|..|--- .... ....|C#5 2F.F ....|B-4 2F.F ....
....|..|--- .... ....|--- .... ....|--- .... ....
....|..|--- .... ....|D#5 2F.A ....|B-4 2F.F ....
....|..|--- .... ....|R-- .... ....|--- .... ....
....|..|--- .... ....|A#4 2F.F ....|B-4 2F.F ....
....|..|--- .... ....|R-- .... ....|--- .... ....
....|..|--- .... ....|G#4 2F.F ....|B-4 2F.F ....
....|..|--- .... ....|--- .... ....|--- .... ....
....|..|--- .... ....|D#5 2F.7 ....|B-4 2F.F ....
....|..|R-- .... ....|R-- .... ....|--- .... ....
....|..|--- .... ....|F#4 2F.F ....|B-4 2F.F ....
....|..|--- .... ....|R-- .... ....|--- .... ....

[Pattern5]
....|..|D#4 2F3F ....|G#4 2F.F ....|B-4 2F.F ....
....|..|B-3 2F7F ....|--- .... ....|--- .... ....
....|..|--- .... ....|--- .... ....|B-4 2F.7 ....
....|..|R-- .... ....|R-- .... ....|--- .... ....
....|..|--- .... ....|A#4 2F.7 ....|B-4 2F.F ....
....|..|--- .... ....|R-- .... ....|--- .... ....
....|..|D#4 2F3A ....|G#4 2F.7 ....|B-4 2F.F ....
....|..|B-3 2F7A ....|--- .... ....|--- .... ....
....|..|--- .... ....|--- .... ....|B-4 2F.F ....
....|..|R-- .... ....|R-- .... ....|--- .... ....
....|..|--- .... ....|F#4 2F.7 ....|B-4 2F.F ....
....|..|--- .... ....|R-- .... ....|--- .... ....
....|..|D#4 2F37 ....|G#4 2F.7 ....|B-4 2F.F ....
....|..|B-3 2F77 ....|--- .... ....|--- .... ....
....|..|--- .... ....|--- .... ....|B-4 2F.F ....
....|..|--- .... ....|--- .... ....|--- .... ....
....|..|--- .... ....|--- .... ....|B-4 2F.F ....
....|..|--- .... ....|--- .... ....|--- .... ....
....|..|--- .... ....|R-- .... ....|B-4 2F.F ....
....|..|--- .... ....|--- .... ....|--- .... ....
....|..|--- .... ....|--- .... ....|B-4 2F.F ....
....|..|--- .... ....|--- .... ....|--- .... ....
....|..|--- .... ....|--- .... ....|B-4 2F.F ....
....|..|--- .... ....|--- .... ....|--- .... ....
....|..|--- .... ....|G#4 2F.F ....|B-4 2F.F ....
....|..|--- .... ....|R-- .... ....|--- .... ....
....|..|--- .... ....|A#4 2F.F ....|B-4 2F.F ....
....|..|--- .... ....|--- .... ....|--- .... ....
....|..|--- .... ....|--- .... ....|B-4 2F.F ....
....|..|R-- .... ....|--- .... ....|--- .... ....
....|..|--- .... ....|G#4 2F.A ....|B-4 2F.F ....
....|..|--- .... ....|R-- .... ....|--- .... ....
....|..|F-4 2F2F ....|C#5 2F.F ....|D#5 2F.F ....
....|..|C#4 2F1F ....|--- .... ....|--- .... ....
....|..|--- .... ....|--- .... ....|B-4 2F.7 ....
....|..|R-- .... ....|--- .... ....|--- .... ....
....|..|--- .... ....|G#4 2F.7 ....|D#5 2F.F ....
....|..|--- .... ....|R-- .... ....|--- .... ....
....|..|F-4 2F2A ....|A#4 2F.7 ....|D#5 2F.F ....
....|..|C#4 2F1A ....|--- .... ....|--- .... ....
....|..|--- .... ....|--- .... ....|D#5 2F.F ....
....|..|R-- .... ....|C-5 2F.F ....|--- .... ....
....|..|--- .... ....|A#4 2F.F ....|D#5 2F.F ....
....|..|--- .... ....|F#4 2F.F ....|--- .... ....
....|..|F-4 2F27 ....|D#4 2F.F ....|D#5 2F.F ....
....|..|C#4 2F17 ....|R-- .... ....|--- .... ....
....|..|--- .... ....|--- .... ....|D#5 2F.F ....
....|..|--- .... ....|C-5 2F.A ....|--- .... ....
....|..|--- .... ....|A#4 2F.A ....|D#5 2F.F ....
....|..|--- .... ....|F#4 2F.A ....|--- .... ....
....|..|--- .... ....|D#4 2F.A ....|D#5 2F.F ....
....|..|--- .... ....|R-- .... ....|--- .... ....
....|..|--- .... ....|D#5 2F.F ....|D#5 2F.F ....
....|..|--- .... ....|C-5 2F.7 ....|--- .... ....
....|..|--- .... ....|A#4 2F.7 ....|D#5 2F.F ....
....|..|--- .... ....|F#4 2F.7 ....|--- .... ....
....|..|--- .... ....|F#5 2F.F ....|D#5 2F.F ....
....|..|--- .... ....|R-- .... ....|--- .... ....
....|..|--- .... ....|D#5 2F.A ....|D#5 2F.F ....
....|..|--- .... ....|R-- .... ....|--- .... ....
....|..|--- .... ....|D#5 2F.F ....|D#5 2F.F ....
....|..|R-- .... ....|--- .... ....|--- .... ....
....|..|--- .... ....|F#5 2F.A ....|D#5 2F.F ....
....|..|--- .... ....|--- .... ....|--- .... ....

[Pattern6]
....|..|G#4 2F.F ....|D#5 2F.7 ....|C#5 2F.F ....
....|..|--- .... ....|R-- .... ....|--- .... ....
....|..|--- .... ....|C#5 2F.F ....|D#5 2F.7 ....
....|..|R-- .... ....|--- .... ....|--- .... ....
....|..|G#4 2F2F ....|F#5 2F.7 ....|C#5 2F.F ....
....|..|--- .... ....|--- .... ....|--- .... ....
....|..|G#4 2F.A ....|--- .... ....|C#5 2F.F ....
....|..|--- .... ....|R-- .... ....|--- .... ....
....|..|G#4 2F8F ....|D#5 2F.7 ....|C#5 2F.F ....
....|..|R-- .... ....|--- .... ....|--- .... ....
....|..|G#4 2F2A ....|--- .... ....|C#5 2F.F ....
....|..|--- .... ....|--- .... ....|--- .... ....
....|..|B-4 2F1F ....|--- .... ....|C#5 2F.F ....
....|..|--- .... ....|R-- .... ....|--- .... ....
....|..|G#4 2F8A ....|C#5 2F.7 ....|C#5 2F.F ....
....|..|--- .... ....|--- .... ....|--- .... ....
....|..|B-4 2F7F ....|--- .... ....|C#5 2F.F ....
....|..|--- .... ....|--- .... ....|--- .... ....
....|..|B-4 2F1A ....|--- .... ....|C#5 2F.F ....
....|..|--- .... ....|--- .... ....|--- .... ....
....|..|B-4 2F1F ....|--- .... ....|C#5 2F.F ....
....|..|--- .... ....|--- .... ....|--- .... ....
....|..|B-4 2F7A ....|--- .... ....|C#5 2F.F ....
....|..|--- .... ....|--- .... ....|--- .... ....
....|..|B-4 2F7F ....|--- .... ....|C#5 2F.F ....
....|..|--- .... ....|R-- .... ....|--- .... ....
....|..|B-4 2F1A ....|--- .... ....|C#5 2F.F ....
....|..|--- .... ....|--- .... ....|--- .... ....
....|..|G#4 2F2F ....|--- .... ....|C#5 2F.F ....
....|..|--- .... ....|--- .... ....|--- .... ....
....|..|F#5 2F.F ....|--- .... ....|C#5 2F.F ....
....|..|F#5 2F.F ....|R-- .... ....|--- .... ....
....|..|F#4 2F1F ....|F#4 2F.F ....|C#5 2F.F ....
....|..|--- .... ....|--- .... ....|--- .... ....
....|..|G#4 2F2A ....|--- .... ....|C#5 2F.7 ....
....|..|--- .... ....|--- .... ....|--- .... ....
....|..|B-4 2F77 ....|--- .... ....|C#5 2F.F ....
....|..|F#5 2F.A ....|R-- .... ....|--- .... ....
....|..|F#4 2F1A ....|F#4 2F.A ....|C#5 2F.F ....
....|..|--- .... ....|--- .... ....|--- .... ....
....|..|G#4 2F27 ....|--- .... ....|C#5 2F.F ....
....|..|--- .... ....|R-- .... ....|--- .... ....
....|..|F#5 2F.7 ....|--- .... ....|C#5 2F.F ....
....|..|F#5 2F.7 ....|--- .... ....|--- .... ....
....|..|F#4 2F17 ....|F#5 2F.F ....|C#5 2F.F ....
....|..|--- .... ....|R-- .... ....|--- .... ....
....|..|--- .... ....|--- .... ....|C#5 2F.F ....
....|..|--- .... ....|R-- .... ....|--- .... ....
....|..|--- .... ....|F-5 2F.F ....|C#5 2F.F ....
....|..|--- .... ....|--- .... ....|--- .... ....
....|..|--- .... ....|F#5 2F.A ....|C#5 2F.F ....
....|..|--- .... ....|R-- .... ....|--- .... ....
....|..|--- .... ....|--- .... ....|C#5 2F.F ....
....|..|--- .... ....|R-- .... ....|--- .... ....
....|..|--- .... ....|F-5 2F.A ....|C#5 2F.F ....
....|..|--- .... ....|--- .... ....|--- .... ....
....|..|--- .... ....|C#5 2F.F ....|C#5 2F.F ....
....|..|--- .... ....|R-- .... ....|--- .... ....
....|..|--- .... ....|A#4 2F.F ....|C#5 2F.F ....
....|..|--- .... ....|R-- .... ....|--- .... ....
....|..|F#4 2F6F ....|F-5 2F.7 ....|C#5 2F.F ....
....|..|R-- .... ....|--- .... ....|--- .... ....
....|..|--- .... ....|C#5 2F.A ....|C#5 2F.F ....
....|..|--- .... ....|R-- .... ....|--- .... ....

[Pattern7]
....|..|D#4 2F3F ....|D#5 2F.F ....|D#5 2F.F ....
....|..|C-4 2F4F ....|R-- .... ....|--- .... ....
....|..|F#4 2F6A ....|--- .... ....|C#5 2F.7 ....
....|..|R-- .... ....|--- .... ....|--- .... ....
....|..|--- .... ....|C#5 2F.7 ....|D#5 2F.F ....
....|..|--- .... ....|R-- .... ....|--- .... ....
....|..|D#4 2F3A ....|A#4 2F.7 ....|D#5 2F.F ....
....|..|C-4 2F4A ....|--- .... ....|--- .... ....
....|..|F#4 2F67 ....|--- .... ....|D#5 2F.F ....
....|..|R-- .... ....|--- .... ....|--- .... ....
....|..|--- .... ....|--- .... ....|D#5 2F.F ....
....|..|--- .... ....|R-- .... ....|--- .... ....
....|..|D#4 2F37 ....|D#5 2F.7 ....|D#5 2F.F ....
....|..|C-4 2F47 ....|--- .... ....|--- .... ....
....|..|--- .... ....|--- .... ....|D#5 2F.F ....
....|..|--- .... ....|R-- .... ....|--- .... ....
....|..|--- .... ....|G#4 2F.F ....|D#5 2F.F ....
....|..|--- .... ....|--- .... ....|--- .... ....
....|..|--- .... ....|--- .... ....|D#5 2F.F ....
....|..|--- .... ....|--- .... ....|--- .... ....
....|..|--- .... ....|--- .... ....|D#5 2F.F ....
....|..|--- .... ....|R-- .... ....|--- .... ....
....|..|--- .... ....|G#4 2F.A ....|D#5 2F.F ....
....|..|--- .... ....|--- .... ....|--- .... ....
....|..|--- .... ....|--- .... ....|D#5 2F.F ....
....|..|--- .... ....|--- .... ....|--- .... ....
....|..|--- .... ....|--- .... ....|D#5 2F.F ....
....|..|--- .... ....|R-- .... ....|--- .... ....
....|..|--- .... ....|G#4 2F.7 ....|D#5 2F.F ....
....|..|R-- .... ....|--- .... ....|--- .... ....
....|..|--- .... ....|--- .... ....|D#5 2F.F ....
....|..|--- .... ....|R-- .... ....|--- .... ....
....|..|F-4 2F2F ....|G#4 2F.F ....|C-5 2F.F ....
....|..|C-4 2F5F ....|--- .... ....|--- .... ....
....|..|--- .... ....|--- .... ....|D#5 2F.7 ....
....|..|R-- .... ....|--- .... ....|--- .... ....
....|..|--- .... ....|--- .... ....|C-5 2F.F ....
....|..|--- .... ....|R-- .... ....|--- .... ....
....|..|F-4 2F2A ....|G#4 2F.A ....|C-5 2F.F ....
....|..|C-4 2F5A ....|--- .... ....|--- .... ....
....|..|--- .... ....|--- .... ....|C-5 2F.F ....
....|..|R-- .... ....|R-- .... ....|--- .... ....
....|..|--- .... ....|--- .... ....|C-5 2F.F ....
....|..|--- .... ....|R-- .... ....|--- .... ....
....|..|F-4 2F27 ....|A#4 2F.F ....|C-5 2F.F ....
....|..|C-4 2F57 ....|--- .... ....|--- .... ....
....|..|C-4 2F3F ....|R-- .... ....|C-5 2F.F ....
....|..|R-- .... ....|R-- .... ....|--- .... ....
....|..|F-4 2F3F ....|C#5 2F.F ....|A#4 2F.F ....
....|..|C#4 2F7F ....|R-- .... ....|--- .... ....
....|..|--- .... ....|G#4 2F.F ....|A#4 2F.F ....
....|..|--- .... ....|--- .... ....|--- .... ....
....|..|C-4 2F3A ....|R-- .... ....|A#4 2F.F ....
....|..|R-- .... ....|R-- .... ....|--- .... ....
....|..|F-4 2F3A ....|C#5 2F.A ....|A#4 2F.F ....
....|..|C#4 2F7A ....|R-- .... ....|--- .... ....
....|..|--- .... ....|F-4 2F.F ....|A#4 2F.F ....
....|..|--- .... ....|--- .... ....|--- .... ....
....|..|C-4 2F37 ....|R-- .... ....|A#4 2F.F ....
....|..|R-- .... ....|R-- .... ....|--- .... ....
....|..|F-4 2F37 ....|G#4 2F.F ....|A#4 2F.F ....
....|..|C#4 2F77 ....|R-- .... ....|--- .... ....
....|..|C#4 2F6F ....|G#4 2F.7 ....|A#4 2F.F ....
....|..|R-- .... ....|--- .... ....|--- .... ....

[Pattern8]
....|..|F#4 2F6F ....|--- .... ....|A#4 2F.F ....
....|..|D#4 2F8F ....|R-- .... ....|--- .... ....
....|..|--- .... ....|G#4 2F.A ....|A#4 2F.7 ....
....|..|--- .... ....|R-- .... ....|--- .... ....
....|..|C#4 2F6A ....|F#4 2F.F ....|A#4 2F.F ....
....|..|R-- .... ....|--- .... ....|--- .... ....
....|..|F#4 2F6A ....|--- .... ....|A#4 2F.F ....
....|..|D#4 2F8A ....|R-- .... ....|--- .... ....
....|..|--- .... ....|G#4 2F.7 ....|A#4 2F.F ....
....|..|--- .... ....|--- .... ....|--- .... ....
....|..|C#4 2F67 ....|F#4 2F.A ....|A#4 2F.F ....
....|..|R-- .... ....|--- .... ....|--- .... ....
....|..|F#4 2F67 ....|--- .... ....|A#4 2F.F ....
....|..|D#4 2F87 ....|R-- .... ....|--- .... ....
....|..|--- .... ....|--- .... ....|A#4 2F.F ....
....|..|--- .... ....|--- .... ....|--- .... ....
....|..|--- .... ....|F#4 2F.7 ....|A#4 2F.F ....
....|..|--- .... ....|--- .... ....|--- .... ....
....|..|--- .... ....|--- .... ....|A#4 2F.F ....
....|..|--- .... ....|--- .... ....|--- .... ....
....|..|--- .... ....|--- .... ....|A#4 2F.F ....
....|..|--- .... ....|--- .... ....|--- .... ....
....|..|--- .... ....|--- .... ....|A#4 2F.F ....
....|..|--- .... ....|--- .... ....|--- .... ....
....|..|--- .... ....|--- .... ....|A#4 2F.F ....
....|..|--- .... ....|--- .... ....|--- .... ....
....|..|--- .... ....|--- .... ....|A#4 2F.F ....
....|..|--- .... ....|--- .... ....|--- .... ....
....|..|--- .... ....|--- .... ....|A#4 2F.F ....
....|..|R-- .... ....|--- .... ....|--- .... ....
....|..|--- .... ....|--- .... ....|A#4 2F.F ....
....|..|--- .... ....|R-- .... ....|--- .... ....
....|..|D#4 2F2F ....|F#4 2F.F ....|B-4 2F.F ....
....|..|B-3 2F1F ....|--- .... ....|--- .... ....
....|..|--- .... ....|--- .... ....|A#4 2F.7 ....
....|..|R-- .... ....|--- .... ....|--- .... ....
....|..|--- .... ....|--- .... ....|B-4 2F.F ....
....|..|--- .... ....|R-- .... ....|--- .... ....
....|..|D#4 2F2A ....|F#4 2F.A ....|B-4 2F.F ....
....|..|B-3 2F1A ....|--- .... ....|--- .... ....
....|..|--- .... ....|--- .... ....|B-4 2F.F ....
....|..|R-- .... ....|--- .... ....|--- .... ....
....|..|--- .... ....|R-- .... ....|B-4 2F.F ....
....|..|--- .... ....|R-- .... ....|--- .... ....
....|..|D#4 2F27 ....|F#4 2F.F ....|B-4 2F.F ....
....|..|B-3 2F17 ....|--- .... ....|--- .... ....
....|..|--- .... ....|R-- .... ....|B-4 2F.F ....
....|..|--- .... ....|--- .... ....|--- .... ....
....|..|--- .... ....|D#5 2F.F ....|B-4 2F.F ....
....|..|--- .... ....|--- .... ....|--- .... ....
....|..|--- .... ....|F#4 2F.A ....|B-4 2F.F ....
....|..|--- .... ....|R-- .... ....|--- .... ....
....|..|--- .... ....|C#5 2F.F ....|B-4 2F.F ....
....|..|--- .... ....|--- .... ....|--- .... ....
....|..|--- .... ....|D#5 2F.A ....|B-4 2F.F ....
....|..|--- .... ....|R-- .... ....|--- .... ....
....|..|--- .... ....|A#4 2F.F ....|B-4 2F.F ....
....|..|--- .... ....|R-- .... ....|--- .... ....
....|..|--- .... ....|G#4 2F.F ....|B-4 2F.F ....
....|..|--- .... ....|--- .... ....|--- .... ....
....|..|--- .... ....|D#5 2F.7 ....|B-4 2F.F ....
....|..|R-- .... ....|R-- .... ....|--- .... ....
....|..|--- .... ....|F#4 2F.F ....|B-4 2F.F ....
....|..|--- .... ....|R-- .... ....|--- .... ....

[Pattern9]
....|..|D#4 2F3F ....|G#4 2F.F ....|B-4 2F.F ....
....|..|B-3 2F7F ....|--- .... ....|--- .... ....
....|..|--- .... ....|--- .... ....|B-4 2F.7 ....
....|..|R-- .... ....|R-- .... ....|--- .... ....
....|..|--- .... ....|A#4 2F.7 ....|B-4 2F.F ....
....|..|--- .... ....|R-- .... ....|--- .... ....
....|..|D#4 2F3A ....|G#4 2F.7 ....|B-4 2F.F ....
....|..|B-3 2F7A ....|--- .... ....|--- .... ....
....|..|--- .... ....|--- .... ....|B-4 2F.F ....
....|..|R-- .... ....|--- .... ....|--- .... ....
....|..|--- .... ....|F#4 2F.7 ....|B-4 2F.F ....
....|..|--- .... ....|R-- .... ....|--- .... ....
....|..|D#4 2F37 ....|G#4 2F.7 ....|B-4 2F.F ....
....|..|B-3 2F77 ....|--- .... ....|--- .... ....
....|..|--- .... ....|--- .... ....|B-4 2F.F ....
....|..|--- .... ....|--- .... ....|--- .... ....
....|..|--- .... ....|--- .... ....|B-4 2F.F ....
....|..|--- .... ....|--- .... ....|--- .... ....
....|..|--- .... ....|--- .... ....|B-4 2F.F ....
....|..|--- .... ....|R-- .... ....|--- .... ....
....|..|--- .... ....|--- .... ....|B-4 2F.F ....
....|..|--- .... ....|--- .... ....|--- .... ....
....|..|--- .... ....|--- .... ....|B-4 2F.F ....
....|..|--- .... ....|--- .... ....|--- .... ....
....|..|--- .... ....|G#4 2F.F ....|B-4 2F.F ....
....|..|--- .... ....|R-- .... ....|--- .... ....
....|..|--- .... ....|A#4 2F.F ....|B-4 2F.F ....
....|..|--- .... ....|--- .... ....|--- .... ....
....|..|--- .... ....|--- .... ....|B-4 2F.F ....
....|..|R-- .... ....|--- .... ....|--- .... ....
....|..|--- .... ....|G#4 2F.A ....|B-4 2F.F ....
....|..|--- .... ....|R-- .... ....|--- .... ....
....|..|F-4 2F2F ....|C#5 2F.F ....|C#5 2F.F ....
....|..|C#4 2F1F ....|--- .... ....|--- .... ....
....|..|--- .... ....|--- .... ....|B-4 2F.7 ....
....|..|R-- .... ....|--- .... ....|--- .... ....
....|..|--- .... ....|G#4 2F.7 ....|C#5 2F.F ....
....|..|--- .... ....|R-- .... ....|--- .... ....
....|..|F-4 2F2A ....|A#4 2F.7 ....|C#5 2F.F ....
....|..|C#4 2F1A ....|--- .... ....|--- .... ....
....|..|--- .... ....|--- .... ....|C#5 2F.F ....
....|..|R-- .... ....|--- .... ....|--- .... ....
....|..|--- .... ....|--- .... ....|C#5 2F.F ....
....|..|--- .... ....|R-- .... ....|--- .... ....
....|..|F-4 2F27 ....|C#5 2F.7 ....|C#5 2F.F ....
....|..|C#4 2F17 ....|--- .... ....|--- .... ....
....|..|--- .... ....|--- .... ....|C#5 2F.F ....
....|..|--- .... ....|--- .... ....|--- .... ....
....|..|--- .... ....|--- .... ....|C#5 2F.F ....
....|..|--- .... ....|--- .... ....|--- .... ....
....|..|--- .... ....|R-- .... ....|C#5 2F.F ....
....|..|--- .... ....|--- .... ....|--- .... ....
....|..|--- .... ....|D#5 2F.F ....|C#5 2F.F ....
....|..|--- .... ....|R-- .... ....|--- .... ....
....|..|--- .... ....|--- .... ....|C#5 2F.F ....
....|..|--- .... ....|--- .... ....|--- .... ....
....|..|--- .... ....|F#5 2F.F ....|C#5 2F.F ....
....|..|--- .... ....|--- .... ....|--- .... ....
....|..|--- .... ....|D#5 2F.A ....|C#5 2F.F ....
....|..|--- .... ....|R-- .... ....|--- .... ....
....|..|--- .... ....|D#5 2F.F ....|C#5 2F.F ....
....|..|R-- .... ....|--- .... ....|--- .... ....
....|..|--- .... ....|F#5 2F.A ....|C#5 2F.F ....
....|..|--- .... ....|R-- .... ....|--- .... ....

[Pattern10]
....|..|F-4 2F3F ....|C#5 2F.F ....|A#4 2F.F ....
....|..|C#4 2F7F ....|R-- .... ....|--- .... ....
....|..|--- .... ....|D#5 2F.A ....|C#5 2F.7 ....
....|..|R-- .... ....|--- .... ....|--- .... ....
....|..|--- .... ....|F#5 2F.7 ....|A#4 2F.F ....
....|..|--- .... ....|R-- .... ....|--- .... ....
....|..|F-4 2F3A ....|C#5 2F.A ....|A#4 2F.F ....
....|..|C#4 2F7A ....|R-- .... ....|--- .... ....
....|..|--- .... ....|D#5 2F.7 ....|A#4 2F.F ....
....|..|R-- .... ....|--- .... ....|--- .... ....
....|..|--- .... ....|--- .... ....|A#4 2F.F ....
....|..|--- .... ....|R-- .... ....|--- .... ....
....|..|F-4 2F37 ....|C#5 2F.7 ....|A#4 2F.F ....
....|..|C#4 2F77 ....|--- .... ....|--- .... ....
....|..|C#4 2F6F ....|--- .... ....|A#4 2F.F ....
....|..|R-- .... ....|R-- .... ....|--- .... ....
....|..|F-4 2F3F ....|D-5 2F.F ....|A#4 2F.F ....
....|..|D-4 2F4F ....|--- .... ....|--- .... ....
....|..|--- .... ....|--- .... ....|A#4 2F.F ....
....|..|--- .... ....|--- .... ....|--- .... ....
....|..|C#4 2F6A ....|--- .... ....|A#4 2F.F ....
....|..|R-- .... ....|R-- .... ....|--- .... ....
....|..|F-4 2F3A ....|D-5 2F.A ....|A#4 2F.F ....
....|..|D-4 2F4A ....|--- .... ....|--- .... ....
....|..|--- .... ....|--- .... ....|A#4 2F.F ....
....|..|--- .... ....|--- .... ....|--- .... ....
....|..|C#4 2F67 ....|--- .... ....|A#4 2F.F ....
....|..|R-- .... ....|R-- .... ....|--- .... ....
....|..|F-4 2F37 ....|D-5 2F.7 ....|A#4 2F.F ....
....|..|D-4 2F47 ....|--- .... ....|--- .... ....
....|..|D-4 2F2F ....|--- .... ....|A#4 2F.F ....
....|..|R-- .... ....|R-- .... ....|--- .... ....
....|..|F#4 2F6F ....|D#5 2F.F ....|A#3 2F.F ....
....|..|D#4 2F8F ....|--- .... ....|F#4 2F.F ....
....|..|--- .... ....|--- .... ....|A#4 2F.F ....
....|..|--- .... ....|--- .... ....|--- .... ....
....|..|D-4 2F2A ....|C#5 2F.F ....|A#4 2F.7 ....
....|..|R-- .... ....|A#4 2F.F ....|--- .... ....
....|..|F#4 2F6A ....|F#4 2F.F ....|A#4 2F.7 ....
....|..|D#4 2F8A ....|D#4 2F.F ....|F#4 2F.A ....
....|..|--- .... ....|F#5 2F.F ....|A#4 2F.7 ....
....|..|--- .... ....|--- .... ....|--- .... ....
....|..|D-4 2F27 ....|C#5 2F.A ....|A#4 2F.7 ....
....|..|R-- .... ....|A#4 2F.A ....|--- .... ....
....|..|F#4 2F67 ....|F-5 2F.F ....|A#3 2F.7 ....
....|..|D#4 2F87 ....|D#4 2F.A ....|F#4 2F.7 ....
....|..|--- .... ....|F#5 2F.A ....|A#4 2F.7 ....
....|..|--- .... ....|R-- .... ....|--- .... ....
....|..|--- .... ....|F#5 2F.F ....|--- .... ....
....|..|--- .... ....|A#4 2F.7 ....|--- .... ....
....|..|--- .... ....|F#4 2F.7 ....|--- .... ....
....|..|--- .... ....|D#4 2F.7 ....|--- .... ....
....|..|--- .... ....|F-5 2F.F ....|--- .... ....
....|..|--- .... ....|R-- .... ....|--- .... ....
....|..|--- .... ....|F#5 2F.A ....|--- .... ....
....|..|--- .... ....|R-- .... ....|--- .... ....
....|..|--- .... ....|C#5 2F.F ....|--- .... ....
....|..|--- .... ....|R-- .... ....|--- .... ....
....|..|--- .... ....|F-5 2F.A ....|--- .... ....
....|..|--- .... ....|R-- .... ....|--- .... ....
....|..|--- .... ....|A#4 2F.F ....|--- .... ....
....|..|R-- .... ....|R-- .... ....|--- .... ....
....|..|--- .... ....|C#5 2F.A ....|A#4 2F.F ....
....|..|--- .... ....|R-- .... ....|R-- .... ....

[Pattern11]
....|..|D#4 2F2F ....|C#5 2F.F ....|D#4 2F.F ....
....|..|D#4 2F4F ....|R-- .... ....|B-4 2F.F ....
....|..|--- .... ....|A#4 2F.A ....|--- .... ....
....|..|R-- .... ....|R-- .... ....|--- .... ....
....|..|--- .... ....|D#5 2F.F ....|A#4 2F.A ....
....|..|--- .... ....|R-- .... ....|R-- .... ....
....|..|D#4 2F2A ....|C#5 2F.A ....|D#4 2F.A ....
....|..|D#4 2F4A ....|R-- .... ....|B-4 2F.A ....
....|..|--- .... ....|A#4 2F.7 ....|--- .... ....
....|..|R-- .... ....|R-- .... ....|--- .... ....
....|..|--- .... ....|D#5 2F.A ....|A#4 2F.7 ....
....|..|--- .... ....|R-- .... ....|R-- .... ....
....|..|D#4 2F27 ....|D#5 2F.F ....|D#4 2F.7 ....
....|..|D#4 2F47 ....|--- .... ....|B-4 2F.7 ....
....|..|--- .... ....|--- .... ....|--- .... ....
....|..|--- .... ....|R-- .... ....|--- .... ....
....|..|--- .... ....|D#5 2F.7 ....|--- .... ....
....|..|--- .... ....|--- .... ....|--- .... ....
....|..|--- .... ....|D#5 2F.A ....|--- .... ....
....|..|--- .... ....|--- .... ....|--- .... ....
....|..|--- .... ....|--- .... ....|--- .... ....
....|..|--- .... ....|--- .... ....|--- .... ....
....|..|--- .... ....|R-- .... ....|--- .... ....
....|..|--- .... ....|--- .... ....|--- .... ....
....|..|--- .... ....|D#5 2F.7 ....|--- .... ....
....|..|--- .... ....|--- .... ....|--- .... ....
....|..|--- .... ....|--- .... ....|--- .... ....
....|..|--- .... ....|--- .... ....|--- .... ....
....|..|--- .... ....|--- .... ....|--- .... ....
....|..|R-- .... ....|R-- .... ....|--- .... ....
....|..|--- .... ....|--- .... ....|B-3 2F.F ....
....|..|--- .... ....|--- .... ....|R-- .... ....
....|..|D#4 2F2F ....|--- .... ....|A#3 2F.F ....
....|..|D#4 2F8F ....|--- .... ....|F#4 2F.F ....
....|..|--- .... ....|--- .... ....|A#4 2F.F ....
....|..|R-- .... ....|R-- .... ....|--- .... ....
....|..|--- .... ....|--- .... ....|B-3 2F.A ....
....|..|--- .... ....|--- .... ....|R-- .... ....
....|..|D#4 2F2A ....|--- .... ....|A#3 2F.A ....
....|..|D#4 2F8A ....|--- .... ....|F#4 2F.A ....
....|..|--- .... ....|F#5 2F.F ....|A#4 2F.A ....
....|..|R-- .... ....|R-- .... ....|--- .... ....
....|..|--- .... ....|--- .... ....|B-3 2F.7 ....
....|..|--- .... ....|R-- .... ....|R-- .... ....
....|..|D#4 2F27 ....|F-5 2F.F ....|A#3 2F.7 ....
....|..|D#4 2F87 ....|R-- .... ....|F#4 2F.7 ....
....|..|--- .... ....|F#5 2F.F ....|A#4 2F.7 ....
....|..|--- .... ....|--- .... ....|--- .... ....
....|..|--- .... ....|--- .... ....|--- .... ....
....|..|--- .... ....|R-- .... ....|--- .... ....
....|..|--- .... ....|F-5 2F.A ....|--- .... ....
....|..|--- .... ....|R-- .... ....|--- .... ....
....|..|--- .... ....|F-5 2F.F ....|--- .... ....
....|..|--- .... ....|--- .... ....|--- .... ....
....|..|--- .... ....|--- .... ....|--- .... ....
....|..|--- .... ....|R-- .... ....|--- .... ....
....|..|--- .... ....|C#5 2F.F ....|--- .... ....
....|..|--- .... ....|R-- .... ....|--- .... ....
....|..|--- .... ....|F#5 2F.7 ....|--- .... ....
....|..|--- .... ....|R-- .... ....|--- .... ....
....|..|--- .... ....|A#4 2F.F ....|--- .... ....
....|..|R-- .... ....|R-- .... ....|--- .... ....
....|..|--- .... ....|C#5 2F.A ....|A#4 2F.F ....
....|..|--- .... ....|R-- .... ....|R-- .... ....

[Pattern12]
....|..|D#4 2F2F ....|C#5 2F.F ....|D#4 2F.F ....
....|..|D#4 2F4F ....|R-- .... ....|B-4 2F.F ....
....|..|--- .... ....|A#4 2F.A ....|--- .... ....
....|..|R-- .... ....|R-- .... ....|--- .... ....
....|..|--- .... ....|D#5 2F.F ....|A#4 2F.A ....
....|..|--- .... ....|R-- .... ....|R-- .... ....
....|..|D#4 2F2A ....|C#5 2F.A ....|D#4 2F.A ....
....|..|D#4 2F4A ....|R-- .... ....|B-4 2F.A ....
....|..|--- .... ....|A#4 2F.7 ....|--- .... ....
....|..|R-- .... ....|R-- .... ....|--- .... ....
....|..|--- .... ....|D#5 2F.A ....|A#4 2F.7 ....
....|..|--- .... ....|R-- .... ....|R-- .... ....
....|..|D#4 2F27 ....|D#5 2F.F ....|D#4 2F.7 ....
....|..|D#4 2F47 ....|--- .... ....|B-4 2F.7 ....
....|..|--- .... ....|--- .... ....|--- .... ....
....|..|--- .... ....|R-- .... ....|--- .... ....
....|..|--- .... ....|D#5 2F.7 ....|--- .... ....
....|..|--- .... ....|--- .... ....|--- .... ....
....|..|--- .... ....|D#5 2F.A ....|--- .... ....
....|..|--- .... ....|--- .... ....|--- .... ....
....|..|--- .... ....|--- .... ....|--- .... ....
....|..|--- .... ....|--- .... ....|--- .... ....
....|..|--- .... ....|R-- .... ....|--- .... ....
....|..|--- .... ....|--- .... ....|--- .... ....
....|..|--- .... ....|D#5 2F.7 ....|--- .... ....
....|..|--- .... ....|--- .... ....|--- .... ....
....|..|--- .... ....|--- .... ....|--- .... ....
....|..|--- .... ....|--- .... ....|--- .... ....
....|..|--- .... ....|--- .... ....|--- .... ....
....|..|R-- .... ....|R-- .... ....|--- .... ....
....|..|--- .... ....|--- .... ....|B-3 2F.F ....
....|..|--- .... ....|--- .... ....|R-- .... ....
....|..|F#4 2F3F ....|--- .... ....|D#5 2F.F ....
....|..|D#4 2F4F ....|--- .... ....|--- .... ....
....|..|--- .... ....|--- .... ....|--- .... ....
....|..|R-- .... ....|R-- .... ....|--- .... ....
....|..|--- .... ....|--- .... ....|D#5 2F.F ....
....|..|--- .... ....|--- .... ....|R-- .... ....
....|..|F#4 2F3A ....|--- .... ....|D#5 2F.F ....
....|..|D#4 2F4A ....|--- .... ....|--- .... ....
....|..|--- .... ....|D#5 2F.F ....|D#5 2F.F ....
....|..|R-- .... ....|R-- .... ....|--- .... ....
....|..|--- .... ....|--- .... ....|D#5 2F.F ....
....|..|--- .... ....|R-- .... ....|R-- .... ....
....|..|F#4 2F37 ....|F-5 2F.F ....|D#5 2F.F ....
....|..|D#4 2F47 ....|--- .... ....|--- .... ....
....|..|--- .... ....|D#5 2F.A ....|D#5 2F.F ....
....|..|--- .... ....|R-- .... ....|--- .... ....
....|..|--- .... ....|F#5 2F.F ....|D#5 2F.F ....
....|..|--- .... ....|R-- .... ....|--- .... ....
....|..|--- .... ....|F-5 2F.A ....|D#5 2F.F ....
....|..|--- .... ....|--- .... ....|--- .... ....
....|..|--- .... ....|F-5 2F.F ....|D#5 2F.F ....
....|..|--- .... ....|R-- .... ....|--- .... ....
....|..|--- .... ....|D#5 2F.F ....|D#5 2F.F ....
....|..|--- .... ....|R-- .... ....|--- .... ....
....|..|--- .... ....|F-5 2F.7 ....|D#5 2F.F ....
....|..|--- .... ....|--- .... ....|--- .... ....
....|..|--- .... ....|F-5 2F.A ....|D#5 2F.F ....
....|..|--- .... ....|R-- .... ....|--- .... ....
....|..|--- .... ....|F#5 2F.7 ....|D#5 2F.F ....
....|..|R-- .... ....|--- .... ....|--- .... ....
....|..|--- .... ....|--- .... ....|D#5 2F.F ....
....|..|--- .... ....|--- .... ....|--- .... ....

[Pattern13]
....|..|G#4 2F2F ....|F-5 2F.7 ....|D#5 2F.F ....
....|..|D#4 2F5F ....|R-- .... ....|--- .... ....
....|..|--- .... ....|D#5 2F.7 ....|D#5 2F.7 ....
....|..|R-- .... ....|--- .... ....|--- .... ....
....|..|--- .... ....|--- .... ....|D#5 2F.F ....
....|..|--- .... ....|--- .... ....|--- .... ....
....|..|G#4 2F2A ....|R-- .... ....|D#5 2F.F ....
....|..|D#4 2F5A ....|--- .... ....|--- .... ....
....|..|--- .... ....|D#5 2F.F ....|D#5 2F.F ....
....|..|R-- .... ....|F-5 2F.F ....|--- .... ....
....|..|--- .... ....|--- .... ....|D#5 2F.F ....
....|..|--- .... ....|--- .... ....|--- .... ....
....|..|G#4 2F27 ....|R-- .... ....|D#5 2F.F ....
....|..|D#4 2F57 ....|F#5 2F.F ....|--- .... ....
....|..|--- .... ....|D#5 2F.A ....|D#5 2F.F ....
....|..|--- .... ....|G#5 2F.F ....|--- .... ....
....|..|--- .... ....|--- .... ....|D#5 2F.F ....
....|..|--- .... ....|--- .... ....|--- .... ....
....|..|--- .... ....|R-- .... ....|D#5 2F.F ....
....|..|--- .... ....|F#5 2F.A ....|--- .... ....
....|..|--- .... ....|F#5 2F.F ....|D#5 2F.F ....
....|..|--- .... ....|F-5 2F.7 ....|--- .... ....
....|..|--- .... ....|--- .... ....|D#5 2F.F ....
....|..|--- .... ....|--- .... ....|--- .... ....
....|..|--- .... ....|F-5 2F.F ....|D#5 2F.F ....
....|..|--- .... ....|F#5 2F.7 ....|--- .... ....
....|..|--- .... ....|F#5 2F.A ....|D#5 2F.F ....
....|..|--- .... ....|G#5 2F.7 ....|--- .... ....
....|..|--- .... ....|D#5 2F.F ....|D#5 2F.F ....
....|..|R-- .... ....|--- .... ....|--- .... ....
....|..|--- .... ....|F-5 2F.A ....|D#5 2F.F ....
....|..|--- .... ....|--- .... ....|--- .... ....
....|..|F-4 2F3F ....|F#5 2F.7 ....|C#5 2F.F ....
....|..|C#4 2F7F ....|R-- .... ....|--- .... ....
....|..|--- .... ....|D#5 2F.A ....|D#5 2F.7 ....
....|..|R-- .... ....|--- .... ....|--- .... ....
....|..|--- .... ....|C#5 2F.F ....|C#5 2F.F ....
....|..|--- .... ....|--- .... ....|--- .... ....
....|..|F-4 2F3A ....|--- .... ....|C#5 2F.F ....
....|..|C#4 2F7A ....|R-- .... ....|--- .... ....
....|..|--- .... ....|D#5 2F.7 ....|C#5 2F.F ....
....|..|R-- .... ....|--- .... ....|--- .... ....
....|..|--- .... ....|C#5 2F.A ....|C#5 2F.F ....
....|..|--- .... ....|--- .... ....|--- .... ....
....|..|F-4 2F37 ....|--- .... ....|C#5 2F.F ....
....|..|C#4 2F77 ....|--- .... ....|--- .... ....
....|..|--- .... ....|R-- .... ....|C#5 2F.F ....
....|..|--- .... ....|--- .... ....|--- .... ....
....|..|--- .... ....|C#5 2F.7 ....|C#5 2F.F ....
....|..|--- .... ....|--- .... ....|--- .... ....
....|..|--- .... ....|--- .... ....|C#5 2F.F ....
....|..|--- .... ....|--- .... ....|--- .... ....
....|..|--- .... ....|--- .... ....|C#5 2F.F ....
....|..|--- .... ....|--- .... ....|--- .... ....
....|..|--- .... ....|R-- .... ....|C#5 2F.F ....
....|..|--- .... ....|--- .... ....|--- .... ....
....|..|--- .... ....|A#4 2F.F ....|C#5 2F.F ....
....|..|--- .... ....|R-- .... ....|--- .... ....
....|..|--- .... ....|C#5 2F.F ....|C#5 2F.F ....
....|..|--- .... ....|--- .... ....|--- .... ....
....|..|--- .... ....|R-- .... ....|C#5 2F.F ....
....|..|R-- .... ....|--- .... ....|--- .... ....
....|..|--- .... ....|A#4 2F.A ....|C#5 2F.F ....
....|..|--- .... ....|R-- .... ....|--- .... ....

[Pattern14]
....|..|F#4 2F6F ....|D#5 2F.F ....|D#5 2F.F ....
....|..|D#4 2F8F ....|--- .... ....|--- .... ....
....|..|--- .... ....|R-- .... ....|C#5 2F.7 ....
....|..|R-- .... ....|--- .... ....|--- .... ....
....|..|--- .... ....|A#4 2F.7 ....|D#5 2F.F ....
....|..|--- .... ....|R-- .... ....|--- .... ....
....|..|F#4 2F6A ....|C#5 2F.7 ....|D#5 2F.F ....
....|..|D#4 2F8A ....|--- .... ....|--- .... ....
....|..|--- .... ....|--- .... ....|D#5 2F.F ....
....|..|R-- .... ....|--- .... ....|--- .... ....
....|..|--- .... ....|--- .... ....|D#5 2F.F ....
....|..|--- .... ....|--- .... ....|--- .... ....
....|..|F#4 2F67 ....|D#5 2F.7 ....|D#5 2F.F ....
....|..|D#4 2F87 ....|--- .... ....|--- .... ....
....|..|--- .... ....|--- .... ....|D#5 2F.F ....
....|..|--- .... ....|--- .... ....|--- .... ....
....|..|--- .... ....|--- .... ....|D#5 2F.F ....
....|..|--- .... ....|--- .... ....|--- .... ....
....|..|--- .... ....|--- .... ....|D#5 2F.F ....
....|..|--- .... ....|--- .... ....|--- .... ....
....|..|--- .... ....|--- .... ....|D#5 2F.F ....
....|..|--- .... ....|--- .... ....|--- .... ....
....|..|--- .... ....|--- .... ....|D#5 2F.F ....
....|..|--- .... ....|--- .... ....|--- .... ....
....|..|--- .... ....|--- .... ....|D#5 2F.F ....
....|..|--- .... ....|R-- .... ....|--- .... ....
....|..|--- .... ....|--- .... ....|D#5 2F.F ....
....|..|--- .... ....|--- .... ....|--- .... ....
....|..|--- .... ....|C#5 2F.F ....|D#5 2F.F ....
....|..|R-- .... ....|R-- .... ....|--- .... ....
....|..|--- .... ....|C#5 2F.F ....|D#5 2F.F ....
....|..|--- .... ....|R-- .... ....|--- .... ....
....|..|D#4 2F2F ....|C#5 2F.F ....|D#5 2F.F ....
....|..|B-3 2F1F ....|--- .... ....|--- .... ....
....|..|--- .... ....|C#5 2F.A ....|D#5 2F.7 ....
....|..|R-- .... ....|R-- .... ....|--- .... ....
....|..|--- .... ....|B-4 2F.F ....|D#5 2F.F ....
....|..|--- .... ....|R-- .... ....|--- .... ....
....|..|D#4 2F2A ....|C#5 2F.A ....|D#5 2F.F ....
....|..|B-3 2F1A ....|--- .... ....|--- .... ....
....|..|--- .... ....|C#5 2F.7 ....|D#5 2F.F ....
....|..|R-- .... ....|R-- .... ....|--- .... ....
....|..|--- .... ....|C#5 2F.7 ....|D#5 2F.F ....
....|..|--- .... ....|R-- .... ....|--- .... ....
....|..|D#4 2F27 ....|C#5 2F.7 ....|D#5 2F.F ....
....|..|B-3 2F17 ....|--- .... ....|--- .... ....
....|..|--- .... ....|--- .... ....|D#5 2F.F ....
....|..|--- .... ....|R-- .... ....|--- .... ....
....|..|D#4 2F2F ....|B-4 2F.7 ....|D#5 2F.F ....
....|..|--- .... ....|--- .... ....|--- .... ....
....|..|--- .... ....|--- .... ....|D#5 2F.F ....
....|..|--- .... ....|--- .... ....|--- .... ....
....|..|--- .... ....|--- .... ....|D#5 2F.F ....
....|..|--- .... ....|--- .... ....|--- .... ....
....|..|D#4 2F2A ....|--- .... ....|D#5 2F.F ....
....|..|--- .... ....|--- .... ....|--- .... ....
....|..|D#4 2F2F ....|--- .... ....|D#5 2F.F ....
....|..|--- .... ....|--- .... ....|--- .... ....
....|..|--- .... ....|R-- .... ....|D#5 2F.F ....
....|..|--- .... ....|--- .... ....|--- .... ....
....|..|D#4 2F27 ....|--- .... ....|D#5 2F.F ....
....|..|F#5 2F.F ....|--- .... ....|--- .... ....
....|..|D#4 2F2A ....|--- .... ....|D#5 2F.F ....
....|..|--- .... ....|--- .... ....|--- .... ....

[Pattern15]
....|..|D#4 2F3F ....|R-- .... ....|D#5 2F.F ....
....|..|D#4 2F3F ....|--- .... ....|--- .... ....
....|..|--- .... ....|--- .... ....|D#5 2F.7 ....
....|..|F#5 2F.A ....|--- .... ....|--- .... ....
....|..|D#4 2F27 ....|--- .... ....|D#5 2F.F ....
....|..|--- .... ....|--- .... ....|--- .... ....
....|..|D#4 2F3A ....|R-- .... ....|D#5 2F.F ....
....|..|D#4 2F3A ....|--- .... ....|--- .... ....
....|..|--- .... ....|A#4 2F.F ....|D#5 2F.F ....
....|..|F#5 2F.7 ....|--- .... ....|--- .... ....
....|..|--- .... ....|--- .... ....|D#5 2F.F ....
....|..|--- .... ....|R-- .... ....|--- .... ....
....|..|D#4 2F37 ....|B-4 2F.F ....|D#5 2F.F ....
....|..|D#4 2F37 ....|--- .... ....|--- .... ....
....|..|--- .... ....|A#4 2F.A ....|D#5 2F.F ....
....|..|B-3 2F7F ....|R-- .... ....|--- .... ....
....|..|D#4 2F3F ....|A#5 2F.F ....|D#5 2F.F ....
....|..|--- .... ....|R-- .... ....|--- .... ....
....|..|--- .... ....|B-4 2F.A ....|D#5 2F.F ....
....|..|--- .... ....|--- .... ....|--- .... ....
....|..|--- .... ....|A#5 2F.F ....|D#5 2F.F ....
....|..|B-3 2F7A ....|R-- .... ....|--- .... ....
....|..|D#4 2F3A ....|A#5 2F.A ....|D#5 2F.F ....
....|..|--- .... ....|R-- .... ....|--- .... ....
....|..|D#4 2F3F ....|G#5 2F.F ....|D#5 2F.F ....
....|..|--- .... ....|R-- .... ....|--- .... ....
....|..|--- .... ....|F#5 2F.F ....|D#5 2F.F ....
....|..|B-3 2F77 ....|R-- .... ....|--- .... ....
....|..|D#4 2F37 ....|A#5 2F.7 ....|D#5 2F.F ....
....|..|F#5 2F.F ....|R-- .... ....|--- .... ....
....|..|D#4 2F3A ....|G#5 2F.A ....|D#5 2F.F ....
....|..|--- .... ....|G#5 2F.F ....|--- .... ....
....|..|F-4 2F2F ....|A#5 2F.7 ....|C#5 2F.F ....
....|..|F-4 2F2F ....|--- .... ....|--- .... ....
....|..|--- .... ....|R-- .... ....|D#5 2F.7 ....
....|..|F#5 2F.A ....|--- .... ....|--- .... ....
....|..|D#4 2F37 ....|G#5 2F.7 ....|C#5 2F.F ....
....|..|--- .... ....|G#5 2F.A ....|--- .... ....
....|..|F-4 2F2A ....|F#5 2F.7 ....|C#5 2F.F ....
....|..|F-4 2F2A ....|--- .... ....|--- .... ....
....|..|--- .... ....|--- .... ....|C#5 2F.F ....
....|..|F#5 2F.7 ....|--- .... ....|--- .... ....
....|..|--- .... ....|R-- .... ....|C#5 2F.F ....
....|..|--- .... ....|G#5 2F.7 ....|--- .... ....
....|..|F-4 2F27 ....|--- .... ....|C#5 2F.F ....
....|..|F-4 2F27 ....|--- .... ....|--- .... ....
....|..|--- .... ....|R-- .... ....|C#5 2F.F ....
....|..|--- .... ....|--- .... ....|--- .... ....
....|..|--- .... ....|--- .... ....|C#5 2F.F ....
....|..|--- .... ....|--- .... ....|--- .... ....
....|..|--- .... ....|--- .... ....|C#5 2F.F ....
....|..|--- .... ....|--- .... ....|--- .... ....
....|..|--- .... ....|D#5 2F.F ....|C#5 2F.F ....
....|..|--- .... ....|--- .... ....|--- .... ....
....|..|--- .... ....|--- .... ....|C#5 2F.F ....
....|..|--- .... ....|R-- .... ....|--- .... ....
....|..|--- .... ....|F#5 2F.F ....|C#5 2F.F ....
....|..|--- .... ....|R-- .... ....|--- .... ....
....|..|--- .... ....|G#5 2F.F ....|C#5 2F.F ....
....|..|--- .... ....|--- .... ....|--- .... ....
....|..|--- .... ....|--- .... ....|C#5 2F.F ....
....|..|G#5 2F.F ....|R-- .... ....|--- .... ....
....|..|--- .... ....|F#5 2F.A ....|C#5 2F.F ....
....|..|--- .... ....|R-- .... ....|--- .... ....

[Pattern16]
....|..|F-4 2F4F ....|A#5 2F.F ....|C#5 2F.F ....
....|..|F-4 2F4F ....|--- .... ....|--- .... ....
....|..|--- .... ....|--- .... ....|C#5 2F.7 ....
....|..|G#5 2F.A ....|R-- .... ....|--- .... ....
....|..|--- .... ....|F#5 2F.7 ....|C#5 2F.F ....
....|..|C#4 2F1F ....|R-- .... ....|--- .... ....
....|..|F-4 2F2F ....|G#5 2F.7 ....|C#5 2F.F ....
....|..|F-4 2F4A ....|--- .... ....|--- .... ....
....|..|--- .... ....|--- .... ....|C#5 2F.F ....
....|..|G#5 2F.7 ....|--- .... ....|--- .... ....
....|..|--- .... ....|R-- .... ....|C#5 2F.F ....
....|..|C#4 2F1F ....|R-- .... ....|--- .... ....
....|..|F-4 2F2F ....|G#5 2F.F ....|C#5 2F.F ....
....|..|F-4 2F47 ....|--- .... ....|--- .... ....
....|..|--- .... ....|--- .... ....|C#5 2F.F ....
....|..|--- .... ....|--- .... ....|--- .... ....
....|..|--- .... ....|R-- .... ....|C#5 2F.F ....
....|..|C#4 2F1F ....|--- .... ....|--- .... ....
....|..|F-4 2F2F ....|G#5 2F.A ....|C#5 2F.F ....
....|..|--- .... ....|--- .... ....|--- .... ....
....|..|--- .... ....|--- .... ....|C#5 2F.F ....
....|..|--- .... ....|--- .... ....|--- .... ....
....|..|--- .... ....|R-- .... ....|C#5 2F.F ....
....|..|C#4 2F1F ....|--- .... ....|--- .... ....
....|..|F-4 2F2F ....|G#5 2F.7 ....|C#5 2F.F ....
....|..|--- .... ....|--- .... ....|--- .... ....
....|..|--- .... ....|--- .... ....|C#5 2F.F ....
....|..|--- .... ....|--- .... ....|--- .... ....
....|..|--- .... ....|--- .... ....|C#5 2F.F ....
....|..|G#5 2F.F ....|F#5 2F.F ....|--- .... ....
....|..|F-4 2F27 ....|D#5 2F.F ....|C#5 2F.F ....
....|..|--- .... ....|B-4 2F.F ....|--- .... ....
....|..|A#4 2F2F ....|G#4 2F.F ....|C#5 2F.F ....
....|..|F#4 2F1F ....|--- .... ....|--- .... ....
....|..|--- .... ....|--- .... ....|C#5 2F.7 ....
....|..|C#4 2F17 ....|F#5 2F.A ....|--- .... ....
....|..|F-4 2F27 ....|D#5 2F.A ....|C#5 2F.F ....
....|..|--- .... ....|B-4 2F.A ....|--- .... ....
....|..|A#4 2F2A ....|G#4 2F.A ....|C#5 2F.F ....
....|..|F#4 2F1A ....|--- .... ....|--- .... ....
....|..|--- .... ....|--- .... ....|C#5 2F.F ....
....|..|G#5 2F.7 ....|F#5 2F.7 ....|--- .... ....
....|..|--- .... ....|D#5 2F.7 ....|C#5 2F.F ....
....|..|--- .... ....|B-4 2F.7 ....|--- .... ....
....|..|A#4 2F27 ....|G#4 2F.7 ....|C#5 2F.F ....
....|..|F#4 2F17 ....|--- .... ....|--- .... ....
....|..|--- .... ....|--- .... ....|C#5 2F.F ....
....|..|--- .... ....|--- .... ....|--- .... ....
....|..|--- .... ....|--- .... ....|C#5 2F.F ....
....|..|--- .... ....|--- .... ....|--- .... ....
....|..|--- .... ....|--- .... ....|C#5 2F.F ....
....|..|--- .... ....|--- .... ....|--- .... ....
....|..|--- .... ....|--- .... ....|C#5 2F.F ....
....|..|--- .... ....|--- .... ....|--- .... ....
....|..|--- .... ....|--- .... ....|C#5 2F.F ....
....|..|--- .... ....|--- .... ....|--- .... ....
....|..|--- .... ....|--- .... ....|C#5 2F.F ....
....|..|--- .... ....|--- .... ....|--- .... ....
....|..|--- .... ....|--- .... ....|C#5 2F.F ....
....|..|--- .... ....|--- .... ....|--- .... ....
....|..|--- .... ....|--- .... ....|C#5 2F.F ....
....|..|R-- .... ....|--- .... ....|--- .... ....
....|..|--- .... ....|--- .... ....|C#5 2F.F ....
....|..|--- .... ....|--- .... ....|--- .... ....

[Pattern17]
....|..|G#4 2F3F ....|--- .... ....|D#5 2F.F ....
....|..|D#4 2F9F ....|--- .... ....|--- .... ....
....|..|--- .... ....|--- .... ....|C#5 2F.7 ....
....|..|R-- .... ....|--- .... ....|--- .... ....
....|..|--- .... ....|--- .... ....|D#5 2F.F ....
....|..|--- .... ....|--- .... ....|--- .... ....
....|..|G#4 2F3A ....|--- .... ....|D#5 2F.F ....
....|..|D#4 2F9A ....|--- .... ....|--- .... ....
....|..|--- .... ....|--- .... ....|D#5 2F.F ....
....|..|R-- .... ....|--- .... ....|--- .... ....
....|..|--- .... ....|--- .... ....|D#5 2F.F ....
....|..|--- .... ....|--- .... ....|--- .... ....
....|..|G#4 2F37 ....|--- .... ....|D#5 2F.F ....
....|..|D#4 2F97 ....|--- .... ....|--- .... ....
....|..|--- .... ....|--- .... ....|D#5 2F.F ....
....|..|--- .... ....|--- .... ....|--- .... ....
....|..|--- .... ....|--- .... ....|D#5 2F.F ....
....|..|--- .... ....|--- .... ....|--- .... ....
....|..|--- .... ....|--- .... ....|D#5 2F.F ....
....|..|--- .... ....|--- .... ....|--- .... ....
....|..|--- .... ....|--- .... ....|D#5 2F.F ....
....|..|--- .... ....|--- .... ....|--- .... ....
....|..|--- .... ....|--- .... ....|D#5 2F.F ....
....|..|--- .... ....|--- .... ....|--- .... ....
....|..|--- .... ....|--- .... ....|D#5 2F.F ....
....|..|--- .... ....|--- .... ....|--- .... ....
....|..|--- .... ....|--- .... ....|D#5 2F.F ....
....|..|--- .... ....|--- .... ....|--- .... ....
....|..|--- .... ....|--- .... ....|D#5 2F.F ....
....|..|R-- .... ....|--- .... ....|--- .... ....
....|..|--- .... ....|--- .... ....|D#5 2F.F ....
....|..|--- .... ....|--- .... ....|--- .... ....
....|..|A#4 2F2F ....|--- .... ....|C#5 2F.F ....
....|..|F#4 2F1F ....|--- .... ....|--- .... ....
....|..|--- .... ....|--- .... ....|D#5 2F.7 ....
....|..|R-- .... ....|--- .... ....|--- .... ....
....|..|--- .... ....|--- .... ....|C#5 2F.F ....
....|..|--- .... ....|--- .... ....|--- .... ....
....|..|A#4 2F2A ....|--- .... ....|C#5 2F.F ....
....|..|F#4 2F1A ....|--- .... ....|--- .... ....
....|..|--- .... ....|--- .... ....|C#5 2F.F ....
....|..|R-- .... ....|--- .... ....|--- .... ....
....|..|--- .... ....|--- .... ....|C#5 2F.F ....
....|..|--- .... ....|--- .... ....|--- .... ....
....|..|A#4 2F27 ....|--- .... ....|C#5 2F.F ....
....|..|F#4 2F17 ....|--- .... ....|--- .... ....
....|..|--- .... ....|--- .... ....|C#5 2F.F ....
....|..|--- .... ....|--- .... ....|--- .... ....
....|..|--- .... ....|--- .... ....|C#5 2F.F ....
....|..|--- .... ....|--- .... ....|--- .... ....
....|..|--- .... ....|--- .... ....|C#5 2F.F ....
....|..|--- .... ....|--- .... ....|--- .... ....
....|..|--- .... ....|--- .... ....|C#5 2F.F ....
....|..|--- .... ....|--- .... ....|--- .... ....
....|..|--- .... ....|--- .... ....|C#5 2F.F ....
....|..|--- .... ....|--- .... ....|--- .... ....
....|..|--- .... ....|--- .... ....|C#5 2F.F ....
....|..|--- .... ....|--- .... ....|--- .... ....
....|..|--- .... ....|--- .... ....|C#5 2F.F ....
....|..|--- .... ....|--- .... ....|--- .... ....
....|..|--- .... ....|--- .... ....|C#5 2F.F ....
....|..|R-- .... ....|--- .... ....|--- .... ....
....|..|--- .... ....|--- .... ....|C#5 2F.F ....
....|..|--- .... ....|--- .... ....|--- .... ....

[Pattern18]
....|..|G#4 2F3F ....|--- .... ....|D#5 2F.F ....
....|..|D#4 2F9F ....|--- .... ....|--- .... ....
....|..|--- .... ....|--- .... ....|C#5 2F.7 ....
....|..|R-- .... ....|--- .... ....|--- .... ....
....|..|--- .... ....|--- .... ....|D#5 2F.F ....
....|..|--- .... ....|--- .... ....|--- .... ....
....|..|G#4 2F3A ....|--- .... ....|D#5 2F.F ....
....|..|D#4 2F9A ....|--- .... ....|--- .... ....
....|..|--- .... ....|--- .... ....|D#5 2F.F ....
....|..|R-- .... ....|--- .... ....|--- .... ....
....|..|--- .... ....|--- .... ....|D#5 2F.F ....
....|..|--- .... ....|--- .... ....|--- .... ....
....|..|G#4 2F37 ....|--- .... ....|D#5 2F.F ....
....|..|D#4 2F97 ....|--- .... ....|--- .... ....
....|..|--- .... ....|--- .... ....|D#5 2F.F ....
....|..|--- .... ....|--- .... ....|--- .... ....
....|..|--- .... ....|--- .... ....|D#5 2F.F ....
....|..|--- .... ....|--- .... ....|--- .... ....
....|..|--- .... ....|--- .... ....|D#5 2F.F ....
....|..|--- .... ....|--- .... ....|--- .... ....
....|..|--- .... ....|--- .... ....|D#5 2F.F ....
....|..|--- .... ....|--- .... ....|--- .... ....
....|..|--- .... ....|--- .... ....|D#5 2F.F ....
....|..|--- .... ....|--- .... ....|--- .... ....
....|..|--- .... ....|--- .... ....|D#5 2F.F ....
....|..|--- .... ....|--- .... ....|--- .... ....
....|..|--- .... ....|--- .... ....|D#5 2F.F ....
....|..|--- .... ....|--- .... ....|--- .... ....
....|..|--- .... ....|--- .... ....|D#5 2F.F ....
....|..|R-- .... ....|--- .... ....|--- .... ....
....|..|--- .... ....|--- .... ....|D#5 2F.F ....
....|..|--- .... ....|--- .... ....|--- .... ....
....|..|A#4 2F2F ....|F-5 2F.F ....|C#5 2F.F ....
....|..|F#4 2F1F ....|F#5 2F.F ....|--- .... ....
....|..|--- .... ....|--- .... ....|D#5 2F.7 ....
....|..|R-- .... ....|--- .... ....|--- .... ....
....|..|--- .... ....|--- .... ....|C#5 2F.F ....
....|..|--- .... ....|--- .... ....|--- .... ....
....|..|A#4 2F2A ....|F-5 2F.A ....|C#5 2F.F ....
....|..|F#4 2F1A ....|F#5 2F.A ....|--- .... ....
....|..|--- .... ....|--- .... ....|C#5 2F.F ....
....|..|R-- .... ....|R-- .... ....|--- .... ....
....|..|--- .... ....|--- .... ....|C#5 2F.F ....
....|..|--- .... ....|--- .... ....|--- .... ....
....|..|A#4 2F27 ....|F-6 2F.F ....|C#5 2F.F ....
....|..|F#4 2F17 ....|F#6 2F.F ....|--- .... ....
....|..|--- .... ....|R-- .... ....|C#5 2F.F ....
....|..|--- .... ....|R-- .... ....|--- .... ....
....|..|--- .... ....|F-6 2F.F ....|C#5 2F.F ....
....|..|--- .... ....|--- .... ....|--- .... ....
....|..|--- .... ....|F-6 2F.A ....|C#5 2F.F ....
....|..|--- .... ....|F#6 2F.A ....|--- .... ....
....|..|--- .... ....|R-- .... ....|C#5 2F.F ....
....|..|--- .... ....|R-- .... ....|--- .... ....
....|..|--- .... ....|C#6 2F.F ....|C#5 2F.F ....
....|..|--- .... ....|--- .... ....|--- .... ....
....|..|--- .... ....|F-6 2F.7 ....|C#5 2F.F ....
....|..|--- .... ....|F#6 2F.7 ....|--- .... ....
....|..|--- .... ....|R-- .... ....|C#5 2F.F ....
....|..|--- .... ....|C-6 2F.F ....|--- .... ....
....|..|--- .... ....|B-5 2F.F ....|C#5 2F.F ....
....|..|R-- .... ....|A#5 2F.F ....|--- .... ....
....|..|--- .... ....|R-- .... ....|C#5 2F.F ....
....|..|--- .... ....|--- .... ....|--- .... ....

[Pattern19]
....|..|D#4 2F3F ....|D#6 2F.F ....|D#5 2F.F ....
....|..|C-4 2F4F ....|C-6 2F.A ....|--- .... ....
....|..|--- .... ....|C#6 2F.7 ....|C#5 2F.7 ....
....|..|R-- .... ....|A#5 2F.A ....|--- .... ....
....|..|--- .... ....|R-- .... ....|D#5 2F.F ....
....|..|--- .... ....|--- .... ....|--- .... ....
....|..|D#4 2F3A ....|D#6 2F.A ....|D#5 2F.F ....
....|..|C-4 2F4A ....|C-6 2F.7 ....|--- .... ....
....|..|--- .... ....|B-5 2F.7 ....|D#5 2F.F ....
....|..|R-- .... ....|A#5 2F.7 ....|--- .... ....
....|..|--- .... ....|R-- .... ....|D#5 2F.F ....
....|..|--- .... ....|--- .... ....|--- .... ....
....|..|D#4 2F37 ....|D#6 2F.7 ....|D#5 2F.F ....
....|..|C-4 2F47 ....|--- .... ....|--- .... ....
....|..|--- .... ....|--- .... ....|D#5 2F.F ....
....|..|--- .... ....|R-- .... ....|--- .... ....
....|..|--- .... ....|G#5 2F.F ....|D#5 2F.F ....
....|..|--- .... ....|--- .... ....|--- .... ....
....|..|--- .... ....|--- .... ....|D#5 2F.F ....
....|..|--- .... ....|--- .... ....|--- .... ....
....|..|--- .... ....|--- .... ....|D#5 2F.F ....
....|..|--- .... ....|R-- .... ....|--- .... ....
....|..|--- .... ....|G#5 2F.A ....|D#5 2F.F ....
....|..|--- .... ....|--- .... ....|--- .... ....
....|..|--- .... ....|--- .... ....|D#5 2F.F ....
....|..|--- .... ....|--- .... ....|--- .... ....
....|..|--- .... ....|--- .... ....|D#5 2F.F ....
....|..|--- .... ....|R-- .... ....|--- .... ....
....|..|--- .... ....|F#5 2F.F ....|D#5 2F.F ....
....|..|R-- .... ....|F-5 2F.F ....|--- .... ....
....|..|--- .... ....|B-4 2F.F ....|D#5 2F.F ....
....|..|--- .... ....|R-- .... ....|--- .... ....
....|..|F-4 2F2F ....|G-5 2F.F ....|C-5 2F.F ....
....|..|C-4 2F5F ....|G#5 2F.F ....|--- .... ....
....|..|--- .... ....|F#5 2F.A ....|D#5 2F.7 ....
....|..|R-- .... ....|F-5 2F.A ....|--- .... ....
....|..|--- .... ....|B-4 2F.A ....|C-5 2F.F ....
....|..|--- .... ....|R-- .... ....|--- .... ....
....|..|F-4 2F2A ....|G-5 2F.A ....|C-5 2F.F ....
....|..|C-4 2F5A ....|G#5 2F.A ....|--- .... ....
....|..|--- .... ....|F#5 2F.7 ....|C-5 2F.F ....
....|..|R-- .... ....|F-5 2F.7 ....|--- .... ....
....|..|--- .... ....|B-4 2F.7 ....|C-5 2F.F ....
....|..|--- .... ....|R-- .... ....|--- .... ....
....|..|F-4 2F27 ....|A#5 2F.F ....|C-5 2F.F ....
....|..|C-4 2F57 ....|G#5 2F.7 ....|--- .... ....
....|..|C-4 2F3F ....|--- .... ....|C-5 2F.F ....
....|..|R-- .... ....|--- .... ....|--- .... ....
....|..|C#4 2F6F ....|C#6 2F.F ....|A#4 2F.F ....
....|..|C#4 2F7F ....|R-- .... ....|--- .... ....
....|..|--- .... ....|A#5 2F.A ....|A#4 2F.F ....
....|..|--- .... ....|R-- .... ....|--- .... ....
....|..|C-4 2F3A ....|G#5 2F.F ....|A#4 2F.F ....
....|..|R-- .... ....|R-- .... ....|--- .... ....
....|..|C#4 2F6A ....|C#6 2F.A ....|A#4 2F.F ....
....|..|C#4 2F7A ....|R-- .... ....|--- .... ....
....|..|--- .... ....|F-5 2F.F ....|A#4 2F.F ....
....|..|--- .... ....|R-- .... ....|--- .... ....
....|..|C-4 2F37 ....|G#5 2F.A ....|A#4 2F.F ....
....|..|R-- .... ....|R-- .... ....|--- .... ....
....|..|C#4 2F67 ....|G#5 2F.F ....|A#4 2F.F ....
....|..|C#4 2F77 ....|R-- .... ....|--- .... ....
....|..|F-4 2F3F ....|F-5 2F.A ....|A#4 2F.F ....
....|..|R-- .... ....|G-5 2F.F ....|--- .... ....

[Pattern20]
....|..|F#4 2F6F ....|F#5 2F.F ....|A#4 2F.F ....
....|..|D#4 2F8F ....|R-- .... ....|--- .... ....
....|..|--- .... ....|G#5 2F.A ....|A#4 2F.7 ....
....|..|--- .... ....|--- .... ....|--- .... ....
....|..|F-4 2F3A ....|F-5 2F.7 ....|A#4 2F.F ....
....|..|R-- .... ....|G-5 2F.A ....|--- .... ....
....|..|F#4 2F6A ....|F#5 2F.A ....|A#4 2F.F ....
....|..|D#4 2F8A ....|--- .... ....|--- .... ....
....|..|--- .... ....|G#5 2F.7 ....|A#4 2F.F ....
....|..|--- .... ....|--- .... ....|--- .... ....
....|..|F-4 2F37 ....|--- .... ....|A#4 2F.F ....
....|..|R-- .... ....|G-5 2F.7 ....|--- .... ....
....|..|F#4 2F67 ....|F#5 2F.7 ....|A#4 2F.F ....
....|..|D#4 2F87 ....|--- .... ....|--- .... ....
....|..|--- .... ....|--- .... ....|A#4 2F.F ....
....|..|--- .... ....|--- .... ....|--- .... ....
....|..|F#4 2F6F ....|--- .... ....|A#4 2F.F ....
....|..|--- .... ....|--- .... ....|--- .... ....
....|..|--- .... ....|--- .... ....|A#4 2F.F ....
....|..|--- .... ....|--- .... ....|--- .... ....
....|..|--- .... ....|R-- .... ....|A#4 2F.F ....
....|..|--- .... ....|--- .... ....|--- .... ....
....|..|F#4 2F6A ....|--- .... ....|A#4 2F.F ....
....|..|--- .... ....|--- .... ....|--- .... ....
....|..|F#4 2F7F ....|--- .... ....|A#4 2F.F ....
....|..|--- .... ....|--- .... ....|--- .... ....
....|..|--- .... ....|R-- .... ....|A#4 2F.F ....
....|..|--- .... ....|--- .... ....|--- .... ....
....|..|F#4 2F67 ....|--- .... ....|A#4 2F.F ....
....|..|D#5 2F.F ....|--- .... ....|--- .... ....
....|..|F#4 2F7A ....|--- .... ....|A#4 2F.F ....
....|..|--- .... ....|--- .... ....|--- .... ....
....|..|D#4 2F2F ....|D#5 2F.F ....|B-4 2F.F ....
....|..|D#4 2F2F ....|--- .... ....|--- .... ....
....|..|--- .... ....|--- .... ....|A#4 2F.7 ....
....|..|D#5 2F.A ....|--- .... ....|--- .... ....
....|..|F#4 2F77 ....|--- .... ....|B-4 2F.F ....
....|..|--- .... ....|--- .... ....|--- .... ....
....|..|D#4 2F2A ....|D#5 2F.A ....|B-4 2F.F ....
....|..|D#4 2F2A ....|--- .... ....|--- .... ....
....|..|--- .... ....|--- .... ....|B-4 2F.F ....
....|..|D#5 2F.7 ....|--- .... ....|--- .... ....
....|..|--- .... ....|R-- .... ....|B-4 2F.F ....
....|..|--- .... ....|--- .... ....|--- .... ....
....|..|D#4 2F27 ....|F#5 2F.F ....|B-4 2F.F ....
....|..|D#4 2F27 ....|--- .... ....|--- .... ....
....|..|--- .... ....|R-- .... ....|B-4 2F.F ....
....|..|--- .... ....|--- .... ....|--- .... ....
....|..|--- .... ....|D#6 2F.F ....|B-4 2F.F ....
....|..|--- .... ....|--- .... ....|--- .... ....
....|..|--- .... ....|F#5 2F.A ....|B-4 2F.F ....
....|..|--- .... ....|R-- .... ....|--- .... ....
....|..|--- .... ....|C#6 2F.F ....|B-4 2F.F ....
....|..|--- .... ....|--- .... ....|--- .... ....
....|..|--- .... ....|D#6 2F.A ....|B-4 2F.F ....
....|..|--- .... ....|R-- .... ....|--- .... ....
....|..|B-3 2F1F ....|A#5 2F.F ....|B-4 2F.F ....
....|..|--- .... ....|R-- .... ....|--- .... ....
....|..|--- .... ....|G#5 2F.F ....|B-4 2F.F ....
....|..|--- .... ....|--- .... ....|--- .... ....
....|..|--- .... ....|D#6 2F.7 ....|B-4 2F.F ....
....|..|R-- .... ....|R-- .... ....|--- .... ....
....|..|B-3 2F1A ....|F#5 2F.F ....|B-4 2F.F ....
....|..|--- .... ....|R-- .... ....|--- .... ....

[Pattern21]
....|..|D#4 2F3F ....|G#5 2F.F ....|B-4 2F.F ....
....|..|B-3 2F7F ....|--- .... ....|--- .... ....
....|..|--- .... ....|--- .... ....|B-4 2F.7 ....
....|..|R-- .... ....|R-- .... ....|--- .... ....
....|..|B-3 2F17 ....|A#5 2F.7 ....|B-4 2F.F ....
....|..|--- .... ....|R-- .... ....|--- .... ....
....|..|D#4 2F3A ....|G#5 2F.7 ....|B-4 2F.F ....
....|..|B-3 2F7A ....|--- .... ....|--- .... ....
....|..|--- .... ....|--- .... ....|B-4 2F.F ....
....|..|R-- .... ....|--- .... ....|--- .... ....
....|..|--- .... ....|F#5 2F.7 ....|B-4 2F.F ....
....|..|--- .... ....|R-- .... ....|--- .... ....
....|..|D#4 2F37 ....|G#5 2F.7 ....|B-4 2F.F ....
....|..|B-3 2F77 ....|--- .... ....|--- .... ....
....|..|--- .... ....|--- .... ....|B-4 2F.F ....
....|..|--- .... ....|--- .... ....|--- .... ....
....|..|--- .... ....|--- .... ....|B-4 2F.F ....
....|..|--- .... ....|--- .... ....|--- .... ....
....|..|--- .... ....|--- .... ....|B-4 2F.F ....
....|..|--- .... ....|R-- .... ....|--- .... ....
....|..|--- .... ....|--- .... ....|B-4 2F.F ....
....|..|--- .... ....|--- .... ....|--- .... ....
....|..|--- .... ....|--- .... ....|B-4 2F.F ....
....|..|--- .... ....|--- .... ....|--- .... ....
....|..|--- .... ....|G#5 2F.F ....|B-4 2F.F ....
....|..|--- .... ....|R-- .... ....|--- .... ....
....|..|--- .... ....|A#5 2F.F ....|B-4 2F.F ....
....|..|--- .... ....|--- .... ....|--- .... ....
....|..|--- .... ....|--- .... ....|B-4 2F.F ....
....|..|R-- .... ....|--- .... ....|--- .... ....
....|..|--- .... ....|G#5 2F.A ....|B-4 2F.F ....
....|..|--- .... ....|R-- .... ....|--- .... ....
....|..|F-4 2F2F ....|C#6 2F.F ....|D#5 2F.F ....
....|..|C#4 2F1F ....|--- .... ....|--- .... ....
....|..|--- .... ....|--- .... ....|B-4 2F.7 ....
....|..|R-- .... ....|--- .... ....|--- .... ....
....|..|--- .... ....|G#5 2F.7 ....|D#5 2F.F ....
....|..|--- .... ....|R-- .... ....|--- .... ....
....|..|F-4 2F2A ....|A#5 2F.7 ....|D#5 2F.F ....
....|..|C#4 2F1A ....|--- .... ....|--- .... ....
....|..|--- .... ....|--- .... ....|D#5 2F.F ....
....|..|R-- .... ....|--- .... ....|--- .... ....
....|..|--- .... ....|--- .... ....|D#5 2F.F ....
....|..|--- .... ....|--- .... ....|--- .... ....
....|..|F-4 2F27 ....|C#6 2F.7 ....|D#5 2F.F ....
....|..|C#4 2F17 ....|--- .... ....|--- .... ....
....|..|--- .... ....|--- .... ....|D#5 2F.F ....
....|..|--- .... ....|--- .... ....|--- .... ....
....|..|--- .... ....|R-- .... ....|D#5 2F.F ....
....|..|--- .... ....|--- .... ....|--- .... ....
....|..|--- .... ....|--- .... ....|D#5 2F.F ....
....|..|--- .... ....|--- .... ....|--- .... ....
....|..|--- .... ....|D-6 2F.F ....|D#5 2F.F ....
....|..|--- .... ....|D#6 2F.F ....|--- .... ....
....|..|--- .... ....|R-- .... ....|D#5 2F.F ....
....|..|--- .... ....|--- .... ....|--- .... ....
....|..|--- .... ....|F#6 2F.F ....|D#5 2F.F ....
....|..|--- .... ....|--- .... ....|--- .... ....
....|..|--- .... ....|D-6 2F.A ....|D#5 2F.F ....
....|..|--- .... ....|D#6 2F.A ....|--- .... ....
....|..|--- .... ....|D#6 2F.F ....|D#5 2F.F ....
....|..|R-- .... ....|--- .... ....|--- .... ....
....|..|--- .... ....|F#6 2F.A ....|D#5 2F.F ....
....|..|--- .... ....|--- .... ....|--- .... ....

[Pattern22]
....|..|G#4 2F.F ....|C#6 2F.F ....|C#5 2F.F ....
....|..|--- .... ....|D#6 2F.7 ....|--- .... ....
....|..|--- .... ....|D#6 2F.A ....|D#5 2F.7 ....
....|..|R-- .... ....|--- .... ....|--- .... ....
....|..|G#4 2F2F ....|F#6 2F.7 ....|C#5 2F.F ....
....|..|--- .... ....|--- .... ....|--- .... ....
....|..|G#4 2F.A ....|C#6 2F.A ....|C#5 2F.F ....
....|..|--- .... ....|--- .... ....|--- .... ....
....|..|G#4 2F8F ....|D#6 2F.7 ....|C#5 2F.F ....
....|..|R-- .... ....|--- .... ....|--- .... ....
....|..|G#4 2F2A ....|R-- .... ....|C#5 2F.F ....
....|..|--- .... ....|--- .... ....|--- .... ....
....|..|B-4 2F1F ....|C#6 2F.7 ....|C#5 2F.F ....
....|..|--- .... ....|C-6 2F.F ....|--- .... ....
....|..|G#4 2F8A ....|A#5 2F.F ....|C#5 2F.F ....
....|..|--- .... ....|F#5 2F.F ....|--- .... ....
....|..|B-4 2F7F ....|D#5 2F.F ....|C#5 2F.F ....
....|..|--- .... ....|C-5 2F.F ....|--- .... ....
....|..|B-4 2F1A ....|G#4 2F.F ....|C#5 2F.F ....
....|..|--- .... ....|F-4 2F.F ....|--- .... ....
....|..|B-4 2F6F ....|C#4 2F.F ....|C#5 2F.F ....
....|..|--- .... ....|F#5 2F.A ....|--- .... ....
....|..|B-4 2F7A ....|D#5 2F.A ....|C#5 2F.F ....
....|..|--- .... ....|C-5 2F.A ....|--- .... ....
....|..|B-4 2F6F ....|G#4 2F.A ....|C#5 2F.F ....
....|..|--- .... ....|C-6 2F.7 ....|--- .... ....
....|..|B-4 2F6A ....|A#5 2F.7 ....|C#5 2F.F ....
....|..|--- .... ....|F#5 2F.7 ....|--- .... ....
....|..|G#4 2F2F ....|D#5 2F.7 ....|C#5 2F.F ....
....|..|--- .... ....|C-5 2F.7 ....|--- .... ....
....|..|D#6 2F.F ....|G#4 2F.7 ....|C#5 2F.F ....
....|..|D#6 2F.F ....|F-4 2F.7 ....|--- .... ....
....|..|C#4 2FAF ....|F#5 2F.F ....|C#5 2F.F ....
....|..|--- .... ....|--- .... ....|--- .... ....
....|..|G#4 2F2A ....|--- .... ....|C#5 2F.7 ....
....|..|--- .... ....|--- .... ....|--- .... ....
....|..|B-4 2F67 ....|--- .... ....|C#5 2F.F ....
....|..|D#6 2F.A ....|--- .... ....|--- .... ....
....|..|C#4 2FAA ....|F#5 2F.A ....|C#5 2F.F ....
....|..|--- .... ....|--- .... ....|--- .... ....
....|..|G#4 2F27 ....|--- .... ....|C#5 2F.F ....
....|..|--- .... ....|R-- .... ....|--- .... ....
....|..|D#6 2F.7 ....|--- .... ....|C#5 2F.F ....
....|..|D#6 2F.7 ....|--- .... ....|--- .... ....
....|..|C#4 2FA7 ....|F-6 2F.F ....|C#5 2F.F ....
....|..|--- .... ....|F#6 2F.F ....|--- .... ....
....|..|--- .... ....|--- .... ....|C#5 2F.F ....
....|..|--- .... ....|R-- .... ....|--- .... ....
....|..|--- .... ....|F-6 2F.F ....|C#5 2F.F ....
....|..|--- .... ....|--- .... ....|--- .... ....
....|..|--- .... ....|F-6 2F.A ....|C#5 2F.F ....
....|..|--- .... ....|F#6 2F.A ....|--- .... ....
....|..|--- .... ....|R-- .... ....|C#5 2F.F ....
....|..|--- .... ....|R-- .... ....|--- .... ....
....|..|--- .... ....|C#6 2F.F ....|C#5 2F.F ....
....|..|--- .... ....|--- .... ....|--- .... ....
....|..|--- .... ....|F-6 2F.7 ....|C#5 2F.F ....
....|..|--- .... ....|F#6 2F.7 ....|--- .... ....
....|..|--- .... ....|R-- .... ....|C#5 2F.F ....
....|..|--- .... ....|R-- .... ....|--- .... ....
....|..|--- .... ....|C-6 2F.F ....|C#5 2F.F ....
....|..|R-- .... ....|--- .... ....|--- .... ....
....|..|--- .... ....|R-- .... ....|C#5 2F.F ....
....|..|--- .... ....|--- .... ....|--- .... ....

[Pattern23]
....|..|D#4 2F3F ....|D#6 2F.F ....|D#5 2F.F ....
....|..|D#4 2FAF ....|--- .... ....|--- .... ....
....|..|--- .... ....|C#6 2F.7 ....|C#5 2F.7 ....
....|..|R-- .... ....|--- .... ....|--- .... ....
....|..|--- .... ....|R-- .... ....|D#5 2F.F ....
....|..|--- .... ....|--- .... ....|--- .... ....
....|..|D#4 2F3A ....|D#6 2F.A ....|D#5 2F.F ....
....|..|D#4 2FAA ....|--- .... ....|--- .... ....
....|..|--- .... ....|C-6 2F.7 ....|D#5 2F.F ....
....|..|R-- .... ....|--- .... ....|--- .... ....
....|..|--- .... ....|R-- .... ....|D#5 2F.F ....
....|..|--- .... ....|--- .... ....|--- .... ....
....|..|D#4 2F37 ....|D#6 2F.7 ....|D#5 2F.F ....
....|..|D#4 2FA7 ....|--- .... ....|--- .... ....
....|..|--- .... ....|--- .... ....|D#5 2F.F ....
....|..|C-6 2F.F ....|R-- .... ....|--- .... ....
....|..|D#4 2FAF ....|G#5 2F.F ....|D#5 2F.F ....
....|..|--- .... ....|--- .... ....|--- .... ....
....|..|--- .... ....|--- .... ....|D#5 2F.F ....
....|..|--- .... ....|--- .... ....|--- .... ....
....|..|--- .... ....|--- .... ....|D#5 2F.F ....
....|..|C-6 2F.A ....|R-- .... ....|--- .... ....
....|..|D#4 2FAA ....|G#5 2F.A ....|D#5 2F.F ....
....|..|--- .... ....|--- .... ....|--- .... ....
....|..|--- .... ....|--- .... ....|D#5 2F.F ....
....|..|--- .... ....|--- .... ....|--- .... ....
....|..|--- .... ....|--- .... ....|D#5 2F.F ....
....|..|C-6 2F.7 ....|R-- .... ....|--- .... ....
....|..|D#4 2FA7 ....|G#5 2F.7 ....|D#5 2F.F ....
....|..|G#5 2F.F ....|--- .... ....|--- .... ....
....|..|--- .... ....|--- .... ....|D#5 2F.F ....
....|..|R-- .... ....|R-- .... ....|--- .... ....
....|..|C-4 2F3F ....|G-5 2F.F ....|C-5 2F.F ....
....|..|C-4 2F5F ....|G#5 2F.F ....|--- .... ....
....|..|--- .... ....|--- .... ....|D#5 2F.7 ....
....|..|G#5 2F.A ....|--- .... ....|--- .... ....
....|..|--- .... ....|--- .... ....|C-5 2F.F ....
....|..|R-- .... ....|R-- .... ....|--- .... ....
....|..|C-4 2F3A ....|G-5 2F.A ....|C-5 2F.F ....
....|..|C-4 2F5A ....|G#5 2F.A ....|--- .... ....
....|..|--- .... ....|--- .... ....|C-5 2F.F ....
....|..|G#5 2F.7 ....|--- .... ....|--- .... ....
....|..|--- .... ....|--- .... ....|C-5 2F.F ....
....|..|R-- .... ....|R-- .... ....|--- .... ....
....|..|C-4 2F37 ....|A#5 2F.F ....|C-5 2F.F ....
....|..|C-4 2F57 ....|G#5 2F.7 ....|--- .... ....
....|..|F-4 2F2F ....|R-- .... ....|C-5 2F.F ....
....|..|R-- .... ....|--- .... ....|--- .... ....
....|..|G#4 2F3F ....|C#6 2F.F ....|A#4 2F.F ....
....|..|G#4 2FAF ....|R-- .... ....|--- .... ....
....|..|--- .... ....|G#5 2F.F ....|A#4 2F.F ....
....|..|--- .... ....|--- .... ....|--- .... ....
....|..|F-4 2F2A ....|R-- .... ....|A#4 2F.F ....
....|..|R-- .... ....|R-- .... ....|--- .... ....
....|..|G#4 2F3A ....|F-5 2F.F ....|A#4 2F.F ....
....|..|G#4 2FAA ....|R-- .... ....|--- .... ....
....|..|--- .... ....|A#5 2F.7 ....|A#4 2F.F ....
....|..|--- .... ....|R-- .... ....|--- .... ....
....|..|F-4 2F27 ....|G#5 2F.F ....|A#4 2F.F ....
....|..|R-- .... ....|R-- .... ....|--- .... ....
....|..|G#4 2F37 ....|C#6 2F.7 ....|A#4 2F.F ....
....|..|G#4 2FA7 ....|R-- .... ....|--- .... ....
....|..|C#4 2F6F ....|G#5 2F.7 ....|A#4 2F.F ....
....|..|R-- .... ....|G-5 2F.F ....|--- .... ....

[Pattern24]
....|..|A#4 2F3F ....|F#5 2F.F ....|A#4 2F.F ....
....|..|A#4 2F5F ....|R-- .... ....|--- .... ....
....|..|--- .... ....|F-5 2F.7 ....|A#4 2F.7 ....
....|..|--- .... ....|--- .... ....|--- .... ....
....|..|C#4 2F6A ....|--- .... ....|A#4 2F.F ....
....|..|R-- .... ....|G-5 2F.A ....|--- .... ....
....|..|A#4 2F3A ....|G#5 2F.7 ....|A#4 2F.F ....
....|..|A#4 2F5A ....|--- .... ....|--- .... ....
....|..|--- .... ....|--- .... ....|A#4 2F.F ....
....|..|--- .... ....|--- .... ....|--- .... ....
....|..|C#4 2F67 ....|--- .... ....|A#4 2F.F ....
....|..|R-- .... ....|G-5 2F.7 ....|--- .... ....
....|..|A#4 2F37 ....|F#5 2F.7 ....|A#4 2F.F ....
....|..|A#4 2F57 ....|--- .... ....|--- .... ....
....|..|--- .... ....|--- .... ....|A#4 2F.F ....
....|..|--- .... ....|--- .... ....|--- .... ....
....|..|A#4 2F3F ....|--- .... ....|A#4 2F.F ....
....|..|--- .... ....|--- .... ....|--- .... ....
....|..|--- .... ....|--- .... ....|A#4 2F.F ....
....|..|--- .... ....|--- .... ....|--- .... ....
....|..|A#4 2FBF ....|--- .... ....|A#4 2F.F ....
....|..|--- .... ....|--- .... ....|--- .... ....
....|..|A#4 2F3A ....|R-- .... ....|A#4 2F.F ....
....|..|--- .... ....|--- .... ....|--- .... ....
....|..|A#4 2F5F ....|--- .... ....|A#4 2F.F ....
....|..|--- .... ....|--- .... ....|--- .... ....
....|..|A#4 2FBA ....|--- .... ....|A#4 2F.F ....
....|..|F#5 2F.F ....|--- .... ....|--- .... ....
....|..|A#4 2F3F ....|R-- .... ....|A#4 2F.F ....
....|..|--- .... ....|--- .... ....|--- .... ....
....|..|A#4 2F5A ....|--- .... ....|A#4 2F.F ....
....|..|--- .... ....|--- .... ....|--- .... ....
....|..|B-4 2F6F ....|D#5 2F.F ....|B-4 2F.F ....
....|..|B-4 2F1F ....|--- .... ....|--- .... ....
....|..|A#4 2F3A ....|R-- .... ....|A#4 2F.7 ....
....|..|--- .... ....|--- .... ....|--- .... ....
....|..|A#4 2F57 ....|--- .... ....|B-4 2F.F ....
....|..|--- .... ....|--- .... ....|--- .... ....
....|..|B-4 2F6A ....|D#5 2F.A ....|B-4 2F.F ....
....|..|F#5 2F.7 ....|--- .... ....|--- .... ....
....|..|A#4 2F37 ....|--- .... ....|B-4 2F.F ....
....|..|--- .... ....|--- .... ....|--- .... ....
....|..|--- .... ....|R-- .... ....|B-4 2F.F ....
....|..|--- .... ....|--- .... ....|--- .... ....
....|..|B-4 2F67 ....|F#5 2F.F ....|B-4 2F.F ....
....|..|B-4 2F17 ....|--- .... ....|--- .... ....
....|..|--- .... ....|--- .... ....|B-4 2F.F ....
....|..|--- .... ....|R-- .... ....|--- .... ....
....|..|B-4 2F1F ....|D#6 2F.F ....|B-4 2F.F ....
....|..|--- .... ....|--- .... ....|--- .... ....
....|..|--- .... ....|F#5 2F.A ....|B-4 2F.F ....
....|..|--- .... ....|R-- .... ....|--- .... ....
....|..|--- .... ....|C#6 2F.F ....|B-4 2F.F ....
....|..|--- .... ....|R-- .... ....|--- .... ....
....|..|B-4 2F1A ....|D#6 2F.A ....|B-4 2F.F ....
....|..|--- .... ....|R-- .... ....|--- .... ....
....|..|--- .... ....|A#5 2F.F ....|B-4 2F.F ....
....|..|--- .... ....|R-- .... ....|--- .... ....
....|..|--- .... ....|G#5 2F.F ....|B-4 2F.F ....
....|..|--- .... ....|R-- .... ....|--- .... ....
....|..|B-4 2F17 ....|D#6 2F.7 ....|B-4 2F.F ....
....|..|F#4 2F.F ....|R-- .... ....|--- .... ....
....|..|--- .... ....|F#5 2F.F ....|B-4 2F.F ....
....|..|R-- .... ....|R-- .... ....|--- .... ....

[Pattern25]
....|..|D#4 2F3F ....|G#5 2F.F ....|B-4 2F.F ....
....|..|B-3 2F7F ....|--- .... ....|--- .... ....
....|..|--- .... ....|--- .... ....|B-4 2F.7 ....
....|..|F#4 2F.A ....|R-- .... ....|--- .... ....
....|..|--- .... ....|A#5 2F.7 ....|B-4 2F.F ....
....|..|R-- .... ....|R-- .... ....|--- .... ....
....|..|D#4 2F3A ....|G#5 2F.7 ....|B-4 2F.F ....
....|..|B-3 2F7A ....|--- .... ....|--- .... ....
....|..|--- .... ....|--- .... ....|B-4 2F.F ....
....|..|F#4 2F.7 ....|--- .... ....|--- .... ....
....|..|--- .... ....|F#5 2F.7 ....|B-4 2F.F ....
....|..|R-- .... ....|R-- .... ....|--- .... ....
....|..|D#4 2F37 ....|G#5 2F.7 ....|B-4 2F.F ....
....|..|B-3 2F77 ....|--- .... ....|--- .... ....
....|..|--- .... ....|--- .... ....|B-4 2F.F ....
....|..|B-3 2F6F ....|--- .... ....|--- .... ....
....|..|B-3 2F7F ....|--- .... ....|B-4 2F.F ....
....|..|--- .... ....|--- .... ....|--- .... ....
....|..|--- .... ....|--- .... ....|B-4 2F.F ....
....|..|--- .... ....|R-- .... ....|--- .... ....
....|..|B-3 2F1F ....|--- .... ....|B-4 2F.F ....
....|..|B-3 2F6A ....|--- .... ....|--- .... ....
....|..|B-3 2F7A ....|--- .... ....|B-4 2F.F ....
....|..|--- .... ....|--- .... ....|--- .... ....
....|..|B-3 2F6F ....|G#5 2F.F ....|B-4 2F.F ....
....|..|--- .... ....|R-- .... ....|--- .... ....
....|..|B-3 2F1A ....|A#5 2F.F ....|B-4 2F.F ....
....|..|B-3 2F67 ....|--- .... ....|--- .... ....
....|..|F#4 2F.F ....|--- .... ....|B-4 2F.F ....
....|..|--- .... ....|--- .... ....|--- .... ....
....|..|B-3 2F6A ....|G#5 2F.A ....|B-4 2F.F ....
....|..|--- .... ....|R-- .... ....|--- .... ....
....|..|F-4 2F2F ....|C#6 2F.F ....|C#5 2F.F ....
....|..|C#4 2F1F ....|--- .... ....|--- .... ....
....|..|F#4 2F.A ....|--- .... ....|B-4 2F.7 ....
....|..|--- .... ....|--- .... ....|--- .... ....
....|..|C#4 2FCF ....|G#5 2F.7 ....|C#5 2F.F ....
....|..|--- .... ....|R-- .... ....|--- .... ....
....|..|F-4 2F2A ....|A#5 2F.7 ....|C#5 2F.F ....
....|..|C#4 2F1A ....|--- .... ....|--- .... ....
....|..|C#4 2F1F ....|--- .... ....|C#5 2F.F ....
....|..|--- .... ....|--- .... ....|--- .... ....
....|..|C#4 2FCA ....|--- .... ....|C#5 2F.F ....
....|..|--- .... ....|--- .... ....|--- .... ....
....|..|C#4 2FBF ....|C#6 2F.7 ....|C#5 2F.F ....
....|..|C#4 2F17 ....|--- .... ....|--- .... ....
....|..|C#4 2F1A ....|--- .... ....|C#5 2F.F ....
....|..|--- .... ....|--- .... ....|--- .... ....
....|..|C#4 2FC7 ....|--- .... ....|C#5 2F.F ....
....|..|--- .... ....|--- .... ....|--- .... ....
....|..|C#4 2FBA ....|R-- .... ....|C#5 2F.F ....
....|..|--- .... ....|--- .... ....|--- .... ....
....|..|C#4 2F17 ....|D#6 2F.F ....|C#5 2F.F ....
....|..|--- .... ....|--- .... ....|--- .... ....
....|..|--- .... ....|--- .... ....|C#5 2F.F ....
....|..|C#4 2F.F ....|--- .... ....|--- .... ....
....|..|G#4 2F.F ....|F#6 2F.F ....|C#5 2F.F ....
....|..|--- .... ....|--- .... ....|--- .... ....
....|..|--- .... ....|D#6 2F.A ....|C#5 2F.F ....
....|..|--- .... ....|--- .... ....|--- .... ....
....|..|--- .... ....|F#6 2F.F ....|C#5 2F.F ....
....|..|C#4 2F.F ....|D#6 2F.F ....|--- .... ....
....|..|G#4 2F.A ....|F#6 2F.A ....|C#5 2F.F ....
....|..|R-- .... ....|R-- .... ....|--- .... ....

[Pattern26]
....|..|F-4 2F3F ....|F#6 2F.F ....|A#4 2F.F ....
....|..|C#4 2F7F ....|--- .... ....|--- .... ....
....|..|--- .... ....|F#6 2F.A ....|C#5 2F.7 ....
....|..|C#4 2F.7 ....|D#6 2F.A ....|--- .... ....
....|..|G#4 2F.7 ....|F#6 2F.7 ....|A#4 2F.F ....
....|..|R-- .... ....|R-- .... ....|--- .... ....
....|..|F-4 2F3A ....|F#6 2F.A ....|A#4 2F.F ....
....|..|C#4 2F7A ....|--- .... ....|--- .... ....
....|..|--- .... ....|F#6 2F.7 ....|A#4 2F.F ....
....|..|C#4 2F.7 ....|D#6 2F.7 ....|--- .... ....
....|..|--- .... ....|--- .... ....|A#4 2F.F ....
....|..|R-- .... ....|R-- .... ....|--- .... ....
....|..|F-4 2F37 ....|F#6 2F.7 ....|A#4 2F.F ....
....|..|C#4 2F77 ....|--- .... ....|--- .... ....
....|..|--- .... ....|--- .... ....|A#4 2F.F ....
....|..|F-4 2F3F ....|R-- .... ....|--- .... ....
....|..|D-4 2F4F ....|G#6 2F.F ....|A#4 2F.F ....
....|..|--- .... ....|--- .... ....|--- .... ....
....|..|--- .... ....|--- .... ....|A#4 2F.F ....
....|..|--- .... ....|--- .... ....|--- .... ....
....|..|--- .... ....|--- .... ....|A#4 2F.F ....
....|..|F-4 2F3A ....|R-- .... ....|--- .... ....
....|..|D-4 2F4A ....|G#6 2F.A ....|A#4 2F.F ....
....|..|--- .... ....|--- .... ....|--- .... ....
....|..|F-4 2F3F ....|--- .... ....|A#4 2F.F ....
....|..|--- .... ....|--- .... ....|--- .... ....
....|..|--- .... ....|--- .... ....|A#4 2F.F ....
....|..|F-4 2F37 ....|R-- .... ....|--- .... ....
....|..|D-4 2F47 ....|G#6 2F.7 ....|A#4 2F.F ....
....|..|--- .... ....|--- .... ....|--- .... ....
....|..|F-4 2F3A ....|--- .... ....|A#4 2F.F ....
....|..|--- .... ....|R-- .... ....|--- .... ....
....|..|A#4 2F3F ....|A#6 2F.F ....|A#3 2F.F ....
....|..|F#4 2F7F ....|--- .... ....|F#4 2F.F ....
....|..|--- .... ....|--- .... ....|A#4 2F.F ....
....|..|--- .... ....|--- .... ....|--- .... ....
....|..|F-4 2F37 ....|D-6 2F.F ....|A#4 2F.7 ....
....|..|--- .... ....|A#5 2F.F ....|--- .... ....
....|..|A#4 2F3A ....|G-5 2F.F ....|A#4 2F.7 ....
....|..|F#4 2F7A ....|D#5 2F.F ....|F#4 2F.A ....
....|..|--- .... ....|F#5 2F.F ....|A#4 2F.7 ....
....|..|--- .... ....|--- .... ....|--- .... ....
....|..|--- .... ....|D-6 2F.A ....|A#4 2F.7 ....
....|..|--- .... ....|A#5 2F.A ....|--- .... ....
....|..|A#4 2F37 ....|F-5 2F.F ....|A#3 2F.7 ....
....|..|F#4 2F77 ....|D#5 2F.A ....|F#4 2F.7 ....
....|..|--- .... ....|F#5 2F.F ....|A#4 2F.7 ....
....|..|--- .... ....|--- .... ....|--- .... ....
....|..|--- .... ....|D-6 2F.7 ....|--- .... ....
....|..|--- .... ....|A#5 2F.7 ....|--- .... ....
....|..|--- .... ....|G-5 2F.7 ....|--- .... ....
....|..|--- .... ....|D#5 2F.7 ....|--- .... ....
....|..|--- .... ....|F-5 2F.F ....|--- .... ....
....|..|--- .... ....|--- .... ....|--- .... ....
....|..|--- .... ....|--- .... ....|--- .... ....
....|..|--- .... ....|R-- .... ....|--- .... ....
....|..|--- .... ....|C#5 2F.F ....|--- .... ....
....|..|--- .... ....|R-- .... ....|--- .... ....
....|..|--- .... ....|F#5 2F.7 ....|--- .... ....
....|..|--- .... ....|R-- .... ....|--- .... ....
....|..|--- .... ....|A#4 2F.F ....|--- .... ....
....|..|R-- .... ....|R-- .... ....|--- .... ....
....|..|--- .... ....|C#5 2F.A ....|A#4 2F.F ....
....|..|--- .... ....|R-- .... ....|R-- .... ....

[Pattern27]
....|..|D#4 2F2F ....|C#5 2F.F ....|D#4 2F.F ....
....|..|D#4 2F4F ....|R-- .... ....|B-4 2F.F ....
....|..|--- .... ....|A#4 2F.A ....|--- .... ....
....|..|R-- .... ....|R-- .... ....|--- .... ....
....|..|--- .... ....|D#5 2F.F ....|A#4 2F.A ....
....|..|--- .... ....|R-- .... ....|R-- .... ....
....|..|D#4 2F2A ....|C#5 2F.A ....|D#4 2F.A ....
....|..|D#4 2F4A ....|R-- .... ....|B-4 2F.A ....
....|..|--- .... ....|A#4 2F.7 ....|--- .... ....
....|..|R-- .... ....|--- .... ....|--- .... ....
....|..|--- .... ....|D#5 2F.A ....|A#4 2F.7 ....
....|..|--- .... ....|R-- .... ....|R-- .... ....
....|..|D#4 2F27 ....|D#5 2F.F ....|D#4 2F.7 ....
....|..|D#4 2F47 ....|R-- .... ....|B-4 2F.7 ....
....|..|--- .... ....|--- .... ....|--- .... ....
....|..|--- .... ....|--- .... ....|--- .... ....
....|..|--- .... ....|D#5 2F.7 ....|--- .... ....
....|..|--- .... ....|R-- .... ....|--- .... ....
....|..|--- .... ....|D#5 2F.A ....|--- .... ....
....|..|--- .... ....|--- .... ....|--- .... ....
....|..|--- .... ....|--- .... ....|--- .... ....
....|..|--- .... ....|--- .... ....|--- .... ....
....|..|--- .... ....|--- .... ....|--- .... ....
....|..|--- .... ....|R-- .... ....|--- .... ....
....|..|--- .... ....|D#5 2F.7 ....|--- .... ....
....|..|--- .... ....|--- .... ....|--- .... ....
....|..|--- .... ....|--- .... ....|--- .... ....
....|..|--- .... ....|--- .... ....|--- .... ....
....|..|--- .... ....|--- .... ....|--- .... ....
....|..|R-- .... ....|R-- .... ....|--- .... ....
....|..|--- .... ....|--- .... ....|B-3 2F.F ....
....|..|--- .... ....|--- .... ....|R-- .... ....
....|..|D#4 2F2F ....|--- .... ....|A#3 2F.F ....
....|..|D#4 2F8F ....|--- .... ....|F#4 2F.F ....
....|..|--- .... ....|--- .... ....|A#4 2F.F ....
....|..|R-- .... ....|R-- .... ....|--- .... ....
....|..|--- .... ....|--- .... ....|B-3 2F.A ....
....|..|--- .... ....|--- .... ....|R-- .... ....
....|..|D#4 2F2A ....|--- .... ....|A#3 2F.A ....
....|..|D#4 2F8A ....|--- .... ....|F#4 2F.A ....
....|..|--- .... ....|F#5 2F.F ....|A#4 2F.A ....
....|..|R-- .... ....|R-- .... ....|--- .... ....
....|..|--- .... ....|--- .... ....|B-3 2F.7 ....
....|..|--- .... ....|--- .... ....|R-- .... ....
....|..|D#4 2F27 ....|F-5 2F.F ....|A#3 2F.7 ....
....|..|D#4 2F87 ....|R-- .... ....|F#4 2F.7 ....
....|..|--- .... ....|F#5 2F.F ....|A#4 2F.7 ....
....|..|--- .... ....|--- .... ....|--- .... ....
....|..|--- .... ....|--- .... ....|--- .... ....
....|..|--- .... ....|--- .... ....|--- .... ....
....|..|--- .... ....|F-5 2F.A ....|--- .... ....
....|..|--- .... ....|R-- .... ....|--- .... ....
....|..|--- .... ....|F-5 2F.F ....|--- .... ....
....|..|--- .... ....|--- .... ....|--- .... ....
....|..|--- .... ....|--- .... ....|--- .... ....
....|..|--- .... ....|R-- .... ....|--- .... ....
....|..|--- .... ....|C#5 2F.F ....|--- .... ....
....|..|--- .... ....|R-- .... ....|--- .... ....
....|..|--- .... ....|F#5 2F.7 ....|--- .... ....
....|..|--- .... ....|R-- .... ....|--- .... ....
....|..|--- .... ....|A#4 2F.F ....|--- .... ....
....|..|R-- .... ....|R-- .... ....|--- .... ....
....|..|--- .... ....|C#5 2F.A ....|A#4 2F.F ....
....|..|--- .... ....|R-- .... ....|R-- .... ....

[Pattern28]
....|..|D#4 2F2F ....|C#5 2F.F ....|D#4 2F.F ....
....|..|D#4 2F4F ....|R-- .... ....|B-4 2F.F ....
....|..|--- .... ....|A#4 2F.A ....|--- .... ....
....|..|R-- .... ....|R-- .... ....|--- .... ....
....|..|--- .... ....|D#5 2F.F ....|A#4 2F.A ....
....|..|--- .... ....|R-- .... ....|R-- .... ....
....|..|D#4 2F2A ....|C#5 2F.A ....|D#4 2F.A ....
....|..|D#4 2F4A ....|R-- .... ....|B-4 2F.A ....
....|..|--- .... ....|A#4 2F.7 ....|--- .... ....
....|..|R-- .... ....|--- .... ....|--- .... ....
....|..|--- .... ....|D#5 2F.A ....|A#4 2F.7 ....
....|..|--- .... ....|R-- .... ....|R-- .... ....
....|..|D#4 2F27 ....|D#5 2F.F ....|D#4 2F.7 ....
....|..|D#4 2F47 ....|R-- .... ....|B-4 2F.7 ....
....|..|--- .... ....|--- .... ....|--- .... ....
....|..|--- .... ....|--- .... ....|--- .... ....
....|..|--- .... ....|D#5 2F.7 ....|--- .... ....
....|..|--- .... ....|R-- .... ....|--- .... ....
....|..|--- .... ....|D#5 2F.A ....|--- .... ....
....|..|--- .... ....|--- .... ....|--- .... ....
....|..|--- .... ....|--- .... ....|--- .... ....
....|..|--- .... ....|--- .... ....|--- .... ....
....|..|--- .... ....|--- .... ....|--- .... ....
....|..|--- .... ....|R-- .... ....|--- .... ....
....|..|--- .... ....|D#5 2F.7 ....|--- .... ....
....|..|--- .... ....|--- .... ....|--- .... ....
....|..|--- .... ....|--- .... ....|--- .... ....
....|..|--- .... ....|--- .... ....|--- .... ....
....|..|--- .... ....|--- .... ....|--- .... ....
....|..|R-- .... ....|R-- .... ....|--- .... ....
....|..|--- .... ....|--- .... ....|B-3 2F.F ....
....|..|--- .... ....|--- .... ....|R-- .... ....
....|..|F#4 2F3F ....|--- .... ....|D#5 2F.F ....
....|..|D#4 2F4F ....|--- .... ....|--- .... ....
....|..|--- .... ....|--- .... ....|--- .... ....
....|..|R-- .... ....|R-- .... ....|--- .... ....
....|..|--- .... ....|--- .... ....|D#5 2F.F ....
....|..|--- .... ....|--- .... ....|R-- .... ....
....|..|F#4 2F3A ....|--- .... ....|D#5 2F.F ....
....|..|D#4 2F4A ....|--- .... ....|--- .... ....
....|..|--- .... ....|D#5 2F.F ....|D#5 2F.F ....
....|..|R-- .... ....|R-- .... ....|--- .... ....
....|..|--- .... ....|--- .... ....|D#5 2F.F ....
....|..|--- .... ....|R-- .... ....|R-- .... ....
....|..|F#4 2F37 ....|F-5 2F.F ....|D#5 2F.F ....
....|..|D#4 2F47 ....|--- .... ....|--- .... ....
....|..|--- .... ....|D#5 2F.A ....|D#5 2F.F ....
....|..|--- .... ....|R-- .... ....|--- .... ....
....|..|--- .... ....|F#5 2F.F ....|D#5 2F.F ....
....|..|--- .... ....|R-- .... ....|--- .... ....
....|..|--- .... ....|F-5 2F.A ....|D#5 2F.F ....
....|..|--- .... ....|--- .... ....|--- .... ....
....|..|--- .... ....|F-5 2F.F ....|D#5 2F.F ....
....|..|--- .... ....|R-- .... ....|--- .... ....
....|..|--- .... ....|D#5 2F.F ....|D#5 2F.F ....
....|..|--- .... ....|R-- .... ....|--- .... ....
....|..|--- .... ....|F-5 2F.7 ....|D#5 2F.F ....
....|..|--- .... ....|--- .... ....|--- .... ....
....|..|--- .... ....|F-5 2F.A ....|D#5 2F.F ....
....|..|--- .... ....|R-- .... ....|--- .... ....
....|..|--- .... ....|F#5 2F.7 ....|D#5 2F.F ....
....|..|R-- .... ....|--- .... ....|--- .... ....
....|..|--- .... ....|--- .... ....|D#5 2F.F ....
....|..|--- .... ....|--- .... ....|--- .... ....

[Pattern29]
....|..|G#4 2F2F ....|F-5 2F.7 ....|D#5 2F.F ....
....|..|D#4 2F5F ....|R-- .... ....|--- .... ....
....|..|--- .... ....|D#5 2F.7 ....|D#5 2F.7 ....
....|..|R-- .... ....|--- .... ....|--- .... ....
....|..|--- .... ....|--- .... ....|D#5 2F.F ....
....|..|--- .... ....|--- .... ....|--- .... ....
....|..|G#4 2F2A ....|R-- .... ....|D#5 2F.F ....
....|..|D#4 2F5A ....|--- .... ....|--- .... ....
....|..|--- .... ....|F-5 2F.F ....|D#5 2F.F ....
....|..|R-- .... ....|--- .... ....|--- .... ....
....|..|--- .... ....|--- .... ....|D#5 2F.F ....
....|..|--- .... ....|--- .... ....|--- .... ....
....|..|G#4 2F27 ....|F#5 2F.F ....|D#5 2F.F ....
....|..|D#4 2F57 ....|R-- .... ....|--- .... ....
....|..|--- .... ....|G#5 2F.F ....|D#5 2F.F ....
....|..|--- .... ....|--- .... ....|--- .... ....
....|..|--- .... ....|--- .... ....|D#5 2F.F ....
....|..|--- .... ....|--- .... ....|--- .... ....
....|..|--- .... ....|F#5 2F.A ....|D#5 2F.F ....
....|..|--- .... ....|R-- .... ....|--- .... ....
....|..|--- .... ....|F#5 2F.F ....|D#5 2F.F ....
....|..|--- .... ....|--- .... ....|--- .... ....
....|..|--- .... ....|--- .... ....|D#5 2F.F ....
....|..|--- .... ....|R-- .... ....|--- .... ....
....|..|--- .... ....|F-5 2F.F ....|D#5 2F.F ....
....|..|--- .... ....|R-- .... ....|--- .... ....
....|..|--- .... ....|D#5 2F.F ....|D#5 2F.F ....
....|..|--- .... ....|--- .... ....|--- .... ....
....|..|--- .... ....|--- .... ....|D#5 2F.F ....
....|..|R-- .... ....|R-- .... ....|--- .... ....
....|..|--- .... ....|C#5 2F.F ....|D#5 2F.F ....
....|..|--- .... ....|R-- .... ....|--- .... ....
....|..|F-4 2F3F ....|F#5 2F.7 ....|C#5 2F.F ....
....|..|C#4 2F7F ....|--- .... ....|--- .... ....
....|..|--- .... ....|--- .... ....|D#5 2F.7 ....
....|..|R-- .... ....|R-- .... ....|--- .... ....
....|..|--- .... ....|F-5 2F.7 ....|C#5 2F.F ....
....|..|--- .... ....|R-- .... ....|--- .... ....
....|..|F-4 2F3A ....|D#5 2F.7 ....|C#5 2F.F ....
....|..|C#4 2F7A ....|--- .... ....|--- .... ....
....|..|--- .... ....|--- .... ....|C#5 2F.F ....
....|..|R-- .... ....|R-- .... ....|--- .... ....
....|..|--- .... ....|C#5 2F.7 ....|C#5 2F.F ....
....|..|--- .... ....|--- .... ....|--- .... ....
....|..|F-4 2F37 ....|--- .... ....|C#5 2F.F ....
....|..|C#4 2F77 ....|--- .... ....|--- .... ....
....|..|--- .... ....|--- .... ....|C#5 2F.F ....
....|..|--- .... ....|--- .... ....|--- .... ....
....|..|--- .... ....|--- .... ....|C#5 2F.F ....
....|..|--- .... ....|--- .... ....|--- .... ....
....|..|--- .... ....|--- .... ....|C#5 2F.F ....
....|..|--- .... ....|--- .... ....|--- .... ....
....|..|--- .... ....|R-- .... ....|C#5 2F.F ....
....|..|--- .... ....|--- .... ....|--- .... ....
....|..|--- .... ....|--- .... ....|C#5 2F.F ....
....|..|--- .... ....|--- .... ....|--- .... ....
....|..|--- .... ....|A#4 2F.F ....|C#5 2F.F ....
....|..|--- .... ....|R-- .... ....|--- .... ....
....|..|--- .... ....|C#5 2F.F ....|C#5 2F.F ....
....|..|--- .... ....|--- .... ....|--- .... ....
....|..|--- .... ....|--- .... ....|C#5 2F.F ....
....|..|R-- .... ....|--- .... ....|--- .... ....
....|..|--- .... ....|A#4 2F.A ....|C#5 2F.F ....
....|..|--- .... ....|R-- .... ....|--- .... ....

[Pattern30]
....|..|F#4 2F6F ....|D#5 2F.F ....|D#5 2F.F ....
....|..|D#4 2F8F ....|--- .... ....|--- .... ....
....|..|--- .... ....|--- .... ....|C#5 2F.7 ....
....|..|R-- .... ....|--- .... ....|--- .... ....
....|..|--- .... ....|A#4 2F.7 ....|D#5 2F.F ....
....|..|--- .... ....|R-- .... ....|--- .... ....
....|..|F#4 2F6A ....|C#5 2F.7 ....|D#5 2F.F ....
....|..|D#4 2F8A ....|--- .... ....|--- .... ....
....|..|--- .... ....|--- .... ....|D#5 2F.F ....
....|..|R-- .... ....|--- .... ....|--- .... ....
....|..|--- .... ....|--- .... ....|D#5 2F.F ....
....|..|--- .... ....|--- .... ....|--- .... ....
....|..|F#4 2F67 ....|D#5 2F.7 ....|D#5 2F.F ....
....|..|D#4 2F87 ....|--- .... ....|--- .... ....
....|..|--- .... ....|--- .... ....|D#5 2F.F ....
....|..|--- .... ....|--- .... ....|--- .... ....
....|..|--- .... ....|--- .... ....|D#5 2F.F ....
....|..|--- .... ....|--- .... ....|--- .... ....
....|..|--- .... ....|--- .... ....|D#5 2F.F ....
....|..|--- .... ....|--- .... ....|--- .... ....
....|..|--- .... ....|--- .... ....|D#5 2F.F ....
....|..|--- .... ....|--- .... ....|--- .... ....
....|..|--- .... ....|--- .... ....|D#5 2F.F ....
....|..|--- .... ....|--- .... ....|--- .... ....
....|..|--- .... ....|--- .... ....|D#5 2F.F ....
....|..|--- .... ....|--- .... ....|--- .... ....
....|..|--- .... ....|--- .... ....|D#5 2F.F ....
....|..|--- .... ....|R-- .... ....|--- .... ....
....|..|--- .... ....|C#5 2F.F ....|D#5 2F.F ....
....|..|R-- .... ....|R-- .... ....|--- .... ....
....|..|--- .... ....|C#5 2F.F ....|D#5 2F.F ....
....|..|--- .... ....|R-- .... ....|--- .... ....
....|..|D#4 2F2F ....|C#5 2F.F ....|D#5 2F.F ....
....|..|B-3 2F1F ....|R-- .... ....|--- .... ....
....|..|--- .... ....|B-4 2F.F ....|D#5 2F.7 ....
....|..|R-- .... ....|R-- .... ....|--- .... ....
....|..|--- .... ....|B-4 2F.F ....|D#5 2F.F ....
....|..|--- .... ....|R-- .... ....|--- .... ....
....|..|D#4 2F2A ....|C#5 2F.A ....|D#5 2F.F ....
....|..|B-3 2F1A ....|R-- .... ....|--- .... ....
....|..|--- .... ....|C#5 2F.7 ....|D#5 2F.F ....
....|..|R-- .... ....|R-- .... ....|--- .... ....
....|..|--- .... ....|C#5 2F.7 ....|D#5 2F.F ....
....|..|--- .... ....|R-- .... ....|--- .... ....
....|..|D#4 2F27 ....|C#5 2F.7 ....|D#5 2F.F ....
....|..|B-3 2F17 ....|--- .... ....|--- .... ....
....|..|--- .... ....|B-4 2F.7 ....|D#5 2F.F ....
....|..|--- .... ....|R-- .... ....|--- .... ....
....|..|--- .... ....|B-4 2F.7 ....|D#5 2F.F ....
....|..|--- .... ....|--- .... ....|--- .... ....
....|..|--- .... ....|--- .... ....|D#5 2F.F ....
....|..|--- .... ....|--- .... ....|--- .... ....
....|..|--- .... ....|--- .... ....|D#5 2F.F ....
....|..|--- .... ....|--- .... ....|--- .... ....
....|..|--- .... ....|--- .... ....|D#5 2F.F ....
....|..|--- .... ....|--- .... ....|--- .... ....
....|..|--- .... ....|--- .... ....|D#5 2F.F ....
....|..|--- .... ....|--- .... ....|--- .... ....
....|..|--- .... ....|--- .... ....|D#5 2F.F ....
....|..|--- .... ....|--- .... ....|--- .... ....
....|..|--- .... ....|--- .... ....|D#5 2F.F ....
....|..|R-- .... ....|--- .... ....|--- .... ....
....|..|--- .... ....|--- .... ....|D#5 2F.F ....
....|..|--- .... ....|--- .... ....|--- .... ....

[Pattern31]
....|..|D#4 2F3F ....|--- .... ....|D#5 2F.F ....
....|..|B-3 2F7F ....|--- .... ....|--- .... ....
....|..|--- .... ....|R-- .... ....|D#5 2F.7 ....
....|..|R-- .... ....|--- .... ....|--- .... ....
....|..|--- .... ....|--- .... ....|D#5 2F.F ....
....|..|--- .... ....|--- .... ....|--- .... ....
....|..|D#4 2F3A ....|--- .... ....|D#5 2F.F ....
....|..|B-3 2F7A ....|--- .... ....|--- .... ....
....|..|--- .... ....|A#4 2F.F ....|D#5 2F.F ....
....|..|R-- .... ....|--- .... ....|--- .... ....
....|..|--- .... ....|--- .... ....|D#5 2F.F ....
....|..|--- .... ....|R-- .... ....|--- .... ....
....|..|D#4 2F37 ....|B-4 2F.F ....|D#5 2F.F ....
....|..|B-3 2F77 ....|--- .... ....|--- .... ....
....|..|--- .... ....|A#4 2F.A ....|D#5 2F.F ....
....|..|--- .... ....|R-- .... ....|--- .... ....
....|..|--- .... ....|A#5 2F.F ....|D#5 2F.F ....
....|..|--- .... ....|R-- .... ....|--- .... ....
....|..|--- .... ....|B-4 2F.A ....|D#5 2F.F ....
....|..|--- .... ....|--- .... ....|--- .... ....
....|..|--- .... ....|A#5 2F.F ....|D#5 2F.F ....
....|..|--- .... ....|R-- .... ....|--- .... ....
....|..|--- .... ....|A#5 2F.A ....|D#5 2F.F ....
....|..|--- .... ....|R-- .... ....|--- .... ....
....|..|--- .... ....|G#5 2F.F ....|D#5 2F.F ....
....|..|--- .... ....|R-- .... ....|--- .... ....
....|..|--- .... ....|F#5 2F.F ....|D#5 2F.F ....
....|..|--- .... ....|R-- .... ....|--- .... ....
....|..|--- .... ....|A#5 2F.7 ....|D#5 2F.F ....
....|..|R-- .... ....|--- .... ....|--- .... ....
....|..|--- .... ....|G#5 2F.A ....|D#5 2F.F ....
....|..|--- .... ....|R-- .... ....|--- .... ....
....|..|F-4 2F2F ....|G#5 2F.F ....|C#5 2F.F ....
....|..|C#4 2F1F ....|--- .... ....|--- .... ....
....|..|--- .... ....|R-- .... ....|D#5 2F.7 ....
....|..|R-- .... ....|--- .... ....|--- .... ....
....|..|--- .... ....|G#5 2F.7 ....|C#5 2F.F ....
....|..|--- .... ....|R-- .... ....|--- .... ....
....|..|F-4 2F2A ....|F#5 2F.7 ....|C#5 2F.F ....
....|..|C#4 2F1A ....|--- .... ....|--- .... ....
....|..|--- .... ....|--- .... ....|C#5 2F.F ....
....|..|R-- .... ....|--- .... ....|--- .... ....
....|..|--- .... ....|--- .... ....|C#5 2F.F ....
....|..|--- .... ....|R-- .... ....|--- .... ....
....|..|F-4 2F27 ....|G#5 2F.7 ....|C#5 2F.F ....
....|..|C#4 2F17 ....|--- .... ....|--- .... ....
....|..|--- .... ....|--- .... ....|C#5 2F.F ....
....|..|--- .... ....|R-- .... ....|--- .... ....
....|..|--- .... ....|--- .... ....|C#5 2F.F ....
....|..|--- .... ....|--- .... ....|--- .... ....
....|..|--- .... ....|--- .... ....|C#5 2F.F ....
....|..|--- .... ....|--- .... ....|--- .... ....
....|..|--- .... ....|D#5 2F.F ....|C#5 2F.F ....
....|..|--- .... ....|R-- .... ....|--- .... ....
....|..|--- .... ....|--- .... ....|C#5 2F.F ....
....|..|--- .... ....|R-- .... ....|--- .... ....
....|..|--- .... ....|F#5 2F.F ....|C#5 2F.F ....
....|..|--- .... ....|--- .... ....|--- .... ....
....|..|--- .... ....|D#5 2F.A ....|C#5 2F.F ....
....|..|--- .... ....|R-- .... ....|--- .... ....
....|..|--- .... ....|G#5 2F.F ....|C#5 2F.F ....
....|..|R-- .... ....|R-- .... ....|--- .... ....
....|..|--- .... ....|F#5 2F.A ....|C#5 2F.F ....
....|..|--- .... ....|--- .... ....|--- .... ....

[Pattern32]
....|..|C#4 2F.F ....|D#5 2F.7 ....|C#5 2F.F ....
....|..|--- .... ....|R-- .... ....|--- .... ....
....|..|--- .... ....|G#5 2F.A ....|C#5 2F.7 ....
....|..|R-- .... ....|R-- .... ....|--- .... ....
....|..|--- .... ....|A#5 2F.F ....|C#5 2F.F ....
....|..|--- .... ....|--- .... ....|--- .... ....
....|..|D#4 2F.F ....|--- .... ....|C#5 2F.F ....
....|..|--- .... ....|R-- .... ....|--- .... ....
....|..|--- .... ....|G#5 2F.7 ....|C#5 2F.F ....
....|..|R-- .... ....|R-- .... ....|--- .... ....
....|..|--- .... ....|A#5 2F.A ....|C#5 2F.F ....
....|..|--- .... ....|R-- .... ....|--- .... ....
....|..|F#4 2F.F ....|G#5 2F.F ....|C#5 2F.F ....
....|..|--- .... ....|--- .... ....|--- .... ....
....|..|--- .... ....|--- .... ....|C#5 2F.F ....
....|..|--- .... ....|R-- .... ....|--- .... ....
....|..|--- .... ....|A#5 2F.7 ....|C#5 2F.F ....
....|..|--- .... ....|R-- .... ....|--- .... ....
....|..|G#4 2F.F ....|G#5 2F.A ....|C#5 2F.F ....
....|..|--- .... ....|--- .... ....|--- .... ....
....|..|--- .... ....|--- .... ....|C#5 2F.F ....
....|..|--- .... ....|--- .... ....|--- .... ....
....|..|--- .... ....|--- .... ....|C#5 2F.F ....
....|..|--- .... ....|R-- .... ....|--- .... ....
....|..|A#4 2F.F ....|G#5 2F.7 ....|C#5 2F.F ....
....|..|--- .... ....|--- .... ....|--- .... ....
....|..|R-- .... ....|--- .... ....|C#5 2F.F ....
....|..|--- .... ....|--- .... ....|--- .... ....
....|..|C#5 2F.F ....|--- .... ....|C#5 2F.F ....
....|..|--- .... ....|--- .... ....|--- .... ....
....|..|G#4 2F.7 ....|--- .... ....|C#5 2F.F ....
....|..|--- .... ....|--- .... ....|--- .... ....
....|..|D#5 2F.F ....|--- .... ....|C#5 2F.F ....
....|..|--- .... ....|--- .... ....|--- .... ....
....|..|C#5 2F.A ....|--- .... ....|C#5 2F.7 ....
....|..|--- .... ....|--- .... ....|--- .... ....
....|..|A#4 2F.7 ....|--- .... ....|C#5 2F.F ....
....|..|--- .... ....|--- .... ....|--- .... ....
....|..|F#5 2F.F ....|--- .... ....|C#5 2F.F ....
....|..|--- .... ....|--- .... ....|--- .... ....
....|..|C#5 2F.7 ....|--- .... ....|C#5 2F.F ....
....|..|--- .... ....|--- .... ....|--- .... ....
....|..|R-- .... ....|--- .... ....|C#5 2F.F ....
....|..|--- .... ....|--- .... ....|--- .... ....
....|..|G#5 2F.F ....|--- .... ....|C#5 2F.F ....
....|..|--- .... ....|--- .... ....|--- .... ....
....|..|--- .... ....|--- .... ....|C#5 2F.F ....
....|..|--- .... ....|--- .... ....|--- .... ....
....|..|--- .... ....|--- .... ....|C#5 2F.F ....
....|..|--- .... ....|--- .... ....|--- .... ....
....|..|A#5 2F.F ....|R-- .... ....|C#5 2F.F ....
....|..|--- .... ....|--- .... ....|--- .... ....
....|..|--- .... ....|--- .... ....|C#5 2F.F ....
....|..|--- .... ....|--- .... ....|--- .... ....
....|..|--- .... ....|--- .... ....|C#5 2F.F ....
....|..|--- .... ....|--- .... ....|--- .... ....
....|..|C#6 2F.F ....|R-- .... ....|C#5 2F.F ....
....|..|--- .... ....|--- .... ....|--- .... ....
....|..|R-- .... ....|--- .... ....|C#5 2F.F ....
....|..|--- .... ....|--- .... ....|--- .... ....
....|..|D-6 2F.F ....|--- .... ....|C#5 2F.F ....
....|..|--- .... ....|--- .... ....|--- .... ....
....|..|A#5 2F.7 ....|R-- .... ....|C#5 2F.F ....
....|..|--- .... ....|--- .... ....|--- .... ....

[Pattern33]
....|..|D#6 2F.F ....|--- .... ....|A#3 2F.F ....
....|..|--- .... ....|--- .... ....|F#4 2F.F ....
....|..|D-6 2F.A ....|--- .... ....|A#4 2F.F ....
....|..|--- .... ....|--- .... ....|--- .... ....
....|..|C#6 2F.7 ....|--- .... ....|C#5 2F.7 ....
....|..|--- .... ....|--- .... ....|--- .... ....
....|..|D#6 2F.A ....|--- .... ....|C#5 2F.7 ....
....|..|--- .... ....|--- .... ....|F#4 2F.A ....
....|..|D-6 2F.7 ....|F#5 2F.F ....|C#5 2F.7 ....
....|..|--- .... ....|--- .... ....|--- .... ....
....|..|R-- .... ....|--- .... ....|C#5 2F.7 ....
....|..|--- .... ....|--- .... ....|--- .... ....
....|..|D#6 2F.7 ....|F-5 2F.F ....|A#3 2F.7 ....
....|..|--- .... ....|--- .... ....|F#4 2F.7 ....
....|..|--- .... ....|F#5 2F.A ....|A#4 2F.7 ....
....|..|--- .... ....|R-- .... ....|--- .... ....
....|..|--- .... ....|F#5 2F.F ....|--- .... ....
....|..|--- .... ....|--- .... ....|--- .... ....
....|..|--- .... ....|F-5 2F.A ....|--- .... ....
....|..|--- .... ....|--- .... ....|--- .... ....
....|..|--- .... ....|F-5 2F.F ....|--- .... ....
....|..|--- .... ....|R-- .... ....|--- .... ....
....|..|--- .... ....|F#5 2F.A ....|--- .... ....
....|..|--- .... ....|--- .... ....|--- .... ....
....|..|--- .... ....|C#5 2F.F ....|--- .... ....
....|..|--- .... ....|--- .... ....|--- .... ....
....|..|--- .... ....|F-5 2F.A ....|--- .... ....
....|..|--- .... ....|R-- .... ....|--- .... ....
....|..|--- .... ....|A#4 2F.F ....|--- .... ....
....|..|--- .... ....|--- .... ....|--- .... ....
....|..|--- .... ....|C#5 2F.A ....|A#4 2F.F ....
....|..|--- .... ....|--- .... ....|R-- .... ....
....|..|D#4 2F2F ....|C#5 2F.F ....|D#4 2F.F ....
....|..|D#4 2F4F ....|--- .... ....|B-4 2F.F ....
....|..|--- .... ....|A#4 2F.A ....|--- .... ....
....|..|--- .... ....|--- .... ....|--- .... ....
....|..|--- .... ....|D#5 2F.F ....|A#4 2F.A ....
....|..|--- .... ....|--- .... ....|R-- .... ....
....|..|D#4 2F2A ....|C#5 2F.A ....|D#4 2F.A ....
....|..|D#4 2F4A ....|--- .... ....|B-4 2F.A ....
....|..|--- .... ....|A#4 2F.7 ....|--- .... ....
....|..|--- .... ....|--- .... ....|--- .... ....
....|..|--- .... ....|D#5 2F.A ....|A#4 2F.7 ....
....|..|--- .... ....|R-- .... ....|R-- .... ....
....|..|D#4 2F27 ....|D#5 2F.F ....|D#4 2F.7 ....
....|..|D#4 2F47 ....|--- .... ....|B-4 2F.7 ....
....|..|--- .... ....|--- .... ....|--- .... ....
....|..|--- .... ....|--- .... ....|--- .... ....
....|..|--- .... ....|D#5 2F.7 ....|--- .... ....
....|..|--- .... ....|R-- .... ....|--- .... ....
....|..|--- .... ....|D#5 2F.A ....|--- .... ....
....|..|--- .... ....|--- .... ....|--- .... ....
....|..|--- .... ....|--- .... ....|--- .... ....
....|..|--- .... ....|--- .... ....|--- .... ....
....|..|--- .... ....|--- .... ....|--- .... ....
....|..|--- .... ....|R-- .... ....|--- .... ....
....|..|--- .... ....|D#5 2F.7 ....|--- .... ....
....|..|--- .... ....|--- .... ....|--- .... ....
....|..|--- .... ....|--- .... ....|--- .... ....
....|..|--- .... ....|--- .... ....|--- .... ....
....|..|--- .... ....|--- .... ....|--- .... ....
....|..|R-- .... ....|R-- .... ....|--- .... ....
....|..|--- .... ....|--- .... ....|B-3 2F.F ....
....|..|--- .... ....|--- .... ....|R-- .... ....

[Pattern34]
....|..|D#4 2F2F ....|--- .... ....|A#3 2F.F ....
....|..|D#4 2F8F ....|--- .... ....|F#4 2F.F ....
....|..|--- .... ....|--- .... ....|A#4 2F.F ....
....|..|R-- .... ....|R-- .... ....|--- .... ....
....|..|--- .... ....|--- .... ....|B-3 2F.A ....
....|..|--- .... ....|--- .... ....|R-- .... ....
....|..|D#4 2F2A ....|--- .... ....|A#3 2F.A ....
....|..|D#4 2F8A ....|--- .... ....|F#4 2F.A ....
....|..|--- .... ....|F#5 2F.F ....|A#4 2F.A ....
....|..|R-- .... ....|R-- .... ....|--- .... ....
....|..|--- .... ....|--- .... ....|B-3 2F.7 ....
....|..|--- .... ....|--- .... ....|R-- .... ....
....|..|D#4 2F27 ....|F-5 2F.F ....|A#3 2F.7 ....
....|..|D#4 2F87 ....|R-- .... ....|F#4 2F.7 ....
....|..|--- .... ....|F#5 2F.F ....|A#4 2F.7 ....
....|..|--- .... ....|--- .... ....|--- .... ....
....|..|--- .... ....|--- .... ....|--- .... ....
....|..|--- .... ....|--- .... ....|--- .... ....
....|..|--- .... ....|F-5 2F.A ....|--- .... ....
....|..|--- .... ....|R-- .... ....|--- .... ....
....|..|--- .... ....|F-5 2F.F ....|--- .... ....
....|..|--- .... ....|--- .... ....|--- .... ....
....|..|--- .... ....|--- .... ....|--- .... ....
....|..|--- .... ....|--- .... ....|--- .... ....
....|..|--- .... ....|C#5 2F.F ....|--- .... ....
....|..|--- .... ....|R-- .... ....|--- .... ....
....|..|--- .... ....|F#5 2F.7 ....|--- .... ....
....|..|--- .... ....|--- .... ....|--- .... ....
....|..|--- .... ....|A#4 2F.F ....|--- .... ....
....|..|R-- .... ....|--- .... ....|--- .... ....
....|..|--- .... ....|C#5 2F.A ....|A#4 2F.F ....
....|..|--- .... ....|R-- .... ....|R-- .... ....
....|..|D#4 2F2F ....|C#5 2F.F ....|D#4 2F.F ....
....|..|D#4 2F4F ....|--- .... ....|B-4 2F.F ....
....|..|--- .... ....|A#4 2F.A ....|--- .... ....
....|..|R-- .... ....|--- .... ....|--- .... ....
....|..|--- .... ....|D#5 2F.F ....|A#4 2F.A ....
....|..|--- .... ....|R-- .... ....|R-- .... ....
....|..|D#4 2F2A ....|C#5 2F.A ....|D#4 2F.A ....
....|..|D#4 2F4A ....|--- .... ....|B-4 2F.A ....
....|..|--- .... ....|A#4 2F.7 ....|--- .... ....
....|..|R-- .... ....|--- .... ....|--- .... ....
....|..|--- .... ....|D#5 2F.A ....|A#4 2F.7 ....
....|..|--- .... ....|R-- .... ....|R-- .... ....
....|..|D#4 2F27 ....|D#5 2F.F ....|D#4 2F.7 ....
....|..|D#4 2F47 ....|--- .... ....|B-4 2F.7 ....
....|..|--- .... ....|--- .... ....|--- .... ....
....|..|--- .... ....|--- .... ....|--- .... ....
....|..|--- .... ....|D#5 2F.7 ....|--- .... ....
....|..|--- .... ....|R-- .... ....|--- .... ....
....|..|--- .... ....|D#5 2F.A ....|--- .... ....
....|..|--- .... ....|--- .... ....|--- .... ....
....|..|--- .... ....|--- .... ....|--- .... ....
....|..|--- .... ....|--- .... ....|--- .... ....
....|..|--- .... ....|--- .... ....|--- .... ....
....|..|--- .... ....|R-- .... ....|--- .... ....
....|..|--- .... ....|D#5 2F.7 ....|--- .... ....
....|..|--- .... ....|--- .... ....|--- .... ....
....|..|--- .... ....|--- .... ....|--- .... ....
....|..|--- .... ....|--- .... ....|--- .... ....
....|..|--- .... ....|--- .... ....|--- .... ....
....|..|R-- .... ....|R-- .... ....|--- .... ....
....|..|--- .... ....|--- .... ....|B-3 2F.F ....
....|..|--- .... ....|--- .... ....|R-- .... ....

[Pattern35]
....|..|F#4 2F3F ....|--- .... ....|D#5 2F.F ....
....|..|D#4 2F4F ....|--- .... ....|--- .... ....
....|..|--- .... ....|--- .... ....|--- .... ....
....|..|R-- .... ....|R-- .... ....|--- .... ....
....|..|--- .... ....|--- .... ....|D#5 2F.F ....
....|..|--- .... ....|--- .... ....|R-- .... ....
....|..|F#4 2F3A ....|--- .... ....|D#5 2F.F ....
....|..|D#4 2F4A ....|--- .... ....|--- .... ....
....|..|--- .... ....|D#5 2F.F ....|D#5 2F.F ....
....|..|R-- .... ....|R-- .... ....|--- .... ....
....|..|--- .... ....|--- .... ....|D#5 2F.F ....
....|..|--- .... ....|R-- .... ....|R-- .... ....
....|..|F#4 2F37 ....|F-5 2F.F ....|D#5 2F.F ....
....|..|D#4 2F47 ....|--- .... ....|--- .... ....
....|..|--- .... ....|D#5 2F.A ....|D#5 2F.F ....
....|..|--- .... ....|R-- .... ....|--- .... ....
....|..|--- .... ....|F#5 2F.F ....|D#5 2F.F ....
....|..|--- .... ....|R-- .... ....|--- .... ....
....|..|--- .... ....|F-5 2F.A ....|D#5 2F.F ....
....|..|--- .... ....|--- .... ....|--- .... ....
....|..|--- .... ....|F-5 2F.F ....|D#5 2F.F ....
....|..|--- .... ....|R-- .... ....|--- .... ....
....|..|--- .... ....|D#5 2F.F ....|D#5 2F.F ....
....|..|--- .... ....|R-- .... ....|--- .... ....
....|..|--- .... ....|F-5 2F.7 ....|D#5 2F.F ....
....|..|--- .... ....|--- .... ....|--- .... ....
....|..|--- .... ....|F-5 2F.A ....|D#5 2F.F ....
....|..|--- .... ....|R-- .... ....|--- .... ....
....|..|--- .... ....|F#5 2F.7 ....|D#5 2F.F ....
....|..|R-- .... ....|--- .... ....|--- .... ....
....|..|--- .... ....|R-- .... ....|D#5 2F.F ....
....|..|--- .... ....|--- .... ....|--- .... ....
....|..|G#4 2F2F ....|F-5 2F.7 ....|D#5 2F.F ....
....|..|D#4 2F5F ....|R-- .... ....|--- .... ....
....|..|--- .... ....|D#5 2F.7 ....|D#5 2F.7 ....
....|..|R-- .... ....|--- .... ....|--- .... ....
....|..|--- .... ....|R-- .... ....|D#5 2F.F ....
....|..|--- .... ....|--- .... ....|--- .... ....
....|..|G#4 2F2A ....|--- .... ....|D#5 2F.F ....
....|..|D#4 2F5A ....|--- .... ....|--- .... ....
....|..|--- .... ....|F-5 2F.F ....|D#5 2F.F ....
....|..|R-- .... ....|--- .... ....|--- .... ....
....|..|--- .... ....|R-- .... ....|D#5 2F.F ....
....|..|--- .... ....|--- .... ....|--- .... ....
....|..|G#4 2F27 ....|F#5 2F.F ....|D#5 2F.F ....
....|..|D#4 2F57 ....|R-- .... ....|--- .... ....
....|..|--- .... ....|G#5 2F.F ....|D#5 2F.F ....
....|..|--- .... ....|--- .... ....|--- .... ....
....|..|--- .... ....|--- .... ....|D#5 2F.F ....
....|..|--- .... ....|--- .... ....|--- .... ....
....|..|--- .... ....|F#5 2F.A ....|D#5 2F.F ....
....|..|--- .... ....|R-- .... ....|--- .... ....
....|..|--- .... ....|F#5 2F.F ....|D#5 2F.F ....
....|..|--- .... ....|--- .... ....|--- .... ....
....|..|--- .... ....|--- .... ....|D#5 2F.F ....
....|..|--- .... ....|--- .... ....|--- .... ....
....|..|--- .... ....|F-5 2F.F ....|D#5 2F.F ....
....|..|--- .... ....|R-- .... ....|--- .... ....
....|..|--- .... ....|D#5 2F.F ....|D#5 2F.F ....
....|..|--- .... ....|--- .... ....|--- .... ....
....|..|--- .... ....|--- .... ....|D#5 2F.F ....
....|..|R-- .... ....|R-- .... ....|--- .... ....
....|..|--- .... ....|C#5 2F.F ....|D#5 2F.F ....
....|..|--- .... ....|R-- .... ....|--- .... ....

[Pattern36]
....|..|F-4 2F3F ....|F#5 2F.7 ....|C#5 2F.F ....
....|..|C#4 2F7F ....|--- .... ....|--- .... ....
....|..|--- .... ....|--- .... ....|D#5 2F.7 ....
....|..|R-- .... ....|R-- .... ....|--- .... ....
....|..|--- .... ....|F-5 2F.7 ....|C#5 2F.F ....
....|..|--- .... ....|R-- .... ....|--- .... ....
....|..|F-4 2F3A ....|D#5 2F.7 ....|C#5 2F.F ....
....|..|C#4 2F7A ....|--- .... ....|--- .... ....
....|..|--- .... ....|--- .... ....|C#5 2F.F ....
....|..|R-- .... ....|R-- .... ....|--- .... ....
....|..|--- .... ....|C#5 2F.7 ....|C#5 2F.F ....
....|..|--- .... ....|--- .... ....|--- .... ....
....|..|F-4 2F37 ....|--- .... ....|C#5 2F.F ....
....|..|C#4 2F77 ....|--- .... ....|--- .... ....
....|..|--- .... ....|--- .... ....|C#5 2F.F ....
....|..|--- .... ....|--- .... ....|--- .... ....
....|..|--- .... ....|--- .... ....|C#5 2F.F ....
....|..|--- .... ....|--- .... ....|--- .... ....
....|..|--- .... ....|--- .... ....|C#5 2F.F ....
....|..|--- .... ....|R-- .... ....|--- .... ....
....|..|--- .... ....|--- .... ....|C#5 2F.F ....
....|..|--- .... ....|--- .... ....|--- .... ....
....|..|--- .... ....|--- .... ....|C#5 2F.F ....
....|..|--- .... ....|--- .... ....|--- .... ....
....|..|--- .... ....|A#4 2F.F ....|C#5 2F.F ....
....|..|--- .... ....|R-- .... ....|--- .... ....
....|..|--- .... ....|C#5 2F.F ....|C#5 2F.F ....
....|..|--- .... ....|--- .... ....|--- .... ....
....|..|--- .... ....|--- .... ....|C#5 2F.F ....
....|..|R-- .... ....|--- .... ....|--- .... ....
....|..|--- .... ....|A#4 2F.A ....|C#5 2F.F ....
....|..|--- .... ....|R-- .... ....|--- .... ....
....|..|F#4 2F6F ....|D#5 2F.F ....|D#5 2F.F ....
....|..|D#4 2F8F ....|--- .... ....|--- .... ....
....|..|--- .... ....|--- .... ....|C#5 2F.7 ....
....|..|R-- .... ....|--- .... ....|--- .... ....
....|..|--- .... ....|A#4 2F.7 ....|D#5 2F.F ....
....|..|--- .... ....|R-- .... ....|--- .... ....
....|..|F#4 2F6A ....|C#5 2F.7 ....|D#5 2F.F ....
....|..|D#4 2F8A ....|--- .... ....|--- .... ....
....|..|--- .... ....|--- .... ....|D#5 2F.F ....
....|..|R-- .... ....|--- .... ....|--- .... ....
....|..|--- .... ....|R-- .... ....|D#5 2F.F ....
....|..|--- .... ....|--- .... ....|--- .... ....
....|..|F#4 2F67 ....|D#5 2F.7 ....|D#5 2F.F ....
....|..|D#4 2F87 ....|--- .... ....|--- .... ....
....|..|--- .... ....|--- .... ....|D#5 2F.F ....
....|..|--- .... ....|--- .... ....|--- .... ....
....|..|--- .... ....|--- .... ....|D#5 2F.F ....
....|..|--- .... ....|--- .... ....|--- .... ....
....|..|--- .... ....|--- .... ....|D#5 2F.F ....
....|..|--- .... ....|--- .... ....|--- .... ....
....|..|--- .... ....|--- .... ....|D#5 2F.F ....
....|..|--- .... ....|--- .... ....|--- .... ....
....|..|--- .... ....|--- .... ....|D#5 2F.F ....
....|..|--- .... ....|R-- .... ....|--- .... ....
....|..|--- .... ....|--- .... ....|D#5 2F.F ....
....|..|--- .... ....|--- .... ....|--- .... ....
....|..|--- .... ....|--- .... ....|D#5 2F.F ....
....|..|--- .... ....|--- .... ....|--- .... ....
....|..|--- .... ....|C#5 2F.F ....|D#5 2F.F ....
....|..|R-- .... ....|R-- .... ....|--- .... ....
....|..|--- .... ....|C#5 2F.F ....|D#5 2F.F ....
....|..|--- .... ....|R-- .... ....|--- .... ....

[Pattern37]
....|..|D#4 2F2F ....|C#5 2F.F ....|D#5 2F.F ....
....|..|B-3 2F1F ....|--- .... ....|--- .... ....
....|..|--- .... ....|B-4 2F.F ....|D#5 2F.7 ....
....|..|R-- .... ....|R-- .... ....|--- .... ....
....|..|--- .... ....|B-4 2F.F ....|D#5 2F.F ....
....|..|--- .... ....|R-- .... ....|--- .... ....
....|..|D#4 2F2A ....|C#5 2F.A ....|D#5 2F.F ....
....|..|B-3 2F1A ....|--- .... ....|--- .... ....
....|..|--- .... ....|C#5 2F.7 ....|D#5 2F.F ....
....|..|R-- .... ....|R-- .... ....|--- .... ....
....|..|--- .... ....|C#5 2F.7 ....|D#5 2F.F ....
....|..|--- .... ....|R-- .... ....|--- .... ....
....|..|D#4 2F27 ....|C#5 2F.7 ....|D#5 2F.F ....
....|..|B-3 2F17 ....|--- .... ....|--- .... ....
....|..|--- .... ....|B-4 2F.7 ....|D#5 2F.F ....
....|..|--- .... ....|R-- .... ....|--- .... ....
....|..|--- .... ....|B-4 2F.7 ....|D#5 2F.F ....
....|..|--- .... ....|--- .... ....|--- .... ....
....|..|--- .... ....|--- .... ....|D#5 2F.F ....
....|..|--- .... ....|--- .... ....|--- .... ....
....|..|--- .... ....|--- .... ....|D#5 2F.F ....
....|..|--- .... ....|--- .... ....|--- .... ....
....|..|--- .... ....|--- .... ....|D#5 2F.F ....
....|..|--- .... ....|--- .... ....|--- .... ....
....|..|--- .... ....|--- .... ....|D#5 2F.F ....
....|..|--- .... ....|--- .... ....|--- .... ....
....|..|--- .... ....|--- .... ....|D#5 2F.F ....
....|..|--- .... ....|--- .... ....|--- .... ....
....|..|--- .... ....|--- .... ....|D#5 2F.F ....
....|..|R-- .... ....|--- .... ....|--- .... ....
....|..|--- .... ....|--- .... ....|D#5 2F.F ....
....|..|--- .... ....|R-- .... ....|--- .... ....
....|..|D#4 2F3F ....|--- .... ....|D#5 2F.F ....
....|..|B-3 2F7F ....|--- .... ....|--- .... ....
....|..|--- .... ....|--- .... ....|D#5 2F.7 ....
....|..|R-- .... ....|--- .... ....|--- .... ....
....|..|--- .... ....|--- .... ....|D#5 2F.F ....
....|..|--- .... ....|R-- .... ....|--- .... ....
....|..|D#4 2F3A ....|--- .... ....|D#5 2F.F ....
....|..|B-3 2F7A ....|--- .... ....|--- .... ....
....|..|--- .... ....|A#4 2F.F ....|D#5 2F.F ....
....|..|R-- .... ....|--- .... ....|--- .... ....
....|..|--- .... ....|--- .... ....|D#5 2F.F ....
....|..|--- .... ....|R-- .... ....|--- .... ....
....|..|D#4 2F37 ....|B-4 2F.F ....|D#5 2F.F ....
....|..|B-3 2F77 ....|--- .... ....|--- .... ....
....|..|--- .... ....|A#4 2F.A ....|D#5 2F.F ....
....|..|--- .... ....|R-- .... ....|--- .... ....
....|..|--- .... ....|A#5 2F.F ....|D#5 2F.F ....
....|..|--- .... ....|R-- .... ....|--- .... ....
....|..|--- .... ....|B-4 2F.A ....|D#5 2F.F ....
....|..|--- .... ....|--- .... ....|--- .... ....
....|..|--- .... ....|A#5 2F.F ....|D#5 2F.F ....
....|..|--- .... ....|R-- .... ....|--- .... ....
....|..|--- .... ....|A#5 2F.A ....|D#5 2F.F ....
....|..|--- .... ....|R-- .... ....|--- .... ....
....|..|--- .... ....|G#5 2F.F ....|D#5 2F.F ....
....|..|--- .... ....|R-- .... ....|--- .... ....
....|..|--- .... ....|F#5 2F.F ....|D#5 2F.F ....
....|..|--- .... ....|R-- .... ....|--- .... ....
....|..|--- .... ....|A#5 2F.7 ....|D#5 2F.F ....
....|..|R-- .... ....|--- .... ....|--- .... ....
....|..|--- .... ....|G#5 2F.A ....|D#5 2F.F ....
....|..|--- .... ....|R-- .... ....|--- .... ....

[Pattern38]
....|..|G#4 2F.F ....|G#5 2F.F ....|C#5 2F.F ....
....|..|--- .... ....|R-- .... ....|--- .... ....
....|..|--- .... ....|--- .... ....|D#5 2F.7 ....
....|..|R-- .... ....|--- .... ....|--- .... ....
....|..|G#4 2F2F ....|G#5 2F.7 ....|C#5 2F.F ....
....|..|--- .... ....|R-- .... ....|--- .... ....
....|..|G#4 2F.A ....|F#5 2F.7 ....|C#5 2F.F ....
....|..|--- .... ....|--- .... ....|--- .... ....
....|..|G#4 2F8F ....|--- .... ....|C#5 2F.F ....
....|..|R-- .... ....|--- .... ....|--- .... ....
....|..|G#4 2F2A ....|--- .... ....|C#5 2F.F ....
....|..|--- .... ....|R-- .... ....|--- .... ....
....|..|G#4 2FDF ....|G#5 2F.7 ....|C#5 2F.F ....
....|..|--- .... ....|--- .... ....|--- .... ....
....|..|G#4 2F8A ....|--- .... ....|C#5 2F.F ....
....|..|R-- .... ....|--- .... ....|--- .... ....
....|..|C#5 2F.F ....|A#5 2F.F ....|C#5 2F.F ....
....|..|--- .... ....|--- .... ....|--- .... ....
....|..|G#4 2FDA ....|R-- .... ....|C#5 2F.F ....
....|..|--- .... ....|R-- .... ....|F-4 2F.F ....
....|..|G#4 2F2F ....|G#5 2F.F ....|C#5 2F.F ....
....|..|R-- .... ....|--- .... ....|--- .... ....
....|..|C#5 2F.A ....|A#5 2F.A ....|C#5 2F.7 ....
....|..|--- .... ....|R-- .... ....|--- .... ....
....|..|G#4 2FD7 ....|F#5 2F.F ....|C#5 2F.7 ....
....|..|--- .... ....|R-- .... ....|F-4 2F.A ....
....|..|G#4 2F2A ....|G#5 2F.A ....|C#5 2F.7 ....
....|..|R-- .... ....|R-- .... ....|--- .... ....
....|..|C#5 2F.7 ....|G#5 2F.F ....|C#5 2F.7 ....
....|..|--- .... ....|R-- .... ....|--- .... ....
....|..|R-- .... ....|F#5 2F.A ....|C#5 2F.7 ....
....|..|F#5 2F.F ....|R-- .... ....|F-4 2F.7 ....
....|..|G#4 2F27 ....|G#5 2F.7 ....|F#4 2F.F ....
....|..|--- .... ....|R-- .... ....|--- .... ....
....|..|--- .... ....|G#5 2F.A ....|F#4 2F.F ....
....|..|--- .... ....|R-- .... ....|--- .... ....
....|..|--- .... ....|F#5 2F.7 ....|C#5 2F.F ....
....|..|F#5 2F.A ....|F#5 2F.F ....|C#5 2F.F ....
....|..|R-- .... ....|--- .... ....|C#5 2F.F ....
....|..|--- .... ....|R-- .... ....|C#5 2F.F ....
....|..|--- .... ....|G#5 2F.7 ....|F#4 2F.F ....
....|..|--- .... ....|--- .... ....|--- .... ....
....|..|--- .... ....|--- .... ....|F#4 2F.F ....
....|..|F#5 2F.7 ....|F#5 2F.A ....|C#5 2F.A ....
....|..|R-- .... ....|--- .... ....|C#5 2F.F ....
....|..|--- .... ....|--- .... ....|C#5 2F.F ....
....|..|--- .... ....|--- .... ....|C#5 2F.F ....
....|..|--- .... ....|--- .... ....|C#5 2F.F ....
....|..|--- .... ....|--- .... ....|F#4 2F.F ....
....|..|--- .... ....|F#5 2F.7 ....|C#5 2F.7 ....
....|..|--- .... ....|--- .... ....|F#4 2F.F ....
....|..|--- .... ....|--- .... ....|C#5 2F.7 ....
....|..|--- .... ....|--- .... ....|F#4 2F.F ....
....|..|--- .... ....|--- .... ....|D#4 2F.F ....
....|..|--- .... ....|--- .... ....|F#4 2F.F ....
....|..|--- .... ....|--- .... ....|F#4 2F.F ....
....|..|--- .... ....|--- .... ....|G#4 2F.F ....
....|..|--- .... ....|--- .... ....|G#4 2F.F ....
....|..|--- .... ....|--- .... ....|A#4 2F.F ....
....|..|--- .... ....|--- .... ....|C#5 2F.7 ....
....|..|--- .... ....|--- .... ....|C#5 2F.F ....
....|..|--- .... ....|--- .... ....|F#4 2F.A ....
....|..|--- .... ....|--- .... ....|C#5 2F.F ....
....|..|--- .... ....|--- .... ....|A#4 2F.F ....

[Pattern39]
....|..|--- .... ....|--- .... ....|F#4 2F.F ....
....|..|--- .... ....|--- .... ....|D#4 2F.7 ....
....|..|--- .... ....|--- .... ....|F#4 2F.F ....
....|..|--- .... ....|--- .... ....|F#4 2F.7 ....
....|..|--- .... ....|--- .... ....|G#4 2F.F ....
....|..|--- .... ....|--- .... ....|G#4 2F.F ....
....|..|--- .... ....|--- .... ....|B-4 2F.F ....
....|..|--- .... ....|--- .... ....|B-4 2F.F ....
....|..|--- .... ....|--- .... ....|C#5 2F.F ....
....|..|--- .... ....|--- .... ....|--- .... ....
....|..|--- .... ....|--- .... ....|C#5 2F.F ....
....|..|--- .... ....|--- .... ....|A#4 2F.7 ....
....|..|--- .... ....|--- .... ....|C#5 2F.F ....
....|..|--- .... ....|--- .... ....|G#4 2F.F ....
....|..|--- .... ....|--- .... ....|B-4 2F.F ....
....|..|--- .... ....|--- .... ....|B-4 2F.F ....
....|..|--- .... ....|--- .... ....|C#5 2F.F ....
....|..|--- .... ....|--- .... ....|G#4 2F.7 ....
....|..|--- .... ....|--- .... ....|C#5 2F.F ....
....|..|--- .... ....|--- .... ....|B-4 2F.7 ....
....|..|--- .... ....|--- .... ....|C#5 2F.F ....
....|..|--- .... ....|--- .... ....|G#4 2F.F ....
....|..|--- .... ....|--- .... ....|G#4 2F.F ....
....|..|--- .... ....|--- .... ....|D#4 2F.F ....
....|..|--- .... ....|--- .... ....|C#5 2F.F ....
....|..|--- .... ....|--- .... ....|C#5 2F.F ....
....|..|--- .... ....|--- .... ....|C#5 2F.F ....
....|..|--- .... ....|--- .... ....|B-4 2F.7 ....
....|..|--- .... ....|--- .... ....|B-4 2F.F ....
....|..|--- .... ....|--- .... ....|D#4 2F.A ....
....|..|F#5 2F.F ....|--- .... ....|G#4 2F.F ....
....|..|A#5 2F.F ....|--- .... ....|D#4 2F.F ....
....|..|F#4 2F1F ....|--- .... ....|F#4 2F.F ....
....|..|--- .... ....|--- .... ....|G#4 2F.7 ....
....|..|--- .... ....|--- .... ....|F#4 2F.F ....
....|..|--- .... ....|--- .... ....|D#4 2F.7 ....
....|..|F#5 2F.A ....|--- .... ....|C#5 2F.F ....
....|..|A#5 2F.A ....|--- .... ....|C#5 2F.F ....
....|..|F#4 2F1A ....|--- .... ....|C#5 2F.F ....
....|..|--- .... ....|--- .... ....|C#5 2F.F ....
....|..|--- .... ....|--- .... ....|F#4 2F.F ....
....|..|--- .... ....|--- .... ....|--- .... ....
....|..|F#5 2F.7 ....|--- .... ....|F#4 2F.F ....
....|..|A#5 2F.7 ....|--- .... ....|D#4 2F.7 ....
....|..|F#4 2F17 ....|--- .... ....|C#5 2F.F ....
....|..|--- .... ....|--- .... ....|C#5 2F.F ....
....|..|--- .... ....|--- .... ....|C#5 2F.F ....
....|..|--- .... ....|--- .... ....|C#5 2F.F ....
....|..|--- .... ....|--- .... ....|F#4 2F.F ....
....|..|--- .... ....|--- .... ....|C#5 2F.7 ....
....|..|--- .... ....|--- .... ....|F#4 2F.F ....
....|..|--- .... ....|--- .... ....|C#5 2F.7 ....
....|..|--- .... ....|R-- .... ....|F#4 2F.F ....
....|..|--- .... ....|--- .... ....|D#4 2F.F ....
....|..|--- .... ....|--- .... ....|F#4 2F.F ....
....|..|--- .... ....|--- .... ....|F#4 2F.F ....
....|..|--- .... ....|--- .... ....|G#4 2F.F ....
....|..|--- .... ....|--- .... ....|G#4 2F.F ....
....|..|--- .... ....|R-- .... ....|A#4 2F.F ....
....|..|--- .... ....|--- .... ....|C#5 2F.7 ....
....|..|--- .... ....|--- .... ....|C#5 2F.F ....
....|..|--- .... ....|--- .... ....|F#4 2F.A ....
....|..|--- .... ....|--- .... ....|C#5 2F.F ....
....|..|--- .... ....|--- .... ....|A#4 2F.F ....

[Pattern40]
....|..|--- .... ....|R-- .... ....|F#4 2F.F ....
....|..|--- .... ....|--- .... ....|D#4 2F.7 ....
....|..|--- .... ....|--- .... ....|F#4 2F.F ....
....|..|--- .... ....|--- .... ....|F#4 2F.7 ....
....|..|--- .... ....|--- .... ....|G#4 2F.F ....
....|..|--- .... ....|--- .... ....|G#4 2F.F ....
....|..|--- .... ....|--- .... ....|B-4 2F.F ....
....|..|--- .... ....|--- .... ....|B-4 2F.F ....
....|..|--- .... ....|--- .... ....|C#5 2F.F ....
....|..|--- .... ....|--- .... ....|--- .... ....
....|..|--- .... ....|--- .... ....|C#5 2F.F ....
....|..|--- .... ....|--- .... ....|A#4 2F.7 ....
....|..|--- .... ....|--- .... ....|C#5 2F.F ....
....|..|--- .... ....|--- .... ....|G#4 2F.F ....
....|..|--- .... ....|--- .... ....|B-4 2F.F ....
....|..|--- .... ....|--- .... ....|B-4 2F.F ....
....|..|--- .... ....|--- .... ....|C#5 2F.F ....
....|..|--- .... ....|--- .... ....|G#4 2F.7 ....
....|..|--- .... ....|--- .... ....|C#5 2F.F ....
....|..|--- .... ....|--- .... ....|B-4 2F.7 ....
....|..|--- .... ....|--- .... ....|C#5 2F.F ....
....|..|--- .... ....|--- .... ....|G#4 2F.F ....
....|..|--- .... ....|--- .... ....|G#4 2F.F ....
....|..|--- .... ....|--- .... ....|D#4 2F.F ....
....|..|--- .... ....|--- .... ....|C#5 2F.F ....
....|..|--- .... ....|--- .... ....|C#5 2F.F ....
....|..|--- .... ....|--- .... ....|C#5 2F.F ....
....|..|--- .... ....|--- .... ....|B-4 2F.7 ....
....|..|--- .... ....|--- .... ....|B-4 2F.F ....
....|..|--- .... ....|--- .... ....|D#4 2F.A ....
....|..|R-- .... ....|--- .... ....|G#4 2F.F ....
....|..|--- .... ....|--- .... ....|D#4 2F.F ....
....|..|A#4 2F2F ....|--- .... ....|A#3 2F.F ....
....|..|F#4 2F1F ....|--- .... ....|C#5 2F.F ....
....|..|--- .... ....|--- .... ....|G#4 2F.7 ....
....|..|--- .... ....|--- .... ....|D#4 2F.7 ....
....|..|R-- .... ....|--- .... ....|C#5 2F.7 ....
....|..|--- .... ....|--- .... ....|C#5 2F.7 ....
....|..|A#4 2F2A ....|--- .... ....|C#5 2F.7 ....
....|..|F#4 2F1A ....|--- .... ....|C#5 2F.A ....
....|..|--- .... ....|--- .... ....|B-4 2F.7 ....
....|..|--- .... ....|--- .... ....|--- .... ....
....|..|R-- .... ....|--- .... ....|G#4 2F.7 ....
....|..|--- .... ....|--- .... ....|D#4 2F.7 ....
....|..|A#4 2F27 ....|--- .... ....|A#3 2F.7 ....
....|..|F#4 2F17 ....|--- .... ....|C#5 2F.7 ....
....|..|--- .... ....|--- .... ....|--- .... ....
....|..|--- .... ....|--- .... ....|--- .... ....
....|..|--- .... ....|--- .... ....|--- .... ....
....|..|--- .... ....|--- .... ....|--- .... ....
....|..|--- .... ....|--- .... ....|--- .... ....
....|..|--- .... ....|--- .... ....|--- .... ....
....|..|--- .... ....|--- .... ....|--- .... ....
....|..|--- .... ....|--- .... ....|--- .... ....
....|..|--- .... ....|--- .... ....|--- .... ....
....|..|--- .... ....|--- .... ....|--- .... ....
....|..|--- .... ....|--- .... ....|--- .... ....
....|..|--- .... ....|--- .... ....|--- .... ....
....|..|--- .... ....|--- .... ....|--- .... ....
....|..|--- .... ....|--- .... ....|--- .... ....
....|..|--- .... ....|--- .... ....|--- .... ....
....|..|R-- .... ....|--- .... ....|--- .... ....
....|..|--- .... ....|--- .... ....|--- .... ....
....|..|--- .... ....|--- .... ....|A#4 2F.F ....

[Pattern41]
....|..|--- .... ....|--- .... ....|R-- .... ....
....|..|--- .... ....|--- .... ....|--- .... ....
....|..|--- .... ....|--- .... ....|--- .... ....
....|..|R-- .... ....|--- .... ....|--- .... ....
....|..|--- .... ....|--- .... ....|--- .... ....
....|..|--- .... ....|--- .... ....|A#4 2F.A ....
....|..|--- .... ....|--- .... ....|R-- .... ....
....|..|--- .... ....|--- .... ....|--- .... ....
....|..|--- .... ....|--- .... ....|--- .... ....
....|..|R-- .... ....|--- .... ....|--- .... ....
....|..|--- .... ....|--- .... ....|--- .... ....
....|..|--- .... ....|--- .... ....|A#4 2F.7 ....
