[Module]
VortexTrackerII=0
Version=3.5
Title=kiki0.mid
Author=oisee ^ 4d 29.05.2010
NoteTable=4
ChipFreq=1750000
Speed=3
PlayOrder=L0,1,2,3,4,5,6,7,8,9,10,11,12,13,14,15,16,17,18,19,20,21,22,23,24,25,26,27,28,29,30,31,32,33,34,35,36,37,38,39,40,41,42,43,44,45,46,47,48,49,50,51,52,53,54,55

[Ornament1]
L0,0,4,4,7,7

[Ornament2]
L0,0,3,3

[Ornament3]
L0,0,5,5

[Ornament4]
L0,0,3,3,8,8

[Ornament5]
L0,0,5,5,8,8

[Ornament6]
L0,0,4,4

[Ornament7]
L0,0,3,3,7,7

[Ornament8]
L0,0,7,7

[Ornament9]
L0,0,5,5,7,7

[Ornament10]
L0,0,8,8

[Ornament11]
L0,0,2,2,7,7

[Ornament12]
L0,0,3,3,5,5,7,7

[Ornament13]
L0,0,3,3,5,5

[Ornament14]
L0,0,2,2,5,5

[Ornament15]
L0,0,2,2

[Sample1]
TnE +000_ +00_ F_
TnE +000_ +00_ F_
TnE +000_ +00_ F_
TnE +000_ +00_ D_
TnE +000_ +00_ B_
TnE +000_ +00_ B_ L

[Sample2]
TnE +000_ +00_ F_ L

[Sample3]
TnE +001_ +00_ F_
TnE +002_ +00_ F_
TnE +001_ +00_ E_
TnE +002_ +00_ E_
TnE +000_ +00_ E_ L
TnE -001_ +00_ E_
TnE -002_ +00_ E_
TnE -001_ +00_ E_
TnE +000_ +00_ E_
TnE +001_ +00_ E_
TnE +002_ +00_ E_
TnE +001_ +00_ E_

[Sample4]
TnE +002_ +00_ D_
TnE +002_ +00_ D_
TnE +002_ +00_ C_
TnE +002_ +00_ B_
TnE +002_ +00_ A_ L
TnE +002_ +00_ A_
TnE +002_ +00_ A_
TnE +002_ +00_ A_
TnE +002_ +00_ A_
TnE +002_ +00_ A_
TnE +002_ +00_ A_
TnE +002_ +00_ A_

[Sample5]
TnE +000_ +00_ F_
TnE +000_ +00_ F_
tne +000_ +00_ 0_ L

[Sample6]
TnE -001_ +00_ F_ L

[Sample7]
TnE +006_ +00_ F_ L

[Sample8]
tNe +000_ +00_ F_
tNe +000_ +00_ B_
tNe +000_ +00_ 7_
tNe +000_ +00_ 6- L

[Sample9]
TnE +080_ +00_ F_
TnE +100_ +00_ E_
TnE +180_ +00_ E_
TnE +200_ +00_ E_
TnE +240_ +00_ D_
TnE +280_ +00_ D_
TnE +2C0_ +00_ D_
TnE +300_ +00_ C_
TnE +300_ +00_ C_
TnE +340_ +00_ C_
TnE +340_ +00_ C_
TnE +380_ +00_ B_
TnE +380_ +00_ B_
TnE +400_ +00_ B_
TnE +400_ +00_ B_
TnE +480_ +00_ A_
TnE +500_ +00_ 9_
TnE +580_ +00_ 7_
TnE +600_ +00_ 4_
TnE +680_ +00_ 1_
TnE +000_ +00_ 0_ L

[Sample10]
Tne +1C0_ +00_ F_
Tne +280_ +00_ E_
Tne +380_ +00_ C_
Tne +440_ +00_ A_
Tne +480_ +00_ 8_
TnE +000_ +00_ 0_ L

[Sample11]
TNe +200_ -0A_ F_
tNe +000_ +0F_ A_
TNe +200_ -07_ E_
tNe +000_ +0E_ B- L

[Sample12]
TNE +0A0_ +05_ F_
TNE +140_ +02_ D_
TNE +140_ +02_ B_
TNE +100_ +00_ A_ L
TNE +140_ +00_ A_
TNE +200_ +00_ A-

[Sample13]
Tne +200_ +00_ F_
Tne +2C0_ +00_ F_
Tne +380_ +00_ E_
Tne +500_ +00_ C_
Tne +520_ +00_ 9_
tne +000_ +00_ 0_ L

[Sample14]
TNE -100_ +00_ F_
TNE -100_ +00_ D_
TNE -100_ +00_ A_
TNE -100_ +00_ 5_
tne +000_ +00_ 0_ L

[Sample15]
TNE -100_ +00_ 5_
TNE -100_ +00_ 8_
TNE -100_ +00_ B_
TNE -100_ +00_ F_
TNe -100_ +00_ 9- L

[Sample16]
TnE +000_ +00_ C_
TnE +000_ +00_ E_
TnE +000_ +00_ F_
TnE +000_ +00_ F_
TnE +000_ +00_ E_
TnE +000_ +00_ D_
TnE +000_ +00_ C_
TnE +000_ +00_ C_ L
TnE +001_ +00_ C_
TnE +002_ +00_ C_
TnE +003_ +00_ C_
TnE +001_ +00_ C_
TnE +000_ +00_ C_
TnE -001_ +00_ C_
TnE -002_ +00_ C_
TnE -003_ +00_ C_
TnE -001_ +00_ C_
TnE +000_ +00_ C_
TnE +000_ +00_ C_

[Sample17]
Tne +1C0_ +00_ F_
Tne +280_ +00_ D_
Tne +380_ +00_ 7_
TNE +000_ +00_ 0_ L

[Sample18]
tnE +000_ +00_ 0_ L

[Sample19]
TNe +000_ +00_ F_
TNe +000_ +00_ C_
TNe +000_ +00_ 6_
TNe +000_ +01_ A- L

[Sample20]
TNE +140_ +00_ F_
tNE +000_ +00_ B- L

[Sample21]
tNE +000_ +00_ D_
tNE +000_ +00_ 8_
tNE +000_ +00_ 1_
TNE +000_ +00_ 0_ L

[Sample22]
TnE +000_ +00_ D_ L
TnE +000_ +00_ D_
tne +000_ +00_ 9_
tne +000_ +00_ 9_
TnE +000_ +00_ D_
TnE +000_ +00_ D_
tne +000_ +00_ 9_
tne +000_ +00_ 9_
TnE +000_ +00_ D_
TnE +000_ +00_ D_
TnE +000_ +00_ D_
TnE +000_ +00_ D_
TnE +000_ +00_ D_
TnE +000_ +00_ D_
tne +000_ +00_ 9_
tne +000_ +00_ 9_

[Sample23]
TnE +000_ +00_ F_ L
TnE +010_ +01_ F_
TnE +010_ +01_ F_
TnE +010_ +01_ F_
TnE +010_ +01_ F_
TnE +000_ +00_ F_
TnE +000_ +00_ F_
TnE -010_ -01_ F_
TnE -010_ -01_ F_
TnE -010_ -01_ F_
TnE -010_ -01_ F_
TnE +000_ +00_ F_

[Sample24]
TNe +000_ -01_ C_
TNe +000_ -01_ D_
TNe +000_ -01_ E_
TNe +000_ -01_ F_
TNe +000_ -01_ F_
TNe +000_ -01_ F_
TNe +000_ -01_ F_
TNe +000_ -01_ F_
TNe +000_ -01_ E_
TNe +000_ -01_ E_
TNe +000_ -01_ E_
TNe +000_ -01_ F_
TNe +000_ -01_ F_ L

[Sample25]
TNE +000_ +00_ F_
TNE +000_ +00_ F_ L
TNE +000_ +00_ F_
TNE +000_ +00_ F_
TNE +000_ +00_ F-

[Sample26]
tne +000_ +00_ 0_ L

[Sample27]
tne +000_ +00_ 0_ L

[Sample28]
tne +000_ +00_ 0_ L

[Sample29]
tne +000_ +00_ 0_ L

[Sample30]
TNE +000_ +00_ C+ L

[Sample31]
TNe +1C0_ +00_ F_
Tne +280_ +00_ E_
Tne +380_ +00_ C_
Tne +440_ +00_ A_
Tne +480_ +00_ 8_
TnE +000_ +00_ 0_ L

[Pattern0]
....|..|--- .... ....|--- .... ....|--- .... ....
....|..|--- .... ....|--- .... ....|--- .... ....
....|..|--- .... ....|--- .... ....|--- .... ....
....|..|--- .... ....|--- .... ....|--- .... ....
....|..|--- .... ....|--- .... ....|--- .... ....
....|..|--- .... ....|--- .... ....|--- .... ....
....|..|--- .... ....|--- .... ....|--- .... ....
....|..|--- .... ....|--- .... ....|--- .... ....
....|..|--- .... ....|--- .... ....|--- .... ....
....|..|--- .... ....|--- .... ....|--- .... ....
....|..|--- .... ....|--- .... ....|--- .... ....
....|..|--- .... ....|--- .... ....|--- .... ....
....|..|--- .... ....|--- .... ....|--- .... ....
....|..|--- .... ....|--- .... ....|--- .... ....
....|..|--- .... ....|--- .... ....|--- .... ....
....|..|--- .... ....|--- .... ....|--- .... ....
....|..|--- .... ....|--- .... ....|--- .... ....
....|..|--- .... ....|--- .... ....|--- .... ....
....|..|--- .... ....|--- .... ....|--- .... ....
....|..|--- .... ....|--- .... ....|--- .... ....
....|..|--- .... ....|--- .... ....|--- .... ....
....|..|--- .... ....|--- .... ....|--- .... ....
....|..|--- .... ....|--- .... ....|--- .... ....
....|..|--- .... ....|--- .... ....|--- .... ....
....|..|--- .... ....|--- .... ....|--- .... ....
....|..|--- .... ....|--- .... ....|--- .... ....
....|..|--- .... ....|--- .... ....|--- .... ....
....|..|--- .... ....|--- .... ....|--- .... ....
....|..|--- .... ....|--- .... ....|--- .... ....
....|..|--- .... ....|--- .... ....|--- .... ....
....|..|--- .... ....|--- .... ....|--- .... ....
....|..|--- .... ....|--- .... ....|--- .... ....
....|..|--- .... ....|--- .... ....|--- .... ....
....|..|--- .... ....|--- .... ....|--- .... ....
....|..|--- .... ....|--- .... ....|--- .... ....
....|..|--- .... ....|--- .... ....|--- .... ....
....|..|--- .... ....|--- .... ....|--- .... ....
....|..|--- .... ....|--- .... ....|--- .... ....
....|..|--- .... ....|--- .... ....|--- .... ....
....|..|--- .... ....|--- .... ....|--- .... ....
....|..|--- .... ....|--- .... ....|--- .... ....
....|..|--- .... ....|--- .... ....|--- .... ....
....|..|--- .... ....|--- .... ....|--- .... ....
....|..|--- .... ....|--- .... ....|--- .... ....
....|..|--- .... ....|--- .... ....|--- .... ....
....|..|--- .... ....|--- .... ....|--- .... ....
....|..|--- .... ....|--- .... ....|--- .... ....
....|..|--- .... ....|--- .... ....|--- .... ....

[Pattern1]
....|..|--- .... ....|--- .... ....|--- .... ....
....|..|--- .... ....|--- .... ....|--- .... ....
....|..|--- .... ....|--- .... ....|--- .... ....
....|..|--- .... ....|--- .... ....|--- .... ....
....|..|--- .... ....|--- .... ....|--- .... ....
....|..|--- .... ....|--- .... ....|--- .... ....
....|..|--- .... ....|--- .... ....|--- .... ....
....|..|--- .... ....|--- .... ....|--- .... ....
....|..|--- .... ....|--- .... ....|--- .... ....
....|..|--- .... ....|--- .... ....|--- .... ....
....|..|--- .... ....|--- .... ....|--- .... ....
....|..|--- .... ....|--- .... ....|--- .... ....
....|..|--- .... ....|--- .... ....|--- .... ....
....|..|--- .... ....|--- .... ....|--- .... ....
....|..|--- .... ....|--- .... ....|--- .... ....
....|..|--- .... ....|--- .... ....|--- .... ....
....|..|--- .... ....|--- .... ....|--- .... ....
....|..|--- .... ....|--- .... ....|--- .... ....
....|..|--- .... ....|--- .... ....|--- .... ....
....|..|--- .... ....|--- .... ....|--- .... ....
....|..|--- .... ....|--- .... ....|--- .... ....
....|..|--- .... ....|--- .... ....|--- .... ....
....|..|--- .... ....|--- .... ....|--- .... ....
....|..|--- .... ....|--- .... ....|--- .... ....
....|..|--- .... ....|--- .... ....|--- .... ....
....|..|--- .... ....|--- .... ....|--- .... ....
....|..|--- .... ....|--- .... ....|--- .... ....
....|..|--- .... ....|--- .... ....|--- .... ....
....|..|--- .... ....|--- .... ....|--- .... ....
....|..|--- .... ....|--- .... ....|--- .... ....
....|..|--- .... ....|--- .... ....|--- .... ....
....|..|--- .... ....|--- .... ....|--- .... ....
....|..|--- .... ....|--- .... ....|--- .... ....
....|..|--- .... ....|--- .... ....|--- .... ....
....|..|--- .... ....|--- .... ....|--- .... ....
....|..|--- .... ....|--- .... ....|--- .... ....
....|..|--- .... ....|--- .... ....|--- .... ....
....|..|--- .... ....|--- .... ....|--- .... ....
....|..|--- .... ....|--- .... ....|--- .... ....
....|..|--- .... ....|--- .... ....|--- .... ....
....|..|--- .... ....|--- .... ....|--- .... ....
....|..|--- .... ....|--- .... ....|--- .... ....
....|..|--- .... ....|--- .... ....|D#4 .F.F ....
....|..|--- .... ....|--- .... ....|--- .... ....
....|..|--- .... ....|--- .... ....|D#4 .F2F ....
....|..|--- .... ....|--- .... ....|--- .... ....
....|..|F#5 .F.F ....|--- .... ....|D#4 .FDF ....
....|..|A#5 .F.F ....|--- .... ....|G#4 .F.F ....

[Pattern2]
....|..|F#4 .F1F ....|--- .... ....|F#4 .F.F ....
....|..|--- .... ....|--- .... ....|--- .... ....
....|..|--- .... ....|--- .... ....|D#4 .F2F ....
....|..|--- .... ....|--- .... ....|--- .... ....
....|..|--- .... ....|--- .... ....|D#4 .F2F ....
....|..|--- .... ....|--- .... ....|D#4 .F.F ....
....|..|--- .... ....|--- .... ....|D#4 .F8F ....
....|..|--- .... ....|--- .... ....|A#4 .F2F ....
....|..|--- .... ....|--- .... ....|F#4 .F.F ....
....|..|--- .... ....|--- .... ....|--- .... ....
....|..|F#5 .F.A ....|--- .... ....|D#4 .F2F ....
....|..|A#5 .F.A ....|--- .... ....|G#4 .F.A ....
....|..|F#4 .F1A ....|--- .... ....|D#4 .F2F ....
....|..|--- .... ....|--- .... ....|D#4 .F.F ....
....|..|--- .... ....|--- .... ....|D#4 .F8F ....
....|..|--- .... ....|--- .... ....|A#4 .F2F ....
....|..|--- .... ....|--- .... ....|F#4 .F.F ....
....|..|--- .... ....|--- .... ....|D#4 .F.A ....
....|..|--- .... ....|--- .... ....|C#4 .F3F ....
....|..|--- .... ....|--- .... ....|A#4 .F2A ....
....|..|--- .... ....|--- .... ....|C#4 .FEF ....
....|..|--- .... ....|--- .... ....|D#4 .F.F ....
....|..|F#5 .F.7 ....|--- .... ....|D#4 .F2F ....
....|..|A#5 .F.7 ....|--- .... ....|F#4 .F.F ....
....|..|F#4 .F17 ....|--- .... ....|F#4 .FFF ....
....|..|--- .... ....|--- .... ....|G#4 .F.F ....
....|..|--- .... ....|--- .... ....|G#4 .FFF ....
....|..|--- .... ....|--- .... ....|A#4 .F2A ....
....|..|--- .... ....|--- .... ....|A#4 .F2F ....
....|..|--- .... ....|--- .... ....|D#4 .F.7 ....
....|..|--- .... ....|--- .... ....|A#4 .F2F ....
....|..|--- .... ....|--- .... ....|A#4 .F.F ....
....|..|--- .... ....|--- .... ....|F#4 .F.F ....
....|..|--- .... ....|--- .... ....|D#4 .F.A ....
....|..|--- .... ....|--- .... ....|D#4 .F2F ....
....|..|--- .... ....|--- .... ....|F#4 .F.A ....
....|..|--- .... ....|--- .... ....|D#4 .FDF ....
....|..|--- .... ....|--- .... ....|D#4 .F3F ....
....|..|--- .... ....|--- .... ....|D#4 .F5F ....
....|..|--- .... ....|--- .... ....|G#4 .F2F ....
....|..|--- .... ....|--- .... ....|C#5 .F.F ....
....|..|--- .... ....|--- .... ....|--- .... ....
....|..|--- .... ....|--- .... ....|B-4 .FFF ....
....|..|--- .... ....|--- .... ....|A#4 .F.A ....
....|..|--- .... ....|--- .... ....|G#4 .FDF ....
....|..|--- .... ....|--- .... ....|G#4 .F.F ....
....|..|--- .... ....|--- .... ....|G#4 .F2F ....
....|..|--- .... ....|--- .... ....|B-4 .F.F ....

[Pattern3]
....|..|--- .... ....|--- .... ....|C#5 .F.F ....
....|..|--- .... ....|--- .... ....|G#4 .F.7 ....
....|..|--- .... ....|--- .... ....|B-4 .FFF ....
....|..|--- .... ....|--- .... ....|G#4 .F2A ....
....|..|--- .... ....|--- .... ....|G#4 .FDF ....
....|..|--- .... ....|--- .... ....|G#4 .F.F ....
....|..|--- .... ....|--- .... ....|D#4 .F3F ....
....|..|--- .... ....|--- .... ....|D#4 .F.F ....
....|..|--- .... ....|--- .... ....|D#4 .F.F ....
....|..|--- .... ....|--- .... ....|C#5 .F.F ....
....|..|--- .... ....|--- .... ....|B-4 .FFF ....
....|..|--- .... ....|--- .... ....|B-4 .F.A ....
....|..|--- .... ....|--- .... ....|G#4 .F2F ....
....|..|--- .... ....|--- .... ....|D#4 .F37 ....
....|..|R-- .... ....|--- .... ....|D#4 .F3F ....
....|..|--- .... ....|--- .... ....|D#4 .F.F ....
....|..|A#4 .F2F ....|F#4 ...F ....|F#4 .F1F ....
....|..|F#4 .F1F ....|--- .... ....|G#4 .F.A ....
....|..|--- .... ....|--- .... ....|B-4 .FF7 ....
....|..|--- .... ....|--- .... ....|D#4 .F.A ....
....|..|--- .... ....|--- .... ....|F#4 .F1F ....
....|..|--- .... ....|--- .... ....|G#4 .F.7 ....
....|..|--- .... ....|--- .... ....|F#4 .F1F ....
....|..|--- .... ....|--- .... ....|B-4 .F.7 ....
....|..|--- .... ....|--- .... ....|A#4 .F2F ....
....|..|--- .... ....|R-- .... ....|--- .... ....
....|..|R-- .... ....|--- .... ....|F#4 .F1F ....
....|..|--- .... ....|--- .... ....|D#4 .F.A ....
....|..|A#4 .F2A ....|F#5 ...F ....|F#4 .F1F ....
....|..|F#4 .F1A ....|--- .... ....|G#4 .F.7 ....
....|..|--- .... ....|R-- .... ....|F#4 .F1F ....
....|..|--- .... ....|--- .... ....|D#4 .F.7 ....
....|..|--- .... ....|F-5 ...F ....|A#4 .F2F ....
....|..|--- .... ....|--- .... ....|C#5 .F.7 ....
....|..|--- .... ....|--- .... ....|F#4 .F1F ....
....|..|--- .... ....|--- .... ....|--- .... ....
....|..|--- .... ....|--- .... ....|F#4 .F1F ....
....|..|--- .... ....|R-- .... ....|--- .... ....
....|..|R-- .... ....|C#5 ...F ....|F#4 .F1F ....
....|..|--- .... ....|--- .... ....|D#4 .F.7 ....
....|..|A#4 .F27 ....|F#4 ...7 ....|F#4 .F1F ....
....|..|F#4 .F17 ....|--- .... ....|--- .... ....
....|..|--- .... ....|R-- .... ....|F#4 .F1F ....
....|..|--- .... ....|--- .... ....|--- .... ....
....|..|--- .... ....|A#4 ...F ....|F#4 .F1F ....
....|..|R-- .... ....|R-- .... ....|--- .... ....
....|..|--- .... ....|--- .... ....|F#4 .F1F ....
....|..|--- .... ....|--- .... ....|--- .... ....

[Pattern4]
....|..|D#4 .F3F ....|D#5 ...F ....|G#4 .F1F ....
....|..|C-4 .F4F ....|R-- .... ....|--- .... ....
....|..|--- .... ....|C#5 ...A ....|F#4 .F17 ....
....|..|--- .... ....|--- .... ....|--- .... ....
....|..|--- .... ....|F#5 ...7 ....|G#4 .F1F ....
....|..|--- .... ....|--- .... ....|--- .... ....
....|..|--- .... ....|R-- .... ....|G#4 .F1F ....
....|..|--- .... ....|--- .... ....|--- .... ....
....|..|--- .... ....|F-5 ...7 ....|C-4 .F2F ....
....|..|R-- .... ....|R-- .... ....|--- .... ....
....|..|--- .... ....|--- .... ....|G#4 .F1F ....
....|..|--- .... ....|--- .... ....|--- .... ....
....|..|D#4 .F3A ....|D#5 ...A ....|G#4 .F1F ....
....|..|C-4 .F4A ....|R-- .... ....|--- .... ....
....|..|--- .... ....|C#5 ...7 ....|G#4 .F1F ....
....|..|--- .... ....|R-- .... ....|--- .... ....
....|..|--- .... ....|G#4 ...F ....|C-4 .F2F ....
....|..|--- .... ....|--- .... ....|--- .... ....
....|..|--- .... ....|R-- .... ....|G#4 .F1F ....
....|..|--- .... ....|--- .... ....|--- .... ....
....|..|--- .... ....|A#4 ...7 ....|G#4 .F1F ....
....|..|R-- .... ....|R-- .... ....|--- .... ....
....|..|--- .... ....|--- .... ....|G#4 .F1F ....
....|..|--- .... ....|--- .... ....|--- .... ....
....|..|D#4 .F37 ....|D#5 ...7 ....|G#4 .F1F ....
....|..|C-4 .F47 ....|--- .... ....|--- .... ....
....|..|--- .... ....|--- .... ....|G#4 .F1F ....
....|..|--- .... ....|F#4 ...F ....|--- .... ....
....|..|--- .... ....|F-4 ...F ....|G#4 .F1F ....
....|..|R-- .... ....|B-3 ...F ....|--- .... ....
....|..|--- .... ....|R-- .... ....|G#4 .F1F ....
....|..|--- .... ....|--- .... ....|--- .... ....
....|..|F-4 .F2F ....|G#4 ...F ....|F-4 .F7F ....
....|..|C-4 .F5F ....|--- .... ....|--- .... ....
....|..|--- .... ....|--- .... ....|G#4 .F17 ....
....|..|--- .... ....|--- .... ....|--- .... ....
....|..|--- .... ....|--- .... ....|F-4 .F7F ....
....|..|--- .... ....|--- .... ....|--- .... ....
....|..|--- .... ....|--- .... ....|F-4 .F7F ....
....|..|--- .... ....|R-- .... ....|--- .... ....
....|..|--- .... ....|G#4 ...7 ....|G#4 .F6F ....
....|..|R-- .... ....|B-3 ...A ....|--- .... ....
....|..|--- .... ....|R-- .... ....|F-4 .F7F ....
....|..|--- .... ....|--- .... ....|--- .... ....
....|..|F-4 .F2A ....|A#4 ...F ....|F-4 .F7F ....
....|..|C-4 .F5A ....|--- .... ....|--- .... ....
....|..|C-4 .F3F ....|R-- .... ....|F-4 .F7F ....
....|..|R-- .... ....|--- .... ....|--- .... ....

[Pattern5]
....|..|C#4 .F6F ....|C#5 ...F ....|F-4 .F3F ....
....|..|C#4 .F6F ....|--- .... ....|--- .... ....
....|..|--- .... ....|--- .... ....|C#4 .F6F ....
....|..|--- .... ....|F#4 ...7 ....|--- .... ....
....|..|--- .... ....|G#4 ...F ....|C#4 .F6F ....
....|..|R-- .... ....|B-3 ...7 ....|--- .... ....
....|..|--- .... ....|R-- .... ....|C#4 .F6F ....
....|..|--- .... ....|--- .... ....|--- .... ....
....|..|F-4 .F27 ....|F-4 ...F ....|C#4 .F6F ....
....|..|C-4 .F57 ....|--- .... ....|--- .... ....
....|..|C-4 .F3A ....|R-- .... ....|C#4 .F6F ....
....|..|R-- .... ....|--- .... ....|--- .... ....
....|..|C#4 .F6A ....|G#4 ...F ....|C#4 .F6F ....
....|..|C#4 .F6A ....|--- .... ....|--- .... ....
....|..|F-4 .F3F ....|--- .... ....|C#4 .F6F ....
....|..|R-- .... ....|--- .... ....|--- .... ....
....|..|F#4 .F6F ....|G#4 ...A ....|D#4 .F7F ....
....|..|D#4 .F7F ....|R-- .... ....|--- .... ....
....|..|--- .... ....|F#4 ...F ....|F-4 .F77 ....
....|..|--- .... ....|--- .... ....|--- .... ....
....|..|--- .... ....|A#4 ...7 ....|D#4 .F7F ....
....|..|--- .... ....|--- .... ....|--- .... ....
....|..|C-4 .F37 ....|R-- .... ....|D#4 .F7F ....
....|..|R-- .... ....|--- .... ....|--- .... ....
....|..|C#4 .F67 ....|C#5 ...7 ....|F#4 .F6F ....
....|..|C#4 .F67 ....|--- .... ....|--- .... ....
....|..|F-4 .F3A ....|--- .... ....|D#4 .F7F ....
....|..|R-- .... ....|--- .... ....|--- .... ....
....|..|F#4 .F6A ....|G#4 ...7 ....|D#4 .F7F ....
....|..|D#4 .F7A ....|R-- .... ....|--- .... ....
....|..|--- .... ....|F#4 ...A ....|D#4 .F7F ....
....|..|--- .... ....|--- .... ....|--- .... ....
....|..|--- .... ....|F-4 ...7 ....|F#4 .F6F ....
....|..|--- .... ....|--- .... ....|--- .... ....
....|..|--- .... ....|--- .... ....|D#4 .F7F ....
....|..|--- .... ....|--- .... ....|--- .... ....
....|..|--- .... ....|G#4 ...7 ....|D#4 .F7F ....
....|..|--- .... ....|--- .... ....|--- .... ....
....|..|F-4 .F37 ....|--- .... ....|D#4 .F7F ....
....|..|R-- .... ....|--- .... ....|--- .... ....
....|..|F#4 .F67 ....|--- .... ....|D#4 .F7F ....
....|..|D#4 .F77 ....|R-- .... ....|--- .... ....
....|..|--- .... ....|F#4 ...7 ....|D#4 .F7F ....
....|..|--- .... ....|--- .... ....|--- .... ....
....|..|--- .... ....|--- .... ....|D#4 .F7F ....
....|..|R-- .... ....|R-- .... ....|--- .... ....
....|..|--- .... ....|--- .... ....|D#4 .F7F ....
....|..|--- .... ....|--- .... ....|--- .... ....

[Pattern6]
....|..|D#4 .F2F ....|F#4 ...F ....|D#4 .F4F ....
....|..|B-3 .F1F ....|--- .... ....|--- .... ....
....|..|--- .... ....|--- .... ....|D#4 .F77 ....
....|..|--- .... ....|--- .... ....|--- .... ....
....|..|--- .... ....|--- .... ....|D#4 .F4F ....
....|..|--- .... ....|--- .... ....|--- .... ....
....|..|--- .... ....|--- .... ....|D#4 .F4F ....
....|..|--- .... ....|--- .... ....|--- .... ....
....|..|--- .... ....|--- .... ....|F#4 .F3F ....
....|..|R-- .... ....|R-- .... ....|--- .... ....
....|..|--- .... ....|R-- .... ....|D#4 .F4F ....
....|..|--- .... ....|--- .... ....|--- .... ....
....|..|D#4 .F2A ....|F#4 ...F ....|D#4 .F4F ....
....|..|B-3 .F1A ....|R-- .... ....|--- .... ....
....|..|--- .... ....|--- .... ....|D#4 .F4F ....
....|..|--- .... ....|--- .... ....|--- .... ....
....|..|--- .... ....|D#5 ...F ....|F#4 .F3F ....
....|..|--- .... ....|--- .... ....|--- .... ....
....|..|--- .... ....|--- .... ....|D#4 .F4F ....
....|..|--- .... ....|R-- .... ....|--- .... ....
....|..|--- .... ....|C#5 ...F ....|D#4 .F4F ....
....|..|R-- .... ....|R-- .... ....|--- .... ....
....|..|--- .... ....|R-- .... ....|D#4 .F4F ....
....|..|--- .... ....|R-- .... ....|--- .... ....
....|..|D#4 .F27 ....|A#4 ...F ....|D#4 .F4F ....
....|..|B-3 .F17 ....|R-- .... ....|--- .... ....
....|..|--- .... ....|G#4 ...F ....|D#4 .F4F ....
....|..|--- .... ....|--- .... ....|--- .... ....
....|..|--- .... ....|D#5 ...A ....|D#4 .F4F ....
....|..|R-- .... ....|R-- .... ....|--- .... ....
....|..|--- .... ....|F#4 ...F ....|D#4 .F4F ....
....|..|--- .... ....|R-- .... ....|--- .... ....
....|..|D#4 .F3F ....|G#4 ...F ....|D#4 .F5F ....
....|..|B-3 .F6F ....|--- .... ....|--- .... ....
....|..|--- .... ....|R-- .... ....|D#4 .F47 ....
....|..|--- .... ....|R-- .... ....|--- .... ....
....|..|--- .... ....|F#4 ...7 ....|D#4 .F5F ....
....|..|--- .... ....|R-- .... ....|--- .... ....
....|..|--- .... ....|G#4 ...A ....|D#4 .F5F ....
....|..|--- .... ....|--- .... ....|--- .... ....
....|..|--- .... ....|D#5 ...7 ....|G#4 .F2F ....
....|..|R-- .... ....|R-- .... ....|--- .... ....
....|..|--- .... ....|F#4 ...A ....|D#4 .F5F ....
....|..|--- .... ....|R-- .... ....|--- .... ....
....|..|D#4 .F3A ....|C#5 ...7 ....|D#4 .F5F ....
....|..|B-3 .F6A ....|--- .... ....|--- .... ....
....|..|--- .... ....|--- .... ....|D#4 .F5F ....
....|..|--- .... ....|R-- .... ....|--- .... ....

[Pattern7]
....|..|--- .... ....|A#4 ...7 ....|G#4 .F2F ....
....|..|--- .... ....|--- .... ....|--- .... ....
....|..|--- .... ....|G#4 ...7 ....|D#4 .F5F ....
....|..|--- .... ....|--- .... ....|--- .... ....
....|..|--- .... ....|--- .... ....|D#4 .F5F ....
....|..|R-- .... ....|R-- .... ....|--- .... ....
....|..|--- .... ....|F#4 ...7 ....|D#4 .F5F ....
....|..|--- .... ....|R-- .... ....|--- .... ....
....|..|D#4 .F37 ....|G#4 ...F ....|D#4 .F5F ....
....|..|B-3 .F67 ....|R-- .... ....|--- .... ....
....|..|--- .... ....|A#4 ...F ....|D#4 .F5F ....
....|..|--- .... ....|--- .... ....|--- .... ....
....|..|--- .... ....|--- .... ....|D#4 .F5F ....
....|..|R-- .... ....|--- .... ....|--- .... ....
....|..|--- .... ....|R-- .... ....|D#4 .F5F ....
....|..|--- .... ....|R-- .... ....|--- .... ....
....|..|F-4 .F2F ....|C#5 ...F ....|G#4 .F7F ....
....|..|C#4 .F1F ....|--- .... ....|--- .... ....
....|..|--- .... ....|--- .... ....|D#4 .F57 ....
....|..|--- .... ....|--- .... ....|--- .... ....
....|..|--- .... ....|G#4 ...A ....|G#4 .F7F ....
....|..|--- .... ....|R-- .... ....|--- .... ....
....|..|--- .... ....|A#4 ...A ....|G#4 .F7F ....
....|..|--- .... ....|--- .... ....|--- .... ....
....|..|--- .... ....|--- .... ....|B-4 .F6F ....
....|..|R-- .... ....|C-5 ...F ....|--- .... ....
....|..|--- .... ....|A#4 ...F ....|G#4 .F7F ....
....|..|--- .... ....|F#4 ...F ....|--- .... ....
....|..|F-4 .F2A ....|D#4 ...F ....|G#4 .F7F ....
....|..|C#4 .F1A ....|R-- .... ....|--- .... ....
....|..|--- .... ....|--- .... ....|G#4 .F7F ....
....|..|--- .... ....|--- .... ....|--- .... ....
....|..|--- .... ....|G#4 ...7 ....|B-4 .F6F ....
....|..|--- .... ....|R-- .... ....|--- .... ....
....|..|--- .... ....|A#4 ...7 ....|G#4 .F7F ....
....|..|--- .... ....|--- .... ....|--- .... ....
....|..|--- .... ....|D#5 ...F ....|G#4 .F7F ....
....|..|R-- .... ....|C-5 ...A ....|--- .... ....
....|..|--- .... ....|R-- .... ....|G#4 .F7F ....
....|..|--- .... ....|R-- .... ....|--- .... ....
....|..|F-4 .F27 ....|F#5 ...F ....|G#4 .F7F ....
....|..|C#4 .F17 ....|R-- .... ....|--- .... ....
....|..|--- .... ....|--- .... ....|G#4 .F7F ....
....|..|--- .... ....|R-- .... ....|--- .... ....
....|..|--- .... ....|D#5 ...F ....|G#4 .F7F ....
....|..|R-- .... ....|--- .... ....|--- .... ....
....|..|--- .... ....|--- .... ....|G#4 .F7F ....
....|..|--- .... ....|--- .... ....|--- .... ....

[Pattern8]
....|..|G#4 .F.F ....|D#5 ...A ....|F-4 .F4F ....
....|..|--- .... ....|C-5 ...7 ....|--- .... ....
....|..|--- .... ....|C#5 ...F ....|G#4 .F77 ....
....|..|--- .... ....|F#4 ...7 ....|--- .... ....
....|..|G#4 .F2F ....|D#4 ...7 ....|F-4 .F4F ....
....|..|--- .... ....|R-- .... ....|--- .... ....
....|..|--- .... ....|--- .... ....|F-4 .F4F ....
....|..|--- .... ....|R-- .... ....|--- .... ....
....|..|G#4 .F7F ....|D#5 ...A ....|G#4 .F3F ....
....|..|R-- .... ....|--- .... ....|--- .... ....
....|..|--- .... ....|--- .... ....|F-4 .F4F ....
....|..|--- .... ....|--- .... ....|--- .... ....
....|..|G#4 .F7F ....|D#5 ...7 ....|F-4 .F4F ....
....|..|--- .... ....|R-- .... ....|--- .... ....
....|..|--- .... ....|R-- .... ....|F-4 .F4F ....
....|..|--- .... ....|--- .... ....|--- .... ....
....|..|G#4 .F7F ....|F#5 ...7 ....|G#4 .F3F ....
....|..|--- .... ....|--- .... ....|--- .... ....
....|..|--- .... ....|--- .... ....|F-4 .F4F ....
....|..|--- .... ....|R-- .... ....|--- .... ....
....|..|G#4 .F7F ....|D#5 ...7 ....|F-4 .F4F ....
....|..|R-- .... ....|--- .... ....|--- .... ....
....|..|--- .... ....|--- .... ....|F-4 .F4F ....
....|..|--- .... ....|--- .... ....|--- .... ....
....|..|G#4 .F7F ....|--- .... ....|F-4 .F4F ....
....|..|--- .... ....|R-- .... ....|--- .... ....
....|..|--- .... ....|C#5 ...7 ....|F-4 .F4F ....
....|..|--- .... ....|--- .... ....|--- .... ....
....|..|G#4 .F2F ....|--- .... ....|F-4 .F4F ....
....|..|--- .... ....|--- .... ....|--- .... ....
....|..|B-4 .F8F ....|--- .... ....|F-4 .F4F ....
....|..|F#5 .F.F ....|--- .... ....|--- .... ....
....|..|F#4 .F1F ....|F#4 ...F ....|F#4 .F1F ....
....|..|--- .... ....|--- .... ....|--- .... ....
....|..|--- .... ....|--- .... ....|F-4 .F47 ....
....|..|--- .... ....|--- .... ....|--- .... ....
....|..|G#4 .F77 ....|--- .... ....|F#4 .F1F ....
....|..|--- .... ....|R-- .... ....|--- .... ....
....|..|--- .... ....|--- .... ....|F#4 .F1F ....
....|..|--- .... ....|--- .... ....|--- .... ....
....|..|G#4 .F77 ....|--- .... ....|A#4 .F2F ....
....|..|--- .... ....|R-- .... ....|--- .... ....
....|..|B-4 .F8A ....|--- .... ....|F#4 .F1F ....
....|..|F#5 .F.A ....|--- .... ....|--- .... ....
....|..|G#4 .F77 ....|F#5 ...F ....|F#4 .F1F ....
....|..|--- .... ....|R-- .... ....|--- .... ....
....|..|--- .... ....|--- .... ....|F#4 .F1F ....
....|..|--- .... ....|--- .... ....|--- .... ....

[Pattern9]
....|..|G#4 .F77 ....|F-5 ...F ....|A#4 .F2F ....
....|..|--- .... ....|R-- .... ....|--- .... ....
....|..|--- .... ....|--- .... ....|F#4 .F1F ....
....|..|--- .... ....|--- .... ....|--- .... ....
....|..|G#4 .F27 ....|--- .... ....|F#4 .F1F ....
....|..|--- .... ....|R-- .... ....|--- .... ....
....|..|B-4 .F87 ....|--- .... ....|F#4 .F1F ....
....|..|F#5 .F.7 ....|--- .... ....|--- .... ....
....|..|F#4 .F17 ....|C#5 ...F ....|F#4 .F1F ....
....|..|--- .... ....|R-- .... ....|--- .... ....
....|..|--- .... ....|A#4 ...F ....|F#4 .F1F ....
....|..|--- .... ....|--- .... ....|--- .... ....
....|..|F#4 .F6F ....|F-5 ...A ....|F#4 .F1F ....
....|..|R-- .... ....|--- .... ....|--- .... ....
....|..|--- .... ....|--- .... ....|F#4 .F1F ....
....|..|--- .... ....|R-- .... ....|--- .... ....
....|..|D#4 .F3F ....|D#5 ...F ....|G#4 .F1F ....
....|..|C-4 .F4F ....|R-- .... ....|--- .... ....
....|..|--- .... ....|--- .... ....|F#4 .F17 ....
....|..|--- .... ....|--- .... ....|--- .... ....
....|..|--- .... ....|F#5 ...7 ....|G#4 .F1F ....
....|..|--- .... ....|R-- .... ....|--- .... ....
....|..|--- .... ....|A#4 ...A ....|G#4 .F1F ....
....|..|--- .... ....|--- .... ....|--- .... ....
....|..|F#4 .F6A ....|F-5 ...7 ....|C-4 .F2F ....
....|..|R-- .... ....|--- .... ....|--- .... ....
....|..|--- .... ....|--- .... ....|G#4 .F1F ....
....|..|--- .... ....|R-- .... ....|--- .... ....
....|..|D#4 .F3A ....|D#5 ...A ....|G#4 .F1F ....
....|..|C-4 .F4A ....|R-- .... ....|--- .... ....
....|..|--- .... ....|--- .... ....|G#4 .F1F ....
....|..|--- .... ....|R-- .... ....|--- .... ....
....|..|--- .... ....|G#4 ...F ....|C-4 .F2F ....
....|..|--- .... ....|R-- .... ....|--- .... ....
....|..|--- .... ....|A#4 ...7 ....|G#4 .F1F ....
....|..|--- .... ....|--- .... ....|--- .... ....
....|..|F#4 .F67 ....|--- .... ....|G#4 .F1F ....
....|..|R-- .... ....|--- .... ....|--- .... ....
....|..|--- .... ....|--- .... ....|G#4 .F1F ....
....|..|--- .... ....|R-- .... ....|--- .... ....
....|..|D#4 .F37 ....|D#5 ...7 ....|G#4 .F1F ....
....|..|C-4 .F47 ....|--- .... ....|--- .... ....
....|..|--- .... ....|--- .... ....|G#4 .F1F ....
....|..|--- .... ....|R-- .... ....|--- .... ....
....|..|--- .... ....|G#4 ...A ....|G#4 .F1F ....
....|..|R-- .... ....|--- .... ....|--- .... ....
....|..|--- .... ....|--- .... ....|G#4 .F1F ....
....|..|--- .... ....|R-- .... ....|--- .... ....

[Pattern10]
....|..|F-4 .F2F ....|G#4 ...F ....|F-4 .F7F ....
....|..|C-4 .F5F ....|--- .... ....|--- .... ....
....|..|--- .... ....|--- .... ....|G#4 .F17 ....
....|..|--- .... ....|--- .... ....|--- .... ....
....|..|--- .... ....|--- .... ....|F-4 .F7F ....
....|..|--- .... ....|--- .... ....|--- .... ....
....|..|--- .... ....|--- .... ....|F-4 .F7F ....
....|..|--- .... ....|R-- .... ....|--- .... ....
....|..|--- .... ....|G#4 ...7 ....|G#4 .F6F ....
....|..|R-- .... ....|R-- .... ....|--- .... ....
....|..|--- .... ....|--- .... ....|F-4 .F7F ....
....|..|--- .... ....|R-- .... ....|--- .... ....
....|..|F-4 .F2A ....|A#4 ...F ....|F-4 .F7F ....
....|..|C-4 .F5A ....|--- .... ....|--- .... ....
....|..|C-4 .F3F ....|R-- .... ....|F-4 .F7F ....
....|..|R-- .... ....|--- .... ....|--- .... ....
....|..|F-4 .F3F ....|C#5 ...F ....|F-4 .F3F ....
....|..|C#4 .F6F ....|R-- .... ....|--- .... ....
....|..|--- .... ....|G#4 ...F ....|C#4 .F6F ....
....|..|--- .... ....|--- .... ....|--- .... ....
....|..|--- .... ....|--- .... ....|C#4 .F6F ....
....|..|R-- .... ....|R-- .... ....|--- .... ....
....|..|--- .... ....|--- .... ....|C#4 .F6F ....
....|..|--- .... ....|R-- .... ....|--- .... ....
....|..|F-4 .F27 ....|F-4 ...F ....|C#4 .F6F ....
....|..|C-4 .F57 ....|--- .... ....|--- .... ....
....|..|C-4 .F3A ....|R-- .... ....|C#4 .F6F ....
....|..|R-- .... ....|R-- .... ....|--- .... ....
....|..|F-4 .F3A ....|G#4 ...F ....|C#4 .F6F ....
....|..|C#4 .F6A ....|R-- .... ....|--- .... ....
....|..|C#4 .F6F ....|G#4 ...A ....|C#4 .F6F ....
....|..|R-- .... ....|--- .... ....|--- .... ....
....|..|F#4 .F6F ....|--- .... ....|D#4 .F7F ....
....|..|D#4 .F7F ....|R-- .... ....|--- .... ....
....|..|--- .... ....|--- .... ....|F-4 .F77 ....
....|..|--- .... ....|R-- .... ....|--- .... ....
....|..|--- .... ....|F#4 ...F ....|D#4 .F7F ....
....|..|--- .... ....|--- .... ....|--- .... ....
....|..|C-4 .F37 ....|R-- .... ....|D#4 .F7F ....
....|..|R-- .... ....|R-- .... ....|--- .... ....
....|..|F-4 .F37 ....|C#5 ...7 ....|F#4 .F6F ....
....|..|C#4 .F67 ....|R-- .... ....|--- .... ....
....|..|C#4 .F6A ....|G#4 ...7 ....|D#4 .F7F ....
....|..|R-- .... ....|--- .... ....|--- .... ....
....|..|F#4 .F6A ....|--- .... ....|D#4 .F7F ....
....|..|D#4 .F7A ....|R-- .... ....|--- .... ....
....|..|--- .... ....|--- .... ....|D#4 .F7F ....
....|..|--- .... ....|R-- .... ....|--- .... ....

[Pattern11]
....|..|--- .... ....|F-4 ...7 ....|F#4 .F6F ....
....|..|--- .... ....|--- .... ....|--- .... ....
....|..|--- .... ....|--- .... ....|D#4 .F7F ....
....|..|--- .... ....|R-- .... ....|--- .... ....
....|..|--- .... ....|G#4 ...7 ....|D#4 .F7F ....
....|..|--- .... ....|--- .... ....|--- .... ....
....|..|C#4 .F67 ....|--- .... ....|D#4 .F7F ....
....|..|R-- .... ....|--- .... ....|--- .... ....
....|..|F#4 .F67 ....|--- .... ....|D#4 .F7F ....
....|..|D#4 .F77 ....|R-- .... ....|--- .... ....
....|..|--- .... ....|--- .... ....|D#4 .F7F ....
....|..|--- .... ....|--- .... ....|--- .... ....
....|..|--- .... ....|F#4 ...7 ....|D#4 .F7F ....
....|..|R-- .... ....|--- .... ....|--- .... ....
....|..|--- .... ....|--- .... ....|D#4 .F7F ....
....|..|--- .... ....|R-- .... ....|--- .... ....
....|..|D#4 .F2F ....|F#4 ...F ....|D#4 .F4F ....
....|..|B-3 .F1F ....|--- .... ....|--- .... ....
....|..|--- .... ....|--- .... ....|D#4 .F77 ....
....|..|--- .... ....|--- .... ....|--- .... ....
....|..|--- .... ....|--- .... ....|D#4 .F4F ....
....|..|--- .... ....|--- .... ....|--- .... ....
....|..|--- .... ....|--- .... ....|D#4 .F4F ....
....|..|--- .... ....|--- .... ....|--- .... ....
....|..|--- .... ....|--- .... ....|F#4 .F3F ....
....|..|R-- .... ....|--- .... ....|--- .... ....
....|..|--- .... ....|R-- .... ....|D#4 .F4F ....
....|..|--- .... ....|R-- .... ....|--- .... ....
....|..|D#4 .F2A ....|F#4 ...F ....|D#4 .F4F ....
....|..|B-3 .F1A ....|--- .... ....|--- .... ....
....|..|--- .... ....|R-- .... ....|D#4 .F4F ....
....|..|--- .... ....|--- .... ....|--- .... ....
....|..|--- .... ....|D#5 ...F ....|F#4 .F3F ....
....|..|--- .... ....|--- .... ....|--- .... ....
....|..|--- .... ....|--- .... ....|D#4 .F4F ....
....|..|--- .... ....|R-- .... ....|--- .... ....
....|..|--- .... ....|C#5 ...F ....|D#4 .F4F ....
....|..|R-- .... ....|--- .... ....|--- .... ....
....|..|--- .... ....|R-- .... ....|D#4 .F4F ....
....|..|--- .... ....|R-- .... ....|--- .... ....
....|..|D#4 .F27 ....|A#4 ...F ....|D#4 .F4F ....
....|..|B-3 .F17 ....|R-- .... ....|--- .... ....
....|..|--- .... ....|G#4 ...F ....|D#4 .F4F ....
....|..|--- .... ....|--- .... ....|--- .... ....
....|..|--- .... ....|D#5 ...A ....|D#4 .F4F ....
....|..|R-- .... ....|--- .... ....|--- .... ....
....|..|--- .... ....|F#4 ...F ....|D#4 .F4F ....
....|..|--- .... ....|R-- .... ....|--- .... ....

[Pattern12]
....|..|D#4 .F3F ....|G#4 ...F ....|D#4 .F5F ....
....|..|B-3 .F6F ....|--- .... ....|--- .... ....
....|..|--- .... ....|R-- .... ....|D#4 .F47 ....
....|..|--- .... ....|R-- .... ....|--- .... ....
....|..|--- .... ....|F#4 ...7 ....|D#4 .F5F ....
....|..|--- .... ....|R-- .... ....|--- .... ....
....|..|--- .... ....|R-- .... ....|D#4 .F5F ....
....|..|--- .... ....|--- .... ....|--- .... ....
....|..|--- .... ....|D#5 ...7 ....|G#4 .F2F ....
....|..|R-- .... ....|--- .... ....|--- .... ....
....|..|--- .... ....|F#4 ...A ....|D#4 .F5F ....
....|..|--- .... ....|R-- .... ....|--- .... ....
....|..|D#4 .F3A ....|C#5 ...7 ....|D#4 .F5F ....
....|..|B-3 .F6A ....|--- .... ....|--- .... ....
....|..|--- .... ....|--- .... ....|D#4 .F5F ....
....|..|--- .... ....|R-- .... ....|--- .... ....
....|..|--- .... ....|A#4 ...7 ....|G#4 .F2F ....
....|..|--- .... ....|R-- .... ....|--- .... ....
....|..|--- .... ....|G#4 ...7 ....|D#4 .F5F ....
....|..|--- .... ....|R-- .... ....|--- .... ....
....|..|--- .... ....|--- .... ....|D#4 .F5F ....
....|..|R-- .... ....|--- .... ....|--- .... ....
....|..|--- .... ....|F#4 ...7 ....|D#4 .F5F ....
....|..|--- .... ....|R-- .... ....|--- .... ....
....|..|D#4 .F37 ....|G#4 ...F ....|D#4 .F5F ....
....|..|B-3 .F67 ....|R-- .... ....|--- .... ....
....|..|--- .... ....|A#4 ...F ....|D#4 .F5F ....
....|..|--- .... ....|--- .... ....|--- .... ....
....|..|--- .... ....|--- .... ....|D#4 .F5F ....
....|..|R-- .... ....|--- .... ....|--- .... ....
....|..|--- .... ....|--- .... ....|D#4 .F5F ....
....|..|--- .... ....|R-- .... ....|--- .... ....
....|..|F-4 .F2F ....|C#5 ...F ....|F-4 .F4F ....
....|..|C#4 .F1F ....|--- .... ....|--- .... ....
....|..|--- .... ....|--- .... ....|D#4 .F57 ....
....|..|--- .... ....|--- .... ....|--- .... ....
....|..|--- .... ....|G#4 ...A ....|F-4 .F4F ....
....|..|--- .... ....|R-- .... ....|--- .... ....
....|..|--- .... ....|A#4 ...A ....|F-4 .F4F ....
....|..|--- .... ....|--- .... ....|--- .... ....
....|..|--- .... ....|--- .... ....|G#4 .F3F ....
....|..|R-- .... ....|--- .... ....|--- .... ....
....|..|--- .... ....|--- .... ....|F-4 .F4F ....
....|..|--- .... ....|R-- .... ....|--- .... ....
....|..|F-4 .F2A ....|C#5 ...A ....|F-4 .F4F ....
....|..|C#4 .F1A ....|--- .... ....|--- .... ....
....|..|--- .... ....|--- .... ....|F-4 .F4F ....
....|..|--- .... ....|--- .... ....|--- .... ....

[Pattern13]
....|..|--- .... ....|G#4 ...7 ....|G#4 .F3F ....
....|..|--- .... ....|R-- .... ....|--- .... ....
....|..|--- .... ....|A#4 ...7 ....|F-4 .F4F ....
....|..|--- .... ....|--- .... ....|--- .... ....
....|..|--- .... ....|D#5 ...F ....|F-4 .F4F ....
....|..|R-- .... ....|R-- .... ....|--- .... ....
....|..|--- .... ....|--- .... ....|F-4 .F4F ....
....|..|--- .... ....|R-- .... ....|--- .... ....
....|..|F-4 .F27 ....|F#5 ...F ....|F-4 .F4F ....
....|..|C#4 .F17 ....|--- .... ....|--- .... ....
....|..|--- .... ....|--- .... ....|F-4 .F4F ....
....|..|--- .... ....|R-- .... ....|--- .... ....
....|..|--- .... ....|D#5 ...F ....|F-4 .F4F ....
....|..|R-- .... ....|--- .... ....|--- .... ....
....|..|--- .... ....|R-- .... ....|F-4 .F4F ....
....|..|--- .... ....|R-- .... ....|--- .... ....
....|..|F-4 .F3F ....|C#5 ...F ....|C#4 .F6F ....
....|..|C#4 .F6F ....|R-- .... ....|--- .... ....
....|..|--- .... ....|--- .... ....|F-4 .F47 ....
....|..|--- .... ....|--- .... ....|--- .... ....
....|..|--- .... ....|F#5 ...A ....|C#4 .F6F ....
....|..|--- .... ....|--- .... ....|--- .... ....
....|..|--- .... ....|--- .... ....|C#4 .F6F ....
....|..|--- .... ....|R-- .... ....|--- .... ....
....|..|--- .... ....|D#5 ...A ....|F-4 .F3F ....
....|..|R-- .... ....|--- .... ....|--- .... ....
....|..|--- .... ....|R-- .... ....|C#4 .F6F ....
....|..|--- .... ....|R-- .... ....|--- .... ....
....|..|F-4 .F3A ....|D#5 ...7 ....|C#4 .F6F ....
....|..|C#4 .F6A ....|R-- .... ....|--- .... ....
....|..|C#4 .F6F ....|--- .... ....|C#4 .F6F ....
....|..|R-- .... ....|R-- .... ....|--- .... ....
....|..|F-4 .F3F ....|D-5 ...F ....|F-4 .F3F ....
....|..|D-4 .F4F ....|--- .... ....|--- .... ....
....|..|--- .... ....|--- .... ....|D-4 .F4F ....
....|..|--- .... ....|R-- .... ....|--- .... ....
....|..|--- .... ....|D#5 ...7 ....|D-4 .F4F ....
....|..|R-- .... ....|--- .... ....|--- .... ....
....|..|--- .... ....|--- .... ....|D-4 .F4F ....
....|..|--- .... ....|R-- .... ....|--- .... ....
....|..|F-4 .F37 ....|C#5 ...7 ....|D-4 .F4F ....
....|..|C#4 .F67 ....|--- .... ....|--- .... ....
....|..|C#4 .F6A ....|--- .... ....|D-4 .F4F ....
....|..|R-- .... ....|R-- .... ....|--- .... ....
....|..|F-4 .F3A ....|D-5 ...A ....|D-4 .F4F ....
....|..|D-4 .F4A ....|--- .... ....|--- .... ....
....|..|D-4 .F2F ....|--- .... ....|D-4 .F4F ....
....|..|R-- .... ....|R-- .... ....|--- .... ....

[Pattern14]
....|..|F#4 .F6F ....|D#5 ...F ....|A#3 .F.F ....
....|..|D#4 .F7F ....|--- .... ....|A#3 .F5F ....
....|..|--- .... ....|--- .... ....|A#3 .F5F ....
....|..|--- .... ....|--- .... ....|--- .... ....
....|..|--- .... ....|C#5 ...F ....|C#4 .F67 ....
....|..|--- .... ....|A#4 ...F ....|--- .... ....
....|..|C#4 .F67 ....|F#4 ...F ....|C#4 .F67 ....
....|..|R-- .... ....|D#4 ...F ....|--- .... ....
....|..|F-4 .F37 ....|F#5 ...F ....|F-4 .F37 ....
....|..|D-4 .F47 ....|--- .... ....|--- .... ....
....|..|D-4 .F2A ....|--- .... ....|D-4 .F47 ....
....|..|R-- .... ....|R-- .... ....|--- .... ....
....|..|F#4 .F6A ....|F-5 ...F ....|D-4 .F47 ....
....|..|D#4 .F7A ....|--- .... ....|A#3 .F5A ....
....|..|--- .... ....|--- .... ....|D-4 .F47 ....
....|..|--- .... ....|R-- .... ....|--- .... ....
....|..|--- .... ....|F#5 ...F ....|D-4 .F47 ....
....|..|--- .... ....|A#4 ...A ....|--- .... ....
....|..|--- .... ....|F#4 ...A ....|D-4 .F47 ....
....|..|--- .... ....|R-- .... ....|--- .... ....
....|..|--- .... ....|F-5 ...F ....|D-4 .F47 ....
....|..|--- .... ....|--- .... ....|--- .... ....
....|..|D-4 .F27 ....|--- .... ....|D-4 .F47 ....
....|..|R-- .... ....|R-- .... ....|--- .... ....
....|..|F#4 .F67 ....|C#5 ...F ....|A#3 .F.7 ....
....|..|D#4 .F77 ....|--- .... ....|A#3 .F57 ....
....|..|--- .... ....|--- .... ....|A#3 .F57 ....
....|..|--- .... ....|R-- .... ....|--- .... ....
....|..|--- .... ....|A#4 ...F ....|--- .... ....
....|..|R-- .... ....|A#4 ...7 ....|--- .... ....
....|..|--- .... ....|F#4 ...7 ....|A#3 .F3F ....
....|..|--- .... ....|D#4 ...7 ....|R-- .... ....
....|..|D#4 .F2F ....|C#5 ...F ....|B-3 .F6F ....
....|..|D#4 .F4F ....|--- .... ....|B-3 .F1F ....
....|..|--- .... ....|--- .... ....|--- .... ....
....|..|--- .... ....|R-- .... ....|--- .... ....
....|..|--- .... ....|D#5 ...F ....|--- .... ....
....|..|--- .... ....|--- .... ....|--- .... ....
....|..|--- .... ....|--- .... ....|--- .... ....
....|..|--- .... ....|R-- .... ....|--- .... ....
....|..|--- .... ....|F#5 ...7 ....|--- .... ....
....|..|R-- .... ....|--- .... ....|--- .... ....
....|..|--- .... ....|R-- .... ....|A#3 .F3A ....
....|..|--- .... ....|R-- .... ....|R-- .... ....
....|..|D#4 .F2A ....|D#5 ...F ....|B-3 .F6A ....
....|..|D#4 .F4A ....|--- .... ....|B-3 .F1A ....
....|..|--- .... ....|--- .... ....|--- .... ....
....|..|--- .... ....|R-- .... ....|--- .... ....

[Pattern15]
....|..|--- .... ....|C#5 ...7 ....|--- .... ....
....|..|--- .... ....|--- .... ....|--- .... ....
....|..|--- .... ....|--- .... ....|--- .... ....
....|..|--- .... ....|R-- .... ....|--- .... ....
....|..|--- .... ....|A#4 ...7 ....|--- .... ....
....|..|R-- .... ....|--- .... ....|--- .... ....
....|..|--- .... ....|R-- .... ....|A#3 .F37 ....
....|..|--- .... ....|R-- .... ....|R-- .... ....
....|..|D#4 .F27 ....|C#5 ...7 ....|B-3 .F67 ....
....|..|D#4 .F47 ....|--- .... ....|B-3 .F17 ....
....|..|--- .... ....|--- .... ....|--- .... ....
....|..|--- .... ....|R-- .... ....|--- .... ....
....|..|--- .... ....|D#5 ...7 ....|--- .... ....
....|..|R-- .... ....|R-- .... ....|--- .... ....
....|..|--- .... ....|--- .... ....|B-3 .F.F ....
....|..|--- .... ....|--- .... ....|R-- .... ....
....|..|D#4 .F2F ....|--- .... ....|A#3 .F.F ....
....|..|D#4 .F7F ....|--- .... ....|A#3 .F5F ....
....|..|--- .... ....|R-- .... ....|A#3 .F5F ....
....|..|--- .... ....|--- .... ....|--- .... ....
....|..|--- .... ....|D#5 ...7 ....|--- .... ....
....|..|--- .... ....|--- .... ....|--- .... ....
....|..|--- .... ....|--- .... ....|--- .... ....
....|..|--- .... ....|--- .... ....|--- .... ....
....|..|--- .... ....|F#5 ...F ....|--- .... ....
....|..|R-- .... ....|R-- .... ....|--- .... ....
....|..|--- .... ....|--- .... ....|B-3 .F.A ....
....|..|--- .... ....|R-- .... ....|R-- .... ....
....|..|D#4 .F2A ....|F-5 ...F ....|A#3 .F.A ....
....|..|D#4 .F7A ....|R-- .... ....|A#3 .F5A ....
....|..|--- .... ....|F#5 ...F ....|A#3 .F5A ....
....|..|--- .... ....|--- .... ....|--- .... ....
....|..|--- .... ....|--- .... ....|--- .... ....
....|..|--- .... ....|--- .... ....|--- .... ....
....|..|--- .... ....|--- .... ....|--- .... ....
....|..|--- .... ....|R-- .... ....|--- .... ....
....|..|--- .... ....|F-5 ...F ....|--- .... ....
....|..|R-- .... ....|R-- .... ....|--- .... ....
....|..|--- .... ....|--- .... ....|B-3 .F.7 ....
....|..|--- .... ....|R-- .... ....|R-- .... ....
....|..|D#4 .F27 ....|C#5 ...F ....|A#3 .F.7 ....
....|..|D#4 .F77 ....|R-- .... ....|A#3 .F57 ....
....|..|--- .... ....|F#5 ...A ....|A#3 .F57 ....
....|..|--- .... ....|R-- .... ....|--- .... ....
....|..|--- .... ....|A#4 ...F ....|--- .... ....
....|..|R-- .... ....|--- .... ....|--- .... ....
....|..|--- .... ....|--- .... ....|A#3 .F3F ....
....|..|--- .... ....|R-- .... ....|R-- .... ....

[Pattern16]
....|..|D#4 .F2F ....|C#5 ...F ....|B-3 .F6F ....
....|..|D#4 .F4F ....|--- .... ....|B-3 .F1F ....
....|..|--- .... ....|--- .... ....|--- .... ....
....|..|--- .... ....|R-- .... ....|--- .... ....
....|..|--- .... ....|D#5 ...F ....|--- .... ....
....|..|--- .... ....|R-- .... ....|--- .... ....
....|..|--- .... ....|F#5 ...7 ....|--- .... ....
....|..|--- .... ....|R-- .... ....|--- .... ....
....|..|--- .... ....|A#4 ...A ....|--- .... ....
....|..|R-- .... ....|--- .... ....|--- .... ....
....|..|--- .... ....|R-- .... ....|A#3 .F3A ....
....|..|--- .... ....|R-- .... ....|R-- .... ....
....|..|D#4 .F2A ....|D#5 ...F ....|B-3 .F6A ....
....|..|D#4 .F4A ....|--- .... ....|B-3 .F1A ....
....|..|--- .... ....|--- .... ....|--- .... ....
....|..|--- .... ....|R-- .... ....|--- .... ....
....|..|--- .... ....|C#5 ...7 ....|--- .... ....
....|..|--- .... ....|--- .... ....|--- .... ....
....|..|--- .... ....|--- .... ....|--- .... ....
....|..|--- .... ....|R-- .... ....|--- .... ....
....|..|--- .... ....|A#4 ...7 ....|--- .... ....
....|..|R-- .... ....|--- .... ....|--- .... ....
....|..|--- .... ....|R-- .... ....|A#3 .F37 ....
....|..|--- .... ....|R-- .... ....|R-- .... ....
....|..|D#4 .F27 ....|C#5 ...7 ....|B-3 .F67 ....
....|..|D#4 .F47 ....|--- .... ....|B-3 .F17 ....
....|..|--- .... ....|--- .... ....|--- .... ....
....|..|--- .... ....|R-- .... ....|--- .... ....
....|..|--- .... ....|D#5 ...7 ....|--- .... ....
....|..|R-- .... ....|R-- .... ....|--- .... ....
....|..|--- .... ....|--- .... ....|B-3 .F.F ....
....|..|--- .... ....|--- .... ....|R-- .... ....
....|..|F#4 .F3F ....|--- .... ....|F#4 .F3F ....
....|..|D#4 .F4F ....|--- .... ....|--- .... ....
....|..|--- .... ....|R-- .... ....|--- .... ....
....|..|--- .... ....|--- .... ....|--- .... ....
....|..|--- .... ....|D#5 ...7 ....|F#4 .F3F ....
....|..|--- .... ....|--- .... ....|--- .... ....
....|..|--- .... ....|--- .... ....|F#4 .F3F ....
....|..|--- .... ....|--- .... ....|--- .... ....
....|..|--- .... ....|D#5 ...F ....|B-4 .F6F ....
....|..|R-- .... ....|R-- .... ....|--- .... ....
....|..|--- .... ....|--- .... ....|F#4 .F3F ....
....|..|--- .... ....|R-- .... ....|R-- .... ....
....|..|F#4 .F3A ....|F-5 ...F ....|F#4 .F3F ....
....|..|D#4 .F4A ....|--- .... ....|--- .... ....
....|..|--- .... ....|--- .... ....|F#4 .F3F ....
....|..|--- .... ....|R-- .... ....|--- .... ....

[Pattern17]
....|..|--- .... ....|F#5 ...F ....|B-4 .F6F ....
....|..|--- .... ....|--- .... ....|--- .... ....
....|..|--- .... ....|--- .... ....|F#4 .F3F ....
....|..|--- .... ....|--- .... ....|--- .... ....
....|..|--- .... ....|F-5 ...F ....|F#4 .F3F ....
....|..|R-- .... ....|R-- .... ....|--- .... ....
....|..|--- .... ....|D#5 ...F ....|F#4 .F3F ....
....|..|--- .... ....|R-- .... ....|R-- .... ....
....|..|F#4 .F37 ....|F-5 ...A ....|F#4 .F3F ....
....|..|D#4 .F47 ....|--- .... ....|--- .... ....
....|..|--- .... ....|--- .... ....|F#4 .F3F ....
....|..|--- .... ....|R-- .... ....|--- .... ....
....|..|--- .... ....|F#5 ...A ....|F#4 .F3F ....
....|..|R-- .... ....|--- .... ....|--- .... ....
....|..|--- .... ....|--- .... ....|F#4 .F3F ....
....|..|--- .... ....|--- .... ....|--- .... ....
....|..|G#4 .F2F ....|D#5 ...7 ....|G#4 .F7F ....
....|..|D#4 .F5F ....|R-- .... ....|--- .... ....
....|..|--- .... ....|D#5 ...A ....|F#4 .F37 ....
....|..|--- .... ....|R-- .... ....|--- .... ....
....|..|--- .... ....|F-5 ...7 ....|G#4 .F7F ....
....|..|--- .... ....|--- .... ....|--- .... ....
....|..|--- .... ....|--- .... ....|G#4 .F7F ....
....|..|--- .... ....|R-- .... ....|--- .... ....
....|..|--- .... ....|D#5 ...F ....|B-4 .F6F ....
....|..|R-- .... ....|F-5 ...F ....|--- .... ....
....|..|--- .... ....|--- .... ....|G#4 .F7F ....
....|..|--- .... ....|--- .... ....|--- .... ....
....|..|G#4 .F2A ....|F-5 ...7 ....|G#4 .F7F ....
....|..|D#4 .F5A ....|F#5 ...F ....|--- .... ....
....|..|--- .... ....|D#5 ...7 ....|G#4 .F7F ....
....|..|--- .... ....|G#5 ...F ....|--- .... ....
....|..|--- .... ....|--- .... ....|B-4 .F6F ....
....|..|--- .... ....|--- .... ....|--- .... ....
....|..|--- .... ....|--- .... ....|G#4 .F7F ....
....|..|--- .... ....|--- .... ....|--- .... ....
....|..|--- .... ....|F#5 ...F ....|G#4 .F7F ....
....|..|R-- .... ....|R-- .... ....|--- .... ....
....|..|--- .... ....|--- .... ....|G#4 .F7F ....
....|..|--- .... ....|--- .... ....|--- .... ....
....|..|G#4 .F27 ....|F-5 ...F ....|G#4 .F7F ....
....|..|D#4 .F57 ....|F#5 ...A ....|--- .... ....
....|..|--- .... ....|R-- .... ....|G#4 .F7F ....
....|..|--- .... ....|R-- .... ....|--- .... ....
....|..|--- .... ....|D#5 ...F ....|G#4 .F7F ....
....|..|R-- .... ....|--- .... ....|--- .... ....
....|..|--- .... ....|--- .... ....|G#4 .F7F ....
....|..|--- .... ....|--- .... ....|--- .... ....

[Pattern18]
....|..|F-4 .F3F ....|D#5 ...7 ....|F-4 .F5F ....
....|..|C#4 .F6F ....|F-5 ...7 ....|--- .... ....
....|..|--- .... ....|R-- .... ....|G#4 .F77 ....
....|..|--- .... ....|--- .... ....|--- .... ....
....|..|--- .... ....|C#5 ...F ....|F-4 .F5F ....
....|..|--- .... ....|F#5 ...7 ....|--- .... ....
....|..|--- .... ....|R-- .... ....|F-4 .F5F ....
....|..|--- .... ....|G#5 ...7 ....|--- .... ....
....|..|--- .... ....|D#5 ...A ....|A#4 .F2F ....
....|..|R-- .... ....|--- .... ....|--- .... ....
....|..|--- .... ....|--- .... ....|F-4 .F5F ....
....|..|--- .... ....|--- .... ....|--- .... ....
....|..|F-4 .F3A ....|F#5 ...7 ....|F-4 .F5F ....
....|..|C#4 .F6A ....|R-- .... ....|--- .... ....
....|..|--- .... ....|R-- .... ....|F-4 .F5F ....
....|..|--- .... ....|--- .... ....|--- .... ....
....|..|--- .... ....|F-5 ...7 ....|A#4 .F2F ....
....|..|--- .... ....|--- .... ....|--- .... ....
....|..|--- .... ....|--- .... ....|F-4 .F5F ....
....|..|--- .... ....|R-- .... ....|--- .... ....
....|..|--- .... ....|D#5 ...7 ....|F-4 .F5F ....
....|..|R-- .... ....|--- .... ....|--- .... ....
....|..|--- .... ....|R-- .... ....|F-4 .F5F ....
....|..|--- .... ....|--- .... ....|--- .... ....
....|..|F-4 .F37 ....|A#4 ...F ....|F-4 .F5F ....
....|..|C#4 .F67 ....|R-- .... ....|--- .... ....
....|..|--- .... ....|C#5 ...F ....|F-4 .F5F ....
....|..|--- .... ....|--- .... ....|--- .... ....
....|..|--- .... ....|C#5 ...7 ....|F-4 .F5F ....
....|..|R-- .... ....|--- .... ....|--- .... ....
....|..|--- .... ....|--- .... ....|F-4 .F5F ....
....|..|--- .... ....|--- .... ....|--- .... ....
....|..|F#4 .F6F ....|D#5 ...F ....|F#4 .F6F ....
....|..|D#4 .F7F ....|--- .... ....|--- .... ....
....|..|--- .... ....|R-- .... ....|F-4 .F57 ....
....|..|--- .... ....|--- .... ....|--- .... ....
....|..|--- .... ....|A#4 ...A ....|F#4 .F6F ....
....|..|--- .... ....|R-- .... ....|--- .... ....
....|..|--- .... ....|C#5 ...A ....|F#4 .F6F ....
....|..|--- .... ....|--- .... ....|--- .... ....
....|..|--- .... ....|--- .... ....|A#4 .F3F ....
....|..|R-- .... ....|--- .... ....|--- .... ....
....|..|--- .... ....|--- .... ....|F#4 .F6F ....
....|..|--- .... ....|--- .... ....|--- .... ....
....|..|F#4 .F6A ....|D#5 ...A ....|F#4 .F6F ....
....|..|D#4 .F7A ....|--- .... ....|--- .... ....
....|..|--- .... ....|R-- .... ....|F#4 .F6F ....
....|..|--- .... ....|--- .... ....|--- .... ....

[Pattern19]
....|..|--- .... ....|A#4 ...7 ....|A#4 .F3F ....
....|..|--- .... ....|R-- .... ....|--- .... ....
....|..|--- .... ....|C#5 ...7 ....|F#4 .F6F ....
....|..|--- .... ....|--- .... ....|--- .... ....
....|..|--- .... ....|--- .... ....|F#4 .F6F ....
....|..|R-- .... ....|--- .... ....|--- .... ....
....|..|--- .... ....|--- .... ....|F#4 .F6F ....
....|..|--- .... ....|--- .... ....|--- .... ....
....|..|F#4 .F67 ....|D#5 ...7 ....|F#4 .F6F ....
....|..|D#4 .F77 ....|R-- .... ....|--- .... ....
....|..|--- .... ....|--- .... ....|F#4 .F6F ....
....|..|--- .... ....|--- .... ....|--- .... ....
....|..|--- .... ....|C#5 ...F ....|F#4 .F6F ....
....|..|R-- .... ....|R-- .... ....|--- .... ....
....|..|--- .... ....|C#5 ...F ....|F#4 .F6F ....
....|..|--- .... ....|R-- .... ....|--- .... ....
....|..|D#4 .F2F ....|C#5 ...F ....|F#4 .F3F ....
....|..|B-3 .F1F ....|--- .... ....|--- .... ....
....|..|--- .... ....|--- .... ....|F#4 .F67 ....
....|..|--- .... ....|R-- .... ....|--- .... ....
....|..|--- .... ....|B-4 ...F ....|F#4 .F3F ....
....|..|--- .... ....|R-- .... ....|--- .... ....
....|..|--- .... ....|--- .... ....|F#4 .F3F ....
....|..|--- .... ....|--- .... ....|--- .... ....
....|..|--- .... ....|C#5 ...A ....|B-4 .F6F ....
....|..|R-- .... ....|R-- .... ....|--- .... ....
....|..|--- .... ....|C#5 ...A ....|F#4 .F3F ....
....|..|--- .... ....|R-- .... ....|--- .... ....
....|..|D#4 .F2A ....|C#5 ...A ....|F#4 .F3F ....
....|..|B-3 .F1A ....|--- .... ....|--- .... ....
....|..|--- .... ....|--- .... ....|F#4 .F3F ....
....|..|--- .... ....|R-- .... ....|--- .... ....
....|..|B-3 .F1F ....|B-4 ...A ....|B-4 .F6F ....
....|..|--- .... ....|R-- .... ....|--- .... ....
....|..|--- .... ....|--- .... ....|F#4 .F3F ....
....|..|--- .... ....|--- .... ....|--- .... ....
....|..|--- .... ....|C#5 ...7 ....|F#4 .F3F ....
....|..|R-- .... ....|R-- .... ....|--- .... ....
....|..|--- .... ....|C#5 ...7 ....|F#4 .F3F ....
....|..|--- .... ....|R-- .... ....|--- .... ....
....|..|B-3 .F1F ....|C#5 ...7 ....|F#4 .F3F ....
....|..|B-3 .F17 ....|--- .... ....|--- .... ....
....|..|--- .... ....|R-- .... ....|F#4 .F3F ....
....|..|--- .... ....|R-- .... ....|--- .... ....
....|..|B-3 .F1A ....|B-4 ...7 ....|F#4 .F3F ....
....|..|F#5 .F.F ....|--- .... ....|--- .... ....
....|..|--- .... ....|--- .... ....|F#4 .F3F ....
....|..|--- .... ....|--- .... ....|--- .... ....

[Pattern20]
....|..|D#4 .F3F ....|--- .... ....|G#4 .F7F ....
....|..|B-3 .F6F ....|--- .... ....|--- .... ....
....|..|--- .... ....|--- .... ....|F#4 .F37 ....
....|..|--- .... ....|--- .... ....|--- .... ....
....|..|B-3 .F1A ....|--- .... ....|G#4 .F7F ....
....|..|--- .... ....|--- .... ....|--- .... ....
....|..|--- .... ....|R-- .... ....|G#4 .F7F ....
....|..|--- .... ....|--- .... ....|--- .... ....
....|..|B-3 .F17 ....|A#4 ...F ....|B-4 .F6F ....
....|..|F#5 .F.A ....|--- .... ....|--- .... ....
....|..|--- .... ....|--- .... ....|G#4 .F7F ....
....|..|--- .... ....|R-- .... ....|--- .... ....
....|..|D#4 .F3A ....|B-4 ...F ....|G#4 .F7F ....
....|..|B-3 .F6A ....|--- .... ....|--- .... ....
....|..|--- .... ....|--- .... ....|G#4 .F7F ....
....|..|B-3 .F6F ....|R-- .... ....|--- .... ....
....|..|B-3 .F6F ....|A#5 ...F ....|B-4 .F6F ....
....|..|--- .... ....|R-- .... ....|--- .... ....
....|..|--- .... ....|R-- .... ....|G#4 .F7F ....
....|..|--- .... ....|--- .... ....|--- .... ....
....|..|--- .... ....|A#5 ...F ....|G#4 .F7F ....
....|..|F#5 .F.7 ....|--- .... ....|--- .... ....
....|..|--- .... ....|R-- .... ....|G#4 .F7F ....
....|..|--- .... ....|R-- .... ....|--- .... ....
....|..|B-3 .F6F ....|G#5 ...F ....|G#4 .F7F ....
....|..|B-3 .F67 ....|R-- .... ....|--- .... ....
....|..|--- .... ....|F#5 ...F ....|G#4 .F7F ....
....|..|B-3 .F6A ....|R-- .... ....|--- .... ....
....|..|B-3 .F6A ....|A#5 ...A ....|G#4 .F7F ....
....|..|F#5 .F.F ....|R-- .... ....|--- .... ....
....|..|--- .... ....|R-- .... ....|G#4 .F7F ....
....|..|--- .... ....|G#5 ...F ....|--- .... ....
....|..|F-4 .F2F ....|A#4 ...7 ....|F-4 .F4F ....
....|..|C#4 .F1F ....|--- .... ....|--- .... ....
....|..|--- .... ....|R-- .... ....|G#4 .F77 ....
....|..|--- .... ....|R-- .... ....|--- .... ....
....|..|B-3 .F6A ....|B-4 ...7 ....|F-4 .F4F ....
....|..|--- .... ....|R-- .... ....|--- .... ....
....|..|--- .... ....|F#5 ...A ....|F-4 .F4F ....
....|..|B-3 .F67 ....|R-- .... ....|--- .... ....
....|..|B-3 .F67 ....|A#5 ...7 ....|G#4 .F3F ....
....|..|F#5 .F.A ....|R-- .... ....|--- .... ....
....|..|--- .... ....|R-- .... ....|F-4 .F4F ....
....|..|--- .... ....|G#5 ...A ....|--- .... ....
....|..|F-4 .F2A ....|A#5 ...7 ....|F-4 .F4F ....
....|..|C#4 .F1A ....|--- .... ....|--- .... ....
....|..|--- .... ....|R-- .... ....|F-4 .F4F ....
....|..|--- .... ....|--- .... ....|--- .... ....

[Pattern21]
....|..|B-3 .F67 ....|G#5 ...7 ....|G#4 .F3F ....
....|..|--- .... ....|R-- .... ....|--- .... ....
....|..|--- .... ....|F#5 ...7 ....|F-4 .F4F ....
....|..|--- .... ....|--- .... ....|--- .... ....
....|..|--- .... ....|D#5 ...F ....|F-4 .F4F ....
....|..|F#5 .F.7 ....|--- .... ....|--- .... ....
....|..|--- .... ....|R-- .... ....|F-4 .F4F ....
....|..|--- .... ....|G#5 ...7 ....|--- .... ....
....|..|F-4 .F27 ....|F#5 ...F ....|F-4 .F4F ....
....|..|C#4 .F17 ....|R-- .... ....|--- .... ....
....|..|--- .... ....|G#5 ...F ....|F-4 .F4F ....
....|..|--- .... ....|--- .... ....|--- .... ....
....|..|--- .... ....|--- .... ....|F-4 .F4F ....
....|..|G#5 .F.F ....|--- .... ....|--- .... ....
....|..|--- .... ....|--- .... ....|F-4 .F4F ....
....|..|--- .... ....|R-- .... ....|--- .... ....
....|..|F-4 .F4F ....|A#5 ...F ....|F-4 .F4F ....
....|..|C#4 .F1F ....|--- .... ....|--- .... ....
....|..|--- .... ....|--- .... ....|F-4 .F47 ....
....|..|--- .... ....|R-- .... ....|--- .... ....
....|..|--- .... ....|F#5 ...A ....|F-4 .F4F ....
....|..|C#4 .F1F ....|R-- .... ....|--- .... ....
....|..|C#4 .F1F ....|R-- .... ....|F-4 .F4F ....
....|..|--- .... ....|--- .... ....|--- .... ....
....|..|--- .... ....|--- .... ....|G#4 .F3F ....
....|..|G#5 .F.A ....|--- .... ....|--- .... ....
....|..|--- .... ....|R-- .... ....|F-4 .F4F ....
....|..|C#4 .F1F ....|R-- .... ....|--- .... ....
....|..|C#4 .F1F ....|G#5 ...F ....|F-4 .F4F ....
....|..|C#4 .F1A ....|--- .... ....|--- .... ....
....|..|--- .... ....|--- .... ....|F-4 .F4F ....
....|..|--- .... ....|R-- .... ....|--- .... ....
....|..|--- .... ....|F#5 ...7 ....|G#4 .F3F ....
....|..|C#4 .F1F ....|R-- .... ....|--- .... ....
....|..|C#4 .F1F ....|G#5 ...7 ....|F-4 .F4F ....
....|..|--- .... ....|--- .... ....|--- .... ....
....|..|--- .... ....|--- .... ....|F-4 .F4F ....
....|..|G#5 .F.7 ....|--- .... ....|--- .... ....
....|..|--- .... ....|R-- .... ....|F-4 .F4F ....
....|..|C#4 .F1F ....|R-- .... ....|--- .... ....
....|..|C#4 .F1F ....|A#5 ...7 ....|F-4 .F4F ....
....|..|C#4 .F17 ....|--- .... ....|--- .... ....
....|..|--- .... ....|--- .... ....|F-4 .F4F ....
....|..|--- .... ....|--- .... ....|--- .... ....
....|..|--- .... ....|--- .... ....|F-4 .F4F ....
....|..|G#5 .F.F ....|F#5 ...F ....|--- .... ....
....|..|C#4 .F17 ....|D#5 ...F ....|F-4 .F4F ....
....|..|--- .... ....|B-4 ...F ....|--- .... ....

[Pattern22]
....|..|A#4 .F2F ....|G#4 ...F ....|F#4 .F1F ....
....|..|F#4 .F1F ....|--- .... ....|--- .... ....
....|..|--- .... ....|R-- .... ....|F-4 .F47 ....
....|..|C#4 .F17 ....|--- .... ....|--- .... ....
....|..|C#4 .F17 ....|G#5 ...7 ....|F#4 .F1F ....
....|..|--- .... ....|--- .... ....|--- .... ....
....|..|--- .... ....|--- .... ....|F#4 .F1F ....
....|..|--- .... ....|--- .... ....|--- .... ....
....|..|--- .... ....|--- .... ....|A#4 .F2F ....
....|..|C#4 .F17 ....|F#5 ...A ....|--- .... ....
....|..|C#4 .F17 ....|D#5 ...A ....|F#4 .F1F ....
....|..|--- .... ....|B-4 ...A ....|--- .... ....
....|..|A#4 .F2A ....|G#4 ...A ....|F#4 .F1F ....
....|..|F#4 .F1A ....|--- .... ....|--- .... ....
....|..|--- .... ....|--- .... ....|F#4 .F1F ....
....|..|C#4 .F17 ....|--- .... ....|--- .... ....
....|..|C#4 .F17 ....|--- .... ....|A#4 .F2F ....
....|..|--- .... ....|--- .... ....|--- .... ....
....|..|--- .... ....|--- .... ....|F#4 .F1F ....
....|..|--- .... ....|--- .... ....|--- .... ....
....|..|--- .... ....|--- .... ....|F#4 .F1F ....
....|..|G#5 .F.7 ....|F#5 ...7 ....|--- .... ....
....|..|--- .... ....|D#5 ...7 ....|F#4 .F1F ....
....|..|--- .... ....|B-4 ...7 ....|--- .... ....
....|..|A#4 .F27 ....|G#4 ...7 ....|F#4 .F1F ....
....|..|F#4 .F17 ....|--- .... ....|--- .... ....
....|..|--- .... ....|--- .... ....|F#4 .F1F ....
....|..|--- .... ....|--- .... ....|--- .... ....
....|..|--- .... ....|--- .... ....|F#4 .F1F ....
....|..|R-- .... ....|--- .... ....|--- .... ....
....|..|--- .... ....|--- .... ....|F#4 .F1F ....
....|..|--- .... ....|--- .... ....|--- .... ....
....|..|G#4 .F3F ....|--- .... ....|F#4 .F3F ....
....|..|D#4 .F3F ....|--- .... ....|--- .... ....
....|..|--- .... ....|--- .... ....|F#4 .F17 ....
....|..|--- .... ....|--- .... ....|--- .... ....
....|..|--- .... ....|--- .... ....|F#4 .F3F ....
....|..|--- .... ....|--- .... ....|--- .... ....
....|..|--- .... ....|--- .... ....|F#4 .F3F ....
....|..|--- .... ....|--- .... ....|--- .... ....
....|..|--- .... ....|--- .... ....|B-4 .F6F ....
....|..|R-- .... ....|--- .... ....|--- .... ....
....|..|--- .... ....|--- .... ....|F#4 .F3F ....
....|..|--- .... ....|--- .... ....|--- .... ....
....|..|G#4 .F3A ....|--- .... ....|F#4 .F3F ....
....|..|D#4 .F3A ....|--- .... ....|--- .... ....
....|..|--- .... ....|--- .... ....|F#4 .F3F ....
....|..|--- .... ....|--- .... ....|--- .... ....

[Pattern23]
....|..|--- .... ....|--- .... ....|B-4 .F6F ....
....|..|--- .... ....|--- .... ....|--- .... ....
....|..|--- .... ....|--- .... ....|F#4 .F3F ....
....|..|--- .... ....|--- .... ....|--- .... ....
....|..|--- .... ....|--- .... ....|F#4 .F3F ....
....|..|R-- .... ....|--- .... ....|--- .... ....
....|..|--- .... ....|--- .... ....|F#4 .F3F ....
....|..|--- .... ....|--- .... ....|--- .... ....
....|..|G#4 .F37 ....|--- .... ....|F#4 .F3F ....
....|..|D#4 .F37 ....|--- .... ....|--- .... ....
....|..|--- .... ....|--- .... ....|F#4 .F3F ....
....|..|--- .... ....|--- .... ....|--- .... ....
....|..|--- .... ....|--- .... ....|F#4 .F3F ....
....|..|R-- .... ....|--- .... ....|--- .... ....
....|..|--- .... ....|--- .... ....|F#4 .F3F ....
....|..|--- .... ....|--- .... ....|--- .... ....
....|..|A#4 .F2F ....|--- .... ....|F#4 .F1F ....
....|..|F#4 .F1F ....|--- .... ....|--- .... ....
....|..|--- .... ....|--- .... ....|F#4 .F37 ....
....|..|--- .... ....|--- .... ....|--- .... ....
....|..|--- .... ....|--- .... ....|F#4 .F1F ....
....|..|--- .... ....|--- .... ....|--- .... ....
....|..|--- .... ....|--- .... ....|F#4 .F1F ....
....|..|--- .... ....|--- .... ....|--- .... ....
....|..|--- .... ....|--- .... ....|A#4 .F2F ....
....|..|R-- .... ....|--- .... ....|--- .... ....
....|..|--- .... ....|--- .... ....|F#4 .F1F ....
....|..|--- .... ....|--- .... ....|--- .... ....
....|..|A#4 .F2A ....|--- .... ....|F#4 .F1F ....
....|..|F#4 .F1A ....|--- .... ....|--- .... ....
....|..|--- .... ....|--- .... ....|F#4 .F1F ....
....|..|--- .... ....|--- .... ....|--- .... ....
....|..|--- .... ....|--- .... ....|A#4 .F2F ....
....|..|--- .... ....|--- .... ....|--- .... ....
....|..|--- .... ....|--- .... ....|F#4 .F1F ....
....|..|--- .... ....|--- .... ....|--- .... ....
....|..|--- .... ....|--- .... ....|F#4 .F1F ....
....|..|R-- .... ....|--- .... ....|--- .... ....
....|..|--- .... ....|--- .... ....|F#4 .F1F ....
....|..|--- .... ....|--- .... ....|--- .... ....
....|..|A#4 .F27 ....|--- .... ....|F#4 .F1F ....
....|..|F#4 .F17 ....|--- .... ....|--- .... ....
....|..|--- .... ....|--- .... ....|F#4 .F1F ....
....|..|--- .... ....|--- .... ....|--- .... ....
....|..|--- .... ....|--- .... ....|F#4 .F1F ....
....|..|R-- .... ....|--- .... ....|--- .... ....
....|..|--- .... ....|--- .... ....|F#4 .F1F ....
....|..|--- .... ....|--- .... ....|--- .... ....

[Pattern24]
....|..|G#4 .F3F ....|--- .... ....|F#4 .F3F ....
....|..|D#4 .F3F ....|--- .... ....|--- .... ....
....|..|--- .... ....|--- .... ....|F#4 .F17 ....
....|..|--- .... ....|--- .... ....|--- .... ....
....|..|--- .... ....|--- .... ....|F#4 .F3F ....
....|..|--- .... ....|--- .... ....|--- .... ....
....|..|--- .... ....|--- .... ....|F#4 .F3F ....
....|..|--- .... ....|--- .... ....|--- .... ....
....|..|--- .... ....|--- .... ....|B-4 .F6F ....
....|..|R-- .... ....|--- .... ....|--- .... ....
....|..|--- .... ....|--- .... ....|F#4 .F3F ....
....|..|--- .... ....|--- .... ....|--- .... ....
....|..|G#4 .F3A ....|--- .... ....|F#4 .F3F ....
....|..|D#4 .F3A ....|--- .... ....|--- .... ....
....|..|--- .... ....|--- .... ....|F#4 .F3F ....
....|..|--- .... ....|--- .... ....|--- .... ....
....|..|--- .... ....|--- .... ....|B-4 .F6F ....
....|..|--- .... ....|--- .... ....|--- .... ....
....|..|--- .... ....|--- .... ....|F#4 .F3F ....
....|..|--- .... ....|--- .... ....|--- .... ....
....|..|--- .... ....|--- .... ....|F#4 .F3F ....
....|..|R-- .... ....|--- .... ....|--- .... ....
....|..|--- .... ....|--- .... ....|F#4 .F3F ....
....|..|--- .... ....|--- .... ....|--- .... ....
....|..|G#4 .F37 ....|--- .... ....|F#4 .F3F ....
....|..|D#4 .F37 ....|--- .... ....|--- .... ....
....|..|--- .... ....|--- .... ....|F#4 .F3F ....
....|..|--- .... ....|--- .... ....|--- .... ....
....|..|--- .... ....|--- .... ....|F#4 .F3F ....
....|..|R-- .... ....|--- .... ....|--- .... ....
....|..|--- .... ....|--- .... ....|F#4 .F3F ....
....|..|--- .... ....|--- .... ....|--- .... ....
....|..|A#4 .F2F ....|F-5 ...F ....|F#4 .F1F ....
....|..|F#4 .F1F ....|F#5 ...F ....|--- .... ....
....|..|--- .... ....|--- .... ....|F#4 .F37 ....
....|..|--- .... ....|--- .... ....|--- .... ....
....|..|--- .... ....|--- .... ....|F#4 .F1F ....
....|..|--- .... ....|--- .... ....|--- .... ....
....|..|--- .... ....|--- .... ....|F#4 .F1F ....
....|..|--- .... ....|--- .... ....|--- .... ....
....|..|--- .... ....|--- .... ....|A#4 .F2F ....
....|..|R-- .... ....|R-- .... ....|--- .... ....
....|..|--- .... ....|--- .... ....|F#4 .F1F ....
....|..|--- .... ....|--- .... ....|--- .... ....
....|..|A#4 .F2A ....|F-6 ...F ....|F#4 .F1F ....
....|..|F#4 .F1A ....|F#6 ...F ....|--- .... ....
....|..|--- .... ....|R-- .... ....|F#4 .F1F ....
....|..|--- .... ....|--- .... ....|--- .... ....

[Pattern25]
....|..|--- .... ....|F-6 ...F ....|A#4 .F2F ....
....|..|--- .... ....|--- .... ....|--- .... ....
....|..|--- .... ....|--- .... ....|F#4 .F1F ....
....|..|--- .... ....|--- .... ....|--- .... ....
....|..|--- .... ....|R-- .... ....|F#4 .F1F ....
....|..|R-- .... ....|R-- .... ....|--- .... ....
....|..|--- .... ....|C#6 ...F ....|F#4 .F1F ....
....|..|--- .... ....|--- .... ....|--- .... ....
....|..|A#4 .F27 ....|F-5 ...7 ....|F#4 .F1F ....
....|..|F#4 .F17 ....|F#5 ...7 ....|--- .... ....
....|..|--- .... ....|R-- .... ....|F#4 .F1F ....
....|..|--- .... ....|C-6 ...F ....|--- .... ....
....|..|--- .... ....|B-5 ...F ....|F#4 .F1F ....
....|..|R-- .... ....|A#5 ...F ....|--- .... ....
....|..|--- .... ....|R-- .... ....|F#4 .F1F ....
....|..|--- .... ....|--- .... ....|--- .... ....
....|..|D#4 .F3F ....|D#6 ...F ....|G#4 .F1F ....
....|..|C-4 .F4F ....|R-- .... ....|--- .... ....
....|..|--- .... ....|C#6 ...A ....|F#4 .F17 ....
....|..|--- .... ....|--- .... ....|--- .... ....
....|..|--- .... ....|F-6 ...7 ....|G#4 .F1F ....
....|..|--- .... ....|F#6 ...7 ....|--- .... ....
....|..|--- .... ....|R-- .... ....|G#4 .F1F ....
....|..|--- .... ....|C-6 ...A ....|--- .... ....
....|..|--- .... ....|F-6 ...7 ....|C-4 .F2F ....
....|..|R-- .... ....|A#5 ...A ....|--- .... ....
....|..|--- .... ....|R-- .... ....|G#4 .F1F ....
....|..|--- .... ....|--- .... ....|--- .... ....
....|..|D#4 .F3A ....|R-- .... ....|G#4 .F1F ....
....|..|C-4 .F4A ....|--- .... ....|--- .... ....
....|..|--- .... ....|C#6 ...7 ....|G#4 .F1F ....
....|..|--- .... ....|R-- .... ....|--- .... ....
....|..|--- .... ....|G#5 ...F ....|C-4 .F2F ....
....|..|--- .... ....|--- .... ....|--- .... ....
....|..|--- .... ....|--- .... ....|G#4 .F1F ....
....|..|--- .... ....|C-6 ...7 ....|--- .... ....
....|..|--- .... ....|B-5 ...7 ....|G#4 .F1F ....
....|..|R-- .... ....|A#5 ...7 ....|--- .... ....
....|..|--- .... ....|R-- .... ....|G#4 .F1F ....
....|..|--- .... ....|--- .... ....|--- .... ....
....|..|D#4 .F37 ....|D#6 ...7 ....|G#4 .F1F ....
....|..|C-4 .F47 ....|--- .... ....|--- .... ....
....|..|--- .... ....|--- .... ....|G#4 .F1F ....
....|..|--- .... ....|R-- .... ....|--- .... ....
....|..|--- .... ....|F#5 ...F ....|G#4 .F1F ....
....|..|R-- .... ....|F-5 ...F ....|--- .... ....
....|..|--- .... ....|B-4 ...F ....|G#4 .F1F ....
....|..|--- .... ....|R-- .... ....|--- .... ....

[Pattern26]
....|..|F-4 .F2F ....|G-5 ...F ....|F-4 .F7F ....
....|..|C-4 .F5F ....|G#5 ...F ....|--- .... ....
....|..|--- .... ....|--- .... ....|G#4 .F17 ....
....|..|--- .... ....|--- .... ....|--- .... ....
....|..|--- .... ....|--- .... ....|F-4 .F7F ....
....|..|--- .... ....|--- .... ....|--- .... ....
....|..|--- .... ....|--- .... ....|F-4 .F7F ....
....|..|--- .... ....|R-- .... ....|--- .... ....
....|..|--- .... ....|G#5 ...7 ....|G#4 .F6F ....
....|..|R-- .... ....|F-5 ...A ....|--- .... ....
....|..|--- .... ....|B-4 ...A ....|F-4 .F7F ....
....|..|--- .... ....|R-- .... ....|--- .... ....
....|..|F-4 .F2A ....|A#5 ...F ....|F-4 .F7F ....
....|..|C-4 .F5A ....|R-- .... ....|--- .... ....
....|..|C-4 .F3F ....|--- .... ....|F-4 .F7F ....
....|..|R-- .... ....|--- .... ....|--- .... ....
....|..|C#4 .F6F ....|C#6 ...F ....|F-4 .F3F ....
....|..|C#4 .F6F ....|R-- .... ....|--- .... ....
....|..|--- .... ....|--- .... ....|C#4 .F6F ....
....|..|--- .... ....|--- .... ....|--- .... ....
....|..|--- .... ....|G#5 ...F ....|C#4 .F6F ....
....|..|R-- .... ....|F-5 ...7 ....|--- .... ....
....|..|--- .... ....|B-4 ...7 ....|C#4 .F6F ....
....|..|--- .... ....|R-- .... ....|--- .... ....
....|..|F-4 .F27 ....|F-5 ...F ....|C#4 .F6F ....
....|..|C-4 .F57 ....|G#5 ...7 ....|--- .... ....
....|..|C-4 .F3A ....|--- .... ....|C#4 .F6F ....
....|..|R-- .... ....|--- .... ....|--- .... ....
....|..|C#4 .F6A ....|G#5 ...F ....|C#4 .F6F ....
....|..|C#4 .F6A ....|R-- .... ....|--- .... ....
....|..|F-4 .F3F ....|--- .... ....|C#4 .F6F ....
....|..|R-- .... ....|G-5 ...F ....|--- .... ....
....|..|F#4 .F6F ....|F#5 ...F ....|D#4 .F7F ....
....|..|D#4 .F7F ....|R-- .... ....|--- .... ....
....|..|--- .... ....|--- .... ....|F-4 .F77 ....
....|..|--- .... ....|--- .... ....|--- .... ....
....|..|--- .... ....|A#5 ...7 ....|D#4 .F7F ....
....|..|--- .... ....|R-- .... ....|--- .... ....
....|..|C-4 .F37 ....|--- .... ....|D#4 .F7F ....
....|..|R-- .... ....|--- .... ....|--- .... ....
....|..|C#4 .F67 ....|C#6 ...7 ....|F#4 .F6F ....
....|..|C#4 .F67 ....|R-- .... ....|--- .... ....
....|..|F-4 .F3A ....|--- .... ....|D#4 .F7F ....
....|..|R-- .... ....|G-5 ...A ....|--- .... ....
....|..|F#4 .F6A ....|G#5 ...7 ....|D#4 .F7F ....
....|..|D#4 .F7A ....|R-- .... ....|--- .... ....
....|..|--- .... ....|--- .... ....|D#4 .F7F ....
....|..|--- .... ....|--- .... ....|--- .... ....

[Pattern27]
....|..|D#4 .F7F ....|F-5 ...7 ....|F#4 .F6F ....
....|..|--- .... ....|R-- .... ....|--- .... ....
....|..|--- .... ....|--- .... ....|D#4 .F7F ....
....|..|--- .... ....|--- .... ....|--- .... ....
....|..|--- .... ....|G#5 ...7 ....|D#4 .F7F ....
....|..|--- .... ....|--- .... ....|--- .... ....
....|..|F-4 .F37 ....|--- .... ....|D#4 .F7F ....
....|..|R-- .... ....|G-5 ...7 ....|--- .... ....
....|..|D#4 .F7F ....|F#5 ...7 ....|D#4 .F7F ....
....|..|D#4 .F77 ....|--- .... ....|--- .... ....
....|..|--- .... ....|--- .... ....|D#4 .F7F ....
....|..|--- .... ....|--- .... ....|--- .... ....
....|..|D#4 .F7A ....|--- .... ....|D#4 .F7F ....
....|..|D#5 .F.F ....|--- .... ....|--- .... ....
....|..|--- .... ....|--- .... ....|D#4 .F7F ....
....|..|--- .... ....|--- .... ....|--- .... ....
....|..|D#4 .F2F ....|D#5 ...F ....|D#4 .F4F ....
....|..|B-3 .F1F ....|--- .... ....|--- .... ....
....|..|--- .... ....|--- .... ....|D#4 .F77 ....
....|..|--- .... ....|--- .... ....|--- .... ....
....|..|D#4 .F7A ....|--- .... ....|D#4 .F4F ....
....|..|--- .... ....|--- .... ....|--- .... ....
....|..|--- .... ....|--- .... ....|D#4 .F4F ....
....|..|--- .... ....|--- .... ....|--- .... ....
....|..|D#4 .F77 ....|--- .... ....|F#4 .F3F ....
....|..|D#5 .F.A ....|--- .... ....|--- .... ....
....|..|--- .... ....|R-- .... ....|D#4 .F4F ....
....|..|--- .... ....|--- .... ....|--- .... ....
....|..|D#4 .F2A ....|F#5 ...F ....|D#4 .F4F ....
....|..|B-3 .F1A ....|--- .... ....|--- .... ....
....|..|--- .... ....|R-- .... ....|D#4 .F4F ....
....|..|--- .... ....|--- .... ....|--- .... ....
....|..|D#4 .F77 ....|D#6 ...F ....|F#4 .F3F ....
....|..|--- .... ....|--- .... ....|--- .... ....
....|..|--- .... ....|--- .... ....|D#4 .F4F ....
....|..|--- .... ....|R-- .... ....|--- .... ....
....|..|--- .... ....|C#6 ...F ....|D#4 .F4F ....
....|..|D#5 .F.7 ....|--- .... ....|--- .... ....
....|..|--- .... ....|R-- .... ....|D#4 .F4F ....
....|..|--- .... ....|R-- .... ....|--- .... ....
....|..|B-3 .F1F ....|A#5 ...F ....|D#4 .F4F ....
....|..|B-3 .F17 ....|R-- .... ....|--- .... ....
....|..|--- .... ....|G#5 ...F ....|D#4 .F4F ....
....|..|--- .... ....|--- .... ....|--- .... ....
....|..|--- .... ....|D#6 ...A ....|D#4 .F4F ....
....|..|R-- .... ....|--- .... ....|--- .... ....
....|..|--- .... ....|F#5 ...F ....|D#4 .F4F ....
....|..|--- .... ....|R-- .... ....|--- .... ....

[Pattern28]
....|..|D#4 .F3F ....|G#5 ...F ....|D#4 .F5F ....
....|..|B-3 .F6F ....|--- .... ....|--- .... ....
....|..|--- .... ....|R-- .... ....|D#4 .F47 ....
....|..|--- .... ....|R-- .... ....|--- .... ....
....|..|B-3 .F1A ....|F#5 ...7 ....|D#4 .F5F ....
....|..|--- .... ....|R-- .... ....|--- .... ....
....|..|--- .... ....|R-- .... ....|D#4 .F5F ....
....|..|--- .... ....|--- .... ....|--- .... ....
....|..|--- .... ....|D#6 ...7 ....|G#4 .F2F ....
....|..|R-- .... ....|--- .... ....|--- .... ....
....|..|--- .... ....|F#5 ...A ....|D#4 .F5F ....
....|..|--- .... ....|R-- .... ....|--- .... ....
....|..|D#4 .F3A ....|C#6 ...7 ....|D#4 .F5F ....
....|..|B-3 .F6A ....|--- .... ....|--- .... ....
....|..|--- .... ....|--- .... ....|D#4 .F5F ....
....|..|--- .... ....|R-- .... ....|--- .... ....
....|..|B-3 .F17 ....|A#5 ...7 ....|G#4 .F2F ....
....|..|--- .... ....|R-- .... ....|--- .... ....
....|..|--- .... ....|G#5 ...7 ....|D#4 .F5F ....
....|..|--- .... ....|R-- .... ....|--- .... ....
....|..|--- .... ....|--- .... ....|D#4 .F5F ....
....|..|R-- .... ....|--- .... ....|--- .... ....
....|..|--- .... ....|F#5 ...7 ....|D#4 .F5F ....
....|..|--- .... ....|R-- .... ....|--- .... ....
....|..|D#4 .F37 ....|G#5 ...F ....|D#4 .F5F ....
....|..|B-3 .F67 ....|R-- .... ....|--- .... ....
....|..|--- .... ....|A#5 ...F ....|D#4 .F5F ....
....|..|--- .... ....|--- .... ....|--- .... ....
....|..|--- .... ....|--- .... ....|D#4 .F5F ....
....|..|R-- .... ....|--- .... ....|--- .... ....
....|..|--- .... ....|--- .... ....|D#4 .F5F ....
....|..|--- .... ....|R-- .... ....|--- .... ....
....|..|F-4 .F2F ....|C#6 ...F ....|G#4 .F7F ....
....|..|C#4 .F1F ....|--- .... ....|--- .... ....
....|..|--- .... ....|--- .... ....|D#4 .F57 ....
....|..|--- .... ....|--- .... ....|--- .... ....
....|..|--- .... ....|G#5 ...A ....|G#4 .F7F ....
....|..|--- .... ....|R-- .... ....|--- .... ....
....|..|--- .... ....|A#5 ...A ....|G#4 .F7F ....
....|..|--- .... ....|--- .... ....|--- .... ....
....|..|--- .... ....|--- .... ....|B-4 .F6F ....
....|..|R-- .... ....|--- .... ....|--- .... ....
....|..|--- .... ....|--- .... ....|G#4 .F7F ....
....|..|--- .... ....|R-- .... ....|--- .... ....
....|..|F-4 .F2A ....|C#6 ...A ....|G#4 .F7F ....
....|..|C#4 .F1A ....|--- .... ....|--- .... ....
....|..|--- .... ....|--- .... ....|G#4 .F7F ....
....|..|--- .... ....|--- .... ....|--- .... ....

[Pattern29]
....|..|--- .... ....|G#5 ...7 ....|B-4 .F6F ....
....|..|--- .... ....|R-- .... ....|--- .... ....
....|..|--- .... ....|A#5 ...7 ....|G#4 .F7F ....
....|..|--- .... ....|--- .... ....|--- .... ....
....|..|--- .... ....|D-6 ...F ....|G#4 .F7F ....
....|..|R-- .... ....|D#6 ...F ....|--- .... ....
....|..|--- .... ....|R-- .... ....|G#4 .F7F ....
....|..|--- .... ....|--- .... ....|--- .... ....
....|..|F-4 .F27 ....|F#6 ...F ....|G#4 .F7F ....
....|..|C#4 .F17 ....|--- .... ....|--- .... ....
....|..|--- .... ....|R-- .... ....|G#4 .F7F ....
....|..|--- .... ....|--- .... ....|--- .... ....
....|..|--- .... ....|D#6 ...F ....|G#4 .F7F ....
....|..|R-- .... ....|--- .... ....|--- .... ....
....|..|--- .... ....|R-- .... ....|G#4 .F7F ....
....|..|--- .... ....|--- .... ....|--- .... ....
....|..|G#4 .F.F ....|C#6 ...F ....|F-4 .F4F ....
....|..|--- .... ....|D#6 ...A ....|--- .... ....
....|..|--- .... ....|R-- .... ....|G#4 .F77 ....
....|..|--- .... ....|--- .... ....|--- .... ....
....|..|G#4 .F2F ....|F#6 ...A ....|F-4 .F4F ....
....|..|--- .... ....|--- .... ....|--- .... ....
....|..|--- .... ....|R-- .... ....|F-4 .F4F ....
....|..|--- .... ....|--- .... ....|--- .... ....
....|..|G#4 .F7F ....|R-- .... ....|G#4 .F3F ....
....|..|R-- .... ....|--- .... ....|--- .... ....
....|..|--- .... ....|R-- .... ....|F-4 .F4F ....
....|..|--- .... ....|--- .... ....|--- .... ....
....|..|G#4 .F7F ....|D-6 ...7 ....|F-4 .F4F ....
....|..|--- .... ....|C-6 ...F ....|--- .... ....
....|..|--- .... ....|A#5 ...F ....|F-4 .F4F ....
....|..|--- .... ....|F#5 ...F ....|--- .... ....
....|..|G#4 .F7F ....|D#5 ...F ....|G#4 .F3F ....
....|..|--- .... ....|C-5 ...F ....|--- .... ....
....|..|--- .... ....|G#4 ...F ....|F-4 .F4F ....
....|..|--- .... ....|F-4 ...F ....|--- .... ....
....|..|G#4 .F7F ....|C#4 ...F ....|F-4 .F4F ....
....|..|R-- .... ....|--- .... ....|--- .... ....
....|..|--- .... ....|R-- .... ....|F-4 .F4F ....
....|..|--- .... ....|--- .... ....|--- .... ....
....|..|G#4 .F7F ....|C#6 ...7 ....|F-4 .F4F ....
....|..|--- .... ....|C-6 ...A ....|--- .... ....
....|..|--- .... ....|A#5 ...A ....|F-4 .F4F ....
....|..|--- .... ....|F#5 ...A ....|--- .... ....
....|..|G#4 .F2F ....|D#5 ...A ....|F-4 .F4F ....
....|..|--- .... ....|C-5 ...A ....|--- .... ....
....|..|B-4 .F.F ....|G#4 ...A ....|F-4 .F4F ....
....|..|D#6 .F.F ....|F-4 ...A ....|--- .... ....

[Pattern30]
....|..|C#4 .F3F ....|F#5 ...F ....|F#4 .F1F ....
....|..|--- .... ....|--- .... ....|--- .... ....
....|..|--- .... ....|--- .... ....|F-4 .F47 ....
....|..|--- .... ....|--- .... ....|--- .... ....
....|..|G#4 .F77 ....|--- .... ....|F#4 .F1F ....
....|..|--- .... ....|C-6 ...7 ....|--- .... ....
....|..|--- .... ....|A#5 ...7 ....|F#4 .F1F ....
....|..|--- .... ....|F#5 ...7 ....|--- .... ....
....|..|G#4 .F77 ....|D#5 ...7 ....|A#4 .F2F ....
....|..|--- .... ....|C-5 ...7 ....|--- .... ....
....|..|B-4 .F.A ....|G#4 ...7 ....|F#4 .F1F ....
....|..|D#6 .F.A ....|F-4 ...7 ....|--- .... ....
....|..|G#4 .F77 ....|F-6 ...F ....|F#4 .F1F ....
....|..|--- .... ....|F#6 ...F ....|--- .... ....
....|..|--- .... ....|--- .... ....|F#4 .F1F ....
....|..|--- .... ....|R-- .... ....|--- .... ....
....|..|G#4 .F77 ....|F-6 ...F ....|A#4 .F2F ....
....|..|--- .... ....|--- .... ....|--- .... ....
....|..|--- .... ....|--- .... ....|F#4 .F1F ....
....|..|--- .... ....|--- .... ....|--- .... ....
....|..|G#4 .F27 ....|R-- .... ....|F#4 .F1F ....
....|..|--- .... ....|R-- .... ....|--- .... ....
....|..|B-4 .F.7 ....|C#6 ...F ....|F#4 .F1F ....
....|..|D#6 .F.7 ....|--- .... ....|--- .... ....
....|..|C#4 .F37 ....|F#5 ...7 ....|F#4 .F1F ....
....|..|--- .... ....|F#6 ...A ....|--- .... ....
....|..|--- .... ....|--- .... ....|F#4 .F1F ....
....|..|--- .... ....|R-- .... ....|--- .... ....
....|..|--- .... ....|C-6 ...F ....|F#4 .F1F ....
....|..|R-- .... ....|--- .... ....|--- .... ....
....|..|--- .... ....|R-- .... ....|F#4 .F1F ....
....|..|--- .... ....|--- .... ....|--- .... ....
....|..|D#4 .F3F ....|D#6 ...F ....|G#4 .F1F ....
....|..|D#4 .F3F ....|R-- .... ....|--- .... ....
....|..|--- .... ....|C#6 ...A ....|F#4 .F17 ....
....|..|--- .... ....|--- .... ....|--- .... ....
....|..|--- .... ....|F-6 ...7 ....|G#4 .F1F ....
....|..|--- .... ....|F#6 ...7 ....|--- .... ....
....|..|--- .... ....|--- .... ....|G#4 .F1F ....
....|..|--- .... ....|R-- .... ....|--- .... ....
....|..|--- .... ....|F-6 ...7 ....|C-4 .F2F ....
....|..|R-- .... ....|--- .... ....|--- .... ....
....|..|--- .... ....|R-- .... ....|G#4 .F1F ....
....|..|--- .... ....|--- .... ....|--- .... ....
....|..|D#4 .F3A ....|R-- .... ....|G#4 .F1F ....
....|..|D#4 .F3A ....|--- .... ....|--- .... ....
....|..|--- .... ....|C#6 ...7 ....|G#4 .F1F ....
....|..|D#5 .F.F ....|R-- .... ....|--- .... ....

[Pattern31]
....|..|D#4 .F3F ....|G#5 ...F ....|C-4 .F2F ....
....|..|--- .... ....|--- .... ....|--- .... ....
....|..|--- .... ....|--- .... ....|G#4 .F1F ....
....|..|--- .... ....|--- .... ....|--- .... ....
....|..|--- .... ....|C-6 ...7 ....|G#4 .F1F ....
....|..|R-- .... ....|--- .... ....|--- .... ....
....|..|--- .... ....|R-- .... ....|G#4 .F1F ....
....|..|--- .... ....|--- .... ....|--- .... ....
....|..|D#4 .F37 ....|D#6 ...7 ....|G#4 .F1F ....
....|..|D#4 .F37 ....|--- .... ....|--- .... ....
....|..|--- .... ....|--- .... ....|G#4 .F1F ....
....|..|D#5 .F.A ....|R-- .... ....|--- .... ....
....|..|D#4 .F3A ....|G#5 ...A ....|G#4 .F1F ....
....|..|G#5 .F.F ....|--- .... ....|--- .... ....
....|..|--- .... ....|--- .... ....|G#4 .F1F ....
....|..|R-- .... ....|R-- .... ....|--- .... ....
....|..|C-4 .F3F ....|G-5 ...F ....|F-4 .F7F ....
....|..|C-4 .F5F ....|G#5 ...F ....|--- .... ....
....|..|--- .... ....|--- .... ....|G#4 .F17 ....
....|..|--- .... ....|--- .... ....|--- .... ....
....|..|--- .... ....|--- .... ....|F-4 .F7F ....
....|..|--- .... ....|--- .... ....|--- .... ....
....|..|--- .... ....|--- .... ....|F-4 .F7F ....
....|..|D#5 .F.7 ....|R-- .... ....|--- .... ....
....|..|D#4 .F37 ....|G#5 ...7 ....|G#4 .F6F ....
....|..|G#5 .F.A ....|--- .... ....|--- .... ....
....|..|--- .... ....|--- .... ....|F-4 .F7F ....
....|..|R-- .... ....|R-- .... ....|--- .... ....
....|..|C-4 .F3A ....|A#5 ...F ....|F-4 .F7F ....
....|..|C-4 .F5A ....|G#5 ...A ....|--- .... ....
....|..|F-4 .F2F ....|R-- .... ....|F-4 .F7F ....
....|..|R-- .... ....|--- .... ....|--- .... ....
....|..|G#4 .F3F ....|C#6 ...F ....|F-4 .F3F ....
....|..|G#4 .F3F ....|R-- .... ....|--- .... ....
....|..|--- .... ....|G#5 ...F ....|C#4 .F6F ....
....|..|--- .... ....|--- .... ....|--- .... ....
....|..|--- .... ....|--- .... ....|C#4 .F6F ....
....|..|G#5 .F.7 ....|R-- .... ....|--- .... ....
....|..|--- .... ....|F-5 ...F ....|C#4 .F6F ....
....|..|R-- .... ....|R-- .... ....|--- .... ....
....|..|C-4 .F37 ....|G-5 ...7 ....|C#4 .F6F ....
....|..|C-4 .F57 ....|G#5 ...7 ....|--- .... ....
....|..|F-4 .F2A ....|G#5 ...F ....|C#4 .F6F ....
....|..|R-- .... ....|--- .... ....|--- .... ....
....|..|G#4 .F3A ....|C#6 ...A ....|C#4 .F6F ....
....|..|G#4 .F3A ....|R-- .... ....|--- .... ....
....|..|C#4 .F6F ....|G#5 ...A ....|C#4 .F6F ....
....|..|R-- .... ....|G-5 ...F ....|--- .... ....

[Pattern32]
....|..|A#4 .F3F ....|F#5 ...F ....|D#4 .F7F ....
....|..|A#4 .F5F ....|R-- .... ....|--- .... ....
....|..|--- .... ....|F-5 ...A ....|F-4 .F77 ....
....|..|--- .... ....|--- .... ....|--- .... ....
....|..|--- .... ....|A#5 ...7 ....|D#4 .F7F ....
....|..|--- .... ....|R-- .... ....|--- .... ....
....|..|F-4 .F27 ....|R-- .... ....|D#4 .F7F ....
....|..|R-- .... ....|--- .... ....|--- .... ....
....|..|G#4 .F37 ....|C#6 ...7 ....|F#4 .F6F ....
....|..|G#4 .F37 ....|R-- .... ....|--- .... ....
....|..|C#4 .F6A ....|G#5 ...7 ....|D#4 .F7F ....
....|..|R-- .... ....|G-5 ...A ....|--- .... ....
....|..|A#4 .F3A ....|F#5 ...A ....|D#4 .F7F ....
....|..|A#4 .F5A ....|R-- .... ....|--- .... ....
....|..|--- .... ....|F-5 ...7 ....|D#4 .F7F ....
....|..|--- .... ....|--- .... ....|--- .... ....
....|..|A#4 .F3F ....|--- .... ....|F#4 .F6F ....
....|..|--- .... ....|R-- .... ....|--- .... ....
....|..|--- .... ....|G#5 ...7 ....|D#4 .F7F ....
....|..|--- .... ....|--- .... ....|--- .... ....
....|..|A#4 .F9F ....|--- .... ....|D#4 .F7F ....
....|..|--- .... ....|--- .... ....|--- .... ....
....|..|C#4 .F67 ....|R-- .... ....|D#4 .F7F ....
....|..|R-- .... ....|G-5 ...7 ....|--- .... ....
....|..|A#4 .F5F ....|F#5 ...7 ....|D#4 .F7F ....
....|..|A#4 .F57 ....|--- .... ....|--- .... ....
....|..|--- .... ....|--- .... ....|D#4 .F7F ....
....|..|A#4 .FAF ....|--- .... ....|--- .... ....
....|..|A#4 .F3F ....|--- .... ....|D#4 .F7F ....
....|..|--- .... ....|--- .... ....|--- .... ....
....|..|--- .... ....|--- .... ....|D#4 .F7F ....
....|..|--- .... ....|--- .... ....|--- .... ....
....|..|B-4 .F6F ....|D#5 ...F ....|D#4 .F4F ....
....|..|B-4 .F1F ....|--- .... ....|--- .... ....
....|..|--- .... ....|R-- .... ....|D#4 .F77 ....
....|..|--- .... ....|--- .... ....|--- .... ....
....|..|A#4 .F5A ....|--- .... ....|D#4 .F4F ....
....|..|--- .... ....|--- .... ....|--- .... ....
....|..|--- .... ....|--- .... ....|D#4 .F4F ....
....|..|A#4 .FAA ....|--- .... ....|--- .... ....
....|..|A#4 .F37 ....|--- .... ....|F#4 .F3F ....
....|..|--- .... ....|--- .... ....|--- .... ....
....|..|--- .... ....|R-- .... ....|D#4 .F4F ....
....|..|--- .... ....|--- .... ....|--- .... ....
....|..|A#4 .F97 ....|F#5 ...F ....|D#4 .F4F ....
....|..|B-4 .F1A ....|--- .... ....|--- .... ....
....|..|--- .... ....|R-- .... ....|D#4 .F4F ....
....|..|--- .... ....|R-- .... ....|--- .... ....

[Pattern33]
....|..|F#4 .F3F ....|D#6 ...F ....|F#4 .F3F ....
....|..|--- .... ....|--- .... ....|--- .... ....
....|..|--- .... ....|--- .... ....|D#4 .F4F ....
....|..|A#4 .FA7 ....|R-- .... ....|--- .... ....
....|..|A#4 .F37 ....|C#6 ...F ....|D#4 .F4F ....
....|..|--- .... ....|--- .... ....|--- .... ....
....|..|--- .... ....|R-- .... ....|D#4 .F4F ....
....|..|--- .... ....|R-- .... ....|--- .... ....
....|..|B-4 .F67 ....|A#5 ...F ....|D#4 .F4F ....
....|..|B-4 .F17 ....|R-- .... ....|--- .... ....
....|..|--- .... ....|G#5 ...F ....|D#4 .F4F ....
....|..|--- .... ....|R-- .... ....|--- .... ....
....|..|F#4 .F3A ....|D#6 ...A ....|D#4 .F4F ....
....|..|F#4 .F.F ....|--- .... ....|--- .... ....
....|..|--- .... ....|F#5 ...F ....|D#4 .F4F ....
....|..|R-- .... ....|R-- .... ....|--- .... ....
....|..|D#4 .F3F ....|G#5 ...F ....|D#4 .F5F ....
....|..|B-3 .F6F ....|--- .... ....|--- .... ....
....|..|--- .... ....|R-- .... ....|D#4 .F47 ....
....|..|--- .... ....|R-- .... ....|--- .... ....
....|..|--- .... ....|F#5 ...7 ....|D#4 .F5F ....
....|..|--- .... ....|R-- .... ....|--- .... ....
....|..|--- .... ....|G#5 ...A ....|D#4 .F5F ....
....|..|--- .... ....|R-- .... ....|--- .... ....
....|..|F#4 .F37 ....|D#6 ...7 ....|G#4 .F2F ....
....|..|F#4 .F.A ....|--- .... ....|--- .... ....
....|..|--- .... ....|F#5 ...A ....|D#4 .F5F ....
....|..|R-- .... ....|R-- .... ....|--- .... ....
....|..|D#4 .F3A ....|C#6 ...7 ....|D#4 .F5F ....
....|..|B-3 .F6A ....|--- .... ....|--- .... ....
....|..|--- .... ....|--- .... ....|D#4 .F5F ....
....|..|B-3 .F6F ....|R-- .... ....|--- .... ....
....|..|B-3 .F6F ....|A#5 ...7 ....|G#4 .F2F ....
....|..|--- .... ....|R-- .... ....|--- .... ....
....|..|--- .... ....|G#5 ...7 ....|D#4 .F5F ....
....|..|--- .... ....|R-- .... ....|--- .... ....
....|..|B-3 .F1F ....|--- .... ....|D#4 .F5F ....
....|..|F#4 .F.7 ....|--- .... ....|--- .... ....
....|..|--- .... ....|F#5 ...7 ....|D#4 .F5F ....
....|..|R-- .... ....|R-- .... ....|--- .... ....
....|..|B-3 .F6F ....|G#5 ...F ....|D#4 .F5F ....
....|..|B-3 .F67 ....|R-- .... ....|--- .... ....
....|..|--- .... ....|A#5 ...F ....|D#4 .F5F ....
....|..|B-3 .F6A ....|--- .... ....|--- .... ....
....|..|B-3 .F8F ....|--- .... ....|D#4 .F5F ....
....|..|--- .... ....|--- .... ....|--- .... ....
....|..|--- .... ....|--- .... ....|D#4 .F5F ....
....|..|--- .... ....|R-- .... ....|--- .... ....

[Pattern34]
....|..|F-4 .F2F ....|C#6 ...F ....|F-4 .F4F ....
....|..|C#4 .F1F ....|--- .... ....|--- .... ....
....|..|--- .... ....|--- .... ....|D#4 .F57 ....
....|..|--- .... ....|--- .... ....|--- .... ....
....|..|C#4 .FBF ....|G#5 ...A ....|F-4 .F4F ....
....|..|--- .... ....|R-- .... ....|--- .... ....
....|..|--- .... ....|A#5 ...A ....|F-4 .F4F ....
....|..|B-3 .F67 ....|--- .... ....|--- .... ....
....|..|C#4 .F1F ....|--- .... ....|G#4 .F3F ....
....|..|--- .... ....|--- .... ....|--- .... ....
....|..|--- .... ....|--- .... ....|F-4 .F4F ....
....|..|--- .... ....|R-- .... ....|--- .... ....
....|..|C#4 .F9F ....|C#6 ...A ....|F-4 .F4F ....
....|..|C#4 .F1A ....|--- .... ....|--- .... ....
....|..|--- .... ....|--- .... ....|F-4 .F4F ....
....|..|--- .... ....|--- .... ....|--- .... ....
....|..|B-3 .F67 ....|G#5 ...7 ....|G#4 .F3F ....
....|..|--- .... ....|R-- .... ....|--- .... ....
....|..|--- .... ....|A#5 ...7 ....|F-4 .F4F ....
....|..|--- .... ....|--- .... ....|--- .... ....
....|..|B-3 .F87 ....|D#6 ...F ....|F-4 .F4F ....
....|..|--- .... ....|--- .... ....|--- .... ....
....|..|--- .... ....|--- .... ....|F-4 .F4F ....
....|..|C#4 .F.F ....|--- .... ....|--- .... ....
....|..|C#4 .F8F ....|F#6 ...F ....|F-4 .F4F ....
....|..|C#4 .F17 ....|--- .... ....|--- .... ....
....|..|--- .... ....|--- .... ....|F-4 .F4F ....
....|..|--- .... ....|--- .... ....|--- .... ....
....|..|C#4 .FB7 ....|F#6 ...F ....|F-4 .F4F ....
....|..|C#4 .F.F ....|D#6 ...F ....|--- .... ....
....|..|--- .... ....|R-- .... ....|F-4 .F4F ....
....|..|R-- .... ....|R-- .... ....|--- .... ....
....|..|F-4 .F3F ....|F#6 ...F ....|C#4 .F6F ....
....|..|C#4 .F6F ....|--- .... ....|--- .... ....
....|..|--- .... ....|--- .... ....|F-4 .F47 ....
....|..|C#4 .F.A ....|--- .... ....|--- .... ....
....|..|C#4 .F97 ....|F#6 ...A ....|C#4 .F6F ....
....|..|--- .... ....|--- .... ....|--- .... ....
....|..|--- .... ....|--- .... ....|C#4 .F6F ....
....|..|--- .... ....|--- .... ....|--- .... ....
....|..|--- .... ....|F#6 ...A ....|F-4 .F3F ....
....|..|C#4 .F.A ....|D#6 ...A ....|--- .... ....
....|..|--- .... ....|R-- .... ....|C#4 .F6F ....
....|..|R-- .... ....|R-- .... ....|--- .... ....
....|..|F-4 .F3A ....|D#6 ...7 ....|C#4 .F6F ....
....|..|C#4 .F6A ....|--- .... ....|--- .... ....
....|..|--- .... ....|--- .... ....|C#4 .F6F ....
....|..|F-4 .F3F ....|R-- .... ....|--- .... ....

[Pattern35]
....|..|D-4 .F4F ....|G#6 ...F ....|F-4 .F3F ....
....|..|--- .... ....|--- .... ....|--- .... ....
....|..|--- .... ....|--- .... ....|D-4 .F4F ....
....|..|--- .... ....|--- .... ....|--- .... ....
....|..|--- .... ....|F#6 ...7 ....|D-4 .F4F ....
....|..|C#4 .F.7 ....|D#6 ...7 ....|--- .... ....
....|..|--- .... ....|--- .... ....|D-4 .F4F ....
....|..|R-- .... ....|R-- .... ....|--- .... ....
....|..|F-4 .F3F ....|F#6 ...7 ....|D-4 .F4F ....
....|..|C#4 .F67 ....|--- .... ....|--- .... ....
....|..|--- .... ....|--- .... ....|D-4 .F4F ....
....|..|F-4 .F3A ....|R-- .... ....|--- .... ....
....|..|D-4 .F4A ....|G#6 ...A ....|D-4 .F4F ....
....|..|--- .... ....|--- .... ....|--- .... ....
....|..|--- .... ....|--- .... ....|D-4 .F4F ....
....|..|--- .... ....|R-- .... ....|--- .... ....
....|..|A#4 .F3F ....|A#6 ...F ....|A#3 .F.F ....
....|..|F#4 .F6F ....|--- .... ....|A#3 .F5F ....
....|..|--- .... ....|--- .... ....|A#3 .F5F ....
....|..|--- .... ....|--- .... ....|--- .... ....
....|..|F-4 .F3A ....|D-6 ...F ....|C#4 .F67 ....
....|..|--- .... ....|A#5 ...F ....|--- .... ....
....|..|--- .... ....|G-5 ...F ....|C#4 .F67 ....
....|..|F-4 .F37 ....|D#5 ...F ....|--- .... ....
....|..|D-4 .F47 ....|F#5 ...F ....|F-4 .F37 ....
....|..|--- .... ....|--- .... ....|--- .... ....
....|..|--- .... ....|--- .... ....|D-4 .F47 ....
....|..|--- .... ....|R-- .... ....|--- .... ....
....|..|A#4 .F3A ....|F-5 ...F ....|D-4 .F47 ....
....|..|F#4 .F6A ....|R-- .... ....|A#3 .F5A ....
....|..|--- .... ....|F#5 ...F ....|D-4 .F47 ....
....|..|--- .... ....|--- .... ....|--- .... ....
....|..|F-4 .F37 ....|D-6 ...A ....|D-4 .F47 ....
....|..|--- .... ....|A#5 ...A ....|--- .... ....
....|..|--- .... ....|G-5 ...A ....|D-4 .F47 ....
....|..|--- .... ....|R-- .... ....|--- .... ....
....|..|--- .... ....|F-5 ...F ....|D-4 .F47 ....
....|..|--- .... ....|--- .... ....|--- .... ....
....|..|--- .... ....|--- .... ....|D-4 .F47 ....
....|..|--- .... ....|R-- .... ....|--- .... ....
....|..|A#4 .F37 ....|C#5 ...F ....|A#3 .F.7 ....
....|..|F#4 .F67 ....|R-- .... ....|A#3 .F57 ....
....|..|--- .... ....|F#5 ...A ....|A#3 .F57 ....
....|..|--- .... ....|R-- .... ....|--- .... ....
....|..|--- .... ....|A#4 ...F ....|--- .... ....
....|..|R-- .... ....|A#5 ...7 ....|--- .... ....
....|..|--- .... ....|G-5 ...7 ....|A#3 .F3F ....
....|..|--- .... ....|D#5 ...7 ....|R-- .... ....

[Pattern36]
....|..|D#4 .F2F ....|C#5 ...F ....|B-3 .F6F ....
....|..|D#4 .F4F ....|R-- .... ....|B-3 .F1F ....
....|..|--- .... ....|--- .... ....|--- .... ....
....|..|--- .... ....|R-- .... ....|--- .... ....
....|..|--- .... ....|D#5 ...F ....|--- .... ....
....|..|--- .... ....|R-- .... ....|--- .... ....
....|..|--- .... ....|F#5 ...7 ....|--- .... ....
....|..|--- .... ....|R-- .... ....|--- .... ....
....|..|--- .... ....|A#4 ...A ....|--- .... ....
....|..|R-- .... ....|--- .... ....|--- .... ....
....|..|--- .... ....|--- .... ....|A#3 .F3A ....
....|..|--- .... ....|R-- .... ....|R-- .... ....
....|..|D#4 .F2A ....|D#5 ...F ....|B-3 .F6A ....
....|..|D#4 .F4A ....|R-- .... ....|B-3 .F1A ....
....|..|--- .... ....|--- .... ....|--- .... ....
....|..|--- .... ....|R-- .... ....|--- .... ....
....|..|--- .... ....|C#5 ...7 ....|--- .... ....
....|..|--- .... ....|--- .... ....|--- .... ....
....|..|--- .... ....|--- .... ....|--- .... ....
....|..|--- .... ....|R-- .... ....|--- .... ....
....|..|--- .... ....|A#4 ...7 ....|--- .... ....
....|..|R-- .... ....|--- .... ....|--- .... ....
....|..|--- .... ....|--- .... ....|A#3 .F37 ....
....|..|--- .... ....|R-- .... ....|R-- .... ....
....|..|D#4 .F27 ....|C#5 ...7 ....|B-3 .F67 ....
....|..|D#4 .F47 ....|R-- .... ....|B-3 .F17 ....
....|..|--- .... ....|--- .... ....|--- .... ....
....|..|--- .... ....|--- .... ....|--- .... ....
....|..|--- .... ....|D#5 ...7 ....|--- .... ....
....|..|R-- .... ....|R-- .... ....|--- .... ....
....|..|--- .... ....|--- .... ....|B-3 .F.F ....
....|..|--- .... ....|--- .... ....|R-- .... ....
....|..|D#4 .F2F ....|--- .... ....|A#3 .F.F ....
....|..|D#4 .F7F ....|--- .... ....|A#3 .F5F ....
....|..|--- .... ....|--- .... ....|A#3 .F5F ....
....|..|--- .... ....|R-- .... ....|--- .... ....
....|..|--- .... ....|D#5 ...7 ....|--- .... ....
....|..|--- .... ....|--- .... ....|--- .... ....
....|..|--- .... ....|--- .... ....|--- .... ....
....|..|--- .... ....|--- .... ....|--- .... ....
....|..|--- .... ....|F#5 ...F ....|--- .... ....
....|..|R-- .... ....|R-- .... ....|--- .... ....
....|..|--- .... ....|--- .... ....|B-3 .F.A ....
....|..|--- .... ....|--- .... ....|R-- .... ....
....|..|D#4 .F2A ....|F-5 ...F ....|A#3 .F.A ....
....|..|D#4 .F7A ....|R-- .... ....|A#3 .F5A ....
....|..|--- .... ....|F#5 ...F ....|A#3 .F5A ....
....|..|--- .... ....|--- .... ....|--- .... ....

[Pattern37]
....|..|--- .... ....|--- .... ....|--- .... ....
....|..|--- .... ....|--- .... ....|--- .... ....
....|..|--- .... ....|--- .... ....|--- .... ....
....|..|--- .... ....|R-- .... ....|--- .... ....
....|..|--- .... ....|F-5 ...F ....|--- .... ....
....|..|R-- .... ....|R-- .... ....|--- .... ....
....|..|--- .... ....|--- .... ....|B-3 .F.7 ....
....|..|--- .... ....|R-- .... ....|R-- .... ....
....|..|D#4 .F27 ....|C#5 ...F ....|A#3 .F.7 ....
....|..|D#4 .F77 ....|R-- .... ....|A#3 .F57 ....
....|..|--- .... ....|F#5 ...A ....|A#3 .F57 ....
....|..|--- .... ....|R-- .... ....|--- .... ....
....|..|--- .... ....|A#4 ...F ....|--- .... ....
....|..|R-- .... ....|--- .... ....|--- .... ....
....|..|--- .... ....|--- .... ....|A#3 .F3F ....
....|..|--- .... ....|R-- .... ....|R-- .... ....
....|..|D#4 .F2F ....|C#5 ...F ....|B-3 .F6F ....
....|..|D#4 .F4F ....|R-- .... ....|B-3 .F1F ....
....|..|--- .... ....|--- .... ....|--- .... ....
....|..|--- .... ....|R-- .... ....|--- .... ....
....|..|--- .... ....|D#5 ...F ....|--- .... ....
....|..|--- .... ....|R-- .... ....|--- .... ....
....|..|--- .... ....|F#5 ...7 ....|--- .... ....
....|..|--- .... ....|R-- .... ....|--- .... ....
....|..|--- .... ....|A#4 ...A ....|--- .... ....
....|..|R-- .... ....|--- .... ....|--- .... ....
....|..|--- .... ....|--- .... ....|A#3 .F3A ....
....|..|--- .... ....|R-- .... ....|R-- .... ....
....|..|D#4 .F2A ....|D#5 ...F ....|B-3 .F6A ....
....|..|D#4 .F4A ....|R-- .... ....|B-3 .F1A ....
....|..|--- .... ....|--- .... ....|--- .... ....
....|..|--- .... ....|R-- .... ....|--- .... ....
....|..|--- .... ....|C#5 ...7 ....|--- .... ....
....|..|--- .... ....|--- .... ....|--- .... ....
....|..|--- .... ....|--- .... ....|--- .... ....
....|..|--- .... ....|R-- .... ....|--- .... ....
....|..|--- .... ....|A#4 ...7 ....|--- .... ....
....|..|R-- .... ....|--- .... ....|--- .... ....
....|..|--- .... ....|--- .... ....|A#3 .F37 ....
....|..|--- .... ....|R-- .... ....|R-- .... ....
....|..|D#4 .F27 ....|C#5 ...7 ....|B-3 .F67 ....
....|..|D#4 .F47 ....|R-- .... ....|B-3 .F17 ....
....|..|--- .... ....|--- .... ....|--- .... ....
....|..|--- .... ....|--- .... ....|--- .... ....
....|..|--- .... ....|D#5 ...7 ....|--- .... ....
....|..|R-- .... ....|R-- .... ....|--- .... ....
....|..|--- .... ....|--- .... ....|B-3 .F.F ....
....|..|--- .... ....|--- .... ....|R-- .... ....

[Pattern38]
....|..|F#4 .F3F ....|--- .... ....|F#4 .F3F ....
....|..|D#4 .F4F ....|--- .... ....|--- .... ....
....|..|--- .... ....|--- .... ....|--- .... ....
....|..|--- .... ....|R-- .... ....|--- .... ....
....|..|--- .... ....|D#5 ...7 ....|F#4 .F3F ....
....|..|--- .... ....|--- .... ....|--- .... ....
....|..|--- .... ....|--- .... ....|F#4 .F3F ....
....|..|--- .... ....|--- .... ....|--- .... ....
....|..|--- .... ....|D#5 ...F ....|B-4 .F6F ....
....|..|R-- .... ....|R-- .... ....|--- .... ....
....|..|--- .... ....|--- .... ....|F#4 .F3F ....
....|..|--- .... ....|R-- .... ....|R-- .... ....
....|..|F#4 .F3A ....|F-5 ...F ....|F#4 .F3F ....
....|..|D#4 .F4A ....|--- .... ....|--- .... ....
....|..|--- .... ....|--- .... ....|F#4 .F3F ....
....|..|--- .... ....|R-- .... ....|--- .... ....
....|..|--- .... ....|F#5 ...F ....|B-4 .F6F ....
....|..|--- .... ....|--- .... ....|--- .... ....
....|..|--- .... ....|--- .... ....|F#4 .F3F ....
....|..|--- .... ....|--- .... ....|--- .... ....
....|..|--- .... ....|F-5 ...F ....|F#4 .F3F ....
....|..|R-- .... ....|R-- .... ....|--- .... ....
....|..|--- .... ....|D#5 ...F ....|F#4 .F3F ....
....|..|--- .... ....|R-- .... ....|R-- .... ....
....|..|F#4 .F37 ....|F-5 ...A ....|F#4 .F3F ....
....|..|D#4 .F47 ....|--- .... ....|--- .... ....
....|..|--- .... ....|--- .... ....|F#4 .F3F ....
....|..|--- .... ....|R-- .... ....|--- .... ....
....|..|--- .... ....|F#5 ...A ....|F#4 .F3F ....
....|..|R-- .... ....|--- .... ....|--- .... ....
....|..|--- .... ....|--- .... ....|F#4 .F3F ....
....|..|--- .... ....|--- .... ....|--- .... ....
....|..|G#4 .F2F ....|D#5 ...7 ....|G#4 .F7F ....
....|..|D#4 .F5F ....|R-- .... ....|--- .... ....
....|..|--- .... ....|D#5 ...A ....|F#4 .F37 ....
....|..|--- .... ....|R-- .... ....|--- .... ....
....|..|--- .... ....|F-5 ...7 ....|G#4 .F7F ....
....|..|--- .... ....|--- .... ....|--- .... ....
....|..|--- .... ....|--- .... ....|G#4 .F7F ....
....|..|--- .... ....|R-- .... ....|--- .... ....
....|..|--- .... ....|F-5 ...F ....|B-4 .F6F ....
....|..|R-- .... ....|--- .... ....|--- .... ....
....|..|--- .... ....|--- .... ....|G#4 .F7F ....
....|..|--- .... ....|--- .... ....|--- .... ....
....|..|G#4 .F2A ....|F#5 ...F ....|G#4 .F7F ....
....|..|D#4 .F5A ....|R-- .... ....|--- .... ....
....|..|--- .... ....|G#5 ...F ....|G#4 .F7F ....
....|..|--- .... ....|--- .... ....|--- .... ....

[Pattern39]
....|..|--- .... ....|--- .... ....|B-4 .F6F ....
....|..|--- .... ....|--- .... ....|--- .... ....
....|..|--- .... ....|--- .... ....|G#4 .F7F ....
....|..|--- .... ....|R-- .... ....|--- .... ....
....|..|--- .... ....|F#5 ...F ....|G#4 .F7F ....
....|..|R-- .... ....|--- .... ....|--- .... ....
....|..|--- .... ....|--- .... ....|G#4 .F7F ....
....|..|--- .... ....|R-- .... ....|--- .... ....
....|..|G#4 .F27 ....|F-5 ...F ....|G#4 .F7F ....
....|..|D#4 .F57 ....|R-- .... ....|--- .... ....
....|..|--- .... ....|D#5 ...F ....|G#4 .F7F ....
....|..|--- .... ....|--- .... ....|--- .... ....
....|..|--- .... ....|--- .... ....|G#4 .F7F ....
....|..|R-- .... ....|R-- .... ....|--- .... ....
....|..|--- .... ....|C#5 ...F ....|G#4 .F7F ....
....|..|--- .... ....|R-- .... ....|--- .... ....
....|..|F-4 .F3F ....|F-5 ...7 ....|F-4 .F5F ....
....|..|C#4 .F6F ....|--- .... ....|--- .... ....
....|..|--- .... ....|--- .... ....|G#4 .F77 ....
....|..|--- .... ....|R-- .... ....|--- .... ....
....|..|--- .... ....|F#5 ...7 ....|F-4 .F5F ....
....|..|--- .... ....|R-- .... ....|--- .... ....
....|..|--- .... ....|G#5 ...7 ....|F-4 .F5F ....
....|..|--- .... ....|--- .... ....|--- .... ....
....|..|--- .... ....|--- .... ....|A#4 .F2F ....
....|..|R-- .... ....|R-- .... ....|--- .... ....
....|..|--- .... ....|C#5 ...A ....|F-4 .F5F ....
....|..|--- .... ....|R-- .... ....|--- .... ....
....|..|F-4 .F3A ....|F#5 ...7 ....|F-4 .F5F ....
....|..|C#4 .F6A ....|--- .... ....|--- .... ....
....|..|--- .... ....|--- .... ....|F-4 .F5F ....
....|..|--- .... ....|R-- .... ....|--- .... ....
....|..|--- .... ....|F-5 ...7 ....|A#4 .F2F ....
....|..|--- .... ....|R-- .... ....|--- .... ....
....|..|--- .... ....|D#5 ...7 ....|F-4 .F5F ....
....|..|--- .... ....|--- .... ....|--- .... ....
....|..|--- .... ....|R-- .... ....|F-4 .F5F ....
....|..|R-- .... ....|R-- .... ....|--- .... ....
....|..|--- .... ....|C#5 ...7 ....|F-4 .F5F ....
....|..|--- .... ....|--- .... ....|--- .... ....
....|..|F-4 .F37 ....|A#4 ...F ....|F-4 .F5F ....
....|..|C#4 .F67 ....|R-- .... ....|--- .... ....
....|..|--- .... ....|C#5 ...F ....|F-4 .F5F ....
....|..|--- .... ....|--- .... ....|--- .... ....
....|..|--- .... ....|--- .... ....|F-4 .F5F ....
....|..|R-- .... ....|--- .... ....|--- .... ....
....|..|--- .... ....|--- .... ....|F-4 .F5F ....
....|..|--- .... ....|--- .... ....|--- .... ....

[Pattern40]
....|..|F#4 .F6F ....|D#5 ...F ....|F#4 .F6F ....
....|..|D#4 .F7F ....|--- .... ....|--- .... ....
....|..|--- .... ....|--- .... ....|F-4 .F57 ....
....|..|--- .... ....|--- .... ....|--- .... ....
....|..|--- .... ....|A#4 ...A ....|F#4 .F6F ....
....|..|--- .... ....|R-- .... ....|--- .... ....
....|..|--- .... ....|C#5 ...A ....|F#4 .F6F ....
....|..|--- .... ....|--- .... ....|--- .... ....
....|..|--- .... ....|--- .... ....|A#4 .F3F ....
....|..|R-- .... ....|--- .... ....|--- .... ....
....|..|--- .... ....|--- .... ....|F#4 .F6F ....
....|..|--- .... ....|--- .... ....|--- .... ....
....|..|F#4 .F6A ....|R-- .... ....|F#4 .F6F ....
....|..|D#4 .F7A ....|--- .... ....|--- .... ....
....|..|--- .... ....|--- .... ....|F#4 .F6F ....
....|..|--- .... ....|--- .... ....|--- .... ....
....|..|--- .... ....|A#4 ...7 ....|A#4 .F3F ....
....|..|--- .... ....|R-- .... ....|--- .... ....
....|..|--- .... ....|C#5 ...7 ....|F#4 .F6F ....
....|..|--- .... ....|--- .... ....|--- .... ....
....|..|--- .... ....|--- .... ....|F#4 .F6F ....
....|..|R-- .... ....|--- .... ....|--- .... ....
....|..|--- .... ....|--- .... ....|F#4 .F6F ....
....|..|--- .... ....|--- .... ....|--- .... ....
....|..|F#4 .F67 ....|D#5 ...7 ....|F#4 .F6F ....
....|..|D#4 .F77 ....|--- .... ....|--- .... ....
....|..|--- .... ....|--- .... ....|F#4 .F6F ....
....|..|--- .... ....|R-- .... ....|--- .... ....
....|..|--- .... ....|C#5 ...F ....|F#4 .F6F ....
....|..|R-- .... ....|R-- .... ....|--- .... ....
....|..|--- .... ....|C#5 ...F ....|F#4 .F6F ....
....|..|--- .... ....|R-- .... ....|--- .... ....
....|..|D#4 .F2F ....|C#5 ...F ....|F#4 .F3F ....
....|..|B-3 .F1F ....|--- .... ....|--- .... ....
....|..|--- .... ....|B-4 ...F ....|F#4 .F67 ....
....|..|--- .... ....|R-- .... ....|--- .... ....
....|..|--- .... ....|B-4 ...F ....|F#4 .F3F ....
....|..|--- .... ....|--- .... ....|--- .... ....
....|..|--- .... ....|--- .... ....|F#4 .F3F ....
....|..|--- .... ....|R-- .... ....|--- .... ....
....|..|--- .... ....|C#5 ...A ....|B-4 .F6F ....
....|..|R-- .... ....|R-- .... ....|--- .... ....
....|..|--- .... ....|C#5 ...A ....|F#4 .F3F ....
....|..|--- .... ....|R-- .... ....|--- .... ....
....|..|D#4 .F2A ....|C#5 ...A ....|F#4 .F3F ....
....|..|B-3 .F1A ....|--- .... ....|--- .... ....
....|..|--- .... ....|B-4 ...A ....|F#4 .F3F ....
....|..|--- .... ....|R-- .... ....|--- .... ....

[Pattern41]
....|..|--- .... ....|B-4 ...A ....|B-4 .F6F ....
....|..|--- .... ....|--- .... ....|--- .... ....
....|..|--- .... ....|--- .... ....|F#4 .F3F ....
....|..|--- .... ....|R-- .... ....|--- .... ....
....|..|--- .... ....|C#5 ...7 ....|F#4 .F3F ....
....|..|R-- .... ....|R-- .... ....|--- .... ....
....|..|--- .... ....|C#5 ...7 ....|F#4 .F3F ....
....|..|--- .... ....|R-- .... ....|--- .... ....
....|..|D#4 .F27 ....|C#5 ...7 ....|F#4 .F3F ....
....|..|B-3 .F17 ....|--- .... ....|--- .... ....
....|..|--- .... ....|B-4 ...7 ....|F#4 .F3F ....
....|..|--- .... ....|R-- .... ....|--- .... ....
....|..|--- .... ....|B-4 ...7 ....|F#4 .F3F ....
....|..|R-- .... ....|--- .... ....|--- .... ....
....|..|--- .... ....|--- .... ....|F#4 .F3F ....
....|..|--- .... ....|--- .... ....|--- .... ....
....|..|D#4 .F3F ....|--- .... ....|G#4 .F7F ....
....|..|B-3 .F6F ....|--- .... ....|--- .... ....
....|..|--- .... ....|R-- .... ....|F#4 .F37 ....
....|..|--- .... ....|--- .... ....|--- .... ....
....|..|--- .... ....|--- .... ....|G#4 .F7F ....
....|..|--- .... ....|--- .... ....|--- .... ....
....|..|--- .... ....|--- .... ....|G#4 .F7F ....
....|..|--- .... ....|--- .... ....|--- .... ....
....|..|--- .... ....|A#4 ...F ....|B-4 .F6F ....
....|..|R-- .... ....|--- .... ....|--- .... ....
....|..|--- .... ....|--- .... ....|G#4 .F7F ....
....|..|--- .... ....|R-- .... ....|--- .... ....
....|..|D#4 .F3A ....|B-4 ...F ....|G#4 .F7F ....
....|..|B-3 .F6A ....|--- .... ....|--- .... ....
....|..|--- .... ....|R-- .... ....|G#4 .F7F ....
....|..|--- .... ....|R-- .... ....|--- .... ....
....|..|--- .... ....|A#5 ...F ....|B-4 .F6F ....
....|..|--- .... ....|--- .... ....|--- .... ....
....|..|--- .... ....|R-- .... ....|G#4 .F7F ....
....|..|--- .... ....|--- .... ....|--- .... ....
....|..|--- .... ....|A#5 ...F ....|G#4 .F7F ....
....|..|R-- .... ....|--- .... ....|--- .... ....
....|..|--- .... ....|R-- .... ....|G#4 .F7F ....
....|..|--- .... ....|R-- .... ....|--- .... ....
....|..|D#4 .F37 ....|G#5 ...F ....|G#4 .F7F ....
....|..|B-3 .F67 ....|R-- .... ....|--- .... ....
....|..|--- .... ....|F#5 ...F ....|G#4 .F7F ....
....|..|--- .... ....|R-- .... ....|--- .... ....
....|..|--- .... ....|A#5 ...A ....|G#4 .F7F ....
....|..|R-- .... ....|--- .... ....|--- .... ....
....|..|--- .... ....|R-- .... ....|G#4 .F7F ....
....|..|--- .... ....|R-- .... ....|--- .... ....

[Pattern42]
....|..|F-4 .F2F ....|G#5 ...F ....|F-4 .F4F ....
....|..|C#4 .F1F ....|--- .... ....|--- .... ....
....|..|--- .... ....|R-- .... ....|G#4 .F77 ....
....|..|--- .... ....|R-- .... ....|--- .... ....
....|..|--- .... ....|B-4 ...7 ....|F-4 .F4F ....
....|..|--- .... ....|R-- .... ....|--- .... ....
....|..|--- .... ....|F#5 ...A ....|F-4 .F4F ....
....|..|--- .... ....|R-- .... ....|--- .... ....
....|..|--- .... ....|A#5 ...7 ....|G#4 .F3F ....
....|..|R-- .... ....|--- .... ....|--- .... ....
....|..|--- .... ....|R-- .... ....|F-4 .F4F ....
....|..|--- .... ....|R-- .... ....|--- .... ....
....|..|F-4 .F2A ....|A#5 ...7 ....|F-4 .F4F ....
....|..|C#4 .F1A ....|--- .... ....|--- .... ....
....|..|--- .... ....|R-- .... ....|F-4 .F4F ....
....|..|--- .... ....|R-- .... ....|--- .... ....
....|..|--- .... ....|G#5 ...7 ....|G#4 .F3F ....
....|..|--- .... ....|R-- .... ....|--- .... ....
....|..|--- .... ....|F#5 ...7 ....|F-4 .F4F ....
....|..|--- .... ....|--- .... ....|--- .... ....
....|..|--- .... ....|D#5 ...F ....|F-4 .F4F ....
....|..|R-- .... ....|--- .... ....|--- .... ....
....|..|--- .... ....|--- .... ....|F-4 .F4F ....
....|..|--- .... ....|R-- .... ....|--- .... ....
....|..|F-4 .F27 ....|F#5 ...F ....|F-4 .F4F ....
....|..|C#4 .F17 ....|--- .... ....|--- .... ....
....|..|--- .... ....|--- .... ....|F-4 .F4F ....
....|..|--- .... ....|R-- .... ....|--- .... ....
....|..|--- .... ....|G#5 ...F ....|F-4 .F4F ....
....|..|R-- .... ....|--- .... ....|--- .... ....
....|..|--- .... ....|--- .... ....|F-4 .F4F ....
....|..|--- .... ....|--- .... ....|--- .... ....
....|..|C#4 .F.F ....|D#5 ...A ....|F-4 .F4F ....
....|..|--- .... ....|--- .... ....|--- .... ....
....|..|--- .... ....|--- .... ....|F-4 .F47 ....
....|..|--- .... ....|R-- .... ....|--- .... ....
....|..|--- .... ....|A#5 ...F ....|F-4 .F4F ....
....|..|--- .... ....|--- .... ....|--- .... ....
....|..|D#4 .F.F ....|--- .... ....|F-4 .F4F ....
....|..|--- .... ....|R-- .... ....|--- .... ....
....|..|--- .... ....|G#5 ...A ....|G#4 .F3F ....
....|..|R-- .... ....|--- .... ....|--- .... ....
....|..|--- .... ....|--- .... ....|F-4 .F4F ....
....|..|--- .... ....|R-- .... ....|--- .... ....
....|..|F#4 .F.F ....|G#5 ...F ....|F-4 .F4F ....
....|..|--- .... ....|--- .... ....|--- .... ....
....|..|--- .... ....|--- .... ....|F-4 .F4F ....
....|..|--- .... ....|R-- .... ....|--- .... ....

[Pattern43]
....|..|--- .... ....|F#5 ...7 ....|G#4 .F3F ....
....|..|--- .... ....|--- .... ....|--- .... ....
....|..|G#4 .F.F ....|--- .... ....|F-4 .F4F ....
....|..|--- .... ....|R-- .... ....|--- .... ....
....|..|--- .... ....|G#5 ...7 ....|F-4 .F4F ....
....|..|R-- .... ....|--- .... ....|--- .... ....
....|..|--- .... ....|--- .... ....|F-4 .F4F ....
....|..|--- .... ....|R-- .... ....|--- .... ....
....|..|A#4 .F.F ....|G#5 ...A ....|F-4 .F4F ....
....|..|--- .... ....|--- .... ....|--- .... ....
....|..|R-- .... ....|--- .... ....|F-4 .F4F ....
....|..|--- .... ....|R-- .... ....|--- .... ....
....|..|C#5 .F.F ....|A#5 ...7 ....|F-4 .F4F ....
....|..|--- .... ....|--- .... ....|--- .... ....
....|..|D#4 .F.7 ....|--- .... ....|F-4 .F4F ....
....|..|--- .... ....|--- .... ....|--- .... ....
....|..|D#5 .F.F ....|--- .... ....|F-4 .F4F ....
....|..|--- .... ....|--- .... ....|--- .... ....
....|..|--- .... ....|--- .... ....|F-4 .F47 ....
....|..|--- .... ....|R-- .... ....|--- .... ....
....|..|F#4 .F.7 ....|G#5 ...7 ....|F-4 .F4F ....
....|..|--- .... ....|--- .... ....|--- .... ....
....|..|F#5 .F.F ....|--- .... ....|F-4 .F4F ....
....|..|--- .... ....|--- .... ....|--- .... ....
....|..|C#5 .F.A ....|--- .... ....|G#4 .F3F ....
....|..|--- .... ....|--- .... ....|--- .... ....
....|..|G#4 .F.7 ....|--- .... ....|F-4 .F4F ....
....|..|--- .... ....|--- .... ....|--- .... ....
....|..|G#5 .F.F ....|--- .... ....|F-4 .F4F ....
....|..|--- .... ....|--- .... ....|--- .... ....
....|..|--- .... ....|--- .... ....|F-4 .F4F ....
....|..|--- .... ....|--- .... ....|--- .... ....
....|..|A#4 .F.7 ....|--- .... ....|G#4 .F3F ....
....|..|--- .... ....|--- .... ....|--- .... ....
....|..|A#5 .F.F ....|R-- .... ....|F-4 .F4F ....
....|..|--- .... ....|--- .... ....|--- .... ....
....|..|C#5 .F.7 ....|--- .... ....|F-4 .F4F ....
....|..|--- .... ....|--- .... ....|--- .... ....
....|..|R-- .... ....|--- .... ....|F-4 .F4F ....
....|..|--- .... ....|--- .... ....|--- .... ....
....|..|C#6 .F.F ....|--- .... ....|F-4 .F4F ....
....|..|--- .... ....|--- .... ....|--- .... ....
....|..|R-- .... ....|--- .... ....|F-4 .F4F ....
....|..|--- .... ....|--- .... ....|--- .... ....
....|..|D-6 .F.F ....|--- .... ....|F-4 .F4F ....
....|..|--- .... ....|--- .... ....|--- .... ....
....|..|F#5 .F.7 ....|R-- .... ....|F-4 .F4F ....
....|..|--- .... ....|--- .... ....|--- .... ....

[Pattern44]
....|..|D#6 .F.F ....|--- .... ....|A#3 .F.F ....
....|..|--- .... ....|--- .... ....|A#3 .F5F ....
....|..|--- .... ....|--- .... ....|A#3 .F5F ....
....|..|--- .... ....|--- .... ....|--- .... ....
....|..|G#5 .F.7 ....|--- .... ....|F-4 .F47 ....
....|..|--- .... ....|--- .... ....|--- .... ....
....|..|R-- .... ....|--- .... ....|F-4 .F47 ....
....|..|--- .... ....|--- .... ....|--- .... ....
....|..|D-6 .F.A ....|F#5 ...F ....|G#4 .F37 ....
....|..|--- .... ....|--- .... ....|--- .... ....
....|..|A#5 .F.7 ....|R-- .... ....|F-4 .F47 ....
....|..|--- .... ....|--- .... ....|--- .... ....
....|..|D#6 .F.A ....|F-5 ...F ....|F-4 .F47 ....
....|..|--- .... ....|--- .... ....|A#3 .F5A ....
....|..|--- .... ....|--- .... ....|F-4 .F47 ....
....|..|--- .... ....|R-- .... ....|--- .... ....
....|..|C#6 .F.7 ....|F#5 ...F ....|F-4 .F47 ....
....|..|--- .... ....|--- .... ....|--- .... ....
....|..|R-- .... ....|--- .... ....|F-4 .F47 ....
....|..|--- .... ....|--- .... ....|--- .... ....
....|..|D-6 .F.7 ....|F-5 ...F ....|F-4 .F47 ....
....|..|--- .... ....|--- .... ....|--- .... ....
....|..|R-- .... ....|--- .... ....|F-4 .F47 ....
....|..|--- .... ....|--- .... ....|--- .... ....
....|..|D#6 .F.7 ....|C#5 ...F ....|A#3 .F.7 ....
....|..|--- .... ....|--- .... ....|A#3 .F57 ....
....|..|--- .... ....|--- .... ....|A#3 .F57 ....
....|..|--- .... ....|R-- .... ....|--- .... ....
....|..|--- .... ....|A#4 ...F ....|--- .... ....
....|..|--- .... ....|--- .... ....|--- .... ....
....|..|--- .... ....|--- .... ....|A#3 .F3F ....
....|..|--- .... ....|--- .... ....|R-- .... ....
....|..|D#4 .F2F ....|C#5 ...F ....|B-3 .F6F ....
....|..|D#4 .F4F ....|--- .... ....|B-3 .F1F ....
....|..|--- .... ....|--- .... ....|--- .... ....
....|..|--- .... ....|--- .... ....|--- .... ....
....|..|--- .... ....|D#5 ...F ....|--- .... ....
....|..|--- .... ....|--- .... ....|--- .... ....
....|..|--- .... ....|--- .... ....|--- .... ....
....|..|--- .... ....|R-- .... ....|--- .... ....
....|..|--- .... ....|F#5 ...7 ....|--- .... ....
....|..|--- .... ....|--- .... ....|--- .... ....
....|..|--- .... ....|--- .... ....|A#3 .F3A ....
....|..|--- .... ....|R-- .... ....|R-- .... ....
....|..|D#4 .F2A ....|D#5 ...F ....|B-3 .F6A ....
....|..|D#4 .F4A ....|--- .... ....|B-3 .F1A ....
....|..|--- .... ....|--- .... ....|--- .... ....
....|..|--- .... ....|--- .... ....|--- .... ....

[Pattern45]
....|..|--- .... ....|C#5 ...7 ....|--- .... ....
....|..|--- .... ....|--- .... ....|--- .... ....
....|..|--- .... ....|--- .... ....|--- .... ....
....|..|--- .... ....|--- .... ....|--- .... ....
....|..|--- .... ....|A#4 ...7 ....|--- .... ....
....|..|--- .... ....|--- .... ....|--- .... ....
....|..|--- .... ....|--- .... ....|A#3 .F37 ....
....|..|--- .... ....|R-- .... ....|R-- .... ....
....|..|D#4 .F27 ....|C#5 ...7 ....|B-3 .F67 ....
....|..|D#4 .F47 ....|--- .... ....|B-3 .F17 ....
....|..|--- .... ....|--- .... ....|--- .... ....
....|..|--- .... ....|--- .... ....|--- .... ....
....|..|--- .... ....|D#5 ...7 ....|--- .... ....
....|..|R-- .... ....|R-- .... ....|--- .... ....
....|..|--- .... ....|--- .... ....|B-3 .F.F ....
....|..|--- .... ....|--- .... ....|R-- .... ....
....|..|D#4 .F2F ....|--- .... ....|A#3 .F.F ....
....|..|D#4 .F7F ....|--- .... ....|A#3 .F5F ....
....|..|--- .... ....|--- .... ....|A#3 .F5F ....
....|..|--- .... ....|R-- .... ....|--- .... ....
....|..|--- .... ....|D#5 ...7 ....|--- .... ....
....|..|--- .... ....|--- .... ....|--- .... ....
....|..|--- .... ....|--- .... ....|--- .... ....
....|..|--- .... ....|--- .... ....|--- .... ....
....|..|--- .... ....|F#5 ...F ....|--- .... ....
....|..|R-- .... ....|R-- .... ....|--- .... ....
....|..|--- .... ....|--- .... ....|B-3 .F.A ....
....|..|--- .... ....|--- .... ....|R-- .... ....
....|..|D#4 .F2A ....|F-5 ...F ....|A#3 .F.A ....
....|..|D#4 .F7A ....|R-- .... ....|A#3 .F5A ....
....|..|--- .... ....|F#5 ...F ....|A#3 .F5A ....
....|..|--- .... ....|--- .... ....|--- .... ....
....|..|--- .... ....|--- .... ....|--- .... ....
....|..|--- .... ....|--- .... ....|--- .... ....
....|..|--- .... ....|--- .... ....|--- .... ....
....|..|--- .... ....|--- .... ....|--- .... ....
....|..|--- .... ....|F-5 ...F ....|--- .... ....
....|..|R-- .... ....|R-- .... ....|--- .... ....
....|..|--- .... ....|--- .... ....|B-3 .F.7 ....
....|..|--- .... ....|--- .... ....|R-- .... ....
....|..|D#4 .F27 ....|C#5 ...F ....|A#3 .F.7 ....
....|..|D#4 .F77 ....|R-- .... ....|A#3 .F57 ....
....|..|--- .... ....|F#5 ...A ....|A#3 .F57 ....
....|..|--- .... ....|--- .... ....|--- .... ....
....|..|--- .... ....|A#4 ...F ....|--- .... ....
....|..|R-- .... ....|--- .... ....|--- .... ....
....|..|--- .... ....|--- .... ....|A#3 .F3F ....
....|..|--- .... ....|R-- .... ....|R-- .... ....

[Pattern46]
....|..|D#4 .F2F ....|C#5 ...F ....|B-3 .F6F ....
....|..|D#4 .F4F ....|--- .... ....|B-3 .F1F ....
....|..|--- .... ....|--- .... ....|--- .... ....
....|..|--- .... ....|--- .... ....|--- .... ....
....|..|--- .... ....|D#5 ...F ....|--- .... ....
....|..|--- .... ....|R-- .... ....|--- .... ....
....|..|--- .... ....|F#5 ...7 ....|--- .... ....
....|..|--- .... ....|--- .... ....|--- .... ....
....|..|--- .... ....|A#4 ...A ....|--- .... ....
....|..|R-- .... ....|--- .... ....|--- .... ....
....|..|--- .... ....|--- .... ....|A#3 .F3A ....
....|..|--- .... ....|R-- .... ....|R-- .... ....
....|..|D#4 .F2A ....|D#5 ...F ....|B-3 .F6A ....
....|..|D#4 .F4A ....|--- .... ....|B-3 .F1A ....
....|..|--- .... ....|--- .... ....|--- .... ....
....|..|--- .... ....|--- .... ....|--- .... ....
....|..|--- .... ....|C#5 ...7 ....|--- .... ....
....|..|--- .... ....|--- .... ....|--- .... ....
....|..|--- .... ....|--- .... ....|--- .... ....
....|..|--- .... ....|--- .... ....|--- .... ....
....|..|--- .... ....|A#4 ...7 ....|--- .... ....
....|..|R-- .... ....|--- .... ....|--- .... ....
....|..|--- .... ....|--- .... ....|A#3 .F37 ....
....|..|--- .... ....|R-- .... ....|R-- .... ....
....|..|D#4 .F27 ....|C#5 ...7 ....|B-3 .F67 ....
....|..|D#4 .F47 ....|--- .... ....|B-3 .F17 ....
....|..|--- .... ....|--- .... ....|--- .... ....
....|..|--- .... ....|--- .... ....|--- .... ....
....|..|--- .... ....|D#5 ...7 ....|--- .... ....
....|..|R-- .... ....|R-- .... ....|--- .... ....
....|..|--- .... ....|--- .... ....|B-3 .F.F ....
....|..|--- .... ....|--- .... ....|R-- .... ....
....|..|F#4 .F3F ....|--- .... ....|F#4 .F3F ....
....|..|D#4 .F4F ....|--- .... ....|--- .... ....
....|..|--- .... ....|--- .... ....|--- .... ....
....|..|--- .... ....|R-- .... ....|--- .... ....
....|..|--- .... ....|D#5 ...7 ....|F#4 .F3F ....
....|..|--- .... ....|--- .... ....|--- .... ....
....|..|--- .... ....|--- .... ....|F#4 .F3F ....
....|..|--- .... ....|--- .... ....|--- .... ....
....|..|--- .... ....|D#5 ...F ....|B-4 .F6F ....
....|..|R-- .... ....|R-- .... ....|--- .... ....
....|..|--- .... ....|--- .... ....|F#4 .F3F ....
....|..|--- .... ....|R-- .... ....|R-- .... ....
....|..|F#4 .F3A ....|F-5 ...F ....|F#4 .F3F ....
....|..|D#4 .F4A ....|--- .... ....|--- .... ....
....|..|--- .... ....|--- .... ....|F#4 .F3F ....
....|..|--- .... ....|R-- .... ....|--- .... ....

[Pattern47]
....|..|--- .... ....|F#5 ...F ....|B-4 .F6F ....
....|..|--- .... ....|--- .... ....|--- .... ....
....|..|--- .... ....|--- .... ....|F#4 .F3F ....
....|..|--- .... ....|--- .... ....|--- .... ....
....|..|--- .... ....|F-5 ...F ....|F#4 .F3F ....
....|..|R-- .... ....|R-- .... ....|--- .... ....
....|..|--- .... ....|D#5 ...F ....|F#4 .F3F ....
....|..|--- .... ....|R-- .... ....|R-- .... ....
....|..|F#4 .F37 ....|F-5 ...A ....|F#4 .F3F ....
....|..|D#4 .F47 ....|--- .... ....|--- .... ....
....|..|--- .... ....|--- .... ....|F#4 .F3F ....
....|..|--- .... ....|R-- .... ....|--- .... ....
....|..|--- .... ....|F#5 ...A ....|F#4 .F3F ....
....|..|R-- .... ....|--- .... ....|--- .... ....
....|..|--- .... ....|R-- .... ....|F#4 .F3F ....
....|..|--- .... ....|--- .... ....|--- .... ....
....|..|G#4 .F2F ....|D#5 ...7 ....|G#4 .F7F ....
....|..|D#4 .F5F ....|R-- .... ....|--- .... ....
....|..|--- .... ....|D#5 ...A ....|F#4 .F37 ....
....|..|--- .... ....|R-- .... ....|--- .... ....
....|..|--- .... ....|F-5 ...7 ....|G#4 .F7F ....
....|..|--- .... ....|--- .... ....|--- .... ....
....|..|--- .... ....|--- .... ....|G#4 .F7F ....
....|..|--- .... ....|R-- .... ....|--- .... ....
....|..|--- .... ....|F-5 ...F ....|B-4 .F6F ....
....|..|R-- .... ....|--- .... ....|--- .... ....
....|..|--- .... ....|R-- .... ....|G#4 .F7F ....
....|..|--- .... ....|--- .... ....|--- .... ....
....|..|G#4 .F2A ....|F#5 ...F ....|G#4 .F7F ....
....|..|D#4 .F5A ....|R-- .... ....|--- .... ....
....|..|--- .... ....|G#5 ...F ....|G#4 .F7F ....
....|..|--- .... ....|--- .... ....|--- .... ....
....|..|--- .... ....|--- .... ....|B-4 .F6F ....
....|..|--- .... ....|--- .... ....|--- .... ....
....|..|--- .... ....|--- .... ....|G#4 .F7F ....
....|..|--- .... ....|--- .... ....|--- .... ....
....|..|--- .... ....|F#5 ...F ....|G#4 .F7F ....
....|..|R-- .... ....|--- .... ....|--- .... ....
....|..|--- .... ....|R-- .... ....|G#4 .F7F ....
....|..|--- .... ....|--- .... ....|--- .... ....
....|..|G#4 .F27 ....|F-5 ...F ....|G#4 .F7F ....
....|..|D#4 .F57 ....|R-- .... ....|--- .... ....
....|..|--- .... ....|D#5 ...F ....|G#4 .F7F ....
....|..|--- .... ....|--- .... ....|--- .... ....
....|..|--- .... ....|--- .... ....|G#4 .F7F ....
....|..|R-- .... ....|R-- .... ....|--- .... ....
....|..|--- .... ....|C#5 ...F ....|G#4 .F7F ....
....|..|--- .... ....|--- .... ....|--- .... ....

[Pattern48]
....|..|F-4 .F3F ....|F-5 ...7 ....|F-4 .F5F ....
....|..|C#4 .F6F ....|--- .... ....|--- .... ....
....|..|--- .... ....|--- .... ....|G#4 .F77 ....
....|..|--- .... ....|--- .... ....|--- .... ....
....|..|--- .... ....|F#5 ...7 ....|F-4 .F5F ....
....|..|--- .... ....|R-- .... ....|--- .... ....
....|..|--- .... ....|G#5 ...7 ....|F-4 .F5F ....
....|..|--- .... ....|--- .... ....|--- .... ....
....|..|--- .... ....|--- .... ....|A#4 .F2F ....
....|..|R-- .... ....|R-- .... ....|--- .... ....
....|..|--- .... ....|C#5 ...A ....|F-4 .F5F ....
....|..|--- .... ....|--- .... ....|--- .... ....
....|..|F-4 .F3A ....|F#5 ...7 ....|F-4 .F5F ....
....|..|C#4 .F6A ....|--- .... ....|--- .... ....
....|..|--- .... ....|--- .... ....|F-4 .F5F ....
....|..|--- .... ....|--- .... ....|--- .... ....
....|..|--- .... ....|F-5 ...7 ....|A#4 .F2F ....
....|..|--- .... ....|R-- .... ....|--- .... ....
....|..|--- .... ....|D#5 ...7 ....|F-4 .F5F ....
....|..|--- .... ....|R-- .... ....|--- .... ....
....|..|--- .... ....|--- .... ....|F-4 .F5F ....
....|..|R-- .... ....|R-- .... ....|--- .... ....
....|..|--- .... ....|C#5 ...7 ....|F-4 .F5F ....
....|..|--- .... ....|--- .... ....|--- .... ....
....|..|F-4 .F37 ....|A#4 ...F ....|F-4 .F5F ....
....|..|C#4 .F67 ....|R-- .... ....|--- .... ....
....|..|--- .... ....|C#5 ...F ....|F-4 .F5F ....
....|..|--- .... ....|--- .... ....|--- .... ....
....|..|--- .... ....|--- .... ....|F-4 .F5F ....
....|..|R-- .... ....|--- .... ....|--- .... ....
....|..|--- .... ....|R-- .... ....|F-4 .F5F ....
....|..|--- .... ....|R-- .... ....|--- .... ....
....|..|F#4 .F6F ....|D#5 ...F ....|F#4 .F6F ....
....|..|D#4 .F7F ....|--- .... ....|--- .... ....
....|..|--- .... ....|--- .... ....|F-4 .F57 ....
....|..|--- .... ....|--- .... ....|--- .... ....
....|..|--- .... ....|A#4 ...A ....|F#4 .F6F ....
....|..|--- .... ....|R-- .... ....|--- .... ....
....|..|--- .... ....|C#5 ...A ....|F#4 .F6F ....
....|..|--- .... ....|--- .... ....|--- .... ....
....|..|--- .... ....|--- .... ....|A#4 .F3F ....
....|..|R-- .... ....|--- .... ....|--- .... ....
....|..|--- .... ....|R-- .... ....|F#4 .F6F ....
....|..|--- .... ....|R-- .... ....|--- .... ....
....|..|F#4 .F6A ....|D#5 ...A ....|F#4 .F6F ....
....|..|D#4 .F7A ....|--- .... ....|--- .... ....
....|..|--- .... ....|--- .... ....|F#4 .F6F ....
....|..|--- .... ....|--- .... ....|--- .... ....

[Pattern49]
....|..|--- .... ....|A#4 ...7 ....|A#4 .F3F ....
....|..|--- .... ....|R-- .... ....|--- .... ....
....|..|--- .... ....|C#5 ...7 ....|F#4 .F6F ....
....|..|--- .... ....|--- .... ....|--- .... ....
....|..|--- .... ....|--- .... ....|F#4 .F6F ....
....|..|R-- .... ....|--- .... ....|--- .... ....
....|..|--- .... ....|R-- .... ....|F#4 .F6F ....
....|..|--- .... ....|R-- .... ....|--- .... ....
....|..|F#4 .F67 ....|D#5 ...7 ....|F#4 .F6F ....
....|..|D#4 .F77 ....|--- .... ....|--- .... ....
....|..|--- .... ....|--- .... ....|F#4 .F6F ....
....|..|--- .... ....|--- .... ....|--- .... ....
....|..|--- .... ....|C#5 ...F ....|F#4 .F6F ....
....|..|R-- .... ....|R-- .... ....|--- .... ....
....|..|--- .... ....|C#5 ...F ....|F#4 .F6F ....
....|..|--- .... ....|R-- .... ....|--- .... ....
....|..|D#4 .F2F ....|C#5 ...F ....|F#4 .F3F ....
....|..|B-3 .F1F ....|--- .... ....|--- .... ....
....|..|--- .... ....|B-4 ...F ....|F#4 .F67 ....
....|..|--- .... ....|R-- .... ....|--- .... ....
....|..|--- .... ....|B-4 ...F ....|F#4 .F3F ....
....|..|--- .... ....|--- .... ....|--- .... ....
....|..|--- .... ....|--- .... ....|F#4 .F3F ....
....|..|--- .... ....|--- .... ....|--- .... ....
....|..|--- .... ....|C#5 ...A ....|B-4 .F6F ....
....|..|R-- .... ....|R-- .... ....|--- .... ....
....|..|--- .... ....|C#5 ...A ....|F#4 .F3F ....
....|..|--- .... ....|R-- .... ....|--- .... ....
....|..|D#4 .F2A ....|C#5 ...A ....|F#4 .F3F ....
....|..|B-3 .F1A ....|--- .... ....|--- .... ....
....|..|--- .... ....|B-4 ...A ....|F#4 .F3F ....
....|..|--- .... ....|R-- .... ....|--- .... ....
....|..|--- .... ....|B-4 ...A ....|B-4 .F6F ....
....|..|--- .... ....|--- .... ....|--- .... ....
....|..|--- .... ....|--- .... ....|F#4 .F3F ....
....|..|--- .... ....|--- .... ....|--- .... ....
....|..|--- .... ....|C#5 ...7 ....|F#4 .F3F ....
....|..|R-- .... ....|R-- .... ....|--- .... ....
....|..|--- .... ....|C#5 ...7 ....|F#4 .F3F ....
....|..|--- .... ....|R-- .... ....|--- .... ....
....|..|D#4 .F27 ....|C#5 ...7 ....|F#4 .F3F ....
....|..|B-3 .F17 ....|--- .... ....|--- .... ....
....|..|--- .... ....|B-4 ...7 ....|F#4 .F3F ....
....|..|--- .... ....|R-- .... ....|--- .... ....
....|..|--- .... ....|B-4 ...7 ....|F#4 .F3F ....
....|..|R-- .... ....|--- .... ....|--- .... ....
....|..|--- .... ....|--- .... ....|F#4 .F3F ....
....|..|--- .... ....|R-- .... ....|--- .... ....

[Pattern50]
....|..|D#4 .F3F ....|--- .... ....|G#4 .F7F ....
....|..|B-3 .F6F ....|--- .... ....|--- .... ....
....|..|--- .... ....|--- .... ....|F#4 .F37 ....
....|..|--- .... ....|--- .... ....|--- .... ....
....|..|--- .... ....|--- .... ....|G#4 .F7F ....
....|..|--- .... ....|--- .... ....|--- .... ....
....|..|--- .... ....|--- .... ....|G#4 .F7F ....
....|..|--- .... ....|--- .... ....|--- .... ....
....|..|--- .... ....|A#4 ...F ....|B-4 .F6F ....
....|..|R-- .... ....|--- .... ....|--- .... ....
....|..|--- .... ....|--- .... ....|G#4 .F7F ....
....|..|--- .... ....|R-- .... ....|--- .... ....
....|..|D#4 .F3A ....|B-4 ...F ....|G#4 .F7F ....
....|..|B-3 .F6A ....|--- .... ....|--- .... ....
....|..|--- .... ....|--- .... ....|G#4 .F7F ....
....|..|--- .... ....|R-- .... ....|--- .... ....
....|..|--- .... ....|A#5 ...F ....|B-4 .F6F ....
....|..|--- .... ....|--- .... ....|--- .... ....
....|..|--- .... ....|R-- .... ....|G#4 .F7F ....
....|..|--- .... ....|--- .... ....|--- .... ....
....|..|--- .... ....|A#5 ...F ....|G#4 .F7F ....
....|..|R-- .... ....|R-- .... ....|--- .... ....
....|..|--- .... ....|--- .... ....|G#4 .F7F ....
....|..|--- .... ....|R-- .... ....|--- .... ....
....|..|D#4 .F37 ....|G#5 ...F ....|G#4 .F7F ....
....|..|B-3 .F67 ....|R-- .... ....|--- .... ....
....|..|--- .... ....|F#5 ...F ....|G#4 .F7F ....
....|..|--- .... ....|R-- .... ....|--- .... ....
....|..|--- .... ....|A#5 ...A ....|G#4 .F7F ....
....|..|R-- .... ....|--- .... ....|--- .... ....
....|..|--- .... ....|R-- .... ....|G#4 .F7F ....
....|..|--- .... ....|R-- .... ....|--- .... ....
....|..|G#4 .F.F ....|G#5 ...F ....|F-4 .F4F ....
....|..|--- .... ....|R-- .... ....|--- .... ....
....|..|--- .... ....|--- .... ....|G#4 .F77 ....
....|..|--- .... ....|R-- .... ....|--- .... ....
....|..|G#4 .F2F ....|B-4 ...7 ....|F-4 .F4F ....
....|..|--- .... ....|R-- .... ....|--- .... ....
....|..|--- .... ....|F#5 ...A ....|F-4 .F4F ....
....|..|--- .... ....|R-- .... ....|--- .... ....
....|..|G#4 .F7F ....|A#5 ...7 ....|G#4 .F3F ....
....|..|R-- .... ....|--- .... ....|--- .... ....
....|..|--- .... ....|R-- .... ....|F-4 .F4F ....
....|..|--- .... ....|R-- .... ....|--- .... ....
....|..|G#4 .FCF ....|A#5 ...7 ....|F-4 .F4F ....
....|..|--- .... ....|R-- .... ....|--- .... ....
....|..|--- .... ....|--- .... ....|F-4 .F4F ....
....|..|R-- .... ....|--- .... ....|--- .... ....

[Pattern51]
....|..|C#5 .F.F ....|A#5 ...F ....|F-4 .F4F ....
....|..|--- .... ....|R-- .... ....|--- .... ....
....|..|R-- .... ....|F#5 ...7 ....|F-4 .F4F ....
....|..|--- .... ....|R-- .... ....|F-4 .F.F ....
....|..|G#4 .F2F ....|G#5 ...F ....|F-4 .F4F ....
....|..|R-- .... ....|--- .... ....|--- .... ....
....|..|--- .... ....|--- .... ....|G#4 .F77 ....
....|..|--- .... ....|R-- .... ....|--- .... ....
....|..|G#4 .F.7 ....|F#5 ...F ....|F-4 .F47 ....
....|..|--- .... ....|--- .... ....|--- .... ....
....|..|--- .... ....|--- .... ....|F-4 .F4A ....
....|..|R-- .... ....|R-- .... ....|--- .... ....
....|..|G#4 .F27 ....|G#5 ...F ....|F-4 .F47 ....
....|..|--- .... ....|--- .... ....|--- .... ....
....|..|R-- .... ....|--- .... ....|F-4 .F47 ....
....|..|B-4 .F8F ....|R-- .... ....|F-4 .F.A ....
....|..|G#4 .F77 ....|G#5 ...A ....|F#4 .F.F ....
....|..|--- .... ....|--- .... ....|--- .... ....
....|..|--- .... ....|--- .... ....|D#4 .F2F ....
....|..|--- .... ....|R-- .... ....|--- .... ....
....|..|G#4 .FC7 ....|R-- .... ....|D#4 .F2F ....
....|..|--- .... ....|F#5 ...F ....|D#4 .F.F ....
....|..|--- .... ....|--- .... ....|D#4 .F8F ....
....|..|R-- .... ....|R-- .... ....|A#4 .F2F ....
....|..|C#5 .F.7 ....|A#5 ...7 ....|F#4 .F.F ....
....|..|--- .... ....|--- .... ....|--- .... ....
....|..|R-- .... ....|--- .... ....|D#4 .F2F ....
....|..|B-4 .F8A ....|R-- .... ....|F-4 .F.7 ....
....|..|G#4 .F27 ....|G#5 ...7 ....|D#4 .F2F ....
....|..|--- .... ....|--- .... ....|D#4 .F.F ....
....|..|--- .... ....|--- .... ....|D#4 .F8F ....
....|..|--- .... ....|R-- .... ....|A#4 .F2F ....
....|..|--- .... ....|F#5 ...7 ....|F#4 .F.F ....
....|..|--- .... ....|F#5 ...A ....|D#4 .F.A ....
....|..|--- .... ....|--- .... ....|C#4 .F3F ....
....|..|--- .... ....|R-- .... ....|A#4 .F2A ....
....|..|--- .... ....|G#5 ...7 ....|C#4 .FEF ....
....|..|--- .... ....|--- .... ....|D#4 .F.F ....
....|..|--- .... ....|--- .... ....|D#4 .F2F ....
....|..|B-4 .F87 ....|--- .... ....|F#4 .F.F ....
....|..|R-- .... ....|--- .... ....|F#4 .FFF ....
....|..|--- .... ....|--- .... ....|G#4 .F.F ....
....|..|--- .... ....|--- .... ....|G#4 .FFF ....
....|..|--- .... ....|--- .... ....|A#4 .F2A ....
....|..|--- .... ....|--- .... ....|A#4 .F2F ....
....|..|--- .... ....|F#5 ...7 ....|D#4 .F.7 ....
....|..|--- .... ....|--- .... ....|A#4 .F2F ....
....|..|--- .... ....|--- .... ....|A#4 .F.F ....

[Pattern52]
....|..|--- .... ....|--- .... ....|F#4 .F.F ....
....|..|--- .... ....|--- .... ....|D#4 .F.A ....
....|..|--- .... ....|--- .... ....|D#4 .F2F ....
....|..|--- .... ....|--- .... ....|F#4 .F.A ....
....|..|--- .... ....|--- .... ....|D#4 .FDF ....
....|..|--- .... ....|--- .... ....|D#4 .F3F ....
....|..|--- .... ....|--- .... ....|D#4 .F5F ....
....|..|--- .... ....|--- .... ....|G#4 .F2F ....
....|..|--- .... ....|--- .... ....|C#5 .F.F ....
....|..|--- .... ....|--- .... ....|--- .... ....
....|..|--- .... ....|--- .... ....|B-4 .FFF ....
....|..|--- .... ....|--- .... ....|A#4 .F.A ....
....|..|--- .... ....|--- .... ....|G#4 .FDF ....
....|..|--- .... ....|--- .... ....|G#4 .F.F ....
....|..|--- .... ....|--- .... ....|G#4 .F2F ....
....|..|--- .... ....|--- .... ....|B-4 .F.F ....
....|..|--- .... ....|--- .... ....|C#5 .F.F ....
....|..|--- .... ....|--- .... ....|G#4 .F.7 ....
....|..|--- .... ....|--- .... ....|B-4 .FFF ....
....|..|--- .... ....|--- .... ....|G#4 .F2A ....
....|..|--- .... ....|--- .... ....|G#4 .FDF ....
....|..|--- .... ....|--- .... ....|G#4 .F.F ....
....|..|--- .... ....|--- .... ....|D#4 .F3F ....
....|..|--- .... ....|--- .... ....|D#4 .F.F ....
....|..|--- .... ....|--- .... ....|D#4 .F.F ....
....|..|--- .... ....|--- .... ....|C#5 .F.F ....
....|..|--- .... ....|--- .... ....|B-4 .FFF ....
....|..|--- .... ....|--- .... ....|B-4 .F.A ....
....|..|--- .... ....|--- .... ....|G#4 .F2F ....
....|..|--- .... ....|--- .... ....|D#4 .F37 ....
....|..|F#5 .F.F ....|--- .... ....|D#4 .F3F ....
....|..|A#5 .F.F ....|--- .... ....|D#4 .F.F ....
....|..|F#4 .F1F ....|--- .... ....|F#4 .F.F ....
....|..|--- .... ....|--- .... ....|G#4 .F.A ....
....|..|--- .... ....|--- .... ....|D#4 .F2F ....
....|..|--- .... ....|--- .... ....|D#4 .F.A ....
....|..|--- .... ....|--- .... ....|D#4 .F2F ....
....|..|--- .... ....|--- .... ....|D#4 .F.F ....
....|..|--- .... ....|--- .... ....|D#4 .F8F ....
....|..|--- .... ....|--- .... ....|A#4 .F2F ....
....|..|--- .... ....|--- .... ....|F#4 .F.F ....
....|..|--- .... ....|--- .... ....|--- .... ....
....|..|F#5 .F.A ....|--- .... ....|D#4 .F2F ....
....|..|A#5 .F.A ....|--- .... ....|D#4 .F.A ....
....|..|F#4 .F1A ....|--- .... ....|D#4 .F2F ....
....|..|--- .... ....|--- .... ....|D#4 .F.F ....
....|..|--- .... ....|--- .... ....|D#4 .F8F ....
....|..|--- .... ....|--- .... ....|A#4 .F2F ....

[Pattern53]
....|..|--- .... ....|--- .... ....|F#4 .F.F ....
....|..|--- .... ....|--- .... ....|C#5 .F.7 ....
....|..|--- .... ....|--- .... ....|C#4 .F3F ....
....|..|--- .... ....|--- .... ....|A#4 .F2A ....
....|..|--- .... ....|R-- .... ....|C#4 .FEF ....
....|..|--- .... ....|--- .... ....|D#4 .F.F ....
....|..|F#5 .F.7 ....|--- .... ....|D#4 .F2F ....
....|..|A#5 .F.7 ....|--- .... ....|F#4 .F.F ....
....|..|F#4 .F17 ....|--- .... ....|F#4 .FFF ....
....|..|--- .... ....|--- .... ....|G#4 .F.F ....
....|..|--- .... ....|--- .... ....|G#4 .FFF ....
....|..|--- .... ....|--- .... ....|A#4 .F2A ....
....|..|--- .... ....|--- .... ....|A#4 .F2F ....
....|..|--- .... ....|--- .... ....|D#4 .F.7 ....
....|..|--- .... ....|--- .... ....|A#4 .F2F ....
....|..|--- .... ....|--- .... ....|A#4 .F.F ....
....|..|--- .... ....|R-- .... ....|F#4 .F.F ....
....|..|--- .... ....|--- .... ....|D#4 .F.A ....
....|..|--- .... ....|--- .... ....|D#4 .F2F ....
....|..|--- .... ....|--- .... ....|F#4 .F.A ....
....|..|--- .... ....|--- .... ....|D#4 .FDF ....
....|..|--- .... ....|--- .... ....|D#4 .F3F ....
....|..|--- .... ....|--- .... ....|D#4 .F5F ....
....|..|--- .... ....|--- .... ....|G#4 .F2F ....
....|..|--- .... ....|--- .... ....|C#5 .F.F ....
....|..|--- .... ....|--- .... ....|--- .... ....
....|..|--- .... ....|--- .... ....|B-4 .FFF ....
....|..|--- .... ....|--- .... ....|A#4 .F.A ....
....|..|--- .... ....|R-- .... ....|G#4 .FDF ....
....|..|--- .... ....|--- .... ....|G#4 .F.F ....
....|..|--- .... ....|--- .... ....|G#4 .F2F ....
....|..|--- .... ....|--- .... ....|B-4 .F.F ....
....|..|--- .... ....|--- .... ....|C#5 .F.F ....
....|..|--- .... ....|--- .... ....|G#4 .F.7 ....
....|..|--- .... ....|--- .... ....|B-4 .FFF ....
....|..|--- .... ....|--- .... ....|G#4 .F2A ....
....|..|--- .... ....|--- .... ....|G#4 .FDF ....
....|..|--- .... ....|--- .... ....|G#4 .F.F ....
....|..|--- .... ....|--- .... ....|D#4 .F3F ....
....|..|--- .... ....|--- .... ....|D#4 .F.F ....
....|..|--- .... ....|--- .... ....|D#4 .F.F ....
....|..|--- .... ....|--- .... ....|C#5 .F.F ....
....|..|--- .... ....|--- .... ....|B-4 .FFF ....
....|..|--- .... ....|--- .... ....|B-4 .F.A ....
....|..|--- .... ....|--- .... ....|G#4 .F2F ....
....|..|--- .... ....|--- .... ....|D#4 .F37 ....
....|..|R-- .... ....|--- .... ....|D#4 .F3F ....
....|..|--- .... ....|--- .... ....|D#4 .F.F ....

[Pattern54]
....|..|A#4 .F2F ....|--- .... ....|A#3 .F.F ....
....|..|F#4 .F1F ....|--- .... ....|A#3 .F4F ....
....|..|--- .... ....|--- .... ....|B-4 .FF7 ....
....|..|--- .... ....|--- .... ....|D#4 .F.A ....
....|..|--- .... ....|--- .... ....|G#4 .FD7 ....
....|..|--- .... ....|--- .... ....|G#4 .F.7 ....
....|..|--- .... ....|--- .... ....|G#4 .F27 ....
....|..|--- .... ....|--- .... ....|B-4 .F.7 ....
....|..|--- .... ....|--- .... ....|C#5 .F.7 ....
....|..|--- .... ....|--- .... ....|--- .... ....
....|..|R-- .... ....|--- .... ....|B-4 .FF7 ....
....|..|--- .... ....|--- .... ....|D#4 .F.A ....
....|..|A#4 .F2A ....|--- .... ....|G#4 .FD7 ....
....|..|F#4 .F1A ....|--- .... ....|G#4 .F.7 ....
....|..|--- .... ....|--- .... ....|D#4 .F37 ....
....|..|--- .... ....|--- .... ....|D#4 .F.7 ....
....|..|--- .... ....|--- .... ....|D#4 .F.7 ....
....|..|--- .... ....|--- .... ....|C#5 .F.7 ....
....|..|--- .... ....|--- .... ....|B-4 .FF7 ....
....|..|--- .... ....|--- .... ....|--- .... ....
....|..|--- .... ....|--- .... ....|G#4 .F27 ....
....|..|--- .... ....|--- .... ....|--- .... ....
....|..|R-- .... ....|--- .... ....|D#4 .F37 ....
....|..|--- .... ....|--- .... ....|D#4 .F.7 ....
....|..|A#4 .F27 ....|--- .... ....|A#3 .F.7 ....
....|..|F#4 .F17 ....|--- .... ....|A#3 .F47 ....
....|..|--- .... ....|--- .... ....|--- .... ....
....|..|--- .... ....|--- .... ....|--- .... ....
....|..|--- .... ....|--- .... ....|--- .... ....
....|..|R-- .... ....|--- .... ....|--- .... ....
....|..|--- .... ....|--- .... ....|--- .... ....
....|..|--- .... ....|--- .... ....|C#4 .F3F ....
....|..|--- .... ....|--- .... ....|R-- .... ....
....|..|--- .... ....|--- .... ....|--- .... ....
....|..|--- .... ....|--- .... ....|--- .... ....
....|..|--- .... ....|--- .... ....|--- .... ....
....|..|--- .... ....|--- .... ....|--- .... ....
....|..|--- .... ....|--- .... ....|--- .... ....
....|..|--- .... ....|--- .... ....|--- .... ....
....|..|--- .... ....|--- .... ....|--- .... ....
....|..|--- .... ....|--- .... ....|--- .... ....
....|..|R-- .... ....|--- .... ....|--- .... ....
....|..|--- .... ....|--- .... ....|--- .... ....
....|..|--- .... ....|--- .... ....|C#4 .F3A ....
....|..|--- .... ....|--- .... ....|R-- .... ....
....|..|--- .... ....|--- .... ....|--- .... ....
....|..|--- .... ....|--- .... ....|--- .... ....
....|..|--- .... ....|--- .... ....|--- .... ....

[Pattern55]
....|..|--- .... ....|--- .... ....|--- .... ....
....|..|--- .... ....|--- .... ....|--- .... ....
....|..|--- .... ....|--- .... ....|--- .... ....
....|..|--- .... ....|--- .... ....|--- .... ....
....|..|--- .... ....|--- .... ....|--- .... ....
....|..|R-- .... ....|--- .... ....|--- .... ....
....|..|--- .... ....|--- .... ....|--- .... ....
....|..|--- .... ....|--- .... ....|C#4 .F37 ....

