[Module]
VortexTrackerII=0
Version=3.5
Title=kiki0.mid
Author=oisee ^ 4d 29.05.2010
NoteTable=4
ChipFreq=1750000
Speed=4
PlayOrder=L0,1,2,3,4,5,6,7,8,9,10,11,12,13,14,15,16,17,18,19,20,21,22,23,24,25,26,27,28,29,30,31,32,33,34,35,36,37,38,39,40,41,42,43,44,45,46,47,48,49,50,51,52,53,54,55


[Ornament1]
L0,3

[Ornament2]
L0,3,5

[Ornament3]
L0,3,10

[Ornament4]
L0,10

[Ornament5]
L0,7,10

[Ornament6]
L0,5

[Ornament7]
L0,2,5

[Ornament8]
L0,2

[Ornament9]
L0,5,8

[Ornament10]
L0,4,7

[Ornament11]
L0,3,7

[Ornament12]
L0,4

[Ornament13]
L0,4,9

[Ornament14]
L0,3,8

[Ornament15]
L0,5,9


[Sample1]
TnE +000_ +00_ F_
TnE +000_ +00_ F_
TnE +000_ +00_ F_
TnE +000_ +00_ D_
TnE +000_ +00_ B_
TnE +000_ +00_ B_ L

[Sample2]
TnE +000_ +00_ F_ L

[Sample3]
TnE +001_ +00_ F_
TnE +002_ +00_ F_
TnE +001_ +00_ E_
TnE +002_ +00_ E_
TnE +000_ +00_ E_ L
TnE -001_ +00_ E_
TnE -002_ +00_ E_
TnE -001_ +00_ E_
TnE +000_ +00_ E_
TnE +001_ +00_ E_
TnE +002_ +00_ E_
TnE +001_ +00_ E_

[Sample4]
TnE +002_ +00_ D_
TnE +002_ +00_ D_
TnE +002_ +00_ C_
TnE +002_ +00_ B_
TnE +002_ +00_ A_ L
TnE +002_ +00_ A_
TnE +002_ +00_ A_
TnE +002_ +00_ A_
TnE +002_ +00_ A_
TnE +002_ +00_ A_
TnE +002_ +00_ A_
TnE +002_ +00_ A_

[Sample5]
TnE +000_ +00_ F_
TnE +000_ +00_ F_
tne +000_ +00_ 0_ L

[Sample6]
TnE -001_ +00_ F_ L

[Sample7]
TnE +006_ +00_ F_ L

[Sample8]
tNe +000_ +00_ F_
tNe +000_ +00_ B_
tNe +000_ +00_ 7_
tNe +000_ +00_ 6- L

[Sample9]
TnE +080_ +00_ F_
TnE +100_ +00_ E_
TnE +180_ +00_ E_
TnE +200_ +00_ E_
TnE +240_ +00_ D_
TnE +280_ +00_ D_
TnE +2C0_ +00_ D_
TnE +300_ +00_ C_
TnE +300_ +00_ C_
TnE +340_ +00_ C_
TnE +340_ +00_ C_
TnE +380_ +00_ B_
TnE +380_ +00_ B_
TnE +400_ +00_ B_
TnE +400_ +00_ B_
TnE +480_ +00_ A_
TnE +500_ +00_ 9_
TnE +580_ +00_ 7_
TnE +600_ +00_ 4_
TnE +680_ +00_ 1_
TnE +000_ +00_ 0_ L

[Sample10]
Tne +1C0_ +00_ F_
Tne +280_ +00_ E_
Tne +380_ +00_ C_
Tne +440_ +00_ A_
Tne +480_ +00_ 8_
TnE +000_ +00_ 0_ L

[Sample11]
TNe +200_ -0A_ F_
tNe +000_ +0F_ A_
TNe +200_ -07_ E_
tNe +000_ +0E_ B- L

[Sample12]
TNE +0A0_ +05_ F_
TNE +140_ +02_ D_
TNE +140_ +02_ B_
TNE +100_ +00_ A_ L
TNE +140_ +00_ A_
TNE +200_ +00_ A-

[Sample13]
Tne +200_ +00_ F_
Tne +2C0_ +00_ F_
Tne +380_ +00_ E_
Tne +500_ +00_ C_
Tne +520_ +00_ 9_
tne +000_ +00_ 0_ L

[Sample14]
TNE -100_ +00_ F_
TNE -100_ +00_ D_
TNE -100_ +00_ A_
TNE -100_ +00_ 5_
tne +000_ +00_ 0_ L

[Sample15]
TNE -100_ +00_ 5_
TNE -100_ +00_ 8_
TNE -100_ +00_ B_
TNE -100_ +00_ F_
TNe -100_ +00_ 9- L

[Sample16]
TnE +000_ +00_ C_
TnE +000_ +00_ E_
TnE +000_ +00_ F_
TnE +000_ +00_ F_
TnE +000_ +00_ E_
TnE +000_ +00_ D_
TnE +000_ +00_ C_
TnE +000_ +00_ C_ L
TnE +001_ +00_ C_
TnE +002_ +00_ C_
TnE +003_ +00_ C_
TnE +001_ +00_ C_
TnE +000_ +00_ C_
TnE -001_ +00_ C_
TnE -002_ +00_ C_
TnE -003_ +00_ C_
TnE -001_ +00_ C_
TnE +000_ +00_ C_
TnE +000_ +00_ C_

[Sample17]
Tne +1C0_ +00_ F_
Tne +280_ +00_ D_
Tne +380_ +00_ 7_
TNE +000_ +00_ 0_ L

[Sample18]
tnE +000_ +00_ 0_ L

[Sample19]
TNe +000_ +00_ F_
TNe +000_ +00_ C_
TNe +000_ +00_ 6_
TNe +000_ +01_ A- L

[Sample20]
TNE +140_ +00_ F_
tNE +000_ +00_ B- L

[Sample21]
tNE +000_ +00_ D_
tNE +000_ +00_ 8_
tNE +000_ +00_ 1_
TNE +000_ +00_ 0_ L

[Sample22]
TnE +000_ +00_ D_ L
TnE +000_ +00_ D_
tne +000_ +00_ 9_
tne +000_ +00_ 9_
TnE +000_ +00_ D_
TnE +000_ +00_ D_
tne +000_ +00_ 9_
tne +000_ +00_ 9_
TnE +000_ +00_ D_
TnE +000_ +00_ D_
TnE +000_ +00_ D_
TnE +000_ +00_ D_
TnE +000_ +00_ D_
TnE +000_ +00_ D_
tne +000_ +00_ 9_
tne +000_ +00_ 9_

[Sample23]
TnE +000_ +00_ F_ L
TnE +010_ +01_ F_
TnE +010_ +01_ F_
TnE +010_ +01_ F_
TnE +010_ +01_ F_
TnE +000_ +00_ F_
TnE +000_ +00_ F_
TnE -010_ -01_ F_
TnE -010_ -01_ F_
TnE -010_ -01_ F_
TnE -010_ -01_ F_
TnE +000_ +00_ F_

[Sample24]
TNe +000_ -01_ C_
TNe +000_ -01_ D_
TNe +000_ -01_ E_
TNe +000_ -01_ F_
TNe +000_ -01_ F_
TNe +000_ -01_ F_
TNe +000_ -01_ F_
TNe +000_ -01_ F_
TNe +000_ -01_ E_
TNe +000_ -01_ E_
TNe +000_ -01_ E_
TNe +000_ -01_ F_
TNe +000_ -01_ F_ L

[Sample25]
TNE +000_ +00_ F_
TNE +000_ +00_ F_ L
TNE +000_ +00_ F_
TNE +000_ +00_ F_
TNE +000_ +00_ F-

[Sample26]
tne +000_ +00_ 0_ L

[Sample27]
tne +000_ +00_ 0_ L

[Sample28]
tne +000_ +00_ 0_ L

[Sample29]
tne +000_ +00_ 0_ L

[Sample30]
TNE +000_ +00_ C+ L

[Sample31]
TNe +1C0_ +00_ F_
Tne +280_ +00_ E_
Tne +380_ +00_ C_
Tne +440_ +00_ A_
Tne +480_ +00_ 8_
TnE +000_ +00_ 0_ L

[Pattern0]
....|..|--- .... ....|--- .... ....|--- .... ....
....|..|--- .... ....|--- .... ....|--- .... ....
....|..|--- .... ....|--- .... ....|--- .... ....
....|..|--- .... ....|--- .... ....|--- .... ....
....|..|--- .... ....|--- .... ....|--- .... ....
....|..|--- .... ....|--- .... ....|--- .... ....
....|..|--- .... ....|--- .... ....|--- .... ....
....|..|--- .... ....|--- .... ....|--- .... ....
....|..|--- .... ....|--- .... ....|--- .... ....
....|..|--- .... ....|--- .... ....|--- .... ....
....|..|--- .... ....|--- .... ....|--- .... ....
....|..|--- .... ....|--- .... ....|--- .... ....
....|..|--- .... ....|--- .... ....|--- .... ....
....|..|--- .... ....|--- .... ....|--- .... ....
....|..|--- .... ....|--- .... ....|--- .... ....
....|..|--- .... ....|--- .... ....|--- .... ....
....|..|--- .... ....|--- .... ....|--- .... ....
....|..|--- .... ....|--- .... ....|--- .... ....
....|..|--- .... ....|--- .... ....|--- .... ....
....|..|--- .... ....|--- .... ....|--- .... ....
....|..|--- .... ....|--- .... ....|--- .... ....
....|..|--- .... ....|--- .... ....|--- .... ....
....|..|--- .... ....|--- .... ....|--- .... ....
....|..|--- .... ....|--- .... ....|--- .... ....
....|..|--- .... ....|--- .... ....|--- .... ....
....|..|--- .... ....|--- .... ....|--- .... ....
....|..|--- .... ....|--- .... ....|--- .... ....
....|..|--- .... ....|--- .... ....|--- .... ....
....|..|--- .... ....|--- .... ....|--- .... ....
....|..|--- .... ....|--- .... ....|--- .... ....
....|..|--- .... ....|--- .... ....|--- .... ....
....|..|--- .... ....|--- .... ....|--- .... ....
....|..|--- .... ....|--- .... ....|--- .... ....
....|..|--- .... ....|--- .... ....|--- .... ....
....|..|--- .... ....|--- .... ....|--- .... ....
....|..|--- .... ....|--- .... ....|--- .... ....
....|..|--- .... ....|--- .... ....|--- .... ....
....|..|--- .... ....|--- .... ....|--- .... ....
....|..|--- .... ....|--- .... ....|--- .... ....
....|..|--- .... ....|--- .... ....|--- .... ....
....|..|--- .... ....|--- .... ....|--- .... ....
....|..|--- .... ....|--- .... ....|--- .... ....
....|..|--- .... ....|--- .... ....|--- .... ....
....|..|--- .... ....|--- .... ....|--- .... ....
....|..|--- .... ....|--- .... ....|--- .... ....
....|..|--- .... ....|--- .... ....|--- .... ....
....|..|--- .... ....|--- .... ....|--- .... ....
....|..|--- .... ....|--- .... ....|--- .... ....

[Pattern1]
....|..|--- .... ....|--- .... ....|--- .... ....
....|..|--- .... ....|--- .... ....|--- .... ....
....|..|--- .... ....|--- .... ....|--- .... ....
....|..|--- .... ....|--- .... ....|--- .... ....
....|..|--- .... ....|--- .... ....|--- .... ....
....|..|--- .... ....|--- .... ....|--- .... ....
....|..|--- .... ....|--- .... ....|--- .... ....
....|..|--- .... ....|--- .... ....|--- .... ....
....|..|--- .... ....|--- .... ....|--- .... ....
....|..|--- .... ....|--- .... ....|--- .... ....
....|..|--- .... ....|--- .... ....|--- .... ....
....|..|--- .... ....|--- .... ....|--- .... ....
....|..|--- .... ....|--- .... ....|--- .... ....
....|..|--- .... ....|--- .... ....|--- .... ....
....|..|--- .... ....|--- .... ....|--- .... ....
....|..|--- .... ....|--- .... ....|--- .... ....
....|..|--- .... ....|--- .... ....|--- .... ....
....|..|--- .... ....|--- .... ....|--- .... ....
....|..|--- .... ....|--- .... ....|--- .... ....
....|..|--- .... ....|--- .... ....|--- .... ....
....|..|--- .... ....|--- .... ....|--- .... ....
....|..|--- .... ....|--- .... ....|--- .... ....
....|..|--- .... ....|--- .... ....|--- .... ....
....|..|--- .... ....|--- .... ....|--- .... ....
....|..|--- .... ....|--- .... ....|--- .... ....
....|..|--- .... ....|--- .... ....|--- .... ....
....|..|--- .... ....|--- .... ....|--- .... ....
....|..|--- .... ....|--- .... ....|--- .... ....
....|..|--- .... ....|--- .... ....|--- .... ....
....|..|--- .... ....|--- .... ....|--- .... ....
....|..|--- .... ....|--- .... ....|--- .... ....
....|..|--- .... ....|--- .... ....|--- .... ....
....|..|--- .... ....|--- .... ....|--- .... ....
....|..|--- .... ....|--- .... ....|--- .... ....
....|..|--- .... ....|--- .... ....|--- .... ....
....|..|--- .... ....|--- .... ....|--- .... ....
....|..|--- .... ....|--- .... ....|--- .... ....
....|..|--- .... ....|--- .... ....|--- .... ....
....|..|--- .... ....|--- .... ....|--- .... ....
....|..|--- .... ....|--- .... ....|--- .... ....
....|..|--- .... ....|--- .... ....|--- .... ....
....|..|--- .... ....|--- .... ....|--- .... ....
....|..|--- .... ....|--- .... ....|D#4 .F.F ....
....|..|--- .... ....|--- .... ....|--- .... ....
....|..|--- .... ....|--- .... ....|D#4 .F1F ....
....|..|--- .... ....|--- .... ....|--- .... ....
....|..|F#5 ...F ....|--- .... ....|D#4 .F2F ....
....|..|A#5 ...F ....|--- .... ....|G#4 .F.F ....

[Pattern2]
....|..|C#6 ...F ....|--- .... ....|F#4 .F.F ....
....|..|--- .... ....|--- .... ....|--- .... ....
....|..|--- .... ....|--- .... ....|D#4 .F1F ....
....|..|--- .... ....|--- .... ....|--- .... ....
....|..|--- .... ....|--- .... ....|D#4 .F3F ....
....|..|--- .... ....|--- .... ....|D#4 .F4F ....
....|..|--- .... ....|--- .... ....|D#4 .F5F ....
....|..|--- .... ....|--- .... ....|A#4 .F1F ....
....|..|--- .... ....|--- .... ....|F#4 .F.F ....
....|..|--- .... ....|--- .... ....|--- .... ....
....|..|F#5 ...A ....|--- .... ....|D#4 .F1F ....
....|..|A#5 ...A ....|--- .... ....|G#4 .F.A ....
....|..|C#6 ...A ....|--- .... ....|D#4 .F3F ....
....|..|--- .... ....|--- .... ....|D#4 .F4F ....
....|..|--- .... ....|--- .... ....|D#4 .F5F ....
....|..|--- .... ....|--- .... ....|A#4 .F1F ....
....|..|--- .... ....|--- .... ....|F#4 .F.F ....
....|..|--- .... ....|--- .... ....|D#4 .F4A ....
....|..|--- .... ....|--- .... ....|C#4 .F6F ....
....|..|--- .... ....|--- .... ....|A#4 .F1A ....
....|..|--- .... ....|--- .... ....|C#4 .F7F ....
....|..|--- .... ....|--- .... ....|D#4 .F.F ....
....|..|F#5 ...7 ....|--- .... ....|D#4 .F1F ....
....|..|A#5 ...7 ....|--- .... ....|F#4 .F.F ....
....|..|C#6 ...7 ....|--- .... ....|F#4 .F8F ....
....|..|--- .... ....|--- .... ....|G#4 .F.F ....
....|..|--- .... ....|--- .... ....|G#4 .F8F ....
....|..|--- .... ....|--- .... ....|A#4 .F1A ....
....|..|--- .... ....|--- .... ....|A#4 .F1F ....
....|..|--- .... ....|--- .... ....|D#4 .F47 ....
....|..|--- .... ....|--- .... ....|A#4 .F1F ....
....|..|--- .... ....|--- .... ....|A#4 .F.F ....
....|..|--- .... ....|--- .... ....|F#4 .F.F ....
....|..|--- .... ....|--- .... ....|D#4 .F.A ....
....|..|--- .... ....|--- .... ....|D#4 .F1F ....
....|..|--- .... ....|--- .... ....|F#4 .F.A ....
....|..|--- .... ....|--- .... ....|D#4 .F2F ....
....|..|--- .... ....|--- .... ....|D#4 .F6F ....
....|..|--- .... ....|--- .... ....|D#4 .F9F ....
....|..|--- .... ....|--- .... ....|G#4 .F1F ....
....|..|--- .... ....|--- .... ....|C#5 .F.F ....
....|..|--- .... ....|--- .... ....|--- .... ....
....|..|--- .... ....|--- .... ....|B-4 .F8F ....
....|..|--- .... ....|--- .... ....|A#4 .F.A ....
....|..|--- .... ....|--- .... ....|G#4 .F2F ....
....|..|--- .... ....|--- .... ....|G#4 .F.F ....
....|..|--- .... ....|--- .... ....|G#4 .F1F ....
....|..|--- .... ....|--- .... ....|B-4 .F.F ....

[Pattern3]
....|..|--- .... ....|--- .... ....|C#5 .F.F ....
....|..|--- .... ....|--- .... ....|G#4 .F.7 ....
....|..|--- .... ....|--- .... ....|B-4 .F8F ....
....|..|--- .... ....|--- .... ....|G#4 .F1A ....
....|..|--- .... ....|--- .... ....|G#4 .F2F ....
....|..|--- .... ....|--- .... ....|G#4 .F.F ....
....|..|--- .... ....|--- .... ....|D#4 .F6F ....
....|..|--- .... ....|--- .... ....|D#4 .F.F ....
....|..|--- .... ....|--- .... ....|D#4 .F4F ....
....|..|--- .... ....|--- .... ....|C#5 .F.F ....
....|..|--- .... ....|--- .... ....|B-4 .F8F ....
....|..|--- .... ....|--- .... ....|B-4 .F.A ....
....|..|--- .... ....|--- .... ....|G#4 .F1F ....
....|..|--- .... ....|--- .... ....|D#4 .F67 ....
....|..|R-- .... ....|--- .... ....|D#4 .F6F ....
....|..|--- .... ....|--- .... ....|D#4 .F.F ....
....|..|C#5 ...F ....|F#4 ...F ....|F#4 .FAF ....
....|..|C#5 ...F ....|--- .... ....|G#4 .F.A ....
....|..|--- .... ....|--- .... ....|B-4 .F87 ....
....|..|--- .... ....|--- .... ....|D#4 .F.A ....
....|..|--- .... ....|--- .... ....|F#4 .FAF ....
....|..|--- .... ....|--- .... ....|G#4 .F.7 ....
....|..|--- .... ....|--- .... ....|F#4 .FAF ....
....|..|--- .... ....|--- .... ....|B-4 .F.7 ....
....|..|--- .... ....|--- .... ....|A#4 .F1F ....
....|..|--- .... ....|R-- .... ....|--- .... ....
....|..|R-- .... ....|--- .... ....|F#4 .FAF ....
....|..|--- .... ....|--- .... ....|D#4 .F.A ....
....|..|C#5 ...A ....|F#5 ...F ....|F#4 .FAF ....
....|..|C#5 ...A ....|--- .... ....|G#4 .F.7 ....
....|..|--- .... ....|R-- .... ....|F#4 .FAF ....
....|..|--- .... ....|--- .... ....|D#4 .F.7 ....
....|..|--- .... ....|F-5 ...F ....|A#4 .F1F ....
....|..|--- .... ....|--- .... ....|C#5 .F.7 ....
....|..|--- .... ....|--- .... ....|F#4 .FAF ....
....|..|--- .... ....|--- .... ....|--- .... ....
....|..|--- .... ....|--- .... ....|F#4 .FAF ....
....|..|--- .... ....|R-- .... ....|--- .... ....
....|..|R-- .... ....|C#5 ...F ....|F#4 .FAF ....
....|..|--- .... ....|--- .... ....|D#4 .F.7 ....
....|..|C#5 ...7 ....|F#4 ...7 ....|F#4 .FAF ....
....|..|C#5 ...7 ....|--- .... ....|--- .... ....
....|..|--- .... ....|R-- .... ....|F#4 .FAF ....
....|..|--- .... ....|--- .... ....|--- .... ....
....|..|--- .... ....|A#4 ...F ....|F#4 .FAF ....
....|..|R-- .... ....|R-- .... ....|--- .... ....
....|..|--- .... ....|--- .... ....|F#4 .FAF ....
....|..|--- .... ....|--- .... ....|--- .... ....

[Pattern4]
....|..|G#4 ...F ....|D#5 ...F ....|G#4 .FAF ....
....|..|G#4 ...F ....|R-- .... ....|--- .... ....
....|..|--- .... ....|C#5 ...A ....|F#4 .FA7 ....
....|..|--- .... ....|--- .... ....|--- .... ....
....|..|--- .... ....|F#5 ...7 ....|G#4 .FAF ....
....|..|--- .... ....|--- .... ....|--- .... ....
....|..|--- .... ....|R-- .... ....|G#4 .FAF ....
....|..|--- .... ....|--- .... ....|--- .... ....
....|..|--- .... ....|F-5 ...7 ....|C-4 .F1F ....
....|..|R-- .... ....|R-- .... ....|--- .... ....
....|..|--- .... ....|--- .... ....|G#4 .FAF ....
....|..|--- .... ....|--- .... ....|--- .... ....
....|..|G#4 ...A ....|D#5 ...A ....|G#4 .FAF ....
....|..|G#4 ...A ....|R-- .... ....|--- .... ....
....|..|--- .... ....|C#5 ...7 ....|G#4 .FAF ....
....|..|--- .... ....|R-- .... ....|--- .... ....
....|..|--- .... ....|G#4 ...F ....|C-4 .F1F ....
....|..|--- .... ....|--- .... ....|--- .... ....
....|..|--- .... ....|R-- .... ....|G#4 .FAF ....
....|..|--- .... ....|--- .... ....|--- .... ....
....|..|--- .... ....|A#4 ...7 ....|G#4 .FAF ....
....|..|R-- .... ....|R-- .... ....|--- .... ....
....|..|--- .... ....|--- .... ....|G#4 .FAF ....
....|..|--- .... ....|--- .... ....|--- .... ....
....|..|G#4 ...7 ....|D#5 ...7 ....|G#4 .FAF ....
....|..|G#4 ...7 ....|--- .... ....|--- .... ....
....|..|--- .... ....|--- .... ....|G#4 .FAF ....
....|..|--- .... ....|F#4 ...F ....|--- .... ....
....|..|--- .... ....|F-4 ...F ....|G#4 .FAF ....
....|..|R-- .... ....|B-3 ...F ....|--- .... ....
....|..|--- .... ....|R-- .... ....|G#4 .FAF ....
....|..|--- .... ....|--- .... ....|--- .... ....
....|..|G#4 ...F ....|G#4 ...F ....|F-4 .FBF ....
....|..|G#4 ...F ....|--- .... ....|--- .... ....
....|..|--- .... ....|--- .... ....|G#4 .FA7 ....
....|..|--- .... ....|--- .... ....|--- .... ....
....|..|--- .... ....|--- .... ....|F-4 .FBF ....
....|..|--- .... ....|--- .... ....|--- .... ....
....|..|--- .... ....|--- .... ....|F-4 .FBF ....
....|..|--- .... ....|R-- .... ....|--- .... ....
....|..|--- .... ....|G#4 ...7 ....|G#4 .FCF ....
....|..|R-- .... ....|B-3 ...A ....|--- .... ....
....|..|--- .... ....|R-- .... ....|F-4 .FBF ....
....|..|--- .... ....|--- .... ....|--- .... ....
....|..|G#4 ...A ....|A#4 ...F ....|F-4 .FBF ....
....|..|G#4 ...A ....|--- .... ....|--- .... ....
....|..|F-4 ...F ....|R-- .... ....|F-4 .FBF ....
....|..|R-- .... ....|--- .... ....|--- .... ....

[Pattern5]
....|..|F-4 ...F ....|C#5 ...F ....|F-4 .F6F ....
....|..|A#4 ...F ....|--- .... ....|--- .... ....
....|..|--- .... ....|--- .... ....|C#4 .FDF ....
....|..|--- .... ....|F#4 ...7 ....|--- .... ....
....|..|--- .... ....|G#4 ...F ....|C#4 .FDF ....
....|..|R-- .... ....|B-3 ...7 ....|--- .... ....
....|..|--- .... ....|R-- .... ....|C#4 .FDF ....
....|..|--- .... ....|--- .... ....|--- .... ....
....|..|G#4 ...7 ....|F-4 ...F ....|C#4 .FDF ....
....|..|G#4 ...7 ....|--- .... ....|--- .... ....
....|..|F-4 ...A ....|R-- .... ....|C#4 .FDF ....
....|..|R-- .... ....|--- .... ....|--- .... ....
....|..|F-4 ...A ....|G#4 ...F ....|C#4 .FDF ....
....|..|A#4 ...A ....|--- .... ....|--- .... ....
....|..|A#4 ...F ....|--- .... ....|C#4 .FDF ....
....|..|R-- .... ....|--- .... ....|--- .... ....
....|..|A#4 ...F ....|G#4 ...A ....|D#4 .FBF ....
....|..|A#4 ...F ....|R-- .... ....|--- .... ....
....|..|--- .... ....|F#4 ...F ....|F-4 .FB7 ....
....|..|--- .... ....|--- .... ....|--- .... ....
....|..|--- .... ....|A#4 ...7 ....|D#4 .FBF ....
....|..|--- .... ....|--- .... ....|--- .... ....
....|..|F-4 ...7 ....|R-- .... ....|D#4 .FBF ....
....|..|R-- .... ....|--- .... ....|--- .... ....
....|..|F-4 ...7 ....|C#5 ...7 ....|F#4 .FCF ....
....|..|A#4 ...7 ....|--- .... ....|--- .... ....
....|..|A#4 ...A ....|--- .... ....|D#4 .FBF ....
....|..|R-- .... ....|--- .... ....|--- .... ....
....|..|A#4 ...A ....|G#4 ...7 ....|D#4 .FBF ....
....|..|A#4 ...A ....|R-- .... ....|--- .... ....
....|..|--- .... ....|F#4 ...A ....|D#4 .FBF ....
....|..|--- .... ....|--- .... ....|--- .... ....
....|..|--- .... ....|F-4 ...7 ....|F#4 .FCF ....
....|..|--- .... ....|--- .... ....|--- .... ....
....|..|--- .... ....|--- .... ....|D#4 .FBF ....
....|..|--- .... ....|--- .... ....|--- .... ....
....|..|--- .... ....|G#4 ...7 ....|D#4 .FBF ....
....|..|--- .... ....|--- .... ....|--- .... ....
....|..|A#4 ...7 ....|--- .... ....|D#4 .FBF ....
....|..|R-- .... ....|--- .... ....|--- .... ....
....|..|A#4 ...7 ....|--- .... ....|D#4 .FBF ....
....|..|A#4 ...7 ....|R-- .... ....|--- .... ....
....|..|--- .... ....|F#4 ...7 ....|D#4 .FBF ....
....|..|--- .... ....|--- .... ....|--- .... ....
....|..|--- .... ....|--- .... ....|D#4 .FBF ....
....|..|R-- .... ....|R-- .... ....|--- .... ....
....|..|--- .... ....|--- .... ....|D#4 .FBF ....
....|..|--- .... ....|--- .... ....|--- .... ....

[Pattern6]
....|..|F#4 ...F ....|F#4 ...F ....|D#4 .FEF ....
....|..|F#4 ...F ....|--- .... ....|--- .... ....
....|..|--- .... ....|--- .... ....|D#4 .FB7 ....
....|..|--- .... ....|--- .... ....|--- .... ....
....|..|--- .... ....|--- .... ....|D#4 .FEF ....
....|..|--- .... ....|--- .... ....|--- .... ....
....|..|--- .... ....|--- .... ....|D#4 .FEF ....
....|..|--- .... ....|--- .... ....|--- .... ....
....|..|--- .... ....|--- .... ....|F#4 .F6F ....
....|..|R-- .... ....|R-- .... ....|--- .... ....
....|..|--- .... ....|R-- .... ....|D#4 .FEF ....
....|..|--- .... ....|--- .... ....|--- .... ....
....|..|F#4 ...A ....|F#4 ...F ....|D#4 .FEF ....
....|..|F#4 ...A ....|R-- .... ....|--- .... ....
....|..|--- .... ....|--- .... ....|D#4 .FEF ....
....|..|--- .... ....|--- .... ....|--- .... ....
....|..|--- .... ....|D#5 ...F ....|F#4 .F6F ....
....|..|--- .... ....|--- .... ....|--- .... ....
....|..|--- .... ....|--- .... ....|D#4 .FEF ....
....|..|--- .... ....|R-- .... ....|--- .... ....
....|..|--- .... ....|C#5 ...F ....|D#4 .FEF ....
....|..|R-- .... ....|R-- .... ....|--- .... ....
....|..|--- .... ....|R-- .... ....|D#4 .FEF ....
....|..|--- .... ....|R-- .... ....|--- .... ....
....|..|F#4 ...7 ....|A#4 ...F ....|D#4 .FEF ....
....|..|F#4 ...7 ....|R-- .... ....|--- .... ....
....|..|--- .... ....|G#4 ...F ....|D#4 .FEF ....
....|..|--- .... ....|--- .... ....|--- .... ....
....|..|--- .... ....|D#5 ...A ....|D#4 .FEF ....
....|..|R-- .... ....|R-- .... ....|--- .... ....
....|..|--- .... ....|F#4 ...F ....|D#4 .FEF ....
....|..|--- .... ....|R-- .... ....|--- .... ....
....|..|G#4 ...F ....|G#4 ...F ....|D#4 .F9F ....
....|..|G#4 ...F ....|--- .... ....|--- .... ....
....|..|--- .... ....|R-- .... ....|D#4 .FE7 ....
....|..|--- .... ....|R-- .... ....|--- .... ....
....|..|--- .... ....|F#4 ...7 ....|D#4 .F9F ....
....|..|--- .... ....|R-- .... ....|--- .... ....
....|..|--- .... ....|G#4 ...A ....|D#4 .F9F ....
....|..|--- .... ....|--- .... ....|--- .... ....
....|..|--- .... ....|D#5 ...7 ....|G#4 .F1F ....
....|..|R-- .... ....|R-- .... ....|--- .... ....
....|..|--- .... ....|F#4 ...A ....|D#4 .F9F ....
....|..|--- .... ....|R-- .... ....|--- .... ....
....|..|G#4 ...A ....|C#5 ...7 ....|D#4 .F9F ....
....|..|G#4 ...A ....|--- .... ....|--- .... ....
....|..|--- .... ....|--- .... ....|D#4 .F9F ....
....|..|--- .... ....|R-- .... ....|--- .... ....

[Pattern7]
....|..|--- .... ....|A#4 ...7 ....|G#4 .F1F ....
....|..|--- .... ....|--- .... ....|--- .... ....
....|..|--- .... ....|G#4 ...7 ....|D#4 .F9F ....
....|..|--- .... ....|--- .... ....|--- .... ....
....|..|--- .... ....|--- .... ....|D#4 .F9F ....
....|..|R-- .... ....|R-- .... ....|--- .... ....
....|..|--- .... ....|F#4 ...7 ....|D#4 .F9F ....
....|..|--- .... ....|R-- .... ....|--- .... ....
....|..|G#4 ...7 ....|G#4 ...F ....|D#4 .F9F ....
....|..|G#4 ...7 ....|R-- .... ....|--- .... ....
....|..|--- .... ....|A#4 ...F ....|D#4 .F9F ....
....|..|--- .... ....|--- .... ....|--- .... ....
....|..|--- .... ....|--- .... ....|D#4 .F9F ....
....|..|R-- .... ....|--- .... ....|--- .... ....
....|..|--- .... ....|R-- .... ....|D#4 .F9F ....
....|..|--- .... ....|R-- .... ....|--- .... ....
....|..|G#4 ...F ....|C#5 ...F ....|G#4 .FBF ....
....|..|G#4 ...F ....|--- .... ....|--- .... ....
....|..|--- .... ....|--- .... ....|D#4 .F97 ....
....|..|--- .... ....|--- .... ....|--- .... ....
....|..|--- .... ....|G#4 ...A ....|G#4 .FBF ....
....|..|--- .... ....|R-- .... ....|--- .... ....
....|..|--- .... ....|A#4 ...A ....|G#4 .FBF ....
....|..|--- .... ....|--- .... ....|--- .... ....
....|..|--- .... ....|--- .... ....|B-4 .FCF ....
....|..|R-- .... ....|C-5 ...F ....|--- .... ....
....|..|--- .... ....|A#4 ...F ....|G#4 .FBF ....
....|..|--- .... ....|F#4 ...F ....|--- .... ....
....|..|G#4 ...A ....|D#4 ...F ....|G#4 .FBF ....
....|..|G#4 ...A ....|R-- .... ....|--- .... ....
....|..|--- .... ....|--- .... ....|G#4 .FBF ....
....|..|--- .... ....|--- .... ....|--- .... ....
....|..|--- .... ....|G#4 ...7 ....|B-4 .FCF ....
....|..|--- .... ....|R-- .... ....|--- .... ....
....|..|--- .... ....|A#4 ...7 ....|G#4 .FBF ....
....|..|--- .... ....|--- .... ....|--- .... ....
....|..|--- .... ....|D#5 ...F ....|G#4 .FBF ....
....|..|R-- .... ....|C-5 ...A ....|--- .... ....
....|..|--- .... ....|R-- .... ....|G#4 .FBF ....
....|..|--- .... ....|R-- .... ....|--- .... ....
....|..|G#4 ...7 ....|F#5 ...F ....|G#4 .FBF ....
....|..|G#4 ...7 ....|R-- .... ....|--- .... ....
....|..|--- .... ....|--- .... ....|G#4 .FBF ....
....|..|--- .... ....|R-- .... ....|--- .... ....
....|..|--- .... ....|D#5 ...F ....|G#4 .FBF ....
....|..|R-- .... ....|--- .... ....|--- .... ....
....|..|--- .... ....|--- .... ....|G#4 .FBF ....
....|..|--- .... ....|--- .... ....|--- .... ....

[Pattern8]
....|..|G#4 ...F ....|D#5 ...A ....|F-4 .FEF ....
....|..|--- .... ....|C-5 ...7 ....|--- .... ....
....|..|--- .... ....|C#5 ...F ....|G#4 .FB7 ....
....|..|--- .... ....|F#4 ...7 ....|--- .... ....
....|..|B-4 ...F ....|D#4 ...7 ....|F-4 .FEF ....
....|..|--- .... ....|R-- .... ....|--- .... ....
....|..|--- .... ....|--- .... ....|F-4 .FEF ....
....|..|--- .... ....|R-- .... ....|--- .... ....
....|..|D#5 ...F ....|D#5 ...A ....|G#4 .F6F ....
....|..|R-- .... ....|--- .... ....|--- .... ....
....|..|--- .... ....|--- .... ....|F-4 .FEF ....
....|..|--- .... ....|--- .... ....|--- .... ....
....|..|F#5 ...F ....|D#5 ...7 ....|F-4 .FEF ....
....|..|--- .... ....|R-- .... ....|--- .... ....
....|..|--- .... ....|R-- .... ....|F-4 .FEF ....
....|..|--- .... ....|--- .... ....|--- .... ....
....|..|G#5 ...F ....|F#5 ...7 ....|G#4 .F6F ....
....|..|--- .... ....|--- .... ....|--- .... ....
....|..|--- .... ....|--- .... ....|F-4 .FEF ....
....|..|--- .... ....|R-- .... ....|--- .... ....
....|..|F#5 ...F ....|D#5 ...7 ....|F-4 .FEF ....
....|..|R-- .... ....|--- .... ....|--- .... ....
....|..|--- .... ....|--- .... ....|F-4 .FEF ....
....|..|--- .... ....|--- .... ....|--- .... ....
....|..|G#5 ...F ....|--- .... ....|F-4 .FEF ....
....|..|--- .... ....|R-- .... ....|--- .... ....
....|..|--- .... ....|C#5 ...7 ....|F-4 .FEF ....
....|..|--- .... ....|--- .... ....|--- .... ....
....|..|F#5 ...F ....|--- .... ....|F-4 .FEF ....
....|..|--- .... ....|--- .... ....|--- .... ....
....|..|F#5 ...F ....|--- .... ....|F-4 .FEF ....
....|..|F#5 ...F ....|--- .... ....|--- .... ....
....|..|C#5 ...F ....|F#4 ...F ....|F#4 .FAF ....
....|..|--- .... ....|--- .... ....|--- .... ....
....|..|--- .... ....|--- .... ....|F-4 .FE7 ....
....|..|--- .... ....|--- .... ....|--- .... ....
....|..|F#5 ...7 ....|--- .... ....|F#4 .FAF ....
....|..|--- .... ....|R-- .... ....|--- .... ....
....|..|--- .... ....|--- .... ....|F#4 .FAF ....
....|..|--- .... ....|--- .... ....|--- .... ....
....|..|G#5 ...7 ....|--- .... ....|A#4 .F1F ....
....|..|--- .... ....|R-- .... ....|--- .... ....
....|..|F#5 ...A ....|--- .... ....|F#4 .FAF ....
....|..|F#5 ...A ....|--- .... ....|--- .... ....
....|..|F#5 ...7 ....|F#5 ...F ....|F#4 .FAF ....
....|..|--- .... ....|R-- .... ....|--- .... ....
....|..|--- .... ....|--- .... ....|F#4 .FAF ....
....|..|--- .... ....|--- .... ....|--- .... ....

[Pattern9]
....|..|G#5 ...7 ....|F-5 ...F ....|A#4 .F1F ....
....|..|--- .... ....|R-- .... ....|--- .... ....
....|..|--- .... ....|--- .... ....|F#4 .FAF ....
....|..|--- .... ....|--- .... ....|--- .... ....
....|..|F#5 ...7 ....|--- .... ....|F#4 .FAF ....
....|..|--- .... ....|R-- .... ....|--- .... ....
....|..|F#5 ...7 ....|--- .... ....|F#4 .FAF ....
....|..|F#5 ...7 ....|--- .... ....|--- .... ....
....|..|C#5 ...7 ....|C#5 ...F ....|F#4 .FAF ....
....|..|--- .... ....|R-- .... ....|--- .... ....
....|..|--- .... ....|A#4 ...F ....|F#4 .FAF ....
....|..|--- .... ....|--- .... ....|--- .... ....
....|..|A#4 ...F ....|F-5 ...A ....|F#4 .FAF ....
....|..|R-- .... ....|--- .... ....|--- .... ....
....|..|--- .... ....|--- .... ....|F#4 .FAF ....
....|..|--- .... ....|R-- .... ....|--- .... ....
....|..|G#4 ...F ....|D#5 ...F ....|G#4 .FAF ....
....|..|G#4 ...F ....|R-- .... ....|--- .... ....
....|..|--- .... ....|--- .... ....|F#4 .FA7 ....
....|..|--- .... ....|--- .... ....|--- .... ....
....|..|--- .... ....|F#5 ...7 ....|G#4 .FAF ....
....|..|--- .... ....|R-- .... ....|--- .... ....
....|..|--- .... ....|A#4 ...A ....|G#4 .FAF ....
....|..|--- .... ....|--- .... ....|--- .... ....
....|..|A#4 ...A ....|F-5 ...7 ....|C-4 .F1F ....
....|..|R-- .... ....|--- .... ....|--- .... ....
....|..|--- .... ....|--- .... ....|G#4 .FAF ....
....|..|--- .... ....|R-- .... ....|--- .... ....
....|..|G#4 ...A ....|D#5 ...A ....|G#4 .FAF ....
....|..|G#4 ...A ....|R-- .... ....|--- .... ....
....|..|--- .... ....|--- .... ....|G#4 .FAF ....
....|..|--- .... ....|R-- .... ....|--- .... ....
....|..|--- .... ....|G#4 ...F ....|C-4 .F1F ....
....|..|--- .... ....|R-- .... ....|--- .... ....
....|..|--- .... ....|A#4 ...7 ....|G#4 .FAF ....
....|..|--- .... ....|--- .... ....|--- .... ....
....|..|A#4 ...7 ....|--- .... ....|G#4 .FAF ....
....|..|R-- .... ....|--- .... ....|--- .... ....
....|..|--- .... ....|--- .... ....|G#4 .FAF ....
....|..|--- .... ....|R-- .... ....|--- .... ....
....|..|G#4 ...7 ....|D#5 ...7 ....|G#4 .FAF ....
....|..|G#4 ...7 ....|--- .... ....|--- .... ....
....|..|--- .... ....|--- .... ....|G#4 .FAF ....
....|..|--- .... ....|R-- .... ....|--- .... ....
....|..|--- .... ....|G#4 ...A ....|G#4 .FAF ....
....|..|R-- .... ....|--- .... ....|--- .... ....
....|..|--- .... ....|--- .... ....|G#4 .FAF ....
....|..|--- .... ....|R-- .... ....|--- .... ....

[Pattern10]
....|..|G#4 ...F ....|G#4 ...F ....|F-4 .FBF ....
....|..|G#4 ...F ....|--- .... ....|--- .... ....
....|..|--- .... ....|--- .... ....|G#4 .FA7 ....
....|..|--- .... ....|--- .... ....|--- .... ....
....|..|--- .... ....|--- .... ....|F-4 .FBF ....
....|..|--- .... ....|--- .... ....|--- .... ....
....|..|--- .... ....|--- .... ....|F-4 .FBF ....
....|..|--- .... ....|R-- .... ....|--- .... ....
....|..|--- .... ....|G#4 ...7 ....|G#4 .FCF ....
....|..|R-- .... ....|R-- .... ....|--- .... ....
....|..|--- .... ....|--- .... ....|F-4 .FBF ....
....|..|--- .... ....|R-- .... ....|--- .... ....
....|..|G#4 ...A ....|A#4 ...F ....|F-4 .FBF ....
....|..|G#4 ...A ....|--- .... ....|--- .... ....
....|..|F-4 ...F ....|R-- .... ....|F-4 .FBF ....
....|..|R-- .... ....|--- .... ....|--- .... ....
....|..|A#4 ...F ....|C#5 ...F ....|F-4 .F6F ....
....|..|A#4 ...F ....|R-- .... ....|--- .... ....
....|..|--- .... ....|G#4 ...F ....|C#4 .FDF ....
....|..|--- .... ....|--- .... ....|--- .... ....
....|..|--- .... ....|--- .... ....|C#4 .FDF ....
....|..|R-- .... ....|R-- .... ....|--- .... ....
....|..|--- .... ....|--- .... ....|C#4 .FDF ....
....|..|--- .... ....|R-- .... ....|--- .... ....
....|..|G#4 ...7 ....|F-4 ...F ....|C#4 .FDF ....
....|..|G#4 ...7 ....|--- .... ....|--- .... ....
....|..|F-4 ...A ....|R-- .... ....|C#4 .FDF ....
....|..|R-- .... ....|R-- .... ....|--- .... ....
....|..|A#4 ...A ....|G#4 ...F ....|C#4 .FDF ....
....|..|A#4 ...A ....|R-- .... ....|--- .... ....
....|..|F-4 ...F ....|G#4 ...A ....|C#4 .FDF ....
....|..|R-- .... ....|--- .... ....|--- .... ....
....|..|A#4 ...F ....|--- .... ....|D#4 .FBF ....
....|..|A#4 ...F ....|R-- .... ....|--- .... ....
....|..|--- .... ....|--- .... ....|F-4 .FB7 ....
....|..|--- .... ....|R-- .... ....|--- .... ....
....|..|--- .... ....|F#4 ...F ....|D#4 .FBF ....
....|..|--- .... ....|--- .... ....|--- .... ....
....|..|F-4 ...7 ....|R-- .... ....|D#4 .FBF ....
....|..|R-- .... ....|R-- .... ....|--- .... ....
....|..|A#4 ...7 ....|C#5 ...7 ....|F#4 .FCF ....
....|..|A#4 ...7 ....|R-- .... ....|--- .... ....
....|..|F-4 ...A ....|G#4 ...7 ....|D#4 .FBF ....
....|..|R-- .... ....|--- .... ....|--- .... ....
....|..|A#4 ...A ....|--- .... ....|D#4 .FBF ....
....|..|A#4 ...A ....|R-- .... ....|--- .... ....
....|..|--- .... ....|--- .... ....|D#4 .FBF ....
....|..|--- .... ....|R-- .... ....|--- .... ....

[Pattern11]
....|..|--- .... ....|F-4 ...7 ....|F#4 .FCF ....
....|..|--- .... ....|--- .... ....|--- .... ....
....|..|--- .... ....|--- .... ....|D#4 .FBF ....
....|..|--- .... ....|R-- .... ....|--- .... ....
....|..|--- .... ....|G#4 ...7 ....|D#4 .FBF ....
....|..|--- .... ....|--- .... ....|--- .... ....
....|..|F-4 ...7 ....|--- .... ....|D#4 .FBF ....
....|..|R-- .... ....|--- .... ....|--- .... ....
....|..|A#4 ...7 ....|--- .... ....|D#4 .FBF ....
....|..|A#4 ...7 ....|R-- .... ....|--- .... ....
....|..|--- .... ....|--- .... ....|D#4 .FBF ....
....|..|--- .... ....|--- .... ....|--- .... ....
....|..|--- .... ....|F#4 ...7 ....|D#4 .FBF ....
....|..|R-- .... ....|--- .... ....|--- .... ....
....|..|--- .... ....|--- .... ....|D#4 .FBF ....
....|..|--- .... ....|R-- .... ....|--- .... ....
....|..|F#4 ...F ....|F#4 ...F ....|D#4 .FEF ....
....|..|F#4 ...F ....|--- .... ....|--- .... ....
....|..|--- .... ....|--- .... ....|D#4 .FB7 ....
....|..|--- .... ....|--- .... ....|--- .... ....
....|..|--- .... ....|--- .... ....|D#4 .FEF ....
....|..|--- .... ....|--- .... ....|--- .... ....
....|..|--- .... ....|--- .... ....|D#4 .FEF ....
....|..|--- .... ....|--- .... ....|--- .... ....
....|..|--- .... ....|--- .... ....|F#4 .F6F ....
....|..|R-- .... ....|--- .... ....|--- .... ....
....|..|--- .... ....|R-- .... ....|D#4 .FEF ....
....|..|--- .... ....|R-- .... ....|--- .... ....
....|..|F#4 ...A ....|F#4 ...F ....|D#4 .FEF ....
....|..|F#4 ...A ....|--- .... ....|--- .... ....
....|..|--- .... ....|R-- .... ....|D#4 .FEF ....
....|..|--- .... ....|--- .... ....|--- .... ....
....|..|--- .... ....|D#5 ...F ....|F#4 .F6F ....
....|..|--- .... ....|--- .... ....|--- .... ....
....|..|--- .... ....|--- .... ....|D#4 .FEF ....
....|..|--- .... ....|R-- .... ....|--- .... ....
....|..|--- .... ....|C#5 ...F ....|D#4 .FEF ....
....|..|R-- .... ....|--- .... ....|--- .... ....
....|..|--- .... ....|R-- .... ....|D#4 .FEF ....
....|..|--- .... ....|R-- .... ....|--- .... ....
....|..|F#4 ...7 ....|A#4 ...F ....|D#4 .FEF ....
....|..|F#4 ...7 ....|R-- .... ....|--- .... ....
....|..|--- .... ....|G#4 ...F ....|D#4 .FEF ....
....|..|--- .... ....|--- .... ....|--- .... ....
....|..|--- .... ....|D#5 ...A ....|D#4 .FEF ....
....|..|R-- .... ....|--- .... ....|--- .... ....
....|..|--- .... ....|F#4 ...F ....|D#4 .FEF ....
....|..|--- .... ....|R-- .... ....|--- .... ....

[Pattern12]
....|..|G#4 ...F ....|G#4 ...F ....|D#4 .F9F ....
....|..|G#4 ...F ....|--- .... ....|--- .... ....
....|..|--- .... ....|R-- .... ....|D#4 .FE7 ....
....|..|--- .... ....|R-- .... ....|--- .... ....
....|..|--- .... ....|F#4 ...7 ....|D#4 .F9F ....
....|..|--- .... ....|R-- .... ....|--- .... ....
....|..|--- .... ....|R-- .... ....|D#4 .F9F ....
....|..|--- .... ....|--- .... ....|--- .... ....
....|..|--- .... ....|D#5 ...7 ....|G#4 .F1F ....
....|..|R-- .... ....|--- .... ....|--- .... ....
....|..|--- .... ....|F#4 ...A ....|D#4 .F9F ....
....|..|--- .... ....|R-- .... ....|--- .... ....
....|..|G#4 ...A ....|C#5 ...7 ....|D#4 .F9F ....
....|..|G#4 ...A ....|--- .... ....|--- .... ....
....|..|--- .... ....|--- .... ....|D#4 .F9F ....
....|..|--- .... ....|R-- .... ....|--- .... ....
....|..|--- .... ....|A#4 ...7 ....|G#4 .F1F ....
....|..|--- .... ....|R-- .... ....|--- .... ....
....|..|--- .... ....|G#4 ...7 ....|D#4 .F9F ....
....|..|--- .... ....|R-- .... ....|--- .... ....
....|..|--- .... ....|--- .... ....|D#4 .F9F ....
....|..|R-- .... ....|--- .... ....|--- .... ....
....|..|--- .... ....|F#4 ...7 ....|D#4 .F9F ....
....|..|--- .... ....|R-- .... ....|--- .... ....
....|..|G#4 ...7 ....|G#4 ...F ....|D#4 .F9F ....
....|..|G#4 ...7 ....|R-- .... ....|--- .... ....
....|..|--- .... ....|A#4 ...F ....|D#4 .F9F ....
....|..|--- .... ....|--- .... ....|--- .... ....
....|..|--- .... ....|--- .... ....|D#4 .F9F ....
....|..|R-- .... ....|--- .... ....|--- .... ....
....|..|--- .... ....|--- .... ....|D#4 .F9F ....
....|..|--- .... ....|R-- .... ....|--- .... ....
....|..|G#4 ...F ....|C#5 ...F ....|F-4 .FEF ....
....|..|G#4 ...F ....|--- .... ....|--- .... ....
....|..|--- .... ....|--- .... ....|D#4 .F97 ....
....|..|--- .... ....|--- .... ....|--- .... ....
....|..|--- .... ....|G#4 ...A ....|F-4 .FEF ....
....|..|--- .... ....|R-- .... ....|--- .... ....
....|..|--- .... ....|A#4 ...A ....|F-4 .FEF ....
....|..|--- .... ....|--- .... ....|--- .... ....
....|..|--- .... ....|--- .... ....|G#4 .F6F ....
....|..|R-- .... ....|--- .... ....|--- .... ....
....|..|--- .... ....|--- .... ....|F-4 .FEF ....
....|..|--- .... ....|R-- .... ....|--- .... ....
....|..|G#4 ...A ....|C#5 ...A ....|F-4 .FEF ....
....|..|G#4 ...A ....|--- .... ....|--- .... ....
....|..|--- .... ....|--- .... ....|F-4 .FEF ....
....|..|--- .... ....|--- .... ....|--- .... ....

[Pattern13]
....|..|--- .... ....|G#4 ...7 ....|G#4 .F6F ....
....|..|--- .... ....|R-- .... ....|--- .... ....
....|..|--- .... ....|A#4 ...7 ....|F-4 .FEF ....
....|..|--- .... ....|--- .... ....|--- .... ....
....|..|--- .... ....|D#5 ...F ....|F-4 .FEF ....
....|..|R-- .... ....|R-- .... ....|--- .... ....
....|..|--- .... ....|--- .... ....|F-4 .FEF ....
....|..|--- .... ....|R-- .... ....|--- .... ....
....|..|G#4 ...7 ....|F#5 ...F ....|F-4 .FEF ....
....|..|G#4 ...7 ....|--- .... ....|--- .... ....
....|..|--- .... ....|--- .... ....|F-4 .FEF ....
....|..|--- .... ....|R-- .... ....|--- .... ....
....|..|--- .... ....|D#5 ...F ....|F-4 .FEF ....
....|..|R-- .... ....|--- .... ....|--- .... ....
....|..|--- .... ....|R-- .... ....|F-4 .FEF ....
....|..|--- .... ....|R-- .... ....|--- .... ....
....|..|A#4 ...F ....|C#5 ...F ....|C#4 .FDF ....
....|..|A#4 ...F ....|R-- .... ....|--- .... ....
....|..|--- .... ....|--- .... ....|F-4 .FE7 ....
....|..|--- .... ....|--- .... ....|--- .... ....
....|..|--- .... ....|F#5 ...A ....|C#4 .FDF ....
....|..|--- .... ....|--- .... ....|--- .... ....
....|..|--- .... ....|--- .... ....|C#4 .FDF ....
....|..|--- .... ....|R-- .... ....|--- .... ....
....|..|--- .... ....|D#5 ...A ....|F-4 .F6F ....
....|..|R-- .... ....|--- .... ....|--- .... ....
....|..|--- .... ....|R-- .... ....|C#4 .FDF ....
....|..|--- .... ....|R-- .... ....|--- .... ....
....|..|A#4 ...A ....|D#5 ...7 ....|C#4 .FDF ....
....|..|A#4 ...A ....|R-- .... ....|--- .... ....
....|..|F-4 ...F ....|--- .... ....|C#4 .FDF ....
....|..|R-- .... ....|R-- .... ....|--- .... ....
....|..|A#4 ...F ....|D-5 ...F ....|F-4 .F6F ....
....|..|A#4 ...F ....|--- .... ....|--- .... ....
....|..|--- .... ....|--- .... ....|D-4 .FEF ....
....|..|--- .... ....|R-- .... ....|--- .... ....
....|..|--- .... ....|D#5 ...7 ....|D-4 .FEF ....
....|..|R-- .... ....|--- .... ....|--- .... ....
....|..|--- .... ....|--- .... ....|D-4 .FEF ....
....|..|--- .... ....|R-- .... ....|--- .... ....
....|..|A#4 ...7 ....|C#5 ...7 ....|D-4 .FEF ....
....|..|A#4 ...7 ....|--- .... ....|--- .... ....
....|..|F-4 ...A ....|--- .... ....|D-4 .FEF ....
....|..|R-- .... ....|R-- .... ....|--- .... ....
....|..|A#4 ...A ....|D-5 ...A ....|D-4 .FEF ....
....|..|A#4 ...A ....|--- .... ....|--- .... ....
....|..|F-4 ...F ....|--- .... ....|D-4 .FEF ....
....|..|R-- .... ....|R-- .... ....|--- .... ....

[Pattern14]
....|..|A#4 ...F ....|D#5 ...F ....|A#3 .F.F ....
....|..|A#4 ...F ....|--- .... ....|A#3 .F9F ....
....|..|--- .... ....|--- .... ....|A#3 .F9F ....
....|..|--- .... ....|--- .... ....|--- .... ....
....|..|--- .... ....|C#5 ...F ....|C#4 .FD7 ....
....|..|--- .... ....|A#4 ...F ....|--- .... ....
....|..|F-4 ...7 ....|F#4 ...F ....|C#4 .FD7 ....
....|..|R-- .... ....|D#4 ...F ....|--- .... ....
....|..|A#4 ...7 ....|F#5 ...F ....|F-4 .F67 ....
....|..|A#4 ...7 ....|--- .... ....|--- .... ....
....|..|F-4 ...A ....|--- .... ....|D-4 .FE7 ....
....|..|R-- .... ....|R-- .... ....|--- .... ....
....|..|A#4 ...A ....|F-5 ...F ....|D-4 .FE7 ....
....|..|A#4 ...A ....|--- .... ....|A#3 .F9A ....
....|..|--- .... ....|--- .... ....|D-4 .FE7 ....
....|..|--- .... ....|R-- .... ....|--- .... ....
....|..|--- .... ....|F#5 ...F ....|D-4 .FE7 ....
....|..|--- .... ....|A#4 ...A ....|--- .... ....
....|..|--- .... ....|F#4 ...A ....|D-4 .FE7 ....
....|..|--- .... ....|R-- .... ....|--- .... ....
....|..|--- .... ....|F-5 ...F ....|D-4 .FE7 ....
....|..|--- .... ....|--- .... ....|--- .... ....
....|..|F-4 ...7 ....|--- .... ....|D-4 .FE7 ....
....|..|R-- .... ....|R-- .... ....|--- .... ....
....|..|A#4 ...7 ....|C#5 ...F ....|A#3 .F.7 ....
....|..|A#4 ...7 ....|--- .... ....|A#3 .F97 ....
....|..|--- .... ....|--- .... ....|A#3 .F97 ....
....|..|--- .... ....|R-- .... ....|--- .... ....
....|..|--- .... ....|A#4 ...F ....|--- .... ....
....|..|R-- .... ....|A#4 ...7 ....|--- .... ....
....|..|--- .... ....|F#4 ...7 ....|A#3 .F6F ....
....|..|--- .... ....|D#4 ...7 ....|R-- .... ....
....|..|F#4 ...F ....|C#5 ...F ....|B-3 .FCF ....
....|..|B-4 ...F ....|--- .... ....|B-3 .FAF ....
....|..|--- .... ....|--- .... ....|--- .... ....
....|..|--- .... ....|R-- .... ....|--- .... ....
....|..|--- .... ....|D#5 ...F ....|--- .... ....
....|..|--- .... ....|--- .... ....|--- .... ....
....|..|--- .... ....|--- .... ....|--- .... ....
....|..|--- .... ....|R-- .... ....|--- .... ....
....|..|--- .... ....|F#5 ...7 ....|--- .... ....
....|..|R-- .... ....|--- .... ....|--- .... ....
....|..|--- .... ....|R-- .... ....|A#3 .F6A ....
....|..|--- .... ....|R-- .... ....|R-- .... ....
....|..|F#4 ...A ....|D#5 ...F ....|B-3 .FCA ....
....|..|B-4 ...A ....|--- .... ....|B-3 .FAA ....
....|..|--- .... ....|--- .... ....|--- .... ....
....|..|--- .... ....|R-- .... ....|--- .... ....

[Pattern15]
....|..|--- .... ....|C#5 ...7 ....|--- .... ....
....|..|--- .... ....|--- .... ....|--- .... ....
....|..|--- .... ....|--- .... ....|--- .... ....
....|..|--- .... ....|R-- .... ....|--- .... ....
....|..|--- .... ....|A#4 ...7 ....|--- .... ....
....|..|R-- .... ....|--- .... ....|--- .... ....
....|..|--- .... ....|R-- .... ....|A#3 .F67 ....
....|..|--- .... ....|R-- .... ....|R-- .... ....
....|..|F#4 ...7 ....|C#5 ...7 ....|B-3 .FC7 ....
....|..|B-4 ...7 ....|--- .... ....|B-3 .FA7 ....
....|..|--- .... ....|--- .... ....|--- .... ....
....|..|--- .... ....|R-- .... ....|--- .... ....
....|..|--- .... ....|D#5 ...7 ....|--- .... ....
....|..|R-- .... ....|R-- .... ....|--- .... ....
....|..|--- .... ....|--- .... ....|B-3 .F.F ....
....|..|--- .... ....|--- .... ....|R-- .... ....
....|..|F#4 ...F ....|--- .... ....|A#3 .F.F ....
....|..|A#4 ...F ....|--- .... ....|A#3 .F9F ....
....|..|--- .... ....|R-- .... ....|A#3 .F9F ....
....|..|--- .... ....|--- .... ....|--- .... ....
....|..|--- .... ....|D#5 ...7 ....|--- .... ....
....|..|--- .... ....|--- .... ....|--- .... ....
....|..|--- .... ....|--- .... ....|--- .... ....
....|..|--- .... ....|--- .... ....|--- .... ....
....|..|--- .... ....|F#5 ...F ....|--- .... ....
....|..|R-- .... ....|R-- .... ....|--- .... ....
....|..|--- .... ....|--- .... ....|B-3 .F.A ....
....|..|--- .... ....|R-- .... ....|R-- .... ....
....|..|F#4 ...A ....|F-5 ...F ....|A#3 .F.A ....
....|..|A#4 ...A ....|R-- .... ....|A#3 .F9A ....
....|..|--- .... ....|F#5 ...F ....|A#3 .F9A ....
....|..|--- .... ....|--- .... ....|--- .... ....
....|..|--- .... ....|--- .... ....|--- .... ....
....|..|--- .... ....|--- .... ....|--- .... ....
....|..|--- .... ....|--- .... ....|--- .... ....
....|..|--- .... ....|R-- .... ....|--- .... ....
....|..|--- .... ....|F-5 ...F ....|--- .... ....
....|..|R-- .... ....|R-- .... ....|--- .... ....
....|..|--- .... ....|--- .... ....|B-3 .F.7 ....
....|..|--- .... ....|R-- .... ....|R-- .... ....
....|..|F#4 ...7 ....|C#5 ...F ....|A#3 .F.7 ....
....|..|A#4 ...7 ....|R-- .... ....|A#3 .F97 ....
....|..|--- .... ....|F#5 ...A ....|A#3 .F97 ....
....|..|--- .... ....|R-- .... ....|--- .... ....
....|..|--- .... ....|A#4 ...F ....|--- .... ....
....|..|R-- .... ....|--- .... ....|--- .... ....
....|..|--- .... ....|--- .... ....|A#3 .F6F ....
....|..|--- .... ....|R-- .... ....|R-- .... ....

[Pattern16]
....|..|F#4 ...F ....|C#5 ...F ....|B-3 .FCF ....
....|..|B-4 ...F ....|--- .... ....|B-3 .FAF ....
....|..|--- .... ....|--- .... ....|--- .... ....
....|..|--- .... ....|R-- .... ....|--- .... ....
....|..|--- .... ....|D#5 ...F ....|--- .... ....
....|..|--- .... ....|R-- .... ....|--- .... ....
....|..|--- .... ....|F#5 ...7 ....|--- .... ....
....|..|--- .... ....|R-- .... ....|--- .... ....
....|..|--- .... ....|A#4 ...A ....|--- .... ....
....|..|R-- .... ....|--- .... ....|--- .... ....
....|..|--- .... ....|R-- .... ....|A#3 .F6A ....
....|..|--- .... ....|R-- .... ....|R-- .... ....
....|..|F#4 ...A ....|D#5 ...F ....|B-3 .FCA ....
....|..|B-4 ...A ....|--- .... ....|B-3 .FAA ....
....|..|--- .... ....|--- .... ....|--- .... ....
....|..|--- .... ....|R-- .... ....|--- .... ....
....|..|--- .... ....|C#5 ...7 ....|--- .... ....
....|..|--- .... ....|--- .... ....|--- .... ....
....|..|--- .... ....|--- .... ....|--- .... ....
....|..|--- .... ....|R-- .... ....|--- .... ....
....|..|--- .... ....|A#4 ...7 ....|--- .... ....
....|..|R-- .... ....|--- .... ....|--- .... ....
....|..|--- .... ....|R-- .... ....|A#3 .F67 ....
....|..|--- .... ....|R-- .... ....|R-- .... ....
....|..|F#4 ...7 ....|C#5 ...7 ....|B-3 .FC7 ....
....|..|B-4 ...7 ....|--- .... ....|B-3 .FA7 ....
....|..|--- .... ....|--- .... ....|--- .... ....
....|..|--- .... ....|R-- .... ....|--- .... ....
....|..|--- .... ....|D#5 ...7 ....|--- .... ....
....|..|R-- .... ....|R-- .... ....|--- .... ....
....|..|--- .... ....|--- .... ....|B-3 .F.F ....
....|..|--- .... ....|--- .... ....|R-- .... ....
....|..|B-4 ...F ....|--- .... ....|F#4 .FFF ....
....|..|B-4 ...F ....|--- .... ....|--- .... ....
....|..|--- .... ....|R-- .... ....|--- .... ....
....|..|--- .... ....|--- .... ....|--- .... ....
....|..|--- .... ....|D#5 ...7 ....|F#4 .FFF ....
....|..|--- .... ....|--- .... ....|--- .... ....
....|..|--- .... ....|--- .... ....|F#4 .FFF ....
....|..|--- .... ....|--- .... ....|--- .... ....
....|..|--- .... ....|D#5 ...F ....|B-4 .FCF ....
....|..|R-- .... ....|R-- .... ....|--- .... ....
....|..|--- .... ....|--- .... ....|F#4 .FFF ....
....|..|--- .... ....|R-- .... ....|R-- .... ....
....|..|B-4 ...A ....|F-5 ...F ....|F#4 .FFF ....
....|..|B-4 ...A ....|--- .... ....|--- .... ....
....|..|--- .... ....|--- .... ....|F#4 .FFF ....
....|..|--- .... ....|R-- .... ....|--- .... ....

[Pattern17]
....|..|--- .... ....|F#5 ...F ....|B-4 .FCF ....
....|..|--- .... ....|--- .... ....|--- .... ....
....|..|--- .... ....|--- .... ....|F#4 .FFF ....
....|..|--- .... ....|--- .... ....|--- .... ....
....|..|--- .... ....|F-5 ...F ....|F#4 .FFF ....
....|..|R-- .... ....|R-- .... ....|--- .... ....
....|..|--- .... ....|D#5 ...F ....|F#4 .FFF ....
....|..|--- .... ....|R-- .... ....|R-- .... ....
....|..|B-4 ...7 ....|F-5 ...A ....|F#4 .FFF ....
....|..|B-4 ...7 ....|--- .... ....|--- .... ....
....|..|--- .... ....|--- .... ....|F#4 .FFF ....
....|..|--- .... ....|R-- .... ....|--- .... ....
....|..|--- .... ....|F#5 ...A ....|F#4 .FFF ....
....|..|R-- .... ....|--- .... ....|--- .... ....
....|..|--- .... ....|--- .... ....|F#4 .FFF ....
....|..|--- .... ....|--- .... ....|--- .... ....
....|..|B-4 ...F ....|D#5 ...7 ....|G#4 .FBF ....
....|..|B-4 ...F ....|R-- .... ....|--- .... ....
....|..|--- .... ....|D#5 ...A ....|F#4 .FF7 ....
....|..|--- .... ....|R-- .... ....|--- .... ....
....|..|--- .... ....|F-5 ...7 ....|G#4 .FBF ....
....|..|--- .... ....|--- .... ....|--- .... ....
....|..|--- .... ....|--- .... ....|G#4 .FBF ....
....|..|--- .... ....|R-- .... ....|--- .... ....
....|..|--- .... ....|D#5 ...F ....|B-4 .FCF ....
....|..|R-- .... ....|F-5 ...F ....|--- .... ....
....|..|--- .... ....|--- .... ....|G#4 .FBF ....
....|..|--- .... ....|--- .... ....|--- .... ....
....|..|B-4 ...A ....|F-5 ...7 ....|G#4 .FBF ....
....|..|B-4 ...A ....|F#5 ...F ....|--- .... ....
....|..|--- .... ....|D#5 ...7 ....|G#4 .FBF ....
....|..|--- .... ....|G#5 ...F ....|--- .... ....
....|..|--- .... ....|--- .... ....|B-4 .FCF ....
....|..|--- .... ....|--- .... ....|--- .... ....
....|..|--- .... ....|--- .... ....|G#4 .FBF ....
....|..|--- .... ....|--- .... ....|--- .... ....
....|..|--- .... ....|F#5 ...F ....|G#4 .FBF ....
....|..|R-- .... ....|R-- .... ....|--- .... ....
....|..|--- .... ....|--- .... ....|G#4 .FBF ....
....|..|--- .... ....|--- .... ....|--- .... ....
....|..|B-4 ...7 ....|F-5 ...F ....|G#4 .FBF ....
....|..|B-4 ...7 ....|F#5 ...A ....|--- .... ....
....|..|--- .... ....|R-- .... ....|G#4 .FBF ....
....|..|--- .... ....|R-- .... ....|--- .... ....
....|..|--- .... ....|D#5 ...F ....|G#4 .FBF ....
....|..|R-- .... ....|--- .... ....|--- .... ....
....|..|--- .... ....|--- .... ....|G#4 .FBF ....
....|..|--- .... ....|--- .... ....|--- .... ....

[Pattern18]
....|..|A#4 ...F ....|D#5 ...7 ....|F-4 .F9F ....
....|..|A#4 ...F ....|F-5 ...7 ....|--- .... ....
....|..|--- .... ....|R-- .... ....|G#4 .FB7 ....
....|..|--- .... ....|--- .... ....|--- .... ....
....|..|--- .... ....|C#5 ...F ....|F-4 .F9F ....
....|..|--- .... ....|F#5 ...7 ....|--- .... ....
....|..|--- .... ....|R-- .... ....|F-4 .F9F ....
....|..|--- .... ....|G#5 ...7 ....|--- .... ....
....|..|--- .... ....|D#5 ...A ....|A#4 .F1F ....
....|..|R-- .... ....|--- .... ....|--- .... ....
....|..|--- .... ....|--- .... ....|F-4 .F9F ....
....|..|--- .... ....|--- .... ....|--- .... ....
....|..|A#4 ...A ....|F#5 ...7 ....|F-4 .F9F ....
....|..|A#4 ...A ....|R-- .... ....|--- .... ....
....|..|--- .... ....|R-- .... ....|F-4 .F9F ....
....|..|--- .... ....|--- .... ....|--- .... ....
....|..|--- .... ....|F-5 ...7 ....|A#4 .F1F ....
....|..|--- .... ....|--- .... ....|--- .... ....
....|..|--- .... ....|--- .... ....|F-4 .F9F ....
....|..|--- .... ....|R-- .... ....|--- .... ....
....|..|--- .... ....|D#5 ...7 ....|F-4 .F9F ....
....|..|R-- .... ....|--- .... ....|--- .... ....
....|..|--- .... ....|R-- .... ....|F-4 .F9F ....
....|..|--- .... ....|--- .... ....|--- .... ....
....|..|A#4 ...7 ....|A#4 ...F ....|F-4 .F9F ....
....|..|A#4 ...7 ....|R-- .... ....|--- .... ....
....|..|--- .... ....|C#5 ...F ....|F-4 .F9F ....
....|..|--- .... ....|--- .... ....|--- .... ....
....|..|--- .... ....|C#5 ...7 ....|F-4 .F9F ....
....|..|R-- .... ....|--- .... ....|--- .... ....
....|..|--- .... ....|--- .... ....|F-4 .F9F ....
....|..|--- .... ....|--- .... ....|--- .... ....
....|..|A#4 ...F ....|D#5 ...F ....|F#4 .FDF ....
....|..|A#4 ...F ....|--- .... ....|--- .... ....
....|..|--- .... ....|R-- .... ....|F-4 .F97 ....
....|..|--- .... ....|--- .... ....|--- .... ....
....|..|--- .... ....|A#4 ...A ....|F#4 .FDF ....
....|..|--- .... ....|R-- .... ....|--- .... ....
....|..|--- .... ....|C#5 ...A ....|F#4 .FDF ....
....|..|--- .... ....|--- .... ....|--- .... ....
....|..|--- .... ....|--- .... ....|A#4 .F6F ....
....|..|R-- .... ....|--- .... ....|--- .... ....
....|..|--- .... ....|--- .... ....|F#4 .FDF ....
....|..|--- .... ....|--- .... ....|--- .... ....
....|..|A#4 ...A ....|D#5 ...A ....|F#4 .FDF ....
....|..|A#4 ...A ....|--- .... ....|--- .... ....
....|..|--- .... ....|R-- .... ....|F#4 .FDF ....
....|..|--- .... ....|--- .... ....|--- .... ....

[Pattern19]
....|..|--- .... ....|A#4 ...7 ....|A#4 .F6F ....
....|..|--- .... ....|R-- .... ....|--- .... ....
....|..|--- .... ....|C#5 ...7 ....|F#4 .FDF ....
....|..|--- .... ....|--- .... ....|--- .... ....
....|..|--- .... ....|--- .... ....|F#4 .FDF ....
....|..|R-- .... ....|--- .... ....|--- .... ....
....|..|--- .... ....|--- .... ....|F#4 .FDF ....
....|..|--- .... ....|--- .... ....|--- .... ....
....|..|A#4 ...7 ....|D#5 ...7 ....|F#4 .FDF ....
....|..|A#4 ...7 ....|R-- .... ....|--- .... ....
....|..|--- .... ....|--- .... ....|F#4 .FDF ....
....|..|--- .... ....|--- .... ....|--- .... ....
....|..|--- .... ....|C#5 ...F ....|F#4 .FDF ....
....|..|R-- .... ....|R-- .... ....|--- .... ....
....|..|--- .... ....|C#5 ...F ....|F#4 .FDF ....
....|..|--- .... ....|R-- .... ....|--- .... ....
....|..|F#4 ...F ....|C#5 ...F ....|F#4 .FFF ....
....|..|F#4 ...F ....|--- .... ....|--- .... ....
....|..|--- .... ....|--- .... ....|F#4 .FD7 ....
....|..|--- .... ....|R-- .... ....|--- .... ....
....|..|--- .... ....|B-4 ...F ....|F#4 .FFF ....
....|..|--- .... ....|R-- .... ....|--- .... ....
....|..|--- .... ....|--- .... ....|F#4 .FFF ....
....|..|--- .... ....|--- .... ....|--- .... ....
....|..|--- .... ....|C#5 ...A ....|B-4 .FCF ....
....|..|R-- .... ....|R-- .... ....|--- .... ....
....|..|--- .... ....|C#5 ...A ....|F#4 .FFF ....
....|..|--- .... ....|R-- .... ....|--- .... ....
....|..|F#4 ...A ....|C#5 ...A ....|F#4 .FFF ....
....|..|F#4 ...A ....|--- .... ....|--- .... ....
....|..|--- .... ....|--- .... ....|F#4 .FFF ....
....|..|--- .... ....|R-- .... ....|--- .... ....
....|..|D#5 ...F ....|B-4 ...A ....|B-4 .FCF ....
....|..|--- .... ....|R-- .... ....|--- .... ....
....|..|--- .... ....|--- .... ....|F#4 .FFF ....
....|..|--- .... ....|--- .... ....|--- .... ....
....|..|--- .... ....|C#5 ...7 ....|F#4 .FFF ....
....|..|R-- .... ....|R-- .... ....|--- .... ....
....|..|--- .... ....|C#5 ...7 ....|F#4 .FFF ....
....|..|--- .... ....|R-- .... ....|--- .... ....
....|..|F#5 ...F ....|C#5 ...7 ....|F#4 .FFF ....
....|..|F#4 ...7 ....|--- .... ....|--- .... ....
....|..|--- .... ....|R-- .... ....|F#4 .FFF ....
....|..|--- .... ....|R-- .... ....|--- .... ....
....|..|D#5 ...A ....|B-4 ...7 ....|F#4 .FFF ....
....|..|F#5 ...F ....|--- .... ....|--- .... ....
....|..|--- .... ....|--- .... ....|F#4 .FFF ....
....|..|--- .... ....|--- .... ....|--- .... ....

[Pattern20]
....|..|F#5 ...F ....|--- .... ....|G#4 .FBF ....
....|..|F#5 ...F ....|--- .... ....|--- .... ....
....|..|--- .... ....|--- .... ....|F#4 .FF7 ....
....|..|--- .... ....|--- .... ....|--- .... ....
....|..|F#5 ...A ....|--- .... ....|G#4 .FBF ....
....|..|--- .... ....|--- .... ....|--- .... ....
....|..|--- .... ....|R-- .... ....|G#4 .FBF ....
....|..|--- .... ....|--- .... ....|--- .... ....
....|..|D#5 ...7 ....|A#4 ...F ....|B-4 .FCF ....
....|..|F#5 ...A ....|--- .... ....|--- .... ....
....|..|--- .... ....|--- .... ....|G#4 .FBF ....
....|..|--- .... ....|R-- .... ....|--- .... ....
....|..|F#5 ...A ....|B-4 ...F ....|G#4 .FBF ....
....|..|F#5 ...A ....|--- .... ....|--- .... ....
....|..|--- .... ....|--- .... ....|G#4 .FBF ....
....|..|G#4 ...F ....|R-- .... ....|--- .... ....
....|..|D#5 ...F ....|A#5 ...F ....|B-4 .FCF ....
....|..|--- .... ....|R-- .... ....|--- .... ....
....|..|--- .... ....|R-- .... ....|G#4 .FBF ....
....|..|--- .... ....|--- .... ....|--- .... ....
....|..|--- .... ....|A#5 ...F ....|G#4 .FBF ....
....|..|F#5 ...7 ....|--- .... ....|--- .... ....
....|..|--- .... ....|R-- .... ....|G#4 .FBF ....
....|..|--- .... ....|R-- .... ....|--- .... ....
....|..|F#5 ...F ....|G#5 ...F ....|G#4 .FBF ....
....|..|F#5 ...7 ....|R-- .... ....|--- .... ....
....|..|--- .... ....|F#5 ...F ....|G#4 .FBF ....
....|..|G#4 ...A ....|R-- .... ....|--- .... ....
....|..|D#5 ...A ....|A#5 ...A ....|G#4 .FBF ....
....|..|F#5 ...F ....|R-- .... ....|--- .... ....
....|..|--- .... ....|R-- .... ....|G#4 .FBF ....
....|..|--- .... ....|G#5 ...F ....|--- .... ....
....|..|G#5 ...F ....|A#4 ...7 ....|F-4 .FEF ....
....|..|G#5 ...F ....|--- .... ....|--- .... ....
....|..|--- .... ....|R-- .... ....|G#4 .FB7 ....
....|..|--- .... ....|R-- .... ....|--- .... ....
....|..|F#5 ...A ....|B-4 ...7 ....|F-4 .FEF ....
....|..|--- .... ....|R-- .... ....|--- .... ....
....|..|--- .... ....|F#5 ...A ....|F-4 .FEF ....
....|..|G#4 ...7 ....|R-- .... ....|--- .... ....
....|..|D#5 ...7 ....|A#5 ...7 ....|G#4 .F6F ....
....|..|F#5 ...A ....|R-- .... ....|--- .... ....
....|..|--- .... ....|R-- .... ....|F-4 .FEF ....
....|..|--- .... ....|G#5 ...A ....|--- .... ....
....|..|G#5 ...A ....|A#5 ...7 ....|F-4 .FEF ....
....|..|G#5 ...A ....|--- .... ....|--- .... ....
....|..|--- .... ....|R-- .... ....|F-4 .FEF ....
....|..|--- .... ....|--- .... ....|--- .... ....

[Pattern21]
....|..|F#5 ...7 ....|G#5 ...7 ....|G#4 .F6F ....
....|..|--- .... ....|R-- .... ....|--- .... ....
....|..|--- .... ....|F#5 ...7 ....|F-4 .FEF ....
....|..|--- .... ....|--- .... ....|--- .... ....
....|..|--- .... ....|D#5 ...F ....|F-4 .FEF ....
....|..|F#5 ...7 ....|--- .... ....|--- .... ....
....|..|--- .... ....|R-- .... ....|F-4 .FEF ....
....|..|--- .... ....|G#5 ...7 ....|--- .... ....
....|..|G#5 ...7 ....|F#5 ...F ....|F-4 .FEF ....
....|..|G#5 ...7 ....|R-- .... ....|--- .... ....
....|..|--- .... ....|G#5 ...F ....|F-4 .FEF ....
....|..|--- .... ....|--- .... ....|--- .... ....
....|..|--- .... ....|--- .... ....|F-4 .FEF ....
....|..|G#5 ...F ....|--- .... ....|--- .... ....
....|..|--- .... ....|--- .... ....|F-4 .FEF ....
....|..|--- .... ....|R-- .... ....|--- .... ....
....|..|C#5 ...F ....|A#5 ...F ....|F-4 .FEF ....
....|..|C#5 ...F ....|--- .... ....|--- .... ....
....|..|--- .... ....|--- .... ....|F-4 .FE7 ....
....|..|--- .... ....|R-- .... ....|--- .... ....
....|..|--- .... ....|F#5 ...A ....|F-4 .FEF ....
....|..|G#4 ...F ....|R-- .... ....|--- .... ....
....|..|D#5 ...F ....|R-- .... ....|F-4 .FEF ....
....|..|--- .... ....|--- .... ....|--- .... ....
....|..|--- .... ....|--- .... ....|G#4 .F6F ....
....|..|G#5 ...A ....|--- .... ....|--- .... ....
....|..|--- .... ....|R-- .... ....|F-4 .FEF ....
....|..|G#4 ...F ....|R-- .... ....|--- .... ....
....|..|F#5 ...F ....|G#5 ...F ....|F-4 .FEF ....
....|..|C#5 ...A ....|--- .... ....|--- .... ....
....|..|--- .... ....|--- .... ....|F-4 .FEF ....
....|..|--- .... ....|R-- .... ....|--- .... ....
....|..|--- .... ....|F#5 ...7 ....|G#4 .F6F ....
....|..|G#4 ...F ....|R-- .... ....|--- .... ....
....|..|D#5 ...F ....|G#5 ...7 ....|F-4 .FEF ....
....|..|--- .... ....|--- .... ....|--- .... ....
....|..|--- .... ....|--- .... ....|F-4 .FEF ....
....|..|G#5 ...7 ....|--- .... ....|--- .... ....
....|..|--- .... ....|R-- .... ....|F-4 .FEF ....
....|..|G#4 ...F ....|R-- .... ....|--- .... ....
....|..|G#5 ...F ....|A#5 ...7 ....|F-4 .FEF ....
....|..|C#5 ...7 ....|--- .... ....|--- .... ....
....|..|--- .... ....|--- .... ....|F-4 .FEF ....
....|..|--- .... ....|--- .... ....|--- .... ....
....|..|--- .... ....|--- .... ....|F-4 .FEF ....
....|..|G#5 ...F ....|F#5 ...F ....|--- .... ....
....|..|D#5 ...7 ....|D#5 ...F ....|F-4 .FEF ....
....|..|--- .... ....|B-4 ...F ....|--- .... ....

[Pattern22]
....|..|C#5 ...F ....|G#4 ...F ....|F#4 .FAF ....
....|..|C#5 ...F ....|--- .... ....|--- .... ....
....|..|--- .... ....|R-- .... ....|F-4 .FE7 ....
....|..|G#4 ...7 ....|--- .... ....|--- .... ....
....|..|F#5 ...7 ....|G#5 ...7 ....|F#4 .FAF ....
....|..|--- .... ....|--- .... ....|--- .... ....
....|..|--- .... ....|--- .... ....|F#4 .FAF ....
....|..|--- .... ....|--- .... ....|--- .... ....
....|..|--- .... ....|--- .... ....|A#4 .F1F ....
....|..|G#4 ...7 ....|F#5 ...A ....|--- .... ....
....|..|D#5 ...7 ....|D#5 ...A ....|F#4 .FAF ....
....|..|--- .... ....|B-4 ...A ....|--- .... ....
....|..|C#5 ...A ....|G#4 ...A ....|F#4 .FAF ....
....|..|C#5 ...A ....|--- .... ....|--- .... ....
....|..|--- .... ....|--- .... ....|F#4 .FAF ....
....|..|G#4 ...7 ....|--- .... ....|--- .... ....
....|..|G#5 ...7 ....|--- .... ....|A#4 .F1F ....
....|..|--- .... ....|--- .... ....|--- .... ....
....|..|--- .... ....|--- .... ....|F#4 .FAF ....
....|..|--- .... ....|--- .... ....|--- .... ....
....|..|--- .... ....|--- .... ....|F#4 .FAF ....
....|..|G#5 ...7 ....|F#5 ...7 ....|--- .... ....
....|..|--- .... ....|D#5 ...7 ....|F#4 .FAF ....
....|..|--- .... ....|B-4 ...7 ....|--- .... ....
....|..|C#5 ...7 ....|G#4 ...7 ....|F#4 .FAF ....
....|..|C#5 ...7 ....|--- .... ....|--- .... ....
....|..|--- .... ....|--- .... ....|F#4 .FAF ....
....|..|--- .... ....|--- .... ....|--- .... ....
....|..|--- .... ....|--- .... ....|F#4 .FAF ....
....|..|R-- .... ....|--- .... ....|--- .... ....
....|..|--- .... ....|--- .... ....|F#4 .FAF ....
....|..|--- .... ....|--- .... ....|--- .... ....
....|..|C#5 ...F ....|--- .... ....|F#4 .FFF ....
....|..|C#5 ...F ....|--- .... ....|--- .... ....
....|..|--- .... ....|--- .... ....|F#4 .FA7 ....
....|..|--- .... ....|--- .... ....|--- .... ....
....|..|--- .... ....|--- .... ....|F#4 .FFF ....
....|..|--- .... ....|--- .... ....|--- .... ....
....|..|--- .... ....|--- .... ....|F#4 .FFF ....
....|..|--- .... ....|--- .... ....|--- .... ....
....|..|--- .... ....|--- .... ....|B-4 .FCF ....
....|..|R-- .... ....|--- .... ....|--- .... ....
....|..|--- .... ....|--- .... ....|F#4 .FFF ....
....|..|--- .... ....|--- .... ....|--- .... ....
....|..|C#5 ...A ....|--- .... ....|F#4 .FFF ....
....|..|C#5 ...A ....|--- .... ....|--- .... ....
....|..|--- .... ....|--- .... ....|F#4 .FFF ....
....|..|--- .... ....|--- .... ....|--- .... ....

[Pattern23]
....|..|--- .... ....|--- .... ....|B-4 .FCF ....
....|..|--- .... ....|--- .... ....|--- .... ....
....|..|--- .... ....|--- .... ....|F#4 .FFF ....
....|..|--- .... ....|--- .... ....|--- .... ....
....|..|--- .... ....|--- .... ....|F#4 .FFF ....
....|..|R-- .... ....|--- .... ....|--- .... ....
....|..|--- .... ....|--- .... ....|F#4 .FFF ....
....|..|--- .... ....|--- .... ....|--- .... ....
....|..|C#5 ...7 ....|--- .... ....|F#4 .FFF ....
....|..|C#5 ...7 ....|--- .... ....|--- .... ....
....|..|--- .... ....|--- .... ....|F#4 .FFF ....
....|..|--- .... ....|--- .... ....|--- .... ....
....|..|--- .... ....|--- .... ....|F#4 .FFF ....
....|..|R-- .... ....|--- .... ....|--- .... ....
....|..|--- .... ....|--- .... ....|F#4 .FFF ....
....|..|--- .... ....|--- .... ....|--- .... ....
....|..|C#5 ...F ....|--- .... ....|F#4 .FAF ....
....|..|C#5 ...F ....|--- .... ....|--- .... ....
....|..|--- .... ....|--- .... ....|F#4 .FF7 ....
....|..|--- .... ....|--- .... ....|--- .... ....
....|..|--- .... ....|--- .... ....|F#4 .FAF ....
....|..|--- .... ....|--- .... ....|--- .... ....
....|..|--- .... ....|--- .... ....|F#4 .FAF ....
....|..|--- .... ....|--- .... ....|--- .... ....
....|..|--- .... ....|--- .... ....|A#4 .F1F ....
....|..|R-- .... ....|--- .... ....|--- .... ....
....|..|--- .... ....|--- .... ....|F#4 .FAF ....
....|..|--- .... ....|--- .... ....|--- .... ....
....|..|C#5 ...A ....|--- .... ....|F#4 .FAF ....
....|..|C#5 ...A ....|--- .... ....|--- .... ....
....|..|--- .... ....|--- .... ....|F#4 .FAF ....
....|..|--- .... ....|--- .... ....|--- .... ....
....|..|--- .... ....|--- .... ....|A#4 .F1F ....
....|..|--- .... ....|--- .... ....|--- .... ....
....|..|--- .... ....|--- .... ....|F#4 .FAF ....
....|..|--- .... ....|--- .... ....|--- .... ....
....|..|--- .... ....|--- .... ....|F#4 .FAF ....
....|..|R-- .... ....|--- .... ....|--- .... ....
....|..|--- .... ....|--- .... ....|F#4 .FAF ....
....|..|--- .... ....|--- .... ....|--- .... ....
....|..|C#5 ...7 ....|--- .... ....|F#4 .FAF ....
....|..|C#5 ...7 ....|--- .... ....|--- .... ....
....|..|--- .... ....|--- .... ....|F#4 .FAF ....
....|..|--- .... ....|--- .... ....|--- .... ....
....|..|--- .... ....|--- .... ....|F#4 .FAF ....
....|..|R-- .... ....|--- .... ....|--- .... ....
....|..|--- .... ....|--- .... ....|F#4 .FAF ....
....|..|--- .... ....|--- .... ....|--- .... ....

[Pattern24]
....|..|C#5 ...F ....|--- .... ....|F#4 .FFF ....
....|..|C#5 ...F ....|--- .... ....|--- .... ....
....|..|--- .... ....|--- .... ....|F#4 .FA7 ....
....|..|--- .... ....|--- .... ....|--- .... ....
....|..|--- .... ....|--- .... ....|F#4 .FFF ....
....|..|--- .... ....|--- .... ....|--- .... ....
....|..|--- .... ....|--- .... ....|F#4 .FFF ....
....|..|--- .... ....|--- .... ....|--- .... ....
....|..|--- .... ....|--- .... ....|B-4 .FCF ....
....|..|R-- .... ....|--- .... ....|--- .... ....
....|..|--- .... ....|--- .... ....|F#4 .FFF ....
....|..|--- .... ....|--- .... ....|--- .... ....
....|..|C#5 ...A ....|--- .... ....|F#4 .FFF ....
....|..|C#5 ...A ....|--- .... ....|--- .... ....
....|..|--- .... ....|--- .... ....|F#4 .FFF ....
....|..|--- .... ....|--- .... ....|--- .... ....
....|..|--- .... ....|--- .... ....|B-4 .FCF ....
....|..|--- .... ....|--- .... ....|--- .... ....
....|..|--- .... ....|--- .... ....|F#4 .FFF ....
....|..|--- .... ....|--- .... ....|--- .... ....
....|..|--- .... ....|--- .... ....|F#4 .FFF ....
....|..|R-- .... ....|--- .... ....|--- .... ....
....|..|--- .... ....|--- .... ....|F#4 .FFF ....
....|..|--- .... ....|--- .... ....|--- .... ....
....|..|C#5 ...7 ....|--- .... ....|F#4 .FFF ....
....|..|C#5 ...7 ....|--- .... ....|--- .... ....
....|..|--- .... ....|--- .... ....|F#4 .FFF ....
....|..|--- .... ....|--- .... ....|--- .... ....
....|..|--- .... ....|--- .... ....|F#4 .FFF ....
....|..|R-- .... ....|--- .... ....|--- .... ....
....|..|--- .... ....|--- .... ....|F#4 .FFF ....
....|..|--- .... ....|--- .... ....|--- .... ....
....|..|C#5 ...F ....|F-5 ...F ....|F#4 .FAF ....
....|..|C#5 ...F ....|F#5 ...F ....|--- .... ....
....|..|--- .... ....|--- .... ....|F#4 .FF7 ....
....|..|--- .... ....|--- .... ....|--- .... ....
....|..|--- .... ....|--- .... ....|F#4 .FAF ....
....|..|--- .... ....|--- .... ....|--- .... ....
....|..|--- .... ....|--- .... ....|F#4 .FAF ....
....|..|--- .... ....|--- .... ....|--- .... ....
....|..|--- .... ....|--- .... ....|A#4 .F1F ....
....|..|R-- .... ....|R-- .... ....|--- .... ....
....|..|--- .... ....|--- .... ....|F#4 .FAF ....
....|..|--- .... ....|--- .... ....|--- .... ....
....|..|C#5 ...A ....|F-6 ...F ....|F#4 .FAF ....
....|..|C#5 ...A ....|F#6 ...F ....|--- .... ....
....|..|--- .... ....|R-- .... ....|F#4 .FAF ....
....|..|--- .... ....|--- .... ....|--- .... ....

[Pattern25]
....|..|--- .... ....|F-6 ...F ....|A#4 .F1F ....
....|..|--- .... ....|--- .... ....|--- .... ....
....|..|--- .... ....|--- .... ....|F#4 .FAF ....
....|..|--- .... ....|--- .... ....|--- .... ....
....|..|--- .... ....|R-- .... ....|F#4 .FAF ....
....|..|R-- .... ....|R-- .... ....|--- .... ....
....|..|--- .... ....|C#6 ...F ....|F#4 .FAF ....
....|..|--- .... ....|--- .... ....|--- .... ....
....|..|C#5 ...7 ....|F-5 ...7 ....|F#4 .FAF ....
....|..|C#5 ...7 ....|F#5 ...7 ....|--- .... ....
....|..|--- .... ....|R-- .... ....|F#4 .FAF ....
....|..|--- .... ....|C-6 ...F ....|--- .... ....
....|..|--- .... ....|B-5 ...F ....|F#4 .FAF ....
....|..|R-- .... ....|A#5 ...F ....|--- .... ....
....|..|--- .... ....|R-- .... ....|F#4 .FAF ....
....|..|--- .... ....|--- .... ....|--- .... ....
....|..|G#4 ...F ....|D#6 ...F ....|G#4 .FAF ....
....|..|G#4 ...F ....|R-- .... ....|--- .... ....
....|..|--- .... ....|C#6 ...A ....|F#4 .FA7 ....
....|..|--- .... ....|--- .... ....|--- .... ....
....|..|--- .... ....|F-6 ...7 ....|G#4 .FAF ....
....|..|--- .... ....|F#6 ...7 ....|--- .... ....
....|..|--- .... ....|R-- .... ....|G#4 .FAF ....
....|..|--- .... ....|C-6 ...A ....|--- .... ....
....|..|--- .... ....|F-6 ...7 ....|C-4 .F1F ....
....|..|R-- .... ....|A#5 ...A ....|--- .... ....
....|..|--- .... ....|R-- .... ....|G#4 .FAF ....
....|..|--- .... ....|--- .... ....|--- .... ....
....|..|G#4 ...A ....|R-- .... ....|G#4 .FAF ....
....|..|G#4 ...A ....|--- .... ....|--- .... ....
....|..|--- .... ....|C#6 ...7 ....|G#4 .FAF ....
....|..|--- .... ....|R-- .... ....|--- .... ....
....|..|--- .... ....|G#5 ...F ....|C-4 .F1F ....
....|..|--- .... ....|--- .... ....|--- .... ....
....|..|--- .... ....|--- .... ....|G#4 .FAF ....
....|..|--- .... ....|C-6 ...7 ....|--- .... ....
....|..|--- .... ....|B-5 ...7 ....|G#4 .FAF ....
....|..|R-- .... ....|A#5 ...7 ....|--- .... ....
....|..|--- .... ....|R-- .... ....|G#4 .FAF ....
....|..|--- .... ....|--- .... ....|--- .... ....
....|..|G#4 ...7 ....|D#6 ...7 ....|G#4 .FAF ....
....|..|G#4 ...7 ....|--- .... ....|--- .... ....
....|..|--- .... ....|--- .... ....|G#4 .FAF ....
....|..|--- .... ....|R-- .... ....|--- .... ....
....|..|--- .... ....|F#5 ...F ....|G#4 .FAF ....
....|..|R-- .... ....|F-5 ...F ....|--- .... ....
....|..|--- .... ....|B-4 ...F ....|G#4 .FAF ....
....|..|--- .... ....|R-- .... ....|--- .... ....

[Pattern26]
....|..|G#4 ...F ....|G-5 ...F ....|F-4 .FBF ....
....|..|G#4 ...F ....|G#5 ...F ....|--- .... ....
....|..|--- .... ....|--- .... ....|G#4 .FA7 ....
....|..|--- .... ....|--- .... ....|--- .... ....
....|..|--- .... ....|--- .... ....|F-4 .FBF ....
....|..|--- .... ....|--- .... ....|--- .... ....
....|..|--- .... ....|--- .... ....|F-4 .FBF ....
....|..|--- .... ....|R-- .... ....|--- .... ....
....|..|--- .... ....|G#5 ...7 ....|G#4 .FCF ....
....|..|R-- .... ....|F-5 ...A ....|--- .... ....
....|..|--- .... ....|B-4 ...A ....|F-4 .FBF ....
....|..|--- .... ....|R-- .... ....|--- .... ....
....|..|G#4 ...A ....|A#5 ...F ....|F-4 .FBF ....
....|..|G#4 ...A ....|R-- .... ....|--- .... ....
....|..|F-4 ...F ....|--- .... ....|F-4 .FBF ....
....|..|R-- .... ....|--- .... ....|--- .... ....
....|..|F-4 ...F ....|C#6 ...F ....|F-4 .F6F ....
....|..|A#4 ...F ....|R-- .... ....|--- .... ....
....|..|--- .... ....|--- .... ....|C#4 .FDF ....
....|..|--- .... ....|--- .... ....|--- .... ....
....|..|--- .... ....|G#5 ...F ....|C#4 .FDF ....
....|..|R-- .... ....|F-5 ...7 ....|--- .... ....
....|..|--- .... ....|B-4 ...7 ....|C#4 .FDF ....
....|..|--- .... ....|R-- .... ....|--- .... ....
....|..|G#4 ...7 ....|F-5 ...F ....|C#4 .FDF ....
....|..|G#4 ...7 ....|G#5 ...7 ....|--- .... ....
....|..|F-4 ...A ....|--- .... ....|C#4 .FDF ....
....|..|R-- .... ....|--- .... ....|--- .... ....
....|..|F-4 ...A ....|G#5 ...F ....|C#4 .FDF ....
....|..|A#4 ...A ....|R-- .... ....|--- .... ....
....|..|A#4 ...F ....|--- .... ....|C#4 .FDF ....
....|..|R-- .... ....|G-5 ...F ....|--- .... ....
....|..|A#4 ...F ....|F#5 ...F ....|D#4 .FBF ....
....|..|A#4 ...F ....|R-- .... ....|--- .... ....
....|..|--- .... ....|--- .... ....|F-4 .FB7 ....
....|..|--- .... ....|--- .... ....|--- .... ....
....|..|--- .... ....|A#5 ...7 ....|D#4 .FBF ....
....|..|--- .... ....|R-- .... ....|--- .... ....
....|..|F-4 ...7 ....|--- .... ....|D#4 .FBF ....
....|..|R-- .... ....|--- .... ....|--- .... ....
....|..|F-4 ...7 ....|C#6 ...7 ....|F#4 .FCF ....
....|..|A#4 ...7 ....|R-- .... ....|--- .... ....
....|..|A#4 ...A ....|--- .... ....|D#4 .FBF ....
....|..|R-- .... ....|G-5 ...A ....|--- .... ....
....|..|A#4 ...A ....|G#5 ...7 ....|D#4 .FBF ....
....|..|A#4 ...A ....|R-- .... ....|--- .... ....
....|..|--- .... ....|--- .... ....|D#4 .FBF ....
....|..|--- .... ....|--- .... ....|--- .... ....

[Pattern27]
....|..|F#5 ...F ....|F-5 ...7 ....|F#4 .FCF ....
....|..|--- .... ....|R-- .... ....|--- .... ....
....|..|--- .... ....|--- .... ....|D#4 .FBF ....
....|..|--- .... ....|--- .... ....|--- .... ....
....|..|--- .... ....|G#5 ...7 ....|D#4 .FBF ....
....|..|--- .... ....|--- .... ....|--- .... ....
....|..|A#4 ...7 ....|--- .... ....|D#4 .FBF ....
....|..|R-- .... ....|G-5 ...7 ....|--- .... ....
....|..|D#5 ...F ....|F#5 ...7 ....|D#4 .FBF ....
....|..|A#4 ...7 ....|--- .... ....|--- .... ....
....|..|--- .... ....|--- .... ....|D#4 .FBF ....
....|..|--- .... ....|--- .... ....|--- .... ....
....|..|F#5 ...A ....|--- .... ....|D#4 .FBF ....
....|..|D#5 ...F ....|--- .... ....|--- .... ....
....|..|--- .... ....|--- .... ....|D#4 .FBF ....
....|..|--- .... ....|--- .... ....|--- .... ....
....|..|D#5 ...F ....|D#5 ...F ....|D#4 .FEF ....
....|..|D#5 ...F ....|--- .... ....|--- .... ....
....|..|--- .... ....|--- .... ....|D#4 .FB7 ....
....|..|--- .... ....|--- .... ....|--- .... ....
....|..|D#5 ...A ....|--- .... ....|D#4 .FEF ....
....|..|--- .... ....|--- .... ....|--- .... ....
....|..|--- .... ....|--- .... ....|D#4 .FEF ....
....|..|--- .... ....|--- .... ....|--- .... ....
....|..|F#5 ...7 ....|--- .... ....|F#4 .F6F ....
....|..|D#5 ...A ....|--- .... ....|--- .... ....
....|..|--- .... ....|R-- .... ....|D#4 .FEF ....
....|..|--- .... ....|--- .... ....|--- .... ....
....|..|D#5 ...A ....|F#5 ...F ....|D#4 .FEF ....
....|..|D#5 ...A ....|--- .... ....|--- .... ....
....|..|--- .... ....|R-- .... ....|D#4 .FEF ....
....|..|--- .... ....|--- .... ....|--- .... ....
....|..|D#5 ...7 ....|D#6 ...F ....|F#4 .F6F ....
....|..|--- .... ....|--- .... ....|--- .... ....
....|..|--- .... ....|--- .... ....|D#4 .FEF ....
....|..|--- .... ....|R-- .... ....|--- .... ....
....|..|--- .... ....|C#6 ...F ....|D#4 .FEF ....
....|..|D#5 ...7 ....|--- .... ....|--- .... ....
....|..|--- .... ....|R-- .... ....|D#4 .FEF ....
....|..|--- .... ....|R-- .... ....|--- .... ....
....|..|F#4 ...F ....|A#5 ...F ....|D#4 .FEF ....
....|..|D#5 ...7 ....|R-- .... ....|--- .... ....
....|..|--- .... ....|G#5 ...F ....|D#4 .FEF ....
....|..|--- .... ....|--- .... ....|--- .... ....
....|..|--- .... ....|D#6 ...A ....|D#4 .FEF ....
....|..|R-- .... ....|--- .... ....|--- .... ....
....|..|--- .... ....|F#5 ...F ....|D#4 .FEF ....
....|..|--- .... ....|R-- .... ....|--- .... ....

[Pattern28]
....|..|G#4 ...F ....|G#5 ...F ....|D#4 .F9F ....
....|..|G#4 ...F ....|--- .... ....|--- .... ....
....|..|--- .... ....|R-- .... ....|D#4 .FE7 ....
....|..|--- .... ....|R-- .... ....|--- .... ....
....|..|F#4 ...A ....|F#5 ...7 ....|D#4 .F9F ....
....|..|--- .... ....|R-- .... ....|--- .... ....
....|..|--- .... ....|R-- .... ....|D#4 .F9F ....
....|..|--- .... ....|--- .... ....|--- .... ....
....|..|--- .... ....|D#6 ...7 ....|G#4 .F1F ....
....|..|R-- .... ....|--- .... ....|--- .... ....
....|..|--- .... ....|F#5 ...A ....|D#4 .F9F ....
....|..|--- .... ....|R-- .... ....|--- .... ....
....|..|G#4 ...A ....|C#6 ...7 ....|D#4 .F9F ....
....|..|G#4 ...A ....|--- .... ....|--- .... ....
....|..|--- .... ....|--- .... ....|D#4 .F9F ....
....|..|--- .... ....|R-- .... ....|--- .... ....
....|..|F#4 ...7 ....|A#5 ...7 ....|G#4 .F1F ....
....|..|--- .... ....|R-- .... ....|--- .... ....
....|..|--- .... ....|G#5 ...7 ....|D#4 .F9F ....
....|..|--- .... ....|R-- .... ....|--- .... ....
....|..|--- .... ....|--- .... ....|D#4 .F9F ....
....|..|R-- .... ....|--- .... ....|--- .... ....
....|..|--- .... ....|F#5 ...7 ....|D#4 .F9F ....
....|..|--- .... ....|R-- .... ....|--- .... ....
....|..|G#4 ...7 ....|G#5 ...F ....|D#4 .F9F ....
....|..|G#4 ...7 ....|R-- .... ....|--- .... ....
....|..|--- .... ....|A#5 ...F ....|D#4 .F9F ....
....|..|--- .... ....|--- .... ....|--- .... ....
....|..|--- .... ....|--- .... ....|D#4 .F9F ....
....|..|R-- .... ....|--- .... ....|--- .... ....
....|..|--- .... ....|--- .... ....|D#4 .F9F ....
....|..|--- .... ....|R-- .... ....|--- .... ....
....|..|G#4 ...F ....|C#6 ...F ....|G#4 .FBF ....
....|..|G#4 ...F ....|--- .... ....|--- .... ....
....|..|--- .... ....|--- .... ....|D#4 .F97 ....
....|..|--- .... ....|--- .... ....|--- .... ....
....|..|--- .... ....|G#5 ...A ....|G#4 .FBF ....
....|..|--- .... ....|R-- .... ....|--- .... ....
....|..|--- .... ....|A#5 ...A ....|G#4 .FBF ....
....|..|--- .... ....|--- .... ....|--- .... ....
....|..|--- .... ....|--- .... ....|B-4 .FCF ....
....|..|R-- .... ....|--- .... ....|--- .... ....
....|..|--- .... ....|--- .... ....|G#4 .FBF ....
....|..|--- .... ....|R-- .... ....|--- .... ....
....|..|G#4 ...A ....|C#6 ...A ....|G#4 .FBF ....
....|..|G#4 ...A ....|--- .... ....|--- .... ....
....|..|--- .... ....|--- .... ....|G#4 .FBF ....
....|..|--- .... ....|--- .... ....|--- .... ....

[Pattern29]
....|..|--- .... ....|G#5 ...7 ....|B-4 .FCF ....
....|..|--- .... ....|R-- .... ....|--- .... ....
....|..|--- .... ....|A#5 ...7 ....|G#4 .FBF ....
....|..|--- .... ....|--- .... ....|--- .... ....
....|..|--- .... ....|D-6 ...F ....|G#4 .FBF ....
....|..|R-- .... ....|D#6 ...F ....|--- .... ....
....|..|--- .... ....|R-- .... ....|G#4 .FBF ....
....|..|--- .... ....|--- .... ....|--- .... ....
....|..|G#4 ...7 ....|F#6 ...F ....|G#4 .FBF ....
....|..|G#4 ...7 ....|--- .... ....|--- .... ....
....|..|--- .... ....|R-- .... ....|G#4 .FBF ....
....|..|--- .... ....|--- .... ....|--- .... ....
....|..|--- .... ....|D#6 ...F ....|G#4 .FBF ....
....|..|R-- .... ....|--- .... ....|--- .... ....
....|..|--- .... ....|R-- .... ....|G#4 .FBF ....
....|..|--- .... ....|--- .... ....|--- .... ....
....|..|G#4 ...F ....|C#6 ...F ....|F-4 .FEF ....
....|..|--- .... ....|D#6 ...A ....|--- .... ....
....|..|--- .... ....|R-- .... ....|G#4 .FB7 ....
....|..|--- .... ....|--- .... ....|--- .... ....
....|..|B-4 ...F ....|F#6 ...A ....|F-4 .FEF ....
....|..|--- .... ....|--- .... ....|--- .... ....
....|..|--- .... ....|R-- .... ....|F-4 .FEF ....
....|..|--- .... ....|--- .... ....|--- .... ....
....|..|D#5 ...F ....|R-- .... ....|G#4 .F6F ....
....|..|R-- .... ....|--- .... ....|--- .... ....
....|..|--- .... ....|R-- .... ....|F-4 .FEF ....
....|..|--- .... ....|--- .... ....|--- .... ....
....|..|F#5 ...F ....|D-6 ...7 ....|F-4 .FEF ....
....|..|--- .... ....|C-6 ...F ....|--- .... ....
....|..|--- .... ....|A#5 ...F ....|F-4 .FEF ....
....|..|--- .... ....|F#5 ...F ....|--- .... ....
....|..|G#5 ...F ....|D#5 ...F ....|G#4 .F6F ....
....|..|--- .... ....|C-5 ...F ....|--- .... ....
....|..|--- .... ....|G#4 ...F ....|F-4 .FEF ....
....|..|--- .... ....|F-4 ...F ....|--- .... ....
....|..|A#5 ...F ....|C#4 ...F ....|F-4 .FEF ....
....|..|R-- .... ....|--- .... ....|--- .... ....
....|..|--- .... ....|R-- .... ....|F-4 .FEF ....
....|..|--- .... ....|--- .... ....|--- .... ....
....|..|C#6 ...F ....|C#6 ...7 ....|F-4 .FEF ....
....|..|--- .... ....|C-6 ...A ....|--- .... ....
....|..|--- .... ....|A#5 ...A ....|F-4 .FEF ....
....|..|--- .... ....|F#5 ...A ....|--- .... ....
....|..|D#6 ...F ....|D#5 ...A ....|F-4 .FEF ....
....|..|--- .... ....|C-5 ...A ....|--- .... ....
....|..|D#6 ...F ....|G#4 ...A ....|F-4 .FEF ....
....|..|D#6 ...F ....|F-4 ...A ....|--- .... ....

[Pattern30]
....|..|A#5 ...F ....|F#5 ...F ....|F#4 .FAF ....
....|..|--- .... ....|--- .... ....|--- .... ....
....|..|--- .... ....|--- .... ....|F-4 .FE7 ....
....|..|--- .... ....|--- .... ....|--- .... ....
....|..|F#5 ...7 ....|--- .... ....|F#4 .FAF ....
....|..|--- .... ....|C-6 ...7 ....|--- .... ....
....|..|--- .... ....|A#5 ...7 ....|F#4 .FAF ....
....|..|--- .... ....|F#5 ...7 ....|--- .... ....
....|..|G#5 ...7 ....|D#5 ...7 ....|A#4 .F1F ....
....|..|--- .... ....|C-5 ...7 ....|--- .... ....
....|..|D#6 ...A ....|G#4 ...7 ....|F#4 .FAF ....
....|..|D#6 ...A ....|F-4 ...7 ....|--- .... ....
....|..|A#5 ...7 ....|F-6 ...F ....|F#4 .FAF ....
....|..|--- .... ....|F#6 ...F ....|--- .... ....
....|..|--- .... ....|--- .... ....|F#4 .FAF ....
....|..|--- .... ....|R-- .... ....|--- .... ....
....|..|C#6 ...7 ....|F-6 ...F ....|A#4 .F1F ....
....|..|--- .... ....|--- .... ....|--- .... ....
....|..|--- .... ....|--- .... ....|F#4 .FAF ....
....|..|--- .... ....|--- .... ....|--- .... ....
....|..|D#6 ...7 ....|R-- .... ....|F#4 .FAF ....
....|..|--- .... ....|R-- .... ....|--- .... ....
....|..|D#6 ...7 ....|C#6 ...F ....|F#4 .FAF ....
....|..|D#6 ...7 ....|--- .... ....|--- .... ....
....|..|A#5 ...7 ....|F#5 ...7 ....|F#4 .FAF ....
....|..|--- .... ....|F#6 ...A ....|--- .... ....
....|..|--- .... ....|--- .... ....|F#4 .FAF ....
....|..|--- .... ....|R-- .... ....|--- .... ....
....|..|--- .... ....|C-6 ...F ....|F#4 .FAF ....
....|..|R-- .... ....|--- .... ....|--- .... ....
....|..|--- .... ....|R-- .... ....|F#4 .FAF ....
....|..|--- .... ....|--- .... ....|--- .... ....
....|..|G#5 ...F ....|D#6 ...F ....|G#4 .FAF ....
....|..|C-6 ...F ....|R-- .... ....|--- .... ....
....|..|--- .... ....|C#6 ...A ....|F#4 .FA7 ....
....|..|--- .... ....|--- .... ....|--- .... ....
....|..|--- .... ....|F-6 ...7 ....|G#4 .FAF ....
....|..|--- .... ....|F#6 ...7 ....|--- .... ....
....|..|--- .... ....|--- .... ....|G#4 .FAF ....
....|..|--- .... ....|R-- .... ....|--- .... ....
....|..|--- .... ....|F-6 ...7 ....|C-4 .F1F ....
....|..|R-- .... ....|--- .... ....|--- .... ....
....|..|--- .... ....|R-- .... ....|G#4 .FAF ....
....|..|--- .... ....|--- .... ....|--- .... ....
....|..|G#5 ...A ....|R-- .... ....|G#4 .FAF ....
....|..|C-6 ...A ....|--- .... ....|--- .... ....
....|..|--- .... ....|C#6 ...7 ....|G#4 .FAF ....
....|..|C-6 ...F ....|R-- .... ....|--- .... ....

[Pattern31]
....|..|C-6 ...F ....|G#5 ...F ....|C-4 .F1F ....
....|..|--- .... ....|--- .... ....|--- .... ....
....|..|--- .... ....|--- .... ....|G#4 .FAF ....
....|..|--- .... ....|--- .... ....|--- .... ....
....|..|--- .... ....|C-6 ...7 ....|G#4 .FAF ....
....|..|R-- .... ....|--- .... ....|--- .... ....
....|..|--- .... ....|R-- .... ....|G#4 .FAF ....
....|..|--- .... ....|--- .... ....|--- .... ....
....|..|G#5 ...7 ....|D#6 ...7 ....|G#4 .FAF ....
....|..|C-6 ...7 ....|--- .... ....|--- .... ....
....|..|--- .... ....|--- .... ....|G#4 .FAF ....
....|..|C-6 ...A ....|R-- .... ....|--- .... ....
....|..|C-6 ...A ....|G#5 ...A ....|G#4 .FAF ....
....|..|G#5 ...F ....|--- .... ....|--- .... ....
....|..|--- .... ....|--- .... ....|G#4 .FAF ....
....|..|R-- .... ....|R-- .... ....|--- .... ....
....|..|F-5 ...F ....|G-5 ...F ....|F-4 .FBF ....
....|..|G#5 ...F ....|G#5 ...F ....|--- .... ....
....|..|--- .... ....|--- .... ....|G#4 .FA7 ....
....|..|--- .... ....|--- .... ....|--- .... ....
....|..|--- .... ....|--- .... ....|F-4 .FBF ....
....|..|--- .... ....|--- .... ....|--- .... ....
....|..|--- .... ....|--- .... ....|F-4 .FBF ....
....|..|C-6 ...7 ....|R-- .... ....|--- .... ....
....|..|C-6 ...7 ....|G#5 ...7 ....|G#4 .FCF ....
....|..|G#5 ...A ....|--- .... ....|--- .... ....
....|..|--- .... ....|--- .... ....|F-4 .FBF ....
....|..|R-- .... ....|R-- .... ....|--- .... ....
....|..|F-5 ...A ....|A#5 ...F ....|F-4 .FBF ....
....|..|G#5 ...A ....|G#5 ...A ....|--- .... ....
....|..|G#5 ...F ....|R-- .... ....|F-4 .FBF ....
....|..|R-- .... ....|--- .... ....|--- .... ....
....|..|C#5 ...F ....|C#6 ...F ....|F-4 .F6F ....
....|..|F-5 ...F ....|R-- .... ....|--- .... ....
....|..|--- .... ....|G#5 ...F ....|C#4 .FDF ....
....|..|--- .... ....|--- .... ....|--- .... ....
....|..|--- .... ....|--- .... ....|C#4 .FDF ....
....|..|G#5 ...7 ....|R-- .... ....|--- .... ....
....|..|--- .... ....|F-5 ...F ....|C#4 .FDF ....
....|..|R-- .... ....|R-- .... ....|--- .... ....
....|..|F-5 ...7 ....|G-5 ...7 ....|C#4 .FDF ....
....|..|G#5 ...7 ....|G#5 ...7 ....|--- .... ....
....|..|G#5 ...A ....|G#5 ...F ....|C#4 .FDF ....
....|..|R-- .... ....|--- .... ....|--- .... ....
....|..|C#5 ...A ....|C#6 ...A ....|C#4 .FDF ....
....|..|F-5 ...A ....|R-- .... ....|--- .... ....
....|..|F-5 ...F ....|G#5 ...A ....|C#4 .FDF ....
....|..|R-- .... ....|G-5 ...F ....|--- .... ....

[Pattern32]
....|..|D#5 ...F ....|F#5 ...F ....|D#4 .FBF ....
....|..|F#5 ...F ....|R-- .... ....|--- .... ....
....|..|--- .... ....|F-5 ...A ....|F-4 .FB7 ....
....|..|--- .... ....|--- .... ....|--- .... ....
....|..|--- .... ....|A#5 ...7 ....|D#4 .FBF ....
....|..|--- .... ....|R-- .... ....|--- .... ....
....|..|G#5 ...7 ....|R-- .... ....|D#4 .FBF ....
....|..|R-- .... ....|--- .... ....|--- .... ....
....|..|C#5 ...7 ....|C#6 ...7 ....|F#4 .FCF ....
....|..|F-5 ...7 ....|R-- .... ....|--- .... ....
....|..|F-5 ...A ....|G#5 ...7 ....|D#4 .FBF ....
....|..|R-- .... ....|G-5 ...A ....|--- .... ....
....|..|D#5 ...A ....|F#5 ...A ....|D#4 .FBF ....
....|..|F#5 ...A ....|R-- .... ....|--- .... ....
....|..|--- .... ....|F-5 ...7 ....|D#4 .FBF ....
....|..|--- .... ....|--- .... ....|--- .... ....
....|..|D#5 ...F ....|--- .... ....|F#4 .FCF ....
....|..|--- .... ....|R-- .... ....|--- .... ....
....|..|--- .... ....|G#5 ...7 ....|D#4 .FBF ....
....|..|--- .... ....|--- .... ....|--- .... ....
....|..|F-5 ...F ....|--- .... ....|D#4 .FBF ....
....|..|--- .... ....|--- .... ....|--- .... ....
....|..|F-5 ...7 ....|R-- .... ....|D#4 .FBF ....
....|..|R-- .... ....|G-5 ...7 ....|--- .... ....
....|..|F#5 ...F ....|F#5 ...7 ....|D#4 .FBF ....
....|..|F#5 ...7 ....|--- .... ....|--- .... ....
....|..|--- .... ....|--- .... ....|D#4 .FBF ....
....|..|F#5 ...F ....|--- .... ....|--- .... ....
....|..|D#5 ...F ....|--- .... ....|D#4 .FBF ....
....|..|--- .... ....|--- .... ....|--- .... ....
....|..|--- .... ....|--- .... ....|D#4 .FBF ....
....|..|--- .... ....|--- .... ....|--- .... ....
....|..|D#5 ...F ....|D#5 ...F ....|D#4 .FEF ....
....|..|F#5 ...F ....|--- .... ....|--- .... ....
....|..|--- .... ....|R-- .... ....|D#4 .FB7 ....
....|..|--- .... ....|--- .... ....|--- .... ....
....|..|F#5 ...A ....|--- .... ....|D#4 .FEF ....
....|..|--- .... ....|--- .... ....|--- .... ....
....|..|--- .... ....|--- .... ....|D#4 .FEF ....
....|..|F#5 ...A ....|--- .... ....|--- .... ....
....|..|D#5 ...7 ....|--- .... ....|F#4 .F6F ....
....|..|--- .... ....|--- .... ....|--- .... ....
....|..|--- .... ....|R-- .... ....|D#4 .FEF ....
....|..|--- .... ....|--- .... ....|--- .... ....
....|..|F-5 ...7 ....|F#5 ...F ....|D#4 .FEF ....
....|..|F#5 ...A ....|--- .... ....|--- .... ....
....|..|--- .... ....|R-- .... ....|D#4 .FEF ....
....|..|--- .... ....|R-- .... ....|--- .... ....

[Pattern33]
....|..|F#5 ...F ....|D#6 ...F ....|F#4 .F6F ....
....|..|--- .... ....|--- .... ....|--- .... ....
....|..|--- .... ....|--- .... ....|D#4 .FEF ....
....|..|F#5 ...7 ....|R-- .... ....|--- .... ....
....|..|D#5 ...7 ....|C#6 ...F ....|D#4 .FEF ....
....|..|--- .... ....|--- .... ....|--- .... ....
....|..|--- .... ....|R-- .... ....|D#4 .FEF ....
....|..|--- .... ....|R-- .... ....|--- .... ....
....|..|D#5 ...7 ....|A#5 ...F ....|D#4 .FEF ....
....|..|F#5 ...7 ....|R-- .... ....|--- .... ....
....|..|--- .... ....|G#5 ...F ....|D#4 .FEF ....
....|..|--- .... ....|R-- .... ....|--- .... ....
....|..|F#5 ...A ....|D#6 ...A ....|D#4 .FEF ....
....|..|F#4 ...F ....|--- .... ....|--- .... ....
....|..|--- .... ....|F#5 ...F ....|D#4 .FEF ....
....|..|R-- .... ....|R-- .... ....|--- .... ....
....|..|G#4 ...F ....|G#5 ...F ....|D#4 .F9F ....
....|..|G#4 ...F ....|--- .... ....|--- .... ....
....|..|--- .... ....|R-- .... ....|D#4 .FE7 ....
....|..|--- .... ....|R-- .... ....|--- .... ....
....|..|--- .... ....|F#5 ...7 ....|D#4 .F9F ....
....|..|--- .... ....|R-- .... ....|--- .... ....
....|..|--- .... ....|G#5 ...A ....|D#4 .F9F ....
....|..|--- .... ....|R-- .... ....|--- .... ....
....|..|F#5 ...7 ....|D#6 ...7 ....|G#4 .F1F ....
....|..|F#4 ...A ....|--- .... ....|--- .... ....
....|..|--- .... ....|F#5 ...A ....|D#4 .F9F ....
....|..|R-- .... ....|R-- .... ....|--- .... ....
....|..|G#4 ...A ....|C#6 ...7 ....|D#4 .F9F ....
....|..|G#4 ...A ....|--- .... ....|--- .... ....
....|..|--- .... ....|--- .... ....|D#4 .F9F ....
....|..|D#4 ...F ....|R-- .... ....|--- .... ....
....|..|G#4 ...F ....|A#5 ...7 ....|G#4 .F1F ....
....|..|--- .... ....|R-- .... ....|--- .... ....
....|..|--- .... ....|G#5 ...7 ....|D#4 .F9F ....
....|..|--- .... ....|R-- .... ....|--- .... ....
....|..|F#4 ...F ....|--- .... ....|D#4 .F9F ....
....|..|F#4 ...7 ....|--- .... ....|--- .... ....
....|..|--- .... ....|F#5 ...7 ....|D#4 .F9F ....
....|..|R-- .... ....|R-- .... ....|--- .... ....
....|..|D#4 ...F ....|G#5 ...F ....|D#4 .F9F ....
....|..|G#4 ...7 ....|R-- .... ....|--- .... ....
....|..|--- .... ....|A#5 ...F ....|D#4 .F9F ....
....|..|D#4 ...A ....|--- .... ....|--- .... ....
....|..|F#4 ...F ....|--- .... ....|D#4 .F9F ....
....|..|--- .... ....|--- .... ....|--- .... ....
....|..|--- .... ....|--- .... ....|D#4 .F9F ....
....|..|--- .... ....|R-- .... ....|--- .... ....

[Pattern34]
....|..|G#4 ...F ....|C#6 ...F ....|F-4 .FEF ....
....|..|G#4 ...F ....|--- .... ....|--- .... ....
....|..|--- .... ....|--- .... ....|D#4 .F97 ....
....|..|--- .... ....|--- .... ....|--- .... ....
....|..|G#4 ...F ....|G#5 ...A ....|F-4 .FEF ....
....|..|--- .... ....|R-- .... ....|--- .... ....
....|..|--- .... ....|A#5 ...A ....|F-4 .FEF ....
....|..|D#4 ...7 ....|--- .... ....|--- .... ....
....|..|G#4 ...F ....|--- .... ....|G#4 .F6F ....
....|..|--- .... ....|--- .... ....|--- .... ....
....|..|--- .... ....|--- .... ....|F-4 .FEF ....
....|..|--- .... ....|R-- .... ....|--- .... ....
....|..|G#4 ...F ....|C#6 ...A ....|F-4 .FEF ....
....|..|G#4 ...A ....|--- .... ....|--- .... ....
....|..|--- .... ....|--- .... ....|F-4 .FEF ....
....|..|--- .... ....|--- .... ....|--- .... ....
....|..|D#4 ...7 ....|G#5 ...7 ....|G#4 .F6F ....
....|..|--- .... ....|R-- .... ....|--- .... ....
....|..|--- .... ....|A#5 ...7 ....|F-4 .FEF ....
....|..|--- .... ....|--- .... ....|--- .... ....
....|..|F#4 ...7 ....|D#6 ...F ....|F-4 .FEF ....
....|..|--- .... ....|--- .... ....|--- .... ....
....|..|--- .... ....|--- .... ....|F-4 .FEF ....
....|..|C#4 ...F ....|--- .... ....|--- .... ....
....|..|G#4 ...F ....|F#6 ...F ....|F-4 .FEF ....
....|..|G#4 ...7 ....|--- .... ....|--- .... ....
....|..|--- .... ....|--- .... ....|F-4 .FEF ....
....|..|--- .... ....|--- .... ....|--- .... ....
....|..|G#4 ...7 ....|F#6 ...F ....|F-4 .FEF ....
....|..|C#4 ...F ....|D#6 ...F ....|--- .... ....
....|..|--- .... ....|R-- .... ....|F-4 .FEF ....
....|..|R-- .... ....|R-- .... ....|--- .... ....
....|..|A#5 ...F ....|F#6 ...F ....|C#4 .FDF ....
....|..|A#5 ...F ....|--- .... ....|--- .... ....
....|..|--- .... ....|--- .... ....|F-4 .FE7 ....
....|..|C#4 ...A ....|--- .... ....|--- .... ....
....|..|G#4 ...7 ....|F#6 ...A ....|C#4 .FDF ....
....|..|--- .... ....|--- .... ....|--- .... ....
....|..|--- .... ....|--- .... ....|C#4 .FDF ....
....|..|--- .... ....|--- .... ....|--- .... ....
....|..|--- .... ....|F#6 ...A ....|F-4 .F6F ....
....|..|C#4 ...A ....|D#6 ...A ....|--- .... ....
....|..|--- .... ....|R-- .... ....|C#4 .FDF ....
....|..|R-- .... ....|R-- .... ....|--- .... ....
....|..|A#5 ...A ....|D#6 ...7 ....|C#4 .FDF ....
....|..|A#5 ...A ....|--- .... ....|--- .... ....
....|..|--- .... ....|--- .... ....|C#4 .FDF ....
....|..|A#5 ...F ....|R-- .... ....|--- .... ....

[Pattern35]
....|..|A#5 ...F ....|G#6 ...F ....|F-4 .F6F ....
....|..|--- .... ....|--- .... ....|--- .... ....
....|..|--- .... ....|--- .... ....|D-4 .FEF ....
....|..|--- .... ....|--- .... ....|--- .... ....
....|..|--- .... ....|F#6 ...7 ....|D-4 .FEF ....
....|..|C#4 ...7 ....|D#6 ...7 ....|--- .... ....
....|..|--- .... ....|--- .... ....|D-4 .FEF ....
....|..|R-- .... ....|R-- .... ....|--- .... ....
....|..|A#5 ...F ....|F#6 ...7 ....|D-4 .FEF ....
....|..|A#5 ...7 ....|--- .... ....|--- .... ....
....|..|--- .... ....|--- .... ....|D-4 .FEF ....
....|..|A#5 ...A ....|R-- .... ....|--- .... ....
....|..|A#5 ...A ....|G#6 ...A ....|D-4 .FEF ....
....|..|--- .... ....|--- .... ....|--- .... ....
....|..|--- .... ....|--- .... ....|D-4 .FEF ....
....|..|--- .... ....|R-- .... ....|--- .... ....
....|..|D#5 ...F ....|A#6 ...F ....|A#3 .F.F ....
....|..|D#5 ...F ....|--- .... ....|A#3 .F9F ....
....|..|--- .... ....|--- .... ....|A#3 .F9F ....
....|..|--- .... ....|--- .... ....|--- .... ....
....|..|A#5 ...A ....|D-6 ...F ....|C#4 .FD7 ....
....|..|--- .... ....|A#5 ...F ....|--- .... ....
....|..|--- .... ....|G-5 ...F ....|C#4 .FD7 ....
....|..|A#5 ...7 ....|D#5 ...F ....|--- .... ....
....|..|A#5 ...7 ....|F#5 ...F ....|F-4 .F67 ....
....|..|--- .... ....|--- .... ....|--- .... ....
....|..|--- .... ....|--- .... ....|D-4 .FE7 ....
....|..|--- .... ....|R-- .... ....|--- .... ....
....|..|D#5 ...A ....|F-5 ...F ....|D-4 .FE7 ....
....|..|D#5 ...A ....|R-- .... ....|A#3 .F9A ....
....|..|--- .... ....|F#5 ...F ....|D-4 .FE7 ....
....|..|--- .... ....|--- .... ....|--- .... ....
....|..|A#5 ...7 ....|D-6 ...A ....|D-4 .FE7 ....
....|..|--- .... ....|A#5 ...A ....|--- .... ....
....|..|--- .... ....|G-5 ...A ....|D-4 .FE7 ....
....|..|--- .... ....|R-- .... ....|--- .... ....
....|..|--- .... ....|F-5 ...F ....|D-4 .FE7 ....
....|..|--- .... ....|--- .... ....|--- .... ....
....|..|--- .... ....|--- .... ....|D-4 .FE7 ....
....|..|--- .... ....|R-- .... ....|--- .... ....
....|..|D#5 ...7 ....|C#5 ...F ....|A#3 .F.7 ....
....|..|D#5 ...7 ....|R-- .... ....|A#3 .F97 ....
....|..|--- .... ....|F#5 ...A ....|A#3 .F97 ....
....|..|--- .... ....|R-- .... ....|--- .... ....
....|..|--- .... ....|A#4 ...F ....|--- .... ....
....|..|R-- .... ....|A#5 ...7 ....|--- .... ....
....|..|--- .... ....|G-5 ...7 ....|A#3 .F6F ....
....|..|--- .... ....|D#5 ...7 ....|R-- .... ....

[Pattern36]
....|..|F#4 ...F ....|C#5 ...F ....|B-3 .FCF ....
....|..|B-4 ...F ....|R-- .... ....|B-3 .FAF ....
....|..|--- .... ....|--- .... ....|--- .... ....
....|..|--- .... ....|R-- .... ....|--- .... ....
....|..|--- .... ....|D#5 ...F ....|--- .... ....
....|..|--- .... ....|R-- .... ....|--- .... ....
....|..|--- .... ....|F#5 ...7 ....|--- .... ....
....|..|--- .... ....|R-- .... ....|--- .... ....
....|..|--- .... ....|A#4 ...A ....|--- .... ....
....|..|R-- .... ....|--- .... ....|--- .... ....
....|..|--- .... ....|--- .... ....|A#3 .F6A ....
....|..|--- .... ....|R-- .... ....|R-- .... ....
....|..|F#4 ...A ....|D#5 ...F ....|B-3 .FCA ....
....|..|B-4 ...A ....|R-- .... ....|B-3 .FAA ....
....|..|--- .... ....|--- .... ....|--- .... ....
....|..|--- .... ....|R-- .... ....|--- .... ....
....|..|--- .... ....|C#5 ...7 ....|--- .... ....
....|..|--- .... ....|--- .... ....|--- .... ....
....|..|--- .... ....|--- .... ....|--- .... ....
....|..|--- .... ....|R-- .... ....|--- .... ....
....|..|--- .... ....|A#4 ...7 ....|--- .... ....
....|..|R-- .... ....|--- .... ....|--- .... ....
....|..|--- .... ....|--- .... ....|A#3 .F67 ....
....|..|--- .... ....|R-- .... ....|R-- .... ....
....|..|F#4 ...7 ....|C#5 ...7 ....|B-3 .FC7 ....
....|..|B-4 ...7 ....|R-- .... ....|B-3 .FA7 ....
....|..|--- .... ....|--- .... ....|--- .... ....
....|..|--- .... ....|--- .... ....|--- .... ....
....|..|--- .... ....|D#5 ...7 ....|--- .... ....
....|..|R-- .... ....|R-- .... ....|--- .... ....
....|..|--- .... ....|--- .... ....|B-3 .F.F ....
....|..|--- .... ....|--- .... ....|R-- .... ....
....|..|F#4 ...F ....|--- .... ....|A#3 .F.F ....
....|..|A#4 ...F ....|--- .... ....|A#3 .F9F ....
....|..|--- .... ....|--- .... ....|A#3 .F9F ....
....|..|--- .... ....|R-- .... ....|--- .... ....
....|..|--- .... ....|D#5 ...7 ....|--- .... ....
....|..|--- .... ....|--- .... ....|--- .... ....
....|..|--- .... ....|--- .... ....|--- .... ....
....|..|--- .... ....|--- .... ....|--- .... ....
....|..|--- .... ....|F#5 ...F ....|--- .... ....
....|..|R-- .... ....|R-- .... ....|--- .... ....
....|..|--- .... ....|--- .... ....|B-3 .F.A ....
....|..|--- .... ....|--- .... ....|R-- .... ....
....|..|F#4 ...A ....|F-5 ...F ....|A#3 .F.A ....
....|..|A#4 ...A ....|R-- .... ....|A#3 .F9A ....
....|..|--- .... ....|F#5 ...F ....|A#3 .F9A ....
....|..|--- .... ....|--- .... ....|--- .... ....

[Pattern37]
....|..|--- .... ....|--- .... ....|--- .... ....
....|..|--- .... ....|--- .... ....|--- .... ....
....|..|--- .... ....|--- .... ....|--- .... ....
....|..|--- .... ....|R-- .... ....|--- .... ....
....|..|--- .... ....|F-5 ...F ....|--- .... ....
....|..|R-- .... ....|R-- .... ....|--- .... ....
....|..|--- .... ....|--- .... ....|B-3 .F.7 ....
....|..|--- .... ....|R-- .... ....|R-- .... ....
....|..|F#4 ...7 ....|C#5 ...F ....|A#3 .F.7 ....
....|..|A#4 ...7 ....|R-- .... ....|A#3 .F97 ....
....|..|--- .... ....|F#5 ...A ....|A#3 .F97 ....
....|..|--- .... ....|R-- .... ....|--- .... ....
....|..|--- .... ....|A#4 ...F ....|--- .... ....
....|..|R-- .... ....|--- .... ....|--- .... ....
....|..|--- .... ....|--- .... ....|A#3 .F6F ....
....|..|--- .... ....|R-- .... ....|R-- .... ....
....|..|F#4 ...F ....|C#5 ...F ....|B-3 .FCF ....
....|..|B-4 ...F ....|R-- .... ....|B-3 .FAF ....
....|..|--- .... ....|--- .... ....|--- .... ....
....|..|--- .... ....|R-- .... ....|--- .... ....
....|..|--- .... ....|D#5 ...F ....|--- .... ....
....|..|--- .... ....|R-- .... ....|--- .... ....
....|..|--- .... ....|F#5 ...7 ....|--- .... ....
....|..|--- .... ....|R-- .... ....|--- .... ....
....|..|--- .... ....|A#4 ...A ....|--- .... ....
....|..|R-- .... ....|--- .... ....|--- .... ....
....|..|--- .... ....|--- .... ....|A#3 .F6A ....
....|..|--- .... ....|R-- .... ....|R-- .... ....
....|..|F#4 ...A ....|D#5 ...F ....|B-3 .FCA ....
....|..|B-4 ...A ....|R-- .... ....|B-3 .FAA ....
....|..|--- .... ....|--- .... ....|--- .... ....
....|..|--- .... ....|R-- .... ....|--- .... ....
....|..|--- .... ....|C#5 ...7 ....|--- .... ....
....|..|--- .... ....|--- .... ....|--- .... ....
....|..|--- .... ....|--- .... ....|--- .... ....
....|..|--- .... ....|R-- .... ....|--- .... ....
....|..|--- .... ....|A#4 ...7 ....|--- .... ....
....|..|R-- .... ....|--- .... ....|--- .... ....
....|..|--- .... ....|--- .... ....|A#3 .F67 ....
....|..|--- .... ....|R-- .... ....|R-- .... ....
....|..|F#4 ...7 ....|C#5 ...7 ....|B-3 .FC7 ....
....|..|B-4 ...7 ....|R-- .... ....|B-3 .FA7 ....
....|..|--- .... ....|--- .... ....|--- .... ....
....|..|--- .... ....|--- .... ....|--- .... ....
....|..|--- .... ....|D#5 ...7 ....|--- .... ....
....|..|R-- .... ....|R-- .... ....|--- .... ....
....|..|--- .... ....|--- .... ....|B-3 .F.F ....
....|..|--- .... ....|--- .... ....|R-- .... ....

[Pattern38]
....|..|B-4 ...F ....|--- .... ....|F#4 .FFF ....
....|..|B-4 ...F ....|--- .... ....|--- .... ....
....|..|--- .... ....|--- .... ....|--- .... ....
....|..|--- .... ....|R-- .... ....|--- .... ....
....|..|--- .... ....|D#5 ...7 ....|F#4 .FFF ....
....|..|--- .... ....|--- .... ....|--- .... ....
....|..|--- .... ....|--- .... ....|F#4 .FFF ....
....|..|--- .... ....|--- .... ....|--- .... ....
....|..|--- .... ....|D#5 ...F ....|B-4 .FCF ....
....|..|R-- .... ....|R-- .... ....|--- .... ....
....|..|--- .... ....|--- .... ....|F#4 .FFF ....
....|..|--- .... ....|R-- .... ....|R-- .... ....
....|..|B-4 ...A ....|F-5 ...F ....|F#4 .FFF ....
....|..|B-4 ...A ....|--- .... ....|--- .... ....
....|..|--- .... ....|--- .... ....|F#4 .FFF ....
....|..|--- .... ....|R-- .... ....|--- .... ....
....|..|--- .... ....|F#5 ...F ....|B-4 .FCF ....
....|..|--- .... ....|--- .... ....|--- .... ....
....|..|--- .... ....|--- .... ....|F#4 .FFF ....
....|..|--- .... ....|--- .... ....|--- .... ....
....|..|--- .... ....|F-5 ...F ....|F#4 .FFF ....
....|..|R-- .... ....|R-- .... ....|--- .... ....
....|..|--- .... ....|D#5 ...F ....|F#4 .FFF ....
....|..|--- .... ....|R-- .... ....|R-- .... ....
....|..|B-4 ...7 ....|F-5 ...A ....|F#4 .FFF ....
....|..|B-4 ...7 ....|--- .... ....|--- .... ....
....|..|--- .... ....|--- .... ....|F#4 .FFF ....
....|..|--- .... ....|R-- .... ....|--- .... ....
....|..|--- .... ....|F#5 ...A ....|F#4 .FFF ....
....|..|R-- .... ....|--- .... ....|--- .... ....
....|..|--- .... ....|--- .... ....|F#4 .FFF ....
....|..|--- .... ....|--- .... ....|--- .... ....
....|..|B-4 ...F ....|D#5 ...7 ....|G#4 .FBF ....
....|..|B-4 ...F ....|R-- .... ....|--- .... ....
....|..|--- .... ....|D#5 ...A ....|F#4 .FF7 ....
....|..|--- .... ....|R-- .... ....|--- .... ....
....|..|--- .... ....|F-5 ...7 ....|G#4 .FBF ....
....|..|--- .... ....|--- .... ....|--- .... ....
....|..|--- .... ....|--- .... ....|G#4 .FBF ....
....|..|--- .... ....|R-- .... ....|--- .... ....
....|..|--- .... ....|F-5 ...F ....|B-4 .FCF ....
....|..|R-- .... ....|--- .... ....|--- .... ....
....|..|--- .... ....|--- .... ....|G#4 .FBF ....
....|..|--- .... ....|--- .... ....|--- .... ....
....|..|B-4 ...A ....|F#5 ...F ....|G#4 .FBF ....
....|..|B-4 ...A ....|R-- .... ....|--- .... ....
....|..|--- .... ....|G#5 ...F ....|G#4 .FBF ....
....|..|--- .... ....|--- .... ....|--- .... ....

[Pattern39]
....|..|--- .... ....|--- .... ....|B-4 .FCF ....
....|..|--- .... ....|--- .... ....|--- .... ....
....|..|--- .... ....|--- .... ....|G#4 .FBF ....
....|..|--- .... ....|R-- .... ....|--- .... ....
....|..|--- .... ....|F#5 ...F ....|G#4 .FBF ....
....|..|R-- .... ....|--- .... ....|--- .... ....
....|..|--- .... ....|--- .... ....|G#4 .FBF ....
....|..|--- .... ....|R-- .... ....|--- .... ....
....|..|B-4 ...7 ....|F-5 ...F ....|G#4 .FBF ....
....|..|B-4 ...7 ....|R-- .... ....|--- .... ....
....|..|--- .... ....|D#5 ...F ....|G#4 .FBF ....
....|..|--- .... ....|--- .... ....|--- .... ....
....|..|--- .... ....|--- .... ....|G#4 .FBF ....
....|..|R-- .... ....|R-- .... ....|--- .... ....
....|..|--- .... ....|C#5 ...F ....|G#4 .FBF ....
....|..|--- .... ....|R-- .... ....|--- .... ....
....|..|A#4 ...F ....|F-5 ...7 ....|F-4 .F9F ....
....|..|A#4 ...F ....|--- .... ....|--- .... ....
....|..|--- .... ....|--- .... ....|G#4 .FB7 ....
....|..|--- .... ....|R-- .... ....|--- .... ....
....|..|--- .... ....|F#5 ...7 ....|F-4 .F9F ....
....|..|--- .... ....|R-- .... ....|--- .... ....
....|..|--- .... ....|G#5 ...7 ....|F-4 .F9F ....
....|..|--- .... ....|--- .... ....|--- .... ....
....|..|--- .... ....|--- .... ....|A#4 .F1F ....
....|..|R-- .... ....|R-- .... ....|--- .... ....
....|..|--- .... ....|C#5 ...A ....|F-4 .F9F ....
....|..|--- .... ....|R-- .... ....|--- .... ....
....|..|A#4 ...A ....|F#5 ...7 ....|F-4 .F9F ....
....|..|A#4 ...A ....|--- .... ....|--- .... ....
....|..|--- .... ....|--- .... ....|F-4 .F9F ....
....|..|--- .... ....|R-- .... ....|--- .... ....
....|..|--- .... ....|F-5 ...7 ....|A#4 .F1F ....
....|..|--- .... ....|R-- .... ....|--- .... ....
....|..|--- .... ....|D#5 ...7 ....|F-4 .F9F ....
....|..|--- .... ....|--- .... ....|--- .... ....
....|..|--- .... ....|R-- .... ....|F-4 .F9F ....
....|..|R-- .... ....|R-- .... ....|--- .... ....
....|..|--- .... ....|C#5 ...7 ....|F-4 .F9F ....
....|..|--- .... ....|--- .... ....|--- .... ....
....|..|A#4 ...7 ....|A#4 ...F ....|F-4 .F9F ....
....|..|A#4 ...7 ....|R-- .... ....|--- .... ....
....|..|--- .... ....|C#5 ...F ....|F-4 .F9F ....
....|..|--- .... ....|--- .... ....|--- .... ....
....|..|--- .... ....|--- .... ....|F-4 .F9F ....
....|..|R-- .... ....|--- .... ....|--- .... ....
....|..|--- .... ....|--- .... ....|F-4 .F9F ....
....|..|--- .... ....|--- .... ....|--- .... ....

[Pattern40]
....|..|A#4 ...F ....|D#5 ...F ....|F#4 .FDF ....
....|..|A#4 ...F ....|--- .... ....|--- .... ....
....|..|--- .... ....|--- .... ....|F-4 .F97 ....
....|..|--- .... ....|--- .... ....|--- .... ....
....|..|--- .... ....|A#4 ...A ....|F#4 .FDF ....
....|..|--- .... ....|R-- .... ....|--- .... ....
....|..|--- .... ....|C#5 ...A ....|F#4 .FDF ....
....|..|--- .... ....|--- .... ....|--- .... ....
....|..|--- .... ....|--- .... ....|A#4 .F6F ....
....|..|R-- .... ....|--- .... ....|--- .... ....
....|..|--- .... ....|--- .... ....|F#4 .FDF ....
....|..|--- .... ....|--- .... ....|--- .... ....
....|..|A#4 ...A ....|R-- .... ....|F#4 .FDF ....
....|..|A#4 ...A ....|--- .... ....|--- .... ....
....|..|--- .... ....|--- .... ....|F#4 .FDF ....
....|..|--- .... ....|--- .... ....|--- .... ....
....|..|--- .... ....|A#4 ...7 ....|A#4 .F6F ....
....|..|--- .... ....|R-- .... ....|--- .... ....
....|..|--- .... ....|C#5 ...7 ....|F#4 .FDF ....
....|..|--- .... ....|--- .... ....|--- .... ....
....|..|--- .... ....|--- .... ....|F#4 .FDF ....
....|..|R-- .... ....|--- .... ....|--- .... ....
....|..|--- .... ....|--- .... ....|F#4 .FDF ....
....|..|--- .... ....|--- .... ....|--- .... ....
....|..|A#4 ...7 ....|D#5 ...7 ....|F#4 .FDF ....
....|..|A#4 ...7 ....|--- .... ....|--- .... ....
....|..|--- .... ....|--- .... ....|F#4 .FDF ....
....|..|--- .... ....|R-- .... ....|--- .... ....
....|..|--- .... ....|C#5 ...F ....|F#4 .FDF ....
....|..|R-- .... ....|R-- .... ....|--- .... ....
....|..|--- .... ....|C#5 ...F ....|F#4 .FDF ....
....|..|--- .... ....|R-- .... ....|--- .... ....
....|..|F#4 ...F ....|C#5 ...F ....|F#4 .FFF ....
....|..|F#4 ...F ....|--- .... ....|--- .... ....
....|..|--- .... ....|B-4 ...F ....|F#4 .FD7 ....
....|..|--- .... ....|R-- .... ....|--- .... ....
....|..|--- .... ....|B-4 ...F ....|F#4 .FFF ....
....|..|--- .... ....|--- .... ....|--- .... ....
....|..|--- .... ....|--- .... ....|F#4 .FFF ....
....|..|--- .... ....|R-- .... ....|--- .... ....
....|..|--- .... ....|C#5 ...A ....|B-4 .FCF ....
....|..|R-- .... ....|R-- .... ....|--- .... ....
....|..|--- .... ....|C#5 ...A ....|F#4 .FFF ....
....|..|--- .... ....|R-- .... ....|--- .... ....
....|..|F#4 ...A ....|C#5 ...A ....|F#4 .FFF ....
....|..|F#4 ...A ....|--- .... ....|--- .... ....
....|..|--- .... ....|B-4 ...A ....|F#4 .FFF ....
....|..|--- .... ....|R-- .... ....|--- .... ....

[Pattern41]
....|..|--- .... ....|B-4 ...A ....|B-4 .FCF ....
....|..|--- .... ....|--- .... ....|--- .... ....
....|..|--- .... ....|--- .... ....|F#4 .FFF ....
....|..|--- .... ....|R-- .... ....|--- .... ....
....|..|--- .... ....|C#5 ...7 ....|F#4 .FFF ....
....|..|R-- .... ....|R-- .... ....|--- .... ....
....|..|--- .... ....|C#5 ...7 ....|F#4 .FFF ....
....|..|--- .... ....|R-- .... ....|--- .... ....
....|..|F#4 ...7 ....|C#5 ...7 ....|F#4 .FFF ....
....|..|F#4 ...7 ....|--- .... ....|--- .... ....
....|..|--- .... ....|B-4 ...7 ....|F#4 .FFF ....
....|..|--- .... ....|R-- .... ....|--- .... ....
....|..|--- .... ....|B-4 ...7 ....|F#4 .FFF ....
....|..|R-- .... ....|--- .... ....|--- .... ....
....|..|--- .... ....|--- .... ....|F#4 .FFF ....
....|..|--- .... ....|--- .... ....|--- .... ....
....|..|G#4 ...F ....|--- .... ....|G#4 .FBF ....
....|..|G#4 ...F ....|--- .... ....|--- .... ....
....|..|--- .... ....|R-- .... ....|F#4 .FF7 ....
....|..|--- .... ....|--- .... ....|--- .... ....
....|..|--- .... ....|--- .... ....|G#4 .FBF ....
....|..|--- .... ....|--- .... ....|--- .... ....
....|..|--- .... ....|--- .... ....|G#4 .FBF ....
....|..|--- .... ....|--- .... ....|--- .... ....
....|..|--- .... ....|A#4 ...F ....|B-4 .FCF ....
....|..|R-- .... ....|--- .... ....|--- .... ....
....|..|--- .... ....|--- .... ....|G#4 .FBF ....
....|..|--- .... ....|R-- .... ....|--- .... ....
....|..|G#4 ...A ....|B-4 ...F ....|G#4 .FBF ....
....|..|G#4 ...A ....|--- .... ....|--- .... ....
....|..|--- .... ....|R-- .... ....|G#4 .FBF ....
....|..|--- .... ....|R-- .... ....|--- .... ....
....|..|--- .... ....|A#5 ...F ....|B-4 .FCF ....
....|..|--- .... ....|--- .... ....|--- .... ....
....|..|--- .... ....|R-- .... ....|G#4 .FBF ....
....|..|--- .... ....|--- .... ....|--- .... ....
....|..|--- .... ....|A#5 ...F ....|G#4 .FBF ....
....|..|R-- .... ....|--- .... ....|--- .... ....
....|..|--- .... ....|R-- .... ....|G#4 .FBF ....
....|..|--- .... ....|R-- .... ....|--- .... ....
....|..|G#4 ...7 ....|G#5 ...F ....|G#4 .FBF ....
....|..|G#4 ...7 ....|R-- .... ....|--- .... ....
....|..|--- .... ....|F#5 ...F ....|G#4 .FBF ....
....|..|--- .... ....|R-- .... ....|--- .... ....
....|..|--- .... ....|A#5 ...A ....|G#4 .FBF ....
....|..|R-- .... ....|--- .... ....|--- .... ....
....|..|--- .... ....|R-- .... ....|G#4 .FBF ....
....|..|--- .... ....|R-- .... ....|--- .... ....

[Pattern42]
....|..|G#4 ...F ....|G#5 ...F ....|F-4 .FEF ....
....|..|G#4 ...F ....|--- .... ....|--- .... ....
....|..|--- .... ....|R-- .... ....|G#4 .FB7 ....
....|..|--- .... ....|R-- .... ....|--- .... ....
....|..|--- .... ....|B-4 ...7 ....|F-4 .FEF ....
....|..|--- .... ....|R-- .... ....|--- .... ....
....|..|--- .... ....|F#5 ...A ....|F-4 .FEF ....
....|..|--- .... ....|R-- .... ....|--- .... ....
....|..|--- .... ....|A#5 ...7 ....|G#4 .F6F ....
....|..|R-- .... ....|--- .... ....|--- .... ....
....|..|--- .... ....|R-- .... ....|F-4 .FEF ....
....|..|--- .... ....|R-- .... ....|--- .... ....
....|..|G#4 ...A ....|A#5 ...7 ....|F-4 .FEF ....
....|..|G#4 ...A ....|--- .... ....|--- .... ....
....|..|--- .... ....|R-- .... ....|F-4 .FEF ....
....|..|--- .... ....|R-- .... ....|--- .... ....
....|..|--- .... ....|G#5 ...7 ....|G#4 .F6F ....
....|..|--- .... ....|R-- .... ....|--- .... ....
....|..|--- .... ....|F#5 ...7 ....|F-4 .FEF ....
....|..|--- .... ....|--- .... ....|--- .... ....
....|..|--- .... ....|D#5 ...F ....|F-4 .FEF ....
....|..|R-- .... ....|--- .... ....|--- .... ....
....|..|--- .... ....|--- .... ....|F-4 .FEF ....
....|..|--- .... ....|R-- .... ....|--- .... ....
....|..|G#4 ...7 ....|F#5 ...F ....|F-4 .FEF ....
....|..|G#4 ...7 ....|--- .... ....|--- .... ....
....|..|--- .... ....|--- .... ....|F-4 .FEF ....
....|..|--- .... ....|R-- .... ....|--- .... ....
....|..|--- .... ....|G#5 ...F ....|F-4 .FEF ....
....|..|R-- .... ....|--- .... ....|--- .... ....
....|..|--- .... ....|--- .... ....|F-4 .FEF ....
....|..|--- .... ....|--- .... ....|--- .... ....
....|..|C#4 ...F ....|D#5 ...A ....|F-4 .FEF ....
....|..|--- .... ....|--- .... ....|--- .... ....
....|..|--- .... ....|--- .... ....|F-4 .FE7 ....
....|..|--- .... ....|R-- .... ....|--- .... ....
....|..|--- .... ....|A#5 ...F ....|F-4 .FEF ....
....|..|--- .... ....|--- .... ....|--- .... ....
....|..|D#4 ...F ....|--- .... ....|F-4 .FEF ....
....|..|--- .... ....|R-- .... ....|--- .... ....
....|..|--- .... ....|G#5 ...A ....|G#4 .F6F ....
....|..|R-- .... ....|--- .... ....|--- .... ....
....|..|--- .... ....|--- .... ....|F-4 .FEF ....
....|..|--- .... ....|R-- .... ....|--- .... ....
....|..|F#4 ...F ....|G#5 ...F ....|F-4 .FEF ....
....|..|--- .... ....|--- .... ....|--- .... ....
....|..|--- .... ....|--- .... ....|F-4 .FEF ....
....|..|--- .... ....|R-- .... ....|--- .... ....

[Pattern43]
....|..|--- .... ....|F#5 ...7 ....|G#4 .F6F ....
....|..|--- .... ....|--- .... ....|--- .... ....
....|..|G#4 ...F ....|--- .... ....|F-4 .FEF ....
....|..|--- .... ....|R-- .... ....|--- .... ....
....|..|--- .... ....|G#5 ...7 ....|F-4 .FEF ....
....|..|R-- .... ....|--- .... ....|--- .... ....
....|..|--- .... ....|--- .... ....|F-4 .FEF ....
....|..|--- .... ....|R-- .... ....|--- .... ....
....|..|A#4 ...F ....|G#5 ...A ....|F-4 .FEF ....
....|..|--- .... ....|--- .... ....|--- .... ....
....|..|R-- .... ....|--- .... ....|F-4 .FEF ....
....|..|--- .... ....|R-- .... ....|--- .... ....
....|..|C#5 ...F ....|A#5 ...7 ....|F-4 .FEF ....
....|..|--- .... ....|--- .... ....|--- .... ....
....|..|D#4 ...7 ....|--- .... ....|F-4 .FEF ....
....|..|--- .... ....|--- .... ....|--- .... ....
....|..|D#5 ...F ....|--- .... ....|F-4 .FEF ....
....|..|--- .... ....|--- .... ....|--- .... ....
....|..|--- .... ....|--- .... ....|F-4 .FE7 ....
....|..|--- .... ....|R-- .... ....|--- .... ....
....|..|F#4 ...7 ....|G#5 ...7 ....|F-4 .FEF ....
....|..|--- .... ....|--- .... ....|--- .... ....
....|..|F#5 ...F ....|--- .... ....|F-4 .FEF ....
....|..|--- .... ....|--- .... ....|--- .... ....
....|..|C#5 ...A ....|--- .... ....|G#4 .F6F ....
....|..|--- .... ....|--- .... ....|--- .... ....
....|..|G#4 ...7 ....|--- .... ....|F-4 .FEF ....
....|..|--- .... ....|--- .... ....|--- .... ....
....|..|G#5 ...F ....|--- .... ....|F-4 .FEF ....
....|..|--- .... ....|--- .... ....|--- .... ....
....|..|--- .... ....|--- .... ....|F-4 .FEF ....
....|..|--- .... ....|--- .... ....|--- .... ....
....|..|A#4 ...7 ....|--- .... ....|G#4 .F6F ....
....|..|--- .... ....|--- .... ....|--- .... ....
....|..|A#5 ...F ....|R-- .... ....|F-4 .FEF ....
....|..|--- .... ....|--- .... ....|--- .... ....
....|..|C#5 ...7 ....|--- .... ....|F-4 .FEF ....
....|..|--- .... ....|--- .... ....|--- .... ....
....|..|R-- .... ....|--- .... ....|F-4 .FEF ....
....|..|--- .... ....|--- .... ....|--- .... ....
....|..|C#6 ...F ....|--- .... ....|F-4 .FEF ....
....|..|--- .... ....|--- .... ....|--- .... ....
....|..|R-- .... ....|--- .... ....|F-4 .FEF ....
....|..|--- .... ....|--- .... ....|--- .... ....
....|..|D-6 ...F ....|--- .... ....|F-4 .FEF ....
....|..|--- .... ....|--- .... ....|--- .... ....
....|..|F#5 ...7 ....|R-- .... ....|F-4 .FEF ....
....|..|--- .... ....|--- .... ....|--- .... ....

[Pattern44]
....|..|D#6 ...F ....|--- .... ....|A#3 .F.F ....
....|..|--- .... ....|--- .... ....|A#3 .F9F ....
....|..|--- .... ....|--- .... ....|A#3 .F9F ....
....|..|--- .... ....|--- .... ....|--- .... ....
....|..|G#5 ...7 ....|--- .... ....|F-4 .FE7 ....
....|..|--- .... ....|--- .... ....|--- .... ....
....|..|R-- .... ....|--- .... ....|F-4 .FE7 ....
....|..|--- .... ....|--- .... ....|--- .... ....
....|..|D-6 ...A ....|F#5 ...F ....|G#4 .F67 ....
....|..|--- .... ....|--- .... ....|--- .... ....
....|..|A#5 ...7 ....|R-- .... ....|F-4 .FE7 ....
....|..|--- .... ....|--- .... ....|--- .... ....
....|..|D#6 ...A ....|F-5 ...F ....|F-4 .FE7 ....
....|..|--- .... ....|--- .... ....|A#3 .F9A ....
....|..|--- .... ....|--- .... ....|F-4 .FE7 ....
....|..|--- .... ....|R-- .... ....|--- .... ....
....|..|C#6 ...7 ....|F#5 ...F ....|F-4 .FE7 ....
....|..|--- .... ....|--- .... ....|--- .... ....
....|..|R-- .... ....|--- .... ....|F-4 .FE7 ....
....|..|--- .... ....|--- .... ....|--- .... ....
....|..|D-6 ...7 ....|F-5 ...F ....|F-4 .FE7 ....
....|..|--- .... ....|--- .... ....|--- .... ....
....|..|R-- .... ....|--- .... ....|F-4 .FE7 ....
....|..|--- .... ....|--- .... ....|--- .... ....
....|..|D#6 ...7 ....|C#5 ...F ....|A#3 .F.7 ....
....|..|--- .... ....|--- .... ....|A#3 .F97 ....
....|..|--- .... ....|--- .... ....|A#3 .F97 ....
....|..|--- .... ....|R-- .... ....|--- .... ....
....|..|--- .... ....|A#4 ...F ....|--- .... ....
....|..|--- .... ....|--- .... ....|--- .... ....
....|..|--- .... ....|--- .... ....|A#3 .F6F ....
....|..|--- .... ....|--- .... ....|R-- .... ....
....|..|F#4 ...F ....|C#5 ...F ....|B-3 .FCF ....
....|..|B-4 ...F ....|--- .... ....|B-3 .FAF ....
....|..|--- .... ....|--- .... ....|--- .... ....
....|..|--- .... ....|--- .... ....|--- .... ....
....|..|--- .... ....|D#5 ...F ....|--- .... ....
....|..|--- .... ....|--- .... ....|--- .... ....
....|..|--- .... ....|--- .... ....|--- .... ....
....|..|--- .... ....|R-- .... ....|--- .... ....
....|..|--- .... ....|F#5 ...7 ....|--- .... ....
....|..|--- .... ....|--- .... ....|--- .... ....
....|..|--- .... ....|--- .... ....|A#3 .F6A ....
....|..|--- .... ....|R-- .... ....|R-- .... ....
....|..|F#4 ...A ....|D#5 ...F ....|B-3 .FCA ....
....|..|B-4 ...A ....|--- .... ....|B-3 .FAA ....
....|..|--- .... ....|--- .... ....|--- .... ....
....|..|--- .... ....|--- .... ....|--- .... ....

[Pattern45]
....|..|--- .... ....|C#5 ...7 ....|--- .... ....
....|..|--- .... ....|--- .... ....|--- .... ....
....|..|--- .... ....|--- .... ....|--- .... ....
....|..|--- .... ....|--- .... ....|--- .... ....
....|..|--- .... ....|A#4 ...7 ....|--- .... ....
....|..|--- .... ....|--- .... ....|--- .... ....
....|..|--- .... ....|--- .... ....|A#3 .F67 ....
....|..|--- .... ....|R-- .... ....|R-- .... ....
....|..|F#4 ...7 ....|C#5 ...7 ....|B-3 .FC7 ....
....|..|B-4 ...7 ....|--- .... ....|B-3 .FA7 ....
....|..|--- .... ....|--- .... ....|--- .... ....
....|..|--- .... ....|--- .... ....|--- .... ....
....|..|--- .... ....|D#5 ...7 ....|--- .... ....
....|..|R-- .... ....|R-- .... ....|--- .... ....
....|..|--- .... ....|--- .... ....|B-3 .F.F ....
....|..|--- .... ....|--- .... ....|R-- .... ....
....|..|F#4 ...F ....|--- .... ....|A#3 .F.F ....
....|..|A#4 ...F ....|--- .... ....|A#3 .F9F ....
....|..|--- .... ....|--- .... ....|A#3 .F9F ....
....|..|--- .... ....|R-- .... ....|--- .... ....
....|..|--- .... ....|D#5 ...7 ....|--- .... ....
....|..|--- .... ....|--- .... ....|--- .... ....
....|..|--- .... ....|--- .... ....|--- .... ....
....|..|--- .... ....|--- .... ....|--- .... ....
....|..|--- .... ....|F#5 ...F ....|--- .... ....
....|..|R-- .... ....|R-- .... ....|--- .... ....
....|..|--- .... ....|--- .... ....|B-3 .F.A ....
....|..|--- .... ....|--- .... ....|R-- .... ....
....|..|F#4 ...A ....|F-5 ...F ....|A#3 .F.A ....
....|..|A#4 ...A ....|R-- .... ....|A#3 .F9A ....
....|..|--- .... ....|F#5 ...F ....|A#3 .F9A ....
....|..|--- .... ....|--- .... ....|--- .... ....
....|..|--- .... ....|--- .... ....|--- .... ....
....|..|--- .... ....|--- .... ....|--- .... ....
....|..|--- .... ....|--- .... ....|--- .... ....
....|..|--- .... ....|--- .... ....|--- .... ....
....|..|--- .... ....|F-5 ...F ....|--- .... ....
....|..|R-- .... ....|R-- .... ....|--- .... ....
....|..|--- .... ....|--- .... ....|B-3 .F.7 ....
....|..|--- .... ....|--- .... ....|R-- .... ....
....|..|F#4 ...7 ....|C#5 ...F ....|A#3 .F.7 ....
....|..|A#4 ...7 ....|R-- .... ....|A#3 .F97 ....
....|..|--- .... ....|F#5 ...A ....|A#3 .F97 ....
....|..|--- .... ....|--- .... ....|--- .... ....
....|..|--- .... ....|A#4 ...F ....|--- .... ....
....|..|R-- .... ....|--- .... ....|--- .... ....
....|..|--- .... ....|--- .... ....|A#3 .F6F ....
....|..|--- .... ....|R-- .... ....|R-- .... ....

[Pattern46]
....|..|F#4 ...F ....|C#5 ...F ....|B-3 .FCF ....
....|..|B-4 ...F ....|--- .... ....|B-3 .FAF ....
....|..|--- .... ....|--- .... ....|--- .... ....
....|..|--- .... ....|--- .... ....|--- .... ....
....|..|--- .... ....|D#5 ...F ....|--- .... ....
....|..|--- .... ....|R-- .... ....|--- .... ....
....|..|--- .... ....|F#5 ...7 ....|--- .... ....
....|..|--- .... ....|--- .... ....|--- .... ....
....|..|--- .... ....|A#4 ...A ....|--- .... ....
....|..|R-- .... ....|--- .... ....|--- .... ....
....|..|--- .... ....|--- .... ....|A#3 .F6A ....
....|..|--- .... ....|R-- .... ....|R-- .... ....
....|..|F#4 ...A ....|D#5 ...F ....|B-3 .FCA ....
....|..|B-4 ...A ....|--- .... ....|B-3 .FAA ....
....|..|--- .... ....|--- .... ....|--- .... ....
....|..|--- .... ....|--- .... ....|--- .... ....
....|..|--- .... ....|C#5 ...7 ....|--- .... ....
....|..|--- .... ....|--- .... ....|--- .... ....
....|..|--- .... ....|--- .... ....|--- .... ....
....|..|--- .... ....|--- .... ....|--- .... ....
....|..|--- .... ....|A#4 ...7 ....|--- .... ....
....|..|R-- .... ....|--- .... ....|--- .... ....
....|..|--- .... ....|--- .... ....|A#3 .F67 ....
....|..|--- .... ....|R-- .... ....|R-- .... ....
....|..|F#4 ...7 ....|C#5 ...7 ....|B-3 .FC7 ....
....|..|B-4 ...7 ....|--- .... ....|B-3 .FA7 ....
....|..|--- .... ....|--- .... ....|--- .... ....
....|..|--- .... ....|--- .... ....|--- .... ....
....|..|--- .... ....|D#5 ...7 ....|--- .... ....
....|..|R-- .... ....|R-- .... ....|--- .... ....
....|..|--- .... ....|--- .... ....|B-3 .F.F ....
....|..|--- .... ....|--- .... ....|R-- .... ....
....|..|B-4 ...F ....|--- .... ....|F#4 .FFF ....
....|..|B-4 ...F ....|--- .... ....|--- .... ....
....|..|--- .... ....|--- .... ....|--- .... ....
....|..|--- .... ....|R-- .... ....|--- .... ....
....|..|--- .... ....|D#5 ...7 ....|F#4 .FFF ....
....|..|--- .... ....|--- .... ....|--- .... ....
....|..|--- .... ....|--- .... ....|F#4 .FFF ....
....|..|--- .... ....|--- .... ....|--- .... ....
....|..|--- .... ....|D#5 ...F ....|B-4 .FCF ....
....|..|R-- .... ....|R-- .... ....|--- .... ....
....|..|--- .... ....|--- .... ....|F#4 .FFF ....
....|..|--- .... ....|R-- .... ....|R-- .... ....
....|..|B-4 ...A ....|F-5 ...F ....|F#4 .FFF ....
....|..|B-4 ...A ....|--- .... ....|--- .... ....
....|..|--- .... ....|--- .... ....|F#4 .FFF ....
....|..|--- .... ....|R-- .... ....|--- .... ....

[Pattern47]
....|..|--- .... ....|F#5 ...F ....|B-4 .FCF ....
....|..|--- .... ....|--- .... ....|--- .... ....
....|..|--- .... ....|--- .... ....|F#4 .FFF ....
....|..|--- .... ....|--- .... ....|--- .... ....
....|..|--- .... ....|F-5 ...F ....|F#4 .FFF ....
....|..|R-- .... ....|R-- .... ....|--- .... ....
....|..|--- .... ....|D#5 ...F ....|F#4 .FFF ....
....|..|--- .... ....|R-- .... ....|R-- .... ....
....|..|B-4 ...7 ....|F-5 ...A ....|F#4 .FFF ....
....|..|B-4 ...7 ....|--- .... ....|--- .... ....
....|..|--- .... ....|--- .... ....|F#4 .FFF ....
....|..|--- .... ....|R-- .... ....|--- .... ....
....|..|--- .... ....|F#5 ...A ....|F#4 .FFF ....
....|..|R-- .... ....|--- .... ....|--- .... ....
....|..|--- .... ....|R-- .... ....|F#4 .FFF ....
....|..|--- .... ....|--- .... ....|--- .... ....
....|..|B-4 ...F ....|D#5 ...7 ....|G#4 .FBF ....
....|..|B-4 ...F ....|R-- .... ....|--- .... ....
....|..|--- .... ....|D#5 ...A ....|F#4 .FF7 ....
....|..|--- .... ....|R-- .... ....|--- .... ....
....|..|--- .... ....|F-5 ...7 ....|G#4 .FBF ....
....|..|--- .... ....|--- .... ....|--- .... ....
....|..|--- .... ....|--- .... ....|G#4 .FBF ....
....|..|--- .... ....|R-- .... ....|--- .... ....
....|..|--- .... ....|F-5 ...F ....|B-4 .FCF ....
....|..|R-- .... ....|--- .... ....|--- .... ....
....|..|--- .... ....|R-- .... ....|G#4 .FBF ....
....|..|--- .... ....|--- .... ....|--- .... ....
....|..|B-4 ...A ....|F#5 ...F ....|G#4 .FBF ....
....|..|B-4 ...A ....|R-- .... ....|--- .... ....
....|..|--- .... ....|G#5 ...F ....|G#4 .FBF ....
....|..|--- .... ....|--- .... ....|--- .... ....
....|..|--- .... ....|--- .... ....|B-4 .FCF ....
....|..|--- .... ....|--- .... ....|--- .... ....
....|..|--- .... ....|--- .... ....|G#4 .FBF ....
....|..|--- .... ....|--- .... ....|--- .... ....
....|..|--- .... ....|F#5 ...F ....|G#4 .FBF ....
....|..|R-- .... ....|--- .... ....|--- .... ....
....|..|--- .... ....|R-- .... ....|G#4 .FBF ....
....|..|--- .... ....|--- .... ....|--- .... ....
....|..|B-4 ...7 ....|F-5 ...F ....|G#4 .FBF ....
....|..|B-4 ...7 ....|R-- .... ....|--- .... ....
....|..|--- .... ....|D#5 ...F ....|G#4 .FBF ....
....|..|--- .... ....|--- .... ....|--- .... ....
....|..|--- .... ....|--- .... ....|G#4 .FBF ....
....|..|R-- .... ....|R-- .... ....|--- .... ....
....|..|--- .... ....|C#5 ...F ....|G#4 .FBF ....
....|..|--- .... ....|--- .... ....|--- .... ....

[Pattern48]
....|..|A#4 ...F ....|F-5 ...7 ....|F-4 .F9F ....
....|..|A#4 ...F ....|--- .... ....|--- .... ....
....|..|--- .... ....|--- .... ....|G#4 .FB7 ....
....|..|--- .... ....|--- .... ....|--- .... ....
....|..|--- .... ....|F#5 ...7 ....|F-4 .F9F ....
....|..|--- .... ....|R-- .... ....|--- .... ....
....|..|--- .... ....|G#5 ...7 ....|F-4 .F9F ....
....|..|--- .... ....|--- .... ....|--- .... ....
....|..|--- .... ....|--- .... ....|A#4 .F1F ....
....|..|R-- .... ....|R-- .... ....|--- .... ....
....|..|--- .... ....|C#5 ...A ....|F-4 .F9F ....
....|..|--- .... ....|--- .... ....|--- .... ....
....|..|A#4 ...A ....|F#5 ...7 ....|F-4 .F9F ....
....|..|A#4 ...A ....|--- .... ....|--- .... ....
....|..|--- .... ....|--- .... ....|F-4 .F9F ....
....|..|--- .... ....|--- .... ....|--- .... ....
....|..|--- .... ....|F-5 ...7 ....|A#4 .F1F ....
....|..|--- .... ....|R-- .... ....|--- .... ....
....|..|--- .... ....|D#5 ...7 ....|F-4 .F9F ....
....|..|--- .... ....|R-- .... ....|--- .... ....
....|..|--- .... ....|--- .... ....|F-4 .F9F ....
....|..|R-- .... ....|R-- .... ....|--- .... ....
....|..|--- .... ....|C#5 ...7 ....|F-4 .F9F ....
....|..|--- .... ....|--- .... ....|--- .... ....
....|..|A#4 ...7 ....|A#4 ...F ....|F-4 .F9F ....
....|..|A#4 ...7 ....|R-- .... ....|--- .... ....
....|..|--- .... ....|C#5 ...F ....|F-4 .F9F ....
....|..|--- .... ....|--- .... ....|--- .... ....
....|..|--- .... ....|--- .... ....|F-4 .F9F ....
....|..|R-- .... ....|--- .... ....|--- .... ....
....|..|--- .... ....|R-- .... ....|F-4 .F9F ....
....|..|--- .... ....|R-- .... ....|--- .... ....
....|..|A#4 ...F ....|D#5 ...F ....|F#4 .FDF ....
....|..|A#4 ...F ....|--- .... ....|--- .... ....
....|..|--- .... ....|--- .... ....|F-4 .F97 ....
....|..|--- .... ....|--- .... ....|--- .... ....
....|..|--- .... ....|A#4 ...A ....|F#4 .FDF ....
....|..|--- .... ....|R-- .... ....|--- .... ....
....|..|--- .... ....|C#5 ...A ....|F#4 .FDF ....
....|..|--- .... ....|--- .... ....|--- .... ....
....|..|--- .... ....|--- .... ....|A#4 .F6F ....
....|..|R-- .... ....|--- .... ....|--- .... ....
....|..|--- .... ....|R-- .... ....|F#4 .FDF ....
....|..|--- .... ....|R-- .... ....|--- .... ....
....|..|A#4 ...A ....|D#5 ...A ....|F#4 .FDF ....
....|..|A#4 ...A ....|--- .... ....|--- .... ....
....|..|--- .... ....|--- .... ....|F#4 .FDF ....
....|..|--- .... ....|--- .... ....|--- .... ....

[Pattern49]
....|..|--- .... ....|A#4 ...7 ....|A#4 .F6F ....
....|..|--- .... ....|R-- .... ....|--- .... ....
....|..|--- .... ....|C#5 ...7 ....|F#4 .FDF ....
....|..|--- .... ....|--- .... ....|--- .... ....
....|..|--- .... ....|--- .... ....|F#4 .FDF ....
....|..|R-- .... ....|--- .... ....|--- .... ....
....|..|--- .... ....|R-- .... ....|F#4 .FDF ....
....|..|--- .... ....|R-- .... ....|--- .... ....
....|..|A#4 ...7 ....|D#5 ...7 ....|F#4 .FDF ....
....|..|A#4 ...7 ....|--- .... ....|--- .... ....
....|..|--- .... ....|--- .... ....|F#4 .FDF ....
....|..|--- .... ....|--- .... ....|--- .... ....
....|..|--- .... ....|C#5 ...F ....|F#4 .FDF ....
....|..|R-- .... ....|R-- .... ....|--- .... ....
....|..|--- .... ....|C#5 ...F ....|F#4 .FDF ....
....|..|--- .... ....|R-- .... ....|--- .... ....
....|..|F#4 ...F ....|C#5 ...F ....|F#4 .FFF ....
....|..|F#4 ...F ....|--- .... ....|--- .... ....
....|..|--- .... ....|B-4 ...F ....|F#4 .FD7 ....
....|..|--- .... ....|R-- .... ....|--- .... ....
....|..|--- .... ....|B-4 ...F ....|F#4 .FFF ....
....|..|--- .... ....|--- .... ....|--- .... ....
....|..|--- .... ....|--- .... ....|F#4 .FFF ....
....|..|--- .... ....|--- .... ....|--- .... ....
....|..|--- .... ....|C#5 ...A ....|B-4 .FCF ....
....|..|R-- .... ....|R-- .... ....|--- .... ....
....|..|--- .... ....|C#5 ...A ....|F#4 .FFF ....
....|..|--- .... ....|R-- .... ....|--- .... ....
....|..|F#4 ...A ....|C#5 ...A ....|F#4 .FFF ....
....|..|F#4 ...A ....|--- .... ....|--- .... ....
....|..|--- .... ....|B-4 ...A ....|F#4 .FFF ....
....|..|--- .... ....|R-- .... ....|--- .... ....
....|..|--- .... ....|B-4 ...A ....|B-4 .FCF ....
....|..|--- .... ....|--- .... ....|--- .... ....
....|..|--- .... ....|--- .... ....|F#4 .FFF ....
....|..|--- .... ....|--- .... ....|--- .... ....
....|..|--- .... ....|C#5 ...7 ....|F#4 .FFF ....
....|..|R-- .... ....|R-- .... ....|--- .... ....
....|..|--- .... ....|C#5 ...7 ....|F#4 .FFF ....
....|..|--- .... ....|R-- .... ....|--- .... ....
....|..|F#4 ...7 ....|C#5 ...7 ....|F#4 .FFF ....
....|..|F#4 ...7 ....|--- .... ....|--- .... ....
....|..|--- .... ....|B-4 ...7 ....|F#4 .FFF ....
....|..|--- .... ....|R-- .... ....|--- .... ....
....|..|--- .... ....|B-4 ...7 ....|F#4 .FFF ....
....|..|R-- .... ....|--- .... ....|--- .... ....
....|..|--- .... ....|--- .... ....|F#4 .FFF ....
....|..|--- .... ....|R-- .... ....|--- .... ....

[Pattern50]
....|..|G#4 ...F ....|--- .... ....|G#4 .FBF ....
....|..|G#4 ...F ....|--- .... ....|--- .... ....
....|..|--- .... ....|--- .... ....|F#4 .FF7 ....
....|..|--- .... ....|--- .... ....|--- .... ....
....|..|--- .... ....|--- .... ....|G#4 .FBF ....
....|..|--- .... ....|--- .... ....|--- .... ....
....|..|--- .... ....|--- .... ....|G#4 .FBF ....
....|..|--- .... ....|--- .... ....|--- .... ....
....|..|--- .... ....|A#4 ...F ....|B-4 .FCF ....
....|..|R-- .... ....|--- .... ....|--- .... ....
....|..|--- .... ....|--- .... ....|G#4 .FBF ....
....|..|--- .... ....|R-- .... ....|--- .... ....
....|..|G#4 ...A ....|B-4 ...F ....|G#4 .FBF ....
....|..|G#4 ...A ....|--- .... ....|--- .... ....
....|..|--- .... ....|--- .... ....|G#4 .FBF ....
....|..|--- .... ....|R-- .... ....|--- .... ....
....|..|--- .... ....|A#5 ...F ....|B-4 .FCF ....
....|..|--- .... ....|--- .... ....|--- .... ....
....|..|--- .... ....|R-- .... ....|G#4 .FBF ....
....|..|--- .... ....|--- .... ....|--- .... ....
....|..|--- .... ....|A#5 ...F ....|G#4 .FBF ....
....|..|R-- .... ....|R-- .... ....|--- .... ....
....|..|--- .... ....|--- .... ....|G#4 .FBF ....
....|..|--- .... ....|R-- .... ....|--- .... ....
....|..|G#4 ...7 ....|G#5 ...F ....|G#4 .FBF ....
....|..|G#4 ...7 ....|R-- .... ....|--- .... ....
....|..|--- .... ....|F#5 ...F ....|G#4 .FBF ....
....|..|--- .... ....|R-- .... ....|--- .... ....
....|..|--- .... ....|A#5 ...A ....|G#4 .FBF ....
....|..|R-- .... ....|--- .... ....|--- .... ....
....|..|--- .... ....|R-- .... ....|G#4 .FBF ....
....|..|--- .... ....|R-- .... ....|--- .... ....
....|..|G#4 ...F ....|G#5 ...F ....|F-4 .FEF ....
....|..|--- .... ....|R-- .... ....|--- .... ....
....|..|--- .... ....|--- .... ....|G#4 .FB7 ....
....|..|--- .... ....|R-- .... ....|--- .... ....
....|..|B-4 ...F ....|B-4 ...7 ....|F-4 .FEF ....
....|..|--- .... ....|R-- .... ....|--- .... ....
....|..|--- .... ....|F#5 ...A ....|F-4 .FEF ....
....|..|--- .... ....|R-- .... ....|--- .... ....
....|..|D#5 ...F ....|A#5 ...7 ....|G#4 .F6F ....
....|..|R-- .... ....|--- .... ....|--- .... ....
....|..|--- .... ....|R-- .... ....|F-4 .FEF ....
....|..|--- .... ....|R-- .... ....|--- .... ....
....|..|D#5 ...F ....|A#5 ...7 ....|F-4 .FEF ....
....|..|--- .... ....|R-- .... ....|--- .... ....
....|..|--- .... ....|--- .... ....|F-4 .FEF ....
....|..|R-- .... ....|--- .... ....|--- .... ....

[Pattern51]
....|..|C#5 ...F ....|A#5 ...F ....|F-4 .FEF ....
....|..|--- .... ....|R-- .... ....|--- .... ....
....|..|R-- .... ....|F#5 ...7 ....|F-4 .FEF ....
....|..|--- .... ....|R-- .... ....|F-4 .F.F ....
....|..|F#5 ...F ....|G#5 ...F ....|F-4 .FEF ....
....|..|R-- .... ....|--- .... ....|--- .... ....
....|..|--- .... ....|--- .... ....|G#4 .FB7 ....
....|..|--- .... ....|R-- .... ....|--- .... ....
....|..|G#4 ...7 ....|F#5 ...F ....|F-4 .FE7 ....
....|..|--- .... ....|--- .... ....|--- .... ....
....|..|--- .... ....|--- .... ....|F-4 .FEA ....
....|..|R-- .... ....|R-- .... ....|--- .... ....
....|..|B-4 ...7 ....|G#5 ...F ....|F-4 .FE7 ....
....|..|--- .... ....|--- .... ....|--- .... ....
....|..|R-- .... ....|--- .... ....|F-4 .FE7 ....
....|..|F#5 ...F ....|R-- .... ....|F-4 .F.A ....
....|..|D#5 ...7 ....|G#5 ...A ....|F#4 .F.F ....
....|..|--- .... ....|--- .... ....|--- .... ....
....|..|--- .... ....|--- .... ....|D#4 .F1F ....
....|..|--- .... ....|R-- .... ....|--- .... ....
....|..|D#5 ...7 ....|R-- .... ....|D#4 .F3F ....
....|..|--- .... ....|F#5 ...F ....|D#4 .F4F ....
....|..|--- .... ....|--- .... ....|D#4 .F5F ....
....|..|R-- .... ....|R-- .... ....|A#4 .F1F ....
....|..|C#5 ...7 ....|A#5 ...7 ....|F#4 .F.F ....
....|..|--- .... ....|--- .... ....|--- .... ....
....|..|R-- .... ....|--- .... ....|D#4 .F1F ....
....|..|F#5 ...A ....|R-- .... ....|F-4 .F.7 ....
....|..|F#5 ...7 ....|G#5 ...7 ....|D#4 .F3F ....
....|..|--- .... ....|--- .... ....|D#4 .F4F ....
....|..|--- .... ....|--- .... ....|D#4 .F5F ....
....|..|--- .... ....|R-- .... ....|A#4 .F1F ....
....|..|--- .... ....|F#5 ...7 ....|F#4 .F.F ....
....|..|--- .... ....|F#5 ...A ....|D#4 .F4A ....
....|..|--- .... ....|--- .... ....|C#4 .F6F ....
....|..|--- .... ....|R-- .... ....|A#4 .F1A ....
....|..|--- .... ....|G#5 ...7 ....|C#4 .F7F ....
....|..|--- .... ....|--- .... ....|D#4 .F.F ....
....|..|--- .... ....|--- .... ....|D#4 .F1F ....
....|..|F#5 ...7 ....|--- .... ....|F#4 .F.F ....
....|..|R-- .... ....|--- .... ....|F#4 .F8F ....
....|..|--- .... ....|--- .... ....|G#4 .F.F ....
....|..|--- .... ....|--- .... ....|G#4 .F8F ....
....|..|--- .... ....|--- .... ....|A#4 .F1A ....
....|..|--- .... ....|--- .... ....|A#4 .F1F ....
....|..|--- .... ....|F#5 ...7 ....|D#4 .F47 ....
....|..|--- .... ....|--- .... ....|A#4 .F1F ....
....|..|--- .... ....|--- .... ....|A#4 .F.F ....

[Pattern52]
....|..|--- .... ....|--- .... ....|F#4 .F.F ....
....|..|--- .... ....|--- .... ....|D#4 .F.A ....
....|..|--- .... ....|--- .... ....|D#4 .F1F ....
....|..|--- .... ....|--- .... ....|F#4 .F.A ....
....|..|--- .... ....|--- .... ....|D#4 .F2F ....
....|..|--- .... ....|--- .... ....|D#4 .F6F ....
....|..|--- .... ....|--- .... ....|D#4 .F9F ....
....|..|--- .... ....|--- .... ....|G#4 .F1F ....
....|..|--- .... ....|--- .... ....|C#5 .F.F ....
....|..|--- .... ....|--- .... ....|--- .... ....
....|..|--- .... ....|--- .... ....|B-4 .F8F ....
....|..|--- .... ....|--- .... ....|A#4 .F.A ....
....|..|--- .... ....|--- .... ....|G#4 .F2F ....
....|..|--- .... ....|--- .... ....|G#4 .F.F ....
....|..|--- .... ....|--- .... ....|G#4 .F1F ....
....|..|--- .... ....|--- .... ....|B-4 .F.F ....
....|..|--- .... ....|--- .... ....|C#5 .F.F ....
....|..|--- .... ....|--- .... ....|G#4 .F.7 ....
....|..|--- .... ....|--- .... ....|B-4 .F8F ....
....|..|--- .... ....|--- .... ....|G#4 .F1A ....
....|..|--- .... ....|--- .... ....|G#4 .F2F ....
....|..|--- .... ....|--- .... ....|G#4 .F.F ....
....|..|--- .... ....|--- .... ....|D#4 .F6F ....
....|..|--- .... ....|--- .... ....|D#4 .F.F ....
....|..|--- .... ....|--- .... ....|D#4 .F4F ....
....|..|--- .... ....|--- .... ....|C#5 .F.F ....
....|..|--- .... ....|--- .... ....|B-4 .F8F ....
....|..|--- .... ....|--- .... ....|B-4 .F.A ....
....|..|--- .... ....|--- .... ....|G#4 .F1F ....
....|..|--- .... ....|--- .... ....|D#4 .F67 ....
....|..|F#5 ...F ....|--- .... ....|D#4 .F6F ....
....|..|A#5 ...F ....|--- .... ....|D#4 .F.F ....
....|..|C#6 ...F ....|--- .... ....|F#4 .F.F ....
....|..|--- .... ....|--- .... ....|G#4 .F.A ....
....|..|--- .... ....|--- .... ....|D#4 .F1F ....
....|..|--- .... ....|--- .... ....|D#4 .F.A ....
....|..|--- .... ....|--- .... ....|D#4 .F3F ....
....|..|--- .... ....|--- .... ....|D#4 .F4F ....
....|..|--- .... ....|--- .... ....|D#4 .F5F ....
....|..|--- .... ....|--- .... ....|A#4 .F1F ....
....|..|--- .... ....|--- .... ....|F#4 .F.F ....
....|..|--- .... ....|--- .... ....|--- .... ....
....|..|F#5 ...A ....|--- .... ....|D#4 .F1F ....
....|..|A#5 ...A ....|--- .... ....|D#4 .F.A ....
....|..|C#6 ...A ....|--- .... ....|D#4 .F3F ....
....|..|--- .... ....|--- .... ....|D#4 .F4F ....
....|..|--- .... ....|--- .... ....|D#4 .F5F ....
....|..|--- .... ....|--- .... ....|A#4 .F1F ....

[Pattern53]
....|..|--- .... ....|--- .... ....|F#4 .F.F ....
....|..|--- .... ....|--- .... ....|C#5 .F.7 ....
....|..|--- .... ....|--- .... ....|C#4 .F6F ....
....|..|--- .... ....|--- .... ....|A#4 .F1A ....
....|..|--- .... ....|R-- .... ....|C#4 .F7F ....
....|..|--- .... ....|--- .... ....|D#4 .F.F ....
....|..|F#5 ...7 ....|--- .... ....|D#4 .F1F ....
....|..|A#5 ...7 ....|--- .... ....|F#4 .F.F ....
....|..|C#6 ...7 ....|--- .... ....|F#4 .F8F ....
....|..|--- .... ....|--- .... ....|G#4 .F.F ....
....|..|--- .... ....|--- .... ....|G#4 .F8F ....
....|..|--- .... ....|--- .... ....|A#4 .F1A ....
....|..|--- .... ....|--- .... ....|A#4 .F1F ....
....|..|--- .... ....|--- .... ....|D#4 .F47 ....
....|..|--- .... ....|--- .... ....|A#4 .F1F ....
....|..|--- .... ....|--- .... ....|A#4 .F.F ....
....|..|--- .... ....|R-- .... ....|F#4 .F.F ....
....|..|--- .... ....|--- .... ....|D#4 .F.A ....
....|..|--- .... ....|--- .... ....|D#4 .F1F ....
....|..|--- .... ....|--- .... ....|F#4 .F.A ....
....|..|--- .... ....|--- .... ....|D#4 .F2F ....
....|..|--- .... ....|--- .... ....|D#4 .F6F ....
....|..|--- .... ....|--- .... ....|D#4 .F9F ....
....|..|--- .... ....|--- .... ....|G#4 .F1F ....
....|..|--- .... ....|--- .... ....|C#5 .F.F ....
....|..|--- .... ....|--- .... ....|--- .... ....
....|..|--- .... ....|--- .... ....|B-4 .F8F ....
....|..|--- .... ....|--- .... ....|A#4 .F.A ....
....|..|--- .... ....|R-- .... ....|G#4 .F2F ....
....|..|--- .... ....|--- .... ....|G#4 .F.F ....
....|..|--- .... ....|--- .... ....|G#4 .F1F ....
....|..|--- .... ....|--- .... ....|B-4 .F.F ....
....|..|--- .... ....|--- .... ....|C#5 .F.F ....
....|..|--- .... ....|--- .... ....|G#4 .F.7 ....
....|..|--- .... ....|--- .... ....|B-4 .F8F ....
....|..|--- .... ....|--- .... ....|G#4 .F1A ....
....|..|--- .... ....|--- .... ....|G#4 .F2F ....
....|..|--- .... ....|--- .... ....|G#4 .F.F ....
....|..|--- .... ....|--- .... ....|D#4 .F6F ....
....|..|--- .... ....|--- .... ....|D#4 .F.F ....
....|..|--- .... ....|--- .... ....|D#4 .F4F ....
....|..|--- .... ....|--- .... ....|C#5 .F.F ....
....|..|--- .... ....|--- .... ....|B-4 .F8F ....
....|..|--- .... ....|--- .... ....|B-4 .F.A ....
....|..|--- .... ....|--- .... ....|G#4 .F1F ....
....|..|--- .... ....|--- .... ....|D#4 .F67 ....
....|..|R-- .... ....|--- .... ....|D#4 .F6F ....
....|..|--- .... ....|--- .... ....|D#4 .F.F ....

[Pattern54]
....|..|C#5 ...F ....|--- .... ....|A#3 .F.F ....
....|..|C#5 ...F ....|--- .... ....|A#3 .FEF ....
....|..|--- .... ....|--- .... ....|B-4 .F87 ....
....|..|--- .... ....|--- .... ....|D#4 .F.A ....
....|..|--- .... ....|--- .... ....|G#4 .F27 ....
....|..|--- .... ....|--- .... ....|G#4 .F.7 ....
....|..|--- .... ....|--- .... ....|G#4 .F17 ....
....|..|--- .... ....|--- .... ....|B-4 .F.7 ....
....|..|--- .... ....|--- .... ....|C#5 .F.7 ....
....|..|--- .... ....|--- .... ....|--- .... ....
....|..|R-- .... ....|--- .... ....|B-4 .F87 ....
....|..|--- .... ....|--- .... ....|D#4 .F.A ....
....|..|C#5 ...A ....|--- .... ....|G#4 .F27 ....
....|..|C#5 ...A ....|--- .... ....|G#4 .F.7 ....
....|..|--- .... ....|--- .... ....|D#4 .F67 ....
....|..|--- .... ....|--- .... ....|D#4 .F.7 ....
....|..|--- .... ....|--- .... ....|D#4 .F47 ....
....|..|--- .... ....|--- .... ....|C#5 .F.7 ....
....|..|--- .... ....|--- .... ....|B-4 .F87 ....
....|..|--- .... ....|--- .... ....|--- .... ....
....|..|--- .... ....|--- .... ....|G#4 .F17 ....
....|..|--- .... ....|--- .... ....|--- .... ....
....|..|R-- .... ....|--- .... ....|D#4 .F67 ....
....|..|--- .... ....|--- .... ....|D#4 .F.7 ....
....|..|C#5 ...7 ....|--- .... ....|A#3 .F.7 ....
....|..|C#5 ...7 ....|--- .... ....|A#3 .FE7 ....
....|..|--- .... ....|--- .... ....|--- .... ....
....|..|--- .... ....|--- .... ....|--- .... ....
....|..|--- .... ....|--- .... ....|--- .... ....
....|..|R-- .... ....|--- .... ....|--- .... ....
....|..|--- .... ....|--- .... ....|--- .... ....
....|..|--- .... ....|--- .... ....|C#4 .FFF ....
....|..|--- .... ....|--- .... ....|R-- .... ....
....|..|--- .... ....|--- .... ....|--- .... ....
....|..|--- .... ....|--- .... ....|--- .... ....
....|..|--- .... ....|--- .... ....|--- .... ....
....|..|--- .... ....|--- .... ....|--- .... ....
....|..|--- .... ....|--- .... ....|--- .... ....
....|..|--- .... ....|--- .... ....|--- .... ....
....|..|--- .... ....|--- .... ....|--- .... ....
....|..|--- .... ....|--- .... ....|--- .... ....
....|..|R-- .... ....|--- .... ....|--- .... ....
....|..|--- .... ....|--- .... ....|--- .... ....
....|..|--- .... ....|--- .... ....|C#4 .FFA ....
....|..|--- .... ....|--- .... ....|R-- .... ....
....|..|--- .... ....|--- .... ....|--- .... ....
....|..|--- .... ....|--- .... ....|--- .... ....
....|..|--- .... ....|--- .... ....|--- .... ....

[Pattern55]
....|..|--- .... ....|--- .... ....|--- .... ....
....|..|--- .... ....|--- .... ....|--- .... ....
....|..|--- .... ....|--- .... ....|--- .... ....
....|..|--- .... ....|--- .... ....|--- .... ....
....|..|--- .... ....|--- .... ....|--- .... ....
....|..|R-- .... ....|--- .... ....|--- .... ....
....|..|--- .... ....|--- .... ....|--- .... ....
....|..|--- .... ....|--- .... ....|C#4 .FF7 ....
