[Module]
VortexTrackerII=0
Version=3.5
Title=1d-2me,5me-6p,8m-9m+-3p+-4p
Author=oisee ^ 4d 29.05.2010
NoteTable=4
ChipFreq=1750000
Speed=3
PlayOrder=L0,1,2,3,4,5,6,7,8,9,10,11,12,13,14,15,16,17,18,19,20,21,22,23,24,9,10,11,12,13,14,31,32,33,34,35,36,37,38,39,40,41,13,14,44,45,13,14,48,49

[Ornament1]
L0,0,5,5,9,9

[Ornament2]
L0,0,5,5,8,8

[Ornament3]
L0,0,3,3,7,7

[Ornament4]
L0,0,4,4,9,9

[Ornament5]
L0,0,3,3,8,8

[Ornament6]
L0,0,4,4,7,7

[Ornament7]
L0,0,7,7,12,12,16,16

[Ornament8]
L0,0,12,12,16,16

[Ornament9]
L0,0,7,7,12,12,15,15

[Ornament10]
L0,0,9,9

[Ornament11]
L0,0,12,12,15,15

[Ornament12]
L0

[Ornament13]
L0

[Ornament14]
L0

[Ornament15]
L0

[Sample1]
TnE +000_ +00_ F_
TnE +000_ +00_ F_
TnE +000_ +00_ F_
TnE +000_ +00_ D_
TnE +000_ +00_ B_
TnE +000_ +00_ B_ L

[Sample2]
TnE +000_ +00_ F_ L

[Sample3]
TnE +001_ +00_ F_
TnE +002_ +00_ F_
TnE +001_ +00_ E_
TnE +002_ +00_ E_
TnE +000_ +00_ E_ L
TnE -001_ +00_ E_
TnE -002_ +00_ E_
TnE -001_ +00_ E_
TnE +000_ +00_ E_
TnE +001_ +00_ E_
TnE +002_ +00_ E_
TnE +001_ +00_ E_

[Sample4]
TnE +002_ +00_ D_
TnE +002_ +00_ D_
TnE +002_ +00_ C_
TnE +002_ +00_ B_
TnE +002_ +00_ A_ L
TnE +002_ +00_ A_
TnE +002_ +00_ A_
TnE +002_ +00_ A_
TnE +002_ +00_ A_
TnE +002_ +00_ A_
TnE +002_ +00_ A_
TnE +002_ +00_ A_

[Sample5]
TnE +000_ +00_ F_
TnE +000_ +00_ F_
tne +000_ +00_ 0_ L

[Sample6]
TnE -001_ +00_ F_ L

[Sample7]
TnE +006_ +00_ F_ L

[Sample8]
tNe +000_ +00_ F_
tNe +000_ +00_ B_
tNe +000_ +00_ 7_
tNe +000_ +00_ 6- L

[Sample9]
TnE +080_ +00_ F_
TnE +100_ +00_ E_
TnE +180_ +00_ E_
TnE +200_ +00_ E_
TnE +240_ +00_ D_
TnE +280_ +00_ D_
TnE +2C0_ +00_ D_
TnE +300_ +00_ C_
TnE +300_ +00_ C_
TnE +340_ +00_ C_
TnE +340_ +00_ C_
TnE +380_ +00_ B_
TnE +380_ +00_ B_
TnE +400_ +00_ B_
TnE +400_ +00_ B_
TnE +480_ +00_ A_
TnE +500_ +00_ 9_
TnE +580_ +00_ 7_
TnE +600_ +00_ 4_
TnE +680_ +00_ 1_
TnE +000_ +00_ 0_ L

[Sample10]
Tne +1C0_ +00_ F_
Tne +280_ +00_ E_
Tne +380_ +00_ C_
Tne +440_ +00_ A_
Tne +480_ +00_ 8_
TnE +000_ +00_ 0_ L

[Sample11]
TNe +200_ -0A_ F_
tNe +000_ +0F_ A_
TNe +200_ -07_ E_
tNe +000_ +0E_ B- L

[Sample12]
TNE +0A0_ +05_ F_
TNE +140_ +02_ D_
TNE +140_ +02_ B_
TNE +100_ +00_ A_ L
TNE +140_ +00_ A_
TNE +200_ +00_ A-

[Sample13]
Tne +200_ +00_ F_
Tne +2C0_ +00_ F_
Tne +380_ +00_ E_
Tne +500_ +00_ C_
Tne +520_ +00_ 9_
tne +000_ +00_ 0_ L

[Sample14]
TNE -100_ +00_ F_
TNE -100_ +00_ D_
TNE -100_ +00_ A_
TNE -100_ +00_ 5_
tne +000_ +00_ 0_ L

[Sample15]
TNE -100_ +00_ 5_
TNE -100_ +00_ 8_
TNE -100_ +00_ B_
TNE -100_ +00_ F_
TNe -100_ +00_ 9- L

[Sample16]
TnE +000_ +00_ C_
TnE +000_ +00_ E_
TnE +000_ +00_ F_
TnE +000_ +00_ F_
TnE +000_ +00_ E_
TnE +000_ +00_ D_
TnE +000_ +00_ C_
TnE +000_ +00_ C_ L
TnE +001_ +00_ C_
TnE +002_ +00_ C_
TnE +003_ +00_ C_
TnE +001_ +00_ C_
TnE +000_ +00_ C_
TnE -001_ +00_ C_
TnE -002_ +00_ C_
TnE -003_ +00_ C_
TnE -001_ +00_ C_
TnE +000_ +00_ C_
TnE +000_ +00_ C_

[Sample17]
Tne +1C0_ +00_ F_
Tne +280_ +00_ D_
Tne +380_ +00_ 7_
TNE +000_ +00_ 0_ L

[Sample18]
TnE -00C_ +00_ 0_ L

[Sample19]
TNe +000_ +00_ F_
TNe +000_ +00_ C_
TNe +000_ +00_ 6_
TNe +000_ +01_ A- L

[Sample20]
TNE +140_ +00_ F_
tNE +000_ +00_ B- L

[Sample21]
tNE +000_ +00_ D_
tNE +000_ +00_ 8_
tNE +000_ +00_ 1_
TNE +000_ +00_ 0_ L

[Sample22]
TnE +000_ +00_ D_ L
TnE +000_ +00_ D_
tne +000_ +00_ 9_
tne +000_ +00_ 9_
TnE +000_ +00_ D_
TnE +000_ +00_ D_
tne +000_ +00_ 9_
tne +000_ +00_ 9_
TnE +000_ +00_ D_
TnE +000_ +00_ D_
TnE +000_ +00_ D_
TnE +000_ +00_ D_
TnE +000_ +00_ D_
TnE +000_ +00_ D_
tne +000_ +00_ 9_
tne +000_ +00_ 9_

[Sample23]
TnE +000_ +00_ F_ L
TnE +010_ +01_ F_
TnE +010_ +01_ F_
TnE +010_ +01_ F_
TnE +010_ +01_ F_
TnE +000_ +00_ F_
TnE +000_ +00_ F_
TnE -010_ -01_ F_
TnE -010_ -01_ F_
TnE -010_ -01_ F_
TnE -010_ -01_ F_
TnE +000_ +00_ F_

[Sample24]
TNe +000_ -01_ C_
TNe +000_ -01_ D_
TNe +000_ -01_ E_
TNe +000_ -01_ F_
TNe +000_ -01_ F_
TNe +000_ -01_ F_
TNe +000_ -01_ F_
TNe +000_ -01_ F_
TNe +000_ -01_ E_
TNe +000_ -01_ E_
TNe +000_ -01_ E_
TNe +000_ -01_ F_
TNe +000_ -01_ F_ L

[Sample25]
TNE +000_ +00_ F_
TNE +000_ +00_ F_ L
TNE +000_ +00_ F_
TNE +000_ +00_ F_
TNE +000_ +00_ F-

[Sample26]
tne +000_ +00_ 0_ L

[Sample27]
TnE +100_ +05_ F_
TnE +200_ +02_ A_
TnE +300_ +02_ 7_
TNE +400_ +00_ 3- L

[Sample28]
tne +000_ +00_ 0_ L

[Sample29]
tnE +000_ +00_ 0_ L

[Sample30]
TNE +000_ +00_ C+ L

[Sample31]
TNe +1C0_ +00_ F_
Tne +280_ +00_ E_
Tne +380_ +00_ C_
Tne +440_ +00_ A_
Tne +480_ +00_ 8_
TnE +000_ +00_ 0_ L

[Pattern0]
 D-4|..|--- .... ....|D-5 2C.F ....|--- .... ....
....|..|--- .... ....|--- .... ....|D-4 2F.F ....
....|..|--- .... ....|--- .... ....|--- .... ....
....|..|--- .... ....|--- .... ....|--- .... ....
 D-4|..|--- .... ....|D-5 2C.F ....|--- .... ....
....|..|--- .... ....|--- .... ....|R-- .... ....
....|..|--- .... ....|R-- .... ....|D-4 2F.F ....
....|..|--- .... ....|--- .... ....|--- .... ....
 D-4|..|--- .... ....|D-5 2C.F ....|--- .... ....
....|..|--- .... ....|--- .... ....|--- .... ....
....|..|--- .... ....|R-- .... ....|--- .... ....
....|..|--- .... ....|--- .... ....|R-- .... ....
 D-4|..|--- .... ....|D-5 2C.F ....|D-4 2F.F ....
....|..|--- .... ....|R-- .... ....|D-4 2F.A ....
....|..|--- .... ....|--- .... ....|--- .... ....
....|..|--- .... ....|--- .... ....|--- .... ....
 D-4|..|--- .... ....|D-5 2C.F ....|R-- .... ....
....|..|--- .... ....|--- .... ....|R-- .... ....
....|..|--- .... ....|R-- .... ....|D-4 2F.A ....
....|..|--- .... ....|--- .... ....|--- .... ....
 D-4|..|--- .... ....|D-5 2C.F ....|--- .... ....
....|..|--- .... ....|R-- .... ....|--- .... ....
....|..|--- .... ....|R-- .... ....|--- .... ....
....|..|--- .... ....|--- .... ....|R-- .... ....
 D-4|..|--- .... ....|D-5 2C.F ....|D-4 2F.A ....
....|..|--- .... ....|R-- .... ....|D-4 2F.7 ....
....|..|--- .... ....|--- .... ....|--- .... ....
....|..|--- .... ....|--- .... ....|--- .... ....
 D-4|..|--- .... ....|D-5 2C.F ....|D-4 2F.F ....
....|..|--- .... ....|R-- .... ....|R-- .... ....
....|..|--- .... ....|R-- .... ....|D-4 2F.7 ....
....|..|--- .... ....|--- .... ....|R-- .... ....
 D-4|..|--- .... ....|D-5 2C.F ....|E-4 2F.F ....
....|..|--- .... ....|R-- .... ....|--- .... ....
....|..|--- .... ....|R-- .... ....|--- .... ....
....|..|--- .... ....|R-- .... ....|R-- .... ....
....|..|--- .... ....|D-5 2F.7 ....|D-4 2F.7 ....
....|..|--- .... ....|R-- .... ....|R-- .... ....
....|..|--- .... ....|--- .... ....|E-4 2F.F ....
....|..|--- .... ....|--- .... ....|--- .... ....
 D-4|..|--- .... ....|D-5 2C.F ....|R-- .... ....
....|..|--- .... ....|R-- .... ....|--- .... ....
....|..|--- .... ....|R-- .... ....|--- .... ....
....|..|--- .... ....|--- .... ....|R-- .... ....
 D-4|..|--- .... ....|D-5 2C.F ....|F-4 2F.F ....
....|..|--- .... ....|R-- .... ....|--- .... ....
....|..|--- .... ....|R-- .... ....|--- .... ....
....|..|--- .... ....|R-- .... ....|--- .... ....
 D-4|..|--- .... ....|D-5 2C.F ....|--- .... ....
....|..|--- .... ....|R-- .... ....|R-- .... ....
....|..|--- .... ....|R-- .... ....|R-- .... ....
....|..|--- .... ....|--- .... ....|--- .... ....
 D-4|..|--- .... ....|D-5 2C.F ....|F-4 2F.F ....
....|..|--- .... ....|R-- .... ....|--- .... ....
....|..|--- .... ....|R-- .... ....|--- .... ....
....|..|--- .... ....|--- .... ....|R-- .... ....
 D-4|..|--- .... ....|D-5 2C.F ....|E-4 2F.7 ....
....|..|--- .... ....|--- .... ....|R-- .... ....
....|..|--- .... ....|R-- .... ....|F-4 2F.F ....
....|..|--- .... ....|R-- .... ....|--- .... ....
 D-4|..|--- .... ....|D-5 2C.F ....|--- .... ....
....|..|--- .... ....|--- .... ....|R-- .... ....
....|..|--- .... ....|R-- .... ....|E-4 2F.7 ....
....|..|--- .... ....|--- .... ....|--- .... ....

[Pattern1]
 D-4|..|--- .... ....|D-5 2C.F ....|D-4 2F.F ....
....|..|--- .... ....|R-- .... ....|--- .... ....
....|..|--- .... ....|R-- .... ....|--- .... ....
....|..|--- .... ....|--- .... ....|R-- .... ....
 D-4|..|--- .... ....|D-5 2C.F ....|F-4 2F.7 ....
....|..|--- .... ....|--- .... ....|R-- .... ....
....|..|--- .... ....|R-- .... ....|A-4 2F.F ....
....|..|--- .... ....|--- .... ....|--- .... ....
 D-4|..|--- .... ....|D-5 2C.F ....|--- .... ....
....|..|--- .... ....|--- .... ....|--- .... ....
....|..|--- .... ....|R-- .... ....|R-- .... ....
....|..|--- .... ....|--- .... ....|R-- .... ....
 D-4|..|--- .... ....|D-5 2C.F ....|D-4 2F.F ....
....|..|--- .... ....|--- .... ....|--- .... ....
....|..|--- .... ....|R-- .... ....|--- .... ....
....|..|--- .... ....|--- .... ....|--- .... ....
 D-4|..|--- .... ....|D-5 2C.F ....|R-- .... ....
....|..|--- .... ....|--- .... ....|R-- .... ....
....|..|--- .... ....|R-- .... ....|F-4 2F.7 ....
....|..|--- .... ....|--- .... ....|--- .... ....
 D-4|..|--- .... ....|D-5 2C.F ....|--- .... ....
....|..|--- .... ....|--- .... ....|--- .... ....
....|..|--- .... ....|R-- .... ....|R-- .... ....
....|..|--- .... ....|--- .... ....|R-- .... ....
 D-4|..|--- .... ....|D-5 2C.F ....|D-4 2F.7 ....
....|..|--- .... ....|--- .... ....|--- .... ....
....|..|--- .... ....|R-- .... ....|--- .... ....
....|..|--- .... ....|--- .... ....|--- .... ....
 D-4|..|--- .... ....|D-5 2C.F ....|D-4 2F.F ....
....|..|--- .... ....|--- .... ....|R-- .... ....
....|..|--- .... ....|R-- .... ....|A-4 2F.7 ....
....|..|--- .... ....|--- .... ....|R-- .... ....
 D-4|..|--- .... ....|D-5 2C.F ....|E-4 2F.F ....
....|..|--- .... ....|--- .... ....|--- .... ....
....|..|--- .... ....|R-- .... ....|--- .... ....
....|..|--- .... ....|--- .... ....|R-- .... ....
 D-4|..|--- .... ....|D-5 2C.F ....|D-4 2F.7 ....
....|..|--- .... ....|--- .... ....|R-- .... ....
....|..|--- .... ....|R-- .... ....|E-4 2F.F ....
....|..|--- .... ....|--- .... ....|--- .... ....
 D-4|..|--- .... ....|D-5 2C.F ....|R-- .... ....
....|..|--- .... ....|--- .... ....|--- .... ....
....|..|--- .... ....|R-- .... ....|--- .... ....
....|..|--- .... ....|--- .... ....|R-- .... ....
 D-4|..|--- .... ....|D-5 2C.F ....|F-4 2F.F ....
....|..|--- .... ....|--- .... ....|--- .... ....
....|..|--- .... ....|R-- .... ....|--- .... ....
....|..|--- .... ....|--- .... ....|--- .... ....
 D-4|..|--- .... ....|D-5 2C.F ....|--- .... ....
....|..|--- .... ....|--- .... ....|R-- .... ....
....|..|--- .... ....|R-- .... ....|R-- .... ....
....|..|--- .... ....|--- .... ....|--- .... ....
 D-4|..|--- .... ....|D-5 2C.F ....|F-4 2F.F ....
....|..|--- .... ....|--- .... ....|--- .... ....
....|..|--- .... ....|R-- .... ....|--- .... ....
....|..|--- .... ....|--- .... ....|R-- .... ....
 D-4|..|--- .... ....|D-5 2C.F ....|E-4 2F.7 ....
....|..|--- .... ....|--- .... ....|R-- .... ....
....|..|--- .... ....|R-- .... ....|F-4 2F.F ....
....|..|--- .... ....|--- .... ....|--- .... ....
 D-4|..|--- .... ....|D-5 2C.F ....|--- .... ....
....|..|--- .... ....|--- .... ....|R-- .... ....
....|..|--- .... ....|R-- .... ....|E-4 2F.7 ....
....|..|--- .... ....|--- .... ....|--- .... ....

[Pattern2]
 D-4|..|--- .... ....|D-5 2C.F ....|D-4 2F.F ....
....|..|--- .... ....|--- .... ....|--- .... ....
....|..|--- .... ....|R-- .... ....|--- .... ....
....|..|--- .... ....|--- .... ....|R-- .... ....
....|..|--- .... ....|D-5 2F.7 ....|F-4 2F.7 ....
....|..|--- .... ....|--- .... ....|R-- .... ....
....|..|--- .... ....|R-- .... ....|D-4 2F.F ....
....|..|--- .... ....|--- .... ....|--- .... ....
 D-4|..|--- .... ....|D-5 2C.F ....|--- .... ....
....|..|--- .... ....|--- .... ....|--- .... ....
....|..|--- .... ....|R-- .... ....|R-- .... ....
....|..|--- .... ....|--- .... ....|R-- .... ....
 D-4|..|--- .... ....|D-5 2C.F ....|D-4 2F.F ....
....|..|--- .... ....|--- .... ....|--- .... ....
....|..|--- .... ....|R-- .... ....|--- .... ....
....|..|--- .... ....|--- .... ....|--- .... ....
 D-4|..|--- .... ....|D-5 2C.F ....|R-- .... ....
....|..|--- .... ....|--- .... ....|R-- .... ....
....|..|--- .... ....|R-- .... ....|F-4 2F.7 ....
....|..|--- .... ....|--- .... ....|--- .... ....
....|..|--- .... ....|D-5 2F.7 ....|--- .... ....
....|..|--- .... ....|--- .... ....|--- .... ....
....|..|--- .... ....|R-- .... ....|R-- .... ....
....|..|--- .... ....|--- .... ....|R-- .... ....
 D-4|..|--- .... ....|D-5 2C.F ....|D-4 2F.7 ....
....|..|--- .... ....|R-- .... ....|--- .... ....
....|..|--- .... ....|R-- .... ....|--- .... ....
....|..|--- .... ....|--- .... ....|--- .... ....
 D-4|..|--- .... ....|D-5 2C.F ....|D-4 2F.F ....
....|..|--- .... ....|--- .... ....|R-- .... ....
....|..|--- .... ....|R-- .... ....|D-4 2F.7 ....
....|..|--- .... ....|--- .... ....|R-- .... ....
 D-4|..|--- .... ....|D-5 2C.F ....|E-4 2F.F ....
....|..|--- .... ....|--- .... ....|--- .... ....
....|..|--- .... ....|R-- .... ....|--- .... ....
....|..|--- .... ....|--- .... ....|R-- .... ....
 D-4|..|--- .... ....|D-5 2C.F ....|D-4 2F.7 ....
....|..|--- .... ....|R-- .... ....|R-- .... ....
....|..|--- .... ....|R-- .... ....|E-4 2F.F ....
....|..|--- .... ....|--- .... ....|--- .... ....
 D-4|..|--- .... ....|D-5 2C.F ....|R-- .... ....
....|..|--- .... ....|--- .... ....|--- .... ....
....|..|--- .... ....|R-- .... ....|--- .... ....
....|..|--- .... ....|--- .... ....|R-- .... ....
 D-4|..|--- .... ....|D-5 2C.F ....|F-4 2F.F ....
....|..|--- .... ....|--- .... ....|--- .... ....
....|..|--- .... ....|R-- .... ....|--- .... ....
....|..|--- .... ....|--- .... ....|--- .... ....
....|..|--- .... ....|D-5 2F.7 ....|--- .... ....
....|..|--- .... ....|R-- .... ....|R-- .... ....
....|..|--- .... ....|R-- .... ....|R-- .... ....
....|..|--- .... ....|--- .... ....|--- .... ....
 D-4|..|--- .... ....|D-5 2C.F ....|F-4 2F.F ....
....|..|--- .... ....|--- .... ....|--- .... ....
....|..|--- .... ....|R-- .... ....|--- .... ....
....|..|--- .... ....|--- .... ....|R-- .... ....
 D-4|..|--- .... ....|D-5 2C.F ....|E-4 2F.7 ....
....|..|--- .... ....|--- .... ....|R-- .... ....
....|..|--- .... ....|R-- .... ....|F-4 2F.F ....
....|..|--- .... ....|--- .... ....|--- .... ....
 D-4|..|--- .... ....|D-5 2C.F ....|--- .... ....
....|..|--- .... ....|--- .... ....|R-- .... ....
....|..|--- .... ....|R-- .... ....|E-4 2F.7 ....
....|..|--- .... ....|--- .... ....|--- .... ....

[Pattern3]
 D-4|..|--- .... ....|D-5 2C.F ....|D-4 2F.F ....
....|..|--- .... ....|--- .... ....|--- .... ....
....|..|--- .... ....|R-- .... ....|--- .... ....
....|..|--- .... ....|--- .... ....|R-- .... ....
....|..|--- .... ....|D-5 2F.7 ....|F-4 2F.7 ....
....|..|--- .... ....|R-- .... ....|R-- .... ....
....|..|--- .... ....|R-- .... ....|A-4 2F.F ....
....|..|--- .... ....|--- .... ....|--- .... ....
 D-4|..|--- .... ....|D-5 2C.F ....|--- .... ....
....|..|--- .... ....|R-- .... ....|--- .... ....
....|..|--- .... ....|R-- .... ....|R-- .... ....
....|..|--- .... ....|--- .... ....|R-- .... ....
 D-4|..|--- .... ....|D-5 2C.F ....|D-4 2F.F ....
....|..|--- .... ....|R-- .... ....|--- .... ....
....|..|--- .... ....|R-- .... ....|--- .... ....
....|..|--- .... ....|--- .... ....|--- .... ....
 D-4|..|--- .... ....|D-5 2C.F ....|R-- .... ....
....|..|--- .... ....|R-- .... ....|R-- .... ....
....|..|--- .... ....|R-- .... ....|F-4 2F.7 ....
....|..|--- .... ....|--- .... ....|--- .... ....
 D-4|..|--- .... ....|D-5 2C.F ....|--- .... ....
....|..|--- .... ....|R-- .... ....|--- .... ....
....|..|--- .... ....|R-- .... ....|R-- .... ....
....|..|--- .... ....|--- .... ....|R-- .... ....
 D-4|..|--- .... ....|D-5 2C.F ....|D-4 2F.7 ....
....|..|--- .... ....|R-- .... ....|--- .... ....
....|..|--- .... ....|--- .... ....|--- .... ....
....|..|--- .... ....|--- .... ....|--- .... ....
....|..|--- .... ....|D-5 2F.A ....|D-4 2F.F ....
....|..|--- .... ....|R-- .... ....|R-- .... ....
....|..|--- .... ....|R-- .... ....|A-4 2F.7 ....
....|..|--- .... ....|--- .... ....|R-- .... ....
 D-4|..|--- .... ....|D-5 2C.F ....|--- .... ....
....|..|--- .... ....|R-- .... ....|--- .... ....
....|..|--- .... ....|R-- .... ....|--- .... ....
....|..|--- .... ....|--- .... ....|R-- .... ....
 D-4|..|--- .... ....|D-5 2C.F ....|D-4 2F.7 ....
....|..|--- .... ....|R-- .... ....|--- .... ....
....|..|--- .... ....|--- .... ....|--- .... ....
....|..|--- .... ....|--- .... ....|--- .... ....
....|..|--- .... ....|D-5 2F.7 ....|R-- .... ....
....|..|--- .... ....|--- .... ....|--- .... ....
....|..|--- .... ....|R-- .... ....|--- .... ....
....|..|--- .... ....|--- .... ....|R-- .... ....
 D-4|..|--- .... ....|D-5 2C.F ....|--- .... ....
....|..|--- .... ....|--- .... ....|--- .... ....
....|..|--- .... ....|R-- .... ....|--- .... ....
....|..|--- .... ....|--- .... ....|--- .... ....
....|..|--- .... ....|D-5 2F.7 ....|--- .... ....
....|..|--- .... ....|--- .... ....|--- .... ....
....|..|--- .... ....|R-- .... ....|--- .... ....
....|..|--- .... ....|--- .... ....|--- .... ....
 D-4|..|--- .... ....|D-5 2C.F ....|D-4 2F.7 ....
....|..|--- .... ....|--- .... ....|--- .... ....
....|..|--- .... ....|R-- .... ....|--- .... ....
....|..|--- .... ....|--- .... ....|R-- .... ....
 D-4|..|--- .... ....|D-5 2C.F ....|--- .... ....
....|..|--- .... ....|--- .... ....|--- .... ....
....|..|--- .... ....|R-- .... ....|--- .... ....
....|..|--- .... ....|--- .... ....|--- .... ....
 D-4|..|--- .... ....|D-5 2C.F ....|--- .... ....
....|..|--- .... ....|--- .... ....|--- .... ....
....|..|--- .... ....|R-- .... ....|--- .... ....
....|..|--- .... ....|--- .... ....|--- .... ....

[Pattern4]
 D-4|..|C-4 AF.F ....|D-5 2C.F ....|D-4 2F.F ....
 A#3|..|A#1 2A.F ....|--- .F.. ....|A#3 2F7F ....
 D-4|..|--- .F.. ....|D-5 2C.F ....|--- .... ....
....|..|--- .... ....|R-- .... ....|--- .... ....
 D-4|..|--- .... ....|D-5 2C.F ....|A#3 2F8F ....
....|..|R-- .... ....|--- .... ....|R-- .... ....
....|..|--- .... ....|R-- .... ....|D-4 2F.F ....
....|..|--- .... ....|R-- .... ....|--- .... ....
 D-4|..|C-4 BF.F ....|D-5 2C.F ....|--- .... ....
....|..|R-- .... ....|R-- .... ....|--- .... ....
....|..|--- .... ....|R-- .... ....|--- .... ....
....|..|--- .... ....|--- .... ....|R-- .... ....
 D-4|..|C-4 AF.F ....|D-5 2C.F ....|D-4 2F.F ....
....|..|R-- .... ....|R-- .... ....|A#3 2F7F ....
....|..|--- .... ....|R-- .... ....|--- .... ....
....|..|--- .... ....|R-- .... ....|R-- .... ....
 D-4|..|B-8 JF.F ....|D-5 2C.F ....|R-- .... ....
....|..|R-- .... ....|--- .... ....|R-- .... ....
....|..|--- .... ....|R-- .... ....|D-4 2F.A ....
....|..|--- .... ....|R-- .... ....|--- .... ....
....|..|C-4 BF.A ....|D-5 2F.7 ....|--- .... ....
....|..|R-- .... ....|R-- .... ....|--- .... ....
....|..|--- .... ....|R-- .... ....|--- .... ....
....|..|--- .... ....|--- .... ....|R-- .... ....
 D-4|..|C-4 BF.F ....|D-5 2C.F ....|D-4 2F.7 ....
....|..|A#1 2F.7 ....|R-- .... ....|A#3 2F77 ....
....|..|--- .... ....|D-5 2F.7 ....|--- .... ....
....|..|--- .... ....|R-- .... ....|R-- .... ....
....|..|B-8 JF.A ....|D-5 2F.7 ....|D-4 2F.F ....
....|..|R-- .... ....|R-- .... ....|R-- .... ....
....|..|--- .... ....|--- .... ....|D-4 2F.7 ....
....|..|--- .... ....|R-- .... ....|R-- .... ....
 D-4|..|C-4 AF.F ....|D-5 2C.F ....|E-4 2F.F ....
....|..|R-- .... ....|R-- .... ....|C-4 2F7F ....
 D-4|..|--- .... ....|D-5 2C.F ....|--- .... ....
....|..|--- .... ....|R-- .... ....|R-- .... ....
 D-4|..|C-4 AF.7 ....|D-5 2C.F ....|E-4 2F.F ....
....|..|R-- .... ....|R-- .... ....|A#3 2F77 ....
....|..|--- .... ....|--- .... ....|E-4 2F.F ....
....|..|--- .... ....|R-- .... ....|R-- .... ....
 D-4|..|C-4 BF.F ....|D-5 2C.F ....|R-- .... ....
....|..|R-- .... ....|R-- .... ....|--- .... ....
....|..|--- .... ....|--- .... ....|--- .... ....
....|..|--- .... ....|--- .... ....|R-- .... ....
 D-4|..|C-4 AF.F ....|D-5 2C.F ....|F-4 2F.F ....
....|..|R-- .... ....|R-- .... ....|D-3 2F9F ....
....|..|--- .... ....|D-5 2F.A ....|--- .... ....
....|..|--- .... ....|R-- .... ....|--- .... ....
 D-4|..|B-8 JF.F ....|D-5 2C.F ....|R-- .... ....
....|..|R-- .... ....|--- .... ....|R-- .... ....
....|..|--- .... ....|--- .... ....|R-- .... ....
....|..|--- .... ....|R-- .... ....|--- .... ....
....|..|C-4 BF.A ....|D-5 2F.A ....|F-4 2F.F ....
....|..|R-- .... ....|R-- .... ....|--- .... ....
....|..|--- .... ....|--- .... ....|--- .... ....
....|..|--- .... ....|--- .... ....|R-- .... ....
 D-4|..|C-4 AF.F ....|D-5 2C.F ....|E-4 2F.7 ....
....|..|R-- .... ....|R-- .... ....|C-4 2F77 ....
....|..|--- .... ....|D-5 2F.7 ....|F-4 2F.F ....
....|..|--- .... ....|R-- .... ....|--- .... ....
....|..|B-8 JF.A ....|D-5 2F.7 ....|E-4 2F.7 ....
....|..|R-- .... ....|R-- .... ....|R-- .... ....
....|..|--- .... ....|--- .... ....|E-4 2F.7 ....
....|..|--- .... ....|R-- .... ....|--- .... ....

[Pattern5]
 D-4|..|C-4 AF.F ....|D-5 2C.F ....|D-4 2F.F ....
....|..|R-- .... ....|R-- .... ....|A#3 2F7F ....
....|..|--- .... ....|--- .... ....|--- .... ....
....|..|--- .... ....|--- .... ....|F-3 2F1F ....
 D-4|..|C-4 AF.7 ....|D-5 2C.F ....|F-4 2F.7 ....
....|..|R-- .... ....|R-- .... ....|D-3 2F97 ....
 D-4|..|--- .... ....|D-5 2C.F ....|A-4 2F.F ....
....|..|--- .... ....|R-- .... ....|--- .... ....
 D-4|..|C-4 BF.F ....|D-5 2C.F ....|R-- .... ....
....|..|R-- .... ....|R-- .... ....|--- .... ....
....|..|--- .... ....|--- .... ....|R-- .... ....
....|..|--- .... ....|--- .... ....|R-- .... ....
 D-4|..|C-4 AF.F ....|D-5 2C.F ....|D-4 2F.F ....
....|..|R-- .... ....|R-- .... ....|A#3 2F7F ....
....|..|--- .... ....|--- .... ....|F-3 2F1F ....
....|..|--- .... ....|--- .... ....|F-3 2FAF ....
 D-4|..|B-8 JF.F ....|D-5 2C.F ....|R-- .... ....
....|..|R-- .... ....|R-- .... ....|R-- .... ....
....|..|--- .... ....|D-5 2F.A ....|F-4 2F.7 ....
....|..|--- .... ....|R-- .... ....|--- .... ....
....|..|C-4 BF.A ....|D-5 2F.A ....|--- .... ....
....|..|R-- .... ....|R-- .... ....|--- .... ....
....|..|--- .... ....|--- .... ....|R-- .... ....
....|..|--- .... ....|--- .... ....|R-- .... ....
 D-4|..|C-4 BF.F ....|D-5 2C.F ....|D-4 2F.7 ....
....|..|R-- .... ....|R-- .... ....|A#3 2F77 ....
....|..|--- .... ....|--- .... ....|F-3 2F1A ....
....|..|--- .... ....|--- .... ....|F-3 2F17 ....
....|..|B-8 JF.A ....|D-5 2F.7 ....|D-4 2F.F ....
....|..|R-- .... ....|R-- .... ....|R-- .... ....
....|..|--- .... ....|D-5 2F.7 ....|A-4 2F.7 ....
....|..|--- .... ....|R-- .... ....|R-- .... ....
....|..|C-4 AF.F ....|D-5 2F.7 ....|E-4 2F.F ....
....|..|R-- .... ....|R-- .... ....|C-4 2F7F ....
....|..|--- .... ....|--- .... ....|--- .... ....
....|..|--- .... ....|--- .... ....|G-3 2F1F ....
....|..|C-4 AF.7 ....|D-5 2F.7 ....|D-4 2F.7 ....
....|..|R-- .... ....|R-- .... ....|A#3 2F77 ....
....|..|--- .... ....|--- .... ....|E-4 2F.F ....
....|..|--- .... ....|--- .... ....|F-3 2FA7 ....
....|..|C-4 BF.F ....|D-5 2F.7 ....|R-- .... ....
....|..|R-- .... ....|R-- .... ....|--- .... ....
....|..|--- .... ....|--- .... ....|--- .... ....
....|..|--- .... ....|--- .... ....|R-- .... ....
....|..|C-4 AF.F ....|--- .... ....|F-4 2F.F ....
....|..|R-- .... ....|R-- .... ....|D-3 2F9F ....
....|..|--- .... ....|--- .... ....|--- .... ....
....|..|--- .... ....|--- .... ....|A-3 2F2F ....
....|..|B-8 JF.F ....|D-5 2F.7 ....|R-- .... ....
....|..|R-- .... ....|--- .... ....|R-- .... ....
....|..|--- .... ....|--- .... ....|R-- .... ....
....|..|--- .... ....|--- .... ....|--- .... ....
 D-4|..|C-4 BF.A ....|D-5 2C.F ....|F-4 2F.F ....
....|..|R-- .... ....|R-- .... ....|--- .... ....
....|..|--- .... ....|--- .... ....|--- .... ....
....|..|--- .... ....|--- .... ....|R-- .... ....
 D-4|..|C-4 AF.F ....|D-5 2C.F ....|E-4 2F.7 ....
....|..|R-- .... ....|R-- .... ....|C-4 2F77 ....
....|..|--- .... ....|--- .... ....|F-4 2F.F ....
....|..|--- .... ....|--- .... ....|G-3 2F17 ....
 D-4|..|A-1 2F.F ....|D-5 2C.F ....|R-- .... ....
....|..|R-- .... ....|R-- .... ....|R-- .... ....
....|..|--- .... ....|--- .... ....|E-4 2F.7 ....
....|..|--- .... ....|--- .... ....|--- .... ....

[Pattern6]
 D-4|..|C-4 AF.F ....|D-5 2C.F ....|D-4 2F.F ....
 A#3|..|A#1 2A.F ....|R-- .... ....|A#3 2F7F ....
 D-4|..|--- .F.. ....|D-5 2C.F ....|--- .... ....
....|..|--- .... ....|R-- .... ....|F-3 2F1F ....
 D-4|..|C-4 AF.7 ....|D-5 2C.F ....|D-4 2F.F ....
....|..|R-- .... ....|R-- .... ....|D-3 2F97 ....
....|..|--- .... ....|R-- .... ....|D-4 2F.F ....
....|..|--- .... ....|--- .... ....|A-3 2F27 ....
 D-4|..|C-4 BF.F ....|D-5 2C.F ....|R-- .... ....
....|..|R-- .... ....|R-- .... ....|--- .... ....
 D-4|..|--- .... ....|D-5 2C.F ....|R-- .... ....
....|..|--- .... ....|R-- .... ....|R-- .... ....
 D-4|..|C-4 AF.F ....|D-5 2C.F ....|D-4 2F.F ....
....|..|R-- .... ....|R-- .... ....|A#3 2F7F ....
....|..|--- .... ....|D-5 2F.A ....|--- .... ....
....|..|--- .... ....|R-- .... ....|D-4 2F.F ....
 D-4|..|B-8 JF.F ....|D-5 2C.F ....|R-- .... ....
....|..|R-- .... ....|R-- .... ....|R-- .... ....
....|..|--- .... ....|R-- .... ....|F-4 2F.7 ....
....|..|--- .... ....|--- .... ....|--- .... ....
....|..|A-1 2F.7 ....|D-5 2F.7 ....|--- .... ....
....|..|R-- .... ....|R-- .... ....|--- .... ....
....|..|--- .... ....|D-5 2F.A ....|R-- .... ....
....|..|--- .... ....|R-- .... ....|R-- .... ....
 D-4|..|C-4 BF.F ....|D-5 2C.F ....|D-4 2F.7 ....
....|..|A#1 2F.7 ....|R-- .... ....|A#3 2F77 ....
....|..|--- .... ....|D-5 2F.7 ....|--- .... ....
....|..|--- .... ....|R-- .... ....|F-3 2F17 ....
....|..|B-8 JF.A ....|D-5 2F.7 ....|D-4 2F.F ....
....|..|R-- .... ....|R-- .... ....|R-- .... ....
....|..|--- .... ....|R-- .... ....|D-4 2F.7 ....
....|..|--- .... ....|--- .... ....|R-- .... ....
 D-4|..|C-4 AF.F ....|D-5 2C.F ....|E-4 2F.F ....
....|..|R-- .... ....|R-- .... ....|C-4 2F7F ....
 D-4|..|--- .... ....|D-5 2C.F ....|--- .... ....
....|..|--- .... ....|R-- .... ....|R-- .... ....
 D-4|..|C-4 AF.7 ....|D-5 2C.F ....|G-3 2FAF ....
....|..|R-- .... ....|R-- .... ....|A#3 2F77 ....
....|..|--- .... ....|R-- .... ....|E-4 2F.F ....
....|..|--- .... ....|--- .... ....|D-4 2F.7 ....
 D-4|..|C-4 BF.F ....|D-5 2C.F ....|R-- .... ....
....|..|R-- .... ....|R-- .... ....|--- .... ....
....|..|--- .... ....|--- .... ....|--- .... ....
....|..|--- .... ....|--- .... ....|R-- .... ....
 D-4|..|C-4 AF.F ....|D-5 2C.F ....|F-4 2F.F ....
....|..|R-- .... ....|R-- .... ....|D-3 2F9F ....
....|..|--- .... ....|D-5 2F.A ....|--- .... ....
....|..|--- .... ....|R-- .... ....|--- .... ....
 D-4|..|B-8 JF.F ....|D-5 2C.F ....|R-- .... ....
....|..|R-- .... ....|--- .... ....|R-- .... ....
....|..|--- .... ....|R-- .... ....|R-- .... ....
....|..|--- .... ....|--- .... ....|--- .... ....
....|..|C-4 BF.A ....|D-5 2F.A ....|F-4 2F.F ....
....|..|R-- .... ....|R-- .... ....|--- .... ....
....|..|--- .... ....|--- .... ....|--- .... ....
....|..|--- .... ....|--- .... ....|R-- .... ....
 D-4|..|C-4 AF.F ....|D-5 2C.F ....|E-4 2F.7 ....
....|..|R-- .... ....|R-- .... ....|C-4 2F77 ....
....|..|--- .... ....|D-5 2F.7 ....|F-4 2F.F ....
....|..|--- .... ....|R-- .... ....|--- .... ....
....|..|B-8 JF.A ....|D-5 2F.7 ....|G-3 2FA7 ....
....|..|R-- .... ....|R-- .... ....|R-- .... ....
....|..|--- .... ....|R-- .... ....|E-4 2F.7 ....
....|..|--- .... ....|--- .... ....|--- .... ....

[Pattern7]
 D-4|..|C-4 AF.F ....|D-5 2C.F ....|A#3 2F.F ....
 G-3|..|G-1 2A.F ....|R-- .... ....|G-3 2F3F ....
 D-4|..|--- .F.. ....|D-5 2C.F ....|--- .... ....
....|..|--- .... ....|R-- .... ....|R-- .... ....
 D-4|..|C-4 AF.7 ....|D-5 2C.F ....|G-3 2F3F ....
....|..|R-- .... ....|R-- .... ....|D-3 2F97 ....
 D-4|..|G-1 2F.F ....|D-5 2C.F ....|F-4 2F.F ....
....|..|--- .... ....|--- .... ....|R-- .... ....
 D-4|..|C-4 BF.F ....|D-5 2C.F ....|R-- .... ....
....|..|R-- .... ....|R-- .... ....|--- .... ....
 D-4|..|R-- .... ....|D-5 2C.F ....|R-- .... ....
....|..|--- .... ....|--- .... ....|R-- .... ....
 D-4|..|C-4 AF.F ....|D-5 2C.F ....|A#3 2F.F ....
 G-3|..|G-1 2A.F ....|R-- .... ....|G-3 2F3F ....
 D-4|..|--- .F.. ....|D-5 2C.F ....|--- .... ....
....|..|R-- .... ....|R-- .... ....|--- .... ....
 D-4|..|C-4 AF.7 ....|D-5 2C.F ....|R-- .... ....
....|..|R-- .... ....|R-- .... ....|R-- .... ....
....|..|G-1 2F.A ....|D-5 2F.A ....|F-4 2F.7 ....
....|..|--- .... ....|--- .... ....|R-- .... ....
....|..|C-4 BF.A ....|D-5 2F.A ....|--- .... ....
....|..|R-- .... ....|R-- .... ....|--- .... ....
....|..|R-- .... ....|R-- .... ....|R-- .... ....
....|..|--- .... ....|--- .... ....|R-- .... ....
....|..|C-4 AF.7 ....|D-5 2F.7 ....|A#3 2F.7 ....
....|..|G-1 2F.7 ....|R-- .... ....|G-3 2F37 ....
....|..|--- .... ....|D-5 2F.7 ....|--- .... ....
....|..|R-- .... ....|R-- .... ....|--- .... ....
....|..|--- .... ....|D-5 2F.7 ....|G-3 2F37 ....
....|..|R-- .... ....|R-- .... ....|R-- .... ....
....|..|G-1 2F.7 ....|D-5 2F.7 ....|F-4 2F.7 ....
....|..|--- .... ....|--- .... ....|R-- .... ....
 D-4|..|C-4 BF.7 ....|D-5 2C.F ....|--- .... ....
....|..|R-- .... ....|R-- .... ....|--- .... ....
....|..|R-- .... ....|D-5 2F.7 ....|--- .... ....
....|..|--- .... ....|--- .... ....|R-- .... ....
....|..|C-4 AF.7 ....|D-5 2F.7 ....|A#3 2F.7 ....
....|..|G-1 2F.7 ....|R-- .... ....|G-3 2F37 ....
....|..|--- .... ....|D-5 2F.7 ....|--- .... ....
....|..|R-- .... ....|R-- .... ....|--- .... ....
....|..|--- .... ....|D-5 2F.7 ....|R-- .... ....
....|..|--- .... ....|--- .... ....|--- .... ....
....|..|--- .... ....|--- .... ....|--- .... ....
....|..|--- .... ....|--- .... ....|--- .... ....
....|..|--- .... ....|D-5 2F.A ....|--- .... ....
....|..|--- .... ....|--- .... ....|--- .... ....
....|..|--- .... ....|R-- .... ....|--- .... ....
....|..|--- .... ....|--- .... ....|--- .... ....
....|..|--- .... ....|--- .... ....|--- .... ....
....|..|--- .... ....|--- .... ....|--- .... ....
....|..|--- .... ....|R-- .... ....|--- .... ....
....|..|--- .... ....|--- .... ....|--- .... ....
....|..|--- .... ....|--- .... ....|--- .... ....
....|..|--- .... ....|--- .... ....|--- .... ....
....|..|--- .... ....|--- .... ....|--- .... ....
....|..|--- .... ....|--- .... ....|--- .... ....
 G-4|..|--- .... ....|G-5 2C.F ....|--- .... ....
....|..|--- .... ....|--- .... ....|--- .... ....
....|..|--- .... ....|--- .... ....|--- .... ....
....|..|--- .... ....|--- .... ....|--- .... ....
....|..|--- .... ....|--- .... ....|--- .... ....
....|..|--- .... ....|--- .... ....|--- .... ....
....|..|--- .... ....|R-- .... ....|--- .... ....
....|..|--- .... ....|--- .... ....|--- .... ....

[Pattern8]
 F-4|..|C-4 AF.F ....|F-5 2C.F ....|A#3 2F.F ....
 A#3|..|A#1 2A.F ....|--- .F.. ....|A#3 2F7F ....
....|..|--- .... ....|--- .... ....|--- .... ....
....|..|--- .... ....|--- .... ....|--- .... ....
....|..|--- .... ....|R-- .... ....|A#3 2F8F ....
....|..|--- .... ....|--- .... ....|R-- .... ....
....|..|--- .... ....|--- .... ....|A#3 2F.F ....
....|..|--- .... ....|--- .... ....|R-- .... ....
 F-4|..|C-4 AF.F ....|F-5 2C.F ....|A#4 2F.F ....
....|..|R-- .... ....|--- .... ....|--- .... ....
....|..|--- .... ....|R-- .... ....|--- .... ....
....|..|--- .... ....|--- .... ....|--- .... ....
 F-4|..|C-3 9F.F ....|F-5 2C.F ....|A#3 2F.F ....
 A#3|..|A#1 2A.F ....|--- .F.. ....|A#3 2F7F ....
....|..|--- .... ....|R-- .... ....|--- .... ....
....|..|--- .... ....|--- .... ....|R-- .... ....
 F-4|..|C-4 AF.F ....|F-5 2C.F ....|A#2 2F.F ....
....|..|R-- .... ....|--- .... ....|R-- .... ....
....|..|--- .... ....|--- .... ....|A#3 2F.A ....
....|..|--- .... ....|--- .... ....|R-- .... ....
....|..|C-4 AF.A ....|R-- .... ....|R-- .... ....
....|..|R-- .... ....|--- .... ....|--- .... ....
....|..|--- .... ....|R-- .... ....|--- .... ....
....|..|--- .... ....|--- .... ....|--- .... ....
 F-4|..|C-4 AF.F ....|F-5 2C.F ....|A#3 2F.7 ....
....|..|A#1 2F.7 ....|--- .... ....|A#3 2F77 ....
....|..|--- .... ....|R-- .... ....|--- .... ....
....|..|--- .... ....|--- .... ....|R-- .... ....
 F-4|..|A#1 2F.F ....|F-5 2C.F ....|A#2 2F.F ....
....|..|R-- .... ....|--- .... ....|R-- .... ....
....|..|--- .... ....|R-- .... ....|A#3 2F.7 ....
....|..|--- .... ....|--- .... ....|R-- .... ....
 F-4|..|C-4 AF.F ....|F-5 2C.F ....|C-3 2F.F ....
 C-4|..|C-2 2A.F ....|--- .F.. ....|C-4 2F7F ....
....|..|--- .... ....|R-- .... ....|--- .... ....
....|..|--- .... ....|--- .... ....|--- .... ....
 F-4|..|C-3 9F.7 ....|F-5 2C.F ....|C-5 2F.F ....
....|..|A#1 2F.7 ....|--- .... ....|E-4 2F.F ....
 C-4|..|C-2 2A.F ....|R-- .... ....|C-3 2F.F ....
....|..|--- .... ....|--- .... ....|R-- .... ....
 F-4|..|C-4 AF.F ....|F-5 2C.F ....|A#2 2F.7 ....
....|..|R-- .... ....|--- .... ....|--- .... ....
....|..|--- .... ....|R-- .... ....|--- .... ....
....|..|R-- .... ....|--- .... ....|R-- .... ....
 F-4|..|D-2 2F.F ....|F-5 2C.F ....|D-3 2F.F ....
....|..|C-2 2F.A ....|--- .... ....|D-3 2F9F ....
....|..|--- .... ....|R-- .... ....|--- .... ....
....|..|--- .... ....|--- .... ....|--- .... ....
 F-4|..|C-4 AF.F ....|F-5 2C.F ....|R-- .... ....
....|..|R-- .... ....|--- .... ....|E-4 2F.A ....
....|..|C-2 2F.A ....|R-- .... ....|C-3 2F.A ....
....|..|--- .... ....|--- .... ....|R-- .... ....
....|..|A#1 2F.7 ....|F-5 2F.7 ....|D-4 2F.F ....
....|..|R-- .... ....|--- .... ....|--- .... ....
....|..|R-- .... ....|R-- .... ....|--- .... ....
....|..|R-- .... ....|--- .... ....|R-- .... ....
 G-4|..|C-4 AF.F ....|G-5 2C.F ....|C-3 2F.7 ....
....|..|C-2 2F.7 ....|--- .... ....|C-4 2F77 ....
....|..|--- .... ....|R-- .... ....|D-5 2F.F ....
....|..|--- .... ....|--- .... ....|--- .... ....
....|..|C-4 AF.A ....|F-5 2F.7 ....|C-5 2F.7 ....
....|..|R-- .... ....|R-- .... ....|E-4 2F.7 ....
....|..|C-2 2F.7 ....|R-- .... ....|C-3 2F.7 ....
....|..|--- .... ....|--- .... ....|R-- .... ....

[Pattern9]
 F-4|..|C-4 AF.F ....|F-5 2C.F ....|A#3 2F.F ....
 A#3|..|A#1 2A.F ....|--- .F.. ....|A#3 2F7F ....
....|..|R-- .... ....|R-- .... ....|--- .... ....
....|..|R-- .... ....|--- .... ....|--- .... ....
....|..|D-2 2F.7 ....|F-5 2F.7 ....|A#3 2F8F ....
....|..|R-- .... ....|--- .... ....|D-3 2F97 ....
....|..|--- .... ....|R-- .... ....|A#3 2F.F ....
....|..|--- .... ....|--- .... ....|R-- .... ....
 F-4|..|C-4 AF.F ....|F-5 2C.F ....|A#4 2F.F ....
....|..|R-- .... ....|R-- .... ....|--- .... ....
....|..|--- .... ....|R-- .... ....|--- .... ....
....|..|--- .... ....|--- .... ....|--- .... ....
 F-4|..|C-3 9F.F ....|F-5 2C.F ....|A#3 2F.F ....
 A#3|..|A#1 2A.F ....|--- .F.. ....|A#3 2F7F ....
....|..|R-- .... ....|R-- .... ....|--- .... ....
....|..|--- .... ....|--- .... ....|R-- .... ....
 F-4|..|C-4 AF.F ....|F-5 2C.F ....|A#2 2F.F ....
....|..|R-- .... ....|--- .... ....|R-- .... ....
....|..|--- .... ....|--- .... ....|D-5 2F.7 ....
....|..|--- .... ....|--- .... ....|R-- .... ....
....|..|C-4 AF.A ....|R-- .... ....|R-- .... ....
....|..|R-- .... ....|R-- .... ....|--- .... ....
....|..|--- .... ....|R-- .... ....|--- .... ....
....|..|--- .... ....|--- .... ....|--- .... ....
 F-4|..|C-4 AF.F ....|F-5 2C.F ....|A#3 2F.7 ....
....|..|A#1 2F.7 ....|--- .... ....|A#3 2F77 ....
....|..|--- .... ....|R-- .... ....|--- .... ....
....|..|--- .... ....|--- .... ....|R-- .... ....
 F-4|..|A#1 2F.F ....|F-5 2C.F ....|A#2 2F.F ....
....|..|R-- .... ....|--- .... ....|R-- .... ....
....|..|--- .... ....|R-- .... ....|A#3 2F.7 ....
....|..|--- .... ....|--- .... ....|R-- .... ....
 F-4|..|C-4 AF.F ....|F-5 2C.F ....|C-3 2F.F ....
 C-4|..|C-2 2A.F ....|--- .F.. ....|C-4 2F7F ....
....|..|--- .... ....|R-- .... ....|--- .... ....
....|..|--- .... ....|--- .... ....|--- .... ....
 F-4|..|C-3 9F.7 ....|F-5 2C.F ....|C-5 2F.F ....
....|..|A#1 2F.7 ....|--- .... ....|E-4 2F.F ....
 C-4|..|C-2 2A.F ....|R-- .... ....|C-3 2F.F ....
....|..|--- .... ....|--- .... ....|R-- .... ....
 E-4|..|C-4 AF.F ....|E-5 2C.F ....|A#2 2F.7 ....
....|..|R-- .... ....|--- .... ....|--- .... ....
....|..|--- .... ....|R-- .... ....|--- .... ....
....|..|R-- .... ....|--- .... ....|R-- .... ....
 D-4|..|D-2 2A.F ....|R-- .... ....|D-3 2F.F ....
....|..|C-2 2F.A ....|--- .... ....|D-3 2F9F ....
....|..|--- .... ....|R-- .... ....|--- .... ....
....|..|--- .... ....|--- .... ....|--- .... ....
 D-4|..|C-4 AF.F ....|D-5 2C.F ....|F-5 2F.F ....
....|..|R-- .... ....|--- .... ....|R-- .... ....
....|..|C-2 2F.A ....|R-- .... ....|C-3 2F.A ....
....|..|--- .... ....|--- .... ....|R-- .... ....
....|..|A#1 2F.7 ....|F-5 2F.7 ....|D-4 2F.F ....
....|..|R-- .... ....|--- .... ....|--- .... ....
....|..|R-- .... ....|R-- .... ....|--- .... ....
....|..|R-- .... ....|--- .... ....|R-- .... ....
 G-4|..|C-4 AF.F ....|G-5 2C.F ....|C-3 2F.7 ....
....|..|C-2 2F.7 ....|--- .... ....|C-4 2F77 ....
....|..|--- .... ....|R-- .... ....|D-6 2F.F ....
....|..|--- .... ....|--- .... ....|--- .... ....
....|..|C-4 AF.A ....|F-5 2F.7 ....|C-5 2F.7 ....
....|..|R-- .... ....|--- .... ....|E-4 2F.7 ....
....|..|C-2 2F.7 ....|R-- .... ....|C-3 2F.7 ....
....|..|--- .... ....|--- .... ....|R-- .... ....

[Pattern10]
 F-4|..|C-4 AF.F ....|F-5 2C.F ....|A#3 2F.F ....
 A#3|..|A#1 2A.F ....|--- .F.. ....|A#3 2F7F ....
....|..|R-- .... ....|R-- .... ....|--- .... ....
....|..|R-- .... ....|--- .... ....|--- .... ....
....|..|D-2 2F.7 ....|R-- .... ....|A#3 2F8F ....
....|..|R-- .... ....|--- .... ....|D-3 2F97 ....
....|..|--- .... ....|R-- .... ....|A#3 2F.F ....
....|..|--- .... ....|--- .... ....|R-- .... ....
 F-4|..|C-4 AF.F ....|F-5 2C.F ....|A#4 2F.F ....
....|..|R-- .... ....|--- .... ....|R-- .... ....
....|..|--- .... ....|R-- .... ....|--- .... ....
....|..|--- .... ....|--- .... ....|--- .... ....
 F-4|..|C-3 9F.F ....|F-5 2C.F ....|A#3 2F.F ....
 A#3|..|A#1 2A.F ....|--- .F.. ....|A#3 2F7F ....
....|..|R-- .... ....|R-- .... ....|--- .... ....
....|..|--- .... ....|--- .... ....|R-- .... ....
 F-4|..|C-4 AF.F ....|F-5 2C.F ....|A#2 2F.F ....
....|..|R-- .... ....|--- .... ....|R-- .... ....
....|..|--- .... ....|--- .... ....|D-6 2F.7 ....
....|..|--- .... ....|--- .... ....|R-- .... ....
....|..|C-4 AF.A ....|R-- .... ....|R-- .... ....
....|..|R-- .... ....|--- .... ....|--- .... ....
....|..|--- .... ....|R-- .... ....|--- .... ....
....|..|--- .... ....|--- .... ....|--- .... ....
 F-4|..|C-4 AF.F ....|F-5 2C.F ....|A#3 2F.7 ....
....|..|A#1 2F.7 ....|--- .... ....|A#3 2F77 ....
....|..|--- .... ....|R-- .... ....|--- .... ....
....|..|--- .... ....|--- .... ....|R-- .... ....
 F-4|..|A#1 2F.F ....|F-5 2C.F ....|A#2 2F.F ....
....|..|R-- .... ....|--- .... ....|R-- .... ....
....|..|--- .... ....|R-- .... ....|A#3 2F.7 ....
....|..|--- .... ....|--- .... ....|R-- .... ....
 F-4|..|C-4 AF.F ....|F-5 2C.F ....|C-3 2F.F ....
 C-4|..|C-2 2A.F ....|--- .F.. ....|C-4 2F7F ....
....|..|--- .... ....|R-- .... ....|--- .... ....
....|..|--- .... ....|--- .... ....|--- .... ....
 F-4|..|C-3 9F.7 ....|F-5 2C.F ....|C-5 2F.F ....
....|..|A#1 2F.7 ....|--- .... ....|E-4 2F.F ....
 C-4|..|C-2 2A.F ....|R-- .... ....|C-3 2F.F ....
....|..|--- .... ....|--- .... ....|R-- .... ....
 F-4|..|C-4 AF.F ....|F-5 2C.F ....|A#2 2F.7 ....
....|..|R-- .... ....|--- .... ....|--- .... ....
....|..|--- .... ....|R-- .... ....|--- .... ....
....|..|R-- .... ....|--- .... ....|R-- .... ....
 D-4|..|D-2 2A.F ....|R-- .... ....|D-3 2F.F ....
....|..|C-2 2F.A ....|--- .... ....|D-3 2F9F ....
....|..|--- .... ....|R-- .... ....|--- .... ....
....|..|--- .... ....|--- .... ....|--- .... ....
 F-4|..|C-4 AF.F ....|F-5 2C.F ....|R-- .... ....
....|..|R-- .... ....|--- .... ....|E-4 2F.A ....
....|..|C-2 2F.A ....|R-- .... ....|C-3 2F.A ....
....|..|--- .... ....|--- .... ....|R-- .... ....
....|..|A#1 2F.7 ....|F-5 2F.7 ....|D-4 2F.F ....
....|..|R-- .... ....|--- .... ....|--- .... ....
....|..|R-- .... ....|R-- .... ....|--- .... ....
....|..|R-- .... ....|--- .... ....|R-- .... ....
 D-4|..|C-4 AF.F ....|D-5 2C.F ....|C-3 2F.7 ....
....|..|C-2 2F.7 ....|--- .... ....|C-4 2F77 ....
....|..|--- .... ....|R-- .... ....|D-5 2F.F ....
....|..|--- .... ....|--- .... ....|--- .... ....
....|..|C-4 AF.A ....|F-5 2F.7 ....|C-5 2F.7 ....
....|..|R-- .... ....|R-- .... ....|E-4 2F.7 ....
....|..|C-2 2F.7 ....|R-- .... ....|C-3 2F.7 ....
....|..|--- .... ....|--- .... ....|R-- .... ....

[Pattern11]
 D-4|..|C-4 AF.F ....|D-5 2C.F ....|G-2 2F.F ....
 G-3|..|G-1 2A.F ....|--- .F.. ....|G-3 2F3F ....
....|..|R-- .... ....|R-- .... ....|--- .... ....
....|..|R-- .... ....|--- .... ....|--- .... ....
....|..|D-2 2F.7 ....|D-5 2F.A ....|G-3 2FBF ....
....|..|R-- .... ....|R-- .... ....|D-3 2F97 ....
 D-4|..|--- .... ....|D-5 2C.F ....|G-2 2F.F ....
....|..|--- .... ....|--- .... ....|R-- .... ....
....|..|C-4 AF.F ....|F-5 2F.7 ....|G-3 2F.F ....
....|..|R-- .... ....|R-- .... ....|--- .... ....
....|..|--- .... ....|--- .... ....|--- .... ....
....|..|--- .... ....|R-- .... ....|--- .... ....
 D-4|..|C-3 9F.F ....|D-5 2C.F ....|G-2 2F.F ....
 G-3|..|G-1 2A.F ....|--- .F.. ....|G-3 2F3F ....
....|..|R-- .... ....|--- .... ....|--- .... ....
....|..|--- .... ....|--- .... ....|R-- .... ....
 A-3|..|C-4 AF.F ....|A-5 2C.F ....|D-6 2F.F ....
....|..|R-- .... ....|R-- .... ....|R-- .... ....
....|..|--- .... ....|D-5 2F.A ....|D-5 2F.7 ....
....|..|--- .... ....|--- .... ....|R-- .... ....
....|..|C-4 AF.A ....|--- .... ....|R-- .... ....
....|..|R-- .... ....|R-- .... ....|--- .... ....
....|..|--- .... ....|--- .... ....|--- .... ....
....|..|--- .... ....|R-- .... ....|--- .... ....
....|..|C-4 AF.F ....|D-5 2F.7 ....|D-6 2F.F ....
....|..|G-1 2F.7 ....|--- .... ....|G-3 2F37 ....
....|..|--- .... ....|R-- .... ....|--- .... ....
....|..|--- .... ....|--- .... ....|R-- .... ....
 A#3|..|A#1 2A.F ....|A-5 2F.A ....|A#2 2F.F ....
....|..|R-- .... ....|R-- .... ....|R-- .... ....
 G-3|..|G-1 2A.F ....|D-5 2F.7 ....|G-2 2F.F ....
....|..|R-- .... ....|--- .... ....|R-- .... ....
 D-4|..|C-4 AF.F ....|D-5 2C.F ....|D-3 2F.F ....
 D-4|..|D-2 2A.F ....|--- .... ....|D-3 2F9F ....
....|..|--- .... ....|--- .... ....|--- .... ....
....|..|--- .... ....|R-- .... ....|R-- .... ....
....|..|C-3 9F.7 ....|D-5 2F.7 ....|G-2 2F.7 ....
....|..|G-1 2F.7 ....|R-- .... ....|G-3 2F37 ....
 D-4|..|D-3 2C.F ....|D-5 2C.F ....|D-3 2F.F ....
....|..|--- .... ....|--- .... ....|R-- .... ....
....|..|C-4 AF.F ....|A-5 2F.7 ....|D-6 2F.7 ....
....|..|R-- .... ....|--- .... ....|--- .... ....
....|..|G-1 2F.A ....|--- .... ....|R-- .... ....
....|..|R-- .... ....|R-- .... ....|--- .... ....
 D-4|..|C-2 2F.F ....|D-5 2C.F ....|C-2 2F.F ....
....|..|D-2 2F.A ....|--- .... ....|C-4 2F7F ....
....|..|--- .... ....|--- .... ....|--- .... ....
....|..|--- .... ....|--- .... ....|R-- .... ....
 A-3|..|C-4 AF.F ....|A-5 2C.F ....|C-3 2F.F ....
....|..|R-- .... ....|R-- .... ....|--- .... ....
....|..|D-2 2F.A ....|R-- .... ....|D-3 2F.A ....
....|..|--- .... ....|--- .... ....|--- .... ....
 C-4|..|C-3 2C.F ....|--- .F.. ....|C-4 2F.F ....
....|..|R-- .... ....|--- .... ....|--- .... ....
....|..|G-1 2F.7 ....|R-- .... ....|G-2 2F.7 ....
....|..|R-- .... ....|R-- .... ....|--- .... ....
 G-4|..|C-4 AF.F ....|G-5 2C.F ....|C-3 2F.F ....
....|..|D-2 2F.7 ....|--- .... ....|D-3 2F97 ....
....|..|--- .... ....|--- .... ....|--- .... ....
....|..|--- .... ....|--- .... ....|C-5 2F.F ....
 C-4|..|C-3 2C.F ....|A-5 2F.A ....|C-5 2F.F ....
....|..|R-- .... ....|R-- .... ....|R-- .... ....
....|..|D-2 2F.7 ....|D-5 2F.7 ....|C-7 2F.F ....
....|..|--- .... ....|--- .... ....|C-7 2F.F ....

[Pattern12]
 F-4|..|C-4 AF.F ....|F-5 2C.F ....|C-7 2F.F ....
 A#3|..|A#1 2A.F ....|F-4 2F1F ....|A#3 2F7F ....
....|..|B-8 JF.F ....|F-4 2F1F ....|R-- .... ....
....|..|R-- .... ....|R-- .... ....|--- .... ....
....|..|C-3 RF.F ....|D-5 2F.7 ....|A#3 2F8F ....
....|..|R-- .... ....|--- .... ....|C-4 2F77 ....
....|..|B-8 JF.F ....|F-4 2F1F ....|A#3 2F.F ....
 A#3|..|A#1 2A.F ....|R-- .... ....|R-- .... ....
 F-4|..|C-4 AF.F ....|F-5 2C.F ....|A#4 2F.F ....
....|..|R-- .... ....|F-4 2F1F ....|R-- .... ....
....|..|B-8 JF.F ....|R-- .... ....|C-7 2F.A ....
....|..|R-- .... ....|--- .... ....|C-7 2F.A ....
 F-4|..|C-3 RF.F ....|F-5 2C.F ....|A#3 2F.F ....
 A#3|..|A#1 2A.F ....|F-4 2F1A ....|A#3 2F7F ....
....|..|B-8 JF.F ....|R-- .... ....|R-- .... ....
....|..|R-- .... ....|--- .... ....|R-- .... ....
 F-4|..|C-4 AF.F ....|F-5 2C.F ....|A#2 2F.F ....
....|..|R-- .... ....|--- .... ....|R-- .... ....
....|..|B-8 JF.F ....|F-4 2F1A ....|A#3 2F.A ....
....|..|R-- .... ....|R-- .... ....|C-5 2F.7 ....
....|..|C-3 RF.F ....|R-- .... ....|A-5 2F.F ....
....|..|R-- .... ....|F-4 2F1A ....|R-- .... ....
....|..|B-8 JF.F ....|R-- .... ....|C-7 2F.7 ....
....|..|R-- .... ....|--- .... ....|C-7 2F.7 ....
 F-4|..|C-4 AF.F ....|F-5 2C.F ....|C-7 2F.7 ....
....|..|A#1 2F.7 ....|F-4 2F17 ....|A#3 2F77 ....
....|..|B-8 JF.F ....|F-4 2F17 ....|R-- .... ....
....|..|R-- .... ....|--- .... ....|R-- .... ....
 F-4|..|C-3 RF.F ....|F-5 2C.F ....|A#2 2F.F ....
 A#3|..|A#1 2A.F ....|F-4 2F1F ....|R-- .... ....
....|..|B-8 JF.F ....|F-4 2F17 ....|A#3 2F.7 ....
....|..|A#1 2F.7 ....|R-- .... ....|R-- .... ....
 F-4|..|C-4 AF.F ....|F-5 2C.F ....|C-3 2F.F ....
 C-4|..|C-2 2A.F ....|G-4 2F1F ....|C-4 2F7F ....
....|..|B-8 JF.F ....|G-4 2F1F ....|--- .... ....
....|..|R-- .... ....|--- .... ....|--- .... ....
 F-4|..|C-3 RF.F ....|F-5 2C.F ....|C-5 2F.F ....
....|..|A#1 2F.7 ....|R-- .... ....|E-4 2F.F ....
....|..|B-8 JF.F ....|G-4 2F1F ....|C-3 2F.F ....
 C-4|..|C-2 2A.F ....|R-- .... ....|R-- .... ....
 F-4|..|C-4 AF.F ....|F-5 2C.F ....|A#2 2F.7 ....
....|..|R-- .... ....|G-4 2F1F ....|--- .... ....
....|..|B-8 JF.F ....|R-- .... ....|--- .... ....
....|..|R-- .... ....|--- .... ....|R-- .... ....
 F-4|..|C-3 RF.F ....|F-5 2C.F ....|D-3 2F.F ....
 D-4|..|D-2 2A.F ....|A-4 2F2F ....|D-3 2F9F ....
....|..|B-8 JF.F ....|R-- .... ....|--- .... ....
....|..|R-- .... ....|--- .... ....|--- .... ....
 F-4|..|C-4 AF.F ....|F-5 2C.F ....|R-- .... ....
....|..|R-- .... ....|R-- .... ....|E-4 2F.A ....
....|..|B-8 JF.F ....|R-- .... ....|C-3 2F.A ....
....|..|R-- .... ....|R-- .... ....|R-- .... ....
....|..|C-3 RF.F ....|A-4 2F2F ....|A-5 2F.F ....
 D-4|..|D-3 2C.F ....|F-4 2F17 ....|R-- .... ....
....|..|B-8 JF.F ....|R-- .... ....|--- .... ....
....|..|R-- .... ....|--- .... ....|R-- .... ....
 G-4|..|C-4 AF.F ....|G-5 2C.F ....|C-3 2F.7 ....
....|..|C-2 2F.7 ....|G-4 2F17 ....|C-4 2F77 ....
....|..|B-8 JF.F ....|G-4 2F17 ....|D-5 2F.F ....
 D-4|..|D-4 2C.F ....|--- .... ....|--- .... ....
....|..|C-3 RF.F ....|F-5 2F.7 ....|C-5 2F.7 ....
....|..|R-- .... ....|R-- .... ....|E-4 2F.7 ....
....|..|B-8 JF.F ....|G-4 2F17 ....|C-3 2F.7 ....
....|..|C-2 2F.7 ....|R-- .... ....|R-- .... ....

[Pattern13]
 F-4|..|C-4 AF.F ....|F-5 2C.F ....|A#3 2F.F ....
 A#3|..|A#1 2A.F ....|F-4 2F1F ....|A#3 2F7F ....
....|..|B-8 JF.F ....|F-4 2F1F ....|--- .... ....
....|..|R-- .... ....|--- .... ....|--- .... ....
....|..|C-3 RF.F ....|F-5 2F.7 ....|A#3 2F8F ....
....|..|D-2 2F.7 ....|A-4 2F27 ....|D-3 2F97 ....
....|..|B-8 JF.F ....|F-4 2F1F ....|A#3 2F.F ....
 A#3|..|A#1 2A.F ....|R-- .... ....|R-- .... ....
 F-4|..|C-4 AF.F ....|F-5 2C.F ....|A#4 2F.F ....
....|..|R-- .... ....|F-4 2F1F ....|--- .... ....
....|..|B-8 JF.F ....|R-- .... ....|--- .... ....
....|..|R-- .... ....|--- .... ....|--- .... ....
 F-4|..|C-3 RF.F ....|F-5 2C.F ....|A#3 2F.F ....
 A#3|..|A#1 2A.F ....|R-- .... ....|A#3 2F7F ....
....|..|B-8 JF.F ....|R-- .... ....|--- .... ....
....|..|R-- .... ....|--- .... ....|R-- .... ....
 F-4|..|C-4 AF.F ....|F-5 2C.F ....|A#2 2F.F ....
....|..|R-- .... ....|--- .... ....|R-- .... ....
....|..|B-8 JF.F ....|F-4 2F1A ....|D-5 2F.7 ....
....|..|D-4 2F.7 ....|R-- .... ....|R-- .... ....
....|..|C-3 RF.F ....|R-- .... ....|A-5 2F.F ....
....|..|R-- .... ....|R-- .... ....|R-- .... ....
....|..|B-8 JF.F ....|R-- .... ....|--- .... ....
....|..|R-- .... ....|--- .... ....|--- .... ....
 F-4|..|C-4 AF.F ....|F-5 2C.F ....|A#3 2F.7 ....
....|..|A#1 2F.7 ....|F-4 2F17 ....|A#3 2F77 ....
....|..|B-8 JF.F ....|F-4 2F17 ....|--- .... ....
....|..|R-- .... ....|--- .... ....|R-- .... ....
 F-4|..|C-3 RF.F ....|F-5 2C.F ....|A#2 2F.F ....
 A#3|..|A#1 2A.F ....|F-4 2F1F ....|R-- .... ....
....|..|B-8 JF.F ....|F-4 2F17 ....|A#3 2F.7 ....
....|..|A#1 2F.7 ....|R-- .... ....|R-- .... ....
 F-4|..|C-4 AF.F ....|F-5 2C.F ....|C-3 2F.F ....
 C-4|..|C-2 2A.F ....|G-4 2F1F ....|C-4 2F7F ....
....|..|B-8 JF.F ....|G-4 2F1F ....|--- .... ....
....|..|R-- .... ....|--- .... ....|--- .... ....
 F-4|..|C-3 RF.F ....|F-5 2C.F ....|C-5 2F.F ....
....|..|A#1 2F.7 ....|R-- .... ....|E-4 2F.F ....
....|..|B-8 JF.F ....|G-4 2F1F ....|C-3 2F.F ....
 C-4|..|C-2 2A.F ....|R-- .... ....|R-- .... ....
 E-4|..|C-4 AF.F ....|E-5 2C.F ....|A#2 2F.7 ....
....|..|R-- .... ....|G-4 2F1F ....|--- .... ....
....|..|B-8 JF.F ....|R-- .... ....|--- .... ....
....|..|R-- .... ....|--- .... ....|R-- .... ....
....|..|C-3 RF.F ....|A-4 2F2F ....|D-3 2F.F ....
 D-4|..|D-2 2A.F ....|R-- .... ....|D-3 2F9F ....
....|..|B-8 JF.F ....|R-- .... ....|--- .... ....
....|..|R-- .... ....|--- .... ....|--- .... ....
 D-4|..|C-4 AF.F ....|D-5 2C.F ....|F-5 2F.F ....
....|..|R-- .... ....|R-- .... ....|R-- .... ....
....|..|B-8 JF.F ....|R-- .... ....|C-3 2F.A ....
....|..|R-- .... ....|R-- .... ....|R-- .... ....
....|..|C-3 RF.F ....|A-4 2F2F ....|A-5 2F.F ....
 D-4|..|D-3 2C.F ....|F-4 2F17 ....|R-- .... ....
....|..|B-8 JF.F ....|R-- .... ....|--- .... ....
....|..|R-- .... ....|--- .... ....|R-- .... ....
 G-4|..|C-4 AF.F ....|G-5 2C.F ....|C-3 2F.7 ....
....|..|C-2 2F.7 ....|G-4 2F17 ....|C-4 2F77 ....
....|..|B-8 JF.F ....|G-4 2F17 ....|D-6 2F.F ....
 D-4|..|D-4 2C.F ....|--- .... ....|--- .... ....
....|..|C-3 RF.F ....|F-5 2F.7 ....|C-5 2F.7 ....
....|..|R-- .... ....|R-- .... ....|E-4 2F.7 ....
....|..|B-8 JF.F ....|G-4 2F17 ....|C-3 2F.7 ....
....|..|C-2 2F.7 ....|R-- .... ....|R-- .... ....

[Pattern14]
 F-4|..|C-4 AF.F ....|F-5 2C.F ....|A#3 2F.F ....
 A#3|..|A#1 2A.F ....|F-4 2F1F ....|A#3 2F7F ....
....|..|B-8 JF.F ....|F-4 2F1F ....|--- .... ....
....|..|R-- .... ....|--- .... ....|--- .... ....
....|..|C-3 RF.F ....|A-4 2F27 ....|A#3 2F8F ....
....|..|D-2 2F.7 ....|R-- .... ....|D-3 2F97 ....
....|..|B-8 JF.F ....|F-4 2F1F ....|A#3 2F.F ....
 A#3|..|A#1 2A.F ....|R-- .... ....|R-- .... ....
 F-4|..|C-4 AF.F ....|F-5 2C.F ....|A#4 2F.F ....
....|..|R-- .... ....|F-4 2F1F ....|R-- .... ....
....|..|B-8 JF.F ....|R-- .... ....|--- .... ....
....|..|R-- .... ....|--- .... ....|--- .... ....
 F-4|..|C-3 RF.F ....|F-5 2C.F ....|A#3 2F.F ....
 A#3|..|A#1 2A.F ....|R-- .... ....|A#3 2F7F ....
....|..|B-8 JF.F ....|R-- .... ....|--- .... ....
....|..|R-- .... ....|--- .... ....|R-- .... ....
 F-4|..|C-4 AF.F ....|F-5 2C.F ....|A#2 2F.F ....
....|..|R-- .... ....|--- .... ....|R-- .... ....
....|..|B-8 JF.F ....|F-4 2F1A ....|D-6 2F.7 ....
....|..|D-4 2F.7 ....|R-- .... ....|R-- .... ....
....|..|C-3 RF.F ....|R-- .... ....|A-5 2F.F ....
....|..|R-- .... ....|F-4 2F1A ....|R-- .... ....
....|..|B-8 JF.F ....|R-- .... ....|--- .... ....
....|..|R-- .... ....|--- .... ....|--- .... ....
 F-4|..|C-4 AF.F ....|F-5 2C.F ....|A#3 2F.7 ....
....|..|A#1 2F.7 ....|F-4 2F17 ....|A#3 2F77 ....
....|..|B-8 JF.F ....|F-4 2F17 ....|--- .... ....
....|..|R-- .... ....|--- .... ....|R-- .... ....
 F-4|..|C-3 RF.F ....|F-5 2C.F ....|A#2 2F.F ....
 A#3|..|A#1 2A.F ....|F-4 2F1F ....|R-- .... ....
....|..|B-8 JF.F ....|F-4 2F17 ....|A#3 2F.7 ....
....|..|A#1 2F.7 ....|R-- .... ....|R-- .... ....
 F-4|..|C-4 AF.F ....|F-5 2C.F ....|C-3 2F.F ....
 C-4|..|C-2 2A.F ....|G-4 2F1F ....|C-4 2F7F ....
....|..|B-8 JF.F ....|G-4 2F1F ....|--- .... ....
....|..|R-- .... ....|--- .... ....|--- .... ....
 F-4|..|C-3 RF.F ....|F-5 2C.F ....|C-5 2F.F ....
....|..|A#1 2F.7 ....|R-- .... ....|E-4 2F.F ....
....|..|B-8 JF.F ....|G-4 2F1F ....|C-3 2F.F ....
 C-4|..|C-2 2A.F ....|R-- .... ....|R-- .... ....
 F-4|..|C-4 AF.F ....|F-5 2C.F ....|A#2 2F.7 ....
....|..|R-- .... ....|G-4 2F1F ....|--- .... ....
....|..|B-8 JF.F ....|R-- .... ....|--- .... ....
....|..|R-- .... ....|--- .... ....|R-- .... ....
....|..|C-3 RF.F ....|A-4 2F2F ....|D-3 2F.F ....
 D-4|..|D-2 2A.F ....|R-- .... ....|D-3 2F9F ....
....|..|B-8 JF.F ....|G-4 2F1A ....|--- .... ....
....|..|R-- .... ....|--- .... ....|--- .... ....
 F-4|..|C-4 AF.F ....|F-5 2C.F ....|R-- .... ....
....|..|R-- .... ....|R-- .... ....|E-4 2F.A ....
....|..|B-8 JF.F ....|R-- .... ....|C-3 2F.A ....
....|..|R-- .... ....|R-- .... ....|R-- .... ....
....|..|C-3 RF.F ....|A-4 2F2F ....|A-5 2F.F ....
 D-4|..|D-3 2C.F ....|F-4 2F17 ....|R-- .... ....
....|..|B-8 JF.F ....|R-- .... ....|--- .... ....
....|..|R-- .... ....|--- .... ....|R-- .... ....
 D-4|..|C-4 AF.F ....|D-5 2C.F ....|C-3 2F.7 ....
....|..|C-2 2F.7 ....|G-4 2F17 ....|C-4 2F77 ....
....|..|B-8 JF.F ....|G-4 2F17 ....|D-5 2F.F ....
 D-4|..|D-4 2C.F ....|--- .... ....|--- .... ....
....|..|C-3 RF.F ....|F-5 2F.7 ....|C-5 2F.7 ....
....|..|R-- .... ....|R-- .... ....|E-4 2F.7 ....
....|..|B-8 JF.F ....|G-4 2F17 ....|C-3 2F.7 ....
....|..|C-2 2F.7 ....|R-- .... ....|R-- .... ....

[Pattern15]
 D-4|..|C-4 AF.F ....|D-5 2C.F ....|G-2 2F.F ....
 G-3|..|G-1 2A.F ....|G-4 2F3F ....|G-3 2F3F ....
....|..|B-8 JF.F ....|G-4 2F3F ....|--- .... ....
....|..|R-- .... ....|R-- .... ....|--- .... ....
....|..|C-3 RF.F ....|A-4 2F27 ....|G-3 2FBF ....
....|..|D-2 2F.7 ....|R-- .... ....|D-3 2F97 ....
 D-4|..|B-8 JF.F ....|D-5 2C.F ....|G-2 2F.F ....
 G-3|..|G-1 2A.F ....|G-4 2F3F ....|R-- .... ....
....|..|C-4 AF.F ....|G-4 2F3F ....|G-3 2F.F ....
....|..|R-- .... ....|R-- .... ....|--- .... ....
....|..|B-8 JF.F ....|--- .... ....|--- .... ....
....|..|R-- .... ....|R-- .... ....|--- .... ....
 D-4|..|C-3 RF.F ....|D-5 2C.F ....|G-2 2F.F ....
 G-3|..|G-1 2A.F ....|R-- .... ....|G-3 2F3F ....
....|..|B-8 JF.F ....|G-4 2F3A ....|--- .... ....
....|..|R-- .... ....|R-- .... ....|R-- .... ....
 A-3|..|C-4 AF.F ....|A-5 2C.F ....|D-6 2F.F ....
....|..|R-- .... ....|R-- .... ....|R-- .... ....
....|..|B-8 JF.F ....|D-5 2F.A ....|D-5 2F.7 ....
....|..|D-4 2F.7 ....|G-4 2F3A ....|R-- .... ....
....|..|C-3 RF.F ....|G-4 2F3A ....|A-5 2F.F ....
....|..|R-- .... ....|R-- .... ....|R-- .... ....
....|..|B-8 JF.F ....|--- .... ....|--- .... ....
....|..|R-- .... ....|R-- .... ....|--- .... ....
....|..|C-4 AF.F ....|D-5 2F.7 ....|D-6 2F.F ....
....|..|G-1 2F.7 ....|G-4 2F37 ....|G-3 2F37 ....
....|..|B-8 JF.F ....|G-4 2F37 ....|--- .... ....
....|..|R-- .... ....|R-- .... ....|R-- .... ....
....|..|C-3 RF.F ....|G-4 2F3F ....|A#2 2F.F ....
 A#3|..|A#1 2A.F ....|R-- .... ....|R-- .... ....
....|..|B-8 JF.F ....|D-5 2F.7 ....|G-2 2F.F ....
 G-3|..|G-1 2A.F ....|G-4 2F37 ....|R-- .... ....
 D-4|..|C-4 AF.F ....|D-5 2C.F ....|D-3 2F.F ....
 D-4|..|D-2 2A.F ....|F-4 2F4F ....|D-3 2F9F ....
....|..|B-8 JF.F ....|F-4 2F4F ....|--- .... ....
....|..|R-- .... ....|R-- .... ....|R-- .... ....
....|..|C-3 RF.F ....|D-5 2F.7 ....|G-2 2F.7 ....
....|..|G-1 2F.7 ....|R-- .... ....|G-3 2F37 ....
 D-4|..|B-8 JF.F ....|D-5 2C.F ....|D-3 2F.F ....
 D-4|..|D-2 2A.F ....|F-4 2F4F ....|R-- .... ....
....|..|C-4 AF.F ....|F-4 2F4F ....|D-6 2F.7 ....
....|..|R-- .... ....|R-- .... ....|--- .... ....
....|..|B-8 JF.F ....|--- .... ....|R-- .... ....
....|..|R-- .... ....|R-- .... ....|--- .... ....
 D-4|..|C-3 RF.F ....|D-5 2C.F ....|C-2 2F.F ....
 C-4|..|C-2 2A.F ....|E-4 2F5F ....|C-4 2F7F ....
....|..|B-8 JF.F ....|R-- .... ....|--- .... ....
....|..|R-- .... ....|R-- .... ....|R-- .... ....
 A-3|..|C-4 AF.F ....|A-5 2C.F ....|C-3 2F.F ....
....|..|R-- .... ....|R-- .... ....|--- .... ....
....|..|B-8 JF.F ....|R-- .... ....|D-3 2F.A ....
....|..|R-- .... ....|F-4 2F4A ....|--- .... ....
 D-4|..|C-3 RF.F ....|D-5 2C.F ....|A-5 2F.F ....
 C-4|..|C-3 2C.F ....|E-4 2F5F ....|R-- .... ....
....|..|B-8 JF.F ....|R-- .... ....|G-2 2F.7 ....
....|..|G-1 2F.7 ....|R-- .... ....|--- .... ....
 D-4|..|C-4 AF.F ....|D-5 2C.F ....|C-3 2F.F ....
....|..|D-2 2F.7 ....|F-4 2F47 ....|D-3 2F97 ....
....|..|B-8 JF.F ....|F-4 2F47 ....|--- .... ....
....|..|R-- .... ....|R-- .... ....|C-5 2F.F ....
 D-4|..|C-3 RF.F ....|D-5 2C.F ....|C-5 2F.F ....
 C-4|..|C-3 2C.F ....|R-- .... ....|R-- .... ....
....|..|B-8 JF.F ....|D-5 2F.7 ....|C-7 2F.F ....
....|..|D-2 2F.7 ....|F-4 2F47 ....|C-7 2F.F ....

[Pattern16]
 D-4|..|C-4 AF.F ....|D-5 2C.F ....|D-4 2F.F ....
....|..|R-- .... ....|R-- .... ....|R-- .... ....
....|..|B-8 JF.7 ....|R-- .... ....|R-- .... ....
....|..|R-- .... ....|R-- .... ....|--- .... ....
....|..|C-3 RF.7 ....|D-5 2F.7 ....|C-2 2F.7 ....
....|..|C-2 2F.7 ....|E-4 2F57 ....|C-4 2F77 ....
....|..|B-8 JF.7 ....|R-- .... ....|D-4 2F.F ....
....|..|R-- .... ....|--- .... ....|C-5 2F.A ....
 D-4|..|C-4 AF.F ....|D-5 2C.F ....|C-3 2F.7 ....
....|..|R-- .... ....|--- .... ....|R-- .... ....
....|..|B-8 JF.7 ....|R-- .... ....|C-7 2F.A ....
....|..|R-- .... ....|--- .... ....|R-- .... ....
 D-4|..|C-3 9F.F ....|D-5 2C.F ....|D-4 2F.F ....
....|..|C-3 2F.7 ....|E-4 2F57 ....|R-- .... ....
....|..|B-8 JF.7 ....|R-- .... ....|R-- .... ....
....|..|R-- .... ....|--- .... ....|--- .... ....
 D-4|..|C-4 AF.F ....|D-5 2C.F ....|C-3 2F.7 ....
....|..|R-- .... ....|--- .... ....|R-- .... ....
....|..|B-8 JF.7 ....|R-- .... ....|D-4 2F.A ....
....|..|R-- .... ....|--- .... ....|C-5 2F.7 ....
....|..|C-3 RF.7 ....|D-5 2F.7 ....|C-5 2F.7 ....
....|..|C-3 2F.7 ....|R-- .... ....|R-- .... ....
....|..|B-8 JF.7 ....|R-- .... ....|C-7 2F.7 ....
....|..|R-- .... ....|--- .... ....|C-7 2F.7 ....
 D-4|..|C-4 AF.F ....|D-5 2C.F ....|D-4 2F.7 ....
....|..|R-- .... ....|--- .... ....|--- .... ....
....|..|--- .... ....|R-- .... ....|R-- .... ....
....|..|--- .... ....|--- .... ....|--- .... ....
 D-4|..|C-4 AF.A ....|D-5 2C.F ....|D-4 2F.F ....
....|..|R-- .... ....|--- .... ....|R-- .... ....
....|..|--- .... ....|R-- .... ....|D-4 2F.7 ....
....|..|--- .... ....|--- .... ....|R-- .... ....
 D-4|..|C-4 AF.F ....|D-5 2C.F ....|E-4 2F.F ....
....|..|R-- .... ....|R-- .... ....|--- .... ....
....|..|--- .... ....|R-- .... ....|--- .... ....
....|..|--- .... ....|--- .... ....|R-- .... ....
 D-4|..|C-3 9F.7 ....|D-5 2C.F ....|D-4 2F.7 ....
....|..|R-- .... ....|--- .... ....|R-- .... ....
....|..|--- .... ....|R-- .... ....|E-4 2F.F ....
....|..|--- .... ....|--- .... ....|--- .... ....
 D-4|..|C-4 AF.F ....|D-5 2C.F ....|R-- .... ....
....|..|R-- .... ....|--- .... ....|--- .... ....
....|..|--- .... ....|R-- .... ....|--- .... ....
....|..|--- .... ....|--- .... ....|R-- .... ....
 D-4|..|C-4 AF.A ....|D-5 2C.F ....|F-4 2F.F ....
....|..|R-- .... ....|R-- .... ....|--- .... ....
....|..|--- .... ....|R-- .... ....|--- .... ....
....|..|--- .... ....|--- .... ....|--- .... ....
....|..|C-4 AF.F ....|D-5 2F.7 ....|--- .... ....
....|..|R-- .... ....|R-- .... ....|R-- .... ....
....|..|--- .... ....|R-- .... ....|R-- .... ....
....|..|--- .... ....|--- .... ....|--- .... ....
 D-4|..|C-4 AF.A ....|D-5 2C.F ....|F-4 2F.F ....
....|..|R-- .... ....|R-- .... ....|--- .... ....
....|..|--- .... ....|R-- .... ....|--- .... ....
....|..|--- .... ....|--- .... ....|R-- .... ....
 D-4|..|C-4 AF.F ....|D-5 2C.F ....|E-4 2F.7 ....
....|..|R-- .... ....|R-- .... ....|R-- .... ....
....|..|--- .... ....|R-- .... ....|F-4 2F.F ....
....|..|--- .... ....|--- .... ....|--- .... ....
 D-4|..|C-4 AF.A ....|D-5 2C.F ....|--- .... ....
....|..|R-- .... ....|R-- .... ....|R-- .... ....
....|..|--- .... ....|R-- .... ....|E-4 2F.7 ....
....|..|--- .... ....|--- .... ....|--- .... ....

[Pattern17]
 D-4|..|C-4 AF.F ....|D-5 2C.F ....|D-4 2F.F ....
....|..|R-- .... ....|R-- .... ....|--- .... ....
....|..|--- .... ....|R-- .... ....|--- .... ....
....|..|--- .... ....|--- .... ....|R-- .... ....
 D-4|..|C-4 AF.A ....|D-5 2C.F ....|F-4 2F.7 ....
....|..|R-- .... ....|R-- .... ....|R-- .... ....
....|..|--- .... ....|R-- .... ....|A-4 2F.F ....
....|..|--- .... ....|--- .... ....|--- .... ....
 D-4|..|C-4 AF.F ....|D-5 2C.F ....|--- .... ....
....|..|R-- .... ....|R-- .... ....|--- .... ....
....|..|--- .... ....|R-- .... ....|R-- .... ....
....|..|--- .... ....|--- .... ....|R-- .... ....
 D-4|..|C-3 9F.F ....|D-5 2C.F ....|D-4 2F.F ....
....|..|R-- .... ....|R-- .... ....|--- .... ....
....|..|--- .... ....|R-- .... ....|--- .... ....
....|..|--- .... ....|--- .... ....|--- .... ....
 D-4|..|C-4 AF.F ....|D-5 2C.F ....|R-- .... ....
....|..|R-- .... ....|R-- .... ....|R-- .... ....
....|..|--- .... ....|R-- .... ....|F-4 2F.7 ....
....|..|--- .... ....|--- .... ....|--- .... ....
 D-4|..|C-4 AF.A ....|D-5 2C.F ....|--- .... ....
....|..|R-- .... ....|R-- .... ....|--- .... ....
....|..|--- .... ....|R-- .... ....|R-- .... ....
....|..|--- .... ....|--- .... ....|R-- .... ....
 D-4|..|C-4 AF.F ....|D-5 2C.F ....|D-4 2F.7 ....
....|..|R-- .... ....|--- .... ....|--- .... ....
....|..|--- .... ....|R-- .... ....|--- .... ....
....|..|--- .... ....|--- .... ....|--- .... ....
 D-4|..|C-4 AF.A ....|D-5 2C.F ....|D-4 2F.F ....
....|..|R-- .... ....|R-- .... ....|R-- .... ....
....|..|--- .... ....|R-- .... ....|A-4 2F.7 ....
....|..|--- .... ....|--- .... ....|R-- .... ....
 D-4|..|C-4 AF.F ....|D-5 2C.F ....|E-4 2F.F ....
....|..|R-- .... ....|--- .... ....|--- .... ....
....|..|--- .... ....|R-- .... ....|--- .... ....
....|..|--- .... ....|--- .... ....|R-- .... ....
 D-4|..|C-3 9F.7 ....|D-5 2C.F ....|D-4 2F.7 ....
....|..|R-- .... ....|--- .... ....|R-- .... ....
....|..|--- .... ....|R-- .... ....|E-4 2F.F ....
....|..|--- .... ....|--- .... ....|--- .... ....
 D-4|..|C-4 AF.F ....|D-5 2C.F ....|R-- .... ....
....|..|R-- .... ....|R-- .... ....|--- .... ....
....|..|--- .... ....|R-- .... ....|--- .... ....
....|..|--- .... ....|--- .... ....|R-- .... ....
 D-4|..|C-4 AF.A ....|D-5 2C.F ....|F-4 2F.F ....
....|..|R-- .... ....|--- .... ....|--- .... ....
....|..|--- .... ....|R-- .... ....|--- .... ....
....|..|--- .... ....|--- .... ....|--- .... ....
....|..|C-4 AF.F ....|D-5 2F.7 ....|--- .... ....
....|..|R-- .... ....|--- .... ....|R-- .... ....
....|..|--- .... ....|R-- .... ....|R-- .... ....
....|..|--- .... ....|--- .... ....|--- .... ....
 D-4|..|C-4 AF.A ....|D-5 2C.F ....|F-4 2F.F ....
....|..|R-- .... ....|R-- .... ....|--- .... ....
....|..|--- .... ....|R-- .... ....|--- .... ....
....|..|--- .... ....|--- .... ....|R-- .... ....
 D-4|..|C-4 AF.F ....|D-5 2C.F ....|E-4 2F.7 ....
....|..|R-- .... ....|--- .... ....|R-- .... ....
....|..|--- .... ....|R-- .... ....|F-4 2F.F ....
....|..|--- .... ....|--- .... ....|--- .... ....
 D-4|..|C-4 AF.A ....|D-5 2C.F ....|--- .... ....
....|..|R-- .... ....|R-- .... ....|R-- .... ....
....|..|--- .... ....|R-- .... ....|E-4 2F.7 ....
....|..|--- .... ....|--- .... ....|--- .... ....

[Pattern18]
 D-4|..|C-4 AF.F ....|D-5 2C.F ....|D-4 2F.F ....
....|..|R-- .... ....|R-- .... ....|--- .... ....
 D-4|..|--- .... ....|D-5 2C.F ....|--- .... ....
....|..|--- .... ....|--- .... ....|R-- .... ....
 D-4|..|C-4 AF.A ....|D-5 2C.F ....|F-4 2F.7 ....
....|..|R-- .... ....|--- .... ....|R-- .... ....
....|..|--- .... ....|R-- .... ....|D-4 2F.F ....
....|..|--- .... ....|--- .... ....|--- .... ....
 D-4|..|C-4 AF.F ....|D-5 2C.F ....|--- .... ....
....|..|R-- .... ....|R-- .... ....|--- .... ....
....|..|--- .... ....|R-- .... ....|R-- .... ....
....|..|--- .... ....|--- .... ....|R-- .... ....
 D-4|..|C-3 9F.F ....|D-5 2C.F ....|D-4 2F.F ....
....|..|R-- .... ....|R-- .... ....|--- .... ....
....|..|--- .... ....|R-- .... ....|--- .... ....
....|..|--- .... ....|--- .... ....|--- .... ....
 D-4|..|C-4 AF.F ....|D-5 2C.F ....|R-- .... ....
....|..|R-- .... ....|--- .... ....|R-- .... ....
....|..|--- .... ....|R-- .... ....|F-4 2F.7 ....
....|..|--- .... ....|R-- .... ....|--- .... ....
....|..|C-4 AF.A ....|D-5 2F.7 ....|--- .... ....
....|..|R-- .... ....|R-- .... ....|--- .... ....
....|..|--- .... ....|R-- .... ....|R-- .... ....
....|..|--- .... ....|--- .... ....|R-- .... ....
 D-4|..|C-4 AF.F ....|D-5 2C.F ....|D-4 2F.7 ....
....|..|R-- .... ....|--- .... ....|--- .... ....
....|..|--- .... ....|D-5 2F.7 ....|--- .... ....
....|..|--- .... ....|--- .... ....|--- .... ....
 D-4|..|C-4 AF.A ....|D-5 2C.F ....|D-4 2F.F ....
....|..|R-- .... ....|--- .... ....|R-- .... ....
....|..|--- .... ....|R-- .... ....|D-4 2F.7 ....
....|..|--- .... ....|R-- .... ....|R-- .... ....
 D-4|..|C-4 AF.F ....|D-5 2C.F ....|E-4 2F.F ....
....|..|R-- .... ....|--- .... ....|--- .... ....
....|..|--- .... ....|R-- .... ....|--- .... ....
....|..|--- .... ....|--- .... ....|R-- .... ....
 D-4|..|C-3 9F.7 ....|D-5 2C.F ....|D-4 2F.7 ....
....|..|R-- .... ....|--- .... ....|R-- .... ....
....|..|--- .... ....|R-- .... ....|E-4 2F.F ....
....|..|--- .... ....|--- .... ....|--- .... ....
 D-4|..|C-4 AF.F ....|D-5 2C.F ....|R-- .... ....
....|..|R-- .... ....|--- .... ....|--- .... ....
....|..|--- .... ....|R-- .... ....|--- .... ....
....|..|--- .... ....|R-- .... ....|R-- .... ....
 D-4|..|C-4 AF.A ....|D-5 2C.F ....|F-4 2F.F ....
....|..|R-- .... ....|--- .... ....|--- .... ....
....|..|--- .... ....|R-- .... ....|--- .... ....
....|..|--- .... ....|--- .... ....|--- .... ....
 D-4|..|C-4 AF.F ....|D-5 2C.F ....|--- .... ....
....|..|R-- .... ....|--- .... ....|R-- .... ....
....|..|--- .... ....|R-- .... ....|R-- .... ....
....|..|--- .... ....|R-- .... ....|--- .... ....
....|..|C-4 AF.A ....|D-5 2F.7 ....|F-4 2F.F ....
....|..|R-- .... ....|--- .... ....|--- .... ....
....|..|--- .... ....|R-- .... ....|--- .... ....
....|..|--- .... ....|--- .... ....|R-- .... ....
 D-4|..|C-4 AF.F ....|D-5 2C.F ....|E-4 2F.7 ....
....|..|R-- .... ....|--- .... ....|R-- .... ....
....|..|--- .... ....|R-- .... ....|F-4 2F.F ....
....|..|--- .... ....|--- .... ....|--- .... ....
 D-4|..|C-4 AF.A ....|D-5 2C.F ....|--- .... ....
....|..|R-- .... ....|--- .... ....|R-- .... ....
....|..|--- .... ....|R-- .... ....|E-4 2F.7 ....
....|..|--- .... ....|R-- .... ....|--- .... ....

[Pattern19]
 D-4|..|C-4 AF.F ....|D-5 2C.F ....|A#3 2F.F ....
....|..|R-- .... ....|--- .... ....|--- .... ....
....|..|--- .... ....|R-- .... ....|--- .... ....
....|..|--- .... ....|--- .... ....|R-- .... ....
 D-4|..|C-4 AF.A ....|D-5 2C.F ....|F-4 2F.7 ....
....|..|R-- .... ....|--- .... ....|R-- .... ....
....|..|--- .... ....|R-- .... ....|F-4 2F.F ....
....|..|--- .... ....|--- .... ....|--- .... ....
 D-4|..|C-4 AF.F ....|D-5 2C.F ....|--- .... ....
....|..|R-- .... ....|--- .... ....|--- .... ....
....|..|--- .... ....|R-- .... ....|R-- .... ....
....|..|--- .... ....|R-- .... ....|R-- .... ....
 D-4|..|C-3 9F.F ....|D-5 2C.F ....|A#3 2F.F ....
....|..|R-- .... ....|--- .... ....|--- .... ....
....|..|--- .... ....|R-- .... ....|--- .... ....
....|..|--- .... ....|--- .... ....|--- .... ....
 D-4|..|C-4 AF.F ....|D-5 2C.F ....|R-- .... ....
....|..|R-- .... ....|--- .... ....|R-- .... ....
....|..|--- .... ....|R-- .... ....|F-4 2F.7 ....
....|..|--- .... ....|--- .... ....|--- .... ....
 D-4|..|C-4 AF.A ....|D-5 2C.F ....|--- .... ....
....|..|R-- .... ....|--- .... ....|--- .... ....
....|..|--- .... ....|R-- .... ....|R-- .... ....
....|..|--- .... ....|--- .... ....|R-- .... ....
 D-4|..|C-4 AF.F ....|D-5 2C.F ....|A#3 2F.7 ....
....|..|R-- .... ....|--- .... ....|--- .... ....
....|..|--- .... ....|R-- .... ....|--- .... ....
....|..|--- .... ....|--- .... ....|--- .... ....
 D-4|..|C-4 AF.A ....|D-5 2C.F ....|A#3 2F.F ....
....|..|R-- .... ....|--- .... ....|R-- .... ....
....|..|--- .... ....|R-- .... ....|F-4 2F.7 ....
....|..|--- .... ....|--- .... ....|--- .... ....
 D-4|..|C-4 AF.7 ....|D-5 2C.F ....|R-- .... ....
....|..|R-- .... ....|--- .... ....|--- .... ....
....|..|--- .... ....|R-- .... ....|--- .... ....
....|..|--- .... ....|--- .... ....|R-- .... ....
 D-4|..|C-3 9F.7 ....|D-5 2C.F ....|A#3 2F.7 ....
....|..|R-- .... ....|--- .... ....|--- .... ....
....|..|--- .... ....|R-- .... ....|--- .... ....
....|..|--- .... ....|--- .... ....|--- .... ....
 D-4|..|C-4 AF.7 ....|D-5 2C.F ....|R-- .... ....
....|..|R-- .... ....|--- .... ....|--- .... ....
....|..|--- .... ....|R-- .... ....|--- .... ....
....|..|--- .... ....|--- .... ....|--- .... ....
 D-4|..|--- .... ....|D-5 2C.F ....|R-- .... ....
....|..|--- .... ....|--- .... ....|--- .... ....
....|..|--- .... ....|R-- .... ....|--- .... ....
....|..|--- .... ....|--- .... ....|--- .... ....
 D-4|..|C-4 AF.7 ....|D-5 2C.F ....|--- .... ....
....|..|R-- .... ....|--- .... ....|--- .... ....
....|..|--- .... ....|R-- .... ....|--- .... ....
....|..|--- .... ....|--- .... ....|--- .... ....
 D-4|..|--- .... ....|D-5 2C.F ....|A#3 2F.7 ....
....|..|--- .... ....|--- .... ....|--- .... ....
....|..|--- .... ....|R-- .... ....|--- .... ....
....|..|--- .... ....|--- .... ....|--- .... ....
 D-4|..|--- .... ....|D-5 2C.F ....|R-- .... ....
....|..|--- .... ....|--- .... ....|--- .... ....
 D-4|..|--- .... ....|D-5 2C.F ....|--- .... ....
....|..|--- .... ....|--- .... ....|--- .... ....
 D-4|..|--- .... ....|D-5 2C.F ....|--- .... ....
....|..|--- .... ....|--- .... ....|--- .... ....
 D-4|..|--- .... ....|D-5 2C.F ....|--- .... ....
....|..|--- .... ....|--- .... ....|--- .... ....

[Pattern20]
 D-4|..|C-4 AF.F ....|D-5 2C.F ....|D-5 2F.F ....
 A#3|..|A#1 2A.F ....|--- .F.. ....|A#3 2F7F ....
 D-4|..|--- .F.. ....|D-5 2C.F ....|--- .... ....
....|..|--- .... ....|R-- .... ....|--- .... ....
 D-4|..|B-8 JF.F ....|D-5 2C.F ....|A#3 2F8F ....
....|..|R-- .... ....|R-- .... ....|R-- .... ....
 D-4|..|--- .... ....|D-5 2C.F ....|D-5 2F.F ....
....|..|--- .... ....|R-- .... ....|--- .... ....
 D-4|..|C-4 AF.F ....|D-5 2C.F ....|--- .... ....
....|..|R-- .... ....|R-- .... ....|--- .... ....
....|..|--- .... ....|D-5 2F.A ....|--- .... ....
....|..|--- .... ....|--- .... ....|R-- .... ....
 D-4|..|C-4 AF.F ....|D-5 2C.F ....|D-5 2F.F ....
....|..|R-- .... ....|R-- .... ....|A#3 2F7F ....
....|..|--- .... ....|D-5 2F.A ....|--- .... ....
....|..|--- .... ....|R-- .... ....|R-- .... ....
 D-4|..|C-4 AF.F ....|D-5 2C.F ....|R-- .... ....
....|..|R-- .... ....|R-- .... ....|R-- .... ....
....|..|--- .... ....|D-5 2F.7 ....|D-5 2F.A ....
....|..|--- .... ....|R-- .... ....|--- .... ....
....|..|B-8 JF.F ....|D-5 2F.7 ....|D-5 2F.F ....
....|..|R-- .... ....|R-- .... ....|--- .... ....
....|..|--- .... ....|D-5 2F.7 ....|R-- .... ....
....|..|--- .... ....|--- .... ....|R-- .... ....
 D-4|..|C-4 AF.F ....|D-5 2C.F ....|D-5 2F.7 ....
....|..|A#1 2F.7 ....|R-- .... ....|A#3 2F77 ....
....|..|--- .... ....|D-5 2F.7 ....|--- .... ....
....|..|--- .... ....|R-- .... ....|R-- .... ....
....|..|B-8 JF.F ....|D-5 2F.7 ....|D-5 2F.F ....
....|..|R-- .... ....|R-- .... ....|R-- .... ....
....|..|--- .... ....|D-5 2F.7 ....|D-5 2F.7 ....
....|..|--- .... ....|R-- .... ....|R-- .... ....
 D-4|..|C-4 AF.F ....|D-5 2C.F ....|E-5 2F.F ....
....|..|R-- .... ....|R-- .... ....|C-4 2F7F ....
....|..|--- .... ....|--- .... ....|R-- .... ....
....|..|--- .... ....|--- .... ....|R-- .... ....
 D-4|..|B-8 JF.F ....|D-5 2C.F ....|E-4 2F.F ....
....|..|R-- .... ....|R-- .... ....|A#3 2F77 ....
 D-4|..|--- .... ....|D-5 2C.F ....|E-5 2F.F ....
....|..|--- .... ....|--- .... ....|R-- .... ....
 D-4|..|C-4 AF.F ....|D-5 2C.F ....|R-- .... ....
....|..|R-- .... ....|--- .... ....|--- .... ....
 D-4|..|--- .... ....|D-5 2C.F ....|--- .... ....
....|..|--- .... ....|--- .... ....|R-- .... ....
 D-4|..|C-4 AF.F ....|D-5 2C.F ....|F-5 2F.F ....
....|..|R-- .... ....|--- .... ....|D-3 2F9F ....
....|..|--- .... ....|R-- .... ....|R-- .... ....
....|..|--- .... ....|--- .... ....|--- .... ....
 D-4|..|C-4 AF.F ....|D-5 2C.F ....|R-- .... ....
....|..|R-- .... ....|--- .... ....|R-- .... ....
....|..|--- .... ....|D-5 2F.A ....|R-- .... ....
....|..|--- .... ....|--- .... ....|--- .... ....
....|..|B-8 JF.F ....|R-- .... ....|F-5 2F.F ....
....|..|R-- .... ....|--- .... ....|--- .... ....
....|..|--- .... ....|D-5 2F.A ....|--- .... ....
....|..|--- .... ....|--- .... ....|R-- .... ....
 D-4|..|C-4 AF.F ....|D-5 2C.F ....|E-5 2F.7 ....
....|..|R-- .... ....|--- .... ....|C-4 2F77 ....
....|..|--- .... ....|R-- .... ....|F-5 2F.F ....
....|..|--- .... ....|--- .... ....|--- .... ....
 D-4|..|B-8 JF.F ....|D-5 2C.F ....|E-4 2F.7 ....
....|..|R-- .... ....|--- .... ....|R-- .... ....
 D-4|..|--- .... ....|D-5 2C.F ....|E-5 2F.7 ....
....|..|--- .... ....|--- .... ....|--- .... ....

[Pattern21]
 D-4|..|C-4 AF.F ....|D-5 2C.F ....|D-5 2F.F ....
....|..|R-- .... ....|--- .... ....|A#3 2F7F ....
 D-4|..|--- .... ....|D-5 2C.F ....|--- .... ....
....|..|--- .... ....|--- .... ....|F-3 2F1F ....
 D-4|..|B-8 JF.F ....|D-5 2C.F ....|F-5 2F.7 ....
....|..|R-- .... ....|--- .... ....|D-3 2F97 ....
 D-4|..|--- .... ....|D-5 2C.F ....|A-5 2F.F ....
....|..|--- .... ....|--- .... ....|--- .... ....
 D-4|..|C-4 AF.F ....|D-5 2C.F ....|R-- .... ....
....|..|R-- .... ....|--- .... ....|--- .... ....
 D-4|..|--- .... ....|D-5 2C.F ....|R-- .... ....
....|..|--- .... ....|--- .... ....|R-- .... ....
 D-4|..|C-4 AF.F ....|D-5 2C.F ....|D-5 2F.F ....
....|..|R-- .... ....|--- .... ....|A#3 2F7F ....
....|..|--- .... ....|R-- .... ....|F-3 2F1F ....
....|..|--- .... ....|--- .... ....|F-3 2FAF ....
 D-4|..|C-4 AF.F ....|D-5 2C.F ....|R-- .... ....
....|..|R-- .... ....|--- .... ....|R-- .... ....
....|..|--- .... ....|D-5 2F.A ....|F-5 2F.7 ....
....|..|--- .... ....|--- .... ....|--- .... ....
....|..|B-8 JF.F ....|D-5 2F.7 ....|D-5 2F.F ....
....|..|R-- .... ....|--- .... ....|--- .... ....
....|..|--- .... ....|D-5 2F.7 ....|R-- .... ....
....|..|--- .... ....|--- .... ....|R-- .... ....
 D-4|..|C-4 AF.F ....|D-5 2C.F ....|D-5 2F.7 ....
....|..|R-- .... ....|--- .... ....|A#3 2F77 ....
....|..|--- .... ....|D-5 2F.7 ....|F-3 2F1A ....
....|..|--- .... ....|--- .... ....|F-3 2F17 ....
....|..|B-8 JF.F ....|D-5 2F.7 ....|D-5 2F.F ....
....|..|R-- .... ....|--- .... ....|R-- .... ....
....|..|--- .... ....|D-5 2F.7 ....|A-5 2F.7 ....
....|..|--- .... ....|--- .... ....|R-- .... ....
....|..|C-4 AF.F ....|D-5 2F.7 ....|E-5 2F.F ....
....|..|R-- .... ....|--- .... ....|C-4 2F7F ....
....|..|--- .... ....|D-5 2F.7 ....|R-- .... ....
....|..|--- .... ....|--- .... ....|G-3 2F1F ....
....|..|B-8 JF.F ....|D-5 2F.7 ....|D-5 2F.7 ....
....|..|R-- .... ....|--- .... ....|A#3 2F77 ....
....|..|--- .... ....|R-- .... ....|E-5 2F.F ....
....|..|--- .... ....|--- .... ....|F-3 2FA7 ....
....|..|C-4 AF.F ....|D-5 2F.7 ....|R-- .... ....
....|..|R-- .... ....|--- .... ....|--- .... ....
....|..|--- .... ....|--- .... ....|--- .... ....
....|..|--- .... ....|--- .... ....|R-- .... ....
....|..|C-4 AF.F ....|R-- .... ....|F-5 2F.F ....
....|..|R-- .... ....|--- .... ....|D-3 2F9F ....
....|..|--- .... ....|--- .... ....|R-- .... ....
....|..|--- .... ....|--- .... ....|A-3 2F2F ....
....|..|C-4 AF.F ....|D-5 2F.7 ....|R-- .... ....
....|..|R-- .... ....|--- .... ....|R-- .... ....
....|..|--- .... ....|--- .... ....|R-- .... ....
....|..|--- .... ....|--- .... ....|--- .... ....
 D-4|..|B-8 JF.F ....|D-5 2C.F ....|F-5 2F.F ....
....|..|R-- .... ....|--- .... ....|--- .... ....
....|..|--- .... ....|--- .... ....|--- .... ....
....|..|--- .... ....|--- .... ....|R-- .... ....
 D-4|..|C-4 AF.F ....|D-5 2C.F ....|E-5 2F.7 ....
....|..|R-- .... ....|--- .... ....|C-4 2F77 ....
....|..|--- .... ....|--- .... ....|F-5 2F.F ....
....|..|--- .... ....|--- .... ....|G-3 2F17 ....
 D-4|..|B-8 JF.F ....|D-5 2C.F ....|R-- .... ....
 A-3|..|A-1 2A.F ....|--- .F.. ....|R-- .... ....
....|..|--- .... ....|--- .... ....|E-5 2F.7 ....
....|..|--- .... ....|--- .... ....|--- .... ....

[Pattern22]
 D-4|..|C-4 AF.F ....|D-5 2C.F ....|D-5 2F.F ....
 A#3|..|A#1 2A.F ....|--- .F.. ....|A#3 2F7F ....
 D-4|..|--- .F.. ....|D-5 2C.F ....|--- .... ....
....|..|--- .... ....|--- .... ....|F-3 2F1F ....
 D-4|..|B-8 JF.F ....|D-5 2C.F ....|D-4 2F.F ....
....|..|R-- .... ....|--- .... ....|D-3 2F97 ....
 D-4|..|--- .... ....|D-5 2C.F ....|D-5 2F.F ....
....|..|--- .... ....|--- .... ....|A-3 2F27 ....
 D-4|..|C-4 AF.F ....|D-5 2C.F ....|R-- .... ....
....|..|R-- .... ....|--- .... ....|--- .... ....
....|..|--- .... ....|R-- .... ....|R-- .... ....
....|..|--- .... ....|--- .... ....|R-- .... ....
 D-4|..|C-4 AF.F ....|D-5 2C.F ....|D-5 2F.F ....
....|..|R-- .... ....|--- .... ....|A#3 2F7F ....
....|..|--- .... ....|R-- .... ....|--- .... ....
....|..|--- .... ....|--- .... ....|D-4 2F.F ....
 D-4|..|C-4 AF.F ....|D-5 2C.F ....|R-- .... ....
....|..|R-- .... ....|--- .... ....|R-- .... ....
....|..|--- .... ....|D-5 2F.A ....|F-5 2F.7 ....
....|..|--- .... ....|--- .... ....|--- .... ....
....|..|B-8 JF.F ....|D-5 2F.7 ....|D-5 2F.F ....
....|..|A-1 2F.7 ....|--- .... ....|--- .... ....
....|..|--- .... ....|R-- .... ....|R-- .... ....
....|..|--- .... ....|--- .... ....|R-- .... ....
 D-4|..|C-4 AF.F ....|D-5 2C.F ....|D-5 2F.7 ....
....|..|A#1 2F.7 ....|--- .... ....|A#3 2F77 ....
....|..|--- .... ....|D-5 2F.7 ....|--- .... ....
....|..|--- .... ....|--- .... ....|F-3 2F17 ....
 D-4|..|B-8 JF.F ....|D-5 2C.F ....|D-5 2F.F ....
....|..|R-- .... ....|--- .... ....|R-- .... ....
 D-4|..|--- .... ....|D-5 2C.F ....|D-5 2F.7 ....
....|..|--- .... ....|--- .... ....|R-- .... ....
 D-4|..|C-4 AF.F ....|D-5 2C.F ....|E-5 2F.F ....
....|..|R-- .... ....|--- .... ....|C-4 2F7F ....
 D-4|..|--- .... ....|D-5 2C.F ....|R-- .... ....
....|..|--- .... ....|--- .... ....|R-- .... ....
....|..|B-8 JF.F ....|D-5 2F.7 ....|G-3 2FAF ....
....|..|R-- .... ....|--- .... ....|A#3 2F77 ....
....|..|--- .... ....|R-- .... ....|E-5 2F.F ....
....|..|--- .... ....|--- .... ....|D-4 2F.7 ....
 D-4|..|C-4 AF.F ....|D-5 2C.F ....|R-- .... ....
....|..|R-- .... ....|--- .... ....|--- .... ....
....|..|--- .... ....|R-- .... ....|--- .... ....
....|..|--- .... ....|--- .... ....|R-- .... ....
 D-4|..|C-4 AF.F ....|D-5 2C.F ....|F-5 2F.F ....
....|..|R-- .... ....|--- .... ....|D-3 2F9F ....
....|..|--- .... ....|R-- .... ....|R-- .... ....
....|..|--- .... ....|--- .... ....|--- .... ....
 D-4|..|C-4 AF.F ....|D-5 2C.F ....|R-- .... ....
....|..|R-- .... ....|--- .... ....|R-- .... ....
....|..|--- .... ....|--- .... ....|R-- .... ....
....|..|--- .... ....|--- .... ....|--- .... ....
....|..|B-8 JF.F ....|D-5 2F.7 ....|F-5 2F.F ....
....|..|R-- .... ....|--- .... ....|--- .... ....
....|..|--- .... ....|D-5 2F.7 ....|--- .... ....
....|..|--- .... ....|--- .... ....|R-- .... ....
 D-4|..|C-4 AF.F ....|D-5 2C.F ....|E-5 2F.7 ....
....|..|R-- .... ....|--- .... ....|C-4 2F77 ....
....|..|--- .... ....|D-5 2F.7 ....|F-5 2F.F ....
....|..|--- .... ....|--- .... ....|--- .... ....
....|..|C-4 AF.F ....|R-- .... ....|G-3 2FA7 ....
....|..|R-- .... ....|--- .... ....|R-- .... ....
....|..|--- .... ....|R-- .... ....|E-5 2F.7 ....
....|..|--- .... ....|--- .... ....|--- .... ....

[Pattern23]
 D-4|..|C-4 AF.F ....|D-5 2C.F ....|F-5 2F.A ....
....|..|R-- .... ....|--- .... ....|--- .... ....
....|..|C-4 AF.F ....|R-- .... ....|--- .... ....
....|..|R-- .... ....|--- .... ....|R-- .... ....
 D-4|..|C-4 AF.7 ....|D-5 2C.F ....|F-5 2F.7 ....
....|..|R-- .... ....|--- .... ....|D-3 2F97 ....
....|..|--- .... ....|R-- .... ....|F-5 2F.A ....
....|..|--- .... ....|--- .... ....|--- .... ....
 D-4|..|C-4 AF.7 ....|D-5 2C.F ....|R-- .... ....
....|..|R-- .... ....|--- .... ....|--- .... ....
....|..|--- .... ....|R-- .... ....|R-- .... ....
....|..|--- .... ....|--- .... ....|--- .... ....
 D-4|..|C-4 BF.F ....|D-5 2C.F ....|F-5 2F.7 ....
....|..|R-- .... ....|--- .... ....|--- .... ....
....|..|C-4 AF.A ....|R-- .... ....|--- .... ....
....|..|R-- .... ....|--- .... ....|--- .... ....
 D-4|..|C-4 AF.7 ....|D-5 2C.F ....|--- .... ....
....|..|R-- .... ....|--- .... ....|R-- .... ....
....|..|--- .... ....|--- .... ....|F-5 2F.7 ....
....|..|--- .... ....|--- .... ....|--- .... ....
....|..|C-4 AF.7 ....|R-- .... ....|--- .... ....
....|..|R-- .... ....|--- .... ....|--- .... ....
....|..|--- .... ....|R-- .... ....|R-- .... ....
....|..|--- .... ....|--- .... ....|--- .... ....
 D-4|..|C-4 AF.F ....|D-5 2C.F ....|--- .... ....
....|..|R-- .... ....|--- .... ....|--- .... ....
....|..|C-4 AF.7 ....|--- .... ....|--- .... ....
....|..|R-- .... ....|--- .... ....|--- .... ....
....|..|--- .... ....|D-5 2F.7 ....|--- .... ....
....|..|--- .... ....|--- .... ....|--- .... ....
....|..|--- .... ....|--- .... ....|--- .... ....
....|..|--- .... ....|--- .... ....|--- .... ....
 D-4|..|C-4 AF.F ....|D-5 2C.F ....|F-4 2F.F ....
 D-4|..|D-2 2A.F ....|--- .... ....|--- .... ....
....|..|--- .... ....|--- .... ....|--- .... ....
....|..|R-- .... ....|--- .... ....|--- .... ....
 D-4|..|C-4 BF.7 ....|D-5 2C.F ....|F-4 2F.F ....
....|..|R-- .... ....|--- .... ....|R-- .... ....
....|..|--- .... ....|--- .... ....|F-4 2F.F ....
....|..|--- .... ....|--- .... ....|--- .... ....
 D-4|..|--- .... ....|D-5 2C.F ....|R-- .... ....
....|..|--- .... ....|--- .... ....|--- .... ....
....|..|--- .... ....|--- .... ....|--- .... ....
....|..|--- .... ....|--- .... ....|--- .... ....
 D-4|..|C-4 AF.A ....|D-5 2C.F ....|F-4 2F.A ....
....|..|D-2 2F.A ....|--- .... ....|--- .... ....
....|..|--- .... ....|--- .... ....|--- .... ....
....|..|R-- .... ....|--- .... ....|--- .... ....
 D-4|..|C-4 AF.7 ....|D-5 2C.F ....|F-4 2F.A ....
....|..|R-- .... ....|--- .... ....|R-- .... ....
....|..|--- .... ....|--- .... ....|F-4 2F.A ....
....|..|--- .... ....|--- .... ....|--- .... ....
....|..|--- .... ....|R-- .... ....|R-- .... ....
....|..|--- .... ....|--- .... ....|--- .... ....
....|..|--- .... ....|--- .... ....|--- .... ....
....|..|--- .... ....|--- .... ....|--- .... ....
 G-4|..|C-4 AF.7 ....|G-5 2C.F ....|F-4 2F.7 ....
....|..|D-2 2F.7 ....|--- .... ....|--- .... ....
....|..|--- .... ....|--- .... ....|--- .... ....
....|..|R-- .... ....|--- .... ....|--- .... ....
....|..|--- .... ....|D-5 2F.7 ....|F-4 2F.7 ....
....|..|--- .... ....|--- .... ....|R-- .... ....
....|..|--- .... ....|R-- .... ....|F-4 2F.7 ....
....|..|--- .... ....|--- .... ....|--- .... ....

[Pattern24]
 F-4|..|C-4 AF.F ....|F-5 2C.F ....|A#3 2F.F ....
 A#3|..|A#1 2A.F ....|--- .F.. ....|A#3 2F7F ....
....|..|--- .... ....|--- .... ....|--- .... ....
....|..|--- .... ....|--- .... ....|--- .... ....
....|..|--- .... ....|D-5 2F.7 ....|A#3 2F8F ....
....|..|--- .... ....|--- .... ....|R-- .... ....
....|..|--- .... ....|--- .... ....|A#3 2F.F ....
....|..|--- .... ....|--- .... ....|R-- .... ....
 F-4|..|C-4 AF.F ....|F-5 2C.F ....|A#4 2F.F ....
....|..|R-- .... ....|--- .... ....|--- .... ....
....|..|--- .... ....|R-- .... ....|--- .... ....
....|..|--- .... ....|--- .... ....|--- .... ....
 F-4|..|C-3 9F.F ....|F-5 2C.F ....|A#3 2F.F ....
 A#3|..|A#1 2A.F ....|--- .F.. ....|A#3 2F7F ....
....|..|--- .... ....|R-- .... ....|--- .... ....
....|..|--- .... ....|--- .... ....|R-- .... ....
 F-4|..|C-4 AF.F ....|F-5 2C.F ....|A#2 2F.F ....
....|..|R-- .... ....|--- .... ....|R-- .... ....
....|..|--- .... ....|--- .... ....|A#3 2F.A ....
....|..|--- .... ....|--- .... ....|R-- .... ....
....|..|C-4 AF.A ....|R-- .... ....|R-- .... ....
....|..|R-- .... ....|--- .... ....|--- .... ....
....|..|--- .... ....|R-- .... ....|--- .... ....
....|..|--- .... ....|--- .... ....|--- .... ....
 F-4|..|C-4 AF.F ....|F-5 2C.F ....|A#3 2F.7 ....
....|..|A#1 2F.7 ....|--- .... ....|A#3 2F77 ....
....|..|--- .... ....|R-- .... ....|--- .... ....
....|..|--- .... ....|--- .... ....|R-- .... ....
 F-4|..|A#1 2F.F ....|F-5 2C.F ....|A#2 2F.F ....
....|..|R-- .... ....|--- .... ....|R-- .... ....
....|..|--- .... ....|R-- .... ....|A#3 2F.7 ....
....|..|--- .... ....|--- .... ....|R-- .... ....
 F-4|..|C-4 AF.F ....|F-5 2C.F ....|C-3 2F.F ....
 C-4|..|C-2 2A.F ....|--- .F.. ....|C-4 2F7F ....
....|..|--- .... ....|R-- .... ....|--- .... ....
....|..|--- .... ....|--- .... ....|--- .... ....
 F-4|..|C-3 9F.7 ....|F-5 2C.F ....|C-5 2F.F ....
....|..|A#1 2F.7 ....|--- .... ....|E-4 2F.F ....
 C-4|..|C-2 2A.F ....|R-- .... ....|C-3 2F.F ....
....|..|--- .... ....|--- .... ....|R-- .... ....
 F-4|..|C-4 AF.F ....|F-5 2C.F ....|A#2 2F.7 ....
....|..|R-- .... ....|--- .... ....|--- .... ....
....|..|--- .... ....|R-- .... ....|--- .... ....
....|..|R-- .... ....|--- .... ....|R-- .... ....
 F-4|..|D-2 2F.F ....|F-5 2C.F ....|D-3 2F.F ....
....|..|C-2 2F.A ....|--- .... ....|D-3 2F9F ....
....|..|--- .... ....|R-- .... ....|--- .... ....
....|..|--- .... ....|--- .... ....|--- .... ....
 F-4|..|C-4 AF.F ....|F-5 2C.F ....|R-- .... ....
....|..|R-- .... ....|--- .... ....|E-4 2F.A ....
....|..|C-2 2F.A ....|R-- .... ....|C-3 2F.A ....
....|..|--- .... ....|--- .... ....|R-- .... ....
....|..|A#1 2F.7 ....|F-5 2F.7 ....|D-4 2F.F ....
....|..|R-- .... ....|--- .... ....|--- .... ....
....|..|R-- .... ....|R-- .... ....|--- .... ....
....|..|R-- .... ....|--- .... ....|R-- .... ....
 G-4|..|C-4 AF.F ....|G-5 2C.F ....|C-3 2F.7 ....
....|..|C-2 2F.7 ....|--- .... ....|C-4 2F77 ....
....|..|--- .... ....|R-- .... ....|D-5 2F.F ....
....|..|--- .... ....|--- .... ....|--- .... ....
....|..|C-4 AF.A ....|F-5 2F.7 ....|C-5 2F.7 ....
....|..|R-- .... ....|R-- .... ....|E-4 2F.7 ....
....|..|C-2 2F.7 ....|R-- .... ....|C-3 2F.7 ....
....|..|--- .... ....|--- .... ....|R-- .... ....

[Pattern31]
 D-4|..|C-4 AF.F ....|D-5 2C.F ....|G-2 2F.F ....
 G-3|..|G-1 2A.F ....|G-4 2F3F ....|G-3 2F3F ....
....|..|B-8 JF.F ....|G-4 2F3F ....|--- .... ....
....|..|R-- .... ....|R-- .... ....|--- .... ....
....|..|C-3 RF.F ....|A-4 2F27 ....|G-3 2FBF ....
....|..|D-2 2F.7 ....|R-- .... ....|D-3 2F97 ....
 D-4|..|B-8 JF.F ....|D-5 2C.F ....|G-2 2F.F ....
 G-3|..|G-1 2A.F ....|G-4 2F3F ....|R-- .... ....
....|..|C-4 AF.F ....|G-4 2F3F ....|G-3 2F.F ....
....|..|R-- .... ....|R-- .... ....|--- .... ....
....|..|B-8 JF.F ....|--- .... ....|--- .... ....
....|..|R-- .... ....|R-- .... ....|--- .... ....
 D-4|..|C-3 RF.F ....|D-5 2C.F ....|G-2 2F.F ....
 G-3|..|G-1 2A.F ....|R-- .... ....|G-3 2F3F ....
....|..|B-8 JF.F ....|G-4 2F3A ....|--- .... ....
....|..|R-- .... ....|R-- .... ....|R-- .... ....
 A-3|..|C-4 AF.F ....|A-5 2C.F ....|D-6 2F.F ....
....|..|R-- .... ....|R-- .... ....|R-- .... ....
....|..|B-8 JF.F ....|D-5 2F.A ....|D-5 2F.7 ....
....|..|D-4 2F.7 ....|G-4 2F3A ....|R-- .... ....
....|..|C-3 RF.F ....|G-4 2F3A ....|A-5 2F.F ....
....|..|R-- .... ....|R-- .... ....|R-- .... ....
....|..|B-8 JF.F ....|--- .... ....|--- .... ....
....|..|R-- .... ....|R-- .... ....|--- .... ....
....|..|C-4 AF.F ....|D-5 2F.7 ....|D-6 2F.F ....
....|..|G-1 2F.7 ....|G-4 2F37 ....|G-3 2F37 ....
....|..|B-8 JF.F ....|G-4 2F37 ....|--- .... ....
....|..|R-- .... ....|R-- .... ....|R-- .... ....
....|..|C-3 RF.F ....|G-4 2F3F ....|A#2 2F.F ....
 A#3|..|A#1 2A.F ....|R-- .... ....|R-- .... ....
....|..|B-8 JF.F ....|D-5 2F.7 ....|G-2 2F.F ....
 G-3|..|G-1 2A.F ....|G-4 2F37 ....|R-- .... ....
 D-4|..|C-4 AF.F ....|D-5 2C.F ....|D-3 2F.F ....
 D-4|..|D-2 2A.F ....|F-4 2F4F ....|D-3 2F9F ....
....|..|B-8 JF.F ....|F-4 2F4F ....|--- .... ....
....|..|R-- .... ....|R-- .... ....|R-- .... ....
....|..|C-3 RF.F ....|D-5 2F.7 ....|G-2 2F.7 ....
....|..|G-1 2F.7 ....|R-- .... ....|G-3 2F37 ....
 D-4|..|B-8 JF.F ....|D-5 2C.F ....|D-3 2F.F ....
 D-4|..|D-2 2A.F ....|F-4 2F4F ....|R-- .... ....
....|..|C-4 AF.F ....|F-4 2F4F ....|D-6 2F.7 ....
....|..|R-- .... ....|R-- .... ....|--- .... ....
....|..|B-8 JF.F ....|--- .... ....|R-- .... ....
....|..|R-- .... ....|R-- .... ....|--- .... ....
 D-4|..|C-3 RF.F ....|D-5 2C.F ....|C-2 2F.F ....
 C-4|..|C-2 2A.F ....|E-4 2F5F ....|C-4 2F7F ....
....|..|B-8 JF.F ....|R-- .... ....|--- .... ....
....|..|R-- .... ....|R-- .... ....|R-- .... ....
 A-3|..|C-4 AF.F ....|A-5 2C.F ....|C-3 2F.F ....
....|..|R-- .... ....|R-- .... ....|--- .... ....
....|..|B-8 JF.F ....|R-- .... ....|D-3 2F.A ....
....|..|R-- .... ....|F-4 2F4A ....|--- .... ....
....|..|C-3 RF.F ....|E-4 2F5F ....|A-5 2F.F ....
 C-4|..|C-3 2C.F ....|R-- .... ....|R-- .... ....
....|..|B-8 JF.F ....|R-- .... ....|G-2 2F.7 ....
....|..|G-1 2F.7 ....|R-- .... ....|--- .... ....
 D-4|..|C-4 AF.F ....|D-5 2C.F ....|C-3 2F.F ....
....|..|D-2 2F.7 ....|F-4 2F47 ....|D-3 2F97 ....
....|..|B-8 JF.F ....|F-4 2F47 ....|--- .... ....
....|..|R-- .... ....|R-- .... ....|C-5 2F.F ....
....|..|C-3 RF.F ....|R-- .... ....|C-5 2F.F ....
 C-4|..|C-3 2C.F ....|R-- .... ....|R-- .... ....
....|..|B-8 JF.F ....|D-5 2F.7 ....|C-7 2F.F ....
....|..|D-2 2F.7 ....|F-4 2F47 ....|C-7 2F.F ....

[Pattern32]
 D-4|..|C-4 AF.F ....|D-5 2C.F ....|R-- .... ....
 A#3|..|A#2 2C.F ....|A#4 2F6F ....|R-- .... ....
....|..|B-8 JF.7 ....|R-- .... ....|R-- .... ....
....|..|R-- .... ....|R-- .... ....|--- .... ....
....|..|C-3 RF.7 ....|D-5 2F.7 ....|C-2 2F.7 ....
....|..|C-2 2F.7 ....|E-4 2F57 ....|C-4 2F77 ....
....|..|B-8 JF.7 ....|R-- .... ....|--- .... ....
....|..|R-- .... ....|--- .... ....|C-5 2F.A ....
 F-4|..|C-4 LF.F ....|F-5 2C.F ....|C-3 2F.7 ....
....|..|R-- .... ....|--- .... ....|R-- .... ....
....|..|B-8 JF.7 ....|--- .... ....|C-7 2F.A ....
....|..|R-- .... ....|R-- .... ....|C-7 2F.A ....
 G-4|..|C-3 RF.7 ....|G-5 2C.F ....|A-5 2F.7 ....
....|..|C-3 2F.7 ....|R-- .... ....|R-- .... ....
....|..|B-8 JF.7 ....|R-- .... ....|R-- .... ....
....|..|R-- .... ....|--- .... ....|--- .... ....
....|..|C-4 LF.F ....|D-5 2F.7 ....|C-3 2F.7 ....
....|..|R-- .... ....|--- .... ....|--- .... ....
....|..|B-8 JF.7 ....|--- .... ....|--- .... ....
....|..|R-- .... ....|R-- .... ....|C-5 2F.7 ....
 F-4|..|C-3 RF.7 ....|F-5 2C.F ....|C-5 2F.7 ....
....|..|C-3 2F.7 ....|--- .... ....|R-- .... ....
....|..|B-8 JF.7 ....|--- .... ....|C-7 2F.7 ....
....|..|R-- .... ....|R-- .... ....|C-7 2F.7 ....
....|..|C-4 LF.F ....|D-5 2F.7 ....|R-- .... ....
....|..|A#2 2F.7 ....|A#4 2F67 ....|--- .... ....
....|..|--- .... ....|R-- .... ....|R-- .... ....
....|..|--- .... ....|--- .... ....|--- .... ....
 D-4|..|C-4 LF.A ....|D-5 2C.F ....|--- .... ....
....|..|R-- .... ....|--- .... ....|--- .... ....
....|..|--- .... ....|--- .... ....|--- .... ....
....|..|--- .... ....|R-- .... ....|--- .... ....
....|..|C-4 LF.F ....|G-4 2F3F ....|--- .... ....
 G-4|..|G-2 2A.F ....|--- .... ....|--- .... ....
....|..|--- .... ....|--- .... ....|--- .... ....
....|..|--- .... ....|R-- .... ....|--- .... ....
....|..|C-4 LF.A ....|G-5 2F.7 ....|--- .... ....
....|..|R-- .... ....|--- .... ....|--- .... ....
....|..|--- .... ....|R-- .... ....|--- .... ....
....|..|--- .... ....|--- .... ....|--- .... ....
 F-4|..|C-4 LF.F ....|F-5 2C.F ....|--- .... ....
....|..|R-- .... ....|--- .... ....|--- .... ....
....|..|--- .... ....|--- .... ....|--- .... ....
....|..|--- .... ....|R-- .... ....|--- .... ....
 G-4|..|C-4 LF.A ....|G-5 2C.F ....|--- .... ....
....|..|G-2 2F.A ....|--- .... ....|--- .... ....
....|..|--- .... ....|--- .... ....|--- .... ....
....|..|--- .... ....|--- .... ....|--- .... ....
....|..|C-4 LF.F ....|--- .... ....|--- .... ....
....|..|R-- .... ....|--- .... ....|--- .... ....
....|..|--- .... ....|R-- .... ....|--- .... ....
....|..|--- .... ....|R-- .... ....|--- .... ....
 F-4|..|C-4 LF.A ....|F-5 2C.F ....|--- .... ....
....|..|R-- .... ....|--- .... ....|--- .... ....
....|..|--- .... ....|--- .... ....|--- .... ....
....|..|--- .... ....|--- .... ....|--- .... ....
....|..|C-4 LF.F ....|G-4 2F37 ....|--- .... ....
....|..|G-2 2F.7 ....|--- .... ....|--- .... ....
....|..|--- .... ....|--- .... ....|--- .... ....
....|..|--- .... ....|R-- .... ....|--- .... ....
 D-4|..|C-4 LF.A ....|D-5 2C.F ....|--- .... ....
....|..|R-- .... ....|--- .... ....|--- .... ....
....|..|--- .... ....|R-- .... ....|--- .... ....
....|..|--- .... ....|R-- .... ....|--- .... ....

[Pattern33]
....|..|C-4 LF.F ....|D-4 2F3F ....|--- .... ....
 D-4|..|D-3 2C.F ....|--- .... ....|--- .... ....
....|..|--- .... ....|--- .... ....|--- .... ....
....|..|--- .... ....|--- .... ....|--- .... ....
....|..|C-4 LF.A ....|G-5 2F.7 ....|--- .... ....
....|..|R-- .... ....|--- .... ....|--- .... ....
....|..|--- .... ....|R-- .... ....|--- .... ....
....|..|--- .... ....|R-- .... ....|--- .... ....
 A-3|..|C-4 LF.F ....|A-5 2C.F ....|--- .... ....
....|..|R-- .... ....|--- .... ....|--- .... ....
....|..|--- .... ....|--- .... ....|--- .... ....
....|..|--- .... ....|R-- .... ....|--- .... ....
 G-4|..|C-4 LF.A ....|G-5 2C.F ....|--- .... ....
....|..|D-3 2F.A ....|--- .... ....|--- .... ....
....|..|--- .... ....|--- .... ....|--- .... ....
....|..|--- .... ....|--- .... ....|--- .... ....
....|..|C-4 LF.F ....|--- .... ....|--- .... ....
....|..|R-- .... ....|--- .... ....|--- .... ....
....|..|--- .... ....|R-- .... ....|--- .... ....
....|..|--- .... ....|R-- .... ....|--- .... ....
 F-4|..|C-4 LF.A ....|F-5 2C.F ....|--- .... ....
....|..|R-- .... ....|--- .... ....|--- .... ....
....|..|--- .... ....|--- .... ....|--- .... ....
....|..|--- .... ....|--- .... ....|--- .... ....
....|..|C-4 LF.F ....|D-4 2F37 ....|--- .... ....
....|..|D-3 2F.7 ....|--- .... ....|--- .... ....
....|..|--- .... ....|R-- .... ....|--- .... ....
....|..|--- .... ....|--- .... ....|--- .... ....
 E-4|..|C-4 LF.A ....|E-5 2C.F ....|--- .... ....
....|..|R-- .... ....|--- .... ....|--- .... ....
....|..|--- .... ....|R-- .... ....|--- .... ....
....|..|--- .... ....|--- .... ....|--- .... ....
....|..|C-4 LF.F ....|C-4 2F6F ....|--- .... ....
 C-4|..|C-3 2C.F ....|--- .... ....|--- .... ....
....|..|--- .... ....|--- .... ....|--- .... ....
....|..|--- .... ....|R-- .... ....|--- .... ....
 E-4|..|C-4 LF.A ....|E-5 2C.F ....|--- .... ....
....|..|R-- .... ....|--- .... ....|--- .... ....
....|..|--- .... ....|R-- .... ....|--- .... ....
....|..|--- .... ....|R-- .... ....|--- .... ....
 D-4|..|C-4 LF.F ....|D-5 2C.F ....|--- .... ....
....|..|R-- .... ....|--- .... ....|--- .... ....
....|..|--- .... ....|R-- .... ....|--- .... ....
....|..|--- .... ....|R-- .... ....|--- .... ....
 E-4|..|C-4 LF.A ....|E-5 2C.F ....|--- .... ....
....|..|C-3 2F.A ....|--- .... ....|--- .... ....
....|..|--- .... ....|--- .... ....|--- .... ....
....|..|--- .... ....|R-- .... ....|--- .... ....
....|..|C-4 LF.F ....|E-5 2F.A ....|--- .... ....
....|..|R-- .... ....|R-- .... ....|--- .... ....
....|..|--- .... ....|R-- .... ....|--- .... ....
....|..|--- .... ....|R-- .... ....|--- .... ....
 F-4|..|C-4 LF.A ....|F-5 2C.F ....|--- .... ....
....|..|R-- .... ....|--- .... ....|--- .... ....
....|..|--- .... ....|--- .... ....|--- .... ....
....|..|--- .... ....|R-- .... ....|--- .... ....
....|..|C-4 LF.F ....|C-4 2F67 ....|--- .... ....
....|..|C-3 2F.7 ....|--- .... ....|--- .... ....
....|..|--- .... ....|R-- .... ....|--- .... ....
....|..|--- .... ....|R-- .... ....|--- .... ....
....|..|C-4 LF.A ....|E-5 2F.7 ....|--- .... ....
....|..|R-- .... ....|R-- .... ....|--- .... ....
....|..|--- .... ....|--- .... ....|--- .... ....
....|..|--- .... ....|R-- .... ....|--- .... ....

[Pattern34]
....|..|C-4 LF.F ....|A#4 2F6F ....|F-5 2F.F ....
 A#3|..|A#2 2C.F ....|--- .... ....|R-- .... ....
....|..|--- .... ....|--- .... ....|--- .... ....
....|..|--- .... ....|R-- .... ....|--- .... ....
....|..|C-4 LF.A ....|E-5 2F.7 ....|--- .... ....
....|..|R-- .... ....|--- .... ....|--- .... ....
....|..|--- .... ....|R-- .... ....|--- .... ....
....|..|--- .... ....|--- .... ....|--- .... ....
 A-3|..|C-4 LF.F ....|A-5 2C.F ....|F-5 2F.F ....
....|..|R-- .... ....|R-- .... ....|R-- .... ....
....|..|--- .... ....|--- .... ....|--- .... ....
....|..|--- .... ....|--- .... ....|--- .... ....
 G-4|..|C-4 LF.A ....|G-5 2C.F ....|F-5 2F.A ....
....|..|A#2 2F.A ....|--- .... ....|R-- .... ....
....|..|--- .... ....|--- .... ....|--- .... ....
....|..|--- .... ....|--- .... ....|--- .... ....
....|..|C-4 LF.F ....|--- .... ....|F-5 2F.F ....
....|..|R-- .... ....|--- .... ....|R-- .... ....
....|..|--- .... ....|R-- .... ....|--- .... ....
....|..|--- .... ....|--- .... ....|--- .... ....
 F-4|..|C-4 LF.A ....|F-5 2C.F ....|F-5 2F.A ....
....|..|R-- .... ....|--- .... ....|R-- .... ....
....|..|--- .... ....|--- .... ....|--- .... ....
....|..|--- .... ....|--- .... ....|--- .... ....
....|..|C-4 LF.F ....|A#4 2F67 ....|F-5 2F.F ....
....|..|A#2 2F.7 ....|--- .... ....|R-- .... ....
....|..|--- .... ....|--- .... ....|--- .... ....
....|..|--- .... ....|R-- .... ....|--- .... ....
 D-4|..|C-4 LF.A ....|D-5 2C.F ....|F-5 2F.A ....
....|..|R-- .... ....|--- .... ....|R-- .... ....
....|..|--- .... ....|R-- .... ....|--- .... ....
....|..|--- .... ....|--- .... ....|--- .... ....
....|..|C-4 LF.F ....|G-4 2F3F ....|F-5 2F.F ....
 G-4|..|G-2 2A.F ....|--- .... ....|R-- .... ....
....|..|--- .... ....|--- .... ....|--- .... ....
....|..|--- .... ....|--- .... ....|--- .... ....
....|..|C-4 LF.A ....|G-5 2F.7 ....|F-5 2F.A ....
....|..|R-- .... ....|--- .... ....|R-- .... ....
....|..|--- .... ....|R-- .... ....|--- .... ....
....|..|--- .... ....|R-- .... ....|--- .... ....
 F-4|..|C-4 LF.F ....|F-5 2C.F ....|F-5 2F.F ....
....|..|R-- .... ....|--- .... ....|R-- .... ....
....|..|--- .... ....|R-- .... ....|--- .... ....
....|..|--- .... ....|R-- .... ....|--- .... ....
 G-4|..|C-4 LF.A ....|G-5 2C.F ....|F-5 2F.A ....
....|..|G-2 2F.A ....|--- .... ....|R-- .... ....
....|..|--- .... ....|--- .... ....|--- .... ....
....|..|--- .... ....|--- .... ....|--- .... ....
....|..|C-4 LF.F ....|--- .... ....|F-5 2F.F ....
....|..|R-- .... ....|--- .... ....|R-- .... ....
....|..|--- .... ....|R-- .... ....|--- .... ....
....|..|--- .... ....|R-- .... ....|--- .... ....
 F-4|..|C-4 LF.A ....|F-5 2C.F ....|F-5 2F.A ....
....|..|R-- .... ....|--- .... ....|R-- .... ....
....|..|--- .... ....|--- .... ....|--- .... ....
....|..|--- .... ....|R-- .... ....|--- .... ....
....|..|C-4 LF.F ....|G-4 2F37 ....|F-5 2F.F ....
....|..|G-2 2F.7 ....|--- .... ....|R-- .... ....
....|..|--- .... ....|R-- .... ....|--- .... ....
....|..|--- .... ....|--- .... ....|--- .... ....
 D-4|..|C-4 LF.A ....|D-5 2C.F ....|F-5 2F.A ....
....|..|R-- .... ....|--- .... ....|R-- .... ....
....|..|--- .... ....|R-- .... ....|--- .... ....
....|..|--- .... ....|R-- .... ....|--- .... ....

[Pattern35]
....|..|C-4 LF.F ....|D-4 2F3F ....|F-5 2F.F ....
 D-4|..|D-3 2C.F ....|--- .... ....|R-- .... ....
....|..|--- .... ....|--- .... ....|--- .... ....
....|..|--- .... ....|R-- .... ....|--- .... ....
....|..|C-4 LF.A ....|G-5 2F.7 ....|F-5 2F.A ....
....|..|R-- .... ....|--- .... ....|R-- .... ....
....|..|--- .... ....|R-- .... ....|--- .... ....
....|..|--- .... ....|--- .... ....|--- .... ....
 A-3|..|C-4 LF.F ....|A-5 2C.F ....|F-5 2F.F ....
....|..|R-- .... ....|--- .... ....|R-- .... ....
....|..|--- .... ....|--- .... ....|--- .... ....
....|..|--- .... ....|R-- .... ....|--- .... ....
 G-4|..|C-4 LF.A ....|G-5 2C.F ....|F-5 2F.A ....
....|..|D-3 2F.A ....|--- .... ....|R-- .... ....
....|..|--- .... ....|--- .... ....|--- .... ....
....|..|--- .... ....|--- .... ....|--- .... ....
....|..|C-4 LF.F ....|--- .... ....|F-5 2F.F ....
....|..|R-- .... ....|--- .... ....|R-- .... ....
....|..|--- .... ....|R-- .... ....|--- .... ....
....|..|--- .... ....|--- .... ....|--- .... ....
 F-4|..|C-4 LF.A ....|F-5 2C.F ....|F-5 2F.A ....
....|..|R-- .... ....|--- .... ....|R-- .... ....
....|..|--- .... ....|--- .... ....|--- .... ....
....|..|--- .... ....|R-- .... ....|--- .... ....
....|..|C-4 LF.F ....|D-4 2F37 ....|F-5 2F.F ....
....|..|D-3 2F.7 ....|--- .... ....|R-- .... ....
....|..|--- .... ....|--- .... ....|--- .... ....
....|..|--- .... ....|R-- .... ....|--- .... ....
 E-4|..|C-4 LF.A ....|E-5 2C.F ....|F-5 2F.A ....
....|..|R-- .... ....|--- .... ....|R-- .... ....
....|..|--- .... ....|R-- .... ....|--- .... ....
....|..|--- .... ....|--- .... ....|--- .... ....
....|..|C-4 LF.F ....|C-4 2F6F ....|F-5 2F.F ....
 C-4|..|C-3 2C.F ....|--- .... ....|R-- .... ....
....|..|--- .... ....|--- .... ....|--- .... ....
....|..|--- .... ....|R-- .... ....|--- .... ....
 E-4|..|C-4 LF.A ....|E-5 2C.F ....|F-5 2F.A ....
....|..|R-- .... ....|--- .... ....|R-- .... ....
....|..|--- .... ....|--- .... ....|--- .... ....
....|..|--- .... ....|R-- .... ....|--- .... ....
 D-4|..|C-4 LF.F ....|D-5 2C.F ....|F-5 2F.F ....
....|..|R-- .... ....|--- .... ....|R-- .... ....
....|..|--- .... ....|R-- .... ....|--- .... ....
....|..|--- .... ....|R-- .... ....|--- .... ....
 E-4|..|C-4 LF.A ....|E-5 2C.F ....|F-5 2F.A ....
....|..|C-3 2F.A ....|--- .... ....|R-- .... ....
....|..|--- .... ....|--- .... ....|--- .... ....
....|..|--- .... ....|R-- .... ....|--- .... ....
....|..|C-4 LF.F ....|E-5 2F.A ....|F-5 2F.F ....
....|..|R-- .... ....|--- .... ....|R-- .... ....
....|..|--- .... ....|R-- .... ....|--- .... ....
....|..|--- .... ....|R-- .... ....|--- .... ....
 F-4|..|C-4 LF.A ....|F-5 2C.F ....|F-5 2F.A ....
....|..|R-- .... ....|--- .... ....|R-- .... ....
....|..|--- .... ....|--- .... ....|--- .... ....
....|..|--- .... ....|R-- .... ....|--- .... ....
 E-4|..|C-4 LF.F ....|E-5 2C.F ....|F-5 2F.F ....
....|..|C-3 2F.7 ....|--- .... ....|R-- .... ....
....|..|--- .... ....|--- .... ....|--- .... ....
....|..|--- .... ....|R-- .... ....|--- .... ....
....|..|C-4 LF.A ....|E-5 2F.7 ....|F-5 2F.A ....
....|..|R-- .... ....|--- .... ....|R-- .... ....
....|..|--- .... ....|R-- .... ....|--- .... ....
....|..|--- .... ....|R-- .... ....|--- .... ....

[Pattern36]
 D-4|..|C-4 AF.F ....|D-5 2C.F ....|F-5 2F.F ....
 A#3|..|A#2 2C.F ....|A#4 2F6F ....|R-- .... ....
....|..|--- .... ....|--- .... ....|--- .... ....
....|..|--- .... ....|R-- .... ....|--- .... ....
....|..|C-4 LF.A ....|E-5 2F.7 ....|F-5 2F.A ....
....|..|R-- .... ....|R-- .... ....|R-- .... ....
....|..|--- .... ....|--- .... ....|--- .... ....
....|..|--- .... ....|--- .... ....|--- .... ....
 A-3|..|C-4 AF.F ....|A-5 2C.F ....|F-5 2F.F ....
....|..|R-- .... ....|--- .... ....|R-- .... ....
....|..|--- .... ....|R-- .... ....|--- .... ....
....|..|--- .... ....|R-- .... ....|--- .... ....
 G-4|..|C-4 AF.A ....|G-5 2C.F ....|F-5 2F.A ....
....|..|A#2 2F.A ....|A#4 2F6A ....|R-- .... ....
....|..|--- .... ....|--- .... ....|--- .... ....
....|..|--- .... ....|--- .... ....|--- .... ....
....|..|C-4 AF.F ....|E-5 2F.7 ....|F-5 2F.F ....
....|..|R-- .... ....|R-- .... ....|R-- .... ....
....|..|--- .... ....|R-- .... ....|--- .... ....
....|..|--- .... ....|--- .... ....|--- .... ....
 F-4|..|C-4 AF.A ....|F-5 2C.F ....|F-5 2F.A ....
....|..|R-- .... ....|--- .... ....|R-- .... ....
....|..|--- .... ....|--- .... ....|--- .... ....
....|..|--- .... ....|R-- .... ....|--- .... ....
....|..|C-4 AF.F ....|D-5 2F.7 ....|F-5 2F.F ....
....|..|A#2 2F.7 ....|A#4 2F67 ....|R-- .... ....
....|..|--- .... ....|R-- .... ....|--- .... ....
....|..|--- .... ....|--- .... ....|--- .... ....
 D-4|..|C-4 AF.A ....|D-5 2C.F ....|F-5 2F.A ....
....|..|R-- .... ....|R-- .... ....|R-- .... ....
....|..|--- .... ....|R-- .... ....|--- .... ....
....|..|--- .... ....|--- .... ....|--- .... ....
....|..|C-4 AF.F ....|G-4 2F3F ....|F-5 2F.F ....
 G-4|..|G-2 2A.F ....|--- .... ....|R-- .... ....
....|..|--- .... ....|--- .... ....|--- .... ....
....|..|--- .... ....|R-- .... ....|--- .... ....
....|..|C-4 AF.A ....|G-5 2F.7 ....|F-5 2F.A ....
....|..|R-- .... ....|--- .... ....|R-- .... ....
....|..|--- .... ....|R-- .... ....|--- .... ....
....|..|--- .... ....|--- .... ....|--- .... ....
 F-4|..|C-4 AF.F ....|F-5 2C.F ....|F-5 2F.F ....
....|..|R-- .... ....|--- .... ....|R-- .... ....
....|..|--- .... ....|R-- .... ....|--- .... ....
....|..|--- .... ....|R-- .... ....|--- .... ....
 G-4|..|C-4 AF.A ....|G-5 2C.F ....|F-5 2F.A ....
....|..|G-2 2F.A ....|--- .... ....|R-- .... ....
....|..|--- .... ....|--- .... ....|--- .... ....
....|..|--- .... ....|--- .... ....|--- .... ....
....|..|C-4 AF.F ....|--- .... ....|F-5 2F.F ....
....|..|R-- .... ....|--- .... ....|R-- .... ....
....|..|--- .... ....|R-- .... ....|--- .... ....
....|..|--- .... ....|R-- .... ....|--- .... ....
 F-4|..|C-4 AF.A ....|F-5 2C.F ....|F-5 2F.A ....
....|..|R-- .... ....|--- .... ....|R-- .... ....
....|..|--- .... ....|--- .... ....|--- .... ....
....|..|--- .... ....|R-- .... ....|--- .... ....
....|..|C-4 AF.F ....|G-4 2F37 ....|F-5 2F.F ....
....|..|G-2 2F.7 ....|--- .... ....|R-- .... ....
....|..|--- .... ....|R-- .... ....|--- .... ....
....|..|--- .... ....|--- .... ....|--- .... ....
 D-4|..|C-4 AF.A ....|D-5 2C.F ....|F-5 2F.A ....
....|..|R-- .... ....|--- .... ....|R-- .... ....
....|..|--- .... ....|R-- .... ....|--- .... ....
....|..|--- .... ....|R-- .... ....|--- .... ....

[Pattern37]
....|..|C-4 AF.F ....|D-4 2F3F ....|F-5 2F.F ....
 D-4|..|D-3 2C.F ....|--- .... ....|R-- .... ....
....|..|--- .... ....|--- .... ....|--- .... ....
....|..|--- .... ....|R-- .... ....|--- .... ....
....|..|C-4 AF.A ....|G-5 2F.7 ....|F-5 2F.A ....
....|..|R-- .... ....|--- .... ....|R-- .... ....
....|..|--- .... ....|R-- .... ....|--- .... ....
....|..|--- .... ....|--- .... ....|--- .... ....
 A-3|..|C-4 AF.F ....|A-5 2C.F ....|F-5 2F.F ....
....|..|R-- .... ....|--- .... ....|R-- .... ....
....|..|--- .... ....|--- .... ....|--- .... ....
....|..|--- .... ....|R-- .... ....|--- .... ....
 G-4|..|C-4 AF.A ....|G-5 2C.F ....|F-5 2F.A ....
....|..|D-3 2F.A ....|--- .... ....|R-- .... ....
....|..|--- .... ....|--- .... ....|--- .... ....
....|..|--- .... ....|--- .... ....|--- .... ....
....|..|C-4 AF.F ....|R-- .... ....|F-5 2F.F ....
....|..|R-- .... ....|--- .... ....|R-- .... ....
....|..|--- .... ....|R-- .... ....|--- .... ....
....|..|--- .... ....|--- .... ....|--- .... ....
 F-4|..|C-4 AF.A ....|F-5 2C.F ....|F-5 2F.A ....
....|..|R-- .... ....|--- .... ....|R-- .... ....
....|..|--- .... ....|--- .... ....|--- .... ....
....|..|--- .... ....|R-- .... ....|--- .... ....
....|..|C-4 AF.F ....|D-4 2F37 ....|F-5 2F.F ....
....|..|D-3 2F.7 ....|--- .... ....|R-- .... ....
....|..|--- .... ....|--- .... ....|--- .... ....
....|..|--- .... ....|R-- .... ....|--- .... ....
 E-4|..|C-4 AF.A ....|E-5 2C.F ....|F-5 2F.A ....
....|..|R-- .... ....|--- .... ....|R-- .... ....
....|..|--- .... ....|R-- .... ....|--- .... ....
....|..|--- .... ....|--- .... ....|--- .... ....
....|..|C-4 AF.F ....|C-4 2F6F ....|F-5 2F.F ....
 C-4|..|C-3 2C.F ....|--- .... ....|R-- .... ....
....|..|--- .... ....|--- .... ....|--- .... ....
....|..|--- .... ....|R-- .... ....|--- .... ....
 E-4|..|C-4 AF.A ....|E-5 2C.F ....|F-5 2F.A ....
....|..|R-- .... ....|--- .... ....|R-- .... ....
....|..|--- .... ....|--- .... ....|--- .... ....
....|..|--- .... ....|R-- .... ....|--- .... ....
 D-4|..|C-4 AF.F ....|D-5 2C.F ....|F-5 2F.F ....
....|..|R-- .... ....|--- .... ....|R-- .... ....
....|..|--- .... ....|R-- .... ....|--- .... ....
....|..|--- .... ....|R-- .... ....|--- .... ....
 E-4|..|C-4 AF.A ....|E-5 2C.F ....|F-5 2F.A ....
....|..|C-3 2F.A ....|--- .... ....|R-- .... ....
....|..|--- .... ....|--- .... ....|--- .... ....
....|..|--- .... ....|R-- .... ....|--- .... ....
....|..|C-4 AF.F ....|E-5 2F.A ....|F-5 2F.F ....
....|..|R-- .... ....|--- .... ....|R-- .... ....
....|..|--- .... ....|--- .... ....|--- .... ....
....|..|--- .... ....|R-- .... ....|--- .... ....
 F-4|..|C-4 AF.A ....|F-5 2C.F ....|F-5 2F.A ....
....|..|R-- .... ....|--- .... ....|R-- .... ....
....|..|--- .... ....|--- .... ....|--- .... ....
....|..|--- .... ....|R-- .... ....|--- .... ....
....|..|C-4 AF.F ....|C-4 2F67 ....|F-5 2F.F ....
....|..|C-3 2F.7 ....|--- .... ....|R-- .... ....
....|..|--- .... ....|--- .... ....|--- .... ....
....|..|--- .... ....|R-- .... ....|--- .... ....
....|..|C-4 AF.A ....|E-5 2F.7 ....|F-5 2F.A ....
....|..|R-- .... ....|--- .... ....|R-- .... ....
....|..|--- .... ....|--- .... ....|--- .... ....
....|..|--- .... ....|--- .... ....|--- .... ....

[Pattern38]
....|..|C-4 AF.F ....|A#4 2F6F ....|F-5 2F.F ....
 A#3|..|A#2 2C.F ....|--- .... ....|R-- .... ....
....|..|--- .... ....|--- .... ....|--- .... ....
....|..|--- .... ....|R-- .... ....|--- .... ....
....|..|C-4 AF.A ....|E-5 2F.7 ....|F-5 2F.A ....
....|..|R-- .... ....|--- .... ....|R-- .... ....
....|..|--- .... ....|--- .... ....|--- .... ....
....|..|--- .... ....|--- .... ....|--- .... ....
 A-3|..|C-4 AF.F ....|A-5 2C.F ....|F-5 2F.F ....
....|..|R-- .... ....|--- .... ....|R-- .... ....
....|..|--- .... ....|--- .... ....|--- .... ....
....|..|--- .... ....|R-- .... ....|--- .... ....
 G-4|..|C-4 AF.A ....|G-5 2C.F ....|F-5 2F.A ....
....|..|A#2 2F.A ....|--- .... ....|R-- .... ....
....|..|--- .... ....|--- .... ....|--- .... ....
....|..|--- .... ....|--- .... ....|--- .... ....
....|..|C-4 AF.F ....|--- .... ....|F-5 2F.F ....
....|..|R-- .... ....|--- .... ....|R-- .... ....
....|..|--- .... ....|R-- .... ....|--- .... ....
....|..|--- .... ....|--- .... ....|--- .... ....
 F-4|..|C-4 AF.A ....|F-5 2C.F ....|F-5 2F.A ....
....|..|R-- .... ....|--- .... ....|R-- .... ....
....|..|--- .... ....|--- .... ....|--- .... ....
....|..|--- .... ....|R-- .... ....|--- .... ....
....|..|C-4 AF.F ....|A#4 2F67 ....|F-5 2F.F ....
....|..|A#2 2F.7 ....|--- .... ....|R-- .... ....
....|..|--- .... ....|R-- .... ....|--- .... ....
....|..|--- .... ....|--- .... ....|--- .... ....
 D-4|..|C-4 AF.A ....|D-5 2C.F ....|F-5 2F.A ....
....|..|R-- .... ....|--- .... ....|R-- .... ....
....|..|--- .... ....|R-- .... ....|--- .... ....
....|..|--- .... ....|--- .... ....|--- .... ....
....|..|C-4 AF.F ....|G-4 2F3F ....|F-5 2F.F ....
 G-4|..|G-2 2A.F ....|--- .... ....|R-- .... ....
....|..|--- .... ....|--- .... ....|--- .... ....
....|..|--- .... ....|R-- .... ....|--- .... ....
....|..|C-4 AF.A ....|G-5 2F.7 ....|F-5 2F.A ....
....|..|R-- .... ....|--- .... ....|R-- .... ....
....|..|--- .... ....|R-- .... ....|--- .... ....
....|..|--- .... ....|--- .... ....|--- .... ....
 A-3|..|C-4 AF.F ....|A-5 2C.F ....|F-5 2F.F ....
....|..|R-- .... ....|--- .... ....|R-- .... ....
....|..|--- .... ....|R-- .... ....|--- .... ....
....|..|--- .... ....|R-- .... ....|--- .... ....
 G-4|..|C-4 AF.A ....|G-5 2C.F ....|F-5 2F.A ....
....|..|G-2 2F.A ....|--- .... ....|R-- .... ....
....|..|--- .... ....|--- .... ....|--- .... ....
....|..|--- .... ....|--- .... ....|--- .... ....
....|..|C-4 AF.F ....|--- .... ....|F-5 2F.F ....
....|..|R-- .... ....|--- .... ....|R-- .... ....
....|..|--- .... ....|R-- .... ....|--- .... ....
....|..|--- .... ....|--- .... ....|--- .... ....
 F-4|..|C-4 AF.A ....|F-5 2C.F ....|F-5 2F.A ....
....|..|R-- .... ....|--- .... ....|R-- .... ....
....|..|--- .... ....|--- .... ....|--- .... ....
....|..|--- .... ....|R-- .... ....|--- .... ....
....|..|C-4 AF.F ....|G-4 2F37 ....|F-5 2F.F ....
....|..|G-2 2F.7 ....|--- .... ....|R-- .... ....
....|..|--- .... ....|R-- .... ....|--- .... ....
....|..|--- .... ....|--- .... ....|--- .... ....
 D-4|..|C-4 AF.A ....|D-5 2C.F ....|F-5 2F.A ....
....|..|R-- .... ....|--- .... ....|R-- .... ....
....|..|--- .... ....|R-- .... ....|--- .... ....
....|..|--- .... ....|--- .... ....|--- .... ....

[Pattern39]
....|..|C-4 AF.F ....|G-4 2F3F ....|F-5 2F.F ....
 G-4|..|G-2 2A.F ....|--- .... ....|R-- .... ....
....|..|--- .... ....|--- .... ....|--- .... ....
....|..|--- .... ....|R-- .... ....|--- .... ....
....|..|C-4 AF.A ....|G-5 2F.7 ....|F-5 2F.A ....
....|..|R-- .... ....|--- .... ....|R-- .... ....
....|..|--- .... ....|R-- .... ....|--- .... ....
....|..|--- .... ....|--- .... ....|--- .... ....
 A-3|..|C-4 AF.F ....|A-5 2C.F ....|F-5 2F.F ....
....|..|R-- .... ....|--- .... ....|R-- .... ....
....|..|--- .... ....|R-- .... ....|--- .... ....
....|..|--- .... ....|R-- .... ....|--- .... ....
 G-4|..|C-4 AF.A ....|G-5 2C.F ....|F-5 2F.A ....
....|..|G-2 2F.A ....|--- .... ....|R-- .... ....
....|..|--- .... ....|--- .... ....|--- .... ....
....|..|--- .... ....|--- .... ....|--- .... ....
....|..|C-4 AF.F ....|--- .... ....|F-5 2F.F ....
....|..|R-- .... ....|--- .... ....|R-- .... ....
....|..|--- .... ....|R-- .... ....|--- .... ....
....|..|--- .... ....|--- .... ....|--- .... ....
 F-4|..|C-4 AF.A ....|F-5 2C.F ....|F-5 2F.A ....
....|..|R-- .... ....|--- .... ....|R-- .... ....
....|..|--- .... ....|--- .... ....|--- .... ....
....|..|--- .... ....|R-- .... ....|--- .... ....
....|..|C-4 AF.F ....|G-4 2F37 ....|F-5 2F.F ....
....|..|G-2 2F.7 ....|--- .... ....|R-- .... ....
....|..|--- .... ....|R-- .... ....|--- .... ....
....|..|--- .... ....|--- .... ....|--- .... ....
 D-4|..|C-4 AF.A ....|D-5 2C.F ....|F-5 2F.A ....
....|..|R-- .... ....|--- .... ....|R-- .... ....
....|..|--- .... ....|R-- .... ....|--- .... ....
....|..|--- .... ....|--- .... ....|--- .... ....
....|..|C-4 AF.F ....|G-4 2F3F ....|G-4 2F.F ....
 G-4|..|G-2 2A.F ....|--- .... ....|R-- .... ....
....|..|--- .... ....|--- .... ....|--- .... ....
....|..|--- .... ....|R-- .... ....|--- .... ....
....|..|C-4 AF.A ....|G-5 2F.7 ....|F-5 2F.A ....
....|..|R-- .... ....|--- .... ....|R-- .... ....
....|..|--- .... ....|R-- .... ....|--- .... ....
....|..|--- .... ....|--- .... ....|--- .... ....
....|..|C-4 AF.F ....|D-5 2F.A ....|F-5 2F.7 ....
....|..|R-- .... ....|--- .... ....|R-- .... ....
....|..|--- .... ....|R-- .... ....|--- .... ....
....|..|--- .... ....|--- .... ....|--- .... ....
....|..|C-4 AF.A ....|F-5 2F.7 ....|G-4 2F.A ....
....|..|G-2 2F.A ....|--- .... ....|--- .... ....
....|..|--- .... ....|--- .... ....|--- .... ....
....|..|--- .... ....|--- .... ....|--- .... ....
....|..|C-4 AF.F ....|--- .... ....|F-5 2F.7 ....
....|..|R-- .... ....|--- .... ....|R-- .... ....
....|..|--- .... ....|R-- .... ....|--- .... ....
....|..|--- .... ....|--- .... ....|--- .... ....
....|..|C-4 AF.A ....|D-5 2F.7 ....|--- .... ....
....|..|R-- .... ....|--- .... ....|--- .... ....
....|..|--- .... ....|--- .... ....|--- .... ....
....|..|--- .... ....|--- .... ....|--- .... ....
 D-4|..|C-4 AF.F ....|D-5 2C.F ....|G-4 2F.7 ....
....|..|G-2 2F.7 ....|--- .... ....|--- .... ....
....|..|--- .... ....|R-- .... ....|--- .... ....
....|..|--- .... ....|--- .... ....|--- .... ....
 D-4|..|C-4 AF.A ....|D-5 2C.F ....|--- .... ....
....|..|R-- .... ....|R-- .... ....|--- .... ....
....|..|--- .... ....|R-- .... ....|--- .... ....
....|..|--- .... ....|--- .... ....|--- .... ....

[Pattern40]
 D-4|..|C-4 AF.7 ....|D-5 2C.F ....|R-- .... ....
....|..|R-- .... ....|R-- .... ....|--- .... ....
....|..|--- .... ....|R-- .... ....|--- .... ....
....|..|--- .... ....|--- .... ....|--- .... ....
 D-4|..|C-4 AF.A ....|D-5 2C.F ....|--- .... ....
....|..|R-- .... ....|--- .... ....|--- .... ....
....|..|--- .... ....|R-- .... ....|--- .... ....
....|..|--- .... ....|--- .... ....|--- .... ....
 D-4|..|C-4 AF.F ....|D-5 2C.F ....|--- .... ....
....|..|R-- .... ....|R-- .... ....|--- .... ....
....|..|--- .... ....|--- .... ....|--- .... ....
....|..|--- .... ....|--- .... ....|--- .... ....
....|..|R-- .... ....|R-- .... ....|R-- .... ....
....|..|--- .... ....|R-- .... ....|--- .... ....
....|..|--- .... ....|R-- .... ....|--- .... ....
....|..|--- .... ....|--- .... ....|--- .... ....
 D-4|..|C-4 AF.7 ....|D-5 2C.F ....|--- .... ....
....|..|R-- .... ....|--- .... ....|--- .... ....
....|..|--- .... ....|R-- .... ....|--- .... ....
....|..|--- .... ....|--- .... ....|--- .... ....
....|..|C-4 AF.A ....|D-5 2F.7 ....|--- .... ....
....|..|R-- .... ....|R-- .... ....|--- .... ....
....|..|--- .... ....|--- .... ....|--- .... ....
....|..|--- .... ....|--- .... ....|--- .... ....
 D-4|..|C-4 AF.F ....|D-5 2C.F ....|R-- .... ....
....|..|R-- .... ....|R-- .... ....|--- .... ....
....|..|--- .... ....|R-- .... ....|--- .... ....
....|..|--- .... ....|--- .... ....|--- .... ....
 D-4|..|--- .... ....|D-5 2C.F ....|--- .... ....
....|..|--- .... ....|--- .... ....|--- .... ....
....|..|--- .... ....|R-- .... ....|--- .... ....
....|..|--- .... ....|--- .... ....|--- .... ....
....|..|C-4 AF.7 ....|D-5 2F.7 ....|--- .... ....
....|..|R-- .... ....|R-- .... ....|--- .... ....
....|..|--- .... ....|--- .... ....|--- .... ....
....|..|--- .... ....|--- .... ....|--- .... ....
 D-4|..|C-4 AF.A ....|D-5 2C.F ....|--- .... ....
....|..|R-- .... ....|R-- .... ....|--- .... ....
....|..|--- .... ....|--- .... ....|--- .... ....
....|..|--- .... ....|--- .... ....|--- .... ....
....|..|--- .... ....|D-5 2F.7 ....|--- .... ....
....|..|--- .... ....|R-- .... ....|--- .... ....
....|..|--- .... ....|--- .... ....|--- .... ....
....|..|--- .... ....|--- .... ....|--- .... ....
 D-4|..|--- .... ....|D-5 2C.F ....|--- .... ....
....|..|--- .... ....|R-- .... ....|--- .... ....
....|..|--- .... ....|--- .... ....|--- .... ....
....|..|--- .... ....|--- .... ....|--- .... ....
....|..|C-4 AF.7 ....|D-5 2F.7 ....|--- .... ....
....|..|R-- .... ....|R-- .... ....|--- .... ....
....|..|--- .... ....|--- .... ....|--- .... ....
....|..|--- .... ....|R-- .... ....|--- .... ....
....|..|--- .... ....|D-5 2F.7 ....|--- .... ....
....|..|--- .... ....|R-- .... ....|--- .... ....
....|..|--- .... ....|--- .... ....|--- .... ....
....|..|--- .... ....|--- .... ....|--- .... ....
 G-4|..|--- .... ....|G-5 2C.F ....|--- .... ....
....|..|--- .... ....|R-- .... ....|--- .... ....
....|..|--- .... ....|--- .... ....|--- .... ....
....|..|--- .... ....|--- .... ....|--- .... ....
....|..|--- .... ....|D-5 2F.7 ....|--- .... ....
....|..|--- .... ....|--- .... ....|--- .... ....
....|..|--- .... ....|--- .... ....|--- .... ....
....|..|--- .... ....|R-- .... ....|--- .... ....

[Pattern41]
 F-4|..|C-4 AF.F ....|F-5 2C.F ....|A#3 2F.F ....
 A#3|..|A#1 2A.F ....|F-4 2F1F ....|A#3 2F7F ....
....|..|B-8 JF.F ....|F-4 2F1F ....|--- .... ....
....|..|R-- .... ....|--- .... ....|--- .... ....
....|..|C-3 RF.F ....|D-5 2F.7 ....|A#3 2F8F ....
....|..|R-- .... ....|--- .... ....|R-- .... ....
....|..|B-8 JF.F ....|F-4 2F1F ....|A#3 2F.F ....
 A#3|..|A#1 2A.F ....|R-- .... ....|R-- .... ....
 F-4|..|C-4 AF.F ....|F-5 2C.F ....|A#4 2F.F ....
....|..|R-- .... ....|F-4 2F1F ....|--- .... ....
....|..|B-8 JF.F ....|R-- .... ....|--- .... ....
....|..|R-- .... ....|R-- .... ....|--- .... ....
 F-4|..|C-3 RF.F ....|F-5 2C.F ....|A#3 2F.F ....
 A#3|..|A#1 2A.F ....|F-4 2F1A ....|A#3 2F7F ....
....|..|B-8 JF.F ....|R-- .... ....|--- .... ....
....|..|R-- .... ....|--- .... ....|R-- .... ....
 F-4|..|C-4 AF.F ....|F-5 2C.F ....|A#2 2F.F ....
....|..|R-- .... ....|--- .... ....|R-- .... ....
....|..|B-8 JF.F ....|F-4 2F1A ....|A#3 2F.A ....
....|..|R-- .... ....|R-- .... ....|R-- .... ....
....|..|C-3 RF.F ....|R-- .... ....|A-5 2F.F ....
....|..|R-- .... ....|F-4 2F1A ....|R-- .... ....
....|..|B-8 JF.F ....|R-- .... ....|--- .... ....
....|..|R-- .... ....|R-- .... ....|--- .... ....
 F-4|..|C-4 AF.F ....|F-5 2C.F ....|A#3 2F.7 ....
....|..|A#1 2F.7 ....|F-4 2F17 ....|A#3 2F77 ....
....|..|B-8 JF.F ....|F-4 2F17 ....|--- .... ....
....|..|R-- .... ....|--- .... ....|R-- .... ....
 F-4|..|C-3 RF.F ....|F-5 2C.F ....|A#2 2F.F ....
 A#3|..|A#1 2A.F ....|F-4 2F1F ....|R-- .... ....
....|..|B-8 JF.F ....|F-4 2F17 ....|A#3 2F.7 ....
....|..|A#1 2F.7 ....|R-- .... ....|R-- .... ....
 F-4|..|C-4 AF.F ....|F-5 2C.F ....|C-3 2F.F ....
 C-4|..|C-2 2A.F ....|G-4 2F1F ....|C-4 2F7F ....
....|..|B-8 JF.F ....|G-4 2F1F ....|--- .... ....
....|..|R-- .... ....|--- .... ....|--- .... ....
 F-4|..|C-3 RF.F ....|F-5 2C.F ....|C-5 2F.F ....
....|..|A#1 2F.7 ....|R-- .... ....|E-4 2F.F ....
....|..|B-8 JF.F ....|G-4 2F1F ....|C-3 2F.F ....
 C-4|..|C-2 2A.F ....|R-- .... ....|R-- .... ....
 F-4|..|C-4 AF.F ....|F-5 2C.F ....|A#2 2F.7 ....
....|..|R-- .... ....|G-4 2F1F ....|--- .... ....
....|..|B-8 JF.F ....|R-- .... ....|--- .... ....
....|..|R-- .... ....|--- .... ....|R-- .... ....
 F-4|..|C-3 RF.F ....|F-5 2C.F ....|D-3 2F.F ....
 D-4|..|D-2 2A.F ....|A-4 2F2F ....|D-3 2F9F ....
....|..|B-8 JF.F ....|R-- .... ....|--- .... ....
....|..|R-- .... ....|--- .... ....|--- .... ....
 F-4|..|C-4 AF.F ....|F-5 2C.F ....|R-- .... ....
....|..|R-- .... ....|R-- .... ....|E-4 2F.A ....
....|..|B-8 JF.F ....|R-- .... ....|C-3 2F.A ....
....|..|R-- .... ....|R-- .... ....|R-- .... ....
....|..|C-3 RF.F ....|A-4 2F2F ....|A-5 2F.F ....
 D-4|..|D-3 2C.F ....|F-4 2F17 ....|R-- .... ....
....|..|B-8 JF.F ....|R-- .... ....|--- .... ....
....|..|R-- .... ....|--- .... ....|R-- .... ....
 G-4|..|C-4 AF.F ....|G-5 2C.F ....|C-3 2F.7 ....
....|..|C-2 2F.7 ....|G-4 2F17 ....|C-4 2F77 ....
....|..|B-8 JF.F ....|G-4 2F17 ....|D-5 2F.F ....
 D-4|..|D-4 2C.F ....|--- .... ....|--- .... ....
....|..|C-3 RF.F ....|F-5 2F.7 ....|C-5 2F.7 ....
....|..|R-- .... ....|R-- .... ....|E-4 2F.7 ....
....|..|B-8 JF.F ....|G-4 2F17 ....|C-3 2F.7 ....
....|..|C-2 2F.7 ....|R-- .... ....|R-- .... ....

[Pattern44]
 D-4|..|C-4 AF.F ....|D-5 2C.F ....|G-2 2F.F ....
 G-3|..|G-1 2A.F ....|G-4 2F3F ....|G-3 2F3F ....
....|..|B-8 JF.F ....|G-4 2F3F ....|--- .... ....
....|..|R-- .... ....|R-- .... ....|--- .... ....
....|..|C-3 RF.F ....|A-4 2F27 ....|G-3 2FBF ....
....|..|D-2 2F.7 ....|R-- .... ....|D-3 2F97 ....
 D-4|..|B-8 JF.F ....|D-5 2C.F ....|G-2 2F.F ....
 G-3|..|G-1 2A.F ....|G-4 2F3F ....|R-- .... ....
....|..|C-4 AF.F ....|G-4 2F3F ....|G-3 2F.F ....
....|..|R-- .... ....|R-- .... ....|--- .... ....
....|..|B-8 JF.F ....|--- .... ....|--- .... ....
....|..|R-- .... ....|R-- .... ....|--- .... ....
 D-4|..|C-3 RF.F ....|D-5 2C.F ....|G-2 2F.F ....
 G-3|..|G-1 2A.F ....|R-- .... ....|G-3 2F3F ....
....|..|B-8 JF.F ....|G-4 2F3A ....|--- .... ....
....|..|R-- .... ....|R-- .... ....|R-- .... ....
 A-3|..|C-4 AF.F ....|A-5 2C.F ....|D-6 2F.F ....
....|..|R-- .... ....|R-- .... ....|R-- .... ....
....|..|B-8 JF.F ....|D-5 2F.A ....|D-5 2F.7 ....
....|..|D-4 2F.7 ....|G-4 2F3A ....|R-- .... ....
....|..|C-3 RF.F ....|G-4 2F3A ....|A-5 2F.F ....
....|..|R-- .... ....|R-- .... ....|R-- .... ....
....|..|B-8 JF.F ....|--- .... ....|--- .... ....
....|..|R-- .... ....|R-- .... ....|--- .... ....
....|..|C-4 AF.F ....|D-5 2F.7 ....|D-6 2F.F ....
....|..|G-1 2F.7 ....|G-4 2F37 ....|G-3 2F37 ....
....|..|B-8 JF.F ....|G-4 2F37 ....|--- .... ....
....|..|R-- .... ....|R-- .... ....|R-- .... ....
....|..|C-3 RF.F ....|G-4 2F3F ....|A#2 2F.F ....
 A#3|..|A#1 2A.F ....|R-- .... ....|R-- .... ....
....|..|B-8 JF.F ....|D-5 2F.7 ....|G-2 2F.F ....
 G-3|..|G-1 2A.F ....|G-4 2F37 ....|R-- .... ....
 D-4|..|C-4 AF.F ....|D-5 2C.F ....|D-3 2F.F ....
 D-4|..|D-2 2A.F ....|F-4 2F4F ....|D-3 2F9F ....
....|..|B-8 JF.F ....|F-4 2F4F ....|--- .... ....
....|..|R-- .... ....|R-- .... ....|R-- .... ....
....|..|C-3 RF.F ....|D-5 2F.7 ....|G-2 2F.7 ....
....|..|G-1 2F.7 ....|R-- .... ....|G-3 2F37 ....
 D-4|..|B-8 JF.F ....|D-5 2C.F ....|D-3 2F.F ....
 D-4|..|D-2 2A.F ....|F-4 2F4F ....|R-- .... ....
....|..|C-4 AF.F ....|F-4 2F4F ....|D-6 2F.7 ....
....|..|R-- .... ....|R-- .... ....|--- .... ....
....|..|B-8 JF.F ....|--- .... ....|R-- .... ....
....|..|R-- .... ....|R-- .... ....|--- .... ....
 D-4|..|C-3 RF.F ....|D-5 2C.F ....|C-2 2F.F ....
 C-4|..|C-2 2A.F ....|E-4 2F5F ....|C-4 2F7F ....
....|..|B-8 JF.F ....|R-- .... ....|--- .... ....
....|..|R-- .... ....|R-- .... ....|R-- .... ....
 A-3|..|C-4 AF.F ....|A-5 2C.F ....|C-3 2F.F ....
....|..|R-- .... ....|R-- .... ....|--- .... ....
....|..|B-8 JF.F ....|R-- .... ....|D-3 2F.A ....
....|..|R-- .... ....|F-4 2F4A ....|--- .... ....
....|..|C-3 RF.F ....|E-4 2F5F ....|A-5 2F.F ....
 C-4|..|C-3 2C.F ....|R-- .... ....|R-- .... ....
....|..|B-8 JF.F ....|R-- .... ....|G-2 2F.7 ....
....|..|G-1 2F.7 ....|R-- .... ....|--- .... ....
 G-4|..|C-4 AF.F ....|G-5 2C.F ....|C-3 2F.F ....
....|..|D-2 2F.7 ....|F-4 2F47 ....|D-3 2F97 ....
....|..|B-8 JF.F ....|F-4 2F47 ....|--- .... ....
....|..|R-- .... ....|R-- .... ....|C-5 2F.F ....
....|..|C-3 RF.F ....|A-5 2F.A ....|C-5 2F.F ....
 C-4|..|C-3 2C.F ....|R-- .... ....|R-- .... ....
....|..|B-8 JF.F ....|D-5 2F.7 ....|C-7 2F.F ....
....|..|D-2 2F.7 ....|F-4 2F47 ....|C-7 2F.F ....

[Pattern45]
 F-4|..|C-4 AF.F ....|F-5 2C.F ....|C-7 2F.F ....
 A#3|..|A#1 2A.F ....|F-4 2F1F ....|A#3 2F7F ....
....|..|B-8 JF.F ....|F-4 2F1F ....|R-- .... ....
....|..|R-- .... ....|R-- .... ....|--- .... ....
....|..|C-3 RF.F ....|D-5 2F.7 ....|A#3 2F8F ....
....|..|C-2 2F.7 ....|E-4 2F57 ....|C-4 2F77 ....
....|..|B-8 JF.F ....|F-4 2F1F ....|A#3 2F.F ....
 A#3|..|A#1 2A.F ....|R-- .... ....|R-- .... ....
 F-4|..|C-4 AF.F ....|F-5 2C.F ....|A#4 2F.F ....
....|..|R-- .... ....|F-4 2F1F ....|R-- .... ....
....|..|B-8 JF.F ....|R-- .... ....|C-7 2F.A ....
....|..|R-- .... ....|--- .... ....|C-7 2F.A ....
 F-4|..|C-3 RF.F ....|F-5 2C.F ....|A#3 2F.F ....
 A#3|..|A#1 2A.F ....|R-- .... ....|A#3 2F7F ....
....|..|B-8 JF.F ....|R-- .... ....|R-- .... ....
....|..|R-- .... ....|--- .... ....|R-- .... ....
 F-4|..|C-4 AF.F ....|F-5 2C.F ....|A#2 2F.F ....
....|..|R-- .... ....|--- .... ....|R-- .... ....
....|..|B-8 JF.F ....|F-4 2F1A ....|A#3 2F.A ....
....|..|R-- .... ....|R-- .... ....|C-5 2F.7 ....
....|..|C-3 RF.F ....|R-- .... ....|A-5 2F.F ....
....|..|C-3 2F.7 ....|F-4 2F1A ....|R-- .... ....
....|..|B-8 JF.F ....|R-- .... ....|C-7 2F.7 ....
....|..|R-- .... ....|--- .... ....|C-7 2F.7 ....
 F-4|..|C-4 AF.F ....|F-5 2C.F ....|C-7 2F.7 ....
....|..|A#1 2F.7 ....|F-4 2F17 ....|A#3 2F77 ....
....|..|B-8 JF.F ....|F-4 2F17 ....|R-- .... ....
....|..|R-- .... ....|--- .... ....|R-- .... ....
 F-4|..|C-3 RF.F ....|F-5 2C.F ....|A#2 2F.F ....
 A#3|..|A#1 2A.F ....|F-4 2F1F ....|R-- .... ....
....|..|B-8 JF.F ....|F-4 2F17 ....|A#3 2F.7 ....
....|..|A#1 2F.7 ....|R-- .... ....|R-- .... ....
 F-4|..|C-4 AF.F ....|F-5 2C.F ....|C-3 2F.F ....
 C-4|..|C-2 2A.F ....|G-4 2F1F ....|C-4 2F7F ....
....|..|B-8 JF.F ....|G-4 2F1F ....|--- .... ....
....|..|R-- .... ....|--- .... ....|--- .... ....
 F-4|..|C-3 RF.F ....|F-5 2C.F ....|C-5 2F.F ....
....|..|A#1 2F.7 ....|R-- .... ....|E-4 2F.F ....
....|..|B-8 JF.F ....|G-4 2F1F ....|C-3 2F.F ....
 C-4|..|C-2 2A.F ....|R-- .... ....|R-- .... ....
 F-4|..|C-4 AF.F ....|F-5 2C.F ....|A#2 2F.7 ....
....|..|R-- .... ....|G-4 2F1F ....|--- .... ....
....|..|B-8 JF.F ....|R-- .... ....|--- .... ....
....|..|R-- .... ....|--- .... ....|R-- .... ....
 F-4|..|C-3 RF.F ....|F-5 2C.F ....|D-3 2F.F ....
 D-4|..|D-2 2A.F ....|A-4 2F2F ....|D-3 2F9F ....
....|..|B-8 JF.F ....|R-- .... ....|--- .... ....
....|..|R-- .... ....|--- .... ....|--- .... ....
 F-4|..|C-4 AF.F ....|F-5 2C.F ....|R-- .... ....
....|..|R-- .... ....|R-- .... ....|E-4 2F.A ....
....|..|B-8 JF.F ....|R-- .... ....|C-3 2F.A ....
....|..|R-- .... ....|R-- .... ....|R-- .... ....
....|..|C-3 RF.F ....|A-4 2F2F ....|A-5 2F.F ....
 D-4|..|D-3 2C.F ....|F-4 2F17 ....|R-- .... ....
....|..|B-8 JF.F ....|R-- .... ....|--- .... ....
....|..|R-- .... ....|--- .... ....|R-- .... ....
 G-4|..|C-4 AF.F ....|G-5 2C.F ....|C-3 2F.7 ....
....|..|C-2 2F.7 ....|G-4 2F17 ....|C-4 2F77 ....
....|..|B-8 JF.F ....|G-4 2F17 ....|D-5 2F.F ....
 D-4|..|D-4 2C.F ....|--- .... ....|--- .... ....
....|..|C-3 RF.F ....|F-5 2F.7 ....|C-5 2F.7 ....
....|..|R-- .... ....|R-- .... ....|E-4 2F.7 ....
....|..|B-8 JF.F ....|G-4 2F17 ....|C-3 2F.7 ....
....|..|C-2 2F.7 ....|R-- .... ....|R-- .... ....

[Pattern48]
 D-4|..|C-4 AF.F ....|D-5 2C.F ....|G-2 2F.F ....
 G-3|..|G-1 2A.F ....|G-4 2F3F ....|G-3 2F3F ....
....|..|B-8 JF.F ....|G-4 2F3F ....|--- .... ....
....|..|R-- .... ....|R-- .... ....|--- .... ....
....|..|C-3 RF.F ....|A-4 2F27 ....|G-3 2FBF ....
....|..|D-2 2F.7 ....|R-- .... ....|D-3 2F97 ....
 D-4|..|B-8 JF.F ....|D-5 2C.F ....|G-2 2F.F ....
 G-3|..|G-1 2A.F ....|G-4 2F3F ....|R-- .... ....
....|..|C-4 AF.F ....|G-4 2F3F ....|G-3 2F.F ....
....|..|R-- .... ....|R-- .... ....|--- .... ....
....|..|B-8 JF.F ....|--- .... ....|--- .... ....
....|..|R-- .... ....|R-- .... ....|--- .... ....
 D-4|..|C-3 RF.F ....|D-5 2C.F ....|G-2 2F.F ....
 G-3|..|G-1 2A.F ....|R-- .... ....|G-3 2F3F ....
....|..|B-8 JF.F ....|G-4 2F3A ....|--- .... ....
....|..|R-- .... ....|R-- .... ....|R-- .... ....
 A-3|..|C-4 AF.F ....|A-5 2C.F ....|D-6 2F.F ....
....|..|R-- .... ....|R-- .... ....|R-- .... ....
....|..|B-8 JF.F ....|D-5 2F.A ....|D-5 2F.7 ....
....|..|D-4 2F.7 ....|G-4 2F3A ....|R-- .... ....
....|..|C-3 RF.F ....|G-4 2F3A ....|A-5 2F.F ....
....|..|R-- .... ....|R-- .... ....|R-- .... ....
....|..|B-8 JF.F ....|--- .... ....|--- .... ....
....|..|R-- .... ....|R-- .... ....|--- .... ....
....|..|C-4 AF.F ....|D-5 2F.7 ....|D-6 2F.F ....
....|..|G-1 2F.7 ....|G-4 2F37 ....|G-3 2F37 ....
....|..|B-8 JF.F ....|G-4 2F37 ....|--- .... ....
....|..|R-- .... ....|R-- .... ....|R-- .... ....
....|..|C-3 RF.F ....|G-4 2F3F ....|A#2 2F.F ....
 A#3|..|A#1 2A.F ....|R-- .... ....|R-- .... ....
....|..|B-8 JF.F ....|D-5 2F.7 ....|G-2 2F.F ....
 G-3|..|G-1 2A.F ....|G-4 2F37 ....|R-- .... ....
 D-4|..|C-4 AF.F ....|D-5 2C.F ....|D-3 2F.F ....
 D-4|..|D-2 2A.F ....|F-4 2F4F ....|D-3 2F9F ....
....|..|B-8 JF.F ....|F-4 2F4F ....|--- .... ....
....|..|R-- .... ....|R-- .... ....|R-- .... ....
....|..|C-3 RF.F ....|D-5 2F.7 ....|G-2 2F.7 ....
....|..|G-1 2F.7 ....|R-- .... ....|G-3 2F37 ....
 D-4|..|B-8 JF.F ....|D-5 2C.F ....|D-3 2F.F ....
 D-4|..|D-2 2A.F ....|F-4 2F4F ....|R-- .... ....
....|..|C-4 AF.F ....|F-4 2F4F ....|D-6 2F.7 ....
....|..|R-- .... ....|R-- .... ....|--- .... ....
....|..|B-8 JF.F ....|--- .... ....|R-- .... ....
....|..|R-- .... ....|R-- .... ....|--- .... ....
 D-4|..|C-3 RF.F ....|D-5 2C.F ....|C-2 2F.F ....
 C-4|..|C-2 2A.F ....|E-4 2F5F ....|C-4 2F7F ....
....|..|B-8 JF.F ....|R-- .... ....|--- .... ....
....|..|R-- .... ....|R-- .... ....|R-- .... ....
 A-3|..|C-4 AF.F ....|A-5 2C.F ....|C-3 2F.F ....
....|..|R-- .... ....|R-- .... ....|--- .... ....
....|..|B-8 JF.F ....|R-- .... ....|D-3 2F.A ....
....|..|R-- .... ....|F-4 2F4A ....|--- .... ....
....|..|C-3 RF.F ....|E-4 2F5F ....|A-5 2F.F ....
 C-4|..|C-3 2C.F ....|R-- .... ....|R-- .... ....
....|..|B-8 JF.F ....|R-- .... ....|G-2 2F.7 ....
....|..|G-1 2F.7 ....|R-- .... ....|--- .... ....
....|..|C-4 AF.F ....|D-5 2F.7 ....|C-3 2F.F ....
....|..|D-2 2F.7 ....|F-4 2F47 ....|D-3 2F97 ....
....|..|B-8 JF.F ....|F-4 2F47 ....|--- .... ....
....|..|R-- .... ....|R-- .... ....|C-5 2F.F ....
....|..|C-3 RF.F ....|A-5 2F.A ....|C-5 2F.F ....
 C-4|..|C-3 2C.F ....|R-- .... ....|R-- .... ....
....|..|B-8 JF.F ....|D-5 2F.7 ....|C-7 2F.F ....
....|..|D-2 2F.7 ....|F-4 2F47 ....|C-7 2F.F ....

[Pattern49]
....|..|C-4 AF.F ....|F-4 2F47 ....|A#2 2F.F ....
 A#3|..|A#1 2A.F ....|R-- .... ....|R-- .... ....
....|..|B-8 JF.7 ....|R-- .... ....|R-- .... ....
....|..|R-- .... ....|R-- .... ....|--- .... ....
....|..|C-3 RF.7 ....|D-5 2F.7 ....|C-2 2F.7 ....
....|..|C-2 2F.7 ....|E-4 2F57 ....|C-4 2F77 ....
....|..|B-8 JF.7 ....|R-- .... ....|--- .... ....
....|..|R-- .... ....|--- .... ....|C-5 2F.A ....
....|..|C-4 AF.7 ....|A-5 2F.7 ....|C-3 2F.7 ....
....|..|R-- .... ....|--- .... ....|R-- .... ....
....|..|B-8 JF.7 ....|--- .... ....|C-7 2F.A ....
....|..|R-- .... ....|--- .... ....|C-7 2F.A ....
....|..|C-3 RF.7 ....|E-4 2F57 ....|A-5 2F.7 ....
....|..|C-3 2F.7 ....|R-- .... ....|R-- .... ....
....|..|B-8 JF.7 ....|R-- .... ....|R-- .... ....
....|..|R-- .... ....|--- .... ....|--- .... ....
....|..|C-4 AF.7 ....|--- .... ....|C-3 2F.7 ....
....|..|R-- .... ....|--- .... ....|--- .... ....
....|..|B-8 JF.7 ....|--- .... ....|--- .... ....
....|..|R-- .... ....|--- .... ....|C-5 2F.7 ....
....|..|C-3 RF.7 ....|--- .... ....|C-5 2F.7 ....
....|..|C-3 2F.7 ....|--- .... ....|R-- .... ....
....|..|B-8 JF.7 ....|--- .... ....|C-7 2F.7 ....
....|..|R-- .... ....|--- .... ....|C-7 2F.7 ....
....|..|C-4 AF.7 ....|--- .... ....|A#2 2F.7 ....
....|..|A#1 2F.7 ....|--- .... ....|--- .... ....
....|..|--- .... ....|--- .... ....|R-- .... ....
....|..|--- .... ....|--- .... ....|--- .... ....
....|..|--- .... ....|--- .... ....|--- .... ....
....|..|--- .... ....|--- .... ....|--- .... ....
....|..|--- .... ....|--- .... ....|--- .... ....
....|..|--- .... ....|--- .... ....|--- .... ....

