[Module]
VortexTrackerII=0
Version=3.5
Title=14d-3me-4me+-1m[oc]+,10m[3f]-1m[ue]+,9p[6d]-2p[7]+
Author=oisee ^ 4d 29.05.2010
NoteTable=4
ChipFreq=1750000
Speed=3
PlayOrder=L0,1,2,3,4,5,6,7,8,9,10,11,12,13,14,15,16,17,18,19,20,21,22,23,24,25,26,27,28,29,30,31,32,33,34,35,36,37,38,35,36,37,42,43,44,45,46,47,48,49,50,51,52,53,54,55,56

[Ornament1]
L0,0,12,12

[Ornament2]
L0,0,3,3,7,7

[Ornament3]
L0,0,3,3,7,7,12,12

[Ornament4]
L0

[Ornament5]
L0

[Ornament6]
L0

[Ornament7]
L0

[Ornament8]
L0

[Ornament9]
L0

[Ornament10]
L0

[Ornament11]
L0

[Ornament12]
L12,12,0,24,0,0

[Ornament13]
L0

[Ornament14]
L24,24,0,12,0,0

[Ornament15]
12,L0,0,0

[Sample1]
TnE +000_ +00_ F_
TnE +000_ +00_ F_
TnE +000_ +00_ F_
TnE +000_ +00_ D_
TnE +000_ +00_ B_
TnE +000_ +00_ B_ L

[Sample2]
TnE +000_ +00_ F_ L

[Sample3]
TnE +001_ +00_ F_
TnE +002_ +00_ F_
TnE +001_ +00_ E_
TnE +002_ +00_ E_
TnE +000_ +00_ E_ L
TnE -001_ +00_ E_
TnE -002_ +00_ E_
TnE -001_ +00_ E_
TnE +000_ +00_ E_
TnE +001_ +00_ E_
TnE +002_ +00_ E_
TnE +001_ +00_ E_

[Sample4]
TnE +002_ +00_ D_
TnE +002_ +00_ D_
TnE +002_ +00_ C_
TnE +002_ +00_ B_
TnE +002_ +00_ A_ L
TnE +002_ +00_ A_
TnE +002_ +00_ A_
TnE +002_ +00_ A_
TnE +002_ +00_ A_
TnE +002_ +00_ A_
TnE +002_ +00_ A_
TnE +002_ +00_ A_

[Sample5]
TnE +000_ +00_ F_
TnE +000_ +00_ F_
tne +000_ +00_ 0_ L

[Sample6]
TnE -001_ +00_ C_ L
Tne +000_ +00_ E_
Tne +000_ +00_ E_
Tne +000_ +00_ D_
Tne +000_ +00_ B_
Tne +000_ +00_ B_
Tne +000_ +00_ B_
Tne +000_ +00_ B_

[Sample7]
TnE +001_ +00_ C_
TnE +002_ +00_ C_
TnE +001_ +00_ C_
TnE +002_ +00_ C_
TnE +000_ +00_ B_ L
TnE -001_ +00_ B_
TnE -002_ +00_ B_
TnE -001_ +00_ B_
TnE +000_ +00_ B_
TnE +001_ +00_ B_
TnE +002_ +00_ B_
TnE +001_ +00_ B_

[Sample8]
tNe +000_ +00_ F_
tNe +000_ +00_ B_
tNe +000_ +00_ 7_
tNe +000_ +00_ 6- L

[Sample9]
TnE +080_ +00_ F_
TnE +100_ +00_ E_
TnE +180_ +00_ E_
TnE +200_ +00_ E_
TnE +240_ +00_ D_
TnE +280_ +00_ D_
TnE +2C0_ +00_ D_
TnE +300_ +00_ C_
TnE +300_ +00_ C_
TnE +340_ +00_ C_
TnE +340_ +00_ C_
TnE +380_ +00_ B_
TnE +380_ +00_ B_
TnE +400_ +00_ B_
TnE +400_ +00_ B_
TnE +480_ +00_ A_
TnE +500_ +00_ 9_
TnE +580_ +00_ 7_
TnE +600_ +00_ 4_
TnE +680_ +00_ 1_
TnE +000_ +00_ 0_ L

[Sample10]
Tne +1C0_ +00_ F_
Tne +280_ +00_ E_
Tne +380_ +00_ C_
Tne +440_ +00_ A_
Tne +480_ +00_ 8_
TnE +000_ +00_ 0_ L

[Sample11]
TNe +200_ -0A_ F_
tNe +000_ +0F_ A_
TNe +200_ -07_ E_
tNe +000_ +0E_ B- L

[Sample12]
TNE +0A0_ +05_ F_
TNE +140_ +02_ D_
TNE +140_ +02_ B_
TNE +100_ +00_ A_ L
TNE +140_ +00_ A_
TNE +200_ +00_ A-

[Sample13]
Tne +200_ +00_ F_
Tne +2C0_ +00_ F_
Tne +380_ +00_ E_
Tne +500_ +00_ C_
Tne +520_ +00_ 9_
tne +000_ +00_ 0_ L

[Sample14]
TNE -100_ +00_ F_
TNE -100_ +00_ D_
TNE -100_ +00_ A_
TNE -100_ +00_ 5_
tne +000_ +00_ 0_ L

[Sample15]
TNE -100_ +00_ 5_
TNE -100_ +00_ 8_
TNE -100_ +00_ B_
TNE -100_ +00_ F_
TNe -100_ +00_ 9- L

[Sample16]
TnE +000_ +00_ C_
TnE +000_ +00_ E_
TnE +000_ +00_ F_
TnE +000_ +00_ F_
TnE +000_ +00_ E_
TnE +000_ +00_ D_
TnE +000_ +00_ C_
TnE +000_ +00_ C_ L
TnE +001_ +00_ C_
TnE +002_ +00_ C_
TnE +003_ +00_ C_
TnE +001_ +00_ C_
TnE +000_ +00_ C_
TnE -001_ +00_ C_
TnE -002_ +00_ C_
TnE -003_ +00_ C_
TnE -001_ +00_ C_
TnE +000_ +00_ C_
TnE +000_ +00_ C_

[Sample17]
Tne +1C0_ +00_ F_
Tne +280_ +00_ D_
Tne +380_ +00_ 7_
TNE +000_ +00_ 0_ L

[Sample18]
TnE -00C_ +00_ 0_ L

[Sample19]
TNe +000_ +00_ F_
TNe +000_ +00_ C_
TNe +000_ +00_ 6_
TNe +000_ +01_ A- L

[Sample20]
TNE +140_ +00_ F_
tNE +000_ +00_ B- L

[Sample21]
tNE +000_ +00_ D_
tNE +000_ +00_ 8_
tNE +000_ +00_ 1_
TNE +000_ +00_ 0_ L

[Sample22]
TnE +000_ +00_ D_ L
TnE +000_ +00_ D_
tne +000_ +00_ 9_
tne +000_ +00_ 9_
TnE +000_ +00_ D_
TnE +000_ +00_ D_
tne +000_ +00_ 9_
tne +000_ +00_ 9_
TnE +000_ +00_ D_
TnE +000_ +00_ D_
TnE +000_ +00_ D_
TnE +000_ +00_ D_
TnE +000_ +00_ D_
TnE +000_ +00_ D_
tne +000_ +00_ 9_
tne +000_ +00_ 9_

[Sample23]
TnE +000_ +00_ F_ L
TnE +010_ +01_ F_
TnE +010_ +01_ F_
TnE +010_ +01_ F_
TnE +010_ +01_ F_
TnE +000_ +00_ F_
TnE +000_ +00_ F_
TnE -010_ -01_ F_
TnE -010_ -01_ F_
TnE -010_ -01_ F_
TnE -010_ -01_ F_
TnE +000_ +00_ F_

[Sample24]
TNE +000_ +00_ C+ L

[Sample25]
TNE +000_ +00_ F_
TNE +000_ +00_ F_ L
TNE +000_ +00_ F_
TNE +000_ +00_ F_
TNE +000_ +00_ F-

[Sample26]
tne +000_ +00_ 0_ L

[Sample27]
TnE +100_ +05_ F_
TnE +200_ +02_ A_
TnE +300_ +02_ 7_
TNE +400_ +00_ 3- L

[Sample28]
tne +000_ +00_ 0_ L

[Sample29]
tnE +000_ +00_ 0_ L

[Sample30]
TNE +000_ +00_ C+ L

[Sample31]
TNe +1C0_ +00_ F_
Tne +280_ +00_ E_
Tne +380_ +00_ C_
Tne +440_ +00_ A_
Tne +480_ +00_ 8_
TnE +000_ +00_ 0_ L

[Pattern0]
....|..|C-5 OFCF ....|C-5 UFEF ....|F-2 7F.F ....
....|..|--- .... ....|--- .... ....|--- .... ....
....|..|--- .... ....|--- .... ....|--- .... ....
....|..|--- .... ....|--- .... ....|--- .... ....
....|..|--- .... ....|--- .... ....|F-3 7F1F ....
....|..|--- .... ....|--- .... ....|--- .... ....
....|..|--- .... ....|--- .... ....|--- .... ....
....|..|--- .... ....|--- .... ....|--- .... ....
....|..|A#4 OFCF ....|A#4 UFEF ....|F-2 7F.F ....
....|..|--- .... ....|--- .... ....|--- .... ....
....|..|--- .... ....|--- .... ....|--- .... ....
....|..|--- .... ....|--- .... ....|--- .... ....
....|..|C-5 OFCA ....|C-5 UFEA ....|F-3 7F1F ....
....|..|--- .... ....|--- .... ....|--- .... ....
....|..|--- .... ....|--- .... ....|--- .... ....
....|..|--- .... ....|--- .... ....|--- .... ....
....|..|G#4 OFCF ....|G#4 UFEF ....|F-2 7F.F ....
....|..|--- .... ....|--- .... ....|--- .... ....
....|..|--- .... ....|--- .... ....|--- .... ....
....|..|--- .... ....|--- .... ....|--- .... ....
....|..|A#4 OFCA ....|A#4 UFEA ....|F-3 7F1F ....
....|..|--- .... ....|--- .... ....|--- .... ....
....|..|--- .... ....|--- .... ....|--- .... ....
....|..|--- .... ....|--- .... ....|--- .... ....
....|..|C-5 OFC7 ....|C-5 UFE7 ....|F-2 7F.F ....
....|..|--- .... ....|--- .... ....|--- .... ....
....|..|--- .... ....|--- .... ....|--- .... ....
....|..|--- .... ....|--- .... ....|--- .... ....
....|..|F-4 OFCF ....|F-4 UFEF ....|F-3 7F1F ....
....|..|--- .... ....|--- .... ....|--- .... ....
....|..|--- .... ....|--- .... ....|--- .... ....
....|..|--- .... ....|--- .... ....|--- .... ....
....|..|A#4 OFC7 ....|A#4 UFE7 ....|G#2 7F.F ....
....|..|--- .... ....|--- .... ....|--- .... ....
....|..|--- .... ....|--- .... ....|--- .... ....
....|..|--- .... ....|--- .... ....|--- .... ....
....|..|R-- .... ....|R-- .... ....|D#3 7F.F ....
....|..|--- .... ....|--- .... ....|--- .... ....
....|..|--- .... ....|--- .... ....|--- .... ....
....|..|--- .... ....|--- .... ....|--- .... ....
....|..|G#4 OFC7 ....|G#4 UFE7 ....|G#3 7F.F ....
....|..|--- .... ....|--- .... ....|--- .... ....
....|..|--- .... ....|--- .... ....|--- .... ....
....|..|--- .... ....|--- .... ....|--- .... ....
....|..|G#4 OFCF ....|G#4 UFEF ....|F-3 7F17 ....
....|..|--- .... ....|--- .... ....|--- .... ....
....|..|--- .... ....|--- .... ....|--- .... ....
....|..|--- .... ....|--- .... ....|--- .... ....
....|..|R-- .... ....|R-- .... ....|D#3 7F.F ....
....|..|--- .... ....|--- .... ....|--- .... ....
....|..|--- .... ....|--- .... ....|--- .... ....
....|..|--- .... ....|--- .... ....|--- .... ....
....|..|F-4 OFC7 ....|F-4 UFE7 ....|G#2 7F.F ....
....|..|--- .... ....|--- .... ....|--- .... ....
....|..|--- .... ....|--- .... ....|--- .... ....
....|..|--- .... ....|--- .... ....|--- .... ....
....|..|F-5 OFCF ....|F-5 UFEF ....|D#3 7F.F ....
....|..|--- .... ....|--- .... ....|--- .... ....
....|..|--- .... ....|--- .... ....|--- .... ....
....|..|--- .... ....|--- .... ....|--- .... ....
....|..|D#5 OFCF ....|D#5 UFEF ....|C-3 7F.F ....
....|..|--- .... ....|--- .... ....|--- .... ....
....|..|--- .... ....|--- .... ....|--- .... ....
....|..|--- .... ....|--- .... ....|--- .... ....

[Pattern1]
....|..|D-5 OFCF ....|D-5 UFEF ....|A#2 7F.F ....
....|..|--- .... ....|--- .... ....|--- .... ....
....|..|--- .... ....|--- .... ....|--- .... ....
....|..|--- .... ....|--- .... ....|--- .... ....
....|..|G#4 OFC7 ....|G#4 UFE7 ....|F-3 7F.F ....
....|..|--- .... ....|--- .... ....|--- .... ....
....|..|--- .... ....|--- .... ....|--- .... ....
....|..|--- .... ....|--- .... ....|--- .... ....
....|..|A#4 OFCF ....|A#4 UFEF ....|A#3 7F.F ....
....|..|--- .... ....|--- .... ....|--- .... ....
....|..|--- .... ....|--- .... ....|--- .... ....
....|..|--- .... ....|--- .... ....|--- .... ....
....|..|D-5 OFCA ....|D-5 UFEA ....|D-4 7F.F ....
....|..|--- .... ....|--- .... ....|--- .... ....
....|..|--- .... ....|--- .... ....|--- .... ....
....|..|--- .... ....|--- .... ....|--- .... ....
....|..|F-4 OFCF ....|F-4 UFEF ....|A#2 7F.F ....
....|..|--- .... ....|--- .... ....|--- .... ....
....|..|--- .... ....|--- .... ....|--- .... ....
....|..|--- .... ....|--- .... ....|--- .... ....
....|..|D#5 OFC7 ....|D#5 UFE7 ....|A#3 7F1F ....
....|..|--- .... ....|--- .... ....|--- .... ....
....|..|--- .... ....|--- .... ....|--- .... ....
....|..|--- .... ....|--- .... ....|--- .... ....
....|..|G-4 OFCF ....|G-4 UFEF ....|A#2 7F.F ....
....|..|--- .... ....|--- .... ....|--- .... ....
....|..|--- .... ....|--- .... ....|--- .... ....
....|..|--- .... ....|--- .... ....|--- .... ....
....|..|F-4 OFCA ....|F-4 UFEA ....|A#3 7F1F ....
....|..|--- .... ....|--- .... ....|--- .... ....
....|..|--- .... ....|--- .... ....|--- .... ....
....|..|--- .... ....|--- .... ....|--- .... ....
....|..|G#4 OFCF ....|G#4 UFEF ....|F-2 7F.F ....
....|..|--- .... ....|--- .... ....|F-3 7F2F ....
....|..|--- .... ....|--- .... ....|F-3 7F3F ....
....|..|--- .... ....|--- .... ....|--- .... ....
....|..|G-4 OFCA ....|G-4 UFEA ....|D-4 7F.7 ....
....|..|--- .... ....|--- .... ....|--- .... ....
....|..|--- .... ....|--- .... ....|--- .... ....
....|..|--- .... ....|--- .... ....|--- .... ....
....|..|F-4 OFC7 ....|F-4 UFE7 ....|A#2 7F.7 ....
....|..|--- .... ....|--- .... ....|--- .... ....
....|..|--- .... ....|--- .... ....|--- .... ....
....|..|--- .... ....|--- .... ....|--- .... ....
....|..|G#4 OFCA ....|G#4 UFEA ....|A#3 7F17 ....
....|..|--- .... ....|--- .... ....|F-3 7F2A ....
....|..|--- .... ....|--- .... ....|F-3 7F3A ....
....|..|--- .... ....|--- .... ....|--- .... ....
....|..|G-4 OFC7 ....|G-4 UFE7 ....|A#2 7F.7 ....
....|..|--- .... ....|--- .... ....|--- .... ....
....|..|--- .... ....|--- .... ....|--- .... ....
....|..|--- .... ....|--- .... ....|--- .... ....
....|..|--- .... ....|--- .... ....|A#3 7F17 ....
....|..|--- .... ....|--- .... ....|--- .... ....
....|..|--- .... ....|--- .... ....|--- .... ....
....|..|--- .... ....|--- .... ....|--- .... ....
....|..|G#4 OFC7 ....|G#4 UFE7 ....|F-2 7F.7 ....
....|..|--- .... ....|--- .... ....|F-3 7F27 ....
....|..|--- .... ....|--- .... ....|F-3 7F37 ....
....|..|--- .... ....|--- .... ....|--- .... ....
....|..|--- .... ....|--- .... ....|--- .... ....
....|..|--- .... ....|--- .... ....|--- .... ....
....|..|--- .... ....|--- .... ....|--- .... ....
....|..|R-- .... ....|R-- .... ....|--- .... ....

[Pattern2]
....|..|C-5 OFCF ....|F-4 3FFF ....|F-2 7F.F ....
....|..|--- .... ....|--- .... ....|--- .... ....
....|..|--- .... ....|R-- .... ....|--- .... ....
....|..|--- .... ....|--- .... ....|--- .... ....
....|..|--- .... ....|F-4 3FFF ....|F-3 7F1F ....
....|..|--- .... ....|--- .... ....|--- .... ....
....|..|--- .... ....|--- .... ....|--- .... ....
....|..|--- .... ....|--- .... ....|--- .... ....
....|..|A#4 OFCF ....|D#4 3FFF ....|F-2 7F.F ....
....|..|--- .... ....|--- .... ....|--- .... ....
....|..|--- .... ....|R-- .... ....|--- .... ....
....|..|R-- .... ....|R-- .... ....|--- .... ....
....|..|C-5 OFCA ....|D#4 3FFF ....|F-3 7F1F ....
....|..|--- .... ....|--- .... ....|--- .... ....
....|..|--- .... ....|R-- .... ....|--- .... ....
....|..|--- .... ....|--- .... ....|--- .... ....
....|..|G#4 OFCF ....|G#4 3FFF ....|F-2 7F.F ....
....|..|--- .... ....|--- .... ....|--- .... ....
....|..|--- .... ....|R-- .... ....|--- .... ....
....|..|--- .... ....|--- .... ....|--- .... ....
....|..|A#4 OFCA ....|G#4 3FFF ....|F-3 7F1F ....
....|..|--- .... ....|--- .... ....|--- .... ....
....|..|--- .... ....|R-- .... ....|--- .... ....
....|..|R-- .... ....|R-- .... ....|--- .... ....
....|..|C-5 OFC7 ....|G-4 3FFF ....|F-2 7F.F ....
....|..|--- .... ....|--- .... ....|--- .... ....
....|..|--- .... ....|R-- .... ....|--- .... ....
....|..|--- .... ....|--- .... ....|--- .... ....
....|..|F-4 OFCF ....|G-4 3FFF ....|F-3 7F1F ....
....|..|--- .... ....|--- .... ....|--- .... ....
....|..|--- .... ....|R-- .... ....|--- .... ....
....|..|--- .... ....|--- .... ....|--- .... ....
....|..|A#4 OFC7 ....|G-4 3FFF ....|G#2 7F.F ....
....|..|--- .... ....|--- .... ....|--- .... ....
....|..|--- .... ....|R-- .... ....|--- .... ....
....|..|--- .... ....|--- .... ....|--- .... ....
....|..|R-- .... ....|D#4 3FFF ....|D#3 7F.F ....
....|..|--- .... ....|--- .... ....|--- .... ....
....|..|--- .... ....|R-- .... ....|--- .... ....
....|..|--- .... ....|--- .... ....|--- .... ....
....|..|G#4 OFC7 ....|D#4 3FFF ....|G#3 7F.F ....
....|..|--- .... ....|--- .... ....|--- .... ....
....|..|--- .... ....|R-- .... ....|--- .... ....
....|..|--- .... ....|--- .... ....|--- .... ....
....|..|G#4 OFCF ....|D#4 3FFF ....|F-3 7F17 ....
....|..|--- .... ....|--- .... ....|--- .... ....
....|..|--- .... ....|R-- .... ....|--- .... ....
....|..|--- .... ....|--- .... ....|--- .... ....
....|..|R-- .... ....|D#4 3FFF ....|D#3 7F.F ....
....|..|--- .... ....|--- .... ....|--- .... ....
....|..|--- .... ....|R-- .... ....|--- .... ....
....|..|--- .... ....|--- .... ....|--- .... ....
....|..|F-4 OFC7 ....|G-4 3FF7 ....|G#2 7F.F ....
....|..|--- .... ....|--- .... ....|--- .... ....
....|..|--- .... ....|R-- .... ....|--- .... ....
....|..|--- .... ....|--- .... ....|--- .... ....
....|..|F-5 OFCF ....|F-5 UFEF ....|D#3 7F.F ....
....|..|--- .... ....|--- .... ....|--- .... ....
....|..|--- .... ....|R-- .... ....|--- .... ....
....|..|--- .... ....|--- .... ....|--- .... ....
....|..|D#5 OFCF ....|D#5 UFEF ....|C-3 7F.F ....
....|..|--- .... ....|--- .... ....|--- .... ....
....|..|--- .... ....|R-- .... ....|--- .... ....
....|..|--- .... ....|--- .... ....|--- .... ....

[Pattern3]
....|..|D-5 OFCF ....|D#4 3FFF ....|A#2 7F.F ....
....|..|--- .... ....|--- .... ....|--- .... ....
....|..|--- .... ....|R-- .... ....|--- .... ....
....|..|--- .... ....|--- .... ....|--- .... ....
....|..|G#4 OFC7 ....|D#4 3FFF ....|F-3 7F.F ....
....|..|--- .... ....|--- .... ....|--- .... ....
....|..|--- .... ....|R-- .... ....|--- .... ....
....|..|--- .... ....|--- .... ....|--- .... ....
....|..|A#4 OFCF ....|D#4 3FFF ....|A#3 7F.F ....
....|..|--- .... ....|--- .... ....|--- .... ....
....|..|--- .... ....|R-- .... ....|--- .... ....
....|..|--- .... ....|--- .... ....|--- .... ....
....|..|D-5 OFCA ....|D#4 3FFF ....|D-4 7F.F ....
....|..|--- .... ....|--- .... ....|--- .... ....
....|..|--- .... ....|R-- .... ....|--- .... ....
....|..|--- .... ....|--- .... ....|--- .... ....
....|..|F-4 OFCF ....|D#4 3FFF ....|A#2 7F.F ....
....|..|--- .... ....|--- .... ....|--- .... ....
....|..|--- .... ....|R-- .... ....|--- .... ....
....|..|--- .... ....|--- .... ....|--- .... ....
....|..|D#5 OFC7 ....|D#4 3FFF ....|A#3 7F1F ....
....|..|--- .... ....|--- .... ....|--- .... ....
....|..|--- .... ....|R-- .... ....|--- .... ....
....|..|--- .... ....|--- .... ....|--- .... ....
....|..|G-4 OFCF ....|D#4 3FFF ....|A#2 7F.F ....
....|..|--- .... ....|--- .... ....|--- .... ....
....|..|--- .... ....|R-- .... ....|--- .... ....
....|..|--- .... ....|--- .... ....|--- .... ....
....|..|F-4 OFCA ....|F-4 3FFF ....|A#3 7F1F ....
....|..|--- .... ....|--- .... ....|--- .... ....
....|..|--- .... ....|R-- .... ....|--- .... ....
....|..|--- .... ....|--- .... ....|--- .... ....
....|..|G#4 OFCF ....|F-4 3FFF ....|F-2 7F.F ....
....|..|--- .... ....|--- .... ....|--- .... ....
....|..|--- .... ....|R-- .... ....|--- .... ....
....|..|--- .... ....|--- .... ....|--- .... ....
....|..|G-4 OFCA ....|C-4 3FFF ....|C-3 7F.F ....
....|..|--- .... ....|--- .... ....|--- .... ....
....|..|--- .... ....|R-- .... ....|--- .... ....
....|..|--- .... ....|--- .... ....|--- .... ....
....|..|F-4 OFCF ....|C-4 3FFF ....|F-3 7F.F ....
....|..|--- .... ....|--- .... ....|--- .... ....
....|..|--- .... ....|R-- .... ....|--- .... ....
....|..|--- .... ....|--- .... ....|--- .... ....
....|..|G#4 OFCA ....|D#4 3FF7 ....|C-3 7F.F ....
....|..|--- .... ....|--- .... ....|--- .... ....
....|..|--- .... ....|R-- .... ....|--- .... ....
....|..|--- .... ....|--- .... ....|--- .... ....
....|..|F-4 OFCF ....|C-4 3FFF ....|F-3 7F.F ....
....|..|--- .... ....|--- .... ....|--- .... ....
....|..|--- .... ....|R-- .... ....|--- .... ....
....|..|--- .... ....|--- .... ....|--- .... ....
....|..|F-4 OFCA ....|F-4 3FF7 ....|C-3 7F.F ....
....|..|--- .... ....|--- .... ....|--- .... ....
....|..|--- .... ....|R-- .... ....|--- .... ....
....|..|--- .... ....|--- .... ....|--- .... ....
....|..|F-4 OFCF ....|F-4 UFEF ....|F-2 7F.F ....
....|..|--- .... ....|--- .... ....|--- .... ....
....|..|--- .... ....|R-- .... ....|--- .... ....
....|..|--- .... ....|--- .... ....|--- .... ....
....|..|G#4 OFCF ....|G#4 UFEF ....|C-3 7F.F ....
....|..|--- .... ....|--- .... ....|--- .... ....
....|..|--- .... ....|R-- .... ....|--- .... ....
....|..|--- .... ....|--- .... ....|--- .... ....

[Pattern4]
....|..|C-5 OFCF ....|F-4 3FFF ....|F-2 7F.F ....
....|..|--- .... ....|--- .... ....|--- .... ....
....|..|--- .... ....|R-- .... ....|--- .... ....
....|..|--- .... ....|--- .... ....|--- .... ....
....|..|F-4 OFCA ....|F-4 3FFF ....|F-3 7F1F ....
....|..|--- .... ....|--- .... ....|--- .... ....
....|..|--- .... ....|R-- .... ....|--- .... ....
....|..|--- .... ....|--- .... ....|--- .... ....
....|..|A#4 OFCF ....|F-4 3FFF ....|F-2 7F.F ....
....|..|--- .... ....|F-4 3FFF ....|--- .... ....
....|..|--- .... ....|F-4 3FFF ....|--- .... ....
....|..|--- .... ....|F-4 3FFF ....|--- .... ....
....|..|C-5 OFCA ....|F-4 3FFF ....|F-3 7F1F ....
....|..|--- .... ....|--- .... ....|--- .... ....
....|..|--- .... ....|R-- .... ....|--- .... ....
....|..|--- .... ....|--- .... ....|--- .... ....
....|..|G#4 OFCF ....|F-4 3FFF ....|F-2 7F.F ....
....|..|--- .... ....|--- .... ....|--- .... ....
....|..|--- .... ....|R-- .... ....|--- .... ....
....|..|--- .... ....|--- .... ....|--- .... ....
....|..|G#4 OFC7 ....|F-4 3FFF ....|F-3 7F1F ....
....|..|--- .... ....|F-4 3FFA ....|--- .... ....
....|..|--- .... ....|F-4 3FFA ....|--- .... ....
....|..|--- .... ....|F-4 3FFA ....|--- .... ....
....|..|C-5 OFC7 ....|F-4 3FFF ....|F-2 7F.F ....
....|..|--- .... ....|--- .... ....|--- .... ....
....|..|--- .... ....|R-- .... ....|--- .... ....
....|..|--- .... ....|--- .... ....|--- .... ....
....|..|F-4 OFCF ....|G-4 3FFF ....|F-3 7F1F ....
....|..|--- .... ....|--- .... ....|--- .... ....
....|..|--- .... ....|R-- .... ....|--- .... ....
....|..|--- .... ....|--- .... ....|--- .... ....
....|..|A#4 OFC7 ....|G-4 3FFF ....|G#2 7F.F ....
....|..|--- .... ....|F-4 3FF7 ....|--- .... ....
....|..|--- .... ....|F-4 3FF7 ....|--- .... ....
....|..|--- .... ....|F-4 3FF7 ....|--- .... ....
....|..|R-- .... ....|D#4 3FFF ....|D#3 7F.F ....
....|..|--- .... ....|--- .... ....|--- .... ....
....|..|--- .... ....|R-- .... ....|--- .... ....
....|..|--- .... ....|--- .... ....|--- .... ....
....|..|G#4 OFC7 ....|D#4 3FFF ....|G#3 7F.F ....
....|..|--- .... ....|--- .... ....|--- .... ....
....|..|--- .... ....|R-- .... ....|--- .... ....
....|..|--- .... ....|--- .... ....|--- .... ....
....|..|G#4 OFCF ....|D#4 3FFF ....|F-3 7F17 ....
....|..|--- .... ....|--- .... ....|--- .... ....
....|..|--- .... ....|R-- .... ....|--- .... ....
....|..|--- .... ....|--- .... ....|--- .... ....
....|..|R-- .... ....|D#4 3FFF ....|D#3 7F.F ....
....|..|--- .... ....|--- .... ....|--- .... ....
....|..|--- .... ....|R-- .... ....|--- .... ....
....|..|--- .... ....|--- .... ....|--- .... ....
....|..|F-4 OFC7 ....|G-4 3FF7 ....|G#2 7F.F ....
....|..|--- .... ....|--- .... ....|--- .... ....
....|..|--- .... ....|R-- .... ....|--- .... ....
....|..|--- .... ....|--- .... ....|--- .... ....
....|..|F-5 OFCF ....|F-5 UFEF ....|D#3 7F.F ....
....|..|--- .... ....|--- .... ....|--- .... ....
....|..|--- .... ....|R-- .... ....|--- .... ....
....|..|--- .... ....|--- .... ....|--- .... ....
....|..|D#5 OFCF ....|D#5 UFEF ....|C-3 7F.F ....
....|..|--- .... ....|--- .... ....|--- .... ....
....|..|--- .... ....|R-- .... ....|--- .... ....
....|..|--- .... ....|--- .... ....|--- .... ....

[Pattern5]
....|..|D-5 OFCF ....|D#4 3FFF ....|A#2 7F.F ....
....|..|--- .... ....|--- .... ....|--- .... ....
....|..|--- .... ....|R-- .... ....|--- .... ....
....|..|--- .... ....|--- .... ....|--- .... ....
....|..|G#4 OFC7 ....|D#4 3FFF ....|F-3 7F.F ....
....|..|--- .... ....|--- .... ....|--- .... ....
....|..|--- .... ....|R-- .... ....|--- .... ....
....|..|--- .... ....|--- .... ....|--- .... ....
....|..|A#4 OFCF ....|D#4 3FFF ....|A#3 7F.F ....
....|..|--- .... ....|--- .... ....|--- .... ....
....|..|--- .... ....|--- .... ....|--- .... ....
....|..|--- .... ....|--- .... ....|--- .... ....
....|..|D-5 OFCA ....|D#4 3FFF ....|D-4 7F.F ....
....|..|--- .... ....|--- .... ....|--- .... ....
....|..|--- .... ....|--- .... ....|--- .... ....
....|..|--- .... ....|--- .... ....|--- .... ....
....|..|F-4 OFCF ....|D#4 3FFF ....|A#2 7F.F ....
....|..|--- .... ....|--- .... ....|--- .... ....
....|..|--- .... ....|--- .... ....|--- .... ....
....|..|--- .... ....|--- .... ....|--- .... ....
....|..|D#5 OFC7 ....|D#4 3FFF ....|A#3 7F1F ....
....|..|--- .... ....|--- .... ....|--- .... ....
....|..|--- .... ....|--- .... ....|--- .... ....
....|..|--- .... ....|--- .... ....|--- .... ....
....|..|G-4 OFCF ....|D#4 3FFF ....|A#2 7F.F ....
....|..|--- .... ....|--- .... ....|--- .... ....
....|..|--- .... ....|--- .... ....|--- .... ....
....|..|--- .... ....|--- .... ....|--- .... ....
....|..|F-4 OFCA ....|F-4 3FFF ....|A#3 7F1F ....
....|..|--- .... ....|--- .... ....|--- .... ....
....|..|--- .... ....|--- .... ....|--- .... ....
....|..|--- .... ....|--- .... ....|--- .... ....
....|..|G#4 OFCF ....|F-4 3FFF ....|F-2 7F.F ....
....|..|--- .... ....|--- .... ....|--- .... ....
....|..|--- .... ....|--- .... ....|--- .... ....
....|..|--- .... ....|--- .... ....|--- .... ....
....|..|G-4 OFCA ....|C-4 3FFF ....|C-3 7F.F ....
....|..|--- .... ....|--- .... ....|--- .... ....
....|..|--- .... ....|--- .... ....|--- .... ....
....|..|--- .... ....|--- .... ....|--- .... ....
....|..|F-4 OFCF ....|C-4 3FFF ....|F-3 7F.F ....
....|..|--- .... ....|--- .... ....|--- .... ....
....|..|--- .... ....|--- .... ....|--- .... ....
....|..|--- .... ....|--- .... ....|--- .... ....
....|..|G#4 OFCA ....|D#4 3FF7 ....|C-3 7F.F ....
....|..|--- .... ....|--- .... ....|--- .... ....
....|..|--- .... ....|--- .... ....|--- .... ....
....|..|--- .... ....|--- .... ....|--- .... ....
....|..|C-4 BF.F ....|C-4 3FFF ....|F-3 7F.F ....
....|..|--- .... ....|--- .... ....|--- .... ....
....|..|C-4 BF.F ....|--- .... ....|--- .... ....
....|..|--- .... ....|--- .... ....|--- .... ....
....|..|C-4 LF.F ....|F-4 3FF7 ....|C-3 7F.F ....
....|..|--- .... ....|--- .... ....|--- .... ....
....|..|R-- .... ....|--- .... ....|--- .... ....
....|..|--- .... ....|--- .... ....|--- .... ....
....|..|B-8 JF.F ....|F-4 UFEF ....|F-2 7F.F ....
....|..|B-8 JF.F ....|--- .... ....|--- .... ....
....|..|B-8 JF.F ....|--- .... ....|--- .... ....
....|..|B-8 JF.F ....|--- .... ....|--- .... ....
....|..|B-8 JF.F ....|F-4 3FFF ....|C-3 7F.F ....
....|..|B-8 JF.F ....|--- .... ....|--- .... ....
....|..|B-8 JF.F ....|--- .... ....|--- .... ....
....|..|B-8 JF.F ....|--- .... ....|--- .... ....

[Pattern6]
....|..|C-4 AF.F ....|F-4 3FFF ....|F-2 7F.F ....
 F-3|..|F-1 2A.F ....|--- .... ....|--- .... ....
....|..|R-- .... ....|--- .... ....|--- .... ....
....|..|--- .... ....|--- .... ....|--- .... ....
 F-4|..|F-2 2A.F ....|C-4 3FFF ....|F-3 7F1F ....
....|..|B-8 JF.A ....|--- .... ....|--- .... ....
....|..|B-8 JF.A ....|--- .... ....|--- .... ....
....|..|B-8 JF.A ....|--- .... ....|--- .... ....
....|..|C-4 CF.F ....|C-4 3FFF ....|F-2 7F.F ....
 F-3|..|F-1 2A.F ....|--- .... ....|--- .... ....
....|..|C-4 BF.7 ....|--- .... ....|--- .... ....
....|..|B-8 JF.A ....|--- .... ....|--- .... ....
 F-4|..|F-2 2A.F ....|F-4 3FFA ....|F-3 7F1F ....
....|..|F-1 2F.A ....|--- .... ....|--- .... ....
....|..|R-- .... ....|--- .... ....|--- .... ....
....|..|--- .... ....|--- .... ....|--- .... ....
....|..|C-4 AF.F ....|C-4 3FFF ....|F-2 7F.F ....
 F-3|..|F-1 2A.F ....|--- .... ....|--- .... ....
....|..|B-8 JF.7 ....|--- .... ....|--- .... ....
....|..|B-8 JF.7 ....|--- .... ....|--- .... ....
 F-4|..|F-2 2A.F ....|F-4 3FF7 ....|F-3 7F1F ....
....|..|B-8 JF.7 ....|--- .... ....|--- .... ....
....|..|B-8 JF.7 ....|--- .... ....|--- .... ....
....|..|B-8 JF.7 ....|--- .... ....|--- .... ....
....|..|C-4 CF.F ....|F-4 3FF7 ....|F-2 7F.F ....
 F-3|..|F-1 2A.F ....|--- .... ....|--- .... ....
....|..|--- .... ....|--- .... ....|--- .... ....
....|..|--- .... ....|--- .... ....|--- .... ....
 F-4|..|F-2 2A.F ....|F-4 3FFF ....|F-3 7F1F ....
....|..|F-1 2F.A ....|--- .... ....|--- .... ....
....|..|--- .... ....|--- .... ....|--- .... ....
....|..|--- .... ....|--- .... ....|F-3 7F.F ....
....|..|C-4 AF.F ....|F-4 3FFF ....|G#2 7F.F ....
 G#2|..|G#1 2A.F ....|--- .... ....|--- .... ....
....|..|--- .... ....|--- .... ....|--- .... ....
....|..|--- .... ....|--- .... ....|--- .... ....
 G#3|..|G#1 2A.F ....|C-4 3FFF ....|D#3 7F.F ....
....|..|F-1 2F.A ....|--- .... ....|--- .... ....
....|..|--- .... ....|--- .... ....|--- .... ....
....|..|--- .... ....|--- .... ....|--- .... ....
....|..|C-4 CF.F ....|C-4 3FFF ....|G#3 7F.F ....
 G#2|..|G#1 2A.F ....|--- .... ....|--- .... ....
....|..|--- .... ....|--- .... ....|--- .... ....
....|..|--- .... ....|--- .... ....|F-3 7F.A ....
 G#3|..|G#1 2A.F ....|G#4 UFEF ....|F-3 7F17 ....
....|..|G#1 2F.A ....|--- .... ....|--- .... ....
....|..|--- .... ....|--- .... ....|--- .... ....
....|..|--- .... ....|--- .... ....|--- .... ....
....|..|C-4 AF.F ....|C-4 3FFF ....|G#2 7F.F ....
 G#2|..|G#1 2A.F ....|--- .... ....|--- .... ....
....|..|--- .... ....|--- .... ....|--- .... ....
....|..|--- .... ....|--- .... ....|--- .... ....
....|..|C-4 BF.F ....|F-4 3FF7 ....|D#3 7F.F ....
 G#3|..|G#1 2A.F ....|--- .... ....|--- .... ....
....|..|--- .... ....|--- .... ....|--- .... ....
....|..|--- .... ....|--- .... ....|F-3 7F.7 ....
....|..|C-4 CF.F ....|F-5 UFEF ....|G#3 7F.F ....
 G#2|..|G#1 2A.F ....|--- .... ....|--- .... ....
....|..|--- .... ....|--- .... ....|--- .... ....
....|..|--- .... ....|--- .... ....|--- .... ....
 G#3|..|G#1 2A.F ....|D#5 UFEF ....|D#3 7F.7 ....
....|..|G#1 2F.A ....|--- .... ....|--- .... ....
....|..|--- .... ....|--- .... ....|--- .... ....
....|..|R-- .... ....|--- .... ....|--- .... ....

[Pattern7]
....|..|C-4 AF.F ....|F-4 3FFF ....|A#2 7F.F ....
 A#2|..|A#1 2A.F ....|--- .... ....|--- .... ....
....|..|--- .... ....|R-- .... ....|--- .... ....
....|..|--- .... ....|--- .... ....|--- .... ....
 A#3|..|A#1 2A.F ....|F-4 3FFF ....|F-3 7F.F ....
....|..|G#1 2F.A ....|--- .... ....|--- .... ....
....|..|--- .... ....|R-- .... ....|--- .... ....
....|..|--- .... ....|--- .... ....|--- .... ....
....|..|C-4 CF.F ....|D#4 3FFF ....|D-4 7F.F ....
 A#2|..|A#1 2A.F ....|--- .... ....|--- .... ....
....|..|--- .... ....|R-- .... ....|--- .... ....
....|..|R-- .... ....|--- .... ....|--- .... ....
 A#3|..|A#1 2A.F ....|D#4 3FFF ....|F-3 7F.F ....
....|..|G#1 2F.7 ....|--- .... ....|--- .... ....
....|..|--- .... ....|R-- .... ....|--- .... ....
....|..|--- .... ....|--- .... ....|--- .... ....
....|..|C-4 AF.F ....|G#4 3FFF ....|A#2 7F.F ....
 A#2|..|A#1 2A.F ....|--- .... ....|--- .... ....
....|..|--- .... ....|R-- .... ....|--- .... ....
....|..|--- .... ....|--- .... ....|--- .... ....
 A#3|..|A#1 2A.F ....|G#4 3FFF ....|F-3 7F.F ....
....|..|A#1 2F.A ....|--- .... ....|--- .... ....
....|..|--- .... ....|R-- .... ....|--- .... ....
....|..|R-- .... ....|--- .... ....|--- .... ....
....|..|C-4 CF.F ....|G-4 3FFF ....|A#3 7F.F ....
 A#2|..|A#1 2A.F ....|--- .... ....|--- .... ....
....|..|--- .... ....|R-- .... ....|--- .... ....
....|..|--- .... ....|--- .... ....|--- .... ....
 A#3|..|A#1 2A.F ....|G-4 3FFF ....|G-3 7F.F ....
....|..|A#1 2F.A ....|--- .... ....|--- .... ....
....|..|--- .... ....|R-- .... ....|--- .... ....
....|..|--- .... ....|--- .... ....|--- .... ....
....|..|C-4 AF.F ....|G-4 3FFF ....|G#3 7F.F ....
 F-3|..|F-1 2A.F ....|--- .... ....|--- .... ....
....|..|--- .... ....|R-- .... ....|--- .... ....
....|..|--- .... ....|--- .... ....|--- .... ....
 F-4|..|F-2 2A.F ....|C-4 3FFF ....|F-2 7F.F ....
....|..|A#1 2F.A ....|--- .... ....|--- .... ....
....|..|--- .... ....|R-- .... ....|--- .... ....
....|..|--- .... ....|--- .... ....|--- .... ....
....|..|C-4 CF.F ....|C-4 3FFF ....|C-3 7F.F ....
 F-3|..|F-1 2A.F ....|--- .... ....|--- .... ....
....|..|--- .... ....|R-- .... ....|--- .... ....
....|..|--- .... ....|--- .... ....|--- .... ....
 F-4|..|F-2 2A.F ....|G#4 3FF7 ....|F-3 7F.F ....
....|..|F-1 2F.A ....|--- .... ....|--- .... ....
....|..|--- .... ....|R-- .... ....|--- .... ....
....|..|--- .... ....|--- .... ....|--- .... ....
....|..|C-4 AF.F ....|C-4 3FFF ....|A#3 7F.7 ....
 F-3|..|F-1 2A.F ....|--- .... ....|--- .... ....
....|..|--- .... ....|R-- .... ....|--- .... ....
....|..|--- .... ....|--- .... ....|--- .... ....
....|..|C-4 BF.F ....|G-4 3FF7 ....|C-3 7F.F ....
 F-4|..|F-2 2A.F ....|--- .... ....|--- .... ....
....|..|--- .... ....|R-- .... ....|--- .... ....
....|..|--- .... ....|--- .... ....|--- .... ....
....|..|C-4 CF.F ....|C-4 UFEF ....|F-2 7F.F ....
 F-3|..|F-1 2A.F ....|--- .... ....|--- .... ....
....|..|--- .... ....|--- .... ....|--- .... ....
....|..|--- .... ....|--- .... ....|--- .... ....
 F-4|..|F-2 2A.F ....|G#4 UFEF ....|G#2 7F.F ....
....|..|F-1 2F.A ....|--- .... ....|--- .... ....
....|..|--- .... ....|--- .... ....|--- .... ....
....|..|--- .... ....|--- .... ....|--- .... ....

[Pattern8]
....|..|C-4 AF.F ....|F-4 3FFF ....|F-2 7F.F ....
 F-2|..|F-1 2A.F ....|--- .... ....|--- .... ....
....|..|--- .... ....|--- .... ....|--- .... ....
....|..|--- .... ....|--- .... ....|--- .... ....
 F-4|..|F-4 2C.F ....|F-4 3FFF ....|F-3 7F1F ....
....|..|F-1 2F.A ....|--- .... ....|--- .... ....
....|..|--- .... ....|--- .... ....|--- .... ....
....|..|--- .... ....|--- .... ....|--- .... ....
....|..|C-4 CF.F ....|D#4 3FFF ....|F-2 7F.F ....
....|..|F-1 2F.7 ....|--- .... ....|--- .... ....
....|..|--- .... ....|--- .... ....|--- .... ....
....|..|--- .... ....|--- .... ....|--- .... ....
 F-4|..|F-4 2C.F ....|D#4 3FFF ....|F-3 7F1F ....
....|..|F-2 2F.7 ....|--- .... ....|--- .... ....
....|..|--- .... ....|--- .... ....|--- .... ....
....|..|--- .... ....|--- .... ....|--- .... ....
....|..|C-4 AF.F ....|G#4 3FFF ....|F-2 7F.F ....
....|..|F-1 2F.7 ....|--- .... ....|--- .... ....
....|..|--- .... ....|--- .... ....|--- .... ....
....|..|--- .... ....|--- .... ....|--- .... ....
 F-4|..|F-4 2C.F ....|G#4 3FFF ....|F-3 7F1F ....
....|..|R-- .... ....|--- .... ....|--- .... ....
....|..|--- .... ....|--- .... ....|--- .... ....
....|..|--- .... ....|--- .... ....|--- .... ....
....|..|C-4 CF.F ....|G-4 3FFF ....|F-2 7F.F ....
....|..|F-1 2F.7 ....|--- .... ....|--- .... ....
....|..|--- .... ....|--- .... ....|--- .... ....
....|..|--- .... ....|--- .... ....|--- .... ....
 F-2|..|F-1 2A.F ....|G-4 3FFF ....|F-3 7F1F ....
....|..|R-- .... ....|--- .... ....|--- .... ....
....|..|--- .... ....|--- .... ....|--- .... ....
....|..|--- .... ....|--- .... ....|F-3 7F.F ....
....|..|C-4 AF.F ....|G-4 3FFF ....|G#2 7F.F ....
 G#2|..|G#1 2A.F ....|--- .... ....|--- .... ....
....|..|--- .... ....|--- .... ....|--- .... ....
....|..|--- .... ....|--- .... ....|--- .... ....
 G#4|..|G#4 2C.F ....|D#4 3FFF ....|F-3 7F17 ....
....|..|R-- .... ....|--- .... ....|--- .... ....
....|..|--- .... ....|--- .... ....|D#3 7F.F ....
....|..|--- .... ....|--- .... ....|--- .... ....
....|..|C-4 CF.F ....|D#4 3FFF ....|F-2 7F.7 ....
....|..|R-- .... ....|--- .... ....|--- .... ....
....|..|--- .... ....|--- .... ....|--- .... ....
....|..|--- .... ....|--- .... ....|F-3 7F.A ....
 G#4|..|G#4 2C.F ....|D#4 3FFF ....|G#3 7F.F ....
....|..|G#1 2F.A ....|--- .... ....|--- .... ....
....|..|--- .... ....|--- .... ....|--- .... ....
....|..|--- .... ....|--- .... ....|--- .... ....
....|..|C-4 AF.F ....|D#4 3FFF ....|G#2 7F.F ....
....|..|R-- .... ....|--- .... ....|--- .... ....
....|..|--- .... ....|--- .... ....|D#3 7F.A ....
....|..|--- .... ....|--- .... ....|--- .... ....
 G#4|..|G#4 2C.F ....|G-4 3FF7 ....|G#3 7F.F ....
....|..|R-- .... ....|--- .... ....|--- .... ....
....|..|--- .... ....|--- .... ....|--- .... ....
....|..|--- .... ....|--- .... ....|F-3 7F.7 ....
....|..|C-4 CF.F ....|F-5 UFEF ....|D#3 7F.F ....
....|..|G#1 2F.7 ....|--- .... ....|--- .... ....
....|..|--- .... ....|--- .... ....|--- .... ....
....|..|--- .... ....|--- .... ....|--- .... ....
 G#4|..|G#4 2C.F ....|D#4 3FFF ....|G#2 7F.F ....
....|..|R-- .... ....|--- .... ....|--- .... ....
....|..|--- .... ....|--- .... ....|D#3 7F.7 ....
....|..|--- .... ....|--- .... ....|--- .... ....

[Pattern9]
....|..|C-4 AF.F ....|D#4 3FFF ....|A#2 7F.F ....
 A#2|..|A#1 2A.F ....|--- .... ....|--- .... ....
....|..|--- .... ....|--- .... ....|--- .... ....
....|..|--- .... ....|--- .... ....|--- .... ....
 A#3|..|A#4 2C.F ....|D#4 3FFF ....|F-3 7F.F ....
....|..|R-- .... ....|--- .... ....|--- .... ....
....|..|--- .... ....|--- .... ....|--- .... ....
....|..|--- .... ....|--- .... ....|--- .... ....
....|..|C-4 CF.F ....|D#4 3FFF ....|A#3 7F.F ....
....|..|R-- .... ....|--- .... ....|--- .... ....
....|..|--- .... ....|--- .... ....|--- .... ....
....|..|--- .... ....|--- .... ....|--- .... ....
 A#3|..|A#4 2C.F ....|D#4 3FFF ....|F-3 7F.F ....
....|..|A#1 2F.A ....|--- .... ....|--- .... ....
....|..|--- .... ....|--- .... ....|--- .... ....
....|..|--- .... ....|--- .... ....|--- .... ....
....|..|C-4 AF.F ....|D#4 3FFF ....|A#1 7F.F ....
....|..|R-- .... ....|--- .... ....|--- .... ....
....|..|--- .... ....|--- .... ....|--- .... ....
....|..|--- .... ....|--- .... ....|--- .... ....
 A#3|..|A#4 2C.F ....|D#4 3FFF ....|A#2 7F.F ....
....|..|R-- .... ....|--- .... ....|--- .... ....
....|..|--- .... ....|--- .... ....|--- .... ....
....|..|--- .... ....|--- .... ....|--- .... ....
....|..|C-4 CF.F ....|D#4 3FFF ....|F-3 7F.F ....
....|..|A#1 2F.7 ....|--- .... ....|--- .... ....
....|..|--- .... ....|--- .... ....|--- .... ....
....|..|--- .... ....|--- .... ....|--- .... ....
 D#2|..|D#1 2A.F ....|F-4 3FFF ....|D#2 7F.F ....
....|..|R-- .... ....|--- .... ....|--- .... ....
....|..|--- .... ....|--- .... ....|--- .... ....
....|..|--- .... ....|--- .... ....|--- .... ....
....|..|C-4 AF.F ....|F-4 3FFF ....|F-2 7F.F ....
 F-2|..|F-1 2A.F ....|--- .... ....|--- .... ....
....|..|--- .... ....|--- .... ....|--- .... ....
....|..|--- .... ....|--- .... ....|--- .... ....
 G#4|..|G#4 2C.F ....|C-4 3FFF ....|C-3 7F.F ....
....|..|R-- .... ....|--- .... ....|--- .... ....
....|..|--- .... ....|--- .... ....|--- .... ....
....|..|--- .... ....|--- .... ....|--- .... ....
....|..|C-4 CF.F ....|C-4 3FFF ....|F-3 7F.F ....
....|..|R-- .... ....|--- .... ....|--- .... ....
....|..|--- .... ....|--- .... ....|--- .... ....
....|..|--- .... ....|--- .... ....|--- .... ....
 G#4|..|G#4 2C.F ....|D#4 3FF7 ....|C-3 7F.F ....
....|..|F-1 2F.A ....|--- .... ....|--- .... ....
....|..|--- .... ....|--- .... ....|--- .... ....
....|..|--- .... ....|--- .... ....|--- .... ....
....|..|C-4 AF.F ....|C-4 3FFF ....|F-3 7F.F ....
....|..|R-- .... ....|--- .... ....|--- .... ....
....|..|--- .... ....|--- .... ....|--- .... ....
....|..|--- .... ....|--- .... ....|--- .... ....
 G#4|..|G#4 2C.F ....|F-4 3FF7 ....|C-3 7F.F ....
....|..|R-- .... ....|--- .... ....|--- .... ....
....|..|--- .... ....|--- .... ....|--- .... ....
....|..|--- .... ....|--- .... ....|--- .... ....
....|..|C-4 CF.F ....|C-4 UFEF ....|F-2 7F.F ....
....|..|F-1 2F.7 ....|--- .... ....|--- .... ....
....|..|--- .... ....|--- .... ....|--- .... ....
....|..|--- .... ....|--- .... ....|--- .... ....
 G#4|..|G#4 2C.F ....|C-4 3FFF ....|C-3 7F.F ....
....|..|R-- .... ....|--- .... ....|--- .... ....
....|..|--- .... ....|--- .... ....|--- .... ....
....|..|--- .... ....|--- .... ....|--- .... ....

[Pattern10]
....|..|C-4 AF.F ....|F-4 3FFF ....|F-2 7F.F ....
 F-2|..|F-1 2A.F ....|--- .... ....|--- .... ....
....|..|--- .... ....|--- .... ....|--- .... ....
....|..|--- .... ....|--- .... ....|--- .... ....
 F-4|..|F-4 2C.F ....|F-4 3FFF ....|F-3 7F1F ....
....|..|R-- .... ....|--- .... ....|--- .... ....
....|..|--- .... ....|--- .... ....|--- .... ....
....|..|--- .... ....|--- .... ....|--- .... ....
....|..|C-4 CF.F ....|D#4 3FFF ....|F-2 7F.F ....
....|..|R-- .... ....|--- .... ....|--- .... ....
....|..|--- .... ....|--- .... ....|--- .... ....
....|..|--- .... ....|--- .... ....|--- .... ....
 F-4|..|F-4 2C.F ....|D#4 3FFF ....|F-3 7F1F ....
....|..|F-1 2F.A ....|--- .... ....|--- .... ....
....|..|--- .... ....|--- .... ....|--- .... ....
....|..|--- .... ....|--- .... ....|--- .... ....
....|..|C-4 AF.F ....|G#4 3FFF ....|F-2 7F.F ....
....|..|R-- .... ....|--- .... ....|--- .... ....
....|..|--- .... ....|--- .... ....|--- .... ....
....|..|--- .... ....|--- .... ....|--- .... ....
 F-4|..|F-4 2C.F ....|G#4 3FFF ....|F-3 7F1F ....
....|..|R-- .... ....|--- .... ....|--- .... ....
....|..|--- .... ....|--- .... ....|--- .... ....
....|..|--- .... ....|--- .... ....|--- .... ....
....|..|C-4 CF.F ....|G-4 3FFF ....|F-2 7F.F ....
....|..|F-1 2F.7 ....|--- .... ....|--- .... ....
....|..|--- .... ....|--- .... ....|--- .... ....
....|..|--- .... ....|--- .... ....|--- .... ....
 F-2|..|F-1 2A.F ....|G-4 3FFF ....|F-3 7F1F ....
....|..|R-- .... ....|--- .... ....|--- .... ....
....|..|--- .... ....|--- .... ....|--- .... ....
....|..|--- .... ....|--- .... ....|F-3 7F.F ....
....|..|C-4 AF.F ....|G-4 3FFF ....|G#2 7F.F ....
 G#2|..|G#1 2A.F ....|--- .... ....|--- .... ....
....|..|--- .... ....|--- .... ....|--- .... ....
....|..|--- .... ....|--- .... ....|--- .... ....
 G#4|..|G#4 2C.F ....|D#4 3FFF ....|D#3 7F.F ....
....|..|R-- .... ....|--- .... ....|--- .... ....
....|..|--- .... ....|--- .... ....|--- .... ....
....|..|--- .... ....|--- .... ....|--- .... ....
....|..|C-4 CF.F ....|D#4 3FFF ....|C-3 7F.F ....
....|..|R-- .... ....|--- .... ....|--- .... ....
....|..|--- .... ....|--- .... ....|--- .... ....
....|..|--- .... ....|--- .... ....|F-3 7F.A ....
 G#4|..|G#4 2C.F ....|D#4 3FFF ....|G#3 7F.F ....
....|..|G#1 2F.A ....|--- .... ....|--- .... ....
....|..|--- .... ....|--- .... ....|--- .... ....
....|..|--- .... ....|--- .... ....|--- .... ....
....|..|C-4 AF.F ....|D#4 3FFF ....|G#2 7F.F ....
....|..|R-- .... ....|--- .... ....|--- .... ....
....|..|--- .... ....|--- .... ....|--- .... ....
....|..|--- .... ....|--- .... ....|--- .... ....
 G#4|..|G#4 2C.F ....|G-4 3FF7 ....|G#3 7F.F ....
....|..|R-- .... ....|--- .... ....|--- .... ....
....|..|--- .... ....|--- .... ....|--- .... ....
....|..|--- .... ....|--- .... ....|F-3 7F.7 ....
....|..|C-4 CF.F ....|F-5 UFEF ....|D#3 7F.F ....
....|..|G#1 2F.7 ....|--- .... ....|--- .... ....
....|..|--- .... ....|--- .... ....|--- .... ....
....|..|--- .... ....|--- .... ....|--- .... ....
 G#4|..|G#4 2C.F ....|D#4 3FFF ....|G#2 7F.F ....
....|..|R-- .... ....|--- .... ....|--- .... ....
....|..|--- .... ....|--- .... ....|--- .... ....
....|..|--- .... ....|--- .... ....|--- .... ....

[Pattern11]
....|..|C-4 AF.F ....|D#4 3FFF ....|A#2 7F.F ....
 A#2|..|A#1 2A.F ....|--- .... ....|--- .... ....
....|..|--- .... ....|--- .... ....|--- .... ....
....|..|--- .... ....|--- .... ....|--- .... ....
 A#3|..|A#4 2C.F ....|D#4 3FFF ....|F-3 7F.F ....
....|..|R-- .... ....|--- .... ....|--- .... ....
....|..|--- .... ....|--- .... ....|--- .... ....
....|..|--- .... ....|--- .... ....|--- .... ....
....|..|C-4 CF.F ....|D#4 3FFF ....|A#3 7F.F ....
....|..|R-- .... ....|--- .... ....|--- .... ....
....|..|--- .... ....|--- .... ....|--- .... ....
....|..|--- .... ....|--- .... ....|--- .... ....
 A#3|..|A#4 2C.F ....|D#4 3FFF ....|F-3 7F.F ....
....|..|A#1 2F.A ....|--- .... ....|--- .... ....
....|..|--- .... ....|--- .... ....|--- .... ....
....|..|--- .... ....|--- .... ....|--- .... ....
....|..|C-4 AF.F ....|D#4 3FFF ....|A#1 7F.F ....
....|..|R-- .... ....|--- .... ....|--- .... ....
....|..|--- .... ....|--- .... ....|--- .... ....
....|..|--- .... ....|--- .... ....|--- .... ....
 A#3|..|A#4 2C.F ....|D#4 3FFF ....|A#2 7F.F ....
....|..|R-- .... ....|--- .... ....|--- .... ....
....|..|--- .... ....|--- .... ....|--- .... ....
....|..|--- .... ....|--- .... ....|--- .... ....
....|..|C-4 CF.F ....|D#4 3FFF ....|F-3 7F.F ....
....|..|A#1 2F.7 ....|--- .... ....|--- .... ....
....|..|--- .... ....|--- .... ....|--- .... ....
....|..|--- .... ....|--- .... ....|--- .... ....
 D#2|..|D#1 2A.F ....|F-4 3FFF ....|D#2 7F.F ....
....|..|R-- .... ....|--- .... ....|--- .... ....
....|..|--- .... ....|--- .... ....|--- .... ....
....|..|--- .... ....|--- .... ....|--- .... ....
....|..|C-4 AF.F ....|F-4 3FFF ....|F-2 7F.F ....
 F-2|..|F-1 2A.F ....|--- .... ....|--- .... ....
....|..|--- .... ....|--- .... ....|--- .... ....
....|..|--- .... ....|--- .... ....|--- .... ....
 G#4|..|G#4 2C.F ....|C-4 3FFF ....|C-3 7F.F ....
....|..|R-- .... ....|--- .... ....|--- .... ....
....|..|--- .... ....|--- .... ....|--- .... ....
....|..|--- .... ....|--- .... ....|--- .... ....
....|..|C-4 AF.F ....|C-4 3FFF ....|F-3 7F.F ....
....|..|R-- .... ....|--- .... ....|--- .... ....
....|..|--- .... ....|--- .... ....|--- .... ....
....|..|--- .... ....|--- .... ....|--- .... ....
 G#4|..|G#4 2C.F ....|D#4 3FF7 ....|C-3 7F.F ....
....|..|F-1 2F.A ....|--- .... ....|--- .... ....
....|..|--- .... ....|--- .... ....|--- .... ....
....|..|--- .... ....|--- .... ....|--- .... ....
....|..|C-4 AF.F ....|C-4 3FFF ....|F-3 7F.F ....
....|..|R-- .... ....|--- .... ....|--- .... ....
....|..|--- .... ....|--- .... ....|--- .... ....
....|..|--- .... ....|--- .... ....|--- .... ....
....|..|D#1 2F.7 ....|F-4 3FF7 ....|C-3 7F.F ....
....|..|R-- .... ....|--- .... ....|--- .... ....
....|..|--- .... ....|--- .... ....|--- .... ....
....|..|--- .... ....|--- .... ....|--- .... ....
....|..|C-4 BF.F ....|F-4 3FF7 ....|F-2 7F.7 ....
....|..|F-1 2F.7 ....|--- .... ....|--- .... ....
....|..|--- .... ....|--- .... ....|--- .... ....
....|..|--- .... ....|--- .... ....|--- .... ....
....|..|G#4 2F.7 ....|C-4 3FF7 ....|C-3 7F.7 ....
....|..|R-- .... ....|--- .... ....|--- .... ....
....|..|--- .... ....|--- .... ....|--- .... ....
....|..|--- .... ....|--- .... ....|--- .... ....

[Pattern12]
....|..|C-4 AF.F ....|C-5 3FFF ....|F-3 7F.7 ....
 F-3|..|F-1 2A.F ....|--- .... ....|--- .... ....
....|..|--- .... ....|--- .... ....|--- .... ....
....|..|--- .... ....|--- .... ....|--- .... ....
....|..|C-4 LF.F ....|R-- .... ....|C-3 7F.7 ....
 F-4|..|F-2 2A.F ....|--- .... ....|--- .... ....
....|..|--- .... ....|--- .... ....|--- .... ....
....|..|--- .... ....|--- .... ....|--- .... ....
....|..|C-4 CF.F ....|C-5 3FFF ....|F-3 7F.7 ....
 F-3|..|F-1 2A.F ....|--- .... ....|--- .... ....
....|..|--- .... ....|R-- .... ....|--- .... ....
....|..|--- .... ....|--- .... ....|--- .... ....
....|..|C-4 LF.F ....|C-5 3FFF ....|C-3 7F.7 ....
 F-4|..|F-2 2A.F ....|--- .... ....|--- .... ....
....|..|--- .... ....|R-- .... ....|--- .... ....
....|..|--- .... ....|--- .... ....|--- .... ....
....|..|C-4 AF.F ....|A#4 3FFF ....|R-- .... ....
 F-3|..|F-1 2A.F ....|--- .... ....|--- .... ....
....|..|--- .... ....|--- .... ....|--- .... ....
....|..|--- .... ....|--- .... ....|--- .... ....
....|..|C-4 LF.F ....|C-5 3FFA ....|--- .... ....
 F-4|..|F-2 2A.F ....|--- .... ....|--- .... ....
....|..|--- .... ....|R-- .... ....|--- .... ....
....|..|--- .... ....|--- .... ....|--- .... ....
....|..|C-4 CF.F ....|A#4 3FFF ....|--- .... ....
 F-3|..|F-1 2A.F ....|--- .... ....|--- .... ....
....|..|--- .... ....|R-- .... ....|--- .... ....
....|..|--- .... ....|--- .... ....|--- .... ....
....|..|C-4 LF.F ....|A#4 3FFF ....|--- .... ....
 F-4|..|F-2 2A.F ....|--- .... ....|--- .... ....
....|..|--- .... ....|R-- .... ....|--- .... ....
....|..|R-- .... ....|--- .... ....|--- .... ....
....|..|C-4 AF.F ....|G#4 3FFF ....|--- .... ....
 G#3|..|G#1 2A.F ....|--- .... ....|--- .... ....
....|..|--- .... ....|R-- .... ....|--- .... ....
....|..|--- .... ....|--- .... ....|--- .... ....
....|..|C-4 LF.F ....|G#4 3FFF ....|--- .... ....
 G#4|..|G#2 2A.F ....|--- .... ....|--- .... ....
....|..|--- .... ....|R-- .... ....|--- .... ....
....|..|--- .... ....|--- .... ....|--- .... ....
....|..|C-4 CF.F ....|G#4 3FFF ....|--- .... ....
 G#3|..|G#1 2A.F ....|--- .... ....|--- .... ....
....|..|--- .... ....|R-- .... ....|--- .... ....
....|..|R-- .... ....|--- .... ....|--- .... ....
....|..|C-4 LF.F ....|G#4 3FFF ....|--- .... ....
 G#4|..|G#2 2A.F ....|--- .... ....|--- .... ....
....|..|--- .... ....|R-- .... ....|--- .... ....
....|..|--- .... ....|--- .... ....|--- .... ....
....|..|C-4 AF.F ....|G-4 3FFF ....|--- .... ....
 G#3|..|G#1 2A.F ....|--- .... ....|--- .... ....
....|..|--- .... ....|R-- .... ....|--- .... ....
....|..|--- .... ....|--- .... ....|--- .... ....
....|..|C-4 LF.F ....|D#4 3FFF ....|--- .... ....
 G#4|..|G#2 2A.F ....|--- .... ....|--- .... ....
....|..|--- .... ....|R-- .... ....|--- .... ....
....|..|R-- .... ....|--- .... ....|--- .... ....
....|..|C-4 CF.F ....|C-4 3FFF ....|--- .... ....
 G#3|..|G#1 2A.F ....|--- .... ....|--- .... ....
....|..|--- .... ....|R-- .... ....|--- .... ....
....|..|--- .... ....|--- .... ....|--- .... ....
....|..|C-4 LF.F ....|F-4 3FFF ....|--- .... ....
 G#4|..|G#2 2A.F ....|--- .... ....|--- .... ....
....|..|--- .... ....|R-- .... ....|--- .... ....
....|..|R-- .... ....|--- .... ....|--- .... ....

[Pattern13]
....|..|C-4 AF.F ....|G#4 3FF7 ....|--- .... ....
 A#2|..|A#1 2A.F ....|--- .... ....|--- .... ....
....|..|--- .... ....|R-- .... ....|--- .... ....
....|..|--- .... ....|--- .... ....|--- .... ....
....|..|C-4 LF.F ....|C-5 3FFF ....|--- .... ....
 A#3|..|A#1 2A.F ....|--- .... ....|--- .... ....
....|..|--- .... ....|R-- .... ....|--- .... ....
....|..|--- .... ....|--- .... ....|--- .... ....
....|..|C-4 CF.F ....|C-5 3FFF ....|--- .... ....
 A#2|..|A#1 2A.F ....|--- .... ....|--- .... ....
....|..|--- .... ....|R-- .... ....|--- .... ....
....|..|R-- .... ....|--- .... ....|--- .... ....
....|..|C-4 LF.F ....|C-5 3FFF ....|--- .... ....
 A#3|..|A#1 2A.F ....|--- .... ....|--- .... ....
....|..|--- .... ....|R-- .... ....|--- .... ....
....|..|--- .... ....|--- .... ....|--- .... ....
....|..|C-4 AF.F ....|A#4 3FFF ....|--- .... ....
 A#2|..|A#1 2A.F ....|--- .... ....|--- .... ....
....|..|--- .... ....|R-- .... ....|--- .... ....
....|..|--- .... ....|--- .... ....|--- .... ....
....|..|C-4 LF.F ....|F-4 3FF7 ....|--- .... ....
 A#3|..|A#1 2A.F ....|--- .... ....|--- .... ....
....|..|--- .... ....|R-- .... ....|--- .... ....
....|..|R-- .... ....|--- .... ....|--- .... ....
....|..|C-4 CF.F ....|A#4 3FFF ....|--- .... ....
 A#2|..|A#1 2A.F ....|--- .... ....|--- .... ....
....|..|--- .... ....|R-- .... ....|--- .... ....
....|..|--- .... ....|--- .... ....|--- .... ....
....|..|C-4 LF.F ....|A#4 3FFF ....|--- .... ....
 A#3|..|A#1 2A.F ....|--- .... ....|--- .... ....
....|..|--- .... ....|R-- .... ....|--- .... ....
....|..|R-- .... ....|--- .... ....|--- .... ....
....|..|C-4 AF.F ....|G#4 3FFF ....|--- .... ....
 F-3|..|F-1 2A.F ....|--- .... ....|--- .... ....
....|..|--- .... ....|R-- .... ....|--- .... ....
....|..|--- .... ....|R-- .... ....|--- .... ....
....|..|C-4 LF.F ....|G#4 3FFF ....|--- .... ....
 F-4|..|F-2 2A.F ....|--- .... ....|--- .... ....
....|..|--- .... ....|R-- .... ....|--- .... ....
....|..|--- .... ....|R-- .... ....|--- .... ....
....|..|C-4 CF.F ....|G#4 3FFF ....|--- .... ....
 F-3|..|F-1 2A.F ....|--- .... ....|--- .... ....
....|..|--- .... ....|R-- .... ....|--- .... ....
....|..|R-- .... ....|--- .... ....|--- .... ....
....|..|C-4 LF.F ....|G-4 3FFF ....|--- .... ....
 F-4|..|F-2 2A.F ....|--- .... ....|--- .... ....
....|..|--- .... ....|--- .... ....|--- .... ....
....|..|--- .... ....|R-- .... ....|--- .... ....
....|..|C-4 AF.F ....|A#4 3FF7 ....|--- .... ....
 F-3|..|F-1 2A.F ....|--- .... ....|--- .... ....
....|..|--- .... ....|R-- .... ....|--- .... ....
....|..|--- .... ....|R-- .... ....|--- .... ....
....|..|C-4 BF.F ....|F-4 3FFF ....|--- .... ....
 F-4|..|F-2 2A.F ....|--- .... ....|--- .... ....
....|..|--- .... ....|R-- .... ....|--- .... ....
....|..|R-- .... ....|--- .... ....|--- .... ....
....|..|C-4 CF.F ....|G#4 3FF7 ....|--- .... ....
 F-3|..|F-1 2A.F ....|--- .... ....|--- .... ....
....|..|--- .... ....|--- .... ....|--- .... ....
....|..|--- .... ....|R-- .... ....|--- .... ....
 F-4|..|F-2 2A.F ....|G#4 3FF7 ....|--- .... ....
....|..|F-2 2F.7 ....|--- .... ....|--- .... ....
....|..|--- .... ....|--- .... ....|--- .... ....
....|..|--- .... ....|R-- .... ....|--- .... ....

[Pattern14]
....|..|C-4 AF.F ....|C-5 3FFF ....|--- .... ....
 F-3|..|F-1 2A.F ....|--- .... ....|--- .... ....
....|..|--- .... ....|--- .... ....|--- .... ....
....|..|--- .... ....|--- .... ....|--- .... ....
....|..|C-4 LF.F ....|G-4 3FF7 ....|--- .... ....
 F-4|..|F-2 2A.F ....|--- .... ....|--- .... ....
....|..|--- .... ....|--- .... ....|--- .... ....
....|..|--- .... ....|--- .... ....|--- .... ....
....|..|C-4 CF.F ....|C-5 3FFF ....|--- .... ....
 F-3|..|F-1 2A.F ....|--- .... ....|--- .... ....
....|..|--- .... ....|R-- .... ....|--- .... ....
....|..|--- .... ....|--- .... ....|--- .... ....
....|..|C-4 LF.F ....|C-5 3FFF ....|--- .... ....
 F-4|..|F-2 2A.F ....|--- .... ....|--- .... ....
....|..|--- .... ....|R-- .... ....|--- .... ....
....|..|--- .... ....|--- .... ....|--- .... ....
....|..|C-4 AF.F ....|A#4 3FFF ....|--- .... ....
 F-3|..|F-1 2A.F ....|--- .... ....|--- .... ....
....|..|--- .... ....|--- .... ....|--- .... ....
....|..|--- .... ....|--- .... ....|--- .... ....
....|..|C-4 LF.F ....|C-5 3FFA ....|--- .... ....
 F-4|..|F-2 2A.F ....|--- .... ....|--- .... ....
....|..|--- .... ....|R-- .... ....|--- .... ....
....|..|--- .... ....|--- .... ....|--- .... ....
....|..|C-4 CF.F ....|A#4 3FFF ....|--- .... ....
 F-3|..|F-1 2A.F ....|--- .... ....|--- .... ....
....|..|--- .... ....|R-- .... ....|--- .... ....
....|..|--- .... ....|--- .... ....|--- .... ....
....|..|C-4 LF.F ....|A#4 3FFF ....|--- .... ....
 F-4|..|F-2 2A.F ....|--- .... ....|--- .... ....
....|..|--- .... ....|R-- .... ....|--- .... ....
....|..|R-- .... ....|--- .... ....|--- .... ....
....|..|C-4 AF.F ....|D#5 3FFF ....|--- .... ....
 G#3|..|G#1 2A.F ....|--- .... ....|--- .... ....
....|..|--- .... ....|D#5 3FFF ....|--- .... ....
....|..|--- .... ....|--- .... ....|--- .... ....
....|..|C-4 LF.F ....|C-5 3FFF ....|--- .... ....
 G#4|..|G#2 2A.F ....|--- .... ....|--- .... ....
....|..|--- .... ....|R-- .... ....|--- .... ....
....|..|--- .... ....|--- .... ....|--- .... ....
....|..|C-4 CF.F ....|C-5 3FFF ....|--- .... ....
 G#3|..|G#1 2A.F ....|--- .... ....|--- .... ....
....|..|--- .... ....|R-- .... ....|--- .... ....
....|..|R-- .... ....|--- .... ....|--- .... ....
....|..|C-4 LF.F ....|C-5 3FFF ....|--- .... ....
 G#4|..|G#2 2A.F ....|--- .... ....|--- .... ....
....|..|--- .... ....|D#5 3FFA ....|--- .... ....
....|..|--- .... ....|--- .... ....|--- .... ....
....|..|C-4 AF.F ....|C-5 3FFF ....|--- .... ....
 G#3|..|G#1 2A.F ....|--- .... ....|--- .... ....
....|..|--- .... ....|R-- .... ....|--- .... ....
....|..|--- .... ....|--- .... ....|--- .... ....
....|..|C-4 LF.F ....|C-5 3FFF ....|--- .... ....
 G#4|..|G#2 2A.F ....|--- .... ....|--- .... ....
....|..|--- .... ....|R-- .... ....|--- .... ....
....|..|R-- .... ....|--- .... ....|--- .... ....
....|..|C-4 CF.F ....|C-5 3FFF ....|--- .... ....
 G#3|..|G#1 2A.F ....|--- .... ....|--- .... ....
....|..|--- .... ....|D#5 3FF7 ....|--- .... ....
....|..|--- .... ....|--- .... ....|--- .... ....
....|..|C-4 LF.F ....|A#4 3FFF ....|--- .... ....
 G#4|..|G#2 2A.F ....|--- .... ....|--- .... ....
....|..|--- .... ....|A#4 3FFF ....|--- .... ....
....|..|R-- .... ....|--- .... ....|--- .... ....

[Pattern15]
....|..|C-4 AF.F ....|C-5 3FF7 ....|--- .... ....
 A#2|..|A#1 2A.F ....|--- .... ....|--- .... ....
....|..|--- .... ....|R-- .... ....|--- .... ....
....|..|--- .... ....|--- .... ....|--- .... ....
....|..|C-4 LF.F ....|C-5 3FFF ....|--- .... ....
 A#3|..|A#1 2A.F ....|--- .... ....|--- .... ....
....|..|--- .... ....|R-- .... ....|--- .... ....
....|..|--- .... ....|--- .... ....|--- .... ....
....|..|C-4 CF.F ....|C-5 3FFF ....|--- .... ....
 A#2|..|A#1 2A.F ....|--- .... ....|--- .... ....
....|..|--- .... ....|A#4 3FFA ....|--- .... ....
....|..|R-- .... ....|--- .... ....|--- .... ....
....|..|C-4 LF.F ....|C-5 3FFF ....|--- .... ....
 A#3|..|A#1 2A.F ....|--- .... ....|--- .... ....
....|..|--- .... ....|R-- .... ....|--- .... ....
....|..|--- .... ....|--- .... ....|--- .... ....
....|..|C-4 AF.F ....|A#4 3FFF ....|--- .... ....
 A#2|..|A#1 2A.F ....|--- .... ....|--- .... ....
....|..|--- .... ....|R-- .... ....|--- .... ....
....|..|--- .... ....|--- .... ....|--- .... ....
....|..|C-4 LF.F ....|A#4 3FF7 ....|--- .... ....
 A#3|..|A#1 2A.F ....|--- .... ....|--- .... ....
....|..|--- .... ....|A#4 3FF7 ....|--- .... ....
....|..|R-- .... ....|--- .... ....|--- .... ....
....|..|C-4 CF.F ....|A#4 3FFF ....|--- .... ....
 A#2|..|A#1 2A.F ....|--- .... ....|--- .... ....
....|..|--- .... ....|R-- .... ....|--- .... ....
....|..|--- .... ....|--- .... ....|--- .... ....
....|..|C-4 LF.F ....|A#4 3FFF ....|--- .... ....
 A#3|..|A#1 2A.F ....|--- .... ....|--- .... ....
....|..|--- .... ....|R-- .... ....|--- .... ....
....|..|R-- .... ....|--- .... ....|--- .... ....
....|..|C-4 AF.F ....|G#4 3FFF ....|--- .... ....
 F-3|..|F-1 2A.F ....|--- .... ....|--- .... ....
....|..|--- .... ....|R-- .... ....|--- .... ....
....|..|--- .... ....|R-- .... ....|--- .... ....
....|..|C-4 LF.F ....|G#4 3FFF ....|--- .... ....
 F-4|..|F-2 2A.F ....|--- .... ....|--- .... ....
....|..|--- .... ....|R-- .... ....|--- .... ....
....|..|--- .... ....|R-- .... ....|--- .... ....
....|..|C-4 CF.F ....|G#4 3FFF ....|--- .... ....
 F-3|..|F-1 2A.F ....|--- .... ....|--- .... ....
....|..|--- .... ....|R-- .... ....|--- .... ....
....|..|R-- .... ....|--- .... ....|--- .... ....
....|..|C-4 LF.F ....|G-4 3FFF ....|--- .... ....
 F-4|..|F-2 2A.F ....|--- .... ....|--- .... ....
....|..|--- .... ....|--- .... ....|--- .... ....
....|..|--- .... ....|R-- .... ....|--- .... ....
....|..|C-4 AF.F ....|A#4 3FF7 ....|--- .... ....
 F-3|..|F-1 2A.F ....|--- .... ....|--- .... ....
....|..|--- .... ....|R-- .... ....|--- .... ....
....|..|--- .... ....|R-- .... ....|--- .... ....
....|..|C-4 BF.F ....|F-4 3FFF ....|--- .... ....
 F-4|..|F-2 2A.F ....|--- .... ....|--- .... ....
....|..|--- .... ....|R-- .... ....|--- .... ....
....|..|R-- .... ....|--- .... ....|--- .... ....
....|..|C-4 CF.F ....|G#4 3FF7 ....|--- .... ....
 F-3|..|F-1 2A.F ....|--- .... ....|--- .... ....
....|..|--- .... ....|--- .... ....|--- .... ....
....|..|--- .... ....|R-- .... ....|--- .... ....
 F-4|..|F-2 2A.F ....|G#4 3FF7 ....|--- .... ....
....|..|F-2 2F.7 ....|--- .... ....|--- .... ....
....|..|--- .... ....|--- .... ....|--- .... ....
....|..|--- .... ....|R-- .... ....|--- .... ....

[Pattern16]
....|..|C-4 AF.F ....|F-4 3FFF ....|C-4 6F1F ....
 F-3|..|F-1 2A.F ....|--- .... ....|--- .... ....
....|..|--- .... ....|R-- .... ....|--- .... ....
....|..|--- .... ....|--- .... ....|--- .... ....
....|..|C-4 LF.F ....|F-4 3FFF ....|--- .... ....
 F-4|..|F-2 2A.F ....|--- .... ....|--- .... ....
....|..|--- .... ....|R-- .... ....|--- .... ....
....|..|--- .... ....|--- .... ....|--- .... ....
....|..|C-4 CF.F ....|F-4 3FFF ....|--- .... ....
 F-3|..|F-1 2A.F ....|--- .... ....|--- .... ....
....|..|--- .... ....|R-- .... ....|--- .... ....
....|..|--- .... ....|--- .... ....|--- .... ....
....|..|C-4 LF.F ....|F-4 3FFF ....|C-4 6F1A ....
 F-4|..|F-2 2A.F ....|--- .... ....|--- .... ....
....|..|--- .... ....|R-- .... ....|--- .... ....
....|..|--- .... ....|--- .... ....|--- .... ....
....|..|C-4 AF.F ....|F-4 3FFF ....|F-4 6F1F ....
 F-3|..|F-1 2A.F ....|--- .... ....|--- .... ....
....|..|--- .... ....|R-- .... ....|--- .... ....
....|..|--- .... ....|--- .... ....|--- .... ....
....|..|C-4 LF.F ....|F-4 3FFF ....|--- .... ....
 F-4|..|F-2 2A.F ....|--- .... ....|--- .... ....
....|..|--- .... ....|R-- .... ....|--- .... ....
....|..|--- .... ....|--- .... ....|--- .... ....
....|..|C-4 CF.F ....|F-4 3FFF ....|C-4 6F1F ....
 F-3|..|F-1 2A.F ....|--- .... ....|--- .... ....
....|..|--- .... ....|R-- .... ....|--- .... ....
....|..|--- .... ....|--- .... ....|--- .... ....
....|..|C-4 LF.F ....|F-4 3FFF ....|F-4 6F1A ....
 F-4|..|F-2 2A.F ....|--- .... ....|--- .... ....
....|..|--- .... ....|R-- .... ....|--- .... ....
....|..|R-- .... ....|--- .... ....|--- .... ....
....|..|C-4 AF.F ....|F-4 3FFF ....|A#4 6F1F ....
 G#3|..|G#1 2A.F ....|--- .... ....|--- .... ....
....|..|--- .... ....|R-- .... ....|--- .... ....
....|..|--- .... ....|--- .... ....|--- .... ....
....|..|C-4 LF.F ....|D#4 3FFF ....|C-4 6F1A ....
 G#4|..|G#2 2A.F ....|--- .... ....|--- .... ....
....|..|--- .... ....|R-- .... ....|--- .... ....
....|..|--- .... ....|--- .... ....|--- .... ....
....|..|C-4 CF.F ....|D#4 3FFF ....|F-4 6F17 ....
 G#3|..|G#1 2A.F ....|--- .... ....|--- .... ....
....|..|--- .... ....|R-- .... ....|--- .... ....
....|..|R-- .... ....|--- .... ....|--- .... ....
....|..|C-4 LF.F ....|D#4 3FFF ....|A#4 6F1A ....
 G#4|..|G#2 2A.F ....|--- .... ....|--- .... ....
....|..|--- .... ....|R-- .... ....|--- .... ....
....|..|--- .... ....|--- .... ....|--- .... ....
....|..|C-4 AF.F ....|G#4 3FFF ....|F-5 6F.F ....
 G#3|..|G#1 2A.F ....|--- .... ....|--- .... ....
....|..|--- .... ....|R-- .... ....|--- .... ....
....|..|--- .... ....|--- .... ....|--- .... ....
....|..|C-4 LF.F ....|G#4 3FFF ....|--- .... ....
 G#4|..|G#2 2A.F ....|--- .... ....|--- .... ....
....|..|--- .... ....|R-- .... ....|--- .... ....
....|..|R-- .... ....|--- .... ....|--- .... ....
....|..|C-4 CF.F ....|G-4 3FFF ....|A#4 6F17 ....
 G#3|..|G#1 2A.F ....|--- .... ....|--- .... ....
....|..|--- .... ....|R-- .... ....|--- .... ....
....|..|--- .... ....|--- .... ....|--- .... ....
....|..|C-4 LF.F ....|G-4 3FFF ....|F-5 6F.A ....
 G#4|..|G#2 2A.F ....|--- .... ....|--- .... ....
....|..|--- .... ....|R-- .... ....|--- .... ....
....|..|R-- .... ....|--- .... ....|--- .... ....

[Pattern17]
....|..|C-4 AF.F ....|G-4 3FFF ....|C-4 6F1F ....
 A#2|..|A#1 2A.F ....|--- .... ....|--- .... ....
....|..|--- .... ....|R-- .... ....|--- .... ....
....|..|--- .... ....|--- .... ....|--- .... ....
....|..|C-4 LF.F ....|D#4 3FFF ....|--- .... ....
 A#3|..|A#1 2A.F ....|--- .... ....|--- .... ....
....|..|--- .... ....|R-- .... ....|--- .... ....
....|..|--- .... ....|--- .... ....|--- .... ....
....|..|C-4 CF.F ....|D#4 3FFF ....|F-5 6F.7 ....
 A#2|..|A#1 2A.F ....|--- .... ....|--- .... ....
....|..|--- .... ....|R-- .... ....|--- .... ....
....|..|R-- .... ....|--- .... ....|--- .... ....
....|..|C-4 LF.F ....|D#4 3FFF ....|C-4 6F1A ....
 A#3|..|A#1 2A.F ....|--- .... ....|--- .... ....
....|..|--- .... ....|R-- .... ....|--- .... ....
....|..|--- .... ....|--- .... ....|--- .... ....
....|..|C-4 AF.F ....|D#4 3FFF ....|F-4 6F1F ....
 A#2|..|A#1 2A.F ....|--- .... ....|--- .... ....
....|..|--- .... ....|R-- .... ....|--- .... ....
....|..|--- .... ....|--- .... ....|--- .... ....
....|..|C-4 LF.F ....|D#4 3FFF ....|--- .... ....
 A#3|..|A#1 2A.F ....|--- .... ....|--- .... ....
....|..|--- .... ....|R-- .... ....|--- .... ....
....|..|R-- .... ....|--- .... ....|--- .... ....
....|..|C-4 CF.F ....|D#4 3FFF ....|G#4 6F1F ....
 A#2|..|A#1 2A.F ....|--- .... ....|--- .... ....
....|..|--- .... ....|R-- .... ....|--- .... ....
....|..|--- .... ....|--- .... ....|--- .... ....
....|..|C-4 LF.F ....|F-4 3FFF ....|F-4 6F1A ....
 A#3|..|A#1 2A.F ....|--- .... ....|--- .... ....
....|..|--- .... ....|R-- .... ....|--- .... ....
....|..|R-- .... ....|--- .... ....|--- .... ....
....|..|C-4 AF.F ....|F-4 3FFF ....|A#4 6F1F ....
 F-3|..|F-1 2A.F ....|--- .... ....|--- .... ....
....|..|--- .... ....|R-- .... ....|--- .... ....
....|..|--- .... ....|--- .... ....|--- .... ....
....|..|C-4 LF.F ....|C-4 3FFF ....|G#4 6F1A ....
 F-4|..|F-2 2A.F ....|--- .... ....|--- .... ....
....|..|--- .... ....|R-- .... ....|--- .... ....
....|..|--- .... ....|--- .... ....|--- .... ....
....|..|C-4 CF.F ....|C-4 3FFF ....|F-4 6F17 ....
 F-3|..|F-1 2A.F ....|--- .... ....|--- .... ....
....|..|--- .... ....|R-- .... ....|--- .... ....
....|..|R-- .... ....|--- .... ....|--- .... ....
....|..|C-4 LF.F ....|D#4 3FF7 ....|A#4 6F1A ....
 F-4|..|F-2 2A.F ....|--- .... ....|--- .... ....
....|..|--- .... ....|R-- .... ....|--- .... ....
....|..|--- .... ....|--- .... ....|--- .... ....
....|..|C-4 AF.F ....|C-4 3FFF ....|G#4 6F17 ....
 F-3|..|F-1 2A.F ....|--- .... ....|--- .... ....
....|..|--- .... ....|R-- .... ....|--- .... ....
....|..|--- .... ....|--- .... ....|--- .... ....
....|..|C-4 BF.F ....|F-4 3FFF ....|--- .... ....
 F-4|..|F-2 2A.F ....|--- .... ....|--- .... ....
....|..|--- .... ....|R-- .... ....|--- .... ....
....|..|R-- .... ....|--- .... ....|--- .... ....
....|..|C-4 CF.F ....|F-4 3FFF ....|A#4 6F17 ....
 F-3|..|F-1 2A.F ....|--- .... ....|--- .... ....
....|..|--- .... ....|R-- .... ....|--- .... ....
....|..|--- .... ....|--- .... ....|--- .... ....
 F-4|..|F-2 2A.F ....|C-4 3FF7 ....|R-- .... ....
....|..|F-2 2F.7 ....|--- .... ....|--- .... ....
....|..|--- .... ....|--- .... ....|--- .... ....
....|..|--- .... ....|--- .... ....|--- .... ....

[Pattern18]
....|..|C-4 AF.F ....|F-4 3FFF ....|C-4 6F1F ....
 F-3|..|F-1 2A.F ....|--- .... ....|--- .... ....
....|..|--- .... ....|--- .... ....|--- .... ....
....|..|--- .... ....|--- .... ....|--- .... ....
....|..|C-4 LF.F ....|F-4 3FFF ....|--- .... ....
 F-4|..|F-2 2A.F ....|--- .... ....|--- .... ....
....|..|--- .... ....|R-- .... ....|--- .... ....
....|..|--- .... ....|--- .... ....|--- .... ....
....|..|C-4 CF.F ....|F-4 3FFF ....|R-- .... ....
 F-3|..|F-1 2A.F ....|--- .... ....|--- .... ....
....|..|--- .... ....|R-- .... ....|--- .... ....
....|..|--- .... ....|--- .... ....|--- .... ....
....|..|C-4 LF.F ....|F-4 3FFF ....|C-4 6F1A ....
 F-4|..|F-2 2A.F ....|--- .... ....|--- .... ....
....|..|--- .... ....|R-- .... ....|--- .... ....
....|..|--- .... ....|--- .... ....|--- .... ....
....|..|C-4 AF.F ....|F-4 3FFF ....|F-4 6F1F ....
 F-3|..|F-1 2A.F ....|--- .... ....|--- .... ....
....|..|--- .... ....|R-- .... ....|--- .... ....
....|..|--- .... ....|--- .... ....|--- .... ....
....|..|C-4 LF.F ....|F-4 3FFF ....|--- .... ....
 F-4|..|F-2 2A.F ....|--- .... ....|--- .... ....
....|..|--- .... ....|R-- .... ....|--- .... ....
....|..|--- .... ....|--- .... ....|--- .... ....
....|..|C-4 CF.F ....|F-4 3FFF ....|C-4 6F1F ....
 F-3|..|F-1 2A.F ....|--- .... ....|--- .... ....
....|..|--- .... ....|R-- .... ....|--- .... ....
....|..|--- .... ....|--- .... ....|--- .... ....
....|..|C-4 LF.F ....|F-4 3FFF ....|F-4 6F1A ....
 F-4|..|F-2 2A.F ....|--- .... ....|--- .... ....
....|..|--- .... ....|R-- .... ....|--- .... ....
....|..|R-- .... ....|--- .... ....|--- .... ....
....|..|C-4 AF.F ....|F-4 3FFF ....|A#4 6F1F ....
 G#3|..|G#1 2A.F ....|--- .... ....|--- .... ....
....|..|--- .... ....|R-- .... ....|--- .... ....
....|..|--- .... ....|--- .... ....|--- .... ....
....|..|C-4 LF.F ....|D#4 3FFF ....|C-4 6F1A ....
 G#4|..|G#2 2A.F ....|--- .... ....|--- .... ....
....|..|--- .... ....|R-- .... ....|--- .... ....
....|..|--- .... ....|--- .... ....|--- .... ....
....|..|C-4 CF.F ....|D#4 3FFF ....|F-4 6F17 ....
 G#3|..|G#1 2A.F ....|--- .... ....|--- .... ....
....|..|--- .... ....|R-- .... ....|--- .... ....
....|..|R-- .... ....|--- .... ....|--- .... ....
....|..|C-4 LF.F ....|D#4 3FFF ....|A#4 6F1A ....
 G#4|..|G#2 2A.F ....|--- .... ....|--- .... ....
....|..|--- .... ....|R-- .... ....|--- .... ....
....|..|--- .... ....|--- .... ....|--- .... ....
....|..|C-4 AF.F ....|G#4 3FFF ....|F-5 6F.F ....
 G#3|..|G#1 2A.F ....|--- .... ....|--- .... ....
....|..|--- .... ....|R-- .... ....|--- .... ....
....|..|--- .... ....|--- .... ....|--- .... ....
....|..|C-4 LF.F ....|G#4 3FFF ....|--- .... ....
 G#4|..|G#2 2A.F ....|--- .... ....|--- .... ....
....|..|--- .... ....|R-- .... ....|--- .... ....
....|..|R-- .... ....|--- .... ....|--- .... ....
....|..|C-4 CF.F ....|G-4 3FFF ....|A#4 6F17 ....
 G#3|..|G#1 2A.F ....|--- .... ....|--- .... ....
....|..|--- .... ....|R-- .... ....|--- .... ....
....|..|--- .... ....|--- .... ....|--- .... ....
....|..|C-4 LF.F ....|G-4 3FFF ....|F-5 6F.A ....
 G#4|..|G#2 2A.F ....|--- .... ....|--- .... ....
....|..|--- .... ....|R-- .... ....|--- .... ....
....|..|R-- .... ....|--- .... ....|--- .... ....

[Pattern19]
....|..|C-4 AF.F ....|G-4 3FFF ....|C-4 6F1F ....
 A#2|..|A#1 2A.F ....|--- .... ....|--- .... ....
....|..|--- .... ....|R-- .... ....|--- .... ....
....|..|--- .... ....|--- .... ....|--- .... ....
....|..|C-4 LF.F ....|D#4 3FFF ....|--- .... ....
 A#3|..|A#1 2A.F ....|--- .... ....|--- .... ....
....|..|--- .... ....|R-- .... ....|--- .... ....
....|..|--- .... ....|--- .... ....|--- .... ....
....|..|C-4 CF.F ....|D#4 3FFF ....|F-5 6F.7 ....
 A#2|..|A#1 2A.F ....|--- .... ....|--- .... ....
....|..|--- .... ....|R-- .... ....|--- .... ....
....|..|R-- .... ....|--- .... ....|--- .... ....
....|..|C-4 LF.F ....|D#4 3FFF ....|C-4 6F1A ....
 A#3|..|A#1 2A.F ....|--- .... ....|--- .... ....
....|..|--- .... ....|R-- .... ....|--- .... ....
....|..|--- .... ....|--- .... ....|--- .... ....
....|..|C-4 AF.F ....|D#4 3FFF ....|F-4 6F1F ....
 A#2|..|A#1 2A.F ....|--- .... ....|--- .... ....
....|..|--- .... ....|R-- .... ....|--- .... ....
....|..|--- .... ....|--- .... ....|--- .... ....
....|..|C-4 LF.F ....|D#4 3FFF ....|--- .... ....
 A#3|..|A#1 2A.F ....|--- .... ....|--- .... ....
....|..|--- .... ....|R-- .... ....|--- .... ....
....|..|R-- .... ....|--- .... ....|--- .... ....
....|..|C-4 CF.F ....|D#4 3FFF ....|G#4 6F1F ....
 A#2|..|A#1 2A.F ....|--- .... ....|--- .... ....
....|..|--- .... ....|R-- .... ....|--- .... ....
....|..|--- .... ....|--- .... ....|--- .... ....
....|..|C-4 LF.F ....|F-4 3FFF ....|F-4 6F1A ....
 A#3|..|A#1 2A.F ....|--- .... ....|--- .... ....
....|..|--- .... ....|R-- .... ....|--- .... ....
....|..|R-- .... ....|--- .... ....|--- .... ....
....|..|C-4 AF.F ....|F-4 3FFF ....|A#4 6F1F ....
 F-3|..|F-1 2A.F ....|--- .... ....|--- .... ....
....|..|--- .... ....|R-- .... ....|--- .... ....
....|..|--- .... ....|--- .... ....|--- .... ....
....|..|C-4 LF.F ....|C-4 3FFF ....|G#4 6F1A ....
 F-4|..|F-2 2A.F ....|--- .... ....|--- .... ....
....|..|--- .... ....|R-- .... ....|--- .... ....
....|..|--- .... ....|--- .... ....|--- .... ....
....|..|C-4 CF.F ....|C-4 3FFF ....|F-4 6F17 ....
 F-3|..|F-1 2A.F ....|--- .... ....|--- .... ....
....|..|--- .... ....|R-- .... ....|--- .... ....
....|..|R-- .... ....|--- .... ....|--- .... ....
....|..|C-4 LF.F ....|D#4 3FF7 ....|A#4 6F1A ....
 F-4|..|F-2 2A.F ....|--- .... ....|--- .... ....
....|..|--- .... ....|R-- .... ....|--- .... ....
....|..|--- .... ....|--- .... ....|--- .... ....
....|..|C-4 AF.F ....|C-4 3FFF ....|G#4 6F17 ....
 F-3|..|F-1 2A.F ....|--- .... ....|--- .... ....
....|..|--- .... ....|R-- .... ....|--- .... ....
....|..|--- .... ....|--- .... ....|--- .... ....
....|..|C-4 BF.F ....|F-4 3FF7 ....|--- .... ....
 F-4|..|F-2 2A.F ....|--- .... ....|--- .... ....
....|..|--- .... ....|R-- .... ....|--- .... ....
....|..|R-- .... ....|--- .... ....|--- .... ....
....|..|C-4 CF.F ....|F-4 3FF7 ....|A#4 6F17 ....
 F-3|..|F-1 2A.F ....|--- .... ....|--- .... ....
....|..|--- .... ....|--- .... ....|--- .... ....
....|..|--- .... ....|--- .... ....|--- .... ....
 F-4|..|F-2 2A.F ....|F-4 3FFF ....|R-- .... ....
....|..|F-2 2F.7 ....|--- .... ....|--- .... ....
....|..|--- .... ....|R-- .... ....|--- .... ....
....|..|--- .... ....|--- .... ....|--- .... ....

[Pattern20]
....|..|C-4 AF.F ....|F-4 3FFF ....|F-2 7F.F ....
 F-2|..|F-1 2A.F ....|--- .... ....|--- .... ....
....|..|--- .... ....|--- .... ....|--- .... ....
....|..|--- .... ....|--- .... ....|--- .... ....
....|..|C-4 LF.7 ....|F-4 3FFF ....|F-3 7F1F ....
....|..|F-2 2F.7 ....|--- .... ....|--- .... ....
....|..|--- .... ....|F-4 3FFF ....|--- .... ....
....|..|--- .... ....|--- .... ....|--- .... ....
....|..|C-4 CF.F ....|F-4 3FFF ....|F-2 7F.F ....
....|..|F-1 2F.7 ....|--- .... ....|--- .... ....
....|..|--- .... ....|--- .... ....|--- .... ....
....|..|--- .... ....|--- .... ....|--- .... ....
....|..|C-4 BF.7 ....|F-4 3FFF ....|F-3 7F1F ....
....|..|F-2 2F.7 ....|--- .... ....|--- .... ....
....|..|--- .... ....|F-4 3FFF ....|--- .... ....
....|..|--- .... ....|--- .... ....|--- .... ....
....|..|C-4 AF.F ....|F-4 3FFF ....|F-2 7F.F ....
....|..|F-1 2F.7 ....|--- .... ....|--- .... ....
....|..|--- .... ....|F-4 3FFA ....|--- .... ....
....|..|--- .... ....|--- .... ....|--- .... ....
....|..|F-2 2F.7 ....|F-4 3FFF ....|F-3 7F1F ....
....|..|R-- .... ....|--- .... ....|--- .... ....
....|..|--- .... ....|--- .... ....|--- .... ....
....|..|--- .... ....|--- .... ....|--- .... ....
....|..|C-4 CF.F ....|F-4 3FFF ....|F-2 7F.F ....
....|..|F-1 2F.7 ....|--- .... ....|--- .... ....
....|..|--- .... ....|F-4 3FFA ....|--- .... ....
....|..|--- .... ....|--- .... ....|--- .... ....
....|..|F-4 OFCF ....|F-4 3FFF ....|F-3 7F1F ....
....|..|--- .... ....|--- .... ....|--- .... ....
....|..|--- .... ....|F-4 3FFF ....|--- .... ....
....|..|--- .... ....|--- .... ....|F-3 7F.F ....
....|..|C-4 AF.F ....|D#4 3FFF ....|G#2 7F.F ....
 G#2|..|G#1 2A.F ....|--- .... ....|--- .... ....
....|..|--- .... ....|--- .... ....|--- .... ....
....|..|--- .... ....|--- .... ....|--- .... ....
....|..|C-4 CF.A ....|D#4 3FFF ....|D#3 7F.F ....
....|..|--- .... ....|--- .... ....|--- .... ....
....|..|--- .... ....|D#4 3FFF ....|--- .... ....
....|..|--- .... ....|--- .... ....|--- .... ....
....|..|C-4 CF.F ....|D#4 3FFF ....|F-2 7F.7 ....
....|..|--- .... ....|--- .... ....|--- .... ....
....|..|--- .... ....|F-4 3FFA ....|--- .... ....
....|..|--- .... ....|--- .... ....|F-3 7F.A ....
....|..|G#4 OFCF ....|G#4 3FFF ....|G#3 7F.F ....
....|..|G#1 2F.A ....|--- .... ....|--- .... ....
....|..|--- .... ....|--- .... ....|--- .... ....
....|..|--- .... ....|--- .... ....|--- .... ....
....|..|C-4 AF.F ....|G-4 3FFF ....|F-2 7F.7 ....
....|..|--- .... ....|--- .... ....|--- .... ....
....|..|--- .... ....|D#4 3FFA ....|--- .... ....
....|..|--- .... ....|--- .... ....|--- .... ....
....|..|C-4 BF.F ....|D#4 3FFF ....|G#2 7F.F ....
....|..|--- .... ....|--- .... ....|--- .... ....
....|..|--- .... ....|F-4 3FF7 ....|--- .... ....
....|..|--- .... ....|--- .... ....|F-3 7F.7 ....
....|..|C-4 CF.F ....|D#4 3FFF ....|G#3 7F.F ....
....|..|G#1 2F.7 ....|--- .... ....|--- .... ....
....|..|--- .... ....|--- .... ....|--- .... ....
....|..|--- .... ....|--- .... ....|--- .... ....
....|..|D#5 OFCF ....|D#4 3FFF ....|G#2 7F.F ....
....|..|--- .... ....|--- .... ....|--- .... ....
....|..|--- .... ....|D#4 3FFF ....|--- .... ....
....|..|--- .... ....|--- .... ....|--- .... ....

[Pattern21]
....|..|C-4 AF.F ....|D#4 3FFF ....|A#2 7F.F ....
 A#2|..|A#1 2A.F ....|--- .... ....|--- .... ....
....|..|--- .... ....|--- .... ....|--- .... ....
....|..|--- .... ....|--- .... ....|--- .... ....
....|..|G#4 OFC7 ....|D#4 3FFF ....|F-3 7F.F ....
....|..|--- .... ....|--- .... ....|--- .... ....
....|..|--- .... ....|D#4 3FFF ....|--- .... ....
....|..|--- .... ....|--- .... ....|--- .... ....
....|..|C-4 CF.F ....|D#4 3FFF ....|D-4 7F.F ....
....|..|--- .... ....|--- .... ....|--- .... ....
....|..|--- .... ....|D#4 3FFA ....|--- .... ....
....|..|--- .... ....|--- .... ....|--- .... ....
....|..|C-4 BF.7 ....|D#4 3FFF ....|F-3 7F.F ....
....|..|A#1 2F.A ....|--- .... ....|--- .... ....
....|..|--- .... ....|D#4 3FFF ....|--- .... ....
....|..|--- .... ....|--- .... ....|--- .... ....
....|..|C-4 AF.F ....|D#4 3FFF ....|D-3 7F.F ....
....|..|--- .... ....|--- .... ....|--- .... ....
....|..|--- .... ....|D#4 3FFF ....|--- .... ....
....|..|--- .... ....|--- .... ....|--- .... ....
....|..|D#5 OFC7 ....|D#4 3FFF ....|F-3 7F.F ....
....|..|--- .... ....|--- .... ....|--- .... ....
....|..|--- .... ....|D#4 3FF7 ....|--- .... ....
....|..|--- .... ....|--- .... ....|--- .... ....
....|..|C-4 CF.F ....|D#4 3FFF ....|G#2 7F.F ....
....|..|A#1 2F.7 ....|--- .... ....|--- .... ....
....|..|--- .... ....|D#4 3FFA ....|--- .... ....
....|..|--- .... ....|--- .... ....|--- .... ....
....|..|C-4 AF.A ....|D#4 3FFF ....|F-3 7F.F ....
....|..|--- .... ....|--- .... ....|--- .... ....
....|..|--- .... ....|D#4 3FFF ....|--- .... ....
....|..|--- .... ....|--- .... ....|--- .... ....
....|..|C-4 AF.F ....|D#4 3FFF ....|F-2 7F.F ....
 F-2|..|F-1 2A.F ....|--- .... ....|--- .... ....
....|..|--- .... ....|--- .... ....|--- .... ....
....|..|--- .... ....|--- .... ....|--- .... ....
....|..|C-4 CF.A ....|D#4 3FFF ....|F-3 7F.F ....
....|..|--- .... ....|--- .... ....|--- .... ....
....|..|--- .... ....|D#4 3FFF ....|--- .... ....
....|..|--- .... ....|--- .... ....|--- .... ....
....|..|C-4 CF.F ....|D#4 3FFF ....|F-2 7F.F ....
....|..|--- .... ....|--- .... ....|--- .... ....
....|..|--- .... ....|D#4 3FF7 ....|--- .... ....
....|..|--- .... ....|--- .... ....|--- .... ....
....|..|C-4 AF.A ....|G#4 3FFF ....|C-3 7F.F ....
....|..|F-1 2F.A ....|--- .... ....|--- .... ....
....|..|--- .... ....|--- .... ....|--- .... ....
....|..|--- .... ....|--- .... ....|--- .... ....
....|..|C-4 AF.F ....|G-4 3FFF ....|G#3 7F.F ....
....|..|--- .... ....|--- .... ....|--- .... ....
....|..|--- .... ....|D#4 3FFA ....|--- .... ....
....|..|--- .... ....|--- .... ....|--- .... ....
....|..|C-4 BF.F ....|D#4 3FFF ....|F-3 7F.F ....
....|..|--- .... ....|--- .... ....|--- .... ....
....|..|--- .... ....|D#4 3FF7 ....|--- .... ....
....|..|--- .... ....|--- .... ....|--- .... ....
....|..|C-4 CF.F ....|F-4 3FFF ....|G#2 7F.F ....
....|..|F-1 2F.7 ....|--- .... ....|--- .... ....
....|..|--- .... ....|--- .... ....|--- .... ....
....|..|--- .... ....|--- .... ....|--- .... ....
....|..|F-4 OFCF ....|F-4 UFEF ....|G-2 7F.F ....
....|..|--- .... ....|--- .... ....|--- .... ....
....|..|--- .... ....|D#4 3FF7 ....|--- .... ....
....|..|--- .... ....|--- .... ....|--- .... ....

[Pattern22]
....|..|C-4 AF.F ....|F-4 3FFF ....|F-2 7F.F ....
 F-2|..|F-1 2A.F ....|--- .... ....|--- .... ....
....|..|--- .... ....|--- .... ....|--- .... ....
....|..|--- .... ....|--- .... ....|--- .... ....
....|..|C-4 CF.A ....|F-4 3FFF ....|F-3 7F1F ....
....|..|--- .... ....|--- .... ....|--- .... ....
....|..|--- .... ....|F-4 3FFF ....|--- .... ....
....|..|--- .... ....|--- .... ....|--- .... ....
....|..|C-4 CF.F ....|F-4 3FFF ....|F-2 7F.F ....
....|..|--- .... ....|--- .... ....|--- .... ....
....|..|--- .... ....|--- .... ....|--- .... ....
....|..|--- .... ....|--- .... ....|--- .... ....
....|..|C-4 BF.7 ....|F-4 3FFF ....|F-3 7F1F ....
....|..|F-1 2F.A ....|--- .... ....|--- .... ....
....|..|--- .... ....|F-4 3FFF ....|--- .... ....
....|..|--- .... ....|--- .... ....|--- .... ....
....|..|C-4 AF.F ....|F-4 3FFF ....|F-2 7F.F ....
....|..|--- .... ....|--- .... ....|--- .... ....
....|..|--- .... ....|F-4 3FFA ....|--- .... ....
....|..|--- .... ....|--- .... ....|--- .... ....
....|..|F-4 OFC7 ....|F-4 3FFF ....|F-3 7F1F ....
....|..|--- .... ....|--- .... ....|--- .... ....
....|..|--- .... ....|--- .... ....|--- .... ....
....|..|--- .... ....|--- .... ....|--- .... ....
....|..|C-4 CF.F ....|F-4 3FFF ....|F-2 7F.F ....
....|..|F-1 2F.7 ....|--- .... ....|--- .... ....
....|..|--- .... ....|F-4 3FFA ....|--- .... ....
....|..|--- .... ....|--- .... ....|--- .... ....
....|..|F-4 OFCF ....|F-4 3FFF ....|F-3 7F1F ....
....|..|--- .... ....|--- .... ....|--- .... ....
....|..|--- .... ....|F-4 3FFF ....|--- .... ....
....|..|--- .... ....|--- .... ....|F-3 7F.F ....
....|..|C-4 AF.F ....|D#4 3FFF ....|G#2 7F.F ....
 G#2|..|G#1 2A.F ....|--- .... ....|--- .... ....
....|..|--- .... ....|--- .... ....|--- .... ....
....|..|--- .... ....|--- .... ....|--- .... ....
....|..|C-4 CF.A ....|D#4 3FFF ....|D#3 7F.F ....
....|..|--- .... ....|--- .... ....|--- .... ....
....|..|--- .... ....|D#4 3FFF ....|--- .... ....
....|..|--- .... ....|--- .... ....|--- .... ....
....|..|C-4 CF.F ....|D#4 3FFF ....|F-2 7F.7 ....
....|..|--- .... ....|--- .... ....|--- .... ....
....|..|--- .... ....|F-4 3FFA ....|--- .... ....
....|..|--- .... ....|--- .... ....|F-3 7F.A ....
....|..|G#4 OFCF ....|G#4 3FFF ....|G#3 7F.F ....
....|..|G#1 2F.A ....|--- .... ....|--- .... ....
....|..|--- .... ....|--- .... ....|--- .... ....
....|..|--- .... ....|--- .... ....|--- .... ....
....|..|C-4 AF.F ....|G-4 3FFF ....|F-2 7F.7 ....
....|..|--- .... ....|--- .... ....|--- .... ....
....|..|--- .... ....|D#4 3FFA ....|--- .... ....
....|..|--- .... ....|--- .... ....|--- .... ....
....|..|C-4 BF.F ....|D#4 3FFF ....|G#2 7F.F ....
....|..|--- .... ....|--- .... ....|--- .... ....
....|..|--- .... ....|F-4 3FF7 ....|--- .... ....
....|..|--- .... ....|--- .... ....|F-3 7F.7 ....
....|..|C-4 CF.F ....|D#4 3FFF ....|G#3 7F.F ....
....|..|G#1 2F.7 ....|--- .... ....|--- .... ....
....|..|--- .... ....|--- .... ....|--- .... ....
....|..|--- .... ....|--- .... ....|--- .... ....
....|..|D#5 OFCF ....|D#4 3FFF ....|G#2 7F.F ....
....|..|--- .... ....|--- .... ....|--- .... ....
....|..|--- .... ....|D#4 3FFF ....|--- .... ....
....|..|--- .... ....|--- .... ....|--- .... ....

[Pattern23]
....|..|C-4 AF.F ....|D#4 3FFF ....|A#2 7F.F ....
 A#2|..|A#1 2A.F ....|--- .... ....|--- .... ....
....|..|--- .... ....|--- .... ....|--- .... ....
....|..|--- .... ....|--- .... ....|--- .... ....
....|..|G#4 OFC7 ....|D#4 3FFF ....|F-3 7F.F ....
....|..|--- .... ....|--- .... ....|--- .... ....
....|..|--- .... ....|D#4 3FFF ....|--- .... ....
....|..|--- .... ....|--- .... ....|--- .... ....
....|..|C-4 CF.F ....|D#4 3FFF ....|D-4 7F.F ....
....|..|--- .... ....|--- .... ....|--- .... ....
....|..|--- .... ....|D#4 3FFA ....|--- .... ....
....|..|--- .... ....|--- .... ....|--- .... ....
....|..|C-4 BF.7 ....|D#4 3FFF ....|F-3 7F.F ....
....|..|A#1 2F.A ....|--- .... ....|--- .... ....
....|..|--- .... ....|D#4 3FFF ....|--- .... ....
....|..|--- .... ....|--- .... ....|--- .... ....
....|..|C-4 AF.F ....|D#4 3FFF ....|D-3 7F.F ....
....|..|--- .... ....|--- .... ....|--- .... ....
....|..|--- .... ....|D#4 3FFF ....|--- .... ....
....|..|--- .... ....|--- .... ....|--- .... ....
....|..|D#5 OFC7 ....|D#4 3FFF ....|F-3 7F.F ....
....|..|--- .... ....|--- .... ....|--- .... ....
....|..|--- .... ....|D#4 3FF7 ....|--- .... ....
....|..|--- .... ....|--- .... ....|--- .... ....
....|..|C-4 CF.F ....|D#4 3FFF ....|G#2 7F.F ....
....|..|A#1 2F.7 ....|--- .... ....|--- .... ....
....|..|--- .... ....|D#4 3FFA ....|--- .... ....
....|..|--- .... ....|--- .... ....|--- .... ....
....|..|C-4 AF.A ....|D#4 3FFF ....|F-3 7F.F ....
....|..|--- .... ....|--- .... ....|--- .... ....
....|..|--- .... ....|D#4 3FFF ....|--- .... ....
....|..|--- .... ....|--- .... ....|--- .... ....
....|..|C-4 AF.F ....|D#4 3FFF ....|F-2 7F.F ....
 F-2|..|F-1 2A.F ....|--- .... ....|--- .... ....
....|..|--- .... ....|--- .... ....|--- .... ....
....|..|--- .... ....|--- .... ....|--- .... ....
....|..|C-4 CF.A ....|D#4 3FFF ....|F-3 7F.F ....
....|..|--- .... ....|--- .... ....|--- .... ....
....|..|--- .... ....|D#4 3FFF ....|--- .... ....
....|..|--- .... ....|--- .... ....|--- .... ....
....|..|F-4 OFCF ....|D#4 3FFF ....|F-2 7F.F ....
....|..|--- .... ....|--- .... ....|--- .... ....
....|..|--- .... ....|D#4 3FF7 ....|--- .... ....
....|..|--- .... ....|--- .... ....|--- .... ....
....|..|C-4 AF.A ....|G#4 3FFF ....|C-3 7F.F ....
....|..|F-1 2F.A ....|--- .... ....|--- .... ....
....|..|--- .... ....|--- .... ....|--- .... ....
....|..|--- .... ....|--- .... ....|--- .... ....
....|..|C-4 OFCF ....|G-4 3FFF ....|G#3 7F.F ....
....|..|--- .... ....|--- .... ....|--- .... ....
....|..|--- .... ....|D#4 3FFA ....|--- .... ....
....|..|--- .... ....|--- .... ....|--- .... ....
....|..|C-4 BF.F ....|D#4 3FFF ....|F-3 7F.F ....
....|..|--- .... ....|--- .... ....|--- .... ....
....|..|--- .... ....|D#4 3FF7 ....|--- .... ....
....|..|--- .... ....|--- .... ....|--- .... ....
....|..|C-4 BF.F ....|F-4 3FFF ....|G#2 7F.F ....
....|..|F-1 2F.7 ....|--- .... ....|--- .... ....
....|..|--- .... ....|--- .... ....|--- .... ....
....|..|--- .... ....|--- .... ....|--- .... ....
....|..|F-4 OFCF ....|F-4 UFEF ....|G-2 7F.F ....
....|..|--- .... ....|--- .... ....|--- .... ....
....|..|--- .... ....|D#4 3FF7 ....|--- .... ....
....|..|--- .... ....|--- .... ....|--- .... ....

[Pattern24]
....|..|C-4 AF.F ....|D#4 3FF7 ....|F-2 6F.F ....
 F-4|..|F-2 2A.F ....|--- .... ....|--- .... ....
....|..|B-8 JF.F ....|--- .... ....|--- .... ....
....|..|R-- .... ....|--- .... ....|--- .... ....
....|..|B-8 JF.F ....|G#4 3FF7 ....|C-3 7F.7 ....
 F-4|..|F-2 2A.F ....|--- .... ....|--- .... ....
....|..|B-8 JF.F ....|--- .... ....|--- .... ....
....|..|R-- .... ....|--- .... ....|--- .... ....
....|..|B-8 JF.F ....|G-4 3FF7 ....|F-2 6F.F ....
 F-4|..|F-2 2A.F ....|--- .... ....|--- .... ....
....|..|B-8 JF.F ....|--- .... ....|--- .... ....
....|..|R-- .... ....|--- .... ....|--- .... ....
....|..|C-4 AF.F ....|D#4 3FF7 ....|F-3 7F.7 ....
 F-4|..|F-2 2A.F ....|--- .... ....|--- .... ....
....|..|B-8 JF.F ....|--- .... ....|--- .... ....
....|..|R-- .... ....|--- .... ....|--- .... ....
....|..|C-4 CF.F ....|F-4 3FF7 ....|F-2 6F.F ....
 F-4|..|F-2 2A.F ....|--- .... ....|--- .... ....
....|..|B-8 JF.F ....|--- .... ....|--- .... ....
....|..|R-- .... ....|--- .... ....|--- .... ....
....|..|B-8 JF.F ....|F-4 UFE7 ....|G-2 7F.7 ....
 F-4|..|F-2 2A.F ....|--- .... ....|--- .... ....
....|..|B-8 JF.F ....|--- .... ....|--- .... ....
....|..|R-- .... ....|--- .... ....|--- .... ....
....|..|B-8 JF.F ....|R-- .... ....|F-2 6F.F ....
 F-4|..|F-2 2A.F ....|--- .... ....|--- .... ....
....|..|B-8 JF.F ....|--- .... ....|--- .... ....
....|..|R-- .... ....|--- .... ....|--- .... ....
....|..|B-8 JF.F ....|--- .... ....|F-2 6F.A ....
 F-4|..|F-2 2A.F ....|--- .... ....|--- .... ....
....|..|B-8 JF.F ....|--- .... ....|--- .... ....
....|..|R-- .... ....|--- .... ....|R-- .... ....
....|..|C-4 AF.F ....|--- .... ....|G#1 6F.F ....
 G#4|..|G#2 2A.F ....|--- .... ....|--- .... ....
....|..|B-8 JF.F ....|--- .... ....|--- .... ....
....|..|R-- .... ....|--- .... ....|--- .... ....
....|..|B-8 JF.F ....|--- .... ....|F-2 6F.A ....
 G#4|..|G#2 2A.F ....|--- .... ....|--- .... ....
....|..|C-4 AF.F ....|--- .... ....|--- .... ....
....|..|R-- .... ....|--- .... ....|--- .... ....
....|..|B-8 JF.F ....|--- .... ....|G#1 6F.F ....
 G#4|..|G#2 2A.F ....|--- .... ....|--- .... ....
....|..|B-8 JF.F ....|--- .... ....|--- .... ....
....|..|R-- .... ....|--- .... ....|R-- .... ....
....|..|C-4 AF.F ....|--- .... ....|G#1 6F.A ....
 G#4|..|G#2 2A.F ....|--- .... ....|--- .... ....
....|..|B-8 JF.F ....|--- .... ....|--- .... ....
....|..|R-- .... ....|--- .... ....|--- .... ....
....|..|C-4 CF.F ....|--- .... ....|G#1 6F.F ....
 G#4|..|G#2 2A.F ....|--- .... ....|--- .... ....
....|..|B-8 JF.F ....|--- .... ....|--- .... ....
....|..|R-- .... ....|--- .... ....|--- .... ....
....|..|B-8 JF.F ....|--- .... ....|G#1 6F.A ....
 G#4|..|G#2 2A.F ....|--- .... ....|--- .... ....
....|..|B-8 JF.F ....|--- .... ....|--- .... ....
....|..|R-- .... ....|--- .... ....|R-- .... ....
....|..|B-8 JF.F ....|--- .... ....|G#1 6F.F ....
 G#4|..|G#2 2A.F ....|--- .... ....|--- .... ....
....|..|B-8 JF.F ....|--- .... ....|--- .... ....
....|..|R-- .... ....|--- .... ....|--- .... ....
....|..|B-8 JF.F ....|--- .... ....|G#1 6F.A ....
 G#4|..|G#2 2A.F ....|--- .... ....|--- .... ....
....|..|B-8 JF.F ....|--- .... ....|--- .... ....
....|..|R-- .... ....|--- .... ....|--- .... ....

[Pattern25]
....|..|C-4 AF.F ....|--- .... ....|A#1 6F.F ....
 A#3|..|A#2 2C.F ....|--- .... ....|--- .... ....
....|..|B-8 JF.F ....|--- .... ....|--- .... ....
....|..|R-- .... ....|--- .... ....|--- .... ....
....|..|B-8 JF.F ....|--- .... ....|G#1 6F.A ....
 A#3|..|A#2 2C.F ....|--- .... ....|--- .... ....
....|..|B-8 JF.F ....|--- .... ....|--- .... ....
....|..|R-- .... ....|--- .... ....|--- .... ....
....|..|B-8 JF.F ....|--- .... ....|A#1 6F.F ....
 A#3|..|A#2 2C.F ....|--- .... ....|--- .... ....
....|..|B-8 JF.F ....|--- .... ....|--- .... ....
....|..|R-- .... ....|--- .... ....|--- .... ....
....|..|C-4 AF.F ....|--- .... ....|A#1 6F.A ....
 A#3|..|A#2 2C.F ....|--- .... ....|--- .... ....
....|..|B-8 JF.F ....|--- .... ....|--- .... ....
....|..|R-- .... ....|--- .... ....|--- .... ....
....|..|C-4 CF.F ....|--- .... ....|A#1 6F.F ....
 A#3|..|A#2 2C.F ....|--- .... ....|--- .... ....
....|..|B-8 JF.F ....|--- .... ....|--- .... ....
....|..|R-- .... ....|--- .... ....|--- .... ....
....|..|B-8 JF.F ....|--- .... ....|A#1 6F.A ....
 A#3|..|A#2 2C.F ....|--- .... ....|--- .... ....
....|..|B-8 JF.F ....|--- .... ....|--- .... ....
....|..|R-- .... ....|--- .... ....|--- .... ....
....|..|B-8 JF.F ....|--- .... ....|A#1 6F.F ....
 A#3|..|A#2 2C.F ....|--- .... ....|--- .... ....
....|..|B-8 JF.F ....|--- .... ....|--- .... ....
 A#3|..|A#2 2C.F ....|--- .... ....|--- .... ....
....|..|B-8 JF.F ....|--- .... ....|A#1 6F.A ....
 G#4|..|G#2 2A.F ....|--- .... ....|--- .... ....
....|..|C-4 AF.F ....|--- .... ....|--- .... ....
 G-4|..|G-2 2A.F ....|--- .... ....|--- .... ....
....|..|C-4 AF.F ....|--- .... ....|F-2 6F.F ....
 F-4|..|F-2 2A.F ....|--- .... ....|--- .... ....
....|..|B-8 JF.F ....|--- .... ....|--- .... ....
....|..|R-- .... ....|--- .... ....|--- .... ....
....|..|B-8 JF.F ....|--- .... ....|A#1 6F.A ....
 F-4|..|F-2 2A.F ....|--- .... ....|--- .... ....
....|..|C-4 AF.F ....|--- .... ....|--- .... ....
....|..|A#2 2F.A ....|--- .... ....|--- .... ....
....|..|B-8 JF.F ....|--- .... ....|F-2 6F.F ....
 F-4|..|F-2 2A.F ....|--- .... ....|--- .... ....
....|..|B-8 JF.F ....|--- .... ....|--- .... ....
....|..|G-2 2F.A ....|--- .... ....|--- .... ....
....|..|C-4 AF.F ....|--- .... ....|F-2 6F.A ....
 F-4|..|F-2 2A.F ....|--- .... ....|--- .... ....
....|..|B-8 JF.F ....|--- .... ....|--- .... ....
....|..|R-- .... ....|--- .... ....|--- .... ....
....|..|C-4 CF.F ....|--- .... ....|F-2 6F.F ....
 F-4|..|F-2 2A.F ....|--- .... ....|--- .... ....
....|..|B-8 JF.F ....|--- .... ....|--- .... ....
....|..|A#2 2F.7 ....|--- .... ....|--- .... ....
....|..|C-4 AF.F ....|--- .... ....|F-2 6F.A ....
 F-4|..|F-2 2A.F ....|--- .... ....|--- .... ....
....|..|B-8 JF.F ....|--- .... ....|--- .... ....
....|..|G-2 2F.7 ....|--- .... ....|--- .... ....
....|..|C-4 AF.F ....|--- .... ....|F-2 6F.F ....
 F-4|..|F-2 2A.F ....|--- .... ....|--- .... ....
....|..|B-8 JF.F ....|--- .... ....|--- .... ....
....|..|R-- .... ....|--- .... ....|--- .... ....
....|..|C-4 CF.F ....|--- .... ....|F-2 6F.A ....
 F-4|..|F-2 2A.F ....|--- .... ....|--- .... ....
....|..|C-4 CF.F ....|--- .... ....|--- .... ....
....|..|R-- .... ....|--- .... ....|--- .... ....

[Pattern26]
....|..|C-4 AF.F ....|--- .... ....|F-2 6F.F ....
....|..|F-2 2F.7 ....|--- .... ....|--- .... ....
....|..|C-4 AF.F ....|--- .... ....|--- .... ....
....|..|R-- .... ....|--- .... ....|--- .... ....
....|..|C-4 CF.F ....|--- .... ....|F-2 6F.A ....
....|..|F-2 2F.7 ....|--- .... ....|--- .... ....
....|..|C-4 CF.F ....|--- .... ....|--- .... ....
....|..|R-- .... ....|--- .... ....|--- .... ....
....|..|B-8 JF.F ....|--- .... ....|F-2 6F.F ....
....|..|F-2 2F.7 ....|--- .... ....|--- .... ....
....|..|B-8 JF.F ....|--- .... ....|--- .... ....
....|..|R-- .... ....|--- .... ....|--- .... ....
....|..|C-4 AF.F ....|--- .... ....|F-2 6F.A ....
....|..|F-2 2F.7 ....|--- .... ....|--- .... ....
....|..|C-4 AF.F ....|--- .... ....|--- .... ....
....|..|R-- .... ....|--- .... ....|--- .... ....
....|..|C-4 AF.F ....|--- .... ....|F-2 6F.F ....
....|..|F-2 2F.7 ....|--- .... ....|--- .... ....
....|..|C-4 AF.F ....|--- .... ....|--- .... ....
....|..|R-- .... ....|--- .... ....|--- .... ....
....|..|C-4 CF.F ....|--- .... ....|F-2 6F.A ....
....|..|F-2 2F.7 ....|--- .... ....|--- .... ....
....|..|B-8 JF.F ....|--- .... ....|--- .... ....
....|..|R-- .... ....|--- .... ....|--- .... ....
....|..|B-8 JF.F ....|--- .... ....|F-2 6F.F ....
....|..|--- .... ....|--- .... ....|--- .... ....
....|..|B-8 JF.F ....|--- .... ....|--- .... ....
....|..|--- .... ....|--- .... ....|--- .... ....
....|..|C-4 AF.F ....|--- .... ....|F-2 6F.A ....
....|..|--- .... ....|--- .... ....|--- .... ....
....|..|B-8 JF.F ....|--- .... ....|--- .... ....
....|..|--- .... ....|--- .... ....|--- .... ....
....|..|C-4 AF.F ....|--- .... ....|F-2 6F.F ....
....|..|--- .... ....|--- .... ....|--- .... ....
....|..|B-8 JF.7 ....|--- .... ....|--- .... ....
....|..|--- .... ....|--- .... ....|--- .... ....
....|..|C-4 AF.7 ....|--- .... ....|F-2 6F.A ....
....|..|--- .... ....|--- .... ....|--- .... ....
....|..|C-4 AF.7 ....|--- .... ....|--- .... ....
....|..|--- .... ....|--- .... ....|--- .... ....
....|..|C-4 AF.7 ....|--- .... ....|F-2 6F.F ....
....|..|--- .... ....|--- .... ....|--- .... ....
....|..|C-4 AF.7 ....|--- .... ....|--- .... ....
....|..|--- .... ....|--- .... ....|--- .... ....
....|..|C-4 CF.7 ....|--- .... ....|F-2 6F.A ....
....|..|--- .... ....|--- .... ....|--- .... ....
....|..|B-8 JF.7 ....|--- .... ....|--- .... ....
....|..|--- .... ....|--- .... ....|--- .... ....
....|..|B-8 JF.7 ....|--- .... ....|F-2 6F.7 ....
....|..|--- .... ....|--- .... ....|--- .... ....
....|..|B-8 JF.7 ....|--- .... ....|--- .... ....
....|..|--- .... ....|--- .... ....|--- .... ....
....|..|C-4 AF.7 ....|--- .... ....|F-2 6F.A ....
....|..|--- .... ....|--- .... ....|--- .... ....
....|..|B-8 JF.7 ....|--- .... ....|--- .... ....
....|..|--- .... ....|--- .... ....|--- .... ....
....|..|C-4 AF.7 ....|--- .... ....|F-2 6F.7 ....
....|..|--- .... ....|--- .... ....|--- .... ....
....|..|--- .... ....|--- .... ....|--- .... ....
....|..|--- .... ....|--- .... ....|--- .... ....
....|..|R-- .... ....|--- .... ....|R-- .... ....
....|..|--- .... ....|--- .... ....|--- .... ....
....|..|--- .... ....|--- .... ....|--- .... ....
....|..|--- .... ....|--- .... ....|--- .... ....

[Pattern27]
....|..|C-4 CF.F ....|--- .... ....|A#1 6F.F ....
....|..|--- .... ....|--- .... ....|--- .... ....
....|..|--- .... ....|--- .... ....|--- .... ....
....|..|--- .... ....|--- .... ....|--- .... ....
....|..|R-- .... ....|--- .... ....|R-- .... ....
....|..|--- .... ....|--- .... ....|--- .... ....
....|..|--- .... ....|--- .... ....|--- .... ....
....|..|--- .... ....|--- .... ....|--- .... ....
....|..|C-4 CF.F ....|--- .... ....|A#1 6F.F ....
....|..|--- .... ....|--- .... ....|--- .... ....
....|..|--- .... ....|--- .... ....|--- .... ....
....|..|--- .... ....|--- .... ....|--- .... ....
....|..|C-4 CF.A ....|--- .... ....|A#1 6F.A ....
....|..|--- .... ....|--- .... ....|--- .... ....
....|..|--- .... ....|--- .... ....|--- .... ....
....|..|--- .... ....|--- .... ....|--- .... ....
....|..|C-4 CF.F ....|--- .... ....|A#1 6F.F ....
....|..|--- .... ....|--- .... ....|--- .... ....
....|..|--- .... ....|--- .... ....|--- .... ....
....|..|--- .... ....|--- .... ....|--- .... ....
....|..|C-4 CF.A ....|--- .... ....|A#1 6F.A ....
....|..|--- .... ....|--- .... ....|--- .... ....
....|..|--- .... ....|--- .... ....|--- .... ....
....|..|--- .... ....|--- .... ....|--- .... ....
....|..|C-4 CF.F ....|--- .... ....|A#1 6F.F ....
....|..|--- .... ....|--- .... ....|--- .... ....
....|..|--- .... ....|--- .... ....|--- .... ....
....|..|--- .... ....|--- .... ....|--- .... ....
....|..|C-4 CF.A ....|--- .... ....|A#1 6F.A ....
....|..|--- .... ....|--- .... ....|--- .... ....
....|..|--- .... ....|--- .... ....|--- .... ....
....|..|--- .... ....|--- .... ....|--- .... ....
....|..|C-4 CF.F ....|--- .... ....|F-2 6F.F ....
....|..|--- .... ....|--- .... ....|--- .... ....
....|..|--- .... ....|--- .... ....|--- .... ....
....|..|--- .... ....|--- .... ....|--- .... ....
....|..|C-4 CF.F ....|--- .... ....|A#1 6F.A ....
....|..|--- .... ....|--- .... ....|--- .... ....
....|..|--- .... ....|--- .... ....|--- .... ....
....|..|--- .... ....|--- .... ....|--- .... ....
....|..|C-4 CF.F ....|--- .... ....|F-2 6F.F ....
....|..|--- .... ....|--- .... ....|--- .... ....
....|..|--- .... ....|--- .... ....|--- .... ....
....|..|--- .... ....|--- .... ....|--- .... ....
....|..|C-4 CF.F ....|--- .... ....|F-2 6F.A ....
....|..|--- .... ....|--- .... ....|--- .... ....
....|..|--- .... ....|--- .... ....|--- .... ....
....|..|--- .... ....|--- .... ....|--- .... ....
....|..|C-4 CF.F ....|--- .... ....|F-2 6F.F ....
....|..|--- .... ....|--- .... ....|--- .... ....
....|..|--- .... ....|--- .... ....|--- .... ....
....|..|--- .... ....|--- .... ....|--- .... ....
....|..|C-4 CF.F ....|--- .... ....|F-2 6F.A ....
....|..|--- .... ....|--- .... ....|--- .... ....
....|..|--- .... ....|--- .... ....|--- .... ....
....|..|--- .... ....|--- .... ....|--- .... ....
....|..|C-4 CF.F ....|--- .... ....|F-2 6F.F ....
....|..|--- .... ....|--- .... ....|--- .... ....
....|..|--- .... ....|--- .... ....|--- .... ....
....|..|--- .... ....|--- .... ....|--- .... ....
....|..|C-4 CF.7 ....|--- .... ....|F-2 6F.A ....
....|..|--- .... ....|--- .... ....|--- .... ....
....|..|--- .... ....|--- .... ....|--- .... ....
....|..|--- .... ....|--- .... ....|--- .... ....

[Pattern28]
....|..|C-4 CF.7 ....|F-4 3FFF ....|F-2 6F.7 ....
....|..|--- .... ....|--- .... ....|--- .... ....
....|..|--- .... ....|--- .... ....|--- .... ....
....|..|--- .... ....|--- .... ....|--- .... ....
....|..|C-4 CF.7 ....|F-4 3FFF ....|F-2 6F.A ....
....|..|--- .... ....|--- .... ....|--- .... ....
....|..|--- .... ....|--- .... ....|--- .... ....
....|..|--- .... ....|--- .... ....|--- .... ....
....|..|C-4 CF.7 ....|D#4 3FFF ....|F-2 6F.7 ....
....|..|--- .... ....|--- .... ....|--- .... ....
....|..|--- .... ....|--- .... ....|--- .... ....
....|..|--- .... ....|--- .... ....|--- .... ....
....|..|C-4 CF.7 ....|D#4 3FFF ....|R-- .... ....
....|..|--- .... ....|--- .... ....|--- .... ....
....|..|--- .... ....|--- .... ....|--- .... ....
....|..|--- .... ....|--- .... ....|--- .... ....
....|..|C-4 CF.7 ....|G#4 3FFF ....|F-2 6F.7 ....
....|..|--- .... ....|--- .... ....|--- .... ....
....|..|--- .... ....|--- .... ....|--- .... ....
....|..|--- .... ....|--- .... ....|--- .... ....
....|..|R-- .... ....|G#4 3FFF ....|R-- .... ....
....|..|--- .... ....|--- .... ....|--- .... ....
....|..|--- .... ....|--- .... ....|--- .... ....
....|..|--- .... ....|--- .... ....|--- .... ....
....|..|--- .... ....|G-4 3FFF ....|--- .... ....
....|..|--- .... ....|--- .... ....|--- .... ....
....|..|--- .... ....|--- .... ....|--- .... ....
....|..|--- .... ....|--- .... ....|--- .... ....
....|..|--- .... ....|G-4 3FFF ....|--- .... ....
....|..|--- .... ....|--- .... ....|--- .... ....
....|..|--- .... ....|--- .... ....|--- .... ....
....|..|--- .... ....|--- .... ....|--- .... ....
....|..|--- .... ....|G-4 3FFF ....|--- .... ....
....|..|--- .... ....|--- .... ....|--- .... ....
....|..|--- .... ....|--- .... ....|--- .... ....
....|..|--- .... ....|--- .... ....|--- .... ....
....|..|--- .... ....|D#4 3FFF ....|--- .... ....
....|..|--- .... ....|--- .... ....|--- .... ....
....|..|--- .... ....|--- .... ....|--- .... ....
....|..|--- .... ....|--- .... ....|--- .... ....
....|..|--- .... ....|D#4 3FFF ....|--- .... ....
....|..|--- .... ....|--- .... ....|--- .... ....
....|..|--- .... ....|--- .... ....|--- .... ....
....|..|--- .... ....|--- .... ....|--- .... ....
....|..|--- .... ....|G#4 3FF7 ....|--- .... ....
....|..|--- .... ....|--- .... ....|--- .... ....
....|..|--- .... ....|--- .... ....|--- .... ....
....|..|--- .... ....|--- .... ....|--- .... ....
....|..|--- .... ....|D#4 3FFF ....|--- .... ....
....|..|--- .... ....|--- .... ....|--- .... ....
....|..|--- .... ....|--- .... ....|--- .... ....
....|..|--- .... ....|--- .... ....|--- .... ....
....|..|--- .... ....|G-4 3FF7 ....|--- .... ....
....|..|--- .... ....|--- .... ....|--- .... ....
....|..|--- .... ....|--- .... ....|--- .... ....
....|..|--- .... ....|--- .... ....|--- .... ....
....|..|--- .... ....|G-4 3FF7 ....|--- .... ....
....|..|--- .... ....|--- .... ....|--- .... ....
....|..|--- .... ....|--- .... ....|--- .... ....
....|..|--- .... ....|--- .... ....|--- .... ....
....|..|--- .... ....|D#4 3FFF ....|--- .... ....
....|..|--- .... ....|--- .... ....|--- .... ....
....|..|--- .... ....|--- .... ....|--- .... ....
....|..|--- .... ....|--- .... ....|--- .... ....

[Pattern29]
....|..|--- .... ....|D#4 3FFF ....|--- .... ....
....|..|--- .... ....|--- .... ....|--- .... ....
....|..|--- .... ....|--- .... ....|--- .... ....
....|..|--- .... ....|--- .... ....|--- .... ....
....|..|--- .... ....|D#4 3FFF ....|--- .... ....
....|..|--- .... ....|--- .... ....|--- .... ....
....|..|--- .... ....|--- .... ....|--- .... ....
....|..|--- .... ....|--- .... ....|--- .... ....
....|..|--- .... ....|D#4 3FFF ....|--- .... ....
....|..|--- .... ....|--- .... ....|--- .... ....
....|..|--- .... ....|--- .... ....|--- .... ....
....|..|--- .... ....|--- .... ....|--- .... ....
....|..|--- .... ....|D#4 3FFF ....|--- .... ....
....|..|--- .... ....|--- .... ....|--- .... ....
....|..|--- .... ....|--- .... ....|--- .... ....
....|..|--- .... ....|--- .... ....|--- .... ....
....|..|--- .... ....|D#4 3FFF ....|--- .... ....
....|..|--- .... ....|--- .... ....|--- .... ....
....|..|--- .... ....|--- .... ....|--- .... ....
....|..|--- .... ....|--- .... ....|--- .... ....
....|..|--- .... ....|D#4 3FFF ....|--- .... ....
....|..|--- .... ....|--- .... ....|--- .... ....
....|..|--- .... ....|--- .... ....|--- .... ....
....|..|--- .... ....|--- .... ....|--- .... ....
....|..|--- .... ....|D#4 3FFF ....|--- .... ....
....|..|--- .... ....|--- .... ....|--- .... ....
....|..|--- .... ....|--- .... ....|--- .... ....
....|..|--- .... ....|--- .... ....|--- .... ....
....|..|--- .... ....|F-4 3FFF ....|--- .... ....
....|..|--- .... ....|--- .... ....|--- .... ....
....|..|--- .... ....|--- .... ....|--- .... ....
....|..|--- .... ....|--- .... ....|--- .... ....
....|..|--- .... ....|F-4 3FFF ....|--- .... ....
....|..|--- .... ....|--- .... ....|--- .... ....
....|..|--- .... ....|--- .... ....|--- .... ....
....|..|--- .... ....|--- .... ....|--- .... ....
....|..|--- .... ....|C-4 3FFF ....|--- .... ....
....|..|--- .... ....|--- .... ....|--- .... ....
....|..|--- .... ....|--- .... ....|--- .... ....
....|..|--- .... ....|--- .... ....|--- .... ....
....|..|--- .... ....|C-4 3FFF ....|--- .... ....
....|..|--- .... ....|C-4 3FFF ....|--- .... ....
....|..|--- .... ....|C-4 3FFF ....|--- .... ....
....|..|--- .... ....|C-4 3FFF ....|--- .... ....
....|..|--- .... ....|C-4 3FFF ....|--- .... ....
....|..|--- .... ....|C-4 3FFF ....|--- .... ....
....|..|--- .... ....|C-4 3FFF ....|--- .... ....
....|..|--- .... ....|C-4 3FFF ....|--- .... ....
....|..|--- .... ....|C-4 3FFF ....|--- .... ....
....|..|--- .... ....|--- .... ....|--- .... ....
....|..|--- .... ....|--- .... ....|--- .... ....
....|..|--- .... ....|--- .... ....|--- .... ....
....|..|--- .... ....|F-4 3FF7 ....|--- .... ....
....|..|--- .... ....|C-4 3FFA ....|--- .... ....
....|..|--- .... ....|C-4 3FFA ....|--- .... ....
....|..|--- .... ....|C-4 3FFA ....|--- .... ....
....|..|--- .... ....|F-4 3FF7 ....|--- .... ....
....|..|--- .... ....|C-4 3FFA ....|--- .... ....
....|..|--- .... ....|C-4 3FFA ....|--- .... ....
....|..|--- .... ....|C-4 3FFA ....|--- .... ....
....|..|--- .... ....|C-4 3FF7 ....|--- .... ....
....|..|--- .... ....|--- .... ....|--- .... ....
....|..|--- .... ....|--- .... ....|--- .... ....
....|..|--- .... ....|--- .... ....|--- .... ....

[Pattern30]
....|..|C-5 OFCF ....|C-5 UFEF ....|F-2 7F.F ....
....|..|--- .... ....|C-4 3FF7 ....|--- .... ....
....|..|--- .... ....|C-4 3FF7 ....|--- .... ....
....|..|--- .... ....|C-4 3FF7 ....|--- .... ....
....|..|--- .... ....|C-4 3FF7 ....|F-3 7F1F ....
....|..|--- .... ....|C-4 3FF7 ....|--- .... ....
....|..|--- .... ....|C-4 3FF7 ....|--- .... ....
....|..|--- .... ....|C-4 3FF7 ....|--- .... ....
....|..|A#4 OFCF ....|A#4 UFEF ....|F-2 7F.F ....
....|..|--- .... ....|--- .... ....|--- .... ....
....|..|--- .... ....|--- .... ....|--- .... ....
....|..|--- .... ....|--- .... ....|--- .... ....
....|..|C-5 OFCA ....|C-5 UFEA ....|F-3 7F1F ....
....|..|--- .... ....|--- .... ....|--- .... ....
....|..|--- .... ....|--- .... ....|--- .... ....
....|..|--- .... ....|--- .... ....|--- .... ....
....|..|G#4 OFCF ....|G#4 UFEF ....|F-2 7F.F ....
....|..|--- .... ....|--- .... ....|--- .... ....
....|..|--- .... ....|--- .... ....|--- .... ....
....|..|--- .... ....|--- .... ....|--- .... ....
....|..|A#4 OFCA ....|A#4 UFEA ....|F-3 7F1F ....
....|..|--- .... ....|--- .... ....|--- .... ....
....|..|--- .... ....|--- .... ....|--- .... ....
....|..|--- .... ....|--- .... ....|--- .... ....
....|..|C-5 OFC7 ....|C-5 UFE7 ....|F-2 7F.F ....
....|..|--- .... ....|--- .... ....|--- .... ....
....|..|--- .... ....|--- .... ....|--- .... ....
....|..|--- .... ....|--- .... ....|--- .... ....
....|..|F-4 OFCF ....|F-4 UFEF ....|F-3 7F1F ....
....|..|--- .... ....|--- .... ....|--- .... ....
....|..|--- .... ....|--- .... ....|--- .... ....
....|..|--- .... ....|--- .... ....|F-3 7F.F ....
....|..|A#4 OFC7 ....|A#4 UFE7 ....|G#2 7F.F ....
....|..|--- .... ....|--- .... ....|--- .... ....
....|..|--- .... ....|--- .... ....|--- .... ....
....|..|--- .... ....|--- .... ....|--- .... ....
....|..|R-- .... ....|R-- .... ....|D#3 7F.F ....
....|..|--- .... ....|--- .... ....|--- .... ....
....|..|--- .... ....|--- .... ....|--- .... ....
....|..|--- .... ....|--- .... ....|--- .... ....
....|..|G#4 OFC7 ....|G#4 UFE7 ....|G#3 7F.F ....
....|..|--- .... ....|--- .... ....|--- .... ....
....|..|--- .... ....|--- .... ....|--- .... ....
....|..|--- .... ....|--- .... ....|F-3 7F.A ....
....|..|G#4 OFCF ....|G#4 UFEF ....|D#3 7F.F ....
....|..|--- .... ....|--- .... ....|--- .... ....
....|..|--- .... ....|--- .... ....|--- .... ....
....|..|--- .... ....|--- .... ....|--- .... ....
....|..|R-- .... ....|R-- .... ....|G#2 7F.F ....
....|..|--- .... ....|--- .... ....|--- .... ....
....|..|--- .... ....|--- .... ....|--- .... ....
....|..|--- .... ....|--- .... ....|--- .... ....
....|..|F-4 OFC7 ....|F-4 UFE7 ....|D#3 7F.F ....
....|..|--- .... ....|--- .... ....|--- .... ....
....|..|--- .... ....|--- .... ....|--- .... ....
....|..|--- .... ....|--- .... ....|F-3 7F.7 ....
....|..|F-5 OFCF ....|F-5 UFEF ....|G#2 7F.F ....
....|..|--- .... ....|--- .... ....|--- .... ....
....|..|--- .... ....|--- .... ....|--- .... ....
....|..|--- .... ....|--- .... ....|--- .... ....
....|..|D#5 OFCF ....|D#5 UFEF ....|A-2 7F.F ....
....|..|--- .... ....|--- .... ....|--- .... ....
....|..|--- .... ....|--- .... ....|--- .... ....
....|..|--- .... ....|--- .... ....|--- .... ....

[Pattern31]
....|..|D-5 OFCF ....|D-5 UFEF ....|A#2 7F.F ....
....|..|--- .... ....|--- .... ....|--- .... ....
....|..|--- .... ....|--- .... ....|--- .... ....
....|..|--- .... ....|--- .... ....|--- .... ....
....|..|G#4 OFC7 ....|G#4 UFE7 ....|F-3 7F.F ....
....|..|--- .... ....|--- .... ....|--- .... ....
....|..|--- .... ....|--- .... ....|--- .... ....
....|..|--- .... ....|--- .... ....|--- .... ....
....|..|A#4 OFCF ....|A#4 UFEF ....|A#3 7F.F ....
....|..|--- .... ....|--- .... ....|--- .... ....
....|..|--- .... ....|--- .... ....|--- .... ....
....|..|--- .... ....|--- .... ....|--- .... ....
....|..|D-5 OFCA ....|D-5 UFEA ....|F-3 7F.F ....
....|..|--- .... ....|--- .... ....|--- .... ....
....|..|--- .... ....|--- .... ....|--- .... ....
....|..|--- .... ....|--- .... ....|--- .... ....
....|..|F-4 OFCF ....|F-4 UFEF ....|D-4 7F.F ....
....|..|--- .... ....|--- .... ....|--- .... ....
....|..|--- .... ....|--- .... ....|--- .... ....
....|..|--- .... ....|--- .... ....|--- .... ....
....|..|D#5 OFC7 ....|D#5 UFE7 ....|D-3 7F.F ....
....|..|--- .... ....|--- .... ....|--- .... ....
....|..|--- .... ....|--- .... ....|--- .... ....
....|..|--- .... ....|--- .... ....|--- .... ....
....|..|G-4 OFCF ....|G-4 UFEF ....|G#2 7F.F ....
....|..|--- .... ....|--- .... ....|--- .... ....
....|..|--- .... ....|--- .... ....|--- .... ....
....|..|--- .... ....|--- .... ....|--- .... ....
....|..|F-4 OFCA ....|F-4 UFEA ....|G-2 7F.F ....
....|..|--- .... ....|--- .... ....|--- .... ....
....|..|--- .... ....|--- .... ....|--- .... ....
....|..|--- .... ....|--- .... ....|--- .... ....
....|..|C-4 AF.F ....|G#4 UFEF ....|F-2 7F.F ....
....|..|--- .... ....|--- .... ....|--- .... ....
....|..|--- .... ....|--- .... ....|--- .... ....
....|..|--- .... ....|--- .... ....|--- .... ....
....|..|G-4 OFCA ....|G-4 UFEA ....|F-3 7F1F ....
....|..|--- .... ....|--- .... ....|--- .... ....
....|..|--- .... ....|--- .... ....|--- .... ....
....|..|--- .... ....|--- .... ....|--- .... ....
....|..|C-4 AF.F ....|F-4 UFEF ....|F-2 7F.F ....
....|..|--- .... ....|--- .... ....|--- .... ....
....|..|--- .... ....|--- .... ....|--- .... ....
....|..|--- .... ....|--- .... ....|--- .... ....
....|..|C-4 AF.A ....|G#4 UFEA ....|F-3 7F1F ....
....|..|--- .... ....|--- .... ....|--- .... ....
....|..|--- .... ....|--- .... ....|--- .... ....
....|..|--- .... ....|--- .... ....|--- .... ....
....|..|C-4 AF.F ....|C-4 UFEF ....|F-2 7F.F ....
....|..|--- .... ....|--- .... ....|--- .... ....
....|..|--- .... ....|--- .... ....|--- .... ....
....|..|--- .... ....|--- .... ....|--- .... ....
....|..|C-4 AF.A ....|F-4 UFEA ....|F-3 7F1F ....
....|..|--- .... ....|--- .... ....|--- .... ....
....|..|--- .... ....|--- .... ....|--- .... ....
....|..|--- .... ....|--- .... ....|--- .... ....
....|..|C-4 AF.7 ....|G#4 3FFF ....|F-2 7F.F ....
....|..|--- .... ....|--- .... ....|--- .... ....
....|..|--- .... ....|--- .... ....|--- .... ....
....|..|--- .... ....|--- .... ....|--- .... ....
....|..|C-4 AF.A ....|C-4 UFEA ....|F-3 7F17 ....
....|..|--- .... ....|--- .... ....|--- .... ....
....|..|--- .... ....|--- .... ....|--- .... ....
....|..|--- .... ....|--- .... ....|R-- .... ....

[Pattern32]
....|..|C-4 AF.F ....|F-4 3FFF ....|F-2 7F.7 ....
 F-2|..|F-1 2A.F ....|--- .... ....|--- .... ....
....|..|--- .... ....|--- .... ....|--- .... ....
....|..|--- .... ....|--- .... ....|--- .... ....
 F-3|..|F-1 2A.F ....|G#4 3FFA ....|F-3 7F17 ....
....|..|R-- .... ....|--- .... ....|--- .... ....
....|..|--- .... ....|--- .... ....|--- .... ....
....|..|--- .... ....|--- .... ....|--- .... ....
....|..|C-4 CF.F ....|C-4 UFE7 ....|F-2 7F.7 ....
 F-2|..|F-1 2A.F ....|--- .... ....|--- .... ....
....|..|--- .... ....|--- .... ....|--- .... ....
....|..|--- .... ....|--- .... ....|R-- .... ....
 F-3|..|F-1 2A.F ....|F-4 3FFA ....|F-3 7F17 ....
....|..|F-1 2F.A ....|--- .... ....|--- .... ....
....|..|--- .... ....|--- .... ....|--- .... ....
....|..|--- .... ....|--- .... ....|--- .... ....
....|..|C-4 AF.F ....|G#4 3FF7 ....|F-2 7F.7 ....
 F-2|..|F-1 2A.F ....|--- .... ....|--- .... ....
....|..|--- .... ....|--- .... ....|--- .... ....
....|..|--- .... ....|--- .... ....|--- .... ....
 F-3|..|F-1 2A.F ....|R-- .... ....|--- .... ....
....|..|F-1 2F.A ....|--- .... ....|--- .... ....
....|..|--- .... ....|--- .... ....|--- .... ....
....|..|--- .... ....|--- .... ....|R-- .... ....
....|..|C-4 CF.F ....|G#4 3FFF ....|--- .... ....
 F-2|..|F-1 2A.F ....|--- .... ....|--- .... ....
....|..|--- .... ....|--- .... ....|--- .... ....
....|..|--- .... ....|--- .... ....|--- .... ....
 F-3|..|F-1 2A.F ....|--- .... ....|--- .... ....
....|..|F-1 2F.A ....|--- .... ....|--- .... ....
....|..|--- .... ....|--- .... ....|--- .... ....
....|..|--- .... ....|--- .... ....|--- .... ....
....|..|C-4 AF.F ....|F-4 3FFF ....|--- .... ....
 G#2|..|G#1 2A.F ....|--- .... ....|--- .... ....
....|..|--- .... ....|--- .... ....|--- .... ....
....|..|--- .... ....|--- .... ....|--- .... ....
 G#3|..|G#1 2A.F ....|G#4 3FFA ....|--- .... ....
....|..|F-1 2F.A ....|--- .... ....|--- .... ....
....|..|--- .... ....|--- .... ....|--- .... ....
....|..|--- .... ....|--- .... ....|--- .... ....
....|..|C-4 CF.F ....|R-- .... ....|--- .... ....
 G#2|..|G#1 2A.F ....|--- .... ....|--- .... ....
....|..|--- .... ....|--- .... ....|--- .... ....
....|..|--- .... ....|--- .... ....|--- .... ....
 G#3|..|G#1 2A.F ....|F-4 3FFA ....|--- .... ....
....|..|G#1 2F.A ....|--- .... ....|--- .... ....
....|..|--- .... ....|--- .... ....|--- .... ....
....|..|--- .... ....|--- .... ....|--- .... ....
....|..|C-4 AF.F ....|G#4 3FF7 ....|--- .... ....
 G#2|..|G#1 2A.F ....|--- .... ....|--- .... ....
....|..|--- .... ....|--- .... ....|--- .... ....
....|..|--- .... ....|--- .... ....|--- .... ....
....|..|C-4 BF.F ....|G-4 3FFF ....|--- .... ....
 G#3|..|G#1 2A.F ....|--- .... ....|--- .... ....
....|..|--- .... ....|--- .... ....|--- .... ....
....|..|--- .... ....|--- .... ....|--- .... ....
....|..|C-4 CF.F ....|F-4 3FFF ....|--- .... ....
 G#2|..|G#1 2A.F ....|--- .... ....|--- .... ....
....|..|--- .... ....|--- .... ....|--- .... ....
....|..|--- .... ....|--- .... ....|--- .... ....
 G#3|..|G#1 2A.F ....|D#4 3FFF ....|--- .... ....
....|..|G#1 2F.A ....|--- .... ....|--- .... ....
....|..|--- .... ....|--- .... ....|--- .... ....
....|..|--- .... ....|--- .... ....|--- .... ....

[Pattern33]
....|..|C-4 AF.F ....|F-4 3FFF ....|--- .... ....
 A#2|..|A#1 2A.F ....|--- .... ....|--- .... ....
....|..|--- .... ....|--- .... ....|--- .... ....
....|..|--- .... ....|--- .... ....|--- .... ....
 A#3|..|A#1 2A.F ....|F-4 3FFF ....|--- .... ....
....|..|G#1 2F.A ....|--- .... ....|--- .... ....
....|..|--- .... ....|--- .... ....|--- .... ....
....|..|--- .... ....|--- .... ....|--- .... ....
....|..|C-4 CF.F ....|D#4 3FFF ....|--- .... ....
 A#2|..|A#1 2A.F ....|--- .... ....|--- .... ....
....|..|--- .... ....|--- .... ....|--- .... ....
....|..|--- .... ....|--- .... ....|--- .... ....
 A#3|..|A#1 2A.F ....|D#4 3FFF ....|--- .... ....
....|..|G#1 2F.7 ....|--- .... ....|--- .... ....
....|..|--- .... ....|--- .... ....|--- .... ....
....|..|--- .... ....|--- .... ....|--- .... ....
....|..|C-4 AF.F ....|G#4 3FFF ....|--- .... ....
 A#2|..|A#1 2A.F ....|--- .... ....|--- .... ....
....|..|--- .... ....|--- .... ....|--- .... ....
....|..|--- .... ....|--- .... ....|--- .... ....
 A#3|..|A#1 2A.F ....|G#4 3FFF ....|--- .... ....
....|..|A#1 2F.A ....|--- .... ....|--- .... ....
....|..|--- .... ....|--- .... ....|--- .... ....
....|..|--- .... ....|--- .... ....|--- .... ....
....|..|C-4 CF.F ....|G-4 3FFF ....|--- .... ....
 A#2|..|A#1 2A.F ....|--- .... ....|--- .... ....
....|..|--- .... ....|--- .... ....|--- .... ....
....|..|--- .... ....|--- .... ....|--- .... ....
 A#3|..|A#1 2A.F ....|G-4 3FFF ....|--- .... ....
....|..|A#1 2F.A ....|--- .... ....|--- .... ....
....|..|--- .... ....|--- .... ....|--- .... ....
....|..|--- .... ....|--- .... ....|--- .... ....
....|..|C-4 AF.F ....|G-4 3FFF ....|--- .... ....
 F-2|..|F-1 2A.F ....|--- .... ....|--- .... ....
....|..|--- .... ....|--- .... ....|--- .... ....
....|..|--- .... ....|--- .... ....|--- .... ....
 F-3|..|F-1 2A.F ....|C-4 3FFF ....|--- .... ....
....|..|A#1 2F.A ....|--- .... ....|--- .... ....
....|..|--- .... ....|--- .... ....|--- .... ....
....|..|--- .... ....|--- .... ....|--- .... ....
....|..|C-4 AF.F ....|C-4 3FFF ....|--- .... ....
 F-2|..|F-1 2A.F ....|--- .... ....|--- .... ....
....|..|--- .... ....|--- .... ....|--- .... ....
....|..|--- .... ....|--- .... ....|--- .... ....
 F-3|..|F-1 2A.F ....|G#4 3FF7 ....|--- .... ....
....|..|F-1 2F.A ....|--- .... ....|--- .... ....
....|..|--- .... ....|--- .... ....|--- .... ....
....|..|--- .... ....|--- .... ....|--- .... ....
....|..|C-4 AF.F ....|C-4 3FFF ....|--- .... ....
 F-2|..|F-1 2A.F ....|--- .... ....|--- .... ....
....|..|--- .... ....|--- .... ....|--- .... ....
....|..|--- .... ....|--- .... ....|--- .... ....
....|..|A#1 2F.7 ....|G-4 3FF7 ....|--- .... ....
....|..|F-1 2F.A ....|--- .... ....|--- .... ....
....|..|--- .... ....|--- .... ....|--- .... ....
....|..|--- .... ....|--- .... ....|--- .... ....
....|..|C-4 BF.F ....|G-4 3FF7 ....|--- .... ....
....|..|C-4 BF.F ....|--- .... ....|--- .... ....
....|..|--- .... ....|--- .... ....|--- .... ....
....|..|--- .... ....|--- .... ....|--- .... ....
....|..|F-1 2F.7 ....|C-4 3FF7 ....|--- .... ....
....|..|F-1 2F.A ....|--- .... ....|--- .... ....
....|..|--- .... ....|--- .... ....|--- .... ....
....|..|--- .... ....|--- .... ....|--- .... ....

[Pattern34]
....|..|C-4 AF.F ....|C-5 3FFF ....|--- .... ....
 F-3|..|F-1 2A.F ....|--- .... ....|--- .... ....
....|..|--- .... ....|--- .... ....|--- .... ....
....|..|--- .... ....|--- .... ....|--- .... ....
....|..|C-4 LF.F ....|R-- .... ....|--- .... ....
 F-4|..|F-2 2A.F ....|--- .... ....|--- .... ....
....|..|--- .... ....|--- .... ....|--- .... ....
....|..|--- .... ....|--- .... ....|--- .... ....
....|..|C-4 CF.F ....|C-5 3FFF ....|--- .... ....
 F-3|..|F-1 2A.F ....|--- .... ....|--- .... ....
....|..|--- .... ....|--- .... ....|--- .... ....
....|..|--- .... ....|--- .... ....|--- .... ....
....|..|C-4 LF.F ....|C-5 3FFF ....|--- .... ....
 F-4|..|F-2 2A.F ....|--- .... ....|--- .... ....
....|..|--- .... ....|--- .... ....|--- .... ....
....|..|--- .... ....|--- .... ....|--- .... ....
....|..|C-4 AF.F ....|A#4 3FFF ....|--- .... ....
 F-3|..|F-1 2A.F ....|--- .... ....|--- .... ....
....|..|--- .... ....|--- .... ....|--- .... ....
....|..|--- .... ....|--- .... ....|--- .... ....
....|..|C-4 LF.F ....|C-5 3FFA ....|--- .... ....
 F-4|..|F-2 2A.F ....|--- .... ....|--- .... ....
....|..|--- .... ....|--- .... ....|--- .... ....
....|..|--- .... ....|--- .... ....|--- .... ....
....|..|C-4 CF.F ....|A#4 3FFF ....|--- .... ....
 F-3|..|F-1 2A.F ....|--- .... ....|--- .... ....
....|..|--- .... ....|--- .... ....|--- .... ....
....|..|--- .... ....|--- .... ....|--- .... ....
....|..|C-4 LF.F ....|A#4 3FFF ....|--- .... ....
 F-4|..|F-2 2A.F ....|--- .... ....|--- .... ....
....|..|--- .... ....|--- .... ....|--- .... ....
....|..|--- .... ....|--- .... ....|--- .... ....
....|..|C-4 AF.F ....|G#4 3FFF ....|--- .... ....
 G#3|..|G#1 2A.F ....|--- .... ....|--- .... ....
....|..|--- .... ....|--- .... ....|--- .... ....
....|..|--- .... ....|--- .... ....|--- .... ....
....|..|C-4 LF.F ....|G#4 3FFF ....|--- .... ....
 G#4|..|G#2 2A.F ....|--- .... ....|--- .... ....
....|..|--- .... ....|--- .... ....|--- .... ....
....|..|--- .... ....|--- .... ....|--- .... ....
....|..|C-4 CF.F ....|G#4 3FFF ....|--- .... ....
 G#3|..|G#1 2A.F ....|--- .... ....|--- .... ....
....|..|--- .... ....|--- .... ....|--- .... ....
....|..|--- .... ....|--- .... ....|--- .... ....
....|..|C-4 LF.F ....|G#4 3FFF ....|--- .... ....
 G#4|..|G#2 2A.F ....|--- .... ....|--- .... ....
....|..|--- .... ....|--- .... ....|--- .... ....
....|..|--- .... ....|--- .... ....|--- .... ....
....|..|C-4 AF.F ....|G-4 3FFF ....|--- .... ....
 G#3|..|G#1 2A.F ....|--- .... ....|--- .... ....
....|..|--- .... ....|--- .... ....|--- .... ....
....|..|--- .... ....|--- .... ....|--- .... ....
....|..|C-4 LF.F ....|D#4 3FFF ....|--- .... ....
 G#4|..|G#2 2A.F ....|--- .... ....|--- .... ....
....|..|--- .... ....|--- .... ....|--- .... ....
....|..|--- .... ....|--- .... ....|--- .... ....
....|..|C-4 CF.F ....|C-4 3FFF ....|--- .... ....
 G#3|..|G#1 2A.F ....|--- .... ....|--- .... ....
....|..|--- .... ....|--- .... ....|--- .... ....
....|..|--- .... ....|--- .... ....|--- .... ....
....|..|C-4 LF.F ....|F-4 3FFF ....|--- .... ....
 G#4|..|G#2 2A.F ....|--- .... ....|--- .... ....
....|..|--- .... ....|--- .... ....|--- .... ....
....|..|R-- .... ....|--- .... ....|--- .... ....

[Pattern35]
....|..|C-4 AF.F ....|G#4 3FF7 ....|--- .... ....
 A#2|..|A#1 2A.F ....|--- .... ....|--- .... ....
....|..|--- .... ....|--- .... ....|--- .... ....
....|..|--- .... ....|--- .... ....|--- .... ....
....|..|C-4 LF.F ....|C-5 3FFF ....|--- .... ....
 A#3|..|A#1 2A.F ....|--- .... ....|--- .... ....
....|..|--- .... ....|--- .... ....|--- .... ....
....|..|--- .... ....|--- .... ....|--- .... ....
....|..|C-4 CF.F ....|C-5 3FFF ....|--- .... ....
 A#2|..|A#1 2A.F ....|--- .... ....|--- .... ....
....|..|--- .... ....|--- .... ....|--- .... ....
....|..|R-- .... ....|--- .... ....|--- .... ....
....|..|C-4 LF.F ....|C-5 3FFF ....|--- .... ....
 A#3|..|A#1 2A.F ....|--- .... ....|--- .... ....
....|..|--- .... ....|--- .... ....|--- .... ....
....|..|--- .... ....|--- .... ....|--- .... ....
....|..|C-4 AF.F ....|A#4 3FFF ....|--- .... ....
 A#2|..|A#1 2A.F ....|--- .... ....|--- .... ....
....|..|--- .... ....|--- .... ....|--- .... ....
....|..|--- .... ....|--- .... ....|--- .... ....
....|..|C-4 LF.F ....|F-4 3FF7 ....|--- .... ....
 A#3|..|A#1 2A.F ....|--- .... ....|--- .... ....
....|..|--- .... ....|--- .... ....|--- .... ....
....|..|R-- .... ....|--- .... ....|--- .... ....
....|..|C-4 CF.F ....|A#4 3FFF ....|--- .... ....
 A#2|..|A#1 2A.F ....|--- .... ....|--- .... ....
....|..|--- .... ....|--- .... ....|--- .... ....
....|..|--- .... ....|--- .... ....|--- .... ....
....|..|C-4 LF.F ....|A#4 3FFF ....|--- .... ....
 A#3|..|A#1 2A.F ....|--- .... ....|--- .... ....
....|..|--- .... ....|--- .... ....|--- .... ....
....|..|--- .... ....|--- .... ....|--- .... ....
....|..|C-4 AF.F ....|G#4 3FFF ....|--- .... ....
 F-3|..|F-1 2A.F ....|--- .... ....|--- .... ....
....|..|--- .... ....|--- .... ....|--- .... ....
....|..|--- .... ....|--- .... ....|--- .... ....
....|..|C-4 LF.F ....|G#4 3FFF ....|--- .... ....
 F-4|..|F-2 2A.F ....|--- .... ....|--- .... ....
....|..|--- .... ....|--- .... ....|--- .... ....
....|..|--- .... ....|--- .... ....|--- .... ....
....|..|C-4 CF.F ....|G#4 3FFF ....|--- .... ....
 F-3|..|F-1 2A.F ....|--- .... ....|--- .... ....
....|..|--- .... ....|--- .... ....|--- .... ....
....|..|--- .... ....|--- .... ....|--- .... ....
....|..|C-4 LF.F ....|G-4 3FFF ....|--- .... ....
 F-4|..|F-2 2A.F ....|--- .... ....|--- .... ....
....|..|--- .... ....|--- .... ....|--- .... ....
....|..|--- .... ....|--- .... ....|--- .... ....
....|..|C-4 AF.F ....|A#4 3FF7 ....|--- .... ....
 F-3|..|F-1 2A.F ....|--- .... ....|--- .... ....
....|..|--- .... ....|--- .... ....|--- .... ....
....|..|--- .... ....|--- .... ....|--- .... ....
....|..|C-4 BF.F ....|F-4 3FFF ....|--- .... ....
 F-4|..|F-2 2A.F ....|--- .... ....|--- .... ....
....|..|--- .... ....|--- .... ....|--- .... ....
....|..|--- .... ....|--- .... ....|--- .... ....
....|..|C-4 CF.F ....|G#4 3FF7 ....|--- .... ....
 F-3|..|F-1 2A.F ....|--- .... ....|--- .... ....
....|..|--- .... ....|--- .... ....|--- .... ....
....|..|--- .... ....|--- .... ....|--- .... ....
....|..|C-4 LF.F ....|G#4 3FF7 ....|--- .... ....
 F-4|..|F-2 2A.F ....|--- .... ....|--- .... ....
....|..|--- .... ....|--- .... ....|--- .... ....
....|..|--- .... ....|--- .... ....|--- .... ....

[Pattern36]
....|..|C-4 AF.F ....|C-5 3FFF ....|--- .... ....
 F-3|..|F-1 2A.F ....|--- .... ....|--- .... ....
....|..|--- .... ....|--- .... ....|--- .... ....
....|..|--- .... ....|--- .... ....|--- .... ....
....|..|C-4 LF.F ....|G-4 3FF7 ....|--- .... ....
 F-4|..|F-2 2A.F ....|--- .... ....|--- .... ....
....|..|--- .... ....|--- .... ....|--- .... ....
....|..|--- .... ....|--- .... ....|--- .... ....
....|..|C-4 CF.F ....|C-5 3FFF ....|--- .... ....
 F-3|..|F-1 2A.F ....|--- .... ....|--- .... ....
....|..|--- .... ....|--- .... ....|--- .... ....
....|..|--- .... ....|--- .... ....|--- .... ....
....|..|C-4 LF.F ....|C-5 3FFF ....|--- .... ....
 F-4|..|F-2 2A.F ....|--- .... ....|--- .... ....
....|..|--- .... ....|--- .... ....|--- .... ....
....|..|--- .... ....|--- .... ....|--- .... ....
....|..|C-4 AF.F ....|A#4 3FFF ....|--- .... ....
 F-3|..|F-1 2A.F ....|--- .... ....|--- .... ....
....|..|--- .... ....|--- .... ....|--- .... ....
....|..|--- .... ....|--- .... ....|--- .... ....
....|..|C-4 LF.F ....|C-5 3FFA ....|--- .... ....
 F-4|..|F-2 2A.F ....|--- .... ....|--- .... ....
....|..|--- .... ....|--- .... ....|--- .... ....
....|..|--- .... ....|--- .... ....|--- .... ....
....|..|C-4 CF.F ....|A#4 3FFF ....|--- .... ....
 F-3|..|F-1 2A.F ....|--- .... ....|--- .... ....
....|..|--- .... ....|--- .... ....|--- .... ....
....|..|--- .... ....|--- .... ....|--- .... ....
....|..|C-4 LF.F ....|A#4 3FFF ....|--- .... ....
 F-4|..|F-2 2A.F ....|--- .... ....|--- .... ....
....|..|--- .... ....|--- .... ....|--- .... ....
....|..|--- .... ....|--- .... ....|--- .... ....
....|..|C-4 AF.F ....|D#5 3FFF ....|--- .... ....
 G#3|..|G#1 2A.F ....|--- .... ....|--- .... ....
....|..|--- .... ....|--- .... ....|--- .... ....
....|..|--- .... ....|--- .... ....|--- .... ....
....|..|C-4 LF.F ....|C-5 3FFF ....|--- .... ....
 G#4|..|G#2 2A.F ....|--- .... ....|--- .... ....
....|..|--- .... ....|--- .... ....|--- .... ....
....|..|--- .... ....|--- .... ....|--- .... ....
....|..|C-4 CF.F ....|C-5 3FFF ....|--- .... ....
 G#3|..|G#1 2A.F ....|--- .... ....|--- .... ....
....|..|--- .... ....|--- .... ....|--- .... ....
....|..|--- .... ....|--- .... ....|--- .... ....
....|..|C-4 LF.F ....|C-5 3FFF ....|--- .... ....
 G#4|..|G#2 2A.F ....|--- .... ....|--- .... ....
....|..|--- .... ....|--- .... ....|--- .... ....
....|..|--- .... ....|--- .... ....|--- .... ....
....|..|C-4 AF.F ....|C-5 3FFF ....|--- .... ....
 G#3|..|G#1 2A.F ....|--- .... ....|--- .... ....
....|..|--- .... ....|--- .... ....|--- .... ....
....|..|--- .... ....|--- .... ....|--- .... ....
....|..|C-4 LF.F ....|C-5 3FFF ....|--- .... ....
 G#4|..|G#2 2A.F ....|--- .... ....|--- .... ....
....|..|--- .... ....|--- .... ....|--- .... ....
....|..|--- .... ....|--- .... ....|--- .... ....
....|..|C-4 CF.F ....|C-5 3FFF ....|--- .... ....
 G#3|..|G#1 2A.F ....|--- .... ....|--- .... ....
....|..|--- .... ....|--- .... ....|--- .... ....
....|..|--- .... ....|--- .... ....|--- .... ....
....|..|C-4 LF.F ....|A#4 3FFF ....|--- .... ....
 G#4|..|G#2 2A.F ....|--- .... ....|--- .... ....
....|..|--- .... ....|--- .... ....|--- .... ....
....|..|R-- .... ....|--- .... ....|--- .... ....

[Pattern37]
....|..|C-4 AF.F ....|C-5 3FF7 ....|--- .... ....
 A#2|..|A#1 2A.F ....|--- .... ....|--- .... ....
....|..|--- .... ....|--- .... ....|--- .... ....
....|..|--- .... ....|--- .... ....|--- .... ....
....|..|C-4 LF.F ....|C-5 3FFF ....|--- .... ....
 A#3|..|A#1 2A.F ....|--- .... ....|--- .... ....
....|..|--- .... ....|--- .... ....|--- .... ....
....|..|--- .... ....|--- .... ....|--- .... ....
....|..|C-4 CF.F ....|C-5 3FFF ....|--- .... ....
 A#2|..|A#1 2A.F ....|--- .... ....|--- .... ....
....|..|--- .... ....|--- .... ....|--- .... ....
....|..|R-- .... ....|--- .... ....|--- .... ....
....|..|C-4 LF.F ....|C-5 3FFF ....|--- .... ....
 A#3|..|A#1 2A.F ....|--- .... ....|--- .... ....
....|..|--- .... ....|--- .... ....|--- .... ....
....|..|--- .... ....|--- .... ....|--- .... ....
....|..|C-4 AF.F ....|A#4 3FFF ....|--- .... ....
 A#2|..|A#1 2A.F ....|--- .... ....|--- .... ....
....|..|--- .... ....|--- .... ....|--- .... ....
....|..|--- .... ....|--- .... ....|--- .... ....
....|..|C-4 LF.F ....|A#4 3FF7 ....|--- .... ....
 A#3|..|A#1 2A.F ....|--- .... ....|--- .... ....
....|..|--- .... ....|--- .... ....|--- .... ....
....|..|R-- .... ....|--- .... ....|--- .... ....
....|..|C-4 CF.F ....|A#4 3FFF ....|--- .... ....
 A#2|..|A#1 2A.F ....|--- .... ....|--- .... ....
....|..|--- .... ....|--- .... ....|--- .... ....
....|..|--- .... ....|--- .... ....|--- .... ....
....|..|C-4 LF.F ....|A#4 3FFF ....|--- .... ....
 A#3|..|A#1 2A.F ....|--- .... ....|--- .... ....
....|..|--- .... ....|--- .... ....|--- .... ....
....|..|--- .... ....|--- .... ....|--- .... ....
....|..|C-4 AF.F ....|G#4 3FFF ....|--- .... ....
 F-3|..|F-1 2A.F ....|--- .... ....|--- .... ....
....|..|--- .... ....|--- .... ....|--- .... ....
....|..|--- .... ....|--- .... ....|--- .... ....
....|..|C-4 LF.F ....|G#4 3FFF ....|--- .... ....
 F-4|..|F-2 2A.F ....|--- .... ....|--- .... ....
....|..|--- .... ....|--- .... ....|--- .... ....
....|..|--- .... ....|--- .... ....|--- .... ....
....|..|C-4 CF.F ....|G#4 3FFF ....|--- .... ....
 F-3|..|F-1 2A.F ....|--- .... ....|--- .... ....
....|..|--- .... ....|--- .... ....|--- .... ....
....|..|--- .... ....|--- .... ....|--- .... ....
....|..|C-4 LF.F ....|G-4 3FFF ....|--- .... ....
 F-4|..|F-2 2A.F ....|--- .... ....|--- .... ....
....|..|--- .... ....|--- .... ....|--- .... ....
....|..|--- .... ....|--- .... ....|--- .... ....
....|..|C-4 AF.F ....|A#4 3FF7 ....|--- .... ....
 F-3|..|F-1 2A.F ....|--- .... ....|--- .... ....
....|..|--- .... ....|--- .... ....|--- .... ....
....|..|--- .... ....|--- .... ....|--- .... ....
....|..|C-4 BF.F ....|F-4 3FFF ....|--- .... ....
 F-4|..|F-2 2A.F ....|--- .... ....|--- .... ....
....|..|--- .... ....|--- .... ....|--- .... ....
....|..|--- .... ....|--- .... ....|--- .... ....
....|..|C-4 CF.F ....|G#4 3FF7 ....|--- .... ....
 F-3|..|F-1 2A.F ....|--- .... ....|--- .... ....
....|..|--- .... ....|--- .... ....|--- .... ....
....|..|--- .... ....|--- .... ....|--- .... ....
....|..|C-4 LF.F ....|G#4 3FF7 ....|--- .... ....
 F-4|..|F-2 2A.F ....|--- .... ....|--- .... ....
....|..|--- .... ....|--- .... ....|--- .... ....
....|..|--- .... ....|--- .... ....|--- .... ....

[Pattern38]
....|..|C-4 AF.F ....|C-5 3FFF ....|--- .... ....
 F-3|..|F-1 2A.F ....|--- .... ....|--- .... ....
....|..|--- .... ....|--- .... ....|--- .... ....
....|..|--- .... ....|--- .... ....|--- .... ....
....|..|C-4 LF.F ....|G-4 3FF7 ....|--- .... ....
 F-4|..|F-2 2A.F ....|--- .... ....|--- .... ....
....|..|--- .... ....|--- .... ....|--- .... ....
....|..|--- .... ....|--- .... ....|--- .... ....
....|..|C-4 CF.F ....|C-5 3FFF ....|--- .... ....
 F-3|..|F-1 2A.F ....|--- .... ....|--- .... ....
....|..|--- .... ....|--- .... ....|--- .... ....
....|..|--- .... ....|--- .... ....|--- .... ....
....|..|C-4 LF.F ....|C-5 3FFF ....|--- .... ....
 F-4|..|F-2 2A.F ....|--- .... ....|--- .... ....
....|..|--- .... ....|--- .... ....|--- .... ....
....|..|--- .... ....|--- .... ....|--- .... ....
....|..|C-4 AF.F ....|A#4 3FFF ....|--- .... ....
 F-3|..|F-1 2A.F ....|--- .... ....|--- .... ....
....|..|--- .... ....|--- .... ....|--- .... ....
....|..|--- .... ....|--- .... ....|--- .... ....
....|..|C-4 LF.F ....|C-5 3FFA ....|--- .... ....
 F-4|..|F-2 2A.F ....|--- .... ....|--- .... ....
....|..|--- .... ....|--- .... ....|--- .... ....
....|..|--- .... ....|--- .... ....|--- .... ....
....|..|C-4 CF.F ....|A#4 3FFF ....|--- .... ....
 F-3|..|F-1 2A.F ....|--- .... ....|--- .... ....
....|..|--- .... ....|--- .... ....|--- .... ....
....|..|--- .... ....|--- .... ....|--- .... ....
....|..|C-4 LF.F ....|A#4 3FFF ....|--- .... ....
 F-4|..|F-2 2A.F ....|--- .... ....|--- .... ....
....|..|--- .... ....|--- .... ....|--- .... ....
....|..|--- .... ....|--- .... ....|--- .... ....
....|..|C-4 AF.F ....|G#4 3FFF ....|--- .... ....
 G#3|..|G#1 2A.F ....|--- .... ....|--- .... ....
....|..|--- .... ....|--- .... ....|--- .... ....
....|..|--- .... ....|--- .... ....|--- .... ....
....|..|C-4 LF.F ....|G#4 3FFF ....|--- .... ....
 G#4|..|G#2 2A.F ....|--- .... ....|--- .... ....
....|..|--- .... ....|--- .... ....|--- .... ....
....|..|--- .... ....|--- .... ....|--- .... ....
....|..|C-4 CF.F ....|G#4 3FFF ....|--- .... ....
 G#3|..|G#1 2A.F ....|--- .... ....|--- .... ....
....|..|--- .... ....|--- .... ....|--- .... ....
....|..|--- .... ....|--- .... ....|--- .... ....
....|..|C-4 LF.F ....|G#4 3FFF ....|--- .... ....
 G#4|..|G#2 2A.F ....|--- .... ....|--- .... ....
....|..|--- .... ....|--- .... ....|--- .... ....
....|..|--- .... ....|--- .... ....|--- .... ....
....|..|C-4 AF.F ....|G-4 3FFF ....|--- .... ....
 G#3|..|G#1 2A.F ....|--- .... ....|--- .... ....
....|..|--- .... ....|--- .... ....|--- .... ....
....|..|--- .... ....|--- .... ....|--- .... ....
....|..|C-4 LF.F ....|D#4 3FFF ....|--- .... ....
 G#4|..|G#2 2A.F ....|--- .... ....|--- .... ....
....|..|--- .... ....|--- .... ....|--- .... ....
....|..|--- .... ....|--- .... ....|--- .... ....
....|..|C-4 CF.F ....|C-4 3FFF ....|--- .... ....
 G#3|..|G#1 2A.F ....|--- .... ....|--- .... ....
....|..|--- .... ....|--- .... ....|--- .... ....
....|..|--- .... ....|--- .... ....|--- .... ....
....|..|C-4 LF.F ....|F-4 3FFF ....|--- .... ....
 G#4|..|G#2 2A.F ....|--- .... ....|--- .... ....
....|..|--- .... ....|--- .... ....|--- .... ....
....|..|R-- .... ....|--- .... ....|--- .... ....

[Pattern42]
....|..|C-4 AF.F ....|F-4 3FFF ....|C-4 6F1F ....
 F-3|..|F-1 2A.F ....|--- .... ....|--- .... ....
....|..|--- .... ....|R-- .... ....|--- .... ....
....|..|--- .... ....|--- .... ....|--- .... ....
....|..|C-4 LF.F ....|F-4 3FFF ....|--- .... ....
 F-4|..|F-2 2A.F ....|--- .... ....|--- .... ....
....|..|--- .... ....|R-- .... ....|--- .... ....
....|..|--- .... ....|--- .... ....|--- .... ....
....|..|C-4 CF.F ....|F-4 3FFF ....|--- .... ....
 F-3|..|F-1 2A.F ....|--- .... ....|--- .... ....
....|..|--- .... ....|R-- .... ....|--- .... ....
....|..|--- .... ....|--- .... ....|--- .... ....
....|..|C-4 LF.F ....|F-4 3FFF ....|C-4 6F1A ....
 F-4|..|F-2 2A.F ....|--- .... ....|--- .... ....
....|..|--- .... ....|R-- .... ....|--- .... ....
....|..|--- .... ....|--- .... ....|--- .... ....
....|..|C-4 AF.F ....|F-4 3FFF ....|F-4 6F1F ....
 F-3|..|F-1 2A.F ....|--- .... ....|--- .... ....
....|..|--- .... ....|R-- .... ....|--- .... ....
....|..|--- .... ....|--- .... ....|--- .... ....
....|..|C-4 LF.F ....|F-4 3FFF ....|--- .... ....
 F-4|..|F-2 2A.F ....|--- .... ....|--- .... ....
....|..|--- .... ....|R-- .... ....|--- .... ....
....|..|--- .... ....|--- .... ....|--- .... ....
....|..|C-4 CF.F ....|F-4 3FFF ....|C-4 6F1F ....
 F-3|..|F-1 2A.F ....|--- .... ....|--- .... ....
....|..|--- .... ....|R-- .... ....|--- .... ....
....|..|--- .... ....|--- .... ....|--- .... ....
....|..|C-4 LF.F ....|F-4 3FFF ....|F-4 6F1A ....
 F-4|..|F-2 2A.F ....|--- .... ....|--- .... ....
....|..|--- .... ....|R-- .... ....|--- .... ....
....|..|--- .... ....|--- .... ....|--- .... ....
....|..|C-4 AF.F ....|F-4 3FFF ....|A#4 6F1F ....
 G#3|..|G#1 2A.F ....|--- .... ....|--- .... ....
....|..|--- .... ....|R-- .... ....|--- .... ....
....|..|--- .... ....|--- .... ....|--- .... ....
....|..|C-4 LF.F ....|D#4 3FFF ....|C-4 6F1A ....
 G#4|..|G#2 2A.F ....|--- .... ....|--- .... ....
....|..|--- .... ....|R-- .... ....|--- .... ....
....|..|--- .... ....|--- .... ....|--- .... ....
....|..|C-4 CF.F ....|D#4 3FFF ....|F-4 6F17 ....
 G#3|..|G#1 2A.F ....|--- .... ....|--- .... ....
....|..|--- .... ....|R-- .... ....|--- .... ....
....|..|--- .... ....|--- .... ....|--- .... ....
....|..|C-4 LF.F ....|D#4 3FFF ....|A#4 6F1A ....
 G#4|..|G#2 2A.F ....|--- .... ....|--- .... ....
....|..|--- .... ....|R-- .... ....|--- .... ....
....|..|--- .... ....|--- .... ....|--- .... ....
....|..|C-4 AF.F ....|G#4 3FFF ....|F-5 6F.F ....
 G#3|..|G#1 2A.F ....|--- .... ....|--- .... ....
....|..|--- .... ....|R-- .... ....|--- .... ....
....|..|--- .... ....|--- .... ....|--- .... ....
....|..|C-4 LF.F ....|G#4 3FFF ....|--- .... ....
 G#4|..|G#2 2A.F ....|--- .... ....|--- .... ....
....|..|--- .... ....|R-- .... ....|--- .... ....
....|..|--- .... ....|--- .... ....|--- .... ....
....|..|C-4 CF.F ....|G-4 3FFF ....|A#4 6F17 ....
 G#3|..|G#1 2A.F ....|--- .... ....|--- .... ....
....|..|--- .... ....|R-- .... ....|--- .... ....
....|..|--- .... ....|--- .... ....|--- .... ....
....|..|C-4 LF.F ....|G-4 3FFF ....|F-5 6F.A ....
 G#4|..|G#2 2A.F ....|--- .... ....|--- .... ....
....|..|--- .... ....|R-- .... ....|--- .... ....
....|..|R-- .... ....|--- .... ....|--- .... ....

[Pattern43]
....|..|C-4 AF.F ....|G-4 3FFF ....|C-4 6F1F ....
 A#2|..|A#1 2A.F ....|--- .... ....|--- .... ....
....|..|--- .... ....|R-- .... ....|--- .... ....
....|..|--- .... ....|--- .... ....|--- .... ....
....|..|C-4 LF.F ....|D#4 3FFF ....|--- .... ....
 A#3|..|A#1 2A.F ....|--- .... ....|--- .... ....
....|..|--- .... ....|R-- .... ....|--- .... ....
....|..|--- .... ....|--- .... ....|--- .... ....
....|..|C-4 CF.F ....|D#4 3FFF ....|F-5 6F.7 ....
 A#2|..|A#1 2A.F ....|--- .... ....|--- .... ....
....|..|--- .... ....|R-- .... ....|--- .... ....
....|..|R-- .... ....|--- .... ....|--- .... ....
....|..|C-4 LF.F ....|D#4 3FFF ....|C-4 6F1A ....
 A#3|..|A#1 2A.F ....|--- .... ....|--- .... ....
....|..|--- .... ....|R-- .... ....|--- .... ....
....|..|--- .... ....|--- .... ....|--- .... ....
....|..|C-4 AF.F ....|D#4 3FFF ....|F-4 6F1F ....
 A#2|..|A#1 2A.F ....|--- .... ....|--- .... ....
....|..|--- .... ....|R-- .... ....|--- .... ....
....|..|--- .... ....|--- .... ....|--- .... ....
....|..|C-4 LF.F ....|D#4 3FFF ....|--- .... ....
 A#3|..|A#1 2A.F ....|--- .... ....|--- .... ....
....|..|--- .... ....|R-- .... ....|--- .... ....
....|..|R-- .... ....|--- .... ....|--- .... ....
....|..|C-4 CF.F ....|D#4 3FFF ....|G#4 6F1F ....
 A#2|..|A#1 2A.F ....|--- .... ....|--- .... ....
....|..|--- .... ....|R-- .... ....|--- .... ....
....|..|--- .... ....|--- .... ....|--- .... ....
....|..|C-4 LF.F ....|F-4 3FFF ....|F-4 6F1A ....
 A#3|..|A#1 2A.F ....|--- .... ....|--- .... ....
....|..|--- .... ....|R-- .... ....|--- .... ....
....|..|--- .... ....|--- .... ....|--- .... ....
....|..|C-4 AF.F ....|F-4 3FFF ....|A#4 6F1F ....
 F-3|..|F-1 2A.F ....|--- .... ....|--- .... ....
....|..|--- .... ....|R-- .... ....|--- .... ....
....|..|--- .... ....|--- .... ....|--- .... ....
....|..|C-4 LF.F ....|C-4 3FFF ....|G#4 6F1A ....
 F-4|..|F-2 2A.F ....|--- .... ....|--- .... ....
....|..|--- .... ....|R-- .... ....|--- .... ....
....|..|--- .... ....|--- .... ....|--- .... ....
....|..|C-4 CF.F ....|C-4 3FFF ....|F-4 6F17 ....
 F-3|..|F-1 2A.F ....|--- .... ....|--- .... ....
....|..|--- .... ....|R-- .... ....|--- .... ....
....|..|--- .... ....|--- .... ....|--- .... ....
....|..|C-4 LF.F ....|D#4 3FF7 ....|A#4 6F1A ....
 F-4|..|F-2 2A.F ....|--- .... ....|--- .... ....
....|..|--- .... ....|R-- .... ....|--- .... ....
....|..|--- .... ....|--- .... ....|--- .... ....
....|..|C-4 AF.F ....|C-4 3FFF ....|G#4 6F17 ....
 F-3|..|F-1 2A.F ....|--- .... ....|--- .... ....
....|..|--- .... ....|R-- .... ....|--- .... ....
....|..|--- .... ....|--- .... ....|--- .... ....
....|..|C-4 BF.F ....|F-4 3FFF ....|--- .... ....
 F-4|..|F-2 2A.F ....|--- .... ....|--- .... ....
....|..|--- .... ....|R-- .... ....|--- .... ....
....|..|--- .... ....|--- .... ....|--- .... ....
....|..|C-4 CF.F ....|F-4 3FFF ....|A#4 6F17 ....
 F-3|..|F-1 2A.F ....|--- .... ....|--- .... ....
....|..|--- .... ....|R-- .... ....|--- .... ....
....|..|--- .... ....|--- .... ....|--- .... ....
....|..|C-4 LF.F ....|C-4 3FF7 ....|R-- .... ....
 F-4|..|F-2 2A.F ....|--- .... ....|--- .... ....
....|..|--- .... ....|--- .... ....|--- .... ....
....|..|--- .... ....|--- .... ....|--- .... ....

[Pattern44]
....|..|C-4 AF.F ....|F-4 3FFF ....|C-4 6F1F ....
 F-3|..|F-1 2A.F ....|--- .... ....|--- .... ....
....|..|--- .... ....|R-- .... ....|--- .... ....
....|..|--- .... ....|--- .... ....|--- .... ....
....|..|C-4 LF.F ....|F-4 3FFF ....|--- .... ....
 F-4|..|F-2 2A.F ....|--- .... ....|--- .... ....
....|..|--- .... ....|R-- .... ....|--- .... ....
....|..|--- .... ....|--- .... ....|--- .... ....
....|..|C-4 CF.F ....|F-4 3FFF ....|R-- .... ....
 F-3|..|F-1 2A.F ....|--- .... ....|--- .... ....
....|..|--- .... ....|R-- .... ....|--- .... ....
....|..|--- .... ....|--- .... ....|--- .... ....
....|..|C-4 LF.F ....|F-4 3FFF ....|C-4 6F1A ....
 F-4|..|F-2 2A.F ....|--- .... ....|--- .... ....
....|..|--- .... ....|R-- .... ....|--- .... ....
....|..|--- .... ....|--- .... ....|--- .... ....
....|..|C-4 AF.F ....|F-4 3FFF ....|F-4 6F1F ....
 F-3|..|F-1 2A.F ....|--- .... ....|--- .... ....
....|..|--- .... ....|R-- .... ....|--- .... ....
....|..|--- .... ....|--- .... ....|--- .... ....
....|..|C-4 LF.F ....|F-4 3FFF ....|--- .... ....
 F-4|..|F-2 2A.F ....|--- .... ....|--- .... ....
....|..|--- .... ....|R-- .... ....|--- .... ....
....|..|--- .... ....|--- .... ....|--- .... ....
....|..|C-4 CF.F ....|F-4 3FFF ....|C-4 6F1F ....
 F-3|..|F-1 2A.F ....|--- .... ....|--- .... ....
....|..|--- .... ....|R-- .... ....|--- .... ....
....|..|--- .... ....|--- .... ....|--- .... ....
....|..|C-4 LF.F ....|F-4 3FFF ....|F-4 6F1A ....
 F-4|..|F-2 2A.F ....|--- .... ....|--- .... ....
....|..|--- .... ....|R-- .... ....|--- .... ....
....|..|--- .... ....|--- .... ....|--- .... ....
....|..|C-4 AF.F ....|F-4 3FFF ....|A#4 6F1F ....
 G#3|..|G#1 2A.F ....|--- .... ....|--- .... ....
....|..|--- .... ....|R-- .... ....|--- .... ....
....|..|--- .... ....|--- .... ....|--- .... ....
....|..|C-4 LF.F ....|D#4 3FFF ....|C-4 6F1A ....
 G#4|..|G#2 2A.F ....|--- .... ....|--- .... ....
....|..|--- .... ....|R-- .... ....|--- .... ....
....|..|--- .... ....|--- .... ....|--- .... ....
....|..|C-4 CF.F ....|D#4 3FFF ....|F-4 6F17 ....
 G#3|..|G#1 2A.F ....|--- .... ....|--- .... ....
....|..|--- .... ....|R-- .... ....|--- .... ....
....|..|--- .... ....|--- .... ....|--- .... ....
....|..|C-4 LF.F ....|F-4 3FF7 ....|A#4 6F1A ....
 G#4|..|G#2 2A.F ....|--- .... ....|--- .... ....
....|..|--- .... ....|R-- .... ....|--- .... ....
....|..|--- .... ....|--- .... ....|--- .... ....
....|..|C-4 AF.F ....|F-4 3FF7 ....|F-5 6F.F ....
 G#3|..|G#1 2A.F ....|--- .... ....|--- .... ....
....|..|--- .... ....|R-- .... ....|--- .... ....
....|..|--- .... ....|--- .... ....|--- .... ....
....|..|C-4 LF.F ....|F-4 3FF7 ....|--- .... ....
 G#4|..|G#2 2A.F ....|--- .... ....|--- .... ....
....|..|--- .... ....|R-- .... ....|--- .... ....
....|..|--- .... ....|--- .... ....|--- .... ....
....|..|C-4 CF.F ....|F-4 3FF7 ....|A#4 6F17 ....
 G#3|..|G#1 2A.F ....|--- .... ....|--- .... ....
....|..|--- .... ....|R-- .... ....|--- .... ....
....|..|--- .... ....|--- .... ....|--- .... ....
....|..|C-4 LF.F ....|D#4 3FF7 ....|F-5 6F.A ....
 G#4|..|G#2 2A.F ....|--- .... ....|--- .... ....
....|..|--- .... ....|R-- .... ....|--- .... ....
....|..|R-- .... ....|--- .... ....|--- .... ....

[Pattern45]
....|..|C-4 AF.F ....|D#4 3FFF ....|C-4 6F1F ....
 A#2|..|A#1 2A.F ....|--- .... ....|--- .... ....
....|..|--- .... ....|R-- .... ....|--- .... ....
....|..|--- .... ....|--- .... ....|--- .... ....
....|..|C-4 LF.F ....|D#4 3FFF ....|--- .... ....
 A#3|..|A#1 2A.F ....|--- .... ....|--- .... ....
....|..|--- .... ....|R-- .... ....|--- .... ....
....|..|--- .... ....|--- .... ....|--- .... ....
....|..|C-4 CF.F ....|D#4 3FFF ....|F-5 6F.7 ....
 A#2|..|A#1 2A.F ....|--- .... ....|--- .... ....
....|..|--- .... ....|R-- .... ....|--- .... ....
....|..|R-- .... ....|--- .... ....|--- .... ....
....|..|C-4 LF.F ....|D#4 3FFF ....|C-4 6F1A ....
 A#3|..|A#1 2A.F ....|--- .... ....|--- .... ....
....|..|--- .... ....|R-- .... ....|--- .... ....
....|..|--- .... ....|--- .... ....|--- .... ....
....|..|C-4 AF.F ....|D#4 3FFF ....|F-4 6F1F ....
 A#2|..|A#1 2A.F ....|--- .... ....|--- .... ....
....|..|--- .... ....|R-- .... ....|--- .... ....
....|..|--- .... ....|--- .... ....|--- .... ....
....|..|C-4 LF.F ....|D#4 3FFF ....|--- .... ....
 A#3|..|A#1 2A.F ....|--- .... ....|--- .... ....
....|..|--- .... ....|R-- .... ....|--- .... ....
....|..|R-- .... ....|--- .... ....|--- .... ....
....|..|C-4 CF.F ....|D#4 3FFF ....|G#4 6F1F ....
 A#2|..|A#1 2A.F ....|--- .... ....|--- .... ....
....|..|--- .... ....|R-- .... ....|--- .... ....
....|..|--- .... ....|--- .... ....|--- .... ....
....|..|C-4 LF.F ....|F-4 3FFF ....|F-4 6F1A ....
 A#3|..|A#1 2A.F ....|--- .... ....|--- .... ....
....|..|--- .... ....|R-- .... ....|--- .... ....
....|..|--- .... ....|--- .... ....|--- .... ....
....|..|C-4 AF.F ....|F-4 3FFF ....|A#4 6F1F ....
 F-3|..|F-1 2A.F ....|--- .... ....|--- .... ....
....|..|--- .... ....|R-- .... ....|--- .... ....
....|..|--- .... ....|--- .... ....|--- .... ....
....|..|C-4 LF.F ....|C-4 3FFF ....|G#4 6F1A ....
 F-4|..|F-2 2A.F ....|--- .... ....|--- .... ....
....|..|--- .... ....|R-- .... ....|--- .... ....
....|..|--- .... ....|--- .... ....|--- .... ....
....|..|C-4 CF.F ....|C-4 3FFF ....|F-4 6F17 ....
 F-3|..|F-1 2A.F ....|--- .... ....|--- .... ....
....|..|--- .... ....|R-- .... ....|--- .... ....
....|..|--- .... ....|--- .... ....|--- .... ....
....|..|C-4 LF.F ....|D#4 3FF7 ....|A#4 6F1A ....
 F-4|..|F-2 2A.F ....|--- .... ....|--- .... ....
....|..|--- .... ....|R-- .... ....|--- .... ....
....|..|--- .... ....|--- .... ....|--- .... ....
....|..|C-4 AF.F ....|C-4 3FFF ....|G#4 6F17 ....
 F-3|..|F-1 2A.F ....|--- .... ....|--- .... ....
....|..|--- .... ....|R-- .... ....|--- .... ....
....|..|--- .... ....|--- .... ....|--- .... ....
....|..|C-4 BF.F ....|F-4 3FF7 ....|--- .... ....
 F-4|..|F-2 2A.F ....|--- .... ....|--- .... ....
....|..|--- .... ....|R-- .... ....|--- .... ....
....|..|--- .... ....|--- .... ....|--- .... ....
....|..|C-4 CF.F ....|F-4 3FF7 ....|A#4 6F17 ....
 F-3|..|F-1 2A.F ....|--- .... ....|--- .... ....
....|..|--- .... ....|--- .... ....|--- .... ....
....|..|--- .... ....|--- .... ....|--- .... ....
....|..|C-4 LF.F ....|F-4 3FFF ....|R-- .... ....
 F-4|..|F-2 2A.F ....|--- .... ....|--- .... ....
....|..|--- .... ....|--- .... ....|--- .... ....
....|..|--- .... ....|--- .... ....|--- .... ....

[Pattern46]
....|..|C-4 AF.F ....|F-4 3FFF ....|F-2 7F.F ....
 F-2|..|F-1 2A.F ....|--- .... ....|--- .... ....
....|..|--- .... ....|--- .... ....|--- .... ....
....|..|--- .... ....|--- .... ....|--- .... ....
....|..|C-4 LF.F ....|F-4 3FFF ....|F-3 7F1F ....
 F-3|..|F-1 2A.F ....|--- .... ....|--- .... ....
....|..|--- .... ....|F-4 3FFF ....|--- .... ....
....|..|--- .... ....|--- .... ....|--- .... ....
....|..|C-4 CF.F ....|F-4 3FFF ....|F-2 7F.F ....
 F-2|..|F-1 2A.F ....|--- .... ....|--- .... ....
....|..|--- .... ....|--- .... ....|--- .... ....
....|..|--- .... ....|--- .... ....|--- .... ....
....|..|C-4 LF.F ....|F-4 3FFF ....|F-3 7F1F ....
 F-3|..|F-1 2A.F ....|--- .... ....|--- .... ....
....|..|--- .... ....|F-4 3FFF ....|--- .... ....
....|..|--- .... ....|--- .... ....|--- .... ....
....|..|C-4 AF.F ....|F-4 3FFF ....|F-2 7F.F ....
 F-2|..|F-1 2A.F ....|--- .... ....|--- .... ....
....|..|--- .... ....|F-4 3FFA ....|--- .... ....
....|..|--- .... ....|--- .... ....|--- .... ....
....|..|C-4 LF.F ....|F-4 3FFF ....|F-3 7F1F ....
 F-3|..|F-1 2A.F ....|--- .... ....|--- .... ....
....|..|--- .... ....|--- .... ....|--- .... ....
....|..|--- .... ....|--- .... ....|--- .... ....
....|..|C-4 CF.F ....|F-4 3FFF ....|F-2 7F.F ....
 F-2|..|F-1 2A.F ....|--- .... ....|--- .... ....
....|..|--- .... ....|F-4 3FFA ....|--- .... ....
....|..|--- .... ....|--- .... ....|--- .... ....
....|..|C-4 LF.F ....|F-4 3FFF ....|F-3 7F1F ....
 F-3|..|F-1 2A.F ....|--- .... ....|--- .... ....
....|..|--- .... ....|F-4 3FFF ....|--- .... ....
....|..|R-- .... ....|--- .... ....|F-3 7F.F ....
....|..|C-4 AF.F ....|D#4 3FFF ....|G#2 7F.F ....
 G#2|..|G#1 2A.F ....|--- .... ....|--- .... ....
....|..|--- .... ....|--- .... ....|--- .... ....
....|..|--- .... ....|--- .... ....|--- .... ....
....|..|C-4 LF.F ....|D#4 3FFF ....|D#3 7F.F ....
 G#3|..|G#1 2A.F ....|--- .... ....|--- .... ....
....|..|--- .... ....|D#4 3FFF ....|--- .... ....
....|..|--- .... ....|--- .... ....|--- .... ....
....|..|C-4 CF.F ....|D#4 3FFF ....|G#3 7F.F ....
 G#2|..|G#1 2A.F ....|--- .... ....|--- .... ....
....|..|--- .... ....|F-4 3FFA ....|--- .... ....
....|..|R-- .... ....|--- .... ....|F-3 7F.A ....
....|..|C-4 LF.F ....|G#4 3FFF ....|D#3 7F.F ....
 G#3|..|G#1 2A.F ....|--- .... ....|--- .... ....
....|..|--- .... ....|--- .... ....|--- .... ....
....|..|--- .... ....|--- .... ....|--- .... ....
....|..|C-4 AF.F ....|G-4 3FFF ....|C-3 7F.F ....
 G#2|..|G#1 2A.F ....|--- .... ....|--- .... ....
....|..|--- .... ....|D#4 3FFA ....|--- .... ....
....|..|--- .... ....|--- .... ....|--- .... ....
....|..|C-4 BF.F ....|D#4 3FFF ....|D#3 7F.F ....
 G#3|..|G#1 2A.F ....|--- .... ....|--- .... ....
....|..|--- .... ....|F-4 3FF7 ....|--- .... ....
....|..|R-- .... ....|--- .... ....|F-3 7F.7 ....
....|..|C-4 CF.F ....|D#4 3FFF ....|G#3 7F.F ....
 G#2|..|G#1 2A.F ....|--- .... ....|--- .... ....
....|..|--- .... ....|--- .... ....|--- .... ....
....|..|--- .... ....|--- .... ....|--- .... ....
....|..|C-4 LF.F ....|D#4 3FFF ....|G#2 7F.F ....
 G#3|..|G#1 2A.F ....|--- .... ....|--- .... ....
....|..|--- .... ....|D#4 3FFF ....|--- .... ....
....|..|R-- .... ....|--- .... ....|--- .... ....

[Pattern47]
....|..|C-4 AF.F ....|D#4 3FFF ....|A#2 7F.F ....
 A#2|..|A#1 2A.F ....|--- .... ....|--- .... ....
....|..|--- .... ....|--- .... ....|--- .... ....
....|..|--- .... ....|--- .... ....|--- .... ....
....|..|C-4 LF.F ....|D#4 3FFF ....|F-3 7F.F ....
 A#3|..|A#1 2A.F ....|--- .... ....|--- .... ....
....|..|--- .... ....|D#4 3FFF ....|--- .... ....
....|..|--- .... ....|--- .... ....|--- .... ....
....|..|C-4 CF.F ....|D#4 3FFF ....|A#3 7F.F ....
 A#2|..|A#1 2A.F ....|--- .... ....|--- .... ....
....|..|--- .... ....|D#4 3FFA ....|--- .... ....
....|..|R-- .... ....|--- .... ....|--- .... ....
....|..|C-4 LF.F ....|D#4 3FFF ....|F-3 7F.F ....
 A#3|..|A#1 2A.F ....|--- .... ....|--- .... ....
....|..|--- .... ....|D#4 3FFF ....|--- .... ....
....|..|--- .... ....|--- .... ....|--- .... ....
....|..|C-4 AF.F ....|D#4 3FFF ....|D-4 7F.F ....
 A#2|..|A#1 2A.F ....|--- .... ....|--- .... ....
....|..|--- .... ....|D#4 3FFF ....|--- .... ....
....|..|--- .... ....|--- .... ....|--- .... ....
....|..|C-4 LF.F ....|D#4 3FFF ....|F-3 7F.F ....
 A#3|..|A#1 2A.F ....|--- .... ....|--- .... ....
....|..|--- .... ....|D#4 3FF7 ....|--- .... ....
....|..|R-- .... ....|--- .... ....|--- .... ....
....|..|C-4 CF.F ....|D#4 3FFF ....|G#2 7F.F ....
 A#2|..|A#1 2A.F ....|--- .... ....|--- .... ....
....|..|--- .... ....|D#4 3FFA ....|--- .... ....
....|..|--- .... ....|--- .... ....|--- .... ....
....|..|C-4 LF.F ....|D#4 3FFF ....|G-2 7F.F ....
 A#3|..|A#1 2A.F ....|--- .... ....|--- .... ....
....|..|--- .... ....|D#4 3FFF ....|--- .... ....
....|..|R-- .... ....|--- .... ....|--- .... ....
....|..|C-4 AF.F ....|D#4 3FFF ....|F-2 7F.F ....
 F-2|..|F-1 2A.F ....|--- .... ....|--- .... ....
....|..|--- .... ....|--- .... ....|--- .... ....
....|..|--- .... ....|--- .... ....|--- .... ....
....|..|C-4 LF.F ....|D#4 3FFF ....|C-3 7F.F ....
 F-3|..|F-1 2A.F ....|--- .... ....|--- .... ....
....|..|--- .... ....|D#4 3FFF ....|--- .... ....
....|..|--- .... ....|--- .... ....|--- .... ....
....|..|C-4 CF.F ....|D#4 3FFF ....|G#3 7F.F ....
 F-2|..|F-1 2A.F ....|--- .... ....|--- .... ....
....|..|--- .... ....|D#4 3FF7 ....|--- .... ....
....|..|R-- .... ....|--- .... ....|--- .... ....
....|..|C-4 LF.F ....|G#4 3FFF ....|C-3 7F.F ....
 F-3|..|F-1 2A.F ....|--- .... ....|--- .... ....
....|..|--- .... ....|--- .... ....|--- .... ....
....|..|--- .... ....|--- .... ....|--- .... ....
....|..|C-4 AF.F ....|G-4 3FFF ....|G#3 7F.F ....
 F-2|..|F-1 2A.F ....|--- .... ....|--- .... ....
....|..|--- .... ....|D#4 3FFA ....|--- .... ....
....|..|--- .... ....|--- .... ....|--- .... ....
....|..|C-4 BF.F ....|D#4 3FFF ....|C-3 7F.F ....
 F-3|..|F-1 2A.F ....|--- .... ....|--- .... ....
....|..|--- .... ....|D#4 3FF7 ....|--- .... ....
....|..|R-- .... ....|--- .... ....|--- .... ....
....|..|C-4 CF.F ....|F-4 3FFF ....|G#2 7F.F ....
 F-2|..|F-1 2A.F ....|--- .... ....|--- .... ....
....|..|--- .... ....|--- .... ....|--- .... ....
....|..|--- .... ....|--- .... ....|--- .... ....
....|..|C-4 LF.F ....|F-4 UFEF ....|G-2 7F.F ....
 F-3|..|F-1 2A.F ....|--- .... ....|--- .... ....
....|..|--- .... ....|D#4 3FF7 ....|--- .... ....
....|..|R-- .... ....|--- .... ....|--- .... ....

[Pattern48]
....|..|C-4 AF.F ....|F-4 3FFF ....|F-2 7F.F ....
 F-2|..|F-1 2A.F ....|--- .... ....|--- .... ....
....|..|--- .... ....|--- .... ....|--- .... ....
....|..|--- .... ....|--- .... ....|--- .... ....
....|..|C-4 LF.F ....|F-4 3FFF ....|F-3 7F1F ....
 F-3|..|F-1 2A.F ....|--- .... ....|--- .... ....
....|..|--- .... ....|F-4 3FFF ....|--- .... ....
....|..|--- .... ....|--- .... ....|--- .... ....
....|..|C-4 CF.F ....|F-4 3FFF ....|F-2 7F.F ....
 F-2|..|F-1 2A.F ....|--- .... ....|--- .... ....
....|..|--- .... ....|--- .... ....|--- .... ....
....|..|R-- .... ....|--- .... ....|--- .... ....
....|..|C-4 LF.F ....|F-4 3FFF ....|F-3 7F1F ....
 F-3|..|F-1 2A.F ....|--- .... ....|--- .... ....
....|..|--- .... ....|F-4 3FFF ....|--- .... ....
....|..|--- .... ....|--- .... ....|--- .... ....
....|..|C-4 AF.F ....|F-4 3FFF ....|F-2 7F.F ....
 F-2|..|F-1 2A.F ....|--- .... ....|--- .... ....
....|..|--- .... ....|F-4 3FFA ....|--- .... ....
....|..|--- .... ....|--- .... ....|--- .... ....
....|..|C-4 LF.F ....|F-4 3FFF ....|F-3 7F1F ....
 F-3|..|F-1 2A.F ....|--- .... ....|--- .... ....
....|..|--- .... ....|--- .... ....|--- .... ....
....|..|R-- .... ....|--- .... ....|--- .... ....
....|..|C-4 CF.F ....|F-4 3FFF ....|F-2 7F.F ....
 F-2|..|F-1 2A.F ....|--- .... ....|--- .... ....
....|..|--- .... ....|F-4 3FFA ....|--- .... ....
....|..|--- .... ....|--- .... ....|--- .... ....
....|..|C-4 LF.F ....|F-4 3FFF ....|F-3 7F1F ....
 F-3|..|F-1 2A.F ....|--- .... ....|--- .... ....
....|..|--- .... ....|F-4 3FFF ....|--- .... ....
....|..|R-- .... ....|--- .... ....|F-3 7F.F ....
....|..|C-4 AF.F ....|D#4 3FFF ....|G#2 7F.F ....
 G#2|..|G#1 2A.F ....|--- .... ....|--- .... ....
....|..|--- .... ....|--- .... ....|--- .... ....
....|..|--- .... ....|--- .... ....|--- .... ....
....|..|C-4 LF.F ....|D#4 3FFF ....|D#3 7F.F ....
 G#3|..|G#1 2A.F ....|--- .... ....|--- .... ....
....|..|--- .... ....|D#4 3FFF ....|--- .... ....
....|..|--- .... ....|--- .... ....|--- .... ....
....|..|C-4 CF.F ....|D#4 3FFF ....|G#3 7F.F ....
 G#2|..|G#1 2A.F ....|--- .... ....|--- .... ....
....|..|--- .... ....|F-4 3FFA ....|--- .... ....
....|..|R-- .... ....|--- .... ....|F-3 7F.A ....
....|..|C-4 LF.F ....|G#4 3FFF ....|D#3 7F.F ....
 G#3|..|G#1 2A.F ....|--- .... ....|--- .... ....
....|..|--- .... ....|--- .... ....|--- .... ....
....|..|--- .... ....|--- .... ....|--- .... ....
....|..|C-4 AF.F ....|G-4 3FFF ....|C-3 7F.F ....
 G#2|..|G#1 2A.F ....|--- .... ....|--- .... ....
....|..|--- .... ....|D#4 3FFA ....|--- .... ....
....|..|--- .... ....|--- .... ....|--- .... ....
....|..|C-4 BF.F ....|D#4 3FFF ....|D#3 7F.F ....
 G#3|..|G#1 2A.F ....|--- .... ....|--- .... ....
....|..|--- .... ....|F-4 3FF7 ....|--- .... ....
....|..|R-- .... ....|--- .... ....|F-3 7F.7 ....
....|..|C-4 CF.F ....|D#4 3FFF ....|G#3 7F.F ....
 G#2|..|G#1 2A.F ....|--- .... ....|--- .... ....
....|..|--- .... ....|--- .... ....|--- .... ....
....|..|--- .... ....|--- .... ....|--- .... ....
....|..|C-4 LF.F ....|D#4 3FFF ....|G#2 7F.F ....
 G#3|..|G#1 2A.F ....|--- .... ....|--- .... ....
....|..|--- .... ....|D#4 3FFF ....|--- .... ....
....|..|R-- .... ....|--- .... ....|--- .... ....

[Pattern49]
....|..|C-4 AF.F ....|D#4 3FFF ....|A#2 7F.F ....
 A#2|..|A#1 2A.F ....|--- .... ....|--- .... ....
....|..|--- .... ....|--- .... ....|--- .... ....
....|..|--- .... ....|--- .... ....|--- .... ....
....|..|C-4 LF.F ....|D#4 3FFF ....|F-3 7F.F ....
 A#3|..|A#1 2A.F ....|--- .... ....|--- .... ....
....|..|--- .... ....|D#4 3FFF ....|--- .... ....
....|..|--- .... ....|--- .... ....|--- .... ....
....|..|C-4 CF.F ....|D#4 3FFF ....|A#3 7F.F ....
 A#2|..|A#1 2A.F ....|--- .... ....|--- .... ....
....|..|--- .... ....|D#4 3FFA ....|--- .... ....
....|..|R-- .... ....|--- .... ....|--- .... ....
....|..|C-4 LF.F ....|D#4 3FFF ....|F-3 7F.F ....
 A#3|..|A#1 2A.F ....|--- .... ....|--- .... ....
....|..|--- .... ....|D#4 3FFF ....|--- .... ....
....|..|--- .... ....|--- .... ....|--- .... ....
....|..|C-4 AF.F ....|D#4 3FFF ....|D-4 7F.F ....
 A#2|..|A#1 2A.F ....|--- .... ....|--- .... ....
....|..|--- .... ....|D#4 3FFF ....|--- .... ....
....|..|--- .... ....|--- .... ....|--- .... ....
....|..|C-4 LF.F ....|D#4 3FFF ....|F-3 7F.F ....
 A#3|..|A#1 2A.F ....|--- .... ....|--- .... ....
....|..|--- .... ....|D#4 3FF7 ....|--- .... ....
....|..|R-- .... ....|--- .... ....|--- .... ....
....|..|C-4 CF.F ....|D#4 3FFF ....|G#2 7F.F ....
 A#2|..|A#1 2A.F ....|--- .... ....|--- .... ....
....|..|--- .... ....|D#4 3FFA ....|--- .... ....
....|..|--- .... ....|--- .... ....|--- .... ....
....|..|C-4 LF.F ....|D#4 3FFF ....|G-2 7F.F ....
 A#3|..|A#1 2A.F ....|--- .... ....|--- .... ....
....|..|--- .... ....|D#4 3FFF ....|--- .... ....
....|..|R-- .... ....|--- .... ....|--- .... ....
....|..|C-4 AF.F ....|D#4 3FFF ....|F-2 7F.F ....
 F-2|..|F-1 2A.F ....|--- .... ....|--- .... ....
....|..|--- .... ....|--- .... ....|--- .... ....
....|..|--- .... ....|--- .... ....|--- .... ....
....|..|C-4 LF.F ....|D#4 3FFF ....|C-3 7F.F ....
 F-3|..|F-1 2A.F ....|--- .... ....|--- .... ....
....|..|--- .... ....|D#4 3FFF ....|--- .... ....
....|..|--- .... ....|--- .... ....|--- .... ....
....|..|C-4 CF.F ....|D#4 3FFF ....|G#3 7F.F ....
 F-2|..|F-1 2A.F ....|--- .... ....|--- .... ....
....|..|--- .... ....|D#4 3FF7 ....|--- .... ....
....|..|R-- .... ....|--- .... ....|--- .... ....
....|..|C-4 LF.F ....|G#4 3FFF ....|F-3 7F.F ....
 F-3|..|F-1 2A.F ....|--- .... ....|--- .... ....
....|..|--- .... ....|--- .... ....|--- .... ....
....|..|--- .... ....|--- .... ....|--- .... ....
....|..|C-4 AF.F ....|G-4 3FFF ....|C-3 7F.F ....
 F-2|..|F-1 2A.F ....|--- .... ....|--- .... ....
....|..|--- .... ....|D#4 3FFA ....|--- .... ....
....|..|--- .... ....|--- .... ....|--- .... ....
....|..|C-4 BF.F ....|D#4 3FFF ....|G#3 7F.F ....
 F-3|..|F-1 2A.F ....|--- .... ....|--- .... ....
....|..|--- .... ....|D#4 3FF7 ....|--- .... ....
....|..|R-- .... ....|--- .... ....|--- .... ....
....|..|C-4 CF.F ....|F-4 3FFF ....|F-2 7F.F ....
 F-2|..|F-1 2A.F ....|--- .... ....|--- .... ....
....|..|--- .... ....|--- .... ....|--- .... ....
....|..|--- .... ....|--- .... ....|--- .... ....
....|..|C-4 LF.F ....|F-4 UFEF ....|C-3 7F.F ....
 F-3|..|F-1 2A.F ....|--- .... ....|--- .... ....
....|..|--- .... ....|D#4 3FF7 ....|--- .... ....
....|..|R-- .... ....|--- .... ....|--- .... ....

[Pattern50]
....|..|C-4 AF.F ....|D#4 3FF7 ....|G#3 7F.7 ....
 C#3|..|C#1 2A.F ....|--- .... ....|--- .... ....
....|..|--- .... ....|--- .... ....|--- .... ....
....|..|--- .... ....|--- .... ....|--- .... ....
....|..|C-4 LF.F ....|G#4 3FF7 ....|F-3 7F.7 ....
 C#4|..|C#2 2A.F ....|--- .... ....|--- .... ....
....|..|--- .... ....|--- .... ....|--- .... ....
....|..|--- .... ....|--- .... ....|--- .... ....
....|..|C-4 CF.F ....|G-4 3FF7 ....|C-3 7F.7 ....
 C#3|..|C#1 2A.F ....|--- .... ....|--- .... ....
....|..|--- .... ....|--- .... ....|--- .... ....
....|..|R-- .... ....|--- .... ....|--- .... ....
....|..|C-4 LF.F ....|D#4 3FFF ....|G#3 7F.7 ....
 C#4|..|C#2 2A.F ....|--- .... ....|--- .... ....
....|..|--- .... ....|--- .... ....|--- .... ....
....|..|--- .... ....|--- .... ....|--- .... ....
....|..|C-4 AF.F ....|G#4 3FFF ....|F-2 7F.7 ....
 C#3|..|C#1 2A.F ....|--- .... ....|--- .... ....
....|..|--- .... ....|--- .... ....|--- .... ....
....|..|--- .... ....|--- .... ....|--- .... ....
....|..|C-4 LF.F ....|D#4 3FFF ....|C-3 7F.7 ....
 C#4|..|C#2 2A.F ....|--- .... ....|--- .... ....
....|..|--- .... ....|--- .... ....|--- .... ....
....|..|R-- .... ....|--- .... ....|--- .... ....
....|..|C-4 CF.F ....|G#3 3FFF ....|R-- .... ....
 C#3|..|C#1 2A.F ....|--- .... ....|--- .... ....
....|..|--- .... ....|--- .... ....|--- .... ....
....|..|--- .... ....|--- .... ....|--- .... ....
....|..|C-4 LF.F ....|G#4 3FFA ....|--- .... ....
 C#4|..|C#2 2A.F ....|--- .... ....|--- .... ....
....|..|--- .... ....|--- .... ....|--- .... ....
....|..|R-- .... ....|--- .... ....|--- .... ....
....|..|C-4 AF.F ....|D#4 3FFA ....|--- .... ....
 G#2|..|G#1 2A.F ....|--- .... ....|--- .... ....
....|..|--- .... ....|--- .... ....|--- .... ....
....|..|--- .... ....|--- .... ....|--- .... ....
....|..|C-4 LF.F ....|G#3 3FFF ....|--- .... ....
 G#3|..|G#1 2A.F ....|--- .... ....|--- .... ....
....|..|--- .... ....|R-- .... ....|--- .... ....
....|..|--- .... ....|--- .... ....|--- .... ....
....|..|C-4 CF.F ....|G#3 3FFF ....|--- .... ....
 G#2|..|G#1 2A.F ....|--- .... ....|--- .... ....
....|..|--- .... ....|R-- .... ....|--- .... ....
....|..|R-- .... ....|--- .... ....|--- .... ....
....|..|C-4 LF.F ....|D#4 3FFF ....|--- .... ....
 G#3|..|G#1 2A.F ....|--- .... ....|--- .... ....
....|..|--- .... ....|--- .... ....|--- .... ....
....|..|--- .... ....|--- .... ....|--- .... ....
....|..|C-4 AF.F ....|G#4 3FFF ....|--- .... ....
 G#2|..|G#1 2A.F ....|--- .... ....|--- .... ....
....|..|--- .... ....|R-- .... ....|--- .... ....
....|..|--- .... ....|--- .... ....|--- .... ....
....|..|C-4 BF.F ....|D#4 3FFF ....|--- .... ....
 G#3|..|G#1 2A.F ....|--- .... ....|--- .... ....
....|..|--- .... ....|R-- .... ....|--- .... ....
....|..|R-- .... ....|--- .... ....|--- .... ....
....|..|C-4 CF.F ....|G#3 3FFF ....|--- .... ....
 G#2|..|G#1 2A.F ....|--- .... ....|--- .... ....
....|..|--- .... ....|--- .... ....|--- .... ....
....|..|--- .... ....|--- .... ....|--- .... ....
....|..|C-4 LF.F ....|D#4 3FFF ....|--- .... ....
 G#3|..|G#1 2A.F ....|--- .... ....|--- .... ....
....|..|--- .... ....|D#4 3FFF ....|--- .... ....
....|..|R-- .... ....|--- .... ....|--- .... ....

[Pattern51]
....|..|C-4 AF.F ....|D#4 3FFF ....|--- .... ....
 A#2|..|A#1 2A.F ....|--- .... ....|--- .... ....
....|..|--- .... ....|R-- .... ....|--- .... ....
....|..|--- .... ....|--- .... ....|--- .... ....
....|..|C-4 LF.F ....|D#4 3FFF ....|--- .... ....
 A#3|..|A#1 2A.F ....|--- .... ....|--- .... ....
....|..|--- .... ....|D#4 3FFF ....|--- .... ....
....|..|--- .... ....|--- .... ....|--- .... ....
....|..|C-4 CF.F ....|D#4 3FFF ....|--- .... ....
 A#2|..|A#1 2A.F ....|--- .... ....|--- .... ....
....|..|--- .... ....|D#4 3FFA ....|--- .... ....
....|..|R-- .... ....|--- .... ....|--- .... ....
....|..|C-4 LF.F ....|D#4 3FFF ....|--- .... ....
 A#3|..|A#1 2A.F ....|--- .... ....|--- .... ....
....|..|--- .... ....|D#4 3FFF ....|--- .... ....
....|..|--- .... ....|--- .... ....|--- .... ....
....|..|C-4 AF.F ....|D#4 3FFF ....|--- .... ....
 A#2|..|A#1 2A.F ....|--- .... ....|--- .... ....
....|..|--- .... ....|D#4 3FFF ....|--- .... ....
....|..|--- .... ....|--- .... ....|--- .... ....
....|..|C-4 LF.F ....|D#4 3FFF ....|--- .... ....
 A#3|..|A#1 2A.F ....|--- .... ....|--- .... ....
....|..|--- .... ....|D#4 3FF7 ....|--- .... ....
....|..|R-- .... ....|--- .... ....|--- .... ....
....|..|C-4 CF.F ....|D#4 3FFF ....|--- .... ....
 A#2|..|A#1 2A.F ....|--- .... ....|--- .... ....
....|..|--- .... ....|D#4 3FFA ....|--- .... ....
....|..|--- .... ....|--- .... ....|--- .... ....
....|..|C-4 LF.F ....|D#4 3FFF ....|--- .... ....
 A#3|..|A#1 2A.F ....|--- .... ....|--- .... ....
....|..|--- .... ....|D#4 3FFF ....|--- .... ....
....|..|R-- .... ....|--- .... ....|--- .... ....
....|..|C-4 AF.F ....|D#4 3FFF ....|--- .... ....
 F-2|..|F-1 2A.F ....|--- .... ....|--- .... ....
....|..|--- .... ....|--- .... ....|--- .... ....
....|..|--- .... ....|--- .... ....|--- .... ....
....|..|C-4 LF.F ....|D#4 3FFF ....|--- .... ....
 F-3|..|F-1 2A.F ....|--- .... ....|--- .... ....
....|..|--- .... ....|D#4 3FFF ....|--- .... ....
....|..|--- .... ....|--- .... ....|--- .... ....
....|..|C-4 CF.F ....|D#4 3FFF ....|--- .... ....
 F-2|..|F-1 2A.F ....|--- .... ....|--- .... ....
....|..|--- .... ....|D#4 3FF7 ....|--- .... ....
....|..|R-- .... ....|--- .... ....|--- .... ....
....|..|C-4 LF.F ....|G#4 3FFF ....|--- .... ....
 F-3|..|F-1 2A.F ....|--- .... ....|--- .... ....
....|..|--- .... ....|--- .... ....|--- .... ....
....|..|--- .... ....|--- .... ....|--- .... ....
....|..|C-4 AF.F ....|G-4 3FFF ....|--- .... ....
 F-2|..|F-1 2A.F ....|--- .... ....|--- .... ....
....|..|--- .... ....|D#4 3FFA ....|--- .... ....
....|..|--- .... ....|--- .... ....|--- .... ....
....|..|C-4 BF.F ....|D#4 3FFF ....|--- .... ....
 F-3|..|F-1 2A.F ....|--- .... ....|--- .... ....
....|..|--- .... ....|D#4 3FF7 ....|--- .... ....
....|..|R-- .... ....|--- .... ....|--- .... ....
....|..|C-4 CF.F ....|F-4 3FFF ....|--- .... ....
 F-2|..|F-1 2A.F ....|--- .... ....|--- .... ....
....|..|--- .... ....|--- .... ....|--- .... ....
....|..|--- .... ....|--- .... ....|--- .... ....
....|..|C-4 LF.F ....|D#4 3FF7 ....|--- .... ....
 F-3|..|F-1 2A.F ....|--- .... ....|--- .... ....
....|..|--- .... ....|D#4 3FF7 ....|--- .... ....
....|..|R-- .... ....|--- .... ....|--- .... ....

[Pattern52]
....|..|C-4 AF.F ....|D#4 3FF7 ....|--- .... ....
 C#3|..|C#1 2A.F ....|--- .... ....|--- .... ....
....|..|--- .... ....|--- .... ....|--- .... ....
....|..|--- .... ....|--- .... ....|--- .... ....
....|..|C-4 LF.F ....|G#4 3FF7 ....|--- .... ....
 C#4|..|C#2 2A.F ....|--- .... ....|--- .... ....
....|..|--- .... ....|--- .... ....|--- .... ....
....|..|--- .... ....|--- .... ....|--- .... ....
....|..|C-4 CF.F ....|G-4 3FF7 ....|--- .... ....
 C#3|..|C#1 2A.F ....|--- .... ....|--- .... ....
....|..|--- .... ....|--- .... ....|--- .... ....
....|..|R-- .... ....|--- .... ....|--- .... ....
....|..|C-4 LF.F ....|D#4 3FFF ....|--- .... ....
 C#4|..|C#2 2A.F ....|--- .... ....|--- .... ....
....|..|--- .... ....|--- .... ....|--- .... ....
....|..|--- .... ....|--- .... ....|--- .... ....
....|..|C-4 AF.F ....|G#4 3FFF ....|--- .... ....
 C#3|..|C#1 2A.F ....|--- .... ....|--- .... ....
....|..|--- .... ....|--- .... ....|--- .... ....
....|..|--- .... ....|--- .... ....|--- .... ....
....|..|C-4 LF.F ....|D#4 3FFF ....|--- .... ....
 C#4|..|C#2 2A.F ....|--- .... ....|--- .... ....
....|..|--- .... ....|--- .... ....|--- .... ....
....|..|R-- .... ....|--- .... ....|--- .... ....
....|..|C-4 CF.F ....|G#3 3FFF ....|--- .... ....
 C#3|..|C#1 2A.F ....|--- .... ....|--- .... ....
....|..|--- .... ....|--- .... ....|--- .... ....
....|..|--- .... ....|--- .... ....|--- .... ....
....|..|C-4 LF.F ....|G#4 3FFA ....|--- .... ....
 C#4|..|C#2 2A.F ....|--- .... ....|--- .... ....
....|..|--- .... ....|--- .... ....|--- .... ....
....|..|R-- .... ....|--- .... ....|--- .... ....
....|..|C-4 AF.F ....|D#4 3FFA ....|--- .... ....
 G#2|..|G#1 2A.F ....|--- .... ....|--- .... ....
....|..|--- .... ....|--- .... ....|--- .... ....
....|..|--- .... ....|--- .... ....|--- .... ....
....|..|C-4 LF.F ....|D#4 3FFF ....|--- .... ....
 G#3|..|G#1 2A.F ....|--- .... ....|--- .... ....
....|..|--- .... ....|R-- .... ....|--- .... ....
....|..|--- .... ....|--- .... ....|--- .... ....
....|..|C-4 CF.F ....|D#4 3FFF ....|--- .... ....
 G#2|..|G#1 2A.F ....|--- .... ....|--- .... ....
....|..|--- .... ....|R-- .... ....|--- .... ....
....|..|R-- .... ....|--- .... ....|--- .... ....
....|..|C-4 LF.F ....|D#4 3FFF ....|--- .... ....
 G#3|..|G#1 2A.F ....|--- .... ....|--- .... ....
....|..|--- .... ....|--- .... ....|--- .... ....
....|..|--- .... ....|--- .... ....|--- .... ....
....|..|C-4 AF.F ....|G#4 3FFF ....|--- .... ....
 G#2|..|G#1 2A.F ....|--- .... ....|--- .... ....
....|..|--- .... ....|R-- .... ....|--- .... ....
....|..|--- .... ....|--- .... ....|--- .... ....
....|..|C-4 BF.F ....|D#4 3FFF ....|--- .... ....
 G#3|..|G#1 2A.F ....|--- .... ....|--- .... ....
....|..|--- .... ....|R-- .... ....|--- .... ....
....|..|R-- .... ....|--- .... ....|--- .... ....
....|..|C-4 CF.F ....|G#3 3FFF ....|--- .... ....
 G#2|..|G#1 2A.F ....|--- .... ....|--- .... ....
....|..|--- .... ....|--- .... ....|--- .... ....
....|..|--- .... ....|--- .... ....|--- .... ....
....|..|C-4 LF.F ....|D#4 3FFF ....|--- .... ....
 G#3|..|G#1 2A.F ....|--- .... ....|--- .... ....
....|..|--- .... ....|D#4 3FFF ....|--- .... ....
....|..|R-- .... ....|--- .... ....|--- .... ....

[Pattern53]
....|..|C-4 AF.F ....|D#4 3FFF ....|--- .... ....
 A#2|..|A#1 2A.F ....|--- .... ....|--- .... ....
....|..|--- .... ....|R-- .... ....|--- .... ....
....|..|--- .... ....|--- .... ....|--- .... ....
....|..|C-4 LF.F ....|D#4 3FFF ....|--- .... ....
 A#3|..|A#1 2A.F ....|--- .... ....|--- .... ....
....|..|--- .... ....|D#4 3FFF ....|--- .... ....
....|..|--- .... ....|--- .... ....|--- .... ....
....|..|C-4 CF.F ....|D#4 3FFF ....|--- .... ....
 A#2|..|A#1 2A.F ....|--- .... ....|--- .... ....
....|..|--- .... ....|D#4 3FFA ....|--- .... ....
....|..|R-- .... ....|--- .... ....|--- .... ....
....|..|C-4 LF.F ....|D#4 3FFF ....|--- .... ....
 A#3|..|A#1 2A.F ....|--- .... ....|--- .... ....
....|..|--- .... ....|D#4 3FFF ....|--- .... ....
....|..|--- .... ....|--- .... ....|--- .... ....
....|..|C-4 AF.F ....|D#4 3FFF ....|--- .... ....
 A#2|..|A#1 2A.F ....|--- .... ....|--- .... ....
....|..|--- .... ....|D#4 3FFF ....|--- .... ....
....|..|--- .... ....|--- .... ....|--- .... ....
....|..|C-4 LF.F ....|D#4 3FFF ....|--- .... ....
 A#3|..|A#1 2A.F ....|--- .... ....|--- .... ....
....|..|--- .... ....|D#4 3FF7 ....|--- .... ....
....|..|R-- .... ....|--- .... ....|--- .... ....
....|..|C-4 CF.F ....|D#4 3FFF ....|--- .... ....
 A#2|..|A#1 2A.F ....|--- .... ....|--- .... ....
....|..|--- .... ....|D#4 3FFA ....|--- .... ....
....|..|--- .... ....|--- .... ....|--- .... ....
....|..|C-4 LF.F ....|D#4 3FFF ....|--- .... ....
 A#3|..|A#1 2A.F ....|--- .... ....|--- .... ....
....|..|--- .... ....|D#4 3FFF ....|--- .... ....
....|..|R-- .... ....|--- .... ....|--- .... ....
....|..|C-4 AF.F ....|D#4 3FFF ....|--- .... ....
 F-2|..|F-1 2A.F ....|--- .... ....|--- .... ....
....|..|--- .... ....|--- .... ....|--- .... ....
....|..|--- .... ....|--- .... ....|--- .... ....
....|..|C-4 LF.7 ....|D#4 3FFF ....|--- .... ....
....|..|A#1 2F.7 ....|--- .... ....|--- .... ....
....|..|--- .... ....|D#4 3FFF ....|--- .... ....
....|..|--- .... ....|--- .... ....|--- .... ....
....|..|C-4 AF.7 ....|D#4 3FFF ....|--- .... ....
....|..|A#1 2F.7 ....|--- .... ....|--- .... ....
....|..|--- .... ....|D#4 3FF7 ....|--- .... ....
....|..|R-- .... ....|--- .... ....|--- .... ....
....|..|C-4 LF.7 ....|G#4 3FFF ....|--- .... ....
....|..|A#1 2F.7 ....|--- .... ....|--- .... ....
....|..|--- .... ....|--- .... ....|--- .... ....
....|..|--- .... ....|--- .... ....|--- .... ....
....|..|C-4 CF.7 ....|G-4 3FFF ....|--- .... ....
....|..|A#1 2F.7 ....|--- .... ....|--- .... ....
....|..|--- .... ....|D#4 3FFA ....|--- .... ....
....|..|--- .... ....|--- .... ....|--- .... ....
....|..|C-4 LF.7 ....|D#4 3FFF ....|--- .... ....
....|..|A#1 2F.7 ....|--- .... ....|--- .... ....
....|..|--- .... ....|D#4 3FF7 ....|--- .... ....
....|..|R-- .... ....|--- .... ....|--- .... ....
....|..|C-4 AF.7 ....|F-4 3FFF ....|--- .... ....
....|..|F-1 2F.7 ....|--- .... ....|--- .... ....
....|..|--- .... ....|--- .... ....|--- .... ....
....|..|--- .... ....|--- .... ....|--- .... ....
....|..|R-- .... ....|D#4 3FF7 ....|--- .... ....
....|..|--- .... ....|--- .... ....|--- .... ....
....|..|--- .... ....|D#4 3FF7 ....|--- .... ....
....|..|--- .... ....|--- .... ....|--- .... ....

[Pattern54]
....|..|C-5 OFCF ....|C-5 UFEF ....|F-2 7F.F ....
....|..|--- .... ....|--- .... ....|--- .... ....
....|..|--- .... ....|--- .... ....|--- .... ....
....|..|--- .... ....|--- .... ....|--- .... ....
....|..|--- .... ....|G#4 3FF7 ....|F-3 7F1F ....
....|..|--- .... ....|--- .... ....|--- .... ....
....|..|--- .... ....|--- .... ....|--- .... ....
....|..|--- .... ....|--- .... ....|--- .... ....
....|..|A#4 OFCF ....|A#4 UFEF ....|F-2 7F.F ....
....|..|--- .... ....|--- .... ....|--- .... ....
....|..|--- .... ....|--- .... ....|--- .... ....
....|..|--- .... ....|--- .... ....|--- .... ....
....|..|C-5 OFCA ....|D#4 3FF7 ....|F-3 7F1F ....
....|..|--- .... ....|--- .... ....|--- .... ....
....|..|--- .... ....|--- .... ....|--- .... ....
....|..|--- .... ....|--- .... ....|--- .... ....
....|..|G#4 OFCF ....|G#4 UFEF ....|F-2 7F.F ....
....|..|--- .... ....|--- .... ....|--- .... ....
....|..|--- .... ....|--- .... ....|--- .... ....
....|..|--- .... ....|--- .... ....|--- .... ....
....|..|A#4 OFCA ....|A#4 UFEA ....|F-3 7F1F ....
....|..|--- .... ....|--- .... ....|--- .... ....
....|..|--- .... ....|--- .... ....|--- .... ....
....|..|--- .... ....|--- .... ....|--- .... ....
....|..|C-5 OFC7 ....|C-5 UFE7 ....|F-2 7F.F ....
....|..|--- .... ....|--- .... ....|--- .... ....
....|..|--- .... ....|--- .... ....|--- .... ....
....|..|--- .... ....|--- .... ....|--- .... ....
....|..|F-4 OFCF ....|F-4 UFEF ....|F-3 7F1F ....
....|..|--- .... ....|--- .... ....|--- .... ....
....|..|--- .... ....|--- .... ....|--- .... ....
....|..|--- .... ....|--- .... ....|F-3 7F.F ....
....|..|A#4 OFC7 ....|A#4 UFE7 ....|G#2 7F.F ....
....|..|--- .... ....|--- .... ....|--- .... ....
....|..|--- .... ....|--- .... ....|--- .... ....
....|..|--- .... ....|--- .... ....|--- .... ....
....|..|R-- .... ....|R-- .... ....|D#3 7F.F ....
....|..|--- .... ....|--- .... ....|--- .... ....
....|..|--- .... ....|--- .... ....|--- .... ....
....|..|--- .... ....|--- .... ....|--- .... ....
....|..|G#4 OFC7 ....|G#4 UFE7 ....|G#3 7F.F ....
....|..|--- .... ....|--- .... ....|--- .... ....
....|..|--- .... ....|--- .... ....|--- .... ....
....|..|--- .... ....|--- .... ....|F-3 7F.A ....
....|..|G#4 OFCF ....|G#4 UFEF ....|F-3 7F17 ....
....|..|--- .... ....|--- .... ....|--- .... ....
....|..|--- .... ....|--- .... ....|--- .... ....
....|..|--- .... ....|--- .... ....|--- .... ....
....|..|R-- .... ....|R-- .... ....|D#3 7F.F ....
....|..|--- .... ....|--- .... ....|--- .... ....
....|..|--- .... ....|--- .... ....|--- .... ....
....|..|--- .... ....|--- .... ....|--- .... ....
....|..|F-4 OFC7 ....|F-4 UFE7 ....|C-3 7F.F ....
....|..|--- .... ....|--- .... ....|--- .... ....
....|..|--- .... ....|--- .... ....|--- .... ....
....|..|--- .... ....|--- .... ....|F-3 7F.7 ....
....|..|F-5 OFCF ....|F-5 UFEF ....|G#2 7F.F ....
....|..|--- .... ....|--- .... ....|--- .... ....
....|..|--- .... ....|--- .... ....|--- .... ....
....|..|--- .... ....|--- .... ....|--- .... ....
....|..|D#5 OFCF ....|D#5 UFEF ....|A-2 7F.F ....
....|..|--- .... ....|--- .... ....|--- .... ....
....|..|--- .... ....|--- .... ....|--- .... ....
....|..|--- .... ....|--- .... ....|--- .... ....

[Pattern55]
....|..|D-5 OFCF ....|D-5 UFEF ....|A#2 7F.F ....
....|..|--- .... ....|--- .... ....|--- .... ....
....|..|--- .... ....|--- .... ....|--- .... ....
....|..|--- .... ....|--- .... ....|--- .... ....
....|..|G#4 OFC7 ....|G#4 UFE7 ....|F-3 7F.F ....
....|..|--- .... ....|--- .... ....|--- .... ....
....|..|--- .... ....|--- .... ....|--- .... ....
....|..|--- .... ....|--- .... ....|--- .... ....
....|..|A#4 OFCF ....|A#4 UFEF ....|A#3 7F.F ....
....|..|--- .... ....|--- .... ....|--- .... ....
....|..|--- .... ....|--- .... ....|--- .... ....
....|..|--- .... ....|--- .... ....|--- .... ....
....|..|D-5 OFCA ....|D-5 UFEA ....|F-3 7F.F ....
....|..|--- .... ....|--- .... ....|--- .... ....
....|..|--- .... ....|--- .... ....|--- .... ....
....|..|--- .... ....|--- .... ....|--- .... ....
....|..|F-4 OFCF ....|F-4 UFEF ....|D-4 7F.F ....
....|..|--- .... ....|--- .... ....|--- .... ....
....|..|--- .... ....|--- .... ....|--- .... ....
....|..|--- .... ....|--- .... ....|--- .... ....
....|..|D#5 OFC7 ....|D#5 UFE7 ....|F-3 7F.F ....
....|..|--- .... ....|--- .... ....|--- .... ....
....|..|--- .... ....|--- .... ....|--- .... ....
....|..|--- .... ....|--- .... ....|--- .... ....
....|..|G-4 OFCF ....|G-4 UFEF ....|G#3 7F.F ....
....|..|--- .... ....|--- .... ....|--- .... ....
....|..|--- .... ....|--- .... ....|--- .... ....
....|..|--- .... ....|--- .... ....|--- .... ....
....|..|F-4 OFCA ....|F-4 UFEA ....|G-2 7F.F ....
....|..|--- .... ....|--- .... ....|--- .... ....
....|..|--- .... ....|--- .... ....|--- .... ....
....|..|--- .... ....|--- .... ....|--- .... ....
....|..|G#4 OFCF ....|G#4 UFEF ....|F-2 7F.F ....
....|..|--- .... ....|--- .... ....|F-3 7F2F ....
....|..|--- .... ....|--- .... ....|F-3 7F3F ....
....|..|--- .... ....|--- .... ....|--- .... ....
....|..|G-4 OFCA ....|G-4 UFEA ....|F-3 7F.7 ....
....|..|--- .... ....|--- .... ....|--- .... ....
....|..|--- .... ....|--- .... ....|--- .... ....
....|..|--- .... ....|--- .... ....|--- .... ....
....|..|F-4 OFC7 ....|F-4 UFE7 ....|D-4 7F.7 ....
....|..|--- .... ....|--- .... ....|--- .... ....
....|..|--- .... ....|--- .... ....|--- .... ....
....|..|--- .... ....|--- .... ....|--- .... ....
....|..|G#4 OFCA ....|G#4 UFEA ....|F-3 7F.7 ....
....|..|--- .... ....|--- .... ....|F-3 7F2A ....
....|..|--- .... ....|--- .... ....|F-3 7F3A ....
....|..|--- .... ....|--- .... ....|--- .... ....
....|..|G-4 OFC7 ....|G-4 UFE7 ....|G#3 7F.7 ....
....|..|--- .... ....|--- .... ....|--- .... ....
....|..|--- .... ....|--- .... ....|--- .... ....
....|..|--- .... ....|--- .... ....|--- .... ....
....|..|R-- .... ....|R-- .... ....|G-2 7F.7 ....
....|..|--- .... ....|--- .... ....|--- .... ....
....|..|--- .... ....|--- .... ....|--- .... ....
....|..|--- .... ....|--- .... ....|--- .... ....
....|..|G#4 OFC7 ....|G#4 UFE7 ....|F-2 7F.7 ....
....|..|--- .... ....|--- .... ....|F-3 7F27 ....
....|..|--- .... ....|--- .... ....|F-3 7F37 ....
....|..|--- .... ....|--- .... ....|--- .... ....
....|..|--- .... ....|--- .... ....|--- .... ....
....|..|--- .... ....|--- .... ....|--- .... ....
....|..|--- .... ....|--- .... ....|--- .... ....
....|..|--- .... ....|--- .... ....|--- .... ....

[Pattern56]
....|..|R-- .... ....|R-- .... ....|R-- .... ....
....|..|--- .... ....|--- .... ....|--- .... ....
....|..|--- .... ....|--- .... ....|--- .... ....
....|..|--- .... ....|--- .... ....|--- .... ....
....|..|--- .... ....|--- .... ....|--- .... ....
....|..|--- .... ....|--- .... ....|--- .... ....
....|..|--- .... ....|--- .... ....|--- .... ....
....|..|--- .... ....|--- .... ....|--- .... ....
....|..|--- .... ....|--- .... ....|--- .... ....
....|..|--- .... ....|--- .... ....|--- .... ....
....|..|--- .... ....|--- .... ....|--- .... ....
....|..|--- .... ....|--- .... ....|--- .... ....
....|..|--- .... ....|--- .... ....|R-- .... ....
....|..|--- .... ....|--- .... ....|--- .... ....
....|..|--- .... ....|--- .... ....|--- .... ....
....|..|--- .... ....|--- .... ....|--- .... ....
....|..|--- .... ....|--- .... ....|--- .... ....
....|..|--- .... ....|--- .... ....|--- .... ....
....|..|--- .... ....|--- .... ....|--- .... ....
....|..|--- .... ....|--- .... ....|--- .... ....
....|..|--- .... ....|--- .... ....|--- .... ....
....|..|--- .... ....|--- .... ....|--- .... ....
....|..|--- .... ....|--- .... ....|--- .... ....
....|..|--- .... ....|--- .... ....|--- .... ....

