[Module]
VortexTrackerII=0
Version=3.5
Title=5me-3p,1m[6f],2m[3e]
Author=oisee ^ 4d 29.05.2010
NoteTable=4
ChipFreq=1750000
Speed=4
PlayOrder=L0,1,2,3,4,5,6,7,8,9,10,11,12,13,14,15,16,17,18,19,20,21,22,23,24,25,26,27,28,29,30,31,32,33,34,35,36,37,38


[Ornament1]
L0,0,4,4,7,7

[Ornament2]
L0,0,3,3,7,7

[Ornament3]
L0,0,4,4,9,9


[Sample1]
TnE +000_ +00_ F_
TnE +000_ +00_ F_
TnE +000_ +00_ F_
TnE +000_ +00_ D_
TnE +000_ +00_ B_
TnE +000_ +00_ B_ L

[Sample2]
TnE +000_ +00_ F_ L

[Sample3]
TnE +001_ +00_ F_
TnE +002_ +00_ F_
TnE +001_ +00_ E_
TnE +002_ +00_ E_
TnE +000_ +00_ E_ L
TnE -001_ +00_ E_
TnE -002_ +00_ E_
TnE -001_ +00_ E_
TnE +000_ +00_ E_
TnE +001_ +00_ E_
TnE +002_ +00_ E_
TnE +001_ +00_ E_

[Sample4]
TnE +002_ +00_ D_
TnE +002_ +00_ D_
TnE +002_ +00_ C_
TnE +002_ +00_ B_
TnE +002_ +00_ A_ L
TnE +002_ +00_ A_
TnE +002_ +00_ A_
TnE +002_ +00_ A_
TnE +002_ +00_ A_
TnE +002_ +00_ A_
TnE +002_ +00_ A_
TnE +002_ +00_ A_

[Sample5]
TnE +000_ +00_ F_
TnE +000_ +00_ F_
tne +000_ +00_ 0_ L

[Sample6]
TnE -001_ +00_ F_ L

[Sample7]
TnE +006_ +00_ F_ L

[Sample8]
tNe +000_ +00_ F_
tNe +000_ +00_ B_
tNe +000_ +00_ 7_
tNe +000_ +00_ 6- L

[Sample9]
TnE +080_ +00_ F_
TnE +100_ +00_ E_
TnE +180_ +00_ E_
TnE +200_ +00_ E_
TnE +240_ +00_ D_
TnE +280_ +00_ D_
TnE +2C0_ +00_ D_
TnE +300_ +00_ C_
TnE +300_ +00_ C_
TnE +340_ +00_ C_
TnE +340_ +00_ C_
TnE +380_ +00_ B_
TnE +380_ +00_ B_
TnE +400_ +00_ B_
TnE +400_ +00_ B_
TnE +480_ +00_ A_
TnE +500_ +00_ 9_
TnE +580_ +00_ 7_
TnE +600_ +00_ 4_
TnE +680_ +00_ 1_
TnE +000_ +00_ 0_ L

[Sample10]
Tne +1C0_ +00_ F_
Tne +280_ +00_ E_
Tne +380_ +00_ C_
Tne +440_ +00_ A_
Tne +480_ +00_ 8_
TnE +000_ +00_ 0_ L

[Sample11]
TNe +200_ -0A_ F_
tNe +000_ +0F_ A_
TNe +200_ -07_ E_
tNe +000_ +0E_ B- L

[Sample12]
TNE +0A0_ +05_ F_
TNE +140_ +02_ D_
TNE +140_ +02_ B_
TNE +100_ +00_ A_ L
TNE +140_ +00_ A_
TNE +200_ +00_ A-

[Sample13]
Tne +200_ +00_ F_
Tne +2C0_ +00_ F_
Tne +380_ +00_ E_
Tne +500_ +00_ C_
Tne +520_ +00_ 9_
tne +000_ +00_ 0_ L

[Sample14]
TNE -100_ +00_ F_
TNE -100_ +00_ D_
TNE -100_ +00_ A_
TNE -100_ +00_ 5_
tne +000_ +00_ 0_ L

[Sample15]
TNE -100_ +00_ 5_
TNE -100_ +00_ 8_
TNE -100_ +00_ B_
TNE -100_ +00_ F_
TNe -100_ +00_ 9- L

[Sample16]
TnE +000_ +00_ C_
TnE +000_ +00_ E_
TnE +000_ +00_ F_
TnE +000_ +00_ F_
TnE +000_ +00_ E_
TnE +000_ +00_ D_
TnE +000_ +00_ C_
TnE +000_ +00_ C_ L
TnE +001_ +00_ C_
TnE +002_ +00_ C_
TnE +003_ +00_ C_
TnE +001_ +00_ C_
TnE +000_ +00_ C_
TnE -001_ +00_ C_
TnE -002_ +00_ C_
TnE -003_ +00_ C_
TnE -001_ +00_ C_
TnE +000_ +00_ C_
TnE +000_ +00_ C_

[Sample17]
Tne +1C0_ +00_ F_
Tne +280_ +00_ D_
Tne +380_ +00_ 7_
TNE +000_ +00_ 0_ L

[Sample18]
TnE -00C_ +00_ 0_ L

[Sample19]
TNe +000_ +00_ F_
TNe +000_ +00_ C_
TNe +000_ +00_ 6_
TNe +000_ +01_ A- L

[Sample20]
TNE +140_ +00_ F_
tNE +000_ +00_ B- L

[Sample21]
tNE +000_ +00_ D_
tNE +000_ +00_ 8_
tNE +000_ +00_ 1_
TNE +000_ +00_ 0_ L

[Sample22]
TnE +000_ +00_ D_ L
TnE +000_ +00_ D_
tne +000_ +00_ 9_
tne +000_ +00_ 9_
TnE +000_ +00_ D_
TnE +000_ +00_ D_
tne +000_ +00_ 9_
tne +000_ +00_ 9_
TnE +000_ +00_ D_
TnE +000_ +00_ D_
TnE +000_ +00_ D_
TnE +000_ +00_ D_
TnE +000_ +00_ D_
TnE +000_ +00_ D_
tne +000_ +00_ 9_
tne +000_ +00_ 9_

[Sample23]
TnE +000_ +00_ F_ L
TnE +010_ +01_ F_
TnE +010_ +01_ F_
TnE +010_ +01_ F_
TnE +010_ +01_ F_
TnE +000_ +00_ F_
TnE +000_ +00_ F_
TnE -010_ -01_ F_
TnE -010_ -01_ F_
TnE -010_ -01_ F_
TnE -010_ -01_ F_
TnE +000_ +00_ F_

[Sample24]
TNe +000_ -01_ C_
TNe +000_ -01_ D_
TNe +000_ -01_ E_
TNe +000_ -01_ F_
TNe +000_ -01_ F_
TNe +000_ -01_ F_
TNe +000_ -01_ F_
TNe +000_ -01_ F_
TNe +000_ -01_ E_
TNe +000_ -01_ E_
TNe +000_ -01_ E_
TNe +000_ -01_ F_
TNe +000_ -01_ F_ L

[Sample25]
TNE +000_ +00_ F_
TNE +000_ +00_ F_ L
TNE +000_ +00_ F_
TNE +000_ +00_ F_
TNE +000_ +00_ F-

[Sample26]
tne +000_ +00_ 0_ L

[Sample27]
TnE +100_ +05_ F_
TnE +200_ +02_ A_
TnE +300_ +02_ 7_
TNE +400_ +00_ 3- L

[Sample28]
tne +000_ +00_ 0_ L

[Sample29]
tnE +000_ +00_ 0_ L

[Sample30]
TNE +000_ +00_ C+ L

[Sample31]
TNe +1C0_ +00_ F_
Tne +280_ +00_ E_
Tne +380_ +00_ C_
Tne +440_ +00_ A_
Tne +480_ +00_ 8_
TnE +000_ +00_ 0_ L

[Pattern0]
....|..|C-4 2F1F ....|G-5 6FFF ....|--- .... ....
....|..|--- .... ....|--- .... ....|--- .... ....
....|..|--- .... ....|R-- .... ....|--- .... ....
....|..|--- .... ....|--- .... ....|--- .... ....
....|..|--- .... ....|--- .... ....|--- .... ....
....|..|--- .... ....|--- .... ....|--- .... ....
....|..|C-4 2F1A ....|G-5 6FFF ....|--- .... ....
....|..|--- .... ....|--- .... ....|--- .... ....
....|..|--- .... ....|C-6 6FFF ....|--- .... ....
....|..|--- .... ....|--- .... ....|--- .... ....
....|..|--- .... ....|R-- .... ....|--- .... ....
....|..|--- .... ....|--- .... ....|--- .... ....
....|..|C-4 2F17 ....|G-5 6FF7 ....|--- .... ....
....|..|--- .... ....|--- .... ....|--- .... ....
....|..|--- .... ....|C-6 6FFF ....|--- .... ....
....|..|--- .... ....|--- .... ....|--- .... ....
....|..|--- .... ....|D-6 6FFF ....|--- .... ....
....|..|--- .... ....|--- .... ....|--- .... ....
....|..|--- .... ....|G-5 6FF7 ....|--- .... ....
....|..|--- .... ....|--- .... ....|--- .... ....
....|..|--- .... ....|C-6 6FF7 ....|--- .... ....
....|..|--- .... ....|--- .... ....|--- .... ....
....|..|--- .... ....|G-5 6FFF ....|--- .... ....
....|..|--- .... ....|--- .... ....|--- .... ....
....|..|--- .... ....|C-6 6FFF ....|--- .... ....
....|..|--- .... ....|--- .... ....|--- .... ....
....|..|--- .... ....|C-6 6FF7 ....|--- .... ....
....|..|--- .... ....|--- .... ....|--- .... ....
....|..|--- .... ....|D-6 6FF7 ....|--- .... ....
....|..|--- .... ....|--- .... ....|--- .... ....
....|..|R-- .... ....|C-6 6FFF ....|--- .... ....
....|..|--- .... ....|--- .... ....|--- .... ....
....|..|G-3 2F1F ....|D-6 6FFF ....|--- .... ....
....|..|--- .... ....|--- .... ....|--- .... ....
....|..|--- .... ....|G-5 6FF7 ....|--- .... ....
....|..|--- .... ....|--- .... ....|--- .... ....
....|..|R-- .... ....|C-6 6FF7 ....|--- .... ....
....|..|--- .... ....|--- .... ....|--- .... ....
....|..|G-3 2F1A ....|D-6 6FFA ....|--- .... ....
....|..|--- .... ....|--- .... ....|--- .... ....
....|..|--- .... ....|R-- .... ....|--- .... ....
....|..|--- .... ....|--- .... ....|--- .... ....
....|..|R-- .... ....|C-6 6FF7 ....|--- .... ....
....|..|--- .... ....|--- .... ....|--- .... ....
....|..|G-3 2F17 ....|D-6 6FF7 ....|--- .... ....
....|..|--- .... ....|--- .... ....|--- .... ....
....|..|--- .... ....|R-- .... ....|--- .... ....
....|..|--- .... ....|--- .... ....|--- .... ....
....|..|--- .... ....|--- .... ....|--- .... ....
....|..|--- .... ....|--- .... ....|--- .... ....
....|..|--- .... ....|--- .... ....|--- .... ....
....|..|--- .... ....|--- .... ....|--- .... ....
....|..|--- .... ....|--- .... ....|--- .... ....
....|..|--- .... ....|--- .... ....|--- .... ....
....|..|--- .... ....|--- .... ....|--- .... ....
....|..|--- .... ....|--- .... ....|--- .... ....
....|..|--- .... ....|--- .... ....|--- .... ....
....|..|--- .... ....|--- .... ....|--- .... ....
....|..|--- .... ....|--- .... ....|--- .... ....
....|..|--- .... ....|--- .... ....|--- .... ....
....|..|--- .... ....|--- .... ....|--- .... ....
....|..|--- .... ....|--- .... ....|--- .... ....
....|..|R-- .... ....|--- .... ....|--- .... ....
....|..|--- .... ....|--- .... ....|--- .... ....

[Pattern1]
....|..|A-3 2F2F ....|F-5 6FFF ....|--- .... ....
....|..|--- .... ....|--- .... ....|--- .... ....
....|..|--- .... ....|R-- .... ....|--- .... ....
....|..|--- .... ....|--- .... ....|--- .... ....
....|..|R-- .... ....|--- .... ....|--- .... ....
....|..|--- .... ....|--- .... ....|--- .... ....
....|..|A-3 2F2A ....|F-5 6FFF ....|--- .... ....
....|..|--- .... ....|--- .... ....|--- .... ....
....|..|--- .... ....|A-5 6FFF ....|--- .... ....
....|..|--- .... ....|--- .... ....|--- .... ....
....|..|R-- .... ....|R-- .... ....|--- .... ....
....|..|--- .... ....|--- .... ....|--- .... ....
....|..|A-3 2F27 ....|F-5 6FF7 ....|--- .... ....
....|..|--- .... ....|--- .... ....|--- .... ....
....|..|--- .... ....|A-5 6FFF ....|--- .... ....
....|..|--- .... ....|--- .... ....|--- .... ....
....|..|--- .... ....|C-6 6FFF ....|--- .... ....
....|..|--- .... ....|--- .... ....|--- .... ....
....|..|--- .... ....|F-5 6FF7 ....|--- .... ....
....|..|--- .... ....|--- .... ....|--- .... ....
....|..|--- .... ....|A-5 6FF7 ....|--- .... ....
....|..|--- .... ....|--- .... ....|--- .... ....
....|..|--- .... ....|F-5 6FFF ....|--- .... ....
....|..|--- .... ....|--- .... ....|--- .... ....
....|..|--- .... ....|A-5 6FFF ....|--- .... ....
....|..|--- .... ....|--- .... ....|--- .... ....
....|..|--- .... ....|A-5 6FF7 ....|--- .... ....
....|..|--- .... ....|--- .... ....|--- .... ....
....|..|A-3 2F.F ....|C-6 6FF7 ....|--- .... ....
....|..|R-- .... ....|--- .... ....|--- .... ....
....|..|--- .... ....|A-5 6FFF ....|--- .... ....
....|..|--- .... ....|--- .... ....|--- .... ....
....|..|G-3 2F3F ....|C-6 6FFF ....|--- .... ....
....|..|--- .... ....|--- .... ....|--- .... ....
....|..|A-3 2F.A ....|F-5 6FF7 ....|--- .... ....
....|..|R-- .... ....|--- .... ....|--- .... ....
....|..|--- .... ....|A-5 6FF7 ....|--- .... ....
....|..|--- .... ....|--- .... ....|--- .... ....
....|..|G-3 2F3A ....|E-5 6FFF ....|--- .... ....
....|..|--- .... ....|--- .... ....|--- .... ....
....|..|A-3 2F.7 ....|A-5 6FFF ....|--- .... ....
....|..|R-- .... ....|--- .... ....|--- .... ....
....|..|--- .... ....|A-5 6FF7 ....|--- .... ....
....|..|--- .... ....|--- .... ....|--- .... ....
....|..|G-3 2F37 ....|C-6 6FF7 ....|--- .... ....
....|..|--- .... ....|--- .... ....|--- .... ....
....|..|--- .... ....|A-5 6FFF ....|--- .... ....
....|..|--- .... ....|--- .... ....|--- .... ....
....|..|G-3 2F1F ....|B-5 6FFF ....|--- .... ....
....|..|--- .... ....|--- .... ....|--- .... ....
....|..|--- .... ....|E-5 6FF7 ....|--- .... ....
....|..|--- .... ....|--- .... ....|--- .... ....
....|..|--- .... ....|A-5 6FF7 ....|--- .... ....
....|..|--- .... ....|--- .... ....|--- .... ....
....|..|G-3 2F1A ....|E-5 6FFF ....|--- .... ....
....|..|--- .... ....|--- .... ....|--- .... ....
....|..|--- .... ....|A-5 6FFF ....|--- .... ....
....|..|--- .... ....|--- .... ....|--- .... ....
....|..|--- .... ....|A-5 6FF7 ....|--- .... ....
....|..|--- .... ....|--- .... ....|--- .... ....
....|..|G-3 2F17 ....|B-5 6FF7 ....|--- .... ....
....|..|--- .... ....|--- .... ....|--- .... ....
....|..|--- .... ....|A-5 6FFF ....|--- .... ....
....|..|--- .... ....|--- .... ....|--- .... ....

[Pattern2]
....|..|C-4 2F1F ....|G-5 6FFF ....|--- .... ....
....|..|--- .... ....|--- .... ....|--- .... ....
....|..|--- .... ....|E-5 6FF7 ....|--- .... ....
....|..|--- .... ....|--- .... ....|--- .... ....
....|..|--- .... ....|A-5 6FF7 ....|--- .... ....
....|..|--- .... ....|--- .... ....|--- .... ....
....|..|C-4 2F1A ....|G-5 6FFF ....|--- .... ....
....|..|--- .... ....|--- .... ....|--- .... ....
....|..|--- .... ....|C-6 6FFF ....|--- .... ....
....|..|--- .... ....|--- .... ....|--- .... ....
....|..|--- .... ....|A-5 6FF7 ....|--- .... ....
....|..|--- .... ....|--- .... ....|--- .... ....
....|..|C-4 2F17 ....|G-5 6FF7 ....|--- .... ....
....|..|--- .... ....|--- .... ....|--- .... ....
....|..|--- .... ....|C-6 6FFF ....|--- .... ....
....|..|--- .... ....|--- .... ....|--- .... ....
....|..|--- .... ....|D-6 6FFF ....|--- .... ....
....|..|--- .... ....|--- .... ....|--- .... ....
....|..|--- .... ....|G-5 6FF7 ....|--- .... ....
....|..|--- .... ....|--- .... ....|--- .... ....
....|..|--- .... ....|C-6 6FF7 ....|--- .... ....
....|..|--- .... ....|--- .... ....|--- .... ....
....|..|--- .... ....|G-5 6FFF ....|--- .... ....
....|..|--- .... ....|--- .... ....|--- .... ....
....|..|--- .... ....|C-6 6FFF ....|--- .... ....
....|..|--- .... ....|--- .... ....|--- .... ....
....|..|--- .... ....|C-6 6FF7 ....|--- .... ....
....|..|--- .... ....|--- .... ....|--- .... ....
....|..|--- .... ....|D-6 6FF7 ....|--- .... ....
....|..|--- .... ....|--- .... ....|--- .... ....
....|..|R-- .... ....|C-6 6FFF ....|--- .... ....
....|..|--- .... ....|--- .... ....|--- .... ....
....|..|G-3 2F1F ....|D-6 6FFF ....|--- .... ....
....|..|--- .... ....|--- .... ....|--- .... ....
....|..|--- .... ....|G-5 6FF7 ....|--- .... ....
....|..|--- .... ....|--- .... ....|--- .... ....
....|..|R-- .... ....|C-6 6FF7 ....|--- .... ....
....|..|--- .... ....|--- .... ....|--- .... ....
....|..|G-3 2F1A ....|D-6 6FFA ....|--- .... ....
....|..|--- .... ....|--- .... ....|--- .... ....
....|..|--- .... ....|R-- .... ....|--- .... ....
....|..|--- .... ....|--- .... ....|--- .... ....
....|..|R-- .... ....|C-6 6FF7 ....|--- .... ....
....|..|--- .... ....|--- .... ....|--- .... ....
....|..|G-3 2F17 ....|D-6 6FF7 ....|--- .... ....
....|..|--- .... ....|--- .... ....|--- .... ....
....|..|--- .... ....|R-- .... ....|--- .... ....
....|..|--- .... ....|--- .... ....|--- .... ....
....|..|--- .... ....|--- .... ....|--- .... ....
....|..|--- .... ....|--- .... ....|--- .... ....
....|..|--- .... ....|--- .... ....|--- .... ....
....|..|--- .... ....|--- .... ....|--- .... ....
....|..|--- .... ....|--- .... ....|--- .... ....
....|..|--- .... ....|--- .... ....|--- .... ....
....|..|--- .... ....|--- .... ....|--- .... ....
....|..|--- .... ....|--- .... ....|--- .... ....
....|..|--- .... ....|--- .... ....|--- .... ....
....|..|--- .... ....|--- .... ....|--- .... ....
....|..|--- .... ....|--- .... ....|--- .... ....
....|..|--- .... ....|--- .... ....|--- .... ....
....|..|--- .... ....|--- .... ....|--- .... ....
....|..|--- .... ....|--- .... ....|--- .... ....
....|..|R-- .... ....|--- .... ....|--- .... ....
....|..|--- .... ....|--- .... ....|--- .... ....

[Pattern3]
....|..|A-3 2F2F ....|F-5 6FFF ....|--- .... ....
....|..|--- .... ....|--- .... ....|--- .... ....
....|..|--- .... ....|R-- .... ....|--- .... ....
....|..|--- .... ....|--- .... ....|--- .... ....
....|..|R-- .... ....|--- .... ....|--- .... ....
....|..|--- .... ....|--- .... ....|--- .... ....
....|..|A-3 2F2A ....|F-5 6FFF ....|--- .... ....
....|..|--- .... ....|--- .... ....|--- .... ....
....|..|--- .... ....|A-5 6FFF ....|--- .... ....
....|..|--- .... ....|--- .... ....|--- .... ....
....|..|R-- .... ....|R-- .... ....|--- .... ....
....|..|--- .... ....|--- .... ....|--- .... ....
....|..|A-3 2F27 ....|F-5 6FF7 ....|--- .... ....
....|..|--- .... ....|--- .... ....|--- .... ....
....|..|--- .... ....|A-5 6FFF ....|--- .... ....
....|..|--- .... ....|--- .... ....|--- .... ....
....|..|--- .... ....|C-6 6FFF ....|--- .... ....
....|..|--- .... ....|--- .... ....|--- .... ....
....|..|--- .... ....|F-5 6FF7 ....|--- .... ....
....|..|--- .... ....|--- .... ....|--- .... ....
....|..|--- .... ....|A-5 6FF7 ....|--- .... ....
....|..|--- .... ....|--- .... ....|--- .... ....
....|..|--- .... ....|F-5 6FFF ....|--- .... ....
....|..|--- .... ....|--- .... ....|--- .... ....
....|..|--- .... ....|A-5 6FFF ....|--- .... ....
....|..|--- .... ....|--- .... ....|--- .... ....
....|..|--- .... ....|A-5 6FF7 ....|--- .... ....
....|..|--- .... ....|--- .... ....|--- .... ....
....|..|A-3 2F.F ....|C-6 6FF7 ....|--- .... ....
....|..|R-- .... ....|--- .... ....|--- .... ....
....|..|--- .... ....|A-5 6FFF ....|--- .... ....
....|..|--- .... ....|--- .... ....|--- .... ....
....|..|G-3 2F3F ....|C-6 6FFF ....|--- .... ....
....|..|--- .... ....|--- .... ....|--- .... ....
....|..|A-3 2F.A ....|F-5 6FF7 ....|--- .... ....
....|..|R-- .... ....|--- .... ....|--- .... ....
....|..|--- .... ....|A-5 6FF7 ....|--- .... ....
....|..|--- .... ....|--- .... ....|--- .... ....
....|..|G-3 2F3A ....|E-5 6FFF ....|--- .... ....
....|..|--- .... ....|--- .... ....|--- .... ....
....|..|A-3 2F.7 ....|A-5 6FFF ....|--- .... ....
....|..|R-- .... ....|--- .... ....|--- .... ....
....|..|--- .... ....|A-5 6FF7 ....|--- .... ....
....|..|--- .... ....|--- .... ....|--- .... ....
....|..|G-3 2F37 ....|C-6 6FF7 ....|--- .... ....
....|..|--- .... ....|--- .... ....|--- .... ....
....|..|--- .... ....|A-5 6FFF ....|--- .... ....
....|..|--- .... ....|--- .... ....|--- .... ....
....|..|F-3 2F3F ....|B-5 6FFF ....|--- .... ....
....|..|--- .... ....|--- .... ....|--- .... ....
....|..|--- .... ....|E-5 6FF7 ....|--- .... ....
....|..|--- .... ....|--- .... ....|--- .... ....
....|..|--- .... ....|A-5 6FF7 ....|--- .... ....
....|..|--- .... ....|--- .... ....|--- .... ....
....|..|F-3 2F3A ....|E-5 6FFF ....|--- .... ....
....|..|--- .... ....|--- .... ....|--- .... ....
....|..|--- .... ....|A-5 6FFF ....|--- .... ....
....|..|--- .... ....|--- .... ....|--- .... ....
....|..|--- .... ....|A-5 6FF7 ....|--- .... ....
....|..|--- .... ....|--- .... ....|--- .... ....
....|..|F-3 2F37 ....|B-5 6FF7 ....|--- .... ....
....|..|--- .... ....|--- .... ....|--- .... ....
....|..|--- .... ....|A-5 6FFF ....|--- .... ....
....|..|--- .... ....|--- .... ....|--- .... ....

[Pattern4]
....|..|C-4 2F1F ....|G-5 6FFF ....|C-5 3FEF ....
....|..|--- .... ....|--- .... ....|--- .... ....
....|..|--- .... ....|E-5 6FF7 ....|--- .... ....
....|..|--- .... ....|--- .... ....|--- .... ....
....|..|--- .... ....|A-5 6FF7 ....|--- .... ....
....|..|--- .... ....|--- .... ....|--- .... ....
....|..|C-4 2F1A ....|G-5 6FFF ....|C-5 3FEA ....
....|..|--- .... ....|--- .... ....|--- .... ....
....|..|--- .... ....|C-6 6FFF ....|--- .... ....
....|..|--- .... ....|--- .... ....|--- .... ....
....|..|--- .... ....|A-5 6FF7 ....|--- .... ....
....|..|--- .... ....|--- .... ....|--- .... ....
....|..|C-4 2F17 ....|G-5 6FF7 ....|C-5 3FE7 ....
....|..|--- .... ....|--- .... ....|--- .... ....
....|..|--- .... ....|C-6 6FFF ....|--- .... ....
....|..|--- .... ....|--- .... ....|--- .... ....
....|..|--- .... ....|D-6 6FFF ....|B-4 3FEF ....
....|..|--- .... ....|--- .... ....|--- .... ....
....|..|--- .... ....|G-5 6FF7 ....|R-- .... ....
....|..|--- .... ....|--- .... ....|--- .... ....
....|..|--- .... ....|C-6 6FF7 ....|--- .... ....
....|..|--- .... ....|--- .... ....|--- .... ....
....|..|--- .... ....|G-5 6FFF ....|B-4 3FEA ....
....|..|--- .... ....|--- .... ....|--- .... ....
....|..|--- .... ....|C-6 6FFF ....|R-- .... ....
....|..|--- .... ....|--- .... ....|--- .... ....
....|..|--- .... ....|C-6 6FF7 ....|--- .... ....
....|..|--- .... ....|--- .... ....|--- .... ....
....|..|--- .... ....|D-6 6FF7 ....|A-4 3FEF ....
....|..|--- .... ....|--- .... ....|--- .... ....
....|..|R-- .... ....|C-6 6FFF ....|--- .... ....
....|..|--- .... ....|--- .... ....|R-- .... ....
....|..|G-3 2F1F ....|D-6 6FFF ....|G-4 3FEF ....
....|..|--- .... ....|--- .... ....|--- .... ....
....|..|--- .... ....|G-5 6FF7 ....|A-4 3FEA ....
....|..|--- .... ....|--- .... ....|--- .... ....
....|..|R-- .... ....|C-6 6FF7 ....|--- .... ....
....|..|--- .... ....|--- .... ....|R-- .... ....
....|..|G-3 2F1A ....|D-6 6FFA ....|G-4 3FEA ....
....|..|--- .... ....|--- .... ....|--- .... ....
....|..|--- .... ....|R-- .... ....|A-4 3FE7 ....
....|..|--- .... ....|--- .... ....|--- .... ....
....|..|R-- .... ....|C-6 6FF7 ....|--- .... ....
....|..|--- .... ....|--- .... ....|R-- .... ....
....|..|G-3 2F17 ....|D-6 6FF7 ....|G-4 3FE7 ....
....|..|--- .... ....|--- .... ....|--- .... ....
....|..|--- .... ....|R-- .... ....|R-- .... ....
....|..|--- .... ....|--- .... ....|--- .... ....
....|..|--- .... ....|--- .... ....|--- .... ....
....|..|--- .... ....|--- .... ....|--- .... ....
....|..|--- .... ....|--- .... ....|--- .... ....
....|..|--- .... ....|--- .... ....|--- .... ....
....|..|--- .... ....|--- .... ....|R-- .... ....
....|..|--- .... ....|--- .... ....|--- .... ....
....|..|--- .... ....|--- .... ....|--- .... ....
....|..|--- .... ....|--- .... ....|--- .... ....
....|..|--- .... ....|--- .... ....|E-4 3FEF ....
....|..|--- .... ....|--- .... ....|--- .... ....
....|..|--- .... ....|--- .... ....|--- .... ....
....|..|--- .... ....|--- .... ....|--- .... ....
....|..|--- .... ....|--- .... ....|D-4 3FEF ....
....|..|--- .... ....|--- .... ....|--- .... ....
....|..|R-- .... ....|--- .... ....|E-4 3FEA ....
....|..|--- .... ....|--- .... ....|--- .... ....

[Pattern5]
....|..|A-3 2F2F ....|F-5 6FFF ....|E-4 3FEF ....
....|..|--- .... ....|--- .... ....|E-4 3FEF ....
....|..|--- .... ....|R-- .... ....|D-4 3FEA ....
....|..|--- .... ....|--- .... ....|--- .... ....
....|..|R-- .... ....|--- .... ....|E-4 3FE7 ....
....|..|--- .... ....|--- .... ....|--- .... ....
....|..|A-3 2F2A ....|F-5 6FFF ....|E-4 3FEA ....
....|..|--- .... ....|--- .... ....|E-4 3FEA ....
....|..|--- .... ....|A-5 6FFF ....|D-4 3FE7 ....
....|..|--- .... ....|--- .... ....|--- .... ....
....|..|R-- .... ....|R-- .... ....|--- .... ....
....|..|--- .... ....|--- .... ....|--- .... ....
....|..|A-3 2F27 ....|F-5 6FF7 ....|E-4 3FE7 ....
....|..|--- .... ....|--- .... ....|E-4 3FE7 ....
....|..|--- .... ....|A-5 6FFF ....|--- .... ....
....|..|--- .... ....|--- .... ....|--- .... ....
....|..|--- .... ....|C-6 6FFF ....|--- .... ....
....|..|--- .... ....|--- .... ....|--- .... ....
....|..|--- .... ....|F-5 6FF7 ....|--- .... ....
....|..|--- .... ....|--- .... ....|--- .... ....
....|..|--- .... ....|A-5 6FF7 ....|--- .... ....
....|..|--- .... ....|--- .... ....|--- .... ....
....|..|--- .... ....|F-5 6FFF ....|--- .... ....
....|..|--- .... ....|--- .... ....|--- .... ....
....|..|--- .... ....|A-5 6FFF ....|--- .... ....
....|..|--- .... ....|--- .... ....|--- .... ....
....|..|--- .... ....|A-5 6FF7 ....|--- .... ....
....|..|--- .... ....|--- .... ....|--- .... ....
....|..|A-3 2F.F ....|C-6 6FF7 ....|--- .... ....
....|..|R-- .... ....|--- .... ....|--- .... ....
....|..|--- .... ....|A-5 6FFF ....|--- .... ....
....|..|--- .... ....|--- .... ....|--- .... ....
....|..|G-3 2F3F ....|C-6 6FFF ....|--- .... ....
....|..|--- .... ....|--- .... ....|--- .... ....
....|..|A-3 2F.A ....|F-5 6FF7 ....|--- .... ....
....|..|R-- .... ....|--- .... ....|--- .... ....
....|..|--- .... ....|A-5 6FF7 ....|--- .... ....
....|..|--- .... ....|--- .... ....|--- .... ....
....|..|G-3 2F3A ....|E-5 6FFF ....|--- .... ....
....|..|--- .... ....|--- .... ....|R-- .... ....
....|..|A-3 2F.7 ....|A-5 6FFF ....|B-3 3FEF ....
....|..|R-- .... ....|--- .... ....|--- .... ....
....|..|--- .... ....|A-5 6FF7 ....|--- .... ....
....|..|--- .... ....|--- .... ....|--- .... ....
....|..|G-3 2F37 ....|C-6 6FF7 ....|R-- .... ....
....|..|--- .... ....|--- .... ....|R-- .... ....
....|..|--- .... ....|A-5 6FFF ....|B-3 3FEA ....
....|..|--- .... ....|--- .... ....|--- .... ....
....|..|G-3 2F1F ....|B-5 6FFF ....|C-4 3FEF ....
....|..|--- .... ....|--- .... ....|--- .... ....
....|..|--- .... ....|E-5 6FF7 ....|R-- .... ....
....|..|--- .... ....|--- .... ....|R-- .... ....
....|..|--- .... ....|A-5 6FF7 ....|B-3 3FE7 ....
....|..|--- .... ....|--- .... ....|R-- .... ....
....|..|G-3 2F1A ....|E-5 6FFF ....|C-4 3FEA ....
....|..|--- .... ....|--- .... ....|--- .... ....
....|..|--- .... ....|A-5 6FFF ....|B-3 3FEF ....
....|..|--- .... ....|--- .... ....|--- .... ....
....|..|--- .... ....|A-5 6FF7 ....|--- .... ....
....|..|--- .... ....|--- .... ....|R-- .... ....
....|..|G-3 2F17 ....|B-5 6FF7 ....|C-4 3FE7 ....
....|..|--- .... ....|--- .... ....|--- .... ....
....|..|--- .... ....|A-5 6FFF ....|B-3 3FEA ....
....|..|--- .... ....|--- .... ....|--- .... ....

[Pattern6]
....|..|C-4 2F1F ....|G-5 6FFF ....|C-3 3FEF ....
....|..|--- .... ....|--- .... ....|R-- .... ....
....|..|--- .... ....|E-5 6FF7 ....|R-- .... ....
....|..|--- .... ....|--- .... ....|R-- .... ....
....|..|--- .... ....|A-5 6FF7 ....|B-2 3FEF ....
....|..|--- .... ....|--- .... ....|--- .... ....
....|..|C-4 2F1A ....|G-5 6FFF ....|C-3 3FEA ....
....|..|--- .... ....|--- .... ....|R-- .... ....
....|..|--- .... ....|C-6 6FFF ....|C-3 3FEF ....
....|..|--- .... ....|--- .... ....|R-- .... ....
....|..|--- .... ....|A-5 6FF7 ....|B-2 3FEA ....
....|..|--- .... ....|--- .... ....|--- .... ....
....|..|C-4 2F17 ....|G-5 6FF7 ....|C-3 3FE7 ....
....|..|--- .... ....|--- .... ....|R-- .... ....
....|..|--- .... ....|C-6 6FFF ....|C-3 3FEA ....
....|..|--- .... ....|--- .... ....|R-- .... ....
....|..|--- .... ....|D-6 6FFF ....|B-2 3FE7 ....
....|..|--- .... ....|--- .... ....|--- .... ....
....|..|--- .... ....|G-5 6FF7 ....|--- .... ....
....|..|--- .... ....|--- .... ....|R-- .... ....
....|..|--- .... ....|C-6 6FF7 ....|C-3 3FE7 ....
....|..|--- .... ....|--- .... ....|--- .... ....
....|..|--- .... ....|G-5 6FFF ....|--- .... ....
....|..|--- .... ....|--- .... ....|--- .... ....
....|..|--- .... ....|C-6 6FFF ....|--- .... ....
....|..|--- .... ....|--- .... ....|--- .... ....
....|..|--- .... ....|C-6 6FF7 ....|--- .... ....
....|..|--- .... ....|--- .... ....|--- .... ....
....|..|--- .... ....|D-6 6FF7 ....|--- .... ....
....|..|--- .... ....|--- .... ....|--- .... ....
....|..|R-- .... ....|C-6 6FFF ....|--- .... ....
....|..|--- .... ....|--- .... ....|--- .... ....
....|..|G-3 2F1F ....|D-6 6FFF ....|D-3 3FEF ....
....|..|--- .... ....|--- .... ....|--- .... ....
....|..|--- .... ....|G-5 6FF7 ....|--- .... ....
....|..|--- .... ....|--- .... ....|--- .... ....
....|..|R-- .... ....|C-6 6FF7 ....|--- .... ....
....|..|--- .... ....|--- .... ....|--- .... ....
....|..|G-3 2F1A ....|D-6 6FFA ....|D-3 3FEA ....
....|..|--- .... ....|--- .... ....|--- .... ....
....|..|--- .... ....|R-- .... ....|--- .... ....
....|..|--- .... ....|--- .... ....|--- .... ....
....|..|R-- .... ....|C-6 6FF7 ....|--- .... ....
....|..|--- .... ....|--- .... ....|--- .... ....
....|..|G-3 2F17 ....|D-6 6FF7 ....|D-3 3FE7 ....
....|..|--- .... ....|--- .... ....|--- .... ....
....|..|--- .... ....|R-- .... ....|--- .... ....
....|..|--- .... ....|--- .... ....|--- .... ....
....|..|--- .... ....|--- .... ....|E-3 3FEF ....
....|..|--- .... ....|--- .... ....|--- .... ....
....|..|--- .... ....|--- .... ....|--- .... ....
....|..|--- .... ....|--- .... ....|--- .... ....
....|..|--- .... ....|--- .... ....|R-- .... ....
....|..|--- .... ....|--- .... ....|--- .... ....
....|..|--- .... ....|--- .... ....|E-3 3FEA ....
....|..|--- .... ....|--- .... ....|--- .... ....
....|..|--- .... ....|--- .... ....|F-3 3FEF ....
....|..|--- .... ....|--- .... ....|--- .... ....
....|..|--- .... ....|--- .... ....|R-- .... ....
....|..|--- .... ....|--- .... ....|--- .... ....
....|..|--- .... ....|--- .... ....|E-3 3FE7 ....
....|..|--- .... ....|--- .... ....|--- .... ....
....|..|R-- .... ....|--- .... ....|F-3 3FEA ....
....|..|--- .... ....|--- .... ....|--- .... ....

[Pattern7]
....|..|A-3 2F2F ....|F-5 6FFF ....|C-3 3FEF ....
....|..|--- .... ....|--- .... ....|--- .... ....
....|..|--- .... ....|R-- .... ....|R-- .... ....
....|..|--- .... ....|--- .... ....|--- .... ....
....|..|R-- .... ....|--- .... ....|F-3 3FE7 ....
....|..|--- .... ....|--- .... ....|--- .... ....
....|..|A-3 2F2A ....|F-5 6FFF ....|C-3 3FEA ....
....|..|--- .... ....|--- .... ....|--- .... ....
....|..|--- .... ....|A-5 6FFF ....|R-- .... ....
....|..|--- .... ....|--- .... ....|--- .... ....
....|..|R-- .... ....|R-- .... ....|--- .... ....
....|..|--- .... ....|--- .... ....|--- .... ....
....|..|A-3 2F27 ....|F-5 6FF7 ....|C-3 3FE7 ....
....|..|--- .... ....|--- .... ....|--- .... ....
....|..|--- .... ....|A-5 6FFF ....|--- .... ....
....|..|--- .... ....|--- .... ....|--- .... ....
....|..|--- .... ....|C-6 6FFF ....|D-3 3FEF ....
....|..|--- .... ....|--- .... ....|--- .... ....
....|..|--- .... ....|F-5 6FF7 ....|--- .... ....
....|..|--- .... ....|--- .... ....|--- .... ....
....|..|--- .... ....|A-5 6FF7 ....|R-- .... ....
....|..|--- .... ....|--- .... ....|--- .... ....
....|..|--- .... ....|F-5 6FFF ....|D-3 3FEA ....
....|..|--- .... ....|--- .... ....|--- .... ....
....|..|--- .... ....|A-5 6FFF ....|E-3 3FEF ....
....|..|--- .... ....|--- .... ....|--- .... ....
....|..|--- .... ....|A-5 6FF7 ....|R-- .... ....
....|..|--- .... ....|--- .... ....|--- .... ....
....|..|A-3 2F.F ....|C-6 6FF7 ....|D-3 3FE7 ....
....|..|R-- .... ....|--- .... ....|--- .... ....
....|..|--- .... ....|A-5 6FFF ....|E-3 3FEA ....
....|..|--- .... ....|--- .... ....|--- .... ....
....|..|G-3 2F3F ....|C-6 6FFF ....|B-2 3FEF ....
....|..|--- .... ....|--- .... ....|--- .... ....
....|..|A-3 2F.A ....|F-5 6FF7 ....|R-- .... ....
....|..|R-- .... ....|--- .... ....|--- .... ....
....|..|--- .... ....|A-5 6FF7 ....|E-3 3FE7 ....
....|..|--- .... ....|--- .... ....|--- .... ....
....|..|G-3 2F3A ....|E-5 6FFF ....|B-2 3FEA ....
....|..|--- .... ....|--- .... ....|--- .... ....
....|..|A-3 2F.7 ....|A-5 6FFF ....|R-- .... ....
....|..|R-- .... ....|--- .... ....|--- .... ....
....|..|--- .... ....|A-5 6FF7 ....|--- .... ....
....|..|--- .... ....|--- .... ....|--- .... ....
....|..|G-3 2F37 ....|C-6 6FF7 ....|B-2 3FE7 ....
....|..|--- .... ....|--- .... ....|--- .... ....
....|..|--- .... ....|A-5 6FFF ....|--- .... ....
....|..|--- .... ....|--- .... ....|--- .... ....
....|..|F-3 2F3F ....|B-5 6FFF ....|D-3 3FEF ....
....|..|--- .... ....|--- .... ....|--- .... ....
....|..|--- .... ....|E-5 6FF7 ....|--- .... ....
....|..|--- .... ....|--- .... ....|--- .... ....
....|..|--- .... ....|A-5 6FF7 ....|--- .... ....
....|..|--- .... ....|--- .... ....|--- .... ....
....|..|F-3 2F3A ....|E-5 6FFF ....|D-3 3FEA ....
....|..|--- .... ....|--- .... ....|--- .... ....
....|..|--- .... ....|A-5 6FFF ....|C-3 3FEF ....
....|..|--- .... ....|--- .... ....|--- .... ....
....|..|--- .... ....|A-5 6FF7 ....|--- .... ....
....|..|--- .... ....|--- .... ....|--- .... ....
....|..|F-3 2F37 ....|B-5 6FF7 ....|D-3 3FE7 ....
....|..|--- .... ....|--- .... ....|--- .... ....
....|..|--- .... ....|A-5 6FFF ....|C-3 3FEA ....
....|..|--- .... ....|--- .... ....|--- .... ....

[Pattern8]
....|..|C-4 2F1F ....|G-5 6FFF ....|C-4 3FEF ....
....|..|--- .... ....|--- .... ....|--- .... ....
....|..|--- .... ....|E-5 6FF7 ....|--- .... ....
....|..|--- .... ....|--- .... ....|--- .... ....
....|..|--- .... ....|F-5 6FFF ....|C-3 3FE7 ....
....|..|--- .... ....|--- .... ....|--- .... ....
....|..|C-4 2F1A ....|G-5 6FFF ....|C-4 3FEA ....
....|..|--- .... ....|--- .... ....|--- .... ....
....|..|--- .... ....|C-6 6FFF ....|--- .... ....
....|..|--- .... ....|--- .... ....|--- .... ....
....|..|--- .... ....|F-5 6FFF ....|--- .... ....
....|..|--- .... ....|--- .... ....|--- .... ....
....|..|C-4 2F17 ....|G-5 6FF7 ....|C-4 3FE7 ....
....|..|--- .... ....|--- .... ....|--- .... ....
....|..|--- .... ....|C-6 6FFF ....|--- .... ....
....|..|--- .... ....|--- .... ....|--- .... ....
....|..|--- .... ....|D-6 6FFF ....|D-4 3FEF ....
....|..|--- .... ....|--- .... ....|--- .... ....
....|..|--- .... ....|G-5 6FF7 ....|R-- .... ....
....|..|--- .... ....|--- .... ....|--- .... ....
....|..|--- .... ....|C-6 6FF7 ....|--- .... ....
....|..|--- .... ....|--- .... ....|--- .... ....
....|..|--- .... ....|G-5 6FFF ....|D-4 3FEA ....
....|..|--- .... ....|--- .... ....|--- .... ....
....|..|--- .... ....|C-6 6FFF ....|R-- .... ....
....|..|--- .... ....|--- .... ....|--- .... ....
....|..|--- .... ....|C-6 6FF7 ....|--- .... ....
....|..|--- .... ....|--- .... ....|--- .... ....
....|..|--- .... ....|D-6 6FF7 ....|E-4 3FEF ....
....|..|--- .... ....|--- .... ....|--- .... ....
....|..|R-- .... ....|C-6 6FFF ....|--- .... ....
....|..|--- .... ....|--- .... ....|--- .... ....
....|..|G-3 2F1F ....|D-6 6FFF ....|G-4 3FEF ....
....|..|--- .... ....|--- .... ....|--- .... ....
....|..|--- .... ....|G-5 6FF7 ....|E-4 3FEA ....
....|..|--- .... ....|--- .... ....|--- .... ....
....|..|R-- .... ....|E-6 6FFF ....|--- .... ....
....|..|--- .... ....|--- .... ....|--- .... ....
....|..|G-3 2F1A ....|D-6 6FFA ....|G-4 3FEA ....
....|..|--- .... ....|--- .... ....|--- .... ....
....|..|--- .... ....|B-5 6FFF ....|F-4 3FEF ....
....|..|--- .... ....|--- .... ....|--- .... ....
....|..|R-- .... ....|C-6 6FF7 ....|--- .... ....
....|..|--- .... ....|--- .... ....|--- .... ....
....|..|G-3 2F17 ....|D-6 6FFF ....|G-4 3FE7 ....
....|..|--- .... ....|--- .... ....|--- .... ....
....|..|--- .... ....|B-5 6FFA ....|F-4 3FEA ....
....|..|--- .... ....|--- .... ....|--- .... ....
....|..|--- .... ....|E-6 6FFF ....|--- .... ....
....|..|--- .... ....|--- .... ....|--- .... ....
....|..|--- .... ....|D-6 6FFA ....|--- .... ....
....|..|--- .... ....|--- .... ....|--- .... ....
....|..|--- .... ....|F-6 6FFF ....|F-4 3FE7 ....
....|..|--- .... ....|--- .... ....|--- .... ....
....|..|--- .... ....|E-6 6FFA ....|--- .... ....
....|..|--- .... ....|--- .... ....|--- .... ....
....|..|--- .... ....|E-6 6FFF ....|F-4 3FEF ....
....|..|--- .... ....|--- .... ....|D-4 3FEF ....
....|..|--- .... ....|F-6 6FFA ....|--- .... ....
....|..|--- .... ....|--- .... ....|--- .... ....
....|..|--- .... ....|D-6 6FFF ....|B-3 3FEF ....
....|..|--- .... ....|--- .... ....|--- .... ....
....|..|R-- .... ....|E-6 6FFA ....|F-4 3FEA ....
....|..|--- .... ....|--- .... ....|D-4 3FEA ....

[Pattern9]
....|..|A-3 2F2F ....|F-5 6FFF ....|C-4 3FEF ....
....|..|--- .... ....|--- .... ....|--- .... ....
....|..|--- .... ....|D-6 6FFA ....|B-3 3FEA ....
....|..|--- .... ....|--- .... ....|--- .... ....
....|..|R-- .... ....|C-6 6FFF ....|F-4 3FE7 ....
....|..|--- .... ....|--- .... ....|D-4 3FE7 ....
....|..|A-3 2F2A ....|F-5 6FFF ....|C-4 3FEA ....
....|..|--- .... ....|--- .... ....|--- .... ....
....|..|--- .... ....|A-5 6FFF ....|B-3 3FE7 ....
....|..|--- .... ....|--- .... ....|--- .... ....
....|..|R-- .... ....|C-6 6FFA ....|--- .... ....
....|..|--- .... ....|--- .... ....|--- .... ....
....|..|A-3 2F27 ....|F-5 6FF7 ....|C-4 3FE7 ....
....|..|--- .... ....|--- .... ....|--- .... ....
....|..|--- .... ....|A-5 6FFF ....|--- .... ....
....|..|--- .... ....|--- .... ....|--- .... ....
....|..|--- .... ....|C-6 6FFF ....|--- .... ....
....|..|--- .... ....|--- .... ....|--- .... ....
....|..|--- .... ....|F-5 6FF7 ....|--- .... ....
....|..|--- .... ....|--- .... ....|--- .... ....
....|..|--- .... ....|A-5 6FF7 ....|--- .... ....
....|..|--- .... ....|--- .... ....|--- .... ....
....|..|--- .... ....|F-5 6FFF ....|--- .... ....
....|..|--- .... ....|--- .... ....|--- .... ....
....|..|--- .... ....|A-5 6FFF ....|--- .... ....
....|..|--- .... ....|--- .... ....|--- .... ....
....|..|--- .... ....|A-5 6FF7 ....|--- .... ....
....|..|--- .... ....|--- .... ....|--- .... ....
....|..|A-3 2F.F ....|C-6 6FF7 ....|--- .... ....
....|..|R-- .... ....|--- .... ....|--- .... ....
....|..|--- .... ....|A-5 6FFF ....|--- .... ....
....|..|--- .... ....|--- .... ....|--- .... ....
....|..|G-3 2F3F ....|C-6 6FFF ....|--- .... ....
....|..|--- .... ....|--- .... ....|--- .... ....
....|..|A-3 2F.A ....|F-5 6FF7 ....|--- .... ....
....|..|R-- .... ....|--- .... ....|--- .... ....
....|..|--- .... ....|A-5 6FF7 ....|--- .... ....
....|..|--- .... ....|--- .... ....|--- .... ....
....|..|G-3 2F3A ....|E-5 6FFF ....|--- .... ....
....|..|--- .... ....|--- .... ....|R-- .... ....
....|..|A-3 2F.7 ....|A-5 6FFF ....|B-4 3FEF ....
....|..|R-- .... ....|--- .... ....|--- .... ....
....|..|--- .... ....|A-5 6FF7 ....|--- .... ....
....|..|--- .... ....|--- .... ....|--- .... ....
....|..|G-3 2F37 ....|C-6 6FF7 ....|R-- .... ....
....|..|--- .... ....|--- .... ....|R-- .... ....
....|..|--- .... ....|A-5 6FFF ....|B-4 3FEA ....
....|..|--- .... ....|--- .... ....|--- .... ....
....|..|G-3 2F1F ....|B-5 6FFF ....|C-5 3FEF ....
....|..|--- .... ....|--- .... ....|--- .... ....
....|..|--- .... ....|E-5 6FF7 ....|R-- .... ....
....|..|--- .... ....|--- .... ....|R-- .... ....
....|..|--- .... ....|A-5 6FF7 ....|B-4 3FE7 ....
....|..|--- .... ....|--- .... ....|R-- .... ....
....|..|G-3 2F1A ....|E-5 6FFF ....|C-5 3FEA ....
....|..|--- .... ....|--- .... ....|--- .... ....
....|..|--- .... ....|A-5 6FFF ....|B-4 3FEF ....
....|..|--- .... ....|--- .... ....|--- .... ....
....|..|--- .... ....|A-5 6FF7 ....|--- .... ....
....|..|--- .... ....|--- .... ....|R-- .... ....
....|..|G-3 2F17 ....|B-5 6FF7 ....|C-5 3FE7 ....
....|..|--- .... ....|--- .... ....|--- .... ....
....|..|--- .... ....|A-5 6FFF ....|B-4 3FEA ....
....|..|--- .... ....|--- .... ....|--- .... ....

[Pattern10]
....|..|C-4 2F1F ....|G-5 6FFF ....|C-4 3FEF ....
....|..|--- .... ....|--- .... ....|R-- .... ....
....|..|--- .... ....|E-5 6FF7 ....|R-- .... ....
....|..|--- .... ....|--- .... ....|R-- .... ....
....|..|--- .... ....|A-5 6FF7 ....|B-3 3FEF ....
....|..|--- .... ....|--- .... ....|--- .... ....
....|..|C-4 2F1A ....|G-5 6FFF ....|C-4 3FEA ....
....|..|--- .... ....|--- .... ....|R-- .... ....
....|..|--- .... ....|C-6 6FFF ....|C-4 3FEF ....
....|..|--- .... ....|--- .... ....|R-- .... ....
....|..|--- .... ....|A-5 6FF7 ....|B-3 3FEA ....
....|..|--- .... ....|--- .... ....|--- .... ....
....|..|C-4 2F17 ....|G-5 6FF7 ....|C-4 3FE7 ....
....|..|--- .... ....|--- .... ....|R-- .... ....
....|..|--- .... ....|C-6 6FFF ....|C-4 3FEA ....
....|..|--- .... ....|--- .... ....|R-- .... ....
....|..|--- .... ....|D-6 6FFF ....|B-3 3FE7 ....
....|..|--- .... ....|--- .... ....|--- .... ....
....|..|--- .... ....|G-5 6FF7 ....|--- .... ....
....|..|--- .... ....|--- .... ....|R-- .... ....
....|..|--- .... ....|C-6 6FF7 ....|C-4 3FE7 ....
....|..|--- .... ....|--- .... ....|--- .... ....
....|..|--- .... ....|G-5 6FFF ....|--- .... ....
....|..|--- .... ....|--- .... ....|--- .... ....
....|..|--- .... ....|C-6 6FFF ....|--- .... ....
....|..|--- .... ....|--- .... ....|--- .... ....
....|..|--- .... ....|C-6 6FF7 ....|--- .... ....
....|..|--- .... ....|--- .... ....|--- .... ....
....|..|--- .... ....|D-6 6FF7 ....|--- .... ....
....|..|--- .... ....|--- .... ....|--- .... ....
....|..|R-- .... ....|C-6 6FFF ....|--- .... ....
....|..|--- .... ....|--- .... ....|--- .... ....
....|..|G-3 2F1F ....|D-6 6FFF ....|D-3 3FEF ....
....|..|--- .... ....|--- .... ....|--- .... ....
....|..|--- .... ....|G-5 6FF7 ....|--- .... ....
....|..|--- .... ....|--- .... ....|--- .... ....
....|..|R-- .... ....|C-6 6FF7 ....|--- .... ....
....|..|--- .... ....|--- .... ....|--- .... ....
....|..|G-3 2F1A ....|D-6 6FFA ....|D-3 3FEA ....
....|..|--- .... ....|--- .... ....|--- .... ....
....|..|--- .... ....|R-- .... ....|--- .... ....
....|..|--- .... ....|--- .... ....|--- .... ....
....|..|R-- .... ....|C-6 6FF7 ....|--- .... ....
....|..|--- .... ....|--- .... ....|--- .... ....
....|..|G-3 2F17 ....|D-6 6FF7 ....|D-3 3FE7 ....
....|..|--- .... ....|--- .... ....|--- .... ....
....|..|--- .... ....|R-- .... ....|--- .... ....
....|..|--- .... ....|--- .... ....|--- .... ....
....|..|--- .... ....|--- .... ....|E-3 3FEF ....
....|..|--- .... ....|--- .... ....|--- .... ....
....|..|--- .... ....|--- .... ....|--- .... ....
....|..|--- .... ....|--- .... ....|--- .... ....
....|..|--- .... ....|--- .... ....|R-- .... ....
....|..|--- .... ....|--- .... ....|--- .... ....
....|..|--- .... ....|--- .... ....|E-3 3FEA ....
....|..|--- .... ....|--- .... ....|--- .... ....
....|..|--- .... ....|--- .... ....|F-3 3FEF ....
....|..|--- .... ....|--- .... ....|--- .... ....
....|..|--- .... ....|--- .... ....|R-- .... ....
....|..|--- .... ....|--- .... ....|--- .... ....
....|..|--- .... ....|--- .... ....|E-3 3FE7 ....
....|..|--- .... ....|--- .... ....|--- .... ....
....|..|R-- .... ....|--- .... ....|F-3 3FEA ....
....|..|--- .... ....|--- .... ....|--- .... ....

[Pattern11]
....|..|A-3 2F2F ....|F-5 6FFF ....|C-4 3FEF ....
....|..|--- .... ....|--- .... ....|--- .... ....
....|..|--- .... ....|R-- .... ....|R-- .... ....
....|..|--- .... ....|--- .... ....|--- .... ....
....|..|R-- .... ....|--- .... ....|F-3 3FE7 ....
....|..|--- .... ....|--- .... ....|--- .... ....
....|..|A-3 2F2A ....|F-5 6FFF ....|C-4 3FEA ....
....|..|--- .... ....|--- .... ....|--- .... ....
....|..|--- .... ....|A-5 6FFF ....|R-- .... ....
....|..|--- .... ....|--- .... ....|--- .... ....
....|..|R-- .... ....|R-- .... ....|--- .... ....
....|..|--- .... ....|--- .... ....|--- .... ....
....|..|A-3 2F27 ....|F-5 6FF7 ....|C-4 3FE7 ....
....|..|--- .... ....|--- .... ....|--- .... ....
....|..|--- .... ....|A-5 6FFF ....|--- .... ....
....|..|--- .... ....|--- .... ....|--- .... ....
....|..|--- .... ....|C-6 6FFF ....|D-3 3FEF ....
....|..|--- .... ....|--- .... ....|--- .... ....
....|..|--- .... ....|F-5 6FF7 ....|--- .... ....
....|..|--- .... ....|--- .... ....|--- .... ....
....|..|--- .... ....|A-5 6FF7 ....|R-- .... ....
....|..|--- .... ....|--- .... ....|--- .... ....
....|..|--- .... ....|F-5 6FFF ....|D-3 3FEA ....
....|..|--- .... ....|--- .... ....|--- .... ....
....|..|--- .... ....|A-5 6FFF ....|E-3 3FEF ....
....|..|--- .... ....|--- .... ....|--- .... ....
....|..|--- .... ....|A-5 6FF7 ....|R-- .... ....
....|..|--- .... ....|--- .... ....|--- .... ....
....|..|A-3 2F.F ....|C-6 6FF7 ....|D-3 3FE7 ....
....|..|R-- .... ....|--- .... ....|--- .... ....
....|..|--- .... ....|A-5 6FFF ....|E-3 3FEA ....
....|..|--- .... ....|--- .... ....|--- .... ....
....|..|G-3 2F3F ....|C-6 6FFF ....|B-3 3FEF ....
....|..|--- .... ....|--- .... ....|--- .... ....
....|..|A-3 2F.A ....|F-5 6FF7 ....|R-- .... ....
....|..|R-- .... ....|--- .... ....|--- .... ....
....|..|--- .... ....|A-5 6FF7 ....|E-3 3FE7 ....
....|..|--- .... ....|--- .... ....|--- .... ....
....|..|G-3 2F3A ....|E-5 6FFF ....|B-3 3FEA ....
....|..|--- .... ....|--- .... ....|--- .... ....
....|..|A-3 2F.7 ....|A-5 6FFF ....|R-- .... ....
....|..|R-- .... ....|--- .... ....|--- .... ....
....|..|--- .... ....|A-5 6FF7 ....|--- .... ....
....|..|--- .... ....|--- .... ....|--- .... ....
....|..|G-3 2F37 ....|C-6 6FF7 ....|B-3 3FE7 ....
....|..|--- .... ....|--- .... ....|--- .... ....
....|..|--- .... ....|A-5 6FFF ....|--- .... ....
....|..|--- .... ....|--- .... ....|--- .... ....
....|..|F-3 2F3F ....|B-5 6FFF ....|D-3 3FEF ....
....|..|--- .... ....|--- .... ....|--- .... ....
....|..|--- .... ....|E-5 6FF7 ....|--- .... ....
....|..|--- .... ....|--- .... ....|--- .... ....
....|..|--- .... ....|A-5 6FF7 ....|E-3 3FEF ....
....|..|--- .... ....|--- .... ....|--- .... ....
....|..|F-3 2F3A ....|E-5 6FFF ....|F-3 3FEF ....
....|..|--- .... ....|--- .... ....|--- .... ....
....|..|--- .... ....|A-5 6FFF ....|E-3 3FEF ....
....|..|--- .... ....|--- .... ....|--- .... ....
....|..|--- .... ....|A-5 6FF7 ....|E-3 3FEA ....
....|..|--- .... ....|--- .... ....|--- .... ....
....|..|F-3 2F37 ....|B-5 6FF7 ....|F-3 3FEF ....
....|..|--- .... ....|--- .... ....|--- .... ....
....|..|--- .... ....|A-5 6FFF ....|E-3 3FEA ....
....|..|--- .... ....|--- .... ....|--- .... ....

[Pattern12]
....|..|C-4 2F1F ....|G-5 6FFF ....|C-5 3FEF ....
....|..|--- .... ....|--- .... ....|--- .... ....
....|..|--- .... ....|E-5 6FF7 ....|F-3 3FE7 ....
....|..|--- .... ....|--- .... ....|--- .... ....
....|..|--- .... ....|F-5 6FFF ....|E-3 3FE7 ....
....|..|--- .... ....|--- .... ....|--- .... ....
....|..|C-4 2F1A ....|G-5 6FFF ....|C-5 3FEA ....
....|..|--- .... ....|--- .... ....|--- .... ....
....|..|--- .... ....|C-6 6FFF ....|F-3 3FE7 ....
....|..|--- .... ....|--- .... ....|--- .... ....
....|..|--- .... ....|F-5 6FFF ....|--- .... ....
....|..|--- .... ....|--- .... ....|--- .... ....
....|..|C-4 2F17 ....|G-5 6FF7 ....|C-5 3FE7 ....
....|..|--- .... ....|--- .... ....|--- .... ....
....|..|--- .... ....|C-6 6FFF ....|--- .... ....
....|..|--- .... ....|--- .... ....|--- .... ....
....|..|--- .... ....|D-6 6FFF ....|G-4 3FEF ....
....|..|--- .... ....|--- .... ....|--- .... ....
....|..|--- .... ....|G-5 6FF7 ....|R-- .... ....
....|..|--- .... ....|--- .... ....|--- .... ....
....|..|--- .... ....|C-6 6FF7 ....|--- .... ....
....|..|--- .... ....|--- .... ....|--- .... ....
....|..|--- .... ....|G-5 6FFF ....|G-4 3FEA ....
....|..|--- .... ....|--- .... ....|--- .... ....
....|..|--- .... ....|C-6 6FFF ....|R-- .... ....
....|..|--- .... ....|--- .... ....|--- .... ....
....|..|--- .... ....|C-6 6FF7 ....|--- .... ....
....|..|--- .... ....|--- .... ....|--- .... ....
....|..|--- .... ....|D-6 6FF7 ....|A-4 3FEF ....
....|..|--- .... ....|--- .... ....|--- .... ....
....|..|R-- .... ....|C-6 6FFF ....|--- .... ....
....|..|--- .... ....|--- .... ....|R-- .... ....
....|..|G-3 2F1F ....|D-6 6FFF ....|B-4 3FEF ....
....|..|--- .... ....|--- .... ....|--- .... ....
....|..|--- .... ....|G-5 6FF7 ....|A-4 3FEA ....
....|..|--- .... ....|--- .... ....|--- .... ....
....|..|R-- .... ....|E-6 6FFF ....|--- .... ....
....|..|--- .... ....|--- .... ....|R-- .... ....
....|..|G-3 2F1A ....|D-6 6FFA ....|B-4 3FEA ....
....|..|--- .... ....|--- .... ....|--- .... ....
....|..|--- .... ....|B-5 6FFF ....|D-4 3FEF ....
....|..|--- .... ....|--- .... ....|--- .... ....
....|..|R-- .... ....|C-6 6FF7 ....|--- .... ....
....|..|--- .... ....|--- .... ....|R-- .... ....
....|..|G-3 2F17 ....|D-6 6FFF ....|B-4 3FE7 ....
....|..|--- .... ....|--- .... ....|--- .... ....
....|..|--- .... ....|B-5 6FFA ....|D-4 3FEA ....
....|..|--- .... ....|--- .... ....|--- .... ....
....|..|--- .... ....|E-6 6FFF ....|--- .... ....
....|..|--- .... ....|--- .... ....|--- .... ....
....|..|--- .... ....|D-6 6FFA ....|--- .... ....
....|..|--- .... ....|--- .... ....|--- .... ....
....|..|--- .... ....|F-6 6FFF ....|D-4 3FE7 ....
....|..|--- .... ....|--- .... ....|--- .... ....
....|..|--- .... ....|E-6 6FFA ....|--- .... ....
....|..|--- .... ....|--- .... ....|--- .... ....
....|..|--- .... ....|E-6 6FFF ....|E-4 3FEF ....
....|..|--- .... ....|--- .... ....|E-4 3FEF ....
....|..|--- .... ....|F-6 6FFA ....|--- .... ....
....|..|--- .... ....|--- .... ....|--- .... ....
....|..|--- .... ....|D-6 6FFF ....|F-4 3FEF ....
....|..|--- .... ....|--- .... ....|--- .... ....
....|..|R-- .... ....|E-6 6FFA ....|E-4 3FEA ....
....|..|--- .... ....|--- .... ....|E-4 3FEA ....

[Pattern13]
....|..|A-3 2F2F ....|F-5 6FFF ....|F-4 3FEF ....
....|..|--- .... ....|--- .... ....|C-4 3FEF ....
....|..|--- .... ....|D-6 6FFA ....|F-4 3FEA ....
....|..|--- .... ....|--- .... ....|--- .... ....
....|..|R-- .... ....|C-6 6FFF ....|E-4 3FE7 ....
....|..|--- .... ....|--- .... ....|E-4 3FE7 ....
....|..|A-3 2F2A ....|F-5 6FFF ....|F-4 3FEA ....
....|..|--- .... ....|--- .... ....|C-4 3FEA ....
....|..|--- .... ....|A-5 6FFF ....|F-4 3FE7 ....
....|..|--- .... ....|--- .... ....|--- .... ....
....|..|R-- .... ....|C-6 6FFA ....|--- .... ....
....|..|--- .... ....|--- .... ....|--- .... ....
....|..|A-3 2F27 ....|F-5 6FF7 ....|F-4 3FE7 ....
....|..|--- .... ....|--- .... ....|C-4 3FE7 ....
....|..|--- .... ....|A-5 6FFF ....|--- .... ....
....|..|--- .... ....|--- .... ....|--- .... ....
....|..|--- .... ....|C-6 6FFF ....|--- .... ....
....|..|--- .... ....|--- .... ....|--- .... ....
....|..|--- .... ....|F-5 6FF7 ....|--- .... ....
....|..|--- .... ....|--- .... ....|--- .... ....
....|..|--- .... ....|A-5 6FF7 ....|--- .... ....
....|..|--- .... ....|--- .... ....|--- .... ....
....|..|--- .... ....|F-5 6FFF ....|--- .... ....
....|..|--- .... ....|--- .... ....|--- .... ....
....|..|--- .... ....|A-5 6FFF ....|--- .... ....
....|..|--- .... ....|--- .... ....|--- .... ....
....|..|--- .... ....|A-5 6FF7 ....|--- .... ....
....|..|--- .... ....|--- .... ....|--- .... ....
....|..|A-3 2F.F ....|C-6 6FF7 ....|--- .... ....
....|..|R-- .... ....|--- .... ....|--- .... ....
....|..|--- .... ....|A-5 6FFF ....|--- .... ....
....|..|--- .... ....|--- .... ....|--- .... ....
....|..|G-3 2F3F ....|C-6 6FFF ....|--- .... ....
....|..|--- .... ....|--- .... ....|--- .... ....
....|..|A-3 2F.A ....|F-5 6FF7 ....|--- .... ....
....|..|R-- .... ....|--- .... ....|--- .... ....
....|..|--- .... ....|A-5 6FF7 ....|--- .... ....
....|..|--- .... ....|--- .... ....|--- .... ....
....|..|G-3 2F3A ....|E-5 6FFF ....|--- .... ....
....|..|--- .... ....|--- .... ....|R-- .... ....
....|..|A-3 2F.7 ....|A-5 6FFF ....|B-3 3FEF ....
....|..|R-- .... ....|--- .... ....|--- .... ....
....|..|--- .... ....|A-5 6FF7 ....|--- .... ....
....|..|--- .... ....|--- .... ....|--- .... ....
....|..|G-3 2F37 ....|C-6 6FF7 ....|R-- .... ....
....|..|--- .... ....|--- .... ....|R-- .... ....
....|..|--- .... ....|A-5 6FFF ....|B-3 3FEA ....
....|..|--- .... ....|--- .... ....|--- .... ....
....|..|G-3 2F1F ....|B-5 6FFF ....|C-4 3FEF ....
....|..|--- .... ....|--- .... ....|--- .... ....
....|..|--- .... ....|E-5 6FF7 ....|R-- .... ....
....|..|--- .... ....|--- .... ....|R-- .... ....
....|..|--- .... ....|A-5 6FF7 ....|B-3 3FE7 ....
....|..|--- .... ....|--- .... ....|R-- .... ....
....|..|G-3 2F1A ....|E-5 6FFF ....|C-4 3FEA ....
....|..|--- .... ....|--- .... ....|--- .... ....
....|..|--- .... ....|A-5 6FFF ....|B-3 3FEF ....
....|..|--- .... ....|--- .... ....|--- .... ....
....|..|--- .... ....|A-5 6FF7 ....|--- .... ....
....|..|--- .... ....|--- .... ....|R-- .... ....
....|..|G-3 2F17 ....|B-5 6FF7 ....|C-4 3FE7 ....
....|..|--- .... ....|--- .... ....|--- .... ....
....|..|--- .... ....|A-5 6FFF ....|B-3 3FEA ....
....|..|--- .... ....|--- .... ....|--- .... ....

[Pattern14]
....|..|C-4 2F1F ....|G-5 6FFF ....|G-4 3FEF ....
....|..|--- .... ....|--- .... ....|R-- .... ....
....|..|--- .... ....|E-5 6FF7 ....|R-- .... ....
....|..|--- .... ....|--- .... ....|R-- .... ....
....|..|--- .... ....|A-5 6FF7 ....|F-4 3FEF ....
....|..|--- .... ....|--- .... ....|--- .... ....
....|..|C-4 2F1A ....|G-5 6FFF ....|G-4 3FEA ....
....|..|--- .... ....|--- .... ....|R-- .... ....
....|..|--- .... ....|C-6 6FFF ....|G-4 3FEF ....
....|..|--- .... ....|--- .... ....|R-- .... ....
....|..|--- .... ....|A-5 6FF7 ....|F-4 3FEA ....
....|..|--- .... ....|--- .... ....|--- .... ....
....|..|C-4 2F17 ....|G-5 6FF7 ....|G-4 3FE7 ....
....|..|--- .... ....|--- .... ....|R-- .... ....
....|..|--- .... ....|C-6 6FFF ....|G-4 3FEA ....
....|..|--- .... ....|--- .... ....|R-- .... ....
....|..|--- .... ....|D-6 6FFF ....|E-4 3FEF ....
....|..|--- .... ....|--- .... ....|--- .... ....
....|..|--- .... ....|G-5 6FF7 ....|--- .... ....
....|..|--- .... ....|--- .... ....|R-- .... ....
....|..|--- .... ....|C-6 6FF7 ....|D-4 3FEF ....
....|..|--- .... ....|--- .... ....|--- .... ....
....|..|--- .... ....|G-5 6FFF ....|E-4 3FEA ....
....|..|--- .... ....|--- .... ....|R-- .... ....
....|..|--- .... ....|C-6 6FFF ....|E-4 3FEF ....
....|..|--- .... ....|--- .... ....|R-- .... ....
....|..|--- .... ....|C-6 6FF7 ....|D-4 3FEA ....
....|..|--- .... ....|--- .... ....|--- .... ....
....|..|--- .... ....|D-6 6FF7 ....|E-4 3FE7 ....
....|..|--- .... ....|--- .... ....|R-- .... ....
....|..|R-- .... ....|C-6 6FFF ....|E-4 3FEA ....
....|..|--- .... ....|--- .... ....|R-- .... ....
....|..|G-3 2F1F ....|D-6 6FFF ....|D-4 3FEF ....
....|..|--- .... ....|--- .... ....|--- .... ....
....|..|--- .... ....|G-5 6FF7 ....|--- .... ....
....|..|--- .... ....|--- .... ....|R-- .... ....
....|..|R-- .... ....|C-6 6FF7 ....|E-4 3FE7 ....
....|..|--- .... ....|--- .... ....|--- .... ....
....|..|G-3 2F1A ....|D-6 6FFA ....|D-4 3FEA ....
....|..|--- .... ....|--- .... ....|--- .... ....
....|..|--- .... ....|R-- .... ....|--- .... ....
....|..|--- .... ....|--- .... ....|--- .... ....
....|..|R-- .... ....|C-6 6FF7 ....|--- .... ....
....|..|--- .... ....|--- .... ....|--- .... ....
....|..|G-3 2F17 ....|D-6 6FF7 ....|D-4 3FE7 ....
....|..|--- .... ....|--- .... ....|--- .... ....
....|..|--- .... ....|R-- .... ....|--- .... ....
....|..|--- .... ....|--- .... ....|--- .... ....
....|..|--- .... ....|--- .... ....|E-4 3FEF ....
....|..|--- .... ....|--- .... ....|--- .... ....
....|..|--- .... ....|--- .... ....|--- .... ....
....|..|--- .... ....|--- .... ....|--- .... ....
....|..|--- .... ....|--- .... ....|F-4 3FEF ....
....|..|--- .... ....|--- .... ....|--- .... ....
....|..|--- .... ....|--- .... ....|E-4 3FEA ....
....|..|--- .... ....|--- .... ....|--- .... ....
....|..|--- .... ....|--- .... ....|E-4 3FEF ....
....|..|--- .... ....|--- .... ....|--- .... ....
....|..|--- .... ....|--- .... ....|F-4 3FEA ....
....|..|--- .... ....|--- .... ....|--- .... ....
....|..|--- .... ....|--- .... ....|F-4 3FEF ....
....|..|--- .... ....|--- .... ....|--- .... ....
....|..|R-- .... ....|--- .... ....|E-4 3FEA ....
....|..|--- .... ....|--- .... ....|--- .... ....

[Pattern15]
....|..|A-3 2F2F ....|F-5 6FFF ....|C-4 3FEF ....
....|..|--- .... ....|--- .... ....|--- .... ....
....|..|--- .... ....|R-- .... ....|F-4 3FEA ....
....|..|--- .... ....|--- .... ....|--- .... ....
....|..|R-- .... ....|--- .... ....|B-3 3FEF ....
....|..|--- .... ....|--- .... ....|--- .... ....
....|..|A-3 2F2A ....|F-5 6FFF ....|C-4 3FEA ....
....|..|--- .... ....|--- .... ....|--- .... ....
....|..|--- .... ....|A-5 6FFF ....|C-4 3FEF ....
....|..|--- .... ....|--- .... ....|--- .... ....
....|..|R-- .... ....|R-- .... ....|B-3 3FEA ....
....|..|--- .... ....|--- .... ....|--- .... ....
....|..|A-3 2F27 ....|F-5 6FF7 ....|C-4 3FE7 ....
....|..|--- .... ....|--- .... ....|--- .... ....
....|..|--- .... ....|A-5 6FFF ....|C-4 3FEA ....
....|..|--- .... ....|--- .... ....|--- .... ....
....|..|--- .... ....|C-6 6FFF ....|E-4 3FEF ....
....|..|--- .... ....|--- .... ....|--- .... ....
....|..|--- .... ....|F-5 6FF7 ....|R-- .... ....
....|..|--- .... ....|--- .... ....|--- .... ....
....|..|--- .... ....|A-5 6FF7 ....|D-4 3FEF ....
....|..|--- .... ....|--- .... ....|--- .... ....
....|..|--- .... ....|F-5 6FFF ....|E-4 3FEA ....
....|..|--- .... ....|--- .... ....|--- .... ....
....|..|--- .... ....|A-5 6FFF ....|E-4 3FEF ....
....|..|--- .... ....|--- .... ....|--- .... ....
....|..|--- .... ....|A-5 6FF7 ....|D-4 3FEA ....
....|..|--- .... ....|--- .... ....|--- .... ....
....|..|A-3 2F.F ....|C-6 6FF7 ....|E-4 3FE7 ....
....|..|R-- .... ....|--- .... ....|--- .... ....
....|..|--- .... ....|A-5 6FFF ....|E-4 3FEA ....
....|..|--- .... ....|--- .... ....|--- .... ....
....|..|G-3 2F3F ....|C-6 6FFF ....|B-3 3FEF ....
....|..|--- .... ....|--- .... ....|--- .... ....
....|..|A-3 2F.A ....|F-5 6FF7 ....|R-- .... ....
....|..|R-- .... ....|--- .... ....|--- .... ....
....|..|--- .... ....|A-5 6FF7 ....|E-4 3FE7 ....
....|..|--- .... ....|--- .... ....|--- .... ....
....|..|G-3 2F3A ....|E-5 6FFF ....|B-3 3FEA ....
....|..|--- .... ....|--- .... ....|--- .... ....
....|..|A-3 2F.7 ....|A-5 6FFF ....|R-- .... ....
....|..|R-- .... ....|--- .... ....|--- .... ....
....|..|--- .... ....|A-5 6FF7 ....|--- .... ....
....|..|--- .... ....|--- .... ....|--- .... ....
....|..|G-3 2F37 ....|C-6 6FF7 ....|B-3 3FE7 ....
....|..|--- .... ....|--- .... ....|--- .... ....
....|..|--- .... ....|A-5 6FFF ....|--- .... ....
....|..|--- .... ....|--- .... ....|--- .... ....
....|..|F-3 2F3F ....|B-5 6FFF ....|D-4 3FEF ....
....|..|--- .... ....|--- .... ....|--- .... ....
....|..|--- .... ....|E-5 6FF7 ....|--- .... ....
....|..|--- .... ....|--- .... ....|--- .... ....
....|..|--- .... ....|A-5 6FF7 ....|--- .... ....
....|..|--- .... ....|--- .... ....|--- .... ....
....|..|F-3 2F3A ....|E-5 6FFF ....|D-4 3FEA ....
....|..|--- .... ....|--- .... ....|--- .... ....
....|..|--- .... ....|A-5 6FFF ....|C-4 3FEF ....
....|..|--- .... ....|--- .... ....|--- .... ....
....|..|--- .... ....|A-5 6FF7 ....|--- .... ....
....|..|--- .... ....|--- .... ....|--- .... ....
....|..|F-3 2F37 ....|B-5 6FF7 ....|D-4 3FE7 ....
....|..|--- .... ....|--- .... ....|--- .... ....
....|..|--- .... ....|A-5 6FFF ....|C-4 3FEA ....
....|..|--- .... ....|--- .... ....|--- .... ....

[Pattern16]
....|..|C-4 2F1F ....|G-5 6FFF ....|C-5 3FEF ....
....|..|--- .... ....|--- .... ....|--- .... ....
....|..|--- .... ....|E-5 6FF7 ....|--- .... ....
....|..|--- .... ....|--- .... ....|--- .... ....
....|..|--- .... ....|F-5 6FFF ....|C-4 3FE7 ....
....|..|--- .... ....|--- .... ....|--- .... ....
....|..|C-4 2F1A ....|G-5 6FFF ....|C-5 3FEA ....
....|..|--- .... ....|--- .... ....|--- .... ....
....|..|--- .... ....|C-6 6FFF ....|--- .... ....
....|..|--- .... ....|--- .... ....|--- .... ....
....|..|--- .... ....|F-5 6FFF ....|--- .... ....
....|..|--- .... ....|--- .... ....|--- .... ....
....|..|C-4 2F17 ....|G-5 6FF7 ....|C-5 3FE7 ....
....|..|--- .... ....|--- .... ....|--- .... ....
....|..|--- .... ....|C-6 6FFF ....|--- .... ....
....|..|--- .... ....|--- .... ....|--- .... ....
....|..|--- .... ....|D-6 6FFF ....|G-4 3FEF ....
....|..|--- .... ....|--- .... ....|--- .... ....
....|..|--- .... ....|G-5 6FF7 ....|R-- .... ....
....|..|--- .... ....|--- .... ....|--- .... ....
....|..|--- .... ....|C-6 6FF7 ....|--- .... ....
....|..|--- .... ....|--- .... ....|--- .... ....
....|..|--- .... ....|G-5 6FFF ....|G-4 3FEA ....
....|..|--- .... ....|--- .... ....|--- .... ....
....|..|--- .... ....|C-6 6FFF ....|R-- .... ....
....|..|--- .... ....|--- .... ....|--- .... ....
....|..|--- .... ....|C-6 6FF7 ....|--- .... ....
....|..|--- .... ....|--- .... ....|--- .... ....
....|..|--- .... ....|D-6 6FF7 ....|A-4 3FEF ....
....|..|--- .... ....|--- .... ....|--- .... ....
....|..|R-- .... ....|C-6 6FFF ....|--- .... ....
....|..|--- .... ....|--- .... ....|R-- .... ....
....|..|G-3 2F1F ....|D-6 6FFF ....|B-4 3FEF ....
....|..|--- .... ....|--- .... ....|--- .... ....
....|..|--- .... ....|G-5 6FF7 ....|A-4 3FEA ....
....|..|--- .... ....|--- .... ....|--- .... ....
....|..|R-- .... ....|E-6 6FFF ....|--- .... ....
....|..|--- .... ....|--- .... ....|R-- .... ....
....|..|G-3 2F1A ....|D-6 6FFA ....|B-4 3FEA ....
....|..|--- .... ....|--- .... ....|--- .... ....
....|..|--- .... ....|B-5 6FFF ....|D-4 3FEF ....
....|..|--- .... ....|--- .... ....|--- .... ....
....|..|R-- .... ....|C-6 6FF7 ....|--- .... ....
....|..|--- .... ....|--- .... ....|R-- .... ....
....|..|G-3 2F17 ....|D-6 6FFF ....|B-4 3FE7 ....
....|..|--- .... ....|--- .... ....|--- .... ....
....|..|--- .... ....|B-5 6FFA ....|D-4 3FEA ....
....|..|--- .... ....|--- .... ....|--- .... ....
....|..|--- .... ....|E-6 6FFF ....|--- .... ....
....|..|--- .... ....|--- .... ....|--- .... ....
....|..|--- .... ....|D-6 6FFA ....|--- .... ....
....|..|--- .... ....|--- .... ....|--- .... ....
....|..|--- .... ....|F-6 6FFF ....|D-4 3FE7 ....
....|..|--- .... ....|--- .... ....|--- .... ....
....|..|--- .... ....|E-6 6FFA ....|--- .... ....
....|..|--- .... ....|--- .... ....|--- .... ....
....|..|--- .... ....|E-6 6FFF ....|E-4 3FEF ....
....|..|--- .... ....|--- .... ....|E-4 3FEF ....
....|..|--- .... ....|F-6 6FFA ....|--- .... ....
....|..|--- .... ....|--- .... ....|--- .... ....
....|..|--- .... ....|D-6 6FFF ....|F-4 3FEF ....
....|..|--- .... ....|--- .... ....|--- .... ....
....|..|R-- .... ....|E-6 6FFA ....|E-4 3FEA ....
....|..|--- .... ....|--- .... ....|E-4 3FEA ....

[Pattern17]
....|..|A-3 2F2F ....|F-5 6FFF ....|F-4 3FEF ....
....|..|--- .... ....|--- .... ....|C-4 3FEF ....
....|..|--- .... ....|D-6 6FFA ....|F-4 3FEA ....
....|..|--- .... ....|--- .... ....|--- .... ....
....|..|R-- .... ....|C-6 6FFF ....|E-4 3FE7 ....
....|..|--- .... ....|--- .... ....|E-4 3FE7 ....
....|..|A-3 2F2A ....|F-5 6FFF ....|F-4 3FEA ....
....|..|--- .... ....|--- .... ....|C-4 3FEA ....
....|..|--- .... ....|A-5 6FFF ....|F-4 3FE7 ....
....|..|--- .... ....|--- .... ....|--- .... ....
....|..|R-- .... ....|C-6 6FFA ....|--- .... ....
....|..|--- .... ....|--- .... ....|--- .... ....
....|..|A-3 2F27 ....|F-5 6FF7 ....|F-4 3FE7 ....
....|..|--- .... ....|--- .... ....|C-4 3FE7 ....
....|..|--- .... ....|A-5 6FFF ....|--- .... ....
....|..|--- .... ....|--- .... ....|--- .... ....
....|..|--- .... ....|C-6 6FFF ....|G-3 3FEF ....
....|..|--- .... ....|--- .... ....|--- .... ....
....|..|--- .... ....|F-5 6FF7 ....|R-- .... ....
....|..|--- .... ....|--- .... ....|--- .... ....
....|..|--- .... ....|A-5 6FF7 ....|--- .... ....
....|..|--- .... ....|--- .... ....|--- .... ....
....|..|--- .... ....|F-5 6FFF ....|G-3 3FEA ....
....|..|--- .... ....|--- .... ....|--- .... ....
....|..|--- .... ....|A-5 6FFF ....|R-- .... ....
....|..|--- .... ....|--- .... ....|--- .... ....
....|..|--- .... ....|A-5 6FF7 ....|--- .... ....
....|..|--- .... ....|--- .... ....|--- .... ....
....|..|A-3 2F.F ....|C-6 6FF7 ....|A-3 3FEF ....
....|..|R-- .... ....|--- .... ....|--- .... ....
....|..|--- .... ....|A-5 6FFF ....|--- .... ....
....|..|--- .... ....|--- .... ....|R-- .... ....
....|..|G-3 2F3F ....|C-6 6FFF ....|B-3 3FEF ....
....|..|--- .... ....|--- .... ....|--- .... ....
....|..|A-3 2F.A ....|F-5 6FF7 ....|A-3 3FEA ....
....|..|R-- .... ....|--- .... ....|--- .... ....
....|..|--- .... ....|A-5 6FF7 ....|--- .... ....
....|..|--- .... ....|--- .... ....|R-- .... ....
....|..|G-3 2F3A ....|E-5 6FFF ....|B-3 3FEA ....
....|..|--- .... ....|--- .... ....|--- .... ....
....|..|A-3 2F.7 ....|A-5 6FFF ....|D-3 3FEF ....
....|..|R-- .... ....|--- .... ....|--- .... ....
....|..|--- .... ....|A-5 6FF7 ....|--- .... ....
....|..|--- .... ....|--- .... ....|R-- .... ....
....|..|G-3 2F37 ....|C-6 6FF7 ....|B-3 3FE7 ....
....|..|--- .... ....|--- .... ....|--- .... ....
....|..|--- .... ....|A-5 6FFF ....|D-3 3FEA ....
....|..|--- .... ....|--- .... ....|--- .... ....
....|..|G-3 2F1F ....|B-5 6FFF ....|--- .... ....
....|..|--- .... ....|--- .... ....|--- .... ....
....|..|--- .... ....|E-5 6FF7 ....|--- .... ....
....|..|--- .... ....|--- .... ....|--- .... ....
....|..|--- .... ....|A-5 6FF7 ....|D-3 3FE7 ....
....|..|--- .... ....|--- .... ....|--- .... ....
....|..|G-3 2F1A ....|E-5 6FFF ....|--- .... ....
....|..|--- .... ....|--- .... ....|--- .... ....
....|..|--- .... ....|A-5 6FFF ....|E-3 3FEF ....
....|..|--- .... ....|--- .... ....|E-3 3FEF ....
....|..|--- .... ....|A-5 6FF7 ....|--- .... ....
....|..|--- .... ....|--- .... ....|--- .... ....
....|..|G-3 2F17 ....|B-5 6FF7 ....|F-3 3FEF ....
....|..|--- .... ....|--- .... ....|--- .... ....
....|..|--- .... ....|A-5 6FFF ....|E-3 3FEA ....
....|..|--- .... ....|--- .... ....|E-3 3FEA ....

[Pattern18]
....|..|C-4 2F1F ....|G-5 6FFF ....|E-4 3FEF ....
....|..|--- .... ....|--- .... ....|--- .... ....
....|..|--- .... ....|E-5 6FF7 ....|F-3 3FEA ....
....|..|--- .... ....|--- .... ....|R-- .... ....
....|..|--- .... ....|A-5 6FF7 ....|D-4 3FEF ....
....|..|--- .... ....|--- .... ....|E-3 3FE7 ....
....|..|C-4 2F1A ....|G-5 6FFF ....|E-4 3FEA ....
....|..|--- .... ....|--- .... ....|R-- .... ....
....|..|--- .... ....|C-6 6FFF ....|E-4 3FEF ....
....|..|--- .... ....|--- .... ....|R-- .... ....
....|..|--- .... ....|A-5 6FF7 ....|D-4 3FEA ....
....|..|--- .... ....|--- .... ....|--- .... ....
....|..|C-4 2F17 ....|G-5 6FF7 ....|E-4 3FE7 ....
....|..|--- .... ....|--- .... ....|R-- .... ....
....|..|--- .... ....|C-6 6FFF ....|E-4 3FEA ....
....|..|--- .... ....|--- .... ....|R-- .... ....
....|..|--- .... ....|D-6 6FFF ....|E-4 3FEF ....
....|..|--- .... ....|--- .... ....|--- .... ....
....|..|--- .... ....|G-5 6FF7 ....|--- .... ....
....|..|--- .... ....|--- .... ....|R-- .... ....
....|..|--- .... ....|C-6 6FF7 ....|D-4 3FEF ....
....|..|--- .... ....|--- .... ....|--- .... ....
....|..|--- .... ....|G-5 6FFF ....|E-4 3FEA ....
....|..|--- .... ....|--- .... ....|R-- .... ....
....|..|--- .... ....|C-6 6FFF ....|E-4 3FEF ....
....|..|--- .... ....|--- .... ....|R-- .... ....
....|..|--- .... ....|C-6 6FF7 ....|D-4 3FEA ....
....|..|--- .... ....|--- .... ....|--- .... ....
....|..|--- .... ....|D-6 6FF7 ....|E-4 3FE7 ....
....|..|--- .... ....|--- .... ....|R-- .... ....
....|..|R-- .... ....|C-6 6FFF ....|E-4 3FEA ....
....|..|--- .... ....|--- .... ....|R-- .... ....
....|..|G-3 2F1F ....|D-6 6FFF ....|A-3 3FEF ....
....|..|--- .... ....|--- .... ....|--- .... ....
....|..|--- .... ....|G-5 6FF7 ....|--- .... ....
....|..|--- .... ....|--- .... ....|R-- .... ....
....|..|R-- .... ....|C-6 6FF7 ....|E-4 3FE7 ....
....|..|--- .... ....|--- .... ....|--- .... ....
....|..|G-3 2F1A ....|D-6 6FFA ....|A-3 3FEA ....
....|..|--- .... ....|--- .... ....|--- .... ....
....|..|--- .... ....|R-- .... ....|G-3 3FEF ....
....|..|--- .... ....|--- .... ....|--- .... ....
....|..|R-- .... ....|C-6 6FF7 ....|--- .... ....
....|..|--- .... ....|--- .... ....|--- .... ....
....|..|G-3 2F17 ....|D-6 6FF7 ....|A-3 3FE7 ....
....|..|--- .... ....|--- .... ....|--- .... ....
....|..|--- .... ....|R-- .... ....|G-3 3FEA ....
....|..|--- .... ....|--- .... ....|--- .... ....
....|..|--- .... ....|--- .... ....|E-3 3FEF ....
....|..|--- .... ....|--- .... ....|--- .... ....
....|..|--- .... ....|--- .... ....|--- .... ....
....|..|--- .... ....|--- .... ....|--- .... ....
....|..|--- .... ....|--- .... ....|G-3 3FE7 ....
....|..|--- .... ....|--- .... ....|--- .... ....
....|..|--- .... ....|--- .... ....|E-3 3FEA ....
....|..|--- .... ....|--- .... ....|--- .... ....
....|..|--- .... ....|--- .... ....|F-3 3FEF ....
....|..|--- .... ....|--- .... ....|--- .... ....
....|..|--- .... ....|--- .... ....|R-- .... ....
....|..|--- .... ....|--- .... ....|--- .... ....
....|..|--- .... ....|--- .... ....|E-3 3FE7 ....
....|..|--- .... ....|--- .... ....|--- .... ....
....|..|R-- .... ....|--- .... ....|F-3 3FEA ....
....|..|--- .... ....|--- .... ....|--- .... ....

[Pattern19]
....|..|A-3 2F2F ....|F-5 6FFF ....|C-4 3FEF ....
....|..|--- .... ....|--- .... ....|--- .... ....
....|..|--- .... ....|R-- .... ....|R-- .... ....
....|..|--- .... ....|--- .... ....|--- .... ....
....|..|R-- .... ....|--- .... ....|F-3 3FE7 ....
....|..|--- .... ....|--- .... ....|--- .... ....
....|..|A-3 2F2A ....|F-5 6FFF ....|C-4 3FEA ....
....|..|--- .... ....|--- .... ....|--- .... ....
....|..|--- .... ....|A-5 6FFF ....|B-3 3FEF ....
....|..|--- .... ....|--- .... ....|--- .... ....
....|..|R-- .... ....|R-- .... ....|--- .... ....
....|..|--- .... ....|--- .... ....|--- .... ....
....|..|A-3 2F27 ....|F-5 6FF7 ....|C-4 3FE7 ....
....|..|--- .... ....|--- .... ....|--- .... ....
....|..|--- .... ....|A-5 6FFF ....|B-3 3FEA ....
....|..|--- .... ....|--- .... ....|--- .... ....
....|..|--- .... ....|C-6 6FFF ....|D-3 3FEF ....
....|..|--- .... ....|--- .... ....|--- .... ....
....|..|--- .... ....|F-5 6FF7 ....|--- .... ....
....|..|--- .... ....|--- .... ....|--- .... ....
....|..|--- .... ....|A-5 6FF7 ....|B-3 3FE7 ....
....|..|--- .... ....|--- .... ....|--- .... ....
....|..|--- .... ....|F-5 6FFF ....|D-3 3FEA ....
....|..|--- .... ....|--- .... ....|--- .... ....
....|..|--- .... ....|A-5 6FFF ....|E-3 3FEF ....
....|..|--- .... ....|--- .... ....|--- .... ....
....|..|--- .... ....|A-5 6FF7 ....|R-- .... ....
....|..|--- .... ....|--- .... ....|--- .... ....
....|..|A-3 2F.F ....|C-6 6FF7 ....|D-3 3FE7 ....
....|..|R-- .... ....|--- .... ....|--- .... ....
....|..|--- .... ....|A-5 6FFF ....|E-3 3FEA ....
....|..|--- .... ....|--- .... ....|--- .... ....
....|..|G-3 2F3F ....|C-6 6FFF ....|A-3 3FEF ....
....|..|--- .... ....|--- .... ....|--- .... ....
....|..|A-3 2F.A ....|F-5 6FF7 ....|R-- .... ....
....|..|R-- .... ....|--- .... ....|--- .... ....
....|..|--- .... ....|A-5 6FF7 ....|E-3 3FE7 ....
....|..|--- .... ....|--- .... ....|--- .... ....
....|..|G-3 2F3A ....|E-5 6FFF ....|A-3 3FEA ....
....|..|--- .... ....|--- .... ....|--- .... ....
....|..|A-3 2F.7 ....|A-5 6FFF ....|G-3 3FEF ....
....|..|R-- .... ....|--- .... ....|--- .... ....
....|..|--- .... ....|A-5 6FF7 ....|--- .... ....
....|..|--- .... ....|--- .... ....|--- .... ....
....|..|G-3 2F37 ....|C-6 6FF7 ....|A-3 3FE7 ....
....|..|--- .... ....|--- .... ....|--- .... ....
....|..|--- .... ....|A-5 6FFF ....|G-3 3FEA ....
....|..|--- .... ....|--- .... ....|--- .... ....
....|..|F-3 2F3F ....|B-5 6FFF ....|D-3 3FEF ....
....|..|--- .... ....|--- .... ....|--- .... ....
....|..|--- .... ....|E-5 6FF7 ....|--- .... ....
....|..|--- .... ....|--- .... ....|--- .... ....
....|..|--- .... ....|A-5 6FF7 ....|G-3 3FE7 ....
....|..|--- .... ....|--- .... ....|--- .... ....
....|..|F-3 2F3A ....|E-5 6FFF ....|D-3 3FEA ....
....|..|--- .... ....|--- .... ....|--- .... ....
....|..|--- .... ....|A-5 6FFF ....|C-3 3FEF ....
....|..|--- .... ....|--- .... ....|--- .... ....
....|..|--- .... ....|A-5 6FF7 ....|--- .... ....
....|..|--- .... ....|--- .... ....|--- .... ....
....|..|F-3 2F37 ....|B-5 6FF7 ....|D-3 3FE7 ....
....|..|--- .... ....|--- .... ....|--- .... ....
....|..|--- .... ....|A-5 6FFF ....|C-3 3FEA ....
....|..|--- .... ....|--- .... ....|--- .... ....

[Pattern20]
 C-3|..|C-1 2A.F ....|G-5 6FFF ....|C-5 3FEF ....
....|..|C-4 2F1F ....|--- .... ....|--- .... ....
....|..|--- .... ....|E-5 6FF7 ....|--- .... ....
....|..|--- .... ....|--- .... ....|--- .... ....
 C-4|..|C-2 2A.F ....|A-5 6FF7 ....|C-3 3FE7 ....
....|..|--- .... ....|--- .... ....|--- .... ....
....|..|C-1 2F.A ....|G-5 6FFF ....|C-5 3FEA ....
....|..|C-4 2F1A ....|--- .... ....|--- .... ....
 C-3|..|C-1 2A.F ....|C-6 6FFF ....|--- .... ....
....|..|--- .... ....|--- .... ....|--- .... ....
....|..|C-2 2F.A ....|A-5 6FF7 ....|--- .... ....
....|..|--- .... ....|--- .... ....|--- .... ....
 C-4|..|C-2 2A.F ....|G-5 6FF7 ....|C-5 3FE7 ....
....|..|C-4 2F17 ....|--- .... ....|--- .... ....
....|..|C-1 2F.A ....|C-6 6FFF ....|--- .... ....
....|..|--- .... ....|--- .... ....|--- .... ....
 C-4|..|C-2 2A.F ....|D-6 6FFF ....|B-4 3FEF ....
 C-3|..|C-1 2A.F ....|--- .... ....|--- .... ....
....|..|C-2 2F.A ....|G-5 6FF7 ....|R-- .... ....
....|..|--- .... ....|--- .... ....|--- .... ....
 C-4|..|C-2 2A.F ....|C-6 6FF7 ....|--- .... ....
....|..|--- .... ....|--- .... ....|--- .... ....
....|..|C-2 2F.A ....|G-5 6FFF ....|B-4 3FEA ....
....|..|C-1 2F.A ....|--- .... ....|--- .... ....
 C-3|..|C-1 2A.F ....|C-6 6FFF ....|R-- .... ....
....|..|--- .... ....|--- .... ....|--- .... ....
....|..|C-2 2F.A ....|C-6 6FF7 ....|--- .... ....
....|..|--- .... ....|--- .... ....|--- .... ....
 C-4|..|C-2 2A.F ....|D-6 6FF7 ....|A-4 3FEF ....
 C-4|..|C-2 2A.F ....|--- .... ....|--- .... ....
....|..|C-1 2F.A ....|C-6 6FFF ....|--- .... ....
....|..|--- .... ....|--- .... ....|R-- .... ....
 G-2|..|G-1 2A.F ....|D-6 6FFF ....|G-4 3FEF ....
....|..|G-3 2F1F ....|--- .... ....|--- .... ....
....|..|C-2 2F.A ....|G-5 6FF7 ....|A-4 3FEA ....
....|..|C-2 2F.A ....|--- .... ....|--- .... ....
 G-3|..|G-1 2A.F ....|C-6 6FF7 ....|--- .... ....
 G-3|..|G-1 2A.F ....|--- .... ....|R-- .... ....
....|..|G-1 2F.A ....|D-6 6FFA ....|G-4 3FEA ....
....|..|G-3 2F1A ....|--- .... ....|--- .... ....
 G-2|..|G-1 2A.F ....|R-- .... ....|A-4 3FE7 ....
....|..|C-2 2F.7 ....|--- .... ....|--- .... ....
....|..|G-1 2F.A ....|C-6 6FF7 ....|--- .... ....
....|..|G-1 2F.A ....|--- .... ....|R-- .... ....
 G-3|..|G-1 2A.F ....|D-6 6FF7 ....|G-4 3FE7 ....
 G-3|..|G-1 2A.F ....|--- .... ....|--- .... ....
....|..|G-1 2F.A ....|R-- .... ....|R-- .... ....
....|..|--- .... ....|--- .... ....|--- .... ....
 G-3|..|G-1 2A.F ....|--- .... ....|--- .... ....
 G-2|..|G-1 2A.F ....|--- .... ....|--- .... ....
....|..|G-1 2F.A ....|--- .... ....|--- .... ....
....|..|G-1 2F.A ....|--- .... ....|--- .... ....
 G-3|..|G-1 2A.F ....|--- .... ....|R-- .... ....
 G-3|..|G-1 2A.F ....|--- .... ....|--- .... ....
....|..|G-1 2F.A ....|--- .... ....|--- .... ....
....|..|G-1 2F.A ....|--- .... ....|--- .... ....
 G-2|..|G-1 2A.F ....|--- .... ....|E-4 3FEF ....
....|..|G-1 2F.7 ....|--- .... ....|--- .... ....
....|..|G-1 2F.A ....|--- .... ....|--- .... ....
....|..|G-1 2F.A ....|--- .... ....|--- .... ....
 G-3|..|G-1 2A.F ....|--- .... ....|D-4 3FEF ....
 G-3|..|G-1 2A.F ....|--- .... ....|--- .... ....
....|..|G-1 2F.A ....|--- .... ....|E-4 3FEA ....
....|..|--- .... ....|--- .... ....|--- .... ....

[Pattern21]
 F-2|..|F-1 2A.F ....|F-5 6FFF ....|E-4 3FEF ....
....|..|A-3 2F2F ....|--- .... ....|E-4 3FEF ....
....|..|G-1 2F.A ....|R-- .... ....|D-4 3FEA ....
....|..|G-1 2F.A ....|--- .... ....|--- .... ....
 F-3|..|F-1 2A.F ....|--- .... ....|E-4 3FE7 ....
 F-3|..|F-1 2A.F ....|--- .... ....|--- .... ....
....|..|F-1 2F.A ....|F-5 6FFF ....|E-4 3FEA ....
....|..|A-3 2F2A ....|--- .... ....|E-4 3FEA ....
 F-3|..|F-1 2A.F ....|A-5 6FFF ....|D-4 3FE7 ....
 F-2|..|F-1 2A.F ....|--- .... ....|--- .... ....
....|..|F-1 2F.A ....|R-- .... ....|--- .... ....
....|..|F-1 2F.A ....|--- .... ....|--- .... ....
 F-3|..|F-1 2A.F ....|F-5 6FF7 ....|E-4 3FE7 ....
 F-3|..|F-1 2A.F ....|--- .... ....|E-4 3FE7 ....
....|..|F-1 2F.A ....|A-5 6FFF ....|--- .... ....
....|..|F-1 2F.A ....|--- .... ....|--- .... ....
 F-3|..|F-1 2A.F ....|C-6 6FFF ....|--- .... ....
 F-2|..|F-1 2A.F ....|--- .... ....|--- .... ....
....|..|F-1 2F.A ....|F-5 6FF7 ....|--- .... ....
....|..|F-1 2F.A ....|--- .... ....|--- .... ....
 F-3|..|F-1 2A.F ....|A-5 6FF7 ....|--- .... ....
....|..|F-1 2F.7 ....|--- .... ....|--- .... ....
....|..|F-1 2F.A ....|F-5 6FFF ....|--- .... ....
....|..|F-1 2F.A ....|--- .... ....|--- .... ....
 F-3|..|F-1 2A.F ....|A-5 6FFF ....|--- .... ....
 F-2|..|F-1 2A.F ....|--- .... ....|--- .... ....
....|..|F-1 2F.A ....|A-5 6FF7 ....|--- .... ....
....|..|--- .... ....|--- .... ....|--- .... ....
 F-3|..|F-1 2A.F ....|C-6 6FF7 ....|--- .... ....
 F-3|..|F-1 2A.F ....|--- .... ....|--- .... ....
....|..|A-3 2F.F ....|A-5 6FFF ....|--- .... ....
....|..|F-1 2F.A ....|--- .... ....|--- .... ....
 E-2|..|E-1 2A.F ....|C-6 6FFF ....|--- .... ....
....|..|G-3 2F3F ....|--- .... ....|--- .... ....
....|..|F-1 2F.A ....|F-5 6FF7 ....|--- .... ....
....|..|F-1 2F.A ....|--- .... ....|--- .... ....
 E-3|..|E-1 2A.F ....|A-5 6FF7 ....|--- .... ....
 E-3|..|E-1 2A.F ....|--- .... ....|--- .... ....
....|..|E-1 2F.A ....|E-5 6FFF ....|--- .... ....
....|..|G-3 2F3A ....|--- .... ....|R-- .... ....
 E-2|..|E-1 2A.F ....|A-5 6FFF ....|B-3 3FEF ....
....|..|F-1 2F.7 ....|--- .... ....|--- .... ....
....|..|A-3 2F.7 ....|A-5 6FF7 ....|--- .... ....
....|..|E-1 2F.A ....|--- .... ....|--- .... ....
 E-3|..|E-1 2A.F ....|C-6 6FF7 ....|R-- .... ....
....|..|G-3 2F37 ....|--- .... ....|R-- .... ....
....|..|E-1 2F.A ....|A-5 6FFF ....|B-3 3FEA ....
....|..|--- .... ....|--- .... ....|--- .... ....
 E-3|..|E-1 2A.F ....|B-5 6FFF ....|C-4 3FEF ....
 E-2|..|E-1 2A.F ....|--- .... ....|--- .... ....
....|..|G-3 2F1F ....|E-5 6FF7 ....|R-- .... ....
....|..|--- .... ....|--- .... ....|R-- .... ....
 E-3|..|E-1 2A.F ....|A-5 6FF7 ....|B-3 3FE7 ....
 E-3|..|E-1 2A.F ....|--- .... ....|R-- .... ....
....|..|E-1 2F.A ....|E-5 6FFF ....|C-4 3FEA ....
....|..|E-1 2F.A ....|--- .... ....|--- .... ....
 E-2|..|E-1 2A.F ....|A-5 6FFF ....|B-3 3FEF ....
....|..|--- .... ....|--- .... ....|--- .... ....
....|..|E-1 2F.A ....|A-5 6FF7 ....|--- .... ....
....|..|E-1 2F.A ....|--- .... ....|R-- .... ....
 E-3|..|E-1 2A.F ....|B-5 6FF7 ....|C-4 3FE7 ....
....|..|E-1 2F.7 ....|--- .... ....|--- .... ....
....|..|G-3 2F17 ....|A-5 6FFF ....|B-3 3FEA ....
....|..|--- .... ....|--- .... ....|--- .... ....

[Pattern22]
 C-3|..|C-1 2A.F ....|G-5 6FFF ....|C-3 3FEF ....
....|..|C-4 2F1F ....|--- .... ....|R-- .... ....
....|..|E-1 2F.A ....|E-5 6FF7 ....|R-- .... ....
....|..|--- .... ....|--- .... ....|R-- .... ....
 C-4|..|C-2 2A.F ....|A-5 6FF7 ....|B-2 3FEF ....
....|..|--- .... ....|--- .... ....|--- .... ....
....|..|C-1 2F.A ....|G-5 6FFF ....|C-3 3FEA ....
....|..|C-4 2F1A ....|--- .... ....|R-- .... ....
 C-3|..|C-1 2A.F ....|C-6 6FFF ....|C-3 3FEF ....
....|..|--- .... ....|--- .... ....|R-- .... ....
....|..|C-2 2F.A ....|A-5 6FF7 ....|B-2 3FEA ....
....|..|--- .... ....|--- .... ....|--- .... ....
 C-4|..|C-2 2A.F ....|G-5 6FF7 ....|C-3 3FE7 ....
....|..|C-4 2F17 ....|--- .... ....|R-- .... ....
....|..|C-1 2F.A ....|C-6 6FFF ....|C-3 3FEA ....
....|..|--- .... ....|--- .... ....|R-- .... ....
 C-4|..|C-2 2A.F ....|D-6 6FFF ....|B-2 3FE7 ....
 C-3|..|C-1 2A.F ....|--- .... ....|--- .... ....
....|..|C-2 2F.A ....|G-5 6FF7 ....|--- .... ....
....|..|--- .... ....|--- .... ....|R-- .... ....
 C-4|..|C-2 2A.F ....|C-6 6FF7 ....|C-3 3FE7 ....
....|..|--- .... ....|--- .... ....|--- .... ....
....|..|C-2 2F.A ....|G-5 6FFF ....|--- .... ....
....|..|C-1 2F.A ....|--- .... ....|--- .... ....
 C-3|..|C-1 2A.F ....|C-6 6FFF ....|--- .... ....
....|..|--- .... ....|--- .... ....|--- .... ....
....|..|C-2 2F.A ....|C-6 6FF7 ....|--- .... ....
....|..|--- .... ....|--- .... ....|--- .... ....
 C-4|..|C-2 2A.F ....|D-6 6FF7 ....|--- .... ....
 C-4|..|C-2 2A.F ....|--- .... ....|--- .... ....
....|..|C-1 2F.A ....|C-6 6FFF ....|--- .... ....
....|..|--- .... ....|--- .... ....|--- .... ....
 G-2|..|G-1 2A.F ....|D-6 6FFF ....|D-3 3FEF ....
....|..|G-3 2F1F ....|--- .... ....|--- .... ....
....|..|C-2 2F.A ....|G-5 6FF7 ....|--- .... ....
....|..|C-2 2F.A ....|--- .... ....|--- .... ....
 G-3|..|G-1 2A.F ....|C-6 6FF7 ....|--- .... ....
 G-3|..|G-1 2A.F ....|--- .... ....|--- .... ....
....|..|G-1 2F.A ....|D-6 6FFA ....|D-3 3FEA ....
....|..|G-3 2F1A ....|--- .... ....|--- .... ....
 G-2|..|G-1 2A.F ....|R-- .... ....|--- .... ....
....|..|C-2 2F.7 ....|--- .... ....|--- .... ....
....|..|G-1 2F.A ....|C-6 6FF7 ....|--- .... ....
....|..|G-1 2F.A ....|--- .... ....|--- .... ....
 G-3|..|G-1 2A.F ....|D-6 6FF7 ....|D-3 3FE7 ....
 G-3|..|G-1 2A.F ....|--- .... ....|--- .... ....
....|..|G-1 2F.A ....|R-- .... ....|--- .... ....
....|..|--- .... ....|--- .... ....|--- .... ....
 G-3|..|G-1 2A.F ....|--- .... ....|E-3 3FEF ....
 G-2|..|G-1 2A.F ....|--- .... ....|--- .... ....
....|..|G-1 2F.A ....|--- .... ....|--- .... ....
....|..|G-1 2F.A ....|--- .... ....|--- .... ....
 G-3|..|G-1 2A.F ....|--- .... ....|R-- .... ....
 G-3|..|G-1 2A.F ....|--- .... ....|--- .... ....
....|..|G-1 2F.A ....|--- .... ....|E-3 3FEA ....
....|..|G-1 2F.A ....|--- .... ....|--- .... ....
 G-2|..|G-1 2A.F ....|--- .... ....|F-3 3FEF ....
....|..|G-1 2F.7 ....|--- .... ....|--- .... ....
....|..|G-1 2F.A ....|--- .... ....|R-- .... ....
....|..|G-1 2F.A ....|--- .... ....|--- .... ....
 G-3|..|G-1 2A.F ....|--- .... ....|E-3 3FE7 ....
 G-3|..|G-1 2A.F ....|--- .... ....|--- .... ....
....|..|G-1 2F.A ....|--- .... ....|F-3 3FEA ....
....|..|--- .... ....|--- .... ....|--- .... ....

[Pattern23]
 F-2|..|F-1 2A.F ....|F-5 6FFF ....|C-3 3FEF ....
....|..|A-3 2F2F ....|--- .... ....|--- .... ....
....|..|G-1 2F.A ....|R-- .... ....|R-- .... ....
....|..|G-1 2F.A ....|--- .... ....|--- .... ....
 F-3|..|F-1 2A.F ....|--- .... ....|F-3 3FE7 ....
 F-3|..|F-1 2A.F ....|--- .... ....|--- .... ....
....|..|F-1 2F.A ....|F-5 6FFF ....|C-3 3FEA ....
....|..|A-3 2F2A ....|--- .... ....|--- .... ....
 F-3|..|F-1 2A.F ....|A-5 6FFF ....|R-- .... ....
 F-2|..|F-1 2A.F ....|--- .... ....|--- .... ....
....|..|F-1 2F.A ....|R-- .... ....|--- .... ....
....|..|F-1 2F.A ....|--- .... ....|--- .... ....
 F-3|..|F-1 2A.F ....|F-5 6FF7 ....|C-3 3FE7 ....
 F-3|..|F-1 2A.F ....|--- .... ....|--- .... ....
....|..|F-1 2F.A ....|A-5 6FFF ....|--- .... ....
....|..|F-1 2F.A ....|--- .... ....|--- .... ....
 F-3|..|F-1 2A.F ....|C-6 6FFF ....|D-3 3FEF ....
 F-2|..|F-1 2A.F ....|--- .... ....|--- .... ....
....|..|F-1 2F.A ....|F-5 6FF7 ....|--- .... ....
....|..|F-1 2F.A ....|--- .... ....|--- .... ....
 F-3|..|F-1 2A.F ....|A-5 6FF7 ....|R-- .... ....
....|..|F-1 2F.7 ....|--- .... ....|--- .... ....
....|..|F-1 2F.A ....|F-5 6FFF ....|D-3 3FEA ....
....|..|F-1 2F.A ....|--- .... ....|--- .... ....
 F-3|..|F-1 2A.F ....|A-5 6FFF ....|E-3 3FEF ....
 F-2|..|F-1 2A.F ....|--- .... ....|--- .... ....
....|..|F-1 2F.A ....|A-5 6FF7 ....|R-- .... ....
....|..|--- .... ....|--- .... ....|--- .... ....
 F-3|..|F-1 2A.F ....|C-6 6FF7 ....|D-3 3FE7 ....
 F-3|..|F-1 2A.F ....|--- .... ....|--- .... ....
....|..|A-3 2F.F ....|A-5 6FFF ....|E-3 3FEA ....
....|..|F-1 2F.A ....|--- .... ....|--- .... ....
 E-2|..|E-1 2A.F ....|C-6 6FFF ....|B-2 3FEF ....
....|..|G-3 2F3F ....|--- .... ....|--- .... ....
....|..|F-1 2F.A ....|F-5 6FF7 ....|R-- .... ....
....|..|F-1 2F.A ....|--- .... ....|--- .... ....
 E-3|..|E-1 2A.F ....|A-5 6FF7 ....|E-3 3FE7 ....
 E-3|..|E-1 2A.F ....|--- .... ....|--- .... ....
....|..|E-1 2F.A ....|E-5 6FFF ....|B-2 3FEA ....
....|..|G-3 2F3A ....|--- .... ....|--- .... ....
 E-2|..|E-1 2A.F ....|A-5 6FFF ....|R-- .... ....
....|..|F-1 2F.7 ....|--- .... ....|--- .... ....
....|..|A-3 2F.7 ....|A-5 6FF7 ....|--- .... ....
....|..|E-1 2F.A ....|--- .... ....|--- .... ....
 E-3|..|E-1 2A.F ....|C-6 6FF7 ....|B-2 3FE7 ....
....|..|G-3 2F37 ....|--- .... ....|--- .... ....
....|..|E-1 2F.A ....|A-5 6FFF ....|--- .... ....
....|..|--- .... ....|--- .... ....|--- .... ....
 E-3|..|E-1 2A.F ....|B-5 6FFF ....|D-3 3FEF ....
 E-2|..|E-1 2A.F ....|--- .... ....|--- .... ....
....|..|F-3 2F3F ....|E-5 6FF7 ....|--- .... ....
....|..|--- .... ....|--- .... ....|--- .... ....
 E-3|..|E-1 2A.F ....|A-5 6FF7 ....|--- .... ....
 E-3|..|E-1 2A.F ....|--- .... ....|--- .... ....
....|..|E-1 2F.A ....|E-5 6FFF ....|D-3 3FEA ....
....|..|E-1 2F.A ....|--- .... ....|--- .... ....
 E-2|..|E-1 2A.F ....|A-5 6FFF ....|C-3 3FEF ....
....|..|--- .... ....|--- .... ....|--- .... ....
....|..|E-1 2F.A ....|A-5 6FF7 ....|--- .... ....
....|..|E-1 2F.A ....|--- .... ....|--- .... ....
 E-3|..|E-1 2A.F ....|B-5 6FF7 ....|D-3 3FE7 ....
....|..|E-1 2F.7 ....|--- .... ....|--- .... ....
....|..|F-3 2F37 ....|A-5 6FFF ....|C-3 3FEA ....
....|..|--- .... ....|--- .... ....|--- .... ....

[Pattern24]
 C-3|..|C-1 2A.F ....|G-5 6FFF ....|C-4 3FEF ....
....|..|C-4 2F1F ....|--- .... ....|--- .... ....
....|..|E-1 2F.A ....|E-5 6FF7 ....|--- .... ....
....|..|--- .... ....|--- .... ....|--- .... ....
 C-4|..|C-2 2A.F ....|F-5 6FFF ....|C-3 3FE7 ....
....|..|--- .... ....|--- .... ....|--- .... ....
....|..|C-1 2F.A ....|G-5 6FFF ....|C-4 3FEA ....
....|..|C-4 2F1A ....|--- .... ....|--- .... ....
 C-3|..|C-1 2A.F ....|C-6 6FFF ....|--- .... ....
....|..|--- .... ....|--- .... ....|--- .... ....
....|..|C-2 2F.A ....|F-5 6FFF ....|--- .... ....
....|..|--- .... ....|--- .... ....|--- .... ....
 C-4|..|C-2 2A.F ....|G-5 6FF7 ....|C-4 3FE7 ....
....|..|C-4 2F17 ....|--- .... ....|--- .... ....
....|..|C-1 2F.A ....|C-6 6FFF ....|--- .... ....
....|..|--- .... ....|--- .... ....|--- .... ....
 C-4|..|C-2 2A.F ....|D-6 6FFF ....|D-4 3FEF ....
 C-3|..|C-1 2A.F ....|--- .... ....|--- .... ....
....|..|C-2 2F.A ....|G-5 6FF7 ....|R-- .... ....
....|..|--- .... ....|--- .... ....|--- .... ....
 C-4|..|C-2 2A.F ....|C-6 6FF7 ....|--- .... ....
....|..|--- .... ....|--- .... ....|--- .... ....
....|..|C-2 2F.A ....|G-5 6FFF ....|D-4 3FEA ....
....|..|C-1 2F.A ....|--- .... ....|--- .... ....
 C-3|..|C-1 2A.F ....|C-6 6FFF ....|R-- .... ....
....|..|--- .... ....|--- .... ....|--- .... ....
....|..|C-2 2F.A ....|C-6 6FF7 ....|--- .... ....
....|..|--- .... ....|--- .... ....|--- .... ....
 C-4|..|C-2 2A.F ....|D-6 6FF7 ....|E-4 3FEF ....
 C-4|..|C-2 2A.F ....|--- .... ....|--- .... ....
....|..|C-1 2F.A ....|C-6 6FFF ....|--- .... ....
....|..|--- .... ....|--- .... ....|--- .... ....
 G-2|..|G-1 2A.F ....|D-6 6FFF ....|G-4 3FEF ....
....|..|G-3 2F1F ....|--- .... ....|--- .... ....
....|..|C-2 2F.A ....|G-5 6FF7 ....|E-4 3FEA ....
....|..|C-2 2F.A ....|--- .... ....|--- .... ....
 G-3|..|G-1 2A.F ....|E-6 6FFF ....|--- .... ....
 G-3|..|G-1 2A.F ....|--- .... ....|--- .... ....
....|..|G-1 2F.A ....|D-6 6FFA ....|G-4 3FEA ....
....|..|G-3 2F1A ....|--- .... ....|--- .... ....
 G-2|..|G-1 2A.F ....|B-5 6FFF ....|F-4 3FEF ....
....|..|C-2 2F.7 ....|--- .... ....|--- .... ....
....|..|G-1 2F.A ....|C-6 6FF7 ....|--- .... ....
....|..|G-1 2F.A ....|--- .... ....|--- .... ....
 G-3|..|G-1 2A.F ....|D-6 6FFF ....|G-4 3FE7 ....
 G-3|..|G-1 2A.F ....|--- .... ....|--- .... ....
....|..|G-1 2F.A ....|B-5 6FFA ....|F-4 3FEA ....
....|..|--- .... ....|--- .... ....|--- .... ....
 G-3|..|G-1 2A.F ....|E-6 6FFF ....|--- .... ....
 G-2|..|G-1 2A.F ....|--- .... ....|--- .... ....
....|..|G-1 2F.A ....|D-6 6FFA ....|--- .... ....
....|..|G-1 2F.A ....|--- .... ....|--- .... ....
 G-3|..|G-1 2A.F ....|F-6 6FFF ....|F-4 3FE7 ....
 G-3|..|G-1 2A.F ....|--- .... ....|--- .... ....
....|..|G-1 2F.A ....|E-6 6FFA ....|--- .... ....
....|..|G-1 2F.A ....|--- .... ....|--- .... ....
 G-2|..|G-1 2A.F ....|E-6 6FFF ....|F-4 3FEF ....
....|..|G-1 2F.7 ....|--- .... ....|D-4 3FEF ....
....|..|G-1 2F.A ....|F-6 6FFA ....|--- .... ....
....|..|G-1 2F.A ....|--- .... ....|--- .... ....
 G-3|..|G-1 2A.F ....|D-6 6FFF ....|B-3 3FEF ....
 G-3|..|G-1 2A.F ....|--- .... ....|--- .... ....
....|..|G-1 2F.A ....|E-6 6FFA ....|F-4 3FEA ....
....|..|--- .... ....|--- .... ....|D-4 3FEA ....

[Pattern25]
 F-2|..|F-1 2A.F ....|F-5 6FFF ....|C-4 3FEF ....
....|..|A-3 2F2F ....|--- .... ....|--- .... ....
....|..|G-1 2F.A ....|D-6 6FFA ....|B-3 3FEA ....
....|..|G-1 2F.A ....|--- .... ....|--- .... ....
 F-3|..|F-1 2A.F ....|C-6 6FFF ....|F-4 3FE7 ....
 F-3|..|F-1 2A.F ....|--- .... ....|D-4 3FE7 ....
....|..|F-1 2F.A ....|F-5 6FFF ....|C-4 3FEA ....
....|..|A-3 2F2A ....|--- .... ....|--- .... ....
 F-3|..|F-1 2A.F ....|A-5 6FFF ....|B-3 3FE7 ....
 F-2|..|F-1 2A.F ....|--- .... ....|--- .... ....
....|..|F-1 2F.A ....|C-6 6FFA ....|--- .... ....
....|..|F-1 2F.A ....|--- .... ....|--- .... ....
 F-3|..|F-1 2A.F ....|F-5 6FF7 ....|C-4 3FE7 ....
 F-3|..|F-1 2A.F ....|--- .... ....|--- .... ....
....|..|F-1 2F.A ....|A-5 6FFF ....|--- .... ....
....|..|F-1 2F.A ....|--- .... ....|--- .... ....
 F-3|..|F-1 2A.F ....|C-6 6FFF ....|--- .... ....
 F-2|..|F-1 2A.F ....|--- .... ....|--- .... ....
....|..|F-1 2F.A ....|F-5 6FF7 ....|--- .... ....
....|..|F-1 2F.A ....|--- .... ....|--- .... ....
 F-3|..|F-1 2A.F ....|A-5 6FF7 ....|--- .... ....
....|..|F-1 2F.7 ....|--- .... ....|--- .... ....
....|..|F-1 2F.A ....|F-5 6FFF ....|--- .... ....
....|..|F-1 2F.A ....|--- .... ....|--- .... ....
 F-3|..|F-1 2A.F ....|A-5 6FFF ....|--- .... ....
 F-2|..|F-1 2A.F ....|--- .... ....|--- .... ....
....|..|F-1 2F.A ....|A-5 6FF7 ....|--- .... ....
....|..|--- .... ....|--- .... ....|--- .... ....
 F-3|..|F-1 2A.F ....|C-6 6FF7 ....|--- .... ....
 F-3|..|F-1 2A.F ....|--- .... ....|--- .... ....
....|..|A-3 2F.F ....|A-5 6FFF ....|--- .... ....
....|..|F-1 2F.A ....|--- .... ....|--- .... ....
 E-2|..|E-1 2A.F ....|C-6 6FFF ....|--- .... ....
....|..|G-3 2F3F ....|--- .... ....|--- .... ....
....|..|F-1 2F.A ....|F-5 6FF7 ....|--- .... ....
....|..|F-1 2F.A ....|--- .... ....|--- .... ....
 E-3|..|E-1 2A.F ....|A-5 6FF7 ....|--- .... ....
 E-3|..|E-1 2A.F ....|--- .... ....|--- .... ....
....|..|E-1 2F.A ....|E-5 6FFF ....|--- .... ....
....|..|G-3 2F3A ....|--- .... ....|R-- .... ....
 E-2|..|E-1 2A.F ....|A-5 6FFF ....|B-4 3FEF ....
....|..|F-1 2F.7 ....|--- .... ....|--- .... ....
....|..|A-3 2F.7 ....|A-5 6FF7 ....|--- .... ....
....|..|E-1 2F.A ....|--- .... ....|--- .... ....
 E-3|..|E-1 2A.F ....|C-6 6FF7 ....|R-- .... ....
....|..|G-3 2F37 ....|--- .... ....|R-- .... ....
....|..|E-1 2F.A ....|A-5 6FFF ....|B-4 3FEA ....
....|..|--- .... ....|--- .... ....|--- .... ....
 E-3|..|E-1 2A.F ....|B-5 6FFF ....|C-5 3FEF ....
 E-2|..|E-1 2A.F ....|--- .... ....|--- .... ....
....|..|G-3 2F1F ....|E-5 6FF7 ....|R-- .... ....
....|..|--- .... ....|--- .... ....|R-- .... ....
 E-3|..|E-1 2A.F ....|A-5 6FF7 ....|B-4 3FE7 ....
 E-3|..|E-1 2A.F ....|--- .... ....|R-- .... ....
....|..|E-1 2F.A ....|E-5 6FFF ....|C-5 3FEA ....
....|..|E-1 2F.A ....|--- .... ....|--- .... ....
 E-2|..|E-1 2A.F ....|A-5 6FFF ....|B-4 3FEF ....
....|..|--- .... ....|--- .... ....|--- .... ....
....|..|E-1 2F.A ....|A-5 6FF7 ....|--- .... ....
....|..|E-1 2F.A ....|--- .... ....|R-- .... ....
 E-3|..|E-1 2A.F ....|B-5 6FF7 ....|C-5 3FE7 ....
....|..|E-1 2F.7 ....|--- .... ....|--- .... ....
....|..|G-3 2F17 ....|A-5 6FFF ....|B-4 3FEA ....
....|..|--- .... ....|--- .... ....|--- .... ....

[Pattern26]
 C-3|..|C-1 2A.F ....|G-5 6FFF ....|C-4 3FEF ....
....|..|C-4 2F1F ....|--- .... ....|R-- .... ....
....|..|E-1 2F.A ....|E-5 6FF7 ....|R-- .... ....
....|..|--- .... ....|--- .... ....|R-- .... ....
 C-4|..|C-2 2A.F ....|A-5 6FF7 ....|B-3 3FEF ....
....|..|--- .... ....|--- .... ....|--- .... ....
....|..|C-1 2F.A ....|G-5 6FFF ....|C-4 3FEA ....
....|..|C-4 2F1A ....|--- .... ....|R-- .... ....
 C-3|..|C-1 2A.F ....|C-6 6FFF ....|C-4 3FEF ....
....|..|--- .... ....|--- .... ....|R-- .... ....
....|..|C-2 2F.A ....|A-5 6FF7 ....|B-3 3FEA ....
....|..|--- .... ....|--- .... ....|--- .... ....
 C-4|..|C-2 2A.F ....|G-5 6FF7 ....|C-4 3FE7 ....
....|..|C-4 2F17 ....|--- .... ....|R-- .... ....
....|..|C-1 2F.A ....|C-6 6FFF ....|C-4 3FEA ....
....|..|--- .... ....|--- .... ....|R-- .... ....
 C-4|..|C-2 2A.F ....|D-6 6FFF ....|B-3 3FE7 ....
 C-3|..|C-1 2A.F ....|--- .... ....|--- .... ....
....|..|C-2 2F.A ....|G-5 6FF7 ....|--- .... ....
....|..|--- .... ....|--- .... ....|R-- .... ....
 C-4|..|C-2 2A.F ....|C-6 6FF7 ....|C-4 3FE7 ....
....|..|--- .... ....|--- .... ....|--- .... ....
....|..|C-2 2F.A ....|G-5 6FFF ....|--- .... ....
....|..|C-1 2F.A ....|--- .... ....|--- .... ....
 C-3|..|C-1 2A.F ....|C-6 6FFF ....|--- .... ....
....|..|--- .... ....|--- .... ....|--- .... ....
....|..|C-2 2F.A ....|C-6 6FF7 ....|--- .... ....
....|..|--- .... ....|--- .... ....|--- .... ....
 C-4|..|C-2 2A.F ....|D-6 6FF7 ....|--- .... ....
 C-4|..|C-2 2A.F ....|--- .... ....|--- .... ....
....|..|C-1 2F.A ....|C-6 6FFF ....|--- .... ....
....|..|--- .... ....|--- .... ....|--- .... ....
 G-2|..|G-1 2A.F ....|D-6 6FFF ....|D-3 3FEF ....
....|..|G-3 2F1F ....|--- .... ....|--- .... ....
....|..|C-2 2F.A ....|G-5 6FF7 ....|--- .... ....
....|..|C-2 2F.A ....|--- .... ....|--- .... ....
 G-3|..|G-1 2A.F ....|C-6 6FF7 ....|--- .... ....
 G-3|..|G-1 2A.F ....|--- .... ....|--- .... ....
....|..|G-1 2F.A ....|D-6 6FFA ....|D-3 3FEA ....
....|..|G-3 2F1A ....|--- .... ....|--- .... ....
 G-2|..|G-1 2A.F ....|R-- .... ....|--- .... ....
....|..|C-2 2F.7 ....|--- .... ....|--- .... ....
....|..|G-1 2F.A ....|C-6 6FF7 ....|--- .... ....
....|..|G-1 2F.A ....|--- .... ....|--- .... ....
 G-3|..|G-1 2A.F ....|D-6 6FF7 ....|D-3 3FE7 ....
 G-3|..|G-1 2A.F ....|--- .... ....|--- .... ....
....|..|G-1 2F.A ....|R-- .... ....|--- .... ....
....|..|--- .... ....|--- .... ....|--- .... ....
 G-3|..|G-1 2A.F ....|--- .... ....|E-3 3FEF ....
 G-2|..|G-1 2A.F ....|--- .... ....|--- .... ....
....|..|G-1 2F.A ....|--- .... ....|--- .... ....
....|..|G-1 2F.A ....|--- .... ....|--- .... ....
 G-3|..|G-1 2A.F ....|--- .... ....|R-- .... ....
 G-3|..|G-1 2A.F ....|--- .... ....|--- .... ....
....|..|G-1 2F.A ....|--- .... ....|E-3 3FEA ....
....|..|G-1 2F.A ....|--- .... ....|--- .... ....
 G-2|..|G-1 2A.F ....|--- .... ....|F-3 3FEF ....
....|..|G-1 2F.7 ....|--- .... ....|--- .... ....
....|..|G-1 2F.A ....|--- .... ....|R-- .... ....
....|..|G-1 2F.A ....|--- .... ....|--- .... ....
 G-3|..|G-1 2A.F ....|--- .... ....|E-3 3FE7 ....
 G-3|..|G-1 2A.F ....|--- .... ....|--- .... ....
....|..|G-1 2F.A ....|--- .... ....|F-3 3FEA ....
....|..|--- .... ....|--- .... ....|--- .... ....

[Pattern27]
 F-2|..|F-1 2A.F ....|F-5 6FFF ....|C-4 3FEF ....
....|..|A-3 2F2F ....|--- .... ....|--- .... ....
....|..|G-1 2F.A ....|R-- .... ....|R-- .... ....
....|..|G-1 2F.A ....|--- .... ....|--- .... ....
 F-3|..|F-1 2A.F ....|--- .... ....|F-3 3FE7 ....
 F-3|..|F-1 2A.F ....|--- .... ....|--- .... ....
....|..|F-1 2F.A ....|F-5 6FFF ....|C-4 3FEA ....
....|..|A-3 2F2A ....|--- .... ....|--- .... ....
 F-3|..|F-1 2A.F ....|A-5 6FFF ....|R-- .... ....
 F-2|..|F-1 2A.F ....|--- .... ....|--- .... ....
....|..|F-1 2F.A ....|R-- .... ....|--- .... ....
....|..|F-1 2F.A ....|--- .... ....|--- .... ....
 F-3|..|F-1 2A.F ....|F-5 6FF7 ....|C-4 3FE7 ....
 F-3|..|F-1 2A.F ....|--- .... ....|--- .... ....
....|..|F-1 2F.A ....|A-5 6FFF ....|--- .... ....
....|..|F-1 2F.A ....|--- .... ....|--- .... ....
 F-3|..|F-1 2A.F ....|C-6 6FFF ....|D-3 3FEF ....
 F-2|..|F-1 2A.F ....|--- .... ....|--- .... ....
....|..|F-1 2F.A ....|F-5 6FF7 ....|--- .... ....
....|..|F-1 2F.A ....|--- .... ....|--- .... ....
 F-3|..|F-1 2A.F ....|A-5 6FF7 ....|R-- .... ....
....|..|F-1 2F.7 ....|--- .... ....|--- .... ....
....|..|F-1 2F.A ....|F-5 6FFF ....|D-3 3FEA ....
....|..|F-1 2F.A ....|--- .... ....|--- .... ....
 F-3|..|F-1 2A.F ....|A-5 6FFF ....|E-3 3FEF ....
 F-2|..|F-1 2A.F ....|--- .... ....|--- .... ....
....|..|F-1 2F.A ....|A-5 6FF7 ....|R-- .... ....
....|..|--- .... ....|--- .... ....|--- .... ....
 F-3|..|F-1 2A.F ....|C-6 6FF7 ....|D-3 3FE7 ....
 F-3|..|F-1 2A.F ....|--- .... ....|--- .... ....
....|..|A-3 2F.F ....|A-5 6FFF ....|E-3 3FEA ....
....|..|F-1 2F.A ....|--- .... ....|--- .... ....
 E-2|..|E-1 2A.F ....|C-6 6FFF ....|B-3 3FEF ....
....|..|G-3 2F3F ....|--- .... ....|--- .... ....
....|..|F-1 2F.A ....|F-5 6FF7 ....|R-- .... ....
....|..|F-1 2F.A ....|--- .... ....|--- .... ....
 E-3|..|E-1 2A.F ....|A-5 6FF7 ....|E-3 3FE7 ....
 E-3|..|E-1 2A.F ....|--- .... ....|--- .... ....
....|..|E-1 2F.A ....|E-5 6FFF ....|B-3 3FEA ....
....|..|G-3 2F3A ....|--- .... ....|--- .... ....
 E-2|..|E-1 2A.F ....|A-5 6FFF ....|R-- .... ....
....|..|F-1 2F.7 ....|--- .... ....|--- .... ....
....|..|A-3 2F.7 ....|A-5 6FF7 ....|--- .... ....
....|..|E-1 2F.A ....|--- .... ....|--- .... ....
 E-3|..|E-1 2A.F ....|C-6 6FF7 ....|B-3 3FE7 ....
....|..|G-3 2F37 ....|--- .... ....|--- .... ....
....|..|E-1 2F.A ....|A-5 6FFF ....|--- .... ....
....|..|--- .... ....|--- .... ....|--- .... ....
 E-3|..|E-1 2A.F ....|B-5 6FFF ....|D-3 3FEF ....
 E-2|..|E-1 2A.F ....|--- .... ....|--- .... ....
....|..|F-3 2F3F ....|E-5 6FF7 ....|--- .... ....
....|..|--- .... ....|--- .... ....|--- .... ....
 E-3|..|E-1 2A.F ....|A-5 6FF7 ....|E-3 3FEF ....
 E-3|..|E-1 2A.F ....|--- .... ....|--- .... ....
....|..|E-1 2F.A ....|E-5 6FFF ....|F-3 3FEF ....
....|..|E-1 2F.A ....|--- .... ....|--- .... ....
 E-2|..|E-1 2A.F ....|A-5 6FFF ....|E-3 3FEF ....
....|..|--- .... ....|--- .... ....|--- .... ....
....|..|E-1 2F.A ....|A-5 6FF7 ....|E-3 3FEA ....
....|..|E-1 2F.A ....|--- .... ....|--- .... ....
 E-3|..|E-1 2A.F ....|B-5 6FF7 ....|F-3 3FEF ....
....|..|E-1 2F.7 ....|--- .... ....|--- .... ....
....|..|F-3 2F37 ....|A-5 6FFF ....|E-3 3FEA ....
....|..|--- .... ....|--- .... ....|--- .... ....

[Pattern28]
 C-3|..|C-1 2A.F ....|G-5 6FFF ....|C-5 3FEF ....
....|..|C-4 2F1F ....|--- .... ....|--- .... ....
....|..|E-1 2F.A ....|E-5 6FF7 ....|F-3 3FE7 ....
....|..|--- .... ....|--- .... ....|--- .... ....
 C-4|..|C-2 2A.F ....|F-5 6FFF ....|E-3 3FE7 ....
....|..|--- .... ....|--- .... ....|--- .... ....
....|..|C-1 2F.A ....|G-5 6FFF ....|C-5 3FEA ....
....|..|C-4 2F1A ....|--- .... ....|--- .... ....
 C-3|..|C-1 2A.F ....|C-6 6FFF ....|F-3 3FE7 ....
....|..|--- .... ....|--- .... ....|--- .... ....
....|..|C-2 2F.A ....|F-5 6FFF ....|--- .... ....
....|..|--- .... ....|--- .... ....|--- .... ....
 C-4|..|C-2 2A.F ....|G-5 6FF7 ....|C-5 3FE7 ....
....|..|C-4 2F17 ....|--- .... ....|--- .... ....
....|..|C-1 2F.A ....|C-6 6FFF ....|--- .... ....
....|..|--- .... ....|--- .... ....|--- .... ....
 C-4|..|C-2 2A.F ....|D-6 6FFF ....|G-4 3FEF ....
 C-3|..|C-1 2A.F ....|--- .... ....|--- .... ....
....|..|C-2 2F.A ....|G-5 6FF7 ....|R-- .... ....
....|..|--- .... ....|--- .... ....|--- .... ....
 C-4|..|C-2 2A.F ....|C-6 6FF7 ....|--- .... ....
....|..|--- .... ....|--- .... ....|--- .... ....
....|..|C-2 2F.A ....|G-5 6FFF ....|G-4 3FEA ....
....|..|C-1 2F.A ....|--- .... ....|--- .... ....
 C-3|..|C-1 2A.F ....|C-6 6FFF ....|R-- .... ....
....|..|--- .... ....|--- .... ....|--- .... ....
....|..|C-2 2F.A ....|C-6 6FF7 ....|--- .... ....
....|..|--- .... ....|--- .... ....|--- .... ....
 C-4|..|C-2 2A.F ....|D-6 6FF7 ....|A-4 3FEF ....
 C-4|..|C-2 2A.F ....|--- .... ....|--- .... ....
....|..|C-1 2F.A ....|C-6 6FFF ....|--- .... ....
....|..|--- .... ....|--- .... ....|R-- .... ....
 G-2|..|G-1 2A.F ....|D-6 6FFF ....|B-4 3FEF ....
....|..|G-3 2F1F ....|--- .... ....|--- .... ....
....|..|C-2 2F.A ....|G-5 6FF7 ....|A-4 3FEA ....
....|..|C-2 2F.A ....|--- .... ....|--- .... ....
 G-3|..|G-1 2A.F ....|E-6 6FFF ....|--- .... ....
 G-3|..|G-1 2A.F ....|--- .... ....|R-- .... ....
....|..|G-1 2F.A ....|D-6 6FFA ....|B-4 3FEA ....
....|..|G-3 2F1A ....|--- .... ....|--- .... ....
 G-2|..|G-1 2A.F ....|B-5 6FFF ....|D-4 3FEF ....
....|..|C-2 2F.7 ....|--- .... ....|--- .... ....
....|..|G-1 2F.A ....|C-6 6FF7 ....|--- .... ....
....|..|G-1 2F.A ....|--- .... ....|R-- .... ....
 G-3|..|G-1 2A.F ....|D-6 6FFF ....|B-4 3FE7 ....
 G-3|..|G-1 2A.F ....|--- .... ....|--- .... ....
....|..|G-1 2F.A ....|B-5 6FFA ....|D-4 3FEA ....
....|..|--- .... ....|--- .... ....|--- .... ....
 G-3|..|G-1 2A.F ....|E-6 6FFF ....|--- .... ....
 G-2|..|G-1 2A.F ....|--- .... ....|--- .... ....
....|..|G-1 2F.A ....|D-6 6FFA ....|--- .... ....
....|..|G-1 2F.A ....|--- .... ....|--- .... ....
 G-3|..|G-1 2A.F ....|F-6 6FFF ....|D-4 3FE7 ....
 G-3|..|G-1 2A.F ....|--- .... ....|--- .... ....
....|..|G-1 2F.A ....|E-6 6FFA ....|--- .... ....
....|..|G-1 2F.A ....|--- .... ....|--- .... ....
 G-2|..|G-1 2A.F ....|E-6 6FFF ....|E-4 3FEF ....
....|..|G-1 2F.7 ....|--- .... ....|E-4 3FEF ....
....|..|G-1 2F.A ....|F-6 6FFA ....|--- .... ....
....|..|G-1 2F.A ....|--- .... ....|--- .... ....
 G-3|..|G-1 2A.F ....|D-6 6FFF ....|F-4 3FEF ....
 G-3|..|G-1 2A.F ....|--- .... ....|--- .... ....
....|..|G-1 2F.A ....|E-6 6FFA ....|E-4 3FEA ....
....|..|--- .... ....|--- .... ....|E-4 3FEA ....

[Pattern29]
 F-2|..|F-1 2A.F ....|F-5 6FFF ....|F-4 3FEF ....
....|..|A-3 2F2F ....|--- .... ....|C-4 3FEF ....
....|..|G-1 2F.A ....|D-6 6FFA ....|F-4 3FEA ....
....|..|G-1 2F.A ....|--- .... ....|--- .... ....
 F-3|..|F-1 2A.F ....|C-6 6FFF ....|E-4 3FE7 ....
 F-3|..|F-1 2A.F ....|--- .... ....|E-4 3FE7 ....
....|..|F-1 2F.A ....|F-5 6FFF ....|F-4 3FEA ....
....|..|A-3 2F2A ....|--- .... ....|C-4 3FEA ....
 F-3|..|F-1 2A.F ....|A-5 6FFF ....|F-4 3FE7 ....
 F-2|..|F-1 2A.F ....|--- .... ....|--- .... ....
....|..|F-1 2F.A ....|C-6 6FFA ....|--- .... ....
....|..|F-1 2F.A ....|--- .... ....|--- .... ....
 F-3|..|F-1 2A.F ....|F-5 6FF7 ....|F-4 3FE7 ....
 F-3|..|F-1 2A.F ....|--- .... ....|C-4 3FE7 ....
....|..|F-1 2F.A ....|A-5 6FFF ....|--- .... ....
....|..|F-1 2F.A ....|--- .... ....|--- .... ....
 F-3|..|F-1 2A.F ....|C-6 6FFF ....|--- .... ....
 F-2|..|F-1 2A.F ....|--- .... ....|--- .... ....
....|..|F-1 2F.A ....|F-5 6FF7 ....|--- .... ....
....|..|F-1 2F.A ....|--- .... ....|--- .... ....
 F-3|..|F-1 2A.F ....|A-5 6FF7 ....|--- .... ....
....|..|F-1 2F.7 ....|--- .... ....|--- .... ....
....|..|F-1 2F.A ....|F-5 6FFF ....|--- .... ....
....|..|F-1 2F.A ....|--- .... ....|--- .... ....
 F-3|..|F-1 2A.F ....|A-5 6FFF ....|--- .... ....
 F-2|..|F-1 2A.F ....|--- .... ....|--- .... ....
....|..|F-1 2F.A ....|A-5 6FF7 ....|--- .... ....
....|..|--- .... ....|--- .... ....|--- .... ....
 F-3|..|F-1 2A.F ....|C-6 6FF7 ....|--- .... ....
 F-3|..|F-1 2A.F ....|--- .... ....|--- .... ....
....|..|A-3 2F.F ....|A-5 6FFF ....|--- .... ....
....|..|F-1 2F.A ....|--- .... ....|--- .... ....
 E-2|..|E-1 2A.F ....|C-6 6FFF ....|--- .... ....
....|..|G-3 2F3F ....|--- .... ....|--- .... ....
....|..|F-1 2F.A ....|F-5 6FF7 ....|--- .... ....
....|..|F-1 2F.A ....|--- .... ....|--- .... ....
 E-3|..|E-1 2A.F ....|A-5 6FF7 ....|--- .... ....
 E-3|..|E-1 2A.F ....|--- .... ....|--- .... ....
....|..|E-1 2F.A ....|E-5 6FFF ....|--- .... ....
....|..|G-3 2F3A ....|--- .... ....|R-- .... ....
 E-2|..|E-1 2A.F ....|A-5 6FFF ....|B-3 3FEF ....
....|..|F-1 2F.7 ....|--- .... ....|--- .... ....
....|..|A-3 2F.7 ....|A-5 6FF7 ....|--- .... ....
....|..|E-1 2F.A ....|--- .... ....|--- .... ....
 E-3|..|E-1 2A.F ....|C-6 6FF7 ....|R-- .... ....
....|..|G-3 2F37 ....|--- .... ....|R-- .... ....
....|..|E-1 2F.A ....|A-5 6FFF ....|B-3 3FEA ....
....|..|--- .... ....|--- .... ....|--- .... ....
 E-3|..|E-1 2A.F ....|B-5 6FFF ....|C-4 3FEF ....
 E-2|..|E-1 2A.F ....|--- .... ....|--- .... ....
....|..|G-3 2F1F ....|E-5 6FF7 ....|R-- .... ....
....|..|--- .... ....|--- .... ....|R-- .... ....
 E-3|..|E-1 2A.F ....|A-5 6FF7 ....|B-3 3FE7 ....
 E-3|..|E-1 2A.F ....|--- .... ....|R-- .... ....
....|..|E-1 2F.A ....|E-5 6FFF ....|C-4 3FEA ....
....|..|E-1 2F.A ....|--- .... ....|--- .... ....
 E-2|..|E-1 2A.F ....|A-5 6FFF ....|B-3 3FEF ....
....|..|--- .... ....|--- .... ....|--- .... ....
....|..|E-1 2F.A ....|A-5 6FF7 ....|--- .... ....
....|..|E-1 2F.A ....|--- .... ....|R-- .... ....
 E-3|..|E-1 2A.F ....|B-5 6FF7 ....|C-4 3FE7 ....
....|..|E-1 2F.7 ....|--- .... ....|--- .... ....
....|..|G-3 2F17 ....|A-5 6FFF ....|B-3 3FEA ....
....|..|--- .... ....|--- .... ....|--- .... ....

[Pattern30]
 C-3|..|C-1 2A.F ....|G-5 6FFF ....|G-4 3FEF ....
....|..|C-4 2F1F ....|--- .... ....|R-- .... ....
....|..|E-1 2F.A ....|E-5 6FF7 ....|R-- .... ....
....|..|--- .... ....|--- .... ....|R-- .... ....
 C-4|..|C-2 2A.F ....|A-5 6FF7 ....|F-4 3FEF ....
....|..|--- .... ....|--- .... ....|--- .... ....
....|..|C-1 2F.A ....|G-5 6FFF ....|G-4 3FEA ....
....|..|C-4 2F1A ....|--- .... ....|R-- .... ....
 C-3|..|C-1 2A.F ....|C-6 6FFF ....|G-4 3FEF ....
....|..|--- .... ....|--- .... ....|R-- .... ....
....|..|C-2 2F.A ....|A-5 6FF7 ....|F-4 3FEA ....
....|..|--- .... ....|--- .... ....|--- .... ....
 C-4|..|C-2 2A.F ....|G-5 6FF7 ....|G-4 3FE7 ....
....|..|C-4 2F17 ....|--- .... ....|R-- .... ....
....|..|C-1 2F.A ....|C-6 6FFF ....|G-4 3FEA ....
....|..|--- .... ....|--- .... ....|R-- .... ....
 C-4|..|C-2 2A.F ....|D-6 6FFF ....|E-4 3FEF ....
 C-3|..|C-1 2A.F ....|--- .... ....|--- .... ....
....|..|C-2 2F.A ....|G-5 6FF7 ....|--- .... ....
....|..|--- .... ....|--- .... ....|R-- .... ....
 C-4|..|C-2 2A.F ....|C-6 6FF7 ....|D-4 3FEF ....
....|..|--- .... ....|--- .... ....|--- .... ....
....|..|C-2 2F.A ....|G-5 6FFF ....|E-4 3FEA ....
....|..|C-1 2F.A ....|--- .... ....|R-- .... ....
 C-3|..|C-1 2A.F ....|C-6 6FFF ....|E-4 3FEF ....
....|..|--- .... ....|--- .... ....|R-- .... ....
....|..|C-2 2F.A ....|C-6 6FF7 ....|D-4 3FEA ....
....|..|--- .... ....|--- .... ....|--- .... ....
 C-4|..|C-2 2A.F ....|D-6 6FF7 ....|E-4 3FE7 ....
 C-4|..|C-2 2A.F ....|--- .... ....|R-- .... ....
....|..|C-1 2F.A ....|C-6 6FFF ....|E-4 3FEA ....
....|..|--- .... ....|--- .... ....|R-- .... ....
 G-2|..|G-1 2A.F ....|D-6 6FFF ....|D-4 3FEF ....
....|..|G-3 2F1F ....|--- .... ....|--- .... ....
....|..|C-2 2F.A ....|G-5 6FF7 ....|--- .... ....
....|..|C-2 2F.A ....|--- .... ....|R-- .... ....
 G-3|..|G-1 2A.F ....|C-6 6FF7 ....|E-4 3FE7 ....
 G-3|..|G-1 2A.F ....|--- .... ....|--- .... ....
....|..|G-1 2F.A ....|D-6 6FFA ....|D-4 3FEA ....
....|..|G-3 2F1A ....|--- .... ....|--- .... ....
 G-2|..|G-1 2A.F ....|R-- .... ....|--- .... ....
....|..|C-2 2F.7 ....|--- .... ....|--- .... ....
....|..|G-1 2F.A ....|C-6 6FF7 ....|--- .... ....
....|..|G-1 2F.A ....|--- .... ....|--- .... ....
 G-3|..|G-1 2A.F ....|D-6 6FF7 ....|D-4 3FE7 ....
 G-3|..|G-1 2A.F ....|--- .... ....|--- .... ....
....|..|G-1 2F.A ....|R-- .... ....|--- .... ....
....|..|--- .... ....|--- .... ....|--- .... ....
 G-3|..|G-1 2A.F ....|--- .... ....|E-4 3FEF ....
 G-2|..|G-1 2A.F ....|--- .... ....|--- .... ....
....|..|G-1 2F.A ....|--- .... ....|--- .... ....
....|..|G-1 2F.A ....|--- .... ....|--- .... ....
 G-3|..|G-1 2A.F ....|--- .... ....|F-4 3FEF ....
 G-3|..|G-1 2A.F ....|--- .... ....|--- .... ....
....|..|G-1 2F.A ....|--- .... ....|E-4 3FEA ....
....|..|G-1 2F.A ....|--- .... ....|--- .... ....
 G-2|..|G-1 2A.F ....|--- .... ....|E-4 3FEF ....
....|..|G-1 2F.7 ....|--- .... ....|--- .... ....
....|..|G-1 2F.A ....|--- .... ....|F-4 3FEA ....
....|..|G-1 2F.A ....|--- .... ....|--- .... ....
 G-3|..|G-1 2A.F ....|--- .... ....|F-4 3FEF ....
 G-3|..|G-1 2A.F ....|--- .... ....|--- .... ....
....|..|G-1 2F.A ....|--- .... ....|E-4 3FEA ....
....|..|--- .... ....|--- .... ....|--- .... ....

[Pattern31]
 F-2|..|F-1 2A.F ....|F-5 6FFF ....|C-4 3FEF ....
....|..|A-3 2F2F ....|--- .... ....|--- .... ....
....|..|G-1 2F.A ....|R-- .... ....|F-4 3FEA ....
....|..|G-1 2F.A ....|--- .... ....|--- .... ....
 F-3|..|F-1 2A.F ....|--- .... ....|B-3 3FEF ....
 F-3|..|F-1 2A.F ....|--- .... ....|--- .... ....
....|..|F-1 2F.A ....|F-5 6FFF ....|C-4 3FEA ....
....|..|A-3 2F2A ....|--- .... ....|--- .... ....
 F-3|..|F-1 2A.F ....|A-5 6FFF ....|C-4 3FEF ....
 F-2|..|F-1 2A.F ....|--- .... ....|--- .... ....
....|..|F-1 2F.A ....|R-- .... ....|B-3 3FEA ....
....|..|F-1 2F.A ....|--- .... ....|--- .... ....
 F-3|..|F-1 2A.F ....|F-5 6FF7 ....|C-4 3FE7 ....
 F-3|..|F-1 2A.F ....|--- .... ....|--- .... ....
....|..|F-1 2F.A ....|A-5 6FFF ....|C-4 3FEA ....
....|..|F-1 2F.A ....|--- .... ....|--- .... ....
 F-3|..|F-1 2A.F ....|C-6 6FFF ....|E-4 3FEF ....
 F-2|..|F-1 2A.F ....|--- .... ....|--- .... ....
....|..|F-1 2F.A ....|F-5 6FF7 ....|R-- .... ....
....|..|F-1 2F.A ....|--- .... ....|--- .... ....
 F-3|..|F-1 2A.F ....|A-5 6FF7 ....|D-4 3FEF ....
....|..|F-1 2F.7 ....|--- .... ....|--- .... ....
....|..|F-1 2F.A ....|F-5 6FFF ....|E-4 3FEA ....
....|..|F-1 2F.A ....|--- .... ....|--- .... ....
 F-3|..|F-1 2A.F ....|A-5 6FFF ....|E-4 3FEF ....
 F-2|..|F-1 2A.F ....|--- .... ....|--- .... ....
....|..|F-1 2F.A ....|A-5 6FF7 ....|D-4 3FEA ....
....|..|--- .... ....|--- .... ....|--- .... ....
 F-3|..|F-1 2A.F ....|C-6 6FF7 ....|E-4 3FE7 ....
 F-3|..|F-1 2A.F ....|--- .... ....|--- .... ....
....|..|A-3 2F.F ....|A-5 6FFF ....|E-4 3FEA ....
....|..|F-1 2F.A ....|--- .... ....|--- .... ....
 E-2|..|E-1 2A.F ....|C-6 6FFF ....|B-3 3FEF ....
....|..|G-3 2F3F ....|--- .... ....|--- .... ....
....|..|F-1 2F.A ....|F-5 6FF7 ....|R-- .... ....
....|..|F-1 2F.A ....|--- .... ....|--- .... ....
 E-3|..|E-1 2A.F ....|A-5 6FF7 ....|E-4 3FE7 ....
 E-3|..|E-1 2A.F ....|--- .... ....|--- .... ....
....|..|E-1 2F.A ....|E-5 6FFF ....|B-3 3FEA ....
....|..|G-3 2F3A ....|--- .... ....|--- .... ....
 E-2|..|E-1 2A.F ....|A-5 6FFF ....|R-- .... ....
....|..|F-1 2F.7 ....|--- .... ....|--- .... ....
....|..|A-3 2F.7 ....|A-5 6FF7 ....|--- .... ....
....|..|E-1 2F.A ....|--- .... ....|--- .... ....
 E-3|..|E-1 2A.F ....|C-6 6FF7 ....|B-3 3FE7 ....
....|..|G-3 2F37 ....|--- .... ....|--- .... ....
....|..|E-1 2F.A ....|A-5 6FFF ....|--- .... ....
....|..|--- .... ....|--- .... ....|--- .... ....
 E-3|..|E-1 2A.F ....|B-5 6FFF ....|D-4 3FEF ....
 E-2|..|E-1 2A.F ....|--- .... ....|--- .... ....
....|..|F-3 2F3F ....|E-5 6FF7 ....|--- .... ....
....|..|--- .... ....|--- .... ....|--- .... ....
 E-3|..|E-1 2A.F ....|A-5 6FF7 ....|--- .... ....
 E-3|..|E-1 2A.F ....|--- .... ....|--- .... ....
....|..|E-1 2F.A ....|E-5 6FFF ....|D-4 3FEA ....
....|..|E-1 2F.A ....|--- .... ....|--- .... ....
 E-2|..|E-1 2A.F ....|A-5 6FFF ....|C-4 3FEF ....
....|..|--- .... ....|--- .... ....|--- .... ....
....|..|E-1 2F.A ....|A-5 6FF7 ....|--- .... ....
....|..|E-1 2F.A ....|--- .... ....|--- .... ....
 E-3|..|E-1 2A.F ....|B-5 6FF7 ....|D-4 3FE7 ....
....|..|E-1 2F.7 ....|--- .... ....|--- .... ....
....|..|F-3 2F37 ....|A-5 6FFF ....|C-4 3FEA ....
....|..|--- .... ....|--- .... ....|--- .... ....

[Pattern32]
 C-3|..|C-1 2A.F ....|G-5 6FFF ....|C-5 3FEF ....
....|..|C-4 2F1F ....|--- .... ....|--- .... ....
....|..|E-1 2F.A ....|E-5 6FF7 ....|--- .... ....
....|..|--- .... ....|--- .... ....|--- .... ....
 C-4|..|C-2 2A.F ....|F-5 6FFF ....|C-4 3FE7 ....
....|..|--- .... ....|--- .... ....|--- .... ....
....|..|C-1 2F.A ....|G-5 6FFF ....|C-5 3FEA ....
....|..|C-4 2F1A ....|--- .... ....|--- .... ....
 C-3|..|C-1 2A.F ....|C-6 6FFF ....|--- .... ....
....|..|--- .... ....|--- .... ....|--- .... ....
....|..|C-2 2F.A ....|F-5 6FFF ....|--- .... ....
....|..|--- .... ....|--- .... ....|--- .... ....
 C-4|..|C-2 2A.F ....|G-5 6FF7 ....|C-5 3FE7 ....
....|..|C-4 2F17 ....|--- .... ....|--- .... ....
....|..|C-1 2F.A ....|C-6 6FFF ....|--- .... ....
....|..|--- .... ....|--- .... ....|--- .... ....
 C-4|..|C-2 2A.F ....|D-6 6FFF ....|G-4 3FEF ....
 C-3|..|C-1 2A.F ....|--- .... ....|--- .... ....
....|..|C-2 2F.A ....|G-5 6FF7 ....|R-- .... ....
....|..|--- .... ....|--- .... ....|--- .... ....
 C-4|..|C-2 2A.F ....|C-6 6FF7 ....|--- .... ....
....|..|--- .... ....|--- .... ....|--- .... ....
....|..|C-2 2F.A ....|G-5 6FFF ....|G-4 3FEA ....
....|..|C-1 2F.A ....|--- .... ....|--- .... ....
 C-3|..|C-1 2A.F ....|C-6 6FFF ....|R-- .... ....
....|..|--- .... ....|--- .... ....|--- .... ....
....|..|C-2 2F.A ....|C-6 6FF7 ....|--- .... ....
....|..|--- .... ....|--- .... ....|--- .... ....
 C-4|..|C-2 2A.F ....|D-6 6FF7 ....|A-4 3FEF ....
 C-4|..|C-2 2A.F ....|--- .... ....|--- .... ....
....|..|C-1 2F.A ....|C-6 6FFF ....|--- .... ....
....|..|--- .... ....|--- .... ....|R-- .... ....
 G-2|..|G-1 2A.F ....|D-6 6FFF ....|B-4 3FEF ....
....|..|G-3 2F1F ....|--- .... ....|--- .... ....
....|..|C-2 2F.A ....|G-5 6FF7 ....|A-4 3FEA ....
....|..|C-2 2F.A ....|--- .... ....|--- .... ....
 G-3|..|G-1 2A.F ....|E-6 6FFF ....|--- .... ....
 G-3|..|G-1 2A.F ....|--- .... ....|R-- .... ....
....|..|G-1 2F.A ....|D-6 6FFA ....|B-4 3FEA ....
....|..|G-3 2F1A ....|--- .... ....|--- .... ....
 G-2|..|G-1 2A.F ....|B-5 6FFF ....|D-4 3FEF ....
....|..|C-2 2F.7 ....|--- .... ....|--- .... ....
....|..|G-1 2F.A ....|C-6 6FF7 ....|--- .... ....
....|..|G-1 2F.A ....|--- .... ....|R-- .... ....
 G-3|..|G-1 2A.F ....|D-6 6FFF ....|B-4 3FE7 ....
 G-3|..|G-1 2A.F ....|--- .... ....|--- .... ....
....|..|G-1 2F.A ....|B-5 6FFA ....|D-4 3FEA ....
....|..|--- .... ....|--- .... ....|--- .... ....
 G-3|..|G-1 2A.F ....|E-6 6FFF ....|--- .... ....
 G-2|..|G-1 2A.F ....|--- .... ....|--- .... ....
....|..|G-1 2F.A ....|D-6 6FFA ....|--- .... ....
....|..|G-1 2F.A ....|--- .... ....|--- .... ....
 G-3|..|G-1 2A.F ....|F-6 6FFF ....|D-4 3FE7 ....
 G-3|..|G-1 2A.F ....|--- .... ....|--- .... ....
....|..|G-1 2F.A ....|E-6 6FFA ....|--- .... ....
....|..|G-1 2F.A ....|--- .... ....|--- .... ....
 G-2|..|G-1 2A.F ....|E-6 6FFF ....|E-4 3FEF ....
....|..|G-1 2F.7 ....|--- .... ....|E-4 3FEF ....
....|..|G-1 2F.A ....|F-6 6FFA ....|--- .... ....
....|..|G-1 2F.A ....|--- .... ....|--- .... ....
 G-3|..|G-1 2A.F ....|D-6 6FFF ....|F-4 3FEF ....
 G-3|..|G-1 2A.F ....|--- .... ....|--- .... ....
....|..|G-1 2F.A ....|E-6 6FFA ....|E-4 3FEA ....
....|..|--- .... ....|--- .... ....|E-4 3FEA ....

[Pattern33]
 F-2|..|F-1 2A.F ....|F-5 6FFF ....|F-4 3FEF ....
....|..|A-3 2F2F ....|--- .... ....|C-4 3FEF ....
....|..|G-1 2F.A ....|D-6 6FFA ....|F-4 3FEA ....
....|..|G-1 2F.A ....|--- .... ....|--- .... ....
 F-3|..|F-1 2A.F ....|C-6 6FFF ....|E-4 3FE7 ....
 F-3|..|F-1 2A.F ....|--- .... ....|E-4 3FE7 ....
....|..|F-1 2F.A ....|F-5 6FFF ....|F-4 3FEA ....
....|..|A-3 2F2A ....|--- .... ....|C-4 3FEA ....
 F-3|..|F-1 2A.F ....|A-5 6FFF ....|F-4 3FE7 ....
 F-2|..|F-1 2A.F ....|--- .... ....|--- .... ....
....|..|F-1 2F.A ....|C-6 6FFA ....|--- .... ....
....|..|F-1 2F.A ....|--- .... ....|--- .... ....
 F-3|..|F-1 2A.F ....|F-5 6FF7 ....|F-4 3FE7 ....
 F-3|..|F-1 2A.F ....|--- .... ....|C-4 3FE7 ....
....|..|F-1 2F.A ....|A-5 6FFF ....|--- .... ....
....|..|F-1 2F.A ....|--- .... ....|--- .... ....
 F-3|..|F-1 2A.F ....|C-6 6FFF ....|G-3 3FEF ....
 F-2|..|F-1 2A.F ....|--- .... ....|--- .... ....
....|..|F-1 2F.A ....|F-5 6FF7 ....|R-- .... ....
....|..|F-1 2F.A ....|--- .... ....|--- .... ....
 F-3|..|F-1 2A.F ....|A-5 6FF7 ....|--- .... ....
....|..|F-1 2F.7 ....|--- .... ....|--- .... ....
....|..|F-1 2F.A ....|F-5 6FFF ....|G-3 3FEA ....
....|..|F-1 2F.A ....|--- .... ....|--- .... ....
 F-3|..|F-1 2A.F ....|A-5 6FFF ....|R-- .... ....
 F-2|..|F-1 2A.F ....|--- .... ....|--- .... ....
....|..|F-1 2F.A ....|A-5 6FF7 ....|--- .... ....
....|..|--- .... ....|--- .... ....|--- .... ....
 F-3|..|F-1 2A.F ....|C-6 6FF7 ....|A-3 3FEF ....
 F-3|..|F-1 2A.F ....|--- .... ....|--- .... ....
....|..|A-3 2F.F ....|A-5 6FFF ....|--- .... ....
....|..|F-1 2F.A ....|--- .... ....|R-- .... ....
 E-2|..|E-1 2A.F ....|C-6 6FFF ....|B-3 3FEF ....
....|..|G-3 2F3F ....|--- .... ....|--- .... ....
....|..|F-1 2F.A ....|F-5 6FF7 ....|A-3 3FEA ....
....|..|F-1 2F.A ....|--- .... ....|--- .... ....
 E-3|..|E-1 2A.F ....|A-5 6FF7 ....|--- .... ....
 E-3|..|E-1 2A.F ....|--- .... ....|R-- .... ....
....|..|E-1 2F.A ....|E-5 6FFF ....|B-3 3FEA ....
....|..|G-3 2F3A ....|--- .... ....|--- .... ....
 E-2|..|E-1 2A.F ....|A-5 6FFF ....|D-3 3FEF ....
....|..|F-1 2F.7 ....|--- .... ....|--- .... ....
....|..|A-3 2F.7 ....|A-5 6FF7 ....|--- .... ....
....|..|E-1 2F.A ....|--- .... ....|R-- .... ....
 E-3|..|E-1 2A.F ....|C-6 6FF7 ....|B-3 3FE7 ....
....|..|G-3 2F37 ....|--- .... ....|--- .... ....
....|..|E-1 2F.A ....|A-5 6FFF ....|D-3 3FEA ....
....|..|--- .... ....|--- .... ....|--- .... ....
 E-3|..|E-1 2A.F ....|B-5 6FFF ....|--- .... ....
 E-2|..|E-1 2A.F ....|--- .... ....|--- .... ....
....|..|G-3 2F1F ....|E-5 6FF7 ....|--- .... ....
....|..|--- .... ....|--- .... ....|--- .... ....
 E-3|..|E-1 2A.F ....|A-5 6FF7 ....|D-3 3FE7 ....
 E-3|..|E-1 2A.F ....|--- .... ....|--- .... ....
....|..|E-1 2F.A ....|E-5 6FFF ....|--- .... ....
....|..|E-1 2F.A ....|--- .... ....|--- .... ....
 E-2|..|E-1 2A.F ....|A-5 6FFF ....|E-3 3FEF ....
....|..|--- .... ....|--- .... ....|E-3 3FEF ....
....|..|E-1 2F.A ....|A-5 6FF7 ....|--- .... ....
....|..|E-1 2F.A ....|--- .... ....|--- .... ....
 E-3|..|E-1 2A.F ....|B-5 6FF7 ....|F-3 3FEF ....
....|..|E-1 2F.7 ....|--- .... ....|--- .... ....
....|..|G-3 2F17 ....|A-5 6FFF ....|E-3 3FEA ....
....|..|--- .... ....|--- .... ....|E-3 3FEA ....

[Pattern34]
 C-3|..|C-1 2A.F ....|G-5 6FFF ....|E-4 3FEF ....
....|..|C-4 2F1F ....|--- .... ....|--- .... ....
....|..|E-1 2F.A ....|E-5 6FF7 ....|F-3 3FEA ....
....|..|--- .... ....|--- .... ....|R-- .... ....
 C-4|..|C-2 2A.F ....|A-5 6FF7 ....|D-4 3FEF ....
....|..|--- .... ....|--- .... ....|E-3 3FE7 ....
....|..|C-1 2F.A ....|G-5 6FFF ....|E-4 3FEA ....
....|..|C-4 2F1A ....|--- .... ....|R-- .... ....
 C-3|..|C-1 2A.F ....|C-6 6FFF ....|E-4 3FEF ....
....|..|--- .... ....|--- .... ....|R-- .... ....
....|..|C-2 2F.A ....|A-5 6FF7 ....|D-4 3FEA ....
....|..|--- .... ....|--- .... ....|--- .... ....
 C-4|..|C-2 2A.F ....|G-5 6FF7 ....|E-4 3FE7 ....
....|..|C-4 2F17 ....|--- .... ....|R-- .... ....
....|..|C-1 2F.A ....|C-6 6FFF ....|E-4 3FEA ....
....|..|--- .... ....|--- .... ....|R-- .... ....
 C-4|..|C-2 2A.F ....|D-6 6FFF ....|E-4 3FEF ....
 C-3|..|C-1 2A.F ....|--- .... ....|--- .... ....
....|..|C-2 2F.A ....|G-5 6FF7 ....|--- .... ....
....|..|--- .... ....|--- .... ....|R-- .... ....
 C-4|..|C-2 2A.F ....|C-6 6FF7 ....|D-4 3FEF ....
....|..|--- .... ....|--- .... ....|--- .... ....
....|..|C-2 2F.A ....|G-5 6FFF ....|E-4 3FEA ....
....|..|C-1 2F.A ....|--- .... ....|R-- .... ....
 C-3|..|C-1 2A.F ....|C-6 6FFF ....|E-4 3FEF ....
....|..|--- .... ....|--- .... ....|R-- .... ....
....|..|C-2 2F.A ....|C-6 6FF7 ....|D-4 3FEA ....
....|..|--- .... ....|--- .... ....|--- .... ....
 C-4|..|C-2 2A.F ....|D-6 6FF7 ....|E-4 3FE7 ....
 C-4|..|C-2 2A.F ....|--- .... ....|R-- .... ....
....|..|C-1 2F.A ....|C-6 6FFF ....|E-4 3FEA ....
....|..|--- .... ....|--- .... ....|R-- .... ....
 G-2|..|G-1 2A.F ....|D-6 6FFF ....|A-3 3FEF ....
....|..|G-3 2F1F ....|--- .... ....|--- .... ....
....|..|C-2 2F.A ....|G-5 6FF7 ....|--- .... ....
....|..|C-2 2F.A ....|--- .... ....|R-- .... ....
 G-3|..|G-1 2A.F ....|C-6 6FF7 ....|E-4 3FE7 ....
 G-3|..|G-1 2A.F ....|--- .... ....|--- .... ....
....|..|G-1 2F.A ....|D-6 6FFA ....|A-3 3FEA ....
....|..|G-3 2F1A ....|--- .... ....|--- .... ....
 G-2|..|G-1 2A.F ....|R-- .... ....|G-3 3FEF ....
....|..|C-2 2F.7 ....|--- .... ....|--- .... ....
....|..|G-1 2F.A ....|C-6 6FF7 ....|--- .... ....
....|..|G-1 2F.A ....|--- .... ....|--- .... ....
 G-3|..|G-1 2A.F ....|D-6 6FF7 ....|A-3 3FE7 ....
 G-3|..|G-1 2A.F ....|--- .... ....|--- .... ....
....|..|G-1 2F.A ....|R-- .... ....|G-3 3FEA ....
....|..|--- .... ....|--- .... ....|--- .... ....
 G-3|..|G-1 2A.F ....|--- .... ....|E-3 3FEF ....
 G-2|..|G-1 2A.F ....|--- .... ....|--- .... ....
....|..|G-1 2F.A ....|--- .... ....|--- .... ....
....|..|G-1 2F.A ....|--- .... ....|--- .... ....
 G-3|..|G-1 2A.F ....|--- .... ....|G-3 3FE7 ....
 G-3|..|G-1 2A.F ....|--- .... ....|--- .... ....
....|..|G-1 2F.A ....|--- .... ....|E-3 3FEA ....
....|..|G-1 2F.A ....|--- .... ....|--- .... ....
 G-2|..|G-1 2A.F ....|--- .... ....|F-3 3FEF ....
....|..|G-1 2F.7 ....|--- .... ....|--- .... ....
....|..|G-1 2F.A ....|--- .... ....|R-- .... ....
....|..|G-1 2F.A ....|--- .... ....|--- .... ....
 G-3|..|G-1 2A.F ....|--- .... ....|E-3 3FE7 ....
 G-3|..|G-1 2A.F ....|--- .... ....|--- .... ....
....|..|G-1 2F.A ....|--- .... ....|F-3 3FEA ....
....|..|--- .... ....|--- .... ....|--- .... ....

[Pattern35]
 F-2|..|F-1 2A.F ....|F-5 6FFF ....|C-4 3FEF ....
....|..|A-3 2F2F ....|--- .... ....|--- .... ....
....|..|G-1 2F.A ....|R-- .... ....|R-- .... ....
....|..|G-1 2F.A ....|--- .... ....|--- .... ....
 F-3|..|F-1 2A.F ....|--- .... ....|F-3 3FE7 ....
 F-3|..|F-1 2A.F ....|--- .... ....|--- .... ....
....|..|F-1 2F.A ....|F-5 6FFF ....|C-4 3FEA ....
....|..|A-3 2F2A ....|--- .... ....|--- .... ....
 F-3|..|F-1 2A.F ....|A-5 6FFF ....|B-3 3FEF ....
 F-2|..|F-1 2A.F ....|--- .... ....|--- .... ....
....|..|F-1 2F.A ....|R-- .... ....|--- .... ....
....|..|F-1 2F.A ....|--- .... ....|--- .... ....
 F-3|..|F-1 2A.F ....|F-5 6FF7 ....|C-4 3FE7 ....
 F-3|..|F-1 2A.F ....|--- .... ....|--- .... ....
....|..|F-1 2F.A ....|A-5 6FFF ....|B-3 3FEA ....
....|..|F-1 2F.A ....|--- .... ....|--- .... ....
 F-3|..|F-1 2A.F ....|C-6 6FFF ....|D-3 3FEF ....
 F-2|..|F-1 2A.F ....|--- .... ....|--- .... ....
....|..|F-1 2F.A ....|F-5 6FF7 ....|--- .... ....
....|..|F-1 2F.A ....|--- .... ....|--- .... ....
 F-3|..|F-1 2A.F ....|A-5 6FF7 ....|B-3 3FE7 ....
....|..|F-1 2F.7 ....|--- .... ....|--- .... ....
....|..|F-1 2F.A ....|F-5 6FFF ....|D-3 3FEA ....
....|..|F-1 2F.A ....|--- .... ....|--- .... ....
 F-3|..|F-1 2A.F ....|A-5 6FFF ....|E-3 3FEF ....
 F-2|..|F-1 2A.F ....|--- .... ....|--- .... ....
....|..|F-1 2F.A ....|A-5 6FF7 ....|R-- .... ....
....|..|--- .... ....|--- .... ....|--- .... ....
 F-3|..|F-1 2A.F ....|C-6 6FF7 ....|D-3 3FE7 ....
 F-3|..|F-1 2A.F ....|--- .... ....|--- .... ....
....|..|A-3 2F.F ....|A-5 6FFF ....|E-3 3FEA ....
....|..|F-1 2F.A ....|--- .... ....|--- .... ....
 E-2|..|E-1 2A.F ....|C-6 6FFF ....|A-3 3FEF ....
....|..|G-3 2F3F ....|--- .... ....|--- .... ....
....|..|F-1 2F.A ....|F-5 6FF7 ....|R-- .... ....
....|..|F-1 2F.A ....|--- .... ....|--- .... ....
 E-3|..|E-1 2A.F ....|A-5 6FF7 ....|E-3 3FE7 ....
 E-3|..|E-1 2A.F ....|--- .... ....|--- .... ....
....|..|E-1 2F.A ....|E-5 6FFF ....|A-3 3FEA ....
....|..|G-3 2F3A ....|--- .... ....|--- .... ....
 E-2|..|E-1 2A.F ....|A-5 6FFF ....|G-3 3FEF ....
....|..|F-1 2F.7 ....|--- .... ....|--- .... ....
....|..|A-3 2F.7 ....|A-5 6FF7 ....|--- .... ....
....|..|E-1 2F.A ....|--- .... ....|--- .... ....
 E-3|..|E-1 2A.F ....|C-6 6FF7 ....|A-3 3FE7 ....
....|..|G-3 2F37 ....|--- .... ....|--- .... ....
....|..|E-1 2F.A ....|A-5 6FFF ....|G-3 3FEA ....
....|..|--- .... ....|--- .... ....|--- .... ....
 E-3|..|E-1 2A.F ....|B-5 6FFF ....|D-3 3FEF ....
 E-2|..|E-1 2A.F ....|--- .... ....|--- .... ....
....|..|F-3 2F3F ....|E-5 6FF7 ....|--- .... ....
....|..|--- .... ....|--- .... ....|--- .... ....
 E-3|..|E-1 2A.F ....|A-5 6FF7 ....|G-3 3FE7 ....
 E-3|..|E-1 2A.F ....|--- .... ....|--- .... ....
....|..|E-1 2F.A ....|E-5 6FFF ....|D-3 3FEA ....
....|..|E-1 2F.A ....|--- .... ....|--- .... ....
 E-2|..|E-1 2A.F ....|A-5 6FFF ....|C-3 3FEF ....
....|..|--- .... ....|--- .... ....|--- .... ....
....|..|E-1 2F.A ....|A-5 6FF7 ....|--- .... ....
....|..|E-1 2F.A ....|--- .... ....|--- .... ....
 E-3|..|E-1 2A.F ....|B-5 6FF7 ....|D-3 3FE7 ....
....|..|E-1 2F.7 ....|--- .... ....|--- .... ....
....|..|F-3 2F37 ....|A-5 6FFF ....|C-3 3FEA ....
....|..|--- .... ....|--- .... ....|--- .... ....

[Pattern36]
....|..|E-1 2F.7 ....|G-5 6FFF ....|R-- .... ....
....|..|E-1 2F.7 ....|--- .... ....|--- .... ....
....|..|E-1 2F.A ....|E-5 6FF7 ....|--- .... ....
....|..|--- .... ....|--- .... ....|--- .... ....
....|..|E-1 2F.7 ....|F-5 6FFF ....|C-3 3FE7 ....
....|..|--- .... ....|--- .... ....|--- .... ....
....|..|R-- .... ....|G-5 6FFF ....|R-- .... ....
....|..|--- .... ....|--- .... ....|--- .... ....
....|..|E-1 2F.7 ....|C-6 6FFF ....|--- .... ....
....|..|--- .... ....|--- .... ....|--- .... ....
....|..|R-- .... ....|F-5 6FFF ....|--- .... ....
....|..|--- .... ....|--- .... ....|--- .... ....
....|..|R-- .... ....|G-5 6FF7 ....|R-- .... ....
....|..|--- .... ....|--- .... ....|--- .... ....
....|..|--- .... ....|C-6 6FFF ....|--- .... ....
....|..|--- .... ....|--- .... ....|--- .... ....
....|..|--- .... ....|D-6 6FFF ....|--- .... ....
....|..|--- .... ....|--- .... ....|--- .... ....
....|..|--- .... ....|G-5 6FF7 ....|--- .... ....
....|..|--- .... ....|--- .... ....|--- .... ....
....|..|--- .... ....|C-6 6FF7 ....|--- .... ....
....|..|--- .... ....|--- .... ....|--- .... ....
....|..|--- .... ....|G-5 6FFF ....|--- .... ....
....|..|--- .... ....|--- .... ....|--- .... ....
....|..|--- .... ....|C-6 6FFF ....|--- .... ....
....|..|--- .... ....|--- .... ....|--- .... ....
....|..|--- .... ....|C-6 6FF7 ....|--- .... ....
....|..|--- .... ....|--- .... ....|--- .... ....
....|..|--- .... ....|D-6 6FF7 ....|--- .... ....
....|..|--- .... ....|--- .... ....|--- .... ....
....|..|--- .... ....|C-6 6FFF ....|--- .... ....
....|..|--- .... ....|--- .... ....|--- .... ....
....|..|--- .... ....|D-6 6FFF ....|--- .... ....
....|..|--- .... ....|--- .... ....|--- .... ....
....|..|--- .... ....|G-5 6FF7 ....|--- .... ....
....|..|--- .... ....|--- .... ....|--- .... ....
....|..|--- .... ....|E-6 6FFF ....|--- .... ....
....|..|--- .... ....|--- .... ....|--- .... ....
....|..|--- .... ....|D-6 6FFA ....|--- .... ....
....|..|--- .... ....|--- .... ....|--- .... ....
....|..|--- .... ....|B-5 6FFF ....|--- .... ....
....|..|--- .... ....|--- .... ....|--- .... ....
....|..|--- .... ....|C-6 6FF7 ....|--- .... ....
....|..|--- .... ....|--- .... ....|--- .... ....
....|..|--- .... ....|D-6 6FFF ....|--- .... ....
....|..|--- .... ....|--- .... ....|--- .... ....
....|..|--- .... ....|B-5 6FFA ....|--- .... ....
....|..|--- .... ....|--- .... ....|--- .... ....
....|..|--- .... ....|E-6 6FFF ....|--- .... ....
....|..|--- .... ....|--- .... ....|--- .... ....
....|..|--- .... ....|D-6 6FFA ....|--- .... ....
....|..|--- .... ....|--- .... ....|--- .... ....
....|..|--- .... ....|F-6 6FFF ....|--- .... ....
....|..|--- .... ....|--- .... ....|--- .... ....
....|..|--- .... ....|E-6 6FFA ....|--- .... ....
....|..|--- .... ....|--- .... ....|--- .... ....
....|..|--- .... ....|E-6 6FFF ....|--- .... ....
....|..|--- .... ....|--- .... ....|--- .... ....
....|..|--- .... ....|F-6 6FFA ....|--- .... ....
....|..|--- .... ....|--- .... ....|--- .... ....
....|..|--- .... ....|D-6 6FFF ....|--- .... ....
....|..|--- .... ....|--- .... ....|--- .... ....
....|..|--- .... ....|E-6 6FFA ....|--- .... ....
....|..|--- .... ....|--- .... ....|--- .... ....

[Pattern37]
....|..|--- .... ....|F-5 6FFF ....|--- .... ....
....|..|--- .... ....|--- .... ....|--- .... ....
....|..|--- .... ....|D-6 6FFA ....|--- .... ....
....|..|--- .... ....|--- .... ....|--- .... ....
....|..|--- .... ....|C-6 6FFF ....|--- .... ....
....|..|--- .... ....|--- .... ....|--- .... ....
....|..|--- .... ....|F-5 6FFF ....|--- .... ....
....|..|--- .... ....|--- .... ....|--- .... ....
....|..|--- .... ....|A-5 6FFF ....|--- .... ....
....|..|--- .... ....|--- .... ....|--- .... ....
....|..|--- .... ....|C-6 6FFA ....|--- .... ....
....|..|--- .... ....|--- .... ....|--- .... ....
....|..|--- .... ....|F-5 6FF7 ....|--- .... ....
....|..|--- .... ....|--- .... ....|--- .... ....
....|..|--- .... ....|A-5 6FFF ....|--- .... ....
....|..|--- .... ....|--- .... ....|--- .... ....
....|..|--- .... ....|C-6 6FFF ....|--- .... ....
....|..|--- .... ....|--- .... ....|--- .... ....
....|..|--- .... ....|F-5 6FF7 ....|--- .... ....
....|..|--- .... ....|--- .... ....|--- .... ....
....|..|--- .... ....|A-5 6FF7 ....|--- .... ....
....|..|--- .... ....|--- .... ....|--- .... ....
....|..|--- .... ....|F-5 6FFF ....|--- .... ....
....|..|--- .... ....|--- .... ....|--- .... ....
....|..|--- .... ....|A-5 6FFF ....|--- .... ....
....|..|--- .... ....|--- .... ....|--- .... ....
....|..|--- .... ....|A-5 6FF7 ....|--- .... ....
....|..|--- .... ....|--- .... ....|--- .... ....
....|..|--- .... ....|C-6 6FF7 ....|--- .... ....
....|..|--- .... ....|--- .... ....|--- .... ....
....|..|--- .... ....|A-5 6FFF ....|--- .... ....
....|..|--- .... ....|--- .... ....|--- .... ....
....|..|--- .... ....|C-6 6FFF ....|--- .... ....
....|..|--- .... ....|--- .... ....|--- .... ....
....|..|--- .... ....|F-5 6FF7 ....|--- .... ....
....|..|--- .... ....|--- .... ....|--- .... ....
....|..|--- .... ....|A-5 6FF7 ....|--- .... ....
....|..|--- .... ....|--- .... ....|--- .... ....
....|..|--- .... ....|E-5 6FFF ....|--- .... ....
....|..|--- .... ....|--- .... ....|--- .... ....
....|..|--- .... ....|A-5 6FFF ....|--- .... ....
....|..|--- .... ....|--- .... ....|--- .... ....
....|..|--- .... ....|A-5 6FF7 ....|--- .... ....
....|..|--- .... ....|--- .... ....|--- .... ....
....|..|--- .... ....|C-6 6FF7 ....|--- .... ....
....|..|--- .... ....|--- .... ....|--- .... ....
....|..|--- .... ....|A-5 6FFF ....|--- .... ....
....|..|--- .... ....|--- .... ....|--- .... ....
....|..|--- .... ....|B-5 6FFF ....|--- .... ....
....|..|--- .... ....|--- .... ....|--- .... ....
....|..|--- .... ....|E-5 6FF7 ....|--- .... ....
....|..|--- .... ....|--- .... ....|--- .... ....
....|..|--- .... ....|A-5 6FF7 ....|--- .... ....
....|..|--- .... ....|--- .... ....|--- .... ....
....|..|--- .... ....|E-5 6FFF ....|--- .... ....
....|..|--- .... ....|--- .... ....|--- .... ....
....|..|--- .... ....|A-5 6FFF ....|--- .... ....
....|..|--- .... ....|--- .... ....|--- .... ....
....|..|--- .... ....|A-5 6FF7 ....|--- .... ....
....|..|--- .... ....|--- .... ....|--- .... ....
....|..|--- .... ....|B-5 6FF7 ....|--- .... ....
....|..|--- .... ....|--- .... ....|--- .... ....
....|..|--- .... ....|A-5 6FFF ....|--- .... ....
....|..|--- .... ....|--- .... ....|--- .... ....

[Pattern38]
....|..|--- .... ....|R-- .... ....|--- .... ....
....|..|--- .... ....|--- .... ....|--- .... ....
....|..|--- .... ....|E-5 6FF7 ....|--- .... ....
....|..|--- .... ....|--- .... ....|--- .... ....
....|..|--- .... ....|A-5 6FF7 ....|--- .... ....
....|..|--- .... ....|--- .... ....|--- .... ....
....|..|--- .... ....|R-- .... ....|--- .... ....
....|..|--- .... ....|--- .... ....|--- .... ....
....|..|--- .... ....|--- .... ....|--- .... ....
....|..|--- .... ....|--- .... ....|--- .... ....
....|..|--- .... ....|A-5 6FF7 ....|--- .... ....
....|..|--- .... ....|--- .... ....|--- .... ....
