[Module]
VortexTrackerII=0
Version=3.5
Title=0d-2me,4m-3p,5m-6m+-3p+-2m+
Author=oisee ^ 4d 29.05.2010
NoteTable=4
ChipFreq=1750000
Speed=3
PlayOrder=L0,1,2,3,4,5,6,7,8,9,10,11,12,13,14,15,16,17,18,19,20,21,22,23,24,25,26,27,28,29,30,31,32,33,34,35,36,37,38,39,40,41,42,43,44,45,46,47,48,49,50

[Ornament1]
L0,0,5,5,9,9

[Ornament2]
L0,0,4,4

[Ornament3]
L0,0,4,4,9,9,12,12

[Ornament4]
L0,0,3,3,8,8

[Ornament5]
L0,0,2,2,5,5,10,10

[Ornament6]
L0,0,2,2,3,3,8,8

[Ornament7]
L0,0,4,4,8,8

[Ornament8]
L0,0,8,8

[Ornament9]
L0,0,1,1,5,5

[Ornament10]
L0,0,1,1,3,3,8,8

[Ornament11]
L0,0,1,1,4,4,9,9

[Ornament12]
L0,0,3,3,8,8,12,12

[Ornament13]
L0,0,3,3,8,8,12,12,14,14

[Ornament14]
L0,0,3,3,8,8,12,12,13,13

[Ornament15]
L0

[Sample1]
TnE +000_ +00_ F_
TnE +000_ +00_ F_
TnE +000_ +00_ F_
TnE +000_ +00_ D_
TnE +000_ +00_ B_
TnE +000_ +00_ B_ L

[Sample2]
TnE +000_ +00_ F_ L

[Sample3]
TnE +001_ +00_ F_
TnE +002_ +00_ F_
TnE +001_ +00_ E_
TnE +002_ +00_ E_
TnE +000_ +00_ E_ L
TnE -001_ +00_ E_
TnE -002_ +00_ E_
TnE -001_ +00_ E_
TnE +000_ +00_ E_
TnE +001_ +00_ E_
TnE +002_ +00_ E_
TnE +001_ +00_ E_

[Sample4]
TnE +002_ +00_ D_
TnE +002_ +00_ D_
TnE +002_ +00_ C_
TnE +002_ +00_ B_
TnE +002_ +00_ A_ L
TnE +002_ +00_ A_
TnE +002_ +00_ A_
TnE +002_ +00_ A_
TnE +002_ +00_ A_
TnE +002_ +00_ A_
TnE +002_ +00_ A_
TnE +002_ +00_ A_

[Sample5]
TnE +000_ +00_ F_
TnE +000_ +00_ F_
tne +000_ +00_ 0_ L

[Sample6]
TnE -001_ +00_ F_ L

[Sample7]
TnE +006_ +00_ F_ L

[Sample8]
tNe +000_ +00_ F_
tNe +000_ +00_ B_
tNe +000_ +00_ 7_
tNe +000_ +00_ 6- L

[Sample9]
TnE +080_ +00_ F_
TnE +100_ +00_ E_
TnE +180_ +00_ E_
TnE +200_ +00_ E_
TnE +240_ +00_ D_
TnE +280_ +00_ D_
TnE +2C0_ +00_ D_
TnE +300_ +00_ C_
TnE +300_ +00_ C_
TnE +340_ +00_ C_
TnE +340_ +00_ C_
TnE +380_ +00_ B_
TnE +380_ +00_ B_
TnE +400_ +00_ B_
TnE +400_ +00_ B_
TnE +480_ +00_ A_
TnE +500_ +00_ 9_
TnE +580_ +00_ 7_
TnE +600_ +00_ 4_
TnE +680_ +00_ 1_
TnE +000_ +00_ 0_ L

[Sample10]
Tne +1C0_ +00_ F_
Tne +280_ +00_ E_
Tne +380_ +00_ C_
Tne +440_ +00_ A_
Tne +480_ +00_ 8_
TnE +000_ +00_ 0_ L

[Sample11]
TNe +200_ -0A_ F_
tNe +000_ +0F_ A_
TNe +200_ -07_ E_
tNe +000_ +0E_ B- L

[Sample12]
TNE +0A0_ +05_ F_
TNE +140_ +02_ D_
TNE +140_ +02_ B_
TNE +100_ +00_ A_ L
TNE +140_ +00_ A_
TNE +200_ +00_ A-

[Sample13]
Tne +200_ +00_ F_
Tne +2C0_ +00_ F_
Tne +380_ +00_ E_
Tne +500_ +00_ C_
Tne +520_ +00_ 9_
tne +000_ +00_ 0_ L

[Sample14]
TNE -100_ +00_ F_
TNE -100_ +00_ D_
TNE -100_ +00_ A_
TNE -100_ +00_ 5_
tne +000_ +00_ 0_ L

[Sample15]
TNE -100_ +00_ 5_
TNE -100_ +00_ 8_
TNE -100_ +00_ B_
TNE -100_ +00_ F_
TNe -100_ +00_ 9- L

[Sample16]
TnE +000_ +00_ C_
TnE +000_ +00_ E_
TnE +000_ +00_ F_
TnE +000_ +00_ F_
TnE +000_ +00_ E_
TnE +000_ +00_ D_
TnE +000_ +00_ C_
TnE +000_ +00_ C_ L
TnE +001_ +00_ C_
TnE +002_ +00_ C_
TnE +003_ +00_ C_
TnE +001_ +00_ C_
TnE +000_ +00_ C_
TnE -001_ +00_ C_
TnE -002_ +00_ C_
TnE -003_ +00_ C_
TnE -001_ +00_ C_
TnE +000_ +00_ C_
TnE +000_ +00_ C_

[Sample17]
Tne +1C0_ +00_ F_
Tne +280_ +00_ D_
Tne +380_ +00_ 7_
TNE +000_ +00_ 0_ L

[Sample18]
TnE -00C_ +00_ 0_ L

[Sample19]
TNe +000_ +00_ F_
TNe +000_ +00_ C_
TNe +000_ +00_ 6_
TNe +000_ +01_ A- L

[Sample20]
TNE +140_ +00_ F_
tNE +000_ +00_ B- L

[Sample21]
tNE +000_ +00_ D_
tNE +000_ +00_ 8_
tNE +000_ +00_ 1_
TNE +000_ +00_ 0_ L

[Sample22]
TnE +000_ +00_ D_ L
TnE +000_ +00_ D_
tne +000_ +00_ 9_
tne +000_ +00_ 9_
TnE +000_ +00_ D_
TnE +000_ +00_ D_
tne +000_ +00_ 9_
tne +000_ +00_ 9_
TnE +000_ +00_ D_
TnE +000_ +00_ D_
TnE +000_ +00_ D_
TnE +000_ +00_ D_
TnE +000_ +00_ D_
TnE +000_ +00_ D_
tne +000_ +00_ 9_
tne +000_ +00_ 9_

[Sample23]
TnE +000_ +00_ F_ L
TnE +010_ +01_ F_
TnE +010_ +01_ F_
TnE +010_ +01_ F_
TnE +010_ +01_ F_
TnE +000_ +00_ F_
TnE +000_ +00_ F_
TnE -010_ -01_ F_
TnE -010_ -01_ F_
TnE -010_ -01_ F_
TnE -010_ -01_ F_
TnE +000_ +00_ F_

[Sample24]
TNe +000_ -01_ C_
TNe +000_ -01_ D_
TNe +000_ -01_ E_
TNe +000_ -01_ F_
TNe +000_ -01_ F_
TNe +000_ -01_ F_
TNe +000_ -01_ F_
TNe +000_ -01_ F_
TNe +000_ -01_ E_
TNe +000_ -01_ E_
TNe +000_ -01_ E_
TNe +000_ -01_ F_
TNe +000_ -01_ F_ L

[Sample25]
TNE +000_ +00_ F_
TNE +000_ +00_ F_ L
TNE +000_ +00_ F_
TNE +000_ +00_ F_
TNE +000_ +00_ F-

[Sample26]
tne +000_ +00_ 0_ L

[Sample27]
TnE +100_ +05_ F_
TnE +200_ +02_ A_
TnE +300_ +02_ 7_
TNE +400_ +00_ 3- L

[Sample28]
tne +000_ +00_ 0_ L

[Sample29]
tnE +000_ +00_ 0_ L

[Sample30]
TNE +000_ +00_ C+ L

[Sample31]
TNe +1C0_ +00_ F_
Tne +280_ +00_ E_
Tne +380_ +00_ C_
Tne +440_ +00_ A_
Tne +480_ +00_ 8_
TnE +000_ +00_ 0_ L

[Pattern0]
....|..|C-4 AF.F ....|--- .... ....|A-1 2F.F ....
 A-3|..|A-1 2A.F ....|--- .... ....|--- .... ....
....|..|R-- .... ....|--- .... ....|R-- .... ....
....|..|--- .... ....|--- .... ....|--- .... ....
....|..|--- .... ....|--- .... ....|--- .... ....
....|..|--- .... ....|--- .... ....|--- .... ....
....|..|--- .... ....|--- .... ....|--- .... ....
....|..|--- .... ....|--- .... ....|--- .... ....
 A-3|..|A-1 2A.F ....|--- .... ....|A-1 2F.F ....
....|..|R-- .... ....|--- .... ....|R-- .... ....
....|..|--- .... ....|--- .... ....|--- .... ....
....|..|--- .... ....|--- .... ....|--- .... ....
....|..|C-4 CF.F ....|--- .... ....|A-1 2F.F ....
 A-3|..|A-1 2A.F ....|--- .... ....|R-- .... ....
....|..|B-8 JF.F ....|--- .... ....|A-1 2F.F ....
 A-3|..|A-1 2A.F ....|--- .... ....|R-- .... ....
....|..|B-8 JF.F ....|--- .... ....|G-1 2F.F ....
 G-3|..|G-1 2A.F ....|--- .... ....|--- .... ....
....|..|B-8 JF.F ....|--- .... ....|A-1 2F.F ....
 A-3|..|A-1 2A.F ....|--- .... ....|--- .... ....
....|..|C-4 AF.F ....|--- .... ....|B-1 2F.F ....
 B-3|..|B-1 2A.F ....|--- .... ....|R-- .... ....
....|..|--- .... ....|--- .... ....|--- .... ....
....|..|--- .... ....|--- .... ....|--- .... ....
....|..|C-4 AF.F ....|--- .... ....|B-1 2F.F ....
 B-3|..|B-1 2A.F ....|--- .... ....|R-- .... ....
....|..|R-- .... ....|--- .... ....|R-- .... ....
 A-3|..|A-1 2F.A ....|--- .... ....|R-- .... ....
....|..|C-4 CF.F ....|--- .... ....|G-1 2F.A ....
 G-3|..|G-1 2F.A ....|--- .... ....|--- .... ....
....|..|B-8 JF.A ....|--- .... ....|A-1 2F.A ....
 A-3|..|A-1 2F.A ....|--- .... ....|--- .... ....
....|..|B-8 JF.F ....|--- .... ....|A-1 2F.F ....
 A-3|..|A-1 2A.F ....|--- .... ....|R-- .... ....
....|..|B-8 JF.F ....|--- .... ....|B-1 2F.F ....
 B-3|..|B-1 2A.F ....|--- .... ....|--- .... ....
....|..|C-4 AF.F ....|--- .... ....|C-2 2F.F ....
 C-4|..|C-2 2A.F ....|--- .... ....|R-- .... ....
....|..|B-8 JF.7 ....|--- .... ....|A-1 2F.7 ....
 A-3|..|A-1 2F.7 ....|--- .... ....|R-- .... ....
....|..|C-4 AF.F ....|--- .... ....|C-2 2F.F ....
 C-4|..|C-2 2A.F ....|--- .... ....|--- .... ....
....|..|B-8 JF.7 ....|--- .... ....|A-1 2F.7 ....
 A-3|..|A-1 2F.7 ....|--- .... ....|--- .... ....
....|..|C-4 CF.F ....|--- .... ....|B-1 2F.7 ....
 B-3|..|B-1 2F.7 ....|--- .... ....|--- .... ....
....|..|B-8 JF.A ....|--- .... ....|B-1 2F.A ....
 B-3|..|B-1 2F.A ....|--- .... ....|--- .... ....
....|..|B-8 JF.F ....|--- .... ....|B-1 2F.F ....
 B-3|..|B-1 2A.F ....|--- .... ....|--- .... ....
....|..|B-8 JF.F ....|--- .... ....|C-2 2F.F ....
 C-4|..|C-2 2A.F ....|--- .... ....|--- .... ....
....|..|C-4 AF.F ....|--- .... ....|B-1 2F.F ....
 B-3|..|B-1 2A.F ....|--- .... ....|--- .... ....
....|..|B-8 JF.F ....|--- .... ....|B-1 2F.F ....
 B-3|..|B-1 2A.F ....|--- .... ....|R-- .... ....
....|..|C-4 AF.F ....|--- .... ....|G-1 2F.F ....
 G-3|..|G-1 2A.F ....|--- .... ....|--- .... ....
....|..|B-8 JF.7 ....|--- .... ....|B-1 2F.7 ....
 B-3|..|B-1 2F.7 ....|--- .... ....|--- .... ....
....|..|C-4 CF.F ....|--- .... ....|C-2 2F.7 ....
 C-4|..|C-2 2F.7 ....|--- .... ....|--- .... ....
....|..|R-- .... ....|--- .... ....|R-- .... ....
 C-4|..|C-2 2F.A ....|--- .... ....|--- .... ....

[Pattern1]
....|..|C-4 AF.F ....|--- .... ....|A-1 2F.F ....
 A-3|..|A-1 2A.F ....|--- .... ....|--- .... ....
....|..|R-- .... ....|--- .... ....|R-- .... ....
 B-3|..|B-1 2F.A ....|--- .... ....|R-- .... ....
....|..|B-8 JF.F ....|--- .... ....|G-1 2F.A ....
 G-3|..|G-1 2F.A ....|--- .... ....|--- .... ....
....|..|--- .... ....|--- .... ....|--- .... ....
....|..|--- .... ....|--- .... ....|--- .... ....
....|..|B-8 JF.F ....|--- .... ....|A-1 2F.F ....
 A-3|..|A-1 2A.F ....|--- .... ....|R-- .... ....
....|..|B-8 JF.7 ....|--- .... ....|C-2 2F.7 ....
 C-4|..|C-2 2F.7 ....|--- .... ....|--- .... ....
....|..|C-4 CF.F ....|--- .... ....|A-1 2F.F ....
 A-3|..|A-1 2A.F ....|--- .... ....|R-- .... ....
....|..|B-8 JF.F ....|--- .... ....|A-1 2F.F ....
 A-3|..|A-1 2A.F ....|--- .... ....|R-- .... ....
....|..|B-8 JF.F ....|--- .... ....|G-1 2F.F ....
 G-3|..|G-1 2A.F ....|--- .... ....|--- .... ....
....|..|B-8 JF.F ....|--- .... ....|A-1 2F.F ....
 A-3|..|A-1 2A.F ....|--- .... ....|--- .... ....
....|..|C-4 AF.F ....|--- .... ....|B-1 2F.F ....
 B-3|..|B-1 2A.F ....|--- .... ....|R-- .... ....
....|..|R-- .... ....|--- .... ....|R-- .... ....
....|..|--- .... ....|--- .... ....|--- .... ....
....|..|C-4 AF.F ....|--- .... ....|B-1 2F.F ....
 B-3|..|B-1 2A.F ....|--- .... ....|R-- .... ....
....|..|R-- .... ....|--- .... ....|R-- .... ....
 A-3|..|A-1 2F.A ....|--- .... ....|--- .... ....
....|..|C-4 CF.F ....|--- .... ....|G-1 2F.A ....
 G-3|..|G-1 2F.A ....|--- .... ....|--- .... ....
....|..|B-8 JF.A ....|--- .... ....|A-1 2F.A ....
 A-3|..|A-1 2F.A ....|--- .... ....|--- .... ....
....|..|B-8 JF.F ....|--- .... ....|A-1 2F.F ....
 A-3|..|A-1 2A.F ....|--- .... ....|R-- .... ....
....|..|B-8 JF.F ....|--- .... ....|B-1 2F.F ....
 B-3|..|B-1 2A.F ....|--- .... ....|--- .... ....
....|..|C-4 AF.F ....|--- .... ....|C-2 2F.F ....
 C-4|..|C-2 2A.F ....|--- .... ....|R-- .... ....
....|..|B-8 JF.7 ....|--- .... ....|A-1 2F.7 ....
 A-3|..|A-1 2F.7 ....|--- .... ....|--- .... ....
....|..|C-4 AF.F ....|--- .... ....|C-2 2F.F ....
 C-4|..|C-2 2A.F ....|--- .... ....|--- .... ....
....|..|B-8 JF.7 ....|--- .... ....|A-1 2F.7 ....
 A-3|..|A-1 2F.7 ....|--- .... ....|--- .... ....
....|..|C-4 CF.F ....|--- .... ....|B-1 2F.7 ....
 B-3|..|B-1 2F.7 ....|--- .... ....|--- .... ....
....|..|B-8 JF.A ....|--- .... ....|B-1 2F.A ....
 B-3|..|B-1 2F.A ....|--- .... ....|--- .... ....
....|..|B-8 JF.F ....|--- .... ....|B-1 2F.F ....
 B-3|..|B-1 2A.F ....|--- .... ....|--- .... ....
....|..|B-8 JF.F ....|--- .... ....|C-2 2F.F ....
 C-4|..|C-2 2A.F ....|--- .... ....|--- .... ....
....|..|C-4 AF.F ....|--- .... ....|B-1 2F.F ....
 B-3|..|B-1 2A.F ....|--- .... ....|--- .... ....
 B-3|..|B-1 2A.F ....|--- .... ....|B-1 2F.F ....
....|..|R-- .... ....|--- .... ....|R-- .... ....
....|..|C-4 AF.F ....|--- .... ....|G-1 2F.F ....
 G-3|..|G-1 2A.F ....|--- .... ....|--- .... ....
....|..|B-8 JF.7 ....|--- .... ....|B-1 2F.7 ....
 B-3|..|B-1 2F.7 ....|--- .... ....|--- .... ....
....|..|C-4 CF.F ....|--- .... ....|C-2 2F.7 ....
 C-4|..|C-2 2F.7 ....|--- .... ....|--- .... ....
....|..|B-8 JF.A ....|--- .... ....|C-2 2F.A ....
....|..|R-- .... ....|--- .... ....|R-- .... ....

[Pattern2]
....|..|C-4 AF.F ....|--- .... ....|A-1 2F.F ....
 A-3|..|A-1 2A.F ....|--- .... ....|--- .... ....
....|..|R-- .... ....|--- .... ....|R-- .... ....
....|..|R-- .... ....|--- .... ....|R-- .... ....
....|..|B-8 JF.F ....|--- .... ....|G-1 2F.A ....
 G-3|..|G-1 2F.A ....|--- .... ....|--- .... ....
....|..|--- .... ....|--- .... ....|--- .... ....
....|..|--- .... ....|--- .... ....|--- .... ....
....|..|B-8 JF.F ....|--- .... ....|A-1 2F.F ....
 A-3|..|A-1 2A.F ....|--- .... ....|--- .... ....
....|..|B-8 JF.7 ....|--- .... ....|C-2 2F.7 ....
 C-4|..|C-2 2F.7 ....|--- .... ....|R-- .... ....
....|..|C-4 CF.F ....|--- .... ....|A-1 2F.F ....
 A-3|..|A-1 2A.F ....|--- .... ....|R-- .... ....
....|..|B-8 JF.F ....|--- .... ....|A-1 2F.F ....
 A-3|..|A-1 2A.F ....|--- .... ....|R-- .... ....
....|..|B-8 JF.F ....|--- .... ....|G-1 2F.F ....
 G-3|..|G-1 2A.F ....|--- .... ....|--- .... ....
....|..|B-8 JF.F ....|--- .... ....|A-1 2F.F ....
 A-3|..|A-1 2A.F ....|--- .... ....|--- .... ....
....|..|C-4 AF.F ....|--- .... ....|B-1 2F.F ....
 B-3|..|B-1 2A.F ....|--- .... ....|--- .... ....
....|..|R-- .... ....|--- .... ....|R-- .... ....
....|..|R-- .... ....|--- .... ....|R-- .... ....
....|..|C-4 AF.F ....|--- .... ....|B-1 2F.F ....
 B-3|..|B-1 2A.F ....|--- .... ....|R-- .... ....
....|..|R-- .... ....|--- .... ....|R-- .... ....
 A-3|..|A-1 2F.A ....|--- .... ....|R-- .... ....
....|..|C-4 CF.F ....|--- .... ....|G-1 2F.A ....
 G-3|..|G-1 2F.A ....|--- .... ....|--- .... ....
....|..|B-8 JF.A ....|--- .... ....|A-1 2F.A ....
 A-3|..|A-1 2F.A ....|--- .... ....|--- .... ....
....|..|B-8 JF.F ....|--- .... ....|A-1 2F.F ....
 A-3|..|A-1 2A.F ....|--- .... ....|--- .... ....
....|..|B-8 JF.F ....|--- .... ....|B-1 2F.F ....
 B-3|..|B-1 2A.F ....|--- .... ....|--- .... ....
....|..|C-4 AF.F ....|--- .... ....|C-2 2F.F ....
 C-4|..|C-2 2A.F ....|--- .... ....|R-- .... ....
....|..|B-8 JF.7 ....|--- .... ....|A-1 2F.7 ....
 A-3|..|A-1 2F.7 ....|--- .... ....|R-- .... ....
....|..|C-4 AF.F ....|--- .... ....|C-2 2F.F ....
 C-4|..|C-2 2A.F ....|--- .... ....|--- .... ....
....|..|B-8 JF.7 ....|--- .... ....|A-1 2F.7 ....
 A-3|..|A-1 2F.7 ....|--- .... ....|--- .... ....
....|..|C-4 CF.F ....|--- .... ....|B-1 2F.7 ....
 B-3|..|B-1 2F.7 ....|--- .... ....|--- .... ....
....|..|B-8 JF.A ....|--- .... ....|B-1 2F.A ....
 B-3|..|B-1 2F.A ....|--- .... ....|--- .... ....
....|..|B-8 JF.F ....|--- .... ....|B-1 2F.F ....
 B-3|..|B-1 2A.F ....|--- .... ....|--- .... ....
....|..|B-8 JF.F ....|--- .... ....|C-2 2F.F ....
 C-4|..|C-2 2A.F ....|--- .... ....|--- .... ....
....|..|C-4 AF.F ....|--- .... ....|B-1 2F.F ....
 B-3|..|B-1 2A.F ....|--- .... ....|--- .... ....
....|..|B-8 JF.F ....|--- .... ....|R-- .... ....
....|..|R-- .... ....|--- .... ....|R-- .... ....
....|..|C-4 AF.F ....|--- .... ....|G-1 2F.F ....
 G-3|..|G-1 2A.F ....|--- .... ....|--- .... ....
....|..|B-8 JF.7 ....|--- .... ....|B-1 2F.7 ....
 B-3|..|B-1 2F.7 ....|--- .... ....|--- .... ....
....|..|C-4 CF.F ....|--- .... ....|C-2 2F.7 ....
 C-4|..|C-2 2F.7 ....|--- .... ....|--- .... ....
....|..|B-8 JF.A ....|--- .... ....|C-2 2F.A ....
 C-4|..|C-2 2F.A ....|--- .... ....|--- .... ....

[Pattern3]
....|..|C-4 AF.F ....|--- .... ....|A-1 2F.F ....
 A-3|..|A-1 2A.F ....|--- .... ....|--- .... ....
....|..|R-- .... ....|--- .... ....|R-- .... ....
....|..|R-- .... ....|--- .... ....|R-- .... ....
....|..|B-8 JF.F ....|--- .... ....|G-1 2F.A ....
 G-3|..|G-1 2F.A ....|--- .... ....|--- .... ....
....|..|--- .... ....|--- .... ....|--- .... ....
....|..|--- .... ....|--- .... ....|--- .... ....
....|..|B-8 JF.F ....|--- .... ....|A-1 2F.F ....
 A-3|..|A-1 2A.F ....|--- .... ....|--- .... ....
....|..|B-8 JF.7 ....|--- .... ....|C-2 2F.7 ....
 C-4|..|C-2 2F.7 ....|--- .... ....|--- .... ....
....|..|C-4 CF.F ....|--- .... ....|A-1 2F.F ....
 A-3|..|A-1 2A.F ....|--- .... ....|R-- .... ....
....|..|B-8 JF.F ....|--- .... ....|A-1 2F.F ....
 A-3|..|A-1 2A.F ....|--- .... ....|R-- .... ....
....|..|B-8 JF.F ....|--- .... ....|G-1 2F.F ....
 G-3|..|G-1 2A.F ....|--- .... ....|--- .... ....
....|..|B-8 JF.F ....|--- .... ....|A-1 2F.F ....
 A-3|..|A-1 2A.F ....|--- .... ....|--- .... ....
....|..|C-4 AF.F ....|--- .... ....|B-1 2F.F ....
 B-3|..|B-1 2A.F ....|--- .... ....|--- .... ....
....|..|R-- .... ....|--- .... ....|R-- .... ....
....|..|--- .... ....|--- .... ....|--- .... ....
....|..|C-4 AF.F ....|--- .... ....|B-1 2F.F ....
 B-3|..|B-1 2A.F ....|--- .... ....|R-- .... ....
....|..|R-- .... ....|--- .... ....|R-- .... ....
 A-3|..|A-1 2F.A ....|--- .... ....|R-- .... ....
....|..|C-4 CF.F ....|--- .... ....|G-1 2F.A ....
 G-3|..|G-1 2F.A ....|--- .... ....|--- .... ....
....|..|B-8 JF.A ....|--- .... ....|A-1 2F.A ....
 A-3|..|A-1 2F.A ....|--- .... ....|--- .... ....
....|..|B-8 JF.F ....|--- .... ....|A-1 2F.F ....
 A-3|..|A-1 2A.F ....|--- .... ....|--- .... ....
....|..|B-8 JF.F ....|--- .... ....|B-1 2F.F ....
 B-3|..|B-1 2A.F ....|--- .... ....|--- .... ....
....|..|C-4 AF.F ....|--- .... ....|C-2 2F.F ....
 C-4|..|C-2 2A.F ....|--- .... ....|R-- .... ....
....|..|B-8 JF.7 ....|--- .... ....|A-1 2F.7 ....
 A-3|..|A-1 2F.7 ....|--- .... ....|R-- .... ....
....|..|C-4 AF.F ....|--- .... ....|C-2 2F.F ....
 C-4|..|C-2 2A.F ....|--- .... ....|--- .... ....
....|..|B-8 JF.7 ....|--- .... ....|A-1 2F.7 ....
 A-3|..|A-1 2F.7 ....|--- .... ....|--- .... ....
....|..|C-4 CF.F ....|--- .... ....|B-1 2F.7 ....
 B-3|..|B-1 2F.7 ....|--- .... ....|--- .... ....
....|..|B-8 JF.A ....|--- .... ....|B-1 2F.A ....
 B-3|..|B-1 2F.A ....|--- .... ....|--- .... ....
....|..|B-8 JF.F ....|--- .... ....|B-1 2F.F ....
 B-3|..|B-1 2A.F ....|--- .... ....|--- .... ....
....|..|B-8 JF.F ....|--- .... ....|C-2 2F.F ....
 C-4|..|C-2 2A.F ....|--- .... ....|--- .... ....
....|..|C-4 AF.F ....|--- .... ....|B-1 2F.F ....
 B-3|..|B-1 2A.F ....|--- .... ....|--- .... ....
....|..|R-- .... ....|--- .... ....|R-- .... ....
....|..|--- .... ....|--- .... ....|--- .... ....
....|..|C-4 AF.F ....|--- .... ....|G-1 2F.F ....
 G-3|..|G-1 2A.F ....|--- .... ....|--- .... ....
....|..|B-8 JF.7 ....|--- .... ....|B-1 2F.7 ....
 B-3|..|B-1 2F.7 ....|--- .... ....|--- .... ....
....|..|C-4 CF.F ....|--- .... ....|C-2 2F.7 ....
 C-4|..|C-2 2F.7 ....|--- .... ....|--- .... ....
....|..|B-8 JF.A ....|--- .... ....|C-2 2F.A ....
 C-4|..|C-2 2F.A ....|--- .... ....|--- .... ....

[Pattern4]
....|..|C-4 AF.F ....|--- .... ....|A-1 2F.F ....
 A-3|..|A-1 2A.F ....|--- .... ....|--- .... ....
....|..|R-- .... ....|--- .... ....|R-- .... ....
....|..|--- .... ....|--- .... ....|--- .... ....
....|..|B-8 JF.F ....|--- .... ....|G-1 2F.A ....
 G-3|..|G-1 2F.A ....|--- .... ....|--- .... ....
....|..|--- .... ....|--- .... ....|--- .... ....
....|..|--- .... ....|--- .... ....|--- .... ....
....|..|B-8 JF.F ....|A-3 2F.F ....|A-1 2F.F ....
 A-3|..|A-1 2A.F ....|R-- .... ....|R-- .... ....
....|..|B-8 JF.7 ....|A-3 2F.F ....|C-2 2F.7 ....
 C-4|..|C-2 2F.7 ....|R-- .... ....|--- .... ....
....|..|C-4 CF.F ....|A-3 2F.F ....|A-1 2F.F ....
 A-3|..|A-1 2A.F ....|R-- .... ....|R-- .... ....
....|..|B-8 JF.F ....|A-3 2F.F ....|A-1 2F.F ....
 A-3|..|A-1 2A.F ....|R-- .... ....|R-- .... ....
....|..|B-8 JF.F ....|G-3 2F.F ....|G-1 2F.F ....
 G-3|..|G-1 2A.F ....|--- .... ....|--- .... ....
....|..|B-8 JF.F ....|A-3 2F.F ....|A-1 2F.F ....
 A-3|..|A-1 2A.F ....|--- .... ....|--- .... ....
....|..|C-4 AF.F ....|B-3 2F.F ....|B-1 2F.F ....
 B-3|..|B-1 2A.F ....|R-- .... ....|R-- .... ....
....|..|R-- .... ....|A-3 2F.A ....|--- .... ....
....|..|--- .... ....|R-- .... ....|--- .... ....
....|..|C-4 AF.F ....|B-3 2F.F ....|B-1 2F.F ....
 B-3|..|B-1 2A.F ....|R-- .... ....|R-- .... ....
....|..|R-- .... ....|R-- .... ....|R-- .... ....
 A-3|..|A-1 2F.A ....|R-- .... ....|R-- .... ....
....|..|C-4 CF.F ....|G-3 2F.A ....|G-1 2F.A ....
 G-3|..|G-1 2F.A ....|--- .... ....|--- .... ....
....|..|B-8 JF.A ....|A-3 2F.F ....|A-1 2F.A ....
 A-3|..|A-1 2F.A ....|R-- .... ....|--- .... ....
....|..|B-8 JF.F ....|A-3 2F.F ....|A-1 2F.F ....
 A-3|..|A-1 2A.F ....|R-- .... ....|R-- .... ....
....|..|B-8 JF.F ....|B-3 2F.F ....|B-1 2F.F ....
 B-3|..|B-1 2A.F ....|R-- .... ....|--- .... ....
....|..|C-4 AF.F ....|C-4 2F.F ....|C-2 2F.F ....
 C-4|..|C-2 2A.F ....|R-- .... ....|R-- .... ....
....|..|B-8 JF.7 ....|A-3 2F.7 ....|A-1 2F.7 ....
 A-3|..|A-1 2F.7 ....|R-- .... ....|R-- .... ....
....|..|C-4 AF.F ....|C-4 2F.F ....|C-2 2F.F ....
 C-4|..|C-2 2A.F ....|--- .... ....|--- .... ....
....|..|B-8 JF.7 ....|A-3 2F.7 ....|A-1 2F.7 ....
 A-3|..|A-1 2F.7 ....|R-- .... ....|--- .... ....
....|..|C-4 CF.F ....|B-3 2F.7 ....|B-1 2F.7 ....
 B-3|..|B-1 2F.7 ....|R-- .... ....|--- .... ....
....|..|B-8 JF.A ....|B-3 2F.A ....|B-1 2F.A ....
 B-3|..|B-1 2F.A ....|R-- .... ....|--- .... ....
....|..|B-8 JF.F ....|B-3 2F.F ....|B-1 2F.F ....
 B-3|..|B-1 2A.F ....|R-- .... ....|--- .... ....
....|..|B-8 JF.F ....|C-4 2F.F ....|C-2 2F.F ....
 C-4|..|C-2 2A.F ....|R-- .... ....|--- .... ....
....|..|C-4 AF.F ....|C-4 2F.F ....|B-1 2F.F ....
 B-3|..|B-1 2A.F ....|B-3 2F.F ....|--- .... ....
....|..|R-- .... ....|A-3 2F.7 ....|R-- .... ....
....|..|R-- .... ....|R-- .... ....|R-- .... ....
....|..|C-4 AF.F ....|G-3 2F.F ....|G-1 2F.F ....
 G-3|..|G-1 2A.F ....|R-- .... ....|--- .... ....
....|..|B-8 JF.7 ....|B-3 2F.7 ....|B-1 2F.7 ....
 B-3|..|B-1 2F.7 ....|R-- .... ....|--- .... ....
....|..|C-4 CF.F ....|C-4 2F.7 ....|C-2 2F.7 ....
 C-4|..|C-2 2F.7 ....|R-- .... ....|--- .... ....
....|..|B-8 JF.A ....|C-4 2F.A ....|C-2 2F.A ....
....|..|R-- .... ....|R-- .... ....|R-- .... ....

[Pattern5]
....|..|C-4 AF.F ....|C-4 2F.7 ....|A-1 2F.F ....
 A-3|..|A-1 2A.F ....|B-3 2F.A ....|--- .... ....
....|..|R-- .... ....|R-- .... ....|R-- .... ....
....|..|R-- .... ....|--- .... ....|R-- .... ....
....|..|B-8 JF.F ....|G-3 2F.A ....|G-1 2F.A ....
 G-3|..|G-1 2F.A ....|--- .... ....|--- .... ....
....|..|--- .... ....|--- .... ....|--- .... ....
....|..|--- .... ....|R-- .... ....|--- .... ....
....|..|B-8 JF.F ....|A-3 2F.F ....|A-1 2F.F ....
 A-3|..|A-1 2A.F ....|R-- .... ....|--- .... ....
....|..|B-8 JF.7 ....|A-3 2F.F ....|C-2 2F.7 ....
 C-4|..|C-2 2F.7 ....|R-- .... ....|R-- .... ....
....|..|C-4 CF.F ....|A-3 2F.F ....|A-1 2F.F ....
 A-3|..|A-1 2A.F ....|B-3 2F.7 ....|R-- .... ....
....|..|B-8 JF.F ....|A-3 2F.F ....|A-1 2F.F ....
 A-3|..|A-1 2A.F ....|R-- .... ....|R-- .... ....
....|..|B-8 JF.F ....|G-3 2F.F ....|G-1 2F.F ....
 G-3|..|G-1 2A.F ....|--- .... ....|--- .... ....
....|..|B-8 JF.F ....|A-3 2F.F ....|A-1 2F.F ....
 A-3|..|A-1 2A.F ....|R-- .... ....|--- .... ....
....|..|C-4 AF.F ....|B-3 2F.F ....|B-1 2F.F ....
 B-3|..|B-1 2A.F ....|R-- .... ....|--- .... ....
....|..|R-- .... ....|A-3 2F.A ....|R-- .... ....
....|..|R-- .... ....|R-- .... ....|R-- .... ....
....|..|C-4 AF.F ....|B-3 2F.F ....|B-1 2F.F ....
 B-3|..|B-1 2A.F ....|R-- .... ....|R-- .... ....
....|..|R-- .... ....|R-- .... ....|R-- .... ....
....|..|R-- .... ....|R-- .... ....|R-- .... ....
....|..|C-4 CF.F ....|G-3 2F.A ....|G-1 2F.A ....
 G-3|..|G-1 2F.A ....|--- .... ....|--- .... ....
....|..|B-8 JF.A ....|A-3 2F.F ....|A-1 2F.A ....
 A-3|..|A-1 2F.A ....|R-- .... ....|--- .... ....
....|..|B-8 JF.F ....|A-3 2F.F ....|A-1 2F.F ....
 A-3|..|A-1 2A.F ....|R-- .... ....|--- .... ....
....|..|B-8 JF.F ....|B-3 2F.F ....|B-1 2F.F ....
 B-3|..|B-1 2A.F ....|R-- .... ....|--- .... ....
....|..|C-4 AF.F ....|C-4 2F.F ....|C-2 2F.F ....
 C-4|..|C-2 2A.F ....|R-- .... ....|R-- .... ....
....|..|B-8 JF.7 ....|A-3 2F.7 ....|A-1 2F.7 ....
 A-3|..|A-1 2F.7 ....|R-- .... ....|R-- .... ....
....|..|C-4 AF.F ....|C-4 2F.F ....|C-2 2F.F ....
 C-4|..|C-2 2A.F ....|--- .... ....|--- .... ....
....|..|B-8 JF.7 ....|A-3 2F.7 ....|A-1 2F.7 ....
 A-3|..|A-1 2F.7 ....|R-- .... ....|--- .... ....
....|..|C-4 CF.F ....|B-3 2F.7 ....|B-1 2F.7 ....
 B-3|..|B-1 2F.7 ....|--- .... ....|--- .... ....
....|..|B-8 JF.A ....|B-3 2F.A ....|B-1 2F.A ....
 B-3|..|B-1 2F.A ....|R-- .... ....|--- .... ....
....|..|B-8 JF.F ....|B-3 2F.F ....|B-1 2F.F ....
 B-3|..|B-1 2A.F ....|--- .... ....|--- .... ....
....|..|B-8 JF.F ....|C-4 2F.F ....|C-2 2F.F ....
 C-4|..|C-2 2A.F ....|--- .... ....|--- .... ....
....|..|C-4 AF.F ....|B-3 2F.F ....|B-1 2F.F ....
 B-3|..|B-1 2A.F ....|--- .... ....|--- .... ....
....|..|R-- .... ....|A-3 2F.7 ....|R-- .... ....
....|..|--- .... ....|R-- .... ....|--- .... ....
....|..|C-4 AF.F ....|G-3 2F.F ....|G-1 2F.F ....
 G-3|..|G-1 2A.F ....|--- .... ....|--- .... ....
....|..|B-8 JF.7 ....|B-3 2F.7 ....|B-1 2F.7 ....
 B-3|..|B-1 2F.7 ....|R-- .... ....|--- .... ....
....|..|C-4 CF.F ....|C-4 2F.7 ....|C-2 2F.7 ....
 C-4|..|C-2 2F.7 ....|--- .... ....|--- .... ....
....|..|B-8 JF.A ....|R-- .... ....|C-2 2F.A ....
 C-4|..|C-2 2F.A ....|--- .... ....|--- .... ....

[Pattern6]
....|..|C-4 AF.F ....|C-4 2F.7 ....|A-1 2F.F ....
 A-3|..|A-1 2A.F ....|--- .... ....|--- .... ....
....|..|R-- .... ....|R-- .... ....|R-- .... ....
....|..|--- .... ....|--- .... ....|--- .... ....
....|..|B-8 JF.F ....|G-3 2F.A ....|G-1 2F.A ....
 G-3|..|G-1 2F.A ....|--- .... ....|--- .... ....
....|..|--- .... ....|--- .... ....|--- .... ....
....|..|--- .... ....|R-- .... ....|--- .... ....
....|..|B-8 JF.F ....|A-3 2F.F ....|A-1 2F.F ....
 A-3|..|A-1 2A.F ....|R-- .... ....|R-- .... ....
....|..|B-8 JF.7 ....|A-3 2F.F ....|C-2 2F.7 ....
 C-4|..|C-2 2F.7 ....|R-- .... ....|--- .... ....
....|..|C-4 CF.F ....|A-3 2F.F ....|A-1 2F.F ....
 A-3|..|A-1 2A.F ....|R-- .... ....|R-- .... ....
....|..|B-8 JF.F ....|A-3 2F.F ....|A-1 2F.F ....
 A-3|..|A-1 2A.F ....|R-- .... ....|R-- .... ....
....|..|B-8 JF.F ....|G-3 2F.F ....|G-1 2F.F ....
 G-3|..|G-1 2A.F ....|--- .... ....|--- .... ....
....|..|B-8 JF.F ....|A-3 2F.F ....|A-1 2F.F ....
 A-3|..|A-1 2A.F ....|R-- .... ....|--- .... ....
....|..|C-4 AF.F ....|B-3 2F.F ....|B-1 2F.F ....
 B-3|..|B-1 2A.F ....|B-3 2F.F ....|R-- .... ....
....|..|R-- .... ....|A-3 2F.A ....|--- .... ....
....|..|--- .... ....|R-- .... ....|--- .... ....
....|..|C-4 AF.F ....|B-3 2F.F ....|B-1 2F.F ....
 B-3|..|B-1 2A.F ....|R-- .... ....|R-- .... ....
....|..|R-- .... ....|R-- .... ....|R-- .... ....
 A-3|..|A-1 2F.A ....|R-- .... ....|R-- .... ....
....|..|C-4 CF.F ....|G-3 2F.A ....|G-1 2F.A ....
 G-3|..|G-1 2F.A ....|--- .... ....|--- .... ....
....|..|B-8 JF.A ....|A-3 2F.A ....|A-1 2F.A ....
 A-3|..|A-1 2F.A ....|--- .... ....|--- .... ....
....|..|B-8 JF.F ....|A-3 2F.F ....|A-1 2F.F ....
 A-3|..|A-1 2A.F ....|R-- .... ....|R-- .... ....
....|..|B-8 JF.F ....|B-3 2F.F ....|B-1 2F.F ....
 B-3|..|B-1 2A.F ....|R-- .... ....|--- .... ....
....|..|C-4 AF.F ....|C-4 2F.F ....|C-2 2F.F ....
 C-4|..|C-2 2A.F ....|R-- .... ....|R-- .... ....
....|..|B-8 JF.7 ....|A-3 2F.7 ....|A-1 2F.7 ....
 A-3|..|A-1 2F.7 ....|R-- .... ....|R-- .... ....
....|..|C-4 AF.F ....|C-4 2F.F ....|C-2 2F.F ....
 C-4|..|C-2 2A.F ....|--- .... ....|--- .... ....
....|..|B-8 JF.7 ....|A-3 2F.7 ....|A-1 2F.7 ....
 A-3|..|A-1 2F.7 ....|--- .... ....|--- .... ....
....|..|C-4 CF.F ....|B-3 2F.7 ....|B-1 2F.7 ....
 B-3|..|B-1 2F.7 ....|B-3 2F.7 ....|--- .... ....
....|..|B-8 JF.A ....|B-3 2F.A ....|B-1 2F.A ....
 B-3|..|B-1 2F.A ....|R-- .... ....|--- .... ....
....|..|B-8 JF.F ....|B-3 2F.F ....|B-1 2F.F ....
 B-3|..|B-1 2A.F ....|--- .... ....|--- .... ....
....|..|B-8 JF.F ....|C-4 2F.F ....|C-2 2F.F ....
 C-4|..|C-2 2A.F ....|R-- .... ....|--- .... ....
....|..|C-4 AF.F ....|C-4 2F.F ....|B-1 2F.F ....
 B-3|..|B-1 2A.F ....|B-3 2F.F ....|--- .... ....
....|..|B-8 JF.F ....|R-- .... ....|R-- .... ....
....|..|R-- .... ....|--- .... ....|R-- .... ....
....|..|C-4 AF.F ....|G-3 2F.F ....|G-1 2F.F ....
 G-3|..|G-1 2A.F ....|--- .... ....|--- .... ....
....|..|B-8 JF.7 ....|B-3 2F.7 ....|B-1 2F.7 ....
 B-3|..|B-1 2F.7 ....|--- .... ....|--- .... ....
....|..|C-4 CF.F ....|C-4 2F.7 ....|C-2 2F.7 ....
 C-4|..|C-2 2F.7 ....|--- .... ....|--- .... ....
....|..|B-8 JF.A ....|C-4 2F.A ....|C-2 2F.A ....
....|..|R-- .... ....|R-- .... ....|R-- .... ....

[Pattern7]
....|..|C-4 AF.F ....|C-4 2F.7 ....|A-1 2F.F ....
 A-3|..|A-1 2A.F ....|B-3 2F.A ....|--- .... ....
....|..|R-- .... ....|R-- .... ....|R-- .... ....
....|..|R-- .... ....|--- .... ....|R-- .... ....
....|..|B-8 JF.F ....|G-3 2F.A ....|G-1 2F.A ....
 G-3|..|G-1 2F.A ....|--- .... ....|--- .... ....
....|..|--- .... ....|R-- .... ....|--- .... ....
....|..|--- .... ....|--- .... ....|--- .... ....
....|..|B-8 JF.F ....|A-3 2F.F ....|A-1 2F.F ....
 A-3|..|A-1 2A.F ....|R-- .... ....|--- .... ....
....|..|B-8 JF.7 ....|A-3 2F.F ....|C-2 2F.7 ....
 C-4|..|C-2 2F.7 ....|R-- .... ....|R-- .... ....
....|..|C-4 CF.F ....|A-3 2F.F ....|A-1 2F.F ....
 A-3|..|A-1 2A.F ....|B-3 2F.7 ....|R-- .... ....
....|..|B-8 JF.F ....|A-3 2F.F ....|A-1 2F.F ....
 A-3|..|A-1 2A.F ....|R-- .... ....|R-- .... ....
....|..|B-8 JF.F ....|G-3 2F.F ....|G-1 2F.F ....
 G-3|..|G-1 2A.F ....|--- .... ....|--- .... ....
....|..|B-8 JF.F ....|A-3 2F.F ....|A-1 2F.F ....
 A-3|..|A-1 2A.F ....|--- .... ....|--- .... ....
....|..|C-4 AF.F ....|B-3 2F.F ....|B-1 2F.F ....
 B-3|..|B-1 2A.F ....|R-- .... ....|--- .... ....
....|..|B-8 JF.F ....|R-- .... ....|R-- .... ....
....|..|R-- .... ....|R-- .... ....|R-- .... ....
....|..|C-4 AF.F ....|B-3 2F.F ....|B-1 2F.F ....
 B-3|..|B-1 2A.F ....|R-- .... ....|R-- .... ....
....|..|R-- .... ....|R-- .... ....|R-- .... ....
....|..|R-- .... ....|R-- .... ....|R-- .... ....
....|..|C-4 CF.F ....|G-3 2F.A ....|G-1 2F.A ....
 G-3|..|G-1 2F.A ....|--- .... ....|--- .... ....
....|..|B-8 JF.A ....|A-3 2F.A ....|A-1 2F.A ....
 A-3|..|A-1 2F.A ....|--- .... ....|--- .... ....
....|..|B-8 JF.F ....|A-3 2F.F ....|A-1 2F.F ....
 A-3|..|A-1 2A.F ....|R-- .... ....|--- .... ....
....|..|B-8 JF.F ....|B-3 2F.F ....|B-1 2F.F ....
 B-3|..|B-1 2A.F ....|R-- .... ....|--- .... ....
....|..|C-4 AF.F ....|C-4 2F.F ....|C-2 2F.F ....
 C-4|..|C-2 2A.F ....|R-- .... ....|R-- .... ....
....|..|B-8 JF.F ....|A-3 2F.7 ....|A-1 2F.7 ....
 A-3|..|A-1 2F.7 ....|R-- .... ....|R-- .... ....
....|..|C-4 AF.F ....|C-4 2F.F ....|C-2 2F.F ....
 C-4|..|C-2 2A.F ....|--- .... ....|--- .... ....
....|..|B-8 JF.7 ....|A-3 2F.7 ....|A-1 2F.7 ....
 A-3|..|A-1 2F.7 ....|--- .... ....|--- .... ....
....|..|C-4 CF.F ....|B-3 2F.7 ....|B-1 2F.7 ....
 B-3|..|B-1 2F.7 ....|--- .... ....|--- .... ....
....|..|B-8 JF.7 ....|R-- .... ....|B-1 2F.A ....
 B-3|..|B-1 2F.A ....|--- .... ....|--- .... ....
....|..|B-8 JF.F ....|B-3 2F.F ....|B-1 2F.F ....
 B-3|..|B-1 2A.F ....|--- .... ....|--- .... ....
....|..|B-8 JF.F ....|C-4 2F.F ....|C-2 2F.F ....
 C-4|..|C-2 2A.F ....|--- .... ....|--- .... ....
....|..|C-4 AF.F ....|C-4 2F.F ....|B-1 2F.F ....
 B-3|..|B-1 2A.F ....|B-3 2F.F ....|--- .... ....
....|..|B-8 JF.F ....|R-- .... ....|R-- .... ....
....|..|--- .... ....|R-- .... ....|--- .... ....
....|..|C-4 AF.F ....|G-3 2F.F ....|G-1 2F.F ....
 G-3|..|G-1 2A.F ....|--- .... ....|--- .... ....
....|..|B-8 JF.7 ....|B-3 2F.7 ....|B-1 2F.7 ....
 B-3|..|B-1 2F.7 ....|R-- .... ....|--- .... ....
....|..|C-4 CF.F ....|C-4 2F.7 ....|C-2 2F.7 ....
 C-4|..|C-2 2F.7 ....|--- .... ....|--- .... ....
....|..|B-8 JF.7 ....|R-- .... ....|C-2 2F.A ....
 C-4|..|C-2 2F.A ....|--- .... ....|--- .... ....

[Pattern8]
....|..|C-4 AF.F ....|C-4 2F1F ....|C-4 2F1F ....
 F-3|..|F-1 2A.F ....|B-3 2F.A ....|--- .... ....
....|..|R-- .... ....|R-- .... ....|R-- .... ....
....|..|--- .... ....|R-- .... ....|--- .... ....
....|..|B-8 JF.F ....|A-3 2F.F ....|R-- .... ....
....|..|R-- .... ....|R-- .... ....|--- .... ....
....|..|--- .... ....|A-3 2F.F ....|--- .... ....
....|..|--- .... ....|R-- .... ....|--- .... ....
....|..|B-8 JF.F ....|A-3 2F.F ....|F-1 2F.F ....
 F-3|..|F-1 2A.F ....|R-- .... ....|--- .... ....
....|..|B-8 JF.F ....|E-4 2F.F ....|C-2 2F.7 ....
 C-4|..|C-2 2F.7 ....|--- .... ....|--- .... ....
....|..|C-4 CF.F ....|D-4 2F.F ....|F-1 2F.F ....
 F-3|..|F-1 2A.F ....|B-3 2F.7 ....|--- .... ....
....|..|B-8 JF.7 ....|--- .... ....|--- .... ....
....|..|--- .... ....|R-- .... ....|--- .... ....
....|..|B-8 JF.F ....|A-3 2F.F ....|G-1 2F.7 ....
 G-3|..|G-1 2F.7 ....|R-- .... ....|--- .... ....
....|..|B-8 JF.F ....|A-3 2F.A ....|--- .... ....
....|..|--- .... ....|R-- .... ....|--- .... ....
....|..|C-4 AF.F ....|A-3 2F.A ....|F-1 2F.F ....
 F-3|..|F-1 2A.F ....|R-- .... ....|--- .... ....
....|..|B-8 JF.A ....|E-4 2F.A ....|--- .... ....
....|..|--- .... ....|--- .... ....|--- .... ....
....|..|C-4 AF.F ....|A-3 2F.F ....|F-2 2F.F ....
 F-4|..|F-2 2A.F ....|--- .... ....|--- .... ....
....|..|B-8 JF.F ....|R-- .... ....|--- .... ....
....|..|--- .... ....|R-- .... ....|--- .... ....
....|..|C-4 CF.F ....|A-3 2F.F ....|F-2 2F.F ....
 F-4|..|F-2 2A.F ....|R-- .... ....|F-1 2F.F ....
 F-3|..|F-1 2A.F ....|A-3 2F.F ....|--- .... ....
....|..|--- .... ....|R-- .... ....|--- .... ....
....|..|B-8 JF.F ....|A-3 2F.F ....|F-1 2F.F ....
 F-3|..|F-1 2A.F ....|R-- .... ....|--- .... ....
....|..|B-8 JF.F ....|E-4 2F.F ....|--- .... ....
....|..|--- .... ....|--- .... ....|--- .... ....
....|..|C-4 AF.F ....|D-4 2F.F ....|F-1 2F.F ....
 F-3|..|F-1 2A.F ....|--- .... ....|--- .... ....
....|..|B-8 JF.A ....|R-- .... ....|--- .... ....
....|..|--- .... ....|R-- .... ....|--- .... ....
....|..|C-4 AF.F ....|A-3 2F.F ....|R-- .... ....
....|..|R-- .... ....|R-- .... ....|R-- .... ....
....|..|B-8 JF.F ....|R-- .... ....|--- .... ....
....|..|--- .... ....|R-- .... ....|--- .... ....
....|..|C-4 CF.F ....|A-3 2F.A ....|F-1 2F.F ....
 F-3|..|F-1 2A.F ....|R-- .... ....|--- .... ....
....|..|B-8 JF.A ....|E-4 2F.A ....|--- .... ....
....|..|--- .... ....|--- .... ....|--- .... ....
....|..|B-8 JF.F ....|A-3 2F.F ....|F-2 2F.7 ....
 F-4|..|F-2 2F.7 ....|R-- .... ....|R-- .... ....
....|..|B-8 JF.F ....|A-3 2F.F ....|--- .... ....
....|..|--- .... ....|R-- .... ....|R-- .... ....
....|..|C-4 AF.F ....|B-3 2F.F ....|D-3 2F1F ....
 G-3|..|G-1 2A.F ....|D-3 2F1F ....|F-1 2F.7 ....
 F-3|..|F-1 2F.7 ....|A-3 2F.7 ....|--- .... ....
....|..|--- .... ....|R-- .... ....|--- .... ....
....|..|C-4 AF.F ....|G-3 2F.F ....|F-1 2F.7 ....
 F-3|..|F-1 2F.7 ....|R-- .... ....|--- .... ....
....|..|B-8 JF.7 ....|E-4 2F.7 ....|--- .... ....
....|..|--- .... ....|--- .... ....|--- .... ....
....|..|C-4 CF.F ....|G-3 2F.F ....|G-1 2F.F ....
 G-3|..|G-1 2A.F ....|R-- .... ....|R-- .... ....
....|..|B-8 JF.A ....|A-3 2F.F ....|--- .... ....
....|..|--- .... ....|G-3 2F2F ....|G-3 2F2F ....

[Pattern9]
....|..|C-4 AF.F ....|C-4 2F1F ....|C-4 2F1F ....
 G-3|..|G-1 2A.F ....|D-3 2F1A ....|F-1 2F.F ....
 F-3|..|F-1 2A.F ....|R-- .... ....|--- .... ....
....|..|--- .... ....|--- .... ....|--- .... ....
....|..|B-8 JF.F ....|A-3 2F.F ....|F-1 2F.7 ....
 F-3|..|F-1 2F.7 ....|R-- .... ....|--- .... ....
....|..|--- .... ....|A-3 2F.F ....|--- .... ....
....|..|--- .... ....|R-- .... ....|--- .... ....
....|..|B-8 JF.F ....|A-3 2F.F ....|F-2 2F.F ....
 F-4|..|F-2 2A.F ....|R-- .... ....|R-- .... ....
....|..|B-8 JF.F ....|E-4 2F.F ....|--- .... ....
....|..|--- .... ....|R-- .... ....|R-- .... ....
....|..|C-4 CF.F ....|D-4 2F.F ....|F-1 2F.F ....
 F-3|..|F-1 2A.F ....|D-3 2F17 ....|F-1 2F.A ....
 F-3|..|F-1 2F.A ....|--- .... ....|--- .... ....
....|..|--- .... ....|R-- .... ....|--- .... ....
....|..|B-8 JF.F ....|A-3 2F.F ....|R-- .... ....
....|..|R-- .... ....|R-- .... ....|R-- .... ....
....|..|B-8 JF.F ....|A-3 2F.A ....|--- .... ....
....|..|--- .... ....|R-- .... ....|--- .... ....
....|..|C-4 AF.F ....|G-3 2F.7 ....|F-1 2F.F ....
 F-3|..|F-1 2A.F ....|--- .... ....|--- .... ....
....|..|B-8 JF.A ....|A-3 2F.7 ....|--- .... ....
....|..|--- .... ....|G-3 2F27 ....|G-3 2F27 ....
....|..|C-4 AF.F ....|A-3 2F.F ....|F-2 2F.F ....
 F-4|..|F-2 2A.F ....|R-- .... ....|F-2 2F.F ....
....|..|B-8 JF.F ....|--- .... ....|--- .... ....
 F-4|..|F-2 2A.F ....|R-- .... ....|--- .... ....
....|..|C-4 CF.F ....|A-3 2F.F ....|F-1 2F.F ....
 F-3|..|F-1 2A.F ....|R-- .... ....|R-- .... ....
....|..|B-8 JF.A ....|A-3 2F.F ....|--- .... ....
....|..|--- .... ....|R-- .... ....|--- .... ....
....|..|B-8 JF.F ....|A-3 2F.F ....|F-1 2F.F ....
 F-3|..|F-1 2A.F ....|--- .... ....|--- .... ....
....|..|B-8 JF.F ....|E-4 2F.F ....|--- .... ....
....|..|--- .... ....|--- .... ....|--- .... ....
....|..|C-4 AF.F ....|D-4 2F.F ....|F-1 2F.F ....
 F-3|..|F-1 2A.F ....|R-- .... ....|F-2 2F.A ....
....|..|B-8 JF.A ....|--- .... ....|--- .... ....
 F-4|..|F-2 2F.A ....|R-- .... ....|--- .... ....
....|..|C-4 AF.F ....|A-3 2F.F ....|F-1 2F.A ....
....|..|R-- .... ....|R-- .... ....|R-- .... ....
....|..|B-8 JF.F ....|R-- .... ....|--- .... ....
....|..|--- .... ....|R-- .... ....|--- .... ....
....|..|C-4 CF.F ....|A-3 2F.A ....|F-1 2F.F ....
 F-3|..|F-1 2A.F ....|--- .... ....|--- .... ....
....|..|B-8 JF.F ....|E-4 2F.A ....|--- .... ....
....|..|--- .... ....|--- .... ....|--- .... ....
....|..|B-8 JF.F ....|A-3 2F.F ....|F-2 2F.7 ....
 F-4|..|F-2 2F.7 ....|R-- .... ....|F-2 2F.7 ....
....|..|B-8 JF.F ....|A-3 2F.F ....|F-3 2F.F ....
 F-4|..|F-2 2F.7 ....|F-3 2F.F ....|R-- .... ....
....|..|C-4 AF.F ....|B-3 2F.F ....|G-4 2F.F ....
 G-3|..|G-1 2A.F ....|D-3 2F1F ....|--- .... ....
....|..|B-8 JF.A ....|A-3 2F.7 ....|--- .... ....
....|..|--- .... ....|R-- .... ....|--- .... ....
....|..|C-4 AF.F ....|G-3 2F.F ....|F-1 2F.7 ....
 F-3|..|F-1 2F.7 ....|--- .... ....|--- .... ....
....|..|B-8 JF.F ....|E-4 2F.7 ....|--- .... ....
....|..|--- .... ....|--- .... ....|--- .... ....
....|..|C-4 CF.F ....|G-3 2F.F ....|G-1 2F.F ....
 G-3|..|G-1 2A.F ....|R-- .... ....|R-- .... ....
....|..|B-8 JF.A ....|B-3 2F.F ....|F-3 2F.A ....
....|..|--- .... ....|G-3 2F2F ....|G-3 2F2F ....

[Pattern10]
....|..|C-4 AF.F ....|C-4 2F1F ....|G-4 2F.F ....
 F-3|..|F-1 2A.F ....|D-3 2F1A ....|F-4 2F.F ....
....|..|B-8 JF.7 ....|R-- .... ....|--- .... ....
....|..|--- .... ....|--- .... ....|--- .... ....
....|..|B-8 JF.F ....|A-3 2F.F ....|F-1 2F.7 ....
 F-3|..|F-1 2F.7 ....|R-- .... ....|--- .... ....
....|..|B-8 JF.7 ....|A-3 2F.F ....|--- .... ....
....|..|--- .... ....|R-- .... ....|--- .... ....
....|..|B-8 JF.F ....|A-3 2F.F ....|F-2 2F.F ....
 F-4|..|F-2 2A.F ....|R-- .... ....|R-- .... ....
....|..|B-8 JF.F ....|E-4 2F.F ....|F-3 2F.7 ....
....|..|--- .... ....|F-3 2F.7 ....|R-- .... ....
....|..|C-4 CF.F ....|D-4 2F.F ....|F-2 2F.F ....
 F-4|..|F-2 2A.F ....|D-3 2F17 ....|F-1 2F.F ....
....|..|B-8 JF.F ....|--- .... ....|--- .... ....
 F-3|..|F-1 2A.F ....|--- .... ....|--- .... ....
....|..|B-8 JF.F ....|A-3 2F.F ....|R-- .... ....
....|..|R-- .... ....|R-- .... ....|--- .... ....
....|..|B-8 JF.F ....|R-- .... ....|R-- .... ....
....|..|R-- .... ....|R-- .... ....|--- .... ....
....|..|C-4 AF.F ....|G-3 2F.7 ....|F-1 2F.F ....
 F-3|..|F-1 2A.F ....|R-- .... ....|--- .... ....
....|..|B-8 JF.A ....|B-3 2F.7 ....|--- .... ....
....|..|--- .... ....|G-3 2F27 ....|G-3 2F27 ....
....|..|C-4 AF.F ....|A-3 2F.F ....|F-1 2F.F ....
 F-3|..|F-1 2A.F ....|R-- .... ....|F-4 2F.7 ....
....|..|B-8 JF.F ....|--- .... ....|--- .... ....
 F-3|..|F-1 2F.A ....|--- .... ....|--- .... ....
....|..|C-4 CF.F ....|A-3 2F.F ....|F-1 2F.F ....
 F-3|..|F-1 2A.F ....|R-- .... ....|--- .... ....
....|..|B-8 JF.A ....|A-3 2F.F ....|R-- .... ....
....|..|R-- .... ....|R-- .... ....|--- .... ....
....|..|B-8 JF.F ....|A-3 2F.F ....|F-2 2F.7 ....
 F-4|..|F-2 2F.7 ....|R-- .... ....|R-- .... ....
....|..|B-8 JF.F ....|E-4 2F.F ....|--- .... ....
....|..|--- .... ....|--- .... ....|--- .... ....
....|..|C-4 AF.F ....|D-4 2F.F ....|F-1 2F.F ....
 F-3|..|F-1 2A.F ....|R-- .... ....|F-1 2F.7 ....
....|..|B-8 JF.7 ....|--- .... ....|--- .... ....
 F-3|..|F-1 2F.7 ....|--- .... ....|--- .... ....
....|..|C-4 AF.F ....|A-3 2F.F ....|F-1 2F.A ....
....|..|R-- .... ....|R-- .... ....|R-- .... ....
....|..|B-8 JF.F ....|R-- .... ....|R-- .... ....
....|..|R-- .... ....|R-- .... ....|--- .... ....
....|..|C-4 CF.F ....|A-3 2F.A ....|F-1 2F.F ....
 F-3|..|F-1 2A.F ....|R-- .... ....|R-- .... ....
....|..|B-8 JF.F ....|E-4 2F.A ....|--- .... ....
....|..|--- .... ....|--- .... ....|--- .... ....
....|..|B-8 JF.F ....|A-3 2F.F ....|F-1 2F.7 ....
 F-3|..|F-1 2F.7 ....|R-- .... ....|R-- .... ....
....|..|B-8 JF.F ....|A-3 2F.F ....|R-- .... ....
....|..|--- .... ....|R-- .... ....|--- .... ....
....|..|C-4 AF.F ....|B-3 2F.F ....|G-4 2F.F ....
 G-3|..|G-1 2A.F ....|D-3 2F1F ....|R-- .... ....
....|..|B-8 JF.A ....|A-3 2F.7 ....|--- .... ....
....|..|--- .... ....|R-- .... ....|--- .... ....
....|..|C-4 AF.F ....|G-3 2F.F ....|F-1 2F.A ....
....|..|R-- .... ....|R-- .... ....|R-- .... ....
....|..|B-8 JF.7 ....|E-4 2F.7 ....|--- .... ....
....|..|--- .... ....|--- .... ....|--- .... ....
....|..|C-4 CF.F ....|G-3 2F.F ....|G-1 2F.F ....
 G-3|..|G-1 2A.F ....|R-- .... ....|R-- .... ....
....|..|B-8 JF.F ....|A-3 2F.F ....|R-- .... ....
....|..|--- .... ....|G-3 2F.F ....|G-3 2F.F ....

[Pattern11]
....|..|C-4 AF.F ....|C-4 2F1F ....|G-4 2F.F ....
 F-3|..|F-1 2A.F ....|D-3 2F1A ....|R-- .... ....
....|..|B-8 JF.7 ....|R-- .... ....|F-4 2F.F ....
....|..|--- .... ....|--- .... ....|--- .... ....
....|..|B-8 JF.F ....|A-3 2F.F ....|F-1 2F.7 ....
 F-3|..|F-1 2F.7 ....|R-- .... ....|--- .... ....
....|..|B-8 JF.7 ....|A-3 2F.F ....|--- .... ....
....|..|--- .... ....|R-- .... ....|--- .... ....
....|..|B-8 JF.F ....|A-3 2F.F ....|F-2 2F.F ....
 F-4|..|F-2 2A.F ....|R-- .... ....|R-- .... ....
....|..|B-8 JF.F ....|E-4 2F.F ....|R-- .... ....
....|..|--- .... ....|R-- .... ....|G-3 2F.A ....
....|..|C-4 CF.F ....|D-4 2F.F ....|F-2 2F.F ....
 F-4|..|F-2 2A.F ....|D-3 2F17 ....|F-1 2F.F ....
....|..|B-8 JF.F ....|--- .... ....|F-4 2F.A ....
 F-3|..|F-1 2A.F ....|--- .... ....|--- .... ....
....|..|B-8 JF.F ....|A-3 2F.F ....|R-- .... ....
....|..|R-- .... ....|R-- .... ....|--- .... ....
....|..|B-8 JF.F ....|A-3 2F.A ....|--- .... ....
....|..|--- .... ....|R-- .... ....|--- .... ....
....|..|C-4 AF.F ....|G-3 2F.7 ....|F-1 2F.F ....
 F-3|..|F-1 2A.F ....|--- .... ....|--- .... ....
....|..|B-8 JF.7 ....|A-3 2F.7 ....|--- .... ....
....|..|--- .... ....|G-3 2F.7 ....|G-3 2F.7 ....
....|..|C-4 AF.F ....|E-4 2F.F ....|F-1 2F.F ....
 F-3|..|F-1 2A.F ....|R-- .... ....|F-1 2F.A ....
....|..|B-8 JF.F ....|--- .... ....|F-4 2F.7 ....
 F-3|..|F-1 2F.A ....|--- .... ....|--- .... ....
....|..|C-4 CF.F ....|E-4 2F.F ....|F-1 2F.F ....
 F-3|..|F-1 2A.F ....|R-- .... ....|--- .... ....
....|..|B-8 JF.F ....|E-4 2F.F ....|--- .... ....
....|..|--- .... ....|R-- .... ....|--- .... ....
....|..|B-8 JF.F ....|E-4 2F.F ....|F-2 2F.7 ....
 F-4|..|F-2 2F.7 ....|R-- .... ....|--- .... ....
....|..|B-8 JF.F ....|E-4 2F.F ....|--- .... ....
....|..|--- .... ....|--- .... ....|--- .... ....
....|..|C-4 AF.F ....|G-4 2F.F ....|E-4 2F.F ....
 E-3|..|E-1 2A.F ....|B-3 2F1F ....|F-1 2F.7 ....
....|..|B-8 JF.7 ....|--- .... ....|--- .... ....
 F-3|..|F-1 2F.7 ....|--- .... ....|--- .... ....
....|..|C-4 AF.F ....|E-4 2F.F ....|R-- .... ....
....|..|R-- .... ....|R-- .... ....|--- .... ....
....|..|B-8 JF.F ....|R-- .... ....|--- .... ....
....|..|--- .... ....|R-- .... ....|--- .... ....
....|..|C-4 CF.F ....|E-4 2F.A ....|E-1 2F.F ....
 E-3|..|E-1 2A.F ....|R-- .... ....|--- .... ....
....|..|B-8 JF.F ....|E-4 2F.A ....|--- .... ....
....|..|--- .... ....|--- .... ....|--- .... ....
....|..|B-8 JF.F ....|F-4 2F.F ....|F-1 2F.7 ....
 F-3|..|F-1 2F.7 ....|R-- .... ....|--- .... ....
....|..|B-8 JF.F ....|E-4 2F.F ....|--- .... ....
....|..|--- .... ....|--- .... ....|--- .... ....
....|..|C-4 AF.F ....|G-4 2F.F ....|E-1 2F.F ....
 E-3|..|E-1 2A.F ....|R-- .... ....|--- .... ....
....|..|B-8 JF.7 ....|E-4 2F.7 ....|--- .... ....
....|..|R-- .... ....|R-- .... ....|R-- .... ....
....|..|C-4 AF.F ....|E-4 2F.F ....|E-1 2F.F ....
 E-3|..|E-1 2A.F ....|R-- .... ....|--- .... ....
....|..|B-8 JF.7 ....|E-4 2F.7 ....|--- .... ....
....|..|--- .... ....|--- .... ....|--- .... ....
....|..|C-4 CF.F ....|G-4 2F.F ....|G-1 2F.F ....
 G-3|..|G-1 2A.F ....|B-3 2F17 ....|--- .... ....
....|..|B-8 JF.F ....|E-4 2F.A ....|--- .... ....
....|..|--- .... ....|--- .... ....|--- .... ....

[Pattern12]
....|..|C-4 AF.F ....|A-4 2F.F ....|C-5 2F.F ....
 A-3|..|A-1 2A.F ....|C-4 2F3F ....|C-5 2F.F ....
 A-3|..|A-1 2A.F ....|R-- .... ....|--- .... ....
....|..|R-- .... ....|--- .... ....|R-- .... ....
....|..|B-8 JF.F ....|E-4 2F.A ....|E-1 2F.7 ....
 E-3|..|E-1 2F.7 ....|--- .... ....|--- .... ....
....|..|B-8 JF.7 ....|--- .... ....|--- .... ....
....|..|--- .... ....|--- .... ....|--- .... ....
....|..|B-8 JF.F ....|F-4 2F.7 ....|A-1 2F.F ....
 A-3|..|A-1 2A.F ....|--- .... ....|R-- .... ....
....|..|B-8 JF.7 ....|E-4 2F.7 ....|--- .... ....
....|..|--- .... ....|--- .... ....|--- .... ....
....|..|C-4 CF.F ....|C-5 2F.F ....|C-5 2F.F ....
 A-3|..|A-1 2A.F ....|R-- .... ....|R-- .... ....
....|..|B-8 JF.F ....|C-5 2F.F ....|C-5 2F.F ....
 A-3|..|A-1 2A.F ....|R-- .... ....|R-- .... ....
....|..|B-8 JF.F ....|C-5 2F.F ....|C-5 2F.F ....
 G-3|..|G-1 2A.F ....|R-- .... ....|R-- .... ....
....|..|B-8 JF.F ....|C-5 2F.F ....|C-5 2F.F ....
 A-3|..|A-1 2A.F ....|C-4 2F.F ....|E-4 2F.F ....
....|..|C-4 AF.F ....|B-4 2F.F ....|B-4 2F.F ....
 B-3|..|B-1 2A.F ....|B-3 2F4F ....|B-4 2F.F ....
....|..|B-8 JF.7 ....|--- .... ....|--- .... ....
....|..|--- .... ....|--- .... ....|--- .... ....
....|..|C-4 AF.F ....|G-4 2F.F ....|G-4 2F.F ....
 B-3|..|B-1 2A.F ....|C-4 2F37 ....|C-5 2F.7 ....
 A-3|..|A-1 2F.7 ....|R-- .... ....|B-3 2F.F ....
 A-3|..|A-1 2F.A ....|R-- .... ....|R-- .... ....
....|..|C-4 CF.F ....|C-5 2F.A ....|R-- .... ....
....|..|R-- .... ....|R-- .... ....|R-- .... ....
....|..|B-8 JF.A ....|C-5 2F.A ....|C-5 2F.A ....
 A-3|..|A-1 2F.A ....|C-4 2F.A ....|E-4 2F.A ....
....|..|B-8 JF.F ....|A-4 2F.F ....|A-4 2F.F ....
 A-3|..|A-1 2A.F ....|B-3 2F4A ....|A-4 2F.F ....
....|..|B-8 JF.F ....|B-4 2F.F ....|B-4 2F.F ....
 B-3|..|B-1 2A.F ....|--- .... ....|--- .... ....
....|..|C-4 AF.F ....|B-4 2F.F ....|B-4 2F.F ....
 C-4|..|C-2 2A.F ....|A-4 2F.F ....|A-4 2F.F ....
....|..|B-8 JF.7 ....|A-3 2F4F ....|C-5 2F.7 ....
 A-3|..|A-1 2F.7 ....|A-3 2F4F ....|R-- .... ....
....|..|C-4 AF.F ....|F-4 2F.F ....|F-4 2F.F ....
 C-4|..|C-2 2A.F ....|R-- .... ....|R-- .... ....
....|..|B-8 JF.7 ....|C-5 2F.7 ....|C-5 2F.7 ....
 A-3|..|A-1 2F.7 ....|C-4 2F.7 ....|E-4 2F.7 ....
....|..|C-4 CF.F ....|B-4 2F.7 ....|B-4 2F.7 ....
 B-3|..|B-1 2F.7 ....|B-3 2F47 ....|B-4 2F.7 ....
....|..|B-8 JF.A ....|B-4 2F.A ....|B-4 2F.A ....
 B-3|..|B-1 2F.A ....|--- .... ....|--- .... ....
....|..|B-8 JF.F ....|A-4 2F.F ....|A-4 2F.F ....
 B-3|..|B-1 2A.F ....|R-- .... ....|R-- .... ....
....|..|B-8 JF.F ....|A-4 2F.F ....|A-4 2F.F ....
 C-4|..|C-2 2A.F ....|A-3 2F.F ....|A-3 2F.F ....
....|..|C-4 AF.F ....|G-4 2F.F ....|G-4 2F.F ....
 B-3|..|B-1 2A.F ....|A-3 2F5F ....|B-4 2F.F ....
....|..|B-8 JF.F ....|B-3 2F4F ....|B-1 2F.F ....
 B-3|..|B-1 2A.F ....|--- .... ....|R-- .... ....
....|..|C-4 AF.F ....|E-4 2F.F ....|E-4 2F.F ....
 G-3|..|G-1 2A.F ....|R-- .... ....|A-4 2F.7 ....
....|..|B-8 JF.7 ....|B-4 2F.7 ....|B-4 2F.7 ....
 B-3|..|B-1 2F.7 ....|--- .... ....|--- .... ....
....|..|C-4 CF.F ....|B-4 2F.7 ....|B-4 2F.7 ....
 C-4|..|C-2 2F.7 ....|A-4 2F.7 ....|A-4 2F.7 ....
....|..|R-- .... ....|A-3 2F47 ....|R-- .... ....
 C-4|..|C-2 2F.A ....|A-3 2F47 ....|A-3 2F.A ....

[Pattern13]
....|..|C-4 AF.F ....|C-4 2F3F ....|C-5 2F.F ....
 A-3|..|A-1 2A.F ....|C-4 2F3F ....|C-5 2F.F ....
....|..|R-- .... ....|R-- .... ....|R-- .... ....
 B-3|..|B-1 2F.A ....|--- .... ....|R-- .... ....
....|..|B-8 JF.F ....|E-4 2F.A ....|E-4 2F.A ....
 G-3|..|G-1 2F.A ....|R-- .... ....|--- .... ....
....|..|--- .... ....|--- .... ....|R-- .... ....
....|..|--- .... ....|--- .... ....|--- .... ....
....|..|B-8 JF.F ....|C-5 2F.F ....|C-5 2F.F ....
 A-3|..|A-1 2A.F ....|R-- .... ....|R-- .... ....
....|..|B-8 JF.7 ....|C-5 2F.F ....|C-5 2F.F ....
 C-4|..|C-2 2F.7 ....|A-3 2F.7 ....|A-3 2F.7 ....
....|..|C-4 CF.F ....|C-5 2F.F ....|C-5 2F.F ....
 A-3|..|A-1 2A.F ....|A-3 2F57 ....|B-4 2F.7 ....
....|..|B-8 JF.F ....|B-3 2F47 ....|E-4 2F.F ....
 A-3|..|A-1 2A.F ....|R-- .... ....|R-- .... ....
....|..|B-8 JF.F ....|C-5 2F.F ....|C-5 2F.F ....
 G-3|..|G-1 2A.F ....|R-- .... ....|R-- .... ....
....|..|B-8 JF.F ....|C-5 2F.F ....|C-5 2F.F ....
 A-3|..|A-1 2A.F ....|C-4 2F.F ....|--- .... ....
....|..|C-4 AF.F ....|B-4 2F.F ....|B-4 2F.F ....
 B-3|..|B-1 2A.F ....|B-3 2F4F ....|R-- .... ....
....|..|R-- .... ....|C-5 2F.A ....|R-- .... ....
....|..|--- .... ....|R-- .... ....|R-- .... ....
....|..|C-4 AF.F ....|G-4 2F.F ....|G-4 2F.F ....
 B-3|..|B-1 2A.F ....|C-4 2F37 ....|C-5 2F.7 ....
....|..|R-- .... ....|R-- .... ....|B-3 2F.F ....
 A-3|..|A-1 2F.A ....|R-- .... ....|R-- .... ....
....|..|C-4 CF.F ....|C-5 2F.A ....|C-5 2F.A ....
 G-3|..|G-1 2F.A ....|R-- .... ....|R-- .... ....
....|..|B-8 JF.A ....|C-5 2F.A ....|C-5 2F.A ....
 A-3|..|A-1 2F.A ....|C-4 2F.A ....|--- .... ....
....|..|B-8 JF.F ....|C-5 2F.F ....|C-5 2F.F ....
 A-3|..|A-1 2A.F ....|R-- .... ....|R-- .... ....
....|..|B-8 JF.F ....|D-5 2F.F ....|D-5 2F.F ....
 B-3|..|B-1 2A.F ....|R-- .... ....|R-- .... ....
....|..|C-4 AF.F ....|A-4 2F.F ....|D-5 2F.F ....
 C-4|..|C-2 2A.F ....|A-3 2F6F ....|A-4 2F.F ....
....|..|B-8 JF.7 ....|A-3 2F4F ....|E-4 2F.7 ....
 A-3|..|A-1 2F.7 ....|R-- .... ....|R-- .... ....
....|..|C-4 AF.F ....|F-4 2F.F ....|F-4 2F.F ....
 C-4|..|C-2 2A.F ....|R-- .... ....|F-4 2F.F ....
....|..|B-8 JF.7 ....|C-5 2F.7 ....|C-5 2F.7 ....
 A-3|..|A-1 2F.7 ....|C-4 2F.7 ....|--- .... ....
....|..|C-4 CF.F ....|B-4 2F.7 ....|B-4 2F.7 ....
 B-3|..|B-1 2F.7 ....|B-3 2F47 ....|--- .... ....
....|..|B-8 JF.A ....|D-5 2F.A ....|D-5 2F.A ....
 B-3|..|B-1 2F.A ....|--- .... ....|--- .... ....
....|..|B-8 JF.F ....|A-4 2F.F ....|A-4 2F.F ....
 B-3|..|B-1 2A.F ....|R-- .... ....|R-- .... ....
....|..|B-8 JF.F ....|A-4 2F.F ....|A-4 2F.F ....
 C-4|..|C-2 2A.F ....|A-3 2F.F ....|A-3 2F.F ....
....|..|C-4 AF.F ....|G#4 2F.F ....|G#4 2F.F ....
 B-3|..|B-1 2A.F ....|A-3 2F.F ....|G#3 2F4F ....
....|..|B-8 JF.F ....|G#3 2F4F ....|B-1 2F.F ....
 B-3|..|B-1 2A.F ....|G#3 2F4F ....|R-- .... ....
....|..|C-4 AF.F ....|G#4 2F.F ....|G#4 2F.F ....
 G-3|..|G-1 2A.F ....|--- .... ....|--- .... ....
....|..|B-8 JF.7 ....|D-5 2F.7 ....|D-5 2F.7 ....
 B-3|..|B-1 2F.7 ....|--- .... ....|B-3 2F.F ....
....|..|C-4 CF.F ....|B-4 2F.F ....|B-4 2F.F ....
 C-4|..|C-2 2F.7 ....|A-3 2F67 ....|A-4 2F.7 ....
....|..|B-8 JF.A ....|A-3 2F47 ....|B-4 2F.F ....
....|..|R-- .... ....|A-3 2F.A ....|R-- .... ....

[Pattern14]
....|..|C-4 AF.F ....|C-5 2F.F ....|C-5 2F.F ....
 A-3|..|A-1 2A.F ....|G#3 2F7F ....|C-5 2F.F ....
....|..|R-- .... ....|C-4 2F3F ....|R-- .... ....
 B-3|..|B-1 2F.A ....|R-- .... ....|R-- .... ....
....|..|B-8 JF.F ....|G#4 2F.A ....|G#4 2F.A ....
 G-3|..|G-1 2F.A ....|--- .... ....|--- .... ....
....|..|--- .... ....|--- .... ....|--- .... ....
....|..|--- .... ....|--- .... ....|B-3 2F.A ....
....|..|B-8 JF.F ....|C-5 2F.F ....|C-5 2F.F ....
 A-3|..|A-1 2A.F ....|R-- .... ....|R-- .... ....
....|..|B-8 JF.7 ....|C-5 2F.F ....|C-5 2F.F ....
 C-4|..|C-2 2F.7 ....|A-3 2F.7 ....|A-3 2F.7 ....
....|..|C-4 CF.F ....|C-5 2F.F ....|C-5 2F.F ....
 A-3|..|A-1 2A.F ....|A-3 2F.7 ....|G#3 2F47 ....
....|..|B-8 JF.F ....|C-5 2F.F ....|C-5 2F.F ....
 A-3|..|A-1 2A.F ....|G#3 2F47 ....|R-- .... ....
....|..|B-8 JF.F ....|C-5 2F.F ....|C-5 2F.F ....
 G-3|..|G-1 2A.F ....|R-- .... ....|R-- .... ....
....|..|B-8 JF.F ....|C-5 2F.F ....|C-5 2F.F ....
 A-3|..|A-1 2A.F ....|--- .... ....|B-3 2F.7 ....
....|..|C-4 AF.F ....|B-4 2F.F ....|B-4 2F.F ....
 B-3|..|B-1 2A.F ....|B-3 2F4F ....|R-- .... ....
....|..|R-- .... ....|C-5 2F.A ....|B-4 2F.7 ....
....|..|R-- .... ....|R-- .... ....|R-- .... ....
....|..|C-4 AF.F ....|G-4 2F.F ....|G-4 2F.F ....
 B-3|..|B-1 2A.F ....|G#3 2F77 ....|C-5 2F.7 ....
....|..|R-- .... ....|C-4 2F37 ....|R-- .... ....
 A-3|..|A-1 2F.A ....|R-- .... ....|R-- .... ....
....|..|C-4 CF.F ....|C-5 2F.A ....|C-5 2F.A ....
 G-3|..|G-1 2F.A ....|R-- .... ....|R-- .... ....
....|..|B-8 JF.A ....|A-4 2F.F ....|A-4 2F.F ....
 A-3|..|A-1 2F.A ....|R-- .... ....|R-- .... ....
....|..|B-8 JF.F ....|A-4 2F.F ....|A-4 2F.F ....
 A-3|..|A-1 2A.F ....|R-- .... ....|R-- .... ....
....|..|B-8 JF.F ....|B-4 2F.F ....|B-4 2F.F ....
 B-3|..|B-1 2A.F ....|R-- .... ....|B-4 2F.F ....
....|..|C-4 AF.F ....|A-4 2F.F ....|A-4 2F.F ....
 C-4|..|C-2 2A.F ....|A-3 2F4F ....|A-3 2F4F ....
....|..|B-8 JF.7 ....|A-3 2F4F ....|C-5 2F.7 ....
 A-3|..|A-1 2F.7 ....|R-- .... ....|A-4 2F.F ....
....|..|C-4 AF.F ....|F-4 2F.F ....|F-4 2F.F ....
 C-4|..|C-2 2A.F ....|R-- .... ....|R-- .... ....
....|..|B-8 JF.7 ....|C-5 2F.7 ....|C-5 2F.7 ....
 A-3|..|A-1 2F.7 ....|R-- .... ....|R-- .... ....
....|..|C-4 CF.F ....|B-4 2F.7 ....|B-4 2F.7 ....
 B-3|..|B-1 2F.7 ....|B-3 2F47 ....|R-- .... ....
....|..|B-8 JF.A ....|B-4 2F.A ....|B-4 2F.A ....
 B-3|..|B-1 2F.A ....|R-- .... ....|B-4 2F.A ....
....|..|B-8 JF.F ....|A-4 2F.F ....|A-4 2F.F ....
 B-3|..|B-1 2A.F ....|R-- .... ....|R-- .... ....
....|..|B-8 JF.F ....|A-4 2F.F ....|A-4 2F.F ....
 C-4|..|C-2 2A.F ....|A-3 2F8F ....|A-4 2F.F ....
....|..|C-4 AF.F ....|B-4 2F.F ....|B-4 2F.F ....
 B-3|..|B-1 2A.F ....|A-3 2F5F ....|B-4 2F.F ....
....|..|B-8 JF.F ....|B-3 2F4F ....|B-1 2F.F ....
 B-3|..|B-1 2A.F ....|R-- .... ....|R-- .... ....
....|..|C-4 AF.F ....|G-4 2F.F ....|G-4 2F.F ....
 G-3|..|G-1 2A.F ....|R-- .... ....|R-- .... ....
....|..|B-8 JF.7 ....|B-4 2F.7 ....|G-4 2F.F ....
 B-3|..|B-1 2F.7 ....|R-- .... ....|B-4 2F.7 ....
....|..|C-4 CF.F ....|A-4 2F.7 ....|A-4 2F.7 ....
 C-4|..|C-2 2F.7 ....|A-3 2F47 ....|A-3 2F47 ....
....|..|R-- .... ....|A-3 2F47 ....|R-- .... ....
 C-4|..|C-2 2F.A ....|A-3 2F8A ....|A-4 2F.7 ....

[Pattern15]
....|..|C-4 AF.F ....|B-3 2F9F ....|C-5 2F.F ....
 A-3|..|A-1 2A.F ....|C-4 2F3F ....|C-4 2F3F ....
....|..|R-- .... ....|R-- .... ....|R-- .... ....
 B-3|..|B-1 2F.A ....|--- .... ....|R-- .... ....
....|..|B-8 JF.F ....|G-4 2F.A ....|G-4 2F.A ....
 G-3|..|G-1 2F.A ....|--- .... ....|--- .... ....
....|..|--- .... ....|R-- .... ....|G-4 2F.A ....
....|..|--- .... ....|--- .... ....|R-- .... ....
....|..|B-8 JF.F ....|C-5 2F.F ....|C-5 2F.F ....
 A-3|..|A-1 2A.F ....|R-- .... ....|R-- .... ....
....|..|B-8 JF.7 ....|C-5 2F.F ....|C-5 2F.F ....
 C-4|..|C-2 2F.7 ....|A-3 2F87 ....|A-4 2F.7 ....
....|..|C-4 CF.F ....|C-5 2F.F ....|C-5 2F.F ....
 A-3|..|A-1 2A.F ....|A-3 2F57 ....|B-4 2F.7 ....
....|..|B-8 JF.F ....|C-5 2F.F ....|C-5 2F.F ....
 A-3|..|A-1 2A.F ....|R-- .... ....|R-- .... ....
....|..|B-8 JF.F ....|C-5 2F.F ....|C-5 2F.F ....
 G-3|..|G-1 2A.F ....|R-- .... ....|R-- .... ....
....|..|B-8 JF.F ....|C-5 2F.F ....|C-5 2F.F ....
 A-3|..|A-1 2A.F ....|--- .... ....|R-- .... ....
....|..|C-4 AF.F ....|B-4 2F.F ....|B-4 2F.F ....
 B-3|..|B-1 2A.F ....|B-3 2F4F ....|R-- .... ....
....|..|R-- .... ....|C-5 2F.A ....|R-- .... ....
....|..|--- .... ....|R-- .... ....|B-4 2F.F ....
....|..|C-4 AF.F ....|G-4 2F.F ....|G-4 2F.F ....
 B-3|..|B-1 2A.F ....|C-4 2F37 ....|C-4 2F37 ....
....|..|R-- .... ....|R-- .... ....|B-3 2F.F ....
 A-3|..|A-1 2F.A ....|R-- .... ....|R-- .... ....
....|..|C-4 CF.F ....|C-5 2F.A ....|C-5 2F.A ....
 G-3|..|G-1 2F.A ....|R-- .... ....|R-- .... ....
....|..|B-8 JF.A ....|C-5 2F.A ....|C-5 2F.A ....
 A-3|..|A-1 2F.A ....|--- .... ....|R-- .... ....
....|..|B-8 JF.F ....|A-4 2F.F ....|A-4 2F.F ....
 A-3|..|A-1 2A.F ....|R-- .... ....|A-4 2F.F ....
....|..|B-8 JF.F ....|B-4 2F.F ....|B-4 2F.F ....
 B-3|..|B-1 2A.F ....|R-- .... ....|R-- .... ....
....|..|C-4 AF.F ....|A-4 2F.F ....|A-4 2F.F ....
 C-4|..|C-2 2A.F ....|A-3 2F6F ....|A-4 2F.F ....
....|..|B-8 JF.7 ....|A-3 2F4F ....|C-5 2F.7 ....
 A-3|..|A-1 2F.7 ....|R-- .... ....|R-- .... ....
....|..|C-4 AF.F ....|A-4 2F.F ....|F-4 2F.F ....
 C-4|..|C-2 2A.F ....|F-4 2F.F ....|R-- .... ....
....|..|B-8 JF.7 ....|C-5 2F.7 ....|C-5 2F.7 ....
 A-3|..|A-1 2F.7 ....|--- .... ....|R-- .... ....
....|..|C-4 CF.F ....|B-4 2F.7 ....|B-4 2F.7 ....
 B-3|..|B-1 2F.7 ....|B-3 2F47 ....|A-4 2F.A ....
....|..|B-8 JF.A ....|B-4 2F.A ....|B-4 2F.A ....
 B-3|..|B-1 2F.A ....|--- .... ....|B-4 2F.7 ....
....|..|B-8 JF.F ....|A-4 2F.F ....|A-4 2F.F ....
 B-3|..|B-1 2A.F ....|R-- .... ....|R-- .... ....
....|..|B-8 JF.F ....|A-4 2F.F ....|A-4 2F.F ....
 C-4|..|C-2 2A.F ....|A-3 2F.F ....|A-3 2F.F ....
....|..|C-4 AF.F ....|B-4 2F.F ....|B-4 2F.F ....
 B-3|..|B-1 2A.F ....|G#3 2FAF ....|G#3 2F4F ....
 B-3|..|B-1 2A.F ....|G#3 2F4F ....|B-1 2F.F ....
....|..|R-- .... ....|--- .... ....|R-- .... ....
....|..|C-4 AF.F ....|B-4 2F.F ....|G#4 2F.F ....
 G-3|..|G-1 2A.F ....|G#4 2F.F ....|A-4 2F.7 ....
....|..|B-8 JF.7 ....|B-4 2F.7 ....|B-4 2F.7 ....
 B-3|..|B-1 2F.7 ....|R-- .... ....|--- .... ....
....|..|C-4 CF.F ....|A-4 2F.7 ....|A-4 2F.7 ....
 C-4|..|C-2 2F.7 ....|A-3 2F67 ....|A-4 2F.7 ....
....|..|B-8 JF.A ....|A-3 2F47 ....|A-4 2F.A ....
....|..|R-- .... ....|A-3 2F.A ....|R-- .... ....

[Pattern16]
....|..|C-4 AF.F ....|G#3 2FBF ....|A-4 2F.F ....
 F-3|..|F-1 2A.F ....|A-3 2FCF ....|A-4 2F.F ....
....|..|R-- .... ....|R-- .... ....|R-- .... ....
....|..|R-- .... ....|--- .... ....|R-- .... ....
....|..|B-8 JF.F ....|A-3 2F.F ....|G#4 2F.A ....
 G-3|..|G-1 2F.A ....|R-- .... ....|--- .... ....
....|..|--- .... ....|A-3 2F.F ....|R-- .... ....
....|..|--- .... ....|R-- .... ....|--- .... ....
....|..|B-8 JF.F ....|A-3 2F.F ....|F-1 2F.F ....
 F-3|..|F-1 2A.F ....|R-- .... ....|R-- .... ....
....|..|B-8 JF.7 ....|E-4 2F.F ....|A-4 2F.7 ....
 C-4|..|C-2 2F.7 ....|A-3 2F.7 ....|A-3 2F.7 ....
....|..|C-4 CF.F ....|D-4 2F.F ....|F-1 2F.F ....
 F-3|..|F-1 2A.F ....|G#3 2FA7 ....|G#3 2F47 ....
....|..|B-8 JF.F ....|G#3 2F47 ....|B-1 2F.7 ....
....|..|R-- .... ....|--- .... ....|R-- .... ....
....|..|B-8 JF.F ....|A-3 2F.F ....|G#4 2F.7 ....
 G-3|..|G-1 2F.7 ....|G#4 2F.7 ....|--- .... ....
....|..|B-8 JF.F ....|R-- .... ....|R-- .... ....
....|..|--- .... ....|R-- .... ....|--- .... ....
....|..|C-4 AF.F ....|A-3 2F.A ....|F-1 2F.F ....
 F-3|..|F-1 2A.F ....|--- .... ....|--- .... ....
....|..|--- .... ....|E-4 2F.A ....|--- .... ....
....|..|R-- .... ....|--- .... ....|R-- .... ....
....|..|C-4 AF.F ....|A-3 2F.F ....|F-2 2F.F ....
 F-4|..|F-2 2A.F ....|A-3 2FC7 ....|F-2 2F.F ....
 F-4|..|F-2 2A.F ....|--- .... ....|--- .... ....
....|..|R-- .... ....|--- .... ....|R-- .... ....
....|..|C-4 CF.F ....|A-3 2F.F ....|F-2 2F.F ....
 F-4|..|F-2 2A.F ....|R-- .... ....|F-1 2F.F ....
....|..|B-8 JF.F ....|A-3 2F.F ....|--- .... ....
 F-3|..|F-1 2A.F ....|R-- .... ....|--- .... ....
....|..|B-8 JF.F ....|A-3 2F.F ....|F-2 2F.F ....
 F-4|..|F-2 2A.F ....|--- .... ....|F-2 2F.F ....
....|..|B-8 JF.F ....|E-4 2F.F ....|--- .... ....
 F-4|..|F-2 2A.F ....|--- .... ....|--- .... ....
....|..|C-4 AF.F ....|E-4 2F.F ....|F-2 2F.F ....
 F-4|..|F-2 2A.F ....|D-4 2F.F ....|F-1 2F.F ....
 F-3|..|F-1 2A.F ....|--- .... ....|--- .... ....
....|..|--- .... ....|--- .... ....|--- .... ....
....|..|C-4 AF.F ....|A-3 2F.F ....|R-- .... ....
....|..|R-- .... ....|R-- .... ....|R-- .... ....
....|..|B-8 JF.7 ....|R-- .... ....|--- .... ....
 F-3|..|F-1 2F.A ....|R-- .... ....|--- .... ....
....|..|C-4 CF.F ....|A-3 2F.A ....|F-1 2F.F ....
 F-3|..|F-1 2A.F ....|--- .... ....|F-2 2F.A ....
....|..|B-8 JF.A ....|E-4 2F.A ....|--- .... ....
 F-4|..|F-2 2F.A ....|--- .... ....|--- .... ....
....|..|B-8 JF.F ....|A-3 2F.F ....|F-2 2F.7 ....
 F-4|..|F-2 2F.7 ....|R-- .... ....|F-2 2F.7 ....
....|..|B-8 JF.F ....|A-3 2F.F ....|--- .... ....
....|..|--- .... ....|A-3 2F8F ....|A-3 2F8F ....
....|..|C-4 AF.F ....|B-3 2F.F ....|B-4 2F.F ....
 G-3|..|G-1 2A.F ....|B-3 2F.F ....|F-1 2F.7 ....
....|..|B-8 JF.7 ....|B-3 2FCF ....|--- .... ....
 F-3|..|F-1 2F.7 ....|R-- .... ....|--- .... ....
....|..|C-4 AF.F ....|B-3 2F.F ....|F-2 2F.7 ....
 F-4|..|F-2 2F.7 ....|R-- .... ....|F-2 2F.7 ....
....|..|B-8 JF.7 ....|E-4 2F.7 ....|--- .... ....
 F-4|..|F-2 2F.7 ....|--- .... ....|--- .... ....
....|..|C-4 CF.F ....|G-3 2F.F ....|G-1 2F.F ....
 G-3|..|G-1 2A.F ....|D-4 2F.7 ....|F-1 2F.7 ....
....|..|B-8 JF.F ....|A-3 2F.F ....|--- .... ....
....|..|--- .... ....|G-4 2F2F ....|G-4 2F2F ....

[Pattern17]
....|..|C-4 AF.F ....|A-3 2FCF ....|A-4 2F.F ....
 G-3|..|G-1 2A.F ....|B-3 2F.A ....|F-1 2F.F ....
 F-3|..|F-1 2A.F ....|R-- .... ....|--- .... ....
....|..|--- .... ....|--- .... ....|--- .... ....
....|..|B-8 JF.F ....|A-3 2F.F ....|F-1 2F.7 ....
 F-3|..|F-1 2F.7 ....|R-- .... ....|--- .... ....
....|..|--- .... ....|A-3 2F.F ....|--- .... ....
....|..|--- .... ....|R-- .... ....|--- .... ....
....|..|B-8 JF.F ....|A-3 2F.F ....|F-1 2F.F ....
 F-3|..|F-1 2A.F ....|R-- .... ....|R-- .... ....
....|..|B-8 JF.F ....|E-4 2F.F ....|--- .... ....
....|..|--- .... ....|A-3 2F87 ....|A-3 2F87 ....
....|..|C-4 CF.F ....|D-4 2F.F ....|F-1 2F.F ....
 F-3|..|F-1 2A.F ....|B-3 2F.7 ....|F-1 2F.A ....
 F-3|..|F-1 2F.A ....|B-3 2FC7 ....|--- .... ....
....|..|--- .... ....|--- .... ....|--- .... ....
....|..|B-8 JF.F ....|A-3 2F.F ....|R-- .... ....
....|..|R-- .... ....|R-- .... ....|--- .... ....
....|..|B-8 JF.F ....|A-3 2F.A ....|--- .... ....
....|..|--- .... ....|R-- .... ....|--- .... ....
....|..|C-4 AF.F ....|G-3 2F.7 ....|F-1 2F.F ....
 F-3|..|F-1 2A.F ....|R-- .... ....|--- .... ....
....|..|B-8 JF.7 ....|A-3 2F.7 ....|--- .... ....
....|..|--- .... ....|G-4 2F27 ....|G-4 2F27 ....
....|..|C-4 AF.F ....|A-3 2F.F ....|F-2 2F.F ....
 F-4|..|F-2 2A.F ....|R-- .... ....|F-2 2F.F ....
 F-4|..|F-2 2A.F ....|--- .... ....|--- .... ....
....|..|--- .... ....|--- .... ....|--- .... ....
....|..|C-4 CF.F ....|A-3 2F.F ....|F-2 2F.F ....
 F-4|..|F-2 2A.F ....|R-- .... ....|F-1 2F.F ....
....|..|B-8 JF.F ....|A-3 2F.F ....|--- .... ....
 F-3|..|F-1 2A.F ....|R-- .... ....|--- .... ....
....|..|B-8 JF.F ....|A-3 2F.F ....|F-2 2F.F ....
 F-4|..|F-2 2A.F ....|R-- .... ....|F-2 2F.F ....
....|..|B-8 JF.F ....|E-4 2F.F ....|--- .... ....
 F-4|..|F-2 2A.F ....|--- .... ....|--- .... ....
....|..|C-4 AF.F ....|D-4 2F.F ....|F-2 2F.F ....
 F-4|..|F-2 2A.F ....|R-- .... ....|F-1 2F.F ....
 F-3|..|F-1 2A.F ....|--- .... ....|--- .... ....
....|..|--- .... ....|--- .... ....|--- .... ....
....|..|C-4 AF.F ....|A-3 2F.F ....|R-- .... ....
....|..|R-- .... ....|R-- .... ....|F-1 2F.A ....
....|..|B-8 JF.F ....|R-- .... ....|R-- .... ....
....|..|R-- .... ....|R-- .... ....|--- .... ....
....|..|C-4 CF.F ....|A-3 2F.A ....|F-1 2F.F ....
 F-3|..|F-1 2A.F ....|--- .... ....|F-2 2F.A ....
....|..|B-8 JF.A ....|E-4 2F.A ....|--- .... ....
 F-4|..|F-2 2F.A ....|--- .... ....|--- .... ....
....|..|B-8 JF.F ....|A-3 2F.F ....|F-2 2F.7 ....
 F-4|..|F-2 2F.7 ....|R-- .... ....|F-2 2F.7 ....
....|..|B-8 JF.F ....|A-3 2F.F ....|--- .... ....
....|..|--- .... ....|R-- .... ....|--- .... ....
....|..|C-4 AF.F ....|B-3 2F.F ....|B-4 2F.F ....
 G-3|..|G-1 2A.F ....|B-3 2FCF ....|F-1 2F.7 ....
....|..|B-8 JF.7 ....|A-3 2F.7 ....|R-- .... ....
 F-3|..|F-1 2F.7 ....|R-- .... ....|--- .... ....
....|..|C-4 AF.F ....|G-3 2F.F ....|F-2 2F.7 ....
 F-4|..|F-2 2F.7 ....|--- .... ....|F-2 2F.7 ....
....|..|B-8 JF.7 ....|E-4 2F.7 ....|--- .... ....
 F-4|..|F-2 2F.7 ....|--- .... ....|--- .... ....
....|..|C-4 CF.F ....|G-3 2F.F ....|G-1 2F.F ....
 G-3|..|G-1 2A.F ....|R-- .... ....|F-1 2F.7 ....
....|..|B-8 JF.F ....|A-3 2F.F ....|--- .... ....
....|..|--- .... ....|B-4 2F.F ....|B-4 2F.F ....

[Pattern18]
....|..|C-4 AF.F ....|A-3 2FCF ....|B-4 2F.F ....
 F-3|..|F-1 2A.F ....|B-3 2FCA ....|A-4 2F.F ....
....|..|B-8 JF.7 ....|R-- .... ....|R-- .... ....
....|..|R-- .... ....|--- .... ....|--- .... ....
....|..|B-8 JF.F ....|A-3 2F.F ....|F-1 2F.7 ....
 F-3|..|F-1 2F.7 ....|R-- .... ....|--- .... ....
....|..|--- .... ....|A-3 2F.F ....|--- .... ....
....|..|--- .... ....|R-- .... ....|--- .... ....
....|..|B-8 JF.F ....|A-3 2F.F ....|F-1 2F.F ....
 F-3|..|F-1 2A.F ....|R-- .... ....|R-- .... ....
....|..|B-8 JF.F ....|E-4 2F.F ....|--- .... ....
....|..|--- .... ....|R-- .... ....|B-4 2F.A ....
....|..|C-4 CF.F ....|D-4 2F.F ....|F-1 2F.F ....
 F-3|..|F-1 2A.F ....|B-3 2FC7 ....|A-4 2F.A ....
....|..|--- .... ....|--- .... ....|--- .... ....
....|..|--- .... ....|--- .... ....|--- .... ....
....|..|B-8 JF.F ....|A-3 2F.F ....|R-- .... ....
....|..|R-- .... ....|R-- .... ....|--- .... ....
....|..|--- .... ....|R-- .... ....|--- .... ....
....|..|--- .... ....|R-- .... ....|--- .... ....
....|..|C-4 AF.F ....|G-3 2F.7 ....|F-1 2F.F ....
 F-3|..|F-1 2A.F ....|R-- .... ....|--- .... ....
....|..|B-8 JF.7 ....|A-3 2F.7 ....|--- .... ....
....|..|--- .... ....|B-4 2F.7 ....|B-4 2F.7 ....
....|..|C-4 AF.F ....|A-3 2F.F ....|F-2 2F.F ....
 F-4|..|F-2 2A.F ....|R-- .... ....|F-2 2F.F ....
 F-4|..|F-2 2A.F ....|--- .... ....|--- .... ....
....|..|--- .... ....|--- .... ....|--- .... ....
....|..|C-4 CF.F ....|A-3 2F.F ....|F-2 2F.F ....
 F-4|..|F-2 2A.F ....|R-- .... ....|F-1 2F.F ....
....|..|B-8 JF.F ....|A-3 2F.F ....|--- .... ....
 F-3|..|F-1 2A.F ....|R-- .... ....|--- .... ....
....|..|B-8 JF.F ....|A-3 2F.F ....|F-1 2F.7 ....
 F-3|..|F-1 2F.7 ....|R-- .... ....|R-- .... ....
....|..|B-8 JF.F ....|E-4 2F.F ....|--- .... ....
....|..|--- .... ....|--- .... ....|--- .... ....
....|..|C-4 AF.F ....|D-4 2F.F ....|F-1 2F.F ....
 F-3|..|F-1 2A.F ....|R-- .... ....|F-2 2F.A ....
 F-4|..|F-2 2F.A ....|--- .... ....|--- .... ....
....|..|--- .... ....|--- .... ....|--- .... ....
....|..|C-4 AF.F ....|A-3 2F.F ....|R-- .... ....
....|..|R-- .... ....|R-- .... ....|R-- .... ....
....|..|B-8 JF.A ....|R-- .... ....|--- .... ....
 F-3|..|F-1 2F.A ....|R-- .... ....|--- .... ....
....|..|C-4 CF.F ....|A-3 2F.A ....|F-1 2F.F ....
 F-3|..|F-1 2A.F ....|--- .... ....|R-- .... ....
....|..|B-8 JF.A ....|E-4 2F.A ....|--- .... ....
....|..|--- .... ....|--- .... ....|--- .... ....
....|..|B-8 JF.F ....|A-3 2F.F ....|F-2 2F.7 ....
 F-4|..|F-2 2F.7 ....|R-- .... ....|F-2 2F.7 ....
....|..|B-8 JF.F ....|A-3 2F.F ....|R-- .... ....
....|..|R-- .... ....|R-- .... ....|--- .... ....
....|..|C-4 AF.F ....|B-3 2F.F ....|B-4 2F.F ....
 G-3|..|G-1 2A.F ....|B-3 2FCF ....|B-4 2F.F ....
....|..|B-8 JF.7 ....|A-3 2F.7 ....|--- .... ....
 F-3|..|F-1 2F.7 ....|R-- .... ....|--- .... ....
....|..|C-4 AF.F ....|G-3 2F.F ....|F-1 2F.A ....
....|..|R-- .... ....|--- .... ....|R-- .... ....
....|..|B-8 JF.F ....|E-4 2F.7 ....|--- .... ....
....|..|R-- .... ....|--- .... ....|R-- .... ....
....|..|C-4 CF.F ....|G-3 2F.F ....|G-1 2F.F ....
 G-3|..|G-1 2A.F ....|R-- .... ....|--- .... ....
....|..|B-8 JF.A ....|A-3 2F.F ....|R-- .... ....
....|..|R-- .... ....|R-- .... ....|--- .... ....

[Pattern19]
....|..|C-4 AF.F ....|A-3 2FDF ....|B-4 2F.F ....
 F-3|..|F-1 2A.F ....|A-3 2FCF ....|A-4 2F.F ....
....|..|--- .... ....|--- .... ....|--- .... ....
....|..|--- .... ....|R-- .... ....|--- .... ....
....|..|B-8 JF.F ....|E-4 2F.F ....|G#4 2F.F ....
 E-3|..|E-1 2A.F ....|G#3 2FEF ....|G#3 2FCF ....
....|..|B-8 JF.A ....|G#3 2FCF ....|G#4 2F.F ....
....|..|R-- .... ....|G#4 2F.F ....|R-- .... ....
....|..|B-8 JF.F ....|C-4 2F.F ....|G-1 2F.A ....
....|..|R-- .... ....|R-- .... ....|R-- .... ....
....|..|B-8 JF.7 ....|A-3 2F.7 ....|R-- .... ....
....|..|R-- .... ....|R-- .... ....|--- .... ....
....|..|C-4 CF.F ....|D-4 2F.F ....|B-4 2F.7 ....
 G-3|..|G-1 2F.7 ....|B-3 2FC7 ....|B-4 2F.7 ....
....|..|--- .... ....|--- .... ....|--- .... ....
....|..|--- .... ....|R-- .... ....|--- .... ....
....|..|B-8 JF.F ....|D-4 2F.F ....|G#4 2F.A ....
 E-3|..|E-1 2F.A ....|G#3 2FEA ....|G#3 2FCA ....
....|..|B-8 JF.F ....|R-- .... ....|G#4 2F.A ....
....|..|R-- .... ....|R-- .... ....|R-- .... ....
....|..|C-4 AF.F ....|G-3 2F.7 ....|E-1 2F.F ....
 E-3|..|E-1 2A.F ....|R-- .... ....|R-- .... ....
....|..|--- .... ....|A-3 2F.7 ....|--- .... ....
....|..|--- .... ....|R-- .... ....|--- .... ....
....|..|C-4 AF.F ....|A-3 2FD7 ....|E-1 2F.F ....
 E-3|..|E-1 2A.F ....|A-3 2FC7 ....|A-4 2F.7 ....
....|..|--- .... ....|--- .... ....|--- .... ....
....|..|R-- .... ....|R-- .... ....|R-- .... ....
....|..|C-4 CF.F ....|E-4 2F.F ....|G#4 2F.7 ....
 E-3|..|E-1 2F.7 ....|G#3 2FE7 ....|G#3 2FC7 ....
....|..|B-8 JF.A ....|G#3 2FC7 ....|G#4 2F.7 ....
....|..|--- .... ....|G#4 2F.7 ....|R-- .... ....
....|..|B-8 JF.F ....|C-4 2F.F ....|E-1 2F.A ....
....|..|R-- .... ....|R-- .... ....|R-- .... ....
....|..|B-8 JF.F ....|R-- .... ....|--- .... ....
....|..|--- .... ....|R-- .... ....|--- .... ....
....|..|C-4 AF.F ....|D-4 2F.F ....|E-1 2F.A ....
 E-3|..|E-1 2F.A ....|--- .... ....|--- .... ....
....|..|B-8 JF.F ....|--- .... ....|--- .... ....
....|..|R-- .... ....|R-- .... ....|R-- .... ....
....|..|C-4 AF.F ....|D-4 2F.F ....|--- .... ....
....|..|--- .... ....|--- .... ....|--- .... ....
....|..|B-8 JF.7 ....|R-- .... ....|--- .... ....
....|..|--- .... ....|R-- .... ....|--- .... ....
....|..|C-4 AF.F ....|C-4 2F.A ....|E-1 2F.F ....
 E-3|..|E-1 2A.F ....|--- .... ....|--- .... ....
....|..|B-8 JF.A ....|R-- .... ....|--- .... ....
....|..|--- .... ....|--- .... ....|--- .... ....
....|..|B-8 JF.F ....|C-4 2F.F ....|E-1 2F.7 ....
 E-3|..|E-1 2F.7 ....|--- .... ....|--- .... ....
....|..|B-8 JF.F ....|R-- .... ....|--- .... ....
....|..|R-- .... ....|R-- .... ....|R-- .... ....
....|..|C-4 AF.F ....|E-4 2F.F ....|--- .... ....
....|..|--- .... ....|--- .... ....|--- .... ....
....|..|--- .... ....|R-- .... ....|--- .... ....
....|..|--- .... ....|R-- .... ....|--- .... ....
....|..|C-4 AF.F ....|C-4 2F.7 ....|E-1 2F.A ....
 E-3|..|E-1 2F.A ....|--- .... ....|--- .... ....
....|..|B-8 JF.7 ....|R-- .... ....|--- .... ....
....|..|--- .... ....|--- .... ....|--- .... ....
....|..|C-4 CF.F ....|D-4 2F.F ....|R-- .... ....
....|..|R-- .... ....|--- .... ....|--- .... ....
....|..|B-8 JF.7 ....|C-4 2F.F ....|--- .... ....
....|..|--- .... ....|R-- .... ....|--- .... ....

[Pattern20]
....|..|C-4 AF.F ....|A-3 2F.F ....|A-1 2F.F ....
 A-3|..|A-1 2A.F ....|--- .... ....|--- .... ....
....|..|--- .... ....|R-- .... ....|--- .... ....
....|..|R-- .... ....|R-- .... ....|R-- .... ....
....|..|B-8 JF.F ....|--- .... ....|E-1 2F.7 ....
 E-3|..|E-1 2F.7 ....|--- .... ....|--- .... ....
....|..|--- .... ....|--- .... ....|--- .... ....
....|..|--- .... ....|--- .... ....|--- .... ....
....|..|B-8 JF.F ....|C-4 2F.7 ....|A-1 2F.F ....
 A-3|..|A-1 2A.F ....|--- .... ....|R-- .... ....
 A-3|..|A-1 2A.F ....|R-- .... ....|A-1 2F.F ....
....|..|--- .... ....|--- .... ....|--- .... ....
....|..|C-4 CF.F ....|E-4 2F.7 ....|A-1 2F.F ....
 A-3|..|A-1 2A.F ....|--- .... ....|R-- .... ....
 A-3|..|A-1 2A.F ....|R-- .... ....|A-1 2F.F ....
....|..|R-- .... ....|R-- .... ....|R-- .... ....
....|..|B-8 JF.F ....|--- .... ....|G-1 2F.F ....
 G-3|..|G-1 2A.F ....|--- .... ....|--- .... ....
....|..|B-8 JF.F ....|--- .... ....|A-1 2F.F ....
 A-3|..|A-1 2A.F ....|--- .... ....|--- .... ....
....|..|C-4 AF.F ....|D-4 2F.7 ....|B-1 2F.F ....
 B-3|..|B-1 2A.F ....|--- .... ....|R-- .... ....
 A-3|..|A-1 2F.A ....|C-4 2F.7 ....|A-1 2F.A ....
....|..|--- .... ....|--- .... ....|--- .... ....
....|..|C-4 AF.F ....|A-3 2F.7 ....|B-1 2F.F ....
 B-3|..|B-1 2A.F ....|--- .... ....|R-- .... ....
....|..|R-- .... ....|R-- .... ....|R-- .... ....
....|..|R-- .... ....|--- .... ....|R-- .... ....
....|..|C-4 CF.F ....|--- .... ....|G-1 2F.A ....
 G-3|..|G-1 2F.A ....|--- .... ....|--- .... ....
....|..|B-8 JF.A ....|--- .... ....|A-1 2F.A ....
 A-3|..|A-1 2F.A ....|--- .... ....|--- .... ....
....|..|B-8 JF.F ....|--- .... ....|A-1 2F.F ....
 A-3|..|A-1 2A.F ....|--- .... ....|R-- .... ....
....|..|B-8 JF.F ....|--- .... ....|B-1 2F.F ....
 B-3|..|B-1 2A.F ....|--- .... ....|--- .... ....
....|..|C-4 AF.F ....|--- .... ....|C-2 2F.F ....
 C-4|..|C-2 2A.F ....|--- .... ....|R-- .... ....
 A-3|..|A-1 2F.7 ....|--- .... ....|A-1 2F.7 ....
....|..|R-- .... ....|--- .... ....|R-- .... ....
....|..|C-4 AF.F ....|--- .... ....|C-2 2F.F ....
 C-4|..|C-2 2A.F ....|--- .... ....|--- .... ....
....|..|B-8 JF.7 ....|--- .... ....|A-1 2F.7 ....
 A-3|..|A-1 2F.7 ....|--- .... ....|--- .... ....
....|..|C-4 CF.F ....|--- .... ....|B-1 2F.7 ....
 B-3|..|B-1 2F.7 ....|--- .... ....|--- .... ....
....|..|B-8 JF.A ....|--- .... ....|B-1 2F.A ....
 B-3|..|B-1 2F.A ....|--- .... ....|--- .... ....
....|..|B-8 JF.F ....|--- .... ....|B-1 2F.F ....
 B-3|..|B-1 2A.F ....|--- .... ....|--- .... ....
....|..|B-8 JF.F ....|--- .... ....|C-2 2F.F ....
 C-4|..|C-2 2A.F ....|--- .... ....|--- .... ....
....|..|C-4 AF.F ....|--- .... ....|B-1 2F.F ....
 B-3|..|B-1 2A.F ....|--- .... ....|--- .... ....
....|..|B-8 JF.F ....|--- .... ....|B-1 2F.F ....
 B-3|..|B-1 2A.F ....|--- .... ....|R-- .... ....
....|..|C-4 AF.F ....|--- .... ....|G-1 2F.F ....
 G-3|..|G-1 2A.F ....|--- .... ....|--- .... ....
....|..|B-8 JF.7 ....|--- .... ....|B-1 2F.7 ....
 B-3|..|B-1 2F.7 ....|--- .... ....|--- .... ....
....|..|C-4 CF.F ....|--- .... ....|C-2 2F.7 ....
 C-4|..|C-2 2F.7 ....|--- .... ....|--- .... ....
....|..|R-- .... ....|--- .... ....|R-- .... ....
 C-4|..|C-2 2F.A ....|--- .... ....|--- .... ....

[Pattern21]
....|..|C-4 AF.F ....|--- .... ....|A-1 2F.F ....
 A-3|..|A-1 2A.F ....|--- .... ....|--- .... ....
....|..|R-- .... ....|--- .... ....|R-- .... ....
 B-3|..|B-1 2F.A ....|--- .... ....|R-- .... ....
....|..|B-8 JF.F ....|--- .... ....|G-1 2F.A ....
 G-3|..|G-1 2F.A ....|--- .... ....|--- .... ....
....|..|--- .... ....|--- .... ....|--- .... ....
....|..|--- .... ....|--- .... ....|--- .... ....
....|..|B-8 JF.F ....|--- .... ....|A-1 2F.F ....
 A-3|..|A-1 2A.F ....|--- .... ....|R-- .... ....
 A-3|..|A-1 2A.F ....|--- .... ....|A-1 2F.F ....
 C-4|..|C-2 2F.7 ....|--- .... ....|--- .... ....
....|..|C-4 CF.F ....|--- .... ....|A-1 2F.F ....
 A-3|..|A-1 2A.F ....|--- .... ....|R-- .... ....
....|..|B-8 JF.F ....|--- .... ....|A-1 2F.F ....
 A-3|..|A-1 2A.F ....|--- .... ....|R-- .... ....
....|..|B-8 JF.F ....|--- .... ....|G-1 2F.F ....
 G-3|..|G-1 2A.F ....|--- .... ....|--- .... ....
....|..|B-8 JF.F ....|--- .... ....|A-1 2F.F ....
 A-3|..|A-1 2A.F ....|--- .... ....|--- .... ....
....|..|C-4 AF.F ....|--- .... ....|B-1 2F.F ....
 B-3|..|B-1 2A.F ....|--- .... ....|R-- .... ....
....|..|R-- .... ....|--- .... ....|R-- .... ....
....|..|--- .... ....|--- .... ....|--- .... ....
....|..|C-4 AF.F ....|--- .... ....|B-1 2F.F ....
 B-3|..|B-1 2A.F ....|--- .... ....|R-- .... ....
....|..|R-- .... ....|--- .... ....|R-- .... ....
 A-3|..|A-1 2F.A ....|--- .... ....|--- .... ....
....|..|C-4 CF.F ....|--- .... ....|G-1 2F.A ....
 G-3|..|G-1 2F.A ....|--- .... ....|--- .... ....
....|..|B-8 JF.A ....|--- .... ....|A-1 2F.A ....
 A-3|..|A-1 2F.A ....|--- .... ....|--- .... ....
....|..|B-8 JF.F ....|--- .... ....|A-1 2F.F ....
 A-3|..|A-1 2A.F ....|--- .... ....|R-- .... ....
....|..|B-8 JF.F ....|--- .... ....|B-1 2F.F ....
 B-3|..|B-1 2A.F ....|--- .... ....|--- .... ....
....|..|C-4 AF.F ....|--- .... ....|C-2 2F.F ....
 C-4|..|C-2 2A.F ....|--- .... ....|R-- .... ....
....|..|B-8 JF.7 ....|--- .... ....|A-1 2F.7 ....
 A-3|..|A-1 2F.7 ....|--- .... ....|--- .... ....
....|..|C-4 AF.F ....|--- .... ....|C-2 2F.F ....
 C-4|..|C-2 2A.F ....|--- .... ....|--- .... ....
....|..|C-4 AF.F ....|--- .... ....|A-1 2F.7 ....
 A-3|..|A-1 2F.7 ....|--- .... ....|--- .... ....
....|..|C-4 CF.F ....|--- .... ....|B-1 2F.7 ....
 B-3|..|B-1 2F.7 ....|--- .... ....|--- .... ....
....|..|C-4 AF.F ....|--- .... ....|B-1 2F.A ....
 B-3|..|B-1 2F.A ....|--- .... ....|--- .... ....
....|..|C-4 AF.F ....|--- .... ....|B-1 2F.F ....
 B-3|..|B-1 2A.F ....|--- .... ....|--- .... ....
....|..|B-8 JF.F ....|--- .... ....|C-2 2F.F ....
 C-4|..|C-2 2A.F ....|--- .... ....|--- .... ....
....|..|C-4 AF.F ....|--- .... ....|B-1 2F.F ....
 B-3|..|B-1 2A.F ....|--- .... ....|--- .... ....
 B-3|..|B-1 2A.F ....|--- .... ....|B-1 2F.F ....
....|..|R-- .... ....|--- .... ....|R-- .... ....
....|..|C-4 AF.F ....|--- .... ....|G-1 2F.F ....
 G-3|..|G-1 2A.F ....|--- .... ....|--- .... ....
....|..|B-8 JF.7 ....|--- .... ....|B-1 2F.7 ....
 B-3|..|B-1 2F.7 ....|--- .... ....|--- .... ....
....|..|C-4 AF.F ....|--- .... ....|C-2 2F.7 ....
 C-4|..|C-2 2F.7 ....|--- .... ....|--- .... ....
....|..|B-8 JF.A ....|--- .... ....|C-2 2F.A ....
....|..|R-- .... ....|--- .... ....|R-- .... ....

[Pattern22]
....|..|C-4 AF.F ....|--- .... ....|A-1 2F.F ....
 A-3|..|A-1 2A.F ....|--- .... ....|--- .... ....
....|..|C-4 AF.7 ....|--- .... ....|R-- .... ....
....|..|R-- .... ....|--- .... ....|R-- .... ....
....|..|B-8 JF.F ....|--- .... ....|G-1 2F.A ....
 G-3|..|G-1 2F.A ....|--- .... ....|--- .... ....
....|..|C-4 AF.7 ....|--- .... ....|--- .... ....
....|..|--- .... ....|--- .... ....|--- .... ....
....|..|B-8 JF.F ....|A-3 2F.F ....|A-1 2F.F ....
 A-3|..|A-1 2A.F ....|R-- .... ....|R-- .... ....
 A-3|..|A-1 2A.F ....|A-3 2F.F ....|A-1 2F.F ....
 C-4|..|C-2 2F.7 ....|R-- .... ....|R-- .... ....
....|..|C-4 CF.F ....|A-3 2F.F ....|A-1 2F.F ....
 A-3|..|A-1 2A.F ....|R-- .... ....|R-- .... ....
....|..|B-8 JF.F ....|A-3 2F.F ....|A-1 2F.F ....
 A-3|..|A-1 2A.F ....|R-- .... ....|R-- .... ....
....|..|B-8 JF.F ....|G-3 2F.F ....|G-1 2F.F ....
 G-3|..|G-1 2A.F ....|R-- .... ....|--- .... ....
....|..|B-8 JF.F ....|G-3 2F.F ....|A-1 2F.F ....
 A-3|..|A-1 2A.F ....|R-- .... ....|--- .... ....
....|..|C-4 AF.F ....|B-3 2F.F ....|B-1 2F.F ....
 B-3|..|B-1 2A.F ....|R-- .... ....|R-- .... ....
 A-3|..|A-1 2F.A ....|A-3 2F.A ....|A-1 2F.A ....
....|..|R-- .... ....|R-- .... ....|R-- .... ....
....|..|C-4 AF.F ....|B-3 2F.F ....|B-1 2F.F ....
 B-3|..|B-1 2A.F ....|R-- .... ....|R-- .... ....
....|..|R-- .... ....|A-3 2F.A ....|R-- .... ....
 A-3|..|A-1 2F.A ....|R-- .... ....|R-- .... ....
....|..|C-4 CF.F ....|G-3 2F.A ....|G-1 2F.A ....
 G-3|..|G-1 2F.A ....|R-- .... ....|--- .... ....
....|..|B-8 JF.A ....|G-3 2F.A ....|A-1 2F.A ....
 A-3|..|A-1 2F.A ....|R-- .... ....|--- .... ....
....|..|B-8 JF.F ....|A-3 2F.F ....|A-1 2F.F ....
 A-3|..|A-1 2A.F ....|R-- .... ....|R-- .... ....
....|..|B-8 JF.F ....|B-3 2F.F ....|B-1 2F.F ....
 B-3|..|B-1 2A.F ....|R-- .... ....|--- .... ....
....|..|C-4 AF.F ....|C-4 2F.F ....|C-2 2F.F ....
 C-4|..|C-2 2A.F ....|R-- .... ....|R-- .... ....
....|..|B-8 JF.7 ....|A-3 2F.7 ....|A-1 2F.7 ....
 A-3|..|A-1 2F.7 ....|R-- .... ....|R-- .... ....
....|..|C-4 AF.F ....|C-4 2F.F ....|C-2 2F.F ....
 C-4|..|C-2 2A.F ....|R-- .... ....|--- .... ....
....|..|B-8 JF.7 ....|G-3 2F.7 ....|A-1 2F.7 ....
 A-3|..|A-1 2F.7 ....|R-- .... ....|--- .... ....
....|..|C-4 CF.F ....|B-3 2F.7 ....|B-1 2F.7 ....
 B-3|..|B-1 2F.7 ....|--- .... ....|--- .... ....
....|..|B-8 JF.A ....|B-3 2F.A ....|B-1 2F.A ....
 B-3|..|B-1 2F.A ....|R-- .... ....|--- .... ....
....|..|B-8 JF.F ....|B-3 2F.F ....|B-1 2F.F ....
 B-3|..|B-1 2A.F ....|R-- .... ....|--- .... ....
....|..|B-8 JF.F ....|C-4 2F.F ....|C-2 2F.F ....
 C-4|..|C-2 2A.F ....|--- .... ....|--- .... ....
....|..|C-4 AF.F ....|B-3 2F.F ....|B-1 2F.F ....
 B-3|..|B-1 2A.F ....|--- .... ....|--- .... ....
....|..|B-8 JF.F ....|R-- .... ....|B-1 2F.F ....
 B-3|..|B-1 2A.F ....|--- .... ....|R-- .... ....
....|..|C-4 AF.F ....|G-3 2F.F ....|G-1 2F.F ....
 G-3|..|G-1 2A.F ....|--- .... ....|--- .... ....
....|..|B-8 JF.7 ....|B-3 2F.7 ....|B-1 2F.7 ....
 B-3|..|B-1 2F.7 ....|R-- .... ....|--- .... ....
....|..|C-4 CF.F ....|C-4 2F.7 ....|C-2 2F.7 ....
 C-4|..|C-2 2F.7 ....|--- .... ....|--- .... ....
....|..|R-- .... ....|R-- .... ....|R-- .... ....
 C-4|..|C-2 2F.A ....|--- .... ....|--- .... ....

[Pattern23]
....|..|C-4 AF.F ....|C-4 2F.7 ....|A-1 2F.F ....
 A-3|..|A-1 2A.F ....|--- .... ....|--- .... ....
....|..|R-- .... ....|R-- .... ....|R-- .... ....
 B-3|..|B-1 2F.A ....|--- .... ....|R-- .... ....
....|..|B-8 JF.F ....|G-3 2F.A ....|G-1 2F.A ....
 G-3|..|G-1 2F.A ....|--- .... ....|--- .... ....
....|..|--- .... ....|--- .... ....|--- .... ....
....|..|--- .... ....|R-- .... ....|--- .... ....
....|..|B-8 JF.F ....|A-3 2F.F ....|A-1 2F.F ....
 A-3|..|A-1 2A.F ....|R-- .... ....|R-- .... ....
 A-3|..|A-1 2A.F ....|A-3 2F.F ....|A-1 2F.F ....
 C-4|..|C-2 2F.7 ....|R-- .... ....|--- .... ....
....|..|C-4 CF.F ....|A-3 2F.F ....|A-1 2F.F ....
 A-3|..|A-1 2A.F ....|R-- .... ....|R-- .... ....
....|..|B-8 JF.F ....|A-3 2F.F ....|A-1 2F.F ....
 A-3|..|A-1 2A.F ....|R-- .... ....|R-- .... ....
....|..|B-8 JF.F ....|G-3 2F.F ....|G-1 2F.F ....
 G-3|..|G-1 2A.F ....|R-- .... ....|--- .... ....
....|..|B-8 JF.F ....|A-3 2F.F ....|A-1 2F.F ....
 A-3|..|A-1 2A.F ....|R-- .... ....|--- .... ....
....|..|C-4 AF.F ....|B-3 2F.F ....|B-1 2F.F ....
 B-3|..|B-1 2A.F ....|R-- .... ....|R-- .... ....
....|..|R-- .... ....|R-- .... ....|R-- .... ....
....|..|--- .... ....|R-- .... ....|--- .... ....
....|..|C-4 AF.F ....|B-3 2F.F ....|B-1 2F.F ....
 B-3|..|B-1 2A.F ....|R-- .... ....|R-- .... ....
....|..|R-- .... ....|R-- .... ....|R-- .... ....
 A-3|..|A-1 2F.A ....|R-- .... ....|--- .... ....
....|..|C-4 CF.F ....|G-3 2F.A ....|G-1 2F.A ....
 G-3|..|G-1 2F.A ....|R-- .... ....|--- .... ....
....|..|B-8 JF.A ....|A-3 2F.A ....|A-1 2F.A ....
 A-3|..|A-1 2F.A ....|R-- .... ....|--- .... ....
....|..|B-8 JF.F ....|A-3 2F.F ....|A-1 2F.F ....
 A-3|..|A-1 2A.F ....|R-- .... ....|R-- .... ....
....|..|B-8 JF.F ....|B-3 2F.F ....|B-1 2F.F ....
 B-3|..|B-1 2A.F ....|R-- .... ....|--- .... ....
....|..|C-4 AF.F ....|C-4 2F.F ....|C-2 2F.F ....
 C-4|..|C-2 2A.F ....|R-- .... ....|R-- .... ....
....|..|B-8 JF.7 ....|A-3 2F.7 ....|A-1 2F.7 ....
 A-3|..|A-1 2F.7 ....|R-- .... ....|--- .... ....
....|..|C-4 AF.F ....|C-4 2F.F ....|C-2 2F.F ....
 C-4|..|C-2 2A.F ....|R-- .... ....|--- .... ....
....|..|B-8 JF.7 ....|A-3 2F.7 ....|A-1 2F.7 ....
 A-3|..|A-1 2F.7 ....|R-- .... ....|--- .... ....
....|..|C-4 CF.F ....|B-3 2F.7 ....|B-1 2F.7 ....
 B-3|..|B-1 2F.7 ....|--- .... ....|--- .... ....
....|..|B-8 JF.A ....|C-4 2F.F ....|B-1 2F.A ....
 B-3|..|B-1 2F.A ....|R-- .... ....|--- .... ....
....|..|B-8 JF.F ....|B-3 2F.F ....|B-1 2F.F ....
 B-3|..|B-1 2A.F ....|--- .... ....|--- .... ....
....|..|B-8 JF.F ....|C-4 2F.F ....|C-2 2F.F ....
 C-4|..|C-2 2A.F ....|--- .... ....|--- .... ....
....|..|C-4 AF.F ....|D-4 2F.F ....|B-1 2F.F ....
 B-3|..|B-1 2A.F ....|R-- .... ....|--- .... ....
....|..|B-8 JF.F ....|--- .... ....|B-1 2F.F ....
 B-3|..|B-1 2A.F ....|R-- .... ....|R-- .... ....
....|..|C-4 AF.F ....|G-3 2F.F ....|G-1 2F.F ....
 G-3|..|G-1 2A.F ....|--- .... ....|--- .... ....
....|..|B-8 JF.7 ....|B-3 2F.7 ....|B-1 2F.7 ....
 B-3|..|B-1 2F.7 ....|R-- .... ....|--- .... ....
....|..|C-4 CF.F ....|C-4 2F.7 ....|C-2 2F.7 ....
 C-4|..|C-2 2F.7 ....|--- .... ....|--- .... ....
....|..|B-8 JF.A ....|R-- .... ....|C-2 2F.A ....
....|..|R-- .... ....|--- .... ....|R-- .... ....

[Pattern24]
....|..|C-4 AF.F ....|C-4 2F1F ....|C-4 2F1F ....
 F-3|..|F-1 2A.F ....|R-- .... ....|--- .... ....
....|..|R-- .... ....|--- .... ....|R-- .... ....
....|..|R-- .... ....|R-- .... ....|R-- .... ....
....|..|B-8 JF.F ....|A-3 2F.F ....|G-1 2F.A ....
 G-3|..|G-1 2F.A ....|R-- .... ....|--- .... ....
....|..|--- .... ....|A-3 2F.F ....|--- .... ....
....|..|--- .... ....|R-- .... ....|--- .... ....
....|..|B-8 JF.F ....|A-3 2F.F ....|F-1 2F.F ....
 F-3|..|F-1 2A.F ....|R-- .... ....|--- .... ....
....|..|B-8 JF.7 ....|E-4 2F.F ....|C-2 2F.7 ....
 C-4|..|C-2 2F.7 ....|--- .... ....|R-- .... ....
....|..|C-4 CF.F ....|E-4 2F.F ....|F-1 2F.F ....
 F-3|..|F-1 2A.F ....|D-4 2F.F ....|--- .... ....
....|..|B-8 JF.F ....|--- .... ....|B-1 2F.7 ....
 B-3|..|B-1 2F.7 ....|R-- .... ....|R-- .... ....
....|..|B-8 JF.F ....|A-3 2F.F ....|G-1 2F.7 ....
 G-3|..|G-1 2F.7 ....|R-- .... ....|--- .... ....
....|..|B-8 JF.F ....|R-- .... ....|--- .... ....
....|..|--- .... ....|R-- .... ....|--- .... ....
....|..|C-4 AF.F ....|A-3 2F.A ....|F-1 2F.F ....
 F-3|..|F-1 2A.F ....|R-- .... ....|--- .... ....
....|..|--- .... ....|E-4 2F.A ....|--- .... ....
....|..|R-- .... ....|--- .... ....|R-- .... ....
....|..|C-4 AF.F ....|A-3 2F.F ....|F-2 2F.F ....
 F-4|..|F-2 2A.F ....|D-4 2F.A ....|F-2 2F.F ....
 F-4|..|F-2 2A.F ....|R-- .... ....|--- .... ....
....|..|R-- .... ....|--- .... ....|R-- .... ....
....|..|C-4 CF.F ....|A-3 2F.F ....|F-2 2F.F ....
 F-4|..|F-2 2A.F ....|R-- .... ....|F-1 2F.F ....
....|..|B-8 JF.F ....|A-3 2F.F ....|--- .... ....
 F-3|..|F-1 2A.F ....|R-- .... ....|--- .... ....
....|..|B-8 JF.F ....|A-3 2F.F ....|F-2 2F.F ....
 F-4|..|F-2 2A.F ....|R-- .... ....|F-2 2F.F ....
....|..|B-8 JF.F ....|E-4 2F.F ....|--- .... ....
 F-4|..|F-2 2A.F ....|--- .... ....|--- .... ....
....|..|C-4 AF.F ....|E-4 2F.F ....|F-2 2F.F ....
 F-4|..|F-2 2A.F ....|D-4 2F.F ....|F-1 2F.F ....
 F-3|..|F-1 2A.F ....|R-- .... ....|--- .... ....
....|..|--- .... ....|--- .... ....|--- .... ....
....|..|C-4 AF.F ....|A-3 2F.F ....|R-- .... ....
....|..|R-- .... ....|R-- .... ....|R-- .... ....
....|..|B-8 JF.F ....|A-3 2F.A ....|--- .... ....
 F-3|..|F-1 2F.A ....|R-- .... ....|--- .... ....
....|..|C-4 CF.F ....|A-3 2F.A ....|F-1 2F.F ....
 F-3|..|F-1 2A.F ....|--- .... ....|F-2 2F.A ....
....|..|B-8 JF.A ....|E-4 2F.A ....|--- .... ....
 F-4|..|F-2 2F.A ....|--- .... ....|--- .... ....
....|..|B-8 JF.F ....|A-3 2F.F ....|F-2 2F.7 ....
 F-4|..|F-2 2F.7 ....|R-- .... ....|F-2 2F.7 ....
....|..|B-8 JF.F ....|A-3 2F.F ....|--- .... ....
....|..|--- .... ....|R-- .... ....|R-- .... ....
....|..|C-4 AF.F ....|B-3 2F.F ....|D-3 2F1F ....
 G-3|..|G-1 2A.F ....|D-3 2F1F ....|F-1 2F.7 ....
....|..|B-8 JF.7 ....|A-3 2F.7 ....|--- .... ....
 F-3|..|F-1 2F.7 ....|R-- .... ....|--- .... ....
....|..|C-4 AF.F ....|G-3 2F.F ....|F-2 2F.7 ....
 F-4|..|F-2 2F.7 ....|R-- .... ....|F-2 2F.7 ....
....|..|B-8 JF.7 ....|E-4 2F.7 ....|--- .... ....
 F-4|..|F-2 2F.7 ....|--- .... ....|--- .... ....
....|..|C-4 CF.F ....|G-3 2F.F ....|G-1 2F.F ....
 G-3|..|G-1 2A.F ....|D-4 2F.7 ....|F-1 2F.7 ....
....|..|B-8 JF.F ....|A-3 2F.F ....|--- .... ....
....|..|--- .... ....|G-3 2F2F ....|G-3 2F2F ....

[Pattern25]
....|..|C-4 AF.F ....|C-4 2F1F ....|C-4 2F1F ....
 G-3|..|G-1 2A.F ....|D-3 2F1A ....|F-1 2F.F ....
 F-3|..|F-1 2A.F ....|--- .... ....|--- .... ....
....|..|--- .... ....|R-- .... ....|--- .... ....
....|..|B-8 JF.F ....|A-3 2F.F ....|F-1 2F.7 ....
 F-3|..|F-1 2F.7 ....|R-- .... ....|--- .... ....
....|..|--- .... ....|A-3 2F.F ....|--- .... ....
....|..|--- .... ....|R-- .... ....|--- .... ....
....|..|B-8 JF.F ....|A-3 2F.F ....|F-1 2F.F ....
 F-3|..|F-1 2A.F ....|R-- .... ....|R-- .... ....
....|..|B-8 JF.F ....|E-4 2F.F ....|--- .... ....
....|..|--- .... ....|R-- .... ....|R-- .... ....
....|..|C-4 CF.F ....|E-4 2F.F ....|F-1 2F.F ....
 F-3|..|F-1 2A.F ....|D-4 2F.F ....|F-1 2F.A ....
 F-3|..|F-1 2F.A ....|--- .... ....|--- .... ....
....|..|--- .... ....|--- .... ....|--- .... ....
....|..|B-8 JF.F ....|A-3 2F.F ....|R-- .... ....
....|..|R-- .... ....|R-- .... ....|--- .... ....
....|..|B-8 JF.F ....|A-3 2F.A ....|--- .... ....
....|..|--- .... ....|R-- .... ....|--- .... ....
....|..|C-4 AF.F ....|G-3 2F.7 ....|F-1 2F.F ....
 F-3|..|F-1 2A.F ....|--- .... ....|--- .... ....
....|..|B-8 JF.7 ....|A-3 2F.7 ....|--- .... ....
....|..|--- .... ....|G-3 2F27 ....|G-3 2F27 ....
....|..|C-4 AF.F ....|A-3 2F.F ....|F-1 2F.F ....
 F-3|..|F-1 2A.F ....|D-4 2F.A ....|F-1 2F.7 ....
 F-3|..|F-1 2F.7 ....|R-- .... ....|--- .... ....
....|..|--- .... ....|--- .... ....|--- .... ....
....|..|C-4 CF.F ....|A-3 2F.F ....|F-1 2F.F ....
 F-3|..|F-1 2A.F ....|R-- .... ....|--- .... ....
....|..|B-8 JF.A ....|A-3 2F.F ....|--- .... ....
....|..|--- .... ....|R-- .... ....|--- .... ....
....|..|B-8 JF.F ....|A-3 2F.F ....|F-1 2F.F ....
 F-3|..|F-1 2A.F ....|--- .... ....|--- .... ....
....|..|B-8 JF.F ....|E-4 2F.F ....|--- .... ....
....|..|--- .... ....|--- .... ....|--- .... ....
....|..|C-4 AF.F ....|E-4 2F.F ....|F-1 2F.F ....
 F-3|..|F-1 2A.F ....|D-4 2F.F ....|--- .... ....
....|..|--- .... ....|R-- .... ....|--- .... ....
....|..|--- .... ....|--- .... ....|--- .... ....
....|..|C-4 AF.F ....|A-3 2F.F ....|R-- .... ....
....|..|R-- .... ....|R-- .... ....|--- .... ....
....|..|B-8 JF.7 ....|R-- .... ....|--- .... ....
....|..|--- .... ....|R-- .... ....|--- .... ....
....|..|C-4 CF.F ....|A-3 2F.A ....|F-1 2F.F ....
 F-3|..|F-1 2A.F ....|--- .... ....|--- .... ....
....|..|B-8 JF.A ....|E-4 2F.A ....|--- .... ....
....|..|--- .... ....|--- .... ....|--- .... ....
....|..|B-8 JF.F ....|A-3 2F.F ....|F-1 2F.7 ....
 F-3|..|F-1 2F.7 ....|R-- .... ....|R-- .... ....
....|..|B-8 JF.F ....|A-3 2F.F ....|F-3 2F.F ....
....|..|--- .... ....|F-3 2F.F ....|R-- .... ....
....|..|C-4 AF.F ....|B-3 2F.F ....|G-4 2F.F ....
 G-3|..|G-1 2A.F ....|D-3 2F1F ....|--- .... ....
....|..|--- .... ....|A-3 2F.7 ....|--- .... ....
....|..|--- .... ....|R-- .... ....|--- .... ....
....|..|C-4 AF.F ....|G-3 2F.F ....|F-1 2F.7 ....
 F-3|..|F-1 2F.7 ....|R-- .... ....|--- .... ....
....|..|B-8 JF.F ....|E-4 2F.7 ....|--- .... ....
....|..|--- .... ....|--- .... ....|--- .... ....
....|..|C-4 CF.F ....|G-3 2F.F ....|G-1 2F.F ....
 G-3|..|G-1 2A.F ....|D-4 2F.7 ....|R-- .... ....
....|..|B-8 JF.A ....|A-3 2F.F ....|F-3 2F.A ....
....|..|--- .... ....|G-3 2F2F ....|G-3 2F2F ....

[Pattern26]
....|..|C-4 AF.F ....|C-4 2F1F ....|G-4 2F.F ....
 F-3|..|F-1 2A.F ....|D-3 2F1A ....|F-4 2F.F ....
....|..|--- .... ....|R-- .... ....|--- .... ....
....|..|--- .... ....|R-- .... ....|--- .... ....
....|..|B-8 JF.F ....|A-3 2F.F ....|F-1 2F.7 ....
 F-3|..|F-1 2F.7 ....|R-- .... ....|--- .... ....
....|..|B-8 JF.F ....|A-3 2F.F ....|--- .... ....
....|..|--- .... ....|R-- .... ....|--- .... ....
....|..|B-8 JF.F ....|A-3 2F.F ....|F-1 2F.F ....
 F-3|..|F-1 2A.F ....|R-- .... ....|R-- .... ....
....|..|B-8 JF.F ....|E-4 2F.F ....|F-3 2F.7 ....
....|..|--- .... ....|F-3 2F.7 ....|R-- .... ....
....|..|C-4 CF.F ....|E-4 2F.F ....|F-1 2F.F ....
 F-3|..|F-1 2A.F ....|D-4 2F.F ....|F-4 2F.A ....
....|..|--- .... ....|--- .... ....|--- .... ....
....|..|--- .... ....|R-- .... ....|--- .... ....
....|..|B-8 JF.F ....|A-3 2F.F ....|R-- .... ....
....|..|R-- .... ....|R-- .... ....|--- .... ....
....|..|B-8 JF.7 ....|A-3 2F.A ....|--- .... ....
....|..|--- .... ....|R-- .... ....|--- .... ....
....|..|C-4 AF.F ....|G-3 2F.7 ....|F-1 2F.F ....
 F-3|..|F-1 2A.F ....|R-- .... ....|--- .... ....
....|..|B-8 JF.A ....|A-3 2F.7 ....|--- .... ....
....|..|--- .... ....|G-3 2F27 ....|G-3 2F27 ....
....|..|C-4 AF.F ....|A-3 2F.F ....|F-1 2F.F ....
 F-3|..|F-1 2A.F ....|R-- .... ....|F-4 2F.7 ....
....|..|--- .... ....|--- .... ....|--- .... ....
....|..|--- .... ....|--- .... ....|--- .... ....
....|..|C-4 CF.F ....|A-3 2F.F ....|F-1 2F.F ....
 F-3|..|F-1 2A.F ....|R-- .... ....|--- .... ....
....|..|B-8 JF.F ....|A-3 2F.F ....|--- .... ....
....|..|--- .... ....|R-- .... ....|--- .... ....
....|..|B-8 JF.F ....|A-3 2F.F ....|F-1 2F.7 ....
 F-3|..|F-1 2F.7 ....|R-- .... ....|--- .... ....
....|..|B-8 JF.F ....|E-4 2F.F ....|--- .... ....
....|..|--- .... ....|--- .... ....|--- .... ....
....|..|C-4 AF.F ....|D-4 2F.F ....|F-1 2F.F ....
 F-3|..|F-1 2A.F ....|D-4 2F.7 ....|--- .... ....
....|..|--- .... ....|--- .... ....|--- .... ....
....|..|--- .... ....|--- .... ....|--- .... ....
....|..|C-4 AF.F ....|A-3 2F.F ....|R-- .... ....
....|..|R-- .... ....|R-- .... ....|R-- .... ....
....|..|B-8 JF.A ....|R-- .... ....|--- .... ....
....|..|--- .... ....|R-- .... ....|--- .... ....
....|..|C-4 CF.F ....|A-3 2F.A ....|F-1 2F.F ....
 F-3|..|F-1 2A.F ....|--- .... ....|--- .... ....
....|..|B-8 JF.A ....|E-4 2F.A ....|--- .... ....
....|..|--- .... ....|--- .... ....|--- .... ....
....|..|B-8 JF.F ....|A-3 2F.F ....|F-1 2F.7 ....
 F-3|..|F-1 2F.7 ....|R-- .... ....|--- .... ....
....|..|B-8 JF.F ....|A-3 2F.F ....|R-- .... ....
....|..|--- .... ....|R-- .... ....|--- .... ....
....|..|C-4 AF.F ....|B-3 2F.F ....|G-4 2F.F ....
 G-3|..|G-1 2A.F ....|D-3 2F1F ....|R-- .... ....
....|..|B-8 JF.7 ....|A-3 2F.7 ....|--- .... ....
....|..|--- .... ....|R-- .... ....|--- .... ....
....|..|C-4 AF.F ....|G-3 2F.F ....|R-- .... ....
....|..|R-- .... ....|R-- .... ....|--- .... ....
....|..|B-8 JF.F ....|E-4 2F.7 ....|--- .... ....
....|..|--- .... ....|--- .... ....|--- .... ....
....|..|C-4 CF.F ....|G-3 2F.F ....|G-1 2F.F ....
 G-3|..|G-1 2A.F ....|R-- .... ....|--- .... ....
....|..|B-8 JF.A ....|A-3 2F.F ....|R-- .... ....
....|..|--- .... ....|G-3 2F.F ....|G-3 2F.F ....

[Pattern27]
....|..|C-4 AF.F ....|C-4 2F1F ....|G-4 2F.F ....
 F-3|..|F-1 2A.F ....|D-3 2F1A ....|R-- .... ....
....|..|--- .... ....|R-- .... ....|F-4 2F.F ....
....|..|--- .... ....|--- .... ....|--- .... ....
....|..|B-8 JF.F ....|A-3 2F.F ....|F-1 2F.7 ....
 F-3|..|F-1 2F.7 ....|R-- .... ....|--- .... ....
....|..|B-8 JF.A ....|A-3 2F.F ....|--- .... ....
....|..|--- .... ....|R-- .... ....|--- .... ....
....|..|B-8 JF.F ....|A-3 2F.F ....|F-1 2F.F ....
 F-3|..|F-1 2A.F ....|R-- .... ....|--- .... ....
....|..|B-8 JF.F ....|E-4 2F.F ....|R-- .... ....
....|..|--- .... ....|R-- .... ....|G-3 2F.A ....
....|..|C-4 CF.F ....|D-4 2F.F ....|F-1 2F.F ....
 F-3|..|F-1 2A.F ....|D-3 2F17 ....|--- .... ....
....|..|--- .... ....|--- .... ....|F-4 2F.A ....
....|..|--- .... ....|--- .... ....|--- .... ....
....|..|B-8 JF.F ....|A-3 2F.F ....|R-- .... ....
....|..|R-- .... ....|R-- .... ....|--- .... ....
....|..|B-8 JF.F ....|A-3 2F.A ....|--- .... ....
....|..|--- .... ....|R-- .... ....|--- .... ....
....|..|C-4 AF.F ....|G-3 2F.7 ....|F-1 2F.F ....
 F-3|..|F-1 2A.F ....|R-- .... ....|--- .... ....
....|..|B-8 JF.A ....|A-3 2F.7 ....|--- .... ....
....|..|--- .... ....|G-3 2F.7 ....|G-3 2F.7 ....
....|..|C-4 AF.F ....|A-3 2F.F ....|F-1 2F.F ....
 F-3|..|F-1 2A.F ....|R-- .... ....|--- .... ....
....|..|--- .... ....|--- .... ....|F-4 2F.7 ....
....|..|--- .... ....|--- .... ....|--- .... ....
....|..|C-4 CF.F ....|E-4 2F.F ....|F-1 2F.F ....
 F-3|..|F-1 2A.F ....|R-- .... ....|--- .... ....
....|..|B-8 JF.A ....|E-4 2F.F ....|--- .... ....
....|..|--- .... ....|R-- .... ....|--- .... ....
....|..|B-8 JF.F ....|E-4 2F.F ....|F-1 2F.7 ....
 F-3|..|F-1 2F.7 ....|R-- .... ....|--- .... ....
....|..|B-8 JF.F ....|E-4 2F.F ....|--- .... ....
....|..|--- .... ....|R-- .... ....|--- .... ....
....|..|C-4 AF.F ....|G-4 2F.F ....|E-4 2F.F ....
 E-3|..|E-1 2A.F ....|B-3 2F1F ....|--- .... ....
....|..|--- .... ....|--- .... ....|--- .... ....
....|..|--- .... ....|R-- .... ....|--- .... ....
....|..|C-4 AF.F ....|E-4 2F.F ....|R-- .... ....
....|..|R-- .... ....|R-- .... ....|--- .... ....
....|..|B-8 JF.7 ....|E-4 2F.A ....|--- .... ....
....|..|--- .... ....|R-- .... ....|--- .... ....
....|..|C-4 CF.F ....|E-4 2F.A ....|E-1 2F.F ....
 E-3|..|E-1 2A.F ....|R-- .... ....|--- .... ....
....|..|B-8 JF.A ....|E-4 2F.A ....|--- .... ....
....|..|--- .... ....|R-- .... ....|--- .... ....
....|..|B-8 JF.F ....|F-4 2F.F ....|F-1 2F.7 ....
 F-3|..|F-1 2F.7 ....|R-- .... ....|--- .... ....
....|..|B-8 JF.F ....|E-4 2F.F ....|--- .... ....
....|..|--- .... ....|R-- .... ....|--- .... ....
....|..|C-4 AF.F ....|G-4 2F.F ....|E-1 2F.F ....
 E-3|..|E-1 2A.F ....|R-- .... ....|--- .... ....
....|..|--- .... ....|E-4 2F.7 ....|--- .... ....
....|..|R-- .... ....|R-- .... ....|R-- .... ....
....|..|C-4 AF.F ....|E-4 2F.F ....|E-1 2F.F ....
 E-3|..|E-1 2A.F ....|R-- .... ....|--- .... ....
....|..|B-8 JF.7 ....|E-4 2F.7 ....|--- .... ....
....|..|--- .... ....|R-- .... ....|--- .... ....
....|..|C-4 CF.F ....|G-4 2F.F ....|G-1 2F.F ....
 G-3|..|G-1 2A.F ....|B-3 2F17 ....|--- .... ....
....|..|B-8 JF.A ....|E-4 2F.A ....|--- .... ....
....|..|--- .... ....|R-- .... ....|--- .... ....

[Pattern28]
....|..|C-4 AF.F ....|A-4 2F.F ....|C-5 2F.F ....
 A-3|..|A-1 2A.F ....|C-4 2F3F ....|C-5 2F.F ....
 A-3|..|A-1 2A.F ....|R-- .... ....|--- .... ....
....|..|R-- .... ....|--- .... ....|R-- .... ....
....|..|B-8 JF.F ....|E-4 2F.A ....|E-1 2F.7 ....
 E-3|..|E-1 2F.7 ....|--- .... ....|--- .... ....
....|..|--- .... ....|R-- .... ....|--- .... ....
....|..|--- .... ....|--- .... ....|--- .... ....
....|..|B-8 JF.F ....|F-4 2F.7 ....|A-1 2F.F ....
 A-3|..|A-1 2A.F ....|--- .... ....|--- .... ....
....|..|B-8 JF.7 ....|E-4 2F.7 ....|R-- .... ....
....|..|--- .... ....|--- .... ....|--- .... ....
....|..|C-4 CF.F ....|C-5 2F.F ....|C-5 2F.F ....
 A-3|..|A-1 2A.F ....|R-- .... ....|R-- .... ....
....|..|B-8 JF.F ....|C-5 2F.F ....|C-5 2F.F ....
....|..|R-- .... ....|R-- .... ....|R-- .... ....
....|..|B-8 JF.F ....|C-5 2F.F ....|C-5 2F.F ....
 A-3|..|A-1 2A.F ....|R-- .... ....|R-- .... ....
....|..|B-8 JF.F ....|C-5 2F.F ....|C-5 2F.F ....
 A-3|..|A-1 2A.F ....|C-4 2F.F ....|C-5 2F.F ....
....|..|C-4 AF.F ....|B-4 2F.F ....|B-4 2F.F ....
 G-3|..|G-1 2A.F ....|B-3 2F4F ....|B-4 2F.F ....
....|..|R-- .... ....|--- .... ....|R-- .... ....
....|..|R-- .... ....|--- .... ....|R-- .... ....
....|..|C-4 AF.F ....|G-4 2F.F ....|G-4 2F.F ....
 G-3|..|G-1 2A.F ....|C-4 2F37 ....|C-5 2F.7 ....
 A-3|..|A-1 2F.7 ....|R-- .... ....|G-4 2F.F ....
....|..|R-- .... ....|R-- .... ....|R-- .... ....
....|..|C-4 CF.F ....|C-5 2F.A ....|G-1 2F.F ....
 G-3|..|G-1 2A.F ....|R-- .... ....|R-- .... ....
....|..|R-- .... ....|C-5 2F.A ....|C-5 2F.A ....
 A-3|..|A-1 2F.A ....|C-4 2F.A ....|C-5 2F.A ....
....|..|B-8 JF.F ....|A-4 2F.F ....|A-4 2F.F ....
 G-3|..|G-1 2A.F ....|B-3 2F4A ....|A-4 2F.F ....
....|..|B-8 JF.F ....|B-4 2F.F ....|B-4 2F.F ....
 G-3|..|G-1 2A.F ....|--- .... ....|R-- .... ....
....|..|C-4 AF.F ....|B-4 2F.F ....|A-4 2F.F ....
 F-3|..|F-1 2A.F ....|A-4 2F.F ....|A-3 2F4F ....
....|..|B-8 JF.F ....|A-3 2F4F ....|C-5 2F.7 ....
....|..|R-- .... ....|A-3 2F4F ....|R-- .... ....
....|..|C-4 AF.F ....|F-4 2F.F ....|F-4 2F.F ....
 F-3|..|F-1 2A.F ....|R-- .... ....|F-4 2F.F ....
....|..|B-8 JF.7 ....|C-5 2F.7 ....|C-5 2F.7 ....
 A-3|..|A-1 2F.7 ....|C-4 2F.7 ....|C-5 2F.7 ....
....|..|C-4 CF.F ....|B-4 2F.7 ....|B-4 2F.7 ....
 G-3|..|G-1 2F.7 ....|B-3 2F47 ....|B-4 2F.7 ....
....|..|B-8 JF.A ....|B-4 2F.A ....|B-4 2F.A ....
....|..|R-- .... ....|--- .... ....|R-- .... ....
....|..|B-8 JF.F ....|A-4 2F.F ....|A-4 2F.F ....
 F-3|..|F-1 2A.F ....|R-- .... ....|R-- .... ....
....|..|B-8 JF.F ....|A-4 2F.F ....|A-4 2F.F ....
 F-3|..|F-1 2A.F ....|A-3 2F.F ....|A-4 2F.F ....
....|..|C-4 AF.F ....|B-4 2F.F ....|B-4 2F.F ....
 G-3|..|G-1 2A.F ....|A-3 2F5F ....|B-4 2F.F ....
....|..|B-8 JF.F ....|B-3 2F4F ....|R-- .... ....
....|..|--- .... ....|--- .... ....|--- .... ....
....|..|C-4 AF.F ....|G-4 2F.F ....|G-4 2F.F ....
 E-3|..|E-1 2A.F ....|--- .... ....|A-4 2F.7 ....
....|..|B-8 JF.7 ....|B-4 2F.7 ....|B-4 2F.7 ....
 G-3|..|G-1 2F.7 ....|--- .... ....|--- .... ....
....|..|C-4 CF.F ....|B-4 2F.7 ....|G-1 2F.F ....
 G-3|..|G-1 2A.F ....|A-4 2F.7 ....|A-3 2F47 ....
....|..|B-8 JF.7 ....|A-3 2F47 ....|A-4 2F.A ....
 F-3|..|F-1 2F.A ....|A-3 2F47 ....|A-4 2F.A ....

[Pattern29]
....|..|C-4 AF.F ....|C-4 2F3F ....|C-5 2F.F ....
 A-3|..|A-1 2A.F ....|C-4 2F3F ....|C-5 2F.F ....
....|..|R-- .... ....|R-- .... ....|R-- .... ....
....|..|--- .... ....|--- .... ....|--- .... ....
....|..|B-8 JF.F ....|G-4 2F.A ....|G-4 2F.A ....
 E-3|..|E-1 2F.A ....|--- .... ....|--- .... ....
....|..|--- .... ....|R-- .... ....|R-- .... ....
....|..|--- .... ....|--- .... ....|--- .... ....
....|..|B-8 JF.F ....|C-5 2F.F ....|C-5 2F.F ....
 A-3|..|A-1 2A.F ....|R-- .... ....|R-- .... ....
 A-3|..|A-1 2A.F ....|C-5 2F.F ....|C-5 2F.F ....
 F-3|..|F-1 2F.7 ....|A-3 2F.7 ....|A-4 2F.7 ....
....|..|C-4 CF.F ....|C-5 2F.F ....|C-5 2F.F ....
 A-3|..|A-1 2A.F ....|A-3 2F57 ....|B-4 2F.7 ....
....|..|B-8 JF.F ....|B-3 2F47 ....|R-- .... ....
....|..|R-- .... ....|R-- .... ....|R-- .... ....
....|..|B-8 JF.F ....|C-5 2F.F ....|C-5 2F.F ....
 A-3|..|A-1 2A.F ....|R-- .... ....|R-- .... ....
....|..|B-8 JF.F ....|C-5 2F.F ....|C-5 2F.F ....
 A-3|..|A-1 2A.F ....|C-4 2F.F ....|C-5 2F.F ....
....|..|C-4 AF.F ....|B-4 2F.F ....|C-5 2F.F ....
 G-3|..|G-1 2A.F ....|B-3 2F4F ....|B-4 2F.F ....
 A-3|..|A-1 2F.A ....|C-5 2F.A ....|C-5 2F.A ....
....|..|R-- .... ....|R-- .... ....|R-- .... ....
....|..|C-4 AF.F ....|G-4 2F.F ....|G-4 2F.F ....
 G-3|..|G-1 2A.F ....|C-4 2F37 ....|C-5 2F.7 ....
....|..|R-- .... ....|R-- .... ....|R-- .... ....
....|..|R-- .... ....|R-- .... ....|R-- .... ....
....|..|C-4 CF.F ....|C-5 2F.A ....|G-1 2F.F ....
 G-3|..|G-1 2A.F ....|R-- .... ....|R-- .... ....
....|..|R-- .... ....|C-5 2F.A ....|C-5 2F.A ....
 A-3|..|A-1 2F.A ....|C-4 2F.A ....|C-5 2F.A ....
....|..|B-8 JF.F ....|A-4 2F.F ....|A-4 2F.F ....
 G-3|..|G-1 2A.F ....|R-- .... ....|A-4 2F.F ....
....|..|B-8 JF.F ....|B-4 2F.F ....|B-4 2F.F ....
 G-3|..|G-1 2A.F ....|R-- .... ....|R-- .... ....
....|..|C-4 AF.F ....|A-4 2F.F ....|A-4 2F.F ....
 F-3|..|F-1 2A.F ....|A-3 2F6F ....|A-4 2F.F ....
....|..|B-8 JF.7 ....|A-3 2F4F ....|R-- .... ....
....|..|R-- .... ....|R-- .... ....|R-- .... ....
....|..|C-4 AF.F ....|F-4 2F.F ....|A-4 2F.F ....
 F-3|..|F-1 2A.F ....|R-- .... ....|F-4 2F.F ....
....|..|B-8 JF.7 ....|C-5 2F.7 ....|C-5 2F.7 ....
 A-3|..|A-1 2F.7 ....|C-4 2F.7 ....|C-5 2F.7 ....
....|..|C-4 CF.F ....|B-4 2F.7 ....|C-5 2F.7 ....
 G-3|..|G-1 2F.7 ....|B-3 2F47 ....|B-4 2F.7 ....
....|..|B-8 JF.A ....|B-4 2F.A ....|B-4 2F.A ....
 G-3|..|G-1 2F.A ....|--- .... ....|R-- .... ....
....|..|B-8 JF.F ....|A-4 2F.F ....|A-4 2F.F ....
 F-3|..|F-1 2A.F ....|R-- .... ....|R-- .... ....
....|..|B-8 JF.F ....|A-4 2F.F ....|A-4 2F.F ....
 F-3|..|F-1 2A.F ....|A-3 2F.F ....|A-3 2F.F ....
....|..|C-4 AF.F ....|G#4 2F.F ....|G#4 2F.F ....
 E-3|..|E-1 2A.F ....|A-3 2F.F ....|G#3 2F4F ....
....|..|R-- .... ....|G#3 2F4F ....|G#4 2F.F ....
....|..|--- .... ....|G#3 2F4F ....|R-- .... ....
....|..|C-4 AF.F ....|G#4 2F.F ....|G#4 2F.F ....
 E-3|..|E-1 2A.F ....|--- .... ....|A-4 2F.7 ....
....|..|B-8 JF.7 ....|B-4 2F.7 ....|B-4 2F.7 ....
 G-3|..|G-1 2F.7 ....|R-- .... ....|R-- .... ....
....|..|C-4 CF.F ....|B-4 2F.F ....|B-4 2F.F ....
 G-3|..|G-1 2A.F ....|A-3 2F67 ....|A-4 2F.7 ....
....|..|B-8 JF.A ....|A-3 2F47 ....|B-4 2F.F ....
 F-3|..|F-1 2F.A ....|A-3 2F.A ....|A-3 2F.A ....

[Pattern30]
....|..|C-4 AF.F ....|C-5 2F.F ....|C-5 2F.F ....
 A-3|..|A-1 2A.F ....|G#3 2F7F ....|C-5 2F.F ....
....|..|R-- .... ....|C-4 2F3F ....|R-- .... ....
....|..|--- .... ....|G#3 2F4A ....|R-- .... ....
....|..|B-8 JF.F ....|G#4 2F.A ....|G#4 2F.A ....
 E-3|..|E-1 2F.A ....|--- .... ....|--- .... ....
....|..|--- .... ....|--- .... ....|--- .... ....
....|..|--- .... ....|R-- .... ....|--- .... ....
....|..|B-8 JF.F ....|C-5 2F.F ....|C-5 2F.F ....
 A-3|..|A-1 2A.F ....|R-- .... ....|R-- .... ....
....|..|B-8 JF.7 ....|C-5 2F.F ....|C-5 2F.F ....
 F-3|..|F-1 2F.7 ....|A-3 2F.7 ....|A-3 2F.7 ....
....|..|C-4 CF.F ....|C-5 2F.F ....|C-5 2F.F ....
 A-3|..|A-1 2A.F ....|A-3 2F.7 ....|G#3 2F47 ....
....|..|B-8 JF.F ....|C-5 2F.F ....|C-5 2F.F ....
....|..|R-- .... ....|G#3 2F47 ....|R-- .... ....
....|..|B-8 JF.F ....|C-5 2F.F ....|C-5 2F.F ....
 A-3|..|A-1 2A.F ....|R-- .... ....|R-- .... ....
....|..|B-8 JF.F ....|C-5 2F.F ....|C-5 2F.F ....
 A-3|..|A-1 2A.F ....|R-- .... ....|E-4 2F.F ....
....|..|C-4 AF.F ....|B-4 2F.F ....|B-4 2F.F ....
 G-3|..|G-1 2A.F ....|B-3 2F4F ....|R-- .... ....
....|..|R-- .... ....|C-5 2F.A ....|B-4 2F.7 ....
....|..|--- .... ....|R-- .... ....|B-4 2F.F ....
....|..|C-4 AF.F ....|G-4 2F.F ....|G-4 2F.F ....
 G-3|..|G-1 2A.F ....|G#3 2F77 ....|C-5 2F.7 ....
....|..|R-- .... ....|C-4 2F37 ....|R-- .... ....
....|..|R-- .... ....|R-- .... ....|R-- .... ....
....|..|C-4 CF.F ....|C-5 2F.A ....|G-1 2F.F ....
 G-3|..|G-1 2A.F ....|R-- .... ....|R-- .... ....
....|..|R-- .... ....|C-5 2F.A ....|C-5 2F.A ....
 A-3|..|A-1 2F.A ....|R-- .... ....|E-4 2F.A ....
....|..|B-8 JF.F ....|A-4 2F.F ....|A-4 2F.F ....
 G-3|..|G-1 2A.F ....|R-- .... ....|R-- .... ....
....|..|B-8 JF.F ....|B-4 2F.F ....|B-4 2F.F ....
 G-3|..|G-1 2A.F ....|R-- .... ....|R-- .... ....
....|..|C-4 AF.F ....|A-4 2F.F ....|B-4 2F.F ....
 F-3|..|F-1 2A.F ....|A-3 2F4F ....|A-4 2F.F ....
....|..|B-8 JF.F ....|A-3 2F4F ....|C-5 2F.7 ....
....|..|R-- .... ....|R-- .... ....|R-- .... ....
....|..|C-4 AF.F ....|F-4 2F.F ....|F-4 2F.F ....
 F-3|..|F-1 2A.F ....|R-- .... ....|R-- .... ....
....|..|B-8 JF.7 ....|C-5 2F.7 ....|C-5 2F.7 ....
 A-3|..|A-1 2F.7 ....|R-- .... ....|E-4 2F.7 ....
....|..|C-4 CF.F ....|B-4 2F.7 ....|B-4 2F.7 ....
 G-3|..|G-1 2F.7 ....|B-3 2F47 ....|R-- .... ....
....|..|B-8 JF.A ....|B-4 2F.A ....|B-4 2F.A ....
 G-3|..|G-1 2F.A ....|--- .... ....|B-4 2F.7 ....
....|..|B-8 JF.F ....|A-4 2F.F ....|A-4 2F.F ....
 F-3|..|F-1 2A.F ....|R-- .... ....|R-- .... ....
....|..|B-8 JF.F ....|A-4 2F.F ....|A-4 2F.F ....
 F-3|..|F-1 2A.F ....|A-3 2F8F ....|A-3 2F8F ....
....|..|C-4 AF.F ....|B-4 2F.F ....|B-4 2F.F ....
 G-3|..|G-1 2A.F ....|A-3 2F5F ....|B-4 2F.F ....
....|..|R-- .... ....|B-3 2F4F ....|R-- .... ....
....|..|--- .... ....|--- .... ....|--- .... ....
....|..|C-4 AF.F ....|G-4 2F.F ....|G-4 2F.F ....
 E-3|..|E-1 2A.F ....|--- .... ....|R-- .... ....
....|..|B-8 JF.7 ....|B-4 2F.7 ....|B-4 2F.7 ....
 G-3|..|G-1 2F.7 ....|--- .... ....|--- .... ....
....|..|C-4 CF.F ....|A-4 2F.7 ....|G-1 2F.F ....
 G-3|..|G-1 2A.F ....|A-3 2F47 ....|A-4 2F.7 ....
....|..|B-8 JF.7 ....|A-3 2F47 ....|A-4 2F.A ....
 F-3|..|F-1 2F.A ....|A-3 2F8A ....|A-3 2F8A ....

[Pattern31]
....|..|C-4 AF.F ....|B-3 2F9F ....|C-5 2F.F ....
 A-3|..|A-1 2A.F ....|C-4 2F3F ....|C-4 2F3F ....
....|..|R-- .... ....|R-- .... ....|R-- .... ....
....|..|--- .... ....|--- .... ....|--- .... ....
....|..|B-8 JF.F ....|G-4 2F.A ....|G-4 2F.A ....
 E-3|..|E-1 2F.A ....|--- .... ....|--- .... ....
....|..|--- .... ....|R-- .... ....|R-- .... ....
....|..|--- .... ....|--- .... ....|--- .... ....
....|..|B-8 JF.F ....|C-5 2F.F ....|C-5 2F.F ....
 A-3|..|A-1 2A.F ....|R-- .... ....|R-- .... ....
....|..|B-8 JF.7 ....|C-5 2F.F ....|C-5 2F.F ....
 F-3|..|F-1 2F.7 ....|A-3 2F87 ....|A-3 2F87 ....
....|..|C-4 CF.F ....|C-5 2F.F ....|C-5 2F.F ....
 A-3|..|A-1 2A.F ....|A-3 2F57 ....|B-4 2F.7 ....
....|..|B-8 JF.F ....|C-5 2F.F ....|C-5 2F.F ....
....|..|R-- .... ....|R-- .... ....|R-- .... ....
....|..|B-8 JF.F ....|C-5 2F.F ....|C-5 2F.F ....
 A-3|..|A-1 2A.F ....|R-- .... ....|R-- .... ....
....|..|B-8 JF.F ....|C-5 2F.F ....|C-5 2F.F ....
 A-3|..|A-1 2A.F ....|--- .... ....|R-- .... ....
....|..|C-4 AF.F ....|B-4 2F.F ....|B-4 2F.F ....
 G-3|..|G-1 2A.F ....|B-3 2F4F ....|R-- .... ....
....|..|R-- .... ....|C-5 2F.A ....|C-5 2F.A ....
....|..|--- .... ....|R-- .... ....|R-- .... ....
....|..|C-4 AF.F ....|B-4 2F.F ....|G-4 2F.F ....
 G-3|..|G-1 2A.F ....|G-4 2F.F ....|C-4 2F37 ....
....|..|R-- .... ....|R-- .... ....|G-4 2F.F ....
....|..|R-- .... ....|R-- .... ....|R-- .... ....
....|..|C-4 CF.F ....|C-5 2F.A ....|G-1 2F.F ....
 G-3|..|G-1 2A.F ....|R-- .... ....|R-- .... ....
....|..|R-- .... ....|C-5 2F.A ....|C-5 2F.A ....
 A-3|..|A-1 2F.A ....|--- .... ....|R-- .... ....
....|..|B-8 JF.F ....|A-4 2F.F ....|A-4 2F.F ....
 G-3|..|G-1 2A.F ....|R-- .... ....|A-4 2F.F ....
....|..|B-8 JF.F ....|B-4 2F.F ....|B-4 2F.F ....
 G-3|..|G-1 2A.F ....|R-- .... ....|R-- .... ....
....|..|C-4 AF.F ....|A-4 2F.F ....|B-4 2F.F ....
 F-3|..|F-1 2A.F ....|A-3 2F6F ....|A-4 2F.F ....
....|..|B-8 JF.7 ....|A-3 2F4F ....|C-5 2F.7 ....
....|..|R-- .... ....|R-- .... ....|R-- .... ....
....|..|C-4 AF.F ....|F-4 2F.F ....|A-4 2F.F ....
 F-3|..|F-1 2A.F ....|R-- .... ....|F-4 2F.F ....
....|..|B-8 JF.7 ....|C-5 2F.7 ....|C-5 2F.7 ....
 A-3|..|A-1 2F.7 ....|--- .... ....|R-- .... ....
....|..|C-4 CF.F ....|B-4 2F.7 ....|B-4 2F.7 ....
 G-3|..|G-1 2F.7 ....|B-3 2F47 ....|A-4 2F.A ....
....|..|B-8 JF.A ....|B-4 2F.A ....|B-4 2F.A ....
 G-3|..|G-1 2F.A ....|--- .... ....|--- .... ....
....|..|B-8 JF.F ....|A-4 2F.F ....|A-4 2F.F ....
 F-3|..|F-1 2A.F ....|G-4 2F.7 ....|R-- .... ....
....|..|B-8 JF.F ....|A-4 2F.F ....|A-4 2F.F ....
 F-3|..|F-1 2A.F ....|A-3 2F.F ....|A-3 2F.F ....
....|..|C-4 AF.F ....|B-4 2F.F ....|B-4 2F.F ....
 E-3|..|E-1 2A.F ....|G#3 2FAF ....|G#3 2F4F ....
....|..|R-- .... ....|G#3 2F4F ....|R-- .... ....
....|..|--- .... ....|--- .... ....|--- .... ....
....|..|C-4 AF.F ....|B-4 2F.F ....|G#4 2F.F ....
 E-3|..|E-1 2A.F ....|G#4 2F.F ....|A-4 2F.7 ....
....|..|B-8 JF.7 ....|B-4 2F.7 ....|B-4 2F.7 ....
 G-3|..|G-1 2F.7 ....|R-- .... ....|--- .... ....
....|..|C-4 CF.F ....|A-4 2F.7 ....|E-1 2F.F ....
 E-3|..|E-1 2A.F ....|A-3 2F67 ....|A-4 2F.7 ....
....|..|B-8 JF.A ....|A-3 2F47 ....|A-4 2F.A ....
 F-3|..|F-1 2F.A ....|A-3 2F.A ....|A-3 2F.A ....

[Pattern32]
....|..|C-4 AF.F ....|G#3 2FBF ....|A-4 2F.F ....
 F-3|..|F-1 2A.F ....|A-3 2FCF ....|A-4 2F.F ....
....|..|R-- .... ....|R-- .... ....|R-- .... ....
....|..|--- .... ....|--- .... ....|--- .... ....
....|..|B-8 JF.F ....|A-3 2F.F ....|R-- .... ....
....|..|R-- .... ....|R-- .... ....|--- .... ....
....|..|R-- .... ....|A-3 2F.F ....|R-- .... ....
....|..|--- .... ....|R-- .... ....|--- .... ....
....|..|B-8 JF.F ....|A-3 2F.F ....|F-1 2F.F ....
 F-3|..|F-1 2A.F ....|R-- .... ....|R-- .... ....
....|..|B-8 JF.7 ....|E-4 2F.F ....|A-4 2F.7 ....
 F-3|..|F-1 2F.7 ....|A-3 2F.7 ....|A-3 2F.7 ....
....|..|C-4 CF.F ....|D-4 2F.F ....|F-1 2F.F ....
 F-3|..|F-1 2A.F ....|G#3 2FA7 ....|G#3 2F47 ....
....|..|R-- .... ....|G#3 2F47 ....|R-- .... ....
....|..|--- .... ....|--- .... ....|--- .... ....
....|..|B-8 JF.F ....|A-3 2F.F ....|G#4 2F.7 ....
 E-3|..|E-1 2F.7 ....|G#4 2F.7 ....|--- .... ....
....|..|B-8 JF.F ....|R-- .... ....|R-- .... ....
....|..|--- .... ....|R-- .... ....|--- .... ....
....|..|C-4 AF.F ....|A-3 2F.A ....|F-1 2F.F ....
 F-3|..|F-1 2A.F ....|--- .... ....|--- .... ....
....|..|--- .... ....|E-4 2F.A ....|--- .... ....
....|..|--- .... ....|--- .... ....|--- .... ....
....|..|C-4 AF.F ....|A-3 2F.F ....|F-2 2F.F ....
 F-4|..|F-2 2A.F ....|A-3 2FC7 ....|F-2 2F.F ....
 F-4|..|F-2 2A.F ....|--- .... ....|--- .... ....
....|..|--- .... ....|--- .... ....|--- .... ....
....|..|C-4 CF.F ....|A-3 2F.F ....|F-2 2F.F ....
 F-4|..|F-2 2A.F ....|R-- .... ....|F-1 2F.F ....
 F-3|..|F-1 2A.F ....|A-3 2F.F ....|--- .... ....
....|..|--- .... ....|R-- .... ....|--- .... ....
....|..|B-8 JF.F ....|A-3 2F.F ....|F-2 2F.F ....
 F-4|..|F-2 2A.F ....|--- .... ....|F-2 2F.F ....
....|..|B-8 JF.F ....|E-4 2F.F ....|--- .... ....
 F-4|..|F-2 2A.F ....|--- .... ....|--- .... ....
....|..|C-4 AF.F ....|D-4 2F.F ....|F-2 2F.F ....
 F-4|..|F-2 2A.F ....|R-- .... ....|F-1 2F.F ....
 F-3|..|F-1 2A.F ....|--- .... ....|--- .... ....
....|..|--- .... ....|--- .... ....|--- .... ....
....|..|C-4 AF.F ....|A-3 2F.F ....|R-- .... ....
....|..|R-- .... ....|R-- .... ....|R-- .... ....
....|..|B-8 JF.F ....|R-- .... ....|--- .... ....
....|..|--- .... ....|--- .... ....|--- .... ....
....|..|C-4 CF.F ....|A-3 2F.A ....|F-1 2F.F ....
 F-3|..|F-1 2A.F ....|--- .... ....|F-2 2F.A ....
....|..|B-8 JF.A ....|E-4 2F.A ....|--- .... ....
 F-4|..|F-2 2F.A ....|--- .... ....|--- .... ....
....|..|B-8 JF.F ....|A-3 2F.F ....|F-2 2F.7 ....
 F-4|..|F-2 2F.7 ....|R-- .... ....|F-2 2F.7 ....
....|..|B-8 JF.F ....|A-3 2F.F ....|--- .... ....
....|..|--- .... ....|A-3 2F8F ....|A-3 2F8F ....
....|..|C-4 AF.F ....|B-3 2F.F ....|B-4 2F.F ....
 G-3|..|G-1 2A.F ....|B-3 2FCF ....|F-1 2F.7 ....
 F-3|..|F-1 2F.7 ....|A-3 2F.7 ....|--- .... ....
....|..|--- .... ....|--- .... ....|--- .... ....
....|..|C-4 AF.F ....|G-3 2F.F ....|F-2 2F.7 ....
 F-4|..|F-2 2F.7 ....|R-- .... ....|F-2 2F.7 ....
....|..|B-8 JF.7 ....|E-4 2F.7 ....|--- .... ....
 F-4|..|F-2 2F.7 ....|--- .... ....|--- .... ....
....|..|C-4 CF.F ....|G-3 2F.F ....|G-1 2F.F ....
 G-3|..|G-1 2A.F ....|R-- .... ....|F-1 2F.7 ....
 F-3|..|F-1 2F.7 ....|A-3 2F.F ....|--- .... ....
....|..|--- .... ....|G-4 2F2F ....|G-4 2F2F ....

[Pattern33]
....|..|C-4 AF.F ....|A-3 2FCF ....|A-4 2F.F ....
 G-3|..|G-1 2A.F ....|R-- .... ....|F-1 2F.F ....
 F-3|..|F-1 2A.F ....|--- .... ....|--- .... ....
....|..|--- .... ....|--- .... ....|--- .... ....
....|..|B-8 JF.F ....|E-4 2F.F ....|G#4 2F.F ....
 E-3|..|E-1 2A.F ....|G#3 2FCF ....|--- .... ....
....|..|--- .... ....|G#4 2F.F ....|G#4 2F.F ....
....|..|--- .... ....|R-- .... ....|R-- .... ....
....|..|B-8 JF.F ....|C-4 2F.F ....|G-1 2F.A ....
....|..|R-- .... ....|R-- .... ....|R-- .... ....
....|..|B-8 JF.F ....|A-3 2F.7 ....|--- .... ....
....|..|--- .... ....|A-3 2F87 ....|A-3 2F87 ....
....|..|C-4 CF.F ....|E-4 2F.F ....|B-4 2F.7 ....
 G-3|..|G-1 2F.7 ....|B-3 2FC7 ....|F-1 2F.A ....
 F-3|..|F-1 2F.A ....|--- .... ....|--- .... ....
....|..|--- .... ....|--- .... ....|--- .... ....
....|..|B-8 JF.F ....|D-4 2F.F ....|G#4 2F.A ....
 E-3|..|E-1 2F.A ....|R-- .... ....|--- .... ....
....|..|--- .... ....|C-4 2F.F ....|G#4 2F.A ....
....|..|--- .... ....|R-- .... ....|R-- .... ....
....|..|C-4 AF.F ....|G-3 2F.7 ....|E-1 2F.F ....
 E-3|..|E-1 2A.F ....|--- .... ....|R-- .... ....
....|..|B-8 JF.A ....|A-3 2F.7 ....|--- .... ....
....|..|--- .... ....|G-4 2F27 ....|G-4 2F27 ....
....|..|C-4 AF.F ....|A-3 2FC7 ....|E-1 2F.F ....
 E-3|..|E-1 2A.F ....|--- .... ....|F-1 2F.7 ....
....|..|B-8 JF.F ....|--- .... ....|--- .... ....
....|..|R-- .... ....|--- .... ....|R-- .... ....
....|..|C-4 CF.F ....|E-4 2F.F ....|G#4 2F.7 ....
 E-3|..|E-1 2F.7 ....|G#3 2FC7 ....|--- .... ....
....|..|--- .... ....|G#4 2F.7 ....|G#4 2F.7 ....
....|..|--- .... ....|R-- .... ....|R-- .... ....
....|..|B-8 JF.F ....|C-4 2F.F ....|E-1 2F.A ....
....|..|R-- .... ....|--- .... ....|R-- .... ....
....|..|B-8 JF.7 ....|R-- .... ....|--- .... ....
....|..|--- .... ....|--- .... ....|--- .... ....
....|..|C-4 AF.F ....|D-4 2F.F ....|E-1 2F.A ....
 E-3|..|E-1 2F.A ....|--- .... ....|--- .... ....
....|..|B-8 JF.A ....|R-- .... ....|--- .... ....
....|..|R-- .... ....|--- .... ....|R-- .... ....
....|..|C-4 AF.F ....|D-4 2F.F ....|--- .... ....
....|..|--- .... ....|--- .... ....|--- .... ....
....|..|B-8 JF.F ....|C-4 2F.7 ....|--- .... ....
....|..|--- .... ....|R-- .... ....|--- .... ....
....|..|C-4 AF.F ....|C-4 2F.A ....|E-1 2F.F ....
 E-3|..|E-1 2A.F ....|--- .... ....|--- .... ....
....|..|--- .... ....|--- .... ....|--- .... ....
....|..|--- .... ....|--- .... ....|--- .... ....
....|..|B-8 JF.F ....|C-4 2F.F ....|E-1 2F.7 ....
 E-3|..|E-1 2F.7 ....|--- .... ....|--- .... ....
....|..|B-8 JF.7 ....|R-- .... ....|--- .... ....
....|..|R-- .... ....|--- .... ....|R-- .... ....
....|..|C-4 AF.F ....|E-4 2F.F ....|--- .... ....
....|..|--- .... ....|--- .... ....|--- .... ....
....|..|B-8 JF.F ....|R-- .... ....|--- .... ....
....|..|--- .... ....|R-- .... ....|--- .... ....
....|..|C-4 AF.F ....|C-4 2F.7 ....|E-1 2F.A ....
 E-3|..|E-1 2F.A ....|--- .... ....|--- .... ....
....|..|B-8 JF.F ....|--- .... ....|--- .... ....
....|..|--- .... ....|--- .... ....|--- .... ....
....|..|C-4 CF.F ....|D-4 2F.F ....|R-- .... ....
....|..|R-- .... ....|--- .... ....|--- .... ....
....|..|--- .... ....|D-4 2F.F ....|--- .... ....
....|..|--- .... ....|--- .... ....|--- .... ....

[Pattern34]
....|..|C-4 AF.F ....|A-3 2F.F ....|A-1 2F.F ....
 A-3|..|A-1 2A.F ....|--- .... ....|--- .... ....
....|..|B-8 JF.7 ....|R-- .... ....|--- .... ....
....|..|R-- .... ....|R-- .... ....|R-- .... ....
....|..|B-8 JF.F ....|--- .... ....|E-1 2F.7 ....
 E-3|..|E-1 2F.7 ....|--- .... ....|--- .... ....
....|..|B-8 JF.F ....|--- .... ....|--- .... ....
....|..|--- .... ....|--- .... ....|--- .... ....
....|..|B-8 JF.F ....|C-4 2F.7 ....|A-1 2F.F ....
 A-3|..|A-1 2A.F ....|--- .... ....|R-- .... ....
....|..|B-8 JF.F ....|R-- .... ....|A-1 2F.F ....
 A-3|..|A-1 2A.F ....|--- .... ....|--- .... ....
....|..|C-4 CF.F ....|E-4 2F.7 ....|A-1 2F.F ....
 A-3|..|A-1 2A.F ....|--- .... ....|R-- .... ....
 A-3|..|A-1 2A.F ....|R-- .... ....|A-1 2F.F ....
....|..|R-- .... ....|R-- .... ....|R-- .... ....
....|..|B-8 JF.F ....|--- .... ....|G-1 2F.F ....
 G-3|..|G-1 2A.F ....|--- .... ....|--- .... ....
 A-3|..|A-1 2A.F ....|--- .... ....|A-1 2F.F ....
....|..|--- .... ....|--- .... ....|--- .... ....
....|..|C-4 AF.F ....|D-4 2F.7 ....|B-1 2F.F ....
 B-3|..|B-1 2A.F ....|--- .... ....|R-- .... ....
....|..|B-8 JF.A ....|D-4 2F.7 ....|A-1 2F.A ....
 A-3|..|A-1 2F.A ....|--- .... ....|--- .... ....
....|..|C-4 AF.F ....|A-3 2F.7 ....|B-1 2F.F ....
 B-3|..|B-1 2A.F ....|--- .... ....|R-- .... ....
....|..|R-- .... ....|R-- .... ....|R-- .... ....
....|..|R-- .... ....|--- .... ....|R-- .... ....
....|..|C-4 CF.F ....|--- .... ....|G-1 2F.A ....
 G-3|..|G-1 2F.A ....|--- .... ....|--- .... ....
....|..|B-8 JF.7 ....|--- .... ....|A-1 2F.A ....
....|..|--- .... ....|--- .... ....|--- .... ....
....|..|B-8 JF.F ....|--- .... ....|A-1 2F.F ....
 A-3|..|A-1 2A.F ....|--- .... ....|R-- .... ....
....|..|B-8 JF.F ....|--- .... ....|B-1 2F.F ....
 B-3|..|B-1 2A.F ....|--- .... ....|--- .... ....
....|..|C-4 AF.F ....|--- .... ....|C-2 2F.F ....
 C-4|..|C-2 2A.F ....|--- .... ....|R-- .... ....
 A-3|..|A-1 2F.7 ....|--- .... ....|A-1 2F.7 ....
....|..|R-- .... ....|--- .... ....|R-- .... ....
....|..|C-4 AF.F ....|--- .... ....|C-2 2F.F ....
 C-4|..|C-2 2A.F ....|--- .... ....|--- .... ....
 A-3|..|A-1 2F.7 ....|--- .... ....|A-1 2F.7 ....
....|..|--- .... ....|--- .... ....|--- .... ....
....|..|C-4 CF.F ....|--- .... ....|B-1 2F.7 ....
 B-3|..|B-1 2F.7 ....|--- .... ....|--- .... ....
....|..|B-8 JF.A ....|--- .... ....|B-1 2F.A ....
 B-3|..|B-1 2F.A ....|--- .... ....|--- .... ....
....|..|B-8 JF.F ....|--- .... ....|B-1 2F.F ....
 B-3|..|B-1 2A.F ....|--- .... ....|--- .... ....
....|..|B-8 JF.F ....|--- .... ....|C-2 2F.F ....
 C-4|..|C-2 2A.F ....|--- .... ....|--- .... ....
....|..|C-4 AF.F ....|--- .... ....|B-1 2F.F ....
 B-3|..|B-1 2A.F ....|--- .... ....|--- .... ....
....|..|B-8 JF.F ....|--- .... ....|B-1 2F.F ....
 B-3|..|B-1 2A.F ....|--- .... ....|R-- .... ....
....|..|C-4 AF.F ....|--- .... ....|G-1 2F.F ....
 G-3|..|G-1 2A.F ....|--- .... ....|--- .... ....
....|..|B-8 JF.7 ....|--- .... ....|B-1 2F.7 ....
 B-3|..|B-1 2F.7 ....|--- .... ....|--- .... ....
....|..|C-4 CF.F ....|--- .... ....|C-2 2F.7 ....
 C-4|..|C-2 2F.7 ....|--- .... ....|--- .... ....
....|..|R-- .... ....|--- .... ....|R-- .... ....
 C-4|..|C-2 2F.A ....|--- .... ....|--- .... ....

[Pattern35]
....|..|C-4 AF.F ....|--- .... ....|A-1 2F.F ....
 A-3|..|A-1 2A.F ....|--- .... ....|--- .... ....
....|..|R-- .... ....|--- .... ....|R-- .... ....
 B-3|..|B-1 2F.A ....|--- .... ....|R-- .... ....
....|..|B-8 JF.F ....|--- .... ....|G-1 2F.A ....
 G-3|..|G-1 2F.A ....|--- .... ....|--- .... ....
....|..|--- .... ....|--- .... ....|--- .... ....
....|..|--- .... ....|--- .... ....|--- .... ....
....|..|B-8 JF.F ....|--- .... ....|A-1 2F.F ....
 A-3|..|A-1 2A.F ....|--- .... ....|R-- .... ....
 A-3|..|A-1 2A.F ....|--- .... ....|A-1 2F.F ....
 C-4|..|C-2 2F.7 ....|--- .... ....|--- .... ....
....|..|C-4 CF.F ....|--- .... ....|A-1 2F.F ....
 A-3|..|A-1 2A.F ....|--- .... ....|R-- .... ....
 A-3|..|A-1 2A.F ....|--- .... ....|A-1 2F.F ....
 B-3|..|B-1 2F.7 ....|--- .... ....|R-- .... ....
....|..|B-8 JF.F ....|--- .... ....|G-1 2F.F ....
 G-3|..|G-1 2A.F ....|--- .... ....|--- .... ....
....|..|B-8 JF.F ....|--- .... ....|A-1 2F.F ....
 A-3|..|A-1 2A.F ....|--- .... ....|--- .... ....
....|..|C-4 AF.F ....|--- .... ....|B-1 2F.F ....
 B-3|..|B-1 2A.F ....|--- .... ....|R-- .... ....
....|..|R-- .... ....|--- .... ....|R-- .... ....
....|..|--- .... ....|--- .... ....|--- .... ....
....|..|C-4 AF.F ....|--- .... ....|B-1 2F.F ....
 B-3|..|B-1 2A.F ....|--- .... ....|R-- .... ....
....|..|R-- .... ....|--- .... ....|R-- .... ....
....|..|--- .... ....|--- .... ....|--- .... ....
....|..|C-4 CF.F ....|--- .... ....|G-1 2F.A ....
 G-3|..|G-1 2F.A ....|--- .... ....|--- .... ....
....|..|B-8 JF.A ....|--- .... ....|A-1 2F.A ....
 A-3|..|A-1 2F.A ....|--- .... ....|--- .... ....
....|..|B-8 JF.F ....|--- .... ....|A-1 2F.F ....
 A-3|..|A-1 2A.F ....|--- .... ....|R-- .... ....
....|..|B-8 JF.F ....|--- .... ....|B-1 2F.F ....
 B-3|..|B-1 2A.F ....|--- .... ....|--- .... ....
....|..|C-4 AF.F ....|--- .... ....|C-2 2F.F ....
 C-4|..|C-2 2A.F ....|--- .... ....|R-- .... ....
....|..|B-8 JF.F ....|--- .... ....|A-1 2F.7 ....
....|..|--- .... ....|--- .... ....|--- .... ....
....|..|C-4 AF.F ....|--- .... ....|C-2 2F.F ....
 C-4|..|C-2 2A.F ....|--- .... ....|--- .... ....
....|..|C-4 AF.F ....|--- .... ....|A-1 2F.7 ....
 A-3|..|A-1 2F.7 ....|--- .... ....|--- .... ....
....|..|C-4 CF.F ....|--- .... ....|B-1 2F.7 ....
 B-3|..|B-1 2F.7 ....|--- .... ....|--- .... ....
....|..|C-4 AF.F ....|--- .... ....|B-1 2F.A ....
 B-3|..|B-1 2F.A ....|--- .... ....|--- .... ....
....|..|C-4 AF.F ....|--- .... ....|B-1 2F.F ....
 B-3|..|B-1 2A.F ....|--- .... ....|--- .... ....
....|..|B-8 JF.F ....|--- .... ....|C-2 2F.F ....
 C-4|..|C-2 2A.F ....|--- .... ....|--- .... ....
....|..|C-4 AF.F ....|--- .... ....|B-1 2F.F ....
 B-3|..|B-1 2A.F ....|--- .... ....|--- .... ....
....|..|B-8 JF.F ....|--- .... ....|B-1 2F.F ....
 B-3|..|B-1 2A.F ....|--- .... ....|R-- .... ....
....|..|C-4 AF.F ....|--- .... ....|G-1 2F.F ....
 G-3|..|G-1 2A.F ....|--- .... ....|--- .... ....
....|..|B-8 JF.7 ....|--- .... ....|B-1 2F.7 ....
 B-3|..|B-1 2F.7 ....|--- .... ....|--- .... ....
....|..|C-4 AF.F ....|--- .... ....|C-2 2F.7 ....
 C-4|..|C-2 2F.7 ....|--- .... ....|--- .... ....
....|..|B-8 JF.7 ....|--- .... ....|C-2 2F.A ....
....|..|R-- .... ....|--- .... ....|R-- .... ....

[Pattern36]
....|..|C-4 AF.F ....|--- .... ....|A-1 2F.F ....
 A-3|..|A-1 2A.F ....|--- .... ....|--- .... ....
....|..|C-4 AF.7 ....|--- .... ....|R-- .... ....
....|..|R-- .... ....|--- .... ....|R-- .... ....
....|..|B-8 JF.F ....|--- .... ....|G-1 2F.A ....
 G-3|..|G-1 2F.A ....|--- .... ....|--- .... ....
....|..|C-4 AF.7 ....|--- .... ....|--- .... ....
....|..|--- .... ....|--- .... ....|--- .... ....
....|..|C-4 AF.F ....|--- .... ....|A-1 2F.F ....
 A-3|..|A-1 2A.F ....|--- .... ....|--- .... ....
....|..|C-4 AF.F ....|--- .... ....|A-1 2F.F ....
 A-3|..|A-1 2A.F ....|--- .... ....|R-- .... ....
....|..|C-4 AF.F ....|--- .... ....|A-1 2F.F ....
 A-3|..|A-1 2A.F ....|--- .... ....|--- .... ....
....|..|C-4 AF.F ....|--- .... ....|A-1 2F.F ....
 A-3|..|A-1 2A.F ....|--- .... ....|R-- .... ....
....|..|C-4 AF.F ....|--- .... ....|A-1 2F.F ....
 A-3|..|A-1 2A.F ....|--- .... ....|--- .... ....
....|..|C-4 AF.F ....|--- .... ....|A-1 2F.F ....
 A-3|..|A-1 2A.F ....|--- .... ....|--- .... ....
....|..|C-4 AF.F ....|--- .... ....|C-2 2F.F ....
 C-4|..|C-2 2A.F ....|--- .... ....|--- .... ....
....|..|C-4 AF.A ....|--- .... ....|A-1 2F.A ....
....|..|R-- .... ....|--- .... ....|R-- .... ....
....|..|C-4 AF.F ....|--- .... ....|A-1 2F.F ....
 A-3|..|A-1 2A.F ....|--- .... ....|--- .... ....
....|..|R-- .... ....|--- .... ....|R-- .... ....
 A-3|..|A-1 2F.A ....|--- .... ....|--- .... ....
....|..|C-4 AF.F ....|--- .... ....|G-1 2F.F ....
 G-3|..|G-1 2A.F ....|--- .... ....|--- .... ....
....|..|C-4 AF.A ....|--- .... ....|A-1 2F.A ....
 A-3|..|A-1 2F.A ....|--- .... ....|--- .... ....
....|..|C-4 AF.F ....|--- .... ....|A-1 2F.F ....
 A-3|..|A-1 2A.F ....|--- .... ....|--- .... ....
....|..|C-4 AF.7 ....|--- .... ....|A-1 2F.7 ....
 A-3|..|A-1 2F.7 ....|--- .... ....|--- .... ....
....|..|C-4 AF.F ....|--- .... ....|A-1 2F.7 ....
 A-3|..|A-1 2F.7 ....|--- .... ....|--- .... ....
....|..|B-8 JF.F ....|--- .... ....|A-1 2F.7 ....
 A-3|..|A-1 2F.7 ....|--- .... ....|--- .... ....
....|..|C-4 AF.F ....|--- .... ....|A-1 2F.F ....
 A-3|..|A-1 2A.F ....|--- .... ....|--- .... ....
....|..|C-4 AF.F ....|--- .... ....|A-1 2F.F ....
 A-3|..|A-1 2A.F ....|--- .... ....|--- .... ....
....|..|C-4 AF.F ....|--- .... ....|A-1 2F.F ....
 A-3|..|A-1 2A.F ....|--- .... ....|--- .... ....
....|..|C-4 AF.F ....|--- .... ....|A-1 2F.F ....
 A-3|..|A-1 2A.F ....|--- .... ....|--- .... ....
....|..|C-4 AF.F ....|--- .... ....|A-1 2F.F ....
 A-3|..|A-1 2A.F ....|--- .... ....|--- .... ....
....|..|C-4 AF.F ....|--- .... ....|A-1 2F.F ....
 A-3|..|A-1 2A.F ....|--- .... ....|--- .... ....
....|..|C-4 AF.F ....|--- .... ....|C-2 2F.F ....
 C-4|..|C-2 2A.F ....|--- .... ....|--- .... ....
....|..|B-8 JF.F ....|--- .... ....|A-1 2F.A ....
 A-3|..|A-1 2F.A ....|--- .... ....|--- .... ....
....|..|C-4 AF.F ....|--- .... ....|A-1 2F.F ....
 A-3|..|A-1 2A.F ....|--- .... ....|--- .... ....
....|..|C-4 AF.A ....|--- .... ....|A-1 2F.A ....
 A-3|..|A-1 2F.A ....|--- .... ....|--- .... ....
....|..|C-4 AF.F ....|--- .... ....|G-1 2F.F ....
 G-3|..|G-1 2A.F ....|--- .... ....|--- .... ....
....|..|B-8 JF.7 ....|--- .... ....|A-1 2F.A ....
 A-3|..|A-1 2F.A ....|--- .... ....|--- .... ....

[Pattern37]
....|..|C-4 AF.F ....|--- .... ....|A-1 2F.F ....
 A-3|..|A-1 2A.F ....|--- .... ....|--- .... ....
....|..|C-4 AF.7 ....|--- .... ....|A-1 2F.7 ....
 A-3|..|A-1 2F.7 ....|--- .... ....|--- .... ....
....|..|B-8 JF.F ....|--- .... ....|A-1 2F.7 ....
 A-3|..|A-1 2F.7 ....|--- .... ....|--- .... ....
....|..|C-4 AF.7 ....|--- .... ....|A-1 2F.7 ....
 A-3|..|A-1 2F.7 ....|--- .... ....|--- .... ....
....|..|C-4 AF.F ....|--- .... ....|A-1 2F.F ....
 A-3|..|A-1 2A.F ....|--- .... ....|--- .... ....
....|..|C-4 AF.F ....|--- .... ....|A-1 2F.F ....
 A-3|..|A-1 2A.F ....|--- .... ....|--- .... ....
....|..|C-4 AF.F ....|--- .... ....|A-1 2F.F ....
 A-3|..|A-1 2A.F ....|--- .... ....|--- .... ....
....|..|C-4 AF.F ....|--- .... ....|A-1 2F.F ....
 A-3|..|A-1 2A.F ....|--- .... ....|--- .... ....
....|..|C-4 AF.F ....|--- .... ....|A-1 2F.F ....
 A-3|..|A-1 2A.F ....|--- .... ....|--- .... ....
....|..|C-4 AF.F ....|--- .... ....|A-1 2F.F ....
 A-3|..|A-1 2A.F ....|--- .... ....|--- .... ....
....|..|C-4 AF.F ....|--- .... ....|C-2 2F.F ....
 C-4|..|C-2 2A.F ....|--- .... ....|--- .... ....
....|..|C-4 AF.A ....|--- .... ....|A-1 2F.A ....
 A-3|..|A-1 2F.A ....|--- .... ....|--- .... ....
....|..|C-4 AF.F ....|--- .... ....|A-1 2F.F ....
 A-3|..|A-1 2A.F ....|--- .... ....|--- .... ....
....|..|B-8 JF.F ....|--- .... ....|A-1 2F.A ....
 A-3|..|A-1 2F.A ....|--- .... ....|--- .... ....
....|..|C-4 AF.F ....|--- .... ....|G-1 2F.F ....
 G-3|..|G-1 2A.F ....|--- .... ....|--- .... ....
....|..|C-4 AF.A ....|--- .... ....|A-1 2F.A ....
 A-3|..|A-1 2F.A ....|--- .... ....|--- .... ....
....|..|C-4 AF.F ....|--- .... ....|A-1 2F.F ....
 A-3|..|A-1 2A.F ....|--- .... ....|--- .... ....
....|..|C-4 AF.7 ....|--- .... ....|A-1 2F.7 ....
 A-3|..|A-1 2F.7 ....|--- .... ....|--- .... ....
....|..|B-8 JF.F ....|--- .... ....|A-1 2F.7 ....
 A-3|..|A-1 2F.7 ....|--- .... ....|--- .... ....
....|..|C-4 AF.7 ....|--- .... ....|A-1 2F.7 ....
 A-3|..|A-1 2F.7 ....|--- .... ....|--- .... ....
....|..|C-4 AF.F ....|--- .... ....|A-1 2F.7 ....
 A-3|..|A-1 2F.7 ....|--- .... ....|--- .... ....
....|..|C-4 AF.7 ....|--- .... ....|A-1 2F.7 ....
 A-3|..|A-1 2F.7 ....|--- .... ....|--- .... ....
....|..|C-4 CF.F ....|--- .... ....|C-2 2F.7 ....
 C-4|..|C-2 2F.7 ....|--- .... ....|--- .... ....
....|..|B-8 JF.F ....|--- .... ....|--- .... ....
....|..|--- .... ....|--- .... ....|--- .... ....
....|..|B-8 JF.F ....|--- .... ....|A-1 2F.7 ....
 A-3|..|A-1 2F.7 ....|--- .... ....|--- .... ....
....|..|B-8 JF.F ....|--- .... ....|--- .... ....
....|..|--- .... ....|--- .... ....|--- .... ....
....|..|C-4 AF.F ....|--- .... ....|G-1 2F.7 ....
 G-3|..|G-1 2F.7 ....|--- .... ....|--- .... ....
....|..|--- .... ....|--- .... ....|--- .... ....
....|..|--- .... ....|--- .... ....|--- .... ....
....|..|B-8 JF.F ....|--- .... ....|A-1 2F.7 ....
 A-3|..|A-1 2F.7 ....|--- .... ....|--- .... ....
....|..|B-8 JF.A ....|--- .... ....|--- .... ....
....|..|--- .... ....|--- .... ....|--- .... ....
....|..|C-4 AF.F ....|--- .... ....|--- .... ....
....|..|--- .... ....|--- .... ....|--- .... ....
....|..|B-8 JF.F ....|--- .... ....|--- .... ....
....|..|--- .... ....|--- .... ....|--- .... ....

[Pattern38]
....|..|C-4 AF.F ....|E-5 2F.F ....|A-1 2F.F ....
 A-3|..|A-1 2A.F ....|R-- .... ....|--- .... ....
....|..|--- .... ....|--- .... ....|--- .... ....
....|..|R-- .... ....|--- .... ....|R-- .... ....
....|..|B-8 JF.F ....|--- .... ....|--- .... ....
....|..|--- .... ....|--- .... ....|--- .... ....
....|..|B-8 JF.7 ....|--- .... ....|--- .... ....
....|..|--- .... ....|--- .... ....|--- .... ....
....|..|B-8 JF.F ....|--- .... ....|A-1 2F.F ....
 A-3|..|A-1 2A.F ....|--- .... ....|R-- .... ....
 A-3|..|A-1 2A.F ....|--- .... ....|A-1 2F.F ....
....|..|--- .... ....|--- .... ....|--- .... ....
....|..|C-4 CF.F ....|E-5 2F.A ....|A-1 2F.F ....
 A-3|..|A-1 2A.F ....|R-- .... ....|R-- .... ....
 A-3|..|A-1 2A.F ....|--- .... ....|A-1 2F.F ....
....|..|R-- .... ....|--- .... ....|R-- .... ....
....|..|B-8 JF.F ....|--- .... ....|G-1 2F.F ....
 G-3|..|G-1 2A.F ....|--- .... ....|--- .... ....
....|..|B-8 JF.F ....|--- .... ....|A-1 2F.F ....
 A-3|..|A-1 2A.F ....|--- .... ....|--- .... ....
....|..|C-4 AF.F ....|--- .... ....|B-1 2F.F ....
 B-3|..|B-1 2A.F ....|--- .... ....|R-- .... ....
....|..|B-8 JF.F ....|--- .... ....|A-1 2F.A ....
....|..|--- .... ....|--- .... ....|--- .... ....
....|..|C-4 AF.F ....|E-5 2F.7 ....|B-1 2F.F ....
 B-3|..|B-1 2A.F ....|R-- .... ....|R-- .... ....
....|..|B-8 JF.F ....|--- .... ....|R-- .... ....
....|..|R-- .... ....|--- .... ....|R-- .... ....
....|..|C-4 CF.F ....|--- .... ....|G-1 2F.A ....
 G-3|..|G-1 2F.A ....|--- .... ....|--- .... ....
....|..|B-8 JF.F ....|--- .... ....|A-1 2F.A ....
 A-3|..|A-1 2F.A ....|--- .... ....|--- .... ....
....|..|B-8 JF.F ....|--- .... ....|A-1 2F.F ....
 A-3|..|A-1 2A.F ....|--- .... ....|R-- .... ....
 B-3|..|B-1 2A.F ....|--- .... ....|B-1 2F.F ....
....|..|--- .... ....|--- .... ....|--- .... ....
....|..|C-4 AF.F ....|--- .... ....|C-2 2F.F ....
 C-4|..|C-2 2A.F ....|--- .... ....|R-- .... ....
 A-3|..|A-1 2F.7 ....|--- .... ....|A-1 2F.7 ....
....|..|R-- .... ....|--- .... ....|R-- .... ....
....|..|C-4 AF.F ....|--- .... ....|C-2 2F.F ....
 C-4|..|C-2 2A.F ....|--- .... ....|--- .... ....
....|..|B-8 JF.7 ....|--- .... ....|A-1 2F.7 ....
 A-3|..|A-1 2F.7 ....|--- .... ....|--- .... ....
....|..|C-4 CF.F ....|--- .... ....|B-1 2F.7 ....
 B-3|..|B-1 2F.7 ....|--- .... ....|--- .... ....
....|..|B-8 JF.7 ....|--- .... ....|B-1 2F.A ....
....|..|--- .... ....|--- .... ....|--- .... ....
....|..|B-8 JF.F ....|--- .... ....|B-1 2F.F ....
 B-3|..|B-1 2A.F ....|--- .... ....|--- .... ....
....|..|B-8 JF.F ....|--- .... ....|C-2 2F.F ....
 C-4|..|C-2 2A.F ....|--- .... ....|--- .... ....
....|..|C-4 AF.F ....|--- .... ....|B-1 2F.F ....
 B-3|..|B-1 2A.F ....|--- .... ....|--- .... ....
 B-3|..|B-1 2A.F ....|--- .... ....|B-1 2F.F ....
....|..|R-- .... ....|--- .... ....|R-- .... ....
....|..|C-4 AF.F ....|--- .... ....|G-1 2F.F ....
 G-3|..|G-1 2A.F ....|--- .... ....|--- .... ....
 B-3|..|B-1 2F.7 ....|--- .... ....|B-1 2F.7 ....
....|..|R-- .... ....|--- .... ....|R-- .... ....
....|..|C-4 CF.F ....|--- .... ....|G-1 2F.F ....
 G-3|..|G-1 2A.F ....|--- .... ....|--- .... ....
....|..|B-8 JF.A ....|--- .... ....|C-2 2F.A ....
....|..|R-- .... ....|--- .... ....|R-- .... ....

[Pattern39]
....|..|C-4 AF.F ....|--- .... ....|A-1 2F.F ....
 A-3|..|A-1 2A.F ....|--- .... ....|--- .... ....
....|..|R-- .... ....|--- .... ....|R-- .... ....
....|..|R-- .... ....|--- .... ....|R-- .... ....
....|..|B-8 JF.F ....|--- .... ....|G-1 2F.A ....
 G-3|..|G-1 2F.A ....|--- .... ....|--- .... ....
....|..|B-8 JF.F ....|--- .... ....|--- .... ....
....|..|R-- .... ....|--- .... ....|R-- .... ....
....|..|B-8 JF.F ....|--- .... ....|A-1 2F.F ....
 A-3|..|A-1 2A.F ....|--- .... ....|R-- .... ....
 A-3|..|A-1 2A.F ....|--- .... ....|A-1 2F.F ....
 C-4|..|C-2 2F.7 ....|--- .... ....|R-- .... ....
....|..|C-4 CF.F ....|--- .... ....|A-1 2F.F ....
 A-3|..|A-1 2A.F ....|--- .... ....|R-- .... ....
 A-3|..|A-1 2A.F ....|--- .... ....|A-1 2F.F ....
....|..|R-- .... ....|--- .... ....|R-- .... ....
....|..|B-8 JF.F ....|--- .... ....|G-1 2F.F ....
 G-3|..|G-1 2A.F ....|--- .... ....|--- .... ....
....|..|B-8 JF.F ....|--- .... ....|A-1 2F.F ....
 A-3|..|A-1 2A.F ....|--- .... ....|R-- .... ....
....|..|C-4 AF.F ....|--- .... ....|B-1 2F.F ....
 B-3|..|B-1 2A.F ....|--- .... ....|R-- .... ....
 A-3|..|A-1 2F.A ....|--- .... ....|A-1 2F.A ....
....|..|R-- .... ....|--- .... ....|R-- .... ....
....|..|C-4 AF.F ....|--- .... ....|B-1 2F.F ....
 B-3|..|B-1 2A.F ....|--- .... ....|R-- .... ....
....|..|R-- .... ....|--- .... ....|R-- .... ....
....|..|R-- .... ....|--- .... ....|R-- .... ....
....|..|C-4 CF.F ....|--- .... ....|G-1 2F.A ....
 G-3|..|G-1 2F.A ....|--- .... ....|--- .... ....
....|..|B-8 JF.7 ....|--- .... ....|A-1 2F.A ....
 A-3|..|A-1 2F.A ....|--- .... ....|--- .... ....
....|..|B-8 JF.F ....|--- .... ....|A-1 2F.F ....
 A-3|..|A-1 2A.F ....|--- .... ....|R-- .... ....
....|..|B-8 JF.F ....|--- .... ....|B-1 2F.F ....
 B-3|..|B-1 2A.F ....|--- .... ....|--- .... ....
....|..|C-4 AF.F ....|--- .... ....|C-2 2F.F ....
 C-4|..|C-2 2A.F ....|--- .... ....|R-- .... ....
....|..|B-8 JF.F ....|--- .... ....|A-1 2F.7 ....
....|..|--- .... ....|--- .... ....|--- .... ....
....|..|C-4 AF.F ....|--- .... ....|C-2 2F.F ....
 C-4|..|C-2 2A.F ....|--- .... ....|--- .... ....
....|..|B-8 JF.7 ....|--- .... ....|A-1 2F.7 ....
 A-3|..|A-1 2F.7 ....|--- .... ....|--- .... ....
....|..|C-4 CF.F ....|--- .... ....|B-1 2F.7 ....
 B-3|..|B-1 2F.7 ....|--- .... ....|--- .... ....
....|..|B-8 JF.A ....|--- .... ....|B-1 2F.A ....
 B-3|..|B-1 2F.A ....|--- .... ....|--- .... ....
....|..|B-8 JF.F ....|--- .... ....|B-1 2F.F ....
 B-3|..|B-1 2A.F ....|--- .... ....|--- .... ....
....|..|B-8 JF.F ....|--- .... ....|C-2 2F.F ....
 C-4|..|C-2 2A.F ....|--- .... ....|--- .... ....
....|..|C-4 AF.F ....|--- .... ....|B-1 2F.F ....
 B-3|..|B-1 2A.F ....|--- .... ....|--- .... ....
....|..|B-8 JF.F ....|--- .... ....|B-1 2F.F ....
 B-3|..|B-1 2A.F ....|--- .... ....|R-- .... ....
....|..|C-4 AF.F ....|--- .... ....|G-1 2F.F ....
 G-3|..|G-1 2A.F ....|--- .... ....|--- .... ....
....|..|B-8 JF.F ....|--- .... ....|B-1 2F.7 ....
 B-3|..|B-1 2F.7 ....|--- .... ....|R-- .... ....
....|..|C-4 CF.F ....|--- .... ....|G-1 2F.F ....
 G-3|..|G-1 2A.F ....|--- .... ....|--- .... ....
....|..|B-8 JF.F ....|--- .... ....|C-2 2F.A ....
 C-4|..|C-2 2F.A ....|--- .... ....|--- .... ....

[Pattern40]
....|..|C-4 AF.F ....|--- .... ....|A-1 2F.F ....
 A-3|..|A-1 2A.F ....|--- .... ....|--- .... ....
....|..|R-- .... ....|--- .... ....|R-- .... ....
 B-3|..|B-1 2F.A ....|--- .... ....|R-- .... ....
....|..|B-8 JF.F ....|--- .... ....|G-1 2F.A ....
 G-3|..|G-1 2F.A ....|--- .... ....|--- .... ....
....|..|B-8 JF.A ....|--- .... ....|--- .... ....
....|..|R-- .... ....|--- .... ....|R-- .... ....
....|..|B-8 JF.F ....|--- .... ....|A-1 2F.F ....
 A-3|..|A-1 2A.F ....|--- .... ....|R-- .... ....
 A-3|..|A-1 2A.F ....|--- .... ....|A-1 2F.F ....
 C-4|..|C-2 2F.7 ....|--- .... ....|--- .... ....
....|..|C-4 CF.F ....|--- .... ....|A-1 2F.F ....
 A-3|..|A-1 2A.F ....|--- .... ....|R-- .... ....
 A-3|..|A-1 2A.F ....|--- .... ....|A-1 2F.F ....
 B-3|..|B-1 2F.7 ....|--- .... ....|R-- .... ....
....|..|B-8 JF.F ....|--- .... ....|G-1 2F.F ....
 G-3|..|G-1 2A.F ....|--- .... ....|--- .... ....
....|..|B-8 JF.F ....|--- .... ....|A-1 2F.F ....
 A-3|..|A-1 2A.F ....|--- .... ....|R-- .... ....
....|..|C-4 AF.F ....|--- .... ....|B-1 2F.F ....
 B-3|..|B-1 2A.F ....|--- .... ....|R-- .... ....
....|..|B-8 JF.F ....|--- .... ....|A-1 2F.A ....
....|..|--- .... ....|--- .... ....|--- .... ....
....|..|C-4 AF.F ....|--- .... ....|B-1 2F.F ....
 B-3|..|B-1 2A.F ....|--- .... ....|R-- .... ....
....|..|R-- .... ....|--- .... ....|R-- .... ....
....|..|R-- .... ....|--- .... ....|R-- .... ....
....|..|C-4 CF.F ....|--- .... ....|G-1 2F.A ....
 G-3|..|G-1 2F.A ....|--- .... ....|--- .... ....
....|..|B-8 JF.A ....|--- .... ....|A-1 2F.A ....
 A-3|..|A-1 2F.A ....|--- .... ....|--- .... ....
....|..|B-8 JF.F ....|--- .... ....|A-1 2F.F ....
 A-3|..|A-1 2A.F ....|--- .... ....|R-- .... ....
....|..|B-8 JF.F ....|--- .... ....|B-1 2F.F ....
 B-3|..|B-1 2A.F ....|--- .... ....|--- .... ....
....|..|C-4 AF.F ....|--- .... ....|C-2 2F.F ....
 C-4|..|C-2 2A.F ....|--- .... ....|R-- .... ....
 A-3|..|A-1 2F.7 ....|--- .... ....|A-1 2F.7 ....
....|..|R-- .... ....|--- .... ....|R-- .... ....
....|..|C-4 AF.F ....|--- .... ....|C-2 2F.F ....
 C-4|..|C-2 2A.F ....|--- .... ....|--- .... ....
....|..|B-8 JF.7 ....|--- .... ....|A-1 2F.7 ....
 A-3|..|A-1 2F.7 ....|--- .... ....|--- .... ....
....|..|C-4 CF.F ....|--- .... ....|B-1 2F.7 ....
 B-3|..|B-1 2F.7 ....|--- .... ....|--- .... ....
....|..|B-8 JF.7 ....|--- .... ....|B-1 2F.A ....
 B-3|..|B-1 2F.A ....|--- .... ....|--- .... ....
....|..|B-8 JF.F ....|--- .... ....|B-1 2F.F ....
 B-3|..|B-1 2A.F ....|--- .... ....|--- .... ....
....|..|B-8 JF.F ....|--- .... ....|C-2 2F.F ....
 C-4|..|C-2 2A.F ....|--- .... ....|--- .... ....
....|..|C-4 AF.F ....|--- .... ....|B-1 2F.F ....
 B-3|..|B-1 2A.F ....|--- .... ....|--- .... ....
 B-3|..|B-1 2A.F ....|--- .... ....|B-1 2F.F ....
....|..|R-- .... ....|--- .... ....|R-- .... ....
....|..|C-4 AF.F ....|--- .... ....|G-1 2F.F ....
 G-3|..|G-1 2A.F ....|--- .... ....|--- .... ....
....|..|B-8 JF.7 ....|--- .... ....|B-1 2F.7 ....
 B-3|..|B-1 2F.7 ....|--- .... ....|R-- .... ....
....|..|C-4 CF.F ....|--- .... ....|G-1 2F.F ....
 G-3|..|G-1 2A.F ....|--- .... ....|--- .... ....
....|..|B-8 JF.A ....|--- .... ....|C-2 2F.A ....
....|..|R-- .... ....|--- .... ....|R-- .... ....

[Pattern41]
....|..|C-4 AF.F ....|--- .... ....|A-1 2F.F ....
 A-3|..|A-1 2A.F ....|--- .... ....|--- .... ....
....|..|R-- .... ....|--- .... ....|R-- .... ....
....|..|R-- .... ....|--- .... ....|R-- .... ....
....|..|B-8 JF.F ....|--- .... ....|G-1 2F.A ....
 G-3|..|G-1 2F.A ....|--- .... ....|--- .... ....
....|..|--- .... ....|--- .... ....|--- .... ....
....|..|R-- .... ....|--- .... ....|R-- .... ....
....|..|B-8 JF.F ....|--- .... ....|A-1 2F.F ....
 A-3|..|A-1 2A.F ....|--- .... ....|R-- .... ....
 A-3|..|A-1 2A.F ....|--- .... ....|A-1 2F.F ....
 C-4|..|C-2 2F.7 ....|--- .... ....|R-- .... ....
....|..|C-4 CF.F ....|--- .... ....|A-1 2F.F ....
 A-3|..|A-1 2A.F ....|--- .... ....|R-- .... ....
 A-3|..|A-1 2A.F ....|--- .... ....|A-1 2F.F ....
....|..|R-- .... ....|--- .... ....|R-- .... ....
....|..|B-8 JF.F ....|--- .... ....|G-1 2F.F ....
 G-3|..|G-1 2A.F ....|--- .... ....|--- .... ....
....|..|B-8 JF.F ....|--- .... ....|A-1 2F.F ....
 A-3|..|A-1 2A.F ....|--- .... ....|R-- .... ....
....|..|C-4 AF.F ....|--- .... ....|B-1 2F.F ....
 B-3|..|B-1 2A.F ....|--- .... ....|R-- .... ....
....|..|B-8 JF.F ....|--- .... ....|A-1 2F.A ....
....|..|R-- .... ....|--- .... ....|R-- .... ....
....|..|C-4 AF.F ....|--- .... ....|B-1 2F.F ....
 B-3|..|B-1 2A.F ....|--- .... ....|R-- .... ....
....|..|R-- .... ....|--- .... ....|R-- .... ....
....|..|R-- .... ....|--- .... ....|R-- .... ....
....|..|C-4 CF.F ....|--- .... ....|G-1 2F.A ....
 G-3|..|G-1 2F.A ....|--- .... ....|--- .... ....
....|..|B-8 JF.A ....|--- .... ....|A-1 2F.A ....
 A-3|..|A-1 2F.A ....|--- .... ....|--- .... ....
....|..|B-8 JF.F ....|--- .... ....|A-1 2F.F ....
 A-3|..|A-1 2A.F ....|--- .... ....|R-- .... ....
....|..|B-8 JF.F ....|--- .... ....|B-1 2F.F ....
 B-3|..|B-1 2A.F ....|--- .... ....|--- .... ....
....|..|C-4 AF.F ....|--- .... ....|C-2 2F.F ....
 C-4|..|C-2 2A.F ....|--- .... ....|R-- .... ....
 A-3|..|A-1 2F.7 ....|--- .... ....|A-1 2F.7 ....
....|..|--- .... ....|--- .... ....|--- .... ....
....|..|C-4 AF.F ....|--- .... ....|C-2 2F.F ....
 C-4|..|C-2 2A.F ....|--- .... ....|--- .... ....
....|..|B-8 JF.7 ....|--- .... ....|A-1 2F.7 ....
 A-3|..|A-1 2F.7 ....|--- .... ....|--- .... ....
....|..|C-4 CF.F ....|--- .... ....|B-1 2F.7 ....
 B-3|..|B-1 2F.7 ....|--- .... ....|--- .... ....
....|..|B-8 JF.7 ....|--- .... ....|B-1 2F.A ....
 B-3|..|B-1 2F.A ....|--- .... ....|--- .... ....
....|..|B-8 JF.F ....|--- .... ....|B-1 2F.F ....
 B-3|..|B-1 2A.F ....|--- .... ....|--- .... ....
....|..|B-8 JF.F ....|--- .... ....|C-2 2F.F ....
 C-4|..|C-2 2A.F ....|--- .... ....|--- .... ....
....|..|C-4 AF.F ....|--- .... ....|B-1 2F.F ....
 B-3|..|B-1 2A.F ....|--- .... ....|--- .... ....
....|..|B-8 JF.F ....|--- .... ....|B-1 2F.F ....
 B-3|..|B-1 2A.F ....|--- .... ....|R-- .... ....
....|..|C-4 AF.F ....|--- .... ....|G-1 2F.F ....
 G-3|..|G-1 2A.F ....|--- .... ....|--- .... ....
....|..|B-8 JF.7 ....|--- .... ....|B-1 2F.7 ....
 B-3|..|B-1 2F.7 ....|--- .... ....|R-- .... ....
....|..|C-4 CF.F ....|--- .... ....|G-1 2F.F ....
 G-3|..|G-1 2A.F ....|--- .... ....|--- .... ....
....|..|B-8 JF.A ....|--- .... ....|C-2 2F.A ....
 C-4|..|C-2 2F.A ....|--- .... ....|--- .... ....

[Pattern42]
....|..|C-4 AF.F ....|C-4 2F3F ....|C-5 2F.F ....
 A-3|..|A-1 2A.F ....|--- .... ....|--- .... ....
....|..|R-- .... ....|--- .... ....|R-- .... ....
 B-3|..|B-1 2F.A ....|--- .... ....|R-- .... ....
....|..|B-8 JF.F ....|--- .... ....|G-1 2F.A ....
 G-3|..|G-1 2F.A ....|--- .... ....|--- .... ....
....|..|--- .... ....|--- .... ....|--- .... ....
....|..|R-- .... ....|--- .... ....|R-- .... ....
....|..|B-8 JF.F ....|--- .... ....|A-1 2F.F ....
 A-3|..|A-1 2A.F ....|--- .... ....|--- .... ....
....|..|B-8 JF.7 ....|--- .... ....|C-2 2F.7 ....
 C-4|..|C-2 2F.7 ....|--- .... ....|--- .... ....
....|..|C-4 CF.F ....|C-5 2F.F ....|C-5 2F.F ....
 A-3|..|A-1 2A.F ....|R-- .... ....|R-- .... ....
....|..|B-8 JF.7 ....|C-5 2F.F ....|C-5 2F.F ....
 B-3|..|B-1 2F.7 ....|R-- .... ....|R-- .... ....
....|..|B-8 JF.F ....|C-5 2F.F ....|C-5 2F.F ....
 A-3|..|A-1 2A.F ....|R-- .... ....|R-- .... ....
....|..|B-8 JF.F ....|C-5 2F.F ....|C-5 2F.F ....
 A-3|..|A-1 2A.F ....|C-4 2F.F ....|C-4 2F.F ....
....|..|C-4 AF.F ....|B-4 2F.F ....|C-5 2F.F ....
 G-3|..|G-1 2A.F ....|B-3 2F4F ....|B-4 2F.F ....
....|..|R-- .... ....|--- .... ....|R-- .... ....
....|..|R-- .... ....|--- .... ....|B-4 2F.F ....
....|..|C-4 AF.F ....|G-4 2F.F ....|G-4 2F.F ....
 G-3|..|G-1 2A.F ....|R-- .... ....|R-- .... ....
....|..|R-- .... ....|R-- .... ....|R-- .... ....
....|..|--- .... ....|R-- .... ....|R-- .... ....
....|..|C-4 CF.F ....|C-5 2F.A ....|G-1 2F.F ....
 G-3|..|G-1 2A.F ....|R-- .... ....|R-- .... ....
....|..|R-- .... ....|C-5 2F.A ....|C-5 2F.A ....
 A-3|..|A-1 2F.A ....|C-4 2F.A ....|C-4 2F.A ....
....|..|B-8 JF.F ....|A-4 2F.F ....|A-4 2F.F ....
 G-3|..|G-1 2A.F ....|B-3 2F4A ....|R-- .... ....
....|..|B-8 JF.F ....|B-4 2F.F ....|B-4 2F.F ....
 G-3|..|G-1 2A.F ....|--- .... ....|B-4 2F.A ....
....|..|C-4 AF.F ....|A-4 2F.F ....|A-4 2F.F ....
 F-3|..|F-1 2A.F ....|A-3 2F4F ....|A-4 2F.F ....
....|..|R-- .... ....|A-3 2F4F ....|C-5 2F.7 ....
....|..|--- .... ....|R-- .... ....|R-- .... ....
....|..|C-4 AF.F ....|F-4 2F.F ....|F-4 2F.F ....
 F-3|..|F-1 2A.F ....|R-- .... ....|R-- .... ....
....|..|B-8 JF.7 ....|C-5 2F.7 ....|C-5 2F.7 ....
 A-3|..|A-1 2F.7 ....|C-4 2F.7 ....|C-4 2F.7 ....
....|..|C-4 CF.F ....|B-4 2F.7 ....|C-5 2F.7 ....
 G-3|..|G-1 2F.7 ....|B-3 2F47 ....|B-4 2F.7 ....
....|..|B-8 JF.A ....|B-4 2F.A ....|B-4 2F.A ....
....|..|R-- .... ....|--- .... ....|B-4 2F.7 ....
....|..|B-8 JF.F ....|A-4 2F.F ....|A-4 2F.F ....
 F-3|..|F-1 2A.F ....|R-- .... ....|R-- .... ....
....|..|B-8 JF.F ....|A-4 2F.F ....|A-4 2F.F ....
 F-3|..|F-1 2A.F ....|A-3 2F.F ....|C-4 2F.F ....
....|..|C-4 AF.F ....|B-4 2F.F ....|B-4 2F.F ....
 G-3|..|G-1 2A.F ....|A-3 2F5F ....|B-4 2F.F ....
....|..|R-- .... ....|B-3 2F4F ....|R-- .... ....
....|..|--- .... ....|--- .... ....|--- .... ....
....|..|C-4 AF.F ....|G-4 2F.F ....|B-4 2F.F ....
 E-3|..|E-1 2A.F ....|--- .... ....|G-4 2F.F ....
....|..|B-8 JF.F ....|B-4 2F.7 ....|B-4 2F.7 ....
 G-3|..|G-1 2F.7 ....|--- .... ....|--- .... ....
....|..|C-4 CF.F ....|A-4 2F.7 ....|G-1 2F.F ....
 G-3|..|G-1 2A.F ....|A-3 2F47 ....|A-4 2F.7 ....
....|..|B-8 JF.F ....|A-3 2F47 ....|A-4 2F.A ....
 F-3|..|F-1 2F.A ....|A-3 2F.A ....|C-4 2F.A ....

[Pattern43]
....|..|C-4 AF.F ....|C-4 2F3F ....|C-5 2F.F ....
 A-3|..|A-1 2A.F ....|C-4 2F3F ....|C-5 2F.F ....
....|..|R-- .... ....|R-- .... ....|R-- .... ....
....|..|--- .... ....|--- .... ....|--- .... ....
....|..|B-8 JF.F ....|G-4 2F.A ....|B-4 2F.A ....
 E-3|..|E-1 2F.A ....|--- .... ....|G-4 2F.A ....
....|..|B-8 JF.A ....|R-- .... ....|R-- .... ....
....|..|--- .... ....|--- .... ....|--- .... ....
....|..|B-8 JF.F ....|C-5 2F.F ....|C-5 2F.F ....
 A-3|..|A-1 2A.F ....|R-- .... ....|R-- .... ....
....|..|B-8 JF.F ....|C-5 2F.F ....|C-5 2F.F ....
 A-3|..|A-1 2A.F ....|A-3 2F.7 ....|C-4 2F.7 ....
....|..|C-4 CF.F ....|C-5 2F.F ....|C-5 2F.F ....
 A-3|..|A-1 2A.F ....|A-3 2F57 ....|B-4 2F.7 ....
....|..|R-- .... ....|B-3 2F47 ....|C-5 2F.F ....
....|..|--- .... ....|--- .... ....|R-- .... ....
....|..|B-8 JF.F ....|C-5 2F.F ....|C-5 2F.F ....
 A-3|..|A-1 2A.F ....|R-- .... ....|G-4 2F.7 ....
....|..|B-8 JF.F ....|C-5 2F.F ....|C-5 2F.F ....
 A-3|..|A-1 2A.F ....|C-4 2F.F ....|R-- .... ....
....|..|C-4 AF.F ....|B-4 2F.F ....|B-4 2F.F ....
 G-3|..|G-1 2A.F ....|B-3 2F4F ....|R-- .... ....
....|..|B-8 JF.7 ....|C-5 2F.A ....|C-5 2F.A ....
 A-3|..|A-1 2F.A ....|R-- .... ....|R-- .... ....
....|..|C-4 AF.F ....|G-4 2F.F ....|G-4 2F.F ....
 G-3|..|G-1 2A.F ....|C-4 2F37 ....|C-5 2F.7 ....
....|..|R-- .... ....|R-- .... ....|R-- .... ....
....|..|--- .... ....|--- .... ....|R-- .... ....
....|..|C-4 CF.F ....|C-5 2F.A ....|G-1 2F.F ....
 G-3|..|G-1 2A.F ....|R-- .... ....|R-- .... ....
....|..|R-- .... ....|C-5 2F.A ....|C-5 2F.A ....
 A-3|..|A-1 2F.A ....|C-4 2F.A ....|R-- .... ....
....|..|B-8 JF.F ....|A-4 2F.F ....|A-4 2F.F ....
 G-3|..|G-1 2A.F ....|R-- .... ....|C-4 2F.F ....
....|..|B-8 JF.F ....|B-4 2F.F ....|B-4 2F.F ....
 G-3|..|G-1 2A.F ....|R-- .... ....|R-- .... ....
....|..|C-4 AF.F ....|A-4 2F.F ....|B-4 2F.F ....
 F-3|..|F-1 2A.F ....|A-3 2F6F ....|A-4 2F.F ....
....|..|B-8 JF.F ....|A-3 2F4F ....|C-5 2F.7 ....
....|..|--- .... ....|--- .... ....|R-- .... ....
....|..|C-4 AF.F ....|F-4 2F.F ....|F-4 2F.F ....
 F-3|..|F-1 2A.F ....|R-- .... ....|R-- .... ....
....|..|B-8 JF.7 ....|C-5 2F.7 ....|C-5 2F.7 ....
 A-3|..|A-1 2F.7 ....|C-4 2F.7 ....|R-- .... ....
....|..|C-4 CF.F ....|B-4 2F.7 ....|B-4 2F.7 ....
 G-3|..|G-1 2F.7 ....|B-3 2F47 ....|C-4 2F.A ....
....|..|B-8 JF.A ....|B-4 2F.A ....|B-4 2F.A ....
 G-3|..|G-1 2F.A ....|--- .... ....|R-- .... ....
....|..|B-8 JF.F ....|A-4 2F.F ....|A-4 2F.F ....
 F-3|..|F-1 2A.F ....|R-- .... ....|R-- .... ....
....|..|B-8 JF.F ....|A-4 2F.F ....|A-4 2F.F ....
 F-3|..|F-1 2A.F ....|A-3 2F.F ....|A-3 2F.F ....
....|..|C-4 AF.F ....|G#4 2F.F ....|G#4 2F.F ....
 E-3|..|E-1 2A.F ....|A-3 2F.F ....|G#3 2F4F ....
....|..|R-- .... ....|G#3 2F4F ....|R-- .... ....
....|..|--- .... ....|G#3 2F4F ....|--- .... ....
....|..|C-4 AF.F ....|G#4 2F.F ....|G#4 2F.F ....
 E-3|..|E-1 2A.F ....|--- .... ....|C-4 2F.7 ....
....|..|B-8 JF.7 ....|B-4 2F.7 ....|B-4 2F.7 ....
 G-3|..|G-1 2F.7 ....|--- .... ....|R-- .... ....
....|..|C-4 CF.F ....|B-4 2F.F ....|B-4 2F.F ....
 G-3|..|G-1 2A.F ....|A-3 2F67 ....|A-4 2F.7 ....
....|..|B-8 JF.7 ....|A-3 2F47 ....|A-4 2F.A ....
 F-3|..|F-1 2F.A ....|A-3 2F.A ....|B-4 2F.F ....

[Pattern44]
....|..|C-4 AF.F ....|C-5 2F.F ....|C-5 2F.F ....
 A-3|..|A-1 2A.F ....|G#3 2F7F ....|C-5 2F.F ....
....|..|R-- .... ....|C-4 2F3F ....|R-- .... ....
....|..|--- .... ....|G#3 2F4A ....|--- .... ....
....|..|B-8 JF.F ....|G#4 2F.A ....|G#4 2F.A ....
 E-3|..|E-1 2F.A ....|--- .... ....|--- .... ....
....|..|--- .... ....|R-- .... ....|--- .... ....
....|..|--- .... ....|--- .... ....|--- .... ....
....|..|B-8 JF.F ....|C-5 2F.F ....|C-5 2F.F ....
 A-3|..|A-1 2A.F ....|R-- .... ....|R-- .... ....
....|..|B-8 JF.7 ....|C-5 2F.F ....|C-5 2F.F ....
 F-3|..|F-1 2F.7 ....|A-3 2F.7 ....|A-3 2F.7 ....
....|..|C-4 CF.F ....|C-5 2F.F ....|C-5 2F.F ....
 A-3|..|A-1 2A.F ....|A-3 2F.7 ....|G#3 2F47 ....
....|..|B-8 JF.F ....|C-5 2F.F ....|C-5 2F.F ....
....|..|R-- .... ....|G#3 2F47 ....|R-- .... ....
....|..|B-8 JF.F ....|C-5 2F.F ....|C-5 2F.F ....
 A-3|..|A-1 2A.F ....|R-- .... ....|R-- .... ....
....|..|B-8 JF.F ....|C-5 2F.F ....|C-5 2F.F ....
 A-3|..|A-1 2A.F ....|--- .... ....|R-- .... ....
....|..|C-4 AF.F ....|B-4 2F.F ....|B-4 2F.F ....
 G-3|..|G-1 2A.F ....|B-3 2F4F ....|R-- .... ....
....|..|R-- .... ....|C-5 2F.A ....|C-5 2F.A ....
....|..|--- .... ....|R-- .... ....|B-4 2F.F ....
....|..|C-4 AF.F ....|G-4 2F.F ....|G-4 2F.F ....
 G-3|..|G-1 2A.F ....|G#3 2F77 ....|C-5 2F.7 ....
....|..|R-- .... ....|C-4 2F37 ....|R-- .... ....
....|..|R-- .... ....|R-- .... ....|R-- .... ....
....|..|C-4 CF.F ....|C-5 2F.A ....|G-1 2F.F ....
 G-3|..|G-1 2A.F ....|R-- .... ....|R-- .... ....
....|..|R-- .... ....|C-5 2F.A ....|C-5 2F.A ....
 A-3|..|A-1 2F.A ....|--- .... ....|R-- .... ....
....|..|B-8 JF.F ....|A-4 2F.F ....|A-4 2F.F ....
 G-3|..|G-1 2A.F ....|R-- .... ....|R-- .... ....
....|..|B-8 JF.F ....|B-4 2F.F ....|B-4 2F.F ....
 G-3|..|G-1 2A.F ....|R-- .... ....|R-- .... ....
....|..|C-4 AF.F ....|A-4 2F.F ....|B-4 2F.F ....
 F-3|..|F-1 2A.F ....|A-3 2F4F ....|A-4 2F.F ....
....|..|B-8 JF.F ....|A-3 2F4F ....|C-5 2F.7 ....
....|..|R-- .... ....|R-- .... ....|R-- .... ....
....|..|C-4 AF.F ....|A-4 2F.F ....|F-4 2F.F ....
 F-3|..|F-1 2A.F ....|F-4 2F.F ....|R-- .... ....
....|..|B-8 JF.7 ....|C-5 2F.7 ....|C-5 2F.7 ....
 A-3|..|A-1 2F.7 ....|--- .... ....|R-- .... ....
....|..|C-4 CF.F ....|B-4 2F.7 ....|B-4 2F.7 ....
 G-3|..|G-1 2F.7 ....|B-3 2F47 ....|R-- .... ....
....|..|B-8 JF.A ....|B-4 2F.A ....|B-4 2F.A ....
 G-3|..|G-1 2F.A ....|--- .... ....|B-4 2F.7 ....
....|..|B-8 JF.F ....|A-4 2F.F ....|A-4 2F.F ....
 F-3|..|F-1 2A.F ....|R-- .... ....|R-- .... ....
....|..|B-8 JF.F ....|A-4 2F.F ....|A-4 2F.F ....
 F-3|..|F-1 2A.F ....|A-3 2F8F ....|A-3 2F8F ....
....|..|C-4 AF.F ....|B-4 2F.F ....|B-4 2F.F ....
 G-3|..|G-1 2A.F ....|A-3 2F5F ....|B-4 2F.F ....
....|..|R-- .... ....|B-3 2F4F ....|R-- .... ....
....|..|--- .... ....|--- .... ....|--- .... ....
....|..|C-4 AF.F ....|G-4 2F.F ....|G-4 2F.F ....
 E-3|..|E-1 2A.F ....|--- .... ....|R-- .... ....
....|..|B-8 JF.7 ....|B-4 2F.7 ....|B-4 2F.7 ....
 G-3|..|G-1 2F.7 ....|--- .... ....|--- .... ....
....|..|C-4 CF.F ....|A-4 2F.7 ....|G-1 2F.F ....
 G-3|..|G-1 2A.F ....|A-3 2F47 ....|A-4 2F.7 ....
....|..|B-8 JF.F ....|A-3 2F47 ....|A-4 2F.A ....
 F-3|..|F-1 2F.A ....|A-3 2F8A ....|A-3 2F8A ....

[Pattern45]
....|..|C-4 AF.F ....|B-3 2F9F ....|C-5 2F.F ....
 A-3|..|A-1 2A.F ....|C-4 2F3F ....|C-4 2F3F ....
....|..|R-- .... ....|R-- .... ....|R-- .... ....
....|..|--- .... ....|--- .... ....|--- .... ....
....|..|B-8 JF.F ....|G-4 2F.A ....|G-4 2F.A ....
 E-3|..|E-1 2F.A ....|--- .... ....|--- .... ....
....|..|--- .... ....|R-- .... ....|R-- .... ....
....|..|--- .... ....|--- .... ....|--- .... ....
....|..|B-8 JF.F ....|C-5 2F.F ....|C-5 2F.F ....
 A-3|..|A-1 2A.F ....|R-- .... ....|R-- .... ....
....|..|B-8 JF.7 ....|C-5 2F.F ....|C-5 2F.F ....
 F-3|..|F-1 2F.7 ....|A-3 2F87 ....|A-3 2F87 ....
....|..|C-4 CF.F ....|C-5 2F.F ....|C-5 2F.F ....
 A-3|..|A-1 2A.F ....|A-3 2F57 ....|B-4 2F.7 ....
....|..|B-8 JF.F ....|C-5 2F.F ....|C-5 2F.F ....
....|..|R-- .... ....|R-- .... ....|R-- .... ....
....|..|B-8 JF.F ....|C-5 2F.F ....|C-5 2F.F ....
 A-3|..|A-1 2A.F ....|R-- .... ....|R-- .... ....
....|..|B-8 JF.F ....|C-5 2F.F ....|C-5 2F.F ....
 A-3|..|A-1 2A.F ....|--- .... ....|R-- .... ....
....|..|C-4 AF.F ....|B-4 2F.F ....|B-4 2F.F ....
 G-3|..|G-1 2A.F ....|B-3 2F4F ....|R-- .... ....
....|..|B-8 JF.7 ....|C-5 2F.A ....|C-5 2F.A ....
....|..|--- .... ....|R-- .... ....|R-- .... ....
....|..|C-4 AF.F ....|G-4 2F.F ....|G-4 2F.F ....
 G-3|..|G-1 2A.F ....|C-4 2F37 ....|C-4 2F37 ....
....|..|R-- .... ....|R-- .... ....|R-- .... ....
....|..|R-- .... ....|R-- .... ....|R-- .... ....
....|..|C-4 CF.F ....|C-5 2F.A ....|G-1 2F.F ....
 G-3|..|G-1 2A.F ....|R-- .... ....|R-- .... ....
....|..|R-- .... ....|C-5 2F.A ....|C-5 2F.A ....
 A-3|..|A-1 2F.A ....|--- .... ....|R-- .... ....
....|..|B-8 JF.F ....|A-4 2F.F ....|A-4 2F.F ....
 G-3|..|G-1 2A.F ....|R-- .... ....|R-- .... ....
....|..|B-8 JF.F ....|B-4 2F.F ....|B-4 2F.F ....
 G-3|..|G-1 2A.F ....|R-- .... ....|R-- .... ....
....|..|C-4 AF.F ....|A-4 2F.F ....|A-4 2F.F ....
 F-3|..|F-1 2A.F ....|A-3 2F6F ....|A-4 2F.F ....
....|..|B-8 JF.7 ....|A-3 2F4F ....|C-5 2F.7 ....
....|..|R-- .... ....|R-- .... ....|R-- .... ....
....|..|C-4 AF.F ....|F-4 2F.F ....|F-4 2F.F ....
 F-3|..|F-1 2A.F ....|R-- .... ....|R-- .... ....
....|..|B-8 JF.7 ....|C-5 2F.7 ....|C-5 2F.7 ....
 A-3|..|A-1 2F.7 ....|--- .... ....|R-- .... ....
....|..|C-4 CF.F ....|B-4 2F.7 ....|B-4 2F.7 ....
 G-3|..|G-1 2F.7 ....|B-3 2F47 ....|R-- .... ....
....|..|B-8 JF.A ....|B-4 2F.A ....|B-4 2F.A ....
 G-3|..|G-1 2F.A ....|--- .... ....|--- .... ....
....|..|B-8 JF.F ....|A-4 2F.F ....|A-4 2F.F ....
 F-3|..|F-1 2A.F ....|R-- .... ....|R-- .... ....
....|..|B-8 JF.F ....|A-4 2F.F ....|A-4 2F.F ....
 F-3|..|F-1 2A.F ....|A-3 2F.F ....|A-3 2F.F ....
....|..|C-4 AF.F ....|G#4 2F.F ....|G#4 2F.F ....
 E-3|..|E-1 2A.F ....|G#3 2FAF ....|G#3 2F4F ....
....|..|B-8 JF.F ....|G#3 2F4F ....|G#4 2F.F ....
....|..|--- .... ....|--- .... ....|--- .... ....
....|..|C-4 AF.F ....|A-4 2F.F ....|A-4 2F.F ....
 E-3|..|E-1 2A.F ....|--- .... ....|R-- .... ....
....|..|B-8 JF.7 ....|B-4 2F.7 ....|B-4 2F.7 ....
 G-3|..|G-1 2F.7 ....|--- .... ....|R-- .... ....
....|..|C-4 CF.F ....|B-4 2F.F ....|B-4 2F.F ....
 G-3|..|G-1 2A.F ....|A-3 2F67 ....|A-4 2F.7 ....
....|..|B-8 JF.A ....|A-3 2F47 ....|B-4 2F.F ....
 F-3|..|F-1 2F.A ....|A-3 2F.A ....|A-3 2F.A ....

[Pattern46]
....|..|C-4 AF.F ....|C-5 2F.F ....|C-5 2F.F ....
 A-3|..|A-1 2A.F ....|G#3 2F7F ....|C-5 2F.F ....
....|..|R-- .... ....|C-4 2F3F ....|R-- .... ....
....|..|--- .... ....|--- .... ....|--- .... ....
....|..|B-8 JF.F ....|A-4 2F.A ....|A-4 2F.A ....
 E-3|..|E-1 2F.A ....|--- .... ....|--- .... ....
....|..|--- .... ....|--- .... ....|--- .... ....
....|..|R-- .... ....|--- .... ....|R-- .... ....
....|..|B-8 JF.F ....|A-4 2F.7 ....|A-1 2F.F ....
 A-3|..|A-1 2A.F ....|R-- .... ....|R-- .... ....
....|..|B-8 JF.7 ....|A-4 2F.7 ....|A-4 2F.7 ....
 F-3|..|F-1 2F.7 ....|A-3 2F.7 ....|A-3 2F.7 ....
....|..|C-4 CF.F ....|C-5 2F.F ....|C-5 2F.F ....
 A-3|..|A-1 2A.F ....|G#3 2FA7 ....|G#3 2F47 ....
....|..|B-8 JF.F ....|C-5 2F.F ....|C-5 2F.F ....
....|..|R-- .... ....|R-- .... ....|R-- .... ....
....|..|B-8 JF.F ....|C-5 2F.F ....|C-5 2F.F ....
 A-3|..|A-1 2A.F ....|R-- .... ....|R-- .... ....
....|..|B-8 JF.F ....|C-5 2F.F ....|C-5 2F.F ....
 A-3|..|A-1 2A.F ....|--- .... ....|R-- .... ....
....|..|C-4 AF.F ....|B-4 2F.F ....|C-5 2F.F ....
 G-3|..|G-1 2A.F ....|B-3 2F4F ....|B-4 2F.F ....
....|..|R-- .... ....|--- .... ....|B-4 2F.7 ....
....|..|--- .... ....|--- .... ....|B-4 2F.F ....
....|..|C-4 AF.F ....|G-4 2F.F ....|G-4 2F.F ....
 G-3|..|G-1 2A.F ....|G#3 2F77 ....|C-5 2F.7 ....
....|..|R-- .... ....|C-4 2F37 ....|R-- .... ....
....|..|R-- .... ....|R-- .... ....|R-- .... ....
....|..|C-4 CF.F ....|C-5 2F.A ....|G-1 2F.F ....
 G-3|..|G-1 2A.F ....|R-- .... ....|R-- .... ....
....|..|R-- .... ....|C-5 2F.A ....|C-5 2F.A ....
 A-3|..|A-1 2F.A ....|--- .... ....|R-- .... ....
....|..|B-8 JF.F ....|A-4 2F.F ....|A-4 2F.F ....
 G-3|..|G-1 2A.F ....|B-3 2F4A ....|R-- .... ....
....|..|B-8 JF.F ....|B-4 2F.F ....|B-4 2F.F ....
 G-3|..|G-1 2A.F ....|--- .... ....|B-4 2F.A ....
....|..|C-4 AF.F ....|A-4 2F.F ....|A-4 2F.F ....
 F-3|..|F-1 2A.F ....|A-3 2F4F ....|A-4 2F.F ....
....|..|B-8 JF.7 ....|A-3 2F4F ....|C-5 2F.7 ....
....|..|R-- .... ....|R-- .... ....|R-- .... ....
....|..|C-4 AF.F ....|F-4 2F.F ....|F-4 2F.F ....
 F-3|..|F-1 2A.F ....|R-- .... ....|R-- .... ....
....|..|B-8 JF.7 ....|C-5 2F.7 ....|C-5 2F.7 ....
 A-3|..|A-1 2F.7 ....|--- .... ....|R-- .... ....
....|..|C-4 CF.F ....|B-4 2F.7 ....|C-5 2F.7 ....
 G-3|..|G-1 2F.7 ....|B-3 2F47 ....|B-4 2F.7 ....
....|..|B-8 JF.A ....|B-4 2F.A ....|B-4 2F.A ....
 G-3|..|G-1 2F.A ....|--- .... ....|B-4 2F.7 ....
....|..|B-8 JF.F ....|A-4 2F.F ....|A-4 2F.F ....
 F-3|..|F-1 2A.F ....|R-- .... ....|R-- .... ....
....|..|B-8 JF.F ....|A-4 2F.F ....|A-4 2F.F ....
 F-3|..|F-1 2A.F ....|A-3 2F.F ....|C-4 2F.F ....
....|..|C-4 AF.F ....|B-4 2F.F ....|B-4 2F.F ....
 G-3|..|G-1 2A.F ....|A-3 2F5F ....|B-4 2F.F ....
....|..|B-8 JF.F ....|B-3 2F4F ....|R-- .... ....
....|..|--- .... ....|--- .... ....|--- .... ....
....|..|C-4 AF.F ....|G-4 2F.F ....|B-4 2F.F ....
 E-3|..|E-1 2A.F ....|--- .... ....|G-4 2F.F ....
....|..|B-8 JF.7 ....|B-4 2F.7 ....|B-4 2F.7 ....
 G-3|..|G-1 2F.7 ....|--- .... ....|--- .... ....
....|..|C-4 CF.F ....|A-4 2F.7 ....|G-1 2F.F ....
 G-3|..|G-1 2A.F ....|A-3 2F47 ....|A-4 2F.7 ....
....|..|B-8 JF.A ....|A-3 2F47 ....|A-4 2F.A ....
 F-3|..|F-1 2F.A ....|A-3 2F.A ....|C-4 2F.A ....

[Pattern47]
....|..|C-4 AF.F ....|C-4 2F3F ....|C-5 2F.F ....
 A-3|..|A-1 2A.F ....|C-4 2F3F ....|C-5 2F.F ....
....|..|R-- .... ....|R-- .... ....|R-- .... ....
....|..|--- .... ....|--- .... ....|--- .... ....
....|..|B-8 JF.F ....|G-4 2F.A ....|B-4 2F.A ....
 E-3|..|E-1 2F.A ....|--- .... ....|G-4 2F.A ....
....|..|--- .... ....|R-- .... ....|R-- .... ....
....|..|--- .... ....|--- .... ....|--- .... ....
....|..|B-8 JF.F ....|C-5 2F.F ....|C-5 2F.F ....
 A-3|..|A-1 2A.F ....|R-- .... ....|R-- .... ....
 A-3|..|A-1 2A.F ....|C-5 2F.F ....|C-5 2F.F ....
 F-3|..|F-1 2F.7 ....|A-3 2F.7 ....|C-4 2F.7 ....
....|..|C-4 CF.F ....|C-5 2F.F ....|C-5 2F.F ....
 A-3|..|A-1 2A.F ....|A-3 2F57 ....|B-4 2F.7 ....
....|..|B-8 JF.F ....|B-3 2F47 ....|C-5 2F.F ....
....|..|R-- .... ....|--- .... ....|R-- .... ....
....|..|B-8 JF.F ....|C-5 2F.F ....|C-5 2F.F ....
 A-3|..|A-1 2A.F ....|R-- .... ....|G-4 2F.7 ....
....|..|B-8 JF.F ....|C-5 2F.F ....|C-5 2F.F ....
 A-3|..|A-1 2A.F ....|C-4 2F.F ....|R-- .... ....
....|..|C-4 AF.F ....|B-4 2F.F ....|B-4 2F.F ....
 G-3|..|G-1 2A.F ....|B-3 2F4F ....|R-- .... ....
 A-3|..|A-1 2F.A ....|C-5 2F.A ....|C-5 2F.A ....
....|..|R-- .... ....|R-- .... ....|R-- .... ....
....|..|C-4 AF.F ....|G-4 2F.F ....|G-4 2F.F ....
 G-3|..|G-1 2A.F ....|C-4 2F37 ....|C-5 2F.7 ....
....|..|R-- .... ....|R-- .... ....|R-- .... ....
....|..|R-- .... ....|--- .... ....|R-- .... ....
....|..|C-4 CF.F ....|C-5 2F.A ....|G-1 2F.F ....
 G-3|..|G-1 2A.F ....|R-- .... ....|R-- .... ....
....|..|R-- .... ....|C-5 2F.A ....|C-5 2F.A ....
 A-3|..|A-1 2F.A ....|C-4 2F.A ....|R-- .... ....
....|..|B-8 JF.F ....|A-4 2F.F ....|A-4 2F.F ....
 G-3|..|G-1 2A.F ....|R-- .... ....|C-4 2F.F ....
....|..|B-8 JF.F ....|B-4 2F.F ....|B-4 2F.F ....
 G-3|..|G-1 2A.F ....|R-- .... ....|R-- .... ....
....|..|C-4 AF.F ....|A-4 2F.F ....|B-4 2F.F ....
 F-3|..|F-1 2A.F ....|A-3 2F6F ....|A-4 2F.F ....
....|..|B-8 JF.F ....|A-3 2F4F ....|C-5 2F.7 ....
....|..|R-- .... ....|--- .... ....|R-- .... ....
....|..|C-4 AF.F ....|F-4 2F.F ....|F-4 2F.F ....
 F-3|..|F-1 2A.F ....|R-- .... ....|R-- .... ....
....|..|B-8 JF.7 ....|C-5 2F.7 ....|C-5 2F.7 ....
 A-3|..|A-1 2F.7 ....|C-4 2F.7 ....|R-- .... ....
....|..|C-4 CF.F ....|B-4 2F.7 ....|B-4 2F.7 ....
 G-3|..|G-1 2F.7 ....|B-3 2F47 ....|C-4 2F.A ....
....|..|B-8 JF.A ....|B-4 2F.A ....|B-4 2F.A ....
 G-3|..|G-1 2F.A ....|--- .... ....|R-- .... ....
....|..|B-8 JF.F ....|A-4 2F.F ....|A-4 2F.F ....
 F-3|..|F-1 2A.F ....|R-- .... ....|R-- .... ....
....|..|B-8 JF.F ....|A-4 2F.F ....|A-4 2F.F ....
 F-3|..|F-1 2A.F ....|A-3 2F.F ....|A-3 2F.F ....
....|..|C-4 AF.F ....|G#4 2F.F ....|G#4 2F.F ....
 E-3|..|E-1 2A.F ....|A-3 2F.F ....|G#3 2F4F ....
....|..|B-8 JF.F ....|G#3 2F4F ....|R-- .... ....
....|..|R-- .... ....|G#3 2F4F ....|--- .... ....
....|..|C-4 AF.F ....|G#4 2F.F ....|G#4 2F.F ....
 E-3|..|E-1 2A.F ....|--- .... ....|C-4 2F.7 ....
....|..|B-8 JF.7 ....|B-4 2F.7 ....|B-4 2F.7 ....
 G-3|..|G-1 2F.7 ....|--- .... ....|R-- .... ....
....|..|C-4 CF.F ....|B-4 2F.F ....|B-4 2F.F ....
 G-3|..|G-1 2A.F ....|A-3 2F67 ....|A-4 2F.7 ....
....|..|B-8 JF.7 ....|A-3 2F47 ....|A-4 2F.A ....
 F-3|..|F-1 2F.A ....|A-3 2F.A ....|B-4 2F.F ....

[Pattern48]
....|..|C-4 AF.F ....|C-5 2F.F ....|C-5 2F.F ....
 A-3|..|A-1 2A.F ....|G#3 2F7F ....|C-5 2F.F ....
....|..|R-- .... ....|C-4 2F3F ....|R-- .... ....
....|..|R-- .... ....|G#3 2F4A ....|--- .... ....
....|..|B-8 JF.F ....|G#4 2F.A ....|G#4 2F.A ....
 E-3|..|E-1 2F.A ....|--- .... ....|--- .... ....
....|..|--- .... ....|R-- .... ....|--- .... ....
....|..|--- .... ....|--- .... ....|--- .... ....
....|..|B-8 JF.F ....|C-5 2F.F ....|C-5 2F.F ....
 A-3|..|A-1 2A.F ....|R-- .... ....|R-- .... ....
....|..|B-8 JF.7 ....|C-5 2F.F ....|C-5 2F.F ....
 F-3|..|F-1 2F.7 ....|A-3 2F.7 ....|A-3 2F.7 ....
....|..|C-4 CF.F ....|C-5 2F.F ....|C-5 2F.F ....
 A-3|..|A-1 2A.F ....|A-3 2F.7 ....|G#3 2F47 ....
....|..|B-8 JF.F ....|C-5 2F.F ....|C-5 2F.F ....
....|..|R-- .... ....|G#3 2F47 ....|R-- .... ....
....|..|B-8 JF.F ....|C-5 2F.F ....|C-5 2F.F ....
 A-3|..|A-1 2A.F ....|R-- .... ....|R-- .... ....
....|..|B-8 JF.F ....|C-5 2F.F ....|C-5 2F.F ....
 A-3|..|A-1 2A.F ....|--- .... ....|R-- .... ....
....|..|C-4 AF.F ....|B-4 2F.F ....|B-4 2F.F ....
 G-3|..|G-1 2A.F ....|B-3 2F4F ....|R-- .... ....
....|..|R-- .... ....|C-5 2F.A ....|C-5 2F.A ....
....|..|--- .... ....|R-- .... ....|B-4 2F.F ....
....|..|C-4 AF.F ....|G-4 2F.F ....|G-4 2F.F ....
 G-3|..|G-1 2A.F ....|G#3 2F77 ....|C-5 2F.7 ....
....|..|R-- .... ....|C-4 2F37 ....|R-- .... ....
....|..|R-- .... ....|R-- .... ....|R-- .... ....
....|..|C-4 CF.F ....|C-5 2F.A ....|G-1 2F.F ....
 G-3|..|G-1 2A.F ....|R-- .... ....|R-- .... ....
....|..|R-- .... ....|C-5 2F.A ....|C-5 2F.A ....
 A-3|..|A-1 2F.A ....|--- .... ....|R-- .... ....
....|..|B-8 JF.F ....|A-4 2F.F ....|A-4 2F.F ....
 G-3|..|G-1 2A.F ....|R-- .... ....|R-- .... ....
....|..|B-8 JF.F ....|B-4 2F.F ....|B-4 2F.F ....
 G-3|..|G-1 2A.F ....|R-- .... ....|R-- .... ....
....|..|C-4 AF.F ....|A-4 2F.F ....|B-4 2F.F ....
 F-3|..|F-1 2A.F ....|A-3 2F4F ....|A-4 2F.F ....
....|..|B-8 JF.F ....|A-3 2F4F ....|C-5 2F.7 ....
....|..|R-- .... ....|R-- .... ....|R-- .... ....
....|..|C-4 AF.F ....|A-4 2F.F ....|F-4 2F.F ....
 F-3|..|F-1 2A.F ....|F-4 2F.F ....|R-- .... ....
....|..|B-8 JF.7 ....|C-5 2F.7 ....|C-5 2F.7 ....
 A-3|..|A-1 2F.7 ....|--- .... ....|R-- .... ....
....|..|C-4 CF.F ....|B-4 2F.7 ....|B-4 2F.7 ....
 G-3|..|G-1 2F.7 ....|B-3 2F47 ....|R-- .... ....
....|..|B-8 JF.A ....|B-4 2F.A ....|B-4 2F.A ....
 G-3|..|G-1 2F.A ....|--- .... ....|B-4 2F.7 ....
....|..|B-8 JF.F ....|A-4 2F.F ....|A-4 2F.F ....
 F-3|..|F-1 2A.F ....|R-- .... ....|R-- .... ....
....|..|B-8 JF.F ....|A-4 2F.F ....|A-4 2F.F ....
 F-3|..|F-1 2A.F ....|A-3 2F8F ....|A-3 2F8F ....
....|..|C-4 AF.F ....|B-4 2F.F ....|B-4 2F.F ....
 G-3|..|G-1 2A.F ....|A-3 2F5F ....|B-4 2F.F ....
....|..|B-8 JF.F ....|B-3 2F4F ....|R-- .... ....
....|..|--- .... ....|--- .... ....|--- .... ....
....|..|C-4 AF.F ....|G-4 2F.F ....|G-4 2F.F ....
 E-3|..|E-1 2A.F ....|--- .... ....|R-- .... ....
....|..|B-8 JF.7 ....|B-4 2F.7 ....|B-4 2F.7 ....
 G-3|..|G-1 2F.7 ....|--- .... ....|--- .... ....
....|..|C-4 CF.F ....|A-4 2F.7 ....|G-1 2F.F ....
 G-3|..|G-1 2A.F ....|A-3 2F47 ....|A-4 2F.7 ....
....|..|B-8 JF.7 ....|A-3 2F47 ....|A-4 2F.A ....
 F-3|..|F-1 2F.A ....|A-3 2F8A ....|A-3 2F8A ....

[Pattern49]
....|..|C-4 AF.F ....|B-3 2F9F ....|C-5 2F.F ....
 A-3|..|A-1 2A.F ....|C-4 2F3F ....|C-4 2F3F ....
....|..|R-- .... ....|R-- .... ....|R-- .... ....
....|..|--- .... ....|--- .... ....|--- .... ....
....|..|B-8 JF.F ....|G-4 2F.A ....|G-4 2F.A ....
 E-3|..|E-1 2F.A ....|--- .... ....|--- .... ....
....|..|--- .... ....|R-- .... ....|R-- .... ....
....|..|--- .... ....|--- .... ....|--- .... ....
....|..|B-8 JF.F ....|C-5 2F.F ....|C-5 2F.F ....
 A-3|..|A-1 2A.F ....|R-- .... ....|R-- .... ....
....|..|B-8 JF.7 ....|C-5 2F.F ....|C-5 2F.F ....
 F-3|..|F-1 2F.7 ....|A-3 2F87 ....|A-3 2F87 ....
....|..|C-4 CF.F ....|C-5 2F.F ....|C-5 2F.F ....
 A-3|..|A-1 2A.F ....|A-3 2F57 ....|B-4 2F.7 ....
....|..|B-8 JF.F ....|C-5 2F.F ....|C-5 2F.F ....
....|..|R-- .... ....|R-- .... ....|R-- .... ....
....|..|B-8 JF.F ....|C-5 2F.F ....|C-5 2F.F ....
 A-3|..|A-1 2A.F ....|R-- .... ....|R-- .... ....
....|..|B-8 JF.F ....|C-5 2F.F ....|C-5 2F.F ....
 A-3|..|A-1 2A.F ....|--- .... ....|R-- .... ....
....|..|C-4 AF.F ....|B-4 2F.F ....|B-4 2F.F ....
 G-3|..|G-1 2A.F ....|B-3 2F4F ....|R-- .... ....
....|..|R-- .... ....|C-5 2F.A ....|C-5 2F.A ....
....|..|--- .... ....|R-- .... ....|R-- .... ....
....|..|C-4 AF.F ....|G-4 2F.F ....|G-4 2F.F ....
 G-3|..|G-1 2A.F ....|C-4 2F37 ....|C-4 2F37 ....
....|..|R-- .... ....|R-- .... ....|R-- .... ....
....|..|R-- .... ....|R-- .... ....|R-- .... ....
....|..|B-8 JF.7 ....|C-5 2F.A ....|C-5 2F.A ....
 A-3|..|A-1 2F.A ....|R-- .... ....|R-- .... ....
....|..|B-8 JF.A ....|C-5 2F.A ....|C-5 2F.A ....
 A-3|..|A-1 2F.A ....|--- .... ....|R-- .... ....
....|..|B-8 JF.7 ....|C-5 2F.7 ....|C-5 2F.7 ....
 A-3|..|A-1 2F.7 ....|R-- .... ....|R-- .... ....
....|..|R-- .... ....|C-5 2F.7 ....|C-5 2F.7 ....
....|..|--- .... ....|R-- .... ....|R-- .... ....
....|..|C-4 CF.7 ....|B-3 2F.F ....|B-3 2F.F ....
 A-3|..|A-1 2F.7 ....|R-- .... ....|R-- .... ....
....|..|B-8 JF.7 ....|C-5 2F.7 ....|C-5 2F.7 ....
....|..|R-- .... ....|R-- .... ....|R-- .... ....
....|..|B-8 JF.7 ....|C-5 2F.7 ....|C-5 2F.7 ....
 A-3|..|A-1 2F.7 ....|R-- .... ....|R-- .... ....
....|..|B-8 JF.7 ....|C-5 2F.7 ....|C-5 2F.7 ....
 A-3|..|A-1 2F.7 ....|--- .... ....|R-- .... ....
....|..|C-4 AF.7 ....|B-4 2F.7 ....|B-4 2F.7 ....
 G-3|..|G-1 2F.7 ....|B-3 2F47 ....|--- .... ....
....|..|--- .... ....|--- .... ....|--- .... ....
....|..|--- .... ....|--- .... ....|--- .... ....
....|..|C-4 AF.7 ....|G-4 2F.7 ....|G-4 2F.7 ....
 G-3|..|G-1 2F.7 ....|R-- .... ....|R-- .... ....
....|..|R-- .... ....|R-- .... ....|R-- .... ....
....|..|--- .... ....|--- .... ....|--- .... ....
....|..|--- .... ....|--- .... ....|--- .... ....
....|..|--- .... ....|--- .... ....|--- .... ....
....|..|--- .... ....|--- .... ....|--- .... ....
....|..|--- .... ....|--- .... ....|--- .... ....
....|..|--- .... ....|--- .... ....|--- .... ....
....|..|--- .... ....|--- .... ....|--- .... ....
....|..|--- .... ....|--- .... ....|--- .... ....
....|..|--- .... ....|--- .... ....|--- .... ....
....|..|--- .... ....|B-3 2F.7 ....|B-3 2F.7 ....

