[Module]
VortexTrackerII=0
Version=3.5
Title=moby lift me up
Author=oisee ^ 4d 29.05.2010
NoteTable=4
ChipFreq=1750000
Speed=3
PlayOrder=L0,1,2,3,4,5,6,3,8,9,10,11,12,13,13,15,16,3,18,5,20,21,22,23,24,25,26,27,27,29,27,27,27,29,34,35,36,37,37,37,37,37,37,37,44

[Ornament1]
L0

[Ornament2]
L7,7,2,2,0,0

[Ornament3]
L0,0,3,3,7,7,12,12

[Ornament4]
L0,0,4,4,7,7,12,12

[Ornament5]
L0,0,5,5,8,8,12,12

[Ornament6]
L0,0,3,3,6,6,12,12

[Ornament7]
L0,3,7

[Ornament8]
L0,0,3,3,8,8,12,12

[Ornament9]
0,-12,-12,-24,L-24

[Ornament10]
L0,0,12,12,0,0,12,12

[Ornament11]
24,12,0,-12,-24,-36,L-36

[Ornament12]
L0

[Ornament13]
1,L0

[Ornament14]
L0,24,0,0,0

[Ornament15]
L0,36,0,0

[Sample1]
TnE +000_ +00_ F_
TnE +000_ +00_ F_
TnE +000_ +00_ F_
TnE +000_ +00_ D_
TnE +000_ +00_ B_
TnE +000_ +00_ B_ L

[Sample2]
TnE +000_ +00_ F_ L

[Sample3]
TnE +001_ +00_ F_
TnE +002_ +00_ F_
TnE +001_ +00_ E_
TnE +002_ +00_ E_
TnE +000_ +00_ E_ L
TnE -001_ +00_ E_
TnE -002_ +00_ E_
TnE -001_ +00_ E_
TnE +000_ +00_ E_
TnE +001_ +00_ E_
TnE +002_ +00_ E_
TnE +001_ +00_ E_

[Sample4]
TnE +002_ +00_ D_
TnE +002_ +00_ D_
TnE +002_ +00_ C_
TnE +002_ +00_ B_
TnE +002_ +00_ A_ L
TnE +002_ +00_ A_
TnE +002_ +00_ A_
TnE +002_ +00_ A_
TnE +002_ +00_ A_
TnE +002_ +00_ A_
TnE +002_ +00_ A_
TnE +002_ +00_ A_

[Sample5]
TnE +000_ +00_ F_
TnE +000_ +00_ F_
tne +000_ +00_ 0_ L

[Sample6]
TnE -001_ +00_ F_ L

[Sample7]
TnE +006_ +00_ F_ L

[Sample8]
tNe +000_ +00_ F_
tNe +000_ +00_ B_
tNe +000_ +00_ 7_
tNe +000_ +00_ 6- L

[Sample9]
TnE +080_ +00_ F_
TnE +100_ +00_ E_
TnE +180_ +00_ E_
TnE +200_ +00_ E_
TnE +240_ +00_ D_
TnE +280_ +00_ D_
TnE +2C0_ +00_ D_
TnE +300_ +00_ C_
TnE +300_ +00_ C_
TnE +340_ +00_ C_
TnE +340_ +00_ C_
TnE +380_ +00_ B_
TnE +380_ +00_ B_
TnE +400_ +00_ B_
TnE +400_ +00_ B_
TnE +480_ +00_ A_
TnE +500_ +00_ 9_
TnE +580_ +00_ 7_
TnE +600_ +00_ 4_
TnE +680_ +00_ 1_
TnE +000_ +00_ 0_ L

[Sample10]
Tne +1C0_ +00_ F_
Tne +280_ +00_ E_
Tne +380_ +00_ C_
Tne +440_ +00_ A_
Tne +480_ +00_ 8_
TnE +000_ +00_ 0_ L

[Sample11]
TNe +200_ -0A_ F_
tNe +000_ +0F_ A_
TNe +200_ -07_ E_
tNe +000_ +0E_ B- L

[Sample12]
TNE +0A0_ +05_ F_
TNE +140_ +02_ D_
TNE +140_ +02_ B_
TNE +100_ +00_ A_ L
TNE +140_ +00_ A_
TNE +200_ +00_ A-

[Sample13]
Tne +200_ +00_ F_
Tne +2C0_ +00_ F_
Tne +380_ +00_ E_
Tne +500_ +00_ C_
Tne +520_ +00_ 9_
tne +000_ +00_ 0_ L

[Sample14]
TNE -100_ +00_ F_
TNE -100_ +00_ D_
TNE -100_ +00_ A_
TNE -100_ +00_ 5_
tne +000_ +00_ 0_ L

[Sample15]
TNE -100_ +00_ 5_
TNE -100_ +00_ 8_
TNE -100_ +00_ B_
TNE -100_ +00_ F_
TNe -100_ +00_ 9- L

[Sample16]
TnE +000_ +00_ C_
TnE +000_ +00_ E_
TnE +000_ +00_ F_
TnE +000_ +00_ F_
TnE +000_ +00_ E_
TnE +000_ +00_ D_
TnE +000_ +00_ C_
TnE +000_ +00_ C_ L
TnE +001_ +00_ C_
TnE +002_ +00_ C_
TnE +003_ +00_ C_
TnE +001_ +00_ C_
TnE +000_ +00_ C_
TnE -001_ +00_ C_
TnE -002_ +00_ C_
TnE -003_ +00_ C_
TnE -001_ +00_ C_
TnE +000_ +00_ C_
TnE +000_ +00_ C_

[Sample17]
Tne +1C0_ +00_ F_
Tne +280_ +00_ D_
Tne +380_ +00_ 7_
TNE +000_ +00_ 0_ L

[Sample18]
tnE +000_ +00_ 0_ L

[Sample19]
TNe +000_ +00_ F_
TNe +000_ +00_ C_
TNe +000_ +00_ 6_
TNe +000_ +01_ A- L

[Sample20]
TNE +140_ +00_ F_
tNE +000_ +00_ B- L

[Sample21]
tNE +000_ +00_ D_
tNE +000_ +00_ 8_
tNE +000_ +00_ 1_
TNE +000_ +00_ 0_ L

[Sample22]
TnE +000_ +00_ D_ L
TnE +000_ +00_ D_
tne +000_ +00_ 9_
tne +000_ +00_ 9_
TnE +000_ +00_ D_
TnE +000_ +00_ D_
tne +000_ +00_ 9_
tne +000_ +00_ 9_
TnE +000_ +00_ D_
TnE +000_ +00_ D_
TnE +000_ +00_ D_
TnE +000_ +00_ D_
TnE +000_ +00_ D_
TnE +000_ +00_ D_
tne +000_ +00_ 9_
tne +000_ +00_ 9_

[Sample23]
TnE +000_ +00_ F_ L
TnE +010_ +01_ F_
TnE +010_ +01_ F_
TnE +010_ +01_ F_
TnE +010_ +01_ F_
TnE +000_ +00_ F_
TnE +000_ +00_ F_
TnE -010_ -01_ F_
TnE -010_ -01_ F_
TnE -010_ -01_ F_
TnE -010_ -01_ F_
TnE +000_ +00_ F_

[Sample24]
TNe +000_ -01_ C_
TNe +000_ -01_ D_
TNe +000_ -01_ E_
TNe +000_ -01_ F_
TNe +000_ -01_ F_
TNe +000_ -01_ F_
TNe +000_ -01_ F_
TNe +000_ -01_ F_
TNe +000_ -01_ E_
TNe +000_ -01_ E_
TNe +000_ -01_ E_
TNe +000_ -01_ F_
TNe +000_ -01_ F_ L

[Sample25]
TNE +000_ +00_ F_
TNE +000_ +00_ F_ L
TNE +000_ +00_ F_
TNE +000_ +00_ F_
TNE +000_ +00_ F-

[Sample26]
tne +000_ +00_ 0_ L

[Sample27]
tne +000_ +00_ 0_ L

[Sample28]
tne +000_ +00_ 0_ L

[Sample29]
tne +000_ +00_ 0_ L

[Sample30]
TNE +000_ +00_ C+ L

[Sample31]
TNe +1C0_ +00_ F_
Tne +280_ +00_ E_
Tne +380_ +00_ C_
Tne +440_ +00_ A_
Tne +480_ +00_ 8_
TnE +000_ +00_ 0_ L

[Pattern0]
..18|..|B-3 AF.F ....|B-3 GF3F ....|--- .... ....
....|..|--- .... ....|--- .... ....|--- .... ....
..18|..|C-3 LF.. ....|--- .... ....|--- .... ....
....|..|--- .... ....|--- .... ....|--- .... ....
..18|..|B-1 7A.. ....|--- ...B ....|B-3 GF3B ....
....|..|--- .... ....|--- .... ....|--- .... ....
..18|..|C-4 LF.. ....|--- .... ....|--- .... ....
....|..|--- .... ....|--- .... ....|--- .... ....
..18|..|B-3 KF.F ....|E-4 2F.F ....|--- ...8 ....
....|..|--- .... ....|--- .... ....|--- .... ....
..18|..|B-1 6A.. ....|B-3 ...B ....|--- .... ....
....|..|--- .... ....|--- .... ....|--- .... ....
..18|..|B-3 AF.F ....|F#4 ...F ....|E-4 2F.B ....
....|..|--- .... ....|--- .... ....|--- .... ....
..30|..|C-3 LF.. ....|E-4 ...B ....|B-3 ...8 ....
....|..|--- .... ....|--- .... ....|--- .... ....
..18|..|B-1 7A.. ....|F#4 ...B ....|F#4 ...B ....
....|..|--- .... ....|--- .... ....|--- .... ....
..18|..|C-4 LF.. ....|E-4 ...B 11.2|E-4 ...8 ....
....|..|--- .... ....|--- .... ....|--- .... ....
..18|..|B-3 KF.F ....|B-3 GF3F ....|F#4 ...8 ....
....|..|--- .... ....|--- .... ....|--- .... ....
..18|..|B-1 6A.. ....|--- .... ....|E-4 ...8 11.2
....|..|--- .... ....|--- .... ....|--- .... ....
..18|..|B-3 AF.. ....|E-4 .F.F ....|B-3 GF3B ....
....|..|--- .... ....|--- .... ....|--- .... ....
..18|..|C-3 LF.. ....|--- .... ....|--- .... ....
....|..|--- .... ....|--- .... ....|--- .... ....
..18|..|B-1 7A.. ....|--- .... 11.1|E-4 .F.B ....
....|..|--- .... ....|--- .... ....|--- .... ....
..18|..|C-4 LF.. ....|--- .... ....|--- .... ....
....|..|--- .... ....|--- .... ....|--- .... ....
..1B|..|A-3 AF.F ....|A-3 GF4F ....|--- .... 11.1
....|..|--- .... ....|--- .... ....|--- .... ....
..1B|..|C-3 LF.. ....|--- .... ....|--- .... ....
....|..|--- .... ....|--- .... ....|--- .... ....
..1B|..|A-1 7A.. ....|D-4 2F.F ....|A-3 GF4B ....
....|..|--- .... ....|--- .... ....|--- .... ....
..1B|..|C-4 LF.. ....|A-3 ...B ....|--- .... ....
....|..|--- .... ....|--- .... ....|--- .... ....
..1B|..|A-3 KF.F ....|E-4 ...F ....|D-4 2F.B ....
....|..|--- .... ....|--- .... ....|--- .... ....
..1B|..|A-1 6A.. ....|D-4 ...B ....|A-3 ...8 ....
....|..|--- .... ....|--- .... ....|--- .... ....
..1B|..|B-3 AF.F ....|D-4 ...F ....|E-4 ...B ....
....|..|--- .... ....|--- .... ....|--- .... ....
..1B|..|C-3 LF.. ....|E-4 ...B ....|D-4 ...8 ....
....|..|--- .... ....|--- .... ....|--- .... ....
..1E|..|G-1 7A.. ....|G-3 .F4F ....|D-4 ...B ....
....|..|--- .... ....|--- .... ....|--- .... ....
..1E|..|C-4 LF.. ....|D-4 .F.B ....|E-4 ...8 ....
....|..|--- .... ....|--- .... ....|--- .... ....
..1E|..|G-3 KF.F ....|D-4 .F.F ....|G-3 .F4B ....
....|..|--- .... ....|--- .... ....|--- .... ....
..1E|..|G-2 6C.. ....|G-3 .F4B ....|D-4 .F.8 ....
....|..|--- .... ....|--- .... ....|--- .... ....
..1E|..|B-3 AF.. ....|G-3 .F.F ....|D-4 .F.B ....
....|..|--- .... ....|--- .... ....|--- .... ....
..1E|..|C-3 LF.. ....|--- .... 21.2|G-3 .F48 ....
....|..|--- .... ....|--- .... ....|--- .... ....
..1E|..|G-3 2C.. ....|G-3 ...A ....|--- .... ....
....|..|--- .... ....|--- .... ....|--- .... ....
..1E|..|C-4 LF.. ....|--- .... ....|--- .... ....
....|..|--- .... ....|--- .... ....|--- .... ....

[Pattern1]
..18|..|B-3 AF.F ....|B-3 GF3F ....|--- .... ....
....|..|--- .... ....|--- .... ....|--- .... ....
..18|..|C-3 LF.. ....|--- .... ....|--- .... ....
....|..|--- .... ....|--- .... ....|--- .... ....
..18|..|B-1 7A.. ....|G-3 ...B ....|--- .... ....
....|..|--- .... ....|--- .... ....|--- .... ....
..18|..|C-4 LF.. ....|--- .... ....|--- .... ....
....|..|--- .... ....|--- .... ....|--- .... ....
..18|..|B-3 KF.F ....|E-4 2F.F ....|--- .... ....
....|..|--- .... ....|--- .... ....|--- .... ....
..18|..|B-1 6A.. ....|--- ...B ....|--- .... ....
....|..|--- .... ....|--- .... ....|--- .... ....
..18|..|B-3 AF.F ....|F#4 ...F ....|--- .... ....
....|..|--- .... ....|--- .... ....|--- .... ....
..30|..|C-3 LF.. ....|--- ...B ....|--- .... ....
....|..|--- .... ....|--- .... ....|--- .... ....
..18|..|B-1 7A.. ....|G-3 ...B ....|--- .... ....
....|..|--- .... ....|--- .... ....|--- .... ....
..18|..|C-4 LF.. ....|--- ...B 11.2|--- .... ....
....|..|--- .... ....|--- .... ....|--- .... ....
..18|..|B-3 KF.F ....|B-3 GF3F ....|--- .... ....
....|..|--- .... ....|--- .... ....|--- .... ....
..18|..|B-1 6A.. ....|--- .... ....|--- .... ....
....|..|--- .... ....|--- .... ....|--- .... ....
..18|..|B-3 AF.. ....|E-4 .F.F ....|--- .... ....
....|..|--- .... ....|--- .... ....|--- .... ....
..18|..|C-3 LF.. ....|--- .... ....|--- .... ....
....|..|--- .... ....|--- .... ....|--- .... ....
..18|..|B-1 7A.. ....|--- .... 11.1|--- .... ....
....|..|--- .... ....|--- .... ....|--- .... ....
..18|..|C-4 LF.. ....|--- .... ....|--- .... ....
....|..|--- .... ....|--- .... ....|--- .... ....
..1B|..|A-3 AF.F ....|A-3 GF4F ....|--- .... ....
....|..|--- .... ....|--- .... ....|--- .... ....
..1B|..|C-3 LF.. ....|--- .... ....|--- .... ....
....|..|--- .... ....|--- .... ....|--- .... ....
..1B|..|A-1 7A.. ....|D-4 2F.F ....|--- .... ....
....|..|--- .... ....|--- .... ....|--- .... ....
..1B|..|C-4 LF.. ....|--- ...B ....|--- .... ....
....|..|--- .... ....|--- .... ....|--- .... ....
..1B|..|A-3 KF.F ....|E-4 ...F ....|--- .... ....
....|..|--- .... ....|--- .... ....|--- .... ....
..1B|..|A-1 6A.. ....|--- ...B ....|--- .... ....
....|..|--- .... ....|--- .... ....|--- .... ....
..1B|..|B-3 AF.F ....|D-4 ...F ....|--- .... ....
....|..|--- .... ....|--- .... ....|--- .... ....
..1B|..|C-3 LF.. ....|--- ...B ....|--- .... ....
....|..|--- .... ....|--- .... ....|--- .... ....
..1E|..|G-1 7A.. ....|G-3 .F4F ....|--- .... ....
....|..|--- .... ....|--- .... ....|--- .... ....
..1E|..|C-4 LF.. ....|--- .F.B ....|--- .... ....
....|..|--- .... ....|--- .... ....|--- .... ....
..1E|..|G-3 KF.F ....|D-4 .F.F ....|--- .... ....
....|..|--- .... ....|--- .... ....|--- .... ....
..1E|..|G-2 6C.. ....|--- .F4B ....|--- .... ....
....|..|--- .... ....|--- .... ....|--- .... ....
..1E|..|B-3 AF.. ....|G-3 .F.F ....|F#4 3FAF ....
....|..|--- .... ....|--- .... ....|--- .... ....
..1E|..|C-3 LF.. ....|--- .... 21.2|--- .... ....
....|..|--- .... ....|--- .... ....|--- .... ....
..1E|..|G-3 2C.. ....|G-3 ...A ....|E-4 ...F ....
....|..|--- .... ....|--- .... ....|--- .... ....
..1E|..|C-4 LF.. ....|--- .... ....|--- .... ....
....|..|--- .... ....|--- .... ....|--- .... ....

[Pattern2]
..18|..|B-3 AF.F ....|B-3 GF3F ....|F#4 ...F ....
....|..|--- .... ....|--- .... ....|--- .... ....
..18|..|C-3 LF.. ....|--- .... ....|--- .... ....
....|..|--- .... ....|--- .... ....|--- .... ....
..18|..|B-1 7A.. ....|G-3 ...B ....|R-- .... ....
....|..|--- .... ....|--- .... ....|--- .... ....
..18|..|C-4 AF.. ....|--- .... ....|--- .... ....
....|..|--- .... ....|--- .... ....|--- .... ....
..18|..|B-3 KF.F ....|E-4 2F.F ....|F#4 .F.F ....
....|..|--- .... ....|--- .... ....|--- .... ....
..18|..|B-1 6A.. ....|--- ...B ....|--- .... ....
....|..|--- .... ....|--- .... ....|--- .... ....
..18|..|B-3 AF.F ....|F#4 ...F ....|--- ...B ....
....|..|--- .... ....|--- .... ....|--- .... ....
..30|..|C-3 LF.. ....|--- ...B ....|--- .... ....
....|..|--- .... ....|--- .... ....|--- .... ....
..18|..|B-1 7A.. ....|G-3 ...B ....|R-- .... ....
....|..|--- .... ....|--- .... ....|--- .... ....
..18|..|C-4 LF.. ....|--- ...B 11.2|--- .... ....
....|..|--- .... ....|--- .... ....|--- .... ....
..18|..|B-3 KF.F ....|B-3 GF3F ....|F#4 ...A ....
....|..|--- .... ....|--- .... ....|--- .... ....
..18|..|B-1 6A.. ....|--- .... ....|--- .... ....
....|..|--- .... ....|--- .... ....|F#4 ...F ....
..18|..|B-3 AF.. ....|E-4 .F.F ....|R-- .... ....
....|..|--- .... ....|--- .... ....|--- .... ....
..18|..|C-3 LF.. ....|--- .... ....|--- .... ....
....|..|--- .... ....|--- .... ....|--- .... ....
..18|..|B-1 7A.. ....|--- .... 11.1|E-4 ...F ....
....|..|--- .... ....|--- .... ....|--- .... ....
..18|..|C-4 LF.. ....|--- .... ....|R-- .... ....
....|..|--- .... ....|--- .... ....|--- .... ....
..1B|..|A-3 AF.F ....|A-3 GF4F ....|F#4 ...F ....
....|..|--- .... ....|--- .... ....|--- .... ....
..1B|..|C-3 LF.. ....|--- .... ....|--- .... ....
....|..|--- .... ....|--- .... ....|R-- .... ....
..1B|..|A-1 7A.. ....|D-4 2F.F ....|A-4 ...F ....
....|..|--- .... ....|--- .... ....|--- .... ....
..1B|..|C-4 LF.. ....|--- ...B ....|--- .... ....
....|..|--- .... ....|--- .... ....|--- .... ....
..1B|..|A-3 KF.F ....|E-4 ...F ....|E-4 ...A ....
....|..|--- .... ....|--- .... ....|R-- .... ....
..1B|..|A-1 6A.. ....|--- ...B ....|R-- .... ....
....|..|--- .... ....|--- .... ....|--- .... ....
..1B|..|B-3 AF.F ....|D-4 ...F ....|F#4 .FAF ....
....|..|--- .... ....|--- .... ....|--- .... ....
..1B|..|C-3 LF.. ....|--- ...B ....|--- .... ....
....|..|--- .... ....|--- .... ....|R-- .... ....
..1E|..|G-1 7A.. ....|G-3 .F4F ....|A-4 ...F ....
....|..|--- .... ....|--- .... ....|--- .... ....
..1E|..|C-4 LF.. ....|--- .F.B ....|--- .... ....
....|..|--- .... ....|--- .... ....|--- .... ....
..1E|..|G-3 KF.F ....|D-4 .F.F ....|E-4 ...7 ....
....|..|--- .... ....|--- .... ....|R-- .... ....
..1E|..|G-2 6C.. ....|--- .F4B ....|A-4 ...F ....
....|..|--- .... ....|--- .... ....|--- .... ....
..1E|..|B-3 AF.. ....|G-3 .F.F ....|F#4 ...A ....
....|..|--- .... ....|--- .... ....|--- .... ....
..1E|..|C-3 LF.. ....|--- .... 21.2|--- .... ....
....|..|--- .... ....|--- .... ....|R-- .... ....
..1E|..|G-3 2C.. ....|G-3 ...A ....|B-4 ...F ....
....|..|--- .... ....|--- .... ....|--- .... ....
..1E|..|G-3 OFE. ....|--- .... ....|--- .... ....
....|..|--- .... ....|--- .... ....|--- .... ....

[Pattern3]
..18|..|B-3 AF.F ....|B-3 GF3F ....|--- .... ....
....|..|--- .... ....|--- .... ....|R-- .... ....
..18|..|C-3 LF.. ....|--- .... ....|R-- .... ....
....|..|--- .... ....|--- .... ....|--- .... ....
..18|..|B-1 7A.. ....|G-3 ...B ....|F#4 ...F ....
....|..|--- .... ....|--- .... ....|--- .... ....
..18|..|C-4 AF.. ....|--- .... ....|--- .... ....
....|..|--- .... ....|--- .... ....|R-- .... ....
..18|..|B-3 KF.F ....|E-4 2F.F ....|B-4 .F.A ....
....|..|--- .... ....|--- .... ....|R-- .... ....
..18|..|B-1 6A.. ....|--- ...B ....|--- .... ....
....|..|--- .... ....|--- .... ....|--- .... ....
..18|..|B-3 AF.F ....|F#4 ...F ....|--- .... ....
....|..|--- .... ....|--- .... ....|R-- .... ....
..30|..|C-3 LF.. ....|--- ...B ....|R-- .... ....
....|..|--- .... ....|--- .... ....|--- .... ....
..18|..|B-1 7A.. ....|G-3 ...B ....|A-4 ...F ....
....|..|--- .... ....|--- .... ....|--- .... ....
..18|..|C-4 LF.. ....|--- ...B 11.2|--- .... ....
....|..|--- .... ....|--- .... ....|R-- .... ....
..18|..|B-3 KF.F ....|B-3 GF3F ....|R-- .... ....
....|..|--- .... ....|--- .... ....|R-- .... ....
..18|..|B-1 6A.. ....|--- .... ....|A-4 ...F ....
....|..|--- .... ....|--- .... ....|--- .... ....
..18|..|B-3 AF.. ....|E-4 .F.F ....|--- .... ....
....|..|--- .... ....|--- .... ....|--- .... ....
..18|..|C-3 LF.. ....|--- .... ....|R-- .... ....
....|..|--- .... ....|--- .... ....|--- .... ....
..18|..|B-1 7A.. ....|--- .... 11.1|B-4 3..F ....
....|..|--- .... ....|--- .... ....|--- .... ....
..18|..|C-4 LF.. ....|--- .... ....|--- .... 11.2
....|..|--- .... ....|--- .... ....|--- .... ....
..1B|..|A-3 AF.F ....|A-3 GF4F ....|R-- .... ....
....|..|--- .... ....|--- .... ....|R-- .... ....
..1B|..|C-3 LF.. ....|--- .... ....|A-4 2..A ....
....|..|--- .... ....|--- .... ....|--- .... ....
..1B|..|A-1 7A.. ....|D-4 2F.F ....|F#4 ...F ....
....|..|--- .... ....|--- .... ....|--- .... ....
..1B|..|C-4 LF.. ....|--- ...B ....|R-- .... ....
....|..|--- .... ....|--- .... ....|--- .... ....
..1B|..|A-3 KF.F ....|E-4 ...F ....|B-4 3F.A ....
....|..|--- .... ....|--- .... ....|--- .... ....
..1B|..|A-1 6A.. ....|--- ...B ....|--- .... 11.2
....|..|--- .... ....|--- .... ....|--- .... ....
..1B|..|B-3 AF.F ....|D-4 ...F ....|B-3 ...F ....
....|..|--- .... ....|--- .... ....|R-- .... ....
..1B|..|C-3 LF.. ....|--- ...B ....|A-4 ...7 ....
....|..|--- .... ....|--- .... ....|R-- .... ....
..1E|..|G-1 7A.. ....|G-3 .F4F ....|A-4 ...F ....
....|..|--- .... ....|--- .... ....|--- .... ....
..1E|..|C-4 LF.. ....|--- .F.B ....|R-- .... ....
....|..|--- .... ....|--- .... ....|--- .... ....
..1E|..|G-3 KF.F ....|D-4 .F.F ....|R-- .... ....
....|..|--- .... ....|--- .... ....|R-- .... ....
..1E|..|G-2 6C.. ....|--- .F4B ....|A-4 ...F ....
....|..|--- .... ....|--- .... ....|--- .... ....
..1E|..|B-3 AF.. ....|G-3 .F.F ....|B-3 ...A ....
....|..|--- .... ....|--- .... ....|R-- .... ....
..1E|..|C-3 LF.. ....|--- .... 21.2|R-- .... ....
....|..|--- .... ....|--- .... ....|R-- .... ....
..1E|..|G-3 2C.. ....|G-3 ...A ....|B-4 ...F ....
....|..|--- .... ....|--- .... ....|--- .... ....
..1E|..|G-3 OFE. ....|--- .... ....|--- .... ....
....|..|--- .... ....|--- .... ....|--- .... ....

[Pattern4]
..18|..|B-3 AF.F ....|B-3 GF3F ....|R-- .... ....
....|..|--- .... ....|--- .... ....|R-- .... ....
..18|..|C-3 LF.. ....|--- .... ....|R-- .... ....
....|..|--- .... ....|--- .... ....|--- .... ....
..18|..|B-1 7A.. ....|G-3 ...B ....|F#4 .F.F ....
....|..|--- .... ....|--- .... ....|--- .... ....
..18|..|C-4 LF.. ....|--- .... ....|--- .... ....
....|..|--- .... ....|--- .... ....|R-- .... ....
..18|..|B-3 KF.F ....|E-4 2F.F ....|B-4 .FEA ....
....|..|--- .... ....|--- .... ....|--- .... ....
..18|..|B-1 6A.. ....|--- ...B ....|--- .... ....
....|..|--- .... ....|--- .... ....|--- .... ....
..18|..|B-3 AF.F ....|F#4 ...F ....|R-- .... ....
....|..|--- .... ....|--- .... ....|--- .... ....
..30|..|C-3 LF.. ....|--- ...B ....|R-- .... ....
....|..|--- .... ....|--- .... ....|--- .... ....
..18|..|B-1 7A.. ....|G-3 ...B ....|A-4 .F.F ....
....|..|--- .... ....|--- .... ....|--- .... ....
..18|..|C-4 LF.. ....|--- ...B 11.2|R-- .... ....
....|..|--- .... ....|--- .... ....|--- .... ....
..18|..|B-3 KF.F ....|B-3 GF3F ....|R-- .... ....
....|..|--- .... ....|--- .... ....|R-- .... ....
..18|..|B-1 6A.. ....|--- .... ....|A-4 ...F ....
....|..|--- .... ....|--- .... ....|--- .... ....
..18|..|B-3 AF.. ....|E-4 .F.F ....|--- .... ....
....|..|--- .... ....|--- .... ....|--- .... ....
..18|..|C-3 LF.. ....|--- .... ....|R-- .... ....
....|..|--- .... ....|--- .... ....|--- .... ....
..18|..|B-1 7A.. ....|--- .... 11.1|B-4 ...F ....
....|..|--- .... ....|--- .... ....|--- .... ....
..18|..|C-4 LF.. ....|--- .... ....|--- .... 11.1
....|..|--- .... ....|--- .... ....|--- .... ....
..1B|..|A-3 AF.F ....|A-3 GF4F ....|R-- .... ....
....|..|--- .... ....|--- .... ....|R-- .... ....
..1B|..|C-3 LF.. ....|--- .... ....|R-- .... ....
....|..|--- .... ....|--- .... ....|F#4 ...A ....
..1B|..|A-1 7A.. ....|D-4 2F.F ....|F#4 ...F ....
....|..|--- .... ....|--- .... ....|--- .... ....
..1B|..|C-4 LF.. ....|--- ...B ....|R-- .... ....
....|..|--- .... ....|--- .... ....|--- .... ....
..1B|..|A-3 KF.F ....|E-4 ...F ....|B-4 ...A ....
....|..|--- .... ....|--- .... ....|R-- .... ....
..1B|..|A-1 6A.. ....|--- ...B ....|--- .... ....
....|..|--- .... ....|--- .... ....|--- .... ....
..1B|..|B-3 AF.F ....|D-4 ...F ....|F#4 ...F ....
....|..|--- .... ....|--- .... ....|--- .... ....
..1B|..|C-3 LF.. ....|--- ...B ....|R-- .... ....
....|..|--- .... ....|--- .... ....|R-- .... ....
..1E|..|G-1 7A.. ....|G-3 .F4F ....|F#4 ...F ....
....|..|--- .... ....|--- .... ....|--- .... ....
..1E|..|C-4 LF.. ....|--- .F.B ....|R-- .... ....
....|..|--- .... ....|--- .... ....|--- .... ....
..1E|..|G-3 KF.F ....|D-4 .F.F ....|R-- .... ....
....|..|--- .... ....|--- .... ....|R-- .... ....
..1E|..|G-2 6C.. ....|--- .F4B ....|F#4 ...F ....
....|..|--- .... ....|--- .... ....|--- .... ....
..1E|..|B-3 AF.. ....|G-3 .F.F ....|F#4 ...A ....
....|..|--- .... ....|--- .... ....|--- .... ....
..1E|..|C-3 LF.. ....|--- .... 21.2|R-- .... ....
....|..|--- .... ....|--- .... ....|R-- .... ....
..1E|..|G-3 2C.. ....|G-3 ...A ....|E-4 ...F ....
....|..|--- .... ....|--- .... ....|--- .... ....
..1E|..|C-4 LF.. ....|--- .... ....|--- .... 21.2
....|..|--- .... ....|--- .... ....|--- .... ....

[Pattern5]
..18|..|B-3 AF.F ....|B-3 GF3F ....|F#4 ...F ....
....|..|--- .... ....|--- .... ....|R-- .... ....
..18|..|C-3 LF.. ....|--- .... ....|F#4 ...A ....
....|..|--- .... ....|--- .... ....|--- .... ....
..18|..|B-1 7A.. ....|B-3 .F.B ....|F#4 ...7 ....
....|..|--- .... ....|--- .... ....|--- .... ....
..18|..|C-4 LF.. ....|--- .... 11.1|R-- .... ....
....|..|--- .... ....|--- .... ....|R-- .... ....
..18|..|B-3 KF.F ....|E-4 2FDF ....|E-4 ...A ....
....|..|--- .... ....|--- .... ....|--- .... ....
..18|..|B-1 6A.. ....|--- ...B ....|--- .... ....
....|..|--- .... ....|--- .... ....|--- .... ....
..18|..|B-3 AF.F ....|F#4 ...F ....|F#4 ...A ....
....|..|--- .... ....|--- .... ....|--- .... ....
..30|..|C-3 LF.. ....|--- ...B ....|F#4 ...7 ....
....|..|--- .... ....|--- .... ....|--- .... ....
..18|..|B-1 7A.. ....|G-3 ...B ....|B-3 .F9F ....
....|..|--- .... ....|--- .... ....|--- .... ....
..18|..|C-4 LF.. ....|--- ...B 11.2|R-- .... ....
....|..|--- .... ....|--- .... ....|R-- .... ....
..18|..|B-3 KF.F ....|B-3 GF3F ....|R-- .... ....
....|..|--- .... ....|--- .... ....|--- .... ....
..18|..|B-1 6A.. ....|--- .... ....|B-3 ...F ....
....|..|--- .... ....|--- .... ....|--- .... ....
..18|..|B-3 AF.. ....|E-4 .F.F ....|F#4 ...7 ....
....|..|--- .... ....|--- .... ....|--- .... ....
..18|..|C-3 LF.. ....|--- .... ....|R-- .... ....
....|..|--- .... ....|--- .... ....|--- .... ....
..18|..|B-1 7A.. ....|--- .... 11.1|A-3 ...F ....
....|..|--- .... ....|--- .... ....|--- .... ....
..18|..|C-4 LF.. ....|--- .... ....|--- .... ....
....|..|--- .... ....|--- .... ....|R-- .... ....
..1B|..|A-3 AF.F ....|A-3 GF4F ....|B-3 ...F ....
....|..|--- .... ....|--- .... ....|--- .... ....
..1B|..|C-3 LF.. ....|--- .... ....|B-3 ...A ....
....|..|--- .... ....|--- .... ....|--- .... ....
..1B|..|A-1 7A.. ....|D-4 2F.F ....|--- .... ....
....|..|--- .... ....|--- .... ....|--- .... ....
..1B|..|C-4 LF.. ....|--- ...B ....|R-- .... ....
....|..|--- .... ....|--- .... ....|--- .... ....
..1B|..|A-3 KF.F ....|E-4 ...F ....|A-3 ...A ....
....|..|--- .... ....|--- .... ....|--- .... ....
..1B|..|A-1 6A.. ....|--- ...B ....|--- .... ....
....|..|--- .... ....|--- .... ....|R-- .... ....
..1B|..|B-3 AF.F ....|D-4 ...F ....|B-3 ...A ....
....|..|--- .... ....|--- .... ....|--- .... ....
..1B|..|C-3 LF.. ....|--- ...B ....|B-3 ...7 ....
....|..|--- .... ....|--- .... ....|--- .... ....
..1E|..|G-1 7A.. ....|G-3 .F4F ....|--- .... ....
....|..|--- .... ....|--- .... ....|--- .... ....
..1E|..|C-4 LF.. ....|--- .F.B ....|R-- .... ....
....|..|--- .... ....|--- .... ....|--- .... ....
..1E|..|G-3 KF.F ....|D-4 .F.F ....|A-3 ...7 ....
....|..|--- .... ....|--- .... ....|--- .... ....
..1E|..|G-2 6C.. ....|--- .F4B ....|--- .... ....
....|..|--- .... ....|--- .... ....|R-- .... ....
..1E|..|B-3 AF.. ....|G-3 .F.F ....|F#4 .F.F ....
....|..|--- .... ....|--- .... ....|--- .... ....
..1E|..|C-3 LF.. ....|--- .... 21.2|--- .... ....
....|..|--- .... ....|--- .... ....|--- .... ....
..1E|..|G-3 2C.. ....|G-3 ...A ....|E-4 ...F ....
....|..|--- .... ....|--- .... ....|--- .... ....
..1E|..|C-4 LF.. ....|--- .... ....|R-- .... ....
....|..|--- .... ....|--- .... ....|--- .... ....

[Pattern6]
..18|..|B-3 AF.F ....|B-3 GF3F ....|F#4 ...F ....
....|..|--- .... ....|--- .... ....|--- .... ....
..18|..|C-3 LF.. ....|--- .... ....|--- .... ....
....|..|--- .... ....|--- .... ....|--- .... ....
..18|..|B-1 7A.. ....|B-3 2F.B ....|R-- .... ....
....|..|--- .... ....|--- .... ....|--- .... ....
..18|..|C-4 LF.. ....|--- .... ....|--- .... ....
....|..|--- .... ....|--- .... ....|--- .... ....
..18|..|B-3 KF.F ....|E-4 2F.F ....|F#4 ...F ....
....|..|--- .... ....|--- .... ....|--- .... ....
..18|..|B-1 6A.. ....|--- ...B ....|--- .... ....
....|..|--- .... ....|--- .... ....|--- .... ....
..18|..|B-3 AF.F ....|F#4 ...F ....|R-- .... ....
....|..|--- .... ....|--- .... ....|--- .... ....
..30|..|C-3 LF.. ....|--- ...B ....|--- .... ....
....|..|--- .... ....|--- .... ....|--- .... ....
..18|..|B-1 7A.. ....|G-3 ...B ....|R-- .... ....
....|..|--- .... ....|--- .... ....|--- .... ....
..18|..|C-4 LF.. ....|--- ...B 11.2|--- .... ....
....|..|--- .... ....|--- .... ....|--- .... ....
..18|..|B-3 KF.F ....|B-3 GF3F ....|F#4 ...A ....
....|..|--- .... ....|--- .... ....|--- .... ....
..18|..|B-1 6A.. ....|--- .... ....|--- .... ....
....|..|--- .... ....|--- .... ....|--- .... ....
..18|..|B-3 AF.. ....|E-4 .F.F ....|F#4 ...F ....
....|..|--- .... ....|--- .... ....|--- .... ....
..18|..|C-3 LF.. ....|--- .... ....|--- .... ....
....|..|--- .... ....|--- .... ....|--- .... ....
..18|..|B-1 7A.. ....|--- .... 11.1|E-4 ...F ....
....|..|--- .... ....|--- .... ....|R-- .... ....
..18|..|C-4 LF.. ....|--- .... ....|--- .... ....
....|..|--- .... ....|--- .... ....|R-- .... ....
..1B|..|A-3 AF.F ....|A-3 GF4F ....|F#4 ...F ....
....|..|--- .... ....|--- .... ....|--- .... ....
..1B|..|C-3 LF.. ....|--- .... ....|--- .... ....
....|..|--- .... ....|--- .... ....|R-- .... ....
..1B|..|A-1 7A.. ....|D-4 2F.F ....|A-4 ...F ....
....|..|--- .... ....|--- .... ....|--- .... ....
..1B|..|C-4 LF.. ....|--- ...B ....|--- .... ....
....|..|--- .... ....|--- .... ....|--- .... ....
..1B|..|A-3 KF.F ....|E-4 ...F ....|E-4 ...A ....
....|..|--- .... ....|--- .... ....|R-- .... ....
..1B|..|A-1 6A.. ....|--- ...B ....|--- .... ....
....|..|--- .... ....|--- .... ....|R-- .... ....
..1B|..|B-3 AF.F ....|D-4 ...F ....|F#4 ...F ....
....|..|--- .... ....|--- .... ....|--- .... ....
..1B|..|C-3 LF.. ....|--- ...B ....|--- .... ....
....|..|--- .... ....|--- .... ....|R-- .... ....
..1E|..|G-1 7A.. ....|G-3 .F4F ....|A-4 ...F ....
....|..|--- .... ....|--- .... ....|--- .... ....
..1E|..|C-4 LF.. ....|--- .F.B ....|--- .... ....
....|..|--- .... ....|--- .... ....|--- .... ....
..1E|..|G-3 KF.F ....|D-4 .F.F ....|E-4 ...7 ....
....|..|--- .... ....|--- .... ....|R-- .... ....
..1E|..|G-2 6C.. ....|--- .F4B ....|A-4 ...F ....
....|..|--- .... ....|--- .... ....|R-- .... ....
..1E|..|B-3 AF.. ....|G-3 .F.F ....|F#4 ...A ....
....|..|--- .... ....|--- .... ....|--- .... ....
..1E|..|C-3 LF.. ....|--- .... 21.2|--- .... ....
....|..|--- .... ....|--- .... ....|R-- .... ....
..1E|..|G-3 2C.. ....|G-3 ...A ....|B-4 ...F ....
....|..|--- .... ....|--- .... ....|--- .... ....
..1E|..|C-4 LF.. ....|--- .... ....|--- .... ....
....|..|--- .... ....|--- .... ....|--- .... ....

[Pattern8]
..18|..|B-3 AF.F ....|B-3 GF3F ....|R-- .... ....
....|..|--- .... ....|--- .... ....|R-- .... ....
..18|..|C-3 LF.. ....|--- .... ....|R-- .... ....
....|..|--- .... ....|--- .... ....|--- .... ....
..18|..|B-1 7A.. ....|G-3 ...B ....|F#4 ...F ....
....|..|--- .... ....|--- .... ....|--- .... ....
..18|..|C-4 LF.. ....|--- .... ....|R-- .... ....
....|..|--- .... ....|--- .... ....|R-- .... ....
..18|..|B-3 KF.F ....|E-4 2F.F ....|B-4 ...A ....
....|..|--- .... ....|--- .... ....|R-- .... ....
..18|..|B-1 6A.. ....|--- ...B ....|--- .... ....
....|..|--- .... ....|--- .... ....|--- .... ....
..18|..|B-3 AF.F ....|F#4 ...F ....|R-- .... ....
....|..|--- .... ....|--- .... ....|--- .... ....
..30|..|C-3 LF.. ....|--- ...B ....|R-- .... ....
....|..|--- .... ....|--- .... ....|--- .... ....
..18|..|B-1 7A.. ....|G-3 ...B ....|A-4 ...F ....
....|..|--- .... ....|--- .... ....|--- .... ....
..18|..|C-4 LF.. ....|--- ...B 11.2|R-- .... ....
....|..|--- .... ....|--- .... ....|--- .... ....
..18|..|B-3 KF.F ....|B-3 GF3F ....|R-- .... ....
....|..|--- .... ....|--- .... ....|R-- .... ....
..18|..|B-1 6A.. ....|--- .... ....|A-4 ...F ....
....|..|--- .... ....|--- .... ....|--- .... ....
..18|..|B-3 AF.. ....|E-4 .F.F ....|--- .... ....
....|..|--- .... ....|--- .... ....|--- .... ....
..18|..|C-3 LF.. ....|--- .... ....|R-- .... ....
....|..|--- .... ....|--- .... ....|--- .... ....
..18|..|B-1 7A.. ....|--- .... 11.1|B-4 ...F ....
....|..|--- .... ....|--- .... ....|--- .... ....
..18|..|C-4 LF.. ....|--- .... ....|--- .... ....
....|..|--- .... ....|--- .... ....|--- .... ....
..1B|..|A-3 AF.F ....|A-3 GF4F ....|R-- .... ....
....|..|--- .... ....|--- .... ....|R-- .... ....
..1B|..|C-3 LF.. ....|--- .... ....|R-- .... ....
....|..|--- .... ....|--- .... ....|F#4 ...F ....
..1B|..|A-1 7A.. ....|D-4 2F.F ....|--- .... ....
....|..|--- .... ....|--- .... ....|--- .... ....
..1B|..|C-4 LF.. ....|--- ...B ....|R-- .... ....
....|..|--- .... ....|--- .... ....|--- .... ....
..1B|..|A-3 KF.F ....|E-4 ...F ....|B-4 ...A ....
....|..|--- .... ....|--- .... ....|R-- .... ....
..1B|..|A-1 6A.. ....|--- ...B ....|--- .... ....
....|..|--- .... ....|--- .... ....|--- .... ....
..1B|..|B-3 AF.F ....|D-4 ...F ....|R-- .... ....
....|..|--- .... ....|--- .... ....|--- .... ....
..1B|..|C-3 LF.. ....|--- ...B ....|R-- .... ....
....|..|--- .... ....|--- .... ....|F#4 ...A ....
..1E|..|G-1 7A.. ....|G-3 .F4F ....|F#4 ...F ....
....|..|--- .... ....|--- .... ....|--- .... ....
..1E|..|C-4 LF.. ....|--- .F.B ....|R-- .... ....
....|..|--- .... ....|--- .... ....|--- .... ....
..1E|..|G-3 KF.F ....|D-4 .F.F ....|R-- .... ....
....|..|--- .... ....|--- .... ....|R-- .... ....
..1E|..|G-2 6C.. ....|--- .F4B ....|F#4 ...F ....
....|..|--- .... ....|--- .... ....|--- .... ....
..1E|..|B-3 AF.. ....|G-3 .F.F ....|--- .... ....
....|..|--- .... ....|--- .... ....|--- .... ....
..1E|..|C-3 LF.. ....|--- .... 21.2|R-- .... ....
....|..|--- .... ....|--- .... ....|F#4 ...7 ....
..1E|..|G-3 2C.. ....|G-3 ...A ....|E-4 ...F ....
....|..|--- .... ....|--- .... ....|--- .... ....
..1E|..|C-4 LF.. ....|--- .... ....|--- .... ....
....|..|--- .... ....|--- .... ....|--- .... ....

[Pattern9]
..18|..|B-3 AF.F ....|B-3 GF3F ....|F#4 2..F ....
....|..|--- .... ....|--- .... ....|R-- .... ....
..18|..|C-3 LF.. ....|--- .... ....|F#4 ...A ....
....|..|--- .... ....|--- .... ....|--- .... ....
..18|..|B-1 7A.. ....|G-3 ...B ....|--- .... ....
....|..|--- .... ....|--- .... ....|--- .... ....
..18|..|C-4 LF.. ....|--- .... ....|R-- .... ....
....|..|--- .... ....|--- .... ....|R-- .... ....
..18|..|B-3 KF.F ....|E-4 2F.F ....|E-4 3..A ....
....|..|--- .... ....|--- .... ....|--- .... ....
..18|..|B-1 6A.. ....|--- ...B ....|--- .... ....
....|..|--- .... ....|--- .... ....|--- .... ....
..18|..|B-3 AF.F ....|F#4 ...F ....|F#4 3..A ....
....|..|--- .... ....|--- .... ....|--- .... ....
..30|..|C-3 LF.. ....|--- ...B ....|F#4 ...7 ....
....|..|--- .... ....|--- .... ....|--- .... ....
..18|..|B-1 7A.. ....|G-3 ...B ....|B-3 3..F ....
....|..|--- .... ....|--- .... ....|--- .... ....
..18|..|C-4 LF.. ....|--- ...B 11.2|R-- .... ....
....|..|--- .... ....|--- .... ....|R-- .... ....
..18|..|B-3 KF.F ....|B-3 GF3F ....|R-- .... ....
....|..|--- .... ....|--- .... ....|--- .... ....
..18|..|B-1 6A.. ....|--- .... ....|B-3 ...F ....
....|..|--- .... ....|--- .... ....|--- .... ....
..18|..|B-3 AF.. ....|E-4 .F.F ....|F#4 ...7 ....
....|..|--- .... ....|--- .... ....|--- .... ....
..18|..|C-3 LF.. ....|--- .... ....|R-- .... ....
....|..|--- .... ....|--- .... ....|--- .... ....
..18|..|B-1 7A.. ....|--- .... 11.1|A-3 2..F ....
....|..|--- .... ....|--- .... ....|--- .... ....
..18|..|C-4 LF.. ....|--- .... ....|--- .... ....
....|..|--- .... ....|--- .... ....|R-- .... ....
..1B|..|A-3 AF.F ....|A-3 GF4F ....|B-3 G..F ....
....|..|--- .... ....|--- .... ....|--- .... ....
..1B|..|C-3 LF.. ....|--- .... ....|B-3 ...A ....
....|..|--- .... ....|--- .... ....|--- .... ....
..1B|..|A-1 7A.. ....|D-4 2F.F ....|--- .... ....
....|..|--- .... ....|--- .... ....|--- .... ....
..1B|..|C-4 LF.. ....|--- ...B ....|R-- .... ....
....|..|--- .... ....|--- .... ....|--- .... ....
..1B|..|A-3 KF.F ....|E-4 ...F ....|A-3 ...A ....
....|..|--- .... ....|--- .... ....|--- .... ....
..1B|..|A-1 6A.. ....|--- ...B ....|--- .... ....
....|..|--- .... ....|--- .... ....|R-- .... ....
..1B|..|B-3 AF.F ....|D-4 ...F ....|B-3 ...A ....
....|..|--- .... ....|--- .... ....|--- .... ....
..1B|..|C-3 LF.. ....|--- ...B ....|B-3 ...7 ....
....|..|--- .... ....|--- .... ....|--- .... ....
..1E|..|G-1 7A.. ....|G-3 .F4F ....|--- .... ....
....|..|--- .... ....|--- .... ....|--- .... ....
..1E|..|C-4 LF.. ....|--- .F.B ....|R-- .... ....
....|..|--- .... ....|--- .... ....|--- .... ....
..1E|..|G-3 KF.F ....|D-4 .F.F ....|A-3 ...7 ....
....|..|--- .... ....|--- .... ....|--- .... ....
..1E|..|G-2 6C.. ....|--- .F4B ....|--- .... ....
....|..|--- .... ....|--- .... ....|R-- .... ....
..1E|..|B-3 AF.. ....|G-3 .F.F ....|B-3 ...7 ....
....|..|--- .... ....|--- .... ....|--- .... ....
..1E|..|C-3 LF.. ....|--- .... 21.2|--- .... ....
....|..|--- .... ....|--- .... ....|--- .... ....
..1E|..|G-3 2C.. ....|G-3 ...A ....|--- .... ....
....|..|--- .... ....|--- .... ....|--- .... ....
..1E|..|C-4 LF.. ....|--- .... ....|R-- .... ....
....|..|--- .... ....|--- .... ....|--- .... ....

[Pattern10]
..18|..|B-3 AF.F ....|B-3 GF.F ....|--- .... ....
....|..|--- .... ....|R-- .... ....|--- .... ....
..18|..|--- .... ....|F#4 ...F ....|--- .... ....
....|..|--- .... ....|R-- .... ....|--- .... ....
..30|..|B-1 7A.. ....|B-1 2C.F ....|B-3 ...F ....
....|..|--- .... ....|R-- .... ....|--- .... ....
..18|..|--- .... ....|B-1 ...F ....|--- .... ....
....|..|--- .... ....|R-- .... ....|--- .... ....
..18|..|B-3 AF.F ....|B-1 ...F ....|--- .... ....
....|..|--- .... ....|R-- .... ....|--- .... ....
..18|..|--- .... ....|B-1 ...F ....|--- .... ....
....|..|--- .... ....|R-- .... ....|--- .... ....
..18|..|B-1 7A.. ....|B-1 ...F ....|--- .... ....
....|..|--- .... ....|R-- .... ....|--- .... ....
..18|..|--- .... ....|B-1 ...F ....|--- .... ....
....|..|--- .... ....|R-- .... ....|--- .... ....
..18|..|B-3 AF.F ....|B-1 ...F ....|D-4 ...F ....
....|..|--- .... ....|R-- .... ....|--- .... ....
..18|..|--- .... ....|F#4 .F.F ....|--- .... ....
....|..|--- .... ....|R-- .... ....|--- .... ....
..18|..|B-1 7A.. ....|B-4 ...F ....|--- .... ....
....|..|--- .... ....|R-- .... ....|--- .... ....
..18|..|--- .... ....|B-2 .C.F ....|--- .... ....
....|..|--- .... ....|R-- .... ....|--- .... ....
..18|..|B-3 AF.F ....|B-2 ...F ....|E-4 ...F ....
....|..|--- .... ....|R-- .... ....|--- .... ....
..18|..|--- .... ....|B-2 ...F ....|--- .... ....
....|..|--- .... ....|R-- .... ....|--- .... ....
..18|..|B-1 7A.. ....|B-2 ...F ....|B-3 ...F ....
....|..|--- .... ....|R-- .... ....|--- .... ....
..18|..|--- .... ....|B-2 ...F ....|--- .... ....
....|..|--- .... ....|R-- .... ....|--- .... ....
..1B|..|A-3 AF.F ....|B-3 .F.F ....|--- .... ....
....|..|--- .... ....|R-- .... ....|--- .... ....
..1B|..|--- .... ....|F#4 ...F ....|--- .... ....
....|..|--- .... ....|R-- .... ....|--- .... ....
..1B|..|A-1 7A.. ....|B-4 ...F ....|B-3 ...F ....
....|..|--- .... ....|R-- .... ....|--- .... ....
..1B|..|--- .... ....|A-2 .C.F ....|--- .... ....
....|..|--- .... ....|R-- .... ....|--- .... ....
..1B|..|A-3 AF.F ....|A-2 ...F ....|B-3 ...A ....
....|..|--- .... ....|R-- .... ....|--- .... ....
..1B|..|--- .... ....|A-2 ...F ....|--- .... ....
....|..|--- .... ....|R-- .... ....|--- .... ....
..1B|..|A-1 7A.. ....|A-2 ...F ....|--- .... ....
....|..|--- .... ....|R-- .... ....|--- .... ....
..1B|..|--- .... ....|A-2 ...F ....|--- .... ....
....|..|--- .... ....|R-- .... ....|--- .... ....
..1E|..|G-3 AF.F ....|A-2 ...F ....|D-4 ...F ....
....|..|--- .... ....|R-- .... ....|--- .... ....
..1E|..|--- .... ....|F#4 .F.F ....|--- .... ....
....|..|--- .... ....|R-- .... ....|--- .... ....
..1E|..|G-1 7A.. ....|D-5 ...F ....|B-3 ...7 ....
....|..|--- .... ....|R-- .... ....|--- .... ....
..1E|..|--- .... ....|G-2 .C.F ....|--- .... ....
....|..|--- .... ....|R-- .... ....|--- .... ....
..1E|..|G-3 AF.F ....|G-2 ...F ....|E-4 ...F ....
....|..|--- .... ....|R-- .... ....|--- .... ....
..1E|..|--- .... ....|G-2 ...F ....|--- .... ....
....|..|--- .... ....|R-- .... ....|--- .... ....
..1E|..|G-1 7A.. ....|G-2 ...F ....|B-3 ...F ....
....|..|--- .... ....|R-- .... ....|--- .... ....
..1E|..|--- .... ....|G-2 ...F ....|--- .... ....
....|..|--- .... ....|R-- .... ....|--- .... ....

[Pattern11]
..18|..|B-3 AF.F ....|B-3 2FEF ....|R-- .... ....
....|..|--- .... ....|R-- .... ....|--- .... ....
..18|..|--- .... ....|F#4 ...F ....|--- .... ....
....|..|--- .... ....|R-- .... ....|--- .... ....
..18|..|B-1 7A.. ....|B-2 2C.F ....|B-3 ...F ....
....|..|--- .... ....|R-- .... ....|--- .... ....
..18|..|--- .... ....|B-3 ...F ....|--- .... ....
....|..|--- .... ....|R-- .... ....|--- .... ....
..18|..|B-3 AF.F ....|B-3 ...F ....|B-3 ...A ....
....|..|--- .... ....|R-- .... ....|--- .... ....
..18|..|--- .... ....|B-2 ...F ....|--- .... ....
....|..|--- .... ....|R-- .... ....|--- .... ....
..18|..|B-1 7A.. ....|B-2 ...F ....|R-- .... ....
....|..|--- .... ....|R-- .... ....|--- .... ....
..18|..|--- .... ....|B-3 ...F ....|--- .... ....
....|..|--- .... ....|R-- .... ....|--- .... ....
..18|..|B-3 AF.F ....|B-2 ...F ....|D-4 ...F ....
....|..|--- .... ....|R-- .... ....|--- .... ....
..18|..|--- .... ....|F#4 .F.F ....|--- .... ....
....|..|--- .... ....|R-- .... ....|--- .... ....
..18|..|B-1 7A.. ....|B-2 .C.F ....|B-3 ...7 ....
....|..|--- .... ....|R-- .... ....|--- .... ....
..18|..|--- .... ....|B-3 ...F ....|--- .... ....
....|..|--- .... ....|R-- .... ....|--- .... ....
..18|..|B-3 AF.F ....|B-2 ...F ....|E-4 ...F ....
....|..|--- .... ....|R-- .... ....|--- .... ....
..18|..|--- .... ....|B-2 ...F ....|--- .... ....
....|..|--- .... ....|R-- .... ....|--- .... ....
..18|..|B-1 7A.. ....|B-2 ...F ....|B-3 ...F ....
....|..|--- .... ....|R-- .... ....|--- .... ....
..18|..|--- .... ....|B-3 ...F ....|--- .... ....
....|..|--- .... ....|R-- .... ....|--- .... ....
..1B|..|A-3 AF.F ....|B-4 1FAF ....|--- .... ....
....|..|--- .... ....|R-- .... ....|--- .... ....
..1B|..|--- .... ....|E-5 ...F ....|--- .... ....
....|..|--- .... ....|R-- .... ....|--- .... ....
..1B|..|A-1 7A.. ....|A-5 ...F ....|B-3 ...F ....
....|..|--- .... ....|R-- .... ....|--- .... ....
..1B|..|--- .... ....|B-3 ...F ....|--- .... ....
....|..|--- .... ....|R-- .... ....|--- .... ....
..1B|..|A-3 AF.F ....|E-4 ...F ....|B-3 ...A ....
....|..|--- .... ....|R-- .... ....|--- .... ....
..1B|..|--- .... ....|A-4 ...F ....|--- .... ....
....|..|--- .... ....|R-- .... ....|--- .... ....
..1B|..|A-1 7A.. ....|E-4 ...F ....|--- .... ....
....|..|--- .... ....|R-- .... ....|--- .... ....
..1B|..|--- .... ....|B-3 ...F ....|--- .... ....
....|..|--- .... ....|R-- .... ....|--- .... ....
..1E|..|G-3 AF.F ....|D-6 ...F ....|D-4 ...F ....
....|..|--- .... ....|R-- .... ....|--- .... ....
..1E|..|--- .... ....|G-6 ...F ....|--- .... ....
....|..|--- .... ....|R-- .... ....|--- .... ....
..1E|..|G-1 7A.. ....|D-7 ...F ....|B-3 ...7 ....
....|..|--- .... ....|R-- .... ....|--- .... ....
..1E|..|--- .... ....|D-6 ...F ....|--- .... ....
....|..|--- .... ....|R-- .... ....|--- .... ....
..1E|..|G-3 AF.F ....|A-5 ...F ....|E-4 ...F ....
....|..|--- .... ....|R-- .... ....|--- .... ....
..1E|..|--- .... ....|D-5 ...F ....|--- .... ....
....|..|--- .... ....|R-- .... ....|--- .... ....
..1E|..|G-1 7A.. ....|D-4 ...F ....|B-3 ...F ....
....|..|--- .... ....|R-- .... ....|--- .... ....
..1E|..|--- .... ....|D-5 ...F ....|--- .... ....
....|..|--- .... ....|R-- .... ....|--- .... ....

[Pattern12]
..18|..|B-3 AF.F ....|B-4 1F.F ....|F#4 ...F ....
....|..|--- .... ....|R-- ...B ....|--- .... ....
..18|..|--- .... ....|F#5 ...F ....|--- .... 11.1
....|..|--- .... ....|B-4 ...B ....|R-- .... ....
..18|..|B-1 7A.. ....|B-5 ...F ....|F#4 ...F ....
....|..|--- .... ....|F#5 ...B ....|--- .... ....
..18|..|--- .... ....|F#6 ...F ....|R-- .... ....
....|..|--- .... ....|B-5 ...B ....|--- .... ....
..18|..|B-3 AF.F ....|B-6 ...F ....|F#4 ...F ....
....|..|--- .... ....|F#6 ...B ....|--- .... ....
..18|..|--- .... ....|F#6 ...F ....|--- .... 11.1
....|..|--- .... ....|B-6 ...B ....|--- .... ....
..18|..|B-1 7A.. ....|B-5 ...F ....|F#4 ...A ....
....|..|--- .... ....|F#6 ...B ....|R-- .... ....
..18|..|--- .... ....|F#5 ...F ....|--- .... ....
....|..|--- .... ....|B-5 ...B ....|R-- .... ....
..18|..|B-3 AF.F ....|B-4 ...F ....|F#4 ...F ....
....|..|--- .... ....|F#5 ...B ....|--- .... ....
..18|..|--- .... ....|F#5 ...F ....|R-- .... ....
....|..|--- .... ....|B-4 ...B ....|--- .... ....
..18|..|B-1 7A.. ....|B-5 ...F ....|F#4 ...F ....
....|..|--- .... ....|R-- ...B ....|--- .... ....
..18|..|--- .... ....|F#6 ...F ....|R-- .... ....
....|..|--- .... ....|R-- ...B ....|--- .... ....
..18|..|B-3 AF.F ....|B-6 ...F ....|F#4 ...F ....
....|..|--- .... ....|R-- ...B ....|R-- .... ....
..18|..|--- .... ....|F#6 ...F ....|--- .... ....
....|..|--- .... ....|R-- ...B ....|R-- .... ....
..18|..|B-1 7A.. ....|B-5 ...F ....|F#4 ...A ....
....|..|--- .... ....|R-- ...B ....|R-- .... ....
..18|..|--- .... ....|F#5 ...F ....|R-- .... ....
....|..|--- .... ....|R-- ...B ....|--- .... ....
..1B|..|A-3 AF.F ....|A-4 ...F ....|A-4 ...F ....
....|..|--- .... ....|R-- ...B ....|--- .... ....
..1B|..|--- .... ....|E-5 ...F ....|R-- .... ....
....|..|--- .... ....|R-- ...B ....|--- .... ....
..1B|..|A-1 7A.. ....|A-5 ...F ....|A-4 ...F ....
....|..|--- .... ....|R-- ...B ....|R-- .... ....
..1B|..|--- .... ....|E-6 ...F ....|--- .... ....
....|..|--- .... ....|R-- ...B ....|--- .... ....
..1B|..|A-3 AF.F ....|A-6 ...F ....|F#4 ...7 ....
....|..|--- .... ....|R-- ...B ....|R-- .... ....
..1B|..|--- .... ....|E-6 ...F ....|R-- .... ....
....|..|--- .... ....|R-- ...B ....|--- .... ....
..1B|..|A-1 7A.. ....|A-5 ...F ....|A-4 ...F ....
....|..|--- .... ....|R-- ...B ....|--- .... ....
..1B|..|--- .... ....|E-5 ...F ....|R-- .... ....
....|..|--- .... ....|R-- ...B ....|R-- .... ....
..1E|..|G-3 AF.F ....|G-4 ...F ....|B-4 ...F ....
....|..|--- .... ....|R-- ...B ....|--- .... 21.1
..1E|..|--- .... ....|D-5 ...F ....|--- .... ....
....|..|--- .... ....|R-- ...B ....|R-- .... ....
..1E|..|G-1 7A.. ....|G-5 ...F ....|--- .... ....
....|..|--- .... ....|R-- ...B ....|R-- .... ....
..1E|..|--- .... ....|D-6 ...F ....|B-4 ...F ....
....|..|--- .... ....|R-- ...B ....|--- .... ....
..1E|..|G-3 AF.F ....|G-6 ...F ....|A-4 ...A ....
....|..|--- .... ....|R-- ...B ....|--- .... ....
..1E|..|--- .... ....|D-6 ...F ....|R-- .... ....
....|..|--- .... ....|R-- ...B ....|R-- .... ....
..1E|..|G-1 7A.. ....|G-5 ...F ....|B-4 ...A ....
....|..|--- .... ....|R-- ...B ....|--- .... ....
..1E|..|--- .... ....|D-5 ...F ....|--- .... ....
....|..|--- .... ....|R-- ...B ....|R-- .... ....

[Pattern13]
..18|..|B-3 AF.F ....|B-4 1F.F ....|F#4 3FEF ....
....|..|--- .... ....|R-- .... ....|R-- .... ....
..18|..|--- .... ....|F#5 ...F ....|B-4 ...A ....
....|..|--- .... ....|R-- .... ....|R-- .... ....
..18|..|B-1 7A.. ....|B-5 ...F ....|F#4 ...F ....
....|..|--- .... ....|R-- .... ....|--- .... ....
..18|..|--- .... ....|F#6 ...F ....|R-- .... ....
....|..|--- .... ....|R-- .... ....|R-- .... ....
..18|..|B-3 AF.F ....|B-6 ...F ....|F#4 ...F ....
....|..|--- .... ....|R-- .... ....|--- .... ....
..18|..|--- .... ....|F#6 ...F ....|--- .... ....
....|..|--- .... ....|R-- .... ....|R-- .... ....
..18|..|B-1 7A.. ....|B-5 ...F ....|F#4 ...A ....
....|..|--- .... ....|R-- .... ....|R-- .... ....
..18|..|--- .... ....|F#5 ...F ....|B-4 ...7 ....
....|..|--- .... ....|R-- .... ....|R-- .... ....
..18|..|B-3 AF.F ....|B-4 ...F ....|F#4 ...F ....
....|..|--- .... ....|R-- .... ....|--- .... ....
..18|..|--- .... ....|F#5 ...F ....|R-- .... ....
....|..|--- .... ....|R-- .... ....|R-- .... ....
..18|..|B-1 7A.. ....|B-5 ...F ....|F#4 ...F ....
....|..|--- .... ....|R-- .... ....|--- .... ....
..18|..|--- .... ....|F#6 ...F ....|R-- .... ....
....|..|--- .... ....|R-- .... ....|--- .... ....
..18|..|B-3 AF.F ....|B-6 ...F ....|F#4 ...F ....
....|..|--- .... ....|R-- .... ....|R-- .... ....
..18|..|--- .... ....|F#6 ...F ....|--- .... ....
....|..|--- .... ....|R-- .... ....|R-- .... ....
..18|..|B-1 7A.. ....|B-5 ...F ....|F#4 ...A ....
....|..|--- .... ....|R-- .... ....|R-- .... ....
..18|..|--- .... ....|F#5 ...F ....|R-- .... ....
....|..|--- .... ....|R-- .... ....|--- .... ....
..1B|..|A-3 AF.F ....|A-4 ...F ....|A-4 ...F ....
....|..|--- .... ....|R-- .... ....|--- .... ....
..1B|..|--- .... ....|E-5 ...F ....|R-- .... ....
....|..|--- .... ....|R-- .... ....|--- .... ....
..1B|..|A-1 7A.. ....|A-5 ...F ....|A-4 ...F ....
....|..|--- .... ....|R-- .... ....|R-- .... ....
..1B|..|--- .... ....|E-6 ...F ....|--- .... ....
....|..|--- .... ....|R-- .... ....|--- .... ....
..1B|..|A-3 AF.F ....|A-6 ...F ....|F#4 ...7 ....
....|..|--- .... ....|R-- .... ....|R-- .... ....
..1B|..|--- .... ....|E-6 ...F ....|R-- .... ....
....|..|--- .... ....|R-- .... ....|--- .... ....
..1B|..|A-1 7A.. ....|A-5 ...F ....|A-4 ...F ....
....|..|--- .... ....|R-- .... ....|--- .... ....
..1B|..|--- .... ....|E-5 ...F ....|R-- .... ....
....|..|--- .... ....|R-- .... ....|R-- .... ....
..1E|..|G-3 AF.F ....|G-4 ...F ....|B-4 ...F ....
....|..|--- .... ....|R-- .... ....|--- .... ....
..1E|..|--- .... ....|D-5 ...F ....|--- .... ....
....|..|--- .... ....|R-- .... ....|R-- .... ....
..1E|..|G-1 7A.. ....|G-5 ...F ....|--- .... ....
....|..|--- .... ....|R-- .... ....|R-- .... ....
..1E|..|--- .... ....|D-6 ...F ....|B-4 ...F ....
....|..|--- .... ....|R-- .... ....|--- .... ....
..1E|..|G-3 AF.F ....|G-6 ...F ....|A-4 ...A ....
....|..|--- .... ....|R-- .... ....|--- .... ....
..1E|..|--- .... ....|D-6 ...F ....|R-- .... ....
....|..|--- .... ....|R-- .... ....|R-- .... ....
..1E|..|G-1 7A.. ....|G-5 ...F ....|B-4 ...A ....
....|..|--- .... ....|R-- .... ....|--- .... ....
..1E|..|--- .... ....|D-5 ...F ....|--- .... ....
....|..|--- .... ....|R-- .... ....|R-- .... ....

[Pattern15]
..18|..|B-3 AF.F ....|B-4 ...F ....|F#4 ...F ....
....|..|--- .... ....|R-- .... ....|R-- .... ....
..18|..|--- .... ....|F#5 ...F ....|B-4 ...A ....
....|..|--- .... ....|R-- .... ....|R-- .... ....
..18|..|B-1 7A.. ....|B-5 ...F ....|F#4 ...F ....
....|..|--- .... ....|R-- .... ....|--- .... ....
..18|..|--- .... ....|F#6 ...F ....|R-- .... ....
....|..|--- .... ....|R-- .... ....|R-- .... ....
..18|..|B-3 AF.F ....|B-6 ...F ....|F#4 ...F ....
....|..|--- .... ....|R-- .... ....|--- .... ....
..18|..|--- .... ....|F#6 ...F ....|--- .... ....
....|..|--- .... ....|R-- .... ....|R-- .... ....
..18|..|B-1 7A.. ....|B-5 ...F ....|F#4 ...A ....
....|..|--- .... ....|R-- .... ....|R-- .... ....
..18|..|--- .... ....|F#5 ...F ....|B-4 ...7 ....
....|..|--- .... ....|R-- .... ....|R-- .... ....
..18|..|B-3 AF.F ....|B-4 ...F ....|F#4 ...F ....
....|..|--- .... ....|R-- .... ....|--- .... ....
..18|..|--- .... ....|F#5 ...F ....|R-- .... ....
....|..|--- .... ....|R-- .... ....|R-- .... ....
..18|..|B-1 7A.. ....|B-5 ...F ....|F#4 ...F ....
....|..|--- .... ....|R-- .... ....|--- .... ....
..18|..|--- .... ....|F#6 ...F ....|R-- .... ....
....|..|--- .... ....|R-- .... ....|--- .... ....
..18|..|B-3 AF.F ....|B-6 ...F ....|F#4 ...F ....
....|..|--- .... ....|R-- .... ....|R-- .... ....
..18|..|--- .... ....|F#6 ...F ....|--- .... ....
....|..|--- .... ....|R-- .... ....|R-- .... ....
..18|..|B-1 7A.. ....|B-5 ...F ....|F#4 ...A ....
....|..|--- .... ....|R-- .... ....|R-- .... ....
..18|..|--- .... ....|F#5 ...F ....|R-- .... ....
....|..|--- .... ....|R-- .... ....|--- .... ....
..1B|..|A-3 AF.F ....|A-4 ...F ....|A-4 ...F ....
....|..|--- .... ....|R-- .... ....|--- .... ....
..1B|..|--- .... ....|E-5 ...F ....|R-- .... ....
....|..|--- .... ....|R-- .... ....|--- .... ....
..1B|..|A-1 7A.. ....|A-5 ...F ....|A-4 ...F ....
....|..|--- .... ....|R-- .... ....|R-- .... ....
..1B|..|--- .... ....|E-6 ...F ....|--- .... ....
....|..|--- .... ....|R-- .... ....|--- .... ....
..1B|..|A-3 AF.F ....|A-6 ...F ....|F#4 ...7 ....
....|..|--- .... ....|R-- .... ....|R-- .... ....
..1B|..|--- .... ....|E-6 ...F ....|R-- .... ....
....|..|--- .... ....|R-- .... ....|--- .... ....
..1B|..|A-1 7A.. ....|A-5 ...F ....|A-4 ...F ....
....|..|--- .... ....|R-- .... ....|--- .... ....
..1B|..|--- .... ....|E-5 ...F ....|R-- .... ....
....|..|--- .... ....|R-- .... ....|R-- .... ....
..1E|..|G-3 AF.F ....|G-4 ...F ....|B-4 ...F ....
....|..|--- .... ....|R-- .... ....|--- .... ....
..1E|..|--- .... ....|D-5 ...F ....|--- .... ....
....|..|--- .... ....|R-- .... ....|R-- .... ....
..1E|..|G-1 7A.. ....|G-5 ...F ....|--- .... ....
....|..|--- .... ....|R-- .... ....|R-- .... ....
..1E|..|--- .... ....|D-6 ...F ....|B-4 ...F ....
....|..|--- .... ....|R-- .... ....|--- .... ....
..1E|..|G-3 AF.F ....|G-6 ...F ....|F#4 ...F ....
....|..|--- .... ....|R-- .... ....|--- .... ....
..1E|..|--- .... ....|D-6 ...F ....|R-- .... ....
....|..|--- .... ....|R-- .... ....|R-- .... ....
..1E|..|G-3 AA.. ....|G-5 ...F ....|E-4 ...F ....
....|..|--- .... ....|R-- .... ....|--- .... ....
..1E|..|G-4 OFE. ....|D-5 ...F ....|--- .... ....
....|..|--- .... ....|R-- .... ....|R-- .... ....

[Pattern16]
..18|..|B-3 AF.F ....|B-3 2F3F ....|F#4 ...F ....
....|..|--- .... ....|--- .... ....|R-- .... ....
..18|..|C-3 LF.. ....|D-6 .F.A ....|B-4 ...A ....
....|..|--- .... ....|R-- .... ....|--- .... ....
..18|..|B-1 7A.. ....|G-6 ...A ....|R-- .... ....
....|..|--- .... ....|R-- .... ....|--- .... ....
..18|..|C-4 LF.. ....|D-6 ...A ....|--- .... ....
....|..|--- .... ....|R-- .... ....|R-- .... ....
..18|..|B-3 KF.F ....|E-4 .F.F ....|F#4 ...F ....
....|..|--- .... ....|--- .... ....|--- .... ....
..18|..|B-1 6A.. ....|D-5 ...A ....|--- .... ....
....|..|--- .... ....|R-- .... ....|R-- .... ....
..18|..|B-3 AF.F ....|F#4 ...F ....|R-- .... ....
....|..|--- .... ....|--- .... ....|--- .... ....
..30|..|C-3 LF.. ....|D-6 ...7 ....|B-4 ...7 ....
....|..|--- .... ....|R-- .... ....|--- .... ....
..18|..|B-1 7A.. ....|G-6 ...7 ....|R-- .... ....
....|..|--- .... ....|R-- .... ....|--- .... ....
..18|..|C-4 LF.. ....|D-6 ...7 ....|--- .... ....
....|..|--- .... ....|R-- .... ....|R-- .... ....
..18|..|B-3 KF.F ....|B-3 ...F ....|F#4 ...A ....
....|..|--- .... ....|R-- .... ....|--- .... ....
..18|..|B-1 6A.. ....|D-5 ...7 ....|--- .... ....
....|..|--- .... ....|R-- .... ....|--- .... ....
..18|..|B-3 AF.. ....|E-4 .F.F ....|F#4 ...F ....
....|..|--- .... ....|--- .... ....|--- .... ....
..18|..|C-3 LF.. ....|--- .... ....|--- .... ....
....|..|--- .... ....|--- .... ....|--- .... ....
..18|..|B-1 7A.. ....|--- .... ....|E-4 ...F ....
....|..|--- .... ....|--- .... ....|R-- .... ....
..18|..|C-4 LF.. ....|--- .... ....|--- .... ....
....|..|--- .... ....|--- .... ....|R-- .... ....
..1B|..|A-3 AF.F ....|A-3 .F4F ....|F#4 ...F ....
....|..|--- .... ....|--- .... ....|--- .... ....
..1B|..|C-3 LF.. ....|--- .... ....|--- .... ....
....|..|--- .... ....|--- .... ....|R-- .... ....
..1B|..|A-1 7A.. ....|D-4 .F.F ....|A-4 ...F ....
....|..|--- .... ....|--- .... ....|--- .... ....
..1B|..|C-4 LF.. ....|--- .... ....|--- .... ....
....|..|--- .... ....|--- .... ....|--- .... ....
..1B|..|A-3 KF.F ....|E-4 ...F ....|E-4 ...A ....
....|..|--- .... ....|--- .... ....|R-- .... ....
..1B|..|A-1 6A.. ....|--- .... ....|--- .... ....
....|..|--- .... ....|--- .... ....|R-- .... ....
..1B|..|B-3 AF.F ....|D-4 ...F ....|B-3 ...F ....
....|..|--- .... ....|--- .... ....|--- .... ....
..1B|..|C-3 LF.. ....|--- .... ....|--- .... ....
....|..|--- .... ....|--- .... ....|R-- .... ....
..1E|..|G-1 7A.. ....|G-3 ...F ....|A-4 ...F ....
....|..|--- .... ....|--- .... ....|--- .... ....
..1E|..|C-4 LF.. ....|--- .... ....|--- .... ....
....|..|--- .... ....|--- .... ....|--- .... ....
..1E|..|G-3 KF.F ....|D-4 ...F ....|E-4 ...7 ....
....|..|--- .... ....|--- .... ....|R-- .... ....
..1E|..|G-2 6C.. ....|--- .... ....|A-4 ...F ....
....|..|--- .... ....|--- .... ....|R-- .... ....
..1E|..|B-3 AF.. ....|G-3 ...F ....|B-3 ...A ....
....|..|--- .... ....|--- .... ....|--- .... ....
..1E|..|C-3 LF.. ....|--- .... ....|--- .... ....
....|..|--- .... ....|--- .... ....|R-- .... ....
..1E|..|G-3 2C.. ....|G-3 ...A ....|B-4 ...F ....
....|..|--- .... ....|--- .... ....|--- .... ....
..1E|..|C-4 LF.. ....|--- .... ....|--- .... ....
....|..|--- .... ....|--- .... ....|--- .... ....

[Pattern18]
..18|..|B-3 AF.F ....|B-3 GF3F ....|R-- .... ....
....|..|--- .... ....|--- .... ....|R-- .... ....
..18|..|C-3 LF.. ....|--- .... ....|R-- .... ....
....|..|--- .... ....|--- .... ....|--- .... ....
..18|..|B-1 7A.. ....|G-3 ...B ....|F#4 ...F ....
....|..|--- .... ....|--- .... ....|--- .... ....
..18|..|C-4 LF.. ....|--- .... ....|R-- .... ....
....|..|--- .... ....|--- .... ....|R-- .... ....
..18|..|B-3 KF.F ....|E-4 2F.F ....|B-4 ...A ....
....|..|--- .... ....|--- .... ....|R-- .... ....
..18|..|B-1 6A.. ....|--- ...B ....|--- .... ....
....|..|--- .... ....|--- .... ....|--- .... ....
..18|..|B-3 AF.F ....|F#4 ...F ....|B-3 ...F ....
....|..|--- .... ....|--- .... ....|--- .... ....
..30|..|C-3 LF.. ....|--- ...B ....|R-- .... ....
....|..|--- .... ....|--- .... ....|--- .... ....
..18|..|B-1 7A.. ....|G-3 ...B ....|A-4 ...F ....
....|..|--- .... ....|--- .... ....|--- .... ....
..18|..|C-4 LF.. ....|--- ...B 11.2|R-- .... ....
....|..|--- .... ....|--- .... ....|--- .... ....
..18|..|B-3 KF.F ....|B-3 GF3F ....|R-- .... ....
....|..|--- .... ....|--- .... ....|R-- .... ....
..18|..|B-1 6A.. ....|--- .... ....|A-4 ...F ....
....|..|--- .... ....|--- .... ....|--- .... ....
..18|..|B-3 AF.. ....|E-4 .F.F ....|B-3 ...A ....
....|..|--- .... ....|--- .... ....|--- .... ....
..18|..|C-3 LF.. ....|--- .... ....|R-- .... ....
....|..|--- .... ....|--- .... ....|--- .... ....
..18|..|B-1 7A.. ....|--- .... 11.1|B-4 ...F ....
....|..|--- .... ....|--- .... ....|--- .... ....
..18|..|C-4 LF.. ....|--- .... ....|--- .... ....
....|..|--- .... ....|--- .... ....|--- .... ....
..1B|..|A-3 AF.F ....|A-3 GF4F ....|R-- .... ....
....|..|--- .... ....|--- .... ....|R-- .... ....
..1B|..|C-3 LF.. ....|--- .... ....|R-- .... ....
....|..|--- .... ....|--- .... ....|--- .... ....
..1B|..|A-1 7A.. ....|D-4 2F.F ....|F#4 ...F ....
....|..|--- .... ....|--- .... ....|--- .... ....
..1B|..|C-4 LF.. ....|--- ...B ....|R-- .... ....
....|..|--- .... ....|--- .... ....|--- .... ....
..1B|..|A-3 KF.F ....|E-4 ...F ....|B-4 ...A ....
....|..|--- .... ....|--- .... ....|R-- .... ....
..1B|..|A-1 6A.. ....|--- ...B ....|--- .... ....
....|..|--- .... ....|--- .... ....|--- .... ....
..1B|..|B-3 AF.F ....|D-4 ...F ....|F#4 ...F ....
....|..|--- .... ....|--- .... ....|--- .... ....
..1B|..|C-3 LF.. ....|--- ...B ....|R-- .... ....
....|..|--- .... ....|--- .... ....|R-- .... ....
..1E|..|G-1 7A.. ....|G-3 .F4F ....|F#4 ...F ....
....|..|--- .... ....|--- .... ....|--- .... ....
..1E|..|C-4 LF.. ....|--- .F.B ....|R-- .... ....
....|..|--- .... ....|--- .... ....|--- .... ....
..1E|..|G-3 KF.F ....|D-4 .F.F ....|R-- .... ....
....|..|--- .... ....|--- .... ....|R-- .... ....
..1E|..|G-2 6C.. ....|--- .F4B ....|F#4 ...F ....
....|..|--- .... ....|--- .... ....|--- .... ....
..1E|..|B-3 AF.. ....|G-3 .F.F ....|F#4 ...A ....
....|..|--- .... ....|--- .... ....|--- .... ....
..1E|..|C-3 LF.. ....|--- .... 21.2|R-- .... ....
....|..|--- .... ....|--- .... ....|R-- .... ....
..1E|..|G-3 2C.. ....|G-3 ...A ....|E-4 ...F ....
....|..|--- .... ....|--- .... ....|--- .... ....
..1E|..|C-4 LF.. ....|--- .... ....|--- .... ....
....|..|--- .... ....|--- .... ....|--- .... ....

[Pattern20]
....|..|B-3 AF.F ....|B-3 2F3F ....|F#4 ...F ....
....|..|--- .... ....|--- .... ....|--- .... ....
....|..|--- .... ....|--- .... ....|--- .... ....
....|..|--- .... ....|--- .... ....|--- .... ....
..30|..|B-1 7A.. ....|G-3 .F.B ....|R-- .... ....
....|..|--- .... ....|--- .... ....|--- .... ....
....|..|--- .... ....|--- .... ....|--- .... ....
....|..|--- .... ....|--- .... ....|--- .... ....
....|..|B-3 AF.F ....|E-4 2F.F ....|F#4 ...F ....
....|..|--- .... ....|--- .... ....|--- .... ....
....|..|--- .... ....|--- ...B ....|--- .... ....
....|..|--- .... ....|--- .... ....|--- .... ....
..30|..|B-1 7A.. ....|F#4 ...F ....|R-- .... ....
....|..|--- .... ....|--- .... ....|--- .... ....
....|..|--- .... ....|--- ...B ....|--- .... ....
....|..|--- .... ....|--- .... ....|--- .... ....
....|..|B-3 AF.F ....|G-3 ...B ....|R-- .... ....
....|..|--- .... ....|--- .... ....|--- .... ....
....|..|--- .... ....|--- ...B 11.2|--- .... ....
....|..|--- .... ....|--- .... ....|--- .... ....
..30|..|B-1 7A.. ....|B-3 2F3F ....|F#4 ...A ....
....|..|--- .... ....|--- .... ....|--- .... ....
....|..|--- .... ....|--- .... ....|--- .... ....
....|..|--- .... ....|--- .... ....|--- .... ....
....|..|B-3 AF.F ....|E-4 .F.F ....|F#4 ...F ....
....|..|--- .... ....|--- .... ....|--- .... ....
....|..|--- .... ....|--- .... ....|--- .... ....
....|..|--- .... ....|--- .... ....|--- .... ....
..30|..|B-1 7A.. ....|--- .... 11.1|E-4 ...F ....
....|..|--- .... ....|--- .... ....|R-- .... ....
....|..|--- .... ....|--- .... ....|--- .... ....
....|..|--- .... ....|--- .... ....|R-- .... ....
....|..|A-3 AF.F ....|A-3 GF4F ....|F#4 ...F ....
....|..|--- .... ....|--- .... ....|--- .... ....
....|..|--- .... ....|--- .... ....|--- .... ....
....|..|--- .... ....|--- .... ....|R-- .... ....
..36|..|A-1 7A.. ....|D-4 2F.F ....|A-4 ...F ....
....|..|--- .... ....|--- .... ....|--- .... ....
....|..|--- .... ....|--- ...B ....|--- .... ....
....|..|--- .... ....|--- .... ....|--- .... ....
....|..|A-3 AF.F ....|E-4 ...F ....|E-4 ...A ....
....|..|--- .... ....|--- .... ....|R-- .... ....
....|..|--- .... ....|--- ...B ....|--- .... ....
....|..|--- .... ....|--- .... ....|R-- .... ....
..36|..|A-1 7A.. ....|D-4 ...F ....|B-3 ...F ....
....|..|--- .... ....|--- .... ....|--- .... ....
....|..|--- .... ....|--- ...B ....|--- .... ....
....|..|--- .... ....|--- .... ....|R-- .... ....
....|..|G-3 AF.F ....|G-3 .F4F ....|A-4 ...F ....
....|..|--- .... ....|--- .... ....|R-- .... ....
....|..|--- .... ....|--- .F.B ....|--- .... ....
....|..|--- .... ....|--- .... ....|--- .... ....
..3C|..|G-1 7A.. ....|D-4 .F.F ....|E-4 ...7 ....
....|..|--- .... ....|--- .... ....|R-- .... ....
....|..|--- .... ....|--- .F4B ....|A-4 ...F ....
....|..|--- .... ....|--- .... ....|R-- .... ....
....|..|G-3 AF.F ....|G-3 .F.F ....|B-3 ...A ....
....|..|--- .... ....|--- .... ....|--- .... ....
....|..|--- .... ....|--- .... 21.2|--- .... ....
....|..|--- .... ....|--- .... ....|R-- .... ....
..3C|..|G-1 7A.. ....|G-3 ...A ....|B-4 ...F ....
....|..|--- .... ....|--- .... ....|R-- .... ....
....|..|--- .... ....|--- .... ....|--- .... ....
....|..|--- .... ....|--- .... ....|--- .... ....

[Pattern21]
....|..|B-3 AF.F ....|B-3 2F3F ....|--- .... ....
....|..|--- .... ....|--- .... ....|R-- .... ....
....|..|--- .... ....|--- .... ....|R-- .... ....
....|..|--- .... ....|--- .... ....|--- .... ....
..30|..|B-1 7A.. ....|G-3 .F.B ....|F#4 ...F ....
....|..|--- .... ....|--- .... ....|--- .... ....
....|..|--- .... ....|--- .... ....|--- .... ....
....|..|--- .... ....|--- .... ....|R-- .... ....
....|..|B-3 AF.F ....|E-4 2F.F ....|B-4 ...A ....
....|..|--- .... ....|--- .... ....|R-- .... ....
....|..|--- .... ....|--- ...B ....|--- .... ....
....|..|--- .... ....|--- .... ....|--- .... ....
..30|..|B-1 7A.. ....|F#4 ...F ....|B-3 ...F ....
....|..|--- .... ....|--- .... ....|R-- .... ....
....|..|--- .... ....|--- ...B ....|R-- .... ....
....|..|--- .... ....|--- .... ....|--- .... ....
....|..|B-3 AF.F ....|G-3 ...B ....|A-4 ...F ....
....|..|--- .... ....|--- .... ....|--- .... ....
....|..|--- .... ....|--- ...B 11.2|--- .... ....
....|..|--- .... ....|--- .... ....|R-- .... ....
..30|..|B-1 7A.. ....|B-3 2F3F ....|R-- .... ....
....|..|--- .... ....|--- .... ....|R-- .... ....
....|..|--- .... ....|--- .... ....|A-4 ...F ....
....|..|--- .... ....|--- .... ....|--- .... ....
....|..|B-3 AF.F ....|E-4 .F.F ....|B-3 ...A ....
....|..|--- .... ....|--- .... ....|--- .... ....
....|..|--- .... ....|--- .... ....|R-- .... ....
....|..|--- .... ....|--- .... ....|--- .... ....
..30|..|B-1 7A.. ....|--- .... 11.1|A-4 ...F ....
....|..|--- .... ....|--- .... ....|--- .... ....
....|..|--- .... ....|--- .... ....|--- .... ....
....|..|--- .... ....|--- .... ....|--- .... ....
....|..|A-3 AF.F ....|A-3 GF4F ....|R-- .... ....
....|..|--- .... ....|--- .... ....|R-- .... ....
....|..|--- .... ....|--- .... ....|A-4 ...A ....
....|..|--- .... ....|--- .... ....|--- .... ....
..36|..|A-1 7A.. ....|D-4 2F.F ....|B-4 ...F ....
....|..|--- .... ....|--- .... ....|--- .... ....
....|..|--- .... ....|--- ...B ....|R-- .... ....
....|..|--- .... ....|--- .... ....|--- .... ....
....|..|A-3 AF.F ....|E-4 ...F ....|B-3 ...F ....
....|..|--- .... ....|--- .... ....|R-- .... ....
....|..|--- .... ....|--- ...B ....|--- .... ....
....|..|--- .... ....|--- .... ....|R-- .... ....
..36|..|A-1 7A.. ....|D-4 ...F ....|R-- .... ....
....|..|--- .... ....|--- .... ....|R-- .... ....
....|..|--- .... ....|--- ...B ....|A-4 ...7 ....
....|..|--- .... ....|--- .... ....|--- .... ....
....|..|G-3 AF.F ....|G-3 .F4F ....|A-4 ...F ....
....|..|--- .... ....|--- .... ....|--- .... ....
....|..|--- .... ....|--- .F.B ....|R-- .... ....
....|..|--- .... ....|--- .... ....|--- .... ....
..3C|..|G-1 7A.. ....|D-4 .F.F ....|R-- .... ....
....|..|--- .... ....|--- .... ....|R-- .... ....
....|..|--- .... ....|--- .F4B ....|A-4 ...F ....
....|..|--- .... ....|--- .... ....|R-- .... ....
....|..|G-3 AF.F ....|G-3 .F.F ....|--- .... ....
....|..|--- .... ....|--- .... ....|R-- .... ....
....|..|--- .... ....|--- .... 21.2|R-- .... ....
....|..|--- .... ....|--- .... ....|--- .... ....
..3C|..|G-1 7A.. ....|G-3 ...A ....|B-4 ...F ....
....|..|--- .... ....|--- .... ....|--- .... ....
....|..|--- .... ....|--- .... ....|--- .... ....
....|..|--- .... ....|--- .... ....|--- .... ....

[Pattern22]
....|..|B-3 AF.F ....|B-3 2F3F ....|R-- .... ....
....|..|--- .... ....|--- .... ....|R-- .... ....
....|..|--- .... ....|--- .... ....|R-- .... ....
....|..|--- .... ....|--- .... ....|R-- .... ....
..30|..|B-1 7A.. ....|G-3 .F.B ....|F#4 ...F ....
....|..|--- .... ....|--- .... ....|--- .... ....
....|..|--- .... ....|--- .... ....|R-- .... ....
....|..|--- .... ....|--- .... ....|--- .... ....
....|..|B-3 AF.F ....|E-4 2F.F ....|B-4 ...A ....
....|..|--- .... ....|--- .... ....|R-- .... ....
....|..|--- .... ....|--- ...B ....|--- .... ....
....|..|--- .... ....|--- .... ....|--- .... ....
..30|..|B-1 7A.. ....|F#4 ...F ....|B-3 ...F ....
....|..|--- .... ....|--- .... ....|--- .... ....
....|..|--- .... ....|--- ...B ....|R-- .... ....
....|..|--- .... ....|--- .... ....|--- .... ....
....|..|B-3 AF.F ....|G-3 ...B ....|A-4 ...F ....
....|..|--- .... ....|--- .... ....|--- .... ....
....|..|--- .... ....|--- ...B 11.2|R-- .... ....
....|..|--- .... ....|--- .... ....|--- .... ....
..30|..|B-1 7A.. ....|B-3 2F3F ....|R-- .... ....
....|..|--- .... ....|--- .... ....|R-- .... ....
....|..|--- .... ....|--- .... ....|A-4 ...F ....
....|..|--- .... ....|--- .... ....|--- .... ....
....|..|B-3 AF.F ....|E-4 .F.F ....|B-3 ...A ....
....|..|--- .... ....|--- .... ....|--- .... ....
....|..|--- .... ....|--- .... ....|R-- .... ....
....|..|--- .... ....|--- .... ....|--- .... ....
..30|..|B-1 7A.. ....|--- .... 11.1|A-4 ...F ....
....|..|--- .... ....|--- .... ....|--- .... ....
....|..|--- .... ....|--- .... ....|--- .... ....
....|..|--- .... ....|--- .... ....|--- .... ....
....|..|A-3 AF.F ....|A-3 GF4F ....|R-- .... ....
....|..|--- .... ....|--- .... ....|R-- .... ....
....|..|--- .... ....|--- .... ....|R-- .... ....
....|..|--- .... ....|--- .... ....|--- .... ....
..36|..|A-1 7A.. ....|D-4 2F.F ....|B-4 ...F ....
....|..|--- .... ....|--- .... ....|--- .... ....
....|..|--- .... ....|--- ...B ....|R-- .... ....
....|..|--- .... ....|--- .... ....|--- .... ....
....|..|A-3 AF.F ....|E-4 ...F ....|A-4 ...A ....
....|..|--- .... ....|--- .... ....|R-- .... ....
....|..|--- .... ....|--- ...B ....|--- .... ....
....|..|--- .... ....|--- .... ....|--- .... ....
..36|..|A-1 7A.. ....|D-4 ...F ....|B-3 ...F ....
....|..|--- .... ....|--- .... ....|--- .... ....
....|..|--- .... ....|--- ...B ....|R-- .... ....
....|..|--- .... ....|--- .... ....|--- .... ....
....|..|G-3 AF.F ....|G-3 .F4F ....|F#4 ...F ....
....|..|--- .... ....|--- .... ....|--- .... ....
....|..|--- .... ....|--- .F.B ....|R-- .... ....
....|..|--- .... ....|--- .... ....|--- .... ....
..3C|..|G-1 7A.. ....|D-4 .F.F ....|R-- .... ....
....|..|--- .... ....|--- .... ....|R-- .... ....
....|..|--- .... ....|--- .F4B ....|F#4 ...F ....
....|..|--- .... ....|--- .... ....|--- .... ....
....|..|G-3 AF.F ....|G-3 .F.F ....|B-3 ...A ....
....|..|--- .... ....|--- .... ....|--- .... ....
....|..|--- .... ....|--- .... 21.2|R-- .... ....
....|..|--- .... ....|--- .... ....|--- .... ....
..3C|..|G-1 7A.. ....|G-3 ...A ....|E-4 ...F ....
....|..|--- .... ....|--- .... ....|--- .... ....
....|..|--- .... ....|--- .... ....|--- .... ....
....|..|--- .... ....|--- .... ....|--- .... ....

[Pattern23]
....|..|B-3 AF.F ....|B-3 2F3F ....|F#4 ...F ....
....|..|--- .... ....|--- .... ....|R-- .... ....
....|..|--- .... ....|--- .... ....|F#4 ...A ....
....|..|--- .... ....|--- .... ....|--- .... ....
..30|..|B-1 7A.. ....|G-3 .F.B ....|B-3 ...7 ....
....|..|--- .... ....|--- .... ....|--- .... ....
....|..|--- .... ....|--- .... ....|R-- .... ....
....|..|--- .... ....|--- .... ....|R-- .... ....
....|..|B-3 AF.F ....|E-4 2F.F ....|E-4 ...A ....
....|..|--- .... ....|--- .... ....|--- .... ....
....|..|--- .... ....|--- ...B ....|--- .... ....
....|..|--- .... ....|--- .... ....|--- .... ....
..30|..|B-1 7A.. ....|F#4 ...F ....|B-3 ...F ....
....|..|--- .... ....|--- .... ....|--- .... ....
....|..|--- .... ....|--- ...B ....|R-- .... ....
....|..|--- .... ....|--- .... ....|--- .... ....
....|..|B-3 AF.F ....|G-3 ...B ....|B-3 ...F ....
....|..|--- .... ....|--- .... ....|--- .... ....
....|..|--- .... ....|--- ...B 11.2|R-- .... ....
....|..|--- .... ....|--- .... ....|R-- .... ....
..30|..|B-1 7A.. ....|B-3 2F3F ....|R-- .... ....
....|..|--- .... ....|--- .... ....|--- .... ....
....|..|--- .... ....|--- .... ....|B-3 ...F ....
....|..|--- .... ....|--- .... ....|--- .... ....
....|..|B-3 AF.F ....|E-4 .F.F ....|B-3 ...A ....
....|..|--- .... ....|--- .... ....|--- .... ....
....|..|--- .... ....|--- .... ....|R-- .... ....
....|..|--- .... ....|--- .... ....|--- .... ....
..30|..|B-1 7A.. ....|--- .... 11.1|A-3 ...F ....
....|..|--- .... ....|--- .... ....|--- .... ....
....|..|--- .... ....|--- .... ....|--- .... ....
....|..|--- .... ....|--- .... ....|R-- .... ....
....|..|A-3 AF.F ....|A-3 GF4F ....|B-3 ...F ....
....|..|--- .... ....|--- .... ....|--- .... ....
....|..|--- .... ....|--- .... ....|B-3 ...A ....
....|..|--- .... ....|--- .... ....|--- .... ....
..36|..|A-1 7A.. ....|D-4 2F.F ....|B-3 ...7 ....
....|..|--- .... ....|--- .... ....|--- .... ....
....|..|--- .... ....|--- ...B ....|R-- .... ....
....|..|--- .... ....|--- .... ....|--- .... ....
....|..|A-3 AF.F ....|E-4 ...F ....|A-3 ...A ....
....|..|--- .... ....|--- .... ....|--- .... ....
....|..|--- .... ....|--- ...B ....|--- .... ....
....|..|--- .... ....|--- .... ....|R-- .... ....
..36|..|A-1 7A.. ....|D-4 ...F ....|B-3 ...A ....
....|..|--- .... ....|--- .... ....|--- .... ....
....|..|--- .... ....|--- ...B ....|B-3 ...7 ....
....|..|--- .... ....|--- .... ....|--- .... ....
....|..|G-3 AF.F ....|G-3 .F4F ....|--- .... ....
....|..|--- .... ....|--- .... ....|--- .... ....
....|..|--- .... ....|--- .F.B ....|R-- .... ....
....|..|--- .... ....|--- .... ....|--- .... ....
..3C|..|G-1 7A.. ....|D-4 .F.F ....|A-3 ...7 ....
....|..|--- .... ....|--- .... ....|--- .... ....
....|..|--- .... ....|--- .F4B ....|--- .... ....
....|..|--- .... ....|--- .... ....|R-- .... ....
....|..|G-3 AF.F ....|G-3 .F.F ....|B-3 ...7 ....
....|..|--- .... ....|--- .... ....|--- .... ....
....|..|--- .... ....|--- .... 21.2|--- .... ....
....|..|--- .... ....|--- .... ....|--- .... ....
..3C|..|G-1 7A.. ....|G-3 ...A ....|--- .... ....
....|..|--- .... ....|--- .... ....|--- .... ....
....|..|--- .... ....|--- .... ....|R-- .... ....
....|..|--- .... ....|--- .... ....|--- .... ....

[Pattern24]
....|..|B-3 AF.F ....|D-4 ...A ....|B-5 2F.F ....
....|..|--- .... ....|R-- .... ....|--- .... ....
....|..|--- .... ....|F#4 ...F ....|--- .... ....
....|..|--- .... ....|R-- .... ....|--- .... ....
..30|..|B-1 7A.. ....|B-4 ...F ....|B-3 1F3F ....
....|..|--- .... ....|R-- .... ....|--- .... ....
....|..|--- .... ....|B-3 ...F ....|--- .... ....
....|..|--- .... ....|R-- .... ....|--- .... ....
....|..|B-3 AF.F ....|B-3 ...F ....|--- .... ....
....|..|--- .... ....|R-- .... ....|--- .... ....
....|..|--- .... ....|B-3 ...F ....|--- .... ....
....|..|--- .... ....|R-- .... ....|--- .... ....
..30|..|B-1 7A.. ....|B-3 ...F ....|B-5 .F.A ....
....|..|--- .... ....|R-- .... ....|--- .... ....
....|..|--- .... ....|B-3 ...F ....|--- .... ....
....|..|--- .... ....|R-- .... ....|--- .... ....
....|..|B-3 AF.F ....|B-3 ...F ....|D-4 ...F ....
....|..|--- .... ....|R-- .... ....|--- .... ....
....|..|--- .... ....|F#4 ...F ....|--- .... ....
....|..|--- .... ....|R-- .... ....|--- .... ....
..30|..|B-1 7A.. ....|B-4 ...F ....|--- .... ....
....|..|--- .... ....|R-- .... ....|--- .... ....
....|..|--- .... ....|B-3 ...F ....|--- .... ....
....|..|--- .... ....|R-- .... ....|--- .... ....
....|..|B-3 AF.F ....|B-3 ...F ....|E-4 ...F ....
....|..|--- .... ....|R-- .... ....|--- .... ....
....|..|--- .... ....|B-3 ...F ....|--- .... ....
....|..|--- .... ....|R-- .... ....|--- .... ....
..30|..|B-1 7A.. ....|B-3 ...F ....|B-3 .F3F ....
....|..|--- .... ....|R-- .... ....|--- .... ....
....|..|--- .... ....|B-3 ...F ....|--- .... ....
....|..|--- .... ....|R-- .... ....|--- .... ....
....|..|A-3 AF.F ....|B-3 ...F ....|--- ...B ....
....|..|--- .... ....|R-- .... ....|--- .... ....
....|..|--- .... ....|F#4 ...F ....|--- .... ....
....|..|--- .... ....|R-- .... ....|--- .... ....
..36|..|A-1 7A.. ....|B-4 ...F ....|B-3 .F.F ....
....|..|--- .... ....|R-- .... ....|--- .... ....
....|..|--- .... ....|B-3 ...F ....|--- .... ....
....|..|--- .... ....|R-- .... ....|--- .... ....
....|..|A-3 AF.F ....|B-3 ...F ....|B-3 ...A ....
....|..|--- .... ....|R-- .... ....|--- .... ....
....|..|--- .... ....|B-3 ...F ....|--- .... ....
....|..|--- .... ....|R-- .... ....|--- .... ....
..36|..|A-1 7A.. ....|B-3 ...F ....|--- .... ....
....|..|--- .... ....|R-- .... ....|--- .... ....
....|..|--- .... ....|B-3 ...F ....|--- .... ....
....|..|--- .... ....|R-- .... ....|--- .... ....
....|..|G-3 AF.F ....|B-3 ...F ....|D-4 ...F ....
....|..|--- .... ....|R-- .... ....|--- .... ....
....|..|--- .... ....|F#4 ...F ....|--- .... ....
....|..|--- .... ....|R-- .... ....|--- .... ....
..3C|..|G-1 7A.. ....|D-5 ...F ....|B-3 ...7 ....
....|..|--- .... ....|R-- .... ....|--- .... ....
....|..|--- .... ....|B-3 ...F ....|--- .... ....
....|..|--- .... ....|R-- .... ....|--- .... ....
....|..|G-3 AF.F ....|B-3 ...F ....|E-4 ...F ....
....|..|--- .... ....|R-- .... ....|--- .... ....
....|..|--- .... ....|B-3 ...F ....|--- .... ....
....|..|--- .... ....|R-- .... ....|--- .... ....
..3C|..|G-1 7A.. ....|B-3 ...F ....|B-3 ...F ....
....|..|--- .... ....|R-- .... ....|--- .... ....
....|..|--- .... ....|B-3 ...F ....|--- .... ....
....|..|--- .... ....|R-- .... ....|--- .... ....

[Pattern25]
....|..|B-3 AF.F ....|B-3 ...F ....|R-- .... ....
....|..|--- .... ....|R-- .... ....|--- .... ....
....|..|--- .... ....|F#4 ...F ....|--- .... ....
....|..|--- .... ....|R-- .... ....|--- .... ....
..30|..|B-1 7A.. ....|B-4 ...F ....|B-3 ...F ....
....|..|--- .... ....|R-- .... ....|--- .... ....
....|..|--- .... ....|B-3 ...F ....|--- .... ....
....|..|--- .... ....|R-- .... ....|--- .... ....
....|..|B-3 AF.F ....|B-3 ...F ....|B-3 ...A ....
....|..|--- .... ....|R-- .... ....|--- .... ....
....|..|--- .... ....|B-3 ...F ....|--- .... ....
....|..|--- .... ....|R-- .... ....|--- .... ....
..30|..|B-1 7A.. ....|B-3 ...F ....|R-- .... ....
....|..|--- .... ....|R-- .... ....|--- .... ....
....|..|--- .... ....|B-3 ...F ....|--- .... ....
....|..|--- .... ....|R-- .... ....|--- .... ....
....|..|B-3 AF.F ....|B-3 ...F ....|D-4 ...F ....
....|..|--- .... ....|R-- .... ....|--- .... ....
....|..|--- .... ....|F#4 ...F ....|--- .... ....
....|..|--- .... ....|R-- .... ....|--- .... ....
..30|..|B-1 7A.. ....|B-4 ...F ....|B-3 ...7 ....
....|..|--- .... ....|R-- .... ....|--- .... ....
....|..|--- .... ....|B-3 ...F ....|--- .... ....
....|..|--- .... ....|R-- .... ....|--- .... ....
....|..|B-3 AF.F ....|B-3 ...F ....|E-4 ...F ....
....|..|--- .... ....|R-- .... ....|--- .... ....
....|..|--- .... ....|B-3 ...F ....|--- .... ....
....|..|--- .... ....|R-- .... ....|--- .... ....
..30|..|B-1 7A.. ....|B-3 ...F ....|B-3 ...F ....
....|..|--- .... ....|R-- .... ....|--- .... ....
....|..|--- .... ....|B-3 ...F ....|--- .... ....
....|..|--- .... ....|R-- .... ....|--- .... ....
....|..|A-3 AF.F ....|B-4 ...F ....|--- .... ....
....|..|--- .... ....|R-- .... ....|--- .... ....
....|..|--- .... ....|E-5 ...F ....|--- .... ....
....|..|--- .... ....|R-- .... ....|--- .... ....
..36|..|A-1 7A.. ....|A-5 ...F ....|B-3 ...F ....
....|..|--- .... ....|R-- .... ....|--- .... ....
....|..|--- .... ....|B-3 ...F ....|--- .... ....
....|..|--- .... ....|R-- .... ....|--- .... ....
....|..|A-3 AF.F ....|E-4 ...F ....|B-3 ...A ....
....|..|--- .... ....|R-- .... ....|--- .... ....
....|..|--- .... ....|A-4 ...F ....|--- .... ....
....|..|--- .... ....|R-- .... ....|--- .... ....
..36|..|A-1 7A.. ....|E-4 ...F ....|--- .... ....
....|..|--- .... ....|R-- .... ....|--- .... ....
....|..|--- .... ....|B-3 ...F ....|--- .... ....
....|..|--- .... ....|R-- .... ....|--- .... ....
....|..|G-3 AF.F ....|D-6 ...F ....|D-4 ...F ....
....|..|--- .... ....|R-- .... ....|--- .... ....
....|..|--- .... ....|G-6 ...F ....|--- .... ....
....|..|--- .... ....|R-- .... ....|--- .... ....
..3C|..|G-1 7A.. ....|D-7 ...F ....|B-3 ...7 ....
....|..|--- .... ....|R-- .... ....|--- .... ....
....|..|--- .... ....|D-6 ...F ....|--- .... ....
....|..|--- .... ....|R-- .... ....|--- .... ....
....|..|G-3 AF.F ....|A-5 ...F ....|E-4 ...F ....
....|..|--- .... ....|R-- .... ....|--- .... ....
....|..|--- .... ....|D-5 ...F ....|--- .... ....
....|..|--- .... ....|R-- .... ....|--- .... ....
..3C|..|G-1 7A.. ....|D-4 ...F ....|B-3 ...F ....
....|..|--- .... ....|R-- .... ....|--- .... ....
....|..|--- .... ....|D-5 ...F ....|--- .... ....
....|..|--- .... ....|R-- .... ....|--- .... ....

[Pattern26]
....|..|B-3 AF.F ....|B-4 ...F ....|F#4 GFAF ....
....|..|--- .... ....|R-- .... ....|--- .... ....
....|..|--- .... ....|F#5 ...F ....|--- .... ....
....|..|--- .... ....|R-- .... ....|R-- .... ....
..30|..|B-1 7A.. ....|B-5 ...F ....|F#4 ...F ....
....|..|--- .... ....|R-- .... ....|--- .... ....
....|..|--- .... ....|F#6 ...F ....|R-- .... ....
....|..|--- .... ....|R-- .... ....|--- .... ....
....|..|B-3 AF.F ....|B-6 ...F ....|F#4 ...F ....
....|..|--- .... ....|R-- .... ....|--- .... ....
....|..|--- .... ....|F#6 ...F ....|--- .... ....
....|..|--- .... ....|R-- .... ....|--- .... ....
..30|..|B-1 7A.. ....|B-5 ...F ....|F#4 ...A ....
....|..|--- .... ....|R-- .... ....|R-- .... ....
....|..|--- .... ....|F#5 ...F ....|--- .... ....
....|..|--- .... ....|R-- .... ....|R-- .... ....
....|..|B-3 AF.F ....|B-4 ...F ....|F#4 ...F ....
....|..|--- .... ....|R-- .... ....|--- .... ....
....|..|--- .... ....|F#5 ...F ....|R-- .... ....
....|..|--- .... ....|R-- .... ....|--- .... ....
..30|..|B-1 7A.. ....|B-5 ...F ....|F#4 ...F ....
....|..|--- .... ....|R-- .... ....|--- .... ....
....|..|--- .... ....|F#6 ...F ....|R-- .... ....
....|..|--- .... ....|R-- .... ....|--- .... ....
....|..|B-3 AF.F ....|B-6 ...F ....|F#4 ...F ....
....|..|--- .... ....|R-- .... ....|R-- .... ....
....|..|--- .... ....|F#6 ...F ....|--- .... ....
....|..|--- .... ....|R-- .... ....|R-- .... ....
..30|..|B-1 7A.. ....|B-5 ...F ....|F#4 ...A ....
....|..|--- .... ....|R-- .... ....|R-- .... ....
....|..|--- .... ....|F#5 ...F ....|R-- .... ....
....|..|--- .... ....|R-- .... ....|--- .... ....
....|..|A-3 AF.F ....|A-4 ...F ....|A-4 ...F ....
....|..|--- .... ....|R-- .... ....|--- .... ....
....|..|--- .... ....|E-5 ...F ....|R-- .... ....
....|..|--- .... ....|R-- .... ....|--- .... ....
..36|..|A-1 7A.. ....|A-5 ...F ....|A-4 ...F ....
....|..|--- .... ....|R-- .... ....|R-- .... ....
....|..|--- .... ....|E-6 ...F ....|--- .... ....
....|..|--- .... ....|R-- .... ....|--- .... ....
....|..|A-3 AF.F ....|A-6 ...F ....|F#4 ...7 ....
....|..|--- .... ....|R-- .... ....|R-- .... ....
....|..|--- .... ....|E-6 ...F ....|R-- .... ....
....|..|--- .... ....|R-- .... ....|--- .... ....
..36|..|A-1 7A.. ....|A-5 ...F ....|A-4 ...F ....
....|..|--- .... ....|R-- .... ....|--- .... ....
....|..|--- .... ....|E-5 ...F ....|R-- .... ....
....|..|--- .... ....|R-- .... ....|R-- .... ....
....|..|G-3 AF.F ....|G-4 ...F ....|B-4 ...F ....
....|..|--- .... ....|R-- .... ....|--- .... ....
....|..|--- .... ....|D-5 ...F ....|--- .... ....
....|..|--- .... ....|R-- .... ....|R-- .... ....
..3C|..|G-1 7A.. ....|G-5 ...F ....|--- .... ....
....|..|--- .... ....|R-- .... ....|R-- .... ....
....|..|--- .... ....|D-6 ...F ....|B-4 ...F ....
....|..|--- .... ....|R-- .... ....|--- .... ....
....|..|G-3 AF.F ....|G-6 ...F ....|A-4 ...A ....
....|..|--- .... ....|R-- .... ....|--- .... ....
....|..|--- .... ....|D-6 ...F ....|R-- .... ....
....|..|--- .... ....|R-- .... ....|R-- .... ....
..3C|..|G-1 7A.. ....|G-5 ...F ....|B-4 ...A ....
....|..|--- .... ....|R-- .... ....|--- .... ....
....|..|--- .... ....|D-5 ...F ....|--- .... ....
....|..|--- .... ....|R-- .... ....|R-- .... ....

[Pattern27]
....|..|B-3 AF.F ....|B-4 ...F ....|F#4 GFAF ....
....|..|--- .... ....|R-- .... ....|R-- .... ....
....|..|--- .... ....|F#5 ...F ....|B-4 ...A ....
....|..|--- .... ....|R-- .... ....|R-- .... ....
..30|..|B-1 7A.. ....|B-5 ...F ....|F#4 ...F ....
....|..|--- .... ....|R-- .... ....|--- .... ....
....|..|--- .... ....|F#6 ...F ....|R-- .... ....
....|..|--- .... ....|R-- .... ....|R-- .... ....
....|..|B-3 AF.F ....|B-6 ...F ....|F#4 ...F ....
....|..|--- .... ....|R-- .... ....|--- .... ....
....|..|--- .... ....|F#6 ...F ....|--- .... ....
....|..|--- .... ....|R-- .... ....|R-- .... ....
..30|..|B-1 7A.. ....|B-5 ...F ....|F#4 ...A ....
....|..|--- .... ....|R-- .... ....|R-- .... ....
....|..|--- .... ....|F#5 ...F ....|B-4 ...7 ....
....|..|--- .... ....|R-- .... ....|R-- .... ....
....|..|B-3 AF.F ....|B-4 ...F ....|F#4 ...F ....
....|..|--- .... ....|R-- .... ....|--- .... ....
....|..|--- .... ....|F#5 ...F ....|R-- .... ....
....|..|--- .... ....|R-- .... ....|R-- .... ....
..30|..|B-1 7A.. ....|B-5 ...F ....|F#4 ...F ....
....|..|--- .... ....|R-- .... ....|--- .... ....
....|..|--- .... ....|F#6 ...F ....|R-- .... ....
....|..|--- .... ....|R-- .... ....|--- .... ....
....|..|B-3 AF.F ....|B-6 ...F ....|F#4 ...F ....
....|..|--- .... ....|R-- .... ....|R-- .... ....
....|..|--- .... ....|F#6 ...F ....|--- .... ....
....|..|--- .... ....|R-- .... ....|R-- .... ....
..30|..|B-1 7A.. ....|B-5 ...F ....|F#4 ...A ....
....|..|--- .... ....|R-- .... ....|R-- .... ....
....|..|--- .... ....|F#5 ...F ....|R-- .... ....
....|..|--- .... ....|R-- .... ....|--- .... ....
....|..|A-3 AF.F ....|A-4 ...F ....|A-4 ...F ....
....|..|--- .... ....|R-- .... ....|--- .... ....
....|..|--- .... ....|E-5 ...F ....|R-- .... ....
....|..|--- .... ....|R-- .... ....|--- .... ....
..36|..|A-1 7A.. ....|A-5 ...F ....|A-4 ...F ....
....|..|--- .... ....|R-- .... ....|R-- .... ....
....|..|--- .... ....|E-6 ...F ....|--- .... ....
....|..|--- .... ....|R-- .... ....|--- .... ....
....|..|A-3 AF.F ....|A-6 ...F ....|F#4 ...7 ....
....|..|--- .... ....|R-- .... ....|R-- .... ....
....|..|--- .... ....|E-6 ...F ....|R-- .... ....
....|..|--- .... ....|R-- .... ....|--- .... ....
..36|..|A-1 7A.. ....|A-5 ...F ....|A-4 ...F ....
....|..|--- .... ....|R-- .... ....|--- .... ....
....|..|--- .... ....|E-5 ...F ....|R-- .... ....
....|..|--- .... ....|R-- .... ....|R-- .... ....
....|..|G-3 AF.F ....|G-4 ...F ....|B-4 ...F ....
....|..|--- .... ....|R-- .... ....|--- .... ....
....|..|--- .... ....|D-5 ...F ....|--- .... ....
....|..|--- .... ....|R-- .... ....|R-- .... ....
..3C|..|G-1 7A.. ....|G-5 ...F ....|--- .... ....
....|..|--- .... ....|R-- .... ....|R-- .... ....
....|..|--- .... ....|D-6 ...F ....|B-4 ...F ....
....|..|--- .... ....|R-- .... ....|--- .... ....
....|..|G-3 AF.F ....|G-6 ...F ....|A-4 ...A ....
....|..|--- .... ....|R-- .... ....|--- .... ....
....|..|--- .... ....|D-6 ...F ....|R-- .... ....
....|..|--- .... ....|R-- .... ....|R-- .... ....
..3C|..|G-1 7A.. ....|G-5 ...F ....|B-4 ...A ....
....|..|--- .... ....|R-- .... ....|--- .... ....
....|..|--- .... ....|D-5 ...F ....|--- .... ....
....|..|--- .... ....|R-- .... ....|R-- .... ....

[Pattern29]
....|..|B-3 AF.F ....|B-4 ...F ....|F#4 ...F ....
....|..|--- .... ....|R-- .... ....|R-- .... ....
....|..|--- .... ....|F#5 ...F ....|B-4 ...A ....
....|..|--- .... ....|R-- .... ....|R-- .... ....
..30|..|B-1 7A.. ....|B-5 ...F ....|F#4 ...F ....
....|..|--- .... ....|R-- .... ....|--- .... ....
....|..|--- .... ....|F#6 ...F ....|R-- .... ....
....|..|--- .... ....|R-- .... ....|R-- .... ....
....|..|B-3 AF.F ....|B-6 ...F ....|F#4 ...F ....
....|..|--- .... ....|R-- .... ....|--- .... ....
....|..|--- .... ....|F#6 ...F ....|--- .... ....
....|..|--- .... ....|R-- .... ....|R-- .... ....
..30|..|B-1 7A.. ....|B-5 ...F ....|F#4 ...A ....
....|..|--- .... ....|R-- .... ....|R-- .... ....
....|..|--- .... ....|F#5 ...F ....|B-4 ...7 ....
....|..|--- .... ....|R-- .... ....|R-- .... ....
....|..|B-3 AF.F ....|B-4 ...F ....|F#4 ...F ....
....|..|--- .... ....|R-- .... ....|--- .... ....
....|..|--- .... ....|F#5 ...F ....|R-- .... ....
....|..|--- .... ....|R-- .... ....|R-- .... ....
..30|..|B-1 7A.. ....|B-5 ...F ....|F#4 ...F ....
....|..|--- .... ....|R-- .... ....|--- .... ....
....|..|--- .... ....|F#6 ...F ....|R-- .... ....
....|..|--- .... ....|R-- .... ....|--- .... ....
....|..|B-3 AF.F ....|B-6 ...F ....|F#4 ...F ....
....|..|--- .... ....|R-- .... ....|R-- .... ....
....|..|--- .... ....|F#6 ...F ....|--- .... ....
....|..|--- .... ....|R-- .... ....|R-- .... ....
..30|..|B-1 7A.. ....|B-5 ...F ....|F#4 ...A ....
....|..|--- .... ....|R-- .... ....|R-- .... ....
....|..|--- .... ....|F#5 ...F ....|R-- .... ....
....|..|--- .... ....|R-- .... ....|--- .... ....
....|..|A-3 AF.F ....|A-4 ...F ....|A-4 ...F ....
....|..|--- .... ....|R-- .... ....|--- .... ....
....|..|--- .... ....|E-5 ...F ....|R-- .... ....
....|..|--- .... ....|R-- .... ....|--- .... ....
..36|..|A-1 7A.. ....|A-5 ...F ....|A-4 ...F ....
....|..|--- .... ....|R-- .... ....|R-- .... ....
....|..|--- .... ....|E-6 ...F ....|--- .... ....
....|..|--- .... ....|R-- .... ....|--- .... ....
....|..|A-3 AF.F ....|A-6 ...F ....|F#4 ...7 ....
....|..|--- .... ....|R-- .... ....|R-- .... ....
....|..|--- .... ....|E-6 ...F ....|R-- .... ....
....|..|--- .... ....|R-- .... ....|--- .... ....
..36|..|A-1 7A.. ....|A-5 ...F ....|A-4 ...F ....
....|..|--- .... ....|R-- .... ....|--- .... ....
....|..|--- .... ....|E-5 ...F ....|R-- .... ....
....|..|--- .... ....|R-- .... ....|R-- .... ....
....|..|G-3 AF.F ....|G-4 ...F ....|B-4 ...F ....
....|..|--- .... ....|R-- .... ....|--- .... ....
....|..|--- .... ....|D-5 ...F ....|--- .... ....
....|..|--- .... ....|R-- .... ....|R-- .... ....
..3C|..|G-1 7A.. ....|G-5 ...F ....|--- .... ....
....|..|--- .... ....|R-- .... ....|R-- .... ....
....|..|--- .... ....|D-6 ...F ....|B-4 ...F ....
....|..|--- .... ....|R-- .... ....|--- .... ....
....|..|G-3 AF.F ....|G-6 ...F ....|R-- .... ....
....|..|--- .... ....|R-- .... ....|--- .... ....
....|..|--- .... ....|D-6 ...F ....|R-- .... ....
....|..|--- .... ....|R-- .... ....|R-- .... ....
..3C|..|G-1 7A.. ....|G-5 ...F ....|B-4 ...A ....
....|..|--- .... ....|R-- .... ....|--- .... ....
....|..|--- .... ....|D-5 ...F ....|--- .... ....
....|..|--- .... ....|R-- .... ....|R-- .... ....

[Pattern34]
..18|..|B-3 AF.F ....|B-4 ...F ....|--- .... ....
....|..|--- .... ....|R-- .... ....|R-- .... ....
....|..|--- .... ....|D-6 ...A ....|B-4 ...A ....
....|..|--- .... ....|R-- .... ....|--- .... ....
..30|..|B-1 7A.. ....|G-6 ...A ....|R-- .... ....
....|..|--- .... ....|R-- .... ....|--- .... ....
....|..|--- .... ....|D-6 ...A ....|--- .... ....
....|..|--- .... ....|R-- .... ....|R-- .... ....
..18|..|B-3 AF.F ....|D-5 ...F ....|B-4 ...7 ....
....|..|--- .... ....|R-- .... ....|--- .... ....
....|..|--- .... ....|D-5 ...A ....|--- .... ....
....|..|--- .... ....|R-- .... ....|R-- .... ....
..30|..|B-1 7A.. ....|F#5 ...F ....|--- .... ....
....|..|--- .... ....|R-- .... ....|--- .... ....
....|..|--- .... ....|D-6 ...7 ....|B-4 ...7 ....
....|..|--- .... ....|R-- .... ....|--- .... ....
..18|..|B-3 AF.F ....|G-6 ...7 ....|R-- .... ....
....|..|--- .... ....|R-- .... ....|--- .... ....
....|..|--- .... ....|D-6 ...7 ....|--- .... ....
....|..|--- .... ....|R-- .... ....|R-- .... ....
..30|..|B-1 7A.. ....|D-5 ...A ....|--- .... ....
....|..|--- .... ....|R-- .... ....|--- .... ....
....|..|--- .... ....|D-5 ...7 ....|--- .... ....
....|..|--- .... ....|R-- .... ....|--- .... ....
..18|..|B-3 AF.F ....|F#5 ...A ....|--- .... ....
....|..|--- .... ....|--- .... ....|--- .... ....
....|..|--- .... ....|--- .... ....|--- .... ....
....|..|--- .... ....|--- .... ....|--- .... ....
..30|..|B-1 7A.. ....|--- .... ....|--- .... ....
....|..|--- .... ....|--- .... ....|--- .... ....
....|..|--- .... ....|--- .... ....|--- .... ....
....|..|--- .... ....|--- .... ....|--- .... ....
..14|..|D-4 AF.F ....|A-5 1F.F ....|--- .... ....
....|..|--- .... ....|--- .... ....|--- .... ....
....|..|--- .... ....|--- .... ....|--- .... ....
....|..|--- .... ....|--- .... ....|--- .... ....
..28|..|D-2 7A.. ....|F#5 ...7 ....|--- .... ....
....|..|--- .... ....|--- .... ....|--- .... ....
....|..|--- .... ....|--- .... ....|--- .... ....
....|..|--- .... ....|--- .... ....|--- .... ....
..14|..|D-4 AF.F ....|--- .... ....|--- .... ....
....|..|--- .... ....|--- .... ....|--- .... ....
....|..|--- .... ....|--- .... ....|--- .... ....
....|..|--- .... ....|--- .... ....|--- .... ....
..28|..|D-2 7A.. ....|A-5 ...A ....|--- .... ....
....|..|--- .... ....|--- .... ....|--- .... ....
....|..|--- .... ....|--- .... ....|--- .... ....
....|..|--- .... ....|--- .... ....|--- .... ....
..14|..|D-4 AF.F ....|F#5 ...F ....|--- .... ....
....|..|--- .... ....|--- .... ....|--- .... ....
....|..|--- .... ....|--- .... ....|--- .... ....
....|..|--- .... ....|--- .... ....|--- .... ....
..28|..|D-2 7A.. ....|--- .... ....|--- .... ....
....|..|--- .... ....|--- .... ....|--- .... ....
....|..|--- .... ....|--- .... ....|--- .... ....
....|..|--- .... ....|--- .... ....|--- .... ....
..14|..|D-4 AF.F ....|A-5 ...7 ....|--- .... ....
....|..|--- .... ....|--- .... ....|--- .... ....
....|..|--- .... ....|--- .... ....|--- .... ....
....|..|--- .... ....|--- .... ....|--- .... ....
..28|..|D-2 7A.. ....|F#5 ...A ....|--- .... ....
....|..|--- .... ....|--- .... ....|--- .... ....
....|..|--- .... ....|--- .... ....|--- .... ....
....|..|--- .... ....|--- .... ....|--- .... ....

[Pattern35]
....|..|F#4 AF.F ....|E-5 ...F ....|--- .... ....
....|..|--- .... ....|--- .... ....|--- .... ....
....|..|--- .... ....|--- .... ....|--- .... ....
....|..|--- .... ....|--- .... ....|--- .... ....
..20|..|F#2 7A.. ....|--- .... ....|--- .... ....
....|..|--- .... ....|--- .... ....|--- .... ....
....|..|--- .... ....|--- .... ....|--- .... ....
....|..|--- .... ....|--- .... ....|--- .... ....
....|..|F#4 AF.F ....|F#5 ...7 ....|--- .... ....
....|..|--- .... ....|--- .... ....|--- .... ....
....|..|--- .... ....|--- .... ....|--- .... ....
....|..|--- .... ....|--- .... ....|--- .... ....
..20|..|F#2 7A.. ....|E-5 ...A ....|--- .... ....
....|..|--- .... ....|--- .... ....|--- .... ....
....|..|--- .... ....|--- .... ....|--- .... ....
....|..|--- .... ....|--- .... ....|--- .... ....
....|..|F#4 AF.F ....|--- .... ....|--- .... ....
....|..|--- .... ....|--- .... ....|--- .... ....
....|..|--- .... ....|--- .... ....|--- .... ....
....|..|--- .... ....|--- .... ....|--- .... ....
..20|..|F#2 7A.. ....|--- .... ....|--- .... ....
....|..|--- .... ....|--- .... ....|--- .... ....
....|..|--- .... ....|--- .... ....|--- .... ....
....|..|--- .... ....|--- .... ....|--- .... ....
....|..|F#4 AF.F ....|E-5 ...7 ....|--- .... ....
....|..|--- .... ....|--- .... ....|--- .... ....
....|..|--- .... ....|--- .... ....|--- .... ....
....|..|--- .... ....|--- .... ....|--- .... ....
..20|..|F#2 7A.. ....|--- .... ....|--- .... ....
....|..|--- .... ....|--- .... ....|--- .... ....
....|..|--- .... ....|--- .... ....|--- .... ....
....|..|--- .... ....|--- .... ....|--- .... ....
....|..|G#4 AF.F ....|D-5 ...F ....|--- .... ....
....|..|--- .... ....|--- .... ....|--- .... ....
....|..|--- .... ....|--- .... ....|--- .... ....
....|..|--- .... ....|--- .... ....|--- .... ....
..38|..|G#1 7A.. ....|--- .... ....|--- .... ....
....|..|--- .... ....|--- .... ....|--- .... ....
....|..|--- .... ....|--- .... ....|--- .... ....
....|..|--- .... ....|--- .... ....|--- .... ....
....|..|G#4 AF.F ....|--- .... ....|--- .... ....
....|..|--- .... ....|--- .... ....|--- .... ....
....|..|--- .... ....|--- .... ....|--- .... ....
....|..|--- .... ....|--- .... ....|--- .... ....
..38|..|G#1 7A.. ....|D-5 ...A ....|--- .... ....
....|..|--- .... ....|--- .... ....|--- .... ....
....|..|--- .... ....|--- .... ....|--- .... ....
....|..|--- .... ....|--- .... ....|--- .... ....
....|..|G#4 AF.F ....|--- .... ....|--- .... ....
....|..|--- .... ....|--- .... ....|--- .... ....
....|..|--- .... ....|--- .... ....|--- .... ....
....|..|--- .... ....|--- .... ....|--- .... ....
..38|..|G#1 7A.. ....|--- .... ....|--- .... ....
....|..|--- .... ....|--- .... ....|--- .... ....
....|..|--- .... ....|--- .... ....|--- .... ....
....|..|--- .... ....|--- .... ....|--- .... ....
....|..|G#4 AF.F ....|D-5 ...7 ....|--- .... ....
....|..|--- .... ....|--- .... ....|--- .... ....
....|..|--- .... ....|--- .... ....|--- .... ....
....|..|--- .... ....|--- .... ....|--- .... ....
..38|..|G#1 7A.. ....|--- .... ....|--- .... ....
....|..|--- .... ....|--- .... ....|--- .... ....
....|..|--- .... ....|--- .... ....|--- .... ....
....|..|--- .... ....|--- .... ....|--- .... ....

[Pattern36]
....|..|G#3 AF.F ....|C#5 ...F ....|--- .... ....
....|..|--- .... ....|--- .... ....|--- .... ....
....|..|--- .... ....|--- .... ....|--- .... ....
....|..|--- .... ....|--- .... ....|--- .... ....
..38|..|G#1 7A.. ....|--- .... ....|--- .... ....
....|..|--- .... ....|--- .... ....|--- .... ....
....|..|--- .... ....|--- .... ....|--- .... ....
....|..|--- .... ....|--- .... ....|--- .... ....
....|..|G#3 AF.F ....|--- .... ....|--- .... ....
....|..|--- .... ....|--- .... ....|--- .... ....
....|..|--- .... ....|--- .... ....|--- .... ....
....|..|--- .... ....|--- .... ....|--- .... ....
..38|..|G#1 7A.. ....|C#5 ...A ....|--- .... ....
....|..|--- .... ....|--- .... ....|--- .... ....
....|..|--- .... ....|--- .... ....|--- .... ....
....|..|--- .... ....|--- .... ....|--- .... ....
....|..|G#3 AF.F ....|--- .... ....|--- .... ....
....|..|--- .... ....|--- .... ....|--- .... ....
....|..|--- .... ....|--- .... ....|--- .... ....
....|..|--- .... ....|--- .... ....|--- .... ....
..38|..|G#1 7A.. ....|--- .... ....|--- .... ....
....|..|--- .... ....|--- .... ....|--- .... ....
....|..|--- .... ....|--- .... ....|--- .... ....
....|..|--- .... ....|--- .... ....|--- .... ....
....|..|G#3 AF.F ....|C#5 ...7 ....|--- .... ....
....|..|--- .... ....|--- .... ....|--- .... ....
....|..|--- .... ....|--- .... ....|--- .... ....
....|..|--- .... ....|--- .... ....|--- .... ....
..38|..|G#1 7A.. ....|--- .... ....|--- .... ....
....|..|--- .... ....|--- .... ....|--- .... ....
....|..|--- .... ....|--- .... ....|--- .... ....
....|..|--- .... ....|--- .... ....|--- .... ....
....|..|B-3 AF.F ....|B-4 ...F ....|F#4 ...F ....
....|..|--- .... ....|R-- .... ....|--- .... ....
....|..|--- .... ....|F#5 ...F ....|--- .... ....
....|..|--- .... ....|R-- .... ....|R-- .... ....
..30|..|B-1 7A.. ....|B-5 ...F ....|F#4 ...F ....
....|..|--- .... ....|R-- .... ....|--- .... ....
....|..|--- .... ....|F#6 ...F ....|R-- .... ....
....|..|--- .... ....|R-- .... ....|--- .... ....
....|..|B-3 AF.F ....|B-6 ...F ....|F#4 ...F ....
....|..|--- .... ....|R-- .... ....|--- .... ....
....|..|--- .... ....|F#6 ...F ....|--- .... ....
....|..|--- .... ....|R-- .... ....|--- .... ....
..30|..|B-1 7A.. ....|B-5 ...F ....|F#4 ...A ....
....|..|--- .... ....|R-- .... ....|R-- .... ....
....|..|--- .... ....|F#5 ...F ....|--- .... ....
....|..|--- .... ....|R-- .... ....|R-- .... ....
....|..|B-3 AF.F ....|B-4 ...F ....|F#4 ...F ....
....|..|--- .... ....|R-- .... ....|--- .... ....
....|..|--- .... ....|F#5 ...F ....|R-- .... ....
....|..|--- .... ....|R-- .... ....|--- .... ....
..30|..|B-1 7A.. ....|B-5 ...F ....|F#4 ...F ....
....|..|--- .... ....|R-- .... ....|--- .... ....
....|..|--- .... ....|F#6 ...F ....|R-- .... ....
....|..|--- .... ....|R-- .... ....|--- .... ....
....|..|B-3 AF.F ....|B-6 ...F ....|F#4 ...F ....
....|..|--- .... ....|R-- .... ....|R-- .... ....
....|..|--- .... ....|F#6 ...F ....|--- .... ....
....|..|--- .... ....|R-- .... ....|R-- .... ....
..30|..|B-1 7A.. ....|B-5 ...F ....|F#4 ...A ....
....|..|--- .... ....|R-- .... ....|R-- .... ....
....|..|--- .... ....|F#5 ...F ....|R-- .... ....
....|..|--- .... ....|R-- .... ....|--- .... ....

[Pattern37]
....|..|A-3 AF.F ....|A-4 ...F ....|A-4 ...F ....
....|..|--- .... ....|R-- .... ....|--- .... ....
....|..|--- .... ....|E-5 ...F ....|R-- .... ....
....|..|--- .... ....|R-- .... ....|--- .... ....
..1B|..|A-2 7A.. ....|A-5 ...F ....|A-4 ...F ....
....|..|--- .... ....|R-- .... ....|R-- .... ....
....|..|--- .... ....|E-6 ...F ....|C#5 ...F ....
....|..|--- .... ....|R-- .... ....|--- .... ....
....|..|A-3 AF.F ....|A-6 ...F ....|F#4 ...7 ....
....|..|--- .... ....|R-- .... ....|R-- .... ....
....|..|--- .... ....|E-6 ...F ....|R-- .... ....
....|..|--- .... ....|R-- .... ....|--- .... ....
..1B|..|A-2 7A.. ....|A-5 ...F ....|A-4 ...F ....
....|..|--- .... ....|R-- .... ....|--- .... ....
....|..|--- .... ....|E-5 ...F ....|R-- .... ....
....|..|--- .... ....|R-- .... ....|R-- .... ....
....|..|G-3 AF.F ....|G-4 ...F ....|B-4 ...F ....
....|..|--- .... ....|R-- .... ....|R-- .... ....
....|..|--- .... ....|D-5 ...F ....|C#5 ...A ....
....|..|--- .... ....|R-- .... ....|R-- .... ....
..1E|..|G-2 7A.. ....|G-5 ...F ....|--- .... ....
....|..|--- .... ....|R-- .... ....|R-- .... ....
....|..|--- .... ....|D-6 ...F ....|B-4 ...F ....
....|..|--- .... ....|R-- .... ....|--- .... ....
....|..|G-3 AF.F ....|G-6 ...F ....|A-4 ...A ....
....|..|--- .... ....|R-- .... ....|--- .... ....
....|..|--- .... ....|D-6 ...F ....|R-- .... ....
....|..|--- .... ....|R-- .... ....|R-- .... ....
..1E|..|G-2 7A.. ....|G-5 ...F ....|B-4 ...A ....
....|..|--- .... ....|R-- .... ....|R-- .... ....
....|..|--- .... ....|D-5 ...F ....|C#5 ...7 ....
....|..|--- .... ....|R-- .... ....|R-- .... ....
....|..|B-3 AF.F ....|B-4 ...F ....|F#4 ...F ....
....|..|--- .... ....|R-- .... ....|R-- .... ....
....|..|--- .... ....|F#5 ...F ....|B-4 ...A ....
....|..|--- .... ....|R-- .... ....|R-- .... ....
..18|..|B-2 7A.. ....|B-5 ...F ....|F#4 ...F ....
....|..|--- .... ....|R-- .... ....|--- .... ....
....|..|--- .... ....|F#6 ...F ....|R-- .... ....
....|..|--- .... ....|R-- .... ....|R-- .... ....
....|..|B-3 AF.F ....|B-6 ...F ....|F#4 ...F ....
....|..|--- .... ....|R-- .... ....|--- .... ....
....|..|--- .... ....|F#6 ...F ....|--- .... ....
....|..|--- .... ....|R-- .... ....|R-- .... ....
..18|..|B-2 7A.. ....|B-5 ...F ....|F#4 ...A ....
....|..|--- .... ....|R-- .... ....|R-- .... ....
....|..|--- .... ....|F#5 ...F ....|B-4 ...7 ....
....|..|--- .... ....|R-- .... ....|R-- .... ....
....|..|B-3 AF.F ....|B-4 ...F ....|F#4 ...F ....
....|..|--- .... ....|R-- .... ....|--- .... ....
....|..|--- .... ....|F#5 ...F ....|R-- .... ....
....|..|--- .... ....|R-- .... ....|R-- .... ....
..18|..|B-2 7A.. ....|B-5 ...F ....|F#4 ...F ....
....|..|--- .... ....|R-- .... ....|--- .... ....
....|..|--- .... ....|F#6 ...F ....|R-- .... ....
....|..|--- .... ....|R-- .... ....|--- .... ....
....|..|B-3 AF.F ....|B-6 ...F ....|F#4 ...F ....
....|..|--- .... ....|R-- .... ....|R-- .... ....
....|..|--- .... ....|F#6 ...F ....|--- .... ....
....|..|--- .... ....|R-- .... ....|R-- .... ....
..18|..|B-2 7A.. ....|B-5 ...F ....|F#4 ...A ....
....|..|--- .... ....|R-- .... ....|R-- .... ....
....|..|--- .... ....|F#5 ...F ....|R-- .... ....
....|..|--- .... ....|R-- .... ....|--- .... ....

[Pattern44]
....|..|B-3 AF.F ....|A-4 ...F ....|A-4 ...F ....
....|..|--- .... ....|R-- .... ....|--- .... ....
....|..|--- .... ....|E-5 ...F ....|R-- .... ....
....|..|--- .... ....|R-- .... ....|--- .... ....
..30|..|B-1 7A.. ....|A-5 ...F ....|A-4 ...F ....
....|..|--- .... ....|R-- .... ....|R-- .... ....
....|..|--- .... ....|E-6 ...F ....|C#5 ...F ....
....|..|--- .... ....|R-- .... ....|--- .... ....
....|..|B-3 AF.F ....|A-6 ...F ....|F#4 ...7 ....
....|..|--- .... ....|R-- .... ....|R-- .... ....
....|..|--- .... ....|E-6 ...F ....|R-- .... ....
....|..|--- .... ....|R-- .... ....|--- .... ....
..30|..|B-1 7A.. ....|A-5 ...F ....|A-4 ...F ....
....|..|--- .... ....|R-- .... ....|--- .... ....
....|..|--- .... ....|E-5 ...F ....|R-- .... ....
....|..|--- .... ....|R-- .... ....|R-- .... ....
....|..|B-3 AF.F ....|G-4 ...F ....|B-4 ...F ....
....|..|--- .... ....|R-- .... ....|R-- .... ....
....|..|--- .... ....|D-5 ...F ....|C#5 ...A ....
....|..|--- .... ....|R-- .... ....|R-- .... ....
..30|..|B-1 7A.. ....|G-5 ...F ....|--- .... ....
....|..|--- .... ....|R-- .... ....|R-- .... ....
....|..|--- .... ....|D-6 ...F ....|B-4 ...F ....
....|..|--- .... ....|R-- .... ....|--- .... ....
....|..|B-3 AF.F ....|G-6 ...F ....|A-4 ...A ....
....|..|--- .... ....|R-- .... ....|--- .... ....
....|..|--- .... ....|D-6 ...F ....|R-- .... ....
....|..|--- .... ....|R-- .... ....|R-- .... ....
..30|..|B-1 7A.. ....|G-5 ...F ....|B-4 ...A ....
....|..|--- .... ....|R-- .... ....|R-- .... ....
....|..|--- .... ....|D-5 ...F ....|C#5 ...7 ....
....|..|--- .... ....|R-- .... ....|R-- .... ....
....|..|G-2 AF.F ....|G-5 ...A ....|--- .... ....
....|..|--- .... ....|R-- .... ....|R-- .... ....
....|..|--- .... ....|D-6 ...A ....|B-4 ...A ....
....|..|--- .... ....|R-- .... ....|--- .... ....
..1E|..|G-2 7A.. ....|G-6 ...A ....|A-4 ...7 ....
....|..|--- .... ....|R-- .... ....|--- .... ....
....|..|--- .... ....|D-6 ...A ....|R-- .... ....
....|..|--- .... ....|R-- .... ....|R-- .... ....
....|..|G-2 AF.F ....|G-5 ...A ....|B-4 ...7 ....
....|..|--- .... ....|R-- .... ....|--- .... ....
....|..|--- .... ....|D-5 ...A ....|--- .... ....
....|..|--- .... ....|R-- .... ....|R-- .... ....
..1E|..|G-2 7A.. ....|G-5 ...7 ....|--- .... ....
....|..|--- .... ....|R-- .... ....|R-- .... ....
....|..|--- .... ....|D-6 ...7 ....|B-4 ...7 ....
....|..|--- .... ....|R-- .... ....|--- .... ....
....|..|G-3 AF.F ....|G-6 ...7 ....|--- .... ....
....|..|--- .... ....|R-- .... ....|--- .... ....
....|..|--- .... ....|D-6 ...7 ....|R-- .... ....
....|..|--- .... ....|R-- .... ....|R-- .... ....
..1E|..|G-2 7A.. ....|G-5 ...7 ....|--- .... ....
....|..|--- .... ....|R-- .... ....|--- .... ....
....|..|--- .... ....|D-5 ...7 ....|--- .... ....
....|..|--- .... ....|R-- .... ....|--- .... ....
....|..|G-3 AF.F ....|--- .... ....|--- .... ....
....|..|--- .... ....|--- .... ....|--- .... ....
....|..|--- .... ....|--- .... ....|--- .... ....
....|..|--- .... ....|--- .... ....|--- .... ....
..1E|..|G-2 7A.. ....|--- .... ....|--- .... ....
....|..|--- .... ....|--- .... ....|--- .... ....
....|..|--- .... ....|--- .... ....|--- .... ....
....|..|--- .... ....|--- .... ....|--- .... ....

