[Module]
VortexTrackerII=0
Version=3.5
Title=6d-1me,2m[uf]-3m+,5p-4p+-7m+
Author=oisee ^ 4d 29.05.2010
NoteTable=4
ChipFreq=1750000
Speed=4
PlayOrder=L0,1,2,3,4,5,6,7,8,9,10,11,12,13,14,15,16,17,18,19,20,21,22,23,24,25,26,27,28


[Ornament1]
L0,0,3,3,7,7

[Ornament2]
L0,0,4,4,7,7

[Ornament3]
L0,0,5,5

[Ornament4]
L0,0,5,5,8,8

[Ornament5]
L0,0,7,7,12,12

[Ornament6]
L0,0,3,3,8,8

[Ornament7]
L0,0,7,7

[Ornament8]
L0,0,4,4

[Ornament9]
L0,0,12,12

[Ornament10]
L0,0,1,1,8,8,13,13,20,20

[Ornament11]
L0,0,1,1


[Sample1]
TnE +000_ +00_ F_
TnE +000_ +00_ F_
TnE +000_ +00_ F_
TnE +000_ +00_ D_
TnE +000_ +00_ B_
TnE +000_ +00_ B_ L

[Sample2]
TnE +000_ +00_ F_ L

[Sample3]
TnE +001_ +00_ F_
TnE +002_ +00_ F_
TnE +001_ +00_ E_
TnE +002_ +00_ E_
TnE +000_ +00_ E_ L
TnE -001_ +00_ E_
TnE -002_ +00_ E_
TnE -001_ +00_ E_
TnE +000_ +00_ E_
TnE +001_ +00_ E_
TnE +002_ +00_ E_
TnE +001_ +00_ E_

[Sample4]
TnE +002_ +00_ D_
TnE +002_ +00_ D_
TnE +002_ +00_ C_
TnE +002_ +00_ B_
TnE +002_ +00_ A_ L
TnE +002_ +00_ A_
TnE +002_ +00_ A_
TnE +002_ +00_ A_
TnE +002_ +00_ A_
TnE +002_ +00_ A_
TnE +002_ +00_ A_
TnE +002_ +00_ A_

[Sample5]
TnE +000_ +00_ F_
TnE +000_ +00_ F_
tne +000_ +00_ 0_ L

[Sample6]
TnE -001_ +00_ F_ L

[Sample7]
TnE +006_ +00_ F_ L

[Sample8]
tNe +000_ +00_ F_
tNe +000_ +00_ B_
tNe +000_ +00_ 7_
tNe +000_ +00_ 6- L

[Sample9]
TnE +080_ +00_ F_
TnE +100_ +00_ E_
TnE +180_ +00_ E_
TnE +200_ +00_ E_
TnE +240_ +00_ D_
TnE +280_ +00_ D_
TnE +2C0_ +00_ D_
TnE +300_ +00_ C_
TnE +300_ +00_ C_
TnE +340_ +00_ C_
TnE +340_ +00_ C_
TnE +380_ +00_ B_
TnE +380_ +00_ B_
TnE +400_ +00_ B_
TnE +400_ +00_ B_
TnE +480_ +00_ A_
TnE +500_ +00_ 9_
TnE +580_ +00_ 7_
TnE +600_ +00_ 4_
TnE +680_ +00_ 1_
TnE +000_ +00_ 0_ L

[Sample10]
Tne +1C0_ +00_ F_
Tne +280_ +00_ E_
Tne +380_ +00_ C_
Tne +440_ +00_ A_
Tne +480_ +00_ 8_
TnE +000_ +00_ 0_ L

[Sample11]
TNe +200_ -0A_ F_
tNe +000_ +0F_ A_
TNe +200_ -07_ E_
tNe +000_ +0E_ B- L

[Sample12]
TNE +0A0_ +05_ F_
TNE +140_ +02_ D_
TNE +140_ +02_ B_
TNE +100_ +00_ A_ L
TNE +140_ +00_ A_
TNE +200_ +00_ A-

[Sample13]
Tne +200_ +00_ F_
Tne +2C0_ +00_ F_
Tne +380_ +00_ E_
Tne +500_ +00_ C_
Tne +520_ +00_ 9_
tne +000_ +00_ 0_ L

[Sample14]
TNE -100_ +00_ F_
TNE -100_ +00_ D_
TNE -100_ +00_ A_
TNE -100_ +00_ 5_
tne +000_ +00_ 0_ L

[Sample15]
TNE -100_ +00_ 5_
TNE -100_ +00_ 8_
TNE -100_ +00_ B_
TNE -100_ +00_ F_
TNe -100_ +00_ 9- L

[Sample16]
TnE +000_ +00_ C_
TnE +000_ +00_ E_
TnE +000_ +00_ F_
TnE +000_ +00_ F_
TnE +000_ +00_ E_
TnE +000_ +00_ D_
TnE +000_ +00_ C_
TnE +000_ +00_ C_ L
TnE +001_ +00_ C_
TnE +002_ +00_ C_
TnE +003_ +00_ C_
TnE +001_ +00_ C_
TnE +000_ +00_ C_
TnE -001_ +00_ C_
TnE -002_ +00_ C_
TnE -003_ +00_ C_
TnE -001_ +00_ C_
TnE +000_ +00_ C_
TnE +000_ +00_ C_

[Sample17]
Tne +1C0_ +00_ F_
Tne +280_ +00_ D_
Tne +380_ +00_ 7_
TNE +000_ +00_ 0_ L

[Sample18]
TnE -00C_ +00_ 0_ L

[Sample19]
TNe +000_ +00_ F_
TNe +000_ +00_ C_
TNe +000_ +00_ 6_
TNe +000_ +01_ A- L

[Sample20]
TNE +140_ +00_ F_
tNE +000_ +00_ B- L

[Sample21]
tNE +000_ +00_ D_
tNE +000_ +00_ 8_
tNE +000_ +00_ 1_
TNE +000_ +00_ 0_ L

[Sample22]
TnE +000_ +00_ D_ L
TnE +000_ +00_ D_
tne +000_ +00_ 9_
tne +000_ +00_ 9_
TnE +000_ +00_ D_
TnE +000_ +00_ D_
tne +000_ +00_ 9_
tne +000_ +00_ 9_
TnE +000_ +00_ D_
TnE +000_ +00_ D_
TnE +000_ +00_ D_
TnE +000_ +00_ D_
TnE +000_ +00_ D_
TnE +000_ +00_ D_
tne +000_ +00_ 9_
tne +000_ +00_ 9_

[Sample23]
TnE +000_ +00_ F_ L
TnE +010_ +01_ F_
TnE +010_ +01_ F_
TnE +010_ +01_ F_
TnE +010_ +01_ F_
TnE +000_ +00_ F_
TnE +000_ +00_ F_
TnE -010_ -01_ F_
TnE -010_ -01_ F_
TnE -010_ -01_ F_
TnE -010_ -01_ F_
TnE +000_ +00_ F_

[Sample24]
TNe +000_ -01_ C_
TNe +000_ -01_ D_
TNe +000_ -01_ E_
TNe +000_ -01_ F_
TNe +000_ -01_ F_
TNe +000_ -01_ F_
TNe +000_ -01_ F_
TNe +000_ -01_ F_
TNe +000_ -01_ E_
TNe +000_ -01_ E_
TNe +000_ -01_ E_
TNe +000_ -01_ F_
TNe +000_ -01_ F_ L

[Sample25]
TNE +000_ +00_ F_
TNE +000_ +00_ F_ L
TNE +000_ +00_ F_
TNE +000_ +00_ F_
TNE +000_ +00_ F-

[Sample26]
tne +000_ +00_ 0_ L

[Sample27]
TnE +100_ +05_ F_
TnE +200_ +02_ A_
TnE +300_ +02_ 7_
TNE +400_ +00_ 3- L

[Sample28]
tne +000_ +00_ 0_ L

[Sample29]
tnE +000_ +00_ 0_ L

[Sample30]
TNE +000_ +00_ C+ L

[Sample31]
TNe +1C0_ +00_ F_
Tne +280_ +00_ E_
Tne +380_ +00_ C_
Tne +440_ +00_ A_
Tne +480_ +00_ 8_
TnE +000_ +00_ 0_ L

[Pattern0]
....|..|--- .... ....|F-5 UFFF ....|A#3 2F1F ....
....|..|--- .... ....|--- .... ....|--- .... ....
....|..|--- .... ....|--- .... ....|--- .... ....
....|..|--- .... ....|--- .... ....|--- .... ....
....|..|--- .... ....|--- .... ....|--- .... ....
....|..|--- .... ....|--- .... ....|--- .... ....
....|..|--- .... ....|--- .... ....|--- .... ....
....|..|--- .... ....|--- .... ....|--- .... ....
....|..|--- .... ....|R-- .... ....|--- .... ....
....|..|--- .... ....|F-5 UFFF ....|A#3 2F1A ....
....|..|--- .... ....|F-5 UFFF ....|--- .... ....
....|..|--- .... ....|--- .... ....|--- .... ....
....|..|--- .... ....|--- .... ....|--- .... ....
....|..|--- .... ....|--- .... ....|--- .... ....
....|..|--- .... ....|R-- .... ....|--- .... ....
....|..|--- .... ....|D#5 UFFF ....|--- .... ....
....|..|--- .... ....|--- .... ....|--- .... ....
....|..|--- .... ....|R-- .... ....|--- .... ....
....|..|--- .... ....|F-5 UFF7 ....|A#3 2F17 ....
....|..|--- .... ....|A#4 UFFF ....|--- .... ....
....|..|--- .... ....|--- .... ....|--- .... ....
....|..|--- .... ....|--- .... ....|--- .... ....
....|..|--- .... ....|R-- .... ....|--- .... ....
....|..|--- .... ....|R-- .... ....|--- .... ....
....|..|--- .... ....|C#5 UFFF ....|--- .... ....
....|..|--- .... ....|--- .... ....|--- .... ....
....|..|--- .... ....|R-- .... ....|--- .... ....
....|..|--- .... ....|D#5 UFFF ....|--- .... ....
....|..|--- .... ....|F-5 UFF7 ....|--- .... ....
....|..|--- .... ....|--- .... ....|--- .... ....
....|..|--- .... ....|F-5 UFFF ....|--- .... ....
....|..|--- .... ....|R-- .... ....|--- .... ....
....|..|--- .... ....|R-- .... ....|--- .... ....
....|..|--- .... ....|C#5 UFFF ....|--- .... ....
....|..|--- .... ....|--- .... ....|--- .... ....
....|..|--- .... ....|R-- .... ....|--- .... ....
....|..|--- .... ....|D#5 UFFA ....|--- .... ....
....|..|--- .... ....|A#4 UFF7 ....|--- .... ....
....|..|--- .... ....|--- .... ....|--- .... ....
....|..|--- .... ....|F-5 UFFA ....|--- .... ....
....|..|--- .... ....|R-- .... ....|--- .... ....
....|..|--- .... ....|R-- .... ....|--- .... ....
....|..|--- .... ....|C#5 UFF7 ....|--- .... ....
....|..|--- .... ....|R-- .... ....|--- .... ....
....|..|--- .... ....|R-- .... ....|--- .... ....
....|..|--- .... ....|D#5 UFF7 ....|--- .... ....
....|..|--- .... ....|R-- .... ....|--- .... ....
....|..|--- .... ....|--- .... ....|R-- .... ....
....|..|--- .... ....|F-5 UFFF ....|G#3 2F2F ....
....|..|--- .... ....|--- .... ....|--- .... ....
....|..|--- .... ....|R-- .... ....|--- .... ....
....|..|--- .... ....|C#5 UFF7 ....|--- .... ....
....|..|--- .... ....|R-- .... ....|--- .... ....
....|..|--- .... ....|--- .... ....|--- .... ....
....|..|--- .... ....|--- .... ....|--- .... ....
....|..|--- .... ....|--- .... ....|--- .... ....
....|..|--- .... ....|R-- .... ....|R-- .... ....
....|..|--- .... ....|D-5 UFFF ....|G#3 2F2A ....
....|..|--- .... ....|D#5 UFFF ....|--- .... ....
....|..|--- .... ....|--- .... ....|--- .... ....
....|..|--- .... ....|--- .... ....|--- .... ....
....|..|--- .... ....|R-- .... ....|--- .... ....
....|..|--- .... ....|--- .... ....|--- .... ....
....|..|--- .... ....|R-- .... ....|--- .... ....
....|..|--- .... ....|A#4 UFFF ....|--- .... ....
....|..|--- .... ....|R-- .... ....|R-- .... ....
....|..|--- .... ....|F-5 UFF7 ....|G#3 2F27 ....
....|..|--- .... ....|D#5 UFFA ....|--- .... ....
....|..|--- .... ....|--- .... ....|--- .... ....
....|..|--- .... ....|--- .... ....|--- .... ....
....|..|--- .... ....|R-- .... ....|--- .... ....
....|..|--- .... ....|--- .... ....|--- .... ....
....|..|--- .... ....|C#5 UFFF ....|--- .... ....
....|..|--- .... ....|A#4 UFFA ....|--- .... ....
....|..|--- .... ....|R-- .... ....|--- .... ....
....|..|--- .... ....|D#5 UFFF ....|--- .... ....
....|..|--- .... ....|D#5 UFF7 ....|--- .... ....
....|..|--- .... ....|R-- .... ....|--- .... ....
....|..|--- .... ....|C#5 UFFF ....|--- .... ....
....|..|--- .... ....|R-- .... ....|--- .... ....
....|..|--- .... ....|--- .... ....|--- .... ....
....|..|--- .... ....|D#5 UFFF ....|--- .... ....
....|..|--- .... ....|A#4 UFFF ....|--- .... ....
....|..|--- .... ....|R-- .... ....|--- .... ....
....|..|--- .... ....|D#5 UFFA ....|--- .... ....
....|..|--- .... ....|--- .... ....|--- .... ....
....|..|--- .... ....|R-- .... ....|--- .... ....
....|..|--- .... ....|C#5 UFFA ....|--- .... ....
....|..|--- .... ....|R-- .... ....|--- .... ....
....|..|--- .... ....|--- .... ....|--- .... ....
....|..|--- .... ....|C#5 UFF7 ....|--- .... ....
....|..|--- .... ....|A#4 UFFA ....|--- .... ....
....|..|--- .... ....|R-- .... ....|--- .... ....
....|..|--- .... ....|D#5 UFF7 ....|--- .... ....
....|..|--- .... ....|--- .... ....|--- .... ....
....|..|--- .... ....|R-- .... ....|R-- .... ....

[Pattern1]
....|..|--- .... ....|C#5 UFF7 ....|G#3 2F3F ....
....|..|--- .... ....|A#4 UFFF ....|--- .... ....
....|..|--- .... ....|--- .... ....|--- .... ....
....|..|--- .... ....|D#5 UFF7 ....|--- .... ....
....|..|--- .... ....|A#4 UFF7 ....|--- .... ....
....|..|--- .... ....|G#4 UFFF ....|--- .... ....
....|..|--- .... ....|--- .... ....|--- .... ....
....|..|--- .... ....|A#4 UFFF ....|--- .... ....
....|..|--- .... ....|--- .... ....|R-- .... ....
....|..|--- .... ....|R-- .... ....|G#3 2F3A ....
....|..|--- .... ....|A#4 UFFF ....|--- .... ....
....|..|--- .... ....|--- .... ....|--- .... ....
....|..|--- .... ....|R-- .... ....|--- .... ....
....|..|--- .... ....|C#5 UFFF ....|--- .... ....
....|..|--- .... ....|G#4 UFFA ....|--- .... ....
....|..|--- .... ....|--- .... ....|--- .... ....
....|..|--- .... ....|A#4 UFFA ....|--- .... ....
....|..|--- .... ....|--- .... ....|R-- .... ....
....|..|--- .... ....|R-- .... ....|G#3 2F37 ....
....|..|--- .... ....|D#5 UFFF ....|--- .... ....
....|..|--- .... ....|--- .... ....|--- .... ....
....|..|--- .... ....|R-- .... ....|--- .... ....
....|..|--- .... ....|C#5 UFFA ....|--- .... ....
....|..|--- .... ....|G#4 UFF7 ....|--- .... ....
....|..|--- .... ....|--- .... ....|--- .... ....
....|..|--- .... ....|A#4 UFFF ....|--- .... ....
....|..|--- .... ....|--- .... ....|--- .... ....
....|..|--- .... ....|R-- .... ....|--- .... ....
....|..|--- .... ....|G#4 UFFF ....|--- .... ....
....|..|--- .... ....|--- .... ....|--- .... ....
....|..|--- .... ....|R-- .... ....|--- .... ....
....|..|--- .... ....|A#4 UFFF ....|--- .... ....
....|..|--- .... ....|R-- .... ....|--- .... ....
....|..|--- .... ....|R-- .... ....|--- .... ....
....|..|--- .... ....|C#5 UFFF ....|--- .... ....
....|..|--- .... ....|--- .... ....|--- .... ....
....|..|--- .... ....|R-- .... ....|--- .... ....
....|..|--- .... ....|D#5 UFF7 ....|--- .... ....
....|..|--- .... ....|--- .... ....|--- .... ....
....|..|--- .... ....|R-- .... ....|--- .... ....
....|..|--- .... ....|A#4 UFFA ....|--- .... ....
....|..|--- .... ....|D#5 UFFF ....|--- .... ....
....|..|--- .... ....|F-5 UFFF ....|--- .... ....
....|..|--- .... ....|A#4 UFF7 ....|--- .... ....
....|..|--- .... ....|--- .... ....|--- .... ....
....|..|--- .... ....|R-- .... ....|--- .... ....
....|..|--- .... ....|G#4 UFF7 ....|--- .... ....
....|..|--- .... ....|--- .... ....|R-- .... ....
....|..|--- .... ....|R-- .... ....|A#3 2F4F ....
....|..|--- .... ....|A#4 UFFF ....|--- .... ....
....|..|--- .... ....|D#5 UFFA ....|--- .... ....
....|..|--- .... ....|F-5 UFFA ....|--- .... ....
....|..|--- .... ....|G#4 UFFF ....|--- .... ....
....|..|--- .... ....|R-- .... ....|--- .... ....
....|..|--- .... ....|--- .... ....|--- .... ....
....|..|--- .... ....|A#4 UFFF ....|--- .... ....
....|..|--- .... ....|R-- .... ....|R-- .... ....
....|..|--- .... ....|--- .... ....|A#3 2F4A ....
....|..|--- .... ....|A#4 UFFF ....|--- .... ....
....|..|--- .... ....|D#5 UFF7 ....|--- .... ....
....|..|--- .... ....|F-5 UFF7 ....|--- .... ....
....|..|--- .... ....|F-5 UFFF ....|--- .... ....
....|..|--- .... ....|R-- .... ....|--- .... ....
....|..|--- .... ....|--- .... ....|--- .... ....
....|..|--- .... ....|A#4 UFFA ....|--- .... ....
....|..|--- .... ....|R-- .... ....|R-- .... ....
....|..|--- .... ....|R-- .... ....|A#3 2F47 ....
....|..|--- .... ....|A#4 UFFF ....|--- .... ....
....|..|--- .... ....|--- .... ....|--- .... ....
....|..|--- .... ....|R-- .... ....|--- .... ....
....|..|--- .... ....|G#4 UFF7 ....|--- .... ....
....|..|--- .... ....|R-- .... ....|--- .... ....
....|..|--- .... ....|--- .... ....|--- .... ....
....|..|--- .... ....|C#5 UFFF ....|--- .... ....
....|..|--- .... ....|R-- .... ....|--- .... ....
....|..|--- .... ....|R-- .... ....|--- .... ....
....|..|--- .... ....|D#5 UFFF ....|--- .... ....
....|..|--- .... ....|--- .... ....|--- .... ....
....|..|--- .... ....|R-- .... ....|--- .... ....
....|..|--- .... ....|C#5 UFFF ....|--- .... ....
....|..|--- .... ....|--- .... ....|--- .... ....
....|..|--- .... ....|C#5 UFFF ....|--- .... ....
....|..|--- .... ....|A#4 UFFF ....|--- .... ....
....|..|--- .... ....|--- .... ....|--- .... ....
....|..|--- .... ....|R-- .... ....|--- .... ....
....|..|--- .... ....|A#4 UFF7 ....|--- .... ....
....|..|--- .... ....|--- .... ....|--- .... ....
....|..|--- .... ....|R-- .... ....|--- .... ....
....|..|--- .... ....|C#5 UFFA ....|--- .... ....
....|..|--- .... ....|--- .... ....|--- .... ....
....|..|--- .... ....|C#5 UFFA ....|--- .... ....
....|..|--- .... ....|C#5 UFF7 ....|--- .... ....
....|..|--- .... ....|--- .... ....|--- .... ....
....|..|--- .... ....|R-- .... ....|--- .... ....
....|..|--- .... ....|D#5 UFF7 ....|--- .... ....
....|..|--- .... ....|R-- .... ....|R-- .... ....

[Pattern2]
....|..|C-4 LF.F ....|F-5 UFFF ....|A#3 2F1F ....
....|..|C-4 LF.F ....|C#5 UFF7 ....|--- .... ....
....|..|--- .... ....|--- .... ....|--- .... ....
....|..|C-4 LF.F ....|C#5 UFF7 ....|--- .... ....
....|..|C-4 LF.F ....|A#4 UFF7 ....|--- .... ....
....|..|--- .... ....|--- .... ....|--- .... ....
....|..|C-4 LF.F ....|--- .... ....|--- .... ....
....|..|C-4 LF.F ....|--- .... ....|--- .... ....
....|..|--- .... ....|R-- .... ....|R-- .... ....
....|..|C-4 LF.F ....|F-5 UFFF ....|A#3 2F1A ....
....|..|C-4 LF.F ....|F-5 UFFF ....|--- .... ....
....|..|--- .... ....|--- .... ....|--- .... ....
....|..|C-4 LF.F ....|--- .... ....|--- .... ....
....|..|C-4 LF.F ....|--- .... ....|--- .... ....
....|..|--- .... ....|R-- .... ....|--- .... ....
....|..|C-4 LF.F ....|D#5 UFFF ....|--- .... ....
....|..|C-4 LF.F ....|--- .... ....|--- .... ....
....|..|--- .... ....|R-- .... ....|R-- .... ....
....|..|C-4 LF.F ....|F-5 UFF7 ....|A#3 2F17 ....
....|..|C-4 LF.F ....|A#4 UFFF ....|--- .... ....
....|..|--- .... ....|--- .... ....|--- .... ....
....|..|C-4 LF.F ....|--- .... ....|--- .... ....
....|..|C-4 LF.F ....|R-- .... ....|--- .... ....
....|..|--- .... ....|R-- .... ....|--- .... ....
....|..|C-4 LF.F ....|C#5 UFFF ....|--- .... ....
....|..|C-4 LF.F ....|--- .... ....|--- .... ....
....|..|--- .... ....|R-- .... ....|--- .... ....
....|..|C-4 LF.F ....|D#5 UFFF ....|--- .... ....
....|..|C-4 LF.F ....|F-5 UFF7 ....|--- .... ....
....|..|--- .... ....|--- .... ....|--- .... ....
....|..|C-4 LF.F ....|F-5 UFFF ....|--- .... ....
....|..|C-4 LF.F ....|R-- .... ....|--- .... ....
....|..|--- .... ....|R-- .... ....|--- .... ....
....|..|C-4 LF.F ....|C#5 UFFF ....|--- .... ....
....|..|C-4 LF.F ....|--- .... ....|--- .... ....
....|..|--- .... ....|R-- .... ....|--- .... ....
....|..|C-4 LF.F ....|D#5 UFFA ....|--- .... ....
....|..|C-4 LF.F ....|A#4 UFF7 ....|--- .... ....
....|..|--- .... ....|--- .... ....|--- .... ....
....|..|C-4 LF.F ....|F-5 UFFA ....|--- .... ....
....|..|C-4 LF.F ....|R-- .... ....|--- .... ....
....|..|--- .... ....|R-- .... ....|--- .... ....
....|..|C-4 LF.F ....|C#5 UFF7 ....|--- .... ....
....|..|C-4 LF.F ....|R-- .... ....|--- .... ....
....|..|--- .... ....|R-- .... ....|--- .... ....
....|..|C-4 LF.F ....|D#5 UFF7 ....|--- .... ....
....|..|C-4 LF.F ....|R-- .... ....|--- .... ....
....|..|--- .... ....|--- .... ....|R-- .... ....
....|..|C-4 LF.F ....|F-5 UFFF ....|G#3 2F2F ....
....|..|C-4 LF.F ....|--- .... ....|--- .... ....
....|..|--- .... ....|R-- .... ....|--- .... ....
....|..|C-4 LF.F ....|C#5 UFF7 ....|--- .... ....
....|..|C-4 LF.F ....|R-- .... ....|--- .... ....
....|..|--- .... ....|--- .... ....|--- .... ....
....|..|C-4 LF.F ....|--- .... ....|--- .... ....
....|..|C-4 LF.F ....|--- .... ....|--- .... ....
....|..|--- .... ....|R-- .... ....|R-- .... ....
....|..|C-4 LF.F ....|D-5 UFFF ....|G#3 2F2A ....
....|..|C-4 LF.F ....|D#5 UFFF ....|--- .... ....
....|..|--- .... ....|--- .... ....|--- .... ....
....|..|C-4 LF.F ....|--- .... ....|--- .... ....
....|..|C-4 LF.F ....|R-- .... ....|--- .... ....
....|..|--- .... ....|--- .... ....|--- .... ....
....|..|C-4 LF.F ....|R-- .... ....|--- .... ....
....|..|C-4 LF.F ....|A#4 UFFF ....|--- .... ....
....|..|--- .... ....|R-- .... ....|R-- .... ....
....|..|C-4 LF.F ....|F-5 UFF7 ....|G#3 2F27 ....
....|..|C-4 LF.F ....|D#5 UFFA ....|--- .... ....
....|..|--- .... ....|--- .... ....|--- .... ....
....|..|C-4 LF.F ....|--- .... ....|--- .... ....
....|..|C-4 LF.F ....|R-- .... ....|--- .... ....
....|..|--- .... ....|--- .... ....|--- .... ....
....|..|C-4 LF.F ....|C#5 UFFF ....|--- .... ....
....|..|C-4 LF.F ....|A#4 UFFA ....|--- .... ....
....|..|--- .... ....|R-- .... ....|--- .... ....
....|..|C-4 LF.F ....|D#5 UFFF ....|--- .... ....
....|..|C-4 LF.F ....|D#5 UFF7 ....|--- .... ....
....|..|--- .... ....|R-- .... ....|--- .... ....
....|..|C-4 LF.F ....|C#5 UFFF ....|--- .... ....
....|..|C-4 LF.F ....|R-- .... ....|--- .... ....
....|..|--- .... ....|--- .... ....|--- .... ....
....|..|C-4 LF.F ....|D#5 UFFF ....|--- .... ....
....|..|C-4 LF.F ....|A#4 UFFF ....|--- .... ....
....|..|--- .... ....|R-- .... ....|--- .... ....
....|..|C-4 LF.F ....|D#5 UFFA ....|--- .... ....
....|..|C-4 LF.F ....|--- .... ....|--- .... ....
....|..|--- .... ....|R-- .... ....|--- .... ....
....|..|C-4 LF.F ....|C#5 UFFA ....|--- .... ....
....|..|C-4 LF.F ....|R-- .... ....|--- .... ....
....|..|--- .... ....|--- .... ....|--- .... ....
....|..|C-4 LF.F ....|C#5 UFF7 ....|--- .... ....
....|..|C-4 LF.F ....|A#4 UFFA ....|--- .... ....
....|..|--- .... ....|R-- .... ....|--- .... ....
....|..|C-4 LF.F ....|D#5 UFF7 ....|--- .... ....
....|..|C-4 LF.F ....|--- .... ....|--- .... ....
....|..|--- .... ....|R-- .... ....|R-- .... ....

[Pattern3]
....|..|C-4 LF.F ....|C#5 UFF7 ....|G#3 2F3F ....
....|..|C-4 LF.F ....|A#4 UFFF ....|--- .... ....
....|..|--- .... ....|--- .... ....|--- .... ....
....|..|C-4 LF.F ....|D#5 UFF7 ....|--- .... ....
....|..|C-4 LF.F ....|A#4 UFF7 ....|--- .... ....
....|..|--- .... ....|G#4 UFFF ....|--- .... ....
....|..|C-4 LF.F ....|--- .... ....|--- .... ....
....|..|C-4 LF.F ....|A#4 UFFF ....|--- .... ....
....|..|--- .... ....|--- .... ....|R-- .... ....
....|..|C-4 LF.F ....|R-- .... ....|G#3 2F3A ....
....|..|C-4 LF.F ....|A#4 UFFF ....|--- .... ....
....|..|--- .... ....|--- .... ....|--- .... ....
....|..|C-4 LF.F ....|R-- .... ....|--- .... ....
....|..|C-4 LF.F ....|C#5 UFFF ....|--- .... ....
....|..|--- .... ....|G#4 UFFA ....|--- .... ....
....|..|C-4 LF.F ....|--- .... ....|--- .... ....
....|..|C-4 LF.F ....|A#4 UFFA ....|--- .... ....
....|..|--- .... ....|--- .... ....|R-- .... ....
....|..|C-4 LF.F ....|R-- .... ....|G#3 2F37 ....
....|..|C-4 LF.F ....|D#5 UFFF ....|--- .... ....
....|..|--- .... ....|--- .... ....|--- .... ....
....|..|C-4 LF.F ....|R-- .... ....|--- .... ....
....|..|C-4 LF.F ....|C#5 UFFA ....|--- .... ....
....|..|--- .... ....|G#4 UFF7 ....|--- .... ....
....|..|C-4 LF.F ....|--- .... ....|--- .... ....
....|..|C-4 LF.F ....|A#4 UFFF ....|--- .... ....
....|..|--- .... ....|--- .... ....|--- .... ....
....|..|C-4 LF.F ....|R-- .... ....|--- .... ....
....|..|C-4 LF.F ....|G#4 UFFF ....|--- .... ....
....|..|--- .... ....|--- .... ....|--- .... ....
....|..|C-4 LF.F ....|R-- .... ....|--- .... ....
....|..|C-4 LF.F ....|A#4 UFFF ....|--- .... ....
....|..|--- .... ....|R-- .... ....|--- .... ....
....|..|C-4 LF.F ....|R-- .... ....|--- .... ....
....|..|C-4 LF.F ....|C#5 UFFF ....|--- .... ....
....|..|--- .... ....|--- .... ....|--- .... ....
....|..|C-4 LF.F ....|R-- .... ....|--- .... ....
....|..|C-4 LF.F ....|D#5 UFF7 ....|--- .... ....
....|..|--- .... ....|--- .... ....|--- .... ....
....|..|C-4 LF.F ....|R-- .... ....|--- .... ....
....|..|C-4 LF.F ....|A#4 UFFA ....|--- .... ....
....|..|--- .... ....|D#5 UFFF ....|--- .... ....
....|..|C-4 LF.F ....|F-5 UFFF ....|--- .... ....
....|..|C-4 LF.F ....|A#4 UFF7 ....|--- .... ....
....|..|--- .... ....|--- .... ....|--- .... ....
....|..|C-4 LF.F ....|R-- .... ....|--- .... ....
....|..|C-4 LF.F ....|G#4 UFF7 ....|--- .... ....
....|..|--- .... ....|--- .... ....|R-- .... ....
....|..|C-4 LF.F ....|R-- .... ....|A#3 2F4F ....
....|..|C-4 LF.F ....|A#4 UFFF ....|--- .... ....
....|..|--- .... ....|D#5 UFFA ....|--- .... ....
....|..|C-4 LF.F ....|F-5 UFFA ....|--- .... ....
....|..|C-4 LF.F ....|G#4 UFFF ....|--- .... ....
....|..|--- .... ....|R-- .... ....|--- .... ....
....|..|C-4 LF.F ....|--- .... ....|--- .... ....
....|..|C-4 LF.F ....|A#4 UFFF ....|--- .... ....
....|..|--- .... ....|R-- .... ....|R-- .... ....
....|..|C-4 LF.F ....|--- .... ....|A#3 2F4A ....
....|..|C-4 LF.F ....|A#4 UFFF ....|--- .... ....
....|..|--- .... ....|D#5 UFF7 ....|--- .... ....
....|..|C-4 LF.F ....|F-5 UFF7 ....|--- .... ....
....|..|C-4 LF.F ....|F-5 UFFF ....|--- .... ....
....|..|--- .... ....|R-- .... ....|--- .... ....
....|..|C-4 LF.F ....|--- .... ....|--- .... ....
....|..|C-4 LF.F ....|A#4 UFFA ....|--- .... ....
....|..|--- .... ....|R-- .... ....|R-- .... ....
....|..|C-4 LF.F ....|R-- .... ....|A#3 2F47 ....
....|..|C-4 LF.F ....|A#4 UFFF ....|--- .... ....
 D#4|..|D#3 2C.F ....|--- .... ....|--- .... ....
....|..|C-4 LF.F ....|R-- .... ....|--- .... ....
....|..|C-4 LF.F ....|G#4 UFF7 ....|--- .... ....
....|..|R-- .... ....|R-- .... ....|--- .... ....
....|..|C-4 LF.F ....|--- .... ....|--- .... ....
....|..|C-4 LF.F ....|C#5 UFFF ....|--- .... ....
 D#4|..|D#3 2C.F ....|R-- .... ....|--- .... ....
....|..|C-4 LF.F ....|R-- .... ....|--- .... ....
....|..|C-4 LF.F ....|D#5 UFFF ....|--- .... ....
....|..|D#3 2F.A ....|--- .... ....|--- .... ....
....|..|C-4 LF.F ....|R-- .... ....|--- .... ....
....|..|C-4 LF.F ....|C#5 UFFF ....|--- .... ....
 D#4|..|D#3 2C.F ....|--- .... ....|--- .... ....
....|..|C-4 LF.F ....|C#5 UFFF ....|--- .... ....
....|..|C-4 LF.F ....|A#4 UFFF ....|--- .... ....
....|..|D#3 2F.A ....|--- .... ....|--- .... ....
....|..|C-4 LF.F ....|R-- .... ....|--- .... ....
....|..|C-4 LF.F ....|A#4 UFF7 ....|--- .... ....
 D#4|..|D#3 2C.F ....|--- .... ....|--- .... ....
....|..|C-4 LF.F ....|R-- .... ....|--- .... ....
....|..|C-4 LF.F ....|C#5 UFFA ....|--- .... ....
....|..|D#3 2F.A ....|--- .... ....|--- .... ....
....|..|C-4 LF.F ....|C#5 UFFA ....|--- .... ....
....|..|C-4 LF.F ....|C#5 UFF7 ....|--- .... ....
 D#4|..|D#3 2C.F ....|--- .... ....|--- .... ....
....|..|C-4 LF.F ....|R-- .... ....|--- .... ....
....|..|C-4 LF.F ....|D#5 UFF7 ....|--- .... ....
....|..|D#3 2F.A ....|R-- .... ....|R-- .... ....

[Pattern4]
....|..|C-4 AF.F ....|F-5 UFFF ....|A#3 2F1F ....
....|..|C-4 CF.F ....|C#5 UFF7 ....|--- .... ....
 A#3|..|A#1 2A.F ....|--- .... ....|--- .... ....
....|..|C-4 CF.F ....|C#5 UFF7 ....|A#2 2F.F ....
....|..|C-4 AF.F ....|A#4 UFF7 ....|R-- .... ....
....|..|D#3 2F.A ....|--- .... ....|--- .... ....
....|..|C-5 VF.F ....|--- .... ....|A#2 2F.F ....
....|..|C-3 RF.F ....|--- .... ....|--- .... ....
 A#3|..|A#1 2A.F ....|R-- .... ....|R-- .... ....
....|..|C-4 AF.F ....|F-5 UFFF ....|A#1 2F.F ....
....|..|C-4 CF.F ....|F-5 UFFF ....|A#2 2F.F ....
....|..|A#1 2F.A ....|--- .... ....|R-- .... ....
....|..|C-4 AF.F ....|--- .... ....|A#2 2F.A ....
....|..|C-4 CF.F ....|--- .... ....|A#1 2F.F ....
 A#3|..|A#1 2A.F ....|R-- .... ....|R-- .... ....
....|..|C-4 CF.F ....|D#5 UFFF ....|A#2 2F.F ....
....|..|C-3 RF.F ....|--- .... ....|R-- .... ....
 A#3|..|A#1 2A.F ....|R-- .... ....|R-- .... ....
....|..|C-5 VF.F ....|F-5 UFF7 ....|A#1 2F.F ....
....|..|C-3 RF.F ....|A#4 UFFF ....|A#2 2F.A ....
 A#3|..|A#1 2A.F ....|--- .... ....|R-- .... ....
....|..|B-8 JF.F ....|--- .... ....|A#2 2F.F ....
....|..|C-4 CF.F ....|R-- .... ....|A#1 2F.A ....
 A#3|..|A#1 2A.F ....|R-- .... ....|R-- .... ....
....|..|C-4 AF.F ....|C#5 UFFF ....|A#1 2F.F ....
....|..|C-3 RF.F ....|--- .... ....|R-- .... ....
 A#3|..|A#1 2A.F ....|R-- .... ....|R-- .... ....
....|..|C-4 CF.F ....|D#5 UFFF ....|A#2 2F.F ....
....|..|C-4 AF.F ....|F-5 UFF7 ....|A#2 2F.7 ....
 A#3|..|A#1 2A.F ....|--- .... ....|R-- .... ....
....|..|C-5 VF.F ....|F-5 UFFF ....|A#2 2F.F ....
....|..|C-3 RF.F ....|R-- .... ....|A#1 2F.7 ....
 A#3|..|A#1 2A.F ....|R-- .... ....|R-- .... ....
....|..|C-4 AF.F ....|C#5 UFFF ....|A#1 2F.F ....
....|..|C-4 CF.F ....|--- .... ....|A#2 2F.F ....
....|..|A#1 2F.7 ....|R-- .... ....|R-- .... ....
....|..|C-4 AF.F ....|D#5 UFFA ....|A#1 2F.7 ....
....|..|C-4 CF.F ....|A#4 UFF7 ....|A#1 2F.F ....
 A#3|..|A#1 2A.F ....|--- .... ....|R-- .... ....
....|..|C-4 CF.F ....|F-5 UFFA ....|A#2 2F.F ....
....|..|C-4 AF.F ....|R-- .... ....|R-- .... ....
 A#3|..|A#1 2A.F ....|R-- .... ....|R-- .... ....
....|..|C-5 VF.F ....|C#5 UFF7 ....|A#1 2F.F ....
....|..|C-3 RF.F ....|R-- .... ....|A#2 2F.A ....
 A#3|..|A#1 2A.F ....|R-- .... ....|R-- .... ....
....|..|B-8 JF.F ....|D#5 UFF7 ....|A#2 2F.F ....
....|..|C-4 CF.F ....|R-- .... ....|A#1 2F.A ....
 A#3|..|A#1 2A.F ....|--- .... ....|R-- .... ....
....|..|C-4 AF.F ....|F-5 UFFF ....|G#3 2F2F ....
....|..|C-4 CF.F ....|--- .... ....|R-- .... ....
 G#3|..|G#1 2A.F ....|R-- .... ....|R-- .... ....
....|..|C-4 CF.F ....|C#5 UFF7 ....|G#2 2F.F ....
....|..|C-4 AF.F ....|R-- .... ....|A#2 2F.7 ....
 G#3|..|G#1 2A.F ....|--- .... ....|R-- .... ....
....|..|C-5 VF.F ....|--- .... ....|G#2 2F.F ....
....|..|C-3 RF.F ....|--- .... ....|A#1 2F.7 ....
 G#3|..|G#1 2A.F ....|R-- .... ....|R-- .... ....
....|..|C-4 AF.F ....|D-5 UFFF ....|G#1 2F.F ....
....|..|C-4 CF.F ....|D#5 UFFF ....|G#2 2F.F ....
....|..|A#1 2F.7 ....|--- .... ....|R-- .... ....
....|..|C-4 AF.F ....|--- .... ....|A#1 2F.7 ....
....|..|C-4 CF.F ....|R-- .... ....|G#1 2F.F ....
 G#3|..|G#1 2A.F ....|--- .... ....|R-- .... ....
....|..|C-4 CF.F ....|R-- .... ....|G#2 2F.F ....
....|..|C-3 RF.F ....|A#4 UFFF ....|R-- .... ....
 G#3|..|G#1 2A.F ....|R-- .... ....|R-- .... ....
....|..|C-5 VF.F ....|F-5 UFF7 ....|G#1 2F.F ....
....|..|C-3 RF.F ....|D#5 UFFA ....|G#2 2F.A ....
 G#3|..|G#1 2A.F ....|--- .... ....|R-- .... ....
....|..|B-8 JF.F ....|--- .... ....|G#2 2F.F ....
....|..|C-4 CF.F ....|R-- .... ....|G#1 2F.A ....
 G#3|..|G#1 2A.F ....|--- .... ....|R-- .... ....
....|..|C-4 AF.F ....|C#5 UFFF ....|G#1 2F.F ....
....|..|C-3 RF.F ....|A#4 UFFA ....|R-- .... ....
 G#3|..|G#1 2A.F ....|R-- .... ....|R-- .... ....
....|..|C-4 CF.F ....|D#5 UFFF ....|G#2 2F.F ....
....|..|C-4 AF.F ....|D#5 UFF7 ....|G#2 2F.7 ....
 G#3|..|G#1 2A.F ....|R-- .... ....|R-- .... ....
....|..|C-5 VF.F ....|C#5 UFFF ....|G#2 2F.F ....
....|..|C-3 RF.F ....|R-- .... ....|G#1 2F.7 ....
 G#3|..|G#1 2A.F ....|--- .... ....|R-- .... ....
....|..|C-4 AF.F ....|D#5 UFFF ....|G#1 2F.F ....
....|..|C-4 CF.F ....|A#4 UFFF ....|G#2 2F.F ....
....|..|G#1 2F.7 ....|R-- .... ....|R-- .... ....
....|..|C-4 AF.F ....|D#5 UFFA ....|G#1 2F.7 ....
....|..|C-4 CF.F ....|--- .... ....|G#1 2F.F ....
 G#3|..|G#1 2A.F ....|R-- .... ....|R-- .... ....
....|..|C-4 CF.F ....|C#5 UFFA ....|G#2 2F.F ....
....|..|C-4 AF.F ....|R-- .... ....|R-- .... ....
 G#3|..|G#1 2A.F ....|--- .... ....|R-- .... ....
....|..|C-5 VF.F ....|C#5 UFF7 ....|G#1 2F.F ....
....|..|C-3 RF.F ....|A#4 UFFA ....|G#2 2F.A ....
 G#3|..|G#1 2A.F ....|R-- .... ....|R-- .... ....
....|..|B-8 JF.F ....|D#5 UFF7 ....|G#2 2F.F ....
....|..|C-4 CF.F ....|--- .... ....|G#1 2F.A ....
 G#3|..|G#1 2A.F ....|R-- .... ....|R-- .... ....

[Pattern5]
....|..|C-4 AF.F ....|C#5 UFF7 ....|G#3 2F3F ....
....|..|C-4 CF.F ....|A#4 UFFF ....|R-- .... ....
 C#4|..|C#2 2A.F ....|--- .... ....|R-- .... ....
....|..|C-4 CF.F ....|D#5 UFF7 ....|G#3 2F.F ....
....|..|C-4 AF.F ....|A#4 UFF7 ....|G#2 2F.7 ....
 C#4|..|C#2 2A.F ....|G#4 UFFF ....|R-- .... ....
....|..|C-5 VF.F ....|--- .... ....|G#3 2F.F ....
....|..|C-3 RF.F ....|A#4 UFFF ....|G#1 2F.7 ....
 C#4|..|C#2 2A.F ....|--- .... ....|R-- .... ....
....|..|C-4 AF.F ....|R-- .... ....|C#3 2F.F ....
....|..|C-4 CF.F ....|A#4 UFFF ....|G#3 2F.F ....
....|..|G#1 2F.7 ....|--- .... ....|R-- .... ....
....|..|C-4 AF.F ....|R-- .... ....|G#1 2F.7 ....
....|..|C-4 CF.F ....|C#5 UFFF ....|C#3 2F.F ....
 C#4|..|C#2 2A.F ....|G#4 UFFA ....|R-- .... ....
....|..|C-4 CF.F ....|--- .... ....|G#3 2F.F ....
....|..|C-3 RF.F ....|A#4 UFFA ....|--- .... ....
 C#4|..|C#2 2A.F ....|--- .... ....|R-- .... ....
....|..|C-5 VF.F ....|R-- .... ....|C#3 2F.F ....
....|..|C-3 RF.F ....|D#5 UFFF ....|G#3 2F.A ....
 C#4|..|C#2 2A.F ....|--- .... ....|R-- .... ....
....|..|B-8 JF.F ....|R-- .... ....|G#3 2F.F ....
....|..|C-4 CF.F ....|C#5 UFFA ....|C#3 2F.A ....
 C#4|..|C#2 2A.F ....|G#4 UFF7 ....|R-- .... ....
....|..|C-4 AF.F ....|--- .... ....|C#3 2F.F ....
....|..|C-3 RF.F ....|A#4 UFFF ....|--- .... ....
 C#4|..|C#2 2A.F ....|--- .... ....|R-- .... ....
....|..|C-4 CF.F ....|R-- .... ....|G#3 2F.F ....
....|..|C-4 AF.F ....|G#4 UFFF ....|G#3 2F.7 ....
 C#4|..|C#2 2A.F ....|--- .... ....|R-- .... ....
....|..|C-5 VF.F ....|R-- .... ....|G#3 2F.F ....
....|..|C-3 RF.F ....|A#4 UFFF ....|C#3 2F.7 ....
 C#4|..|C#2 2A.F ....|R-- .... ....|R-- .... ....
....|..|C-4 AF.F ....|R-- .... ....|C#3 2F.F ....
....|..|C-4 CF.F ....|C#5 UFFF ....|G#3 2F.F ....
....|..|C#2 2F.7 ....|--- .... ....|R-- .... ....
....|..|C-4 AF.F ....|R-- .... ....|C#3 2F.7 ....
....|..|C-4 CF.F ....|D#5 UFF7 ....|C#3 2F.F ....
 C#4|..|C#2 2A.F ....|--- .... ....|R-- .... ....
....|..|C-4 CF.F ....|R-- .... ....|G#3 2F.F ....
....|..|C-4 AF.F ....|A#4 UFFA ....|R-- .... ....
 C#4|..|C#2 2A.F ....|D#5 UFFF ....|R-- .... ....
....|..|C-5 VF.F ....|F-5 UFFF ....|C#3 2F.F ....
....|..|C-3 RF.F ....|A#4 UFF7 ....|G#3 2F.A ....
 C#4|..|C#2 2A.F ....|--- .... ....|--- .... ....
....|..|B-8 JF.F ....|R-- .... ....|G#3 2F.F ....
....|..|C-4 CF.F ....|G#4 UFF7 ....|C#3 2F.A ....
 C#4|..|C#2 2A.F ....|--- .... ....|R-- .... ....
....|..|C-4 AF.F ....|R-- .... ....|A#3 2F4F ....
....|..|C-4 CF.F ....|A#4 UFFF ....|R-- .... ....
 D#4|..|D#2 2A.F ....|D#5 UFFA ....|R-- .... ....
....|..|C-4 CF.F ....|F-5 UFFA ....|A#3 2F.F ....
....|..|C-4 AF.F ....|G#4 UFFF ....|G#3 2F.7 ....
 D#4|..|D#2 2A.F ....|R-- .... ....|--- .... ....
....|..|C-5 VF.F ....|--- .... ....|A#3 2F.F ....
....|..|C-3 RF.F ....|A#4 UFFF ....|C#3 2F.7 ....
 D#4|..|D#2 2A.F ....|R-- .... ....|R-- .... ....
....|..|C-4 AF.F ....|--- .... ....|D#3 2F.F ....
....|..|C-4 CF.F ....|A#4 UFFF ....|A#3 2F.F ....
....|..|C#2 2F.7 ....|D#5 UFF7 ....|--- .... ....
....|..|C-4 AF.F ....|F-5 UFF7 ....|C#3 2F.7 ....
....|..|C-4 CF.F ....|F-5 UFFF ....|D#3 2F.F ....
 D#4|..|D#2 2A.F ....|R-- .... ....|R-- .... ....
....|..|C-4 CF.F ....|--- .... ....|A#3 2F.F ....
....|..|C-3 RF.F ....|A#4 UFFA ....|R-- .... ....
 D#4|..|D#2 2A.F ....|R-- .... ....|R-- .... ....
....|..|C-5 VF.F ....|R-- .... ....|D#3 2F.F ....
....|..|C-3 RF.F ....|A#4 UFFF ....|A#3 2F.F ....
 D#4|..|D#2 2A.F ....|--- .... ....|--- .... ....
....|..|B-8 JF.F ....|R-- .... ....|A#3 2F.7 ....
....|..|C-4 CF.F ....|G#4 UFF7 ....|D#3 2F.F ....
 D#4|..|D#2 2A.F ....|R-- .... ....|R-- .... ....
....|..|C-4 AF.F ....|--- .... ....|A#3 2F.F ....
....|..|C-3 RF.F ....|C#5 UFFF ....|R-- .... ....
 D#4|..|D#2 2A.F ....|R-- .... ....|R-- .... ....
....|..|C-4 CF.F ....|R-- .... ....|D#3 2F.F ....
....|..|C-4 AF.F ....|D#5 UFFF ....|A#3 2F.F ....
 D#4|..|D#2 2A.F ....|--- .... ....|R-- .... ....
....|..|C-5 VF.F ....|R-- .... ....|R-- .... ....
....|..|C-3 RF.F ....|C#5 UFFF ....|D#3 2F.F ....
 D#4|..|D#2 2A.F ....|--- .... ....|R-- .... ....
....|..|C-4 AF.F ....|C#5 UFFF ....|A#3 2F.F ....
....|..|C-4 CF.F ....|A#4 UFFF ....|R-- .... ....
....|..|D#2 2F.7 ....|--- .... ....|R-- .... ....
....|..|C-4 AF.F ....|R-- .... ....|D#3 2F.F ....
....|..|C-4 CF.F ....|A#4 UFF7 ....|A#3 2F.F ....
 D#4|..|D#2 2A.F ....|--- .... ....|R-- .... ....
....|..|C-4 CF.F ....|R-- .... ....|R-- .... ....
....|..|C-4 AF.F ....|C#5 UFFA ....|D#3 2F.F ....
 D#4|..|D#2 2A.F ....|--- .... ....|R-- .... ....
....|..|C-5 VF.F ....|C#5 UFFA ....|A#3 2F.F ....
....|..|C-3 RF.F ....|C#5 UFF7 ....|R-- .... ....
 D#4|..|D#2 2A.F ....|--- .... ....|R-- .... ....
....|..|B-8 JF.F ....|R-- .... ....|D#3 2F.F ....
....|..|C-4 CF.F ....|D#5 UFF7 ....|A#3 2F.F ....
 D#4|..|D#2 2A.F ....|R-- .... ....|R-- .... ....

[Pattern6]
....|..|C-4 AF.F ....|A#4 UFFF ....|A#3 2F5F ....
....|..|C-4 CF.F ....|C#5 UFF7 ....|D#3 2F.7 ....
 A#3|..|A#1 2A.F ....|--- .... ....|R-- .... ....
....|..|C-4 CF.F ....|A#4 UFFF ....|A#3 2F.7 ....
....|..|C-4 AF.F ....|A#4 UFF7 ....|R-- .... ....
 A#3|..|A#1 2A.F ....|--- .... ....|R-- .... ....
....|..|C-5 VF.F ....|--- .... ....|D#3 2F.7 ....
....|..|C-3 RF.F ....|R-- .... ....|A#3 2F.7 ....
 A#3|..|A#1 2A.F ....|R-- .... ....|R-- .... ....
....|..|C-4 AF.F ....|A#4 UFFF ....|A#3 2F5A ....
....|..|C-4 CF.F ....|R-- .... ....|D#3 2F.7 ....
....|..|D#2 2F.7 ....|R-- .... ....|R-- .... ....
....|..|C-4 AF.F ....|C#5 UFFF ....|A#3 2F.7 ....
....|..|C-4 CF.F ....|--- .... ....|--- .... ....
 A#3|..|A#1 2A.F ....|--- .... ....|R-- .... ....
....|..|C-4 CF.F ....|D#5 UFFF ....|D#3 2F.7 ....
....|..|C-3 RF.F ....|R-- .... ....|A#3 2F.7 ....
 A#3|..|A#1 2A.F ....|R-- .... ....|R-- .... ....
....|..|C-5 VF.F ....|F-5 UFFF ....|A#3 2F57 ....
....|..|C-3 RF.F ....|R-- .... ....|--- .... ....
 A#3|..|A#1 2A.F ....|R-- .... ....|--- .... ....
....|..|B-8 JF.F ....|A#4 UFF7 ....|--- .... ....
....|..|C-4 CF.F ....|--- .... ....|--- .... ....
 G#3|..|G#1 2A.F ....|--- .... ....|--- .... ....
....|..|C-4 AF.F ....|A#4 UFFF ....|--- .... ....
....|..|C-3 RF.F ....|R-- .... ....|--- .... ....
 A#3|..|A#1 2A.F ....|--- .... ....|--- .... ....
....|..|C-4 CF.F ....|A#4 UFFF ....|--- .... ....
....|..|C-4 AF.F ....|--- .... ....|--- .... ....
 A#3|..|A#1 2A.F ....|R-- .... ....|--- .... ....
....|..|C-5 VF.F ....|C#5 UFF7 ....|--- .... ....
....|..|C-3 RF.F ....|--- .... ....|--- .... ....
 A#3|..|A#1 2A.F ....|--- .... ....|--- .... ....
....|..|C-4 AF.F ....|C#5 UFFF ....|--- .... ....
....|..|C-4 CF.F ....|R-- .... ....|--- .... ....
....|..|A#1 2F.7 ....|--- .... ....|--- .... ....
....|..|C-4 AF.F ....|F-5 UFF7 ....|--- .... ....
....|..|C-4 CF.F ....|--- .... ....|--- .... ....
 A#3|..|A#1 2A.F ....|--- .... ....|--- .... ....
....|..|C-4 CF.F ....|R-- .... ....|--- .... ....
....|..|C-4 AF.F ....|--- .... ....|--- .... ....
 A#3|..|A#1 2A.F ....|--- .... ....|--- .... ....
....|..|C-5 VF.F ....|A#4 UFF7 ....|--- .... ....
....|..|C-3 RF.F ....|R-- .... ....|--- .... ....
 A#3|..|A#1 2A.F ....|R-- .... ....|--- .... ....
....|..|B-8 JF.F ....|A#4 UFF7 ....|--- .... ....
....|..|C-4 CF.F ....|--- .... ....|R-- .... ....
 A#3|..|A#1 2A.F ....|--- .... ....|--- .... ....
....|..|C-4 AF.F ....|A#4 UFFF ....|A#3 2F.F ....
....|..|C-4 CF.F ....|R-- .... ....|--- .... ....
 A#3|..|A#1 2A.F ....|--- .... ....|--- .... ....
....|..|C-4 CF.F ....|A#4 UFFF ....|--- .... ....
....|..|C-4 AF.F ....|R-- .... ....|--- .... ....
 A#3|..|A#1 2A.F ....|R-- .... ....|--- .... ....
....|..|C-5 VF.F ....|A#4 UFFF ....|--- .... ....
....|..|C-3 RF.F ....|--- .... ....|R-- .... ....
 A#3|..|A#1 2A.F ....|--- .... ....|--- .... ....
....|..|C-4 AF.F ....|A#4 UFFA ....|A#3 2F.A ....
....|..|C-4 CF.F ....|R-- .... ....|--- .... ....
....|..|A#1 2F.7 ....|--- .... ....|--- .... ....
....|..|C-4 AF.F ....|C#5 UFFF ....|--- .... ....
....|..|C-4 CF.F ....|R-- .... ....|--- .... ....
 A#3|..|A#1 2A.F ....|R-- .... ....|--- .... ....
....|..|C-4 CF.F ....|D#5 UFFF ....|--- .... ....
....|..|C-3 RF.F ....|--- .... ....|R-- .... ....
 A#3|..|A#1 2A.F ....|R-- .... ....|--- .... ....
....|..|C-5 VF.F ....|C#5 UFFF ....|A#3 2F.7 ....
....|..|C-3 RF.F ....|R-- .... ....|--- .... ....
 A#3|..|A#1 2A.F ....|--- .... ....|--- .... ....
....|..|B-8 JF.F ....|A#4 UFF7 ....|--- .... ....
....|..|C-4 CF.F ....|R-- .... ....|--- .... ....
 G#3|..|G#1 2A.F ....|R-- .... ....|--- .... ....
....|..|C-4 AF.F ....|F-5 UFFF ....|--- .... ....
....|..|C-3 RF.F ....|--- .... ....|--- .... ....
 A#3|..|A#1 2A.F ....|R-- .... ....|--- .... ....
....|..|C-4 CF.F ....|D#5 UFFF ....|--- .... ....
....|..|C-4 AF.F ....|--- .... ....|--- .... ....
 A#3|..|A#1 2A.F ....|R-- .... ....|--- .... ....
....|..|C-5 VF.F ....|C#5 UFF7 ....|--- .... ....
....|..|C-3 RF.F ....|R-- .... ....|--- .... ....
 A#3|..|A#1 2A.F ....|R-- .... ....|--- .... ....
....|..|C-4 AF.F ....|C#5 UFFF ....|--- .... ....
....|..|C-4 CF.F ....|A#4 UFFF ....|--- .... ....
....|..|A#1 2F.7 ....|R-- .... ....|--- .... ....
....|..|C-4 AF.F ....|C#5 UFF7 ....|--- .... ....
....|..|C-4 CF.F ....|--- .... ....|--- .... ....
 A#3|..|A#1 2A.F ....|R-- .... ....|--- .... ....
....|..|C-4 CF.F ....|--- .... ....|--- .... ....
....|..|C-4 AF.F ....|R-- .... ....|--- .... ....
 A#3|..|A#1 2A.F ....|--- .... ....|--- .... ....
....|..|C-5 VF.F ....|F-5 UFF7 ....|--- .... ....
....|..|C-3 RF.F ....|A#4 UFFA ....|--- .... ....
 A#3|..|A#1 2A.F ....|R-- .... ....|--- .... ....
....|..|B-8 JF.F ....|D#5 UFF7 ....|--- .... ....
....|..|C-4 CF.F ....|--- .... ....|R-- .... ....
 A#3|..|A#1 2A.F ....|R-- .... ....|R-- .... ....

[Pattern7]
....|..|C-4 AF.F ....|A#4 UFFF ....|A#3 2F6F ....
....|..|C-4 CF.F ....|R-- .... ....|--- .... ....
 F#3|..|F#1 2A.F ....|--- .... ....|--- .... ....
....|..|C-4 CF.F ....|A#4 UFFF ....|--- .... ....
....|..|C-4 AF.F ....|A#4 UFF7 ....|--- .... ....
 F#3|..|F#1 2A.F ....|--- .... ....|--- .... ....
....|..|C-5 VF.F ....|--- .... ....|--- .... ....
....|..|C-3 RF.F ....|--- .... ....|R-- .... ....
 F#3|..|F#1 2A.F ....|--- .... ....|R-- .... ....
....|..|C-4 AF.F ....|A#4 UFFA ....|A#3 2F6A ....
....|..|C-4 CF.F ....|R-- .... ....|--- .... ....
....|..|A#1 2F.7 ....|R-- .... ....|--- .... ....
....|..|C-4 AF.F ....|C#5 UFFF ....|--- .... ....
....|..|C-4 CF.F ....|R-- .... ....|--- .... ....
 F#3|..|F#1 2A.F ....|--- .... ....|--- .... ....
....|..|C-4 CF.F ....|--- .... ....|--- .... ....
....|..|C-3 RF.F ....|--- .... ....|R-- .... ....
 F#3|..|F#1 2A.F ....|R-- .... ....|R-- .... ....
....|..|C-5 VF.F ....|F-5 UFFF ....|A#3 2F67 ....
....|..|C-3 RF.F ....|R-- .... ....|--- .... ....
 F#3|..|F#1 2A.F ....|R-- .... ....|--- .... ....
....|..|B-8 JF.F ....|A#4 UFF7 ....|--- .... ....
....|..|C-4 CF.F ....|--- .... ....|--- .... ....
 F#3|..|F#1 2A.F ....|--- .... ....|--- .... ....
....|..|C-4 AF.F ....|A#4 UFFF ....|--- .... ....
....|..|C-3 RF.F ....|R-- .... ....|--- .... ....
 F#3|..|F#1 2A.F ....|R-- .... ....|--- .... ....
....|..|C-4 CF.F ....|A#4 UFFF ....|--- .... ....
....|..|C-4 AF.F ....|--- .... ....|--- .... ....
 F#3|..|F#1 2A.F ....|R-- .... ....|--- .... ....
....|..|C-5 VF.F ....|C#5 UFF7 ....|--- .... ....
....|..|C-3 RF.F ....|--- .... ....|--- .... ....
 F#3|..|F#1 2A.F ....|--- .... ....|--- .... ....
....|..|C-4 AF.F ....|C#5 UFFF ....|--- .... ....
....|..|C-4 CF.F ....|R-- .... ....|--- .... ....
....|..|F#1 2F.7 ....|R-- .... ....|--- .... ....
....|..|C-4 AF.F ....|F-5 UFF7 ....|--- .... ....
....|..|C-4 CF.F ....|--- .... ....|--- .... ....
 F#3|..|F#1 2A.F ....|--- .... ....|--- .... ....
....|..|C-4 CF.F ....|R-- .... ....|--- .... ....
....|..|C-4 AF.F ....|--- .... ....|--- .... ....
 F#3|..|F#1 2A.F ....|--- .... ....|--- .... ....
....|..|C-5 VF.F ....|A#4 UFF7 ....|--- .... ....
....|..|C-3 RF.F ....|R-- .... ....|--- .... ....
 F#3|..|F#1 2A.F ....|--- .... ....|--- .... ....
....|..|B-8 JF.F ....|A#4 UFF7 ....|--- .... ....
....|..|C-4 CF.F ....|--- .... ....|A#3 2F.F ....
 F#3|..|F#1 2A.F ....|--- .... ....|R-- .... ....
....|..|C-4 AF.F ....|A#4 UFFF ....|G#3 2F5F ....
....|..|C-4 CF.F ....|--- .... ....|--- .... ....
 G#3|..|G#1 2A.F ....|--- .... ....|--- .... ....
....|..|C-4 CF.F ....|C#5 UFF7 ....|--- .... ....
....|..|C-4 AF.F ....|R-- .... ....|--- .... ....
 G#3|..|G#1 2A.F ....|--- .... ....|--- .... ....
....|..|C-5 VF.F ....|A#4 UFFF ....|--- .... ....
....|..|C-3 RF.F ....|--- .... ....|A#3 2F.A ....
 G#3|..|G#1 2A.F ....|--- .... ....|R-- .... ....
....|..|C-4 AF.F ....|A#4 UFFA ....|G#3 2F5A ....
....|..|C-4 CF.F ....|--- .... ....|--- .... ....
....|..|F#1 2F.7 ....|--- .... ....|--- .... ....
....|..|C-4 AF.F ....|C#5 UFFF ....|--- .... ....
....|..|C-4 CF.F ....|R-- .... ....|--- .... ....
 G#3|..|G#1 2A.F ....|R-- .... ....|--- .... ....
....|..|C-4 CF.F ....|D#5 UFFF ....|--- .... ....
....|..|C-3 RF.F ....|--- .... ....|A#3 2F.7 ....
 G#3|..|G#1 2A.F ....|R-- .... ....|R-- .... ....
....|..|C-5 VF.F ....|A#4 UFF7 ....|G#3 2F57 ....
....|..|C-3 RF.F ....|C#5 UFFF ....|--- .... ....
 G#3|..|G#1 2A.F ....|--- .... ....|--- .... ....
....|..|B-8 JF.F ....|C#5 UFFA ....|--- .... ....
....|..|C-4 CF.F ....|R-- .... ....|--- .... ....
 G#3|..|G#1 2A.F ....|R-- .... ....|--- .... ....
....|..|C-4 AF.F ....|F-5 UFFF ....|--- .... ....
....|..|C-3 RF.F ....|--- .... ....|--- .... ....
 G#3|..|G#1 2A.F ....|R-- .... ....|--- .... ....
....|..|C-4 CF.F ....|D#5 UFFF ....|--- .... ....
....|..|C-4 AF.F ....|C#5 UFFA ....|--- .... ....
 G#3|..|G#1 2A.F ....|--- .... ....|--- .... ....
....|..|C-5 VF.F ....|C#5 UFF7 ....|--- .... ....
....|..|C-3 RF.F ....|R-- .... ....|--- .... ....
 G#3|..|G#1 2A.F ....|R-- .... ....|--- .... ....
....|..|C-4 AF.F ....|C#5 UFFF ....|--- .... ....
....|..|C-4 CF.F ....|A#4 UFFF ....|--- .... ....
....|..|G#1 2F.7 ....|R-- .... ....|--- .... ....
....|..|C-4 AF.F ....|D#5 UFFA ....|--- .... ....
....|..|C-4 CF.F ....|C#5 UFF7 ....|--- .... ....
 G#3|..|G#1 2A.F ....|--- .... ....|--- .... ....
....|..|C-4 CF.F ....|--- .... ....|--- .... ....
....|..|C-4 AF.F ....|R-- .... ....|--- .... ....
 G#3|..|G#1 2A.F ....|--- .... ....|--- .... ....
....|..|C-5 VF.F ....|F-5 UFF7 ....|--- .... ....
....|..|C-3 RF.F ....|A#4 UFFA ....|--- .... ....
 G#3|..|G#1 2A.F ....|R-- .... ....|--- .... ....
....|..|B-8 JF.F ....|D#5 UFF7 ....|--- .... ....
....|..|C-4 CF.F ....|--- .... ....|G#3 2F7F ....
 G#3|..|G#1 2A.F ....|--- .... ....|R-- .... ....

[Pattern8]
....|..|C-4 AF.F ....|F-5 UFFF ....|A#3 2F1F ....
....|..|C-4 CF.F ....|R-- .... ....|--- .... ....
 A#3|..|A#1 2A.F ....|--- .... ....|--- .... ....
....|..|C-4 CF.F ....|C#5 UFF7 ....|A#2 2F.F ....
....|..|C-4 AF.F ....|A#4 UFF7 ....|R-- .... ....
....|..|G#1 2F.A ....|--- .... ....|--- .... ....
....|..|C-4 CF.F ....|--- .... ....|A#2 2F.F ....
....|..|C-3 RF.F ....|--- .... ....|G#3 2F7A ....
 A#3|..|A#1 2A.F ....|R-- .... ....|R-- .... ....
....|..|C-4 AF.F ....|F-5 UFFF ....|A#1 2F.F ....
....|..|C-4 CF.F ....|F-5 UFFF ....|A#2 2F.F ....
....|..|G#1 2F.7 ....|--- .... ....|R-- .... ....
....|..|C-4 AF.F ....|--- .... ....|A#2 2F.A ....
....|..|C-4 CF.F ....|R-- .... ....|A#1 2F.F ....
 A#3|..|A#1 2A.F ....|--- .... ....|R-- .... ....
....|..|C-4 CF.F ....|D#5 UFFF ....|A#2 2F.F ....
....|..|C-4 LF.F ....|C#5 UFFF ....|G#3 2F77 ....
 A#3|..|A#1 2A.F ....|R-- .... ....|R-- .... ....
....|..|C-4 CF.F ....|F-5 UFF7 ....|A#1 2F.F ....
....|..|C-3 RF.F ....|A#4 UFFF ....|A#2 2F.A ....
 A#3|..|A#1 2A.F ....|--- .... ....|R-- .... ....
....|..|B-8 JF.F ....|--- .... ....|A#2 2F.F ....
....|..|C-4 CF.F ....|R-- .... ....|A#1 2F.A ....
 A#3|..|A#1 2A.F ....|--- .... ....|R-- .... ....
....|..|C-4 AF.F ....|C#5 UFFF ....|A#1 2F.F ....
....|..|C-3 RF.F ....|C#5 UFFA ....|R-- .... ....
 A#3|..|A#1 2A.F ....|R-- .... ....|R-- .... ....
....|..|C-4 CF.F ....|D#5 UFFF ....|A#2 2F.F ....
....|..|C-4 AF.F ....|F-5 UFF7 ....|A#2 2F.7 ....
 A#3|..|A#1 2A.F ....|--- .... ....|R-- .... ....
....|..|C-4 CF.F ....|F-5 UFFF ....|A#2 2F.F ....
....|..|C-3 RF.F ....|R-- .... ....|A#1 2F.7 ....
 A#3|..|A#1 2A.F ....|R-- .... ....|R-- .... ....
....|..|C-4 AF.F ....|C#5 UFFF ....|A#1 2F.F ....
....|..|C-4 CF.F ....|C#5 UFF7 ....|A#2 2F.F ....
....|..|A#1 2F.7 ....|R-- .... ....|R-- .... ....
....|..|C-4 AF.F ....|D#5 UFFA ....|A#1 2F.7 ....
....|..|C-4 CF.F ....|A#4 UFF7 ....|A#1 2F.F ....
 A#3|..|A#1 2A.F ....|--- .... ....|R-- .... ....
....|..|C-4 CF.F ....|F-5 UFFA ....|A#2 2F.F ....
....|..|C-4 AF.F ....|R-- .... ....|R-- .... ....
 A#3|..|A#1 2A.F ....|R-- .... ....|R-- .... ....
....|..|C-4 CF.F ....|C#5 UFF7 ....|A#1 2F.F ....
....|..|C-3 RF.F ....|R-- .... ....|A#2 2F.A ....
 A#3|..|A#1 2A.F ....|R-- .... ....|R-- .... ....
....|..|B-8 JF.F ....|D#5 UFF7 ....|A#2 2F.F ....
....|..|C-4 CF.F ....|R-- .... ....|A#1 2F.A ....
 A#3|..|A#1 2A.F ....|--- .... ....|R-- .... ....
....|..|C-4 AF.F ....|F-5 UFF7 ....|G#3 2F2F ....
....|..|C-4 CF.F ....|F-5 UFFF ....|R-- .... ....
 G#3|..|G#1 2A.F ....|R-- .... ....|R-- .... ....
....|..|C-4 CF.F ....|C#5 UFF7 ....|G#2 2F.F ....
....|..|C-4 AF.F ....|R-- .... ....|A#2 2F.7 ....
 G#3|..|G#1 2A.F ....|--- .... ....|R-- .... ....
....|..|C-4 CF.F ....|--- .... ....|G#2 2F.F ....
....|..|C-3 RF.F ....|--- .... ....|A#1 2F.7 ....
 G#3|..|G#1 2A.F ....|--- .... ....|R-- .... ....
....|..|C-4 AF.F ....|R-- .... ....|G#1 2F.F ....
....|..|C-4 CF.F ....|D#5 UFFF ....|G#2 2F.F ....
....|..|A#1 2F.7 ....|D#5 UFFF ....|R-- .... ....
....|..|C-4 AF.F ....|--- .... ....|A#1 2F.7 ....
....|..|C-4 CF.F ....|R-- .... ....|G#1 2F.F ....
 G#3|..|G#1 2A.F ....|--- .... ....|R-- .... ....
....|..|C-4 CF.F ....|R-- .... ....|G#2 2F.F ....
....|..|C-4 LF.F ....|A#4 UFFF ....|R-- .... ....
 G#3|..|G#1 2A.F ....|--- .... ....|R-- .... ....
....|..|C-4 CF.F ....|R-- .... ....|G#1 2F.F ....
....|..|C-3 RF.F ....|F-5 UFF7 ....|G#2 2F.A ....
 G#3|..|G#1 2A.F ....|D#5 UFFA ....|R-- .... ....
....|..|B-8 JF.F ....|--- .... ....|G#2 2F.F ....
....|..|C-4 CF.F ....|R-- .... ....|G#1 2F.A ....
 G#3|..|G#1 2A.F ....|--- .... ....|R-- .... ....
....|..|C-4 AF.F ....|C#5 UFFF ....|G#1 2F.F ....
....|..|C-3 RF.F ....|A#4 UFFA ....|R-- .... ....
 G#3|..|G#1 2A.F ....|R-- .... ....|R-- .... ....
....|..|C-4 CF.F ....|D#5 UFFF ....|G#2 2F.F ....
....|..|C-4 AF.F ....|D#5 UFF7 ....|G#2 2F.7 ....
 G#3|..|G#1 2A.F ....|D#5 UFF7 ....|R-- .... ....
....|..|C-4 CF.F ....|C#5 UFFF ....|G#2 2F.F ....
....|..|C-3 RF.F ....|R-- .... ....|G#1 2F.7 ....
 G#3|..|G#1 2A.F ....|--- .... ....|R-- .... ....
....|..|C-4 AF.F ....|D#5 UFFF ....|G#1 2F.F ....
....|..|C-4 CF.F ....|A#4 UFFF ....|G#2 2F.F ....
....|..|G#1 2F.7 ....|R-- .... ....|R-- .... ....
....|..|C-4 AF.F ....|D#5 UFFA ....|G#1 2F.7 ....
....|..|C-4 CF.F ....|--- .... ....|G#1 2F.F ....
 G#3|..|G#1 2A.F ....|R-- .... ....|R-- .... ....
....|..|C-4 CF.F ....|C#5 UFFA ....|G#2 2F.F ....
....|..|C-4 AF.F ....|R-- .... ....|R-- .... ....
 G#3|..|G#1 2A.F ....|--- .... ....|R-- .... ....
....|..|C-4 CF.F ....|C#5 UFF7 ....|G#1 2F.F ....
....|..|C-3 RF.F ....|A#4 UFFA ....|G#2 2F.A ....
 G#3|..|G#1 2A.F ....|R-- .... ....|R-- .... ....
....|..|B-8 JF.F ....|D#5 UFF7 ....|G#2 2F.F ....
....|..|C-4 CF.F ....|--- .... ....|G#1 2F.A ....
 G#3|..|G#1 2A.F ....|R-- .... ....|R-- .... ....

[Pattern9]
....|..|C-4 AF.F ....|C#5 UFF7 ....|G#3 2F3F ....
....|..|C-4 CF.F ....|A#4 UFFF ....|R-- .... ....
 C#4|..|C#2 2A.F ....|--- .... ....|R-- .... ....
....|..|C-4 CF.F ....|D#5 UFF7 ....|G#3 2F.F ....
....|..|C-4 AF.F ....|A#4 UFF7 ....|G#2 2F.7 ....
 C#4|..|C#2 2A.F ....|G#4 UFFF ....|R-- .... ....
....|..|C-4 CF.F ....|--- .... ....|G#3 2F.F ....
....|..|C-3 RF.F ....|A#4 UFFF ....|G#1 2F.7 ....
 C#4|..|C#2 2A.F ....|--- .... ....|R-- .... ....
....|..|C-4 AF.F ....|R-- .... ....|C#3 2F.F ....
....|..|C-4 CF.F ....|A#4 UFFF ....|G#3 2F.F ....
....|..|G#1 2F.7 ....|--- .... ....|R-- .... ....
....|..|C-4 AF.F ....|R-- .... ....|G#1 2F.7 ....
....|..|C-4 CF.F ....|C#5 UFFF ....|C#3 2F.F ....
 C#4|..|C#2 2A.F ....|G#4 UFFA ....|R-- .... ....
....|..|C-4 CF.F ....|--- .... ....|G#3 2F.F ....
....|..|C-4 LF.F ....|A#4 UFFA ....|--- .... ....
 C#4|..|C#2 2A.F ....|--- .... ....|R-- .... ....
....|..|C-4 CF.F ....|R-- .... ....|C#3 2F.F ....
....|..|C-3 RF.F ....|D#5 UFFF ....|G#3 2F.A ....
 C#4|..|C#2 2A.F ....|--- .... ....|R-- .... ....
....|..|B-8 JF.F ....|R-- .... ....|G#3 2F.F ....
....|..|C-4 CF.F ....|C#5 UFFA ....|C#3 2F.A ....
 C#4|..|C#2 2A.F ....|G#4 UFF7 ....|R-- .... ....
....|..|C-4 AF.F ....|--- .... ....|C#3 2F.F ....
....|..|C-3 RF.F ....|A#4 UFFF ....|--- .... ....
 C#4|..|C#2 2A.F ....|--- .... ....|R-- .... ....
....|..|C-4 CF.F ....|R-- .... ....|G#3 2F.F ....
....|..|C-4 AF.F ....|G#4 UFFF ....|G#3 2F.7 ....
 C#4|..|C#2 2A.F ....|--- .... ....|R-- .... ....
....|..|C-4 CF.F ....|R-- .... ....|G#3 2F.F ....
....|..|C-3 RF.F ....|A#4 UFFF ....|C#3 2F.7 ....
 C#4|..|C#2 2A.F ....|R-- .... ....|R-- .... ....
....|..|C-4 AF.F ....|R-- .... ....|C#3 2F.F ....
....|..|C-4 CF.F ....|C#5 UFFF ....|G#3 2F.F ....
....|..|C#2 2F.7 ....|--- .... ....|R-- .... ....
....|..|C-4 AF.F ....|R-- .... ....|C#3 2F.7 ....
....|..|C-4 CF.F ....|D#5 UFF7 ....|C#3 2F.F ....
 C#4|..|C#2 2A.F ....|--- .... ....|R-- .... ....
....|..|C-4 CF.F ....|R-- .... ....|G#3 2F.F ....
....|..|C-4 AF.F ....|A#4 UFFA ....|R-- .... ....
 C#4|..|C#2 2A.F ....|D#5 UFFF ....|R-- .... ....
....|..|C-4 CF.F ....|F-5 UFFF ....|C#3 2F.F ....
....|..|C-3 RF.F ....|A#4 UFF7 ....|G#3 2F.A ....
 C#4|..|C#2 2A.F ....|--- .... ....|--- .... ....
....|..|B-8 JF.F ....|R-- .... ....|G#3 2F.F ....
....|..|C-4 CF.F ....|G#4 UFF7 ....|C#3 2F.A ....
 C#4|..|C#2 2A.F ....|--- .... ....|R-- .... ....
....|..|C-4 AF.F ....|R-- .... ....|A#3 2F4F ....
....|..|C-4 CF.F ....|A#4 UFFF ....|R-- .... ....
 D#4|..|D#2 2A.F ....|D#5 UFFA ....|R-- .... ....
....|..|C-4 CF.F ....|F-5 UFFA ....|A#3 2F.F ....
....|..|C-4 AF.F ....|G#4 UFFF ....|G#3 2F.7 ....
 D#4|..|D#2 2A.F ....|R-- .... ....|--- .... ....
....|..|C-4 CF.F ....|--- .... ....|A#3 2F.F ....
....|..|C-3 RF.F ....|A#4 UFFF ....|C#3 2F.7 ....
 D#4|..|D#2 2A.F ....|R-- .... ....|R-- .... ....
....|..|C-4 AF.F ....|--- .... ....|D#3 2F.F ....
....|..|C-4 CF.F ....|A#4 UFFF ....|A#3 2F.F ....
....|..|C#2 2F.7 ....|D#5 UFF7 ....|--- .... ....
....|..|C-4 AF.F ....|F-5 UFF7 ....|C#3 2F.7 ....
....|..|C-4 CF.F ....|F-5 UFFF ....|D#3 2F.F ....
 D#4|..|D#2 2A.F ....|R-- .... ....|R-- .... ....
....|..|C-4 CF.F ....|--- .... ....|A#3 2F.F ....
....|..|C-4 LF.F ....|A#4 UFFA ....|R-- .... ....
 D#4|..|D#2 2A.F ....|R-- .... ....|R-- .... ....
....|..|C-4 CF.F ....|R-- .... ....|D#3 2F.F ....
....|..|C-3 RF.F ....|A#4 UFFF ....|A#3 2F.F ....
 D#4|..|D#2 2A.F ....|--- .... ....|--- .... ....
....|..|B-8 JF.F ....|R-- .... ....|A#3 2F.7 ....
....|..|C-4 CF.F ....|G#4 UFF7 ....|D#3 2F.F ....
 D#4|..|D#2 2A.F ....|R-- .... ....|R-- .... ....
....|..|C-4 AF.F ....|--- .... ....|A#3 2F.F ....
....|..|C-3 RF.F ....|C#5 UFFF ....|R-- .... ....
 D#4|..|D#2 2A.F ....|R-- .... ....|R-- .... ....
....|..|C-4 CF.F ....|R-- .... ....|D#3 2F.F ....
....|..|C-4 AF.F ....|D#5 UFFF ....|A#3 2F.F ....
 D#4|..|D#2 2A.F ....|R-- .... ....|R-- .... ....
....|..|C-4 CF.F ....|R-- .... ....|R-- .... ....
....|..|C-3 RF.F ....|C#5 UFFF ....|D#3 2F.F ....
 D#4|..|D#2 2A.F ....|--- .... ....|R-- .... ....
....|..|C-4 AF.F ....|C#5 UFFF ....|A#3 2F.F ....
....|..|C-4 CF.F ....|A#4 UFFF ....|R-- .... ....
....|..|D#2 2F.7 ....|--- .... ....|R-- .... ....
....|..|C-4 AF.F ....|R-- .... ....|D#3 2F.F ....
....|..|C-4 CF.F ....|A#4 UFF7 ....|A#3 2F.F ....
 D#4|..|D#2 2A.F ....|R-- .... ....|R-- .... ....
....|..|C-4 CF.F ....|--- .... ....|R-- .... ....
....|..|C-4 AF.F ....|C#5 UFFA ....|D#3 2F.F ....
 D#4|..|D#2 2A.F ....|--- .... ....|R-- .... ....
....|..|C-4 CF.F ....|C#5 UFFA ....|A#3 2F.F ....
....|..|C-3 RF.F ....|C#5 UFF7 ....|R-- .... ....
 D#4|..|D#2 2A.F ....|--- .... ....|R-- .... ....
....|..|B-8 JF.F ....|R-- .... ....|D#3 2F.F ....
....|..|C-4 CF.F ....|D#5 UFF7 ....|A#3 2F.F ....
 D#4|..|D#2 2A.F ....|R-- .... ....|R-- .... ....

[Pattern10]
....|..|C-4 AF.F ....|F-5 UFFF ....|A#3 2F1F ....
....|..|C-4 CF.F ....|C#5 UFF7 ....|D#3 2F.7 ....
 A#3|..|A#1 2A.F ....|--- .... ....|R-- .... ....
....|..|C-4 CF.F ....|C#5 UFF7 ....|A#2 2F.F ....
....|..|C-4 AF.F ....|A#4 UFF7 ....|R-- .... ....
....|..|D#2 2F.A ....|--- .... ....|R-- .... ....
....|..|C-4 CF.F ....|--- .... ....|A#2 2F.F ....
....|..|C-3 RF.F ....|--- .... ....|A#3 2F.7 ....
 A#3|..|A#1 2A.F ....|R-- .... ....|R-- .... ....
....|..|C-4 AF.F ....|F-5 UFFF ....|A#1 2F.F ....
....|..|C-4 CF.F ....|F-5 UFFF ....|A#2 2F.F ....
....|..|D#2 2F.7 ....|--- .... ....|R-- .... ....
....|..|C-4 AF.F ....|--- .... ....|A#3 2F.7 ....
....|..|C-4 CF.F ....|--- .... ....|A#1 2F.F ....
 A#3|..|A#1 2A.F ....|R-- .... ....|R-- .... ....
....|..|C-4 CF.F ....|D#5 UFFF ....|A#2 2F.F ....
....|..|C-4 LF.F ....|--- .... ....|A#3 2F.7 ....
 A#3|..|A#1 2A.F ....|R-- .... ....|R-- .... ....
....|..|C-4 CF.F ....|F-5 UFF7 ....|A#1 2F.F ....
....|..|C-3 RF.F ....|A#4 UFFF ....|A#2 2F.A ....
 A#3|..|A#1 2A.F ....|--- .... ....|R-- .... ....
....|..|B-8 JF.F ....|--- .... ....|A#2 2F.F ....
....|..|C-4 CF.F ....|R-- .... ....|A#1 2F.A ....
 A#3|..|A#1 2A.F ....|R-- .... ....|R-- .... ....
....|..|C-4 AF.F ....|C#5 UFFF ....|A#1 2F.F ....
....|..|C-3 RF.F ....|--- .... ....|R-- .... ....
 A#3|..|A#1 2A.F ....|R-- .... ....|R-- .... ....
....|..|C-4 CF.F ....|D#5 UFFF ....|A#2 2F.F ....
....|..|C-4 AF.F ....|F-5 UFF7 ....|A#2 2F.7 ....
 A#3|..|A#1 2A.F ....|--- .... ....|R-- .... ....
....|..|C-4 CF.F ....|F-5 UFFF ....|A#2 2F.F ....
....|..|C-3 RF.F ....|R-- .... ....|A#1 2F.7 ....
 A#3|..|A#1 2A.F ....|R-- .... ....|R-- .... ....
....|..|C-4 AF.F ....|C#5 UFFF ....|A#1 2F.F ....
....|..|C-4 CF.F ....|--- .... ....|A#2 2F.F ....
....|..|A#1 2F.7 ....|R-- .... ....|R-- .... ....
....|..|C-4 AF.F ....|D#5 UFFA ....|A#1 2F.7 ....
....|..|C-4 CF.F ....|A#4 UFF7 ....|A#1 2F.F ....
 A#3|..|A#1 2A.F ....|--- .... ....|R-- .... ....
....|..|C-4 CF.F ....|F-5 UFFA ....|A#2 2F.F ....
....|..|C-4 AF.F ....|R-- .... ....|R-- .... ....
 A#3|..|A#1 2A.F ....|R-- .... ....|R-- .... ....
....|..|C-4 CF.F ....|C#5 UFF7 ....|A#1 2F.F ....
....|..|C-3 RF.F ....|R-- .... ....|A#2 2F.A ....
 A#3|..|A#1 2A.F ....|R-- .... ....|R-- .... ....
....|..|B-8 JF.F ....|D#5 UFF7 ....|A#2 2F.F ....
....|..|C-4 CF.F ....|R-- .... ....|A#1 2F.A ....
 A#3|..|A#1 2A.F ....|--- .... ....|R-- .... ....
....|..|C-4 AF.F ....|F-5 UFFF ....|G#3 2F2F ....
....|..|C-4 CF.F ....|--- .... ....|R-- .... ....
 G#3|..|G#1 2A.F ....|R-- .... ....|R-- .... ....
....|..|C-4 CF.F ....|C#5 UFF7 ....|G#2 2F.F ....
....|..|C-4 AF.F ....|R-- .... ....|A#2 2F.7 ....
 G#3|..|G#1 2A.F ....|--- .... ....|R-- .... ....
....|..|C-4 CF.F ....|--- .... ....|G#2 2F.F ....
....|..|C-3 RF.F ....|--- .... ....|A#1 2F.7 ....
 G#3|..|G#1 2A.F ....|R-- .... ....|R-- .... ....
....|..|C-4 AF.F ....|D-5 UFFF ....|G#1 2F.F ....
....|..|C-4 CF.F ....|D#5 UFFF ....|G#2 2F.F ....
....|..|A#1 2F.7 ....|--- .... ....|R-- .... ....
....|..|C-4 AF.F ....|--- .... ....|A#1 2F.7 ....
....|..|C-4 CF.F ....|R-- .... ....|G#1 2F.F ....
 G#3|..|G#1 2A.F ....|--- .... ....|R-- .... ....
....|..|C-4 CF.F ....|R-- .... ....|G#2 2F.F ....
....|..|C-4 LF.F ....|A#4 UFFF ....|R-- .... ....
 G#3|..|G#1 2A.F ....|R-- .... ....|R-- .... ....
....|..|C-4 CF.F ....|F-5 UFF7 ....|G#1 2F.F ....
....|..|C-3 RF.F ....|D#5 UFFA ....|G#2 2F.A ....
 G#3|..|G#1 2A.F ....|--- .... ....|R-- .... ....
....|..|B-8 JF.F ....|--- .... ....|G#2 2F.F ....
....|..|C-4 CF.F ....|R-- .... ....|G#1 2F.A ....
 G#3|..|G#1 2A.F ....|--- .... ....|R-- .... ....
....|..|C-4 AF.F ....|C#5 UFFF ....|G#1 2F.F ....
....|..|C-3 RF.F ....|A#4 UFFA ....|R-- .... ....
 G#3|..|G#1 2A.F ....|R-- .... ....|R-- .... ....
....|..|C-4 CF.F ....|D#5 UFFF ....|G#2 2F.F ....
....|..|C-4 AF.F ....|D#5 UFF7 ....|G#2 2F.7 ....
 G#3|..|G#1 2A.F ....|R-- .... ....|R-- .... ....
....|..|C-4 CF.F ....|C#5 UFFF ....|G#2 2F.F ....
....|..|C-3 RF.F ....|R-- .... ....|G#1 2F.7 ....
 G#3|..|G#1 2A.F ....|--- .... ....|R-- .... ....
....|..|C-4 AF.F ....|D#5 UFFF ....|G#1 2F.F ....
....|..|C-4 CF.F ....|A#4 UFFF ....|G#2 2F.F ....
....|..|G#1 2F.7 ....|R-- .... ....|R-- .... ....
....|..|C-4 AF.F ....|D#5 UFFA ....|G#1 2F.7 ....
....|..|C-4 CF.F ....|--- .... ....|G#1 2F.F ....
 G#3|..|G#1 2A.F ....|R-- .... ....|R-- .... ....
....|..|C-4 CF.F ....|C#5 UFFA ....|G#2 2F.F ....
....|..|C-4 AF.F ....|R-- .... ....|R-- .... ....
 G#3|..|G#1 2A.F ....|--- .... ....|R-- .... ....
....|..|C-4 CF.F ....|C#5 UFF7 ....|G#1 2F.F ....
....|..|C-3 RF.F ....|A#4 UFFA ....|G#2 2F.A ....
 G#3|..|G#1 2A.F ....|R-- .... ....|R-- .... ....
....|..|B-8 JF.F ....|D#5 UFF7 ....|G#2 2F.F ....
....|..|C-4 CF.F ....|--- .... ....|G#1 2F.A ....
 G#3|..|G#1 2A.F ....|R-- .... ....|R-- .... ....

[Pattern11]
....|..|C-4 AF.F ....|C#5 UFF7 ....|G#3 2F3F ....
....|..|C-4 CF.F ....|A#4 UFFF ....|R-- .... ....
 C#4|..|C#2 2A.F ....|--- .... ....|R-- .... ....
....|..|C-4 CF.F ....|D#5 UFF7 ....|G#3 2F.F ....
....|..|C-4 AF.F ....|A#4 UFF7 ....|G#2 2F.7 ....
 C#4|..|C#2 2A.F ....|G#4 UFFF ....|R-- .... ....
....|..|C-4 CF.F ....|--- .... ....|G#3 2F.F ....
....|..|C-3 RF.F ....|A#4 UFFF ....|G#1 2F.7 ....
 C#4|..|C#2 2A.F ....|--- .... ....|R-- .... ....
....|..|C-4 AF.F ....|R-- .... ....|C#3 2F.F ....
....|..|C-4 CF.F ....|A#4 UFFF ....|G#3 2F.F ....
....|..|G#1 2F.7 ....|--- .... ....|R-- .... ....
....|..|C-4 AF.F ....|R-- .... ....|G#1 2F.7 ....
....|..|C-4 CF.F ....|C#5 UFFF ....|C#3 2F.F ....
 C#4|..|C#2 2A.F ....|G#4 UFFA ....|R-- .... ....
....|..|C-4 CF.F ....|--- .... ....|G#3 2F.F ....
....|..|C-4 LF.F ....|A#4 UFFA ....|--- .... ....
 C#4|..|C#2 2A.F ....|--- .... ....|R-- .... ....
....|..|C-4 CF.F ....|R-- .... ....|C#3 2F.F ....
....|..|C-3 RF.F ....|D#5 UFFF ....|G#3 2F.A ....
 C#4|..|C#2 2A.F ....|--- .... ....|R-- .... ....
....|..|B-8 JF.F ....|R-- .... ....|G#3 2F.F ....
....|..|C-4 CF.F ....|C#5 UFFA ....|C#3 2F.A ....
 C#4|..|C#2 2A.F ....|G#4 UFF7 ....|R-- .... ....
....|..|C-4 AF.F ....|--- .... ....|C#3 2F.F ....
....|..|C-3 RF.F ....|A#4 UFFF ....|--- .... ....
 C#4|..|C#2 2A.F ....|--- .... ....|R-- .... ....
....|..|C-4 CF.F ....|R-- .... ....|G#3 2F.F ....
....|..|C-4 AF.F ....|G#4 UFFF ....|G#3 2F.7 ....
 C#4|..|C#2 2A.F ....|--- .... ....|R-- .... ....
....|..|C-4 CF.F ....|R-- .... ....|G#3 2F.F ....
....|..|C-3 RF.F ....|A#4 UFFF ....|C#3 2F.7 ....
 C#4|..|C#2 2A.F ....|R-- .... ....|R-- .... ....
....|..|C-4 AF.F ....|R-- .... ....|C#3 2F.F ....
....|..|C-4 CF.F ....|C#5 UFFF ....|G#3 2F.F ....
....|..|C#2 2F.7 ....|--- .... ....|R-- .... ....
....|..|C-4 AF.F ....|R-- .... ....|C#3 2F.7 ....
....|..|C-4 CF.F ....|D#5 UFF7 ....|C#3 2F.F ....
 C#4|..|C#2 2A.F ....|--- .... ....|R-- .... ....
....|..|C-4 CF.F ....|R-- .... ....|G#3 2F.F ....
....|..|C-4 AF.F ....|A#4 UFFA ....|R-- .... ....
 C#4|..|C#2 2A.F ....|D#5 UFFF ....|R-- .... ....
....|..|C-4 CF.F ....|F-5 UFFF ....|C#3 2F.F ....
....|..|C-3 RF.F ....|A#4 UFF7 ....|G#3 2F.A ....
 C#4|..|C#2 2A.F ....|--- .... ....|--- .... ....
....|..|B-8 JF.F ....|R-- .... ....|G#3 2F.F ....
....|..|C-4 CF.F ....|G#4 UFF7 ....|C#3 2F.A ....
 C#4|..|C#2 2A.F ....|--- .... ....|R-- .... ....
....|..|C-4 AF.F ....|R-- .... ....|A#3 2F4F ....
....|..|C-4 CF.F ....|A#4 UFFF ....|R-- .... ....
 D#4|..|D#2 2A.F ....|D#5 UFFA ....|R-- .... ....
....|..|C-4 CF.F ....|F-5 UFFA ....|A#3 2F.F ....
....|..|C-4 AF.F ....|G#4 UFFF ....|G#3 2F.7 ....
 D#4|..|D#2 2A.F ....|R-- .... ....|--- .... ....
....|..|C-4 CF.F ....|--- .... ....|A#3 2F.F ....
....|..|C-3 RF.F ....|A#4 UFFF ....|C#3 2F.7 ....
 D#4|..|D#2 2A.F ....|R-- .... ....|R-- .... ....
....|..|C-4 AF.F ....|--- .... ....|D#3 2F.F ....
....|..|C-4 CF.F ....|A#4 UFFF ....|A#3 2F.F ....
....|..|C#2 2F.7 ....|D#5 UFF7 ....|--- .... ....
....|..|C-4 AF.F ....|F-5 UFF7 ....|C#3 2F.7 ....
....|..|C-4 CF.F ....|F-5 UFFF ....|D#3 2F.F ....
 D#4|..|D#2 2A.F ....|R-- .... ....|R-- .... ....
....|..|C-4 CF.F ....|--- .... ....|A#3 2F.F ....
....|..|C-4 LF.F ....|A#4 UFFA ....|R-- .... ....
 D#4|..|D#2 2A.F ....|R-- .... ....|R-- .... ....
....|..|C-4 CF.F ....|R-- .... ....|D#3 2F.F ....
....|..|C-3 RF.F ....|A#4 UFFF ....|A#3 2F.F ....
 D#4|..|D#2 2A.F ....|--- .... ....|--- .... ....
....|..|B-8 JF.F ....|R-- .... ....|A#3 2F.7 ....
....|..|C-4 CF.F ....|G#4 UFF7 ....|D#3 2F.F ....
 D#4|..|D#2 2A.F ....|R-- .... ....|R-- .... ....
....|..|C-4 AF.F ....|--- .... ....|A#3 2F.F ....
....|..|C-3 RF.F ....|C#5 UFFF ....|R-- .... ....
 D#4|..|D#2 2A.F ....|R-- .... ....|R-- .... ....
....|..|C-4 CF.F ....|R-- .... ....|D#3 2F.F ....
....|..|C-4 AF.F ....|D#5 UFFF ....|A#3 2F.F ....
 D#4|..|D#2 2A.F ....|--- .... ....|R-- .... ....
....|..|C-4 CF.F ....|R-- .... ....|R-- .... ....
....|..|C-3 RF.F ....|C#5 UFFF ....|D#3 2F.F ....
 D#4|..|D#2 2A.F ....|--- .... ....|R-- .... ....
....|..|C-4 AF.F ....|C#5 UFFF ....|A#3 2F.F ....
....|..|C-4 CF.F ....|A#4 UFFF ....|R-- .... ....
....|..|D#2 2F.7 ....|--- .... ....|R-- .... ....
....|..|C-4 AF.F ....|R-- .... ....|D#3 2F.F ....
....|..|C-4 CF.F ....|A#4 UFF7 ....|A#3 2F.F ....
 D#4|..|D#2 2A.F ....|--- .... ....|R-- .... ....
....|..|C-4 CF.F ....|R-- .... ....|R-- .... ....
....|..|C-4 AF.F ....|C#5 UFFA ....|D#3 2F.F ....
 D#4|..|D#2 2A.F ....|--- .... ....|R-- .... ....
....|..|C-4 CF.F ....|C#5 UFFA ....|A#3 2F.F ....
....|..|C-3 RF.F ....|C#5 UFF7 ....|R-- .... ....
 D#4|..|D#2 2A.F ....|--- .... ....|R-- .... ....
....|..|B-8 JF.F ....|R-- .... ....|D#3 2F.F ....
....|..|C-4 CF.F ....|D#5 UFF7 ....|A#3 2F.F ....
 D#4|..|D#2 2A.F ....|R-- .... ....|R-- .... ....

[Pattern12]
....|..|C-4 AF.F ....|A#4 UFFF ....|A#3 2F5F ....
....|..|C-4 CF.F ....|C#5 UFF7 ....|A#3 2F9F ....
 A#3|..|A#1 2A.F ....|--- .... ....|R-- .... ....
....|..|C-4 CF.F ....|A#4 UFFF ....|A#2 2F.F ....
....|..|C-4 AF.F ....|A#4 UFF7 ....|R-- .... ....
 A#3|..|A#1 2A.F ....|R-- .... ....|R-- .... ....
....|..|C-4 CF.F ....|A#4 UFFF ....|A#2 2F.F ....
....|..|C-3 RF.F ....|--- .... ....|A#3 2F.7 ....
 A#3|..|A#1 2A.F ....|R-- .... ....|R-- .... ....
....|..|C-4 AF.F ....|C#5 UFFF ....|A#1 2F.F ....
....|..|C-4 CF.F ....|R-- .... ....|A#2 2F.F ....
....|..|D#2 2F.7 ....|--- .... ....|R-- .... ....
....|..|C-4 AF.F ....|A#4 UFFA ....|A#3 2F.7 ....
....|..|C-4 CF.F ....|--- .... ....|A#1 2F.F ....
 A#3|..|A#1 2A.F ....|R-- .... ....|R-- .... ....
....|..|C-4 CF.F ....|D#5 UFFF ....|A#2 2F.F ....
....|..|C-4 LF.F ....|--- .... ....|A#3 2F.7 ....
 A#3|..|A#1 2A.F ....|R-- .... ....|R-- .... ....
....|..|C-4 CF.F ....|F-5 UFFF ....|A#1 2F.F ....
....|..|C-3 RF.F ....|R-- .... ....|A#3 2F97 ....
 A#3|..|A#1 2A.F ....|--- .... ....|R-- .... ....
....|..|B-8 JF.F ....|A#4 UFF7 ....|A#2 2F.F ....
....|..|C-4 CF.F ....|--- .... ....|A#1 2F.A ....
 G#3|..|G#1 2A.F ....|R-- .... ....|R-- .... ....
....|..|C-4 AF.F ....|A#4 UFFF ....|A#1 2F.F ....
....|..|C-3 RF.F ....|R-- .... ....|R-- .... ....
 A#3|..|A#1 2A.F ....|R-- .... ....|R-- .... ....
....|..|C-4 CF.F ....|G#4 UFFF ....|A#2 2F.F ....
....|..|C-4 AF.F ....|--- .... ....|A#2 2F.7 ....
 A#3|..|A#1 2A.F ....|--- .... ....|R-- .... ....
....|..|C-4 CF.F ....|A#4 UFFF ....|A#2 2F.F ....
....|..|C-3 RF.F ....|R-- .... ....|A#1 2F.7 ....
 A#3|..|A#1 2A.F ....|R-- .... ....|R-- .... ....
....|..|C-4 AF.F ....|C#5 UFFF ....|A#1 2F.F ....
....|..|C-4 CF.F ....|R-- .... ....|A#2 2F.F ....
....|..|A#1 2F.7 ....|R-- .... ....|R-- .... ....
....|..|C-4 AF.F ....|F-5 UFF7 ....|A#1 2F.7 ....
....|..|C-4 CF.F ....|--- .... ....|A#1 2F.F ....
 A#3|..|A#1 2A.F ....|--- .... ....|R-- .... ....
....|..|C-4 CF.F ....|A#4 UFFA ....|A#2 2F.F ....
....|..|C-4 AF.F ....|R-- .... ....|R-- .... ....
 A#3|..|A#1 2A.F ....|--- .... ....|R-- .... ....
....|..|C-4 CF.F ....|A#4 UFF7 ....|A#1 2F.F ....
....|..|C-3 RF.F ....|R-- .... ....|A#2 2F.A ....
 A#3|..|A#1 2A.F ....|R-- .... ....|R-- .... ....
....|..|B-8 JF.F ....|G#4 UFF7 ....|A#2 2F.F ....
....|..|C-4 CF.F ....|--- .... ....|A#1 2F.A ....
 A#3|..|A#1 2A.F ....|--- .... ....|R-- .... ....
....|..|C-4 AF.F ....|A#4 UFF7 ....|A#1 2F.F ....
....|..|C-4 CF.F ....|R-- .... ....|R-- .... ....
 A#3|..|A#1 2A.F ....|--- .... ....|R-- .... ....
....|..|C-4 CF.F ....|A#4 UFFF ....|A#2 2F.F ....
....|..|C-4 AF.F ....|R-- .... ....|A#2 2F.7 ....
 A#3|..|A#1 2A.F ....|R-- .... ....|R-- .... ....
....|..|C-4 CF.F ....|--- .... ....|A#2 2F.F ....
....|..|C-3 RF.F ....|--- .... ....|A#1 2F.7 ....
 A#3|..|A#1 2A.F ....|--- .... ....|R-- .... ....
....|..|C-4 AF.F ....|C#5 UFFF ....|A#1 2F.F ....
....|..|C-4 CF.F ....|--- .... ....|A#2 2F.F ....
....|..|A#1 2F.7 ....|--- .... ....|R-- .... ....
....|..|C-4 AF.F ....|A#4 UFFA ....|A#1 2F.7 ....
....|..|C-4 CF.F ....|R-- .... ....|A#1 2F.F ....
 A#3|..|A#1 2A.F ....|R-- .... ....|R-- .... ....
....|..|C-4 CF.F ....|D#5 UFFF ....|A#2 2F.F ....
....|..|C-4 LF.F ....|--- .... ....|R-- .... ....
 A#3|..|A#1 2A.F ....|R-- .... ....|R-- .... ....
....|..|C-4 CF.F ....|C#5 UFFF ....|A#1 2F.F ....
....|..|C-3 RF.F ....|--- .... ....|A#2 2F.A ....
 A#3|..|A#1 2A.F ....|--- .... ....|R-- .... ....
....|..|B-8 JF.F ....|A#4 UFF7 ....|A#2 2F.F ....
....|..|C-4 CF.F ....|R-- .... ....|A#1 2F.A ....
 G#3|..|G#1 2A.F ....|--- .... ....|R-- .... ....
....|..|C-4 AF.F ....|D#5 UFFA ....|A#1 2F.F ....
....|..|C-3 RF.F ....|--- .... ....|R-- .... ....
 A#3|..|A#1 2A.F ....|R-- .... ....|R-- .... ....
....|..|C-4 CF.F ....|D#5 UFFF ....|A#2 2F.F ....
....|..|C-4 AF.F ....|--- .... ....|A#2 2F.7 ....
 A#3|..|A#1 2A.F ....|--- .... ....|R-- .... ....
....|..|C-4 CF.F ....|F-5 UFFF ....|A#2 2F.F ....
....|..|C-3 RF.F ....|R-- .... ....|A#1 2F.7 ....
 A#3|..|A#1 2A.F ....|--- .... ....|R-- .... ....
....|..|C-4 AF.F ....|C#5 UFFF ....|A#1 2F.F ....
....|..|C-4 CF.F ....|R-- .... ....|A#2 2F.F ....
....|..|A#1 2F.7 ....|R-- .... ....|R-- .... ....
....|..|C-4 AF.F ....|A#4 UFFF ....|A#1 2F.7 ....
....|..|C-4 CF.F ....|--- .... ....|A#1 2F.F ....
 A#3|..|A#1 2A.F ....|--- .... ....|R-- .... ....
....|..|C-4 CF.F ....|F-5 UFFA ....|A#2 2F.F ....
....|..|C-4 AF.F ....|R-- .... ....|R-- .... ....
 A#3|..|A#1 2A.F ....|--- .... ....|R-- .... ....
....|..|C-4 CF.F ....|C#5 UFFA ....|A#1 2F.F ....
....|..|C-3 RF.F ....|R-- .... ....|A#2 2F.A ....
 A#3|..|A#1 2A.F ....|--- .... ....|R-- .... ....
....|..|B-8 JF.F ....|D#5 UFF7 ....|A#2 2F.F ....
....|..|C-4 CF.F ....|--- .... ....|A#1 2F.A ....
 A#3|..|A#1 2A.F ....|--- .... ....|R-- .... ....

[Pattern13]
....|..|C-4 AF.F ....|A#4 UFFF ....|A#3 2F6F ....
....|..|C-4 CF.F ....|--- .... ....|R-- .... ....
 F#3|..|F#1 2A.F ....|R-- .... ....|R-- .... ....
....|..|C-4 CF.F ....|C#5 UFF7 ....|C#4 2F.F ....
....|..|C-4 AF.F ....|R-- .... ....|A#2 2F.7 ....
 F#3|..|F#1 2A.F ....|--- .... ....|R-- .... ....
....|..|C-4 CF.F ....|A#4 UFFF ....|C#4 2F.F ....
....|..|C-3 RF.F ....|--- .... ....|A#1 2F.7 ....
 F#3|..|F#1 2A.F ....|R-- .... ....|R-- .... ....
....|..|C-4 AF.F ....|C#5 UFFF ....|F#2 2F.F ....
....|..|C-4 CF.F ....|--- .... ....|C#4 2F.F ....
....|..|A#1 2F.7 ....|R-- .... ....|C#4 2F.F ....
....|..|C-4 AF.F ....|R-- .... ....|A#1 2F.7 ....
....|..|C-4 CF.F ....|--- .... ....|F#2 2F.F ....
 F#3|..|F#1 2A.F ....|R-- .... ....|R-- .... ....
....|..|C-4 CF.F ....|F-5 UFFF ....|C#4 2F.F ....
....|..|C-4 LF.F ....|--- .... ....|--- .... ....
 F#3|..|F#1 2A.F ....|R-- .... ....|R-- .... ....
....|..|C-4 CF.F ....|A#4 UFF7 ....|A#3 2F67 ....
....|..|C-3 RF.F ....|--- .... ....|F#2 2F.F ....
 F#3|..|F#1 2A.F ....|R-- .... ....|C#4 2F.A ....
....|..|B-8 JF.F ....|--- .... ....|C#4 2F.F ....
....|..|C-4 CF.F ....|--- .... ....|F#2 2F.A ....
 F#3|..|F#1 2A.F ....|R-- .... ....|R-- .... ....
....|..|C-4 AF.F ....|A#4 UFFF ....|F#2 2F.F ....
....|..|C-3 RF.F ....|R-- .... ....|--- .... ....
 F#3|..|F#1 2A.F ....|R-- .... ....|R-- .... ....
....|..|C-4 CF.F ....|G#4 UFFF ....|C#4 2F.F ....
....|..|C-4 AF.F ....|--- .... ....|C#4 2F.7 ....
 F#3|..|F#1 2A.F ....|--- .... ....|C#4 2F.7 ....
....|..|C-4 CF.F ....|R-- .... ....|C#4 2F.F ....
....|..|C-3 RF.F ....|A#4 UFFF ....|F#2 2F.7 ....
 F#3|..|F#1 2A.F ....|R-- .... ....|R-- .... ....
....|..|C-4 AF.F ....|F-5 UFF7 ....|F#2 2F.F ....
....|..|C-4 CF.F ....|C#5 UFFF ....|C#4 2F.F ....
....|..|F#1 2F.7 ....|--- .... ....|C#4 2F.F ....
....|..|C-4 AF.F ....|G#4 UFFA ....|C#4 2F.A ....
....|..|C-4 CF.F ....|--- .... ....|F#2 2F.F ....
 F#3|..|F#1 2A.F ....|--- .... ....|R-- .... ....
....|..|C-4 CF.F ....|R-- .... ....|C#4 2F.F ....
....|..|C-4 AF.F ....|A#4 UFFA ....|--- .... ....
 F#3|..|F#1 2A.F ....|R-- .... ....|R-- .... ....
....|..|C-4 CF.F ....|A#4 UFF7 ....|F#2 2F.7 ....
....|..|C-3 RF.F ....|C#5 UFFA ....|F#2 2F.F ....
 F#3|..|F#1 2A.F ....|--- .... ....|C#4 2F.A ....
....|..|B-8 JF.F ....|G#4 UFF7 ....|C#4 2F.F ....
....|..|C-4 CF.F ....|--- .... ....|F#2 2F.A ....
 F#3|..|F#1 2A.F ....|--- .... ....|R-- .... ....
....|..|C-4 AF.F ....|R-- .... ....|G#3 2F5F ....
....|..|C-4 CF.F ....|A#4 UFF7 ....|G#3 2F9F ....
 G#3|..|G#1 2A.F ....|R-- .... ....|R-- .... ....
....|..|C-4 CF.F ....|A#4 UFFF ....|C#4 2F.F ....
....|..|C-4 AF.F ....|C#5 UFF7 ....|G#2 2F.F ....
 G#3|..|G#1 2A.F ....|--- .... ....|C#4 2F.7 ....
....|..|C-4 CF.F ....|--- .... ....|C#4 2F.F ....
....|..|C-3 RF.F ....|R-- .... ....|F#2 2F.7 ....
 G#3|..|G#1 2A.F ....|--- .... ....|C#4 2F.F ....
....|..|C-4 AF.F ....|C#5 UFFF ....|G#2 2F.F ....
....|..|C-4 CF.F ....|R-- .... ....|C#4 2F.F ....
....|..|F#1 2F.7 ....|--- .... ....|--- .... ....
....|..|C-4 AF.F ....|A#4 UFFA ....|C#4 2F.A ....
....|..|C-4 CF.F ....|--- .... ....|G#2 2F.F ....
 G#3|..|G#1 2A.F ....|--- .... ....|R-- .... ....
....|..|C-4 CF.F ....|D#5 UFFF ....|C#4 2F.F ....
....|..|C-4 LF.F ....|C#5 UFFF ....|R-- .... ....
 G#3|..|G#1 2A.F ....|--- .... ....|C#4 2F.A ....
....|..|C-4 CF.F ....|C#5 UFFA ....|C#4 2F.F ....
....|..|C-4 CF.F ....|--- .... ....|C#4 2F.F ....
 G#3|..|G#1 2A.F ....|--- .... ....|--- .... ....
....|..|C-4 LF.F ....|A#4 UFF7 ....|C#4 2F.7 ....
....|..|C-4 LF.F ....|--- .... ....|G#2 2F.7 ....
 G#3|..|G#1 2A.F ....|--- .... ....|R-- .... ....
....|..|C-4 CF.7 ....|D#5 UFFA ....|C#4 2F.7 ....
....|..|C-3 RF.7 ....|C#5 UFFA ....|--- .... ....
....|..|G#1 2F.7 ....|--- .... ....|C#4 2F.7 ....
....|..|C-4 AF.7 ....|D#5 UFFF ....|G#2 2F.7 ....
....|..|C-4 CF.7 ....|--- .... ....|C#4 2F.7 ....
....|..|G#1 2F.A ....|--- .... ....|--- .... ....
....|..|C-4 AF.7 ....|F-5 UFFF ....|R-- .... ....
....|..|C-4 CF.7 ....|--- .... ....|G#2 2F.7 ....
....|..|G#1 2F.7 ....|--- .... ....|R-- .... ....
....|..|C-4 CF.7 ....|C#5 UFFF ....|C#4 2F.7 ....
....|..|C-4 LF.7 ....|C#5 UFF7 ....|--- .... ....
....|..|G#1 2F.7 ....|--- .... ....|--- .... ....
....|..|C-4 CF.7 ....|A#4 UFFF ....|C#4 2F.7 ....
....|..|C-4 CF.7 ....|--- .... ....|C#4 2F.7 ....
....|..|G#1 2F.7 ....|--- .... ....|--- .... ....
....|..|C-4 LF.7 ....|F-5 UFFA ....|R-- .... ....
....|..|C-4 LF.7 ....|--- .... ....|--- .... ....
....|..|G#1 2F.7 ....|--- .... ....|--- .... ....
....|..|R-- .... ....|C#5 UFFA ....|R-- .... ....
....|..|--- .... ....|--- .... ....|--- .... ....
....|..|--- .... ....|--- .... ....|--- .... ....
....|..|--- .... ....|D#5 UFF7 ....|R-- .... ....
....|..|--- .... ....|--- .... ....|--- .... ....
....|..|--- .... ....|--- .... ....|--- .... ....

[Pattern14]
....|..|C-4 AF.F ....|F-5 UFF7 ....|C#6 2F.F ....
....|..|C-4 CF.F ....|--- .... ....|C#6 2F.F ....
 A#3|..|A#1 2A.F ....|--- .... ....|--- .... ....
....|..|C-4 CF.F ....|C#5 UFF7 ....|A#2 2F.F ....
....|..|C-4 AF.F ....|--- .... ....|R-- .... ....
 A#3|..|A#1 2A.F ....|--- .... ....|--- .... ....
....|..|C-4 CF.F ....|A#4 UFF7 ....|A#2 2F.F ....
....|..|C-3 RF.F ....|--- .... ....|--- .... ....
 A#3|..|A#1 2A.F ....|--- .... ....|R-- .... ....
....|..|C-4 AF.F ....|--- .... ....|A#1 2F.F ....
....|..|C-4 CF.F ....|--- .... ....|A#2 2F.F ....
....|..|A#1 2F.A ....|--- .... ....|R-- .... ....
....|..|C-4 AF.F ....|R-- .... ....|A#2 2F.A ....
....|..|C-4 CF.F ....|--- .... ....|A#1 2F.F ....
 A#3|..|A#1 2A.F ....|--- .... ....|R-- .... ....
....|..|C-4 CF.F ....|--- .... ....|A#2 2F.F ....
....|..|C-4 LF.F ....|--- .... ....|R-- .... ....
 A#3|..|A#1 2A.F ....|--- .... ....|R-- .... ....
....|..|C-4 CF.F ....|--- .... ....|A#1 2F.F ....
....|..|C-3 RF.F ....|--- .... ....|C#6 2F.7 ....
 A#3|..|A#1 2A.F ....|--- .... ....|R-- .... ....
....|..|B-8 JF.F ....|--- .... ....|A#2 2F.F ....
....|..|C-4 CF.F ....|--- .... ....|A#1 2F.A ....
 A#3|..|A#1 2A.F ....|--- .... ....|R-- .... ....
....|..|C-4 AF.F ....|--- .... ....|A#1 2F.F ....
....|..|C-3 RF.F ....|--- .... ....|R-- .... ....
 A#3|..|A#1 2A.F ....|--- .... ....|R-- .... ....
....|..|C-4 CF.F ....|--- .... ....|A#2 2F.F ....
....|..|C-4 AF.F ....|--- .... ....|A#2 2F.7 ....
 A#3|..|A#1 2A.F ....|--- .... ....|R-- .... ....
....|..|C-4 CF.F ....|--- .... ....|A#2 2F.F ....
....|..|C-3 RF.F ....|--- .... ....|A#1 2F.7 ....
 A#3|..|A#1 2A.F ....|--- .... ....|R-- .... ....
....|..|C-4 AF.F ....|--- .... ....|A#1 2F.F ....
....|..|C-4 CF.F ....|--- .... ....|A#2 2F.F ....
....|..|A#1 2F.7 ....|--- .... ....|R-- .... ....
....|..|C-4 AF.F ....|--- .... ....|D#6 2F.F ....
....|..|C-4 CF.F ....|--- .... ....|A#1 2F.F ....
 A#3|..|A#1 2A.F ....|--- .... ....|R-- .... ....
....|..|C-4 CF.F ....|--- .... ....|A#2 2F.F ....
....|..|C-4 AF.F ....|--- .... ....|R-- .... ....
 A#3|..|A#1 2A.F ....|--- .... ....|R-- .... ....
....|..|C-4 CF.F ....|--- .... ....|A#1 2F.F ....
....|..|C-3 RF.F ....|--- .... ....|A#2 2F.A ....
 A#3|..|A#1 2A.F ....|--- .... ....|R-- .... ....
....|..|B-8 JF.F ....|--- .... ....|A#2 2F.F ....
....|..|C-4 CF.F ....|--- .... ....|A#1 2F.A ....
 A#3|..|A#1 2A.F ....|--- .... ....|R-- .... ....
....|..|C-4 AF.F ....|--- .... ....|C#3 2F.F ....
....|..|C-4 CF.F ....|--- .... ....|F-6 2F.F ....
 C#4|..|C#2 2A.F ....|--- .... ....|R-- .... ....
....|..|C-4 CF.F ....|--- .... ....|C#4 2F.F ....
....|..|C-4 AF.F ....|--- .... ....|C#3 2F.F ....
 C#4|..|C#2 2A.F ....|--- .... ....|R-- .... ....
....|..|C-4 CF.F ....|--- .... ....|C#4 2F.F ....
....|..|C-3 RF.F ....|--- .... ....|A#1 2F.7 ....
 C#4|..|C#2 2A.F ....|--- .... ....|R-- .... ....
....|..|C-4 AF.F ....|--- .... ....|C#3 2F.F ....
....|..|C-4 CF.F ....|--- .... ....|C#4 2F.F ....
....|..|A#1 2F.7 ....|--- .... ....|C#4 2F.F ....
....|..|C-4 AF.F ....|--- .... ....|A#1 2F.7 ....
....|..|C-4 CF.F ....|--- .... ....|C#3 2F.F ....
 C#4|..|C#2 2A.F ....|--- .... ....|R-- .... ....
....|..|C-4 CF.F ....|--- .... ....|C#4 2F.F ....
....|..|C-4 LF.F ....|--- .... ....|--- .... ....
 C#4|..|C#2 2A.F ....|--- .... ....|R-- .... ....
....|..|C-4 CF.F ....|--- .... ....|C#3 2F.F ....
....|..|C-3 RF.F ....|--- .... ....|F-6 2F.7 ....
 C#4|..|C#2 2A.F ....|--- .... ....|C#4 2F.A ....
....|..|B-8 JF.F ....|--- .... ....|C#4 2F.F ....
....|..|C-4 CF.F ....|--- .... ....|C#3 2F.7 ....
 C#4|..|C#2 2A.F ....|--- .... ....|R-- .... ....
....|..|C-4 AF.F ....|--- .... ....|C#3 2F.F ....
....|..|C-3 RF.F ....|--- .... ....|--- .... ....
 C#4|..|C#2 2A.F ....|--- .... ....|R-- .... ....
....|..|C-4 CF.F ....|--- .... ....|C#4 2F.F ....
....|..|C-4 AF.F ....|--- .... ....|C#4 2F.7 ....
 C#4|..|C#2 2A.F ....|--- .... ....|C#4 2F.7 ....
....|..|C-4 CF.F ....|--- .... ....|C#4 2F.F ....
....|..|C-3 RF.F ....|--- .... ....|C#3 2F.7 ....
 C#4|..|C#2 2A.F ....|--- .... ....|R-- .... ....
....|..|C-4 AF.F ....|--- .... ....|C#3 2F.F ....
....|..|C-4 CF.F ....|--- .... ....|C#4 2F.F ....
....|..|C#2 2F.7 ....|--- .... ....|C#4 2F.F ....
....|..|C-4 AF.F ....|--- .... ....|F-6 2F.F ....
....|..|C-4 CF.F ....|--- .... ....|C#3 2F.F ....
 C#4|..|C#2 2A.F ....|--- .... ....|R-- .... ....
....|..|C-4 CF.F ....|--- .... ....|C#4 2F.F ....
....|..|C-4 AF.F ....|--- .... ....|R-- .... ....
 C#4|..|C#2 2A.F ....|--- .... ....|C#4 2F.F ....
....|..|C-4 CF.F ....|--- .... ....|C#3 2F.F ....
....|..|C-3 RF.F ....|--- .... ....|C#4 2F.A ....
 C#4|..|C#2 2A.F ....|--- .... ....|C#4 2F.A ....
....|..|B-8 JF.F ....|--- .... ....|C#4 2F.F ....
....|..|C-4 CF.F ....|--- .... ....|D#5 2F.F ....
 C#4|..|C#2 2A.F ....|--- .... ....|R-- .... ....

[Pattern15]
....|..|C-4 AF.F ....|--- .... ....|D#3 2F.F ....
....|..|C-4 CF.F ....|--- .... ....|F#5 2F.F ....
 D#4|..|D#2 2A.F ....|--- .... ....|C#4 2F.A ....
....|..|C-4 CF.F ....|--- .... ....|D#4 2F.F ....
....|..|C-4 AF.F ....|--- .... ....|D#3 2F.F ....
 D#4|..|D#2 2A.F ....|--- .... ....|C#4 2F.7 ....
....|..|C-4 CF.F ....|--- .... ....|D#4 2F.F ....
....|..|C-3 RF.F ....|--- .... ....|C#3 2F.7 ....
 D#4|..|D#2 2A.F ....|--- .... ....|R-- .... ....
....|..|C-4 AF.F ....|--- .... ....|D#3 2F.F ....
....|..|C-4 CF.F ....|--- .... ....|D#4 2F.F ....
....|..|C#2 2F.7 ....|--- .... ....|D#4 2F.F ....
....|..|C-4 AF.F ....|--- .... ....|C#3 2F.7 ....
....|..|C-4 CF.F ....|--- .... ....|D#3 2F.F ....
 D#4|..|D#2 2A.F ....|--- .... ....|R-- .... ....
....|..|C-4 CF.F ....|--- .... ....|D#4 2F.F ....
....|..|C-4 LF.F ....|--- .... ....|D#5 2F.7 ....
 D#4|..|D#2 2A.F ....|--- .... ....|R-- .... ....
....|..|C-4 CF.F ....|--- .... ....|D#3 2F.F ....
....|..|C-3 RF.F ....|--- .... ....|F#5 2F.7 ....
 D#4|..|D#2 2A.F ....|--- .... ....|D#4 2F.A ....
....|..|B-8 JF.F ....|--- .... ....|D#4 2F.F ....
....|..|C-4 CF.F ....|--- .... ....|D#3 2F.7 ....
 D#4|..|D#2 2A.F ....|--- .... ....|R-- .... ....
....|..|C-4 AF.F ....|--- .... ....|D#3 2F.F ....
....|..|C-3 RF.F ....|--- .... ....|--- .... ....
 D#4|..|D#2 2A.F ....|--- .... ....|R-- .... ....
....|..|C-4 CF.F ....|--- .... ....|D#4 2F.F ....
....|..|C-4 AF.F ....|--- .... ....|D#4 2F.7 ....
 D#4|..|D#2 2A.F ....|--- .... ....|D#4 2F.7 ....
....|..|C-4 CF.F ....|--- .... ....|D#4 2F.F ....
....|..|C-3 RF.F ....|--- .... ....|D#3 2F.7 ....
 D#4|..|D#2 2A.F ....|--- .... ....|R-- .... ....
....|..|C-4 AF.F ....|--- .... ....|D#3 2F.F ....
....|..|C-4 CF.F ....|--- .... ....|D#4 2F.F ....
....|..|D#2 2F.7 ....|--- .... ....|D#4 2F.F ....
....|..|C-4 AF.F ....|--- .... ....|D#3 2F.7 ....
....|..|C-4 CF.F ....|--- .... ....|D#3 2F.F ....
 D#4|..|D#2 2A.F ....|--- .... ....|R-- .... ....
....|..|C-4 CF.F ....|--- .... ....|D#4 2F.F ....
....|..|C-4 AF.F ....|--- .... ....|R-- .... ....
 D#4|..|D#2 2A.F ....|--- .... ....|D#4 2F.F ....
....|..|C-4 CF.F ....|--- .... ....|D#3 2F.F ....
....|..|C-3 RF.F ....|--- .... ....|D#4 2F.A ....
 D#4|..|D#2 2A.F ....|--- .... ....|D#4 2F.A ....
....|..|B-8 JF.F ....|--- .... ....|F-5 2F.F ....
....|..|C-4 CF.F ....|--- .... ....|F-6 2F.F ....
 D#4|..|D#2 2A.F ....|--- .... ....|R-- .... ....
....|..|C-4 AF.F ....|--- .... ....|F#2 2F.F ....
....|..|C-4 CF.F ....|--- .... ....|F#5 2F.F ....
 F#4|..|F#2 2A.F ....|--- .... ....|D#4 2F.A ....
....|..|C-4 CF.F ....|--- .... ....|C#4 2F.F ....
....|..|C-4 AF.F ....|--- .... ....|F#2 2F.F ....
 F#4|..|F#2 2A.F ....|--- .... ....|D#4 2F.7 ....
....|..|C-4 CF.F ....|--- .... ....|C#4 2F.F ....
....|..|C-3 RF.F ....|--- .... ....|D#3 2F.7 ....
 F#4|..|F#2 2A.F ....|--- .... ....|R-- .... ....
....|..|C-4 AF.F ....|--- .... ....|F#2 2F.F ....
....|..|C-4 CF.F ....|--- .... ....|C#4 2F.F ....
....|..|D#2 2F.7 ....|--- .... ....|C#4 2F.F ....
....|..|C-4 AF.F ....|--- .... ....|D#3 2F.7 ....
....|..|C-4 CF.F ....|--- .... ....|C#4 2F.F ....
 F#4|..|F#2 2A.F ....|--- .... ....|R-- .... ....
....|..|C-4 CF.F ....|--- .... ....|C#4 2F.F ....
....|..|C-4 LF.F ....|--- .... ....|F-6 2F.7 ....
 F#4|..|F#2 2A.F ....|--- .... ....|R-- .... ....
....|..|C-4 CF.F ....|--- .... ....|C#4 2F.F ....
....|..|C-3 RF.F ....|--- .... ....|F#5 2F.7 ....
 F#4|..|F#2 2A.F ....|--- .... ....|C#4 2F.F ....
....|..|B-8 JF.F ....|--- .... ....|F#2 2F.F ....
....|..|C-4 CF.F ....|--- .... ....|C#4 2F.F ....
 F#4|..|F#2 2A.F ....|--- .... ....|--- .... ....
....|..|C-4 AF.F ....|--- .... ....|C#4 2F.7 ....
....|..|C-3 RF.F ....|--- .... ....|F#2 2F.F ....
 F#4|..|F#2 2A.F ....|--- .... ....|R-- .... ....
....|..|C-4 CF.F ....|--- .... ....|C#4 2F.F ....
....|..|C-4 AF.F ....|--- .... ....|C#4 2F.7 ....
 F#4|..|F#2 2A.F ....|--- .... ....|C#4 2F.7 ....
....|..|C-4 CF.F ....|--- .... ....|F#2 2F.F ....
....|..|C-3 RF.F ....|--- .... ....|C#4 2F.F ....
 F#4|..|F#2 2A.F ....|--- .... ....|--- .... ....
....|..|C-4 AF.F ....|--- .... ....|C#4 2F.7 ....
....|..|C-4 CF.F ....|--- .... ....|F#2 2F.F ....
....|..|F#2 2F.7 ....|--- .... ....|R-- .... ....
....|..|C-4 AF.F ....|--- .... ....|G#5 2F.F ....
....|..|C-4 CF.F ....|--- .... ....|G#6 2F.F ....
 F#4|..|F#2 2A.F ....|--- .... ....|C#4 2F.7 ....
....|..|C-4 CF.F ....|--- .... ....|C#4 2F.F ....
....|..|C-4 AF.F ....|--- .... ....|C#4 2F.7 ....
 F#4|..|F#2 2A.F ....|--- .... ....|R-- .... ....
....|..|C-4 CF.F ....|--- .... ....|C#4 2F.F ....
....|..|C-3 RF.F ....|--- .... ....|F#2 2F.7 ....
 F#4|..|F#2 2A.F ....|--- .... ....|R-- .... ....
....|..|B-8 JF.F ....|--- .... ....|C#4 2F.F ....
....|..|C-4 CF.F ....|--- .... ....|G#6 2F.A ....
 F#4|..|F#2 2A.F ....|--- .... ....|R-- .... ....

[Pattern16]
....|..|C-4 AF.F ....|--- .... ....|C#6 2F.F ....
....|..|C-4 CF.F ....|--- .... ....|C#6 2F.F ....
 A#3|..|A#1 2A.F ....|--- .... ....|R-- .... ....
....|..|C-4 CF.F ....|--- .... ....|A#2 2F.F ....
....|..|C-4 AF.F ....|--- .... ....|F#2 2F.7 ....
 A#3|..|A#1 2A.F ....|--- .... ....|R-- .... ....
....|..|C-4 CF.F ....|--- .... ....|A#2 2F.F ....
....|..|C-3 RF.F ....|--- .... ....|G#6 2F.7 ....
 A#3|..|A#1 2A.F ....|--- .... ....|R-- .... ....
....|..|C-4 AF.F ....|--- .... ....|A#1 2F.F ....
....|..|C-4 CF.F ....|--- .... ....|A#2 2F.F ....
....|..|F#2 2F.7 ....|--- .... ....|R-- .... ....
....|..|C-4 AF.F ....|--- .... ....|C#4 2F.7 ....
....|..|C-4 CF.F ....|--- .... ....|A#1 2F.F ....
 A#3|..|A#1 2A.F ....|--- .... ....|R-- .... ....
....|..|C-4 CF.F ....|--- .... ....|A#2 2F.F ....
....|..|C-4 LF.F ....|--- .... ....|R-- .... ....
 A#3|..|A#1 2A.F ....|--- .... ....|R-- .... ....
....|..|C-4 CF.F ....|--- .... ....|A#1 2F.F ....
....|..|C-3 RF.F ....|--- .... ....|C#6 2F.7 ....
 A#3|..|A#1 2A.F ....|--- .... ....|R-- .... ....
....|..|B-8 JF.F ....|--- .... ....|A#2 2F.F ....
....|..|C-4 CF.F ....|--- .... ....|A#1 2F.A ....
 A#3|..|A#1 2A.F ....|--- .... ....|R-- .... ....
....|..|C-4 AF.F ....|--- .... ....|A#1 2F.F ....
....|..|C-3 RF.F ....|--- .... ....|R-- .... ....
 A#3|..|A#1 2A.F ....|--- .... ....|R-- .... ....
....|..|C-4 CF.F ....|--- .... ....|A#2 2F.F ....
....|..|C-4 AF.F ....|--- .... ....|A#2 2F.7 ....
 A#3|..|A#1 2A.F ....|--- .... ....|R-- .... ....
....|..|C-4 CF.F ....|--- .... ....|A#2 2F.F ....
....|..|C-3 RF.F ....|--- .... ....|A#1 2F.7 ....
 A#3|..|A#1 2A.F ....|--- .... ....|R-- .... ....
....|..|C-4 AF.F ....|--- .... ....|A#1 2F.F ....
....|..|C-4 CF.F ....|--- .... ....|A#2 2F.F ....
....|..|A#1 2F.7 ....|--- .... ....|R-- .... ....
....|..|C-4 AF.F ....|--- .... ....|D#6 2F.F ....
....|..|C-4 CF.F ....|--- .... ....|A#1 2F.F ....
 A#3|..|A#1 2A.F ....|--- .... ....|R-- .... ....
....|..|C-4 CF.F ....|--- .... ....|A#2 2F.F ....
....|..|C-4 AF.F ....|--- .... ....|R-- .... ....
 A#3|..|A#1 2A.F ....|--- .... ....|R-- .... ....
....|..|C-4 CF.F ....|--- .... ....|A#1 2F.F ....
....|..|C-3 RF.F ....|--- .... ....|A#2 2F.A ....
 A#3|..|A#1 2A.F ....|--- .... ....|R-- .... ....
....|..|B-8 JF.F ....|--- .... ....|A#2 2F.F ....
....|..|C-4 CF.F ....|--- .... ....|A#1 2F.A ....
 A#3|..|A#1 2A.F ....|--- .... ....|R-- .... ....
....|..|C-4 AF.F ....|--- .... ....|C#3 2F.F ....
....|..|C-4 CF.F ....|--- .... ....|F-6 2F.F ....
 C#4|..|C#2 2A.F ....|--- .... ....|R-- .... ....
....|..|C-4 CF.F ....|--- .... ....|C#4 2F.F ....
....|..|C-4 AF.F ....|--- .... ....|C#3 2F.F ....
 C#4|..|C#2 2A.F ....|--- .... ....|R-- .... ....
....|..|C-4 CF.F ....|--- .... ....|C#4 2F.F ....
....|..|C-3 RF.F ....|--- .... ....|A#1 2F.7 ....
 C#4|..|C#2 2A.F ....|--- .... ....|R-- .... ....
....|..|C-4 AF.F ....|--- .... ....|C#3 2F.F ....
....|..|C-4 CF.F ....|--- .... ....|C#4 2F.F ....
....|..|A#1 2F.7 ....|--- .... ....|C#4 2F.F ....
....|..|C-4 AF.F ....|--- .... ....|A#1 2F.7 ....
....|..|C-4 CF.F ....|--- .... ....|C#3 2F.F ....
 C#4|..|C#2 2A.F ....|--- .... ....|R-- .... ....
....|..|C-4 CF.F ....|--- .... ....|C#4 2F.F ....
....|..|C-4 LF.F ....|--- .... ....|--- .... ....
 C#4|..|C#2 2A.F ....|--- .... ....|R-- .... ....
....|..|C-4 CF.F ....|--- .... ....|C#3 2F.F ....
....|..|C-3 RF.F ....|--- .... ....|F-6 2F.7 ....
 C#4|..|C#2 2A.F ....|--- .... ....|C#4 2F.A ....
....|..|B-8 JF.F ....|--- .... ....|C#4 2F.F ....
....|..|C-4 CF.F ....|--- .... ....|C#3 2F.7 ....
 C#4|..|C#2 2A.F ....|--- .... ....|R-- .... ....
....|..|C-4 AF.F ....|--- .... ....|C#3 2F.F ....
....|..|C-3 RF.F ....|--- .... ....|--- .... ....
 C#4|..|C#2 2A.F ....|--- .... ....|R-- .... ....
....|..|C-4 CF.F ....|--- .... ....|C#4 2F.F ....
....|..|C-4 AF.F ....|--- .... ....|C#4 2F.7 ....
 C#4|..|C#2 2A.F ....|--- .... ....|C#4 2F.7 ....
....|..|C-4 CF.F ....|--- .... ....|C#4 2F.F ....
....|..|C-3 RF.F ....|--- .... ....|C#3 2F.7 ....
 C#4|..|C#2 2A.F ....|--- .... ....|R-- .... ....
....|..|C-4 AF.F ....|--- .... ....|C#3 2F.F ....
....|..|C-4 CF.F ....|--- .... ....|C#4 2F.F ....
....|..|C#2 2F.7 ....|--- .... ....|C#4 2F.F ....
....|..|C-4 AF.F ....|--- .... ....|F-6 2F.F ....
....|..|C-4 CF.F ....|--- .... ....|C#3 2F.F ....
 C#4|..|C#2 2A.F ....|--- .... ....|R-- .... ....
....|..|C-4 CF.F ....|--- .... ....|C#4 2F.F ....
....|..|C-4 AF.F ....|--- .... ....|R-- .... ....
 C#4|..|C#2 2A.F ....|--- .... ....|C#4 2F.F ....
....|..|C-4 CF.F ....|--- .... ....|C#3 2F.F ....
....|..|C-3 RF.F ....|--- .... ....|C#4 2F.A ....
 C#4|..|C#2 2A.F ....|--- .... ....|C#4 2F.A ....
....|..|B-8 JF.F ....|--- .... ....|C#4 2F.F ....
....|..|C-4 CF.F ....|--- .... ....|D#5 2F.F ....
 C#4|..|C#2 2A.F ....|--- .... ....|R-- .... ....

[Pattern17]
....|..|C-4 AF.F ....|--- .... ....|D#3 2F.F ....
....|..|C-4 CF.F ....|--- .... ....|F#5 2F.F ....
 D#4|..|D#2 2A.F ....|--- .... ....|C#4 2F.A ....
....|..|C-4 CF.F ....|--- .... ....|D#4 2F.F ....
....|..|C-4 AF.F ....|--- .... ....|D#3 2F.F ....
 D#4|..|D#2 2A.F ....|--- .... ....|C#4 2F.7 ....
....|..|C-4 CF.F ....|--- .... ....|D#4 2F.F ....
....|..|C-3 RF.F ....|--- .... ....|C#3 2F.7 ....
 D#4|..|D#2 2A.F ....|--- .... ....|R-- .... ....
....|..|C-4 AF.F ....|--- .... ....|D#3 2F.F ....
....|..|C-4 CF.F ....|--- .... ....|D#4 2F.F ....
....|..|C#2 2F.7 ....|--- .... ....|D#4 2F.F ....
....|..|C-4 AF.F ....|--- .... ....|C#3 2F.7 ....
....|..|C-4 CF.F ....|--- .... ....|D#3 2F.F ....
 D#4|..|D#2 2A.F ....|--- .... ....|R-- .... ....
....|..|C-4 CF.F ....|--- .... ....|D#4 2F.F ....
....|..|C-4 LF.F ....|--- .... ....|D#5 2F.7 ....
 D#4|..|D#2 2A.F ....|--- .... ....|R-- .... ....
....|..|C-4 CF.F ....|--- .... ....|D#3 2F.F ....
....|..|C-3 RF.F ....|--- .... ....|F#5 2F.7 ....
 D#4|..|D#2 2A.F ....|--- .... ....|D#4 2F.A ....
....|..|B-8 JF.F ....|--- .... ....|D#4 2F.F ....
....|..|C-4 CF.F ....|--- .... ....|D#3 2F.7 ....
 D#4|..|D#2 2A.F ....|--- .... ....|R-- .... ....
....|..|C-4 AF.F ....|--- .... ....|D#3 2F.F ....
....|..|C-3 RF.F ....|--- .... ....|--- .... ....
 D#4|..|D#2 2A.F ....|--- .... ....|R-- .... ....
....|..|C-4 CF.F ....|--- .... ....|D#4 2F.F ....
....|..|C-4 AF.F ....|--- .... ....|D#4 2F.7 ....
 D#4|..|D#2 2A.F ....|--- .... ....|D#4 2F.7 ....
....|..|C-4 CF.F ....|--- .... ....|D#4 2F.F ....
....|..|C-3 RF.F ....|--- .... ....|D#3 2F.7 ....
 D#4|..|D#2 2A.F ....|--- .... ....|R-- .... ....
....|..|C-4 AF.F ....|--- .... ....|D#3 2F.F ....
....|..|C-4 CF.F ....|--- .... ....|D#4 2F.F ....
....|..|D#2 2F.7 ....|--- .... ....|D#4 2F.F ....
....|..|C-4 AF.F ....|--- .... ....|D#3 2F.7 ....
....|..|C-4 CF.F ....|--- .... ....|D#3 2F.F ....
 D#4|..|D#2 2A.F ....|--- .... ....|R-- .... ....
....|..|C-4 CF.F ....|C#5 2F.F ....|D#4 2F.F ....
....|..|C-4 AF.F ....|--- .... ....|R-- .... ....
 D#4|..|D#2 2A.F ....|R-- .... ....|D#4 2F.F ....
....|..|C-4 CF.F ....|--- .... ....|D#3 2F.F ....
....|..|C-3 RF.F ....|D#5 2F.F ....|D#4 2F.A ....
 D#4|..|D#2 2A.F ....|--- .... ....|D#4 2F.A ....
....|..|B-8 JF.F ....|--- .... ....|F-5 2F.F ....
....|..|C-4 CF.F ....|--- .... ....|F-6 2F.F ....
 D#4|..|D#2 2A.F ....|R-- .... ....|R-- .... ....
....|..|C-4 AF.F ....|C#5 2F.F ....|F#2 2F.F ....
....|..|C-4 CF.F ....|--- .... ....|F#5 2F.F ....
 F#4|..|F#2 2A.F ....|R-- .... ....|D#4 2F.A ....
....|..|C-4 CF.F ....|--- .... ....|C#4 2F.F ....
....|..|C-4 AF.F ....|D#5 2F.A ....|F#2 2F.F ....
 F#4|..|F#2 2A.F ....|--- .... ....|D#4 2F.7 ....
....|..|C-4 CF.F ....|--- .... ....|C#4 2F.F ....
....|..|C-3 RF.F ....|--- .... ....|D#3 2F.7 ....
 F#4|..|F#2 2A.F ....|R-- .... ....|R-- .... ....
....|..|C-4 AF.F ....|C#5 2F.7 ....|F#2 2F.F ....
....|..|C-4 CF.F ....|--- .... ....|C#4 2F.F ....
....|..|D#2 2F.7 ....|R-- .... ....|C#4 2F.F ....
....|..|C-4 AF.F ....|R-- .... ....|D#3 2F.7 ....
....|..|C-4 CF.F ....|D#5 2F.7 ....|C#4 2F.F ....
 F#4|..|F#2 2A.F ....|--- .... ....|R-- .... ....
....|..|C-4 CF.F ....|--- .... ....|C#4 2F.F ....
....|..|C-4 LF.F ....|--- .... ....|F-6 2F.7 ....
 F#4|..|F#2 2A.F ....|R-- .... ....|R-- .... ....
....|..|C-4 CF.F ....|C#5 2F.7 ....|C#4 2F.F ....
....|..|C-3 RF.F ....|--- .... ....|F#5 2F.7 ....
 F#4|..|F#2 2A.F ....|--- .... ....|C#4 2F.F ....
....|..|B-8 JF.F ....|R-- .... ....|F#2 2F.F ....
....|..|C-4 CF.F ....|--- .... ....|C#4 2F.F ....
 F#4|..|F#2 2A.F ....|--- .... ....|--- .... ....
....|..|C-4 AF.F ....|C#5 2F.F ....|C#4 2F.7 ....
....|..|C-3 RF.F ....|R-- .... ....|F#2 2F.F ....
 F#4|..|F#2 2A.F ....|--- .... ....|R-- .... ....
....|..|C-4 CF.F ....|--- .... ....|C#4 2F.F ....
....|..|C-4 AF.F ....|--- .... ....|C#4 2F.7 ....
 F#4|..|F#2 2A.F ....|--- .... ....|C#4 2F.7 ....
....|..|C-4 CF.F ....|C#5 2F.F ....|F#2 2F.F ....
....|..|C-3 RF.F ....|R-- .... ....|C#4 2F.F ....
 F#4|..|F#2 2A.F ....|--- .... ....|--- .... ....
....|..|C-4 AF.F ....|C#5 2F.A ....|C#4 2F.7 ....
....|..|C-4 CF.F ....|R-- .... ....|F#2 2F.F ....
....|..|F#2 2F.7 ....|--- .... ....|R-- .... ....
....|..|C-4 AF.F ....|C#5 2F.F ....|G#5 2F.F ....
....|..|C-4 CF.F ....|R-- .... ....|G#6 2F.F ....
 F#4|..|F#2 2A.F ....|--- .... ....|C#4 2F.7 ....
....|..|C-4 CF.F ....|C#5 2F.A ....|C#4 2F.F ....
....|..|C-4 AF.F ....|R-- .... ....|C#4 2F.7 ....
 F#4|..|F#2 2A.F ....|--- .... ....|R-- .... ....
....|..|C-4 CF.F ....|C#5 2F.F ....|C#4 2F.F ....
....|..|C-3 RF.F ....|R-- .... ....|F#2 2F.7 ....
 F#4|..|F#2 2A.F ....|--- .... ....|R-- .... ....
....|..|B-8 JF.F ....|C#5 2F.A ....|C#4 2F.F ....
....|..|C-4 LF.F ....|R-- .... ....|G#6 2F.A ....
 F#4|..|F#2 2A.F ....|--- .... ....|R-- .... ....

[Pattern18]
....|..|C-4 CF.7 ....|F-5 UFFF ....|C#4 2F.F ....
....|..|C-3 RF.7 ....|R-- .... ....|C#4 2F.7 ....
....|..|F#2 2F.7 ....|--- .... ....|R-- .... ....
....|..|C-4 AF.7 ....|C#5 2F.A ....|C#4 2F.A ....
....|..|C-4 CF.7 ....|R-- .... ....|F#2 2F.7 ....
....|..|F#2 2F.A ....|--- .... ....|R-- .... ....
....|..|C-4 AF.7 ....|C#5 2F.7 ....|G#5 2F.7 ....
....|..|C-4 CF.7 ....|R-- .... ....|G#6 2F.7 ....
....|..|F#2 2F.7 ....|R-- .... ....|R-- .... ....
....|..|C-4 CF.7 ....|F-5 UFFF ....|C#4 2F.7 ....
....|..|C-4 AF.7 ....|F-5 UFFF ....|--- .... ....
....|..|F#2 2F.7 ....|--- .... ....|R-- .... ....
....|..|C-4 CF.7 ....|C#5 2F.7 ....|C#4 2F.7 ....
....|..|C-3 RF.7 ....|R-- .... ....|--- .... ....
....|..|F#2 2F.7 ....|R-- .... ....|R-- .... ....
....|..|B-8 JF.7 ....|D#5 UFFF ....|C#4 2F.7 ....
....|..|C-4 LF.7 ....|--- .... ....|--- .... ....
....|..|F#2 2F.7 ....|R-- .... ....|--- .... ....
....|..|R-- .... ....|F-5 UFF7 ....|C#4 2F.7 ....
....|..|--- .... ....|A#4 UFFF ....|--- .... ....
....|..|--- .... ....|--- .... ....|--- .... ....
....|..|--- .... ....|--- .... ....|--- .... ....
....|..|--- .... ....|R-- .... ....|R-- .... ....
....|..|--- .... ....|R-- .... ....|--- .... ....
....|..|--- .... ....|C#5 UFFF ....|C#4 2F.F ....
....|..|--- .... ....|--- .... ....|--- .... ....
....|..|--- .... ....|R-- .... ....|--- .... ....
....|..|--- .... ....|D#5 UFFF ....|--- .... ....
....|..|--- .... ....|F-5 UFF7 ....|--- .... ....
....|..|--- .... ....|--- .... ....|--- .... ....
....|..|--- .... ....|F-5 UFFF ....|--- .... ....
....|..|--- .... ....|R-- .... ....|R-- .... ....
....|..|--- .... ....|R-- .... ....|--- .... ....
....|..|--- .... ....|C#5 UFFF ....|C#4 2F.A ....
....|..|--- .... ....|--- .... ....|--- .... ....
....|..|--- .... ....|R-- .... ....|--- .... ....
....|..|--- .... ....|D#5 UFFA ....|--- .... ....
....|..|--- .... ....|A#4 UFF7 ....|--- .... ....
....|..|--- .... ....|--- .... ....|--- .... ....
....|..|--- .... ....|F-5 UFFA ....|--- .... ....
....|..|--- .... ....|R-- .... ....|R-- .... ....
....|..|--- .... ....|R-- .... ....|--- .... ....
....|..|--- .... ....|C#5 UFF7 ....|C#4 2F.7 ....
....|..|--- .... ....|R-- .... ....|--- .... ....
....|..|--- .... ....|R-- .... ....|--- .... ....
....|..|--- .... ....|D#5 UFF7 ....|--- .... ....
....|..|--- .... ....|R-- .... ....|R-- .... ....
....|..|--- .... ....|--- .... ....|--- .... ....
....|..|--- .... ....|F-5 UFFF ....|D#4 2F.F ....
....|..|--- .... ....|--- .... ....|--- .... ....
....|..|--- .... ....|R-- .... ....|--- .... ....
....|..|--- .... ....|C#5 UFF7 ....|--- .... ....
....|..|--- .... ....|R-- .... ....|--- .... ....
....|..|--- .... ....|--- .... ....|--- .... ....
....|..|--- .... ....|--- .... ....|--- .... ....
....|..|--- .... ....|--- .... ....|R-- .... ....
....|..|--- .... ....|R-- .... ....|--- .... ....
....|..|--- .... ....|D-5 UFFF ....|D#4 2F.A ....
....|..|--- .... ....|D#5 UFFF ....|--- .... ....
....|..|--- .... ....|--- .... ....|--- .... ....
....|..|--- .... ....|--- .... ....|--- .... ....
....|..|--- .... ....|R-- .... ....|--- .... ....
....|..|--- .... ....|--- .... ....|--- .... ....
....|..|--- .... ....|R-- .... ....|--- .... ....
....|..|--- .... ....|A#4 UFFF ....|R-- .... ....
....|..|--- .... ....|R-- .... ....|--- .... ....
....|..|--- .... ....|F-5 UFF7 ....|D#4 2F.7 ....
....|..|--- .... ....|D#5 UFFA ....|--- .... ....
....|..|--- .... ....|--- .... ....|--- .... ....
....|..|--- .... ....|--- .... ....|--- .... ....
....|..|--- .... ....|R-- .... ....|--- .... ....
....|..|--- .... ....|--- .... ....|R-- .... ....
....|..|--- .... ....|C#5 UFFF ....|D#4 2F.F ....
....|..|--- .... ....|A#4 UFFA ....|--- .... ....
....|..|--- .... ....|R-- .... ....|--- .... ....
....|..|--- .... ....|D#5 UFFF ....|--- .... ....
....|..|--- .... ....|D#5 UFF7 ....|--- .... ....
....|..|--- .... ....|R-- .... ....|--- .... ....
....|..|--- .... ....|C#5 UFFF ....|--- .... ....
....|..|--- .... ....|R-- .... ....|--- .... ....
....|..|--- .... ....|--- .... ....|R-- .... ....
....|..|--- .... ....|D#5 UFFF ....|D#4 2F.A ....
....|..|--- .... ....|A#4 UFFF ....|--- .... ....
....|..|--- .... ....|R-- .... ....|--- .... ....
....|..|--- .... ....|D#5 UFFA ....|--- .... ....
....|..|--- .... ....|--- .... ....|--- .... ....
....|..|--- .... ....|R-- .... ....|--- .... ....
....|..|--- .... ....|C#5 UFFA ....|--- .... ....
....|..|--- .... ....|R-- .... ....|--- .... ....
....|..|--- .... ....|--- .... ....|R-- .... ....
....|..|--- .... ....|C#5 UFF7 ....|D#4 2F.7 ....
....|..|--- .... ....|A#4 UFFA ....|--- .... ....
....|..|--- .... ....|R-- .... ....|--- .... ....
....|..|--- .... ....|D#5 UFF7 ....|--- .... ....
....|..|--- .... ....|--- .... ....|--- .... ....
....|..|--- .... ....|R-- .... ....|R-- .... ....

[Pattern19]
....|..|--- .... ....|C#5 UFF7 ....|C#4 2F.F ....
....|..|--- .... ....|A#4 UFFF ....|--- .... ....
....|..|--- .... ....|--- .... ....|--- .... ....
....|..|--- .... ....|D#5 UFF7 ....|--- .... ....
....|..|--- .... ....|A#4 UFF7 ....|--- .... ....
....|..|--- .... ....|G#4 UFFF ....|--- .... ....
....|..|--- .... ....|--- .... ....|--- .... ....
....|..|--- .... ....|A#4 UFFF ....|--- .... ....
....|..|--- .... ....|--- .... ....|R-- .... ....
....|..|--- .... ....|R-- .... ....|C#4 2F.A ....
....|..|--- .... ....|A#4 UFFF ....|--- .... ....
....|..|--- .... ....|--- .... ....|--- .... ....
....|..|--- .... ....|R-- .... ....|--- .... ....
....|..|--- .... ....|C#5 UFFF ....|--- .... ....
....|..|--- .... ....|G#4 UFFA ....|--- .... ....
....|..|--- .... ....|--- .... ....|--- .... ....
....|..|--- .... ....|A#4 UFFA ....|--- .... ....
....|..|--- .... ....|--- .... ....|R-- .... ....
....|..|--- .... ....|R-- .... ....|C#4 2F.7 ....
....|..|--- .... ....|D#5 UFFF ....|--- .... ....
....|..|--- .... ....|--- .... ....|--- .... ....
....|..|--- .... ....|R-- .... ....|--- .... ....
....|..|--- .... ....|C#5 UFFA ....|R-- .... ....
....|..|--- .... ....|G#4 UFF7 ....|--- .... ....
....|..|--- .... ....|--- .... ....|C#4 2F.F ....
....|..|--- .... ....|A#4 UFFF ....|--- .... ....
....|..|--- .... ....|--- .... ....|--- .... ....
....|..|--- .... ....|R-- .... ....|--- .... ....
....|..|--- .... ....|G#4 UFFF ....|--- .... ....
....|..|--- .... ....|--- .... ....|--- .... ....
....|..|--- .... ....|R-- .... ....|--- .... ....
....|..|--- .... ....|A#4 UFFF ....|R-- .... ....
....|..|--- .... ....|R-- .... ....|--- .... ....
....|..|--- .... ....|R-- .... ....|C#4 2F.A ....
....|..|--- .... ....|C#5 UFFF ....|--- .... ....
....|..|--- .... ....|--- .... ....|--- .... ....
....|..|--- .... ....|R-- .... ....|--- .... ....
....|..|--- .... ....|D#5 UFF7 ....|--- .... ....
....|..|--- .... ....|--- .... ....|--- .... ....
....|..|--- .... ....|R-- .... ....|--- .... ....
....|..|--- .... ....|A#4 UFFA ....|R-- .... ....
....|..|--- .... ....|D#5 UFFF ....|--- .... ....
....|..|--- .... ....|F-5 UFFF ....|C#4 2F.7 ....
....|..|--- .... ....|A#4 UFF7 ....|--- .... ....
....|..|--- .... ....|--- .... ....|--- .... ....
....|..|--- .... ....|R-- .... ....|--- .... ....
....|..|--- .... ....|G#4 UFF7 ....|--- .... ....
....|..|--- .... ....|--- .... ....|R-- .... ....
....|..|--- .... ....|R-- .... ....|D#4 2F.F ....
....|..|--- .... ....|A#4 UFFF ....|--- .... ....
....|..|--- .... ....|D#5 UFFA ....|--- .... ....
....|..|--- .... ....|F-5 UFFA ....|--- .... ....
....|..|--- .... ....|G#4 UFFF ....|--- .... ....
....|..|--- .... ....|R-- .... ....|--- .... ....
....|..|--- .... ....|--- .... ....|--- .... ....
....|..|--- .... ....|A#4 UFFF ....|--- .... ....
....|..|--- .... ....|R-- .... ....|R-- .... ....
....|..|--- .... ....|--- .... ....|D#4 2F.A ....
....|..|--- .... ....|A#4 UFFF ....|--- .... ....
....|..|--- .... ....|D#5 UFF7 ....|--- .... ....
....|..|--- .... ....|F-5 UFF7 ....|--- .... ....
....|..|--- .... ....|F-5 UFFF ....|--- .... ....
....|..|--- .... ....|R-- .... ....|--- .... ....
....|..|--- .... ....|--- .... ....|--- .... ....
....|..|--- .... ....|A#4 UFFA ....|--- .... ....
....|..|--- .... ....|R-- .... ....|R-- .... ....
....|..|--- .... ....|R-- .... ....|D#4 2F.7 ....
....|..|--- .... ....|A#4 UFFF ....|--- .... ....
....|..|--- .... ....|--- .... ....|--- .... ....
....|..|--- .... ....|R-- .... ....|--- .... ....
....|..|--- .... ....|G#4 UFF7 ....|R-- .... ....
....|..|--- .... ....|R-- .... ....|--- .... ....
....|..|--- .... ....|--- .... ....|D#4 2F.F ....
....|..|--- .... ....|C#5 UFFF ....|--- .... ....
....|..|--- .... ....|R-- .... ....|--- .... ....
....|..|--- .... ....|R-- .... ....|--- .... ....
....|..|--- .... ....|D#5 UFFF ....|--- .... ....
....|..|--- .... ....|--- .... ....|--- .... ....
....|..|--- .... ....|R-- .... ....|--- .... ....
....|..|--- .... ....|C#5 UFFF ....|R-- .... ....
....|..|--- .... ....|--- .... ....|--- .... ....
....|..|--- .... ....|C#5 UFFF ....|D#4 2F.A ....
....|..|--- .... ....|A#4 UFFF ....|--- .... ....
....|..|--- .... ....|--- .... ....|--- .... ....
....|..|--- .... ....|R-- .... ....|--- .... ....
....|..|--- .... ....|A#4 UFF7 ....|--- .... ....
....|..|--- .... ....|--- .... ....|--- .... ....
....|..|--- .... ....|R-- .... ....|--- .... ....
....|..|--- .... ....|C#5 UFFA ....|R-- .... ....
....|..|--- .... ....|--- .... ....|--- .... ....
....|..|--- .... ....|C#5 UFFA ....|F#4 2F.F ....
....|..|--- .... ....|C#5 UFF7 ....|--- .... ....
....|..|--- .... ....|--- .... ....|--- .... ....
....|..|--- .... ....|R-- .... ....|--- .... ....
....|..|--- .... ....|D#5 UFF7 ....|--- .... ....
....|..|--- .... ....|R-- .... ....|F#4 2F.F ....

[Pattern20]
....|..|C-4 AF.F ....|F-5 UFFF ....|C#4 2F.F ....
....|..|C-3 RF.F ....|C#5 UFF7 ....|--- .... ....
....|..|--- .... ....|--- .... ....|--- .... ....
....|..|B-8 JF.F ....|C#5 UFF7 ....|F#4 2F.A ....
....|..|C-4 AF.F ....|A#4 UFF7 ....|--- .... ....
....|..|--- .... ....|--- .... ....|--- .... ....
....|..|C-5 VF.F ....|--- .... ....|--- .... ....
....|..|C-3 RF.F ....|--- .... ....|--- .... ....
....|..|--- .... ....|R-- .... ....|F#4 2F.A ....
....|..|B-8 JF.F ....|F-5 UFFF ....|C#4 2F.A ....
....|..|C-3 RF.F ....|F-5 UFFF ....|--- .... ....
....|..|--- .... ....|--- .... ....|--- .... ....
....|..|C-4 AF.F ....|--- .... ....|F#4 2F.7 ....
....|..|C-3 RF.F ....|--- .... ....|--- .... ....
....|..|--- .... ....|R-- .... ....|--- .... ....
....|..|B-8 JF.F ....|D#5 UFFF ....|--- .... ....
....|..|C-4 AF.F ....|--- .... ....|--- .... ....
....|..|--- .... ....|R-- .... ....|F#4 2F.7 ....
....|..|C-5 VF.F ....|F-5 UFF7 ....|C#4 2F.7 ....
....|..|C-3 RF.F ....|A#4 UFFF ....|--- .... ....
....|..|--- .... ....|--- .... ....|--- .... ....
....|..|B-8 JF.F ....|--- .... ....|--- .... ....
....|..|C-3 RF.F ....|R-- .... ....|R-- .... ....
....|..|--- .... ....|R-- .... ....|--- .... ....
....|..|C-4 AF.F ....|C#5 UFFF ....|C#4 2F.F ....
....|..|C-3 RF.F ....|--- .... ....|--- .... ....
....|..|--- .... ....|R-- .... ....|--- .... ....
....|..|B-8 JF.F ....|D#5 UFFF ....|--- .... ....
....|..|C-4 AF.F ....|F-5 UFF7 ....|--- .... ....
....|..|--- .... ....|--- .... ....|--- .... ....
....|..|C-5 VF.F ....|F-5 UFFF ....|--- .... ....
....|..|C-3 RF.F ....|R-- .... ....|R-- .... ....
....|..|--- .... ....|R-- .... ....|--- .... ....
....|..|B-8 JF.F ....|C#5 UFFF ....|C#4 2F.A ....
....|..|C-3 RF.F ....|--- .... ....|--- .... ....
....|..|--- .... ....|R-- .... ....|--- .... ....
....|..|C-4 AF.F ....|D#5 UFFA ....|--- .... ....
....|..|C-3 RF.F ....|A#4 UFF7 ....|--- .... ....
....|..|--- .... ....|--- .... ....|--- .... ....
....|..|B-8 JF.F ....|F-5 UFFA ....|--- .... ....
....|..|C-4 AF.F ....|R-- .... ....|R-- .... ....
....|..|--- .... ....|R-- .... ....|--- .... ....
....|..|C-5 VF.F ....|C#5 UFF7 ....|C#4 2F.7 ....
....|..|C-3 RF.F ....|R-- .... ....|--- .... ....
....|..|--- .... ....|R-- .... ....|--- .... ....
....|..|B-8 JF.F ....|D#5 UFF7 ....|--- .... ....
....|..|C-3 RF.F ....|R-- .... ....|R-- .... ....
....|..|--- .... ....|--- .... ....|--- .... ....
....|..|C-4 AF.F ....|F-5 UFFF ....|D#4 2F.F ....
....|..|C-3 RF.F ....|--- .... ....|--- .... ....
....|..|--- .... ....|R-- .... ....|--- .... ....
....|..|B-8 JF.F ....|C#5 UFF7 ....|--- .... ....
....|..|C-4 AF.F ....|R-- .... ....|--- .... ....
....|..|--- .... ....|--- .... ....|--- .... ....
....|..|C-5 VF.F ....|--- .... ....|--- .... ....
....|..|C-3 RF.F ....|--- .... ....|R-- .... ....
....|..|--- .... ....|R-- .... ....|--- .... ....
....|..|B-8 JF.F ....|D-5 UFFF ....|D#4 2F.A ....
....|..|C-3 RF.F ....|D#5 UFFF ....|--- .... ....
....|..|--- .... ....|--- .... ....|--- .... ....
....|..|C-4 AF.F ....|--- .... ....|--- .... ....
....|..|C-3 RF.F ....|R-- .... ....|--- .... ....
....|..|--- .... ....|--- .... ....|--- .... ....
....|..|B-8 JF.F ....|R-- .... ....|--- .... ....
....|..|C-4 AF.F ....|A#4 UFFF ....|R-- .... ....
....|..|--- .... ....|R-- .... ....|--- .... ....
....|..|C-5 VF.F ....|F-5 UFF7 ....|D#4 2F.7 ....
....|..|C-3 RF.F ....|D#5 UFFA ....|--- .... ....
....|..|--- .... ....|--- .... ....|--- .... ....
....|..|B-8 JF.F ....|--- .... ....|--- .... ....
....|..|C-3 RF.F ....|R-- .... ....|--- .... ....
....|..|--- .... ....|--- .... ....|R-- .... ....
....|..|C-4 AF.F ....|C#5 UFFF ....|D#4 2F.F ....
....|..|C-3 RF.F ....|A#4 UFFA ....|--- .... ....
....|..|--- .... ....|R-- .... ....|--- .... ....
....|..|B-8 JF.F ....|D#5 UFFF ....|--- .... ....
....|..|C-4 AF.F ....|D#5 UFF7 ....|--- .... ....
....|..|--- .... ....|R-- .... ....|--- .... ....
....|..|C-5 VF.F ....|C#5 UFFF ....|--- .... ....
....|..|C-3 RF.F ....|R-- .... ....|--- .... ....
....|..|--- .... ....|--- .... ....|R-- .... ....
....|..|B-8 JF.F ....|D#5 UFFF ....|D#4 2F.A ....
....|..|C-3 RF.F ....|A#4 UFFF ....|--- .... ....
....|..|--- .... ....|R-- .... ....|--- .... ....
....|..|C-4 AF.F ....|D#5 UFFA ....|--- .... ....
....|..|C-3 RF.F ....|--- .... ....|--- .... ....
....|..|--- .... ....|R-- .... ....|--- .... ....
....|..|B-8 JF.F ....|C#5 UFFA ....|--- .... ....
....|..|C-4 AF.F ....|R-- .... ....|--- .... ....
....|..|--- .... ....|--- .... ....|R-- .... ....
....|..|C-5 VF.F ....|C#5 UFF7 ....|D#4 2F.7 ....
....|..|C-3 RF.F ....|A#4 UFFA ....|--- .... ....
....|..|--- .... ....|R-- .... ....|--- .... ....
....|..|B-8 JF.F ....|D#5 UFF7 ....|--- .... ....
....|..|C-3 RF.F ....|--- .... ....|--- .... ....
....|..|--- .... ....|R-- .... ....|R-- .... ....

[Pattern21]
....|..|C-4 AF.F ....|C#5 UFF7 ....|C#4 2F.F ....
....|..|C-3 RF.F ....|A#4 UFFF ....|--- .... ....
....|..|--- .... ....|--- .... ....|--- .... ....
....|..|B-8 JF.F ....|D#5 UFF7 ....|--- .... ....
....|..|C-4 AF.F ....|A#4 UFF7 ....|--- .... ....
....|..|--- .... ....|G#4 UFFF ....|--- .... ....
....|..|C-5 VF.F ....|--- .... ....|--- .... ....
....|..|C-3 RF.F ....|A#4 UFFF ....|--- .... ....
....|..|--- .... ....|--- .... ....|R-- .... ....
....|..|B-8 JF.F ....|R-- .... ....|C#4 2F.A ....
....|..|C-3 RF.F ....|A#4 UFFF ....|--- .... ....
....|..|--- .... ....|--- .... ....|--- .... ....
....|..|C-4 AF.F ....|R-- .... ....|--- .... ....
....|..|C-3 RF.F ....|C#5 UFFF ....|--- .... ....
....|..|--- .... ....|G#4 UFFA ....|--- .... ....
....|..|B-8 JF.F ....|--- .... ....|--- .... ....
....|..|C-4 AF.F ....|A#4 UFFA ....|--- .... ....
....|..|--- .... ....|--- .... ....|R-- .... ....
....|..|C-5 VF.F ....|R-- .... ....|C#4 2F.7 ....
....|..|C-3 RF.F ....|D#5 UFFF ....|--- .... ....
....|..|--- .... ....|--- .... ....|--- .... ....
....|..|B-8 JF.F ....|R-- .... ....|--- .... ....
....|..|C-3 RF.F ....|C#5 UFFA ....|R-- .... ....
....|..|--- .... ....|G#4 UFF7 ....|--- .... ....
....|..|C-4 AF.F ....|--- .... ....|C#4 2F.F ....
....|..|C-3 RF.F ....|A#4 UFFF ....|--- .... ....
....|..|--- .... ....|--- .... ....|--- .... ....
....|..|B-8 JF.F ....|R-- .... ....|--- .... ....
....|..|C-4 AF.F ....|G#4 UFFF ....|--- .... ....
....|..|--- .... ....|--- .... ....|--- .... ....
....|..|C-5 VF.F ....|R-- .... ....|--- .... ....
....|..|C-3 RF.F ....|A#4 UFFF ....|R-- .... ....
....|..|--- .... ....|R-- .... ....|--- .... ....
....|..|B-8 JF.F ....|R-- .... ....|C#4 2F.A ....
....|..|C-3 RF.F ....|C#5 UFFF ....|--- .... ....
....|..|--- .... ....|--- .... ....|--- .... ....
....|..|C-4 AF.F ....|R-- .... ....|--- .... ....
....|..|C-3 RF.F ....|D#5 UFF7 ....|--- .... ....
....|..|--- .... ....|--- .... ....|--- .... ....
....|..|B-8 JF.F ....|R-- .... ....|--- .... ....
....|..|C-4 AF.F ....|A#4 UFFA ....|R-- .... ....
....|..|--- .... ....|D#5 UFFF ....|--- .... ....
....|..|C-5 VF.F ....|F-5 UFFF ....|C#4 2F.7 ....
....|..|C-3 RF.F ....|A#4 UFF7 ....|--- .... ....
....|..|--- .... ....|--- .... ....|--- .... ....
....|..|B-8 JF.F ....|R-- .... ....|--- .... ....
....|..|C-3 RF.F ....|G#4 UFF7 ....|--- .... ....
....|..|--- .... ....|--- .... ....|R-- .... ....
....|..|C-4 AF.F ....|R-- .... ....|D#4 2F.F ....
....|..|C-3 RF.F ....|A#4 UFFF ....|--- .... ....
....|..|--- .... ....|D#5 UFFA ....|--- .... ....
....|..|B-8 JF.F ....|F-5 UFFA ....|--- .... ....
....|..|C-4 AF.F ....|G#4 UFFF ....|--- .... ....
....|..|--- .... ....|R-- .... ....|--- .... ....
....|..|C-5 VF.F ....|--- .... ....|--- .... ....
....|..|C-3 RF.F ....|A#4 UFFF ....|--- .... ....
....|..|--- .... ....|R-- .... ....|R-- .... ....
....|..|B-8 JF.F ....|--- .... ....|D#4 2F.A ....
....|..|C-3 RF.F ....|A#4 UFFF ....|--- .... ....
....|..|--- .... ....|D#5 UFF7 ....|--- .... ....
....|..|C-4 AF.F ....|F-5 UFF7 ....|--- .... ....
....|..|C-3 RF.F ....|F-5 UFFF ....|--- .... ....
....|..|--- .... ....|R-- .... ....|--- .... ....
....|..|B-8 JF.F ....|--- .... ....|--- .... ....
....|..|C-4 AF.F ....|A#4 UFFA ....|--- .... ....
....|..|--- .... ....|R-- .... ....|R-- .... ....
....|..|C-5 VF.F ....|R-- .... ....|D#4 2F.7 ....
....|..|C-3 RF.F ....|A#4 UFFF ....|--- .... ....
....|..|--- .... ....|--- .... ....|--- .... ....
....|..|B-8 JF.F ....|R-- .... ....|--- .... ....
....|..|B-8 JF.F ....|G#4 UFF7 ....|R-- .... ....
....|..|--- .... ....|R-- .... ....|--- .... ....
 D#4|..|D#3 2C.F ....|--- .... ....|D#4 2F.F ....
....|..|C-3 RF.7 ....|C#5 UFFF ....|--- .... ....
....|..|--- .... ....|R-- .... ....|--- .... ....
....|..|B-8 JF.7 ....|R-- .... ....|--- .... ....
....|..|C-3 RF.7 ....|D#5 UFFF ....|--- .... ....
....|..|R-- .... ....|--- .... ....|--- .... ....
 D#4|..|D#3 2C.F ....|R-- .... ....|--- .... ....
....|..|C-3 RF.7 ....|C#5 UFFF ....|R-- .... ....
....|..|--- .... ....|--- .... ....|--- .... ....
....|..|B-8 JF.7 ....|C#5 UFFF ....|D#4 2F.A ....
....|..|C-4 AF.7 ....|A#4 UFFF ....|--- .... ....
....|..|R-- .... ....|--- .... ....|--- .... ....
 D#4|..|D#3 2C.F ....|R-- .... ....|--- .... ....
....|..|C-3 RF.7 ....|A#4 UFF7 ....|--- .... ....
....|..|R-- .... ....|--- .... ....|--- .... ....
....|..|B-8 JF.7 ....|R-- .... ....|--- .... ....
....|..|B-8 JF.7 ....|C#5 UFFA ....|R-- .... ....
....|..|R-- .... ....|--- .... ....|--- .... ....
 D#4|..|D#3 2C.F ....|C#5 UFFA ....|F#4 2F.F ....
....|..|--- .... ....|C#5 UFF7 ....|--- .... ....
....|..|R-- .... ....|--- .... ....|--- .... ....
....|..|D#3 2F.A ....|R-- .... ....|--- .... ....
....|..|--- .... ....|D#5 UFF7 ....|--- .... ....
....|..|R-- .... ....|R-- .... ....|F#4 2F.F ....

[Pattern22]
....|..|C-4 AF.F ....|F-5 UFFF ....|A#1 2F.F ....
....|..|C-4 CF.F ....|C#5 UFF7 ....|C#4 2F8F ....
 A#3|..|A#1 2A.F ....|--- .... ....|--- .... ....
....|..|C-4 CF.F ....|C#5 UFF7 ....|A#2 2F.F ....
....|..|C-4 AF.F ....|A#4 UFF7 ....|R-- .... ....
....|..|R-- .... ....|--- .... ....|--- .... ....
....|..|C-4 CF.F ....|--- .... ....|A#2 2F.F ....
....|..|C-3 RF.F ....|--- .... ....|--- .... ....
 A#3|..|A#1 2A.F ....|R-- .... ....|F#4 2F.A ....
....|..|C-4 AF.F ....|F-5 UFFF ....|A#1 2F.F ....
....|..|C-4 CF.F ....|F-5 UFFF ....|A#2 2F.F ....
....|..|A#1 2F.A ....|--- .... ....|R-- .... ....
....|..|C-4 AF.F ....|--- .... ....|F#4 2F.7 ....
....|..|C-4 CF.F ....|--- .... ....|A#1 2F.F ....
 A#3|..|A#1 2A.F ....|R-- .... ....|R-- .... ....
....|..|C-4 CF.F ....|D#5 UFFF ....|A#2 2F.F ....
....|..|C-4 LF.F ....|--- .... ....|R-- .... ....
 A#3|..|A#1 2A.F ....|R-- .... ....|F#4 2F.7 ....
....|..|C-4 CF.F ....|F-5 UFF7 ....|A#1 2F.F ....
....|..|C-3 RF.F ....|A#4 UFFF ....|C#4 2F87 ....
 A#3|..|A#1 2A.F ....|--- .... ....|R-- .... ....
....|..|B-8 JF.F ....|--- .... ....|A#2 2F.F ....
....|..|C-4 CF.F ....|R-- .... ....|A#1 2F.A ....
 A#3|..|A#1 2A.F ....|R-- .... ....|R-- .... ....
....|..|C-4 AF.F ....|C#5 UFFF ....|A#1 2F.F ....
....|..|C-3 RF.F ....|--- .... ....|F-5 2F3F ....
 A#3|..|A#1 2A.F ....|R-- .... ....|R-- .... ....
....|..|C-4 CF.F ....|D#5 UFFF ....|A#2 2F.F ....
....|..|C-4 AF.F ....|F-5 UFF7 ....|A#2 2F.7 ....
 A#3|..|A#1 2A.F ....|--- .... ....|R-- .... ....
....|..|C-4 CF.F ....|F-5 UFFF ....|A#2 2F.F ....
....|..|C-3 RF.F ....|R-- .... ....|A#1 2F.7 ....
 A#3|..|A#1 2A.F ....|R-- .... ....|R-- .... ....
....|..|C-4 AF.F ....|C#5 UFFF ....|A#1 2F.F ....
....|..|C-4 CF.F ....|--- .... ....|A#2 2F.F ....
....|..|A#1 2F.7 ....|R-- .... ....|R-- .... ....
....|..|C-4 AF.F ....|D#5 UFFA ....|A#1 2F.7 ....
....|..|C-4 CF.F ....|A#4 UFF7 ....|A#1 2F.F ....
 A#3|..|A#1 2A.F ....|--- .... ....|R-- .... ....
....|..|C-4 CF.F ....|F-5 UFFA ....|A#2 2F.F ....
....|..|C-4 AF.F ....|R-- .... ....|R-- .... ....
 A#3|..|A#1 2A.F ....|R-- .... ....|R-- .... ....
....|..|C-4 CF.F ....|C#5 UFF7 ....|A#1 2F.F ....
....|..|C-3 RF.F ....|R-- .... ....|F-5 2F37 ....
 A#3|..|A#1 2A.F ....|R-- .... ....|R-- .... ....
....|..|B-8 JF.F ....|D#5 UFF7 ....|A#2 2F.F ....
....|..|C-4 CF.F ....|R-- .... ....|A#1 2F.A ....
 A#3|..|A#1 2A.F ....|--- .... ....|F-5 2F3F ....
....|..|C-4 AF.F ....|F-5 UFFF ....|G#3 2F2F ....
....|..|C-4 CF.F ....|--- .... ....|C-4 2FAF ....
 G#3|..|G#1 2A.F ....|R-- .... ....|R-- .... ....
....|..|C-4 CF.F ....|C#5 UFF7 ....|G#2 2F.F ....
....|..|C-4 AF.F ....|R-- .... ....|A#2 2F.7 ....
 G#3|..|G#1 2A.F ....|--- .... ....|R-- .... ....
....|..|C-4 CF.F ....|--- .... ....|G#2 2F.F ....
....|..|C-3 RF.F ....|--- .... ....|A#1 2F.7 ....
 G#3|..|G#1 2A.F ....|R-- .... ....|F-5 2F3A ....
....|..|C-4 AF.F ....|D-5 UFFF ....|G#1 2F.F ....
....|..|C-4 CF.F ....|D#5 UFFF ....|G#2 2F.F ....
....|..|A#1 2F.7 ....|--- .... ....|R-- .... ....
....|..|C-4 AF.F ....|--- .... ....|A#1 2F.7 ....
....|..|C-4 CF.F ....|R-- .... ....|G#1 2F.F ....
 G#3|..|G#1 2A.F ....|--- .... ....|R-- .... ....
....|..|C-4 CF.F ....|R-- .... ....|G#2 2F.F ....
....|..|C-4 LF.F ....|A#4 UFFF ....|R-- .... ....
 G#3|..|G#1 2A.F ....|R-- .... ....|F-5 2F37 ....
....|..|C-4 CF.F ....|F-5 UFF7 ....|G#1 2F.F ....
....|..|C-3 RF.F ....|D#5 UFFA ....|C-4 2FA7 ....
 G#3|..|G#1 2A.F ....|--- .... ....|R-- .... ....
....|..|B-8 JF.F ....|--- .... ....|G#2 2F.F ....
....|..|C-4 CF.F ....|R-- .... ....|G#1 2F.A ....
 G#3|..|G#1 2A.F ....|--- .... ....|R-- .... ....
....|..|C-4 AF.F ....|C#5 UFFF ....|G#1 2F.F ....
....|..|C-3 RF.F ....|A#4 UFFA ....|R-- .... ....
 G#3|..|G#1 2A.F ....|R-- .... ....|R-- .... ....
....|..|C-4 CF.F ....|D#5 UFFF ....|G#2 2F.F ....
....|..|C-4 AF.F ....|D#5 UFF7 ....|G#2 2F.7 ....
 G#3|..|G#1 2A.F ....|R-- .... ....|R-- .... ....
....|..|C-4 CF.F ....|C#5 UFFF ....|G#2 2F.F ....
....|..|C-3 RF.F ....|R-- .... ....|G#1 2F.7 ....
 G#3|..|G#1 2A.F ....|--- .... ....|R-- .... ....
....|..|C-4 AF.F ....|D#5 UFFF ....|G#1 2F.F ....
....|..|C-4 CF.F ....|A#4 UFFF ....|G#2 2F.F ....
....|..|G#1 2F.7 ....|R-- .... ....|R-- .... ....
....|..|C-4 AF.F ....|D#5 UFFA ....|G#1 2F.7 ....
....|..|C-4 CF.F ....|--- .... ....|G#1 2F.F ....
 G#3|..|G#1 2A.F ....|R-- .... ....|R-- .... ....
....|..|C-4 CF.F ....|C#5 UFFA ....|G#2 2F.F ....
....|..|C-4 AF.F ....|R-- .... ....|R-- .... ....
 G#3|..|G#1 2A.F ....|--- .... ....|R-- .... ....
....|..|C-4 CF.F ....|C#5 UFF7 ....|G#1 2F.F ....
....|..|C-3 RF.F ....|A#4 UFFA ....|G#2 2F.A ....
 G#3|..|G#1 2A.F ....|R-- .... ....|C-4 2FBF ....
....|..|B-8 JF.F ....|D#5 UFF7 ....|G#2 2F.F ....
....|..|C-4 CF.F ....|--- .... ....|G#1 2F.A ....
 G#3|..|G#1 2A.F ....|R-- .... ....|C-4 2FBF ....

[Pattern23]
....|..|C-4 AF.F ....|C#5 UFF7 ....|G#3 2F3F ....
....|..|C-4 CF.F ....|A#4 UFFF ....|C#5 2F7F ....
 C#4|..|C#2 2A.F ....|--- .... ....|R-- .... ....
....|..|C-4 CF.F ....|D#5 UFF7 ....|G#3 2F.F ....
....|..|C-4 AF.F ....|A#4 UFF7 ....|G#2 2F.7 ....
 C#4|..|C#2 2A.F ....|G#4 UFFF ....|C-4 2FBA ....
....|..|C-4 CF.F ....|--- .... ....|G#3 2F.F ....
....|..|C-3 RF.F ....|A#4 UFFF ....|G#1 2F.7 ....
 C#4|..|C#2 2A.F ....|--- .... ....|C-4 2FBA ....
....|..|C-4 AF.F ....|R-- .... ....|C#3 2F.F ....
....|..|C-4 CF.F ....|A#4 UFFF ....|G#3 2F.F ....
....|..|G#1 2F.7 ....|--- .... ....|R-- .... ....
....|..|C-4 AF.F ....|R-- .... ....|G#1 2F.7 ....
....|..|C-4 CF.F ....|C#5 UFFF ....|C#3 2F.F ....
 C#4|..|C#2 2A.F ....|G#4 UFFA ....|C-4 2FB7 ....
....|..|C-4 CF.F ....|--- .... ....|G#3 2F.F ....
....|..|C-4 LF.F ....|A#4 UFFA ....|--- .... ....
 C#4|..|C#2 2A.F ....|--- .... ....|C-4 2FB7 ....
....|..|C-4 CF.F ....|R-- .... ....|C#3 2F.F ....
....|..|C-3 RF.F ....|D#5 UFFF ....|C#5 2F77 ....
 C#4|..|C#2 2A.F ....|--- .... ....|R-- .... ....
....|..|B-8 JF.F ....|R-- .... ....|G#3 2F.F ....
....|..|C-4 CF.F ....|C#5 UFFA ....|C#3 2F.A ....
 C#4|..|C#2 2A.F ....|G#4 UFF7 ....|R-- .... ....
....|..|C-4 AF.F ....|--- .... ....|C#3 2F.F ....
....|..|C-3 RF.F ....|A#4 UFFF ....|--- .... ....
 C#4|..|C#2 2A.F ....|--- .... ....|R-- .... ....
....|..|C-4 CF.F ....|R-- .... ....|G#3 2F.F ....
....|..|C-4 AF.F ....|G#4 UFFF ....|G#3 2F.7 ....
 C#4|..|C#2 2A.F ....|--- .... ....|R-- .... ....
....|..|C-4 CF.F ....|R-- .... ....|G#3 2F.F ....
....|..|C-3 RF.F ....|A#4 UFFF ....|C#3 2F.7 ....
 C#4|..|C#2 2A.F ....|R-- .... ....|R-- .... ....
....|..|C-4 AF.F ....|R-- .... ....|C#3 2F.F ....
....|..|C-4 CF.F ....|C#5 UFFF ....|G#3 2F.F ....
....|..|C#2 2F.7 ....|--- .... ....|R-- .... ....
....|..|C-4 AF.F ....|R-- .... ....|C#3 2F.7 ....
....|..|C-4 CF.F ....|D#5 UFF7 ....|C#3 2F.F ....
 C#4|..|C#2 2A.F ....|--- .... ....|R-- .... ....
....|..|C-4 CF.F ....|R-- .... ....|G#3 2F.F ....
....|..|C-4 AF.F ....|A#4 UFFA ....|R-- .... ....
 C#4|..|C#2 2A.F ....|D#5 UFFF ....|R-- .... ....
....|..|C-4 CF.F ....|F-5 UFFF ....|C#3 2F.F ....
....|..|C-3 RF.F ....|A#4 UFF7 ....|G#3 2F.A ....
 C#4|..|C#2 2A.F ....|--- .... ....|--- .... ....
....|..|B-8 JF.F ....|R-- .... ....|G#3 2F.F ....
....|..|C-4 CF.F ....|G#4 UFF7 ....|C#3 2F.A ....
 C#4|..|C#2 2A.F ....|--- .... ....|G#6 2F.F ....
....|..|C-4 AF.F ....|R-- .... ....|A#3 2F4F ....
....|..|C-4 CF.F ....|A#4 UFFF ....|D#5 2F1F ....
 D#4|..|D#2 2A.F ....|D#5 UFFA ....|R-- .... ....
....|..|C-4 CF.F ....|F-5 UFFA ....|A#3 2F.F ....
....|..|C-4 AF.F ....|G#4 UFFF ....|G#3 2F.7 ....
 D#4|..|D#2 2A.F ....|R-- .... ....|--- .... ....
....|..|C-4 CF.F ....|--- .... ....|A#3 2F.F ....
....|..|C-3 RF.F ....|A#4 UFFF ....|C#3 2F.7 ....
 D#4|..|D#2 2A.F ....|R-- .... ....|G#6 2F.A ....
....|..|C-4 AF.F ....|--- .... ....|D#3 2F.F ....
....|..|C-4 CF.F ....|A#4 UFFF ....|A#3 2F.F ....
....|..|C#2 2F.7 ....|D#5 UFF7 ....|--- .... ....
....|..|C-4 AF.F ....|F-5 UFF7 ....|C#3 2F.7 ....
....|..|C-4 CF.F ....|F-5 UFFF ....|D#3 2F.F ....
 D#4|..|D#2 2A.F ....|R-- .... ....|R-- .... ....
....|..|C-4 CF.F ....|--- .... ....|A#3 2F.F ....
....|..|C-4 LF.F ....|A#4 UFFA ....|R-- .... ....
 D#4|..|D#2 2A.F ....|R-- .... ....|G#6 2F.7 ....
....|..|C-4 CF.F ....|R-- .... ....|D#3 2F.F ....
....|..|C-3 RF.F ....|A#4 UFFF ....|A#3 2F.F ....
 D#4|..|D#2 2A.F ....|--- .... ....|--- .... ....
....|..|B-8 JF.F ....|R-- .... ....|A#3 2F.7 ....
....|..|C-4 CF.F ....|G#4 UFF7 ....|D#3 2F.F ....
 D#4|..|D#2 2A.F ....|R-- .... ....|R-- .... ....
....|..|C-4 AF.F ....|--- .... ....|A#3 2F.F ....
....|..|C-3 RF.F ....|C#5 UFFF ....|R-- .... ....
 D#4|..|D#2 2A.F ....|R-- .... ....|R-- .... ....
....|..|C-4 CF.F ....|R-- .... ....|D#3 2F.F ....
....|..|C-4 AF.F ....|D#5 UFFF ....|A#3 2F.F ....
 D#4|..|D#2 2A.F ....|--- .... ....|R-- .... ....
....|..|C-4 CF.F ....|R-- .... ....|R-- .... ....
....|..|C-3 RF.F ....|C#5 UFFF ....|D#3 2F.F ....
 D#4|..|D#2 2A.F ....|--- .... ....|R-- .... ....
....|..|C-4 AF.F ....|C#5 UFFF ....|A#3 2F.F ....
....|..|C-4 CF.F ....|A#4 UFFF ....|R-- .... ....
....|..|D#2 2F.7 ....|--- .... ....|R-- .... ....
....|..|C-4 AF.F ....|R-- .... ....|D#3 2F.F ....
....|..|C-4 CF.F ....|A#4 UFF7 ....|A#3 2F.F ....
 D#4|..|D#2 2A.F ....|--- .... ....|R-- .... ....
....|..|C-4 CF.F ....|R-- .... ....|R-- .... ....
....|..|C-4 AF.F ....|C#5 UFFA ....|D#3 2F.F ....
 D#4|..|D#2 2A.F ....|--- .... ....|R-- .... ....
....|..|C-4 CF.F ....|C#5 UFFA ....|A#3 2F.F ....
....|..|C-3 RF.F ....|C#5 UFF7 ....|R-- .... ....
 D#4|..|D#2 2A.F ....|--- .... ....|R-- .... ....
....|..|B-8 JF.F ....|R-- .... ....|D#3 2F.F ....
....|..|C-4 CF.F ....|D#5 UFF7 ....|A#3 2F.F ....
 D#4|..|D#2 2A.F ....|R-- .... ....|R-- .... ....

[Pattern24]
....|..|C-4 AF.F ....|F-5 UFFF ....|C#4 2F8F ....
....|..|C-4 CF.F ....|C#5 UFF7 ....|F-5 2F3F ....
 A#3|..|A#1 2A.F ....|--- .... ....|R-- .... ....
....|..|C-4 CF.F ....|C#5 UFF7 ....|A#2 2F.F ....
....|..|C-4 AF.F ....|A#4 UFF7 ....|R-- .... ....
....|..|D#2 2F.A ....|--- .... ....|R-- .... ....
....|..|C-4 CF.F ....|--- .... ....|A#2 2F.F ....
....|..|C-3 RF.F ....|--- .... ....|A#3 2F.7 ....
 A#3|..|A#1 2A.F ....|R-- .... ....|R-- .... ....
....|..|C-4 AF.F ....|F-5 UFFF ....|A#1 2F.F ....
....|..|C-4 CF.F ....|F-5 UFFF ....|A#2 2F.F ....
....|..|D#2 2F.7 ....|--- .... ....|R-- .... ....
....|..|C-4 AF.F ....|--- .... ....|A#3 2F.7 ....
....|..|C-4 CF.F ....|--- .... ....|A#1 2F.F ....
 A#3|..|A#1 2A.F ....|R-- .... ....|R-- .... ....
....|..|C-4 CF.F ....|D#5 UFFF ....|A#2 2F.F ....
....|..|C-4 LF.F ....|--- .... ....|A#3 2F.7 ....
 A#3|..|A#1 2A.F ....|R-- .... ....|R-- .... ....
....|..|C-4 CF.F ....|F-5 UFF7 ....|A#1 2F.F ....
....|..|C-3 RF.F ....|A#4 UFFF ....|F-5 2F37 ....
 A#3|..|A#1 2A.F ....|--- .... ....|R-- .... ....
....|..|B-8 JF.F ....|--- .... ....|A#2 2F.F ....
....|..|C-4 CF.F ....|R-- .... ....|A#1 2F.A ....
 A#3|..|A#1 2A.F ....|R-- .... ....|R-- .... ....
....|..|C-4 AF.F ....|C#5 UFFF ....|A#1 2F.F ....
....|..|C-3 RF.F ....|--- .... ....|F-5 2F3F ....
 A#3|..|A#1 2A.F ....|R-- .... ....|R-- .... ....
....|..|C-4 CF.F ....|D#5 UFFF ....|A#2 2F.F ....
....|..|C-4 AF.F ....|F-5 UFF7 ....|A#2 2F.7 ....
 A#3|..|A#1 2A.F ....|--- .... ....|R-- .... ....
....|..|C-4 CF.F ....|F-5 UFFF ....|A#2 2F.F ....
....|..|C-3 RF.F ....|R-- .... ....|A#1 2F.7 ....
 A#3|..|A#1 2A.F ....|R-- .... ....|R-- .... ....
....|..|C-4 AF.F ....|C#5 UFFF ....|A#1 2F.F ....
....|..|C-4 CF.F ....|--- .... ....|A#2 2F.F ....
....|..|A#1 2F.7 ....|R-- .... ....|R-- .... ....
....|..|C-4 AF.F ....|D#5 UFFA ....|A#1 2F.7 ....
....|..|C-4 CF.F ....|A#4 UFF7 ....|A#1 2F.F ....
 A#3|..|A#1 2A.F ....|--- .... ....|R-- .... ....
....|..|C-4 CF.F ....|F-5 UFFA ....|A#2 2F.F ....
....|..|C-4 AF.F ....|R-- .... ....|R-- .... ....
 A#3|..|A#1 2A.F ....|R-- .... ....|R-- .... ....
....|..|C-4 CF.F ....|C#5 UFF7 ....|A#1 2F.F ....
....|..|C-3 RF.F ....|R-- .... ....|F-5 2F37 ....
 A#3|..|A#1 2A.F ....|R-- .... ....|R-- .... ....
....|..|B-8 JF.F ....|D#5 UFF7 ....|A#2 2F.F ....
....|..|C-4 CF.F ....|R-- .... ....|A#1 2F.A ....
 A#3|..|A#1 2A.F ....|--- .... ....|F-5 2F3F ....
....|..|C-4 AF.F ....|F-5 UFFF ....|G#3 2F2F ....
....|..|C-4 CF.F ....|--- .... ....|C-4 2FAF ....
 G#3|..|G#1 2A.F ....|R-- .... ....|R-- .... ....
....|..|C-4 CF.F ....|C#5 UFF7 ....|G#2 2F.F ....
....|..|C-4 AF.F ....|R-- .... ....|A#2 2F.7 ....
 G#3|..|G#1 2A.F ....|--- .... ....|R-- .... ....
....|..|C-4 CF.F ....|--- .... ....|G#2 2F.F ....
....|..|C-3 RF.F ....|--- .... ....|A#1 2F.7 ....
 G#3|..|G#1 2A.F ....|R-- .... ....|F-5 2F3A ....
....|..|C-4 AF.F ....|D-5 UFFF ....|G#1 2F.F ....
....|..|C-4 CF.F ....|D#5 UFFF ....|G#2 2F.F ....
....|..|A#1 2F.7 ....|--- .... ....|R-- .... ....
....|..|C-4 AF.F ....|--- .... ....|A#1 2F.7 ....
....|..|C-4 CF.F ....|R-- .... ....|G#1 2F.F ....
 G#3|..|G#1 2A.F ....|--- .... ....|R-- .... ....
....|..|C-4 CF.F ....|R-- .... ....|G#2 2F.F ....
....|..|C-4 LF.F ....|A#4 UFFF ....|R-- .... ....
 G#3|..|G#1 2A.F ....|R-- .... ....|F-5 2F37 ....
....|..|C-4 CF.F ....|F-5 UFF7 ....|G#1 2F.F ....
....|..|C-3 RF.F ....|D#5 UFFA ....|C-4 2FA7 ....
 G#3|..|G#1 2A.F ....|--- .... ....|R-- .... ....
....|..|B-8 JF.F ....|--- .... ....|G#2 2F.F ....
....|..|C-4 CF.F ....|R-- .... ....|G#1 2F.A ....
 G#3|..|G#1 2A.F ....|--- .... ....|R-- .... ....
....|..|C-4 AF.F ....|C#5 UFFF ....|G#1 2F.F ....
....|..|C-3 RF.F ....|A#4 UFFA ....|R-- .... ....
 G#3|..|G#1 2A.F ....|R-- .... ....|R-- .... ....
....|..|C-4 CF.F ....|D#5 UFFF ....|G#2 2F.F ....
....|..|C-4 AF.F ....|D#5 UFF7 ....|G#2 2F.7 ....
 G#3|..|G#1 2A.F ....|R-- .... ....|R-- .... ....
....|..|C-4 CF.F ....|C#5 UFFF ....|G#2 2F.F ....
....|..|C-3 RF.F ....|R-- .... ....|G#1 2F.7 ....
 G#3|..|G#1 2A.F ....|--- .... ....|R-- .... ....
....|..|C-4 AF.F ....|D#5 UFFF ....|G#1 2F.F ....
....|..|C-4 CF.F ....|A#4 UFFF ....|G#2 2F.F ....
....|..|G#1 2F.7 ....|R-- .... ....|R-- .... ....
....|..|C-4 AF.F ....|D#5 UFFA ....|G#1 2F.7 ....
....|..|C-4 CF.F ....|--- .... ....|G#1 2F.F ....
 G#3|..|G#1 2A.F ....|R-- .... ....|R-- .... ....
....|..|C-4 CF.F ....|C#5 UFFA ....|G#2 2F.F ....
....|..|C-4 AF.F ....|R-- .... ....|R-- .... ....
 G#3|..|G#1 2A.F ....|--- .... ....|R-- .... ....
....|..|C-4 CF.F ....|C#5 UFF7 ....|G#1 2F.F ....
....|..|C-3 RF.F ....|A#4 UFFA ....|G#2 2F.A ....
 G#3|..|G#1 2A.F ....|R-- .... ....|C-4 2FBF ....
....|..|B-8 JF.F ....|D#5 UFF7 ....|G#2 2F.F ....
....|..|C-4 CF.F ....|--- .... ....|G#1 2F.A ....
 G#3|..|G#1 2A.F ....|R-- .... ....|C-4 2FBF ....

[Pattern25]
....|..|C-4 AF.F ....|C#5 UFF7 ....|G#3 2F3F ....
....|..|C-4 CF.F ....|A#4 UFFF ....|C#5 2F7F ....
 C#4|..|C#2 2A.F ....|--- .... ....|R-- .... ....
....|..|C-4 CF.F ....|D#5 UFF7 ....|G#3 2F.F ....
....|..|C-4 AF.F ....|A#4 UFF7 ....|G#2 2F.7 ....
 C#4|..|C#2 2A.F ....|G#4 UFFF ....|C-4 2FBA ....
....|..|C-4 CF.F ....|--- .... ....|G#3 2F.F ....
....|..|C-3 RF.F ....|A#4 UFFF ....|G#1 2F.7 ....
 C#4|..|C#2 2A.F ....|--- .... ....|C-4 2FBA ....
....|..|C-4 AF.F ....|R-- .... ....|C#3 2F.F ....
....|..|C-4 CF.F ....|A#4 UFFF ....|G#3 2F.F ....
....|..|G#1 2F.7 ....|--- .... ....|R-- .... ....
....|..|C-4 AF.F ....|R-- .... ....|G#1 2F.7 ....
....|..|C-4 CF.F ....|C#5 UFFF ....|C#3 2F.F ....
 C#4|..|C#2 2A.F ....|G#4 UFFA ....|C-4 2FB7 ....
....|..|C-4 CF.F ....|--- .... ....|G#3 2F.F ....
....|..|C-4 LF.F ....|A#4 UFFA ....|--- .... ....
 C#4|..|C#2 2A.F ....|--- .... ....|C-4 2FB7 ....
....|..|C-4 CF.F ....|R-- .... ....|C#3 2F.F ....
....|..|C-3 RF.F ....|D#5 UFFF ....|C#5 2F77 ....
 C#4|..|C#2 2A.F ....|--- .... ....|R-- .... ....
....|..|B-8 JF.F ....|R-- .... ....|G#3 2F.F ....
....|..|C-4 CF.F ....|C#5 UFFA ....|C#3 2F.A ....
 C#4|..|C#2 2A.F ....|G#4 UFF7 ....|R-- .... ....
....|..|C-4 AF.F ....|A#4 2F.F ....|C#3 2F.F ....
....|..|C-3 RF.F ....|A#4 UFFF ....|--- .... ....
 C#4|..|C#2 2A.F ....|--- .... ....|R-- .... ....
....|..|C-4 CF.F ....|R-- .... ....|G#3 2F.F ....
....|..|C-4 AF.F ....|G#4 UFFF ....|G#3 2F.7 ....
 C#4|..|C#2 2A.F ....|--- .... ....|R-- .... ....
....|..|C-4 CF.F ....|R-- .... ....|G#3 2F.F ....
....|..|C-3 RF.F ....|A#4 UFFF ....|C#3 2F.7 ....
 C#4|..|C#2 2A.F ....|R-- .... ....|R-- .... ....
....|..|C-4 AF.F ....|G#4 2F.F ....|C#3 2F.F ....
....|..|C-4 CF.F ....|C#5 UFFF ....|G#3 2F.F ....
....|..|C#2 2F.7 ....|--- .... ....|R-- .... ....
....|..|C-4 AF.F ....|R-- .... ....|C#3 2F.7 ....
....|..|C-4 CF.F ....|D#5 UFF7 ....|C#3 2F.F ....
 C#4|..|C#2 2A.F ....|--- .... ....|R-- .... ....
....|..|C-4 CF.F ....|R-- .... ....|G#3 2F.F ....
....|..|C-4 AF.F ....|A#4 UFFA ....|R-- .... ....
 C#4|..|C#2 2A.F ....|D#5 UFFF ....|R-- .... ....
....|..|C-4 CF.F ....|F-5 UFFF ....|C#3 2F.F ....
....|..|C-3 RF.F ....|A#4 UFF7 ....|G#3 2F.A ....
 C#4|..|C#2 2A.F ....|--- .... ....|--- .... ....
....|..|B-8 JF.F ....|R-- .... ....|G#3 2F.F ....
....|..|C-4 CF.F ....|G#4 UFF7 ....|C#3 2F.A ....
 C#4|..|C#2 2A.F ....|--- .... ....|G#6 2F.F ....
....|..|C-4 AF.F ....|R-- .... ....|A#3 2F4F ....
....|..|C-4 CF.F ....|A#4 UFFF ....|D#5 2F1F ....
 D#4|..|D#2 2A.F ....|D#5 UFFA ....|R-- .... ....
....|..|C-4 CF.F ....|G#4 2F.7 ....|A#3 2F.F ....
....|..|C-4 AF.F ....|G#4 UFFF ....|G#3 2F.7 ....
 D#4|..|D#2 2A.F ....|R-- .... ....|--- .... ....
....|..|C-4 CF.F ....|--- .... ....|A#3 2F.F ....
....|..|C-3 RF.F ....|A#4 UFFF ....|C#3 2F.7 ....
 D#4|..|D#2 2A.F ....|R-- .... ....|G#6 2F.A ....
....|..|C-4 AF.F ....|--- .... ....|D#3 2F.F ....
....|..|C-4 CF.F ....|A#4 UFFF ....|A#3 2F.F ....
....|..|C#2 2F.7 ....|D#5 UFF7 ....|--- .... ....
....|..|C-4 AF.F ....|F-5 UFF7 ....|C#3 2F.7 ....
....|..|C-4 CF.F ....|F-5 UFFF ....|D#3 2F.F ....
 D#4|..|D#2 2A.F ....|R-- .... ....|R-- .... ....
....|..|C-4 CF.F ....|--- .... ....|A#3 2F.F ....
....|..|C-4 LF.F ....|A#4 UFFA ....|R-- .... ....
 D#4|..|D#2 2A.F ....|R-- .... ....|G#6 2F.7 ....
....|..|C-4 CF.F ....|R-- .... ....|D#3 2F.F ....
....|..|C-3 RF.F ....|A#4 UFFF ....|A#3 2F.F ....
 D#4|..|D#2 2A.F ....|--- .... ....|--- .... ....
....|..|B-8 JF.F ....|R-- .... ....|A#3 2F.7 ....
....|..|C-4 CF.F ....|G#4 UFF7 ....|D#3 2F.F ....
 D#4|..|D#2 2A.F ....|R-- .... ....|R-- .... ....
....|..|C-4 AF.F ....|--- .... ....|A#3 2F.F ....
....|..|C-3 RF.F ....|C#5 UFFF ....|R-- .... ....
 D#4|..|D#2 2A.F ....|R-- .... ....|R-- .... ....
....|..|C-4 CF.F ....|R-- .... ....|D#3 2F.F ....
....|..|C-4 AF.F ....|D#5 UFFF ....|A#3 2F.F ....
 D#4|..|D#2 2A.F ....|--- .... ....|R-- .... ....
....|..|C-4 CF.F ....|R-- .... ....|R-- .... ....
....|..|C-3 RF.F ....|C#5 UFFF ....|D#3 2F.F ....
 D#4|..|D#2 2A.F ....|--- .... ....|R-- .... ....
....|..|C-4 AF.F ....|C#5 UFFF ....|A#3 2F.F ....
....|..|C-4 CF.F ....|A#4 UFFF ....|R-- .... ....
....|..|D#2 2F.7 ....|--- .... ....|R-- .... ....
....|..|C-4 AF.F ....|R-- .... ....|D#3 2F.F ....
....|..|C-4 CF.F ....|A#4 UFF7 ....|A#3 2F.F ....
 D#4|..|D#2 2A.F ....|--- .... ....|R-- .... ....
....|..|C-4 CF.F ....|R-- .... ....|R-- .... ....
....|..|C-4 AF.F ....|C#5 UFFA ....|D#3 2F.F ....
 D#4|..|D#2 2A.F ....|--- .... ....|R-- .... ....
....|..|C-4 CF.F ....|C#5 UFFA ....|A#3 2F.F ....
....|..|C-3 RF.F ....|C#5 UFF7 ....|R-- .... ....
 D#4|..|D#2 2A.F ....|--- .... ....|R-- .... ....
....|..|B-8 JF.F ....|R-- .... ....|D#3 2F.F ....
....|..|C-4 CF.F ....|D#5 UFF7 ....|A#3 2F.F ....
 D#4|..|D#2 2A.F ....|R-- .... ....|R-- .... ....

[Pattern26]
....|..|C-4 CF.7 ....|F-5 UFFF ....|A#3 2F1F ....
....|..|C-3 RF.7 ....|C#5 UFF7 ....|D#3 2F.7 ....
....|..|D#2 2F.7 ....|--- .... ....|R-- .... ....
....|..|C-4 AF.7 ....|C#5 UFF7 ....|A#3 2F.7 ....
....|..|C-4 CF.7 ....|A#4 UFF7 ....|R-- .... ....
....|..|D#2 2F.A ....|--- .... ....|R-- .... ....
....|..|C-4 AF.7 ....|--- .... ....|D#3 2F.7 ....
....|..|C-4 CF.7 ....|--- .... ....|A#3 2F.7 ....
....|..|D#2 2F.7 ....|R-- .... ....|R-- .... ....
....|..|C-4 CF.7 ....|F-5 UFFF ....|A#3 2F1A ....
....|..|C-4 AF.7 ....|F-5 UFFF ....|D#3 2F.7 ....
....|..|D#2 2F.7 ....|--- .... ....|R-- .... ....
....|..|C-4 CF.7 ....|--- .... ....|A#3 2F.7 ....
....|..|C-3 RF.7 ....|--- .... ....|--- .... ....
....|..|D#2 2F.7 ....|R-- .... ....|R-- .... ....
....|..|B-8 JF.7 ....|D#5 UFFF ....|D#3 2F.7 ....
....|..|C-4 CF.7 ....|--- .... ....|A#3 2F.7 ....
....|..|D#2 2F.7 ....|R-- .... ....|R-- .... ....
....|..|R-- .... ....|F-5 UFF7 ....|A#3 2F17 ....
....|..|--- .... ....|A#4 UFFF ....|--- .... ....
....|..|--- .... ....|--- .... ....|--- .... ....
....|..|--- .... ....|--- .... ....|--- .... ....
....|..|--- .... ....|R-- .... ....|--- .... ....
....|..|--- .... ....|R-- .... ....|--- .... ....
....|..|--- .... ....|C#5 UFFF ....|--- .... ....
....|..|--- .... ....|--- .... ....|--- .... ....
....|..|--- .... ....|R-- .... ....|--- .... ....
....|..|--- .... ....|D#5 UFFF ....|--- .... ....
....|..|--- .... ....|F-5 UFF7 ....|--- .... ....
....|..|--- .... ....|--- .... ....|--- .... ....
....|..|--- .... ....|F-5 UFFF ....|--- .... ....
....|..|--- .... ....|R-- .... ....|--- .... ....
....|..|--- .... ....|R-- .... ....|--- .... ....
....|..|--- .... ....|C#5 UFFF ....|--- .... ....
....|..|--- .... ....|--- .... ....|--- .... ....
....|..|--- .... ....|R-- .... ....|--- .... ....
....|..|--- .... ....|D#5 UFFA ....|--- .... ....
....|..|--- .... ....|A#4 UFF7 ....|--- .... ....
....|..|--- .... ....|--- .... ....|--- .... ....
....|..|--- .... ....|F-5 UFFA ....|--- .... ....
....|..|--- .... ....|R-- .... ....|--- .... ....
....|..|--- .... ....|R-- .... ....|--- .... ....
....|..|--- .... ....|C#5 UFF7 ....|--- .... ....
....|..|--- .... ....|R-- .... ....|--- .... ....
....|..|--- .... ....|R-- .... ....|--- .... ....
....|..|--- .... ....|D#5 UFF7 ....|--- .... ....
....|..|--- .... ....|R-- .... ....|--- .... ....
....|..|--- .... ....|--- .... ....|R-- .... ....
....|..|--- .... ....|F-5 UFFF ....|G#3 2F2F ....
....|..|--- .... ....|--- .... ....|--- .... ....
....|..|--- .... ....|R-- .... ....|--- .... ....
....|..|--- .... ....|C#5 UFF7 ....|--- .... ....
....|..|--- .... ....|R-- .... ....|--- .... ....
....|..|--- .... ....|--- .... ....|--- .... ....
....|..|--- .... ....|--- .... ....|--- .... ....
....|..|--- .... ....|--- .... ....|--- .... ....
....|..|--- .... ....|R-- .... ....|R-- .... ....
....|..|--- .... ....|D-5 UFFF ....|G#3 2F2A ....
....|..|--- .... ....|D#5 UFFF ....|--- .... ....
....|..|--- .... ....|--- .... ....|--- .... ....
....|..|--- .... ....|--- .... ....|--- .... ....
....|..|--- .... ....|R-- .... ....|--- .... ....
....|..|--- .... ....|--- .... ....|--- .... ....
....|..|--- .... ....|R-- .... ....|--- .... ....
....|..|--- .... ....|A#4 UFFF ....|--- .... ....
....|..|--- .... ....|R-- .... ....|R-- .... ....
....|..|--- .... ....|F-5 UFF7 ....|G#3 2F27 ....
....|..|--- .... ....|D#5 UFFA ....|--- .... ....
....|..|--- .... ....|--- .... ....|--- .... ....
....|..|--- .... ....|--- .... ....|--- .... ....
....|..|--- .... ....|R-- .... ....|--- .... ....
....|..|--- .... ....|--- .... ....|--- .... ....
....|..|--- .... ....|C#5 UFFF ....|--- .... ....
....|..|--- .... ....|A#4 UFFA ....|--- .... ....
....|..|--- .... ....|R-- .... ....|--- .... ....
....|..|--- .... ....|D#5 UFFF ....|--- .... ....
....|..|--- .... ....|D#5 UFF7 ....|--- .... ....
....|..|--- .... ....|R-- .... ....|--- .... ....
....|..|--- .... ....|C#5 UFFF ....|--- .... ....
....|..|--- .... ....|R-- .... ....|--- .... ....
....|..|--- .... ....|--- .... ....|--- .... ....
....|..|--- .... ....|D#5 UFFF ....|--- .... ....
....|..|--- .... ....|A#4 UFFF ....|--- .... ....
....|..|--- .... ....|R-- .... ....|--- .... ....
....|..|--- .... ....|D#5 UFFA ....|--- .... ....
....|..|--- .... ....|--- .... ....|--- .... ....
....|..|--- .... ....|R-- .... ....|--- .... ....
....|..|--- .... ....|C#5 UFFA ....|--- .... ....
....|..|--- .... ....|R-- .... ....|--- .... ....
....|..|--- .... ....|--- .... ....|--- .... ....
....|..|--- .... ....|C#5 UFF7 ....|--- .... ....
....|..|--- .... ....|A#4 UFFA ....|--- .... ....
....|..|--- .... ....|R-- .... ....|--- .... ....
....|..|--- .... ....|D#5 UFF7 ....|--- .... ....
....|..|--- .... ....|--- .... ....|--- .... ....
....|..|--- .... ....|R-- .... ....|R-- .... ....

[Pattern27]
....|..|--- .... ....|C#5 UFF7 ....|G#3 2F3F ....
....|..|--- .... ....|A#4 UFFF ....|--- .... ....
....|..|--- .... ....|--- .... ....|--- .... ....
....|..|--- .... ....|D#5 UFF7 ....|--- .... ....
....|..|--- .... ....|A#4 UFF7 ....|--- .... ....
....|..|--- .... ....|G#4 UFFF ....|--- .... ....
....|..|--- .... ....|--- .... ....|--- .... ....
....|..|--- .... ....|A#4 UFFF ....|--- .... ....
....|..|--- .... ....|--- .... ....|R-- .... ....
....|..|--- .... ....|R-- .... ....|G#3 2F3A ....
....|..|--- .... ....|A#4 UFFF ....|--- .... ....
....|..|--- .... ....|--- .... ....|--- .... ....
....|..|--- .... ....|R-- .... ....|--- .... ....
....|..|--- .... ....|C#5 UFFF ....|--- .... ....
....|..|--- .... ....|G#4 UFFA ....|--- .... ....
....|..|--- .... ....|--- .... ....|--- .... ....
....|..|--- .... ....|A#4 UFFA ....|--- .... ....
....|..|--- .... ....|--- .... ....|R-- .... ....
....|..|--- .... ....|R-- .... ....|G#3 2F37 ....
....|..|--- .... ....|D#5 UFFF ....|--- .... ....
....|..|--- .... ....|--- .... ....|--- .... ....
....|..|--- .... ....|R-- .... ....|--- .... ....
....|..|--- .... ....|C#5 UFFA ....|--- .... ....
....|..|--- .... ....|G#4 UFF7 ....|--- .... ....
....|..|--- .... ....|--- .... ....|--- .... ....
....|..|--- .... ....|A#4 UFFF ....|--- .... ....
....|..|--- .... ....|--- .... ....|--- .... ....
....|..|--- .... ....|R-- .... ....|--- .... ....
....|..|--- .... ....|G#4 UFFF ....|--- .... ....
....|..|--- .... ....|--- .... ....|--- .... ....
....|..|--- .... ....|R-- .... ....|--- .... ....
....|..|--- .... ....|A#4 UFFF ....|--- .... ....
....|..|--- .... ....|R-- .... ....|--- .... ....
....|..|--- .... ....|R-- .... ....|--- .... ....
....|..|--- .... ....|C#5 UFFF ....|--- .... ....
....|..|--- .... ....|--- .... ....|--- .... ....
....|..|--- .... ....|R-- .... ....|--- .... ....
....|..|--- .... ....|D#5 UFF7 ....|--- .... ....
....|..|--- .... ....|--- .... ....|--- .... ....
....|..|--- .... ....|R-- .... ....|--- .... ....
....|..|--- .... ....|A#4 UFFA ....|--- .... ....
....|..|--- .... ....|D#5 UFFF ....|--- .... ....
....|..|--- .... ....|F-5 UFFF ....|--- .... ....
....|..|--- .... ....|A#4 UFF7 ....|--- .... ....
....|..|--- .... ....|--- .... ....|--- .... ....
....|..|--- .... ....|R-- .... ....|--- .... ....
....|..|--- .... ....|G#4 UFF7 ....|--- .... ....
....|..|--- .... ....|--- .... ....|R-- .... ....
....|..|--- .... ....|R-- .... ....|A#3 2F4F ....
....|..|--- .... ....|A#4 UFFF ....|--- .... ....
....|..|--- .... ....|D#5 UFFA ....|--- .... ....
....|..|--- .... ....|F-5 UFFA ....|--- .... ....
....|..|--- .... ....|G#4 UFFF ....|--- .... ....
....|..|--- .... ....|R-- .... ....|--- .... ....
....|..|--- .... ....|--- .... ....|--- .... ....
....|..|--- .... ....|A#4 UFFF ....|--- .... ....
....|..|--- .... ....|R-- .... ....|R-- .... ....
....|..|--- .... ....|--- .... ....|A#3 2F4A ....
....|..|--- .... ....|A#4 UFFF ....|--- .... ....
....|..|--- .... ....|D#5 UFF7 ....|--- .... ....
....|..|--- .... ....|F-5 UFF7 ....|--- .... ....
....|..|--- .... ....|F-5 UFFF ....|--- .... ....
....|..|--- .... ....|R-- .... ....|--- .... ....
....|..|--- .... ....|--- .... ....|--- .... ....
....|..|--- .... ....|A#4 UFFA ....|--- .... ....
....|..|--- .... ....|R-- .... ....|R-- .... ....
....|..|--- .... ....|R-- .... ....|A#3 2F47 ....
....|..|--- .... ....|A#4 UFFF ....|--- .... ....
....|..|--- .... ....|--- .... ....|--- .... ....
....|..|--- .... ....|R-- .... ....|--- .... ....
....|..|--- .... ....|G#4 UFF7 ....|--- .... ....
....|..|--- .... ....|R-- .... ....|--- .... ....
....|..|--- .... ....|--- .... ....|--- .... ....
....|..|--- .... ....|C#5 UFFF ....|--- .... ....
....|..|--- .... ....|R-- .... ....|--- .... ....
....|..|--- .... ....|R-- .... ....|--- .... ....
....|..|--- .... ....|D#5 UFFF ....|--- .... ....
....|..|--- .... ....|--- .... ....|--- .... ....
....|..|--- .... ....|R-- .... ....|--- .... ....
....|..|--- .... ....|C#5 UFFF ....|--- .... ....
....|..|--- .... ....|--- .... ....|--- .... ....
....|..|--- .... ....|C#5 UFFF ....|--- .... ....
....|..|--- .... ....|A#4 UFFF ....|--- .... ....
....|..|--- .... ....|--- .... ....|--- .... ....
....|..|--- .... ....|R-- .... ....|--- .... ....
....|..|--- .... ....|A#4 UFF7 ....|--- .... ....
....|..|--- .... ....|--- .... ....|--- .... ....
....|..|--- .... ....|R-- .... ....|--- .... ....
....|..|--- .... ....|C#5 UFFA ....|--- .... ....
....|..|--- .... ....|--- .... ....|--- .... ....
....|..|--- .... ....|C#5 UFFA ....|--- .... ....
....|..|--- .... ....|C#5 UFF7 ....|--- .... ....
....|..|--- .... ....|--- .... ....|--- .... ....
....|..|--- .... ....|R-- .... ....|R-- .... ....
....|..|--- .... ....|D#5 UFF7 ....|--- .... ....
....|..|--- .... ....|--- .... ....|--- .... ....

[Pattern28]
....|..|--- .... ....|R-- .... ....|--- .... ....
....|..|--- .... ....|C#5 UFF7 ....|--- .... ....
....|..|--- .... ....|--- .... ....|--- .... ....
....|..|--- .... ....|C#5 UFF7 ....|--- .... ....
....|..|--- .... ....|A#4 UFF7 ....|--- .... ....
....|..|--- .... ....|--- .... ....|--- .... ....
....|..|--- .... ....|R-- .... ....|R-- .... ....
....|..|--- .... ....|--- .... ....|--- .... ....
....|..|--- .... ....|--- .... ....|--- .... ....
....|..|--- .... ....|--- .... ....|--- .... ....
....|..|--- .... ....|--- .... ....|--- .... ....
....|..|--- .... ....|--- .... ....|--- .... ....
....|..|--- .... ....|--- .... ....|--- .... ....
....|..|--- .... ....|--- .... ....|--- .... ....
....|..|--- .... ....|--- .... ....|--- .... ....
