[Module]
VortexTrackerII=0
Version=3.5
Title=2p+-3me,5m+-9m+,10m+-12m+-3me+-1d+
Author=oisee ^ 4d 29.05.2010
NoteTable=4
ChipFreq=1750000
Speed=4
PlayOrder=L0,1,1,3,4,5,6,6,8,9,10,11,12,13,14,15,16,17,18,19,20,9,10,11,24,25,26,27,28,29,30,13,14,33,34,35,36,37,38,39,40,39,42,43,44,45,46,47


[Ornament1]
L0,0,5,5

[Ornament2]
L0,0,4,4

[Ornament3]
L0,0,3,3


[Sample1]
TnE +000_ +00_ F_
TnE +000_ +00_ F_
TnE +000_ +00_ F_
TnE +000_ +00_ D_
TnE +000_ +00_ B_
TnE +000_ +00_ B_ L

[Sample2]
TnE +000_ +00_ F_ L

[Sample3]
TnE +001_ +00_ F_
TnE +002_ +00_ F_
TnE +001_ +00_ E_
TnE +002_ +00_ E_
TnE +000_ +00_ E_ L
TnE -001_ +00_ E_
TnE -002_ +00_ E_
TnE -001_ +00_ E_
TnE +000_ +00_ E_
TnE +001_ +00_ E_
TnE +002_ +00_ E_
TnE +001_ +00_ E_

[Sample4]
TnE +002_ +00_ D_
TnE +002_ +00_ D_
TnE +002_ +00_ C_
TnE +002_ +00_ B_
TnE +002_ +00_ A_ L
TnE +002_ +00_ A_
TnE +002_ +00_ A_
TnE +002_ +00_ A_
TnE +002_ +00_ A_
TnE +002_ +00_ A_
TnE +002_ +00_ A_
TnE +002_ +00_ A_

[Sample5]
TnE +000_ +00_ F_
TnE +000_ +00_ F_
tne +000_ +00_ 0_ L

[Sample6]
TnE -001_ +00_ F_ L

[Sample7]
TnE +006_ +00_ F_ L

[Sample8]
tNe +000_ +00_ F_
tNe +000_ +00_ B_
tNe +000_ +00_ 7_
tNe +000_ +00_ 6- L

[Sample9]
TnE +080_ +00_ F_
TnE +100_ +00_ E_
TnE +180_ +00_ E_
TnE +200_ +00_ E_
TnE +240_ +00_ D_
TnE +280_ +00_ D_
TnE +2C0_ +00_ D_
TnE +300_ +00_ C_
TnE +300_ +00_ C_
TnE +340_ +00_ C_
TnE +340_ +00_ C_
TnE +380_ +00_ B_
TnE +380_ +00_ B_
TnE +400_ +00_ B_
TnE +400_ +00_ B_
TnE +480_ +00_ A_
TnE +500_ +00_ 9_
TnE +580_ +00_ 7_
TnE +600_ +00_ 4_
TnE +680_ +00_ 1_
TnE +000_ +00_ 0_ L

[Sample10]
Tne +1C0_ +00_ F_
Tne +280_ +00_ E_
Tne +380_ +00_ C_
Tne +440_ +00_ A_
Tne +480_ +00_ 8_
TnE +000_ +00_ 0_ L

[Sample11]
TNe +200_ -0A_ F_
tNe +000_ +0F_ A_
TNe +200_ -07_ E_
tNe +000_ +0E_ B- L

[Sample12]
TNE +0A0_ +05_ F_
TNE +140_ +02_ D_
TNE +140_ +02_ B_
TNE +100_ +00_ A_ L
TNE +140_ +00_ A_
TNE +200_ +00_ A-

[Sample13]
Tne +200_ +00_ F_
Tne +2C0_ +00_ F_
Tne +380_ +00_ E_
Tne +500_ +00_ C_
Tne +520_ +00_ 9_
tne +000_ +00_ 0_ L

[Sample14]
TNE -100_ +00_ F_
TNE -100_ +00_ D_
TNE -100_ +00_ A_
TNE -100_ +00_ 5_
tne +000_ +00_ 0_ L

[Sample15]
TNE -100_ +00_ 5_
TNE -100_ +00_ 8_
TNE -100_ +00_ B_
TNE -100_ +00_ F_
TNe -100_ +00_ 9- L

[Sample16]
TnE +000_ +00_ C_
TnE +000_ +00_ E_
TnE +000_ +00_ F_
TnE +000_ +00_ F_
TnE +000_ +00_ E_
TnE +000_ +00_ D_
TnE +000_ +00_ C_
TnE +000_ +00_ C_ L
TnE +001_ +00_ C_
TnE +002_ +00_ C_
TnE +003_ +00_ C_
TnE +001_ +00_ C_
TnE +000_ +00_ C_
TnE -001_ +00_ C_
TnE -002_ +00_ C_
TnE -003_ +00_ C_
TnE -001_ +00_ C_
TnE +000_ +00_ C_
TnE +000_ +00_ C_

[Sample17]
Tne +1C0_ +00_ F_
Tne +280_ +00_ D_
Tne +380_ +00_ 7_
TNE +000_ +00_ 0_ L

[Sample18]
TnE -00C_ +00_ 0_ L

[Sample19]
TNe +000_ +00_ F_
TNe +000_ +00_ C_
TNe +000_ +00_ 6_
TNe +000_ +01_ A- L

[Sample20]
TNE +140_ +00_ F_
tNE +000_ +00_ B- L

[Sample21]
tNE +000_ +00_ D_
tNE +000_ +00_ 8_
tNE +000_ +00_ 1_
TNE +000_ +00_ 0_ L

[Sample22]
TnE +000_ +00_ D_ L
TnE +000_ +00_ D_
tne +000_ +00_ 9_
tne +000_ +00_ 9_
TnE +000_ +00_ D_
TnE +000_ +00_ D_
tne +000_ +00_ 9_
tne +000_ +00_ 9_
TnE +000_ +00_ D_
TnE +000_ +00_ D_
TnE +000_ +00_ D_
TnE +000_ +00_ D_
TnE +000_ +00_ D_
TnE +000_ +00_ D_
tne +000_ +00_ 9_
tne +000_ +00_ 9_

[Sample23]
TnE +000_ +00_ F_ L
TnE +010_ +01_ F_
TnE +010_ +01_ F_
TnE +010_ +01_ F_
TnE +010_ +01_ F_
TnE +000_ +00_ F_
TnE +000_ +00_ F_
TnE -010_ -01_ F_
TnE -010_ -01_ F_
TnE -010_ -01_ F_
TnE -010_ -01_ F_
TnE +000_ +00_ F_

[Sample24]
TNe +000_ -01_ C_
TNe +000_ -01_ D_
TNe +000_ -01_ E_
TNe +000_ -01_ F_
TNe +000_ -01_ F_
TNe +000_ -01_ F_
TNe +000_ -01_ F_
TNe +000_ -01_ F_
TNe +000_ -01_ E_
TNe +000_ -01_ E_
TNe +000_ -01_ E_
TNe +000_ -01_ F_
TNe +000_ -01_ F_ L

[Sample25]
TNE +000_ +00_ F_
TNE +000_ +00_ F_ L
TNE +000_ +00_ F_
TNE +000_ +00_ F_
TNE +000_ +00_ F-

[Sample26]
tne +000_ +00_ 0_ L

[Sample27]
TnE +100_ +05_ F_
TnE +200_ +02_ A_
TnE +300_ +02_ 7_
TNE +400_ +00_ 3- L

[Sample28]
tne +000_ +00_ 0_ L

[Sample29]
tnE +000_ +00_ 0_ L

[Sample30]
TNE +000_ +00_ C+ L

[Sample31]
TNe +1C0_ +00_ F_
Tne +280_ +00_ E_
Tne +380_ +00_ C_
Tne +440_ +00_ A_
Tne +480_ +00_ 8_
TnE +000_ +00_ 0_ L

[Pattern0]
....|..|F-3 2F1F ....|--- .... ....|--- .... ....
....|..|--- .... ....|--- .... ....|--- .... ....
....|..|--- .... ....|--- .... ....|--- .... ....
....|..|--- .... ....|--- .... ....|--- .... ....
....|..|--- .... ....|--- .... ....|--- .... ....
....|..|--- .... ....|--- .... ....|--- .... ....
....|..|--- .... ....|--- .... ....|--- .... ....
....|..|--- .... ....|--- .... ....|--- .... ....
....|..|--- .... ....|--- .... ....|--- .... ....
....|..|F-3 2F1A ....|--- .... ....|--- .... ....
....|..|--- .... ....|--- .... ....|--- .... ....
....|..|--- .... ....|--- .... ....|--- .... ....
....|..|--- .... ....|--- .... ....|--- .... ....
....|..|--- .... ....|--- .... ....|--- .... ....
....|..|--- .... ....|--- .... ....|--- .... ....
....|..|R-- .... ....|--- .... ....|--- .... ....
....|..|--- .... ....|--- .... ....|--- .... ....
....|..|--- .... ....|--- .... ....|--- .... ....
....|..|F-3 2F17 ....|--- .... ....|--- .... ....
....|..|--- .... ....|--- .... ....|--- .... ....
....|..|--- .... ....|--- .... ....|--- .... ....
....|..|--- .... ....|--- .... ....|--- .... ....
....|..|--- .... ....|--- .... ....|--- .... ....
....|..|--- .... ....|--- .... ....|--- .... ....
....|..|A#3 2F2F ....|--- .... ....|--- .... ....
....|..|--- .... ....|--- .... ....|--- .... ....
....|..|--- .... ....|--- .... ....|--- .... ....
....|..|--- .... ....|--- .... ....|--- .... ....
....|..|--- .... ....|--- .... ....|--- .... ....
....|..|--- .... ....|--- .... ....|--- .... ....
....|..|--- .... ....|--- .... ....|--- .... ....
....|..|--- .... ....|--- .... ....|--- .... ....
....|..|--- .... ....|--- .... ....|--- .... ....
....|..|R-- .... ....|--- .... ....|--- .... ....
....|..|--- .... ....|--- .... ....|--- .... ....
....|..|--- .... ....|--- .... ....|--- .... ....
....|..|--- .... ....|--- .... ....|--- .... ....
....|..|--- .... ....|--- .... ....|--- .... ....
....|..|--- .... ....|--- .... ....|--- .... ....
....|..|R-- .... ....|--- .... ....|--- .... ....
....|..|--- .... ....|--- .... ....|--- .... ....
....|..|--- .... ....|--- .... ....|--- .... ....
....|..|A#3 2F27 ....|--- .... ....|--- .... ....
....|..|--- .... ....|--- .... ....|--- .... ....
....|..|--- .... ....|--- .... ....|--- .... ....
....|..|--- .... ....|--- .... ....|--- .... ....
....|..|--- .... ....|--- .... ....|--- .... ....
....|..|--- .... ....|--- .... ....|--- .... ....
....|..|C-4 2F1F ....|--- .... ....|--- .... ....
....|..|--- .... ....|--- .... ....|--- .... ....
....|..|--- .... ....|--- .... ....|--- .... ....
....|..|--- .... ....|--- .... ....|--- .... ....
....|..|--- .... ....|--- .... ....|--- .... ....
....|..|--- .... ....|--- .... ....|--- .... ....
....|..|--- .... ....|--- .... ....|--- .... ....
....|..|--- .... ....|--- .... ....|--- .... ....
....|..|--- .... ....|--- .... ....|--- .... ....
....|..|R-- .... ....|--- .... ....|--- .... ....
....|..|--- .... ....|--- .... ....|--- .... ....
....|..|--- .... ....|--- .... ....|--- .... ....
....|..|--- .... ....|--- .... ....|--- .... ....
....|..|--- .... ....|--- .... ....|--- .... ....
....|..|--- .... ....|--- .... ....|--- .... ....
....|..|R-- .... ....|--- .... ....|--- .... ....
....|..|--- .... ....|--- .... ....|--- .... ....
....|..|--- .... ....|--- .... ....|--- .... ....
....|..|C-4 2F17 ....|--- .... ....|--- .... ....
....|..|--- .... ....|--- .... ....|--- .... ....
....|..|--- .... ....|--- .... ....|--- .... ....
....|..|--- .... ....|--- .... ....|--- .... ....
....|..|--- .... ....|--- .... ....|--- .... ....
....|..|--- .... ....|--- .... ....|--- .... ....
....|..|C-4 2F3F ....|--- .... ....|--- .... ....
....|..|--- .... ....|--- .... ....|--- .... ....
....|..|--- .... ....|--- .... ....|--- .... ....
....|..|--- .... ....|--- .... ....|--- .... ....
....|..|--- .... ....|--- .... ....|--- .... ....
....|..|--- .... ....|--- .... ....|--- .... ....
....|..|--- .... ....|--- .... ....|--- .... ....
....|..|--- .... ....|--- .... ....|--- .... ....
....|..|--- .... ....|--- .... ....|--- .... ....
....|..|R-- .... ....|--- .... ....|--- .... ....
....|..|--- .... ....|--- .... ....|--- .... ....
....|..|--- .... ....|--- .... ....|--- .... ....
....|..|--- .... ....|--- .... ....|--- .... ....
....|..|--- .... ....|--- .... ....|--- .... ....
....|..|--- .... ....|--- .... ....|--- .... ....
....|..|R-- .... ....|--- .... ....|--- .... ....
....|..|--- .... ....|--- .... ....|--- .... ....
....|..|--- .... ....|--- .... ....|--- .... ....
....|..|C-4 2F37 ....|--- .... ....|--- .... ....
....|..|--- .... ....|--- .... ....|--- .... ....
....|..|--- .... ....|--- .... ....|--- .... ....
....|..|--- .... ....|--- .... ....|--- .... ....
....|..|--- .... ....|--- .... ....|--- .... ....
....|..|--- .... ....|--- .... ....|--- .... ....

[Pattern1]
....|..|F-3 2F1F ....|--- .... ....|--- .... ....
....|..|--- .... ....|--- .... ....|--- .... ....
....|..|--- .... ....|--- .... ....|--- .... ....
....|..|--- .... ....|--- .... ....|--- .... ....
....|..|--- .... ....|--- .... ....|--- .... ....
....|..|--- .... ....|--- .... ....|--- .... ....
....|..|--- .... ....|--- .... ....|--- .... ....
....|..|--- .... ....|--- .... ....|--- .... ....
....|..|--- .... ....|--- .... ....|--- .... ....
....|..|R-- .... ....|--- .... ....|--- .... ....
....|..|--- .... ....|--- .... ....|--- .... ....
....|..|--- .... ....|--- .... ....|--- .... ....
....|..|--- .... ....|--- .... ....|--- .... ....
....|..|--- .... ....|--- .... ....|--- .... ....
....|..|--- .... ....|--- .... ....|--- .... ....
....|..|R-- .... ....|--- .... ....|--- .... ....
....|..|--- .... ....|--- .... ....|--- .... ....
....|..|--- .... ....|--- .... ....|--- .... ....
....|..|F-3 2F17 ....|--- .... ....|--- .... ....
....|..|--- .... ....|--- .... ....|--- .... ....
....|..|--- .... ....|--- .... ....|--- .... ....
....|..|--- .... ....|--- .... ....|--- .... ....
....|..|--- .... ....|--- .... ....|--- .... ....
....|..|--- .... ....|--- .... ....|--- .... ....
....|..|A#3 2F2F ....|--- .... ....|--- .... ....
....|..|--- .... ....|--- .... ....|--- .... ....
....|..|--- .... ....|--- .... ....|--- .... ....
....|..|--- .... ....|--- .... ....|--- .... ....
....|..|--- .... ....|--- .... ....|--- .... ....
....|..|--- .... ....|--- .... ....|--- .... ....
....|..|--- .... ....|--- .... ....|--- .... ....
....|..|--- .... ....|--- .... ....|--- .... ....
....|..|--- .... ....|--- .... ....|--- .... ....
....|..|R-- .... ....|--- .... ....|--- .... ....
....|..|--- .... ....|--- .... ....|--- .... ....
....|..|--- .... ....|--- .... ....|--- .... ....
....|..|--- .... ....|--- .... ....|--- .... ....
....|..|--- .... ....|--- .... ....|--- .... ....
....|..|--- .... ....|--- .... ....|--- .... ....
....|..|R-- .... ....|--- .... ....|--- .... ....
....|..|--- .... ....|--- .... ....|--- .... ....
....|..|--- .... ....|--- .... ....|--- .... ....
....|..|A#3 2F27 ....|--- .... ....|--- .... ....
....|..|--- .... ....|--- .... ....|--- .... ....
....|..|--- .... ....|--- .... ....|--- .... ....
....|..|--- .... ....|--- .... ....|--- .... ....
....|..|--- .... ....|--- .... ....|--- .... ....
....|..|--- .... ....|--- .... ....|--- .... ....
....|..|C-4 2F1F ....|--- .... ....|--- .... ....
....|..|--- .... ....|--- .... ....|--- .... ....
....|..|--- .... ....|--- .... ....|--- .... ....
....|..|--- .... ....|--- .... ....|--- .... ....
....|..|--- .... ....|--- .... ....|--- .... ....
....|..|--- .... ....|--- .... ....|--- .... ....
....|..|--- .... ....|--- .... ....|--- .... ....
....|..|--- .... ....|--- .... ....|--- .... ....
....|..|--- .... ....|--- .... ....|--- .... ....
....|..|R-- .... ....|--- .... ....|--- .... ....
....|..|--- .... ....|--- .... ....|--- .... ....
....|..|--- .... ....|--- .... ....|--- .... ....
....|..|--- .... ....|--- .... ....|--- .... ....
....|..|--- .... ....|--- .... ....|--- .... ....
....|..|--- .... ....|--- .... ....|--- .... ....
....|..|R-- .... ....|--- .... ....|--- .... ....
....|..|--- .... ....|--- .... ....|--- .... ....
....|..|--- .... ....|--- .... ....|--- .... ....
....|..|C-4 2F17 ....|--- .... ....|--- .... ....
....|..|--- .... ....|--- .... ....|--- .... ....
....|..|--- .... ....|--- .... ....|--- .... ....
....|..|--- .... ....|--- .... ....|--- .... ....
....|..|--- .... ....|--- .... ....|--- .... ....
....|..|--- .... ....|--- .... ....|--- .... ....
....|..|C-4 2F3F ....|--- .... ....|--- .... ....
....|..|--- .... ....|--- .... ....|--- .... ....
....|..|--- .... ....|--- .... ....|--- .... ....
....|..|--- .... ....|--- .... ....|--- .... ....
....|..|--- .... ....|--- .... ....|--- .... ....
....|..|--- .... ....|--- .... ....|--- .... ....
....|..|--- .... ....|--- .... ....|--- .... ....
....|..|--- .... ....|--- .... ....|--- .... ....
....|..|--- .... ....|--- .... ....|--- .... ....
....|..|R-- .... ....|--- .... ....|--- .... ....
....|..|--- .... ....|--- .... ....|--- .... ....
....|..|--- .... ....|--- .... ....|--- .... ....
....|..|--- .... ....|--- .... ....|--- .... ....
....|..|--- .... ....|--- .... ....|--- .... ....
....|..|--- .... ....|--- .... ....|--- .... ....
....|..|R-- .... ....|--- .... ....|--- .... ....
....|..|--- .... ....|--- .... ....|--- .... ....
....|..|--- .... ....|--- .... ....|--- .... ....
....|..|C-4 2F37 ....|--- .... ....|--- .... ....
....|..|--- .... ....|--- .... ....|--- .... ....
....|..|--- .... ....|--- .... ....|--- .... ....
....|..|--- .... ....|--- .... ....|--- .... ....
....|..|--- .... ....|--- .... ....|--- .... ....
....|..|--- .... ....|--- .... ....|--- .... ....

[Pattern3]
....|..|F-3 2F1F ....|--- .... ....|--- .... ....
....|..|--- .... ....|--- .... ....|--- .... ....
....|..|--- .... ....|--- .... ....|--- .... ....
....|..|--- .... ....|--- .... ....|--- .... ....
....|..|--- .... ....|--- .... ....|--- .... ....
....|..|--- .... ....|--- .... ....|--- .... ....
....|..|--- .... ....|--- .... ....|--- .... ....
....|..|--- .... ....|--- .... ....|--- .... ....
....|..|--- .... ....|--- .... ....|--- .... ....
....|..|R-- .... ....|--- .... ....|--- .... ....
....|..|--- .... ....|--- .... ....|--- .... ....
....|..|--- .... ....|--- .... ....|--- .... ....
....|..|--- .... ....|--- .... ....|--- .... ....
....|..|--- .... ....|--- .... ....|--- .... ....
....|..|--- .... ....|--- .... ....|--- .... ....
....|..|R-- .... ....|--- .... ....|--- .... ....
....|..|--- .... ....|--- .... ....|--- .... ....
....|..|--- .... ....|--- .... ....|--- .... ....
....|..|F-3 2F17 ....|--- .... ....|--- .... ....
....|..|--- .... ....|--- .... ....|--- .... ....
....|..|--- .... ....|--- .... ....|--- .... ....
....|..|--- .... ....|--- .... ....|--- .... ....
....|..|--- .... ....|--- .... ....|--- .... ....
....|..|--- .... ....|--- .... ....|--- .... ....
....|..|A#3 2F2F ....|--- .... ....|--- .... ....
....|..|--- .... ....|--- .... ....|--- .... ....
....|..|--- .... ....|--- .... ....|--- .... ....
....|..|--- .... ....|--- .... ....|--- .... ....
....|..|--- .... ....|--- .... ....|--- .... ....
....|..|--- .... ....|--- .... ....|--- .... ....
....|..|--- .... ....|--- .... ....|--- .... ....
....|..|--- .... ....|--- .... ....|--- .... ....
....|..|--- .... ....|--- .... ....|--- .... ....
....|..|R-- .... ....|--- .... ....|--- .... ....
....|..|--- .... ....|--- .... ....|--- .... ....
....|..|--- .... ....|--- .... ....|--- .... ....
....|..|--- .... ....|--- .... ....|--- .... ....
....|..|--- .... ....|--- .... ....|--- .... ....
....|..|--- .... ....|--- .... ....|--- .... ....
....|..|R-- .... ....|--- .... ....|--- .... ....
....|..|--- .... ....|--- .... ....|--- .... ....
....|..|--- .... ....|--- .... ....|--- .... ....
....|..|A#3 2F27 ....|--- .... ....|--- .... ....
....|..|--- .... ....|--- .... ....|--- .... ....
....|..|--- .... ....|--- .... ....|--- .... ....
....|..|--- .... ....|--- .... ....|--- .... ....
....|..|--- .... ....|--- .... ....|--- .... ....
....|..|--- .... ....|--- .... ....|--- .... ....
....|..|C-4 2F1F ....|--- .... ....|--- .... ....
....|..|--- .... ....|--- .... ....|--- .... ....
....|..|--- .... ....|--- .... ....|--- .... ....
....|..|--- .... ....|--- .... ....|--- .... ....
....|..|--- .... ....|--- .... ....|--- .... ....
....|..|--- .... ....|--- .... ....|--- .... ....
....|..|--- .... ....|--- .... ....|--- .... ....
....|..|--- .... ....|--- .... ....|--- .... ....
....|..|--- .... ....|--- .... ....|--- .... ....
....|..|R-- .... ....|--- .... ....|--- .... ....
....|..|--- .... ....|--- .... ....|--- .... ....
....|..|--- .... ....|--- .... ....|--- .... ....
....|..|--- .... ....|--- .... ....|--- .... ....
....|..|--- .... ....|--- .... ....|--- .... ....
....|..|--- .... ....|--- .... ....|--- .... ....
....|..|R-- .... ....|--- .... ....|--- .... ....
....|..|--- .... ....|--- .... ....|--- .... ....
....|..|--- .... ....|--- .... ....|--- .... ....
....|..|C-4 2F17 ....|--- .... ....|--- .... ....
....|..|--- .... ....|--- .... ....|--- .... ....
....|..|--- .... ....|--- .... ....|--- .... ....
....|..|--- .... ....|--- .... ....|--- .... ....
....|..|--- .... ....|--- .... ....|--- .... ....
....|..|--- .... ....|--- .... ....|--- .... ....
....|..|C-4 2F3F ....|--- .... ....|--- .... ....
....|..|--- .... ....|--- .... ....|--- .... ....
....|..|--- .... ....|--- .... ....|--- .... ....
....|..|--- .... ....|--- .... ....|--- .... ....
....|..|--- .... ....|--- .... ....|--- .... ....
....|..|--- .... ....|--- .... ....|--- .... ....
....|..|--- .... ....|--- .... ....|--- .... ....
....|..|--- .... ....|--- .... ....|--- .... ....
....|..|--- .... ....|--- .... ....|--- .... ....
....|..|R-- .... ....|--- .... ....|--- .... ....
....|..|--- .... ....|--- .... ....|--- .... ....
....|..|--- .... ....|--- .... ....|--- .... ....
....|..|--- .... ....|--- .... ....|--- .... ....
....|..|--- .... ....|--- .... ....|--- .... ....
....|..|--- .... ....|--- .... ....|--- .... ....
....|..|R-- .... ....|--- .... ....|--- .... ....
....|..|F-3 2F1F ....|--- .... ....|C-4 AF.F ....
....|..|--- .... ....|--- .... ....|--- .... ....
....|..|C-4 2F37 ....|--- .... ....|--- .... ....
....|..|--- .... ....|--- .... ....|--- .... ....
....|..|--- .... ....|--- .... ....|--- .... ....
....|..|--- .... ....|--- .... ....|--- .... ....
....|..|--- .... ....|--- .... ....|--- .... ....
....|..|--- .... ....|--- .... ....|--- .... ....

[Pattern4]
....|..|R-- .... ....|--- .... ....|--- .... ....
....|..|F-3 2F1A ....|--- .... ....|C-4 AF.A ....
....|..|--- .... ....|--- .... ....|C-4 AF.F ....
....|..|--- .... ....|--- .... ....|R-- .... ....
....|..|--- .... ....|--- .... ....|C-4 LF.F ....
....|..|--- .... ....|--- .... ....|--- .... ....
....|..|--- .... ....|--- .... ....|C-3 RF.F ....
....|..|--- .... ....|--- .... ....|--- .... ....
....|..|--- .... ....|--- .... ....|C-3 RF.F ....
....|..|R-- .... ....|--- .... ....|R-- .... ....
....|..|F-3 2F17 ....|--- .... ....|C-4 LF.F ....
....|..|--- .... ....|--- .... ....|C-4 AF.F ....
....|..|--- .... ....|--- .... ....|C-5 BF.F ....
....|..|--- .... ....|--- .... ....|C-4 LF.A ....
....|..|--- .... ....|--- .... ....|C-5 BF.F ....
....|..|R-- .... ....|--- .... ....|R-- .... ....
....|..|--- .... ....|--- .... ....|C-4 LF.F ....
....|..|--- .... ....|--- .... ....|C-3 RF.A ....
....|..|--- .... ....|--- .... ....|C-4 LF.F ....
....|..|--- .... ....|--- .... ....|C-4 LF.A ....
....|..|--- .... ....|--- .... ....|C-4 AF.7 ....
....|..|--- .... ....|--- .... ....|R-- .... ....
....|..|--- .... ....|--- .... ....|C-4 LF.F ....
....|..|--- .... ....|--- .... ....|C-4 AF.F ....
....|..|A#3 2F2F ....|--- .... ....|C-4 AF.F ....
....|..|--- .... ....|--- .... ....|C-4 LF.A ....
....|..|--- .... ....|--- .... ....|C-3 RF.7 ....
....|..|--- .... ....|--- .... ....|R-- .... ....
....|..|--- .... ....|--- .... ....|C-4 LF.F ....
....|..|--- .... ....|--- .... ....|C-4 AF.F ....
....|..|--- .... ....|--- .... ....|C-4 AF.F ....
....|..|--- .... ....|--- .... ....|C-4 LF.A ....
....|..|--- .... ....|--- .... ....|C-4 AF.F ....
....|..|R-- .... ....|--- .... ....|R-- .... ....
....|..|--- .... ....|--- .... ....|C-4 LF.F ....
....|..|--- .... ....|--- .... ....|R-- .... ....
....|..|--- .... ....|--- .... ....|C-5 BF.F ....
....|..|--- .... ....|--- .... ....|C-4 LF.A ....
....|..|--- .... ....|--- .... ....|C-5 BF.F ....
....|..|R-- .... ....|--- .... ....|R-- .... ....
....|..|--- .... ....|--- .... ....|C-4 LF.F ....
....|..|--- .... ....|--- .... ....|C-4 AF.7 ....
....|..|A#3 2F27 ....|--- .... ....|C-4 LF.F ....
....|..|--- .... ....|--- .... ....|C-4 LF.A ....
....|..|--- .... ....|--- .... ....|R-- .... ....
....|..|--- .... ....|--- .... ....|C-5 BF.A ....
....|..|--- .... ....|--- .... ....|C-4 LF.F ....
....|..|--- .... ....|--- .... ....|C-4 AF.7 ....
....|..|C-4 2F1F ....|--- .... ....|C-4 AF.F ....
....|..|--- .... ....|--- .... ....|C-4 LF.A ....
....|..|--- .... ....|--- .... ....|C-4 AF.F ....
....|..|--- .... ....|--- .... ....|R-- .... ....
....|..|--- .... ....|--- .... ....|C-4 LF.F ....
....|..|--- .... ....|--- .... ....|R-- .... ....
....|..|--- .... ....|--- .... ....|C-3 RF.F ....
....|..|--- .... ....|--- .... ....|C-4 LF.A ....
....|..|--- .... ....|--- .... ....|C-3 RF.F ....
....|..|R-- .... ....|--- .... ....|R-- .... ....
....|..|--- .... ....|--- .... ....|C-4 LF.F ....
....|..|--- .... ....|--- .... ....|C-4 AF.F ....
....|..|--- .... ....|--- .... ....|C-5 BF.F ....
....|..|--- .... ....|--- .... ....|C-4 LF.A ....
....|..|--- .... ....|--- .... ....|C-5 BF.F ....
....|..|R-- .... ....|--- .... ....|R-- .... ....
....|..|--- .... ....|--- .... ....|C-4 LF.F ....
....|..|--- .... ....|--- .... ....|C-3 RF.A ....
....|..|C-4 2F17 ....|--- .... ....|C-4 LF.F ....
....|..|--- .... ....|--- .... ....|C-4 LF.A ....
....|..|--- .... ....|--- .... ....|C-4 AF.7 ....
....|..|--- .... ....|--- .... ....|R-- .... ....
....|..|--- .... ....|--- .... ....|C-4 LF.F ....
....|..|--- .... ....|--- .... ....|C-4 AF.F ....
....|..|C-4 2F3F ....|--- .... ....|C-4 AF.F ....
....|..|--- .... ....|--- .... ....|C-4 LF.A ....
....|..|--- .... ....|--- .... ....|C-3 RF.7 ....
....|..|--- .... ....|--- .... ....|R-- .... ....
....|..|--- .... ....|--- .... ....|C-4 LF.F ....
....|..|--- .... ....|--- .... ....|C-4 AF.F ....
....|..|--- .... ....|--- .... ....|C-4 AF.F ....
....|..|--- .... ....|--- .... ....|C-4 LF.A ....
....|..|--- .... ....|--- .... ....|C-4 AF.F ....
....|..|R-- .... ....|--- .... ....|R-- .... ....
....|..|--- .... ....|--- .... ....|C-4 LF.F ....
....|..|--- .... ....|--- .... ....|R-- .... ....
....|..|--- .... ....|--- .... ....|C-5 BF.F ....
....|..|--- .... ....|--- .... ....|C-4 LF.A ....
....|..|--- .... ....|--- .... ....|C-5 BF.F ....
....|..|R-- .... ....|--- .... ....|R-- .... ....
....|..|--- .... ....|--- .... ....|C-4 LF.F ....
....|..|--- .... ....|--- .... ....|C-4 AF.7 ....
....|..|C-4 2F37 ....|--- .... ....|C-4 LF.F ....
....|..|--- .... ....|--- .... ....|C-4 LF.A ....
....|..|--- .... ....|--- .... ....|R-- .... ....
....|..|--- .... ....|--- .... ....|C-5 BF.A ....
....|..|--- .... ....|--- .... ....|C-4 LF.F ....
....|..|--- .... ....|--- .... ....|C-4 AF.7 ....

[Pattern5]
....|..|F-3 2F1F ....|--- .... ....|C-4 AF.F ....
....|..|--- .... ....|--- .... ....|C-4 LF.A ....
....|..|--- .... ....|--- .... ....|C-4 AF.F ....
....|..|--- .... ....|--- .... ....|R-- .... ....
....|..|--- .... ....|--- .... ....|C-4 LF.F ....
....|..|--- .... ....|--- .... ....|R-- .... ....
....|..|--- .... ....|--- .... ....|C-3 RF.F ....
....|..|--- .... ....|--- .... ....|C-4 LF.A ....
....|..|--- .... ....|--- .... ....|C-3 RF.F ....
....|..|R-- .... ....|--- .... ....|R-- .... ....
....|..|--- .... ....|--- .... ....|C-4 LF.F ....
....|..|--- .... ....|--- .... ....|C-4 AF.F ....
....|..|--- .... ....|--- .... ....|C-5 BF.F ....
....|..|--- .... ....|--- .... ....|C-4 LF.A ....
....|..|--- .... ....|--- .... ....|C-5 BF.F ....
....|..|R-- .... ....|--- .... ....|R-- .... ....
....|..|--- .... ....|--- .... ....|C-4 LF.F ....
....|..|--- .... ....|--- .... ....|C-3 RF.A ....
....|..|F-3 2F17 ....|--- .... ....|C-4 LF.F ....
....|..|--- .... ....|--- .... ....|C-4 LF.A ....
....|..|--- .... ....|--- .... ....|C-4 AF.7 ....
....|..|--- .... ....|--- .... ....|R-- .... ....
....|..|--- .... ....|--- .... ....|C-4 LF.F ....
....|..|--- .... ....|--- .... ....|C-4 AF.F ....
....|..|A#3 2F2F ....|--- .... ....|C-4 AF.F ....
....|..|--- .... ....|--- .... ....|C-4 LF.A ....
....|..|--- .... ....|--- .... ....|C-3 RF.7 ....
....|..|--- .... ....|--- .... ....|R-- .... ....
....|..|--- .... ....|--- .... ....|C-4 LF.F ....
....|..|--- .... ....|--- .... ....|C-4 AF.F ....
....|..|--- .... ....|--- .... ....|C-4 AF.F ....
....|..|--- .... ....|--- .... ....|C-4 LF.A ....
....|..|--- .... ....|--- .... ....|C-4 AF.F ....
....|..|R-- .... ....|--- .... ....|R-- .... ....
....|..|--- .... ....|--- .... ....|C-4 LF.F ....
....|..|--- .... ....|--- .... ....|R-- .... ....
....|..|--- .... ....|--- .... ....|C-5 BF.F ....
....|..|--- .... ....|--- .... ....|C-4 LF.A ....
....|..|--- .... ....|--- .... ....|C-5 BF.F ....
....|..|R-- .... ....|--- .... ....|R-- .... ....
....|..|--- .... ....|--- .... ....|C-4 LF.F ....
....|..|--- .... ....|--- .... ....|C-4 AF.7 ....
....|..|A#3 2F27 ....|--- .... ....|C-4 LF.F ....
....|..|--- .... ....|--- .... ....|C-4 LF.A ....
....|..|--- .... ....|--- .... ....|R-- .... ....
....|..|--- .... ....|--- .... ....|C-5 BF.A ....
....|..|--- .... ....|--- .... ....|C-4 LF.F ....
....|..|--- .... ....|--- .... ....|C-4 AF.7 ....
....|..|C-4 2F1F ....|--- .... ....|C-4 AF.F ....
....|..|--- .... ....|--- .... ....|C-4 LF.A ....
....|..|--- .... ....|--- .... ....|C-4 AF.F ....
....|..|--- .... ....|--- .... ....|R-- .... ....
....|..|--- .... ....|--- .... ....|C-4 LF.F ....
....|..|--- .... ....|--- .... ....|R-- .... ....
....|..|--- .... ....|--- .... ....|C-3 RF.F ....
....|..|--- .... ....|--- .... ....|C-4 LF.A ....
....|..|--- .... ....|--- .... ....|C-3 RF.F ....
....|..|R-- .... ....|--- .... ....|R-- .... ....
....|..|--- .... ....|--- .... ....|C-4 LF.F ....
....|..|--- .... ....|--- .... ....|C-4 AF.F ....
....|..|--- .... ....|--- .... ....|C-5 BF.F ....
....|..|--- .... ....|--- .... ....|C-4 LF.A ....
....|..|--- .... ....|--- .... ....|C-5 BF.F ....
....|..|R-- .... ....|--- .... ....|R-- .... ....
....|..|--- .... ....|--- .... ....|C-4 LF.F ....
....|..|--- .... ....|--- .... ....|C-3 RF.A ....
....|..|C-4 2F17 ....|--- .... ....|C-4 LF.F ....
....|..|--- .... ....|--- .... ....|C-4 LF.A ....
....|..|--- .... ....|--- .... ....|C-4 AF.7 ....
....|..|--- .... ....|--- .... ....|R-- .... ....
....|..|--- .... ....|--- .... ....|C-4 LF.F ....
....|..|--- .... ....|--- .... ....|C-4 AF.F ....
....|..|C-4 2F3F ....|--- .... ....|C-4 AF.F ....
....|..|--- .... ....|--- .... ....|C-4 LF.A ....
....|..|--- .... ....|--- .... ....|C-3 RF.7 ....
....|..|--- .... ....|--- .... ....|R-- .... ....
....|..|--- .... ....|--- .... ....|C-4 LF.F ....
....|..|--- .... ....|--- .... ....|C-4 AF.F ....
....|..|--- .... ....|--- .... ....|C-4 AF.F ....
....|..|--- .... ....|--- .... ....|C-4 LF.A ....
....|..|--- .... ....|--- .... ....|C-4 AF.F ....
....|..|R-- .... ....|--- .... ....|R-- .... ....
....|..|--- .... ....|--- .... ....|C-4 LF.F ....
....|..|--- .... ....|--- .... ....|R-- .... ....
....|..|--- .... ....|--- .... ....|C-5 BF.F ....
....|..|--- .... ....|--- .... ....|C-4 LF.A ....
....|..|--- .... ....|--- .... ....|C-5 BF.F ....
....|..|R-- .... ....|--- .... ....|R-- .... ....
....|..|--- .... ....|--- .... ....|C-4 LF.F ....
....|..|--- .... ....|--- .... ....|C-4 AF.7 ....
....|..|C-4 2F37 ....|--- .... ....|C-4 LF.F ....
....|..|--- .... ....|--- .... ....|C-4 LF.A ....
....|..|--- .... ....|--- .... ....|R-- .... ....
....|..|--- .... ....|--- .... ....|C-5 BF.A ....
....|..|--- .... ....|--- .... ....|C-4 LF.F ....
....|..|--- .... ....|--- .... ....|C-4 AF.7 ....

[Pattern6]
 A#3|..|F-3 2F1F ....|--- .... ....|A#1 2A.F ....
 A#3|..|A#1 2A.F ....|--- .... ....|C-4 LF.A ....
....|..|--- .... ....|--- .... ....|C-4 AF.F ....
....|..|--- .... ....|--- .... ....|R-- .... ....
....|..|--- .... ....|--- .... ....|C-4 LF.F ....
....|..|--- .... ....|--- .... ....|R-- .... ....
....|..|--- .... ....|--- .... ....|C-3 RF.F ....
....|..|--- .... ....|--- .... ....|C-4 LF.A ....
....|..|--- .... ....|--- .... ....|C-3 RF.F ....
....|..|R-- .... ....|--- .... ....|R-- .... ....
 A#3|..|A#1 2F.A ....|--- .... ....|C-4 LF.F ....
....|..|--- .... ....|--- .... ....|C-4 AF.F ....
....|..|--- .... ....|--- .... ....|C-5 BF.F ....
....|..|--- .... ....|--- .... ....|C-4 LF.A ....
....|..|--- .... ....|--- .... ....|C-5 BF.F ....
....|..|R-- .... ....|--- .... ....|R-- .... ....
....|..|--- .... ....|--- .... ....|C-4 LF.F ....
....|..|--- .... ....|--- .... ....|C-3 RF.A ....
....|..|F-3 2F17 ....|--- .... ....|C-4 LF.F ....
 A#3|..|A#1 2F.7 ....|--- .... ....|C-4 LF.A ....
....|..|--- .... ....|--- .... ....|C-4 AF.7 ....
....|..|--- .... ....|--- .... ....|R-- .... ....
....|..|--- .... ....|--- .... ....|C-4 LF.F ....
....|..|--- .... ....|--- .... ....|C-4 AF.F ....
....|..|A#3 2F2F ....|--- .... ....|C-4 AF.F ....
....|..|--- .... ....|--- .... ....|C-4 LF.A ....
....|..|--- .... ....|--- .... ....|C-3 RF.7 ....
....|..|--- .... ....|--- .... ....|R-- .... ....
....|..|--- .... ....|--- .... ....|C-4 LF.F ....
....|..|--- .... ....|--- .... ....|C-4 AF.F ....
....|..|--- .... ....|--- .... ....|C-4 AF.F ....
....|..|--- .... ....|--- .... ....|C-4 LF.A ....
....|..|--- .... ....|--- .... ....|C-4 AF.F ....
....|..|R-- .... ....|--- .... ....|R-- .... ....
....|..|--- .... ....|--- .... ....|C-4 LF.F ....
....|..|--- .... ....|--- .... ....|R-- .... ....
....|..|--- .... ....|--- .... ....|C-5 BF.F ....
....|..|--- .... ....|--- .... ....|C-4 LF.A ....
....|..|--- .... ....|--- .... ....|C-5 BF.F ....
....|..|R-- .... ....|--- .... ....|R-- .... ....
....|..|--- .... ....|--- .... ....|C-4 LF.F ....
....|..|--- .... ....|--- .... ....|C-4 AF.7 ....
....|..|A#3 2F27 ....|--- .... ....|C-4 LF.F ....
....|..|--- .... ....|--- .... ....|C-4 LF.A ....
....|..|--- .... ....|--- .... ....|R-- .... ....
....|..|--- .... ....|--- .... ....|C-5 BF.A ....
....|..|--- .... ....|--- .... ....|C-4 LF.F ....
....|..|--- .... ....|--- .... ....|C-4 AF.7 ....
 F-3|..|C-4 2F1F ....|--- .... ....|F-1 2A.F ....
 F-3|..|F-1 2A.F ....|--- .... ....|C-4 LF.A ....
....|..|--- .... ....|--- .... ....|C-4 AF.F ....
....|..|--- .... ....|--- .... ....|R-- .... ....
....|..|--- .... ....|--- .... ....|C-4 LF.F ....
....|..|--- .... ....|--- .... ....|R-- .... ....
....|..|--- .... ....|--- .... ....|C-3 RF.F ....
....|..|--- .... ....|--- .... ....|C-4 LF.A ....
....|..|--- .... ....|--- .... ....|C-3 RF.F ....
....|..|R-- .... ....|--- .... ....|R-- .... ....
 F-3|..|F-1 2F.A ....|--- .... ....|C-4 LF.F ....
....|..|--- .... ....|--- .... ....|C-4 AF.F ....
....|..|--- .... ....|--- .... ....|C-5 BF.F ....
....|..|--- .... ....|--- .... ....|C-4 LF.A ....
....|..|--- .... ....|--- .... ....|C-5 BF.F ....
....|..|R-- .... ....|--- .... ....|R-- .... ....
....|..|--- .... ....|--- .... ....|C-4 LF.F ....
....|..|--- .... ....|--- .... ....|C-3 RF.A ....
....|..|C-4 2F17 ....|--- .... ....|C-4 LF.F ....
 F-3|..|F-1 2F.7 ....|--- .... ....|C-4 LF.A ....
....|..|--- .... ....|--- .... ....|C-4 AF.7 ....
....|..|--- .... ....|--- .... ....|R-- .... ....
....|..|--- .... ....|--- .... ....|C-4 LF.F ....
....|..|--- .... ....|--- .... ....|C-4 AF.F ....
....|..|C-4 2F3F ....|--- .... ....|C-4 AF.F ....
....|..|--- .... ....|--- .... ....|C-4 LF.A ....
....|..|--- .... ....|--- .... ....|C-3 RF.7 ....
....|..|--- .... ....|--- .... ....|R-- .... ....
....|..|--- .... ....|--- .... ....|C-4 LF.F ....
....|..|--- .... ....|--- .... ....|C-4 AF.F ....
....|..|--- .... ....|--- .... ....|C-4 AF.F ....
....|..|--- .... ....|--- .... ....|C-4 LF.A ....
....|..|--- .... ....|--- .... ....|C-4 AF.F ....
....|..|R-- .... ....|--- .... ....|R-- .... ....
....|..|--- .... ....|--- .... ....|C-4 LF.F ....
....|..|--- .... ....|--- .... ....|R-- .... ....
....|..|--- .... ....|--- .... ....|C-5 BF.F ....
....|..|--- .... ....|--- .... ....|C-4 LF.A ....
....|..|--- .... ....|--- .... ....|C-5 BF.F ....
....|..|R-- .... ....|--- .... ....|R-- .... ....
....|..|--- .... ....|--- .... ....|C-4 LF.F ....
....|..|--- .... ....|--- .... ....|C-4 AF.7 ....
....|..|C-4 2F37 ....|--- .... ....|C-4 LF.F ....
....|..|--- .... ....|--- .... ....|C-4 LF.A ....
....|..|--- .... ....|--- .... ....|R-- .... ....
....|..|--- .... ....|--- .... ....|C-5 BF.A ....
....|..|--- .... ....|--- .... ....|C-4 LF.F ....
....|..|--- .... ....|--- .... ....|C-4 AF.7 ....

[Pattern8]
 A#3|..|F-3 2F1F ....|A#5 2F.F ....|A#1 2A.F ....
 A#3|..|A#1 2A.F ....|--- .... ....|C-4 LF.A ....
....|..|--- .... ....|C-4 2F.F ....|C-4 AF.F ....
....|..|--- .... ....|A#3 2F.F ....|R-- .... ....
....|..|--- .... ....|--- .... ....|C-4 LF.F ....
....|..|--- .... ....|--- .... ....|R-- .... ....
....|..|--- .... ....|--- .... ....|C-3 RF.F ....
....|..|--- .... ....|--- .... ....|C-4 LF.A ....
....|..|--- .... ....|--- .... ....|C-3 RF.F ....
....|..|R-- .... ....|A#5 2F.A ....|R-- .... ....
 A#3|..|A#1 2F.A ....|--- .... ....|C-4 LF.F ....
....|..|--- .... ....|C-4 2F.A ....|C-4 AF.F ....
....|..|--- .... ....|R-- .... ....|C-5 BF.F ....
....|..|--- .... ....|--- .... ....|C-4 LF.A ....
....|..|--- .... ....|--- .... ....|C-5 BF.F ....
....|..|R-- .... ....|--- .... ....|R-- .... ....
....|..|--- .... ....|--- .... ....|C-4 LF.F ....
....|..|--- .... ....|--- .... ....|C-3 RF.A ....
....|..|F-3 2F17 ....|A#5 2F.7 ....|C-4 LF.F ....
 A#3|..|A#1 2F.7 ....|--- .... ....|C-4 LF.A ....
....|..|--- .... ....|C-4 2F.7 ....|C-4 AF.7 ....
....|..|--- .... ....|A#3 2F.7 ....|R-- .... ....
....|..|--- .... ....|--- .... ....|C-4 LF.F ....
....|..|--- .... ....|--- .... ....|C-4 AF.F ....
....|..|A#3 2F2F ....|--- .... ....|C-4 AF.F ....
....|..|--- .... ....|--- .... ....|C-4 LF.A ....
....|..|--- .... ....|--- .... ....|C-3 RF.7 ....
....|..|--- .... ....|--- .... ....|R-- .... ....
....|..|--- .... ....|--- .... ....|C-4 LF.F ....
....|..|--- .... ....|--- .... ....|C-4 AF.F ....
....|..|--- .... ....|R-- .... ....|C-4 AF.F ....
....|..|--- .... ....|--- .... ....|C-4 LF.A ....
....|..|--- .... ....|--- .... ....|C-4 AF.F ....
....|..|R-- .... ....|--- .... ....|R-- .... ....
....|..|--- .... ....|--- .... ....|C-4 LF.F ....
....|..|--- .... ....|--- .... ....|R-- .... ....
....|..|--- .... ....|--- .... ....|C-5 BF.F ....
....|..|--- .... ....|--- .... ....|C-4 LF.A ....
....|..|--- .... ....|--- .... ....|C-5 BF.F ....
....|..|R-- .... ....|--- .... ....|R-- .... ....
....|..|--- .... ....|--- .... ....|C-4 LF.F ....
....|..|--- .... ....|--- .... ....|C-4 AF.7 ....
....|..|A#3 2F27 ....|--- .... ....|C-4 LF.F ....
....|..|--- .... ....|--- .... ....|C-4 LF.A ....
....|..|--- .... ....|--- .... ....|R-- .... ....
....|..|--- .... ....|--- .... ....|C-5 BF.A ....
....|..|--- .... ....|--- .... ....|C-4 LF.F ....
....|..|--- .... ....|--- .... ....|C-4 AF.7 ....
 F-3|..|C-4 2F1F ....|D-4 2F.F ....|F-1 2A.F ....
 F-3|..|F-1 2A.F ....|--- .... ....|C-4 LF.A ....
....|..|--- .... ....|C-4 2F.F ....|C-4 AF.F ....
....|..|--- .... ....|A#3 2F.F ....|R-- .... ....
....|..|--- .... ....|--- .... ....|C-4 LF.F ....
....|..|--- .... ....|--- .... ....|R-- .... ....
....|..|--- .... ....|--- .... ....|C-3 RF.F ....
....|..|--- .... ....|--- .... ....|C-4 LF.A ....
....|..|--- .... ....|--- .... ....|C-3 RF.F ....
....|..|R-- .... ....|D-4 2F.A ....|R-- .... ....
 F-3|..|F-1 2F.A ....|--- .... ....|C-4 LF.F ....
....|..|--- .... ....|C-4 2F.A ....|C-4 AF.F ....
....|..|--- .... ....|R-- .... ....|C-5 BF.F ....
....|..|--- .... ....|--- .... ....|C-4 LF.A ....
....|..|--- .... ....|--- .... ....|C-5 BF.F ....
....|..|R-- .... ....|--- .... ....|R-- .... ....
....|..|--- .... ....|--- .... ....|C-4 LF.F ....
....|..|--- .... ....|--- .... ....|C-3 RF.A ....
....|..|C-4 2F17 ....|G#5 2F.F ....|C-4 LF.F ....
 F-3|..|F-1 2F.7 ....|--- .... ....|C-4 LF.A ....
....|..|--- .... ....|C-4 2F.7 ....|C-4 AF.7 ....
....|..|--- .... ....|A#5 2F.F ....|R-- .... ....
....|..|--- .... ....|--- .... ....|C-4 LF.F ....
....|..|--- .... ....|--- .... ....|C-4 AF.F ....
....|..|C-4 2F3F ....|--- .... ....|C-4 AF.F ....
....|..|--- .... ....|--- .... ....|C-4 LF.A ....
....|..|--- .... ....|G#5 2F.F ....|C-3 RF.7 ....
....|..|--- .... ....|G#5 2F.A ....|R-- .... ....
....|..|--- .... ....|--- .... ....|C-4 LF.F ....
....|..|--- .... ....|--- .... ....|C-4 AF.F ....
....|..|--- .... ....|R-- .... ....|C-4 AF.F ....
....|..|--- .... ....|--- .... ....|C-4 LF.A ....
....|..|--- .... ....|G-5 2F.F ....|C-4 AF.F ....
....|..|R-- .... ....|--- .... ....|R-- .... ....
....|..|--- .... ....|--- .... ....|C-4 LF.F ....
....|..|--- .... ....|G#5 2F.A ....|R-- .... ....
....|..|--- .... ....|G#5 2F.7 ....|C-5 BF.F ....
....|..|--- .... ....|--- .... ....|C-4 LF.A ....
....|..|--- .... ....|G#5 2F.F ....|C-5 BF.F ....
....|..|R-- .... ....|A#5 2F.7 ....|R-- .... ....
....|..|--- .... ....|--- .... ....|C-4 LF.F ....
....|..|--- .... ....|G-5 2F.A ....|C-4 AF.7 ....
....|..|C-4 2F37 ....|--- .... ....|C-4 LF.F ....
....|..|--- .... ....|--- .... ....|C-4 LF.A ....
....|..|--- .... ....|G-5 2F.F ....|R-- .... ....
....|..|--- .... ....|--- .... ....|C-5 BF.A ....
....|..|--- .... ....|--- .... ....|C-4 LF.F ....
....|..|--- .... ....|G#5 2F.A ....|C-4 AF.7 ....

[Pattern9]
 A#3|..|F-3 2F1F ....|D-4 2F.F ....|A#1 2A.F ....
 A#3|..|A#1 2A.F ....|--- .... ....|C-4 LF.A ....
....|..|--- .... ....|C-4 2F.F ....|C-4 AF.F ....
....|..|--- .... ....|A#3 2F.F ....|R-- .... ....
....|..|--- .... ....|--- .... ....|C-4 LF.F ....
....|..|--- .... ....|G-5 2F.A ....|R-- .... ....
....|..|--- .... ....|--- .... ....|C-3 RF.F ....
....|..|--- .... ....|--- .... ....|C-4 LF.A ....
....|..|--- .... ....|G#5 2F.7 ....|C-3 RF.F ....
....|..|R-- .... ....|D-4 2F.A ....|R-- .... ....
 A#3|..|A#1 2F.A ....|--- .... ....|C-4 LF.F ....
....|..|--- .... ....|C-4 2F.A ....|C-4 AF.F ....
....|..|--- .... ....|F-5 2F.F ....|C-5 BF.F ....
....|..|--- .... ....|--- .... ....|C-4 LF.A ....
....|..|--- .... ....|G-5 2F.7 ....|C-5 BF.F ....
....|..|R-- .... ....|--- .... ....|R-- .... ....
....|..|--- .... ....|--- .... ....|C-4 LF.F ....
....|..|--- .... ....|--- .... ....|C-3 RF.A ....
....|..|F-3 2F17 ....|D-4 2F.7 ....|C-4 LF.F ....
 A#3|..|A#1 2F.7 ....|--- .... ....|C-4 LF.A ....
....|..|--- .... ....|C-4 2F.7 ....|C-4 AF.7 ....
....|..|--- .... ....|A#3 2F.7 ....|R-- .... ....
....|..|--- .... ....|--- .... ....|C-4 LF.F ....
....|..|--- .... ....|--- .... ....|C-4 AF.F ....
....|..|A#3 2F2F ....|--- .... ....|C-4 AF.F ....
....|..|--- .... ....|--- .... ....|C-4 LF.A ....
....|..|--- .... ....|--- .... ....|C-3 RF.7 ....
....|..|--- .... ....|--- .... ....|R-- .... ....
....|..|--- .... ....|--- .... ....|C-4 LF.F ....
....|..|--- .... ....|--- .... ....|C-4 AF.F ....
....|..|--- .... ....|F-5 2F.7 ....|C-4 AF.F ....
....|..|--- .... ....|--- .... ....|C-4 LF.A ....
....|..|--- .... ....|--- .... ....|C-4 AF.F ....
....|..|R-- .... ....|--- .... ....|R-- .... ....
....|..|--- .... ....|--- .... ....|C-4 LF.F ....
....|..|--- .... ....|--- .... ....|R-- .... ....
....|..|--- .... ....|--- .... ....|C-5 BF.F ....
....|..|--- .... ....|--- .... ....|C-4 LF.A ....
....|..|--- .... ....|--- .... ....|C-5 BF.F ....
....|..|R-- .... ....|--- .... ....|R-- .... ....
....|..|--- .... ....|--- .... ....|C-4 LF.F ....
....|..|--- .... ....|--- .... ....|C-4 AF.7 ....
....|..|A#3 2F27 ....|--- .... ....|C-4 LF.F ....
....|..|--- .... ....|--- .... ....|C-4 LF.A ....
....|..|--- .... ....|--- .... ....|R-- .... ....
....|..|--- .... ....|D-4 2F.F ....|C-5 BF.A ....
....|..|--- .... ....|--- .... ....|C-4 LF.F ....
....|..|--- .... ....|--- .... ....|C-4 AF.7 ....
 F-3|..|C-4 2F1F ....|--- .... ....|F-1 2A.F ....
 F-3|..|F-1 2A.F ....|--- .... ....|C-4 LF.A ....
....|..|--- .... ....|--- .... ....|C-4 AF.F ....
....|..|--- .... ....|--- .... ....|R-- .... ....
....|..|--- .... ....|--- .... ....|C-4 LF.F ....
....|..|--- .... ....|--- .... ....|R-- .... ....
....|..|--- .... ....|D-4 2F.A ....|C-3 RF.F ....
....|..|--- .... ....|--- .... ....|C-4 LF.A ....
....|..|--- .... ....|C-4 2F.F ....|C-3 RF.F ....
....|..|R-- .... ....|--- .... ....|R-- .... ....
 F-3|..|F-1 2F.A ....|--- .... ....|C-4 LF.F ....
....|..|--- .... ....|--- .... ....|C-4 AF.F ....
....|..|--- .... ....|--- .... ....|C-5 BF.F ....
....|..|--- .... ....|--- .... ....|C-4 LF.A ....
....|..|--- .... ....|--- .... ....|C-5 BF.F ....
....|..|R-- .... ....|D-4 2F.7 ....|R-- .... ....
....|..|--- .... ....|--- .... ....|C-4 LF.F ....
....|..|--- .... ....|C-4 2F.A ....|C-3 RF.A ....
....|..|C-4 2F17 ....|R-- .... ....|C-4 LF.F ....
 F-3|..|F-1 2F.7 ....|--- .... ....|C-4 LF.A ....
....|..|--- .... ....|--- .... ....|C-4 AF.7 ....
....|..|--- .... ....|R-- .... ....|R-- .... ....
....|..|--- .... ....|--- .... ....|C-4 LF.F ....
....|..|--- .... ....|--- .... ....|C-4 AF.F ....
....|..|C-4 2F3F ....|--- .... ....|C-4 AF.F ....
....|..|--- .... ....|--- .... ....|C-4 LF.A ....
....|..|--- .... ....|C-4 2F.7 ....|C-3 RF.7 ....
....|..|--- .... ....|R-- .... ....|R-- .... ....
....|..|--- .... ....|--- .... ....|C-4 LF.F ....
....|..|--- .... ....|--- .... ....|C-4 AF.F ....
....|..|--- .... ....|G-3 2F.F ....|C-4 AF.F ....
....|..|--- .... ....|--- .... ....|C-4 LF.A ....
....|..|--- .... ....|--- .... ....|C-4 AF.F ....
....|..|R-- .... ....|--- .... ....|R-- .... ....
....|..|--- .... ....|--- .... ....|C-4 LF.F ....
....|..|--- .... ....|--- .... ....|R-- .... ....
....|..|--- .... ....|R-- .... ....|C-5 BF.F ....
....|..|--- .... ....|--- .... ....|C-4 LF.A ....
....|..|--- .... ....|--- .... ....|C-5 BF.F ....
....|..|R-- .... ....|R-- .... ....|R-- .... ....
....|..|--- .... ....|--- .... ....|C-4 LF.F ....
....|..|--- .... ....|--- .... ....|C-4 AF.7 ....
....|..|C-4 2F37 ....|G-5 2F.F ....|C-4 LF.F ....
....|..|--- .... ....|--- .... ....|C-4 LF.A ....
....|..|--- .... ....|--- .... ....|R-- .... ....
....|..|--- .... ....|--- .... ....|C-5 BF.A ....
....|..|--- .... ....|--- .... ....|C-4 LF.F ....
....|..|--- .... ....|--- .... ....|C-4 AF.7 ....

[Pattern10]
 A#3|..|F-3 2F1F ....|A#5 2F.F ....|A#1 2A.F ....
 A#3|..|A#1 2A.F ....|--- .... ....|C-4 LF.A ....
....|..|--- .... ....|C-4 2F.F ....|C-4 AF.F ....
....|..|--- .... ....|A#3 2F.F ....|R-- .... ....
....|..|--- .... ....|--- .... ....|C-4 LF.F ....
....|..|--- .... ....|--- .... ....|R-- .... ....
....|..|--- .... ....|--- .... ....|C-3 RF.F ....
....|..|--- .... ....|--- .... ....|C-4 LF.A ....
....|..|--- .... ....|--- .... ....|C-3 RF.F ....
....|..|R-- .... ....|A#5 2F.A ....|R-- .... ....
 A#3|..|A#1 2F.A ....|--- .... ....|C-4 LF.F ....
....|..|--- .... ....|C-4 2F.A ....|C-4 AF.F ....
....|..|--- .... ....|G-5 2F.7 ....|C-5 BF.F ....
....|..|--- .... ....|--- .... ....|C-4 LF.A ....
....|..|--- .... ....|--- .... ....|C-5 BF.F ....
....|..|R-- .... ....|--- .... ....|R-- .... ....
....|..|--- .... ....|--- .... ....|C-4 LF.F ....
....|..|--- .... ....|--- .... ....|C-3 RF.A ....
....|..|F-3 2F17 ....|A#5 2F.7 ....|C-4 LF.F ....
 A#3|..|A#1 2F.7 ....|--- .... ....|C-4 LF.A ....
....|..|--- .... ....|C-4 2F.7 ....|C-4 AF.7 ....
....|..|--- .... ....|A#3 2F.7 ....|R-- .... ....
....|..|--- .... ....|--- .... ....|C-4 LF.F ....
....|..|--- .... ....|--- .... ....|C-4 AF.F ....
....|..|A#3 2F2F ....|--- .... ....|C-4 AF.F ....
....|..|--- .... ....|--- .... ....|C-4 LF.A ....
....|..|--- .... ....|--- .... ....|C-3 RF.7 ....
....|..|--- .... ....|--- .... ....|R-- .... ....
....|..|--- .... ....|--- .... ....|C-4 LF.F ....
....|..|--- .... ....|--- .... ....|C-4 AF.F ....
....|..|--- .... ....|R-- .... ....|C-4 AF.F ....
....|..|--- .... ....|--- .... ....|C-4 LF.A ....
....|..|--- .... ....|--- .... ....|C-4 AF.F ....
....|..|R-- .... ....|--- .... ....|R-- .... ....
....|..|--- .... ....|--- .... ....|C-4 LF.F ....
....|..|--- .... ....|--- .... ....|R-- .... ....
....|..|--- .... ....|R-- .... ....|C-5 BF.F ....
....|..|--- .... ....|--- .... ....|C-4 LF.A ....
....|..|--- .... ....|--- .... ....|C-5 BF.F ....
....|..|R-- .... ....|--- .... ....|R-- .... ....
....|..|--- .... ....|--- .... ....|C-4 LF.F ....
....|..|--- .... ....|--- .... ....|C-4 AF.7 ....
....|..|A#3 2F27 ....|--- .... ....|C-4 LF.F ....
....|..|--- .... ....|--- .... ....|C-4 LF.A ....
....|..|--- .... ....|--- .... ....|R-- .... ....
....|..|--- .... ....|R-- .... ....|C-5 BF.A ....
....|..|--- .... ....|--- .... ....|C-4 LF.F ....
....|..|--- .... ....|--- .... ....|C-4 AF.7 ....
 F-3|..|C-4 2F1F ....|D-4 2F.F ....|F-1 2A.F ....
 F-3|..|F-1 2A.F ....|--- .... ....|C-4 LF.A ....
....|..|--- .... ....|C-4 2F.F ....|C-4 AF.F ....
....|..|--- .... ....|A#3 2F.F ....|R-- .... ....
....|..|--- .... ....|--- .... ....|C-4 LF.F ....
....|..|--- .... ....|--- .... ....|R-- .... ....
....|..|--- .... ....|R-- .... ....|C-3 RF.F ....
....|..|--- .... ....|--- .... ....|C-4 LF.A ....
....|..|--- .... ....|--- .... ....|C-3 RF.F ....
....|..|R-- .... ....|F-6 2F.F ....|R-- .... ....
 F-3|..|F-1 2F.A ....|--- .... ....|C-4 LF.F ....
....|..|--- .... ....|C-4 2F.A ....|C-4 AF.F ....
....|..|--- .... ....|R-- .... ....|C-5 BF.F ....
....|..|--- .... ....|--- .... ....|C-4 LF.A ....
....|..|--- .... ....|--- .... ....|C-5 BF.F ....
....|..|R-- .... ....|--- .... ....|R-- .... ....
....|..|--- .... ....|--- .... ....|C-4 LF.F ....
....|..|--- .... ....|--- .... ....|C-3 RF.A ....
....|..|C-4 2F17 ....|D-4 2F.7 ....|C-4 LF.F ....
 F-3|..|F-1 2F.7 ....|--- .... ....|C-4 LF.A ....
....|..|--- .... ....|D#6 2F.F ....|C-4 AF.7 ....
....|..|--- .... ....|A#3 2F.7 ....|R-- .... ....
....|..|--- .... ....|--- .... ....|C-4 LF.F ....
....|..|--- .... ....|--- .... ....|C-4 AF.F ....
....|..|C-4 2F3F ....|--- .... ....|C-4 AF.F ....
....|..|--- .... ....|--- .... ....|C-4 LF.A ....
....|..|--- .... ....|D-6 2F.F ....|C-3 RF.7 ....
....|..|--- .... ....|F-6 2F.7 ....|R-- .... ....
....|..|--- .... ....|--- .... ....|C-4 LF.F ....
....|..|--- .... ....|D#6 2F.A ....|C-4 AF.F ....
....|..|--- .... ....|R-- .... ....|C-4 AF.F ....
....|..|--- .... ....|--- .... ....|C-4 LF.A ....
....|..|--- .... ....|D#6 2F.F ....|C-4 AF.F ....
....|..|R-- .... ....|--- .... ....|R-- .... ....
....|..|--- .... ....|--- .... ....|C-4 LF.F ....
....|..|--- .... ....|D-6 2F.A ....|R-- .... ....
....|..|--- .... ....|--- .... ....|C-5 BF.F ....
....|..|--- .... ....|--- .... ....|C-4 LF.A ....
....|..|--- .... ....|D-6 2F.F ....|C-5 BF.F ....
....|..|R-- .... ....|--- .... ....|R-- .... ....
....|..|--- .... ....|--- .... ....|C-4 LF.F ....
....|..|--- .... ....|D#6 2F.A ....|C-4 AF.7 ....
....|..|C-4 2F37 ....|--- .... ....|C-4 LF.F ....
....|..|--- .... ....|--- .... ....|C-4 LF.A ....
....|..|--- .... ....|C-6 2F.F ....|R-- .... ....
....|..|--- .... ....|--- .... ....|C-5 BF.A ....
....|..|--- .... ....|--- .... ....|C-4 LF.F ....
....|..|--- .... ....|D-6 2F.A ....|C-4 AF.7 ....

[Pattern11]
 A#3|..|F-3 2F1F ....|D-4 2F.F ....|A#1 2A.F ....
 A#3|..|A#1 2A.F ....|--- .... ....|C-4 LF.A ....
....|..|--- .... ....|D-6 2F.F ....|C-4 AF.F ....
....|..|--- .... ....|A#3 2F.F ....|R-- .... ....
....|..|--- .... ....|--- .... ....|C-4 LF.F ....
....|..|--- .... ....|C-6 2F.A ....|R-- .... ....
....|..|--- .... ....|C-6 2F.F ....|C-3 RF.F ....
....|..|--- .... ....|--- .... ....|C-4 LF.A ....
....|..|--- .... ....|D-6 2F.7 ....|C-3 RF.F ....
....|..|R-- .... ....|D-4 2F.A ....|R-- .... ....
 A#3|..|A#1 2F.A ....|R-- .... ....|C-4 LF.F ....
....|..|--- .... ....|A#5 2F.F ....|C-4 AF.F ....
....|..|--- .... ....|R-- .... ....|C-5 BF.F ....
....|..|--- .... ....|--- .... ....|C-4 LF.A ....
....|..|--- .... ....|C-6 2F.7 ....|C-5 BF.F ....
....|..|R-- .... ....|C-6 2F.A ....|R-- .... ....
....|..|--- .... ....|--- .... ....|C-4 LF.F ....
....|..|--- .... ....|--- .... ....|C-3 RF.A ....
....|..|F-3 2F17 ....|D-4 2F.7 ....|C-4 LF.F ....
 A#3|..|A#1 2F.7 ....|R-- .... ....|C-4 LF.A ....
....|..|--- .... ....|D-6 2F.7 ....|C-4 AF.7 ....
....|..|--- .... ....|A#3 2F.7 ....|R-- .... ....
....|..|--- .... ....|--- .... ....|C-4 LF.F ....
....|..|--- .... ....|--- .... ....|C-4 AF.F ....
....|..|A#3 2F2F ....|C-6 2F.7 ....|C-4 AF.F ....
....|..|--- .... ....|--- .... ....|C-4 LF.A ....
....|..|--- .... ....|--- .... ....|C-3 RF.7 ....
....|..|--- .... ....|--- .... ....|R-- .... ....
....|..|--- .... ....|R-- .... ....|C-4 LF.F ....
....|..|--- .... ....|A#5 2F.7 ....|C-4 AF.F ....
....|..|--- .... ....|R-- .... ....|C-4 AF.F ....
....|..|--- .... ....|--- .... ....|C-4 LF.A ....
....|..|--- .... ....|--- .... ....|C-4 AF.F ....
....|..|R-- .... ....|--- .... ....|R-- .... ....
....|..|--- .... ....|--- .... ....|C-4 LF.F ....
....|..|--- .... ....|--- .... ....|R-- .... ....
....|..|--- .... ....|--- .... ....|C-5 BF.F ....
....|..|--- .... ....|--- .... ....|C-4 LF.A ....
....|..|--- .... ....|--- .... ....|C-5 BF.F ....
....|..|R-- .... ....|R-- .... ....|R-- .... ....
....|..|--- .... ....|--- .... ....|C-4 LF.F ....
....|..|--- .... ....|--- .... ....|C-4 AF.7 ....
....|..|A#3 2F27 ....|--- .... ....|C-4 LF.F ....
....|..|--- .... ....|--- .... ....|C-4 LF.A ....
....|..|--- .... ....|--- .... ....|R-- .... ....
....|..|--- .... ....|D-4 2F.F ....|C-5 BF.A ....
....|..|--- .... ....|--- .... ....|C-4 LF.F ....
....|..|--- .... ....|--- .... ....|C-4 AF.7 ....
 F-3|..|C-4 2F1F ....|R-- .... ....|F-1 2A.F ....
 F-3|..|F-1 2A.F ....|--- .... ....|C-4 LF.A ....
....|..|--- .... ....|--- .... ....|C-4 AF.F ....
....|..|--- .... ....|--- .... ....|R-- .... ....
....|..|--- .... ....|--- .... ....|C-4 LF.F ....
....|..|--- .... ....|--- .... ....|R-- .... ....
....|..|--- .... ....|D-4 2F.A ....|C-3 RF.F ....
....|..|--- .... ....|--- .... ....|C-4 LF.A ....
....|..|--- .... ....|C-4 2F.F ....|C-3 RF.F ....
....|..|R-- .... ....|--- .... ....|R-- .... ....
 F-3|..|F-1 2F.A ....|--- .... ....|C-4 LF.F ....
....|..|--- .... ....|--- .... ....|C-4 AF.F ....
....|..|--- .... ....|--- .... ....|C-5 BF.F ....
....|..|--- .... ....|--- .... ....|C-4 LF.A ....
....|..|--- .... ....|--- .... ....|C-5 BF.F ....
....|..|R-- .... ....|D-4 2F.7 ....|R-- .... ....
....|..|--- .... ....|--- .... ....|C-4 LF.F ....
....|..|--- .... ....|C-4 2F.A ....|C-3 RF.A ....
....|..|C-4 2F17 ....|--- .... ....|C-4 LF.F ....
 F-3|..|F-1 2F.7 ....|--- .... ....|C-4 LF.A ....
....|..|--- .... ....|G#5 2F.F ....|C-4 AF.7 ....
....|..|--- .... ....|A#5 2F.F ....|R-- .... ....
....|..|--- .... ....|--- .... ....|C-4 LF.F ....
....|..|--- .... ....|--- .... ....|C-4 AF.F ....
....|..|C-4 2F3F ....|G#5 2F.F ....|C-4 AF.F ....
....|..|--- .... ....|--- .... ....|C-4 LF.A ....
....|..|--- .... ....|C-4 2F.7 ....|C-3 RF.7 ....
....|..|--- .... ....|--- .... ....|R-- .... ....
....|..|--- .... ....|--- .... ....|C-4 LF.F ....
....|..|--- .... ....|G#5 2F.A ....|C-4 AF.F ....
....|..|--- .... ....|G-5 2F.F ....|C-4 AF.F ....
....|..|--- .... ....|--- .... ....|C-4 LF.A ....
....|..|--- .... ....|--- .... ....|C-4 AF.F ....
....|..|R-- .... ....|G#5 2F.A ....|R-- .... ....
....|..|--- .... ....|--- .... ....|C-4 LF.F ....
....|..|--- .... ....|--- .... ....|R-- .... ....
....|..|--- .... ....|G#5 2F.F ....|C-5 BF.F ....
....|..|--- .... ....|--- .... ....|C-4 LF.A ....
....|..|--- .... ....|G#5 2F.7 ....|C-5 BF.F ....
....|..|R-- .... ....|A#5 2F.7 ....|R-- .... ....
....|..|--- .... ....|--- .... ....|C-4 LF.F ....
....|..|--- .... ....|--- .... ....|C-4 AF.7 ....
....|..|C-4 2F37 ....|F-5 2F.F ....|C-4 LF.F ....
....|..|--- .... ....|--- .... ....|C-4 LF.A ....
....|..|--- .... ....|--- .... ....|R-- .... ....
....|..|--- .... ....|G#5 2F.A ....|C-5 BF.A ....
....|..|--- .... ....|--- .... ....|C-4 LF.F ....
....|..|--- .... ....|--- .... ....|C-4 AF.7 ....

[Pattern12]
....|..|F-3 2F1F ....|G-5 2F.7 ....|D-4 2F.F ....
 A#3|..|A#1 2A.F ....|--- .... ....|C-4 LF.A ....
....|..|--- .... ....|--- .... ....|C-4 AF.F ....
....|..|--- .... ....|F-5 2F.A ....|R-- .... ....
....|..|--- .... ....|--- .... ....|C-4 LF.F ....
....|..|--- .... ....|--- .... ....|D-4 2F.F ....
....|..|--- .... ....|G#5 2F.7 ....|C-3 RF.F ....
....|..|--- .... ....|--- .... ....|C-4 LF.A ....
....|..|--- .... ....|--- .... ....|C-3 RF.F ....
....|..|R-- .... ....|R-- .... ....|R-- .... ....
 A#3|..|A#1 2F.A ....|--- .... ....|C-4 LF.F ....
....|..|--- .... ....|--- .... ....|C-4 AF.F ....
....|..|--- .... ....|F-5 2F.7 ....|C-5 BF.F ....
....|..|--- .... ....|--- .... ....|C-4 LF.A ....
....|..|--- .... ....|--- .... ....|C-5 BF.F ....
....|..|R-- .... ....|--- .... ....|R-- .... ....
....|..|--- .... ....|--- .... ....|C-4 LF.F ....
....|..|--- .... ....|--- .... ....|R-- .... ....
....|..|F-3 2F17 ....|R-- .... ....|D-4 2F.F ....
 A#3|..|A#1 2F.7 ....|--- .... ....|C-4 LF.A ....
....|..|--- .... ....|--- .... ....|C-4 AF.7 ....
....|..|--- .... ....|--- .... ....|R-- .... ....
....|..|--- .... ....|--- .... ....|C-4 LF.F ....
....|..|--- .... ....|--- .... ....|C-4 AF.F ....
....|..|A#3 2F2F ....|R-- .... ....|C-4 AF.F ....
....|..|--- .... ....|--- .... ....|C-4 LF.A ....
....|..|--- .... ....|--- .... ....|C-3 RF.7 ....
....|..|--- .... ....|--- .... ....|R-- .... ....
....|..|--- .... ....|--- .... ....|C-4 LF.F ....
....|..|--- .... ....|--- .... ....|C-4 AF.F ....
....|..|--- .... ....|--- .... ....|D-4 2F.F ....
....|..|--- .... ....|--- .... ....|C-4 LF.A ....
....|..|--- .... ....|--- .... ....|C-4 AF.F ....
....|..|R-- .... ....|R-- .... ....|R-- .... ....
....|..|--- .... ....|--- .... ....|C-4 LF.F ....
....|..|--- .... ....|--- .... ....|R-- .... ....
....|..|--- .... ....|--- .... ....|C-5 BF.F ....
....|..|--- .... ....|--- .... ....|C-4 LF.A ....
....|..|--- .... ....|--- .... ....|C-5 BF.F ....
....|..|R-- .... ....|--- .... ....|R-- .... ....
....|..|--- .... ....|--- .... ....|C-4 LF.F ....
....|..|--- .... ....|--- .... ....|C-4 AF.7 ....
....|..|A#3 2F27 ....|R-- .... ....|D#4 2F.F ....
....|..|--- .... ....|--- .... ....|C-4 LF.A ....
....|..|--- .... ....|--- .... ....|R-- .... ....
....|..|--- .... ....|--- .... ....|C-5 BF.A ....
....|..|--- .... ....|--- .... ....|C-4 LF.F ....
....|..|--- .... ....|--- .... ....|C-4 AF.7 ....
 F-3|..|C-4 2F1F ....|--- .... ....|F-1 2A.F ....
 F-3|..|F-1 2A.F ....|--- .... ....|C-4 LF.A ....
....|..|--- .... ....|--- .... ....|C-4 AF.F ....
....|..|--- .... ....|--- .... ....|R-- .... ....
....|..|--- .... ....|--- .... ....|C-4 LF.F ....
....|..|--- .... ....|--- .... ....|R-- .... ....
....|..|--- .... ....|--- .... ....|D-4 2F.F ....
....|..|--- .... ....|--- .... ....|C-4 LF.A ....
....|..|--- .... ....|--- .... ....|C-3 RF.F ....
....|..|R-- .... ....|--- .... ....|R-- .... ....
 F-3|..|F-1 2F.A ....|--- .... ....|C-4 LF.F ....
....|..|--- .... ....|--- .... ....|C-4 AF.F ....
....|..|--- .... ....|--- .... ....|C-5 BF.F ....
....|..|--- .... ....|--- .... ....|C-4 LF.A ....
....|..|--- .... ....|--- .... ....|C-5 BF.F ....
....|..|R-- .... ....|--- .... ....|R-- .... ....
....|..|--- .... ....|--- .... ....|C-4 LF.F ....
....|..|--- .... ....|--- .... ....|C-3 RF.A ....
....|..|C-4 2F17 ....|--- .... ....|C-4 2F.F ....
 F-3|..|F-1 2F.7 ....|--- .... ....|C-4 LF.A ....
....|..|--- .... ....|--- .... ....|C-4 AF.7 ....
....|..|--- .... ....|--- .... ....|R-- .... ....
....|..|--- .... ....|--- .... ....|C-4 LF.F ....
....|..|--- .... ....|--- .... ....|C-4 AF.F ....
....|..|C-4 2F3F ....|--- .... ....|C-4 AF.F ....
....|..|--- .... ....|--- .... ....|C-4 LF.A ....
....|..|--- .... ....|--- .... ....|C-3 RF.7 ....
....|..|--- .... ....|--- .... ....|R-- .... ....
....|..|--- .... ....|--- .... ....|C-4 LF.F ....
....|..|--- .... ....|--- .... ....|C-4 AF.F ....
....|..|--- .... ....|--- .... ....|D-4 2F.F ....
....|..|--- .... ....|--- .... ....|C-4 LF.A ....
....|..|--- .... ....|--- .... ....|C-4 AF.F ....
....|..|R-- .... ....|--- .... ....|R-- .... ....
....|..|--- .... ....|--- .... ....|C-4 LF.F ....
....|..|--- .... ....|--- .... ....|R-- .... ....
....|..|--- .... ....|--- .... ....|C-5 BF.F ....
....|..|--- .... ....|--- .... ....|C-4 LF.A ....
....|..|--- .... ....|--- .... ....|C-5 BF.F ....
....|..|R-- .... ....|--- .... ....|R-- .... ....
....|..|--- .... ....|--- .... ....|C-4 LF.F ....
....|..|--- .... ....|--- .... ....|A#3 2F.F ....
....|..|C-4 2F37 ....|--- .... ....|C-4 LF.F ....
....|..|--- .... ....|--- .... ....|C-4 LF.A ....
....|..|--- .... ....|--- .... ....|R-- .... ....
....|..|--- .... ....|--- .... ....|C-5 BF.A ....
....|..|--- .... ....|--- .... ....|C-4 LF.F ....
....|..|--- .... ....|--- .... ....|C-4 AF.7 ....

[Pattern13]
 A#3|..|F-3 2F1F ....|--- .... ....|A#1 2A.F ....
 A#3|..|A#1 2A.F ....|--- .... ....|C-4 LF.A ....
....|..|--- .... ....|--- .... ....|C-4 AF.F ....
....|..|--- .... ....|--- .... ....|R-- .... ....
....|..|--- .... ....|--- .... ....|C-4 LF.F ....
....|..|--- .... ....|--- .... ....|R-- .... ....
....|..|--- .... ....|--- .... ....|C-3 RF.F ....
....|..|--- .... ....|--- .... ....|C-4 LF.A ....
....|..|--- .... ....|--- .... ....|C-3 RF.F ....
....|..|R-- .... ....|--- .... ....|R-- .... ....
 A#3|..|A#1 2F.A ....|--- .... ....|C-4 LF.F ....
....|..|--- .... ....|--- .... ....|C-4 AF.F ....
....|..|--- .... ....|--- .... ....|C-5 BF.F ....
....|..|--- .... ....|--- .... ....|C-4 LF.A ....
....|..|--- .... ....|--- .... ....|C-5 BF.F ....
....|..|R-- .... ....|--- .... ....|R-- .... ....
....|..|--- .... ....|--- .... ....|C-4 LF.F ....
....|..|--- .... ....|--- .... ....|C-3 RF.A ....
....|..|F-3 2F17 ....|D-6 2F.F ....|C-4 LF.F ....
 A#3|..|A#1 2F.7 ....|--- .... ....|C-4 LF.A ....
....|..|--- .... ....|--- .... ....|C-4 AF.7 ....
....|..|--- .... ....|--- .... ....|R-- .... ....
....|..|--- .... ....|R-- .... ....|C-4 LF.F ....
....|..|--- .... ....|C-6 2F.F ....|C-4 AF.F ....
....|..|A#3 2F2F ....|--- .... ....|C-4 AF.F ....
....|..|--- .... ....|--- .... ....|C-4 LF.A ....
....|..|--- .... ....|--- .... ....|C-3 RF.7 ....
....|..|--- .... ....|A#5 2F.F ....|R-- .... ....
....|..|--- .... ....|--- .... ....|C-4 LF.F ....
....|..|--- .... ....|--- .... ....|C-4 AF.F ....
....|..|--- .... ....|--- .... ....|C-4 AF.F ....
....|..|--- .... ....|R-- .... ....|C-4 LF.A ....
....|..|--- .... ....|C-6 2F.F ....|C-4 AF.F ....
....|..|R-- .... ....|--- .... ....|R-- .... ....
....|..|--- .... ....|--- .... ....|C-4 LF.F ....
....|..|--- .... ....|--- .... ....|R-- .... ....
....|..|--- .... ....|A#5 2F.F ....|C-5 BF.F ....
....|..|--- .... ....|--- .... ....|C-4 LF.A ....
....|..|--- .... ....|--- .... ....|C-5 BF.F ....
....|..|R-- .... ....|--- .... ....|R-- .... ....
....|..|--- .... ....|R-- .... ....|C-4 LF.F ....
....|..|--- .... ....|G#5 2F.F ....|C-4 AF.7 ....
....|..|A#3 2F27 ....|--- .... ....|C-4 LF.F ....
....|..|--- .... ....|--- .... ....|C-4 LF.A ....
....|..|--- .... ....|--- .... ....|R-- .... ....
....|..|--- .... ....|A#5 2F.7 ....|C-5 BF.A ....
....|..|--- .... ....|--- .... ....|C-4 LF.F ....
....|..|--- .... ....|A#5 2F.F ....|C-4 AF.7 ....
 F-3|..|C-4 2F1F ....|--- .... ....|F-1 2A.F ....
 F-3|..|F-1 2A.F ....|R-- .... ....|C-4 LF.A ....
....|..|--- .... ....|C-6 2F.7 ....|C-4 AF.F ....
....|..|--- .... ....|--- .... ....|R-- .... ....
....|..|--- .... ....|--- .... ....|C-4 LF.F ....
....|..|--- .... ....|G#5 2F.F ....|R-- .... ....
....|..|--- .... ....|A#5 2F.7 ....|C-3 RF.F ....
....|..|--- .... ....|--- .... ....|C-4 LF.A ....
....|..|--- .... ....|A#5 2F.A ....|C-3 RF.F ....
....|..|R-- .... ....|--- .... ....|R-- .... ....
 F-3|..|F-1 2F.A ....|R-- .... ....|C-4 LF.F ....
....|..|--- .... ....|G-5 2F.F ....|C-4 AF.F ....
....|..|--- .... ....|--- .... ....|C-5 BF.F ....
....|..|--- .... ....|--- .... ....|C-4 LF.A ....
....|..|--- .... ....|G#5 2F.A ....|C-5 BF.F ....
....|..|R-- .... ....|--- .... ....|R-- .... ....
....|..|--- .... ....|--- .... ....|C-4 LF.F ....
....|..|--- .... ....|A#5 2F.7 ....|C-3 RF.A ....
....|..|C-4 2F17 ....|--- .... ....|C-4 LF.F ....
 F-3|..|F-1 2F.7 ....|--- .... ....|C-4 LF.A ....
....|..|--- .... ....|G-5 2F.A ....|C-4 AF.7 ....
....|..|--- .... ....|F-5 2F.F ....|R-- .... ....
....|..|--- .... ....|--- .... ....|C-4 LF.F ....
....|..|--- .... ....|G#5 2F.7 ....|C-4 AF.F ....
....|..|C-4 2F3F ....|--- .... ....|C-4 AF.F ....
....|..|--- .... ....|--- .... ....|C-4 LF.A ....
....|..|--- .... ....|--- .... ....|C-3 RF.7 ....
....|..|--- .... ....|--- .... ....|R-- .... ....
....|..|--- .... ....|--- .... ....|C-4 LF.F ....
....|..|--- .... ....|G-5 2F.7 ....|C-4 AF.F ....
....|..|--- .... ....|F-5 2F.A ....|C-4 AF.F ....
....|..|--- .... ....|--- .... ....|C-4 LF.A ....
....|..|--- .... ....|--- .... ....|C-4 AF.F ....
....|..|R-- .... ....|--- .... ....|R-- .... ....
....|..|--- .... ....|R-- .... ....|C-4 LF.F ....
....|..|--- .... ....|--- .... ....|R-- .... ....
....|..|--- .... ....|--- .... ....|C-5 BF.F ....
....|..|--- .... ....|--- .... ....|C-4 LF.A ....
....|..|--- .... ....|--- .... ....|C-5 BF.F ....
....|..|R-- .... ....|F-5 2F.7 ....|R-- .... ....
....|..|--- .... ....|--- .... ....|C-4 LF.F ....
....|..|--- .... ....|--- .... ....|C-4 AF.7 ....
....|..|C-4 2F37 ....|--- .... ....|C-4 LF.F ....
....|..|--- .... ....|R-- .... ....|C-4 LF.A ....
....|..|--- .... ....|--- .... ....|R-- .... ....
....|..|--- .... ....|--- .... ....|C-5 BF.A ....
....|..|--- .... ....|--- .... ....|C-4 LF.F ....
....|..|--- .... ....|--- .... ....|C-4 AF.7 ....

[Pattern14]
....|..|F-3 2F1F ....|--- .... ....|D-4 2F.F ....
 A#3|..|A#1 2A.F ....|--- .... ....|C-4 LF.A ....
....|..|--- .... ....|--- .... ....|C-4 AF.F ....
....|..|--- .... ....|--- .... ....|R-- .... ....
....|..|--- .... ....|R-- .... ....|C-4 LF.F ....
....|..|--- .... ....|--- .... ....|D-4 2F.F ....
....|..|--- .... ....|--- .... ....|C-3 RF.F ....
....|..|--- .... ....|--- .... ....|C-4 LF.A ....
....|..|--- .... ....|--- .... ....|C-3 RF.F ....
....|..|R-- .... ....|--- .... ....|R-- .... ....
 A#3|..|A#1 2F.A ....|--- .... ....|C-4 LF.F ....
....|..|--- .... ....|--- .... ....|C-4 AF.F ....
....|..|--- .... ....|--- .... ....|C-5 BF.F ....
....|..|--- .... ....|--- .... ....|C-4 LF.A ....
....|..|--- .... ....|--- .... ....|C-5 BF.F ....
....|..|R-- .... ....|--- .... ....|R-- .... ....
....|..|--- .... ....|--- .... ....|C-4 LF.F ....
....|..|--- .... ....|--- .... ....|R-- .... ....
....|..|F-3 2F17 ....|--- .... ....|D-4 2F.F ....
 A#3|..|A#1 2F.7 ....|--- .... ....|C-4 LF.A ....
....|..|--- .... ....|--- .... ....|C-4 AF.7 ....
....|..|--- .... ....|--- .... ....|R-- .... ....
....|..|--- .... ....|--- .... ....|C-4 LF.F ....
....|..|--- .... ....|--- .... ....|C-4 AF.F ....
....|..|A#3 2F2F ....|--- .... ....|C-4 AF.F ....
....|..|--- .... ....|--- .... ....|C-4 LF.A ....
....|..|--- .... ....|--- .... ....|C-3 RF.7 ....
....|..|--- .... ....|--- .... ....|R-- .... ....
....|..|--- .... ....|--- .... ....|C-4 LF.F ....
....|..|--- .... ....|--- .... ....|C-4 AF.F ....
....|..|--- .... ....|--- .... ....|D-4 2F.F ....
....|..|--- .... ....|--- .... ....|C-4 LF.A ....
....|..|--- .... ....|--- .... ....|C-4 AF.F ....
....|..|R-- .... ....|--- .... ....|R-- .... ....
....|..|--- .... ....|--- .... ....|C-4 LF.F ....
....|..|--- .... ....|--- .... ....|R-- .... ....
....|..|--- .... ....|--- .... ....|C-5 BF.F ....
....|..|--- .... ....|--- .... ....|C-4 LF.A ....
....|..|--- .... ....|--- .... ....|C-5 BF.F ....
....|..|R-- .... ....|--- .... ....|R-- .... ....
....|..|--- .... ....|--- .... ....|C-4 LF.F ....
....|..|--- .... ....|--- .... ....|C-4 AF.7 ....
....|..|A#3 2F27 ....|--- .... ....|D-4 2F.F ....
....|..|--- .... ....|--- .... ....|C-4 LF.A ....
....|..|--- .... ....|--- .... ....|R-- .... ....
....|..|--- .... ....|--- .... ....|C-5 BF.A ....
....|..|--- .... ....|--- .... ....|C-4 LF.F ....
....|..|--- .... ....|--- .... ....|D#4 2F.F ....
 F-3|..|C-4 2F1F ....|--- .... ....|F-1 2A.F ....
 F-3|..|F-1 2A.F ....|--- .... ....|C-4 LF.A ....
....|..|--- .... ....|--- .... ....|C-4 AF.F ....
....|..|--- .... ....|--- .... ....|R-- .... ....
....|..|--- .... ....|--- .... ....|C-4 LF.F ....
....|..|--- .... ....|--- .... ....|R-- .... ....
....|..|--- .... ....|--- .... ....|D-4 2F.F ....
....|..|--- .... ....|--- .... ....|C-4 LF.A ....
....|..|--- .... ....|--- .... ....|C-3 RF.F ....
....|..|R-- .... ....|--- .... ....|R-- .... ....
 F-3|..|F-1 2F.A ....|--- .... ....|C-4 LF.F ....
....|..|--- .... ....|--- .... ....|C-4 AF.F ....
....|..|--- .... ....|--- .... ....|C-5 BF.F ....
....|..|--- .... ....|--- .... ....|C-4 LF.A ....
....|..|--- .... ....|--- .... ....|C-5 BF.F ....
....|..|R-- .... ....|--- .... ....|R-- .... ....
....|..|--- .... ....|--- .... ....|C-4 LF.F ....
....|..|--- .... ....|--- .... ....|D#4 2F.7 ....
....|..|C-4 2F17 ....|--- .... ....|C-4 2F.F ....
 F-3|..|F-1 2F.7 ....|--- .... ....|C-4 LF.A ....
....|..|--- .... ....|--- .... ....|C-4 AF.7 ....
....|..|--- .... ....|--- .... ....|R-- .... ....
....|..|--- .... ....|--- .... ....|C-4 LF.F ....
....|..|--- .... ....|--- .... ....|C-4 AF.F ....
....|..|C-4 2F3F ....|--- .... ....|C-4 AF.F ....
....|..|--- .... ....|--- .... ....|C-4 LF.A ....
....|..|--- .... ....|--- .... ....|C-3 RF.7 ....
....|..|--- .... ....|--- .... ....|R-- .... ....
....|..|--- .... ....|--- .... ....|C-4 LF.F ....
....|..|--- .... ....|--- .... ....|C-4 AF.F ....
....|..|--- .... ....|--- .... ....|D-4 2F.F ....
....|..|--- .... ....|--- .... ....|C-4 LF.A ....
....|..|--- .... ....|--- .... ....|C-4 AF.F ....
....|..|R-- .... ....|--- .... ....|R-- .... ....
....|..|--- .... ....|--- .... ....|C-4 LF.F ....
....|..|--- .... ....|--- .... ....|R-- .... ....
....|..|--- .... ....|--- .... ....|C-5 BF.F ....
....|..|--- .... ....|--- .... ....|C-4 LF.A ....
....|..|--- .... ....|--- .... ....|C-5 BF.F ....
....|..|R-- .... ....|--- .... ....|R-- .... ....
....|..|--- .... ....|--- .... ....|C-4 LF.F ....
....|..|--- .... ....|--- .... ....|A#3 2F.F ....
....|..|C-4 2F37 ....|--- .... ....|C-4 LF.F ....
....|..|--- .... ....|--- .... ....|C-4 LF.A ....
....|..|--- .... ....|--- .... ....|R-- .... ....
....|..|--- .... ....|--- .... ....|C-5 BF.A ....
....|..|--- .... ....|--- .... ....|C-4 LF.F ....
....|..|--- .... ....|--- .... ....|C-4 AF.7 ....

[Pattern15]
 A#3|..|F-3 2F1F ....|--- .... ....|A#1 2A.F ....
 A#3|..|A#1 2A.F ....|--- .... ....|C-4 LF.A ....
....|..|--- .... ....|--- .... ....|C-4 AF.F ....
....|..|--- .... ....|--- .... ....|R-- .... ....
....|..|--- .... ....|--- .... ....|C-4 LF.F ....
....|..|--- .... ....|--- .... ....|R-- .... ....
....|..|--- .... ....|--- .... ....|C-3 RF.F ....
....|..|--- .... ....|--- .... ....|C-4 LF.A ....
....|..|--- .... ....|--- .... ....|C-3 RF.F ....
....|..|R-- .... ....|--- .... ....|R-- .... ....
 A#3|..|A#1 2F.A ....|--- .... ....|C-4 LF.F ....
....|..|--- .... ....|--- .... ....|C-4 AF.F ....
....|..|--- .... ....|--- .... ....|C-5 BF.F ....
....|..|--- .... ....|--- .... ....|C-4 LF.A ....
....|..|--- .... ....|--- .... ....|C-5 BF.F ....
....|..|R-- .... ....|--- .... ....|R-- .... ....
....|..|--- .... ....|--- .... ....|C-4 LF.F ....
....|..|--- .... ....|--- .... ....|C-3 RF.A ....
....|..|F-3 2F17 ....|F-6 2F.F ....|C-4 LF.F ....
 A#3|..|A#1 2F.7 ....|--- .... ....|C-4 LF.A ....
....|..|--- .... ....|--- .... ....|C-4 AF.7 ....
....|..|--- .... ....|--- .... ....|R-- .... ....
....|..|--- .... ....|R-- .... ....|C-4 LF.F ....
....|..|--- .... ....|D#6 2F.F ....|C-4 AF.F ....
....|..|A#3 2F2F ....|--- .... ....|C-4 AF.F ....
....|..|--- .... ....|--- .... ....|C-4 LF.A ....
....|..|--- .... ....|--- .... ....|C-3 RF.7 ....
....|..|--- .... ....|D-6 2F.F ....|R-- .... ....
....|..|--- .... ....|--- .... ....|C-4 LF.F ....
....|..|--- .... ....|--- .... ....|C-4 AF.F ....
....|..|--- .... ....|--- .... ....|C-4 AF.F ....
....|..|--- .... ....|R-- .... ....|C-4 LF.A ....
....|..|--- .... ....|C-6 2F.F ....|C-4 AF.F ....
....|..|R-- .... ....|--- .... ....|R-- .... ....
....|..|--- .... ....|--- .... ....|C-4 LF.F ....
....|..|--- .... ....|--- .... ....|R-- .... ....
....|..|--- .... ....|D-6 2F.F ....|C-5 BF.F ....
....|..|--- .... ....|--- .... ....|C-4 LF.A ....
....|..|--- .... ....|--- .... ....|C-5 BF.F ....
....|..|R-- .... ....|D#6 2F.F ....|R-- .... ....
....|..|--- .... ....|R-- .... ....|C-4 LF.F ....
....|..|--- .... ....|D#6 2F.7 ....|C-4 AF.7 ....
....|..|A#3 2F27 ....|D-6 2F.F ....|C-4 LF.F ....
....|..|--- .... ....|--- .... ....|C-4 LF.A ....
....|..|--- .... ....|--- .... ....|R-- .... ....
....|..|--- .... ....|C-6 2F.F ....|C-5 BF.A ....
....|..|--- .... ....|--- .... ....|C-4 LF.F ....
....|..|--- .... ....|--- .... ....|C-4 AF.7 ....
 F-3|..|C-4 2F1F ....|D-6 2F.F ....|F-1 2A.F ....
 F-3|..|F-1 2A.F ....|--- .... ....|C-4 LF.A ....
....|..|--- .... ....|C-6 2F.7 ....|C-4 AF.F ....
....|..|--- .... ....|D-6 2F.A ....|R-- .... ....
....|..|--- .... ....|R-- .... ....|C-4 LF.F ....
....|..|--- .... ....|A#5 2F.F ....|R-- .... ....
....|..|--- .... ....|D-6 2F.7 ....|C-3 RF.F ....
....|..|--- .... ....|--- .... ....|C-4 LF.A ....
....|..|--- .... ....|--- .... ....|C-3 RF.F ....
....|..|R-- .... ....|C-6 2F.F ....|R-- .... ....
 F-3|..|F-1 2F.A ....|--- .... ....|C-4 LF.F ....
....|..|--- .... ....|--- .... ....|C-4 AF.F ....
....|..|--- .... ....|D-6 2F.7 ....|C-5 BF.F ....
....|..|--- .... ....|R-- .... ....|C-4 LF.A ....
....|..|--- .... ....|A#5 2F.F ....|C-5 BF.F ....
....|..|R-- .... ....|C-6 2F.7 ....|R-- .... ....
....|..|--- .... ....|--- .... ....|C-4 LF.F ....
....|..|--- .... ....|--- .... ....|C-3 RF.A ....
....|..|C-4 2F17 ....|G-5 2F.F ....|C-4 LF.F ....
 F-3|..|F-1 2F.7 ....|--- .... ....|C-4 LF.A ....
....|..|--- .... ....|--- .... ....|C-4 AF.7 ....
....|..|--- .... ....|--- .... ....|R-- .... ....
....|..|--- .... ....|R-- .... ....|C-4 LF.F ....
....|..|--- .... ....|A#5 2F.7 ....|C-4 AF.F ....
....|..|C-4 2F3F ....|G#5 2F.F ....|C-4 AF.F ....
....|..|--- .... ....|--- .... ....|C-4 LF.A ....
....|..|--- .... ....|--- .... ....|C-3 RF.7 ....
....|..|--- .... ....|C-6 2F.7 ....|R-- .... ....
....|..|--- .... ....|--- .... ....|C-4 LF.F ....
....|..|--- .... ....|--- .... ....|C-4 AF.F ....
....|..|--- .... ....|G-5 2F.F ....|C-4 AF.F ....
....|..|--- .... ....|--- .... ....|C-4 LF.A ....
....|..|--- .... ....|A#5 2F.7 ....|C-4 AF.F ....
....|..|R-- .... ....|G#5 2F.A ....|R-- .... ....
....|..|--- .... ....|--- .... ....|C-4 LF.F ....
....|..|--- .... ....|--- .... ....|R-- .... ....
....|..|--- .... ....|F-5 2F.F ....|C-5 BF.F ....
....|..|--- .... ....|--- .... ....|C-4 LF.A ....
....|..|--- .... ....|--- .... ....|C-5 BF.F ....
....|..|R-- .... ....|G-5 2F.A ....|R-- .... ....
....|..|--- .... ....|--- .... ....|C-4 LF.F ....
....|..|--- .... ....|--- .... ....|C-4 AF.7 ....
....|..|C-4 2F37 ....|G#5 2F.7 ....|C-4 LF.F ....
....|..|--- .... ....|--- .... ....|C-4 LF.A ....
....|..|--- .... ....|--- .... ....|R-- .... ....
....|..|--- .... ....|F-5 2F.A ....|C-5 BF.A ....
....|..|--- .... ....|--- .... ....|C-4 LF.F ....
....|..|--- .... ....|--- .... ....|C-4 AF.7 ....

[Pattern16]
 A#3|..|F-3 2F1F ....|G-5 2F.7 ....|A#1 2A.F ....
 A#3|..|A#1 2A.F ....|--- .... ....|C-4 LF.A ....
....|..|--- .... ....|--- .... ....|C-4 AF.F ....
....|..|--- .... ....|--- .... ....|R-- .... ....
....|..|--- .... ....|--- .... ....|C-4 LF.F ....
....|..|--- .... ....|--- .... ....|R-- .... ....
....|..|--- .... ....|F-5 2F.7 ....|D-4 2F.F ....
....|..|--- .... ....|--- .... ....|C-4 LF.A ....
....|..|--- .... ....|--- .... ....|C-3 RF.F ....
....|..|R-- .... ....|--- .... ....|R-- .... ....
 A#3|..|A#1 2F.A ....|--- .... ....|C-4 LF.F ....
....|..|--- .... ....|--- .... ....|C-4 AF.F ....
....|..|--- .... ....|R-- .... ....|D-4 2F.F ....
....|..|--- .... ....|--- .... ....|C-4 LF.A ....
....|..|--- .... ....|--- .... ....|C-5 BF.F ....
....|..|R-- .... ....|--- .... ....|R-- .... ....
....|..|--- .... ....|--- .... ....|C-4 LF.F ....
....|..|--- .... ....|--- .... ....|C-3 RF.A ....
....|..|F-3 2F17 ....|--- .... ....|D-4 2F.F ....
 A#3|..|A#1 2F.7 ....|--- .... ....|C-4 LF.A ....
....|..|--- .... ....|--- .... ....|C-4 AF.7 ....
....|..|--- .... ....|R-- .... ....|R-- .... ....
....|..|--- .... ....|--- .... ....|C-4 LF.F ....
....|..|--- .... ....|--- .... ....|C-4 AF.F ....
....|..|A#3 2F2F ....|--- .... ....|D#4 2F.F ....
....|..|--- .... ....|--- .... ....|C-4 LF.A ....
....|..|--- .... ....|--- .... ....|C-3 RF.7 ....
....|..|--- .... ....|--- .... ....|R-- .... ....
....|..|--- .... ....|--- .... ....|C-4 LF.F ....
....|..|--- .... ....|--- .... ....|C-4 AF.F ....
....|..|--- .... ....|R-- .... ....|D-4 2F.F ....
....|..|--- .... ....|--- .... ....|C-4 LF.A ....
....|..|--- .... ....|--- .... ....|C-4 AF.F ....
....|..|R-- .... ....|--- .... ....|R-- .... ....
....|..|--- .... ....|--- .... ....|C-4 LF.F ....
....|..|--- .... ....|--- .... ....|R-- .... ....
....|..|--- .... ....|--- .... ....|C-5 BF.F ....
....|..|--- .... ....|--- .... ....|C-4 LF.A ....
....|..|--- .... ....|--- .... ....|C-5 BF.F ....
....|..|R-- .... ....|--- .... ....|R-- .... ....
....|..|--- .... ....|--- .... ....|C-4 LF.F ....
....|..|--- .... ....|--- .... ....|C-4 AF.7 ....
....|..|A#3 2F27 ....|--- .... ....|D#4 2F.F ....
....|..|--- .... ....|--- .... ....|C-4 LF.A ....
....|..|--- .... ....|--- .... ....|R-- .... ....
....|..|--- .... ....|--- .... ....|C-5 BF.A ....
....|..|--- .... ....|--- .... ....|C-4 LF.F ....
....|..|--- .... ....|--- .... ....|C-4 AF.7 ....
 F-3|..|C-4 2F1F ....|--- .... ....|F-1 2A.F ....
 F-3|..|F-1 2A.F ....|--- .... ....|C-4 LF.A ....
....|..|--- .... ....|--- .... ....|C-4 AF.F ....
....|..|--- .... ....|--- .... ....|R-- .... ....
....|..|--- .... ....|--- .... ....|C-4 LF.F ....
....|..|--- .... ....|--- .... ....|R-- .... ....
....|..|--- .... ....|--- .... ....|D-4 2F.F ....
....|..|--- .... ....|--- .... ....|C-4 LF.A ....
....|..|--- .... ....|--- .... ....|C-3 RF.F ....
....|..|R-- .... ....|--- .... ....|R-- .... ....
 F-3|..|F-1 2F.A ....|--- .... ....|C-4 LF.F ....
....|..|--- .... ....|--- .... ....|C-4 AF.F ....
....|..|--- .... ....|--- .... ....|C-5 BF.F ....
....|..|--- .... ....|--- .... ....|C-4 LF.A ....
....|..|--- .... ....|--- .... ....|C-5 BF.F ....
....|..|R-- .... ....|--- .... ....|R-- .... ....
....|..|--- .... ....|--- .... ....|C-4 LF.F ....
....|..|--- .... ....|--- .... ....|C-3 RF.A ....
....|..|C-4 2F17 ....|F-5 2F.F ....|C-4 LF.F ....
 F-3|..|F-1 2F.7 ....|--- .... ....|C-4 LF.A ....
....|..|--- .... ....|--- .... ....|C-4 AF.7 ....
....|..|--- .... ....|--- .... ....|R-- .... ....
....|..|--- .... ....|R-- .... ....|C-4 LF.F ....
....|..|--- .... ....|G-5 2F.F ....|C-4 AF.F ....
....|..|C-4 2F3F ....|--- .... ....|C-4 AF.F ....
....|..|--- .... ....|--- .... ....|C-4 LF.A ....
....|..|--- .... ....|--- .... ....|C-3 RF.7 ....
....|..|--- .... ....|G#5 2F.F ....|R-- .... ....
....|..|--- .... ....|--- .... ....|C-4 LF.F ....
....|..|--- .... ....|--- .... ....|C-4 AF.F ....
....|..|--- .... ....|--- .... ....|C-4 AF.F ....
....|..|--- .... ....|R-- .... ....|C-4 LF.A ....
....|..|--- .... ....|A#5 2F.F ....|C-4 AF.F ....
....|..|R-- .... ....|--- .... ....|R-- .... ....
....|..|--- .... ....|--- .... ....|C-4 LF.F ....
....|..|--- .... ....|--- .... ....|R-- .... ....
....|..|--- .... ....|F-5 2F.7 ....|C-5 BF.F ....
....|..|--- .... ....|--- .... ....|C-4 LF.A ....
....|..|--- .... ....|G#5 2F.F ....|C-5 BF.F ....
....|..|R-- .... ....|--- .... ....|R-- .... ....
....|..|--- .... ....|R-- .... ....|C-4 LF.F ....
....|..|--- .... ....|G-5 2F.7 ....|C-4 AF.7 ....
....|..|C-4 2F37 ....|--- .... ....|C-4 LF.F ....
....|..|--- .... ....|--- .... ....|C-4 LF.A ....
....|..|--- .... ....|--- .... ....|R-- .... ....
....|..|--- .... ....|G#5 2F.7 ....|C-5 BF.A ....
....|..|--- .... ....|--- .... ....|C-4 LF.F ....
....|..|--- .... ....|G#5 2F.A ....|C-4 AF.7 ....

[Pattern17]
 A#3|..|F-3 2F1F ....|R-- .... ....|A#1 2A.F ....
 A#3|..|A#1 2A.F ....|--- .... ....|C-4 LF.A ....
....|..|--- .... ....|A#5 2F.7 ....|C-4 AF.F ....
....|..|--- .... ....|--- .... ....|R-- .... ....
....|..|--- .... ....|--- .... ....|C-4 LF.F ....
....|..|--- .... ....|--- .... ....|R-- .... ....
....|..|--- .... ....|--- .... ....|D-4 2F.F ....
....|..|--- .... ....|--- .... ....|C-4 LF.A ....
....|..|--- .... ....|G#5 2F.7 ....|C-3 RF.F ....
....|..|R-- .... ....|R-- .... ....|R-- .... ....
 A#3|..|A#1 2F.A ....|--- .... ....|C-4 LF.F ....
....|..|--- .... ....|--- .... ....|C-4 AF.F ....
....|..|--- .... ....|--- .... ....|D#4 2F.F ....
....|..|--- .... ....|--- .... ....|C-4 LF.A ....
....|..|--- .... ....|--- .... ....|C-5 BF.F ....
....|..|R-- .... ....|--- .... ....|R-- .... ....
....|..|--- .... ....|--- .... ....|C-4 LF.F ....
....|..|--- .... ....|--- .... ....|C-3 RF.A ....
....|..|F-3 2F17 ....|R-- .... ....|D-4 2F.F ....
 A#3|..|A#1 2F.7 ....|--- .... ....|C-4 LF.A ....
....|..|--- .... ....|--- .... ....|C-4 AF.7 ....
....|..|--- .... ....|--- .... ....|R-- .... ....
....|..|--- .... ....|--- .... ....|C-4 LF.F ....
....|..|--- .... ....|--- .... ....|C-4 AF.F ....
....|..|A#3 2F2F ....|--- .... ....|D#4 2F.F ....
....|..|--- .... ....|--- .... ....|C-4 LF.A ....
....|..|--- .... ....|--- .... ....|C-3 RF.7 ....
....|..|--- .... ....|--- .... ....|R-- .... ....
....|..|--- .... ....|--- .... ....|C-4 LF.F ....
....|..|--- .... ....|--- .... ....|C-4 AF.F ....
....|..|--- .... ....|--- .... ....|D#4 2F.F ....
....|..|--- .... ....|--- .... ....|C-4 LF.A ....
....|..|--- .... ....|--- .... ....|C-4 AF.F ....
....|..|R-- .... ....|--- .... ....|R-- .... ....
....|..|--- .... ....|--- .... ....|C-4 LF.F ....
....|..|--- .... ....|--- .... ....|R-- .... ....
....|..|--- .... ....|--- .... ....|C-5 BF.F ....
....|..|--- .... ....|--- .... ....|C-4 LF.A ....
....|..|--- .... ....|--- .... ....|C-5 BF.F ....
....|..|R-- .... ....|--- .... ....|R-- .... ....
....|..|--- .... ....|--- .... ....|C-4 LF.F ....
....|..|--- .... ....|--- .... ....|C-4 AF.7 ....
....|..|A#3 2F27 ....|--- .... ....|C-4 2F.F ....
....|..|--- .... ....|--- .... ....|C-4 LF.A ....
....|..|--- .... ....|--- .... ....|R-- .... ....
....|..|--- .... ....|--- .... ....|C-5 BF.A ....
....|..|--- .... ....|--- .... ....|C-4 LF.F ....
....|..|--- .... ....|--- .... ....|C-4 AF.7 ....
 F-3|..|C-4 2F1F ....|--- .... ....|F-1 2A.F ....
 F-3|..|F-1 2A.F ....|--- .... ....|C-4 LF.A ....
....|..|--- .... ....|--- .... ....|C-4 AF.F ....
....|..|--- .... ....|--- .... ....|R-- .... ....
....|..|--- .... ....|--- .... ....|C-4 LF.F ....
....|..|--- .... ....|--- .... ....|R-- .... ....
....|..|--- .... ....|--- .... ....|D-4 2F.F ....
....|..|--- .... ....|--- .... ....|C-4 LF.A ....
....|..|--- .... ....|--- .... ....|C-3 RF.F ....
....|..|R-- .... ....|--- .... ....|R-- .... ....
 F-3|..|F-1 2F.A ....|--- .... ....|C-4 LF.F ....
....|..|--- .... ....|--- .... ....|C-4 AF.F ....
....|..|--- .... ....|--- .... ....|C-5 BF.F ....
....|..|--- .... ....|--- .... ....|C-4 LF.A ....
....|..|--- .... ....|--- .... ....|C-5 BF.F ....
....|..|R-- .... ....|--- .... ....|R-- .... ....
....|..|--- .... ....|--- .... ....|C-4 LF.F ....
....|..|--- .... ....|--- .... ....|C-3 RF.A ....
....|..|C-4 2F17 ....|D-6 2F.F ....|C-4 LF.F ....
 F-3|..|F-1 2F.7 ....|--- .... ....|C-4 LF.A ....
....|..|--- .... ....|--- .... ....|C-4 AF.7 ....
....|..|--- .... ....|C-6 2F.F ....|R-- .... ....
....|..|--- .... ....|--- .... ....|C-4 LF.F ....
....|..|--- .... ....|--- .... ....|C-4 AF.F ....
....|..|C-4 2F3F ....|A#5 2F.F ....|C-4 AF.F ....
....|..|--- .... ....|--- .... ....|C-4 LF.A ....
....|..|--- .... ....|--- .... ....|C-3 RF.7 ....
....|..|--- .... ....|D-6 2F.A ....|R-- .... ....
....|..|--- .... ....|--- .... ....|C-4 LF.F ....
....|..|--- .... ....|--- .... ....|C-4 AF.F ....
....|..|--- .... ....|C-6 2F.A ....|C-4 AF.F ....
....|..|--- .... ....|--- .... ....|C-4 LF.A ....
....|..|--- .... ....|--- .... ....|C-4 AF.F ....
....|..|R-- .... ....|A#5 2F.A ....|R-- .... ....
....|..|--- .... ....|--- .... ....|C-4 LF.F ....
....|..|--- .... ....|--- .... ....|R-- .... ....
....|..|--- .... ....|D-6 2F.7 ....|C-5 BF.F ....
....|..|--- .... ....|--- .... ....|C-4 LF.A ....
....|..|--- .... ....|--- .... ....|C-5 BF.F ....
....|..|R-- .... ....|C-6 2F.7 ....|R-- .... ....
....|..|--- .... ....|--- .... ....|C-4 LF.F ....
....|..|--- .... ....|--- .... ....|C-4 AF.7 ....
....|..|C-4 2F37 ....|A#5 2F.7 ....|C-4 LF.F ....
....|..|--- .... ....|--- .... ....|C-4 LF.A ....
....|..|--- .... ....|--- .... ....|R-- .... ....
....|..|--- .... ....|--- .... ....|C-5 BF.A ....
....|..|--- .... ....|R-- .... ....|C-4 LF.F ....
....|..|--- .... ....|--- .... ....|C-4 AF.7 ....

[Pattern18]
 A#3|..|F-3 2F1F ....|--- .... ....|A#1 2A.F ....
 A#3|..|A#1 2A.F ....|--- .... ....|C-4 LF.A ....
....|..|--- .... ....|--- .... ....|C-4 AF.F ....
....|..|--- .... ....|--- .... ....|R-- .... ....
....|..|--- .... ....|--- .... ....|C-4 LF.F ....
....|..|--- .... ....|--- .... ....|R-- .... ....
....|..|--- .... ....|--- .... ....|C-3 RF.F ....
....|..|--- .... ....|R-- .... ....|C-4 LF.A ....
....|..|--- .... ....|--- .... ....|C-3 RF.F ....
....|..|R-- .... ....|--- .... ....|R-- .... ....
 A#3|..|A#1 2F.A ....|--- .... ....|C-4 LF.F ....
....|..|--- .... ....|--- .... ....|C-4 AF.F ....
....|..|--- .... ....|--- .... ....|C-5 BF.F ....
....|..|--- .... ....|--- .... ....|C-4 LF.A ....
....|..|--- .... ....|--- .... ....|C-5 BF.F ....
....|..|R-- .... ....|--- .... ....|R-- .... ....
....|..|--- .... ....|R-- .... ....|C-4 LF.F ....
....|..|--- .... ....|--- .... ....|C-3 RF.A ....
....|..|F-3 2F17 ....|--- .... ....|C-4 LF.F ....
 A#3|..|A#1 2F.7 ....|--- .... ....|C-4 LF.A ....
....|..|--- .... ....|--- .... ....|C-4 AF.7 ....
....|..|--- .... ....|--- .... ....|R-- .... ....
....|..|--- .... ....|--- .... ....|C-4 LF.F ....
....|..|--- .... ....|--- .... ....|C-4 AF.F ....
....|..|A#3 2F2F ....|--- .... ....|C-4 AF.F ....
....|..|--- .... ....|--- .... ....|C-4 LF.A ....
....|..|--- .... ....|--- .... ....|C-3 RF.7 ....
....|..|--- .... ....|--- .... ....|R-- .... ....
....|..|--- .... ....|--- .... ....|C-4 LF.F ....
....|..|--- .... ....|--- .... ....|C-4 AF.F ....
....|..|--- .... ....|--- .... ....|C-4 AF.F ....
....|..|--- .... ....|--- .... ....|C-4 LF.A ....
....|..|--- .... ....|--- .... ....|C-4 AF.F ....
....|..|R-- .... ....|--- .... ....|R-- .... ....
....|..|--- .... ....|--- .... ....|C-4 LF.F ....
....|..|--- .... ....|--- .... ....|R-- .... ....
....|..|--- .... ....|--- .... ....|C-5 BF.F ....
....|..|--- .... ....|--- .... ....|C-4 LF.A ....
....|..|--- .... ....|--- .... ....|C-5 BF.F ....
....|..|R-- .... ....|--- .... ....|R-- .... ....
....|..|--- .... ....|--- .... ....|C-4 LF.F ....
....|..|--- .... ....|--- .... ....|C-4 AF.7 ....
....|..|A#3 2F27 ....|--- .... ....|C-4 LF.F ....
....|..|--- .... ....|--- .... ....|C-4 LF.A ....
....|..|--- .... ....|--- .... ....|R-- .... ....
....|..|--- .... ....|--- .... ....|C-5 BF.A ....
....|..|--- .... ....|--- .... ....|C-4 LF.F ....
....|..|--- .... ....|--- .... ....|C-4 AF.7 ....
 F-3|..|C-4 2F1F ....|--- .... ....|F-1 2A.F ....
 F-3|..|F-1 2A.F ....|--- .... ....|C-4 LF.A ....
....|..|--- .... ....|--- .... ....|C-4 AF.F ....
....|..|--- .... ....|--- .... ....|R-- .... ....
....|..|--- .... ....|--- .... ....|C-4 LF.F ....
....|..|--- .... ....|--- .... ....|R-- .... ....
....|..|--- .... ....|--- .... ....|C-3 RF.F ....
....|..|--- .... ....|--- .... ....|C-4 LF.A ....
....|..|--- .... ....|--- .... ....|C-3 RF.F ....
....|..|R-- .... ....|--- .... ....|R-- .... ....
 F-3|..|F-1 2F.A ....|--- .... ....|C-4 LF.F ....
....|..|--- .... ....|--- .... ....|C-4 AF.F ....
....|..|--- .... ....|--- .... ....|C-5 BF.F ....
....|..|--- .... ....|--- .... ....|C-4 LF.A ....
....|..|--- .... ....|--- .... ....|C-5 BF.F ....
....|..|R-- .... ....|--- .... ....|R-- .... ....
....|..|--- .... ....|--- .... ....|C-4 LF.F ....
....|..|--- .... ....|--- .... ....|C-3 RF.A ....
....|..|C-4 2F17 ....|--- .... ....|F-3 2F.F ....
 F-3|..|F-1 2F.7 ....|--- .... ....|C-4 LF.A ....
....|..|--- .... ....|--- .... ....|C-4 AF.7 ....
....|..|--- .... ....|--- .... ....|R-- .... ....
....|..|--- .... ....|--- .... ....|C-4 LF.F ....
....|..|--- .... ....|--- .... ....|C-4 AF.F ....
....|..|C-4 2F3F ....|--- .... ....|C-4 2F.F ....
....|..|--- .... ....|--- .... ....|C-4 LF.A ....
....|..|--- .... ....|--- .... ....|C-3 RF.7 ....
....|..|--- .... ....|--- .... ....|R-- .... ....
....|..|--- .... ....|--- .... ....|C-4 LF.F ....
....|..|--- .... ....|--- .... ....|C-4 AF.F ....
....|..|--- .... ....|--- .... ....|C-4 AF.F ....
....|..|--- .... ....|--- .... ....|C-4 LF.A ....
....|..|--- .... ....|--- .... ....|C-4 2F.F ....
....|..|R-- .... ....|--- .... ....|R-- .... ....
....|..|--- .... ....|--- .... ....|C-4 LF.F ....
....|..|--- .... ....|--- .... ....|R-- .... ....
....|..|--- .... ....|--- .... ....|C-5 BF.F ....
....|..|--- .... ....|--- .... ....|C-4 LF.A ....
....|..|--- .... ....|--- .... ....|C-5 BF.F ....
....|..|R-- .... ....|--- .... ....|R-- .... ....
....|..|--- .... ....|--- .... ....|C-4 LF.F ....
....|..|--- .... ....|--- .... ....|C-4 AF.7 ....
....|..|C-4 2F37 ....|--- .... ....|D-4 2F.F ....
....|..|--- .... ....|--- .... ....|C-4 LF.A ....
....|..|--- .... ....|--- .... ....|R-- .... ....
....|..|--- .... ....|--- .... ....|C-5 BF.A ....
....|..|--- .... ....|--- .... ....|C-4 LF.F ....
....|..|--- .... ....|--- .... ....|C-4 AF.7 ....

[Pattern19]
 A#3|..|F-3 2F1F ....|--- .... ....|A#1 2A.F ....
 A#3|..|A#1 2A.F ....|--- .... ....|C-4 LF.A ....
....|..|--- .... ....|--- .... ....|C-4 AF.F ....
....|..|--- .... ....|--- .... ....|R-- .... ....
....|..|--- .... ....|--- .... ....|C-4 LF.F ....
....|..|--- .... ....|--- .... ....|R-- .... ....
....|..|--- .... ....|--- .... ....|A#3 2F.F ....
....|..|--- .... ....|--- .... ....|C-4 LF.A ....
....|..|--- .... ....|--- .... ....|C-3 RF.F ....
....|..|R-- .... ....|--- .... ....|R-- .... ....
 A#3|..|A#1 2F.A ....|--- .... ....|C-4 LF.F ....
....|..|--- .... ....|--- .... ....|C-4 AF.F ....
....|..|--- .... ....|--- .... ....|C-5 BF.F ....
....|..|--- .... ....|--- .... ....|C-4 LF.A ....
....|..|--- .... ....|--- .... ....|C-5 BF.F ....
....|..|R-- .... ....|--- .... ....|R-- .... ....
....|..|--- .... ....|--- .... ....|C-4 LF.F ....
....|..|--- .... ....|--- .... ....|C-3 RF.A ....
....|..|F-3 2F17 ....|--- .... ....|C-4 LF.F ....
 A#3|..|A#1 2F.7 ....|--- .... ....|C-4 LF.A ....
....|..|--- .... ....|--- .... ....|C-4 AF.7 ....
....|..|--- .... ....|--- .... ....|R-- .... ....
....|..|--- .... ....|--- .... ....|C-4 LF.F ....
....|..|--- .... ....|--- .... ....|C-4 AF.F ....
....|..|A#3 2F2F ....|--- .... ....|C-4 AF.F ....
....|..|--- .... ....|--- .... ....|C-4 LF.A ....
....|..|--- .... ....|--- .... ....|C-3 RF.7 ....
....|..|--- .... ....|--- .... ....|R-- .... ....
....|..|--- .... ....|--- .... ....|C-4 LF.F ....
....|..|--- .... ....|--- .... ....|C-4 AF.F ....
....|..|--- .... ....|--- .... ....|C-4 AF.F ....
....|..|--- .... ....|--- .... ....|C-4 LF.A ....
....|..|--- .... ....|--- .... ....|C-4 AF.F ....
....|..|R-- .... ....|--- .... ....|R-- .... ....
....|..|--- .... ....|--- .... ....|C-4 LF.F ....
....|..|--- .... ....|--- .... ....|R-- .... ....
....|..|--- .... ....|--- .... ....|C-5 BF.F ....
....|..|--- .... ....|--- .... ....|C-4 LF.A ....
....|..|--- .... ....|--- .... ....|C-5 BF.F ....
....|..|R-- .... ....|--- .... ....|R-- .... ....
....|..|--- .... ....|--- .... ....|C-4 LF.F ....
....|..|--- .... ....|--- .... ....|C-4 AF.7 ....
....|..|A#3 2F27 ....|--- .... ....|C-4 LF.F ....
....|..|--- .... ....|--- .... ....|C-4 LF.A ....
....|..|--- .... ....|--- .... ....|R-- .... ....
....|..|--- .... ....|--- .... ....|C-5 BF.A ....
....|..|--- .... ....|--- .... ....|C-4 LF.F ....
....|..|--- .... ....|--- .... ....|C-4 AF.7 ....
 F-3|..|C-4 2F1F ....|--- .... ....|F-1 2A.F ....
 F-3|..|F-1 2A.F ....|--- .... ....|C-4 LF.A ....
....|..|--- .... ....|--- .... ....|C-4 AF.F ....
....|..|--- .... ....|--- .... ....|R-- .... ....
....|..|--- .... ....|--- .... ....|C-4 LF.F ....
....|..|--- .... ....|--- .... ....|R-- .... ....
....|..|--- .... ....|--- .... ....|C-3 RF.F ....
....|..|--- .... ....|--- .... ....|C-4 LF.A ....
....|..|--- .... ....|--- .... ....|C-3 RF.F ....
....|..|R-- .... ....|--- .... ....|R-- .... ....
 F-3|..|F-1 2F.A ....|--- .... ....|C-4 LF.F ....
....|..|--- .... ....|--- .... ....|C-4 AF.F ....
....|..|--- .... ....|--- .... ....|C-5 BF.F ....
....|..|--- .... ....|--- .... ....|C-4 LF.A ....
....|..|--- .... ....|--- .... ....|C-5 BF.F ....
....|..|R-- .... ....|--- .... ....|R-- .... ....
....|..|--- .... ....|--- .... ....|C-4 LF.F ....
....|..|--- .... ....|--- .... ....|C-3 RF.A ....
....|..|C-4 2F17 ....|--- .... ....|C-4 LF.F ....
 F-3|..|F-1 2F.7 ....|--- .... ....|C-4 LF.A ....
....|..|--- .... ....|--- .... ....|C-4 AF.7 ....
....|..|--- .... ....|--- .... ....|R-- .... ....
....|..|--- .... ....|--- .... ....|C-4 LF.F ....
....|..|--- .... ....|--- .... ....|C-4 AF.F ....
....|..|R-- .... ....|--- .... ....|C-4 2F.F ....
....|..|--- .... ....|--- .... ....|C-4 LF.A ....
....|..|--- .... ....|--- .... ....|C-3 RF.7 ....
....|..|--- .... ....|--- .... ....|R-- .... ....
....|..|--- .... ....|--- .... ....|C-4 LF.7 ....
....|..|--- .... ....|--- .... ....|C-4 AF.7 ....
....|..|--- .... ....|--- .... ....|C-5 BF.7 ....
....|..|--- .... ....|--- .... ....|C-4 LF.A ....
....|..|--- .... ....|--- .... ....|C-4 2F.F ....
....|..|R-- .... ....|--- .... ....|R-- .... ....
....|..|--- .... ....|--- .... ....|C-4 LF.7 ....
....|..|--- .... ....|--- .... ....|R-- .... ....
....|..|--- .... ....|--- .... ....|C-4 LF.7 ....
....|..|--- .... ....|--- .... ....|--- .... ....
....|..|--- .... ....|--- .... ....|R-- .... ....
....|..|--- .... ....|--- .... ....|R-- .... ....
....|..|--- .... ....|--- .... ....|C-4 LF.7 ....
....|..|--- .... ....|--- .... ....|C-4 AF.7 ....
....|..|R-- .... ....|--- .... ....|D-4 2F.F ....
....|..|--- .... ....|--- .... ....|--- .... ....
....|..|--- .... ....|--- .... ....|R-- .... ....
....|..|--- .... ....|--- .... ....|--- .... ....
....|..|--- .... ....|--- .... ....|--- .... ....
....|..|--- .... ....|--- .... ....|R-- .... ....

[Pattern20]
 A#3|..|F-3 2F1F ....|A#5 2F.F ....|A#1 2A.F ....
 A#3|..|A#1 2A.F ....|--- .... ....|--- .... ....
....|..|--- .... ....|C-4 2F.F ....|C-4 AF.F ....
....|..|--- .... ....|A#3 2F.F ....|R-- .... ....
....|..|--- .... ....|--- .... ....|C-4 LF.F ....
....|..|--- .... ....|--- .... ....|--- .... ....
....|..|--- .... ....|--- .... ....|A#3 2F.F ....
....|..|--- .... ....|--- .... ....|--- .... ....
....|..|--- .... ....|--- .... ....|C-3 RF.F ....
....|..|F-3 2F1A ....|A#5 2F.A ....|R-- .... ....
 A#3|..|A#1 2F.A ....|--- .... ....|C-4 LF.F ....
....|..|--- .... ....|C-4 2F.A ....|C-4 AF.F ....
....|..|--- .... ....|R-- .... ....|C-5 BF.F ....
....|..|--- .... ....|--- .... ....|C-4 LF.A ....
....|..|--- .... ....|--- .... ....|C-5 BF.F ....
....|..|R-- .... ....|--- .... ....|R-- .... ....
....|..|--- .... ....|--- .... ....|C-4 LF.F ....
....|..|--- .... ....|--- .... ....|C-3 RF.A ....
....|..|F-3 2F17 ....|A#5 2F.7 ....|C-4 LF.F ....
 A#3|..|A#1 2F.7 ....|--- .... ....|C-4 LF.A ....
....|..|--- .... ....|C-4 2F.7 ....|C-4 AF.7 ....
....|..|--- .... ....|A#3 2F.7 ....|R-- .... ....
....|..|--- .... ....|--- .... ....|C-4 LF.F ....
....|..|--- .... ....|--- .... ....|C-4 AF.F ....
....|..|A#3 2F2F ....|--- .... ....|C-4 AF.F ....
....|..|--- .... ....|--- .... ....|C-4 LF.A ....
....|..|--- .... ....|--- .... ....|C-3 RF.7 ....
....|..|--- .... ....|--- .... ....|R-- .... ....
....|..|--- .... ....|--- .... ....|C-4 LF.F ....
....|..|--- .... ....|--- .... ....|C-4 AF.F ....
....|..|--- .... ....|R-- .... ....|C-4 AF.F ....
....|..|--- .... ....|--- .... ....|C-4 LF.A ....
....|..|--- .... ....|--- .... ....|C-4 AF.F ....
....|..|R-- .... ....|--- .... ....|R-- .... ....
....|..|--- .... ....|--- .... ....|C-4 LF.F ....
....|..|--- .... ....|--- .... ....|R-- .... ....
....|..|--- .... ....|--- .... ....|C-5 BF.F ....
....|..|--- .... ....|--- .... ....|C-4 LF.A ....
....|..|--- .... ....|--- .... ....|C-5 BF.F ....
....|..|R-- .... ....|--- .... ....|R-- .... ....
....|..|--- .... ....|--- .... ....|C-4 LF.F ....
....|..|--- .... ....|--- .... ....|C-4 AF.7 ....
....|..|A#3 2F27 ....|--- .... ....|C-4 LF.F ....
....|..|--- .... ....|--- .... ....|C-4 LF.A ....
....|..|--- .... ....|--- .... ....|R-- .... ....
....|..|--- .... ....|--- .... ....|C-5 BF.A ....
....|..|--- .... ....|--- .... ....|C-4 LF.F ....
....|..|--- .... ....|--- .... ....|C-4 AF.7 ....
 F-3|..|C-4 2F1F ....|D-4 2F.F ....|F-1 2A.F ....
 F-3|..|F-1 2A.F ....|--- .... ....|C-4 LF.A ....
....|..|--- .... ....|C-4 2F.F ....|C-4 AF.F ....
....|..|--- .... ....|A#3 2F.F ....|R-- .... ....
....|..|--- .... ....|--- .... ....|C-4 LF.F ....
....|..|--- .... ....|--- .... ....|R-- .... ....
....|..|--- .... ....|--- .... ....|C-3 RF.F ....
....|..|--- .... ....|--- .... ....|C-4 LF.A ....
....|..|--- .... ....|--- .... ....|C-3 RF.F ....
....|..|R-- .... ....|D-4 2F.A ....|R-- .... ....
 F-3|..|F-1 2F.A ....|--- .... ....|C-4 LF.F ....
....|..|--- .... ....|C-4 2F.A ....|C-4 AF.F ....
....|..|--- .... ....|R-- .... ....|C-5 BF.F ....
....|..|--- .... ....|--- .... ....|C-4 LF.A ....
....|..|--- .... ....|--- .... ....|C-5 BF.F ....
....|..|R-- .... ....|--- .... ....|R-- .... ....
....|..|--- .... ....|--- .... ....|C-4 LF.F ....
....|..|--- .... ....|--- .... ....|C-3 RF.A ....
....|..|C-4 2F17 ....|G#5 2F.F ....|C-4 LF.F ....
 F-3|..|F-1 2F.7 ....|--- .... ....|C-4 LF.A ....
....|..|--- .... ....|C-4 2F.7 ....|C-4 AF.7 ....
....|..|--- .... ....|A#5 2F.F ....|R-- .... ....
....|..|--- .... ....|--- .... ....|C-4 LF.F ....
....|..|--- .... ....|--- .... ....|C-4 AF.F ....
....|..|C-4 2F3F ....|--- .... ....|C-4 AF.F ....
....|..|--- .... ....|--- .... ....|C-4 LF.A ....
....|..|--- .... ....|G#5 2F.F ....|C-3 RF.7 ....
....|..|--- .... ....|G#5 2F.A ....|R-- .... ....
....|..|--- .... ....|--- .... ....|C-4 LF.F ....
....|..|--- .... ....|--- .... ....|C-4 AF.F ....
....|..|--- .... ....|R-- .... ....|C-4 AF.F ....
....|..|--- .... ....|--- .... ....|C-4 LF.A ....
....|..|--- .... ....|G-5 2F.F ....|C-4 AF.F ....
....|..|R-- .... ....|--- .... ....|R-- .... ....
....|..|--- .... ....|--- .... ....|C-4 LF.F ....
....|..|--- .... ....|G#5 2F.A ....|R-- .... ....
....|..|--- .... ....|G#5 2F.7 ....|C-5 BF.F ....
....|..|--- .... ....|--- .... ....|C-4 LF.A ....
....|..|--- .... ....|G#5 2F.F ....|C-5 BF.F ....
....|..|R-- .... ....|A#5 2F.7 ....|R-- .... ....
....|..|--- .... ....|--- .... ....|C-4 LF.F ....
....|..|--- .... ....|G-5 2F.A ....|C-4 AF.7 ....
....|..|C-4 2F37 ....|--- .... ....|C-4 LF.F ....
....|..|--- .... ....|--- .... ....|C-4 LF.A ....
....|..|--- .... ....|G-5 2F.F ....|R-- .... ....
....|..|--- .... ....|--- .... ....|C-5 BF.A ....
....|..|--- .... ....|--- .... ....|C-4 LF.F ....
....|..|--- .... ....|G#5 2F.A ....|C-4 AF.7 ....

[Pattern24]
....|..|R-- .... ....|D-4 2F.F ....|D-4 2F.F ....
....|..|--- .... ....|--- .... ....|C-4 LF.A ....
....|..|--- .... ....|C-4 2F.F ....|C-4 AF.F ....
....|..|--- .... ....|A#3 2F.F ....|R-- .... ....
....|..|--- .... ....|--- .... ....|C-4 LF.F ....
....|..|--- .... ....|--- .... ....|D-4 2F.F ....
....|..|--- .... ....|G#5 2F.7 ....|C-3 RF.F ....
....|..|--- .... ....|--- .... ....|C-4 LF.A ....
....|..|--- .... ....|--- .... ....|C-3 RF.F ....
....|..|R-- .... ....|D-4 2F.A ....|R-- .... ....
....|..|--- .... ....|--- .... ....|C-4 LF.F ....
....|..|--- .... ....|C-4 2F.A ....|C-4 AF.F ....
....|..|--- .... ....|F-5 2F.7 ....|C-5 BF.F ....
....|..|--- .... ....|--- .... ....|C-4 LF.A ....
....|..|--- .... ....|--- .... ....|C-5 BF.F ....
....|..|--- .... ....|--- .... ....|R-- .... ....
....|..|--- .... ....|--- .... ....|C-4 LF.F ....
....|..|--- .... ....|--- .... ....|R-- .... ....
....|..|R-- .... ....|D-4 2F.7 ....|D-4 2F.F ....
....|..|--- .... ....|--- .... ....|C-4 LF.A ....
....|..|--- .... ....|C-4 2F.7 ....|C-4 AF.7 ....
....|..|--- .... ....|A#3 2F.7 ....|R-- .... ....
....|..|--- .... ....|--- .... ....|C-4 LF.F ....
....|..|--- .... ....|--- .... ....|C-4 AF.F ....
....|..|--- .... ....|R-- .... ....|C-4 AF.F ....
....|..|--- .... ....|--- .... ....|C-4 LF.A ....
....|..|--- .... ....|--- .... ....|C-3 RF.7 ....
....|..|--- .... ....|--- .... ....|R-- .... ....
....|..|--- .... ....|--- .... ....|C-4 LF.F ....
....|..|--- .... ....|--- .... ....|C-4 AF.F ....
....|..|--- .... ....|R-- .... ....|D-4 2F.F ....
....|..|--- .... ....|--- .... ....|C-4 LF.A ....
....|..|--- .... ....|--- .... ....|C-4 AF.F ....
....|..|--- .... ....|R-- .... ....|R-- .... ....
....|..|--- .... ....|--- .... ....|C-4 LF.F ....
....|..|--- .... ....|--- .... ....|R-- .... ....
....|..|--- .... ....|--- .... ....|C-5 BF.F ....
....|..|--- .... ....|--- .... ....|C-4 LF.A ....
....|..|--- .... ....|--- .... ....|C-5 BF.F ....
....|..|--- .... ....|--- .... ....|R-- .... ....
....|..|--- .... ....|--- .... ....|C-4 LF.F ....
....|..|--- .... ....|--- .... ....|C-4 AF.7 ....
....|..|--- .... ....|R-- .... ....|D-4 2F.F ....
....|..|--- .... ....|--- .... ....|C-4 LF.A ....
....|..|--- .... ....|--- .... ....|R-- .... ....
....|..|--- .... ....|--- .... ....|C-5 BF.A ....
....|..|--- .... ....|--- .... ....|C-4 LF.F ....
....|..|--- .... ....|--- .... ....|D#4 2F.F ....
....|..|--- .... ....|D-4 2F.F ....|C-4 AF.F ....
....|..|--- .... ....|--- .... ....|C-4 LF.A ....
....|..|--- .... ....|C-4 2F.F ....|C-4 AF.F ....
....|..|--- .... ....|A#3 2F.F ....|R-- .... ....
....|..|--- .... ....|--- .... ....|C-4 LF.F ....
....|..|--- .... ....|--- .... ....|R-- .... ....
....|..|--- .... ....|--- .... ....|D-4 2F.F ....
....|..|--- .... ....|--- .... ....|C-4 LF.A ....
....|..|--- .... ....|--- .... ....|C-3 RF.F ....
....|..|--- .... ....|D-4 2F.A ....|R-- .... ....
....|..|--- .... ....|--- .... ....|C-4 LF.F ....
....|..|--- .... ....|C-4 2F.A ....|C-4 AF.F ....
....|..|--- .... ....|R-- .... ....|C-5 BF.F ....
....|..|--- .... ....|--- .... ....|C-4 LF.A ....
....|..|--- .... ....|--- .... ....|C-5 BF.F ....
....|..|--- .... ....|--- .... ....|R-- .... ....
....|..|--- .... ....|--- .... ....|C-4 LF.F ....
....|..|--- .... ....|--- .... ....|D#4 2F.7 ....
....|..|--- .... ....|D-4 2F.7 ....|C-4 2F.F ....
....|..|--- .... ....|--- .... ....|C-4 LF.A ....
....|..|--- .... ....|C-4 2F.7 ....|C-4 AF.7 ....
....|..|--- .... ....|A#3 2F.7 ....|R-- .... ....
....|..|--- .... ....|--- .... ....|C-4 LF.F ....
....|..|--- .... ....|--- .... ....|C-4 AF.F ....
....|..|--- .... ....|--- .... ....|C-4 AF.F ....
....|..|--- .... ....|--- .... ....|C-4 LF.A ....
....|..|--- .... ....|--- .... ....|C-3 RF.7 ....
....|..|--- .... ....|--- .... ....|R-- .... ....
....|..|--- .... ....|--- .... ....|C-4 LF.F ....
....|..|--- .... ....|--- .... ....|C-4 AF.F ....
....|..|--- .... ....|R-- .... ....|D-4 2F.F ....
....|..|--- .... ....|--- .... ....|C-4 LF.A ....
....|..|--- .... ....|--- .... ....|C-4 AF.F ....
....|..|--- .... ....|--- .... ....|R-- .... ....
....|..|--- .... ....|--- .... ....|C-4 LF.F ....
....|..|--- .... ....|--- .... ....|R-- .... ....
....|..|--- .... ....|--- .... ....|C-5 BF.F ....
....|..|--- .... ....|--- .... ....|C-4 LF.A ....
....|..|--- .... ....|--- .... ....|C-5 BF.F ....
....|..|--- .... ....|--- .... ....|R-- .... ....
....|..|--- .... ....|--- .... ....|C-4 LF.F ....
....|..|--- .... ....|--- .... ....|A#3 2F.F ....
....|..|--- .... ....|--- .... ....|C-4 LF.F ....
....|..|--- .... ....|--- .... ....|C-4 LF.A ....
....|..|--- .... ....|--- .... ....|R-- .... ....
....|..|--- .... ....|--- .... ....|C-5 BF.A ....
....|..|--- .... ....|--- .... ....|C-4 LF.F ....
....|..|--- .... ....|--- .... ....|C-4 AF.7 ....

[Pattern25]
....|..|--- .... ....|D-4 2F.F ....|C-4 AF.F ....
....|..|--- .... ....|--- .... ....|C-4 LF.A ....
....|..|--- .... ....|C-4 2F.F ....|C-4 AF.F ....
....|..|--- .... ....|A#3 2F.F ....|R-- .... ....
....|..|--- .... ....|--- .... ....|C-4 LF.F ....
....|..|--- .... ....|--- .... ....|R-- .... ....
....|..|--- .... ....|--- .... ....|C-3 RF.F ....
....|..|--- .... ....|--- .... ....|C-4 LF.A ....
....|..|--- .... ....|--- .... ....|C-3 RF.F ....
....|..|--- .... ....|D-4 2F.A ....|R-- .... ....
....|..|--- .... ....|--- .... ....|C-4 LF.F ....
....|..|--- .... ....|C-4 2F.A ....|C-4 AF.F ....
....|..|--- .... ....|R-- .... ....|C-5 BF.F ....
....|..|--- .... ....|--- .... ....|C-4 LF.A ....
....|..|--- .... ....|--- .... ....|C-5 BF.F ....
....|..|--- .... ....|--- .... ....|R-- .... ....
....|..|--- .... ....|--- .... ....|C-4 LF.F ....
....|..|--- .... ....|--- .... ....|C-3 RF.A ....
....|..|--- .... ....|D-4 2F.7 ....|C-4 LF.F ....
....|..|--- .... ....|--- .... ....|C-4 LF.A ....
....|..|--- .... ....|C-4 2F.7 ....|C-4 AF.7 ....
....|..|--- .... ....|A#3 2F.7 ....|R-- .... ....
....|..|--- .... ....|--- .... ....|C-4 LF.F ....
....|..|--- .... ....|--- .... ....|C-4 AF.F ....
....|..|--- .... ....|--- .... ....|C-4 AF.F ....
....|..|--- .... ....|--- .... ....|C-4 LF.A ....
....|..|--- .... ....|--- .... ....|C-3 RF.7 ....
....|..|--- .... ....|--- .... ....|R-- .... ....
....|..|--- .... ....|--- .... ....|C-4 LF.F ....
....|..|--- .... ....|--- .... ....|C-4 AF.F ....
....|..|--- .... ....|R-- .... ....|C-4 AF.F ....
....|..|--- .... ....|--- .... ....|C-4 LF.A ....
....|..|--- .... ....|--- .... ....|C-4 AF.F ....
....|..|--- .... ....|--- .... ....|R-- .... ....
....|..|--- .... ....|--- .... ....|C-4 LF.F ....
....|..|--- .... ....|--- .... ....|R-- .... ....
....|..|--- .... ....|--- .... ....|C-5 BF.F ....
....|..|--- .... ....|--- .... ....|C-4 LF.A ....
....|..|--- .... ....|--- .... ....|C-5 BF.F ....
....|..|--- .... ....|--- .... ....|R-- .... ....
....|..|--- .... ....|--- .... ....|C-4 LF.F ....
....|..|--- .... ....|--- .... ....|C-4 AF.7 ....
....|..|--- .... ....|--- .... ....|C-4 LF.F ....
....|..|--- .... ....|--- .... ....|C-4 LF.A ....
....|..|--- .... ....|--- .... ....|R-- .... ....
....|..|--- .... ....|D-4 2F.F ....|C-5 BF.A ....
....|..|--- .... ....|--- .... ....|C-4 LF.F ....
....|..|--- .... ....|--- .... ....|C-4 AF.7 ....
....|..|--- .... ....|--- .... ....|C-4 AF.F ....
....|..|--- .... ....|--- .... ....|C-4 LF.A ....
....|..|--- .... ....|--- .... ....|C-4 AF.F ....
....|..|--- .... ....|--- .... ....|R-- .... ....
....|..|--- .... ....|--- .... ....|C-4 LF.F ....
....|..|--- .... ....|--- .... ....|R-- .... ....
....|..|--- .... ....|D-4 2F.A ....|C-3 RF.F ....
....|..|--- .... ....|--- .... ....|C-4 LF.A ....
....|..|--- .... ....|C-4 2F.F ....|C-3 RF.F ....
....|..|--- .... ....|--- .... ....|R-- .... ....
....|..|--- .... ....|--- .... ....|C-4 LF.F ....
....|..|--- .... ....|--- .... ....|C-4 AF.F ....
....|..|--- .... ....|--- .... ....|C-5 BF.F ....
....|..|--- .... ....|--- .... ....|C-4 LF.A ....
....|..|--- .... ....|--- .... ....|C-5 BF.F ....
....|..|--- .... ....|D-4 2F.7 ....|R-- .... ....
....|..|--- .... ....|--- .... ....|C-4 LF.F ....
....|..|--- .... ....|C-4 2F.A ....|C-3 RF.A ....
....|..|--- .... ....|--- .... ....|C-4 LF.F ....
....|..|--- .... ....|--- .... ....|C-4 LF.A ....
....|..|--- .... ....|--- .... ....|C-4 AF.7 ....
....|..|--- .... ....|R-- .... ....|R-- .... ....
....|..|--- .... ....|--- .... ....|C-4 LF.F ....
....|..|--- .... ....|--- .... ....|C-4 AF.F ....
....|..|--- .... ....|--- .... ....|A#3 2F.F ....
....|..|--- .... ....|--- .... ....|C-4 LF.A ....
....|..|--- .... ....|C-4 2F.7 ....|C-3 RF.7 ....
....|..|--- .... ....|--- .... ....|R-- .... ....
....|..|--- .... ....|--- .... ....|C-4 LF.7 ....
....|..|--- .... ....|--- .... ....|C-4 AF.7 ....
....|..|--- .... ....|G-3 2F.F ....|C-5 BF.7 ....
....|..|--- .... ....|--- .... ....|C-4 LF.A ....
....|..|--- .... ....|--- .... ....|C-5 BF.7 ....
....|..|--- .... ....|--- .... ....|R-- .... ....
....|..|--- .... ....|--- .... ....|C-4 LF.7 ....
....|..|--- .... ....|--- .... ....|R-- .... ....
....|..|--- .... ....|--- .... ....|A#3 2F.F ....
....|..|--- .... ....|--- .... ....|--- .... ....
....|..|--- .... ....|--- .... ....|R-- .... ....
....|..|--- .... ....|R-- .... ....|--- .... ....
....|..|--- .... ....|--- .... ....|C-4 LF.7 ....
....|..|--- .... ....|--- .... ....|C-4 AF.7 ....
....|..|--- .... ....|A#3 2F.F ....|A#3 2F.7 ....
....|..|--- .... ....|--- .... ....|R-- .... ....
....|..|--- .... ....|--- .... ....|R-- .... ....
....|..|--- .... ....|--- .... ....|A#3 2F.A ....
....|..|--- .... ....|--- .... ....|R-- .... ....
....|..|--- .... ....|--- .... ....|--- .... ....

[Pattern26]
 C-4|..|C-2 2A.F ....|G-3 2F.7 ....|C-2 2A.F ....
....|..|--- .... ....|--- .... ....|--- .... ....
....|..|--- .... ....|--- .... ....|C-4 AF.F ....
....|..|--- .... ....|A#3 2F.A ....|R-- .... ....
....|..|--- .... ....|--- .... ....|C-4 LF.F ....
....|..|--- .... ....|--- .... ....|--- .... ....
....|..|--- .... ....|--- .... ....|C-3 RF.F ....
....|..|--- .... ....|--- .... ....|R-- .... ....
....|..|--- .... ....|--- .... ....|C-3 RF.F ....
 C-4|..|C-2 2F.A ....|R-- .... ....|R-- .... ....
....|..|--- .... ....|--- .... ....|C-4 LF.F ....
....|..|--- .... ....|--- .... ....|C-4 AF.F ....
....|..|--- .... ....|E-5 2F.F ....|C-4 2F.F ....
....|..|--- .... ....|--- .... ....|C-4 LF.A ....
....|..|--- .... ....|--- .... ....|C-5 BF.F ....
....|..|--- .... ....|G-5 2F.F ....|R-- .... ....
....|..|--- .... ....|--- .... ....|C-4 LF.F ....
....|..|--- .... ....|--- .... ....|C-3 RF.A ....
 C-4|..|C-2 2F.7 ....|C-6 2F.F ....|C-4 LF.F ....
....|..|--- .... ....|--- .... ....|C-4 LF.A ....
....|..|--- .... ....|--- .... ....|C-4 AF.7 ....
....|..|--- .... ....|E-5 2F.A ....|R-- .... ....
....|..|--- .... ....|--- .... ....|C-4 LF.F ....
....|..|--- .... ....|--- .... ....|C-4 AF.F ....
....|..|--- .... ....|G-5 2F.A ....|C-4 AF.F ....
....|..|--- .... ....|--- .... ....|C-4 LF.A ....
....|..|--- .... ....|--- .... ....|C-3 RF.7 ....
....|..|--- .... ....|C-6 2F.A ....|R-- .... ....
....|..|--- .... ....|--- .... ....|C-4 LF.F ....
....|..|--- .... ....|--- .... ....|C-4 AF.F ....
....|..|--- .... ....|E-5 2F.7 ....|C-4 AF.F ....
....|..|--- .... ....|--- .... ....|C-4 LF.A ....
....|..|--- .... ....|--- .... ....|C-4 AF.F ....
....|..|--- .... ....|G-5 2F.7 ....|R-- .... ....
....|..|--- .... ....|--- .... ....|C-4 LF.F ....
....|..|--- .... ....|--- .... ....|R-- .... ....
....|..|--- .... ....|C-6 2F.7 ....|C-5 BF.F ....
....|..|--- .... ....|--- .... ....|C-4 LF.A ....
....|..|--- .... ....|--- .... ....|C-5 BF.F ....
....|..|--- .... ....|--- .... ....|R-- .... ....
....|..|--- .... ....|--- .... ....|C-4 LF.F ....
....|..|--- .... ....|--- .... ....|C-4 AF.7 ....
....|..|--- .... ....|--- .... ....|C-4 LF.F ....
....|..|--- .... ....|G-5 2F.F ....|R-- .... ....
....|..|--- .... ....|R-- .... ....|R-- .... ....
....|..|--- .... ....|--- .... ....|C-5 BF.A ....
....|..|--- .... ....|--- .... ....|C-4 LF.F ....
....|..|--- .... ....|--- .... ....|C-4 AF.7 ....
 B-3|..|B-1 2A.F ....|--- .... ....|B-1 2A.F ....
....|..|--- .... ....|--- .... ....|C-4 LF.A ....
....|..|--- .... ....|--- .... ....|C-4 AF.F ....
....|..|--- .... ....|--- .... ....|R-- .... ....
....|..|--- .... ....|G-5 2F.A ....|C-4 LF.F ....
....|..|--- .... ....|R-- .... ....|R-- .... ....
....|..|--- .... ....|--- .... ....|C-3 RF.F ....
....|..|--- .... ....|--- .... ....|C-4 LF.A ....
....|..|--- .... ....|--- .... ....|C-3 RF.F ....
 B-3|..|B-1 2F.A ....|--- .... ....|R-- .... ....
....|..|--- .... ....|--- .... ....|C-4 LF.F ....
....|..|--- .... ....|--- .... ....|C-4 AF.F ....
....|..|--- .... ....|E-5 2F.F ....|C-5 BF.F ....
....|..|--- .... ....|G-5 2F.7 ....|R-- .... ....
....|..|--- .... ....|R-- .... ....|C-5 BF.F ....
....|..|--- .... ....|G-5 2F.F ....|R-- .... ....
....|..|--- .... ....|--- .... ....|C-4 LF.F ....
....|..|--- .... ....|--- .... ....|C-3 RF.A ....
 B-3|..|B-1 2F.7 ....|B-5 2F.F ....|G-3 2F.F ....
....|..|--- .... ....|--- .... ....|C-4 LF.A ....
....|..|--- .... ....|--- .... ....|C-4 AF.7 ....
....|..|--- .... ....|E-5 2F.A ....|R-- .... ....
....|..|--- .... ....|--- .... ....|C-4 LF.F ....
....|..|--- .... ....|--- .... ....|C-4 AF.F ....
....|..|--- .... ....|G-5 2F.A ....|C-4 AF.F ....
....|..|--- .... ....|--- .... ....|C-4 LF.A ....
....|..|--- .... ....|--- .... ....|C-3 RF.7 ....
....|..|--- .... ....|B-5 2F.A ....|R-- .... ....
....|..|--- .... ....|--- .... ....|C-4 LF.F ....
....|..|--- .... ....|--- .... ....|C-4 AF.F ....
....|..|--- .... ....|E-5 2F.7 ....|C-4 AF.F ....
....|..|--- .... ....|--- .... ....|C-4 LF.A ....
....|..|--- .... ....|--- .... ....|C-4 AF.F ....
....|..|--- .... ....|G-5 2F.7 ....|R-- .... ....
....|..|--- .... ....|--- .... ....|C-4 LF.F ....
....|..|--- .... ....|--- .... ....|R-- .... ....
....|..|--- .... ....|B-5 2F.7 ....|C-5 BF.F ....
....|..|--- .... ....|--- .... ....|C-4 LF.A ....
....|..|--- .... ....|--- .... ....|C-5 BF.F ....
....|..|--- .... ....|--- .... ....|R-- .... ....
....|..|--- .... ....|--- .... ....|C-4 LF.F ....
....|..|--- .... ....|--- .... ....|C-4 AF.7 ....
....|..|--- .... ....|R-- .... ....|C-4 LF.F ....
....|..|--- .... ....|--- .... ....|C-4 LF.A ....
....|..|--- .... ....|--- .... ....|R-- .... ....
....|..|--- .... ....|--- .... ....|C-5 BF.A ....
....|..|--- .... ....|--- .... ....|C-4 LF.F ....
....|..|--- .... ....|--- .... ....|C-4 AF.7 ....

[Pattern27]
 G-3|..|G-1 2A.F ....|--- .... ....|G-1 2A.F ....
....|..|--- .... ....|--- .... ....|C-4 LF.A ....
....|..|--- .... ....|--- .... ....|C-4 AF.F ....
....|..|--- .... ....|R-- .... ....|R-- .... ....
....|..|--- .... ....|--- .... ....|C-4 LF.F ....
....|..|--- .... ....|--- .... ....|R-- .... ....
....|..|--- .... ....|--- .... ....|B-3 2F.F ....
....|..|--- .... ....|--- .... ....|C-4 LF.A ....
....|..|--- .... ....|--- .... ....|C-3 RF.F ....
 G-3|..|G-1 2F.A ....|--- .... ....|R-- .... ....
....|..|--- .... ....|--- .... ....|C-4 LF.F ....
....|..|--- .... ....|--- .... ....|C-4 AF.F ....
....|..|--- .... ....|B-5 2F.F ....|C-5 BF.F ....
....|..|--- .... ....|--- .... ....|C-4 LF.A ....
....|..|--- .... ....|--- .... ....|C-5 BF.F ....
....|..|--- .... ....|B-5 2F.F ....|R-- .... ....
....|..|--- .... ....|--- .... ....|C-4 LF.F ....
....|..|--- .... ....|--- .... ....|C-3 RF.A ....
 G-3|..|G-1 2F.7 ....|B-5 2F.F ....|C-4 2F.F ....
....|..|--- .... ....|--- .... ....|C-4 LF.A ....
....|..|--- .... ....|--- .... ....|C-4 AF.7 ....
....|..|--- .... ....|B-5 2F.A ....|R-- .... ....
....|..|--- .... ....|--- .... ....|C-4 LF.F ....
....|..|--- .... ....|--- .... ....|C-4 AF.F ....
....|..|--- .... ....|B-5 2F.A ....|D-4 2F.F ....
....|..|--- .... ....|--- .... ....|C-4 LF.A ....
....|..|--- .... ....|--- .... ....|C-3 RF.7 ....
....|..|--- .... ....|B-5 2F.A ....|R-- .... ....
....|..|--- .... ....|--- .... ....|C-4 LF.F ....
....|..|--- .... ....|--- .... ....|C-4 AF.F ....
....|..|--- .... ....|B-5 2F.7 ....|C-4 AF.F ....
....|..|--- .... ....|--- .... ....|C-4 LF.A ....
....|..|--- .... ....|--- .... ....|C-4 AF.F ....
....|..|--- .... ....|B-5 2F.7 ....|C-4 2F.F ....
....|..|--- .... ....|--- .... ....|C-4 LF.F ....
....|..|--- .... ....|--- .... ....|R-- .... ....
....|..|--- .... ....|B-5 2F.7 ....|C-5 BF.F ....
....|..|--- .... ....|--- .... ....|C-4 LF.A ....
....|..|--- .... ....|--- .... ....|C-5 BF.F ....
....|..|--- .... ....|--- .... ....|B-3 2F.F ....
....|..|--- .... ....|--- .... ....|C-4 LF.F ....
....|..|--- .... ....|--- .... ....|C-4 AF.7 ....
....|..|--- .... ....|R-- .... ....|C-4 LF.F ....
....|..|--- .... ....|--- .... ....|C-4 LF.A ....
....|..|--- .... ....|--- .... ....|R-- .... ....
....|..|--- .... ....|--- .... ....|C-5 BF.A ....
....|..|--- .... ....|--- .... ....|C-4 LF.F ....
....|..|--- .... ....|--- .... ....|C-4 AF.7 ....
 D-4|..|D-2 2A.F ....|--- .... ....|D-2 2A.F ....
....|..|--- .... ....|--- .... ....|C-4 LF.A ....
....|..|--- .... ....|--- .... ....|C-4 AF.F ....
....|..|--- .... ....|R-- .... ....|A-3 2F.F ....
....|..|--- .... ....|--- .... ....|C-4 LF.F ....
....|..|--- .... ....|--- .... ....|R-- .... ....
....|..|--- .... ....|--- .... ....|C-3 RF.F ....
....|..|--- .... ....|--- .... ....|C-4 LF.A ....
....|..|--- .... ....|--- .... ....|C-3 RF.F ....
 D-4|..|D-2 2F.A ....|--- .... ....|B-3 2F.7 ....
....|..|--- .... ....|--- .... ....|C-4 LF.F ....
....|..|--- .... ....|--- .... ....|C-4 AF.F ....
....|..|--- .... ....|D-5 2F.F ....|C-5 BF.F ....
....|..|--- .... ....|--- .... ....|C-4 LF.A ....
....|..|--- .... ....|--- .... ....|C-5 BF.F ....
....|..|--- .... ....|F#5 2F.F ....|R-- .... ....
....|..|--- .... ....|--- .... ....|C-4 LF.F ....
....|..|--- .... ....|--- .... ....|C-3 RF.A ....
 D-4|..|D-2 2F.7 ....|A-5 2F.F ....|C-4 LF.F ....
....|..|--- .... ....|--- .... ....|C-4 LF.A ....
....|..|--- .... ....|--- .... ....|C-4 AF.7 ....
....|..|--- .... ....|D-5 2F.A ....|A-3 2F.7 ....
....|..|--- .... ....|--- .... ....|C-4 LF.F ....
....|..|--- .... ....|--- .... ....|C-4 AF.F ....
....|..|--- .... ....|F#5 2F.A ....|C-4 AF.F ....
....|..|--- .... ....|--- .... ....|C-4 LF.A ....
....|..|--- .... ....|--- .... ....|C-3 RF.7 ....
....|..|--- .... ....|A-5 2F.A ....|R-- .... ....
....|..|--- .... ....|--- .... ....|C-4 LF.F ....
....|..|--- .... ....|--- .... ....|C-4 AF.F ....
....|..|--- .... ....|D-5 2F.7 ....|C-4 AF.F ....
....|..|--- .... ....|--- .... ....|C-4 LF.A ....
....|..|--- .... ....|--- .... ....|C-4 AF.F ....
....|..|--- .... ....|F#5 2F.7 ....|R-- .... ....
....|..|--- .... ....|--- .... ....|C-4 LF.F ....
....|..|--- .... ....|--- .... ....|R-- .... ....
....|..|--- .... ....|A-5 2F.7 ....|C-5 BF.F ....
....|..|--- .... ....|--- .... ....|C-4 LF.A ....
....|..|--- .... ....|--- .... ....|C-5 BF.F ....
....|..|--- .... ....|--- .... ....|R-- .... ....
....|..|--- .... ....|--- .... ....|C-4 LF.F ....
....|..|--- .... ....|--- .... ....|C-4 AF.7 ....
....|..|--- .... ....|R-- .... ....|C-4 LF.F ....
....|..|--- .... ....|--- .... ....|C-4 LF.A ....
....|..|--- .... ....|--- .... ....|R-- .... ....
....|..|--- .... ....|--- .... ....|C-5 BF.A ....
....|..|--- .... ....|--- .... ....|C-4 LF.F ....
....|..|--- .... ....|--- .... ....|C-4 AF.7 ....

[Pattern28]
 A-3|..|A-1 2A.F ....|--- .... ....|A-1 2A.F ....
....|..|--- .... ....|--- .... ....|C-4 LF.A ....
....|..|--- .... ....|--- .... ....|C-4 AF.F ....
....|..|--- .... ....|R-- .... ....|R-- .... ....
....|..|--- .... ....|--- .... ....|C-4 LF.F ....
....|..|--- .... ....|--- .... ....|R-- .... ....
....|..|--- .... ....|--- .... ....|C-3 RF.F ....
....|..|--- .... ....|--- .... ....|C-4 LF.A ....
....|..|--- .... ....|--- .... ....|C-3 RF.F ....
 A-3|..|A-1 2F.A ....|--- .... ....|R-- .... ....
....|..|--- .... ....|--- .... ....|C-4 LF.F ....
....|..|--- .... ....|--- .... ....|C-4 AF.F ....
....|..|--- .... ....|A-5 2F.F ....|C-5 BF.F ....
....|..|--- .... ....|--- .... ....|C-4 LF.A ....
....|..|--- .... ....|--- .... ....|C-5 BF.F ....
....|..|--- .... ....|A-5 2F.F ....|R-- .... ....
....|..|--- .... ....|--- .... ....|C-4 LF.F ....
....|..|--- .... ....|--- .... ....|C-3 RF.A ....
 A-3|..|A-1 2F.7 ....|A-5 2F.F ....|C-4 LF.F ....
....|..|--- .... ....|--- .... ....|C-4 LF.A ....
....|..|--- .... ....|--- .... ....|C-4 AF.7 ....
....|..|--- .... ....|A-5 2F.A ....|R-- .... ....
....|..|--- .... ....|--- .... ....|C-4 LF.F ....
....|..|--- .... ....|--- .... ....|C-4 AF.F ....
....|..|--- .... ....|A-5 2F.A ....|C-4 AF.F ....
....|..|--- .... ....|--- .... ....|C-4 LF.A ....
....|..|--- .... ....|--- .... ....|C-3 RF.7 ....
....|..|--- .... ....|A-5 2F.A ....|R-- .... ....
....|..|--- .... ....|--- .... ....|C-4 LF.F ....
....|..|--- .... ....|--- .... ....|C-4 AF.F ....
....|..|--- .... ....|A-5 2F.7 ....|C-4 AF.F ....
....|..|--- .... ....|--- .... ....|C-4 LF.A ....
....|..|--- .... ....|--- .... ....|C-4 AF.F ....
....|..|--- .... ....|A-5 2F.7 ....|R-- .... ....
....|..|--- .... ....|--- .... ....|C-4 LF.F ....
....|..|--- .... ....|--- .... ....|R-- .... ....
....|..|--- .... ....|A-5 2F.7 ....|C-5 BF.F ....
....|..|--- .... ....|--- .... ....|C-4 LF.A ....
....|..|--- .... ....|--- .... ....|C-5 BF.F ....
....|..|--- .... ....|--- .... ....|R-- .... ....
....|..|--- .... ....|--- .... ....|C-4 LF.F ....
....|..|--- .... ....|--- .... ....|C-4 AF.7 ....
....|..|--- .... ....|R-- .... ....|C-4 LF.F ....
....|..|--- .... ....|--- .... ....|C-4 LF.A ....
....|..|--- .... ....|--- .... ....|R-- .... ....
....|..|--- .... ....|--- .... ....|C-5 BF.A ....
....|..|--- .... ....|--- .... ....|C-4 LF.F ....
....|..|--- .... ....|--- .... ....|C-4 AF.7 ....
 A-3|..|A-1 2A.F ....|--- .... ....|A-1 2A.F ....
....|..|--- .... ....|--- .... ....|C-4 LF.A ....
....|..|--- .... ....|--- .... ....|C-4 AF.F ....
....|..|--- .... ....|R-- .... ....|R-- .... ....
....|..|--- .... ....|--- .... ....|C-4 LF.F ....
....|..|--- .... ....|--- .... ....|R-- .... ....
....|..|--- .... ....|--- .... ....|C-3 RF.F ....
....|..|--- .... ....|--- .... ....|C-4 LF.A ....
....|..|--- .... ....|--- .... ....|C-3 RF.F ....
 A-3|..|A-1 2F.A ....|--- .... ....|R-- .... ....
....|..|--- .... ....|--- .... ....|C-4 LF.F ....
....|..|--- .... ....|--- .... ....|C-4 AF.F ....
....|..|--- .... ....|C-5 2F.F ....|C-5 BF.F ....
....|..|--- .... ....|--- .... ....|C-4 LF.A ....
....|..|--- .... ....|--- .... ....|C-5 BF.F ....
....|..|--- .... ....|E-5 2F.F ....|R-- .... ....
....|..|--- .... ....|--- .... ....|C-4 LF.F ....
....|..|--- .... ....|--- .... ....|C-3 RF.A ....
 A-3|..|A-1 2F.7 ....|A-5 2F.F ....|C-4 LF.F ....
....|..|--- .... ....|--- .... ....|C-4 LF.A ....
....|..|--- .... ....|--- .... ....|C-4 AF.7 ....
....|..|--- .... ....|C-5 2F.A ....|R-- .... ....
....|..|--- .... ....|--- .... ....|C-4 LF.F ....
....|..|--- .... ....|--- .... ....|C-4 AF.F ....
....|..|--- .... ....|E-5 2F.A ....|C-4 AF.F ....
....|..|--- .... ....|--- .... ....|C-4 LF.A ....
....|..|--- .... ....|--- .... ....|C-3 RF.7 ....
....|..|--- .... ....|A-5 2F.A ....|R-- .... ....
....|..|--- .... ....|--- .... ....|C-4 LF.F ....
....|..|--- .... ....|--- .... ....|C-4 AF.F ....
....|..|--- .... ....|C-5 2F.7 ....|C-4 AF.F ....
....|..|--- .... ....|--- .... ....|C-4 LF.A ....
....|..|--- .... ....|--- .... ....|C-4 AF.F ....
....|..|--- .... ....|E-5 2F.7 ....|R-- .... ....
....|..|--- .... ....|--- .... ....|C-4 LF.F ....
....|..|--- .... ....|--- .... ....|R-- .... ....
....|..|--- .... ....|A-5 2F.7 ....|C-5 BF.F ....
....|..|--- .... ....|--- .... ....|C-4 LF.A ....
....|..|--- .... ....|--- .... ....|C-5 BF.F ....
....|..|--- .... ....|--- .... ....|R-- .... ....
....|..|--- .... ....|--- .... ....|C-4 LF.F ....
....|..|--- .... ....|--- .... ....|C-4 AF.7 ....
....|..|--- .... ....|R-- .... ....|C-4 LF.F ....
....|..|--- .... ....|--- .... ....|C-4 LF.A ....
....|..|--- .... ....|--- .... ....|R-- .... ....
....|..|--- .... ....|--- .... ....|C-5 BF.A ....
....|..|--- .... ....|--- .... ....|C-4 LF.F ....
....|..|--- .... ....|--- .... ....|C-4 AF.7 ....

[Pattern29]
 G#4|..|G#2 2A.F ....|--- .... ....|G#2 2A.F ....
....|..|--- .... ....|--- .... ....|C-4 LF.A ....
....|..|--- .... ....|--- .... ....|C-4 AF.F ....
....|..|--- .... ....|R-- .... ....|R-- .... ....
....|..|--- .... ....|--- .... ....|C-4 LF.F ....
....|..|--- .... ....|--- .... ....|R-- .... ....
....|..|--- .... ....|--- .... ....|C-3 RF.F ....
....|..|--- .... ....|--- .... ....|C-4 LF.A ....
....|..|--- .... ....|--- .... ....|C-3 RF.F ....
 G#4|..|G#2 2F.A ....|--- .... ....|R-- .... ....
....|..|--- .... ....|--- .... ....|C-4 LF.F ....
....|..|--- .... ....|--- .... ....|C-4 AF.F ....
....|..|--- .... ....|C-5 2F.F ....|C-5 BF.F ....
....|..|--- .... ....|--- .... ....|C-4 LF.A ....
....|..|--- .... ....|--- .... ....|C-5 BF.F ....
....|..|--- .... ....|D#5 2F.F ....|R-- .... ....
....|..|--- .... ....|--- .... ....|C-4 LF.F ....
....|..|--- .... ....|--- .... ....|C-3 RF.A ....
 G#4|..|G#2 2F.7 ....|G#5 2F.F ....|C-4 LF.F ....
....|..|--- .... ....|--- .... ....|C-4 LF.A ....
....|..|--- .... ....|--- .... ....|C-4 AF.7 ....
....|..|--- .... ....|C-5 2F.A ....|R-- .... ....
....|..|--- .... ....|--- .... ....|C-4 LF.F ....
....|..|--- .... ....|--- .... ....|C-4 AF.F ....
....|..|--- .... ....|D#5 2F.A ....|C-4 AF.F ....
....|..|--- .... ....|--- .... ....|C-4 LF.A ....
....|..|--- .... ....|--- .... ....|C-3 RF.7 ....
....|..|--- .... ....|G#5 2F.A ....|R-- .... ....
....|..|--- .... ....|--- .... ....|C-4 LF.F ....
....|..|--- .... ....|--- .... ....|C-4 AF.F ....
....|..|--- .... ....|C-5 2F.7 ....|C-4 AF.F ....
....|..|--- .... ....|--- .... ....|C-4 LF.A ....
....|..|--- .... ....|--- .... ....|C-4 AF.F ....
....|..|--- .... ....|D#5 2F.7 ....|R-- .... ....
....|..|--- .... ....|--- .... ....|C-4 LF.F ....
....|..|--- .... ....|--- .... ....|R-- .... ....
....|..|--- .... ....|G#5 2F.7 ....|C-5 BF.F ....
....|..|--- .... ....|--- .... ....|C-4 LF.A ....
....|..|--- .... ....|--- .... ....|C-5 BF.F ....
....|..|--- .... ....|--- .... ....|R-- .... ....
....|..|--- .... ....|--- .... ....|C-4 LF.F ....
....|..|--- .... ....|--- .... ....|C-4 AF.7 ....
....|..|--- .... ....|R-- .... ....|C-4 LF.F ....
....|..|--- .... ....|--- .... ....|C-4 LF.A ....
....|..|--- .... ....|--- .... ....|R-- .... ....
....|..|--- .... ....|--- .... ....|C-5 BF.A ....
....|..|--- .... ....|--- .... ....|C-4 LF.F ....
....|..|--- .... ....|--- .... ....|C-4 AF.7 ....
 G#4|..|G#2 2A.F ....|--- .... ....|G#2 2A.F ....
....|..|--- .... ....|--- .... ....|C-4 LF.A ....
....|..|--- .... ....|--- .... ....|C-4 AF.F ....
....|..|--- .... ....|R-- .... ....|R-- .... ....
....|..|--- .... ....|--- .... ....|C-4 LF.F ....
....|..|--- .... ....|--- .... ....|R-- .... ....
....|..|--- .... ....|--- .... ....|C-3 RF.F ....
....|..|--- .... ....|--- .... ....|C-4 LF.A ....
....|..|--- .... ....|--- .... ....|C-3 RF.F ....
 G#4|..|G#2 2F.A ....|--- .... ....|R-- .... ....
....|..|--- .... ....|--- .... ....|C-4 LF.F ....
....|..|--- .... ....|--- .... ....|C-4 AF.F ....
....|..|--- .... ....|G#5 2F.F ....|C-5 BF.F ....
....|..|--- .... ....|--- .... ....|C-4 LF.A ....
....|..|--- .... ....|--- .... ....|C-5 BF.F ....
....|..|--- .... ....|G#5 2F.F ....|R-- .... ....
....|..|--- .... ....|--- .... ....|C-4 LF.F ....
....|..|--- .... ....|--- .... ....|C-3 RF.A ....
 G#4|..|G#2 2F.7 ....|G#5 2F.F ....|C-4 LF.F ....
....|..|--- .... ....|--- .... ....|C-4 LF.A ....
....|..|--- .... ....|--- .... ....|C-4 AF.7 ....
....|..|--- .... ....|G#5 2F.A ....|R-- .... ....
....|..|--- .... ....|--- .... ....|C-4 LF.F ....
....|..|--- .... ....|--- .... ....|C-4 AF.F ....
....|..|--- .... ....|G#5 2F.A ....|C-4 AF.F ....
....|..|--- .... ....|--- .... ....|C-4 LF.A ....
....|..|--- .... ....|--- .... ....|C-3 RF.7 ....
....|..|--- .... ....|G#5 2F.A ....|R-- .... ....
....|..|--- .... ....|--- .... ....|C-4 LF.F ....
....|..|--- .... ....|--- .... ....|C-4 AF.F ....
....|..|--- .... ....|G#5 2F.7 ....|C-4 AF.F ....
....|..|--- .... ....|--- .... ....|C-4 LF.A ....
....|..|--- .... ....|--- .... ....|C-4 AF.F ....
....|..|--- .... ....|G#5 2F.7 ....|R-- .... ....
....|..|--- .... ....|--- .... ....|C-4 LF.F ....
....|..|--- .... ....|--- .... ....|R-- .... ....
....|..|--- .... ....|G#5 2F.7 ....|C-5 BF.F ....
....|..|--- .... ....|--- .... ....|C-4 LF.A ....
....|..|--- .... ....|--- .... ....|C-5 BF.F ....
....|..|--- .... ....|--- .... ....|R-- .... ....
....|..|--- .... ....|--- .... ....|C-4 LF.F ....
....|..|--- .... ....|--- .... ....|C-4 AF.7 ....
....|..|--- .... ....|R-- .... ....|C-4 LF.F ....
....|..|--- .... ....|--- .... ....|C-4 LF.A ....
....|..|--- .... ....|--- .... ....|R-- .... ....
....|..|--- .... ....|--- .... ....|C-5 BF.A ....
....|..|--- .... ....|--- .... ....|C-4 LF.F ....
....|..|--- .... ....|--- .... ....|C-4 AF.7 ....

[Pattern30]
....|..|F-3 2F1F ....|--- .... ....|D-4 2F.F ....
 A#3|..|A#1 2A.F ....|--- .... ....|C-4 LF.A ....
....|..|--- .... ....|--- .... ....|C-4 AF.F ....
....|..|--- .... ....|R-- .... ....|R-- .... ....
....|..|--- .... ....|--- .... ....|C-4 LF.F ....
....|..|--- .... ....|--- .... ....|D-4 2F.F ....
....|..|--- .... ....|--- .... ....|C-3 RF.F ....
....|..|--- .... ....|--- .... ....|C-4 LF.A ....
....|..|--- .... ....|--- .... ....|C-3 RF.F ....
....|..|F-3 2F1A ....|--- .... ....|R-- .... ....
 A#3|..|A#1 2F.A ....|--- .... ....|C-4 LF.F ....
....|..|--- .... ....|--- .... ....|C-4 AF.F ....
....|..|--- .... ....|R-- .... ....|C-5 BF.F ....
....|..|--- .... ....|--- .... ....|C-4 LF.A ....
....|..|--- .... ....|--- .... ....|C-5 BF.F ....
....|..|R-- .... ....|--- .... ....|R-- .... ....
....|..|--- .... ....|--- .... ....|C-4 LF.F ....
....|..|--- .... ....|--- .... ....|R-- .... ....
....|..|F-3 2F17 ....|--- .... ....|D-4 2F.F ....
 A#3|..|A#1 2F.7 ....|--- .... ....|C-4 LF.A ....
....|..|--- .... ....|--- .... ....|C-4 AF.7 ....
....|..|--- .... ....|--- .... ....|R-- .... ....
....|..|--- .... ....|--- .... ....|C-4 LF.F ....
....|..|--- .... ....|--- .... ....|C-4 AF.F ....
....|..|A#3 2F2F ....|--- .... ....|C-4 AF.F ....
....|..|--- .... ....|--- .... ....|C-4 LF.A ....
....|..|--- .... ....|--- .... ....|C-3 RF.7 ....
....|..|--- .... ....|--- .... ....|R-- .... ....
....|..|--- .... ....|--- .... ....|C-4 LF.F ....
....|..|--- .... ....|--- .... ....|C-4 AF.F ....
....|..|--- .... ....|--- .... ....|D-4 2F.F ....
....|..|--- .... ....|--- .... ....|C-4 LF.A ....
....|..|--- .... ....|--- .... ....|C-4 AF.F ....
....|..|R-- .... ....|--- .... ....|R-- .... ....
....|..|--- .... ....|--- .... ....|C-4 LF.F ....
....|..|--- .... ....|--- .... ....|R-- .... ....
....|..|--- .... ....|--- .... ....|C-5 BF.F ....
....|..|--- .... ....|--- .... ....|C-4 LF.A ....
....|..|--- .... ....|--- .... ....|C-5 BF.F ....
....|..|R-- .... ....|--- .... ....|R-- .... ....
....|..|--- .... ....|--- .... ....|C-4 LF.F ....
....|..|--- .... ....|--- .... ....|C-4 AF.7 ....
....|..|A#3 2F27 ....|--- .... ....|D#4 2F.F ....
....|..|--- .... ....|--- .... ....|C-4 LF.A ....
....|..|--- .... ....|--- .... ....|R-- .... ....
....|..|--- .... ....|--- .... ....|C-5 BF.A ....
....|..|--- .... ....|--- .... ....|C-4 LF.F ....
....|..|--- .... ....|--- .... ....|C-4 AF.7 ....
 F-3|..|C-4 2F1F ....|--- .... ....|F-1 2A.F ....
 F-3|..|F-1 2A.F ....|--- .... ....|C-4 LF.A ....
....|..|--- .... ....|--- .... ....|C-4 AF.F ....
....|..|--- .... ....|--- .... ....|R-- .... ....
....|..|--- .... ....|--- .... ....|C-4 LF.F ....
....|..|--- .... ....|--- .... ....|R-- .... ....
....|..|--- .... ....|--- .... ....|D-4 2F.F ....
....|..|--- .... ....|--- .... ....|C-4 LF.A ....
....|..|--- .... ....|--- .... ....|C-3 RF.F ....
....|..|R-- .... ....|--- .... ....|R-- .... ....
 F-3|..|F-1 2F.A ....|--- .... ....|C-4 LF.F ....
....|..|--- .... ....|--- .... ....|C-4 AF.F ....
....|..|--- .... ....|--- .... ....|C-5 BF.F ....
....|..|--- .... ....|--- .... ....|C-4 LF.A ....
....|..|--- .... ....|--- .... ....|C-5 BF.F ....
....|..|R-- .... ....|--- .... ....|R-- .... ....
....|..|--- .... ....|--- .... ....|C-4 LF.F ....
....|..|--- .... ....|--- .... ....|C-3 RF.A ....
....|..|C-4 2F17 ....|--- .... ....|C-4 2F.F ....
 F-3|..|F-1 2F.7 ....|--- .... ....|C-4 LF.A ....
....|..|--- .... ....|--- .... ....|C-4 AF.7 ....
....|..|--- .... ....|--- .... ....|R-- .... ....
....|..|--- .... ....|--- .... ....|C-4 LF.F ....
....|..|--- .... ....|--- .... ....|C-4 AF.F ....
....|..|C-4 2F3F ....|--- .... ....|C-4 AF.F ....
....|..|--- .... ....|--- .... ....|C-4 LF.A ....
....|..|--- .... ....|--- .... ....|C-3 RF.7 ....
....|..|--- .... ....|--- .... ....|R-- .... ....
....|..|--- .... ....|--- .... ....|C-4 LF.F ....
....|..|--- .... ....|--- .... ....|C-4 AF.F ....
....|..|--- .... ....|--- .... ....|D-4 2F.F ....
....|..|--- .... ....|--- .... ....|C-4 LF.A ....
....|..|--- .... ....|--- .... ....|C-4 AF.F ....
....|..|R-- .... ....|--- .... ....|R-- .... ....
....|..|--- .... ....|--- .... ....|C-4 LF.F ....
....|..|--- .... ....|--- .... ....|R-- .... ....
....|..|--- .... ....|--- .... ....|C-5 BF.F ....
....|..|--- .... ....|--- .... ....|C-4 LF.A ....
....|..|--- .... ....|--- .... ....|C-5 BF.F ....
....|..|R-- .... ....|--- .... ....|R-- .... ....
....|..|--- .... ....|--- .... ....|C-4 LF.F ....
....|..|--- .... ....|--- .... ....|A#3 2F.F ....
....|..|C-4 2F37 ....|--- .... ....|C-4 LF.F ....
....|..|--- .... ....|--- .... ....|C-4 LF.A ....
....|..|--- .... ....|--- .... ....|R-- .... ....
....|..|--- .... ....|--- .... ....|C-5 BF.A ....
....|..|--- .... ....|--- .... ....|C-4 LF.F ....
....|..|--- .... ....|--- .... ....|C-4 AF.7 ....

[Pattern33]
 A#3|..|F-3 2F1F ....|--- .... ....|A#1 2A.F ....
 A#3|..|A#1 2A.F ....|--- .... ....|C-4 LF.A ....
....|..|--- .... ....|--- .... ....|C-4 AF.F ....
....|..|--- .... ....|--- .... ....|R-- .... ....
....|..|--- .... ....|--- .... ....|C-4 LF.F ....
....|..|--- .... ....|--- .... ....|R-- .... ....
....|..|--- .... ....|--- .... ....|C-3 RF.F ....
....|..|--- .... ....|--- .... ....|C-4 LF.A ....
....|..|--- .... ....|--- .... ....|C-3 RF.F ....
....|..|R-- .... ....|--- .... ....|R-- .... ....
 A#3|..|A#1 2F.A ....|--- .... ....|C-4 LF.F ....
....|..|--- .... ....|--- .... ....|C-4 AF.F ....
....|..|--- .... ....|--- .... ....|C-5 BF.F ....
....|..|--- .... ....|--- .... ....|C-4 LF.A ....
....|..|--- .... ....|--- .... ....|C-5 BF.F ....
....|..|R-- .... ....|--- .... ....|R-- .... ....
....|..|--- .... ....|--- .... ....|C-4 LF.F ....
....|..|--- .... ....|--- .... ....|C-3 RF.A ....
....|..|F-3 2F17 ....|F-6 2F.F ....|C-4 LF.F ....
 A#3|..|A#1 2F.7 ....|--- .... ....|C-4 LF.A ....
....|..|--- .... ....|--- .... ....|C-4 AF.7 ....
....|..|--- .... ....|--- .... ....|R-- .... ....
....|..|--- .... ....|R-- .... ....|C-4 LF.F ....
....|..|--- .... ....|D#6 2F.F ....|C-4 AF.F ....
....|..|A#3 2F2F ....|--- .... ....|C-4 AF.F ....
....|..|--- .... ....|--- .... ....|C-4 LF.A ....
....|..|--- .... ....|--- .... ....|C-3 RF.7 ....
....|..|--- .... ....|D-6 2F.F ....|R-- .... ....
....|..|--- .... ....|--- .... ....|C-4 LF.F ....
....|..|--- .... ....|--- .... ....|C-4 AF.F ....
....|..|--- .... ....|--- .... ....|C-4 AF.F ....
....|..|--- .... ....|R-- .... ....|C-4 LF.A ....
....|..|--- .... ....|C-6 2F.F ....|C-4 AF.F ....
....|..|R-- .... ....|--- .... ....|R-- .... ....
....|..|--- .... ....|--- .... ....|C-4 LF.F ....
....|..|--- .... ....|--- .... ....|R-- .... ....
....|..|--- .... ....|D-6 2F.F ....|C-5 BF.F ....
....|..|--- .... ....|--- .... ....|C-4 LF.A ....
....|..|--- .... ....|--- .... ....|C-5 BF.F ....
....|..|R-- .... ....|D#6 2F.F ....|R-- .... ....
....|..|--- .... ....|R-- .... ....|C-4 LF.F ....
....|..|--- .... ....|D#6 2F.7 ....|C-4 AF.7 ....
....|..|A#3 2F27 ....|D-6 2F.F ....|C-4 LF.F ....
....|..|--- .... ....|--- .... ....|C-4 LF.A ....
....|..|--- .... ....|--- .... ....|R-- .... ....
....|..|--- .... ....|C-6 2F.F ....|C-5 BF.A ....
....|..|--- .... ....|--- .... ....|C-4 LF.F ....
....|..|--- .... ....|--- .... ....|C-4 AF.7 ....
....|..|C-4 2F1F ....|D-6 2F.F ....|D#4 2F.F ....
 F-3|..|F-1 2A.F ....|--- .... ....|C-4 LF.A ....
....|..|--- .... ....|C-6 2F.7 ....|C-4 AF.F ....
....|..|--- .... ....|D-6 2F.A ....|R-- .... ....
....|..|--- .... ....|R-- .... ....|C-4 LF.F ....
....|..|--- .... ....|A#5 2F.F ....|R-- .... ....
....|..|--- .... ....|D-6 2F.7 ....|D-4 2F.F ....
....|..|--- .... ....|--- .... ....|C-4 LF.A ....
....|..|--- .... ....|--- .... ....|C-3 RF.F ....
....|..|R-- .... ....|C-6 2F.F ....|R-- .... ....
 F-3|..|F-1 2F.A ....|--- .... ....|C-4 LF.F ....
....|..|--- .... ....|--- .... ....|C-4 AF.F ....
....|..|--- .... ....|D-6 2F.7 ....|C-5 BF.F ....
....|..|--- .... ....|R-- .... ....|C-4 LF.A ....
....|..|--- .... ....|A#5 2F.F ....|C-5 BF.F ....
....|..|R-- .... ....|C-6 2F.7 ....|R-- .... ....
....|..|--- .... ....|--- .... ....|C-4 LF.F ....
....|..|--- .... ....|--- .... ....|C-3 RF.A ....
....|..|C-4 2F17 ....|G-5 2F.F ....|C-4 2F.F ....
 F-3|..|F-1 2F.7 ....|--- .... ....|C-4 LF.A ....
....|..|--- .... ....|--- .... ....|C-4 AF.7 ....
....|..|--- .... ....|--- .... ....|R-- .... ....
....|..|--- .... ....|R-- .... ....|C-4 LF.F ....
....|..|--- .... ....|A#5 2F.7 ....|C-4 AF.F ....
....|..|C-4 2F3F ....|G#5 2F.F ....|C-4 AF.F ....
....|..|--- .... ....|--- .... ....|C-4 LF.A ....
....|..|--- .... ....|--- .... ....|C-3 RF.7 ....
....|..|--- .... ....|C-6 2F.7 ....|R-- .... ....
....|..|--- .... ....|--- .... ....|C-4 LF.7 ....
....|..|--- .... ....|--- .... ....|C-4 AF.7 ....
....|..|--- .... ....|R-- .... ....|D-4 2F.F ....
....|..|--- .... ....|--- .... ....|C-4 LF.A ....
....|..|--- .... ....|A#5 2F.7 ....|C-5 BF.7 ....
....|..|R-- .... ....|G#5 2F.A ....|R-- .... ....
....|..|--- .... ....|--- .... ....|C-4 LF.7 ....
....|..|--- .... ....|--- .... ....|R-- .... ....
....|..|--- .... ....|G-5 2F.7 ....|C-4 2F.7 ....
....|..|--- .... ....|--- .... ....|R-- .... ....
....|..|--- .... ....|--- .... ....|R-- .... ....
....|..|R-- .... ....|R-- .... ....|D-4 2F.A ....
....|..|--- .... ....|--- .... ....|C-4 LF.7 ....
....|..|--- .... ....|--- .... ....|A#3 2F.F ....
....|..|C-4 2F37 ....|G#5 2F.7 ....|C-4 AF.7 ....
....|..|--- .... ....|--- .... ....|--- .... ....
....|..|--- .... ....|--- .... ....|R-- .... ....
....|..|--- .... ....|--- .... ....|--- .... ....
....|..|--- .... ....|--- .... ....|R-- .... ....
....|..|--- .... ....|--- .... ....|--- .... ....

[Pattern34]
....|..|R-- .... ....|R-- .... ....|D-4 2F.7 ....
....|..|--- .... ....|--- .... ....|R-- .... ....
....|..|--- .... ....|--- .... ....|A#3 2F.A ....
....|..|--- .... ....|--- .... ....|--- .... ....
....|..|--- .... ....|--- .... ....|--- .... ....
....|..|--- .... ....|--- .... ....|--- .... ....
....|..|--- .... ....|--- .... ....|R-- .... ....
....|..|--- .... ....|--- .... ....|--- .... ....
....|..|--- .... ....|--- .... ....|--- .... ....
....|..|R-- .... ....|--- .... ....|R-- .... ....
....|..|--- .... ....|--- .... ....|R-- .... ....
....|..|--- .... ....|--- .... ....|A#3 2F.7 ....
....|..|--- .... ....|--- .... ....|--- .... ....
....|..|--- .... ....|--- .... ....|--- .... ....
....|..|--- .... ....|--- .... ....|--- .... ....
....|..|--- .... ....|--- .... ....|R-- .... ....
....|..|--- .... ....|--- .... ....|--- .... ....
....|..|--- .... ....|--- .... ....|--- .... ....
....|..|R-- .... ....|--- .... ....|R-- .... ....
....|..|--- .... ....|--- .... ....|--- .... ....
....|..|--- .... ....|--- .... ....|--- .... ....
....|..|--- .... ....|--- .... ....|--- .... ....
....|..|--- .... ....|--- .... ....|--- .... ....
....|..|--- .... ....|--- .... ....|--- .... ....
....|..|--- .... ....|A#5 2F.F ....|R-- .... ....
....|..|--- .... ....|--- .... ....|--- .... ....
....|..|--- .... ....|C-4 2F.F ....|--- .... ....
....|..|--- .... ....|A#3 2F.F ....|--- .... ....
....|..|--- .... ....|--- .... ....|--- .... ....
....|..|--- .... ....|--- .... ....|--- .... ....
....|..|--- .... ....|--- .... ....|--- .... ....
....|..|--- .... ....|--- .... ....|--- .... ....
....|..|--- .... ....|--- .... ....|--- .... ....
....|..|--- .... ....|A#5 2F.A ....|--- .... ....
....|..|--- .... ....|--- .... ....|--- .... ....
....|..|--- .... ....|C-4 2F.A ....|--- .... ....
....|..|--- .... ....|R-- .... ....|--- .... ....
....|..|--- .... ....|--- .... ....|--- .... ....
....|..|--- .... ....|--- .... ....|--- .... ....
....|..|--- .... ....|--- .... ....|--- .... ....
....|..|--- .... ....|--- .... ....|--- .... ....
....|..|--- .... ....|--- .... ....|--- .... ....
....|..|--- .... ....|A#5 2F.7 ....|--- .... ....
....|..|--- .... ....|--- .... ....|--- .... ....
....|..|--- .... ....|C-4 2F.7 ....|--- .... ....
....|..|--- .... ....|A#3 2F.7 ....|--- .... ....
....|..|--- .... ....|--- .... ....|--- .... ....
....|..|--- .... ....|--- .... ....|--- .... ....
....|..|--- .... ....|--- .... ....|--- .... ....
....|..|--- .... ....|--- .... ....|--- .... ....
....|..|--- .... ....|--- .... ....|--- .... ....
....|..|--- .... ....|--- .... ....|--- .... ....
....|..|--- .... ....|--- .... ....|--- .... ....
....|..|--- .... ....|--- .... ....|--- .... ....
....|..|--- .... ....|R-- .... ....|--- .... ....
....|..|--- .... ....|--- .... ....|--- .... ....
....|..|--- .... ....|--- .... ....|--- .... ....
....|..|--- .... ....|--- .... ....|--- .... ....
....|..|--- .... ....|--- .... ....|--- .... ....
....|..|--- .... ....|--- .... ....|--- .... ....
....|..|--- .... ....|--- .... ....|--- .... ....
....|..|--- .... ....|--- .... ....|--- .... ....
....|..|--- .... ....|--- .... ....|--- .... ....
....|..|--- .... ....|--- .... ....|--- .... ....
....|..|--- .... ....|--- .... ....|--- .... ....
....|..|--- .... ....|--- .... ....|--- .... ....
....|..|--- .... ....|--- .... ....|--- .... ....
....|..|--- .... ....|--- .... ....|--- .... ....
....|..|--- .... ....|--- .... ....|--- .... ....
....|..|--- .... ....|--- .... ....|--- .... ....
....|..|--- .... ....|--- .... ....|--- .... ....
....|..|--- .... ....|--- .... ....|--- .... ....
....|..|--- .... ....|D-4 2F.F ....|--- .... ....
....|..|--- .... ....|--- .... ....|--- .... ....
....|..|--- .... ....|C-4 2F.F ....|--- .... ....
....|..|--- .... ....|A#3 2F.F ....|--- .... ....
....|..|--- .... ....|--- .... ....|--- .... ....
....|..|--- .... ....|--- .... ....|--- .... ....
....|..|--- .... ....|--- .... ....|--- .... ....
....|..|--- .... ....|--- .... ....|--- .... ....
....|..|--- .... ....|--- .... ....|--- .... ....
....|..|--- .... ....|D-4 2F.A ....|--- .... ....
....|..|--- .... ....|--- .... ....|--- .... ....
....|..|--- .... ....|C-4 2F.A ....|--- .... ....
....|..|--- .... ....|R-- .... ....|--- .... ....
....|..|--- .... ....|--- .... ....|--- .... ....
....|..|--- .... ....|--- .... ....|--- .... ....
....|..|--- .... ....|--- .... ....|--- .... ....
....|..|--- .... ....|--- .... ....|--- .... ....
....|..|--- .... ....|--- .... ....|--- .... ....
....|..|--- .... ....|G#5 2F.F ....|--- .... ....
....|..|--- .... ....|--- .... ....|--- .... ....
....|..|--- .... ....|C-4 2F.7 ....|--- .... ....
....|..|--- .... ....|A#5 2F.F ....|--- .... ....
....|..|--- .... ....|--- .... ....|--- .... ....
....|..|--- .... ....|--- .... ....|--- .... ....

[Pattern35]
....|..|--- .... ....|--- .... ....|--- .... ....
....|..|--- .... ....|--- .... ....|--- .... ....
....|..|--- .... ....|G#5 2F.F ....|--- .... ....
....|..|--- .... ....|G#5 2F.A ....|--- .... ....
....|..|--- .... ....|--- .... ....|--- .... ....
....|..|--- .... ....|--- .... ....|--- .... ....
....|..|--- .... ....|R-- .... ....|--- .... ....
....|..|--- .... ....|--- .... ....|--- .... ....
....|..|--- .... ....|G-5 2F.F ....|--- .... ....
....|..|--- .... ....|--- .... ....|--- .... ....
....|..|--- .... ....|--- .... ....|--- .... ....
....|..|--- .... ....|G#5 2F.A ....|--- .... ....
....|..|--- .... ....|G#5 2F.7 ....|--- .... ....
....|..|--- .... ....|--- .... ....|--- .... ....
....|..|--- .... ....|G#5 2F.F ....|--- .... ....
....|..|--- .... ....|A#5 2F.7 ....|--- .... ....
....|..|--- .... ....|--- .... ....|--- .... ....
....|..|--- .... ....|G-5 2F.A ....|--- .... ....
....|..|--- .... ....|--- .... ....|--- .... ....
....|..|--- .... ....|--- .... ....|--- .... ....
....|..|--- .... ....|G-5 2F.F ....|--- .... ....
....|..|--- .... ....|--- .... ....|--- .... ....
....|..|--- .... ....|--- .... ....|--- .... ....
....|..|--- .... ....|G#5 2F.A ....|--- .... ....
....|..|--- .... ....|D-4 2F.F ....|--- .... ....
....|..|--- .... ....|--- .... ....|--- .... ....
....|..|--- .... ....|C-4 2F.F ....|--- .... ....
....|..|--- .... ....|A#3 2F.F ....|--- .... ....
....|..|--- .... ....|--- .... ....|--- .... ....
....|..|--- .... ....|G-5 2F.A ....|--- .... ....
....|..|--- .... ....|--- .... ....|--- .... ....
....|..|--- .... ....|--- .... ....|--- .... ....
....|..|--- .... ....|G#5 2F.7 ....|--- .... ....
....|..|--- .... ....|D-4 2F.A ....|--- .... ....
....|..|--- .... ....|--- .... ....|--- .... ....
....|..|--- .... ....|C-4 2F.A ....|--- .... ....
....|..|--- .... ....|F-5 2F.F ....|--- .... ....
....|..|--- .... ....|--- .... ....|--- .... ....
....|..|--- .... ....|G-5 2F.7 ....|--- .... ....
....|..|--- .... ....|--- .... ....|--- .... ....
....|..|--- .... ....|--- .... ....|--- .... ....
....|..|--- .... ....|--- .... ....|--- .... ....
....|..|--- .... ....|D-4 2F.7 ....|--- .... ....
....|..|--- .... ....|--- .... ....|--- .... ....
....|..|--- .... ....|C-4 2F.7 ....|--- .... ....
....|..|--- .... ....|A#3 2F.7 ....|--- .... ....
....|..|--- .... ....|--- .... ....|--- .... ....
....|..|--- .... ....|--- .... ....|--- .... ....
....|..|--- .... ....|--- .... ....|--- .... ....
....|..|--- .... ....|--- .... ....|--- .... ....
....|..|--- .... ....|--- .... ....|--- .... ....
....|..|--- .... ....|--- .... ....|--- .... ....
....|..|--- .... ....|--- .... ....|--- .... ....
....|..|--- .... ....|--- .... ....|--- .... ....
....|..|--- .... ....|F-5 2F.7 ....|--- .... ....
....|..|--- .... ....|--- .... ....|--- .... ....
....|..|--- .... ....|--- .... ....|--- .... ....
....|..|--- .... ....|--- .... ....|--- .... ....
....|..|--- .... ....|--- .... ....|--- .... ....
....|..|--- .... ....|--- .... ....|--- .... ....
....|..|--- .... ....|--- .... ....|--- .... ....
....|..|--- .... ....|--- .... ....|--- .... ....
....|..|--- .... ....|--- .... ....|--- .... ....
....|..|--- .... ....|--- .... ....|--- .... ....
....|..|--- .... ....|--- .... ....|--- .... ....
....|..|--- .... ....|--- .... ....|--- .... ....
....|..|--- .... ....|--- .... ....|--- .... ....
....|..|--- .... ....|--- .... ....|--- .... ....
....|..|--- .... ....|--- .... ....|--- .... ....
....|..|--- .... ....|D-4 2F.F ....|--- .... ....
....|..|--- .... ....|--- .... ....|--- .... ....
....|..|--- .... ....|--- .... ....|--- .... ....
....|..|--- .... ....|--- .... ....|--- .... ....
....|..|--- .... ....|--- .... ....|--- .... ....
....|..|--- .... ....|--- .... ....|--- .... ....
....|..|--- .... ....|--- .... ....|--- .... ....
....|..|--- .... ....|--- .... ....|--- .... ....
....|..|--- .... ....|--- .... ....|--- .... ....
....|..|--- .... ....|D-4 2F.A ....|--- .... ....
....|..|--- .... ....|--- .... ....|--- .... ....
....|..|--- .... ....|C-4 2F.F ....|--- .... ....
....|..|--- .... ....|--- .... ....|--- .... ....
....|..|--- .... ....|--- .... ....|--- .... ....
....|..|--- .... ....|--- .... ....|--- .... ....
....|..|--- .... ....|--- .... ....|--- .... ....
....|..|--- .... ....|--- .... ....|--- .... ....
....|..|--- .... ....|--- .... ....|--- .... ....
....|..|--- .... ....|D-4 2F.7 ....|--- .... ....
....|..|--- .... ....|--- .... ....|--- .... ....
....|..|--- .... ....|C-4 2F.A ....|--- .... ....
....|..|--- .... ....|R-- .... ....|--- .... ....
....|..|--- .... ....|--- .... ....|--- .... ....
....|..|--- .... ....|--- .... ....|--- .... ....
....|..|--- .... ....|R-- .... ....|--- .... ....
....|..|--- .... ....|--- .... ....|--- .... ....
....|..|--- .... ....|--- .... ....|--- .... ....

[Pattern36]
....|..|--- .... ....|--- .... ....|--- .... ....
....|..|--- .... ....|--- .... ....|--- .... ....
....|..|--- .... ....|C-4 2F.7 ....|--- .... ....
....|..|--- .... ....|R-- .... ....|--- .... ....
....|..|--- .... ....|--- .... ....|--- .... ....
....|..|--- .... ....|--- .... ....|--- .... ....
....|..|--- .... ....|G-3 2F.F ....|--- .... ....
....|..|--- .... ....|--- .... ....|--- .... ....
....|..|--- .... ....|--- .... ....|--- .... ....
....|..|--- .... ....|--- .... ....|--- .... ....
....|..|--- .... ....|--- .... ....|--- .... ....
....|..|--- .... ....|--- .... ....|--- .... ....
....|..|--- .... ....|R-- .... ....|--- .... ....
....|..|--- .... ....|--- .... ....|--- .... ....
....|..|--- .... ....|--- .... ....|--- .... ....
....|..|--- .... ....|R-- .... ....|--- .... ....
....|..|--- .... ....|--- .... ....|--- .... ....
....|..|--- .... ....|--- .... ....|--- .... ....
....|..|--- .... ....|G-5 2F.F ....|--- .... ....
....|..|--- .... ....|--- .... ....|--- .... ....
....|..|--- .... ....|--- .... ....|--- .... ....
....|..|--- .... ....|--- .... ....|--- .... ....
....|..|--- .... ....|--- .... ....|--- .... ....
....|..|--- .... ....|--- .... ....|--- .... ....
 A#3|..|F-3 2F1F ....|A#5 2F.F ....|A#1 2A.F ....
 A#3|..|A#1 2A.F ....|--- .... ....|--- .... ....
....|..|--- .... ....|C-4 2F.F ....|C-4 AF.F ....
....|..|--- .... ....|A#3 2F.F ....|R-- .... ....
....|..|--- .... ....|--- .... ....|C-4 LF.F ....
....|..|--- .... ....|--- .... ....|--- .... ....
....|..|--- .... ....|--- .... ....|C-3 RF.F ....
....|..|--- .... ....|--- .... ....|--- .... ....
....|..|--- .... ....|--- .... ....|C-3 RF.F ....
....|..|F-3 2F1A ....|A#5 2F.A ....|R-- .... ....
 A#3|..|A#1 2F.A ....|--- .... ....|C-4 LF.F ....
....|..|--- .... ....|C-4 2F.A ....|C-4 AF.F ....
....|..|--- .... ....|G-5 2F.7 ....|C-5 BF.F ....
....|..|--- .... ....|--- .... ....|C-4 LF.A ....
....|..|--- .... ....|--- .... ....|C-5 BF.F ....
....|..|R-- .... ....|--- .... ....|R-- .... ....
....|..|--- .... ....|--- .... ....|C-4 LF.F ....
....|..|--- .... ....|--- .... ....|C-3 RF.A ....
....|..|F-3 2F17 ....|A#5 2F.7 ....|C-4 LF.F ....
 A#3|..|A#1 2F.7 ....|--- .... ....|C-4 LF.A ....
....|..|--- .... ....|C-4 2F.7 ....|C-4 AF.7 ....
....|..|--- .... ....|A#3 2F.7 ....|R-- .... ....
....|..|--- .... ....|--- .... ....|C-4 LF.F ....
....|..|--- .... ....|--- .... ....|C-4 AF.F ....
....|..|A#3 2F2F ....|--- .... ....|C-4 AF.F ....
....|..|--- .... ....|--- .... ....|C-4 LF.A ....
....|..|--- .... ....|--- .... ....|C-3 RF.7 ....
....|..|--- .... ....|--- .... ....|R-- .... ....
....|..|--- .... ....|--- .... ....|C-4 LF.F ....
....|..|--- .... ....|--- .... ....|C-4 AF.F ....
....|..|--- .... ....|R-- .... ....|C-4 AF.F ....
....|..|--- .... ....|--- .... ....|C-4 LF.A ....
....|..|--- .... ....|--- .... ....|C-4 AF.F ....
....|..|R-- .... ....|--- .... ....|R-- .... ....
....|..|--- .... ....|--- .... ....|C-4 LF.F ....
....|..|--- .... ....|--- .... ....|R-- .... ....
....|..|--- .... ....|--- .... ....|C-5 BF.F ....
....|..|--- .... ....|--- .... ....|C-4 LF.A ....
....|..|--- .... ....|--- .... ....|C-5 BF.F ....
....|..|R-- .... ....|--- .... ....|R-- .... ....
....|..|--- .... ....|--- .... ....|C-4 LF.F ....
....|..|--- .... ....|--- .... ....|C-4 AF.7 ....
....|..|A#3 2F27 ....|--- .... ....|C-4 LF.F ....
....|..|--- .... ....|--- .... ....|C-4 LF.A ....
....|..|--- .... ....|--- .... ....|R-- .... ....
....|..|--- .... ....|--- .... ....|C-5 BF.A ....
....|..|--- .... ....|--- .... ....|C-4 LF.F ....
....|..|--- .... ....|--- .... ....|C-4 AF.7 ....
 F-3|..|C-4 2F1F ....|D-4 2F.F ....|F-1 2A.F ....
 F-3|..|F-1 2A.F ....|--- .... ....|C-4 LF.A ....
....|..|--- .... ....|C-4 2F.F ....|C-4 AF.F ....
....|..|--- .... ....|A#3 2F.F ....|R-- .... ....
....|..|--- .... ....|--- .... ....|C-4 LF.F ....
....|..|--- .... ....|--- .... ....|R-- .... ....
....|..|--- .... ....|--- .... ....|C-3 RF.F ....
....|..|--- .... ....|--- .... ....|C-4 LF.A ....
....|..|--- .... ....|--- .... ....|C-3 RF.F ....
....|..|R-- .... ....|D-4 2F.A ....|R-- .... ....
 F-3|..|F-1 2F.A ....|--- .... ....|C-4 LF.F ....
....|..|--- .... ....|C-4 2F.A ....|C-4 AF.F ....
....|..|--- .... ....|R-- .... ....|C-5 BF.F ....
....|..|--- .... ....|--- .... ....|C-4 LF.A ....
....|..|--- .... ....|--- .... ....|C-5 BF.F ....
....|..|R-- .... ....|--- .... ....|R-- .... ....
....|..|--- .... ....|--- .... ....|C-4 LF.F ....
....|..|--- .... ....|--- .... ....|C-3 RF.A ....
....|..|C-4 2F17 ....|G#5 2F.F ....|C-4 LF.F ....
 F-3|..|F-1 2F.7 ....|--- .... ....|C-4 LF.A ....
....|..|--- .... ....|C-4 2F.7 ....|C-4 AF.7 ....
....|..|--- .... ....|A#5 2F.F ....|R-- .... ....
....|..|--- .... ....|--- .... ....|C-4 LF.F ....
....|..|--- .... ....|--- .... ....|C-4 AF.F ....

[Pattern37]
....|..|C-4 2F3F ....|--- .... ....|C-4 AF.F ....
....|..|--- .... ....|--- .... ....|C-4 LF.A ....
....|..|--- .... ....|G#5 2F.F ....|C-3 RF.7 ....
....|..|--- .... ....|G#5 2F.A ....|R-- .... ....
....|..|--- .... ....|--- .... ....|C-4 LF.F ....
....|..|--- .... ....|--- .... ....|C-4 AF.F ....
....|..|--- .... ....|R-- .... ....|C-4 AF.F ....
....|..|--- .... ....|--- .... ....|C-4 LF.A ....
....|..|--- .... ....|G-5 2F.F ....|C-4 AF.F ....
....|..|R-- .... ....|--- .... ....|R-- .... ....
....|..|--- .... ....|--- .... ....|C-4 LF.F ....
....|..|--- .... ....|G#5 2F.A ....|R-- .... ....
....|..|--- .... ....|G#5 2F.7 ....|C-5 BF.F ....
....|..|--- .... ....|--- .... ....|C-4 LF.A ....
....|..|--- .... ....|G#5 2F.F ....|C-5 BF.F ....
....|..|R-- .... ....|A#5 2F.7 ....|R-- .... ....
....|..|--- .... ....|--- .... ....|C-4 LF.F ....
....|..|--- .... ....|G-5 2F.A ....|C-4 AF.7 ....
....|..|C-4 2F37 ....|--- .... ....|C-4 LF.F ....
....|..|--- .... ....|--- .... ....|C-4 LF.A ....
....|..|--- .... ....|G-5 2F.F ....|R-- .... ....
....|..|--- .... ....|--- .... ....|C-5 BF.A ....
....|..|--- .... ....|--- .... ....|C-4 LF.F ....
....|..|--- .... ....|G#5 2F.A ....|C-4 AF.7 ....
 A#3|..|F-3 2F1F ....|D-4 2F.F ....|A#1 2A.F ....
 A#3|..|A#1 2A.F ....|--- .... ....|C-4 LF.A ....
....|..|--- .... ....|C-4 2F.F ....|C-4 AF.F ....
....|..|--- .... ....|A#3 2F.F ....|R-- .... ....
....|..|--- .... ....|--- .... ....|C-4 LF.F ....
....|..|--- .... ....|G-5 2F.A ....|R-- .... ....
....|..|--- .... ....|--- .... ....|C-3 RF.F ....
....|..|--- .... ....|--- .... ....|C-4 LF.A ....
....|..|--- .... ....|G#5 2F.7 ....|C-3 RF.F ....
....|..|R-- .... ....|D-4 2F.A ....|R-- .... ....
 A#3|..|A#1 2F.A ....|--- .... ....|C-4 LF.F ....
....|..|--- .... ....|C-4 2F.A ....|C-4 AF.F ....
....|..|--- .... ....|F-5 2F.F ....|C-5 BF.F ....
....|..|--- .... ....|--- .... ....|C-4 LF.A ....
....|..|--- .... ....|G-5 2F.7 ....|C-5 BF.F ....
....|..|R-- .... ....|--- .... ....|R-- .... ....
....|..|--- .... ....|--- .... ....|C-4 LF.F ....
....|..|--- .... ....|--- .... ....|C-3 RF.A ....
....|..|F-3 2F17 ....|D-4 2F.7 ....|C-4 LF.F ....
 A#3|..|A#1 2F.7 ....|--- .... ....|C-4 LF.A ....
....|..|--- .... ....|C-4 2F.7 ....|C-4 AF.7 ....
....|..|--- .... ....|A#3 2F.7 ....|R-- .... ....
....|..|--- .... ....|--- .... ....|C-4 LF.F ....
....|..|--- .... ....|--- .... ....|C-4 AF.F ....
....|..|A#3 2F2F ....|--- .... ....|C-4 AF.F ....
....|..|--- .... ....|--- .... ....|C-4 LF.A ....
....|..|--- .... ....|--- .... ....|C-3 RF.7 ....
....|..|--- .... ....|--- .... ....|R-- .... ....
....|..|--- .... ....|--- .... ....|C-4 LF.F ....
....|..|--- .... ....|--- .... ....|C-4 AF.F ....
....|..|--- .... ....|F-5 2F.7 ....|C-4 AF.F ....
....|..|--- .... ....|--- .... ....|C-4 LF.A ....
....|..|--- .... ....|--- .... ....|C-4 AF.F ....
....|..|R-- .... ....|--- .... ....|R-- .... ....
....|..|--- .... ....|--- .... ....|C-4 LF.F ....
....|..|--- .... ....|--- .... ....|R-- .... ....
....|..|--- .... ....|--- .... ....|C-5 BF.F ....
....|..|--- .... ....|--- .... ....|C-4 LF.A ....
....|..|--- .... ....|--- .... ....|C-5 BF.F ....
....|..|R-- .... ....|--- .... ....|R-- .... ....
....|..|--- .... ....|--- .... ....|C-4 LF.F ....
....|..|--- .... ....|--- .... ....|C-4 AF.7 ....
....|..|A#3 2F27 ....|--- .... ....|C-4 LF.F ....
....|..|--- .... ....|--- .... ....|C-4 LF.A ....
....|..|--- .... ....|--- .... ....|R-- .... ....
....|..|--- .... ....|D-4 2F.F ....|C-5 BF.A ....
....|..|--- .... ....|--- .... ....|C-4 LF.F ....
....|..|--- .... ....|--- .... ....|C-4 AF.7 ....
 F-3|..|C-4 2F1F ....|--- .... ....|F-1 2A.F ....
 F-3|..|F-1 2A.F ....|--- .... ....|C-4 LF.A ....
....|..|--- .... ....|--- .... ....|C-4 AF.F ....
....|..|--- .... ....|--- .... ....|R-- .... ....
....|..|--- .... ....|--- .... ....|C-4 LF.F ....
....|..|--- .... ....|--- .... ....|R-- .... ....
....|..|--- .... ....|D-4 2F.A ....|C-3 RF.F ....
....|..|--- .... ....|--- .... ....|C-4 LF.A ....
....|..|--- .... ....|C-4 2F.F ....|C-3 RF.F ....
....|..|R-- .... ....|--- .... ....|R-- .... ....
 F-3|..|F-1 2F.A ....|--- .... ....|C-4 LF.F ....
....|..|--- .... ....|--- .... ....|C-4 AF.F ....
....|..|--- .... ....|--- .... ....|C-5 BF.F ....
....|..|--- .... ....|--- .... ....|C-4 LF.A ....
....|..|--- .... ....|--- .... ....|C-5 BF.F ....
....|..|R-- .... ....|D-4 2F.7 ....|R-- .... ....
....|..|--- .... ....|--- .... ....|C-4 LF.F ....
....|..|--- .... ....|C-4 2F.A ....|C-3 RF.A ....
....|..|C-4 2F17 ....|R-- .... ....|C-4 LF.F ....
 F-3|..|F-1 2F.7 ....|--- .... ....|C-4 LF.A ....
....|..|--- .... ....|--- .... ....|C-4 AF.7 ....
....|..|--- .... ....|R-- .... ....|R-- .... ....
....|..|--- .... ....|--- .... ....|C-4 LF.F ....
....|..|--- .... ....|--- .... ....|C-4 AF.F ....

[Pattern38]
....|..|C-4 2F3F ....|--- .... ....|C-4 AF.F ....
....|..|--- .... ....|--- .... ....|C-4 LF.A ....
....|..|--- .... ....|C-4 2F.7 ....|C-3 RF.7 ....
....|..|--- .... ....|R-- .... ....|R-- .... ....
....|..|--- .... ....|--- .... ....|C-4 LF.F ....
....|..|--- .... ....|--- .... ....|C-4 AF.F ....
....|..|--- .... ....|G-3 2F.F ....|C-4 AF.F ....
....|..|--- .... ....|--- .... ....|C-4 LF.A ....
....|..|--- .... ....|--- .... ....|C-4 AF.F ....
....|..|R-- .... ....|--- .... ....|R-- .... ....
....|..|--- .... ....|--- .... ....|C-4 LF.F ....
....|..|--- .... ....|--- .... ....|R-- .... ....
....|..|--- .... ....|R-- .... ....|C-5 BF.F ....
....|..|--- .... ....|--- .... ....|C-4 LF.A ....
....|..|--- .... ....|--- .... ....|C-5 BF.F ....
....|..|R-- .... ....|R-- .... ....|R-- .... ....
....|..|--- .... ....|--- .... ....|C-4 LF.F ....
....|..|--- .... ....|--- .... ....|C-4 AF.7 ....
....|..|C-4 2F37 ....|G-5 2F.F ....|C-4 LF.F ....
....|..|--- .... ....|--- .... ....|C-4 LF.A ....
....|..|--- .... ....|--- .... ....|R-- .... ....
....|..|--- .... ....|--- .... ....|C-5 BF.A ....
....|..|--- .... ....|--- .... ....|C-4 LF.F ....
....|..|--- .... ....|--- .... ....|C-4 AF.7 ....
 A#3|..|F-3 2F1F ....|A#5 2F.F ....|A#1 2A.F ....
 A#3|..|A#1 2A.F ....|--- .... ....|C-4 LF.A ....
....|..|--- .... ....|C-4 2F.F ....|C-4 AF.F ....
....|..|--- .... ....|A#3 2F.F ....|R-- .... ....
....|..|--- .... ....|--- .... ....|C-4 LF.F ....
....|..|--- .... ....|--- .... ....|R-- .... ....
....|..|--- .... ....|--- .... ....|C-3 RF.F ....
....|..|--- .... ....|--- .... ....|C-4 LF.A ....
....|..|--- .... ....|--- .... ....|C-3 RF.F ....
....|..|R-- .... ....|A#5 2F.A ....|R-- .... ....
 A#3|..|A#1 2F.A ....|--- .... ....|C-4 LF.F ....
....|..|--- .... ....|C-4 2F.A ....|C-4 AF.F ....
....|..|--- .... ....|G-5 2F.7 ....|C-5 BF.F ....
....|..|--- .... ....|--- .... ....|C-4 LF.A ....
....|..|--- .... ....|--- .... ....|C-5 BF.F ....
....|..|R-- .... ....|--- .... ....|R-- .... ....
....|..|--- .... ....|--- .... ....|C-4 LF.F ....
....|..|--- .... ....|--- .... ....|C-3 RF.A ....
....|..|F-3 2F17 ....|A#5 2F.7 ....|C-4 LF.F ....
 A#3|..|A#1 2F.7 ....|--- .... ....|C-4 LF.A ....
....|..|--- .... ....|C-4 2F.7 ....|C-4 AF.7 ....
....|..|--- .... ....|A#3 2F.7 ....|R-- .... ....
....|..|--- .... ....|--- .... ....|C-4 LF.F ....
....|..|--- .... ....|--- .... ....|C-4 AF.F ....
....|..|A#3 2F2F ....|--- .... ....|C-4 AF.F ....
....|..|--- .... ....|--- .... ....|C-4 LF.A ....
....|..|--- .... ....|--- .... ....|C-3 RF.7 ....
....|..|--- .... ....|--- .... ....|R-- .... ....
....|..|--- .... ....|--- .... ....|C-4 LF.F ....
....|..|--- .... ....|--- .... ....|C-4 AF.F ....
....|..|--- .... ....|R-- .... ....|C-4 AF.F ....
....|..|--- .... ....|--- .... ....|C-4 LF.A ....
....|..|--- .... ....|--- .... ....|C-4 AF.F ....
....|..|R-- .... ....|--- .... ....|R-- .... ....
....|..|--- .... ....|--- .... ....|C-4 LF.F ....
....|..|--- .... ....|--- .... ....|R-- .... ....
....|..|--- .... ....|R-- .... ....|C-5 BF.F ....
....|..|--- .... ....|--- .... ....|C-4 LF.A ....
....|..|--- .... ....|--- .... ....|C-5 BF.F ....
....|..|R-- .... ....|--- .... ....|R-- .... ....
....|..|--- .... ....|--- .... ....|C-4 LF.F ....
....|..|--- .... ....|--- .... ....|C-4 AF.7 ....
....|..|A#3 2F27 ....|--- .... ....|C-4 LF.F ....
....|..|--- .... ....|--- .... ....|C-4 LF.A ....
....|..|--- .... ....|--- .... ....|R-- .... ....
....|..|--- .... ....|R-- .... ....|C-5 BF.A ....
....|..|--- .... ....|--- .... ....|C-4 LF.F ....
....|..|--- .... ....|--- .... ....|C-4 AF.7 ....
 F-3|..|C-4 2F1F ....|D-4 2F.F ....|F-1 2A.F ....
 F-3|..|F-1 2A.F ....|--- .... ....|C-4 LF.A ....
....|..|--- .... ....|C-4 2F.F ....|C-4 AF.F ....
....|..|--- .... ....|A#3 2F.F ....|R-- .... ....
....|..|--- .... ....|--- .... ....|C-4 LF.F ....
....|..|--- .... ....|--- .... ....|R-- .... ....
....|..|--- .... ....|R-- .... ....|C-3 RF.F ....
....|..|--- .... ....|--- .... ....|C-4 LF.A ....
....|..|--- .... ....|--- .... ....|C-3 RF.F ....
....|..|R-- .... ....|F-6 2F.F ....|R-- .... ....
 F-3|..|F-1 2F.A ....|--- .... ....|C-4 LF.F ....
....|..|--- .... ....|C-4 2F.A ....|C-4 AF.F ....
....|..|--- .... ....|R-- .... ....|C-5 BF.F ....
....|..|--- .... ....|--- .... ....|C-4 LF.A ....
....|..|--- .... ....|--- .... ....|C-5 BF.F ....
....|..|R-- .... ....|--- .... ....|R-- .... ....
....|..|--- .... ....|--- .... ....|C-4 LF.F ....
....|..|--- .... ....|--- .... ....|C-3 RF.A ....
....|..|C-4 2F17 ....|D-4 2F.7 ....|C-4 LF.F ....
 F-3|..|F-1 2F.7 ....|--- .... ....|C-4 LF.A ....
....|..|--- .... ....|D#6 2F.F ....|C-4 AF.7 ....
....|..|--- .... ....|A#3 2F.7 ....|R-- .... ....
....|..|--- .... ....|--- .... ....|C-4 LF.F ....
....|..|--- .... ....|--- .... ....|C-4 AF.F ....

[Pattern39]
....|..|C-4 2F3F ....|--- .... ....|C-4 AF.F ....
....|..|--- .... ....|--- .... ....|C-4 LF.A ....
....|..|--- .... ....|D-6 2F.F ....|C-3 RF.7 ....
....|..|--- .... ....|F-6 2F.7 ....|R-- .... ....
....|..|--- .... ....|--- .... ....|C-4 LF.F ....
....|..|--- .... ....|D#6 2F.A ....|C-4 AF.F ....
....|..|--- .... ....|R-- .... ....|C-4 AF.F ....
....|..|--- .... ....|--- .... ....|C-4 LF.A ....
....|..|--- .... ....|D#6 2F.F ....|C-4 AF.F ....
....|..|R-- .... ....|--- .... ....|R-- .... ....
....|..|--- .... ....|--- .... ....|C-4 LF.F ....
....|..|--- .... ....|D-6 2F.A ....|R-- .... ....
....|..|--- .... ....|--- .... ....|C-5 BF.F ....
....|..|--- .... ....|--- .... ....|C-4 LF.A ....
....|..|--- .... ....|D-6 2F.F ....|C-5 BF.F ....
....|..|R-- .... ....|--- .... ....|R-- .... ....
....|..|--- .... ....|--- .... ....|C-4 LF.F ....
....|..|--- .... ....|D#6 2F.A ....|C-4 AF.7 ....
....|..|C-4 2F37 ....|--- .... ....|C-4 LF.F ....
....|..|--- .... ....|--- .... ....|C-4 LF.A ....
....|..|--- .... ....|C-6 2F.F ....|R-- .... ....
....|..|--- .... ....|--- .... ....|C-5 BF.A ....
....|..|--- .... ....|--- .... ....|C-4 LF.F ....
....|..|--- .... ....|D-6 2F.A ....|C-4 AF.7 ....
 A#3|..|F-3 2F1F ....|D-4 2F.F ....|A#1 2A.F ....
 A#3|..|A#1 2A.F ....|--- .... ....|C-4 LF.A ....
....|..|--- .... ....|D-6 2F.F ....|C-4 AF.F ....
....|..|--- .... ....|A#3 2F.F ....|R-- .... ....
....|..|--- .... ....|--- .... ....|C-4 LF.F ....
....|..|--- .... ....|C-6 2F.A ....|R-- .... ....
....|..|--- .... ....|C-6 2F.F ....|C-3 RF.F ....
....|..|--- .... ....|--- .... ....|C-4 LF.A ....
....|..|--- .... ....|D-6 2F.7 ....|C-3 RF.F ....
....|..|R-- .... ....|D-4 2F.A ....|R-- .... ....
 A#3|..|A#1 2F.A ....|R-- .... ....|C-4 LF.F ....
....|..|--- .... ....|A#5 2F.F ....|C-4 AF.F ....
....|..|--- .... ....|R-- .... ....|C-5 BF.F ....
....|..|--- .... ....|--- .... ....|C-4 LF.A ....
....|..|--- .... ....|C-6 2F.7 ....|C-5 BF.F ....
....|..|R-- .... ....|C-6 2F.A ....|R-- .... ....
....|..|--- .... ....|--- .... ....|C-4 LF.F ....
....|..|--- .... ....|--- .... ....|C-3 RF.A ....
....|..|F-3 2F17 ....|D-4 2F.7 ....|C-4 LF.F ....
 A#3|..|A#1 2F.7 ....|R-- .... ....|C-4 LF.A ....
....|..|--- .... ....|D-6 2F.7 ....|C-4 AF.7 ....
....|..|--- .... ....|A#3 2F.7 ....|R-- .... ....
....|..|--- .... ....|--- .... ....|C-4 LF.F ....
....|..|--- .... ....|--- .... ....|C-4 AF.F ....
....|..|A#3 2F2F ....|C-6 2F.7 ....|C-4 AF.F ....
....|..|--- .... ....|--- .... ....|C-4 LF.A ....
....|..|--- .... ....|--- .... ....|C-3 RF.7 ....
....|..|--- .... ....|--- .... ....|R-- .... ....
....|..|--- .... ....|R-- .... ....|C-4 LF.F ....
....|..|--- .... ....|A#5 2F.7 ....|C-4 AF.F ....
....|..|--- .... ....|R-- .... ....|C-4 AF.F ....
....|..|--- .... ....|--- .... ....|C-4 LF.A ....
....|..|--- .... ....|--- .... ....|C-4 AF.F ....
....|..|R-- .... ....|--- .... ....|R-- .... ....
....|..|--- .... ....|--- .... ....|C-4 LF.F ....
....|..|--- .... ....|--- .... ....|R-- .... ....
....|..|--- .... ....|--- .... ....|C-5 BF.F ....
....|..|--- .... ....|--- .... ....|C-4 LF.A ....
....|..|--- .... ....|--- .... ....|C-5 BF.F ....
....|..|R-- .... ....|R-- .... ....|R-- .... ....
....|..|--- .... ....|--- .... ....|C-4 LF.F ....
....|..|--- .... ....|--- .... ....|C-4 AF.7 ....
....|..|A#3 2F27 ....|--- .... ....|C-4 LF.F ....
....|..|--- .... ....|--- .... ....|C-4 LF.A ....
....|..|--- .... ....|--- .... ....|R-- .... ....
....|..|--- .... ....|D-4 2F.F ....|C-5 BF.A ....
....|..|--- .... ....|--- .... ....|C-4 LF.F ....
....|..|--- .... ....|--- .... ....|C-4 AF.7 ....
 F-3|..|C-4 2F1F ....|R-- .... ....|F-1 2A.F ....
 F-3|..|F-1 2A.F ....|--- .... ....|C-4 LF.A ....
....|..|--- .... ....|--- .... ....|C-4 AF.F ....
....|..|--- .... ....|--- .... ....|R-- .... ....
....|..|--- .... ....|--- .... ....|C-4 LF.F ....
....|..|--- .... ....|--- .... ....|R-- .... ....
....|..|--- .... ....|D-4 2F.A ....|C-3 RF.F ....
....|..|--- .... ....|--- .... ....|C-4 LF.A ....
....|..|--- .... ....|C-4 2F.F ....|C-3 RF.F ....
....|..|R-- .... ....|--- .... ....|R-- .... ....
 F-3|..|F-1 2F.A ....|--- .... ....|C-4 LF.F ....
....|..|--- .... ....|--- .... ....|C-4 AF.F ....
....|..|--- .... ....|--- .... ....|C-5 BF.F ....
....|..|--- .... ....|--- .... ....|C-4 LF.A ....
....|..|--- .... ....|--- .... ....|C-5 BF.F ....
....|..|R-- .... ....|D-4 2F.7 ....|R-- .... ....
....|..|--- .... ....|--- .... ....|C-4 LF.F ....
....|..|--- .... ....|C-4 2F.A ....|C-3 RF.A ....
....|..|C-4 2F17 ....|--- .... ....|C-4 LF.F ....
 F-3|..|F-1 2F.7 ....|--- .... ....|C-4 LF.A ....
....|..|--- .... ....|G#5 2F.F ....|C-4 AF.7 ....
....|..|--- .... ....|A#5 2F.F ....|R-- .... ....
....|..|--- .... ....|--- .... ....|C-4 LF.F ....
....|..|--- .... ....|--- .... ....|C-4 AF.F ....

[Pattern40]
....|..|C-4 2F3F ....|G#5 2F.F ....|C-4 AF.F ....
....|..|--- .... ....|--- .... ....|C-4 LF.A ....
....|..|--- .... ....|C-4 2F.7 ....|C-3 RF.7 ....
....|..|--- .... ....|--- .... ....|R-- .... ....
....|..|--- .... ....|--- .... ....|C-4 LF.F ....
....|..|--- .... ....|G#5 2F.A ....|C-4 AF.F ....
....|..|--- .... ....|G-5 2F.F ....|C-4 AF.F ....
....|..|--- .... ....|--- .... ....|C-4 LF.A ....
....|..|--- .... ....|--- .... ....|C-4 AF.F ....
....|..|R-- .... ....|G#5 2F.A ....|R-- .... ....
....|..|--- .... ....|--- .... ....|C-4 LF.F ....
....|..|--- .... ....|--- .... ....|R-- .... ....
....|..|--- .... ....|G#5 2F.F ....|C-5 BF.F ....
....|..|--- .... ....|--- .... ....|C-4 LF.A ....
....|..|--- .... ....|G#5 2F.7 ....|C-5 BF.F ....
....|..|R-- .... ....|A#5 2F.7 ....|R-- .... ....
....|..|--- .... ....|--- .... ....|C-4 LF.F ....
....|..|--- .... ....|--- .... ....|C-4 AF.7 ....
....|..|C-4 2F37 ....|F-5 2F.F ....|C-4 LF.F ....
....|..|--- .... ....|--- .... ....|C-4 LF.A ....
....|..|--- .... ....|--- .... ....|R-- .... ....
....|..|--- .... ....|G#5 2F.A ....|C-5 BF.A ....
....|..|--- .... ....|--- .... ....|C-4 LF.F ....
....|..|--- .... ....|--- .... ....|C-4 AF.7 ....
 A#3|..|F-3 2F1F ....|A#5 2F.F ....|A#1 2A.F ....
 A#3|..|A#1 2A.F ....|--- .... ....|C-4 LF.A ....
....|..|--- .... ....|C-4 2F.F ....|C-4 AF.F ....
....|..|--- .... ....|A#3 2F.F ....|R-- .... ....
....|..|--- .... ....|--- .... ....|C-4 LF.F ....
....|..|--- .... ....|--- .... ....|R-- .... ....
....|..|--- .... ....|G#5 2F.7 ....|C-3 RF.F ....
....|..|--- .... ....|--- .... ....|C-4 LF.A ....
....|..|--- .... ....|--- .... ....|C-3 RF.F ....
....|..|R-- .... ....|A#5 2F.A ....|R-- .... ....
 A#3|..|A#1 2F.A ....|--- .... ....|C-4 LF.F ....
....|..|--- .... ....|C-4 2F.A ....|C-4 AF.F ....
....|..|--- .... ....|F-5 2F.7 ....|C-5 BF.F ....
....|..|--- .... ....|--- .... ....|C-4 LF.A ....
....|..|--- .... ....|--- .... ....|C-5 BF.F ....
....|..|R-- .... ....|--- .... ....|R-- .... ....
....|..|--- .... ....|--- .... ....|C-4 LF.F ....
....|..|--- .... ....|--- .... ....|C-3 RF.A ....
....|..|F-3 2F17 ....|A#5 2F.7 ....|C-4 LF.F ....
 A#3|..|A#1 2F.7 ....|--- .... ....|C-4 LF.A ....
....|..|--- .... ....|C-4 2F.7 ....|C-4 AF.7 ....
....|..|--- .... ....|A#3 2F.7 ....|R-- .... ....
....|..|--- .... ....|--- .... ....|C-4 LF.F ....
....|..|--- .... ....|--- .... ....|C-4 AF.F ....
....|..|A#3 2F2F ....|A#5 2F.F ....|C-4 AF.F ....
....|..|--- .... ....|--- .... ....|C-4 LF.A ....
....|..|--- .... ....|--- .... ....|C-3 RF.7 ....
....|..|--- .... ....|--- .... ....|R-- .... ....
....|..|--- .... ....|--- .... ....|C-4 LF.F ....
....|..|--- .... ....|--- .... ....|C-4 AF.F ....
....|..|--- .... ....|R-- .... ....|C-4 AF.F ....
....|..|--- .... ....|--- .... ....|C-4 LF.A ....
....|..|--- .... ....|--- .... ....|C-4 AF.F ....
....|..|R-- .... ....|A#5 2F.A ....|R-- .... ....
....|..|--- .... ....|--- .... ....|C-4 LF.F ....
....|..|--- .... ....|--- .... ....|R-- .... ....
....|..|--- .... ....|R-- .... ....|C-5 BF.F ....
....|..|--- .... ....|--- .... ....|C-4 LF.A ....
....|..|--- .... ....|--- .... ....|C-5 BF.F ....
....|..|R-- .... ....|--- .... ....|R-- .... ....
....|..|--- .... ....|--- .... ....|C-4 LF.F ....
....|..|--- .... ....|--- .... ....|C-4 AF.7 ....
....|..|A#3 2F27 ....|A#5 2F.7 ....|C-4 LF.F ....
....|..|--- .... ....|--- .... ....|C-4 LF.A ....
....|..|--- .... ....|--- .... ....|R-- .... ....
....|..|--- .... ....|R-- .... ....|C-5 BF.A ....
....|..|--- .... ....|--- .... ....|C-4 LF.F ....
....|..|--- .... ....|--- .... ....|C-4 AF.7 ....
 F-3|..|C-4 2F1F ....|D-4 2F.F ....|F-1 2A.F ....
 F-3|..|F-1 2A.F ....|--- .... ....|C-4 LF.A ....
....|..|--- .... ....|C-4 2F.F ....|C-4 AF.F ....
....|..|--- .... ....|A#3 2F.F ....|R-- .... ....
....|..|--- .... ....|--- .... ....|C-4 LF.F ....
....|..|--- .... ....|--- .... ....|R-- .... ....
....|..|--- .... ....|R-- .... ....|C-3 RF.F ....
....|..|--- .... ....|--- .... ....|C-4 LF.A ....
....|..|--- .... ....|--- .... ....|C-3 RF.F ....
....|..|R-- .... ....|F-6 2F.F ....|R-- .... ....
 F-3|..|F-1 2F.A ....|--- .... ....|C-4 LF.F ....
....|..|--- .... ....|C-4 2F.A ....|C-4 AF.F ....
....|..|--- .... ....|R-- .... ....|C-5 BF.F ....
....|..|--- .... ....|--- .... ....|C-4 LF.A ....
....|..|--- .... ....|--- .... ....|C-5 BF.F ....
....|..|R-- .... ....|--- .... ....|R-- .... ....
....|..|--- .... ....|--- .... ....|C-4 LF.F ....
....|..|--- .... ....|--- .... ....|C-3 RF.A ....
....|..|C-4 2F17 ....|D-4 2F.7 ....|C-4 LF.F ....
 F-3|..|F-1 2F.7 ....|--- .... ....|C-4 LF.A ....
....|..|--- .... ....|D#6 2F.F ....|C-4 AF.7 ....
....|..|--- .... ....|A#3 2F.7 ....|R-- .... ....
....|..|--- .... ....|--- .... ....|C-4 LF.F ....
....|..|--- .... ....|--- .... ....|C-4 AF.F ....

[Pattern42]
....|..|C-4 2F3F ....|G#5 2F.F ....|C-4 AF.F ....
....|..|--- .... ....|--- .... ....|C-4 LF.A ....
....|..|--- .... ....|C-4 2F.7 ....|C-3 RF.7 ....
....|..|--- .... ....|--- .... ....|R-- .... ....
....|..|--- .... ....|--- .... ....|C-4 LF.F ....
....|..|--- .... ....|G#5 2F.A ....|C-4 AF.F ....
....|..|--- .... ....|G-5 2F.F ....|C-4 AF.F ....
....|..|--- .... ....|--- .... ....|C-4 LF.A ....
....|..|--- .... ....|--- .... ....|C-4 AF.F ....
....|..|R-- .... ....|G#5 2F.A ....|R-- .... ....
....|..|--- .... ....|--- .... ....|C-4 LF.F ....
....|..|--- .... ....|--- .... ....|R-- .... ....
....|..|--- .... ....|G#5 2F.F ....|C-5 BF.F ....
....|..|--- .... ....|--- .... ....|C-4 LF.A ....
....|..|--- .... ....|G#5 2F.7 ....|C-5 BF.F ....
....|..|R-- .... ....|A#5 2F.7 ....|R-- .... ....
....|..|--- .... ....|--- .... ....|C-4 LF.F ....
....|..|--- .... ....|--- .... ....|C-4 AF.7 ....
....|..|C-4 2F37 ....|F-5 2F.F ....|C-4 LF.F ....
....|..|--- .... ....|--- .... ....|C-4 LF.A ....
....|..|--- .... ....|--- .... ....|R-- .... ....
....|..|--- .... ....|G#5 2F.A ....|C-5 BF.A ....
....|..|--- .... ....|--- .... ....|C-4 LF.F ....
....|..|--- .... ....|--- .... ....|C-4 AF.7 ....
....|..|R-- .... ....|G-5 2F.7 ....|C-4 AF.7 ....
....|..|--- .... ....|--- .... ....|C-4 LF.A ....
....|..|--- .... ....|--- .... ....|C-4 AF.7 ....
....|..|--- .... ....|F-5 2F.A ....|R-- .... ....
....|..|--- .... ....|--- .... ....|C-4 LF.7 ....
....|..|--- .... ....|--- .... ....|R-- .... ....
....|..|--- .... ....|G#5 2F.7 ....|C-5 BF.7 ....
....|..|--- .... ....|--- .... ....|C-4 LF.A ....
....|..|--- .... ....|--- .... ....|C-5 BF.7 ....
....|..|R-- .... ....|R-- .... ....|R-- .... ....
....|..|--- .... ....|--- .... ....|C-4 LF.7 ....
....|..|--- .... ....|--- .... ....|--- .... ....
....|..|--- .... ....|F-5 2F.7 ....|C-4 LF.7 ....
....|..|--- .... ....|--- .... ....|--- .... ....
....|..|--- .... ....|--- .... ....|R-- .... ....
....|..|--- .... ....|--- .... ....|--- .... ....
....|..|--- .... ....|--- .... ....|C-4 LF.7 ....
....|..|--- .... ....|--- .... ....|--- .... ....
....|..|R-- .... ....|R-- .... ....|R-- .... ....
....|..|--- .... ....|--- .... ....|--- .... ....
....|..|--- .... ....|--- .... ....|--- .... ....
....|..|--- .... ....|--- .... ....|--- .... ....
....|..|--- .... ....|--- .... ....|--- .... ....
....|..|--- .... ....|--- .... ....|--- .... ....
....|..|--- .... ....|R-- .... ....|--- .... ....
....|..|--- .... ....|--- .... ....|--- .... ....
....|..|--- .... ....|--- .... ....|--- .... ....
....|..|--- .... ....|--- .... ....|--- .... ....
....|..|--- .... ....|--- .... ....|--- .... ....
....|..|--- .... ....|--- .... ....|--- .... ....
....|..|--- .... ....|--- .... ....|--- .... ....
....|..|--- .... ....|--- .... ....|--- .... ....
....|..|--- .... ....|--- .... ....|--- .... ....
....|..|--- .... ....|R-- .... ....|--- .... ....
....|..|--- .... ....|--- .... ....|--- .... ....
....|..|--- .... ....|--- .... ....|--- .... ....
....|..|--- .... ....|--- .... ....|--- .... ....
....|..|--- .... ....|--- .... ....|--- .... ....
....|..|--- .... ....|--- .... ....|--- .... ....
....|..|--- .... ....|--- .... ....|--- .... ....
....|..|--- .... ....|--- .... ....|--- .... ....
....|..|--- .... ....|--- .... ....|--- .... ....
....|..|--- .... ....|R-- .... ....|--- .... ....
....|..|--- .... ....|--- .... ....|--- .... ....
....|..|--- .... ....|--- .... ....|--- .... ....
....|..|--- .... ....|--- .... ....|--- .... ....
....|..|--- .... ....|--- .... ....|--- .... ....
....|..|--- .... ....|--- .... ....|--- .... ....
....|..|F-3 2F1F ....|A#5 2F.F ....|--- .... ....
....|..|--- .... ....|--- .... ....|--- .... ....
....|..|--- .... ....|--- .... ....|--- .... ....
....|..|--- .... ....|--- .... ....|--- .... ....
....|..|--- .... ....|--- .... ....|--- .... ....
....|..|--- .... ....|--- .... ....|--- .... ....
....|..|--- .... ....|--- .... ....|--- .... ....
....|..|--- .... ....|--- .... ....|--- .... ....
....|..|--- .... ....|--- .... ....|--- .... ....
....|..|F-3 2F1A ....|A#5 2F.A ....|--- .... ....
....|..|--- .... ....|--- .... ....|--- .... ....
....|..|--- .... ....|--- .... ....|--- .... ....
....|..|--- .... ....|--- .... ....|--- .... ....
....|..|--- .... ....|--- .... ....|--- .... ....
....|..|--- .... ....|--- .... ....|--- .... ....
....|..|R-- .... ....|--- .... ....|--- .... ....
....|..|--- .... ....|--- .... ....|--- .... ....
....|..|--- .... ....|--- .... ....|--- .... ....
....|..|F-3 2F17 ....|A#5 2F.7 ....|--- .... ....
....|..|--- .... ....|--- .... ....|--- .... ....
....|..|--- .... ....|--- .... ....|--- .... ....
....|..|--- .... ....|--- .... ....|--- .... ....
....|..|--- .... ....|--- .... ....|--- .... ....
....|..|--- .... ....|--- .... ....|--- .... ....

[Pattern43]
....|..|A#3 2F2F ....|--- .... ....|--- .... ....
....|..|--- .... ....|--- .... ....|--- .... ....
....|..|--- .... ....|--- .... ....|--- .... ....
....|..|--- .... ....|--- .... ....|--- .... ....
....|..|--- .... ....|--- .... ....|--- .... ....
....|..|--- .... ....|--- .... ....|--- .... ....
....|..|--- .... ....|--- .... ....|--- .... ....
....|..|--- .... ....|--- .... ....|--- .... ....
....|..|--- .... ....|--- .... ....|--- .... ....
....|..|R-- .... ....|--- .... ....|--- .... ....
....|..|--- .... ....|--- .... ....|--- .... ....
....|..|--- .... ....|--- .... ....|--- .... ....
....|..|--- .... ....|--- .... ....|--- .... ....
....|..|--- .... ....|--- .... ....|--- .... ....
....|..|--- .... ....|--- .... ....|--- .... ....
....|..|R-- .... ....|--- .... ....|--- .... ....
....|..|--- .... ....|--- .... ....|--- .... ....
....|..|--- .... ....|--- .... ....|--- .... ....
....|..|A#3 2F27 ....|--- .... ....|--- .... ....
....|..|--- .... ....|--- .... ....|--- .... ....
....|..|--- .... ....|--- .... ....|--- .... ....
....|..|--- .... ....|--- .... ....|--- .... ....
....|..|--- .... ....|--- .... ....|--- .... ....
....|..|--- .... ....|--- .... ....|--- .... ....
....|..|C-4 2F1F ....|R-- .... ....|--- .... ....
....|..|--- .... ....|--- .... ....|--- .... ....
....|..|--- .... ....|--- .... ....|--- .... ....
....|..|--- .... ....|--- .... ....|--- .... ....
....|..|--- .... ....|--- .... ....|--- .... ....
....|..|--- .... ....|--- .... ....|--- .... ....
....|..|--- .... ....|--- .... ....|--- .... ....
....|..|--- .... ....|--- .... ....|--- .... ....
....|..|--- .... ....|--- .... ....|--- .... ....
....|..|R-- .... ....|R-- .... ....|--- .... ....
....|..|--- .... ....|--- .... ....|--- .... ....
....|..|--- .... ....|--- .... ....|--- .... ....
....|..|--- .... ....|--- .... ....|--- .... ....
....|..|--- .... ....|--- .... ....|--- .... ....
....|..|--- .... ....|--- .... ....|--- .... ....
....|..|R-- .... ....|--- .... ....|--- .... ....
....|..|--- .... ....|--- .... ....|--- .... ....
....|..|--- .... ....|--- .... ....|--- .... ....
....|..|C-4 2F17 ....|G#5 2F.F ....|--- .... ....
....|..|--- .... ....|--- .... ....|--- .... ....
....|..|--- .... ....|--- .... ....|--- .... ....
....|..|--- .... ....|A#5 2F.F ....|--- .... ....
....|..|--- .... ....|--- .... ....|--- .... ....
....|..|--- .... ....|--- .... ....|--- .... ....
....|..|C-4 2F3F ....|--- .... ....|--- .... ....
....|..|--- .... ....|--- .... ....|--- .... ....
....|..|--- .... ....|G#5 2F.F ....|--- .... ....
....|..|--- .... ....|G#5 2F.A ....|--- .... ....
....|..|--- .... ....|--- .... ....|--- .... ....
....|..|--- .... ....|--- .... ....|--- .... ....
....|..|--- .... ....|A#5 2F.A ....|--- .... ....
....|..|--- .... ....|--- .... ....|--- .... ....
....|..|--- .... ....|G-5 2F.F ....|--- .... ....
....|..|R-- .... ....|--- .... ....|--- .... ....
....|..|--- .... ....|--- .... ....|--- .... ....
....|..|--- .... ....|G#5 2F.A ....|--- .... ....
....|..|--- .... ....|G#5 2F.7 ....|--- .... ....
....|..|--- .... ....|--- .... ....|--- .... ....
....|..|--- .... ....|G#5 2F.F ....|--- .... ....
....|..|R-- .... ....|A#5 2F.7 ....|--- .... ....
....|..|--- .... ....|--- .... ....|--- .... ....
....|..|--- .... ....|G-5 2F.A ....|--- .... ....
....|..|C-4 2F37 ....|--- .... ....|--- .... ....
....|..|--- .... ....|--- .... ....|--- .... ....
....|..|--- .... ....|G-5 2F.F ....|--- .... ....
....|..|--- .... ....|--- .... ....|--- .... ....
....|..|--- .... ....|--- .... ....|--- .... ....
....|..|--- .... ....|G#5 2F.A ....|--- .... ....
....|..|F-3 2F1F ....|--- .... ....|--- .... ....
....|..|--- .... ....|--- .... ....|--- .... ....
....|..|--- .... ....|G-5 2F.7 ....|--- .... ....
....|..|--- .... ....|--- .... ....|--- .... ....
....|..|--- .... ....|--- .... ....|--- .... ....
....|..|--- .... ....|G-5 2F.A ....|--- .... ....
....|..|--- .... ....|--- .... ....|--- .... ....
....|..|--- .... ....|--- .... ....|--- .... ....
....|..|--- .... ....|G#5 2F.7 ....|--- .... ....
....|..|R-- .... ....|--- .... ....|--- .... ....
....|..|--- .... ....|--- .... ....|--- .... ....
....|..|--- .... ....|--- .... ....|--- .... ....
....|..|--- .... ....|F-5 2F.F ....|--- .... ....
....|..|--- .... ....|--- .... ....|--- .... ....
....|..|--- .... ....|G-5 2F.7 ....|--- .... ....
....|..|R-- .... ....|--- .... ....|--- .... ....
....|..|--- .... ....|--- .... ....|--- .... ....
....|..|--- .... ....|--- .... ....|--- .... ....
....|..|F-3 2F17 ....|--- .... ....|--- .... ....
....|..|--- .... ....|--- .... ....|--- .... ....
....|..|--- .... ....|--- .... ....|--- .... ....
....|..|--- .... ....|F-5 2F.A ....|--- .... ....
....|..|--- .... ....|--- .... ....|--- .... ....
....|..|--- .... ....|--- .... ....|--- .... ....

[Pattern44]
....|..|A#3 2F2F ....|--- .... ....|--- .... ....
....|..|--- .... ....|--- .... ....|--- .... ....
....|..|--- .... ....|--- .... ....|--- .... ....
....|..|--- .... ....|--- .... ....|--- .... ....
....|..|--- .... ....|--- .... ....|--- .... ....
....|..|--- .... ....|--- .... ....|--- .... ....
....|..|--- .... ....|F-5 2F.7 ....|--- .... ....
....|..|--- .... ....|--- .... ....|--- .... ....
....|..|--- .... ....|--- .... ....|--- .... ....
....|..|R-- .... ....|--- .... ....|--- .... ....
....|..|--- .... ....|--- .... ....|--- .... ....
....|..|--- .... ....|--- .... ....|--- .... ....
....|..|--- .... ....|--- .... ....|--- .... ....
....|..|--- .... ....|--- .... ....|--- .... ....
....|..|--- .... ....|--- .... ....|--- .... ....
....|..|R-- .... ....|--- .... ....|--- .... ....
....|..|--- .... ....|--- .... ....|--- .... ....
....|..|--- .... ....|--- .... ....|--- .... ....
....|..|A#3 2F27 ....|--- .... ....|--- .... ....
....|..|--- .... ....|--- .... ....|--- .... ....
....|..|--- .... ....|--- .... ....|--- .... ....
....|..|--- .... ....|--- .... ....|--- .... ....
....|..|--- .... ....|--- .... ....|--- .... ....
....|..|--- .... ....|--- .... ....|--- .... ....
....|..|C-4 2F1F ....|--- .... ....|--- .... ....
....|..|--- .... ....|--- .... ....|--- .... ....
....|..|--- .... ....|--- .... ....|--- .... ....
....|..|--- .... ....|--- .... ....|--- .... ....
....|..|--- .... ....|--- .... ....|--- .... ....
....|..|--- .... ....|--- .... ....|--- .... ....
....|..|--- .... ....|--- .... ....|--- .... ....
....|..|--- .... ....|--- .... ....|--- .... ....
....|..|--- .... ....|--- .... ....|--- .... ....
....|..|R-- .... ....|--- .... ....|--- .... ....
....|..|--- .... ....|--- .... ....|--- .... ....
....|..|--- .... ....|--- .... ....|--- .... ....
....|..|--- .... ....|--- .... ....|--- .... ....
....|..|--- .... ....|--- .... ....|--- .... ....
....|..|--- .... ....|--- .... ....|--- .... ....
....|..|R-- .... ....|--- .... ....|--- .... ....
....|..|--- .... ....|--- .... ....|--- .... ....
....|..|--- .... ....|--- .... ....|--- .... ....
....|..|C-4 2F17 ....|R-- .... ....|--- .... ....
....|..|--- .... ....|--- .... ....|--- .... ....
....|..|--- .... ....|--- .... ....|--- .... ....
....|..|--- .... ....|--- .... ....|--- .... ....
....|..|--- .... ....|--- .... ....|--- .... ....
....|..|--- .... ....|--- .... ....|--- .... ....
....|..|C-4 2F3F ....|--- .... ....|--- .... ....
....|..|--- .... ....|--- .... ....|--- .... ....
....|..|--- .... ....|--- .... ....|--- .... ....
....|..|--- .... ....|R-- .... ....|--- .... ....
....|..|--- .... ....|--- .... ....|--- .... ....
....|..|--- .... ....|--- .... ....|--- .... ....
....|..|--- .... ....|--- .... ....|--- .... ....
....|..|--- .... ....|--- .... ....|--- .... ....
....|..|--- .... ....|--- .... ....|--- .... ....
....|..|R-- .... ....|--- .... ....|--- .... ....
....|..|--- .... ....|--- .... ....|--- .... ....
....|..|--- .... ....|--- .... ....|--- .... ....
....|..|--- .... ....|R-- .... ....|--- .... ....
....|..|--- .... ....|--- .... ....|--- .... ....
....|..|--- .... ....|--- .... ....|--- .... ....
....|..|R-- .... ....|--- .... ....|--- .... ....
....|..|--- .... ....|--- .... ....|--- .... ....
....|..|--- .... ....|--- .... ....|--- .... ....
....|..|C-4 2F37 ....|G-5 2F.F ....|--- .... ....
....|..|--- .... ....|--- .... ....|--- .... ....
....|..|--- .... ....|--- .... ....|--- .... ....
....|..|--- .... ....|--- .... ....|--- .... ....
....|..|--- .... ....|--- .... ....|--- .... ....
....|..|--- .... ....|--- .... ....|--- .... ....
....|..|F-3 2F1F ....|A#5 2F.F ....|--- .... ....
....|..|--- .... ....|--- .... ....|--- .... ....
....|..|--- .... ....|--- .... ....|--- .... ....
....|..|--- .... ....|G-5 2F.A ....|--- .... ....
....|..|--- .... ....|--- .... ....|--- .... ....
....|..|--- .... ....|--- .... ....|--- .... ....
....|..|--- .... ....|--- .... ....|--- .... ....
....|..|--- .... ....|--- .... ....|--- .... ....
....|..|--- .... ....|--- .... ....|--- .... ....
....|..|R-- .... ....|A#5 2F.A ....|--- .... ....
....|..|--- .... ....|--- .... ....|--- .... ....
....|..|--- .... ....|--- .... ....|--- .... ....
....|..|--- .... ....|G-5 2F.7 ....|--- .... ....
....|..|--- .... ....|--- .... ....|--- .... ....
....|..|--- .... ....|--- .... ....|--- .... ....
....|..|R-- .... ....|--- .... ....|--- .... ....
....|..|--- .... ....|--- .... ....|--- .... ....
....|..|--- .... ....|--- .... ....|--- .... ....
....|..|F-3 2F17 ....|A#5 2F.7 ....|--- .... ....
....|..|--- .... ....|--- .... ....|--- .... ....
....|..|--- .... ....|--- .... ....|--- .... ....
....|..|--- .... ....|--- .... ....|--- .... ....
....|..|--- .... ....|--- .... ....|--- .... ....
....|..|--- .... ....|--- .... ....|--- .... ....

[Pattern45]
....|..|A#3 2F2F ....|--- .... ....|--- .... ....
....|..|--- .... ....|--- .... ....|--- .... ....
....|..|--- .... ....|--- .... ....|--- .... ....
....|..|--- .... ....|--- .... ....|--- .... ....
....|..|--- .... ....|--- .... ....|--- .... ....
....|..|--- .... ....|--- .... ....|--- .... ....
....|..|--- .... ....|--- .... ....|--- .... ....
....|..|--- .... ....|--- .... ....|--- .... ....
....|..|--- .... ....|--- .... ....|--- .... ....
....|..|R-- .... ....|--- .... ....|--- .... ....
....|..|--- .... ....|--- .... ....|--- .... ....
....|..|--- .... ....|--- .... ....|--- .... ....
....|..|--- .... ....|R-- .... ....|--- .... ....
....|..|--- .... ....|--- .... ....|--- .... ....
....|..|--- .... ....|--- .... ....|--- .... ....
....|..|R-- .... ....|--- .... ....|--- .... ....
....|..|--- .... ....|--- .... ....|--- .... ....
....|..|--- .... ....|--- .... ....|--- .... ....
....|..|A#3 2F27 ....|--- .... ....|--- .... ....
....|..|--- .... ....|--- .... ....|--- .... ....
....|..|--- .... ....|--- .... ....|--- .... ....
....|..|--- .... ....|R-- .... ....|--- .... ....
....|..|--- .... ....|--- .... ....|--- .... ....
....|..|--- .... ....|--- .... ....|--- .... ....
....|..|C-4 2F1F ....|--- .... ....|--- .... ....
....|..|--- .... ....|--- .... ....|--- .... ....
....|..|--- .... ....|--- .... ....|--- .... ....
....|..|--- .... ....|--- .... ....|--- .... ....
....|..|--- .... ....|--- .... ....|--- .... ....
....|..|--- .... ....|--- .... ....|--- .... ....
....|..|--- .... ....|R-- .... ....|--- .... ....
....|..|--- .... ....|--- .... ....|--- .... ....
....|..|--- .... ....|--- .... ....|--- .... ....
....|..|R-- .... ....|F-6 2F.F ....|--- .... ....
....|..|--- .... ....|--- .... ....|--- .... ....
....|..|--- .... ....|--- .... ....|--- .... ....
....|..|--- .... ....|--- .... ....|--- .... ....
....|..|--- .... ....|--- .... ....|--- .... ....
....|..|--- .... ....|--- .... ....|--- .... ....
....|..|R-- .... ....|--- .... ....|--- .... ....
....|..|--- .... ....|--- .... ....|--- .... ....
....|..|--- .... ....|--- .... ....|--- .... ....
....|..|C-4 2F17 ....|F-6 2F.A ....|--- .... ....
....|..|--- .... ....|--- .... ....|--- .... ....
....|..|--- .... ....|D#6 2F.F ....|--- .... ....
....|..|--- .... ....|--- .... ....|--- .... ....
....|..|--- .... ....|--- .... ....|--- .... ....
....|..|--- .... ....|--- .... ....|--- .... ....
....|..|C-4 2F3F ....|--- .... ....|--- .... ....
....|..|--- .... ....|--- .... ....|--- .... ....
....|..|--- .... ....|D-6 2F.F ....|--- .... ....
....|..|--- .... ....|F-6 2F.7 ....|--- .... ....
....|..|--- .... ....|--- .... ....|--- .... ....
....|..|--- .... ....|D#6 2F.A ....|--- .... ....
....|..|--- .... ....|--- .... ....|--- .... ....
....|..|--- .... ....|--- .... ....|--- .... ....
....|..|--- .... ....|D#6 2F.F ....|--- .... ....
....|..|R-- .... ....|--- .... ....|--- .... ....
....|..|--- .... ....|--- .... ....|--- .... ....
....|..|--- .... ....|D-6 2F.A ....|--- .... ....
....|..|--- .... ....|--- .... ....|--- .... ....
....|..|--- .... ....|--- .... ....|--- .... ....
....|..|--- .... ....|D-6 2F.F ....|--- .... ....
....|..|R-- .... ....|--- .... ....|--- .... ....
....|..|--- .... ....|--- .... ....|--- .... ....
....|..|--- .... ....|D#6 2F.A ....|--- .... ....
....|..|C-4 2F37 ....|--- .... ....|--- .... ....
....|..|--- .... ....|--- .... ....|--- .... ....
....|..|--- .... ....|C-6 2F.F ....|--- .... ....
....|..|--- .... ....|--- .... ....|--- .... ....
....|..|--- .... ....|--- .... ....|--- .... ....
....|..|--- .... ....|D-6 2F.A ....|--- .... ....
....|..|F-3 2F1F ....|--- .... ....|--- .... ....
....|..|--- .... ....|--- .... ....|--- .... ....
....|..|--- .... ....|D-6 2F.F ....|--- .... ....
....|..|--- .... ....|--- .... ....|--- .... ....
....|..|--- .... ....|--- .... ....|--- .... ....
....|..|--- .... ....|C-6 2F.A ....|--- .... ....
....|..|--- .... ....|C-6 2F.F ....|--- .... ....
....|..|--- .... ....|--- .... ....|--- .... ....
....|..|--- .... ....|D-6 2F.7 ....|--- .... ....
....|..|R-- .... ....|--- .... ....|--- .... ....
....|..|--- .... ....|R-- .... ....|--- .... ....
....|..|--- .... ....|A#5 2F.F ....|--- .... ....
....|..|--- .... ....|--- .... ....|--- .... ....
....|..|--- .... ....|--- .... ....|--- .... ....
....|..|--- .... ....|C-6 2F.7 ....|--- .... ....
....|..|R-- .... ....|C-6 2F.A ....|--- .... ....
....|..|--- .... ....|--- .... ....|--- .... ....
....|..|--- .... ....|--- .... ....|--- .... ....
....|..|F-3 2F17 ....|--- .... ....|--- .... ....
....|..|--- .... ....|R-- .... ....|--- .... ....
....|..|--- .... ....|D-6 2F.7 ....|--- .... ....
....|..|--- .... ....|--- .... ....|--- .... ....
....|..|--- .... ....|--- .... ....|--- .... ....
....|..|--- .... ....|--- .... ....|--- .... ....

[Pattern46]
....|..|A#3 2F2F ....|C-6 2F.7 ....|--- .... ....
....|..|--- .... ....|--- .... ....|--- .... ....
....|..|--- .... ....|--- .... ....|--- .... ....
....|..|--- .... ....|--- .... ....|--- .... ....
....|..|--- .... ....|R-- .... ....|--- .... ....
....|..|--- .... ....|A#5 2F.7 ....|--- .... ....
....|..|--- .... ....|R-- .... ....|--- .... ....
....|..|--- .... ....|--- .... ....|--- .... ....
....|..|--- .... ....|--- .... ....|--- .... ....
....|..|R-- .... ....|--- .... ....|--- .... ....
....|..|--- .... ....|--- .... ....|--- .... ....
....|..|--- .... ....|--- .... ....|--- .... ....
....|..|--- .... ....|--- .... ....|--- .... ....
....|..|--- .... ....|--- .... ....|--- .... ....
....|..|--- .... ....|--- .... ....|--- .... ....
....|..|R-- .... ....|R-- .... ....|--- .... ....
....|..|--- .... ....|--- .... ....|--- .... ....
....|..|--- .... ....|--- .... ....|--- .... ....
....|..|A#3 2F27 ....|--- .... ....|--- .... ....
....|..|--- .... ....|--- .... ....|--- .... ....
....|..|--- .... ....|--- .... ....|--- .... ....
....|..|--- .... ....|--- .... ....|--- .... ....
....|..|--- .... ....|--- .... ....|--- .... ....
....|..|--- .... ....|--- .... ....|--- .... ....
....|..|C-4 2F1F ....|R-- .... ....|--- .... ....
....|..|--- .... ....|--- .... ....|--- .... ....
....|..|--- .... ....|--- .... ....|--- .... ....
....|..|--- .... ....|--- .... ....|--- .... ....
....|..|--- .... ....|--- .... ....|--- .... ....
....|..|--- .... ....|--- .... ....|--- .... ....
....|..|--- .... ....|--- .... ....|--- .... ....
....|..|--- .... ....|--- .... ....|--- .... ....
....|..|--- .... ....|--- .... ....|--- .... ....
....|..|R-- .... ....|--- .... ....|--- .... ....
....|..|--- .... ....|--- .... ....|--- .... ....
....|..|--- .... ....|--- .... ....|--- .... ....
....|..|--- .... ....|--- .... ....|--- .... ....
....|..|--- .... ....|--- .... ....|--- .... ....
....|..|--- .... ....|--- .... ....|--- .... ....
....|..|R-- .... ....|--- .... ....|--- .... ....
....|..|--- .... ....|--- .... ....|--- .... ....
....|..|--- .... ....|--- .... ....|--- .... ....
....|..|C-4 2F17 ....|--- .... ....|--- .... ....
....|..|--- .... ....|--- .... ....|--- .... ....
....|..|--- .... ....|G#5 2F.F ....|--- .... ....
....|..|--- .... ....|A#5 2F.F ....|--- .... ....
....|..|--- .... ....|--- .... ....|--- .... ....
....|..|--- .... ....|--- .... ....|--- .... ....
....|..|C-4 2F3F ....|G#5 2F.F ....|--- .... ....
....|..|--- .... ....|--- .... ....|--- .... ....
....|..|--- .... ....|--- .... ....|--- .... ....
....|..|--- .... ....|--- .... ....|--- .... ....
....|..|--- .... ....|--- .... ....|--- .... ....
....|..|--- .... ....|G#5 2F.A ....|--- .... ....
....|..|--- .... ....|G-5 2F.F ....|--- .... ....
....|..|--- .... ....|--- .... ....|--- .... ....
....|..|--- .... ....|--- .... ....|--- .... ....
....|..|R-- .... ....|G#5 2F.A ....|--- .... ....
....|..|--- .... ....|--- .... ....|--- .... ....
....|..|--- .... ....|--- .... ....|--- .... ....
....|..|--- .... ....|G#5 2F.F ....|--- .... ....
....|..|--- .... ....|--- .... ....|--- .... ....
....|..|--- .... ....|G#5 2F.7 ....|--- .... ....
....|..|R-- .... ....|A#5 2F.7 ....|--- .... ....
....|..|--- .... ....|--- .... ....|--- .... ....
....|..|--- .... ....|--- .... ....|--- .... ....
....|..|C-4 2F37 ....|F-5 2F.F ....|--- .... ....
....|..|--- .... ....|--- .... ....|--- .... ....
....|..|--- .... ....|--- .... ....|--- .... ....
....|..|--- .... ....|G#5 2F.A ....|--- .... ....
....|..|--- .... ....|--- .... ....|--- .... ....
....|..|--- .... ....|--- .... ....|--- .... ....
....|..|R-- .... ....|G-5 2F.7 ....|--- .... ....
....|..|--- .... ....|--- .... ....|--- .... ....
....|..|--- .... ....|--- .... ....|--- .... ....
....|..|--- .... ....|F-5 2F.A ....|--- .... ....
....|..|--- .... ....|--- .... ....|--- .... ....
....|..|--- .... ....|--- .... ....|--- .... ....
....|..|--- .... ....|G#5 2F.7 ....|--- .... ....
....|..|--- .... ....|--- .... ....|--- .... ....
....|..|--- .... ....|--- .... ....|--- .... ....
....|..|R-- .... ....|--- .... ....|--- .... ....
....|..|--- .... ....|--- .... ....|--- .... ....
....|..|--- .... ....|--- .... ....|--- .... ....
....|..|--- .... ....|F-5 2F.7 ....|--- .... ....
....|..|--- .... ....|--- .... ....|--- .... ....
....|..|--- .... ....|--- .... ....|--- .... ....
....|..|--- .... ....|--- .... ....|--- .... ....
....|..|--- .... ....|--- .... ....|--- .... ....
....|..|--- .... ....|--- .... ....|--- .... ....
....|..|--- .... ....|--- .... ....|--- .... ....
....|..|--- .... ....|--- .... ....|--- .... ....
....|..|--- .... ....|--- .... ....|--- .... ....
....|..|--- .... ....|--- .... ....|--- .... ....
....|..|--- .... ....|--- .... ....|--- .... ....
....|..|--- .... ....|--- .... ....|--- .... ....

[Pattern47]
....|..|--- .... ....|R-- .... ....|--- .... ....
....|..|--- .... ....|--- .... ....|--- .... ....
....|..|--- .... ....|--- .... ....|--- .... ....
....|..|--- .... ....|--- .... ....|--- .... ....
....|..|--- .... ....|--- .... ....|--- .... ....
....|..|--- .... ....|--- .... ....|--- .... ....
....|..|--- .... ....|--- .... ....|--- .... ....
....|..|--- .... ....|--- .... ....|--- .... ....
....|..|--- .... ....|--- .... ....|--- .... ....
....|..|--- .... ....|R-- .... ....|--- .... ....
....|..|--- .... ....|--- .... ....|--- .... ....
....|..|--- .... ....|--- .... ....|--- .... ....
....|..|--- .... ....|--- .... ....|--- .... ....
....|..|--- .... ....|--- .... ....|--- .... ....
....|..|--- .... ....|--- .... ....|--- .... ....
....|..|--- .... ....|--- .... ....|--- .... ....
....|..|--- .... ....|--- .... ....|--- .... ....
....|..|--- .... ....|--- .... ....|--- .... ....
