[Module]
VortexTrackerII=0
Version=3.5
Title=1d-2me,3p[3],4p[4]-5p[5]+
Author=oisee ^ 4d 29.05.2010
NoteTable=4
ChipFreq=1750000
Speed=3
PlayOrder=L0,1,2,3,4,5,6,7,8,9,10,11,11,12,13,14,15,16,17,18,19,3,4,20,21,22,4,23,24,25,26,27,28,29,30,29,31,32,33,34,35,36,37,18,19,3,4,20,38,39,40,41,42,43,44,45,46,47,46,48,49,50,51

[Ornament1]
L0,0,7,7

[Ornament2]
L0,0,5,5

[Ornament3]
L0,0,5,5,10,10

[Ornament4]
L0

[Ornament5]
L0

[Ornament6]
L0

[Ornament7]
L0

[Ornament8]
L0

[Ornament9]
L0

[Ornament10]
L0

[Ornament11]
L0

[Ornament12]
L0

[Ornament13]
L0

[Ornament14]
L0

[Ornament15]
L0

[Sample1]
tne +000_ +00_ 0_ L

[Sample2]
TnE +000_ +00_ F_ L

[Sample3]
TNe +000_ +00_ F_
Tne +001_ +00_ F_
Tne +001_ +00_ E_
Tne +002_ +00_ E_
Tne +000_ +00_ E_ L
Tne -001_ +00_ E_
Tne -001_ +00_ E_
Tne -001_ +00_ E_
Tne +000_ +00_ E_
Tne +001_ +00_ E_
Tne +001_ +00_ E_
Tne +001_ +00_ E_

[Sample4]
TnE +002_ +00_ D_
TnE +000_ +00_ D_
TnE +000_ +00_ C_
TnE +000_ +00_ B_
TnE +000_ +00_ A_ L
TnE +000_ +00_ A_
TnE +000_ +00_ A_
TnE +000_ +00_ A_
TnE +000_ +00_ A_
TnE +000_ +00_ A_
TnE +000_ +00_ A_
TnE +000_ +00_ A_

[Sample5]
TNe +000_ +00_ D_
TNe +000_ +00_ F_
Tne +000_ +00_ E_
Tne +002_ +00_ E_
Tne +000_ +00_ E_ L
Tne -001_ +00_ E_
Tne -001_ +00_ E_
Tne -001_ +00_ E_
Tne +000_ +00_ E_
Tne +001_ +00_ E_
Tne +001_ +00_ E_
Tne +001_ +00_ E_

[Sample6]
tne +000_ +00_ 0_ L

[Sample7]
tne +000_ +00_ 0_ L

[Sample8]
tne +000_ +00_ 0_ L

[Sample9]
tne +000_ +00_ 0_ L

[Sample10]
Tne +1C0_ +00_ F_
Tne +280_ +00_ E_
Tne +380_ +00_ C_
Tne +440_ +00_ A_
Tne +480_ +00_ 8_
TnE +000_ +00_ 0_ L

[Sample11]
tne +000_ +00_ 0_ L

[Sample12]
tne +000_ +00_ 0_ L

[Sample13]
tne +000_ +00_ 0_ L

[Sample14]
tne +000_ +00_ 0_ L

[Sample15]
tne +000_ +00_ 0_ L

[Sample16]
tne +000_ +00_ 0_ L

[Sample17]
tne +000_ +00_ 0_ L

[Sample18]
tne +000_ +00_ 0_ L

[Sample19]
tne +000_ +00_ 0_ L

[Sample20]
tne +000_ +00_ 0_ L

[Sample21]
tNE +000_ +00_ D_
tNE +000_ +00_ 8_
tNE +000_ +00_ 1_
TNE +000_ +00_ 0_ L

[Sample22]
tne +000_ +00_ 0_ L

[Sample23]
tne +000_ +00_ 0_ L

[Sample24]
tne +000_ +00_ 0_ L

[Sample25]
tne +000_ +00_ 0_ L

[Sample26]
tne +000_ +00_ 0_ L

[Sample27]
TnE +100_ +05_ F_
TnE +200_ +02_ A_
TnE +300_ +02_ 7_
TNE +400_ +00_ 3- L

[Sample28]
tne +000_ +00_ 0_ L

[Sample29]
tne +000_ +00_ 0_ L

[Sample30]
tne +000_ +00_ 0_ L

[Sample31]
TNe +1C0_ +00_ F_
Tne +280_ +00_ E_
Tne +380_ +00_ C_
Tne +440_ +00_ A_
Tne +480_ +00_ 8_
TnE +000_ +00_ 0_ L

[Pattern0]
....|..|--- .... ....|B-4 3F.F ....|B-3 4F.F ....
....|..|--- .... ....|--- .... ....|--- .... ....
....|..|--- .... ....|--- .... ....|--- .... ....
....|..|--- .... ....|--- .... ....|--- .... ....
....|..|--- .... ....|--- .... ....|--- .... ....
....|..|--- .... ....|--- .... ....|--- .... ....
....|..|--- .... ....|--- .... ....|--- .... ....
....|..|--- .... ....|--- .... ....|--- .... ....
....|..|--- .... ....|--- .... ....|--- .... ....
....|..|--- .... ....|--- .... ....|--- .... ....
....|..|--- .... ....|--- .... ....|--- .... ....
....|..|--- .... ....|--- .... ....|--- .... ....
....|..|--- .... ....|A#5 .... ....|B-3 ...A ....
....|..|--- .... ....|--- .... ....|--- .... ....
....|..|--- .... ....|--- .... ....|--- .... ....
....|..|--- .... ....|--- .... ....|--- .... ....
....|..|--- .... ....|B-5 .... ....|--- .... ....
....|..|--- .... ....|--- .... ....|--- .... ....
....|..|--- .... ....|--- .... ....|--- .... ....
....|..|--- .... ....|--- .... ....|--- .... ....
....|..|--- .... ....|A#5 .... ....|--- .... ....
....|..|--- .... ....|--- .... ....|--- .... ....
....|..|--- .... ....|--- .... ....|--- .... ....
....|..|--- .... ....|--- .... ....|--- .... ....
....|..|--- .... ....|B-5 .... ....|B-3 ...7 ....
....|..|--- .... ....|--- .... ....|--- .... ....
....|..|--- .... ....|--- .... ....|--- .... ....
....|..|--- .... ....|--- .... ....|--- .... ....
....|..|--- .... ....|A#5 .... ....|--- .... ....
....|..|--- .... ....|--- .... ....|--- .... ....
....|..|--- .... ....|--- .... ....|--- .... ....
....|..|--- .... ....|--- .... ....|--- .... ....
....|..|--- .... ....|D-5 .... ....|--- .... ....
....|..|--- .... ....|--- .... ....|--- .... ....
....|..|--- .... ....|--- .... ....|--- .... ....
....|..|--- .... ....|--- .... ....|--- .... ....
....|..|--- .... ....|A#5 ...7 ....|--- .... ....
....|..|--- .... ....|--- .... ....|--- .... ....
....|..|--- .... ....|--- .... ....|--- .... ....
....|..|--- .... ....|--- .... ....|--- .... ....
....|..|--- .... ....|B-5 .... ....|--- .... ....
....|..|--- .... ....|--- .... ....|--- .... ....
....|..|--- .... ....|--- .... ....|--- .... ....
....|..|--- .... ....|--- .... ....|--- .... ....
....|..|--- .... ....|C#5 ...F ....|--- .... ....
....|..|--- .... ....|--- .... ....|--- .... ....
....|..|--- .... ....|--- .... ....|--- .... ....
....|..|--- .... ....|--- .... ....|--- .... ....
....|..|--- .... ....|D-5 .... ....|--- .... ....
....|..|--- .... ....|--- .... ....|--- .... ....
....|..|--- .... ....|--- .... ....|--- .... ....
....|..|--- .... ....|--- .... ....|--- .... ....
....|..|--- .... ....|C#5 .... ....|--- .... ....
....|..|--- .... ....|--- .... ....|--- .... ....
....|..|--- .... ....|--- .... ....|--- .... ....
....|..|--- .... ....|--- .... ....|--- .... ....
....|..|--- .... ....|D-5 .... ....|--- .... ....
....|..|--- .... ....|--- .... ....|--- .... ....
....|..|--- .... ....|--- .... ....|--- .... ....
....|..|--- .... ....|--- .... ....|--- .... ....
....|..|--- .... ....|F#5 .... ....|--- .... ....
....|..|--- .... ....|--- .... ....|--- .... ....
....|..|--- .... ....|--- .... ....|--- .... ....
....|..|--- .... ....|--- .... ....|--- .... ....

[Pattern1]
....|..|--- .... ....|B-4 3F.F ....|D-4 4F.F ....
....|..|--- .... ....|--- .... ....|--- .... ....
....|..|--- .... ....|--- .... ....|--- .... ....
....|..|--- .... ....|--- .... ....|--- .... ....
....|..|--- .... ....|C#5 ...7 ....|--- .... ....
....|..|--- .... ....|--- .... ....|--- .... ....
....|..|--- .... ....|--- .... ....|--- .... ....
....|..|--- .... ....|--- .... ....|--- .... ....
....|..|--- .... ....|D-5 .... ....|--- .... ....
....|..|--- .... ....|--- .... ....|--- .... ....
....|..|--- .... ....|--- .... ....|--- .... ....
....|..|--- .... ....|--- .... ....|--- .... ....
....|..|--- .... ....|A#5 ...F ....|D-4 ...A ....
....|..|--- .... ....|--- .... ....|--- .... ....
....|..|--- .... ....|--- .... ....|--- .... ....
....|..|--- .... ....|--- .... ....|--- .... ....
....|..|--- .... ....|B-5 .... ....|--- .... ....
....|..|--- .... ....|--- .... ....|--- .... ....
....|..|--- .... ....|--- .... ....|--- .... ....
....|..|--- .... ....|--- .... ....|--- .... ....
....|..|--- .... ....|A#5 .... ....|--- .... ....
....|..|--- .... ....|--- .... ....|--- .... ....
....|..|--- .... ....|--- .... ....|--- .... ....
....|..|--- .... ....|--- .... ....|--- .... ....
....|..|--- .... ....|B-5 .... ....|D-4 ...7 ....
....|..|--- .... ....|--- .... ....|--- .... ....
....|..|--- .... ....|--- .... ....|--- .... ....
....|..|--- .... ....|--- .... ....|--- .... ....
....|..|--- .... ....|A#5 .... ....|--- .... ....
....|..|--- .... ....|--- .... ....|--- .... ....
....|..|--- .... ....|--- .... ....|--- .... ....
....|..|--- .... ....|--- .... ....|--- .... ....
....|..|--- .... ....|D-5 .... ....|R-- .... ....
....|..|--- .... ....|--- .... ....|--- .... ....
....|..|--- .... ....|--- .... ....|--- .... ....
....|..|--- .... ....|--- .... ....|--- .... ....
....|..|--- .... ....|A#5 ...7 ....|--- .... ....
....|..|--- .... ....|--- .... ....|--- .... ....
....|..|--- .... ....|--- .... ....|--- .... ....
....|..|--- .... ....|--- .... ....|--- .... ....
....|..|--- .... ....|B-5 .... ....|--- .... ....
....|..|--- .... ....|--- .... ....|--- .... ....
....|..|--- .... ....|--- .... ....|--- .... ....
....|..|--- .... ....|--- .... ....|--- .... ....
....|..|--- .... ....|A#5 ...F ....|R-- .... ....
....|..|--- .... ....|--- .... ....|--- .... ....
....|..|--- .... ....|--- .... ....|--- .... ....
....|..|--- .... ....|--- .... ....|--- .... ....
....|..|--- .... ....|B-5 .... ....|--- .... ....
....|..|--- .... ....|--- .... ....|--- .... ....
....|..|--- .... ....|A#5 .... ....|--- .... ....
....|..|--- .... ....|--- .... ....|--- .... ....
....|..|--- .... ....|B-5 .... ....|--- .... ....
....|..|--- .... ....|--- .... ....|--- .... ....
....|..|--- .... ....|--- .... ....|--- .... ....
....|..|--- .... ....|--- .... ....|--- .... ....
....|..|C-5 VF.F ....|D-5 ...7 ....|A-3 ..1F ....
 A-3|..|A-1 2A.. ....|--- .... ....|--- .... ....
....|..|--- .... ....|--- .... ....|--- .... ....
....|..|--- .... ....|--- .... ....|--- .... ....
....|..|--- .... ....|B-5 ...A ....|--- .... ....
....|..|--- .... ....|--- .... ....|--- .... ....
....|..|--- .... ....|A#5 .... ....|--- .... ....
....|..|--- .... ....|--- .... ....|--- .... ....

[Pattern2]
....|..|C-4 AF.F ....|B-4 3F.F ....|B-3 4F1F ....
 B-3|..|B-1 2A.. ....|--- .... ....|--- .... ....
....|..|--- .... ....|--- .... ....|--- .... ....
....|..|--- .... ....|--- .... ....|--- .... ....
 B-3|..|B-1 .A.. ....|A#5 ...7 ....|B-3 .... ....
....|..|A-1 .F.A ....|--- .... ....|--- .... ....
....|..|C-4 A..F ....|--- .... ....|B-3 .... ....
 B-3|..|B-1 2A.. ....|--- .... ....|--- .... ....
....|..|C-5 VF.. ....|B-5 .... ....|--- .... ....
....|..|--- .... ....|--- .... ....|--- .... ....
 B-3|..|B-1 2A.. ....|A#5 .... ....|B-3 .... ....
....|..|--- .... ....|--- .... ....|--- .... ....
....|..|C-4 AF.. ....|A#5 ...F ....|B-3 .... ....
 B-3|..|B-1 2A.. ....|--- .... ....|--- .... ....
....|..|R-- .... ....|--- .... ....|--- .... ....
....|..|--- .... ....|--- .... ....|--- .... ....
....|..|C-3 RF.. ....|B-5 .... ....|B-3 .... ....
 B-3|..|B-1 2A.. ....|--- .... ....|--- .... ....
....|..|C-3 RF.. ....|--- .... ....|B-3 ...A ....
....|..|B-1 2..A ....|--- .... ....|--- .... ....
....|..|C-4 A..F ....|A#5 .... ....|B-3 ...F ....
 B-3|..|B-1 2A.. ....|--- .... ....|--- .... ....
....|..|B-1 .F.A ....|--- .... ....|B-3 ...A ....
....|..|--- .... ....|--- .... ....|--- .... ....
....|..|C-5 V..F ....|B-5 .... ....|B-3 ...F ....
 B-3|..|B-1 2A.. ....|--- .... ....|--- .... ....
 B-3|..|B-1 .A.. ....|--- .... ....|B-3 .... ....
....|..|--- .... ....|--- .... ....|--- .... ....
....|..|C-4 AF.. ....|A#5 .... ....|B-3 ...7 ....
....|..|B-1 2..A ....|--- .... ....|--- .... ....
 B-3|..|B-1 .A.F ....|--- .... ....|B-3 ...F ....
....|..|B-1 .F.7 ....|--- .... ....|--- .... ....
....|..|C-4 A..F ....|D-5 .... ....|B-3 .... ....
 B-3|..|B-1 2A.. ....|--- .... ....|--- .... ....
....|..|B-1 .F.7 ....|--- .... ....|B-3 ...7 ....
....|..|--- .... ....|--- .... ....|--- .... ....
 B-3|..|B-1 .A.F ....|A#5 ...7 ....|B-3 ...F ....
....|..|B-1 .F.7 ....|--- .... ....|--- .... ....
....|..|C-4 A..F ....|--- .... ....|B-3 .... ....
 B-3|..|B-1 2A.. ....|--- .... ....|--- .... ....
....|..|C-5 VF.. ....|B-5 .... ....|B-3 ...7 ....
....|..|B-1 2..7 ....|--- .... ....|--- .... ....
 B-3|..|B-1 .A.F ....|--- .... ....|B-3 ...F ....
....|..|--- .... ....|--- .... ....|--- .... ....
....|..|C-4 AF.. ....|C#5 ...F ....|B-3 .... ....
 B-3|..|B-1 2A.. ....|--- .... ....|--- .... ....
....|..|R-- .... ....|--- .... ....|B-3 .... ....
....|..|--- .... ....|--- .... ....|--- .... ....
....|..|C-3 RF.. ....|D-5 .... ....|B-3 ...7 ....
 B-3|..|B-1 2A.. ....|--- .... ....|--- .... ....
....|..|C-3 RF.. ....|--- .... ....|B-3 ...F ....
 B-3|..|B-1 2A.. ....|--- .... ....|--- .... ....
....|..|C-4 AF.. ....|C#5 .... ....|--- .... ....
....|..|--- .... ....|--- .... ....|--- .... ....
 B-3|..|B-1 2A.. ....|--- .... ....|B-3 .... ....
....|..|--- .... ....|--- .... ....|--- .... ....
....|..|C-5 VF.. ....|D-5 .... ....|B-3 .... ....
 B-3|..|B-1 2A.. ....|--- .... ....|--- .... ....
....|..|R-- .... ....|--- .... ....|B-3 ...A ....
....|..|--- .... ....|--- .... ....|--- .... ....
....|..|C-4 AF.. ....|F#5 .... ....|B-3 .F.F ....
 B-3|..|B-1 2A.. ....|--- .... ....|--- .... ....
....|..|C-4 AF.7 ....|--- .... ....|B-3 ..17 ....
....|..|B-1 2... ....|--- .... ....|--- .... ....

[Pattern3]
....|..|C-4 AF.F ....|B-4 3F.F ....|G-3 4F1F ....
 G-3|..|G-1 2A.. ....|--- .... ....|--- .... ....
....|..|B-1 .F.7 ....|--- .... ....|B-3 ...7 ....
....|..|--- .... ....|--- .... ....|--- .... ....
 G-3|..|G-1 .A.F ....|C#5 ...7 ....|A-3 ..2F ....
....|..|B-1 .F.7 ....|--- .... ....|--- .... ....
....|..|C-4 A..F ....|--- .... ....|G-3 ..1. ....
 G-3|..|G-1 2A.. ....|--- .... ....|--- .... ....
....|..|C-5 VF.. ....|D-5 .... ....|B-3 .F.A ....
....|..|B-1 2..7 ....|--- .... ....|--- .... ....
 G-3|..|G-1 .A.F ....|--- .... ....|G-3 ..1F ....
....|..|B-1 .F.7 ....|--- .... ....|--- .... ....
....|..|C-4 A..F ....|A#5 ...F ....|G-3 .... ....
 G-3|..|G-1 2A.. ....|--- .... ....|--- .... ....
....|..|B-1 .F.7 ....|--- .... ....|B-3 ...7 ....
....|..|--- .... ....|--- .... ....|--- .... ....
....|..|C-3 R..F ....|B-5 .... ....|G-3 ...F ....
 G-3|..|G-1 2A.. ....|--- .... ....|--- .... ....
....|..|C-3 RF.. ....|--- .... ....|G-3 .... ....
 G-3|..|G-1 2A.. ....|--- .... ....|--- .... ....
....|..|C-4 AF.. ....|A#5 .... ....|B-3 .F.7 ....
....|..|B-1 2..7 ....|--- .... ....|--- .... ....
 G-3|..|G-1 .A.F ....|--- .... ....|G-3 ..1F ....
....|..|--- .... ....|--- .... ....|--- .... ....
....|..|C-5 VF.. ....|B-5 .... ....|G-3 .... ....
 G-3|..|G-1 2A.. ....|--- .... ....|--- .... ....
....|..|R-- .... ....|--- .... ....|--- .... ....
....|..|--- .... ....|--- .... ....|--- .... ....
....|..|C-4 AF.. ....|A#5 .... ....|G-3 .F.. ....
 G-3|..|G-1 2A.. ....|--- .... ....|--- .... ....
....|..|C-4 AF.7 ....|--- .... ....|G-3 ..17 ....
....|..|G-1 2... ....|--- .... ....|--- .... ....
....|..|C-4 A..F ....|D-5 .... ....|A-3 ...F ....
 A-3|..|A-1 2A.. ....|--- .... ....|--- .... ....
....|..|G-1 .F.7 ....|--- .... ....|G-3 ...7 ....
....|..|--- .... ....|--- .... ....|--- .... ....
....|..|C-4 A..F ....|A#5 ...7 ....|A-3 ...F ....
 A-3|..|A-1 2A.. ....|--- .... ....|--- .... ....
 A-3|..|A-1 .A.. ....|--- .... ....|A-3 .... ....
....|..|--- .... ....|--- .... ....|--- .... ....
....|..|C-5 VF.. ....|B-5 .... ....|G-3 ...7 ....
....|..|G-1 2..7 ....|--- .... ....|--- .... ....
 A-3|..|A-1 .A.F ....|--- .... ....|A-3 ...F ....
....|..|G-1 .F.7 ....|--- .... ....|--- .... ....
....|..|C-4 A..F ....|C#5 ...F ....|A-3 .... ....
 A-3|..|A-1 2A.. ....|--- .... ....|--- .... ....
....|..|G-1 .F.7 ....|--- .... ....|G-3 ...7 ....
....|..|--- .... ....|--- .... ....|--- .... ....
....|..|C-5 V... ....|B-5 ...7 ....|A-3 ..3F ....
....|..|G-1 2... ....|--- .... ....|--- .... ....
....|..|A-1 ...A ....|--- .... ....|E-3 .... ....
....|..|--- .... ....|--- .... ....|--- .... ....
....|..|C-4 A..7 ....|A#5 .... ....|A-3 .... ....
....|..|G-1 2... ....|--- .... ....|--- .... ....
....|..|A-1 ...A ....|--- .... ....|E-3 .... ....
....|..|--- .... ....|--- .... ....|--- .... ....
....|..|C-4 A..7 ....|D-5 .... ....|E-3 .F.. ....
....|..|A-1 2... ....|--- .... ....|--- .... ....
....|..|--- .... ....|--- .... ....|--- .... ....
....|..|--- .... ....|--- .... ....|--- .... ....
....|..|C-4 A... ....|R-- .... ....|A-2 .... ....
....|..|A-1 2... ....|--- .... ....|--- .... ....
....|..|A-1 .... ....|--- .... ....|A-3 ..17 ....
....|..|--- .... ....|--- .... ....|--- .... ....

[Pattern4]
....|..|C-4 AF.F ....|B-4 3F.F ....|E-3 4F1F ....
 E-3|..|E-1 2A.. ....|--- .... ....|--- .... ....
....|..|A-1 .F.7 ....|--- .... ....|A-3 ...7 ....
....|..|--- .... ....|--- .... ....|--- .... ....
 E-3|..|E-1 .A.F ....|C#5 ...7 ....|E-3 ...F ....
....|..|A-1 .F.7 ....|--- .... ....|--- .... ....
....|..|C-4 A..F ....|--- .... ....|E-3 .... ....
 E-3|..|E-1 2A.. ....|--- .... ....|--- .... ....
....|..|C-5 VF.. ....|R-- .... ....|A-3 ..37 ....
....|..|--- .... ....|--- .... ....|--- .... ....
 E-3|..|E-1 2A.. ....|--- .... ....|E-3 ..1F ....
....|..|--- .... ....|--- .... ....|--- .... ....
....|..|C-4 AF.. ....|A#5 ...F ....|E-3 .... ....
 E-3|..|E-1 2A.. ....|--- .... ....|--- .... ....
....|..|R-- .... ....|--- .... ....|E-3 ..37 ....
....|..|--- .... ....|--- .... ....|--- .... ....
....|..|C-3 RF.. ....|B-5 .... ....|E-3 ..1F ....
 E-3|..|E-1 2A.. ....|--- .... ....|--- .... ....
....|..|C-3 RF.. ....|--- .... ....|E-3 ...A ....
....|..|E-1 2..A ....|--- .... ....|--- .... ....
....|..|C-4 A..F ....|A#5 .... ....|E-3 ...F ....
 E-3|..|E-1 2A.. ....|--- .... ....|--- .... ....
....|..|E-1 .F.A ....|--- .... ....|E-3 ...A ....
....|..|--- .... ....|--- .... ....|--- .... ....
....|..|C-5 V..F ....|B-5 .... ....|E-3 ...F ....
 E-3|..|E-1 2A.. ....|--- .... ....|--- .... ....
 E-3|..|E-1 .A.. ....|--- .... ....|E-3 .... ....
....|..|--- .... ....|--- .... ....|--- .... ....
....|..|C-4 AF.. ....|A#5 .... ....|E-3 ...7 ....
....|..|E-1 2..A ....|--- .... ....|--- .... ....
 E-3|..|E-1 .A.F ....|--- .... ....|E-3 ...F ....
....|..|E-1 .F.7 ....|--- .... ....|--- .... ....
....|..|C-4 A..F ....|D-5 .... ....|E-3 .... ....
 E-3|..|E-1 2A.. ....|--- .... ....|--- .... ....
....|..|E-1 .F.7 ....|--- .... ....|E-3 ...7 ....
....|..|--- .... ....|--- .... ....|--- .... ....
 E-3|..|E-1 .A.F ....|A#5 ...7 ....|E-3 ...F ....
....|..|E-1 .F.7 ....|--- .... ....|--- .... ....
....|..|C-4 A..F ....|--- .... ....|E-3 .... ....
 E-3|..|E-1 2A.. ....|--- .... ....|--- .... ....
....|..|C-5 VF.. ....|B-5 .... ....|E-3 ...7 ....
....|..|E-1 2..7 ....|--- .... ....|--- .... ....
 E-3|..|E-1 .A.F ....|--- .... ....|E-3 ...F ....
....|..|--- .... ....|--- .... ....|--- .... ....
....|..|C-4 AF.. ....|C#5 ...F ....|E-3 .... ....
 E-3|..|E-1 2A.. ....|--- .... ....|--- .... ....
....|..|R-- .... ....|--- .... ....|--- .... ....
....|..|--- .... ....|--- .... ....|--- .... ....
....|..|C-3 RF.. ....|D-5 .... ....|E-3 .... ....
 E-3|..|E-1 2A.. ....|--- .... ....|--- .... ....
....|..|C-3 RF.. ....|--- .... ....|E-3 ...7 ....
....|..|E-1 2..A ....|--- .... ....|--- .... ....
....|..|C-4 A..F ....|C#5 .... ....|E-3 ...F ....
 E-3|..|E-1 2A.. ....|--- .... ....|--- .... ....
....|..|E-1 .F.7 ....|--- .... ....|E-3 ...7 ....
....|..|--- .... ....|--- .... ....|--- .... ....
....|..|C-5 V..F ....|D-5 .... ....|E-3 ...F ....
 E-3|..|E-1 2A.. ....|--- .... ....|--- .... ....
 E-3|..|E-1 .A.. ....|--- .... ....|E-3 .... ....
....|..|--- .... ....|--- .... ....|--- .... ....
....|..|C-4 AF.. ....|F#5 .... ....|E-3 ...7 ....
....|..|E-1 2..A ....|--- .... ....|--- .... ....
 E-3|..|E-1 .A.F ....|--- .... ....|E-3 ...F ....
....|..|E-1 .F.7 ....|--- .... ....|--- .... ....

[Pattern5]
....|..|C-4 AF.F ....|B-4 3F.F ....|G-3 4F1F ....
 G-3|..|G-1 2A.. ....|--- .... ....|--- .... ....
....|..|E-1 .F.7 ....|--- .... ....|E-3 ...7 ....
....|..|--- .... ....|--- .... ....|--- .... ....
 G-3|..|G-1 .A.F ....|C#5 ...7 ....|G-3 ...F ....
....|..|E-1 .F.7 ....|--- .... ....|--- .... ....
....|..|C-4 A..F ....|--- .... ....|G-3 .... ....
 G-3|..|G-1 2A.. ....|--- .... ....|--- .... ....
....|..|C-5 VF.. ....|D-5 .... ....|E-3 ...7 ....
....|..|E-1 2..7 ....|--- .... ....|--- .... ....
 G-3|..|G-1 .A.F ....|--- .... ....|G-3 ...F ....
....|..|--- .... ....|--- .... ....|--- .... ....
....|..|C-4 AF.. ....|A#5 ...F ....|G-3 .... ....
 G-3|..|G-1 2A.. ....|--- .... ....|--- .... ....
....|..|R-- .... ....|--- .... ....|--- .... ....
....|..|--- .... ....|--- .... ....|--- .... ....
....|..|C-3 RF.. ....|B-5 .... ....|G-3 .... ....
 G-3|..|G-1 2A.. ....|--- .... ....|--- .... ....
....|..|C-3 RF.. ....|--- .... ....|E-3 ...7 ....
....|..|G-1 2..A ....|--- .... ....|--- .... ....
....|..|C-4 A..F ....|A#5 .... ....|G-3 ...F ....
 G-3|..|G-1 2A.. ....|--- .... ....|--- .... ....
....|..|E-1 .F.7 ....|--- .... ....|E-3 ...7 ....
....|..|--- .... ....|--- .... ....|--- .... ....
....|..|C-5 V..F ....|B-5 .... ....|G-3 ...F ....
 G-3|..|G-1 2A.. ....|--- .... ....|--- .... ....
 G-3|..|G-1 .A.. ....|--- .... ....|G-3 .... ....
....|..|--- .... ....|--- .... ....|--- .... ....
....|..|C-4 AF.. ....|A#5 .... ....|G-3 ...7 ....
....|..|G-1 2..A ....|--- .... ....|--- .... ....
 G-3|..|G-1 .A.F ....|--- .... ....|G-3 ...F ....
....|..|G-1 .F.7 ....|--- .... ....|--- .... ....
....|..|C-4 A..F ....|D-5 .... ....|A-3 .... ....
 A-3|..|A-1 2A.. ....|--- .... ....|--- .... ....
....|..|G-1 .F.7 ....|--- .... ....|G-3 ...7 ....
....|..|--- .... ....|--- .... ....|--- .... ....
....|..|C-4 A..F ....|A#5 ...7 ....|A-3 ...F ....
 A-3|..|A-1 2A.. ....|--- .... ....|--- .... ....
 A-3|..|A-1 .A.. ....|--- .... ....|A-3 .... ....
....|..|--- .... ....|--- .... ....|--- .... ....
....|..|C-5 VF.. ....|B-5 .... ....|G-3 ...7 ....
....|..|G-1 2..7 ....|--- .... ....|--- .... ....
 A-3|..|A-1 .A.F ....|--- .... ....|A-3 ...F ....
....|..|--- .... ....|--- .... ....|--- .... ....
....|..|C-4 AF.. ....|C#5 ...F ....|A-3 .... ....
 A-3|..|A-1 2A.. ....|--- .... ....|--- .... ....
....|..|C-5 VF.. ....|--- .... ....|--- .... ....
....|..|--- .... ....|--- .... ....|--- .... ....
....|..|C-5 .... ....|D-5 .... ....|A-3 .... ....
 A-3|..|A-1 2A.. ....|--- .... ....|--- .... ....
....|..|C-5 VF.. ....|--- .... ....|G-3 ...7 ....
....|..|--- .... ....|--- .... ....|--- .... ....
....|..|C-4 A... ....|C#5 .... ....|A-3 ...F ....
 A-3|..|A-1 2A.. ....|--- .... ....|--- .... ....
....|..|G-1 .F.7 ....|--- .... ....|G-3 ...7 ....
....|..|--- .... ....|--- .... ....|--- .... ....
....|..|C-5 V..F ....|D-5 .... ....|A-3 ...F ....
 A-3|..|A-1 2A.. ....|--- .... ....|--- .... ....
 A-3|..|A-1 .A.. ....|--- .... ....|A-3 .... ....
....|..|--- .... ....|--- .... ....|--- .... ....
....|..|C-5 VF.. ....|F#5 .... ....|A-3 ...7 ....
....|..|A-1 2..7 ....|--- .... ....|--- .... ....
 A-3|..|A-1 .A.F ....|--- .... ....|A-3 ...F ....
....|..|--- .... ....|--- .... ....|--- .... ....

[Pattern6]
....|..|C-4 AF.F ....|B-4 3F.F ....|B-3 4F1F ....
 B-3|..|B-1 2A.. ....|--- .... ....|--- .... ....
....|..|A-1 .F.7 ....|--- .... ....|A-3 ...7 ....
....|..|--- .... ....|--- .... ....|--- .... ....
 B-3|..|B-1 .A.F ....|C#5 ...7 ....|B-3 ...F ....
....|..|A-1 .F.7 ....|--- .... ....|--- .... ....
....|..|C-4 A..F ....|--- .... ....|B-3 .... ....
 B-3|..|B-1 2A.. ....|--- .... ....|--- .... ....
....|..|C-5 VF.. ....|D-5 .... ....|A-3 ...7 ....
....|..|A-1 2..7 ....|--- .... ....|--- .... ....
 B-3|..|B-1 .A.F ....|--- .... ....|B-3 ...F ....
....|..|--- .... ....|--- .... ....|--- .... ....
....|..|C-4 AF.. ....|A#5 ...F ....|B-3 .... ....
 B-3|..|B-1 2A.. ....|--- .... ....|--- .... ....
....|..|R-- .... ....|--- .... ....|--- .... ....
....|..|--- .... ....|--- .... ....|--- .... ....
....|..|C-3 RF.. ....|B-5 .... ....|B-3 .... ....
 B-3|..|B-1 2A.. ....|--- .... ....|--- .... ....
....|..|C-3 RF.. ....|--- .... ....|A-3 ...7 ....
....|..|B-1 2..A ....|--- .... ....|--- .... ....
....|..|C-4 A..F ....|A#5 .... ....|B-3 ...F ....
 B-3|..|B-1 2A.. ....|--- .... ....|--- .... ....
....|..|A-1 .F.7 ....|--- .... ....|A-3 ...7 ....
....|..|--- .... ....|--- .... ....|--- .... ....
....|..|C-5 V..F ....|B-5 .... ....|B-3 ...F ....
 B-3|..|B-1 2A.. ....|--- .... ....|--- .... ....
 B-3|..|B-1 .A.. ....|--- .... ....|B-3 .... ....
....|..|--- .... ....|--- .... ....|--- .... ....
....|..|C-4 AF.. ....|A#5 .... ....|B-3 ...7 ....
....|..|B-1 2..A ....|--- .... ....|--- .... ....
 B-3|..|B-1 .A.F ....|--- .... ....|B-3 ...F ....
....|..|B-1 .F.7 ....|--- .... ....|--- .... ....
....|..|C-4 A..F ....|D-5 .... ....|B-3 .... ....
 B-3|..|B-1 2A.. ....|--- .... ....|--- .... ....
....|..|B-1 .F.7 ....|--- .... ....|B-3 ...7 ....
....|..|--- .... ....|--- .... ....|--- .... ....
 B-3|..|B-1 .A.F ....|A#5 ...7 ....|B-3 ...F ....
....|..|B-1 .F.7 ....|--- .... ....|--- .... ....
....|..|C-4 A..F ....|--- .... ....|B-3 .... ....
 B-3|..|B-1 2A.. ....|--- .... ....|--- .... ....
....|..|C-5 VF.. ....|B-5 .... ....|B-3 ...7 ....
....|..|B-1 2..7 ....|--- .... ....|--- .... ....
 B-3|..|B-1 .A.F ....|--- .... ....|B-3 ...F ....
....|..|--- .... ....|--- .... ....|--- .... ....
....|..|C-4 AF.. ....|C#5 ...F ....|B-3 .... ....
 B-3|..|B-1 2A.. ....|--- .... ....|--- .... ....
....|..|R-- .... ....|--- .... ....|B-3 .... ....
....|..|--- .... ....|--- .... ....|--- .... ....
....|..|C-3 RF.. ....|D-5 .... ....|B-3 ...7 ....
 B-3|..|B-1 2A.. ....|--- .... ....|--- .... ....
....|..|C-3 RF.. ....|--- .... ....|B-3 ...F ....
 B-3|..|B-1 2A.. ....|--- .... ....|--- .... ....
....|..|C-4 AF.. ....|C#5 .... ....|--- .... ....
....|..|--- .... ....|--- .... ....|--- .... ....
 B-3|..|B-1 2A.. ....|--- .... ....|B-3 .... ....
....|..|--- .... ....|--- .... ....|--- .... ....
....|..|C-5 VF.. ....|D-5 .... ....|B-3 .... ....
 B-3|..|B-1 2A.. ....|--- .... ....|--- .... ....
....|..|R-- .... ....|--- .... ....|B-3 ...A ....
....|..|--- .... ....|--- .... ....|--- .... ....
....|..|C-4 AF.. ....|F#5 .... ....|B-3 .F.F ....
 B-3|..|B-1 2A.. ....|--- .... ....|--- .... ....
....|..|C-4 AF.7 ....|--- .... ....|B-3 ..17 ....
....|..|B-1 2... ....|--- .... ....|--- .... ....

[Pattern7]
....|..|C-4 AF.F ....|B-4 3F.F ....|G-3 4F1F ....
 G-3|..|G-1 2A.. ....|--- .... ....|--- .... ....
....|..|B-1 .F.7 ....|--- .... ....|B-3 ...7 ....
....|..|--- .... ....|--- .... ....|--- .... ....
 G-3|..|G-1 .A.F ....|C#5 ...7 ....|A-3 ..2F ....
....|..|B-1 .F.7 ....|--- .... ....|--- .... ....
....|..|C-4 A..F ....|--- .... ....|G-3 ..1. ....
 G-3|..|G-1 2A.. ....|--- .... ....|--- .... ....
....|..|C-5 VF.. ....|D-5 .... ....|B-3 .F.A ....
....|..|B-1 2..7 ....|--- .... ....|--- .... ....
 G-3|..|G-1 .A.F ....|--- .... ....|G-3 ..1F ....
....|..|B-1 .F.7 ....|--- .... ....|--- .... ....
....|..|C-4 A..F ....|A#5 ...F ....|G-3 .... ....
 G-3|..|G-1 2A.. ....|--- .... ....|--- .... ....
....|..|B-1 .F.7 ....|--- .... ....|B-3 ...7 ....
....|..|--- .... ....|--- .... ....|--- .... ....
....|..|C-3 R..F ....|B-5 .... ....|G-3 ...F ....
 G-3|..|G-1 2A.. ....|--- .... ....|--- .... ....
....|..|C-3 RF.. ....|--- .... ....|G-3 .... ....
 G-3|..|G-1 2A.. ....|--- .... ....|--- .... ....
....|..|C-4 AF.. ....|A#5 .... ....|B-3 .F.7 ....
....|..|B-1 2..7 ....|--- .... ....|--- .... ....
 G-3|..|G-1 .A.F ....|--- .... ....|G-3 ..1F ....
....|..|--- .... ....|--- .... ....|--- .... ....
....|..|C-5 VF.. ....|B-5 .... ....|G-3 .... ....
 G-3|..|G-1 2A.. ....|--- .... ....|--- .... ....
....|..|R-- .... ....|--- .... ....|--- .... ....
....|..|--- .... ....|--- .... ....|--- .... ....
....|..|C-4 AF.. ....|A#5 .... ....|G-3 .F.. ....
 G-3|..|G-1 2A.. ....|--- .... ....|--- .... ....
....|..|C-4 AF.7 ....|--- .... ....|G-3 ..17 ....
....|..|G-1 2... ....|--- .... ....|--- .... ....
....|..|C-4 A..F ....|D-5 .... ....|A-3 ...F ....
 A-3|..|A-1 2A.. ....|--- .... ....|--- .... ....
....|..|G-1 .F.7 ....|--- .... ....|G-3 ...7 ....
....|..|--- .... ....|--- .... ....|--- .... ....
....|..|C-4 A..F ....|A#5 ...7 ....|A-3 ...F ....
 A-3|..|A-1 2A.. ....|--- .... ....|--- .... ....
 A-3|..|A-1 .A.. ....|--- .... ....|A-3 .... ....
....|..|--- .... ....|--- .... ....|--- .... ....
....|..|C-5 VF.. ....|B-5 .... ....|G-3 ...7 ....
....|..|G-1 2..7 ....|--- .... ....|--- .... ....
 A-3|..|A-1 .A.F ....|--- .... ....|A-3 ...F ....
....|..|G-1 .F.7 ....|--- .... ....|--- .... ....
....|..|C-4 A..F ....|A#5 ...F ....|A-3 .... ....
 A-3|..|A-1 2A.. ....|--- .... ....|--- .... ....
....|..|G-1 .F.7 ....|--- .... ....|G-3 ...7 ....
....|..|--- .... ....|--- .... ....|--- .... ....
....|..|C-5 V... ....|B-5 .... ....|G-3 .... ....
....|..|G-1 2... ....|--- .... ....|--- .... ....
....|..|A-1 ...A ....|A#5 .... ....|A-3 ...A ....
....|..|--- .... ....|--- .... ....|--- .... ....
....|..|C-4 A..7 ....|B-5 .... ....|G-3 .F.7 ....
....|..|G-1 2... ....|--- .... ....|--- .... ....
....|..|A-1 ...A ....|--- .... ....|A-3 ..1A ....
....|..|--- .... ....|--- .... ....|--- .... ....
....|..|C-5 V..F ....|D-5 ...7 ....|A-3 ...F ....
 A-3|..|A-1 2A.. ....|--- .... ....|--- .... ....
....|..|--- .... ....|--- .... ....|--- .... ....
....|..|--- .... ....|--- .... ....|--- .... ....
....|..|C-4 AF.7 ....|B-5 ...A ....|A-3 ...7 ....
....|..|A-1 2... ....|--- .... ....|--- .... ....
....|..|A-1 .... ....|A#5 .... ....|A-3 .... ....
....|..|--- .... ....|--- .... ....|--- .... ....

[Pattern8]
....|..|C-4 AF.F ....|B-4 3F.F ....|E-3 4F1F ....
 E-3|..|E-1 2A.. ....|--- .... ....|--- .... ....
....|..|A-1 .F.7 ....|--- .... ....|A-3 ...7 ....
....|..|--- .... ....|--- .... ....|--- .... ....
 E-3|..|E-1 .A.F ....|A#5 ...7 ....|E-3 ...F ....
....|..|A-1 .F.7 ....|--- .... ....|--- .... ....
....|..|C-4 A..F ....|--- .... ....|E-3 .... ....
 E-3|..|E-1 2A.. ....|--- .... ....|--- .... ....
....|..|C-5 VF.. ....|B-5 .... ....|R-- .... ....
....|..|--- .... ....|--- .... ....|--- .... ....
 E-3|..|E-1 2A.. ....|A#5 .... ....|E-3 .... ....
....|..|--- .... ....|--- .... ....|--- .... ....
....|..|C-4 AF.. ....|A#5 ...F ....|E-3 .... ....
 E-3|..|E-1 2A.. ....|--- .... ....|--- .... ....
....|..|R-- .... ....|--- .... ....|--- .... ....
....|..|--- .... ....|--- .... ....|--- .... ....
....|..|C-3 RF.. ....|B-5 .... ....|E-3 .... ....
 E-3|..|E-1 2A.. ....|--- .... ....|--- .... ....
....|..|C-3 RF.. ....|--- .... ....|E-3 ...A ....
....|..|E-1 2..A ....|--- .... ....|--- .... ....
....|..|C-4 A..F ....|A#5 .... ....|E-3 ...F ....
 E-3|..|E-1 2A.. ....|--- .... ....|--- .... ....
....|..|E-1 .F.A ....|--- .... ....|E-3 ...A ....
....|..|--- .... ....|--- .... ....|--- .... ....
....|..|C-5 V..F ....|B-5 .... ....|E-3 ...F ....
 E-3|..|E-1 2A.. ....|--- .... ....|--- .... ....
 E-3|..|E-1 .A.. ....|--- .... ....|E-3 .... ....
....|..|--- .... ....|--- .... ....|--- .... ....
....|..|C-4 AF.. ....|A#5 .... ....|E-3 ...7 ....
....|..|E-1 2..A ....|--- .... ....|--- .... ....
 E-3|..|E-1 .A.F ....|--- .... ....|E-3 ...F ....
....|..|E-1 .F.7 ....|--- .... ....|--- .... ....
....|..|C-4 A..F ....|D-5 .... ....|E-3 .... ....
 E-3|..|E-1 2A.. ....|--- .... ....|--- .... ....
....|..|E-1 .F.7 ....|--- .... ....|E-3 ...7 ....
....|..|--- .... ....|--- .... ....|--- .... ....
 E-3|..|E-1 .A.F ....|A#5 ...7 ....|E-3 ...F ....
....|..|E-1 .F.7 ....|--- .... ....|--- .... ....
....|..|C-4 A..F ....|--- .... ....|E-3 .... ....
 E-3|..|E-1 2A.. ....|--- .... ....|--- .... ....
....|..|C-5 VF.. ....|B-5 .... ....|E-3 ...7 ....
....|..|E-1 2..7 ....|--- .... ....|--- .... ....
 E-3|..|E-1 .A.F ....|--- .... ....|E-3 ...F ....
....|..|--- .... ....|--- .... ....|--- .... ....
....|..|C-4 AF.. ....|C#5 ...F ....|E-3 .... ....
 E-3|..|E-1 2A.. ....|--- .... ....|--- .... ....
....|..|R-- .... ....|--- .... ....|--- .... ....
....|..|--- .... ....|--- .... ....|--- .... ....
....|..|C-3 RF.. ....|D-5 .... ....|E-3 .... ....
 E-3|..|E-1 2A.. ....|--- .... ....|--- .... ....
....|..|C-3 RF.. ....|--- .... ....|E-3 ...7 ....
....|..|E-1 2..A ....|--- .... ....|--- .... ....
....|..|C-4 A..F ....|C#5 .... ....|E-3 ...F ....
 E-3|..|E-1 2A.. ....|--- .... ....|--- .... ....
....|..|E-1 .F.7 ....|--- .... ....|E-3 ...7 ....
....|..|--- .... ....|--- .... ....|--- .... ....
....|..|C-5 V..F ....|D-5 .... ....|E-3 ...F ....
 E-3|..|E-1 2A.. ....|--- .... ....|--- .... ....
 E-3|..|E-1 .A.. ....|--- .... ....|E-3 .... ....
....|..|--- .... ....|--- .... ....|--- .... ....
....|..|C-4 AF.. ....|F#5 .... ....|E-3 ...7 ....
....|..|E-1 2..A ....|--- .... ....|--- .... ....
 E-3|..|E-1 .A.F ....|--- .... ....|E-3 ...F ....
....|..|E-1 .F.7 ....|--- .... ....|--- .... ....

[Pattern9]
....|..|C-4 AF.F ....|B-4 3F.F ....|G-3 4F1F ....
 G-3|..|G-1 2A.. ....|--- .... ....|--- .... ....
....|..|E-1 .F.7 ....|--- .... ....|E-3 ...7 ....
....|..|--- .... ....|--- .... ....|--- .... ....
 G-3|..|G-1 .A.F ....|C#5 ...7 ....|G-3 ...F ....
....|..|E-1 .F.7 ....|--- .... ....|--- .... ....
....|..|C-4 A..F ....|--- .... ....|G-3 .... ....
 G-3|..|G-1 2A.. ....|--- .... ....|--- .... ....
....|..|C-5 VF.. ....|D-5 .... ....|E-3 ...7 ....
....|..|E-1 2..7 ....|--- .... ....|--- .... ....
 G-3|..|G-1 .A.F ....|--- .... ....|G-3 ...F ....
....|..|--- .... ....|--- .... ....|--- .... ....
....|..|C-4 AF.. ....|A#5 ...F ....|G-3 .... ....
 G-3|..|G-1 2A.. ....|--- .... ....|--- .... ....
....|..|R-- .... ....|--- .... ....|--- .... ....
....|..|--- .... ....|--- .... ....|--- .... ....
....|..|C-3 RF.. ....|B-5 .... ....|G-3 .... ....
 G-3|..|G-1 2A.. ....|--- .... ....|--- .... ....
....|..|C-3 RF.. ....|--- .... ....|E-3 ...7 ....
....|..|G-1 2..A ....|--- .... ....|--- .... ....
....|..|C-4 A..F ....|A#5 .... ....|G-3 ...F ....
 G-3|..|G-1 2A.. ....|--- .... ....|--- .... ....
....|..|E-1 .F.7 ....|--- .... ....|E-3 ...7 ....
....|..|--- .... ....|--- .... ....|--- .... ....
....|..|C-5 V..F ....|B-5 .... ....|G-3 ...F ....
 G-3|..|G-1 2A.. ....|--- .... ....|--- .... ....
 G-3|..|G-1 .A.. ....|--- .... ....|G-3 .... ....
....|..|--- .... ....|--- .... ....|--- .... ....
....|..|C-4 AF.. ....|B-5 ...A ....|G-3 ...7 ....
....|..|G-1 2..A ....|--- .... ....|--- .... ....
 G-3|..|G-1 .A.F ....|--- .... ....|G-3 ...F ....
....|..|G-1 .F.7 ....|--- .... ....|--- .... ....
....|..|C-4 A..F ....|A#5 .... ....|A-3 .... ....
....|..|G-1 2..A ....|--- .... ....|--- .... ....
....|..|G-1 ...7 ....|--- .... ....|G-3 ...7 ....
....|..|C-4 A..F ....|--- .... ....|--- .... ....
....|..|C-4 ...7 ....|A#5 ...7 ....|G-3 .... ....
....|..|G-1 2... ....|--- .... ....|--- .... ....
....|..|C-4 A..F ....|--- .... ....|G#3 ...F ....
....|..|--- .... ....|--- .... ....|--- .... ....
....|..|C-3 R..7 ....|B-5 .... ....|G-3 ...7 ....
....|..|G-1 2... ....|--- .... ....|--- .... ....
....|..|C-3 R... ....|--- .... ....|G-3 ...A ....
....|..|--- .... ....|--- .... ....|--- .... ....
....|..|C-4 A..F ....|A#5 .... ....|G-3 ...F ....
....|..|G-1 2..7 ....|--- .... ....|--- .... ....
....|..|R-- .... ....|--- .... ....|--- .... ....
....|..|C-4 A..A ....|--- .... ....|--- .... ....
....|..|C-5 V..7 ....|B-5 .... ....|G-3 ...7 ....
....|..|G-1 2... ....|--- .... ....|--- .... ....
....|..|G-1 .... ....|--- .... ....|G-3 .... ....
....|..|--- .... ....|--- .... ....|--- .... ....
....|..|C-4 A..F ....|R-- .... ....|F-3 ...F ....
....|..|--- .... ....|--- .... ....|--- .... ....
....|..|G-1 2..7 ....|--- .... ....|G-3 ...7 ....
....|..|--- .... ....|--- .... ....|--- .... ....
....|..|C-4 A..F ....|--- .... ....|A-3 .... ....
....|..|R-- .... ....|--- .... ....|--- .... ....
....|..|C-5 V... ....|--- .... ....|E-3 ...F ....
....|..|C-4 A..7 ....|--- .... ....|--- .... ....
....|..|--- .... ....|--- .... ....|--- .... ....
....|..|--- .... ....|--- .... ....|B-2 .F.. ....
....|..|C-4 ...F ....|--- .... ....|G#3 ..17 ....
....|..|--- .... ....|--- .... ....|--- .... ....

[Pattern10]
....|..|C-4 AF.A ....|B-2 3F.F ....|B-4 4F.F ....
....|..|--- .... ....|--- .... ....|--- .... ....
....|..|--- .... ....|--- .... ....|--- .... ....
....|..|--- .... ....|--- .... ....|--- .... ....
....|..|C-4 ...7 ....|--- .... ....|B-4 .... ....
....|..|--- .... ....|B-2 .... ....|--- .... ....
....|..|C-5 V..A ....|--- .... ....|E-3 ..1A ....
....|..|--- .... ....|--- .... ....|--- .... ....
....|..|--- .... ....|--- .... ....|F#5 .F.F ....
....|..|--- .... ....|--- .... ....|B-2 ...A ....
....|..|C-4 A... ....|--- .... ....|--- .... ....
....|..|--- .... ....|B-2 .... ....|--- .... ....
....|..|C-4 ...7 ....|B-2 ...A ....|B-4 ...F ....
....|..|--- .... ....|--- .... ....|--- .... ....
....|..|--- .... ....|--- .... ....|--- .... ....
....|..|--- .... ....|--- .... ....|--- .... ....
....|..|C-4 .... ....|B-2 ...F ....|D-5 .... ....
....|..|--- .... ....|B-2 .... ....|--- .... ....
....|..|C-5 V... ....|--- .... ....|C#5 .... ....
....|..|--- .... ....|--- .... ....|--- .... ....
....|..|--- .... ....|--- .... ....|B-4 .... ....
....|..|--- .... ....|--- .... ....|B-2 ...7 ....
....|..|C-4 A... ....|--- .... ....|--- .... ....
....|..|--- .... ....|B-2 .... ....|--- .... ....
....|..|R-- .... ....|B-2 ...7 ....|F#5 ...F ....
....|..|--- .... ....|--- .... ....|--- .... ....
....|..|--- .... ....|--- .... ....|--- .... ....
....|..|--- .... ....|--- .... ....|--- .... ....
....|..|--- .... ....|B-2 ...F ....|B-4 .... ....
....|..|--- .... ....|B-2 ...7 ....|--- .... ....
....|..|--- .... ....|--- .... ....|C#5 ...A ....
....|..|--- .... ....|--- .... ....|--- .... ....
....|..|--- .... ....|B-2 ...F ....|D-5 ...F ....
....|..|--- .... ....|--- .... ....|--- .... ....
....|..|--- .... ....|--- .... ....|C#5 .... ....
....|..|--- .... ....|B-2 ...7 ....|--- .... ....
....|..|--- .... ....|--- .... ....|B-4 .... ....
....|..|--- .... ....|B-2 ...F ....|--- .... ....
....|..|--- .... ....|--- .... ....|--- .... ....
....|..|--- .... ....|--- .... ....|--- .... ....
....|..|--- .... ....|B-2 ...7 ....|F#5 .... ....
....|..|--- .... ....|B-2 .... ....|--- .... ....
....|..|--- .... ....|--- .... ....|C#5 ...7 ....
....|..|--- .... ....|B-2 ...F ....|--- .... ....
....|..|--- .... ....|B-2 ...A ....|B-4 ...F ....
....|..|--- .... ....|--- .... ....|--- .... ....
....|..|--- .... ....|--- .... ....|C#5 ...A ....
....|..|--- .... ....|B-2 ...7 ....|--- .... ....
....|..|--- .... ....|B-2 ...F ....|D-5 ...F ....
....|..|--- .... ....|B-2 .... ....|--- .... ....
....|..|--- .... ....|--- .... ....|C#5 .... ....
....|..|--- .... ....|--- .... ....|--- .... ....
....|..|--- .... ....|B-2 ...7 ....|B-4 .... ....
....|..|--- .... ....|--- .... ....|--- .... ....
....|..|--- .... ....|--- .... ....|--- .... ....
....|..|--- .... ....|B-2 ...F ....|--- .... ....
....|..|--- .... ....|B-2 ...7 ....|F#5 .... ....
....|..|--- .... ....|--- .... ....|--- .... ....
....|..|--- .... ....|--- .... ....|C#5 ...7 ....
....|..|--- .... ....|--- .... ....|--- .... ....
....|..|--- .... ....|B-2 ...F ....|B-4 ...F ....
....|..|--- .... ....|B-2 ...7 ....|--- .... ....
....|..|--- .... ....|--- .... ....|C#5 ...A ....
....|..|--- .... ....|--- .... ....|--- .... ....

[Pattern11]
....|..|--- .... ....|B-2 3F.F ....|D-5 4F.F ....
....|..|--- .... ....|--- .... ....|--- .... ....
....|..|--- .... ....|--- .... ....|C#5 .... ....
....|..|--- .... ....|B-2 ...7 ....|--- .... ....
....|..|--- .... ....|--- .... ....|B-4 .... ....
....|..|--- .... ....|B-2 ...F ....|--- .... ....
....|..|--- .... ....|--- .... ....|--- .... ....
....|..|--- .... ....|--- .... ....|--- .... ....
....|..|--- .... ....|B-2 ...7 ....|F#5 .... ....
....|..|--- .... ....|B-2 .... ....|--- .... ....
....|..|--- .... ....|--- .... ....|C#5 ...7 ....
....|..|--- .... ....|B-2 ...F ....|--- .... ....
....|..|--- .... ....|B-2 ...A ....|B-4 ...F ....
....|..|--- .... ....|--- .... ....|--- .... ....
....|..|--- .... ....|--- .... ....|C#5 ...A ....
....|..|--- .... ....|B-2 ...7 ....|--- .... ....
....|..|--- .... ....|B-2 ...F ....|D-5 ...F ....
....|..|--- .... ....|B-2 .... ....|--- .... ....
....|..|--- .... ....|--- .... ....|C#5 .... ....
....|..|--- .... ....|--- .... ....|--- .... ....
....|..|--- .... ....|B-2 ...7 ....|B-4 .... ....
....|..|--- .... ....|--- .... ....|--- .... ....
....|..|--- .... ....|--- .... ....|--- .... ....
....|..|--- .... ....|B-2 ...F ....|--- .... ....
....|..|--- .... ....|B-2 ...7 ....|F#5 .... ....
....|..|--- .... ....|--- .... ....|--- .... ....
....|..|--- .... ....|--- .... ....|C#5 ...7 ....
....|..|--- .... ....|--- .... ....|--- .... ....
....|..|--- .... ....|B-2 ...F ....|B-4 ...F ....
....|..|--- .... ....|B-2 ...7 ....|--- .... ....
....|..|--- .... ....|--- .... ....|C#5 ...A ....
....|..|--- .... ....|--- .... ....|--- .... ....
....|..|--- .... ....|B-2 ...F ....|D-5 ...F ....
....|..|--- .... ....|--- .... ....|--- .... ....
....|..|--- .... ....|--- .... ....|C#5 .... ....
....|..|--- .... ....|B-2 ...7 ....|--- .... ....
....|..|--- .... ....|--- .... ....|B-4 .... ....
....|..|--- .... ....|B-2 ...F ....|--- .... ....
....|..|--- .... ....|--- .... ....|--- .... ....
....|..|--- .... ....|--- .... ....|--- .... ....
....|..|--- .... ....|B-2 ...7 ....|F#5 .... ....
....|..|--- .... ....|B-2 .... ....|--- .... ....
....|..|--- .... ....|--- .... ....|C#5 ...7 ....
....|..|--- .... ....|B-2 ...F ....|--- .... ....
....|..|--- .... ....|B-2 ...A ....|B-4 ...F ....
....|..|--- .... ....|--- .... ....|--- .... ....
....|..|--- .... ....|--- .... ....|C#5 ...A ....
....|..|--- .... ....|B-2 ...7 ....|--- .... ....
....|..|--- .... ....|B-2 ...F ....|D-5 ...F ....
....|..|--- .... ....|B-2 .... ....|--- .... ....
....|..|--- .... ....|--- .... ....|C#5 .... ....
....|..|--- .... ....|--- .... ....|--- .... ....
....|..|--- .... ....|B-2 ...7 ....|B-4 .... ....
....|..|--- .... ....|--- .... ....|--- .... ....
....|..|--- .... ....|--- .... ....|--- .... ....
....|..|--- .... ....|B-2 ...F ....|--- .... ....
....|..|--- .... ....|B-2 ...7 ....|F#5 .... ....
....|..|--- .... ....|--- .... ....|--- .... ....
....|..|--- .... ....|--- .... ....|C#5 ...7 ....
....|..|--- .... ....|--- .... ....|--- .... ....
....|..|--- .... ....|B-2 ...F ....|B-4 ...F ....
....|..|--- .... ....|B-2 ...7 ....|--- .... ....
....|..|--- .... ....|--- .... ....|C#5 ...A ....
....|..|--- .... ....|--- .... ....|--- .... ....

[Pattern12]
....|..|--- .... ....|G-2 3F.F ....|E-5 4F.F ....
....|..|--- .... ....|--- .... ....|--- .... ....
....|..|--- .... ....|--- .... ....|E-4 .... ....
....|..|--- .... ....|B-2 ...7 ....|--- .... ....
....|..|--- .... ....|--- .... ....|E-5 .... ....
....|..|--- .... ....|G-2 ...F ....|--- .... ....
....|..|--- .... ....|--- .... ....|A-4 .... ....
....|..|--- .... ....|--- .... ....|--- .... ....
....|..|--- .... ....|B-2 ...7 ....|E-5 .... ....
....|..|--- .... ....|B-2 .... ....|--- .... ....
....|..|--- .... ....|--- .... ....|C#5 ...7 ....
....|..|--- .... ....|G-2 ...F ....|--- .... ....
....|..|--- .... ....|G-2 ...A ....|F#5 ...F ....
....|..|--- .... ....|--- .... ....|--- .... ....
....|..|--- .... ....|--- .... ....|E-4 ...A ....
....|..|--- .... ....|B-2 ...7 ....|--- .... ....
....|..|--- .... ....|G-2 ...F ....|E-5 ...F ....
....|..|--- .... ....|G-2 .... ....|--- .... ....
....|..|--- .... ....|--- .... ....|E-4 .... ....
....|..|--- .... ....|--- .... ....|--- .... ....
....|..|--- .... ....|B-2 ...7 ....|E-5 .... ....
....|..|--- .... ....|--- .... ....|--- .... ....
....|..|--- .... ....|--- .... ....|A-4 .... ....
....|..|--- .... ....|G-2 ...F ....|--- .... ....
....|..|--- .... ....|G-2 ...7 ....|E-5 .... ....
....|..|--- .... ....|--- .... ....|--- .... ....
....|..|--- .... ....|--- .... ....|E-4 ...7 ....
....|..|--- .... ....|--- .... ....|--- .... ....
....|..|--- .... ....|G-2 ...F ....|F#5 ...F ....
....|..|--- .... ....|G-2 ...7 ....|--- .... ....
....|..|--- .... ....|--- .... ....|A-4 ...7 ....
....|..|--- .... ....|--- .... ....|--- .... ....
....|..|--- .... ....|A-2 ...F ....|E-5 ...F ....
....|..|--- .... ....|--- .... ....|--- .... ....
....|..|--- .... ....|--- .... ....|E-4 .... ....
....|..|--- .... ....|G-2 ...7 ....|--- .... ....
....|..|--- .... ....|--- .... ....|E-5 .... ....
....|..|--- .... ....|A-2 ...F ....|--- .... ....
....|..|--- .... ....|--- .... ....|A-4 .... ....
....|..|--- .... ....|--- .... ....|--- .... ....
....|..|--- .... ....|G-2 ...7 ....|E-5 .... ....
....|..|--- .... ....|G-2 .... ....|--- .... ....
....|..|--- .... ....|--- .... ....|E-4 ...7 ....
....|..|--- .... ....|A-2 ...F ....|--- .... ....
....|..|--- .... ....|A-2 ...A ....|F#5 ...F ....
....|..|--- .... ....|--- .... ....|--- .... ....
....|..|--- .... ....|--- .... ....|A-4 ...7 ....
....|..|--- .... ....|G-2 ...7 ....|--- .... ....
....|..|--- .... ....|A-2 ...F ....|E-5 ...F ....
....|..|--- .... ....|A-2 .... ....|--- .... ....
....|..|--- .... ....|--- .... ....|E-4 .... ....
....|..|--- .... ....|--- .... ....|--- .... ....
....|..|--- .... ....|G-2 ...7 ....|E-5 .... ....
....|..|--- .... ....|--- .... ....|--- .... ....
....|..|--- .... ....|--- .... ....|A-4 .... ....
....|..|--- .... ....|A-2 ...F ....|--- .... ....
....|..|--- .... ....|A-2 ...7 ....|E-5 .... ....
....|..|--- .... ....|--- .... ....|--- .... ....
....|..|--- .... ....|--- .... ....|E-4 ...7 ....
....|..|--- .... ....|--- .... ....|--- .... ....
....|..|--- .... ....|A-2 ...F ....|F#5 ...F ....
....|..|--- .... ....|A-2 ...7 ....|--- .... ....
....|..|--- .... ....|--- .... ....|A-4 ...7 ....
....|..|--- .... ....|--- .... ....|--- .... ....

[Pattern13]
....|..|--- .... ....|E-2 3F.F ....|B-4 4F.F ....
....|..|--- .... ....|--- .... ....|--- .... ....
....|..|--- .... ....|--- .... ....|A-4 ...A ....
....|..|--- .... ....|A-2 ...7 ....|--- .... ....
....|..|--- .... ....|--- .... ....|B-4 ...F ....
....|..|--- .... ....|E-2 ...F ....|--- .... ....
....|..|--- .... ....|--- .... ....|--- .... ....
....|..|--- .... ....|--- .... ....|--- .... ....
....|..|--- .... ....|A-2 ...7 ....|F#5 .... ....
....|..|--- .... ....|A-2 .... ....|--- .... ....
....|..|--- .... ....|--- .... ....|E-4 ...7 ....
....|..|--- .... ....|E-2 ...F ....|--- .... ....
....|..|--- .... ....|E-2 ...A ....|B-4 ...F ....
....|..|--- .... ....|--- .... ....|--- .... ....
....|..|--- .... ....|--- .... ....|A-4 ...7 ....
....|..|--- .... ....|A-2 ...7 ....|--- .... ....
....|..|--- .... ....|E-2 ...F ....|D-5 ...F ....
....|..|--- .... ....|E-2 .... ....|--- .... ....
....|..|--- .... ....|--- .... ....|C#5 .... ....
....|..|--- .... ....|--- .... ....|--- .... ....
....|..|--- .... ....|A-2 ...7 ....|B-4 .... ....
....|..|--- .... ....|--- .... ....|--- .... ....
....|..|--- .... ....|--- .... ....|--- .... ....
....|..|--- .... ....|E-2 ...F ....|--- .... ....
....|..|--- .... ....|E-2 ...7 ....|F#5 .... ....
....|..|--- .... ....|--- .... ....|--- .... ....
....|..|--- .... ....|--- .... ....|--- .... ....
....|..|--- .... ....|--- .... ....|--- .... ....
....|..|--- .... ....|E-2 ...F ....|B-4 .... ....
....|..|--- .... ....|E-2 ...7 ....|--- .... ....
....|..|--- .... ....|--- .... ....|C#5 ...A ....
....|..|--- .... ....|--- .... ....|--- .... ....
....|..|--- .... ....|E-2 ...F ....|D-5 ...F ....
....|..|--- .... ....|--- .... ....|--- .... ....
....|..|--- .... ....|--- .... ....|C#5 .... ....
....|..|--- .... ....|E-2 ...7 ....|--- .... ....
....|..|--- .... ....|--- .... ....|B-4 .... ....
....|..|--- .... ....|E-2 ...F ....|--- .... ....
....|..|--- .... ....|--- .... ....|--- .... ....
....|..|--- .... ....|--- .... ....|--- .... ....
....|..|--- .... ....|E-2 ...7 ....|F#5 .... ....
....|..|--- .... ....|E-2 .... ....|--- .... ....
....|..|--- .... ....|--- .... ....|C#5 ...7 ....
....|..|--- .... ....|E-2 ...F ....|--- .... ....
....|..|--- .... ....|E-2 ...A ....|B-4 ...F ....
....|..|--- .... ....|--- .... ....|--- .... ....
....|..|--- .... ....|--- .... ....|C#5 ...A ....
....|..|--- .... ....|E-2 ...7 ....|--- .... ....
....|..|--- .... ....|E-2 ...F ....|D-5 ...F ....
....|..|--- .... ....|E-2 .... ....|--- .... ....
....|..|--- .... ....|--- .... ....|C#5 .... ....
....|..|--- .... ....|--- .... ....|--- .... ....
....|..|--- .... ....|E-2 ...7 ....|B-4 .... ....
....|..|--- .... ....|--- .... ....|--- .... ....
....|..|--- .... ....|--- .... ....|--- .... ....
....|..|--- .... ....|E-2 ...F ....|--- .... ....
....|..|--- .... ....|E-2 ...7 ....|F#5 .... ....
....|..|--- .... ....|--- .... ....|--- .... ....
....|..|--- .... ....|--- .... ....|C#5 ...7 ....
....|..|--- .... ....|--- .... ....|--- .... ....
....|..|--- .... ....|E-2 ...F ....|B-4 ...F ....
....|..|--- .... ....|E-2 ...7 ....|--- .... ....
....|..|--- .... ....|--- .... ....|C#5 ...A ....
....|..|--- .... ....|--- .... ....|--- .... ....

[Pattern14]
....|..|--- .... ....|G-2 3F.F ....|D-5 4F.F ....
....|..|--- .... ....|--- .... ....|--- .... ....
....|..|--- .... ....|--- .... ....|C#5 .... ....
....|..|--- .... ....|E-2 ...7 ....|--- .... ....
....|..|--- .... ....|--- .... ....|B-4 .... ....
....|..|--- .... ....|G-2 ...F ....|--- .... ....
....|..|--- .... ....|--- .... ....|--- .... ....
....|..|--- .... ....|--- .... ....|--- .... ....
....|..|--- .... ....|E-2 ...7 ....|F#5 .... ....
....|..|--- .... ....|E-2 .... ....|--- .... ....
....|..|--- .... ....|--- .... ....|C#5 ...7 ....
....|..|--- .... ....|G-2 ...F ....|--- .... ....
....|..|--- .... ....|G-2 ...A ....|B-4 ...F ....
....|..|--- .... ....|--- .... ....|--- .... ....
....|..|--- .... ....|--- .... ....|C#5 ...A ....
....|..|--- .... ....|E-2 ...7 ....|--- .... ....
....|..|--- .... ....|G-2 ...F ....|D-5 ...F ....
....|..|--- .... ....|G-2 .... ....|--- .... ....
....|..|--- .... ....|--- .... ....|C#5 .... ....
....|..|--- .... ....|--- .... ....|--- .... ....
....|..|--- .... ....|E-2 ...7 ....|B-4 .... ....
....|..|--- .... ....|--- .... ....|--- .... ....
....|..|--- .... ....|--- .... ....|--- .... ....
....|..|--- .... ....|G-2 ...F ....|--- .... ....
....|..|--- .... ....|G-2 ...7 ....|F#5 .... ....
....|..|--- .... ....|--- .... ....|--- .... ....
....|..|--- .... ....|--- .... ....|C#5 ...7 ....
....|..|--- .... ....|--- .... ....|--- .... ....
....|..|--- .... ....|G-2 ...F ....|B-4 ...F ....
....|..|--- .... ....|G-2 ...7 ....|--- .... ....
....|..|--- .... ....|--- .... ....|C#5 ...A ....
....|..|--- .... ....|--- .... ....|--- .... ....
....|..|--- .... ....|A-2 ...F ....|D-5 ...F ....
....|..|--- .... ....|--- .... ....|--- .... ....
....|..|--- .... ....|--- .... ....|C#5 .... ....
....|..|--- .... ....|G-2 ...7 ....|--- .... ....
....|..|--- .... ....|--- .... ....|B-4 .... ....
....|..|--- .... ....|A-2 ...F ....|--- .... ....
....|..|--- .... ....|--- .... ....|--- .... ....
....|..|--- .... ....|--- .... ....|--- .... ....
....|..|--- .... ....|G-2 ...7 ....|F#5 .... ....
....|..|--- .... ....|G-2 .... ....|--- .... ....
....|..|--- .... ....|--- .... ....|C#5 ...7 ....
....|..|--- .... ....|A-2 ...F ....|--- .... ....
....|..|--- .... ....|A-2 ...A ....|B-4 ...F ....
....|..|--- .... ....|--- .... ....|--- .... ....
....|..|--- .... ....|--- .... ....|C#5 ...A ....
....|..|--- .... ....|G-2 ...7 ....|--- .... ....
....|..|--- .... ....|A-2 ...F ....|D-5 ...F ....
....|..|--- .... ....|A-2 .... ....|--- .... ....
....|..|--- .... ....|--- .... ....|C#5 .... ....
....|..|--- .... ....|--- .... ....|--- .... ....
....|..|--- .... ....|G-2 ...7 ....|B-4 .... ....
....|..|--- .... ....|--- .... ....|--- .... ....
....|..|--- .... ....|--- .... ....|--- .... ....
....|..|--- .... ....|A-2 ...F ....|--- .... ....
....|..|--- .... ....|A-2 ...7 ....|F#5 .... ....
....|..|--- .... ....|--- .... ....|--- .... ....
....|..|--- .... ....|--- .... ....|C#5 ...7 ....
....|..|--- .... ....|--- .... ....|--- .... ....
....|..|--- .... ....|A-2 ...F ....|B-4 ...F ....
....|..|--- .... ....|A-2 ...7 ....|--- .... ....
....|..|--- .... ....|--- .... ....|C#5 ...A ....
....|..|--- .... ....|--- .... ....|--- .... ....

[Pattern15]
....|..|C-5 VF.F ....|B-2 3F.F ....|D-5 4F.F ....
....|..|--- .... ....|--- .... ....|--- .... ....
....|..|R-- .... ....|--- .... ....|C#5 .... ....
....|..|--- .... ....|A-2 ...7 ....|--- .... ....
....|..|--- .... ....|--- .... ....|B-4 .... ....
....|..|--- .... ....|B-2 ...F ....|--- .... ....
....|..|--- .... ....|--- .... ....|--- .... ....
....|..|--- .... ....|--- .... ....|--- .... ....
....|..|C-5 .... ....|A-2 ...7 ....|F#5 .... ....
....|..|--- .... ....|A-2 .... ....|--- .... ....
....|..|R-- .... ....|--- .... ....|C#5 ...7 ....
....|..|--- .... ....|B-2 ...F ....|--- .... ....
....|..|C-4 L... ....|B-2 ...A ....|B-4 ...F ....
....|..|--- .... ....|--- .... ....|--- .... ....
....|..|R-- .... ....|--- .... ....|C#5 ...A ....
....|..|--- .... ....|A-2 ...7 ....|--- .... ....
....|..|--- .... ....|B-2 ...F ....|D-5 ...F ....
....|..|--- .... ....|B-2 .... ....|--- .... ....
....|..|C-5 V... ....|--- .... ....|C#5 .... ....
....|..|--- .... ....|--- .... ....|--- .... ....
....|..|C-5 ...A ....|A-2 ...7 ....|B-4 .... ....
....|..|--- .... ....|--- .... ....|--- .... ....
....|..|C-5 ...F ....|--- .... ....|--- .... ....
....|..|--- .... ....|B-2 ...F ....|--- .... ....
....|..|C-5 .... ....|B-2 ...7 ....|F#5 .... ....
....|..|--- .... ....|--- .... ....|--- .... ....
....|..|R-- .... ....|--- .... ....|C#5 ...7 ....
....|..|--- .... ....|--- .... ....|--- .... ....
....|..|C-4 L... ....|B-2 ...F ....|B-4 ...F ....
....|..|--- .... ....|B-2 ...7 ....|--- .... ....
....|..|C-5 V..A ....|--- .... ....|C#5 ...A ....
....|..|--- .... ....|--- .... ....|--- .... ....
....|..|C-5 ...F ....|B-2 ...F ....|D-5 ...F ....
....|..|--- .... ....|--- .... ....|--- .... ....
....|..|C-5 ...A ....|--- .... ....|C#5 .... ....
....|..|--- .... ....|B-2 ...7 ....|--- .... ....
....|..|C-4 A..F ....|--- .... ....|B-4 .... ....
....|..|--- .... ....|B-2 ...F ....|--- .... ....
....|..|R-- .... ....|--- .... ....|--- .... ....
....|..|--- .... ....|--- .... ....|--- .... ....
....|..|C-5 V... ....|B-2 ...7 ....|F#5 .... ....
....|..|--- .... ....|B-2 .... ....|--- .... ....
....|..|C-5 ...7 ....|--- .... ....|C#5 ...7 ....
....|..|--- .... ....|B-2 ...F ....|--- .... ....
....|..|C-4 L..F ....|B-2 ...A ....|B-4 ...F ....
....|..|--- .... ....|--- .... ....|--- .... ....
....|..|C-5 V..7 ....|--- .... ....|C#5 ...A ....
....|..|--- .... ....|B-2 ...7 ....|--- .... ....
....|..|C-5 .... ....|B-2 ...F ....|D-5 ...F ....
....|..|--- .... ....|B-2 .... ....|--- .... ....
....|..|C-5 ...F ....|--- .... ....|C#5 .... ....
....|..|--- .... ....|--- .... ....|--- .... ....
....|..|C-4 L..7 ....|B-2 ...7 ....|B-4 .... ....
....|..|--- .... ....|--- .... ....|--- .... ....
....|..|C-5 V..F ....|--- .... ....|--- .... ....
....|..|--- .... ....|B-2 ...F ....|--- .... ....
....|..|C-5 .... ....|B-2 ...7 ....|F#5 .... ....
....|..|--- .... ....|--- .... ....|--- .... ....
....|..|R-- .... ....|--- .... ....|C#5 ...7 ....
....|..|--- .... ....|--- .... ....|--- .... ....
....|..|C-4 L... ....|B-2 ...F ....|B-4 ...F ....
....|..|--- .... ....|B-2 ...7 ....|--- .... ....
....|..|C-5 V..A ....|--- .... ....|C#5 ...A ....
....|..|--- .... ....|--- .... ....|--- .... ....

[Pattern16]
....|..|C-5 VF.F ....|G-2 3F.F ....|E-5 4F.F ....
....|..|--- .... ....|--- .... ....|--- .... ....
....|..|C-5 ...A ....|--- .... ....|E-4 .... ....
....|..|--- .... ....|B-2 ...7 ....|--- .... ....
....|..|C-4 L..7 ....|--- .... ....|E-5 .... ....
....|..|--- .... ....|G-2 ...F ....|--- .... ....
....|..|R-- .... ....|--- .... ....|A-4 .... ....
....|..|--- .... ....|--- .... ....|--- .... ....
....|..|C-5 V..F ....|B-2 ...7 ....|E-5 .... ....
....|..|--- .... ....|B-2 .... ....|--- .... ....
....|..|C-5 ...7 ....|--- .... ....|C#5 ...7 ....
....|..|--- .... ....|G-2 ...F ....|--- .... ....
....|..|C-4 L..F ....|G-2 ...A ....|F#5 ...F ....
....|..|--- .... ....|--- .... ....|--- .... ....
....|..|C-5 V..7 ....|--- .... ....|E-4 ...A ....
....|..|--- .... ....|B-2 ...7 ....|--- .... ....
....|..|C-5 .... ....|G-2 ...F ....|E-5 ...F ....
....|..|--- .... ....|G-2 .... ....|--- .... ....
....|..|C-5 ...F ....|--- .... ....|E-4 .... ....
....|..|--- .... ....|--- .... ....|--- .... ....
....|..|C-4 L..7 ....|B-2 ...7 ....|E-5 .... ....
....|..|--- .... ....|--- .... ....|--- .... ....
....|..|C-5 V..F ....|--- .... ....|A-4 .... ....
....|..|--- .... ....|G-2 ...F ....|--- .... ....
....|..|C-5 .... ....|G-2 ...7 ....|E-5 .... ....
....|..|--- .... ....|--- .... ....|--- .... ....
....|..|R-- .... ....|--- .... ....|E-4 ...7 ....
....|..|--- .... ....|--- .... ....|--- .... ....
....|..|C-4 L... ....|G-2 ...F ....|F#5 ...F ....
....|..|--- .... ....|G-2 ...7 ....|--- .... ....
....|..|C-5 V..A ....|--- .... ....|A-4 ...7 ....
....|..|--- .... ....|--- .... ....|--- .... ....
....|..|C-5 ...F ....|A-2 ...F ....|E-5 ...F ....
....|..|--- .... ....|--- .... ....|--- .... ....
....|..|C-5 ...A ....|--- .... ....|E-4 .... ....
....|..|--- .... ....|G-2 ...7 ....|--- .... ....
....|..|C-4 A..F ....|--- .... ....|E-5 .... ....
....|..|--- .... ....|A-2 ...F ....|--- .... ....
....|..|R-- .... ....|--- .... ....|A-4 .... ....
....|..|--- .... ....|--- .... ....|--- .... ....
....|..|C-5 V... ....|G-2 ...7 ....|E-5 .... ....
....|..|--- .... ....|G-2 .... ....|--- .... ....
....|..|C-5 ...7 ....|--- .... ....|E-4 ...7 ....
....|..|--- .... ....|A-2 ...F ....|--- .... ....
....|..|C-4 L..F ....|A-2 ...A ....|F#5 ...F ....
....|..|--- .... ....|--- .... ....|--- .... ....
....|..|C-5 V..7 ....|--- .... ....|A-4 ...7 ....
....|..|--- .... ....|G-2 ...7 ....|--- .... ....
....|..|C-5 .... ....|A-2 ...F ....|E-5 ...F ....
....|..|--- .... ....|A-2 .... ....|--- .... ....
....|..|C-5 ...F ....|--- .... ....|E-4 .... ....
....|..|--- .... ....|--- .... ....|--- .... ....
....|..|C-4 L..7 ....|G-2 ...7 ....|E-5 .... ....
....|..|--- .... ....|--- .... ....|--- .... ....
....|..|C-5 V..F ....|--- .... ....|A-4 .... ....
....|..|--- .... ....|A-2 ...F ....|--- .... ....
....|..|C-5 .... ....|A-2 ...7 ....|E-5 .... ....
....|..|--- .... ....|--- .... ....|--- .... ....
....|..|R-- .... ....|--- .... ....|E-4 ...7 ....
....|..|--- .... ....|--- .... ....|--- .... ....
....|..|C-4 L... ....|A-2 ...F ....|F#5 ...F ....
....|..|--- .... ....|A-2 ...7 ....|--- .... ....
....|..|C-5 V..A ....|--- .... ....|A-4 ...7 ....
....|..|--- .... ....|--- .... ....|--- .... ....

[Pattern17]
....|..|C-5 VF.F ....|E-2 3F.F ....|B-4 4F.F ....
....|..|--- .... ....|--- .... ....|--- .... ....
....|..|C-5 ...A ....|--- .... ....|A-4 ...A ....
....|..|--- .... ....|A-2 ...7 ....|--- .... ....
....|..|C-4 L..7 ....|--- .... ....|B-4 ...F ....
....|..|--- .... ....|E-2 ...F ....|--- .... ....
....|..|R-- .... ....|--- .... ....|--- .... ....
....|..|--- .... ....|--- .... ....|--- .... ....
....|..|C-5 V..F ....|A-2 ...7 ....|F#5 .... ....
....|..|--- .... ....|A-2 .... ....|--- .... ....
....|..|C-5 ...7 ....|--- .... ....|E-4 ...7 ....
....|..|--- .... ....|E-2 ...F ....|--- .... ....
....|..|C-4 L..F ....|E-2 ...A ....|B-4 ...F ....
....|..|--- .... ....|--- .... ....|--- .... ....
....|..|C-5 V..7 ....|--- .... ....|A-4 ...7 ....
....|..|--- .... ....|A-2 ...7 ....|--- .... ....
....|..|C-5 .... ....|E-2 ...F ....|D-5 ...F ....
....|..|--- .... ....|E-2 .... ....|--- .... ....
....|..|C-5 ...F ....|--- .... ....|C#5 .... ....
....|..|--- .... ....|--- .... ....|--- .... ....
....|..|C-4 L..7 ....|A-2 ...7 ....|B-4 .... ....
....|..|--- .... ....|--- .... ....|--- .... ....
....|..|C-5 V..F ....|--- .... ....|--- .... ....
....|..|--- .... ....|E-2 ...F ....|--- .... ....
....|..|C-5 .... ....|E-2 ...7 ....|F#5 .... ....
....|..|--- .... ....|--- .... ....|--- .... ....
....|..|R-- .... ....|--- .... ....|--- .... ....
....|..|--- .... ....|--- .... ....|--- .... ....
....|..|C-4 L... ....|E-2 ...F ....|B-4 .... ....
....|..|--- .... ....|E-2 ...7 ....|--- .... ....
....|..|C-5 V..A ....|--- .... ....|C#5 ...A ....
....|..|--- .... ....|--- .... ....|--- .... ....
....|..|C-5 ...F ....|E-2 ...F ....|D-5 ...F ....
....|..|--- .... ....|--- .... ....|--- .... ....
....|..|C-5 ...A ....|--- .... ....|C#5 .... ....
....|..|--- .... ....|E-2 ...7 ....|--- .... ....
....|..|C-4 A..F ....|--- .... ....|B-4 .... ....
....|..|--- .... ....|E-2 ...F ....|--- .... ....
....|..|R-- .... ....|--- .... ....|--- .... ....
....|..|--- .... ....|--- .... ....|--- .... ....
....|..|C-5 V... ....|E-2 ...7 ....|F#5 .... ....
....|..|--- .... ....|E-2 .... ....|--- .... ....
....|..|C-5 ...7 ....|--- .... ....|C#5 ...7 ....
....|..|--- .... ....|E-2 ...F ....|--- .... ....
....|..|C-4 L..F ....|E-2 ...A ....|B-4 ...F ....
....|..|--- .... ....|--- .... ....|--- .... ....
....|..|C-5 V..7 ....|--- .... ....|C#5 ...A ....
....|..|--- .... ....|E-2 ...7 ....|--- .... ....
....|..|C-5 .... ....|E-2 ...F ....|D-5 ...F ....
....|..|--- .... ....|E-2 .... ....|--- .... ....
....|..|C-5 ...F ....|--- .... ....|C#5 .... ....
....|..|--- .... ....|--- .... ....|--- .... ....
....|..|C-4 L..7 ....|E-2 ...7 ....|B-4 .... ....
....|..|--- .... ....|--- .... ....|--- .... ....
....|..|R-- .... ....|--- .... ....|--- .... ....
....|..|--- .... ....|E-2 ...F ....|--- .... ....
....|..|C-5 V..F ....|A-3 ..1. ....|F#5 .... ....
 A-3|..|A-1 2A.. ....|--- .... ....|--- .... ....
....|..|R-- .... ....|--- .... ....|C#5 ...7 ....
....|..|--- .... ....|--- .... ....|--- .... ....
....|..|C-4 AF.7 ....|E-2 .F.A ....|B-4 ...F ....
....|..|--- .... ....|E-2 ...7 ....|--- .... ....
....|..|C-5 V..A ....|--- .... ....|C#5 ...A ....
....|..|--- .... ....|--- .... ....|--- .... ....

[Pattern18]
....|..|C-4 AF.F ....|G-3 3F1F ....|D-5 4F.F ....
 G-3|..|G-1 2A.. ....|--- .... ....|--- .... ....
....|..|R-- .... ....|--- .... ....|C#5 .... ....
....|..|--- .... ....|E-2 .F.7 ....|--- .... ....
....|..|C-4 LF.7 ....|A-3 ..1A ....|B-4 .... ....
 G-3|..|G-1 2A.F ....|G-3 ...F ....|--- .... ....
....|..|C-4 AF.. ....|--- .... ....|--- .... ....
....|..|--- .... ....|--- .... ....|--- .... ....
....|..|C-5 V... ....|E-2 .F.7 ....|F#5 .... ....
....|..|--- .... ....|E-2 .... ....|--- .... ....
....|..|C-5 ...7 ....|--- .... ....|C#5 ...7 ....
 G-3|..|G-1 2A.F ....|G-3 ..1F ....|--- .... ....
....|..|C-4 AF.. ....|G-3 ...A ....|B-4 ...F ....
....|..|G-1 2..A ....|--- .... ....|--- .... ....
....|..|R-- .... ....|--- .... ....|C#5 ...A ....
....|..|--- .... ....|E-2 .F.7 ....|--- .... ....
....|..|C-3 R..F ....|G-3 ..1F ....|D-5 ...F ....
 G-3|..|G-1 2A.. ....|G-3 .... ....|--- .... ....
....|..|C-3 RF.. ....|--- .... ....|C#5 .... ....
 G-3|..|G-1 2A.. ....|--- .... ....|--- .... ....
....|..|C-4 AF.. ....|--- .... ....|B-4 .... ....
....|..|--- .... ....|--- .... ....|--- .... ....
....|..|R-- .... ....|--- .... ....|--- .... ....
 G-3|..|G-1 2A.. ....|G-3 .... ....|--- .... ....
....|..|C-5 VF.. ....|G-3 ...7 ....|F#5 .... ....
....|..|G-1 2..7 ....|--- .... ....|--- .... ....
....|..|R-- .... ....|--- .... ....|C#5 ...7 ....
....|..|--- .... ....|--- .... ....|--- .... ....
....|..|C-4 A..F ....|G-3 ...F ....|B-4 ...F ....
 G-3|..|G-1 2A.. ....|G-3 ...7 ....|--- .... ....
....|..|C-4 AF.7 ....|--- .... ....|C#5 ...A ....
....|..|G-1 2..A ....|--- .... ....|--- .... ....
....|..|C-4 A..F ....|A-3 ...F ....|D-5 ...F ....
 A-3|..|A-1 2A.. ....|--- .... ....|--- .... ....
....|..|R-- .... ....|--- .... ....|C#5 .... ....
....|..|G-1 .F.7 ....|G-3 ...7 ....|--- .... ....
....|..|C-4 A..F ....|--- .... ....|B-4 .... ....
 A-3|..|A-1 2A.. ....|A-3 ...F ....|--- .... ....
....|..|R-- .... ....|--- .... ....|--- .... ....
....|..|--- .... ....|--- .... ....|--- .... ....
....|..|C-5 VF.. ....|G-3 ...7 ....|F#5 .... ....
....|..|G-1 2..7 ....|G-3 .... ....|--- .... ....
....|..|C-3 R... ....|--- .... ....|C#5 ...7 ....
 A-3|..|A-1 2A.F ....|A-3 ...F ....|--- .... ....
....|..|C-4 AF.. ....|A-3 ...A ....|B-4 ...F ....
....|..|A-1 2..A ....|--- .... ....|--- .... ....
....|..|R-- .... ....|--- .... ....|C#5 ...A ....
....|..|G-1 ...7 ....|G-3 ...7 ....|--- .... ....
....|..|C-3 R..F ....|A-3 ...F ....|D-5 ...F ....
 A-3|..|A-1 2A.. ....|A-3 .... ....|--- .... ....
....|..|C-3 RF.. ....|--- .... ....|C#5 .... ....
 A-3|..|A-1 2A.. ....|--- .... ....|--- .... ....
....|..|C-4 AF.. ....|G-3 ...7 ....|B-4 .... ....
....|..|G-1 2..7 ....|--- .... ....|--- .... ....
....|..|R-- .... ....|--- .... ....|--- .... ....
 A-3|..|A-1 .A.F ....|A-3 ...F ....|--- .... ....
....|..|C-5 VF.. ....|A-3 ...7 ....|F#5 .... ....
....|..|A-1 2..7 ....|--- .... ....|--- .... ....
....|..|R-- .... ....|--- .... ....|C#5 ...7 ....
....|..|--- .... ....|--- .... ....|--- .... ....
....|..|C-4 A..F ....|A-3 ...F ....|B-4 ...F ....
 A-3|..|A-1 2A.. ....|A-3 ...7 ....|--- .... ....
....|..|C-3 RF.A ....|--- .... ....|C#5 ...A ....
....|..|A-1 2... ....|--- .... ....|--- .... ....

[Pattern19]
....|..|C-4 AF.F ....|B-4 3F.F ....|B-3 4F1F ....
 B-3|..|B-1 2A.. ....|--- .... ....|--- .... ....
....|..|R-- .... ....|--- .... ....|--- .... ....
....|..|A-1 .F.7 ....|A-3 ..17 ....|--- .... ....
 B-3|..|B-1 .A.F ....|--- .... ....|B-3 .... ....
....|..|--- .... ....|--- .... ....|--- .... ....
....|..|C-4 AF.. ....|--- .... ....|B-3 .... ....
 B-3|..|B-1 2A.. ....|--- .... ....|--- .... ....
....|..|C-5 VF.. ....|A-3 .... ....|D-5 .F.7 ....
....|..|A-1 2..7 ....|A-3 .... ....|--- .... ....
 B-3|..|B-1 .A.F ....|--- .... ....|B-3 ..1F ....
....|..|A-1 .F.7 ....|--- .... ....|--- .... ....
....|..|C-4 A..F ....|A#5 .F.F ....|B-3 .... ....
 B-3|..|B-1 2A.. ....|--- .... ....|--- .... ....
....|..|R-- .... ....|--- .... ....|--- .... ....
....|..|A-1 .F.7 ....|A-3 ..17 ....|--- .... ....
....|..|C-3 R..F ....|B-5 .F.F ....|B-3 .... ....
 B-3|..|B-1 2A.. ....|--- .... ....|--- .... ....
....|..|C-3 RF.. ....|--- .... ....|B-3 ...A ....
....|..|B-1 2..A ....|--- .... ....|--- .... ....
....|..|C-4 A..F ....|A#5 .... ....|B-3 ...F ....
 B-3|..|B-1 2A.. ....|--- .... ....|--- .... ....
....|..|B-1 .F.A ....|--- .... ....|B-3 ...A ....
....|..|--- .... ....|--- .... ....|--- .... ....
....|..|C-5 V..F ....|B-5 .... ....|B-3 ...F ....
 B-3|..|B-1 2A.. ....|--- .... ....|--- .... ....
 B-3|..|B-1 .A.. ....|--- .... ....|B-3 .... ....
....|..|--- .... ....|--- .... ....|--- .... ....
....|..|C-4 AF.. ....|A#5 .... ....|B-3 ...7 ....
....|..|B-1 2..A ....|--- .... ....|--- .... ....
 B-3|..|B-1 .A.F ....|--- .... ....|B-3 ...F ....
....|..|B-1 .F.7 ....|--- .... ....|--- .... ....
....|..|C-4 A..F ....|D-5 .... ....|B-3 .... ....
 B-3|..|B-1 2A.. ....|--- .... ....|--- .... ....
....|..|B-1 .F.7 ....|--- .... ....|B-3 ...7 ....
....|..|--- .... ....|--- .... ....|--- .... ....
 B-3|..|B-1 .A.F ....|A#5 ...7 ....|B-3 ...F ....
....|..|B-1 .F.7 ....|--- .... ....|--- .... ....
....|..|C-4 A..F ....|--- .... ....|B-3 .... ....
 B-3|..|B-1 2A.. ....|--- .... ....|--- .... ....
....|..|C-5 VF.. ....|B-5 .... ....|B-3 ...7 ....
....|..|B-1 2..7 ....|--- .... ....|--- .... ....
 B-3|..|B-1 .A.F ....|--- .... ....|B-3 ...F ....
....|..|--- .... ....|--- .... ....|--- .... ....
....|..|C-4 AF.. ....|C#5 ...F ....|B-3 .... ....
 B-3|..|B-1 2A.. ....|--- .... ....|--- .... ....
....|..|R-- .... ....|--- .... ....|B-3 .... ....
....|..|--- .... ....|--- .... ....|--- .... ....
....|..|C-3 RF.. ....|D-5 .... ....|B-3 ...7 ....
 B-3|..|B-1 2A.. ....|--- .... ....|--- .... ....
....|..|C-3 RF.. ....|--- .... ....|B-3 ...F ....
 B-3|..|B-1 2A.. ....|--- .... ....|--- .... ....
....|..|C-4 AF.. ....|C#5 .... ....|--- .... ....
....|..|--- .... ....|--- .... ....|--- .... ....
 B-3|..|B-1 2A.. ....|--- .... ....|B-3 .... ....
....|..|--- .... ....|--- .... ....|--- .... ....
....|..|C-5 VF.. ....|D-5 .... ....|B-3 .... ....
 B-3|..|B-1 2A.. ....|--- .... ....|--- .... ....
....|..|R-- .... ....|--- .... ....|B-3 ...A ....
....|..|--- .... ....|--- .... ....|--- .... ....
....|..|C-4 AF.. ....|F#5 .... ....|B-3 .F.F ....
 B-3|..|B-1 2A.. ....|--- .... ....|--- .... ....
....|..|C-4 AF.7 ....|--- .... ....|B-3 ..17 ....
....|..|B-1 2... ....|--- .... ....|--- .... ....

[Pattern20]
....|..|C-4 AF.F ....|B-4 3F.F ....|G-3 4F1F ....
 G-3|..|G-1 2A.. ....|--- .... ....|--- .... ....
....|..|E-1 .F.7 ....|--- .... ....|E-3 ...7 ....
....|..|--- .... ....|--- .... ....|--- .... ....
 G-3|..|G-1 .A.F ....|C#5 ...7 ....|G-3 ...F ....
....|..|E-1 .F.7 ....|--- .... ....|--- .... ....
....|..|C-4 A..F ....|--- .... ....|G-3 .... ....
 G-3|..|G-1 2A.. ....|--- .... ....|--- .... ....
....|..|C-5 VF.. ....|D-5 .... ....|E-3 ...7 ....
....|..|E-1 2..7 ....|--- .... ....|--- .... ....
 G-3|..|G-1 .A.F ....|--- .... ....|G-3 ...F ....
....|..|--- .... ....|--- .... ....|--- .... ....
....|..|C-4 AF.. ....|A#5 ...F ....|G-3 .... ....
 G-3|..|G-1 2A.. ....|--- .... ....|--- .... ....
....|..|R-- .... ....|--- .... ....|--- .... ....
....|..|--- .... ....|--- .... ....|--- .... ....
....|..|C-3 RF.. ....|B-5 .... ....|G-3 .... ....
 G-3|..|G-1 2A.. ....|--- .... ....|--- .... ....
....|..|C-3 RF.. ....|--- .... ....|E-3 ...7 ....
....|..|G-1 2..A ....|--- .... ....|--- .... ....
....|..|C-4 A..F ....|A#5 .... ....|G-3 ...F ....
 G-3|..|G-1 2A.. ....|--- .... ....|--- .... ....
....|..|E-1 .F.7 ....|--- .... ....|E-3 ...7 ....
....|..|--- .... ....|--- .... ....|--- .... ....
....|..|C-5 V..F ....|B-5 .... ....|G-3 ...F ....
 G-3|..|G-1 2A.. ....|--- .... ....|--- .... ....
 G-3|..|G-1 .A.. ....|--- .... ....|G-3 .... ....
....|..|--- .... ....|--- .... ....|--- .... ....
....|..|C-4 AF.. ....|A#5 .... ....|G-3 ...7 ....
....|..|G-1 2..A ....|--- .... ....|--- .... ....
 G-3|..|G-1 .A.F ....|--- .... ....|G-3 ...F ....
....|..|G-1 .F.7 ....|--- .... ....|--- .... ....
....|..|C-4 A..F ....|D-5 .... ....|A-3 .... ....
 A-3|..|A-1 2A.. ....|--- .... ....|--- .... ....
....|..|G-1 .F.7 ....|--- .... ....|G-3 ...7 ....
....|..|--- .... ....|--- .... ....|--- .... ....
....|..|C-4 A..F ....|A#5 ...7 ....|A-3 ...F ....
 A-3|..|A-1 2A.. ....|--- .... ....|--- .... ....
 A-3|..|A-1 .A.. ....|--- .... ....|A-3 .... ....
....|..|--- .... ....|--- .... ....|--- .... ....
....|..|C-5 VF.. ....|B-5 .... ....|G-3 ...7 ....
....|..|G-1 2..7 ....|--- .... ....|--- .... ....
 A-3|..|A-1 .A.F ....|--- .... ....|A-3 ...F ....
....|..|--- .... ....|--- .... ....|--- .... ....
....|..|C-4 AF.. ....|A#5 ...F ....|A-3 .... ....
 A-3|..|A-1 2A.. ....|--- .... ....|--- .... ....
....|..|C-5 VF.. ....|--- .... ....|A-3 .... ....
....|..|--- .... ....|--- .... ....|--- .... ....
....|..|C-5 .... ....|B-5 .... ....|G-3 ...7 ....
 A-3|..|A-1 2A.. ....|--- .... ....|--- .... ....
....|..|C-5 VF.. ....|B-5 .... ....|A-3 ...F ....
....|..|--- .... ....|--- .... ....|--- .... ....
....|..|C-4 A... ....|A#5 .... ....|--- .... ....
 A-3|..|A-1 2A.. ....|--- .... ....|--- .... ....
....|..|G-1 .F.7 ....|A#5 .... ....|E-3 ..2. ....
....|..|--- .... ....|--- .... ....|--- .... ....
....|..|C-5 V..F ....|B-5 .... ....|A-3 ..1. ....
 A-3|..|A-1 2A.. ....|--- .... ....|--- .... ....
 A-3|..|A-1 .A.. ....|B-5 .... ....|A-3 .... ....
....|..|--- .... ....|--- .... ....|--- .... ....
....|..|C-5 VF.. ....|A#5 .... ....|A-3 ...7 ....
....|..|A-1 2..7 ....|--- .... ....|--- .... ....
 A-3|..|A-1 .A.F ....|A#5 .... ....|A-3 ...F ....
....|..|--- .... ....|--- .... ....|--- .... ....

[Pattern21]
....|..|C-4 AF.F ....|B-4 3F.F ....|B-3 4F1F ....
 B-3|..|B-1 2A.. ....|--- .... ....|--- .... ....
....|..|A-1 .F.7 ....|A#5 ...A ....|A-3 ...7 ....
....|..|--- .... ....|--- .... ....|--- .... ....
 B-3|..|B-1 .A.F ....|A#5 ...7 ....|B-3 ...F ....
....|..|A-1 .F.7 ....|--- .... ....|--- .... ....
....|..|C-4 A..F ....|B-5 ...A ....|B-3 .... ....
 B-3|..|B-1 2A.. ....|--- .... ....|--- .... ....
....|..|C-5 VF.. ....|B-5 ...7 ....|--- .... ....
....|..|A-1 2..7 ....|--- .... ....|--- .... ....
 B-3|..|B-1 .A.F ....|B-5 .... ....|B-3 .... ....
....|..|--- .... ....|--- .... ....|--- .... ....
....|..|C-4 AF.. ....|A#5 ...F ....|B-3 .... ....
 B-3|..|B-1 2A.. ....|--- .... ....|--- .... ....
....|..|R-- .... ....|A#5 ...7 ....|E-3 ..27 ....
....|..|--- .... ....|--- .... ....|--- .... ....
....|..|C-3 RF.. ....|B-5 ...F ....|B-3 ..1F ....
 B-3|..|B-1 2A.. ....|--- .... ....|--- .... ....
....|..|C-3 RF.. ....|B-5 ...7 ....|A-3 ...7 ....
....|..|B-1 2..A ....|--- .... ....|--- .... ....
....|..|C-4 A..F ....|A#5 ...F ....|B-3 ...F ....
 B-3|..|B-1 2A.. ....|--- .... ....|--- .... ....
....|..|A-1 .F.7 ....|A#5 ...7 ....|A-3 ...7 ....
....|..|--- .... ....|--- .... ....|--- .... ....
....|..|C-5 V..F ....|B-5 ...F ....|B-3 ...F ....
 B-3|..|B-1 2A.. ....|--- .... ....|--- .... ....
 B-3|..|B-1 .A.. ....|--- .... ....|B-3 .... ....
....|..|--- .... ....|--- .... ....|--- .... ....
....|..|C-4 AF.. ....|A#5 .... ....|B-3 ...7 ....
....|..|B-1 2..A ....|--- .... ....|--- .... ....
 B-3|..|B-1 .A.F ....|--- .... ....|B-3 ...F ....
....|..|B-1 .F.7 ....|--- .... ....|--- .... ....
....|..|C-4 A..F ....|D-5 .... ....|B-3 .... ....
 B-3|..|B-1 2A.. ....|--- .... ....|--- .... ....
....|..|B-1 .F.7 ....|--- .... ....|B-3 ...7 ....
....|..|--- .... ....|--- .... ....|--- .... ....
 B-3|..|B-1 .A.F ....|A#5 ...7 ....|B-3 ...F ....
....|..|B-1 .F.7 ....|--- .... ....|--- .... ....
....|..|C-4 A..F ....|--- .... ....|B-3 .... ....
 B-3|..|B-1 2A.. ....|--- .... ....|--- .... ....
....|..|C-5 VF.. ....|B-5 .... ....|B-3 ...7 ....
....|..|B-1 2..7 ....|--- .... ....|--- .... ....
 B-3|..|B-1 .A.F ....|--- .... ....|B-3 ...F ....
....|..|--- .... ....|--- .... ....|--- .... ....
....|..|C-4 AF.. ....|C#5 ...F ....|B-3 .... ....
 B-3|..|B-1 2A.. ....|--- .... ....|--- .... ....
....|..|R-- .... ....|--- .... ....|B-3 .... ....
....|..|--- .... ....|--- .... ....|--- .... ....
....|..|C-3 RF.. ....|D-5 .... ....|B-3 ...7 ....
 B-3|..|B-1 2A.. ....|--- .... ....|--- .... ....
....|..|C-3 RF.. ....|--- .... ....|B-3 ...F ....
 B-3|..|B-1 2A.. ....|--- .... ....|--- .... ....
....|..|C-4 AF.. ....|C#5 .... ....|--- .... ....
....|..|--- .... ....|--- .... ....|--- .... ....
 B-3|..|B-1 2A.. ....|--- .... ....|B-3 .... ....
....|..|--- .... ....|--- .... ....|--- .... ....
....|..|C-5 VF.. ....|D-5 .... ....|B-3 .... ....
 B-3|..|B-1 2A.. ....|--- .... ....|--- .... ....
....|..|R-- .... ....|--- .... ....|B-3 ...A ....
....|..|--- .... ....|--- .... ....|--- .... ....
....|..|C-4 AF.. ....|F#5 .... ....|B-3 .F.F ....
 B-3|..|B-1 2A.. ....|--- .... ....|--- .... ....
....|..|C-4 AF.7 ....|--- .... ....|B-3 ..17 ....
....|..|B-1 2... ....|--- .... ....|--- .... ....

[Pattern22]
....|..|C-4 AF.F ....|B-4 3F.F ....|G-3 4F1F ....
 G-3|..|G-1 2A.. ....|--- .... ....|--- .... ....
....|..|B-1 .F.7 ....|--- .... ....|B-3 ...7 ....
....|..|--- .... ....|--- .... ....|--- .... ....
 G-3|..|G-1 .A.F ....|C#5 ...7 ....|A-3 ..2F ....
....|..|B-1 .F.7 ....|--- .... ....|--- .... ....
....|..|C-4 A..F ....|--- .... ....|G-3 ..1. ....
 G-3|..|G-1 2A.. ....|--- .... ....|--- .... ....
....|..|C-5 VF.. ....|D-5 .... ....|B-3 .F.A ....
....|..|B-1 2..7 ....|--- .... ....|--- .... ....
 G-3|..|G-1 .A.F ....|--- .... ....|G-3 ..1F ....
....|..|B-1 .F.7 ....|--- .... ....|--- .... ....
....|..|C-4 A..F ....|A#5 ...F ....|G-3 .... ....
 G-3|..|G-1 2A.. ....|--- .... ....|--- .... ....
....|..|B-1 .F.7 ....|--- .... ....|B-3 ...7 ....
....|..|--- .... ....|--- .... ....|--- .... ....
....|..|C-3 R..F ....|B-5 .... ....|G-3 ...F ....
 G-3|..|G-1 2A.. ....|--- .... ....|--- .... ....
....|..|C-3 RF.. ....|--- .... ....|G-3 .... ....
 G-3|..|G-1 2A.. ....|--- .... ....|--- .... ....
....|..|C-4 AF.. ....|A#5 .... ....|B-3 .F.7 ....
....|..|B-1 2..7 ....|--- .... ....|--- .... ....
 G-3|..|G-1 .A.F ....|--- .... ....|G-3 ..1F ....
....|..|--- .... ....|--- .... ....|--- .... ....
....|..|C-5 VF.. ....|B-5 .... ....|G-3 .... ....
 G-3|..|G-1 2A.. ....|--- .... ....|--- .... ....
....|..|R-- .... ....|--- .... ....|--- .... ....
....|..|--- .... ....|--- .... ....|--- .... ....
....|..|C-4 AF.. ....|A#5 .... ....|G-3 .F.. ....
 G-3|..|G-1 2A.. ....|--- .... ....|--- .... ....
....|..|C-4 AF.7 ....|--- .... ....|G-3 ..17 ....
....|..|G-1 2... ....|--- .... ....|--- .... ....
....|..|C-4 A..F ....|D-5 .... ....|A-3 ...F ....
 A-3|..|A-1 2A.. ....|--- .... ....|--- .... ....
....|..|G-1 .F.7 ....|--- .... ....|G-3 ...7 ....
....|..|--- .... ....|--- .... ....|--- .... ....
....|..|C-4 A..F ....|A#5 ...7 ....|A-3 ...F ....
 A-3|..|A-1 2A.. ....|--- .... ....|--- .... ....
 A-3|..|A-1 .A.. ....|--- .... ....|A-3 .... ....
....|..|--- .... ....|--- .... ....|--- .... ....
....|..|C-5 VF.. ....|B-5 .... ....|G-3 ...7 ....
....|..|G-1 2..7 ....|--- .... ....|--- .... ....
 A-3|..|A-1 .A.F ....|--- .... ....|A-3 ...F ....
....|..|G-1 .F.7 ....|--- .... ....|--- .... ....
....|..|C-4 A..F ....|C#5 ...F ....|A-3 .... ....
 A-3|..|A-1 2A.. ....|--- .... ....|--- .... ....
....|..|G-1 .F.7 ....|--- .... ....|G-3 ...7 ....
....|..|--- .... ....|--- .... ....|--- .... ....
....|..|C-5 V... ....|B-5 ...7 ....|A-3 ..3F ....
....|..|G-1 2... ....|--- .... ....|--- .... ....
....|..|A-1 ...A ....|--- .... ....|E-3 .... ....
....|..|--- .... ....|--- .... ....|--- .... ....
....|..|C-4 A..7 ....|A#5 .... ....|A-3 .... ....
....|..|G-1 2... ....|--- .... ....|--- .... ....
....|..|A-1 ...A ....|--- .... ....|E-3 .... ....
....|..|--- .... ....|--- .... ....|--- .... ....
....|..|C-4 A..7 ....|D-5 .... ....|E-2 .F.. ....
....|..|A-1 2... ....|--- .... ....|--- .... ....
....|..|--- .... ....|--- .... ....|--- .... ....
....|..|--- .... ....|--- .... ....|--- .... ....
....|..|C-4 A... ....|R-- .... ....|E-3 .... ....
....|..|A-1 2... ....|--- .... ....|--- .... ....
....|..|A-1 .... ....|--- .... ....|A-3 ..17 ....
....|..|--- .... ....|--- .... ....|--- .... ....

[Pattern23]
....|..|C-4 AF.F ....|B-4 3F.F ....|G-3 4F1F ....
 G-3|..|G-1 2A.. ....|--- .... ....|--- .... ....
....|..|E-1 .F.7 ....|--- .... ....|E-3 ...7 ....
....|..|--- .... ....|--- .... ....|--- .... ....
 G-3|..|G-1 .A.F ....|C#5 ...7 ....|G-3 ...F ....
....|..|E-1 .F.7 ....|--- .... ....|--- .... ....
....|..|C-4 A..F ....|--- .... ....|G-3 .... ....
 G-3|..|G-1 2A.. ....|--- .... ....|--- .... ....
....|..|C-5 VF.. ....|D-5 .... ....|E-3 ...7 ....
....|..|E-1 2..7 ....|--- .... ....|--- .... ....
 G-3|..|G-1 .A.F ....|--- .... ....|G-3 ...F ....
....|..|--- .... ....|--- .... ....|--- .... ....
....|..|C-4 AF.. ....|A#5 ...F ....|G-3 .... ....
 G-3|..|G-1 2A.. ....|--- .... ....|--- .... ....
....|..|R-- .... ....|--- .... ....|--- .... ....
....|..|--- .... ....|--- .... ....|--- .... ....
....|..|C-3 RF.. ....|B-5 .... ....|G-3 .... ....
 G-3|..|G-1 2A.. ....|--- .... ....|--- .... ....
....|..|C-3 RF.. ....|--- .... ....|E-3 ...7 ....
....|..|G-1 2..A ....|--- .... ....|--- .... ....
....|..|C-4 A..F ....|A#5 .... ....|G-3 ...F ....
 G-3|..|G-1 2A.. ....|--- .... ....|--- .... ....
....|..|E-1 .F.7 ....|--- .... ....|E-3 ...7 ....
....|..|--- .... ....|--- .... ....|--- .... ....
....|..|C-5 V..F ....|B-5 .... ....|G-3 ...F ....
 G-3|..|G-1 2A.. ....|--- .... ....|--- .... ....
 G-3|..|G-1 .A.. ....|--- .... ....|G-3 .... ....
....|..|--- .... ....|--- .... ....|--- .... ....
....|..|C-4 AF.. ....|A#5 .... ....|G-3 ...7 ....
....|..|G-1 2..A ....|--- .... ....|--- .... ....
 G-3|..|G-1 .A.F ....|--- .... ....|G-3 ...F ....
....|..|G-1 .F.7 ....|--- .... ....|--- .... ....
....|..|C-4 A..F ....|D-5 .... ....|A-3 .... ....
 A-3|..|A-1 2A.. ....|--- .... ....|--- .... ....
....|..|G-1 .F.7 ....|--- .... ....|G-3 ...7 ....
....|..|--- .... ....|--- .... ....|--- .... ....
....|..|C-4 A..F ....|A#5 ...7 ....|A-3 ...F ....
 A-3|..|A-1 2A.. ....|--- .... ....|--- .... ....
 A-3|..|A-1 .A.. ....|--- .... ....|A-3 .... ....
....|..|--- .... ....|--- .... ....|--- .... ....
....|..|C-5 VF.. ....|B-5 .... ....|G-3 ...7 ....
....|..|G-1 2..7 ....|--- .... ....|--- .... ....
 A-3|..|A-1 .A.F ....|--- .... ....|A-3 ...F ....
....|..|--- .... ....|--- .... ....|--- .... ....
....|..|C-4 AF.. ....|B-5 ...F ....|A-3 .... ....
 A-3|..|A-1 2A.. ....|--- .... ....|--- .... ....
....|..|C-5 VF.. ....|--- .... ....|--- .... ....
....|..|--- .... ....|--- .... ....|--- .... ....
....|..|C-5 .... ....|B-5 ...7 ....|G-3 ...7 ....
 A-3|..|A-1 2A.. ....|--- .... ....|--- .... ....
....|..|C-5 VF.. ....|--- .... ....|G-3 .... ....
....|..|--- .... ....|--- .... ....|--- .... ....
....|..|C-4 A... ....|A#5 .... ....|--- .... ....
 A-3|..|A-1 2A.. ....|--- .... ....|--- .... ....
....|..|G-1 .F.7 ....|--- .... ....|G-3 .... ....
....|..|--- .... ....|--- .... ....|--- .... ....
....|..|C-5 V..F ....|D-5 .... ....|A-3 ...F ....
 A-3|..|A-1 2A.. ....|--- .... ....|--- .... ....
 A-3|..|A-1 .A.. ....|--- .... ....|--- .... ....
....|..|--- .... ....|--- .... ....|--- .... ....
....|..|C-5 VF.. ....|R-- .... ....|A-3 ...7 ....
....|..|A-1 2..7 ....|--- .... ....|--- .... ....
 A-3|..|A-1 .A.F ....|--- .... ....|A-3 .... ....
....|..|--- .... ....|--- .... ....|--- .... ....

[Pattern24]
....|..|C-4 AF.F ....|B-3 3F1F ....|C#5 4F.F ....
 B-3|..|B-1 2A.. ....|--- .... ....|--- .... ....
....|..|A-1 .F.7 ....|--- .... ....|A-3 ..17 ....
....|..|--- .... ....|--- .... ....|--- .... ....
....|..|C-4 A..F ....|B-3 .... ....|A-3 .... ....
 B-3|..|B-1 2A.. ....|--- .... ....|--- .... ....
 B-3|..|B-1 .A.. ....|B-3 .... ....|--- .... ....
....|..|--- .... ....|--- .... ....|--- .... ....
....|..|C-5 VF.. ....|R-- .... ....|R-- .... ....
....|..|A-1 2..7 ....|--- .... ....|--- .... ....
 B-3|..|B-1 .A.F ....|B-3 .... ....|--- .... ....
....|..|--- .... ....|--- .... ....|--- .... ....
....|..|C-4 AF.. ....|B-3 ...A ....|C#5 .F.A ....
....|..|A-1 2..7 ....|--- .... ....|--- .... ....
....|..|C-5 V..F ....|R-- .... ....|--- .... ....
....|..|R-- .... ....|--- .... ....|--- .... ....
....|..|C-3 R... ....|E-3 ..2F ....|A-3 ..17 ....
 E-3|..|E-1 2A.. ....|--- .... ....|--- .... ....
....|..|C-5 VF.. ....|B-3 ..1A ....|--- .... ....
....|..|--- .... ....|--- .... ....|--- .... ....
....|..|C-4 A... ....|B-3 ...F ....|--- .... ....
 B-3|..|B-1 2A.. ....|--- .... ....|--- .... ....
....|..|A-1 .F.7 ....|B-3 ...A ....|--- .... ....
....|..|--- .... ....|--- .... ....|--- .... ....
....|..|C-5 V..F ....|E-3 ...F ....|C#5 .F.. ....
 E-3|..|E-1 2A.. ....|--- .... ....|--- .... ....
....|..|C-5 VF.A ....|R-- .... ....|--- .... ....
....|..|R-- .... ....|--- .... ....|--- .... ....
....|..|C-4 A..F ....|B-3 ...7 ....|R-- .... ....
....|..|B-1 2..7 ....|--- .... ....|--- .... ....
....|..|B-1 .... ....|B-3 .... ....|--- .... ....
....|..|--- .... ....|--- .... ....|--- .... ....
....|..|C-4 A..F ....|B-3 ...F ....|C#5 ...F ....
 B-3|..|B-1 2A.. ....|--- .... ....|--- .... ....
....|..|B-1 .F.7 ....|B-3 ...7 ....|--- .... ....
....|..|--- .... ....|--- .... ....|--- .... ....
....|..|C-4 A..F ....|B-3 ...F ....|--- .... ....
 B-3|..|B-1 2A.. ....|--- .... ....|--- .... ....
 B-3|..|B-1 .A.. ....|B-3 .... ....|--- .... ....
....|..|R-- .... ....|--- .... ....|--- .... ....
....|..|C-5 VF.. ....|E-3 ..27 ....|R-- .... ....
....|..|E-1 2..7 ....|--- .... ....|--- .... ....
 B-3|..|B-1 .A.F ....|B-3 ..1F ....|--- .... ....
....|..|--- .... ....|--- .... ....|--- .... ....
....|..|C-4 AF.. ....|B-3 ...7 ....|C#5 ...A ....
....|..|B-1 2..7 ....|--- .... ....|--- .... ....
....|..|C-5 V..F ....|R-- .... ....|--- .... ....
....|..|R-- .... ....|--- .... ....|--- .... ....
....|..|C-3 R... ....|E-3 ..2F ....|R-- .... ....
 E-3|..|E-1 2A.. ....|--- .... ....|--- .... ....
....|..|C-5 VF.. ....|B-3 ..1A ....|--- .... ....
....|..|--- .... ....|--- .... ....|--- .... ....
....|..|C-4 A... ....|B-3 ...F ....|--- .... ....
 B-3|..|B-1 2A.. ....|--- .... ....|--- .... ....
....|..|B-1 .F.A ....|B-3 ...A ....|--- .... ....
....|..|--- .... ....|--- .... ....|--- .... ....
....|..|C-5 V..F ....|B-3 ...7 ....|C#5 ...7 ....
....|..|B-1 2..7 ....|--- .... ....|--- .... ....
....|..|C-5 V..A ....|R-- .... ....|--- .... ....
....|..|R-- .... ....|--- .... ....|--- .... ....
....|..|C-4 A..F ....|B-3 .... ....|R-- .... ....
....|..|B-1 2..7 ....|--- .... ....|--- .... ....
....|..|B-1 .... ....|B-3 .... ....|--- .... ....
....|..|--- .... ....|--- .... ....|--- .... ....

[Pattern25]
....|..|C-4 AF.F ....|B-3 3F1A ....|A-3 4F1F ....
 A-3|..|A-1 2A.. ....|--- .... ....|--- .... ....
....|..|B-1 .F.7 ....|B-3 ...7 ....|--- .... ....
....|..|--- .... ....|--- .... ....|--- .... ....
....|..|C-4 A..F ....|--- .... ....|--- .... ....
....|..|--- .... ....|--- .... ....|--- .... ....
 G#3|..|G#1 2A.. ....|R-- .... ....|G#3 .... ....
....|..|R-- .... ....|--- .... ....|--- .... ....
....|..|C-5 VF.. ....|E-3 ..2. ....|R-- .... ....
....|..|E-1 2..7 ....|--- .... ....|--- .... ....
....|..|C-5 V... ....|--- .... ....|--- .... ....
....|..|--- .... ....|--- .... ....|--- .... ....
....|..|C-4 A..F ....|B-3 ..1. ....|G-3 .... ....
 G-3|..|G-1 2A.. ....|--- .... ....|--- .... ....
....|..|C-5 VF.. ....|--- .... ....|--- .... ....
....|..|--- .... ....|--- .... ....|--- .... ....
....|..|C-3 R... ....|--- .... ....|--- .... ....
....|..|--- .... ....|--- .... ....|--- .... ....
....|..|C-5 V... ....|--- .... ....|G#3 ...A ....
....|..|--- .... ....|--- .... ....|--- .... ....
....|..|C-4 A... ....|R-- .... ....|F-3 ...F ....
 F-3|..|F-1 2A.. ....|--- .... ....|--- .... ....
....|..|R-- .... ....|--- .... ....|--- .... ....
....|..|--- .... ....|--- .... ....|--- .... ....
....|..|C-5 VF.. ....|--- .... ....|A-3 ...7 ....
....|..|A-1 2..7 ....|--- .... ....|--- .... ....
 E-3|..|E-1 .A.F ....|--- .... ....|E-3 ...F ....
....|..|--- .... ....|--- .... ....|--- .... ....
....|..|C-4 AF.. ....|--- .... ....|--- .... ....
....|..|--- .... ....|--- .... ....|B-2 .F.. ....
....|..|G#1 2..7 ....|--- .... ....|G#3 ..17 ....
....|..|--- .... ....|--- .... ....|--- .... ....
....|..|C-4 A..F ....|--- .... ....|A-3 ...F ....
 A-3|..|A-1 2A.. ....|--- .... ....|--- .... ....
....|..|R-- .... ....|--- .... ....|--- .... ....
....|..|--- .... ....|--- .... ....|--- .... ....
....|..|C-4 AF.. ....|--- .... ....|G-3 ...7 ....
....|..|G-1 2..7 ....|--- .... ....|--- .... ....
 G#3|..|G#1 .A.F ....|--- .... ....|G#3 ...F ....
....|..|--- .... ....|--- .... ....|--- .... ....
....|..|C-5 VF.. ....|--- .... ....|--- .... ....
....|..|--- .... ....|--- .... ....|B-2 .F.A ....
....|..|C-5 ...7 ....|--- .... ....|--- .... ....
....|..|--- .... ....|--- .... ....|--- .... ....
....|..|C-4 A..F ....|--- .... ....|G-3 ..1F ....
 G-3|..|G-1 2A.. ....|--- .... ....|--- .... ....
....|..|C-5 VF.. ....|--- .... ....|--- .... ....
....|..|--- .... ....|--- .... ....|--- .... ....
....|..|C-4 A... ....|--- .... ....|A-3 ..3. ....
 E-3|..|E-1 2A.. ....|--- .... ....|--- .... ....
....|..|C-4 AF.. ....|--- .... ....|E-3 .... ....
 E-3|..|E-1 2A.. ....|--- .... ....|--- .... ....
....|..|C-4 AF.. ....|--- .... ....|A-3 .... ....
 E-3|..|E-1 2A.. ....|--- .... ....|B-2 .F.7 ....
 E-3|..|E-1 .A.. ....|--- .... ....|E-3 ..3F ....
....|..|--- .... ....|--- .... ....|--- .... ....
....|..|C-5 VF.. ....|--- .... ....|E-3 .F.. ....
 E-4|..|E-2 2A.. ....|--- .... ....|--- .... ....
....|..|C-5 VF.A ....|--- .... ....|--- .... ....
....|..|--- .... ....|--- .... ....|--- .... ....
....|..|C-4 A..F ....|--- .... ....|A-2 .... ....
 A-3|..|A-1 2A.. ....|--- .... ....|--- .... ....
....|..|G#1 .F.7 ....|--- .... ....|G#3 ..17 ....
....|..|E-1 ...A ....|--- .... ....|--- .... ....

[Pattern26]
....|..|C-4 AF.F ....|B-3 3F1F ....|C#5 4F.F ....
 B-3|..|B-1 2A.. ....|--- .... ....|--- .... ....
....|..|E-1 .F.A ....|--- .... ....|E-3 ..3A ....
....|..|--- .... ....|--- .... ....|--- .... ....
....|..|C-4 A..F ....|B-3 .... ....|G-3 ..17 ....
 B-3|..|B-1 2A.. ....|--- .... ....|--- .... ....
 B-3|..|B-1 .A.. ....|B-3 .... ....|--- .... ....
....|..|--- .... ....|--- .... ....|--- .... ....
....|..|C-5 VF.. ....|--- .... ....|A-3 ..3. ....
....|..|E-1 2..7 ....|--- .... ....|--- .... ....
 B-3|..|B-1 .A.F ....|B-3 .... ....|E-3 .... ....
....|..|E-1 .F.7 ....|--- .... ....|--- .... ....
....|..|C-4 A..F ....|B-3 ...A ....|A-3 .... ....
....|..|E-1 2..7 ....|--- .... ....|--- .... ....
....|..|C-5 V..F ....|R-- .... ....|E-3 .... ....
....|..|R-- .... ....|--- .... ....|--- .... ....
....|..|C-3 R... ....|E-3 ..2F ....|E-3 .F.. ....
 E-3|..|E-1 2A.. ....|--- .... ....|--- .... ....
....|..|C-5 VF.. ....|B-3 ..1A ....|--- .... ....
....|..|--- .... ....|--- .... ....|--- .... ....
....|..|C-4 A... ....|B-3 ...F ....|A-2 .... ....
 B-3|..|B-1 2A.. ....|--- .... ....|--- .... ....
....|..|B-1 .F.A ....|B-3 ...A ....|--- .... ....
....|..|--- .... ....|--- .... ....|--- .... ....
....|..|C-5 V..F ....|E-3 ...F ....|C#5 .... ....
 E-3|..|E-1 2A.. ....|--- .... ....|--- .... ....
....|..|C-5 VF.A ....|R-- .... ....|--- .... ....
....|..|R-- .... ....|--- .... ....|--- .... ....
....|..|C-4 A..F ....|B-3 ...7 ....|R-- .... ....
....|..|B-1 2..7 ....|--- .... ....|--- .... ....
....|..|B-1 .... ....|B-3 .... ....|--- .... ....
....|..|--- .... ....|--- .... ....|--- .... ....
....|..|C-4 A..F ....|B-3 ...F ....|C#5 ...F ....
 B-3|..|B-1 2A.. ....|--- .... ....|--- .... ....
....|..|B-1 .F.7 ....|B-3 ...7 ....|--- .... ....
....|..|--- .... ....|--- .... ....|--- .... ....
....|..|C-4 A..F ....|B-3 ...F ....|--- .... ....
 B-3|..|B-1 2A.. ....|--- .... ....|--- .... ....
 B-3|..|B-1 .A.. ....|B-3 .... ....|--- .... ....
....|..|R-- .... ....|--- .... ....|--- .... ....
....|..|C-5 VF.. ....|E-3 ..27 ....|R-- .... ....
....|..|E-1 2..7 ....|--- .... ....|--- .... ....
 B-3|..|B-1 .A.F ....|B-3 ..1F ....|--- .... ....
....|..|--- .... ....|--- .... ....|--- .... ....
....|..|C-4 AF.. ....|B-3 ...7 ....|C#5 ...A ....
....|..|B-1 2..7 ....|--- .... ....|--- .... ....
....|..|C-5 V..F ....|R-- .... ....|--- .... ....
....|..|R-- .... ....|--- .... ....|--- .... ....
....|..|C-3 R... ....|E-3 ..2F ....|R-- .... ....
 E-3|..|E-1 2A.. ....|--- .... ....|--- .... ....
....|..|C-5 VF.. ....|B-3 ..1A ....|--- .... ....
....|..|--- .... ....|--- .... ....|--- .... ....
....|..|C-4 A... ....|B-3 ...F ....|--- .... ....
 B-3|..|B-1 2A.. ....|--- .... ....|--- .... ....
....|..|B-1 .F.A ....|B-3 ...A ....|--- .... ....
....|..|--- .... ....|--- .... ....|--- .... ....
....|..|C-5 V..F ....|B-3 ...7 ....|C#5 ...7 ....
....|..|B-1 2..7 ....|--- .... ....|--- .... ....
....|..|C-5 V..A ....|R-- .... ....|--- .... ....
....|..|R-- .... ....|--- .... ....|--- .... ....
....|..|C-4 A..F ....|B-3 .... ....|R-- .... ....
....|..|B-1 2..7 ....|--- .... ....|--- .... ....
....|..|B-1 .... ....|B-3 .... ....|--- .... ....
....|..|--- .... ....|--- .... ....|--- .... ....

[Pattern27]
....|..|C-4 AF.F ....|B-3 3F1A ....|A-3 4F1F ....
 A-3|..|A-1 2A.. ....|--- .... ....|--- .... ....
....|..|B-1 .F.7 ....|B-3 ...7 ....|--- .... ....
....|..|--- .... ....|--- .... ....|--- .... ....
....|..|C-4 A..F ....|--- .... ....|--- .... ....
....|..|--- .... ....|--- .... ....|--- .... ....
 G#3|..|G#1 2A.. ....|R-- .... ....|G#3 .... ....
....|..|R-- .... ....|--- .... ....|--- .... ....
....|..|C-5 VF.. ....|E-3 ..2. ....|R-- .... ....
....|..|E-1 2..7 ....|--- .... ....|--- .... ....
....|..|C-5 V... ....|--- .... ....|--- .... ....
....|..|--- .... ....|--- .... ....|--- .... ....
....|..|C-4 A..F ....|B-3 ..1. ....|G-3 .... ....
 G-3|..|G-1 2A.. ....|--- .... ....|--- .... ....
....|..|C-5 VF.. ....|--- .... ....|--- .... ....
....|..|--- .... ....|--- .... ....|--- .... ....
....|..|C-3 R... ....|--- .... ....|--- .... ....
....|..|--- .... ....|--- .... ....|--- .... ....
....|..|C-5 V... ....|--- .... ....|G#3 ...A ....
....|..|--- .... ....|--- .... ....|--- .... ....
....|..|C-4 A... ....|R-- .... ....|F-3 ...F ....
 F-3|..|F-1 2A.. ....|--- .... ....|--- .... ....
....|..|R-- .... ....|--- .... ....|--- .... ....
....|..|--- .... ....|--- .... ....|--- .... ....
....|..|C-5 VF.. ....|--- .... ....|A-3 ...7 ....
....|..|A-1 2..7 ....|--- .... ....|--- .... ....
 E-3|..|E-1 .A.F ....|--- .... ....|E-3 ...F ....
....|..|--- .... ....|--- .... ....|--- .... ....
....|..|C-4 AF.. ....|--- .... ....|--- .... ....
....|..|--- .... ....|--- .... ....|B-2 .F.. ....
....|..|G#1 2..7 ....|--- .... ....|G#3 ..17 ....
....|..|--- .... ....|--- .... ....|--- .... ....
....|..|C-4 A..F ....|--- .... ....|A-3 ...F ....
 A-3|..|A-1 2A.. ....|--- .... ....|--- .... ....
....|..|R-- .... ....|--- .... ....|--- .... ....
....|..|--- .... ....|--- .... ....|--- .... ....
....|..|C-4 AF.7 ....|--- .... ....|G-3 ...7 ....
....|..|G-1 2... ....|--- .... ....|--- .... ....
....|..|C-4 A..F ....|--- .... ....|G#3 ...F ....
 G#3|..|G#1 2A.. ....|--- .... ....|--- .... ....
....|..|C-3 RF.7 ....|--- .... ....|--- .... ....
....|..|--- .... ....|--- .... ....|B-2 .F.A ....
....|..|C-5 V... ....|--- .... ....|--- .... ....
....|..|--- .... ....|--- .... ....|--- .... ....
....|..|C-4 A..F ....|--- .... ....|G-3 ..1F ....
 G-3|..|G-1 2A.. ....|--- .... ....|--- .... ....
....|..|--- .... ....|--- .... ....|--- .... ....
....|..|--- .... ....|--- .... ....|--- .... ....
 E-3|..|E-1 .A.. ....|--- .... ....|A-3 ..3. ....
....|..|--- .... ....|--- .... ....|--- .... ....
....|..|C-4 AF.. ....|--- .... ....|E-3 .... ....
 E-3|..|E-1 2A.. ....|--- .... ....|--- .... ....
....|..|C-4 AF.. ....|--- .... ....|A-3 .... ....
 E-3|..|E-1 2A.. ....|--- .... ....|B-2 .F.7 ....
....|..|C-4 AF.. ....|--- .... ....|E-3 ..3F ....
 E-3|..|E-1 2A.. ....|--- .... ....|--- .... ....
....|..|C-5 VF.. ....|--- .... ....|E-3 .F.. ....
 E-4|..|E-2 2A.. ....|--- .... ....|--- .... ....
....|..|--- .... ....|--- .... ....|--- .... ....
....|..|--- .... ....|--- .... ....|--- .... ....
....|..|C-4 AF.. ....|--- .... ....|A-2 .... ....
 A-3|..|A-1 2A.. ....|--- .... ....|--- .... ....
....|..|C-4 AF.7 ....|--- .... ....|G#3 ..17 ....
....|..|G#1 2... ....|--- .... ....|--- .... ....

[Pattern28]
 B-3|..|B-1 2A.F ....|--- .... ....|F#5 5F.F ....
....|..|E-1 .F.A ....|--- .... ....|--- .... ....
....|..|C-4 A... ....|--- .... ....|E-3 4.3A ....
....|..|E-1 2... ....|--- .... ....|--- .... ....
....|..|C-4 A..7 ....|--- .... ....|G-3 ..17 ....
....|..|G-1 2... ....|--- .... ....|--- .... ....
....|..|--- .... ....|--- .... ....|--- .... ....
....|..|--- .... ....|--- .... ....|--- .... ....
 B-3|..|B-1 .A.F ....|--- .... ....|F#5 5F.F ....
....|..|A-1 .F.A ....|--- .... ....|--- .... ....
....|..|C-4 A..7 ....|--- .... ....|E-3 4.37 ....
....|..|E-1 2... ....|--- .... ....|--- .... ....
....|..|C-4 A... ....|--- .... ....|A-3 .... ....
....|..|E-1 2... ....|--- .... ....|--- .... ....
....|..|C-4 A... ....|--- .... ....|E-3 .... ....
....|..|E-1 2... ....|--- .... ....|--- .... ....
 B-3|..|B-1 .A.F ....|--- .... ....|F#5 5F.F ....
....|..|E-2 .F.7 ....|--- .... ....|--- .... ....
....|..|--- .... ....|--- .... ....|--- .... ....
....|..|--- .... ....|--- .... ....|--- .... ....
....|..|C-4 A... ....|--- .... ....|A-2 4..7 ....
....|..|A-1 2... ....|--- .... ....|--- .... ....
....|..|--- .... ....|--- .... ....|--- .... ....
....|..|--- .... ....|--- .... ....|--- .... ....
 B-3|..|B-1 .A.F ....|--- .... ....|F#5 5..F ....
....|..|--- .... ....|--- .... ....|--- .... ....
....|..|--- .... ....|--- .... ....|--- .... ....
....|..|--- .... ....|--- .... ....|--- .... ....
....|..|B-1 .F.A ....|--- .... ....|F#5 ...A ....
....|..|--- .... ....|--- .... ....|--- .... ....
....|..|--- .... ....|--- .... ....|F#5 ...F ....
....|..|--- .... ....|--- .... ....|--- .... ....
 B-3|..|B-1 .A.F ....|--- .... ....|F#5 .... ....
....|..|--- .... ....|--- .... ....|--- .... ....
....|..|--- .... ....|--- .... ....|--- .... ....
....|..|--- .... ....|--- .... ....|--- .... ....
....|..|B-1 .F.A ....|--- .... ....|F#5 ...A ....
....|..|--- .... ....|--- .... ....|--- .... ....
....|..|--- .... ....|--- .... ....|--- .... ....
....|..|--- .... ....|--- .... ....|--- .... ....
 B-3|..|B-1 .A.F ....|--- .... ....|F#5 ...F ....
....|..|--- .... ....|--- .... ....|--- .... ....
....|..|--- .... ....|--- .... ....|F#5 ...A ....
....|..|--- .... ....|--- .... ....|--- .... ....
....|..|B-1 .F.A ....|--- .... ....|F#5 .... ....
....|..|--- .... ....|--- .... ....|--- .... ....
....|..|--- .... ....|--- .... ....|--- .... ....
....|..|--- .... ....|--- .... ....|--- .... ....
 B-3|..|B-1 .A.F ....|--- .... ....|F#5 ...F ....
....|..|--- .... ....|--- .... ....|--- .... ....
....|..|--- .... ....|--- .... ....|--- .... ....
....|..|--- .... ....|--- .... ....|--- .... ....
....|..|B-1 .F.A ....|--- .... ....|F#5 ...A ....
....|..|--- .... ....|--- .... ....|--- .... ....
....|..|--- .... ....|--- .... ....|F#5 ...7 ....
....|..|--- .... ....|--- .... ....|--- .... ....
 B-3|..|B-1 .A.F ....|--- .... ....|F#5 ...F ....
....|..|--- .... ....|--- .... ....|--- .... ....
....|..|--- .... ....|--- .... ....|--- .... ....
....|..|--- .... ....|--- .... ....|--- .... ....
....|..|B-1 .F.A ....|--- .... ....|F#5 .... ....
....|..|--- .... ....|--- .... ....|--- .... ....
....|..|--- .... ....|--- .... ....|--- .... ....
....|..|--- .... ....|--- .... ....|--- .... ....

[Pattern29]
 B-3|..|B-1 2A.F ....|--- .... ....|F#5 5F.F ....
....|..|--- .... ....|--- .... ....|--- .... ....
....|..|--- .... ....|--- .... ....|--- .... ....
....|..|--- .... ....|--- .... ....|--- .... ....
....|..|B-1 .F.A ....|--- .... ....|F#5 ...A ....
....|..|--- .... ....|--- .... ....|--- .... ....
....|..|--- .... ....|--- .... ....|--- .... ....
....|..|--- .... ....|--- .... ....|--- .... ....
 B-3|..|B-1 .A.F ....|--- .... ....|F#5 ...F ....
....|..|--- .... ....|--- .... ....|--- .... ....
....|..|--- .... ....|--- .... ....|--- .... ....
....|..|--- .... ....|--- .... ....|--- .... ....
....|..|B-1 .F.A ....|--- .... ....|F#5 ...A ....
....|..|--- .... ....|--- .... ....|--- .... ....
....|..|--- .... ....|--- .... ....|--- .... ....
....|..|--- .... ....|--- .... ....|--- .... ....
 B-3|..|B-1 .A.F ....|--- .... ....|F#5 ...F ....
....|..|--- .... ....|--- .... ....|--- .... ....
....|..|--- .... ....|--- .... ....|--- .... ....
....|..|--- .... ....|--- .... ....|--- .... ....
....|..|B-1 .F.A ....|--- .... ....|F#5 ...7 ....
....|..|--- .... ....|--- .... ....|--- .... ....
....|..|--- .... ....|--- .... ....|--- .... ....
....|..|--- .... ....|--- .... ....|--- .... ....
 B-3|..|B-1 .A.F ....|--- .... ....|F#5 ...F ....
....|..|--- .... ....|--- .... ....|--- .... ....
....|..|--- .... ....|--- .... ....|--- .... ....
....|..|--- .... ....|--- .... ....|--- .... ....
....|..|B-1 .F.A ....|--- .... ....|F#5 ...A ....
....|..|--- .... ....|--- .... ....|--- .... ....
....|..|--- .... ....|--- .... ....|--- .... ....
....|..|--- .... ....|--- .... ....|--- .... ....
 B-3|..|B-1 .A.F ....|--- .... ....|F-5 ...F ....
....|..|--- .... ....|--- .... ....|--- .... ....
....|..|--- .... ....|--- .... ....|--- .... ....
....|..|--- .... ....|--- .... ....|--- .... ....
....|..|B-1 .F.A ....|--- .... ....|F#5 ...A ....
....|..|--- .... ....|--- .... ....|--- .... ....
....|..|--- .... ....|--- .... ....|--- .... ....
....|..|--- .... ....|--- .... ....|--- .... ....
 B-3|..|B-1 .A.F ....|--- .... ....|F-5 ...F ....
....|..|--- .... ....|--- .... ....|--- .... ....
....|..|--- .... ....|--- .... ....|--- .... ....
....|..|--- .... ....|--- .... ....|--- .... ....
....|..|B-1 .F.A ....|--- .... ....|F-5 ...A ....
....|..|--- .... ....|--- .... ....|--- .... ....
....|..|--- .... ....|--- .... ....|--- .... ....
....|..|--- .... ....|--- .... ....|--- .... ....
 B-3|..|B-1 .A.F ....|--- .... ....|D-5 ...F ....
....|..|--- .... ....|--- .... ....|--- .... ....
....|..|--- .... ....|--- .... ....|--- .... ....
....|..|--- .... ....|--- .... ....|--- .... ....
....|..|B-1 .F.A ....|--- .... ....|F-5 ...A ....
....|..|--- .... ....|--- .... ....|--- .... ....
....|..|--- .... ....|--- .... ....|D-5 ...F ....
....|..|--- .... ....|--- .... ....|--- .... ....
 B-3|..|B-1 .A.F ....|--- .... ....|F-5 ...7 ....
....|..|--- .... ....|--- .... ....|--- .... ....
....|..|--- .... ....|--- .... ....|--- .... ....
....|..|--- .... ....|--- .... ....|--- .... ....
....|..|B-1 .F.A ....|--- .... ....|F-5 ...F ....
....|..|--- .... ....|--- .... ....|--- .... ....
....|..|--- .... ....|--- .... ....|--- .... ....
....|..|--- .... ....|--- .... ....|--- .... ....

[Pattern30]
 B-3|..|B-1 2A.F ....|B-3 3F1F ....|F#5 5F.F ....
....|..|--- .... ....|--- .... ....|--- .... ....
....|..|--- .... ....|--- .... ....|D-5 ...A ....
....|..|--- .... ....|--- .... ....|--- .... ....
....|..|B-1 .F.A ....|--- .... ....|--- .... ....
....|..|--- .... ....|--- .... ....|--- .... ....
....|..|--- .... ....|--- .... ....|--- .... ....
....|..|--- .... ....|--- .... ....|--- .... ....
 B-3|..|B-1 .A.F ....|--- .... ....|F#5 ...F ....
....|..|--- .... ....|--- .... ....|--- .... ....
....|..|--- .... ....|--- .... ....|--- .... ....
....|..|--- .... ....|--- .... ....|--- .... ....
....|..|B-1 .F.A ....|B-3 ...A ....|F#5 ...A ....
....|..|--- .... ....|--- .... ....|--- .... ....
....|..|--- .... ....|--- .... ....|D-5 ...7 ....
....|..|--- .... ....|--- .... ....|--- .... ....
 B-3|..|B-1 .A.F ....|R-- .... ....|F#5 ...F ....
....|..|--- .... ....|--- .... ....|--- .... ....
....|..|--- .... ....|--- .... ....|--- .... ....
....|..|--- .... ....|--- .... ....|--- .... ....
....|..|B-1 .F.A ....|--- .... ....|F-5 ...7 ....
....|..|--- .... ....|--- .... ....|--- .... ....
....|..|--- .... ....|--- .... ....|--- .... ....
....|..|--- .... ....|--- .... ....|--- .... ....
 B-3|..|B-1 .A.F ....|B-3 ...7 ....|F#5 ...F ....
....|..|--- .... ....|--- .... ....|--- .... ....
....|..|--- .... ....|--- .... ....|--- .... ....
....|..|--- .... ....|--- .... ....|--- .... ....
....|..|B-1 .F.A ....|R-- .... ....|F#5 ...A ....
....|..|--- .... ....|--- .... ....|--- .... ....
....|..|--- .... ....|--- .... ....|F#5 ...F ....
....|..|--- .... ....|--- .... ....|--- .... ....
 B-3|..|B-1 .A.F ....|--- .... ....|F#5 .... ....
....|..|--- .... ....|--- .... ....|--- .... ....
....|..|--- .... ....|--- .... ....|--- .... ....
....|..|--- .... ....|--- .... ....|--- .... ....
....|..|B-1 .F.A ....|--- .... ....|F#5 ...A ....
....|..|--- .... ....|--- .... ....|--- .... ....
....|..|--- .... ....|--- .... ....|--- .... ....
....|..|--- .... ....|--- .... ....|--- .... ....
 B-3|..|B-1 .A.F ....|R-- .... ....|F#5 ...F ....
....|..|--- .... ....|--- .... ....|--- .... ....
....|..|--- .... ....|--- .... ....|F#5 ...A ....
....|..|--- .... ....|--- .... ....|--- .... ....
....|..|B-1 .F.A ....|--- .... ....|F#5 .... ....
....|..|--- .... ....|--- .... ....|--- .... ....
....|..|--- .... ....|--- .... ....|--- .... ....
....|..|--- .... ....|--- .... ....|--- .... ....
 B-3|..|B-1 .A.F ....|--- .... ....|F#5 ...F ....
....|..|--- .... ....|--- .... ....|--- .... ....
....|..|--- .... ....|--- .... ....|--- .... ....
....|..|--- .... ....|--- .... ....|--- .... ....
....|..|B-1 .F.A ....|--- .... ....|F#5 ...A ....
....|..|--- .... ....|--- .... ....|--- .... ....
....|..|--- .... ....|--- .... ....|F#5 ...7 ....
....|..|--- .... ....|--- .... ....|--- .... ....
 B-3|..|B-1 .A.F ....|--- .... ....|F#5 ...F ....
....|..|--- .... ....|--- .... ....|--- .... ....
....|..|--- .... ....|--- .... ....|--- .... ....
....|..|--- .... ....|--- .... ....|--- .... ....
....|..|B-1 .F.A ....|--- .... ....|F#5 .... ....
....|..|--- .... ....|--- .... ....|--- .... ....
....|..|--- .... ....|--- .... ....|--- .... ....
....|..|--- .... ....|--- .... ....|--- .... ....

[Pattern31]
....|..|C-5 VF.F ....|B-2 3F.F ....|F#5 5F.F ....
 B-3|..|B-1 2A.. ....|--- .... ....|--- .... ....
....|..|R-- .... ....|--- .... ....|D-5 ...A ....
....|..|--- .... ....|--- .... ....|--- .... ....
....|..|B-1 .F.A ....|--- .... ....|--- .... ....
....|..|--- .... ....|B-2 .... ....|--- .... ....
....|..|--- .... ....|--- .... ....|--- .... ....
....|..|--- .... ....|--- .... ....|--- .... ....
....|..|C-5 V..F ....|--- .... ....|F#5 ...F ....
 B-3|..|B-1 2A.. ....|--- .... ....|--- .... ....
....|..|R-- .... ....|--- .... ....|--- .... ....
....|..|--- .... ....|B-2 .... ....|--- .... ....
....|..|C-4 LF.. ....|B-2 ...A ....|F#5 ...A ....
....|..|B-1 2..A ....|--- .... ....|--- .... ....
....|..|R-- .... ....|--- .... ....|D-5 ...7 ....
....|..|--- .... ....|--- .... ....|--- .... ....
 B-3|..|B-1 .A.F ....|B-2 ...F ....|F#5 ...F ....
....|..|--- .... ....|B-2 .... ....|--- .... ....
....|..|C-5 VF.. ....|--- .... ....|--- .... ....
....|..|--- .... ....|--- .... ....|--- .... ....
....|..|C-5 ...A ....|--- .... ....|F-5 ...7 ....
....|..|B-1 2... ....|--- .... ....|--- .... ....
....|..|C-5 V..F ....|--- .... ....|--- .... ....
....|..|--- .... ....|B-2 .... ....|--- .... ....
....|..|C-5 .... ....|B-2 ...7 ....|F#5 ...F ....
 B-3|..|B-1 2A.. ....|--- .... ....|--- .... ....
....|..|R-- .... ....|--- .... ....|--- .... ....
....|..|--- .... ....|--- .... ....|--- .... ....
....|..|C-4 LF.. ....|B-2 ...F ....|F#5 ...A ....
....|..|R-- .... ....|B-2 ...7 ....|--- .... ....
....|..|C-5 V..A ....|--- .... ....|F#5 ...F ....
....|..|--- .... ....|--- .... ....|--- .... ....
....|..|C-5 ...F ....|B-2 ...F ....|F#5 .... ....
 B-3|..|B-1 2A.. ....|--- .... ....|--- .... ....
....|..|C-5 VF.A ....|--- .... ....|--- .... ....
....|..|--- .... ....|B-2 ...7 ....|--- .... ....
....|..|C-4 A..F ....|--- .... ....|F#5 ...A ....
....|..|B-1 2..A ....|B-2 ...F ....|--- .... ....
....|..|R-- .... ....|--- .... ....|--- .... ....
....|..|--- .... ....|--- .... ....|--- .... ....
....|..|C-5 V..F ....|B-2 ...7 ....|F#5 ...F ....
 B-3|..|B-1 2A.. ....|B-2 .... ....|--- .... ....
....|..|C-5 VF.7 ....|--- .... ....|F#5 ...A ....
....|..|--- .... ....|B-2 ...F ....|--- .... ....
....|..|C-4 L..F ....|B-2 ...A ....|F#5 .... ....
....|..|B-1 2..A ....|--- .... ....|--- .... ....
....|..|C-5 V..7 ....|--- .... ....|--- .... ....
....|..|--- .... ....|B-2 ...7 ....|--- .... ....
 B-3|..|B-1 2A.F ....|B-2 ...F ....|F#5 ...F ....
....|..|B-1 .F.7 ....|B-2 .... ....|--- .... ....
....|..|C-5 V..F ....|--- .... ....|--- .... ....
....|..|--- .... ....|--- .... ....|--- .... ....
....|..|C-4 L..7 ....|B-2 ...7 ....|F#5 ...A ....
....|..|B-1 2..A ....|--- .... ....|--- .... ....
....|..|C-5 V..F ....|--- .... ....|F#5 ...7 ....
....|..|--- .... ....|B-2 ...F ....|--- .... ....
....|..|C-5 .... ....|B-2 ...7 ....|F#5 ...F ....
 B-3|..|B-1 2A.. ....|--- .... ....|--- .... ....
....|..|R-- .... ....|--- .... ....|--- .... ....
....|..|--- .... ....|--- .... ....|--- .... ....
....|..|C-4 LF.. ....|B-2 ...F ....|F#5 .... ....
....|..|R-- .... ....|B-2 ...7 ....|--- .... ....
....|..|C-5 V..A ....|--- .... ....|--- .... ....
....|..|--- .... ....|--- .... ....|--- .... ....

[Pattern32]
....|..|C-5 VF.F ....|G-2 3F.F ....|F#5 5F.F ....
 B-3|..|B-1 2A.. ....|--- .... ....|--- .... ....
....|..|C-5 VF.A ....|--- .... ....|--- .... ....
....|..|--- .... ....|B-2 ...7 ....|--- .... ....
....|..|C-4 L..7 ....|--- .... ....|F#5 ...A ....
....|..|B-1 2..A ....|G-2 ...F ....|--- .... ....
....|..|R-- .... ....|--- .... ....|--- .... ....
....|..|--- .... ....|--- .... ....|--- .... ....
....|..|C-5 V..F ....|B-2 ...7 ....|F#5 ...F ....
 B-3|..|B-1 2A.. ....|B-2 .... ....|--- .... ....
....|..|C-5 VF.7 ....|--- .... ....|--- .... ....
....|..|--- .... ....|G-2 ...F ....|--- .... ....
....|..|C-4 L..F ....|G-2 ...A ....|F#5 ...A ....
....|..|B-1 2..A ....|--- .... ....|--- .... ....
....|..|C-5 V..7 ....|--- .... ....|--- .... ....
....|..|--- .... ....|B-2 ...7 ....|--- .... ....
 B-3|..|B-1 2A.F ....|G-2 ...F ....|F#5 ...F ....
....|..|B-1 .F.7 ....|G-2 .... ....|--- .... ....
....|..|C-5 V..F ....|--- .... ....|--- .... ....
....|..|--- .... ....|--- .... ....|--- .... ....
....|..|C-4 L..7 ....|B-2 ...7 ....|F#5 ...7 ....
....|..|B-1 2..A ....|--- .... ....|--- .... ....
....|..|C-5 V..F ....|--- .... ....|--- .... ....
....|..|--- .... ....|G-2 ...F ....|--- .... ....
....|..|C-5 .... ....|G-2 ...7 ....|F#5 ...F ....
 B-3|..|B-1 2A.. ....|--- .... ....|--- .... ....
....|..|R-- .... ....|--- .... ....|--- .... ....
....|..|--- .... ....|--- .... ....|--- .... ....
....|..|C-4 LF.. ....|G-2 ...F ....|F#5 ...A ....
....|..|R-- .... ....|G-2 ...7 ....|--- .... ....
....|..|C-5 V..A ....|--- .... ....|--- .... ....
....|..|--- .... ....|--- .... ....|--- .... ....
....|..|C-5 ...F ....|A-2 ...F ....|F-5 ...F ....
 B-3|..|B-1 2A.. ....|--- .... ....|--- .... ....
....|..|C-5 VF.A ....|--- .... ....|--- .... ....
....|..|--- .... ....|G-2 ...7 ....|--- .... ....
....|..|C-4 A..F ....|--- .... ....|F#5 ...A ....
....|..|B-1 2..A ....|A-2 ...F ....|--- .... ....
....|..|R-- .... ....|--- .... ....|--- .... ....
....|..|--- .... ....|--- .... ....|--- .... ....
....|..|C-5 V..F ....|G-2 ...7 ....|F-5 ...F ....
 B-3|..|B-1 2A.. ....|G-2 .... ....|--- .... ....
....|..|C-5 VF.7 ....|--- .... ....|--- .... ....
....|..|--- .... ....|A-2 ...F ....|--- .... ....
....|..|C-4 L..F ....|A-2 ...A ....|F-5 ...A ....
....|..|B-1 2..A ....|--- .... ....|--- .... ....
....|..|C-5 V..7 ....|--- .... ....|--- .... ....
....|..|--- .... ....|G-2 ...7 ....|--- .... ....
 B-3|..|B-1 2A.F ....|A-2 ...F ....|D-5 ...F ....
....|..|B-1 .F.7 ....|A-2 .... ....|--- .... ....
....|..|C-5 V..F ....|--- .... ....|--- .... ....
....|..|--- .... ....|--- .... ....|--- .... ....
....|..|C-4 L..7 ....|G-2 ...7 ....|F-5 ...A ....
....|..|B-1 2..A ....|--- .... ....|--- .... ....
....|..|C-5 V..F ....|--- .... ....|D-5 ...F ....
....|..|--- .... ....|A-2 ...F ....|--- .... ....
....|..|C-5 .... ....|A-2 ...7 ....|F-5 ...7 ....
 B-3|..|B-1 2A.. ....|--- .... ....|--- .... ....
....|..|R-- .... ....|--- .... ....|--- .... ....
....|..|--- .... ....|--- .... ....|--- .... ....
....|..|C-4 LF.. ....|A-2 ...F ....|F-5 ...F ....
....|..|R-- .... ....|A-2 ...7 ....|--- .... ....
....|..|C-5 V..A ....|--- .... ....|--- .... ....
....|..|--- .... ....|--- .... ....|--- .... ....

[Pattern33]
....|..|C-5 VF.F ....|E-2 3F.F ....|F#5 5F.F ....
 B-3|..|B-1 2A.. ....|--- .... ....|--- .... ....
....|..|C-5 VF.A ....|--- .... ....|D-5 ...A ....
....|..|--- .... ....|A-2 ...7 ....|--- .... ....
....|..|C-4 L..7 ....|--- .... ....|--- .... ....
....|..|B-1 2..A ....|E-2 ...F ....|--- .... ....
....|..|R-- .... ....|--- .... ....|--- .... ....
....|..|--- .... ....|--- .... ....|--- .... ....
....|..|C-5 V..F ....|A-2 ...7 ....|F#5 ...F ....
 B-3|..|B-1 2A.. ....|A-2 .... ....|--- .... ....
....|..|C-5 VF.7 ....|--- .... ....|--- .... ....
....|..|--- .... ....|E-2 ...F ....|--- .... ....
....|..|C-4 L..F ....|E-2 ...A ....|F#5 ...A ....
....|..|B-1 2..A ....|--- .... ....|--- .... ....
....|..|C-5 V..7 ....|--- .... ....|D-5 ...7 ....
....|..|--- .... ....|A-2 ...7 ....|--- .... ....
 B-3|..|B-1 2A.F ....|E-2 ...F ....|F#5 ...F ....
....|..|B-1 .F.7 ....|E-2 .... ....|--- .... ....
....|..|C-5 V..F ....|--- .... ....|--- .... ....
....|..|--- .... ....|--- .... ....|--- .... ....
....|..|C-4 L..7 ....|A-2 ...7 ....|F-5 ...7 ....
....|..|B-1 2..A ....|--- .... ....|--- .... ....
....|..|C-5 V..F ....|--- .... ....|--- .... ....
....|..|--- .... ....|E-2 ...F ....|--- .... ....
....|..|C-5 .... ....|E-2 ...7 ....|F#5 ...F ....
 B-3|..|B-1 2A.. ....|--- .... ....|--- .... ....
....|..|R-- .... ....|--- .... ....|--- .... ....
....|..|--- .... ....|--- .... ....|--- .... ....
....|..|C-4 LF.. ....|E-2 ...F ....|F#5 ...A ....
....|..|R-- .... ....|E-2 ...7 ....|--- .... ....
....|..|C-5 V..A ....|--- .... ....|F#5 ...F ....
....|..|--- .... ....|--- .... ....|--- .... ....
....|..|C-5 ...F ....|E-2 ...F ....|F#5 .... ....
 B-3|..|B-1 2A.. ....|--- .... ....|--- .... ....
....|..|C-5 VF.A ....|--- .... ....|--- .... ....
....|..|--- .... ....|E-2 ...7 ....|--- .... ....
....|..|C-4 A..F ....|--- .... ....|F#5 ...A ....
....|..|B-1 2..A ....|E-2 ...F ....|--- .... ....
....|..|R-- .... ....|--- .... ....|--- .... ....
....|..|--- .... ....|--- .... ....|--- .... ....
....|..|C-5 V..F ....|E-2 ...7 ....|F#5 ...F ....
 B-3|..|B-1 2A.. ....|E-2 .... ....|--- .... ....
....|..|C-5 VF.7 ....|--- .... ....|F#5 ...A ....
....|..|--- .... ....|E-2 ...F ....|--- .... ....
....|..|C-4 L..F ....|E-2 ...A ....|F#5 .... ....
....|..|B-1 2..A ....|--- .... ....|--- .... ....
....|..|C-5 V..7 ....|--- .... ....|--- .... ....
....|..|--- .... ....|E-2 ...7 ....|--- .... ....
 B-3|..|B-1 2A.F ....|E-2 ...F ....|F#5 ...F ....
....|..|B-1 .F.7 ....|E-2 .... ....|--- .... ....
....|..|C-5 V..F ....|--- .... ....|--- .... ....
....|..|--- .... ....|--- .... ....|--- .... ....
....|..|C-4 L..7 ....|E-2 ...7 ....|F#5 ...A ....
....|..|B-1 2..A ....|--- .... ....|--- .... ....
....|..|C-5 V..F ....|--- .... ....|F#5 ...7 ....
....|..|--- .... ....|E-2 ...F ....|--- .... ....
....|..|C-5 .... ....|E-2 ...7 ....|F#5 ...F ....
 B-3|..|B-1 2A.. ....|--- .... ....|--- .... ....
....|..|R-- .... ....|--- .... ....|--- .... ....
....|..|--- .... ....|--- .... ....|--- .... ....
....|..|C-4 LF.. ....|E-2 ...F ....|F#5 .... ....
....|..|R-- .... ....|E-2 ...7 ....|--- .... ....
....|..|C-5 V..A ....|--- .... ....|--- .... ....
....|..|--- .... ....|--- .... ....|--- .... ....

[Pattern34]
....|..|C-5 VF.F ....|G-2 3F.F ....|F#5 5F.F ....
 B-3|..|B-1 2A.. ....|--- .... ....|--- .... ....
....|..|C-5 VF.A ....|--- .... ....|--- .... ....
....|..|--- .... ....|E-2 ...7 ....|--- .... ....
....|..|C-4 L..7 ....|--- .... ....|F#5 ...A ....
....|..|B-1 2..A ....|G-2 ...F ....|--- .... ....
....|..|R-- .... ....|--- .... ....|--- .... ....
....|..|--- .... ....|--- .... ....|--- .... ....
....|..|C-5 V..F ....|E-2 ...7 ....|F#5 ...F ....
 B-3|..|B-1 2A.. ....|E-2 .... ....|--- .... ....
....|..|C-5 VF.7 ....|--- .... ....|--- .... ....
....|..|--- .... ....|G-2 ...F ....|--- .... ....
....|..|C-4 L..F ....|G-2 ...A ....|F#5 ...A ....
....|..|B-1 2..A ....|--- .... ....|--- .... ....
....|..|C-5 V..7 ....|--- .... ....|--- .... ....
....|..|--- .... ....|E-2 ...7 ....|--- .... ....
 B-3|..|B-1 2A.F ....|G-2 ...F ....|F#5 ...F ....
....|..|B-1 .F.7 ....|G-2 .... ....|--- .... ....
....|..|C-5 V..F ....|--- .... ....|--- .... ....
....|..|--- .... ....|--- .... ....|--- .... ....
....|..|C-4 L..7 ....|E-2 ...7 ....|F#5 ...7 ....
....|..|B-1 2..A ....|--- .... ....|--- .... ....
....|..|C-5 V..F ....|--- .... ....|--- .... ....
....|..|--- .... ....|G-2 ...F ....|--- .... ....
....|..|C-5 .... ....|G-2 ...7 ....|F#5 ...F ....
 B-3|..|B-1 2A.. ....|--- .... ....|--- .... ....
....|..|R-- .... ....|--- .... ....|--- .... ....
....|..|--- .... ....|--- .... ....|--- .... ....
....|..|C-4 LF.. ....|G-2 ...F ....|F#5 ...A ....
....|..|R-- .... ....|G-2 ...7 ....|--- .... ....
....|..|C-5 V..A ....|--- .... ....|--- .... ....
....|..|--- .... ....|--- .... ....|--- .... ....
....|..|C-5 ...F ....|A-2 ...F ....|F-5 ...F ....
 B-3|..|B-1 2A.. ....|--- .... ....|--- .... ....
....|..|C-5 VF.A ....|--- .... ....|--- .... ....
....|..|--- .... ....|G-2 ...7 ....|--- .... ....
....|..|C-4 A..F ....|--- .... ....|F#5 ...A ....
....|..|B-1 2..A ....|A-2 ...F ....|--- .... ....
....|..|R-- .... ....|--- .... ....|--- .... ....
....|..|--- .... ....|--- .... ....|--- .... ....
....|..|C-5 V..F ....|G-2 ...7 ....|F-5 ...F ....
 B-3|..|B-1 2A.. ....|G-2 .... ....|--- .... ....
....|..|C-5 VF.7 ....|--- .... ....|--- .... ....
....|..|--- .... ....|A-2 ...F ....|--- .... ....
....|..|C-4 L..F ....|A-2 ...A ....|F-5 ...A ....
....|..|B-1 2..A ....|--- .... ....|--- .... ....
....|..|C-5 V..7 ....|--- .... ....|--- .... ....
....|..|--- .... ....|G-2 ...7 ....|--- .... ....
....|..|C-5 ...F ....|E-3 ..3F ....|D-5 ...F ....
 B-3|..|B-1 2A.. ....|A-2 .F.A ....|--- .... ....
....|..|C-5 VF.. ....|A-3 ..3F ....|--- .... ....
....|..|--- .... ....|--- .... ....|--- .... ....
....|..|C-5 .... ....|E-3 .... ....|F-5 ...A ....
....|..|B-1 2..A ....|--- .... ....|--- .... ....
....|..|C-5 V..F ....|A-3 .... ....|D-5 ...F ....
....|..|--- .... ....|A-2 .F.A ....|--- .... ....
....|..|C-5 .... ....|E-3 ...F ....|F-5 ...7 ....
 B-3|..|B-1 2A.. ....|--- .... ....|--- .... ....
....|..|R-- .... ....|--- .... ....|--- .... ....
....|..|--- .... ....|--- .... ....|--- .... ....
....|..|C-5 VF.. ....|A-2 .... ....|F-5 ...F ....
....|..|B-1 2..A ....|A-2 ...7 ....|--- .... ....
....|..|C-5 V... ....|A-3 ..3A ....|--- .... ....
....|..|--- .... ....|--- .... ....|--- .... ....

[Pattern35]
....|..|C-5 VF.F ....|B-2 3F.F ....|D-5 4F.F ....
 B-3|..|B-1 2A.. ....|--- .... ....|--- .... ....
....|..|C-5 VF.A ....|A-3 ..3A ....|C#5 .... ....
....|..|--- .... ....|A-2 .F.7 ....|--- .... ....
....|..|C-4 L..7 ....|E-3 ...A ....|B-4 .... ....
....|..|B-1 2..A ....|B-2 ...F ....|--- .... ....
....|..|R-- .... ....|--- .... ....|--- .... ....
....|..|--- .... ....|--- .... ....|--- .... ....
....|..|C-5 V..F ....|E-3 ..37 ....|F#5 .... ....
 B-3|..|B-1 2A.. ....|--- .... ....|--- .... ....
....|..|C-5 VF.7 ....|A-3 .... ....|--- .... ....
....|..|--- .... ....|B-2 .F.F ....|--- .... ....
....|..|C-4 L..F ....|E-3 ..37 ....|B-4 .... ....
....|..|B-1 2..A ....|--- .... ....|--- .... ....
....|..|C-5 V..7 ....|A-3 .... ....|D-5 5..7 ....
....|..|--- .... ....|--- .... ....|--- .... ....
 B-3|..|B-1 2A.F ....|B-2 .F.F ....|D-5 4..F ....
....|..|B-1 .F.7 ....|B-2 .... ....|--- .... ....
....|..|C-5 V..F ....|--- .... ....|C#5 .... ....
....|..|--- .... ....|--- .... ....|--- .... ....
....|..|C-5 ...7 ....|A-2 ...7 ....|B-4 .... ....
....|..|B-1 2..A ....|--- .... ....|--- .... ....
....|..|C-5 V..F ....|--- .... ....|--- .... ....
....|..|--- .... ....|B-2 ...F ....|--- .... ....
....|..|C-5 .... ....|B-2 ...7 ....|F#5 .... ....
 B-3|..|B-1 2A.. ....|--- .... ....|--- .... ....
....|..|R-- .... ....|--- .... ....|C#5 ...7 ....
....|..|--- .... ....|--- .... ....|--- .... ....
....|..|C-4 LF.. ....|B-2 ...F ....|B-4 ...F ....
....|..|R-- .... ....|B-2 ...7 ....|--- .... ....
....|..|C-5 V..A ....|--- .... ....|C#5 ...A ....
....|..|--- .... ....|--- .... ....|--- .... ....
....|..|C-5 ...F ....|B-2 ...F ....|D-5 ...F ....
 B-3|..|B-1 2A.. ....|--- .... ....|--- .... ....
....|..|C-5 VF.A ....|--- .... ....|C#5 .... ....
....|..|--- .... ....|B-2 ...7 ....|--- .... ....
....|..|C-4 A..F ....|--- .... ....|B-4 .... ....
....|..|B-1 2..A ....|B-2 ...F ....|--- .... ....
....|..|R-- .... ....|--- .... ....|--- .... ....
....|..|--- .... ....|--- .... ....|--- .... ....
....|..|C-5 V..F ....|B-2 ...7 ....|F#5 .... ....
 B-3|..|B-1 2A.. ....|B-2 .... ....|--- .... ....
....|..|C-5 VF.7 ....|--- .... ....|C#5 ...7 ....
....|..|--- .... ....|B-2 ...F ....|--- .... ....
....|..|C-4 L..F ....|B-2 ...A ....|B-4 ...F ....
....|..|B-1 2..A ....|--- .... ....|--- .... ....
....|..|C-5 V..7 ....|--- .... ....|C#5 ...A ....
....|..|--- .... ....|B-2 ...7 ....|--- .... ....
 B-3|..|B-1 2A.F ....|B-2 ...F ....|D-5 ...F ....
....|..|B-1 .F.7 ....|B-2 .... ....|--- .... ....
....|..|C-5 V..F ....|--- .... ....|C#5 .... ....
....|..|--- .... ....|--- .... ....|--- .... ....
....|..|C-4 L..7 ....|B-2 ...7 ....|B-4 .... ....
....|..|B-1 2..A ....|--- .... ....|--- .... ....
....|..|C-5 V..F ....|--- .... ....|--- .... ....
....|..|--- .... ....|B-2 ...F ....|--- .... ....
....|..|C-5 .... ....|B-2 ...7 ....|F#5 .... ....
 B-3|..|B-1 2A.. ....|--- .... ....|--- .... ....
....|..|R-- .... ....|--- .... ....|C#5 ...7 ....
....|..|--- .... ....|--- .... ....|--- .... ....
....|..|C-4 LF.. ....|B-2 ...F ....|B-4 ...F ....
....|..|R-- .... ....|B-2 ...7 ....|--- .... ....
....|..|C-5 V..A ....|--- .... ....|C#5 ...A ....
....|..|--- .... ....|--- .... ....|--- .... ....

[Pattern36]
....|..|C-5 VF.F ....|G-2 3F.F ....|E-5 4F.F ....
 B-3|..|B-1 2A.. ....|--- .... ....|--- .... ....
....|..|C-5 VF.A ....|--- .... ....|E-4 .... ....
....|..|--- .... ....|B-2 ...7 ....|--- .... ....
....|..|C-4 L..7 ....|--- .... ....|E-5 .... ....
....|..|B-1 2..A ....|G-2 ...F ....|--- .... ....
....|..|R-- .... ....|--- .... ....|A-4 .... ....
....|..|--- .... ....|--- .... ....|--- .... ....
....|..|C-5 V..F ....|B-2 ...7 ....|E-5 .... ....
 B-3|..|B-1 2A.. ....|B-2 .... ....|--- .... ....
....|..|C-5 VF.7 ....|--- .... ....|C#5 ...7 ....
....|..|--- .... ....|G-2 ...F ....|--- .... ....
....|..|C-4 L..F ....|G-2 ...A ....|F#5 ...F ....
....|..|B-1 2..A ....|--- .... ....|--- .... ....
....|..|C-5 V..7 ....|--- .... ....|E-4 ...A ....
....|..|--- .... ....|B-2 ...7 ....|--- .... ....
 B-3|..|B-1 2A.F ....|G-2 ...F ....|E-5 ...F ....
....|..|B-1 .F.7 ....|G-2 .... ....|--- .... ....
....|..|C-5 V..F ....|--- .... ....|E-4 .... ....
....|..|--- .... ....|--- .... ....|--- .... ....
....|..|C-4 L..7 ....|B-2 ...7 ....|E-5 .... ....
....|..|B-1 2..A ....|--- .... ....|--- .... ....
....|..|C-5 V..F ....|--- .... ....|A-4 .... ....
....|..|--- .... ....|G-2 ...F ....|--- .... ....
....|..|C-5 .... ....|G-2 ...7 ....|E-5 .... ....
 B-3|..|B-1 2A.. ....|--- .... ....|--- .... ....
....|..|R-- .... ....|--- .... ....|E-4 ...7 ....
....|..|--- .... ....|--- .... ....|--- .... ....
....|..|C-4 LF.. ....|G-2 ...F ....|F#5 ...F ....
....|..|R-- .... ....|G-2 ...7 ....|--- .... ....
....|..|C-5 V..A ....|--- .... ....|A-4 ...7 ....
....|..|--- .... ....|--- .... ....|--- .... ....
....|..|C-5 ...F ....|A-2 ...F ....|E-5 ...F ....
 B-3|..|B-1 2A.. ....|--- .... ....|--- .... ....
....|..|C-5 VF.A ....|--- .... ....|E-4 .... ....
....|..|--- .... ....|G-2 ...7 ....|--- .... ....
....|..|C-4 A..F ....|--- .... ....|E-5 .... ....
....|..|B-1 2..A ....|A-2 ...F ....|--- .... ....
....|..|R-- .... ....|--- .... ....|A-4 .... ....
....|..|--- .... ....|--- .... ....|--- .... ....
....|..|C-5 V..F ....|G-2 ...7 ....|E-5 .... ....
 B-3|..|B-1 2A.. ....|G-2 .... ....|--- .... ....
....|..|C-5 VF.7 ....|--- .... ....|E-4 ...7 ....
....|..|--- .... ....|A-2 ...F ....|--- .... ....
....|..|C-4 L..F ....|A-2 ...A ....|F#5 ...F ....
....|..|B-1 2..A ....|--- .... ....|--- .... ....
....|..|C-5 V..7 ....|--- .... ....|A-4 ...7 ....
....|..|--- .... ....|G-2 ...7 ....|--- .... ....
 B-3|..|B-1 2A.F ....|A-2 ...F ....|E-5 ...F ....
....|..|B-1 .F.7 ....|A-2 .... ....|--- .... ....
....|..|C-5 V..F ....|--- .... ....|E-4 .... ....
....|..|--- .... ....|--- .... ....|--- .... ....
....|..|C-4 L..7 ....|G-2 ...7 ....|E-5 .... ....
....|..|B-1 2..A ....|--- .... ....|--- .... ....
....|..|C-5 V..F ....|--- .... ....|A-4 .... ....
....|..|--- .... ....|A-2 ...F ....|--- .... ....
....|..|C-5 .... ....|A-2 ...7 ....|E-5 .... ....
 B-3|..|B-1 2A.. ....|--- .... ....|--- .... ....
....|..|R-- .... ....|--- .... ....|E-4 ...7 ....
....|..|--- .... ....|--- .... ....|--- .... ....
....|..|C-4 LF.. ....|A-2 ...F ....|F#5 ...F ....
....|..|R-- .... ....|A-2 ...7 ....|--- .... ....
....|..|C-5 V..A ....|--- .... ....|A-4 ...7 ....
....|..|--- .... ....|--- .... ....|--- .... ....

[Pattern37]
....|..|C-5 VF.F ....|E-2 3F.F ....|B-4 4F.F ....
 B-3|..|B-1 2A.. ....|--- .... ....|--- .... ....
....|..|C-5 VF.A ....|--- .... ....|A-4 ...A ....
....|..|--- .... ....|A-2 ...7 ....|--- .... ....
....|..|C-4 L..7 ....|--- .... ....|B-4 ...F ....
....|..|B-1 2..A ....|E-2 ...F ....|--- .... ....
....|..|R-- .... ....|--- .... ....|--- .... ....
....|..|--- .... ....|--- .... ....|--- .... ....
....|..|C-5 V..F ....|A-2 ...7 ....|F#5 .... ....
 B-3|..|B-1 2A.. ....|A-2 .... ....|--- .... ....
....|..|C-5 VF.7 ....|--- .... ....|E-4 ...7 ....
....|..|--- .... ....|E-2 ...F ....|--- .... ....
....|..|C-4 L..F ....|E-2 ...A ....|B-4 ...F ....
....|..|B-1 2..A ....|--- .... ....|--- .... ....
....|..|C-5 V..7 ....|--- .... ....|A-4 ...7 ....
....|..|--- .... ....|A-2 ...7 ....|--- .... ....
 B-3|..|B-1 2A.F ....|E-2 ...F ....|D-5 ...F ....
....|..|B-1 .F.7 ....|E-2 .... ....|--- .... ....
....|..|C-5 V..F ....|--- .... ....|C#5 .... ....
....|..|--- .... ....|--- .... ....|--- .... ....
....|..|C-4 L..7 ....|A-2 ...7 ....|B-4 .... ....
....|..|B-1 2..A ....|--- .... ....|--- .... ....
....|..|C-5 V..F ....|--- .... ....|--- .... ....
....|..|--- .... ....|E-2 ...F ....|--- .... ....
....|..|C-5 .... ....|E-2 ...7 ....|F#5 .... ....
 B-3|..|B-1 2A.. ....|--- .... ....|--- .... ....
....|..|R-- .... ....|--- .... ....|--- .... ....
....|..|--- .... ....|--- .... ....|--- .... ....
....|..|C-4 LF.. ....|E-2 ...F ....|B-4 .... ....
....|..|R-- .... ....|E-2 ...7 ....|--- .... ....
....|..|C-5 V..A ....|--- .... ....|C#5 ...A ....
....|..|--- .... ....|--- .... ....|--- .... ....
....|..|C-5 ...F ....|E-2 ...F ....|D-5 ...F ....
 B-3|..|B-1 2A.. ....|--- .... ....|--- .... ....
....|..|C-5 VF.A ....|--- .... ....|C#5 .... ....
....|..|--- .... ....|E-2 ...7 ....|--- .... ....
....|..|C-4 A..F ....|--- .... ....|B-4 .... ....
....|..|B-1 2..A ....|E-2 ...F ....|--- .... ....
....|..|R-- .... ....|--- .... ....|--- .... ....
....|..|--- .... ....|--- .... ....|--- .... ....
....|..|C-5 V..F ....|E-2 ...7 ....|F#5 .... ....
 B-3|..|B-1 2A.. ....|E-2 .... ....|--- .... ....
....|..|C-5 VF.7 ....|--- .... ....|C#5 ...7 ....
....|..|--- .... ....|E-2 ...F ....|--- .... ....
....|..|C-4 L..F ....|E-2 ...A ....|B-4 ...F ....
....|..|B-1 2..A ....|--- .... ....|--- .... ....
....|..|C-5 V..7 ....|--- .... ....|C#5 ...A ....
....|..|--- .... ....|E-2 ...7 ....|--- .... ....
 B-3|..|B-1 2A.F ....|E-2 ...F ....|D-5 ...F ....
....|..|B-1 .F.7 ....|E-2 .... ....|--- .... ....
....|..|C-5 V..F ....|--- .... ....|C#5 .... ....
....|..|--- .... ....|--- .... ....|--- .... ....
....|..|C-4 L..7 ....|E-2 ...7 ....|B-4 .... ....
....|..|B-1 2..A ....|--- .... ....|--- .... ....
....|..|R-- .... ....|--- .... ....|--- .... ....
....|..|--- .... ....|E-2 ...F ....|--- .... ....
....|..|C-5 V..F ....|A-3 ..1. ....|F#5 .... ....
 A-3|..|A-1 2A.. ....|--- .... ....|--- .... ....
....|..|R-- .... ....|--- .... ....|C#5 ...7 ....
....|..|--- .... ....|--- .... ....|--- .... ....
....|..|C-4 AF.7 ....|E-2 .F.A ....|B-4 ...F ....
....|..|R-- .... ....|E-2 ...7 ....|--- .... ....
....|..|C-5 V..A ....|--- .... ....|C#5 ...A ....
....|..|--- .... ....|--- .... ....|--- .... ....

[Pattern38]
....|..|C-4 AF.F ....|B-3 3F1F ....|C#5 4F.F ....
 B-3|..|B-1 2A.. ....|--- .... ....|--- .... ....
....|..|A-1 .F.7 ....|A#5 .F.A ....|A-3 ..17 ....
....|..|--- .... ....|--- .... ....|--- .... ....
....|..|C-4 A..F ....|B-3 ..1F ....|A-3 .... ....
 B-3|..|B-1 2A.. ....|--- .... ....|--- .... ....
 B-3|..|B-1 .A.. ....|B-3 .... ....|A-3 .... ....
....|..|--- .... ....|--- .... ....|--- .... ....
....|..|C-5 VF.. ....|B-5 .F.7 ....|--- .... ....
....|..|A-1 2..7 ....|--- .... ....|--- .... ....
 B-3|..|B-1 .A.F ....|B-3 ..1F ....|A-3 .... ....
....|..|--- .... ....|--- .... ....|--- .... ....
....|..|C-4 AF.. ....|A#5 .F.7 ....|C#5 .F.A ....
....|..|A-1 2..7 ....|--- .... ....|--- .... ....
....|..|C-5 V..F ....|A#5 .... ....|E-3 ..27 ....
....|..|R-- .... ....|--- .... ....|--- .... ....
....|..|C-3 R... ....|E-3 ..2F ....|A#5 .F.F ....
 E-3|..|E-1 2A.. ....|--- .... ....|--- .... ....
....|..|C-5 VF.. ....|B-5 .F.7 ....|A-3 ..17 ....
....|..|--- .... ....|--- .... ....|R-- .... ....
....|..|C-4 A... ....|B-3 ..1F ....|--- .... ....
 B-3|..|B-1 2A.. ....|--- .... ....|--- .... ....
....|..|A-1 .F.7 ....|A#5 .F.7 ....|B-5 .F.F ....
....|..|--- .... ....|--- .... ....|--- .... ....
....|..|C-5 V..F ....|E-3 ..1F ....|C#5 ...7 ....
 E-3|..|E-1 2A.. ....|--- .... ....|R-- .... ....
....|..|C-5 VF.A ....|R-- .... ....|--- .... ....
....|..|R-- .... ....|--- .... ....|--- .... ....
....|..|C-4 A..F ....|B-3 ...7 ....|B-5 ...F ....
....|..|B-1 2..7 ....|--- .... ....|--- .... ....
....|..|B-1 .... ....|B-3 .... ....|R-- .... ....
....|..|--- .... ....|--- .... ....|R-- .... ....
....|..|C-4 A..F ....|B-3 ...F ....|C#5 .... ....
 B-3|..|B-1 2A.. ....|--- .... ....|--- .... ....
....|..|B-1 .F.7 ....|B-3 ...7 ....|B-5 ...A ....
....|..|--- .... ....|--- .... ....|--- .... ....
....|..|C-4 A..F ....|B-3 ...F ....|--- .... ....
 B-3|..|B-1 2A.. ....|--- .... ....|R-- .... ....
 B-3|..|B-1 .A.. ....|B-3 .... ....|--- .... ....
....|..|R-- .... ....|--- .... ....|--- .... ....
....|..|C-5 VF.. ....|E-3 ..27 ....|A#5 ...7 ....
....|..|E-1 2..7 ....|--- .... ....|--- .... ....
 B-3|..|B-1 .A.F ....|B-3 ..1F ....|R-- .... ....
....|..|--- .... ....|--- .... ....|R-- .... ....
....|..|C-4 AF.. ....|B-3 ...7 ....|C#5 ...A ....
....|..|B-1 2..7 ....|--- .... ....|--- .... ....
....|..|C-5 V..F ....|R-- .... ....|B-5 ...7 ....
....|..|R-- .... ....|--- .... ....|--- .... ....
....|..|C-3 R... ....|E-3 ..2F ....|R-- .... ....
 E-3|..|E-1 2A.. ....|--- .... ....|R-- .... ....
....|..|C-5 VF.. ....|B-3 ..1A ....|--- .... ....
....|..|--- .... ....|--- .... ....|--- .... ....
....|..|C-4 A... ....|B-3 ...F ....|B-5 .... ....
 B-3|..|B-1 2A.. ....|--- .... ....|--- .... ....
....|..|B-1 .F.A ....|B-3 ...A ....|R-- .... ....
....|..|--- .... ....|--- .... ....|--- .... ....
....|..|C-5 V..F ....|B-3 ...7 ....|C#5 .... ....
....|..|B-1 2..7 ....|--- .... ....|--- .... ....
....|..|C-5 V..A ....|R-- .... ....|--- .... ....
....|..|R-- .... ....|--- .... ....|--- .... ....
....|..|C-4 A..F ....|B-3 .... ....|R-- .... ....
....|..|B-1 2..7 ....|--- .... ....|--- .... ....
....|..|B-1 .... ....|B-3 .... ....|--- .... ....
....|..|--- .... ....|--- .... ....|--- .... ....

[Pattern39]
....|..|C-4 AF.F ....|B-3 3F1F ....|C#5 4F.F ....
 B-3|..|B-1 2A.. ....|--- .... ....|--- .... ....
....|..|B-1 .F.7 ....|B-3 ...7 ....|--- .... ....
....|..|--- .... ....|--- .... ....|--- .... ....
....|..|C-4 A..F ....|B-3 ...F ....|--- .... ....
 B-3|..|B-1 2A.. ....|--- .... ....|--- .... ....
 B-3|..|B-1 .A.. ....|B-3 .... ....|--- .... ....
....|..|R-- .... ....|--- .... ....|--- .... ....
....|..|C-5 VF.. ....|E-3 ..27 ....|R-- .... ....
....|..|E-1 2..7 ....|--- .... ....|--- .... ....
 B-3|..|B-1 .A.F ....|B-3 ..1F ....|--- .... ....
....|..|--- .... ....|--- .... ....|--- .... ....
....|..|C-4 AF.. ....|B-3 ...7 ....|C#5 ...A ....
....|..|B-1 2..7 ....|--- .... ....|--- .... ....
....|..|C-5 V..F ....|R-- .... ....|--- .... ....
....|..|R-- .... ....|--- .... ....|--- .... ....
....|..|C-3 R... ....|E-3 ..2F ....|A#5 ...F ....
 E-3|..|E-1 2A.. ....|--- .... ....|--- .... ....
....|..|C-5 VF.. ....|B-3 ..1A ....|--- .... ....
....|..|--- .... ....|--- .... ....|R-- .... ....
....|..|C-4 A... ....|B-3 ...F ....|--- .... ....
 B-3|..|B-1 2A.. ....|--- .... ....|--- .... ....
....|..|B-1 .F.A ....|B-3 ...A ....|B-5 .... ....
....|..|--- .... ....|--- .... ....|--- .... ....
....|..|C-5 V..F ....|B-3 ...7 ....|C#5 ...7 ....
....|..|B-1 2..7 ....|--- .... ....|R-- .... ....
....|..|C-5 V..A ....|R-- .... ....|--- .... ....
....|..|R-- .... ....|--- .... ....|--- .... ....
....|..|C-4 A..F ....|E-3 ...F ....|B-5 ...F ....
 E-3|..|E-1 2A.. ....|--- .... ....|--- .... ....
....|..|B-1 .F.7 ....|B-3 ...7 ....|R-- .... ....
....|..|--- .... ....|--- .... ....|R-- .... ....
....|..|C-4 A..F ....|B-3 ...A ....|A-3 ..1. ....
 A-3|..|A-1 2A.. ....|--- .... ....|--- .... ....
....|..|B-1 .F.7 ....|B-3 ...7 ....|B-5 .F.A ....
....|..|--- .... ....|--- .... ....|--- .... ....
....|..|C-4 A..F ....|--- .... ....|--- .... ....
....|..|--- .... ....|--- .... ....|R-- .... ....
 G#3|..|G#1 2A.. ....|R-- .... ....|G#3 ..1F ....
....|..|R-- .... ....|--- .... ....|--- .... ....
....|..|C-5 VF.. ....|E-3 ..2. ....|A#5 .F.7 ....
....|..|E-1 2..7 ....|--- .... ....|--- .... ....
....|..|C-5 V... ....|--- .... ....|R-- .... ....
....|..|--- .... ....|--- .... ....|R-- .... ....
....|..|C-4 A..F ....|B-3 ..1. ....|G-3 ..1F ....
 G-3|..|G-1 2A.. ....|--- .... ....|--- .... ....
....|..|C-5 VF.. ....|--- .... ....|B-5 .F.7 ....
....|..|--- .... ....|--- .... ....|--- .... ....
....|..|C-3 R... ....|--- .... ....|--- .... ....
....|..|--- .... ....|--- .... ....|R-- .... ....
....|..|C-5 V... ....|--- .... ....|G#3 ..1A ....
....|..|--- .... ....|--- .... ....|--- .... ....
....|..|C-4 A... ....|E-3 .... ....|F-3 ...F ....
 F-3|..|F-1 2A.. ....|--- .... ....|--- .... ....
....|..|R-- .... ....|--- .... ....|R-- .... ....
....|..|--- .... ....|--- .... ....|--- .... ....
....|..|C-5 VF.. ....|R-- .... ....|A-3 ...7 ....
....|..|A-1 2..7 ....|--- .... ....|--- .... ....
 E-3|..|E-1 .A.F ....|--- .... ....|E-3 ...F ....
....|..|--- .... ....|--- .... ....|--- .... ....
....|..|C-4 AF.. ....|--- .... ....|--- .... ....
....|..|--- .... ....|--- .... ....|B-2 .F.. ....
....|..|G#1 2..7 ....|--- .... ....|G#3 ..17 ....
....|..|--- .... ....|--- .... ....|--- .... ....

[Pattern40]
....|..|C-4 AF.F ....|B-3 3F1F ....|C#5 4F.F ....
 B-3|..|B-1 2A.. ....|--- .... ....|--- .... ....
....|..|R-- .... ....|--- .... ....|--- .... ....
....|..|--- .... ....|--- .... ....|--- .... ....
....|..|C-4 AF.. ....|B-3 .... ....|G-3 ..17 ....
 B-3|..|B-1 2A.. ....|--- .... ....|--- .... ....
 B-3|..|B-1 .A.. ....|B-3 .... ....|E-3 ...A ....
....|..|--- .... ....|--- .... ....|--- .... ....
....|..|C-5 VF.. ....|--- .... ....|--- .... ....
....|..|--- .... ....|--- .... ....|B-2 .F.. ....
 B-3|..|B-1 2A.. ....|B-3 .... ....|--- .... ....
....|..|--- .... ....|--- .... ....|--- .... ....
....|..|C-4 AF.. ....|B-3 ...A ....|F-3 ..17 ....
....|..|F-1 2..7 ....|--- .... ....|--- .... ....
....|..|C-5 V..F ....|R-- .... ....|--- .... ....
....|..|R-- .... ....|--- .... ....|--- .... ....
....|..|C-3 R... ....|E-3 ..2F ....|A#5 .F.F ....
 E-3|..|E-1 2A.. ....|--- .... ....|--- .... ....
....|..|C-5 VF.. ....|B-3 ..1A ....|E-3 ..17 ....
....|..|--- .... ....|--- .... ....|R-- .... ....
....|..|C-4 A... ....|B-3 ...F ....|--- .... ....
 B-3|..|B-1 2A.. ....|--- .... ....|B-2 .F.. ....
....|..|B-1 .F.A ....|B-3 ...A ....|B-5 ...F ....
....|..|--- .... ....|--- .... ....|--- .... ....
....|..|C-5 V..F ....|E-3 ...F ....|C#5 ...7 ....
 E-3|..|E-1 2A.. ....|--- .... ....|R-- .... ....
....|..|C-5 VF.A ....|R-- .... ....|--- .... ....
....|..|R-- .... ....|--- .... ....|--- .... ....
....|..|C-4 A..F ....|B-3 ...7 ....|B-5 ...F ....
....|..|B-1 2..7 ....|--- .... ....|--- .... ....
....|..|B-1 .... ....|B-3 .... ....|R-- .... ....
....|..|--- .... ....|--- .... ....|R-- .... ....
....|..|C-4 A..F ....|B-3 ...F ....|C#5 .... ....
 B-3|..|B-1 2A.. ....|--- .... ....|--- .... ....
....|..|B-1 .F.7 ....|B-3 ...7 ....|B-5 ...A ....
....|..|--- .... ....|--- .... ....|--- .... ....
....|..|C-4 A..F ....|B-3 ...F ....|--- .... ....
 B-3|..|B-1 2A.. ....|--- .... ....|R-- .... ....
 B-3|..|B-1 .A.. ....|B-3 .... ....|--- .... ....
....|..|R-- .... ....|--- .... ....|--- .... ....
....|..|C-5 VF.. ....|E-3 ..27 ....|A#5 ...7 ....
....|..|E-1 2..7 ....|--- .... ....|--- .... ....
 B-3|..|B-1 .A.F ....|B-3 ..1F ....|R-- .... ....
....|..|--- .... ....|--- .... ....|R-- .... ....
....|..|C-4 AF.. ....|B-3 ...7 ....|C#5 ...A ....
....|..|B-1 2..7 ....|--- .... ....|--- .... ....
....|..|C-5 V..F ....|R-- .... ....|B-5 ...7 ....
....|..|R-- .... ....|--- .... ....|--- .... ....
....|..|C-3 R... ....|E-3 ..2F ....|R-- .... ....
 E-3|..|E-1 2A.. ....|--- .... ....|R-- .... ....
....|..|C-5 VF.. ....|B-3 ..1A ....|--- .... ....
....|..|--- .... ....|--- .... ....|--- .... ....
....|..|C-4 A... ....|B-3 ...F ....|B-5 .... ....
 B-3|..|B-1 2A.. ....|--- .... ....|--- .... ....
....|..|B-1 .F.A ....|B-3 ...A ....|R-- .... ....
....|..|--- .... ....|--- .... ....|--- .... ....
....|..|C-5 V..F ....|B-3 ...7 ....|C#5 .... ....
....|..|B-1 2..7 ....|--- .... ....|--- .... ....
....|..|C-5 V..A ....|R-- .... ....|--- .... ....
....|..|R-- .... ....|--- .... ....|--- .... ....
....|..|C-4 A..F ....|B-3 .... ....|R-- .... ....
....|..|B-1 2..7 ....|--- .... ....|--- .... ....
....|..|B-1 .... ....|B-3 .... ....|--- .... ....
....|..|--- .... ....|--- .... ....|--- .... ....

[Pattern41]
....|..|C-4 AF.F ....|B-3 3F1F ....|C#5 4F.F ....
 B-3|..|B-1 2A.. ....|--- .... ....|--- .... ....
....|..|B-1 .F.7 ....|B-3 ...7 ....|--- .... ....
....|..|--- .... ....|--- .... ....|--- .... ....
....|..|C-4 A..F ....|B-3 ...F ....|--- .... ....
 B-3|..|B-1 2A.. ....|--- .... ....|--- .... ....
 B-3|..|B-1 .A.. ....|B-3 .... ....|--- .... ....
....|..|R-- .... ....|--- .... ....|--- .... ....
....|..|C-5 VF.. ....|E-3 ..27 ....|R-- .... ....
....|..|E-1 2..7 ....|--- .... ....|--- .... ....
 B-3|..|B-1 .A.F ....|B-3 ..1F ....|--- .... ....
....|..|--- .... ....|--- .... ....|--- .... ....
....|..|C-4 AF.. ....|B-3 ...7 ....|C#5 ...A ....
....|..|B-1 2..7 ....|--- .... ....|--- .... ....
....|..|C-5 V..F ....|R-- .... ....|--- .... ....
....|..|R-- .... ....|--- .... ....|--- .... ....
....|..|C-3 R... ....|E-3 ..2F ....|A#5 ...F ....
 E-3|..|E-1 2A.. ....|--- .... ....|--- .... ....
....|..|C-5 VF.. ....|B-3 ..1A ....|--- .... ....
....|..|--- .... ....|--- .... ....|R-- .... ....
....|..|C-4 A... ....|B-3 ...F ....|--- .... ....
 B-3|..|B-1 2A.. ....|--- .... ....|--- .... ....
....|..|B-1 .F.A ....|B-3 ...A ....|B-5 .... ....
....|..|--- .... ....|--- .... ....|--- .... ....
....|..|C-5 V..F ....|B-3 ...7 ....|C#5 ...7 ....
....|..|B-1 2..7 ....|--- .... ....|R-- .... ....
....|..|C-5 V..A ....|R-- .... ....|--- .... ....
....|..|R-- .... ....|--- .... ....|--- .... ....
....|..|C-4 A..F ....|E-3 ...F ....|B-5 ...F ....
 E-3|..|E-1 2A.. ....|--- .... ....|--- .... ....
....|..|B-1 .F.7 ....|B-3 ...7 ....|R-- .... ....
....|..|--- .... ....|--- .... ....|R-- .... ....
....|..|C-4 A..F ....|B-3 ...F ....|C#5 .... ....
 B-3|..|B-1 2A.. ....|--- .... ....|--- .... ....
....|..|B-1 .F.7 ....|B-3 ...7 ....|B-5 ...A ....
....|..|--- .... ....|--- .... ....|--- .... ....
....|..|C-4 A..F ....|B-3 ...F ....|--- .... ....
 B-3|..|B-1 2A.. ....|--- .... ....|R-- .... ....
 B-3|..|B-1 .A.. ....|B-3 .... ....|--- .... ....
....|..|R-- .... ....|--- .... ....|--- .... ....
....|..|C-5 VF.. ....|E-3 ..27 ....|A#5 ...7 ....
....|..|E-1 2..7 ....|--- .... ....|--- .... ....
 B-3|..|B-1 .A.F ....|B-3 ..1F ....|R-- .... ....
....|..|--- .... ....|--- .... ....|R-- .... ....
....|..|C-4 AF.. ....|B-3 ...7 ....|C#5 ...A ....
....|..|B-1 2..7 ....|--- .... ....|--- .... ....
....|..|C-5 V..F ....|R-- .... ....|B-5 ...7 ....
....|..|R-- .... ....|--- .... ....|--- .... ....
....|..|C-3 R... ....|E-3 ..2F ....|R-- .... ....
 E-3|..|E-1 2A.. ....|--- .... ....|R-- .... ....
....|..|C-5 VF.. ....|B-3 ..1A ....|--- .... ....
....|..|--- .... ....|--- .... ....|--- .... ....
....|..|C-4 A... ....|B-3 ...F ....|B-5 .... ....
 B-3|..|B-1 2A.. ....|--- .... ....|--- .... ....
....|..|B-1 .F.A ....|B-3 ...A ....|R-- .... ....
....|..|--- .... ....|--- .... ....|--- .... ....
....|..|C-5 V..F ....|B-3 ...7 ....|C#5 .... ....
....|..|B-1 2..7 ....|--- .... ....|--- .... ....
....|..|C-5 V..A ....|R-- .... ....|--- .... ....
....|..|R-- .... ....|--- .... ....|--- .... ....
....|..|C-4 A..F ....|B-3 .... ....|R-- .... ....
....|..|B-1 2..7 ....|--- .... ....|--- .... ....
....|..|B-1 .... ....|B-3 .... ....|--- .... ....
....|..|--- .... ....|--- .... ....|--- .... ....

[Pattern42]
 A-3|..|A-1 2A.F ....|B-3 3F1A ....|A-3 4F1F ....
....|..|B-1 .F.A ....|--- .... ....|--- .... ....
....|..|B-1 ...7 ....|B-3 ...7 ....|--- .... ....
....|..|--- .... ....|--- .... ....|--- .... ....
....|..|C-4 A... ....|--- .... ....|--- .... ....
....|..|--- .... ....|--- .... ....|--- .... ....
 G#3|..|G#1 2A.F ....|R-- .... ....|G#3 .... ....
....|..|R-- .... ....|--- .... ....|--- .... ....
....|..|C-3 RF.7 ....|E-3 ..2. ....|R-- .... ....
....|..|E-1 2... ....|--- .... ....|--- .... ....
....|..|C-5 V... ....|--- .... ....|--- .... ....
....|..|--- .... ....|--- .... ....|--- .... ....
 G-3|..|G-1 2A.F ....|B-3 ..1. ....|G-3 .... ....
....|..|B-1 .F.7 ....|--- .... ....|--- .... ....
....|..|--- .... ....|--- .... ....|--- .... ....
....|..|--- .... ....|--- .... ....|--- .... ....
....|..|C-5 V... ....|--- .... ....|--- .... ....
....|..|--- .... ....|--- .... ....|--- .... ....
....|..|G#1 2..A ....|--- .... ....|G#3 ...A ....
....|..|--- .... ....|--- .... ....|--- .... ....
 F-3|..|F-1 .A.F ....|R-- .... ....|F-3 ...F ....
....|..|R-- .... ....|--- .... ....|--- .... ....
....|..|--- .... ....|--- .... ....|--- .... ....
....|..|--- .... ....|--- .... ....|--- .... ....
....|..|A-1 .F.7 ....|--- .... ....|A-3 ...7 ....
....|..|--- .... ....|--- .... ....|--- .... ....
 E-3|..|E-1 .A.F ....|--- .... ....|E-3 ...F ....
....|..|--- .... ....|--- .... ....|--- .... ....
....|..|--- .... ....|--- .... ....|--- .... ....
....|..|--- .... ....|--- .... ....|--- .... ....
....|..|G#1 .F.7 ....|--- .... ....|G#3 ...7 ....
....|..|--- .... ....|--- .... ....|--- .... ....
 A-3|..|A-1 .A.F ....|--- .... ....|A-3 ...F ....
....|..|--- .... ....|--- .... ....|--- .... ....
....|..|--- .... ....|--- .... ....|--- .... ....
....|..|--- .... ....|--- .... ....|--- .... ....
....|..|G-1 .F.7 ....|--- .... ....|G-3 ...7 ....
....|..|--- .... ....|--- .... ....|--- .... ....
 G#3|..|G#1 .A.F ....|--- .... ....|G#3 ...F ....
....|..|--- .... ....|--- .... ....|--- .... ....
....|..|--- .... ....|--- .... ....|--- .... ....
....|..|--- .... ....|--- .... ....|--- .... ....
....|..|--- .... ....|--- .... ....|--- .... ....
....|..|--- .... ....|--- .... ....|--- .... ....
 G-3|..|G-1 .A.. ....|--- .... ....|G-3 .... ....
....|..|--- .... ....|--- .... ....|--- .... ....
....|..|--- .... ....|--- .... ....|--- .... ....
....|..|--- .... ....|--- .... ....|--- .... ....
 E-3|..|E-1 .A.. ....|--- .... ....|--- .... ....
....|..|--- .... ....|--- .... ....|--- .... ....
 E-3|..|E-1 .A.. ....|--- .... ....|E-3 ...7 ....
....|..|--- .... ....|--- .... ....|--- .... ....
 E-3|..|E-1 .A.. ....|--- .... ....|F-3 ...F ....
....|..|--- .... ....|--- .... ....|--- .... ....
 E-3|..|E-1 .A.. ....|--- .... ....|--- .... ....
....|..|--- .... ....|--- .... ....|--- .... ....
 E-4|..|E-2 .A.. ....|--- .... ....|A-3 ...7 ....
....|..|--- .... ....|--- .... ....|--- .... ....
....|..|C-5 VF.. ....|--- .... ....|E-3 ...F ....
....|..|--- .... ....|--- .... ....|--- .... ....
 A-3|..|A-1 2A.. ....|--- .... ....|--- .... ....
....|..|--- .... ....|--- .... ....|--- .... ....
....|..|G#1 .F.7 ....|--- .... ....|G#3 ...7 ....
....|..|--- .... ....|--- .... ....|--- .... ....

[Pattern43]
....|..|C-4 AF.F ....|A-3 3F1F ....|A-3 4F1F ....
 A-3|..|A-1 2A.. ....|--- .... ....|--- .... ....
....|..|E-1 .F.A ....|--- .... ....|--- .... ....
....|..|--- .... ....|--- .... ....|--- .... ....
....|..|C-4 A..F ....|--- .... ....|G-3 ...7 ....
....|..|--- .... ....|--- .... ....|--- .... ....
 G#3|..|G#1 2A.. ....|G#3 .... ....|G#3 ...F ....
....|..|--- .... ....|--- .... ....|--- .... ....
....|..|C-5 VF.. ....|--- .... ....|--- .... ....
....|..|--- .... ....|--- .... ....|--- .... ....
....|..|E-1 2..7 ....|--- .... ....|--- .... ....
....|..|--- .... ....|--- .... ....|--- .... ....
....|..|C-4 A..F ....|G-3 .... ....|G-3 .... ....
 G-3|..|G-1 2A.. ....|--- .... ....|--- .... ....
....|..|E-1 .F.7 ....|--- .... ....|--- .... ....
....|..|--- .... ....|--- .... ....|--- .... ....
....|..|C-3 R..F ....|--- .... ....|--- .... ....
....|..|--- .... ....|--- .... ....|--- .... ....
....|..|C-3 .... ....|G#3 ...A ....|E-3 ...7 ....
....|..|--- .... ....|--- .... ....|--- .... ....
....|..|C-4 A... ....|F-3 ...F ....|F-3 ...F ....
 F-3|..|F-1 2A.. ....|--- .... ....|--- .... ....
....|..|R-- .... ....|--- .... ....|--- .... ....
....|..|--- .... ....|--- .... ....|--- .... ....
....|..|C-5 VF.. ....|A-3 ...7 ....|A-3 ...7 ....
....|..|A-1 2..7 ....|--- .... ....|--- .... ....
 E-3|..|E-1 .A.F ....|E-3 ...F ....|E-3 ...F ....
....|..|--- .... ....|--- .... ....|--- .... ....
....|..|C-4 AF.. ....|--- .... ....|--- .... ....
....|..|--- .... ....|--- .... ....|--- .... ....
....|..|G#1 2..7 ....|G#3 ...7 ....|G#3 ...7 ....
....|..|--- .... ....|--- .... ....|--- .... ....
....|..|C-4 A..F ....|A-3 ...F ....|A-3 ...F ....
 A-3|..|A-1 2A.. ....|--- .... ....|--- .... ....
....|..|R-- .... ....|--- .... ....|--- .... ....
....|..|--- .... ....|--- .... ....|--- .... ....
....|..|C-4 AF.7 ....|G-3 ...7 ....|G-3 ...7 ....
....|..|G-1 2... ....|--- .... ....|--- .... ....
....|..|C-4 A..F ....|G#3 ...F ....|G#3 ...F ....
 G#3|..|G#1 2A.. ....|--- .... ....|--- .... ....
....|..|C-5 VF.. ....|--- .... ....|--- .... ....
....|..|--- .... ....|--- .... ....|--- .... ....
....|..|C-3 R..7 ....|--- .... ....|--- .... ....
....|..|--- .... ....|--- .... ....|--- .... ....
....|..|C-4 A..F ....|G-3 .... ....|G-3 .... ....
 G-3|..|G-1 2A.. ....|--- .... ....|--- .... ....
....|..|R-- .... ....|--- .... ....|--- .... ....
....|..|--- .... ....|--- .... ....|--- .... ....
....|..|C-3 RF.. ....|--- .... ....|--- .... ....
....|..|--- .... ....|--- .... ....|--- .... ....
....|..|C-3 .... ....|E-3 ...7 ....|E-3 ...7 ....
....|..|G#1 2..A ....|--- .... ....|--- .... ....
....|..|C-4 A..F ....|F-3 ...F ....|F-3 ...F ....
 F-3|..|F-1 2A.. ....|--- .... ....|--- .... ....
....|..|R-- .... ....|--- .... ....|--- .... ....
....|..|--- .... ....|--- .... ....|--- .... ....
....|..|C-5 VF.. ....|A-3 ...7 ....|A-3 ...7 ....
....|..|A-1 2..7 ....|--- .... ....|--- .... ....
 E-3|..|E-1 .A.F ....|E-3 ...F ....|E-3 ...F ....
....|..|--- .... ....|--- .... ....|--- .... ....
....|..|C-4 AF.. ....|--- .... ....|--- .... ....
....|..|--- .... ....|--- .... ....|--- .... ....
....|..|C-4 ...7 ....|G#3 ...7 ....|G#3 ...7 ....
....|..|G#1 2... ....|--- .... ....|--- .... ....

[Pattern44]
....|..|C-4 AF.F ....|A-3 3F1F ....|A-3 4F1F ....
 A-3|..|A-1 2A.. ....|--- .... ....|--- .... ....
....|..|R-- .... ....|--- .... ....|--- .... ....
....|..|--- .... ....|--- .... ....|--- .... ....
....|..|C-4 AF.7 ....|G-3 ...7 ....|G-3 ...7 ....
....|..|G-1 2... ....|--- .... ....|--- .... ....
....|..|C-4 A..F ....|G#3 ...F ....|G#3 ...F ....
 G#3|..|G#1 2A.. ....|--- .... ....|--- .... ....
....|..|C-5 VF.. ....|--- .... ....|--- .... ....
....|..|--- .... ....|--- .... ....|--- .... ....
....|..|C-3 R..7 ....|--- .... ....|--- .... ....
....|..|--- .... ....|--- .... ....|--- .... ....
....|..|C-4 A..F ....|G-3 .... ....|G-3 .... ....
 G-3|..|G-1 2A.. ....|--- .... ....|--- .... ....
....|..|R-- .... ....|--- .... ....|--- .... ....
....|..|--- .... ....|--- .... ....|--- .... ....
....|..|C-3 RF.. ....|--- .... ....|--- .... ....
....|..|--- .... ....|--- .... ....|--- .... ....
....|..|C-3 .... ....|E-3 ...7 ....|E-3 ...7 ....
....|..|G#1 2..A ....|--- .... ....|--- .... ....
....|..|C-4 A..F ....|F-3 ...F ....|F-3 ...F ....
 F-3|..|F-1 2A.. ....|--- .... ....|--- .... ....
....|..|R-- .... ....|--- .... ....|--- .... ....
....|..|--- .... ....|--- .... ....|--- .... ....
....|..|C-5 VF.. ....|A-3 ...7 ....|A-3 ...7 ....
....|..|A-1 2..7 ....|--- .... ....|--- .... ....
 E-3|..|E-1 .A.F ....|E-3 ...F ....|E-3 ...F ....
....|..|--- .... ....|--- .... ....|--- .... ....
....|..|C-4 AF.. ....|--- .... ....|--- .... ....
....|..|--- .... ....|B-2 .F.. ....|B-2 .F.. ....
....|..|C-4 ...7 ....|G#3 ..17 ....|G#3 ..17 ....
....|..|G#1 2... ....|--- .... ....|--- .... ....
....|..|C-4 A..F ....|A-3 ...F ....|A-3 ...F ....
 A-3|..|A-1 2A.. ....|--- .... ....|--- .... ....
....|..|R-- .... ....|--- .... ....|--- .... ....
....|..|--- .... ....|--- .... ....|--- .... ....
....|..|C-4 AF.. ....|G-3 ...7 ....|G-3 ...7 ....
....|..|G-1 2..7 ....|--- .... ....|--- .... ....
 G#3|..|G#1 .A.F ....|G#3 ...F ....|G#3 ...F ....
....|..|--- .... ....|--- .... ....|--- .... ....
....|..|C-5 VF.. ....|--- .... ....|--- .... ....
....|..|--- .... ....|B-2 .F.A ....|B-2 .F.A ....
....|..|C-3 R..7 ....|--- .... ....|--- .... ....
....|..|--- .... ....|--- .... ....|--- .... ....
....|..|C-4 A..F ....|G-3 ..1F ....|G-3 ..1F ....
 G-3|..|G-1 2A.. ....|--- .... ....|--- .... ....
....|..|C-5 VF.. ....|--- .... ....|--- .... ....
....|..|--- .... ....|--- .... ....|--- .... ....
....|..|C-3 R... ....|A-3 ..3. ....|A-3 ..3. ....
 E-3|..|E-1 2A.. ....|--- .... ....|--- .... ....
....|..|C-5 VF.. ....|E-3 .... ....|E-3 .... ....
 E-3|..|E-1 2A.. ....|--- .... ....|--- .... ....
....|..|C-4 AF.. ....|A-3 .... ....|A-3 .... ....
 E-3|..|E-1 2A.. ....|B-2 .F.7 ....|B-2 .F.7 ....
 E-3|..|E-1 .A.. ....|E-3 ..3F ....|E-3 ..3F ....
....|..|--- .... ....|--- .... ....|--- .... ....
....|..|C-5 VF.. ....|E-3 .F.. ....|E-3 .F.. ....
 E-4|..|E-2 2A.. ....|--- .... ....|--- .... ....
....|..|C-5 VF.A ....|--- .... ....|--- .... ....
....|..|--- .... ....|--- .... ....|--- .... ....
....|..|C-4 A..F ....|A-2 .... ....|A-2 .... ....
 A-3|..|A-1 2A.. ....|--- .... ....|--- .... ....
....|..|G#1 .F.7 ....|G#3 ..17 ....|G#3 ..17 ....
....|..|E-1 ...A ....|--- .... ....|--- .... ....

[Pattern45]
....|..|C-4 AF.F ....|A-3 3F1F ....|A-3 4F1F ....
 A-3|..|A-1 2A.. ....|--- .... ....|--- .... ....
....|..|E-1 .F.A ....|E-3 ..3A ....|E-3 ..3A ....
....|..|--- .... ....|--- .... ....|--- .... ....
....|..|C-4 A..F ....|G-3 ..17 ....|G-3 ..17 ....
....|..|G-1 2..7 ....|--- .... ....|--- .... ....
 G#3|..|G#1 .A.F ....|G#3 ...F ....|G#3 ...F ....
....|..|--- .... ....|--- .... ....|--- .... ....
....|..|C-5 VF.. ....|A-3 ..37 ....|A-3 ..37 ....
....|..|E-1 2..7 ....|--- .... ....|--- .... ....
....|..|C-5 V... ....|E-3 .... ....|E-3 .... ....
....|..|E-1 2... ....|--- .... ....|--- .... ....
....|..|C-4 A..F ....|G-3 ..1F ....|G-3 ..1F ....
 G-3|..|G-1 2A.. ....|--- .... ....|--- .... ....
....|..|E-1 .F.7 ....|E-3 ..37 ....|E-3 ..37 ....
....|..|--- .... ....|--- .... ....|--- .... ....
....|..|C-3 R..F ....|E-3 .F.. ....|E-3 .F.. ....
....|..|E-2 2..7 ....|--- .... ....|--- .... ....
....|..|C-3 R..F ....|G#3 ..1A ....|G#3 ..1A ....
....|..|--- .... ....|--- .... ....|--- .... ....
....|..|C-4 A... ....|F-3 ...F ....|F-3 ...F ....
 F-3|..|F-1 2A.. ....|--- .... ....|--- .... ....
....|..|R-- .... ....|--- .... ....|--- .... ....
....|..|--- .... ....|--- .... ....|--- .... ....
....|..|C-5 VF.. ....|A-3 ...7 ....|A-3 ...7 ....
....|..|A-1 2..7 ....|--- .... ....|--- .... ....
 E-3|..|E-1 .A.F ....|E-3 ...F ....|E-3 ...F ....
....|..|--- .... ....|--- .... ....|--- .... ....
....|..|C-4 AF.. ....|--- .... ....|--- .... ....
....|..|--- .... ....|--- .... ....|--- .... ....
....|..|G#1 2..7 ....|G#3 ...7 ....|G#3 ...7 ....
....|..|--- .... ....|--- .... ....|--- .... ....
....|..|C-4 A..F ....|A-3 ...F ....|A-3 ...F ....
 A-3|..|A-1 2A.. ....|--- .... ....|--- .... ....
....|..|R-- .... ....|--- .... ....|--- .... ....
....|..|--- .... ....|--- .... ....|--- .... ....
....|..|C-4 AF.7 ....|G-3 ...7 ....|G-3 ...7 ....
....|..|G-1 2... ....|--- .... ....|--- .... ....
....|..|C-4 A..F ....|G#3 ...F ....|G#3 ...F ....
 G#3|..|G#1 2A.. ....|--- .... ....|--- .... ....
....|..|C-5 VF.. ....|--- .... ....|--- .... ....
....|..|--- .... ....|--- .... ....|--- .... ....
....|..|C-3 R..7 ....|--- .... ....|--- .... ....
....|..|--- .... ....|--- .... ....|--- .... ....
....|..|C-4 A..F ....|G-3 .... ....|G-3 .... ....
 G-3|..|G-1 2A.. ....|--- .... ....|--- .... ....
....|..|R-- .... ....|--- .... ....|--- .... ....
....|..|--- .... ....|--- .... ....|--- .... ....
....|..|C-3 RF.. ....|--- .... ....|--- .... ....
....|..|--- .... ....|--- .... ....|--- .... ....
....|..|C-3 .... ....|E-3 ...7 ....|E-3 ...7 ....
....|..|G#1 2..A ....|--- .... ....|--- .... ....
....|..|C-4 A..F ....|F-3 ...F ....|F-3 ...F ....
 F-3|..|F-1 2A.. ....|--- .... ....|--- .... ....
....|..|R-- .... ....|--- .... ....|--- .... ....
....|..|--- .... ....|--- .... ....|--- .... ....
....|..|C-5 VF.. ....|A-3 ...7 ....|A-3 ...7 ....
....|..|A-1 2..7 ....|--- .... ....|--- .... ....
 E-3|..|E-1 .A.F ....|E-3 ...F ....|E-3 ...F ....
....|..|--- .... ....|--- .... ....|--- .... ....
....|..|C-4 AF.. ....|--- .... ....|--- .... ....
....|..|--- .... ....|--- .... ....|--- .... ....
....|..|C-4 ...7 ....|G#3 ...7 ....|G#3 ...7 ....
....|..|G#1 2... ....|--- .... ....|--- .... ....

[Pattern46]
....|..|C-4 AF.F ....|A-3 3F1F ....|A-3 4F1F ....
 A-3|..|A-1 2A.. ....|--- .... ....|--- .... ....
....|..|R-- .... ....|--- .... ....|--- .... ....
....|..|--- .... ....|--- .... ....|--- .... ....
....|..|C-4 AF.7 ....|G-3 ...7 ....|G-3 ...7 ....
....|..|G-1 2... ....|--- .... ....|--- .... ....
....|..|C-4 A..F ....|G#3 ...F ....|G#3 ...F ....
 G#3|..|G#1 2A.. ....|--- .... ....|--- .... ....
....|..|C-3 RF.7 ....|--- .... ....|--- .... ....
....|..|--- .... ....|--- .... ....|--- .... ....
....|..|C-3 .... ....|--- .... ....|--- .... ....
....|..|--- .... ....|--- .... ....|--- .... ....
....|..|C-4 A..F ....|G-3 .... ....|G-3 .... ....
 G-3|..|G-1 2A.. ....|--- .... ....|--- .... ....
....|..|R-- .... ....|--- .... ....|--- .... ....
....|..|--- .... ....|--- .... ....|--- .... ....
....|..|C-5 VF.7 ....|--- .... ....|--- .... ....
....|..|--- .... ....|--- .... ....|--- .... ....
....|..|E-1 2... ....|E-3 ...7 ....|E-3 ...7 ....
....|..|G#1 ...A ....|--- .... ....|--- .... ....
....|..|C-4 A..F ....|F-3 ...F ....|F-3 ...F ....
 F-3|..|F-1 2A.. ....|--- .... ....|--- .... ....
....|..|R-- .... ....|--- .... ....|--- .... ....
....|..|--- .... ....|--- .... ....|--- .... ....
....|..|C-4 AF.7 ....|A-3 ...7 ....|A-3 ...7 ....
....|..|A-1 2... ....|--- .... ....|--- .... ....
....|..|C-4 A..F ....|E-3 ...F ....|E-3 ...F ....
 E-3|..|E-1 2A.. ....|--- .... ....|--- .... ....
....|..|--- .... ....|--- .... ....|--- .... ....
....|..|--- .... ....|--- .... ....|--- .... ....
....|..|C-4 AF.7 ....|G#3 ...7 ....|G#3 ...7 ....
....|..|G#1 2... ....|--- .... ....|--- .... ....
....|..|C-4 A..F ....|A-3 ...F ....|A-3 ...F ....
 A-3|..|A-1 2A.. ....|--- .... ....|--- .... ....
....|..|--- .... ....|--- .... ....|--- .... ....
....|..|--- .... ....|--- .... ....|--- .... ....
....|..|C-4 AF.7 ....|G-3 ...7 ....|G-3 ...7 ....
....|..|G-1 2... ....|--- .... ....|--- .... ....
....|..|C-4 A..F ....|G#3 ...F ....|G#3 ...F ....
 G#3|..|G#1 2A.. ....|--- .... ....|--- .... ....
....|..|--- .... ....|--- .... ....|--- .... ....
....|..|--- .... ....|--- .... ....|--- .... ....
....|..|--- .... ....|--- .... ....|--- .... ....
....|..|--- .... ....|--- .... ....|--- .... ....
....|..|C-4 AF.. ....|G-3 .... ....|G-3 .... ....
 G-3|..|G-1 2A.. ....|--- .... ....|--- .... ....
....|..|--- .... ....|--- .... ....|--- .... ....
....|..|--- .... ....|--- .... ....|--- .... ....
 E-3|..|E-1 .A.. ....|A-3 ..3. ....|A-3 ..3. ....
....|..|--- .... ....|--- .... ....|--- .... ....
....|..|C-4 AF.. ....|E-3 .... ....|E-3 .... ....
 E-3|..|E-1 2A.. ....|--- .... ....|--- .... ....
....|..|C-4 AF.. ....|A-3 .... ....|A-3 .... ....
 E-3|..|E-1 2A.. ....|--- .... ....|--- .... ....
....|..|C-4 AF.. ....|E-3 .... ....|E-3 .... ....
 E-3|..|E-1 2A.. ....|--- .... ....|--- .... ....
....|..|C-5 VF.. ....|E-3 .F.. ....|E-3 .F.. ....
 E-4|..|E-2 2A.. ....|--- .... ....|--- .... ....
....|..|--- .... ....|--- .... ....|--- .... ....
....|..|--- .... ....|--- .... ....|--- .... ....
....|..|C-4 AF.. ....|A-2 .... ....|A-2 .... ....
 A-3|..|A-1 2A.. ....|--- .... ....|--- .... ....
....|..|C-4 AF.7 ....|G#3 ..17 ....|G#3 ..17 ....
....|..|G#1 2... ....|--- .... ....|--- .... ....

[Pattern47]
....|..|C-4 AF.F ....|A-3 3F1F ....|A-3 4F1F ....
 A-3|..|A-1 2A.. ....|--- .... ....|--- .... ....
....|..|C-4 AF.A ....|E-3 ..3A ....|E-3 ..3A ....
....|..|E-1 2... ....|--- .... ....|--- .... ....
....|..|C-4 A..F ....|G-3 ..17 ....|G-3 ..17 ....
....|..|G-1 2..7 ....|--- .... ....|--- .... ....
 G#3|..|G#1 .A.F ....|G#3 ...F ....|G#3 ...F ....
....|..|--- .... ....|--- .... ....|--- .... ....
....|..|C-5 VF.. ....|A-3 ..37 ....|A-3 ..37 ....
....|..|A-1 2..A ....|--- .... ....|--- .... ....
....|..|C-4 A..7 ....|E-3 .... ....|E-3 .... ....
....|..|E-1 2... ....|--- .... ....|--- .... ....
....|..|C-4 A..F ....|G-3 ..1F ....|G-3 ..1F ....
 G-3|..|G-1 2A.. ....|--- .... ....|--- .... ....
....|..|C-4 AF.7 ....|E-3 ..37 ....|E-3 ..37 ....
....|..|E-1 2... ....|--- .... ....|--- .... ....
....|..|C-3 R..F ....|E-3 .F.. ....|E-3 .F.. ....
....|..|E-2 2..7 ....|--- .... ....|--- .... ....
....|..|C-3 R..F ....|G#3 ..1A ....|G#3 ..1A ....
....|..|--- .... ....|--- .... ....|--- .... ....
....|..|C-4 A... ....|F-3 ...F ....|F-3 ...F ....
 F-3|..|F-1 2A.. ....|--- .... ....|--- .... ....
....|..|R-- .... ....|--- .... ....|--- .... ....
....|..|--- .... ....|--- .... ....|--- .... ....
....|..|C-5 VF.. ....|A-3 ...7 ....|A-3 ...7 ....
....|..|A-1 2..7 ....|--- .... ....|--- .... ....
 E-3|..|E-1 .A.F ....|E-3 ...F ....|E-3 ...F ....
....|..|--- .... ....|--- .... ....|--- .... ....
....|..|C-4 AF.. ....|--- .... ....|--- .... ....
....|..|--- .... ....|--- .... ....|--- .... ....
....|..|G#1 2..7 ....|G#3 ...7 ....|G#3 ...7 ....
....|..|--- .... ....|--- .... ....|--- .... ....
....|..|C-4 A..F ....|A-3 ...F ....|A-3 ...F ....
 A-3|..|A-1 2A.. ....|--- .... ....|--- .... ....
....|..|R-- .... ....|--- .... ....|--- .... ....
....|..|--- .... ....|--- .... ....|--- .... ....
....|..|C-4 AF.7 ....|G-3 ...7 ....|G-3 ...7 ....
....|..|G-1 2... ....|--- .... ....|--- .... ....
....|..|C-4 A..F ....|G#3 ...F ....|G#3 ...F ....
 G#3|..|G#1 2A.. ....|--- .... ....|--- .... ....
....|..|C-5 VF.. ....|--- .... ....|--- .... ....
....|..|--- .... ....|--- .... ....|--- .... ....
....|..|C-3 R..7 ....|--- .... ....|--- .... ....
....|..|--- .... ....|--- .... ....|--- .... ....
....|..|C-4 A..F ....|G-3 .... ....|G-3 .... ....
 G-3|..|G-1 2A.. ....|--- .... ....|--- .... ....
....|..|R-- .... ....|--- .... ....|--- .... ....
....|..|--- .... ....|--- .... ....|--- .... ....
....|..|C-3 RF.. ....|--- .... ....|--- .... ....
....|..|--- .... ....|--- .... ....|--- .... ....
....|..|C-3 .... ....|E-3 ...7 ....|E-3 ...7 ....
....|..|G#1 2..A ....|--- .... ....|--- .... ....
....|..|C-4 A..F ....|F-3 ...F ....|F-3 ...F ....
 F-3|..|F-1 2A.. ....|--- .... ....|--- .... ....
....|..|R-- .... ....|--- .... ....|--- .... ....
....|..|--- .... ....|--- .... ....|--- .... ....
....|..|C-5 VF.. ....|A-3 ...7 ....|A-3 ...7 ....
....|..|A-1 2..7 ....|--- .... ....|--- .... ....
 E-3|..|E-1 .A.F ....|E-3 ...F ....|E-3 ...F ....
....|..|--- .... ....|--- .... ....|--- .... ....
....|..|C-4 AF.. ....|--- .... ....|--- .... ....
....|..|--- .... ....|--- .... ....|--- .... ....
....|..|C-4 ...7 ....|G#3 ...7 ....|G#3 ...7 ....
....|..|G#1 2... ....|--- .... ....|--- .... ....

[Pattern48]
....|..|C-4 AF.A ....|A-3 3F3A ....|F#5 5F.F ....
....|..|E-1 2... ....|--- .... ....|--- .... ....
....|..|C-4 A... ....|E-3 .... ....|E-3 4.3A ....
....|..|E-1 2... ....|--- .... ....|--- .... ....
....|..|C-4 A..7 ....|G-3 ..17 ....|G-3 ..17 ....
....|..|G-1 2... ....|--- .... ....|--- .... ....
....|..|--- .... ....|--- .... ....|--- .... ....
....|..|--- .... ....|--- .... ....|--- .... ....
....|..|E-1 .... ....|A-3 ..3. ....|F#5 5F.F ....
....|..|A-1 ...A ....|--- .... ....|--- .... ....
....|..|C-4 A..7 ....|E-3 .... ....|E-3 4.37 ....
....|..|E-1 2... ....|--- .... ....|--- .... ....
....|..|C-4 A... ....|A-3 .... ....|A-3 .... ....
....|..|E-1 2... ....|--- .... ....|--- .... ....
....|..|C-4 A... ....|E-3 .... ....|E-3 .... ....
....|..|E-1 2... ....|--- .... ....|--- .... ....
....|..|C-5 V... ....|E-3 .F.. ....|F#5 5F.F ....
....|..|E-2 2... ....|--- .... ....|--- .... ....
....|..|--- .... ....|--- .... ....|--- .... ....
....|..|--- .... ....|--- .... ....|--- .... ....
....|..|C-4 A... ....|A-2 .... ....|A-2 4..7 ....
....|..|A-1 2... ....|--- .... ....|--- .... ....
....|..|--- .... ....|--- .... ....|--- .... ....
....|..|--- .... ....|--- .... ....|--- .... ....
....|..|R-- .... ....|R-- .... ....|F#5 5..F ....
....|..|--- .... ....|--- .... ....|--- .... ....
....|..|--- .... ....|--- .... ....|--- .... ....
....|..|--- .... ....|--- .... ....|--- .... ....
....|..|--- .... ....|--- .... ....|F#5 ...A ....
....|..|--- .... ....|--- .... ....|--- .... ....
....|..|--- .... ....|--- .... ....|F#5 ...F ....
....|..|--- .... ....|--- .... ....|--- .... ....
....|..|--- .... ....|--- .... ....|F#5 .... ....
....|..|--- .... ....|--- .... ....|--- .... ....
....|..|--- .... ....|--- .... ....|--- .... ....
....|..|--- .... ....|--- .... ....|--- .... ....
....|..|--- .... ....|--- .... ....|F#5 ...A ....
....|..|--- .... ....|--- .... ....|--- .... ....
....|..|--- .... ....|--- .... ....|--- .... ....
....|..|--- .... ....|--- .... ....|--- .... ....
....|..|--- .... ....|--- .... ....|F#5 ...F ....
....|..|--- .... ....|--- .... ....|--- .... ....
....|..|--- .... ....|--- .... ....|F#5 ...A ....
....|..|--- .... ....|--- .... ....|--- .... ....
....|..|--- .... ....|--- .... ....|F#5 .... ....
....|..|--- .... ....|--- .... ....|--- .... ....
....|..|--- .... ....|--- .... ....|--- .... ....
....|..|--- .... ....|--- .... ....|--- .... ....
....|..|--- .... ....|--- .... ....|F#5 ...F ....
....|..|--- .... ....|--- .... ....|--- .... ....
....|..|--- .... ....|--- .... ....|--- .... ....
....|..|--- .... ....|--- .... ....|--- .... ....
....|..|--- .... ....|--- .... ....|F#5 ...A ....
....|..|--- .... ....|--- .... ....|--- .... ....
....|..|--- .... ....|--- .... ....|F#5 ...7 ....
....|..|--- .... ....|--- .... ....|--- .... ....
....|..|--- .... ....|--- .... ....|F#5 ...F ....
....|..|--- .... ....|--- .... ....|--- .... ....
....|..|--- .... ....|--- .... ....|--- .... ....
....|..|--- .... ....|--- .... ....|--- .... ....
....|..|--- .... ....|--- .... ....|F#5 .... ....
....|..|--- .... ....|--- .... ....|--- .... ....
....|..|--- .... ....|--- .... ....|--- .... ....
....|..|--- .... ....|--- .... ....|--- .... ....

[Pattern49]
....|..|--- .... ....|--- .... ....|F#5 5F.F ....
....|..|--- .... ....|--- .... ....|--- .... ....
....|..|--- .... ....|--- .... ....|--- .... ....
....|..|--- .... ....|--- .... ....|--- .... ....
....|..|--- .... ....|--- .... ....|F#5 ...A ....
....|..|--- .... ....|--- .... ....|--- .... ....
....|..|--- .... ....|--- .... ....|--- .... ....
....|..|--- .... ....|--- .... ....|--- .... ....
....|..|--- .... ....|--- .... ....|F#5 ...F ....
....|..|--- .... ....|--- .... ....|--- .... ....
....|..|--- .... ....|--- .... ....|--- .... ....
....|..|--- .... ....|--- .... ....|--- .... ....
....|..|--- .... ....|--- .... ....|F#5 ...A ....
....|..|--- .... ....|--- .... ....|--- .... ....
....|..|--- .... ....|--- .... ....|--- .... ....
....|..|--- .... ....|--- .... ....|--- .... ....
....|..|--- .... ....|--- .... ....|F#5 ...F ....
....|..|--- .... ....|--- .... ....|--- .... ....
....|..|--- .... ....|--- .... ....|--- .... ....
....|..|--- .... ....|--- .... ....|--- .... ....
....|..|--- .... ....|--- .... ....|F#5 ...7 ....
....|..|--- .... ....|--- .... ....|--- .... ....
....|..|--- .... ....|--- .... ....|--- .... ....
....|..|--- .... ....|--- .... ....|--- .... ....
....|..|--- .... ....|--- .... ....|F#5 ...F ....
....|..|--- .... ....|--- .... ....|--- .... ....
....|..|--- .... ....|--- .... ....|--- .... ....
....|..|--- .... ....|--- .... ....|--- .... ....
....|..|--- .... ....|--- .... ....|F#5 ...A ....
....|..|--- .... ....|--- .... ....|--- .... ....
....|..|--- .... ....|--- .... ....|--- .... ....
....|..|--- .... ....|--- .... ....|--- .... ....
....|..|--- .... ....|--- .... ....|F-5 ...F ....
....|..|--- .... ....|--- .... ....|--- .... ....
....|..|--- .... ....|--- .... ....|--- .... ....
....|..|--- .... ....|--- .... ....|--- .... ....
....|..|--- .... ....|--- .... ....|F#5 ...A ....
....|..|--- .... ....|--- .... ....|--- .... ....
....|..|--- .... ....|--- .... ....|--- .... ....
....|..|--- .... ....|--- .... ....|--- .... ....
....|..|--- .... ....|--- .... ....|F-5 ...F ....
....|..|--- .... ....|--- .... ....|--- .... ....
....|..|--- .... ....|--- .... ....|--- .... ....
....|..|--- .... ....|--- .... ....|--- .... ....
....|..|--- .... ....|--- .... ....|F-5 ...A ....
....|..|--- .... ....|--- .... ....|--- .... ....
....|..|--- .... ....|--- .... ....|--- .... ....
....|..|--- .... ....|--- .... ....|--- .... ....
....|..|--- .... ....|--- .... ....|D-5 ...F ....
....|..|--- .... ....|--- .... ....|--- .... ....
....|..|--- .... ....|--- .... ....|--- .... ....
....|..|--- .... ....|--- .... ....|--- .... ....
....|..|--- .... ....|--- .... ....|F-5 ...A ....
....|..|--- .... ....|--- .... ....|--- .... ....
....|..|--- .... ....|--- .... ....|D-5 ...F ....
....|..|--- .... ....|--- .... ....|--- .... ....
....|..|--- .... ....|--- .... ....|F-5 ...7 ....
....|..|--- .... ....|--- .... ....|--- .... ....
....|..|--- .... ....|--- .... ....|--- .... ....
....|..|--- .... ....|--- .... ....|--- .... ....
....|..|--- .... ....|--- .... ....|F-5 ...F ....
....|..|--- .... ....|--- .... ....|--- .... ....
....|..|--- .... ....|--- .... ....|--- .... ....
....|..|--- .... ....|--- .... ....|--- .... ....

[Pattern50]
....|..|--- .... ....|--- .... ....|F#5 5F.F ....
....|..|--- .... ....|--- .... ....|--- .... ....
....|..|--- .... ....|--- .... ....|D-5 ...A ....
....|..|--- .... ....|--- .... ....|--- .... ....
....|..|--- .... ....|--- .... ....|--- .... ....
....|..|--- .... ....|--- .... ....|--- .... ....
....|..|--- .... ....|--- .... ....|--- .... ....
....|..|--- .... ....|--- .... ....|--- .... ....
....|..|--- .... ....|--- .... ....|F#5 ...F ....
....|..|--- .... ....|--- .... ....|--- .... ....
....|..|--- .... ....|--- .... ....|--- .... ....
....|..|--- .... ....|--- .... ....|--- .... ....
....|..|--- .... ....|--- .... ....|F#5 ...A ....
....|..|--- .... ....|--- .... ....|--- .... ....
....|..|--- .... ....|--- .... ....|D-5 ...7 ....
....|..|--- .... ....|--- .... ....|--- .... ....
....|..|--- .... ....|--- .... ....|F#5 ...F ....
....|..|--- .... ....|--- .... ....|--- .... ....
....|..|--- .... ....|--- .... ....|--- .... ....
....|..|--- .... ....|--- .... ....|--- .... ....
....|..|--- .... ....|--- .... ....|F-5 ...7 ....
....|..|--- .... ....|--- .... ....|--- .... ....
....|..|--- .... ....|--- .... ....|--- .... ....
....|..|--- .... ....|--- .... ....|--- .... ....
....|..|--- .... ....|--- .... ....|F#5 ...F ....
....|..|--- .... ....|--- .... ....|--- .... ....
....|..|--- .... ....|--- .... ....|--- .... ....
....|..|--- .... ....|--- .... ....|--- .... ....
....|..|--- .... ....|--- .... ....|F#5 ...A ....
....|..|--- .... ....|--- .... ....|--- .... ....
....|..|--- .... ....|--- .... ....|--- .... ....
....|..|--- .... ....|--- .... ....|--- .... ....
....|..|--- .... ....|--- .... ....|F#5 ...7 ....
....|..|--- .... ....|--- .... ....|--- .... ....
....|..|--- .... ....|--- .... ....|--- .... ....
....|..|--- .... ....|--- .... ....|--- .... ....
....|..|--- .... ....|--- .... ....|F#5 ...A ....
....|..|--- .... ....|--- .... ....|--- .... ....
....|..|--- .... ....|--- .... ....|--- .... ....
....|..|--- .... ....|--- .... ....|--- .... ....
....|..|--- .... ....|--- .... ....|F#5 ...7 ....
....|..|--- .... ....|--- .... ....|--- .... ....
....|..|--- .... ....|--- .... ....|--- .... ....
....|..|--- .... ....|--- .... ....|--- .... ....
....|..|--- .... ....|--- .... ....|--- .... ....
....|..|--- .... ....|--- .... ....|--- .... ....
....|..|--- .... ....|--- .... ....|--- .... ....
....|..|--- .... ....|--- .... ....|--- .... ....
....|..|--- .... ....|--- .... ....|F#5 .... ....
....|..|--- .... ....|--- .... ....|--- .... ....
....|..|--- .... ....|--- .... ....|--- .... ....
....|..|--- .... ....|--- .... ....|--- .... ....
....|..|--- .... ....|--- .... ....|--- .... ....
....|..|--- .... ....|--- .... ....|--- .... ....
....|..|--- .... ....|--- .... ....|--- .... ....
....|..|--- .... ....|--- .... ....|--- .... ....
....|..|--- .... ....|--- .... ....|--- .... ....
....|..|--- .... ....|--- .... ....|--- .... ....
....|..|--- .... ....|--- .... ....|--- .... ....
....|..|--- .... ....|--- .... ....|--- .... ....
....|..|--- .... ....|--- .... ....|--- .... ....
....|..|--- .... ....|--- .... ....|--- .... ....
....|..|--- .... ....|--- .... ....|--- .... ....
....|..|--- .... ....|--- .... ....|--- .... ....

[Pattern51]
....|..|--- .... ....|--- .... ....|R-- .... ....
....|..|--- .... ....|--- .... ....|--- .... ....
....|..|--- .... ....|--- .... ....|--- .... ....
....|..|--- .... ....|--- .... ....|--- .... ....
....|..|--- .... ....|--- .... ....|--- .... ....
....|..|--- .... ....|--- .... ....|--- .... ....
....|..|--- .... ....|--- .... ....|--- .... ....
....|..|--- .... ....|--- .... ....|--- .... ....
....|..|--- .... ....|--- .... ....|--- .... ....
....|..|--- .... ....|--- .... ....|--- .... ....
....|..|--- .... ....|--- .... ....|--- .... ....
....|..|--- .... ....|--- .... ....|--- .... ....
....|..|--- .... ....|--- .... ....|R-- .... ....
....|..|--- .... ....|--- .... ....|--- .... ....
....|..|--- .... ....|--- .... ....|--- .... ....
....|..|--- .... ....|--- .... ....|--- .... ....
....|..|--- .... ....|--- .... ....|--- .... ....
....|..|--- .... ....|--- .... ....|--- .... ....
....|..|--- .... ....|--- .... ....|--- .... ....
....|..|--- .... ....|--- .... ....|--- .... ....
....|..|--- .... ....|--- .... ....|--- .... ....
....|..|--- .... ....|--- .... ....|--- .... ....
....|..|--- .... ....|--- .... ....|--- .... ....
....|..|--- .... ....|--- .... ....|--- .... ....

