[Module]
VortexTrackerII=0
Version=3.5
Title=1d-2me,3p[3],4p[4]-5p[5]+
Author=oisee ^ 4d 29.05.2010
NoteTable=4
ChipFreq=1750000
Speed=3
PlayOrder=L0,1,2,3,4,5,6,7,8,9,10,11,11,13,14,15,16,17,18,19,20,3,4,23,24,25,4,27,28,29,30,31,32,33,34,33,36,37,38,39,40,41,42,19,20,3,4,23,48,49,50,51,52,53,54,55,56,57,56,59,60,61,62

[Ornament1]
L0,0,7,7

[Ornament2]
L0,0,5,5

[Ornament3]
L0,0,5,5,10,10

[Ornament4]
L0

[Ornament5]
L0

[Ornament6]
L0

[Ornament7]
L0

[Ornament8]
L0

[Ornament9]
L0

[Ornament10]
L0

[Ornament11]
L0

[Ornament12]
L0

[Ornament13]
L0

[Ornament14]
L0

[Ornament15]
L0

[Sample1]
TnE -001_ +00_ F_
TnE -001_ +00_ F_
TnE -001_ +00_ F_
TnE -001_ +00_ D_
TnE -001_ +00_ B_
TnE -001_ +00_ B_ L

[Sample2]
TnE -001_ +00_ F_ L

[Sample3]
TNe +001_ +00_ F_
Tne +000_ +00_ F_
Tne +000_ +00_ E_
Tne +001_ +00_ E_
Tne +001_ +00_ E_ L
Tne -002_ +00_ E_
Tne -002_ +00_ E_
Tne -002_ +00_ E_
Tne -001_ +00_ E_
Tne +000_ +00_ E_
Tne +000_ +00_ E_
Tne +000_ +00_ E_

[Sample4]
TnE +001_ +00_ D_
TnE -001_ +00_ D_
TnE -001_ +00_ C_
TnE -001_ +00_ B_ L
TnE -001_ +00_ A_
TnE -001_ +00_ A_
TnE -001_ +00_ A_
TnE -001_ +00_ A_
TnE -001_ +00_ A_
TnE -001_ +00_ A_
TnE -001_ +00_ A_
TnE -001_ +00_ A_

[Sample5]
TNe -001_ +00_ D_
TNe -001_ +00_ F_
Tne -001_ +00_ E_
Tne -001_ +00_ E_
Tne -001_ +00_ E_ L
Tne -002_ +00_ E_
Tne -002_ +00_ E_
Tne -002_ +00_ E_
Tne +001_ +00_ E_
Tne +000_ +00_ E_
Tne +000_ +00_ E_
Tne +000_ +00_ E_

[Sample6]
TnE -001_ +00_ F_ L

[Sample7]
TnE +006_ +00_ F_ L

[Sample8]
tNe +000_ +00_ F_
tNe +000_ +00_ B_
tNe +000_ +00_ 7_
tNe +000_ +00_ 6- L

[Sample9]
TnE +080_ +00_ F_
TnE +100_ +00_ E_
TnE +180_ +00_ E_
TnE +200_ +00_ E_
TnE +240_ +00_ D_
TnE +280_ +00_ D_
TnE +2C0_ +00_ D_
TnE +300_ +00_ C_
TnE +300_ +00_ C_
TnE +340_ +00_ C_
TnE +340_ +00_ C_
TnE +380_ +00_ B_
TnE +380_ +00_ B_
TnE +400_ +00_ B_
TnE +400_ +00_ B_
TnE +480_ +00_ A_
TnE +500_ +00_ 9_
TnE +580_ +00_ 7_
TnE +600_ +00_ 4_
TnE +680_ +00_ 1_
TnE +000_ +00_ 0_ L

[Sample10]
Tne +1C0_ +00_ F_
Tne +280_ +00_ E_
Tne +380_ +00_ C_
Tne +440_ +00_ A_
Tne +480_ +00_ 8_
TnE +000_ +00_ 0_ L

[Sample11]
TNe +200_ -0A_ F_
tNe +000_ +0F_ A_
TNe +200_ -07_ E_
tNe +000_ +0E_ B- L

[Sample12]
TNE +0A0_ +05_ F_
TNE +140_ +02_ D_
TNE +140_ +02_ B_
TNE +100_ +00_ A_ L
TNE +140_ +00_ A_
TNE +200_ +00_ A-

[Sample13]
Tne +200_ +00_ F_
Tne +2C0_ +00_ F_
Tne +380_ +00_ E_
Tne +500_ +00_ C_
Tne +520_ +00_ 9_
tne +000_ +00_ 0_ L

[Sample14]
TNE -100_ +00_ F_
TNE -100_ +00_ D_
TNE -100_ +00_ A_
TNE -100_ +00_ 5_
tne +000_ +00_ 0_ L

[Sample15]
TNE -100_ +00_ 5_
TNE -100_ +00_ 8_
TNE -100_ +00_ B_
TNE -100_ +00_ F_
TNe -100_ +00_ 9- L

[Sample16]
TnE +000_ +00_ C_
TnE +000_ +00_ E_
TnE +000_ +00_ F_
TnE +000_ +00_ F_
TnE +000_ +00_ E_
TnE +000_ +00_ D_
TnE +000_ +00_ C_
TnE +000_ +00_ C_ L
TnE +001_ +00_ C_
TnE +002_ +00_ C_
TnE +003_ +00_ C_
TnE +001_ +00_ C_
TnE +000_ +00_ C_
TnE -001_ +00_ C_
TnE -002_ +00_ C_
TnE -003_ +00_ C_
TnE -001_ +00_ C_
TnE +000_ +00_ C_
TnE +000_ +00_ C_

[Sample17]
Tne +1C0_ +00_ F_
Tne +280_ +00_ D_
Tne +380_ +00_ 7_
TNE +000_ +00_ 0_ L

[Sample18]
TnE -00C_ +00_ 0_ L

[Sample19]
TNe +000_ +00_ F_
TNe +000_ +00_ C_
TNe +000_ +00_ 6_
TNe +000_ +01_ A- L

[Sample20]
TNE +140_ +00_ F_
tNE +000_ +00_ B- L

[Sample21]
tNE +000_ +00_ D_
tNE +000_ +00_ 8_
tNE +000_ +00_ 1_
TNE +000_ +00_ 0_ L

[Sample22]
TnE +000_ +00_ D_ L
TnE +000_ +00_ D_
tne +000_ +00_ 9_
tne +000_ +00_ 9_
TnE +000_ +00_ D_
TnE +000_ +00_ D_
tne +000_ +00_ 9_
tne +000_ +00_ 9_
TnE +000_ +00_ D_
TnE +000_ +00_ D_
TnE +000_ +00_ D_
TnE +000_ +00_ D_
TnE +000_ +00_ D_
TnE +000_ +00_ D_
tne +000_ +00_ 9_
tne +000_ +00_ 9_

[Sample23]
TnE +000_ +00_ F_ L
TnE +010_ +01_ F_
TnE +010_ +01_ F_
TnE +010_ +01_ F_
TnE +010_ +01_ F_
TnE +000_ +00_ F_
TnE +000_ +00_ F_
TnE -010_ -01_ F_
TnE -010_ -01_ F_
TnE -010_ -01_ F_
TnE -010_ -01_ F_
TnE +000_ +00_ F_

[Sample24]
TNe +000_ -01_ C_
TNe +000_ -01_ D_
TNe +000_ -01_ E_
TNe +000_ -01_ F_
TNe +000_ -01_ F_
TNe +000_ -01_ F_
TNe +000_ -01_ F_
TNe +000_ -01_ F_
TNe +000_ -01_ E_
TNe +000_ -01_ E_
TNe +000_ -01_ E_
TNe +000_ -01_ F_
TNe +000_ -01_ F_ L

[Sample25]
TNE +000_ +00_ F_
TNE +000_ +00_ F_ L
TNE +000_ +00_ F_
TNE +000_ +00_ F_
TNE +000_ +00_ F-

[Sample26]
tne +000_ +00_ 0_ L

[Sample27]
TnE +100_ +05_ F_
TnE +200_ +02_ A_
TnE +300_ +02_ 7_
TNE +400_ +00_ 3- L

[Sample28]
tne +000_ +00_ 0_ L

[Sample29]
tnE +000_ +00_ 0_ L

[Sample30]
TNE +000_ +00_ C+ L

[Sample31]
TNe +1C0_ +00_ F_
Tne +280_ +00_ E_
Tne +380_ +00_ C_
Tne +440_ +00_ A_
Tne +480_ +00_ 8_
TnE +000_ +00_ 0_ L

[Pattern0]
....|..|--- .... ....|B-4 3F.F ....|B-3 4F.F ....
....|..|--- .... ....|--- .... ....|--- .... ....
....|..|--- .... ....|--- .... ....|--- .... ....
....|..|--- .... ....|--- .... ....|--- .... ....
....|..|--- .... ....|--- .... ....|--- .... ....
....|..|--- .... ....|--- .... ....|--- .... ....
....|..|--- .... ....|--- .... ....|--- .... ....
....|..|--- .... ....|--- .... ....|--- .... ....
....|..|--- .... ....|--- .... ....|--- .... ....
....|..|--- .... ....|--- .... ....|--- .... ....
....|..|--- .... ....|--- .... ....|--- .... ....
....|..|--- .... ....|--- .... ....|--- .... ....
....|..|--- .... ....|A#5 3F.F ....|B-3 4F.A ....
....|..|--- .... ....|--- .... ....|--- .... ....
....|..|--- .... ....|--- .... ....|--- .... ....
....|..|--- .... ....|--- .... ....|--- .... ....
....|..|--- .... ....|B-5 3F.F ....|--- .... ....
....|..|--- .... ....|--- .... ....|--- .... ....
....|..|--- .... ....|--- .... ....|--- .... ....
....|..|--- .... ....|--- .... ....|--- .... ....
....|..|--- .... ....|A#5 3F.F ....|--- .... ....
....|..|--- .... ....|--- .... ....|--- .... ....
....|..|--- .... ....|--- .... ....|--- .... ....
....|..|--- .... ....|--- .... ....|--- .... ....
....|..|--- .... ....|B-5 3F.F ....|B-3 4F.7 ....
....|..|--- .... ....|--- .... ....|--- .... ....
....|..|--- .... ....|--- .... ....|--- .... ....
....|..|--- .... ....|--- .... ....|--- .... ....
....|..|--- .... ....|A#5 3F.F ....|--- .... ....
....|..|--- .... ....|--- .... ....|--- .... ....
....|..|--- .... ....|--- .... ....|--- .... ....
....|..|--- .... ....|--- .... ....|--- .... ....
....|..|--- .... ....|D-5 3F.F ....|--- .... ....
....|..|--- .... ....|--- .... ....|--- .... ....
....|..|--- .... ....|--- .... ....|--- .... ....
....|..|--- .... ....|--- .... ....|--- .... ....
....|..|--- .... ....|A#5 3F.7 ....|--- .... ....
....|..|--- .... ....|--- .... ....|--- .... ....
....|..|--- .... ....|--- .... ....|--- .... ....
....|..|--- .... ....|--- .... ....|--- .... ....
....|..|--- .... ....|B-5 3F.7 ....|--- .... ....
....|..|--- .... ....|--- .... ....|--- .... ....
....|..|--- .... ....|--- .... ....|--- .... ....
....|..|--- .... ....|--- .... ....|--- .... ....
....|..|--- .... ....|C#5 3F.F ....|--- .... ....
....|..|--- .... ....|--- .... ....|--- .... ....
....|..|--- .... ....|--- .... ....|--- .... ....
....|..|--- .... ....|--- .... ....|--- .... ....
....|..|--- .... ....|D-5 3F.F ....|--- .... ....
....|..|--- .... ....|--- .... ....|--- .... ....
....|..|--- .... ....|--- .... ....|--- .... ....
....|..|--- .... ....|--- .... ....|--- .... ....
....|..|--- .... ....|C#5 3F.F ....|--- .... ....
....|..|--- .... ....|--- .... ....|--- .... ....
....|..|--- .... ....|--- .... ....|--- .... ....
....|..|--- .... ....|--- .... ....|--- .... ....
....|..|--- .... ....|D-5 3F.F ....|--- .... ....
....|..|--- .... ....|--- .... ....|--- .... ....
....|..|--- .... ....|--- .... ....|--- .... ....
....|..|--- .... ....|--- .... ....|--- .... ....
....|..|--- .... ....|F#5 3F.F ....|--- .... ....
....|..|--- .... ....|--- .... ....|--- .... ....
....|..|--- .... ....|--- .... ....|--- .... ....
....|..|--- .... ....|--- .... ....|--- .... ....

[Pattern1]
....|..|--- .... ....|B-4 3F.F ....|D-4 4F.F ....
....|..|--- .... ....|--- .... ....|--- .... ....
....|..|--- .... ....|--- .... ....|--- .... ....
....|..|--- .... ....|--- .... ....|--- .... ....
....|..|--- .... ....|C#5 3F.7 ....|--- .... ....
....|..|--- .... ....|--- .... ....|--- .... ....
....|..|--- .... ....|--- .... ....|--- .... ....
....|..|--- .... ....|--- .... ....|--- .... ....
....|..|--- .... ....|D-5 3F.7 ....|--- .... ....
....|..|--- .... ....|--- .... ....|--- .... ....
....|..|--- .... ....|--- .... ....|--- .... ....
....|..|--- .... ....|--- .... ....|--- .... ....
....|..|--- .... ....|A#5 3F.F ....|D-4 4F.A ....
....|..|--- .... ....|--- .... ....|--- .... ....
....|..|--- .... ....|--- .... ....|--- .... ....
....|..|--- .... ....|--- .... ....|--- .... ....
....|..|--- .... ....|B-5 3F.F ....|--- .... ....
....|..|--- .... ....|--- .... ....|--- .... ....
....|..|--- .... ....|--- .... ....|--- .... ....
....|..|--- .... ....|--- .... ....|--- .... ....
....|..|--- .... ....|A#5 3F.F ....|--- .... ....
....|..|--- .... ....|--- .... ....|--- .... ....
....|..|--- .... ....|--- .... ....|--- .... ....
....|..|--- .... ....|--- .... ....|--- .... ....
....|..|--- .... ....|B-5 3F.F ....|D-4 4F.7 ....
....|..|--- .... ....|--- .... ....|--- .... ....
....|..|--- .... ....|--- .... ....|--- .... ....
....|..|--- .... ....|--- .... ....|--- .... ....
....|..|--- .... ....|A#5 3F.F ....|--- .... ....
....|..|--- .... ....|--- .... ....|--- .... ....
....|..|--- .... ....|--- .... ....|--- .... ....
....|..|--- .... ....|--- .... ....|--- .... ....
....|..|--- .... ....|D-5 3F.F ....|R-- .... ....
....|..|--- .... ....|--- .... ....|--- .... ....
....|..|--- .... ....|--- .... ....|--- .... ....
....|..|--- .... ....|--- .... ....|--- .... ....
....|..|--- .... ....|A#5 3F.7 ....|--- .... ....
....|..|--- .... ....|--- .... ....|--- .... ....
....|..|--- .... ....|--- .... ....|--- .... ....
....|..|--- .... ....|--- .... ....|--- .... ....
....|..|--- .... ....|B-5 3F.7 ....|--- .... ....
....|..|--- .... ....|--- .... ....|--- .... ....
....|..|--- .... ....|--- .... ....|--- .... ....
....|..|--- .... ....|--- .... ....|--- .... ....
....|..|--- .... ....|A#5 3F.F ....|R-- .... ....
....|..|--- .... ....|--- .... ....|--- .... ....
....|..|--- .... ....|--- .... ....|--- .... ....
....|..|--- .... ....|--- .... ....|--- .... ....
....|..|--- .... ....|B-5 3F.F ....|--- .... ....
....|..|--- .... ....|--- .... ....|--- .... ....
....|..|--- .... ....|A#5 3F.F ....|--- .... ....
....|..|--- .... ....|--- .... ....|--- .... ....
....|..|--- .... ....|B-5 3F.F ....|--- .... ....
....|..|--- .... ....|--- .... ....|--- .... ....
....|..|--- .... ....|--- .... ....|--- .... ....
....|..|--- .... ....|--- .... ....|--- .... ....
....|..|C-5 VF.F ....|D-5 3F.7 ....|A-3 4F1F ....
..1B|..|A-1 2A.F ....|--- .... ....|--- .... ....
....|..|--- .... ....|--- .... ....|--- .... ....
....|..|--- .... ....|--- .... ....|--- .... ....
....|..|--- .... ....|B-5 3F.A ....|--- .... ....
....|..|--- .... ....|--- .... ....|--- .... ....
....|..|--- .... ....|A#5 3F.A ....|--- .... ....
....|..|--- .... ....|--- .... ....|--- .... ....

[Pattern2]
....|..|C-4 AF.F ....|B-4 3F.F ....|B-3 4F1F ....
..18|..|B-1 2A.F ....|--- .... ....|--- .... ....
....|..|--- .... ....|--- .... ....|--- .... ....
....|..|--- .... ....|--- .... ....|--- .... ....
..18|..|B-1 2A.F ....|A#5 3F.7 ....|B-3 4F1F ....
....|..|A-1 2F.A ....|--- .... ....|--- .... ....
....|..|C-4 AF.F ....|--- .... ....|B-3 4F1F ....
..18|..|B-1 2A.F ....|--- .... ....|--- .... ....
....|..|C-5 VF.F ....|B-5 3F.7 ....|--- .... ....
....|..|--- .... ....|--- .... ....|--- .... ....
..18|..|B-1 2A.F ....|A#5 3F.7 ....|B-3 4F1F ....
....|..|--- .... ....|--- .... ....|--- .... ....
....|..|C-4 AF.F ....|A#5 3F.F ....|B-3 4F1F ....
..18|..|B-1 2A.F ....|--- .... ....|--- .... ....
....|..|R-- .... ....|--- .... ....|--- .... ....
....|..|--- .... ....|--- .... ....|--- .... ....
....|..|C-3 RF.F ....|B-5 3F.F ....|B-3 4F1F ....
..18|..|B-1 2A.F ....|--- .... ....|--- .... ....
....|..|C-3 RF.F ....|--- .... ....|B-3 4F1A ....
....|..|B-1 2F.A ....|--- .... ....|--- .... ....
....|..|C-4 AF.F ....|A#5 3F.F ....|B-3 4F1F ....
..18|..|B-1 2A.F ....|--- .... ....|--- .... ....
....|..|B-1 2F.A ....|--- .... ....|B-3 4F1A ....
....|..|--- .... ....|--- .... ....|--- .... ....
....|..|C-5 VF.F ....|B-5 3F.F ....|B-3 4F1F ....
..18|..|B-1 2A.F ....|--- .... ....|--- .... ....
..18|..|B-1 2A.F ....|--- .... ....|B-3 4F1F ....
....|..|--- .... ....|--- .... ....|--- .... ....
....|..|C-4 AF.F ....|A#5 3F.F ....|B-3 4F17 ....
....|..|B-1 2F.A ....|--- .... ....|--- .... ....
..18|..|B-1 2A.F ....|--- .... ....|B-3 4F1F ....
....|..|B-1 2F.7 ....|--- .... ....|--- .... ....
....|..|C-4 AF.F ....|D-5 3F.F ....|B-3 4F1F ....
..18|..|B-1 2A.F ....|--- .... ....|--- .... ....
....|..|B-1 2F.7 ....|--- .... ....|B-3 4F17 ....
....|..|--- .... ....|--- .... ....|--- .... ....
..18|..|B-1 2A.F ....|A#5 3F.7 ....|B-3 4F1F ....
....|..|B-1 2F.7 ....|--- .... ....|--- .... ....
....|..|C-4 AF.F ....|--- .... ....|B-3 4F1F ....
..18|..|B-1 2A.F ....|--- .... ....|--- .... ....
....|..|C-5 VF.F ....|B-5 3F.7 ....|B-3 4F17 ....
....|..|B-1 2F.7 ....|--- .... ....|--- .... ....
..18|..|B-1 2A.F ....|--- .... ....|B-3 4F1F ....
....|..|--- .... ....|--- .... ....|--- .... ....
....|..|C-4 AF.F ....|C#5 3F.F ....|B-3 4F1F ....
..18|..|B-1 2A.F ....|--- .... ....|--- .... ....
....|..|R-- .... ....|--- .... ....|B-3 4F1F ....
....|..|--- .... ....|--- .... ....|--- .... ....
....|..|C-3 RF.F ....|D-5 3F.F ....|B-3 4F17 ....
..18|..|B-1 2A.F ....|--- .... ....|--- .... ....
....|..|C-3 RF.F ....|--- .... ....|B-3 4F1F ....
..18|..|B-1 2A.F ....|--- .... ....|--- .... ....
....|..|C-4 AF.F ....|C#5 3F.F ....|--- .... ....
....|..|--- .... ....|--- .... ....|--- .... ....
..18|..|B-1 2A.F ....|--- .... ....|B-3 4F1F ....
....|..|--- .... ....|--- .... ....|--- .... ....
....|..|C-5 VF.F ....|D-5 3F.F ....|B-3 4F1F ....
..18|..|B-1 2A.F ....|--- .... ....|--- .... ....
....|..|R-- .... ....|--- .... ....|B-3 4F1A ....
....|..|--- .... ....|--- .... ....|--- .... ....
....|..|C-4 AF.F ....|F#5 3F.F ....|B-3 4F.F ....
..18|..|B-1 2A.F ....|--- .... ....|--- .... ....
....|..|C-4 AF.7 ....|--- .... ....|B-3 4F17 ....
....|..|B-1 2F.7 ....|--- .... ....|--- .... ....

[Pattern3]
....|..|C-4 AF.F ....|B-4 3F.F ....|G-3 4F1F ....
..1E|..|G-1 2A.F ....|--- .... ....|--- .... ....
....|..|B-1 2F.7 ....|--- .... ....|B-3 4F17 ....
....|..|--- .... ....|--- .... ....|--- .... ....
..1E|..|G-1 2A.F ....|C#5 3F.7 ....|A-3 4F2F ....
....|..|B-1 2F.7 ....|--- .... ....|--- .... ....
....|..|C-4 AF.F ....|--- .... ....|G-3 4F1F ....
..1E|..|G-1 2A.F ....|--- .... ....|--- .... ....
....|..|C-5 VF.F ....|D-5 3F.7 ....|B-3 4F.A ....
....|..|B-1 2F.7 ....|--- .... ....|--- .... ....
..1E|..|G-1 2A.F ....|--- .... ....|G-3 4F1F ....
....|..|B-1 2F.7 ....|--- .... ....|--- .... ....
....|..|C-4 AF.F ....|A#5 3F.F ....|G-3 4F1F ....
..1E|..|G-1 2A.F ....|--- .... ....|--- .... ....
....|..|B-1 2F.7 ....|--- .... ....|B-3 4F17 ....
....|..|--- .... ....|--- .... ....|--- .... ....
....|..|C-3 RF.F ....|B-5 3F.F ....|G-3 4F1F ....
..1E|..|G-1 2A.F ....|--- .... ....|--- .... ....
....|..|C-3 RF.F ....|--- .... ....|G-3 4F1F ....
..1E|..|G-1 2A.F ....|--- .... ....|--- .... ....
....|..|C-4 AF.F ....|A#5 3F.F ....|B-3 4F.7 ....
....|..|B-1 2F.7 ....|--- .... ....|--- .... ....
..1E|..|G-1 2A.F ....|--- .... ....|G-3 4F1F ....
....|..|--- .... ....|--- .... ....|--- .... ....
....|..|C-5 VF.F ....|B-5 3F.F ....|G-3 4F1F ....
..1E|..|G-1 2A.F ....|--- .... ....|--- .... ....
....|..|R-- .... ....|--- .... ....|--- .... ....
....|..|--- .... ....|--- .... ....|--- .... ....
....|..|C-4 AF.F ....|A#5 3F.F ....|G-3 4F.F ....
..1E|..|G-1 2A.F ....|--- .... ....|--- .... ....
....|..|C-4 AF.7 ....|--- .... ....|G-3 4F17 ....
....|..|G-1 2F.7 ....|--- .... ....|--- .... ....
....|..|C-4 AF.F ....|D-5 3F.F ....|A-3 4F1F ....
..1B|..|A-1 2A.F ....|--- .... ....|--- .... ....
....|..|G-1 2F.7 ....|--- .... ....|G-3 4F17 ....
....|..|--- .... ....|--- .... ....|--- .... ....
....|..|C-4 AF.F ....|A#5 3F.7 ....|A-3 4F1F ....
..1B|..|A-1 2A.F ....|--- .... ....|--- .... ....
..1B|..|A-1 2A.F ....|--- .... ....|A-3 4F1F ....
....|..|--- .... ....|--- .... ....|--- .... ....
....|..|C-5 VF.F ....|B-5 3F.7 ....|G-3 4F17 ....
....|..|G-1 2F.7 ....|--- .... ....|--- .... ....
..1B|..|A-1 2A.F ....|--- .... ....|A-3 4F1F ....
....|..|G-1 2F.7 ....|--- .... ....|--- .... ....
....|..|C-4 AF.F ....|C#5 3F.F ....|A-3 4F1F ....
..1B|..|A-1 2A.F ....|--- .... ....|--- .... ....
....|..|G-1 2F.7 ....|--- .... ....|G-3 4F17 ....
....|..|--- .... ....|--- .... ....|--- .... ....
....|..|C-5 VF.7 ....|B-5 3F.7 ....|A-3 4F3F ....
....|..|G-1 2F.7 ....|--- .... ....|--- .... ....
....|..|A-1 2F.A ....|--- .... ....|E-3 4F3F ....
....|..|--- .... ....|--- .... ....|--- .... ....
....|..|C-4 AF.7 ....|A#5 3F.7 ....|A-3 4F3F ....
....|..|G-1 2F.7 ....|--- .... ....|--- .... ....
....|..|A-1 2F.A ....|--- .... ....|E-3 4F3F ....
....|..|--- .... ....|--- .... ....|--- .... ....
....|..|C-4 AF.7 ....|D-5 3F.7 ....|E-3 4F.F ....
....|..|A-1 2F.7 ....|--- .... ....|--- .... ....
....|..|--- .... ....|--- .... ....|--- .... ....
....|..|--- .... ....|--- .... ....|--- .... ....
....|..|C-4 AF.7 ....|R-- .... ....|A-2 4F.F ....
....|..|A-1 2F.7 ....|--- .... ....|--- .... ....
....|..|A-1 2F.7 ....|--- .... ....|A-3 4F17 ....
....|..|--- .... ....|--- .... ....|--- .... ....

[Pattern4]
....|..|C-4 AF.F ....|B-4 3F.F ....|E-3 4F1F ....
..24|..|E-1 2A.F ....|--- .... ....|--- .... ....
....|..|A-1 2F.7 ....|--- .... ....|A-3 4F17 ....
....|..|--- .... ....|--- .... ....|--- .... ....
..24|..|E-1 2A.F ....|C#5 3F.7 ....|E-3 4F1F ....
....|..|A-1 2F.7 ....|--- .... ....|--- .... ....
....|..|C-4 AF.F ....|--- .... ....|E-3 4F1F ....
..24|..|E-1 2A.F ....|--- .... ....|--- .... ....
....|..|C-5 VF.F ....|R-- .... ....|A-3 4F37 ....
....|..|--- .... ....|--- .... ....|--- .... ....
..24|..|E-1 2A.F ....|--- .... ....|E-3 4F1F ....
....|..|--- .... ....|--- .... ....|--- .... ....
....|..|C-4 AF.F ....|A#5 3F.F ....|E-3 4F1F ....
..24|..|E-1 2A.F ....|--- .... ....|--- .... ....
....|..|R-- .... ....|--- .... ....|E-3 4F37 ....
....|..|--- .... ....|--- .... ....|--- .... ....
....|..|C-3 RF.F ....|B-5 3F.F ....|E-3 4F1F ....
..24|..|E-1 2A.F ....|--- .... ....|--- .... ....
....|..|C-3 RF.F ....|--- .... ....|E-3 4F1A ....
....|..|E-1 2F.A ....|--- .... ....|--- .... ....
....|..|C-4 AF.F ....|A#5 3F.F ....|E-3 4F1F ....
..24|..|E-1 2A.F ....|--- .... ....|--- .... ....
....|..|E-1 2F.A ....|--- .... ....|E-3 4F1A ....
....|..|--- .... ....|--- .... ....|--- .... ....
....|..|C-5 VF.F ....|B-5 3F.F ....|E-3 4F1F ....
..24|..|E-1 2A.F ....|--- .... ....|--- .... ....
..24|..|E-1 2A.F ....|--- .... ....|E-3 4F1F ....
....|..|--- .... ....|--- .... ....|--- .... ....
....|..|C-4 AF.F ....|A#5 3F.F ....|E-3 4F17 ....
....|..|E-1 2F.A ....|--- .... ....|--- .... ....
..24|..|E-1 2A.F ....|--- .... ....|E-3 4F1F ....
....|..|E-1 2F.7 ....|--- .... ....|--- .... ....
....|..|C-4 AF.F ....|D-5 3F.F ....|E-3 4F1F ....
..24|..|E-1 2A.F ....|--- .... ....|--- .... ....
....|..|E-1 2F.7 ....|--- .... ....|E-3 4F17 ....
....|..|--- .... ....|--- .... ....|--- .... ....
..24|..|E-1 2A.F ....|A#5 3F.7 ....|E-3 4F1F ....
....|..|E-1 2F.7 ....|--- .... ....|--- .... ....
....|..|C-4 AF.F ....|--- .... ....|E-3 4F1F ....
..24|..|E-1 2A.F ....|--- .... ....|--- .... ....
....|..|C-5 VF.F ....|B-5 3F.7 ....|E-3 4F17 ....
....|..|E-1 2F.7 ....|--- .... ....|--- .... ....
..24|..|E-1 2A.F ....|--- .... ....|E-3 4F1F ....
....|..|--- .... ....|--- .... ....|--- .... ....
....|..|C-4 AF.F ....|C#5 3F.F ....|E-3 4F1F ....
..24|..|E-1 2A.F ....|--- .... ....|--- .... ....
....|..|R-- .... ....|--- .... ....|--- .... ....
....|..|--- .... ....|--- .... ....|--- .... ....
....|..|C-3 RF.F ....|D-5 3F.F ....|E-3 4F1F ....
..24|..|E-1 2A.F ....|--- .... ....|--- .... ....
....|..|C-3 RF.F ....|--- .... ....|E-3 4F17 ....
....|..|E-1 2F.A ....|--- .... ....|--- .... ....
....|..|C-4 AF.F ....|C#5 3F.F ....|E-3 4F1F ....
..24|..|E-1 2A.F ....|--- .... ....|--- .... ....
....|..|E-1 2F.7 ....|--- .... ....|E-3 4F17 ....
....|..|--- .... ....|--- .... ....|--- .... ....
....|..|C-5 VF.F ....|D-5 3F.F ....|E-3 4F1F ....
..24|..|E-1 2A.F ....|--- .... ....|--- .... ....
..24|..|E-1 2A.F ....|--- .... ....|E-3 4F1F ....
....|..|--- .... ....|--- .... ....|--- .... ....
....|..|C-4 AF.F ....|F#5 3F.F ....|E-3 4F17 ....
....|..|E-1 2F.A ....|--- .... ....|--- .... ....
..24|..|E-1 2A.F ....|--- .... ....|E-3 4F1F ....
....|..|E-1 2F.7 ....|--- .... ....|--- .... ....

[Pattern5]
....|..|C-4 AF.F ....|B-4 3F.F ....|G-3 4F1F ....
..1E|..|G-1 2A.F ....|--- .... ....|--- .... ....
....|..|E-1 2F.7 ....|--- .... ....|E-3 4F17 ....
....|..|--- .... ....|--- .... ....|--- .... ....
..1E|..|G-1 2A.F ....|C#5 3F.7 ....|G-3 4F1F ....
....|..|E-1 2F.7 ....|--- .... ....|--- .... ....
....|..|C-4 AF.F ....|--- .... ....|G-3 4F1F ....
..1E|..|G-1 2A.F ....|--- .... ....|--- .... ....
....|..|C-5 VF.F ....|D-5 3F.7 ....|E-3 4F17 ....
....|..|E-1 2F.7 ....|--- .... ....|--- .... ....
..1E|..|G-1 2A.F ....|--- .... ....|G-3 4F1F ....
....|..|--- .... ....|--- .... ....|--- .... ....
....|..|C-4 AF.F ....|A#5 3F.F ....|G-3 4F1F ....
..1E|..|G-1 2A.F ....|--- .... ....|--- .... ....
....|..|R-- .... ....|--- .... ....|--- .... ....
....|..|--- .... ....|--- .... ....|--- .... ....
....|..|C-3 RF.F ....|B-5 3F.F ....|G-3 4F1F ....
..1E|..|G-1 2A.F ....|--- .... ....|--- .... ....
....|..|C-3 RF.F ....|--- .... ....|E-3 4F17 ....
....|..|G-1 2F.A ....|--- .... ....|--- .... ....
....|..|C-4 AF.F ....|A#5 3F.F ....|G-3 4F1F ....
..1E|..|G-1 2A.F ....|--- .... ....|--- .... ....
....|..|E-1 2F.7 ....|--- .... ....|E-3 4F17 ....
....|..|--- .... ....|--- .... ....|--- .... ....
....|..|C-5 VF.F ....|B-5 3F.F ....|G-3 4F1F ....
..1E|..|G-1 2A.F ....|--- .... ....|--- .... ....
..1E|..|G-1 2A.F ....|--- .... ....|G-3 4F1F ....
....|..|--- .... ....|--- .... ....|--- .... ....
....|..|C-4 AF.F ....|A#5 3F.F ....|G-3 4F17 ....
....|..|G-1 2F.A ....|--- .... ....|--- .... ....
..1E|..|G-1 2A.F ....|--- .... ....|G-3 4F1F ....
....|..|G-1 2F.7 ....|--- .... ....|--- .... ....
....|..|C-4 AF.F ....|D-5 3F.F ....|A-3 4F1F ....
..1B|..|A-1 2A.F ....|--- .... ....|--- .... ....
....|..|G-1 2F.7 ....|--- .... ....|G-3 4F17 ....
....|..|--- .... ....|--- .... ....|--- .... ....
....|..|C-4 AF.F ....|A#5 3F.7 ....|A-3 4F1F ....
..1B|..|A-1 2A.F ....|--- .... ....|--- .... ....
..1B|..|A-1 2A.F ....|--- .... ....|A-3 4F1F ....
....|..|--- .... ....|--- .... ....|--- .... ....
....|..|C-5 VF.F ....|B-5 3F.7 ....|G-3 4F17 ....
....|..|G-1 2F.7 ....|--- .... ....|--- .... ....
..1B|..|A-1 2A.F ....|--- .... ....|A-3 4F1F ....
....|..|--- .... ....|--- .... ....|--- .... ....
....|..|C-4 AF.F ....|C#5 3F.F ....|A-3 4F1F ....
..1B|..|A-1 2A.F ....|--- .... ....|--- .... ....
....|..|C-5 VF.F ....|--- .... ....|--- .... ....
....|..|--- .... ....|--- .... ....|--- .... ....
....|..|C-5 VF.F ....|D-5 3F.F ....|A-3 4F1F ....
..1B|..|A-1 2A.F ....|--- .... ....|--- .... ....
....|..|C-5 VF.F ....|--- .... ....|G-3 4F17 ....
....|..|--- .... ....|--- .... ....|--- .... ....
....|..|C-4 AF.F ....|C#5 3F.F ....|A-3 4F1F ....
..1B|..|A-1 2A.F ....|--- .... ....|--- .... ....
....|..|G-1 2F.7 ....|--- .... ....|G-3 4F17 ....
....|..|--- .... ....|--- .... ....|--- .... ....
....|..|C-5 VF.F ....|D-5 3F.F ....|A-3 4F1F ....
..1B|..|A-1 2A.F ....|--- .... ....|--- .... ....
..1B|..|A-1 2A.F ....|--- .... ....|A-3 4F1F ....
....|..|--- .... ....|--- .... ....|--- .... ....
....|..|C-5 VF.F ....|F#5 3F.F ....|A-3 4F17 ....
....|..|A-1 2F.7 ....|--- .... ....|--- .... ....
..1B|..|A-1 2A.F ....|--- .... ....|A-3 4F1F ....
....|..|--- .... ....|--- .... ....|--- .... ....

[Pattern6]
....|..|C-4 AF.F ....|B-4 3F.F ....|B-3 4F1F ....
..18|..|B-1 2A.F ....|--- .... ....|--- .... ....
....|..|A-1 2F.7 ....|--- .... ....|A-3 4F17 ....
....|..|--- .... ....|--- .... ....|--- .... ....
..18|..|B-1 2A.F ....|C#5 3F.7 ....|B-3 4F1F ....
....|..|A-1 2F.7 ....|--- .... ....|--- .... ....
....|..|C-4 AF.F ....|--- .... ....|B-3 4F1F ....
..18|..|B-1 2A.F ....|--- .... ....|--- .... ....
....|..|C-5 VF.F ....|D-5 3F.7 ....|A-3 4F17 ....
....|..|A-1 2F.7 ....|--- .... ....|--- .... ....
..18|..|B-1 2A.F ....|--- .... ....|B-3 4F1F ....
....|..|--- .... ....|--- .... ....|--- .... ....
....|..|C-4 AF.F ....|A#5 3F.F ....|B-3 4F1F ....
..18|..|B-1 2A.F ....|--- .... ....|--- .... ....
....|..|R-- .... ....|--- .... ....|--- .... ....
....|..|--- .... ....|--- .... ....|--- .... ....
....|..|C-3 RF.F ....|B-5 3F.F ....|B-3 4F1F ....
..18|..|B-1 2A.F ....|--- .... ....|--- .... ....
....|..|C-3 RF.F ....|--- .... ....|A-3 4F17 ....
....|..|B-1 2F.A ....|--- .... ....|--- .... ....
....|..|C-4 AF.F ....|A#5 3F.F ....|B-3 4F1F ....
..18|..|B-1 2A.F ....|--- .... ....|--- .... ....
....|..|A-1 2F.7 ....|--- .... ....|A-3 4F17 ....
....|..|--- .... ....|--- .... ....|--- .... ....
....|..|C-5 VF.F ....|B-5 3F.F ....|B-3 4F1F ....
..18|..|B-1 2A.F ....|--- .... ....|--- .... ....
..18|..|B-1 2A.F ....|--- .... ....|B-3 4F1F ....
....|..|--- .... ....|--- .... ....|--- .... ....
....|..|C-4 AF.F ....|A#5 3F.F ....|B-3 4F17 ....
....|..|B-1 2F.A ....|--- .... ....|--- .... ....
..18|..|B-1 2A.F ....|--- .... ....|B-3 4F1F ....
....|..|B-1 2F.7 ....|--- .... ....|--- .... ....
....|..|C-4 AF.F ....|D-5 3F.F ....|B-3 4F1F ....
..18|..|B-1 2A.F ....|--- .... ....|--- .... ....
....|..|B-1 2F.7 ....|--- .... ....|B-3 4F17 ....
....|..|--- .... ....|--- .... ....|--- .... ....
..18|..|B-1 2A.F ....|A#5 3F.7 ....|B-3 4F1F ....
....|..|B-1 2F.7 ....|--- .... ....|--- .... ....
....|..|C-4 AF.F ....|--- .... ....|B-3 4F1F ....
..18|..|B-1 2A.F ....|--- .... ....|--- .... ....
....|..|C-5 VF.F ....|B-5 3F.7 ....|B-3 4F17 ....
....|..|B-1 2F.7 ....|--- .... ....|--- .... ....
..18|..|B-1 2A.F ....|--- .... ....|B-3 4F1F ....
....|..|--- .... ....|--- .... ....|--- .... ....
....|..|C-4 AF.F ....|C#5 3F.F ....|B-3 4F1F ....
..18|..|B-1 2A.F ....|--- .... ....|--- .... ....
....|..|R-- .... ....|--- .... ....|B-3 4F1F ....
....|..|--- .... ....|--- .... ....|--- .... ....
....|..|C-3 RF.F ....|D-5 3F.F ....|B-3 4F17 ....
..18|..|B-1 2A.F ....|--- .... ....|--- .... ....
....|..|C-3 RF.F ....|--- .... ....|B-3 4F1F ....
..18|..|B-1 2A.F ....|--- .... ....|--- .... ....
....|..|C-4 AF.F ....|C#5 3F.F ....|--- .... ....
....|..|--- .... ....|--- .... ....|--- .... ....
..18|..|B-1 2A.F ....|--- .... ....|B-3 4F1F ....
....|..|--- .... ....|--- .... ....|--- .... ....
....|..|C-5 VF.F ....|D-5 3F.F ....|B-3 4F1F ....
..18|..|B-1 2A.F ....|--- .... ....|--- .... ....
....|..|R-- .... ....|--- .... ....|B-3 4F1A ....
....|..|--- .... ....|--- .... ....|--- .... ....
....|..|C-4 AF.F ....|F#5 3F.F ....|B-3 4F.F ....
..18|..|B-1 2A.F ....|--- .... ....|--- .... ....
....|..|C-4 AF.7 ....|--- .... ....|B-3 4F17 ....
....|..|B-1 2F.7 ....|--- .... ....|--- .... ....

[Pattern7]
....|..|C-4 AF.F ....|B-4 3F.F ....|G-3 4F1F ....
..1E|..|G-1 2A.F ....|--- .... ....|--- .... ....
....|..|B-1 2F.7 ....|--- .... ....|B-3 4F17 ....
....|..|--- .... ....|--- .... ....|--- .... ....
..1E|..|G-1 2A.F ....|C#5 3F.7 ....|A-3 4F2F ....
....|..|B-1 2F.7 ....|--- .... ....|--- .... ....
....|..|C-4 AF.F ....|--- .... ....|G-3 4F1F ....
..1E|..|G-1 2A.F ....|--- .... ....|--- .... ....
....|..|C-5 VF.F ....|D-5 3F.7 ....|B-3 4F.A ....
....|..|B-1 2F.7 ....|--- .... ....|--- .... ....
..1E|..|G-1 2A.F ....|--- .... ....|G-3 4F1F ....
....|..|B-1 2F.7 ....|--- .... ....|--- .... ....
....|..|C-4 AF.F ....|A#5 3F.F ....|G-3 4F1F ....
..1E|..|G-1 2A.F ....|--- .... ....|--- .... ....
....|..|B-1 2F.7 ....|--- .... ....|B-3 4F17 ....
....|..|--- .... ....|--- .... ....|--- .... ....
....|..|C-3 RF.F ....|B-5 3F.F ....|G-3 4F1F ....
..1E|..|G-1 2A.F ....|--- .... ....|--- .... ....
....|..|C-3 RF.F ....|--- .... ....|G-3 4F1F ....
..1E|..|G-1 2A.F ....|--- .... ....|--- .... ....
....|..|C-4 AF.F ....|A#5 3F.F ....|B-3 4F.7 ....
....|..|B-1 2F.7 ....|--- .... ....|--- .... ....
..1E|..|G-1 2A.F ....|--- .... ....|G-3 4F1F ....
....|..|--- .... ....|--- .... ....|--- .... ....
....|..|C-5 VF.F ....|B-5 3F.F ....|G-3 4F1F ....
..1E|..|G-1 2A.F ....|--- .... ....|--- .... ....
....|..|R-- .... ....|--- .... ....|--- .... ....
....|..|--- .... ....|--- .... ....|--- .... ....
....|..|C-4 AF.F ....|A#5 3F.F ....|G-3 4F.F ....
..1E|..|G-1 2A.F ....|--- .... ....|--- .... ....
....|..|C-4 AF.7 ....|--- .... ....|G-3 4F17 ....
....|..|G-1 2F.7 ....|--- .... ....|--- .... ....
....|..|C-4 AF.F ....|D-5 3F.F ....|A-3 4F1F ....
..1B|..|A-1 2A.F ....|--- .... ....|--- .... ....
....|..|G-1 2F.7 ....|--- .... ....|G-3 4F17 ....
....|..|--- .... ....|--- .... ....|--- .... ....
....|..|C-4 AF.F ....|A#5 3F.7 ....|A-3 4F1F ....
..1B|..|A-1 2A.F ....|--- .... ....|--- .... ....
..1B|..|A-1 2A.F ....|--- .... ....|A-3 4F1F ....
....|..|--- .... ....|--- .... ....|--- .... ....
....|..|C-5 VF.F ....|B-5 3F.7 ....|G-3 4F17 ....
....|..|G-1 2F.7 ....|--- .... ....|--- .... ....
..1B|..|A-1 2A.F ....|--- .... ....|A-3 4F1F ....
....|..|G-1 2F.7 ....|--- .... ....|--- .... ....
....|..|C-4 AF.F ....|A#5 3F.F ....|A-3 4F1F ....
..1B|..|A-1 2A.F ....|--- .... ....|--- .... ....
....|..|G-1 2F.7 ....|--- .... ....|G-3 4F17 ....
....|..|--- .... ....|--- .... ....|--- .... ....
....|..|C-5 VF.7 ....|B-5 3F.F ....|G-3 4F17 ....
....|..|G-1 2F.7 ....|--- .... ....|--- .... ....
....|..|A-1 2F.A ....|A#5 3F.F ....|A-3 4F1A ....
....|..|--- .... ....|--- .... ....|--- .... ....
....|..|C-4 AF.7 ....|B-5 3F.F ....|G-3 4F.7 ....
....|..|G-1 2F.7 ....|--- .... ....|--- .... ....
....|..|A-1 2F.A ....|--- .... ....|A-3 4F1A ....
....|..|--- .... ....|--- .... ....|--- .... ....
....|..|C-5 VF.F ....|D-5 3F.7 ....|A-3 4F1F ....
..1B|..|A-1 2A.F ....|--- .... ....|--- .... ....
....|..|--- .... ....|--- .... ....|--- .... ....
....|..|--- .... ....|--- .... ....|--- .... ....
....|..|C-4 AF.7 ....|B-5 3F.A ....|A-3 4F17 ....
....|..|A-1 2F.7 ....|--- .... ....|--- .... ....
....|..|A-1 2F.7 ....|A#5 3F.A ....|A-3 4F17 ....
....|..|--- .... ....|--- .... ....|--- .... ....

[Pattern8]
....|..|C-4 AF.F ....|B-4 3F.F ....|E-3 4F1F ....
..24|..|E-1 2A.F ....|--- .... ....|--- .... ....
....|..|A-1 2F.7 ....|--- .... ....|A-3 4F17 ....
....|..|--- .... ....|--- .... ....|--- .... ....
..24|..|E-1 2A.F ....|A#5 3F.7 ....|E-3 4F1F ....
....|..|A-1 2F.7 ....|--- .... ....|--- .... ....
....|..|C-4 AF.F ....|--- .... ....|E-3 4F1F ....
..24|..|E-1 2A.F ....|--- .... ....|--- .... ....
....|..|C-5 VF.F ....|B-5 3F.7 ....|R-- .... ....
....|..|--- .... ....|--- .... ....|--- .... ....
..24|..|E-1 2A.F ....|A#5 3F.7 ....|E-3 4F1F ....
....|..|--- .... ....|--- .... ....|--- .... ....
....|..|C-4 AF.F ....|A#5 3F.F ....|E-3 4F1F ....
..24|..|E-1 2A.F ....|--- .... ....|--- .... ....
....|..|R-- .... ....|--- .... ....|--- .... ....
....|..|--- .... ....|--- .... ....|--- .... ....
....|..|C-3 RF.F ....|B-5 3F.F ....|E-3 4F1F ....
..24|..|E-1 2A.F ....|--- .... ....|--- .... ....
....|..|C-3 RF.F ....|--- .... ....|E-3 4F1A ....
....|..|E-1 2F.A ....|--- .... ....|--- .... ....
....|..|C-4 AF.F ....|A#5 3F.F ....|E-3 4F1F ....
..24|..|E-1 2A.F ....|--- .... ....|--- .... ....
....|..|E-1 2F.A ....|--- .... ....|E-3 4F1A ....
....|..|--- .... ....|--- .... ....|--- .... ....
....|..|C-5 VF.F ....|B-5 3F.F ....|E-3 4F1F ....
..24|..|E-1 2A.F ....|--- .... ....|--- .... ....
..24|..|E-1 2A.F ....|--- .... ....|E-3 4F1F ....
....|..|--- .... ....|--- .... ....|--- .... ....
....|..|C-4 AF.F ....|A#5 3F.F ....|E-3 4F17 ....
....|..|E-1 2F.A ....|--- .... ....|--- .... ....
..24|..|E-1 2A.F ....|--- .... ....|E-3 4F1F ....
....|..|E-1 2F.7 ....|--- .... ....|--- .... ....
....|..|C-4 AF.F ....|D-5 3F.F ....|E-3 4F1F ....
..24|..|E-1 2A.F ....|--- .... ....|--- .... ....
....|..|E-1 2F.7 ....|--- .... ....|E-3 4F17 ....
....|..|--- .... ....|--- .... ....|--- .... ....
..24|..|E-1 2A.F ....|A#5 3F.7 ....|E-3 4F1F ....
....|..|E-1 2F.7 ....|--- .... ....|--- .... ....
....|..|C-4 AF.F ....|--- .... ....|E-3 4F1F ....
..24|..|E-1 2A.F ....|--- .... ....|--- .... ....
....|..|C-5 VF.F ....|B-5 3F.7 ....|E-3 4F17 ....
....|..|E-1 2F.7 ....|--- .... ....|--- .... ....
..24|..|E-1 2A.F ....|--- .... ....|E-3 4F1F ....
....|..|--- .... ....|--- .... ....|--- .... ....
....|..|C-4 AF.F ....|C#5 3F.F ....|E-3 4F1F ....
..24|..|E-1 2A.F ....|--- .... ....|--- .... ....
....|..|R-- .... ....|--- .... ....|--- .... ....
....|..|--- .... ....|--- .... ....|--- .... ....
....|..|C-3 RF.F ....|D-5 3F.F ....|E-3 4F1F ....
..24|..|E-1 2A.F ....|--- .... ....|--- .... ....
....|..|C-3 RF.F ....|--- .... ....|E-3 4F17 ....
....|..|E-1 2F.A ....|--- .... ....|--- .... ....
....|..|C-4 AF.F ....|C#5 3F.F ....|E-3 4F1F ....
..24|..|E-1 2A.F ....|--- .... ....|--- .... ....
....|..|E-1 2F.7 ....|--- .... ....|E-3 4F17 ....
....|..|--- .... ....|--- .... ....|--- .... ....
....|..|C-5 VF.F ....|D-5 3F.F ....|E-3 4F1F ....
..24|..|E-1 2A.F ....|--- .... ....|--- .... ....
..24|..|E-1 2A.F ....|--- .... ....|E-3 4F1F ....
....|..|--- .... ....|--- .... ....|--- .... ....
....|..|C-4 AF.F ....|F#5 3F.F ....|E-3 4F17 ....
....|..|E-1 2F.A ....|--- .... ....|--- .... ....
..24|..|E-1 2A.F ....|--- .... ....|E-3 4F1F ....
....|..|E-1 2F.7 ....|--- .... ....|--- .... ....

[Pattern9]
....|..|C-4 AF.F ....|B-4 3F.F ....|G-3 4F1F ....
..1E|..|G-1 2A.F ....|--- .... ....|--- .... ....
....|..|E-1 2F.7 ....|--- .... ....|E-3 4F17 ....
....|..|--- .... ....|--- .... ....|--- .... ....
..1E|..|G-1 2A.F ....|C#5 3F.7 ....|G-3 4F1F ....
....|..|E-1 2F.7 ....|--- .... ....|--- .... ....
....|..|C-4 AF.F ....|--- .... ....|G-3 4F1F ....
..1E|..|G-1 2A.F ....|--- .... ....|--- .... ....
....|..|C-5 VF.F ....|D-5 3F.7 ....|E-3 4F17 ....
....|..|E-1 2F.7 ....|--- .... ....|--- .... ....
..1E|..|G-1 2A.F ....|--- .... ....|G-3 4F1F ....
....|..|--- .... ....|--- .... ....|--- .... ....
....|..|C-4 AF.F ....|A#5 3F.F ....|G-3 4F1F ....
..1E|..|G-1 2A.F ....|--- .... ....|--- .... ....
....|..|R-- .... ....|--- .... ....|--- .... ....
....|..|--- .... ....|--- .... ....|--- .... ....
....|..|C-3 RF.F ....|B-5 3F.F ....|G-3 4F1F ....
..1E|..|G-1 2A.F ....|--- .... ....|--- .... ....
....|..|C-3 RF.F ....|--- .... ....|E-3 4F17 ....
....|..|G-1 2F.A ....|--- .... ....|--- .... ....
....|..|C-4 AF.F ....|A#5 3F.F ....|G-3 4F1F ....
..1E|..|G-1 2A.F ....|--- .... ....|--- .... ....
....|..|E-1 2F.7 ....|--- .... ....|E-3 4F17 ....
....|..|--- .... ....|--- .... ....|--- .... ....
....|..|C-5 VF.F ....|B-5 3F.F ....|G-3 4F1F ....
..1E|..|G-1 2A.F ....|--- .... ....|--- .... ....
..1E|..|G-1 2A.F ....|--- .... ....|G-3 4F1F ....
....|..|--- .... ....|--- .... ....|--- .... ....
....|..|C-4 AF.F ....|B-5 3F.A ....|G-3 4F17 ....
....|..|G-1 2F.A ....|--- .... ....|--- .... ....
..1E|..|G-1 2A.F ....|--- .... ....|G-3 4F1F ....
....|..|G-1 2F.7 ....|--- .... ....|--- .... ....
....|..|C-4 AF.F ....|A#5 3F.A ....|A-3 4F1F ....
....|..|G-1 2F.A ....|--- .... ....|--- .... ....
....|..|G-1 2F.7 ....|--- .... ....|G-3 4F17 ....
....|..|C-4 AF.F ....|--- .... ....|--- .... ....
....|..|C-4 AF.7 ....|A#5 3F.7 ....|G-3 4F17 ....
....|..|G-1 2F.7 ....|--- .... ....|--- .... ....
....|..|C-4 AF.F ....|--- .... ....|G#3 4F1F ....
....|..|--- .... ....|--- .... ....|--- .... ....
....|..|C-3 RF.7 ....|B-5 3F.7 ....|G-3 4F17 ....
....|..|G-1 2F.7 ....|--- .... ....|--- .... ....
....|..|C-3 RF.7 ....|--- .... ....|G-3 4F1A ....
....|..|--- .... ....|--- .... ....|--- .... ....
....|..|C-4 AF.F ....|A#5 3F.7 ....|G-3 4F1F ....
....|..|G-1 2F.7 ....|--- .... ....|--- .... ....
....|..|R-- .... ....|--- .... ....|--- .... ....
....|..|C-4 AF.A ....|--- .... ....|--- .... ....
....|..|C-5 VF.7 ....|B-5 3F.7 ....|G-3 4F17 ....
....|..|G-1 2F.7 ....|--- .... ....|--- .... ....
....|..|G-1 2F.7 ....|--- .... ....|G-3 4F17 ....
....|..|--- .... ....|--- .... ....|--- .... ....
....|..|C-4 AF.F ....|R-- .... ....|F-3 4F1F ....
....|..|--- .... ....|--- .... ....|--- .... ....
....|..|G-1 2F.7 ....|--- .... ....|G-3 4F17 ....
....|..|--- .... ....|--- .... ....|--- .... ....
....|..|C-4 AF.F ....|--- .... ....|A-3 4F17 ....
....|..|R-- .... ....|--- .... ....|--- .... ....
....|..|C-5 VF.F ....|--- .... ....|E-3 4F1F ....
....|..|C-4 AF.7 ....|--- .... ....|--- .... ....
....|..|--- .... ....|--- .... ....|--- .... ....
....|..|--- .... ....|--- .... ....|B-2 4F.F ....
....|..|C-4 AF.F ....|--- .... ....|G#3 4F17 ....
....|..|--- .... ....|--- .... ....|--- .... ....

[Pattern10]
....|..|C-4 AF.A ....|B-2 3F.F ....|B-4 4F.F ....
....|..|--- .... ....|--- .... ....|--- .... ....
....|..|--- .... ....|--- .... ....|--- .... ....
....|..|--- .... ....|--- .... ....|--- .... ....
....|..|C-4 AF.7 ....|--- .... ....|B-4 4F.F ....
....|..|--- .... ....|B-2 3F.F ....|--- .... ....
....|..|C-5 VF.A ....|--- .... ....|E-3 4F1A ....
....|..|--- .... ....|--- .... ....|--- .... ....
....|..|--- .... ....|--- .... ....|F#5 4F.F ....
....|..|--- .... ....|--- .... ....|B-2 4F.A ....
....|..|C-4 AF.A ....|--- .... ....|--- .... ....
....|..|--- .... ....|B-2 3F.F ....|--- .... ....
....|..|C-4 AF.7 ....|B-2 3F.A ....|B-4 4F.F ....
....|..|--- .... ....|--- .... ....|--- .... ....
....|..|--- .... ....|--- .... ....|--- .... ....
....|..|--- .... ....|--- .... ....|--- .... ....
....|..|C-4 AF.7 ....|B-2 3F.F ....|D-5 4F.F ....
....|..|--- .... ....|B-2 3F.F ....|--- .... ....
....|..|C-5 VF.7 ....|--- .... ....|C#5 4F.F ....
....|..|--- .... ....|--- .... ....|--- .... ....
....|..|--- .... ....|--- .... ....|B-4 4F.F ....
....|..|--- .... ....|--- .... ....|B-2 4F.7 ....
....|..|C-4 AF.7 ....|--- .... ....|--- .... ....
....|..|--- .... ....|B-2 3F.F ....|--- .... ....
....|..|R-- .... ....|B-2 3F.7 ....|F#5 4F.F ....
....|..|--- .... ....|--- .... ....|--- .... ....
....|..|--- .... ....|--- .... ....|--- .... ....
....|..|--- .... ....|--- .... ....|--- .... ....
....|..|--- .... ....|B-2 3F.F ....|B-4 4F.F ....
....|..|--- .... ....|B-2 3F.7 ....|--- .... ....
....|..|--- .... ....|--- .... ....|C#5 4F.A ....
....|..|--- .... ....|--- .... ....|--- .... ....
....|..|--- .... ....|B-2 3F.F ....|D-5 4F.F ....
....|..|--- .... ....|--- .... ....|--- .... ....
....|..|--- .... ....|--- .... ....|C#5 4F.F ....
....|..|--- .... ....|B-2 3F.7 ....|--- .... ....
....|..|--- .... ....|--- .... ....|B-4 4F.F ....
....|..|--- .... ....|B-2 3F.F ....|--- .... ....
....|..|--- .... ....|--- .... ....|--- .... ....
....|..|--- .... ....|--- .... ....|--- .... ....
....|..|--- .... ....|B-2 3F.7 ....|F#5 4F.F ....
....|..|--- .... ....|B-2 3F.7 ....|--- .... ....
....|..|--- .... ....|--- .... ....|C#5 4F.7 ....
....|..|--- .... ....|B-2 3F.F ....|--- .... ....
....|..|--- .... ....|B-2 3F.A ....|B-4 4F.F ....
....|..|--- .... ....|--- .... ....|--- .... ....
....|..|--- .... ....|--- .... ....|C#5 4F.A ....
....|..|--- .... ....|B-2 3F.7 ....|--- .... ....
....|..|--- .... ....|B-2 3F.F ....|D-5 4F.F ....
....|..|--- .... ....|B-2 3F.F ....|--- .... ....
....|..|--- .... ....|--- .... ....|C#5 4F.F ....
....|..|--- .... ....|--- .... ....|--- .... ....
....|..|--- .... ....|B-2 3F.7 ....|B-4 4F.F ....
....|..|--- .... ....|--- .... ....|--- .... ....
....|..|--- .... ....|--- .... ....|--- .... ....
....|..|--- .... ....|B-2 3F.F ....|--- .... ....
....|..|--- .... ....|B-2 3F.7 ....|F#5 4F.F ....
....|..|--- .... ....|--- .... ....|--- .... ....
....|..|--- .... ....|--- .... ....|C#5 4F.7 ....
....|..|--- .... ....|--- .... ....|--- .... ....
....|..|--- .... ....|B-2 3F.F ....|B-4 4F.F ....
....|..|--- .... ....|B-2 3F.7 ....|--- .... ....
....|..|--- .... ....|--- .... ....|C#5 4F.A ....
....|..|--- .... ....|--- .... ....|--- .... ....

[Pattern11]
....|..|--- .... ....|B-2 3F.F ....|D-5 4F.F ....
....|..|--- .... ....|--- .... ....|--- .... ....
....|..|--- .... ....|--- .... ....|C#5 4F.F ....
....|..|--- .... ....|B-2 3F.7 ....|--- .... ....
....|..|--- .... ....|--- .... ....|B-4 4F.F ....
....|..|--- .... ....|B-2 3F.F ....|--- .... ....
....|..|--- .... ....|--- .... ....|--- .... ....
....|..|--- .... ....|--- .... ....|--- .... ....
....|..|--- .... ....|B-2 3F.7 ....|F#5 4F.F ....
....|..|--- .... ....|B-2 3F.7 ....|--- .... ....
....|..|--- .... ....|--- .... ....|C#5 4F.7 ....
....|..|--- .... ....|B-2 3F.F ....|--- .... ....
....|..|--- .... ....|B-2 3F.A ....|B-4 4F.F ....
....|..|--- .... ....|--- .... ....|--- .... ....
....|..|--- .... ....|--- .... ....|C#5 4F.A ....
....|..|--- .... ....|B-2 3F.7 ....|--- .... ....
....|..|--- .... ....|B-2 3F.F ....|D-5 4F.F ....
....|..|--- .... ....|B-2 3F.F ....|--- .... ....
....|..|--- .... ....|--- .... ....|C#5 4F.F ....
....|..|--- .... ....|--- .... ....|--- .... ....
....|..|--- .... ....|B-2 3F.7 ....|B-4 4F.F ....
....|..|--- .... ....|--- .... ....|--- .... ....
....|..|--- .... ....|--- .... ....|--- .... ....
....|..|--- .... ....|B-2 3F.F ....|--- .... ....
....|..|--- .... ....|B-2 3F.7 ....|F#5 4F.F ....
....|..|--- .... ....|--- .... ....|--- .... ....
....|..|--- .... ....|--- .... ....|C#5 4F.7 ....
....|..|--- .... ....|--- .... ....|--- .... ....
....|..|--- .... ....|B-2 3F.F ....|B-4 4F.F ....
....|..|--- .... ....|B-2 3F.7 ....|--- .... ....
....|..|--- .... ....|--- .... ....|C#5 4F.A ....
....|..|--- .... ....|--- .... ....|--- .... ....
....|..|--- .... ....|B-2 3F.F ....|D-5 4F.F ....
....|..|--- .... ....|--- .... ....|--- .... ....
....|..|--- .... ....|--- .... ....|C#5 4F.F ....
....|..|--- .... ....|B-2 3F.7 ....|--- .... ....
....|..|--- .... ....|--- .... ....|B-4 4F.F ....
....|..|--- .... ....|B-2 3F.F ....|--- .... ....
....|..|--- .... ....|--- .... ....|--- .... ....
....|..|--- .... ....|--- .... ....|--- .... ....
....|..|--- .... ....|B-2 3F.7 ....|F#5 4F.F ....
....|..|--- .... ....|B-2 3F.7 ....|--- .... ....
....|..|--- .... ....|--- .... ....|C#5 4F.7 ....
....|..|--- .... ....|B-2 3F.F ....|--- .... ....
....|..|--- .... ....|B-2 3F.A ....|B-4 4F.F ....
....|..|--- .... ....|--- .... ....|--- .... ....
....|..|--- .... ....|--- .... ....|C#5 4F.A ....
....|..|--- .... ....|B-2 3F.7 ....|--- .... ....
....|..|--- .... ....|B-2 3F.F ....|D-5 4F.F ....
....|..|--- .... ....|B-2 3F.F ....|--- .... ....
....|..|--- .... ....|--- .... ....|C#5 4F.F ....
....|..|--- .... ....|--- .... ....|--- .... ....
....|..|--- .... ....|B-2 3F.7 ....|B-4 4F.F ....
....|..|--- .... ....|--- .... ....|--- .... ....
....|..|--- .... ....|--- .... ....|--- .... ....
....|..|--- .... ....|B-2 3F.F ....|--- .... ....
....|..|--- .... ....|B-2 3F.7 ....|F#5 4F.F ....
....|..|--- .... ....|--- .... ....|--- .... ....
....|..|--- .... ....|--- .... ....|C#5 4F.7 ....
....|..|--- .... ....|--- .... ....|--- .... ....
....|..|--- .... ....|B-2 3F.F ....|B-4 4F.F ....
....|..|--- .... ....|B-2 3F.7 ....|--- .... ....
....|..|--- .... ....|--- .... ....|C#5 4F.A ....
....|..|--- .... ....|--- .... ....|--- .... ....

[Pattern13]
....|..|--- .... ....|G-2 3F.F ....|E-5 4F.F ....
....|..|--- .... ....|--- .... ....|--- .... ....
....|..|--- .... ....|--- .... ....|E-4 4F.F ....
....|..|--- .... ....|B-2 3F.7 ....|--- .... ....
....|..|--- .... ....|--- .... ....|E-5 4F.F ....
....|..|--- .... ....|G-2 3F.F ....|--- .... ....
....|..|--- .... ....|--- .... ....|A-4 4F.F ....
....|..|--- .... ....|--- .... ....|--- .... ....
....|..|--- .... ....|B-2 3F.7 ....|E-5 4F.F ....
....|..|--- .... ....|B-2 3F.7 ....|--- .... ....
....|..|--- .... ....|--- .... ....|C#5 4F.7 ....
....|..|--- .... ....|G-2 3F.F ....|--- .... ....
....|..|--- .... ....|G-2 3F.A ....|F#5 4F.F ....
....|..|--- .... ....|--- .... ....|--- .... ....
....|..|--- .... ....|--- .... ....|E-4 4F.A ....
....|..|--- .... ....|B-2 3F.7 ....|--- .... ....
....|..|--- .... ....|G-2 3F.F ....|E-5 4F.F ....
....|..|--- .... ....|G-2 3F.F ....|--- .... ....
....|..|--- .... ....|--- .... ....|E-4 4F.F ....
....|..|--- .... ....|--- .... ....|--- .... ....
....|..|--- .... ....|B-2 3F.7 ....|E-5 4F.F ....
....|..|--- .... ....|--- .... ....|--- .... ....
....|..|--- .... ....|--- .... ....|A-4 4F.F ....
....|..|--- .... ....|G-2 3F.F ....|--- .... ....
....|..|--- .... ....|G-2 3F.7 ....|E-5 4F.F ....
....|..|--- .... ....|--- .... ....|--- .... ....
....|..|--- .... ....|--- .... ....|E-4 4F.7 ....
....|..|--- .... ....|--- .... ....|--- .... ....
....|..|--- .... ....|G-2 3F.F ....|F#5 4F.F ....
....|..|--- .... ....|G-2 3F.7 ....|--- .... ....
....|..|--- .... ....|--- .... ....|A-4 4F.7 ....
....|..|--- .... ....|--- .... ....|--- .... ....
....|..|--- .... ....|A-2 3F.F ....|E-5 4F.F ....
....|..|--- .... ....|--- .... ....|--- .... ....
....|..|--- .... ....|--- .... ....|E-4 4F.F ....
....|..|--- .... ....|G-2 3F.7 ....|--- .... ....
....|..|--- .... ....|--- .... ....|E-5 4F.F ....
....|..|--- .... ....|A-2 3F.F ....|--- .... ....
....|..|--- .... ....|--- .... ....|A-4 4F.F ....
....|..|--- .... ....|--- .... ....|--- .... ....
....|..|--- .... ....|G-2 3F.7 ....|E-5 4F.F ....
....|..|--- .... ....|G-2 3F.7 ....|--- .... ....
....|..|--- .... ....|--- .... ....|E-4 4F.7 ....
....|..|--- .... ....|A-2 3F.F ....|--- .... ....
....|..|--- .... ....|A-2 3F.A ....|F#5 4F.F ....
....|..|--- .... ....|--- .... ....|--- .... ....
....|..|--- .... ....|--- .... ....|A-4 4F.7 ....
....|..|--- .... ....|G-2 3F.7 ....|--- .... ....
....|..|--- .... ....|A-2 3F.F ....|E-5 4F.F ....
....|..|--- .... ....|A-2 3F.F ....|--- .... ....
....|..|--- .... ....|--- .... ....|E-4 4F.F ....
....|..|--- .... ....|--- .... ....|--- .... ....
....|..|--- .... ....|G-2 3F.7 ....|E-5 4F.F ....
....|..|--- .... ....|--- .... ....|--- .... ....
....|..|--- .... ....|--- .... ....|A-4 4F.F ....
....|..|--- .... ....|A-2 3F.F ....|--- .... ....
....|..|--- .... ....|A-2 3F.7 ....|E-5 4F.F ....
....|..|--- .... ....|--- .... ....|--- .... ....
....|..|--- .... ....|--- .... ....|E-4 4F.7 ....
....|..|--- .... ....|--- .... ....|--- .... ....
....|..|--- .... ....|A-2 3F.F ....|F#5 4F.F ....
....|..|--- .... ....|A-2 3F.7 ....|--- .... ....
....|..|--- .... ....|--- .... ....|A-4 4F.7 ....
....|..|--- .... ....|--- .... ....|--- .... ....

[Pattern14]
....|..|--- .... ....|E-2 3F.F ....|B-4 4F.F ....
....|..|--- .... ....|--- .... ....|--- .... ....
....|..|--- .... ....|--- .... ....|A-4 4F.A ....
....|..|--- .... ....|A-2 3F.7 ....|--- .... ....
....|..|--- .... ....|--- .... ....|B-4 4F.F ....
....|..|--- .... ....|E-2 3F.F ....|--- .... ....
....|..|--- .... ....|--- .... ....|--- .... ....
....|..|--- .... ....|--- .... ....|--- .... ....
....|..|--- .... ....|A-2 3F.7 ....|F#5 4F.F ....
....|..|--- .... ....|A-2 3F.7 ....|--- .... ....
....|..|--- .... ....|--- .... ....|E-4 4F.7 ....
....|..|--- .... ....|E-2 3F.F ....|--- .... ....
....|..|--- .... ....|E-2 3F.A ....|B-4 4F.F ....
....|..|--- .... ....|--- .... ....|--- .... ....
....|..|--- .... ....|--- .... ....|A-4 4F.7 ....
....|..|--- .... ....|A-2 3F.7 ....|--- .... ....
....|..|--- .... ....|E-2 3F.F ....|D-5 4F.F ....
....|..|--- .... ....|E-2 3F.F ....|--- .... ....
....|..|--- .... ....|--- .... ....|C#5 4F.F ....
....|..|--- .... ....|--- .... ....|--- .... ....
....|..|--- .... ....|A-2 3F.7 ....|B-4 4F.F ....
....|..|--- .... ....|--- .... ....|--- .... ....
....|..|--- .... ....|--- .... ....|--- .... ....
....|..|--- .... ....|E-2 3F.F ....|--- .... ....
....|..|--- .... ....|E-2 3F.7 ....|F#5 4F.F ....
....|..|--- .... ....|--- .... ....|--- .... ....
....|..|--- .... ....|--- .... ....|--- .... ....
....|..|--- .... ....|--- .... ....|--- .... ....
....|..|--- .... ....|E-2 3F.F ....|B-4 4F.F ....
....|..|--- .... ....|E-2 3F.7 ....|--- .... ....
....|..|--- .... ....|--- .... ....|C#5 4F.A ....
....|..|--- .... ....|--- .... ....|--- .... ....
....|..|--- .... ....|E-2 3F.F ....|D-5 4F.F ....
....|..|--- .... ....|--- .... ....|--- .... ....
....|..|--- .... ....|--- .... ....|C#5 4F.F ....
....|..|--- .... ....|E-2 3F.7 ....|--- .... ....
....|..|--- .... ....|--- .... ....|B-4 4F.F ....
....|..|--- .... ....|E-2 3F.F ....|--- .... ....
....|..|--- .... ....|--- .... ....|--- .... ....
....|..|--- .... ....|--- .... ....|--- .... ....
....|..|--- .... ....|E-2 3F.7 ....|F#5 4F.F ....
....|..|--- .... ....|E-2 3F.7 ....|--- .... ....
....|..|--- .... ....|--- .... ....|C#5 4F.7 ....
....|..|--- .... ....|E-2 3F.F ....|--- .... ....
....|..|--- .... ....|E-2 3F.A ....|B-4 4F.F ....
....|..|--- .... ....|--- .... ....|--- .... ....
....|..|--- .... ....|--- .... ....|C#5 4F.A ....
....|..|--- .... ....|E-2 3F.7 ....|--- .... ....
....|..|--- .... ....|E-2 3F.F ....|D-5 4F.F ....
....|..|--- .... ....|E-2 3F.F ....|--- .... ....
....|..|--- .... ....|--- .... ....|C#5 4F.F ....
....|..|--- .... ....|--- .... ....|--- .... ....
....|..|--- .... ....|E-2 3F.7 ....|B-4 4F.F ....
....|..|--- .... ....|--- .... ....|--- .... ....
....|..|--- .... ....|--- .... ....|--- .... ....
....|..|--- .... ....|E-2 3F.F ....|--- .... ....
....|..|--- .... ....|E-2 3F.7 ....|F#5 4F.F ....
....|..|--- .... ....|--- .... ....|--- .... ....
....|..|--- .... ....|--- .... ....|C#5 4F.7 ....
....|..|--- .... ....|--- .... ....|--- .... ....
....|..|--- .... ....|E-2 3F.F ....|B-4 4F.F ....
....|..|--- .... ....|E-2 3F.7 ....|--- .... ....
....|..|--- .... ....|--- .... ....|C#5 4F.A ....
....|..|--- .... ....|--- .... ....|--- .... ....

[Pattern15]
....|..|--- .... ....|G-2 3F.F ....|D-5 4F.F ....
....|..|--- .... ....|--- .... ....|--- .... ....
....|..|--- .... ....|--- .... ....|C#5 4F.F ....
....|..|--- .... ....|E-2 3F.7 ....|--- .... ....
....|..|--- .... ....|--- .... ....|B-4 4F.F ....
....|..|--- .... ....|G-2 3F.F ....|--- .... ....
....|..|--- .... ....|--- .... ....|--- .... ....
....|..|--- .... ....|--- .... ....|--- .... ....
....|..|--- .... ....|E-2 3F.7 ....|F#5 4F.F ....
....|..|--- .... ....|E-2 3F.7 ....|--- .... ....
....|..|--- .... ....|--- .... ....|C#5 4F.7 ....
....|..|--- .... ....|G-2 3F.F ....|--- .... ....
....|..|--- .... ....|G-2 3F.A ....|B-4 4F.F ....
....|..|--- .... ....|--- .... ....|--- .... ....
....|..|--- .... ....|--- .... ....|C#5 4F.A ....
....|..|--- .... ....|E-2 3F.7 ....|--- .... ....
....|..|--- .... ....|G-2 3F.F ....|D-5 4F.F ....
....|..|--- .... ....|G-2 3F.F ....|--- .... ....
....|..|--- .... ....|--- .... ....|C#5 4F.F ....
....|..|--- .... ....|--- .... ....|--- .... ....
....|..|--- .... ....|E-2 3F.7 ....|B-4 4F.F ....
....|..|--- .... ....|--- .... ....|--- .... ....
....|..|--- .... ....|--- .... ....|--- .... ....
....|..|--- .... ....|G-2 3F.F ....|--- .... ....
....|..|--- .... ....|G-2 3F.7 ....|F#5 4F.F ....
....|..|--- .... ....|--- .... ....|--- .... ....
....|..|--- .... ....|--- .... ....|C#5 4F.7 ....
....|..|--- .... ....|--- .... ....|--- .... ....
....|..|--- .... ....|G-2 3F.F ....|B-4 4F.F ....
....|..|--- .... ....|G-2 3F.7 ....|--- .... ....
....|..|--- .... ....|--- .... ....|C#5 4F.A ....
....|..|--- .... ....|--- .... ....|--- .... ....
....|..|--- .... ....|A-2 3F.F ....|D-5 4F.F ....
....|..|--- .... ....|--- .... ....|--- .... ....
....|..|--- .... ....|--- .... ....|C#5 4F.F ....
....|..|--- .... ....|G-2 3F.7 ....|--- .... ....
....|..|--- .... ....|--- .... ....|B-4 4F.F ....
....|..|--- .... ....|A-2 3F.F ....|--- .... ....
....|..|--- .... ....|--- .... ....|--- .... ....
....|..|--- .... ....|--- .... ....|--- .... ....
....|..|--- .... ....|G-2 3F.7 ....|F#5 4F.F ....
....|..|--- .... ....|G-2 3F.7 ....|--- .... ....
....|..|--- .... ....|--- .... ....|C#5 4F.7 ....
....|..|--- .... ....|A-2 3F.F ....|--- .... ....
....|..|--- .... ....|A-2 3F.A ....|B-4 4F.F ....
....|..|--- .... ....|--- .... ....|--- .... ....
....|..|--- .... ....|--- .... ....|C#5 4F.A ....
....|..|--- .... ....|G-2 3F.7 ....|--- .... ....
....|..|--- .... ....|A-2 3F.F ....|D-5 4F.F ....
....|..|--- .... ....|A-2 3F.F ....|--- .... ....
....|..|--- .... ....|--- .... ....|C#5 4F.F ....
....|..|--- .... ....|--- .... ....|--- .... ....
....|..|--- .... ....|G-2 3F.7 ....|B-4 4F.F ....
....|..|--- .... ....|--- .... ....|--- .... ....
....|..|--- .... ....|--- .... ....|--- .... ....
....|..|--- .... ....|A-2 3F.F ....|--- .... ....
....|..|--- .... ....|A-2 3F.7 ....|F#5 4F.F ....
....|..|--- .... ....|--- .... ....|--- .... ....
....|..|--- .... ....|--- .... ....|C#5 4F.7 ....
....|..|--- .... ....|--- .... ....|--- .... ....
....|..|--- .... ....|A-2 3F.F ....|B-4 4F.F ....
....|..|--- .... ....|A-2 3F.7 ....|--- .... ....
....|..|--- .... ....|--- .... ....|C#5 4F.A ....
....|..|--- .... ....|--- .... ....|--- .... ....

[Pattern16]
....|..|C-5 VF.F ....|B-2 3F.F ....|D-5 4F.F ....
....|..|--- .... ....|--- .... ....|--- .... ....
....|..|R-- .... ....|--- .... ....|C#5 4F.F ....
....|..|--- .... ....|A-2 3F.7 ....|--- .... ....
....|..|--- .... ....|--- .... ....|B-4 4F.F ....
....|..|--- .... ....|B-2 3F.F ....|--- .... ....
....|..|--- .... ....|--- .... ....|--- .... ....
....|..|--- .... ....|--- .... ....|--- .... ....
....|..|C-5 VF.F ....|A-2 3F.7 ....|F#5 4F.F ....
....|..|--- .... ....|A-2 3F.7 ....|--- .... ....
....|..|R-- .... ....|--- .... ....|C#5 4F.7 ....
....|..|--- .... ....|B-2 3F.F ....|--- .... ....
....|..|C-4 LF.F ....|B-2 3F.A ....|B-4 4F.F ....
....|..|--- .... ....|--- .... ....|--- .... ....
....|..|R-- .... ....|--- .... ....|C#5 4F.A ....
....|..|--- .... ....|A-2 3F.7 ....|--- .... ....
....|..|--- .... ....|B-2 3F.F ....|D-5 4F.F ....
....|..|--- .... ....|B-2 3F.F ....|--- .... ....
....|..|C-5 VF.F ....|--- .... ....|C#5 4F.F ....
....|..|--- .... ....|--- .... ....|--- .... ....
....|..|C-5 VF.A ....|A-2 3F.7 ....|B-4 4F.F ....
....|..|--- .... ....|--- .... ....|--- .... ....
....|..|C-5 VF.F ....|--- .... ....|--- .... ....
....|..|--- .... ....|B-2 3F.F ....|--- .... ....
....|..|C-5 VF.F ....|B-2 3F.7 ....|F#5 4F.F ....
....|..|--- .... ....|--- .... ....|--- .... ....
....|..|R-- .... ....|--- .... ....|C#5 4F.7 ....
....|..|--- .... ....|--- .... ....|--- .... ....
....|..|C-4 LF.F ....|B-2 3F.F ....|B-4 4F.F ....
....|..|--- .... ....|B-2 3F.7 ....|--- .... ....
....|..|C-5 VF.A ....|--- .... ....|C#5 4F.A ....
....|..|--- .... ....|--- .... ....|--- .... ....
....|..|C-5 VF.F ....|B-2 3F.F ....|D-5 4F.F ....
....|..|--- .... ....|--- .... ....|--- .... ....
....|..|C-5 VF.A ....|--- .... ....|C#5 4F.F ....
....|..|--- .... ....|B-2 3F.7 ....|--- .... ....
....|..|C-4 AF.F ....|--- .... ....|B-4 4F.F ....
....|..|--- .... ....|B-2 3F.F ....|--- .... ....
....|..|R-- .... ....|--- .... ....|--- .... ....
....|..|--- .... ....|--- .... ....|--- .... ....
....|..|C-5 VF.F ....|B-2 3F.7 ....|F#5 4F.F ....
....|..|--- .... ....|B-2 3F.7 ....|--- .... ....
....|..|C-5 VF.7 ....|--- .... ....|C#5 4F.7 ....
....|..|--- .... ....|B-2 3F.F ....|--- .... ....
....|..|C-4 LF.F ....|B-2 3F.A ....|B-4 4F.F ....
....|..|--- .... ....|--- .... ....|--- .... ....
....|..|C-5 VF.7 ....|--- .... ....|C#5 4F.A ....
....|..|--- .... ....|B-2 3F.7 ....|--- .... ....
....|..|C-5 VF.7 ....|B-2 3F.F ....|D-5 4F.F ....
....|..|--- .... ....|B-2 3F.F ....|--- .... ....
....|..|C-5 VF.F ....|--- .... ....|C#5 4F.F ....
....|..|--- .... ....|--- .... ....|--- .... ....
....|..|C-4 LF.7 ....|B-2 3F.7 ....|B-4 4F.F ....
....|..|--- .... ....|--- .... ....|--- .... ....
....|..|C-5 VF.F ....|--- .... ....|--- .... ....
....|..|--- .... ....|B-2 3F.F ....|--- .... ....
....|..|C-5 VF.F ....|B-2 3F.7 ....|F#5 4F.F ....
....|..|--- .... ....|--- .... ....|--- .... ....
....|..|R-- .... ....|--- .... ....|C#5 4F.7 ....
....|..|--- .... ....|--- .... ....|--- .... ....
....|..|C-4 LF.F ....|B-2 3F.F ....|B-4 4F.F ....
....|..|--- .... ....|B-2 3F.7 ....|--- .... ....
....|..|C-5 VF.A ....|--- .... ....|C#5 4F.A ....
....|..|--- .... ....|--- .... ....|--- .... ....

[Pattern17]
....|..|C-5 VF.F ....|G-2 3F.F ....|E-5 4F.F ....
....|..|--- .... ....|--- .... ....|--- .... ....
....|..|C-5 VF.A ....|--- .... ....|E-4 4F.F ....
....|..|--- .... ....|B-2 3F.7 ....|--- .... ....
....|..|C-4 LF.7 ....|--- .... ....|E-5 4F.F ....
....|..|--- .... ....|G-2 3F.F ....|--- .... ....
....|..|R-- .... ....|--- .... ....|A-4 4F.F ....
....|..|--- .... ....|--- .... ....|--- .... ....
....|..|C-5 VF.F ....|B-2 3F.7 ....|E-5 4F.F ....
....|..|--- .... ....|B-2 3F.7 ....|--- .... ....
....|..|C-5 VF.7 ....|--- .... ....|C#5 4F.7 ....
....|..|--- .... ....|G-2 3F.F ....|--- .... ....
....|..|C-4 LF.F ....|G-2 3F.A ....|F#5 4F.F ....
....|..|--- .... ....|--- .... ....|--- .... ....
....|..|C-5 VF.7 ....|--- .... ....|E-4 4F.A ....
....|..|--- .... ....|B-2 3F.7 ....|--- .... ....
....|..|C-5 VF.7 ....|G-2 3F.F ....|E-5 4F.F ....
....|..|--- .... ....|G-2 3F.F ....|--- .... ....
....|..|C-5 VF.F ....|--- .... ....|E-4 4F.F ....
....|..|--- .... ....|--- .... ....|--- .... ....
....|..|C-4 LF.7 ....|B-2 3F.7 ....|E-5 4F.F ....
....|..|--- .... ....|--- .... ....|--- .... ....
....|..|C-5 VF.F ....|--- .... ....|A-4 4F.F ....
....|..|--- .... ....|G-2 3F.F ....|--- .... ....
....|..|C-5 VF.F ....|G-2 3F.7 ....|E-5 4F.F ....
....|..|--- .... ....|--- .... ....|--- .... ....
....|..|R-- .... ....|--- .... ....|E-4 4F.7 ....
....|..|--- .... ....|--- .... ....|--- .... ....
....|..|C-4 LF.F ....|G-2 3F.F ....|F#5 4F.F ....
....|..|--- .... ....|G-2 3F.7 ....|--- .... ....
....|..|C-5 VF.A ....|--- .... ....|A-4 4F.7 ....
....|..|--- .... ....|--- .... ....|--- .... ....
....|..|C-5 VF.F ....|A-2 3F.F ....|E-5 4F.F ....
....|..|--- .... ....|--- .... ....|--- .... ....
....|..|C-5 VF.A ....|--- .... ....|E-4 4F.F ....
....|..|--- .... ....|G-2 3F.7 ....|--- .... ....
....|..|C-4 AF.F ....|--- .... ....|E-5 4F.F ....
....|..|--- .... ....|A-2 3F.F ....|--- .... ....
....|..|R-- .... ....|--- .... ....|A-4 4F.F ....
....|..|--- .... ....|--- .... ....|--- .... ....
....|..|C-5 VF.F ....|G-2 3F.7 ....|E-5 4F.F ....
....|..|--- .... ....|G-2 3F.7 ....|--- .... ....
....|..|C-5 VF.7 ....|--- .... ....|E-4 4F.7 ....
....|..|--- .... ....|A-2 3F.F ....|--- .... ....
....|..|C-4 LF.F ....|A-2 3F.A ....|F#5 4F.F ....
....|..|--- .... ....|--- .... ....|--- .... ....
....|..|C-5 VF.7 ....|--- .... ....|A-4 4F.7 ....
....|..|--- .... ....|G-2 3F.7 ....|--- .... ....
....|..|C-5 VF.7 ....|A-2 3F.F ....|E-5 4F.F ....
....|..|--- .... ....|A-2 3F.F ....|--- .... ....
....|..|C-5 VF.F ....|--- .... ....|E-4 4F.F ....
....|..|--- .... ....|--- .... ....|--- .... ....
....|..|C-4 LF.7 ....|G-2 3F.7 ....|E-5 4F.F ....
....|..|--- .... ....|--- .... ....|--- .... ....
....|..|C-5 VF.F ....|--- .... ....|A-4 4F.F ....
....|..|--- .... ....|A-2 3F.F ....|--- .... ....
....|..|C-5 VF.F ....|A-2 3F.7 ....|E-5 4F.F ....
....|..|--- .... ....|--- .... ....|--- .... ....
....|..|R-- .... ....|--- .... ....|E-4 4F.7 ....
....|..|--- .... ....|--- .... ....|--- .... ....
....|..|C-4 LF.F ....|A-2 3F.F ....|F#5 4F.F ....
....|..|--- .... ....|A-2 3F.7 ....|--- .... ....
....|..|C-5 VF.A ....|--- .... ....|A-4 4F.7 ....
....|..|--- .... ....|--- .... ....|--- .... ....

[Pattern18]
....|..|C-5 VF.F ....|E-2 3F.F ....|B-4 4F.F ....
....|..|--- .... ....|--- .... ....|--- .... ....
....|..|C-5 VF.A ....|--- .... ....|A-4 4F.A ....
....|..|--- .... ....|A-2 3F.7 ....|--- .... ....
....|..|C-4 LF.7 ....|--- .... ....|B-4 4F.F ....
....|..|--- .... ....|E-2 3F.F ....|--- .... ....
....|..|R-- .... ....|--- .... ....|--- .... ....
....|..|--- .... ....|--- .... ....|--- .... ....
....|..|C-5 VF.F ....|A-2 3F.7 ....|F#5 4F.F ....
....|..|--- .... ....|A-2 3F.7 ....|--- .... ....
....|..|C-5 VF.7 ....|--- .... ....|E-4 4F.7 ....
....|..|--- .... ....|E-2 3F.F ....|--- .... ....
....|..|C-4 LF.F ....|E-2 3F.A ....|B-4 4F.F ....
....|..|--- .... ....|--- .... ....|--- .... ....
....|..|C-5 VF.7 ....|--- .... ....|A-4 4F.7 ....
....|..|--- .... ....|A-2 3F.7 ....|--- .... ....
....|..|C-5 VF.7 ....|E-2 3F.F ....|D-5 4F.F ....
....|..|--- .... ....|E-2 3F.F ....|--- .... ....
....|..|C-5 VF.F ....|--- .... ....|C#5 4F.F ....
....|..|--- .... ....|--- .... ....|--- .... ....
....|..|C-4 LF.7 ....|A-2 3F.7 ....|B-4 4F.F ....
....|..|--- .... ....|--- .... ....|--- .... ....
....|..|C-5 VF.F ....|--- .... ....|--- .... ....
....|..|--- .... ....|E-2 3F.F ....|--- .... ....
....|..|C-5 VF.F ....|E-2 3F.7 ....|F#5 4F.F ....
....|..|--- .... ....|--- .... ....|--- .... ....
....|..|R-- .... ....|--- .... ....|--- .... ....
....|..|--- .... ....|--- .... ....|--- .... ....
....|..|C-4 LF.F ....|E-2 3F.F ....|B-4 4F.F ....
....|..|--- .... ....|E-2 3F.7 ....|--- .... ....
....|..|C-5 VF.A ....|--- .... ....|C#5 4F.A ....
....|..|--- .... ....|--- .... ....|--- .... ....
....|..|C-5 VF.F ....|E-2 3F.F ....|D-5 4F.F ....
....|..|--- .... ....|--- .... ....|--- .... ....
....|..|C-5 VF.A ....|--- .... ....|C#5 4F.F ....
....|..|--- .... ....|E-2 3F.7 ....|--- .... ....
....|..|C-4 AF.F ....|--- .... ....|B-4 4F.F ....
....|..|--- .... ....|E-2 3F.F ....|--- .... ....
....|..|R-- .... ....|--- .... ....|--- .... ....
....|..|--- .... ....|--- .... ....|--- .... ....
....|..|C-5 VF.F ....|E-2 3F.7 ....|F#5 4F.F ....
....|..|--- .... ....|E-2 3F.7 ....|--- .... ....
....|..|C-5 VF.7 ....|--- .... ....|C#5 4F.7 ....
....|..|--- .... ....|E-2 3F.F ....|--- .... ....
....|..|C-4 LF.F ....|E-2 3F.A ....|B-4 4F.F ....
....|..|--- .... ....|--- .... ....|--- .... ....
....|..|C-5 VF.7 ....|--- .... ....|C#5 4F.A ....
....|..|--- .... ....|E-2 3F.7 ....|--- .... ....
....|..|C-5 VF.7 ....|E-2 3F.F ....|D-5 4F.F ....
....|..|--- .... ....|E-2 3F.F ....|--- .... ....
....|..|C-5 VF.F ....|--- .... ....|C#5 4F.F ....
....|..|--- .... ....|--- .... ....|--- .... ....
....|..|C-4 LF.7 ....|E-2 3F.7 ....|B-4 4F.F ....
....|..|--- .... ....|--- .... ....|--- .... ....
....|..|R-- .... ....|--- .... ....|--- .... ....
....|..|--- .... ....|E-2 3F.F ....|--- .... ....
....|..|C-5 VF.F ....|A-3 3F1F ....|F#5 4F.F ....
..1B|..|A-1 2A.F ....|--- .... ....|--- .... ....
....|..|R-- .... ....|--- .... ....|C#5 4F.7 ....
....|..|--- .... ....|--- .... ....|--- .... ....
....|..|C-4 AF.7 ....|E-2 3F.A ....|B-4 4F.F ....
....|..|--- .... ....|E-2 3F.7 ....|--- .... ....
....|..|C-5 VF.A ....|--- .... ....|C#5 4F.A ....
....|..|--- .... ....|--- .... ....|--- .... ....

[Pattern19]
....|..|C-4 AF.F ....|G-3 3F1F ....|D-5 4F.F ....
..1E|..|G-1 2A.F ....|--- .... ....|--- .... ....
....|..|R-- .... ....|--- .... ....|C#5 4F.F ....
....|..|--- .... ....|E-2 3F.7 ....|--- .... ....
....|..|C-4 LF.7 ....|A-3 3F1A ....|B-4 4F.F ....
..1E|..|G-1 2A.F ....|G-3 3F1F ....|--- .... ....
....|..|C-4 AF.F ....|--- .... ....|--- .... ....
....|..|--- .... ....|--- .... ....|--- .... ....
....|..|C-5 VF.F ....|E-2 3F.7 ....|F#5 4F.F ....
....|..|--- .... ....|E-2 3F.7 ....|--- .... ....
....|..|C-5 VF.7 ....|--- .... ....|C#5 4F.7 ....
..1E|..|G-1 2A.F ....|G-3 3F1F ....|--- .... ....
....|..|C-4 AF.F ....|G-3 3F1A ....|B-4 4F.F ....
....|..|G-1 2F.A ....|--- .... ....|--- .... ....
....|..|R-- .... ....|--- .... ....|C#5 4F.A ....
....|..|--- .... ....|E-2 3F.7 ....|--- .... ....
....|..|C-3 RF.F ....|G-3 3F1F ....|D-5 4F.F ....
..1E|..|G-1 2A.F ....|G-3 3F1F ....|--- .... ....
....|..|C-3 RF.F ....|--- .... ....|C#5 4F.F ....
..1E|..|G-1 2A.F ....|--- .... ....|--- .... ....
....|..|C-4 AF.F ....|--- .... ....|B-4 4F.F ....
....|..|--- .... ....|--- .... ....|--- .... ....
....|..|R-- .... ....|--- .... ....|--- .... ....
..1E|..|G-1 2A.F ....|G-3 3F1F ....|--- .... ....
....|..|C-5 VF.F ....|G-3 3F17 ....|F#5 4F.F ....
....|..|G-1 2F.7 ....|--- .... ....|--- .... ....
....|..|R-- .... ....|--- .... ....|C#5 4F.7 ....
....|..|--- .... ....|--- .... ....|--- .... ....
....|..|C-4 AF.F ....|G-3 3F1F ....|B-4 4F.F ....
..1E|..|G-1 2A.F ....|G-3 3F17 ....|--- .... ....
....|..|C-4 AF.7 ....|--- .... ....|C#5 4F.A ....
....|..|G-1 2F.A ....|--- .... ....|--- .... ....
....|..|C-4 AF.F ....|A-3 3F1F ....|D-5 4F.F ....
..1B|..|A-1 2A.F ....|--- .... ....|--- .... ....
....|..|R-- .... ....|--- .... ....|C#5 4F.F ....
....|..|G-1 2F.7 ....|G-3 3F17 ....|--- .... ....
....|..|C-4 AF.F ....|--- .... ....|B-4 4F.F ....
..1B|..|A-1 2A.F ....|A-3 3F1F ....|--- .... ....
....|..|R-- .... ....|--- .... ....|--- .... ....
....|..|--- .... ....|--- .... ....|--- .... ....
....|..|C-5 VF.F ....|G-3 3F17 ....|F#5 4F.F ....
....|..|G-1 2F.7 ....|G-3 3F17 ....|--- .... ....
....|..|C-3 RF.7 ....|--- .... ....|C#5 4F.7 ....
..1B|..|A-1 2A.F ....|A-3 3F1F ....|--- .... ....
....|..|C-4 AF.F ....|A-3 3F1A ....|B-4 4F.F ....
....|..|A-1 2F.A ....|--- .... ....|--- .... ....
....|..|R-- .... ....|--- .... ....|C#5 4F.A ....
....|..|G-1 2F.7 ....|G-3 3F17 ....|--- .... ....
....|..|C-3 RF.F ....|A-3 3F1F ....|D-5 4F.F ....
..1B|..|A-1 2A.F ....|A-3 3F1F ....|--- .... ....
....|..|C-3 RF.F ....|--- .... ....|C#5 4F.F ....
..1B|..|A-1 2A.F ....|--- .... ....|--- .... ....
....|..|C-4 AF.F ....|G-3 3F17 ....|B-4 4F.F ....
....|..|G-1 2F.7 ....|--- .... ....|--- .... ....
....|..|R-- .... ....|--- .... ....|--- .... ....
..1B|..|A-1 2A.F ....|A-3 3F1F ....|--- .... ....
....|..|C-5 VF.F ....|A-3 3F17 ....|F#5 4F.F ....
....|..|A-1 2F.7 ....|--- .... ....|--- .... ....
....|..|R-- .... ....|--- .... ....|C#5 4F.7 ....
....|..|--- .... ....|--- .... ....|--- .... ....
....|..|C-4 AF.F ....|A-3 3F1F ....|B-4 4F.F ....
..1B|..|A-1 2A.F ....|A-3 3F17 ....|--- .... ....
....|..|C-3 RF.A ....|--- .... ....|C#5 4F.A ....
....|..|A-1 2F.A ....|--- .... ....|--- .... ....

[Pattern20]
....|..|C-4 AF.F ....|B-4 3F.F ....|B-3 4F1F ....
..18|..|B-1 2A.F ....|--- .... ....|--- .... ....
....|..|R-- .... ....|--- .... ....|--- .... ....
....|..|A-1 2F.7 ....|A-3 3F17 ....|--- .... ....
..18|..|B-1 2A.F ....|--- .... ....|B-3 4F1F ....
....|..|--- .... ....|--- .... ....|--- .... ....
....|..|C-4 AF.F ....|--- .... ....|B-3 4F1F ....
..18|..|B-1 2A.F ....|--- .... ....|--- .... ....
....|..|C-5 VF.F ....|A-3 3F17 ....|D-5 4F.7 ....
....|..|A-1 2F.7 ....|A-3 3F17 ....|--- .... ....
..18|..|B-1 2A.F ....|--- .... ....|B-3 4F1F ....
....|..|A-1 2F.7 ....|--- .... ....|--- .... ....
....|..|C-4 AF.F ....|A#5 3F.F ....|B-3 4F1F ....
..18|..|B-1 2A.F ....|--- .... ....|--- .... ....
....|..|R-- .... ....|--- .... ....|--- .... ....
....|..|A-1 2F.7 ....|A-3 3F17 ....|--- .... ....
....|..|C-3 RF.F ....|B-5 3F.F ....|B-3 4F1F ....
..18|..|B-1 2A.F ....|--- .... ....|--- .... ....
....|..|C-3 RF.F ....|--- .... ....|B-3 4F1A ....
....|..|B-1 2F.A ....|--- .... ....|--- .... ....
....|..|C-4 AF.F ....|A#5 3F.F ....|B-3 4F1F ....
..18|..|B-1 2A.F ....|--- .... ....|--- .... ....
....|..|B-1 2F.A ....|--- .... ....|B-3 4F1A ....
....|..|--- .... ....|--- .... ....|--- .... ....
....|..|C-5 VF.F ....|B-5 3F.F ....|B-3 4F1F ....
..18|..|B-1 2A.F ....|--- .... ....|--- .... ....
..18|..|B-1 2A.F ....|--- .... ....|B-3 4F1F ....
....|..|--- .... ....|--- .... ....|--- .... ....
....|..|C-4 AF.F ....|A#5 3F.F ....|B-3 4F17 ....
....|..|B-1 2F.A ....|--- .... ....|--- .... ....
..18|..|B-1 2A.F ....|--- .... ....|B-3 4F1F ....
....|..|B-1 2F.7 ....|--- .... ....|--- .... ....
....|..|C-4 AF.F ....|D-5 3F.F ....|B-3 4F1F ....
..18|..|B-1 2A.F ....|--- .... ....|--- .... ....
....|..|B-1 2F.7 ....|--- .... ....|B-3 4F17 ....
....|..|--- .... ....|--- .... ....|--- .... ....
..18|..|B-1 2A.F ....|A#5 3F.7 ....|B-3 4F1F ....
....|..|B-1 2F.7 ....|--- .... ....|--- .... ....
....|..|C-4 AF.F ....|--- .... ....|B-3 4F1F ....
..18|..|B-1 2A.F ....|--- .... ....|--- .... ....
....|..|C-5 VF.F ....|B-5 3F.7 ....|B-3 4F17 ....
....|..|B-1 2F.7 ....|--- .... ....|--- .... ....
..18|..|B-1 2A.F ....|--- .... ....|B-3 4F1F ....
....|..|--- .... ....|--- .... ....|--- .... ....
....|..|C-4 AF.F ....|C#5 3F.F ....|B-3 4F1F ....
..18|..|B-1 2A.F ....|--- .... ....|--- .... ....
....|..|R-- .... ....|--- .... ....|B-3 4F1F ....
....|..|--- .... ....|--- .... ....|--- .... ....
....|..|C-3 RF.F ....|D-5 3F.F ....|B-3 4F17 ....
..18|..|B-1 2A.F ....|--- .... ....|--- .... ....
....|..|C-3 RF.F ....|--- .... ....|B-3 4F1F ....
..18|..|B-1 2A.F ....|--- .... ....|--- .... ....
....|..|C-4 AF.F ....|C#5 3F.F ....|--- .... ....
....|..|--- .... ....|--- .... ....|--- .... ....
..18|..|B-1 2A.F ....|--- .... ....|B-3 4F1F ....
....|..|--- .... ....|--- .... ....|--- .... ....
....|..|C-5 VF.F ....|D-5 3F.F ....|B-3 4F1F ....
..18|..|B-1 2A.F ....|--- .... ....|--- .... ....
....|..|R-- .... ....|--- .... ....|B-3 4F1A ....
....|..|--- .... ....|--- .... ....|--- .... ....
....|..|C-4 AF.F ....|F#5 3F.F ....|B-3 4F.F ....
..18|..|B-1 2A.F ....|--- .... ....|--- .... ....
....|..|C-4 AF.7 ....|--- .... ....|B-3 4F17 ....
....|..|B-1 2F.7 ....|--- .... ....|--- .... ....

[Pattern23]
....|..|C-4 AF.F ....|B-4 3F.F ....|G-3 4F1F ....
..1E|..|G-1 2A.F ....|--- .... ....|--- .... ....
....|..|E-1 2F.7 ....|--- .... ....|E-3 4F17 ....
....|..|--- .... ....|--- .... ....|--- .... ....
..1E|..|G-1 2A.F ....|C#5 3F.7 ....|G-3 4F1F ....
....|..|E-1 2F.7 ....|--- .... ....|--- .... ....
....|..|C-4 AF.F ....|--- .... ....|G-3 4F1F ....
..1E|..|G-1 2A.F ....|--- .... ....|--- .... ....
....|..|C-5 VF.F ....|D-5 3F.7 ....|E-3 4F17 ....
....|..|E-1 2F.7 ....|--- .... ....|--- .... ....
..1E|..|G-1 2A.F ....|--- .... ....|G-3 4F1F ....
....|..|--- .... ....|--- .... ....|--- .... ....
....|..|C-4 AF.F ....|A#5 3F.F ....|G-3 4F1F ....
..1E|..|G-1 2A.F ....|--- .... ....|--- .... ....
....|..|R-- .... ....|--- .... ....|--- .... ....
....|..|--- .... ....|--- .... ....|--- .... ....
....|..|C-3 RF.F ....|B-5 3F.F ....|G-3 4F1F ....
..1E|..|G-1 2A.F ....|--- .... ....|--- .... ....
....|..|C-3 RF.F ....|--- .... ....|E-3 4F17 ....
....|..|G-1 2F.A ....|--- .... ....|--- .... ....
....|..|C-4 AF.F ....|A#5 3F.F ....|G-3 4F1F ....
..1E|..|G-1 2A.F ....|--- .... ....|--- .... ....
....|..|E-1 2F.7 ....|--- .... ....|E-3 4F17 ....
....|..|--- .... ....|--- .... ....|--- .... ....
....|..|C-5 VF.F ....|B-5 3F.F ....|G-3 4F1F ....
..1E|..|G-1 2A.F ....|--- .... ....|--- .... ....
..1E|..|G-1 2A.F ....|--- .... ....|G-3 4F1F ....
....|..|--- .... ....|--- .... ....|--- .... ....
....|..|C-4 AF.F ....|A#5 3F.F ....|G-3 4F17 ....
....|..|G-1 2F.A ....|--- .... ....|--- .... ....
..1E|..|G-1 2A.F ....|--- .... ....|G-3 4F1F ....
....|..|G-1 2F.7 ....|--- .... ....|--- .... ....
....|..|C-4 AF.F ....|D-5 3F.F ....|A-3 4F1F ....
..1B|..|A-1 2A.F ....|--- .... ....|--- .... ....
....|..|G-1 2F.7 ....|--- .... ....|G-3 4F17 ....
....|..|--- .... ....|--- .... ....|--- .... ....
....|..|C-4 AF.F ....|A#5 3F.7 ....|A-3 4F1F ....
..1B|..|A-1 2A.F ....|--- .... ....|--- .... ....
..1B|..|A-1 2A.F ....|--- .... ....|A-3 4F1F ....
....|..|--- .... ....|--- .... ....|--- .... ....
....|..|C-5 VF.F ....|B-5 3F.7 ....|G-3 4F17 ....
....|..|G-1 2F.7 ....|--- .... ....|--- .... ....
..1B|..|A-1 2A.F ....|--- .... ....|A-3 4F1F ....
....|..|--- .... ....|--- .... ....|--- .... ....
....|..|C-4 AF.F ....|A#5 3F.F ....|A-3 4F1F ....
..1B|..|A-1 2A.F ....|--- .... ....|--- .... ....
....|..|C-5 VF.F ....|--- .... ....|A-3 4F1F ....
....|..|--- .... ....|--- .... ....|--- .... ....
....|..|C-5 VF.F ....|B-5 3F.F ....|G-3 4F17 ....
..1B|..|A-1 2A.F ....|--- .... ....|--- .... ....
....|..|C-5 VF.F ....|B-5 3F.F ....|A-3 4F1F ....
....|..|--- .... ....|--- .... ....|--- .... ....
....|..|C-4 AF.F ....|A#5 3F.F ....|--- .... ....
..1B|..|A-1 2A.F ....|--- .... ....|--- .... ....
....|..|G-1 2F.7 ....|A#5 3F.F ....|E-3 4F2F ....
....|..|--- .... ....|--- .... ....|--- .... ....
....|..|C-5 VF.F ....|B-5 3F.F ....|A-3 4F1F ....
..1B|..|A-1 2A.F ....|--- .... ....|--- .... ....
..1B|..|A-1 2A.F ....|B-5 3F.F ....|A-3 4F1F ....
....|..|--- .... ....|--- .... ....|--- .... ....
....|..|C-5 VF.F ....|A#5 3F.F ....|A-3 4F17 ....
....|..|A-1 2F.7 ....|--- .... ....|--- .... ....
..1B|..|A-1 2A.F ....|A#5 3F.F ....|A-3 4F1F ....
....|..|--- .... ....|--- .... ....|--- .... ....

[Pattern24]
....|..|C-4 AF.F ....|B-4 3F.F ....|B-3 4F1F ....
..18|..|B-1 2A.F ....|--- .... ....|--- .... ....
....|..|A-1 2F.7 ....|A#5 3F.A ....|A-3 4F17 ....
....|..|--- .... ....|--- .... ....|--- .... ....
..18|..|B-1 2A.F ....|A#5 3F.7 ....|B-3 4F1F ....
....|..|A-1 2F.7 ....|--- .... ....|--- .... ....
....|..|C-4 AF.F ....|B-5 3F.A ....|B-3 4F1F ....
..18|..|B-1 2A.F ....|--- .... ....|--- .... ....
....|..|C-5 VF.F ....|B-5 3F.7 ....|--- .... ....
....|..|A-1 2F.7 ....|--- .... ....|--- .... ....
..18|..|B-1 2A.F ....|B-5 3F.7 ....|B-3 4F1F ....
....|..|--- .... ....|--- .... ....|--- .... ....
....|..|C-4 AF.F ....|A#5 3F.F ....|B-3 4F1F ....
..18|..|B-1 2A.F ....|--- .... ....|--- .... ....
....|..|R-- .... ....|A#5 3F.7 ....|E-3 4F27 ....
....|..|--- .... ....|--- .... ....|--- .... ....
....|..|C-3 RF.F ....|B-5 3F.F ....|B-3 4F1F ....
..18|..|B-1 2A.F ....|--- .... ....|--- .... ....
....|..|C-3 RF.F ....|B-5 3F.7 ....|A-3 4F17 ....
....|..|B-1 2F.A ....|--- .... ....|--- .... ....
....|..|C-4 AF.F ....|A#5 3F.F ....|B-3 4F1F ....
..18|..|B-1 2A.F ....|--- .... ....|--- .... ....
....|..|A-1 2F.7 ....|A#5 3F.7 ....|A-3 4F17 ....
....|..|--- .... ....|--- .... ....|--- .... ....
....|..|C-5 VF.F ....|B-5 3F.F ....|B-3 4F1F ....
..18|..|B-1 2A.F ....|--- .... ....|--- .... ....
..18|..|B-1 2A.F ....|--- .... ....|B-3 4F1F ....
....|..|--- .... ....|--- .... ....|--- .... ....
....|..|C-4 AF.F ....|A#5 3F.F ....|B-3 4F17 ....
....|..|B-1 2F.A ....|--- .... ....|--- .... ....
..18|..|B-1 2A.F ....|--- .... ....|B-3 4F1F ....
....|..|B-1 2F.7 ....|--- .... ....|--- .... ....
....|..|C-4 AF.F ....|D-5 3F.F ....|B-3 4F1F ....
..18|..|B-1 2A.F ....|--- .... ....|--- .... ....
....|..|B-1 2F.7 ....|--- .... ....|B-3 4F17 ....
....|..|--- .... ....|--- .... ....|--- .... ....
..18|..|B-1 2A.F ....|A#5 3F.7 ....|B-3 4F1F ....
....|..|B-1 2F.7 ....|--- .... ....|--- .... ....
....|..|C-4 AF.F ....|--- .... ....|B-3 4F1F ....
..18|..|B-1 2A.F ....|--- .... ....|--- .... ....
....|..|C-5 VF.F ....|B-5 3F.7 ....|B-3 4F17 ....
....|..|B-1 2F.7 ....|--- .... ....|--- .... ....
..18|..|B-1 2A.F ....|--- .... ....|B-3 4F1F ....
....|..|--- .... ....|--- .... ....|--- .... ....
....|..|C-4 AF.F ....|C#5 3F.F ....|B-3 4F1F ....
..18|..|B-1 2A.F ....|--- .... ....|--- .... ....
....|..|R-- .... ....|--- .... ....|B-3 4F1F ....
....|..|--- .... ....|--- .... ....|--- .... ....
....|..|C-3 RF.F ....|D-5 3F.F ....|B-3 4F17 ....
..18|..|B-1 2A.F ....|--- .... ....|--- .... ....
....|..|C-3 RF.F ....|--- .... ....|B-3 4F1F ....
..18|..|B-1 2A.F ....|--- .... ....|--- .... ....
....|..|C-4 AF.F ....|C#5 3F.F ....|--- .... ....
....|..|--- .... ....|--- .... ....|--- .... ....
..18|..|B-1 2A.F ....|--- .... ....|B-3 4F1F ....
....|..|--- .... ....|--- .... ....|--- .... ....
....|..|C-5 VF.F ....|D-5 3F.F ....|B-3 4F1F ....
..18|..|B-1 2A.F ....|--- .... ....|--- .... ....
....|..|R-- .... ....|--- .... ....|B-3 4F1A ....
....|..|--- .... ....|--- .... ....|--- .... ....
....|..|C-4 AF.F ....|F#5 3F.F ....|B-3 4F.F ....
..18|..|B-1 2A.F ....|--- .... ....|--- .... ....
....|..|C-4 AF.7 ....|--- .... ....|B-3 4F17 ....
....|..|B-1 2F.7 ....|--- .... ....|--- .... ....

[Pattern25]
....|..|C-4 AF.F ....|B-4 3F.F ....|G-3 4F1F ....
..1E|..|G-1 2A.F ....|--- .... ....|--- .... ....
....|..|B-1 2F.7 ....|--- .... ....|B-3 4F17 ....
....|..|--- .... ....|--- .... ....|--- .... ....
..1E|..|G-1 2A.F ....|C#5 3F.7 ....|A-3 4F2F ....
....|..|B-1 2F.7 ....|--- .... ....|--- .... ....
....|..|C-4 AF.F ....|--- .... ....|G-3 4F1F ....
..1E|..|G-1 2A.F ....|--- .... ....|--- .... ....
....|..|C-5 VF.F ....|D-5 3F.7 ....|B-3 4F.A ....
....|..|B-1 2F.7 ....|--- .... ....|--- .... ....
..1E|..|G-1 2A.F ....|--- .... ....|G-3 4F1F ....
....|..|B-1 2F.7 ....|--- .... ....|--- .... ....
....|..|C-4 AF.F ....|A#5 3F.F ....|G-3 4F1F ....
..1E|..|G-1 2A.F ....|--- .... ....|--- .... ....
....|..|B-1 2F.7 ....|--- .... ....|B-3 4F17 ....
....|..|--- .... ....|--- .... ....|--- .... ....
....|..|C-3 RF.F ....|B-5 3F.F ....|G-3 4F1F ....
..1E|..|G-1 2A.F ....|--- .... ....|--- .... ....
....|..|C-3 RF.F ....|--- .... ....|G-3 4F1F ....
..1E|..|G-1 2A.F ....|--- .... ....|--- .... ....
....|..|C-4 AF.F ....|A#5 3F.F ....|B-3 4F.7 ....
....|..|B-1 2F.7 ....|--- .... ....|--- .... ....
..1E|..|G-1 2A.F ....|--- .... ....|G-3 4F1F ....
....|..|--- .... ....|--- .... ....|--- .... ....
....|..|C-5 VF.F ....|B-5 3F.F ....|G-3 4F1F ....
..1E|..|G-1 2A.F ....|--- .... ....|--- .... ....
....|..|R-- .... ....|--- .... ....|--- .... ....
....|..|--- .... ....|--- .... ....|--- .... ....
....|..|C-4 AF.F ....|A#5 3F.F ....|G-3 4F.F ....
..1E|..|G-1 2A.F ....|--- .... ....|--- .... ....
....|..|C-4 AF.7 ....|--- .... ....|G-3 4F17 ....
....|..|G-1 2F.7 ....|--- .... ....|--- .... ....
....|..|C-4 AF.F ....|D-5 3F.F ....|A-3 4F1F ....
..1B|..|A-1 2A.F ....|--- .... ....|--- .... ....
....|..|G-1 2F.7 ....|--- .... ....|G-3 4F17 ....
....|..|--- .... ....|--- .... ....|--- .... ....
....|..|C-4 AF.F ....|A#5 3F.7 ....|A-3 4F1F ....
..1B|..|A-1 2A.F ....|--- .... ....|--- .... ....
..1B|..|A-1 2A.F ....|--- .... ....|A-3 4F1F ....
....|..|--- .... ....|--- .... ....|--- .... ....
....|..|C-5 VF.F ....|B-5 3F.7 ....|G-3 4F17 ....
....|..|G-1 2F.7 ....|--- .... ....|--- .... ....
..1B|..|A-1 2A.F ....|--- .... ....|A-3 4F1F ....
....|..|G-1 2F.7 ....|--- .... ....|--- .... ....
....|..|C-4 AF.F ....|C#5 3F.F ....|A-3 4F1F ....
..1B|..|A-1 2A.F ....|--- .... ....|--- .... ....
....|..|G-1 2F.7 ....|--- .... ....|G-3 4F17 ....
....|..|--- .... ....|--- .... ....|--- .... ....
....|..|C-5 VF.7 ....|B-5 3F.7 ....|A-3 4F3F ....
....|..|G-1 2F.7 ....|--- .... ....|--- .... ....
....|..|A-1 2F.A ....|--- .... ....|E-3 4F3F ....
....|..|--- .... ....|--- .... ....|--- .... ....
....|..|C-4 AF.7 ....|A#5 3F.7 ....|A-3 4F3F ....
....|..|G-1 2F.7 ....|--- .... ....|--- .... ....
....|..|A-1 2F.A ....|--- .... ....|E-3 4F3F ....
....|..|--- .... ....|--- .... ....|--- .... ....
....|..|C-4 AF.7 ....|D-5 3F.7 ....|E-2 4F.F ....
....|..|A-1 2F.7 ....|--- .... ....|--- .... ....
....|..|--- .... ....|--- .... ....|--- .... ....
....|..|--- .... ....|--- .... ....|--- .... ....
....|..|C-4 AF.7 ....|R-- .... ....|E-3 4F.F ....
....|..|A-1 2F.7 ....|--- .... ....|--- .... ....
....|..|A-1 2F.7 ....|--- .... ....|A-3 4F17 ....
....|..|--- .... ....|--- .... ....|--- .... ....

[Pattern27]
....|..|C-4 AF.F ....|B-4 3F.F ....|G-3 4F1F ....
..1E|..|G-1 2A.F ....|--- .... ....|--- .... ....
....|..|E-1 2F.7 ....|--- .... ....|E-3 4F17 ....
....|..|--- .... ....|--- .... ....|--- .... ....
..1E|..|G-1 2A.F ....|C#5 3F.7 ....|G-3 4F1F ....
....|..|E-1 2F.7 ....|--- .... ....|--- .... ....
....|..|C-4 AF.F ....|--- .... ....|G-3 4F1F ....
..1E|..|G-1 2A.F ....|--- .... ....|--- .... ....
....|..|C-5 VF.F ....|D-5 3F.7 ....|E-3 4F17 ....
....|..|E-1 2F.7 ....|--- .... ....|--- .... ....
..1E|..|G-1 2A.F ....|--- .... ....|G-3 4F1F ....
....|..|--- .... ....|--- .... ....|--- .... ....
....|..|C-4 AF.F ....|A#5 3F.F ....|G-3 4F1F ....
..1E|..|G-1 2A.F ....|--- .... ....|--- .... ....
....|..|R-- .... ....|--- .... ....|--- .... ....
....|..|--- .... ....|--- .... ....|--- .... ....
....|..|C-3 RF.F ....|B-5 3F.F ....|G-3 4F1F ....
..1E|..|G-1 2A.F ....|--- .... ....|--- .... ....
....|..|C-3 RF.F ....|--- .... ....|E-3 4F17 ....
....|..|G-1 2F.A ....|--- .... ....|--- .... ....
....|..|C-4 AF.F ....|A#5 3F.F ....|G-3 4F1F ....
..1E|..|G-1 2A.F ....|--- .... ....|--- .... ....
....|..|E-1 2F.7 ....|--- .... ....|E-3 4F17 ....
....|..|--- .... ....|--- .... ....|--- .... ....
....|..|C-5 VF.F ....|B-5 3F.F ....|G-3 4F1F ....
..1E|..|G-1 2A.F ....|--- .... ....|--- .... ....
..1E|..|G-1 2A.F ....|--- .... ....|G-3 4F1F ....
....|..|--- .... ....|--- .... ....|--- .... ....
....|..|C-4 AF.F ....|A#5 3F.F ....|G-3 4F17 ....
....|..|G-1 2F.A ....|--- .... ....|--- .... ....
..1E|..|G-1 2A.F ....|--- .... ....|G-3 4F1F ....
....|..|G-1 2F.7 ....|--- .... ....|--- .... ....
....|..|C-4 AF.F ....|D-5 3F.F ....|A-3 4F1F ....
..1B|..|A-1 2A.F ....|--- .... ....|--- .... ....
....|..|G-1 2F.7 ....|--- .... ....|G-3 4F17 ....
....|..|--- .... ....|--- .... ....|--- .... ....
....|..|C-4 AF.F ....|A#5 3F.7 ....|A-3 4F1F ....
..1B|..|A-1 2A.F ....|--- .... ....|--- .... ....
..1B|..|A-1 2A.F ....|--- .... ....|A-3 4F1F ....
....|..|--- .... ....|--- .... ....|--- .... ....
....|..|C-5 VF.F ....|B-5 3F.7 ....|G-3 4F17 ....
....|..|G-1 2F.7 ....|--- .... ....|--- .... ....
..1B|..|A-1 2A.F ....|--- .... ....|A-3 4F1F ....
....|..|--- .... ....|--- .... ....|--- .... ....
....|..|C-4 AF.F ....|B-5 3F.F ....|A-3 4F1F ....
..1B|..|A-1 2A.F ....|--- .... ....|--- .... ....
....|..|C-5 VF.F ....|--- .... ....|--- .... ....
....|..|--- .... ....|--- .... ....|--- .... ....
....|..|C-5 VF.F ....|B-5 3F.7 ....|G-3 4F17 ....
..1B|..|A-1 2A.F ....|--- .... ....|--- .... ....
....|..|C-5 VF.F ....|--- .... ....|G-3 4F17 ....
....|..|--- .... ....|--- .... ....|--- .... ....
....|..|C-4 AF.F ....|A#5 3F.7 ....|--- .... ....
..1B|..|A-1 2A.F ....|--- .... ....|--- .... ....
....|..|G-1 2F.7 ....|--- .... ....|G-3 4F17 ....
....|..|--- .... ....|--- .... ....|--- .... ....
....|..|C-5 VF.F ....|D-5 3F.7 ....|A-3 4F1F ....
..1B|..|A-1 2A.F ....|--- .... ....|--- .... ....
..1B|..|A-1 2A.F ....|--- .... ....|--- .... ....
....|..|--- .... ....|--- .... ....|--- .... ....
....|..|C-5 VF.F ....|R-- .... ....|A-3 4F17 ....
....|..|A-1 2F.7 ....|--- .... ....|--- .... ....
..1B|..|A-1 2A.F ....|--- .... ....|A-3 4F17 ....
....|..|--- .... ....|--- .... ....|--- .... ....

[Pattern28]
....|..|C-4 AF.F ....|B-3 3F1F ....|C#5 4F.F ....
..18|..|B-1 2A.F ....|--- .... ....|--- .... ....
....|..|A-1 2F.7 ....|--- .... ....|A-3 4F17 ....
....|..|--- .... ....|--- .... ....|--- .... ....
....|..|C-4 AF.F ....|B-3 3F1F ....|A-3 4F17 ....
..18|..|B-1 2A.F ....|--- .... ....|--- .... ....
..18|..|B-1 2A.F ....|B-3 3F1F ....|--- .... ....
....|..|--- .... ....|--- .... ....|--- .... ....
....|..|C-5 VF.F ....|R-- .... ....|R-- .... ....
....|..|A-1 2F.7 ....|--- .... ....|--- .... ....
..18|..|B-1 2A.F ....|B-3 3F1F ....|--- .... ....
....|..|--- .... ....|--- .... ....|--- .... ....
....|..|C-4 AF.F ....|B-3 3F1A ....|C#5 4F.A ....
....|..|A-1 2F.7 ....|--- .... ....|--- .... ....
....|..|C-5 VF.F ....|R-- .... ....|--- .... ....
....|..|R-- .... ....|--- .... ....|--- .... ....
....|..|C-3 RF.F ....|E-3 3F2F ....|A-3 4F17 ....
..24|..|E-1 2A.F ....|--- .... ....|--- .... ....
....|..|C-5 VF.F ....|B-3 3F1A ....|--- .... ....
....|..|--- .... ....|--- .... ....|--- .... ....
....|..|C-4 AF.F ....|B-3 3F1F ....|--- .... ....
..18|..|B-1 2A.F ....|--- .... ....|--- .... ....
....|..|A-1 2F.7 ....|B-3 3F1A ....|--- .... ....
....|..|--- .... ....|--- .... ....|--- .... ....
....|..|C-5 VF.F ....|E-3 3F1F ....|C#5 4F.7 ....
..24|..|E-1 2A.F ....|--- .... ....|--- .... ....
....|..|C-5 VF.A ....|R-- .... ....|--- .... ....
....|..|R-- .... ....|--- .... ....|--- .... ....
....|..|C-4 AF.F ....|B-3 3F17 ....|R-- .... ....
....|..|B-1 2F.7 ....|--- .... ....|--- .... ....
....|..|B-1 2F.7 ....|B-3 3F17 ....|--- .... ....
....|..|--- .... ....|--- .... ....|--- .... ....
....|..|C-4 AF.F ....|B-3 3F1F ....|C#5 4F.F ....
..18|..|B-1 2A.F ....|--- .... ....|--- .... ....
....|..|B-1 2F.7 ....|B-3 3F17 ....|--- .... ....
....|..|--- .... ....|--- .... ....|--- .... ....
....|..|C-4 AF.F ....|B-3 3F1F ....|--- .... ....
..18|..|B-1 2A.F ....|--- .... ....|--- .... ....
..18|..|B-1 2A.F ....|B-3 3F1F ....|--- .... ....
....|..|R-- .... ....|--- .... ....|--- .... ....
....|..|C-5 VF.F ....|E-3 3F27 ....|R-- .... ....
....|..|E-1 2F.7 ....|--- .... ....|--- .... ....
..18|..|B-1 2A.F ....|B-3 3F1F ....|--- .... ....
....|..|--- .... ....|--- .... ....|--- .... ....
....|..|C-4 AF.F ....|B-3 3F17 ....|C#5 4F.A ....
....|..|B-1 2F.7 ....|--- .... ....|--- .... ....
....|..|C-5 VF.F ....|R-- .... ....|--- .... ....
....|..|R-- .... ....|--- .... ....|--- .... ....
....|..|C-3 RF.F ....|E-3 3F2F ....|R-- .... ....
..24|..|E-1 2A.F ....|--- .... ....|--- .... ....
....|..|C-5 VF.F ....|B-3 3F1A ....|--- .... ....
....|..|--- .... ....|--- .... ....|--- .... ....
....|..|C-4 AF.F ....|B-3 3F1F ....|--- .... ....
..18|..|B-1 2A.F ....|--- .... ....|--- .... ....
....|..|B-1 2F.A ....|B-3 3F1A ....|--- .... ....
....|..|--- .... ....|--- .... ....|--- .... ....
....|..|C-5 VF.F ....|B-3 3F17 ....|C#5 4F.7 ....
....|..|B-1 2F.7 ....|--- .... ....|--- .... ....
....|..|C-5 VF.A ....|R-- .... ....|--- .... ....
....|..|R-- .... ....|--- .... ....|--- .... ....
....|..|C-4 AF.F ....|B-3 3F17 ....|R-- .... ....
....|..|B-1 2F.7 ....|--- .... ....|--- .... ....
....|..|B-1 2F.7 ....|B-3 3F17 ....|--- .... ....
....|..|--- .... ....|--- .... ....|--- .... ....

[Pattern29]
....|..|C-4 AF.F ....|B-3 3F1A ....|A-3 4F1F ....
..1B|..|A-1 2A.F ....|--- .... ....|--- .... ....
....|..|B-1 2F.7 ....|B-3 3F17 ....|--- .... ....
....|..|--- .... ....|--- .... ....|--- .... ....
....|..|C-4 AF.F ....|--- .... ....|--- .... ....
....|..|--- .... ....|--- .... ....|--- .... ....
..1C|..|G#1 2A.F ....|R-- .... ....|G#3 4F1F ....
....|..|R-- .... ....|--- .... ....|--- .... ....
....|..|C-5 VF.F ....|E-3 3F27 ....|R-- .... ....
....|..|E-1 2F.7 ....|--- .... ....|--- .... ....
....|..|C-5 VF.7 ....|--- .... ....|--- .... ....
....|..|--- .... ....|--- .... ....|--- .... ....
....|..|C-4 AF.F ....|B-3 3F17 ....|G-3 4F1F ....
..1E|..|G-1 2A.F ....|--- .... ....|--- .... ....
....|..|C-5 VF.F ....|--- .... ....|--- .... ....
....|..|--- .... ....|--- .... ....|--- .... ....
....|..|C-3 RF.F ....|--- .... ....|--- .... ....
....|..|--- .... ....|--- .... ....|--- .... ....
....|..|C-5 VF.F ....|--- .... ....|G#3 4F1A ....
....|..|--- .... ....|--- .... ....|--- .... ....
....|..|C-4 AF.F ....|R-- .... ....|F-3 4F1F ....
..22|..|F-1 2A.F ....|--- .... ....|--- .... ....
....|..|R-- .... ....|--- .... ....|--- .... ....
....|..|--- .... ....|--- .... ....|--- .... ....
....|..|C-5 VF.F ....|--- .... ....|A-3 4F17 ....
....|..|A-1 2F.7 ....|--- .... ....|--- .... ....
..24|..|E-1 2A.F ....|--- .... ....|E-3 4F1F ....
....|..|--- .... ....|--- .... ....|--- .... ....
....|..|C-4 AF.F ....|--- .... ....|--- .... ....
....|..|--- .... ....|--- .... ....|B-2 4F.F ....
....|..|G#1 2F.7 ....|--- .... ....|G#3 4F17 ....
....|..|--- .... ....|--- .... ....|--- .... ....
....|..|C-4 AF.F ....|--- .... ....|A-3 4F1F ....
..1B|..|A-1 2A.F ....|--- .... ....|--- .... ....
....|..|R-- .... ....|--- .... ....|--- .... ....
....|..|--- .... ....|--- .... ....|--- .... ....
....|..|C-4 AF.F ....|--- .... ....|G-3 4F17 ....
....|..|G-1 2F.7 ....|--- .... ....|--- .... ....
..1C|..|G#1 2A.F ....|--- .... ....|G#3 4F1F ....
....|..|--- .... ....|--- .... ....|--- .... ....
....|..|C-5 VF.F ....|--- .... ....|--- .... ....
....|..|--- .... ....|--- .... ....|B-2 4F.A ....
....|..|C-5 VF.7 ....|--- .... ....|--- .... ....
....|..|--- .... ....|--- .... ....|--- .... ....
....|..|C-4 AF.F ....|--- .... ....|G-3 4F1F ....
..1E|..|G-1 2A.F ....|--- .... ....|--- .... ....
....|..|C-5 VF.F ....|--- .... ....|--- .... ....
....|..|--- .... ....|--- .... ....|--- .... ....
....|..|C-4 AF.F ....|--- .... ....|A-3 4F3F ....
..24|..|E-1 2A.F ....|--- .... ....|--- .... ....
....|..|C-4 AF.F ....|--- .... ....|E-3 4F3F ....
..24|..|E-1 2A.F ....|--- .... ....|--- .... ....
....|..|C-4 AF.F ....|--- .... ....|A-3 4F3F ....
..24|..|E-1 2A.F ....|--- .... ....|B-2 4F.7 ....
..24|..|E-1 2A.F ....|--- .... ....|E-3 4F3F ....
....|..|--- .... ....|--- .... ....|--- .... ....
....|..|C-5 VF.F ....|--- .... ....|E-3 4F.F ....
..12|..|E-2 2A.F ....|--- .... ....|--- .... ....
....|..|C-5 VF.A ....|--- .... ....|--- .... ....
....|..|--- .... ....|--- .... ....|--- .... ....
....|..|C-4 AF.F ....|--- .... ....|A-2 4F.F ....
..1B|..|A-1 2A.F ....|--- .... ....|--- .... ....
....|..|G#1 2F.7 ....|--- .... ....|G#3 4F17 ....
....|..|E-1 2F.A ....|--- .... ....|--- .... ....

[Pattern30]
....|..|C-4 AF.F ....|B-3 3F1F ....|C#5 4F.F ....
..18|..|B-1 2A.F ....|--- .... ....|--- .... ....
....|..|E-1 2F.A ....|--- .... ....|E-3 4F3A ....
....|..|--- .... ....|--- .... ....|--- .... ....
....|..|C-4 AF.F ....|B-3 3F1F ....|G-3 4F17 ....
..18|..|B-1 2A.F ....|--- .... ....|--- .... ....
..18|..|B-1 2A.F ....|B-3 3F1F ....|--- .... ....
....|..|--- .... ....|--- .... ....|--- .... ....
....|..|C-5 VF.F ....|--- .... ....|A-3 4F37 ....
....|..|E-1 2F.7 ....|--- .... ....|--- .... ....
..18|..|B-1 2A.F ....|B-3 3F1F ....|E-3 4F37 ....
....|..|E-1 2F.7 ....|--- .... ....|--- .... ....
....|..|C-4 AF.F ....|B-3 3F1A ....|A-3 4F37 ....
....|..|E-1 2F.7 ....|--- .... ....|--- .... ....
....|..|C-5 VF.F ....|R-- .... ....|E-3 4F37 ....
....|..|R-- .... ....|--- .... ....|--- .... ....
....|..|C-3 RF.F ....|E-3 3F2F ....|E-3 4F.7 ....
..24|..|E-1 2A.F ....|--- .... ....|--- .... ....
....|..|C-5 VF.F ....|B-3 3F1A ....|--- .... ....
....|..|--- .... ....|--- .... ....|--- .... ....
....|..|C-4 AF.F ....|B-3 3F1F ....|A-2 4F.7 ....
..18|..|B-1 2A.F ....|--- .... ....|--- .... ....
....|..|B-1 2F.A ....|B-3 3F1A ....|--- .... ....
....|..|--- .... ....|--- .... ....|--- .... ....
....|..|C-5 VF.F ....|E-3 3F1F ....|C#5 4F.7 ....
..24|..|E-1 2A.F ....|--- .... ....|--- .... ....
....|..|C-5 VF.A ....|R-- .... ....|--- .... ....
....|..|R-- .... ....|--- .... ....|--- .... ....
....|..|C-4 AF.F ....|B-3 3F17 ....|R-- .... ....
....|..|B-1 2F.7 ....|--- .... ....|--- .... ....
....|..|B-1 2F.7 ....|B-3 3F17 ....|--- .... ....
....|..|--- .... ....|--- .... ....|--- .... ....
....|..|C-4 AF.F ....|B-3 3F1F ....|C#5 4F.F ....
..18|..|B-1 2A.F ....|--- .... ....|--- .... ....
....|..|B-1 2F.7 ....|B-3 3F17 ....|--- .... ....
....|..|--- .... ....|--- .... ....|--- .... ....
....|..|C-4 AF.F ....|B-3 3F1F ....|--- .... ....
..18|..|B-1 2A.F ....|--- .... ....|--- .... ....
..18|..|B-1 2A.F ....|B-3 3F1F ....|--- .... ....
....|..|R-- .... ....|--- .... ....|--- .... ....
....|..|C-5 VF.F ....|E-3 3F27 ....|R-- .... ....
....|..|E-1 2F.7 ....|--- .... ....|--- .... ....
..18|..|B-1 2A.F ....|B-3 3F1F ....|--- .... ....
....|..|--- .... ....|--- .... ....|--- .... ....
....|..|C-4 AF.F ....|B-3 3F17 ....|C#5 4F.A ....
....|..|B-1 2F.7 ....|--- .... ....|--- .... ....
....|..|C-5 VF.F ....|R-- .... ....|--- .... ....
....|..|R-- .... ....|--- .... ....|--- .... ....
....|..|C-3 RF.F ....|E-3 3F2F ....|R-- .... ....
..24|..|E-1 2A.F ....|--- .... ....|--- .... ....
....|..|C-5 VF.F ....|B-3 3F1A ....|--- .... ....
....|..|--- .... ....|--- .... ....|--- .... ....
....|..|C-4 AF.F ....|B-3 3F1F ....|--- .... ....
..18|..|B-1 2A.F ....|--- .... ....|--- .... ....
....|..|B-1 2F.A ....|B-3 3F1A ....|--- .... ....
....|..|--- .... ....|--- .... ....|--- .... ....
....|..|C-5 VF.F ....|B-3 3F17 ....|C#5 4F.7 ....
....|..|B-1 2F.7 ....|--- .... ....|--- .... ....
....|..|C-5 VF.A ....|R-- .... ....|--- .... ....
....|..|R-- .... ....|--- .... ....|--- .... ....
....|..|C-4 AF.F ....|B-3 3F17 ....|R-- .... ....
....|..|B-1 2F.7 ....|--- .... ....|--- .... ....
....|..|B-1 2F.7 ....|B-3 3F17 ....|--- .... ....
....|..|--- .... ....|--- .... ....|--- .... ....

[Pattern31]
....|..|C-4 AF.F ....|B-3 3F1A ....|A-3 4F1F ....
..1B|..|A-1 2A.F ....|--- .... ....|--- .... ....
....|..|B-1 2F.7 ....|B-3 3F17 ....|--- .... ....
....|..|--- .... ....|--- .... ....|--- .... ....
....|..|C-4 AF.F ....|--- .... ....|--- .... ....
....|..|--- .... ....|--- .... ....|--- .... ....
..1C|..|G#1 2A.F ....|R-- .... ....|G#3 4F1F ....
....|..|R-- .... ....|--- .... ....|--- .... ....
....|..|C-5 VF.F ....|E-3 3F27 ....|R-- .... ....
....|..|E-1 2F.7 ....|--- .... ....|--- .... ....
....|..|C-5 VF.7 ....|--- .... ....|--- .... ....
....|..|--- .... ....|--- .... ....|--- .... ....
....|..|C-4 AF.F ....|B-3 3F17 ....|G-3 4F1F ....
..1E|..|G-1 2A.F ....|--- .... ....|--- .... ....
....|..|C-5 VF.F ....|--- .... ....|--- .... ....
....|..|--- .... ....|--- .... ....|--- .... ....
....|..|C-3 RF.F ....|--- .... ....|--- .... ....
....|..|--- .... ....|--- .... ....|--- .... ....
....|..|C-5 VF.F ....|--- .... ....|G#3 4F1A ....
....|..|--- .... ....|--- .... ....|--- .... ....
....|..|C-4 AF.F ....|R-- .... ....|F-3 4F1F ....
..22|..|F-1 2A.F ....|--- .... ....|--- .... ....
....|..|R-- .... ....|--- .... ....|--- .... ....
....|..|--- .... ....|--- .... ....|--- .... ....
....|..|C-5 VF.F ....|--- .... ....|A-3 4F17 ....
....|..|A-1 2F.7 ....|--- .... ....|--- .... ....
..24|..|E-1 2A.F ....|--- .... ....|E-3 4F1F ....
....|..|--- .... ....|--- .... ....|--- .... ....
....|..|C-4 AF.F ....|--- .... ....|--- .... ....
....|..|--- .... ....|--- .... ....|B-2 4F.F ....
....|..|G#1 2F.7 ....|--- .... ....|G#3 4F17 ....
....|..|--- .... ....|--- .... ....|--- .... ....
....|..|C-4 AF.F ....|--- .... ....|A-3 4F1F ....
..1B|..|A-1 2A.F ....|--- .... ....|--- .... ....
....|..|R-- .... ....|--- .... ....|--- .... ....
....|..|--- .... ....|--- .... ....|--- .... ....
....|..|C-4 AF.7 ....|--- .... ....|G-3 4F17 ....
....|..|G-1 2F.7 ....|--- .... ....|--- .... ....
....|..|C-4 AF.F ....|--- .... ....|G#3 4F1F ....
..1C|..|G#1 2A.F ....|--- .... ....|--- .... ....
....|..|C-3 RF.7 ....|--- .... ....|--- .... ....
....|..|--- .... ....|--- .... ....|B-2 4F.A ....
....|..|C-5 VF.7 ....|--- .... ....|--- .... ....
....|..|--- .... ....|--- .... ....|--- .... ....
....|..|C-4 AF.F ....|--- .... ....|G-3 4F1F ....
..1E|..|G-1 2A.F ....|--- .... ....|--- .... ....
....|..|--- .... ....|--- .... ....|--- .... ....
....|..|--- .... ....|--- .... ....|--- .... ....
..24|..|E-1 2A.F ....|--- .... ....|A-3 4F3F ....
....|..|--- .... ....|--- .... ....|--- .... ....
....|..|C-4 AF.F ....|--- .... ....|E-3 4F3F ....
..24|..|E-1 2A.F ....|--- .... ....|--- .... ....
....|..|C-4 AF.F ....|--- .... ....|A-3 4F3F ....
..24|..|E-1 2A.F ....|--- .... ....|B-2 4F.7 ....
....|..|C-4 AF.F ....|--- .... ....|E-3 4F3F ....
..24|..|E-1 2A.F ....|--- .... ....|--- .... ....
....|..|C-5 VF.F ....|--- .... ....|E-3 4F.F ....
..12|..|E-2 2A.F ....|--- .... ....|--- .... ....
....|..|--- .... ....|--- .... ....|--- .... ....
....|..|--- .... ....|--- .... ....|--- .... ....
....|..|C-4 AF.F ....|--- .... ....|A-2 4F.F ....
..1B|..|A-1 2A.F ....|--- .... ....|--- .... ....
....|..|C-4 AF.7 ....|--- .... ....|G#3 4F17 ....
....|..|G#1 2F.7 ....|--- .... ....|--- .... ....

[Pattern32]
..18|..|B-1 2A.F ....|--- .... ....|F#5 5F.F ....
....|..|E-1 2F.A ....|--- .... ....|--- .... ....
....|..|C-4 AF.A ....|--- .... ....|E-3 4F3A ....
....|..|E-1 2F.A ....|--- .... ....|--- .... ....
....|..|C-4 AF.7 ....|--- .... ....|G-3 4F17 ....
....|..|G-1 2F.7 ....|--- .... ....|--- .... ....
....|..|--- .... ....|--- .... ....|--- .... ....
....|..|--- .... ....|--- .... ....|--- .... ....
..18|..|B-1 2A.F ....|--- .... ....|F#5 5F.F ....
....|..|A-1 2F.A ....|--- .... ....|--- .... ....
....|..|C-4 AF.7 ....|--- .... ....|E-3 4F37 ....
....|..|E-1 2F.7 ....|--- .... ....|--- .... ....
....|..|C-4 AF.7 ....|--- .... ....|A-3 4F37 ....
....|..|E-1 2F.7 ....|--- .... ....|--- .... ....
....|..|C-4 AF.7 ....|--- .... ....|E-3 4F37 ....
....|..|E-1 2F.7 ....|--- .... ....|--- .... ....
..18|..|B-1 2A.F ....|--- .... ....|F#5 5F.F ....
....|..|E-2 2F.7 ....|--- .... ....|--- .... ....
....|..|--- .... ....|--- .... ....|--- .... ....
....|..|--- .... ....|--- .... ....|--- .... ....
....|..|C-4 AF.7 ....|--- .... ....|A-2 4F.7 ....
....|..|A-1 2F.7 ....|--- .... ....|--- .... ....
....|..|--- .... ....|--- .... ....|--- .... ....
....|..|--- .... ....|--- .... ....|--- .... ....
..18|..|B-1 2A.F ....|--- .... ....|F#5 5F.F ....
....|..|--- .... ....|--- .... ....|--- .... ....
....|..|--- .... ....|--- .... ....|--- .... ....
....|..|--- .... ....|--- .... ....|--- .... ....
....|..|B-1 2F.A ....|--- .... ....|F#5 5F.A ....
....|..|--- .... ....|--- .... ....|--- .... ....
....|..|--- .... ....|--- .... ....|F#5 5F.F ....
....|..|--- .... ....|--- .... ....|--- .... ....
..18|..|B-1 2A.F ....|--- .... ....|F#5 5F.F ....
....|..|--- .... ....|--- .... ....|--- .... ....
....|..|--- .... ....|--- .... ....|--- .... ....
....|..|--- .... ....|--- .... ....|--- .... ....
....|..|B-1 2F.A ....|--- .... ....|F#5 5F.A ....
....|..|--- .... ....|--- .... ....|--- .... ....
....|..|--- .... ....|--- .... ....|--- .... ....
....|..|--- .... ....|--- .... ....|--- .... ....
..18|..|B-1 2A.F ....|--- .... ....|F#5 5F.F ....
....|..|--- .... ....|--- .... ....|--- .... ....
....|..|--- .... ....|--- .... ....|F#5 5F.A ....
....|..|--- .... ....|--- .... ....|--- .... ....
....|..|B-1 2F.A ....|--- .... ....|F#5 5F.A ....
....|..|--- .... ....|--- .... ....|--- .... ....
....|..|--- .... ....|--- .... ....|--- .... ....
....|..|--- .... ....|--- .... ....|--- .... ....
..18|..|B-1 2A.F ....|--- .... ....|F#5 5F.F ....
....|..|--- .... ....|--- .... ....|--- .... ....
....|..|--- .... ....|--- .... ....|--- .... ....
....|..|--- .... ....|--- .... ....|--- .... ....
....|..|B-1 2F.A ....|--- .... ....|F#5 5F.A ....
....|..|--- .... ....|--- .... ....|--- .... ....
....|..|--- .... ....|--- .... ....|F#5 5F.7 ....
....|..|--- .... ....|--- .... ....|--- .... ....
..18|..|B-1 2A.F ....|--- .... ....|F#5 5F.F ....
....|..|--- .... ....|--- .... ....|--- .... ....
....|..|--- .... ....|--- .... ....|--- .... ....
....|..|--- .... ....|--- .... ....|--- .... ....
....|..|B-1 2F.A ....|--- .... ....|F#5 5F.F ....
....|..|--- .... ....|--- .... ....|--- .... ....
....|..|--- .... ....|--- .... ....|--- .... ....
....|..|--- .... ....|--- .... ....|--- .... ....

[Pattern33]
..18|..|B-1 2A.F ....|--- .... ....|F#5 5F.F ....
....|..|--- .... ....|--- .... ....|--- .... ....
....|..|--- .... ....|--- .... ....|--- .... ....
....|..|--- .... ....|--- .... ....|--- .... ....
....|..|B-1 2F.A ....|--- .... ....|F#5 5F.A ....
....|..|--- .... ....|--- .... ....|--- .... ....
....|..|--- .... ....|--- .... ....|--- .... ....
....|..|--- .... ....|--- .... ....|--- .... ....
..18|..|B-1 2A.F ....|--- .... ....|F#5 5F.F ....
....|..|--- .... ....|--- .... ....|--- .... ....
....|..|--- .... ....|--- .... ....|--- .... ....
....|..|--- .... ....|--- .... ....|--- .... ....
....|..|B-1 2F.A ....|--- .... ....|F#5 5F.A ....
....|..|--- .... ....|--- .... ....|--- .... ....
....|..|--- .... ....|--- .... ....|--- .... ....
....|..|--- .... ....|--- .... ....|--- .... ....
..18|..|B-1 2A.F ....|--- .... ....|F#5 5F.F ....
....|..|--- .... ....|--- .... ....|--- .... ....
....|..|--- .... ....|--- .... ....|--- .... ....
....|..|--- .... ....|--- .... ....|--- .... ....
....|..|B-1 2F.A ....|--- .... ....|F#5 5F.7 ....
....|..|--- .... ....|--- .... ....|--- .... ....
....|..|--- .... ....|--- .... ....|--- .... ....
....|..|--- .... ....|--- .... ....|--- .... ....
..18|..|B-1 2A.F ....|--- .... ....|F#5 5F.F ....
....|..|--- .... ....|--- .... ....|--- .... ....
....|..|--- .... ....|--- .... ....|--- .... ....
....|..|--- .... ....|--- .... ....|--- .... ....
....|..|B-1 2F.A ....|--- .... ....|F#5 5F.A ....
....|..|--- .... ....|--- .... ....|--- .... ....
....|..|--- .... ....|--- .... ....|--- .... ....
....|..|--- .... ....|--- .... ....|--- .... ....
..18|..|B-1 2A.F ....|--- .... ....|F-5 5F.F ....
....|..|--- .... ....|--- .... ....|--- .... ....
....|..|--- .... ....|--- .... ....|--- .... ....
....|..|--- .... ....|--- .... ....|--- .... ....
....|..|B-1 2F.A ....|--- .... ....|F#5 5F.A ....
....|..|--- .... ....|--- .... ....|--- .... ....
....|..|--- .... ....|--- .... ....|--- .... ....
....|..|--- .... ....|--- .... ....|--- .... ....
..18|..|B-1 2A.F ....|--- .... ....|F-5 5F.F ....
....|..|--- .... ....|--- .... ....|--- .... ....
....|..|--- .... ....|--- .... ....|--- .... ....
....|..|--- .... ....|--- .... ....|--- .... ....
....|..|B-1 2F.A ....|--- .... ....|F-5 5F.A ....
....|..|--- .... ....|--- .... ....|--- .... ....
....|..|--- .... ....|--- .... ....|--- .... ....
....|..|--- .... ....|--- .... ....|--- .... ....
..18|..|B-1 2A.F ....|--- .... ....|D-5 5F.F ....
....|..|--- .... ....|--- .... ....|--- .... ....
....|..|--- .... ....|--- .... ....|--- .... ....
....|..|--- .... ....|--- .... ....|--- .... ....
....|..|B-1 2F.A ....|--- .... ....|F-5 5F.A ....
....|..|--- .... ....|--- .... ....|--- .... ....
....|..|--- .... ....|--- .... ....|D-5 5F.F ....
....|..|--- .... ....|--- .... ....|--- .... ....
..18|..|B-1 2A.F ....|--- .... ....|F-5 5F.7 ....
....|..|--- .... ....|--- .... ....|--- .... ....
....|..|--- .... ....|--- .... ....|--- .... ....
....|..|--- .... ....|--- .... ....|--- .... ....
....|..|B-1 2F.A ....|--- .... ....|F-5 5F.F ....
....|..|--- .... ....|--- .... ....|--- .... ....
....|..|--- .... ....|--- .... ....|--- .... ....
....|..|--- .... ....|--- .... ....|--- .... ....

[Pattern34]
..18|..|B-1 2A.F ....|B-3 3F1F ....|F#5 5F.F ....
....|..|--- .... ....|--- .... ....|--- .... ....
....|..|--- .... ....|--- .... ....|D-5 5F.A ....
....|..|--- .... ....|--- .... ....|--- .... ....
....|..|B-1 2F.A ....|--- .... ....|--- .... ....
....|..|--- .... ....|--- .... ....|--- .... ....
....|..|--- .... ....|--- .... ....|--- .... ....
....|..|--- .... ....|--- .... ....|--- .... ....
..18|..|B-1 2A.F ....|--- .... ....|F#5 5F.F ....
....|..|--- .... ....|--- .... ....|--- .... ....
....|..|--- .... ....|--- .... ....|--- .... ....
....|..|--- .... ....|--- .... ....|--- .... ....
....|..|B-1 2F.A ....|B-3 3F1A ....|F#5 5F.A ....
....|..|--- .... ....|--- .... ....|--- .... ....
....|..|--- .... ....|--- .... ....|D-5 5F.7 ....
....|..|--- .... ....|--- .... ....|--- .... ....
..18|..|B-1 2A.F ....|R-- .... ....|F#5 5F.F ....
....|..|--- .... ....|--- .... ....|--- .... ....
....|..|--- .... ....|--- .... ....|--- .... ....
....|..|--- .... ....|--- .... ....|--- .... ....
....|..|B-1 2F.A ....|--- .... ....|F-5 5F.7 ....
....|..|--- .... ....|--- .... ....|--- .... ....
....|..|--- .... ....|--- .... ....|--- .... ....
....|..|--- .... ....|--- .... ....|--- .... ....
..18|..|B-1 2A.F ....|B-3 3F17 ....|F#5 5F.F ....
....|..|--- .... ....|--- .... ....|--- .... ....
....|..|--- .... ....|--- .... ....|--- .... ....
....|..|--- .... ....|--- .... ....|--- .... ....
....|..|B-1 2F.A ....|R-- .... ....|F#5 5F.A ....
....|..|--- .... ....|--- .... ....|--- .... ....
....|..|--- .... ....|--- .... ....|F#5 5F.F ....
....|..|--- .... ....|--- .... ....|--- .... ....
..18|..|B-1 2A.F ....|--- .... ....|F#5 5F.F ....
....|..|--- .... ....|--- .... ....|--- .... ....
....|..|--- .... ....|--- .... ....|--- .... ....
....|..|--- .... ....|--- .... ....|--- .... ....
....|..|B-1 2F.A ....|--- .... ....|F#5 5F.A ....
....|..|--- .... ....|--- .... ....|--- .... ....
....|..|--- .... ....|--- .... ....|--- .... ....
....|..|--- .... ....|--- .... ....|--- .... ....
..18|..|B-1 2A.F ....|R-- .... ....|F#5 5F.F ....
....|..|--- .... ....|--- .... ....|--- .... ....
....|..|--- .... ....|--- .... ....|F#5 5F.A ....
....|..|--- .... ....|--- .... ....|--- .... ....
....|..|B-1 2F.A ....|--- .... ....|F#5 5F.A ....
....|..|--- .... ....|--- .... ....|--- .... ....
....|..|--- .... ....|--- .... ....|--- .... ....
....|..|--- .... ....|--- .... ....|--- .... ....
..18|..|B-1 2A.F ....|--- .... ....|F#5 5F.F ....
....|..|--- .... ....|--- .... ....|--- .... ....
....|..|--- .... ....|--- .... ....|--- .... ....
....|..|--- .... ....|--- .... ....|--- .... ....
....|..|B-1 2F.A ....|--- .... ....|F#5 5F.A ....
....|..|--- .... ....|--- .... ....|--- .... ....
....|..|--- .... ....|--- .... ....|F#5 5F.7 ....
....|..|--- .... ....|--- .... ....|--- .... ....
..18|..|B-1 2A.F ....|--- .... ....|F#5 5F.F ....
....|..|--- .... ....|--- .... ....|--- .... ....
....|..|--- .... ....|--- .... ....|--- .... ....
....|..|--- .... ....|--- .... ....|--- .... ....
....|..|B-1 2F.A ....|--- .... ....|F#5 5F.F ....
....|..|--- .... ....|--- .... ....|--- .... ....
....|..|--- .... ....|--- .... ....|--- .... ....
....|..|--- .... ....|--- .... ....|--- .... ....

[Pattern36]
....|..|C-5 VF.F ....|B-2 3F.F ....|F#5 5F.F ....
..18|..|B-1 2A.F ....|--- .... ....|--- .... ....
....|..|R-- .... ....|--- .... ....|D-5 5F.A ....
....|..|--- .... ....|--- .... ....|--- .... ....
....|..|B-1 2F.A ....|--- .... ....|--- .... ....
....|..|--- .... ....|B-2 3F.F ....|--- .... ....
....|..|--- .... ....|--- .... ....|--- .... ....
....|..|--- .... ....|--- .... ....|--- .... ....
....|..|C-5 VF.F ....|--- .... ....|F#5 5F.F ....
..18|..|B-1 2A.F ....|--- .... ....|--- .... ....
....|..|R-- .... ....|--- .... ....|--- .... ....
....|..|--- .... ....|B-2 3F.F ....|--- .... ....
....|..|C-4 LF.F ....|B-2 3F.A ....|F#5 5F.A ....
....|..|B-1 2F.A ....|--- .... ....|--- .... ....
....|..|R-- .... ....|--- .... ....|D-5 5F.7 ....
....|..|--- .... ....|--- .... ....|--- .... ....
..18|..|B-1 2A.F ....|B-2 3F.F ....|F#5 5F.F ....
....|..|--- .... ....|B-2 3F.F ....|--- .... ....
....|..|C-5 VF.F ....|--- .... ....|--- .... ....
....|..|--- .... ....|--- .... ....|--- .... ....
....|..|C-5 VF.A ....|--- .... ....|F-5 5F.7 ....
....|..|B-1 2F.A ....|--- .... ....|--- .... ....
....|..|C-5 VF.F ....|--- .... ....|--- .... ....
....|..|--- .... ....|B-2 3F.F ....|--- .... ....
....|..|C-5 VF.F ....|B-2 3F.7 ....|F#5 5F.F ....
..18|..|B-1 2A.F ....|--- .... ....|--- .... ....
....|..|R-- .... ....|--- .... ....|--- .... ....
....|..|--- .... ....|--- .... ....|--- .... ....
....|..|C-4 LF.F ....|B-2 3F.F ....|F#5 5F.A ....
....|..|R-- .... ....|B-2 3F.7 ....|--- .... ....
....|..|C-5 VF.A ....|--- .... ....|F#5 5F.F ....
....|..|--- .... ....|--- .... ....|--- .... ....
....|..|C-5 VF.F ....|B-2 3F.F ....|F#5 5F.F ....
..18|..|B-1 2A.F ....|--- .... ....|--- .... ....
....|..|C-5 VF.A ....|--- .... ....|--- .... ....
....|..|--- .... ....|B-2 3F.7 ....|--- .... ....
....|..|C-4 AF.F ....|--- .... ....|F#5 5F.A ....
....|..|B-1 2F.A ....|B-2 3F.F ....|--- .... ....
....|..|R-- .... ....|--- .... ....|--- .... ....
....|..|--- .... ....|--- .... ....|--- .... ....
....|..|C-5 VF.F ....|B-2 3F.7 ....|F#5 5F.F ....
..18|..|B-1 2A.F ....|B-2 3F.7 ....|--- .... ....
....|..|C-5 VF.7 ....|--- .... ....|F#5 5F.A ....
....|..|--- .... ....|B-2 3F.F ....|--- .... ....
....|..|C-4 LF.F ....|B-2 3F.A ....|F#5 5F.A ....
....|..|B-1 2F.A ....|--- .... ....|--- .... ....
....|..|C-5 VF.7 ....|--- .... ....|--- .... ....
....|..|--- .... ....|B-2 3F.7 ....|--- .... ....
..18|..|B-1 2A.F ....|B-2 3F.F ....|F#5 5F.F ....
....|..|B-1 2F.7 ....|B-2 3F.F ....|--- .... ....
....|..|C-5 VF.F ....|--- .... ....|--- .... ....
....|..|--- .... ....|--- .... ....|--- .... ....
....|..|C-4 LF.7 ....|B-2 3F.7 ....|F#5 5F.A ....
....|..|B-1 2F.A ....|--- .... ....|--- .... ....
....|..|C-5 VF.F ....|--- .... ....|F#5 5F.7 ....
....|..|--- .... ....|B-2 3F.F ....|--- .... ....
....|..|C-5 VF.F ....|B-2 3F.7 ....|F#5 5F.F ....
..18|..|B-1 2A.F ....|--- .... ....|--- .... ....
....|..|R-- .... ....|--- .... ....|--- .... ....
....|..|--- .... ....|--- .... ....|--- .... ....
....|..|C-4 LF.F ....|B-2 3F.F ....|F#5 5F.F ....
....|..|R-- .... ....|B-2 3F.7 ....|--- .... ....
....|..|C-5 VF.A ....|--- .... ....|--- .... ....
....|..|--- .... ....|--- .... ....|--- .... ....

[Pattern37]
....|..|C-5 VF.F ....|G-2 3F.F ....|F#5 5F.F ....
..18|..|B-1 2A.F ....|--- .... ....|--- .... ....
....|..|C-5 VF.A ....|--- .... ....|--- .... ....
....|..|--- .... ....|B-2 3F.7 ....|--- .... ....
....|..|C-4 LF.7 ....|--- .... ....|F#5 5F.A ....
....|..|B-1 2F.A ....|G-2 3F.F ....|--- .... ....
....|..|R-- .... ....|--- .... ....|--- .... ....
....|..|--- .... ....|--- .... ....|--- .... ....
....|..|C-5 VF.F ....|B-2 3F.7 ....|F#5 5F.F ....
..18|..|B-1 2A.F ....|B-2 3F.7 ....|--- .... ....
....|..|C-5 VF.7 ....|--- .... ....|--- .... ....
....|..|--- .... ....|G-2 3F.F ....|--- .... ....
....|..|C-4 LF.F ....|G-2 3F.A ....|F#5 5F.A ....
....|..|B-1 2F.A ....|--- .... ....|--- .... ....
....|..|C-5 VF.7 ....|--- .... ....|--- .... ....
....|..|--- .... ....|B-2 3F.7 ....|--- .... ....
..18|..|B-1 2A.F ....|G-2 3F.F ....|F#5 5F.F ....
....|..|B-1 2F.7 ....|G-2 3F.F ....|--- .... ....
....|..|C-5 VF.F ....|--- .... ....|--- .... ....
....|..|--- .... ....|--- .... ....|--- .... ....
....|..|C-4 LF.7 ....|B-2 3F.7 ....|F#5 5F.7 ....
....|..|B-1 2F.A ....|--- .... ....|--- .... ....
....|..|C-5 VF.F ....|--- .... ....|--- .... ....
....|..|--- .... ....|G-2 3F.F ....|--- .... ....
....|..|C-5 VF.F ....|G-2 3F.7 ....|F#5 5F.F ....
..18|..|B-1 2A.F ....|--- .... ....|--- .... ....
....|..|R-- .... ....|--- .... ....|--- .... ....
....|..|--- .... ....|--- .... ....|--- .... ....
....|..|C-4 LF.F ....|G-2 3F.F ....|F#5 5F.A ....
....|..|R-- .... ....|G-2 3F.7 ....|--- .... ....
....|..|C-5 VF.A ....|--- .... ....|--- .... ....
....|..|--- .... ....|--- .... ....|--- .... ....
....|..|C-5 VF.F ....|A-2 3F.F ....|F-5 5F.F ....
..18|..|B-1 2A.F ....|--- .... ....|--- .... ....
....|..|C-5 VF.A ....|--- .... ....|--- .... ....
....|..|--- .... ....|G-2 3F.7 ....|--- .... ....
....|..|C-4 AF.F ....|--- .... ....|F#5 5F.A ....
....|..|B-1 2F.A ....|A-2 3F.F ....|--- .... ....
....|..|R-- .... ....|--- .... ....|--- .... ....
....|..|--- .... ....|--- .... ....|--- .... ....
....|..|C-5 VF.F ....|G-2 3F.7 ....|F-5 5F.F ....
..18|..|B-1 2A.F ....|G-2 3F.7 ....|--- .... ....
....|..|C-5 VF.7 ....|--- .... ....|--- .... ....
....|..|--- .... ....|A-2 3F.F ....|--- .... ....
....|..|C-4 LF.F ....|A-2 3F.A ....|F-5 5F.A ....
....|..|B-1 2F.A ....|--- .... ....|--- .... ....
....|..|C-5 VF.7 ....|--- .... ....|--- .... ....
....|..|--- .... ....|G-2 3F.7 ....|--- .... ....
..18|..|B-1 2A.F ....|A-2 3F.F ....|D-5 5F.F ....
....|..|B-1 2F.7 ....|A-2 3F.F ....|--- .... ....
....|..|C-5 VF.F ....|--- .... ....|--- .... ....
....|..|--- .... ....|--- .... ....|--- .... ....
....|..|C-4 LF.7 ....|G-2 3F.7 ....|F-5 5F.A ....
....|..|B-1 2F.A ....|--- .... ....|--- .... ....
....|..|C-5 VF.F ....|--- .... ....|D-5 5F.F ....
....|..|--- .... ....|A-2 3F.F ....|--- .... ....
....|..|C-5 VF.F ....|A-2 3F.7 ....|F-5 5F.7 ....
..18|..|B-1 2A.F ....|--- .... ....|--- .... ....
....|..|R-- .... ....|--- .... ....|--- .... ....
....|..|--- .... ....|--- .... ....|--- .... ....
....|..|C-4 LF.F ....|A-2 3F.F ....|F-5 5F.F ....
....|..|R-- .... ....|A-2 3F.7 ....|--- .... ....
....|..|C-5 VF.A ....|--- .... ....|--- .... ....
....|..|--- .... ....|--- .... ....|--- .... ....

[Pattern38]
....|..|C-5 VF.F ....|E-2 3F.F ....|F#5 5F.F ....
..18|..|B-1 2A.F ....|--- .... ....|--- .... ....
....|..|C-5 VF.A ....|--- .... ....|D-5 5F.A ....
....|..|--- .... ....|A-2 3F.7 ....|--- .... ....
....|..|C-4 LF.7 ....|--- .... ....|--- .... ....
....|..|B-1 2F.A ....|E-2 3F.F ....|--- .... ....
....|..|R-- .... ....|--- .... ....|--- .... ....
....|..|--- .... ....|--- .... ....|--- .... ....
....|..|C-5 VF.F ....|A-2 3F.7 ....|F#5 5F.F ....
..18|..|B-1 2A.F ....|A-2 3F.7 ....|--- .... ....
....|..|C-5 VF.7 ....|--- .... ....|--- .... ....
....|..|--- .... ....|E-2 3F.F ....|--- .... ....
....|..|C-4 LF.F ....|E-2 3F.A ....|F#5 5F.A ....
....|..|B-1 2F.A ....|--- .... ....|--- .... ....
....|..|C-5 VF.7 ....|--- .... ....|D-5 5F.7 ....
....|..|--- .... ....|A-2 3F.7 ....|--- .... ....
..18|..|B-1 2A.F ....|E-2 3F.F ....|F#5 5F.F ....
....|..|B-1 2F.7 ....|E-2 3F.F ....|--- .... ....
....|..|C-5 VF.F ....|--- .... ....|--- .... ....
....|..|--- .... ....|--- .... ....|--- .... ....
....|..|C-4 LF.7 ....|A-2 3F.7 ....|F-5 5F.7 ....
....|..|B-1 2F.A ....|--- .... ....|--- .... ....
....|..|C-5 VF.F ....|--- .... ....|--- .... ....
....|..|--- .... ....|E-2 3F.F ....|--- .... ....
....|..|C-5 VF.F ....|E-2 3F.7 ....|F#5 5F.F ....
..18|..|B-1 2A.F ....|--- .... ....|--- .... ....
....|..|R-- .... ....|--- .... ....|--- .... ....
....|..|--- .... ....|--- .... ....|--- .... ....
....|..|C-4 LF.F ....|E-2 3F.F ....|F#5 5F.A ....
....|..|R-- .... ....|E-2 3F.7 ....|--- .... ....
....|..|C-5 VF.A ....|--- .... ....|F#5 5F.F ....
....|..|--- .... ....|--- .... ....|--- .... ....
....|..|C-5 VF.F ....|E-2 3F.F ....|F#5 5F.F ....
..18|..|B-1 2A.F ....|--- .... ....|--- .... ....
....|..|C-5 VF.A ....|--- .... ....|--- .... ....
....|..|--- .... ....|E-2 3F.7 ....|--- .... ....
....|..|C-4 AF.F ....|--- .... ....|F#5 5F.A ....
....|..|B-1 2F.A ....|E-2 3F.F ....|--- .... ....
....|..|R-- .... ....|--- .... ....|--- .... ....
....|..|--- .... ....|--- .... ....|--- .... ....
....|..|C-5 VF.F ....|E-2 3F.7 ....|F#5 5F.F ....
..18|..|B-1 2A.F ....|E-2 3F.7 ....|--- .... ....
....|..|C-5 VF.7 ....|--- .... ....|F#5 5F.A ....
....|..|--- .... ....|E-2 3F.F ....|--- .... ....
....|..|C-4 LF.F ....|E-2 3F.A ....|F#5 5F.A ....
....|..|B-1 2F.A ....|--- .... ....|--- .... ....
....|..|C-5 VF.7 ....|--- .... ....|--- .... ....
....|..|--- .... ....|E-2 3F.7 ....|--- .... ....
..18|..|B-1 2A.F ....|E-2 3F.F ....|F#5 5F.F ....
....|..|B-1 2F.7 ....|E-2 3F.F ....|--- .... ....
....|..|C-5 VF.F ....|--- .... ....|--- .... ....
....|..|--- .... ....|--- .... ....|--- .... ....
....|..|C-4 LF.7 ....|E-2 3F.7 ....|F#5 5F.A ....
....|..|B-1 2F.A ....|--- .... ....|--- .... ....
....|..|C-5 VF.F ....|--- .... ....|F#5 5F.7 ....
....|..|--- .... ....|E-2 3F.F ....|--- .... ....
....|..|C-5 VF.F ....|E-2 3F.7 ....|F#5 5F.F ....
..18|..|B-1 2A.F ....|--- .... ....|--- .... ....
....|..|R-- .... ....|--- .... ....|--- .... ....
....|..|--- .... ....|--- .... ....|--- .... ....
....|..|C-4 LF.F ....|E-2 3F.F ....|F#5 5F.F ....
....|..|R-- .... ....|E-2 3F.7 ....|--- .... ....
....|..|C-5 VF.A ....|--- .... ....|--- .... ....
....|..|--- .... ....|--- .... ....|--- .... ....

[Pattern39]
....|..|C-5 VF.F ....|G-2 3F.F ....|F#5 5F.F ....
..18|..|B-1 2A.F ....|--- .... ....|--- .... ....
....|..|C-5 VF.A ....|--- .... ....|--- .... ....
....|..|--- .... ....|E-2 3F.7 ....|--- .... ....
....|..|C-4 LF.7 ....|--- .... ....|F#5 5F.A ....
....|..|B-1 2F.A ....|G-2 3F.F ....|--- .... ....
....|..|R-- .... ....|--- .... ....|--- .... ....
....|..|--- .... ....|--- .... ....|--- .... ....
....|..|C-5 VF.F ....|E-2 3F.7 ....|F#5 5F.F ....
..18|..|B-1 2A.F ....|E-2 3F.7 ....|--- .... ....
....|..|C-5 VF.7 ....|--- .... ....|--- .... ....
....|..|--- .... ....|G-2 3F.F ....|--- .... ....
....|..|C-4 LF.F ....|G-2 3F.A ....|F#5 5F.A ....
....|..|B-1 2F.A ....|--- .... ....|--- .... ....
....|..|C-5 VF.7 ....|--- .... ....|--- .... ....
....|..|--- .... ....|E-2 3F.7 ....|--- .... ....
..18|..|B-1 2A.F ....|G-2 3F.F ....|F#5 5F.F ....
....|..|B-1 2F.7 ....|G-2 3F.F ....|--- .... ....
....|..|C-5 VF.F ....|--- .... ....|--- .... ....
....|..|--- .... ....|--- .... ....|--- .... ....
....|..|C-4 LF.7 ....|E-2 3F.7 ....|F#5 5F.7 ....
....|..|B-1 2F.A ....|--- .... ....|--- .... ....
....|..|C-5 VF.F ....|--- .... ....|--- .... ....
....|..|--- .... ....|G-2 3F.F ....|--- .... ....
....|..|C-5 VF.F ....|G-2 3F.7 ....|F#5 5F.F ....
..18|..|B-1 2A.F ....|--- .... ....|--- .... ....
....|..|R-- .... ....|--- .... ....|--- .... ....
....|..|--- .... ....|--- .... ....|--- .... ....
....|..|C-4 LF.F ....|G-2 3F.F ....|F#5 5F.A ....
....|..|R-- .... ....|G-2 3F.7 ....|--- .... ....
....|..|C-5 VF.A ....|--- .... ....|--- .... ....
....|..|--- .... ....|--- .... ....|--- .... ....
....|..|C-5 VF.F ....|A-2 3F.F ....|F-5 5F.F ....
..18|..|B-1 2A.F ....|--- .... ....|--- .... ....
....|..|C-5 VF.A ....|--- .... ....|--- .... ....
....|..|--- .... ....|G-2 3F.7 ....|--- .... ....
....|..|C-4 AF.F ....|--- .... ....|F#5 5F.A ....
....|..|B-1 2F.A ....|A-2 3F.F ....|--- .... ....
....|..|R-- .... ....|--- .... ....|--- .... ....
....|..|--- .... ....|--- .... ....|--- .... ....
....|..|C-5 VF.F ....|G-2 3F.7 ....|F-5 5F.F ....
..18|..|B-1 2A.F ....|G-2 3F.7 ....|--- .... ....
....|..|C-5 VF.7 ....|--- .... ....|--- .... ....
....|..|--- .... ....|A-2 3F.F ....|--- .... ....
....|..|C-4 LF.F ....|A-2 3F.A ....|F-5 5F.A ....
....|..|B-1 2F.A ....|--- .... ....|--- .... ....
....|..|C-5 VF.7 ....|--- .... ....|--- .... ....
....|..|--- .... ....|G-2 3F.7 ....|--- .... ....
....|..|C-5 VF.F ....|E-3 3F3F ....|D-5 5F.F ....
..18|..|B-1 2A.F ....|A-2 3F.A ....|--- .... ....
....|..|C-5 VF.F ....|A-3 3F3F ....|--- .... ....
....|..|--- .... ....|--- .... ....|--- .... ....
....|..|C-5 VF.F ....|E-3 3F3F ....|F-5 5F.A ....
....|..|B-1 2F.A ....|--- .... ....|--- .... ....
....|..|C-5 VF.F ....|A-3 3F3F ....|D-5 5F.F ....
....|..|--- .... ....|A-2 3F.A ....|--- .... ....
....|..|C-5 VF.F ....|E-3 3F.F ....|F-5 5F.7 ....
..18|..|B-1 2A.F ....|--- .... ....|--- .... ....
....|..|R-- .... ....|--- .... ....|--- .... ....
....|..|--- .... ....|--- .... ....|--- .... ....
....|..|C-5 VF.F ....|A-2 3F.F ....|F-5 5F.F ....
....|..|B-1 2F.A ....|A-2 3F.7 ....|--- .... ....
....|..|C-5 VF.A ....|A-3 3F3A ....|--- .... ....
....|..|--- .... ....|--- .... ....|--- .... ....

[Pattern40]
....|..|C-5 VF.F ....|B-2 3F.F ....|D-5 4F.F ....
..18|..|B-1 2A.F ....|--- .... ....|--- .... ....
....|..|C-5 VF.A ....|A-3 3F3A ....|C#5 4F.F ....
....|..|--- .... ....|A-2 3F.7 ....|--- .... ....
....|..|C-4 LF.7 ....|E-3 3F.A ....|B-4 4F.F ....
....|..|B-1 2F.A ....|B-2 3F.F ....|--- .... ....
....|..|R-- .... ....|--- .... ....|--- .... ....
....|..|--- .... ....|--- .... ....|--- .... ....
....|..|C-5 VF.F ....|E-3 3F37 ....|F#5 4F.F ....
..18|..|B-1 2A.F ....|--- .... ....|--- .... ....
....|..|C-5 VF.7 ....|A-3 3F37 ....|--- .... ....
....|..|--- .... ....|B-2 3F.F ....|--- .... ....
....|..|C-4 LF.F ....|E-3 3F37 ....|B-4 4F.F ....
....|..|B-1 2F.A ....|--- .... ....|--- .... ....
....|..|C-5 VF.7 ....|A-3 3F37 ....|D-5 5F.7 ....
....|..|--- .... ....|--- .... ....|--- .... ....
..18|..|B-1 2A.F ....|B-2 3F.F ....|D-5 4F.F ....
....|..|B-1 2F.7 ....|B-2 3F.F ....|--- .... ....
....|..|C-5 VF.F ....|--- .... ....|C#5 4F.F ....
....|..|--- .... ....|--- .... ....|--- .... ....
....|..|C-5 VF.7 ....|A-2 3F.7 ....|B-4 4F.F ....
....|..|B-1 2F.A ....|--- .... ....|--- .... ....
....|..|C-5 VF.F ....|--- .... ....|--- .... ....
....|..|--- .... ....|B-2 3F.F ....|--- .... ....
....|..|C-5 VF.F ....|B-2 3F.7 ....|F#5 4F.F ....
..18|..|B-1 2A.F ....|--- .... ....|--- .... ....
....|..|R-- .... ....|--- .... ....|C#5 4F.7 ....
....|..|--- .... ....|--- .... ....|--- .... ....
....|..|C-4 LF.F ....|B-2 3F.F ....|B-4 4F.F ....
....|..|R-- .... ....|B-2 3F.7 ....|--- .... ....
....|..|C-5 VF.A ....|--- .... ....|C#5 4F.A ....
....|..|--- .... ....|--- .... ....|--- .... ....
....|..|C-5 VF.F ....|B-2 3F.F ....|D-5 4F.F ....
..18|..|B-1 2A.F ....|--- .... ....|--- .... ....
....|..|C-5 VF.A ....|--- .... ....|C#5 4F.F ....
....|..|--- .... ....|B-2 3F.7 ....|--- .... ....
....|..|C-4 AF.F ....|--- .... ....|B-4 4F.F ....
....|..|B-1 2F.A ....|B-2 3F.F ....|--- .... ....
....|..|R-- .... ....|--- .... ....|--- .... ....
....|..|--- .... ....|--- .... ....|--- .... ....
....|..|C-5 VF.F ....|B-2 3F.7 ....|F#5 4F.F ....
..18|..|B-1 2A.F ....|B-2 3F.7 ....|--- .... ....
....|..|C-5 VF.7 ....|--- .... ....|C#5 4F.7 ....
....|..|--- .... ....|B-2 3F.F ....|--- .... ....
....|..|C-4 LF.F ....|B-2 3F.A ....|B-4 4F.F ....
....|..|B-1 2F.A ....|--- .... ....|--- .... ....
....|..|C-5 VF.7 ....|--- .... ....|C#5 4F.A ....
....|..|--- .... ....|B-2 3F.7 ....|--- .... ....
..18|..|B-1 2A.F ....|B-2 3F.F ....|D-5 4F.F ....
....|..|B-1 2F.7 ....|B-2 3F.F ....|--- .... ....
....|..|C-5 VF.F ....|--- .... ....|C#5 4F.F ....
....|..|--- .... ....|--- .... ....|--- .... ....
....|..|C-4 LF.7 ....|B-2 3F.7 ....|B-4 4F.F ....
....|..|B-1 2F.A ....|--- .... ....|--- .... ....
....|..|C-5 VF.F ....|--- .... ....|--- .... ....
....|..|--- .... ....|B-2 3F.F ....|--- .... ....
....|..|C-5 VF.F ....|B-2 3F.7 ....|F#5 4F.F ....
..18|..|B-1 2A.F ....|--- .... ....|--- .... ....
....|..|R-- .... ....|--- .... ....|C#5 4F.7 ....
....|..|--- .... ....|--- .... ....|--- .... ....
....|..|C-4 LF.F ....|B-2 3F.F ....|B-4 4F.F ....
....|..|R-- .... ....|B-2 3F.7 ....|--- .... ....
....|..|C-5 VF.A ....|--- .... ....|C#5 4F.A ....
....|..|--- .... ....|--- .... ....|--- .... ....

[Pattern41]
....|..|C-5 VF.F ....|G-2 3F.F ....|E-5 4F.F ....
..18|..|B-1 2A.F ....|--- .... ....|--- .... ....
....|..|C-5 VF.A ....|--- .... ....|E-4 4F.F ....
....|..|--- .... ....|B-2 3F.7 ....|--- .... ....
....|..|C-4 LF.7 ....|--- .... ....|E-5 4F.F ....
....|..|B-1 2F.A ....|G-2 3F.F ....|--- .... ....
....|..|R-- .... ....|--- .... ....|A-4 4F.F ....
....|..|--- .... ....|--- .... ....|--- .... ....
....|..|C-5 VF.F ....|B-2 3F.7 ....|E-5 4F.F ....
..18|..|B-1 2A.F ....|B-2 3F.7 ....|--- .... ....
....|..|C-5 VF.7 ....|--- .... ....|C#5 4F.7 ....
....|..|--- .... ....|G-2 3F.F ....|--- .... ....
....|..|C-4 LF.F ....|G-2 3F.A ....|F#5 4F.F ....
....|..|B-1 2F.A ....|--- .... ....|--- .... ....
....|..|C-5 VF.7 ....|--- .... ....|E-4 4F.A ....
....|..|--- .... ....|B-2 3F.7 ....|--- .... ....
..18|..|B-1 2A.F ....|G-2 3F.F ....|E-5 4F.F ....
....|..|B-1 2F.7 ....|G-2 3F.F ....|--- .... ....
....|..|C-5 VF.F ....|--- .... ....|E-4 4F.F ....
....|..|--- .... ....|--- .... ....|--- .... ....
....|..|C-4 LF.7 ....|B-2 3F.7 ....|E-5 4F.F ....
....|..|B-1 2F.A ....|--- .... ....|--- .... ....
....|..|C-5 VF.F ....|--- .... ....|A-4 4F.F ....
....|..|--- .... ....|G-2 3F.F ....|--- .... ....
....|..|C-5 VF.F ....|G-2 3F.7 ....|E-5 4F.F ....
..18|..|B-1 2A.F ....|--- .... ....|--- .... ....
....|..|R-- .... ....|--- .... ....|E-4 4F.7 ....
....|..|--- .... ....|--- .... ....|--- .... ....
....|..|C-4 LF.F ....|G-2 3F.F ....|F#5 4F.F ....
....|..|R-- .... ....|G-2 3F.7 ....|--- .... ....
....|..|C-5 VF.A ....|--- .... ....|A-4 4F.7 ....
....|..|--- .... ....|--- .... ....|--- .... ....
....|..|C-5 VF.F ....|A-2 3F.F ....|E-5 4F.F ....
..18|..|B-1 2A.F ....|--- .... ....|--- .... ....
....|..|C-5 VF.A ....|--- .... ....|E-4 4F.F ....
....|..|--- .... ....|G-2 3F.7 ....|--- .... ....
....|..|C-4 AF.F ....|--- .... ....|E-5 4F.F ....
....|..|B-1 2F.A ....|A-2 3F.F ....|--- .... ....
....|..|R-- .... ....|--- .... ....|A-4 4F.F ....
....|..|--- .... ....|--- .... ....|--- .... ....
....|..|C-5 VF.F ....|G-2 3F.7 ....|E-5 4F.F ....
..18|..|B-1 2A.F ....|G-2 3F.7 ....|--- .... ....
....|..|C-5 VF.7 ....|--- .... ....|E-4 4F.7 ....
....|..|--- .... ....|A-2 3F.F ....|--- .... ....
....|..|C-4 LF.F ....|A-2 3F.A ....|F#5 4F.F ....
....|..|B-1 2F.A ....|--- .... ....|--- .... ....
....|..|C-5 VF.7 ....|--- .... ....|A-4 4F.7 ....
....|..|--- .... ....|G-2 3F.7 ....|--- .... ....
..18|..|B-1 2A.F ....|A-2 3F.F ....|E-5 4F.F ....
....|..|B-1 2F.7 ....|A-2 3F.F ....|--- .... ....
....|..|C-5 VF.F ....|--- .... ....|E-4 4F.F ....
....|..|--- .... ....|--- .... ....|--- .... ....
....|..|C-4 LF.7 ....|G-2 3F.7 ....|E-5 4F.F ....
....|..|B-1 2F.A ....|--- .... ....|--- .... ....
....|..|C-5 VF.F ....|--- .... ....|A-4 4F.F ....
....|..|--- .... ....|A-2 3F.F ....|--- .... ....
....|..|C-5 VF.F ....|A-2 3F.7 ....|E-5 4F.F ....
..18|..|B-1 2A.F ....|--- .... ....|--- .... ....
....|..|R-- .... ....|--- .... ....|E-4 4F.7 ....
....|..|--- .... ....|--- .... ....|--- .... ....
....|..|C-4 LF.F ....|A-2 3F.F ....|F#5 4F.F ....
....|..|R-- .... ....|A-2 3F.7 ....|--- .... ....
....|..|C-5 VF.A ....|--- .... ....|A-4 4F.7 ....
....|..|--- .... ....|--- .... ....|--- .... ....

[Pattern42]
....|..|C-5 VF.F ....|E-2 3F.F ....|B-4 4F.F ....
..18|..|B-1 2A.F ....|--- .... ....|--- .... ....
....|..|C-5 VF.A ....|--- .... ....|A-4 4F.A ....
....|..|--- .... ....|A-2 3F.7 ....|--- .... ....
....|..|C-4 LF.7 ....|--- .... ....|B-4 4F.F ....
....|..|B-1 2F.A ....|E-2 3F.F ....|--- .... ....
....|..|R-- .... ....|--- .... ....|--- .... ....
....|..|--- .... ....|--- .... ....|--- .... ....
....|..|C-5 VF.F ....|A-2 3F.7 ....|F#5 4F.F ....
..18|..|B-1 2A.F ....|A-2 3F.7 ....|--- .... ....
....|..|C-5 VF.7 ....|--- .... ....|E-4 4F.7 ....
....|..|--- .... ....|E-2 3F.F ....|--- .... ....
....|..|C-4 LF.F ....|E-2 3F.A ....|B-4 4F.F ....
....|..|B-1 2F.A ....|--- .... ....|--- .... ....
....|..|C-5 VF.7 ....|--- .... ....|A-4 4F.7 ....
....|..|--- .... ....|A-2 3F.7 ....|--- .... ....
..18|..|B-1 2A.F ....|E-2 3F.F ....|D-5 4F.F ....
....|..|B-1 2F.7 ....|E-2 3F.F ....|--- .... ....
....|..|C-5 VF.F ....|--- .... ....|C#5 4F.F ....
....|..|--- .... ....|--- .... ....|--- .... ....
....|..|C-4 LF.7 ....|A-2 3F.7 ....|B-4 4F.F ....
....|..|B-1 2F.A ....|--- .... ....|--- .... ....
....|..|C-5 VF.F ....|--- .... ....|--- .... ....
....|..|--- .... ....|E-2 3F.F ....|--- .... ....
....|..|C-5 VF.F ....|E-2 3F.7 ....|F#5 4F.F ....
..18|..|B-1 2A.F ....|--- .... ....|--- .... ....
....|..|R-- .... ....|--- .... ....|--- .... ....
....|..|--- .... ....|--- .... ....|--- .... ....
....|..|C-4 LF.F ....|E-2 3F.F ....|B-4 4F.F ....
....|..|R-- .... ....|E-2 3F.7 ....|--- .... ....
....|..|C-5 VF.A ....|--- .... ....|C#5 4F.A ....
....|..|--- .... ....|--- .... ....|--- .... ....
....|..|C-5 VF.F ....|E-2 3F.F ....|D-5 4F.F ....
..18|..|B-1 2A.F ....|--- .... ....|--- .... ....
....|..|C-5 VF.A ....|--- .... ....|C#5 4F.F ....
....|..|--- .... ....|E-2 3F.7 ....|--- .... ....
....|..|C-4 AF.F ....|--- .... ....|B-4 4F.F ....
....|..|B-1 2F.A ....|E-2 3F.F ....|--- .... ....
....|..|R-- .... ....|--- .... ....|--- .... ....
....|..|--- .... ....|--- .... ....|--- .... ....
....|..|C-5 VF.F ....|E-2 3F.7 ....|F#5 4F.F ....
..18|..|B-1 2A.F ....|E-2 3F.7 ....|--- .... ....
....|..|C-5 VF.7 ....|--- .... ....|C#5 4F.7 ....
....|..|--- .... ....|E-2 3F.F ....|--- .... ....
....|..|C-4 LF.F ....|E-2 3F.A ....|B-4 4F.F ....
....|..|B-1 2F.A ....|--- .... ....|--- .... ....
....|..|C-5 VF.7 ....|--- .... ....|C#5 4F.A ....
....|..|--- .... ....|E-2 3F.7 ....|--- .... ....
..18|..|B-1 2A.F ....|E-2 3F.F ....|D-5 4F.F ....
....|..|B-1 2F.7 ....|E-2 3F.F ....|--- .... ....
....|..|C-5 VF.F ....|--- .... ....|C#5 4F.F ....
....|..|--- .... ....|--- .... ....|--- .... ....
....|..|C-4 LF.7 ....|E-2 3F.7 ....|B-4 4F.F ....
....|..|B-1 2F.A ....|--- .... ....|--- .... ....
....|..|R-- .... ....|--- .... ....|--- .... ....
....|..|--- .... ....|E-2 3F.F ....|--- .... ....
....|..|C-5 VF.F ....|A-3 3F1F ....|F#5 4F.F ....
..1B|..|A-1 2A.F ....|--- .... ....|--- .... ....
....|..|R-- .... ....|--- .... ....|C#5 4F.7 ....
....|..|--- .... ....|--- .... ....|--- .... ....
....|..|C-4 AF.7 ....|E-2 3F.A ....|B-4 4F.F ....
....|..|R-- .... ....|E-2 3F.7 ....|--- .... ....
....|..|C-5 VF.A ....|--- .... ....|C#5 4F.A ....
....|..|--- .... ....|--- .... ....|--- .... ....

[Pattern48]
....|..|C-4 AF.F ....|B-3 3F1F ....|C#5 4F.F ....
..18|..|B-1 2A.F ....|--- .... ....|--- .... ....
....|..|A-1 2F.7 ....|A#5 3F.A ....|A-3 4F17 ....
....|..|--- .... ....|--- .... ....|--- .... ....
....|..|C-4 AF.F ....|B-3 3F1F ....|A-3 4F17 ....
..18|..|B-1 2A.F ....|--- .... ....|--- .... ....
..18|..|B-1 2A.F ....|B-3 3F1F ....|A-3 4F17 ....
....|..|--- .... ....|--- .... ....|--- .... ....
....|..|C-5 VF.F ....|B-5 3F.7 ....|--- .... ....
....|..|A-1 2F.7 ....|--- .... ....|--- .... ....
..18|..|B-1 2A.F ....|B-3 3F1F ....|A-3 4F17 ....
....|..|--- .... ....|--- .... ....|--- .... ....
....|..|C-4 AF.F ....|A#5 3F.7 ....|C#5 4F.A ....
....|..|A-1 2F.7 ....|--- .... ....|--- .... ....
....|..|C-5 VF.F ....|A#5 3F.7 ....|E-3 4F27 ....
....|..|R-- .... ....|--- .... ....|--- .... ....
....|..|C-3 RF.F ....|E-3 3F2F ....|A#5 4F.F ....
..24|..|E-1 2A.F ....|--- .... ....|--- .... ....
....|..|C-5 VF.F ....|B-5 3F.7 ....|A-3 4F17 ....
....|..|--- .... ....|--- .... ....|R-- .... ....
....|..|C-4 AF.F ....|B-3 3F1F ....|--- .... ....
..18|..|B-1 2A.F ....|--- .... ....|--- .... ....
....|..|A-1 2F.7 ....|A#5 3F.7 ....|B-5 4F.F ....
....|..|--- .... ....|--- .... ....|--- .... ....
....|..|C-5 VF.F ....|E-3 3F1F ....|C#5 4F.7 ....
..24|..|E-1 2A.F ....|--- .... ....|R-- .... ....
....|..|C-5 VF.A ....|R-- .... ....|--- .... ....
....|..|R-- .... ....|--- .... ....|--- .... ....
....|..|C-4 AF.F ....|B-3 3F17 ....|B-5 4F.F ....
....|..|B-1 2F.7 ....|--- .... ....|--- .... ....
....|..|B-1 2F.7 ....|B-3 3F17 ....|R-- .... ....
....|..|--- .... ....|--- .... ....|R-- .... ....
....|..|C-4 AF.F ....|B-3 3F1F ....|C#5 4F.F ....
..18|..|B-1 2A.F ....|--- .... ....|--- .... ....
....|..|B-1 2F.7 ....|B-3 3F17 ....|B-5 4F.A ....
....|..|--- .... ....|--- .... ....|--- .... ....
....|..|C-4 AF.F ....|B-3 3F1F ....|--- .... ....
..18|..|B-1 2A.F ....|--- .... ....|R-- .... ....
..18|..|B-1 2A.F ....|B-3 3F1F ....|--- .... ....
....|..|R-- .... ....|--- .... ....|--- .... ....
....|..|C-5 VF.F ....|E-3 3F27 ....|A#5 4F.7 ....
....|..|E-1 2F.7 ....|--- .... ....|--- .... ....
..18|..|B-1 2A.F ....|B-3 3F1F ....|R-- .... ....
....|..|--- .... ....|--- .... ....|R-- .... ....
....|..|C-4 AF.F ....|B-3 3F17 ....|C#5 4F.A ....
....|..|B-1 2F.7 ....|--- .... ....|--- .... ....
....|..|C-5 VF.F ....|R-- .... ....|B-5 4F.7 ....
....|..|R-- .... ....|--- .... ....|--- .... ....
....|..|C-3 RF.F ....|E-3 3F2F ....|R-- .... ....
..24|..|E-1 2A.F ....|--- .... ....|R-- .... ....
....|..|C-5 VF.F ....|B-3 3F1A ....|--- .... ....
....|..|--- .... ....|--- .... ....|--- .... ....
....|..|C-4 AF.F ....|B-3 3F1F ....|B-5 4F.7 ....
..18|..|B-1 2A.F ....|--- .... ....|--- .... ....
....|..|B-1 2F.A ....|B-3 3F1A ....|R-- .... ....
....|..|--- .... ....|--- .... ....|--- .... ....
....|..|C-5 VF.F ....|B-3 3F17 ....|C#5 4F.7 ....
....|..|B-1 2F.7 ....|--- .... ....|--- .... ....
....|..|C-5 VF.A ....|R-- .... ....|--- .... ....
....|..|R-- .... ....|--- .... ....|--- .... ....
....|..|C-4 AF.F ....|B-3 3F17 ....|R-- .... ....
....|..|B-1 2F.7 ....|--- .... ....|--- .... ....
....|..|B-1 2F.7 ....|B-3 3F17 ....|--- .... ....
....|..|--- .... ....|--- .... ....|--- .... ....

[Pattern49]
....|..|C-4 AF.F ....|B-3 3F1F ....|C#5 4F.F ....
..18|..|B-1 2A.F ....|--- .... ....|--- .... ....
....|..|B-1 2F.7 ....|B-3 3F17 ....|--- .... ....
....|..|--- .... ....|--- .... ....|--- .... ....
....|..|C-4 AF.F ....|B-3 3F1F ....|--- .... ....
..18|..|B-1 2A.F ....|--- .... ....|--- .... ....
..18|..|B-1 2A.F ....|B-3 3F1F ....|--- .... ....
....|..|R-- .... ....|--- .... ....|--- .... ....
....|..|C-5 VF.F ....|E-3 3F27 ....|R-- .... ....
....|..|E-1 2F.7 ....|--- .... ....|--- .... ....
..18|..|B-1 2A.F ....|B-3 3F1F ....|--- .... ....
....|..|--- .... ....|--- .... ....|--- .... ....
....|..|C-4 AF.F ....|B-3 3F17 ....|C#5 4F.A ....
....|..|B-1 2F.7 ....|--- .... ....|--- .... ....
....|..|C-5 VF.F ....|R-- .... ....|--- .... ....
....|..|R-- .... ....|--- .... ....|--- .... ....
....|..|C-3 RF.F ....|E-3 3F2F ....|A#5 4F.F ....
..24|..|E-1 2A.F ....|--- .... ....|--- .... ....
....|..|C-5 VF.F ....|B-3 3F1A ....|--- .... ....
....|..|--- .... ....|--- .... ....|R-- .... ....
....|..|C-4 AF.F ....|B-3 3F1F ....|--- .... ....
..18|..|B-1 2A.F ....|--- .... ....|--- .... ....
....|..|B-1 2F.A ....|B-3 3F1A ....|B-5 4F.F ....
....|..|--- .... ....|--- .... ....|--- .... ....
....|..|C-5 VF.F ....|B-3 3F17 ....|C#5 4F.7 ....
....|..|B-1 2F.7 ....|--- .... ....|R-- .... ....
....|..|C-5 VF.A ....|R-- .... ....|--- .... ....
....|..|R-- .... ....|--- .... ....|--- .... ....
....|..|C-4 AF.F ....|E-3 3F1F ....|B-5 4F.F ....
..24|..|E-1 2A.F ....|--- .... ....|--- .... ....
....|..|B-1 2F.7 ....|B-3 3F17 ....|R-- .... ....
....|..|--- .... ....|--- .... ....|R-- .... ....
....|..|C-4 AF.F ....|B-3 3F1A ....|A-3 4F1F ....
..1B|..|A-1 2A.F ....|--- .... ....|--- .... ....
....|..|B-1 2F.7 ....|B-3 3F17 ....|B-5 4F.A ....
....|..|--- .... ....|--- .... ....|--- .... ....
....|..|C-4 AF.F ....|--- .... ....|--- .... ....
....|..|--- .... ....|--- .... ....|R-- .... ....
..1C|..|G#1 2A.F ....|R-- .... ....|G#3 4F1F ....
....|..|R-- .... ....|--- .... ....|--- .... ....
....|..|C-5 VF.F ....|E-3 3F27 ....|A#5 4F.7 ....
....|..|E-1 2F.7 ....|--- .... ....|--- .... ....
....|..|C-5 VF.7 ....|--- .... ....|R-- .... ....
....|..|--- .... ....|--- .... ....|R-- .... ....
....|..|C-4 AF.F ....|B-3 3F17 ....|G-3 4F1F ....
..1E|..|G-1 2A.F ....|--- .... ....|--- .... ....
....|..|C-5 VF.F ....|--- .... ....|B-5 4F.7 ....
....|..|--- .... ....|--- .... ....|--- .... ....
....|..|C-3 RF.F ....|--- .... ....|--- .... ....
....|..|--- .... ....|--- .... ....|R-- .... ....
....|..|C-5 VF.F ....|--- .... ....|G#3 4F1A ....
....|..|--- .... ....|--- .... ....|--- .... ....
....|..|C-4 AF.F ....|E-3 3F17 ....|F-3 4F1F ....
..22|..|F-1 2A.F ....|--- .... ....|--- .... ....
....|..|R-- .... ....|--- .... ....|R-- .... ....
....|..|--- .... ....|--- .... ....|--- .... ....
....|..|C-5 VF.F ....|R-- .... ....|A-3 4F17 ....
....|..|A-1 2F.7 ....|--- .... ....|--- .... ....
..24|..|E-1 2A.F ....|--- .... ....|E-3 4F1F ....
....|..|--- .... ....|--- .... ....|--- .... ....
....|..|C-4 AF.F ....|--- .... ....|--- .... ....
....|..|--- .... ....|--- .... ....|B-2 4F.F ....
....|..|G#1 2F.7 ....|--- .... ....|G#3 4F17 ....
....|..|--- .... ....|--- .... ....|--- .... ....

[Pattern50]
....|..|C-4 AF.F ....|B-3 3F1F ....|C#5 4F.F ....
..18|..|B-1 2A.F ....|--- .... ....|--- .... ....
....|..|R-- .... ....|--- .... ....|--- .... ....
....|..|--- .... ....|--- .... ....|--- .... ....
....|..|C-4 AF.F ....|B-3 3F1F ....|G-3 4F17 ....
..18|..|B-1 2A.F ....|--- .... ....|--- .... ....
..18|..|B-1 2A.F ....|B-3 3F1F ....|E-3 4F1A ....
....|..|--- .... ....|--- .... ....|--- .... ....
....|..|C-5 VF.F ....|--- .... ....|--- .... ....
....|..|--- .... ....|--- .... ....|B-2 4F.A ....
..18|..|B-1 2A.F ....|B-3 3F1F ....|--- .... ....
....|..|--- .... ....|--- .... ....|--- .... ....
....|..|C-4 AF.F ....|B-3 3F1A ....|F-3 4F17 ....
....|..|F-1 2F.7 ....|--- .... ....|--- .... ....
....|..|C-5 VF.F ....|R-- .... ....|--- .... ....
....|..|R-- .... ....|--- .... ....|--- .... ....
....|..|C-3 RF.F ....|E-3 3F2F ....|A#5 4F.F ....
..24|..|E-1 2A.F ....|--- .... ....|--- .... ....
....|..|C-5 VF.F ....|B-3 3F1A ....|E-3 4F17 ....
....|..|--- .... ....|--- .... ....|R-- .... ....
....|..|C-4 AF.F ....|B-3 3F1F ....|--- .... ....
..18|..|B-1 2A.F ....|--- .... ....|B-2 4F.7 ....
....|..|B-1 2F.A ....|B-3 3F1A ....|B-5 4F.F ....
....|..|--- .... ....|--- .... ....|--- .... ....
....|..|C-5 VF.F ....|E-3 3F1F ....|C#5 4F.7 ....
..24|..|E-1 2A.F ....|--- .... ....|R-- .... ....
....|..|C-5 VF.A ....|R-- .... ....|--- .... ....
....|..|R-- .... ....|--- .... ....|--- .... ....
....|..|C-4 AF.F ....|B-3 3F17 ....|B-5 4F.F ....
....|..|B-1 2F.7 ....|--- .... ....|--- .... ....
....|..|B-1 2F.7 ....|B-3 3F17 ....|R-- .... ....
....|..|--- .... ....|--- .... ....|R-- .... ....
....|..|C-4 AF.F ....|B-3 3F1F ....|C#5 4F.F ....
..18|..|B-1 2A.F ....|--- .... ....|--- .... ....
....|..|B-1 2F.7 ....|B-3 3F17 ....|B-5 4F.A ....
....|..|--- .... ....|--- .... ....|--- .... ....
....|..|C-4 AF.F ....|B-3 3F1F ....|--- .... ....
..18|..|B-1 2A.F ....|--- .... ....|R-- .... ....
..18|..|B-1 2A.F ....|B-3 3F1F ....|--- .... ....
....|..|R-- .... ....|--- .... ....|--- .... ....
....|..|C-5 VF.F ....|E-3 3F27 ....|A#5 4F.7 ....
....|..|E-1 2F.7 ....|--- .... ....|--- .... ....
..18|..|B-1 2A.F ....|B-3 3F1F ....|R-- .... ....
....|..|--- .... ....|--- .... ....|R-- .... ....
....|..|C-4 AF.F ....|B-3 3F17 ....|C#5 4F.A ....
....|..|B-1 2F.7 ....|--- .... ....|--- .... ....
....|..|C-5 VF.F ....|R-- .... ....|B-5 4F.7 ....
....|..|R-- .... ....|--- .... ....|--- .... ....
....|..|C-3 RF.F ....|E-3 3F2F ....|R-- .... ....
..24|..|E-1 2A.F ....|--- .... ....|R-- .... ....
....|..|C-5 VF.F ....|B-3 3F1A ....|--- .... ....
....|..|--- .... ....|--- .... ....|--- .... ....
....|..|C-4 AF.F ....|B-3 3F1F ....|B-5 4F.7 ....
..18|..|B-1 2A.F ....|--- .... ....|--- .... ....
....|..|B-1 2F.A ....|B-3 3F1A ....|R-- .... ....
....|..|--- .... ....|--- .... ....|--- .... ....
....|..|C-5 VF.F ....|B-3 3F17 ....|C#5 4F.7 ....
....|..|B-1 2F.7 ....|--- .... ....|--- .... ....
....|..|C-5 VF.A ....|R-- .... ....|--- .... ....
....|..|R-- .... ....|--- .... ....|--- .... ....
....|..|C-4 AF.F ....|B-3 3F17 ....|R-- .... ....
....|..|B-1 2F.7 ....|--- .... ....|--- .... ....
....|..|B-1 2F.7 ....|B-3 3F17 ....|--- .... ....
....|..|--- .... ....|--- .... ....|--- .... ....

[Pattern51]
....|..|C-4 AF.F ....|B-3 3F1F ....|C#5 4F.F ....
..18|..|B-1 2A.F ....|--- .... ....|--- .... ....
....|..|B-1 2F.7 ....|B-3 3F17 ....|--- .... ....
....|..|--- .... ....|--- .... ....|--- .... ....
....|..|C-4 AF.F ....|B-3 3F1F ....|--- .... ....
..18|..|B-1 2A.F ....|--- .... ....|--- .... ....
..18|..|B-1 2A.F ....|B-3 3F1F ....|--- .... ....
....|..|R-- .... ....|--- .... ....|--- .... ....
....|..|C-5 VF.F ....|E-3 3F27 ....|R-- .... ....
....|..|E-1 2F.7 ....|--- .... ....|--- .... ....
..18|..|B-1 2A.F ....|B-3 3F1F ....|--- .... ....
....|..|--- .... ....|--- .... ....|--- .... ....
....|..|C-4 AF.F ....|B-3 3F17 ....|C#5 4F.A ....
....|..|B-1 2F.7 ....|--- .... ....|--- .... ....
....|..|C-5 VF.F ....|R-- .... ....|--- .... ....
....|..|R-- .... ....|--- .... ....|--- .... ....
....|..|C-3 RF.F ....|E-3 3F2F ....|A#5 4F.F ....
..24|..|E-1 2A.F ....|--- .... ....|--- .... ....
....|..|C-5 VF.F ....|B-3 3F1A ....|--- .... ....
....|..|--- .... ....|--- .... ....|R-- .... ....
....|..|C-4 AF.F ....|B-3 3F1F ....|--- .... ....
..18|..|B-1 2A.F ....|--- .... ....|--- .... ....
....|..|B-1 2F.A ....|B-3 3F1A ....|B-5 4F.F ....
....|..|--- .... ....|--- .... ....|--- .... ....
....|..|C-5 VF.F ....|B-3 3F17 ....|C#5 4F.7 ....
....|..|B-1 2F.7 ....|--- .... ....|R-- .... ....
....|..|C-5 VF.A ....|R-- .... ....|--- .... ....
....|..|R-- .... ....|--- .... ....|--- .... ....
....|..|C-4 AF.F ....|E-3 3F1F ....|B-5 4F.F ....
..24|..|E-1 2A.F ....|--- .... ....|--- .... ....
....|..|B-1 2F.7 ....|B-3 3F17 ....|R-- .... ....
....|..|--- .... ....|--- .... ....|R-- .... ....
....|..|C-4 AF.F ....|B-3 3F1F ....|C#5 4F.F ....
..18|..|B-1 2A.F ....|--- .... ....|--- .... ....
....|..|B-1 2F.7 ....|B-3 3F17 ....|B-5 4F.A ....
....|..|--- .... ....|--- .... ....|--- .... ....
....|..|C-4 AF.F ....|B-3 3F1F ....|--- .... ....
..18|..|B-1 2A.F ....|--- .... ....|R-- .... ....
..18|..|B-1 2A.F ....|B-3 3F1F ....|--- .... ....
....|..|R-- .... ....|--- .... ....|--- .... ....
....|..|C-5 VF.F ....|E-3 3F27 ....|A#5 4F.7 ....
....|..|E-1 2F.7 ....|--- .... ....|--- .... ....
..18|..|B-1 2A.F ....|B-3 3F1F ....|R-- .... ....
....|..|--- .... ....|--- .... ....|R-- .... ....
....|..|C-4 AF.F ....|B-3 3F17 ....|C#5 4F.A ....
....|..|B-1 2F.7 ....|--- .... ....|--- .... ....
....|..|C-5 VF.F ....|R-- .... ....|B-5 4F.7 ....
....|..|R-- .... ....|--- .... ....|--- .... ....
....|..|C-3 RF.F ....|E-3 3F2F ....|R-- .... ....
..24|..|E-1 2A.F ....|--- .... ....|R-- .... ....
....|..|C-5 VF.F ....|B-3 3F1A ....|--- .... ....
....|..|--- .... ....|--- .... ....|--- .... ....
....|..|C-4 AF.F ....|B-3 3F1F ....|B-5 4F.7 ....
..18|..|B-1 2A.F ....|--- .... ....|--- .... ....
....|..|B-1 2F.A ....|B-3 3F1A ....|R-- .... ....
....|..|--- .... ....|--- .... ....|--- .... ....
....|..|C-5 VF.F ....|B-3 3F17 ....|C#5 4F.7 ....
....|..|B-1 2F.7 ....|--- .... ....|--- .... ....
....|..|C-5 VF.A ....|R-- .... ....|--- .... ....
....|..|R-- .... ....|--- .... ....|--- .... ....
....|..|C-4 AF.F ....|B-3 3F17 ....|R-- .... ....
....|..|B-1 2F.7 ....|--- .... ....|--- .... ....
....|..|B-1 2F.7 ....|B-3 3F17 ....|--- .... ....
....|..|--- .... ....|--- .... ....|--- .... ....

[Pattern52]
..1B|..|A-1 2A.F ....|B-3 3F1A ....|A-3 4F1F ....
....|..|B-1 2F.A ....|--- .... ....|--- .... ....
....|..|B-1 2F.7 ....|B-3 3F17 ....|--- .... ....
....|..|--- .... ....|--- .... ....|--- .... ....
....|..|C-4 AF.7 ....|--- .... ....|--- .... ....
....|..|--- .... ....|--- .... ....|--- .... ....
..1C|..|G#1 2A.F ....|R-- .... ....|G#3 4F1F ....
....|..|R-- .... ....|--- .... ....|--- .... ....
....|..|C-3 RF.7 ....|E-3 3F27 ....|R-- .... ....
....|..|E-1 2F.7 ....|--- .... ....|--- .... ....
....|..|C-5 VF.7 ....|--- .... ....|--- .... ....
....|..|--- .... ....|--- .... ....|--- .... ....
..1E|..|G-1 2A.F ....|B-3 3F17 ....|G-3 4F1F ....
....|..|B-1 2F.7 ....|--- .... ....|--- .... ....
....|..|--- .... ....|--- .... ....|--- .... ....
....|..|--- .... ....|--- .... ....|--- .... ....
....|..|C-5 VF.7 ....|--- .... ....|--- .... ....
....|..|--- .... ....|--- .... ....|--- .... ....
....|..|G#1 2F.A ....|--- .... ....|G#3 4F1A ....
....|..|--- .... ....|--- .... ....|--- .... ....
..22|..|F-1 2A.F ....|R-- .... ....|F-3 4F1F ....
....|..|R-- .... ....|--- .... ....|--- .... ....
....|..|--- .... ....|--- .... ....|--- .... ....
....|..|--- .... ....|--- .... ....|--- .... ....
....|..|A-1 2F.7 ....|--- .... ....|A-3 4F17 ....
....|..|--- .... ....|--- .... ....|--- .... ....
..24|..|E-1 2A.F ....|--- .... ....|E-3 4F1F ....
....|..|--- .... ....|--- .... ....|--- .... ....
....|..|--- .... ....|--- .... ....|--- .... ....
....|..|--- .... ....|--- .... ....|--- .... ....
....|..|G#1 2F.7 ....|--- .... ....|G#3 4F17 ....
....|..|--- .... ....|--- .... ....|--- .... ....
..1B|..|A-1 2A.F ....|--- .... ....|A-3 4F1F ....
....|..|--- .... ....|--- .... ....|--- .... ....
....|..|--- .... ....|--- .... ....|--- .... ....
....|..|--- .... ....|--- .... ....|--- .... ....
....|..|G-1 2F.7 ....|--- .... ....|G-3 4F17 ....
....|..|--- .... ....|--- .... ....|--- .... ....
..1C|..|G#1 2A.F ....|--- .... ....|G#3 4F1F ....
....|..|--- .... ....|--- .... ....|--- .... ....
....|..|--- .... ....|--- .... ....|--- .... ....
....|..|--- .... ....|--- .... ....|--- .... ....
....|..|--- .... ....|--- .... ....|--- .... ....
....|..|--- .... ....|--- .... ....|--- .... ....
..1E|..|G-1 2A.F ....|--- .... ....|G-3 4F1F ....
....|..|--- .... ....|--- .... ....|--- .... ....
....|..|--- .... ....|--- .... ....|--- .... ....
....|..|--- .... ....|--- .... ....|--- .... ....
..24|..|E-1 2A.F ....|--- .... ....|--- .... ....
....|..|--- .... ....|--- .... ....|--- .... ....
..24|..|E-1 2A.F ....|--- .... ....|E-3 4F17 ....
....|..|--- .... ....|--- .... ....|--- .... ....
..24|..|E-1 2A.F ....|--- .... ....|F-3 4F1F ....
....|..|--- .... ....|--- .... ....|--- .... ....
..24|..|E-1 2A.F ....|--- .... ....|--- .... ....
....|..|--- .... ....|--- .... ....|--- .... ....
..12|..|E-2 2A.F ....|--- .... ....|A-3 4F17 ....
....|..|--- .... ....|--- .... ....|--- .... ....
....|..|C-5 VF.F ....|--- .... ....|E-3 4F1F ....
....|..|--- .... ....|--- .... ....|--- .... ....
..1B|..|A-1 2A.F ....|--- .... ....|--- .... ....
....|..|--- .... ....|--- .... ....|--- .... ....
....|..|G#1 2F.7 ....|--- .... ....|G#3 4F17 ....
....|..|--- .... ....|--- .... ....|--- .... ....

[Pattern53]
....|..|C-4 AF.F ....|A-3 3F1F ....|A-3 4F1F ....
..1B|..|A-1 2A.F ....|--- .... ....|--- .... ....
....|..|E-1 2F.A ....|--- .... ....|--- .... ....
....|..|--- .... ....|--- .... ....|--- .... ....
....|..|C-4 AF.F ....|--- .... ....|G-3 4F17 ....
....|..|--- .... ....|--- .... ....|--- .... ....
..1C|..|G#1 2A.F ....|G#3 3F1F ....|G#3 4F1F ....
....|..|--- .... ....|--- .... ....|--- .... ....
....|..|C-5 VF.F ....|--- .... ....|--- .... ....
....|..|--- .... ....|--- .... ....|--- .... ....
....|..|E-1 2F.7 ....|--- .... ....|--- .... ....
....|..|--- .... ....|--- .... ....|--- .... ....
....|..|C-4 AF.F ....|G-3 3F1F ....|G-3 4F1F ....
..1E|..|G-1 2A.F ....|--- .... ....|--- .... ....
....|..|E-1 2F.7 ....|--- .... ....|--- .... ....
....|..|--- .... ....|--- .... ....|--- .... ....
....|..|C-3 RF.F ....|--- .... ....|--- .... ....
....|..|--- .... ....|--- .... ....|--- .... ....
....|..|C-3 RF.F ....|G#3 3F1A ....|E-3 4F17 ....
....|..|--- .... ....|--- .... ....|--- .... ....
....|..|C-4 AF.F ....|F-3 3F1F ....|F-3 4F1F ....
..22|..|F-1 2A.F ....|--- .... ....|--- .... ....
....|..|R-- .... ....|--- .... ....|--- .... ....
....|..|--- .... ....|--- .... ....|--- .... ....
....|..|C-5 VF.F ....|A-3 3F17 ....|A-3 4F17 ....
....|..|A-1 2F.7 ....|--- .... ....|--- .... ....
..24|..|E-1 2A.F ....|E-3 3F1F ....|E-3 4F1F ....
....|..|--- .... ....|--- .... ....|--- .... ....
....|..|C-4 AF.F ....|--- .... ....|--- .... ....
....|..|--- .... ....|--- .... ....|--- .... ....
....|..|G#1 2F.7 ....|G#3 3F17 ....|G#3 4F17 ....
....|..|--- .... ....|--- .... ....|--- .... ....
....|..|C-4 AF.F ....|A-3 3F1F ....|A-3 4F1F ....
..1B|..|A-1 2A.F ....|--- .... ....|--- .... ....
....|..|R-- .... ....|--- .... ....|--- .... ....
....|..|--- .... ....|--- .... ....|--- .... ....
....|..|C-4 AF.7 ....|G-3 3F17 ....|G-3 4F17 ....
....|..|G-1 2F.7 ....|--- .... ....|--- .... ....
....|..|C-4 AF.F ....|G#3 3F1F ....|G#3 4F1F ....
..1C|..|G#1 2A.F ....|--- .... ....|--- .... ....
....|..|C-5 VF.F ....|--- .... ....|--- .... ....
....|..|--- .... ....|--- .... ....|--- .... ....
....|..|C-3 RF.7 ....|--- .... ....|--- .... ....
....|..|--- .... ....|--- .... ....|--- .... ....
....|..|C-4 AF.F ....|G-3 3F1F ....|G-3 4F1F ....
..1E|..|G-1 2A.F ....|--- .... ....|--- .... ....
....|..|R-- .... ....|--- .... ....|--- .... ....
....|..|--- .... ....|--- .... ....|--- .... ....
....|..|C-3 RF.F ....|--- .... ....|--- .... ....
....|..|--- .... ....|--- .... ....|--- .... ....
....|..|C-3 RF.F ....|E-3 3F17 ....|E-3 4F17 ....
....|..|G#1 2F.A ....|--- .... ....|--- .... ....
....|..|C-4 AF.F ....|F-3 3F1F ....|F-3 4F1F ....
..22|..|F-1 2A.F ....|--- .... ....|--- .... ....
....|..|R-- .... ....|--- .... ....|--- .... ....
....|..|--- .... ....|--- .... ....|--- .... ....
....|..|C-5 VF.F ....|A-3 3F17 ....|A-3 4F17 ....
....|..|A-1 2F.7 ....|--- .... ....|--- .... ....
..24|..|E-1 2A.F ....|E-3 3F1F ....|E-3 4F1F ....
....|..|--- .... ....|--- .... ....|--- .... ....
....|..|C-4 AF.F ....|--- .... ....|--- .... ....
....|..|--- .... ....|--- .... ....|--- .... ....
....|..|C-4 AF.7 ....|G#3 3F17 ....|G#3 4F17 ....
....|..|G#1 2F.7 ....|--- .... ....|--- .... ....

[Pattern54]
....|..|C-4 AF.F ....|A-3 3F1F ....|A-3 4F1F ....
..1B|..|A-1 2A.F ....|--- .... ....|--- .... ....
....|..|R-- .... ....|--- .... ....|--- .... ....
....|..|--- .... ....|--- .... ....|--- .... ....
....|..|C-4 AF.7 ....|G-3 3F17 ....|G-3 4F17 ....
....|..|G-1 2F.7 ....|--- .... ....|--- .... ....
....|..|C-4 AF.F ....|G#3 3F1F ....|G#3 4F1F ....
..1C|..|G#1 2A.F ....|--- .... ....|--- .... ....
....|..|C-5 VF.F ....|--- .... ....|--- .... ....
....|..|--- .... ....|--- .... ....|--- .... ....
....|..|C-3 RF.7 ....|--- .... ....|--- .... ....
....|..|--- .... ....|--- .... ....|--- .... ....
....|..|C-4 AF.F ....|G-3 3F1F ....|G-3 4F1F ....
..1E|..|G-1 2A.F ....|--- .... ....|--- .... ....
....|..|R-- .... ....|--- .... ....|--- .... ....
....|..|--- .... ....|--- .... ....|--- .... ....
....|..|C-3 RF.F ....|--- .... ....|--- .... ....
....|..|--- .... ....|--- .... ....|--- .... ....
....|..|C-3 RF.F ....|E-3 3F17 ....|E-3 4F17 ....
....|..|G#1 2F.A ....|--- .... ....|--- .... ....
....|..|C-4 AF.F ....|F-3 3F1F ....|F-3 4F1F ....
..22|..|F-1 2A.F ....|--- .... ....|--- .... ....
....|..|R-- .... ....|--- .... ....|--- .... ....
....|..|--- .... ....|--- .... ....|--- .... ....
....|..|C-5 VF.F ....|A-3 3F17 ....|A-3 4F17 ....
....|..|A-1 2F.7 ....|--- .... ....|--- .... ....
..24|..|E-1 2A.F ....|E-3 3F1F ....|E-3 4F1F ....
....|..|--- .... ....|--- .... ....|--- .... ....
....|..|C-4 AF.F ....|--- .... ....|--- .... ....
....|..|--- .... ....|B-2 3F.F ....|B-2 4F.F ....
....|..|C-4 AF.7 ....|G#3 3F17 ....|G#3 4F17 ....
....|..|G#1 2F.7 ....|--- .... ....|--- .... ....
....|..|C-4 AF.F ....|A-3 3F1F ....|A-3 4F1F ....
..1B|..|A-1 2A.F ....|--- .... ....|--- .... ....
....|..|R-- .... ....|--- .... ....|--- .... ....
....|..|--- .... ....|--- .... ....|--- .... ....
....|..|C-4 AF.F ....|G-3 3F17 ....|G-3 4F17 ....
....|..|G-1 2F.7 ....|--- .... ....|--- .... ....
..1C|..|G#1 2A.F ....|G#3 3F1F ....|G#3 4F1F ....
....|..|--- .... ....|--- .... ....|--- .... ....
....|..|C-5 VF.F ....|--- .... ....|--- .... ....
....|..|--- .... ....|B-2 3F.A ....|B-2 4F.A ....
....|..|C-3 RF.7 ....|--- .... ....|--- .... ....
....|..|--- .... ....|--- .... ....|--- .... ....
....|..|C-4 AF.F ....|G-3 3F1F ....|G-3 4F1F ....
..1E|..|G-1 2A.F ....|--- .... ....|--- .... ....
....|..|C-5 VF.F ....|--- .... ....|--- .... ....
....|..|--- .... ....|--- .... ....|--- .... ....
....|..|C-3 RF.F ....|A-3 3F3F ....|A-3 4F3F ....
..24|..|E-1 2A.F ....|--- .... ....|--- .... ....
....|..|C-5 VF.F ....|E-3 3F3F ....|E-3 4F3F ....
..24|..|E-1 2A.F ....|--- .... ....|--- .... ....
....|..|C-4 AF.F ....|A-3 3F3F ....|A-3 4F3F ....
..24|..|E-1 2A.F ....|B-2 3F.7 ....|B-2 4F.7 ....
..24|..|E-1 2A.F ....|E-3 3F3F ....|E-3 4F3F ....
....|..|--- .... ....|--- .... ....|--- .... ....
....|..|C-5 VF.F ....|E-3 3F.F ....|E-3 4F.F ....
..12|..|E-2 2A.F ....|--- .... ....|--- .... ....
....|..|C-5 VF.A ....|--- .... ....|--- .... ....
....|..|--- .... ....|--- .... ....|--- .... ....
....|..|C-4 AF.F ....|A-2 3F.F ....|A-2 4F.F ....
..1B|..|A-1 2A.F ....|--- .... ....|--- .... ....
....|..|G#1 2F.7 ....|G#3 3F17 ....|G#3 4F17 ....
....|..|E-1 2F.A ....|--- .... ....|--- .... ....

[Pattern55]
....|..|C-4 AF.F ....|A-3 3F1F ....|A-3 4F1F ....
..1B|..|A-1 2A.F ....|--- .... ....|--- .... ....
....|..|E-1 2F.A ....|E-3 3F3A ....|E-3 4F3A ....
....|..|--- .... ....|--- .... ....|--- .... ....
....|..|C-4 AF.F ....|G-3 3F17 ....|G-3 4F17 ....
....|..|G-1 2F.7 ....|--- .... ....|--- .... ....
..1C|..|G#1 2A.F ....|G#3 3F1F ....|G#3 4F1F ....
....|..|--- .... ....|--- .... ....|--- .... ....
....|..|C-5 VF.F ....|A-3 3F37 ....|A-3 4F37 ....
....|..|E-1 2F.7 ....|--- .... ....|--- .... ....
....|..|C-5 VF.7 ....|E-3 3F37 ....|E-3 4F37 ....
....|..|E-1 2F.7 ....|--- .... ....|--- .... ....
....|..|C-4 AF.F ....|G-3 3F1F ....|G-3 4F1F ....
..1E|..|G-1 2A.F ....|--- .... ....|--- .... ....
....|..|E-1 2F.7 ....|E-3 3F37 ....|E-3 4F37 ....
....|..|--- .... ....|--- .... ....|--- .... ....
....|..|C-3 RF.F ....|E-3 3F.7 ....|E-3 4F.7 ....
....|..|E-2 2F.7 ....|--- .... ....|--- .... ....
....|..|C-3 RF.F ....|G#3 3F1A ....|G#3 4F1A ....
....|..|--- .... ....|--- .... ....|--- .... ....
....|..|C-4 AF.F ....|F-3 3F1F ....|F-3 4F1F ....
..22|..|F-1 2A.F ....|--- .... ....|--- .... ....
....|..|R-- .... ....|--- .... ....|--- .... ....
....|..|--- .... ....|--- .... ....|--- .... ....
....|..|C-5 VF.F ....|A-3 3F17 ....|A-3 4F17 ....
....|..|A-1 2F.7 ....|--- .... ....|--- .... ....
..24|..|E-1 2A.F ....|E-3 3F1F ....|E-3 4F1F ....
....|..|--- .... ....|--- .... ....|--- .... ....
....|..|C-4 AF.F ....|--- .... ....|--- .... ....
....|..|--- .... ....|--- .... ....|--- .... ....
....|..|G#1 2F.7 ....|G#3 3F17 ....|G#3 4F17 ....
....|..|--- .... ....|--- .... ....|--- .... ....
....|..|C-4 AF.F ....|A-3 3F1F ....|A-3 4F1F ....
..1B|..|A-1 2A.F ....|--- .... ....|--- .... ....
....|..|R-- .... ....|--- .... ....|--- .... ....
....|..|--- .... ....|--- .... ....|--- .... ....
....|..|C-4 AF.7 ....|G-3 3F17 ....|G-3 4F17 ....
....|..|G-1 2F.7 ....|--- .... ....|--- .... ....
....|..|C-4 AF.F ....|G#3 3F1F ....|G#3 4F1F ....
..1C|..|G#1 2A.F ....|--- .... ....|--- .... ....
....|..|C-5 VF.F ....|--- .... ....|--- .... ....
....|..|--- .... ....|--- .... ....|--- .... ....
....|..|C-3 RF.7 ....|--- .... ....|--- .... ....
....|..|--- .... ....|--- .... ....|--- .... ....
....|..|C-4 AF.F ....|G-3 3F1F ....|G-3 4F1F ....
..1E|..|G-1 2A.F ....|--- .... ....|--- .... ....
....|..|R-- .... ....|--- .... ....|--- .... ....
....|..|--- .... ....|--- .... ....|--- .... ....
....|..|C-3 RF.F ....|--- .... ....|--- .... ....
....|..|--- .... ....|--- .... ....|--- .... ....
....|..|C-3 RF.F ....|E-3 3F17 ....|E-3 4F17 ....
....|..|G#1 2F.A ....|--- .... ....|--- .... ....
....|..|C-4 AF.F ....|F-3 3F1F ....|F-3 4F1F ....
..22|..|F-1 2A.F ....|--- .... ....|--- .... ....
....|..|R-- .... ....|--- .... ....|--- .... ....
....|..|--- .... ....|--- .... ....|--- .... ....
....|..|C-5 VF.F ....|A-3 3F17 ....|A-3 4F17 ....
....|..|A-1 2F.7 ....|--- .... ....|--- .... ....
..24|..|E-1 2A.F ....|E-3 3F1F ....|E-3 4F1F ....
....|..|--- .... ....|--- .... ....|--- .... ....
....|..|C-4 AF.F ....|--- .... ....|--- .... ....
....|..|--- .... ....|--- .... ....|--- .... ....
....|..|C-4 AF.7 ....|G#3 3F17 ....|G#3 4F17 ....
....|..|G#1 2F.7 ....|--- .... ....|--- .... ....

[Pattern56]
....|..|C-4 AF.F ....|A-3 3F1F ....|A-3 4F1F ....
..1B|..|A-1 2A.F ....|--- .... ....|--- .... ....
....|..|R-- .... ....|--- .... ....|--- .... ....
....|..|--- .... ....|--- .... ....|--- .... ....
....|..|C-4 AF.7 ....|G-3 3F17 ....|G-3 4F17 ....
....|..|G-1 2F.7 ....|--- .... ....|--- .... ....
....|..|C-4 AF.F ....|G#3 3F1F ....|G#3 4F1F ....
..1C|..|G#1 2A.F ....|--- .... ....|--- .... ....
....|..|C-3 RF.7 ....|--- .... ....|--- .... ....
....|..|--- .... ....|--- .... ....|--- .... ....
....|..|C-3 RF.7 ....|--- .... ....|--- .... ....
....|..|--- .... ....|--- .... ....|--- .... ....
....|..|C-4 AF.F ....|G-3 3F1F ....|G-3 4F1F ....
..1E|..|G-1 2A.F ....|--- .... ....|--- .... ....
....|..|R-- .... ....|--- .... ....|--- .... ....
....|..|--- .... ....|--- .... ....|--- .... ....
....|..|C-5 VF.7 ....|--- .... ....|--- .... ....
....|..|--- .... ....|--- .... ....|--- .... ....
....|..|E-1 2F.7 ....|E-3 3F17 ....|E-3 4F17 ....
....|..|G#1 2F.A ....|--- .... ....|--- .... ....
....|..|C-4 AF.F ....|F-3 3F1F ....|F-3 4F1F ....
..22|..|F-1 2A.F ....|--- .... ....|--- .... ....
....|..|R-- .... ....|--- .... ....|--- .... ....
....|..|--- .... ....|--- .... ....|--- .... ....
....|..|C-4 AF.7 ....|A-3 3F17 ....|A-3 4F17 ....
....|..|A-1 2F.7 ....|--- .... ....|--- .... ....
....|..|C-4 AF.F ....|E-3 3F1F ....|E-3 4F1F ....
..24|..|E-1 2A.F ....|--- .... ....|--- .... ....
....|..|--- .... ....|--- .... ....|--- .... ....
....|..|--- .... ....|--- .... ....|--- .... ....
....|..|C-4 AF.7 ....|G#3 3F17 ....|G#3 4F17 ....
....|..|G#1 2F.7 ....|--- .... ....|--- .... ....
....|..|C-4 AF.F ....|A-3 3F1F ....|A-3 4F1F ....
..1B|..|A-1 2A.F ....|--- .... ....|--- .... ....
....|..|--- .... ....|--- .... ....|--- .... ....
....|..|--- .... ....|--- .... ....|--- .... ....
....|..|C-4 AF.7 ....|G-3 3F17 ....|G-3 4F17 ....
....|..|G-1 2F.7 ....|--- .... ....|--- .... ....
....|..|C-4 AF.F ....|G#3 3F1F ....|G#3 4F1F ....
..1C|..|G#1 2A.F ....|--- .... ....|--- .... ....
....|..|--- .... ....|--- .... ....|--- .... ....
....|..|--- .... ....|--- .... ....|--- .... ....
....|..|--- .... ....|--- .... ....|--- .... ....
....|..|--- .... ....|--- .... ....|--- .... ....
....|..|C-4 AF.F ....|G-3 3F1F ....|G-3 4F1F ....
..1E|..|G-1 2A.F ....|--- .... ....|--- .... ....
....|..|--- .... ....|--- .... ....|--- .... ....
....|..|--- .... ....|--- .... ....|--- .... ....
..24|..|E-1 2A.F ....|A-3 3F3F ....|A-3 4F3F ....
....|..|--- .... ....|--- .... ....|--- .... ....
....|..|C-4 AF.F ....|E-3 3F3F ....|E-3 4F3F ....
..24|..|E-1 2A.F ....|--- .... ....|--- .... ....
....|..|C-4 AF.F ....|A-3 3F3F ....|A-3 4F3F ....
..24|..|E-1 2A.F ....|--- .... ....|--- .... ....
....|..|C-4 AF.F ....|E-3 3F3F ....|E-3 4F3F ....
..24|..|E-1 2A.F ....|--- .... ....|--- .... ....
....|..|C-5 VF.F ....|E-3 3F.F ....|E-3 4F.F ....
..12|..|E-2 2A.F ....|--- .... ....|--- .... ....
....|..|--- .... ....|--- .... ....|--- .... ....
....|..|--- .... ....|--- .... ....|--- .... ....
....|..|C-4 AF.F ....|A-2 3F.F ....|A-2 4F.F ....
..1B|..|A-1 2A.F ....|--- .... ....|--- .... ....
....|..|C-4 AF.7 ....|G#3 3F17 ....|G#3 4F17 ....
....|..|G#1 2F.7 ....|--- .... ....|--- .... ....

[Pattern57]
....|..|C-4 AF.F ....|A-3 3F1F ....|A-3 4F1F ....
..1B|..|A-1 2A.F ....|--- .... ....|--- .... ....
....|..|C-4 AF.A ....|E-3 3F3A ....|E-3 4F3A ....
....|..|E-1 2F.A ....|--- .... ....|--- .... ....
....|..|C-4 AF.F ....|G-3 3F17 ....|G-3 4F17 ....
....|..|G-1 2F.7 ....|--- .... ....|--- .... ....
..1C|..|G#1 2A.F ....|G#3 3F1F ....|G#3 4F1F ....
....|..|--- .... ....|--- .... ....|--- .... ....
....|..|C-5 VF.F ....|A-3 3F37 ....|A-3 4F37 ....
....|..|A-1 2F.A ....|--- .... ....|--- .... ....
....|..|C-4 AF.7 ....|E-3 3F37 ....|E-3 4F37 ....
....|..|E-1 2F.7 ....|--- .... ....|--- .... ....
....|..|C-4 AF.F ....|G-3 3F1F ....|G-3 4F1F ....
..1E|..|G-1 2A.F ....|--- .... ....|--- .... ....
....|..|C-4 AF.7 ....|E-3 3F37 ....|E-3 4F37 ....
....|..|E-1 2F.7 ....|--- .... ....|--- .... ....
....|..|C-3 RF.F ....|E-3 3F.7 ....|E-3 4F.7 ....
....|..|E-2 2F.7 ....|--- .... ....|--- .... ....
....|..|C-3 RF.F ....|G#3 3F1A ....|G#3 4F1A ....
....|..|--- .... ....|--- .... ....|--- .... ....
....|..|C-4 AF.F ....|F-3 3F1F ....|F-3 4F1F ....
..22|..|F-1 2A.F ....|--- .... ....|--- .... ....
....|..|R-- .... ....|--- .... ....|--- .... ....
....|..|--- .... ....|--- .... ....|--- .... ....
....|..|C-5 VF.F ....|A-3 3F17 ....|A-3 4F17 ....
....|..|A-1 2F.7 ....|--- .... ....|--- .... ....
..24|..|E-1 2A.F ....|E-3 3F1F ....|E-3 4F1F ....
....|..|--- .... ....|--- .... ....|--- .... ....
....|..|C-4 AF.F ....|--- .... ....|--- .... ....
....|..|--- .... ....|--- .... ....|--- .... ....
....|..|G#1 2F.7 ....|G#3 3F17 ....|G#3 4F17 ....
....|..|--- .... ....|--- .... ....|--- .... ....
....|..|C-4 AF.F ....|A-3 3F1F ....|A-3 4F1F ....
..1B|..|A-1 2A.F ....|--- .... ....|--- .... ....
....|..|R-- .... ....|--- .... ....|--- .... ....
....|..|--- .... ....|--- .... ....|--- .... ....
....|..|C-4 AF.7 ....|G-3 3F17 ....|G-3 4F17 ....
....|..|G-1 2F.7 ....|--- .... ....|--- .... ....
....|..|C-4 AF.F ....|G#3 3F1F ....|G#3 4F1F ....
..1C|..|G#1 2A.F ....|--- .... ....|--- .... ....
....|..|C-5 VF.F ....|--- .... ....|--- .... ....
....|..|--- .... ....|--- .... ....|--- .... ....
....|..|C-3 RF.7 ....|--- .... ....|--- .... ....
....|..|--- .... ....|--- .... ....|--- .... ....
....|..|C-4 AF.F ....|G-3 3F1F ....|G-3 4F1F ....
..1E|..|G-1 2A.F ....|--- .... ....|--- .... ....
....|..|R-- .... ....|--- .... ....|--- .... ....
....|..|--- .... ....|--- .... ....|--- .... ....
....|..|C-3 RF.F ....|--- .... ....|--- .... ....
....|..|--- .... ....|--- .... ....|--- .... ....
....|..|C-3 RF.F ....|E-3 3F17 ....|E-3 4F17 ....
....|..|G#1 2F.A ....|--- .... ....|--- .... ....
....|..|C-4 AF.F ....|F-3 3F1F ....|F-3 4F1F ....
..22|..|F-1 2A.F ....|--- .... ....|--- .... ....
....|..|R-- .... ....|--- .... ....|--- .... ....
....|..|--- .... ....|--- .... ....|--- .... ....
....|..|C-5 VF.F ....|A-3 3F17 ....|A-3 4F17 ....
....|..|A-1 2F.7 ....|--- .... ....|--- .... ....
..24|..|E-1 2A.F ....|E-3 3F1F ....|E-3 4F1F ....
....|..|--- .... ....|--- .... ....|--- .... ....
....|..|C-4 AF.F ....|--- .... ....|--- .... ....
....|..|--- .... ....|--- .... ....|--- .... ....
....|..|C-4 AF.7 ....|G#3 3F17 ....|G#3 4F17 ....
....|..|G#1 2F.7 ....|--- .... ....|--- .... ....

[Pattern59]
....|..|C-4 AF.A ....|A-3 3F3A ....|F#5 5F.F ....
....|..|E-1 2F.A ....|--- .... ....|--- .... ....
....|..|C-4 AF.A ....|E-3 3F3A ....|E-3 4F3A ....
....|..|E-1 2F.A ....|--- .... ....|--- .... ....
....|..|C-4 AF.7 ....|G-3 3F17 ....|G-3 4F17 ....
....|..|G-1 2F.7 ....|--- .... ....|--- .... ....
....|..|--- .... ....|--- .... ....|--- .... ....
....|..|--- .... ....|--- .... ....|--- .... ....
....|..|E-1 2F.7 ....|A-3 3F37 ....|F#5 5F.F ....
....|..|A-1 2F.A ....|--- .... ....|--- .... ....
....|..|C-4 AF.7 ....|E-3 3F37 ....|E-3 4F37 ....
....|..|E-1 2F.7 ....|--- .... ....|--- .... ....
....|..|C-4 AF.7 ....|A-3 3F37 ....|A-3 4F37 ....
....|..|E-1 2F.7 ....|--- .... ....|--- .... ....
....|..|C-4 AF.7 ....|E-3 3F37 ....|E-3 4F37 ....
....|..|E-1 2F.7 ....|--- .... ....|--- .... ....
....|..|C-5 VF.7 ....|E-3 3F.7 ....|F#5 5F.F ....
....|..|E-2 2F.7 ....|--- .... ....|--- .... ....
....|..|--- .... ....|--- .... ....|--- .... ....
....|..|--- .... ....|--- .... ....|--- .... ....
....|..|C-4 AF.7 ....|A-2 3F.7 ....|A-2 4F.7 ....
....|..|A-1 2F.7 ....|--- .... ....|--- .... ....
....|..|--- .... ....|--- .... ....|--- .... ....
....|..|--- .... ....|--- .... ....|--- .... ....
....|..|R-- .... ....|R-- .... ....|F#5 5F.F ....
....|..|--- .... ....|--- .... ....|--- .... ....
....|..|--- .... ....|--- .... ....|--- .... ....
....|..|--- .... ....|--- .... ....|--- .... ....
....|..|--- .... ....|--- .... ....|F#5 5F.A ....
....|..|--- .... ....|--- .... ....|--- .... ....
....|..|--- .... ....|--- .... ....|F#5 5F.F ....
....|..|--- .... ....|--- .... ....|--- .... ....
....|..|--- .... ....|--- .... ....|F#5 5F.F ....
....|..|--- .... ....|--- .... ....|--- .... ....
....|..|--- .... ....|--- .... ....|--- .... ....
....|..|--- .... ....|--- .... ....|--- .... ....
....|..|--- .... ....|--- .... ....|F#5 5F.A ....
....|..|--- .... ....|--- .... ....|--- .... ....
....|..|--- .... ....|--- .... ....|--- .... ....
....|..|--- .... ....|--- .... ....|--- .... ....
....|..|--- .... ....|--- .... ....|F#5 5F.F ....
....|..|--- .... ....|--- .... ....|--- .... ....
....|..|--- .... ....|--- .... ....|F#5 5F.A ....
....|..|--- .... ....|--- .... ....|--- .... ....
....|..|--- .... ....|--- .... ....|F#5 5F.A ....
....|..|--- .... ....|--- .... ....|--- .... ....
....|..|--- .... ....|--- .... ....|--- .... ....
....|..|--- .... ....|--- .... ....|--- .... ....
....|..|--- .... ....|--- .... ....|F#5 5F.F ....
....|..|--- .... ....|--- .... ....|--- .... ....
....|..|--- .... ....|--- .... ....|--- .... ....
....|..|--- .... ....|--- .... ....|--- .... ....
....|..|--- .... ....|--- .... ....|F#5 5F.A ....
....|..|--- .... ....|--- .... ....|--- .... ....
....|..|--- .... ....|--- .... ....|F#5 5F.7 ....
....|..|--- .... ....|--- .... ....|--- .... ....
....|..|--- .... ....|--- .... ....|F#5 5F.F ....
....|..|--- .... ....|--- .... ....|--- .... ....
....|..|--- .... ....|--- .... ....|--- .... ....
....|..|--- .... ....|--- .... ....|--- .... ....
....|..|--- .... ....|--- .... ....|F#5 5F.F ....
....|..|--- .... ....|--- .... ....|--- .... ....
....|..|--- .... ....|--- .... ....|--- .... ....
....|..|--- .... ....|--- .... ....|--- .... ....

[Pattern60]
....|..|--- .... ....|--- .... ....|F#5 5F.F ....
....|..|--- .... ....|--- .... ....|--- .... ....
....|..|--- .... ....|--- .... ....|--- .... ....
....|..|--- .... ....|--- .... ....|--- .... ....
....|..|--- .... ....|--- .... ....|F#5 5F.A ....
....|..|--- .... ....|--- .... ....|--- .... ....
....|..|--- .... ....|--- .... ....|--- .... ....
....|..|--- .... ....|--- .... ....|--- .... ....
....|..|--- .... ....|--- .... ....|F#5 5F.F ....
....|..|--- .... ....|--- .... ....|--- .... ....
....|..|--- .... ....|--- .... ....|--- .... ....
....|..|--- .... ....|--- .... ....|--- .... ....
....|..|--- .... ....|--- .... ....|F#5 5F.A ....
....|..|--- .... ....|--- .... ....|--- .... ....
....|..|--- .... ....|--- .... ....|--- .... ....
....|..|--- .... ....|--- .... ....|--- .... ....
....|..|--- .... ....|--- .... ....|F#5 5F.F ....
....|..|--- .... ....|--- .... ....|--- .... ....
....|..|--- .... ....|--- .... ....|--- .... ....
....|..|--- .... ....|--- .... ....|--- .... ....
....|..|--- .... ....|--- .... ....|F#5 5F.7 ....
....|..|--- .... ....|--- .... ....|--- .... ....
....|..|--- .... ....|--- .... ....|--- .... ....
....|..|--- .... ....|--- .... ....|--- .... ....
....|..|--- .... ....|--- .... ....|F#5 5F.F ....
....|..|--- .... ....|--- .... ....|--- .... ....
....|..|--- .... ....|--- .... ....|--- .... ....
....|..|--- .... ....|--- .... ....|--- .... ....
....|..|--- .... ....|--- .... ....|F#5 5F.A ....
....|..|--- .... ....|--- .... ....|--- .... ....
....|..|--- .... ....|--- .... ....|--- .... ....
....|..|--- .... ....|--- .... ....|--- .... ....
....|..|--- .... ....|--- .... ....|F-5 5F.F ....
....|..|--- .... ....|--- .... ....|--- .... ....
....|..|--- .... ....|--- .... ....|--- .... ....
....|..|--- .... ....|--- .... ....|--- .... ....
....|..|--- .... ....|--- .... ....|F#5 5F.A ....
....|..|--- .... ....|--- .... ....|--- .... ....
....|..|--- .... ....|--- .... ....|--- .... ....
....|..|--- .... ....|--- .... ....|--- .... ....
....|..|--- .... ....|--- .... ....|F-5 5F.F ....
....|..|--- .... ....|--- .... ....|--- .... ....
....|..|--- .... ....|--- .... ....|--- .... ....
....|..|--- .... ....|--- .... ....|--- .... ....
....|..|--- .... ....|--- .... ....|F-5 5F.A ....
....|..|--- .... ....|--- .... ....|--- .... ....
....|..|--- .... ....|--- .... ....|--- .... ....
....|..|--- .... ....|--- .... ....|--- .... ....
....|..|--- .... ....|--- .... ....|D-5 5F.F ....
....|..|--- .... ....|--- .... ....|--- .... ....
....|..|--- .... ....|--- .... ....|--- .... ....
....|..|--- .... ....|--- .... ....|--- .... ....
....|..|--- .... ....|--- .... ....|F-5 5F.A ....
....|..|--- .... ....|--- .... ....|--- .... ....
....|..|--- .... ....|--- .... ....|D-5 5F.F ....
....|..|--- .... ....|--- .... ....|--- .... ....
....|..|--- .... ....|--- .... ....|F-5 5F.7 ....
....|..|--- .... ....|--- .... ....|--- .... ....
....|..|--- .... ....|--- .... ....|--- .... ....
....|..|--- .... ....|--- .... ....|--- .... ....
....|..|--- .... ....|--- .... ....|F-5 5F.F ....
....|..|--- .... ....|--- .... ....|--- .... ....
....|..|--- .... ....|--- .... ....|--- .... ....
....|..|--- .... ....|--- .... ....|--- .... ....

[Pattern61]
....|..|--- .... ....|--- .... ....|F#5 5F.F ....
....|..|--- .... ....|--- .... ....|--- .... ....
....|..|--- .... ....|--- .... ....|D-5 5F.A ....
....|..|--- .... ....|--- .... ....|--- .... ....
....|..|--- .... ....|--- .... ....|--- .... ....
....|..|--- .... ....|--- .... ....|--- .... ....
....|..|--- .... ....|--- .... ....|--- .... ....
....|..|--- .... ....|--- .... ....|--- .... ....
....|..|--- .... ....|--- .... ....|F#5 5F.F ....
....|..|--- .... ....|--- .... ....|--- .... ....
....|..|--- .... ....|--- .... ....|--- .... ....
....|..|--- .... ....|--- .... ....|--- .... ....
....|..|--- .... ....|--- .... ....|F#5 5F.A ....
....|..|--- .... ....|--- .... ....|--- .... ....
....|..|--- .... ....|--- .... ....|D-5 5F.7 ....
....|..|--- .... ....|--- .... ....|--- .... ....
....|..|--- .... ....|--- .... ....|F#5 5F.F ....
....|..|--- .... ....|--- .... ....|--- .... ....
....|..|--- .... ....|--- .... ....|--- .... ....
....|..|--- .... ....|--- .... ....|--- .... ....
....|..|--- .... ....|--- .... ....|F-5 5F.7 ....
....|..|--- .... ....|--- .... ....|--- .... ....
....|..|--- .... ....|--- .... ....|--- .... ....
....|..|--- .... ....|--- .... ....|--- .... ....
....|..|--- .... ....|--- .... ....|F#5 5F.F ....
....|..|--- .... ....|--- .... ....|--- .... ....
....|..|--- .... ....|--- .... ....|--- .... ....
....|..|--- .... ....|--- .... ....|--- .... ....
....|..|--- .... ....|--- .... ....|F#5 5F.A ....
....|..|--- .... ....|--- .... ....|--- .... ....
....|..|--- .... ....|--- .... ....|--- .... ....
....|..|--- .... ....|--- .... ....|--- .... ....
....|..|--- .... ....|--- .... ....|F#5 5F.7 ....
....|..|--- .... ....|--- .... ....|--- .... ....
....|..|--- .... ....|--- .... ....|--- .... ....
....|..|--- .... ....|--- .... ....|--- .... ....
....|..|--- .... ....|--- .... ....|F#5 5F.A ....
....|..|--- .... ....|--- .... ....|--- .... ....
....|..|--- .... ....|--- .... ....|--- .... ....
....|..|--- .... ....|--- .... ....|--- .... ....
....|..|--- .... ....|--- .... ....|F#5 5F.7 ....
....|..|--- .... ....|--- .... ....|--- .... ....
....|..|--- .... ....|--- .... ....|--- .... ....
....|..|--- .... ....|--- .... ....|--- .... ....
....|..|--- .... ....|--- .... ....|--- .... ....
....|..|--- .... ....|--- .... ....|--- .... ....
....|..|--- .... ....|--- .... ....|--- .... ....
....|..|--- .... ....|--- .... ....|--- .... ....
....|..|--- .... ....|--- .... ....|F#5 5F.7 ....
....|..|--- .... ....|--- .... ....|--- .... ....
....|..|--- .... ....|--- .... ....|--- .... ....
....|..|--- .... ....|--- .... ....|--- .... ....
....|..|--- .... ....|--- .... ....|--- .... ....
....|..|--- .... ....|--- .... ....|--- .... ....
....|..|--- .... ....|--- .... ....|--- .... ....
....|..|--- .... ....|--- .... ....|--- .... ....
....|..|--- .... ....|--- .... ....|--- .... ....
....|..|--- .... ....|--- .... ....|--- .... ....
....|..|--- .... ....|--- .... ....|--- .... ....
....|..|--- .... ....|--- .... ....|--- .... ....
....|..|--- .... ....|--- .... ....|--- .... ....
....|..|--- .... ....|--- .... ....|--- .... ....
....|..|--- .... ....|--- .... ....|--- .... ....
....|..|--- .... ....|--- .... ....|--- .... ....

[Pattern62]
....|..|--- .... ....|--- .... ....|R-- .... ....
....|..|--- .... ....|--- .... ....|--- .... ....
....|..|--- .... ....|--- .... ....|--- .... ....
....|..|--- .... ....|--- .... ....|--- .... ....
....|..|--- .... ....|--- .... ....|--- .... ....
....|..|--- .... ....|--- .... ....|--- .... ....
....|..|--- .... ....|--- .... ....|--- .... ....
....|..|--- .... ....|--- .... ....|--- .... ....
....|..|--- .... ....|--- .... ....|--- .... ....
....|..|--- .... ....|--- .... ....|--- .... ....
....|..|--- .... ....|--- .... ....|--- .... ....
....|..|--- .... ....|--- .... ....|--- .... ....
....|..|--- .... ....|--- .... ....|R-- .... ....
....|..|--- .... ....|--- .... ....|--- .... ....
....|..|--- .... ....|--- .... ....|--- .... ....
....|..|--- .... ....|--- .... ....|--- .... ....
....|..|--- .... ....|--- .... ....|--- .... ....
....|..|--- .... ....|--- .... ....|--- .... ....
....|..|--- .... ....|--- .... ....|--- .... ....
....|..|--- .... ....|--- .... ....|--- .... ....
....|..|--- .... ....|--- .... ....|--- .... ....
....|..|--- .... ....|--- .... ....|--- .... ....
....|..|--- .... ....|--- .... ....|--- .... ....
....|..|--- .... ....|--- .... ....|--- .... ....

[Module]
VortexTrackerII=0
Version=3.5
Title=1d-2me,3p[3],4p[4]-5p[5]+
Author=oisee ^ 4d 29.05.2010
NoteTable=4
ChipFreq=1750000
Speed=3
PlayOrder=L0,1,2,3,4,5,6,7,8,9,10,11,11,13,14,15,16,17,18,19,20,3,4,23,24,25,4,27,28,29,30,31,32,33,34,33,36,37,38,39,40,41,42,19,20,3,4,23,48,49,50,51,52,53,54,55,56,57,56,59,60,61,62

[Ornament1]
L0,0,7,7

[Ornament2]
L0,0,5,5

[Ornament3]
L0,0,5,5,10,10

[Ornament4]
L0

[Ornament5]
L0

[Ornament6]
L0

[Ornament7]
L0

[Ornament8]
L0

[Ornament9]
L0

[Ornament10]
L0

[Ornament11]
L0

[Ornament12]
L0

[Ornament13]
L0

[Ornament14]
L0

[Ornament15]
L0

[Sample1]
TnE +000_ +00_ F_
TnE +000_ +00_ F_
TnE +000_ +00_ F_
TnE +000_ +00_ D_
TnE +000_ +00_ B_
TnE +000_ +00_ B_ L

[Sample2]
TnE +000_ +00_ F_ L

[Sample3]
TNe +000_ +00_ F_
Tne +001_ +00_ F_
Tne +001_ +00_ E_
Tne +002_ +00_ E_
Tne +000_ +00_ E_ L
Tne -001_ +00_ E_
Tne -001_ +00_ E_
Tne -001_ +00_ E_
Tne +000_ +00_ E_
Tne +001_ +00_ E_
Tne +001_ +00_ E_
Tne +001_ +00_ E_

[Sample4]
TnE +002_ +00_ D_
TnE +000_ +00_ D_
TnE +000_ +00_ C_
TnE +000_ +00_ B_
TnE +000_ +00_ A_ L
TnE +000_ +00_ A_
TnE +000_ +00_ A_
TnE +000_ +00_ A_
TnE +000_ +00_ A_
TnE +000_ +00_ A_
TnE +000_ +00_ A_
TnE +000_ +00_ A_

[Sample5]
TNe +000_ +00_ D_
TNe +000_ +00_ F_
Tne +000_ +00_ E_
Tne +002_ +00_ E_
Tne +000_ +00_ E_ L
Tne -001_ +00_ E_
Tne -001_ +00_ E_
Tne -001_ +00_ E_
Tne +000_ +00_ E_
Tne +001_ +00_ E_
Tne +001_ +00_ E_
Tne +001_ +00_ E_

[Sample6]
TnE -001_ +00_ F_ L

[Sample7]
TnE +006_ +00_ F_ L

[Sample8]
tNe +000_ +00_ F_
tNe +000_ +00_ B_
tNe +000_ +00_ 7_
tNe +000_ +00_ 6- L

[Sample9]
TnE +080_ +00_ F_
TnE +100_ +00_ E_
TnE +180_ +00_ E_
TnE +200_ +00_ E_
TnE +240_ +00_ D_
TnE +280_ +00_ D_
TnE +2C0_ +00_ D_
TnE +300_ +00_ C_
TnE +300_ +00_ C_
TnE +340_ +00_ C_
TnE +340_ +00_ C_
TnE +380_ +00_ B_
TnE +380_ +00_ B_
TnE +400_ +00_ B_
TnE +400_ +00_ B_
TnE +480_ +00_ A_
TnE +500_ +00_ 9_
TnE +580_ +00_ 7_
TnE +600_ +00_ 4_
TnE +680_ +00_ 1_
TnE +000_ +00_ 0_ L

[Sample10]
Tne +1C0_ +00_ F_
Tne +280_ +00_ E_
Tne +380_ +00_ C_
Tne +440_ +00_ A_
Tne +480_ +00_ 8_
TnE +000_ +00_ 0_ L

[Sample11]
TNe +200_ -0A_ F_
tNe +000_ +0F_ A_
TNe +200_ -07_ E_
tNe +000_ +0E_ B- L

[Sample12]
TNE +0A0_ +05_ F_
TNE +140_ +02_ D_
TNE +140_ +02_ B_
TNE +100_ +00_ A_ L
TNE +140_ +00_ A_
TNE +200_ +00_ A-

[Sample13]
Tne +200_ +00_ F_
Tne +2C0_ +00_ F_
Tne +380_ +00_ E_
Tne +500_ +00_ C_
Tne +520_ +00_ 9_
tne +000_ +00_ 0_ L

[Sample14]
TNE -100_ +00_ F_
TNE -100_ +00_ D_
TNE -100_ +00_ A_
TNE -100_ +00_ 5_
tne +000_ +00_ 0_ L

[Sample15]
TNE -100_ +00_ 5_
TNE -100_ +00_ 8_
TNE -100_ +00_ B_
TNE -100_ +00_ F_
TNe -100_ +00_ 9- L

[Sample16]
TnE +000_ +00_ C_
TnE +000_ +00_ E_
TnE +000_ +00_ F_
TnE +000_ +00_ F_
TnE +000_ +00_ E_
TnE +000_ +00_ D_
TnE +000_ +00_ C_
TnE +000_ +00_ C_ L
TnE +001_ +00_ C_
TnE +002_ +00_ C_
TnE +003_ +00_ C_
TnE +001_ +00_ C_
TnE +000_ +00_ C_
TnE -001_ +00_ C_
TnE -002_ +00_ C_
TnE -003_ +00_ C_
TnE -001_ +00_ C_
TnE +000_ +00_ C_
TnE +000_ +00_ C_

[Sample17]
Tne +1C0_ +00_ F_
Tne +280_ +00_ D_
Tne +380_ +00_ 7_
TNE +000_ +00_ 0_ L

[Sample18]
TnE -00C_ +00_ 0_ L

[Sample19]
TNe +000_ +00_ F_
TNe +000_ +00_ C_
TNe +000_ +00_ 6_
TNe +000_ +01_ A- L

[Sample20]
TNE +140_ +00_ F_
tNE +000_ +00_ B- L

[Sample21]
tNE +000_ +00_ D_
tNE +000_ +00_ 8_
tNE +000_ +00_ 1_
TNE +000_ +00_ 0_ L

[Sample22]
TnE +000_ +00_ D_ L
TnE +000_ +00_ D_
tne +000_ +00_ 9_
tne +000_ +00_ 9_
TnE +000_ +00_ D_
TnE +000_ +00_ D_
tne +000_ +00_ 9_
tne +000_ +00_ 9_
TnE +000_ +00_ D_
TnE +000_ +00_ D_
TnE +000_ +00_ D_
TnE +000_ +00_ D_
TnE +000_ +00_ D_
TnE +000_ +00_ D_
tne +000_ +00_ 9_
tne +000_ +00_ 9_

[Sample23]
TnE +000_ +00_ F_ L
TnE +010_ +01_ F_
TnE +010_ +01_ F_
TnE +010_ +01_ F_
TnE +010_ +01_ F_
TnE +000_ +00_ F_
TnE +000_ +00_ F_
TnE -010_ -01_ F_
TnE -010_ -01_ F_
TnE -010_ -01_ F_
TnE -010_ -01_ F_
TnE +000_ +00_ F_

[Sample24]
TNe +000_ -01_ C_
TNe +000_ -01_ D_
TNe +000_ -01_ E_
TNe +000_ -01_ F_
TNe +000_ -01_ F_
TNe +000_ -01_ F_
TNe +000_ -01_ F_
TNe +000_ -01_ F_
TNe +000_ -01_ E_
TNe +000_ -01_ E_
TNe +000_ -01_ E_
TNe +000_ -01_ F_
TNe +000_ -01_ F_ L

[Sample25]
TNE +000_ +00_ F_
TNE +000_ +00_ F_ L
TNE +000_ +00_ F_
TNE +000_ +00_ F_
TNE +000_ +00_ F-

[Sample26]
tne +000_ +00_ 0_ L

[Sample27]
TnE +100_ +05_ F_
TnE +200_ +02_ A_
TnE +300_ +02_ 7_
TNE +400_ +00_ 3- L

[Sample28]
tne +000_ +00_ 0_ L

[Sample29]
tnE +000_ +00_ 0_ L

[Sample30]
TNE +000_ +00_ C+ L

[Sample31]
TNe +1C0_ +00_ F_
Tne +280_ +00_ E_
Tne +380_ +00_ C_
Tne +440_ +00_ A_
Tne +480_ +00_ 8_
TnE +000_ +00_ 0_ L

[Pattern0]
....|..|--- .... ....|B-4 3F.F ....|B-3 4F.F ....
....|..|--- .... ....|--- .... ....|--- .... ....
....|..|--- .... ....|--- .... ....|--- .... ....
....|..|--- .... ....|--- .... ....|--- .... ....
....|..|--- .... ....|--- .... ....|--- .... ....
....|..|--- .... ....|--- .... ....|--- .... ....
....|..|--- .... ....|--- .... ....|--- .... ....
....|..|--- .... ....|--- .... ....|--- .... ....
....|..|--- .... ....|--- .... ....|--- .... ....
....|..|--- .... ....|--- .... ....|--- .... ....
....|..|--- .... ....|--- .... ....|--- .... ....
....|..|--- .... ....|--- .... ....|--- .... ....
....|..|--- .... ....|A#5 3F.F ....|B-3 4F.A ....
....|..|--- .... ....|--- .... ....|--- .... ....
....|..|--- .... ....|--- .... ....|--- .... ....
....|..|--- .... ....|--- .... ....|--- .... ....
....|..|--- .... ....|B-5 3F.F ....|--- .... ....
....|..|--- .... ....|--- .... ....|--- .... ....
....|..|--- .... ....|--- .... ....|--- .... ....
....|..|--- .... ....|--- .... ....|--- .... ....
....|..|--- .... ....|A#5 3F.F ....|--- .... ....
....|..|--- .... ....|--- .... ....|--- .... ....
....|..|--- .... ....|--- .... ....|--- .... ....
....|..|--- .... ....|--- .... ....|--- .... ....
....|..|--- .... ....|B-5 3F.F ....|B-3 4F.7 ....
....|..|--- .... ....|--- .... ....|--- .... ....
....|..|--- .... ....|--- .... ....|--- .... ....
....|..|--- .... ....|--- .... ....|--- .... ....
....|..|--- .... ....|A#5 3F.F ....|--- .... ....
....|..|--- .... ....|--- .... ....|--- .... ....
....|..|--- .... ....|--- .... ....|--- .... ....
....|..|--- .... ....|--- .... ....|--- .... ....
....|..|--- .... ....|D-5 3F.F ....|--- .... ....
....|..|--- .... ....|--- .... ....|--- .... ....
....|..|--- .... ....|--- .... ....|--- .... ....
....|..|--- .... ....|--- .... ....|--- .... ....
....|..|--- .... ....|A#5 3F.7 ....|--- .... ....
....|..|--- .... ....|--- .... ....|--- .... ....
....|..|--- .... ....|--- .... ....|--- .... ....
....|..|--- .... ....|--- .... ....|--- .... ....
....|..|--- .... ....|B-5 3F.7 ....|--- .... ....
....|..|--- .... ....|--- .... ....|--- .... ....
....|..|--- .... ....|--- .... ....|--- .... ....
....|..|--- .... ....|--- .... ....|--- .... ....
....|..|--- .... ....|C#5 3F.F ....|--- .... ....
....|..|--- .... ....|--- .... ....|--- .... ....
....|..|--- .... ....|--- .... ....|--- .... ....
....|..|--- .... ....|--- .... ....|--- .... ....
....|..|--- .... ....|D-5 3F.F ....|--- .... ....
....|..|--- .... ....|--- .... ....|--- .... ....
....|..|--- .... ....|--- .... ....|--- .... ....
....|..|--- .... ....|--- .... ....|--- .... ....
....|..|--- .... ....|C#5 3F.F ....|--- .... ....
....|..|--- .... ....|--- .... ....|--- .... ....
....|..|--- .... ....|--- .... ....|--- .... ....
....|..|--- .... ....|--- .... ....|--- .... ....
....|..|--- .... ....|D-5 3F.F ....|--- .... ....
....|..|--- .... ....|--- .... ....|--- .... ....
....|..|--- .... ....|--- .... ....|--- .... ....
....|..|--- .... ....|--- .... ....|--- .... ....
....|..|--- .... ....|F#5 3F.F ....|--- .... ....
....|..|--- .... ....|--- .... ....|--- .... ....
....|..|--- .... ....|--- .... ....|--- .... ....
....|..|--- .... ....|--- .... ....|--- .... ....

[Pattern1]
....|..|--- .... ....|B-4 3F.F ....|D-4 4F.F ....
....|..|--- .... ....|--- .... ....|--- .... ....
....|..|--- .... ....|--- .... ....|--- .... ....
....|..|--- .... ....|--- .... ....|--- .... ....
....|..|--- .... ....|C#5 3F.7 ....|--- .... ....
....|..|--- .... ....|--- .... ....|--- .... ....
....|..|--- .... ....|--- .... ....|--- .... ....
....|..|--- .... ....|--- .... ....|--- .... ....
....|..|--- .... ....|D-5 3F.7 ....|--- .... ....
....|..|--- .... ....|--- .... ....|--- .... ....
....|..|--- .... ....|--- .... ....|--- .... ....
....|..|--- .... ....|--- .... ....|--- .... ....
....|..|--- .... ....|A#5 3F.F ....|D-4 4F.A ....
....|..|--- .... ....|--- .... ....|--- .... ....
....|..|--- .... ....|--- .... ....|--- .... ....
....|..|--- .... ....|--- .... ....|--- .... ....
....|..|--- .... ....|B-5 3F.F ....|--- .... ....
....|..|--- .... ....|--- .... ....|--- .... ....
....|..|--- .... ....|--- .... ....|--- .... ....
....|..|--- .... ....|--- .... ....|--- .... ....
....|..|--- .... ....|A#5 3F.F ....|--- .... ....
....|..|--- .... ....|--- .... ....|--- .... ....
....|..|--- .... ....|--- .... ....|--- .... ....
....|..|--- .... ....|--- .... ....|--- .... ....
....|..|--- .... ....|B-5 3F.F ....|D-4 4F.7 ....
....|..|--- .... ....|--- .... ....|--- .... ....
....|..|--- .... ....|--- .... ....|--- .... ....
....|..|--- .... ....|--- .... ....|--- .... ....
....|..|--- .... ....|A#5 3F.F ....|--- .... ....
....|..|--- .... ....|--- .... ....|--- .... ....
....|..|--- .... ....|--- .... ....|--- .... ....
....|..|--- .... ....|--- .... ....|--- .... ....
....|..|--- .... ....|D-5 3F.F ....|R-- .... ....
....|..|--- .... ....|--- .... ....|--- .... ....
....|..|--- .... ....|--- .... ....|--- .... ....
....|..|--- .... ....|--- .... ....|--- .... ....
....|..|--- .... ....|A#5 3F.7 ....|--- .... ....
....|..|--- .... ....|--- .... ....|--- .... ....
....|..|--- .... ....|--- .... ....|--- .... ....
....|..|--- .... ....|--- .... ....|--- .... ....
....|..|--- .... ....|B-5 3F.7 ....|--- .... ....
....|..|--- .... ....|--- .... ....|--- .... ....
....|..|--- .... ....|--- .... ....|--- .... ....
....|..|--- .... ....|--- .... ....|--- .... ....
....|..|--- .... ....|A#5 3F.F ....|R-- .... ....
....|..|--- .... ....|--- .... ....|--- .... ....
....|..|--- .... ....|--- .... ....|--- .... ....
....|..|--- .... ....|--- .... ....|--- .... ....
....|..|--- .... ....|B-5 3F.F ....|--- .... ....
....|..|--- .... ....|--- .... ....|--- .... ....
....|..|--- .... ....|A#5 3F.F ....|--- .... ....
....|..|--- .... ....|--- .... ....|--- .... ....
....|..|--- .... ....|B-5 3F.F ....|--- .... ....
....|..|--- .... ....|--- .... ....|--- .... ....
....|..|--- .... ....|--- .... ....|--- .... ....
....|..|--- .... ....|--- .... ....|--- .... ....
....|..|C-5 VF.F ....|D-5 3F.7 ....|A-3 4F1F ....
..1B|..|A-1 2A.F ....|--- .... ....|--- .... ....
....|..|--- .... ....|--- .... ....|--- .... ....
....|..|--- .... ....|--- .... ....|--- .... ....
....|..|--- .... ....|B-5 3F.A ....|--- .... ....
....|..|--- .... ....|--- .... ....|--- .... ....
....|..|--- .... ....|A#5 3F.A ....|--- .... ....
....|..|--- .... ....|--- .... ....|--- .... ....

[Pattern2]
....|..|C-4 AF.F ....|B-4 3F.F ....|B-3 4F1F ....
..18|..|B-1 2A.F ....|--- .... ....|--- .... ....
....|..|--- .... ....|--- .... ....|--- .... ....
....|..|--- .... ....|--- .... ....|--- .... ....
..18|..|B-1 2A.F ....|A#5 3F.7 ....|B-3 4F1F ....
....|..|A-1 2F.A ....|--- .... ....|--- .... ....
....|..|C-4 AF.F ....|--- .... ....|B-3 4F1F ....
..18|..|B-1 2A.F ....|--- .... ....|--- .... ....
....|..|C-5 VF.F ....|B-5 3F.7 ....|--- .... ....
....|..|--- .... ....|--- .... ....|--- .... ....
..18|..|B-1 2A.F ....|A#5 3F.7 ....|B-3 4F1F ....
....|..|--- .... ....|--- .... ....|--- .... ....
....|..|C-4 AF.F ....|A#5 3F.F ....|B-3 4F1F ....
..18|..|B-1 2A.F ....|--- .... ....|--- .... ....
....|..|R-- .... ....|--- .... ....|--- .... ....
....|..|--- .... ....|--- .... ....|--- .... ....
....|..|C-3 RF.F ....|B-5 3F.F ....|B-3 4F1F ....
..18|..|B-1 2A.F ....|--- .... ....|--- .... ....
....|..|C-3 RF.F ....|--- .... ....|B-3 4F1A ....
....|..|B-1 2F.A ....|--- .... ....|--- .... ....
....|..|C-4 AF.F ....|A#5 3F.F ....|B-3 4F1F ....
..18|..|B-1 2A.F ....|--- .... ....|--- .... ....
....|..|B-1 2F.A ....|--- .... ....|B-3 4F1A ....
....|..|--- .... ....|--- .... ....|--- .... ....
....|..|C-5 VF.F ....|B-5 3F.F ....|B-3 4F1F ....
..18|..|B-1 2A.F ....|--- .... ....|--- .... ....
..18|..|B-1 2A.F ....|--- .... ....|B-3 4F1F ....
....|..|--- .... ....|--- .... ....|--- .... ....
....|..|C-4 AF.F ....|A#5 3F.F ....|B-3 4F17 ....
....|..|B-1 2F.A ....|--- .... ....|--- .... ....
..18|..|B-1 2A.F ....|--- .... ....|B-3 4F1F ....
....|..|B-1 2F.7 ....|--- .... ....|--- .... ....
....|..|C-4 AF.F ....|D-5 3F.F ....|B-3 4F1F ....
..18|..|B-1 2A.F ....|--- .... ....|--- .... ....
....|..|B-1 2F.7 ....|--- .... ....|B-3 4F17 ....
....|..|--- .... ....|--- .... ....|--- .... ....
..18|..|B-1 2A.F ....|A#5 3F.7 ....|B-3 4F1F ....
....|..|B-1 2F.7 ....|--- .... ....|--- .... ....
....|..|C-4 AF.F ....|--- .... ....|B-3 4F1F ....
..18|..|B-1 2A.F ....|--- .... ....|--- .... ....
....|..|C-5 VF.F ....|B-5 3F.7 ....|B-3 4F17 ....
....|..|B-1 2F.7 ....|--- .... ....|--- .... ....
..18|..|B-1 2A.F ....|--- .... ....|B-3 4F1F ....
....|..|--- .... ....|--- .... ....|--- .... ....
....|..|C-4 AF.F ....|C#5 3F.F ....|B-3 4F1F ....
..18|..|B-1 2A.F ....|--- .... ....|--- .... ....
....|..|R-- .... ....|--- .... ....|B-3 4F1F ....
....|..|--- .... ....|--- .... ....|--- .... ....
....|..|C-3 RF.F ....|D-5 3F.F ....|B-3 4F17 ....
..18|..|B-1 2A.F ....|--- .... ....|--- .... ....
....|..|C-3 RF.F ....|--- .... ....|B-3 4F1F ....
..18|..|B-1 2A.F ....|--- .... ....|--- .... ....
....|..|C-4 AF.F ....|C#5 3F.F ....|--- .... ....
....|..|--- .... ....|--- .... ....|--- .... ....
..18|..|B-1 2A.F ....|--- .... ....|B-3 4F1F ....
....|..|--- .... ....|--- .... ....|--- .... ....
....|..|C-5 VF.F ....|D-5 3F.F ....|B-3 4F1F ....
..18|..|B-1 2A.F ....|--- .... ....|--- .... ....
....|..|R-- .... ....|--- .... ....|B-3 4F1A ....
....|..|--- .... ....|--- .... ....|--- .... ....
....|..|C-4 AF.F ....|F#5 3F.F ....|B-3 4F.F ....
..18|..|B-1 2A.F ....|--- .... ....|--- .... ....
....|..|C-4 AF.7 ....|--- .... ....|B-3 4F17 ....
....|..|B-1 2F.7 ....|--- .... ....|--- .... ....

[Pattern3]
....|..|C-4 AF.F ....|B-4 3F.F ....|G-3 4F1F ....
..1E|..|G-1 2A.F ....|--- .... ....|--- .... ....
....|..|B-1 2F.7 ....|--- .... ....|B-3 4F17 ....
....|..|--- .... ....|--- .... ....|--- .... ....
..1E|..|G-1 2A.F ....|C#5 3F.7 ....|A-3 4F2F ....
....|..|B-1 2F.7 ....|--- .... ....|--- .... ....
....|..|C-4 AF.F ....|--- .... ....|G-3 4F1F ....
..1E|..|G-1 2A.F ....|--- .... ....|--- .... ....
....|..|C-5 VF.F ....|D-5 3F.7 ....|B-3 4F.A ....
....|..|B-1 2F.7 ....|--- .... ....|--- .... ....
..1E|..|G-1 2A.F ....|--- .... ....|G-3 4F1F ....
....|..|B-1 2F.7 ....|--- .... ....|--- .... ....
....|..|C-4 AF.F ....|A#5 3F.F ....|G-3 4F1F ....
..1E|..|G-1 2A.F ....|--- .... ....|--- .... ....
....|..|B-1 2F.7 ....|--- .... ....|B-3 4F17 ....
....|..|--- .... ....|--- .... ....|--- .... ....
....|..|C-3 RF.F ....|B-5 3F.F ....|G-3 4F1F ....
..1E|..|G-1 2A.F ....|--- .... ....|--- .... ....
....|..|C-3 RF.F ....|--- .... ....|G-3 4F1F ....
..1E|..|G-1 2A.F ....|--- .... ....|--- .... ....
....|..|C-4 AF.F ....|A#5 3F.F ....|B-3 4F.7 ....
....|..|B-1 2F.7 ....|--- .... ....|--- .... ....
..1E|..|G-1 2A.F ....|--- .... ....|G-3 4F1F ....
....|..|--- .... ....|--- .... ....|--- .... ....
....|..|C-5 VF.F ....|B-5 3F.F ....|G-3 4F1F ....
..1E|..|G-1 2A.F ....|--- .... ....|--- .... ....
....|..|R-- .... ....|--- .... ....|--- .... ....
....|..|--- .... ....|--- .... ....|--- .... ....
....|..|C-4 AF.F ....|A#5 3F.F ....|G-3 4F.F ....
..1E|..|G-1 2A.F ....|--- .... ....|--- .... ....
....|..|C-4 AF.7 ....|--- .... ....|G-3 4F17 ....
....|..|G-1 2F.7 ....|--- .... ....|--- .... ....
....|..|C-4 AF.F ....|D-5 3F.F ....|A-3 4F1F ....
..1B|..|A-1 2A.F ....|--- .... ....|--- .... ....
....|..|G-1 2F.7 ....|--- .... ....|G-3 4F17 ....
....|..|--- .... ....|--- .... ....|--- .... ....
....|..|C-4 AF.F ....|A#5 3F.7 ....|A-3 4F1F ....
..1B|..|A-1 2A.F ....|--- .... ....|--- .... ....
..1B|..|A-1 2A.F ....|--- .... ....|A-3 4F1F ....
....|..|--- .... ....|--- .... ....|--- .... ....
....|..|C-5 VF.F ....|B-5 3F.7 ....|G-3 4F17 ....
....|..|G-1 2F.7 ....|--- .... ....|--- .... ....
..1B|..|A-1 2A.F ....|--- .... ....|A-3 4F1F ....
....|..|G-1 2F.7 ....|--- .... ....|--- .... ....
....|..|C-4 AF.F ....|C#5 3F.F ....|A-3 4F1F ....
..1B|..|A-1 2A.F ....|--- .... ....|--- .... ....
....|..|G-1 2F.7 ....|--- .... ....|G-3 4F17 ....
....|..|--- .... ....|--- .... ....|--- .... ....
....|..|C-5 VF.7 ....|B-5 3F.7 ....|A-3 4F3F ....
....|..|G-1 2F.7 ....|--- .... ....|--- .... ....
....|..|A-1 2F.A ....|--- .... ....|E-3 4F3F ....
....|..|--- .... ....|--- .... ....|--- .... ....
....|..|C-4 AF.7 ....|A#5 3F.7 ....|A-3 4F3F ....
....|..|G-1 2F.7 ....|--- .... ....|--- .... ....
....|..|A-1 2F.A ....|--- .... ....|E-3 4F3F ....
....|..|--- .... ....|--- .... ....|--- .... ....
....|..|C-4 AF.7 ....|D-5 3F.7 ....|E-3 4F.F ....
....|..|A-1 2F.7 ....|--- .... ....|--- .... ....
....|..|--- .... ....|--- .... ....|--- .... ....
....|..|--- .... ....|--- .... ....|--- .... ....
....|..|C-4 AF.7 ....|R-- .... ....|A-2 4F.F ....
....|..|A-1 2F.7 ....|--- .... ....|--- .... ....
....|..|A-1 2F.7 ....|--- .... ....|A-3 4F17 ....
....|..|--- .... ....|--- .... ....|--- .... ....

[Pattern4]
....|..|C-4 AF.F ....|B-4 3F.F ....|E-3 4F1F ....
..24|..|E-1 2A.F ....|--- .... ....|--- .... ....
....|..|A-1 2F.7 ....|--- .... ....|A-3 4F17 ....
....|..|--- .... ....|--- .... ....|--- .... ....
..24|..|E-1 2A.F ....|C#5 3F.7 ....|E-3 4F1F ....
....|..|A-1 2F.7 ....|--- .... ....|--- .... ....
....|..|C-4 AF.F ....|--- .... ....|E-3 4F1F ....
..24|..|E-1 2A.F ....|--- .... ....|--- .... ....
....|..|C-5 VF.F ....|R-- .... ....|A-3 4F37 ....
....|..|--- .... ....|--- .... ....|--- .... ....
..24|..|E-1 2A.F ....|--- .... ....|E-3 4F1F ....
....|..|--- .... ....|--- .... ....|--- .... ....
....|..|C-4 AF.F ....|A#5 3F.F ....|E-3 4F1F ....
..24|..|E-1 2A.F ....|--- .... ....|--- .... ....
....|..|R-- .... ....|--- .... ....|E-3 4F37 ....
....|..|--- .... ....|--- .... ....|--- .... ....
....|..|C-3 RF.F ....|B-5 3F.F ....|E-3 4F1F ....
..24|..|E-1 2A.F ....|--- .... ....|--- .... ....
....|..|C-3 RF.F ....|--- .... ....|E-3 4F1A ....
....|..|E-1 2F.A ....|--- .... ....|--- .... ....
....|..|C-4 AF.F ....|A#5 3F.F ....|E-3 4F1F ....
..24|..|E-1 2A.F ....|--- .... ....|--- .... ....
....|..|E-1 2F.A ....|--- .... ....|E-3 4F1A ....
....|..|--- .... ....|--- .... ....|--- .... ....
....|..|C-5 VF.F ....|B-5 3F.F ....|E-3 4F1F ....
..24|..|E-1 2A.F ....|--- .... ....|--- .... ....
..24|..|E-1 2A.F ....|--- .... ....|E-3 4F1F ....
....|..|--- .... ....|--- .... ....|--- .... ....
....|..|C-4 AF.F ....|A#5 3F.F ....|E-3 4F17 ....
....|..|E-1 2F.A ....|--- .... ....|--- .... ....
..24|..|E-1 2A.F ....|--- .... ....|E-3 4F1F ....
....|..|E-1 2F.7 ....|--- .... ....|--- .... ....
....|..|C-4 AF.F ....|D-5 3F.F ....|E-3 4F1F ....
..24|..|E-1 2A.F ....|--- .... ....|--- .... ....
....|..|E-1 2F.7 ....|--- .... ....|E-3 4F17 ....
....|..|--- .... ....|--- .... ....|--- .... ....
..24|..|E-1 2A.F ....|A#5 3F.7 ....|E-3 4F1F ....
....|..|E-1 2F.7 ....|--- .... ....|--- .... ....
....|..|C-4 AF.F ....|--- .... ....|E-3 4F1F ....
..24|..|E-1 2A.F ....|--- .... ....|--- .... ....
....|..|C-5 VF.F ....|B-5 3F.7 ....|E-3 4F17 ....
....|..|E-1 2F.7 ....|--- .... ....|--- .... ....
..24|..|E-1 2A.F ....|--- .... ....|E-3 4F1F ....
....|..|--- .... ....|--- .... ....|--- .... ....
....|..|C-4 AF.F ....|C#5 3F.F ....|E-3 4F1F ....
..24|..|E-1 2A.F ....|--- .... ....|--- .... ....
....|..|R-- .... ....|--- .... ....|--- .... ....
....|..|--- .... ....|--- .... ....|--- .... ....
....|..|C-3 RF.F ....|D-5 3F.F ....|E-3 4F1F ....
..24|..|E-1 2A.F ....|--- .... ....|--- .... ....
....|..|C-3 RF.F ....|--- .... ....|E-3 4F17 ....
....|..|E-1 2F.A ....|--- .... ....|--- .... ....
....|..|C-4 AF.F ....|C#5 3F.F ....|E-3 4F1F ....
..24|..|E-1 2A.F ....|--- .... ....|--- .... ....
....|..|E-1 2F.7 ....|--- .... ....|E-3 4F17 ....
....|..|--- .... ....|--- .... ....|--- .... ....
....|..|C-5 VF.F ....|D-5 3F.F ....|E-3 4F1F ....
..24|..|E-1 2A.F ....|--- .... ....|--- .... ....
..24|..|E-1 2A.F ....|--- .... ....|E-3 4F1F ....
....|..|--- .... ....|--- .... ....|--- .... ....
....|..|C-4 AF.F ....|F#5 3F.F ....|E-3 4F17 ....
....|..|E-1 2F.A ....|--- .... ....|--- .... ....
..24|..|E-1 2A.F ....|--- .... ....|E-3 4F1F ....
....|..|E-1 2F.7 ....|--- .... ....|--- .... ....

[Pattern5]
....|..|C-4 AF.F ....|B-4 3F.F ....|G-3 4F1F ....
..1E|..|G-1 2A.F ....|--- .... ....|--- .... ....
....|..|E-1 2F.7 ....|--- .... ....|E-3 4F17 ....
....|..|--- .... ....|--- .... ....|--- .... ....
..1E|..|G-1 2A.F ....|C#5 3F.7 ....|G-3 4F1F ....
....|..|E-1 2F.7 ....|--- .... ....|--- .... ....
....|..|C-4 AF.F ....|--- .... ....|G-3 4F1F ....
..1E|..|G-1 2A.F ....|--- .... ....|--- .... ....
....|..|C-5 VF.F ....|D-5 3F.7 ....|E-3 4F17 ....
....|..|E-1 2F.7 ....|--- .... ....|--- .... ....
..1E|..|G-1 2A.F ....|--- .... ....|G-3 4F1F ....
....|..|--- .... ....|--- .... ....|--- .... ....
....|..|C-4 AF.F ....|A#5 3F.F ....|G-3 4F1F ....
..1E|..|G-1 2A.F ....|--- .... ....|--- .... ....
....|..|R-- .... ....|--- .... ....|--- .... ....
....|..|--- .... ....|--- .... ....|--- .... ....
....|..|C-3 RF.F ....|B-5 3F.F ....|G-3 4F1F ....
..1E|..|G-1 2A.F ....|--- .... ....|--- .... ....
....|..|C-3 RF.F ....|--- .... ....|E-3 4F17 ....
....|..|G-1 2F.A ....|--- .... ....|--- .... ....
....|..|C-4 AF.F ....|A#5 3F.F ....|G-3 4F1F ....
..1E|..|G-1 2A.F ....|--- .... ....|--- .... ....
....|..|E-1 2F.7 ....|--- .... ....|E-3 4F17 ....
....|..|--- .... ....|--- .... ....|--- .... ....
....|..|C-5 VF.F ....|B-5 3F.F ....|G-3 4F1F ....
..1E|..|G-1 2A.F ....|--- .... ....|--- .... ....
..1E|..|G-1 2A.F ....|--- .... ....|G-3 4F1F ....
....|..|--- .... ....|--- .... ....|--- .... ....
....|..|C-4 AF.F ....|A#5 3F.F ....|G-3 4F17 ....
....|..|G-1 2F.A ....|--- .... ....|--- .... ....
..1E|..|G-1 2A.F ....|--- .... ....|G-3 4F1F ....
....|..|G-1 2F.7 ....|--- .... ....|--- .... ....
....|..|C-4 AF.F ....|D-5 3F.F ....|A-3 4F1F ....
..1B|..|A-1 2A.F ....|--- .... ....|--- .... ....
....|..|G-1 2F.7 ....|--- .... ....|G-3 4F17 ....
....|..|--- .... ....|--- .... ....|--- .... ....
....|..|C-4 AF.F ....|A#5 3F.7 ....|A-3 4F1F ....
..1B|..|A-1 2A.F ....|--- .... ....|--- .... ....
..1B|..|A-1 2A.F ....|--- .... ....|A-3 4F1F ....
....|..|--- .... ....|--- .... ....|--- .... ....
....|..|C-5 VF.F ....|B-5 3F.7 ....|G-3 4F17 ....
....|..|G-1 2F.7 ....|--- .... ....|--- .... ....
..1B|..|A-1 2A.F ....|--- .... ....|A-3 4F1F ....
....|..|--- .... ....|--- .... ....|--- .... ....
....|..|C-4 AF.F ....|C#5 3F.F ....|A-3 4F1F ....
..1B|..|A-1 2A.F ....|--- .... ....|--- .... ....
....|..|C-5 VF.F ....|--- .... ....|--- .... ....
....|..|--- .... ....|--- .... ....|--- .... ....
....|..|C-5 VF.F ....|D-5 3F.F ....|A-3 4F1F ....
..1B|..|A-1 2A.F ....|--- .... ....|--- .... ....
....|..|C-5 VF.F ....|--- .... ....|G-3 4F17 ....
....|..|--- .... ....|--- .... ....|--- .... ....
....|..|C-4 AF.F ....|C#5 3F.F ....|A-3 4F1F ....
..1B|..|A-1 2A.F ....|--- .... ....|--- .... ....
....|..|G-1 2F.7 ....|--- .... ....|G-3 4F17 ....
....|..|--- .... ....|--- .... ....|--- .... ....
....|..|C-5 VF.F ....|D-5 3F.F ....|A-3 4F1F ....
..1B|..|A-1 2A.F ....|--- .... ....|--- .... ....
..1B|..|A-1 2A.F ....|--- .... ....|A-3 4F1F ....
....|..|--- .... ....|--- .... ....|--- .... ....
....|..|C-5 VF.F ....|F#5 3F.F ....|A-3 4F17 ....
....|..|A-1 2F.7 ....|--- .... ....|--- .... ....
..1B|..|A-1 2A.F ....|--- .... ....|A-3 4F1F ....
....|..|--- .... ....|--- .... ....|--- .... ....

[Pattern6]
....|..|C-4 AF.F ....|B-4 3F.F ....|B-3 4F1F ....
..18|..|B-1 2A.F ....|--- .... ....|--- .... ....
....|..|A-1 2F.7 ....|--- .... ....|A-3 4F17 ....
....|..|--- .... ....|--- .... ....|--- .... ....
..18|..|B-1 2A.F ....|C#5 3F.7 ....|B-3 4F1F ....
....|..|A-1 2F.7 ....|--- .... ....|--- .... ....
....|..|C-4 AF.F ....|--- .... ....|B-3 4F1F ....
..18|..|B-1 2A.F ....|--- .... ....|--- .... ....
....|..|C-5 VF.F ....|D-5 3F.7 ....|A-3 4F17 ....
....|..|A-1 2F.7 ....|--- .... ....|--- .... ....
..18|..|B-1 2A.F ....|--- .... ....|B-3 4F1F ....
....|..|--- .... ....|--- .... ....|--- .... ....
....|..|C-4 AF.F ....|A#5 3F.F ....|B-3 4F1F ....
..18|..|B-1 2A.F ....|--- .... ....|--- .... ....
....|..|R-- .... ....|--- .... ....|--- .... ....
....|..|--- .... ....|--- .... ....|--- .... ....
....|..|C-3 RF.F ....|B-5 3F.F ....|B-3 4F1F ....
..18|..|B-1 2A.F ....|--- .... ....|--- .... ....
....|..|C-3 RF.F ....|--- .... ....|A-3 4F17 ....
....|..|B-1 2F.A ....|--- .... ....|--- .... ....
....|..|C-4 AF.F ....|A#5 3F.F ....|B-3 4F1F ....
..18|..|B-1 2A.F ....|--- .... ....|--- .... ....
....|..|A-1 2F.7 ....|--- .... ....|A-3 4F17 ....
....|..|--- .... ....|--- .... ....|--- .... ....
....|..|C-5 VF.F ....|B-5 3F.F ....|B-3 4F1F ....
..18|..|B-1 2A.F ....|--- .... ....|--- .... ....
..18|..|B-1 2A.F ....|--- .... ....|B-3 4F1F ....
....|..|--- .... ....|--- .... ....|--- .... ....
....|..|C-4 AF.F ....|A#5 3F.F ....|B-3 4F17 ....
....|..|B-1 2F.A ....|--- .... ....|--- .... ....
..18|..|B-1 2A.F ....|--- .... ....|B-3 4F1F ....
....|..|B-1 2F.7 ....|--- .... ....|--- .... ....
....|..|C-4 AF.F ....|D-5 3F.F ....|B-3 4F1F ....
..18|..|B-1 2A.F ....|--- .... ....|--- .... ....
....|..|B-1 2F.7 ....|--- .... ....|B-3 4F17 ....
....|..|--- .... ....|--- .... ....|--- .... ....
..18|..|B-1 2A.F ....|A#5 3F.7 ....|B-3 4F1F ....
....|..|B-1 2F.7 ....|--- .... ....|--- .... ....
....|..|C-4 AF.F ....|--- .... ....|B-3 4F1F ....
..18|..|B-1 2A.F ....|--- .... ....|--- .... ....
....|..|C-5 VF.F ....|B-5 3F.7 ....|B-3 4F17 ....
....|..|B-1 2F.7 ....|--- .... ....|--- .... ....
..18|..|B-1 2A.F ....|--- .... ....|B-3 4F1F ....
....|..|--- .... ....|--- .... ....|--- .... ....
....|..|C-4 AF.F ....|C#5 3F.F ....|B-3 4F1F ....
..18|..|B-1 2A.F ....|--- .... ....|--- .... ....
....|..|R-- .... ....|--- .... ....|B-3 4F1F ....
....|..|--- .... ....|--- .... ....|--- .... ....
....|..|C-3 RF.F ....|D-5 3F.F ....|B-3 4F17 ....
..18|..|B-1 2A.F ....|--- .... ....|--- .... ....
....|..|C-3 RF.F ....|--- .... ....|B-3 4F1F ....
..18|..|B-1 2A.F ....|--- .... ....|--- .... ....
....|..|C-4 AF.F ....|C#5 3F.F ....|--- .... ....
....|..|--- .... ....|--- .... ....|--- .... ....
..18|..|B-1 2A.F ....|--- .... ....|B-3 4F1F ....
....|..|--- .... ....|--- .... ....|--- .... ....
....|..|C-5 VF.F ....|D-5 3F.F ....|B-3 4F1F ....
..18|..|B-1 2A.F ....|--- .... ....|--- .... ....
....|..|R-- .... ....|--- .... ....|B-3 4F1A ....
....|..|--- .... ....|--- .... ....|--- .... ....
....|..|C-4 AF.F ....|F#5 3F.F ....|B-3 4F.F ....
..18|..|B-1 2A.F ....|--- .... ....|--- .... ....
....|..|C-4 AF.7 ....|--- .... ....|B-3 4F17 ....
....|..|B-1 2F.7 ....|--- .... ....|--- .... ....

[Pattern7]
....|..|C-4 AF.F ....|B-4 3F.F ....|G-3 4F1F ....
..1E|..|G-1 2A.F ....|--- .... ....|--- .... ....
....|..|B-1 2F.7 ....|--- .... ....|B-3 4F17 ....
....|..|--- .... ....|--- .... ....|--- .... ....
..1E|..|G-1 2A.F ....|C#5 3F.7 ....|A-3 4F2F ....
....|..|B-1 2F.7 ....|--- .... ....|--- .... ....
....|..|C-4 AF.F ....|--- .... ....|G-3 4F1F ....
..1E|..|G-1 2A.F ....|--- .... ....|--- .... ....
....|..|C-5 VF.F ....|D-5 3F.7 ....|B-3 4F.A ....
....|..|B-1 2F.7 ....|--- .... ....|--- .... ....
..1E|..|G-1 2A.F ....|--- .... ....|G-3 4F1F ....
....|..|B-1 2F.7 ....|--- .... ....|--- .... ....
....|..|C-4 AF.F ....|A#5 3F.F ....|G-3 4F1F ....
..1E|..|G-1 2A.F ....|--- .... ....|--- .... ....
....|..|B-1 2F.7 ....|--- .... ....|B-3 4F17 ....
....|..|--- .... ....|--- .... ....|--- .... ....
....|..|C-3 RF.F ....|B-5 3F.F ....|G-3 4F1F ....
..1E|..|G-1 2A.F ....|--- .... ....|--- .... ....
....|..|C-3 RF.F ....|--- .... ....|G-3 4F1F ....
..1E|..|G-1 2A.F ....|--- .... ....|--- .... ....
....|..|C-4 AF.F ....|A#5 3F.F ....|B-3 4F.7 ....
....|..|B-1 2F.7 ....|--- .... ....|--- .... ....
..1E|..|G-1 2A.F ....|--- .... ....|G-3 4F1F ....
....|..|--- .... ....|--- .... ....|--- .... ....
....|..|C-5 VF.F ....|B-5 3F.F ....|G-3 4F1F ....
..1E|..|G-1 2A.F ....|--- .... ....|--- .... ....
....|..|R-- .... ....|--- .... ....|--- .... ....
....|..|--- .... ....|--- .... ....|--- .... ....
....|..|C-4 AF.F ....|A#5 3F.F ....|G-3 4F.F ....
..1E|..|G-1 2A.F ....|--- .... ....|--- .... ....
....|..|C-4 AF.7 ....|--- .... ....|G-3 4F17 ....
....|..|G-1 2F.7 ....|--- .... ....|--- .... ....
....|..|C-4 AF.F ....|D-5 3F.F ....|A-3 4F1F ....
..1B|..|A-1 2A.F ....|--- .... ....|--- .... ....
....|..|G-1 2F.7 ....|--- .... ....|G-3 4F17 ....
....|..|--- .... ....|--- .... ....|--- .... ....
....|..|C-4 AF.F ....|A#5 3F.7 ....|A-3 4F1F ....
..1B|..|A-1 2A.F ....|--- .... ....|--- .... ....
..1B|..|A-1 2A.F ....|--- .... ....|A-3 4F1F ....
....|..|--- .... ....|--- .... ....|--- .... ....
....|..|C-5 VF.F ....|B-5 3F.7 ....|G-3 4F17 ....
....|..|G-1 2F.7 ....|--- .... ....|--- .... ....
..1B|..|A-1 2A.F ....|--- .... ....|A-3 4F1F ....
....|..|G-1 2F.7 ....|--- .... ....|--- .... ....
....|..|C-4 AF.F ....|A#5 3F.F ....|A-3 4F1F ....
..1B|..|A-1 2A.F ....|--- .... ....|--- .... ....
....|..|G-1 2F.7 ....|--- .... ....|G-3 4F17 ....
....|..|--- .... ....|--- .... ....|--- .... ....
....|..|C-5 VF.7 ....|B-5 3F.F ....|G-3 4F17 ....
....|..|G-1 2F.7 ....|--- .... ....|--- .... ....
....|..|A-1 2F.A ....|A#5 3F.F ....|A-3 4F1A ....
....|..|--- .... ....|--- .... ....|--- .... ....
....|..|C-4 AF.7 ....|B-5 3F.F ....|G-3 4F.7 ....
....|..|G-1 2F.7 ....|--- .... ....|--- .... ....
....|..|A-1 2F.A ....|--- .... ....|A-3 4F1A ....
....|..|--- .... ....|--- .... ....|--- .... ....
....|..|C-5 VF.F ....|D-5 3F.7 ....|A-3 4F1F ....
..1B|..|A-1 2A.F ....|--- .... ....|--- .... ....
....|..|--- .... ....|--- .... ....|--- .... ....
....|..|--- .... ....|--- .... ....|--- .... ....
....|..|C-4 AF.7 ....|B-5 3F.A ....|A-3 4F17 ....
....|..|A-1 2F.7 ....|--- .... ....|--- .... ....
....|..|A-1 2F.7 ....|A#5 3F.A ....|A-3 4F17 ....
....|..|--- .... ....|--- .... ....|--- .... ....

[Pattern8]
....|..|C-4 AF.F ....|B-4 3F.F ....|E-3 4F1F ....
..24|..|E-1 2A.F ....|--- .... ....|--- .... ....
....|..|A-1 2F.7 ....|--- .... ....|A-3 4F17 ....
....|..|--- .... ....|--- .... ....|--- .... ....
..24|..|E-1 2A.F ....|A#5 3F.7 ....|E-3 4F1F ....
....|..|A-1 2F.7 ....|--- .... ....|--- .... ....
....|..|C-4 AF.F ....|--- .... ....|E-3 4F1F ....
..24|..|E-1 2A.F ....|--- .... ....|--- .... ....
....|..|C-5 VF.F ....|B-5 3F.7 ....|R-- .... ....
....|..|--- .... ....|--- .... ....|--- .... ....
..24|..|E-1 2A.F ....|A#5 3F.7 ....|E-3 4F1F ....
....|..|--- .... ....|--- .... ....|--- .... ....
....|..|C-4 AF.F ....|A#5 3F.F ....|E-3 4F1F ....
..24|..|E-1 2A.F ....|--- .... ....|--- .... ....
....|..|R-- .... ....|--- .... ....|--- .... ....
....|..|--- .... ....|--- .... ....|--- .... ....
....|..|C-3 RF.F ....|B-5 3F.F ....|E-3 4F1F ....
..24|..|E-1 2A.F ....|--- .... ....|--- .... ....
....|..|C-3 RF.F ....|--- .... ....|E-3 4F1A ....
....|..|E-1 2F.A ....|--- .... ....|--- .... ....
....|..|C-4 AF.F ....|A#5 3F.F ....|E-3 4F1F ....
..24|..|E-1 2A.F ....|--- .... ....|--- .... ....
....|..|E-1 2F.A ....|--- .... ....|E-3 4F1A ....
....|..|--- .... ....|--- .... ....|--- .... ....
....|..|C-5 VF.F ....|B-5 3F.F ....|E-3 4F1F ....
..24|..|E-1 2A.F ....|--- .... ....|--- .... ....
..24|..|E-1 2A.F ....|--- .... ....|E-3 4F1F ....
....|..|--- .... ....|--- .... ....|--- .... ....
....|..|C-4 AF.F ....|A#5 3F.F ....|E-3 4F17 ....
....|..|E-1 2F.A ....|--- .... ....|--- .... ....
..24|..|E-1 2A.F ....|--- .... ....|E-3 4F1F ....
....|..|E-1 2F.7 ....|--- .... ....|--- .... ....
....|..|C-4 AF.F ....|D-5 3F.F ....|E-3 4F1F ....
..24|..|E-1 2A.F ....|--- .... ....|--- .... ....
....|..|E-1 2F.7 ....|--- .... ....|E-3 4F17 ....
....|..|--- .... ....|--- .... ....|--- .... ....
..24|..|E-1 2A.F ....|A#5 3F.7 ....|E-3 4F1F ....
....|..|E-1 2F.7 ....|--- .... ....|--- .... ....
....|..|C-4 AF.F ....|--- .... ....|E-3 4F1F ....
..24|..|E-1 2A.F ....|--- .... ....|--- .... ....
....|..|C-5 VF.F ....|B-5 3F.7 ....|E-3 4F17 ....
....|..|E-1 2F.7 ....|--- .... ....|--- .... ....
..24|..|E-1 2A.F ....|--- .... ....|E-3 4F1F ....
....|..|--- .... ....|--- .... ....|--- .... ....
....|..|C-4 AF.F ....|C#5 3F.F ....|E-3 4F1F ....
..24|..|E-1 2A.F ....|--- .... ....|--- .... ....
....|..|R-- .... ....|--- .... ....|--- .... ....
....|..|--- .... ....|--- .... ....|--- .... ....
....|..|C-3 RF.F ....|D-5 3F.F ....|E-3 4F1F ....
..24|..|E-1 2A.F ....|--- .... ....|--- .... ....
....|..|C-3 RF.F ....|--- .... ....|E-3 4F17 ....
....|..|E-1 2F.A ....|--- .... ....|--- .... ....
....|..|C-4 AF.F ....|C#5 3F.F ....|E-3 4F1F ....
..24|..|E-1 2A.F ....|--- .... ....|--- .... ....
....|..|E-1 2F.7 ....|--- .... ....|E-3 4F17 ....
....|..|--- .... ....|--- .... ....|--- .... ....
....|..|C-5 VF.F ....|D-5 3F.F ....|E-3 4F1F ....
..24|..|E-1 2A.F ....|--- .... ....|--- .... ....
..24|..|E-1 2A.F ....|--- .... ....|E-3 4F1F ....
....|..|--- .... ....|--- .... ....|--- .... ....
....|..|C-4 AF.F ....|F#5 3F.F ....|E-3 4F17 ....
....|..|E-1 2F.A ....|--- .... ....|--- .... ....
..24|..|E-1 2A.F ....|--- .... ....|E-3 4F1F ....
....|..|E-1 2F.7 ....|--- .... ....|--- .... ....

[Pattern9]
....|..|C-4 AF.F ....|B-4 3F.F ....|G-3 4F1F ....
..1E|..|G-1 2A.F ....|--- .... ....|--- .... ....
....|..|E-1 2F.7 ....|--- .... ....|E-3 4F17 ....
....|..|--- .... ....|--- .... ....|--- .... ....
..1E|..|G-1 2A.F ....|C#5 3F.7 ....|G-3 4F1F ....
....|..|E-1 2F.7 ....|--- .... ....|--- .... ....
....|..|C-4 AF.F ....|--- .... ....|G-3 4F1F ....
..1E|..|G-1 2A.F ....|--- .... ....|--- .... ....
....|..|C-5 VF.F ....|D-5 3F.7 ....|E-3 4F17 ....
....|..|E-1 2F.7 ....|--- .... ....|--- .... ....
..1E|..|G-1 2A.F ....|--- .... ....|G-3 4F1F ....
....|..|--- .... ....|--- .... ....|--- .... ....
....|..|C-4 AF.F ....|A#5 3F.F ....|G-3 4F1F ....
..1E|..|G-1 2A.F ....|--- .... ....|--- .... ....
....|..|R-- .... ....|--- .... ....|--- .... ....
....|..|--- .... ....|--- .... ....|--- .... ....
....|..|C-3 RF.F ....|B-5 3F.F ....|G-3 4F1F ....
..1E|..|G-1 2A.F ....|--- .... ....|--- .... ....
....|..|C-3 RF.F ....|--- .... ....|E-3 4F17 ....
....|..|G-1 2F.A ....|--- .... ....|--- .... ....
....|..|C-4 AF.F ....|A#5 3F.F ....|G-3 4F1F ....
..1E|..|G-1 2A.F ....|--- .... ....|--- .... ....
....|..|E-1 2F.7 ....|--- .... ....|E-3 4F17 ....
....|..|--- .... ....|--- .... ....|--- .... ....
....|..|C-5 VF.F ....|B-5 3F.F ....|G-3 4F1F ....
..1E|..|G-1 2A.F ....|--- .... ....|--- .... ....
..1E|..|G-1 2A.F ....|--- .... ....|G-3 4F1F ....
....|..|--- .... ....|--- .... ....|--- .... ....
....|..|C-4 AF.F ....|B-5 3F.A ....|G-3 4F17 ....
....|..|G-1 2F.A ....|--- .... ....|--- .... ....
..1E|..|G-1 2A.F ....|--- .... ....|G-3 4F1F ....
....|..|G-1 2F.7 ....|--- .... ....|--- .... ....
....|..|C-4 AF.F ....|A#5 3F.A ....|A-3 4F1F ....
....|..|G-1 2F.A ....|--- .... ....|--- .... ....
....|..|G-1 2F.7 ....|--- .... ....|G-3 4F17 ....
....|..|C-4 AF.F ....|--- .... ....|--- .... ....
....|..|C-4 AF.7 ....|A#5 3F.7 ....|G-3 4F17 ....
....|..|G-1 2F.7 ....|--- .... ....|--- .... ....
....|..|C-4 AF.F ....|--- .... ....|G#3 4F1F ....
....|..|--- .... ....|--- .... ....|--- .... ....
....|..|C-3 RF.7 ....|B-5 3F.7 ....|G-3 4F17 ....
....|..|G-1 2F.7 ....|--- .... ....|--- .... ....
....|..|C-3 RF.7 ....|--- .... ....|G-3 4F1A ....
....|..|--- .... ....|--- .... ....|--- .... ....
....|..|C-4 AF.F ....|A#5 3F.7 ....|G-3 4F1F ....
....|..|G-1 2F.7 ....|--- .... ....|--- .... ....
....|..|R-- .... ....|--- .... ....|--- .... ....
....|..|C-4 AF.A ....|--- .... ....|--- .... ....
....|..|C-5 VF.7 ....|B-5 3F.7 ....|G-3 4F17 ....
....|..|G-1 2F.7 ....|--- .... ....|--- .... ....
....|..|G-1 2F.7 ....|--- .... ....|G-3 4F17 ....
....|..|--- .... ....|--- .... ....|--- .... ....
....|..|C-4 AF.F ....|R-- .... ....|F-3 4F1F ....
....|..|--- .... ....|--- .... ....|--- .... ....
....|..|G-1 2F.7 ....|--- .... ....|G-3 4F17 ....
....|..|--- .... ....|--- .... ....|--- .... ....
....|..|C-4 AF.F ....|--- .... ....|A-3 4F17 ....
....|..|R-- .... ....|--- .... ....|--- .... ....
....|..|C-5 VF.F ....|--- .... ....|E-3 4F1F ....
....|..|C-4 AF.7 ....|--- .... ....|--- .... ....
....|..|--- .... ....|--- .... ....|--- .... ....
....|..|--- .... ....|--- .... ....|B-2 4F.F ....
....|..|C-4 AF.F ....|--- .... ....|G#3 4F17 ....
....|..|--- .... ....|--- .... ....|--- .... ....

[Pattern10]
....|..|C-4 AF.A ....|B-2 3F.F ....|B-4 4F.F ....
....|..|--- .... ....|--- .... ....|--- .... ....
....|..|--- .... ....|--- .... ....|--- .... ....
....|..|--- .... ....|--- .... ....|--- .... ....
....|..|C-4 AF.7 ....|--- .... ....|B-4 4F.F ....
....|..|--- .... ....|B-2 3F.F ....|--- .... ....
....|..|C-5 VF.A ....|--- .... ....|E-3 4F1A ....
....|..|--- .... ....|--- .... ....|--- .... ....
....|..|--- .... ....|--- .... ....|F#5 4F.F ....
....|..|--- .... ....|--- .... ....|B-2 4F.A ....
....|..|C-4 AF.A ....|--- .... ....|--- .... ....
....|..|--- .... ....|B-2 3F.F ....|--- .... ....
....|..|C-4 AF.7 ....|B-2 3F.A ....|B-4 4F.F ....
....|..|--- .... ....|--- .... ....|--- .... ....
....|..|--- .... ....|--- .... ....|--- .... ....
....|..|--- .... ....|--- .... ....|--- .... ....
....|..|C-4 AF.7 ....|B-2 3F.F ....|D-5 4F.F ....
....|..|--- .... ....|B-2 3F.F ....|--- .... ....
....|..|C-5 VF.7 ....|--- .... ....|C#5 4F.F ....
....|..|--- .... ....|--- .... ....|--- .... ....
....|..|--- .... ....|--- .... ....|B-4 4F.F ....
....|..|--- .... ....|--- .... ....|B-2 4F.7 ....
....|..|C-4 AF.7 ....|--- .... ....|--- .... ....
....|..|--- .... ....|B-2 3F.F ....|--- .... ....
....|..|R-- .... ....|B-2 3F.7 ....|F#5 4F.F ....
....|..|--- .... ....|--- .... ....|--- .... ....
....|..|--- .... ....|--- .... ....|--- .... ....
....|..|--- .... ....|--- .... ....|--- .... ....
....|..|--- .... ....|B-2 3F.F ....|B-4 4F.F ....
....|..|--- .... ....|B-2 3F.7 ....|--- .... ....
....|..|--- .... ....|--- .... ....|C#5 4F.A ....
....|..|--- .... ....|--- .... ....|--- .... ....
....|..|--- .... ....|B-2 3F.F ....|D-5 4F.F ....
....|..|--- .... ....|--- .... ....|--- .... ....
....|..|--- .... ....|--- .... ....|C#5 4F.F ....
....|..|--- .... ....|B-2 3F.7 ....|--- .... ....
....|..|--- .... ....|--- .... ....|B-4 4F.F ....
....|..|--- .... ....|B-2 3F.F ....|--- .... ....
....|..|--- .... ....|--- .... ....|--- .... ....
....|..|--- .... ....|--- .... ....|--- .... ....
....|..|--- .... ....|B-2 3F.7 ....|F#5 4F.F ....
....|..|--- .... ....|B-2 3F.7 ....|--- .... ....
....|..|--- .... ....|--- .... ....|C#5 4F.7 ....
....|..|--- .... ....|B-2 3F.F ....|--- .... ....
....|..|--- .... ....|B-2 3F.A ....|B-4 4F.F ....
....|..|--- .... ....|--- .... ....|--- .... ....
....|..|--- .... ....|--- .... ....|C#5 4F.A ....
....|..|--- .... ....|B-2 3F.7 ....|--- .... ....
....|..|--- .... ....|B-2 3F.F ....|D-5 4F.F ....
....|..|--- .... ....|B-2 3F.F ....|--- .... ....
....|..|--- .... ....|--- .... ....|C#5 4F.F ....
....|..|--- .... ....|--- .... ....|--- .... ....
....|..|--- .... ....|B-2 3F.7 ....|B-4 4F.F ....
....|..|--- .... ....|--- .... ....|--- .... ....
....|..|--- .... ....|--- .... ....|--- .... ....
....|..|--- .... ....|B-2 3F.F ....|--- .... ....
....|..|--- .... ....|B-2 3F.7 ....|F#5 4F.F ....
....|..|--- .... ....|--- .... ....|--- .... ....
....|..|--- .... ....|--- .... ....|C#5 4F.7 ....
....|..|--- .... ....|--- .... ....|--- .... ....
....|..|--- .... ....|B-2 3F.F ....|B-4 4F.F ....
....|..|--- .... ....|B-2 3F.7 ....|--- .... ....
....|..|--- .... ....|--- .... ....|C#5 4F.A ....
....|..|--- .... ....|--- .... ....|--- .... ....

[Pattern11]
....|..|--- .... ....|B-2 3F.F ....|D-5 4F.F ....
....|..|--- .... ....|--- .... ....|--- .... ....
....|..|--- .... ....|--- .... ....|C#5 4F.F ....
....|..|--- .... ....|B-2 3F.7 ....|--- .... ....
....|..|--- .... ....|--- .... ....|B-4 4F.F ....
....|..|--- .... ....|B-2 3F.F ....|--- .... ....
....|..|--- .... ....|--- .... ....|--- .... ....
....|..|--- .... ....|--- .... ....|--- .... ....
....|..|--- .... ....|B-2 3F.7 ....|F#5 4F.F ....
....|..|--- .... ....|B-2 3F.7 ....|--- .... ....
....|..|--- .... ....|--- .... ....|C#5 4F.7 ....
....|..|--- .... ....|B-2 3F.F ....|--- .... ....
....|..|--- .... ....|B-2 3F.A ....|B-4 4F.F ....
....|..|--- .... ....|--- .... ....|--- .... ....
....|..|--- .... ....|--- .... ....|C#5 4F.A ....
....|..|--- .... ....|B-2 3F.7 ....|--- .... ....
....|..|--- .... ....|B-2 3F.F ....|D-5 4F.F ....
....|..|--- .... ....|B-2 3F.F ....|--- .... ....
....|..|--- .... ....|--- .... ....|C#5 4F.F ....
....|..|--- .... ....|--- .... ....|--- .... ....
....|..|--- .... ....|B-2 3F.7 ....|B-4 4F.F ....
....|..|--- .... ....|--- .... ....|--- .... ....
....|..|--- .... ....|--- .... ....|--- .... ....
....|..|--- .... ....|B-2 3F.F ....|--- .... ....
....|..|--- .... ....|B-2 3F.7 ....|F#5 4F.F ....
....|..|--- .... ....|--- .... ....|--- .... ....
....|..|--- .... ....|--- .... ....|C#5 4F.7 ....
....|..|--- .... ....|--- .... ....|--- .... ....
....|..|--- .... ....|B-2 3F.F ....|B-4 4F.F ....
....|..|--- .... ....|B-2 3F.7 ....|--- .... ....
....|..|--- .... ....|--- .... ....|C#5 4F.A ....
....|..|--- .... ....|--- .... ....|--- .... ....
....|..|--- .... ....|B-2 3F.F ....|D-5 4F.F ....
....|..|--- .... ....|--- .... ....|--- .... ....
....|..|--- .... ....|--- .... ....|C#5 4F.F ....
....|..|--- .... ....|B-2 3F.7 ....|--- .... ....
....|..|--- .... ....|--- .... ....|B-4 4F.F ....
....|..|--- .... ....|B-2 3F.F ....|--- .... ....
....|..|--- .... ....|--- .... ....|--- .... ....
....|..|--- .... ....|--- .... ....|--- .... ....
....|..|--- .... ....|B-2 3F.7 ....|F#5 4F.F ....
....|..|--- .... ....|B-2 3F.7 ....|--- .... ....
....|..|--- .... ....|--- .... ....|C#5 4F.7 ....
....|..|--- .... ....|B-2 3F.F ....|--- .... ....
....|..|--- .... ....|B-2 3F.A ....|B-4 4F.F ....
....|..|--- .... ....|--- .... ....|--- .... ....
....|..|--- .... ....|--- .... ....|C#5 4F.A ....
....|..|--- .... ....|B-2 3F.7 ....|--- .... ....
....|..|--- .... ....|B-2 3F.F ....|D-5 4F.F ....
....|..|--- .... ....|B-2 3F.F ....|--- .... ....
....|..|--- .... ....|--- .... ....|C#5 4F.F ....
....|..|--- .... ....|--- .... ....|--- .... ....
....|..|--- .... ....|B-2 3F.7 ....|B-4 4F.F ....
....|..|--- .... ....|--- .... ....|--- .... ....
....|..|--- .... ....|--- .... ....|--- .... ....
....|..|--- .... ....|B-2 3F.F ....|--- .... ....
....|..|--- .... ....|B-2 3F.7 ....|F#5 4F.F ....
....|..|--- .... ....|--- .... ....|--- .... ....
....|..|--- .... ....|--- .... ....|C#5 4F.7 ....
....|..|--- .... ....|--- .... ....|--- .... ....
....|..|--- .... ....|B-2 3F.F ....|B-4 4F.F ....
....|..|--- .... ....|B-2 3F.7 ....|--- .... ....
....|..|--- .... ....|--- .... ....|C#5 4F.A ....
....|..|--- .... ....|--- .... ....|--- .... ....

[Pattern13]
....|..|--- .... ....|G-2 3F.F ....|E-5 4F.F ....
....|..|--- .... ....|--- .... ....|--- .... ....
....|..|--- .... ....|--- .... ....|E-4 4F.F ....
....|..|--- .... ....|B-2 3F.7 ....|--- .... ....
....|..|--- .... ....|--- .... ....|E-5 4F.F ....
....|..|--- .... ....|G-2 3F.F ....|--- .... ....
....|..|--- .... ....|--- .... ....|A-4 4F.F ....
....|..|--- .... ....|--- .... ....|--- .... ....
....|..|--- .... ....|B-2 3F.7 ....|E-5 4F.F ....
....|..|--- .... ....|B-2 3F.7 ....|--- .... ....
....|..|--- .... ....|--- .... ....|C#5 4F.7 ....
....|..|--- .... ....|G-2 3F.F ....|--- .... ....
....|..|--- .... ....|G-2 3F.A ....|F#5 4F.F ....
....|..|--- .... ....|--- .... ....|--- .... ....
....|..|--- .... ....|--- .... ....|E-4 4F.A ....
....|..|--- .... ....|B-2 3F.7 ....|--- .... ....
....|..|--- .... ....|G-2 3F.F ....|E-5 4F.F ....
....|..|--- .... ....|G-2 3F.F ....|--- .... ....
....|..|--- .... ....|--- .... ....|E-4 4F.F ....
....|..|--- .... ....|--- .... ....|--- .... ....
....|..|--- .... ....|B-2 3F.7 ....|E-5 4F.F ....
....|..|--- .... ....|--- .... ....|--- .... ....
....|..|--- .... ....|--- .... ....|A-4 4F.F ....
....|..|--- .... ....|G-2 3F.F ....|--- .... ....
....|..|--- .... ....|G-2 3F.7 ....|E-5 4F.F ....
....|..|--- .... ....|--- .... ....|--- .... ....
....|..|--- .... ....|--- .... ....|E-4 4F.7 ....
....|..|--- .... ....|--- .... ....|--- .... ....
....|..|--- .... ....|G-2 3F.F ....|F#5 4F.F ....
....|..|--- .... ....|G-2 3F.7 ....|--- .... ....
....|..|--- .... ....|--- .... ....|A-4 4F.7 ....
....|..|--- .... ....|--- .... ....|--- .... ....
....|..|--- .... ....|A-2 3F.F ....|E-5 4F.F ....
....|..|--- .... ....|--- .... ....|--- .... ....
....|..|--- .... ....|--- .... ....|E-4 4F.F ....
....|..|--- .... ....|G-2 3F.7 ....|--- .... ....
....|..|--- .... ....|--- .... ....|E-5 4F.F ....
....|..|--- .... ....|A-2 3F.F ....|--- .... ....
....|..|--- .... ....|--- .... ....|A-4 4F.F ....
....|..|--- .... ....|--- .... ....|--- .... ....
....|..|--- .... ....|G-2 3F.7 ....|E-5 4F.F ....
....|..|--- .... ....|G-2 3F.7 ....|--- .... ....
....|..|--- .... ....|--- .... ....|E-4 4F.7 ....
....|..|--- .... ....|A-2 3F.F ....|--- .... ....
....|..|--- .... ....|A-2 3F.A ....|F#5 4F.F ....
....|..|--- .... ....|--- .... ....|--- .... ....
....|..|--- .... ....|--- .... ....|A-4 4F.7 ....
....|..|--- .... ....|G-2 3F.7 ....|--- .... ....
....|..|--- .... ....|A-2 3F.F ....|E-5 4F.F ....
....|..|--- .... ....|A-2 3F.F ....|--- .... ....
....|..|--- .... ....|--- .... ....|E-4 4F.F ....
....|..|--- .... ....|--- .... ....|--- .... ....
....|..|--- .... ....|G-2 3F.7 ....|E-5 4F.F ....
....|..|--- .... ....|--- .... ....|--- .... ....
....|..|--- .... ....|--- .... ....|A-4 4F.F ....
....|..|--- .... ....|A-2 3F.F ....|--- .... ....
....|..|--- .... ....|A-2 3F.7 ....|E-5 4F.F ....
....|..|--- .... ....|--- .... ....|--- .... ....
....|..|--- .... ....|--- .... ....|E-4 4F.7 ....
....|..|--- .... ....|--- .... ....|--- .... ....
....|..|--- .... ....|A-2 3F.F ....|F#5 4F.F ....
....|..|--- .... ....|A-2 3F.7 ....|--- .... ....
....|..|--- .... ....|--- .... ....|A-4 4F.7 ....
....|..|--- .... ....|--- .... ....|--- .... ....

[Pattern14]
....|..|--- .... ....|E-2 3F.F ....|B-4 4F.F ....
....|..|--- .... ....|--- .... ....|--- .... ....
....|..|--- .... ....|--- .... ....|A-4 4F.A ....
....|..|--- .... ....|A-2 3F.7 ....|--- .... ....
....|..|--- .... ....|--- .... ....|B-4 4F.F ....
....|..|--- .... ....|E-2 3F.F ....|--- .... ....
....|..|--- .... ....|--- .... ....|--- .... ....
....|..|--- .... ....|--- .... ....|--- .... ....
....|..|--- .... ....|A-2 3F.7 ....|F#5 4F.F ....
....|..|--- .... ....|A-2 3F.7 ....|--- .... ....
....|..|--- .... ....|--- .... ....|E-4 4F.7 ....
....|..|--- .... ....|E-2 3F.F ....|--- .... ....
....|..|--- .... ....|E-2 3F.A ....|B-4 4F.F ....
....|..|--- .... ....|--- .... ....|--- .... ....
....|..|--- .... ....|--- .... ....|A-4 4F.7 ....
....|..|--- .... ....|A-2 3F.7 ....|--- .... ....
....|..|--- .... ....|E-2 3F.F ....|D-5 4F.F ....
....|..|--- .... ....|E-2 3F.F ....|--- .... ....
....|..|--- .... ....|--- .... ....|C#5 4F.F ....
....|..|--- .... ....|--- .... ....|--- .... ....
....|..|--- .... ....|A-2 3F.7 ....|B-4 4F.F ....
....|..|--- .... ....|--- .... ....|--- .... ....
....|..|--- .... ....|--- .... ....|--- .... ....
....|..|--- .... ....|E-2 3F.F ....|--- .... ....
....|..|--- .... ....|E-2 3F.7 ....|F#5 4F.F ....
....|..|--- .... ....|--- .... ....|--- .... ....
....|..|--- .... ....|--- .... ....|--- .... ....
....|..|--- .... ....|--- .... ....|--- .... ....
....|..|--- .... ....|E-2 3F.F ....|B-4 4F.F ....
....|..|--- .... ....|E-2 3F.7 ....|--- .... ....
....|..|--- .... ....|--- .... ....|C#5 4F.A ....
....|..|--- .... ....|--- .... ....|--- .... ....
....|..|--- .... ....|E-2 3F.F ....|D-5 4F.F ....
....|..|--- .... ....|--- .... ....|--- .... ....
....|..|--- .... ....|--- .... ....|C#5 4F.F ....
....|..|--- .... ....|E-2 3F.7 ....|--- .... ....
....|..|--- .... ....|--- .... ....|B-4 4F.F ....
....|..|--- .... ....|E-2 3F.F ....|--- .... ....
....|..|--- .... ....|--- .... ....|--- .... ....
....|..|--- .... ....|--- .... ....|--- .... ....
....|..|--- .... ....|E-2 3F.7 ....|F#5 4F.F ....
....|..|--- .... ....|E-2 3F.7 ....|--- .... ....
....|..|--- .... ....|--- .... ....|C#5 4F.7 ....
....|..|--- .... ....|E-2 3F.F ....|--- .... ....
....|..|--- .... ....|E-2 3F.A ....|B-4 4F.F ....
....|..|--- .... ....|--- .... ....|--- .... ....
....|..|--- .... ....|--- .... ....|C#5 4F.A ....
....|..|--- .... ....|E-2 3F.7 ....|--- .... ....
....|..|--- .... ....|E-2 3F.F ....|D-5 4F.F ....
....|..|--- .... ....|E-2 3F.F ....|--- .... ....
....|..|--- .... ....|--- .... ....|C#5 4F.F ....
....|..|--- .... ....|--- .... ....|--- .... ....
....|..|--- .... ....|E-2 3F.7 ....|B-4 4F.F ....
....|..|--- .... ....|--- .... ....|--- .... ....
....|..|--- .... ....|--- .... ....|--- .... ....
....|..|--- .... ....|E-2 3F.F ....|--- .... ....
....|..|--- .... ....|E-2 3F.7 ....|F#5 4F.F ....
....|..|--- .... ....|--- .... ....|--- .... ....
....|..|--- .... ....|--- .... ....|C#5 4F.7 ....
....|..|--- .... ....|--- .... ....|--- .... ....
....|..|--- .... ....|E-2 3F.F ....|B-4 4F.F ....
....|..|--- .... ....|E-2 3F.7 ....|--- .... ....
....|..|--- .... ....|--- .... ....|C#5 4F.A ....
....|..|--- .... ....|--- .... ....|--- .... ....

[Pattern15]
....|..|--- .... ....|G-2 3F.F ....|D-5 4F.F ....
....|..|--- .... ....|--- .... ....|--- .... ....
....|..|--- .... ....|--- .... ....|C#5 4F.F ....
....|..|--- .... ....|E-2 3F.7 ....|--- .... ....
....|..|--- .... ....|--- .... ....|B-4 4F.F ....
....|..|--- .... ....|G-2 3F.F ....|--- .... ....
....|..|--- .... ....|--- .... ....|--- .... ....
....|..|--- .... ....|--- .... ....|--- .... ....
....|..|--- .... ....|E-2 3F.7 ....|F#5 4F.F ....
....|..|--- .... ....|E-2 3F.7 ....|--- .... ....
....|..|--- .... ....|--- .... ....|C#5 4F.7 ....
....|..|--- .... ....|G-2 3F.F ....|--- .... ....
....|..|--- .... ....|G-2 3F.A ....|B-4 4F.F ....
....|..|--- .... ....|--- .... ....|--- .... ....
....|..|--- .... ....|--- .... ....|C#5 4F.A ....
....|..|--- .... ....|E-2 3F.7 ....|--- .... ....
....|..|--- .... ....|G-2 3F.F ....|D-5 4F.F ....
....|..|--- .... ....|G-2 3F.F ....|--- .... ....
....|..|--- .... ....|--- .... ....|C#5 4F.F ....
....|..|--- .... ....|--- .... ....|--- .... ....
....|..|--- .... ....|E-2 3F.7 ....|B-4 4F.F ....
....|..|--- .... ....|--- .... ....|--- .... ....
....|..|--- .... ....|--- .... ....|--- .... ....
....|..|--- .... ....|G-2 3F.F ....|--- .... ....
....|..|--- .... ....|G-2 3F.7 ....|F#5 4F.F ....
....|..|--- .... ....|--- .... ....|--- .... ....
....|..|--- .... ....|--- .... ....|C#5 4F.7 ....
....|..|--- .... ....|--- .... ....|--- .... ....
....|..|--- .... ....|G-2 3F.F ....|B-4 4F.F ....
....|..|--- .... ....|G-2 3F.7 ....|--- .... ....
....|..|--- .... ....|--- .... ....|C#5 4F.A ....
....|..|--- .... ....|--- .... ....|--- .... ....
....|..|--- .... ....|A-2 3F.F ....|D-5 4F.F ....
....|..|--- .... ....|--- .... ....|--- .... ....
....|..|--- .... ....|--- .... ....|C#5 4F.F ....
....|..|--- .... ....|G-2 3F.7 ....|--- .... ....
....|..|--- .... ....|--- .... ....|B-4 4F.F ....
....|..|--- .... ....|A-2 3F.F ....|--- .... ....
....|..|--- .... ....|--- .... ....|--- .... ....
....|..|--- .... ....|--- .... ....|--- .... ....
....|..|--- .... ....|G-2 3F.7 ....|F#5 4F.F ....
....|..|--- .... ....|G-2 3F.7 ....|--- .... ....
....|..|--- .... ....|--- .... ....|C#5 4F.7 ....
....|..|--- .... ....|A-2 3F.F ....|--- .... ....
....|..|--- .... ....|A-2 3F.A ....|B-4 4F.F ....
....|..|--- .... ....|--- .... ....|--- .... ....
....|..|--- .... ....|--- .... ....|C#5 4F.A ....
....|..|--- .... ....|G-2 3F.7 ....|--- .... ....
....|..|--- .... ....|A-2 3F.F ....|D-5 4F.F ....
....|..|--- .... ....|A-2 3F.F ....|--- .... ....
....|..|--- .... ....|--- .... ....|C#5 4F.F ....
....|..|--- .... ....|--- .... ....|--- .... ....
....|..|--- .... ....|G-2 3F.7 ....|B-4 4F.F ....
....|..|--- .... ....|--- .... ....|--- .... ....
....|..|--- .... ....|--- .... ....|--- .... ....
....|..|--- .... ....|A-2 3F.F ....|--- .... ....
....|..|--- .... ....|A-2 3F.7 ....|F#5 4F.F ....
....|..|--- .... ....|--- .... ....|--- .... ....
....|..|--- .... ....|--- .... ....|C#5 4F.7 ....
....|..|--- .... ....|--- .... ....|--- .... ....
....|..|--- .... ....|A-2 3F.F ....|B-4 4F.F ....
....|..|--- .... ....|A-2 3F.7 ....|--- .... ....
....|..|--- .... ....|--- .... ....|C#5 4F.A ....
....|..|--- .... ....|--- .... ....|--- .... ....

[Pattern16]
....|..|C-5 VF.F ....|B-2 3F.F ....|D-5 4F.F ....
....|..|--- .... ....|--- .... ....|--- .... ....
....|..|R-- .... ....|--- .... ....|C#5 4F.F ....
....|..|--- .... ....|A-2 3F.7 ....|--- .... ....
....|..|--- .... ....|--- .... ....|B-4 4F.F ....
....|..|--- .... ....|B-2 3F.F ....|--- .... ....
....|..|--- .... ....|--- .... ....|--- .... ....
....|..|--- .... ....|--- .... ....|--- .... ....
....|..|C-5 VF.F ....|A-2 3F.7 ....|F#5 4F.F ....
....|..|--- .... ....|A-2 3F.7 ....|--- .... ....
....|..|R-- .... ....|--- .... ....|C#5 4F.7 ....
....|..|--- .... ....|B-2 3F.F ....|--- .... ....
....|..|C-4 LF.F ....|B-2 3F.A ....|B-4 4F.F ....
....|..|--- .... ....|--- .... ....|--- .... ....
....|..|R-- .... ....|--- .... ....|C#5 4F.A ....
....|..|--- .... ....|A-2 3F.7 ....|--- .... ....
....|..|--- .... ....|B-2 3F.F ....|D-5 4F.F ....
....|..|--- .... ....|B-2 3F.F ....|--- .... ....
....|..|C-5 VF.F ....|--- .... ....|C#5 4F.F ....
....|..|--- .... ....|--- .... ....|--- .... ....
....|..|C-5 VF.A ....|A-2 3F.7 ....|B-4 4F.F ....
....|..|--- .... ....|--- .... ....|--- .... ....
....|..|C-5 VF.F ....|--- .... ....|--- .... ....
....|..|--- .... ....|B-2 3F.F ....|--- .... ....
....|..|C-5 VF.F ....|B-2 3F.7 ....|F#5 4F.F ....
....|..|--- .... ....|--- .... ....|--- .... ....
....|..|R-- .... ....|--- .... ....|C#5 4F.7 ....
....|..|--- .... ....|--- .... ....|--- .... ....
....|..|C-4 LF.F ....|B-2 3F.F ....|B-4 4F.F ....
....|..|--- .... ....|B-2 3F.7 ....|--- .... ....
....|..|C-5 VF.A ....|--- .... ....|C#5 4F.A ....
....|..|--- .... ....|--- .... ....|--- .... ....
....|..|C-5 VF.F ....|B-2 3F.F ....|D-5 4F.F ....
....|..|--- .... ....|--- .... ....|--- .... ....
....|..|C-5 VF.A ....|--- .... ....|C#5 4F.F ....
....|..|--- .... ....|B-2 3F.7 ....|--- .... ....
....|..|C-4 AF.F ....|--- .... ....|B-4 4F.F ....
....|..|--- .... ....|B-2 3F.F ....|--- .... ....
....|..|R-- .... ....|--- .... ....|--- .... ....
....|..|--- .... ....|--- .... ....|--- .... ....
....|..|C-5 VF.F ....|B-2 3F.7 ....|F#5 4F.F ....
....|..|--- .... ....|B-2 3F.7 ....|--- .... ....
....|..|C-5 VF.7 ....|--- .... ....|C#5 4F.7 ....
....|..|--- .... ....|B-2 3F.F ....|--- .... ....
....|..|C-4 LF.F ....|B-2 3F.A ....|B-4 4F.F ....
....|..|--- .... ....|--- .... ....|--- .... ....
....|..|C-5 VF.7 ....|--- .... ....|C#5 4F.A ....
....|..|--- .... ....|B-2 3F.7 ....|--- .... ....
....|..|C-5 VF.7 ....|B-2 3F.F ....|D-5 4F.F ....
....|..|--- .... ....|B-2 3F.F ....|--- .... ....
....|..|C-5 VF.F ....|--- .... ....|C#5 4F.F ....
....|..|--- .... ....|--- .... ....|--- .... ....
....|..|C-4 LF.7 ....|B-2 3F.7 ....|B-4 4F.F ....
....|..|--- .... ....|--- .... ....|--- .... ....
....|..|C-5 VF.F ....|--- .... ....|--- .... ....
....|..|--- .... ....|B-2 3F.F ....|--- .... ....
....|..|C-5 VF.F ....|B-2 3F.7 ....|F#5 4F.F ....
....|..|--- .... ....|--- .... ....|--- .... ....
....|..|R-- .... ....|--- .... ....|C#5 4F.7 ....
....|..|--- .... ....|--- .... ....|--- .... ....
....|..|C-4 LF.F ....|B-2 3F.F ....|B-4 4F.F ....
....|..|--- .... ....|B-2 3F.7 ....|--- .... ....
....|..|C-5 VF.A ....|--- .... ....|C#5 4F.A ....
....|..|--- .... ....|--- .... ....|--- .... ....

[Pattern17]
....|..|C-5 VF.F ....|G-2 3F.F ....|E-5 4F.F ....
....|..|--- .... ....|--- .... ....|--- .... ....
....|..|C-5 VF.A ....|--- .... ....|E-4 4F.F ....
....|..|--- .... ....|B-2 3F.7 ....|--- .... ....
....|..|C-4 LF.7 ....|--- .... ....|E-5 4F.F ....
....|..|--- .... ....|G-2 3F.F ....|--- .... ....
....|..|R-- .... ....|--- .... ....|A-4 4F.F ....
....|..|--- .... ....|--- .... ....|--- .... ....
....|..|C-5 VF.F ....|B-2 3F.7 ....|E-5 4F.F ....
....|..|--- .... ....|B-2 3F.7 ....|--- .... ....
....|..|C-5 VF.7 ....|--- .... ....|C#5 4F.7 ....
....|..|--- .... ....|G-2 3F.F ....|--- .... ....
....|..|C-4 LF.F ....|G-2 3F.A ....|F#5 4F.F ....
....|..|--- .... ....|--- .... ....|--- .... ....
....|..|C-5 VF.7 ....|--- .... ....|E-4 4F.A ....
....|..|--- .... ....|B-2 3F.7 ....|--- .... ....
....|..|C-5 VF.7 ....|G-2 3F.F ....|E-5 4F.F ....
....|..|--- .... ....|G-2 3F.F ....|--- .... ....
....|..|C-5 VF.F ....|--- .... ....|E-4 4F.F ....
....|..|--- .... ....|--- .... ....|--- .... ....
....|..|C-4 LF.7 ....|B-2 3F.7 ....|E-5 4F.F ....
....|..|--- .... ....|--- .... ....|--- .... ....
....|..|C-5 VF.F ....|--- .... ....|A-4 4F.F ....
....|..|--- .... ....|G-2 3F.F ....|--- .... ....
....|..|C-5 VF.F ....|G-2 3F.7 ....|E-5 4F.F ....
....|..|--- .... ....|--- .... ....|--- .... ....
....|..|R-- .... ....|--- .... ....|E-4 4F.7 ....
....|..|--- .... ....|--- .... ....|--- .... ....
....|..|C-4 LF.F ....|G-2 3F.F ....|F#5 4F.F ....
....|..|--- .... ....|G-2 3F.7 ....|--- .... ....
....|..|C-5 VF.A ....|--- .... ....|A-4 4F.7 ....
....|..|--- .... ....|--- .... ....|--- .... ....
....|..|C-5 VF.F ....|A-2 3F.F ....|E-5 4F.F ....
....|..|--- .... ....|--- .... ....|--- .... ....
....|..|C-5 VF.A ....|--- .... ....|E-4 4F.F ....
....|..|--- .... ....|G-2 3F.7 ....|--- .... ....
....|..|C-4 AF.F ....|--- .... ....|E-5 4F.F ....
....|..|--- .... ....|A-2 3F.F ....|--- .... ....
....|..|R-- .... ....|--- .... ....|A-4 4F.F ....
....|..|--- .... ....|--- .... ....|--- .... ....
....|..|C-5 VF.F ....|G-2 3F.7 ....|E-5 4F.F ....
....|..|--- .... ....|G-2 3F.7 ....|--- .... ....
....|..|C-5 VF.7 ....|--- .... ....|E-4 4F.7 ....
....|..|--- .... ....|A-2 3F.F ....|--- .... ....
....|..|C-4 LF.F ....|A-2 3F.A ....|F#5 4F.F ....
....|..|--- .... ....|--- .... ....|--- .... ....
....|..|C-5 VF.7 ....|--- .... ....|A-4 4F.7 ....
....|..|--- .... ....|G-2 3F.7 ....|--- .... ....
....|..|C-5 VF.7 ....|A-2 3F.F ....|E-5 4F.F ....
....|..|--- .... ....|A-2 3F.F ....|--- .... ....
....|..|C-5 VF.F ....|--- .... ....|E-4 4F.F ....
....|..|--- .... ....|--- .... ....|--- .... ....
....|..|C-4 LF.7 ....|G-2 3F.7 ....|E-5 4F.F ....
....|..|--- .... ....|--- .... ....|--- .... ....
....|..|C-5 VF.F ....|--- .... ....|A-4 4F.F ....
....|..|--- .... ....|A-2 3F.F ....|--- .... ....
....|..|C-5 VF.F ....|A-2 3F.7 ....|E-5 4F.F ....
....|..|--- .... ....|--- .... ....|--- .... ....
....|..|R-- .... ....|--- .... ....|E-4 4F.7 ....
....|..|--- .... ....|--- .... ....|--- .... ....
....|..|C-4 LF.F ....|A-2 3F.F ....|F#5 4F.F ....
....|..|--- .... ....|A-2 3F.7 ....|--- .... ....
....|..|C-5 VF.A ....|--- .... ....|A-4 4F.7 ....
....|..|--- .... ....|--- .... ....|--- .... ....

[Pattern18]
....|..|C-5 VF.F ....|E-2 3F.F ....|B-4 4F.F ....
....|..|--- .... ....|--- .... ....|--- .... ....
....|..|C-5 VF.A ....|--- .... ....|A-4 4F.A ....
....|..|--- .... ....|A-2 3F.7 ....|--- .... ....
....|..|C-4 LF.7 ....|--- .... ....|B-4 4F.F ....
....|..|--- .... ....|E-2 3F.F ....|--- .... ....
....|..|R-- .... ....|--- .... ....|--- .... ....
....|..|--- .... ....|--- .... ....|--- .... ....
....|..|C-5 VF.F ....|A-2 3F.7 ....|F#5 4F.F ....
....|..|--- .... ....|A-2 3F.7 ....|--- .... ....
....|..|C-5 VF.7 ....|--- .... ....|E-4 4F.7 ....
....|..|--- .... ....|E-2 3F.F ....|--- .... ....
....|..|C-4 LF.F ....|E-2 3F.A ....|B-4 4F.F ....
....|..|--- .... ....|--- .... ....|--- .... ....
....|..|C-5 VF.7 ....|--- .... ....|A-4 4F.7 ....
....|..|--- .... ....|A-2 3F.7 ....|--- .... ....
....|..|C-5 VF.7 ....|E-2 3F.F ....|D-5 4F.F ....
....|..|--- .... ....|E-2 3F.F ....|--- .... ....
....|..|C-5 VF.F ....|--- .... ....|C#5 4F.F ....
....|..|--- .... ....|--- .... ....|--- .... ....
....|..|C-4 LF.7 ....|A-2 3F.7 ....|B-4 4F.F ....
....|..|--- .... ....|--- .... ....|--- .... ....
....|..|C-5 VF.F ....|--- .... ....|--- .... ....
....|..|--- .... ....|E-2 3F.F ....|--- .... ....
....|..|C-5 VF.F ....|E-2 3F.7 ....|F#5 4F.F ....
....|..|--- .... ....|--- .... ....|--- .... ....
....|..|R-- .... ....|--- .... ....|--- .... ....
....|..|--- .... ....|--- .... ....|--- .... ....
....|..|C-4 LF.F ....|E-2 3F.F ....|B-4 4F.F ....
....|..|--- .... ....|E-2 3F.7 ....|--- .... ....
....|..|C-5 VF.A ....|--- .... ....|C#5 4F.A ....
....|..|--- .... ....|--- .... ....|--- .... ....
....|..|C-5 VF.F ....|E-2 3F.F ....|D-5 4F.F ....
....|..|--- .... ....|--- .... ....|--- .... ....
....|..|C-5 VF.A ....|--- .... ....|C#5 4F.F ....
....|..|--- .... ....|E-2 3F.7 ....|--- .... ....
....|..|C-4 AF.F ....|--- .... ....|B-4 4F.F ....
....|..|--- .... ....|E-2 3F.F ....|--- .... ....
....|..|R-- .... ....|--- .... ....|--- .... ....
....|..|--- .... ....|--- .... ....|--- .... ....
....|..|C-5 VF.F ....|E-2 3F.7 ....|F#5 4F.F ....
....|..|--- .... ....|E-2 3F.7 ....|--- .... ....
....|..|C-5 VF.7 ....|--- .... ....|C#5 4F.7 ....
....|..|--- .... ....|E-2 3F.F ....|--- .... ....
....|..|C-4 LF.F ....|E-2 3F.A ....|B-4 4F.F ....
....|..|--- .... ....|--- .... ....|--- .... ....
....|..|C-5 VF.7 ....|--- .... ....|C#5 4F.A ....
....|..|--- .... ....|E-2 3F.7 ....|--- .... ....
....|..|C-5 VF.7 ....|E-2 3F.F ....|D-5 4F.F ....
....|..|--- .... ....|E-2 3F.F ....|--- .... ....
....|..|C-5 VF.F ....|--- .... ....|C#5 4F.F ....
....|..|--- .... ....|--- .... ....|--- .... ....
....|..|C-4 LF.7 ....|E-2 3F.7 ....|B-4 4F.F ....
....|..|--- .... ....|--- .... ....|--- .... ....
....|..|R-- .... ....|--- .... ....|--- .... ....
....|..|--- .... ....|E-2 3F.F ....|--- .... ....
....|..|C-5 VF.F ....|A-3 3F1F ....|F#5 4F.F ....
..1B|..|A-1 2A.F ....|--- .... ....|--- .... ....
....|..|R-- .... ....|--- .... ....|C#5 4F.7 ....
....|..|--- .... ....|--- .... ....|--- .... ....
....|..|C-4 AF.7 ....|E-2 3F.A ....|B-4 4F.F ....
....|..|--- .... ....|E-2 3F.7 ....|--- .... ....
....|..|C-5 VF.A ....|--- .... ....|C#5 4F.A ....
....|..|--- .... ....|--- .... ....|--- .... ....

[Pattern19]
....|..|C-4 AF.F ....|G-3 3F1F ....|D-5 4F.F ....
..1E|..|G-1 2A.F ....|--- .... ....|--- .... ....
....|..|R-- .... ....|--- .... ....|C#5 4F.F ....
....|..|--- .... ....|E-2 3F.7 ....|--- .... ....
....|..|C-4 LF.7 ....|A-3 3F1A ....|B-4 4F.F ....
..1E|..|G-1 2A.F ....|G-3 3F1F ....|--- .... ....
....|..|C-4 AF.F ....|--- .... ....|--- .... ....
....|..|--- .... ....|--- .... ....|--- .... ....
....|..|C-5 VF.F ....|E-2 3F.7 ....|F#5 4F.F ....
....|..|--- .... ....|E-2 3F.7 ....|--- .... ....
....|..|C-5 VF.7 ....|--- .... ....|C#5 4F.7 ....
..1E|..|G-1 2A.F ....|G-3 3F1F ....|--- .... ....
....|..|C-4 AF.F ....|G-3 3F1A ....|B-4 4F.F ....
....|..|G-1 2F.A ....|--- .... ....|--- .... ....
....|..|R-- .... ....|--- .... ....|C#5 4F.A ....
....|..|--- .... ....|E-2 3F.7 ....|--- .... ....
....|..|C-3 RF.F ....|G-3 3F1F ....|D-5 4F.F ....
..1E|..|G-1 2A.F ....|G-3 3F1F ....|--- .... ....
....|..|C-3 RF.F ....|--- .... ....|C#5 4F.F ....
..1E|..|G-1 2A.F ....|--- .... ....|--- .... ....
....|..|C-4 AF.F ....|--- .... ....|B-4 4F.F ....
....|..|--- .... ....|--- .... ....|--- .... ....
....|..|R-- .... ....|--- .... ....|--- .... ....
..1E|..|G-1 2A.F ....|G-3 3F1F ....|--- .... ....
....|..|C-5 VF.F ....|G-3 3F17 ....|F#5 4F.F ....
....|..|G-1 2F.7 ....|--- .... ....|--- .... ....
....|..|R-- .... ....|--- .... ....|C#5 4F.7 ....
....|..|--- .... ....|--- .... ....|--- .... ....
....|..|C-4 AF.F ....|G-3 3F1F ....|B-4 4F.F ....
..1E|..|G-1 2A.F ....|G-3 3F17 ....|--- .... ....
....|..|C-4 AF.7 ....|--- .... ....|C#5 4F.A ....
....|..|G-1 2F.A ....|--- .... ....|--- .... ....
....|..|C-4 AF.F ....|A-3 3F1F ....|D-5 4F.F ....
..1B|..|A-1 2A.F ....|--- .... ....|--- .... ....
....|..|R-- .... ....|--- .... ....|C#5 4F.F ....
....|..|G-1 2F.7 ....|G-3 3F17 ....|--- .... ....
....|..|C-4 AF.F ....|--- .... ....|B-4 4F.F ....
..1B|..|A-1 2A.F ....|A-3 3F1F ....|--- .... ....
....|..|R-- .... ....|--- .... ....|--- .... ....
....|..|--- .... ....|--- .... ....|--- .... ....
....|..|C-5 VF.F ....|G-3 3F17 ....|F#5 4F.F ....
....|..|G-1 2F.7 ....|G-3 3F17 ....|--- .... ....
....|..|C-3 RF.7 ....|--- .... ....|C#5 4F.7 ....
..1B|..|A-1 2A.F ....|A-3 3F1F ....|--- .... ....
....|..|C-4 AF.F ....|A-3 3F1A ....|B-4 4F.F ....
....|..|A-1 2F.A ....|--- .... ....|--- .... ....
....|..|R-- .... ....|--- .... ....|C#5 4F.A ....
....|..|G-1 2F.7 ....|G-3 3F17 ....|--- .... ....
....|..|C-3 RF.F ....|A-3 3F1F ....|D-5 4F.F ....
..1B|..|A-1 2A.F ....|A-3 3F1F ....|--- .... ....
....|..|C-3 RF.F ....|--- .... ....|C#5 4F.F ....
..1B|..|A-1 2A.F ....|--- .... ....|--- .... ....
....|..|C-4 AF.F ....|G-3 3F17 ....|B-4 4F.F ....
....|..|G-1 2F.7 ....|--- .... ....|--- .... ....
....|..|R-- .... ....|--- .... ....|--- .... ....
..1B|..|A-1 2A.F ....|A-3 3F1F ....|--- .... ....
....|..|C-5 VF.F ....|A-3 3F17 ....|F#5 4F.F ....
....|..|A-1 2F.7 ....|--- .... ....|--- .... ....
....|..|R-- .... ....|--- .... ....|C#5 4F.7 ....
....|..|--- .... ....|--- .... ....|--- .... ....
....|..|C-4 AF.F ....|A-3 3F1F ....|B-4 4F.F ....
..1B|..|A-1 2A.F ....|A-3 3F17 ....|--- .... ....
....|..|C-3 RF.A ....|--- .... ....|C#5 4F.A ....
....|..|A-1 2F.A ....|--- .... ....|--- .... ....

[Pattern20]
....|..|C-4 AF.F ....|B-4 3F.F ....|B-3 4F1F ....
..18|..|B-1 2A.F ....|--- .... ....|--- .... ....
....|..|R-- .... ....|--- .... ....|--- .... ....
....|..|A-1 2F.7 ....|A-3 3F17 ....|--- .... ....
..18|..|B-1 2A.F ....|--- .... ....|B-3 4F1F ....
....|..|--- .... ....|--- .... ....|--- .... ....
....|..|C-4 AF.F ....|--- .... ....|B-3 4F1F ....
..18|..|B-1 2A.F ....|--- .... ....|--- .... ....
....|..|C-5 VF.F ....|A-3 3F17 ....|D-5 4F.7 ....
....|..|A-1 2F.7 ....|A-3 3F17 ....|--- .... ....
..18|..|B-1 2A.F ....|--- .... ....|B-3 4F1F ....
....|..|A-1 2F.7 ....|--- .... ....|--- .... ....
....|..|C-4 AF.F ....|A#5 3F.F ....|B-3 4F1F ....
..18|..|B-1 2A.F ....|--- .... ....|--- .... ....
....|..|R-- .... ....|--- .... ....|--- .... ....
....|..|A-1 2F.7 ....|A-3 3F17 ....|--- .... ....
....|..|C-3 RF.F ....|B-5 3F.F ....|B-3 4F1F ....
..18|..|B-1 2A.F ....|--- .... ....|--- .... ....
....|..|C-3 RF.F ....|--- .... ....|B-3 4F1A ....
....|..|B-1 2F.A ....|--- .... ....|--- .... ....
....|..|C-4 AF.F ....|A#5 3F.F ....|B-3 4F1F ....
..18|..|B-1 2A.F ....|--- .... ....|--- .... ....
....|..|B-1 2F.A ....|--- .... ....|B-3 4F1A ....
....|..|--- .... ....|--- .... ....|--- .... ....
....|..|C-5 VF.F ....|B-5 3F.F ....|B-3 4F1F ....
..18|..|B-1 2A.F ....|--- .... ....|--- .... ....
..18|..|B-1 2A.F ....|--- .... ....|B-3 4F1F ....
....|..|--- .... ....|--- .... ....|--- .... ....
....|..|C-4 AF.F ....|A#5 3F.F ....|B-3 4F17 ....
....|..|B-1 2F.A ....|--- .... ....|--- .... ....
..18|..|B-1 2A.F ....|--- .... ....|B-3 4F1F ....
....|..|B-1 2F.7 ....|--- .... ....|--- .... ....
....|..|C-4 AF.F ....|D-5 3F.F ....|B-3 4F1F ....
..18|..|B-1 2A.F ....|--- .... ....|--- .... ....
....|..|B-1 2F.7 ....|--- .... ....|B-3 4F17 ....
....|..|--- .... ....|--- .... ....|--- .... ....
..18|..|B-1 2A.F ....|A#5 3F.7 ....|B-3 4F1F ....
....|..|B-1 2F.7 ....|--- .... ....|--- .... ....
....|..|C-4 AF.F ....|--- .... ....|B-3 4F1F ....
..18|..|B-1 2A.F ....|--- .... ....|--- .... ....
....|..|C-5 VF.F ....|B-5 3F.7 ....|B-3 4F17 ....
....|..|B-1 2F.7 ....|--- .... ....|--- .... ....
..18|..|B-1 2A.F ....|--- .... ....|B-3 4F1F ....
....|..|--- .... ....|--- .... ....|--- .... ....
....|..|C-4 AF.F ....|C#5 3F.F ....|B-3 4F1F ....
..18|..|B-1 2A.F ....|--- .... ....|--- .... ....
....|..|R-- .... ....|--- .... ....|B-3 4F1F ....
....|..|--- .... ....|--- .... ....|--- .... ....
....|..|C-3 RF.F ....|D-5 3F.F ....|B-3 4F17 ....
..18|..|B-1 2A.F ....|--- .... ....|--- .... ....
....|..|C-3 RF.F ....|--- .... ....|B-3 4F1F ....
..18|..|B-1 2A.F ....|--- .... ....|--- .... ....
....|..|C-4 AF.F ....|C#5 3F.F ....|--- .... ....
....|..|--- .... ....|--- .... ....|--- .... ....
..18|..|B-1 2A.F ....|--- .... ....|B-3 4F1F ....
....|..|--- .... ....|--- .... ....|--- .... ....
....|..|C-5 VF.F ....|D-5 3F.F ....|B-3 4F1F ....
..18|..|B-1 2A.F ....|--- .... ....|--- .... ....
....|..|R-- .... ....|--- .... ....|B-3 4F1A ....
....|..|--- .... ....|--- .... ....|--- .... ....
....|..|C-4 AF.F ....|F#5 3F.F ....|B-3 4F.F ....
..18|..|B-1 2A.F ....|--- .... ....|--- .... ....
....|..|C-4 AF.7 ....|--- .... ....|B-3 4F17 ....
....|..|B-1 2F.7 ....|--- .... ....|--- .... ....

[Pattern23]
....|..|C-4 AF.F ....|B-4 3F.F ....|G-3 4F1F ....
..1E|..|G-1 2A.F ....|--- .... ....|--- .... ....
....|..|E-1 2F.7 ....|--- .... ....|E-3 4F17 ....
....|..|--- .... ....|--- .... ....|--- .... ....
..1E|..|G-1 2A.F ....|C#5 3F.7 ....|G-3 4F1F ....
....|..|E-1 2F.7 ....|--- .... ....|--- .... ....
....|..|C-4 AF.F ....|--- .... ....|G-3 4F1F ....
..1E|..|G-1 2A.F ....|--- .... ....|--- .... ....
....|..|C-5 VF.F ....|D-5 3F.7 ....|E-3 4F17 ....
....|..|E-1 2F.7 ....|--- .... ....|--- .... ....
..1E|..|G-1 2A.F ....|--- .... ....|G-3 4F1F ....
....|..|--- .... ....|--- .... ....|--- .... ....
....|..|C-4 AF.F ....|A#5 3F.F ....|G-3 4F1F ....
..1E|..|G-1 2A.F ....|--- .... ....|--- .... ....
....|..|R-- .... ....|--- .... ....|--- .... ....
....|..|--- .... ....|--- .... ....|--- .... ....
....|..|C-3 RF.F ....|B-5 3F.F ....|G-3 4F1F ....
..1E|..|G-1 2A.F ....|--- .... ....|--- .... ....
....|..|C-3 RF.F ....|--- .... ....|E-3 4F17 ....
....|..|G-1 2F.A ....|--- .... ....|--- .... ....
....|..|C-4 AF.F ....|A#5 3F.F ....|G-3 4F1F ....
..1E|..|G-1 2A.F ....|--- .... ....|--- .... ....
....|..|E-1 2F.7 ....|--- .... ....|E-3 4F17 ....
....|..|--- .... ....|--- .... ....|--- .... ....
....|..|C-5 VF.F ....|B-5 3F.F ....|G-3 4F1F ....
..1E|..|G-1 2A.F ....|--- .... ....|--- .... ....
..1E|..|G-1 2A.F ....|--- .... ....|G-3 4F1F ....
....|..|--- .... ....|--- .... ....|--- .... ....
....|..|C-4 AF.F ....|A#5 3F.F ....|G-3 4F17 ....
....|..|G-1 2F.A ....|--- .... ....|--- .... ....
..1E|..|G-1 2A.F ....|--- .... ....|G-3 4F1F ....
....|..|G-1 2F.7 ....|--- .... ....|--- .... ....
....|..|C-4 AF.F ....|D-5 3F.F ....|A-3 4F1F ....
..1B|..|A-1 2A.F ....|--- .... ....|--- .... ....
....|..|G-1 2F.7 ....|--- .... ....|G-3 4F17 ....
....|..|--- .... ....|--- .... ....|--- .... ....
....|..|C-4 AF.F ....|A#5 3F.7 ....|A-3 4F1F ....
..1B|..|A-1 2A.F ....|--- .... ....|--- .... ....
..1B|..|A-1 2A.F ....|--- .... ....|A-3 4F1F ....
....|..|--- .... ....|--- .... ....|--- .... ....
....|..|C-5 VF.F ....|B-5 3F.7 ....|G-3 4F17 ....
....|..|G-1 2F.7 ....|--- .... ....|--- .... ....
..1B|..|A-1 2A.F ....|--- .... ....|A-3 4F1F ....
....|..|--- .... ....|--- .... ....|--- .... ....
....|..|C-4 AF.F ....|A#5 3F.F ....|A-3 4F1F ....
..1B|..|A-1 2A.F ....|--- .... ....|--- .... ....
....|..|C-5 VF.F ....|--- .... ....|A-3 4F1F ....
....|..|--- .... ....|--- .... ....|--- .... ....
....|..|C-5 VF.F ....|B-5 3F.F ....|G-3 4F17 ....
..1B|..|A-1 2A.F ....|--- .... ....|--- .... ....
....|..|C-5 VF.F ....|B-5 3F.F ....|A-3 4F1F ....
....|..|--- .... ....|--- .... ....|--- .... ....
....|..|C-4 AF.F ....|A#5 3F.F ....|--- .... ....
..1B|..|A-1 2A.F ....|--- .... ....|--- .... ....
....|..|G-1 2F.7 ....|A#5 3F.F ....|E-3 4F2F ....
....|..|--- .... ....|--- .... ....|--- .... ....
....|..|C-5 VF.F ....|B-5 3F.F ....|A-3 4F1F ....
..1B|..|A-1 2A.F ....|--- .... ....|--- .... ....
..1B|..|A-1 2A.F ....|B-5 3F.F ....|A-3 4F1F ....
....|..|--- .... ....|--- .... ....|--- .... ....
....|..|C-5 VF.F ....|A#5 3F.F ....|A-3 4F17 ....
....|..|A-1 2F.7 ....|--- .... ....|--- .... ....
..1B|..|A-1 2A.F ....|A#5 3F.F ....|A-3 4F1F ....
....|..|--- .... ....|--- .... ....|--- .... ....

[Pattern24]
....|..|C-4 AF.F ....|B-4 3F.F ....|B-3 4F1F ....
..18|..|B-1 2A.F ....|--- .... ....|--- .... ....
....|..|A-1 2F.7 ....|A#5 3F.A ....|A-3 4F17 ....
....|..|--- .... ....|--- .... ....|--- .... ....
..18|..|B-1 2A.F ....|A#5 3F.7 ....|B-3 4F1F ....
....|..|A-1 2F.7 ....|--- .... ....|--- .... ....
....|..|C-4 AF.F ....|B-5 3F.A ....|B-3 4F1F ....
..18|..|B-1 2A.F ....|--- .... ....|--- .... ....
....|..|C-5 VF.F ....|B-5 3F.7 ....|--- .... ....
....|..|A-1 2F.7 ....|--- .... ....|--- .... ....
..18|..|B-1 2A.F ....|B-5 3F.7 ....|B-3 4F1F ....
....|..|--- .... ....|--- .... ....|--- .... ....
....|..|C-4 AF.F ....|A#5 3F.F ....|B-3 4F1F ....
..18|..|B-1 2A.F ....|--- .... ....|--- .... ....
....|..|R-- .... ....|A#5 3F.7 ....|E-3 4F27 ....
....|..|--- .... ....|--- .... ....|--- .... ....
....|..|C-3 RF.F ....|B-5 3F.F ....|B-3 4F1F ....
..18|..|B-1 2A.F ....|--- .... ....|--- .... ....
....|..|C-3 RF.F ....|B-5 3F.7 ....|A-3 4F17 ....
....|..|B-1 2F.A ....|--- .... ....|--- .... ....
....|..|C-4 AF.F ....|A#5 3F.F ....|B-3 4F1F ....
..18|..|B-1 2A.F ....|--- .... ....|--- .... ....
....|..|A-1 2F.7 ....|A#5 3F.7 ....|A-3 4F17 ....
....|..|--- .... ....|--- .... ....|--- .... ....
....|..|C-5 VF.F ....|B-5 3F.F ....|B-3 4F1F ....
..18|..|B-1 2A.F ....|--- .... ....|--- .... ....
..18|..|B-1 2A.F ....|--- .... ....|B-3 4F1F ....
....|..|--- .... ....|--- .... ....|--- .... ....
....|..|C-4 AF.F ....|A#5 3F.F ....|B-3 4F17 ....
....|..|B-1 2F.A ....|--- .... ....|--- .... ....
..18|..|B-1 2A.F ....|--- .... ....|B-3 4F1F ....
....|..|B-1 2F.7 ....|--- .... ....|--- .... ....
....|..|C-4 AF.F ....|D-5 3F.F ....|B-3 4F1F ....
..18|..|B-1 2A.F ....|--- .... ....|--- .... ....
....|..|B-1 2F.7 ....|--- .... ....|B-3 4F17 ....
....|..|--- .... ....|--- .... ....|--- .... ....
..18|..|B-1 2A.F ....|A#5 3F.7 ....|B-3 4F1F ....
....|..|B-1 2F.7 ....|--- .... ....|--- .... ....
....|..|C-4 AF.F ....|--- .... ....|B-3 4F1F ....
..18|..|B-1 2A.F ....|--- .... ....|--- .... ....
....|..|C-5 VF.F ....|B-5 3F.7 ....|B-3 4F17 ....
....|..|B-1 2F.7 ....|--- .... ....|--- .... ....
..18|..|B-1 2A.F ....|--- .... ....|B-3 4F1F ....
....|..|--- .... ....|--- .... ....|--- .... ....
....|..|C-4 AF.F ....|C#5 3F.F ....|B-3 4F1F ....
..18|..|B-1 2A.F ....|--- .... ....|--- .... ....
....|..|R-- .... ....|--- .... ....|B-3 4F1F ....
....|..|--- .... ....|--- .... ....|--- .... ....
....|..|C-3 RF.F ....|D-5 3F.F ....|B-3 4F17 ....
..18|..|B-1 2A.F ....|--- .... ....|--- .... ....
....|..|C-3 RF.F ....|--- .... ....|B-3 4F1F ....
..18|..|B-1 2A.F ....|--- .... ....|--- .... ....
....|..|C-4 AF.F ....|C#5 3F.F ....|--- .... ....
....|..|--- .... ....|--- .... ....|--- .... ....
..18|..|B-1 2A.F ....|--- .... ....|B-3 4F1F ....
....|..|--- .... ....|--- .... ....|--- .... ....
....|..|C-5 VF.F ....|D-5 3F.F ....|B-3 4F1F ....
..18|..|B-1 2A.F ....|--- .... ....|--- .... ....
....|..|R-- .... ....|--- .... ....|B-3 4F1A ....
....|..|--- .... ....|--- .... ....|--- .... ....
....|..|C-4 AF.F ....|F#5 3F.F ....|B-3 4F.F ....
..18|..|B-1 2A.F ....|--- .... ....|--- .... ....
....|..|C-4 AF.7 ....|--- .... ....|B-3 4F17 ....
....|..|B-1 2F.7 ....|--- .... ....|--- .... ....

[Pattern25]
....|..|C-4 AF.F ....|B-4 3F.F ....|G-3 4F1F ....
..1E|..|G-1 2A.F ....|--- .... ....|--- .... ....
....|..|B-1 2F.7 ....|--- .... ....|B-3 4F17 ....
....|..|--- .... ....|--- .... ....|--- .... ....
..1E|..|G-1 2A.F ....|C#5 3F.7 ....|A-3 4F2F ....
....|..|B-1 2F.7 ....|--- .... ....|--- .... ....
....|..|C-4 AF.F ....|--- .... ....|G-3 4F1F ....
..1E|..|G-1 2A.F ....|--- .... ....|--- .... ....
....|..|C-5 VF.F ....|D-5 3F.7 ....|B-3 4F.A ....
....|..|B-1 2F.7 ....|--- .... ....|--- .... ....
..1E|..|G-1 2A.F ....|--- .... ....|G-3 4F1F ....
....|..|B-1 2F.7 ....|--- .... ....|--- .... ....
....|..|C-4 AF.F ....|A#5 3F.F ....|G-3 4F1F ....
..1E|..|G-1 2A.F ....|--- .... ....|--- .... ....
....|..|B-1 2F.7 ....|--- .... ....|B-3 4F17 ....
....|..|--- .... ....|--- .... ....|--- .... ....
....|..|C-3 RF.F ....|B-5 3F.F ....|G-3 4F1F ....
..1E|..|G-1 2A.F ....|--- .... ....|--- .... ....
....|..|C-3 RF.F ....|--- .... ....|G-3 4F1F ....
..1E|..|G-1 2A.F ....|--- .... ....|--- .... ....
....|..|C-4 AF.F ....|A#5 3F.F ....|B-3 4F.7 ....
....|..|B-1 2F.7 ....|--- .... ....|--- .... ....
..1E|..|G-1 2A.F ....|--- .... ....|G-3 4F1F ....
....|..|--- .... ....|--- .... ....|--- .... ....
....|..|C-5 VF.F ....|B-5 3F.F ....|G-3 4F1F ....
..1E|..|G-1 2A.F ....|--- .... ....|--- .... ....
....|..|R-- .... ....|--- .... ....|--- .... ....
....|..|--- .... ....|--- .... ....|--- .... ....
....|..|C-4 AF.F ....|A#5 3F.F ....|G-3 4F.F ....
..1E|..|G-1 2A.F ....|--- .... ....|--- .... ....
....|..|C-4 AF.7 ....|--- .... ....|G-3 4F17 ....
....|..|G-1 2F.7 ....|--- .... ....|--- .... ....
....|..|C-4 AF.F ....|D-5 3F.F ....|A-3 4F1F ....
..1B|..|A-1 2A.F ....|--- .... ....|--- .... ....
....|..|G-1 2F.7 ....|--- .... ....|G-3 4F17 ....
....|..|--- .... ....|--- .... ....|--- .... ....
....|..|C-4 AF.F ....|A#5 3F.7 ....|A-3 4F1F ....
..1B|..|A-1 2A.F ....|--- .... ....|--- .... ....
..1B|..|A-1 2A.F ....|--- .... ....|A-3 4F1F ....
....|..|--- .... ....|--- .... ....|--- .... ....
....|..|C-5 VF.F ....|B-5 3F.7 ....|G-3 4F17 ....
....|..|G-1 2F.7 ....|--- .... ....|--- .... ....
..1B|..|A-1 2A.F ....|--- .... ....|A-3 4F1F ....
....|..|G-1 2F.7 ....|--- .... ....|--- .... ....
....|..|C-4 AF.F ....|C#5 3F.F ....|A-3 4F1F ....
..1B|..|A-1 2A.F ....|--- .... ....|--- .... ....
....|..|G-1 2F.7 ....|--- .... ....|G-3 4F17 ....
....|..|--- .... ....|--- .... ....|--- .... ....
....|..|C-5 VF.7 ....|B-5 3F.7 ....|A-3 4F3F ....
....|..|G-1 2F.7 ....|--- .... ....|--- .... ....
....|..|A-1 2F.A ....|--- .... ....|E-3 4F3F ....
....|..|--- .... ....|--- .... ....|--- .... ....
....|..|C-4 AF.7 ....|A#5 3F.7 ....|A-3 4F3F ....
....|..|G-1 2F.7 ....|--- .... ....|--- .... ....
....|..|A-1 2F.A ....|--- .... ....|E-3 4F3F ....
....|..|--- .... ....|--- .... ....|--- .... ....
....|..|C-4 AF.7 ....|D-5 3F.7 ....|E-2 4F.F ....
....|..|A-1 2F.7 ....|--- .... ....|--- .... ....
....|..|--- .... ....|--- .... ....|--- .... ....
....|..|--- .... ....|--- .... ....|--- .... ....
....|..|C-4 AF.7 ....|R-- .... ....|E-3 4F.F ....
....|..|A-1 2F.7 ....|--- .... ....|--- .... ....
....|..|A-1 2F.7 ....|--- .... ....|A-3 4F17 ....
....|..|--- .... ....|--- .... ....|--- .... ....

[Pattern27]
....|..|C-4 AF.F ....|B-4 3F.F ....|G-3 4F1F ....
..1E|..|G-1 2A.F ....|--- .... ....|--- .... ....
....|..|E-1 2F.7 ....|--- .... ....|E-3 4F17 ....
....|..|--- .... ....|--- .... ....|--- .... ....
..1E|..|G-1 2A.F ....|C#5 3F.7 ....|G-3 4F1F ....
....|..|E-1 2F.7 ....|--- .... ....|--- .... ....
....|..|C-4 AF.F ....|--- .... ....|G-3 4F1F ....
..1E|..|G-1 2A.F ....|--- .... ....|--- .... ....
....|..|C-5 VF.F ....|D-5 3F.7 ....|E-3 4F17 ....
....|..|E-1 2F.7 ....|--- .... ....|--- .... ....
..1E|..|G-1 2A.F ....|--- .... ....|G-3 4F1F ....
....|..|--- .... ....|--- .... ....|--- .... ....
....|..|C-4 AF.F ....|A#5 3F.F ....|G-3 4F1F ....
..1E|..|G-1 2A.F ....|--- .... ....|--- .... ....
....|..|R-- .... ....|--- .... ....|--- .... ....
....|..|--- .... ....|--- .... ....|--- .... ....
....|..|C-3 RF.F ....|B-5 3F.F ....|G-3 4F1F ....
..1E|..|G-1 2A.F ....|--- .... ....|--- .... ....
....|..|C-3 RF.F ....|--- .... ....|E-3 4F17 ....
....|..|G-1 2F.A ....|--- .... ....|--- .... ....
....|..|C-4 AF.F ....|A#5 3F.F ....|G-3 4F1F ....
..1E|..|G-1 2A.F ....|--- .... ....|--- .... ....
....|..|E-1 2F.7 ....|--- .... ....|E-3 4F17 ....
....|..|--- .... ....|--- .... ....|--- .... ....
....|..|C-5 VF.F ....|B-5 3F.F ....|G-3 4F1F ....
..1E|..|G-1 2A.F ....|--- .... ....|--- .... ....
..1E|..|G-1 2A.F ....|--- .... ....|G-3 4F1F ....
....|..|--- .... ....|--- .... ....|--- .... ....
....|..|C-4 AF.F ....|A#5 3F.F ....|G-3 4F17 ....
....|..|G-1 2F.A ....|--- .... ....|--- .... ....
..1E|..|G-1 2A.F ....|--- .... ....|G-3 4F1F ....
....|..|G-1 2F.7 ....|--- .... ....|--- .... ....
....|..|C-4 AF.F ....|D-5 3F.F ....|A-3 4F1F ....
..1B|..|A-1 2A.F ....|--- .... ....|--- .... ....
....|..|G-1 2F.7 ....|--- .... ....|G-3 4F17 ....
....|..|--- .... ....|--- .... ....|--- .... ....
....|..|C-4 AF.F ....|A#5 3F.7 ....|A-3 4F1F ....
..1B|..|A-1 2A.F ....|--- .... ....|--- .... ....
..1B|..|A-1 2A.F ....|--- .... ....|A-3 4F1F ....
....|..|--- .... ....|--- .... ....|--- .... ....
....|..|C-5 VF.F ....|B-5 3F.7 ....|G-3 4F17 ....
....|..|G-1 2F.7 ....|--- .... ....|--- .... ....
..1B|..|A-1 2A.F ....|--- .... ....|A-3 4F1F ....
....|..|--- .... ....|--- .... ....|--- .... ....
....|..|C-4 AF.F ....|B-5 3F.F ....|A-3 4F1F ....
..1B|..|A-1 2A.F ....|--- .... ....|--- .... ....
....|..|C-5 VF.F ....|--- .... ....|--- .... ....
....|..|--- .... ....|--- .... ....|--- .... ....
....|..|C-5 VF.F ....|B-5 3F.7 ....|G-3 4F17 ....
..1B|..|A-1 2A.F ....|--- .... ....|--- .... ....
....|..|C-5 VF.F ....|--- .... ....|G-3 4F17 ....
....|..|--- .... ....|--- .... ....|--- .... ....
....|..|C-4 AF.F ....|A#5 3F.7 ....|--- .... ....
..1B|..|A-1 2A.F ....|--- .... ....|--- .... ....
....|..|G-1 2F.7 ....|--- .... ....|G-3 4F17 ....
....|..|--- .... ....|--- .... ....|--- .... ....
....|..|C-5 VF.F ....|D-5 3F.7 ....|A-3 4F1F ....
..1B|..|A-1 2A.F ....|--- .... ....|--- .... ....
..1B|..|A-1 2A.F ....|--- .... ....|--- .... ....
....|..|--- .... ....|--- .... ....|--- .... ....
....|..|C-5 VF.F ....|R-- .... ....|A-3 4F17 ....
....|..|A-1 2F.7 ....|--- .... ....|--- .... ....
..1B|..|A-1 2A.F ....|--- .... ....|A-3 4F17 ....
....|..|--- .... ....|--- .... ....|--- .... ....

[Pattern28]
....|..|C-4 AF.F ....|B-3 3F1F ....|C#5 4F.F ....
..18|..|B-1 2A.F ....|--- .... ....|--- .... ....
....|..|A-1 2F.7 ....|--- .... ....|A-3 4F17 ....
....|..|--- .... ....|--- .... ....|--- .... ....
....|..|C-4 AF.F ....|B-3 3F1F ....|A-3 4F17 ....
..18|..|B-1 2A.F ....|--- .... ....|--- .... ....
..18|..|B-1 2A.F ....|B-3 3F1F ....|--- .... ....
....|..|--- .... ....|--- .... ....|--- .... ....
....|..|C-5 VF.F ....|R-- .... ....|R-- .... ....
....|..|A-1 2F.7 ....|--- .... ....|--- .... ....
..18|..|B-1 2A.F ....|B-3 3F1F ....|--- .... ....
....|..|--- .... ....|--- .... ....|--- .... ....
....|..|C-4 AF.F ....|B-3 3F1A ....|C#5 4F.A ....
....|..|A-1 2F.7 ....|--- .... ....|--- .... ....
....|..|C-5 VF.F ....|R-- .... ....|--- .... ....
....|..|R-- .... ....|--- .... ....|--- .... ....
....|..|C-3 RF.F ....|E-3 3F2F ....|A-3 4F17 ....
..24|..|E-1 2A.F ....|--- .... ....|--- .... ....
....|..|C-5 VF.F ....|B-3 3F1A ....|--- .... ....
....|..|--- .... ....|--- .... ....|--- .... ....
....|..|C-4 AF.F ....|B-3 3F1F ....|--- .... ....
..18|..|B-1 2A.F ....|--- .... ....|--- .... ....
....|..|A-1 2F.7 ....|B-3 3F1A ....|--- .... ....
....|..|--- .... ....|--- .... ....|--- .... ....
....|..|C-5 VF.F ....|E-3 3F1F ....|C#5 4F.7 ....
..24|..|E-1 2A.F ....|--- .... ....|--- .... ....
....|..|C-5 VF.A ....|R-- .... ....|--- .... ....
....|..|R-- .... ....|--- .... ....|--- .... ....
....|..|C-4 AF.F ....|B-3 3F17 ....|R-- .... ....
....|..|B-1 2F.7 ....|--- .... ....|--- .... ....
....|..|B-1 2F.7 ....|B-3 3F17 ....|--- .... ....
....|..|--- .... ....|--- .... ....|--- .... ....
....|..|C-4 AF.F ....|B-3 3F1F ....|C#5 4F.F ....
..18|..|B-1 2A.F ....|--- .... ....|--- .... ....
....|..|B-1 2F.7 ....|B-3 3F17 ....|--- .... ....
....|..|--- .... ....|--- .... ....|--- .... ....
....|..|C-4 AF.F ....|B-3 3F1F ....|--- .... ....
..18|..|B-1 2A.F ....|--- .... ....|--- .... ....
..18|..|B-1 2A.F ....|B-3 3F1F ....|--- .... ....
....|..|R-- .... ....|--- .... ....|--- .... ....
....|..|C-5 VF.F ....|E-3 3F27 ....|R-- .... ....
....|..|E-1 2F.7 ....|--- .... ....|--- .... ....
..18|..|B-1 2A.F ....|B-3 3F1F ....|--- .... ....
....|..|--- .... ....|--- .... ....|--- .... ....
....|..|C-4 AF.F ....|B-3 3F17 ....|C#5 4F.A ....
....|..|B-1 2F.7 ....|--- .... ....|--- .... ....
....|..|C-5 VF.F ....|R-- .... ....|--- .... ....
....|..|R-- .... ....|--- .... ....|--- .... ....
....|..|C-3 RF.F ....|E-3 3F2F ....|R-- .... ....
..24|..|E-1 2A.F ....|--- .... ....|--- .... ....
....|..|C-5 VF.F ....|B-3 3F1A ....|--- .... ....
....|..|--- .... ....|--- .... ....|--- .... ....
....|..|C-4 AF.F ....|B-3 3F1F ....|--- .... ....
..18|..|B-1 2A.F ....|--- .... ....|--- .... ....
....|..|B-1 2F.A ....|B-3 3F1A ....|--- .... ....
....|..|--- .... ....|--- .... ....|--- .... ....
....|..|C-5 VF.F ....|B-3 3F17 ....|C#5 4F.7 ....
....|..|B-1 2F.7 ....|--- .... ....|--- .... ....
....|..|C-5 VF.A ....|R-- .... ....|--- .... ....
....|..|R-- .... ....|--- .... ....|--- .... ....
....|..|C-4 AF.F ....|B-3 3F17 ....|R-- .... ....
....|..|B-1 2F.7 ....|--- .... ....|--- .... ....
....|..|B-1 2F.7 ....|B-3 3F17 ....|--- .... ....
....|..|--- .... ....|--- .... ....|--- .... ....

[Pattern29]
....|..|C-4 AF.F ....|B-3 3F1A ....|A-3 4F1F ....
..1B|..|A-1 2A.F ....|--- .... ....|--- .... ....
....|..|B-1 2F.7 ....|B-3 3F17 ....|--- .... ....
....|..|--- .... ....|--- .... ....|--- .... ....
....|..|C-4 AF.F ....|--- .... ....|--- .... ....
....|..|--- .... ....|--- .... ....|--- .... ....
..1C|..|G#1 2A.F ....|R-- .... ....|G#3 4F1F ....
....|..|R-- .... ....|--- .... ....|--- .... ....
....|..|C-5 VF.F ....|E-3 3F27 ....|R-- .... ....
....|..|E-1 2F.7 ....|--- .... ....|--- .... ....
....|..|C-5 VF.7 ....|--- .... ....|--- .... ....
....|..|--- .... ....|--- .... ....|--- .... ....
....|..|C-4 AF.F ....|B-3 3F17 ....|G-3 4F1F ....
..1E|..|G-1 2A.F ....|--- .... ....|--- .... ....
....|..|C-5 VF.F ....|--- .... ....|--- .... ....
....|..|--- .... ....|--- .... ....|--- .... ....
....|..|C-3 RF.F ....|--- .... ....|--- .... ....
....|..|--- .... ....|--- .... ....|--- .... ....
....|..|C-5 VF.F ....|--- .... ....|G#3 4F1A ....
....|..|--- .... ....|--- .... ....|--- .... ....
....|..|C-4 AF.F ....|R-- .... ....|F-3 4F1F ....
..22|..|F-1 2A.F ....|--- .... ....|--- .... ....
....|..|R-- .... ....|--- .... ....|--- .... ....
....|..|--- .... ....|--- .... ....|--- .... ....
....|..|C-5 VF.F ....|--- .... ....|A-3 4F17 ....
....|..|A-1 2F.7 ....|--- .... ....|--- .... ....
..24|..|E-1 2A.F ....|--- .... ....|E-3 4F1F ....
....|..|--- .... ....|--- .... ....|--- .... ....
....|..|C-4 AF.F ....|--- .... ....|--- .... ....
....|..|--- .... ....|--- .... ....|B-2 4F.F ....
....|..|G#1 2F.7 ....|--- .... ....|G#3 4F17 ....
....|..|--- .... ....|--- .... ....|--- .... ....
....|..|C-4 AF.F ....|--- .... ....|A-3 4F1F ....
..1B|..|A-1 2A.F ....|--- .... ....|--- .... ....
....|..|R-- .... ....|--- .... ....|--- .... ....
....|..|--- .... ....|--- .... ....|--- .... ....
....|..|C-4 AF.F ....|--- .... ....|G-3 4F17 ....
....|..|G-1 2F.7 ....|--- .... ....|--- .... ....
..1C|..|G#1 2A.F ....|--- .... ....|G#3 4F1F ....
....|..|--- .... ....|--- .... ....|--- .... ....
....|..|C-5 VF.F ....|--- .... ....|--- .... ....
....|..|--- .... ....|--- .... ....|B-2 4F.A ....
....|..|C-5 VF.7 ....|--- .... ....|--- .... ....
....|..|--- .... ....|--- .... ....|--- .... ....
....|..|C-4 AF.F ....|--- .... ....|G-3 4F1F ....
..1E|..|G-1 2A.F ....|--- .... ....|--- .... ....
....|..|C-5 VF.F ....|--- .... ....|--- .... ....
....|..|--- .... ....|--- .... ....|--- .... ....
....|..|C-4 AF.F ....|--- .... ....|A-3 4F3F ....
..24|..|E-1 2A.F ....|--- .... ....|--- .... ....
....|..|C-4 AF.F ....|--- .... ....|E-3 4F3F ....
..24|..|E-1 2A.F ....|--- .... ....|--- .... ....
....|..|C-4 AF.F ....|--- .... ....|A-3 4F3F ....
..24|..|E-1 2A.F ....|--- .... ....|B-2 4F.7 ....
..24|..|E-1 2A.F ....|--- .... ....|E-3 4F3F ....
....|..|--- .... ....|--- .... ....|--- .... ....
....|..|C-5 VF.F ....|--- .... ....|E-3 4F.F ....
..12|..|E-2 2A.F ....|--- .... ....|--- .... ....
....|..|C-5 VF.A ....|--- .... ....|--- .... ....
....|..|--- .... ....|--- .... ....|--- .... ....
....|..|C-4 AF.F ....|--- .... ....|A-2 4F.F ....
..1B|..|A-1 2A.F ....|--- .... ....|--- .... ....
....|..|G#1 2F.7 ....|--- .... ....|G#3 4F17 ....
....|..|E-1 2F.A ....|--- .... ....|--- .... ....

[Pattern30]
....|..|C-4 AF.F ....|B-3 3F1F ....|C#5 4F.F ....
..18|..|B-1 2A.F ....|--- .... ....|--- .... ....
....|..|E-1 2F.A ....|--- .... ....|E-3 4F3A ....
....|..|--- .... ....|--- .... ....|--- .... ....
....|..|C-4 AF.F ....|B-3 3F1F ....|G-3 4F17 ....
..18|..|B-1 2A.F ....|--- .... ....|--- .... ....
..18|..|B-1 2A.F ....|B-3 3F1F ....|--- .... ....
....|..|--- .... ....|--- .... ....|--- .... ....
....|..|C-5 VF.F ....|--- .... ....|A-3 4F37 ....
....|..|E-1 2F.7 ....|--- .... ....|--- .... ....
..18|..|B-1 2A.F ....|B-3 3F1F ....|E-3 4F37 ....
....|..|E-1 2F.7 ....|--- .... ....|--- .... ....
....|..|C-4 AF.F ....|B-3 3F1A ....|A-3 4F37 ....
....|..|E-1 2F.7 ....|--- .... ....|--- .... ....
....|..|C-5 VF.F ....|R-- .... ....|E-3 4F37 ....
....|..|R-- .... ....|--- .... ....|--- .... ....
....|..|C-3 RF.F ....|E-3 3F2F ....|E-3 4F.7 ....
..24|..|E-1 2A.F ....|--- .... ....|--- .... ....
....|..|C-5 VF.F ....|B-3 3F1A ....|--- .... ....
....|..|--- .... ....|--- .... ....|--- .... ....
....|..|C-4 AF.F ....|B-3 3F1F ....|A-2 4F.7 ....
..18|..|B-1 2A.F ....|--- .... ....|--- .... ....
....|..|B-1 2F.A ....|B-3 3F1A ....|--- .... ....
....|..|--- .... ....|--- .... ....|--- .... ....
....|..|C-5 VF.F ....|E-3 3F1F ....|C#5 4F.7 ....
..24|..|E-1 2A.F ....|--- .... ....|--- .... ....
....|..|C-5 VF.A ....|R-- .... ....|--- .... ....
....|..|R-- .... ....|--- .... ....|--- .... ....
....|..|C-4 AF.F ....|B-3 3F17 ....|R-- .... ....
....|..|B-1 2F.7 ....|--- .... ....|--- .... ....
....|..|B-1 2F.7 ....|B-3 3F17 ....|--- .... ....
....|..|--- .... ....|--- .... ....|--- .... ....
....|..|C-4 AF.F ....|B-3 3F1F ....|C#5 4F.F ....
..18|..|B-1 2A.F ....|--- .... ....|--- .... ....
....|..|B-1 2F.7 ....|B-3 3F17 ....|--- .... ....
....|..|--- .... ....|--- .... ....|--- .... ....
....|..|C-4 AF.F ....|B-3 3F1F ....|--- .... ....
..18|..|B-1 2A.F ....|--- .... ....|--- .... ....
..18|..|B-1 2A.F ....|B-3 3F1F ....|--- .... ....
....|..|R-- .... ....|--- .... ....|--- .... ....
....|..|C-5 VF.F ....|E-3 3F27 ....|R-- .... ....
....|..|E-1 2F.7 ....|--- .... ....|--- .... ....
..18|..|B-1 2A.F ....|B-3 3F1F ....|--- .... ....
....|..|--- .... ....|--- .... ....|--- .... ....
....|..|C-4 AF.F ....|B-3 3F17 ....|C#5 4F.A ....
....|..|B-1 2F.7 ....|--- .... ....|--- .... ....
....|..|C-5 VF.F ....|R-- .... ....|--- .... ....
....|..|R-- .... ....|--- .... ....|--- .... ....
....|..|C-3 RF.F ....|E-3 3F2F ....|R-- .... ....
..24|..|E-1 2A.F ....|--- .... ....|--- .... ....
....|..|C-5 VF.F ....|B-3 3F1A ....|--- .... ....
....|..|--- .... ....|--- .... ....|--- .... ....
....|..|C-4 AF.F ....|B-3 3F1F ....|--- .... ....
..18|..|B-1 2A.F ....|--- .... ....|--- .... ....
....|..|B-1 2F.A ....|B-3 3F1A ....|--- .... ....
....|..|--- .... ....|--- .... ....|--- .... ....
....|..|C-5 VF.F ....|B-3 3F17 ....|C#5 4F.7 ....
....|..|B-1 2F.7 ....|--- .... ....|--- .... ....
....|..|C-5 VF.A ....|R-- .... ....|--- .... ....
....|..|R-- .... ....|--- .... ....|--- .... ....
....|..|C-4 AF.F ....|B-3 3F17 ....|R-- .... ....
....|..|B-1 2F.7 ....|--- .... ....|--- .... ....
....|..|B-1 2F.7 ....|B-3 3F17 ....|--- .... ....
....|..|--- .... ....|--- .... ....|--- .... ....

[Pattern31]
....|..|C-4 AF.F ....|B-3 3F1A ....|A-3 4F1F ....
..1B|..|A-1 2A.F ....|--- .... ....|--- .... ....
....|..|B-1 2F.7 ....|B-3 3F17 ....|--- .... ....
....|..|--- .... ....|--- .... ....|--- .... ....
....|..|C-4 AF.F ....|--- .... ....|--- .... ....
....|..|--- .... ....|--- .... ....|--- .... ....
..1C|..|G#1 2A.F ....|R-- .... ....|G#3 4F1F ....
....|..|R-- .... ....|--- .... ....|--- .... ....
....|..|C-5 VF.F ....|E-3 3F27 ....|R-- .... ....
....|..|E-1 2F.7 ....|--- .... ....|--- .... ....
....|..|C-5 VF.7 ....|--- .... ....|--- .... ....
....|..|--- .... ....|--- .... ....|--- .... ....
....|..|C-4 AF.F ....|B-3 3F17 ....|G-3 4F1F ....
..1E|..|G-1 2A.F ....|--- .... ....|--- .... ....
....|..|C-5 VF.F ....|--- .... ....|--- .... ....
....|..|--- .... ....|--- .... ....|--- .... ....
....|..|C-3 RF.F ....|--- .... ....|--- .... ....
....|..|--- .... ....|--- .... ....|--- .... ....
....|..|C-5 VF.F ....|--- .... ....|G#3 4F1A ....
....|..|--- .... ....|--- .... ....|--- .... ....
....|..|C-4 AF.F ....|R-- .... ....|F-3 4F1F ....
..22|..|F-1 2A.F ....|--- .... ....|--- .... ....
....|..|R-- .... ....|--- .... ....|--- .... ....
....|..|--- .... ....|--- .... ....|--- .... ....
....|..|C-5 VF.F ....|--- .... ....|A-3 4F17 ....
....|..|A-1 2F.7 ....|--- .... ....|--- .... ....
..24|..|E-1 2A.F ....|--- .... ....|E-3 4F1F ....
....|..|--- .... ....|--- .... ....|--- .... ....
....|..|C-4 AF.F ....|--- .... ....|--- .... ....
....|..|--- .... ....|--- .... ....|B-2 4F.F ....
....|..|G#1 2F.7 ....|--- .... ....|G#3 4F17 ....
....|..|--- .... ....|--- .... ....|--- .... ....
....|..|C-4 AF.F ....|--- .... ....|A-3 4F1F ....
..1B|..|A-1 2A.F ....|--- .... ....|--- .... ....
....|..|R-- .... ....|--- .... ....|--- .... ....
....|..|--- .... ....|--- .... ....|--- .... ....
....|..|C-4 AF.7 ....|--- .... ....|G-3 4F17 ....
....|..|G-1 2F.7 ....|--- .... ....|--- .... ....
....|..|C-4 AF.F ....|--- .... ....|G#3 4F1F ....
..1C|..|G#1 2A.F ....|--- .... ....|--- .... ....
....|..|C-3 RF.7 ....|--- .... ....|--- .... ....
....|..|--- .... ....|--- .... ....|B-2 4F.A ....
....|..|C-5 VF.7 ....|--- .... ....|--- .... ....
....|..|--- .... ....|--- .... ....|--- .... ....
....|..|C-4 AF.F ....|--- .... ....|G-3 4F1F ....
..1E|..|G-1 2A.F ....|--- .... ....|--- .... ....
....|..|--- .... ....|--- .... ....|--- .... ....
....|..|--- .... ....|--- .... ....|--- .... ....
..24|..|E-1 2A.F ....|--- .... ....|A-3 4F3F ....
....|..|--- .... ....|--- .... ....|--- .... ....
....|..|C-4 AF.F ....|--- .... ....|E-3 4F3F ....
..24|..|E-1 2A.F ....|--- .... ....|--- .... ....
....|..|C-4 AF.F ....|--- .... ....|A-3 4F3F ....
..24|..|E-1 2A.F ....|--- .... ....|B-2 4F.7 ....
....|..|C-4 AF.F ....|--- .... ....|E-3 4F3F ....
..24|..|E-1 2A.F ....|--- .... ....|--- .... ....
....|..|C-5 VF.F ....|--- .... ....|E-3 4F.F ....
..12|..|E-2 2A.F ....|--- .... ....|--- .... ....
....|..|--- .... ....|--- .... ....|--- .... ....
....|..|--- .... ....|--- .... ....|--- .... ....
....|..|C-4 AF.F ....|--- .... ....|A-2 4F.F ....
..1B|..|A-1 2A.F ....|--- .... ....|--- .... ....
....|..|C-4 AF.7 ....|--- .... ....|G#3 4F17 ....
....|..|G#1 2F.7 ....|--- .... ....|--- .... ....

[Pattern32]
..18|..|B-1 2A.F ....|--- .... ....|F#5 5F.F ....
....|..|E-1 2F.A ....|--- .... ....|--- .... ....
....|..|C-4 AF.A ....|--- .... ....|E-3 4F3A ....
....|..|E-1 2F.A ....|--- .... ....|--- .... ....
....|..|C-4 AF.7 ....|--- .... ....|G-3 4F17 ....
....|..|G-1 2F.7 ....|--- .... ....|--- .... ....
....|..|--- .... ....|--- .... ....|--- .... ....
....|..|--- .... ....|--- .... ....|--- .... ....
..18|..|B-1 2A.F ....|--- .... ....|F#5 5F.F ....
....|..|A-1 2F.A ....|--- .... ....|--- .... ....
....|..|C-4 AF.7 ....|--- .... ....|E-3 4F37 ....
....|..|E-1 2F.7 ....|--- .... ....|--- .... ....
....|..|C-4 AF.7 ....|--- .... ....|A-3 4F37 ....
....|..|E-1 2F.7 ....|--- .... ....|--- .... ....
....|..|C-4 AF.7 ....|--- .... ....|E-3 4F37 ....
....|..|E-1 2F.7 ....|--- .... ....|--- .... ....
..18|..|B-1 2A.F ....|--- .... ....|F#5 5F.F ....
....|..|E-2 2F.7 ....|--- .... ....|--- .... ....
....|..|--- .... ....|--- .... ....|--- .... ....
....|..|--- .... ....|--- .... ....|--- .... ....
....|..|C-4 AF.7 ....|--- .... ....|A-2 4F.7 ....
....|..|A-1 2F.7 ....|--- .... ....|--- .... ....
....|..|--- .... ....|--- .... ....|--- .... ....
....|..|--- .... ....|--- .... ....|--- .... ....
..18|..|B-1 2A.F ....|--- .... ....|F#5 5F.F ....
....|..|--- .... ....|--- .... ....|--- .... ....
....|..|--- .... ....|--- .... ....|--- .... ....
....|..|--- .... ....|--- .... ....|--- .... ....
....|..|B-1 2F.A ....|--- .... ....|F#5 5F.A ....
....|..|--- .... ....|--- .... ....|--- .... ....
....|..|--- .... ....|--- .... ....|F#5 5F.F ....
....|..|--- .... ....|--- .... ....|--- .... ....
..18|..|B-1 2A.F ....|--- .... ....|F#5 5F.F ....
....|..|--- .... ....|--- .... ....|--- .... ....
....|..|--- .... ....|--- .... ....|--- .... ....
....|..|--- .... ....|--- .... ....|--- .... ....
....|..|B-1 2F.A ....|--- .... ....|F#5 5F.A ....
....|..|--- .... ....|--- .... ....|--- .... ....
....|..|--- .... ....|--- .... ....|--- .... ....
....|..|--- .... ....|--- .... ....|--- .... ....
..18|..|B-1 2A.F ....|--- .... ....|F#5 5F.F ....
....|..|--- .... ....|--- .... ....|--- .... ....
....|..|--- .... ....|--- .... ....|F#5 5F.A ....
....|..|--- .... ....|--- .... ....|--- .... ....
....|..|B-1 2F.A ....|--- .... ....|F#5 5F.A ....
....|..|--- .... ....|--- .... ....|--- .... ....
....|..|--- .... ....|--- .... ....|--- .... ....
....|..|--- .... ....|--- .... ....|--- .... ....
..18|..|B-1 2A.F ....|--- .... ....|F#5 5F.F ....
....|..|--- .... ....|--- .... ....|--- .... ....
....|..|--- .... ....|--- .... ....|--- .... ....
....|..|--- .... ....|--- .... ....|--- .... ....
....|..|B-1 2F.A ....|--- .... ....|F#5 5F.A ....
....|..|--- .... ....|--- .... ....|--- .... ....
....|..|--- .... ....|--- .... ....|F#5 5F.7 ....
....|..|--- .... ....|--- .... ....|--- .... ....
..18|..|B-1 2A.F ....|--- .... ....|F#5 5F.F ....
....|..|--- .... ....|--- .... ....|--- .... ....
....|..|--- .... ....|--- .... ....|--- .... ....
....|..|--- .... ....|--- .... ....|--- .... ....
....|..|B-1 2F.A ....|--- .... ....|F#5 5F.F ....
....|..|--- .... ....|--- .... ....|--- .... ....
....|..|--- .... ....|--- .... ....|--- .... ....
....|..|--- .... ....|--- .... ....|--- .... ....

[Pattern33]
..18|..|B-1 2A.F ....|--- .... ....|F#5 5F.F ....
....|..|--- .... ....|--- .... ....|--- .... ....
....|..|--- .... ....|--- .... ....|--- .... ....
....|..|--- .... ....|--- .... ....|--- .... ....
....|..|B-1 2F.A ....|--- .... ....|F#5 5F.A ....
....|..|--- .... ....|--- .... ....|--- .... ....
....|..|--- .... ....|--- .... ....|--- .... ....
....|..|--- .... ....|--- .... ....|--- .... ....
..18|..|B-1 2A.F ....|--- .... ....|F#5 5F.F ....
....|..|--- .... ....|--- .... ....|--- .... ....
....|..|--- .... ....|--- .... ....|--- .... ....
....|..|--- .... ....|--- .... ....|--- .... ....
....|..|B-1 2F.A ....|--- .... ....|F#5 5F.A ....
....|..|--- .... ....|--- .... ....|--- .... ....
....|..|--- .... ....|--- .... ....|--- .... ....
....|..|--- .... ....|--- .... ....|--- .... ....
..18|..|B-1 2A.F ....|--- .... ....|F#5 5F.F ....
....|..|--- .... ....|--- .... ....|--- .... ....
....|..|--- .... ....|--- .... ....|--- .... ....
....|..|--- .... ....|--- .... ....|--- .... ....
....|..|B-1 2F.A ....|--- .... ....|F#5 5F.7 ....
....|..|--- .... ....|--- .... ....|--- .... ....
....|..|--- .... ....|--- .... ....|--- .... ....
....|..|--- .... ....|--- .... ....|--- .... ....
..18|..|B-1 2A.F ....|--- .... ....|F#5 5F.F ....
....|..|--- .... ....|--- .... ....|--- .... ....
....|..|--- .... ....|--- .... ....|--- .... ....
....|..|--- .... ....|--- .... ....|--- .... ....
....|..|B-1 2F.A ....|--- .... ....|F#5 5F.A ....
....|..|--- .... ....|--- .... ....|--- .... ....
....|..|--- .... ....|--- .... ....|--- .... ....
....|..|--- .... ....|--- .... ....|--- .... ....
..18|..|B-1 2A.F ....|--- .... ....|F-5 5F.F ....
....|..|--- .... ....|--- .... ....|--- .... ....
....|..|--- .... ....|--- .... ....|--- .... ....
....|..|--- .... ....|--- .... ....|--- .... ....
....|..|B-1 2F.A ....|--- .... ....|F#5 5F.A ....
....|..|--- .... ....|--- .... ....|--- .... ....
....|..|--- .... ....|--- .... ....|--- .... ....
....|..|--- .... ....|--- .... ....|--- .... ....
..18|..|B-1 2A.F ....|--- .... ....|F-5 5F.F ....
....|..|--- .... ....|--- .... ....|--- .... ....
....|..|--- .... ....|--- .... ....|--- .... ....
....|..|--- .... ....|--- .... ....|--- .... ....
....|..|B-1 2F.A ....|--- .... ....|F-5 5F.A ....
....|..|--- .... ....|--- .... ....|--- .... ....
....|..|--- .... ....|--- .... ....|--- .... ....
....|..|--- .... ....|--- .... ....|--- .... ....
..18|..|B-1 2A.F ....|--- .... ....|D-5 5F.F ....
....|..|--- .... ....|--- .... ....|--- .... ....
....|..|--- .... ....|--- .... ....|--- .... ....
....|..|--- .... ....|--- .... ....|--- .... ....
....|..|B-1 2F.A ....|--- .... ....|F-5 5F.A ....
....|..|--- .... ....|--- .... ....|--- .... ....
....|..|--- .... ....|--- .... ....|D-5 5F.F ....
....|..|--- .... ....|--- .... ....|--- .... ....
..18|..|B-1 2A.F ....|--- .... ....|F-5 5F.7 ....
....|..|--- .... ....|--- .... ....|--- .... ....
....|..|--- .... ....|--- .... ....|--- .... ....
....|..|--- .... ....|--- .... ....|--- .... ....
....|..|B-1 2F.A ....|--- .... ....|F-5 5F.F ....
....|..|--- .... ....|--- .... ....|--- .... ....
....|..|--- .... ....|--- .... ....|--- .... ....
....|..|--- .... ....|--- .... ....|--- .... ....

[Pattern34]
..18|..|B-1 2A.F ....|B-3 3F1F ....|F#5 5F.F ....
....|..|--- .... ....|--- .... ....|--- .... ....
....|..|--- .... ....|--- .... ....|D-5 5F.A ....
....|..|--- .... ....|--- .... ....|--- .... ....
....|..|B-1 2F.A ....|--- .... ....|--- .... ....
....|..|--- .... ....|--- .... ....|--- .... ....
....|..|--- .... ....|--- .... ....|--- .... ....
....|..|--- .... ....|--- .... ....|--- .... ....
..18|..|B-1 2A.F ....|--- .... ....|F#5 5F.F ....
....|..|--- .... ....|--- .... ....|--- .... ....
....|..|--- .... ....|--- .... ....|--- .... ....
....|..|--- .... ....|--- .... ....|--- .... ....
....|..|B-1 2F.A ....|B-3 3F1A ....|F#5 5F.A ....
....|..|--- .... ....|--- .... ....|--- .... ....
....|..|--- .... ....|--- .... ....|D-5 5F.7 ....
....|..|--- .... ....|--- .... ....|--- .... ....
..18|..|B-1 2A.F ....|R-- .... ....|F#5 5F.F ....
....|..|--- .... ....|--- .... ....|--- .... ....
....|..|--- .... ....|--- .... ....|--- .... ....
....|..|--- .... ....|--- .... ....|--- .... ....
....|..|B-1 2F.A ....|--- .... ....|F-5 5F.7 ....
....|..|--- .... ....|--- .... ....|--- .... ....
....|..|--- .... ....|--- .... ....|--- .... ....
....|..|--- .... ....|--- .... ....|--- .... ....
..18|..|B-1 2A.F ....|B-3 3F17 ....|F#5 5F.F ....
....|..|--- .... ....|--- .... ....|--- .... ....
....|..|--- .... ....|--- .... ....|--- .... ....
....|..|--- .... ....|--- .... ....|--- .... ....
....|..|B-1 2F.A ....|R-- .... ....|F#5 5F.A ....
....|..|--- .... ....|--- .... ....|--- .... ....
....|..|--- .... ....|--- .... ....|F#5 5F.F ....
....|..|--- .... ....|--- .... ....|--- .... ....
..18|..|B-1 2A.F ....|--- .... ....|F#5 5F.F ....
....|..|--- .... ....|--- .... ....|--- .... ....
....|..|--- .... ....|--- .... ....|--- .... ....
....|..|--- .... ....|--- .... ....|--- .... ....
....|..|B-1 2F.A ....|--- .... ....|F#5 5F.A ....
....|..|--- .... ....|--- .... ....|--- .... ....
....|..|--- .... ....|--- .... ....|--- .... ....
....|..|--- .... ....|--- .... ....|--- .... ....
..18|..|B-1 2A.F ....|R-- .... ....|F#5 5F.F ....
....|..|--- .... ....|--- .... ....|--- .... ....
....|..|--- .... ....|--- .... ....|F#5 5F.A ....
....|..|--- .... ....|--- .... ....|--- .... ....
....|..|B-1 2F.A ....|--- .... ....|F#5 5F.A ....
....|..|--- .... ....|--- .... ....|--- .... ....
....|..|--- .... ....|--- .... ....|--- .... ....
....|..|--- .... ....|--- .... ....|--- .... ....
..18|..|B-1 2A.F ....|--- .... ....|F#5 5F.F ....
....|..|--- .... ....|--- .... ....|--- .... ....
....|..|--- .... ....|--- .... ....|--- .... ....
....|..|--- .... ....|--- .... ....|--- .... ....
....|..|B-1 2F.A ....|--- .... ....|F#5 5F.A ....
....|..|--- .... ....|--- .... ....|--- .... ....
....|..|--- .... ....|--- .... ....|F#5 5F.7 ....
....|..|--- .... ....|--- .... ....|--- .... ....
..18|..|B-1 2A.F ....|--- .... ....|F#5 5F.F ....
....|..|--- .... ....|--- .... ....|--- .... ....
....|..|--- .... ....|--- .... ....|--- .... ....
....|..|--- .... ....|--- .... ....|--- .... ....
....|..|B-1 2F.A ....|--- .... ....|F#5 5F.F ....
....|..|--- .... ....|--- .... ....|--- .... ....
....|..|--- .... ....|--- .... ....|--- .... ....
....|..|--- .... ....|--- .... ....|--- .... ....

[Pattern36]
....|..|C-5 VF.F ....|B-2 3F.F ....|F#5 5F.F ....
..18|..|B-1 2A.F ....|--- .... ....|--- .... ....
....|..|R-- .... ....|--- .... ....|D-5 5F.A ....
....|..|--- .... ....|--- .... ....|--- .... ....
....|..|B-1 2F.A ....|--- .... ....|--- .... ....
....|..|--- .... ....|B-2 3F.F ....|--- .... ....
....|..|--- .... ....|--- .... ....|--- .... ....
....|..|--- .... ....|--- .... ....|--- .... ....
....|..|C-5 VF.F ....|--- .... ....|F#5 5F.F ....
..18|..|B-1 2A.F ....|--- .... ....|--- .... ....
....|..|R-- .... ....|--- .... ....|--- .... ....
....|..|--- .... ....|B-2 3F.F ....|--- .... ....
....|..|C-4 LF.F ....|B-2 3F.A ....|F#5 5F.A ....
....|..|B-1 2F.A ....|--- .... ....|--- .... ....
....|..|R-- .... ....|--- .... ....|D-5 5F.7 ....
....|..|--- .... ....|--- .... ....|--- .... ....
..18|..|B-1 2A.F ....|B-2 3F.F ....|F#5 5F.F ....
....|..|--- .... ....|B-2 3F.F ....|--- .... ....
....|..|C-5 VF.F ....|--- .... ....|--- .... ....
....|..|--- .... ....|--- .... ....|--- .... ....
....|..|C-5 VF.A ....|--- .... ....|F-5 5F.7 ....
....|..|B-1 2F.A ....|--- .... ....|--- .... ....
....|..|C-5 VF.F ....|--- .... ....|--- .... ....
....|..|--- .... ....|B-2 3F.F ....|--- .... ....
....|..|C-5 VF.F ....|B-2 3F.7 ....|F#5 5F.F ....
..18|..|B-1 2A.F ....|--- .... ....|--- .... ....
....|..|R-- .... ....|--- .... ....|--- .... ....
....|..|--- .... ....|--- .... ....|--- .... ....
....|..|C-4 LF.F ....|B-2 3F.F ....|F#5 5F.A ....
....|..|R-- .... ....|B-2 3F.7 ....|--- .... ....
....|..|C-5 VF.A ....|--- .... ....|F#5 5F.F ....
....|..|--- .... ....|--- .... ....|--- .... ....
....|..|C-5 VF.F ....|B-2 3F.F ....|F#5 5F.F ....
..18|..|B-1 2A.F ....|--- .... ....|--- .... ....
....|..|C-5 VF.A ....|--- .... ....|--- .... ....
....|..|--- .... ....|B-2 3F.7 ....|--- .... ....
....|..|C-4 AF.F ....|--- .... ....|F#5 5F.A ....
....|..|B-1 2F.A ....|B-2 3F.F ....|--- .... ....
....|..|R-- .... ....|--- .... ....|--- .... ....
....|..|--- .... ....|--- .... ....|--- .... ....
....|..|C-5 VF.F ....|B-2 3F.7 ....|F#5 5F.F ....
..18|..|B-1 2A.F ....|B-2 3F.7 ....|--- .... ....
....|..|C-5 VF.7 ....|--- .... ....|F#5 5F.A ....
....|..|--- .... ....|B-2 3F.F ....|--- .... ....
....|..|C-4 LF.F ....|B-2 3F.A ....|F#5 5F.A ....
....|..|B-1 2F.A ....|--- .... ....|--- .... ....
....|..|C-5 VF.7 ....|--- .... ....|--- .... ....
....|..|--- .... ....|B-2 3F.7 ....|--- .... ....
..18|..|B-1 2A.F ....|B-2 3F.F ....|F#5 5F.F ....
....|..|B-1 2F.7 ....|B-2 3F.F ....|--- .... ....
....|..|C-5 VF.F ....|--- .... ....|--- .... ....
....|..|--- .... ....|--- .... ....|--- .... ....
....|..|C-4 LF.7 ....|B-2 3F.7 ....|F#5 5F.A ....
....|..|B-1 2F.A ....|--- .... ....|--- .... ....
....|..|C-5 VF.F ....|--- .... ....|F#5 5F.7 ....
....|..|--- .... ....|B-2 3F.F ....|--- .... ....
....|..|C-5 VF.F ....|B-2 3F.7 ....|F#5 5F.F ....
..18|..|B-1 2A.F ....|--- .... ....|--- .... ....
....|..|R-- .... ....|--- .... ....|--- .... ....
....|..|--- .... ....|--- .... ....|--- .... ....
....|..|C-4 LF.F ....|B-2 3F.F ....|F#5 5F.F ....
....|..|R-- .... ....|B-2 3F.7 ....|--- .... ....
....|..|C-5 VF.A ....|--- .... ....|--- .... ....
....|..|--- .... ....|--- .... ....|--- .... ....

[Pattern37]
....|..|C-5 VF.F ....|G-2 3F.F ....|F#5 5F.F ....
..18|..|B-1 2A.F ....|--- .... ....|--- .... ....
....|..|C-5 VF.A ....|--- .... ....|--- .... ....
....|..|--- .... ....|B-2 3F.7 ....|--- .... ....
....|..|C-4 LF.7 ....|--- .... ....|F#5 5F.A ....
....|..|B-1 2F.A ....|G-2 3F.F ....|--- .... ....
....|..|R-- .... ....|--- .... ....|--- .... ....
....|..|--- .... ....|--- .... ....|--- .... ....
....|..|C-5 VF.F ....|B-2 3F.7 ....|F#5 5F.F ....
..18|..|B-1 2A.F ....|B-2 3F.7 ....|--- .... ....
....|..|C-5 VF.7 ....|--- .... ....|--- .... ....
....|..|--- .... ....|G-2 3F.F ....|--- .... ....
....|..|C-4 LF.F ....|G-2 3F.A ....|F#5 5F.A ....
....|..|B-1 2F.A ....|--- .... ....|--- .... ....
....|..|C-5 VF.7 ....|--- .... ....|--- .... ....
....|..|--- .... ....|B-2 3F.7 ....|--- .... ....
..18|..|B-1 2A.F ....|G-2 3F.F ....|F#5 5F.F ....
....|..|B-1 2F.7 ....|G-2 3F.F ....|--- .... ....
....|..|C-5 VF.F ....|--- .... ....|--- .... ....
....|..|--- .... ....|--- .... ....|--- .... ....
....|..|C-4 LF.7 ....|B-2 3F.7 ....|F#5 5F.7 ....
....|..|B-1 2F.A ....|--- .... ....|--- .... ....
....|..|C-5 VF.F ....|--- .... ....|--- .... ....
....|..|--- .... ....|G-2 3F.F ....|--- .... ....
....|..|C-5 VF.F ....|G-2 3F.7 ....|F#5 5F.F ....
..18|..|B-1 2A.F ....|--- .... ....|--- .... ....
....|..|R-- .... ....|--- .... ....|--- .... ....
....|..|--- .... ....|--- .... ....|--- .... ....
....|..|C-4 LF.F ....|G-2 3F.F ....|F#5 5F.A ....
....|..|R-- .... ....|G-2 3F.7 ....|--- .... ....
....|..|C-5 VF.A ....|--- .... ....|--- .... ....
....|..|--- .... ....|--- .... ....|--- .... ....
....|..|C-5 VF.F ....|A-2 3F.F ....|F-5 5F.F ....
..18|..|B-1 2A.F ....|--- .... ....|--- .... ....
....|..|C-5 VF.A ....|--- .... ....|--- .... ....
....|..|--- .... ....|G-2 3F.7 ....|--- .... ....
....|..|C-4 AF.F ....|--- .... ....|F#5 5F.A ....
....|..|B-1 2F.A ....|A-2 3F.F ....|--- .... ....
....|..|R-- .... ....|--- .... ....|--- .... ....
....|..|--- .... ....|--- .... ....|--- .... ....
....|..|C-5 VF.F ....|G-2 3F.7 ....|F-5 5F.F ....
..18|..|B-1 2A.F ....|G-2 3F.7 ....|--- .... ....
....|..|C-5 VF.7 ....|--- .... ....|--- .... ....
....|..|--- .... ....|A-2 3F.F ....|--- .... ....
....|..|C-4 LF.F ....|A-2 3F.A ....|F-5 5F.A ....
....|..|B-1 2F.A ....|--- .... ....|--- .... ....
....|..|C-5 VF.7 ....|--- .... ....|--- .... ....
....|..|--- .... ....|G-2 3F.7 ....|--- .... ....
..18|..|B-1 2A.F ....|A-2 3F.F ....|D-5 5F.F ....
....|..|B-1 2F.7 ....|A-2 3F.F ....|--- .... ....
....|..|C-5 VF.F ....|--- .... ....|--- .... ....
....|..|--- .... ....|--- .... ....|--- .... ....
....|..|C-4 LF.7 ....|G-2 3F.7 ....|F-5 5F.A ....
....|..|B-1 2F.A ....|--- .... ....|--- .... ....
....|..|C-5 VF.F ....|--- .... ....|D-5 5F.F ....
....|..|--- .... ....|A-2 3F.F ....|--- .... ....
....|..|C-5 VF.F ....|A-2 3F.7 ....|F-5 5F.7 ....
..18|..|B-1 2A.F ....|--- .... ....|--- .... ....
....|..|R-- .... ....|--- .... ....|--- .... ....
....|..|--- .... ....|--- .... ....|--- .... ....
....|..|C-4 LF.F ....|A-2 3F.F ....|F-5 5F.F ....
....|..|R-- .... ....|A-2 3F.7 ....|--- .... ....
....|..|C-5 VF.A ....|--- .... ....|--- .... ....
....|..|--- .... ....|--- .... ....|--- .... ....

[Pattern38]
....|..|C-5 VF.F ....|E-2 3F.F ....|F#5 5F.F ....
..18|..|B-1 2A.F ....|--- .... ....|--- .... ....
....|..|C-5 VF.A ....|--- .... ....|D-5 5F.A ....
....|..|--- .... ....|A-2 3F.7 ....|--- .... ....
....|..|C-4 LF.7 ....|--- .... ....|--- .... ....
....|..|B-1 2F.A ....|E-2 3F.F ....|--- .... ....
....|..|R-- .... ....|--- .... ....|--- .... ....
....|..|--- .... ....|--- .... ....|--- .... ....
....|..|C-5 VF.F ....|A-2 3F.7 ....|F#5 5F.F ....
..18|..|B-1 2A.F ....|A-2 3F.7 ....|--- .... ....
....|..|C-5 VF.7 ....|--- .... ....|--- .... ....
....|..|--- .... ....|E-2 3F.F ....|--- .... ....
....|..|C-4 LF.F ....|E-2 3F.A ....|F#5 5F.A ....
....|..|B-1 2F.A ....|--- .... ....|--- .... ....
....|..|C-5 VF.7 ....|--- .... ....|D-5 5F.7 ....
....|..|--- .... ....|A-2 3F.7 ....|--- .... ....
..18|..|B-1 2A.F ....|E-2 3F.F ....|F#5 5F.F ....
....|..|B-1 2F.7 ....|E-2 3F.F ....|--- .... ....
....|..|C-5 VF.F ....|--- .... ....|--- .... ....
....|..|--- .... ....|--- .... ....|--- .... ....
....|..|C-4 LF.7 ....|A-2 3F.7 ....|F-5 5F.7 ....
....|..|B-1 2F.A ....|--- .... ....|--- .... ....
....|..|C-5 VF.F ....|--- .... ....|--- .... ....
....|..|--- .... ....|E-2 3F.F ....|--- .... ....
....|..|C-5 VF.F ....|E-2 3F.7 ....|F#5 5F.F ....
..18|..|B-1 2A.F ....|--- .... ....|--- .... ....
....|..|R-- .... ....|--- .... ....|--- .... ....
....|..|--- .... ....|--- .... ....|--- .... ....
....|..|C-4 LF.F ....|E-2 3F.F ....|F#5 5F.A ....
....|..|R-- .... ....|E-2 3F.7 ....|--- .... ....
....|..|C-5 VF.A ....|--- .... ....|F#5 5F.F ....
....|..|--- .... ....|--- .... ....|--- .... ....
....|..|C-5 VF.F ....|E-2 3F.F ....|F#5 5F.F ....
..18|..|B-1 2A.F ....|--- .... ....|--- .... ....
....|..|C-5 VF.A ....|--- .... ....|--- .... ....
....|..|--- .... ....|E-2 3F.7 ....|--- .... ....
....|..|C-4 AF.F ....|--- .... ....|F#5 5F.A ....
....|..|B-1 2F.A ....|E-2 3F.F ....|--- .... ....
....|..|R-- .... ....|--- .... ....|--- .... ....
....|..|--- .... ....|--- .... ....|--- .... ....
....|..|C-5 VF.F ....|E-2 3F.7 ....|F#5 5F.F ....
..18|..|B-1 2A.F ....|E-2 3F.7 ....|--- .... ....
....|..|C-5 VF.7 ....|--- .... ....|F#5 5F.A ....
....|..|--- .... ....|E-2 3F.F ....|--- .... ....
....|..|C-4 LF.F ....|E-2 3F.A ....|F#5 5F.A ....
....|..|B-1 2F.A ....|--- .... ....|--- .... ....
....|..|C-5 VF.7 ....|--- .... ....|--- .... ....
....|..|--- .... ....|E-2 3F.7 ....|--- .... ....
..18|..|B-1 2A.F ....|E-2 3F.F ....|F#5 5F.F ....
....|..|B-1 2F.7 ....|E-2 3F.F ....|--- .... ....
....|..|C-5 VF.F ....|--- .... ....|--- .... ....
....|..|--- .... ....|--- .... ....|--- .... ....
....|..|C-4 LF.7 ....|E-2 3F.7 ....|F#5 5F.A ....
....|..|B-1 2F.A ....|--- .... ....|--- .... ....
....|..|C-5 VF.F ....|--- .... ....|F#5 5F.7 ....
....|..|--- .... ....|E-2 3F.F ....|--- .... ....
....|..|C-5 VF.F ....|E-2 3F.7 ....|F#5 5F.F ....
..18|..|B-1 2A.F ....|--- .... ....|--- .... ....
....|..|R-- .... ....|--- .... ....|--- .... ....
....|..|--- .... ....|--- .... ....|--- .... ....
....|..|C-4 LF.F ....|E-2 3F.F ....|F#5 5F.F ....
....|..|R-- .... ....|E-2 3F.7 ....|--- .... ....
....|..|C-5 VF.A ....|--- .... ....|--- .... ....
....|..|--- .... ....|--- .... ....|--- .... ....

[Pattern39]
....|..|C-5 VF.F ....|G-2 3F.F ....|F#5 5F.F ....
..18|..|B-1 2A.F ....|--- .... ....|--- .... ....
....|..|C-5 VF.A ....|--- .... ....|--- .... ....
....|..|--- .... ....|E-2 3F.7 ....|--- .... ....
....|..|C-4 LF.7 ....|--- .... ....|F#5 5F.A ....
....|..|B-1 2F.A ....|G-2 3F.F ....|--- .... ....
....|..|R-- .... ....|--- .... ....|--- .... ....
....|..|--- .... ....|--- .... ....|--- .... ....
....|..|C-5 VF.F ....|E-2 3F.7 ....|F#5 5F.F ....
..18|..|B-1 2A.F ....|E-2 3F.7 ....|--- .... ....
....|..|C-5 VF.7 ....|--- .... ....|--- .... ....
....|..|--- .... ....|G-2 3F.F ....|--- .... ....
....|..|C-4 LF.F ....|G-2 3F.A ....|F#5 5F.A ....
....|..|B-1 2F.A ....|--- .... ....|--- .... ....
....|..|C-5 VF.7 ....|--- .... ....|--- .... ....
....|..|--- .... ....|E-2 3F.7 ....|--- .... ....
..18|..|B-1 2A.F ....|G-2 3F.F ....|F#5 5F.F ....
....|..|B-1 2F.7 ....|G-2 3F.F ....|--- .... ....
....|..|C-5 VF.F ....|--- .... ....|--- .... ....
....|..|--- .... ....|--- .... ....|--- .... ....
....|..|C-4 LF.7 ....|E-2 3F.7 ....|F#5 5F.7 ....
....|..|B-1 2F.A ....|--- .... ....|--- .... ....
....|..|C-5 VF.F ....|--- .... ....|--- .... ....
....|..|--- .... ....|G-2 3F.F ....|--- .... ....
....|..|C-5 VF.F ....|G-2 3F.7 ....|F#5 5F.F ....
..18|..|B-1 2A.F ....|--- .... ....|--- .... ....
....|..|R-- .... ....|--- .... ....|--- .... ....
....|..|--- .... ....|--- .... ....|--- .... ....
....|..|C-4 LF.F ....|G-2 3F.F ....|F#5 5F.A ....
....|..|R-- .... ....|G-2 3F.7 ....|--- .... ....
....|..|C-5 VF.A ....|--- .... ....|--- .... ....
....|..|--- .... ....|--- .... ....|--- .... ....
....|..|C-5 VF.F ....|A-2 3F.F ....|F-5 5F.F ....
..18|..|B-1 2A.F ....|--- .... ....|--- .... ....
....|..|C-5 VF.A ....|--- .... ....|--- .... ....
....|..|--- .... ....|G-2 3F.7 ....|--- .... ....
....|..|C-4 AF.F ....|--- .... ....|F#5 5F.A ....
....|..|B-1 2F.A ....|A-2 3F.F ....|--- .... ....
....|..|R-- .... ....|--- .... ....|--- .... ....
....|..|--- .... ....|--- .... ....|--- .... ....
....|..|C-5 VF.F ....|G-2 3F.7 ....|F-5 5F.F ....
..18|..|B-1 2A.F ....|G-2 3F.7 ....|--- .... ....
....|..|C-5 VF.7 ....|--- .... ....|--- .... ....
....|..|--- .... ....|A-2 3F.F ....|--- .... ....
....|..|C-4 LF.F ....|A-2 3F.A ....|F-5 5F.A ....
....|..|B-1 2F.A ....|--- .... ....|--- .... ....
....|..|C-5 VF.7 ....|--- .... ....|--- .... ....
....|..|--- .... ....|G-2 3F.7 ....|--- .... ....
....|..|C-5 VF.F ....|E-3 3F3F ....|D-5 5F.F ....
..18|..|B-1 2A.F ....|A-2 3F.A ....|--- .... ....
....|..|C-5 VF.F ....|A-3 3F3F ....|--- .... ....
....|..|--- .... ....|--- .... ....|--- .... ....
....|..|C-5 VF.F ....|E-3 3F3F ....|F-5 5F.A ....
....|..|B-1 2F.A ....|--- .... ....|--- .... ....
....|..|C-5 VF.F ....|A-3 3F3F ....|D-5 5F.F ....
....|..|--- .... ....|A-2 3F.A ....|--- .... ....
....|..|C-5 VF.F ....|E-3 3F.F ....|F-5 5F.7 ....
..18|..|B-1 2A.F ....|--- .... ....|--- .... ....
....|..|R-- .... ....|--- .... ....|--- .... ....
....|..|--- .... ....|--- .... ....|--- .... ....
....|..|C-5 VF.F ....|A-2 3F.F ....|F-5 5F.F ....
....|..|B-1 2F.A ....|A-2 3F.7 ....|--- .... ....
....|..|C-5 VF.A ....|A-3 3F3A ....|--- .... ....
....|..|--- .... ....|--- .... ....|--- .... ....

[Pattern40]
....|..|C-5 VF.F ....|B-2 3F.F ....|D-5 4F.F ....
..18|..|B-1 2A.F ....|--- .... ....|--- .... ....
....|..|C-5 VF.A ....|A-3 3F3A ....|C#5 4F.F ....
....|..|--- .... ....|A-2 3F.7 ....|--- .... ....
....|..|C-4 LF.7 ....|E-3 3F.A ....|B-4 4F.F ....
....|..|B-1 2F.A ....|B-2 3F.F ....|--- .... ....
....|..|R-- .... ....|--- .... ....|--- .... ....
....|..|--- .... ....|--- .... ....|--- .... ....
....|..|C-5 VF.F ....|E-3 3F37 ....|F#5 4F.F ....
..18|..|B-1 2A.F ....|--- .... ....|--- .... ....
....|..|C-5 VF.7 ....|A-3 3F37 ....|--- .... ....
....|..|--- .... ....|B-2 3F.F ....|--- .... ....
....|..|C-4 LF.F ....|E-3 3F37 ....|B-4 4F.F ....
....|..|B-1 2F.A ....|--- .... ....|--- .... ....
....|..|C-5 VF.7 ....|A-3 3F37 ....|D-5 5F.7 ....
....|..|--- .... ....|--- .... ....|--- .... ....
..18|..|B-1 2A.F ....|B-2 3F.F ....|D-5 4F.F ....
....|..|B-1 2F.7 ....|B-2 3F.F ....|--- .... ....
....|..|C-5 VF.F ....|--- .... ....|C#5 4F.F ....
....|..|--- .... ....|--- .... ....|--- .... ....
....|..|C-5 VF.7 ....|A-2 3F.7 ....|B-4 4F.F ....
....|..|B-1 2F.A ....|--- .... ....|--- .... ....
....|..|C-5 VF.F ....|--- .... ....|--- .... ....
....|..|--- .... ....|B-2 3F.F ....|--- .... ....
....|..|C-5 VF.F ....|B-2 3F.7 ....|F#5 4F.F ....
..18|..|B-1 2A.F ....|--- .... ....|--- .... ....
....|..|R-- .... ....|--- .... ....|C#5 4F.7 ....
....|..|--- .... ....|--- .... ....|--- .... ....
....|..|C-4 LF.F ....|B-2 3F.F ....|B-4 4F.F ....
....|..|R-- .... ....|B-2 3F.7 ....|--- .... ....
....|..|C-5 VF.A ....|--- .... ....|C#5 4F.A ....
....|..|--- .... ....|--- .... ....|--- .... ....
....|..|C-5 VF.F ....|B-2 3F.F ....|D-5 4F.F ....
..18|..|B-1 2A.F ....|--- .... ....|--- .... ....
....|..|C-5 VF.A ....|--- .... ....|C#5 4F.F ....
....|..|--- .... ....|B-2 3F.7 ....|--- .... ....
....|..|C-4 AF.F ....|--- .... ....|B-4 4F.F ....
....|..|B-1 2F.A ....|B-2 3F.F ....|--- .... ....
....|..|R-- .... ....|--- .... ....|--- .... ....
....|..|--- .... ....|--- .... ....|--- .... ....
....|..|C-5 VF.F ....|B-2 3F.7 ....|F#5 4F.F ....
..18|..|B-1 2A.F ....|B-2 3F.7 ....|--- .... ....
....|..|C-5 VF.7 ....|--- .... ....|C#5 4F.7 ....
....|..|--- .... ....|B-2 3F.F ....|--- .... ....
....|..|C-4 LF.F ....|B-2 3F.A ....|B-4 4F.F ....
....|..|B-1 2F.A ....|--- .... ....|--- .... ....
....|..|C-5 VF.7 ....|--- .... ....|C#5 4F.A ....
....|..|--- .... ....|B-2 3F.7 ....|--- .... ....
..18|..|B-1 2A.F ....|B-2 3F.F ....|D-5 4F.F ....
....|..|B-1 2F.7 ....|B-2 3F.F ....|--- .... ....
....|..|C-5 VF.F ....|--- .... ....|C#5 4F.F ....
....|..|--- .... ....|--- .... ....|--- .... ....
....|..|C-4 LF.7 ....|B-2 3F.7 ....|B-4 4F.F ....
....|..|B-1 2F.A ....|--- .... ....|--- .... ....
....|..|C-5 VF.F ....|--- .... ....|--- .... ....
....|..|--- .... ....|B-2 3F.F ....|--- .... ....
....|..|C-5 VF.F ....|B-2 3F.7 ....|F#5 4F.F ....
..18|..|B-1 2A.F ....|--- .... ....|--- .... ....
....|..|R-- .... ....|--- .... ....|C#5 4F.7 ....
....|..|--- .... ....|--- .... ....|--- .... ....
....|..|C-4 LF.F ....|B-2 3F.F ....|B-4 4F.F ....
....|..|R-- .... ....|B-2 3F.7 ....|--- .... ....
....|..|C-5 VF.A ....|--- .... ....|C#5 4F.A ....
....|..|--- .... ....|--- .... ....|--- .... ....

[Pattern41]
....|..|C-5 VF.F ....|G-2 3F.F ....|E-5 4F.F ....
..18|..|B-1 2A.F ....|--- .... ....|--- .... ....
....|..|C-5 VF.A ....|--- .... ....|E-4 4F.F ....
....|..|--- .... ....|B-2 3F.7 ....|--- .... ....
....|..|C-4 LF.7 ....|--- .... ....|E-5 4F.F ....
....|..|B-1 2F.A ....|G-2 3F.F ....|--- .... ....
....|..|R-- .... ....|--- .... ....|A-4 4F.F ....
....|..|--- .... ....|--- .... ....|--- .... ....
....|..|C-5 VF.F ....|B-2 3F.7 ....|E-5 4F.F ....
..18|..|B-1 2A.F ....|B-2 3F.7 ....|--- .... ....
....|..|C-5 VF.7 ....|--- .... ....|C#5 4F.7 ....
....|..|--- .... ....|G-2 3F.F ....|--- .... ....
....|..|C-4 LF.F ....|G-2 3F.A ....|F#5 4F.F ....
....|..|B-1 2F.A ....|--- .... ....|--- .... ....
....|..|C-5 VF.7 ....|--- .... ....|E-4 4F.A ....
....|..|--- .... ....|B-2 3F.7 ....|--- .... ....
..18|..|B-1 2A.F ....|G-2 3F.F ....|E-5 4F.F ....
....|..|B-1 2F.7 ....|G-2 3F.F ....|--- .... ....
....|..|C-5 VF.F ....|--- .... ....|E-4 4F.F ....
....|..|--- .... ....|--- .... ....|--- .... ....
....|..|C-4 LF.7 ....|B-2 3F.7 ....|E-5 4F.F ....
....|..|B-1 2F.A ....|--- .... ....|--- .... ....
....|..|C-5 VF.F ....|--- .... ....|A-4 4F.F ....
....|..|--- .... ....|G-2 3F.F ....|--- .... ....
....|..|C-5 VF.F ....|G-2 3F.7 ....|E-5 4F.F ....
..18|..|B-1 2A.F ....|--- .... ....|--- .... ....
....|..|R-- .... ....|--- .... ....|E-4 4F.7 ....
....|..|--- .... ....|--- .... ....|--- .... ....
....|..|C-4 LF.F ....|G-2 3F.F ....|F#5 4F.F ....
....|..|R-- .... ....|G-2 3F.7 ....|--- .... ....
....|..|C-5 VF.A ....|--- .... ....|A-4 4F.7 ....
....|..|--- .... ....|--- .... ....|--- .... ....
....|..|C-5 VF.F ....|A-2 3F.F ....|E-5 4F.F ....
..18|..|B-1 2A.F ....|--- .... ....|--- .... ....
....|..|C-5 VF.A ....|--- .... ....|E-4 4F.F ....
....|..|--- .... ....|G-2 3F.7 ....|--- .... ....
....|..|C-4 AF.F ....|--- .... ....|E-5 4F.F ....
....|..|B-1 2F.A ....|A-2 3F.F ....|--- .... ....
....|..|R-- .... ....|--- .... ....|A-4 4F.F ....
....|..|--- .... ....|--- .... ....|--- .... ....
....|..|C-5 VF.F ....|G-2 3F.7 ....|E-5 4F.F ....
..18|..|B-1 2A.F ....|G-2 3F.7 ....|--- .... ....
....|..|C-5 VF.7 ....|--- .... ....|E-4 4F.7 ....
....|..|--- .... ....|A-2 3F.F ....|--- .... ....
....|..|C-4 LF.F ....|A-2 3F.A ....|F#5 4F.F ....
....|..|B-1 2F.A ....|--- .... ....|--- .... ....
....|..|C-5 VF.7 ....|--- .... ....|A-4 4F.7 ....
....|..|--- .... ....|G-2 3F.7 ....|--- .... ....
..18|..|B-1 2A.F ....|A-2 3F.F ....|E-5 4F.F ....
....|..|B-1 2F.7 ....|A-2 3F.F ....|--- .... ....
....|..|C-5 VF.F ....|--- .... ....|E-4 4F.F ....
....|..|--- .... ....|--- .... ....|--- .... ....
....|..|C-4 LF.7 ....|G-2 3F.7 ....|E-5 4F.F ....
....|..|B-1 2F.A ....|--- .... ....|--- .... ....
....|..|C-5 VF.F ....|--- .... ....|A-4 4F.F ....
....|..|--- .... ....|A-2 3F.F ....|--- .... ....
....|..|C-5 VF.F ....|A-2 3F.7 ....|E-5 4F.F ....
..18|..|B-1 2A.F ....|--- .... ....|--- .... ....
....|..|R-- .... ....|--- .... ....|E-4 4F.7 ....
....|..|--- .... ....|--- .... ....|--- .... ....
....|..|C-4 LF.F ....|A-2 3F.F ....|F#5 4F.F ....
....|..|R-- .... ....|A-2 3F.7 ....|--- .... ....
....|..|C-5 VF.A ....|--- .... ....|A-4 4F.7 ....
....|..|--- .... ....|--- .... ....|--- .... ....

[Pattern42]
....|..|C-5 VF.F ....|E-2 3F.F ....|B-4 4F.F ....
..18|..|B-1 2A.F ....|--- .... ....|--- .... ....
....|..|C-5 VF.A ....|--- .... ....|A-4 4F.A ....
....|..|--- .... ....|A-2 3F.7 ....|--- .... ....
....|..|C-4 LF.7 ....|--- .... ....|B-4 4F.F ....
....|..|B-1 2F.A ....|E-2 3F.F ....|--- .... ....
....|..|R-- .... ....|--- .... ....|--- .... ....
....|..|--- .... ....|--- .... ....|--- .... ....
....|..|C-5 VF.F ....|A-2 3F.7 ....|F#5 4F.F ....
..18|..|B-1 2A.F ....|A-2 3F.7 ....|--- .... ....
....|..|C-5 VF.7 ....|--- .... ....|E-4 4F.7 ....
....|..|--- .... ....|E-2 3F.F ....|--- .... ....
....|..|C-4 LF.F ....|E-2 3F.A ....|B-4 4F.F ....
....|..|B-1 2F.A ....|--- .... ....|--- .... ....
....|..|C-5 VF.7 ....|--- .... ....|A-4 4F.7 ....
....|..|--- .... ....|A-2 3F.7 ....|--- .... ....
..18|..|B-1 2A.F ....|E-2 3F.F ....|D-5 4F.F ....
....|..|B-1 2F.7 ....|E-2 3F.F ....|--- .... ....
....|..|C-5 VF.F ....|--- .... ....|C#5 4F.F ....
....|..|--- .... ....|--- .... ....|--- .... ....
....|..|C-4 LF.7 ....|A-2 3F.7 ....|B-4 4F.F ....
....|..|B-1 2F.A ....|--- .... ....|--- .... ....
....|..|C-5 VF.F ....|--- .... ....|--- .... ....
....|..|--- .... ....|E-2 3F.F ....|--- .... ....
....|..|C-5 VF.F ....|E-2 3F.7 ....|F#5 4F.F ....
..18|..|B-1 2A.F ....|--- .... ....|--- .... ....
....|..|R-- .... ....|--- .... ....|--- .... ....
....|..|--- .... ....|--- .... ....|--- .... ....
....|..|C-4 LF.F ....|E-2 3F.F ....|B-4 4F.F ....
....|..|R-- .... ....|E-2 3F.7 ....|--- .... ....
....|..|C-5 VF.A ....|--- .... ....|C#5 4F.A ....
....|..|--- .... ....|--- .... ....|--- .... ....
....|..|C-5 VF.F ....|E-2 3F.F ....|D-5 4F.F ....
..18|..|B-1 2A.F ....|--- .... ....|--- .... ....
....|..|C-5 VF.A ....|--- .... ....|C#5 4F.F ....
....|..|--- .... ....|E-2 3F.7 ....|--- .... ....
....|..|C-4 AF.F ....|--- .... ....|B-4 4F.F ....
....|..|B-1 2F.A ....|E-2 3F.F ....|--- .... ....
....|..|R-- .... ....|--- .... ....|--- .... ....
....|..|--- .... ....|--- .... ....|--- .... ....
....|..|C-5 VF.F ....|E-2 3F.7 ....|F#5 4F.F ....
..18|..|B-1 2A.F ....|E-2 3F.7 ....|--- .... ....
....|..|C-5 VF.7 ....|--- .... ....|C#5 4F.7 ....
....|..|--- .... ....|E-2 3F.F ....|--- .... ....
....|..|C-4 LF.F ....|E-2 3F.A ....|B-4 4F.F ....
....|..|B-1 2F.A ....|--- .... ....|--- .... ....
....|..|C-5 VF.7 ....|--- .... ....|C#5 4F.A ....
....|..|--- .... ....|E-2 3F.7 ....|--- .... ....
..18|..|B-1 2A.F ....|E-2 3F.F ....|D-5 4F.F ....
....|..|B-1 2F.7 ....|E-2 3F.F ....|--- .... ....
....|..|C-5 VF.F ....|--- .... ....|C#5 4F.F ....
....|..|--- .... ....|--- .... ....|--- .... ....
....|..|C-4 LF.7 ....|E-2 3F.7 ....|B-4 4F.F ....
....|..|B-1 2F.A ....|--- .... ....|--- .... ....
....|..|R-- .... ....|--- .... ....|--- .... ....
....|..|--- .... ....|E-2 3F.F ....|--- .... ....
....|..|C-5 VF.F ....|A-3 3F1F ....|F#5 4F.F ....
..1B|..|A-1 2A.F ....|--- .... ....|--- .... ....
....|..|R-- .... ....|--- .... ....|C#5 4F.7 ....
....|..|--- .... ....|--- .... ....|--- .... ....
....|..|C-4 AF.7 ....|E-2 3F.A ....|B-4 4F.F ....
....|..|R-- .... ....|E-2 3F.7 ....|--- .... ....
....|..|C-5 VF.A ....|--- .... ....|C#5 4F.A ....
....|..|--- .... ....|--- .... ....|--- .... ....

[Pattern48]
....|..|C-4 AF.F ....|B-3 3F1F ....|C#5 4F.F ....
..18|..|B-1 2A.F ....|--- .... ....|--- .... ....
....|..|A-1 2F.7 ....|A#5 3F.A ....|A-3 4F17 ....
....|..|--- .... ....|--- .... ....|--- .... ....
....|..|C-4 AF.F ....|B-3 3F1F ....|A-3 4F17 ....
..18|..|B-1 2A.F ....|--- .... ....|--- .... ....
..18|..|B-1 2A.F ....|B-3 3F1F ....|A-3 4F17 ....
....|..|--- .... ....|--- .... ....|--- .... ....
....|..|C-5 VF.F ....|B-5 3F.7 ....|--- .... ....
....|..|A-1 2F.7 ....|--- .... ....|--- .... ....
..18|..|B-1 2A.F ....|B-3 3F1F ....|A-3 4F17 ....
....|..|--- .... ....|--- .... ....|--- .... ....
....|..|C-4 AF.F ....|A#5 3F.7 ....|C#5 4F.A ....
....|..|A-1 2F.7 ....|--- .... ....|--- .... ....
....|..|C-5 VF.F ....|A#5 3F.7 ....|E-3 4F27 ....
....|..|R-- .... ....|--- .... ....|--- .... ....
....|..|C-3 RF.F ....|E-3 3F2F ....|A#5 4F.F ....
..24|..|E-1 2A.F ....|--- .... ....|--- .... ....
....|..|C-5 VF.F ....|B-5 3F.7 ....|A-3 4F17 ....
....|..|--- .... ....|--- .... ....|R-- .... ....
....|..|C-4 AF.F ....|B-3 3F1F ....|--- .... ....
..18|..|B-1 2A.F ....|--- .... ....|--- .... ....
....|..|A-1 2F.7 ....|A#5 3F.7 ....|B-5 4F.F ....
....|..|--- .... ....|--- .... ....|--- .... ....
....|..|C-5 VF.F ....|E-3 3F1F ....|C#5 4F.7 ....
..24|..|E-1 2A.F ....|--- .... ....|R-- .... ....
....|..|C-5 VF.A ....|R-- .... ....|--- .... ....
....|..|R-- .... ....|--- .... ....|--- .... ....
....|..|C-4 AF.F ....|B-3 3F17 ....|B-5 4F.F ....
....|..|B-1 2F.7 ....|--- .... ....|--- .... ....
....|..|B-1 2F.7 ....|B-3 3F17 ....|R-- .... ....
....|..|--- .... ....|--- .... ....|R-- .... ....
....|..|C-4 AF.F ....|B-3 3F1F ....|C#5 4F.F ....
..18|..|B-1 2A.F ....|--- .... ....|--- .... ....
....|..|B-1 2F.7 ....|B-3 3F17 ....|B-5 4F.A ....
....|..|--- .... ....|--- .... ....|--- .... ....
....|..|C-4 AF.F ....|B-3 3F1F ....|--- .... ....
..18|..|B-1 2A.F ....|--- .... ....|R-- .... ....
..18|..|B-1 2A.F ....|B-3 3F1F ....|--- .... ....
....|..|R-- .... ....|--- .... ....|--- .... ....
....|..|C-5 VF.F ....|E-3 3F27 ....|A#5 4F.7 ....
....|..|E-1 2F.7 ....|--- .... ....|--- .... ....
..18|..|B-1 2A.F ....|B-3 3F1F ....|R-- .... ....
....|..|--- .... ....|--- .... ....|R-- .... ....
....|..|C-4 AF.F ....|B-3 3F17 ....|C#5 4F.A ....
....|..|B-1 2F.7 ....|--- .... ....|--- .... ....
....|..|C-5 VF.F ....|R-- .... ....|B-5 4F.7 ....
....|..|R-- .... ....|--- .... ....|--- .... ....
....|..|C-3 RF.F ....|E-3 3F2F ....|R-- .... ....
..24|..|E-1 2A.F ....|--- .... ....|R-- .... ....
....|..|C-5 VF.F ....|B-3 3F1A ....|--- .... ....
....|..|--- .... ....|--- .... ....|--- .... ....
....|..|C-4 AF.F ....|B-3 3F1F ....|B-5 4F.7 ....
..18|..|B-1 2A.F ....|--- .... ....|--- .... ....
....|..|B-1 2F.A ....|B-3 3F1A ....|R-- .... ....
....|..|--- .... ....|--- .... ....|--- .... ....
....|..|C-5 VF.F ....|B-3 3F17 ....|C#5 4F.7 ....
....|..|B-1 2F.7 ....|--- .... ....|--- .... ....
....|..|C-5 VF.A ....|R-- .... ....|--- .... ....
....|..|R-- .... ....|--- .... ....|--- .... ....
....|..|C-4 AF.F ....|B-3 3F17 ....|R-- .... ....
....|..|B-1 2F.7 ....|--- .... ....|--- .... ....
....|..|B-1 2F.7 ....|B-3 3F17 ....|--- .... ....
....|..|--- .... ....|--- .... ....|--- .... ....

[Pattern49]
....|..|C-4 AF.F ....|B-3 3F1F ....|C#5 4F.F ....
..18|..|B-1 2A.F ....|--- .... ....|--- .... ....
....|..|B-1 2F.7 ....|B-3 3F17 ....|--- .... ....
....|..|--- .... ....|--- .... ....|--- .... ....
....|..|C-4 AF.F ....|B-3 3F1F ....|--- .... ....
..18|..|B-1 2A.F ....|--- .... ....|--- .... ....
..18|..|B-1 2A.F ....|B-3 3F1F ....|--- .... ....
....|..|R-- .... ....|--- .... ....|--- .... ....
....|..|C-5 VF.F ....|E-3 3F27 ....|R-- .... ....
....|..|E-1 2F.7 ....|--- .... ....|--- .... ....
..18|..|B-1 2A.F ....|B-3 3F1F ....|--- .... ....
....|..|--- .... ....|--- .... ....|--- .... ....
....|..|C-4 AF.F ....|B-3 3F17 ....|C#5 4F.A ....
....|..|B-1 2F.7 ....|--- .... ....|--- .... ....
....|..|C-5 VF.F ....|R-- .... ....|--- .... ....
....|..|R-- .... ....|--- .... ....|--- .... ....
....|..|C-3 RF.F ....|E-3 3F2F ....|A#5 4F.F ....
..24|..|E-1 2A.F ....|--- .... ....|--- .... ....
....|..|C-5 VF.F ....|B-3 3F1A ....|--- .... ....
....|..|--- .... ....|--- .... ....|R-- .... ....
....|..|C-4 AF.F ....|B-3 3F1F ....|--- .... ....
..18|..|B-1 2A.F ....|--- .... ....|--- .... ....
....|..|B-1 2F.A ....|B-3 3F1A ....|B-5 4F.F ....
....|..|--- .... ....|--- .... ....|--- .... ....
....|..|C-5 VF.F ....|B-3 3F17 ....|C#5 4F.7 ....
....|..|B-1 2F.7 ....|--- .... ....|R-- .... ....
....|..|C-5 VF.A ....|R-- .... ....|--- .... ....
....|..|R-- .... ....|--- .... ....|--- .... ....
....|..|C-4 AF.F ....|E-3 3F1F ....|B-5 4F.F ....
..24|..|E-1 2A.F ....|--- .... ....|--- .... ....
....|..|B-1 2F.7 ....|B-3 3F17 ....|R-- .... ....
....|..|--- .... ....|--- .... ....|R-- .... ....
....|..|C-4 AF.F ....|B-3 3F1A ....|A-3 4F1F ....
..1B|..|A-1 2A.F ....|--- .... ....|--- .... ....
....|..|B-1 2F.7 ....|B-3 3F17 ....|B-5 4F.A ....
....|..|--- .... ....|--- .... ....|--- .... ....
....|..|C-4 AF.F ....|--- .... ....|--- .... ....
....|..|--- .... ....|--- .... ....|R-- .... ....
..1C|..|G#1 2A.F ....|R-- .... ....|G#3 4F1F ....
....|..|R-- .... ....|--- .... ....|--- .... ....
....|..|C-5 VF.F ....|E-3 3F27 ....|A#5 4F.7 ....
....|..|E-1 2F.7 ....|--- .... ....|--- .... ....
....|..|C-5 VF.7 ....|--- .... ....|R-- .... ....
....|..|--- .... ....|--- .... ....|R-- .... ....
....|..|C-4 AF.F ....|B-3 3F17 ....|G-3 4F1F ....
..1E|..|G-1 2A.F ....|--- .... ....|--- .... ....
....|..|C-5 VF.F ....|--- .... ....|B-5 4F.7 ....
....|..|--- .... ....|--- .... ....|--- .... ....
....|..|C-3 RF.F ....|--- .... ....|--- .... ....
....|..|--- .... ....|--- .... ....|R-- .... ....
....|..|C-5 VF.F ....|--- .... ....|G#3 4F1A ....
....|..|--- .... ....|--- .... ....|--- .... ....
....|..|C-4 AF.F ....|E-3 3F17 ....|F-3 4F1F ....
..22|..|F-1 2A.F ....|--- .... ....|--- .... ....
....|..|R-- .... ....|--- .... ....|R-- .... ....
....|..|--- .... ....|--- .... ....|--- .... ....
....|..|C-5 VF.F ....|R-- .... ....|A-3 4F17 ....
....|..|A-1 2F.7 ....|--- .... ....|--- .... ....
..24|..|E-1 2A.F ....|--- .... ....|E-3 4F1F ....
....|..|--- .... ....|--- .... ....|--- .... ....
....|..|C-4 AF.F ....|--- .... ....|--- .... ....
....|..|--- .... ....|--- .... ....|B-2 4F.F ....
....|..|G#1 2F.7 ....|--- .... ....|G#3 4F17 ....
....|..|--- .... ....|--- .... ....|--- .... ....

[Pattern50]
....|..|C-4 AF.F ....|B-3 3F1F ....|C#5 4F.F ....
..18|..|B-1 2A.F ....|--- .... ....|--- .... ....
....|..|R-- .... ....|--- .... ....|--- .... ....
....|..|--- .... ....|--- .... ....|--- .... ....
....|..|C-4 AF.F ....|B-3 3F1F ....|G-3 4F17 ....
..18|..|B-1 2A.F ....|--- .... ....|--- .... ....
..18|..|B-1 2A.F ....|B-3 3F1F ....|E-3 4F1A ....
....|..|--- .... ....|--- .... ....|--- .... ....
....|..|C-5 VF.F ....|--- .... ....|--- .... ....
....|..|--- .... ....|--- .... ....|B-2 4F.A ....
..18|..|B-1 2A.F ....|B-3 3F1F ....|--- .... ....
....|..|--- .... ....|--- .... ....|--- .... ....
....|..|C-4 AF.F ....|B-3 3F1A ....|F-3 4F17 ....
....|..|F-1 2F.7 ....|--- .... ....|--- .... ....
....|..|C-5 VF.F ....|R-- .... ....|--- .... ....
....|..|R-- .... ....|--- .... ....|--- .... ....
....|..|C-3 RF.F ....|E-3 3F2F ....|A#5 4F.F ....
..24|..|E-1 2A.F ....|--- .... ....|--- .... ....
....|..|C-5 VF.F ....|B-3 3F1A ....|E-3 4F17 ....
....|..|--- .... ....|--- .... ....|R-- .... ....
....|..|C-4 AF.F ....|B-3 3F1F ....|--- .... ....
..18|..|B-1 2A.F ....|--- .... ....|B-2 4F.7 ....
....|..|B-1 2F.A ....|B-3 3F1A ....|B-5 4F.F ....
....|..|--- .... ....|--- .... ....|--- .... ....
....|..|C-5 VF.F ....|E-3 3F1F ....|C#5 4F.7 ....
..24|..|E-1 2A.F ....|--- .... ....|R-- .... ....
....|..|C-5 VF.A ....|R-- .... ....|--- .... ....
....|..|R-- .... ....|--- .... ....|--- .... ....
....|..|C-4 AF.F ....|B-3 3F17 ....|B-5 4F.F ....
....|..|B-1 2F.7 ....|--- .... ....|--- .... ....
....|..|B-1 2F.7 ....|B-3 3F17 ....|R-- .... ....
....|..|--- .... ....|--- .... ....|R-- .... ....
....|..|C-4 AF.F ....|B-3 3F1F ....|C#5 4F.F ....
..18|..|B-1 2A.F ....|--- .... ....|--- .... ....
....|..|B-1 2F.7 ....|B-3 3F17 ....|B-5 4F.A ....
....|..|--- .... ....|--- .... ....|--- .... ....
....|..|C-4 AF.F ....|B-3 3F1F ....|--- .... ....
..18|..|B-1 2A.F ....|--- .... ....|R-- .... ....
..18|..|B-1 2A.F ....|B-3 3F1F ....|--- .... ....
....|..|R-- .... ....|--- .... ....|--- .... ....
....|..|C-5 VF.F ....|E-3 3F27 ....|A#5 4F.7 ....
....|..|E-1 2F.7 ....|--- .... ....|--- .... ....
..18|..|B-1 2A.F ....|B-3 3F1F ....|R-- .... ....
....|..|--- .... ....|--- .... ....|R-- .... ....
....|..|C-4 AF.F ....|B-3 3F17 ....|C#5 4F.A ....
....|..|B-1 2F.7 ....|--- .... ....|--- .... ....
....|..|C-5 VF.F ....|R-- .... ....|B-5 4F.7 ....
....|..|R-- .... ....|--- .... ....|--- .... ....
....|..|C-3 RF.F ....|E-3 3F2F ....|R-- .... ....
..24|..|E-1 2A.F ....|--- .... ....|R-- .... ....
....|..|C-5 VF.F ....|B-3 3F1A ....|--- .... ....
....|..|--- .... ....|--- .... ....|--- .... ....
....|..|C-4 AF.F ....|B-3 3F1F ....|B-5 4F.7 ....
..18|..|B-1 2A.F ....|--- .... ....|--- .... ....
....|..|B-1 2F.A ....|B-3 3F1A ....|R-- .... ....
....|..|--- .... ....|--- .... ....|--- .... ....
....|..|C-5 VF.F ....|B-3 3F17 ....|C#5 4F.7 ....
....|..|B-1 2F.7 ....|--- .... ....|--- .... ....
....|..|C-5 VF.A ....|R-- .... ....|--- .... ....
....|..|R-- .... ....|--- .... ....|--- .... ....
....|..|C-4 AF.F ....|B-3 3F17 ....|R-- .... ....
....|..|B-1 2F.7 ....|--- .... ....|--- .... ....
....|..|B-1 2F.7 ....|B-3 3F17 ....|--- .... ....
....|..|--- .... ....|--- .... ....|--- .... ....

[Pattern51]
....|..|C-4 AF.F ....|B-3 3F1F ....|C#5 4F.F ....
..18|..|B-1 2A.F ....|--- .... ....|--- .... ....
....|..|B-1 2F.7 ....|B-3 3F17 ....|--- .... ....
....|..|--- .... ....|--- .... ....|--- .... ....
....|..|C-4 AF.F ....|B-3 3F1F ....|--- .... ....
..18|..|B-1 2A.F ....|--- .... ....|--- .... ....
..18|..|B-1 2A.F ....|B-3 3F1F ....|--- .... ....
....|..|R-- .... ....|--- .... ....|--- .... ....
....|..|C-5 VF.F ....|E-3 3F27 ....|R-- .... ....
....|..|E-1 2F.7 ....|--- .... ....|--- .... ....
..18|..|B-1 2A.F ....|B-3 3F1F ....|--- .... ....
....|..|--- .... ....|--- .... ....|--- .... ....
....|..|C-4 AF.F ....|B-3 3F17 ....|C#5 4F.A ....
....|..|B-1 2F.7 ....|--- .... ....|--- .... ....
....|..|C-5 VF.F ....|R-- .... ....|--- .... ....
....|..|R-- .... ....|--- .... ....|--- .... ....
....|..|C-3 RF.F ....|E-3 3F2F ....|A#5 4F.F ....
..24|..|E-1 2A.F ....|--- .... ....|--- .... ....
....|..|C-5 VF.F ....|B-3 3F1A ....|--- .... ....
....|..|--- .... ....|--- .... ....|R-- .... ....
....|..|C-4 AF.F ....|B-3 3F1F ....|--- .... ....
..18|..|B-1 2A.F ....|--- .... ....|--- .... ....
....|..|B-1 2F.A ....|B-3 3F1A ....|B-5 4F.F ....
....|..|--- .... ....|--- .... ....|--- .... ....
....|..|C-5 VF.F ....|B-3 3F17 ....|C#5 4F.7 ....
....|..|B-1 2F.7 ....|--- .... ....|R-- .... ....
....|..|C-5 VF.A ....|R-- .... ....|--- .... ....
....|..|R-- .... ....|--- .... ....|--- .... ....
....|..|C-4 AF.F ....|E-3 3F1F ....|B-5 4F.F ....
..24|..|E-1 2A.F ....|--- .... ....|--- .... ....
....|..|B-1 2F.7 ....|B-3 3F17 ....|R-- .... ....
....|..|--- .... ....|--- .... ....|R-- .... ....
....|..|C-4 AF.F ....|B-3 3F1F ....|C#5 4F.F ....
..18|..|B-1 2A.F ....|--- .... ....|--- .... ....
....|..|B-1 2F.7 ....|B-3 3F17 ....|B-5 4F.A ....
....|..|--- .... ....|--- .... ....|--- .... ....
....|..|C-4 AF.F ....|B-3 3F1F ....|--- .... ....
..18|..|B-1 2A.F ....|--- .... ....|R-- .... ....
..18|..|B-1 2A.F ....|B-3 3F1F ....|--- .... ....
....|..|R-- .... ....|--- .... ....|--- .... ....
....|..|C-5 VF.F ....|E-3 3F27 ....|A#5 4F.7 ....
....|..|E-1 2F.7 ....|--- .... ....|--- .... ....
..18|..|B-1 2A.F ....|B-3 3F1F ....|R-- .... ....
....|..|--- .... ....|--- .... ....|R-- .... ....
....|..|C-4 AF.F ....|B-3 3F17 ....|C#5 4F.A ....
....|..|B-1 2F.7 ....|--- .... ....|--- .... ....
....|..|C-5 VF.F ....|R-- .... ....|B-5 4F.7 ....
....|..|R-- .... ....|--- .... ....|--- .... ....
....|..|C-3 RF.F ....|E-3 3F2F ....|R-- .... ....
..24|..|E-1 2A.F ....|--- .... ....|R-- .... ....
....|..|C-5 VF.F ....|B-3 3F1A ....|--- .... ....
....|..|--- .... ....|--- .... ....|--- .... ....
....|..|C-4 AF.F ....|B-3 3F1F ....|B-5 4F.7 ....
..18|..|B-1 2A.F ....|--- .... ....|--- .... ....
....|..|B-1 2F.A ....|B-3 3F1A ....|R-- .... ....
....|..|--- .... ....|--- .... ....|--- .... ....
....|..|C-5 VF.F ....|B-3 3F17 ....|C#5 4F.7 ....
....|..|B-1 2F.7 ....|--- .... ....|--- .... ....
....|..|C-5 VF.A ....|R-- .... ....|--- .... ....
....|..|R-- .... ....|--- .... ....|--- .... ....
....|..|C-4 AF.F ....|B-3 3F17 ....|R-- .... ....
....|..|B-1 2F.7 ....|--- .... ....|--- .... ....
....|..|B-1 2F.7 ....|B-3 3F17 ....|--- .... ....
....|..|--- .... ....|--- .... ....|--- .... ....

[Pattern52]
..1B|..|A-1 2A.F ....|B-3 3F1A ....|A-3 4F1F ....
....|..|B-1 2F.A ....|--- .... ....|--- .... ....
....|..|B-1 2F.7 ....|B-3 3F17 ....|--- .... ....
....|..|--- .... ....|--- .... ....|--- .... ....
....|..|C-4 AF.7 ....|--- .... ....|--- .... ....
....|..|--- .... ....|--- .... ....|--- .... ....
..1C|..|G#1 2A.F ....|R-- .... ....|G#3 4F1F ....
....|..|R-- .... ....|--- .... ....|--- .... ....
....|..|C-3 RF.7 ....|E-3 3F27 ....|R-- .... ....
....|..|E-1 2F.7 ....|--- .... ....|--- .... ....
....|..|C-5 VF.7 ....|--- .... ....|--- .... ....
....|..|--- .... ....|--- .... ....|--- .... ....
..1E|..|G-1 2A.F ....|B-3 3F17 ....|G-3 4F1F ....
....|..|B-1 2F.7 ....|--- .... ....|--- .... ....
....|..|--- .... ....|--- .... ....|--- .... ....
....|..|--- .... ....|--- .... ....|--- .... ....
....|..|C-5 VF.7 ....|--- .... ....|--- .... ....
....|..|--- .... ....|--- .... ....|--- .... ....
....|..|G#1 2F.A ....|--- .... ....|G#3 4F1A ....
....|..|--- .... ....|--- .... ....|--- .... ....
..22|..|F-1 2A.F ....|R-- .... ....|F-3 4F1F ....
....|..|R-- .... ....|--- .... ....|--- .... ....
....|..|--- .... ....|--- .... ....|--- .... ....
....|..|--- .... ....|--- .... ....|--- .... ....
....|..|A-1 2F.7 ....|--- .... ....|A-3 4F17 ....
....|..|--- .... ....|--- .... ....|--- .... ....
..24|..|E-1 2A.F ....|--- .... ....|E-3 4F1F ....
....|..|--- .... ....|--- .... ....|--- .... ....
....|..|--- .... ....|--- .... ....|--- .... ....
....|..|--- .... ....|--- .... ....|--- .... ....
....|..|G#1 2F.7 ....|--- .... ....|G#3 4F17 ....
....|..|--- .... ....|--- .... ....|--- .... ....
..1B|..|A-1 2A.F ....|--- .... ....|A-3 4F1F ....
....|..|--- .... ....|--- .... ....|--- .... ....
....|..|--- .... ....|--- .... ....|--- .... ....
....|..|--- .... ....|--- .... ....|--- .... ....
....|..|G-1 2F.7 ....|--- .... ....|G-3 4F17 ....
....|..|--- .... ....|--- .... ....|--- .... ....
..1C|..|G#1 2A.F ....|--- .... ....|G#3 4F1F ....
....|..|--- .... ....|--- .... ....|--- .... ....
....|..|--- .... ....|--- .... ....|--- .... ....
....|..|--- .... ....|--- .... ....|--- .... ....
....|..|--- .... ....|--- .... ....|--- .... ....
....|..|--- .... ....|--- .... ....|--- .... ....
..1E|..|G-1 2A.F ....|--- .... ....|G-3 4F1F ....
....|..|--- .... ....|--- .... ....|--- .... ....
....|..|--- .... ....|--- .... ....|--- .... ....
....|..|--- .... ....|--- .... ....|--- .... ....
..24|..|E-1 2A.F ....|--- .... ....|--- .... ....
....|..|--- .... ....|--- .... ....|--- .... ....
..24|..|E-1 2A.F ....|--- .... ....|E-3 4F17 ....
....|..|--- .... ....|--- .... ....|--- .... ....
..24|..|E-1 2A.F ....|--- .... ....|F-3 4F1F ....
....|..|--- .... ....|--- .... ....|--- .... ....
..24|..|E-1 2A.F ....|--- .... ....|--- .... ....
....|..|--- .... ....|--- .... ....|--- .... ....
..12|..|E-2 2A.F ....|--- .... ....|A-3 4F17 ....
....|..|--- .... ....|--- .... ....|--- .... ....
....|..|C-5 VF.F ....|--- .... ....|E-3 4F1F ....
....|..|--- .... ....|--- .... ....|--- .... ....
..1B|..|A-1 2A.F ....|--- .... ....|--- .... ....
....|..|--- .... ....|--- .... ....|--- .... ....
....|..|G#1 2F.7 ....|--- .... ....|G#3 4F17 ....
....|..|--- .... ....|--- .... ....|--- .... ....

[Pattern53]
....|..|C-4 AF.F ....|A-3 3F1F ....|A-3 4F1F ....
..1B|..|A-1 2A.F ....|--- .... ....|--- .... ....
....|..|E-1 2F.A ....|--- .... ....|--- .... ....
....|..|--- .... ....|--- .... ....|--- .... ....
....|..|C-4 AF.F ....|--- .... ....|G-3 4F17 ....
....|..|--- .... ....|--- .... ....|--- .... ....
..1C|..|G#1 2A.F ....|G#3 3F1F ....|G#3 4F1F ....
....|..|--- .... ....|--- .... ....|--- .... ....
....|..|C-5 VF.F ....|--- .... ....|--- .... ....
....|..|--- .... ....|--- .... ....|--- .... ....
....|..|E-1 2F.7 ....|--- .... ....|--- .... ....
....|..|--- .... ....|--- .... ....|--- .... ....
....|..|C-4 AF.F ....|G-3 3F1F ....|G-3 4F1F ....
..1E|..|G-1 2A.F ....|--- .... ....|--- .... ....
....|..|E-1 2F.7 ....|--- .... ....|--- .... ....
....|..|--- .... ....|--- .... ....|--- .... ....
....|..|C-3 RF.F ....|--- .... ....|--- .... ....
....|..|--- .... ....|--- .... ....|--- .... ....
....|..|C-3 RF.F ....|G#3 3F1A ....|E-3 4F17 ....
....|..|--- .... ....|--- .... ....|--- .... ....
....|..|C-4 AF.F ....|F-3 3F1F ....|F-3 4F1F ....
..22|..|F-1 2A.F ....|--- .... ....|--- .... ....
....|..|R-- .... ....|--- .... ....|--- .... ....
....|..|--- .... ....|--- .... ....|--- .... ....
....|..|C-5 VF.F ....|A-3 3F17 ....|A-3 4F17 ....
....|..|A-1 2F.7 ....|--- .... ....|--- .... ....
..24|..|E-1 2A.F ....|E-3 3F1F ....|E-3 4F1F ....
....|..|--- .... ....|--- .... ....|--- .... ....
....|..|C-4 AF.F ....|--- .... ....|--- .... ....
....|..|--- .... ....|--- .... ....|--- .... ....
....|..|G#1 2F.7 ....|G#3 3F17 ....|G#3 4F17 ....
....|..|--- .... ....|--- .... ....|--- .... ....
....|..|C-4 AF.F ....|A-3 3F1F ....|A-3 4F1F ....
..1B|..|A-1 2A.F ....|--- .... ....|--- .... ....
....|..|R-- .... ....|--- .... ....|--- .... ....
....|..|--- .... ....|--- .... ....|--- .... ....
....|..|C-4 AF.7 ....|G-3 3F17 ....|G-3 4F17 ....
....|..|G-1 2F.7 ....|--- .... ....|--- .... ....
....|..|C-4 AF.F ....|G#3 3F1F ....|G#3 4F1F ....
..1C|..|G#1 2A.F ....|--- .... ....|--- .... ....
....|..|C-5 VF.F ....|--- .... ....|--- .... ....
....|..|--- .... ....|--- .... ....|--- .... ....
....|..|C-3 RF.7 ....|--- .... ....|--- .... ....
....|..|--- .... ....|--- .... ....|--- .... ....
....|..|C-4 AF.F ....|G-3 3F1F ....|G-3 4F1F ....
..1E|..|G-1 2A.F ....|--- .... ....|--- .... ....
....|..|R-- .... ....|--- .... ....|--- .... ....
....|..|--- .... ....|--- .... ....|--- .... ....
....|..|C-3 RF.F ....|--- .... ....|--- .... ....
....|..|--- .... ....|--- .... ....|--- .... ....
....|..|C-3 RF.F ....|E-3 3F17 ....|E-3 4F17 ....
....|..|G#1 2F.A ....|--- .... ....|--- .... ....
....|..|C-4 AF.F ....|F-3 3F1F ....|F-3 4F1F ....
..22|..|F-1 2A.F ....|--- .... ....|--- .... ....
....|..|R-- .... ....|--- .... ....|--- .... ....
....|..|--- .... ....|--- .... ....|--- .... ....
....|..|C-5 VF.F ....|A-3 3F17 ....|A-3 4F17 ....
....|..|A-1 2F.7 ....|--- .... ....|--- .... ....
..24|..|E-1 2A.F ....|E-3 3F1F ....|E-3 4F1F ....
....|..|--- .... ....|--- .... ....|--- .... ....
....|..|C-4 AF.F ....|--- .... ....|--- .... ....
....|..|--- .... ....|--- .... ....|--- .... ....
....|..|C-4 AF.7 ....|G#3 3F17 ....|G#3 4F17 ....
....|..|G#1 2F.7 ....|--- .... ....|--- .... ....

[Pattern54]
....|..|C-4 AF.F ....|A-3 3F1F ....|A-3 4F1F ....
..1B|..|A-1 2A.F ....|--- .... ....|--- .... ....
....|..|R-- .... ....|--- .... ....|--- .... ....
....|..|--- .... ....|--- .... ....|--- .... ....
....|..|C-4 AF.7 ....|G-3 3F17 ....|G-3 4F17 ....
....|..|G-1 2F.7 ....|--- .... ....|--- .... ....
....|..|C-4 AF.F ....|G#3 3F1F ....|G#3 4F1F ....
..1C|..|G#1 2A.F ....|--- .... ....|--- .... ....
....|..|C-5 VF.F ....|--- .... ....|--- .... ....
....|..|--- .... ....|--- .... ....|--- .... ....
....|..|C-3 RF.7 ....|--- .... ....|--- .... ....
....|..|--- .... ....|--- .... ....|--- .... ....
....|..|C-4 AF.F ....|G-3 3F1F ....|G-3 4F1F ....
..1E|..|G-1 2A.F ....|--- .... ....|--- .... ....
....|..|R-- .... ....|--- .... ....|--- .... ....
....|..|--- .... ....|--- .... ....|--- .... ....
....|..|C-3 RF.F ....|--- .... ....|--- .... ....
....|..|--- .... ....|--- .... ....|--- .... ....
....|..|C-3 RF.F ....|E-3 3F17 ....|E-3 4F17 ....
....|..|G#1 2F.A ....|--- .... ....|--- .... ....
....|..|C-4 AF.F ....|F-3 3F1F ....|F-3 4F1F ....
..22|..|F-1 2A.F ....|--- .... ....|--- .... ....
....|..|R-- .... ....|--- .... ....|--- .... ....
....|..|--- .... ....|--- .... ....|--- .... ....
....|..|C-5 VF.F ....|A-3 3F17 ....|A-3 4F17 ....
....|..|A-1 2F.7 ....|--- .... ....|--- .... ....
..24|..|E-1 2A.F ....|E-3 3F1F ....|E-3 4F1F ....
....|..|--- .... ....|--- .... ....|--- .... ....
....|..|C-4 AF.F ....|--- .... ....|--- .... ....
....|..|--- .... ....|B-2 3F.F ....|B-2 4F.F ....
....|..|C-4 AF.7 ....|G#3 3F17 ....|G#3 4F17 ....
....|..|G#1 2F.7 ....|--- .... ....|--- .... ....
....|..|C-4 AF.F ....|A-3 3F1F ....|A-3 4F1F ....
..1B|..|A-1 2A.F ....|--- .... ....|--- .... ....
....|..|R-- .... ....|--- .... ....|--- .... ....
....|..|--- .... ....|--- .... ....|--- .... ....
....|..|C-4 AF.F ....|G-3 3F17 ....|G-3 4F17 ....
....|..|G-1 2F.7 ....|--- .... ....|--- .... ....
..1C|..|G#1 2A.F ....|G#3 3F1F ....|G#3 4F1F ....
....|..|--- .... ....|--- .... ....|--- .... ....
....|..|C-5 VF.F ....|--- .... ....|--- .... ....
....|..|--- .... ....|B-2 3F.A ....|B-2 4F.A ....
....|..|C-3 RF.7 ....|--- .... ....|--- .... ....
....|..|--- .... ....|--- .... ....|--- .... ....
....|..|C-4 AF.F ....|G-3 3F1F ....|G-3 4F1F ....
..1E|..|G-1 2A.F ....|--- .... ....|--- .... ....
....|..|C-5 VF.F ....|--- .... ....|--- .... ....
....|..|--- .... ....|--- .... ....|--- .... ....
....|..|C-3 RF.F ....|A-3 3F3F ....|A-3 4F3F ....
..24|..|E-1 2A.F ....|--- .... ....|--- .... ....
....|..|C-5 VF.F ....|E-3 3F3F ....|E-3 4F3F ....
..24|..|E-1 2A.F ....|--- .... ....|--- .... ....
....|..|C-4 AF.F ....|A-3 3F3F ....|A-3 4F3F ....
..24|..|E-1 2A.F ....|B-2 3F.7 ....|B-2 4F.7 ....
..24|..|E-1 2A.F ....|E-3 3F3F ....|E-3 4F3F ....
....|..|--- .... ....|--- .... ....|--- .... ....
....|..|C-5 VF.F ....|E-3 3F.F ....|E-3 4F.F ....
..12|..|E-2 2A.F ....|--- .... ....|--- .... ....
....|..|C-5 VF.A ....|--- .... ....|--- .... ....
....|..|--- .... ....|--- .... ....|--- .... ....
....|..|C-4 AF.F ....|A-2 3F.F ....|A-2 4F.F ....
..1B|..|A-1 2A.F ....|--- .... ....|--- .... ....
....|..|G#1 2F.7 ....|G#3 3F17 ....|G#3 4F17 ....
....|..|E-1 2F.A ....|--- .... ....|--- .... ....

[Pattern55]
....|..|C-4 AF.F ....|A-3 3F1F ....|A-3 4F1F ....
..1B|..|A-1 2A.F ....|--- .... ....|--- .... ....
....|..|E-1 2F.A ....|E-3 3F3A ....|E-3 4F3A ....
....|..|--- .... ....|--- .... ....|--- .... ....
....|..|C-4 AF.F ....|G-3 3F17 ....|G-3 4F17 ....
....|..|G-1 2F.7 ....|--- .... ....|--- .... ....
..1C|..|G#1 2A.F ....|G#3 3F1F ....|G#3 4F1F ....
....|..|--- .... ....|--- .... ....|--- .... ....
....|..|C-5 VF.F ....|A-3 3F37 ....|A-3 4F37 ....
....|..|E-1 2F.7 ....|--- .... ....|--- .... ....
....|..|C-5 VF.7 ....|E-3 3F37 ....|E-3 4F37 ....
....|..|E-1 2F.7 ....|--- .... ....|--- .... ....
....|..|C-4 AF.F ....|G-3 3F1F ....|G-3 4F1F ....
..1E|..|G-1 2A.F ....|--- .... ....|--- .... ....
....|..|E-1 2F.7 ....|E-3 3F37 ....|E-3 4F37 ....
....|..|--- .... ....|--- .... ....|--- .... ....
....|..|C-3 RF.F ....|E-3 3F.7 ....|E-3 4F.7 ....
....|..|E-2 2F.7 ....|--- .... ....|--- .... ....
....|..|C-3 RF.F ....|G#3 3F1A ....|G#3 4F1A ....
....|..|--- .... ....|--- .... ....|--- .... ....
....|..|C-4 AF.F ....|F-3 3F1F ....|F-3 4F1F ....
..22|..|F-1 2A.F ....|--- .... ....|--- .... ....
....|..|R-- .... ....|--- .... ....|--- .... ....
....|..|--- .... ....|--- .... ....|--- .... ....
....|..|C-5 VF.F ....|A-3 3F17 ....|A-3 4F17 ....
....|..|A-1 2F.7 ....|--- .... ....|--- .... ....
..24|..|E-1 2A.F ....|E-3 3F1F ....|E-3 4F1F ....
....|..|--- .... ....|--- .... ....|--- .... ....
....|..|C-4 AF.F ....|--- .... ....|--- .... ....
....|..|--- .... ....|--- .... ....|--- .... ....
....|..|G#1 2F.7 ....|G#3 3F17 ....|G#3 4F17 ....
....|..|--- .... ....|--- .... ....|--- .... ....
....|..|C-4 AF.F ....|A-3 3F1F ....|A-3 4F1F ....
..1B|..|A-1 2A.F ....|--- .... ....|--- .... ....
....|..|R-- .... ....|--- .... ....|--- .... ....
....|..|--- .... ....|--- .... ....|--- .... ....
....|..|C-4 AF.7 ....|G-3 3F17 ....|G-3 4F17 ....
....|..|G-1 2F.7 ....|--- .... ....|--- .... ....
....|..|C-4 AF.F ....|G#3 3F1F ....|G#3 4F1F ....
..1C|..|G#1 2A.F ....|--- .... ....|--- .... ....
....|..|C-5 VF.F ....|--- .... ....|--- .... ....
....|..|--- .... ....|--- .... ....|--- .... ....
....|..|C-3 RF.7 ....|--- .... ....|--- .... ....
....|..|--- .... ....|--- .... ....|--- .... ....
....|..|C-4 AF.F ....|G-3 3F1F ....|G-3 4F1F ....
..1E|..|G-1 2A.F ....|--- .... ....|--- .... ....
....|..|R-- .... ....|--- .... ....|--- .... ....
....|..|--- .... ....|--- .... ....|--- .... ....
....|..|C-3 RF.F ....|--- .... ....|--- .... ....
....|..|--- .... ....|--- .... ....|--- .... ....
....|..|C-3 RF.F ....|E-3 3F17 ....|E-3 4F17 ....
....|..|G#1 2F.A ....|--- .... ....|--- .... ....
....|..|C-4 AF.F ....|F-3 3F1F ....|F-3 4F1F ....
..22|..|F-1 2A.F ....|--- .... ....|--- .... ....
....|..|R-- .... ....|--- .... ....|--- .... ....
....|..|--- .... ....|--- .... ....|--- .... ....
....|..|C-5 VF.F ....|A-3 3F17 ....|A-3 4F17 ....
....|..|A-1 2F.7 ....|--- .... ....|--- .... ....
..24|..|E-1 2A.F ....|E-3 3F1F ....|E-3 4F1F ....
....|..|--- .... ....|--- .... ....|--- .... ....
....|..|C-4 AF.F ....|--- .... ....|--- .... ....
....|..|--- .... ....|--- .... ....|--- .... ....
....|..|C-4 AF.7 ....|G#3 3F17 ....|G#3 4F17 ....
....|..|G#1 2F.7 ....|--- .... ....|--- .... ....

[Pattern56]
....|..|C-4 AF.F ....|A-3 3F1F ....|A-3 4F1F ....
..1B|..|A-1 2A.F ....|--- .... ....|--- .... ....
....|..|R-- .... ....|--- .... ....|--- .... ....
....|..|--- .... ....|--- .... ....|--- .... ....
....|..|C-4 AF.7 ....|G-3 3F17 ....|G-3 4F17 ....
....|..|G-1 2F.7 ....|--- .... ....|--- .... ....
....|..|C-4 AF.F ....|G#3 3F1F ....|G#3 4F1F ....
..1C|..|G#1 2A.F ....|--- .... ....|--- .... ....
....|..|C-3 RF.7 ....|--- .... ....|--- .... ....
....|..|--- .... ....|--- .... ....|--- .... ....
....|..|C-3 RF.7 ....|--- .... ....|--- .... ....
....|..|--- .... ....|--- .... ....|--- .... ....
....|..|C-4 AF.F ....|G-3 3F1F ....|G-3 4F1F ....
..1E|..|G-1 2A.F ....|--- .... ....|--- .... ....
....|..|R-- .... ....|--- .... ....|--- .... ....
....|..|--- .... ....|--- .... ....|--- .... ....
....|..|C-5 VF.7 ....|--- .... ....|--- .... ....
....|..|--- .... ....|--- .... ....|--- .... ....
....|..|E-1 2F.7 ....|E-3 3F17 ....|E-3 4F17 ....
....|..|G#1 2F.A ....|--- .... ....|--- .... ....
....|..|C-4 AF.F ....|F-3 3F1F ....|F-3 4F1F ....
..22|..|F-1 2A.F ....|--- .... ....|--- .... ....
....|..|R-- .... ....|--- .... ....|--- .... ....
....|..|--- .... ....|--- .... ....|--- .... ....
....|..|C-4 AF.7 ....|A-3 3F17 ....|A-3 4F17 ....
....|..|A-1 2F.7 ....|--- .... ....|--- .... ....
....|..|C-4 AF.F ....|E-3 3F1F ....|E-3 4F1F ....
..24|..|E-1 2A.F ....|--- .... ....|--- .... ....
....|..|--- .... ....|--- .... ....|--- .... ....
....|..|--- .... ....|--- .... ....|--- .... ....
....|..|C-4 AF.7 ....|G#3 3F17 ....|G#3 4F17 ....
....|..|G#1 2F.7 ....|--- .... ....|--- .... ....
....|..|C-4 AF.F ....|A-3 3F1F ....|A-3 4F1F ....
..1B|..|A-1 2A.F ....|--- .... ....|--- .... ....
....|..|--- .... ....|--- .... ....|--- .... ....
....|..|--- .... ....|--- .... ....|--- .... ....
....|..|C-4 AF.7 ....|G-3 3F17 ....|G-3 4F17 ....
....|..|G-1 2F.7 ....|--- .... ....|--- .... ....
....|..|C-4 AF.F ....|G#3 3F1F ....|G#3 4F1F ....
..1C|..|G#1 2A.F ....|--- .... ....|--- .... ....
....|..|--- .... ....|--- .... ....|--- .... ....
....|..|--- .... ....|--- .... ....|--- .... ....
....|..|--- .... ....|--- .... ....|--- .... ....
....|..|--- .... ....|--- .... ....|--- .... ....
....|..|C-4 AF.F ....|G-3 3F1F ....|G-3 4F1F ....
..1E|..|G-1 2A.F ....|--- .... ....|--- .... ....
....|..|--- .... ....|--- .... ....|--- .... ....
....|..|--- .... ....|--- .... ....|--- .... ....
..24|..|E-1 2A.F ....|A-3 3F3F ....|A-3 4F3F ....
....|..|--- .... ....|--- .... ....|--- .... ....
....|..|C-4 AF.F ....|E-3 3F3F ....|E-3 4F3F ....
..24|..|E-1 2A.F ....|--- .... ....|--- .... ....
....|..|C-4 AF.F ....|A-3 3F3F ....|A-3 4F3F ....
..24|..|E-1 2A.F ....|--- .... ....|--- .... ....
....|..|C-4 AF.F ....|E-3 3F3F ....|E-3 4F3F ....
..24|..|E-1 2A.F ....|--- .... ....|--- .... ....
....|..|C-5 VF.F ....|E-3 3F.F ....|E-3 4F.F ....
..12|..|E-2 2A.F ....|--- .... ....|--- .... ....
....|..|--- .... ....|--- .... ....|--- .... ....
....|..|--- .... ....|--- .... ....|--- .... ....
....|..|C-4 AF.F ....|A-2 3F.F ....|A-2 4F.F ....
..1B|..|A-1 2A.F ....|--- .... ....|--- .... ....
....|..|C-4 AF.7 ....|G#3 3F17 ....|G#3 4F17 ....
....|..|G#1 2F.7 ....|--- .... ....|--- .... ....

[Pattern57]
....|..|C-4 AF.F ....|A-3 3F1F ....|A-3 4F1F ....
..1B|..|A-1 2A.F ....|--- .... ....|--- .... ....
....|..|C-4 AF.A ....|E-3 3F3A ....|E-3 4F3A ....
....|..|E-1 2F.A ....|--- .... ....|--- .... ....
....|..|C-4 AF.F ....|G-3 3F17 ....|G-3 4F17 ....
....|..|G-1 2F.7 ....|--- .... ....|--- .... ....
..1C|..|G#1 2A.F ....|G#3 3F1F ....|G#3 4F1F ....
....|..|--- .... ....|--- .... ....|--- .... ....
....|..|C-5 VF.F ....|A-3 3F37 ....|A-3 4F37 ....
....|..|A-1 2F.A ....|--- .... ....|--- .... ....
....|..|C-4 AF.7 ....|E-3 3F37 ....|E-3 4F37 ....
....|..|E-1 2F.7 ....|--- .... ....|--- .... ....
....|..|C-4 AF.F ....|G-3 3F1F ....|G-3 4F1F ....
..1E|..|G-1 2A.F ....|--- .... ....|--- .... ....
....|..|C-4 AF.7 ....|E-3 3F37 ....|E-3 4F37 ....
....|..|E-1 2F.7 ....|--- .... ....|--- .... ....
....|..|C-3 RF.F ....|E-3 3F.7 ....|E-3 4F.7 ....
....|..|E-2 2F.7 ....|--- .... ....|--- .... ....
....|..|C-3 RF.F ....|G#3 3F1A ....|G#3 4F1A ....
....|..|--- .... ....|--- .... ....|--- .... ....
....|..|C-4 AF.F ....|F-3 3F1F ....|F-3 4F1F ....
..22|..|F-1 2A.F ....|--- .... ....|--- .... ....
....|..|R-- .... ....|--- .... ....|--- .... ....
....|..|--- .... ....|--- .... ....|--- .... ....
....|..|C-5 VF.F ....|A-3 3F17 ....|A-3 4F17 ....
....|..|A-1 2F.7 ....|--- .... ....|--- .... ....
..24|..|E-1 2A.F ....|E-3 3F1F ....|E-3 4F1F ....
....|..|--- .... ....|--- .... ....|--- .... ....
....|..|C-4 AF.F ....|--- .... ....|--- .... ....
....|..|--- .... ....|--- .... ....|--- .... ....
....|..|G#1 2F.7 ....|G#3 3F17 ....|G#3 4F17 ....
....|..|--- .... ....|--- .... ....|--- .... ....
....|..|C-4 AF.F ....|A-3 3F1F ....|A-3 4F1F ....
..1B|..|A-1 2A.F ....|--- .... ....|--- .... ....
....|..|R-- .... ....|--- .... ....|--- .... ....
....|..|--- .... ....|--- .... ....|--- .... ....
....|..|C-4 AF.7 ....|G-3 3F17 ....|G-3 4F17 ....
....|..|G-1 2F.7 ....|--- .... ....|--- .... ....
....|..|C-4 AF.F ....|G#3 3F1F ....|G#3 4F1F ....
..1C|..|G#1 2A.F ....|--- .... ....|--- .... ....
....|..|C-5 VF.F ....|--- .... ....|--- .... ....
....|..|--- .... ....|--- .... ....|--- .... ....
....|..|C-3 RF.7 ....|--- .... ....|--- .... ....
....|..|--- .... ....|--- .... ....|--- .... ....
....|..|C-4 AF.F ....|G-3 3F1F ....|G-3 4F1F ....
..1E|..|G-1 2A.F ....|--- .... ....|--- .... ....
....|..|R-- .... ....|--- .... ....|--- .... ....
....|..|--- .... ....|--- .... ....|--- .... ....
....|..|C-3 RF.F ....|--- .... ....|--- .... ....
....|..|--- .... ....|--- .... ....|--- .... ....
....|..|C-3 RF.F ....|E-3 3F17 ....|E-3 4F17 ....
....|..|G#1 2F.A ....|--- .... ....|--- .... ....
....|..|C-4 AF.F ....|F-3 3F1F ....|F-3 4F1F ....
..22|..|F-1 2A.F ....|--- .... ....|--- .... ....
....|..|R-- .... ....|--- .... ....|--- .... ....
....|..|--- .... ....|--- .... ....|--- .... ....
....|..|C-5 VF.F ....|A-3 3F17 ....|A-3 4F17 ....
....|..|A-1 2F.7 ....|--- .... ....|--- .... ....
..24|..|E-1 2A.F ....|E-3 3F1F ....|E-3 4F1F ....
....|..|--- .... ....|--- .... ....|--- .... ....
....|..|C-4 AF.F ....|--- .... ....|--- .... ....
....|..|--- .... ....|--- .... ....|--- .... ....
....|..|C-4 AF.7 ....|G#3 3F17 ....|G#3 4F17 ....
....|..|G#1 2F.7 ....|--- .... ....|--- .... ....

[Pattern59]
....|..|C-4 AF.A ....|A-3 3F3A ....|F#5 5F.F ....
....|..|E-1 2F.A ....|--- .... ....|--- .... ....
....|..|C-4 AF.A ....|E-3 3F3A ....|E-3 4F3A ....
....|..|E-1 2F.A ....|--- .... ....|--- .... ....
....|..|C-4 AF.7 ....|G-3 3F17 ....|G-3 4F17 ....
....|..|G-1 2F.7 ....|--- .... ....|--- .... ....
....|..|--- .... ....|--- .... ....|--- .... ....
....|..|--- .... ....|--- .... ....|--- .... ....
....|..|E-1 2F.7 ....|A-3 3F37 ....|F#5 5F.F ....
....|..|A-1 2F.A ....|--- .... ....|--- .... ....
....|..|C-4 AF.7 ....|E-3 3F37 ....|E-3 4F37 ....
....|..|E-1 2F.7 ....|--- .... ....|--- .... ....
....|..|C-4 AF.7 ....|A-3 3F37 ....|A-3 4F37 ....
....|..|E-1 2F.7 ....|--- .... ....|--- .... ....
....|..|C-4 AF.7 ....|E-3 3F37 ....|E-3 4F37 ....
....|..|E-1 2F.7 ....|--- .... ....|--- .... ....
....|..|C-5 VF.7 ....|E-3 3F.7 ....|F#5 5F.F ....
....|..|E-2 2F.7 ....|--- .... ....|--- .... ....
....|..|--- .... ....|--- .... ....|--- .... ....
....|..|--- .... ....|--- .... ....|--- .... ....
....|..|C-4 AF.7 ....|A-2 3F.7 ....|A-2 4F.7 ....
....|..|A-1 2F.7 ....|--- .... ....|--- .... ....
....|..|--- .... ....|--- .... ....|--- .... ....
....|..|--- .... ....|--- .... ....|--- .... ....
....|..|R-- .... ....|R-- .... ....|F#5 5F.F ....
....|..|--- .... ....|--- .... ....|--- .... ....
....|..|--- .... ....|--- .... ....|--- .... ....
....|..|--- .... ....|--- .... ....|--- .... ....
....|..|--- .... ....|--- .... ....|F#5 5F.A ....
....|..|--- .... ....|--- .... ....|--- .... ....
....|..|--- .... ....|--- .... ....|F#5 5F.F ....
....|..|--- .... ....|--- .... ....|--- .... ....
....|..|--- .... ....|--- .... ....|F#5 5F.F ....
....|..|--- .... ....|--- .... ....|--- .... ....
....|..|--- .... ....|--- .... ....|--- .... ....
....|..|--- .... ....|--- .... ....|--- .... ....
....|..|--- .... ....|--- .... ....|F#5 5F.A ....
....|..|--- .... ....|--- .... ....|--- .... ....
....|..|--- .... ....|--- .... ....|--- .... ....
....|..|--- .... ....|--- .... ....|--- .... ....
....|..|--- .... ....|--- .... ....|F#5 5F.F ....
....|..|--- .... ....|--- .... ....|--- .... ....
....|..|--- .... ....|--- .... ....|F#5 5F.A ....
....|..|--- .... ....|--- .... ....|--- .... ....
....|..|--- .... ....|--- .... ....|F#5 5F.A ....
....|..|--- .... ....|--- .... ....|--- .... ....
....|..|--- .... ....|--- .... ....|--- .... ....
....|..|--- .... ....|--- .... ....|--- .... ....
....|..|--- .... ....|--- .... ....|F#5 5F.F ....
....|..|--- .... ....|--- .... ....|--- .... ....
....|..|--- .... ....|--- .... ....|--- .... ....
....|..|--- .... ....|--- .... ....|--- .... ....
....|..|--- .... ....|--- .... ....|F#5 5F.A ....
....|..|--- .... ....|--- .... ....|--- .... ....
....|..|--- .... ....|--- .... ....|F#5 5F.7 ....
....|..|--- .... ....|--- .... ....|--- .... ....
....|..|--- .... ....|--- .... ....|F#5 5F.F ....
....|..|--- .... ....|--- .... ....|--- .... ....
....|..|--- .... ....|--- .... ....|--- .... ....
....|..|--- .... ....|--- .... ....|--- .... ....
....|..|--- .... ....|--- .... ....|F#5 5F.F ....
....|..|--- .... ....|--- .... ....|--- .... ....
....|..|--- .... ....|--- .... ....|--- .... ....
....|..|--- .... ....|--- .... ....|--- .... ....

[Pattern60]
....|..|--- .... ....|--- .... ....|F#5 5F.F ....
....|..|--- .... ....|--- .... ....|--- .... ....
....|..|--- .... ....|--- .... ....|--- .... ....
....|..|--- .... ....|--- .... ....|--- .... ....
....|..|--- .... ....|--- .... ....|F#5 5F.A ....
....|..|--- .... ....|--- .... ....|--- .... ....
....|..|--- .... ....|--- .... ....|--- .... ....
....|..|--- .... ....|--- .... ....|--- .... ....
....|..|--- .... ....|--- .... ....|F#5 5F.F ....
....|..|--- .... ....|--- .... ....|--- .... ....
....|..|--- .... ....|--- .... ....|--- .... ....
....|..|--- .... ....|--- .... ....|--- .... ....
....|..|--- .... ....|--- .... ....|F#5 5F.A ....
....|..|--- .... ....|--- .... ....|--- .... ....
....|..|--- .... ....|--- .... ....|--- .... ....
....|..|--- .... ....|--- .... ....|--- .... ....
....|..|--- .... ....|--- .... ....|F#5 5F.F ....
....|..|--- .... ....|--- .... ....|--- .... ....
....|..|--- .... ....|--- .... ....|--- .... ....
....|..|--- .... ....|--- .... ....|--- .... ....
....|..|--- .... ....|--- .... ....|F#5 5F.7 ....
....|..|--- .... ....|--- .... ....|--- .... ....
....|..|--- .... ....|--- .... ....|--- .... ....
....|..|--- .... ....|--- .... ....|--- .... ....
....|..|--- .... ....|--- .... ....|F#5 5F.F ....
....|..|--- .... ....|--- .... ....|--- .... ....
....|..|--- .... ....|--- .... ....|--- .... ....
....|..|--- .... ....|--- .... ....|--- .... ....
....|..|--- .... ....|--- .... ....|F#5 5F.A ....
....|..|--- .... ....|--- .... ....|--- .... ....
....|..|--- .... ....|--- .... ....|--- .... ....
....|..|--- .... ....|--- .... ....|--- .... ....
....|..|--- .... ....|--- .... ....|F-5 5F.F ....
....|..|--- .... ....|--- .... ....|--- .... ....
....|..|--- .... ....|--- .... ....|--- .... ....
....|..|--- .... ....|--- .... ....|--- .... ....
....|..|--- .... ....|--- .... ....|F#5 5F.A ....
....|..|--- .... ....|--- .... ....|--- .... ....
....|..|--- .... ....|--- .... ....|--- .... ....
....|..|--- .... ....|--- .... ....|--- .... ....
....|..|--- .... ....|--- .... ....|F-5 5F.F ....
....|..|--- .... ....|--- .... ....|--- .... ....
....|..|--- .... ....|--- .... ....|--- .... ....
....|..|--- .... ....|--- .... ....|--- .... ....
....|..|--- .... ....|--- .... ....|F-5 5F.A ....
....|..|--- .... ....|--- .... ....|--- .... ....
....|..|--- .... ....|--- .... ....|--- .... ....
....|..|--- .... ....|--- .... ....|--- .... ....
....|..|--- .... ....|--- .... ....|D-5 5F.F ....
....|..|--- .... ....|--- .... ....|--- .... ....
....|..|--- .... ....|--- .... ....|--- .... ....
....|..|--- .... ....|--- .... ....|--- .... ....
....|..|--- .... ....|--- .... ....|F-5 5F.A ....
....|..|--- .... ....|--- .... ....|--- .... ....
....|..|--- .... ....|--- .... ....|D-5 5F.F ....
....|..|--- .... ....|--- .... ....|--- .... ....
....|..|--- .... ....|--- .... ....|F-5 5F.7 ....
....|..|--- .... ....|--- .... ....|--- .... ....
....|..|--- .... ....|--- .... ....|--- .... ....
....|..|--- .... ....|--- .... ....|--- .... ....
....|..|--- .... ....|--- .... ....|F-5 5F.F ....
....|..|--- .... ....|--- .... ....|--- .... ....
....|..|--- .... ....|--- .... ....|--- .... ....
....|..|--- .... ....|--- .... ....|--- .... ....

[Pattern61]
....|..|--- .... ....|--- .... ....|F#5 5F.F ....
....|..|--- .... ....|--- .... ....|--- .... ....
....|..|--- .... ....|--- .... ....|D-5 5F.A ....
....|..|--- .... ....|--- .... ....|--- .... ....
....|..|--- .... ....|--- .... ....|--- .... ....
....|..|--- .... ....|--- .... ....|--- .... ....
....|..|--- .... ....|--- .... ....|--- .... ....
....|..|--- .... ....|--- .... ....|--- .... ....
....|..|--- .... ....|--- .... ....|F#5 5F.F ....
....|..|--- .... ....|--- .... ....|--- .... ....
....|..|--- .... ....|--- .... ....|--- .... ....
....|..|--- .... ....|--- .... ....|--- .... ....
....|..|--- .... ....|--- .... ....|F#5 5F.A ....
....|..|--- .... ....|--- .... ....|--- .... ....
....|..|--- .... ....|--- .... ....|D-5 5F.7 ....
....|..|--- .... ....|--- .... ....|--- .... ....
....|..|--- .... ....|--- .... ....|F#5 5F.F ....
....|..|--- .... ....|--- .... ....|--- .... ....
....|..|--- .... ....|--- .... ....|--- .... ....
....|..|--- .... ....|--- .... ....|--- .... ....
....|..|--- .... ....|--- .... ....|F-5 5F.7 ....
....|..|--- .... ....|--- .... ....|--- .... ....
....|..|--- .... ....|--- .... ....|--- .... ....
....|..|--- .... ....|--- .... ....|--- .... ....
....|..|--- .... ....|--- .... ....|F#5 5F.F ....
....|..|--- .... ....|--- .... ....|--- .... ....
....|..|--- .... ....|--- .... ....|--- .... ....
....|..|--- .... ....|--- .... ....|--- .... ....
....|..|--- .... ....|--- .... ....|F#5 5F.A ....
....|..|--- .... ....|--- .... ....|--- .... ....
....|..|--- .... ....|--- .... ....|--- .... ....
....|..|--- .... ....|--- .... ....|--- .... ....
....|..|--- .... ....|--- .... ....|F#5 5F.7 ....
....|..|--- .... ....|--- .... ....|--- .... ....
....|..|--- .... ....|--- .... ....|--- .... ....
....|..|--- .... ....|--- .... ....|--- .... ....
....|..|--- .... ....|--- .... ....|F#5 5F.A ....
....|..|--- .... ....|--- .... ....|--- .... ....
....|..|--- .... ....|--- .... ....|--- .... ....
....|..|--- .... ....|--- .... ....|--- .... ....
....|..|--- .... ....|--- .... ....|F#5 5F.7 ....
....|..|--- .... ....|--- .... ....|--- .... ....
....|..|--- .... ....|--- .... ....|--- .... ....
....|..|--- .... ....|--- .... ....|--- .... ....
....|..|--- .... ....|--- .... ....|--- .... ....
....|..|--- .... ....|--- .... ....|--- .... ....
....|..|--- .... ....|--- .... ....|--- .... ....
....|..|--- .... ....|--- .... ....|--- .... ....
....|..|--- .... ....|--- .... ....|F#5 5F.7 ....
....|..|--- .... ....|--- .... ....|--- .... ....
....|..|--- .... ....|--- .... ....|--- .... ....
....|..|--- .... ....|--- .... ....|--- .... ....
....|..|--- .... ....|--- .... ....|--- .... ....
....|..|--- .... ....|--- .... ....|--- .... ....
....|..|--- .... ....|--- .... ....|--- .... ....
....|..|--- .... ....|--- .... ....|--- .... ....
....|..|--- .... ....|--- .... ....|--- .... ....
....|..|--- .... ....|--- .... ....|--- .... ....
....|..|--- .... ....|--- .... ....|--- .... ....
....|..|--- .... ....|--- .... ....|--- .... ....
....|..|--- .... ....|--- .... ....|--- .... ....
....|..|--- .... ....|--- .... ....|--- .... ....
....|..|--- .... ....|--- .... ....|--- .... ....
....|..|--- .... ....|--- .... ....|--- .... ....

[Pattern62]
....|..|--- .... ....|--- .... ....|R-- .... ....
....|..|--- .... ....|--- .... ....|--- .... ....
....|..|--- .... ....|--- .... ....|--- .... ....
....|..|--- .... ....|--- .... ....|--- .... ....
....|..|--- .... ....|--- .... ....|--- .... ....
....|..|--- .... ....|--- .... ....|--- .... ....
....|..|--- .... ....|--- .... ....|--- .... ....
....|..|--- .... ....|--- .... ....|--- .... ....
....|..|--- .... ....|--- .... ....|--- .... ....
....|..|--- .... ....|--- .... ....|--- .... ....
....|..|--- .... ....|--- .... ....|--- .... ....
....|..|--- .... ....|--- .... ....|--- .... ....
....|..|--- .... ....|--- .... ....|R-- .... ....
....|..|--- .... ....|--- .... ....|--- .... ....
....|..|--- .... ....|--- .... ....|--- .... ....
....|..|--- .... ....|--- .... ....|--- .... ....
....|..|--- .... ....|--- .... ....|--- .... ....
....|..|--- .... ....|--- .... ....|--- .... ....
....|..|--- .... ....|--- .... ....|--- .... ....
....|..|--- .... ....|--- .... ....|--- .... ....
....|..|--- .... ....|--- .... ....|--- .... ....
....|..|--- .... ....|--- .... ....|--- .... ....
....|..|--- .... ....|--- .... ....|--- .... ....
....|..|--- .... ....|--- .... ....|--- .... ....

