[Module]
VortexTrackerII=0
Version=3.5
Title=rihanna_music_dry.mid
Author=oisee ^ 4d 29.05.2010
NoteTable=4
ChipFreq=1750000
Speed=3
PlayOrder=L0,1,2,3,4,5,6,7,8,9,10,11,12,13,14,15,16,17,18,19,20,21,22,23,24,25,26,27,28,29,30,31,32,33,34,35,36,37,38,39,40,41,42,43,44,45,46,47,48,49,50,51,52,53,54,55,56,57,58,59,60,61,62,63,64,65,66,67

[Ornament1]
L0

[Ornament2]
L7,7,2,2,0,0

[Ornament3]
L0,0,3,3,7,7,12,12

[Ornament4]
L0,0,4,4,7,7,12,12

[Ornament5]
L0,0,5,5,8,8,12,12

[Ornament6]
L0,0,3,3,6,6,12,12

[Ornament7]
L0,3,7

[Ornament8]
L0,0,3,3,8,8,12,12

[Ornament9]
0,-12,-12,-24,L-24

[Ornament10]
L0,0,12,12,0,0,12,12

[Ornament11]
24,12,0,-12,-24,-36,L-36

[Ornament12]
L0

[Ornament13]
1,L0

[Ornament14]
L0,24,0,0,0

[Ornament15]
L0,36,0,0

[Sample1]
TnE +000_ +00_ F_
TnE +000_ +00_ F_
TnE +000_ +00_ F_
TnE +000_ +00_ D_
TnE +000_ +00_ B_
TnE +000_ +00_ B_ L

[Sample2]
TnE +000_ +00_ F_ L

[Sample3]
TnE +001_ +00_ F_
TnE +002_ +00_ F_
TnE +001_ +00_ E_
TnE +002_ +00_ E_
TnE +000_ +00_ E_ L
TnE -001_ +00_ E_
TnE -002_ +00_ E_
TnE -001_ +00_ E_
TnE +000_ +00_ E_
TnE +001_ +00_ E_
TnE +002_ +00_ E_
TnE +001_ +00_ E_

[Sample4]
TnE +002_ +00_ D_
TnE +002_ +00_ D_
TnE +002_ +00_ C_
TnE +002_ +00_ B_
TnE +002_ +00_ A_ L
TnE +002_ +00_ A_
TnE +002_ +00_ A_
TnE +002_ +00_ A_
TnE +002_ +00_ A_
TnE +002_ +00_ A_
TnE +002_ +00_ A_
TnE +002_ +00_ A_

[Sample5]
TnE +000_ +00_ F_
TnE +000_ +00_ F_
tne +000_ +00_ 0_ L

[Sample6]
TnE -001_ +00_ F_ L

[Sample7]
TnE +000_ +00_ F_ L
Tne +000_ +00_ F_
Tne +000_ +00_ F_
Tne +000_ +00_ F-

[Sample8]
tNe +000_ +00_ F_
tNe +000_ +00_ B_
tNe +000_ +00_ 7_
tNe +000_ +00_ 6- L

[Sample9]
TnE +080_ +00_ F_
TnE +100_ +00_ E_
TnE +180_ +00_ E_
TnE +200_ +00_ E_
TnE +240_ +00_ D_
TnE +280_ +00_ D_
TnE +2C0_ +00_ D_
TnE +300_ +00_ C_
TnE +300_ +00_ C_
TnE +340_ +00_ C_
TnE +340_ +00_ C_
TnE +380_ +00_ B_
TnE +380_ +00_ B_
TnE +400_ +00_ B_
TnE +400_ +00_ B_
TnE +480_ +00_ A_
TnE +500_ +00_ 9_
TnE +580_ +00_ 7_
TnE +600_ +00_ 4_
TnE +680_ +00_ 1_
TnE +000_ +00_ 0_ L

[Sample10]
Tne +1C0_ +00_ F_
Tne +280_ +00_ E_
Tne +380_ +00_ C_
Tne +440_ +00_ A_
Tne +480_ +00_ 8_
TnE +000_ +00_ 0_ L

[Sample11]
TNe +200_ -0A_ F_
tNe +000_ +0F_ A_
TNe +200_ -07_ E_
tNe +000_ +0E_ B- L

[Sample12]
TNE +0A0_ +05_ F_
TNE +140_ +02_ D_
TNE +140_ +02_ B_
TNE +100_ +00_ A_ L
TNE +140_ +00_ A_
TNE +200_ +00_ A-

[Sample13]
Tne +200_ +00_ F_
Tne +2C0_ +00_ F_
Tne +380_ +00_ E_
Tne +500_ +00_ C_
Tne +520_ +00_ 9_
tne +000_ +00_ 0_ L

[Sample14]
TNE -100_ +00_ F_
TNE -100_ +00_ D_
TNE -100_ +00_ A_
TNE -100_ +00_ 5_
tne +000_ +00_ 0_ L

[Sample15]
TNE -100_ +00_ 5_
TNE -100_ +00_ 8_
TNE -100_ +00_ B_
TNE -100_ +00_ F_
TNe -100_ +00_ 9- L

[Sample16]
TnE +000_ +00_ C_
TnE +000_ +00_ E_
TnE +000_ +00_ F_
TnE +000_ +00_ F_
TnE +000_ +00_ E_
TnE +000_ +00_ D_
TnE +000_ +00_ C_
TnE +000_ +00_ C_ L
TnE +001_ +00_ C_
TnE +002_ +00_ C_
TnE +003_ +00_ C_
TnE +001_ +00_ C_
TnE +000_ +00_ C_
TnE -001_ +00_ C_
TnE -002_ +00_ C_
TnE -003_ +00_ C_
TnE -001_ +00_ C_
TnE +000_ +00_ C_
TnE +000_ +00_ C_

[Sample17]
Tne +1C0_ +00_ F_
Tne +280_ +00_ D_
Tne +380_ +00_ 7_
TNE +000_ +00_ 0_ L

[Sample18]
tnE +000_ +00_ 0_ L

[Sample19]
TNe +000_ +00_ F_
TNe +000_ +00_ C_
TNe +000_ +00_ 6_
TNe +000_ +01_ A- L

[Sample20]
TNE +140_ +00_ F_
tNE +000_ +00_ B- L

[Sample21]
tNE +000_ +00_ D_
tNE +000_ +00_ 8_
tNE +000_ +00_ 1_
TNE +000_ +00_ 0_ L

[Sample22]
TnE +000_ +00_ D_ L
TnE +000_ +00_ D_
tne +000_ +00_ 9_
tne +000_ +00_ 9_
TnE +000_ +00_ D_
TnE +000_ +00_ D_
tne +000_ +00_ 9_
tne +000_ +00_ 9_
TnE +000_ +00_ D_
TnE +000_ +00_ D_
TnE +000_ +00_ D_
TnE +000_ +00_ D_
TnE +000_ +00_ D_
TnE +000_ +00_ D_
tne +000_ +00_ 9_
tne +000_ +00_ 9_

[Sample23]
TnE +000_ +00_ F_ L
TnE +010_ +01_ F_
TnE +010_ +01_ F_
TnE +010_ +01_ F_
TnE +010_ +01_ F_
TnE +000_ +00_ F_
TnE +000_ +00_ F_
TnE -010_ -01_ F_
TnE -010_ -01_ F_
TnE -010_ -01_ F_
TnE -010_ -01_ F_
TnE +000_ +00_ F_

[Sample24]
TNe +000_ -01_ C_
TNe +000_ -01_ D_
TNe +000_ -01_ E_
TNe +000_ -01_ F_
TNe +000_ -01_ F_
TNe +000_ -01_ F_
TNe +000_ -01_ F_
TNe +000_ -01_ F_
TNe +000_ -01_ E_
TNe +000_ -01_ E_
TNe +000_ -01_ E_
TNe +000_ -01_ F_
TNe +000_ -01_ F_ L

[Sample25]
TNE +000_ +00_ F_
TNE +000_ +00_ F_ L
TNE +000_ +00_ F_
TNE +000_ +00_ F_
TNE +000_ +00_ F-

[Sample26]
tne +000_ +00_ 0_ L

[Sample27]
tne +000_ +00_ 0_ L

[Sample28]
tne +000_ +00_ 0_ L

[Sample29]
tne +000_ +00_ 0_ L

[Sample30]
TNE +000_ +00_ C+ L

[Sample31]
TNe +1C0_ +00_ F_
Tne +280_ +00_ E_
Tne +380_ +00_ C_
Tne +440_ +00_ A_
Tne +480_ +00_ 8_
TnE +000_ +00_ 0_ L

[Pattern0]
....|..|--- .... ....|--- .... ....|--- .... ....
....|..|--- .... ....|--- .... ....|--- .... ....
....|..|--- .... ....|--- .... ....|--- .... ....
....|..|--- .... ....|--- .... ....|--- .... ....
....|..|--- .... ....|--- .... ....|--- .... ....
....|..|--- .... ....|--- .... ....|--- .... ....
....|..|--- .... ....|--- .... ....|--- .... ....
....|..|--- .... ....|--- .... ....|--- .... ....
....|..|--- .... ....|--- .... ....|--- .... ....
....|..|--- .... ....|--- .... ....|--- .... ....
....|..|--- .... ....|--- .... ....|--- .... ....
....|..|--- .... ....|--- .... ....|--- .... ....
....|..|--- .... ....|--- .... ....|--- .... ....
....|..|--- .... ....|--- .... ....|--- .... ....
....|..|--- .... ....|--- .... ....|--- .... ....
....|..|--- .... ....|--- .... ....|--- .... ....
....|..|--- .... ....|--- .... ....|--- .... ....
....|..|--- .... ....|--- .... ....|--- .... ....
....|..|--- .... ....|--- .... ....|--- .... ....
....|..|--- .... ....|--- .... ....|--- .... ....
....|..|--- .... ....|--- .... ....|--- .... ....
....|..|--- .... ....|--- .... ....|--- .... ....
....|..|--- .... ....|--- .... ....|--- .... ....
....|..|--- .... ....|--- .... ....|--- .... ....
....|..|--- .... ....|--- .... ....|--- .... ....
....|..|--- .... ....|--- .... ....|--- .... ....
....|..|--- .... ....|--- .... ....|--- .... ....
....|..|--- .... ....|--- .... ....|--- .... ....
....|..|--- .... ....|--- .... ....|--- .... ....
....|..|--- .... ....|--- .... ....|--- .... ....
....|..|--- .... ....|--- .... ....|--- .... ....
....|..|--- .... ....|--- .... ....|--- .... ....
....|..|--- .... ....|--- .... ....|--- .... ....
....|..|--- .... ....|--- .... ....|--- .... ....
....|..|--- .... ....|--- .... ....|--- .... ....
....|..|--- .... ....|--- .... ....|--- .... ....
....|..|--- .... ....|--- .... ....|--- .... ....
....|..|--- .... ....|--- .... ....|--- .... ....
....|..|--- .... ....|--- .... ....|--- .... ....
....|..|--- .... ....|--- .... ....|--- .... ....
....|..|--- .... ....|--- .... ....|--- .... ....
....|..|--- .... ....|--- .... ....|--- .... ....
....|..|--- .... ....|--- .... ....|--- .... ....
....|..|--- .... ....|--- .... ....|--- .... ....
....|..|--- .... ....|--- .... ....|--- .... ....
....|..|--- .... ....|--- .... ....|--- .... ....
....|..|--- .... ....|--- .... ....|--- .... ....
....|..|--- .... ....|--- .... ....|--- .... ....
....|..|A-5 7F1F ....|--- .... ....|--- .... ....
....|..|--- .... ....|--- .... ....|--- .... ....
....|..|--- .... ....|--- .... ....|--- .... ....
....|..|R-- .... ....|--- .... ....|--- .... ....
....|..|G#5 ...F ....|--- .... ....|--- .... ....
....|..|R-- .... ....|--- .... ....|--- .... ....
....|..|A-5 ...A ....|--- .... ....|--- .... ....
....|..|--- .... ....|--- .... ....|--- .... ....
....|..|F#5 ...F ....|--- .... ....|--- .... ....
....|..|R-- .... ....|--- .... ....|--- .... ....
....|..|G#5 ...A ....|--- .... ....|--- .... ....
....|..|--- .... ....|--- .... ....|--- .... ....
....|..|E-5 ...F ....|--- .... ....|--- .... ....
....|..|R-- .... ....|--- .... ....|--- .... ....
....|..|F#5 ...A ....|--- .... ....|--- .... ....
....|..|--- .... ....|--- .... ....|--- .... ....

[Pattern1]
....|..|F#5 ...F ....|D-3 7FBF ....|--- .... ....
....|..|--- .... ....|--- .... ....|--- .... ....
....|..|E-5 ...A ....|R-- .... ....|--- .... ....
....|..|--- .... ....|--- .... ....|--- .... ....
....|..|R-- .... ....|--- .... ....|--- .... ....
....|..|--- .... ....|--- .... ....|--- .... ....
....|..|F#5 ...A ....|D-3 ...A ....|--- .... ....
....|..|--- .... ....|--- .... ....|--- .... ....
....|..|F#5 ...F ....|D-3 ...F ....|--- .... ....
....|..|--- .... ....|--- .... ....|--- .... ....
....|..|--- .... ....|R-- .... ....|--- .... ....
....|..|--- .... ....|--- .... ....|--- .... ....
....|..|R-- .... ....|--- .... ....|--- .... ....
....|..|--- .... ....|--- .... ....|--- .... ....
....|..|F#5 ...A ....|D-3 ...A ....|--- .... ....
....|..|--- .... ....|--- .... ....|--- .... ....
....|..|--- .... ....|D-3 ...F ....|--- .... ....
....|..|--- .... ....|--- .... ....|--- .... ....
....|..|--- .... ....|R-- .... ....|--- .... ....
....|..|--- .... ....|--- .... ....|--- .... ....
....|..|--- .... ....|--- .... ....|--- .... ....
....|..|--- .... ....|--- .... ....|--- .... ....
....|..|--- .... ....|C#3 ...F ....|--- .... ....
....|..|--- .... ....|--- .... ....|--- .... ....
....|..|--- .... ....|R-- .... ....|--- .... ....
....|..|--- .... ....|--- .... ....|--- .... ....
....|..|--- .... ....|--- .... ....|--- .... ....
....|..|--- .... ....|--- .... ....|--- .... ....
....|..|--- .... ....|C#3 ...F ....|--- .... ....
....|..|--- .... ....|R-- .... ....|--- .... ....
....|..|--- .... ....|--- .... ....|--- .... ....
....|..|--- .... ....|--- .... ....|--- .... ....
....|..|--- .... ....|D-3 ...F ....|--- .... ....
....|..|--- .... ....|--- .... ....|--- .... ....
....|..|--- .... ....|R-- .... ....|--- .... ....
....|..|--- .... ....|--- .... ....|--- .... ....
....|..|--- .... ....|--- .... ....|--- .... ....
....|..|--- .... ....|--- .... ....|--- .... ....
....|..|--- .... ....|D-3 ...A ....|--- .... ....
....|..|--- .... ....|--- .... ....|--- .... ....
....|..|--- .... ....|D-3 ...F ....|--- .... ....
....|..|--- .... ....|--- .... ....|--- .... ....
....|..|--- .... ....|R-- .... ....|--- .... ....
....|..|--- .... ....|--- .... ....|--- .... ....
....|..|--- .... ....|--- .... ....|--- .... ....
....|..|--- .... ....|--- .... ....|--- .... ....
....|..|--- .... ....|D-3 ...A ....|--- .... ....
....|..|--- .... ....|--- .... ....|--- .... ....
....|..|--- .... ....|D-3 ...F ....|--- .... ....
....|..|--- .... ....|--- .... ....|--- .... ....
....|..|--- .... ....|R-- .... ....|--- .... ....
....|..|--- .... ....|--- .... ....|--- .... ....
....|..|--- .... ....|--- .... ....|--- .... ....
....|..|--- .... ....|--- .... ....|--- .... ....
....|..|--- .... ....|C#3 ...F ....|--- .... ....
....|..|--- .... ....|--- .... ....|--- .... ....
....|..|--- .... ....|R-- .... ....|--- .... ....
....|..|--- .... ....|--- .... ....|--- .... ....
....|..|--- .... ....|--- .... ....|--- .... ....
....|..|--- .... ....|--- .... ....|--- .... ....
....|..|--- .... ....|C#3 ...F ....|--- .... ....
....|..|--- .... ....|R-- .... ....|--- .... ....
....|..|--- .... ....|--- .... ....|--- .... ....
....|..|--- .... ....|--- .... ....|--- .... ....

[Pattern2]
....|..|--- .... ....|D-3 ...F ....|--- .... ....
....|..|--- .... ....|--- .... ....|--- .... ....
....|..|--- .... ....|R-- .... ....|--- .... ....
....|..|--- .... ....|--- .... ....|--- .... ....
....|..|--- .... ....|--- .... ....|--- .... ....
....|..|--- .... ....|--- .... ....|--- .... ....
....|..|--- .... ....|D-3 ...A ....|--- .... ....
....|..|--- .... ....|--- .... ....|--- .... ....
....|..|--- .... ....|D-3 ...F ....|--- .... ....
....|..|--- .... ....|--- .... ....|--- .... ....
....|..|--- .... ....|R-- .... ....|--- .... ....
....|..|--- .... ....|--- .... ....|--- .... ....
....|..|--- .... ....|--- .... ....|--- .... ....
....|..|--- .... ....|--- .... ....|--- .... ....
....|..|--- .... ....|D-3 ...A ....|--- .... ....
....|..|--- .... ....|--- .... ....|--- .... ....
....|..|--- .... ....|D-3 ...F ....|--- .... ....
....|..|--- .... ....|--- .... ....|--- .... ....
....|..|--- .... ....|R-- .... ....|--- .... ....
....|..|--- .... ....|--- .... ....|--- .... ....
....|..|--- .... ....|--- .... ....|--- .... ....
....|..|--- .... ....|--- .... ....|--- .... ....
....|..|--- .... ....|C#3 ...F ....|--- .... ....
....|..|--- .... ....|R-- .... ....|--- .... ....
....|..|--- .... ....|--- .... ....|--- .... ....
....|..|--- .... ....|--- .... ....|--- .... ....
....|..|--- .... ....|--- .... ....|--- .... ....
....|..|--- .... ....|--- .... ....|--- .... ....
....|..|--- .... ....|C#3 ...F ....|--- .... ....
....|..|--- .... ....|R-- .... ....|--- .... ....
....|..|--- .... ....|--- .... ....|--- .... ....
....|..|--- .... ....|--- .... ....|--- .... ....
....|..|--- .... ....|D-3 ...F ....|--- .... ....
....|..|--- .... ....|--- .... ....|--- .... ....
....|..|--- .... ....|C#3 ...A ....|--- .... ....
....|..|--- .... ....|R-- .... ....|--- .... ....
....|..|--- .... ....|--- .... ....|--- .... ....
....|..|--- .... ....|--- .... ....|--- .... ....
....|..|--- .... ....|D-3 ...A ....|--- .... ....
....|..|--- .... ....|--- .... ....|--- .... ....
....|..|--- .... ....|D-3 ...F ....|--- .... ....
....|..|--- .... ....|--- .... ....|--- .... ....
....|..|--- .... ....|--- .... ....|--- .... ....
....|..|--- .... ....|R-- .... ....|--- .... ....
....|..|--- .... ....|--- .... ....|--- .... ....
....|..|--- .... ....|--- .... ....|--- .... ....
....|..|--- .... ....|D-3 ...A ....|--- .... ....
....|..|--- .... ....|--- .... ....|--- .... ....
....|..|A-5 ...F ....|D-3 ...F ....|--- .... ....
....|..|--- .... ....|--- .... ....|--- .... ....
....|..|--- .... ....|R-- .... ....|--- .... ....
....|..|R-- .... ....|--- .... ....|--- .... ....
....|..|G#5 ...F ....|--- .... ....|--- .... ....
....|..|R-- .... ....|--- .... ....|--- .... ....
....|..|A-5 ...A ....|C#3 ...F ....|--- .... ....
....|..|--- .... ....|R-- .... ....|--- .... ....
....|..|F#5 ...F ....|--- .... ....|--- .... ....
....|..|R-- .... ....|--- .... ....|--- .... ....
....|..|G#5 ...A ....|--- .... ....|--- .... ....
....|..|--- .... ....|--- .... ....|--- .... ....
....|..|E-5 ...F ....|A-2 ...F ....|--- .... ....
....|..|R-- .... ....|R-- .... ....|--- .... ....
....|..|F#5 ...A ....|--- .... ....|--- .... ....
....|..|--- .... ....|--- .... ....|--- .... ....

[Pattern3]
....|..|F#5 ...F ....|F#2 ...F ....|--- .... ....
....|..|--- .... ....|--- .... ....|--- .... ....
....|..|E-5 ...A ....|R-- .... ....|--- .... ....
....|..|--- .... ....|--- .... ....|--- .... ....
....|..|R-- .... ....|--- .... ....|--- .... ....
....|..|--- .... ....|--- .... ....|--- .... ....
....|..|F#5 ...A ....|F#2 ...A ....|--- .... ....
....|..|--- .... ....|--- .... ....|--- .... ....
....|..|F#5 ...F ....|F#2 ...F ....|--- .... ....
....|..|--- .... ....|--- .... ....|--- .... ....
....|..|--- .... ....|R-- .... ....|--- .... ....
....|..|--- .... ....|--- .... ....|--- .... ....
....|..|R-- .... ....|--- .... ....|--- .... ....
....|..|--- .... ....|--- .... ....|--- .... ....
....|..|F#5 ...A ....|F#2 ...A ....|--- .... ....
....|..|--- .... ....|--- .... ....|--- .... ....
....|..|--- .... ....|F#2 ...F ....|--- .... ....
....|..|--- .... ....|--- .... ....|--- .... ....
....|..|--- .... ....|R-- .... ....|--- .... ....
....|..|--- .... ....|--- .... ....|--- .... ....
....|..|--- .... ....|--- .... ....|--- .... ....
....|..|--- .... ....|--- .... ....|--- .... ....
....|..|--- .... ....|E-2 ...F ....|--- .... ....
....|..|--- .... ....|--- .... ....|--- .... ....
....|..|--- .... ....|R-- .... ....|--- .... ....
....|..|--- .... ....|--- .... ....|--- .... ....
....|..|--- .... ....|--- .... ....|--- .... ....
....|..|--- .... ....|--- .... ....|--- .... ....
....|..|--- .... ....|E-2 ...F ....|--- .... ....
....|..|--- .... ....|R-- .... ....|--- .... ....
....|..|--- .... ....|--- .... ....|--- .... ....
....|..|--- .... ....|--- .... ....|--- .... ....
....|..|--- .... ....|F#2 ...F ....|--- .... ....
....|..|--- .... ....|--- .... ....|--- .... ....
....|..|--- .... ....|R-- .... ....|--- .... ....
....|..|--- .... ....|--- .... ....|--- .... ....
....|..|--- .... ....|--- .... ....|--- .... ....
....|..|--- .... ....|--- .... ....|--- .... ....
....|..|--- .... ....|F#2 ...A ....|--- .... ....
....|..|--- .... ....|--- .... ....|--- .... ....
....|..|--- .... ....|F#2 ...F ....|--- .... ....
....|..|--- .... ....|--- .... ....|--- .... ....
....|..|--- .... ....|R-- .... ....|--- .... ....
....|..|--- .... ....|--- .... ....|--- .... ....
....|..|--- .... ....|--- .... ....|--- .... ....
....|..|--- .... ....|--- .... ....|--- .... ....
....|..|--- .... ....|F#2 ...A ....|--- .... ....
....|..|--- .... ....|--- .... ....|--- .... ....
....|..|--- .... ....|F#2 ...F ....|--- .... ....
....|..|--- .... ....|--- .... ....|--- .... ....
....|..|--- .... ....|R-- .... ....|--- .... ....
....|..|--- .... ....|--- .... ....|--- .... ....
....|..|--- .... ....|--- .... ....|--- .... ....
....|..|--- .... ....|--- .... ....|--- .... ....
....|..|--- .... ....|E-2 ...F ....|--- .... ....
....|..|--- .... ....|--- .... ....|--- .... ....
....|..|--- .... ....|R-- .... ....|--- .... ....
....|..|--- .... ....|--- .... ....|--- .... ....
....|..|--- .... ....|--- .... ....|--- .... ....
....|..|--- .... ....|--- .... ....|--- .... ....
....|..|--- .... ....|E-2 ...F ....|--- .... ....
....|..|--- .... ....|R-- .... ....|--- .... ....
....|..|--- .... ....|--- .... ....|--- .... ....
....|..|--- .... ....|--- .... ....|--- .... ....

[Pattern4]
....|..|--- .... ....|F#2 ...F ....|--- .... ....
....|..|--- .... ....|--- .... ....|--- .... ....
....|..|--- .... ....|R-- .... ....|--- .... ....
....|..|--- .... ....|--- .... ....|--- .... ....
....|..|--- .... ....|--- .... ....|--- .... ....
....|..|--- .... ....|--- .... ....|--- .... ....
....|..|--- .... ....|F#2 ...A ....|--- .... ....
....|..|--- .... ....|--- .... ....|--- .... ....
....|..|--- .... ....|F#2 ...F ....|--- .... ....
....|..|--- .... ....|--- .... ....|--- .... ....
....|..|--- .... ....|R-- .... ....|--- .... ....
....|..|--- .... ....|--- .... ....|--- .... ....
....|..|--- .... ....|--- .... ....|--- .... ....
....|..|--- .... ....|--- .... ....|--- .... ....
....|..|--- .... ....|F#2 ...A ....|--- .... ....
....|..|--- .... ....|--- .... ....|--- .... ....
....|..|--- .... ....|F#2 ...F ....|--- .... ....
....|..|--- .... ....|--- .... ....|--- .... ....
....|..|--- .... ....|R-- .... ....|--- .... ....
....|..|--- .... ....|--- .... ....|--- .... ....
....|..|--- .... ....|--- .... ....|--- .... ....
....|..|--- .... ....|--- .... ....|--- .... ....
....|..|--- .... ....|E-2 ...F ....|--- .... ....
....|..|--- .... ....|R-- .... ....|--- .... ....
....|..|--- .... ....|--- .... ....|--- .... ....
....|..|--- .... ....|--- .... ....|--- .... ....
....|..|--- .... ....|--- .... ....|--- .... ....
....|..|--- .... ....|--- .... ....|--- .... ....
....|..|--- .... ....|E-2 ...F ....|--- .... ....
....|..|--- .... ....|R-- .... ....|--- .... ....
....|..|--- .... ....|--- .... ....|--- .... ....
....|..|--- .... ....|--- .... ....|--- .... ....
....|..|--- .... ....|F#2 ...F ....|--- .... ....
....|..|--- .... ....|--- .... ....|--- .... ....
....|..|--- .... ....|E-2 ...A ....|--- .... ....
....|..|--- .... ....|R-- .... ....|--- .... ....
....|..|--- .... ....|--- .... ....|--- .... ....
....|..|--- .... ....|--- .... ....|--- .... ....
....|..|--- .... ....|F#2 ...A ....|--- .... ....
....|..|--- .... ....|--- .... ....|--- .... ....
....|..|--- .... ....|F#2 ...F ....|--- .... ....
....|..|--- .... ....|--- .... ....|--- .... ....
....|..|--- .... ....|--- .... ....|--- .... ....
....|..|--- .... ....|R-- .... ....|--- .... ....
....|..|--- .... ....|--- .... ....|--- .... ....
....|..|--- .... ....|--- .... ....|--- .... ....
....|..|--- .... ....|F#2 ...A ....|--- .... ....
....|..|--- .... ....|--- .... ....|--- .... ....
....|..|A-5 ...F ....|F#2 ...F ....|--- .... ....
....|..|--- .... ....|--- .... ....|--- .... ....
....|..|--- .... ....|R-- .... ....|--- .... ....
....|..|R-- .... ....|--- .... ....|--- .... ....
....|..|G#5 ...F ....|--- .... ....|--- .... ....
....|..|R-- .... ....|--- .... ....|--- .... ....
....|..|A-5 ...A ....|E-2 ...F ....|--- .... ....
....|..|--- .... ....|R-- .... ....|--- .... ....
....|..|F#5 ...F ....|--- .... ....|--- .... ....
....|..|R-- .... ....|--- .... ....|--- .... ....
....|..|G#5 ...A ....|--- .... ....|--- .... ....
....|..|--- .... ....|--- .... ....|--- .... ....
....|..|E-5 ...F ....|F#2 ...F ....|--- .... ....
....|..|R-- .... ....|R-- .... ....|--- .... ....
....|..|F#5 ...A ....|--- .... ....|--- .... ....
....|..|--- .... ....|--- .... ....|--- .... ....

[Pattern5]
....|..|F#5 ...F ....|D-3 ...F ....|--- .... ....
....|..|--- .... ....|--- .... ....|--- .... ....
....|..|E-5 ...A ....|R-- .... ....|--- .... ....
....|..|--- .... ....|--- .... ....|--- .... ....
....|..|R-- .... ....|--- .... ....|--- .... ....
....|..|--- .... ....|--- .... ....|--- .... ....
....|..|F#5 ...A ....|D-3 ...A ....|--- .... ....
....|..|--- .... ....|--- .... ....|--- .... ....
....|..|F#5 ...F ....|D-3 ...F ....|--- .... ....
....|..|--- .... ....|--- .... ....|--- .... ....
....|..|--- .... ....|R-- .... ....|--- .... ....
....|..|--- .... ....|--- .... ....|--- .... ....
....|..|R-- .... ....|--- .... ....|--- .... ....
....|..|--- .... ....|--- .... ....|--- .... ....
....|..|F#5 ...A ....|D-3 ...A ....|--- .... ....
....|..|--- .... ....|--- .... ....|--- .... ....
....|..|--- .... ....|D-3 ...F ....|--- .... ....
....|..|--- .... ....|--- .... ....|--- .... ....
....|..|--- .... ....|R-- .... ....|--- .... ....
....|..|--- .... ....|--- .... ....|--- .... ....
....|..|--- .... ....|--- .... ....|--- .... ....
....|..|--- .... ....|--- .... ....|--- .... ....
....|..|--- .... ....|C#3 ...F ....|--- .... ....
....|..|--- .... ....|--- .... ....|--- .... ....
....|..|--- .... ....|R-- .... ....|--- .... ....
....|..|--- .... ....|--- .... ....|--- .... ....
....|..|--- .... ....|--- .... ....|--- .... ....
....|..|--- .... ....|--- .... ....|--- .... ....
....|..|--- .... ....|C#3 ...F ....|--- .... ....
....|..|--- .... ....|R-- .... ....|--- .... ....
....|..|--- .... ....|--- .... ....|--- .... ....
....|..|--- .... ....|--- .... ....|--- .... ....
....|..|--- .... ....|D-3 ...F ....|--- .... ....
....|..|--- .... ....|--- .... ....|--- .... ....
....|..|--- .... ....|R-- .... ....|--- .... ....
....|..|--- .... ....|--- .... ....|--- .... ....
....|..|--- .... ....|--- .... ....|--- .... ....
....|..|--- .... ....|--- .... ....|--- .... ....
....|..|--- .... ....|D-3 ...A ....|--- .... ....
....|..|--- .... ....|--- .... ....|--- .... ....
....|..|--- .... ....|D-3 ...F ....|--- .... ....
....|..|--- .... ....|--- .... ....|--- .... ....
....|..|--- .... ....|R-- .... ....|--- .... ....
....|..|--- .... ....|--- .... ....|--- .... ....
....|..|--- .... ....|--- .... ....|--- .... ....
....|..|--- .... ....|--- .... ....|--- .... ....
....|..|--- .... ....|D-3 ...A ....|--- .... ....
....|..|--- .... ....|--- .... ....|--- .... ....
....|..|--- .... ....|D-3 ...F ....|--- .... ....
....|..|--- .... ....|--- .... ....|--- .... ....
....|..|--- .... ....|R-- .... ....|--- .... ....
....|..|--- .... ....|--- .... ....|--- .... ....
....|..|--- .... ....|--- .... ....|--- .... ....
....|..|--- .... ....|--- .... ....|--- .... ....
....|..|--- .... ....|C#3 ...F ....|--- .... ....
....|..|--- .... ....|--- .... ....|--- .... ....
....|..|--- .... ....|R-- .... ....|--- .... ....
....|..|--- .... ....|--- .... ....|--- .... ....
....|..|--- .... ....|--- .... ....|--- .... ....
....|..|--- .... ....|--- .... ....|--- .... ....
....|..|--- .... ....|C#3 ...F ....|--- .... ....
....|..|--- .... ....|R-- .... ....|--- .... ....
....|..|--- .... ....|--- .... ....|--- .... ....
....|..|--- .... ....|--- .... ....|--- .... ....

[Pattern6]
....|..|--- .... ....|D-3 ...F ....|--- .... ....
....|..|--- .... ....|--- .... ....|--- .... ....
....|..|--- .... ....|R-- .... ....|--- .... ....
....|..|--- .... ....|--- .... ....|--- .... ....
....|..|--- .... ....|--- .... ....|--- .... ....
....|..|--- .... ....|--- .... ....|--- .... ....
....|..|--- .... ....|D-3 ...A ....|--- .... ....
....|..|--- .... ....|--- .... ....|--- .... ....
....|..|--- .... ....|D-3 ...F ....|--- .... ....
....|..|--- .... ....|--- .... ....|--- .... ....
....|..|--- .... ....|R-- .... ....|--- .... ....
....|..|--- .... ....|--- .... ....|--- .... ....
....|..|--- .... ....|--- .... ....|--- .... ....
....|..|--- .... ....|--- .... ....|--- .... ....
....|..|--- .... ....|D-3 ...A ....|--- .... ....
....|..|--- .... ....|--- .... ....|--- .... ....
....|..|--- .... ....|D-3 ...F ....|--- .... ....
....|..|--- .... ....|--- .... ....|--- .... ....
....|..|--- .... ....|R-- .... ....|--- .... ....
....|..|--- .... ....|--- .... ....|--- .... ....
....|..|--- .... ....|--- .... ....|--- .... ....
....|..|--- .... ....|--- .... ....|--- .... ....
....|..|--- .... ....|C#3 ...F ....|--- .... ....
....|..|--- .... ....|R-- .... ....|--- .... ....
....|..|--- .... ....|--- .... ....|--- .... ....
....|..|--- .... ....|--- .... ....|--- .... ....
....|..|--- .... ....|--- .... ....|--- .... ....
....|..|--- .... ....|--- .... ....|--- .... ....
....|..|--- .... ....|C#3 ...F ....|--- .... ....
....|..|--- .... ....|R-- .... ....|--- .... ....
....|..|--- .... ....|--- .... ....|--- .... ....
....|..|--- .... ....|--- .... ....|--- .... ....
....|..|--- .... ....|D-3 ...F ....|--- .... ....
....|..|--- .... ....|--- .... ....|--- .... ....
....|..|--- .... ....|C#3 ...A ....|--- .... ....
....|..|--- .... ....|R-- .... ....|--- .... ....
....|..|--- .... ....|--- .... ....|--- .... ....
....|..|--- .... ....|--- .... ....|--- .... ....
....|..|--- .... ....|D-3 ...A ....|--- .... ....
....|..|--- .... ....|--- .... ....|--- .... ....
....|..|--- .... ....|D-3 ...F ....|--- .... ....
....|..|--- .... ....|--- .... ....|--- .... ....
....|..|--- .... ....|--- .... ....|--- .... ....
....|..|--- .... ....|R-- .... ....|--- .... ....
....|..|--- .... ....|--- .... ....|--- .... ....
....|..|--- .... ....|--- .... ....|--- .... ....
....|..|--- .... ....|D-3 ...A ....|--- .... ....
....|..|--- .... ....|--- .... ....|--- .... ....
....|..|A-5 ...F ....|D-3 ...F ....|--- .... ....
....|..|--- .... ....|--- .... ....|--- .... ....
....|..|--- .... ....|R-- .... ....|--- .... ....
....|..|R-- .... ....|--- .... ....|--- .... ....
....|..|G#5 ...F ....|--- .... ....|--- .... ....
....|..|R-- .... ....|--- .... ....|--- .... ....
....|..|A-5 ...A ....|C#3 ...F ....|--- .... ....
....|..|--- .... ....|R-- .... ....|--- .... ....
....|..|F#5 ...F ....|--- .... ....|--- .... ....
....|..|R-- .... ....|--- .... ....|--- .... ....
....|..|G#5 ...A ....|--- .... ....|--- .... ....
....|..|--- .... ....|--- .... ....|--- .... ....
....|..|E-5 ...F ....|A-2 ...F ....|--- .... ....
....|..|R-- .... ....|R-- .... ....|--- .... ....
....|..|F#5 ...A ....|--- .... ....|--- .... ....
....|..|--- .... ....|--- .... ....|--- .... ....

[Pattern7]
....|..|F#5 ...F ....|F#2 ...F ....|--- .... ....
....|..|--- .... ....|--- .... ....|--- .... ....
....|..|E-5 ...A ....|R-- .... ....|--- .... ....
....|..|--- .... ....|--- .... ....|--- .... ....
....|..|R-- .... ....|--- .... ....|--- .... ....
....|..|--- .... ....|--- .... ....|--- .... ....
....|..|F#5 ...A ....|F#2 ...A ....|--- .... ....
....|..|--- .... ....|--- .... ....|--- .... ....
....|..|F#5 ...F ....|F#2 ...F ....|--- .... ....
....|..|--- .... ....|--- .... ....|--- .... ....
....|..|--- .... ....|R-- .... ....|--- .... ....
....|..|--- .... ....|--- .... ....|--- .... ....
....|..|R-- .... ....|--- .... ....|--- .... ....
....|..|--- .... ....|--- .... ....|--- .... ....
....|..|F#5 ...A ....|F#2 ...A ....|--- .... ....
....|..|--- .... ....|--- .... ....|--- .... ....
....|..|--- .... ....|F#2 ...F ....|--- .... ....
....|..|--- .... ....|--- .... ....|--- .... ....
....|..|--- .... ....|R-- .... ....|--- .... ....
....|..|--- .... ....|--- .... ....|--- .... ....
....|..|--- .... ....|--- .... ....|--- .... ....
....|..|--- .... ....|--- .... ....|--- .... ....
....|..|--- .... ....|E-2 ...F ....|--- .... ....
....|..|--- .... ....|--- .... ....|--- .... ....
....|..|--- .... ....|R-- .... ....|--- .... ....
....|..|--- .... ....|--- .... ....|--- .... ....
....|..|--- .... ....|--- .... ....|--- .... ....
....|..|--- .... ....|--- .... ....|--- .... ....
....|..|--- .... ....|E-2 ...F ....|--- .... ....
....|..|--- .... ....|R-- .... ....|--- .... ....
....|..|--- .... ....|--- .... ....|--- .... ....
....|..|--- .... ....|--- .... ....|--- .... ....
....|..|--- .... ....|F#2 ...F ....|--- .... ....
....|..|--- .... ....|--- .... ....|--- .... ....
....|..|--- .... ....|R-- .... ....|--- .... ....
....|..|--- .... ....|--- .... ....|--- .... ....
....|..|--- .... ....|--- .... ....|--- .... ....
....|..|--- .... ....|--- .... ....|--- .... ....
....|..|--- .... ....|F#2 ...A ....|--- .... ....
....|..|--- .... ....|--- .... ....|--- .... ....
....|..|--- .... ....|F#2 ...F ....|--- .... ....
....|..|--- .... ....|--- .... ....|--- .... ....
....|..|--- .... ....|R-- .... ....|--- .... ....
....|..|--- .... ....|--- .... ....|--- .... ....
....|..|--- .... ....|--- .... ....|--- .... ....
....|..|--- .... ....|--- .... ....|--- .... ....
....|..|--- .... ....|F#2 ...A ....|--- .... ....
....|..|--- .... ....|--- .... ....|--- .... ....
....|..|--- .... ....|F#2 ...F ....|--- .... ....
....|..|--- .... ....|--- .... ....|--- .... ....
....|..|--- .... ....|R-- .... ....|--- .... ....
....|..|--- .... ....|--- .... ....|--- .... ....
....|..|--- .... ....|--- .... ....|--- .... ....
....|..|--- .... ....|--- .... ....|--- .... ....
....|..|--- .... ....|E-2 ...F ....|--- .... ....
....|..|--- .... ....|--- .... ....|--- .... ....
....|..|--- .... ....|R-- .... ....|--- .... ....
....|..|--- .... ....|--- .... ....|--- .... ....
....|..|--- .... ....|--- .... ....|--- .... ....
....|..|--- .... ....|--- .... ....|--- .... ....
....|..|--- .... ....|E-2 ...F ....|--- .... ....
....|..|--- .... ....|R-- .... ....|--- .... ....
....|..|--- .... ....|--- .... ....|--- .... ....
....|..|--- .... ....|--- .... ....|--- .... ....

[Pattern8]
....|..|--- .... ....|F#2 ...F ....|--- .... ....
....|..|--- .... ....|--- .... ....|--- .... ....
....|..|--- .... ....|R-- .... ....|--- .... ....
....|..|--- .... ....|--- .... ....|--- .... ....
....|..|--- .... ....|--- .... ....|--- .... ....
....|..|--- .... ....|--- .... ....|--- .... ....
....|..|--- .... ....|F#2 ...A ....|--- .... ....
....|..|--- .... ....|--- .... ....|--- .... ....
....|..|--- .... ....|F#2 ...F ....|--- .... ....
....|..|--- .... ....|--- .... ....|--- .... ....
....|..|--- .... ....|R-- .... ....|--- .... ....
....|..|--- .... ....|--- .... ....|--- .... ....
....|..|--- .... ....|--- .... ....|--- .... ....
....|..|--- .... ....|--- .... ....|--- .... ....
....|..|--- .... ....|F#2 ...A ....|--- .... ....
....|..|--- .... ....|--- .... ....|--- .... ....
....|..|--- .... ....|F#2 ...F ....|--- .... ....
....|..|--- .... ....|--- .... ....|--- .... ....
....|..|--- .... ....|R-- .... ....|--- .... ....
....|..|--- .... ....|--- .... ....|--- .... ....
....|..|--- .... ....|--- .... ....|--- .... ....
....|..|--- .... ....|--- .... ....|--- .... ....
....|..|--- .... ....|E-2 ...F ....|--- .... ....
....|..|--- .... ....|R-- .... ....|--- .... ....
....|..|--- .... ....|--- .... ....|--- .... ....
....|..|--- .... ....|--- .... ....|--- .... ....
....|..|--- .... ....|--- .... ....|--- .... ....
....|..|--- .... ....|--- .... ....|--- .... ....
....|..|--- .... ....|E-2 ...F ....|--- .... ....
....|..|--- .... ....|R-- .... ....|--- .... ....
....|..|--- .... ....|--- .... ....|--- .... ....
....|..|--- .... ....|--- .... ....|--- .... ....
....|..|--- .... ....|F#2 ...F ....|--- .... ....
....|..|--- .... ....|--- .... ....|--- .... ....
....|..|--- .... ....|E-2 ...A ....|--- .... ....
....|..|--- .... ....|R-- .... ....|--- .... ....
....|..|--- .... ....|--- .... ....|--- .... ....
....|..|--- .... ....|--- .... ....|--- .... ....
....|..|--- .... ....|F#2 ...A ....|--- .... ....
....|..|--- .... ....|--- .... ....|--- .... ....
....|..|--- .... ....|F#2 ...F ....|--- .... ....
....|..|--- .... ....|--- .... ....|--- .... ....
....|..|--- .... ....|--- .... ....|--- .... ....
....|..|--- .... ....|R-- .... ....|--- .... ....
....|..|--- .... ....|--- .... ....|--- .... ....
....|..|--- .... ....|--- .... ....|--- .... ....
....|..|--- .... ....|F#2 ...A ....|--- .... ....
....|..|--- .... ....|--- .... ....|--- .... ....
....|..|--- .... ....|F#2 ...F ....|--- .... ....
....|..|--- .... ....|--- .... ....|--- .... ....
....|..|--- .... ....|R-- .... ....|--- .... ....
....|..|--- .... ....|--- .... ....|--- .... ....
....|..|--- .... ....|--- .... ....|--- .... ....
....|..|--- .... ....|--- .... ....|--- .... ....
....|..|--- .... ....|E-2 ...F ....|--- .... ....
....|..|--- .... ....|R-- .... ....|--- .... ....
....|..|--- .... ....|--- .... ....|--- .... ....
....|..|--- .... ....|--- .... ....|--- .... ....
....|..|--- .... ....|--- .... ....|--- .... ....
....|..|--- .... ....|--- .... ....|--- .... ....
....|..|--- .... ....|F#2 ...F ....|--- .... ....
....|..|--- .... ....|R-- .... ....|--- .... ....
....|..|--- .... ....|--- .... ....|--- .... ....
....|..|--- .... ....|--- .... ....|--- .... ....

[Pattern9]
....|..|D-5 ...F ....|--- .... ....|--- .... ....
....|..|--- .... ....|--- .... ....|--- .... ....
....|..|R-- .... ....|F#2 ...A ....|--- .... ....
....|..|--- .... ....|--- .... ....|--- .... ....
....|..|D-5 ...F ....|--- .... ....|--- .... ....
....|..|R-- .... ....|--- .... ....|--- .... ....
....|..|D-5 ...A ....|--- .... ....|--- .... ....
....|..|--- .... ....|--- .... ....|--- .... ....
....|..|D-5 ...F ....|--- .... ....|--- .... ....
....|..|--- .... ....|--- .... ....|--- .... ....
....|..|D-5 ...A ....|--- .... ....|--- .... ....
....|..|--- .... ....|--- .... ....|--- .... ....
....|..|--- .... ....|--- .... ....|--- .... ....
....|..|--- .... ....|--- .... ....|--- .... ....
....|..|D-5 ...A ....|--- .... ....|--- .... ....
....|..|--- .... ....|--- .... ....|--- .... ....
....|..|--- .... ....|--- .... ....|--- .... ....
....|..|--- .... ....|--- .... ....|--- .... ....
....|..|R-- .... ....|--- .... ....|--- .... ....
....|..|--- .... ....|--- .... ....|--- .... ....
....|..|--- .... ....|--- .... ....|--- .... ....
....|..|--- .... ....|--- .... ....|--- .... ....
....|..|--- .... ....|--- .... ....|--- .... ....
....|..|--- .... ....|--- .... ....|--- .... ....
....|..|--- .... ....|--- .... ....|--- .... ....
....|..|--- .... ....|--- .... ....|--- .... ....
....|..|--- .... ....|--- .... ....|--- .... ....
....|..|--- .... ....|--- .... ....|--- .... ....
....|..|D-5 ...F ....|--- .... ....|--- .... ....
....|..|--- .... ....|--- .... ....|--- .... ....
....|..|R-- .... ....|--- .... ....|--- .... ....
....|..|--- .... ....|--- .... ....|--- .... ....
....|..|D-5 ...F ....|--- .... ....|--- .... ....
....|..|--- .... ....|--- .... ....|--- .... ....
....|..|R-- .... ....|--- .... ....|--- .... ....
....|..|--- .... ....|--- .... ....|--- .... ....
....|..|D-5 ...F ....|--- .... ....|--- .... ....
....|..|--- .... ....|--- .... ....|--- .... ....
....|..|R-- .... ....|--- .... ....|--- .... ....
....|..|--- .... ....|--- .... ....|--- .... ....
....|..|D-5 ...F ....|--- .... ....|--- .... ....
....|..|--- .... ....|--- .... ....|--- .... ....
....|..|R-- .... ....|--- .... ....|--- .... ....
....|..|--- .... ....|--- .... ....|--- .... ....
....|..|D-5 ...F ....|--- .... ....|--- .... ....
....|..|--- .... ....|--- .... ....|--- .... ....
....|..|D-5 ...A ....|--- .... ....|--- .... ....
....|..|R-- .... ....|--- .... ....|--- .... ....
....|..|E-5 ...F ....|--- .... ....|--- .... ....
....|..|--- .... ....|--- .... ....|--- .... ....
....|..|D-5 ...A ....|--- .... ....|--- .... ....
....|..|R-- .... ....|--- .... ....|--- .... ....
....|..|E-5 ...F ....|--- .... ....|--- .... ....
....|..|--- .... ....|--- .... ....|--- .... ....
....|..|E-5 ...A ....|--- .... ....|--- .... ....
....|..|R-- .... ....|--- .... ....|--- .... ....
....|..|C#5 ...F ....|--- .... ....|--- .... ....
....|..|--- .... ....|--- .... ....|--- .... ....
....|..|E-5 ...A ....|--- .... ....|--- .... ....
....|..|R-- .... ....|--- .... ....|--- .... ....
....|..|C#5 ...F ....|--- .... ....|--- .... ....
....|..|--- .... ....|--- .... ....|--- .... ....
....|..|C#5 ...A ....|--- .... ....|--- .... ....
....|..|R-- .... ....|--- .... ....|--- .... ....

[Pattern10]
....|..|D-5 ...F ....|--- .... ....|--- .... ....
....|..|R-- .... ....|--- .... ....|--- .... ....
....|..|C#5 ...A ....|--- .... ....|--- .... ....
....|..|--- .... ....|--- .... ....|--- .... ....
....|..|D-5 ...F ....|--- .... ....|--- .... ....
....|..|R-- .... ....|--- .... ....|--- .... ....
....|..|D-5 ...A ....|--- .... ....|--- .... ....
....|..|--- .... ....|--- .... ....|--- .... ....
....|..|D-5 ...F ....|--- .... ....|--- .... ....
....|..|--- .... ....|--- .... ....|--- .... ....
....|..|D-5 ...A ....|--- .... ....|--- .... ....
....|..|--- .... ....|--- .... ....|--- .... ....
....|..|--- .... ....|--- .... ....|--- .... ....
....|..|--- .... ....|--- .... ....|--- .... ....
....|..|D-5 ...A ....|--- .... ....|--- .... ....
....|..|--- .... ....|--- .... ....|--- .... ....
....|..|--- .... ....|--- .... ....|--- .... ....
....|..|--- .... ....|--- .... ....|--- .... ....
....|..|R-- .... ....|--- .... ....|--- .... ....
....|..|--- .... ....|--- .... ....|--- .... ....
....|..|C#5 ...F ....|--- .... ....|--- .... ....
....|..|--- .... ....|--- .... ....|--- .... ....
....|..|R-- .... ....|--- .... ....|--- .... ....
....|..|--- .... ....|--- .... ....|--- .... ....
....|..|B-4 ...F ....|--- .... ....|--- .... ....
....|..|--- .... ....|--- .... ....|--- .... ....
....|..|R-- .... ....|--- .... ....|--- .... ....
....|..|--- .... ....|--- .... ....|--- .... ....
....|..|C#5 ...F ....|--- .... ....|--- .... ....
....|..|--- .... ....|--- .... ....|--- .... ....
....|..|R-- .... ....|--- .... ....|--- .... ....
....|..|--- .... ....|--- .... ....|--- .... ....
....|..|D-5 ...F ....|--- .... ....|--- .... ....
....|..|--- .... ....|--- .... ....|--- .... ....
....|..|R-- .... ....|--- .... ....|--- .... ....
....|..|--- .... ....|--- .... ....|--- .... ....
....|..|D-5 ...F ....|--- .... ....|--- .... ....
....|..|--- .... ....|--- .... ....|--- .... ....
....|..|R-- .... ....|--- .... ....|--- .... ....
....|..|--- .... ....|--- .... ....|--- .... ....
....|..|D-5 ...F ....|--- .... ....|--- .... ....
....|..|--- .... ....|--- .... ....|--- .... ....
....|..|R-- .... ....|--- .... ....|--- .... ....
....|..|--- .... ....|--- .... ....|--- .... ....
....|..|D-5 ...F ....|--- .... ....|--- .... ....
....|..|--- .... ....|--- .... ....|--- .... ....
....|..|R-- .... ....|--- .... ....|--- .... ....
....|..|--- .... ....|--- .... ....|--- .... ....
....|..|E-5 ...F ....|--- .... ....|--- .... ....
....|..|--- .... ....|--- .... ....|--- .... ....
....|..|D-5 ...A ....|--- .... ....|--- .... ....
....|..|R-- .... ....|--- .... ....|--- .... ....
....|..|E-5 ...F ....|--- .... ....|--- .... ....
....|..|--- .... ....|--- .... ....|--- .... ....
....|..|E-5 ...A ....|--- .... ....|--- .... ....
....|..|R-- .... ....|--- .... ....|--- .... ....
....|..|E-5 ...F ....|--- .... ....|--- .... ....
....|..|--- .... ....|--- .... ....|--- .... ....
....|..|E-5 ...A ....|--- .... ....|--- .... ....
....|..|R-- .... ....|--- .... ....|--- .... ....
....|..|C#5 ...F ....|--- .... ....|--- .... ....
....|..|--- .... ....|--- .... ....|--- .... ....
....|..|E-5 ...A ....|--- .... ....|--- .... ....
....|..|R-- .... ....|--- .... ....|--- .... ....

[Pattern11]
....|..|C#5 ...F ....|--- .... ....|--- .... ....
....|..|--- .... ....|--- .... ....|--- .... ....
....|..|C#5 ...A ....|--- .... ....|--- .... ....
....|..|R-- .... ....|--- .... ....|--- .... ....
....|..|D-5 ...F ....|--- .... ....|--- .... ....
....|..|--- .... ....|--- .... ....|--- .... ....
....|..|C#5 ...A ....|--- .... ....|--- .... ....
....|..|R-- .... ....|--- .... ....|--- .... ....
....|..|C#5 ...F ....|--- .... ....|--- .... ....
....|..|--- .... ....|--- .... ....|--- .... ....
....|..|D-5 ...A ....|--- .... ....|--- .... ....
....|..|--- .... ....|--- .... ....|--- .... ....
....|..|--- .... ....|--- .... ....|--- .... ....
....|..|--- .... ....|--- .... ....|--- .... ....
....|..|C#5 ...A ....|--- .... ....|--- .... ....
....|..|R-- .... ....|--- .... ....|--- .... ....
....|..|--- .... ....|--- .... ....|--- .... ....
....|..|--- .... ....|--- .... ....|--- .... ....
....|..|--- .... ....|--- .... ....|--- .... ....
....|..|--- .... ....|--- .... ....|--- .... ....
....|..|B-4 ...F ....|--- .... ....|--- .... ....
....|..|--- .... ....|--- .... ....|--- .... ....
....|..|--- .... ....|--- .... ....|--- .... ....
....|..|R-- .... ....|--- .... ....|--- .... ....
....|..|A-4 ...F ....|--- .... ....|--- .... ....
....|..|--- .... ....|--- .... ....|--- .... ....
....|..|B-4 ...A ....|--- .... ....|--- .... ....
....|..|R-- .... ....|--- .... ....|--- .... ....
....|..|B-4 ...F ....|--- .... ....|--- .... ....
....|..|--- .... ....|--- .... ....|--- .... ....
....|..|A-4 ...A ....|--- .... ....|--- .... ....
....|..|R-- .... ....|--- .... ....|--- .... ....
....|..|C#5 ...F ....|--- .... ....|--- .... ....
....|..|--- .... ....|--- .... ....|--- .... ....
....|..|R-- .... ....|--- .... ....|--- .... ....
....|..|--- .... ....|--- .... ....|--- .... ....
....|..|C#5 ...F ....|--- .... ....|--- .... ....
....|..|--- .... ....|--- .... ....|--- .... ....
....|..|R-- .... ....|--- .... ....|--- .... ....
....|..|--- .... ....|--- .... ....|--- .... ....
....|..|C#5 ...F ....|--- .... ....|--- .... ....
....|..|--- .... ....|--- .... ....|--- .... ....
....|..|R-- .... ....|--- .... ....|--- .... ....
....|..|--- .... ....|--- .... ....|--- .... ....
....|..|C#5 ...F ....|--- .... ....|--- .... ....
....|..|--- .... ....|--- .... ....|--- .... ....
....|..|R-- .... ....|--- .... ....|--- .... ....
....|..|--- .... ....|--- .... ....|--- .... ....
....|..|E-5 ...F ....|--- .... ....|--- .... ....
....|..|--- .... ....|--- .... ....|--- .... ....
....|..|C#5 ...A ....|--- .... ....|--- .... ....
....|..|R-- .... ....|--- .... ....|--- .... ....
....|..|E-5 ...F ....|--- .... ....|--- .... ....
....|..|--- .... ....|--- .... ....|--- .... ....
....|..|E-5 ...A ....|--- .... ....|--- .... ....
....|..|R-- .... ....|--- .... ....|--- .... ....
....|..|E-5 ...F ....|--- .... ....|--- .... ....
....|..|--- .... ....|--- .... ....|--- .... ....
....|..|E-5 ...A ....|--- .... ....|--- .... ....
....|..|R-- .... ....|--- .... ....|--- .... ....
....|..|C#5 ...F ....|--- .... ....|--- .... ....
....|..|--- .... ....|--- .... ....|--- .... ....
....|..|E-5 ...A ....|--- .... ....|--- .... ....
....|..|R-- .... ....|--- .... ....|--- .... ....

[Pattern12]
....|..|C#5 ...F ....|--- .... ....|--- .... ....
....|..|--- .... ....|--- .... ....|--- .... ....
....|..|C#5 ...A ....|--- .... ....|--- .... ....
....|..|R-- .... ....|--- .... ....|--- .... ....
....|..|D-5 ...F ....|--- .... ....|--- .... ....
....|..|--- .... ....|--- .... ....|--- .... ....
....|..|C#5 ...A ....|--- .... ....|--- .... ....
....|..|R-- .... ....|--- .... ....|--- .... ....
....|..|C#5 ...F ....|--- .... ....|--- .... ....
....|..|--- .... ....|--- .... ....|--- .... ....
....|..|D-5 ...A ....|--- .... ....|--- .... ....
....|..|--- .... ....|--- .... ....|--- .... ....
....|..|--- .... ....|--- .... ....|--- .... ....
....|..|--- .... ....|--- .... ....|--- .... ....
....|..|C#5 ...A ....|--- .... ....|--- .... ....
....|..|--- .... ....|--- .... ....|--- .... ....
....|..|R-- .... ....|--- .... ....|--- .... ....
....|..|--- .... ....|--- .... ....|--- .... ....
....|..|--- .... ....|--- .... ....|--- .... ....
....|..|--- .... ....|--- .... ....|--- .... ....
....|..|B-4 ...F ....|--- .... ....|--- .... ....
....|..|--- .... ....|--- .... ....|--- .... ....
....|..|--- .... ....|--- .... ....|--- .... ....
....|..|R-- .... ....|--- .... ....|--- .... ....
....|..|A-4 ...F ....|--- .... ....|--- .... ....
....|..|--- .... ....|--- .... ....|--- .... ....
....|..|B-4 ...A ....|--- .... ....|--- .... ....
....|..|R-- .... ....|--- .... ....|--- .... ....
....|..|B-4 ...F ....|--- .... ....|--- .... ....
....|..|--- .... ....|--- .... ....|--- .... ....
....|..|A-4 ...A ....|--- .... ....|--- .... ....
....|..|R-- .... ....|--- .... ....|--- .... ....
....|..|C#5 ...F ....|--- .... ....|--- .... ....
....|..|--- .... ....|--- .... ....|--- .... ....
....|..|B-4 ...A ....|--- .... ....|--- .... ....
....|..|R-- .... ....|--- .... ....|--- .... ....
....|..|D-5 ...F ....|--- .... ....|--- .... ....
....|..|--- .... ....|--- .... ....|--- .... ....
....|..|C#5 ...A ....|--- .... ....|--- .... ....
....|..|R-- .... ....|--- .... ....|--- .... ....
....|..|C#5 ...F ....|--- .... ....|--- .... ....
....|..|--- .... ....|--- .... ....|--- .... ....
....|..|D-5 ...A ....|--- .... ....|--- .... ....
....|..|R-- .... ....|--- .... ....|--- .... ....
....|..|--- .... ....|--- .... ....|--- .... ....
....|..|--- .... ....|--- .... ....|--- .... ....
....|..|C#5 ...A ....|--- .... ....|--- .... ....
....|..|--- .... ....|--- .... ....|--- .... ....
....|..|--- .... ....|--- .... ....|--- .... ....
....|..|--- .... ....|--- .... ....|--- .... ....
....|..|--- .... ....|--- .... ....|--- .... ....
....|..|--- .... ....|--- .... ....|--- .... ....
....|..|D-5 ...F ....|--- .... ....|--- .... ....
....|..|--- .... ....|--- .... ....|--- .... ....
....|..|--- .... ....|--- .... ....|--- .... ....
....|..|R-- .... ....|--- .... ....|--- .... ....
....|..|C#5 ...F ....|--- .... ....|--- .... ....
....|..|--- .... ....|--- .... ....|--- .... ....
....|..|D-5 ...A ....|--- .... ....|--- .... ....
....|..|--- .... ....|--- .... ....|--- .... ....
....|..|--- .... ....|--- .... ....|--- .... ....
....|..|--- .... ....|--- .... ....|--- .... ....
....|..|C#5 ...A ....|--- .... ....|--- .... ....
....|..|R-- .... ....|--- .... ....|--- .... ....

[Pattern13]
....|..|D-5 ...F ....|--- .... ....|--- .... ....
....|..|--- .... ....|--- .... ....|--- .... ....
....|..|--- .... ....|--- .... ....|--- .... ....
....|..|--- .... ....|--- .... ....|--- .... ....
....|..|--- .... ....|--- .... ....|--- .... ....
....|..|--- .... ....|--- .... ....|--- .... ....
....|..|D-5 ...A ....|--- .... ....|--- .... ....
....|..|--- .... ....|--- .... ....|--- .... ....
....|..|D-5 ...F ....|--- .... ....|--- .... ....
....|..|--- .... ....|--- .... ....|--- .... ....
....|..|--- .... ....|--- .... ....|--- .... ....
....|..|--- .... ....|--- .... ....|--- .... ....
....|..|--- .... ....|--- .... ....|--- .... ....
....|..|--- .... ....|--- .... ....|--- .... ....
....|..|D-5 ...A ....|--- .... ....|--- .... ....
....|..|--- .... ....|--- .... ....|--- .... ....
....|..|--- .... ....|A-3 ...F ....|--- .... ....
....|..|--- .... ....|--- .... ....|--- .... ....
....|..|R-- .... ....|--- .... ....|--- .... ....
....|..|--- .... ....|--- .... ....|--- .... ....
....|..|--- .... ....|--- .... ....|--- .... ....
....|..|--- .... ....|R-- .... ....|--- .... ....
....|..|--- .... ....|B-3 ...F ....|--- .... ....
....|..|--- .... ....|R-- .... ....|--- .... ....
....|..|--- .... ....|--- .... ....|--- .... ....
....|..|--- .... ....|--- .... ....|--- .... ....
....|..|--- .... ....|--- .... ....|--- .... ....
....|..|--- .... ....|--- .... ....|--- .... ....
....|..|--- .... ....|B-3 ...A ....|--- .... ....
....|..|--- .... ....|--- .... ....|--- .... ....
....|..|--- .... ....|--- .... ....|--- .... ....
....|..|--- .... ....|--- .... ....|--- .... ....
....|..|D-5 ...F ....|--- .... ....|--- .... ....
....|..|--- .... ....|--- .... ....|--- .... ....
....|..|R-- .... ....|--- .... ....|--- .... ....
....|..|--- .... ....|--- .... ....|--- .... ....
....|..|D-5 ...F ....|--- .... ....|--- .... ....
....|..|--- .... ....|--- .... ....|--- .... ....
....|..|R-- .... ....|--- .... ....|--- .... ....
....|..|--- .... ....|--- .... ....|--- .... ....
....|..|D-5 ...F ....|--- .... ....|--- .... ....
....|..|--- .... ....|--- .... ....|--- .... ....
....|..|R-- .... ....|--- .... ....|--- .... ....
....|..|--- .... ....|--- .... ....|--- .... ....
....|..|D-5 ...F ....|--- .... ....|--- .... ....
....|..|--- .... ....|--- .... ....|--- .... ....
....|..|D-5 ...A ....|--- .... ....|--- .... ....
....|..|R-- .... ....|--- .... ....|--- .... ....
....|..|E-5 ...F ....|A-3 ...F ....|--- .... ....
....|..|--- .... ....|--- .... ....|--- .... ....
....|..|D-5 ...A ....|--- .... ....|--- .... ....
....|..|R-- .... ....|--- .... ....|--- .... ....
....|..|E-5 ...F ....|--- .... ....|--- .... ....
....|..|--- .... ....|R-- .... ....|--- .... ....
....|..|E-5 ...A ....|B-3 ...F ....|--- .... ....
....|..|R-- .... ....|--- .... ....|--- .... ....
....|..|C#5 ...F ....|R-- .... ....|--- .... ....
....|..|--- .... ....|--- .... ....|--- .... ....
....|..|E-5 ...A ....|--- .... ....|--- .... ....
....|..|R-- .... ....|--- .... ....|--- .... ....
....|..|C#5 ...F ....|B-3 ...A ....|--- .... ....
....|..|--- .... ....|--- .... ....|--- .... ....
....|..|C#5 ...A ....|--- .... ....|--- .... ....
....|..|R-- .... ....|--- .... ....|--- .... ....

[Pattern14]
....|..|D-5 ...F ....|--- .... ....|--- .... ....
....|..|R-- .... ....|--- .... ....|--- .... ....
....|..|C#5 ...A ....|--- .... ....|--- .... ....
....|..|--- .... ....|--- .... ....|--- .... ....
....|..|D-5 ...F ....|--- .... ....|--- .... ....
....|..|R-- .... ....|--- .... ....|--- .... ....
....|..|D-5 ...A ....|--- .... ....|--- .... ....
....|..|--- .... ....|--- .... ....|--- .... ....
....|..|D-5 ...F ....|--- .... ....|--- .... ....
....|..|--- .... ....|--- .... ....|--- .... ....
....|..|D-5 ...A ....|--- .... ....|--- .... ....
....|..|--- .... ....|--- .... ....|--- .... ....
....|..|--- .... ....|--- .... ....|--- .... ....
....|..|--- .... ....|--- .... ....|--- .... ....
....|..|D-5 ...A ....|--- .... ....|--- .... ....
....|..|--- .... ....|--- .... ....|--- .... ....
....|..|--- .... ....|A-3 ...F ....|--- .... ....
....|..|--- .... ....|--- .... ....|--- .... ....
....|..|R-- .... ....|--- .... ....|--- .... ....
....|..|--- .... ....|--- .... ....|--- .... ....
....|..|--- .... ....|--- .... ....|--- .... ....
....|..|--- .... ....|R-- .... ....|--- .... ....
....|..|--- .... ....|B-3 ...F ....|--- .... ....
....|..|--- .... ....|--- .... ....|--- .... ....
....|..|--- .... ....|R-- .... ....|--- .... ....
....|..|--- .... ....|--- .... ....|--- .... ....
....|..|--- .... ....|--- .... ....|--- .... ....
....|..|--- .... ....|--- .... ....|--- .... ....
....|..|C#5 ...F ....|B-3 ...A ....|--- .... ....
....|..|--- .... ....|--- .... ....|--- .... ....
....|..|R-- .... ....|--- .... ....|--- .... ....
....|..|--- .... ....|--- .... ....|--- .... ....
....|..|D-5 ...F ....|--- .... ....|--- .... ....
....|..|--- .... ....|--- .... ....|--- .... ....
....|..|R-- .... ....|--- .... ....|--- .... ....
....|..|--- .... ....|--- .... ....|--- .... ....
....|..|D-5 ...F ....|--- .... ....|--- .... ....
....|..|--- .... ....|--- .... ....|--- .... ....
....|..|R-- .... ....|--- .... ....|--- .... ....
....|..|--- .... ....|--- .... ....|--- .... ....
....|..|D-5 ...F ....|--- .... ....|--- .... ....
....|..|--- .... ....|--- .... ....|--- .... ....
....|..|R-- .... ....|--- .... ....|--- .... ....
....|..|--- .... ....|--- .... ....|--- .... ....
....|..|D-5 ...F ....|--- .... ....|--- .... ....
....|..|--- .... ....|--- .... ....|--- .... ....
....|..|R-- .... ....|--- .... ....|--- .... ....
....|..|--- .... ....|--- .... ....|--- .... ....
....|..|E-5 ...F ....|A-3 ...F ....|--- .... ....
....|..|--- .... ....|--- .... ....|--- .... ....
....|..|D-5 ...A ....|--- .... ....|--- .... ....
....|..|R-- .... ....|--- .... ....|--- .... ....
....|..|E-5 ...F ....|--- .... ....|--- .... ....
....|..|--- .... ....|R-- .... ....|--- .... ....
....|..|E-5 ...A ....|B-3 ...F ....|--- .... ....
....|..|R-- .... ....|--- .... ....|--- .... ....
....|..|E-5 ...F ....|R-- .... ....|--- .... ....
....|..|--- .... ....|--- .... ....|--- .... ....
....|..|E-5 ...A ....|--- .... ....|--- .... ....
....|..|R-- .... ....|--- .... ....|--- .... ....
....|..|C#5 ...F ....|B-3 ...A ....|--- .... ....
....|..|--- .... ....|--- .... ....|--- .... ....
....|..|E-5 ...A ....|--- .... ....|--- .... ....
....|..|R-- .... ....|--- .... ....|--- .... ....

[Pattern15]
....|..|C#5 ...F ....|--- .... ....|--- .... ....
....|..|--- .... ....|--- .... ....|--- .... ....
....|..|C#5 ...A ....|--- .... ....|--- .... ....
....|..|R-- .... ....|--- .... ....|--- .... ....
....|..|D-5 ...F ....|--- .... ....|--- .... ....
....|..|--- .... ....|--- .... ....|--- .... ....
....|..|C#5 ...A ....|--- .... ....|--- .... ....
....|..|R-- .... ....|--- .... ....|--- .... ....
....|..|C#5 ...F ....|--- .... ....|--- .... ....
....|..|--- .... ....|--- .... ....|--- .... ....
....|..|D-5 ...A ....|--- .... ....|--- .... ....
....|..|--- .... ....|--- .... ....|--- .... ....
....|..|--- .... ....|--- .... ....|--- .... ....
....|..|--- .... ....|--- .... ....|--- .... ....
....|..|C#5 ...A ....|--- .... ....|--- .... ....
....|..|R-- .... ....|--- .... ....|--- .... ....
....|..|--- .... ....|A-3 ...F ....|--- .... ....
....|..|--- .... ....|--- .... ....|--- .... ....
....|..|--- .... ....|--- .... ....|--- .... ....
....|..|--- .... ....|--- .... ....|--- .... ....
....|..|--- .... ....|--- .... ....|--- .... ....
....|..|--- .... ....|R-- .... ....|--- .... ....
....|..|--- .... ....|B-3 ...F ....|--- .... ....
....|..|--- .... ....|--- .... ....|--- .... ....
....|..|A-4 ...F ....|R-- .... ....|--- .... ....
....|..|--- .... ....|--- .... ....|--- .... ....
....|..|--- .... ....|--- .... ....|--- .... ....
....|..|R-- .... ....|--- .... ....|--- .... ....
....|..|B-4 ...F ....|B-3 ...A ....|--- .... ....
....|..|--- .... ....|--- .... ....|--- .... ....
....|..|A-4 ...A ....|--- .... ....|--- .... ....
....|..|R-- .... ....|--- .... ....|--- .... ....
....|..|C#5 ...F ....|--- .... ....|--- .... ....
....|..|--- .... ....|--- .... ....|--- .... ....
....|..|R-- .... ....|--- .... ....|--- .... ....
....|..|--- .... ....|--- .... ....|--- .... ....
....|..|C#5 ...F ....|--- .... ....|--- .... ....
....|..|--- .... ....|--- .... ....|--- .... ....
....|..|R-- .... ....|--- .... ....|--- .... ....
....|..|--- .... ....|--- .... ....|--- .... ....
....|..|C#5 ...F ....|--- .... ....|--- .... ....
....|..|--- .... ....|--- .... ....|--- .... ....
....|..|R-- .... ....|--- .... ....|--- .... ....
....|..|--- .... ....|--- .... ....|--- .... ....
....|..|C#5 ...F ....|--- .... ....|--- .... ....
....|..|--- .... ....|--- .... ....|--- .... ....
....|..|R-- .... ....|--- .... ....|--- .... ....
....|..|--- .... ....|--- .... ....|--- .... ....
....|..|E-5 ...F ....|A-3 ...F ....|--- .... ....
....|..|--- .... ....|--- .... ....|--- .... ....
....|..|C#5 ...A ....|--- .... ....|--- .... ....
....|..|R-- .... ....|--- .... ....|--- .... ....
....|..|E-5 ...F ....|--- .... ....|--- .... ....
....|..|--- .... ....|R-- .... ....|--- .... ....
....|..|E-5 ...A ....|B-3 ...F ....|--- .... ....
....|..|R-- .... ....|--- .... ....|--- .... ....
....|..|E-5 ...F ....|R-- .... ....|--- .... ....
....|..|--- .... ....|--- .... ....|--- .... ....
....|..|E-5 ...A ....|--- .... ....|--- .... ....
....|..|R-- .... ....|--- .... ....|--- .... ....
....|..|C#5 ...F ....|B-3 ...A ....|--- .... ....
....|..|--- .... ....|--- .... ....|--- .... ....
....|..|E-5 ...A ....|--- .... ....|--- .... ....
....|..|R-- .... ....|--- .... ....|--- .... ....

[Pattern16]
....|..|C#5 ...F ....|--- .... ....|--- .... ....
....|..|--- .... ....|--- .... ....|--- .... ....
....|..|C#5 ...A ....|--- .... ....|--- .... ....
....|..|R-- .... ....|--- .... ....|--- .... ....
....|..|D-5 ...F ....|--- .... ....|--- .... ....
....|..|--- .... ....|--- .... ....|--- .... ....
....|..|C#5 ...A ....|--- .... ....|--- .... ....
....|..|R-- .... ....|--- .... ....|--- .... ....
....|..|C#5 ...F ....|--- .... ....|--- .... ....
....|..|--- .... ....|--- .... ....|--- .... ....
....|..|D-5 ...A ....|--- .... ....|--- .... ....
....|..|--- .... ....|--- .... ....|--- .... ....
....|..|--- .... ....|--- .... ....|--- .... ....
....|..|--- .... ....|--- .... ....|--- .... ....
....|..|C#5 ...A ....|--- .... ....|--- .... ....
....|..|--- .... ....|--- .... ....|--- .... ....
....|..|R-- .... ....|A-3 ...F ....|--- .... ....
....|..|--- .... ....|--- .... ....|--- .... ....
....|..|--- .... ....|--- .... ....|--- .... ....
....|..|--- .... ....|--- .... ....|--- .... ....
....|..|B-4 ...F ....|--- .... ....|--- .... ....
....|..|--- .... ....|R-- .... ....|--- .... ....
....|..|--- .... ....|B-3 ...F ....|--- .... ....
....|..|R-- .... ....|--- .... ....|--- .... ....
....|..|A-4 ...F ....|R-- .... ....|--- .... ....
....|..|--- .... ....|--- .... ....|--- .... ....
....|..|B-4 ...A ....|--- .... ....|--- .... ....
....|..|R-- .... ....|--- .... ....|--- .... ....
....|..|B-4 ...F ....|B-3 ...A ....|--- .... ....
....|..|--- .... ....|--- .... ....|--- .... ....
....|..|A-4 ...A ....|--- .... ....|--- .... ....
....|..|R-- .... ....|--- .... ....|--- .... ....
....|..|C#5 ...F ....|--- .... ....|--- .... ....
....|..|--- .... ....|--- .... ....|--- .... ....
....|..|B-4 ...A ....|--- .... ....|--- .... ....
....|..|R-- .... ....|--- .... ....|--- .... ....
....|..|D-5 ...F ....|--- .... ....|--- .... ....
....|..|--- .... ....|--- .... ....|--- .... ....
....|..|C#5 ...A ....|--- .... ....|--- .... ....
....|..|R-- .... ....|--- .... ....|--- .... ....
....|..|C#5 ...F ....|--- .... ....|--- .... ....
....|..|--- .... ....|--- .... ....|--- .... ....
....|..|D-5 ...A ....|--- .... ....|--- .... ....
....|..|--- .... ....|--- .... ....|--- .... ....
....|..|--- .... ....|--- .... ....|--- .... ....
....|..|--- .... ....|--- .... ....|--- .... ....
....|..|C#5 ...A ....|--- .... ....|--- .... ....
....|..|R-- .... ....|--- .... ....|--- .... ....
....|..|--- .... ....|A-3 ...F ....|--- .... ....
....|..|--- .... ....|--- .... ....|--- .... ....
....|..|--- .... ....|--- .... ....|--- .... ....
....|..|--- .... ....|--- .... ....|--- .... ....
....|..|D-5 ...F ....|--- .... ....|--- .... ....
....|..|--- .... ....|R-- .... ....|--- .... ....
....|..|--- .... ....|B-3 ...F ....|--- .... ....
....|..|R-- .... ....|--- .... ....|--- .... ....
....|..|C#5 ...F ....|R-- .... ....|--- .... ....
....|..|--- .... ....|--- .... ....|--- .... ....
....|..|D-5 ...A ....|--- .... ....|--- .... ....
....|..|--- .... ....|--- .... ....|--- .... ....
....|..|--- .... ....|B-3 ...A ....|--- .... ....
....|..|--- .... ....|--- .... ....|--- .... ....
....|..|C#5 ...A ....|--- .... ....|--- .... ....
....|..|R-- .... ....|--- .... ....|--- .... ....

[Pattern17]
....|..|--- .... ....|--- .... ....|R-- .... ....
....|..|--- .... ....|--- .... ....|R-- .... ....
....|..|--- .... ....|--- .... ....|R-- .... ....
....|..|--- .... ....|--- .... ....|R-- .... ....
....|..|D-5 ...F ....|--- .... ....|B-4 ...F ....
....|..|--- .... ....|--- .... ....|R-- .... ....
....|..|--- .... ....|--- .... ....|B-4 ...F ....
....|..|R-- .... ....|--- .... ....|R-- .... ....
....|..|D-5 ...F ....|--- .... ....|A-4 ...F ....
....|..|R-- .... ....|--- .... ....|R-- .... ....
....|..|D-5 ...A ....|--- .... ....|B-4 ...A ....
....|..|--- .... ....|--- .... ....|--- .... ....
....|..|D-5 ...F ....|--- .... ....|R-- .... ....
....|..|R-- .... ....|--- .... ....|R-- .... ....
....|..|D-5 ...A ....|--- .... ....|A-4 ...A ....
....|..|--- .... ....|--- .... ....|--- .... ....
....|..|D-5 ...F ....|A-3 ...F ....|A-4 ...F ....
....|..|--- .... ....|--- .... ....|R-- .... ....
....|..|D-5 ...A ....|--- .... ....|F#4 ...A ....
....|..|R-- .... ....|--- .... ....|--- .... ....
....|..|D-5 ...F ....|--- .... ....|A-4 ...F ....
....|..|R-- .... ....|R-- .... ....|R-- .... ....
....|..|D-5 ...A ....|B-3 ...F ....|B-4 ...F ....
....|..|--- .... ....|R-- .... ....|R-- .... ....
....|..|F#5 ...F ....|--- .... ....|--- .... ....
....|..|--- .... ....|--- .... ....|--- .... ....
....|..|D-5 ...A ....|--- .... ....|A-4 ...A ....
....|..|R-- .... ....|--- .... ....|--- .... ....
....|..|F#5 ...F ....|B-3 ...A ....|R-- .... ....
....|..|R-- .... ....|--- .... ....|R-- .... ....
....|..|F#5 ...A ....|--- .... ....|R-- .... ....
....|..|--- .... ....|--- .... ....|R-- .... ....
....|..|--- .... ....|--- .... ....|R-- .... ....
....|..|--- .... ....|--- .... ....|R-- .... ....
....|..|F#5 ...A ....|--- .... ....|R-- .... ....
....|..|--- .... ....|--- .... ....|R-- .... ....
....|..|D-5 ...F ....|--- .... ....|B-4 ...F ....
....|..|--- .... ....|--- .... ....|R-- .... ....
....|..|--- .... ....|--- .... ....|B-4 ...F ....
....|..|R-- .... ....|--- .... ....|R-- .... ....
....|..|D-5 ...F ....|--- .... ....|A-4 ...F ....
....|..|R-- .... ....|--- .... ....|R-- .... ....
....|..|D-5 ...A ....|--- .... ....|B-4 ...A ....
....|..|--- .... ....|--- .... ....|--- .... ....
....|..|D-5 ...F ....|--- .... ....|R-- .... ....
....|..|R-- .... ....|--- .... ....|R-- .... ....
....|..|D-5 ...A ....|--- .... ....|A-4 ...A ....
....|..|--- .... ....|--- .... ....|--- .... ....
....|..|D-5 ...F ....|A-3 ...F ....|A-4 ...F ....
....|..|--- .... ....|--- .... ....|R-- .... ....
....|..|D-5 ...A ....|--- .... ....|F#4 ...A ....
....|..|R-- .... ....|--- .... ....|--- .... ....
....|..|D-5 ...F ....|--- .... ....|A-4 ...F ....
....|..|R-- .... ....|R-- .... ....|R-- .... ....
....|..|D-5 ...A ....|B-3 ...F ....|B-4 ...F ....
....|..|--- .... ....|--- .... ....|R-- .... ....
....|..|F#5 ...F ....|R-- .... ....|--- .... ....
....|..|--- .... ....|--- .... ....|--- .... ....
....|..|D-5 ...A ....|--- .... ....|A-4 ...A ....
....|..|R-- .... ....|--- .... ....|--- .... ....
....|..|F#5 ...F ....|B-3 ...A ....|R-- .... ....
....|..|R-- .... ....|--- .... ....|R-- .... ....
....|..|F#5 ...A ....|--- .... ....|R-- .... ....
....|..|--- .... ....|--- .... ....|R-- .... ....

[Pattern18]
....|..|--- .... ....|--- .... ....|R-- .... ....
....|..|--- .... ....|--- .... ....|R-- .... ....
....|..|F#5 ...A ....|--- .... ....|R-- .... ....
....|..|--- .... ....|--- .... ....|R-- .... ....
....|..|D-5 ...F ....|--- .... ....|B-4 ...F ....
....|..|--- .... ....|--- .... ....|R-- .... ....
....|..|--- .... ....|--- .... ....|B-4 ...F ....
....|..|R-- .... ....|--- .... ....|R-- .... ....
....|..|D-5 ...F ....|--- .... ....|A-4 ...F ....
....|..|R-- .... ....|--- .... ....|R-- .... ....
....|..|D-5 ...A ....|--- .... ....|B-4 ...A ....
....|..|--- .... ....|--- .... ....|--- .... ....
....|..|D-5 ...F ....|--- .... ....|R-- .... ....
....|..|R-- .... ....|--- .... ....|R-- .... ....
....|..|D-5 ...A ....|--- .... ....|A-4 ...A ....
....|..|--- .... ....|--- .... ....|--- .... ....
....|..|D-5 ...F ....|A-3 ...F ....|A-4 ...F ....
....|..|--- .... ....|--- .... ....|R-- .... ....
....|..|D-5 ...A ....|--- .... ....|F#4 ...A ....
....|..|R-- .... ....|--- .... ....|--- .... ....
....|..|D-5 ...F ....|--- .... ....|A-4 ...F ....
....|..|R-- .... ....|R-- .... ....|R-- .... ....
....|..|D-5 ...A ....|B-3 ...F ....|B-4 ...F ....
....|..|--- .... ....|--- .... ....|R-- .... ....
....|..|D-5 ...F ....|R-- .... ....|--- .... ....
....|..|--- .... ....|--- .... ....|--- .... ....
....|..|D-5 ...A ....|--- .... ....|A-4 ...A ....
....|..|R-- .... ....|--- .... ....|--- .... ....
....|..|D-5 ...F ....|B-3 ...A ....|R-- .... ....
....|..|R-- .... ....|--- .... ....|R-- .... ....
....|..|D-5 ...A ....|--- .... ....|R-- .... ....
....|..|--- .... ....|--- .... ....|R-- .... ....
....|..|E-5 ...F ....|--- .... ....|R-- .... ....
....|..|--- .... ....|--- .... ....|R-- .... ....
....|..|D-5 ...A ....|--- .... ....|R-- .... ....
....|..|--- .... ....|--- .... ....|R-- .... ....
....|..|--- .... ....|--- .... ....|B-4 ...F ....
....|..|--- .... ....|--- .... ....|R-- .... ....
....|..|E-5 ...A ....|--- .... ....|B-4 ...F ....
....|..|R-- .... ....|--- .... ....|R-- .... ....
....|..|D-5 ...F ....|--- .... ....|A-4 ...F ....
....|..|--- .... ....|--- .... ....|R-- .... ....
....|..|--- .... ....|--- .... ....|B-4 ...A ....
....|..|R-- .... ....|--- .... ....|--- .... ....
....|..|C#5 ...F ....|--- .... ....|R-- .... ....
....|..|--- .... ....|--- .... ....|R-- .... ....
....|..|D-5 ...A ....|--- .... ....|A-4 ...A ....
....|..|--- .... ....|--- .... ....|--- .... ....
....|..|--- .... ....|A-3 ...F ....|A-4 ...F ....
....|..|--- .... ....|--- .... ....|R-- .... ....
....|..|C#5 ...A ....|--- .... ....|F#4 ...A ....
....|..|R-- .... ....|--- .... ....|--- .... ....
....|..|C#5 ...F ....|--- .... ....|A-4 ...F ....
....|..|--- .... ....|R-- .... ....|R-- .... ....
....|..|--- .... ....|B-3 ...F ....|B-4 ...F ....
....|..|R-- .... ....|--- .... ....|R-- .... ....
....|..|F#5 ...F ....|R-- .... ....|--- .... ....
....|..|--- .... ....|--- .... ....|--- .... ....
....|..|C#5 ...A ....|--- .... ....|A-4 ...A ....
....|..|R-- .... ....|--- .... ....|--- .... ....
....|..|F#5 ...F ....|B-3 ...A ....|R-- .... ....
....|..|--- .... ....|--- .... ....|R-- .... ....
....|..|F#5 ...A ....|--- .... ....|R-- .... ....
....|..|R-- .... ....|--- .... ....|R-- .... ....

[Pattern19]
....|..|--- .... ....|--- .... ....|R-- .... ....
....|..|--- .... ....|--- .... ....|R-- .... ....
....|..|F#5 ...A ....|--- .... ....|R-- .... ....
....|..|--- .... ....|--- .... ....|R-- .... ....
....|..|C#5 ...F ....|--- .... ....|B-4 ...F ....
....|..|--- .... ....|--- .... ....|R-- .... ....
....|..|--- .... ....|--- .... ....|B-4 ...F ....
....|..|R-- .... ....|--- .... ....|R-- .... ....
....|..|C#5 ...F ....|--- .... ....|A-4 ...F ....
....|..|R-- .... ....|--- .... ....|R-- .... ....
....|..|C#5 ...A ....|--- .... ....|B-4 ...A ....
....|..|--- .... ....|--- .... ....|--- .... ....
....|..|C#5 ...F ....|--- .... ....|R-- .... ....
....|..|R-- .... ....|--- .... ....|R-- .... ....
....|..|C#5 ...A ....|--- .... ....|A-4 ...A ....
....|..|--- .... ....|--- .... ....|--- .... ....
....|..|C#5 ...F ....|A-3 ...F ....|A-4 ...F ....
....|..|--- .... ....|--- .... ....|R-- .... ....
....|..|C#5 ...A ....|--- .... ....|F#4 ...A ....
....|..|R-- .... ....|--- .... ....|--- .... ....
....|..|C#5 ...F ....|--- .... ....|A-4 ...F ....
....|..|R-- .... ....|R-- .... ....|R-- .... ....
....|..|C#5 ...A ....|B-3 ...F ....|B-4 ...F ....
....|..|--- .... ....|--- .... ....|R-- .... ....
....|..|F#5 ...F ....|R-- .... ....|--- .... ....
....|..|--- .... ....|--- .... ....|--- .... ....
....|..|C#5 ...A ....|--- .... ....|A-4 ...A ....
....|..|--- .... ....|--- .... ....|--- .... ....
....|..|--- .... ....|B-3 ...A ....|R-- .... ....
....|..|--- .... ....|--- .... ....|R-- .... ....
....|..|F#5 ...A ....|--- .... ....|R-- .... ....
....|..|R-- .... ....|--- .... ....|R-- .... ....
....|..|--- .... ....|--- .... ....|R-- .... ....
....|..|--- .... ....|--- .... ....|R-- .... ....
....|..|--- .... ....|--- .... ....|R-- .... ....
....|..|--- .... ....|--- .... ....|R-- .... ....
....|..|C#5 ...F ....|--- .... ....|B-4 ...F ....
....|..|--- .... ....|--- .... ....|R-- .... ....
....|..|--- .... ....|--- .... ....|B-4 ...F ....
....|..|R-- .... ....|--- .... ....|R-- .... ....
....|..|C#5 ...F ....|--- .... ....|A-4 ...F ....
....|..|R-- .... ....|--- .... ....|R-- .... ....
....|..|C#5 ...A ....|--- .... ....|B-4 ...A ....
....|..|--- .... ....|--- .... ....|--- .... ....
....|..|C#5 ...F ....|--- .... ....|R-- .... ....
....|..|R-- .... ....|--- .... ....|R-- .... ....
....|..|C#5 ...A ....|--- .... ....|A-4 ...A ....
....|..|--- .... ....|--- .... ....|--- .... ....
....|..|C#5 ...F ....|A-3 ...F ....|A-4 ...F ....
....|..|--- .... ....|--- .... ....|R-- .... ....
....|..|C#5 ...A ....|--- .... ....|F#4 ...A ....
....|..|R-- .... ....|--- .... ....|--- .... ....
....|..|C#5 ...F ....|--- .... ....|A-4 ...F ....
....|..|R-- .... ....|R-- .... ....|R-- .... ....
....|..|C#5 ...A ....|B-3 ...F ....|B-4 ...F ....
....|..|--- .... ....|--- .... ....|R-- .... ....
....|..|F#5 ...F ....|R-- .... ....|--- .... ....
....|..|--- .... ....|--- .... ....|--- .... ....
....|..|C#5 ...A ....|--- .... ....|A-4 ...A ....
....|..|--- .... ....|--- .... ....|--- .... ....
....|..|--- .... ....|B-3 ...A ....|R-- .... ....
....|..|--- .... ....|--- .... ....|R-- .... ....
....|..|F#5 ...A ....|--- .... ....|R-- .... ....
....|..|R-- .... ....|--- .... ....|R-- .... ....

[Pattern20]
....|..|--- .... ....|--- .... ....|R-- .... ....
....|..|--- .... ....|--- .... ....|R-- .... ....
....|..|--- .... ....|--- .... ....|R-- .... ....
....|..|--- .... ....|--- .... ....|R-- .... ....
....|..|C#5 ...F ....|--- .... ....|B-4 ...F ....
....|..|--- .... ....|--- .... ....|R-- .... ....
....|..|--- .... ....|--- .... ....|B-4 ...F ....
....|..|R-- .... ....|--- .... ....|R-- .... ....
....|..|C#5 ...F ....|--- .... ....|A-4 ...F ....
....|..|--- .... ....|--- .... ....|R-- .... ....
....|..|C#5 ...A ....|--- .... ....|B-4 ...A ....
....|..|R-- .... ....|--- .... ....|--- .... ....
....|..|D-5 ...F ....|--- .... ....|R-- .... ....
....|..|--- .... ....|--- .... ....|R-- .... ....
....|..|C#5 ...A ....|--- .... ....|A-4 ...A ....
....|..|R-- .... ....|--- .... ....|--- .... ....
....|..|C#5 ...F ....|A-3 ...F ....|A-4 ...F ....
....|..|--- .... ....|--- .... ....|R-- .... ....
....|..|D-5 ...A ....|--- .... ....|F#4 ...A ....
....|..|R-- .... ....|--- .... ....|--- .... ....
....|..|--- .... ....|--- .... ....|A-4 ...F ....
....|..|--- .... ....|R-- .... ....|R-- .... ....
....|..|C#5 ...A ....|B-3 ...F ....|B-4 ...F ....
....|..|--- .... ....|--- .... ....|R-- .... ....
....|..|C#5 ...F ....|R-- .... ....|--- .... ....
....|..|--- .... ....|--- .... ....|--- .... ....
....|..|R-- .... ....|--- .... ....|A-4 ...A ....
....|..|--- .... ....|--- .... ....|--- .... ....
....|..|C#5 ...F ....|B-3 ...A ....|R-- .... ....
....|..|--- .... ....|--- .... ....|R-- .... ....
....|..|R-- .... ....|--- .... ....|R-- .... ....
....|..|--- .... ....|--- .... ....|R-- .... ....
....|..|C#5 ...F ....|--- .... ....|R-- .... ....
....|..|--- .... ....|--- .... ....|R-- .... ....
....|..|R-- .... ....|--- .... ....|R-- .... ....
....|..|--- .... ....|--- .... ....|R-- .... ....
....|..|C#5 ...F ....|--- .... ....|B-4 ...F ....
....|..|--- .... ....|--- .... ....|R-- .... ....
....|..|R-- .... ....|--- .... ....|B-4 ...F ....
....|..|--- .... ....|--- .... ....|R-- .... ....
....|..|C#5 ...F ....|--- .... ....|A-4 ...F ....
....|..|--- .... ....|--- .... ....|R-- .... ....
....|..|R-- .... ....|--- .... ....|B-4 ...A ....
....|..|--- .... ....|--- .... ....|--- .... ....
....|..|C#5 ...F ....|--- .... ....|R-- .... ....
....|..|--- .... ....|--- .... ....|R-- .... ....
....|..|R-- .... ....|--- .... ....|A-4 ...A ....
....|..|--- .... ....|--- .... ....|--- .... ....
....|..|C#5 ...F ....|A-3 ...F ....|A-4 ...F ....
....|..|--- .... ....|--- .... ....|R-- .... ....
....|..|R-- .... ....|--- .... ....|F#4 ...A ....
....|..|--- .... ....|--- .... ....|--- .... ....
....|..|C#5 ...F ....|--- .... ....|A-4 ...F ....
....|..|--- .... ....|R-- .... ....|R-- .... ....
....|..|R-- .... ....|B-3 ...F ....|B-4 ...F ....
....|..|--- .... ....|--- .... ....|R-- .... ....
....|..|F#5 ...F ....|R-- .... ....|--- .... ....
....|..|--- .... ....|--- .... ....|--- .... ....
....|..|C#5 ...A ....|--- .... ....|A-4 ...A ....
....|..|--- .... ....|--- .... ....|--- .... ....
....|..|--- .... ....|B-3 ...A ....|G#4 ...F ....
....|..|R-- .... ....|--- .... ....|R-- .... ....
....|..|F#5 ...A ....|--- .... ....|R-- .... ....
....|..|--- .... ....|--- .... ....|R-- .... ....

[Pattern21]
....|..|F#5 ...F ....|--- .... ....|A-4 ...F ....
....|..|--- .... ....|--- .... ....|R-- .... ....
....|..|--- .... ....|--- .... ....|A-4 ...F ....
....|..|--- .... ....|--- .... ....|R-- .... ....
....|..|--- .... ....|--- .... ....|R-- .... ....
....|..|R-- .... ....|--- .... ....|--- .... ....
....|..|C#5 ...F ....|--- .... ....|R-- .... ....
....|..|--- .... ....|--- .... ....|--- .... ....
....|..|--- .... ....|--- .... ....|A-4 ...F ....
....|..|--- .... ....|--- .... ....|R-- .... ....
....|..|R-- .... ....|--- .... ....|A-4 ...F ....
....|..|--- .... ....|--- .... ....|R-- .... ....
....|..|F#5 ...F ....|--- .... ....|R-- .... ....
....|..|--- .... ....|--- .... ....|--- .... ....
....|..|--- .... ....|--- .... ....|A-4 ...F ....
....|..|R-- .... ....|--- .... ....|R-- .... ....
....|..|G#5 ...F ....|A-3 ...F ....|A-4 ...A ....
....|..|--- .... ....|--- .... ....|--- .... ....
....|..|F#5 ...A ....|--- .... ....|G#4 ...F ....
....|..|--- .... ....|--- .... ....|R-- .... ....
....|..|--- .... ....|--- .... ....|A-4 ...A ....
....|..|R-- .... ....|R-- .... ....|--- .... ....
....|..|C#5 ...F ....|B-3 ...F ....|G#4 ...F ....
....|..|--- .... ....|R-- .... ....|R-- .... ....
....|..|--- .... ....|--- .... ....|G#4 ...A ....
....|..|--- .... ....|--- .... ....|--- .... ....
....|..|--- .... ....|--- .... ....|--- .... ....
....|..|R-- .... ....|--- .... ....|--- .... ....
....|..|G#5 ...F ....|B-3 ...A ....|G#4 ...F ....
....|..|--- .... ....|--- .... ....|R-- .... ....
....|..|--- .... ....|--- .... ....|R-- .... ....
....|..|R-- .... ....|--- .... ....|R-- .... ....
....|..|A-5 ...F ....|--- .... ....|A-4 ...F ....
....|..|--- .... ....|--- .... ....|R-- .... ....
....|..|G#5 ...A ....|--- .... ....|A-4 ...F ....
....|..|--- .... ....|--- .... ....|R-- .... ....
....|..|--- .... ....|--- .... ....|R-- .... ....
....|..|--- .... ....|--- .... ....|--- .... ....
....|..|A-5 ...A ....|--- .... ....|R-- .... ....
....|..|R-- .... ....|--- .... ....|--- .... ....
....|..|F#5 ...F ....|--- .... ....|A-4 ...F ....
....|..|--- .... ....|--- .... ....|R-- .... ....
....|..|--- .... ....|--- .... ....|A-4 ...F ....
....|..|R-- .... ....|--- .... ....|R-- .... ....
....|..|G#5 ...F ....|--- .... ....|R-- .... ....
....|..|--- .... ....|--- .... ....|--- .... ....
....|..|F#5 ...A ....|--- .... ....|A-4 ...F ....
....|..|R-- .... ....|--- .... ....|R-- .... ....
....|..|A-5 ...F ....|A-3 ...F ....|A-4 ...A ....
....|..|--- .... ....|--- .... ....|--- .... ....
....|..|G#5 ...A ....|--- .... ....|G#4 ...F ....
....|..|R-- .... ....|--- .... ....|R-- .... ....
....|..|G#5 ...F ....|--- .... ....|G#4 ...F ....
....|..|--- .... ....|R-- .... ....|R-- .... ....
....|..|A-5 ...A ....|B-3 ...F ....|--- .... ....
....|..|R-- .... ....|--- .... ....|--- .... ....
....|..|F#5 ...F ....|R-- .... ....|G#4 ...A ....
....|..|--- .... ....|--- .... ....|--- .... ....
....|..|G#5 ...A ....|--- .... ....|G#4 ...A ....
....|..|R-- .... ....|--- .... ....|--- .... ....
....|..|E-5 ...F ....|B-3 ...A ....|G#4 ...F ....
....|..|--- .... ....|--- .... ....|R-- .... ....
....|..|F#5 ...A ....|--- .... ....|R-- .... ....
....|..|R-- .... ....|--- .... ....|R-- .... ....

[Pattern22]
....|..|F#5 ...F ....|--- .... ....|A-4 ...F ....
....|..|--- .... ....|--- .... ....|R-- .... ....
....|..|E-5 ...A ....|--- .... ....|A-4 ...F ....
....|..|--- .... ....|--- .... ....|R-- .... ....
....|..|--- .... ....|--- .... ....|R-- .... ....
....|..|R-- .... ....|--- .... ....|--- .... ....
....|..|C#5 ...F ....|--- .... ....|R-- .... ....
....|..|--- .... ....|--- .... ....|--- .... ....
....|..|--- .... ....|--- .... ....|A-4 ...F ....
....|..|--- .... ....|--- .... ....|R-- .... ....
....|..|R-- .... ....|--- .... ....|A-4 ...F ....
....|..|--- .... ....|--- .... ....|R-- .... ....
....|..|F#5 ...F ....|--- .... ....|R-- .... ....
....|..|--- .... ....|--- .... ....|--- .... ....
....|..|--- .... ....|--- .... ....|A-4 ...F ....
....|..|R-- .... ....|--- .... ....|R-- .... ....
....|..|G#5 ...F ....|A-3 ...F ....|A-4 ...A ....
....|..|--- .... ....|--- .... ....|--- .... ....
....|..|F#5 ...A ....|--- .... ....|G#4 ...F ....
....|..|--- .... ....|--- .... ....|R-- .... ....
....|..|--- .... ....|--- .... ....|A-4 ...A ....
....|..|R-- .... ....|R-- .... ....|--- .... ....
....|..|C#5 ...F ....|B-3 ...F ....|G#4 ...F ....
....|..|--- .... ....|--- .... ....|R-- .... ....
....|..|--- .... ....|R-- .... ....|G#4 ...A ....
....|..|--- .... ....|--- .... ....|--- .... ....
....|..|--- .... ....|--- .... ....|--- .... ....
....|..|R-- .... ....|--- .... ....|--- .... ....
....|..|G#5 ...F ....|B-3 ...A ....|G#4 ...F ....
....|..|--- .... ....|--- .... ....|R-- .... ....
....|..|--- .... ....|--- .... ....|R-- .... ....
....|..|R-- .... ....|--- .... ....|R-- .... ....
....|..|A-5 ...F ....|--- .... ....|A-4 ...F ....
....|..|--- .... ....|--- .... ....|R-- .... ....
....|..|G#5 ...A ....|--- .... ....|A-4 ...F ....
....|..|--- .... ....|--- .... ....|R-- .... ....
....|..|--- .... ....|--- .... ....|R-- .... ....
....|..|--- .... ....|--- .... ....|--- .... ....
....|..|A-5 ...A ....|--- .... ....|R-- .... ....
....|..|--- .... ....|--- .... ....|--- .... ....
....|..|--- .... ....|--- .... ....|A-4 ...F ....
....|..|R-- .... ....|--- .... ....|R-- .... ....
....|..|--- .... ....|--- .... ....|A-4 ...F ....
....|..|--- .... ....|--- .... ....|R-- .... ....
....|..|--- .... ....|--- .... ....|R-- .... ....
....|..|--- .... ....|--- .... ....|--- .... ....
....|..|--- .... ....|--- .... ....|A-4 ...F ....
....|..|--- .... ....|--- .... ....|R-- .... ....
....|..|A-5 ...F ....|A-3 ...F ....|A-4 ...A ....
....|..|--- .... ....|--- .... ....|--- .... ....
....|..|--- .... ....|--- .... ....|G#4 ...F ....
....|..|R-- .... ....|--- .... ....|R-- .... ....
....|..|G#5 ...F ....|--- .... ....|G#4 ...F ....
....|..|--- .... ....|R-- .... ....|R-- .... ....
....|..|A-5 ...A ....|B-3 ...F ....|--- .... ....
....|..|R-- .... ....|--- .... ....|--- .... ....
....|..|F#5 ...F ....|R-- .... ....|G#4 ...A ....
....|..|--- .... ....|--- .... ....|--- .... ....
....|..|G#5 ...A ....|--- .... ....|G#4 ...A ....
....|..|R-- .... ....|--- .... ....|--- .... ....
....|..|E-5 ...F ....|B-3 ...A ....|G#4 ...F ....
....|..|--- .... ....|--- .... ....|R-- .... ....
....|..|F#5 ...A ....|--- .... ....|R-- .... ....
....|..|R-- .... ....|--- .... ....|R-- .... ....

[Pattern23]
....|..|F#5 ...F ....|--- .... ....|A-4 ...F ....
....|..|--- .... ....|--- .... ....|R-- .... ....
....|..|E-5 ...A ....|--- .... ....|A-4 ...F ....
....|..|--- .... ....|--- .... ....|R-- .... ....
....|..|--- .... ....|--- .... ....|R-- .... ....
....|..|R-- .... ....|--- .... ....|--- .... ....
....|..|F#5 ...A ....|--- .... ....|R-- .... ....
....|..|--- .... ....|--- .... ....|R-- .... ....
....|..|F#5 ...F ....|--- .... ....|A-4 ...F ....
....|..|--- .... ....|--- .... ....|R-- .... ....
....|..|--- .... ....|--- .... ....|A-4 ...F ....
....|..|--- .... ....|--- .... ....|R-- .... ....
....|..|--- .... ....|--- .... ....|R-- .... ....
....|..|R-- .... ....|--- .... ....|--- .... ....
....|..|F#5 ...A ....|--- .... ....|A-4 ...F ....
....|..|--- .... ....|--- .... ....|R-- .... ....
....|..|A-5 ...F ....|A-3 ...F ....|A-4 ...A ....
....|..|--- .... ....|--- .... ....|--- .... ....
....|..|--- .... ....|--- .... ....|G#4 ...F ....
....|..|R-- .... ....|--- .... ....|R-- .... ....
....|..|G#5 ...F ....|--- .... ....|A-4 ...A ....
....|..|--- .... ....|R-- .... ....|--- .... ....
....|..|A-5 ...A ....|B-3 ...F ....|G#4 ...F ....
....|..|R-- .... ....|--- .... ....|R-- .... ....
....|..|F#5 ...F ....|R-- .... ....|G#4 ...A ....
....|..|--- .... ....|--- .... ....|--- .... ....
....|..|G#5 ...A ....|--- .... ....|--- .... ....
....|..|R-- .... ....|--- .... ....|--- .... ....
....|..|E-5 ...F ....|B-3 ...A ....|G#4 ...F ....
....|..|--- .... ....|--- .... ....|R-- .... ....
....|..|F#5 ...A ....|--- .... ....|R-- .... ....
....|..|R-- .... ....|--- .... ....|R-- .... ....
....|..|F#5 ...F ....|--- .... ....|A-4 ...F ....
....|..|--- .... ....|--- .... ....|R-- .... ....
....|..|E-5 ...A ....|--- .... ....|A-4 ...F ....
....|..|--- .... ....|--- .... ....|R-- .... ....
....|..|--- .... ....|--- .... ....|R-- .... ....
....|..|R-- .... ....|--- .... ....|--- .... ....
....|..|F#5 ...A ....|--- .... ....|R-- .... ....
....|..|--- .... ....|--- .... ....|R-- .... ....
....|..|F#5 ...F ....|--- .... ....|A-4 ...F ....
....|..|--- .... ....|--- .... ....|R-- .... ....
....|..|--- .... ....|--- .... ....|A-4 ...F ....
....|..|--- .... ....|--- .... ....|R-- .... ....
....|..|--- .... ....|--- .... ....|R-- .... ....
....|..|R-- .... ....|--- .... ....|--- .... ....
....|..|F#5 ...A ....|--- .... ....|A-4 ...F ....
....|..|--- .... ....|--- .... ....|R-- .... ....
....|..|A-5 ...F ....|A-3 ...F ....|A-4 ...A ....
....|..|--- .... ....|--- .... ....|--- .... ....
....|..|--- .... ....|--- .... ....|G#4 ...F ....
....|..|R-- .... ....|--- .... ....|R-- .... ....
....|..|G#5 ...F ....|--- .... ....|G#4 ...F ....
....|..|--- .... ....|R-- .... ....|R-- .... ....
....|..|A-5 ...A ....|B-3 ...F ....|--- .... ....
....|..|R-- .... ....|--- .... ....|--- .... ....
....|..|F#5 ...F ....|R-- .... ....|G#4 ...A ....
....|..|--- .... ....|--- .... ....|--- .... ....
....|..|G#5 ...A ....|--- .... ....|G#4 ...A ....
....|..|R-- .... ....|--- .... ....|--- .... ....
....|..|E-5 ...F ....|B-3 ...A ....|G#4 ...F ....
....|..|--- .... ....|--- .... ....|R-- .... ....
....|..|F#5 ...A ....|--- .... ....|R-- .... ....
....|..|R-- .... ....|--- .... ....|R-- .... ....

[Pattern24]
....|..|F#5 ...F ....|--- .... ....|A-4 ...F ....
....|..|--- .... ....|--- .... ....|R-- .... ....
....|..|E-5 ...A ....|--- .... ....|A-4 ...F ....
....|..|--- .... ....|--- .... ....|R-- .... ....
....|..|--- .... ....|--- .... ....|R-- .... ....
....|..|R-- .... ....|--- .... ....|--- .... ....
....|..|F#5 ...A ....|--- .... ....|R-- .... ....
....|..|--- .... ....|--- .... ....|R-- .... ....
....|..|F#5 ...F ....|--- .... ....|A-4 ...F ....
....|..|--- .... ....|--- .... ....|R-- .... ....
....|..|--- .... ....|--- .... ....|A-4 ...F ....
....|..|--- .... ....|--- .... ....|R-- .... ....
....|..|--- .... ....|--- .... ....|R-- .... ....
....|..|R-- .... ....|--- .... ....|--- .... ....
....|..|F#5 ...A ....|--- .... ....|A-4 ...F ....
....|..|--- .... ....|--- .... ....|R-- .... ....
....|..|A-5 ...F ....|A-3 ...F ....|A-4 ...A ....
....|..|--- .... ....|--- .... ....|--- .... ....
....|..|--- .... ....|--- .... ....|G#4 ...F ....
....|..|R-- .... ....|--- .... ....|R-- .... ....
....|..|G#5 ...F ....|--- .... ....|A-4 ...A ....
....|..|--- .... ....|R-- .... ....|--- .... ....
....|..|A-5 ...A ....|B-3 ...F ....|G#4 ...F ....
....|..|R-- .... ....|--- .... ....|R-- .... ....
....|..|F#5 ...F ....|R-- .... ....|G#4 ...A ....
....|..|--- .... ....|--- .... ....|--- .... ....
....|..|G#5 ...A ....|--- .... ....|--- .... ....
....|..|R-- .... ....|--- .... ....|--- .... ....
....|..|E-5 ...F ....|B-3 ...A ....|G#4 ...F ....
....|..|--- .... ....|--- .... ....|R-- .... ....
....|..|F#5 ...A ....|--- .... ....|R-- .... ....
....|..|R-- .... ....|--- .... ....|R-- .... ....
....|..|A-5 ...F ....|--- .... ....|A-4 ...F ....
....|..|--- .... ....|--- .... ....|R-- .... ....
....|..|E-5 ...A ....|--- .... ....|A-4 ...F ....
....|..|R-- .... ....|--- .... ....|R-- .... ....
....|..|G#5 ...F ....|--- .... ....|R-- .... ....
....|..|--- .... ....|--- .... ....|--- .... ....
....|..|A-5 ...A ....|--- .... ....|R-- .... ....
....|..|R-- .... ....|--- .... ....|R-- .... ....
....|..|F#5 ...F ....|--- .... ....|A-4 ...F ....
....|..|--- .... ....|--- .... ....|R-- .... ....
....|..|G#5 ...A ....|--- .... ....|A-4 ...F ....
....|..|R-- .... ....|--- .... ....|R-- .... ....
....|..|E-5 ...F ....|--- .... ....|R-- .... ....
....|..|--- .... ....|--- .... ....|--- .... ....
....|..|F#5 ...A ....|--- .... ....|A-4 ...F ....
....|..|R-- .... ....|--- .... ....|R-- .... ....
....|..|F#5 ...F ....|A-3 ...F ....|A-4 ...A ....
....|..|--- .... ....|--- .... ....|--- .... ....
....|..|E-5 ...A ....|--- .... ....|G#4 ...F ....
....|..|--- .... ....|--- .... ....|R-- .... ....
....|..|--- .... ....|--- .... ....|G#4 ...F ....
....|..|R-- .... ....|R-- .... ....|R-- .... ....
....|..|F#5 ...A ....|B-3 ...F ....|--- .... ....
....|..|--- .... ....|--- .... ....|--- .... ....
....|..|F#5 ...F ....|R-- .... ....|G#4 ...A ....
....|..|--- .... ....|--- .... ....|--- .... ....
....|..|--- .... ....|--- .... ....|G#4 ...A ....
....|..|--- .... ....|--- .... ....|--- .... ....
....|..|--- .... ....|B-3 ...A ....|G#4 ...F ....
....|..|R-- .... ....|--- .... ....|R-- .... ....
....|..|F#5 ...A ....|--- .... ....|R-- .... ....
....|..|--- .... ....|--- .... ....|R-- .... ....

[Pattern25]
....|..|F#5 ...F ....|--- .... ....|A-4 ...F ....
....|..|--- .... ....|--- .... ....|R-- .... ....
....|..|--- .... ....|--- .... ....|A-4 ...F ....
....|..|--- .... ....|--- .... ....|R-- .... ....
....|..|--- .... ....|--- .... ....|R-- .... ....
....|..|R-- .... ....|--- .... ....|--- .... ....
....|..|C#5 ...F ....|--- .... ....|R-- .... ....
....|..|--- .... ....|--- .... ....|--- .... ....
....|..|--- .... ....|--- .... ....|A-4 ...F ....
....|..|--- .... ....|--- .... ....|R-- .... ....
....|..|R-- .... ....|--- .... ....|A-4 ...F ....
....|..|--- .... ....|--- .... ....|R-- .... ....
....|..|F#5 ...F ....|--- .... ....|R-- .... ....
....|..|--- .... ....|--- .... ....|--- .... ....
....|..|--- .... ....|--- .... ....|A-4 ...F ....
....|..|R-- .... ....|--- .... ....|R-- .... ....
....|..|G#5 ...F ....|A-3 ...F ....|A-4 ...A ....
....|..|--- .... ....|--- .... ....|--- .... ....
....|..|F#5 ...A ....|--- .... ....|G#4 ...F ....
....|..|--- .... ....|--- .... ....|R-- .... ....
....|..|--- .... ....|--- .... ....|A-4 ...A ....
....|..|R-- .... ....|R-- .... ....|--- .... ....
....|..|C#5 ...F ....|B-3 ...F ....|G#4 ...F ....
....|..|--- .... ....|R-- .... ....|R-- .... ....
....|..|--- .... ....|--- .... ....|G#4 ...A ....
....|..|--- .... ....|--- .... ....|--- .... ....
....|..|--- .... ....|--- .... ....|--- .... ....
....|..|R-- .... ....|--- .... ....|--- .... ....
....|..|G#5 ...F ....|B-3 ...A ....|G#4 ...F ....
....|..|--- .... ....|--- .... ....|R-- .... ....
....|..|--- .... ....|--- .... ....|R-- .... ....
....|..|R-- .... ....|--- .... ....|R-- .... ....
....|..|A-5 ...F ....|--- .... ....|A-4 ...F ....
....|..|--- .... ....|--- .... ....|R-- .... ....
....|..|G#5 ...A ....|--- .... ....|A-4 ...F ....
....|..|--- .... ....|--- .... ....|R-- .... ....
....|..|--- .... ....|--- .... ....|R-- .... ....
....|..|--- .... ....|--- .... ....|--- .... ....
....|..|A-5 ...A ....|--- .... ....|R-- .... ....
....|..|R-- .... ....|--- .... ....|--- .... ....
....|..|F#5 ...F ....|--- .... ....|A-4 ...F ....
....|..|--- .... ....|--- .... ....|R-- .... ....
....|..|--- .... ....|--- .... ....|A-4 ...F ....
....|..|R-- .... ....|--- .... ....|R-- .... ....
....|..|G#5 ...F ....|--- .... ....|R-- .... ....
....|..|--- .... ....|--- .... ....|--- .... ....
....|..|F#5 ...A ....|--- .... ....|A-4 ...F ....
....|..|R-- .... ....|--- .... ....|R-- .... ....
....|..|A-5 ...F ....|A-3 ...F ....|A-4 ...A ....
....|..|--- .... ....|--- .... ....|--- .... ....
....|..|G#5 ...A ....|--- .... ....|G#4 ...F ....
....|..|R-- .... ....|--- .... ....|R-- .... ....
....|..|G#5 ...F ....|--- .... ....|G#4 ...F ....
....|..|--- .... ....|R-- .... ....|R-- .... ....
....|..|A-5 ...A ....|B-3 ...F ....|--- .... ....
....|..|R-- .... ....|--- .... ....|--- .... ....
....|..|F#5 ...F ....|R-- .... ....|G#4 ...A ....
....|..|--- .... ....|--- .... ....|--- .... ....
....|..|G#5 ...A ....|--- .... ....|G#4 ...A ....
....|..|R-- .... ....|--- .... ....|--- .... ....
....|..|E-5 ...F ....|B-3 ...A ....|G#4 ...F ....
....|..|--- .... ....|--- .... ....|R-- .... ....
....|..|F#5 ...A ....|--- .... ....|R-- .... ....
....|..|R-- .... ....|--- .... ....|R-- .... ....

[Pattern26]
....|..|F#5 ...F ....|--- .... ....|A-4 ...F ....
....|..|--- .... ....|--- .... ....|R-- .... ....
....|..|E-5 ...A ....|--- .... ....|A-4 ...F ....
....|..|--- .... ....|--- .... ....|R-- .... ....
....|..|--- .... ....|--- .... ....|R-- .... ....
....|..|R-- .... ....|--- .... ....|--- .... ....
....|..|C#5 ...F ....|--- .... ....|R-- .... ....
....|..|--- .... ....|--- .... ....|--- .... ....
....|..|--- .... ....|--- .... ....|A-4 ...F ....
....|..|--- .... ....|--- .... ....|R-- .... ....
....|..|R-- .... ....|--- .... ....|A-4 ...F ....
....|..|--- .... ....|--- .... ....|R-- .... ....
....|..|F#5 ...F ....|--- .... ....|R-- .... ....
....|..|--- .... ....|--- .... ....|--- .... ....
....|..|--- .... ....|--- .... ....|A-4 ...F ....
....|..|R-- .... ....|--- .... ....|R-- .... ....
....|..|G#5 ...F ....|A-3 ...F ....|A-4 ...A ....
....|..|--- .... ....|--- .... ....|--- .... ....
....|..|F#5 ...A ....|--- .... ....|G#4 ...F ....
....|..|--- .... ....|--- .... ....|R-- .... ....
....|..|--- .... ....|--- .... ....|A-4 ...A ....
....|..|R-- .... ....|R-- .... ....|--- .... ....
....|..|C#5 ...F ....|B-3 ...F ....|G#4 ...F ....
....|..|--- .... ....|--- .... ....|R-- .... ....
....|..|--- .... ....|R-- .... ....|G#4 ...A ....
....|..|--- .... ....|--- .... ....|--- .... ....
....|..|--- .... ....|--- .... ....|--- .... ....
....|..|R-- .... ....|--- .... ....|--- .... ....
....|..|G#5 ...F ....|B-3 ...A ....|G#4 ...F ....
....|..|--- .... ....|--- .... ....|R-- .... ....
....|..|--- .... ....|--- .... ....|R-- .... ....
....|..|R-- .... ....|--- .... ....|R-- .... ....
....|..|A-5 ...F ....|--- .... ....|A-4 ...F ....
....|..|--- .... ....|--- .... ....|R-- .... ....
....|..|G#5 ...A ....|--- .... ....|A-4 ...F ....
....|..|--- .... ....|--- .... ....|R-- .... ....
....|..|--- .... ....|--- .... ....|R-- .... ....
....|..|--- .... ....|--- .... ....|--- .... ....
....|..|A-5 ...A ....|--- .... ....|R-- .... ....
....|..|--- .... ....|--- .... ....|--- .... ....
....|..|--- .... ....|--- .... ....|A-4 ...F ....
....|..|R-- .... ....|--- .... ....|R-- .... ....
....|..|--- .... ....|--- .... ....|A-4 ...F ....
....|..|--- .... ....|--- .... ....|R-- .... ....
....|..|--- .... ....|--- .... ....|R-- .... ....
....|..|--- .... ....|--- .... ....|--- .... ....
....|..|--- .... ....|--- .... ....|A-4 ...F ....
....|..|--- .... ....|--- .... ....|R-- .... ....
....|..|A-5 ...F ....|A-3 ...F ....|A-4 ...A ....
....|..|--- .... ....|--- .... ....|--- .... ....
....|..|--- .... ....|--- .... ....|G#4 ...F ....
....|..|R-- .... ....|--- .... ....|R-- .... ....
....|..|G#5 ...F ....|--- .... ....|G#4 ...F ....
....|..|--- .... ....|R-- .... ....|R-- .... ....
....|..|A-5 ...A ....|B-3 ...F ....|--- .... ....
....|..|R-- .... ....|--- .... ....|--- .... ....
....|..|F#5 ...F ....|R-- .... ....|G#4 ...A ....
....|..|--- .... ....|--- .... ....|--- .... ....
....|..|G#5 ...A ....|--- .... ....|G#4 ...A ....
....|..|R-- .... ....|--- .... ....|--- .... ....
....|..|E-5 ...F ....|B-3 ...A ....|G#4 ...F ....
....|..|--- .... ....|--- .... ....|R-- .... ....
....|..|F#5 ...A ....|--- .... ....|R-- .... ....
....|..|R-- .... ....|--- .... ....|R-- .... ....

[Pattern27]
....|..|F#5 ...F ....|--- .... ....|A-4 ...F ....
....|..|--- .... ....|--- .... ....|R-- .... ....
....|..|E-5 ...A ....|--- .... ....|A-4 ...F ....
....|..|--- .... ....|--- .... ....|R-- .... ....
....|..|--- .... ....|--- .... ....|R-- .... ....
....|..|R-- .... ....|--- .... ....|--- .... ....
....|..|F#5 ...A ....|--- .... ....|R-- .... ....
....|..|--- .... ....|--- .... ....|R-- .... ....
....|..|F#5 ...F ....|--- .... ....|A-4 ...F ....
....|..|--- .... ....|--- .... ....|R-- .... ....
....|..|--- .... ....|--- .... ....|A-4 ...F ....
....|..|--- .... ....|--- .... ....|R-- .... ....
....|..|--- .... ....|--- .... ....|R-- .... ....
....|..|R-- .... ....|--- .... ....|--- .... ....
....|..|F#5 ...A ....|--- .... ....|A-4 ...F ....
....|..|--- .... ....|--- .... ....|R-- .... ....
....|..|A-5 ...F ....|A-3 ...F ....|A-4 ...A ....
....|..|--- .... ....|--- .... ....|--- .... ....
....|..|--- .... ....|--- .... ....|G#4 ...F ....
....|..|R-- .... ....|--- .... ....|R-- .... ....
....|..|G#5 ...F ....|--- .... ....|A-4 ...A ....
....|..|--- .... ....|R-- .... ....|--- .... ....
....|..|A-5 ...A ....|B-3 ...F ....|G#4 ...F ....
....|..|R-- .... ....|--- .... ....|R-- .... ....
....|..|F#5 ...F ....|R-- .... ....|G#4 ...A ....
....|..|--- .... ....|--- .... ....|--- .... ....
....|..|G#5 ...A ....|--- .... ....|--- .... ....
....|..|R-- .... ....|--- .... ....|--- .... ....
....|..|E-5 ...F ....|B-3 ...A ....|G#4 ...F ....
....|..|--- .... ....|--- .... ....|R-- .... ....
....|..|F#5 ...A ....|--- .... ....|R-- .... ....
....|..|R-- .... ....|--- .... ....|R-- .... ....
....|..|F#5 ...F ....|--- .... ....|A-4 ...F ....
....|..|--- .... ....|--- .... ....|R-- .... ....
....|..|E-5 ...A ....|--- .... ....|A-4 ...F ....
....|..|--- .... ....|--- .... ....|R-- .... ....
....|..|--- .... ....|--- .... ....|R-- .... ....
....|..|R-- .... ....|--- .... ....|--- .... ....
....|..|F#5 ...A ....|--- .... ....|R-- .... ....
....|..|--- .... ....|--- .... ....|R-- .... ....
....|..|F#5 ...F ....|--- .... ....|A-4 ...F ....
....|..|--- .... ....|--- .... ....|R-- .... ....
....|..|--- .... ....|--- .... ....|A-4 ...F ....
....|..|--- .... ....|--- .... ....|R-- .... ....
....|..|--- .... ....|--- .... ....|R-- .... ....
....|..|R-- .... ....|--- .... ....|--- .... ....
....|..|F#5 ...A ....|--- .... ....|A-4 ...F ....
....|..|--- .... ....|--- .... ....|R-- .... ....
....|..|A-5 ...F ....|A-3 ...F ....|A-4 ...A ....
....|..|--- .... ....|--- .... ....|--- .... ....
....|..|--- .... ....|--- .... ....|G#4 ...F ....
....|..|R-- .... ....|--- .... ....|R-- .... ....
....|..|G#5 ...F ....|--- .... ....|G#4 ...F ....
....|..|--- .... ....|R-- .... ....|R-- .... ....
....|..|A-5 ...A ....|B-3 ...F ....|--- .... ....
....|..|R-- .... ....|--- .... ....|--- .... ....
....|..|F#5 ...F ....|R-- .... ....|G#4 ...A ....
....|..|--- .... ....|--- .... ....|--- .... ....
....|..|G#5 ...A ....|--- .... ....|G#4 ...A ....
....|..|R-- .... ....|--- .... ....|--- .... ....
....|..|E-5 ...F ....|B-3 ...A ....|G#4 ...F ....
....|..|--- .... ....|--- .... ....|R-- .... ....
....|..|F#5 ...A ....|--- .... ....|R-- .... ....
....|..|R-- .... ....|--- .... ....|R-- .... ....

[Pattern28]
....|..|F#5 ...F ....|--- .... ....|A-4 ...F ....
....|..|--- .... ....|--- .... ....|R-- .... ....
....|..|E-5 ...A ....|--- .... ....|A-4 ...F ....
....|..|--- .... ....|--- .... ....|R-- .... ....
....|..|--- .... ....|--- .... ....|R-- .... ....
....|..|R-- .... ....|--- .... ....|--- .... ....
....|..|F#5 ...A ....|--- .... ....|R-- .... ....
....|..|--- .... ....|--- .... ....|R-- .... ....
....|..|F#5 ...F ....|--- .... ....|A-4 ...F ....
....|..|--- .... ....|--- .... ....|R-- .... ....
....|..|--- .... ....|--- .... ....|A-4 ...F ....
....|..|--- .... ....|--- .... ....|R-- .... ....
....|..|--- .... ....|--- .... ....|R-- .... ....
....|..|R-- .... ....|--- .... ....|--- .... ....
....|..|F#5 ...A ....|--- .... ....|A-4 ...F ....
....|..|--- .... ....|--- .... ....|R-- .... ....
....|..|A-5 ...F ....|A-3 ...F ....|A-4 ...A ....
....|..|--- .... ....|--- .... ....|--- .... ....
....|..|--- .... ....|--- .... ....|G#4 ...F ....
....|..|R-- .... ....|--- .... ....|R-- .... ....
....|..|G#5 ...F ....|--- .... ....|A-4 ...A ....
....|..|--- .... ....|R-- .... ....|--- .... ....
....|..|A-5 ...A ....|B-3 ...F ....|G#4 ...F ....
....|..|R-- .... ....|--- .... ....|R-- .... ....
....|..|F#5 ...F ....|R-- .... ....|G#4 ...A ....
....|..|--- .... ....|--- .... ....|--- .... ....
....|..|G#5 ...A ....|--- .... ....|--- .... ....
....|..|R-- .... ....|--- .... ....|--- .... ....
....|..|E-5 ...F ....|B-3 ...A ....|G#4 ...F ....
....|..|--- .... ....|--- .... ....|R-- .... ....
....|..|F#5 ...A ....|--- .... ....|R-- .... ....
....|..|R-- .... ....|--- .... ....|R-- .... ....
....|..|A-5 ...F ....|--- .... ....|A-4 ...F ....
....|..|--- .... ....|--- .... ....|R-- .... ....
....|..|E-5 ...A ....|--- .... ....|A-4 ...F ....
....|..|R-- .... ....|--- .... ....|R-- .... ....
....|..|G#5 ...F ....|--- .... ....|R-- .... ....
....|..|--- .... ....|--- .... ....|--- .... ....
....|..|A-5 ...A ....|--- .... ....|R-- .... ....
....|..|R-- .... ....|--- .... ....|R-- .... ....
....|..|F#5 ...F ....|--- .... ....|A-4 ...F ....
....|..|--- .... ....|--- .... ....|R-- .... ....
....|..|G#5 ...A ....|--- .... ....|A-4 ...F ....
....|..|R-- .... ....|--- .... ....|R-- .... ....
....|..|E-5 ...F ....|--- .... ....|R-- .... ....
....|..|--- .... ....|--- .... ....|--- .... ....
....|..|F#5 ...A ....|--- .... ....|A-4 ...F ....
....|..|R-- .... ....|--- .... ....|R-- .... ....
....|..|A-5 ...F ....|A-3 ...F ....|A-4 ...A ....
....|..|--- .... ....|--- .... ....|--- .... ....
....|..|E-5 ...A ....|--- .... ....|G#4 ...F ....
....|..|R-- .... ....|--- .... ....|R-- .... ....
....|..|G#5 ...F ....|--- .... ....|G#4 ...F ....
....|..|--- .... ....|R-- .... ....|R-- .... ....
....|..|A-5 ...A ....|B-3 ...F ....|--- .... ....
....|..|R-- .... ....|--- .... ....|--- .... ....
....|..|F#5 ...F ....|R-- .... ....|G#4 ...A ....
....|..|--- .... ....|--- .... ....|--- .... ....
....|..|G#5 ...A ....|--- .... ....|G#4 ...A ....
....|..|R-- .... ....|--- .... ....|--- .... ....
....|..|E-5 ...F ....|B-3 ...A ....|G#4 ...F ....
....|..|--- .... ....|--- .... ....|R-- .... ....
....|..|F#5 ...A ....|--- .... ....|R-- .... ....
....|..|R-- .... ....|--- .... ....|R-- .... ....

[Pattern29]
....|..|F#5 ...F ....|--- .... ....|A-4 ...F ....
....|..|--- .... ....|--- .... ....|R-- .... ....
....|..|E-5 ...A ....|--- .... ....|A-4 ...F ....
....|..|--- .... ....|--- .... ....|R-- .... ....
....|..|--- .... ....|--- .... ....|R-- .... ....
....|..|R-- .... ....|--- .... ....|--- .... ....
....|..|F#5 ...A ....|--- .... ....|R-- .... ....
....|..|--- .... ....|--- .... ....|--- .... ....
....|..|F#5 ...F ....|--- .... ....|A-4 ...F ....
....|..|--- .... ....|--- .... ....|R-- .... ....
....|..|--- .... ....|--- .... ....|A-4 ...F ....
....|..|--- .... ....|--- .... ....|R-- .... ....
....|..|--- .... ....|--- .... ....|R-- .... ....
....|..|R-- .... ....|--- .... ....|--- .... ....
....|..|F#5 ...A ....|--- .... ....|A-4 ...F ....
....|..|--- .... ....|--- .... ....|R-- .... ....
....|..|--- .... ....|A-3 ...F ....|A-4 ...A ....
....|..|--- .... ....|--- .... ....|--- .... ....
....|..|--- .... ....|--- .... ....|G#4 ...F ....
....|..|--- .... ....|--- .... ....|R-- .... ....
....|..|--- .... ....|--- .... ....|A-4 ...A ....
....|..|--- .... ....|R-- .... ....|--- .... ....
....|..|--- .... ....|B-3 ...F ....|G#4 ...F ....
....|..|--- .... ....|R-- .... ....|R-- .... ....
....|..|--- .... ....|--- .... ....|G#4 ...A ....
....|..|--- .... ....|--- .... ....|--- .... ....
....|..|--- .... ....|--- .... ....|--- .... ....
....|..|--- .... ....|--- .... ....|--- .... ....
....|..|--- .... ....|B-3 ...A ....|G#4 ...F ....
....|..|--- .... ....|--- .... ....|R-- .... ....
....|..|--- .... ....|--- .... ....|R-- .... ....
....|..|--- .... ....|--- .... ....|R-- .... ....
....|..|D-5 ...F ....|--- .... ....|A-4 ...F ....
....|..|--- .... ....|--- .... ....|R-- .... ....
....|..|R-- .... ....|--- .... ....|A-4 ...F ....
....|..|--- .... ....|--- .... ....|R-- .... ....
....|..|D-5 ...F ....|--- .... ....|R-- .... ....
....|..|--- .... ....|--- .... ....|--- .... ....
....|..|R-- .... ....|--- .... ....|R-- .... ....
....|..|--- .... ....|--- .... ....|--- .... ....
....|..|D-5 ...F ....|--- .... ....|A-4 ...F ....
....|..|--- .... ....|--- .... ....|R-- .... ....
....|..|R-- .... ....|--- .... ....|A-4 ...F ....
....|..|--- .... ....|--- .... ....|R-- .... ....
....|..|D-5 ...F ....|--- .... ....|R-- .... ....
....|..|--- .... ....|--- .... ....|--- .... ....
....|..|D-5 ...A ....|--- .... ....|A-4 ...F ....
....|..|R-- .... ....|--- .... ....|R-- .... ....
....|..|E-5 ...F ....|A-3 ...F ....|A-4 ...A ....
....|..|--- .... ....|--- .... ....|--- .... ....
....|..|D-5 ...A ....|--- .... ....|G#4 ...F ....
....|..|R-- .... ....|--- .... ....|R-- .... ....
....|..|E-5 ...F ....|--- .... ....|G#4 ...F ....
....|..|--- .... ....|R-- .... ....|R-- .... ....
....|..|E-5 ...A ....|B-3 ...F ....|--- .... ....
....|..|R-- .... ....|--- .... ....|--- .... ....
....|..|C#5 ...F ....|R-- .... ....|G#4 ...A ....
....|..|--- .... ....|--- .... ....|--- .... ....
....|..|E-5 ...A ....|--- .... ....|G#4 ...A ....
....|..|R-- .... ....|--- .... ....|--- .... ....
....|..|C#5 ...F ....|B-3 ...A ....|G#4 ...F ....
....|..|--- .... ....|--- .... ....|R-- .... ....
....|..|C#5 ...A ....|--- .... ....|R-- .... ....
....|..|R-- .... ....|--- .... ....|R-- .... ....

[Pattern30]
....|..|D-5 ...F ....|--- .... ....|A-4 ...F ....
....|..|R-- .... ....|--- .... ....|R-- .... ....
....|..|C#5 ...A ....|--- .... ....|A-4 ...F ....
....|..|--- .... ....|--- .... ....|R-- .... ....
....|..|D-5 ...F ....|--- .... ....|R-- .... ....
....|..|R-- .... ....|--- .... ....|--- .... ....
....|..|D-5 ...A ....|--- .... ....|R-- .... ....
....|..|--- .... ....|--- .... ....|--- .... ....
....|..|D-5 ...F ....|--- .... ....|A-4 ...F ....
....|..|--- .... ....|--- .... ....|R-- .... ....
....|..|D-5 ...A ....|--- .... ....|A-4 ...F ....
....|..|--- .... ....|--- .... ....|R-- .... ....
....|..|--- .... ....|--- .... ....|R-- .... ....
....|..|--- .... ....|--- .... ....|--- .... ....
....|..|D-5 ...A ....|--- .... ....|A-4 ...F ....
....|..|--- .... ....|--- .... ....|R-- .... ....
....|..|--- .... ....|A-3 ...F ....|A-4 ...A ....
....|..|--- .... ....|--- .... ....|--- .... ....
....|..|R-- .... ....|--- .... ....|G#4 ...F ....
....|..|--- .... ....|--- .... ....|R-- .... ....
....|..|--- .... ....|--- .... ....|A-4 ...A ....
....|..|--- .... ....|R-- .... ....|--- .... ....
....|..|--- .... ....|B-3 ...F ....|G#4 ...F ....
....|..|--- .... ....|--- .... ....|R-- .... ....
....|..|--- .... ....|R-- .... ....|G#4 ...A ....
....|..|--- .... ....|--- .... ....|--- .... ....
....|..|--- .... ....|--- .... ....|--- .... ....
....|..|--- .... ....|--- .... ....|--- .... ....
....|..|--- .... ....|B-3 ...A ....|G#4 ...F ....
....|..|--- .... ....|--- .... ....|R-- .... ....
....|..|--- .... ....|--- .... ....|R-- .... ....
....|..|--- .... ....|--- .... ....|R-- .... ....
....|..|D-5 ...F ....|--- .... ....|A-4 ...F ....
....|..|--- .... ....|--- .... ....|R-- .... ....
....|..|R-- .... ....|--- .... ....|A-4 ...F ....
....|..|--- .... ....|--- .... ....|R-- .... ....
....|..|D-5 ...F ....|--- .... ....|R-- .... ....
....|..|--- .... ....|--- .... ....|--- .... ....
....|..|R-- .... ....|--- .... ....|R-- .... ....
....|..|--- .... ....|--- .... ....|--- .... ....
....|..|D-5 ...F ....|--- .... ....|A-4 ...F ....
....|..|--- .... ....|--- .... ....|R-- .... ....
....|..|R-- .... ....|--- .... ....|A-4 ...F ....
....|..|--- .... ....|--- .... ....|R-- .... ....
....|..|D-5 ...F ....|--- .... ....|R-- .... ....
....|..|--- .... ....|--- .... ....|--- .... ....
....|..|R-- .... ....|--- .... ....|A-4 ...F ....
....|..|--- .... ....|--- .... ....|R-- .... ....
....|..|E-5 ...F ....|A-3 ...F ....|A-4 ...A ....
....|..|--- .... ....|--- .... ....|--- .... ....
....|..|D-5 ...A ....|--- .... ....|G#4 ...F ....
....|..|R-- .... ....|--- .... ....|R-- .... ....
....|..|E-5 ...F ....|--- .... ....|G#4 ...F ....
....|..|--- .... ....|R-- .... ....|R-- .... ....
....|..|E-5 ...A ....|B-3 ...F ....|--- .... ....
....|..|R-- .... ....|--- .... ....|--- .... ....
....|..|E-5 ...F ....|R-- .... ....|G#4 ...A ....
....|..|--- .... ....|--- .... ....|--- .... ....
....|..|E-5 ...A ....|--- .... ....|G#4 ...A ....
....|..|R-- .... ....|--- .... ....|--- .... ....
....|..|C#5 ...F ....|B-3 ...A ....|G#4 ...F ....
....|..|--- .... ....|--- .... ....|R-- .... ....
....|..|E-5 ...A ....|--- .... ....|R-- .... ....
....|..|R-- .... ....|--- .... ....|R-- .... ....

[Pattern31]
....|..|C#5 ...F ....|--- .... ....|A-4 ...F ....
....|..|--- .... ....|--- .... ....|R-- .... ....
....|..|C#5 ...A ....|--- .... ....|A-4 ...F ....
....|..|R-- .... ....|--- .... ....|R-- .... ....
....|..|D-5 ...F ....|--- .... ....|R-- .... ....
....|..|--- .... ....|--- .... ....|--- .... ....
....|..|C#5 ...A ....|--- .... ....|R-- .... ....
....|..|R-- .... ....|--- .... ....|R-- .... ....
....|..|C#5 ...F ....|--- .... ....|A-4 ...F ....
....|..|--- .... ....|--- .... ....|R-- .... ....
....|..|D-5 ...A ....|--- .... ....|A-4 ...F ....
....|..|--- .... ....|--- .... ....|R-- .... ....
....|..|--- .... ....|--- .... ....|R-- .... ....
....|..|--- .... ....|--- .... ....|--- .... ....
....|..|C#5 ...A ....|--- .... ....|A-4 ...F ....
....|..|R-- .... ....|--- .... ....|R-- .... ....
....|..|--- .... ....|A-3 ...F ....|A-4 ...A ....
....|..|--- .... ....|--- .... ....|--- .... ....
....|..|--- .... ....|--- .... ....|G#4 ...F ....
....|..|--- .... ....|--- .... ....|R-- .... ....
....|..|--- .... ....|--- .... ....|A-4 ...A ....
....|..|--- .... ....|R-- .... ....|--- .... ....
....|..|--- .... ....|B-3 ...F ....|G#4 ...F ....
....|..|--- .... ....|--- .... ....|R-- .... ....
....|..|--- .... ....|R-- .... ....|G#4 ...A ....
....|..|--- .... ....|--- .... ....|--- .... ....
....|..|--- .... ....|--- .... ....|--- .... ....
....|..|--- .... ....|--- .... ....|--- .... ....
....|..|--- .... ....|B-3 ...A ....|G#4 ...F ....
....|..|--- .... ....|--- .... ....|R-- .... ....
....|..|--- .... ....|--- .... ....|R-- .... ....
....|..|--- .... ....|--- .... ....|R-- .... ....
....|..|--- .... ....|--- .... ....|A-4 ...F ....
....|..|--- .... ....|--- .... ....|R-- .... ....
....|..|--- .... ....|--- .... ....|A-4 ...F ....
....|..|--- .... ....|--- .... ....|R-- .... ....
....|..|C#5 ...F ....|--- .... ....|R-- .... ....
....|..|--- .... ....|--- .... ....|--- .... ....
....|..|R-- .... ....|--- .... ....|R-- .... ....
....|..|--- .... ....|--- .... ....|R-- .... ....
....|..|C#5 ...F ....|--- .... ....|A-4 ...F ....
....|..|--- .... ....|--- .... ....|R-- .... ....
....|..|R-- .... ....|--- .... ....|A-4 ...F ....
....|..|--- .... ....|--- .... ....|R-- .... ....
....|..|C#5 ...F ....|--- .... ....|R-- .... ....
....|..|--- .... ....|--- .... ....|--- .... ....
....|..|R-- .... ....|--- .... ....|A-4 ...F ....
....|..|--- .... ....|--- .... ....|R-- .... ....
....|..|E-5 ...F ....|A-3 ...F ....|A-4 ...A ....
....|..|--- .... ....|--- .... ....|--- .... ....
....|..|C#5 ...A ....|--- .... ....|G#4 ...F ....
....|..|R-- .... ....|--- .... ....|R-- .... ....
....|..|E-5 ...F ....|--- .... ....|G#4 ...F ....
....|..|--- .... ....|R-- .... ....|R-- .... ....
....|..|E-5 ...A ....|B-3 ...F ....|--- .... ....
....|..|R-- .... ....|--- .... ....|--- .... ....
....|..|A-4 ...F ....|R-- .... ....|G#4 ...A ....
....|..|--- .... ....|--- .... ....|--- .... ....
....|..|E-5 ...A ....|--- .... ....|G#4 ...A ....
....|..|R-- .... ....|--- .... ....|--- .... ....
....|..|B-4 ...F ....|B-3 ...A ....|G#4 ...F ....
....|..|--- .... ....|--- .... ....|R-- .... ....
....|..|A-4 ...A ....|--- .... ....|R-- .... ....
....|..|R-- .... ....|--- .... ....|R-- .... ....

[Pattern32]
....|..|C#5 ...F ....|--- .... ....|A-4 ...F ....
....|..|--- .... ....|--- .... ....|R-- .... ....
....|..|B-4 ...A ....|--- .... ....|A-4 ...F ....
....|..|R-- .... ....|--- .... ....|R-- .... ....
....|..|D-5 ...F ....|--- .... ....|R-- .... ....
....|..|--- .... ....|--- .... ....|--- .... ....
....|..|C#5 ...A ....|--- .... ....|R-- .... ....
....|..|R-- .... ....|--- .... ....|R-- .... ....
....|..|C#5 ...F ....|--- .... ....|A-4 ...F ....
....|..|--- .... ....|--- .... ....|R-- .... ....
....|..|D-5 ...A ....|--- .... ....|A-4 ...F ....
....|..|--- .... ....|--- .... ....|R-- .... ....
....|..|--- .... ....|--- .... ....|R-- .... ....
....|..|--- .... ....|--- .... ....|--- .... ....
....|..|C#5 ...A ....|--- .... ....|A-4 ...F ....
....|..|--- .... ....|--- .... ....|R-- .... ....
....|..|R-- .... ....|A-3 ...F ....|A-4 ...A ....
....|..|--- .... ....|--- .... ....|--- .... ....
....|..|--- .... ....|--- .... ....|G#4 ...F ....
....|..|--- .... ....|--- .... ....|R-- .... ....
....|..|B-4 ...F ....|--- .... ....|A-4 ...A ....
....|..|--- .... ....|R-- .... ....|--- .... ....
....|..|--- .... ....|B-3 ...F ....|G#4 ...F ....
....|..|R-- .... ....|--- .... ....|R-- .... ....
....|..|A-4 ...F ....|R-- .... ....|G#4 ...A ....
....|..|--- .... ....|--- .... ....|--- .... ....
....|..|B-4 ...A ....|--- .... ....|--- .... ....
....|..|R-- .... ....|--- .... ....|--- .... ....
....|..|B-4 ...F ....|B-3 ...A ....|G#4 ...F ....
....|..|--- .... ....|--- .... ....|R-- .... ....
....|..|A-4 ...A ....|--- .... ....|R-- .... ....
....|..|R-- .... ....|--- .... ....|R-- .... ....
....|..|C#5 ...F ....|--- .... ....|A-4 ...F ....
....|..|--- .... ....|--- .... ....|R-- .... ....
....|..|B-4 ...A ....|--- .... ....|A-4 ...F ....
....|..|R-- .... ....|--- .... ....|R-- .... ....
....|..|D-5 ...F ....|--- .... ....|R-- .... ....
....|..|--- .... ....|--- .... ....|--- .... ....
....|..|C#5 ...A ....|--- .... ....|R-- .... ....
....|..|R-- .... ....|--- .... ....|R-- .... ....
....|..|C#5 ...F ....|--- .... ....|A-4 ...F ....
....|..|--- .... ....|--- .... ....|R-- .... ....
....|..|D-5 ...A ....|--- .... ....|A-4 ...F ....
....|..|R-- .... ....|--- .... ....|R-- .... ....
....|..|--- .... ....|--- .... ....|R-- .... ....
....|..|--- .... ....|--- .... ....|--- .... ....
....|..|C#5 ...A ....|--- .... ....|A-4 ...F ....
....|..|--- .... ....|--- .... ....|R-- .... ....
....|..|--- .... ....|A-3 ...F ....|A-4 ...A ....
....|..|--- .... ....|--- .... ....|--- .... ....
....|..|--- .... ....|--- .... ....|G#4 ...F ....
....|..|--- .... ....|--- .... ....|R-- .... ....
....|..|D-5 ...F ....|--- .... ....|G#4 ...F ....
....|..|--- .... ....|R-- .... ....|R-- .... ....
....|..|--- .... ....|B-3 ...F ....|--- .... ....
....|..|R-- .... ....|--- .... ....|--- .... ....
....|..|C#5 ...F ....|R-- .... ....|G#4 ...A ....
....|..|--- .... ....|--- .... ....|--- .... ....
....|..|D-5 ...A ....|--- .... ....|G#4 ...A ....
....|..|--- .... ....|--- .... ....|--- .... ....
....|..|--- .... ....|B-3 ...A ....|--- .... ....
....|..|--- .... ....|--- .... ....|--- .... ....
....|..|C#5 ...A ....|--- .... ....|--- .... ....
....|..|R-- .... ....|--- .... ....|--- .... ....

[Pattern33]
....|..|--- .... ....|--- .... ....|R-- .... ....
....|..|--- .... ....|--- .... ....|R-- .... ....
....|..|--- .... ....|--- .... ....|R-- .... ....
....|..|--- .... ....|--- .... ....|R-- .... ....
....|..|D-5 ...F ....|--- .... ....|B-4 ...F ....
....|..|--- .... ....|--- .... ....|R-- .... ....
....|..|--- .... ....|--- .... ....|B-4 ...F ....
....|..|R-- .... ....|--- .... ....|R-- .... ....
....|..|D-5 ...F ....|--- .... ....|A-4 ...F ....
....|..|R-- .... ....|--- .... ....|R-- .... ....
....|..|D-5 ...A ....|--- .... ....|B-4 ...A ....
....|..|--- .... ....|--- .... ....|--- .... ....
....|..|D-5 ...F ....|--- .... ....|R-- .... ....
....|..|R-- .... ....|--- .... ....|R-- .... ....
....|..|D-5 ...A ....|--- .... ....|A-4 ...A ....
....|..|--- .... ....|--- .... ....|--- .... ....
....|..|D-5 ...F ....|A-3 ...F ....|A-4 ...F ....
....|..|--- .... ....|--- .... ....|R-- .... ....
....|..|D-5 ...A ....|--- .... ....|F#4 ...A ....
....|..|R-- .... ....|--- .... ....|--- .... ....
....|..|D-5 ...F ....|--- .... ....|A-4 ...F ....
....|..|R-- .... ....|R-- .... ....|R-- .... ....
....|..|D-5 ...A ....|B-3 ...F ....|B-4 ...F ....
....|..|--- .... ....|R-- .... ....|R-- .... ....
....|..|F#5 ...F ....|--- .... ....|--- .... ....
....|..|--- .... ....|--- .... ....|--- .... ....
....|..|D-5 ...A ....|--- .... ....|A-4 ...A ....
....|..|R-- .... ....|--- .... ....|--- .... ....
....|..|F#5 ...F ....|B-3 ...A ....|R-- .... ....
....|..|R-- .... ....|--- .... ....|R-- .... ....
....|..|F#5 ...A ....|--- .... ....|R-- .... ....
....|..|--- .... ....|--- .... ....|R-- .... ....
....|..|--- .... ....|--- .... ....|R-- .... ....
....|..|--- .... ....|--- .... ....|R-- .... ....
....|..|F#5 ...A ....|--- .... ....|R-- .... ....
....|..|--- .... ....|--- .... ....|R-- .... ....
....|..|D-5 ...F ....|--- .... ....|B-4 ...F ....
....|..|--- .... ....|--- .... ....|R-- .... ....
....|..|--- .... ....|--- .... ....|B-4 ...F ....
....|..|R-- .... ....|--- .... ....|R-- .... ....
....|..|D-5 ...F ....|--- .... ....|A-4 ...F ....
....|..|R-- .... ....|--- .... ....|R-- .... ....
....|..|D-5 ...A ....|--- .... ....|B-4 ...A ....
....|..|--- .... ....|--- .... ....|--- .... ....
....|..|D-5 ...F ....|--- .... ....|R-- .... ....
....|..|R-- .... ....|--- .... ....|R-- .... ....
....|..|D-5 ...A ....|--- .... ....|A-4 ...A ....
....|..|--- .... ....|--- .... ....|--- .... ....
....|..|D-5 ...F ....|A-3 ...F ....|A-4 ...F ....
....|..|--- .... ....|--- .... ....|R-- .... ....
....|..|D-5 ...A ....|--- .... ....|F#4 ...A ....
....|..|R-- .... ....|--- .... ....|--- .... ....
....|..|D-5 ...F ....|--- .... ....|A-4 ...F ....
....|..|R-- .... ....|R-- .... ....|R-- .... ....
....|..|D-5 ...A ....|B-3 ...F ....|B-4 ...F ....
....|..|--- .... ....|--- .... ....|R-- .... ....
....|..|F#5 ...F ....|R-- .... ....|--- .... ....
....|..|--- .... ....|--- .... ....|--- .... ....
....|..|D-5 ...A ....|--- .... ....|A-4 ...A ....
....|..|R-- .... ....|--- .... ....|--- .... ....
....|..|F#5 ...F ....|B-3 ...A ....|R-- .... ....
....|..|R-- .... ....|--- .... ....|R-- .... ....
....|..|F#5 ...A ....|--- .... ....|R-- .... ....
....|..|--- .... ....|--- .... ....|R-- .... ....

[Pattern34]
....|..|--- .... ....|--- .... ....|R-- .... ....
....|..|--- .... ....|--- .... ....|R-- .... ....
....|..|F#5 ...A ....|--- .... ....|R-- .... ....
....|..|--- .... ....|--- .... ....|R-- .... ....
....|..|D-5 ...F ....|--- .... ....|B-4 ...F ....
....|..|--- .... ....|--- .... ....|R-- .... ....
....|..|--- .... ....|--- .... ....|B-4 ...F ....
....|..|R-- .... ....|--- .... ....|R-- .... ....
....|..|D-5 ...F ....|--- .... ....|A-4 ...F ....
....|..|R-- .... ....|--- .... ....|R-- .... ....
....|..|D-5 ...A ....|--- .... ....|B-4 ...A ....
....|..|--- .... ....|--- .... ....|--- .... ....
....|..|D-5 ...F ....|--- .... ....|R-- .... ....
....|..|R-- .... ....|--- .... ....|R-- .... ....
....|..|D-5 ...A ....|--- .... ....|A-4 ...A ....
....|..|--- .... ....|--- .... ....|--- .... ....
....|..|D-5 ...F ....|A-3 ...F ....|A-4 ...F ....
....|..|--- .... ....|--- .... ....|R-- .... ....
....|..|D-5 ...A ....|--- .... ....|F#4 ...A ....
....|..|R-- .... ....|--- .... ....|--- .... ....
....|..|D-5 ...F ....|--- .... ....|A-4 ...F ....
....|..|R-- .... ....|R-- .... ....|R-- .... ....
....|..|D-5 ...A ....|B-3 ...F ....|B-4 ...F ....
....|..|--- .... ....|--- .... ....|R-- .... ....
....|..|D-5 ...F ....|R-- .... ....|--- .... ....
....|..|--- .... ....|--- .... ....|--- .... ....
....|..|D-5 ...A ....|--- .... ....|A-4 ...A ....
....|..|R-- .... ....|--- .... ....|--- .... ....
....|..|D-5 ...F ....|B-3 ...A ....|R-- .... ....
....|..|R-- .... ....|--- .... ....|R-- .... ....
....|..|D-5 ...A ....|--- .... ....|R-- .... ....
....|..|--- .... ....|--- .... ....|R-- .... ....
....|..|E-5 ...F ....|--- .... ....|R-- .... ....
....|..|--- .... ....|--- .... ....|R-- .... ....
....|..|D-5 ...A ....|--- .... ....|R-- .... ....
....|..|--- .... ....|--- .... ....|R-- .... ....
....|..|--- .... ....|--- .... ....|B-4 ...F ....
....|..|--- .... ....|--- .... ....|R-- .... ....
....|..|E-5 ...A ....|--- .... ....|B-4 ...F ....
....|..|R-- .... ....|--- .... ....|R-- .... ....
....|..|D-5 ...F ....|--- .... ....|A-4 ...F ....
....|..|--- .... ....|--- .... ....|R-- .... ....
....|..|--- .... ....|--- .... ....|B-4 ...A ....
....|..|R-- .... ....|--- .... ....|--- .... ....
....|..|C#5 ...F ....|--- .... ....|R-- .... ....
....|..|--- .... ....|--- .... ....|R-- .... ....
....|..|D-5 ...A ....|--- .... ....|A-4 ...A ....
....|..|--- .... ....|--- .... ....|--- .... ....
....|..|--- .... ....|A-3 ...F ....|A-4 ...F ....
....|..|--- .... ....|--- .... ....|R-- .... ....
....|..|C#5 ...A ....|--- .... ....|F#4 ...A ....
....|..|R-- .... ....|--- .... ....|--- .... ....
....|..|C#5 ...F ....|--- .... ....|A-4 ...F ....
....|..|--- .... ....|R-- .... ....|R-- .... ....
....|..|--- .... ....|B-3 ...F ....|B-4 ...F ....
....|..|R-- .... ....|--- .... ....|R-- .... ....
....|..|F#5 ...F ....|R-- .... ....|--- .... ....
....|..|--- .... ....|--- .... ....|--- .... ....
....|..|C#5 ...A ....|--- .... ....|A-4 ...A ....
....|..|R-- .... ....|--- .... ....|--- .... ....
....|..|F#5 ...F ....|B-3 ...A ....|R-- .... ....
....|..|--- .... ....|--- .... ....|R-- .... ....
....|..|F#5 ...A ....|--- .... ....|R-- .... ....
....|..|R-- .... ....|--- .... ....|R-- .... ....

[Pattern35]
....|..|--- .... ....|--- .... ....|R-- .... ....
....|..|--- .... ....|--- .... ....|R-- .... ....
....|..|F#5 ...A ....|--- .... ....|R-- .... ....
....|..|--- .... ....|--- .... ....|R-- .... ....
....|..|C#5 ...F ....|--- .... ....|B-4 ...F ....
....|..|--- .... ....|--- .... ....|R-- .... ....
....|..|--- .... ....|--- .... ....|B-4 ...F ....
....|..|R-- .... ....|--- .... ....|R-- .... ....
....|..|C#5 ...F ....|--- .... ....|A-4 ...F ....
....|..|R-- .... ....|--- .... ....|R-- .... ....
....|..|C#5 ...A ....|--- .... ....|B-4 ...A ....
....|..|--- .... ....|--- .... ....|--- .... ....
....|..|C#5 ...F ....|--- .... ....|R-- .... ....
....|..|R-- .... ....|--- .... ....|R-- .... ....
....|..|C#5 ...A ....|--- .... ....|A-4 ...A ....
....|..|--- .... ....|--- .... ....|--- .... ....
....|..|C#5 ...F ....|A-3 ...F ....|A-4 ...F ....
....|..|--- .... ....|--- .... ....|R-- .... ....
....|..|C#5 ...A ....|--- .... ....|F#4 ...A ....
....|..|R-- .... ....|--- .... ....|--- .... ....
....|..|C#5 ...F ....|--- .... ....|A-4 ...F ....
....|..|R-- .... ....|R-- .... ....|R-- .... ....
....|..|C#5 ...A ....|B-3 ...F ....|B-4 ...F ....
....|..|--- .... ....|--- .... ....|R-- .... ....
....|..|F#5 ...F ....|R-- .... ....|--- .... ....
....|..|--- .... ....|--- .... ....|--- .... ....
....|..|C#5 ...A ....|--- .... ....|A-4 ...A ....
....|..|--- .... ....|--- .... ....|--- .... ....
....|..|--- .... ....|B-3 ...A ....|R-- .... ....
....|..|--- .... ....|--- .... ....|R-- .... ....
....|..|F#5 ...A ....|--- .... ....|R-- .... ....
....|..|R-- .... ....|--- .... ....|R-- .... ....
....|..|--- .... ....|--- .... ....|R-- .... ....
....|..|--- .... ....|--- .... ....|R-- .... ....
....|..|--- .... ....|--- .... ....|R-- .... ....
....|..|--- .... ....|--- .... ....|R-- .... ....
....|..|C#5 ...F ....|--- .... ....|B-4 ...F ....
....|..|--- .... ....|--- .... ....|R-- .... ....
....|..|--- .... ....|--- .... ....|B-4 ...F ....
....|..|R-- .... ....|--- .... ....|R-- .... ....
....|..|C#5 ...F ....|--- .... ....|A-4 ...F ....
....|..|R-- .... ....|--- .... ....|R-- .... ....
....|..|C#5 ...A ....|--- .... ....|B-4 ...A ....
....|..|--- .... ....|--- .... ....|--- .... ....
....|..|C#5 ...F ....|--- .... ....|R-- .... ....
....|..|R-- .... ....|--- .... ....|R-- .... ....
....|..|C#5 ...A ....|--- .... ....|A-4 ...A ....
....|..|--- .... ....|--- .... ....|--- .... ....
....|..|C#5 ...F ....|A-3 ...F ....|A-4 ...F ....
....|..|--- .... ....|--- .... ....|R-- .... ....
....|..|C#5 ...A ....|--- .... ....|F#4 ...A ....
....|..|R-- .... ....|--- .... ....|--- .... ....
....|..|C#5 ...F ....|--- .... ....|A-4 ...F ....
....|..|R-- .... ....|R-- .... ....|R-- .... ....
....|..|C#5 ...A ....|B-3 ...F ....|B-4 ...F ....
....|..|--- .... ....|--- .... ....|R-- .... ....
....|..|F#5 ...F ....|R-- .... ....|--- .... ....
....|..|--- .... ....|--- .... ....|--- .... ....
....|..|C#5 ...A ....|--- .... ....|A-4 ...A ....
....|..|--- .... ....|--- .... ....|--- .... ....
....|..|--- .... ....|B-3 ...A ....|R-- .... ....
....|..|--- .... ....|--- .... ....|R-- .... ....
....|..|F#5 ...A ....|--- .... ....|R-- .... ....
....|..|R-- .... ....|--- .... ....|R-- .... ....

[Pattern36]
....|..|--- .... ....|--- .... ....|R-- .... ....
....|..|--- .... ....|--- .... ....|R-- .... ....
....|..|--- .... ....|--- .... ....|R-- .... ....
....|..|--- .... ....|--- .... ....|R-- .... ....
....|..|C#5 ...F ....|--- .... ....|B-4 ...F ....
....|..|--- .... ....|--- .... ....|R-- .... ....
....|..|--- .... ....|--- .... ....|B-4 ...F ....
....|..|R-- .... ....|--- .... ....|R-- .... ....
....|..|C#5 ...F ....|--- .... ....|A-4 ...F ....
....|..|--- .... ....|--- .... ....|R-- .... ....
....|..|C#5 ...A ....|--- .... ....|B-4 ...A ....
....|..|R-- .... ....|--- .... ....|--- .... ....
....|..|D-5 ...F ....|--- .... ....|R-- .... ....
....|..|--- .... ....|--- .... ....|R-- .... ....
....|..|C#5 ...A ....|--- .... ....|A-4 ...A ....
....|..|R-- .... ....|--- .... ....|--- .... ....
....|..|C#5 ...F ....|A-3 ...F ....|A-4 ...F ....
....|..|--- .... ....|--- .... ....|R-- .... ....
....|..|D-5 ...A ....|--- .... ....|F#4 ...A ....
....|..|R-- .... ....|--- .... ....|--- .... ....
....|..|--- .... ....|--- .... ....|A-4 ...F ....
....|..|--- .... ....|R-- .... ....|R-- .... ....
....|..|C#5 ...A ....|B-3 ...F ....|B-4 ...F ....
....|..|--- .... ....|--- .... ....|R-- .... ....
....|..|C#5 ...F ....|R-- .... ....|--- .... ....
....|..|--- .... ....|--- .... ....|--- .... ....
....|..|R-- .... ....|--- .... ....|A-4 ...A ....
....|..|--- .... ....|--- .... ....|--- .... ....
....|..|C#5 ...F ....|B-3 ...A ....|R-- .... ....
....|..|--- .... ....|--- .... ....|R-- .... ....
....|..|R-- .... ....|--- .... ....|R-- .... ....
....|..|--- .... ....|--- .... ....|R-- .... ....
....|..|C#5 ...F ....|--- .... ....|R-- .... ....
....|..|--- .... ....|--- .... ....|R-- .... ....
....|..|R-- .... ....|--- .... ....|R-- .... ....
....|..|--- .... ....|--- .... ....|R-- .... ....
....|..|C#5 ...F ....|--- .... ....|B-4 ...F ....
....|..|--- .... ....|--- .... ....|R-- .... ....
....|..|R-- .... ....|--- .... ....|B-4 ...F ....
....|..|--- .... ....|--- .... ....|R-- .... ....
....|..|C#5 ...F ....|--- .... ....|A-4 ...F ....
....|..|--- .... ....|--- .... ....|R-- .... ....
....|..|R-- .... ....|--- .... ....|B-4 ...A ....
....|..|--- .... ....|--- .... ....|--- .... ....
....|..|C#5 ...F ....|--- .... ....|R-- .... ....
....|..|--- .... ....|--- .... ....|R-- .... ....
....|..|R-- .... ....|--- .... ....|A-4 ...A ....
....|..|--- .... ....|--- .... ....|--- .... ....
....|..|C#5 ...F ....|A-3 ...F ....|A-4 ...F ....
....|..|--- .... ....|--- .... ....|R-- .... ....
....|..|R-- .... ....|--- .... ....|F#4 ...A ....
....|..|--- .... ....|--- .... ....|--- .... ....
....|..|C#5 ...F ....|--- .... ....|A-4 ...F ....
....|..|--- .... ....|R-- .... ....|R-- .... ....
....|..|R-- .... ....|B-3 ...F ....|B-4 ...F ....
....|..|--- .... ....|--- .... ....|R-- .... ....
....|..|F#5 ...F ....|R-- .... ....|--- .... ....
....|..|--- .... ....|--- .... ....|--- .... ....
....|..|C#5 ...A ....|--- .... ....|A-4 ...A ....
....|..|--- .... ....|--- .... ....|--- .... ....
....|..|--- .... ....|B-3 ...A ....|G#4 ...F ....
....|..|R-- .... ....|--- .... ....|R-- .... ....
....|..|F#5 ...A ....|--- .... ....|R-- .... ....
....|..|--- .... ....|--- .... ....|R-- .... ....

[Pattern37]
....|..|F#5 ...F ....|--- .... ....|A-4 ...F ....
....|..|--- .... ....|--- .... ....|R-- .... ....
....|..|--- .... ....|--- .... ....|A-4 ...F ....
....|..|--- .... ....|--- .... ....|R-- .... ....
....|..|--- .... ....|--- .... ....|R-- .... ....
....|..|R-- .... ....|--- .... ....|--- .... ....
....|..|C#5 ...F ....|--- .... ....|R-- .... ....
....|..|--- .... ....|--- .... ....|--- .... ....
....|..|--- .... ....|--- .... ....|A-4 ...F ....
....|..|--- .... ....|--- .... ....|R-- .... ....
....|..|R-- .... ....|--- .... ....|A-4 ...F ....
....|..|--- .... ....|--- .... ....|R-- .... ....
....|..|F#5 ...F ....|--- .... ....|R-- .... ....
....|..|--- .... ....|--- .... ....|--- .... ....
....|..|--- .... ....|--- .... ....|A-4 ...F ....
....|..|R-- .... ....|--- .... ....|R-- .... ....
....|..|G#5 ...F ....|A-3 ...F ....|A-4 ...A ....
....|..|--- .... ....|--- .... ....|--- .... ....
....|..|F#5 ...A ....|--- .... ....|G#4 ...F ....
....|..|--- .... ....|--- .... ....|R-- .... ....
....|..|--- .... ....|--- .... ....|A-4 ...A ....
....|..|R-- .... ....|R-- .... ....|--- .... ....
....|..|C#5 ...F ....|B-3 ...F ....|G#4 ...F ....
....|..|--- .... ....|R-- .... ....|R-- .... ....
....|..|--- .... ....|--- .... ....|G#4 ...A ....
....|..|--- .... ....|--- .... ....|--- .... ....
....|..|--- .... ....|--- .... ....|--- .... ....
....|..|R-- .... ....|--- .... ....|--- .... ....
....|..|G#5 ...F ....|B-3 ...A ....|G#4 ...F ....
....|..|--- .... ....|--- .... ....|R-- .... ....
....|..|--- .... ....|--- .... ....|R-- .... ....
....|..|R-- .... ....|--- .... ....|R-- .... ....
....|..|A-5 ...F ....|--- .... ....|A-4 ...F ....
....|..|--- .... ....|--- .... ....|R-- .... ....
....|..|G#5 ...A ....|--- .... ....|A-4 ...F ....
....|..|--- .... ....|--- .... ....|R-- .... ....
....|..|--- .... ....|--- .... ....|R-- .... ....
....|..|--- .... ....|--- .... ....|--- .... ....
....|..|A-5 ...A ....|--- .... ....|R-- .... ....
....|..|R-- .... ....|--- .... ....|--- .... ....
....|..|F#5 ...F ....|--- .... ....|A-4 ...F ....
....|..|--- .... ....|--- .... ....|R-- .... ....
....|..|--- .... ....|--- .... ....|A-4 ...F ....
....|..|R-- .... ....|--- .... ....|R-- .... ....
....|..|G#5 ...F ....|--- .... ....|R-- .... ....
....|..|--- .... ....|--- .... ....|--- .... ....
....|..|F#5 ...A ....|--- .... ....|A-4 ...F ....
....|..|R-- .... ....|--- .... ....|R-- .... ....
....|..|A-5 ...F ....|A-3 ...F ....|A-4 ...A ....
....|..|--- .... ....|--- .... ....|--- .... ....
....|..|G#5 ...A ....|--- .... ....|G#4 ...F ....
....|..|R-- .... ....|--- .... ....|R-- .... ....
....|..|G#5 ...F ....|--- .... ....|G#4 ...F ....
....|..|--- .... ....|R-- .... ....|R-- .... ....
....|..|A-5 ...A ....|B-3 ...F ....|--- .... ....
....|..|R-- .... ....|--- .... ....|--- .... ....
....|..|F#5 ...F ....|R-- .... ....|G#4 ...A ....
....|..|--- .... ....|--- .... ....|--- .... ....
....|..|G#5 ...A ....|--- .... ....|G#4 ...A ....
....|..|R-- .... ....|--- .... ....|--- .... ....
....|..|E-5 ...F ....|B-3 ...A ....|G#4 ...F ....
....|..|--- .... ....|--- .... ....|R-- .... ....
....|..|F#5 ...A ....|--- .... ....|R-- .... ....
....|..|R-- .... ....|--- .... ....|R-- .... ....

[Pattern38]
....|..|F#5 ...F ....|--- .... ....|A-4 ...F ....
....|..|--- .... ....|--- .... ....|R-- .... ....
....|..|E-5 ...A ....|--- .... ....|A-4 ...F ....
....|..|--- .... ....|--- .... ....|R-- .... ....
....|..|--- .... ....|--- .... ....|R-- .... ....
....|..|R-- .... ....|--- .... ....|--- .... ....
....|..|C#5 ...F ....|--- .... ....|R-- .... ....
....|..|--- .... ....|--- .... ....|--- .... ....
....|..|--- .... ....|--- .... ....|A-4 ...F ....
....|..|--- .... ....|--- .... ....|R-- .... ....
....|..|R-- .... ....|--- .... ....|A-4 ...F ....
....|..|--- .... ....|--- .... ....|R-- .... ....
....|..|F#5 ...F ....|--- .... ....|R-- .... ....
....|..|--- .... ....|--- .... ....|--- .... ....
....|..|--- .... ....|--- .... ....|A-4 ...F ....
....|..|R-- .... ....|--- .... ....|R-- .... ....
....|..|G#5 ...F ....|A-3 ...F ....|A-4 ...A ....
....|..|--- .... ....|--- .... ....|--- .... ....
....|..|F#5 ...A ....|--- .... ....|G#4 ...F ....
....|..|--- .... ....|--- .... ....|R-- .... ....
....|..|--- .... ....|--- .... ....|A-4 ...A ....
....|..|R-- .... ....|R-- .... ....|--- .... ....
....|..|C#5 ...F ....|B-3 ...F ....|G#4 ...F ....
....|..|--- .... ....|--- .... ....|R-- .... ....
....|..|--- .... ....|R-- .... ....|G#4 ...A ....
....|..|--- .... ....|--- .... ....|--- .... ....
....|..|--- .... ....|--- .... ....|--- .... ....
....|..|R-- .... ....|--- .... ....|--- .... ....
....|..|G#5 ...F ....|B-3 ...A ....|G#4 ...F ....
....|..|--- .... ....|--- .... ....|R-- .... ....
....|..|--- .... ....|--- .... ....|R-- .... ....
....|..|R-- .... ....|--- .... ....|R-- .... ....
....|..|A-5 ...F ....|--- .... ....|A-4 ...F ....
....|..|--- .... ....|--- .... ....|R-- .... ....
....|..|G#5 ...A ....|--- .... ....|A-4 ...F ....
....|..|--- .... ....|--- .... ....|R-- .... ....
....|..|--- .... ....|--- .... ....|R-- .... ....
....|..|--- .... ....|--- .... ....|--- .... ....
....|..|A-5 ...A ....|--- .... ....|R-- .... ....
....|..|--- .... ....|--- .... ....|--- .... ....
....|..|--- .... ....|--- .... ....|A-4 ...F ....
....|..|R-- .... ....|--- .... ....|R-- .... ....
....|..|--- .... ....|--- .... ....|A-4 ...F ....
....|..|--- .... ....|--- .... ....|R-- .... ....
....|..|--- .... ....|--- .... ....|R-- .... ....
....|..|--- .... ....|--- .... ....|--- .... ....
....|..|--- .... ....|--- .... ....|A-4 ...F ....
....|..|--- .... ....|--- .... ....|R-- .... ....
....|..|A-5 ...F ....|A-3 ...F ....|A-4 ...A ....
....|..|--- .... ....|--- .... ....|--- .... ....
....|..|--- .... ....|--- .... ....|G#4 ...F ....
....|..|R-- .... ....|--- .... ....|R-- .... ....
....|..|G#5 ...F ....|--- .... ....|G#4 ...F ....
....|..|--- .... ....|R-- .... ....|R-- .... ....
....|..|A-5 ...A ....|B-3 ...F ....|--- .... ....
....|..|R-- .... ....|--- .... ....|--- .... ....
....|..|F#5 ...F ....|R-- .... ....|G#4 ...A ....
....|..|--- .... ....|--- .... ....|--- .... ....
....|..|G#5 ...A ....|--- .... ....|G#4 ...A ....
....|..|R-- .... ....|--- .... ....|--- .... ....
....|..|E-5 ...F ....|B-3 ...A ....|G#4 ...F ....
....|..|--- .... ....|--- .... ....|R-- .... ....
....|..|F#5 ...A ....|--- .... ....|R-- .... ....
....|..|R-- .... ....|--- .... ....|R-- .... ....

[Pattern39]
....|..|F#5 ...F ....|--- .... ....|A-4 ...F ....
....|..|--- .... ....|--- .... ....|R-- .... ....
....|..|E-5 ...A ....|--- .... ....|A-4 ...F ....
....|..|--- .... ....|--- .... ....|R-- .... ....
....|..|--- .... ....|--- .... ....|R-- .... ....
....|..|R-- .... ....|--- .... ....|--- .... ....
....|..|F#5 ...A ....|--- .... ....|R-- .... ....
....|..|--- .... ....|--- .... ....|R-- .... ....
....|..|F#5 ...F ....|--- .... ....|A-4 ...F ....
....|..|--- .... ....|--- .... ....|R-- .... ....
....|..|--- .... ....|--- .... ....|A-4 ...F ....
....|..|--- .... ....|--- .... ....|R-- .... ....
....|..|--- .... ....|--- .... ....|R-- .... ....
....|..|R-- .... ....|--- .... ....|--- .... ....
....|..|F#5 ...A ....|--- .... ....|A-4 ...F ....
....|..|--- .... ....|--- .... ....|R-- .... ....
....|..|A-5 ...F ....|A-3 ...F ....|A-4 ...A ....
....|..|--- .... ....|--- .... ....|--- .... ....
....|..|--- .... ....|--- .... ....|G#4 ...F ....
....|..|R-- .... ....|--- .... ....|R-- .... ....
....|..|G#5 ...F ....|--- .... ....|A-4 ...A ....
....|..|--- .... ....|R-- .... ....|--- .... ....
....|..|A-5 ...A ....|B-3 ...F ....|G#4 ...F ....
....|..|R-- .... ....|--- .... ....|R-- .... ....
....|..|F#5 ...F ....|R-- .... ....|G#4 ...A ....
....|..|--- .... ....|--- .... ....|--- .... ....
....|..|G#5 ...A ....|--- .... ....|--- .... ....
....|..|R-- .... ....|--- .... ....|--- .... ....
....|..|E-5 ...F ....|B-3 ...A ....|G#4 ...F ....
....|..|--- .... ....|--- .... ....|R-- .... ....
....|..|F#5 ...A ....|--- .... ....|R-- .... ....
....|..|R-- .... ....|--- .... ....|R-- .... ....
....|..|F#5 ...F ....|--- .... ....|A-4 ...F ....
....|..|--- .... ....|--- .... ....|R-- .... ....
....|..|E-5 ...A ....|--- .... ....|A-4 ...F ....
....|..|--- .... ....|--- .... ....|R-- .... ....
....|..|--- .... ....|--- .... ....|R-- .... ....
....|..|R-- .... ....|--- .... ....|--- .... ....
....|..|F#5 ...A ....|--- .... ....|R-- .... ....
....|..|--- .... ....|--- .... ....|R-- .... ....
....|..|F#5 ...F ....|--- .... ....|A-4 ...F ....
....|..|--- .... ....|--- .... ....|R-- .... ....
....|..|--- .... ....|--- .... ....|A-4 ...F ....
....|..|--- .... ....|--- .... ....|R-- .... ....
....|..|--- .... ....|--- .... ....|R-- .... ....
....|..|R-- .... ....|--- .... ....|--- .... ....
....|..|F#5 ...A ....|--- .... ....|A-4 ...F ....
....|..|--- .... ....|--- .... ....|R-- .... ....
....|..|A-5 ...F ....|A-3 ...F ....|A-4 ...A ....
....|..|--- .... ....|--- .... ....|--- .... ....
....|..|--- .... ....|--- .... ....|G#4 ...F ....
....|..|R-- .... ....|--- .... ....|R-- .... ....
....|..|G#5 ...F ....|--- .... ....|G#4 ...F ....
....|..|--- .... ....|R-- .... ....|R-- .... ....
....|..|A-5 ...A ....|B-3 ...F ....|--- .... ....
....|..|R-- .... ....|--- .... ....|--- .... ....
....|..|F#5 ...F ....|R-- .... ....|G#4 ...A ....
....|..|--- .... ....|--- .... ....|--- .... ....
....|..|G#5 ...A ....|--- .... ....|G#4 ...A ....
....|..|R-- .... ....|--- .... ....|--- .... ....
....|..|E-5 ...F ....|B-3 ...A ....|G#4 ...F ....
....|..|--- .... ....|--- .... ....|R-- .... ....
....|..|F#5 ...A ....|--- .... ....|R-- .... ....
....|..|R-- .... ....|--- .... ....|R-- .... ....

[Pattern40]
....|..|F#5 ...F ....|--- .... ....|A-4 ...F ....
....|..|--- .... ....|--- .... ....|R-- .... ....
....|..|E-5 ...A ....|--- .... ....|A-4 ...F ....
....|..|--- .... ....|--- .... ....|R-- .... ....
....|..|--- .... ....|--- .... ....|R-- .... ....
....|..|R-- .... ....|--- .... ....|--- .... ....
....|..|F#5 ...A ....|--- .... ....|R-- .... ....
....|..|--- .... ....|--- .... ....|R-- .... ....
....|..|F#5 ...F ....|--- .... ....|A-4 ...F ....
....|..|--- .... ....|--- .... ....|R-- .... ....
....|..|--- .... ....|--- .... ....|A-4 ...F ....
....|..|--- .... ....|--- .... ....|R-- .... ....
....|..|--- .... ....|--- .... ....|R-- .... ....
....|..|R-- .... ....|--- .... ....|--- .... ....
....|..|F#5 ...A ....|--- .... ....|A-4 ...F ....
....|..|--- .... ....|--- .... ....|R-- .... ....
....|..|A-5 ...F ....|A-3 ...F ....|A-4 ...A ....
....|..|--- .... ....|--- .... ....|--- .... ....
....|..|--- .... ....|--- .... ....|G#4 ...F ....
....|..|R-- .... ....|--- .... ....|R-- .... ....
....|..|G#5 ...F ....|--- .... ....|A-4 ...A ....
....|..|--- .... ....|R-- .... ....|--- .... ....
....|..|A-5 ...A ....|B-3 ...F ....|G#4 ...F ....
....|..|R-- .... ....|--- .... ....|R-- .... ....
....|..|F#5 ...F ....|R-- .... ....|G#4 ...A ....
....|..|--- .... ....|--- .... ....|--- .... ....
....|..|G#5 ...A ....|--- .... ....|--- .... ....
....|..|R-- .... ....|--- .... ....|--- .... ....
....|..|E-5 ...F ....|B-3 ...A ....|G#4 ...F ....
....|..|--- .... ....|--- .... ....|R-- .... ....
....|..|F#5 ...A ....|--- .... ....|R-- .... ....
....|..|R-- .... ....|--- .... ....|R-- .... ....
....|..|A-5 ...F ....|--- .... ....|A-4 ...F ....
....|..|--- .... ....|--- .... ....|R-- .... ....
....|..|E-5 ...A ....|--- .... ....|A-4 ...F ....
....|..|R-- .... ....|--- .... ....|R-- .... ....
....|..|G#5 ...F ....|--- .... ....|R-- .... ....
....|..|--- .... ....|--- .... ....|--- .... ....
....|..|A-5 ...A ....|--- .... ....|R-- .... ....
....|..|R-- .... ....|--- .... ....|R-- .... ....
....|..|F#5 ...F ....|--- .... ....|A-4 ...F ....
....|..|--- .... ....|--- .... ....|R-- .... ....
....|..|G#5 ...A ....|--- .... ....|A-4 ...F ....
....|..|R-- .... ....|--- .... ....|R-- .... ....
....|..|E-5 ...F ....|--- .... ....|R-- .... ....
....|..|--- .... ....|--- .... ....|--- .... ....
....|..|F#5 ...A ....|--- .... ....|A-4 ...F ....
....|..|R-- .... ....|--- .... ....|R-- .... ....
....|..|F#5 ...F ....|A-3 ...F ....|A-4 ...A ....
....|..|--- .... ....|--- .... ....|--- .... ....
....|..|E-5 ...A ....|--- .... ....|G#4 ...F ....
....|..|--- .... ....|--- .... ....|R-- .... ....
....|..|--- .... ....|--- .... ....|G#4 ...F ....
....|..|R-- .... ....|R-- .... ....|R-- .... ....
....|..|F#5 ...A ....|B-3 ...F ....|--- .... ....
....|..|--- .... ....|--- .... ....|--- .... ....
....|..|F#5 ...F ....|R-- .... ....|G#4 ...A ....
....|..|--- .... ....|--- .... ....|--- .... ....
....|..|--- .... ....|--- .... ....|G#4 ...A ....
....|..|--- .... ....|--- .... ....|--- .... ....
....|..|--- .... ....|B-3 ...A ....|G#4 ...F ....
....|..|R-- .... ....|--- .... ....|R-- .... ....
....|..|F#5 ...A ....|--- .... ....|R-- .... ....
....|..|--- .... ....|--- .... ....|R-- .... ....

[Pattern41]
....|..|F#5 ...F ....|--- .... ....|A-4 ...F ....
....|..|--- .... ....|--- .... ....|R-- .... ....
....|..|--- .... ....|--- .... ....|A-4 ...F ....
....|..|--- .... ....|--- .... ....|R-- .... ....
....|..|--- .... ....|--- .... ....|R-- .... ....
....|..|R-- .... ....|--- .... ....|--- .... ....
....|..|C#5 ...F ....|--- .... ....|R-- .... ....
....|..|--- .... ....|--- .... ....|--- .... ....
....|..|--- .... ....|--- .... ....|A-4 ...F ....
....|..|--- .... ....|--- .... ....|R-- .... ....
....|..|R-- .... ....|--- .... ....|A-4 ...F ....
....|..|--- .... ....|--- .... ....|R-- .... ....
....|..|F#5 ...F ....|--- .... ....|R-- .... ....
....|..|--- .... ....|--- .... ....|--- .... ....
....|..|--- .... ....|--- .... ....|A-4 ...F ....
....|..|R-- .... ....|--- .... ....|R-- .... ....
....|..|G#5 ...F ....|A-3 ...F ....|A-4 ...A ....
....|..|--- .... ....|--- .... ....|--- .... ....
....|..|F#5 ...A ....|--- .... ....|G#4 ...F ....
....|..|--- .... ....|--- .... ....|R-- .... ....
....|..|--- .... ....|--- .... ....|A-4 ...A ....
....|..|R-- .... ....|R-- .... ....|--- .... ....
....|..|C#5 ...F ....|B-3 ...F ....|G#4 ...F ....
....|..|--- .... ....|R-- .... ....|R-- .... ....
....|..|--- .... ....|--- .... ....|G#4 ...A ....
....|..|--- .... ....|--- .... ....|--- .... ....
....|..|--- .... ....|--- .... ....|--- .... ....
....|..|R-- .... ....|--- .... ....|--- .... ....
....|..|G#5 ...F ....|B-3 ...A ....|G#4 ...F ....
....|..|--- .... ....|--- .... ....|R-- .... ....
....|..|--- .... ....|--- .... ....|R-- .... ....
....|..|R-- .... ....|--- .... ....|R-- .... ....
....|..|A-5 ...F ....|--- .... ....|A-4 ...F ....
....|..|--- .... ....|--- .... ....|R-- .... ....
....|..|G#5 ...A ....|--- .... ....|A-4 ...F ....
....|..|--- .... ....|--- .... ....|R-- .... ....
....|..|--- .... ....|--- .... ....|R-- .... ....
....|..|--- .... ....|--- .... ....|--- .... ....
....|..|A-5 ...A ....|--- .... ....|R-- .... ....
....|..|R-- .... ....|--- .... ....|--- .... ....
....|..|F#5 ...F ....|--- .... ....|A-4 ...F ....
....|..|--- .... ....|--- .... ....|R-- .... ....
....|..|--- .... ....|--- .... ....|A-4 ...F ....
....|..|R-- .... ....|--- .... ....|R-- .... ....
....|..|G#5 ...F ....|--- .... ....|R-- .... ....
....|..|--- .... ....|--- .... ....|--- .... ....
....|..|F#5 ...A ....|--- .... ....|A-4 ...F ....
....|..|R-- .... ....|--- .... ....|R-- .... ....
....|..|A-5 ...F ....|A-3 ...F ....|A-4 ...A ....
....|..|--- .... ....|--- .... ....|--- .... ....
....|..|G#5 ...A ....|--- .... ....|G#4 ...F ....
....|..|R-- .... ....|--- .... ....|R-- .... ....
....|..|G#5 ...F ....|--- .... ....|G#4 ...F ....
....|..|--- .... ....|R-- .... ....|R-- .... ....
....|..|A-5 ...A ....|B-3 ...F ....|--- .... ....
....|..|R-- .... ....|--- .... ....|--- .... ....
....|..|F#5 ...F ....|R-- .... ....|G#4 ...A ....
....|..|--- .... ....|--- .... ....|--- .... ....
....|..|G#5 ...A ....|--- .... ....|G#4 ...A ....
....|..|R-- .... ....|--- .... ....|--- .... ....
....|..|E-5 ...F ....|B-3 ...A ....|G#4 ...F ....
....|..|--- .... ....|--- .... ....|R-- .... ....
....|..|F#5 ...A ....|--- .... ....|R-- .... ....
....|..|R-- .... ....|--- .... ....|R-- .... ....

[Pattern42]
....|..|F#5 ...F ....|--- .... ....|A-4 ...F ....
....|..|--- .... ....|--- .... ....|R-- .... ....
....|..|E-5 ...A ....|--- .... ....|A-4 ...F ....
....|..|--- .... ....|--- .... ....|R-- .... ....
....|..|--- .... ....|--- .... ....|R-- .... ....
....|..|R-- .... ....|--- .... ....|--- .... ....
....|..|C#5 ...F ....|--- .... ....|R-- .... ....
....|..|--- .... ....|--- .... ....|--- .... ....
....|..|--- .... ....|--- .... ....|A-4 ...F ....
....|..|--- .... ....|--- .... ....|R-- .... ....
....|..|R-- .... ....|--- .... ....|A-4 ...F ....
....|..|--- .... ....|--- .... ....|R-- .... ....
....|..|F#5 ...F ....|--- .... ....|R-- .... ....
....|..|--- .... ....|--- .... ....|--- .... ....
....|..|--- .... ....|--- .... ....|A-4 ...F ....
....|..|R-- .... ....|--- .... ....|R-- .... ....
....|..|G#5 ...F ....|A-3 ...F ....|A-4 ...A ....
....|..|--- .... ....|--- .... ....|--- .... ....
....|..|F#5 ...A ....|--- .... ....|G#4 ...F ....
....|..|--- .... ....|--- .... ....|R-- .... ....
....|..|--- .... ....|--- .... ....|A-4 ...A ....
....|..|R-- .... ....|R-- .... ....|--- .... ....
....|..|C#5 ...F ....|B-3 ...F ....|G#4 ...F ....
....|..|--- .... ....|--- .... ....|R-- .... ....
....|..|--- .... ....|R-- .... ....|G#4 ...A ....
....|..|--- .... ....|--- .... ....|--- .... ....
....|..|--- .... ....|--- .... ....|--- .... ....
....|..|R-- .... ....|--- .... ....|--- .... ....
....|..|G#5 ...F ....|B-3 ...A ....|G#4 ...F ....
....|..|--- .... ....|--- .... ....|R-- .... ....
....|..|--- .... ....|--- .... ....|R-- .... ....
....|..|R-- .... ....|--- .... ....|R-- .... ....
....|..|A-5 ...F ....|--- .... ....|A-4 ...F ....
....|..|--- .... ....|--- .... ....|R-- .... ....
....|..|G#5 ...A ....|--- .... ....|A-4 ...F ....
....|..|--- .... ....|--- .... ....|R-- .... ....
....|..|--- .... ....|--- .... ....|R-- .... ....
....|..|--- .... ....|--- .... ....|--- .... ....
....|..|A-5 ...A ....|--- .... ....|R-- .... ....
....|..|--- .... ....|--- .... ....|--- .... ....
....|..|--- .... ....|--- .... ....|A-4 ...F ....
....|..|R-- .... ....|--- .... ....|R-- .... ....
....|..|--- .... ....|--- .... ....|A-4 ...F ....
....|..|--- .... ....|--- .... ....|R-- .... ....
....|..|--- .... ....|--- .... ....|R-- .... ....
....|..|--- .... ....|--- .... ....|--- .... ....
....|..|--- .... ....|--- .... ....|A-4 ...F ....
....|..|--- .... ....|--- .... ....|R-- .... ....
....|..|A-5 ...F ....|A-3 ...F ....|A-4 ...A ....
....|..|--- .... ....|--- .... ....|--- .... ....
....|..|--- .... ....|--- .... ....|G#4 ...F ....
....|..|R-- .... ....|--- .... ....|R-- .... ....
....|..|G#5 ...F ....|--- .... ....|G#4 ...F ....
....|..|--- .... ....|R-- .... ....|R-- .... ....
....|..|A-5 ...A ....|B-3 ...F ....|--- .... ....
....|..|R-- .... ....|--- .... ....|--- .... ....
....|..|F#5 ...F ....|R-- .... ....|G#4 ...A ....
....|..|--- .... ....|--- .... ....|--- .... ....
....|..|G#5 ...A ....|--- .... ....|G#4 ...A ....
....|..|R-- .... ....|--- .... ....|--- .... ....
....|..|E-5 ...F ....|B-3 ...A ....|G#4 ...F ....
....|..|--- .... ....|--- .... ....|R-- .... ....
....|..|F#5 ...A ....|--- .... ....|R-- .... ....
....|..|R-- .... ....|--- .... ....|R-- .... ....

[Pattern43]
....|..|F#5 ...F ....|--- .... ....|A-4 ...F ....
....|..|--- .... ....|--- .... ....|R-- .... ....
....|..|E-5 ...A ....|--- .... ....|A-4 ...F ....
....|..|--- .... ....|--- .... ....|R-- .... ....
....|..|--- .... ....|--- .... ....|R-- .... ....
....|..|R-- .... ....|--- .... ....|--- .... ....
....|..|F#5 ...A ....|--- .... ....|R-- .... ....
....|..|--- .... ....|--- .... ....|R-- .... ....
....|..|F#5 ...F ....|--- .... ....|A-4 ...F ....
....|..|--- .... ....|--- .... ....|R-- .... ....
....|..|--- .... ....|--- .... ....|A-4 ...F ....
....|..|--- .... ....|--- .... ....|R-- .... ....
....|..|--- .... ....|--- .... ....|R-- .... ....
....|..|R-- .... ....|--- .... ....|--- .... ....
....|..|F#5 ...A ....|--- .... ....|A-4 ...F ....
....|..|--- .... ....|--- .... ....|R-- .... ....
....|..|A-5 ...F ....|A-3 ...F ....|A-4 ...A ....
....|..|--- .... ....|--- .... ....|--- .... ....
....|..|--- .... ....|--- .... ....|G#4 ...F ....
....|..|R-- .... ....|--- .... ....|R-- .... ....
....|..|G#5 ...F ....|--- .... ....|A-4 ...A ....
....|..|--- .... ....|R-- .... ....|--- .... ....
....|..|A-5 ...A ....|B-3 ...F ....|G#4 ...F ....
....|..|R-- .... ....|--- .... ....|R-- .... ....
....|..|F#5 ...F ....|R-- .... ....|G#4 ...A ....
....|..|--- .... ....|--- .... ....|--- .... ....
....|..|G#5 ...A ....|--- .... ....|--- .... ....
....|..|R-- .... ....|--- .... ....|--- .... ....
....|..|E-5 ...F ....|B-3 ...A ....|G#4 ...F ....
....|..|--- .... ....|--- .... ....|R-- .... ....
....|..|F#5 ...A ....|--- .... ....|R-- .... ....
....|..|R-- .... ....|--- .... ....|R-- .... ....
....|..|F#5 ...F ....|--- .... ....|A-4 ...F ....
....|..|--- .... ....|--- .... ....|R-- .... ....
....|..|E-5 ...A ....|--- .... ....|A-4 ...F ....
....|..|--- .... ....|--- .... ....|R-- .... ....
....|..|--- .... ....|--- .... ....|R-- .... ....
....|..|R-- .... ....|--- .... ....|--- .... ....
....|..|F#5 ...A ....|--- .... ....|R-- .... ....
....|..|--- .... ....|--- .... ....|R-- .... ....
....|..|F#5 ...F ....|--- .... ....|A-4 ...F ....
....|..|--- .... ....|--- .... ....|R-- .... ....
....|..|--- .... ....|--- .... ....|A-4 ...F ....
....|..|--- .... ....|--- .... ....|R-- .... ....
....|..|--- .... ....|--- .... ....|R-- .... ....
....|..|R-- .... ....|--- .... ....|--- .... ....
....|..|F#5 ...A ....|--- .... ....|A-4 ...F ....
....|..|--- .... ....|--- .... ....|R-- .... ....
....|..|A-5 ...F ....|A-3 ...F ....|A-4 ...A ....
....|..|--- .... ....|--- .... ....|--- .... ....
....|..|--- .... ....|--- .... ....|G#4 ...F ....
....|..|R-- .... ....|--- .... ....|R-- .... ....
....|..|G#5 ...F ....|--- .... ....|G#4 ...F ....
....|..|--- .... ....|R-- .... ....|R-- .... ....
....|..|A-5 ...A ....|B-3 ...F ....|--- .... ....
....|..|R-- .... ....|--- .... ....|--- .... ....
....|..|F#5 ...F ....|R-- .... ....|G#4 ...A ....
....|..|--- .... ....|--- .... ....|--- .... ....
....|..|G#5 ...A ....|--- .... ....|G#4 ...A ....
....|..|R-- .... ....|--- .... ....|--- .... ....
....|..|E-5 ...F ....|B-3 ...A ....|G#4 ...F ....
....|..|--- .... ....|--- .... ....|R-- .... ....
....|..|F#5 ...A ....|--- .... ....|R-- .... ....
....|..|R-- .... ....|--- .... ....|R-- .... ....

[Pattern44]
....|..|F#5 ...F ....|--- .... ....|A-4 ...F ....
....|..|--- .... ....|--- .... ....|R-- .... ....
....|..|E-5 ...A ....|--- .... ....|A-4 ...F ....
....|..|--- .... ....|--- .... ....|R-- .... ....
....|..|--- .... ....|--- .... ....|R-- .... ....
....|..|R-- .... ....|--- .... ....|--- .... ....
....|..|F#5 ...A ....|--- .... ....|R-- .... ....
....|..|--- .... ....|--- .... ....|R-- .... ....
....|..|F#5 ...F ....|--- .... ....|A-4 ...F ....
....|..|--- .... ....|--- .... ....|R-- .... ....
....|..|--- .... ....|--- .... ....|A-4 ...F ....
....|..|--- .... ....|--- .... ....|R-- .... ....
....|..|--- .... ....|--- .... ....|R-- .... ....
....|..|R-- .... ....|--- .... ....|--- .... ....
....|..|F#5 ...A ....|--- .... ....|A-4 ...F ....
....|..|--- .... ....|--- .... ....|R-- .... ....
....|..|A-5 ...F ....|A-3 ...F ....|A-4 ...A ....
....|..|--- .... ....|--- .... ....|--- .... ....
....|..|--- .... ....|--- .... ....|G#4 ...F ....
....|..|R-- .... ....|--- .... ....|R-- .... ....
....|..|G#5 ...F ....|--- .... ....|A-4 ...A ....
....|..|--- .... ....|R-- .... ....|--- .... ....
....|..|A-5 ...A ....|B-3 ...F ....|G#4 ...F ....
....|..|R-- .... ....|--- .... ....|R-- .... ....
....|..|F#5 ...F ....|R-- .... ....|G#4 ...A ....
....|..|--- .... ....|--- .... ....|--- .... ....
....|..|G#5 ...A ....|--- .... ....|--- .... ....
....|..|R-- .... ....|--- .... ....|--- .... ....
....|..|E-5 ...F ....|B-3 ...A ....|G#4 ...F ....
....|..|--- .... ....|--- .... ....|R-- .... ....
....|..|F#5 ...A ....|--- .... ....|R-- .... ....
....|..|R-- .... ....|--- .... ....|R-- .... ....
....|..|A-5 ...F ....|--- .... ....|A-4 ...F ....
....|..|--- .... ....|--- .... ....|R-- .... ....
....|..|E-5 ...A ....|--- .... ....|A-4 ...F ....
....|..|R-- .... ....|--- .... ....|R-- .... ....
....|..|G#5 ...F ....|--- .... ....|R-- .... ....
....|..|--- .... ....|--- .... ....|--- .... ....
....|..|A-5 ...A ....|--- .... ....|R-- .... ....
....|..|R-- .... ....|--- .... ....|R-- .... ....
....|..|F#5 ...F ....|--- .... ....|A-4 ...F ....
....|..|--- .... ....|--- .... ....|R-- .... ....
....|..|G#5 ...A ....|--- .... ....|A-4 ...F ....
....|..|R-- .... ....|--- .... ....|R-- .... ....
....|..|E-5 ...F ....|--- .... ....|R-- .... ....
....|..|--- .... ....|--- .... ....|--- .... ....
....|..|F#5 ...A ....|--- .... ....|A-4 ...F ....
....|..|R-- .... ....|--- .... ....|R-- .... ....
....|..|A-5 ...F ....|A-3 ...F ....|A-4 ...A ....
....|..|--- .... ....|--- .... ....|--- .... ....
....|..|E-5 ...A ....|--- .... ....|G#4 ...F ....
....|..|R-- .... ....|--- .... ....|R-- .... ....
....|..|G#5 ...F ....|--- .... ....|G#4 ...F ....
....|..|--- .... ....|R-- .... ....|R-- .... ....
....|..|A-5 ...A ....|B-3 ...F ....|--- .... ....
....|..|R-- .... ....|--- .... ....|--- .... ....
....|..|F#5 ...F ....|R-- .... ....|G#4 ...A ....
....|..|--- .... ....|--- .... ....|--- .... ....
....|..|G#5 ...A ....|--- .... ....|G#4 ...A ....
....|..|R-- .... ....|--- .... ....|--- .... ....
....|..|E-5 ...F ....|B-3 ...A ....|G#4 ...F ....
....|..|--- .... ....|--- .... ....|R-- .... ....
....|..|F#5 ...A ....|--- .... ....|R-- .... ....
....|..|R-- .... ....|--- .... ....|R-- .... ....

[Pattern45]
....|..|F#5 ...F ....|--- .... ....|A-4 ...F ....
....|..|--- .... ....|--- .... ....|R-- .... ....
....|..|E-5 ...A ....|--- .... ....|A-4 ...F ....
....|..|--- .... ....|--- .... ....|R-- .... ....
....|..|--- .... ....|--- .... ....|R-- .... ....
....|..|R-- .... ....|--- .... ....|--- .... ....
....|..|F#5 ...A ....|--- .... ....|R-- .... ....
....|..|--- .... ....|--- .... ....|--- .... ....
....|..|F#5 ...F ....|--- .... ....|A-4 ...F ....
....|..|--- .... ....|--- .... ....|R-- .... ....
....|..|--- .... ....|--- .... ....|A-4 ...F ....
....|..|--- .... ....|--- .... ....|R-- .... ....
....|..|--- .... ....|F#5 ...F ....|R-- .... ....
....|..|R-- .... ....|--- .... ....|--- .... ....
....|..|F#5 ...A ....|--- .... ....|A-4 ...F ....
....|..|--- .... ....|--- .... ....|R-- .... ....
....|..|--- .... ....|A-3 ...F ....|A-4 ...A ....
....|..|--- .... ....|--- .... ....|--- .... ....
....|..|--- .... ....|F#5 ...A ....|G#4 ...F ....
....|..|--- .... ....|--- .... ....|R-- .... ....
....|..|--- .... ....|D-5 ...F ....|A-4 ...A ....
....|..|--- .... ....|R-- .... ....|--- .... ....
....|..|--- .... ....|B-3 ...F ....|G#4 ...F ....
....|..|--- .... ....|R-- .... ....|R-- .... ....
....|..|--- .... ....|--- .... ....|G#4 ...A ....
....|..|--- .... ....|--- .... ....|--- .... ....
....|..|--- .... ....|D-5 ...A ....|--- .... ....
....|..|--- .... ....|--- .... ....|--- .... ....
....|..|--- .... ....|D-6 ...F ....|G#4 ...F ....
....|..|--- .... ....|--- .... ....|R-- .... ....
....|..|--- .... ....|--- .... ....|R-- .... ....
....|..|--- .... ....|--- .... ....|R-- .... ....
....|..|--- .... ....|--- .... ....|A-4 ...F ....
....|..|--- .... ....|--- .... ....|R-- .... ....
....|..|--- .... ....|D-6 ...A ....|A-4 ...F ....
....|..|--- .... ....|--- .... ....|R-- .... ....
....|..|--- .... ....|--- .... ....|R-- .... ....
....|..|--- .... ....|--- .... ....|--- .... ....
....|..|--- .... ....|--- .... ....|R-- .... ....
....|..|--- .... ....|--- .... ....|--- .... ....
....|..|--- .... ....|--- .... ....|A-4 ...F ....
....|..|--- .... ....|--- .... ....|R-- .... ....
....|..|--- .... ....|--- .... ....|A-4 ...F ....
....|..|--- .... ....|--- .... ....|R-- .... ....
....|..|--- .... ....|A-5 ...F ....|R-- .... ....
....|..|--- .... ....|--- .... ....|--- .... ....
....|..|--- .... ....|--- .... ....|A-4 ...F ....
....|..|--- .... ....|--- .... ....|R-- .... ....
....|..|--- .... ....|A-3 ...F ....|A-4 ...A ....
....|..|--- .... ....|--- .... ....|--- .... ....
....|..|--- .... ....|A-5 ...A ....|G#4 ...F ....
....|..|--- .... ....|--- .... ....|R-- .... ....
....|..|--- .... ....|F#5 ...F ....|G#4 ...F ....
....|..|--- .... ....|R-- .... ....|R-- .... ....
....|..|--- .... ....|B-3 ...F ....|--- .... ....
....|..|--- .... ....|--- .... ....|--- .... ....
....|..|--- .... ....|R-- .... ....|G#4 ...A ....
....|..|--- .... ....|--- .... ....|--- .... ....
....|..|--- .... ....|F#5 ...A ....|G#4 ...A ....
....|..|--- .... ....|--- .... ....|--- .... ....
....|..|--- .... ....|B-3 ...A ....|G#4 ...F ....
....|..|--- .... ....|--- .... ....|R-- .... ....
....|..|--- .... ....|--- .... ....|R-- .... ....
....|..|--- .... ....|--- .... ....|R-- .... ....

[Pattern46]
....|..|--- .... ....|--- .... ....|A-4 ...F ....
....|..|--- .... ....|--- .... ....|R-- .... ....
....|..|--- .... ....|--- .... ....|A-4 ...F ....
....|..|--- .... ....|--- .... ....|R-- .... ....
....|..|--- .... ....|D-6 ...F ....|R-- .... ....
....|..|--- .... ....|--- .... ....|--- .... ....
....|..|--- .... ....|--- .... ....|R-- .... ....
....|..|--- .... ....|--- .... ....|--- .... ....
....|..|--- .... ....|--- .... ....|A-4 ...F ....
....|..|--- .... ....|--- .... ....|R-- .... ....
....|..|--- .... ....|D-6 ...A ....|A-4 ...F ....
....|..|--- .... ....|--- .... ....|R-- .... ....
....|..|--- .... ....|D-5 ...F ....|R-- .... ....
....|..|--- .... ....|--- .... ....|--- .... ....
....|..|--- .... ....|--- .... ....|A-4 ...F ....
....|..|--- .... ....|--- .... ....|R-- .... ....
....|..|--- .... ....|A-3 ...F ....|A-4 ...A ....
....|..|--- .... ....|--- .... ....|--- .... ....
....|..|--- .... ....|D-5 ...A ....|G#4 ...F ....
....|..|--- .... ....|--- .... ....|R-- .... ....
....|..|--- .... ....|F#5 ...F ....|A-4 ...A ....
....|..|--- .... ....|R-- .... ....|--- .... ....
....|..|--- .... ....|B-3 ...F ....|G#4 ...F ....
....|..|--- .... ....|--- .... ....|R-- .... ....
....|..|--- .... ....|R-- .... ....|G#4 ...A ....
....|..|--- .... ....|--- .... ....|--- .... ....
....|..|--- .... ....|F#5 ...A ....|--- .... ....
....|..|--- .... ....|--- .... ....|--- .... ....
....|..|--- .... ....|B-3 ...A ....|G#4 ...F ....
....|..|--- .... ....|--- .... ....|R-- .... ....
....|..|--- .... ....|--- .... ....|R-- .... ....
....|..|--- .... ....|--- .... ....|R-- .... ....
....|..|--- .... ....|--- .... ....|A-4 ...F ....
....|..|--- .... ....|--- .... ....|R-- .... ....
....|..|--- .... ....|--- .... ....|A-4 ...F ....
....|..|--- .... ....|--- .... ....|R-- .... ....
....|..|--- .... ....|F#6 ...F ....|R-- .... ....
....|..|--- .... ....|--- .... ....|--- .... ....
....|..|--- .... ....|--- .... ....|R-- .... ....
....|..|--- .... ....|--- .... ....|--- .... ....
....|..|--- .... ....|--- .... ....|A-4 ...F ....
....|..|--- .... ....|--- .... ....|R-- .... ....
....|..|--- .... ....|F#6 ...A ....|A-4 ...F ....
....|..|--- .... ....|--- .... ....|R-- .... ....
....|..|--- .... ....|D-5 ...F ....|R-- .... ....
....|..|--- .... ....|--- .... ....|--- .... ....
....|..|--- .... ....|--- .... ....|A-4 ...F ....
....|..|--- .... ....|--- .... ....|R-- .... ....
....|..|--- .... ....|A-3 ...F ....|A-4 ...A ....
....|..|--- .... ....|--- .... ....|--- .... ....
....|..|--- .... ....|D-5 ...A ....|G#4 ...F ....
....|..|--- .... ....|--- .... ....|R-- .... ....
....|..|--- .... ....|F#5 ...F ....|G#4 ...F ....
....|..|--- .... ....|R-- .... ....|R-- .... ....
....|..|--- .... ....|B-3 ...F ....|--- .... ....
....|..|--- .... ....|--- .... ....|--- .... ....
....|..|--- .... ....|R-- .... ....|G#4 ...A ....
....|..|--- .... ....|--- .... ....|--- .... ....
....|..|--- .... ....|F#5 ...A ....|G#4 ...A ....
....|..|--- .... ....|--- .... ....|--- .... ....
....|..|--- .... ....|B-3 ...A ....|G#4 ...F ....
....|..|--- .... ....|--- .... ....|R-- .... ....
....|..|--- .... ....|--- .... ....|R-- .... ....
....|..|--- .... ....|--- .... ....|R-- .... ....

[Pattern47]
....|..|--- .... ....|--- .... ....|A-4 ...F ....
....|..|--- .... ....|--- .... ....|R-- .... ....
....|..|--- .... ....|--- .... ....|A-4 ...F ....
....|..|--- .... ....|--- .... ....|R-- .... ....
....|..|--- .... ....|--- .... ....|R-- .... ....
....|..|--- .... ....|--- .... ....|--- .... ....
....|..|--- .... ....|--- .... ....|R-- .... ....
....|..|--- .... ....|--- .... ....|R-- .... ....
....|..|--- .... ....|--- .... ....|A-4 ...F ....
....|..|--- .... ....|--- .... ....|R-- .... ....
....|..|--- .... ....|--- .... ....|A-4 ...F ....
....|..|--- .... ....|--- .... ....|R-- .... ....
....|..|--- .... ....|--- .... ....|R-- .... ....
....|..|--- .... ....|--- .... ....|--- .... ....
....|..|--- .... ....|--- .... ....|A-4 ...F ....
....|..|--- .... ....|--- .... ....|R-- .... ....
....|..|--- .... ....|A-3 ...F ....|A-4 ...A ....
....|..|--- .... ....|--- .... ....|--- .... ....
....|..|--- .... ....|--- .... ....|G#4 ...F ....
....|..|--- .... ....|--- .... ....|R-- .... ....
....|..|--- .... ....|--- .... ....|A-4 ...A ....
....|..|--- .... ....|R-- .... ....|--- .... ....
....|..|--- .... ....|B-3 ...F ....|G#4 ...F ....
....|..|--- .... ....|--- .... ....|R-- .... ....
....|..|--- .... ....|R-- .... ....|G#4 ...A ....
....|..|--- .... ....|--- .... ....|--- .... ....
....|..|--- .... ....|--- .... ....|--- .... ....
....|..|--- .... ....|--- .... ....|--- .... ....
....|..|--- .... ....|B-3 ...A ....|G#4 ...F ....
....|..|--- .... ....|--- .... ....|R-- .... ....
....|..|--- .... ....|--- .... ....|R-- .... ....
....|..|--- .... ....|--- .... ....|R-- .... ....
....|..|--- .... ....|--- .... ....|A-4 ...F ....
....|..|--- .... ....|--- .... ....|R-- .... ....
....|..|--- .... ....|--- .... ....|A-4 ...F ....
....|..|--- .... ....|--- .... ....|R-- .... ....
....|..|--- .... ....|C#6 ...F ....|R-- .... ....
....|..|--- .... ....|--- .... ....|--- .... ....
....|..|--- .... ....|--- .... ....|R-- .... ....
....|..|--- .... ....|--- .... ....|R-- .... ....
....|..|--- .... ....|--- .... ....|A-4 ...F ....
....|..|--- .... ....|--- .... ....|R-- .... ....
....|..|--- .... ....|C#6 ...A ....|A-4 ...F ....
....|..|--- .... ....|--- .... ....|R-- .... ....
....|..|--- .... ....|F#6 ...F ....|R-- .... ....
....|..|--- .... ....|--- .... ....|--- .... ....
....|..|--- .... ....|--- .... ....|A-4 ...F ....
....|..|--- .... ....|--- .... ....|R-- .... ....
....|..|--- .... ....|A-3 ...F ....|A-4 ...A ....
....|..|--- .... ....|--- .... ....|--- .... ....
....|..|--- .... ....|F#6 ...A ....|G#4 ...F ....
....|..|--- .... ....|--- .... ....|R-- .... ....
....|..|--- .... ....|A-5 ...F ....|G#4 ...F ....
....|..|--- .... ....|R-- .... ....|R-- .... ....
....|..|--- .... ....|B-3 ...F ....|--- .... ....
....|..|--- .... ....|--- .... ....|--- .... ....
....|..|--- .... ....|R-- .... ....|G#4 ...A ....
....|..|--- .... ....|--- .... ....|--- .... ....
....|..|--- .... ....|A-5 ...A ....|G#4 ...A ....
....|..|--- .... ....|--- .... ....|--- .... ....
....|..|--- .... ....|B-3 ...A ....|G#4 ...F ....
....|..|--- .... ....|--- .... ....|R-- .... ....
....|..|--- .... ....|--- .... ....|R-- .... ....
....|..|--- .... ....|--- .... ....|R-- .... ....

[Pattern48]
....|..|--- .... ....|--- .... ....|A-4 ...F ....
....|..|--- .... ....|--- .... ....|R-- .... ....
....|..|--- .... ....|--- .... ....|A-4 ...F ....
....|..|--- .... ....|--- .... ....|R-- .... ....
....|..|--- .... ....|C#6 ...F ....|R-- .... ....
....|..|--- .... ....|--- .... ....|--- .... ....
....|..|--- .... ....|--- .... ....|R-- .... ....
....|..|--- .... ....|--- .... ....|R-- .... ....
....|..|--- .... ....|--- .... ....|A-4 ...F ....
....|..|--- .... ....|--- .... ....|R-- .... ....
....|..|--- .... ....|C#6 ...A ....|A-4 ...F ....
....|..|--- .... ....|--- .... ....|R-- .... ....
....|..|--- .... ....|A-6 ...F ....|R-- .... ....
....|..|--- .... ....|--- .... ....|--- .... ....
....|..|--- .... ....|--- .... ....|A-4 ...F ....
....|..|--- .... ....|--- .... ....|R-- .... ....
....|..|--- .... ....|A-3 ...F ....|A-4 ...A ....
....|..|--- .... ....|--- .... ....|--- .... ....
....|..|--- .... ....|A-6 ...A ....|G#4 ...F ....
....|..|--- .... ....|--- .... ....|R-- .... ....
....|..|--- .... ....|--- .... ....|A-4 ...A ....
....|..|--- .... ....|R-- .... ....|--- .... ....
....|..|--- .... ....|B-3 ...F ....|G#4 ...F ....
....|..|--- .... ....|--- .... ....|R-- .... ....
....|..|--- .... ....|R-- .... ....|G#4 ...A ....
....|..|--- .... ....|--- .... ....|--- .... ....
....|..|--- .... ....|--- .... ....|--- .... ....
....|..|--- .... ....|--- .... ....|--- .... ....
....|..|--- .... ....|F#6 ...F ....|G#4 ...F ....
....|..|--- .... ....|--- .... ....|R-- .... ....
....|..|--- .... ....|--- .... ....|R-- .... ....
....|..|--- .... ....|--- .... ....|R-- .... ....
....|..|--- .... ....|--- .... ....|A-4 ...F ....
....|..|--- .... ....|--- .... ....|R-- .... ....
....|..|--- .... ....|F#6 ...A ....|A-4 ...F ....
....|..|--- .... ....|--- .... ....|R-- .... ....
....|..|--- .... ....|C#6 ...F ....|R-- .... ....
....|..|--- .... ....|--- .... ....|--- .... ....
....|..|--- .... ....|--- .... ....|R-- .... ....
....|..|--- .... ....|--- .... ....|R-- .... ....
....|..|--- .... ....|--- .... ....|A-4 ...F ....
....|..|--- .... ....|--- .... ....|R-- .... ....
....|..|--- .... ....|C#6 ...A ....|A-4 ...F ....
....|..|--- .... ....|--- .... ....|R-- .... ....
....|..|--- .... ....|A-5 ...F ....|R-- .... ....
....|..|--- .... ....|--- .... ....|--- .... ....
....|..|--- .... ....|--- .... ....|A-4 ...F ....
....|..|--- .... ....|--- .... ....|R-- .... ....
....|..|A-4 ...F ....|A-3 ...F ....|A-4 ...A ....
....|..|--- .... ....|--- .... ....|--- .... ....
....|..|--- .... ....|A-5 ...A ....|G#4 ...F ....
....|..|R-- .... ....|--- .... ....|R-- .... ....
....|..|G#4 ...F ....|--- .... ....|G#4 ...F ....
....|..|R-- .... ....|R-- .... ....|R-- .... ....
....|..|A-4 ...A ....|B-3 ...F ....|--- .... ....
....|..|--- .... ....|--- .... ....|--- .... ....
....|..|F#4 ...F ....|R-- .... ....|G#4 ...A ....
....|..|R-- .... ....|--- .... ....|--- .... ....
....|..|G#4 ...A ....|--- .... ....|G#4 ...A ....
....|..|--- .... ....|--- .... ....|--- .... ....
....|..|E-4 ...F ....|B-3 ...A ....|G#4 ...F ....
....|..|R-- .... ....|--- .... ....|R-- .... ....
....|..|F#4 ...A ....|--- .... ....|R-- .... ....
....|..|--- .... ....|--- .... ....|R-- .... ....

[Pattern49]
....|..|A-4 ...F ....|--- .... ....|A-4 ...F ....
....|..|--- .... ....|--- .... ....|R-- .... ....
....|..|E-4 ...A ....|--- .... ....|A-4 ...F ....
....|..|--- .... ....|--- .... ....|R-- .... ....
....|..|--- .... ....|--- .... ....|R-- .... ....
....|..|--- .... ....|--- .... ....|--- .... ....
....|..|A-4 ...A ....|--- .... ....|R-- .... ....
....|..|--- .... ....|--- .... ....|--- .... ....
....|..|F#4 ...F ....|--- .... ....|A-4 ...F ....
....|..|--- .... ....|--- .... ....|R-- .... ....
....|..|--- .... ....|--- .... ....|A-4 ...F ....
....|..|--- .... ....|--- .... ....|R-- .... ....
....|..|R-- .... ....|--- .... ....|R-- .... ....
....|..|--- .... ....|--- .... ....|--- .... ....
....|..|F#4 ...A ....|--- .... ....|A-4 ...F ....
....|..|--- .... ....|--- .... ....|R-- .... ....
....|..|--- .... ....|--- .... ....|A-4 ...A ....
....|..|--- .... ....|--- .... ....|--- .... ....
....|..|--- .... ....|--- .... ....|G#4 ...F ....
....|..|--- .... ....|--- .... ....|R-- .... ....
....|..|--- .... ....|--- .... ....|A-4 ...A ....
....|..|--- .... ....|--- .... ....|--- .... ....
....|..|--- .... ....|--- .... ....|G#4 ...F ....
....|..|--- .... ....|--- .... ....|R-- .... ....
....|..|--- .... ....|--- .... ....|G#4 ...A ....
....|..|--- .... ....|--- .... ....|--- .... ....
....|..|--- .... ....|--- .... ....|--- .... ....
....|..|--- .... ....|--- .... ....|--- .... ....
....|..|--- .... ....|--- .... ....|G#4 ...F ....
....|..|--- .... ....|--- .... ....|R-- .... ....
....|..|--- .... ....|--- .... ....|R-- .... ....
....|..|--- .... ....|--- .... ....|R-- .... ....
....|..|--- .... ....|--- .... ....|A-4 ...F ....
....|..|--- .... ....|--- .... ....|R-- .... ....
....|..|--- .... ....|--- .... ....|A-4 ...F ....
....|..|--- .... ....|--- .... ....|R-- .... ....
....|..|--- .... ....|--- .... ....|R-- .... ....
....|..|--- .... ....|--- .... ....|--- .... ....
....|..|--- .... ....|--- .... ....|R-- .... ....
....|..|--- .... ....|--- .... ....|--- .... ....
....|..|--- .... ....|--- .... ....|A-4 ...F ....
....|..|--- .... ....|--- .... ....|R-- .... ....
....|..|--- .... ....|--- .... ....|A-4 ...F ....
....|..|--- .... ....|--- .... ....|R-- .... ....
....|..|--- .... ....|--- .... ....|R-- .... ....
....|..|--- .... ....|--- .... ....|--- .... ....
....|..|--- .... ....|--- .... ....|A-4 ...F ....
....|..|--- .... ....|--- .... ....|R-- .... ....
....|..|--- .... ....|--- .... ....|A-4 ...A ....
....|..|--- .... ....|--- .... ....|--- .... ....
....|..|--- .... ....|--- .... ....|G#4 ...F ....
....|..|--- .... ....|--- .... ....|R-- .... ....
....|..|--- .... ....|--- .... ....|G#4 ...F ....
....|..|--- .... ....|--- .... ....|R-- .... ....
....|..|--- .... ....|--- .... ....|--- .... ....
....|..|--- .... ....|--- .... ....|--- .... ....
....|..|--- .... ....|--- .... ....|G#4 ...A ....
....|..|--- .... ....|--- .... ....|--- .... ....
....|..|--- .... ....|--- .... ....|G#4 ...A ....
....|..|--- .... ....|--- .... ....|--- .... ....
....|..|--- .... ....|--- .... ....|G#4 ...F ....
....|..|--- .... ....|--- .... ....|R-- .... ....
....|..|--- .... ....|--- .... ....|R-- .... ....
....|..|--- .... ....|--- .... ....|R-- .... ....

[Pattern50]
....|..|--- .... ....|--- .... ....|A-4 ...F ....
....|..|--- .... ....|--- .... ....|R-- .... ....
....|..|--- .... ....|--- .... ....|A-4 ...F ....
....|..|--- .... ....|--- .... ....|R-- .... ....
....|..|--- .... ....|--- .... ....|R-- .... ....
....|..|--- .... ....|--- .... ....|--- .... ....
....|..|--- .... ....|--- .... ....|R-- .... ....
....|..|--- .... ....|--- .... ....|--- .... ....
....|..|--- .... ....|--- .... ....|A-4 ...F ....
....|..|--- .... ....|--- .... ....|R-- .... ....
....|..|--- .... ....|--- .... ....|A-4 ...F ....
....|..|--- .... ....|--- .... ....|R-- .... ....
....|..|--- .... ....|--- .... ....|R-- .... ....
....|..|--- .... ....|--- .... ....|--- .... ....
....|..|--- .... ....|--- .... ....|A-4 ...F ....
....|..|--- .... ....|--- .... ....|R-- .... ....
....|..|--- .... ....|--- .... ....|A-4 ...A ....
....|..|--- .... ....|--- .... ....|--- .... ....
....|..|--- .... ....|--- .... ....|G#4 ...F ....
....|..|--- .... ....|--- .... ....|R-- .... ....
....|..|--- .... ....|--- .... ....|A-4 ...A ....
....|..|--- .... ....|--- .... ....|--- .... ....
....|..|--- .... ....|--- .... ....|G#4 ...F ....
....|..|--- .... ....|--- .... ....|R-- .... ....
....|..|--- .... ....|--- .... ....|G#4 ...A ....
....|..|--- .... ....|--- .... ....|--- .... ....
....|..|--- .... ....|--- .... ....|--- .... ....
....|..|--- .... ....|--- .... ....|--- .... ....
....|..|--- .... ....|--- .... ....|G#4 ...F ....
....|..|--- .... ....|--- .... ....|R-- .... ....
....|..|--- .... ....|--- .... ....|R-- .... ....
....|..|--- .... ....|--- .... ....|R-- .... ....
....|..|--- .... ....|--- .... ....|A-4 ...F ....
....|..|--- .... ....|--- .... ....|R-- .... ....
....|..|--- .... ....|--- .... ....|A-4 ...F ....
....|..|--- .... ....|--- .... ....|R-- .... ....
....|..|--- .... ....|--- .... ....|R-- .... ....
....|..|--- .... ....|--- .... ....|--- .... ....
....|..|--- .... ....|--- .... ....|R-- .... ....
....|..|--- .... ....|--- .... ....|--- .... ....
....|..|--- .... ....|--- .... ....|A-4 ...F ....
....|..|--- .... ....|--- .... ....|R-- .... ....
....|..|--- .... ....|--- .... ....|A-4 ...F ....
....|..|--- .... ....|--- .... ....|R-- .... ....
....|..|--- .... ....|--- .... ....|R-- .... ....
....|..|--- .... ....|--- .... ....|--- .... ....
....|..|--- .... ....|--- .... ....|A-4 ...F ....
....|..|--- .... ....|--- .... ....|R-- .... ....
....|..|C#4 ...F ....|--- .... ....|A-4 ...A ....
....|..|--- .... ....|--- .... ....|--- .... ....
....|..|--- .... ....|--- .... ....|G#4 ...F ....
....|..|R-- .... ....|--- .... ....|R-- .... ....
....|..|B-3 ...F ....|--- .... ....|G#4 ...F ....
....|..|--- .... ....|--- .... ....|R-- .... ....
....|..|C#4 ...A ....|--- .... ....|--- .... ....
....|..|R-- .... ....|--- .... ....|--- .... ....
....|..|A-3 ...F ....|--- .... ....|G#4 ...A ....
....|..|R-- .... ....|--- .... ....|--- .... ....
....|..|B-3 ...A ....|--- .... ....|G#4 ...A ....
....|..|--- .... ....|--- .... ....|--- .... ....
....|..|F#3 ...F ....|--- .... ....|G#4 ...F ....
....|..|--- .... ....|--- .... ....|R-- .... ....
....|..|R-- .... ....|--- .... ....|R-- .... ....
....|..|--- .... ....|--- .... ....|R-- .... ....

[Pattern51]
....|..|C#4 ...F ....|--- .... ....|A-4 ...F ....
....|..|--- .... ....|--- .... ....|R-- .... ....
....|..|F#3 ...A ....|--- .... ....|A-4 ...F ....
....|..|--- .... ....|--- .... ....|R-- .... ....
....|..|--- .... ....|--- .... ....|R-- .... ....
....|..|--- .... ....|--- .... ....|--- .... ....
....|..|C#4 ...A ....|--- .... ....|R-- .... ....
....|..|--- .... ....|--- .... ....|R-- .... ....
....|..|--- .... ....|--- .... ....|A-4 ...F ....
....|..|--- .... ....|--- .... ....|R-- .... ....
....|..|R-- .... ....|--- .... ....|A-4 ...F ....
....|..|--- .... ....|--- .... ....|R-- .... ....
....|..|C#4 ...F ....|--- .... ....|R-- .... ....
....|..|--- .... ....|--- .... ....|--- .... ....
....|..|--- .... ....|--- .... ....|A-4 ...F ....
....|..|--- .... ....|--- .... ....|R-- .... ....
....|..|--- .... ....|--- .... ....|A-4 ...A ....
....|..|--- .... ....|--- .... ....|--- .... ....
....|..|C#4 ...A ....|--- .... ....|G#4 ...F ....
....|..|--- .... ....|--- .... ....|R-- .... ....
....|..|--- .... ....|--- .... ....|A-4 ...A ....
....|..|--- .... ....|--- .... ....|--- .... ....
....|..|--- .... ....|--- .... ....|G#4 ...F ....
....|..|--- .... ....|--- .... ....|R-- .... ....
....|..|--- .... ....|--- .... ....|G#4 ...A ....
....|..|--- .... ....|--- .... ....|--- .... ....
....|..|--- .... ....|--- .... ....|--- .... ....
....|..|--- .... ....|--- .... ....|--- .... ....
....|..|--- .... ....|--- .... ....|G#4 ...F ....
....|..|--- .... ....|--- .... ....|R-- .... ....
....|..|--- .... ....|--- .... ....|R-- .... ....
....|..|--- .... ....|--- .... ....|R-- .... ....
....|..|--- .... ....|--- .... ....|A-4 ...F ....
....|..|--- .... ....|--- .... ....|R-- .... ....
....|..|--- .... ....|--- .... ....|A-4 ...F ....
....|..|--- .... ....|--- .... ....|R-- .... ....
....|..|--- .... ....|--- .... ....|R-- .... ....
....|..|--- .... ....|--- .... ....|--- .... ....
....|..|--- .... ....|--- .... ....|R-- .... ....
....|..|--- .... ....|--- .... ....|R-- .... ....
....|..|--- .... ....|--- .... ....|A-4 ...F ....
....|..|--- .... ....|--- .... ....|R-- .... ....
....|..|--- .... ....|--- .... ....|A-4 ...F ....
....|..|--- .... ....|--- .... ....|R-- .... ....
....|..|--- .... ....|--- .... ....|R-- .... ....
....|..|--- .... ....|--- .... ....|--- .... ....
....|..|--- .... ....|--- .... ....|A-4 ...F ....
....|..|--- .... ....|--- .... ....|R-- .... ....
....|..|--- .... ....|--- .... ....|A-4 ...A ....
....|..|--- .... ....|--- .... ....|--- .... ....
....|..|--- .... ....|--- .... ....|G#4 ...F ....
....|..|--- .... ....|--- .... ....|R-- .... ....
....|..|--- .... ....|--- .... ....|G#4 ...F ....
....|..|--- .... ....|--- .... ....|R-- .... ....
....|..|--- .... ....|--- .... ....|--- .... ....
....|..|--- .... ....|--- .... ....|--- .... ....
....|..|--- .... ....|--- .... ....|G#4 ...A ....
....|..|--- .... ....|--- .... ....|--- .... ....
....|..|--- .... ....|--- .... ....|G#4 ...A ....
....|..|--- .... ....|--- .... ....|--- .... ....
....|..|--- .... ....|--- .... ....|G#4 ...F ....
....|..|--- .... ....|--- .... ....|R-- .... ....
....|..|--- .... ....|--- .... ....|R-- .... ....
....|..|--- .... ....|--- .... ....|R-- .... ....

[Pattern52]
....|..|--- .... ....|--- .... ....|A-4 ...F ....
....|..|--- .... ....|--- .... ....|R-- .... ....
....|..|--- .... ....|--- .... ....|A-4 ...F ....
....|..|--- .... ....|--- .... ....|R-- .... ....
....|..|--- .... ....|--- .... ....|R-- .... ....
....|..|--- .... ....|--- .... ....|--- .... ....
....|..|--- .... ....|--- .... ....|R-- .... ....
....|..|--- .... ....|--- .... ....|R-- .... ....
....|..|--- .... ....|--- .... ....|A-4 ...F ....
....|..|--- .... ....|--- .... ....|R-- .... ....
....|..|--- .... ....|--- .... ....|A-4 ...F ....
....|..|--- .... ....|--- .... ....|R-- .... ....
....|..|--- .... ....|--- .... ....|R-- .... ....
....|..|--- .... ....|--- .... ....|--- .... ....
....|..|--- .... ....|--- .... ....|A-4 ...F ....
....|..|--- .... ....|--- .... ....|R-- .... ....
....|..|--- .... ....|--- .... ....|A-4 ...A ....
....|..|--- .... ....|--- .... ....|--- .... ....
....|..|--- .... ....|--- .... ....|G#4 ...F ....
....|..|--- .... ....|--- .... ....|R-- .... ....
....|..|--- .... ....|--- .... ....|A-4 ...A ....
....|..|--- .... ....|--- .... ....|--- .... ....
....|..|--- .... ....|--- .... ....|G#4 ...F ....
....|..|--- .... ....|--- .... ....|R-- .... ....
....|..|--- .... ....|--- .... ....|G#4 ...A ....
....|..|--- .... ....|--- .... ....|--- .... ....
....|..|--- .... ....|--- .... ....|--- .... ....
....|..|--- .... ....|--- .... ....|--- .... ....
....|..|--- .... ....|--- .... ....|G#4 ...F ....
....|..|--- .... ....|--- .... ....|R-- .... ....
....|..|--- .... ....|--- .... ....|R-- .... ....
....|..|--- .... ....|--- .... ....|R-- .... ....
....|..|--- .... ....|--- .... ....|A-4 ...F ....
....|..|--- .... ....|--- .... ....|R-- .... ....
....|..|--- .... ....|--- .... ....|A-4 ...F ....
....|..|--- .... ....|--- .... ....|R-- .... ....
....|..|--- .... ....|--- .... ....|R-- .... ....
....|..|--- .... ....|--- .... ....|--- .... ....
....|..|--- .... ....|--- .... ....|R-- .... ....
....|..|--- .... ....|--- .... ....|R-- .... ....
....|..|--- .... ....|--- .... ....|A-4 ...F ....
....|..|--- .... ....|--- .... ....|R-- .... ....
....|..|--- .... ....|--- .... ....|A-4 ...F ....
....|..|--- .... ....|--- .... ....|R-- .... ....
....|..|--- .... ....|--- .... ....|R-- .... ....
....|..|--- .... ....|--- .... ....|--- .... ....
....|..|--- .... ....|--- .... ....|A-4 ...F ....
....|..|--- .... ....|--- .... ....|R-- .... ....
....|..|--- .... ....|--- .... ....|A-4 ...A ....
....|..|--- .... ....|--- .... ....|--- .... ....
....|..|--- .... ....|--- .... ....|G#4 ...F ....
....|..|--- .... ....|--- .... ....|R-- .... ....
....|..|--- .... ....|--- .... ....|G#4 ...F ....
....|..|--- .... ....|--- .... ....|R-- .... ....
....|..|--- .... ....|--- .... ....|--- .... ....
....|..|--- .... ....|--- .... ....|--- .... ....
....|..|--- .... ....|--- .... ....|G#4 ...A ....
....|..|--- .... ....|--- .... ....|--- .... ....
....|..|--- .... ....|--- .... ....|G#4 ...A ....
....|..|--- .... ....|--- .... ....|--- .... ....
....|..|--- .... ....|--- .... ....|G#4 ...F ....
....|..|--- .... ....|--- .... ....|R-- .... ....
....|..|--- .... ....|--- .... ....|R-- .... ....
....|..|--- .... ....|--- .... ....|R-- .... ....

[Pattern53]
....|..|F#5 ...F ....|--- .... ....|A-4 ...F ....
....|..|--- .... ....|--- .... ....|R-- .... ....
....|..|--- .... ....|--- .... ....|A-4 ...F ....
....|..|--- .... ....|--- .... ....|R-- .... ....
....|..|--- .... ....|--- .... ....|R-- .... ....
....|..|R-- .... ....|--- .... ....|--- .... ....
....|..|C#5 ...F ....|--- .... ....|R-- .... ....
....|..|--- .... ....|--- .... ....|--- .... ....
....|..|--- .... ....|--- .... ....|A-4 ...F ....
....|..|--- .... ....|--- .... ....|R-- .... ....
....|..|R-- .... ....|--- .... ....|A-4 ...F ....
....|..|--- .... ....|--- .... ....|R-- .... ....
....|..|F#5 ...F ....|--- .... ....|R-- .... ....
....|..|--- .... ....|--- .... ....|--- .... ....
....|..|--- .... ....|--- .... ....|A-4 ...F ....
....|..|R-- .... ....|--- .... ....|R-- .... ....
....|..|G#5 ...F ....|A-3 ...F ....|A-4 ...A ....
....|..|--- .... ....|--- .... ....|--- .... ....
....|..|F#5 ...A ....|--- .... ....|G#4 ...F ....
....|..|--- .... ....|--- .... ....|R-- .... ....
....|..|--- .... ....|--- .... ....|A-4 ...A ....
....|..|R-- .... ....|R-- .... ....|--- .... ....
....|..|C#5 ...F ....|B-3 ...F ....|G#4 ...F ....
....|..|--- .... ....|R-- .... ....|R-- .... ....
....|..|--- .... ....|--- .... ....|G#4 ...A ....
....|..|--- .... ....|--- .... ....|--- .... ....
....|..|--- .... ....|--- .... ....|--- .... ....
....|..|R-- .... ....|--- .... ....|--- .... ....
....|..|G#5 ...F ....|B-3 ...A ....|G#4 ...F ....
....|..|--- .... ....|--- .... ....|R-- .... ....
....|..|--- .... ....|--- .... ....|R-- .... ....
....|..|R-- .... ....|--- .... ....|R-- .... ....
....|..|A-5 ...F ....|--- .... ....|A-4 ...F ....
....|..|--- .... ....|--- .... ....|R-- .... ....
....|..|G#5 ...A ....|--- .... ....|A-4 ...F ....
....|..|--- .... ....|--- .... ....|R-- .... ....
....|..|--- .... ....|--- .... ....|R-- .... ....
....|..|--- .... ....|--- .... ....|--- .... ....
....|..|A-5 ...A ....|--- .... ....|R-- .... ....
....|..|R-- .... ....|--- .... ....|--- .... ....
....|..|F#5 ...F ....|--- .... ....|A-4 ...F ....
....|..|--- .... ....|--- .... ....|R-- .... ....
....|..|--- .... ....|--- .... ....|A-4 ...F ....
....|..|R-- .... ....|--- .... ....|R-- .... ....
....|..|G#5 ...F ....|--- .... ....|R-- .... ....
....|..|--- .... ....|--- .... ....|--- .... ....
....|..|F#5 ...A ....|--- .... ....|A-4 ...F ....
....|..|R-- .... ....|--- .... ....|R-- .... ....
....|..|A-5 ...F ....|A-3 ...F ....|A-4 ...A ....
....|..|--- .... ....|--- .... ....|--- .... ....
....|..|G#5 ...A ....|--- .... ....|G#4 ...F ....
....|..|R-- .... ....|--- .... ....|R-- .... ....
....|..|G#5 ...F ....|--- .... ....|G#4 ...F ....
....|..|--- .... ....|R-- .... ....|R-- .... ....
....|..|A-5 ...A ....|B-3 ...F ....|--- .... ....
....|..|R-- .... ....|--- .... ....|--- .... ....
....|..|F#5 ...F ....|R-- .... ....|G#4 ...A ....
....|..|--- .... ....|--- .... ....|--- .... ....
....|..|G#5 ...A ....|--- .... ....|G#4 ...A ....
....|..|R-- .... ....|--- .... ....|--- .... ....
....|..|E-5 ...F ....|B-3 ...A ....|G#4 ...F ....
....|..|--- .... ....|--- .... ....|R-- .... ....
....|..|F#5 ...A ....|--- .... ....|R-- .... ....
....|..|R-- .... ....|--- .... ....|R-- .... ....

[Pattern54]
....|..|F#5 ...F ....|--- .... ....|A-4 ...F ....
....|..|--- .... ....|--- .... ....|R-- .... ....
....|..|E-5 ...A ....|--- .... ....|A-4 ...F ....
....|..|--- .... ....|--- .... ....|R-- .... ....
....|..|--- .... ....|--- .... ....|R-- .... ....
....|..|R-- .... ....|--- .... ....|--- .... ....
....|..|C#5 ...F ....|--- .... ....|R-- .... ....
....|..|--- .... ....|--- .... ....|--- .... ....
....|..|--- .... ....|--- .... ....|A-4 ...F ....
....|..|--- .... ....|--- .... ....|R-- .... ....
....|..|R-- .... ....|--- .... ....|A-4 ...F ....
....|..|--- .... ....|--- .... ....|R-- .... ....
....|..|F#5 ...F ....|--- .... ....|R-- .... ....
....|..|--- .... ....|--- .... ....|--- .... ....
....|..|--- .... ....|--- .... ....|A-4 ...F ....
....|..|R-- .... ....|--- .... ....|R-- .... ....
....|..|G#5 ...F ....|A-3 ...F ....|A-4 ...A ....
....|..|--- .... ....|--- .... ....|--- .... ....
....|..|F#5 ...A ....|--- .... ....|G#4 ...F ....
....|..|--- .... ....|--- .... ....|R-- .... ....
....|..|--- .... ....|--- .... ....|A-4 ...A ....
....|..|R-- .... ....|R-- .... ....|--- .... ....
....|..|C#5 ...F ....|B-3 ...F ....|G#4 ...F ....
....|..|--- .... ....|--- .... ....|R-- .... ....
....|..|--- .... ....|R-- .... ....|G#4 ...A ....
....|..|--- .... ....|--- .... ....|--- .... ....
....|..|--- .... ....|--- .... ....|--- .... ....
....|..|R-- .... ....|--- .... ....|--- .... ....
....|..|G#5 ...F ....|B-3 ...A ....|G#4 ...F ....
....|..|--- .... ....|--- .... ....|R-- .... ....
....|..|--- .... ....|--- .... ....|R-- .... ....
....|..|R-- .... ....|--- .... ....|R-- .... ....
....|..|A-5 ...F ....|--- .... ....|A-4 ...F ....
....|..|--- .... ....|--- .... ....|R-- .... ....
....|..|G#5 ...A ....|--- .... ....|A-4 ...F ....
....|..|--- .... ....|--- .... ....|R-- .... ....
....|..|--- .... ....|--- .... ....|R-- .... ....
....|..|--- .... ....|--- .... ....|--- .... ....
....|..|A-5 ...A ....|--- .... ....|R-- .... ....
....|..|--- .... ....|--- .... ....|--- .... ....
....|..|--- .... ....|--- .... ....|A-4 ...F ....
....|..|R-- .... ....|--- .... ....|R-- .... ....
....|..|--- .... ....|--- .... ....|A-4 ...F ....
....|..|--- .... ....|--- .... ....|R-- .... ....
....|..|--- .... ....|--- .... ....|R-- .... ....
....|..|--- .... ....|--- .... ....|--- .... ....
....|..|--- .... ....|--- .... ....|A-4 ...F ....
....|..|--- .... ....|--- .... ....|R-- .... ....
....|..|A-5 ...F ....|A-3 ...F ....|A-4 ...A ....
....|..|--- .... ....|--- .... ....|--- .... ....
....|..|--- .... ....|--- .... ....|G#4 ...F ....
....|..|R-- .... ....|--- .... ....|R-- .... ....
....|..|G#5 ...F ....|--- .... ....|G#4 ...F ....
....|..|--- .... ....|R-- .... ....|R-- .... ....
....|..|A-5 ...A ....|B-3 ...F ....|--- .... ....
....|..|R-- .... ....|--- .... ....|--- .... ....
....|..|F#5 ...F ....|R-- .... ....|G#4 ...A ....
....|..|--- .... ....|--- .... ....|--- .... ....
....|..|G#5 ...A ....|--- .... ....|G#4 ...A ....
....|..|R-- .... ....|--- .... ....|--- .... ....
....|..|E-5 ...F ....|B-3 ...A ....|G#4 ...F ....
....|..|--- .... ....|--- .... ....|R-- .... ....
....|..|F#5 ...A ....|--- .... ....|R-- .... ....
....|..|R-- .... ....|--- .... ....|R-- .... ....

[Pattern55]
....|..|F#5 ...F ....|--- .... ....|A-4 ...F ....
....|..|--- .... ....|--- .... ....|R-- .... ....
....|..|E-5 ...A ....|--- .... ....|A-4 ...F ....
....|..|--- .... ....|--- .... ....|R-- .... ....
....|..|--- .... ....|--- .... ....|R-- .... ....
....|..|R-- .... ....|--- .... ....|--- .... ....
....|..|F#5 ...A ....|--- .... ....|R-- .... ....
....|..|--- .... ....|--- .... ....|R-- .... ....
....|..|F#5 ...F ....|--- .... ....|A-4 ...F ....
....|..|--- .... ....|--- .... ....|R-- .... ....
....|..|--- .... ....|--- .... ....|A-4 ...F ....
....|..|--- .... ....|--- .... ....|R-- .... ....
....|..|--- .... ....|--- .... ....|R-- .... ....
....|..|R-- .... ....|--- .... ....|--- .... ....
....|..|F#5 ...A ....|--- .... ....|A-4 ...F ....
....|..|--- .... ....|--- .... ....|R-- .... ....
....|..|A-5 ...F ....|A-3 ...F ....|A-4 ...A ....
....|..|--- .... ....|--- .... ....|--- .... ....
....|..|--- .... ....|--- .... ....|G#4 ...F ....
....|..|R-- .... ....|--- .... ....|R-- .... ....
....|..|G#5 ...F ....|--- .... ....|A-4 ...A ....
....|..|--- .... ....|R-- .... ....|--- .... ....
....|..|A-5 ...A ....|B-3 ...F ....|G#4 ...F ....
....|..|R-- .... ....|--- .... ....|R-- .... ....
....|..|F#5 ...F ....|R-- .... ....|G#4 ...A ....
....|..|--- .... ....|--- .... ....|--- .... ....
....|..|G#5 ...A ....|--- .... ....|--- .... ....
....|..|R-- .... ....|--- .... ....|--- .... ....
....|..|E-5 ...F ....|B-3 ...A ....|G#4 ...F ....
....|..|--- .... ....|--- .... ....|R-- .... ....
....|..|F#5 ...A ....|--- .... ....|R-- .... ....
....|..|R-- .... ....|--- .... ....|R-- .... ....
....|..|F#5 ...F ....|--- .... ....|A-4 ...F ....
....|..|--- .... ....|--- .... ....|R-- .... ....
....|..|E-5 ...A ....|--- .... ....|A-4 ...F ....
....|..|--- .... ....|--- .... ....|R-- .... ....
....|..|--- .... ....|--- .... ....|R-- .... ....
....|..|R-- .... ....|--- .... ....|--- .... ....
....|..|F#5 ...A ....|--- .... ....|R-- .... ....
....|..|--- .... ....|--- .... ....|R-- .... ....
....|..|F#5 ...F ....|--- .... ....|A-4 ...F ....
....|..|--- .... ....|--- .... ....|R-- .... ....
....|..|--- .... ....|--- .... ....|A-4 ...F ....
....|..|--- .... ....|--- .... ....|R-- .... ....
....|..|--- .... ....|--- .... ....|R-- .... ....
....|..|R-- .... ....|--- .... ....|--- .... ....
....|..|F#5 ...A ....|--- .... ....|A-4 ...F ....
....|..|--- .... ....|--- .... ....|R-- .... ....
....|..|A-5 ...F ....|A-3 ...F ....|A-4 ...A ....
....|..|--- .... ....|--- .... ....|--- .... ....
....|..|--- .... ....|--- .... ....|G#4 ...F ....
....|..|R-- .... ....|--- .... ....|R-- .... ....
....|..|G#5 ...F ....|--- .... ....|G#4 ...F ....
....|..|--- .... ....|R-- .... ....|R-- .... ....
....|..|A-5 ...A ....|B-3 ...F ....|--- .... ....
....|..|R-- .... ....|--- .... ....|--- .... ....
....|..|F#5 ...F ....|R-- .... ....|G#4 ...A ....
....|..|--- .... ....|--- .... ....|--- .... ....
....|..|G#5 ...A ....|--- .... ....|G#4 ...A ....
....|..|R-- .... ....|--- .... ....|--- .... ....
....|..|E-5 ...F ....|B-3 ...A ....|G#4 ...F ....
....|..|--- .... ....|--- .... ....|R-- .... ....
....|..|F#5 ...A ....|--- .... ....|R-- .... ....
....|..|R-- .... ....|--- .... ....|R-- .... ....

[Pattern56]
....|..|F#5 ...F ....|--- .... ....|A-4 ...F ....
....|..|--- .... ....|--- .... ....|R-- .... ....
....|..|E-5 ...A ....|--- .... ....|A-4 ...F ....
....|..|--- .... ....|--- .... ....|R-- .... ....
....|..|--- .... ....|--- .... ....|R-- .... ....
....|..|R-- .... ....|--- .... ....|--- .... ....
....|..|F#5 ...A ....|--- .... ....|R-- .... ....
....|..|--- .... ....|--- .... ....|R-- .... ....
....|..|F#5 ...F ....|--- .... ....|A-4 ...F ....
....|..|--- .... ....|--- .... ....|R-- .... ....
....|..|--- .... ....|--- .... ....|A-4 ...F ....
....|..|--- .... ....|--- .... ....|R-- .... ....
....|..|--- .... ....|--- .... ....|R-- .... ....
....|..|R-- .... ....|--- .... ....|--- .... ....
....|..|F#5 ...A ....|--- .... ....|A-4 ...F ....
....|..|--- .... ....|--- .... ....|R-- .... ....
....|..|A-5 ...F ....|A-3 ...F ....|A-4 ...A ....
....|..|--- .... ....|--- .... ....|--- .... ....
....|..|--- .... ....|--- .... ....|G#4 ...F ....
....|..|R-- .... ....|--- .... ....|R-- .... ....
....|..|G#5 ...F ....|--- .... ....|A-4 ...A ....
....|..|--- .... ....|R-- .... ....|--- .... ....
....|..|A-5 ...A ....|B-3 ...F ....|G#4 ...F ....
....|..|R-- .... ....|--- .... ....|R-- .... ....
....|..|F#5 ...F ....|R-- .... ....|G#4 ...A ....
....|..|--- .... ....|--- .... ....|--- .... ....
....|..|G#5 ...A ....|--- .... ....|--- .... ....
....|..|R-- .... ....|--- .... ....|--- .... ....
....|..|E-5 ...F ....|B-3 ...A ....|G#4 ...F ....
....|..|--- .... ....|--- .... ....|R-- .... ....
....|..|F#5 ...A ....|--- .... ....|R-- .... ....
....|..|R-- .... ....|--- .... ....|R-- .... ....
....|..|A-5 ...F ....|--- .... ....|A-4 ...F ....
....|..|--- .... ....|--- .... ....|R-- .... ....
....|..|E-5 ...A ....|--- .... ....|A-4 ...F ....
....|..|R-- .... ....|--- .... ....|R-- .... ....
....|..|G#5 ...F ....|--- .... ....|R-- .... ....
....|..|--- .... ....|--- .... ....|--- .... ....
....|..|A-5 ...A ....|--- .... ....|R-- .... ....
....|..|R-- .... ....|--- .... ....|R-- .... ....
....|..|F#5 ...F ....|--- .... ....|A-4 ...F ....
....|..|--- .... ....|--- .... ....|R-- .... ....
....|..|G#5 ...A ....|--- .... ....|A-4 ...F ....
....|..|R-- .... ....|--- .... ....|R-- .... ....
....|..|E-5 ...F ....|--- .... ....|R-- .... ....
....|..|--- .... ....|--- .... ....|--- .... ....
....|..|F#5 ...A ....|--- .... ....|A-4 ...F ....
....|..|R-- .... ....|--- .... ....|R-- .... ....
....|..|F#5 ...F ....|A-3 ...F ....|A-4 ...A ....
....|..|--- .... ....|--- .... ....|--- .... ....
....|..|E-5 ...A ....|--- .... ....|G#4 ...F ....
....|..|--- .... ....|--- .... ....|R-- .... ....
....|..|--- .... ....|--- .... ....|G#4 ...F ....
....|..|R-- .... ....|R-- .... ....|R-- .... ....
....|..|F#5 ...A ....|B-3 ...F ....|--- .... ....
....|..|--- .... ....|--- .... ....|--- .... ....
....|..|F#5 ...F ....|R-- .... ....|G#4 ...A ....
....|..|--- .... ....|--- .... ....|--- .... ....
....|..|--- .... ....|--- .... ....|G#4 ...A ....
....|..|--- .... ....|--- .... ....|--- .... ....
....|..|--- .... ....|B-3 ...A ....|G#4 ...F ....
....|..|R-- .... ....|--- .... ....|R-- .... ....
....|..|F#5 ...A ....|--- .... ....|R-- .... ....
....|..|--- .... ....|--- .... ....|R-- .... ....

[Pattern57]
....|..|F#5 ...F ....|--- .... ....|A-4 ...F ....
....|..|--- .... ....|--- .... ....|R-- .... ....
....|..|--- .... ....|--- .... ....|A-4 ...F ....
....|..|--- .... ....|--- .... ....|R-- .... ....
....|..|--- .... ....|--- .... ....|R-- .... ....
....|..|R-- .... ....|--- .... ....|--- .... ....
....|..|C#5 ...F ....|--- .... ....|R-- .... ....
....|..|--- .... ....|--- .... ....|--- .... ....
....|..|--- .... ....|--- .... ....|A-4 ...F ....
....|..|--- .... ....|--- .... ....|R-- .... ....
....|..|R-- .... ....|--- .... ....|A-4 ...F ....
....|..|--- .... ....|--- .... ....|R-- .... ....
....|..|F#5 ...F ....|--- .... ....|R-- .... ....
....|..|--- .... ....|--- .... ....|--- .... ....
....|..|--- .... ....|--- .... ....|A-4 ...F ....
....|..|R-- .... ....|--- .... ....|R-- .... ....
....|..|G#5 ...F ....|A-3 ...F ....|A-4 ...A ....
....|..|--- .... ....|--- .... ....|--- .... ....
....|..|F#5 ...A ....|--- .... ....|G#4 ...F ....
....|..|--- .... ....|--- .... ....|R-- .... ....
....|..|--- .... ....|--- .... ....|A-4 ...A ....
....|..|R-- .... ....|R-- .... ....|--- .... ....
....|..|C#5 ...F ....|B-3 ...F ....|G#4 ...F ....
....|..|--- .... ....|R-- .... ....|R-- .... ....
....|..|--- .... ....|--- .... ....|G#4 ...A ....
....|..|--- .... ....|--- .... ....|--- .... ....
....|..|--- .... ....|--- .... ....|--- .... ....
....|..|R-- .... ....|--- .... ....|--- .... ....
....|..|G#5 ...F ....|B-3 ...A ....|G#4 ...F ....
....|..|--- .... ....|--- .... ....|R-- .... ....
....|..|--- .... ....|--- .... ....|R-- .... ....
....|..|R-- .... ....|--- .... ....|R-- .... ....
....|..|A-5 ...F ....|--- .... ....|A-4 ...F ....
....|..|--- .... ....|--- .... ....|R-- .... ....
....|..|G#5 ...A ....|--- .... ....|A-4 ...F ....
....|..|--- .... ....|--- .... ....|R-- .... ....
....|..|--- .... ....|--- .... ....|R-- .... ....
....|..|--- .... ....|--- .... ....|--- .... ....
....|..|A-5 ...A ....|--- .... ....|R-- .... ....
....|..|R-- .... ....|--- .... ....|--- .... ....
....|..|F#5 ...F ....|--- .... ....|A-4 ...F ....
....|..|--- .... ....|--- .... ....|R-- .... ....
....|..|--- .... ....|--- .... ....|A-4 ...F ....
....|..|R-- .... ....|--- .... ....|R-- .... ....
....|..|G#5 ...F ....|--- .... ....|R-- .... ....
....|..|--- .... ....|--- .... ....|--- .... ....
....|..|F#5 ...A ....|--- .... ....|A-4 ...F ....
....|..|R-- .... ....|--- .... ....|R-- .... ....
....|..|A-5 ...F ....|A-3 ...F ....|A-4 ...A ....
....|..|--- .... ....|--- .... ....|--- .... ....
....|..|G#5 ...A ....|--- .... ....|G#4 ...F ....
....|..|R-- .... ....|--- .... ....|R-- .... ....
....|..|G#5 ...F ....|--- .... ....|G#4 ...F ....
....|..|--- .... ....|R-- .... ....|R-- .... ....
....|..|A-5 ...A ....|B-3 ...F ....|--- .... ....
....|..|R-- .... ....|--- .... ....|--- .... ....
....|..|F#5 ...F ....|R-- .... ....|G#4 ...A ....
....|..|--- .... ....|--- .... ....|--- .... ....
....|..|G#5 ...A ....|--- .... ....|G#4 ...A ....
....|..|R-- .... ....|--- .... ....|--- .... ....
....|..|E-5 ...F ....|B-3 ...A ....|G#4 ...F ....
....|..|--- .... ....|--- .... ....|R-- .... ....
....|..|F#5 ...A ....|--- .... ....|R-- .... ....
....|..|R-- .... ....|--- .... ....|R-- .... ....

[Pattern58]
....|..|F#5 ...F ....|--- .... ....|A-4 ...F ....
....|..|--- .... ....|--- .... ....|R-- .... ....
....|..|E-5 ...A ....|--- .... ....|A-4 ...F ....
....|..|--- .... ....|--- .... ....|R-- .... ....
....|..|--- .... ....|--- .... ....|R-- .... ....
....|..|R-- .... ....|--- .... ....|--- .... ....
....|..|C#5 ...F ....|--- .... ....|R-- .... ....
....|..|--- .... ....|--- .... ....|--- .... ....
....|..|--- .... ....|--- .... ....|A-4 ...F ....
....|..|--- .... ....|--- .... ....|R-- .... ....
....|..|R-- .... ....|--- .... ....|A-4 ...F ....
....|..|--- .... ....|--- .... ....|R-- .... ....
....|..|F#5 ...F ....|--- .... ....|R-- .... ....
....|..|--- .... ....|--- .... ....|--- .... ....
....|..|--- .... ....|--- .... ....|A-4 ...F ....
....|..|R-- .... ....|--- .... ....|R-- .... ....
....|..|G#5 ...F ....|A-3 ...F ....|A-4 ...A ....
....|..|--- .... ....|--- .... ....|--- .... ....
....|..|F#5 ...A ....|--- .... ....|G#4 ...F ....
....|..|--- .... ....|--- .... ....|R-- .... ....
....|..|--- .... ....|--- .... ....|A-4 ...A ....
....|..|R-- .... ....|R-- .... ....|--- .... ....
....|..|C#5 ...F ....|B-3 ...F ....|G#4 ...F ....
....|..|--- .... ....|--- .... ....|R-- .... ....
....|..|--- .... ....|R-- .... ....|G#4 ...A ....
....|..|--- .... ....|--- .... ....|--- .... ....
....|..|--- .... ....|--- .... ....|--- .... ....
....|..|R-- .... ....|--- .... ....|--- .... ....
....|..|G#5 ...F ....|B-3 ...A ....|G#4 ...F ....
....|..|--- .... ....|--- .... ....|R-- .... ....
....|..|--- .... ....|--- .... ....|R-- .... ....
....|..|R-- .... ....|--- .... ....|R-- .... ....
....|..|A-5 ...F ....|--- .... ....|A-4 ...F ....
....|..|--- .... ....|--- .... ....|R-- .... ....
....|..|G#5 ...A ....|--- .... ....|A-4 ...F ....
....|..|--- .... ....|--- .... ....|R-- .... ....
....|..|--- .... ....|--- .... ....|R-- .... ....
....|..|--- .... ....|--- .... ....|--- .... ....
....|..|A-5 ...A ....|--- .... ....|R-- .... ....
....|..|--- .... ....|--- .... ....|--- .... ....
....|..|--- .... ....|--- .... ....|A-4 ...F ....
....|..|R-- .... ....|--- .... ....|R-- .... ....
....|..|--- .... ....|--- .... ....|A-4 ...F ....
....|..|--- .... ....|--- .... ....|R-- .... ....
....|..|--- .... ....|--- .... ....|R-- .... ....
....|..|--- .... ....|--- .... ....|--- .... ....
....|..|--- .... ....|--- .... ....|A-4 ...F ....
....|..|--- .... ....|--- .... ....|R-- .... ....
....|..|A-5 ...F ....|A-3 ...F ....|A-4 ...A ....
....|..|--- .... ....|--- .... ....|--- .... ....
....|..|--- .... ....|--- .... ....|G#4 ...F ....
....|..|R-- .... ....|--- .... ....|R-- .... ....
....|..|G#5 ...F ....|--- .... ....|G#4 ...F ....
....|..|--- .... ....|R-- .... ....|R-- .... ....
....|..|A-5 ...A ....|B-3 ...F ....|--- .... ....
....|..|R-- .... ....|--- .... ....|--- .... ....
....|..|F#5 ...F ....|R-- .... ....|G#4 ...A ....
....|..|--- .... ....|--- .... ....|--- .... ....
....|..|G#5 ...A ....|--- .... ....|G#4 ...A ....
....|..|R-- .... ....|--- .... ....|--- .... ....
....|..|E-5 ...F ....|B-3 ...A ....|G#4 ...F ....
....|..|--- .... ....|--- .... ....|R-- .... ....
....|..|F#5 ...A ....|--- .... ....|R-- .... ....
....|..|R-- .... ....|--- .... ....|R-- .... ....

[Pattern59]
....|..|F#5 ...F ....|--- .... ....|A-4 ...F ....
....|..|--- .... ....|--- .... ....|R-- .... ....
....|..|E-5 ...A ....|--- .... ....|A-4 ...F ....
....|..|--- .... ....|--- .... ....|R-- .... ....
....|..|--- .... ....|--- .... ....|R-- .... ....
....|..|R-- .... ....|--- .... ....|--- .... ....
....|..|F#5 ...A ....|--- .... ....|R-- .... ....
....|..|--- .... ....|--- .... ....|R-- .... ....
....|..|F#5 ...F ....|--- .... ....|A-4 ...F ....
....|..|--- .... ....|--- .... ....|R-- .... ....
....|..|--- .... ....|--- .... ....|A-4 ...F ....
....|..|--- .... ....|--- .... ....|R-- .... ....
....|..|--- .... ....|--- .... ....|R-- .... ....
....|..|R-- .... ....|--- .... ....|--- .... ....
....|..|F#5 ...A ....|--- .... ....|A-4 ...F ....
....|..|--- .... ....|--- .... ....|R-- .... ....
....|..|A-5 ...F ....|A-3 ...F ....|A-4 ...A ....
....|..|--- .... ....|--- .... ....|--- .... ....
....|..|--- .... ....|--- .... ....|G#4 ...F ....
....|..|R-- .... ....|--- .... ....|R-- .... ....
....|..|G#5 ...F ....|--- .... ....|A-4 ...A ....
....|..|--- .... ....|R-- .... ....|--- .... ....
....|..|A-5 ...A ....|B-3 ...F ....|G#4 ...F ....
....|..|R-- .... ....|--- .... ....|R-- .... ....
....|..|F#5 ...F ....|R-- .... ....|G#4 ...A ....
....|..|--- .... ....|--- .... ....|--- .... ....
....|..|G#5 ...A ....|--- .... ....|--- .... ....
....|..|R-- .... ....|--- .... ....|--- .... ....
....|..|E-5 ...F ....|B-3 ...A ....|G#4 ...F ....
....|..|--- .... ....|--- .... ....|R-- .... ....
....|..|F#5 ...A ....|--- .... ....|R-- .... ....
....|..|R-- .... ....|--- .... ....|R-- .... ....
....|..|F#5 ...F ....|--- .... ....|A-4 ...F ....
....|..|--- .... ....|--- .... ....|R-- .... ....
....|..|E-5 ...A ....|--- .... ....|A-4 ...F ....
....|..|--- .... ....|--- .... ....|R-- .... ....
....|..|--- .... ....|--- .... ....|R-- .... ....
....|..|R-- .... ....|--- .... ....|--- .... ....
....|..|F#5 ...A ....|--- .... ....|R-- .... ....
....|..|--- .... ....|--- .... ....|R-- .... ....
....|..|F#5 ...F ....|--- .... ....|A-4 ...F ....
....|..|--- .... ....|--- .... ....|R-- .... ....
....|..|--- .... ....|--- .... ....|A-4 ...F ....
....|..|--- .... ....|--- .... ....|R-- .... ....
....|..|--- .... ....|--- .... ....|R-- .... ....
....|..|R-- .... ....|--- .... ....|--- .... ....
....|..|F#5 ...A ....|--- .... ....|A-4 ...F ....
....|..|--- .... ....|--- .... ....|R-- .... ....
....|..|A-5 ...F ....|A-3 ...F ....|A-4 ...A ....
....|..|--- .... ....|--- .... ....|--- .... ....
....|..|--- .... ....|--- .... ....|G#4 ...F ....
....|..|R-- .... ....|--- .... ....|R-- .... ....
....|..|G#5 ...F ....|--- .... ....|G#4 ...F ....
....|..|--- .... ....|R-- .... ....|R-- .... ....
....|..|A-5 ...A ....|B-3 ...F ....|--- .... ....
....|..|R-- .... ....|--- .... ....|--- .... ....
....|..|F#5 ...F ....|R-- .... ....|G#4 ...A ....
....|..|--- .... ....|--- .... ....|--- .... ....
....|..|G#5 ...A ....|--- .... ....|G#4 ...A ....
....|..|R-- .... ....|--- .... ....|--- .... ....
....|..|E-5 ...F ....|B-3 ...A ....|G#4 ...F ....
....|..|--- .... ....|--- .... ....|R-- .... ....
....|..|F#5 ...A ....|--- .... ....|R-- .... ....
....|..|R-- .... ....|--- .... ....|R-- .... ....

[Pattern60]
....|..|F#5 ...F ....|--- .... ....|A-4 ...F ....
....|..|--- .... ....|--- .... ....|R-- .... ....
....|..|E-5 ...A ....|--- .... ....|A-4 ...F ....
....|..|--- .... ....|--- .... ....|R-- .... ....
....|..|--- .... ....|--- .... ....|R-- .... ....
....|..|R-- .... ....|--- .... ....|--- .... ....
....|..|F#5 ...A ....|--- .... ....|R-- .... ....
....|..|--- .... ....|--- .... ....|R-- .... ....
....|..|F#5 ...F ....|--- .... ....|A-4 ...F ....
....|..|--- .... ....|--- .... ....|R-- .... ....
....|..|--- .... ....|--- .... ....|A-4 ...F ....
....|..|--- .... ....|--- .... ....|R-- .... ....
....|..|--- .... ....|--- .... ....|R-- .... ....
....|..|R-- .... ....|--- .... ....|--- .... ....
....|..|F#5 ...A ....|--- .... ....|A-4 ...F ....
....|..|--- .... ....|--- .... ....|R-- .... ....
....|..|A-5 ...F ....|A-3 ...F ....|A-4 ...A ....
....|..|--- .... ....|--- .... ....|--- .... ....
....|..|--- .... ....|--- .... ....|G#4 ...F ....
....|..|R-- .... ....|--- .... ....|R-- .... ....
....|..|G#5 ...F ....|--- .... ....|A-4 ...A ....
....|..|--- .... ....|R-- .... ....|--- .... ....
....|..|A-5 ...A ....|B-3 ...F ....|G#4 ...F ....
....|..|R-- .... ....|--- .... ....|R-- .... ....
....|..|F#5 ...F ....|R-- .... ....|G#4 ...A ....
....|..|--- .... ....|--- .... ....|--- .... ....
....|..|G#5 ...A ....|--- .... ....|--- .... ....
....|..|R-- .... ....|--- .... ....|--- .... ....
....|..|E-5 ...F ....|B-3 ...A ....|G#4 ...F ....
....|..|--- .... ....|--- .... ....|R-- .... ....
....|..|F#5 ...A ....|--- .... ....|R-- .... ....
....|..|R-- .... ....|--- .... ....|R-- .... ....
....|..|A-5 ...F ....|--- .... ....|A-4 ...F ....
....|..|--- .... ....|--- .... ....|R-- .... ....
....|..|E-5 ...A ....|--- .... ....|A-4 ...F ....
....|..|R-- .... ....|--- .... ....|R-- .... ....
....|..|G#5 ...F ....|--- .... ....|R-- .... ....
....|..|--- .... ....|--- .... ....|--- .... ....
....|..|A-5 ...A ....|--- .... ....|R-- .... ....
....|..|R-- .... ....|--- .... ....|R-- .... ....
....|..|F#5 ...F ....|--- .... ....|A-4 ...F ....
....|..|--- .... ....|--- .... ....|R-- .... ....
....|..|G#5 ...A ....|--- .... ....|A-4 ...F ....
....|..|R-- .... ....|--- .... ....|R-- .... ....
....|..|E-5 ...F ....|--- .... ....|R-- .... ....
....|..|--- .... ....|--- .... ....|--- .... ....
....|..|F#5 ...A ....|--- .... ....|A-4 ...F ....
....|..|R-- .... ....|--- .... ....|R-- .... ....
....|..|A-5 ...F ....|A-3 ...F ....|A-4 ...A ....
....|..|--- .... ....|--- .... ....|--- .... ....
....|..|E-5 ...A ....|--- .... ....|G#4 ...F ....
....|..|R-- .... ....|--- .... ....|R-- .... ....
....|..|G#5 ...F ....|--- .... ....|G#4 ...F ....
....|..|--- .... ....|R-- .... ....|R-- .... ....
....|..|A-5 ...A ....|B-3 ...F ....|--- .... ....
....|..|R-- .... ....|--- .... ....|--- .... ....
....|..|F#5 ...F ....|R-- .... ....|G#4 ...A ....
....|..|--- .... ....|--- .... ....|--- .... ....
....|..|G#5 ...A ....|--- .... ....|G#4 ...A ....
....|..|R-- .... ....|--- .... ....|--- .... ....
....|..|E-5 ...F ....|B-3 ...A ....|G#4 ...F ....
....|..|--- .... ....|--- .... ....|R-- .... ....
....|..|F#5 ...A ....|--- .... ....|R-- .... ....
....|..|R-- .... ....|--- .... ....|R-- .... ....

[Pattern61]
....|..|F#5 ...F ....|--- .... ....|A-4 ...F ....
....|..|--- .... ....|--- .... ....|R-- .... ....
....|..|E-5 ...A ....|--- .... ....|A-4 ...F ....
....|..|--- .... ....|--- .... ....|R-- .... ....
....|..|--- .... ....|--- .... ....|R-- .... ....
....|..|R-- .... ....|--- .... ....|--- .... ....
....|..|F#5 ...A ....|--- .... ....|R-- .... ....
....|..|--- .... ....|--- .... ....|--- .... ....
....|..|F#5 ...F ....|--- .... ....|A-4 ...F ....
....|..|--- .... ....|--- .... ....|R-- .... ....
....|..|--- .... ....|--- .... ....|A-4 ...F ....
....|..|--- .... ....|--- .... ....|R-- .... ....
....|..|--- .... ....|F#5 ...F ....|R-- .... ....
....|..|R-- .... ....|--- .... ....|--- .... ....
....|..|F#5 ...A ....|--- .... ....|A-4 ...F ....
....|..|--- .... ....|--- .... ....|R-- .... ....
....|..|--- .... ....|A-3 ...F ....|A-4 ...A ....
....|..|--- .... ....|--- .... ....|--- .... ....
....|..|--- .... ....|F#5 ...A ....|G#4 ...F ....
....|..|--- .... ....|--- .... ....|R-- .... ....
....|..|--- .... ....|D-5 ...F ....|A-4 ...A ....
....|..|--- .... ....|R-- .... ....|--- .... ....
....|..|--- .... ....|B-3 ...F ....|G#4 ...F ....
....|..|--- .... ....|R-- .... ....|R-- .... ....
....|..|--- .... ....|--- .... ....|G#4 ...A ....
....|..|--- .... ....|--- .... ....|--- .... ....
....|..|--- .... ....|D-5 ...A ....|--- .... ....
....|..|--- .... ....|--- .... ....|--- .... ....
....|..|--- .... ....|D-6 ...F ....|G#4 ...F ....
....|..|--- .... ....|--- .... ....|R-- .... ....
....|..|--- .... ....|--- .... ....|R-- .... ....
....|..|--- .... ....|--- .... ....|R-- .... ....
....|..|--- .... ....|--- .... ....|A-4 ...F ....
....|..|--- .... ....|--- .... ....|R-- .... ....
....|..|--- .... ....|D-6 ...A ....|A-4 ...F ....
....|..|--- .... ....|--- .... ....|R-- .... ....
....|..|--- .... ....|--- .... ....|R-- .... ....
....|..|--- .... ....|--- .... ....|--- .... ....
....|..|--- .... ....|--- .... ....|R-- .... ....
....|..|--- .... ....|--- .... ....|--- .... ....
....|..|--- .... ....|--- .... ....|A-4 ...F ....
....|..|--- .... ....|--- .... ....|R-- .... ....
....|..|--- .... ....|--- .... ....|A-4 ...F ....
....|..|--- .... ....|--- .... ....|R-- .... ....
....|..|--- .... ....|A-5 ...F ....|R-- .... ....
....|..|--- .... ....|--- .... ....|--- .... ....
....|..|--- .... ....|--- .... ....|A-4 ...F ....
....|..|--- .... ....|--- .... ....|R-- .... ....
....|..|--- .... ....|A-3 ...F ....|A-4 ...A ....
....|..|--- .... ....|--- .... ....|--- .... ....
....|..|--- .... ....|A-5 ...A ....|G#4 ...F ....
....|..|--- .... ....|--- .... ....|R-- .... ....
....|..|--- .... ....|F#5 ...F ....|G#4 ...F ....
....|..|--- .... ....|R-- .... ....|R-- .... ....
....|..|--- .... ....|B-3 ...F ....|--- .... ....
....|..|--- .... ....|--- .... ....|--- .... ....
....|..|--- .... ....|R-- .... ....|G#4 ...A ....
....|..|--- .... ....|--- .... ....|--- .... ....
....|..|--- .... ....|F#5 ...A ....|G#4 ...A ....
....|..|--- .... ....|--- .... ....|--- .... ....
....|..|--- .... ....|B-3 ...A ....|G#4 ...F ....
....|..|--- .... ....|--- .... ....|R-- .... ....
....|..|--- .... ....|--- .... ....|R-- .... ....
....|..|--- .... ....|--- .... ....|R-- .... ....

[Pattern62]
....|..|--- .... ....|--- .... ....|A-4 ...F ....
....|..|--- .... ....|--- .... ....|R-- .... ....
....|..|--- .... ....|--- .... ....|A-4 ...F ....
....|..|--- .... ....|--- .... ....|R-- .... ....
....|..|--- .... ....|D-6 ...F ....|R-- .... ....
....|..|--- .... ....|--- .... ....|--- .... ....
....|..|--- .... ....|--- .... ....|R-- .... ....
....|..|--- .... ....|--- .... ....|--- .... ....
....|..|--- .... ....|--- .... ....|A-4 ...F ....
....|..|--- .... ....|--- .... ....|R-- .... ....
....|..|--- .... ....|D-6 ...A ....|A-4 ...F ....
....|..|--- .... ....|--- .... ....|R-- .... ....
....|..|--- .... ....|D-5 ...F ....|R-- .... ....
....|..|--- .... ....|--- .... ....|--- .... ....
....|..|--- .... ....|--- .... ....|A-4 ...F ....
....|..|--- .... ....|--- .... ....|R-- .... ....
....|..|--- .... ....|A-3 ...F ....|A-4 ...A ....
....|..|--- .... ....|--- .... ....|--- .... ....
....|..|--- .... ....|D-5 ...A ....|G#4 ...F ....
....|..|--- .... ....|--- .... ....|R-- .... ....
....|..|--- .... ....|F#5 ...F ....|A-4 ...A ....
....|..|--- .... ....|R-- .... ....|--- .... ....
....|..|--- .... ....|B-3 ...F ....|G#4 ...F ....
....|..|--- .... ....|--- .... ....|R-- .... ....
....|..|--- .... ....|R-- .... ....|G#4 ...A ....
....|..|--- .... ....|--- .... ....|--- .... ....
....|..|--- .... ....|F#5 ...A ....|--- .... ....
....|..|--- .... ....|--- .... ....|--- .... ....
....|..|--- .... ....|B-3 ...A ....|G#4 ...F ....
....|..|--- .... ....|--- .... ....|R-- .... ....
....|..|--- .... ....|--- .... ....|R-- .... ....
....|..|--- .... ....|--- .... ....|R-- .... ....
....|..|--- .... ....|--- .... ....|A-4 ...F ....
....|..|--- .... ....|--- .... ....|R-- .... ....
....|..|--- .... ....|--- .... ....|A-4 ...F ....
....|..|--- .... ....|--- .... ....|R-- .... ....
....|..|--- .... ....|F#6 ...F ....|R-- .... ....
....|..|--- .... ....|--- .... ....|--- .... ....
....|..|--- .... ....|--- .... ....|R-- .... ....
....|..|--- .... ....|--- .... ....|--- .... ....
....|..|--- .... ....|--- .... ....|A-4 ...F ....
....|..|--- .... ....|--- .... ....|R-- .... ....
....|..|--- .... ....|F#6 ...A ....|A-4 ...F ....
....|..|--- .... ....|--- .... ....|R-- .... ....
....|..|--- .... ....|D-5 ...F ....|R-- .... ....
....|..|--- .... ....|--- .... ....|--- .... ....
....|..|--- .... ....|--- .... ....|A-4 ...F ....
....|..|--- .... ....|--- .... ....|R-- .... ....
....|..|--- .... ....|A-3 ...F ....|A-4 ...A ....
....|..|--- .... ....|--- .... ....|--- .... ....
....|..|--- .... ....|D-5 ...A ....|G#4 ...F ....
....|..|--- .... ....|--- .... ....|R-- .... ....
....|..|--- .... ....|F#5 ...F ....|G#4 ...F ....
....|..|--- .... ....|R-- .... ....|R-- .... ....
....|..|--- .... ....|B-3 ...F ....|--- .... ....
....|..|--- .... ....|--- .... ....|--- .... ....
....|..|--- .... ....|R-- .... ....|G#4 ...A ....
....|..|--- .... ....|--- .... ....|--- .... ....
....|..|--- .... ....|F#5 ...A ....|G#4 ...A ....
....|..|--- .... ....|--- .... ....|--- .... ....
....|..|--- .... ....|B-3 ...A ....|G#4 ...F ....
....|..|--- .... ....|--- .... ....|R-- .... ....
....|..|--- .... ....|--- .... ....|R-- .... ....
....|..|--- .... ....|--- .... ....|R-- .... ....

[Pattern63]
....|..|--- .... ....|--- .... ....|A-4 ...F ....
....|..|--- .... ....|--- .... ....|R-- .... ....
....|..|--- .... ....|--- .... ....|A-4 ...F ....
....|..|--- .... ....|--- .... ....|R-- .... ....
....|..|--- .... ....|--- .... ....|R-- .... ....
....|..|--- .... ....|--- .... ....|--- .... ....
....|..|--- .... ....|--- .... ....|R-- .... ....
....|..|--- .... ....|--- .... ....|R-- .... ....
....|..|--- .... ....|--- .... ....|A-4 ...F ....
....|..|--- .... ....|--- .... ....|R-- .... ....
....|..|--- .... ....|--- .... ....|A-4 ...F ....
....|..|--- .... ....|--- .... ....|R-- .... ....
....|..|--- .... ....|--- .... ....|R-- .... ....
....|..|--- .... ....|--- .... ....|--- .... ....
....|..|--- .... ....|--- .... ....|A-4 ...F ....
....|..|--- .... ....|--- .... ....|R-- .... ....
....|..|--- .... ....|A-3 ...F ....|A-4 ...A ....
....|..|--- .... ....|--- .... ....|--- .... ....
....|..|--- .... ....|--- .... ....|G#4 ...F ....
....|..|--- .... ....|--- .... ....|R-- .... ....
....|..|--- .... ....|--- .... ....|A-4 ...A ....
....|..|--- .... ....|R-- .... ....|--- .... ....
....|..|--- .... ....|B-3 ...F ....|G#4 ...F ....
....|..|--- .... ....|--- .... ....|R-- .... ....
....|..|--- .... ....|R-- .... ....|G#4 ...A ....
....|..|--- .... ....|--- .... ....|--- .... ....
....|..|--- .... ....|--- .... ....|--- .... ....
....|..|--- .... ....|--- .... ....|--- .... ....
....|..|--- .... ....|B-3 ...A ....|G#4 ...F ....
....|..|--- .... ....|--- .... ....|R-- .... ....
....|..|--- .... ....|--- .... ....|R-- .... ....
....|..|--- .... ....|--- .... ....|R-- .... ....
....|..|--- .... ....|--- .... ....|A-4 ...F ....
....|..|--- .... ....|--- .... ....|R-- .... ....
....|..|--- .... ....|--- .... ....|A-4 ...F ....
....|..|--- .... ....|--- .... ....|R-- .... ....
....|..|--- .... ....|C#6 ...F ....|R-- .... ....
....|..|--- .... ....|--- .... ....|--- .... ....
....|..|--- .... ....|--- .... ....|R-- .... ....
....|..|--- .... ....|--- .... ....|R-- .... ....
....|..|--- .... ....|--- .... ....|A-4 ...F ....
....|..|--- .... ....|--- .... ....|R-- .... ....
....|..|--- .... ....|C#6 ...A ....|A-4 ...F ....
....|..|--- .... ....|--- .... ....|R-- .... ....
....|..|--- .... ....|F#6 ...F ....|R-- .... ....
....|..|--- .... ....|--- .... ....|--- .... ....
....|..|--- .... ....|--- .... ....|A-4 ...F ....
....|..|--- .... ....|--- .... ....|R-- .... ....
....|..|--- .... ....|A-3 ...F ....|A-4 ...A ....
....|..|--- .... ....|--- .... ....|--- .... ....
....|..|--- .... ....|F#6 ...A ....|G#4 ...F ....
....|..|--- .... ....|--- .... ....|R-- .... ....
....|..|--- .... ....|A-5 ...F ....|G#4 ...F ....
....|..|--- .... ....|R-- .... ....|R-- .... ....
....|..|--- .... ....|B-3 ...F ....|--- .... ....
....|..|--- .... ....|--- .... ....|--- .... ....
....|..|--- .... ....|R-- .... ....|G#4 ...A ....
....|..|--- .... ....|--- .... ....|--- .... ....
....|..|--- .... ....|A-5 ...A ....|G#4 ...A ....
....|..|--- .... ....|--- .... ....|--- .... ....
....|..|--- .... ....|B-3 ...A ....|G#4 ...F ....
....|..|--- .... ....|--- .... ....|R-- .... ....
....|..|--- .... ....|--- .... ....|R-- .... ....
....|..|--- .... ....|--- .... ....|R-- .... ....

[Pattern64]
....|..|--- .... ....|--- .... ....|A-4 ...F ....
....|..|--- .... ....|--- .... ....|R-- .... ....
....|..|--- .... ....|--- .... ....|A-4 ...F ....
....|..|--- .... ....|--- .... ....|R-- .... ....
....|..|--- .... ....|C#6 ...F ....|R-- .... ....
....|..|--- .... ....|--- .... ....|--- .... ....
....|..|--- .... ....|--- .... ....|R-- .... ....
....|..|--- .... ....|--- .... ....|R-- .... ....
....|..|--- .... ....|--- .... ....|A-4 ...F ....
....|..|--- .... ....|--- .... ....|R-- .... ....
....|..|--- .... ....|C#6 ...A ....|A-4 ...F ....
....|..|--- .... ....|--- .... ....|R-- .... ....
....|..|--- .... ....|A-6 ...F ....|R-- .... ....
....|..|--- .... ....|--- .... ....|--- .... ....
....|..|--- .... ....|--- .... ....|A-4 ...F ....
....|..|--- .... ....|--- .... ....|R-- .... ....
....|..|--- .... ....|A-3 ...F ....|A-4 ...A ....
....|..|--- .... ....|--- .... ....|--- .... ....
....|..|--- .... ....|A-6 ...A ....|G#4 ...F ....
....|..|--- .... ....|--- .... ....|R-- .... ....
....|..|--- .... ....|--- .... ....|A-4 ...A ....
....|..|--- .... ....|R-- .... ....|--- .... ....
....|..|--- .... ....|B-3 ...F ....|G#4 ...F ....
....|..|--- .... ....|--- .... ....|R-- .... ....
....|..|--- .... ....|R-- .... ....|G#4 ...A ....
....|..|--- .... ....|--- .... ....|--- .... ....
....|..|--- .... ....|--- .... ....|--- .... ....
....|..|--- .... ....|--- .... ....|--- .... ....
....|..|--- .... ....|F#6 ...F ....|G#4 ...F ....
....|..|--- .... ....|--- .... ....|R-- .... ....
....|..|--- .... ....|--- .... ....|R-- .... ....
....|..|--- .... ....|--- .... ....|R-- .... ....
....|..|--- .... ....|--- .... ....|A-4 ...F ....
....|..|--- .... ....|--- .... ....|R-- .... ....
....|..|--- .... ....|F#6 ...A ....|A-4 ...F ....
....|..|--- .... ....|--- .... ....|R-- .... ....
....|..|--- .... ....|C#6 ...F ....|R-- .... ....
....|..|--- .... ....|--- .... ....|--- .... ....
....|..|--- .... ....|--- .... ....|R-- .... ....
....|..|--- .... ....|--- .... ....|R-- .... ....
....|..|--- .... ....|--- .... ....|A-4 ...F ....
....|..|--- .... ....|--- .... ....|R-- .... ....
....|..|--- .... ....|C#6 ...A ....|A-4 ...F ....
....|..|--- .... ....|--- .... ....|R-- .... ....
....|..|--- .... ....|A-5 ...F ....|R-- .... ....
....|..|--- .... ....|--- .... ....|--- .... ....
....|..|--- .... ....|--- .... ....|A-4 ...F ....
....|..|--- .... ....|--- .... ....|R-- .... ....
....|..|A-5 ...F ....|A-3 ...F ....|A-4 ...A ....
....|..|--- .... ....|--- .... ....|--- .... ....
....|..|--- .... ....|A-5 ...A ....|G#4 ...F ....
....|..|R-- .... ....|--- .... ....|R-- .... ....
....|..|G#5 ...F ....|--- .... ....|G#4 ...F ....
....|..|--- .... ....|R-- .... ....|R-- .... ....
....|..|A-5 ...A ....|B-3 ...F ....|--- .... ....
....|..|R-- .... ....|--- .... ....|--- .... ....
....|..|F#5 ...F ....|R-- .... ....|G#4 ...A ....
....|..|--- .... ....|--- .... ....|--- .... ....
....|..|G#5 ...A ....|--- .... ....|G#4 ...A ....
....|..|R-- .... ....|--- .... ....|--- .... ....
....|..|E-5 ...F ....|B-3 ...A ....|G#4 ...F ....
....|..|--- .... ....|--- .... ....|R-- .... ....
....|..|F#5 ...A ....|--- .... ....|R-- .... ....
....|..|R-- .... ....|--- .... ....|R-- .... ....

[Pattern65]
....|..|F#5 ...F ....|--- .... ....|A-4 ...F ....
....|..|--- .... ....|--- .... ....|R-- .... ....
....|..|E-5 ...A ....|--- .... ....|A-4 ...F ....
....|..|--- .... ....|--- .... ....|R-- .... ....
....|..|R-- .... ....|--- .... ....|R-- .... ....
....|..|--- .... ....|--- .... ....|--- .... ....
....|..|F#5 ...A ....|--- .... ....|R-- .... ....
....|..|--- .... ....|--- .... ....|--- .... ....
....|..|F#5 ...F ....|--- .... ....|A-4 ...F ....
....|..|--- .... ....|--- .... ....|R-- .... ....
....|..|--- .... ....|--- .... ....|A-4 ...F ....
....|..|--- .... ....|--- .... ....|R-- .... ....
....|..|R-- .... ....|--- .... ....|R-- .... ....
....|..|--- .... ....|--- .... ....|--- .... ....
....|..|F#5 ...A ....|--- .... ....|A-4 ...F ....
....|..|--- .... ....|--- .... ....|R-- .... ....
....|..|--- .... ....|--- .... ....|A-4 ...A ....
....|..|--- .... ....|--- .... ....|--- .... ....
....|..|--- .... ....|--- .... ....|G#4 ...F ....
....|..|--- .... ....|--- .... ....|R-- .... ....
....|..|--- .... ....|--- .... ....|A-4 ...A ....
....|..|--- .... ....|--- .... ....|--- .... ....
....|..|--- .... ....|--- .... ....|G#4 ...F ....
....|..|--- .... ....|--- .... ....|R-- .... ....
....|..|--- .... ....|--- .... ....|G#4 ...A ....
....|..|--- .... ....|--- .... ....|--- .... ....
....|..|--- .... ....|--- .... ....|--- .... ....
....|..|--- .... ....|--- .... ....|--- .... ....
....|..|--- .... ....|--- .... ....|G#4 ...F ....
....|..|--- .... ....|--- .... ....|R-- .... ....
....|..|--- .... ....|--- .... ....|R-- .... ....
....|..|--- .... ....|--- .... ....|R-- .... ....
....|..|--- .... ....|--- .... ....|A-4 ...F ....
....|..|--- .... ....|--- .... ....|R-- .... ....
....|..|--- .... ....|--- .... ....|A-4 ...F ....
....|..|--- .... ....|--- .... ....|R-- .... ....
....|..|--- .... ....|--- .... ....|R-- .... ....
....|..|--- .... ....|--- .... ....|--- .... ....
....|..|--- .... ....|--- .... ....|R-- .... ....
....|..|--- .... ....|--- .... ....|--- .... ....
....|..|--- .... ....|--- .... ....|A-4 ...F ....
....|..|--- .... ....|--- .... ....|R-- .... ....
....|..|--- .... ....|--- .... ....|A-4 ...F ....
....|..|--- .... ....|--- .... ....|R-- .... ....
....|..|--- .... ....|--- .... ....|R-- .... ....
....|..|--- .... ....|--- .... ....|--- .... ....
....|..|--- .... ....|--- .... ....|A-4 ...F ....
....|..|--- .... ....|--- .... ....|R-- .... ....
....|..|--- .... ....|--- .... ....|A-4 ...A ....
....|..|--- .... ....|--- .... ....|--- .... ....
....|..|--- .... ....|--- .... ....|G#4 ...F ....
....|..|--- .... ....|--- .... ....|R-- .... ....
....|..|--- .... ....|--- .... ....|G#4 ...F ....
....|..|--- .... ....|--- .... ....|R-- .... ....
....|..|--- .... ....|--- .... ....|--- .... ....
....|..|--- .... ....|--- .... ....|--- .... ....
....|..|--- .... ....|--- .... ....|G#4 ...A ....
....|..|--- .... ....|--- .... ....|--- .... ....
....|..|--- .... ....|--- .... ....|G#4 ...A ....
....|..|--- .... ....|--- .... ....|--- .... ....
....|..|--- .... ....|--- .... ....|G#4 ...F ....
....|..|--- .... ....|--- .... ....|R-- .... ....
....|..|--- .... ....|--- .... ....|R-- .... ....
....|..|--- .... ....|--- .... ....|R-- .... ....

[Pattern66]
....|..|--- .... ....|--- .... ....|A-4 ...F ....
....|..|--- .... ....|--- .... ....|R-- .... ....
....|..|--- .... ....|--- .... ....|A-4 ...F ....
....|..|--- .... ....|--- .... ....|R-- .... ....
....|..|--- .... ....|--- .... ....|R-- .... ....
....|..|--- .... ....|--- .... ....|--- .... ....
....|..|--- .... ....|--- .... ....|R-- .... ....
....|..|--- .... ....|--- .... ....|--- .... ....
....|..|--- .... ....|--- .... ....|A-4 ...F ....
....|..|--- .... ....|--- .... ....|R-- .... ....
....|..|--- .... ....|--- .... ....|A-4 ...F ....
....|..|--- .... ....|--- .... ....|R-- .... ....
....|..|--- .... ....|--- .... ....|R-- .... ....
....|..|--- .... ....|--- .... ....|--- .... ....
....|..|--- .... ....|--- .... ....|A-4 ...F ....
....|..|--- .... ....|--- .... ....|R-- .... ....
....|..|--- .... ....|--- .... ....|A-4 ...A ....
....|..|--- .... ....|--- .... ....|--- .... ....
....|..|--- .... ....|--- .... ....|G#4 ...F ....
....|..|--- .... ....|--- .... ....|R-- .... ....
....|..|--- .... ....|--- .... ....|A-4 ...A ....
....|..|--- .... ....|--- .... ....|--- .... ....
....|..|--- .... ....|--- .... ....|G#4 ...F ....
....|..|--- .... ....|--- .... ....|R-- .... ....
....|..|--- .... ....|--- .... ....|G#4 ...A ....
....|..|--- .... ....|--- .... ....|--- .... ....
....|..|--- .... ....|--- .... ....|--- .... ....
....|..|--- .... ....|--- .... ....|--- .... ....
....|..|--- .... ....|--- .... ....|G#4 ...F ....
....|..|--- .... ....|--- .... ....|R-- .... ....
....|..|--- .... ....|--- .... ....|R-- .... ....
....|..|--- .... ....|--- .... ....|R-- .... ....
....|..|--- .... ....|--- .... ....|A-4 ...F ....
....|..|--- .... ....|--- .... ....|R-- .... ....
....|..|--- .... ....|--- .... ....|A-4 ...F ....
....|..|--- .... ....|--- .... ....|R-- .... ....
....|..|--- .... ....|--- .... ....|R-- .... ....
....|..|--- .... ....|--- .... ....|--- .... ....
....|..|--- .... ....|--- .... ....|R-- .... ....
....|..|--- .... ....|--- .... ....|--- .... ....
....|..|--- .... ....|--- .... ....|A-4 ...F ....
....|..|--- .... ....|--- .... ....|R-- .... ....
....|..|--- .... ....|--- .... ....|A-4 ...F ....
....|..|--- .... ....|--- .... ....|R-- .... ....
....|..|--- .... ....|--- .... ....|R-- .... ....
....|..|--- .... ....|--- .... ....|--- .... ....
....|..|--- .... ....|--- .... ....|A-4 ...F ....
....|..|--- .... ....|--- .... ....|R-- .... ....
....|..|A-5 ...F ....|--- .... ....|A-4 ...A ....
....|..|--- .... ....|--- .... ....|--- .... ....
....|..|--- .... ....|--- .... ....|G#4 ...F ....
....|..|R-- .... ....|--- .... ....|R-- .... ....
....|..|G#5 ...F ....|--- .... ....|G#4 ...F ....
....|..|--- .... ....|--- .... ....|R-- .... ....
....|..|A-5 ...A ....|--- .... ....|--- .... ....
....|..|R-- .... ....|--- .... ....|--- .... ....
....|..|F#5 ...F ....|--- .... ....|G#4 ...A ....
....|..|--- .... ....|--- .... ....|--- .... ....
....|..|G#5 ...A ....|--- .... ....|G#4 ...A ....
....|..|R-- .... ....|--- .... ....|--- .... ....
....|..|E-5 ...F ....|--- .... ....|--- .... ....
....|..|--- .... ....|--- .... ....|--- .... ....
....|..|F#5 ...A ....|--- .... ....|--- .... ....
....|..|R-- .... ....|--- .... ....|--- .... ....

[Pattern67]
....|..|F#5 ...F ....|--- .... ....|--- .... ....
....|..|--- .... ....|--- .... ....|--- .... ....
....|..|E-5 ...A ....|--- .... ....|--- .... ....
....|..|--- .... ....|--- .... ....|--- .... ....
....|..|--- .... ....|--- .... ....|--- .... ....
....|..|--- .... ....|--- .... ....|--- .... ....
....|..|F#5 ...A ....|--- .... ....|--- .... ....
....|..|R-- .... ....|--- .... ....|--- .... ....
....|..|F#5 ...F ....|--- .... ....|--- .... ....
....|..|--- .... ....|--- .... ....|--- .... ....
....|..|--- .... ....|--- .... ....|--- .... ....
....|..|--- .... ....|--- .... ....|--- .... ....
....|..|R-- .... ....|--- .... ....|--- .... ....
....|..|--- .... ....|--- .... ....|--- .... ....
....|..|F#5 ...A ....|--- .... ....|--- .... ....

