[Module]
VortexTrackerII=0
Version=3.5
Title=eple_dry.mid
Author=oisee ^ 4d 29.05.2010
NoteTable=4
ChipFreq=1750000
Speed=3
PlayOrder=L4,5,6,7,8,9,10,11,12,13,14,19,20,21,22,23,24,25,26,27,28,29,30,31,32,33,34,35,36,37

[Ornament1]
L0

[Ornament2]
L7,7,2,2,0,0

[Ornament3]
L0,0,3,3,7,7,12,12

[Ornament4]
L0,0,4,4,7,7,12,12

[Ornament5]
L0,0,5,5,8,8,12,12

[Ornament6]
L0,0,3,3,6,6,12,12

[Ornament7]
L0,3,7

[Ornament8]
L0,0,3,3,8,8,12,12

[Ornament9]
0,-12,-12,-24,L-24

[Ornament10]
L0,0,12,12,0,0,12,12

[Ornament11]
24,12,0,-12,-24,-36,L-36

[Ornament12]
L0

[Ornament13]
1,L0

[Ornament14]
L0,24,0,0,0

[Ornament15]
L0,36,0,0

[Sample1]
TnE +000_ +00_ C_
TnE +000_ +00_ C_
TnE +000_ +00_ C_
TnE +000_ +00_ B_
TnE +000_ +00_ B_
TnE +000_ +00_ B_ L

[Sample2]
TnE +000_ +00_ F_ L

[Sample3]
TnE +001_ +00_ F_
TnE +002_ +00_ F_
TnE +001_ +00_ E_
TnE +002_ +00_ E_
TnE +000_ +00_ E_ L
TnE -001_ +00_ E_
TnE -002_ +00_ E_
TnE -001_ +00_ E_
TnE +000_ +00_ E_
TnE +001_ +00_ E_
TnE +002_ +00_ E_
TnE +001_ +00_ E_

[Sample4]
TnE +002_ +00_ D_
TnE +002_ +00_ D_
TnE +002_ +00_ C_
TnE +002_ +00_ B_
TnE +002_ +00_ A_ L
TnE +002_ +00_ A_
TnE +002_ +00_ A_
TnE +002_ +00_ A_
TnE +002_ +00_ A_
TnE +002_ +00_ A_
TnE +002_ +00_ A_
TnE +002_ +00_ A_

[Sample5]
TnE +000_ +00_ F_
TnE +000_ +00_ F_
tne +000_ +00_ 0_ L

[Sample6]
TnE -001_ +00_ F_ L

[Sample7]
TnE +006_ +00_ F_ L

[Sample8]
tNe +000_ +00_ F_
tNe +000_ +00_ B_
tNe +000_ +00_ 7_
tNe +000_ +00_ 6- L

[Sample9]
TnE +080_ +00_ F_
TnE +100_ +00_ E_
TnE +180_ +00_ E_
TnE +200_ +00_ E_
TnE +240_ +00_ D_
TnE +280_ +00_ D_
TnE +2C0_ +00_ D_
TnE +300_ +00_ C_
TnE +300_ +00_ C_
TnE +340_ +00_ C_
TnE +340_ +00_ C_
TnE +380_ +00_ B_
TnE +380_ +00_ B_
TnE +400_ +00_ B_
TnE +400_ +00_ B_
TnE +480_ +00_ A_
TnE +500_ +00_ 9_
TnE +580_ +00_ 7_
TnE +600_ +00_ 4_
TnE +680_ +00_ 1_
TnE +000_ +00_ 0_ L

[Sample10]
Tne +1C0_ +00_ F_
Tne +280_ +00_ E_
Tne +380_ +00_ C_
Tne +440_ +00_ A_
Tne +480_ +00_ 8_
TnE +000_ +00_ 0_ L

[Sample11]
TNe +200_ -0A_ F_
tNe +000_ +0F_ A_
TNe +200_ -07_ E_
tNe +000_ +0E_ B- L

[Sample12]
TNE +0A0_ +05_ F_
TNE +140_ +02_ D_
TNE +140_ +02_ B_
TNE +100_ +00_ A_ L
TNE +140_ +00_ A_
TNE +200_ +00_ A-

[Sample13]
Tne +200_ +00_ F_
Tne +2C0_ +00_ F_
Tne +380_ +00_ E_
Tne +500_ +00_ C_
Tne +520_ +00_ 9_
tne +000_ +00_ 0_ L

[Sample14]
TNE -100_ +00_ F_
TNE -100_ +00_ D_
TNE -100_ +00_ A_
TNE -100_ +00_ 5_
tne +000_ +00_ 0_ L

[Sample15]
TNE -100_ +00_ 5_
TNE -100_ +00_ 8_
TNE -100_ +00_ B_
TNE -100_ +00_ F_
TNe -100_ +00_ 9- L

[Sample16]
TnE +000_ +00_ C_
TnE +000_ +00_ E_
TnE +000_ +00_ F_
TnE +000_ +00_ F_
TnE +000_ +00_ E_
TnE +000_ +00_ D_
TnE +000_ +00_ C_
TnE +000_ +00_ C_ L
TnE +001_ +00_ C_
TnE +002_ +00_ C_
TnE +003_ +00_ C_
TnE +001_ +00_ C_
TnE +000_ +00_ C_
TnE -001_ +00_ C_
TnE -002_ +00_ C_
TnE -003_ +00_ C_
TnE -001_ +00_ C_
TnE +000_ +00_ C_
TnE +000_ +00_ C_

[Sample17]
Tne +1C0_ +00_ F_
Tne +280_ +00_ D_
Tne +380_ +00_ 7_
TNE +000_ +00_ 0_ L

[Sample18]
tnE +000_ +00_ 0_ L

[Sample19]
TNe +000_ +00_ F_
TNe +000_ +00_ C_
TNe +000_ +00_ 6_
TNe +000_ +01_ A- L

[Sample20]
TNE +140_ +00_ F_
tNE +000_ +00_ B- L

[Sample21]
tNE +000_ +00_ D_
tNE +000_ +00_ 8_
tNE +000_ +00_ 1_
TNE +000_ +00_ 0_ L

[Sample22]
TnE +000_ +00_ D_ L
TnE +000_ +00_ D_
tne +000_ +00_ 9_
tne +000_ +00_ 9_
TnE +000_ +00_ D_
TnE +000_ +00_ D_
tne +000_ +00_ 9_
tne +000_ +00_ 9_
TnE +000_ +00_ D_
TnE +000_ +00_ D_
TnE +000_ +00_ D_
TnE +000_ +00_ D_
TnE +000_ +00_ D_
TnE +000_ +00_ D_
tne +000_ +00_ 9_
tne +000_ +00_ 9_

[Sample23]
TnE +000_ +00_ F_ L
TnE +010_ +01_ F_
TnE +010_ +01_ F_
TnE +010_ +01_ F_
TnE +010_ +01_ F_
TnE +000_ +00_ F_
TnE +000_ +00_ F_
TnE -010_ -01_ F_
TnE -010_ -01_ F_
TnE -010_ -01_ F_
TnE -010_ -01_ F_
TnE +000_ +00_ F_

[Sample24]
TNe +000_ -01_ C_
TNe +000_ -01_ D_
TNe +000_ -01_ E_
TNe +000_ -01_ F_
TNe +000_ -01_ F_
TNe +000_ -01_ F_
TNe +000_ -01_ F_
TNe +000_ -01_ F_
TNe +000_ -01_ E_
TNe +000_ -01_ E_
TNe +000_ -01_ E_
TNe +000_ -01_ F_
TNe +000_ -01_ F_ L

[Sample25]
TNE +000_ +00_ F_
TNE +000_ +00_ F_ L
TNE +000_ +00_ F_
TNE +000_ +00_ F_
TNE +000_ +00_ F-

[Sample26]
tne +000_ +00_ 0_ L

[Sample27]
tne +000_ +00_ 0_ L

[Sample28]
tne +000_ +00_ 0_ L

[Sample29]
tne +000_ +00_ 0_ L

[Sample30]
TNE +000_ +00_ C+ L

[Sample31]
TNe +1C0_ +00_ F_
Tne +280_ +00_ E_
Tne +380_ +00_ C_
Tne +440_ +00_ A_
Tne +480_ +00_ 8_
TnE +000_ +00_ 0_ L

[Pattern0]
....|..|--- .... ....|--- .... ....|--- .... ....
....|..|--- .... ....|--- .... ....|--- .... ....
....|..|--- .... ....|--- .... ....|--- .... ....
....|..|--- .... ....|--- .... ....|--- .... ....
....|..|--- .... ....|--- .... ....|--- .... ....
....|..|--- .... ....|--- .... ....|--- .... ....
....|..|--- .... ....|--- .... ....|--- .... ....
....|..|--- .... ....|--- .... ....|--- .... ....
....|..|--- .... ....|--- .... ....|--- .... ....
....|..|--- .... ....|--- .... ....|--- .... ....
....|..|--- .... ....|--- .... ....|--- .... ....
....|..|--- .... ....|--- .... ....|--- .... ....
....|..|--- .... ....|--- .... ....|--- .... ....
....|..|--- .... ....|--- .... ....|--- .... ....
....|..|--- .... ....|--- .... ....|--- .... ....
....|..|--- .... ....|--- .... ....|--- .... ....
....|..|--- .... ....|--- .... ....|--- .... ....
....|..|--- .... ....|--- .... ....|--- .... ....
....|..|--- .... ....|--- .... ....|--- .... ....
....|..|--- .... ....|--- .... ....|--- .... ....
....|..|--- .... ....|--- .... ....|--- .... ....
....|..|--- .... ....|--- .... ....|--- .... ....
....|..|--- .... ....|--- .... ....|--- .... ....
....|..|--- .... ....|--- .... ....|--- .... ....
....|..|--- .... ....|--- .... ....|--- .... ....
....|..|--- .... ....|--- .... ....|--- .... ....
....|..|--- .... ....|--- .... ....|--- .... ....
....|..|--- .... ....|--- .... ....|--- .... ....
....|..|--- .... ....|--- .... ....|--- .... ....
....|..|--- .... ....|--- .... ....|--- .... ....
....|..|--- .... ....|--- .... ....|--- .... ....
....|..|--- .... ....|--- .... ....|--- .... ....
....|..|--- .... ....|--- .... ....|--- .... ....
....|..|--- .... ....|--- .... ....|--- .... ....
....|..|--- .... ....|--- .... ....|--- .... ....
....|..|--- .... ....|--- .... ....|--- .... ....
....|..|--- .... ....|--- .... ....|--- .... ....
....|..|--- .... ....|--- .... ....|--- .... ....
....|..|--- .... ....|--- .... ....|--- .... ....
....|..|--- .... ....|--- .... ....|--- .... ....
....|..|--- .... ....|--- .... ....|--- .... ....
....|..|--- .... ....|--- .... ....|--- .... ....
....|..|--- .... ....|--- .... ....|--- .... ....
....|..|--- .... ....|--- .... ....|--- .... ....
....|..|--- .... ....|--- .... ....|--- .... ....
....|..|--- .... ....|--- .... ....|--- .... ....
....|..|--- .... ....|--- .... ....|--- .... ....
....|..|--- .... ....|--- .... ....|--- .... ....
....|..|--- .... ....|--- .... ....|--- .... ....
....|..|--- .... ....|--- .... ....|--- .... ....
....|..|--- .... ....|--- .... ....|--- .... ....
....|..|--- .... ....|--- .... ....|--- .... ....
....|..|--- .... ....|--- .... ....|--- .... ....
....|..|--- .... ....|--- .... ....|--- .... ....
....|..|--- .... ....|--- .... ....|--- .... ....
....|..|--- .... ....|--- .... ....|--- .... ....
....|..|--- .... ....|--- .... ....|--- .... ....
....|..|--- .... ....|--- .... ....|--- .... ....
....|..|--- .... ....|--- .... ....|--- .... ....
....|..|--- .... ....|--- .... ....|--- .... ....
....|..|--- .... ....|--- .... ....|--- .... ....
....|..|--- .... ....|--- .... ....|--- .... ....
....|..|--- .... ....|--- .... ....|--- .... ....
....|..|--- .... ....|--- .... ....|--- .... ....

[Pattern1]
....|..|--- .... ....|--- .... ....|--- .... ....
....|..|--- .... ....|--- .... ....|--- .... ....
....|..|--- .... ....|--- .... ....|--- .... ....
....|..|--- .... ....|--- .... ....|--- .... ....
....|..|--- .... ....|--- .... ....|--- .... ....
....|..|--- .... ....|--- .... ....|--- .... ....
....|..|--- .... ....|--- .... ....|--- .... ....
....|..|--- .... ....|--- .... ....|--- .... ....
....|..|--- .... ....|--- .... ....|--- .... ....
....|..|--- .... ....|--- .... ....|--- .... ....
....|..|--- .... ....|--- .... ....|--- .... ....
....|..|--- .... ....|--- .... ....|--- .... ....
....|..|--- .... ....|--- .... ....|--- .... ....
....|..|--- .... ....|--- .... ....|--- .... ....
....|..|--- .... ....|--- .... ....|--- .... ....
....|..|--- .... ....|--- .... ....|--- .... ....
....|..|--- .... ....|--- .... ....|--- .... ....
....|..|--- .... ....|--- .... ....|--- .... ....
....|..|--- .... ....|--- .... ....|--- .... ....
....|..|--- .... ....|--- .... ....|--- .... ....
....|..|--- .... ....|--- .... ....|--- .... ....
....|..|--- .... ....|--- .... ....|--- .... ....
....|..|--- .... ....|--- .... ....|--- .... ....
....|..|--- .... ....|--- .... ....|--- .... ....
....|..|--- .... ....|--- .... ....|--- .... ....
....|..|--- .... ....|--- .... ....|--- .... ....
....|..|--- .... ....|--- .... ....|--- .... ....
....|..|--- .... ....|--- .... ....|--- .... ....
....|..|--- .... ....|--- .... ....|--- .... ....
....|..|--- .... ....|--- .... ....|--- .... ....
....|..|--- .... ....|--- .... ....|--- .... ....
....|..|--- .... ....|--- .... ....|--- .... ....
....|..|--- .... ....|--- .... ....|--- .... ....
....|..|--- .... ....|--- .... ....|--- .... ....
....|..|--- .... ....|--- .... ....|--- .... ....
....|..|--- .... ....|--- .... ....|--- .... ....
....|..|--- .... ....|--- .... ....|--- .... ....
....|..|--- .... ....|--- .... ....|--- .... ....
....|..|--- .... ....|--- .... ....|--- .... ....
....|..|--- .... ....|--- .... ....|--- .... ....
....|..|--- .... ....|--- .... ....|--- .... ....
....|..|--- .... ....|--- .... ....|--- .... ....
....|..|--- .... ....|--- .... ....|--- .... ....
....|..|--- .... ....|--- .... ....|--- .... ....
....|..|--- .... ....|--- .... ....|--- .... ....
....|..|--- .... ....|--- .... ....|--- .... ....
....|..|--- .... ....|--- .... ....|--- .... ....
....|..|--- .... ....|--- .... ....|--- .... ....
....|..|--- .... ....|--- .... ....|--- .... ....
....|..|--- .... ....|--- .... ....|--- .... ....
....|..|--- .... ....|--- .... ....|--- .... ....
....|..|--- .... ....|--- .... ....|--- .... ....
....|..|--- .... ....|--- .... ....|--- .... ....
....|..|--- .... ....|--- .... ....|--- .... ....
....|..|--- .... ....|--- .... ....|--- .... ....
....|..|--- .... ....|--- .... ....|--- .... ....
....|..|--- .... ....|--- .... ....|--- .... ....
....|..|--- .... ....|--- .... ....|--- .... ....
....|..|--- .... ....|--- .... ....|--- .... ....
....|..|--- .... ....|--- .... ....|--- .... ....
....|..|--- .... ....|--- .... ....|--- .... ....
....|..|--- .... ....|--- .... ....|--- .... ....
....|..|--- .... ....|--- .... ....|--- .... ....
....|..|--- .... ....|--- .... ....|--- .... ....

[Pattern2]
....|..|--- .... ....|--- .... ....|--- .... ....
....|..|--- .... ....|--- .... ....|--- .... ....
....|..|--- .... ....|--- .... ....|--- .... ....
....|..|--- .... ....|--- .... ....|--- .... ....
....|..|--- .... ....|--- .... ....|--- .... ....
....|..|--- .... ....|--- .... ....|--- .... ....
....|..|--- .... ....|--- .... ....|--- .... ....
....|..|--- .... ....|--- .... ....|--- .... ....
....|..|--- .... ....|--- .... ....|--- .... ....
....|..|--- .... ....|--- .... ....|--- .... ....
....|..|--- .... ....|--- .... ....|--- .... ....
....|..|--- .... ....|--- .... ....|--- .... ....
....|..|--- .... ....|--- .... ....|--- .... ....
....|..|--- .... ....|--- .... ....|--- .... ....
....|..|--- .... ....|--- .... ....|--- .... ....
....|..|--- .... ....|--- .... ....|--- .... ....
....|..|--- .... ....|--- .... ....|--- .... ....
....|..|--- .... ....|--- .... ....|--- .... ....
....|..|--- .... ....|--- .... ....|--- .... ....
....|..|--- .... ....|--- .... ....|--- .... ....
....|..|--- .... ....|--- .... ....|--- .... ....
....|..|--- .... ....|--- .... ....|--- .... ....
....|..|--- .... ....|--- .... ....|--- .... ....
....|..|--- .... ....|--- .... ....|--- .... ....
....|..|--- .... ....|--- .... ....|--- .... ....
....|..|--- .... ....|--- .... ....|--- .... ....
....|..|--- .... ....|--- .... ....|--- .... ....
....|..|--- .... ....|--- .... ....|--- .... ....
....|..|--- .... ....|--- .... ....|--- .... ....
....|..|--- .... ....|--- .... ....|--- .... ....
....|..|--- .... ....|--- .... ....|--- .... ....
....|..|--- .... ....|--- .... ....|--- .... ....
....|..|--- .... ....|--- .... ....|--- .... ....
....|..|--- .... ....|--- .... ....|--- .... ....
....|..|--- .... ....|--- .... ....|--- .... ....
....|..|--- .... ....|--- .... ....|--- .... ....
....|..|--- .... ....|--- .... ....|--- .... ....
....|..|--- .... ....|--- .... ....|--- .... ....
....|..|--- .... ....|--- .... ....|--- .... ....
....|..|--- .... ....|--- .... ....|--- .... ....
....|..|--- .... ....|--- .... ....|--- .... ....
....|..|--- .... ....|--- .... ....|--- .... ....
....|..|--- .... ....|--- .... ....|--- .... ....
....|..|--- .... ....|--- .... ....|--- .... ....
....|..|--- .... ....|--- .... ....|--- .... ....
....|..|--- .... ....|--- .... ....|--- .... ....
....|..|--- .... ....|--- .... ....|--- .... ....
....|..|--- .... ....|--- .... ....|--- .... ....
....|..|--- .... ....|--- .... ....|--- .... ....
....|..|--- .... ....|--- .... ....|--- .... ....
....|..|--- .... ....|--- .... ....|--- .... ....
....|..|--- .... ....|--- .... ....|--- .... ....
....|..|--- .... ....|--- .... ....|--- .... ....
....|..|--- .... ....|--- .... ....|--- .... ....
....|..|--- .... ....|--- .... ....|--- .... ....
....|..|--- .... ....|--- .... ....|--- .... ....
....|..|--- .... ....|--- .... ....|--- .... ....
....|..|--- .... ....|--- .... ....|--- .... ....
....|..|--- .... ....|--- .... ....|--- .... ....
....|..|--- .... ....|--- .... ....|--- .... ....
....|..|--- .... ....|--- .... ....|--- .... ....
....|..|--- .... ....|--- .... ....|--- .... ....
....|..|--- .... ....|--- .... ....|--- .... ....
....|..|--- .... ....|--- .... ....|--- .... ....

[Pattern3]
....|..|--- .... ....|--- .... ....|--- .... ....
....|..|--- .... ....|--- .... ....|--- .... ....
....|..|--- .... ....|--- .... ....|--- .... ....
....|..|--- .... ....|--- .... ....|--- .... ....
....|..|--- .... ....|--- .... ....|--- .... ....
....|..|--- .... ....|--- .... ....|--- .... ....
....|..|--- .... ....|--- .... ....|--- .... ....
....|..|--- .... ....|--- .... ....|--- .... ....
....|..|--- .... ....|--- .... ....|--- .... ....
....|..|--- .... ....|--- .... ....|--- .... ....
....|..|--- .... ....|--- .... ....|--- .... ....
....|..|--- .... ....|--- .... ....|--- .... ....
....|..|--- .... ....|--- .... ....|--- .... ....
....|..|--- .... ....|--- .... ....|--- .... ....
....|..|--- .... ....|--- .... ....|--- .... ....
....|..|--- .... ....|--- .... ....|--- .... ....
....|..|--- .... ....|--- .... ....|--- .... ....
....|..|--- .... ....|--- .... ....|--- .... ....
....|..|--- .... ....|--- .... ....|--- .... ....
....|..|--- .... ....|--- .... ....|--- .... ....
....|..|--- .... ....|--- .... ....|--- .... ....
....|..|--- .... ....|--- .... ....|--- .... ....
....|..|--- .... ....|--- .... ....|--- .... ....
....|..|--- .... ....|--- .... ....|--- .... ....
....|..|--- .... ....|--- .... ....|--- .... ....
....|..|--- .... ....|--- .... ....|--- .... ....
....|..|--- .... ....|--- .... ....|--- .... ....
....|..|--- .... ....|--- .... ....|--- .... ....
....|..|--- .... ....|--- .... ....|--- .... ....
....|..|--- .... ....|--- .... ....|--- .... ....
....|..|--- .... ....|--- .... ....|--- .... ....
....|..|--- .... ....|--- .... ....|--- .... ....
....|..|--- .... ....|--- .... ....|--- .... ....
....|..|--- .... ....|--- .... ....|--- .... ....
....|..|--- .... ....|--- .... ....|--- .... ....
....|..|--- .... ....|--- .... ....|--- .... ....
....|..|--- .... ....|--- .... ....|--- .... ....
....|..|--- .... ....|--- .... ....|--- .... ....
....|..|--- .... ....|--- .... ....|--- .... ....
....|..|--- .... ....|--- .... ....|--- .... ....
....|..|--- .... ....|--- .... ....|--- .... ....
....|..|--- .... ....|--- .... ....|--- .... ....
....|..|--- .... ....|--- .... ....|--- .... ....
....|..|--- .... ....|--- .... ....|--- .... ....
....|..|--- .... ....|--- .... ....|--- .... ....
....|..|--- .... ....|--- .... ....|--- .... ....
....|..|--- .... ....|--- .... ....|--- .... ....
....|..|--- .... ....|--- .... ....|--- .... ....
....|..|--- .... ....|--- .... ....|--- .... ....
....|..|--- .... ....|--- .... ....|--- .... ....
....|..|--- .... ....|--- .... ....|--- .... ....
....|..|--- .... ....|--- .... ....|--- .... ....
....|..|--- .... ....|--- .... ....|--- .... ....
....|..|--- .... ....|--- .... ....|--- .... ....
....|..|--- .... ....|--- .... ....|--- .... ....
....|..|--- .... ....|--- .... ....|--- .... ....
....|..|--- .... ....|--- .... ....|--- .... ....
....|..|--- .... ....|--- .... ....|--- .... ....
....|..|--- .... ....|--- .... ....|--- .... ....
....|..|--- .... ....|--- .... ....|--- .... ....
....|..|--- .... ....|--- .... ....|--- .... ....
....|..|--- .... ....|--- .... ....|--- .... ....
....|..|--- .... ....|--- .... ....|--- .... ....
....|..|--- .... ....|--- .... ....|--- .... ....

[Pattern4]
....|..|--- .... ....|--- .... ....|C-4 DF.F ....
....|..|--- .... ....|--- .... ....|--- .... ....
....|..|--- .... ....|--- .... ....|C-4 L..B ....
....|..|--- .... ....|--- .... ....|--- .... ....
....|..|--- .... ....|--- .... ....|C-4 K..B ....
....|..|--- .... ....|--- .... ....|--- .... ....
....|..|--- .... ....|--- .... ....|C-4 D..F ....
....|..|--- .... ....|--- .... ....|--- .... ....
....|..|--- .... ....|--- .... ....|C-4 L..B ....
....|..|--- .... ....|--- .... ....|--- .... ....
....|..|--- .... ....|--- .... ....|--- ...F ....
....|..|--- .... ....|--- .... ....|--- .... ....
....|..|--- .... ....|--- .... ....|C-4 K..F ....
....|..|--- .... ....|--- .... ....|C-4 L... ....
....|..|--- .... ....|--- .... ....|C-4 K..B ....
....|..|--- .... ....|--- .... ....|C-4 L... ....
....|..|--- .... ....|--- .... ....|C-4 D..B ....
....|..|--- .... ....|--- .... ....|--- .... ....
....|..|--- .... ....|--- .... ....|E-4 E..F ....
....|..|--- .... ....|--- .... ....|--- .... ....
....|..|--- .... ....|--- .... ....|C-4 A..B ....
....|..|--- .... ....|--- .... ....|--- .... ....
....|..|--- .... ....|--- .... ....|C-4 L..F ....
....|..|--- .... ....|--- .... ....|--- .... ....
....|..|--- .... ....|--- .... ....|E-4 E..F ....
....|..|--- .... ....|--- .... ....|--- .... ....
....|..|--- .... ....|--- .... ....|--- ...B ....
....|..|--- .... ....|--- .... ....|--- .... ....
....|..|--- .... ....|--- .... ....|C-4 K..B ....
....|..|--- .... ....|--- .... ....|--- .... ....
....|..|--- .... ....|--- .... ....|C-4 L..F ....
....|..|--- .... ....|--- .... ....|--- .... ....
....|..|--- .... ....|--- .... ....|C-4 DF.F ....
....|..|--- .... ....|--- .... ....|--- .... ....
....|..|--- .... ....|--- .... ....|C-4 L..B ....
....|..|--- .... ....|--- .... ....|--- .... ....
....|..|--- .... ....|--- .... ....|C-4 K..B ....
....|..|--- .... ....|--- .... ....|--- .... ....
....|..|--- .... ....|--- .... ....|C-4 D..F ....
....|..|--- .... ....|--- .... ....|--- .... ....
....|..|--- .... ....|--- .... ....|C-4 L..B ....
....|..|--- .... ....|--- .... ....|--- .... ....
....|..|--- .... ....|--- .... ....|--- ...F ....
....|..|--- .... ....|--- .... ....|--- .... ....
....|..|--- .... ....|--- .... ....|C-4 K..F ....
....|..|--- .... ....|--- .... ....|C-4 L... ....
....|..|--- .... ....|--- .... ....|C-4 K..B ....
....|..|--- .... ....|--- .... ....|C-4 L... ....
....|..|--- .... ....|--- .... ....|C-4 D..B ....
....|..|--- .... ....|--- .... ....|--- .... ....
....|..|--- .... ....|--- .... ....|E-4 E..F ....
....|..|--- .... ....|--- .... ....|--- .... ....
....|..|--- .... ....|--- .... ....|C-4 A..B ....
....|..|--- .... ....|--- .... ....|--- .... ....
....|..|--- .... ....|--- .... ....|C-4 L..F ....
....|..|--- .... ....|--- .... ....|--- .... ....
....|..|--- .... ....|--- .... ....|E-4 E..F ....
....|..|--- .... ....|--- .... ....|--- .... ....
....|..|--- .... ....|--- .... ....|--- ...B ....
....|..|--- .... ....|--- .... ....|--- .... ....
....|..|--- .... ....|D#5 UFAF ....|C-4 K..B ....
....|..|--- .... ....|--- .... ....|--- .... ....
....|..|--- .... ....|E-5 ...F ....|C-4 L..F ....
....|..|--- .... ....|--- .... ....|--- .... ....

[Pattern5]
....|..|--- .... ....|F-5 ...F ....|C-4 DF.F ....
....|..|--- .... ....|--- .... ....|--- .... ....
....|..|--- .... ....|R-- .... ....|C-4 L..B ....
....|..|--- .... ....|--- .... ....|--- .... ....
....|..|D#5 UFAF ....|E-5 ...A ....|C-4 K..B ....
....|..|--- .... ....|--- .... ....|--- .... ....
....|..|F-5 ...F ....|F-5 ...A ....|C-4 D..F ....
....|..|--- .... ....|--- .... ....|--- .... ....
....|..|R-- .... ....|--- .... ....|C-4 L..B ....
....|..|--- .... ....|--- .... ....|--- .... ....
....|..|D#5 ...F ....|--- .... ....|--- ...F ....
....|..|--- .... ....|--- .... ....|--- .... ....
....|..|F-5 ...F ....|F-5 ...F ....|C-4 K..F ....
....|..|--- .... ....|--- .... ....|C-4 L... ....
....|..|R-- .... ....|D#5 ...F ....|C-4 K..B ....
....|..|--- .... ....|--- .... ....|C-4 L... ....
....|..|D#5 ...A ....|R-- .... ....|C-4 D..B ....
....|..|--- .... ....|--- .... ....|--- .... ....
....|..|F-5 ...A ....|F-5 ...A ....|E-4 E..F ....
....|..|--- .... ....|--- .... ....|--- .... ....
 C#3|..|F-5 ...F ....|D#5 ...A ....|C-2 A..B ....
....|..|--- .... ....|--- .... ....|--- .... ....
....|..|D#5 ...F ....|--- .... ....|C-4 L..F ....
....|..|--- .... ....|--- .... ....|--- .... ....
....|..|R-- .... ....|--- .... ....|E-4 E..F ....
....|..|--- .... ....|--- .... ....|--- .... ....
....|..|F-5 ...F ....|--- .... ....|--- ...B ....
....|..|--- .... ....|--- .... ....|--- .... ....
....|..|D#5 ...F ....|D#5 ...F ....|C-4 K..B ....
....|..|--- .... ....|--- .... ....|--- .... ....
....|..|R-- .... ....|E-5 ...F ....|C-4 L..F ....
....|..|--- .... ....|--- .... ....|--- .... ....
....|..|F-5 ...A ....|F-5 ...F ....|C-4 DF.F ....
....|..|--- .... ....|--- .... ....|--- .... ....
....|..|D#5 ...A ....|R-- .... ....|C-4 L..B ....
....|..|--- .... ....|--- .... ....|--- .... ....
....|..|D#5 ...F ....|E-5 ...A ....|C-4 K..B ....
....|..|--- .... ....|--- .... ....|--- .... ....
....|..|F-5 ...F ....|F-5 ...A ....|C-4 D..F ....
....|..|--- .... ....|--- .... ....|--- .... ....
....|..|R-- .... ....|--- .... ....|C-4 L..B ....
....|..|--- .... ....|--- .... ....|--- .... ....
....|..|D#5 ...F ....|--- .... ....|--- ...F ....
....|..|--- .... ....|--- .... ....|--- .... ....
 C#3|..|F-5 ...F ....|F-5 ...F ....|C-4 K..F ....
....|..|--- .... ....|--- .... ....|C-4 L... ....
....|..|R-- .... ....|D#5 ...F ....|C-4 K..B ....
....|..|--- .... ....|--- .... ....|C-4 L... ....
....|..|D#5 ...A ....|R-- .... ....|C-4 D..B ....
....|..|--- .... ....|--- .... ....|--- .... ....
 C#4|..|F-5 ...A ....|F-5 ...A ....|E-4 E..F ....
....|..|--- .... ....|--- .... ....|--- .... ....
....|..|F-5 ...F ....|D#5 ...A ....|C-4 A..B ....
....|..|--- .... ....|--- .... ....|--- .... ....
....|..|D#5 ...F ....|--- .... ....|C-4 L..F ....
....|..|--- .... ....|--- .... ....|--- .... ....
....|..|R-- .... ....|--- .... ....|E-4 E..F ....
....|..|--- .... ....|--- .... ....|--- .... ....
....|..|F-5 ...F ....|--- .... ....|--- ...B ....
....|..|--- .... ....|--- .... ....|--- .... ....
....|..|D#5 ...F ....|--- .... ....|C-4 K..B ....
....|..|--- .... ....|--- .... ....|--- .... ....
....|..|R-- .... ....|--- .... ....|C-4 L..F ....
....|..|--- .... ....|--- .... ....|--- .... ....

[Pattern6]
....|..|F-5 ...A ....|F-5 ...F ....|C-4 DF.F ....
....|..|--- .... ....|--- .... ....|--- .... ....
....|..|D#5 ...A ....|R-- .... ....|C-4 L..B ....
....|..|--- .... ....|--- .... ....|--- .... ....
....|..|D#5 ...F ....|--- .... ....|C-4 K..B ....
....|..|--- .... ....|--- .... ....|--- .... ....
....|..|F-5 ...F ....|F-5 ...A ....|C-4 D..F ....
....|..|--- .... ....|--- .... ....|--- .... ....
....|..|R-- .... ....|--- .... ....|C-4 L..B ....
....|..|--- .... ....|--- .... ....|--- .... ....
....|..|D#5 ...F ....|--- .... ....|--- ...F ....
....|..|--- .... ....|--- .... ....|--- .... ....
....|..|F-5 ...F ....|F-5 ...F ....|C-4 K..F ....
....|..|--- .... ....|--- .... ....|C-4 L... ....
....|..|R-- .... ....|D#5 ...F ....|C-4 K..B ....
....|..|--- .... ....|--- .... ....|C-4 L... ....
....|..|D#5 ...A ....|R-- .... ....|C-4 D..B ....
....|..|--- .... ....|--- .... ....|--- .... ....
....|..|F-5 ...A ....|F-5 ...A ....|E-4 E..F ....
....|..|--- .... ....|--- .... ....|--- .... ....
....|..|F-5 ...F ....|D#5 ...A ....|C-4 A..B ....
....|..|--- .... ....|--- .... ....|--- .... ....
....|..|D#5 ...F ....|--- .... ....|C-4 L..F ....
....|..|--- .... ....|--- .... ....|--- .... ....
....|..|R-- .... ....|--- .... ....|E-4 E..F ....
....|..|--- .... ....|--- .... ....|--- .... ....
....|..|F-5 ...F ....|--- .... ....|--- ...B ....
....|..|--- .... ....|--- .... ....|--- .... ....
....|..|D#5 ...F ....|D#5 ...F ....|C-4 K..B ....
....|..|--- .... ....|--- .... ....|--- .... ....
....|..|R-- .... ....|E-5 ...F ....|C-4 L..F ....
....|..|--- .... ....|--- .... ....|--- .... ....
....|..|F-5 ...A ....|F-5 ...F ....|C-4 DF.F ....
....|..|--- .... ....|--- .... ....|--- .... ....
....|..|D#5 ...A ....|R-- .... ....|C-4 L..B ....
....|..|--- .... ....|--- .... ....|--- .... ....
....|..|D#5 ...F ....|E-5 ...A ....|C-4 K..B ....
....|..|--- .... ....|--- .... ....|--- .... ....
....|..|F-5 ...F ....|F-5 ...A ....|C-4 D..F ....
....|..|--- .... ....|--- .... ....|--- .... ....
....|..|R-- .... ....|--- .... ....|C-4 L..B ....
....|..|--- .... ....|--- .... ....|--- .... ....
....|..|D#5 ...F ....|--- .... ....|--- ...F ....
....|..|--- .... ....|--- .... ....|--- .... ....
....|..|F-5 ...F ....|F-5 ...F ....|C-4 K..F ....
....|..|--- .... ....|--- .... ....|C-4 L... ....
....|..|R-- .... ....|D#5 ...F ....|C-4 K..B ....
....|..|--- .... ....|--- .... ....|C-4 L... ....
....|..|D#5 ...A ....|R-- .... ....|C-4 D..B ....
....|..|--- .... ....|--- .... ....|--- .... ....
....|..|F-5 ...A ....|F-5 ...A ....|E-4 E..F ....
....|..|--- .... ....|--- .... ....|--- .... ....
....|..|F-5 ...F ....|D#5 ...A ....|C-4 A..B ....
....|..|--- .... ....|--- .... ....|--- .... ....
....|..|D#5 ...F ....|--- .... ....|C-4 L..F ....
....|..|--- .... ....|--- .... ....|--- .... ....
....|..|R-- .... ....|--- .... ....|E-4 E..F ....
....|..|--- .... ....|--- .... ....|--- .... ....
....|..|F-5 ...F ....|--- .... ....|--- ...B ....
....|..|--- .... ....|--- .... ....|--- .... ....
....|..|D#5 ...F ....|--- .... ....|C-4 K..B ....
....|..|--- .... ....|--- .... ....|--- .... ....
....|..|R-- .... ....|--- .... ....|C-4 L..F ....
....|..|--- .... ....|--- .... ....|--- .... ....

[Pattern7]
....|..|F-5 ...A ....|F-5 ...F ....|C-4 DF.F ....
....|..|--- .... ....|--- .... ....|--- .... ....
....|..|D#5 ...A ....|R-- .... ....|C-4 L..B ....
....|..|--- .... ....|--- .... ....|--- .... ....
....|..|D#5 ...F ....|--- .... ....|C-4 K..B ....
....|..|--- .... ....|--- .... ....|--- .... ....
....|..|F-5 ...F ....|F-5 ...A ....|C-4 D..F ....
....|..|--- .... ....|--- .... ....|--- .... ....
....|..|R-- .... ....|--- .... ....|C-4 L..B ....
....|..|--- .... ....|--- .... ....|--- .... ....
....|..|D#5 ...F ....|--- .... ....|--- ...F ....
....|..|--- .... ....|--- .... ....|--- .... ....
....|..|F-5 ...F ....|F-5 ...F ....|C-4 K..F ....
....|..|--- .... ....|--- .... ....|C-4 L... ....
....|..|R-- .... ....|D#5 ...F ....|C-4 K..B ....
....|..|--- .... ....|--- .... ....|C-4 L... ....
....|..|D#5 ...A ....|R-- .... ....|C-4 D..B ....
....|..|--- .... ....|--- .... ....|--- .... ....
....|..|F-5 ...A ....|F-5 ...A ....|E-4 E..F ....
....|..|--- .... ....|--- .... ....|--- .... ....
....|..|F-5 ...F ....|D#5 ...A ....|C-4 A..B ....
....|..|--- .... ....|--- .... ....|--- .... ....
....|..|D#5 ...F ....|--- .... ....|C-4 L..F ....
....|..|--- .... ....|--- .... ....|--- .... ....
....|..|R-- .... ....|--- .... ....|E-4 E..F ....
....|..|--- .... ....|--- .... ....|--- .... ....
....|..|F-5 ...F ....|--- .... ....|--- ...B ....
....|..|--- .... ....|--- .... ....|--- .... ....
....|..|D#5 ...F ....|D#5 ...F ....|C-4 K..B ....
....|..|--- .... ....|--- .... ....|--- .... ....
....|..|R-- .... ....|E-5 ...F ....|C-4 L..F ....
....|..|--- .... ....|--- .... ....|--- .... ....
....|..|F-5 ...A ....|F-5 ...F ....|C-4 DF.F ....
....|..|--- .... ....|--- .... ....|--- .... ....
....|..|D#5 ...A ....|R-- .... ....|C-4 L..B ....
....|..|--- .... ....|--- .... ....|--- .... ....
....|..|D#5 ...F ....|E-5 ...A ....|C-4 K..B ....
....|..|--- .... ....|--- .... ....|--- .... ....
....|..|F-5 ...F ....|F-5 ...A ....|C-4 D..F ....
....|..|--- .... ....|--- .... ....|--- .... ....
....|..|R-- .... ....|--- .... ....|C-4 L..B ....
....|..|--- .... ....|--- .... ....|--- .... ....
....|..|D#5 ...F ....|--- .... ....|--- ...F ....
....|..|--- .... ....|--- .... ....|--- .... ....
....|..|F-5 ...F ....|F-5 ...F ....|C-4 K..F ....
....|..|--- .... ....|--- .... ....|C-4 L... ....
....|..|R-- .... ....|D#5 ...F ....|C-4 K..B ....
....|..|--- .... ....|--- .... ....|C-4 L... ....
....|..|D#5 ...A ....|R-- .... ....|C-4 D..B ....
....|..|--- .... ....|--- .... ....|--- .... ....
....|..|F-5 ...A ....|F-5 ...A ....|E-4 E..F ....
....|..|--- .... ....|--- .... ....|--- .... ....
....|..|F-5 ...F ....|D#5 ...A ....|C-4 A..B ....
....|..|--- .... ....|--- .... ....|--- .... ....
....|..|D#5 ...F ....|--- .... ....|C-4 L..F ....
....|..|--- .... ....|--- .... ....|--- .... ....
....|..|R-- .... ....|--- .... ....|E-4 E..F ....
....|..|--- .... ....|--- .... ....|--- .... ....
....|..|F-5 ...F ....|--- .... ....|--- ...B ....
....|..|--- .... ....|--- .... ....|--- .... ....
....|..|D#5 ...F ....|--- .... ....|C-4 K..B ....
....|..|--- .... ....|--- .... ....|--- .... ....
....|..|R-- .... ....|--- .... ....|C-4 L..F ....
....|..|--- .... ....|--- .... ....|--- .... ....

[Pattern8]
....|..|F-5 ...A ....|F-5 ...F ....|C-4 DF.F ....
....|..|--- .... ....|--- .... ....|--- .... ....
....|..|D#5 ...A ....|R-- .... ....|C-4 L..B ....
....|..|--- .... ....|--- .... ....|--- .... ....
....|..|D#5 ...F ....|--- .... ....|C-4 K..B ....
....|..|--- .... ....|--- .... ....|--- .... ....
....|..|F-5 ...F ....|F-5 ...A ....|C-4 D..F ....
....|..|--- .... ....|--- .... ....|--- .... ....
....|..|R-- .... ....|--- .... ....|C-4 L..B ....
....|..|--- .... ....|--- .... ....|--- .... ....
....|..|D#5 ...F ....|--- .... ....|--- ...F ....
....|..|--- .... ....|--- .... ....|--- .... ....
....|..|F-5 ...F ....|F-5 ...F ....|C-4 K..F ....
....|..|--- .... ....|--- .... ....|C-4 L... ....
....|..|R-- .... ....|D#5 ...F ....|C-4 K..B ....
....|..|--- .... ....|--- .... ....|C-4 L... ....
....|..|D#5 ...A ....|R-- .... ....|C-4 D..B ....
....|..|--- .... ....|--- .... ....|--- .... ....
....|..|F-5 ...A ....|F-5 ...A ....|E-4 E..F ....
....|..|--- .... ....|--- .... ....|--- .... ....
....|..|F-5 ...F ....|D#5 ...A ....|C-4 A..B ....
....|..|--- .... ....|--- .... ....|--- .... ....
....|..|D#5 ...F ....|--- .... ....|C-4 L..F ....
....|..|--- .... ....|--- .... ....|--- .... ....
....|..|R-- .... ....|--- .... ....|E-4 E..F ....
....|..|--- .... ....|--- .... ....|--- .... ....
....|..|F-5 ...F ....|--- .... ....|--- ...B ....
....|..|--- .... ....|--- .... ....|--- .... ....
....|.1|D#5 ...F ....|D#5 ...F ....|C-4 K..B ....
....|.1|--- .... ....|--- .... ....|--- .... ....
....|.1|R-- .... ....|E-5 ...F ....|C-4 L..F ....
....|.1|--- .... ....|--- .... ....|--- .... ....
....|.2|F-5 ...A ....|F-5 ...F ....|C-4 DF.F ....
....|.2|--- .... ....|--- .... ....|--- .... ....
....|.2|D#5 ...A ....|R-- .... ....|C-4 L..B ....
....|.2|--- .... ....|--- .... ....|--- .... ....
....|.3|D#5 ...F ....|E-5 ...A ....|C-4 K..B ....
....|.3|--- .... ....|--- .... ....|--- .... ....
....|.3|F-5 ...F ....|F-5 ...A ....|C-4 D..F ....
....|.3|--- .... ....|--- .... ....|--- .... ....
....|.4|R-- .... ....|--- .... ....|C-4 L..B ....
....|.4|--- .... ....|--- .... ....|--- .... ....
....|.4|D#5 ...F ....|--- .... ....|--- ...F ....
....|.4|--- .... ....|--- .... ....|--- .... ....
....|.5|F-5 ...F ....|F-5 ...F ....|C-4 K..F ....
....|.5|--- .... ....|--- .... ....|C-4 L... ....
....|.5|R-- .... ....|D#5 ...F ....|C-4 K..B ....
....|.5|--- .... ....|--- .... ....|C-4 L... ....
....|.6|D#5 ...A ....|R-- .... ....|C-4 D..B ....
....|.6|--- .... ....|--- .... ....|--- .... ....
....|.6|F-5 ...A ....|F-5 ...A ....|E-4 E..F ....
....|.6|--- .... ....|--- .... ....|--- .... ....
....|.7|F-5 ...F ....|D#5 ...A ....|C-4 A..B ....
....|.7|--- .... ....|--- .... ....|--- .... ....
....|.7|D#5 ...F ....|--- .... ....|C-4 L..F ....
....|.7|--- .... ....|--- .... ....|--- .... ....
....|.8|R-- .... ....|--- .... ....|E-4 E..F ....
....|.8|--- .... ....|--- .... ....|--- .... ....
....|.8|F-5 ...F ....|D#5 2FAF ....|--- ...B ....
....|.8|--- .... ....|R-- .... ....|--- .... ....
....|.9|D#5 ...F ....|D#5 ...F ....|C-4 K..B ....
....|.9|--- .... ....|R-- .... ....|--- .... ....
....|.9|R-- .... ....|E-5 ...F ....|C-4 L..F ....
....|.9|--- .... ....|R-- .... ....|--- .... ....

[Pattern9]
....|..|F-5 UFEA ....|F-5 ...F ....|G#3 AF.F ....
....|..|--- .... ....|R-- .... ....|--- .... ....
 G#4|..|D#5 ...A ....|D#5 ...A ....|--- .... ....
....|..|--- .... ....|--- .... ....|--- .... ....
 G#2|..|D#5 ...F ....|G#4 ...F ....|G#1 7A.. ....
....|..|--- .... ....|R-- .... ....|--- .... ....
 G#3|..|F-5 ...F ....|F-5 ...A ....|--- .... ....
....|..|--- .... ....|--- .... ....|--- .... ....
 G#3|..|R-- .... ....|--- .... ....|G#3 AF.F ....
....|..|--- .... ....|--- .... ....|--- .... ....
 G#3|..|D#5 ...F ....|G#4 ...A ....|--- .... ....
....|..|--- .... ....|--- .... ....|--- .... ....
 G#2|..|F-5 ...F ....|F-5 ...F ....|G#1 7A.. ....
....|..|--- .... ....|R-- .... ....|--- .... ....
 G#3|..|R-- .... ....|D#5 ...F ....|--- .... ....
....|..|--- .... ....|R-- .... ....|--- .... ....
....|..|D#5 ...A ....|--- .... ....|G-3 AF.F ....
....|..|--- .... ....|--- .... ....|--- .... ....
 G-4|..|F-5 ...A ....|G-4 ...F ....|--- .... ....
....|..|--- .... ....|R-- .... ....|--- .... ....
 G-2|..|F-5 ...F ....|D#5 ...A ....|G-1 7A.. ....
....|..|--- .... ....|--- .... ....|--- .... ....
 G-3|..|D#5 ...F ....|--- .... ....|--- .... ....
....|..|--- .... ....|--- .... ....|--- .... ....
 G-3|..|R-- .... ....|G-4 ...A ....|G-3 AF.F ....
....|..|--- .... ....|--- .... ....|--- .... ....
 G-3|..|F-5 ...F ....|--- .... ....|--- .... ....
....|..|--- .... ....|--- .... ....|--- .... ....
 G-2|..|D#5 ...F ....|D#5 ...F ....|G-1 7A.. ....
....|..|--- .... ....|R-- .... ....|--- .... ....
 G-3|..|R-- .... ....|E-5 ...F ....|--- .... ....
....|..|--- .... ....|R-- .... ....|--- .... ....
....|..|F-5 ...A ....|F-5 ...F ....|G#3 AF.F ....
....|..|--- .... ....|R-- .... ....|--- .... ....
 G#4|..|D#5 ...A ....|D#5 ...A ....|--- .... ....
....|..|--- .... ....|--- .... ....|--- .... ....
 G#3|..|D#5 ...F ....|G#4 ...F ....|G#2 7A.. ....
....|..|--- .... ....|R-- .... ....|--- .... ....
 G#3|..|F-5 ...F ....|F-5 ...A ....|--- .... ....
....|..|--- .... ....|--- .... ....|--- .... ....
 G#3|..|R-- .... ....|--- .... ....|G#3 AF.F ....
....|..|--- .... ....|--- .... ....|--- .... ....
 G#3|..|D#5 ...F ....|G#4 ...A ....|--- .... ....
....|..|--- .... ....|--- .... ....|--- .... ....
 G#3|..|F-5 ...F ....|F-5 ...F ....|G#2 7A.. ....
....|..|--- .... ....|R-- .... ....|--- .... ....
 G#4|..|R-- .... ....|D#5 ...F ....|--- .... ....
....|..|--- .... ....|R-- .... ....|--- .... ....
....|..|D#5 ...A ....|--- .... ....|F#3 AF.F ....
....|..|--- .... ....|--- .... ....|--- .... ....
 G-4|..|F-5 ...A ....|G-4 ...F ....|--- .... ....
....|..|--- .... ....|R-- .... ....|--- .... ....
 G-3|..|F-5 ...F ....|D#5 ...A ....|G-2 7A.. ....
....|..|--- .... ....|--- .... ....|--- .... ....
 G-3|..|D#5 ...F ....|--- .... ....|--- .... ....
....|..|--- .... ....|--- .... ....|--- .... ....
 G-3|..|R-- .... ....|G-4 ...A ....|G-3 AF.F ....
....|..|--- .... ....|--- .... ....|--- .... ....
 G-3|..|F-5 ...F ....|--- .... ....|--- .... ....
....|..|--- .... ....|--- .... ....|--- .... ....
 G-3|..|D#5 ...F ....|D#5 ...F ....|G-2 7A.. ....
....|..|--- .... ....|R-- .... ....|--- .... ....
 G-3|..|R-- .... ....|E-5 ...F ....|--- .... ....
....|..|--- .... ....|R-- .... ....|--- .... ....

[Pattern10]
....|..|F-5 .FAA ....|F-5 ...F ....|G#3 AF.F ....
....|..|--- .... ....|R-- .... ....|--- .... ....
 G#4|..|D#5 ...A ....|D#5 ...A ....|--- .... ....
....|..|--- .... ....|--- .... ....|--- .... ....
 G#2|..|D#5 ...F ....|G#4 ...F ....|G#1 7A.. ....
....|..|--- .... ....|R-- .... ....|--- .... ....
 G#4|..|F-5 ...F ....|F-5 ...A ....|--- .... ....
....|..|--- .... ....|--- .... 11.1|--- .... ....
 G#4|..|R-- .... ....|--- .... ....|G#3 AF.F ....
....|..|--- .... ....|--- .... ....|--- .... ....
 G#4|..|D#5 ...F ....|G#4 ...A ....|--- .... ....
....|..|--- .... ....|--- .... ....|--- .... ....
 G#2|..|F-5 ...F ....|F-5 ...F ....|G#1 7A.. ....
....|..|--- .... ....|R-- .... ....|--- .... ....
 G#4|..|R-- .... ....|D#5 ...F ....|--- .... ....
....|..|--- .... ....|R-- .... ....|--- .... ....
....|..|D#5 ...A ....|--- .... ....|G-3 AF.F ....
....|..|--- .... ....|--- .... ....|--- .... ....
 G-4|..|F-5 ...A ....|G-4 ...F ....|--- .... ....
....|..|--- .... ....|R-- .... ....|--- .... ....
 G-2|..|F-5 ...F ....|D#5 ...A ....|G-1 7A.. ....
....|..|--- .... ....|--- .... ....|--- .... ....
 G-4|..|D#5 ...F ....|--- .... 11.1|--- .... ....
....|..|--- .... ....|--- .... ....|--- .... ....
 G-4|..|R-- .... ....|G-4 ...A ....|G-3 AF.F ....
....|..|--- .... ....|--- .... ....|--- .... ....
 G-4|..|F-5 ...F ....|--- .... ....|--- .... ....
....|..|--- .... ....|--- .... ....|--- .... ....
 G-2|..|D#5 ...F ....|D#5 ...F ....|G-1 7A.. ....
....|..|--- .... ....|R-- .... ....|--- .... ....
 G-4|..|R-- .... ....|E-5 ...F ....|--- .... ....
....|..|--- .... ....|R-- .... ....|--- .... ....
....|..|F-5 ...A ....|F-5 ...F ....|G#3 AF.F ....
....|..|--- .... ....|R-- .... ....|--- .... ....
 G#4|..|D#5 ...A ....|D#5 ...A ....|--- .... ....
....|..|--- .... ....|--- .... ....|--- .... ....
 G#3|..|D#5 ...F ....|G#4 ...F ....|G#2 7A.. ....
....|..|--- .... ....|R-- .... ....|--- .... ....
 G#4|..|F-5 ...F ....|F-5 ...A ....|--- .... ....
....|..|--- .... ....|--- .... 11.1|--- .... ....
 G#4|..|R-- .... ....|--- .... ....|G#3 AF.F ....
....|..|--- .... ....|--- .... ....|--- .... ....
 G#4|..|D#5 ...F ....|G#4 ...A ....|--- .... ....
....|..|--- .... ....|--- .... ....|--- .... ....
 G#3|..|F-5 ...F ....|F-5 ...F ....|G#2 7A.. ....
....|..|--- .... ....|R-- .... ....|--- .... ....
 G#4|..|R-- .... ....|D#5 ...F ....|--- .... ....
....|..|--- .... ....|R-- .... ....|--- .... ....
....|..|D#5 ...A ....|--- .... ....|F#3 AF.F ....
....|..|--- .... ....|--- .... ....|--- .... ....
 G-4|..|F-5 ...A ....|G-4 ...F ....|--- .... ....
....|..|--- .... ....|R-- .... ....|--- .... ....
 G-3|..|F-5 ...F ....|D#5 ...A ....|G-2 7A.. ....
....|..|--- .... 21.2|--- .... 11.1|--- .... ....
 G-4|..|D#5 ...F ....|--- .... ....|--- .... ....
....|..|--- .... 21.2|--- .... ....|--- .... ....
 G-4|..|R-- .... ....|G-4 ...A ....|G-3 AF.F ....
....|..|--- .... ....|--- .... ....|--- .... ....
 G-4|..|F-5 ...F ....|D#5 ...F ....|--- .... ....
....|..|--- .... ....|R-- .... ....|--- .... ....
 G-3|..|D#5 ...F ....|D#5 ...F ....|G-2 7A.. ....
....|..|--- .... ....|R-- .... ....|--- .... ....
 G-4|..|R-- .... ....|E-5 ...F ....|--- .... ....
....|..|--- .... ....|R-- .... ....|--- .... ....

[Pattern11]
....|..|F-5 .FDA ....|F-5 ...F ....|G#3 AF.F ....
....|..|--- .... ....|R-- .... ....|--- .... ....
 G#4|..|D#5 ...A ....|D#5 ...A ....|--- .... ....
....|..|--- .... ....|--- .... ....|--- .... ....
 G#2|..|D#5 ...F ....|G#4 ...F ....|G#1 7A.. ....
....|..|--- .... ....|R-- .... ....|--- .... ....
 G#4|..|F-5 ...F ....|F-5 ...A ....|--- .... ....
....|..|--- .... ....|--- .... ....|--- .... ....
 G#4|..|R-- .... ....|--- .... 11.2|G#3 AF.F ....
....|..|--- .... ....|--- .... ....|--- .... ....
 G#4|..|D#5 ...F ....|G#4 ...A ....|--- .... ....
....|..|--- .... ....|--- .... ....|--- .... ....
 G#2|..|F-5 ...F ....|F-5 ...F ....|G#1 7A.. ....
....|..|--- .... ....|R-- .... ....|--- .... ....
 G#4|..|R-- .... ....|D#5 ...F ....|--- .... ....
....|..|--- .... ....|R-- .... ....|--- .... ....
....|..|D#5 ...A ....|--- .... ....|G-3 AF.F ....
....|..|--- .... ....|--- .... ....|--- .... ....
 G-4|..|F-5 ...A ....|G-4 ...F ....|--- .... ....
....|..|--- .... ....|R-- .... ....|--- .... ....
 G-2|..|F-5 ...F ....|D#5 ...A ....|G-1 7A.. ....
....|..|--- .... ....|--- .... ....|--- .... ....
 G-4|..|D#5 ...F ....|--- .... 21.2|--- .... ....
....|..|--- .... ....|--- .... ....|--- .... ....
 G-4|..|R-- .... ....|G-4 ...A ....|G-3 AF.F ....
....|..|--- .... ....|--- .... ....|--- .... ....
 G-4|..|F-5 ...F ....|--- .... ....|--- .... ....
....|..|--- .... ....|--- .... ....|--- .... ....
 G-2|..|D#5 ...F ....|D#5 .F.F ....|G-1 7A.. ....
....|..|--- .... ....|R-- .... ....|--- .... ....
 G-4|..|R-- .... ....|E-5 ...F ....|--- .... ....
....|..|--- .... ....|R-- .... ....|--- .... ....
....|..|F-5 ...A ....|F-5 ...F ....|G#3 AF.F ....
....|..|--- .... ....|R-- .... ....|--- .... ....
 G#4|..|D#5 ...A ....|D#5 ...A ....|--- .... ....
....|..|--- .... ....|--- .... ....|--- .... ....
 G#3|..|D#5 ...F ....|G#4 .FAF ....|G#2 7A.. ....
....|..|--- .... ....|R-- .... ....|--- .... ....
 G#4|..|F-5 ...F ....|F-5 ...A ....|--- .... ....
....|..|--- .... ....|--- .... ....|--- .... ....
 G#4|..|R-- .... ....|--- .... ....|G#3 AF.F ....
....|..|--- .... ....|--- .... ....|--- .... ....
 G#4|..|D#5 ...F ....|G#4 ...A ....|--- .... ....
....|..|--- .... ....|--- .... ....|--- .... ....
 G#3|..|F-5 ...F ....|F-5 ...F ....|G#2 7A.. ....
....|..|--- .... ....|R-- .... ....|--- .... ....
 G#4|..|R-- .... ....|D#5 ...F ....|--- .... ....
....|..|--- .... ....|R-- .... ....|--- .... ....
....|..|D#5 ...A ....|--- .... ....|F#3 AF.F ....
....|..|--- .... ....|--- .... ....|--- .... ....
 G-4|..|F-5 ...A ....|G-4 ...F ....|--- .... ....
....|..|--- .... ....|R-- .... ....|--- .... ....
 G-3|..|F-5 ...F ....|D#5 ...A ....|G-2 7A.. ....
....|..|--- .... ....|--- .... ....|--- .... ....
 G-4|..|D#5 ...F ....|--- .... ....|--- .... ....
....|..|--- .... ....|--- .... ....|--- .... ....
 G-4|..|R-- .... ....|G-4 ...A ....|G-3 AF.F ....
....|..|--- .... ....|--- .... ....|--- .... ....
 G-4|..|F-5 ...F ....|--- .... ....|--- .... ....
....|..|--- .... ....|--- .... ....|--- .... ....
 G-3|..|D#5 ...F ....|D#5 ...F ....|G-2 7A.. ....
....|..|--- .... ....|R-- .... ....|--- .... ....
 G-4|..|R-- .... ....|E-5 ...F ....|--- .... ....
....|..|--- .... ....|R-- .... ....|--- .... ....

[Pattern12]
....|..|F-5 ...A ....|F-5 ...F ....|G#3 AF.F ....
....|..|--- .... ....|R-- .... ....|--- .... ....
 G#3|..|D#5 ...A ....|D#5 ...A ....|--- .... ....
....|..|--- .... ....|--- .... ....|--- .... ....
 G#2|..|D#5 ...F ....|G#4 ...F ....|G#1 7A.. ....
....|..|--- .... ....|R-- .... ....|--- .... ....
 G#3|..|F-5 ...F ....|F-5 ...A ....|--- .... ....
....|..|--- .... ....|--- .... ....|--- .... ....
 G#3|..|R-- .... ....|--- .... ....|G#3 AF.F ....
....|..|--- .... ....|--- .... ....|--- .... ....
 G#3|..|D#5 ...F ....|G#4 ...A ....|--- .... ....
....|..|--- .... ....|--- .... ....|--- .... ....
 G#2|..|F-5 ...F ....|F-5 ...F ....|G#1 7A.. ....
....|..|--- .... ....|R-- .... ....|--- .... ....
 G#3|..|R-- .... ....|D#5 ...F ....|--- .... ....
....|..|--- .... ....|R-- .... ....|--- .... ....
....|..|D#5 ...A ....|--- .... ....|G-3 AF.F ....
....|..|--- .... ....|--- .... ....|--- .... ....
 G-3|..|F-5 ...A ....|G-4 ...F ....|--- .... ....
....|..|--- .... ....|R-- .... ....|--- .... ....
 G-2|..|F-5 ...F ....|D#5 ...A ....|G-1 7A.. ....
....|..|--- .... ....|--- .... ....|--- .... ....
 G-3|..|D#5 ...F ....|--- .... ....|--- .... ....
....|..|--- .... ....|--- .... ....|--- .... ....
 G-3|..|R-- .... ....|G-4 ...A ....|G-3 AF.F ....
....|..|--- .... ....|--- .... ....|--- .... ....
 G-3|..|F-5 ...F ....|--- .... ....|--- .... ....
....|..|--- .... ....|--- .... ....|--- .... ....
 G-2|..|D#5 ...F ....|D#5 ...F ....|G-1 7A.. ....
....|..|--- .... ....|R-- .... ....|--- .... ....
 G-3|..|R-- .... ....|E-5 ...F ....|--- .... ....
....|..|--- .... ....|R-- .... ....|--- .... ....
....|..|F-5 ...A ....|F-5 ...F ....|G#3 AF.F ....
....|..|--- .... ....|R-- .... ....|--- .... ....
 G#3|..|D#5 ...A ....|D#5 ...A ....|--- .... ....
....|..|--- .... ....|--- .... ....|--- .... ....
 G#3|..|D#5 ...F ....|G#4 ...F ....|G#2 7A.. ....
....|..|--- .... ....|R-- .... ....|--- .... ....
 G#3|..|F-5 ...F ....|F-5 ...A ....|--- .... ....
....|..|--- .... ....|--- .... ....|--- .... ....
 G#3|..|R-- .... ....|--- .... ....|G#3 AF.F ....
....|..|--- .... ....|--- .... ....|--- .... ....
 G#2|..|D#5 ...F ....|G#4 ...A ....|--- .... ....
....|..|--- .... ....|--- .... ....|--- .... ....
 G#3|..|F-5 ...F ....|F-5 ...F ....|G#2 7A.. ....
....|..|--- .... ....|R-- .... ....|--- .... ....
 G#3|..|R-- .... ....|D#5 ...F ....|--- .... ....
....|..|--- .... ....|R-- .... ....|--- .... ....
....|..|D#5 ...A ....|--- .... ....|F#3 AF.F ....
....|..|--- .... ....|--- .... ....|--- .... ....
 G-3|..|F-5 ...A ....|G-4 ...F ....|--- .... ....
....|..|--- .... ....|R-- .... ....|--- .... ....
 G-3|..|F-5 ...F ....|D#5 ...A ....|G-2 7A.. ....
....|..|--- .... ....|--- .... ....|--- .... ....
 G-2|..|D#5 ...F ....|--- .... ....|--- .... ....
....|..|--- .... ....|--- .... ....|--- .... ....
 G-3|..|R-- .... ....|G-4 ...A ....|G-3 AF.F ....
....|..|--- .... ....|--- .... ....|--- .... ....
 G-2|..|F-5 ...F ....|D#5 ...F ....|--- .... ....
....|..|--- .... ....|R-- .... ....|--- .... ....
 G-3|..|D#5 ...F ....|D#5 ...F ....|G-2 7A.. ....
....|..|--- .... ....|R-- .... ....|--- .... ....
 G-2|..|R-- .... ....|E-5 ...F ....|--- .... ....
....|..|--- .... ....|R-- .... ....|--- .... ....

[Pattern13]
....|..|F-5 .FEA ....|F-5 ...F 31.F|G#3 AF.F ....
....|..|--- .... ....|--- .... ....|--- .... ....
 G#4|..|D#5 ...A ....|D#5 ...A ....|--- .... ....
....|..|--- .... ....|--- .... ....|--- .... ....
 G#2|..|G#4 .F4F ....|G#4 ...F ....|G#1 7A.. ....
....|..|--- .... ....|R-- .... ....|--- .... ....
....|..|R-- .... ....|F-5 ...A ....|--- .... ....
....|..|--- .... ....|--- .... ....|--- .... ....
 G#4|..|--- .... ....|--- .... ....|G#3 AF.F ....
....|..|--- .... ....|--- .... ....|--- .... ....
....|..|G#4 ...F ....|G#4 ...A ....|--- .... ....
....|..|--- .... ....|--- .... ....|--- .... ....
 G#2|..|R-- .... ....|F-5 ...F ....|G#1 7A.. ....
....|..|--- .... ....|R-- ...A ....|--- .... ....
....|..|--- .... ....|D#5 ...F ....|--- .... ....
....|..|--- .... ....|F-5 ...A ....|--- .... ....
....|..|G#4 ...A ....|D#5 ...F ....|G-3 AF.F ....
....|..|--- .... ....|D#5 ...A ....|--- .... ....
 G-4|..|--- .... ....|G-4 ...F ....|--- .... ....
....|..|--- .... ....|D#5 ...A ....|--- .... ....
 G-2|..|G-4 .F5F ....|C-5 ...F ....|G-1 7A.. ....
....|..|--- .... ....|R-- .... ....|--- .... ....
....|..|R-- .... ....|D#5 ...A ....|--- .... ....
....|..|--- .... ....|--- .... ....|--- .... ....
 G-4|..|--- .... ....|G-4 ...A ....|G-3 AF.F ....
....|..|--- .... ....|--- .... ....|--- .... ....
....|..|G-4 ...F ....|C-5 ...A ....|--- .... ....
....|..|--- .... ....|--- .... ....|--- .... ....
 G-2|..|R-- .... ....|D#5 ...F ....|G-1 7A.. ....
....|..|--- .... ....|--- .... ....|--- .... ....
....|..|--- .... ....|E-5 ...F 31.F|--- .... ....
....|..|--- .... ....|--- .... ....|--- .... ....
....|..|G-4 ...A ....|F-5 ...F 31.F|G#3 AF.F ....
....|..|--- .... ....|--- .... ....|--- .... ....
 G#4|..|--- .... ....|R-- .... ....|--- .... ....
....|..|--- .... ....|--- .... ....|--- .... ....
 G#3|..|G#4 .F4F ....|G#4 ...F ....|G#2 7A.. ....
....|..|--- .... ....|--- .... ....|--- .... ....
....|..|R-- .... ....|R-- .... ....|--- .... ....
....|..|--- .... ....|--- .... ....|--- .... ....
 G#4|..|--- .... ....|--- .... ....|G#3 AF.F ....
....|..|--- .... ....|--- .... ....|--- .... ....
....|..|G#4 ...F ....|G#4 ...A ....|--- .... ....
....|..|--- .... ....|--- .... ....|--- .... ....
 G#3|..|R-- .... ....|F-5 ...F ....|G#2 7A.. ....
....|..|--- .... ....|R-- .... ....|--- .... ....
....|..|--- .... ....|D#5 ...F ....|--- .... ....
....|..|--- .... ....|R-- .... ....|--- .... ....
....|..|G#4 ...A ....|--- .... ....|F#3 AF.F ....
....|..|--- .... ....|--- .... ....|--- .... ....
 G-4|..|--- .... ....|G-4 ...F ....|--- .... ....
....|..|--- .... ....|R-- .... ....|--- .... ....
 G-3|..|G-4 .F5F ....|D#5 ...A ....|G-2 7A.. ....
....|..|--- .... ....|--- .... ....|--- .... ....
....|..|R-- .... ....|--- .... ....|--- .... ....
....|..|--- .... ....|--- .... ....|--- .... ....
 G-4|..|--- .... ....|G-4 ...A ....|G-3 AF.F ....
....|..|--- .... ....|--- .... ....|--- .... ....
....|..|G-4 ...F ....|--- .... ....|--- .... ....
....|..|--- .... ....|--- .... ....|--- .... ....
 G-3|..|R-- .... ....|D#5 ...F ....|G-2 7A.. ....
....|..|--- .... ....|--- .... 21.1|--- .... ....
....|..|--- .... ....|E-5 ...F ....|--- .... ....
....|..|--- .... ....|--- .... ....|--- .... ....

[Pattern14]
....|..|G-4 .F5A ....|F-5 ...F 31.2|G#3 AF.F ....
....|..|--- .... ....|--- .... ....|--- .... ....
 G#4|..|--- .... ....|D#5 ...A ....|--- .... ....
....|..|--- .... ....|--- .... ....|--- .... ....
 G#2|..|G#4 .F4F ....|G#4 ...F ....|G#1 7A.. ....
....|..|--- .... ....|R-- .... ....|--- .... ....
....|..|R-- .... ....|F-5 ...A ....|--- .... ....
....|..|--- .... ....|--- .... ....|--- .... ....
 G#4|..|--- .... ....|--- .... ....|G#3 AF.F ....
....|..|--- .... ....|--- .... ....|--- .... ....
....|..|G#4 ...F ....|G#4 ...A ....|--- .... ....
....|..|--- .... ....|--- .... ....|--- .... ....
 G#2|..|R-- .... ....|F-5 ...F ....|G#1 7A.. ....
....|..|--- .... ....|R-- .... ....|--- .... ....
....|..|--- .... ....|D#5 ...F ....|--- .... ....
....|..|--- .... ....|R-- .... ....|--- .... ....
....|..|G#4 ...A ....|D#5 ...F ....|G-3 AF.F ....
....|..|--- .... ....|R-- .... ....|--- .... ....
 G-4|..|--- .... ....|G-4 ...F ....|--- .... ....
....|..|--- .... ....|R-- .... ....|--- .... ....
 G-2|..|G-4 .F5F ....|C-5 ...F ....|G-1 7A.. ....
....|..|--- .... ....|R-- .... ....|--- .... ....
....|..|R-- .... ....|D#5 ...A ....|--- .... ....
....|..|--- .... ....|--- .... ....|--- .... ....
 G-4|..|--- .... ....|G-4 ...A ....|G-3 AF.F ....
....|..|--- .... ....|--- .... ....|--- .... ....
....|..|G-4 ...F ....|C-5 ...A ....|--- .... ....
....|..|--- .... ....|--- .... ....|--- .... ....
 G-2|..|R-- .... ....|D#5 ...F ....|G-1 7A.. ....
....|..|--- .... ....|--- .... ....|--- .... ....
....|..|--- .... ....|E-5 ...F ....|--- .... ....
....|..|--- .... ....|--- .... ....|--- .... ....
....|..|G-4 ...A ....|F-5 ...F ....|G#3 AF.F ....
....|..|--- .... ....|--- .... ....|--- .... ....
 G#4|..|--- .... ....|R-- .... ....|--- .... ....
....|..|--- .... ....|--- .... ....|--- .... ....
 G#3|..|G#4 .F4F ....|G#4 ...F ....|G#2 7A.. ....
....|..|--- .... ....|--- .... ....|--- .... ....
....|..|R-- .... ....|R-- .... ....|--- .... ....
....|..|--- .... ....|--- .... ....|--- .... ....
 G#4|..|--- .... ....|--- .... ....|G#3 AF.F ....
....|..|--- .... ....|--- .... ....|--- .... ....
....|..|G#4 ...F ....|G#4 ...A ....|--- .... ....
....|..|--- .... ....|--- .... ....|--- .... ....
 G#3|..|R-- .... ....|F-5 ...F ....|G#2 7A.. ....
....|..|--- .... ....|R-- .... ....|--- .... ....
....|..|--- .... ....|D#5 ...F ....|--- .... ....
....|..|--- .... ....|R-- .... ....|--- .... ....
....|..|G#4 ...A ....|--- .... ....|F#3 AF.F ....
....|..|--- .... ....|--- .... ....|--- .... ....
 G-4|..|--- .... ....|G-4 ...F ....|--- .... ....
....|..|--- .... ....|R-- .... ....|--- .... ....
 G-3|..|G-4 .F5F ....|D#5 ...A ....|G-2 7A.. ....
....|..|--- .... ....|--- .... ....|--- .... ....
....|..|R-- .... ....|--- .... ....|--- .... ....
....|..|--- .... ....|--- .... ....|--- .... ....
 G-4|..|--- .... ....|G-4 ...A ....|G-3 AF.F ....
....|..|--- .... ....|--- .... ....|--- .... ....
....|..|G-4 ...F ....|D#5 ...F ....|--- .... ....
....|..|--- .... ....|R-- .... ....|--- .... ....
 G-3|..|R-- .... ....|D#5 ...F ....|G-2 7A.. ....
....|..|--- .... ....|R-- .... ....|--- .... ....
....|..|--- .... ....|E-5 ...F ....|--- .... ....
....|..|--- .... ....|R-- .... ....|--- .... ....

[Pattern15]
....|..|G-4 .F5A ....|F-5 ...F ....|G#3 AF.F ....
....|..|--- .... ....|R-- .... ....|--- .... ....
 G#4|..|--- .... ....|D#5 ...A ....|--- .... ....
....|..|--- .... ....|--- .... ....|--- .... ....
 G#2|..|G#4 .F4F ....|G#4 ...F ....|G#1 7A.. ....
....|..|--- .... ....|R-- .... ....|--- .... ....
....|..|R-- .... ....|F-5 ...A ....|--- .... ....
....|..|--- .... ....|--- .... ....|--- .... ....
 G#4|..|--- .... ....|--- .... ....|G#3 AF.F ....
....|..|--- .... ....|--- .... ....|--- .... ....
....|..|G#4 ...F ....|G#4 ...A ....|--- .... ....
....|..|--- .... ....|--- .... ....|--- .... ....
 G#2|..|R-- .... ....|F-5 ...F ....|G#1 7A.. ....
....|..|--- .... ....|R-- .... ....|--- .... ....
....|..|--- .... ....|D#5 ...F ....|--- .... ....
....|..|--- .... ....|R-- .... ....|--- .... ....
....|..|G#4 ...A ....|D#5 ...F ....|G-3 AF.F ....
....|..|--- .... ....|R-- .... ....|--- .... ....
 G-4|..|--- .... ....|G-4 ...F ....|--- .... ....
....|..|--- .... ....|R-- .... ....|--- .... ....
 G-2|..|G-4 .F5F ....|C-5 ...F ....|G-1 7A.. ....
....|..|--- .... ....|R-- .... ....|--- .... ....
....|..|R-- .... ....|D#5 ...A ....|--- .... ....
....|..|--- .... ....|--- .... ....|--- .... ....
 G-4|..|--- .... ....|G-4 ...A ....|G-3 AF.F ....
....|..|--- .... ....|--- .... ....|--- .... ....
....|..|G-4 ...F ....|C-5 ...A ....|--- .... ....
....|..|--- .... ....|--- .... ....|--- .... ....
 G-2|..|R-- .... ....|D#5 ...F ....|G-1 7A.. ....
....|..|--- .... ....|--- .... ....|--- .... ....
....|..|--- .... ....|E-5 ...F ....|--- .... ....
....|..|--- .... ....|--- .... ....|--- .... ....
....|..|G-4 ...A ....|F-5 ...F ....|G#3 AF.F ....
....|..|--- .... ....|--- .... ....|--- .... ....
 G#4|..|--- .... ....|R-- .... ....|--- .... ....
....|..|--- .... ....|--- .... ....|--- .... ....
 G#3|..|G#4 .F4F ....|G#4 ...F ....|G#2 7A.. ....
....|..|--- .... ....|--- .... ....|--- .... ....
....|..|R-- .... ....|R-- .... ....|--- .... ....
....|..|--- .... ....|--- .... ....|--- .... ....
 G#4|..|--- .... ....|--- .... ....|G#3 AF.F ....
....|..|--- .... ....|--- .... ....|--- .... ....
....|..|G#4 ...F ....|G#4 ...A ....|--- .... ....
....|..|--- .... ....|--- .... ....|--- .... ....
 G#3|..|R-- .... ....|F-5 ...F ....|G#2 7A.. ....
....|..|--- .... ....|R-- .... ....|--- .... ....
....|..|--- .... ....|D#5 ...F ....|--- .... ....
....|..|--- .... ....|R-- .... ....|--- .... ....
....|..|G#4 ...A ....|--- .... ....|F#3 AF.F ....
....|..|--- .... ....|--- .... ....|--- .... ....
 G-4|..|--- .... ....|G-4 ...F ....|--- .... ....
....|..|--- .... ....|R-- .... ....|--- .... ....
 G-3|..|G-4 .F5F ....|D#5 ...A ....|G-2 7A.. ....
....|..|--- .... ....|--- .... ....|--- .... ....
....|..|R-- .... ....|--- .... ....|--- .... ....
....|..|--- .... ....|--- .... ....|--- .... ....
 G-4|..|--- .... ....|G-4 ...A ....|G-3 AF.F ....
....|..|--- .... ....|--- .... ....|--- .... ....
....|..|G-4 ...F ....|--- .... ....|--- .... ....
....|..|--- .... ....|--- .... ....|--- .... ....
 G-3|..|R-- .... ....|D#5 ...F ....|G-2 7A.. ....
....|..|--- .... ....|R-- .... ....|--- .... ....
....|..|--- .... ....|E-5 ...F ....|--- .... ....
....|..|--- .... ....|R-- .... ....|--- .... ....

[Pattern16]
....|..|G-4 .FAA ....|F-5 ...F ....|G#3 AF.F ....
....|..|--- .... ....|R-- .... ....|--- .... ....
 G#4|..|--- .... ....|D#5 ...A ....|--- .... ....
....|..|--- .... ....|--- .... ....|--- .... ....
 G#2|..|G#4 .F4F ....|G#4 ...F ....|G#1 7A.. ....
....|..|--- .... ....|R-- .... ....|--- .... ....
....|..|R-- .... ....|F-5 ...A ....|--- .... ....
....|..|--- .... ....|--- .... ....|--- .... ....
 G#4|..|--- .... ....|--- .... ....|G#3 AF.F ....
....|..|--- .... ....|--- .... ....|--- .... ....
....|..|G#4 ...F ....|G#4 ...A ....|--- .... ....
....|..|--- .... ....|--- .... ....|--- .... ....
 G#2|..|R-- .... ....|F-5 ...F ....|G#1 7A.. ....
....|..|--- .... ....|R-- .... ....|--- .... ....
....|..|--- .... ....|D#5 ...F ....|--- .... ....
....|..|--- .... ....|R-- .... ....|--- .... ....
....|..|G#4 ...A ....|D#5 ...F ....|G-3 AF.F ....
....|..|--- .... ....|R-- .... ....|--- .... ....
 G-4|..|--- .... ....|G-4 ...F ....|--- .... ....
....|..|--- .... ....|R-- .... ....|--- .... ....
 G-2|..|G-4 .F5F ....|C-5 ...F ....|G-1 7A.. ....
....|..|--- .... ....|R-- .... ....|--- .... ....
....|..|R-- .... ....|D#5 ...A ....|--- .... ....
....|..|--- .... ....|--- .... ....|--- .... ....
 G-4|..|--- .... ....|G-4 ...A ....|G-3 AF.F ....
....|..|--- .... ....|--- .... ....|--- .... ....
....|..|G-4 ...F ....|C-5 ...A ....|--- .... ....
....|..|--- .... ....|--- .... ....|--- .... ....
 G-2|..|R-- .... ....|D#5 ...F ....|G-1 7A.. ....
....|..|--- .... ....|--- .... ....|--- .... ....
....|..|--- .... ....|E-5 ...F ....|--- .... ....
....|..|--- .... ....|--- .... ....|--- .... ....
 G#4|..|G-4 ...A ....|F-5 ...F ....|G#3 AF.F ....
....|..|--- .... ....|--- .... ....|--- .... ....
 C-4|..|--- .... ....|R-- .... ....|--- .... ....
....|..|--- .... ....|--- .... ....|--- .... ....
 G#3|..|G#4 .F4F ....|G#4 ...F ....|G#2 7A.. ....
....|..|--- .... ....|--- .... ....|--- .... ....
 G#4|..|R-- .... ....|R-- .... ....|--- .... ....
....|..|--- .... ....|--- .... ....|--- .... ....
....|..|--- .... ....|--- .... ....|G#3 AF.F ....
....|..|--- .... ....|--- .... ....|--- .... ....
 A#3|..|G#4 ...F ....|G#4 ...A ....|--- .... ....
....|..|--- .... ....|--- .... ....|--- .... ....
 G#3|..|R-- .... ....|F-5 ...F ....|G#2 7A.. ....
....|..|--- .... ....|R-- .... ....|--- .... ....
....|..|--- .... ....|D#5 ...F ....|--- .... ....
....|..|--- .... ....|R-- .... ....|--- .... ....
....|..|G#4 ...A ....|--- .... ....|F#3 AF.F ....
....|..|--- .... ....|--- .... ....|--- .... ....
 G-4|..|--- .... ....|G-4 ...F ....|--- .... ....
....|..|--- .... ....|R-- .... ....|--- .... ....
 G-3|..|G-4 .F5F ....|D#5 ...A ....|G-2 7A.. ....
....|..|--- .... ....|--- .... ....|--- .... ....
....|..|R-- .... ....|--- .... ....|--- .... ....
....|..|--- .... ....|--- .... ....|--- .... ....
 G-4|..|--- .... ....|G-4 ...A ....|G-3 AF.F ....
....|..|--- .... ....|--- .... ....|--- .... ....
....|..|G-4 ...F ....|D#5 ...F ....|--- .... ....
....|..|--- .... ....|R-- .... ....|--- .... ....
 G-3|..|R-- .... ....|D#5 ...F ....|G-2 7A.. ....
....|..|--- .... ....|R-- .... ....|--- .... ....
....|..|--- .... ....|E-5 ...F ....|--- .... ....
....|..|--- .... ....|R-- .... ....|--- .... ....

[Pattern17]
....|..|G-4 .F5A ....|F-5 ...F ....|G#3 AF.F ....
....|..|--- .... ....|R-- .... ....|--- .... ....
 G#4|..|--- .... ....|D#5 ...A ....|--- .... ....
....|..|--- .... ....|--- .... ....|--- .... ....
 G#2|..|G#4 .F4F ....|G#4 ...F ....|G#1 7A.. ....
....|..|--- .... ....|R-- .... ....|--- .... ....
 G#4|..|R-- .... ....|F-5 ...A ....|--- .... ....
....|..|--- .... ....|--- .... ....|--- .... ....
 G#4|..|--- .... ....|--- .... ....|G#3 AF.F ....
....|..|--- .... ....|--- .... ....|--- .... ....
 G#4|..|G#4 ...F ....|G#4 ...A ....|--- .... ....
....|..|--- .... ....|--- .... ....|--- .... ....
 G#2|..|R-- .... ....|F-5 ...F ....|G#1 7A.. ....
....|..|--- .... ....|R-- .... ....|--- .... ....
 G#4|..|--- .... ....|D#5 ...F ....|--- .... ....
....|..|--- .... ....|R-- .... ....|--- .... ....
....|..|G#4 ...A ....|D#5 ...F ....|G-3 AF.F ....
....|..|--- .... ....|R-- .... ....|--- .... ....
 G-4|..|--- .... ....|G-4 ...F ....|--- .... ....
....|..|--- .... ....|R-- .... ....|--- .... ....
 G-2|..|G-4 .F5F ....|C-5 ...F ....|G-1 7A.. ....
....|..|--- .... ....|--- .... ....|--- .... ....
 G-4|..|R-- .... ....|D#5 ...A ....|--- .... ....
....|..|--- .... ....|R-- .... ....|--- .... ....
 G-4|..|--- .... ....|G-4 ...A ....|G-3 AF.F ....
....|..|--- .... ....|--- .... ....|--- .... ....
 G-4|..|G-4 ...F ....|C-5 ...A ....|--- .... ....
....|..|--- .... ....|--- .... ....|--- .... ....
 G-2|..|R-- .... ....|D#5 ...F ....|G-1 7A.. ....
....|..|--- .... ....|--- .... ....|--- .... ....
 G-4|..|--- .... ....|E-5 ...F ....|--- .... ....
....|..|--- .... ....|--- .... ....|--- .... ....
....|..|G-4 ...A ....|F-5 ...F ....|G#3 AF.F ....
....|..|--- .... ....|--- .... ....|--- .... ....
 G#4|..|--- .... ....|R-- .... ....|--- .... ....
....|..|--- .... ....|--- .... ....|--- .... ....
 G#3|..|G#4 .F4F ....|G#4 ...F ....|G#2 7A.. ....
....|..|--- .... ....|--- .... ....|--- .... ....
 G#4|..|R-- .... ....|R-- .... ....|--- .... ....
....|..|--- .... ....|--- .... ....|--- .... ....
 G#4|..|--- .... ....|--- .... ....|G#3 AF.F ....
....|..|--- .... ....|--- .... ....|--- .... ....
 G#4|..|G#4 ...F ....|G#4 ...A ....|--- .... ....
....|..|--- .... ....|--- .... ....|--- .... ....
 G#3|..|R-- .... ....|F-5 ...F ....|G#2 7A.. ....
....|..|--- .... ....|R-- .... ....|--- .... ....
 G#4|..|--- .... ....|D#5 ...F ....|--- .... ....
....|..|--- .... ....|R-- .... ....|--- .... ....
....|..|G#4 ...A ....|--- .... ....|F#3 AF.F ....
....|..|--- .... ....|--- .... ....|--- .... ....
 G-4|..|--- .... ....|G-4 ...F ....|--- .... ....
....|..|--- .... ....|R-- .... ....|--- .... ....
 G-3|..|G-4 .F5F ....|D#5 ...A ....|G-2 7A.. ....
....|..|--- .... ....|--- .... ....|--- .... ....
 G-4|..|R-- .... ....|--- .... ....|--- .... ....
....|..|--- .... ....|--- .... ....|--- .... ....
 G-4|..|--- .... ....|G-4 ...A ....|G-3 AF.F ....
....|..|--- .... ....|--- .... ....|--- .... ....
 G-4|..|G-4 ...F ....|--- .... ....|--- .... ....
....|..|--- .... ....|--- .... ....|--- .... ....
 G-3|..|R-- .... ....|D#5 ...F ....|G-2 7A.. ....
....|..|--- .... ....|R-- .... ....|--- .... ....
 G-4|..|--- .... ....|E-5 ...F ....|--- .... ....
....|..|--- .... ....|R-- .... ....|--- .... ....

[Pattern18]
....|..|G-4 .FEA ....|F-5 ...F ....|G#3 AF.F ....
....|..|--- .... ....|R-- .... ....|--- .... ....
 G#4|..|--- .... ....|D#5 ...A ....|--- .... ....
....|..|--- .... ....|--- .... ....|--- .... ....
 G#2|..|G#4 .F4F ....|G#4 ...F ....|G#1 7A.. ....
....|..|--- .... ....|R-- .... ....|--- .... ....
 G#4|..|R-- .... ....|F-5 ...A ....|--- .... ....
....|..|--- .... ....|--- .... ....|--- .... ....
 G#4|..|--- .... ....|--- .... ....|G#3 AF.F ....
....|..|--- .... ....|--- .... ....|--- .... ....
 G#4|..|G#4 ...F ....|G#4 ...A ....|--- .... ....
....|..|--- .... ....|--- .... ....|--- .... ....
 G#2|..|R-- .... ....|F-5 ...F ....|G#1 7A.. ....
....|..|--- .... ....|R-- .... ....|--- .... ....
 G#4|..|--- .... ....|D#5 ...F ....|--- .... ....
....|..|--- .... ....|R-- .... ....|--- .... ....
....|..|G#4 ...A ....|D#5 ...F ....|G-3 AF.F ....
....|..|--- .... ....|R-- .... ....|--- .... ....
 G-4|..|--- .... ....|G-4 ...F ....|--- .... ....
....|..|--- .... ....|R-- .... ....|--- .... ....
 G-2|..|G-4 .F5F ....|C-5 ...F ....|G-1 7A.. ....
....|..|--- .... ....|--- .... ....|--- .... ....
 G-4|..|R-- .... ....|D#5 ...A ....|--- .... ....
....|..|--- .... ....|R-- .... ....|--- .... ....
 G-4|..|--- .... ....|G-4 ...A ....|G-3 AF.F ....
....|..|--- .... ....|--- .... ....|--- .... ....
 G-4|..|G-4 ...F ....|C-5 ...A ....|--- .... ....
....|..|--- .... ....|--- .... ....|--- .... ....
 G-2|..|R-- .... ....|D#5 ...F ....|G-1 7A.. ....
....|..|--- .... ....|--- .... ....|--- .... ....
 G-4|..|--- .... ....|E-5 ...F ....|--- .... ....
....|..|--- .... ....|--- .... ....|--- .... ....
....|..|G-4 ...A ....|F-5 ...F ....|G#3 AF.F ....
....|..|--- .... ....|--- .... ....|--- .... ....
 G#4|..|--- .... ....|R-- .... ....|--- .... ....
....|..|--- .... ....|--- .... ....|--- .... ....
 G#3|..|G#4 .F4F ....|G#4 ...F ....|G#2 7A.. ....
....|..|--- .... ....|--- .... ....|--- .... ....
 G#4|..|R-- .... ....|R-- .... ....|--- .... ....
....|..|--- .... ....|--- .... ....|--- .... ....
 G#4|..|--- .... ....|--- .... ....|G#3 AF.F ....
....|..|--- .... ....|--- .... ....|--- .... ....
 G#4|..|G#4 ...F ....|G#4 ...A ....|--- .... ....
....|..|--- .... ....|--- .... ....|--- .... ....
 G#3|..|R-- .... ....|F-5 ...F ....|G#2 7A.. ....
....|..|--- .... ....|R-- .... ....|--- .... ....
 G#4|..|--- .... ....|D#5 ...F ....|--- .... ....
....|..|--- .... ....|R-- .... ....|--- .... ....
....|..|G#4 ...A ....|--- .... ....|F#3 AF.F ....
....|..|--- .... ....|--- .... ....|--- .... ....
 G-4|..|--- .... ....|G-4 ...F ....|--- .... ....
....|..|--- .... ....|R-- .... ....|--- .... ....
 G-3|..|G-4 .F5F ....|D#5 ...A ....|G-2 7A.. ....
....|..|--- .... ....|--- .... ....|--- .... ....
 G-4|..|R-- .... ....|--- .... ....|--- .... ....
....|..|--- .... ....|--- .... ....|--- .... ....
 G-4|..|--- .... ....|G-4 ...A ....|G-3 AF.F ....
....|..|--- .... ....|--- .... ....|--- .... ....
 G-4|..|G-4 ...F ....|D#5 ...F ....|--- .... ....
....|..|--- .... ....|R-- .... ....|--- .... ....
 G-3|..|R-- .... ....|D#5 ...F ....|G-2 7A.. ....
....|..|--- .... ....|R-- .... ....|--- .... ....
 G-4|..|--- .... ....|E-5 ...F ....|--- .... ....
....|..|--- .... ....|R-- .... ....|--- .... ....

[Pattern19]
....|..|G-4 .FEA ....|F-5 ...F ....|G#3 AF.F ....
....|..|--- .... ....|R-- .... ....|--- .... ....
 G#4|..|--- .... ....|D#5 ...A ....|--- .... ....
....|..|--- .... ....|--- .... ....|--- .... ....
 G#2|..|G#4 .F4F ....|G#4 ...F ....|G#1 7A.. ....
....|..|--- .... ....|R-- .... ....|--- .... ....
 G#4|..|R-- .... ....|F-5 ...A ....|--- .... ....
....|..|--- .... ....|--- .... ....|--- .... ....
 G#4|..|--- .... ....|--- .... ....|G#3 AF.F ....
....|..|--- .... ....|--- .... ....|--- .... ....
 G#4|..|G#4 ...F ....|G#4 ...A ....|--- .... ....
....|..|--- .... ....|--- .... ....|--- .... ....
 G#2|..|R-- .... ....|F-5 ...F ....|G#1 7A.. ....
....|..|--- .... ....|R-- .... ....|--- .... ....
 G#4|..|--- .... ....|D#5 ...F ....|--- .... ....
....|..|--- .... ....|R-- .... ....|--- .... ....
....|..|G#4 ...A ....|D#5 ...F ....|G-3 AF.F ....
....|..|--- .... ....|R-- .... ....|--- .... ....
 G-4|..|--- .... ....|G-4 ...F ....|--- .... ....
....|..|--- .... ....|R-- .... ....|--- .... ....
 G-2|..|G-4 .F5F ....|C-5 ...F ....|G-1 7A.. ....
....|..|--- .... ....|--- .... ....|--- .... ....
 G-4|..|R-- .... ....|R-- .... ....|--- .... ....
....|..|--- .... ....|--- .... ....|--- .... ....
 G-4|..|--- .... ....|G-4 ...A ....|G-3 AF.F ....
....|..|--- .... ....|--- .... ....|--- .... ....
 G-4|..|G-4 ...F ....|C-5 ...A ....|--- .... ....
....|..|--- .... ....|--- .... ....|--- .... ....
 G-2|..|R-- .... ....|D#5 ...F ....|G-1 7A.. ....
....|..|--- .... ....|--- .... ....|--- .... ....
 G-4|..|--- .... ....|E-5 ...F ....|--- .... ....
....|..|--- .... ....|--- .... ....|--- .... ....
....|..|G-4 ...A ....|F-5 ...F ....|G#3 AF.F ....
....|..|--- .... ....|--- .... ....|--- .... ....
 G#4|..|--- .... ....|R-- .... ....|--- .... ....
....|..|--- .... ....|--- .... ....|--- .... ....
 G#3|..|G#4 .F4F ....|G#4 ...F ....|G#2 7A.. ....
....|..|--- .... ....|--- .... ....|--- .... ....
 G#4|..|R-- .... ....|R-- .... ....|--- .... ....
....|..|--- .... ....|--- .... ....|--- .... ....
 G#4|..|--- .... ....|--- .... ....|G#3 AF.F ....
....|..|--- .... ....|--- .... ....|--- .... ....
 G#4|..|G#4 ...F ....|G#4 ...A ....|--- .... ....
....|..|--- .... ....|--- .... ....|--- .... ....
 G#3|..|R-- .... ....|F-5 ...F ....|G#2 7A.. ....
....|..|--- .... ....|R-- .... ....|--- .... ....
 G#4|..|--- .... ....|D#5 ...F ....|--- .... ....
....|..|--- .... ....|R-- .... ....|--- .... ....
....|..|G#4 ...A ....|--- .... ....|F#3 AF.F ....
....|..|--- .... ....|--- .... ....|--- .... ....
 G-4|..|--- .... ....|G-4 ...F ....|--- .... ....
....|..|--- .... ....|R-- .... ....|--- .... ....
 G-3|..|G-4 .F5F ....|D#5 ...A ....|G-2 7A.. ....
....|..|--- .... ....|--- .... ....|--- .... ....
 G-4|..|R-- .... ....|--- .... ....|--- .... ....
....|..|--- .... ....|--- .... ....|--- .... ....
 G-4|..|--- .... ....|G-4 ...A ....|G-3 AF.F ....
....|..|--- .... ....|--- .... ....|--- .... ....
 G-4|..|G-4 ...F ....|--- .... ....|--- .... ....
....|..|--- .... ....|--- .... ....|--- .... ....
 G-3|..|R-- .... ....|D#5 ...F ....|G-2 7A.. ....
....|..|--- .... ....|R-- .... ....|--- .... ....
 G-4|..|--- .... ....|E-5 ...F ....|--- .... ....
....|..|--- .... ....|R-- .... ....|--- .... ....

[Pattern20]
....|..|G-4 .FEA ....|F-5 ...F ....|G#3 AF.F ....
....|..|--- .... ....|R-- .... ....|--- .... ....
 G#4|..|--- .... ....|D#5 ...A ....|--- .... ....
....|..|--- .... ....|--- .... ....|--- .... ....
 G#2|..|G#4 .F4F ....|G#4 ...F ....|G#1 7A.. ....
....|..|--- .... ....|R-- .... ....|--- .... ....
 G#4|..|R-- .... ....|F-5 ...A ....|--- .... ....
....|..|--- .... ....|--- .... ....|--- .... ....
 G#4|..|--- .... ....|--- .... ....|G#3 AF.F ....
....|..|--- .... ....|--- .... ....|--- .... ....
 G#4|..|G#4 ...F ....|G#4 ...A ....|--- .... ....
....|..|--- .... ....|--- .... ....|--- .... ....
 G#2|..|R-- .... ....|F-5 ...F ....|G#1 7A.. ....
....|..|--- .... ....|R-- .... ....|--- .... ....
 G#4|..|--- .... ....|D#5 ...F ....|--- .... ....
....|..|--- .... ....|R-- .... ....|--- .... ....
....|..|G#4 ...A ....|D#5 ...F ....|G-3 AF.F ....
....|..|--- .... ....|R-- .... ....|--- .... ....
 G-4|..|--- .... ....|G-4 ...F ....|--- .... ....
....|..|--- .... ....|R-- .... ....|--- .... ....
 G-2|..|G-4 .F5F ....|C-5 ...F ....|G-1 7A.. ....
....|..|--- .... ....|--- .... ....|--- .... ....
 G-4|..|R-- .... ....|D#5 ...A ....|--- .... ....
....|..|--- .... ....|R-- .... ....|--- .... ....
 G-4|..|--- .... ....|G-4 ...A ....|G-3 AF.F ....
....|..|--- .... ....|--- .... ....|--- .... ....
 G-4|..|G-4 ...F ....|C-5 ...A ....|--- .... ....
....|..|--- .... ....|--- .... ....|--- .... ....
 G-2|..|R-- .... ....|D#5 ...F ....|G-1 7A.. ....
....|..|--- .... ....|--- .... ....|--- .... ....
 G-4|..|--- .... ....|E-5 ...F ....|--- .... ....
....|..|--- .... ....|--- .... ....|--- .... ....
 G#4|..|G-4 ...A ....|F-5 ...F ....|G#3 AF.F ....
....|..|--- .... ....|--- .... ....|--- .... ....
 C-4|..|--- .... ....|R-- .... ....|--- .... ....
....|..|--- .... ....|--- .... ....|--- .... ....
 G#3|..|G#4 .F4F ....|G#4 ...F ....|G#2 7A.. ....
....|..|--- .... ....|--- .... ....|--- .... ....
 C-4|..|R-- .... ....|R-- .... ....|--- .... ....
....|..|--- .... ....|--- .... ....|--- .... ....
 C-4|..|--- .... ....|--- .... ....|G#3 AF.F ....
....|..|--- .... ....|--- .... ....|--- .... ....
 A#4|..|G#4 ...F ....|G#4 ...A ....|--- .... ....
....|..|--- .... ....|--- .... ....|--- .... ....
 G#3|..|R-- .... ....|F-5 ...F ....|G#2 7A.. ....
....|..|--- .... ....|R-- .... ....|--- .... ....
 C-4|..|--- .... ....|D#5 ...F ....|--- .... ....
....|..|--- .... ....|R-- .... ....|--- .... ....
....|..|G#4 ...A ....|--- .... ....|F#3 AF.F ....
....|..|--- .... ....|--- .... ....|--- .... ....
 G-4|..|--- .... ....|G-4 ...F ....|--- .... ....
....|..|--- .... ....|R-- .... ....|--- .... ....
 G-3|..|G-4 .F5F ....|D#5 ...A ....|G-2 7A.. ....
....|..|--- .... ....|--- .... ....|--- .... ....
 G-4|..|R-- .... ....|--- .... ....|--- .... ....
....|..|--- .... ....|--- .... ....|--- .... ....
 G-4|..|--- .... ....|G-4 ...A ....|G-3 AF.F ....
....|..|--- .... ....|--- .... ....|--- .... ....
 G-4|..|G-4 ...F ....|D#5 ...F ....|--- .... ....
....|..|--- .... ....|R-- .... ....|--- .... ....
 G-3|..|R-- .... ....|D#5 ...F ....|G-2 7A.. ....
....|..|--- .... ....|R-- .... ....|--- .... ....
 G-4|..|--- .... ....|E-5 ...F ....|--- .... ....
....|..|--- .... ....|R-- .... ....|--- .... ....

[Pattern21]
 F-3|..|G-4 1F5A ....|F-5 3F.F ....|F-3 AF.F ....
....|..|--- .... ....|R-- .... ....|--- .... ....
 F-2|..|--- .... ....|D#5 ...A ....|--- .... ....
....|..|--- .... ....|--- .... ....|--- .... ....
 F-4|..|--- .... ....|G#4 ...F ....|F-3 7A.. ....
....|..|--- .... ....|R-- .... ....|--- .... ....
 F-3|..|F-5 .F3F ....|F-5 ...A ....|--- .... ....
....|..|R-- .... ....|--- .... 11.1|--- .... ....
 F-2|..|G#4 .F4F ....|--- .... ....|F-3 AF.F ....
....|..|R-- .... ....|--- .... ....|--- .... ....
 F-2|..|--- .... ....|G#4 ...A ....|--- .... ....
....|..|--- .... ....|--- .... 11.2|--- .... ....
 F-4|..|F-5 .F3F ....|F-5 .FAF ....|F-3 7A.. ....
....|..|R-- .... ....|R-- .... ....|--- .... ....
 D#2|..|G#4 .F4F ....|D#5 ...F ....|--- .... ....
....|..|R-- .... ....|--- .... 11.2|--- .... ....
 D#3|..|--- .... ....|F-5 ...F 31.F|D#3 AF.F ....
....|..|--- .... ....|R-- .... ....|--- .... ....
 D#2|..|F-5 .F3A ....|G-4 ...F ....|--- .... ....
....|..|--- .... ....|R-- .... ....|--- .... ....
 D#4|..|D#5 .F5F ....|D#5 .F.A ....|D#3 7A.. ....
....|..|R-- .... ....|--- .... ....|--- .... ....
 D#2|..|G-4 .F5F ....|F-5 ...A ....|--- .... ....
....|..|R-- .... ....|--- .... ....|--- .... ....
 D#3|..|--- .... ....|G-4 ...A ....|D#3 AF.F ....
....|..|--- .... ....|--- .... ....|--- .... ....
 D#2|..|D#5 .F5F ....|--- .... ....|--- .... ....
....|..|R-- .... ....|--- .... ....|--- .... ....
 D#4|..|G-4 .F5F ....|D#5 ...F ....|D#3 7A.. ....
....|..|R-- .... ....|R-- .... ....|--- .... ....
 D#2|..|--- .... ....|C#5 ...F ....|--- .... ....
....|..|--- .... ....|R-- .... ....|--- .... ....
 D#3|..|D#5 .FEA ....|D#5 ...F ....|D#3 AF.F ....
....|..|--- .... ....|R-- .... ....|--- .... ....
 D#2|..|G-4 ...A ....|D#5 ...A ....|--- .... ....
....|..|--- .... ....|--- .... ....|--- .... ....
 D#3|..|--- .... ....|F#4 ...F ....|D#2 7A.. ....
....|..|--- .... ....|R-- .... ....|--- .... ....
 D#2|..|D#5 ...F ....|D#5 ...A ....|--- .... ....
....|..|R-- .... ....|--- .... ....|--- .... ....
 D#3|..|F#4 ...F ....|--- .... ....|D#3 AF.F ....
....|..|R-- .... ....|--- .... ....|--- .... ....
 D#2|..|--- .... ....|F#4 ...A ....|--- .... ....
....|..|--- .... ....|--- .... ....|--- .... ....
 D#3|..|D#5 ...F ....|D#5 .FAF ....|D#2 7A.. ....
....|..|R-- .... ....|R-- .... ....|--- .... ....
 C#2|..|F#4 ...F ....|C#5 ...F ....|--- .... ....
....|..|R-- .... ....|--- .... 11.2|--- .... ....
 C#3|..|--- .... ....|D#5 ...F ....|C#3 AF.F ....
....|..|--- .... ....|R-- .... ....|--- .... ....
 C#2|..|D#5 ...A ....|F-4 ...F ....|--- .... ....
....|..|--- .... ....|R-- .... ....|--- .... ....
 C#4|..|C#5 ...F ....|C#5 .F.A ....|C#3 7A.. ....
....|..|R-- .... ....|--- .... ....|--- .... ....
 C#2|..|F-4 ...F ....|D#5 ...A ....|--- .... ....
....|..|R-- .... ....|--- .... ....|--- .... ....
 C#3|..|--- .... ....|F-4 ...A ....|C#3 AF.F ....
....|..|--- .... ....|--- .... ....|--- .... ....
 C#2|..|C#5 ...F ....|--- .... ....|--- .... ....
....|..|R-- .... ....|--- .... ....|--- .... ....
 C#4|..|F-4 ...F ....|C#5 ...F ....|C#3 7A.. ....
....|..|R-- .... ....|R-- .... ....|--- .... ....
 C#2|..|--- .... ....|B-4 ...F ....|--- .... ....
....|..|--- .... ....|--- .... ....|--- .... ....

[Pattern22]
 C#4|..|C#5 .FEA ....|C#5 GFAF ....|C#4 AF.F ....
....|..|--- .... ....|R-- .... ....|--- .... ....
 C#4|..|F-4 ...A ....|C#5 ...A ....|--- .... ....
....|..|--- .... ....|--- .... ....|--- .... ....
 C#4|..|--- .... ....|E-4 ...F ....|C#3 7A.. ....
....|..|--- .... ....|R-- .... ....|--- .... ....
 C#4|..|C#5 ...F ....|C#5 ...A ....|--- .... ....
....|..|R-- .... ....|--- .... ....|--- .... ....
 C#4|..|E-4 ...F ....|--- .... ....|C#4 AF.F ....
....|..|R-- .... ....|--- .... ....|--- .... ....
 C#4|..|--- .... ....|E-4 ...A ....|--- .... ....
....|..|--- .... ....|--- .... ....|--- .... ....
 C#4|..|C#5 ...F ....|C#5 3FEF ....|C#3 7A.. ....
....|..|R-- .... ....|R-- .... ....|--- .... ....
 B-3|..|E-4 ...F ....|B-4 ...F ....|--- .... ....
....|..|R-- .... ....|R-- .... ....|--- .... ....
 B-3|..|--- .... ....|C#5 ...F ....|B-3 AF.F ....
....|..|--- .... ....|R-- .... ....|--- .... ....
 B-3|..|C#5 ...A ....|D#4 ...F ....|--- .... ....
....|..|--- .... ....|R-- .... ....|--- .... ....
 B-3|..|B-4 ...F ....|B-4 GFAA ....|B-2 7A.. ....
....|..|R-- .... ....|--- .... ....|--- .... ....
 B-3|..|D#4 ...F ....|C#5 ...A ....|--- .... ....
....|..|R-- .... ....|--- .... ....|--- .... ....
 B-3|..|--- .... ....|D#4 ...A ....|B-3 AF.F ....
....|..|--- .... ....|--- .... ....|--- .... ....
 B-3|..|B-4 ...F ....|--- .... ....|--- .... ....
....|..|R-- .... ....|--- .... ....|--- .... ....
 B-3|..|D#4 ...F ....|D#5 3F.F ....|B-2 7A.. ....
....|..|R-- .... ....|--- .... ....|--- .... ....
 B-3|..|--- .... ....|C#5 ...F ....|--- .... ....
....|..|--- .... ....|--- .... ....|--- .... ....
 D#4|..|B-4 ...A ....|D#5 ...F 31.F|D#4 AF.F ....
....|..|--- .... ....|R-- .... ....|--- .... ....
 D#4|..|D#4 ...A ....|D#5 ...A ....|--- .... ....
....|..|--- .... ....|--- .... ....|--- .... ....
 D#4|..|--- .... ....|F#4 3FAF ....|D#3 7A.. ....
....|..|--- .... ....|R-- .... ....|--- .... ....
 D#4|..|D#5 ...F ....|D#5 ...A ....|--- .... ....
....|..|R-- .... ....|--- .... ....|--- .... ....
 D#4|..|F#4 ...F ....|--- .... ....|D#4 AF.F ....
....|..|R-- .... ....|--- .... ....|--- .... ....
 D#4|..|--- .... ....|F#4 ...A ....|--- .... ....
....|..|--- .... ....|--- .... ....|--- .... ....
 D#4|..|D#5 ...F ....|D#5 GFEF ....|D#3 7A.. ....
....|..|R-- .... ....|R-- .... ....|--- .... ....
 C#4|..|F#4 ...F ....|C#5 ...F ....|--- .... ....
....|..|R-- .... ....|R-- .... ....|--- .... ....
 C#4|..|--- .... ....|D#5 ...F ....|C#4 AF.F ....
....|..|--- .... ....|R-- .... ....|--- .... ....
 C#4|..|D#5 ...A ....|F-4 ...F ....|--- .... ....
....|..|--- .... ....|R-- .... ....|--- .... ....
 C#4|..|C#5 ...F ....|C#5 2F.A ....|C#3 7A.. ....
....|..|R-- .... ....|--- .... ....|--- .... ....
 C#4|..|F-4 ...F ....|D#5 ...A ....|--- .... ....
....|..|R-- .... ....|--- .... ....|--- .... ....
 C#4|..|--- .... ....|F-4 ...A ....|C#4 AF.F ....
....|..|--- .... ....|--- .... ....|--- .... ....
 C#4|..|C#5 ...F ....|--- .... ....|--- .... ....
....|..|R-- .... ....|--- .... ....|--- .... ....
 C#4|..|F-4 ...F ....|D#5 ...F ....|C#3 7A.. ....
....|..|R-- .... ....|R-- .... ....|--- .... ....
 C#4|..|--- .... ....|E-5 ...F ....|--- .... ....
....|..|--- .... ....|R-- .... ....|--- .... ....

[Pattern23]
 F-4|..|C#5 GF9A ....|F-5 .FAF ....|F-3 AF.F ....
....|..|--- .... ....|R-- .... ....|--- .... ....
 F-4|..|F-4 ...A ....|D#5 ...A ....|--- .... ....
....|..|--- .... ....|--- .... ....|--- .... ....
 F-3|..|--- .... ....|G#4 ...F ....|F-3 7C.. ....
....|..|--- .... ....|R-- .... ....|--- .... ....
 F-4|..|F-5 ...F ....|F-5 ...A ....|--- .... ....
....|..|R-- .... ....|--- .... ....|--- .... ....
 F-4|..|G#4 ...F ....|--- .... ....|F-3 AF.F ....
....|..|R-- .... ....|--- .... ....|--- .... ....
 F-4|..|--- .... ....|G#4 ...A ....|--- .... ....
....|..|--- .... ....|--- .... ....|--- .... ....
 F-3|..|F-5 ...F ....|F-5 .FEF ....|F-3 7C.. ....
....|..|R-- .... ....|R-- .... ....|--- .... ....
 D#4|..|G#4 ...F ....|D#5 ...F ....|--- .... ....
....|..|R-- .... ....|R-- .... ....|--- .... ....
 D#4|..|--- .... ....|F-5 ...F ....|D#3 AF.F ....
....|..|--- .... ....|R-- .... ....|--- .... ....
 D#4|..|F-5 ...A ....|G-4 ...F ....|--- .... ....
....|..|--- .... ....|R-- .... ....|--- .... ....
 D#3|..|D#5 ...F ....|D#5 .FAA ....|D#3 7C.. ....
....|..|R-- .... ....|--- .... ....|--- .... ....
 D#4|..|G-4 ...F ....|F-5 ...A ....|--- .... ....
....|..|R-- .... ....|--- .... ....|--- .... ....
 D#4|..|--- .... ....|G-4 ...A ....|D#3 AF.F ....
....|..|--- .... ....|--- .... ....|--- .... ....
 D#4|..|D#5 ...F ....|--- .... ....|--- .... ....
....|..|R-- .... ....|--- .... ....|--- .... ....
 D#3|..|G-4 ...F ....|D#5 .F.F ....|D#3 7C.. ....
....|..|R-- .... ....|R-- .... ....|--- .... ....
 D#4|..|--- .... ....|C#5 ...F ....|--- .... ....
....|..|--- .... ....|R-- .... ....|--- .... ....
 D#4|..|D#5 ...A ....|D#5 ...F ....|D#3 AF.F ....
....|..|--- .... ....|R-- .... ....|--- .... ....
 D#4|..|G-4 ...A ....|D#5 ...A ....|--- .... ....
....|..|--- .... ....|--- .... ....|--- .... ....
 D#2|..|--- .... ....|F#4 .FAF ....|D#2 7C.. ....
....|..|--- .... ....|R-- .... ....|--- .... ....
 D#4|..|D#5 ...F ....|D#5 ...A ....|--- .... ....
....|..|R-- .... ....|--- .... ....|--- .... ....
 D#4|..|F#4 ...F ....|--- .... ....|D#3 AF.F ....
....|..|R-- .... ....|--- .... ....|--- .... ....
 D#4|..|--- .... ....|F#4 ...A ....|--- .... ....
....|..|--- .... ....|--- .... ....|--- .... ....
 D#2|..|D#5 ...F ....|D#5 .FEF ....|D#2 7C.. ....
....|..|R-- .... ....|R-- .... ....|--- .... ....
 C#4|..|F#4 ...F ....|C#5 ...F ....|--- .... ....
....|..|R-- .... ....|R-- .... ....|--- .... ....
 C#4|..|--- .... ....|D#5 ...F ....|C#3 AF.F ....
....|..|--- .... ....|R-- .... ....|--- .... ....
 C#4|..|D#5 ...A ....|F-4 ...F ....|--- .... ....
....|..|--- .... ....|R-- .... ....|--- .... ....
 C#3|..|C#5 ...F ....|C#5 .F.A ....|C#3 7C.. ....
....|..|R-- .... ....|--- .... ....|--- .... ....
 C#4|..|F-4 ...F ....|D#5 ...A ....|--- .... ....
....|..|R-- .... ....|--- .... ....|--- .... ....
 C#4|..|--- .... ....|F-4 ...A ....|C#3 AF.F ....
....|..|--- .... ....|--- .... ....|--- .... ....
 C#4|..|C#5 ...F ....|--- .... ....|--- .... ....
....|..|R-- .... ....|--- .... ....|--- .... ....
 C#3|..|F-4 ...F ....|C#5 ...F ....|C#3 7C.. ....
....|..|R-- .... ....|R-- .... ....|--- .... ....
 C#4|..|--- .... ....|B-4 ...F ....|--- .... ....
....|..|--- .... ....|R-- .... ....|--- .... ....

[Pattern24]
 C#4|..|C#5 ...A ....|C#5 ...F ....|C#4 AF.F ....
....|..|--- .... ....|R-- .... ....|--- .... ....
 C#4|..|F-4 ...A ....|C#5 ...A ....|--- .... ....
....|..|--- .... ....|--- .... ....|--- .... ....
 C#3|..|--- .... ....|E-4 ...F ....|C#3 7C.. ....
....|..|--- .... ....|R-- .... ....|--- .... ....
 C#4|..|C#5 ...F ....|C#5 ...A ....|--- .... ....
....|..|R-- .... ....|--- .... ....|--- .... ....
 C#4|..|E-4 ...F ....|--- .... ....|C#4 AF.F ....
....|..|R-- .... ....|--- .... ....|--- .... ....
 C#4|..|--- .... ....|E-4 ...A ....|--- .... ....
....|..|--- .... ....|--- .... ....|--- .... ....
 C#3|..|C#5 ...F ....|C#5 ...F ....|C#3 7C.. ....
....|..|R-- .... ....|R-- .... ....|--- .... ....
 B-3|..|E-4 ...F ....|B-4 ...F ....|--- .... ....
....|..|R-- .... ....|R-- .... ....|--- .... ....
 B-3|..|--- .... ....|C#5 ...F ....|B-3 AF.F ....
....|..|--- .... ....|R-- .... ....|--- .... ....
 B-3|..|C#5 ...A ....|D#4 ...F ....|--- .... ....
....|..|--- .... ....|R-- .... ....|--- .... ....
 B-2|..|B-4 ...F ....|B-4 ...A ....|B-2 7C.. ....
....|..|R-- .... ....|--- .... ....|--- .... ....
 B-3|..|D#4 ...F ....|C#5 ...A ....|--- .... ....
....|..|R-- .... ....|--- .... ....|--- .... ....
 B-3|..|--- .... ....|D#4 ...A ....|B-3 AF.F ....
....|..|--- .... ....|--- .... ....|--- .... ....
 B-3|..|B-4 ...F ....|--- .... ....|--- .... ....
....|..|R-- .... ....|--- .... ....|--- .... ....
 B-2|..|D#4 ...F ....|D#5 ...F ....|B-2 7C.. ....
....|..|R-- .... ....|R-- .... ....|--- .... ....
 B-3|..|--- .... ....|C#5 ...F ....|--- .... ....
....|..|--- .... ....|R-- .... ....|--- .... ....
 D#4|..|B-4 ...A ....|D#5 ...F ....|D#4 AF.F ....
....|..|--- .... ....|R-- .... ....|--- .... ....
 D#4|..|D#4 ...A ....|D#5 ...A ....|--- .... ....
....|..|--- .... ....|--- .... ....|--- .... ....
 D#3|..|--- .... ....|F#4 ...F ....|D#3 7C.. ....
....|..|--- .... ....|R-- .... ....|--- .... ....
 D#4|..|D#5 ...F ....|D#5 ...A ....|--- .... ....
....|..|R-- .... ....|--- .... ....|--- .... ....
 D#4|..|F#4 ...F ....|--- .... ....|D#4 AF.F ....
....|..|R-- .... ....|--- .... ....|--- .... ....
 D#4|..|--- .... ....|F#4 ...A ....|--- .... ....
....|..|--- .... ....|--- .... ....|--- .... ....
 D#3|..|D#5 ...F ....|D#5 ...F ....|D#3 7C.. ....
....|..|R-- .... ....|R-- .... ....|--- .... ....
 C#4|..|F#4 ...F ....|C#5 ...F ....|--- .... ....
....|..|R-- .... ....|R-- .... ....|--- .... ....
 C#4|..|--- .... ....|D#5 ...F ....|C#4 AF.F ....
....|..|--- .... ....|R-- .... ....|--- .... ....
 C#4|..|D#5 ...A ....|F-4 ...F ....|--- .... ....
....|..|--- .... ....|R-- .... ....|--- .... ....
 C#3|..|C#5 ...F ....|C#5 ...A ....|C#3 7C.. ....
....|..|R-- .... ....|--- .... ....|--- .... ....
 C#4|..|F-4 ...F ....|D#5 ...A ....|--- .... ....
....|..|R-- .... ....|--- .... ....|--- .... ....
 C#4|..|--- .... ....|F-4 ...A ....|C#4 AF.F ....
....|..|--- .... ....|--- .... ....|--- .... ....
 C#4|..|C#5 ...F ....|--- .... ....|--- .... ....
....|..|R-- .... ....|--- .... ....|--- .... ....
 C#3|..|F-4 ...F ....|--- .... ....|C#3 7C.. ....
....|..|R-- .... ....|--- .... ....|--- .... ....
....|..|--- .... ....|--- .... ....|--- .... ....
....|..|--- .... ....|--- .... ....|--- .... ....

[Pattern25]
 F-4|..|C#5 .FAA ....|F-5 ...F ....|F-3 AF.F ....
....|..|--- .... ....|R-- .... ....|--- .... ....
 F-4|..|F-4 ...A ....|--- .... ....|--- .... ....
....|..|--- .... ....|--- .... ....|--- .... ....
 F-2|..|--- .... ....|G#4 ...F ....|F-2 7C.. ....
....|..|--- .... ....|R-- .... ....|--- .... ....
 F-4|..|F-5 ...F ....|F-5 ...A ....|--- .... ....
....|..|R-- .... ....|--- .... ....|--- .... ....
 F-4|..|G#4 ...F ....|--- .... ....|F-3 AF.F ....
....|..|R-- .... ....|--- .... ....|--- .... ....
 F-4|..|--- .... ....|G#4 ...A ....|--- .... ....
....|..|--- .... ....|--- .... ....|--- .... ....
 F-2|..|F-5 ...F ....|F-5 ...F ....|F-2 7C.. ....
....|..|R-- .... ....|R-- .... ....|--- .... ....
 D#4|..|G#4 ...F ....|D#5 ...F ....|--- .... ....
....|..|R-- .... ....|R-- .... ....|--- .... ....
 D#4|..|--- .... ....|F-5 ...F ....|D#3 AF.F ....
....|..|--- .... ....|R-- .... ....|--- .... ....
 D#4|..|F-5 ...A ....|G-4 ...F ....|--- .... ....
....|..|--- .... ....|R-- .... ....|--- .... ....
 D#2|..|D#5 ...F ....|D#5 ...A ....|D#2 7C.. ....
....|..|R-- .... ....|--- .... ....|--- .... ....
 D#4|..|G-4 ...F ....|F-5 ...A ....|--- .... ....
....|..|R-- .... ....|--- .... ....|--- .... ....
 D#4|..|--- .... ....|G-4 ...A ....|D#3 AF.F ....
....|..|--- .... ....|--- .... ....|--- .... ....
 D#4|..|D#5 ...F ....|--- .... ....|--- .... ....
....|..|R-- .... ....|--- .... ....|--- .... ....
 D#2|..|G-4 ...F ....|D#5 ...F ....|D#2 7C.. ....
....|..|R-- .... ....|R-- .... ....|--- .... ....
 D#4|..|--- .... ....|C#5 ...F ....|--- .... ....
....|..|--- .... ....|R-- .... ....|--- .... ....
 D#4|..|D#5 ...A ....|D#5 ...F ....|D#3 AF.F ....
....|..|--- .... ....|R-- .... ....|--- .... ....
 D#4|..|G-4 ...A ....|D#5 ...A ....|--- .... ....
....|..|--- .... ....|--- .... ....|--- .... ....
 D#2|..|--- .... ....|F#4 ...F ....|D#2 7C.. ....
....|..|--- .... ....|R-- .... ....|--- .... ....
 D#4|..|D#5 ...F ....|D#5 ...A ....|--- .... ....
....|..|R-- .... ....|--- .... ....|--- .... ....
 D#4|..|F#4 ...F ....|--- .... ....|D#3 AF.F ....
....|..|R-- .... ....|--- .... ....|--- .... ....
 D#4|..|--- .... ....|F#4 ...A ....|--- .... ....
....|..|--- .... ....|--- .... ....|--- .... ....
 D#2|..|D#5 ...F ....|D#5 ...F ....|D#2 7C.. ....
....|..|R-- .... ....|R-- .... ....|--- .... ....
 C#4|..|F#4 ...F ....|C#5 ...F ....|--- .... ....
....|..|R-- .... ....|R-- .... ....|--- .... ....
 C#4|..|--- .... ....|D#5 ...F ....|C#3 AF.F ....
....|..|--- .... ....|R-- .... ....|--- .... ....
 C#4|..|D#5 ...A ....|F-4 ...F ....|--- .... ....
....|..|--- .... ....|R-- .... ....|--- .... ....
 C#2|..|C#5 ...F ....|C#5 ...A ....|C#2 7C.. ....
....|..|R-- .... ....|--- .... ....|--- .... ....
 C#4|..|F-4 ...F ....|D#5 ...A ....|--- .... ....
....|..|R-- .... ....|--- .... ....|--- .... ....
 C#4|..|--- .... ....|F-4 ...A ....|C#3 AF.F ....
....|..|--- .... ....|--- .... ....|--- .... ....
 C#4|..|C#5 ...F ....|--- .... ....|--- .... ....
....|..|R-- .... ....|--- .... ....|--- .... ....
 C#2|..|F-4 ...F ....|C#5 ...F ....|C#2 7C.. ....
....|..|R-- .... ....|R-- .... ....|--- .... ....
 C#4|..|--- .... ....|B-4 ...F ....|--- .... ....
....|..|--- .... ....|R-- .... ....|--- .... ....

[Pattern26]
 C#4|..|C#5 ...A ....|C#5 ...F ....|C#4 AF.F ....
....|..|--- .... ....|R-- .... ....|--- .... ....
 C#4|..|F-4 ...A ....|C#5 ...A ....|--- .... ....
....|..|--- .... ....|--- .... ....|--- .... ....
 C#3|..|--- .... ....|E-4 ...F ....|C#3 7C.. ....
....|..|--- .... ....|R-- .... ....|--- .... ....
 C#4|..|C#5 ...F ....|C#5 ...A ....|--- .... ....
....|..|R-- .... ....|--- .... ....|--- .... ....
 C#4|..|E-4 ...F ....|--- .... ....|C#4 AF.F ....
....|..|R-- .... ....|--- .... ....|--- .... ....
 C#4|..|--- .... ....|E-4 ...A ....|--- .... ....
....|..|--- .... ....|--- .... ....|--- .... ....
 C#3|..|C#5 ...F ....|C#5 ...F ....|C#3 7C.. ....
....|..|R-- .... ....|R-- .... ....|--- .... ....
 B-3|..|E-4 ...F ....|B-4 ...F ....|--- .... ....
....|..|R-- .... ....|R-- .... ....|--- .... ....
 B-3|..|--- .... ....|C#5 ...F ....|B-3 AF.F ....
....|..|--- .... ....|R-- .... ....|--- .... ....
 B-3|..|C#5 ...A ....|D#4 ...F ....|--- .... ....
....|..|--- .... ....|R-- .... ....|--- .... ....
 B-2|..|B-4 ...F ....|B-4 ...A ....|B-2 7C.. ....
....|..|R-- .... ....|--- .... ....|--- .... ....
 B-3|..|D#4 ...F ....|C#5 ...A ....|--- .... ....
....|..|R-- .... ....|--- .... ....|--- .... ....
 B-3|..|--- .... ....|D#4 ...A ....|B-3 AF.F ....
....|..|--- .... ....|--- .... ....|--- .... ....
 B-3|..|B-4 ...F ....|--- .... ....|--- .... ....
....|..|R-- .... ....|--- .... ....|--- .... ....
 B-2|..|D#4 ...F ....|D#5 ...F ....|B-2 7C.. ....
....|..|R-- .... ....|R-- .... ....|--- .... ....
 B-3|..|--- .... ....|C#5 ...F ....|--- .... ....
....|..|--- .... ....|R-- .... ....|--- .... ....
 D#4|..|B-4 ...A ....|D#5 ...F ....|D#4 AF.F ....
....|..|--- .... ....|R-- .... ....|--- .... ....
 D#4|..|D#4 ...A ....|D#5 ...A ....|--- .... ....
....|..|--- .... ....|--- .... ....|--- .... ....
 D#3|..|--- .... ....|F#4 ...F ....|D#3 7C.. ....
....|..|--- .... ....|R-- .... ....|--- .... ....
 D#4|..|D#5 ...F ....|D#5 ...A ....|--- .... ....
....|..|R-- .... ....|--- .... ....|--- .... ....
 D#4|..|F#4 ...F ....|--- .... ....|D#4 AF.F ....
....|..|R-- .... ....|--- .... ....|--- .... ....
 D#4|..|--- .... ....|F#4 ...A ....|--- .... ....
....|..|--- .... ....|--- .... ....|--- .... ....
 D#3|..|D#5 ...F ....|D#5 ...F ....|D#3 7C.. ....
....|..|R-- .... ....|R-- .... ....|--- .... ....
 C#4|..|F#4 ...F ....|C#5 ...F ....|--- .... ....
....|..|R-- .... ....|R-- .... ....|--- .... ....
 C#4|..|--- .... ....|D#5 ...F ....|C#4 AF.F ....
....|..|--- .... ....|R-- .... ....|--- .... ....
 C#4|..|D#5 ...A ....|F-4 ...F ....|--- .... ....
....|..|--- .... ....|R-- .... ....|--- .... ....
 C#3|..|C#5 ...F ....|C#5 ...A ....|C#3 7C.. ....
....|..|R-- .... ....|--- .... ....|--- .... ....
 C#4|..|F-4 ...F ....|D#5 ...A ....|--- .... ....
....|..|R-- .... ....|--- .... ....|--- .... ....
 C#4|..|--- .... ....|F-4 ...A ....|C#4 AF.F ....
....|..|--- .... ....|--- .... ....|--- .... ....
 C#4|..|C#5 ...F ....|--- .... ....|--- .... ....
....|..|R-- .... ....|--- .... ....|--- .... ....
 C#3|..|F-4 ...F ....|D#5 ...F ....|C#3 7C.. ....
....|..|R-- .... ....|R-- .... ....|--- .... ....
 C#4|..|--- .... ....|E-5 ...F ....|--- .... ....
....|..|--- .... ....|R-- .... ....|--- .... ....

[Pattern27]
 F-4|..|C#5 ...A ....|F-5 ...F ....|F-3 AF.F ....
....|..|--- .... ....|R-- .... ....|--- .... ....
 F-4|..|F-4 ...A ....|D#5 ...A ....|--- .... ....
....|..|--- .... ....|--- .... ....|--- .... ....
 F-3|..|--- .... ....|G#4 ...F ....|F-2 7A.. ....
....|..|--- .... ....|R-- .... ....|--- .... ....
 F-4|..|F-5 ...F ....|F-5 ...A ....|--- .... ....
....|..|R-- .... ....|--- .... ....|--- .... ....
 F-4|..|G#4 ...F ....|--- .... ....|F-3 AF.F ....
....|..|R-- .... ....|--- .... ....|--- .... ....
 F-4|..|--- .... ....|G#4 ...A ....|--- .... ....
....|..|--- .... ....|--- .... ....|--- .... ....
 F-3|..|F-5 ...F ....|F-5 ...F ....|F-2 7A.. ....
....|..|R-- .... ....|R-- .... ....|--- .... ....
 D#4|..|G#4 ...F ....|D#5 ...F ....|--- .... ....
....|..|R-- .... ....|R-- .... ....|--- .... ....
 D#4|..|--- .... ....|F-5 ...F ....|D#3 AF.F ....
....|..|--- .... ....|R-- .... ....|--- .... ....
 D#4|..|F-5 ...A ....|G-4 ...F ....|--- .... ....
....|..|--- .... ....|R-- .... ....|--- .... ....
 D#3|..|D#5 ...F ....|D#5 ...A ....|D#2 7A.. ....
....|..|R-- .... ....|--- .... ....|--- .... ....
 D#4|..|G-4 ...F ....|F-5 ...A ....|--- .... ....
....|..|R-- .... ....|--- .... ....|--- .... ....
 D#4|..|--- .... ....|G-4 ...A ....|D#3 AF.F ....
....|..|--- .... ....|--- .... ....|--- .... ....
 D#4|..|D#5 ...F ....|--- .... ....|--- .... ....
....|..|R-- .... ....|--- .... ....|--- .... ....
 D#3|..|G-4 ...F ....|D#5 ...F ....|D#2 7A.. ....
....|..|R-- .... ....|R-- .... ....|--- .... ....
 D#4|..|--- .... ....|C#5 ...F ....|--- .... ....
....|..|--- .... ....|R-- .... ....|--- .... ....
 D#4|..|D#5 ...A ....|D#5 ...F ....|D#3 AF.F ....
....|..|--- .... ....|R-- .... ....|--- .... ....
 D#4|..|G-4 ...A ....|D#5 ...A ....|--- .... ....
....|..|--- .... ....|--- .... ....|--- .... ....
 D#3|..|--- .... ....|F#4 ...F ....|D#2 7A.. ....
....|..|--- .... ....|R-- .... ....|--- .... ....
 D#4|..|D#5 ...F ....|D#5 ...A ....|--- .... ....
....|..|R-- .... ....|--- .... ....|--- .... ....
 D#4|..|F#4 ...F ....|--- .... ....|D#3 AF.F ....
....|..|R-- .... ....|--- .... ....|--- .... ....
 D#4|..|--- .... ....|F#4 ...A ....|--- .... ....
....|..|--- .... ....|--- .... ....|--- .... ....
 D#3|..|D#5 ...F ....|D#5 ...F ....|D#2 7A.. ....
....|..|R-- .... ....|R-- .... ....|--- .... ....
 C#4|..|F#4 ...F ....|C#5 ...F ....|--- .... ....
....|..|R-- .... ....|R-- .... ....|--- .... ....
 C#4|..|--- .... ....|D#5 ...F ....|C#3 AF.F ....
....|..|--- .... ....|R-- .... ....|--- .... ....
 C#4|..|D#5 ...A ....|F-4 ...F ....|--- .... ....
....|..|--- .... ....|R-- .... ....|--- .... ....
 C#3|..|C#5 ...F ....|C#5 ...A ....|C#2 7A.. ....
....|..|R-- .... ....|--- .... ....|--- .... ....
 C#4|..|F-4 ...F ....|D#5 ...A ....|--- .... ....
....|..|R-- .... ....|--- .... ....|--- .... ....
 C#4|..|--- .... ....|F-4 ...A ....|C#3 AF.F ....
....|..|--- .... ....|--- .... ....|--- .... ....
 C#4|..|C#5 ...F ....|--- .... ....|--- .... ....
....|..|R-- .... ....|--- .... ....|--- .... ....
 C#3|..|F-4 ...F ....|C#5 ...F ....|C#2 7A.. ....
....|..|R-- .... ....|R-- .... ....|--- .... ....
 C#4|..|--- .... ....|B-4 ...F ....|--- .... ....
....|..|--- .... ....|R-- .... ....|--- .... ....

[Pattern28]
 C#4|..|C#5 ...A ....|C#5 ...F ....|C#4 AF.F ....
....|..|--- .... ....|R-- .... ....|--- .... ....
 C#4|..|F-4 ...A ....|C#5 ...A ....|--- .... ....
....|..|--- .... ....|--- .... ....|--- .... ....
 C#4|..|--- .... ....|E-4 ...F ....|C#3 7A.. ....
....|..|--- .... ....|R-- .... ....|--- .... ....
 C#4|..|C#5 ...F ....|C#5 ...A ....|--- .... ....
....|..|R-- .... ....|--- .... ....|--- .... ....
 C#4|..|E-4 ...F ....|--- .... ....|C#4 AF.F ....
....|..|R-- .... ....|--- .... ....|--- .... ....
 C#4|..|--- .... ....|E-4 ...A ....|--- .... ....
....|..|--- .... ....|--- .... ....|--- .... ....
 C#4|..|C#5 ...F ....|C#5 ...F ....|C#3 7A.. ....
....|..|R-- .... ....|R-- .... ....|--- .... ....
 B-3|..|E-4 ...F ....|B-4 ...F ....|--- .... ....
....|..|R-- .... ....|R-- .... ....|--- .... ....
 B-3|..|--- .... ....|C#5 ...F ....|B-3 AF.F ....
....|..|--- .... ....|R-- .... ....|--- .... ....
 B-3|..|C#5 ...A ....|D#4 ...F ....|--- .... ....
....|..|--- .... ....|R-- .... ....|--- .... ....
 B-3|..|B-4 ...F ....|B-4 ...A ....|B-2 7A.. ....
....|..|R-- .... ....|--- .... ....|--- .... ....
 B-3|..|D#4 ...F ....|C#5 ...A ....|--- .... ....
....|..|R-- .... ....|--- .... ....|--- .... ....
 B-3|..|--- .... ....|D#4 ...A ....|B-3 AF.F ....
....|..|--- .... ....|--- .... ....|--- .... ....
 B-3|..|B-4 ...F ....|--- .... ....|--- .... ....
....|..|R-- .... ....|--- .... ....|--- .... ....
 B-3|..|D#4 ...F ....|D#5 ...F ....|B-2 7A.. ....
....|..|R-- .... ....|R-- .... ....|--- .... ....
 B-3|..|--- .... ....|C#5 ...F ....|--- .... ....
....|..|--- .... ....|R-- .... ....|--- .... ....
 D#4|..|B-4 ...A ....|D#5 ...F ....|D#4 AF.F ....
....|..|--- .... ....|R-- .... ....|--- .... ....
 D#4|..|D#4 ...A ....|D#5 ...A ....|--- .... ....
....|..|--- .... ....|--- .... ....|--- .... ....
 D#4|..|--- .... ....|F#4 ...F ....|D#3 7A.. ....
....|..|--- .... ....|R-- .... ....|--- .... ....
 D#4|..|D#5 ...F ....|D#5 ...A ....|--- .... ....
....|..|R-- .... ....|--- .... ....|--- .... ....
 D#4|..|F#4 ...F ....|--- .... ....|D#4 AF.F ....
....|..|R-- .... ....|--- .... ....|--- .... ....
 D#4|..|--- .... ....|F#4 ...A ....|--- .... ....
....|..|--- .... ....|--- .... ....|--- .... ....
 D#4|..|D#5 ...F ....|D#5 ...F ....|D#3 7A.. ....
....|..|R-- .... ....|R-- .... ....|--- .... ....
 C#4|..|F#4 ...F ....|C#5 ...F ....|--- .... ....
....|..|R-- .... ....|R-- .... ....|--- .... ....
 C#4|..|--- .... ....|D#5 ...F ....|C#4 AF.F ....
....|..|--- .... ....|R-- .... ....|--- .... ....
 C#4|..|D#5 ...A ....|F-4 ...F ....|--- .... ....
....|..|--- .... ....|R-- .... ....|--- .... ....
 C#4|..|C#5 ...F ....|C#5 ...A ....|C#3 7A.. ....
....|..|R-- .... ....|--- .... ....|--- .... ....
 C#4|..|F-4 ...F ....|D#5 ...A ....|--- .... ....
....|..|R-- .... ....|--- .... ....|--- .... ....
 C#4|..|--- .... ....|F-4 ...A ....|C#4 AF.F ....
....|..|--- .... ....|--- .... ....|--- .... ....
 C#4|..|C#5 ...F ....|--- .... ....|--- .... ....
....|..|R-- .... ....|--- .... ....|--- .... ....
 C#4|..|F-4 ...F ....|--- .... ....|C#3 7A.. ....
....|..|R-- .... ....|--- .... ....|--- .... ....
 C#4|..|--- .... ....|--- .... ....|--- .... ....
....|..|--- .... ....|--- .... ....|--- .... ....

[Pattern29]
 C#4|..|F-5 1F3F ....|F-5 ...F ....|C#4 AF.F ....
....|..|R-- .... ....|R-- .... ....|--- .... ....
 C#4|..|F-4 .F3A ....|--- .... ....|--- .... ....
....|..|--- .... ....|--- .... ....|--- .... ....
 C#3|..|--- .... ....|G#4 ...F ....|C#3 7C.. ....
....|..|--- .... ....|R-- .... ....|--- .... ....
....|..|F-5 .F3F ....|F-5 ...A ....|--- .... ....
....|..|--- .... ....|--- .... ....|--- .... ....
....|..|R-- .... ....|--- .... ....|C#4 AF.F ....
....|..|--- .... ....|--- .... ....|--- .... ....
....|..|--- .... ....|G#4 ...A ....|--- .... ....
....|..|--- .... ....|--- .... ....|--- .... ....
 C#3|..|F-5 ...F ....|F-5 ...F ....|--- .... ....
....|..|R-- .... ....|R-- .... ....|--- .... ....
....|..|--- .... ....|D#5 ...F ....|--- .... ....
....|..|--- .... ....|R-- .... ....|--- .... ....
....|..|--- .... ....|F-5 ...F ....|--- .... ....
....|..|--- .... ....|R-- .... ....|--- .... ....
....|..|D#5 .F4F ....|G-4 ...F ....|--- .... ....
....|..|--- .... ....|R-- .... ....|--- .... ....
 B-2|..|R-- .... ....|D#5 ...F ....|--- .... ....
....|..|--- .... ....|R-- .... ....|--- .... ....
....|..|--- .... ....|F-5 ...F ....|--- .... ....
....|..|--- .... ....|R-- .... ....|--- .... ....
....|..|D#5 ...F ....|G-4 ...A ....|--- .... ....
....|..|R-- .... ....|--- .... ....|--- .... ....
....|..|--- .... ....|D#5 ...A ....|--- .... ....
....|..|--- .... ....|--- .... ....|--- .... ....
 B-2|..|--- .... ....|D#5 ...F ....|--- .... ....
....|..|--- .... ....|R-- .... ....|--- .... ....
....|..|D#5 ...A ....|C#5 ...F ....|--- .... ....
....|..|--- .... ....|R-- .... ....|--- .... ....
....|..|D#5 .F3F ....|D#5 ...F ....|--- .... ....
....|..|R-- .... ....|R-- .... ....|--- .... ....
....|..|--- .... ....|D#5 ...A ....|--- .... ....
....|..|--- .... ....|--- .... ....|--- .... ....
 D#3|..|--- .... ....|C#5 ...F ....|--- .... ....
....|..|--- .... ....|R-- .... ....|--- .... ....
....|..|D#5 .F3F ....|D#5 ...F ....|--- .... ....
....|..|--- .... ....|R-- .... ....|--- .... ....
....|..|R-- .... ....|--- .... ....|--- .... ....
....|..|--- .... ....|--- .... ....|--- .... ....
....|..|--- .... ....|C#5 ...A ....|--- .... ....
....|..|--- .... ....|--- .... ....|--- .... ....
 D#3|..|D#5 ...F ....|D#5 ...F ....|--- .... ....
....|..|R-- .... ....|R-- .... ....|--- .... ....
....|..|--- .... ....|C#5 ...F ....|--- .... ....
....|..|--- .... ....|R-- .... ....|--- .... ....
....|..|--- .... ....|D#5 ...F ....|--- .... ....
....|..|--- .... ....|R-- .... ....|--- .... ....
....|..|C#5 .F4F ....|F-4 ...F ....|--- .... ....
....|..|--- .... ....|R-- .... ....|--- .... ....
 C#3|..|R-- .... ....|C#5 ...F ....|--- .... ....
....|..|--- .... ....|R-- .... ....|--- .... ....
....|..|--- .... ....|D#5 ...F ....|--- .... ....
....|..|--- .... ....|R-- .... ....|--- .... ....
....|..|C#5 ...F ....|F-4 ...A ....|--- .... ....
....|..|R-- .... ....|--- .... ....|--- .... ....
....|..|--- .... ....|C#5 ...A ....|--- .... ....
....|..|--- .... ....|--- .... ....|--- .... ....
 C#3|..|--- .... ....|C#5 ...F ....|--- .... ....
....|..|--- .... ....|R-- .... ....|--- .... ....
....|..|C#5 ...A ....|B-4 ...F ....|--- .... ....
....|..|--- .... ....|R-- .... ....|--- .... ....

[Pattern30]
....|..|C#5 .F3F ....|C#5 ...F ....|G#3 AF.F ....
....|..|--- .... ....|R-- .... ....|--- .... ....
....|..|R-- .F3. ....|C#5 ...A ....|--- .... ....
....|..|--- .... ....|--- .... ....|--- .... ....
 B-3|..|--- .... ....|B-4 ...F ....|B-2 7A.. ....
....|..|--- .... ....|R-- .... ....|--- .... ....
....|..|C#5 .F3F ....|C#5 ...F ....|--- .... ....
....|..|R-- .... ....|R-- .... ....|--- .... ....
....|..|--- .... ....|--- .... ....|G#3 AF.F ....
....|..|--- .... ....|--- .... ....|--- .... ....
....|..|--- .... ....|B-4 ...A ....|--- .... ....
....|..|--- .... ....|--- .... ....|--- .... ....
....|..|C#5 ...F ....|C#5 ...F ....|--- .... ....
....|..|--- .... ....|R-- .... ....|--- .... ....
....|..|R-- .... ....|B-4 ...F ....|--- .... ....
....|..|--- .... ....|R-- .... ....|--- .... ....
....|..|--- .... ....|C#5 ...F ....|--- .... ....
....|..|--- .... ....|R-- .... ....|--- .... ....
....|..|B-4 .F4F ....|D#4 ...F ....|--- .... ....
....|..|--- .... ....|R-- .... ....|--- .... ....
....|..|R-- .... ....|B-4 ...F ....|--- .... ....
....|..|--- .... ....|R-- .... ....|--- .... ....
....|..|--- .... ....|C#5 ...F ....|--- .... ....
....|..|--- .... ....|R-- .... ....|--- .... ....
....|..|B-4 ...F ....|D#4 ...A ....|--- .... ....
....|..|R-- .... ....|--- .... ....|--- .... ....
....|..|--- .... ....|B-4 ...A ....|--- .... ....
....|..|--- .... ....|--- .... ....|--- .... ....
....|..|--- .... ....|D#5 ...F ....|--- .... ....
....|..|--- .... ....|R-- .... ....|--- .... ....
....|..|B-4 ...A ....|C#5 ...F ....|--- .... ....
....|..|--- .... ....|R-- .... ....|--- .... ....
....|..|D#5 .F3F ....|D#5 ...F ....|--- .... ....
....|..|--- .... ....|R-- .... ....|--- .... ....
....|..|R-- .... ....|D#5 ...A ....|--- .... ....
....|..|--- .... ....|--- .... ....|--- .... ....
....|..|--- .... ....|C#5 ...F ....|--- .... ....
....|..|--- .... ....|R-- .... ....|--- .... ....
....|..|D#5 .F3F ....|D#5 ...F ....|--- .... ....
....|..|R-- .... ....|R-- .... ....|--- .... ....
....|..|--- .... ....|--- .... ....|--- .... ....
....|..|--- .... ....|--- .... ....|--- .... ....
....|..|--- .... ....|C#5 ...A ....|--- .... ....
....|..|--- .... ....|--- .... ....|--- .... ....
....|..|D#5 ...F ....|D#5 ...F ....|--- .... ....
....|..|--- .... ....|R-- .... ....|--- .... ....
....|..|R-- .... ....|C#5 ...F ....|--- .... ....
....|..|--- .... ....|R-- .... ....|--- .... ....
....|..|--- .... ....|D#5 ...F ....|--- .... ....
....|..|--- .... ....|R-- .... ....|--- .... ....
....|..|C#5 .F4F ....|F-4 ...F ....|--- .... ....
....|..|R-- .... ....|R-- .... ....|--- .... ....
....|..|--- .... ....|C#5 ...A ....|--- .... ....
....|..|--- .... ....|--- .... ....|--- .... ....
....|..|--- .... ....|D#5 ...A ....|--- .... ....
....|..|--- .... ....|--- .... ....|--- .... ....
....|..|C#5 ...F ....|F-4 ...A ....|--- .... ....
....|..|R-- .... ....|--- .... ....|--- .... ....
....|..|--- .... ....|--- .... ....|--- .... ....
....|..|--- .... ....|--- .... ....|--- .... ....
....|..|--- .... ....|D#5 ...F ....|--- .... ....
....|..|--- .... ....|R-- .... ....|--- .... ....
....|..|C#5 .FEA ....|E-5 ...F ....|--- .... ....
....|..|--- .... ....|R-- .... ....|--- .... ....

[Pattern31]
....|..|F-5 .F3F ....|F-5 ...F ....|--- .... ....
....|..|R-- .... ....|R-- .... ....|--- .... ....
....|..|--- .F3. ....|D#5 ...A ....|--- .... ....
....|..|--- .... ....|--- .... ....|--- .... ....
....|..|--- .... ....|G#4 ...F ....|--- .... ....
....|..|--- .... ....|R-- .... ....|--- .... ....
....|..|F-5 .F3F ....|F-5 ...A ....|--- .... ....
....|..|R-- .... ....|--- .... ....|--- .... ....
....|..|--- .... ....|--- .... ....|--- .... ....
....|..|--- .... ....|--- .... ....|--- .... ....
....|..|--- .... ....|G#4 ...A ....|--- .... ....
....|..|--- .... ....|--- .... ....|--- .... ....
....|..|F-5 ...F ....|F-5 ...F ....|--- .... ....
....|..|R-- .... ....|R-- .... ....|--- .... ....
....|..|--- .... ....|D#5 ...F ....|--- .... ....
....|..|--- .... ....|R-- .... ....|--- .... ....
....|..|--- .... ....|F-5 ...F ....|--- .... ....
....|..|--- .... ....|R-- .... ....|--- .... ....
....|..|D#5 .F4F ....|G-4 ...F ....|--- .... ....
....|..|R-- .... ....|R-- .... ....|--- .... ....
....|..|--- .... ....|D#5 ...F ....|--- .... ....
....|..|--- .... ....|R-- .... ....|--- .... ....
....|..|--- .... ....|F-5 ...F ....|--- .... ....
....|..|--- .... ....|R-- .... ....|--- .... ....
....|..|D#5 ...F ....|G-4 ...A ....|--- .... ....
....|..|R-- .... ....|--- .... ....|--- .... ....
....|..|--- .... ....|D#5 ...A ....|--- .... ....
....|..|--- .... ....|--- .... ....|--- .... ....
....|..|--- .... ....|D#5 ...F ....|--- .... ....
....|..|--- .... ....|R-- .... ....|--- .... ....
....|..|D#5 ...A ....|C#5 ...F ....|--- .... ....
....|..|--- .... ....|R-- .... ....|--- .... ....
....|..|D#5 .F3F ....|D#5 ...F ....|--- .... ....
....|..|R-- .... ....|R-- .... ....|--- .... ....
....|..|--- .... ....|D#5 ...A ....|--- .... ....
....|..|--- .... ....|--- .... ....|--- .... ....
....|..|--- .... ....|C#5 ...F ....|--- .... ....
....|..|--- .... ....|R-- .... ....|--- .... ....
....|..|D#5 .F3F ....|D#5 ...F ....|--- .... ....
....|..|R-- .... ....|R-- .... ....|--- .... ....
....|..|--- .... ....|--- .... ....|--- .... ....
....|..|--- .... ....|--- .... ....|--- .... ....
....|..|--- .... ....|C#5 ...A ....|--- .... ....
....|..|--- .... ....|--- .... ....|--- .... ....
....|..|D#5 ...F ....|D#5 ...F ....|--- .... ....
....|..|R-- .... ....|R-- .... ....|--- .... ....
....|..|--- .... ....|C#5 ...F ....|--- .... ....
....|..|--- .... ....|R-- .... ....|--- .... ....
....|..|--- .... ....|D#5 ...F ....|--- .... ....
....|..|--- .... ....|R-- .... ....|--- .... ....
....|..|C#5 .F4F ....|F-4 ...F ....|--- .... ....
....|..|R-- .... ....|R-- .... ....|--- .... ....
....|..|--- .... ....|C#5 ...F ....|--- .... ....
....|..|--- .... ....|R-- .... ....|--- .... ....
....|..|--- .... ....|D#5 ...F ....|--- .... ....
....|..|--- .... ....|R-- .... ....|--- .... ....
....|..|C#5 ...F ....|F-4 ...A ....|--- .... ....
....|..|R-- .... ....|--- .... ....|--- .... ....
....|..|--- .... ....|C#5 ...A ....|--- .... ....
....|..|--- .... ....|--- .... ....|--- .... ....
....|..|--- .... ....|C#5 ...F ....|--- .... ....
....|..|--- .... ....|R-- .... ....|--- .... ....
....|..|C#5 ...A ....|B-4 ...F ....|--- .... ....
....|..|--- .... ....|R-- .... ....|--- .... ....

[Pattern32]
....|..|C#5 .F4F ....|C#5 ...F ....|--- .... ....
....|..|R-- .... ....|R-- .... ....|--- .... ....
....|..|--- .... ....|C#5 ...A ....|--- .... ....
....|..|--- .... ....|--- .... ....|--- .... ....
....|..|--- .... ....|B-4 ...F ....|--- .... ....
....|..|--- .... ....|R-- .... ....|--- .... ....
....|..|C#5 ...F ....|C#5 ...F ....|--- .... ....
....|..|R-- .... ....|R-- .... ....|--- .... ....
....|..|--- .... ....|--- .... ....|--- .... ....
....|..|--- .... ....|--- .... ....|--- .... ....
....|..|--- .... ....|B-4 ...A ....|--- .... ....
....|..|--- .... ....|--- .... ....|--- .... ....
....|..|C#5 ...F ....|C#5 ...F ....|--- .... ....
....|..|R-- .... ....|R-- .... ....|--- .... ....
....|..|--- .... ....|B-4 ...F ....|--- .... ....
....|..|--- .... ....|R-- .... ....|--- .... ....
....|..|--- .... ....|C#5 ...F ....|--- .... ....
....|..|--- .... ....|R-- .... ....|--- .... ....
....|..|B-4 ...F ....|D#4 ...F ....|--- .... ....
....|..|R-- .... ....|R-- .... ....|--- .... ....
....|..|--- .... ....|B-4 ...F ....|--- .... ....
....|..|--- .... ....|R-- .... ....|--- .... ....
....|..|--- .... ....|C#5 ...F ....|--- .... ....
....|..|--- .... ....|R-- .... ....|--- .... ....
....|..|B-4 ...F ....|D#4 ...A ....|--- .... ....
....|..|R-- .... ....|--- .... ....|--- .... ....
....|..|--- .... ....|B-4 ...A ....|--- .... ....
....|..|--- .... ....|--- .... ....|--- .... ....
....|..|--- .... ....|D#5 ...F ....|--- .... ....
....|..|--- .... ....|R-- .... ....|--- .... ....
....|..|B-4 ...A ....|C#5 ...F ....|--- .... ....
....|..|--- .... ....|R-- .... ....|--- .... ....
....|..|D#5 .F3F ....|D#5 ...F ....|--- .... ....
....|..|R-- .... ....|R-- .... ....|--- .... ....
....|..|--- .... ....|D#5 ...A ....|--- .... ....
....|..|--- .... ....|--- .... ....|--- .... ....
....|..|--- .... ....|C#5 ...F ....|--- .... ....
....|..|--- .... ....|R-- .... ....|--- .... ....
....|..|D#5 ...F ....|D#5 ...F ....|--- .... ....
....|..|R-- .... ....|R-- .... ....|--- .... ....
....|..|--- .... ....|--- .... ....|--- .... ....
....|..|--- .... ....|--- .... ....|--- .... ....
....|..|--- .... ....|C#5 ...A ....|--- .... ....
....|..|--- .... ....|--- .... ....|--- .... ....
....|..|D#5 ...F ....|D#5 ...F ....|--- .... ....
....|..|R-- .... ....|R-- .... ....|--- .... ....
....|..|--- .... ....|C#5 ...F ....|--- .... ....
....|..|--- .... ....|R-- .... ....|--- .... ....
....|..|--- .... ....|D#5 ...F ....|--- .... ....
....|..|--- .... ....|R-- .... ....|--- .... ....
....|..|C#5 ...F ....|F-4 ...F ....|--- .... ....
....|..|R-- .... ....|R-- .... ....|--- .... ....
....|..|--- .... ....|C#5 ...A ....|--- .... ....
....|..|--- .... ....|--- .... ....|--- .... ....
....|..|--- .... ....|D#5 ...A ....|--- .... ....
....|..|--- .... ....|--- .... ....|--- .... ....
....|..|C#5 ...F ....|F-4 ...A ....|--- .... ....
....|..|R-- .... ....|--- .... ....|--- .... ....
....|..|--- .... ....|--- .... ....|--- .... ....
....|..|--- .... ....|--- .... ....|--- .... ....
....|..|--- .... ....|--- .... ....|--- .... ....
....|..|--- .... ....|--- .... ....|--- .... ....
....|..|C#5 ...A ....|--- .... ....|--- .... ....
....|..|--- .... ....|--- .... ....|--- .... ....

[Pattern33]
 F-4|..|F-5 .F3F ....|F-5 ...F ....|F-3 AF.F ....
....|..|R-- .... ....|R-- .... ....|--- .... ....
 F-4|..|--- .F3. ....|--- .... ....|--- .... ....
....|..|--- .... ....|--- .... ....|--- .... ....
 F-3|..|--- .... ....|G#4 ...F ....|F-2 7A.. ....
....|..|--- .... ....|R-- .... ....|--- .... ....
 F-4|..|F-5 .F3F ....|F-5 ...A ....|--- .... ....
....|..|R-- .... ....|--- .... ....|--- .... ....
 F-4|..|--- .... ....|--- .... ....|F-3 AF.F ....
....|..|--- .... ....|--- .... ....|--- .... ....
 F-4|..|--- .... ....|G#4 ...A ....|--- .... ....
....|..|--- .... ....|--- .... ....|--- .... ....
 F-3|..|F-5 ...F ....|F-5 ...F ....|F-2 7A.. ....
....|..|R-- .... ....|R-- .... ....|--- .... ....
 D#4|..|--- .... ....|D#5 ...F ....|--- .... ....
....|..|--- .... ....|R-- .... ....|--- .... ....
 D#4|..|--- .... ....|F-5 ...F ....|D#3 AF.F ....
....|..|--- .... ....|R-- .... ....|--- .... ....
 D#4|..|D#5 .F4F ....|G-4 ...F ....|--- .... ....
....|..|R-- .... ....|R-- .... ....|--- .... ....
 D#3|..|--- .... ....|D#5 ...F ....|D#2 7A.. ....
....|..|--- .... ....|R-- .... ....|--- .... ....
 D#4|..|--- .... ....|F-5 ...F ....|--- .... ....
....|..|--- .... ....|R-- .... ....|--- .... ....
 D#4|..|D#5 ...F ....|G-4 ...A ....|D#3 AF.F ....
....|..|R-- .... ....|--- .... ....|--- .... ....
 D#4|..|--- .... ....|D#5 ...A ....|--- .... ....
....|..|--- .... ....|--- .... ....|--- .... ....
 D#3|..|--- .... ....|D#5 ...F ....|D#2 7A.. ....
....|..|--- .... ....|R-- .... ....|--- .... ....
 D#4|..|D#5 ...A ....|C#5 ...F ....|--- .... ....
....|..|--- .... ....|R-- .... ....|--- .... ....
 D#4|..|D#5 .F3F ....|D#5 ...F ....|D#3 AF.F ....
....|..|R-- .... ....|R-- .... ....|--- .... ....
 D#4|..|--- .... ....|D#5 ...A ....|--- .... ....
....|..|--- .... ....|--- .... ....|--- .... ....
 D#3|..|--- .... ....|C#5 ...F ....|D#2 7A.. ....
....|..|--- .... ....|R-- .... ....|--- .... ....
 D#4|..|D#5 ...F ....|D#5 ...F ....|--- .... ....
....|..|R-- .... ....|R-- .... ....|--- .... ....
 D#4|..|--- .... ....|--- .... ....|D#3 AF.F ....
....|..|--- .... ....|--- .... ....|--- .... ....
 D#4|..|--- .... ....|C#5 ...A ....|--- .... ....
....|..|--- .... ....|--- .... ....|--- .... ....
 D#3|..|D#5 ...F ....|D#5 ...F ....|D#2 7A.. ....
....|..|R-- .... ....|R-- .... ....|--- .... ....
 C#4|..|--- .... ....|C#5 ...F ....|--- .... ....
....|..|--- .... ....|R-- .... ....|--- .... ....
 C#4|..|--- .... ....|D#5 ...F ....|C#3 AF.F ....
....|..|--- .... ....|R-- .... ....|--- .... ....
 C#4|..|C#5 .F4F ....|F-4 ...F ....|--- .... ....
....|..|R-- .... ....|R-- .... ....|--- .... ....
 C#3|..|--- .... ....|C#5 ...F ....|C#2 7A.. ....
....|..|--- .... ....|R-- .... ....|--- .... ....
 C#4|..|--- .... ....|D#5 ...F ....|--- .... ....
....|..|--- .... ....|R-- .... ....|--- .... ....
 C#4|..|C#5 ...F ....|F-4 ...A ....|C#3 AF.F ....
....|..|R-- .... ....|--- .... ....|--- .... ....
 C#4|..|--- .... ....|C#5 ...A ....|--- .... ....
....|..|--- .... ....|--- .... ....|--- .... ....
 C#3|..|--- .... ....|C#5 ...F ....|C#2 7A.. ....
....|..|--- .... ....|R-- .... ....|--- .... ....
 C#4|..|C#5 ...A ....|B-4 ...F ....|--- .... ....
....|..|--- .... ....|R-- .... ....|--- .... ....

[Pattern34]
 C#4|..|C#5 1F3F ....|C#5 ...F ....|C#4 AF.F ....
....|..|--- .... ....|R-- .... ....|--- .... ....
 C#4|..|--- .F3. ....|C#5 ...A ....|--- .... ....
....|..|R-- .... ....|--- .... ....|--- .... ....
 C#4|..|--- .... ....|B-4 ...F ....|C#3 7A.. ....
....|..|--- .... ....|R-- .... ....|--- .... ....
 C#4|..|C#5 .F3F ....|C#5 ...F ....|--- .... ....
....|..|R-- .... ....|R-- .... ....|--- .... ....
 C#4|..|--- .... ....|--- .... ....|C#4 AF.F ....
....|..|--- .... ....|--- .... ....|--- .... ....
 C#4|..|--- .... ....|B-4 ...A ....|--- .... ....
....|..|--- .... ....|--- .... ....|--- .... ....
 C#4|..|C#5 ...F ....|C#5 ...F ....|C#3 7A.. ....
....|..|R-- .... ....|R-- .... ....|--- .... ....
 B-3|..|--- .... ....|B-4 ...F ....|--- .... ....
....|..|--- .... ....|R-- .... ....|--- .... ....
 B-3|..|--- .... ....|C#5 ...F ....|B-3 AF.F ....
....|..|--- .... ....|R-- .... ....|--- .... ....
 B-3|..|B-4 .F4F ....|D#4 ...F ....|--- .... ....
....|..|--- .... ....|R-- .... ....|--- .... ....
 B-3|..|R-- .... ....|B-4 ...F ....|B-2 7A.. ....
....|..|--- .... ....|R-- .... ....|--- .... ....
 B-3|..|--- .... ....|C#5 ...F ....|--- .... ....
....|..|--- .... ....|R-- .... ....|--- .... ....
 B-3|..|B-4 ...F ....|D#4 ...A ....|B-3 AF.F ....
....|..|R-- .... ....|--- .... ....|--- .... ....
 B-3|..|--- .... ....|B-4 ...A ....|--- .... ....
....|..|--- .... ....|--- .... ....|--- .... ....
 B-3|..|--- .... ....|D#5 ...F ....|B-2 7A.. ....
....|..|--- .... ....|R-- .... ....|--- .... ....
 B-3|..|B-4 ...A ....|C#5 ...F ....|--- .... ....
....|..|--- .... ....|R-- .... ....|--- .... ....
 D#4|..|D#5 .FEF ....|D#5 ...F ....|D#4 AF.F ....
....|..|--- .... ....|R-- .... ....|--- .... ....
 D#4|..|--- .... ....|D#5 ...A ....|--- .... ....
....|..|R-- .... ....|--- .... ....|--- .... ....
 D#4|..|--- .... ....|C#5 ...F ....|D#3 7A.. ....
....|..|--- .... ....|R-- .... ....|--- .... ....
 D#4|..|D#5 ...F ....|D#5 ...F ....|--- .... ....
....|..|R-- .... ....|R-- .... ....|--- .... ....
 D#4|..|--- .... ....|--- .... ....|D#4 AF.F ....
....|..|--- .... ....|--- .... ....|--- .... ....
 D#4|..|--- .... ....|C#5 ...A ....|--- .... ....
....|..|--- .... ....|--- .... ....|--- .... ....
 D#4|..|D#5 ...F ....|D#5 ...F ....|D#3 7A.. ....
....|..|R-- .... ....|R-- .... ....|--- .... ....
 C#4|..|--- .... ....|C#5 ...F ....|--- .... ....
....|..|--- .... ....|R-- .... ....|--- .... ....
 C#4|..|--- .... ....|D#5 ...F ....|C#4 AF.F ....
....|..|--- .... ....|R-- .... ....|--- .... ....
 C#4|..|C#5 .F4F ....|F-4 ...F ....|--- .... ....
....|..|--- .... ....|R-- .... ....|--- .... ....
 C#4|..|--- .... ....|C#5 ...A ....|C#3 7A.. ....
....|..|R-- .... ....|--- .... ....|--- .... ....
 C#4|..|--- .... ....|D#5 ...A ....|--- .... ....
....|..|--- .... ....|--- .... ....|--- .... ....
 C#4|..|C#5 ...F ....|F-4 ...A ....|C#4 AF.F ....
....|..|R-- .... ....|--- .... ....|--- .... ....
 C#4|..|--- .... ....|--- .... ....|--- .... ....
....|..|--- .... ....|--- .... ....|--- .... ....
 C#4|..|--- .... ....|D#5 ...F ....|C#3 7A.. ....
....|..|--- .... ....|R-- .... ....|--- .... ....
 C#4|..|C#5 ...A ....|E-5 ...F ....|--- .... ....
....|..|--- .... ....|R-- .... ....|--- .... ....

[Pattern35]
 F-4|..|F-5 .F3F ....|F-5 ...F ....|F-3 AF.F ....
....|..|R-- .... ....|R-- .... ....|--- .... ....
 F-4|..|--- .F3. ....|D#5 ...A ....|--- .... ....
....|..|--- .... ....|--- .... ....|--- .... ....
 F-4|..|--- .... ....|G#4 ...F ....|F-2 7A.. ....
....|..|--- .... ....|R-- .... ....|--- .... ....
 F-4|..|F-5 .F3F ....|F-5 ...A ....|--- .... ....
....|..|R-- .... ....|--- .... ....|--- .... ....
 F-4|..|--- .... ....|--- .... ....|F-3 AF.F ....
....|..|--- .... ....|--- .... ....|--- .... ....
 F-4|..|--- .... ....|G#4 ...A ....|--- .... ....
....|..|--- .... ....|--- .... ....|--- .... ....
 F-4|..|F-5 ...F ....|F-5 ...F ....|F-2 7A.. ....
....|..|R-- .... ....|R-- .... ....|--- .... ....
 D#4|..|--- .... ....|D#5 ...F ....|--- .... ....
....|..|--- .... ....|R-- .... ....|--- .... ....
 D#4|..|--- .... ....|F-5 ...F ....|D#3 AF.F ....
....|..|--- .... ....|R-- .... ....|--- .... ....
 D#4|..|D#5 .F4F ....|G-4 ...F ....|--- .... ....
....|..|R-- .... ....|R-- .... ....|--- .... ....
 D#4|..|--- .... ....|D#5 ...F ....|D#2 7A.. ....
....|..|--- .... ....|R-- .... ....|--- .... ....
 D#4|..|--- .... ....|F-5 ...F ....|--- .... ....
....|..|--- .... ....|R-- .... ....|--- .... ....
 D#4|..|D#5 ...F ....|G-4 ...A ....|D#3 AF.F ....
....|..|R-- .... ....|--- .... ....|--- .... ....
 D#4|..|--- .... ....|D#5 ...A ....|--- .... ....
....|..|--- .... ....|--- .... ....|--- .... ....
 D#4|..|--- .... ....|D#5 ...F ....|D#2 7A.. ....
....|..|--- .... ....|R-- .... ....|--- .... ....
 D#4|..|D#5 ...A ....|C#5 ...F ....|--- .... ....
....|..|--- .... ....|R-- .... ....|--- .... ....
 D#4|..|D#5 .F3F ....|D#5 ...F ....|D#3 AF.F ....
....|..|R-- .... ....|R-- .... ....|--- .... ....
 D#4|..|--- .... ....|D#5 ...A ....|--- .... ....
....|..|--- .... ....|--- .... ....|--- .... ....
 D#4|..|--- .... ....|C#5 ...F ....|D#2 7A.. ....
....|..|--- .... ....|R-- .... ....|--- .... ....
 D#4|..|D#5 ...F ....|D#5 ...F ....|--- .... ....
....|..|R-- .... ....|R-- .... ....|--- .... ....
 D#4|..|--- .... ....|--- .... ....|D#3 AF.F ....
....|..|--- .... ....|--- .... ....|--- .... ....
 D#4|..|--- .... ....|C#5 ...A ....|--- .... ....
....|..|--- .... ....|--- .... ....|--- .... ....
 D#4|..|D#5 ...F ....|D#5 ...F ....|D#2 7A.. ....
....|..|R-- .... ....|R-- .... ....|--- .... ....
 C#4|..|--- .... ....|C#5 ...F ....|--- .... ....
....|..|--- .... ....|R-- .... ....|--- .... ....
 C#4|..|--- .... ....|D#5 ...F ....|C#3 AF.F ....
....|..|--- .... ....|R-- .... ....|--- .... ....
 C#4|..|C#5 .F4F ....|F-4 ...F ....|--- .... ....
....|..|R-- .... ....|R-- .... ....|--- .... ....
 C#4|..|--- .... ....|C#5 ...F ....|C#2 7A.. ....
....|..|--- .... ....|R-- .... ....|--- .... ....
 C#4|..|--- .... ....|D#5 ...F ....|--- .... ....
....|..|--- .... ....|R-- .... ....|--- .... ....
 C#4|..|C#5 ...F ....|F-4 ...A ....|C#3 AF.F ....
....|..|R-- .... ....|--- .... ....|--- .... ....
 C#4|..|--- .... ....|C#5 ...A ....|--- .... ....
....|..|--- .... ....|--- .... ....|--- .... ....
 C#4|..|--- .... ....|C#5 ...F ....|C#2 7A.. ....
....|..|--- .... ....|R-- .... ....|--- .... ....
 C#4|..|C#5 ...A ....|B-4 ...F ....|--- .... ....
....|..|--- .... ....|R-- .... ....|--- .... ....

[Pattern36]
 C#4|..|C#5 .F3F ....|C#5 ...F ....|C#4 AF.F ....
....|..|R-- .... ....|R-- .... ....|--- .... ....
 C#4|..|--- .F3. ....|C#5 ...A ....|--- .... ....
....|..|--- .... ....|--- .... ....|--- .... ....
 C#4|..|--- .... ....|B-4 ...F ....|C#3 7A.. ....
....|..|--- .... ....|R-- .... ....|--- .... ....
 C#4|..|C#5 .F3F ....|C#5 ...F ....|--- .... ....
....|..|R-- .... ....|R-- .... ....|--- .... ....
 C#4|..|--- .... ....|--- .... ....|C#4 AF.F ....
....|..|--- .... ....|--- .... ....|--- .... ....
 C#4|..|--- .... ....|B-4 ...A ....|--- .... ....
....|..|--- .... ....|--- .... ....|--- .... ....
 C#4|..|C#5 ...F ....|C#5 ...F ....|C#3 7A.. ....
....|..|R-- .... ....|R-- .... ....|--- .... ....
 B-3|..|--- .... ....|B-4 ...F ....|--- .... ....
....|..|--- .... ....|R-- .... ....|--- .... ....
 B-3|..|--- .... ....|C#5 ...F ....|B-3 AF.F ....
....|..|--- .... ....|R-- .... ....|--- .... ....
 B-3|..|B-4 .F4F ....|D#4 ...F ....|--- .... ....
....|..|R-- .... ....|R-- .... ....|--- .... ....
 B-3|..|--- .... ....|B-4 ...F ....|B-2 7A.. ....
....|..|--- .... ....|R-- .... ....|--- .... ....
 B-3|..|--- .... ....|C#5 ...F ....|--- .... ....
....|..|--- .... ....|R-- .... ....|--- .... ....
 B-3|..|B-4 ...F ....|D#4 ...A ....|B-3 AF.F ....
....|..|R-- .... ....|--- .... ....|--- .... ....
 B-3|..|--- .... ....|B-4 ...A ....|--- .... ....
....|..|--- .... ....|--- .... ....|--- .... ....
 B-3|..|--- .... ....|D#5 ...F ....|B-2 7A.. ....
....|..|--- .... ....|R-- .... ....|--- .... ....
 B-3|..|B-4 ...A ....|C#5 ...F ....|--- .... ....
....|..|--- .... ....|R-- .... ....|--- .... ....
 D#4|..|D#5 .FAF ....|D#5 ...F ....|D#4 AF.F ....
....|..|R-- .... ....|R-- .... ....|--- .... ....
 D#4|..|--- .... ....|D#5 ...A ....|--- .... ....
....|..|--- .... ....|--- .... ....|--- .... ....
 D#4|..|--- .... ....|C#5 ...F ....|D#3 7A.. ....
....|..|--- .... ....|R-- .... ....|--- .... ....
 D#4|..|D#5 ...F ....|D#5 ...F ....|--- .... ....
....|..|R-- .... ....|R-- .... ....|--- .... ....
 D#4|..|--- .... ....|--- .... ....|D#4 AF.F ....
....|..|--- .... ....|--- .... ....|--- .... ....
 D#4|..|--- .... ....|C#5 ...A ....|--- .... ....
....|..|--- .... ....|--- .... ....|--- .... ....
 D#4|..|D#5 ...F ....|D#5 ...F ....|D#3 7A.. ....
....|..|R-- .... ....|R-- .... ....|--- .... ....
 C#4|..|--- .... ....|C#5 ...F ....|--- .... ....
....|..|--- .... ....|R-- .... ....|--- .... ....
 C#4|..|--- .... ....|D#5 ...F ....|C#4 AF.F ....
....|..|--- .... ....|R-- .... ....|--- .... ....
 C#4|..|C#5 .F4F ....|F-4 ...F ....|--- .... ....
....|..|R-- .... ....|R-- .... ....|--- .... ....
 C#4|..|--- .... ....|C#5 ...A ....|C#3 7A.. ....
....|..|--- .... ....|--- .... ....|--- .... ....
 C#4|..|--- .... ....|D#5 ...A ....|--- .... ....
....|..|--- .... ....|--- .... ....|--- .... ....
 C#4|..|C#5 ...F ....|F-4 ...A ....|C#4 AF.F ....
....|..|R-- .... ....|--- .... ....|--- .... ....
 C#4|..|--- .... ....|--- .... ....|--- .... ....
....|..|--- .... ....|--- .... ....|--- .... ....
 C#4|..|--- .... ....|--- .... ....|C#3 7A.. ....
....|..|--- .... ....|--- .... ....|--- .... ....
....|..|C#5 ...F ....|--- .... ....|--- .... ....
....|..|R-- .... ....|--- .... ....|--- .... ....

[Pattern37]
....|..|--- .... ....|R-- .... ....|R-- .... ....
....|..|--- .... ....|--- .... ....|--- .... ....
....|..|--- .... ....|--- .... ....|--- .... ....
....|..|--- .... ....|--- .... ....|--- .... ....
....|..|C#5 .F4F ....|--- .... ....|--- .... ....
....|..|R-- .... ....|--- .... ....|--- .... ....
....|..|--- .... ....|--- .... ....|--- .... ....
....|..|--- .... ....|--- .... ....|--- .... ....
....|..|--- .... ....|--- .... ....|--- .... ....
....|..|--- .... ....|--- .... ....|--- .... ....
....|..|C#5 ...F ....|--- .... ....|--- .... ....
....|..|R-- .... ....|--- .... ....|--- .... ....
....|..|--- .... ....|--- .... ....|--- .... ....
....|..|--- .... ....|--- .... ....|--- .... ....
....|..|--- .... ....|--- .... ....|--- .... ....
....|..|--- .... ....|--- .... ....|--- .... ....
....|..|C#5 ...F ....|--- .... ....|--- .... ....
....|..|R-- .... ....|--- .... ....|--- .... ....
....|..|--- .... ....|--- .... ....|--- .... ....
....|..|--- .... ....|--- .... ....|--- .... ....
....|..|--- .... ....|--- .... ....|--- .... ....
....|..|--- .... ....|--- .... ....|--- .... ....
....|..|C#5 ...F ....|--- .... ....|--- .... ....
....|..|R-- .... ....|--- .... ....|--- .... ....
....|..|--- .... ....|--- .... ....|--- .... ....
....|..|--- .... ....|--- .... ....|--- .... ....
....|..|--- .... ....|--- .... ....|--- .... ....
....|..|--- .... ....|--- .... ....|--- .... ....
....|..|C#5 ...F ....|--- .... ....|--- .... ....
....|..|R-- .... ....|--- .... ....|--- .... ....
....|..|--- .... ....|--- .... ....|--- .... ....
....|..|--- .... ....|--- .... ....|--- .... ....
....|..|--- .... ....|--- .... ....|--- .... ....
....|..|--- .... ....|--- .... ....|--- .... ....
....|..|C#5 ...F ....|--- .... ....|--- .... ....
....|..|R-- .... ....|--- .... ....|--- .... ....
....|..|--- .... ....|--- .... ....|--- .... ....
....|..|--- .... ....|--- .... ....|--- .... ....
....|..|--- .... ....|--- .... ....|--- .... ....
....|..|--- .... ....|--- .... ....|--- .... ....
....|..|C#5 ...F ....|--- .... ....|--- .... ....
....|..|R-- .... ....|--- .... ....|--- .... ....
....|..|--- .... ....|--- .... ....|--- .... ....
....|..|--- .... ....|--- .... ....|--- .... ....
....|..|--- .... ....|--- .... ....|--- .... ....
....|..|--- .... ....|--- .... ....|--- .... ....
....|..|C#5 ...F ....|--- .... ....|--- .... ....
....|..|R-- .... ....|--- .... ....|--- .... ....
....|..|--- .... ....|--- .... ....|--- .... ....
....|..|--- .... ....|--- .... ....|--- .... ....
....|..|--- .... ....|--- .... ....|--- .... ....
....|..|--- .... ....|--- .... ....|--- .... ....
....|..|C#5 ...A ....|--- .... ....|--- .... ....

