[Module]
VortexTrackerII=0
Version=3.5
Title=2d-5me-1me,3m-7p+,3me-7p
Author=oisee ^ 4d 29.05.2010
NoteTable=4
ChipFreq=1750000
Speed=4
PlayOrder=L0,1,1,1,4,5,6,5,8,9,10,1,12,13,14,15,16,13,18,19,20,21,22,23,24,25,26,27,28,29,30,27,32,33,34,35,36,37,38,35,40,41,42,41,44,45,46,47,48,49,50,51,52,53,54,55,56,57,58,59,60,57,62,63,64,65,66,67,68,69,70,71


[Ornament1]
L0,0,7,7


[Sample1]
TnE +000_ +00_ F_
TnE +000_ +00_ F_
TnE +000_ +00_ F_
TnE +000_ +00_ D_
TnE +000_ +00_ B_
TnE +000_ +00_ B_ L

[Sample2]
TnE +000_ +00_ F_ L

[Sample3]
TnE +001_ +00_ F_
TnE +002_ +00_ F_
TnE +001_ +00_ E_
TnE +002_ +00_ E_
TnE +000_ +00_ E_ L
TnE -001_ +00_ E_
TnE -002_ +00_ E_
TnE -001_ +00_ E_
TnE +000_ +00_ E_
TnE +001_ +00_ E_
TnE +002_ +00_ E_
TnE +001_ +00_ E_

[Sample4]
TnE +002_ +00_ D_
TnE +002_ +00_ D_
TnE +002_ +00_ C_
TnE +002_ +00_ B_
TnE +002_ +00_ A_ L
TnE +002_ +00_ A_
TnE +002_ +00_ A_
TnE +002_ +00_ A_
TnE +002_ +00_ A_
TnE +002_ +00_ A_
TnE +002_ +00_ A_
TnE +002_ +00_ A_

[Sample5]
TnE +000_ +00_ F_
TnE +000_ +00_ F_
tne +000_ +00_ 0_ L

[Sample6]
TnE -001_ +00_ F_ L

[Sample7]
TnE +006_ +00_ F_ L

[Sample8]
tNe +000_ +00_ F_
tNe +000_ +00_ B_
tNe +000_ +00_ 7_
tNe +000_ +00_ 6- L

[Sample9]
TnE +080_ +00_ F_
TnE +100_ +00_ E_
TnE +180_ +00_ E_
TnE +200_ +00_ E_
TnE +240_ +00_ D_
TnE +280_ +00_ D_
TnE +2C0_ +00_ D_
TnE +300_ +00_ C_
TnE +300_ +00_ C_
TnE +340_ +00_ C_
TnE +340_ +00_ C_
TnE +380_ +00_ B_
TnE +380_ +00_ B_
TnE +400_ +00_ B_
TnE +400_ +00_ B_
TnE +480_ +00_ A_
TnE +500_ +00_ 9_
TnE +580_ +00_ 7_
TnE +600_ +00_ 4_
TnE +680_ +00_ 1_
TnE +000_ +00_ 0_ L

[Sample10]
Tne +1C0_ +00_ F_
Tne +280_ +00_ E_
Tne +380_ +00_ C_
Tne +440_ +00_ A_
Tne +480_ +00_ 8_
TnE +000_ +00_ 0_ L

[Sample11]
TNe +200_ -0A_ F_
tNe +000_ +0F_ A_
TNe +200_ -07_ E_
tNe +000_ +0E_ B- L

[Sample12]
TNE +0A0_ +05_ F_
TNE +140_ +02_ D_
TNE +140_ +02_ B_
TNE +100_ +00_ A_ L
TNE +140_ +00_ A_
TNE +200_ +00_ A-

[Sample13]
Tne +200_ +00_ F_
Tne +2C0_ +00_ F_
Tne +380_ +00_ E_
Tne +500_ +00_ C_
Tne +520_ +00_ 9_
tne +000_ +00_ 0_ L

[Sample14]
TNE -100_ +00_ F_
TNE -100_ +00_ D_
TNE -100_ +00_ A_
TNE -100_ +00_ 5_
tne +000_ +00_ 0_ L

[Sample15]
TNE -100_ +00_ 5_
TNE -100_ +00_ 8_
TNE -100_ +00_ B_
TNE -100_ +00_ F_
TNe -100_ +00_ 9- L

[Sample16]
TnE +000_ +00_ C_
TnE +000_ +00_ E_
TnE +000_ +00_ F_
TnE +000_ +00_ F_
TnE +000_ +00_ E_
TnE +000_ +00_ D_
TnE +000_ +00_ C_
TnE +000_ +00_ C_ L
TnE +001_ +00_ C_
TnE +002_ +00_ C_
TnE +003_ +00_ C_
TnE +001_ +00_ C_
TnE +000_ +00_ C_
TnE -001_ +00_ C_
TnE -002_ +00_ C_
TnE -003_ +00_ C_
TnE -001_ +00_ C_
TnE +000_ +00_ C_
TnE +000_ +00_ C_

[Sample17]
Tne +1C0_ +00_ F_
Tne +280_ +00_ D_
Tne +380_ +00_ 7_
TNE +000_ +00_ 0_ L

[Sample18]
TnE -00C_ +00_ 0_ L

[Sample19]
TNe +000_ +00_ F_
TNe +000_ +00_ C_
TNe +000_ +00_ 6_
TNe +000_ +01_ A- L

[Sample20]
TNE +140_ +00_ F_
tNE +000_ +00_ B- L

[Sample21]
tNE +000_ +00_ D_
tNE +000_ +00_ 8_
tNE +000_ +00_ 1_
TNE +000_ +00_ 0_ L

[Sample22]
TnE +000_ +00_ D_ L
TnE +000_ +00_ D_
tne +000_ +00_ 9_
tne +000_ +00_ 9_
TnE +000_ +00_ D_
TnE +000_ +00_ D_
tne +000_ +00_ 9_
tne +000_ +00_ 9_
TnE +000_ +00_ D_
TnE +000_ +00_ D_
TnE +000_ +00_ D_
TnE +000_ +00_ D_
TnE +000_ +00_ D_
TnE +000_ +00_ D_
tne +000_ +00_ 9_
tne +000_ +00_ 9_

[Sample23]
TnE +000_ +00_ F_ L
TnE +010_ +01_ F_
TnE +010_ +01_ F_
TnE +010_ +01_ F_
TnE +010_ +01_ F_
TnE +000_ +00_ F_
TnE +000_ +00_ F_
TnE -010_ -01_ F_
TnE -010_ -01_ F_
TnE -010_ -01_ F_
TnE -010_ -01_ F_
TnE +000_ +00_ F_

[Sample24]
TNe +000_ -01_ C_
TNe +000_ -01_ D_
TNe +000_ -01_ E_
TNe +000_ -01_ F_
TNe +000_ -01_ F_
TNe +000_ -01_ F_
TNe +000_ -01_ F_
TNe +000_ -01_ F_
TNe +000_ -01_ E_
TNe +000_ -01_ E_
TNe +000_ -01_ E_
TNe +000_ -01_ F_
TNe +000_ -01_ F_ L

[Sample25]
TNE +000_ +00_ F_
TNE +000_ +00_ F_ L
TNE +000_ +00_ F_
TNE +000_ +00_ F_
TNE +000_ +00_ F-

[Sample26]
tne +000_ +00_ 0_ L

[Sample27]
TnE +100_ +05_ F_
TnE +200_ +02_ A_
TnE +300_ +02_ 7_
TNE +400_ +00_ 3- L

[Sample28]
tne +000_ +00_ 0_ L

[Sample29]
tnE +000_ +00_ 0_ L

[Sample30]
TNE +000_ +00_ C+ L

[Sample31]
TNe +1C0_ +00_ F_
Tne +280_ +00_ E_
Tne +380_ +00_ C_
Tne +440_ +00_ A_
Tne +480_ +00_ 8_
TnE +000_ +00_ 0_ L

[Pattern0]
....|..|--- .... ....|--- .... ....|--- .... ....
....|..|--- .... ....|--- .... ....|--- .... ....
....|..|--- .... ....|--- .... ....|--- .... ....
....|..|--- .... ....|--- .... ....|--- .... ....
....|..|--- .... ....|--- .... ....|--- .... ....
....|..|--- .... ....|--- .... ....|--- .... ....
....|..|--- .... ....|--- .... ....|--- .... ....
....|..|--- .... ....|--- .... ....|--- .... ....
....|..|--- .... ....|--- .... ....|--- .... ....
....|..|--- .... ....|--- .... ....|--- .... ....
....|..|--- .... ....|--- .... ....|--- .... ....
....|..|--- .... ....|--- .... ....|--- .... ....
....|..|--- .... ....|--- .... ....|--- .... ....
....|..|--- .... ....|--- .... ....|--- .... ....
....|..|--- .... ....|--- .... ....|--- .... ....
....|..|--- .... ....|--- .... ....|--- .... ....
....|..|--- .... ....|--- .... ....|--- .... ....
....|..|--- .... ....|--- .... ....|--- .... ....
....|..|--- .... ....|--- .... ....|--- .... ....
....|..|--- .... ....|--- .... ....|--- .... ....
....|..|--- .... ....|--- .... ....|--- .... ....
....|..|--- .... ....|--- .... ....|--- .... ....
....|..|--- .... ....|--- .... ....|--- .... ....
....|..|--- .... ....|--- .... ....|--- .... ....
....|..|--- .... ....|--- .... ....|--- .... ....
....|..|--- .... ....|--- .... ....|--- .... ....
....|..|--- .... ....|--- .... ....|--- .... ....
....|..|--- .... ....|--- .... ....|--- .... ....
....|..|--- .... ....|--- .... ....|--- .... ....
....|..|--- .... ....|--- .... ....|--- .... ....
....|..|--- .... ....|--- .... ....|--- .... ....
....|..|--- .... ....|--- .... ....|--- .... ....
 A-3|..|A-2 2C.F ....|--- .... ....|--- .... ....
....|..|--- .... ....|--- .... ....|--- .... ....
....|..|--- .... ....|--- .... ....|--- .... ....
....|..|A-2 2F.A ....|--- .... ....|--- .... ....
 A-3|..|A-3 2C.F ....|--- .... ....|--- .... ....
....|..|--- .... ....|--- .... ....|--- .... ....
....|..|A-2 2F.7 ....|--- .... ....|--- .... ....
 A-3|..|A-2 2C.F ....|--- .... ....|--- .... ....
 E-4|..|E-4 2C.F ....|--- .... ....|--- .... ....
....|..|--- .... ....|--- .... ....|--- .... ....
....|..|A-3 2F.7 ....|--- .... ....|--- .... ....
....|..|E-4 2F.A ....|--- .... ....|--- .... ....
 E-4|..|E-4 2C.F ....|--- .... ....|--- .... ....
....|..|A-2 2F.7 ....|--- .... ....|--- .... ....
....|..|E-4 2F.7 ....|--- .... ....|--- .... ....
 A-3|..|A-2 2C.F ....|--- .... ....|--- .... ....
 D-4|..|D-4 2C.F ....|--- .... ....|--- .... ....
....|..|--- .... ....|--- .... ....|--- .... ....
....|..|E-4 2F.7 ....|--- .... ....|--- .... ....
....|..|D-4 2F.A ....|--- .... ....|--- .... ....
 D-4|..|D-4 2C.F ....|--- .... ....|--- .... ....
....|..|A-2 2F.7 ....|--- .... ....|--- .... ....
....|..|D-4 2F.7 ....|--- .... ....|--- .... ....
 A-3|..|A-2 2C.F ....|--- .... ....|--- .... ....
 E-4|..|E-4 2C.F ....|--- .... ....|--- .... ....
....|..|--- .... ....|--- .... ....|--- .... ....
....|..|D-4 2F.7 ....|--- .... ....|--- .... ....
....|..|E-4 2F.A ....|--- .... ....|--- .... ....
 E-4|..|E-4 2C.F ....|--- .... ....|--- .... ....
....|..|A-2 2F.7 ....|--- .... ....|--- .... ....
....|..|E-4 2F.7 ....|--- .... ....|--- .... ....
....|..|E-4 2F.A ....|--- .... ....|--- .... ....

[Pattern1]
 C-3|..|C-4 2C.F ....|--- .... ....|--- .... ....
....|..|--- .... ....|--- .... ....|--- .... ....
....|..|E-4 2F.7 ....|--- .... ....|--- .... ....
....|..|C-4 2F.A ....|--- .... ....|--- .... ....
 C-3|..|C-4 2C.F ....|--- .... ....|--- .... ....
....|..|R-- .... ....|--- .... ....|--- .... ....
....|..|C-4 2F.7 ....|--- .... ....|--- .... ....
....|..|C-4 2F.A ....|--- .... ....|--- .... ....
 E-4|..|E-4 2C.F ....|--- .... ....|--- .... ....
....|..|--- .... ....|--- .... ....|--- .... ....
....|..|C-4 2F.7 ....|--- .... ....|--- .... ....
....|..|E-4 2F.A ....|--- .... ....|--- .... ....
 E-4|..|E-4 2C.F ....|--- .... ....|--- .... ....
....|..|R-- .... ....|--- .... ....|--- .... ....
....|..|E-4 2F.7 ....|--- .... ....|--- .... ....
....|..|E-4 2F.A ....|--- .... ....|--- .... ....
 B-4|..|B-3 2C.F ....|--- .... ....|--- .... ....
....|..|--- .... ....|--- .... ....|--- .... ....
....|..|E-4 2F.7 ....|--- .... ....|--- .... ....
....|..|B-3 2F.A ....|--- .... ....|--- .... ....
 B-4|..|B-3 2C.F ....|--- .... ....|--- .... ....
....|..|R-- .... ....|--- .... ....|--- .... ....
....|..|B-3 2F.7 ....|--- .... ....|--- .... ....
....|..|B-3 2F.A ....|--- .... ....|--- .... ....
 E-4|..|E-3 2C.F ....|--- .... ....|--- .... ....
....|..|--- .... ....|--- .... ....|--- .... ....
....|..|B-3 2F.7 ....|--- .... ....|--- .... ....
....|..|E-3 2F.A ....|--- .... ....|--- .... ....
 A-3|..|A-3 2C.F ....|--- .... ....|--- .... ....
....|..|R-- .... ....|--- .... ....|--- .... ....
....|..|E-3 2F.7 ....|--- .... ....|--- .... ....
....|..|A-3 2F.A ....|--- .... ....|--- .... ....
 A-3|..|A-2 2C.F ....|--- .... ....|--- .... ....
....|..|R-- .... ....|--- .... ....|--- .... ....
....|..|A-3 2F.7 ....|--- .... ....|--- .... ....
....|..|A-2 2F.A ....|--- .... ....|--- .... ....
 A-3|..|A-3 2C.F ....|--- .... ....|--- .... ....
....|..|R-- .... ....|--- .... ....|--- .... ....
....|..|A-2 2F.7 ....|--- .... ....|--- .... ....
 A-3|..|A-2 2C.F ....|--- .... ....|--- .... ....
 E-4|..|E-4 2C.F ....|--- .... ....|--- .... ....
....|..|--- .... ....|--- .... ....|--- .... ....
....|..|A-3 2F.7 ....|--- .... ....|--- .... ....
....|..|E-4 2F.A ....|--- .... ....|--- .... ....
 E-4|..|E-4 2C.F ....|--- .... ....|--- .... ....
....|..|A-2 2F.7 ....|--- .... ....|--- .... ....
....|..|E-4 2F.7 ....|--- .... ....|--- .... ....
 A-3|..|A-2 2C.F ....|--- .... ....|--- .... ....
 D-4|..|D-4 2C.F ....|--- .... ....|--- .... ....
....|..|--- .... ....|--- .... ....|--- .... ....
....|..|E-4 2F.7 ....|--- .... ....|--- .... ....
....|..|D-4 2F.A ....|--- .... ....|--- .... ....
 D-4|..|D-4 2C.F ....|--- .... ....|--- .... ....
....|..|A-2 2F.7 ....|--- .... ....|--- .... ....
....|..|D-4 2F.7 ....|--- .... ....|--- .... ....
 A-3|..|A-2 2C.F ....|--- .... ....|--- .... ....
 E-4|..|E-4 2C.F ....|--- .... ....|--- .... ....
....|..|--- .... ....|--- .... ....|--- .... ....
....|..|D-4 2F.7 ....|--- .... ....|--- .... ....
....|..|E-4 2F.A ....|--- .... ....|--- .... ....
 E-4|..|E-4 2C.F ....|--- .... ....|--- .... ....
....|..|A-2 2F.7 ....|--- .... ....|--- .... ....
....|..|E-4 2F.7 ....|--- .... ....|--- .... ....
....|..|E-4 2F.A ....|--- .... ....|--- .... ....

[Pattern4]
 C-3|..|C-4 2C.F ....|--- .... ....|--- .... ....
....|..|--- .... ....|--- .... ....|--- .... ....
....|..|E-4 2F.7 ....|--- .... ....|--- .... ....
....|..|C-4 2F.A ....|--- .... ....|--- .... ....
 C-3|..|C-4 2C.F ....|--- .... ....|--- .... ....
....|..|R-- .... ....|--- .... ....|--- .... ....
....|..|C-4 2F.7 ....|--- .... ....|--- .... ....
....|..|C-4 2F.A ....|--- .... ....|--- .... ....
 E-4|..|E-4 2C.F ....|--- .... ....|--- .... ....
....|..|--- .... ....|--- .... ....|--- .... ....
....|..|C-4 2F.7 ....|--- .... ....|--- .... ....
....|..|E-4 2F.A ....|--- .... ....|--- .... ....
 E-4|..|E-4 2C.F ....|--- .... ....|--- .... ....
....|..|R-- .... ....|--- .... ....|--- .... ....
....|..|E-4 2F.7 ....|--- .... ....|--- .... ....
....|..|E-4 2F.A ....|--- .... ....|--- .... ....
 B-4|..|B-3 2C.F ....|--- .... ....|--- .... ....
....|..|--- .... ....|--- .... ....|--- .... ....
....|..|E-4 2F.7 ....|--- .... ....|--- .... ....
....|..|B-3 2F.A ....|--- .... ....|--- .... ....
 B-4|..|B-3 2C.F ....|--- .... ....|--- .... ....
....|..|R-- .... ....|--- .... ....|--- .... ....
....|..|B-3 2F.7 ....|--- .... ....|--- .... ....
....|..|B-3 2F.A ....|--- .... ....|--- .... ....
 E-4|..|E-3 2C.F ....|--- .... ....|--- .... ....
....|..|--- .... ....|--- .... ....|--- .... ....
....|..|B-3 2F.7 ....|--- .... ....|--- .... ....
....|..|E-3 2F.A ....|--- .... ....|--- .... ....
 A-3|..|A-3 2C.F ....|--- .... ....|--- .... ....
....|..|R-- .... ....|--- .... ....|--- .... ....
....|..|E-3 2F.7 ....|--- .... ....|--- .... ....
....|..|A-3 2F.A ....|--- .... ....|--- .... ....
 A-3|..|A-3 2C.F ....|A-3 2F.F ....|A-3 2C.F ....
....|..|R-- .... ....|--- .... ....|--- .... ....
....|..|A-3 2F.7 ....|--- .... ....|--- .... ....
....|..|A-2 2F.A ....|A-3 2F.A ....|A-3 2F.A ....
 A-3|..|A-3 2C.F ....|--- .... ....|--- .... ....
....|..|R-- .... ....|--- .... ....|--- .... ....
....|..|A-2 2F.7 ....|A-3 2F.7 ....|A-3 2F.7 ....
 A-3|..|A-2 2C.F ....|--- .... ....|--- .... ....
 E-4|..|E-4 2C.F ....|--- .... ....|--- .... ....
....|..|--- .... ....|--- .... ....|--- .... ....
....|..|A-3 2F.7 ....|--- .... ....|--- .... ....
....|..|E-4 2F.A ....|--- .... ....|--- .... ....
 E-4|..|E-4 2C.F ....|--- .... ....|--- .... ....
....|..|A-2 2F.7 ....|R-- .... ....|R-- .... ....
....|..|E-4 2F.7 ....|--- .... ....|--- .... ....
 A-3|..|A-2 2C.F ....|--- .... ....|--- .... ....
 D-4|..|D-4 2C.F ....|B-3 2F.F ....|B-3 2F.F ....
....|..|--- .... ....|--- .... ....|--- .... ....
....|..|E-4 2F.7 ....|--- .... ....|--- .... ....
....|..|D-4 2F.A ....|B-3 2F.A ....|B-3 2F.A ....
 D-4|..|D-4 2C.F ....|--- .... ....|--- .... ....
....|..|A-2 2F.7 ....|--- .... ....|--- .... ....
....|..|D-4 2F.7 ....|B-3 2F.7 ....|B-3 2F.7 ....
 A-3|..|A-2 2C.F ....|--- .... ....|--- .... ....
 E-4|..|E-4 2C.F ....|--- .... ....|--- .... ....
....|..|--- .... ....|--- .... ....|--- .... ....
....|..|D-4 2F.7 ....|--- .... ....|--- .... ....
....|..|E-4 2F.A ....|--- .... ....|--- .... ....
 E-4|..|E-4 2C.F ....|--- .... ....|--- .... ....
....|..|A-2 2F.7 ....|R-- .... ....|R-- .... ....
....|..|E-4 2F.7 ....|--- .... ....|--- .... ....
....|..|E-4 2F.A ....|--- .... ....|--- .... ....

[Pattern5]
 C-3|..|C-4 2C.F ....|C-4 2F.F ....|C-4 2C.F ....
....|..|--- .... ....|--- .... ....|--- .... ....
....|..|E-4 2F.7 ....|--- .... ....|--- .... ....
....|..|C-4 2F.A ....|C-4 2F.A ....|C-4 2F.A ....
 C-3|..|C-4 2C.F ....|--- .... ....|--- .... ....
....|..|R-- .... ....|--- .... ....|--- .... ....
....|..|C-4 2F.7 ....|C-4 2F.7 ....|C-4 2F.7 ....
....|..|C-4 2F.A ....|--- .... ....|--- .... ....
 E-4|..|E-4 2C.F ....|--- .... ....|--- .... ....
....|..|--- .... ....|--- .... ....|--- .... ....
....|..|C-4 2F.7 ....|--- .... ....|--- .... ....
....|..|E-4 2F.A ....|--- .... ....|--- .... ....
 E-4|..|E-4 2C.F ....|--- .... ....|--- .... ....
....|..|R-- .... ....|R-- .... ....|R-- .... ....
....|..|E-4 2F.7 ....|--- .... ....|--- .... ....
....|..|E-4 2F.A ....|--- .... ....|--- .... ....
 B-4|..|B-3 2C.F ....|B-3 2F.F ....|B-3 2C.F ....
....|..|--- .... ....|--- .... ....|--- .... ....
....|..|E-4 2F.7 ....|--- .... ....|--- .... ....
....|..|B-3 2F.A ....|B-3 2F.A ....|B-3 2F.A ....
 B-4|..|B-3 2C.F ....|--- .... ....|--- .... ....
....|..|R-- .... ....|--- .... ....|--- .... ....
....|..|B-3 2F.7 ....|B-3 2F.7 ....|B-3 2F.7 ....
....|..|B-3 2F.A ....|--- .... ....|--- .... ....
 E-4|..|E-3 2C.F ....|--- .... ....|--- .... ....
....|..|--- .... ....|--- .... ....|--- .... ....
....|..|B-3 2F.7 ....|--- .... ....|--- .... ....
....|..|E-3 2F.A ....|--- .... ....|--- .... ....
 A-3|..|A-3 2C.F ....|--- .... ....|--- .... ....
....|..|R-- .... ....|R-- .... ....|R-- .... ....
....|..|E-3 2F.7 ....|--- .... ....|--- .... ....
....|..|A-3 2F.A ....|--- .... ....|--- .... ....
 A-3|..|A-2 2C.F ....|R-- .... ....|R-- .... ....
....|..|R-- .... ....|--- .... ....|--- .... ....
....|..|A-3 2F.7 ....|--- .... ....|--- .... ....
....|..|A-2 2F.A ....|R-- .... ....|R-- .... ....
 A-3|..|A-3 2C.F ....|--- .... ....|--- .... ....
....|..|R-- .... ....|--- .... ....|--- .... ....
....|..|A-2 2F.7 ....|--- .... ....|--- .... ....
 A-3|..|A-2 2C.F ....|--- .... ....|--- .... ....
 E-4|..|E-4 2C.F ....|A-3 2F.F ....|A-3 2F.F ....
....|..|--- .... ....|--- .... ....|--- .... ....
....|..|A-3 2F.7 ....|--- .... ....|--- .... ....
....|..|E-4 2F.A ....|A-3 2F.A ....|A-3 2F.A ....
 E-4|..|E-4 2C.F ....|--- .... ....|--- .... ....
....|..|A-2 2F.7 ....|--- .... ....|--- .... ....
....|..|E-4 2F.7 ....|A-3 2F.7 ....|A-3 2F.7 ....
 A-3|..|A-2 2C.F ....|--- .... ....|--- .... ....
 D-4|..|D-4 2C.F ....|B-3 2F.F ....|B-3 2F.F ....
....|..|--- .... ....|R-- .... ....|R-- .... ....
....|..|E-4 2F.7 ....|--- .... ....|--- .... ....
....|..|D-4 2F.A ....|B-3 2F.A ....|B-3 2F.A ....
 D-4|..|D-4 2C.F ....|A-3 2F.F ....|A-3 2F.F ....
....|..|A-2 2F.7 ....|--- .... ....|--- .... ....
....|..|D-4 2F.7 ....|B-3 2F.7 ....|B-3 2F.7 ....
 A-3|..|A-2 2C.F ....|A-3 2F.A ....|A-3 2F.A ....
 E-4|..|E-4 2C.F ....|--- .... ....|--- .... ....
....|..|--- .... ....|R-- .... ....|R-- .... ....
....|..|D-4 2F.7 ....|A-3 2F.7 ....|A-3 2F.7 ....
....|..|E-4 2F.A ....|--- .... ....|--- .... ....
 E-4|..|E-4 2C.F ....|B-3 2F.F ....|B-3 2F.F ....
....|..|A-2 2F.7 ....|R-- .... ....|R-- .... ....
....|..|E-4 2F.7 ....|--- .... ....|--- .... ....
....|..|E-4 2F.A ....|B-3 2F.A ....|B-3 2F.A ....

[Pattern6]
 C-3|..|C-4 2C.F ....|R-- .... ....|R-- .... ....
....|..|--- .... ....|--- .... ....|--- .... ....
....|..|E-4 2F.7 ....|B-3 2F.7 ....|B-3 2F.7 ....
....|..|C-4 2F.A ....|R-- .... ....|R-- .... ....
 C-3|..|C-4 2C.F ....|A-3 2F.F ....|A-3 2F.F ....
....|..|R-- .... ....|--- .... ....|--- .... ....
....|..|C-4 2F.7 ....|R-- .... ....|R-- .... ....
....|..|C-4 2F.A ....|A-3 2F.A ....|A-3 2F.A ....
 E-4|..|E-4 2C.F ....|--- .... ....|--- .... ....
....|..|--- .... ....|R-- .... ....|R-- .... ....
....|..|C-4 2F.7 ....|A-3 2F.7 ....|A-3 2F.7 ....
....|..|E-4 2F.A ....|--- .... ....|--- .... ....
 E-4|..|E-4 2C.F ....|E-4 2F.F ....|E-4 2C.F ....
....|..|R-- .... ....|R-- .... ....|R-- .... ....
....|..|E-4 2F.7 ....|--- .... ....|--- .... ....
....|..|E-4 2F.A ....|E-4 2F.A ....|E-4 2F.A ....
 B-4|..|B-3 2C.F ....|R-- .... ....|R-- .... ....
....|..|--- .... ....|--- .... ....|--- .... ....
....|..|E-4 2F.7 ....|E-4 2F.7 ....|E-4 2F.7 ....
....|..|B-3 2F.A ....|--- .... ....|--- .... ....
 B-4|..|B-3 2C.F ....|--- .... ....|--- .... ....
....|..|R-- .... ....|--- .... ....|--- .... ....
....|..|B-3 2F.7 ....|--- .... ....|--- .... ....
....|..|B-3 2F.A ....|--- .... ....|--- .... ....
 E-4|..|E-3 2C.F ....|--- .... ....|--- .... ....
....|..|--- .... ....|R-- .... ....|R-- .... ....
....|..|B-3 2F.7 ....|--- .... ....|--- .... ....
....|..|E-3 2F.A ....|--- .... ....|--- .... ....
 A-3|..|A-3 2C.F ....|R-- .... ....|R-- .... ....
....|..|R-- .... ....|--- .... ....|--- .... ....
....|..|E-3 2F.7 ....|--- .... ....|--- .... ....
....|..|A-3 2F.A ....|R-- .... ....|R-- .... ....
 A-3|..|A-3 2C.F ....|A-3 2F.F ....|A-3 2C.F ....
....|..|R-- .... ....|--- .... ....|--- .... ....
....|..|A-3 2F.7 ....|--- .... ....|--- .... ....
....|..|A-2 2F.A ....|A-3 2F.A ....|A-3 2F.A ....
 A-3|..|A-3 2C.F ....|--- .... ....|--- .... ....
....|..|R-- .... ....|--- .... ....|--- .... ....
....|..|A-2 2F.7 ....|A-3 2F.7 ....|A-3 2F.7 ....
 A-3|..|A-2 2C.F ....|--- .... ....|--- .... ....
 E-4|..|E-4 2C.F ....|--- .... ....|--- .... ....
....|..|--- .... ....|--- .... ....|--- .... ....
....|..|A-3 2F.7 ....|--- .... ....|--- .... ....
....|..|E-4 2F.A ....|--- .... ....|--- .... ....
 E-4|..|E-4 2C.F ....|--- .... ....|--- .... ....
....|..|A-2 2F.7 ....|R-- .... ....|R-- .... ....
....|..|E-4 2F.7 ....|--- .... ....|--- .... ....
 A-3|..|A-2 2C.F ....|--- .... ....|--- .... ....
 D-4|..|D-4 2C.F ....|B-3 2F.F ....|B-3 2F.F ....
....|..|--- .... ....|--- .... ....|--- .... ....
....|..|E-4 2F.7 ....|--- .... ....|--- .... ....
....|..|D-4 2F.A ....|B-3 2F.A ....|B-3 2F.A ....
 D-4|..|D-4 2C.F ....|--- .... ....|--- .... ....
....|..|A-2 2F.7 ....|--- .... ....|--- .... ....
....|..|D-4 2F.7 ....|B-3 2F.7 ....|B-3 2F.7 ....
 A-3|..|A-2 2C.F ....|--- .... ....|--- .... ....
 E-4|..|E-4 2C.F ....|--- .... ....|--- .... ....
....|..|--- .... ....|--- .... ....|--- .... ....
....|..|D-4 2F.7 ....|--- .... ....|--- .... ....
....|..|E-4 2F.A ....|--- .... ....|--- .... ....
 E-4|..|E-4 2C.F ....|--- .... ....|--- .... ....
....|..|A-2 2F.7 ....|R-- .... ....|R-- .... ....
....|..|E-4 2F.7 ....|--- .... ....|--- .... ....
....|..|E-4 2F.A ....|--- .... ....|--- .... ....

[Pattern8]
 C-3|..|C-4 2C.F ....|R-- .... ....|R-- .... ....
....|..|--- .... ....|--- .... ....|--- .... ....
....|..|E-4 2F.7 ....|B-3 2F.7 ....|B-3 2F.7 ....
....|..|C-4 2F.A ....|R-- .... ....|R-- .... ....
 C-3|..|C-4 2C.F ....|A-3 2F.F ....|A-3 2F.F ....
....|..|R-- .... ....|--- .... ....|--- .... ....
....|..|C-4 2F.7 ....|R-- .... ....|R-- .... ....
....|..|C-4 2F.A ....|A-3 2F.A ....|A-3 2F.A ....
 E-4|..|E-4 2C.F ....|--- .... ....|--- .... ....
....|..|--- .... ....|R-- .... ....|R-- .... ....
....|..|C-4 2F.7 ....|A-3 2F.7 ....|A-3 2F.7 ....
....|..|E-4 2F.A ....|--- .... ....|--- .... ....
 E-4|..|E-4 2C.F ....|E-4 2F.F ....|E-4 2C.F ....
....|..|R-- .... ....|R-- .... ....|R-- .... ....
....|..|E-4 2F.7 ....|--- .... ....|--- .... ....
....|..|E-4 2F.A ....|E-4 2F.A ....|E-4 2F.A ....
 B-4|..|B-3 2C.F ....|R-- .... ....|R-- .... ....
....|..|--- .... ....|--- .... ....|--- .... ....
....|..|E-4 2F.7 ....|E-4 2F.7 ....|E-4 2F.7 ....
....|..|B-3 2F.A ....|--- .... ....|--- .... ....
 B-4|..|B-3 2C.F ....|--- .... ....|--- .... ....
....|..|R-- .... ....|--- .... ....|--- .... ....
....|..|B-3 2F.7 ....|--- .... ....|--- .... ....
....|..|B-3 2F.A ....|--- .... ....|--- .... ....
 E-4|..|E-3 2C.F ....|--- .... ....|--- .... ....
....|..|--- .... ....|R-- .... ....|R-- .... ....
....|..|B-3 2F.7 ....|--- .... ....|--- .... ....
....|..|E-3 2F.A ....|--- .... ....|--- .... ....
 A-3|..|A-3 2C.F ....|R-- .... ....|R-- .... ....
....|..|R-- .... ....|--- .... ....|--- .... ....
....|..|E-3 2F.7 ....|--- .... ....|--- .... ....
....|..|A-3 2F.A ....|R-- .... ....|R-- .... ....
 G-4|..|E-2 2F.F ....|G-3 2F.F ....|G-3 2C.F ....
....|..|R-- .... ....|--- .... ....|--- .... ....
....|..|A-3 2F.7 ....|--- .... ....|--- .... ....
....|..|E-2 2F.A ....|G-3 2F.A ....|G-3 2F.A ....
 E-4|..|E-3 2C.F ....|--- .... ....|--- .... ....
....|..|R-- .... ....|--- .... ....|--- .... ....
....|..|E-2 2F.7 ....|G-3 2F.7 ....|G-3 2F.7 ....
 E-4|..|E-2 2A.F ....|--- .... ....|--- .... ....
 E-4|..|E-4 2C.F ....|E-3 2F.F ....|E-4 2C.F ....
....|..|--- .... ....|R-- .... ....|R-- .... ....
....|..|E-3 2F.7 ....|--- .... ....|--- .... ....
....|..|E-4 2F.A ....|E-3 2F.A ....|E-3 2F.A ....
 E-4|..|E-4 2C.F ....|E-3 2F.F ....|E-4 2C.F ....
....|..|E-2 2F.7 ....|--- .... ....|--- .... ....
....|..|E-4 2F.7 ....|E-3 2F.7 ....|E-3 2F.7 ....
 E-4|..|E-2 2A.F ....|E-3 2F.A ....|E-3 2F.A ....
 D-4|..|D-4 2C.F ....|--- .... ....|--- .... ....
....|..|--- .... ....|R-- .... ....|R-- .... ....
....|..|E-4 2F.7 ....|E-3 2F.7 ....|E-3 2F.7 ....
....|..|D-4 2F.A ....|--- .... ....|--- .... ....
 D-4|..|D-4 2C.F ....|E-3 2F.F ....|E-3 2F.F ....
....|..|E-2 2F.7 ....|R-- .... ....|R-- .... ....
....|..|D-4 2F.7 ....|--- .... ....|--- .... ....
 E-4|..|E-2 2A.F ....|E-3 2F.A ....|E-3 2F.A ....
 E-4|..|E-4 2C.F ....|R-- .... ....|R-- .... ....
....|..|--- .... ....|--- .... ....|--- .... ....
....|..|D-4 2F.7 ....|E-3 2F.7 ....|E-3 2F.7 ....
....|..|E-4 2F.A ....|--- .... ....|--- .... ....
 E-4|..|E-4 2C.F ....|--- .... ....|--- .... ....
....|..|E-2 2F.7 ....|--- .... ....|--- .... ....
....|..|E-4 2F.7 ....|--- .... ....|--- .... ....
....|..|E-4 2F.A ....|R-- .... ....|R-- .... ....

[Pattern9]
 C-3|..|C-4 2C.F ....|E-3 2F.F ....|E-3 2F.F ....
....|..|--- .... ....|--- .... ....|--- .... ....
....|..|E-4 2F.7 ....|R-- .... ....|R-- .... ....
....|..|C-4 2F.A ....|E-3 2F.A ....|E-3 2F.A ....
 C-3|..|C-4 2C.F ....|E-3 2F.F ....|E-3 2F.F ....
....|..|R-- .... ....|R-- .... ....|R-- .... ....
....|..|C-4 2F.7 ....|E-3 2F.7 ....|E-3 2F.7 ....
....|..|C-4 2F.A ....|E-3 2F.A ....|E-3 2F.A ....
 E-4|..|E-4 2C.F ....|--- .... ....|--- .... ....
....|..|--- .... ....|R-- .... ....|R-- .... ....
....|..|C-4 2F.7 ....|E-3 2F.7 ....|E-3 2F.7 ....
....|..|E-4 2F.A ....|--- .... ....|--- .... ....
 E-4|..|E-4 2C.F ....|E-3 2F.F ....|E-4 2C.F ....
....|..|R-- .... ....|R-- .... ....|R-- .... ....
....|..|E-4 2F.7 ....|--- .... ....|--- .... ....
....|..|E-4 2F.A ....|E-3 2F.A ....|E-3 2F.A ....
 B-4|..|B-3 2C.F ....|R-- .... ....|R-- .... ....
....|..|--- .... ....|--- .... ....|--- .... ....
....|..|E-4 2F.7 ....|E-3 2F.7 ....|E-3 2F.7 ....
....|..|B-3 2F.A ....|--- .... ....|--- .... ....
 B-4|..|B-3 2C.F ....|E-3 2F.F ....|E-3 2F.F ....
....|..|R-- .... ....|R-- .... ....|R-- .... ....
....|..|B-3 2F.7 ....|--- .... ....|--- .... ....
....|..|B-3 2F.A ....|E-3 2F.A ....|E-3 2F.A ....
 E-4|..|E-3 2C.F ....|R-- .... ....|R-- .... ....
....|..|--- .... ....|--- .... ....|--- .... ....
....|..|B-3 2F.7 ....|E-3 2F.7 ....|E-3 2F.7 ....
....|..|E-3 2F.A ....|--- .... ....|--- .... ....
 A-3|..|A-3 2C.F ....|--- .... ....|--- .... ....
....|..|R-- .... ....|R-- .... ....|R-- .... ....
....|..|E-3 2F.7 ....|--- .... ....|--- .... ....
....|..|A-3 2F.A ....|--- .... ....|--- .... ....
 G-4|..|E-2 2F.F ....|G-3 2F.F ....|G-3 2C.F ....
....|..|R-- .... ....|--- .... ....|--- .... ....
....|..|A-3 2F.7 ....|--- .... ....|--- .... ....
....|..|E-2 2F.A ....|G-3 2F.A ....|G-3 2F.A ....
 E-4|..|E-3 2C.F ....|--- .... ....|--- .... ....
....|..|R-- .... ....|--- .... ....|--- .... ....
....|..|E-2 2F.7 ....|G-3 2F.7 ....|G-3 2F.7 ....
 E-4|..|E-2 2A.F ....|--- .... ....|--- .... ....
 E-4|..|E-4 2C.F ....|E-3 2F.F ....|E-4 2C.F ....
....|..|--- .... ....|R-- .... ....|R-- .... ....
....|..|E-3 2F.7 ....|--- .... ....|--- .... ....
....|..|E-4 2F.A ....|E-3 2F.A ....|E-3 2F.A ....
 E-4|..|E-4 2C.F ....|E-3 2F.F ....|E-4 2C.F ....
....|..|E-2 2F.7 ....|--- .... ....|--- .... ....
....|..|E-4 2F.7 ....|E-3 2F.7 ....|E-3 2F.7 ....
 E-4|..|E-2 2A.F ....|E-3 2F.A ....|E-3 2F.A ....
 D-4|..|D-4 2C.F ....|--- .... ....|--- .... ....
....|..|--- .... ....|R-- .... ....|R-- .... ....
....|..|E-4 2F.7 ....|E-3 2F.7 ....|E-3 2F.7 ....
....|..|D-4 2F.A ....|--- .... ....|--- .... ....
 D-4|..|D-4 2C.F ....|E-3 2F.F ....|E-3 2F.F ....
....|..|E-2 2F.7 ....|R-- .... ....|R-- .... ....
....|..|D-4 2F.7 ....|--- .... ....|--- .... ....
 E-4|..|E-2 2A.F ....|E-3 2F.A ....|E-3 2F.A ....
 E-4|..|E-4 2C.F ....|R-- .... ....|R-- .... ....
....|..|--- .... ....|--- .... ....|--- .... ....
....|..|D-4 2F.7 ....|E-3 2F.7 ....|E-3 2F.7 ....
....|..|E-4 2F.A ....|--- .... ....|--- .... ....
 E-4|..|E-4 2C.F ....|E-3 2F.F ....|E-4 2C.F ....
....|..|E-2 2F.7 ....|R-- .... ....|R-- .... ....
....|..|E-4 2F.7 ....|--- .... ....|--- .... ....
....|..|E-4 2F.A ....|E-3 2F.A ....|E-3 2F.A ....

[Pattern10]
 C-3|..|C-4 2C.F ....|R-- .... ....|R-- .... ....
....|..|--- .... ....|--- .... ....|--- .... ....
....|..|E-4 2F.7 ....|E-3 2F.7 ....|E-3 2F.7 ....
....|..|C-4 2F.A ....|R-- .... ....|R-- .... ....
 C-3|..|C-4 2C.F ....|E-3 2F.F ....|E-3 2F.F ....
....|..|R-- .... ....|--- .... ....|--- .... ....
....|..|C-4 2F.7 ....|R-- .... ....|R-- .... ....
....|..|C-4 2F.A ....|E-3 2F.A ....|E-3 2F.A ....
 E-4|..|E-4 2C.F ....|--- .... ....|--- .... ....
....|..|--- .... ....|R-- .... ....|R-- .... ....
....|..|C-4 2F.7 ....|E-3 2F.7 ....|E-3 2F.7 ....
....|..|E-4 2F.A ....|--- .... ....|--- .... ....
 E-4|..|E-4 2C.F ....|E-3 2F.F ....|E-4 2C.F ....
....|..|R-- .... ....|R-- .... ....|R-- .... ....
....|..|E-4 2F.7 ....|--- .... ....|--- .... ....
....|..|E-4 2F.A ....|E-3 2F.A ....|E-3 2F.A ....
 B-4|..|B-3 2C.F ....|R-- .... ....|R-- .... ....
....|..|--- .... ....|--- .... ....|--- .... ....
....|..|E-4 2F.7 ....|E-3 2F.7 ....|E-3 2F.7 ....
....|..|B-3 2F.A ....|--- .... ....|--- .... ....
 B-4|..|B-3 2C.F ....|F-3 2F.F ....|F-3 2F.F ....
....|..|R-- .... ....|R-- .... ....|R-- .... ....
....|..|B-3 2F.7 ....|--- .... ....|--- .... ....
....|..|B-3 2F.A ....|F-3 2F.A ....|F-3 2F.A ....
 E-4|..|E-3 2C.F ....|E-3 2F.F ....|E-3 2C.F ....
....|..|--- .... ....|--- .... ....|--- .... ....
....|..|B-3 2F.7 ....|F-3 2F.7 ....|F-3 2F.7 ....
....|..|E-3 2F.A ....|E-3 2F.A ....|E-3 2F.A ....
 E-4|..|E-3 2C.F ....|--- .... ....|--- .... ....
....|..|R-- .... ....|R-- .... ....|R-- .... ....
....|..|E-3 2F.7 ....|E-3 2F.7 ....|E-3 2F.7 ....
....|..|E-3 2F.A ....|--- .... ....|--- .... ....
 A-3|..|A-2 2C.F ....|--- .... ....|--- .... ....
....|..|R-- .... ....|R-- .... ....|R-- .... ....
....|..|E-3 2F.7 ....|--- .... ....|--- .... ....
....|..|A-2 2F.A ....|--- .... ....|--- .... ....
 A-3|..|A-3 2C.F ....|R-- .... ....|R-- .... ....
....|..|R-- .... ....|--- .... ....|--- .... ....
....|..|A-2 2F.7 ....|--- .... ....|--- .... ....
 A-3|..|A-2 2C.F ....|--- .... ....|--- .... ....
 E-4|..|E-4 2C.F ....|--- .... ....|--- .... ....
....|..|--- .... ....|--- .... ....|--- .... ....
....|..|A-3 2F.7 ....|--- .... ....|--- .... ....
....|..|E-4 2F.A ....|--- .... ....|--- .... ....
 E-4|..|E-4 2C.F ....|--- .... ....|--- .... ....
....|..|A-2 2F.7 ....|--- .... ....|--- .... ....
....|..|E-4 2F.7 ....|--- .... ....|--- .... ....
 A-3|..|A-2 2C.F ....|--- .... ....|--- .... ....
 D-4|..|D-4 2C.F ....|--- .... ....|--- .... ....
....|..|--- .... ....|--- .... ....|--- .... ....
....|..|E-4 2F.7 ....|--- .... ....|--- .... ....
....|..|D-4 2F.A ....|--- .... ....|--- .... ....
 D-4|..|D-4 2C.F ....|--- .... ....|--- .... ....
....|..|A-2 2F.7 ....|--- .... ....|--- .... ....
....|..|D-4 2F.7 ....|--- .... ....|--- .... ....
 A-3|..|A-2 2C.F ....|--- .... ....|--- .... ....
 E-4|..|E-4 2C.F ....|--- .... ....|--- .... ....
....|..|--- .... ....|--- .... ....|--- .... ....
....|..|D-4 2F.7 ....|--- .... ....|--- .... ....
....|..|E-4 2F.A ....|--- .... ....|--- .... ....
 E-4|..|E-4 2C.F ....|--- .... ....|--- .... ....
....|..|A-2 2F.7 ....|--- .... ....|--- .... ....
....|..|E-4 2F.7 ....|--- .... ....|--- .... ....
....|..|E-4 2F.A ....|--- .... ....|--- .... ....

[Pattern12]
 C-3|..|C-4 2C.F ....|--- .... ....|--- .... ....
....|..|--- .... ....|--- .... ....|--- .... ....
....|..|E-4 2F.7 ....|--- .... ....|--- .... ....
....|..|C-4 2F.A ....|--- .... ....|--- .... ....
 C-3|..|C-4 2C.F ....|--- .... ....|--- .... ....
....|..|R-- .... ....|--- .... ....|--- .... ....
....|..|C-4 2F.7 ....|--- .... ....|--- .... ....
....|..|C-4 2F.A ....|--- .... ....|--- .... ....
 E-4|..|E-4 2C.F ....|--- .... ....|--- .... ....
....|..|--- .... ....|--- .... ....|--- .... ....
....|..|C-4 2F.7 ....|--- .... ....|--- .... ....
....|..|E-4 2F.A ....|--- .... ....|--- .... ....
 E-4|..|E-4 2C.F ....|--- .... ....|--- .... ....
....|..|R-- .... ....|--- .... ....|--- .... ....
....|..|E-4 2F.7 ....|--- .... ....|--- .... ....
....|..|E-4 2F.A ....|--- .... ....|--- .... ....
 B-4|..|B-3 2C.F ....|--- .... ....|--- .... ....
....|..|--- .... ....|--- .... ....|--- .... ....
....|..|E-4 2F.7 ....|--- .... ....|--- .... ....
....|..|B-3 2F.A ....|--- .... ....|--- .... ....
 B-4|..|B-3 2C.F ....|--- .... ....|--- .... ....
....|..|R-- .... ....|--- .... ....|--- .... ....
....|..|B-3 2F.7 ....|--- .... ....|--- .... ....
....|..|B-3 2F.A ....|--- .... ....|--- .... ....
 A-3|..|E-3 2F.F ....|A-3 2F.F ....|A-3 2C.F ....
....|..|--- .... ....|--- .... ....|--- .... ....
....|..|B-3 2F.7 ....|--- .... ....|--- .... ....
....|..|E-3 2F.A ....|A-3 2F.A ....|A-3 2F.A ....
 C-3|..|A-3 2F.F ....|C-4 2F.F ....|C-4 2C.F ....
....|..|R-- .... ....|--- .... ....|--- .... ....
....|..|E-3 2F.7 ....|A-3 2F.7 ....|A-3 2F.7 ....
....|..|A-3 2F.A ....|C-4 2F.A ....|C-4 2F.A ....
 C-3|..|C-3 2C.F ....|--- .... ....|--- .... ....
 C-4|..|C-2 2A.F ....|R-- .... ....|R-- .... ....
....|..|A-3 2F.7 ....|C-4 2F.7 ....|C-4 2F.7 ....
....|..|C-3 2F.A ....|--- .... ....|--- .... ....
 G-4|..|G-3 2C.F ....|--- .... ....|--- .... ....
....|..|C-2 2F.A ....|--- .... ....|--- .... ....
....|..|C-3 2F.7 ....|--- .... ....|--- .... ....
 C-3|..|C-3 2C.F ....|--- .... ....|--- .... ....
 E-4|..|E-4 2C.F ....|--- .... ....|--- .... ....
....|..|C-2 2F.7 ....|--- .... ....|--- .... ....
....|..|G-3 2F.7 ....|--- .... ....|--- .... ....
....|..|E-4 2F.A ....|--- .... ....|--- .... ....
 E-4|..|E-4 2C.F ....|--- .... ....|--- .... ....
....|..|C-3 2F.7 ....|--- .... ....|--- .... ....
....|..|E-4 2F.7 ....|--- .... ....|--- .... ....
 C-3|..|C-3 2C.F ....|--- .... ....|--- .... ....
 D-4|..|D-4 2C.F ....|--- .... ....|--- .... ....
....|..|--- .... ....|--- .... ....|--- .... ....
....|..|E-4 2F.7 ....|--- .... ....|--- .... ....
....|..|D-4 2F.A ....|--- .... ....|--- .... ....
 D-4|..|D-4 2C.F ....|--- .... ....|--- .... ....
....|..|C-3 2F.7 ....|--- .... ....|--- .... ....
....|..|D-4 2F.7 ....|--- .... ....|--- .... ....
 C-3|..|C-3 2C.F ....|--- .... ....|--- .... ....
 E-4|..|E-4 2C.F ....|--- .... ....|--- .... ....
....|..|--- .... ....|--- .... ....|--- .... ....
....|..|D-4 2F.7 ....|--- .... ....|--- .... ....
....|..|E-4 2F.A ....|--- .... ....|--- .... ....
 E-4|..|E-4 2C.F ....|--- .... ....|--- .... ....
....|..|C-3 2F.7 ....|--- .... ....|--- .... ....
....|..|E-4 2F.7 ....|--- .... ....|--- .... ....
....|..|E-4 2F.A ....|--- .... ....|--- .... ....

[Pattern13]
 C-3|..|C-4 2C.F ....|--- .... ....|--- .... ....
....|..|--- .... ....|--- .... ....|--- .... ....
....|..|E-4 2F.7 ....|--- .... ....|--- .... ....
....|..|C-4 2F.A ....|--- .... ....|--- .... ....
 C-3|..|C-4 2C.F ....|--- .... ....|--- .... ....
....|..|R-- .... ....|--- .... ....|--- .... ....
....|..|C-4 2F.7 ....|--- .... ....|--- .... ....
....|..|C-4 2F.A ....|--- .... ....|--- .... ....
 E-4|..|E-4 2C.F ....|--- .... ....|--- .... ....
....|..|--- .... ....|--- .... ....|--- .... ....
....|..|C-4 2F.7 ....|--- .... ....|--- .... ....
....|..|E-4 2F.A ....|--- .... ....|--- .... ....
 E-4|..|E-4 2C.F ....|--- .... ....|--- .... ....
....|..|R-- .... ....|--- .... ....|--- .... ....
....|..|E-4 2F.7 ....|--- .... ....|--- .... ....
....|..|E-4 2F.A ....|--- .... ....|--- .... ....
 B-4|..|B-3 2C.F ....|--- .... ....|--- .... ....
....|..|--- .... ....|--- .... ....|--- .... ....
....|..|E-4 2F.7 ....|--- .... ....|--- .... ....
....|..|B-3 2F.A ....|--- .... ....|--- .... ....
 B-4|..|B-3 2C.F ....|--- .... ....|--- .... ....
....|..|R-- .... ....|--- .... ....|--- .... ....
....|..|B-3 2F.7 ....|--- .... ....|--- .... ....
....|..|B-3 2F.A ....|--- .... ....|--- .... ....
 E-4|..|E-3 2C.F ....|--- .... ....|--- .... ....
....|..|--- .... ....|--- .... ....|--- .... ....
....|..|R-- .... ....|--- .... ....|--- .... ....
....|..|E-3 2F.A ....|R-- .... ....|R-- .... ....
 B-4|..|G-3 2F.F ....|B-3 2F.F ....|B-3 2C.F ....
....|..|R-- .... ....|--- .... ....|--- .... ....
....|..|E-3 2F.7 ....|R-- .... ....|R-- .... ....
....|..|G-3 2F.A ....|B-3 2F.A ....|B-3 2F.A ....
 B-4|..|B-2 2A.F ....|--- .... ....|--- .... ....
 E-3|..|E-1 2A.F ....|R-- .... ....|R-- .... ....
....|..|G-3 2F.7 ....|B-3 2F.7 ....|B-3 2F.7 ....
....|..|B-2 2F.A ....|--- .... ....|--- .... ....
 E-4|..|E-3 2C.F ....|--- .... ....|--- .... ....
....|..|E-1 2F.A ....|--- .... ....|--- .... ....
....|..|B-2 2F.7 ....|--- .... ....|--- .... ....
 B-4|..|B-2 2A.F ....|--- .... ....|--- .... ....
 E-4|..|E-4 2C.F ....|--- .... ....|--- .... ....
....|..|E-1 2F.7 ....|--- .... ....|--- .... ....
....|..|E-3 2F.7 ....|--- .... ....|--- .... ....
....|..|E-4 2F.A ....|--- .... ....|--- .... ....
 E-4|..|E-4 2C.F ....|--- .... ....|--- .... ....
....|..|B-2 2F.7 ....|--- .... ....|--- .... ....
....|..|E-4 2F.7 ....|--- .... ....|--- .... ....
 B-4|..|B-2 2A.F ....|--- .... ....|--- .... ....
 D-4|..|D-4 2C.F ....|--- .... ....|--- .... ....
....|..|--- .... ....|--- .... ....|--- .... ....
....|..|E-4 2F.7 ....|--- .... ....|--- .... ....
....|..|D-4 2F.A ....|--- .... ....|--- .... ....
 D-4|..|D-4 2C.F ....|--- .... ....|--- .... ....
....|..|B-2 2F.7 ....|--- .... ....|--- .... ....
....|..|D-4 2F.7 ....|--- .... ....|--- .... ....
 B-4|..|B-2 2A.F ....|--- .... ....|--- .... ....
 E-4|..|E-4 2C.F ....|--- .... ....|--- .... ....
....|..|--- .... ....|--- .... ....|--- .... ....
....|..|D-4 2F.7 ....|--- .... ....|--- .... ....
....|..|E-4 2F.A ....|--- .... ....|--- .... ....
 E-4|..|E-4 2C.F ....|--- .... ....|--- .... ....
....|..|B-2 2F.7 ....|--- .... ....|--- .... ....
....|..|E-4 2F.7 ....|--- .... ....|--- .... ....
....|..|E-4 2F.A ....|--- .... ....|--- .... ....

[Pattern14]
 C-3|..|C-4 2C.F ....|--- .... ....|--- .... ....
....|..|--- .... ....|--- .... ....|--- .... ....
....|..|E-4 2F.7 ....|--- .... ....|--- .... ....
....|..|C-4 2F.A ....|--- .... ....|--- .... ....
 C-3|..|C-4 2C.F ....|--- .... ....|--- .... ....
....|..|R-- .... ....|--- .... ....|--- .... ....
....|..|C-4 2F.7 ....|--- .... ....|--- .... ....
....|..|C-4 2F.A ....|--- .... ....|--- .... ....
 E-4|..|E-4 2C.F ....|--- .... ....|--- .... ....
....|..|--- .... ....|--- .... ....|--- .... ....
....|..|C-4 2F.7 ....|--- .... ....|--- .... ....
....|..|E-4 2F.A ....|--- .... ....|--- .... ....
 E-4|..|E-4 2C.F ....|--- .... ....|--- .... ....
....|..|R-- .... ....|--- .... ....|--- .... ....
....|..|E-4 2F.7 ....|--- .... ....|--- .... ....
....|..|E-4 2F.A ....|--- .... ....|--- .... ....
 B-4|..|B-3 2C.F ....|--- .... ....|--- .... ....
....|..|--- .... ....|--- .... ....|--- .... ....
....|..|E-4 2F.7 ....|--- .... ....|--- .... ....
....|..|B-3 2F.A ....|R-- .... ....|R-- .... ....
 B-4|..|B-3 2C.F ....|--- .... ....|--- .... ....
....|..|R-- .... ....|--- .... ....|--- .... ....
....|..|B-3 2F.7 ....|R-- .... ....|R-- .... ....
....|..|B-3 2F.A ....|--- .... ....|--- .... ....
 A-3|..|E-3 2F.F ....|A-3 2F.F ....|A-3 2C.F ....
....|..|--- .... ....|R-- .... ....|R-- .... ....
....|..|R-- .... ....|--- .... ....|--- .... ....
....|..|E-3 2F.A ....|A-3 2F.A ....|A-3 2F.A ....
 E-4|..|C-4 2F.F ....|E-4 2F.F ....|E-4 2C.F ....
....|..|R-- .... ....|--- .... ....|--- .... ....
....|..|E-3 2F.7 ....|A-3 2F.7 ....|A-3 2F.7 ....
....|..|C-4 2F.A ....|E-4 2F.A ....|E-4 2F.A ....
 A-3|..|A-2 2C.F ....|--- .... ....|--- .... ....
 A-3|..|A-1 2A.F ....|R-- .... ....|R-- .... ....
....|..|C-4 2F.7 ....|E-4 2F.7 ....|E-4 2F.7 ....
....|..|A-2 2F.A ....|--- .... ....|--- .... ....
 A-3|..|A-3 2C.F ....|--- .... ....|--- .... ....
....|..|A-1 2F.A ....|--- .... ....|--- .... ....
....|..|A-2 2F.7 ....|--- .... ....|--- .... ....
 A-3|..|A-2 2C.F ....|--- .... ....|--- .... ....
 E-4|..|E-4 2C.F ....|--- .... ....|--- .... ....
....|..|A-1 2F.7 ....|--- .... ....|--- .... ....
....|..|A-3 2F.7 ....|--- .... ....|--- .... ....
....|..|E-4 2F.A ....|--- .... ....|--- .... ....
 E-4|..|E-4 2C.F ....|--- .... ....|--- .... ....
....|..|A-2 2F.7 ....|--- .... ....|--- .... ....
....|..|E-4 2F.7 ....|--- .... ....|--- .... ....
 A-3|..|A-2 2C.F ....|--- .... ....|--- .... ....
 D-4|..|D-4 2C.F ....|--- .... ....|--- .... ....
....|..|--- .... ....|--- .... ....|--- .... ....
....|..|E-4 2F.7 ....|--- .... ....|--- .... ....
....|..|D-4 2F.A ....|--- .... ....|--- .... ....
 D-4|..|D-4 2C.F ....|--- .... ....|--- .... ....
....|..|A-2 2F.7 ....|--- .... ....|--- .... ....
....|..|D-4 2F.7 ....|--- .... ....|--- .... ....
 A-3|..|A-2 2C.F ....|--- .... ....|--- .... ....
 E-4|..|E-4 2C.F ....|--- .... ....|--- .... ....
....|..|--- .... ....|--- .... ....|--- .... ....
....|..|D-4 2F.7 ....|--- .... ....|--- .... ....
....|..|E-4 2F.A ....|--- .... ....|--- .... ....
 E-4|..|E-4 2C.F ....|--- .... ....|--- .... ....
....|..|A-2 2F.7 ....|--- .... ....|--- .... ....
....|..|E-4 2F.7 ....|--- .... ....|--- .... ....
....|..|E-4 2F.A ....|--- .... ....|--- .... ....

[Pattern15]
 C-3|..|C-4 2C.F ....|--- .... ....|--- .... ....
....|..|--- .... ....|--- .... ....|--- .... ....
....|..|E-4 2F.7 ....|--- .... ....|--- .... ....
....|..|C-4 2F.A ....|--- .... ....|--- .... ....
 C-3|..|C-4 2C.F ....|--- .... ....|--- .... ....
....|..|R-- .... ....|--- .... ....|--- .... ....
....|..|C-4 2F.7 ....|--- .... ....|--- .... ....
....|..|C-4 2F.A ....|--- .... ....|--- .... ....
 E-4|..|E-4 2C.F ....|--- .... ....|--- .... ....
....|..|--- .... ....|--- .... ....|--- .... ....
....|..|C-4 2F.7 ....|--- .... ....|--- .... ....
....|..|E-4 2F.A ....|--- .... ....|--- .... ....
 E-4|..|E-4 2C.F ....|--- .... ....|--- .... ....
....|..|R-- .... ....|--- .... ....|--- .... ....
....|..|E-4 2F.7 ....|--- .... ....|--- .... ....
....|..|E-4 2F.A ....|--- .... ....|--- .... ....
 B-4|..|B-3 2C.F ....|--- .... ....|--- .... ....
....|..|--- .... ....|--- .... ....|--- .... ....
....|..|E-4 2F.7 ....|--- .... ....|--- .... ....
....|..|R-- .... ....|--- .... ....|--- .... ....
 B-4|..|B-3 2C.F ....|--- .... ....|--- .... ....
....|..|R-- .... ....|--- .... ....|--- .... ....
....|..|R-- .... ....|--- .... ....|--- .... ....
....|..|B-3 2F.A ....|--- .... ....|--- .... ....
 E-4|..|E-3 2C.F ....|--- .... ....|--- .... ....
 E-4|..|E-2 2A.F ....|--- .... ....|--- .... ....
....|..|B-3 2F.7 ....|--- .... ....|--- .... ....
....|..|E-3 2F.A ....|--- .... ....|--- .... ....
 A-3|..|A-3 2C.F ....|--- .... ....|--- .... ....
....|..|E-2 2F.A ....|--- .... ....|--- .... ....
....|..|E-3 2F.7 ....|--- .... ....|--- .... ....
....|..|A-3 2F.A ....|--- .... ....|--- .... ....
 A-3|..|A-2 2C.F ....|--- .... ....|--- .... ....
....|..|R-- .... ....|--- .... ....|--- .... ....
....|..|A-3 2F.7 ....|--- .... ....|--- .... ....
....|..|A-2 2F.A ....|--- .... ....|--- .... ....
 A-3|..|A-3 2C.F ....|--- .... ....|--- .... ....
....|..|A-1 2F.A ....|--- .... ....|--- .... ....
....|..|A-2 2F.7 ....|--- .... ....|--- .... ....
 A-3|..|A-2 2C.F ....|--- .... ....|--- .... ....
 E-4|..|E-4 2C.F ....|--- .... ....|--- .... ....
....|..|A-1 2F.7 ....|--- .... ....|--- .... ....
....|..|A-3 2F.7 ....|--- .... ....|--- .... ....
....|..|E-4 2F.A ....|--- .... ....|--- .... ....
 E-4|..|E-4 2C.F ....|--- .... ....|--- .... ....
....|..|A-2 2F.7 ....|--- .... ....|--- .... ....
....|..|E-4 2F.7 ....|--- .... ....|--- .... ....
 A-3|..|A-2 2C.F ....|--- .... ....|--- .... ....
 D-4|..|D-4 2C.F ....|--- .... ....|--- .... ....
....|..|--- .... ....|--- .... ....|--- .... ....
....|..|E-4 2F.7 ....|--- .... ....|--- .... ....
....|..|D-4 2F.A ....|--- .... ....|--- .... ....
 D-4|..|D-4 2C.F ....|--- .... ....|--- .... ....
....|..|A-2 2F.7 ....|--- .... ....|--- .... ....
....|..|D-4 2F.7 ....|--- .... ....|--- .... ....
 A-3|..|A-2 2C.F ....|--- .... ....|--- .... ....
 E-4|..|E-4 2C.F ....|--- .... ....|--- .... ....
....|..|--- .... ....|--- .... ....|--- .... ....
....|..|D-4 2F.7 ....|R-- .... ....|R-- .... ....
....|..|E-4 2F.A ....|--- .... ....|--- .... ....
 E-4|..|E-4 2C.F ....|--- .... ....|--- .... ....
....|..|A-2 2F.7 ....|R-- .... ....|R-- .... ....
....|..|E-4 2F.7 ....|--- .... ....|--- .... ....
....|..|E-4 2F.A ....|--- .... ....|--- .... ....

[Pattern16]
 C-3|..|C-4 2C.F ....|R-- .... ....|R-- .... ....
....|..|--- .... ....|--- .... ....|--- .... ....
....|..|E-4 2F.7 ....|--- .... ....|--- .... ....
....|..|C-4 2F.A ....|--- .... ....|--- .... ....
 C-3|..|C-4 2C.F ....|--- .... ....|--- .... ....
....|..|R-- .... ....|--- .... ....|--- .... ....
....|..|C-4 2F.7 ....|--- .... ....|--- .... ....
....|..|C-4 2F.A ....|--- .... ....|--- .... ....
 E-4|..|E-4 2C.F ....|--- .... ....|--- .... ....
....|..|--- .... ....|--- .... ....|--- .... ....
....|..|C-4 2F.7 ....|--- .... ....|--- .... ....
....|..|E-4 2F.A ....|--- .... ....|--- .... ....
 E-4|..|E-4 2C.F ....|--- .... ....|--- .... ....
....|..|R-- .... ....|--- .... ....|--- .... ....
....|..|E-4 2F.7 ....|--- .... ....|--- .... ....
....|..|E-4 2F.A ....|--- .... ....|--- .... ....
 B-4|..|B-3 2C.F ....|--- .... ....|--- .... ....
....|..|--- .... ....|--- .... ....|--- .... ....
....|..|E-4 2F.7 ....|--- .... ....|--- .... ....
....|..|R-- .... ....|--- .... ....|--- .... ....
 B-4|..|B-3 2C.F ....|--- .... ....|--- .... ....
....|..|R-- .... ....|--- .... ....|--- .... ....
....|..|R-- .... ....|--- .... ....|--- .... ....
....|..|B-3 2F.A ....|--- .... ....|--- .... ....
 A-3|..|E-3 2F.F ....|A-3 2F.F ....|A-3 2C.F ....
 E-4|..|E-2 2A.F ....|--- .... ....|--- .F.. ....
....|..|B-3 2F.7 ....|--- .... ....|--- .... ....
....|..|E-3 2F.A ....|A-3 2F.A ....|A-3 2F.A ....
 C-3|..|A-3 2F.F ....|C-4 2F.F ....|C-4 2C.F ....
....|..|E-2 2F.A ....|--- .... ....|--- .... ....
....|..|E-3 2F.7 ....|A-3 2F.7 ....|A-3 2F.7 ....
....|..|A-3 2F.A ....|C-4 2F.A ....|C-4 2F.A ....
 C-3|..|C-3 2C.F ....|--- .... ....|--- .... ....
....|..|E-2 2F.7 ....|R-- .... ....|R-- .... ....
....|..|A-3 2F.7 ....|C-4 2F.7 ....|C-4 2F.7 ....
....|..|C-3 2F.A ....|--- .... ....|--- .... ....
 G-4|..|G-3 2C.F ....|--- .... ....|--- .... ....
....|..|D-2 2F.7 ....|--- .... ....|--- .... ....
....|..|C-3 2F.7 ....|--- .... ....|--- .... ....
 C-3|..|C-3 2C.F ....|--- .... ....|--- .... ....
 E-4|..|E-4 2C.F ....|--- .... ....|--- .... ....
....|..|C-2 2F.7 ....|--- .... ....|--- .... ....
....|..|G-3 2F.7 ....|--- .... ....|--- .... ....
....|..|E-4 2F.A ....|--- .... ....|--- .... ....
 E-4|..|E-4 2C.F ....|--- .... ....|--- .... ....
....|..|C-3 2F.7 ....|--- .... ....|--- .... ....
....|..|E-4 2F.7 ....|--- .... ....|--- .... ....
 C-3|..|C-3 2C.F ....|--- .... ....|--- .... ....
 D-4|..|D-4 2C.F ....|--- .... ....|--- .... ....
....|..|--- .... ....|--- .... ....|--- .... ....
....|..|E-4 2F.7 ....|--- .... ....|--- .... ....
....|..|D-4 2F.A ....|--- .... ....|--- .... ....
 D-4|..|D-4 2C.F ....|--- .... ....|--- .... ....
....|..|C-3 2F.7 ....|--- .... ....|--- .... ....
....|..|D-4 2F.7 ....|--- .... ....|--- .... ....
 C-3|..|C-3 2C.F ....|--- .... ....|--- .... ....
 E-4|..|E-4 2C.F ....|--- .... ....|--- .... ....
....|..|--- .... ....|--- .... ....|--- .... ....
....|..|D-4 2F.7 ....|--- .... ....|--- .... ....
....|..|E-4 2F.A ....|--- .... ....|--- .... ....
 E-4|..|E-4 2C.F ....|--- .... ....|--- .... ....
....|..|C-3 2F.7 ....|--- .... ....|--- .... ....
....|..|E-4 2F.7 ....|--- .... ....|--- .... ....
....|..|E-4 2F.A ....|--- .... ....|--- .... ....

[Pattern18]
 C-3|..|C-4 2C.F ....|--- .... ....|--- .... ....
....|..|--- .... ....|--- .... ....|--- .... ....
....|..|E-4 2F.7 ....|--- .... ....|--- .... ....
....|..|C-4 2F.A ....|--- .... ....|--- .... ....
 C-3|..|C-4 2C.F ....|--- .... ....|--- .... ....
....|..|R-- .... ....|--- .... ....|--- .... ....
....|..|C-4 2F.7 ....|--- .... ....|--- .... ....
....|..|C-4 2F.A ....|--- .... ....|--- .... ....
 E-4|..|E-4 2C.F ....|--- .... ....|--- .... ....
....|..|--- .... ....|--- .... ....|--- .... ....
....|..|C-4 2F.7 ....|--- .... ....|--- .... ....
....|..|E-4 2F.A ....|--- .... ....|--- .... ....
 E-4|..|E-4 2C.F ....|--- .... ....|--- .... ....
....|..|R-- .... ....|--- .... ....|--- .... ....
....|..|E-4 2F.7 ....|--- .... ....|--- .... ....
....|..|E-4 2F.A ....|--- .... ....|--- .... ....
 B-4|..|B-3 2C.F ....|--- .... ....|--- .... ....
....|..|--- .... ....|--- .... ....|--- .... ....
....|..|E-4 2F.7 ....|--- .... ....|--- .... ....
....|..|B-3 2F.A ....|--- .... ....|--- .... ....
 B-4|..|B-3 2C.F ....|--- .... ....|--- .... ....
....|..|R-- .... ....|--- .... ....|--- .... ....
....|..|B-3 2F.7 ....|--- .... ....|--- .... ....
....|..|B-3 2F.A ....|--- .... ....|--- .... ....
 E-4|..|E-3 2C.F ....|--- .... ....|--- .... ....
....|..|--- .... ....|--- .... ....|--- .... ....
....|..|R-- .... ....|R-- .... ....|R-- .... ....
....|..|E-3 2F.A ....|--- .... ....|--- .... ....
 C-3|..|C-4 2C.F ....|--- .... ....|--- .... ....
....|..|R-- .... ....|R-- .... ....|R-- .... ....
....|..|E-3 2F.7 ....|--- .... ....|--- .... ....
....|..|C-4 2F.A ....|--- .... ....|--- .... ....
 A-3|..|C-4 RF.F ....|A-3 2F.F ....|A-3 2C.F ....
 A-3|..|A-2 2C.F ....|--- .... ....|--- .... ....
....|..|C-4 2F.7 ....|--- .... ....|--- .... ....
....|..|C-4 RF.A ....|A-3 2F.A ....|A-3 2F.A ....
....|..|B-8 JF.F ....|--- .... ....|--- .... ....
....|..|A-2 2F.A ....|--- .... ....|--- .... ....
....|..|C-4 RF.7 ....|A-3 2F.7 ....|A-3 2F.7 ....
 A-3|..|A-2 2C.F ....|--- .... ....|--- .... ....
....|..|C-4 RF.F ....|--- .... ....|--- .... ....
....|..|A-2 2F.7 ....|--- .... ....|--- .... ....
....|..|B-8 JF.7 ....|--- .... ....|--- .... ....
....|..|C-4 RF.A ....|--- .... ....|--- .... ....
....|..|B-8 JF.F ....|--- .... ....|--- .... ....
....|..|A-3 2F.7 ....|R-- .... ....|R-- .... ....
....|..|C-4 RF.7 ....|--- .... ....|--- .... ....
 A-3|..|A-2 2C.F ....|--- .... ....|--- .... ....
 B-4|..|C-4 RF.F ....|B-3 2F.F ....|B-3 2C.F ....
....|..|E-4 2F.7 ....|--- .... ....|--- .... ....
....|..|B-8 JF.7 ....|--- .... ....|--- .... ....
....|..|C-4 RF.A ....|B-3 2F.A ....|B-3 2F.A ....
....|..|B-8 JF.F ....|--- .... ....|--- .... ....
....|..|E-4 2F.7 ....|--- .... ....|--- .... ....
....|..|C-4 RF.7 ....|B-3 2F.7 ....|B-3 2F.7 ....
 A-3|..|A-2 2C.F ....|--- .... ....|--- .... ....
....|..|C-4 RF.F ....|--- .... ....|--- .... ....
....|..|D-4 2F.7 ....|--- .... ....|--- .... ....
....|..|B-8 JF.7 ....|--- .... ....|--- .... ....
....|..|C-4 RF.A ....|--- .... ....|--- .... ....
....|..|B-8 JF.F ....|--- .... ....|--- .... ....
....|..|D-4 2F.7 ....|R-- .... ....|R-- .... ....
....|..|C-4 RF.7 ....|--- .... ....|--- .... ....
....|..|B-8 JF.A ....|--- .... ....|--- .... ....

[Pattern19]
 C-3|..|C-4 RF.F ....|C-4 2F.F ....|C-4 2C.F ....
....|..|E-4 2F.7 ....|--- .... ....|--- .... ....
....|..|B-8 JF.7 ....|--- .... ....|--- .... ....
....|..|C-4 RF.A ....|C-4 2F.A ....|C-4 2F.A ....
....|..|B-8 JF.F ....|--- .... ....|--- .... ....
....|..|E-4 2F.7 ....|--- .... ....|--- .... ....
....|..|C-4 RF.7 ....|C-4 2F.7 ....|C-4 2F.7 ....
....|..|B-8 JF.A ....|--- .... ....|--- .... ....
....|..|C-4 RF.F ....|--- .... ....|--- .... ....
....|..|C-4 2F.7 ....|--- .... ....|--- .... ....
....|..|B-8 JF.7 ....|--- .... ....|--- .... ....
....|..|C-4 RF.A ....|--- .... ....|--- .... ....
....|..|B-8 JF.F ....|--- .... ....|--- .... ....
....|..|C-4 2F.7 ....|R-- .... ....|R-- .... ....
....|..|C-4 RF.7 ....|--- .... ....|--- .... ....
....|..|B-8 JF.A ....|--- .... ....|--- .... ....
 B-4|..|C-4 RF.F ....|B-3 2F.F ....|B-3 2C.F ....
....|..|E-4 2F.7 ....|--- .... ....|--- .... ....
....|..|B-8 JF.7 ....|--- .... ....|--- .... ....
....|..|R-- .... ....|B-3 2F.A ....|B-3 2F.A ....
....|..|B-8 JF.F ....|--- .... ....|--- .... ....
....|..|E-4 2F.7 ....|--- .... ....|--- .... ....
....|..|R-- .... ....|B-3 2F.7 ....|B-3 2F.7 ....
....|..|B-8 JF.A ....|--- .... ....|--- .... ....
....|..|C-4 RF.F ....|--- .... ....|--- .... ....
....|..|B-3 2F.7 ....|--- .... ....|--- .... ....
....|..|B-8 JF.7 ....|--- .... ....|--- .... ....
....|..|C-4 RF.A ....|--- .... ....|--- .... ....
....|..|B-8 JF.F ....|--- .... ....|--- .... ....
....|..|B-3 2F.7 ....|R-- .... ....|R-- .... ....
....|..|C-4 RF.7 ....|--- .... ....|--- .... ....
....|..|B-8 JF.A ....|--- .... ....|--- .... ....
....|..|C-4 RF.F ....|R-- .... ....|R-- .... ....
....|..|R-- .... ....|--- .... ....|--- .... ....
....|..|B-8 JF.7 ....|--- .... ....|--- .... ....
....|..|C-4 RF.A ....|R-- .... ....|R-- .... ....
....|..|B-8 JF.F ....|--- .... ....|--- .... ....
....|..|A-3 2F.7 ....|--- .... ....|--- .... ....
....|..|C-4 RF.7 ....|--- .... ....|--- .... ....
 A-3|..|A-2 2C.F ....|--- .... ....|--- .... ....
 A-3|..|C-4 RF.F ....|A-3 2F.F ....|A-3 2C.F ....
....|..|A-2 2F.7 ....|--- .... ....|--- .... ....
....|..|B-8 JF.7 ....|--- .... ....|--- .... ....
....|..|C-4 RF.A ....|A-3 2F.A ....|A-3 2F.A ....
....|..|B-8 JF.F ....|--- .... ....|--- .... ....
....|..|A-3 2F.7 ....|--- .... ....|--- .... ....
....|..|C-4 RF.7 ....|A-3 2F.7 ....|A-3 2F.7 ....
 A-3|..|A-2 2C.F ....|--- .... ....|--- .... ....
 B-4|..|C-4 RF.F ....|B-3 2F.F ....|B-3 2C.F ....
....|..|E-4 2F.7 ....|R-- .... ....|R-- .... ....
....|..|B-8 JF.7 ....|--- .... ....|--- .... ....
....|..|C-4 RF.A ....|B-3 2F.A ....|B-3 2F.A ....
 A-3|..|B-8 JF.F ....|A-3 2F.F ....|A-3 2C.F ....
....|..|E-4 2F.7 ....|--- .... ....|--- .... ....
....|..|C-4 RF.7 ....|B-3 2F.7 ....|B-3 2F.7 ....
 A-3|..|A-2 2C.F ....|A-3 2F.A ....|A-3 2F.A ....
....|..|C-4 RF.F ....|--- .... ....|--- .... ....
....|..|D-4 2F.7 ....|R-- .... ....|R-- .... ....
....|..|B-8 JF.7 ....|A-3 2F.7 ....|A-3 2F.7 ....
....|..|C-4 RF.A ....|--- .... ....|--- .... ....
 B-4|..|B-8 JF.F ....|B-3 2F.F ....|B-3 2C.F ....
....|..|D-4 2F.7 ....|R-- .... ....|R-- .... ....
....|..|C-4 RF.7 ....|--- .... ....|--- .... ....
....|..|B-8 JF.A ....|B-3 2F.A ....|B-3 2F.A ....

[Pattern20]
....|..|C-4 RF.F ....|R-- .... ....|R-- .... ....
....|..|E-4 2F.7 ....|--- .... ....|--- .... ....
....|..|B-8 JF.7 ....|B-3 2F.7 ....|B-3 2F.7 ....
....|..|C-4 RF.A ....|R-- .... ....|R-- .... ....
 A-3|..|B-8 JF.F ....|A-3 2F.F ....|A-3 2C.F ....
....|..|E-4 2F.7 ....|--- .... ....|--- .... ....
....|..|C-4 RF.7 ....|R-- .... ....|R-- .... ....
....|..|B-8 JF.A ....|A-3 2F.A ....|A-3 2F.A ....
....|..|C-4 RF.F ....|--- .... ....|--- .... ....
....|..|C-4 2F.7 ....|R-- .... ....|R-- .... ....
....|..|B-8 JF.7 ....|A-3 2F.7 ....|A-3 2F.7 ....
....|..|C-4 RF.A ....|--- .... ....|--- .... ....
 E-4|..|B-8 JF.F ....|E-4 2F.F ....|E-4 2C.F ....
....|..|C-4 2F.7 ....|R-- .... ....|R-- .... ....
....|..|C-4 RF.7 ....|--- .... ....|--- .... ....
....|..|B-8 JF.A ....|E-4 2F.A ....|E-4 2F.A ....
....|..|C-4 RF.F ....|R-- .... ....|R-- .... ....
....|..|E-4 2F.7 ....|--- .... ....|--- .... ....
....|..|B-8 JF.7 ....|E-4 2F.7 ....|E-4 2F.7 ....
....|..|R-- .... ....|--- .... ....|--- .... ....
....|..|B-8 JF.F ....|--- .... ....|--- .... ....
....|..|E-4 2F.7 ....|--- .... ....|--- .... ....
....|..|R-- .... ....|R-- .... ....|R-- .... ....
....|..|B-8 JF.A ....|--- .... ....|--- .... ....
 A-3|..|C-4 RF.F ....|A-3 2F.F ....|A-3 2C.F ....
....|..|B-3 2F.7 ....|R-- .... ....|R-- .... ....
....|..|B-8 JF.7 ....|--- .... ....|--- .... ....
....|..|C-4 RF.A ....|A-3 2F.A ....|A-3 2F.A ....
....|..|B-8 JF.F ....|R-- .... ....|R-- .... ....
....|..|B-3 2F.7 ....|--- .... ....|--- .... ....
....|..|C-4 RF.7 ....|A-3 2F.7 ....|A-3 2F.7 ....
....|..|B-8 JF.A ....|--- .... ....|--- .... ....
 A-3|..|C-4 RF.F ....|A-3 2F.F ....|A-3 2C.F ....
....|..|R-- .... ....|R-- .... ....|R-- .... ....
....|..|B-8 JF.7 ....|--- .... ....|--- .... ....
....|..|C-4 RF.A ....|A-3 2F.A ....|A-3 2F.A ....
....|..|B-8 JF.F ....|R-- .... ....|R-- .... ....
....|..|A-3 2F.7 ....|--- .... ....|--- .... ....
....|..|C-4 RF.7 ....|A-3 2F.7 ....|A-3 2F.7 ....
 A-3|..|A-2 2C.F ....|--- .... ....|--- .... ....
....|..|C-4 RF.F ....|--- .... ....|--- .... ....
....|..|A-2 2F.7 ....|--- .... ....|--- .... ....
....|..|B-8 JF.7 ....|--- .... ....|--- .... ....
....|..|C-4 RF.A ....|--- .... ....|--- .... ....
....|..|B-8 JF.F ....|--- .... ....|--- .... ....
....|..|A-3 2F.7 ....|R-- .... ....|R-- .... ....
....|..|C-4 RF.7 ....|--- .... ....|--- .... ....
 A-3|..|A-2 2C.F ....|--- .... ....|--- .... ....
 B-4|..|C-4 RF.F ....|B-3 2F.F ....|B-3 2C.F ....
....|..|E-4 2F.7 ....|--- .... ....|--- .... ....
....|..|B-8 JF.7 ....|--- .... ....|--- .... ....
....|..|C-4 RF.A ....|B-3 2F.A ....|B-3 2F.A ....
....|..|B-8 JF.F ....|--- .... ....|--- .... ....
....|..|E-4 2F.7 ....|--- .... ....|--- .... ....
....|..|C-4 RF.7 ....|B-3 2F.7 ....|B-3 2F.7 ....
 A-3|..|A-2 2C.F ....|--- .... ....|--- .... ....
 B-4|..|C-4 RF.F ....|B-3 2F.F ....|B-3 2C.F ....
....|..|D-4 2F.7 ....|R-- .... ....|R-- .... ....
....|..|B-8 JF.7 ....|--- .... ....|--- .... ....
....|..|C-4 RF.A ....|B-3 2F.A ....|B-3 2F.A ....
....|..|B-8 JF.F ....|R-- .... ....|R-- .... ....
....|..|D-4 2F.7 ....|--- .... ....|--- .... ....
....|..|C-4 RF.7 ....|B-3 2F.7 ....|B-3 2F.7 ....
....|..|B-8 JF.A ....|--- .... ....|--- .... ....

[Pattern21]
 C-3|..|C-4 RF.F ....|C-4 2F.F ....|C-4 2C.F ....
....|..|E-4 2F.7 ....|R-- .... ....|R-- .... ....
....|..|B-8 JF.7 ....|--- .... ....|--- .... ....
....|..|C-4 RF.A ....|C-4 2F.A ....|C-4 2F.A ....
....|..|B-8 JF.F ....|R-- .... ....|R-- .... ....
....|..|E-4 2F.7 ....|--- .... ....|--- .... ....
....|..|C-4 RF.7 ....|C-4 2F.7 ....|C-4 2F.7 ....
....|..|B-8 JF.A ....|--- .... ....|--- .... ....
....|..|C-4 RF.F ....|--- .... ....|--- .... ....
....|..|C-4 2F.7 ....|--- .... ....|--- .... ....
....|..|B-8 JF.7 ....|--- .... ....|--- .... ....
....|..|C-4 RF.A ....|--- .... ....|--- .... ....
....|..|B-8 JF.F ....|--- .... ....|--- .... ....
....|..|C-4 2F.7 ....|R-- .... ....|R-- .... ....
....|..|C-4 RF.7 ....|--- .... ....|--- .... ....
....|..|B-8 JF.A ....|--- .... ....|--- .... ....
 B-4|..|C-4 RF.F ....|B-3 2F.F ....|B-3 2C.F ....
....|..|E-4 2F.7 ....|--- .... ....|--- .... ....
....|..|B-8 JF.7 ....|--- .... ....|--- .... ....
....|..|R-- .... ....|B-3 2F.A ....|B-3 2F.A ....
....|..|B-8 JF.F ....|--- .... ....|--- .... ....
....|..|E-4 2F.7 ....|--- .... ....|--- .... ....
....|..|R-- .... ....|B-3 2F.7 ....|B-3 2F.7 ....
....|..|B-8 JF.A ....|--- .... ....|--- .... ....
 C-3|..|C-4 RF.F ....|C-4 2F.F ....|C-4 2C.F ....
....|..|B-3 2F.7 ....|R-- .... ....|R-- .... ....
....|..|B-8 JF.7 ....|--- .... ....|--- .... ....
....|..|C-4 RF.A ....|C-4 2F.A ....|C-4 2F.A ....
 B-4|..|B-8 JF.F ....|B-3 2F.F ....|B-3 2C.F ....
....|..|B-3 2F.7 ....|--- .... ....|--- .... ....
....|..|C-4 RF.7 ....|C-4 2F.7 ....|C-4 2F.7 ....
....|..|B-8 JF.A ....|B-3 2F.A ....|B-3 2F.A ....
....|..|C-4 RF.F ....|--- .... ....|--- .... ....
....|..|R-- .... ....|R-- .... ....|R-- .... ....
....|..|B-8 JF.7 ....|B-3 2F.7 ....|B-3 2F.7 ....
....|..|C-4 RF.A ....|R-- .... ....|R-- .... ....
 A-3|..|B-8 JF.F ....|A-3 2F.F ....|A-3 2C.F ....
....|..|A-3 2F.7 ....|--- .... ....|--- .... ....
....|..|C-4 RF.7 ....|R-- .... ....|R-- .... ....
 A-3|..|A-2 2C.F ....|A-3 2F.A ....|A-3 2F.A ....
....|..|C-4 RF.F ....|--- .... ....|--- .... ....
....|..|A-2 2F.7 ....|R-- .... ....|R-- .... ....
....|..|B-8 JF.7 ....|A-3 2F.7 ....|A-3 2F.7 ....
....|..|C-4 RF.A ....|--- .... ....|--- .... ....
....|..|B-8 JF.F ....|--- .... ....|--- .... ....
....|..|A-3 2F.7 ....|--- .... ....|--- .... ....
....|..|C-4 RF.7 ....|--- .... ....|--- .... ....
 A-3|..|A-2 2C.F ....|--- .... ....|--- .... ....
....|..|C-4 RF.F ....|--- .... ....|--- .... ....
....|..|E-4 2F.7 ....|R-- .... ....|R-- .... ....
....|..|B-8 JF.7 ....|--- .... ....|--- .... ....
....|..|C-4 RF.A ....|--- .... ....|--- .... ....
....|..|B-8 JF.F ....|R-- .... ....|R-- .... ....
....|..|E-4 2F.7 ....|--- .... ....|--- .... ....
....|..|C-4 RF.7 ....|--- .... ....|--- .... ....
 A-3|..|A-2 2C.F ....|R-- .... ....|R-- .... ....
....|..|C-4 RF.F ....|--- .... ....|--- .... ....
....|..|D-4 2F.7 ....|--- .... ....|--- .... ....
....|..|B-8 JF.7 ....|--- .... ....|--- .... ....
....|..|C-4 RF.A ....|--- .... ....|--- .... ....
....|..|B-8 JF.F ....|--- .... ....|--- .... ....
....|..|D-4 2F.7 ....|--- .... ....|--- .... ....
....|..|C-4 RF.7 ....|--- .... ....|--- .... ....
....|..|B-8 JF.A ....|--- .... ....|--- .... ....

[Pattern22]
....|..|C-4 RF.F ....|--- .... ....|--- .... ....
....|..|E-4 2F.7 ....|--- .... ....|--- .... ....
....|..|B-8 JF.7 ....|--- .... ....|--- .... ....
....|..|C-4 RF.A ....|--- .... ....|--- .... ....
....|..|B-8 JF.F ....|--- .... ....|--- .... ....
....|..|E-4 2F.7 ....|--- .... ....|--- .... ....
....|..|C-4 RF.7 ....|--- .... ....|--- .... ....
....|..|B-8 JF.A ....|--- .... ....|--- .... ....
....|..|C-4 RF.F ....|--- .... ....|--- .... ....
....|..|C-4 2F.7 ....|--- .... ....|--- .... ....
....|..|B-8 JF.7 ....|--- .... ....|--- .... ....
....|..|C-4 RF.A ....|--- .... ....|--- .... ....
....|..|B-8 JF.F ....|--- .... ....|--- .... ....
....|..|C-4 2F.7 ....|--- .... ....|--- .... ....
....|..|C-4 RF.7 ....|--- .... ....|--- .... ....
....|..|B-8 JF.A ....|--- .... ....|--- .... ....
....|..|C-4 RF.F ....|--- .... ....|--- .... ....
....|..|E-4 2F.7 ....|--- .... ....|--- .... ....
....|..|B-8 JF.7 ....|--- .... ....|--- .... ....
....|..|R-- .... ....|--- .... ....|--- .... ....
....|..|B-8 JF.F ....|--- .... ....|--- .... ....
....|..|E-4 2F.7 ....|--- .... ....|--- .... ....
....|..|R-- .... ....|--- .... ....|--- .... ....
....|..|B-8 JF.A ....|--- .... ....|--- .... ....
....|..|C-4 RF.F ....|--- .... ....|--- .... ....
....|..|B-3 2F.7 ....|--- .... ....|--- .... ....
....|..|B-8 JF.7 ....|--- .... ....|--- .... ....
....|..|C-4 RF.A ....|--- .... ....|--- .... ....
....|..|B-8 JF.F ....|--- .... ....|--- .... ....
....|..|B-3 2F.7 ....|--- .... ....|--- .... ....
....|..|C-4 RF.7 ....|--- .... ....|--- .... ....
....|..|B-8 JF.A ....|--- .... ....|--- .... ....
 G-4|..|C-4 RF.F ....|G-3 2F.F ....|G-3 2C.F ....
....|..|E-3 2F.7 ....|--- .... ....|--- .... ....
....|..|B-8 JF.7 ....|--- .... ....|--- .... ....
....|..|C-4 LF.F ....|G-3 2F.A ....|G-3 2F.A ....
....|..|B-8 JF.F ....|--- .... ....|--- .... ....
....|..|A-3 2F.7 ....|--- .... ....|--- .... ....
....|..|C-4 RF.7 ....|G-3 2F.7 ....|G-3 2F.7 ....
....|..|C-4 LF.F ....|--- .... ....|--- .... ....
 E-4|..|C-4 RF.F ....|E-3 2F.F ....|E-3 2C.F ....
....|..|C-4 LF.7 ....|R-- .... ....|R-- .... ....
....|..|B-8 JF.7 ....|--- .... ....|--- .... ....
....|..|C-4 LF.F ....|E-3 2F.A ....|E-3 2F.A ....
 E-4|..|B-8 JF.F ....|E-3 2F.F ....|E-3 2C.F ....
....|..|C-4 LF.7 ....|--- .... ....|--- .... ....
....|..|C-4 RF.7 ....|E-3 2F.7 ....|E-3 2F.7 ....
....|..|C-4 LF.F ....|E-3 2F.A ....|E-3 2F.A ....
....|..|C-4 RF.F ....|--- .... ....|--- .... ....
....|..|C-4 LF.7 ....|R-- .... ....|R-- .... ....
....|..|B-8 JF.7 ....|E-3 2F.7 ....|E-3 2F.7 ....
....|..|C-4 LF.F ....|--- .... ....|--- .... ....
 E-4|..|B-8 JF.F ....|E-3 2F.F ....|E-3 2C.F ....
....|..|C-4 LF.7 ....|R-- .... ....|R-- .... ....
....|..|C-4 RF.7 ....|--- .... ....|--- .... ....
....|..|C-4 LF.F ....|E-3 2F.A ....|E-3 2F.A ....
....|..|C-4 RF.F ....|R-- .... ....|R-- .... ....
....|..|C-4 LF.7 ....|--- .... ....|--- .... ....
....|..|C-4 RF.F ....|E-3 2F.7 ....|E-3 2F.7 ....
....|..|C-4 RF.A ....|--- .... ....|--- .... ....
....|..|B-8 JF.F ....|--- .... ....|--- .... ....
....|..|C-4 LF.7 ....|--- .... ....|--- .... ....
....|..|C-4 RF.7 ....|--- .... ....|--- .... ....
....|..|B-8 JF.A ....|R-- .... ....|R-- .... ....

[Pattern23]
 E-4|..|C-4 RF.F ....|E-3 2F.F ....|E-3 2C.F ....
....|..|E-4 2F.7 ....|--- .... ....|--- .... ....
....|..|B-8 JF.7 ....|R-- .... ....|R-- .... ....
....|..|C-4 RF.A ....|E-3 2F.A ....|E-3 2F.A ....
 E-4|..|B-8 JF.F ....|E-3 2F.F ....|E-3 2C.F ....
....|..|E-4 2F.7 ....|R-- .... ....|R-- .... ....
....|..|C-4 RF.7 ....|E-3 2F.7 ....|E-3 2F.7 ....
....|..|B-8 JF.A ....|E-3 2F.A ....|E-3 2F.A ....
....|..|C-4 RF.F ....|--- .... ....|--- .... ....
....|..|C-4 2F.7 ....|R-- .... ....|R-- .... ....
....|..|B-8 JF.7 ....|E-3 2F.7 ....|E-3 2F.7 ....
....|..|C-4 RF.A ....|--- .... ....|--- .... ....
 E-4|..|B-8 JF.F ....|E-3 2F.F ....|E-3 2C.F ....
....|..|C-4 2F.7 ....|R-- .... ....|R-- .... ....
....|..|C-4 RF.7 ....|--- .... ....|--- .... ....
....|..|B-8 JF.A ....|E-3 2F.A ....|E-3 2F.A ....
....|..|C-4 RF.F ....|R-- .... ....|R-- .... ....
....|..|E-4 2F.7 ....|--- .... ....|--- .... ....
....|..|B-8 JF.7 ....|E-3 2F.7 ....|E-3 2F.7 ....
....|..|C-4 RF.A ....|--- .... ....|--- .... ....
 E-4|..|B-8 JF.F ....|E-3 2F.F ....|E-3 2C.F ....
....|..|E-4 2F.7 ....|R-- .... ....|R-- .... ....
....|..|C-4 RF.7 ....|--- .... ....|--- .... ....
....|..|B-8 JF.A ....|E-3 2F.A ....|E-3 2F.A ....
....|..|C-4 RF.F ....|R-- .... ....|R-- .... ....
....|..|B-3 2F.7 ....|--- .... ....|--- .... ....
....|..|R-- .... ....|E-3 2F.7 ....|E-3 2F.7 ....
....|..|C-4 RF.A ....|--- .... ....|--- .... ....
....|..|B-8 JF.F ....|--- .... ....|--- .... ....
....|..|R-- .... ....|R-- .... ....|R-- .... ....
....|..|C-4 RF.7 ....|--- .... ....|--- .... ....
....|..|B-8 JF.A ....|--- .... ....|--- .... ....
 G-4|..|C-4 RF.F ....|G-3 2F.F ....|G-3 2C.F ....
....|..|E-3 2F.7 ....|--- .... ....|--- .... ....
....|..|B-8 JF.7 ....|--- .... ....|--- .... ....
....|..|C-4 RF.A ....|G-3 2F.A ....|G-3 2F.A ....
....|..|B-8 JF.F ....|--- .... ....|--- .... ....
....|..|A-3 2F.7 ....|--- .... ....|--- .... ....
....|..|C-4 RF.7 ....|G-3 2F.7 ....|G-3 2F.7 ....
 E-4|..|E-2 2A.F ....|--- .... ....|--- .... ....
 E-4|..|C-4 RF.F ....|E-3 2F.F ....|E-3 2C.F ....
....|..|E-2 2F.7 ....|R-- .... ....|R-- .... ....
....|..|B-8 JF.7 ....|--- .... ....|--- .... ....
....|..|C-4 RF.A ....|E-3 2F.A ....|E-3 2F.A ....
 E-4|..|B-8 JF.F ....|E-3 2F.F ....|E-3 2C.F ....
....|..|E-3 2F.7 ....|--- .... ....|--- .... ....
....|..|C-4 RF.7 ....|E-3 2F.7 ....|E-3 2F.7 ....
 E-4|..|E-2 2A.F ....|E-3 2F.A ....|E-3 2F.A ....
....|..|C-4 RF.F ....|--- .... ....|--- .... ....
....|..|E-4 2F.7 ....|R-- .... ....|R-- .... ....
....|..|B-8 JF.7 ....|E-3 2F.7 ....|E-3 2F.7 ....
....|..|C-4 RF.A ....|--- .... ....|--- .... ....
....|..|B-8 JF.F ....|--- .... ....|--- .... ....
....|..|E-4 2F.7 ....|--- .... ....|--- .... ....
....|..|C-4 RF.7 ....|--- .... ....|--- .... ....
 E-4|..|E-2 2A.F ....|--- .... ....|--- .... ....
....|..|C-4 RF.F ....|--- .... ....|--- .... ....
....|..|D-4 2F.7 ....|--- .... ....|--- .... ....
....|..|B-8 JF.7 ....|R-- .... ....|R-- .... ....
....|..|C-4 RF.A ....|--- .... ....|--- .... ....
....|..|B-8 JF.F ....|--- .... ....|--- .... ....
....|..|D-4 2F.7 ....|R-- .... ....|R-- .... ....
....|..|C-4 RF.7 ....|--- .... ....|--- .... ....
....|..|B-8 JF.A ....|--- .... ....|--- .... ....

[Pattern24]
....|..|C-4 RF.F ....|R-- .... ....|R-- .... ....
....|..|E-4 2F.7 ....|--- .... ....|--- .... ....
....|..|B-8 JF.7 ....|--- .... ....|--- .... ....
....|..|C-4 RF.A ....|--- .... ....|--- .... ....
....|..|B-8 JF.F ....|--- .... ....|--- .... ....
....|..|E-4 2F.7 ....|--- .... ....|--- .... ....
....|..|C-4 RF.7 ....|--- .... ....|--- .... ....
....|..|B-8 JF.A ....|--- .... ....|--- .... ....
....|..|C-4 RF.F ....|--- .... ....|--- .... ....
....|..|C-4 2F.7 ....|--- .... ....|--- .... ....
....|..|B-8 JF.7 ....|--- .... ....|--- .... ....
....|..|C-4 RF.A ....|--- .... ....|--- .... ....
....|..|B-8 JF.F ....|--- .... ....|--- .... ....
....|..|C-4 2F.7 ....|--- .... ....|--- .... ....
....|..|C-4 RF.7 ....|--- .... ....|--- .... ....
....|..|B-8 JF.A ....|--- .... ....|--- .... ....
....|..|C-4 RF.F ....|--- .... ....|--- .... ....
....|..|E-4 2F.7 ....|--- .... ....|--- .... ....
....|..|B-8 JF.7 ....|--- .... ....|--- .... ....
....|..|C-4 RF.A ....|--- .... ....|--- .... ....
....|..|B-8 JF.F ....|--- .... ....|--- .... ....
....|..|E-4 2F.7 ....|--- .... ....|--- .... ....
....|..|C-4 RF.7 ....|--- .... ....|--- .... ....
....|..|B-8 JF.A ....|--- .... ....|--- .... ....
 E-4|..|C-4 RF.F ....|E-3 2F.F ....|E-3 2C.F ....
....|..|B-3 2F.7 ....|--- .... ....|--- .... ....
....|..|R-- .... ....|--- .... ....|--- .... ....
....|..|C-4 RF.A ....|E-3 2F.A ....|E-3 2F.A ....
 F-4|..|B-8 JF.F ....|F-3 2F.F ....|F-3 2C.F ....
....|..|R-- .... ....|--- .... ....|--- .... ....
....|..|C-4 RF.7 ....|E-3 2F.7 ....|E-3 2F.7 ....
....|..|B-8 JF.A ....|F-3 2F.A ....|F-3 2F.A ....
....|..|C-4 RF.F ....|--- .... ....|--- .... ....
....|..|E-3 2F.7 ....|R-- .... ....|R-- .... ....
....|..|B-8 JF.7 ....|F-3 2F.7 ....|F-3 2F.7 ....
....|..|C-4 RF.A ....|R-- .... ....|R-- .... ....
 E-4|..|B-8 JF.F ....|E-3 2F.F ....|E-3 2C.F ....
....|..|E-3 2F.7 ....|--- .... ....|--- .... ....
....|..|C-4 RF.7 ....|R-- .... ....|R-- .... ....
 A-3|..|A-2 2C.F ....|E-3 2F.A ....|E-3 2F.A ....
....|..|C-4 RF.F ....|--- .... ....|--- .... ....
....|..|A-2 2F.7 ....|R-- .... ....|R-- .... ....
....|..|B-8 JF.7 ....|E-3 2F.7 ....|E-3 2F.7 ....
....|..|C-4 RF.A ....|--- .... ....|--- .... ....
....|..|B-8 JF.F ....|--- .... ....|--- .... ....
....|..|A-3 2F.7 ....|--- .... ....|--- .... ....
....|..|C-4 RF.7 ....|R-- .... ....|R-- .... ....
 A-3|..|A-2 2C.F ....|--- .... ....|--- .... ....
....|..|C-4 RF.F ....|--- .... ....|--- .... ....
....|..|E-4 2F.7 ....|R-- .... ....|R-- .... ....
....|..|B-8 JF.7 ....|--- .... ....|--- .... ....
....|..|C-4 RF.A ....|--- .... ....|--- .... ....
....|..|B-8 JF.F ....|R-- .... ....|R-- .... ....
....|..|E-4 2F.7 ....|--- .... ....|--- .... ....
....|..|C-4 RF.7 ....|--- .... ....|--- .... ....
 A-3|..|A-2 2C.F ....|--- .... ....|--- .... ....
....|..|C-4 RF.F ....|--- .... ....|--- .... ....
....|..|D-4 2F.7 ....|--- .... ....|--- .... ....
....|..|B-8 JF.7 ....|--- .... ....|--- .... ....
....|..|C-4 RF.A ....|--- .... ....|--- .... ....
....|..|B-8 JF.F ....|--- .... ....|--- .... ....
....|..|D-4 2F.7 ....|--- .... ....|--- .... ....
....|..|C-4 RF.7 ....|--- .... ....|--- .... ....
....|..|B-8 JF.A ....|--- .... ....|--- .... ....

[Pattern25]
....|..|C-4 RF.F ....|--- .... ....|--- .... ....
....|..|E-4 2F.7 ....|--- .... ....|--- .... ....
....|..|B-8 JF.7 ....|--- .... ....|--- .... ....
....|..|C-4 RF.A ....|--- .... ....|--- .... ....
....|..|B-8 JF.F ....|--- .... ....|--- .... ....
....|..|E-4 2F.7 ....|--- .... ....|--- .... ....
....|..|C-4 RF.7 ....|--- .... ....|--- .... ....
....|..|B-8 JF.A ....|--- .... ....|--- .... ....
....|..|C-4 RF.F ....|--- .... ....|--- .... ....
....|..|C-4 2F.7 ....|--- .... ....|--- .... ....
....|..|B-8 JF.7 ....|--- .... ....|--- .... ....
....|..|C-4 RF.A ....|--- .... ....|--- .... ....
....|..|B-8 JF.F ....|--- .... ....|--- .... ....
....|..|C-4 2F.7 ....|--- .... ....|--- .... ....
....|..|C-4 RF.7 ....|--- .... ....|--- .... ....
....|..|B-8 JF.A ....|--- .... ....|--- .... ....
....|..|C-4 RF.F ....|--- .... ....|--- .... ....
....|..|E-4 2F.7 ....|--- .... ....|--- .... ....
....|..|B-8 JF.7 ....|--- .... ....|--- .... ....
....|..|R-- .... ....|--- .... ....|--- .... ....
....|..|B-8 JF.F ....|--- .... ....|--- .... ....
....|..|E-4 2F.7 ....|--- .... ....|--- .... ....
....|..|R-- .... ....|--- .... ....|--- .... ....
....|..|B-8 JF.A ....|--- .... ....|--- .... ....
....|..|C-4 RF.F ....|--- .... ....|--- .... ....
....|..|B-3 2F.7 ....|--- .... ....|--- .... ....
....|..|B-8 JF.7 ....|--- .... ....|--- .... ....
....|..|C-4 RF.A ....|--- .... ....|--- .... ....
....|..|B-8 JF.F ....|--- .... ....|--- .... ....
....|..|B-3 2F.7 ....|--- .... ....|--- .... ....
....|..|C-4 RF.7 ....|--- .... ....|--- .... ....
....|..|B-8 JF.A ....|--- .... ....|--- .... ....
....|..|C-4 RF.F ....|--- .... ....|--- .... ....
....|..|R-- .... ....|--- .... ....|--- .... ....
....|..|B-8 JF.7 ....|--- .... ....|--- .... ....
....|..|C-4 RF.A ....|--- .... ....|--- .... ....
....|..|B-8 JF.F ....|--- .... ....|--- .... ....
....|..|A-3 2F.7 ....|--- .... ....|--- .... ....
....|..|C-4 RF.7 ....|--- .... ....|--- .... ....
 A-3|..|A-2 2C.F ....|--- .... ....|--- .... ....
....|..|C-4 RF.F ....|--- .... ....|--- .... ....
....|..|A-2 2F.7 ....|--- .... ....|--- .... ....
....|..|B-8 JF.7 ....|--- .... ....|--- .... ....
....|..|C-4 RF.A ....|--- .... ....|--- .... ....
....|..|B-8 JF.F ....|--- .... ....|--- .... ....
....|..|A-3 2F.7 ....|--- .... ....|--- .... ....
....|..|C-4 RF.7 ....|--- .... ....|--- .... ....
 A-3|..|A-2 2C.F ....|--- .... ....|--- .... ....
....|..|C-4 RF.F ....|--- .... ....|--- .... ....
....|..|E-4 2F.7 ....|--- .... ....|--- .... ....
....|..|B-8 JF.7 ....|--- .... ....|--- .... ....
....|..|C-4 RF.A ....|--- .... ....|--- .... ....
....|..|B-8 JF.F ....|--- .... ....|--- .... ....
....|..|E-4 2F.7 ....|--- .... ....|--- .... ....
....|..|C-4 RF.7 ....|--- .... ....|--- .... ....
 A-3|..|A-2 2C.F ....|--- .... ....|--- .... ....
....|..|C-4 RF.F ....|--- .... ....|--- .... ....
....|..|D-4 2F.7 ....|--- .... ....|--- .... ....
....|..|B-8 JF.7 ....|--- .... ....|--- .... ....
....|..|C-4 RF.A ....|--- .... ....|--- .... ....
....|..|B-8 JF.F ....|--- .... ....|--- .... ....
....|..|D-4 2F.7 ....|--- .... ....|--- .... ....
....|..|C-4 RF.7 ....|--- .... ....|--- .... ....
....|..|B-8 JF.A ....|--- .... ....|--- .... ....

[Pattern26]
....|..|C-4 RF.F ....|--- .... ....|--- .... ....
....|..|E-4 2F.7 ....|--- .... ....|--- .... ....
....|..|B-8 JF.7 ....|--- .... ....|--- .... ....
....|..|C-4 RF.A ....|--- .... ....|--- .... ....
....|..|B-8 JF.F ....|--- .... ....|--- .... ....
....|..|E-4 2F.7 ....|--- .... ....|--- .... ....
....|..|C-4 RF.7 ....|--- .... ....|--- .... ....
....|..|B-8 JF.A ....|--- .... ....|--- .... ....
....|..|C-4 RF.F ....|--- .... ....|--- .... ....
....|..|C-4 2F.7 ....|--- .... ....|--- .... ....
....|..|B-8 JF.7 ....|--- .... ....|--- .... ....
....|..|C-4 RF.A ....|--- .... ....|--- .... ....
....|..|B-8 JF.F ....|--- .... ....|--- .... ....
....|..|C-4 2F.7 ....|--- .... ....|--- .... ....
....|..|C-4 RF.7 ....|--- .... ....|--- .... ....
....|..|B-8 JF.A ....|--- .... ....|--- .... ....
....|..|C-4 RF.F ....|--- .... ....|--- .... ....
....|..|E-4 2F.7 ....|--- .... ....|--- .... ....
....|..|B-8 JF.7 ....|--- .... ....|--- .... ....
....|..|R-- .... ....|--- .... ....|--- .... ....
....|..|B-8 JF.F ....|--- .... ....|--- .... ....
....|..|E-4 2F.7 ....|--- .... ....|--- .... ....
....|..|R-- .... ....|--- .... ....|--- .... ....
....|..|B-8 JF.A ....|--- .... ....|--- .... ....
 A-3|..|C-4 RF.F ....|A-3 2F.F ....|A-3 2C.F ....
....|..|B-3 2F.7 ....|--- .... ....|--- .... ....
....|..|B-8 JF.7 ....|--- .... ....|--- .... ....
....|..|C-4 RF.A ....|A-3 2F.A ....|A-3 2F.A ....
 C-3|..|B-8 JF.F ....|C-4 2F.F ....|C-4 2C.F ....
....|..|B-3 2F.7 ....|--- .... ....|--- .... ....
....|..|C-4 RF.7 ....|A-3 2F.7 ....|A-3 2F.7 ....
....|..|B-8 JF.A ....|C-4 2F.A ....|C-4 2F.A ....
....|..|C-4 RF.F ....|F-5 2F.F ....|F-5 2F.F ....
....|..|E-3 2F.7 ....|R-- .... ....|R-- .... ....
....|..|B-8 JF.7 ....|C-4 2F.7 ....|C-4 2F.7 ....
....|..|C-4 RF.A ....|F-5 2F.A ....|F-5 2F.A ....
....|..|B-8 JF.F ....|--- .... ....|--- .... ....
....|..|A-3 2F.7 ....|--- .... ....|--- .... ....
....|..|C-4 RF.7 ....|F-5 2F.7 ....|F-5 2F.7 ....
 C-3|..|C-3 2C.F ....|--- .... ....|--- .... ....
....|..|C-4 RF.F ....|--- .... ....|--- .... ....
....|..|C-3 2F.7 ....|--- .... ....|--- .... ....
....|..|B-8 JF.7 ....|--- .... ....|--- .... ....
....|..|C-4 RF.A ....|--- .... ....|--- .... ....
....|..|B-8 JF.F ....|--- .... ....|--- .... ....
....|..|G-3 2F.7 ....|--- .... ....|--- .... ....
....|..|C-4 RF.7 ....|--- .... ....|--- .... ....
 C-3|..|C-3 2C.F ....|--- .... ....|--- .... ....
....|..|C-4 RF.F ....|--- .... ....|--- .... ....
....|..|E-4 2F.7 ....|--- .... ....|--- .... ....
....|..|B-8 JF.7 ....|--- .... ....|--- .... ....
....|..|C-4 RF.A ....|--- .... ....|--- .... ....
....|..|B-8 JF.F ....|--- .... ....|--- .... ....
....|..|E-4 2F.7 ....|--- .... ....|--- .... ....
....|..|C-4 RF.7 ....|--- .... ....|--- .... ....
 C-3|..|C-3 2C.F ....|--- .... ....|--- .... ....
....|..|C-4 RF.F ....|--- .... ....|--- .... ....
....|..|D-4 2F.7 ....|--- .... ....|--- .... ....
....|..|B-8 JF.7 ....|--- .... ....|--- .... ....
....|..|C-4 RF.A ....|--- .... ....|--- .... ....
....|..|B-8 JF.F ....|--- .... ....|--- .... ....
....|..|D-4 2F.7 ....|--- .... ....|--- .... ....
....|..|C-4 RF.7 ....|--- .... ....|--- .... ....
....|..|B-8 JF.A ....|--- .... ....|--- .... ....

[Pattern27]
....|..|C-4 RF.F ....|--- .... ....|--- .... ....
....|..|E-4 2F.7 ....|--- .... ....|--- .... ....
....|..|B-8 JF.7 ....|--- .... ....|--- .... ....
....|..|C-4 RF.A ....|--- .... ....|--- .... ....
....|..|B-8 JF.F ....|--- .... ....|--- .... ....
....|..|E-4 2F.7 ....|--- .... ....|--- .... ....
....|..|C-4 RF.7 ....|--- .... ....|--- .... ....
....|..|B-8 JF.A ....|--- .... ....|--- .... ....
....|..|C-4 RF.F ....|--- .... ....|--- .... ....
....|..|C-4 2F.7 ....|--- .... ....|--- .... ....
....|..|B-8 JF.7 ....|--- .... ....|--- .... ....
....|..|C-4 RF.A ....|--- .... ....|--- .... ....
....|..|B-8 JF.F ....|--- .... ....|--- .... ....
....|..|C-4 2F.7 ....|--- .... ....|--- .... ....
....|..|C-4 RF.7 ....|--- .... ....|--- .... ....
....|..|B-8 JF.A ....|--- .... ....|--- .... ....
....|..|C-4 RF.F ....|--- .... ....|--- .... ....
....|..|E-4 2F.7 ....|--- .... ....|--- .... ....
....|..|B-8 JF.7 ....|--- .... ....|--- .... ....
....|..|C-4 RF.A ....|--- .... ....|--- .... ....
....|..|B-8 JF.F ....|--- .... ....|--- .... ....
....|..|E-4 2F.7 ....|--- .... ....|--- .... ....
....|..|C-4 RF.7 ....|--- .... ....|--- .... ....
....|..|B-8 JF.A ....|--- .... ....|--- .... ....
....|..|C-4 RF.F ....|--- .... ....|--- .... ....
....|..|B-3 2F.7 ....|--- .... ....|--- .... ....
....|..|R-- .... ....|R-- .... ....|R-- .... ....
....|..|C-4 RF.A ....|R-- .... ....|R-- .... ....
 B-4|..|B-8 JF.F ....|B-3 2F.F ....|B-3 2C.F ....
....|..|R-- .... ....|R-- .... ....|R-- .... ....
....|..|C-4 RF.7 ....|R-- .... ....|R-- .... ....
....|..|B-8 JF.A ....|B-3 2F.A ....|B-3 2F.A ....
....|..|C-4 RF.F ....|E-5 2F.F ....|E-5 2F.F ....
....|..|E-3 2F.7 ....|R-- .... ....|R-- .... ....
....|..|B-8 JF.7 ....|B-3 2F.7 ....|B-3 2F.7 ....
....|..|C-4 RF.A ....|E-5 2F.A ....|E-5 2F.A ....
....|..|B-8 JF.F ....|--- .... ....|--- .... ....
....|..|G-3 2F.7 ....|--- .... ....|--- .... ....
....|..|C-4 RF.7 ....|E-5 2F.7 ....|E-5 2F.7 ....
 B-4|..|B-2 2A.F ....|--- .... ....|--- .... ....
....|..|C-4 RF.F ....|--- .... ....|--- .... ....
....|..|B-2 2F.7 ....|--- .... ....|--- .... ....
....|..|B-8 JF.7 ....|--- .... ....|--- .... ....
....|..|C-4 RF.A ....|--- .... ....|--- .... ....
....|..|B-8 JF.F ....|--- .... ....|--- .... ....
....|..|E-3 2F.7 ....|--- .... ....|--- .... ....
....|..|C-4 RF.7 ....|--- .... ....|--- .... ....
 B-4|..|B-2 2A.F ....|--- .... ....|--- .... ....
....|..|C-4 RF.F ....|--- .... ....|--- .... ....
....|..|E-4 2F.7 ....|--- .... ....|--- .... ....
....|..|B-8 JF.7 ....|--- .... ....|--- .... ....
....|..|C-4 RF.A ....|--- .... ....|--- .... ....
....|..|B-8 JF.F ....|--- .... ....|--- .... ....
....|..|E-4 2F.7 ....|--- .... ....|--- .... ....
....|..|C-4 RF.7 ....|--- .... ....|--- .... ....
 B-4|..|B-2 2A.F ....|--- .... ....|--- .... ....
....|..|C-4 RF.F ....|--- .... ....|--- .... ....
....|..|D-4 2F.7 ....|--- .... ....|--- .... ....
....|..|B-8 JF.7 ....|--- .... ....|--- .... ....
....|..|C-4 RF.A ....|--- .... ....|--- .... ....
....|..|B-8 JF.F ....|--- .... ....|--- .... ....
....|..|D-4 2F.7 ....|--- .... ....|--- .... ....
....|..|C-4 RF.7 ....|--- .... ....|--- .... ....
....|..|B-8 JF.A ....|--- .... ....|--- .... ....

[Pattern28]
....|..|C-4 RF.F ....|--- .... ....|--- .... ....
....|..|E-4 2F.7 ....|--- .... ....|--- .... ....
....|..|B-8 JF.7 ....|--- .... ....|--- .... ....
....|..|C-4 RF.A ....|--- .... ....|--- .... ....
....|..|B-8 JF.F ....|--- .... ....|--- .... ....
....|..|E-4 2F.7 ....|--- .... ....|--- .... ....
....|..|C-4 RF.7 ....|--- .... ....|--- .... ....
....|..|B-8 JF.A ....|--- .... ....|--- .... ....
....|..|C-4 RF.F ....|--- .... ....|--- .... ....
....|..|C-4 2F.7 ....|--- .... ....|--- .... ....
....|..|B-8 JF.7 ....|--- .... ....|--- .... ....
....|..|C-4 RF.A ....|--- .... ....|--- .... ....
....|..|B-8 JF.F ....|--- .... ....|--- .... ....
....|..|C-4 2F.7 ....|--- .... ....|--- .... ....
....|..|C-4 RF.7 ....|--- .... ....|--- .... ....
....|..|B-8 JF.A ....|--- .... ....|--- .... ....
....|..|C-4 RF.F ....|--- .... ....|--- .... ....
....|..|E-4 2F.7 ....|--- .... ....|--- .... ....
....|..|B-8 JF.7 ....|--- .... ....|--- .... ....
....|..|C-4 RF.A ....|R-- .... ....|R-- .... ....
....|..|B-8 JF.F ....|--- .... ....|--- .... ....
....|..|E-4 2F.7 ....|--- .... ....|--- .... ....
....|..|C-4 RF.7 ....|R-- .... ....|R-- .... ....
....|..|B-8 JF.A ....|--- .... ....|--- .... ....
 A-3|..|C-4 RF.F ....|A-3 2F.F ....|A-3 2C.F ....
....|..|B-3 2F.7 ....|R-- .... ....|R-- .... ....
....|..|R-- .... ....|--- .... ....|--- .... ....
....|..|C-4 RF.A ....|A-3 2F.A ....|A-3 2F.A ....
 E-4|..|B-8 JF.F ....|E-4 2F.F ....|E-4 2C.F ....
....|..|R-- .... ....|--- .... ....|--- .... ....
....|..|C-4 RF.7 ....|A-3 2F.7 ....|A-3 2F.7 ....
....|..|B-8 JF.A ....|E-4 2F.A ....|E-4 2F.A ....
....|..|C-4 RF.F ....|A-4 2F1F ....|A-4 2F1F ....
....|..|E-3 2F.7 ....|R-- .... ....|R-- .... ....
....|..|B-8 JF.7 ....|E-4 2F.7 ....|E-4 2F.7 ....
....|..|C-4 RF.A ....|A-4 2F1A ....|A-4 2F1A ....
....|..|B-8 JF.F ....|--- .... ....|--- .... ....
....|..|C-4 2F.7 ....|--- .... ....|--- .... ....
....|..|C-4 RF.7 ....|A-4 2F17 ....|A-4 2F17 ....
 A-3|..|A-2 2C.F ....|--- .... ....|--- .... ....
....|..|C-4 RF.F ....|--- .... ....|--- .... ....
....|..|A-2 2F.7 ....|--- .... ....|--- .... ....
....|..|B-8 JF.7 ....|--- .... ....|--- .... ....
....|..|C-4 RF.A ....|--- .... ....|--- .... ....
....|..|B-8 JF.F ....|--- .... ....|--- .... ....
....|..|A-3 2F.7 ....|--- .... ....|--- .... ....
....|..|C-4 RF.7 ....|--- .... ....|--- .... ....
 A-3|..|A-2 2C.F ....|--- .... ....|--- .... ....
....|..|C-4 RF.F ....|--- .... ....|--- .... ....
....|..|E-4 2F.7 ....|--- .... ....|--- .... ....
....|..|B-8 JF.7 ....|--- .... ....|--- .... ....
....|..|C-4 RF.A ....|--- .... ....|--- .... ....
....|..|B-8 JF.F ....|--- .... ....|--- .... ....
....|..|E-4 2F.7 ....|--- .... ....|--- .... ....
....|..|C-4 RF.7 ....|--- .... ....|--- .... ....
 A-3|..|A-2 2C.F ....|--- .... ....|--- .... ....
....|..|C-4 RF.F ....|--- .... ....|--- .... ....
....|..|D-4 2F.7 ....|--- .... ....|--- .... ....
....|..|B-8 JF.7 ....|--- .... ....|--- .... ....
....|..|C-4 RF.A ....|--- .... ....|--- .... ....
....|..|B-8 JF.F ....|--- .... ....|--- .... ....
....|..|D-4 2F.7 ....|--- .... ....|--- .... ....
....|..|C-4 RF.7 ....|--- .... ....|--- .... ....
....|..|B-8 JF.A ....|--- .... ....|--- .... ....

[Pattern29]
....|..|C-4 RF.F ....|--- .... ....|--- .... ....
....|..|E-4 2F.7 ....|--- .... ....|--- .... ....
....|..|B-8 JF.7 ....|--- .... ....|--- .... ....
....|..|C-4 RF.A ....|--- .... ....|--- .... ....
....|..|B-8 JF.F ....|--- .... ....|--- .... ....
....|..|E-4 2F.7 ....|--- .... ....|--- .... ....
....|..|C-4 RF.7 ....|--- .... ....|--- .... ....
....|..|B-8 JF.A ....|--- .... ....|--- .... ....
....|..|C-4 RF.F ....|--- .... ....|--- .... ....
....|..|C-4 2F.7 ....|--- .... ....|--- .... ....
....|..|B-8 JF.7 ....|--- .... ....|--- .... ....
....|..|C-4 RF.A ....|--- .... ....|--- .... ....
....|..|B-8 JF.F ....|--- .... ....|--- .... ....
....|..|C-4 2F.7 ....|--- .... ....|--- .... ....
....|..|C-4 RF.7 ....|--- .... ....|--- .... ....
....|..|B-8 JF.A ....|--- .... ....|--- .... ....
....|..|C-4 RF.F ....|--- .... ....|--- .... ....
....|..|E-4 2F.7 ....|--- .... ....|--- .... ....
....|..|B-8 JF.7 ....|--- .... ....|--- .... ....
....|..|R-- .... ....|--- .... ....|--- .... ....
....|..|B-8 JF.F ....|--- .... ....|--- .... ....
....|..|E-4 2F.7 ....|--- .... ....|--- .... ....
....|..|R-- .... ....|--- .... ....|--- .... ....
....|..|B-8 JF.A ....|--- .... ....|--- .... ....
....|..|C-4 RF.F ....|--- .... ....|--- .... ....
....|..|B-3 2F.7 ....|--- .... ....|--- .... ....
....|..|B-8 JF.7 ....|--- .... ....|--- .... ....
....|..|C-4 RF.A ....|--- .... ....|--- .... ....
....|..|B-8 JF.F ....|--- .... ....|--- .... ....
....|..|B-3 2F.7 ....|--- .... ....|--- .... ....
....|..|C-4 RF.7 ....|--- .... ....|--- .... ....
....|..|B-8 JF.A ....|--- .... ....|--- .... ....
....|..|C-4 RF.F ....|--- .... ....|--- .... ....
....|..|R-- .... ....|--- .... ....|--- .... ....
....|..|B-8 JF.7 ....|--- .... ....|--- .... ....
....|..|C-4 RF.A ....|--- .... ....|--- .... ....
....|..|B-8 JF.F ....|--- .... ....|--- .... ....
....|..|A-3 2F.7 ....|--- .... ....|--- .... ....
....|..|C-4 RF.7 ....|--- .... ....|--- .... ....
 A-3|..|A-2 2C.F ....|--- .... ....|--- .... ....
....|..|C-4 RF.F ....|--- .... ....|--- .... ....
....|..|A-2 2F.7 ....|--- .... ....|--- .... ....
....|..|B-8 JF.7 ....|--- .... ....|--- .... ....
....|..|C-4 RF.A ....|--- .... ....|--- .... ....
....|..|B-8 JF.F ....|--- .... ....|--- .... ....
....|..|A-3 2F.7 ....|--- .... ....|--- .... ....
....|..|C-4 RF.7 ....|--- .... ....|--- .... ....
 A-3|..|A-2 2C.F ....|--- .... ....|--- .... ....
....|..|C-4 RF.F ....|--- .... ....|--- .... ....
....|..|E-4 2F.7 ....|--- .... ....|--- .... ....
....|..|B-8 JF.7 ....|--- .... ....|--- .... ....
....|..|C-4 RF.A ....|--- .... ....|--- .... ....
....|..|B-8 JF.F ....|--- .... ....|--- .... ....
....|..|E-4 2F.7 ....|--- .... ....|--- .... ....
....|..|C-4 RF.7 ....|--- .... ....|--- .... ....
 A-3|..|A-2 2C.F ....|--- .... ....|--- .... ....
....|..|C-4 RF.F ....|--- .... ....|--- .... ....
....|..|D-4 2F.7 ....|--- .... ....|--- .... ....
....|..|B-8 JF.7 ....|R-- .... ....|R-- .... ....
....|..|C-4 RF.A ....|--- .... ....|--- .... ....
....|..|B-8 JF.F ....|--- .... ....|--- .... ....
....|..|D-4 2F.7 ....|R-- .... ....|R-- .... ....
....|..|C-4 RF.7 ....|--- .... ....|--- .... ....
....|..|B-8 JF.A ....|--- .... ....|--- .... ....

[Pattern30]
....|..|C-4 RF.F ....|R-- .... ....|R-- .... ....
....|..|E-4 2F.7 ....|--- .... ....|--- .... ....
....|..|B-8 JF.7 ....|--- .... ....|--- .... ....
....|..|C-4 RF.A ....|--- .... ....|--- .... ....
....|..|B-8 JF.F ....|--- .... ....|--- .... ....
....|..|E-4 2F.7 ....|--- .... ....|--- .... ....
....|..|C-4 RF.7 ....|--- .... ....|--- .... ....
....|..|B-8 JF.A ....|--- .... ....|--- .... ....
....|..|C-4 RF.F ....|--- .... ....|--- .... ....
....|..|C-4 2F.7 ....|--- .... ....|--- .... ....
....|..|B-8 JF.7 ....|--- .... ....|--- .... ....
....|..|C-4 RF.A ....|--- .... ....|--- .... ....
....|..|B-8 JF.F ....|--- .... ....|--- .... ....
....|..|C-4 2F.7 ....|--- .... ....|--- .... ....
....|..|C-4 RF.7 ....|--- .... ....|--- .... ....
....|..|B-8 JF.A ....|--- .... ....|--- .... ....
....|..|C-4 RF.F ....|--- .... ....|--- .... ....
....|..|E-4 2F.7 ....|--- .... ....|--- .... ....
....|..|B-8 JF.7 ....|--- .... ....|--- .... ....
....|..|R-- .... ....|--- .... ....|--- .... ....
....|..|B-8 JF.F ....|--- .... ....|--- .... ....
....|..|E-4 2F.7 ....|--- .... ....|--- .... ....
....|..|R-- .... ....|--- .... ....|--- .... ....
....|..|B-8 JF.A ....|--- .... ....|--- .... ....
 A-3|..|C-4 RF.F ....|A-3 2F.F ....|A-3 2C.F ....
....|..|B-3 2F.7 ....|--- .... ....|--- .... ....
....|..|B-8 JF.7 ....|R-- .... ....|R-- .... ....
....|..|C-4 RF.A ....|A-3 2F.A ....|A-3 2F.A ....
 C-3|..|B-8 JF.F ....|C-4 2F.F ....|C-4 2C.F ....
....|..|B-3 2F.7 ....|R-- .... ....|R-- .... ....
....|..|C-4 RF.7 ....|A-3 2F.7 ....|A-3 2F.7 ....
....|..|B-8 JF.A ....|C-4 2F.A ....|C-4 2F.A ....
....|..|C-4 RF.F ....|F-5 2F.F ....|F-5 2F.F ....
....|..|E-3 2F.7 ....|R-- .... ....|R-- .... ....
....|..|B-8 JF.7 ....|C-4 2F.7 ....|C-4 2F.7 ....
....|..|C-4 RF.A ....|F-5 2F.A ....|F-5 2F.A ....
....|..|B-8 JF.F ....|--- .... ....|--- .... ....
....|..|A-3 2F.7 ....|--- .... ....|--- .... ....
....|..|C-4 RF.7 ....|F-5 2F.7 ....|F-5 2F.7 ....
 C-3|..|C-3 2C.F ....|--- .... ....|--- .... ....
....|..|C-4 RF.F ....|--- .... ....|--- .... ....
....|..|C-3 2F.7 ....|--- .... ....|--- .... ....
....|..|B-8 JF.7 ....|--- .... ....|--- .... ....
....|..|C-4 RF.A ....|--- .... ....|--- .... ....
....|..|B-8 JF.F ....|--- .... ....|--- .... ....
....|..|G-3 2F.7 ....|--- .... ....|--- .... ....
....|..|C-4 RF.7 ....|--- .... ....|--- .... ....
 C-3|..|C-3 2C.F ....|--- .... ....|--- .... ....
....|..|C-4 RF.F ....|--- .... ....|--- .... ....
....|..|E-4 2F.7 ....|--- .... ....|--- .... ....
....|..|B-8 JF.7 ....|--- .... ....|--- .... ....
....|..|C-4 RF.A ....|--- .... ....|--- .... ....
....|..|B-8 JF.F ....|--- .... ....|--- .... ....
....|..|E-4 2F.7 ....|--- .... ....|--- .... ....
....|..|C-4 RF.7 ....|--- .... ....|--- .... ....
 C-3|..|C-3 2C.F ....|--- .... ....|--- .... ....
....|..|C-4 RF.F ....|--- .... ....|--- .... ....
....|..|D-4 2F.7 ....|--- .... ....|--- .... ....
....|..|B-8 JF.7 ....|--- .... ....|--- .... ....
....|..|C-4 RF.A ....|--- .... ....|--- .... ....
....|..|B-8 JF.F ....|--- .... ....|--- .... ....
....|..|D-4 2F.7 ....|--- .... ....|--- .... ....
....|..|C-4 RF.7 ....|--- .... ....|--- .... ....
....|..|B-8 JF.A ....|--- .... ....|--- .... ....

[Pattern32]
....|..|C-4 RF.F ....|--- .... ....|--- .... ....
....|..|E-4 2F.7 ....|--- .... ....|--- .... ....
....|..|B-8 JF.7 ....|--- .... ....|--- .... ....
....|..|C-4 RF.A ....|--- .... ....|--- .... ....
....|..|B-8 JF.F ....|--- .... ....|--- .... ....
....|..|E-4 2F.7 ....|--- .... ....|--- .... ....
....|..|C-4 RF.7 ....|--- .... ....|--- .... ....
....|..|B-8 JF.A ....|--- .... ....|--- .... ....
....|..|C-4 RF.F ....|--- .... ....|--- .... ....
....|..|C-4 2F.7 ....|--- .... ....|--- .... ....
....|..|B-8 JF.7 ....|--- .... ....|--- .... ....
....|..|C-4 RF.A ....|--- .... ....|--- .... ....
....|..|B-8 JF.F ....|--- .... ....|--- .... ....
....|..|C-4 2F.7 ....|--- .... ....|--- .... ....
....|..|C-4 RF.7 ....|--- .... ....|--- .... ....
....|..|B-8 JF.A ....|--- .... ....|--- .... ....
....|..|C-4 RF.F ....|--- .... ....|--- .... ....
....|..|E-4 2F.7 ....|--- .... ....|--- .... ....
....|..|B-8 JF.7 ....|--- .... ....|--- .... ....
....|..|C-4 RF.A ....|R-- .... ....|R-- .... ....
....|..|B-8 JF.F ....|--- .... ....|--- .... ....
....|..|E-4 2F.7 ....|--- .... ....|--- .... ....
....|..|C-4 RF.7 ....|R-- .... ....|R-- .... ....
....|..|B-8 JF.A ....|--- .... ....|--- .... ....
 A-3|..|C-4 RF.F ....|A-3 2F.F ....|A-3 2C.F ....
....|..|B-3 2F.7 ....|R-- .... ....|R-- .... ....
....|..|R-- .... ....|--- .... ....|--- .... ....
....|..|C-4 RF.A ....|A-3 2F.A ....|A-3 2F.A ....
 A-3|..|B-8 JF.F ....|A-3 2F.F ....|A-3 2C.F ....
....|..|R-- .... ....|--- .... ....|--- .... ....
....|..|C-4 RF.7 ....|A-3 2F.7 ....|A-3 2F.7 ....
....|..|B-8 JF.A ....|A-3 2F.A ....|A-3 2F.A ....
....|..|C-4 RF.F ....|A-4 2F1F ....|A-4 2F1F ....
....|..|E-3 2F.7 ....|R-- .... ....|R-- .... ....
....|..|B-8 JF.7 ....|A-3 2F.7 ....|A-3 2F.7 ....
....|..|C-4 RF.A ....|A-4 2F1A ....|A-4 2F1A ....
....|..|B-8 JF.F ....|--- .... ....|--- .... ....
....|..|C-4 2F.7 ....|--- .... ....|--- .... ....
....|..|C-4 RF.7 ....|A-4 2F17 ....|A-4 2F17 ....
 A-3|..|A-2 2C.F ....|--- .... ....|--- .... ....
....|..|C-4 RF.F ....|--- .... ....|--- .... ....
....|..|A-2 2F.7 ....|--- .... ....|--- .... ....
....|..|B-8 JF.7 ....|--- .... ....|--- .... ....
....|..|C-4 RF.A ....|--- .... ....|--- .... ....
....|..|B-8 JF.F ....|--- .... ....|--- .... ....
....|..|A-3 2F.7 ....|--- .... ....|--- .... ....
....|..|C-4 RF.7 ....|--- .... ....|--- .... ....
 A-3|..|A-2 2C.F ....|--- .... ....|--- .... ....
....|..|C-4 RF.F ....|--- .... ....|--- .... ....
....|..|E-4 2F.7 ....|--- .... ....|--- .... ....
....|..|B-8 JF.7 ....|--- .... ....|--- .... ....
....|..|C-4 RF.A ....|--- .... ....|--- .... ....
....|..|B-8 JF.F ....|--- .... ....|--- .... ....
....|..|E-4 2F.7 ....|--- .... ....|--- .... ....
....|..|C-4 RF.7 ....|--- .... ....|--- .... ....
 A-3|..|A-2 2C.F ....|--- .... ....|--- .... ....
....|..|C-4 RF.F ....|--- .... ....|--- .... ....
....|..|D-4 2F.7 ....|--- .... ....|--- .... ....
....|..|B-8 JF.7 ....|R-- .... ....|R-- .... ....
....|..|C-4 RF.A ....|--- .... ....|--- .... ....
....|..|B-8 JF.F ....|--- .... ....|--- .... ....
....|..|D-4 2F.7 ....|R-- .... ....|R-- .... ....
....|..|C-4 RF.7 ....|--- .... ....|--- .... ....
....|..|B-8 JF.A ....|--- .... ....|--- .... ....

[Pattern33]
....|..|C-4 RF.F ....|R-- .... ....|R-- .... ....
....|..|E-4 2F.7 ....|--- .... ....|--- .... ....
....|..|B-8 JF.7 ....|--- .... ....|--- .... ....
....|..|C-4 RF.A ....|--- .... ....|--- .... ....
....|..|B-8 JF.F ....|--- .... ....|--- .... ....
....|..|E-4 2F.7 ....|--- .... ....|--- .... ....
....|..|C-4 RF.7 ....|--- .... ....|--- .... ....
....|..|B-8 JF.A ....|--- .... ....|--- .... ....
....|..|C-4 RF.F ....|--- .... ....|--- .... ....
....|..|C-4 2F.7 ....|--- .... ....|--- .... ....
....|..|B-8 JF.7 ....|--- .... ....|--- .... ....
....|..|C-4 RF.A ....|--- .... ....|--- .... ....
....|..|B-8 JF.F ....|--- .... ....|--- .... ....
....|..|C-4 2F.7 ....|--- .... ....|--- .... ....
....|..|C-4 RF.7 ....|--- .... ....|--- .... ....
....|..|B-8 JF.A ....|--- .... ....|--- .... ....
....|..|C-4 RF.F ....|--- .... ....|--- .... ....
....|..|E-4 2F.7 ....|--- .... ....|--- .... ....
....|..|B-8 JF.7 ....|--- .... ....|--- .... ....
....|..|R-- .... ....|--- .... ....|--- .... ....
....|..|B-8 JF.F ....|--- .... ....|--- .... ....
....|..|E-4 2F.7 ....|--- .... ....|--- .... ....
....|..|R-- .... ....|--- .... ....|--- .... ....
....|..|B-8 JF.A ....|--- .... ....|--- .... ....
....|..|C-4 RF.F ....|--- .... ....|--- .... ....
....|..|B-3 2F.7 ....|--- .... ....|--- .... ....
....|..|B-8 JF.7 ....|--- .... ....|--- .... ....
....|..|C-4 RF.A ....|--- .... ....|--- .... ....
....|..|B-8 JF.F ....|--- .... ....|--- .... ....
....|..|B-3 2F.7 ....|--- .... ....|--- .... ....
....|..|C-4 RF.7 ....|--- .... ....|--- .... ....
....|..|B-8 JF.A ....|--- .... ....|--- .... ....
....|..|C-4 RF.F ....|--- .... ....|--- .... ....
....|..|R-- .... ....|--- .... ....|--- .... ....
....|..|B-8 JF.7 ....|--- .... ....|--- .... ....
....|..|C-4 RF.A ....|--- .... ....|--- .... ....
....|..|B-8 JF.F ....|--- .... ....|--- .... ....
....|..|A-3 2F.7 ....|--- .... ....|--- .... ....
....|..|C-4 RF.7 ....|--- .... ....|--- .... ....
 A-3|..|A-2 2C.F ....|--- .... ....|--- .... ....
....|..|C-4 RF.F ....|--- .... ....|--- .... ....
....|..|A-2 2F.7 ....|--- .... ....|--- .... ....
....|..|B-8 JF.7 ....|--- .... ....|--- .... ....
....|..|C-4 RF.A ....|--- .... ....|--- .... ....
....|..|B-8 JF.F ....|--- .... ....|--- .... ....
....|..|A-3 2F.7 ....|--- .... ....|--- .... ....
....|..|C-4 RF.7 ....|--- .... ....|--- .... ....
 A-3|..|A-2 2C.F ....|--- .... ....|--- .... ....
....|..|C-4 RF.F ....|--- .... ....|--- .... ....
....|..|E-4 2F.7 ....|--- .... ....|--- .... ....
....|..|B-8 JF.7 ....|--- .... ....|--- .... ....
....|..|C-4 RF.A ....|--- .... ....|--- .... ....
....|..|B-8 JF.F ....|--- .... ....|--- .... ....
....|..|E-4 2F.7 ....|--- .... ....|--- .... ....
....|..|C-4 RF.7 ....|--- .... ....|--- .... ....
 A-3|..|A-2 2C.F ....|--- .... ....|--- .... ....
....|..|C-4 RF.F ....|--- .... ....|--- .... ....
....|..|D-4 2F.7 ....|--- .... ....|--- .... ....
....|..|B-8 JF.7 ....|--- .... ....|--- .... ....
....|..|C-4 RF.A ....|--- .... ....|--- .... ....
....|..|B-8 JF.F ....|--- .... ....|--- .... ....
....|..|D-4 2F.7 ....|--- .... ....|--- .... ....
....|..|C-4 RF.7 ....|--- .... ....|--- .... ....
....|..|B-8 JF.A ....|--- .... ....|--- .... ....

[Pattern34]
....|..|C-4 AF.F ....|--- .... ....|--- .... ....
....|..|E-4 2F.7 ....|--- .... ....|--- .... ....
....|..|B-8 JF.7 ....|--- .... ....|--- .... ....
....|..|C-4 AF.A ....|--- .... ....|--- .... ....
....|..|C-4 AF.F ....|--- .... ....|--- .... ....
....|..|E-4 2F.7 ....|--- .... ....|--- .... ....
....|..|C-4 AF.7 ....|--- .... ....|--- .... ....
....|..|C-4 AF.A ....|--- .... ....|--- .... ....
....|..|C-4 AF.F ....|--- .... ....|--- .... ....
....|..|C-4 2F.7 ....|--- .... ....|--- .... ....
....|..|C-4 AF.7 ....|--- .... ....|--- .... ....
....|..|C-4 AF.A ....|--- .... ....|--- .... ....
....|..|C-4 AF.F ....|--- .... ....|--- .... ....
....|..|C-4 2F.7 ....|--- .... ....|--- .... ....
....|..|C-4 AF.7 ....|--- .... ....|--- .... ....
....|..|C-4 AF.A ....|--- .... ....|--- .... ....
....|..|C-4 AF.F ....|--- .... ....|--- .... ....
....|..|E-4 2F.7 ....|--- .... ....|--- .... ....
....|..|C-4 AF.7 ....|--- .... ....|--- .... ....
....|..|R-- .... ....|--- .... ....|--- .... ....
....|..|C-4 AF.F ....|--- .... ....|--- .... ....
....|..|E-4 2F.7 ....|--- .... ....|--- .... ....
....|..|R-- .... ....|--- .... ....|--- .... ....
....|..|C-4 AF.A ....|--- .... ....|--- .... ....
....|..|C-4 AF.F ....|--- .... ....|--- .... ....
....|..|B-3 2F.7 ....|--- .... ....|--- .... ....
....|..|C-4 AF.7 ....|R-- .... ....|R-- .... ....
....|..|C-4 AF.A ....|--- .... ....|--- .... ....
....|..|C-4 AF.F ....|--- .... ....|--- .... ....
....|..|B-3 2F.7 ....|R-- .... ....|R-- .... ....
....|..|C-4 AF.7 ....|--- .... ....|--- .... ....
....|..|C-4 AF.A ....|--- .... ....|--- .... ....
 C-3|..|C-4 AF.F ....|C-4 2F.F ....|C-4 2C.F ....
....|..|E-3 2F.7 ....|--- .... ....|F-5 2F.F ....
....|..|C-4 AF.7 ....|--- .... ....|--- .... ....
....|..|C-4 AF.F ....|C-4 2F.A ....|C-4 2F.A ....
....|..|C-4 AF.F ....|--- .... ....|F-5 2F.A ....
....|..|A-3 2F.7 ....|--- .... ....|--- .... ....
....|..|B-8 JF.F ....|C-4 2F.7 ....|C-4 2F.7 ....
....|..|C-4 LF.F ....|--- .... ....|F-5 2F.7 ....
....|..|C-4 AF.F ....|--- .... ....|--- .... ....
....|..|C-4 AF.7 ....|--- .... ....|--- .... ....
....|..|C-4 AF.7 ....|--- .... ....|--- .... ....
....|..|C-4 AF.F ....|--- .... ....|--- .... ....
....|..|C-4 AF.F ....|--- .... ....|--- .... ....
....|..|C-4 AF.F ....|--- .... ....|--- .... ....
....|..|B-8 JF.F ....|--- .... ....|--- .... ....
....|..|C-4 LF.F ....|--- .... ....|--- .... ....
....|..|C-4 RF.F ....|--- .... ....|--- .... ....
....|..|C-4 AF.7 ....|--- .... ....|--- .... ....
....|..|C-4 AF.7 ....|--- .... ....|--- .... ....
....|..|C-4 CF.F ....|--- .... ....|--- .... ....
....|..|C-4 CF.F ....|--- .... ....|--- .... ....
....|..|C-4 LF.7 ....|--- .... ....|--- .... ....
....|..|B-8 JF.F ....|--- .... ....|--- .... ....
....|..|C-4 LF.F ....|--- .... ....|--- .... ....
....|..|C-4 RF.F ....|--- .... ....|--- .... ....
....|..|C-4 CF.7 ....|--- .... ....|--- .... ....
....|..|C-4 RF.F ....|--- .... ....|--- .... ....
....|..|C-4 LF.F ....|--- .... ....|--- .... ....
....|..|C-4 CF.F ....|--- .... ....|--- .... ....
....|..|C-4 CF.F ....|--- .... ....|--- .... ....
....|..|C-4 RF.7 ....|--- .... ....|--- .... ....
....|..|C-4 CF.A ....|--- .... ....|--- .... ....

[Pattern35]
....|..|C-4 AF.F ....|--- .... ....|--- .... ....
....|..|C-4 LF.7 ....|--- .... ....|--- .... ....
....|..|C-4 CF.7 ....|--- .... ....|--- .... ....
....|..|C-4 AF.F ....|--- .... ....|--- .... ....
....|..|C-4 AF.F ....|--- .... ....|--- .... ....
....|..|E-4 2F.7 ....|--- .... ....|--- .... ....
....|..|B-8 JF.F ....|--- .... ....|--- .... ....
....|..|C-4 LF.F ....|--- .... ....|--- .... ....
....|..|C-4 AF.F ....|--- .... ....|--- .... ....
....|..|C-4 AF.7 ....|--- .... ....|--- .... ....
....|..|C-4 AF.7 ....|--- .... ....|--- .... ....
....|..|C-4 AF.F ....|--- .... ....|--- .... ....
....|..|C-4 AF.F ....|--- .... ....|--- .... ....
....|..|C-4 AF.F ....|--- .... ....|--- .... ....
....|..|B-8 JF.F ....|--- .... ....|--- .... ....
....|..|C-4 AF.A ....|--- .... ....|--- .... ....
....|..|C-4 RF.F ....|--- .... ....|--- .... ....
....|..|C-4 AF.7 ....|--- .... ....|--- .... ....
....|..|C-4 AF.7 ....|--- .... ....|--- .... ....
....|..|C-4 CF.F ....|--- .... ....|--- .... ....
....|..|C-4 CF.F ....|--- .... ....|--- .... ....
....|..|E-4 2F.7 ....|--- .... ....|--- .... ....
....|..|B-8 JF.F ....|--- .... ....|--- .... ....
....|..|C-4 LF.F ....|--- .... ....|--- .... ....
....|..|C-4 RF.F ....|--- .... ....|--- .... ....
....|..|C-4 CF.7 ....|--- .... ....|--- .... ....
....|..|R-- .... ....|R-- .... ....|R-- .... ....
....|..|C-4 LF.F ....|--- .... ....|--- .... ....
....|..|C-4 CF.F ....|--- .... ....|--- .... ....
....|..|C-4 CF.F ....|R-- .... ....|R-- .... ....
....|..|C-4 RF.7 ....|--- .... ....|--- .... ....
....|..|C-4 CF.A ....|--- .... ....|--- .... ....
 D-4|..|C-4 AF.F ....|D-4 2F.F ....|D-4 2C.F ....
....|..|C-4 LF.7 ....|--- .... ....|E-5 2F.F ....
....|..|C-4 CF.7 ....|--- .... ....|--- .... ....
....|..|C-4 LF.F ....|D-4 2F.A ....|D-4 2F.A ....
....|..|C-4 CF.F ....|--- .... ....|E-5 2F.A ....
....|..|G-3 2F.7 ....|--- .... ....|--- .... ....
....|..|C-4 AF.7 ....|D-4 2F.7 ....|D-4 2F.7 ....
....|..|C-4 LF.F ....|--- .... ....|E-5 2F.7 ....
....|..|C-4 AF.F ....|--- .... ....|--- .... ....
....|..|C-4 LF.7 ....|--- .... ....|--- .... ....
....|..|C-4 CF.7 ....|--- .... ....|--- .... ....
....|..|C-4 AF.F ....|--- .... ....|--- .... ....
....|..|C-4 AF.F ....|--- .... ....|--- .... ....
....|..|C-4 AF.F ....|--- .... ....|--- .... ....
....|..|B-8 JF.F ....|--- .... ....|--- .... ....
 B-4|..|B-2 2A.F ....|--- .... ....|--- .... ....
....|..|C-4 RF.F ....|--- .... ....|--- .... ....
....|..|C-4 AF.7 ....|--- .... ....|--- .... ....
....|..|C-4 AF.7 ....|--- .... ....|--- .... ....
....|..|C-4 CF.F ....|--- .... ....|--- .... ....
....|..|C-4 CF.F ....|--- .... ....|--- .... ....
....|..|E-4 2F.7 ....|--- .... ....|--- .... ....
....|..|B-8 JF.F ....|--- .... ....|--- .... ....
....|..|C-4 LF.F ....|--- .... ....|--- .... ....
....|..|C-4 RF.F ....|--- .... ....|--- .... ....
....|..|C-4 CF.7 ....|--- .... ....|--- .... ....
....|..|C-4 CF.7 ....|--- .... ....|--- .... ....
....|..|C-4 LF.F ....|--- .... ....|--- .... ....
....|..|C-4 CF.F ....|--- .... ....|--- .... ....
....|..|C-4 CF.F ....|--- .... ....|--- .... ....
....|..|C-4 RF.7 ....|--- .... ....|--- .... ....
....|..|C-4 CF.A ....|--- .... ....|--- .... ....

[Pattern36]
....|..|C-4 AF.F ....|--- .... ....|--- .... ....
....|..|C-4 LF.7 ....|--- .... ....|--- .... ....
....|..|C-4 CF.7 ....|--- .... ....|--- .... ....
....|..|C-4 AF.F ....|--- .... ....|--- .... ....
....|..|C-4 AF.F ....|--- .... ....|--- .... ....
....|..|E-4 2F.7 ....|--- .... ....|--- .... ....
....|..|B-8 JF.F ....|--- .... ....|--- .... ....
....|..|C-4 LF.F ....|--- .... ....|--- .... ....
....|..|C-4 AF.F ....|--- .... ....|--- .... ....
....|..|C-4 AF.7 ....|--- .... ....|--- .... ....
....|..|C-4 AF.7 ....|--- .... ....|--- .... ....
....|..|C-4 AF.F ....|--- .... ....|--- .... ....
....|..|C-4 AF.F ....|--- .... ....|--- .... ....
....|..|C-4 AF.F ....|--- .... ....|--- .... ....
....|..|B-8 JF.F ....|--- .... ....|--- .... ....
....|..|C-4 AF.A ....|--- .... ....|--- .... ....
....|..|C-4 RF.F ....|--- .... ....|--- .... ....
....|..|C-4 AF.7 ....|--- .... ....|--- .... ....
....|..|C-4 AF.7 ....|--- .... ....|--- .... ....
....|..|C-4 CF.F ....|--- .... ....|--- .... ....
....|..|C-4 CF.F ....|--- .... ....|--- .... ....
....|..|E-4 2F.7 ....|--- .... ....|--- .... ....
....|..|B-8 JF.F ....|--- .... ....|--- .... ....
....|..|C-4 LF.F ....|--- .... ....|--- .... ....
....|..|C-4 RF.F ....|--- .... ....|--- .... ....
....|..|C-4 CF.7 ....|--- .... ....|--- .... ....
....|..|R-- .... ....|R-- .... ....|R-- .... ....
....|..|C-4 LF.F ....|--- .... ....|--- .... ....
....|..|C-4 CF.F ....|--- .... ....|--- .... ....
....|..|C-4 CF.F ....|R-- .... ....|R-- .... ....
....|..|C-4 RF.7 ....|--- .... ....|--- .... ....
....|..|C-4 CF.A ....|--- .... ....|--- .... ....
 B-4|..|C-4 AF.F ....|B-3 2F.F ....|B-3 2C.F ....
....|..|C-4 LF.7 ....|--- .... ....|A-4 2F1F ....
....|..|C-4 CF.7 ....|--- .... ....|--- .... ....
....|..|C-4 LF.F ....|B-3 2F.A ....|B-3 2F.A ....
....|..|C-4 CF.F ....|--- .... ....|A-4 2F1A ....
....|..|C-4 2F.7 ....|--- .... ....|--- .... ....
....|..|C-4 AF.7 ....|B-3 2F.7 ....|B-3 2F.7 ....
....|..|C-4 LF.F ....|--- .... ....|A-4 2F17 ....
....|..|C-4 AF.F ....|--- .... ....|--- .... ....
....|..|C-4 LF.7 ....|--- .... ....|--- .... ....
....|..|C-4 CF.7 ....|--- .... ....|--- .... ....
....|..|C-4 AF.F ....|--- .... ....|--- .... ....
....|..|C-4 AF.F ....|--- .... ....|--- .... ....
....|..|C-4 AF.F ....|--- .... ....|--- .... ....
....|..|B-8 JF.F ....|--- .... ....|--- .... ....
 A-3|..|A-2 2C.F ....|--- .... ....|--- .... ....
....|..|C-4 RF.F ....|--- .... ....|--- .... ....
....|..|C-4 AF.7 ....|--- .... ....|--- .... ....
....|..|C-4 AF.7 ....|--- .... ....|--- .... ....
....|..|C-4 CF.F ....|--- .... ....|--- .... ....
....|..|C-4 CF.F ....|--- .... ....|--- .... ....
....|..|E-4 2F.7 ....|--- .... ....|--- .... ....
....|..|B-8 JF.F ....|--- .... ....|--- .... ....
....|..|C-4 LF.F ....|--- .... ....|--- .... ....
....|..|C-4 RF.F ....|--- .... ....|--- .... ....
....|..|C-4 CF.7 ....|--- .... ....|--- .... ....
....|..|C-4 CF.7 ....|--- .... ....|--- .... ....
....|..|C-4 LF.F ....|--- .... ....|--- .... ....
....|..|C-4 CF.F ....|--- .... ....|--- .... ....
....|..|C-4 CF.F ....|--- .... ....|--- .... ....
....|..|C-4 RF.7 ....|--- .... ....|--- .... ....
....|..|C-4 CF.A ....|--- .... ....|--- .... ....

[Pattern37]
....|..|C-4 AF.F ....|--- .... ....|--- .... ....
....|..|C-4 LF.7 ....|--- .... ....|--- .... ....
....|..|C-4 CF.7 ....|--- .... ....|--- .... ....
....|..|C-4 AF.F ....|--- .... ....|--- .... ....
....|..|C-4 AF.F ....|--- .... ....|--- .... ....
....|..|E-4 2F.7 ....|--- .... ....|--- .... ....
....|..|B-8 JF.F ....|--- .... ....|--- .... ....
....|..|C-4 LF.F ....|--- .... ....|--- .... ....
....|..|C-4 AF.F ....|--- .... ....|--- .... ....
....|..|C-4 AF.7 ....|--- .... ....|--- .... ....
....|..|C-4 AF.7 ....|--- .... ....|--- .... ....
....|..|C-4 AF.F ....|--- .... ....|--- .... ....
....|..|C-4 AF.F ....|--- .... ....|--- .... ....
....|..|C-4 AF.F ....|--- .... ....|--- .... ....
....|..|B-8 JF.F ....|--- .... ....|--- .... ....
....|..|C-4 AF.A ....|--- .... ....|--- .... ....
....|..|C-4 RF.F ....|--- .... ....|--- .... ....
....|..|C-4 AF.7 ....|--- .... ....|--- .... ....
....|..|C-4 AF.7 ....|--- .... ....|--- .... ....
....|..|C-4 CF.F ....|--- .... ....|--- .... ....
....|..|C-4 CF.F ....|--- .... ....|--- .... ....
....|..|E-4 2F.7 ....|--- .... ....|--- .... ....
....|..|B-8 JF.F ....|--- .... ....|--- .... ....
....|..|C-4 LF.F ....|--- .... ....|--- .... ....
....|..|C-4 RF.F ....|--- .... ....|--- .... ....
....|..|C-4 CF.7 ....|--- .... ....|--- .... ....
....|..|C-4 CF.7 ....|R-- .... ....|R-- .... ....
....|..|C-4 LF.F ....|--- .... ....|--- .... ....
....|..|C-4 CF.F ....|--- .... ....|--- .... ....
....|..|C-4 CF.F ....|R-- .... ....|R-- .... ....
....|..|C-4 RF.7 ....|--- .... ....|--- .... ....
....|..|C-4 CF.A ....|--- .... ....|--- .... ....
 A-3|..|C-4 AF.F ....|A-3 2F.F ....|A-3 2C.F ....
....|..|R-- .... ....|--- .... ....|--- .... ....
....|..|C-4 CF.7 ....|--- .... ....|--- .... ....
....|..|C-4 LF.F ....|A-3 2F.A ....|A-3 2F.A ....
....|..|C-4 CF.F ....|--- .... ....|--- .... ....
....|..|A-3 2F.7 ....|--- .... ....|--- .... ....
....|..|C-4 AF.7 ....|A-3 2F.7 ....|A-3 2F.7 ....
....|..|C-4 LF.F ....|--- .... ....|--- .... ....
....|..|C-4 AF.F ....|--- .... ....|--- .... ....
....|..|C-4 LF.7 ....|--- .... ....|--- .... ....
....|..|C-4 CF.7 ....|--- .... ....|--- .... ....
....|..|C-4 AF.F ....|--- .... ....|--- .... ....
....|..|C-4 AF.F ....|--- .... ....|--- .... ....
....|..|C-4 AF.F ....|--- .... ....|--- .... ....
....|..|B-8 JF.F ....|--- .... ....|--- .... ....
 A-3|..|A-2 2C.F ....|--- .... ....|--- .... ....
....|..|C-4 RF.F ....|--- .... ....|--- .... ....
....|..|C-4 AF.7 ....|--- .... ....|--- .... ....
....|..|C-4 AF.7 ....|--- .... ....|--- .... ....
....|..|C-4 CF.F ....|--- .... ....|--- .... ....
....|..|C-4 CF.F ....|--- .... ....|--- .... ....
....|..|E-4 2F.7 ....|--- .... ....|--- .... ....
....|..|B-8 JF.F ....|--- .... ....|--- .... ....
....|..|C-4 LF.F ....|--- .... ....|--- .... ....
....|..|C-4 RF.F ....|--- .... ....|--- .... ....
....|..|C-4 CF.7 ....|--- .... ....|--- .... ....
....|..|C-4 CF.7 ....|--- .... ....|--- .... ....
....|..|C-4 LF.F ....|--- .... ....|--- .... ....
....|..|C-4 CF.F ....|--- .... ....|--- .... ....
....|..|C-4 CF.F ....|--- .... ....|--- .... ....
....|..|C-4 RF.7 ....|--- .... ....|--- .... ....
....|..|C-4 CF.A ....|--- .... ....|--- .... ....

[Pattern38]
....|..|C-4 AF.F ....|--- .... ....|--- .... ....
....|..|C-4 LF.7 ....|--- .... ....|--- .... ....
....|..|C-4 CF.7 ....|--- .... ....|--- .... ....
....|..|C-4 AF.F ....|--- .... ....|--- .... ....
....|..|C-4 AF.F ....|--- .... ....|--- .... ....
....|..|E-4 2F.7 ....|--- .... ....|--- .... ....
....|..|B-8 JF.F ....|--- .... ....|--- .... ....
....|..|C-4 LF.F ....|--- .... ....|--- .... ....
....|..|C-4 AF.F ....|--- .... ....|--- .... ....
....|..|C-4 AF.7 ....|--- .... ....|--- .... ....
....|..|C-4 AF.7 ....|--- .... ....|--- .... ....
....|..|C-4 AF.F ....|--- .... ....|--- .... ....
....|..|C-4 AF.F ....|--- .... ....|--- .... ....
....|..|C-4 AF.F ....|--- .... ....|--- .... ....
....|..|B-8 JF.F ....|--- .... ....|--- .... ....
....|..|C-4 AF.A ....|--- .... ....|--- .... ....
....|..|C-4 RF.F ....|--- .... ....|--- .... ....
....|..|C-4 AF.7 ....|--- .... ....|--- .... ....
....|..|C-4 AF.7 ....|--- .... ....|--- .... ....
....|..|C-4 CF.F ....|--- .... ....|--- .... ....
....|..|C-4 CF.F ....|--- .... ....|--- .... ....
....|..|E-4 2F.7 ....|--- .... ....|--- .... ....
....|..|B-8 JF.F ....|--- .... ....|--- .... ....
....|..|C-4 LF.F ....|--- .... ....|--- .... ....
....|..|C-4 RF.F ....|--- .... ....|--- .... ....
....|..|C-4 CF.7 ....|--- .... ....|--- .... ....
....|..|C-4 CF.7 ....|R-- .... ....|R-- .... ....
....|..|C-4 LF.F ....|--- .... ....|--- .... ....
....|..|C-4 CF.F ....|--- .... ....|--- .... ....
....|..|C-4 CF.F ....|R-- .... ....|R-- .... ....
....|..|C-4 RF.7 ....|--- .... ....|--- .... ....
....|..|C-4 CF.A ....|--- .... ....|--- .... ....
 C-3|..|C-4 AF.F ....|C-4 2F.F ....|C-4 2C.F ....
....|..|C-4 LF.7 ....|--- .... ....|F-5 2F.F ....
....|..|C-4 CF.7 ....|--- .... ....|--- .... ....
....|..|C-4 AF.F ....|C-4 2F.A ....|C-4 2F.A ....
....|..|C-4 AF.F ....|--- .... ....|F-5 2F.A ....
....|..|A-3 2F.7 ....|--- .... ....|--- .... ....
....|..|B-8 JF.F ....|C-4 2F.7 ....|C-4 2F.7 ....
....|..|C-4 LF.F ....|--- .... ....|F-5 2F.7 ....
....|..|C-4 AF.F ....|--- .... ....|--- .... ....
....|..|C-4 AF.7 ....|--- .... ....|--- .... ....
....|..|C-4 AF.7 ....|--- .... ....|--- .... ....
....|..|C-4 AF.F ....|--- .... ....|--- .... ....
....|..|C-4 AF.F ....|--- .... ....|--- .... ....
....|..|C-4 AF.F ....|--- .... ....|--- .... ....
....|..|B-8 JF.F ....|--- .... ....|--- .... ....
 C-3|..|C-3 2C.F ....|--- .... ....|--- .... ....
....|..|C-4 RF.F ....|--- .... ....|--- .... ....
....|..|C-4 AF.7 ....|--- .... ....|--- .... ....
....|..|C-4 AF.7 ....|--- .... ....|--- .... ....
....|..|C-4 CF.F ....|--- .... ....|--- .... ....
....|..|C-4 CF.F ....|--- .... ....|--- .... ....
....|..|E-4 2F.7 ....|--- .... ....|--- .... ....
....|..|B-8 JF.F ....|--- .... ....|--- .... ....
....|..|C-4 LF.F ....|--- .... ....|--- .... ....
....|..|C-4 RF.F ....|--- .... ....|--- .... ....
....|..|C-4 CF.7 ....|--- .... ....|--- .... ....
....|..|C-4 CF.7 ....|--- .... ....|--- .... ....
....|..|C-4 LF.F ....|--- .... ....|--- .... ....
....|..|C-4 CF.F ....|--- .... ....|--- .... ....
....|..|C-4 CF.F ....|--- .... ....|--- .... ....
....|..|C-4 RF.7 ....|--- .... ....|--- .... ....
....|..|C-4 CF.A ....|--- .... ....|--- .... ....

[Pattern40]
....|..|C-4 AF.F ....|--- .... ....|--- .... ....
....|..|C-4 LF.7 ....|--- .... ....|--- .... ....
....|..|C-4 CF.7 ....|--- .... ....|--- .... ....
....|..|C-4 AF.F ....|--- .... ....|--- .... ....
....|..|C-4 AF.F ....|--- .... ....|--- .... ....
....|..|E-4 2F.7 ....|--- .... ....|--- .... ....
....|..|B-8 JF.F ....|--- .... ....|--- .... ....
....|..|C-4 LF.F ....|--- .... ....|--- .... ....
....|..|C-4 AF.F ....|--- .... ....|--- .... ....
....|..|C-4 AF.7 ....|--- .... ....|--- .... ....
....|..|C-4 AF.7 ....|--- .... ....|--- .... ....
....|..|C-4 AF.F ....|--- .... ....|--- .... ....
....|..|C-4 AF.F ....|--- .... ....|--- .... ....
....|..|C-4 AF.F ....|--- .... ....|--- .... ....
....|..|B-8 JF.F ....|--- .... ....|--- .... ....
....|..|C-4 AF.A ....|--- .... ....|--- .... ....
....|..|C-4 RF.F ....|--- .... ....|--- .... ....
....|..|C-4 AF.7 ....|--- .... ....|--- .... ....
....|..|C-4 AF.7 ....|--- .... ....|--- .... ....
....|..|C-4 CF.F ....|--- .... ....|--- .... ....
....|..|C-4 CF.F ....|--- .... ....|--- .... ....
....|..|E-4 2F.7 ....|--- .... ....|--- .... ....
....|..|B-8 JF.F ....|--- .... ....|--- .... ....
....|..|C-4 LF.F ....|--- .... ....|--- .... ....
....|..|C-4 RF.F ....|--- .... ....|--- .... ....
....|..|C-4 CF.7 ....|--- .... ....|--- .... ....
....|..|R-- .... ....|R-- .... ....|R-- .... ....
....|..|C-4 LF.F ....|--- .... ....|--- .... ....
....|..|B-8 JF.F ....|--- .... ....|--- .... ....
....|..|B-8 JF.F ....|R-- .... ....|R-- .... ....
....|..|C-4 RF.7 ....|--- .... ....|--- .... ....
....|..|B-8 JF.A ....|--- .... ....|--- .... ....
 A-3|..|C-4 RF.F ....|A-3 2F.F ....|A-3 2C.F ....
....|..|C-4 LF.7 ....|--- .... ....|R-- .... ....
....|..|B-8 JF.7 ....|--- .... ....|--- .... ....
....|..|A-2 2F.A ....|A-3 2F.A ....|A-3 2F.A ....
....|..|B-8 JF.F ....|--- .... ....|--- .... ....
....|..|C-4 2F.7 ....|--- .... ....|--- .... ....
....|..|C-4 RF.7 ....|A-3 2F.7 ....|A-3 2F.7 ....
 A-3|..|A-2 2C.F ....|--- .... ....|--- .... ....
....|..|C-4 RF.F ....|--- .... ....|--- .... ....
....|..|A-2 2F.7 ....|--- .... ....|--- .... ....
....|..|B-8 JF.7 ....|--- .... ....|--- .... ....
....|..|C-4 RF.A ....|--- .... ....|--- .... ....
....|..|B-8 JF.F ....|--- .... ....|--- .... ....
....|..|A-3 2F.7 ....|R-- .... ....|R-- .... ....
 E-4|..|E-4 2C.F ....|--- .... ....|--- .... ....
 A-3|..|A-2 2C.F ....|--- .... ....|--- .... ....
 B-4|..|C-4 RF.F ....|B-3 2F.F ....|B-3 2C.F ....
 B-4|..|B-4 2C.F ....|--- .... ....|--- .... ....
....|..|B-8 JF.7 ....|--- .... ....|--- .... ....
....|..|C-4 RF.A ....|B-3 2F.A ....|B-3 2F.A ....
....|..|B-8 JF.F ....|--- .... ....|--- .... ....
....|..|C-5 2F.7 ....|--- .... ....|--- .... ....
....|..|C-4 RF.7 ....|B-3 2F.7 ....|B-3 2F.7 ....
 B-4|..|B-4 2C.F ....|--- .... ....|--- .... ....
....|..|C-4 RF.F ....|--- .... ....|--- .... ....
....|..|B-4 2F.7 ....|--- .... ....|--- .... ....
....|..|B-8 JF.7 ....|--- .... ....|--- .... ....
....|..|C-4 RF.A ....|--- .... ....|--- .... ....
....|..|B-8 JF.F ....|--- .... ....|--- .... ....
....|..|B-4 2F.7 ....|R-- .... ....|R-- .... ....
....|..|C-4 RF.7 ....|--- .... ....|--- .... ....
 B-4|..|B-4 2C.F ....|--- .... ....|--- .... ....

[Pattern41]
 C-3|..|C-4 RF.F ....|C-4 2F.F ....|C-4 2C.F ....
....|..|B-4 2F.7 ....|--- .... ....|--- .... ....
....|..|B-8 JF.7 ....|--- .... ....|--- .... ....
....|..|C-4 RF.A ....|C-4 2F.A ....|C-4 2F.A ....
....|..|B-8 JF.F ....|--- .... ....|--- .... ....
....|..|B-4 2F.7 ....|--- .... ....|--- .... ....
 C-3|..|C-4 2C.F ....|C-4 2F.7 ....|C-4 2F.7 ....
....|..|B-8 JF.A ....|--- .... ....|--- .... ....
....|..|C-4 RF.F ....|--- .... ....|--- .... ....
....|..|B-4 2F.A ....|--- .... ....|--- .... ....
....|..|B-8 JF.7 ....|--- .... ....|--- .... ....
....|..|C-4 RF.A ....|--- .... ....|--- .... ....
....|..|B-8 JF.F ....|--- .... ....|--- .... ....
....|..|B-4 2F.7 ....|R-- .... ....|R-- .... ....
 E-4|..|E-4 2C.F ....|--- .... ....|--- .... ....
....|..|B-8 JF.A ....|--- .... ....|--- .... ....
 B-4|..|C-4 RF.F ....|B-3 2F.F ....|B-3 2C.F ....
....|..|A-4 2F.A ....|--- .... ....|--- .... ....
....|..|B-8 JF.7 ....|--- .... ....|--- .... ....
....|..|C-4 RF.A ....|B-3 2F.A ....|B-3 2F.A ....
....|..|B-8 JF.F ....|--- .... ....|--- .... ....
....|..|A-4 2F.7 ....|--- .... ....|--- .... ....
 B-4|..|B-3 2C.F ....|B-3 2F.7 ....|B-3 2F.7 ....
....|..|B-8 JF.A ....|--- .... ....|--- .... ....
....|..|C-4 RF.F ....|--- .... ....|--- .... ....
....|..|B-4 2F.A ....|--- .... ....|--- .... ....
....|..|B-8 JF.7 ....|--- .... ....|--- .... ....
 C-3|..|C-5 2C.F ....|--- .... ....|--- .... ....
....|..|B-8 JF.F ....|--- .... ....|--- .... ....
....|..|B-4 2F.7 ....|R-- .... ....|R-- .... ....
 A-3|..|A-3 2C.F ....|--- .... ....|--- .... ....
....|..|B-8 JF.A ....|--- .... ....|--- .... ....
....|..|C-4 RF.F ....|R-- .... ....|R-- .... ....
....|..|C-5 2F.A ....|--- .... ....|--- .... ....
....|..|B-8 JF.7 ....|--- .... ....|--- .... ....
....|..|C-4 RF.A ....|R-- .... ....|R-- .... ....
....|..|B-8 JF.F ....|--- .... ....|--- .... ....
....|..|C-5 2F.7 ....|--- .... ....|--- .... ....
....|..|C-4 RF.7 ....|--- .... ....|--- .... ....
 A-3|..|A-2 2C.F ....|--- .... ....|--- .... ....
 A-3|..|C-4 RF.F ....|A-3 2F.F ....|A-3 2C.F ....
....|..|A-2 2F.7 ....|--- .... ....|--- .... ....
....|..|B-8 JF.7 ....|--- .... ....|--- .... ....
....|..|C-4 RF.A ....|A-3 2F.A ....|A-3 2F.A ....
....|..|B-8 JF.F ....|--- .... ....|--- .... ....
....|..|A-3 2F.7 ....|--- .... ....|--- .... ....
 E-4|..|E-4 2C.F ....|A-3 2F.7 ....|A-3 2F.7 ....
 A-3|..|A-2 2C.F ....|--- .... ....|--- .... ....
 B-4|..|C-4 RF.F ....|B-3 2F.F ....|B-3 2C.F ....
 B-4|..|B-4 2C.F ....|R-- .... ....|R-- .... ....
....|..|B-8 JF.7 ....|--- .... ....|--- .... ....
....|..|C-4 RF.A ....|B-3 2F.A ....|B-3 2F.A ....
 A-3|..|B-8 JF.F ....|A-3 2F.F ....|A-3 2C.F ....
....|..|C-5 2F.7 ....|--- .... ....|--- .... ....
....|..|C-4 RF.7 ....|B-3 2F.7 ....|B-3 2F.7 ....
 B-4|..|B-4 2C.F ....|A-3 2F.A ....|A-3 2F.A ....
....|..|C-4 RF.F ....|--- .... ....|--- .... ....
....|..|B-4 2F.7 ....|R-- .... ....|R-- .... ....
....|..|R-- .... ....|A-3 2F.7 ....|A-3 2F.7 ....
....|..|C-4 RF.A ....|--- .... ....|--- .... ....
 B-4|..|B-8 JF.F ....|B-3 2F.F ....|B-3 2C.F ....
....|..|R-- .... ....|R-- .... ....|R-- .... ....
....|..|C-4 RF.7 ....|--- .... ....|--- .... ....
 B-4|..|B-4 2C.F ....|B-3 2F.A ....|B-3 2F.A ....

[Pattern42]
....|..|C-4 RF.F ....|R-- .... ....|R-- .... ....
....|..|B-4 2F.7 ....|--- .... ....|--- .... ....
....|..|B-8 JF.7 ....|B-3 2F.7 ....|B-3 2F.7 ....
....|..|C-4 RF.A ....|R-- .... ....|R-- .... ....
 A-3|..|B-8 JF.F ....|A-3 2F.F ....|A-3 2C.F ....
....|..|B-4 2F.7 ....|--- .... ....|--- .... ....
 C-3|..|C-4 2C.F ....|R-- .... ....|R-- .... ....
....|..|B-8 JF.A ....|A-3 2F.A ....|A-3 2F.A ....
....|..|C-4 RF.F ....|--- .... ....|--- .... ....
....|..|B-4 2F.A ....|R-- .... ....|R-- .... ....
....|..|B-8 JF.7 ....|A-3 2F.7 ....|A-3 2F.7 ....
....|..|C-4 RF.A ....|--- .... ....|--- .... ....
 E-4|..|B-8 JF.F ....|E-4 2F.F ....|E-4 2C.F ....
....|..|B-4 2F.7 ....|R-- .... ....|R-- .... ....
 E-4|..|E-4 2C.F ....|--- .... ....|--- .... ....
....|..|B-8 JF.A ....|E-4 2F.A ....|E-4 2F.A ....
....|..|C-4 RF.F ....|R-- .... ....|R-- .... ....
....|..|A-4 2F.A ....|--- .... ....|--- .... ....
....|..|B-8 JF.7 ....|E-4 2F.7 ....|E-4 2F.7 ....
....|..|C-4 RF.A ....|--- .... ....|--- .... ....
....|..|B-8 JF.F ....|--- .... ....|--- .... ....
....|..|A-4 2F.7 ....|--- .... ....|--- .... ....
 B-4|..|B-3 2C.F ....|--- .... ....|--- .... ....
....|..|B-8 JF.A ....|--- .... ....|--- .... ....
....|..|C-4 RF.F ....|--- .... ....|--- .... ....
....|..|B-4 2F.A ....|R-- .... ....|R-- .... ....
....|..|B-8 JF.7 ....|--- .... ....|--- .... ....
 C-3|..|C-5 2C.F ....|--- .... ....|--- .... ....
....|..|B-8 JF.F ....|R-- .... ....|R-- .... ....
....|..|B-4 2F.7 ....|--- .... ....|--- .... ....
 A-3|..|A-3 2C.F ....|--- .... ....|--- .... ....
....|..|B-8 JF.A ....|R-- .... ....|R-- .... ....
 A-3|..|C-4 RF.F ....|A-3 2F.F ....|A-3 2C.F ....
....|..|C-5 2F.A ....|--- .... ....|--- .... ....
....|..|B-8 JF.7 ....|--- .... ....|--- .... ....
....|..|C-4 RF.A ....|A-3 2F.A ....|A-3 2F.A ....
....|..|B-8 JF.F ....|--- .... ....|--- .... ....
....|..|C-5 2F.7 ....|--- .... ....|--- .... ....
....|..|C-4 RF.7 ....|A-3 2F.7 ....|A-3 2F.7 ....
 A-3|..|A-2 2C.F ....|--- .... ....|--- .... ....
....|..|C-4 RF.F ....|--- .... ....|--- .... ....
....|..|A-2 2F.7 ....|--- .... ....|--- .... ....
....|..|B-8 JF.7 ....|--- .... ....|--- .... ....
....|..|C-4 RF.A ....|--- .... ....|--- .... ....
....|..|B-8 JF.F ....|--- .... ....|--- .... ....
....|..|A-3 2F.7 ....|R-- .... ....|R-- .... ....
 E-4|..|E-4 2C.F ....|--- .... ....|--- .... ....
 A-3|..|A-2 2C.F ....|--- .... ....|--- .... ....
 B-4|..|C-4 RF.F ....|B-3 2F.F ....|B-3 2C.F ....
 B-4|..|B-4 2C.F ....|--- .... ....|--- .... ....
....|..|B-8 JF.7 ....|--- .... ....|--- .... ....
....|..|C-4 RF.A ....|B-3 2F.A ....|B-3 2F.A ....
....|..|B-8 JF.F ....|--- .... ....|--- .... ....
....|..|C-5 2F.7 ....|--- .... ....|--- .... ....
....|..|C-4 RF.7 ....|B-3 2F.7 ....|B-3 2F.7 ....
 B-4|..|B-4 2C.F ....|--- .... ....|--- .... ....
....|..|C-4 RF.F ....|--- .... ....|--- .... ....
....|..|B-4 2F.7 ....|--- .... ....|--- .... ....
....|..|B-8 JF.7 ....|--- .... ....|--- .... ....
....|..|C-4 RF.A ....|--- .... ....|--- .... ....
....|..|B-8 JF.F ....|--- .... ....|--- .... ....
....|..|B-4 2F.7 ....|R-- .... ....|R-- .... ....
....|..|C-4 RF.7 ....|--- .... ....|--- .... ....
 B-4|..|B-4 2C.F ....|--- .... ....|--- .... ....

[Pattern44]
....|..|C-4 RF.F ....|R-- .... ....|R-- .... ....
....|..|B-4 2F.7 ....|--- .... ....|--- .... ....
....|..|B-8 JF.7 ....|B-3 2F.7 ....|B-3 2F.7 ....
....|..|C-4 RF.A ....|R-- .... ....|R-- .... ....
 A-3|..|B-8 JF.F ....|A-3 2F.F ....|A-3 2C.F ....
....|..|B-4 2F.7 ....|--- .... ....|--- .... ....
 C-3|..|C-4 2C.F ....|R-- .... ....|R-- .... ....
....|..|B-8 JF.A ....|A-3 2F.A ....|A-3 2F.A ....
....|..|C-4 RF.F ....|--- .... ....|--- .... ....
....|..|B-4 2F.A ....|R-- .... ....|R-- .... ....
....|..|B-8 JF.7 ....|A-3 2F.7 ....|A-3 2F.7 ....
....|..|C-4 RF.A ....|--- .... ....|--- .... ....
 E-4|..|B-8 JF.F ....|E-4 2F.F ....|E-4 2C.F ....
....|..|B-4 2F.7 ....|R-- .... ....|R-- .... ....
 E-4|..|E-4 2C.F ....|--- .... ....|--- .... ....
....|..|B-8 JF.A ....|E-4 2F.A ....|E-4 2F.A ....
....|..|C-4 RF.F ....|R-- .... ....|R-- .... ....
....|..|A-4 2F.A ....|--- .... ....|--- .... ....
....|..|B-8 JF.7 ....|E-4 2F.7 ....|E-4 2F.7 ....
....|..|C-4 RF.A ....|--- .... ....|--- .... ....
....|..|B-8 JF.F ....|--- .... ....|--- .... ....
....|..|A-4 2F.7 ....|--- .... ....|--- .... ....
 B-4|..|B-3 2C.F ....|--- .... ....|--- .... ....
....|..|B-8 JF.A ....|--- .... ....|--- .... ....
....|..|C-4 RF.F ....|--- .... ....|--- .... ....
....|..|B-4 2F.A ....|R-- .... ....|R-- .... ....
....|..|B-8 JF.7 ....|--- .... ....|--- .... ....
 C-3|..|C-5 2C.F ....|--- .... ....|--- .... ....
....|..|B-8 JF.F ....|R-- .... ....|R-- .... ....
....|..|B-4 2F.7 ....|--- .... ....|--- .... ....
 A-3|..|A-3 2C.F ....|--- .... ....|--- .... ....
....|..|B-8 JF.A ....|R-- .... ....|R-- .... ....
 G-4|..|C-4 RF.F ....|G-3 2F.F ....|G-3 2C.F ....
....|..|C-5 2F.A ....|--- .... ....|--- .... ....
....|..|B-8 JF.7 ....|--- .... ....|--- .... ....
....|..|C-4 RF.A ....|G-3 2F.A ....|G-3 2F.A ....
....|..|B-8 JF.F ....|--- .... ....|--- .... ....
....|..|C-5 2F.7 ....|--- .... ....|--- .... ....
....|..|C-4 RF.7 ....|G-3 2F.7 ....|G-3 2F.7 ....
 E-4|..|E-2 2A.F ....|--- .... ....|--- .... ....
 E-4|..|C-4 RF.F ....|E-3 2F.F ....|E-3 2C.F ....
....|..|E-2 2F.7 ....|R-- .... ....|R-- .... ....
....|..|B-8 JF.7 ....|--- .... ....|--- .... ....
....|..|C-4 RF.A ....|E-3 2F.A ....|E-3 2F.A ....
 E-4|..|B-8 JF.F ....|E-3 2F.F ....|E-3 2C.F ....
....|..|E-3 2F.7 ....|--- .... ....|--- .... ....
 E-4|..|E-4 2C.F ....|E-3 2F.7 ....|E-3 2F.7 ....
 E-4|..|E-2 2A.F ....|E-3 2F.A ....|E-3 2F.A ....
....|..|C-4 RF.F ....|--- .... ....|--- .... ....
 B-4|..|B-4 2C.F ....|R-- .... ....|R-- .... ....
....|..|B-8 JF.7 ....|E-3 2F.7 ....|E-3 2F.7 ....
....|..|C-4 RF.A ....|--- .... ....|--- .... ....
 E-4|..|B-8 JF.F ....|E-3 2F.F ....|E-3 2C.F ....
....|..|C-5 2F.7 ....|R-- .... ....|R-- .... ....
 D-4|..|D-4 2C.F ....|--- .... ....|--- .F.. ....
 E-4|..|E-2 2A.F ....|E-3 2F.A ....|E-3 2F.A ....
....|..|C-4 RF.F ....|R-- .... ....|R-- .... ....
 G-4|..|G-4 2C.F ....|--- .... ....|--- .... ....
....|..|B-8 JF.7 ....|E-3 2F.7 ....|E-3 2F.7 ....
....|..|C-4 RF.A ....|--- .... ....|--- .... ....
....|..|B-8 JF.F ....|--- .... ....|--- .... ....
....|..|B-4 2F.7 ....|--- .... ....|--- .... ....
 E-4|..|E-4 2C.F ....|--- .... ....|--- .... ....
....|..|B-8 JF.A ....|R-- .... ....|R-- .... ....

[Pattern45]
 E-4|..|C-4 RF.F ....|E-3 2F.F ....|E-3 2C.F ....
....|..|G-4 2F.A ....|--- .... ....|--- .... ....
....|..|B-8 JF.7 ....|R-- .... ....|R-- .... ....
....|..|C-4 RF.A ....|E-3 2F.A ....|E-3 2F.A ....
 E-4|..|B-8 JF.F ....|E-3 2F.F ....|E-3 2C.F ....
....|..|G-4 2F.7 ....|R-- .... ....|R-- .... ....
 C-3|..|C-4 2C.F ....|E-3 2F.7 ....|E-3 2F.7 ....
....|..|B-8 JF.A ....|E-3 2F.A ....|E-3 2F.A ....
....|..|C-4 RF.F ....|--- .... ....|--- .... ....
....|..|C-5 2F.A ....|R-- .... ....|R-- .... ....
....|..|B-8 JF.7 ....|E-3 2F.7 ....|E-3 2F.7 ....
....|..|C-4 RF.A ....|--- .... ....|--- .... ....
 E-4|..|B-8 JF.F ....|E-3 2F.F ....|E-3 2C.F ....
....|..|C-5 2F.7 ....|R-- .... ....|R-- .... ....
 E-4|..|E-4 2C.F ....|--- .... ....|--- .... ....
....|..|B-8 JF.A ....|E-3 2F.A ....|E-3 2F.A ....
....|..|C-4 RF.F ....|R-- .... ....|R-- .... ....
....|..|B-4 2F.A ....|--- .... ....|--- .... ....
....|..|B-8 JF.7 ....|E-3 2F.7 ....|E-3 2F.7 ....
....|..|C-4 RF.A ....|--- .... ....|--- .... ....
 E-4|..|B-8 JF.F ....|E-3 2F.F ....|E-3 2C.F ....
....|..|B-4 2F.7 ....|R-- .... ....|R-- .... ....
....|..|C-4 RF.7 ....|--- .... ....|--- .... ....
 G-4|..|G-4 2C.F ....|E-3 2F.A ....|E-3 2F.A ....
....|..|C-4 RF.F ....|R-- .... ....|R-- .... ....
....|..|G-4 2F.7 ....|--- .... ....|--- .... ....
....|..|B-8 JF.7 ....|E-3 2F.7 ....|E-3 2F.7 ....
 G-4|..|G-4 2C.F ....|--- .... ....|--- .... ....
....|..|B-8 JF.F ....|--- .... ....|--- .... ....
 A-3|..|A-3 2C.F ....|R-- .... ....|R-- .... ....
....|..|C-4 RF.7 ....|--- .... ....|--- .... ....
....|..|B-8 JF.A ....|--- .... ....|--- .... ....
 G-4|..|C-4 RF.F ....|G-3 2F.F ....|G-3 2C.F ....
....|..|G-4 2F.7 ....|--- .... ....|--- .... ....
....|..|B-8 JF.7 ....|--- .... ....|--- .... ....
....|..|C-4 RF.A ....|G-3 2F.A ....|G-3 2F.A ....
....|..|B-8 JF.F ....|--- .... ....|--- .... ....
....|..|G-4 2F.7 ....|--- .... ....|--- .... ....
....|..|C-4 RF.7 ....|G-3 2F.7 ....|G-3 2F.7 ....
 E-4|..|E-2 2A.F ....|--- .... ....|--- .... ....
 E-4|..|C-4 RF.F ....|E-3 2F.F ....|E-3 2C.F ....
....|..|E-2 2F.7 ....|R-- .... ....|R-- .... ....
....|..|B-8 JF.7 ....|--- .... ....|--- .... ....
....|..|C-4 RF.A ....|E-3 2F.A ....|E-3 2F.A ....
 E-4|..|B-8 JF.F ....|E-3 2F.F ....|E-3 2C.F ....
....|..|E-3 2F.7 ....|--- .... ....|--- .... ....
 E-4|..|E-4 2C.F ....|E-3 2F.7 ....|E-3 2F.7 ....
 E-4|..|E-2 2A.F ....|E-3 2F.A ....|E-3 2F.A ....
....|..|C-4 RF.F ....|--- .... ....|--- .... ....
 B-4|..|B-4 2C.F ....|R-- .... ....|R-- .... ....
....|..|B-8 JF.7 ....|E-3 2F.7 ....|E-3 2F.7 ....
....|..|C-4 RF.A ....|--- .... ....|--- .... ....
 E-4|..|B-8 JF.F ....|E-3 2F.F ....|E-3 2C.F ....
....|..|C-5 2F.7 ....|R-- .... ....|R-- .... ....
 D-4|..|D-4 2C.F ....|--- .... ....|--- .F.. ....
 E-4|..|E-2 2A.F ....|E-3 2F.A ....|E-3 2F.A ....
....|..|C-4 RF.F ....|R-- .... ....|R-- .... ....
 G-4|..|G-4 2C.F ....|--- .... ....|--- .... ....
....|..|B-8 JF.7 ....|E-3 2F.7 ....|E-3 2F.7 ....
....|..|C-4 RF.A ....|--- .... ....|--- .... ....
 E-4|..|B-8 JF.F ....|E-3 2F.F ....|E-3 2C.F ....
....|..|B-4 2F.7 ....|R-- .... ....|R-- .... ....
 E-4|..|E-4 2C.F ....|--- .... ....|--- .... ....
....|..|B-8 JF.A ....|E-3 2F.A ....|E-3 2F.A ....

[Pattern46]
....|..|C-4 RF.F ....|R-- .... ....|R-- .... ....
....|..|G-4 2F.A ....|--- .... ....|--- .... ....
....|..|B-8 JF.7 ....|E-3 2F.7 ....|E-3 2F.7 ....
....|..|C-4 RF.A ....|R-- .... ....|R-- .... ....
 E-4|..|B-8 JF.F ....|E-3 2F.F ....|E-3 2C.F ....
....|..|G-4 2F.7 ....|--- .... ....|--- .... ....
 C-3|..|C-4 2C.F ....|R-- .... ....|R-- .... ....
....|..|B-8 JF.A ....|E-3 2F.A ....|E-3 2F.A ....
....|..|C-4 RF.F ....|--- .... ....|--- .... ....
....|..|C-5 2F.A ....|R-- .... ....|R-- .... ....
....|..|B-8 JF.7 ....|E-3 2F.7 ....|E-3 2F.7 ....
....|..|C-4 RF.A ....|--- .... ....|--- .... ....
 E-4|..|B-8 JF.F ....|E-3 2F.F ....|E-3 2C.F ....
....|..|C-5 2F.7 ....|R-- .... ....|R-- .... ....
 E-4|..|E-4 2C.F ....|--- .... ....|--- .... ....
....|..|B-8 JF.A ....|E-3 2F.A ....|E-3 2F.A ....
....|..|C-4 RF.F ....|R-- .... ....|R-- .... ....
....|..|B-4 2F.A ....|--- .... ....|--- .... ....
....|..|B-8 JF.7 ....|E-3 2F.7 ....|E-3 2F.7 ....
....|..|C-4 RF.A ....|--- .... ....|--- .... ....
 F-4|..|B-8 JF.F ....|F-3 2F.F ....|F-3 2C.F ....
....|..|B-4 2F.7 ....|R-- .... ....|R-- .... ....
....|..|C-4 RF.7 ....|--- .... ....|--- .... ....
 G-4|..|G-4 2C.F ....|F-3 2F.A ....|F-3 2F.A ....
 E-4|..|C-4 RF.F ....|E-3 2F.F ....|E-3 2C.F ....
....|..|G-4 2F.7 ....|--- .... ....|--- .... ....
....|..|R-- .... ....|F-3 2F.7 ....|F-3 2F.7 ....
 G-4|..|G-4 2C.F ....|E-3 2F.A ....|E-3 2F.A ....
....|..|B-8 JF.F ....|--- .... ....|--- .... ....
 E-4|..|E-3 2C.F ....|R-- .... ....|R-- .... ....
....|..|C-4 RF.7 ....|E-3 2F.7 ....|E-3 2F.7 ....
....|..|B-8 JF.A ....|--- .... ....|--- .... ....
....|..|C-4 RF.F ....|--- .... ....|--- .... ....
....|..|G-4 2F.7 ....|R-- .... ....|R-- .... ....
....|..|B-8 JF.7 ....|--- .... ....|--- .... ....
....|..|C-4 RF.A ....|--- .... ....|--- .... ....
....|..|B-8 JF.F ....|R-- .... ....|R-- .... ....
....|..|G-4 2F.7 ....|--- .... ....|--- .... ....
....|..|C-4 RF.7 ....|--- .... ....|--- .... ....
 A-3|..|A-2 2C.F ....|--- .... ....|--- .... ....
....|..|C-4 RF.F ....|--- .... ....|--- .... ....
....|..|A-2 2F.7 ....|--- .... ....|--- .... ....
....|..|B-8 JF.7 ....|--- .... ....|--- .... ....
....|..|C-4 RF.A ....|--- .... ....|--- .... ....
....|..|B-8 JF.F ....|--- .... ....|--- .... ....
....|..|A-3 2F.7 ....|--- .... ....|--- .... ....
 E-4|..|E-4 2C.F ....|--- .... ....|--- .... ....
 A-3|..|A-2 2C.F ....|--- .... ....|--- .... ....
....|..|C-4 RF.F ....|--- .... ....|--- .... ....
 B-4|..|B-4 2C.F ....|--- .... ....|--- .... ....
....|..|B-8 JF.7 ....|--- .... ....|--- .... ....
....|..|C-4 RF.A ....|--- .... ....|--- .... ....
....|..|B-8 JF.F ....|--- .... ....|--- .... ....
....|..|C-5 2F.7 ....|--- .... ....|--- .... ....
....|..|C-4 RF.7 ....|--- .... ....|--- .... ....
 B-4|..|B-4 2C.F ....|--- .... ....|--- .... ....
....|..|C-4 RF.F ....|--- .... ....|--- .... ....
....|..|B-4 2F.7 ....|--- .... ....|--- .... ....
....|..|B-8 JF.7 ....|--- .... ....|--- .... ....
....|..|C-4 RF.A ....|--- .... ....|--- .... ....
....|..|B-8 JF.F ....|--- .... ....|--- .... ....
....|..|B-4 2F.7 ....|--- .... ....|--- .... ....
....|..|C-4 RF.7 ....|--- .... ....|--- .... ....
 B-4|..|B-4 2C.F ....|--- .... ....|--- .... ....

[Pattern47]
....|..|C-4 RF.F ....|--- .... ....|--- .... ....
....|..|B-4 2F.7 ....|--- .... ....|--- .... ....
....|..|B-8 JF.7 ....|--- .... ....|--- .... ....
....|..|C-4 RF.A ....|--- .... ....|--- .... ....
....|..|B-8 JF.F ....|--- .... ....|--- .... ....
....|..|B-4 2F.7 ....|--- .... ....|--- .... ....
 C-3|..|C-4 2C.F ....|--- .... ....|--- .... ....
....|..|B-8 JF.A ....|--- .... ....|--- .... ....
....|..|C-4 RF.F ....|--- .... ....|--- .... ....
....|..|B-4 2F.A ....|--- .... ....|--- .... ....
....|..|B-8 JF.7 ....|--- .... ....|--- .... ....
....|..|C-4 RF.A ....|--- .... ....|--- .... ....
....|..|B-8 JF.F ....|--- .... ....|--- .... ....
....|..|B-4 2F.7 ....|--- .... ....|--- .... ....
 E-4|..|E-4 2C.F ....|--- .... ....|--- .... ....
....|..|B-8 JF.A ....|--- .... ....|--- .... ....
....|..|C-4 RF.F ....|--- .... ....|--- .... ....
....|..|A-4 2F.A ....|--- .... ....|--- .... ....
....|..|B-8 JF.7 ....|--- .... ....|--- .... ....
....|..|R-- .... ....|--- .... ....|--- .... ....
....|..|B-8 JF.F ....|--- .... ....|--- .... ....
....|..|A-4 2F.7 ....|--- .... ....|--- .... ....
 B-4|..|B-3 2C.F ....|--- .... ....|--- .... ....
....|..|B-8 JF.A ....|--- .... ....|--- .... ....
....|..|C-4 RF.F ....|--- .... ....|--- .... ....
....|..|B-4 2F.A ....|--- .... ....|--- .... ....
....|..|B-8 JF.7 ....|--- .... ....|--- .... ....
 C-3|..|C-5 2C.F ....|--- .... ....|--- .... ....
....|..|B-8 JF.F ....|--- .... ....|--- .... ....
....|..|B-4 2F.7 ....|--- .... ....|--- .... ....
 A-3|..|A-3 2C.F ....|--- .... ....|--- .... ....
....|..|B-8 JF.A ....|--- .... ....|--- .... ....
....|..|C-4 RF.F ....|--- .... ....|--- .... ....
....|..|C-5 2F.A ....|--- .... ....|--- .... ....
....|..|B-8 JF.7 ....|--- .... ....|--- .... ....
....|..|C-4 RF.A ....|--- .... ....|--- .... ....
....|..|B-8 JF.F ....|--- .... ....|--- .... ....
....|..|C-5 2F.7 ....|--- .... ....|--- .... ....
....|..|C-4 RF.7 ....|--- .... ....|--- .... ....
 A-3|..|A-2 2C.F ....|--- .... ....|--- .... ....
....|..|C-4 RF.F ....|--- .... ....|--- .... ....
....|..|A-2 2F.7 ....|--- .... ....|--- .... ....
....|..|B-8 JF.7 ....|--- .... ....|--- .... ....
....|..|C-4 RF.A ....|--- .... ....|--- .... ....
....|..|B-8 JF.F ....|--- .... ....|--- .... ....
....|..|A-3 2F.7 ....|--- .... ....|--- .... ....
 E-4|..|E-4 2C.F ....|--- .... ....|--- .... ....
 A-3|..|A-2 2C.F ....|--- .... ....|--- .... ....
....|..|C-4 RF.F ....|--- .... ....|--- .... ....
 B-4|..|B-4 2C.F ....|--- .... ....|--- .... ....
....|..|B-8 JF.7 ....|--- .... ....|--- .... ....
....|..|C-4 RF.A ....|--- .... ....|--- .... ....
....|..|B-8 JF.F ....|--- .... ....|--- .... ....
....|..|C-5 2F.7 ....|--- .... ....|--- .... ....
 D-4|..|D-4 2C.F ....|--- .... ....|--- .... ....
 A-3|..|A-2 2C.F ....|--- .... ....|--- .... ....
....|..|C-4 RF.F ....|--- .... ....|--- .... ....
 A-3|..|A-4 2C.F ....|--- .... ....|--- .... ....
....|..|B-8 JF.7 ....|--- .... ....|--- .... ....
....|..|C-4 RF.A ....|--- .... ....|--- .... ....
....|..|B-8 JF.F ....|--- .... ....|--- .... ....
....|..|B-4 2F.7 ....|--- .... ....|--- .... ....
 E-4|..|E-4 2C.F ....|--- .... ....|--- .... ....
....|..|B-8 JF.A ....|--- .... ....|--- .... ....

[Pattern48]
....|..|C-4 AF.F ....|--- .... ....|--- .... ....
....|..|A-4 2F.A ....|--- .... ....|--- .... ....
....|..|B-8 JF.7 ....|--- .... ....|--- .... ....
....|..|C-4 AF.A ....|--- .... ....|--- .... ....
....|..|C-4 AF.F ....|--- .... ....|--- .... ....
....|..|A-4 2F.7 ....|--- .... ....|--- .... ....
 C-3|..|C-4 2C.F ....|--- .... ....|--- .... ....
....|..|C-4 AF.A ....|--- .... ....|--- .... ....
....|..|C-4 AF.F ....|--- .... ....|--- .... ....
....|..|E-5 2F.A ....|--- .... ....|--- .... ....
....|..|C-4 AF.7 ....|--- .... ....|--- .... ....
....|..|C-4 AF.A ....|--- .... ....|--- .... ....
....|..|C-4 AF.F ....|--- .... ....|--- .... ....
....|..|E-5 2F.7 ....|--- .... ....|--- .... ....
 E-4|..|E-4 2C.F ....|--- .... ....|--- .... ....
....|..|C-4 AF.A ....|--- .... ....|--- .... ....
....|..|C-4 AF.F ....|--- .... ....|--- .... ....
....|..|A-4 2F.A ....|--- .... ....|--- .... ....
....|..|C-4 AF.7 ....|--- .... ....|--- .... ....
....|..|R-- .... ....|--- .... ....|--- .... ....
....|..|C-4 AF.F ....|--- .... ....|--- .... ....
....|..|A-4 2F.7 ....|--- .... ....|--- .... ....
 B-4|..|B-3 2C.F ....|--- .... ....|--- .... ....
....|..|C-4 AF.A ....|--- .... ....|--- .... ....
 A-3|..|C-4 AF.F ....|A-3 2F.F ....|A-3 2C.F ....
....|..|B-4 2F.A ....|--- .... ....|--- .... ....
....|..|C-4 AF.7 ....|--- .... ....|--- .... ....
 C-3|..|C-5 2C.F ....|A-3 2F.A ....|A-3 2F.A ....
 C-3|..|C-4 AF.F ....|C-4 2F.F ....|C-4 2C.F ....
....|..|B-4 2F.7 ....|--- .... ....|--- .... ....
 A-3|..|A-3 2C.F ....|A-3 2F.7 ....|A-3 2F.7 ....
....|..|C-4 AF.A ....|C-4 2F.A ....|C-4 2F.A ....
....|..|C-4 AF.F ....|F-5 2F.F ....|F-5 2F.F ....
....|..|C-5 2F.A ....|R-- .... ....|R-- .... ....
....|..|C-4 AF.7 ....|C-4 2F.7 ....|C-4 2F.7 ....
....|..|C-4 AF.F ....|F-5 2F.A ....|F-5 2F.A ....
....|..|C-4 AF.F ....|--- .... ....|--- .... ....
....|..|C-5 2F.7 ....|--- .... ....|--- .... ....
....|..|B-8 JF.F ....|F-5 2F.7 ....|F-5 2F.7 ....
....|..|C-4 LF.F ....|--- .... ....|--- .... ....
....|..|C-4 AF.F ....|--- .... ....|--- .... ....
....|..|C-4 AF.7 ....|--- .... ....|--- .... ....
....|..|C-4 AF.7 ....|--- .... ....|--- .... ....
....|..|C-4 AF.F ....|--- .... ....|--- .... ....
....|..|C-4 AF.F ....|--- .... ....|--- .... ....
....|..|C-4 AF.F ....|--- .... ....|--- .... ....
....|..|B-8 JF.F ....|--- .... ....|--- .... ....
....|..|C-4 LF.F ....|--- .... ....|--- .... ....
....|..|C-4 RF.F ....|--- .... ....|--- .... ....
....|..|E-4 2F.A ....|--- .... ....|--- .... ....
....|..|C-4 AF.7 ....|--- .... ....|--- .... ....
....|..|C-4 CF.F ....|--- .... ....|--- .... ....
....|..|C-4 CF.F ....|--- .... ....|--- .... ....
....|..|C-4 LF.7 ....|--- .... ....|--- .... ....
....|..|B-8 JF.F ....|--- .... ....|--- .... ....
....|..|C-4 LF.F ....|--- .... ....|--- .... ....
....|..|C-4 RF.F ....|--- .... ....|--- .... ....
....|..|C-4 CF.7 ....|--- .... ....|--- .... ....
....|..|C-4 RF.F ....|--- .... ....|--- .... ....
....|..|C-4 LF.F ....|--- .... ....|--- .... ....
....|..|C-4 CF.F ....|--- .... ....|--- .... ....
....|..|C-4 CF.F ....|--- .... ....|--- .... ....
....|..|C-4 RF.7 ....|--- .... ....|--- .... ....
 B-4|..|B-4 2C.F ....|--- .... ....|--- .... ....

[Pattern49]
....|..|C-4 AF.F ....|--- .... ....|--- .... ....
....|..|C-4 LF.7 ....|--- .... ....|--- .... ....
....|..|C-4 CF.7 ....|--- .... ....|--- .... ....
....|..|C-4 AF.F ....|--- .... ....|--- .... ....
....|..|C-4 AF.F ....|--- .... ....|--- .... ....
....|..|B-4 2F.7 ....|--- .... ....|--- .... ....
....|..|B-8 JF.F ....|--- .... ....|--- .... ....
....|..|C-4 LF.F ....|--- .... ....|--- .... ....
....|..|C-4 AF.F ....|--- .... ....|--- .... ....
....|..|C-4 2F.A ....|--- .... ....|--- .... ....
....|..|C-4 AF.7 ....|--- .... ....|--- .... ....
....|..|C-4 AF.F ....|--- .... ....|--- .... ....
....|..|C-4 AF.F ....|--- .... ....|--- .... ....
....|..|C-4 AF.F ....|--- .... ....|--- .... ....
....|..|B-8 JF.F ....|--- .... ....|--- .... ....
....|..|C-4 AF.A ....|--- .... ....|--- .... ....
....|..|C-4 RF.F ....|--- .... ....|--- .... ....
....|..|E-4 2F.A ....|--- .... ....|--- .... ....
....|..|C-4 AF.7 ....|--- .... ....|--- .... ....
....|..|C-4 CF.F ....|--- .... ....|--- .... ....
....|..|C-4 CF.F ....|--- .... ....|--- .... ....
....|..|A-4 2F.7 ....|--- .... ....|--- .... ....
....|..|B-8 JF.F ....|--- .... ....|--- .... ....
....|..|C-4 LF.F ....|--- .... ....|--- .... ....
....|..|C-4 RF.F ....|--- .... ....|--- .... ....
....|..|B-3 2F.A ....|--- .... ....|--- .... ....
....|..|R-- .... ....|R-- .... ....|R-- .... ....
....|..|C-4 LF.F ....|R-- .... ....|R-- .... ....
 B-4|..|C-4 CF.F ....|B-3 2F.F ....|B-3 2C.F ....
....|..|C-4 CF.F ....|R-- .... ....|R-- .... ....
 G-4|..|G-3 2C.F ....|R-- .... ....|R-- .... ....
....|..|C-4 CF.A ....|B-3 2F.A ....|B-3 2F.A ....
....|..|C-4 AF.F ....|E-5 2F.F ....|E-5 2F.F ....
....|..|C-4 LF.7 ....|R-- .... ....|R-- .... ....
....|..|C-4 CF.7 ....|B-3 2F.7 ....|B-3 2F.7 ....
....|..|C-4 LF.F ....|E-5 2F.A ....|E-5 2F.A ....
....|..|C-4 CF.F ....|--- .... ....|--- .... ....
....|..|C-5 2F.7 ....|--- .... ....|--- .... ....
....|..|C-4 AF.7 ....|E-5 2F.7 ....|E-5 2F.7 ....
....|..|C-4 LF.F ....|--- .... ....|--- .... ....
....|..|C-4 AF.F ....|--- .... ....|--- .... ....
....|..|C-4 LF.7 ....|--- .... ....|--- .... ....
....|..|C-4 CF.7 ....|--- .... ....|--- .... ....
....|..|C-4 AF.F ....|--- .... ....|--- .... ....
....|..|C-4 AF.F ....|--- .... ....|--- .... ....
....|..|C-4 AF.F ....|--- .... ....|--- .... ....
....|..|B-8 JF.F ....|--- .... ....|--- .... ....
 B-4|..|B-2 2A.F ....|--- .... ....|--- .... ....
....|..|C-4 RF.F ....|--- .... ....|--- .... ....
....|..|E-4 2F.A ....|--- .... ....|--- .... ....
....|..|C-4 AF.7 ....|--- .... ....|--- .... ....
....|..|C-4 CF.F ....|--- .... ....|--- .... ....
....|..|C-4 CF.F ....|--- .... ....|--- .... ....
....|..|C-5 2F.7 ....|--- .... ....|--- .... ....
....|..|B-8 JF.F ....|--- .... ....|--- .... ....
....|..|C-4 LF.F ....|--- .... ....|--- .... ....
....|..|C-4 RF.F ....|--- .... ....|--- .... ....
....|..|C-4 CF.7 ....|--- .... ....|--- .... ....
....|..|C-4 CF.7 ....|--- .... ....|--- .... ....
....|..|C-4 LF.F ....|--- .... ....|--- .... ....
....|..|C-4 CF.F ....|--- .... ....|--- .... ....
....|..|C-4 CF.F ....|--- .... ....|--- .... ....
....|..|C-4 RF.7 ....|--- .... ....|--- .... ....
 B-4|..|B-4 2C.F ....|--- .... ....|--- .... ....

[Pattern50]
....|..|C-4 AF.F ....|--- .... ....|--- .... ....
....|..|C-4 LF.7 ....|--- .... ....|--- .... ....
....|..|C-4 CF.7 ....|--- .... ....|--- .... ....
....|..|C-4 AF.F ....|--- .... ....|--- .... ....
....|..|C-4 AF.F ....|--- .... ....|--- .... ....
....|..|B-4 2F.7 ....|--- .... ....|--- .... ....
....|..|B-8 JF.F ....|--- .... ....|--- .... ....
....|..|C-4 LF.F ....|--- .... ....|--- .... ....
....|..|C-4 AF.F ....|--- .... ....|--- .... ....
....|..|C-4 2F.A ....|--- .... ....|--- .... ....
....|..|C-4 AF.7 ....|--- .... ....|--- .... ....
....|..|C-4 AF.F ....|--- .... ....|--- .... ....
....|..|C-4 AF.F ....|--- .... ....|--- .... ....
....|..|C-4 AF.F ....|--- .... ....|--- .... ....
....|..|B-8 JF.F ....|--- .... ....|--- .... ....
....|..|C-4 AF.A ....|--- .... ....|--- .... ....
....|..|C-4 RF.F ....|--- .... ....|--- .... ....
....|..|E-4 2F.A ....|--- .... ....|--- .... ....
....|..|C-4 AF.7 ....|--- .... ....|--- .... ....
....|..|C-4 CF.F ....|R-- .... ....|R-- .... ....
....|..|C-4 CF.F ....|--- .... ....|--- .... ....
....|..|A-4 2F.7 ....|--- .... ....|--- .... ....
....|..|B-8 JF.F ....|R-- .... ....|R-- .... ....
....|..|C-4 LF.F ....|--- .... ....|--- .... ....
 A-3|..|C-4 RF.F ....|A-3 2F.F ....|A-3 2C.F ....
....|..|B-3 2F.A ....|R-- .... ....|R-- .... ....
....|..|R-- .... ....|--- .... ....|--- .... ....
....|..|C-4 LF.F ....|A-3 2F.A ....|A-3 2F.A ....
 E-4|..|C-4 CF.F ....|E-4 2F.F ....|E-4 2C.F ....
....|..|C-4 CF.F ....|--- .... ....|--- .... ....
 C-3|..|C-4 2C.F ....|A-3 2F.7 ....|A-3 2F.7 ....
....|..|C-4 CF.A ....|E-4 2F.A ....|E-4 2F.A ....
....|..|C-4 AF.F ....|A-4 2F1F ....|A-4 2F1F ....
....|..|C-4 LF.7 ....|R-- .... ....|R-- .... ....
....|..|C-4 CF.7 ....|E-4 2F.7 ....|E-4 2F.7 ....
....|..|C-4 LF.F ....|A-4 2F1A ....|A-4 2F1A ....
....|..|C-4 CF.F ....|--- .... ....|--- .... ....
....|..|C-5 2F.7 ....|--- .... ....|--- .... ....
....|..|C-4 AF.7 ....|A-4 2F17 ....|A-4 2F17 ....
....|..|C-4 LF.F ....|--- .... ....|--- .... ....
....|..|C-4 AF.F ....|--- .... ....|--- .... ....
....|..|C-4 LF.7 ....|--- .... ....|--- .... ....
....|..|C-4 CF.7 ....|--- .... ....|--- .... ....
....|..|C-4 AF.F ....|--- .... ....|--- .... ....
....|..|C-4 AF.F ....|--- .... ....|--- .... ....
....|..|C-4 AF.F ....|--- .... ....|--- .... ....
....|..|B-8 JF.F ....|--- .... ....|--- .... ....
 A-3|..|A-2 2C.F ....|--- .... ....|--- .... ....
....|..|C-4 RF.F ....|--- .... ....|--- .... ....
....|..|E-4 2F.A ....|--- .... ....|--- .... ....
....|..|C-4 AF.7 ....|--- .... ....|--- .... ....
....|..|C-4 CF.F ....|--- .... ....|--- .... ....
....|..|C-4 CF.F ....|--- .... ....|--- .... ....
....|..|C-5 2F.7 ....|--- .... ....|--- .... ....
....|..|B-8 JF.F ....|--- .... ....|--- .... ....
....|..|C-4 LF.F ....|--- .... ....|--- .... ....
....|..|C-4 RF.F ....|--- .... ....|--- .... ....
....|..|D-4 2F.A ....|--- .... ....|--- .... ....
....|..|C-4 CF.7 ....|--- .... ....|--- .... ....
....|..|C-4 LF.F ....|--- .... ....|--- .... ....
....|..|C-4 CF.F ....|--- .... ....|--- .... ....
....|..|C-4 CF.F ....|--- .... ....|--- .... ....
 E-4|..|E-4 2C.F ....|--- .... ....|--- .... ....
....|..|C-4 CF.A ....|--- .... ....|--- .... ....

[Pattern51]
....|..|C-4 AF.F ....|--- .... ....|--- .... ....
....|..|E-4 2F.A ....|--- .... ....|--- .... ....
....|..|C-4 CF.7 ....|--- .... ....|--- .... ....
....|..|C-4 AF.F ....|--- .... ....|--- .... ....
....|..|C-4 AF.F ....|--- .... ....|--- .... ....
....|..|A-4 2F.7 ....|--- .... ....|--- .... ....
....|..|B-8 JF.F ....|--- .... ....|--- .... ....
....|..|C-4 LF.F ....|--- .... ....|--- .... ....
....|..|C-4 AF.F ....|--- .... ....|--- .... ....
....|..|C-4 2F.A ....|--- .... ....|--- .... ....
....|..|C-4 AF.7 ....|--- .... ....|--- .... ....
....|..|C-4 AF.F ....|--- .... ....|--- .... ....
....|..|C-4 AF.F ....|--- .... ....|--- .... ....
....|..|C-4 AF.F ....|--- .... ....|--- .... ....
....|..|B-8 JF.F ....|--- .... ....|--- .... ....
....|..|C-4 AF.A ....|--- .... ....|--- .... ....
....|..|C-4 RF.F ....|--- .... ....|--- .... ....
....|..|E-4 2F.A ....|--- .... ....|--- .... ....
....|..|C-4 AF.7 ....|--- .... ....|--- .... ....
....|..|C-4 CF.F ....|--- .... ....|--- .... ....
....|..|C-4 CF.F ....|--- .... ....|--- .... ....
....|..|C-5 2F.7 ....|--- .... ....|--- .... ....
....|..|B-8 JF.F ....|--- .... ....|--- .... ....
....|..|C-4 LF.F ....|--- .... ....|--- .... ....
....|..|C-4 RF.F ....|--- .... ....|--- .... ....
....|..|B-3 2F.A ....|--- .... ....|--- .... ....
....|..|C-4 CF.7 ....|--- .... ....|--- .... ....
....|..|C-4 LF.F ....|--- .... ....|--- .... ....
....|..|C-4 CF.F ....|--- .... ....|--- .... ....
....|..|C-4 CF.F ....|--- .... ....|--- .... ....
 A-3|..|A-3 2C.F ....|--- .... ....|--- .... ....
....|..|C-4 CF.A ....|--- .... ....|--- .... ....
....|..|C-4 AF.F ....|--- .... ....|--- .... ....
....|..|R-- .... ....|--- .... ....|--- .... ....
....|..|C-4 CF.7 ....|--- .... ....|--- .... ....
....|..|C-4 LF.F ....|--- .... ....|--- .... ....
....|..|C-4 CF.F ....|--- .... ....|--- .... ....
....|..|A-4 2F.7 ....|--- .... ....|--- .... ....
 A-3|..|A-3 2C.F ....|--- .... ....|--- .... ....
....|..|C-4 LF.F ....|--- .... ....|--- .... ....
....|..|C-4 AF.F ....|--- .... ....|--- .... ....
....|..|A-3 2F.A ....|--- .... ....|--- .... ....
....|..|C-4 CF.7 ....|--- .... ....|--- .... ....
....|..|C-4 AF.F ....|--- .... ....|--- .... ....
....|..|C-4 AF.F ....|--- .... ....|--- .... ....
....|..|C-4 AF.F ....|--- .... ....|--- .... ....
....|..|B-8 JF.F ....|--- .... ....|--- .... ....
 A-3|..|A-2 2C.F ....|--- .... ....|--- .... ....
....|..|C-4 RF.F ....|--- .... ....|--- .... ....
....|..|E-4 2F.A ....|--- .... ....|--- .... ....
....|..|C-4 AF.7 ....|--- .... ....|--- .... ....
....|..|C-4 CF.F ....|--- .... ....|--- .... ....
....|..|C-4 CF.F ....|--- .... ....|--- .... ....
....|..|C-5 2F.7 ....|--- .... ....|--- .... ....
....|..|B-8 JF.F ....|--- .... ....|--- .... ....
....|..|C-4 LF.F ....|--- .... ....|--- .... ....
....|..|C-4 RF.F ....|--- .... ....|--- .... ....
....|..|D-4 2F.A ....|--- .... ....|--- .... ....
....|..|C-4 CF.7 ....|R-- .... ....|R-- .... ....
....|..|C-4 LF.F ....|--- .... ....|--- .... ....
....|..|C-4 CF.F ....|--- .... ....|--- .... ....
....|..|C-4 CF.F ....|R-- .... ....|R-- .... ....
 E-4|..|E-4 2C.F ....|--- .... ....|--- .... ....
....|..|C-4 CF.A ....|--- .... ....|--- .... ....

[Pattern52]
....|..|C-4 AF.F ....|R-- .... ....|R-- .... ....
....|..|E-4 2F.A ....|--- .... ....|--- .... ....
....|..|C-4 CF.7 ....|--- .... ....|--- .... ....
....|..|C-4 AF.F ....|--- .... ....|--- .... ....
....|..|C-4 AF.F ....|--- .... ....|--- .... ....
....|..|A-4 2F.7 ....|--- .... ....|--- .... ....
....|..|B-8 JF.F ....|--- .... ....|--- .... ....
....|..|C-4 LF.F ....|--- .... ....|--- .... ....
....|..|C-4 AF.F ....|--- .... ....|--- .... ....
....|..|C-4 2F.A ....|--- .... ....|--- .... ....
....|..|C-4 AF.7 ....|--- .... ....|--- .... ....
....|..|C-4 AF.F ....|--- .... ....|--- .... ....
....|..|C-4 AF.F ....|--- .... ....|--- .... ....
....|..|C-4 AF.F ....|--- .... ....|--- .... ....
....|..|B-8 JF.F ....|--- .... ....|--- .... ....
....|..|C-4 AF.A ....|--- .... ....|--- .... ....
....|..|C-4 RF.F ....|--- .... ....|--- .... ....
....|..|E-4 2F.A ....|--- .... ....|--- .... ....
....|..|C-4 AF.7 ....|--- .... ....|--- .... ....
....|..|C-4 CF.F ....|--- .... ....|--- .... ....
....|..|C-4 CF.F ....|--- .... ....|--- .... ....
....|..|C-5 2F.7 ....|--- .... ....|--- .... ....
....|..|B-8 JF.F ....|--- .... ....|--- .... ....
....|..|C-4 LF.F ....|--- .... ....|--- .... ....
 A-3|..|C-4 RF.F ....|A-3 2F.F ....|A-3 2C.F ....
....|..|B-3 2F.A ....|--- .... ....|--- .... ....
....|..|C-4 CF.7 ....|R-- .... ....|R-- .... ....
....|..|C-4 LF.F ....|A-3 2F.A ....|A-3 2F.A ....
 C-3|..|C-4 CF.F ....|C-4 2F.F ....|C-4 2C.F ....
....|..|C-4 CF.F ....|R-- .... ....|R-- .... ....
 A-3|..|A-3 2C.F ....|A-3 2F.7 ....|A-3 2F.7 ....
....|..|C-4 CF.A ....|C-4 2F.A ....|C-4 2F.A ....
....|..|C-4 AF.F ....|F-5 2F.F ....|F-5 2F.F ....
....|..|C-4 LF.7 ....|R-- .... ....|R-- .... ....
....|..|C-4 CF.7 ....|C-4 2F.7 ....|C-4 2F.7 ....
....|..|C-4 AF.F ....|F-5 2F.A ....|F-5 2F.A ....
....|..|C-4 AF.F ....|--- .... ....|--- .... ....
....|..|A-4 2F.7 ....|--- .... ....|--- .... ....
....|..|B-8 JF.F ....|F-5 2F.7 ....|F-5 2F.7 ....
....|..|C-4 LF.F ....|--- .... ....|--- .... ....
....|..|C-4 AF.F ....|--- .... ....|--- .... ....
....|..|C-4 AF.7 ....|--- .... ....|--- .... ....
....|..|C-4 AF.7 ....|--- .... ....|--- .... ....
....|..|C-4 AF.F ....|--- .... ....|--- .... ....
....|..|C-4 AF.F ....|--- .... ....|--- .... ....
....|..|C-4 AF.F ....|--- .... ....|--- .... ....
....|..|B-8 JF.F ....|--- .... ....|--- .... ....
 C-3|..|C-3 2C.F ....|--- .... ....|--- .... ....
....|..|C-4 RF.F ....|--- .... ....|--- .... ....
....|..|E-4 2F.A ....|--- .... ....|--- .... ....
....|..|C-4 AF.7 ....|--- .... ....|--- .... ....
....|..|C-4 CF.F ....|--- .... ....|--- .... ....
....|..|C-4 CF.F ....|--- .... ....|--- .... ....
....|..|C-5 2F.7 ....|--- .... ....|--- .... ....
....|..|B-8 JF.F ....|--- .... ....|--- .... ....
....|..|C-4 LF.F ....|--- .... ....|--- .... ....
....|..|C-4 RF.F ....|--- .... ....|--- .... ....
....|..|D-4 2F.A ....|--- .... ....|--- .... ....
....|..|C-4 CF.7 ....|--- .... ....|--- .... ....
....|..|C-4 LF.F ....|--- .... ....|--- .... ....
....|..|C-4 CF.F ....|--- .... ....|--- .... ....
....|..|C-4 CF.F ....|--- .... ....|--- .... ....
 E-4|..|E-4 2C.F ....|--- .... ....|--- .... ....
....|..|C-4 CF.A ....|--- .... ....|--- .... ....

[Pattern53]
....|..|C-4 AF.F ....|--- .... ....|--- .... ....
....|..|E-4 2F.A ....|--- .... ....|--- .... ....
....|..|C-4 CF.7 ....|--- .... ....|--- .... ....
....|..|C-4 AF.F ....|--- .... ....|--- .... ....
....|..|C-4 AF.F ....|--- .... ....|--- .... ....
....|..|A-4 2F.7 ....|--- .... ....|--- .... ....
....|..|B-8 JF.F ....|--- .... ....|--- .... ....
....|..|C-4 LF.F ....|--- .... ....|--- .... ....
....|..|C-4 AF.F ....|--- .... ....|--- .... ....
....|..|C-4 2F.A ....|--- .... ....|--- .... ....
....|..|C-4 AF.7 ....|--- .... ....|--- .... ....
....|..|C-4 AF.F ....|--- .... ....|--- .... ....
....|..|C-4 AF.F ....|--- .... ....|--- .... ....
....|..|C-4 AF.F ....|--- .... ....|--- .... ....
....|..|B-8 JF.F ....|--- .... ....|--- .... ....
....|..|C-4 AF.A ....|--- .... ....|--- .... ....
....|..|C-4 RF.F ....|--- .... ....|--- .... ....
....|..|E-4 2F.A ....|--- .... ....|--- .... ....
....|..|C-4 AF.7 ....|--- .... ....|--- .... ....
....|..|C-4 CF.F ....|--- .... ....|--- .... ....
....|..|C-4 CF.F ....|--- .... ....|--- .... ....
....|..|A-4 2F.7 ....|--- .... ....|--- .... ....
....|..|B-8 JF.F ....|--- .... ....|--- .... ....
....|..|C-4 LF.F ....|--- .... ....|--- .... ....
....|..|C-4 RF.F ....|--- .... ....|--- .... ....
....|..|B-3 2F.A ....|--- .... ....|--- .... ....
....|..|R-- .... ....|R-- .... ....|R-- .... ....
....|..|C-4 LF.F ....|R-- .... ....|R-- .... ....
 B-4|..|C-4 CF.F ....|B-3 2F.F ....|B-3 2C.F ....
....|..|C-4 CF.F ....|R-- .... ....|R-- .... ....
 G-4|..|G-3 2C.F ....|R-- .... ....|R-- .... ....
....|..|C-4 CF.A ....|B-3 2F.A ....|B-3 2F.A ....
....|..|C-4 AF.F ....|E-5 2F.F ....|E-5 2F.F ....
....|..|C-4 LF.7 ....|R-- .... ....|R-- .... ....
....|..|C-4 CF.7 ....|B-3 2F.7 ....|B-3 2F.7 ....
....|..|C-4 LF.F ....|E-5 2F.A ....|E-5 2F.A ....
....|..|C-4 CF.F ....|--- .... ....|--- .... ....
....|..|C-5 2F.7 ....|--- .... ....|--- .... ....
....|..|C-4 AF.7 ....|E-5 2F.7 ....|E-5 2F.7 ....
....|..|C-4 LF.F ....|--- .... ....|--- .... ....
....|..|C-4 AF.F ....|--- .... ....|--- .... ....
....|..|C-4 LF.7 ....|--- .... ....|--- .... ....
....|..|C-4 CF.7 ....|--- .... ....|--- .... ....
....|..|C-4 AF.F ....|--- .... ....|--- .... ....
....|..|C-4 AF.F ....|--- .... ....|--- .... ....
....|..|C-4 AF.F ....|--- .... ....|--- .... ....
....|..|B-8 JF.F ....|--- .... ....|--- .... ....
 B-4|..|B-2 2A.F ....|--- .... ....|--- .... ....
....|..|C-4 RF.F ....|--- .... ....|--- .... ....
....|..|E-4 2F.A ....|--- .... ....|--- .... ....
....|..|C-4 AF.7 ....|--- .... ....|--- .... ....
....|..|C-4 CF.F ....|--- .... ....|--- .... ....
....|..|C-4 CF.F ....|--- .... ....|--- .... ....
....|..|C-5 2F.7 ....|--- .... ....|--- .... ....
....|..|B-8 JF.F ....|--- .... ....|--- .... ....
....|..|C-4 LF.F ....|--- .... ....|--- .... ....
....|..|C-4 RF.F ....|--- .... ....|--- .... ....
....|..|D-4 2F.A ....|--- .... ....|--- .... ....
....|..|C-4 CF.7 ....|--- .... ....|--- .... ....
....|..|C-4 LF.F ....|--- .... ....|--- .... ....
....|..|C-4 CF.F ....|--- .... ....|--- .... ....
....|..|C-4 CF.F ....|--- .... ....|--- .... ....
 E-4|..|E-4 2C.F ....|--- .... ....|--- .... ....
....|..|C-4 CF.A ....|--- .... ....|--- .... ....

[Pattern54]
....|..|C-4 AF.F ....|--- .... ....|--- .... ....
....|..|E-4 2F.A ....|--- .... ....|--- .... ....
....|..|C-4 CF.7 ....|--- .... ....|--- .... ....
....|..|C-4 AF.F ....|--- .... ....|--- .... ....
....|..|C-4 AF.F ....|--- .... ....|--- .... ....
....|..|A-4 2F.7 ....|--- .... ....|--- .... ....
....|..|B-8 JF.F ....|--- .... ....|--- .... ....
....|..|C-4 LF.F ....|--- .... ....|--- .... ....
....|..|C-4 AF.F ....|--- .... ....|--- .... ....
....|..|C-4 2F.A ....|--- .... ....|--- .... ....
....|..|C-4 AF.7 ....|--- .... ....|--- .... ....
....|..|C-4 AF.F ....|--- .... ....|--- .... ....
....|..|C-4 AF.F ....|--- .... ....|--- .... ....
....|..|C-4 AF.F ....|--- .... ....|--- .... ....
....|..|B-8 JF.F ....|--- .... ....|--- .... ....
....|..|C-4 AF.A ....|--- .... ....|--- .... ....
....|..|C-4 RF.F ....|--- .... ....|--- .... ....
....|..|E-4 2F.A ....|--- .... ....|--- .... ....
....|..|C-4 AF.7 ....|--- .... ....|--- .... ....
....|..|C-4 CF.F ....|R-- .... ....|R-- .... ....
....|..|C-4 CF.F ....|--- .... ....|--- .... ....
....|..|A-4 2F.7 ....|--- .... ....|--- .... ....
....|..|B-8 JF.F ....|R-- .... ....|R-- .... ....
....|..|C-4 LF.F ....|--- .... ....|--- .... ....
 A-3|..|C-4 RF.F ....|A-3 2F.F ....|A-3 2C.F ....
....|..|B-3 2F.A ....|R-- .... ....|R-- .... ....
....|..|R-- .... ....|--- .... ....|--- .... ....
....|..|C-4 LF.F ....|A-3 2F.A ....|A-3 2F.A ....
 A-3|..|B-8 JF.F ....|A-3 2F.F ....|A-3 2C.F ....
....|..|B-8 JF.F ....|--- .... ....|--- .... ....
 C-3|..|C-4 2C.F ....|A-3 2F.7 ....|A-3 2F.7 ....
....|..|B-8 JF.A ....|A-3 2F.A ....|A-3 2F.A ....
....|..|C-4 AF.F ....|A-4 2F1F ....|A-4 2F1F ....
....|..|C-4 LF.7 ....|R-- .... ....|R-- .... ....
....|..|B-8 JF.7 ....|A-3 2F.7 ....|A-3 2F.7 ....
....|..|C-4 LF.F ....|A-4 2F1A ....|A-4 2F1A ....
....|..|C-4 CF.F ....|--- .... ....|--- .... ....
....|..|C-5 2F.7 ....|--- .... ....|--- .... ....
....|..|C-4 AF.7 ....|A-4 2F17 ....|A-4 2F17 ....
....|..|C-4 LF.F ....|--- .... ....|--- .... ....
....|..|C-4 AF.F ....|--- .... ....|--- .... ....
....|..|C-4 LF.7 ....|--- .... ....|--- .... ....
....|..|C-4 CF.7 ....|--- .... ....|--- .... ....
....|..|C-4 AF.F ....|--- .... ....|--- .... ....
....|..|C-4 AF.F ....|--- .... ....|--- .... ....
....|..|C-4 AF.F ....|--- .... ....|--- .... ....
....|..|B-8 JF.F ....|--- .... ....|--- .... ....
 A-3|..|A-2 2C.F ....|--- .... ....|--- .... ....
....|..|C-4 RF.F ....|--- .... ....|--- .... ....
....|..|E-4 2F.A ....|--- .... ....|--- .... ....
....|..|C-4 AF.7 ....|--- .... ....|--- .... ....
....|..|C-4 CF.F ....|--- .... ....|--- .... ....
....|..|C-4 CF.F ....|--- .... ....|--- .... ....
....|..|C-5 2F.7 ....|--- .... ....|--- .... ....
....|..|B-8 JF.F ....|--- .... ....|--- .... ....
....|..|C-4 LF.F ....|--- .... ....|--- .... ....
....|..|C-4 RF.F ....|--- .... ....|--- .... ....
....|..|D-4 2F.A ....|--- .... ....|--- .... ....
....|..|C-4 CF.7 ....|R-- .... ....|R-- .... ....
....|..|C-4 LF.F ....|--- .... ....|--- .... ....
....|..|C-4 CF.F ....|--- .... ....|--- .... ....
....|..|C-4 CF.F ....|R-- .... ....|R-- .... ....
 E-4|..|E-4 2C.F ....|--- .... ....|--- .... ....
....|..|C-4 CF.A ....|--- .... ....|--- .... ....

[Pattern55]
....|..|C-4 AF.F ....|R-- .... ....|R-- .... ....
....|..|E-4 2F.A ....|--- .... ....|--- .... ....
....|..|C-4 CF.7 ....|--- .... ....|--- .... ....
....|..|C-4 AF.F ....|--- .... ....|--- .... ....
....|..|C-4 AF.F ....|--- .... ....|--- .... ....
....|..|A-4 2F.7 ....|--- .... ....|--- .... ....
....|..|B-8 JF.F ....|--- .... ....|--- .... ....
....|..|C-4 LF.F ....|--- .... ....|--- .... ....
....|..|C-4 AF.F ....|--- .... ....|--- .... ....
....|..|C-4 2F.A ....|--- .... ....|--- .... ....
....|..|C-4 AF.7 ....|--- .... ....|--- .... ....
....|..|C-4 AF.F ....|--- .... ....|--- .... ....
....|..|C-4 AF.F ....|--- .... ....|--- .... ....
....|..|C-4 AF.F ....|--- .... ....|--- .... ....
....|..|B-8 JF.F ....|--- .... ....|--- .... ....
....|..|C-4 AF.A ....|--- .... ....|--- .... ....
....|..|C-4 RF.F ....|--- .... ....|--- .... ....
....|..|E-4 2F.A ....|--- .... ....|--- .... ....
....|..|C-4 AF.7 ....|--- .... ....|--- .... ....
....|..|C-4 CF.F ....|--- .... ....|--- .... ....
....|..|C-4 CF.F ....|--- .... ....|--- .... ....
....|..|C-5 2F.7 ....|--- .... ....|--- .... ....
....|..|B-8 JF.F ....|--- .... ....|--- .... ....
....|..|C-4 LF.F ....|--- .... ....|--- .... ....
....|..|C-4 RF.F ....|--- .... ....|--- .... ....
....|..|B-3 2F.A ....|--- .... ....|--- .... ....
....|..|C-4 CF.7 ....|--- .... ....|--- .... ....
....|..|C-4 LF.F ....|--- .... ....|--- .... ....
....|..|C-4 CF.F ....|--- .... ....|--- .... ....
....|..|C-4 CF.F ....|--- .... ....|--- .... ....
 A-3|..|A-3 2C.F ....|--- .... ....|--- .... ....
....|..|C-4 CF.A ....|--- .... ....|--- .... ....
....|..|C-4 AF.F ....|--- .... ....|--- .... ....
....|..|R-- .... ....|--- .... ....|--- .... ....
....|..|C-4 CF.7 ....|--- .... ....|--- .... ....
....|..|C-4 LF.F ....|--- .... ....|--- .... ....
....|..|C-4 CF.F ....|--- .... ....|--- .... ....
....|..|A-4 2F.7 ....|--- .... ....|--- .... ....
....|..|C-4 AF.7 ....|--- .... ....|--- .... ....
....|..|C-4 LF.F ....|--- .... ....|--- .... ....
....|..|C-4 AF.F ....|--- .... ....|--- .... ....
....|..|C-4 LF.7 ....|--- .... ....|--- .... ....
....|..|C-4 CF.7 ....|--- .... ....|--- .... ....
....|..|C-4 AF.F ....|--- .... ....|--- .... ....
....|..|C-4 AF.F ....|--- .... ....|--- .... ....
....|..|C-4 AF.F ....|--- .... ....|--- .... ....
....|..|B-8 JF.F ....|--- .... ....|--- .... ....
 A-3|..|A-2 2C.F ....|--- .... ....|--- .... ....
....|..|C-4 RF.F ....|--- .... ....|--- .... ....
....|..|E-4 2F.A ....|--- .... ....|--- .... ....
....|..|C-4 AF.7 ....|--- .... ....|--- .... ....
....|..|C-4 CF.F ....|--- .... ....|--- .... ....
....|..|C-4 CF.F ....|--- .... ....|--- .... ....
....|..|C-5 2F.7 ....|--- .... ....|--- .... ....
....|..|B-8 JF.F ....|--- .... ....|--- .... ....
....|..|C-4 LF.F ....|--- .... ....|--- .... ....
....|..|C-4 RF.F ....|--- .... ....|--- .... ....
....|..|D-4 2F.A ....|--- .... ....|--- .... ....
....|..|C-4 CF.7 ....|--- .... ....|--- .... ....
....|..|C-4 LF.F ....|--- .... ....|--- .... ....
....|..|C-4 CF.F ....|--- .... ....|--- .... ....
....|..|C-4 CF.F ....|--- .... ....|--- .... ....
 E-4|..|E-4 2C.F ....|--- .... ....|--- .... ....
....|..|C-4 CF.A ....|--- .... ....|--- .... ....

[Pattern56]
....|..|C-4 AF.F ....|--- .... ....|--- .... ....
....|..|E-4 2F.A ....|--- .... ....|--- .... ....
....|..|C-4 CF.7 ....|--- .... ....|--- .... ....
....|..|C-4 LF.F ....|--- .... ....|--- .... ....
....|..|C-4 AF.F ....|--- .... ....|--- .... ....
....|..|A-4 2F.7 ....|--- .... ....|--- .... ....
 C-3|..|C-4 2C.F ....|--- .... ....|--- .... ....
....|..|C-4 LF.F ....|--- .... ....|--- .... ....
....|..|C-4 AF.F ....|--- .... ....|--- .... ....
....|..|C-4 2F.A ....|--- .... ....|--- .... ....
....|..|C-4 AF.7 ....|--- .... ....|--- .... ....
....|..|C-4 LF.F ....|--- .... ....|--- .... ....
....|..|C-4 AF.F ....|--- .... ....|--- .... ....
....|..|C-4 AF.F ....|--- .... ....|--- .... ....
 E-4|..|E-4 2C.F ....|--- .... ....|--- .... ....
....|..|C-4 AF.A ....|--- .... ....|--- .... ....
....|..|C-4 AF.F ....|--- .... ....|--- .... ....
....|..|E-4 2F.A ....|--- .... ....|--- .... ....
....|..|C-4 AF.7 ....|--- .... ....|--- .... ....
....|..|C-4 LF.F ....|--- .... ....|--- .... ....
....|..|C-4 AF.F ....|--- .... ....|--- .... ....
....|..|E-4 2F.7 ....|--- .... ....|--- .... ....
 B-4|..|B-3 2C.F ....|--- .... ....|--- .... ....
....|..|C-4 LF.F ....|--- .... ....|--- .... ....
....|..|C-4 AF.F ....|--- .... ....|--- .... ....
....|..|B-3 2F.A ....|--- .... ....|--- .... ....
....|..|C-4 AF.7 ....|R-- .... ....|R-- .... ....
....|..|C-4 LF.F ....|--- .... ....|--- .... ....
....|..|C-4 AF.F ....|--- .... ....|--- .... ....
....|..|C-4 AF.F ....|R-- .... ....|R-- .... ....
 A-3|..|A-3 2C.F ....|--- .... ....|--- .... ....
....|..|C-4 AF.A ....|--- .... ....|--- .... ....
 C-3|..|C-4 AF.F ....|C-4 2F.F ....|C-4 2C.F ....
....|..|C-4 LF.7 ....|--- .... ....|F-5 2F.F ....
....|..|C-4 AF.7 ....|--- .... ....|--- .... ....
....|..|C-4 AF.F ....|C-4 2F.A ....|C-4 2F.A ....
....|..|C-4 AF.F ....|--- .... ....|F-5 2F.A ....
....|..|A-4 2F.7 ....|--- .... ....|--- .... ....
....|..|B-8 JF.F ....|C-4 2F.7 ....|C-4 2F.7 ....
....|..|C-4 LF.F ....|--- .... ....|F-5 2F.7 ....
....|..|C-4 AF.F ....|--- .... ....|--- .... ....
....|..|R-- .... ....|--- .... ....|--- .... ....
....|..|C-4 AF.7 ....|--- .... ....|--- .... ....
....|..|C-4 AF.F ....|--- .... ....|--- .... ....
....|..|C-4 AF.F ....|--- .... ....|--- .... ....
....|..|C-4 AF.F ....|--- .... ....|--- .... ....
....|..|B-8 JF.F ....|--- .... ....|--- .... ....
....|..|C-4 LF.F ....|--- .... ....|--- .... ....
....|..|C-4 RF.F ....|--- .... ....|--- .... ....
....|..|E-4 2F.A ....|--- .... ....|--- .... ....
....|..|C-4 AF.7 ....|--- .... ....|--- .... ....
....|..|C-4 CF.F ....|--- .... ....|--- .... ....
....|..|C-4 CF.F ....|--- .... ....|--- .... ....
....|..|C-4 LF.7 ....|--- .... ....|--- .... ....
....|..|B-8 JF.F ....|--- .... ....|--- .... ....
....|..|C-4 LF.F ....|--- .... ....|--- .... ....
....|..|C-4 RF.F ....|--- .... ....|--- .... ....
....|..|D-4 2F.A ....|--- .... ....|--- .... ....
....|..|C-4 RF.F ....|--- .... ....|--- .... ....
....|..|C-4 LF.F ....|--- .... ....|--- .... ....
....|..|C-4 CF.F ....|--- .... ....|--- .... ....
....|..|C-4 CF.F ....|--- .... ....|--- .... ....
 E-4|..|E-4 2C.F ....|--- .... ....|--- .... ....
....|..|C-4 CF.A ....|--- .... ....|--- .... ....

[Pattern57]
....|..|C-4 AF.F ....|--- .... ....|--- .... ....
....|..|E-4 2F.A ....|--- .... ....|--- .... ....
....|..|C-4 CF.7 ....|--- .... ....|--- .... ....
....|..|C-4 AF.F ....|--- .... ....|--- .... ....
....|..|C-4 AF.F ....|--- .... ....|--- .... ....
....|..|A-4 2F.7 ....|--- .... ....|--- .... ....
....|..|B-8 JF.F ....|--- .... ....|--- .... ....
....|..|C-4 LF.F ....|--- .... ....|--- .... ....
....|..|C-4 AF.F ....|--- .... ....|--- .... ....
....|..|C-4 2F.A ....|--- .... ....|--- .... ....
....|..|C-4 AF.7 ....|--- .... ....|--- .... ....
....|..|C-4 AF.F ....|--- .... ....|--- .... ....
....|..|C-4 AF.F ....|--- .... ....|--- .... ....
....|..|C-4 AF.F ....|--- .... ....|--- .... ....
....|..|B-8 JF.F ....|--- .... ....|--- .... ....
....|..|C-4 AF.A ....|--- .... ....|--- .... ....
....|..|C-4 RF.F ....|--- .... ....|--- .... ....
....|..|E-4 2F.A ....|--- .... ....|--- .... ....
....|..|C-4 AF.7 ....|--- .... ....|--- .... ....
....|..|C-4 CF.F ....|--- .... ....|--- .... ....
....|..|C-4 CF.F ....|--- .... ....|--- .... ....
....|..|A-4 2F.7 ....|--- .... ....|--- .... ....
....|..|B-8 JF.F ....|--- .... ....|--- .... ....
....|..|C-4 LF.F ....|--- .... ....|--- .... ....
....|..|C-4 RF.F ....|--- .... ....|--- .... ....
....|..|B-3 2F.A ....|--- .... ....|--- .... ....
....|..|C-4 CF.7 ....|R-- .... ....|R-- .... ....
....|..|C-4 LF.F ....|--- .... ....|--- .... ....
....|..|C-4 CF.F ....|--- .... ....|--- .... ....
....|..|C-4 CF.F ....|R-- .... ....|R-- .... ....
 G-4|..|G-3 2C.F ....|--- .... ....|--- .... ....
....|..|C-4 CF.A ....|--- .... ....|--- .... ....
 D-4|..|C-4 AF.F ....|D-4 2F.F ....|D-4 2C.F ....
....|..|C-4 LF.7 ....|--- .... ....|E-5 2F.F ....
....|..|C-4 CF.7 ....|--- .... ....|--- .... ....
....|..|C-4 LF.F ....|D-4 2F.A ....|D-4 2F.A ....
....|..|C-4 CF.F ....|--- .... ....|E-5 2F.A ....
....|..|C-5 2F.7 ....|--- .... ....|--- .... ....
....|..|C-4 AF.7 ....|D-4 2F.7 ....|D-4 2F.7 ....
....|..|C-4 LF.F ....|--- .... ....|E-5 2F.7 ....
....|..|C-4 AF.F ....|--- .... ....|--- .... ....
....|..|R-- .... ....|--- .... ....|--- .... ....
....|..|C-4 CF.7 ....|--- .... ....|--- .... ....
....|..|C-4 AF.F ....|--- .... ....|--- .... ....
....|..|C-4 AF.F ....|--- .... ....|--- .... ....
....|..|C-4 AF.F ....|--- .... ....|--- .... ....
....|..|B-8 JF.F ....|--- .... ....|--- .... ....
 B-4|..|B-2 2A.F ....|--- .... ....|--- .... ....
....|..|C-4 RF.F ....|--- .... ....|--- .... ....
....|..|E-4 2F.A ....|--- .... ....|--- .... ....
....|..|C-4 AF.7 ....|--- .... ....|--- .... ....
....|..|C-4 CF.F ....|--- .... ....|--- .... ....
....|..|C-4 CF.F ....|--- .... ....|--- .... ....
....|..|C-5 2F.7 ....|--- .... ....|--- .... ....
....|..|B-8 JF.F ....|--- .... ....|--- .... ....
....|..|C-4 LF.F ....|--- .... ....|--- .... ....
....|..|C-4 RF.F ....|--- .... ....|--- .... ....
....|..|D-4 2F.A ....|--- .... ....|--- .... ....
....|..|C-4 CF.7 ....|--- .... ....|--- .... ....
....|..|C-4 LF.F ....|--- .... ....|--- .... ....
....|..|C-4 CF.F ....|--- .... ....|--- .... ....
....|..|C-4 CF.F ....|--- .... ....|--- .... ....
 E-4|..|E-4 2C.F ....|--- .... ....|--- .... ....
....|..|C-4 CF.A ....|--- .... ....|--- .... ....

[Pattern58]
....|..|C-4 AF.F ....|--- .... ....|--- .... ....
....|..|E-4 2F.A ....|--- .... ....|--- .... ....
....|..|C-4 CF.7 ....|--- .... ....|--- .... ....
....|..|C-4 AF.F ....|--- .... ....|--- .... ....
....|..|C-4 AF.F ....|--- .... ....|--- .... ....
....|..|A-4 2F.7 ....|--- .... ....|--- .... ....
....|..|B-8 JF.F ....|--- .... ....|--- .... ....
....|..|C-4 LF.F ....|--- .... ....|--- .... ....
....|..|C-4 AF.F ....|--- .... ....|--- .... ....
....|..|C-4 2F.A ....|--- .... ....|--- .... ....
....|..|C-4 AF.7 ....|--- .... ....|--- .... ....
....|..|C-4 AF.F ....|--- .... ....|--- .... ....
....|..|C-4 AF.F ....|--- .... ....|--- .... ....
....|..|C-4 AF.F ....|--- .... ....|--- .... ....
....|..|B-8 JF.F ....|--- .... ....|--- .... ....
....|..|C-4 AF.A ....|--- .... ....|--- .... ....
....|..|C-4 RF.F ....|--- .... ....|--- .... ....
....|..|E-4 2F.A ....|--- .... ....|--- .... ....
....|..|C-4 AF.7 ....|--- .... ....|--- .... ....
....|..|C-4 CF.F ....|--- .... ....|--- .... ....
....|..|C-4 CF.F ....|--- .... ....|--- .... ....
....|..|A-4 2F.7 ....|--- .... ....|--- .... ....
....|..|B-8 JF.F ....|--- .... ....|--- .... ....
....|..|C-4 LF.F ....|--- .... ....|--- .... ....
....|..|C-4 RF.F ....|--- .... ....|--- .... ....
....|..|B-3 2F.A ....|--- .... ....|--- .... ....
....|..|C-4 CF.7 ....|R-- .... ....|R-- .... ....
....|..|C-4 LF.F ....|--- .... ....|--- .... ....
....|..|C-4 CF.F ....|--- .... ....|--- .... ....
....|..|C-4 CF.F ....|R-- .... ....|R-- .... ....
 C-3|..|C-4 2C.F ....|--- .... ....|--- .... ....
....|..|C-4 CF.A ....|--- .... ....|--- .... ....
 B-4|..|C-4 AF.F ....|B-3 2F.F ....|B-3 2C.F ....
....|..|R-- .... ....|--- .... ....|A-4 2F1F ....
....|..|C-4 CF.7 ....|--- .... ....|--- .... ....
....|..|C-4 LF.F ....|B-3 2F.A ....|B-3 2F.A ....
....|..|C-4 CF.F ....|--- .... ....|A-4 2F1A ....
....|..|C-5 2F.7 ....|--- .... ....|--- .... ....
....|..|C-4 AF.7 ....|B-3 2F.7 ....|B-3 2F.7 ....
....|..|C-4 LF.F ....|--- .... ....|A-4 2F17 ....
....|..|C-4 AF.F ....|--- .... ....|--- .... ....
....|..|R-- .... ....|--- .... ....|--- .... ....
....|..|C-4 CF.7 ....|--- .... ....|--- .... ....
....|..|C-4 AF.F ....|--- .... ....|--- .... ....
....|..|C-4 AF.F ....|--- .... ....|--- .... ....
....|..|C-4 AF.F ....|--- .... ....|--- .... ....
....|..|B-8 JF.F ....|--- .... ....|--- .... ....
 A-3|..|A-2 2C.F ....|--- .... ....|--- .... ....
....|..|C-4 RF.F ....|--- .... ....|--- .... ....
....|..|E-4 2F.A ....|--- .... ....|--- .... ....
....|..|C-4 AF.7 ....|--- .... ....|--- .... ....
....|..|C-4 CF.F ....|--- .... ....|--- .... ....
....|..|C-4 CF.F ....|--- .... ....|--- .... ....
....|..|C-5 2F.7 ....|--- .... ....|--- .... ....
....|..|B-8 JF.F ....|--- .... ....|--- .... ....
....|..|C-4 LF.F ....|--- .... ....|--- .... ....
....|..|C-4 RF.F ....|--- .... ....|--- .... ....
....|..|D-4 2F.A ....|--- .... ....|--- .... ....
....|..|C-4 CF.7 ....|--- .... ....|--- .... ....
....|..|C-4 LF.F ....|--- .... ....|--- .... ....
....|..|C-4 CF.F ....|--- .... ....|--- .... ....
....|..|C-4 CF.F ....|--- .... ....|--- .... ....
 E-4|..|E-4 2C.F ....|--- .... ....|--- .... ....
....|..|C-4 CF.A ....|--- .... ....|--- .... ....

[Pattern59]
....|..|C-4 AF.F ....|--- .... ....|--- .... ....
....|..|E-4 2F.A ....|--- .... ....|--- .... ....
....|..|C-4 CF.7 ....|--- .... ....|--- .... ....
....|..|C-4 AF.F ....|--- .... ....|--- .... ....
....|..|C-4 AF.F ....|--- .... ....|--- .... ....
....|..|A-4 2F.7 ....|--- .... ....|--- .... ....
....|..|B-8 JF.F ....|--- .... ....|--- .... ....
....|..|C-4 LF.F ....|--- .... ....|--- .... ....
....|..|C-4 AF.F ....|--- .... ....|--- .... ....
....|..|C-4 2F.A ....|--- .... ....|--- .... ....
....|..|C-4 AF.7 ....|--- .... ....|--- .... ....
....|..|C-4 AF.F ....|--- .... ....|--- .... ....
....|..|C-4 AF.F ....|--- .... ....|--- .... ....
....|..|C-4 AF.F ....|--- .... ....|--- .... ....
....|..|B-8 JF.F ....|--- .... ....|--- .... ....
....|..|C-4 AF.A ....|--- .... ....|--- .... ....
....|..|C-4 RF.F ....|--- .... ....|--- .... ....
....|..|E-4 2F.A ....|--- .... ....|--- .... ....
....|..|C-4 AF.7 ....|--- .... ....|--- .... ....
....|..|C-4 CF.F ....|--- .... ....|--- .... ....
....|..|C-4 CF.F ....|--- .... ....|--- .... ....
....|..|C-5 2F.7 ....|--- .... ....|--- .... ....
....|..|B-8 JF.F ....|--- .... ....|--- .... ....
....|..|C-4 LF.F ....|--- .... ....|--- .... ....
....|..|C-4 RF.F ....|--- .... ....|--- .... ....
....|..|B-3 2F.A ....|--- .... ....|--- .... ....
....|..|C-4 CF.7 ....|R-- .... ....|R-- .... ....
....|..|C-4 LF.F ....|--- .... ....|--- .... ....
....|..|C-4 CF.F ....|--- .... ....|--- .... ....
....|..|C-4 CF.F ....|R-- .... ....|R-- .... ....
 A-3|..|A-3 2C.F ....|--- .... ....|--- .... ....
....|..|C-4 CF.A ....|--- .... ....|--- .... ....
 A-3|..|C-4 AF.F ....|A-3 2F.F ....|A-3 2C.F ....
....|..|C-4 LF.7 ....|--- .... ....|--- .... ....
....|..|C-4 CF.7 ....|--- .... ....|--- .... ....
....|..|C-4 LF.F ....|A-3 2F.A ....|A-3 2F.A ....
....|..|C-4 CF.F ....|--- .... ....|--- .... ....
....|..|A-4 2F.7 ....|--- .... ....|--- .... ....
 A-3|..|A-3 2C.F ....|A-3 2F.7 ....|A-3 2F.7 ....
....|..|C-4 LF.F ....|--- .... ....|--- .... ....
....|..|C-4 AF.F ....|--- .... ....|--- .... ....
....|..|A-3 2F.A ....|--- .... ....|--- .... ....
....|..|C-4 CF.7 ....|--- .... ....|--- .... ....
....|..|C-4 AF.F ....|--- .... ....|--- .... ....
....|..|C-4 AF.F ....|--- .... ....|--- .... ....
....|..|C-4 AF.F ....|--- .... ....|--- .... ....
....|..|B-8 JF.F ....|--- .... ....|--- .... ....
 A-3|..|A-2 2C.F ....|--- .... ....|--- .... ....
....|..|C-4 RF.F ....|--- .... ....|--- .... ....
....|..|E-4 2F.A ....|--- .... ....|--- .... ....
....|..|C-4 AF.7 ....|--- .... ....|--- .... ....
....|..|C-4 CF.F ....|--- .... ....|--- .... ....
....|..|C-4 CF.F ....|--- .... ....|--- .... ....
....|..|C-5 2F.7 ....|--- .... ....|--- .... ....
....|..|B-8 JF.F ....|--- .... ....|--- .... ....
....|..|C-4 LF.F ....|--- .... ....|--- .... ....
....|..|C-4 RF.F ....|--- .... ....|--- .... ....
....|..|D-4 2F.A ....|--- .... ....|--- .... ....
....|..|C-4 CF.7 ....|--- .... ....|--- .... ....
....|..|C-4 LF.F ....|--- .... ....|--- .... ....
....|..|C-4 CF.F ....|--- .... ....|--- .... ....
....|..|C-4 CF.F ....|--- .... ....|--- .... ....
 E-4|..|E-4 2C.F ....|--- .... ....|--- .... ....
....|..|C-4 CF.A ....|--- .... ....|--- .... ....

[Pattern60]
....|..|C-4 AF.F ....|--- .... ....|--- .... ....
....|..|E-4 2F.A ....|--- .... ....|--- .... ....
....|..|C-4 CF.7 ....|--- .... ....|--- .... ....
....|..|C-4 AF.F ....|--- .... ....|--- .... ....
....|..|C-4 AF.F ....|--- .... ....|--- .... ....
....|..|A-4 2F.7 ....|--- .... ....|--- .... ....
....|..|B-8 JF.F ....|--- .... ....|--- .... ....
....|..|C-4 LF.F ....|--- .... ....|--- .... ....
....|..|C-4 AF.F ....|--- .... ....|--- .... ....
....|..|C-4 2F.A ....|--- .... ....|--- .... ....
....|..|C-4 AF.7 ....|--- .... ....|--- .... ....
....|..|C-4 AF.F ....|--- .... ....|--- .... ....
....|..|C-4 AF.F ....|--- .... ....|--- .... ....
....|..|C-4 AF.F ....|--- .... ....|--- .... ....
....|..|B-8 JF.F ....|--- .... ....|--- .... ....
....|..|C-4 AF.A ....|--- .... ....|--- .... ....
....|..|C-4 RF.F ....|--- .... ....|--- .... ....
....|..|E-4 2F.A ....|--- .... ....|--- .... ....
....|..|C-4 AF.7 ....|--- .... ....|--- .... ....
....|..|C-4 CF.F ....|--- .... ....|--- .... ....
....|..|C-4 CF.F ....|--- .... ....|--- .... ....
....|..|C-5 2F.7 ....|--- .... ....|--- .... ....
....|..|B-8 JF.F ....|--- .... ....|--- .... ....
....|..|C-4 LF.F ....|--- .... ....|--- .... ....
....|..|C-4 RF.F ....|--- .... ....|--- .... ....
....|..|B-3 2F.A ....|--- .... ....|--- .... ....
....|..|C-4 CF.7 ....|R-- .... ....|R-- .... ....
....|..|C-4 LF.F ....|--- .... ....|--- .... ....
....|..|C-4 CF.F ....|--- .... ....|--- .... ....
....|..|C-4 CF.F ....|R-- .... ....|R-- .... ....
 A-3|..|A-3 2C.F ....|--- .... ....|--- .... ....
....|..|C-4 CF.A ....|--- .... ....|--- .... ....
 C-3|..|C-4 AF.F ....|C-4 2F.F ....|C-4 2C.F ....
....|..|C-4 LF.7 ....|--- .... ....|F-5 2F.F ....
....|..|C-4 CF.7 ....|--- .... ....|--- .... ....
....|..|C-4 AF.F ....|C-4 2F.A ....|C-4 2F.A ....
....|..|C-4 AF.F ....|--- .... ....|F-5 2F.A ....
....|..|G-4 2F.7 ....|--- .... ....|--- .... ....
....|..|B-8 JF.F ....|C-4 2F.7 ....|C-4 2F.7 ....
....|..|C-4 LF.F ....|--- .... ....|F-5 2F.7 ....
....|..|C-4 AF.F ....|--- .... ....|--- .... ....
....|..|R-- .... ....|--- .... ....|--- .... ....
....|..|C-4 AF.7 ....|--- .... ....|--- .... ....
....|..|C-4 AF.F ....|--- .... ....|--- .... ....
....|..|C-4 AF.F ....|--- .... ....|--- .... ....
....|..|C-4 AF.F ....|--- .... ....|--- .... ....
....|..|B-8 JF.F ....|--- .... ....|--- .... ....
 C-3|..|C-3 2C.F ....|--- .... ....|--- .... ....
....|..|C-4 RF.F ....|--- .... ....|--- .... ....
....|..|E-4 2F.A ....|--- .... ....|--- .... ....
....|..|C-4 AF.7 ....|--- .... ....|--- .... ....
....|..|C-4 CF.F ....|--- .... ....|--- .... ....
....|..|C-4 CF.F ....|--- .... ....|--- .... ....
....|..|C-5 2F.7 ....|--- .... ....|--- .... ....
....|..|B-8 JF.F ....|--- .... ....|--- .... ....
....|..|C-4 LF.F ....|--- .... ....|--- .... ....
....|..|C-4 RF.F ....|--- .... ....|--- .... ....
....|..|D-4 2F.A ....|--- .... ....|--- .... ....
....|..|C-4 CF.7 ....|--- .... ....|--- .... ....
....|..|C-4 LF.F ....|--- .... ....|--- .... ....
....|..|C-4 CF.F ....|--- .... ....|--- .... ....
....|..|C-4 CF.F ....|--- .... ....|--- .... ....
 E-4|..|E-4 2C.F ....|--- .... ....|--- .... ....
....|..|C-4 CF.A ....|--- .... ....|--- .... ....

[Pattern62]
....|..|C-4 AF.F ....|--- .... ....|--- .... ....
....|..|E-4 2F.A ....|--- .... ....|--- .... ....
....|..|C-4 CF.7 ....|--- .... ....|--- .... ....
....|..|C-4 AF.F ....|--- .... ....|--- .... ....
....|..|C-4 AF.F ....|--- .... ....|--- .... ....
....|..|A-4 2F.7 ....|--- .... ....|--- .... ....
....|..|B-8 JF.F ....|--- .... ....|--- .... ....
....|..|C-4 LF.F ....|--- .... ....|--- .... ....
....|..|C-4 AF.F ....|--- .... ....|--- .... ....
....|..|C-4 2F.A ....|--- .... ....|--- .... ....
....|..|C-4 AF.7 ....|--- .... ....|--- .... ....
....|..|C-4 AF.F ....|--- .... ....|--- .... ....
....|..|C-4 AF.F ....|--- .... ....|--- .... ....
....|..|C-4 AF.F ....|--- .... ....|--- .... ....
....|..|B-8 JF.F ....|--- .... ....|--- .... ....
....|..|C-4 AF.A ....|--- .... ....|--- .... ....
....|..|C-4 RF.F ....|--- .... ....|--- .... ....
....|..|E-4 2F.A ....|--- .... ....|--- .... ....
....|..|C-4 AF.7 ....|--- .... ....|--- .... ....
....|..|C-4 CF.F ....|--- .... ....|--- .... ....
....|..|C-4 CF.F ....|--- .... ....|--- .... ....
....|..|A-4 2F.7 ....|--- .... ....|--- .... ....
....|..|B-8 JF.F ....|--- .... ....|--- .... ....
....|..|C-4 LF.F ....|--- .... ....|--- .... ....
....|..|C-4 RF.F ....|--- .... ....|--- .... ....
....|..|B-3 2F.A ....|--- .... ....|--- .... ....
....|..|C-4 CF.7 ....|R-- .... ....|R-- .... ....
....|..|C-4 LF.F ....|--- .... ....|--- .... ....
....|..|B-8 JF.F ....|--- .... ....|--- .... ....
....|..|B-8 JF.F ....|R-- .... ....|R-- .... ....
 C-3|..|C-4 2C.F ....|--- .... ....|--- .... ....
....|..|B-8 JF.A ....|--- .... ....|--- .... ....
 B-4|..|C-4 AF.F ....|B-3 2F.F ....|B-3 2C.F ....
....|..|R-- .... ....|--- .... ....|A-4 2F.F ....
....|..|B-8 JF.7 ....|--- .... ....|--- .... ....
....|..|C-4 LF.F ....|B-3 2F.A ....|B-3 2F.A ....
....|..|C-4 CF.F ....|--- .... ....|A-4 2F.A ....
....|..|C-5 2F.7 ....|--- .... ....|--- .... ....
 A-3|..|A-3 2C.F ....|B-3 2F.7 ....|B-3 2F.7 ....
....|..|C-4 LF.F ....|--- .... ....|A-4 2F.7 ....
....|..|C-4 AF.F ....|--- .... ....|--- .... ....
....|..|A-3 2F.A ....|--- .... ....|--- .... ....
....|..|C-4 CF.7 ....|--- .... ....|--- .... ....
....|..|C-4 AF.F ....|--- .... ....|--- .... ....
....|..|C-4 AF.F ....|--- .... ....|--- .... ....
....|..|C-4 AF.F ....|--- .... ....|--- .... ....
....|..|B-8 JF.F ....|--- .... ....|--- .... ....
 A-3|..|A-2 2C.F ....|--- .... ....|--- .... ....
....|..|C-4 RF.F ....|--- .... ....|--- .... ....
....|..|E-4 2F.A ....|--- .... ....|--- .... ....
....|..|C-4 AF.7 ....|--- .... ....|--- .... ....
....|..|C-4 CF.F ....|--- .... ....|--- .... ....
....|..|C-4 CF.F ....|--- .... ....|--- .... ....
....|..|C-5 2F.7 ....|--- .... ....|--- .... ....
....|..|B-8 JF.F ....|--- .... ....|--- .... ....
....|..|C-4 LF.F ....|--- .... ....|--- .... ....
....|..|C-4 RF.F ....|--- .... ....|--- .... ....
....|..|D-4 2F.A ....|--- .... ....|--- .... ....
....|..|C-4 CF.7 ....|R-- .... ....|R-- .... ....
....|..|C-4 LF.F ....|--- .... ....|--- .... ....
....|..|C-4 CF.F ....|--- .... ....|--- .... ....
....|..|C-4 CF.F ....|R-- .... ....|R-- .... ....
 E-4|..|E-4 2C.F ....|--- .... ....|--- .... ....
....|..|C-4 CF.A ....|--- .... ....|--- .... ....

[Pattern63]
 D-4|..|C-4 AF.F ....|D-4 2F.F ....|D-4 2C.F ....
....|..|E-4 2F.A ....|--- .... ....|--- .... ....
....|..|C-4 CF.7 ....|--- .... ....|--- .... ....
....|..|C-4 AF.F ....|D-4 2F.A ....|D-4 2F.A ....
....|..|C-4 AF.F ....|--- .... ....|--- .... ....
....|..|A-4 2F.7 ....|--- .... ....|--- .... ....
....|..|B-8 JF.F ....|D-4 2F.7 ....|D-4 2F.7 ....
....|..|C-4 LF.F ....|--- .... ....|--- .... ....
....|..|C-4 AF.F ....|--- .... ....|--- .... ....
....|..|C-4 2F.A ....|--- .... ....|--- .... ....
....|..|C-4 AF.7 ....|--- .... ....|--- .... ....
....|..|C-4 AF.F ....|--- .... ....|--- .... ....
....|..|C-4 AF.F ....|--- .... ....|--- .... ....
....|..|C-4 AF.F ....|--- .... ....|--- .... ....
....|..|B-8 JF.F ....|--- .... ....|--- .... ....
....|..|C-4 AF.A ....|--- .... ....|--- .... ....
....|..|C-4 RF.F ....|--- .... ....|--- .... ....
....|..|E-4 2F.A ....|--- .... ....|--- .... ....
....|..|C-4 AF.7 ....|--- .... ....|--- .... ....
....|..|C-4 CF.F ....|--- .... ....|--- .... ....
....|..|C-4 CF.F ....|--- .... ....|--- .... ....
....|..|C-5 2F.7 ....|--- .... ....|--- .... ....
....|..|B-8 JF.F ....|--- .... ....|--- .... ....
....|..|C-4 LF.F ....|--- .... ....|--- .... ....
....|..|C-4 RF.F ....|--- .... ....|--- .... ....
....|..|B-3 2F.A ....|--- .... ....|--- .... ....
....|..|C-4 CF.7 ....|R-- .... ....|R-- .... ....
....|..|C-4 LF.F ....|--- .... ....|--- .... ....
....|..|C-4 CF.F ....|--- .... ....|--- .... ....
....|..|C-4 CF.F ....|R-- .... ....|R-- .... ....
 A-3|..|A-3 2C.F ....|--- .... ....|--- .... ....
....|..|C-4 CF.A ....|--- .... ....|--- .... ....
 C-3|..|C-4 AF.F ....|C-4 2F.F ....|C-4 2C.F ....
....|..|C-4 LF.7 ....|--- .... ....|--- .... ....
....|..|C-4 CF.7 ....|--- .... ....|--- .... ....
....|..|C-4 LF.F ....|C-4 2F.A ....|C-4 2F.A ....
....|..|C-4 CF.F ....|--- .... ....|--- .... ....
....|..|A-4 2F.7 ....|--- .... ....|--- .... ....
 A-3|..|A-3 2C.F ....|C-4 2F.7 ....|C-4 2F.7 ....
....|..|C-4 LF.F ....|--- .... ....|--- .... ....
....|..|C-4 AF.F ....|--- .... ....|--- .... ....
....|..|A-3 2F.A ....|--- .... ....|--- .... ....
....|..|C-4 CF.7 ....|--- .... ....|--- .... ....
....|..|C-4 AF.F ....|--- .... ....|--- .... ....
....|..|C-4 AF.F ....|--- .... ....|--- .... ....
....|..|C-4 AF.F ....|--- .... ....|--- .... ....
....|..|B-8 JF.F ....|--- .... ....|--- .... ....
 A-3|..|A-2 2C.F ....|--- .... ....|--- .... ....
....|..|C-4 RF.F ....|--- .... ....|--- .... ....
....|..|E-4 2F.A ....|--- .... ....|--- .... ....
....|..|C-4 AF.7 ....|--- .... ....|--- .... ....
....|..|C-4 CF.F ....|--- .... ....|--- .... ....
....|..|C-4 CF.F ....|--- .... ....|--- .... ....
....|..|C-5 2F.7 ....|--- .... ....|--- .... ....
....|..|B-8 JF.F ....|--- .... ....|--- .... ....
....|..|C-4 LF.F ....|--- .... ....|--- .... ....
....|..|C-4 RF.F ....|--- .... ....|--- .... ....
....|..|D-4 2F.A ....|--- .... ....|--- .... ....
....|..|C-4 CF.7 ....|--- .... ....|--- .... ....
....|..|C-4 LF.F ....|--- .... ....|--- .... ....
....|..|C-4 CF.F ....|--- .... ....|--- .... ....
....|..|C-4 CF.F ....|--- .... ....|--- .... ....
 E-4|..|E-4 2C.F ....|--- .... ....|--- .... ....
....|..|C-4 CF.A ....|--- .... ....|--- .... ....

[Pattern64]
....|..|C-4 AF.F ....|--- .... ....|--- .... ....
....|..|E-4 2F.A ....|--- .... ....|--- .... ....
....|..|C-4 CF.7 ....|--- .... ....|--- .... ....
....|..|C-4 AF.F ....|--- .... ....|--- .... ....
....|..|C-4 AF.F ....|--- .... ....|--- .... ....
....|..|A-4 2F.7 ....|--- .... ....|--- .... ....
....|..|B-8 JF.F ....|--- .... ....|--- .... ....
....|..|C-4 LF.F ....|--- .... ....|--- .... ....
....|..|C-4 AF.F ....|--- .... ....|--- .... ....
....|..|C-4 2F.A ....|--- .... ....|--- .... ....
....|..|C-4 AF.7 ....|--- .... ....|--- .... ....
....|..|C-4 AF.F ....|--- .... ....|--- .... ....
....|..|C-4 AF.F ....|--- .... ....|--- .... ....
....|..|C-4 AF.F ....|--- .... ....|--- .... ....
....|..|B-8 JF.F ....|--- .... ....|--- .... ....
....|..|C-4 AF.A ....|--- .... ....|--- .... ....
....|..|C-4 RF.F ....|--- .... ....|--- .... ....
....|..|E-4 2F.A ....|--- .... ....|--- .... ....
....|..|C-4 AF.7 ....|--- .... ....|--- .... ....
....|..|C-4 CF.F ....|R-- .... ....|R-- .... ....
....|..|C-4 CF.F ....|--- .... ....|--- .... ....
....|..|E-4 2F.7 ....|--- .... ....|--- .... ....
....|..|B-8 JF.F ....|R-- .... ....|R-- .... ....
....|..|C-4 LF.F ....|--- .... ....|--- .... ....
 A-3|..|C-4 RF.F ....|A-3 2F.F ....|A-3 2C.F ....
....|..|B-3 2F.A ....|R-- .... ....|R-- .... ....
....|..|C-4 CF.7 ....|R-- .... ....|R-- .... ....
....|..|C-4 LF.F ....|A-3 2F.A ....|A-3 2F.A ....
 G-4|..|C-4 CF.F ....|G-3 2F.F ....|G-3 2C.F ....
....|..|C-4 CF.F ....|R-- .... ....|R-- .... ....
 A-3|..|A-3 2C.F ....|A-3 2F.7 ....|A-3 2F.7 ....
....|..|C-4 CF.A ....|G-3 2F.A ....|G-3 2F.A ....
....|..|C-4 AF.F ....|F-5 2F.F ....|F-5 2F.F ....
....|..|C-4 LF.7 ....|R-- .... ....|R-- .... ....
....|..|C-4 CF.7 ....|G-3 2F.7 ....|G-3 2F.7 ....
....|..|C-4 AF.F ....|F-5 2F.A ....|F-5 2F.A ....
....|..|C-4 AF.F ....|--- .... ....|--- .... ....
....|..|A-4 2F.7 ....|--- .... ....|--- .... ....
....|..|B-8 JF.F ....|F-5 2F.7 ....|F-5 2F.7 ....
....|..|C-4 LF.F ....|--- .... ....|--- .... ....
....|..|C-4 AF.F ....|--- .... ....|--- .... ....
....|..|R-- .... ....|--- .... ....|--- .... ....
....|..|C-4 AF.7 ....|--- .... ....|--- .... ....
....|..|C-4 AF.F ....|--- .... ....|--- .... ....
....|..|C-4 AF.F ....|--- .... ....|--- .... ....
....|..|C-4 AF.F ....|--- .... ....|--- .... ....
....|..|B-8 JF.F ....|--- .... ....|--- .... ....
 C-3|..|C-3 2C.F ....|--- .... ....|--- .... ....
....|..|C-4 RF.F ....|--- .... ....|--- .... ....
....|..|E-4 2F.A ....|--- .... ....|--- .... ....
....|..|C-4 AF.7 ....|--- .... ....|--- .... ....
....|..|C-4 CF.F ....|--- .... ....|--- .... ....
....|..|C-4 CF.F ....|--- .... ....|--- .... ....
....|..|C-5 2F.7 ....|--- .... ....|--- .... ....
....|..|B-8 JF.F ....|--- .... ....|--- .... ....
....|..|C-4 LF.F ....|--- .... ....|--- .... ....
....|..|C-4 RF.F ....|--- .... ....|--- .... ....
....|..|D-4 2F.A ....|--- .... ....|--- .... ....
....|..|C-4 CF.7 ....|--- .... ....|--- .... ....
....|..|C-4 LF.F ....|--- .... ....|--- .... ....
....|..|C-4 CF.F ....|--- .... ....|--- .... ....
....|..|C-4 CF.F ....|--- .... ....|--- .... ....
 E-4|..|E-4 2C.F ....|--- .... ....|--- .... ....
....|..|C-4 CF.A ....|--- .... ....|--- .... ....

[Pattern65]
....|..|C-4 AF.F ....|--- .... ....|--- .... ....
....|..|E-4 2F.A ....|--- .... ....|--- .... ....
....|..|C-4 CF.7 ....|--- .... ....|--- .... ....
....|..|C-4 AF.F ....|--- .... ....|--- .... ....
....|..|C-4 AF.F ....|--- .... ....|--- .... ....
....|..|A-4 2F.7 ....|--- .... ....|--- .... ....
....|..|B-8 JF.F ....|--- .... ....|--- .... ....
....|..|C-4 LF.F ....|--- .... ....|--- .... ....
....|..|C-4 AF.F ....|--- .... ....|--- .... ....
....|..|C-4 2F.A ....|--- .... ....|--- .... ....
....|..|C-4 AF.7 ....|--- .... ....|--- .... ....
....|..|C-4 AF.F ....|--- .... ....|--- .... ....
....|..|C-4 AF.F ....|--- .... ....|--- .... ....
....|..|C-4 AF.F ....|--- .... ....|--- .... ....
....|..|B-8 JF.F ....|--- .... ....|--- .... ....
....|..|C-4 AF.A ....|--- .... ....|--- .... ....
....|..|C-4 RF.F ....|--- .... ....|--- .... ....
....|..|E-4 2F.A ....|--- .... ....|--- .... ....
....|..|C-4 AF.7 ....|--- .... ....|--- .... ....
....|..|C-4 CF.F ....|R-- .... ....|R-- .... ....
....|..|C-4 CF.F ....|--- .... ....|--- .... ....
....|..|A-4 2F.7 ....|--- .... ....|--- .... ....
....|..|B-8 JF.F ....|R-- .... ....|R-- .... ....
....|..|C-4 LF.F ....|--- .... ....|--- .... ....
 G-4|..|C-4 RF.F ....|G-3 2F.F ....|G-3 2C.F ....
....|..|B-3 2F.A ....|R-- .... ....|R-- .... ....
....|..|C-4 CF.7 ....|R-- .... ....|R-- .... ....
....|..|C-4 LF.F ....|G-3 2F.A ....|G-3 2F.A ....
....|..|C-4 CF.F ....|--- .... ....|--- .... ....
....|..|C-4 CF.F ....|R-- .... ....|R-- .... ....
 G-4|..|G-3 2C.F ....|G-3 2F.7 ....|G-3 2F.7 ....
....|..|C-4 CF.A ....|--- .... ....|--- .... ....
 E-4|..|C-4 AF.F ....|E-4 2F.F ....|E-4 2C.F ....
....|..|C-4 LF.7 ....|R-- .... ....|E-5 2F.F ....
....|..|C-4 CF.7 ....|--- .... ....|--- .... ....
....|..|C-4 LF.F ....|E-4 2F.A ....|E-4 2F.A ....
....|..|C-4 CF.F ....|R-- .... ....|E-5 2F.A ....
....|..|C-5 2F.7 ....|--- .... ....|--- .... ....
....|..|C-4 AF.7 ....|E-4 2F.7 ....|E-4 2F.7 ....
....|..|C-4 LF.F ....|--- .... ....|E-5 2F.7 ....
....|..|C-4 AF.F ....|--- .... ....|--- .... ....
....|..|R-- .... ....|--- .... ....|--- .... ....
....|..|C-4 CF.7 ....|--- .... ....|--- .... ....
....|..|C-4 AF.F ....|--- .... ....|--- .... ....
....|..|C-4 AF.F ....|--- .... ....|--- .... ....
....|..|C-4 AF.F ....|--- .... ....|--- .... ....
....|..|B-8 JF.F ....|--- .... ....|--- .... ....
 B-4|..|B-2 2A.F ....|--- .... ....|--- .... ....
....|..|C-4 RF.F ....|--- .... ....|--- .... ....
....|..|E-4 2F.A ....|--- .... ....|--- .... ....
....|..|C-4 AF.7 ....|--- .... ....|--- .... ....
....|..|C-4 CF.F ....|--- .... ....|--- .... ....
....|..|C-4 CF.F ....|--- .... ....|--- .... ....
....|..|C-5 2F.7 ....|--- .... ....|--- .... ....
....|..|B-8 JF.F ....|--- .... ....|--- .... ....
....|..|C-4 LF.F ....|--- .... ....|--- .... ....
....|..|C-4 RF.F ....|--- .... ....|--- .... ....
....|..|D-4 2F.A ....|--- .... ....|--- .... ....
....|..|C-4 CF.7 ....|--- .... ....|--- .... ....
....|..|C-4 LF.F ....|--- .... ....|--- .... ....
....|..|C-4 CF.F ....|--- .... ....|--- .... ....
....|..|C-4 CF.F ....|--- .... ....|--- .... ....
 E-4|..|E-4 2C.F ....|--- .... ....|--- .... ....
....|..|C-4 CF.A ....|--- .... ....|--- .... ....

[Pattern66]
....|..|C-4 AF.F ....|--- .... ....|--- .... ....
....|..|E-4 2F.A ....|--- .... ....|--- .... ....
....|..|C-4 CF.7 ....|--- .... ....|--- .... ....
....|..|C-4 AF.F ....|--- .... ....|--- .... ....
....|..|C-4 AF.F ....|--- .... ....|--- .... ....
....|..|G#4 2F.7 ....|--- .... ....|--- .... ....
....|..|B-8 JF.F ....|--- .... ....|--- .... ....
....|..|C-4 LF.F ....|--- .... ....|--- .... ....
....|..|C-4 AF.F ....|--- .... ....|--- .... ....
....|..|C-4 2F.A ....|--- .... ....|--- .... ....
....|..|C-4 AF.7 ....|--- .... ....|--- .... ....
....|..|C-4 AF.F ....|--- .... ....|--- .... ....
....|..|C-4 AF.F ....|--- .... ....|--- .... ....
....|..|C-4 AF.F ....|--- .... ....|--- .... ....
....|..|B-8 JF.F ....|--- .... ....|--- .... ....
....|..|C-4 AF.A ....|--- .... ....|--- .... ....
....|..|C-4 RF.F ....|--- .... ....|--- .... ....
....|..|E-4 2F.A ....|--- .... ....|--- .... ....
....|..|C-4 AF.7 ....|--- .... ....|--- .... ....
....|..|C-4 CF.F ....|R-- .... ....|R-- .... ....
....|..|C-4 CF.F ....|--- .... ....|--- .... ....
....|..|G#4 2F.7 ....|--- .... ....|--- .... ....
....|..|B-8 JF.F ....|R-- .... ....|R-- .... ....
....|..|C-4 LF.F ....|--- .... ....|--- .... ....
 D-4|..|C-4 RF.F ....|D-4 2F.F ....|D-4 2C.F ....
....|..|B-3 2F.A ....|R-- .... ....|R-- .... ....
....|..|C-4 CF.7 ....|R-- .... ....|R-- .... ....
....|..|C-4 LF.F ....|D-4 2F.A ....|D-4 2F.A ....
....|..|B-8 JF.F ....|--- .... ....|--- .... ....
....|..|B-8 JF.F ....|R-- .... ....|R-- .... ....
 C-3|..|C-4 2C.F ....|D-4 2F.7 ....|D-4 2F.7 ....
....|..|B-8 JF.A ....|--- .... ....|--- .... ....
 E-4|..|C-4 AF.F ....|E-4 2F.F ....|E-4 2C.F ....
....|..|R-- .... ....|R-- .... ....|A-4 2F.F ....
....|..|B-8 JF.7 ....|--- .... ....|--- .... ....
....|..|C-4 LF.F ....|E-4 2F.A ....|E-4 2F.A ....
....|..|C-4 CF.F ....|R-- .... ....|A-4 2F.A ....
....|..|C-5 2F.7 ....|--- .... ....|--- .... ....
....|..|C-4 AF.7 ....|E-4 2F.7 ....|E-4 2F.7 ....
....|..|C-4 LF.F ....|--- .... ....|A-4 2F.7 ....
....|..|C-4 AF.F ....|--- .... ....|--- .... ....
....|..|R-- .... ....|--- .... ....|--- .... ....
....|..|C-4 CF.7 ....|--- .... ....|--- .... ....
....|..|C-4 AF.F ....|--- .... ....|--- .... ....
....|..|C-4 AF.F ....|--- .... ....|--- .... ....
....|..|C-4 AF.F ....|--- .... ....|--- .... ....
....|..|B-8 JF.F ....|--- .... ....|--- .... ....
 A-3|..|A-2 2C.F ....|--- .... ....|--- .... ....
....|..|C-4 RF.F ....|--- .... ....|--- .... ....
....|..|E-4 2F.A ....|--- .... ....|--- .... ....
....|..|C-4 AF.7 ....|--- .... ....|--- .... ....
....|..|C-4 CF.F ....|--- .... ....|--- .... ....
....|..|C-4 CF.F ....|--- .... ....|--- .... ....
....|..|C-5 2F.7 ....|--- .... ....|--- .... ....
....|..|B-8 JF.F ....|--- .... ....|--- .... ....
....|..|C-4 LF.F ....|--- .... ....|--- .... ....
....|..|C-4 RF.F ....|--- .... ....|--- .... ....
....|..|D-4 2F.A ....|--- .... ....|--- .... ....
....|..|C-4 CF.7 ....|--- .... ....|--- .... ....
....|..|C-4 LF.F ....|--- .... ....|--- .... ....
....|..|C-4 CF.F ....|--- .... ....|--- .... ....
....|..|C-4 CF.F ....|--- .... ....|--- .... ....
 E-4|..|E-4 2C.F ....|--- .... ....|--- .... ....
....|..|C-4 CF.A ....|--- .... ....|--- .... ....

[Pattern67]
....|..|C-4 AF.F ....|--- .... ....|--- .... ....
....|..|E-4 2F.A ....|--- .... ....|--- .... ....
....|..|C-4 CF.7 ....|--- .... ....|--- .... ....
....|..|C-4 AF.F ....|--- .... ....|--- .... ....
....|..|C-4 AF.F ....|--- .... ....|--- .... ....
....|..|A-4 2F.7 ....|--- .... ....|--- .... ....
....|..|B-8 JF.F ....|--- .... ....|--- .... ....
....|..|C-4 LF.F ....|--- .... ....|--- .... ....
....|..|C-4 AF.F ....|--- .... ....|--- .... ....
....|..|C-4 2F.A ....|--- .... ....|--- .... ....
....|..|C-4 AF.7 ....|--- .... ....|--- .... ....
....|..|C-4 AF.F ....|--- .... ....|--- .... ....
....|..|C-4 AF.F ....|--- .... ....|--- .... ....
....|..|C-4 AF.F ....|--- .... ....|--- .... ....
....|..|B-8 JF.F ....|--- .... ....|--- .... ....
....|..|C-4 AF.A ....|--- .... ....|--- .... ....
....|..|C-4 RF.F ....|--- .... ....|--- .... ....
....|..|E-4 2F.A ....|--- .... ....|--- .... ....
....|..|C-4 AF.7 ....|--- .... ....|--- .... ....
....|..|C-4 CF.F ....|--- .... ....|--- .... ....
....|..|C-4 CF.F ....|--- .... ....|--- .... ....
....|..|C-5 2F.7 ....|--- .... ....|--- .... ....
....|..|B-8 JF.F ....|--- .... ....|--- .... ....
....|..|C-4 LF.F ....|--- .... ....|--- .... ....
....|..|C-4 RF.F ....|--- .... ....|--- .... ....
....|..|B-3 2F.A ....|--- .... ....|--- .... ....
....|..|C-4 CF.7 ....|--- .... ....|--- .... ....
....|..|C-4 LF.F ....|--- .... ....|--- .... ....
....|..|C-4 CF.F ....|--- .... ....|--- .... ....
....|..|C-4 CF.F ....|--- .... ....|--- .... ....
 A-3|..|A-3 2C.F ....|--- .... ....|--- .... ....
....|..|C-4 CF.A ....|--- .... ....|--- .... ....
....|..|C-4 AF.F ....|--- .... ....|--- .... ....
....|..|C-4 LF.7 ....|--- .... ....|--- .... ....
....|..|C-4 CF.7 ....|--- .... ....|--- .... ....
....|..|C-4 LF.F ....|--- .... ....|--- .... ....
....|..|C-4 CF.F ....|--- .... ....|--- .... ....
....|..|A-4 2F.7 ....|--- .... ....|--- .... ....
 A-3|..|A-3 2C.F ....|--- .... ....|--- .... ....
....|..|C-4 LF.F ....|--- .... ....|--- .... ....
....|..|C-4 AF.F ....|--- .... ....|--- .... ....
....|..|A-3 2F.A ....|--- .... ....|--- .... ....
....|..|C-4 CF.7 ....|--- .... ....|--- .... ....
....|..|C-4 AF.F ....|--- .... ....|--- .... ....
....|..|C-4 AF.F ....|--- .... ....|--- .... ....
....|..|C-4 AF.F ....|--- .... ....|--- .... ....
....|..|B-8 JF.F ....|--- .... ....|--- .... ....
 A-3|..|A-2 2C.F ....|--- .... ....|--- .... ....
....|..|C-4 RF.F ....|--- .... ....|--- .... ....
....|..|E-4 2F.A ....|--- .... ....|--- .... ....
....|..|C-4 AF.7 ....|--- .... ....|--- .... ....
....|..|C-4 CF.F ....|--- .... ....|--- .... ....
....|..|C-4 CF.F ....|--- .... ....|--- .... ....
....|..|C-5 2F.7 ....|--- .... ....|--- .... ....
....|..|B-8 JF.F ....|--- .... ....|--- .... ....
....|..|C-4 LF.F ....|--- .... ....|--- .... ....
....|..|C-4 RF.F ....|--- .... ....|--- .... ....
....|..|D-4 2F.A ....|--- .... ....|--- .... ....
....|..|C-4 CF.7 ....|--- .... ....|--- .... ....
....|..|C-4 LF.F ....|--- .... ....|--- .... ....
....|..|C-4 CF.F ....|--- .... ....|--- .... ....
....|..|C-4 CF.F ....|--- .... ....|--- .... ....
 E-4|..|E-4 2C.F ....|--- .... ....|--- .... ....
....|..|C-4 CF.A ....|--- .... ....|--- .... ....

[Pattern68]
....|..|C-4 AF.F ....|--- .... ....|--- .... ....
....|..|E-4 2F.A ....|--- .... ....|--- .... ....
....|..|C-4 CF.7 ....|--- .... ....|--- .... ....
....|..|C-4 AF.F ....|--- .... ....|--- .... ....
....|..|C-4 AF.F ....|--- .... ....|--- .... ....
....|..|A-4 2F.7 ....|--- .... ....|--- .... ....
....|..|B-8 JF.F ....|--- .... ....|--- .... ....
....|..|C-4 LF.F ....|--- .... ....|--- .... ....
....|..|C-4 AF.F ....|--- .... ....|--- .... ....
....|..|C-4 2F.A ....|--- .... ....|--- .... ....
....|..|C-4 AF.7 ....|--- .... ....|--- .... ....
....|..|C-4 AF.F ....|--- .... ....|--- .... ....
....|..|C-4 AF.F ....|--- .... ....|--- .... ....
....|..|C-4 AF.F ....|R-- .... ....|R-- .... ....
....|..|B-8 JF.F ....|--- .... ....|--- .... ....
....|..|C-4 AF.A ....|--- .... ....|--- .... ....
....|..|C-4 RF.F ....|R-- .... ....|R-- .... ....
....|..|E-4 2F.A ....|--- .... ....|--- .... ....
....|..|C-4 AF.7 ....|--- .... ....|--- .... ....
....|..|C-4 CF.F ....|R-- .... ....|R-- .... ....
....|..|C-4 CF.F ....|--- .... ....|--- .... ....
....|..|C-5 2F.7 ....|--- .... ....|--- .... ....
....|..|B-8 JF.F ....|--- .... ....|--- .... ....
....|..|C-4 LF.F ....|--- .... ....|--- .... ....
 A-3|..|C-4 RF.F ....|A-3 2F.F ....|A-3 2C.F ....
....|..|B-3 2F.A ....|--- .... ....|--- .... ....
....|..|C-4 CF.7 ....|R-- .... ....|R-- .... ....
....|..|C-4 LF.F ....|A-3 2F.A ....|A-3 2F.A ....
....|..|C-4 CF.F ....|--- .... ....|--- .... ....
....|..|C-4 CF.F ....|R-- .... ....|R-- .... ....
 A-3|..|A-3 2C.F ....|A-3 2F.7 ....|A-3 2F.7 ....
....|..|C-4 CF.A ....|--- .... ....|--- .... ....
 G-4|..|C-4 AF.F ....|G-3 2F.F ....|G-3 2C.F ....
....|..|C-4 LF.7 ....|R-- .... ....|F-5 2F.F ....
....|..|C-4 CF.7 ....|--- .... ....|--- .... ....
....|..|C-4 AF.F ....|G-3 2F.A ....|G-3 2F.A ....
....|..|C-4 AF.F ....|R-- .... ....|F-5 2F.A ....
....|..|E-4 2F.7 ....|--- .... ....|--- .... ....
....|..|B-8 JF.F ....|G-3 2F.7 ....|G-3 2F.7 ....
....|..|C-4 LF.F ....|--- .... ....|F-5 2F.7 ....
....|..|C-4 AF.F ....|--- .... ....|--- .... ....
....|..|R-- .... ....|--- .... ....|--- .... ....
....|..|C-4 AF.7 ....|--- .... ....|--- .... ....
....|..|C-4 AF.F ....|--- .... ....|--- .... ....
....|..|C-4 AF.F ....|--- .... ....|--- .... ....
....|..|C-4 AF.F ....|--- .... ....|--- .... ....
....|..|B-8 JF.F ....|--- .... ....|--- .... ....
 C-3|..|C-3 2C.F ....|--- .... ....|--- .... ....
....|..|C-4 RF.F ....|--- .... ....|--- .... ....
....|..|E-4 2F.A ....|--- .... ....|--- .... ....
....|..|C-4 AF.7 ....|--- .... ....|--- .... ....
....|..|C-4 CF.F ....|--- .... ....|--- .... ....
....|..|C-4 CF.F ....|--- .... ....|--- .... ....
....|..|C-5 2F.7 ....|--- .... ....|--- .... ....
....|..|B-8 JF.F ....|--- .... ....|--- .... ....
....|..|C-4 LF.F ....|--- .... ....|--- .... ....
....|..|C-4 RF.F ....|--- .... ....|--- .... ....
....|..|D-4 2F.A ....|--- .... ....|--- .... ....
....|..|C-4 CF.7 ....|--- .... ....|--- .... ....
....|..|C-4 LF.F ....|--- .... ....|--- .... ....
....|..|C-4 CF.F ....|--- .... ....|--- .... ....
....|..|C-4 CF.F ....|--- .... ....|--- .... ....
 E-4|..|E-4 2C.F ....|--- .... ....|--- .... ....
....|..|C-4 CF.A ....|--- .... ....|--- .... ....

[Pattern69]
....|..|C-4 AF.F ....|--- .... ....|--- .... ....
....|..|E-4 2F.A ....|--- .... ....|--- .... ....
....|..|C-4 CF.7 ....|--- .... ....|--- .... ....
....|..|C-4 AF.F ....|--- .... ....|--- .... ....
....|..|C-4 AF.F ....|--- .... ....|--- .... ....
....|..|A-4 2F.7 ....|--- .... ....|--- .... ....
....|..|B-8 JF.F ....|--- .... ....|--- .... ....
....|..|C-4 LF.F ....|--- .... ....|--- .... ....
....|..|C-4 AF.F ....|--- .... ....|--- .... ....
....|..|C-4 2F.A ....|--- .... ....|--- .... ....
....|..|C-4 AF.7 ....|--- .... ....|--- .... ....
....|..|C-4 AF.F ....|--- .... ....|--- .... ....
....|..|C-4 AF.F ....|--- .... ....|--- .... ....
....|..|C-4 AF.F ....|--- .... ....|--- .... ....
....|..|B-8 JF.F ....|--- .... ....|--- .... ....
....|..|C-4 AF.A ....|--- .... ....|--- .... ....
....|..|C-4 RF.F ....|--- .... ....|--- .... ....
....|..|E-4 2F.A ....|--- .... ....|--- .... ....
....|..|C-4 AF.7 ....|--- .... ....|--- .... ....
....|..|C-4 CF.F ....|R-- .... ....|R-- .... ....
....|..|C-4 CF.F ....|--- .... ....|--- .... ....
....|..|A-4 2F.7 ....|--- .... ....|--- .... ....
....|..|B-8 JF.F ....|R-- .... ....|R-- .... ....
....|..|C-4 LF.F ....|--- .... ....|--- .... ....
 G-4|..|C-4 RF.F ....|G-3 2F.F ....|G-3 2C.F ....
....|..|B-3 2F.A ....|R-- .... ....|R-- .... ....
....|..|C-4 CF.7 ....|R-- .... ....|R-- .... ....
....|..|C-4 LF.F ....|G-3 2F.A ....|G-3 2F.A ....
....|..|C-4 CF.F ....|--- .... ....|--- .... ....
....|..|C-4 CF.F ....|R-- .... ....|R-- .... ....
 G-4|..|G-3 2C.F ....|G-3 2F.7 ....|G-3 2F.7 ....
....|..|C-4 CF.A ....|--- .... ....|--- .... ....
 G#4|..|C-4 AF.F ....|G#3 2F.F ....|G#3 2C.F ....
....|..|C-4 LF.7 ....|R-- .... ....|E-5 2F.F ....
....|..|C-4 CF.7 ....|--- .... ....|--- .... ....
....|..|C-4 LF.F ....|G#3 2F.A ....|G#3 2F.A ....
....|..|C-4 CF.F ....|R-- .... ....|E-5 2F.A ....
....|..|C-5 2F.7 ....|--- .... ....|--- .... ....
....|..|C-4 AF.7 ....|G#3 2F.7 ....|G#3 2F.7 ....
....|..|C-4 LF.F ....|--- .... ....|E-5 2F.7 ....
....|..|C-4 AF.F ....|--- .... ....|--- .... ....
....|..|R-- .... ....|--- .... ....|--- .... ....
....|..|C-4 CF.7 ....|--- .... ....|--- .... ....
....|..|C-4 AF.F ....|--- .... ....|--- .... ....
....|..|C-4 AF.F ....|--- .... ....|--- .... ....
....|..|C-4 AF.F ....|--- .... ....|--- .... ....
....|..|B-8 JF.F ....|--- .... ....|--- .... ....
 B-4|..|B-2 2A.F ....|--- .... ....|--- .... ....
....|..|C-4 RF.F ....|--- .... ....|--- .... ....
....|..|E-4 2F.A ....|--- .... ....|--- .... ....
....|..|C-4 AF.7 ....|--- .... ....|--- .... ....
....|..|C-4 CF.F ....|--- .... ....|--- .... ....
....|..|C-4 CF.F ....|--- .... ....|--- .... ....
....|..|C-5 2F.7 ....|--- .... ....|--- .... ....
....|..|B-8 JF.F ....|--- .... ....|--- .... ....
....|..|C-4 LF.F ....|--- .... ....|--- .... ....
....|..|C-4 RF.F ....|--- .... ....|--- .... ....
....|..|D-4 2F.A ....|--- .... ....|--- .... ....
....|..|C-4 CF.7 ....|--- .... ....|--- .... ....
....|..|C-4 LF.F ....|--- .... ....|--- .... ....
....|..|C-4 CF.F ....|--- .... ....|--- .... ....
....|..|C-4 CF.F ....|--- .... ....|--- .... ....
 E-4|..|E-4 2C.F ....|--- .... ....|--- .... ....
....|..|C-4 CF.A ....|--- .... ....|--- .... ....

[Pattern70]
....|..|C-4 AF.F ....|--- .... ....|--- .... ....
....|..|E-4 2F.A ....|--- .... ....|--- .... ....
....|..|C-4 CF.7 ....|--- .... ....|--- .... ....
....|..|C-4 AF.F ....|--- .... ....|--- .... ....
....|..|C-4 AF.F ....|--- .... ....|--- .... ....
....|..|G#4 2F.7 ....|--- .... ....|--- .... ....
....|..|B-8 JF.F ....|--- .... ....|--- .... ....
....|..|C-4 LF.F ....|--- .... ....|--- .... ....
....|..|C-4 AF.F ....|--- .... ....|--- .... ....
....|..|C-4 2F.A ....|--- .... ....|--- .... ....
....|..|C-4 AF.7 ....|--- .... ....|--- .... ....
....|..|C-4 AF.F ....|--- .... ....|--- .... ....
....|..|C-4 AF.F ....|--- .... ....|--- .... ....
....|..|C-4 AF.F ....|--- .... ....|--- .... ....
....|..|B-8 JF.F ....|--- .... ....|--- .... ....
....|..|C-4 AF.A ....|--- .... ....|--- .... ....
....|..|C-4 RF.F ....|--- .... ....|--- .... ....
....|..|E-4 2F.A ....|--- .... ....|--- .... ....
....|..|C-4 AF.7 ....|--- .... ....|--- .... ....
....|..|C-4 CF.F ....|R-- .... ....|R-- .... ....
....|..|C-4 CF.F ....|--- .... ....|--- .... ....
....|..|G#4 2F.7 ....|--- .... ....|--- .... ....
....|..|B-8 JF.F ....|R-- .... ....|R-- .... ....
....|..|C-4 LF.F ....|--- .... ....|--- .... ....
 G#4|..|C-4 RF.F ....|G#3 2F.F ....|G#3 2C.F ....
....|..|B-3 2F.A ....|R-- .... ....|R-- .... ....
....|..|C-4 CF.7 ....|R-- .... ....|R-- .... ....
....|..|C-4 LF.F ....|G#3 2F.A ....|G#3 2F.A ....
....|..|B-8 JF.F ....|--- .... ....|--- .... ....
....|..|B-8 JF.F ....|R-- .... ....|R-- .... ....
 C-3|..|C-4 2C.F ....|G#3 2F.7 ....|G#3 2F.7 ....
....|..|B-8 JF.A ....|--- .... ....|--- .... ....
 A-3|..|C-4 LF.F ....|A-3 2F.F ....|A-3 2C.F ....
....|..|R-- .... ....|R-- .... ....|R-- .... ....
....|..|B-8 JF.7 ....|--- .... ....|--- .... ....
....|..|A-2 2F.A ....|A-3 2F.A ....|A-3 2F.A ....
 A-3|..|A-3 2C.F ....|R-- .... ....|R-- .... ....
....|..|C-5 2F.7 ....|--- .... ....|--- .... ....
....|..|C-4 LF.7 ....|A-3 2F.7 ....|A-3 2F.7 ....
 A-3|..|A-2 2C.F ....|--- .... ....|--- .... ....
 E-4|..|E-4 2C.F ....|--- .... ....|--- .... ....
....|..|A-1 2F.7 ....|--- .... ....|--- .... ....
....|..|A-3 2F.7 ....|--- .... ....|--- .... ....
....|..|E-4 2F.A ....|--- .... ....|--- .... ....
 E-4|..|E-4 2C.F ....|--- .... ....|--- .... ....
....|..|A-2 2F.7 ....|--- .... ....|--- .... ....
....|..|E-4 2F.7 ....|--- .... ....|--- .... ....
 A-3|..|A-2 2C.F ....|--- .... ....|--- .... ....
 D-4|..|D-4 2C.F ....|--- .... ....|--- .... ....
....|..|--- .... ....|--- .... ....|--- .... ....
....|..|E-4 2F.7 ....|--- .... ....|--- .... ....
....|..|D-4 2F.A ....|--- .... ....|--- .... ....
 D-4|..|D-4 2C.F ....|--- .... ....|--- .... ....
....|..|A-2 2F.7 ....|--- .... ....|--- .... ....
....|..|D-4 2F.7 ....|--- .... ....|--- .... ....
 A-3|..|A-2 2C.F ....|--- .... ....|--- .... ....
 E-4|..|E-4 2C.F ....|--- .... ....|--- .... ....
....|..|--- .... ....|--- .... ....|--- .... ....
....|..|D-4 2F.7 ....|--- .... ....|--- .... ....
....|..|E-4 2F.A ....|--- .... ....|--- .... ....
 E-4|..|E-4 2C.F ....|--- .... ....|--- .... ....
....|..|A-2 2F.7 ....|--- .... ....|--- .... ....
....|..|E-4 2F.7 ....|--- .... ....|--- .... ....
....|..|E-4 2F.A ....|--- .... ....|--- .... ....

[Pattern71]
 C-3|..|C-4 2C.F ....|--- .... ....|--- .... ....
....|..|--- .... ....|--- .... ....|--- .... ....
....|..|E-4 2F.7 ....|--- .... ....|--- .... ....
....|..|C-4 2F.A ....|--- .... ....|--- .... ....
 C-3|..|C-4 2C.F ....|--- .... ....|--- .... ....
....|..|R-- .... ....|--- .... ....|--- .... ....
....|..|C-4 2F.7 ....|--- .... ....|--- .... ....
....|..|C-4 2F.A ....|--- .... ....|--- .... ....
 E-4|..|E-4 2C.F ....|--- .... ....|--- .... ....
....|..|--- .... ....|--- .... ....|--- .... ....
....|..|C-4 2F.7 ....|--- .... ....|--- .... ....
....|..|E-4 2F.A ....|--- .... ....|--- .... ....
 E-4|..|E-4 2C.F ....|--- .... ....|--- .... ....
....|..|R-- .... ....|R-- .... ....|R-- .... ....
....|..|E-4 2F.7 ....|--- .... ....|--- .... ....
....|..|E-4 2F.A ....|--- .... ....|--- .... ....
 B-4|..|B-3 2C.F ....|R-- .... ....|R-- .... ....
....|..|--- .... ....|--- .... ....|--- .... ....
....|..|E-4 2F.7 ....|--- .... ....|--- .... ....
....|..|B-3 2F.A ....|R-- .... ....|R-- .... ....
 B-4|..|B-3 2C.F ....|--- .... ....|--- .... ....
....|..|R-- .... ....|--- .... ....|--- .... ....
....|..|B-3 2F.7 ....|--- .... ....|--- .... ....
....|..|B-3 2F.A ....|--- .... ....|--- .... ....
 E-4|..|E-3 2C.F ....|--- .... ....|--- .... ....
....|..|--- .... ....|--- .... ....|--- .... ....
....|..|B-3 2F.7 ....|--- .... ....|--- .... ....
....|..|E-3 2F.A ....|--- .... ....|--- .... ....
 A-3|..|A-3 2C.F ....|--- .... ....|--- .... ....
....|..|R-- .... ....|--- .... ....|--- .... ....
....|..|E-3 2F.7 ....|--- .... ....|--- .... ....
....|..|A-3 2F.A ....|--- .... ....|--- .... ....
 A-3|..|A-3 2C.F ....|--- .... ....|--- .... ....
....|..|--- .... ....|--- .... ....|--- .... ....
....|..|A-3 2F.7 ....|--- .... ....|--- .... ....
....|..|A-3 2F.A ....|--- .... ....|--- .... ....
....|..|--- .... ....|--- .... ....|--- .... ....
....|..|--- .... ....|--- .... ....|--- .... ....
....|..|A-3 2F.7 ....|--- .... ....|--- .... ....
....|..|--- .... ....|--- .... ....|--- .... ....
....|..|--- .... ....|--- .... ....|--- .... ....
....|..|--- .... ....|--- .... ....|--- .... ....
....|..|--- .... ....|--- .... ....|--- .... ....
....|..|--- .... ....|--- .... ....|--- .... ....
....|..|--- .... ....|--- .... ....|--- .... ....
....|..|--- .... ....|--- .... ....|--- .... ....
....|..|--- .... ....|--- .... ....|--- .... ....
....|..|--- .... ....|--- .... ....|--- .... ....
....|..|--- .... ....|--- .... ....|--- .... ....
....|..|--- .... ....|--- .... ....|--- .... ....
....|..|--- .... ....|--- .... ....|--- .... ....
....|..|--- .... ....|--- .... ....|--- .... ....
....|..|--- .... ....|--- .... ....|--- .... ....
....|..|--- .... ....|--- .... ....|--- .... ....
....|..|--- .... ....|--- .... ....|--- .... ....
....|..|--- .... ....|--- .... ....|--- .... ....
....|..|--- .... ....|--- .... ....|--- .... ....
....|..|--- .... ....|--- .... ....|--- .... ....
....|..|R-- .... ....|--- .... ....|--- .... ....
....|..|--- .... ....|--- .... ....|--- .... ....
....|..|--- .... ....|--- .... ....|--- .... ....
....|..|R-- .... ....|--- .... ....|--- .... ....
....|..|--- .... ....|--- .... ....|--- .... ....
....|..|--- .... ....|--- .... ....|--- .... ....
