[Module]
VortexTrackerII=0
Version=3.5
Title=2meu,2meu[2f]-3pw[2]-4m+,3p[3]-4mw+
Author=oisee ^ 4d 29.05.2010
NoteTable=4
ChipFreq=1750000
Speed=4
PlayOrder=L14,13,14,13,15,15,16,16,18,3,4,4,11,11,8,6,17,17,19,20,9,41,51,51,42,43,41,45,46,54,48,48,19,19,17,17

[Ornament1]
L0,0,7,7

[Ornament2]
L0,0,12,12

[Ornament3]
L0,5,9

[Ornament4]
L0,4,7

[Ornament5]
L0

[Ornament6]
L0

[Ornament7]
L0

[Ornament8]
L0

[Ornament9]
L0

[Ornament10]
L0

[Ornament11]
L0

[Ornament12]
L-12

[Ornament13]
L12

[Ornament14]
L12,12,0,0

[Ornament15]
L0

[Sample1]
TnE +000_ +00_ F_
TnE +000_ +00_ F_
TnE +000_ +00_ F_
TnE +000_ +00_ D_
TnE +000_ +00_ B_
TnE +000_ +00_ B_ L

[Sample2]
TnE +000_ +00_ F_ L

[Sample3]
TnE +001_ +00_ F_
TnE +002_ +00_ F_
TnE +001_ +00_ E_
TnE +002_ +00_ E_
TnE +000_ +00_ E_ L
TnE -001_ +00_ E_
TnE -002_ +00_ E_
TnE -001_ +00_ E_
TnE +000_ +00_ E_
TnE +001_ +00_ E_
TnE +002_ +00_ E_
TnE +001_ +00_ E_

[Sample4]
TnE +001_ +00_ F_
TnE +002_ +00_ F_
TnE +001_ +00_ E_
TnE +002_ +00_ E_
TnE +000_ +00_ E_ L
TnE -001_ +00_ E_
TnE -002_ +00_ E_
TnE -001_ +00_ E_
TnE +000_ +00_ E_
TnE +001_ +00_ E_
TnE +002_ +00_ E_
TnE +001_ +00_ E_

[Sample5]
TnE +000_ +00_ F_
TnE +000_ +00_ F_
tne +000_ +00_ 0_ L

[Sample6]
TnE -001_ +00_ F_ L

[Sample7]
TnE -006_ +00_ F_ L

[Sample8]
tNe +000_ +00_ F_
tNe +000_ +00_ B_
tNe +000_ +00_ 7_
tNe +000_ +00_ 6- L

[Sample9]
TnE +080_ +00_ F_
TnE +100_ +00_ E_
TnE +180_ +00_ E_
TnE +200_ +00_ E_
TnE +240_ +00_ D_
TnE +280_ +00_ D_
TnE +2C0_ +00_ D_
TnE +300_ +00_ C_
TnE +300_ +00_ C_
TnE +340_ +00_ C_
TnE +340_ +00_ C_
TnE +380_ +00_ B_
TnE +380_ +00_ B_
TnE +400_ +00_ B_
TnE +400_ +00_ B_
TnE +480_ +00_ A_
TnE +500_ +00_ 9_
TnE +580_ +00_ 7_
TnE +600_ +00_ 4_
TnE +680_ +00_ 1_
TnE +000_ +00_ 0_ L

[Sample10]
TnE +1C0_ +00_ F_
TnE +280_ +00_ E_
TnE +380_ +00_ C_
TnE +440_ +00_ A_
TnE +480_ +00_ 8_
TnE +000_ +00_ 0_ L

[Sample11]
TNe +200_ -0A_ F_
tNe +000_ +0F_ A_
TNe +200_ -07_ E_
tNe +000_ +0E_ B- L

[Sample12]
TNE +0A0_ +05_ F_
TNE +140_ +02_ D_
TNE +140_ +02_ B_
TNE +100_ +00_ A_ L
TNE +140_ +00_ A_
TNE +200_ +00_ A-

[Sample13]
Tne +200_ +00_ F_
Tne +2C0_ +00_ F_
Tne +380_ +00_ E_
Tne +500_ +00_ C_
Tne +520_ +00_ 9_
tne +000_ +00_ 0_ L

[Sample14]
TNE -100_ +00_ F_
TNE -100_ +00_ D_
TNE -100_ +00_ A_
TNE -100_ +00_ 5_
tne +000_ +00_ 0_ L

[Sample15]
TNE -100_ +00_ 5_
TNE -100_ +00_ 8_
TNE -100_ +00_ B_
TNE -100_ +00_ F_
TNe -100_ +00_ 9- L

[Sample16]
TnE +000_ +00_ C_
TnE +000_ +00_ E_
TnE +000_ +00_ F_
TnE +000_ +00_ F_
TnE +000_ +00_ E_
TnE +000_ +00_ D_
TnE +000_ +00_ C_
TnE +000_ +00_ C_ L
TnE +001_ +00_ C_
TnE +002_ +00_ C_
TnE +003_ +00_ C_
TnE +001_ +00_ C_
TnE +000_ +00_ C_
TnE -001_ +00_ C_
TnE -002_ +00_ C_
TnE -003_ +00_ C_
TnE -001_ +00_ C_
TnE +000_ +00_ C_
TnE +000_ +00_ C_

[Sample17]
Tne +1C0_ +00_ F_
Tne +280_ +00_ D_
Tne +380_ +00_ 7_
TNE +000_ +00_ 0_ L

[Sample18]
TnE -00C_ +00_ 0_ L

[Sample19]
TNe +000_ +00_ F_
TNe +000_ +00_ C_
TNe +000_ +00_ 6_
TNe +000_ +01_ A- L

[Sample20]
TNE +140_ +00_ F_
tNE +000_ +00_ B- L

[Sample21]
tNE +000_ +00_ D_
tNE +000_ +00_ 8_
tNE +000_ +00_ 1_
TNE +000_ +00_ 0_ L

[Sample22]
TnE +000_ +00_ D_ L
TnE +000_ +00_ D_
tne +000_ +00_ 9_
tne +000_ +00_ 9_
TnE +000_ +00_ D_
TnE +000_ +00_ D_
tne +000_ +00_ 9_
tne +000_ +00_ 9_
TnE +000_ +00_ D_
TnE +000_ +00_ D_
TnE +000_ +00_ D_
TnE +000_ +00_ D_
TnE +000_ +00_ D_
TnE +000_ +00_ D_
tne +000_ +00_ 9_
tne +000_ +00_ 9_

[Sample23]
TnE +000_ +00_ F_ L
TnE +010_ +01_ F_
TnE +010_ +01_ F_
TnE +010_ +01_ F_
TnE +010_ +01_ F_
TnE +000_ +00_ F_
TnE +000_ +00_ F_
TnE -010_ -01_ F_
TnE -010_ -01_ F_
TnE -010_ -01_ F_
TnE -010_ -01_ F_
TnE +000_ +00_ F_

[Sample24]
TNe +000_ -01_ C_
TNe +000_ -01_ D_
TNe +000_ -01_ E_
TNe +000_ -01_ F_
TNe +000_ -01_ F_
TNe +000_ -01_ F_
TNe +000_ -01_ F_
TNe +000_ -01_ F_
TNe +000_ -01_ E_
TNe +000_ -01_ E_
TNe +000_ -01_ E_
TNe +000_ -01_ F_
TNe +000_ -01_ F_ L

[Sample25]
TNE +000_ +00_ F_
TNE +000_ +00_ F_ L
TNE +000_ +00_ F_
TNE +000_ +00_ F_
TNE +000_ +00_ F-

[Sample26]
tne +000_ +00_ 0_ L

[Sample27]
TnE +100_ +05_ F_
TnE +200_ +02_ A_
TnE +300_ +02_ 7_
TNE +400_ +00_ 3- L

[Sample28]
tne +000_ +00_ 0_ L

[Sample29]
tnE +000_ +00_ 0_ L

[Sample30]
TNE +000_ +00_ C+ L

[Sample31]
TNe +1C0_ +00_ F_
Tne +280_ +00_ E_
Tne +380_ +00_ C_
Tne +440_ +00_ A_
Tne +480_ +00_ 8_
TnE +000_ +00_ 0_ L

[Pattern0]
....|..|--- .... ....|--- .... ....|--- .... ....
....|..|--- .... ....|E-5 2F.F ....|E-5 3F.F ....
....|..|--- .... ....|F-5 2F.F ....|F-5 3F.F ....
....|..|--- .... ....|--- .... ....|--- .... ....
....|..|--- .... ....|E-5 2F.F ....|E-5 3F.F ....
....|..|--- .... ....|--- .... ....|F-5 3F.A ....
....|..|--- .... ....|A-4 2F.F ....|A-4 3F.F ....
....|..|--- .... ....|A-4 2F1F ....|A-4 3F1F ....
....|..|--- .... ....|F-5 2F.F ....|F-5 3F.F ....
....|..|--- .... ....|--- .... ....|A-4 3F.A ....
....|..|--- .... ....|E-5 2F.F ....|E-5 3F.F ....
....|..|--- .... ....|--- .... ....|F-5 3F.A ....
....|..|--- .... ....|A-4 2F.F ....|A-4 3F.F ....
....|..|--- .... ....|A-4 2F1F ....|A-4 3F1F ....
....|..|--- .... ....|F-5 2F.F ....|F-5 3F.F ....
....|..|--- .... ....|--- .... ....|A-4 3F.A ....
....|..|--- .... ....|E-5 2F.F ....|E-5 3F.F ....
....|..|--- .... ....|--- .... ....|F-5 3F.A ....
....|..|--- .... ....|A-4 2F.F ....|A-4 3F.F ....
....|..|--- .... ....|A-4 2F1F ....|A-4 3F1F ....
....|..|--- .... ....|F-5 2F.F ....|F-5 3F.F ....
....|..|--- .... ....|--- .... ....|A-4 3F.A ....
....|..|--- .... ....|E-5 2F.F ....|E-5 3F.F ....
....|..|--- .... ....|--- .... ....|F-5 3F.A ....
....|..|--- .... ....|E-5 2F.F ....|E-5 3F.F ....
....|..|--- .... ....|F-5 2F.F ....|F-5 3F.F ....
....|..|--- .... ....|A-4 2F.F ....|A-4 3F.F ....
....|..|--- .... ....|C-5 2F.F ....|C-5 3F.F ....
....|..|--- .... ....|A-4 2F.F ....|A-4 3F.F ....
....|..|--- .... ....|E-5 2F.F ....|E-5 3F.F ....
....|..|--- .... ....|F-5 2F.F ....|F-5 3F.F ....
....|..|--- .... ....|A-4 2F17 ....|F-5 3F.7 ....
....|..|--- .... ....|F-5 2F.7 ....|A-4 3F.7 ....
....|..|--- .... ....|E-5 2F.F ....|E-5 3F.F ....
....|..|--- .... ....|F-5 2F.F ....|F-5 3F.F ....
....|..|--- .... ....|E-5 2F.A ....|E-5 3F.7 ....
....|..|--- .... ....|E-5 2F.F ....|E-5 3F.F ....
....|..|--- .... ....|F-5 2F.7 ....|F-5 3F.A ....
....|..|--- .... ....|A-4 2F.F ....|A-4 3F.F ....
....|..|--- .... ....|A-4 2F1F ....|A-4 3F1F ....
....|..|--- .... ....|F-5 2F.F ....|F-5 3F.F ....
....|..|--- .... ....|E-5 2F.7 ....|A-4 3F.A ....
....|..|--- .... ....|E-5 2F.F ....|E-5 3F.F ....
....|..|--- .... ....|--- .... ....|F-5 3F.A ....
....|..|--- .... ....|A-4 2F.F ....|A-4 3F.F ....
....|..|--- .... ....|A-4 2F1F ....|A-4 3F1F ....
....|..|--- .... ....|F-5 2F.F ....|F-5 3F.F ....
....|..|--- .... ....|--- .... ....|A-4 3F.A ....
....|..|--- .... ....|E-5 2F.F ....|E-5 3F.F ....
....|..|--- .... ....|--- .... ....|F-5 3F.A ....
....|..|--- .... ....|A-4 2F.F ....|A-4 3F.F ....
....|..|--- .... ....|A-4 2F1F ....|A-4 3F1F ....
....|..|--- .... ....|F-5 2F.F ....|F-5 3F.F ....
....|..|--- .... ....|--- .... ....|A-4 3F.A ....
....|..|--- .... ....|E-5 2F.F ....|E-5 3F.F ....
....|..|--- .... ....|--- .... ....|F-5 3F.A ....
....|..|--- .... ....|E-5 2F.F ....|E-5 3F.F ....
....|..|--- .... ....|F-5 2F.F ....|F-5 3F.F ....
....|..|--- .... ....|A-4 2F.F ....|A-4 3F.F ....
....|..|--- .... ....|C-5 2F.F ....|C-5 3F.F ....
....|..|--- .... ....|A-4 2F.F ....|A-4 3F.F ....
....|..|--- .... ....|C-5 2F.F ....|C-5 3F.F ....
....|..|--- .... ....|D-5 2F.F ....|D-5 3F.F ....
....|..|--- .... ....|A-4 2F17 ....|F-5 3F.7 ....

[Pattern1]
..1B|..|A-1 2AFF B..4|F-5 2F.7 ....|A-4 3F.7 ....
....|..|--- .... ....|E-5 2F.F ....|E-5 3F.F ....
....|..|--- .... ....|F-5 2F.F ....|F-5 3F.F ....
....|..|--- .... ....|C-5 2F.A ....|C-5 3F.7 ....
....|..|--- .... ....|E-5 2F.F ....|E-5 3F.F ....
....|..|--- .... ....|F-5 2F.7 ....|F-5 3F.A ....
....|..|A-2 2FFA ....|A-4 2F.F ....|A-4 3F.F ....
....|..|--- .... ....|A-4 2F1F ....|A-4 3F1F ....
....|..|--- .... ....|F-5 2F.F ....|F-5 3F.F ....
....|..|R-- .... ....|C-5 2F.7 ....|A-4 3F.A ....
....|..|--- .... ....|E-5 2F.F ....|E-5 3F.F ....
....|..|--- .... ....|--- .... ....|F-5 3F.A ....
..1B|..|A-2 2AFF ....|A-4 2F.F ....|A-4 3F.F ....
....|..|R-- .... ....|A-4 2F1F ....|A-4 3F1F ....
....|..|--- .... ....|F-5 2F.F ....|F-5 3F.F ....
....|..|R-- .... ....|--- .... ....|A-4 3F.A ....
..36|..|A-2 2AFF ....|E-5 2F.F ....|E-5 3F.F ....
....|..|--- .... ....|--- .... ....|F-5 3F.A ....
....|..|A-2 2FFA ....|A-4 2F.F ....|A-4 3F.F ....
....|..|R-- .... ....|A-4 2F1F ....|A-4 3F1F ....
....|..|--- .... ....|F-5 2F.F ....|F-5 3F.F ....
....|..|R-- .... ....|--- .... ....|A-4 3F.A ....
....|..|A-2 2FFA ....|E-5 2F.F ....|E-5 3F.F ....
....|..|--- .... ....|--- .... ....|F-5 3F.A ....
..3C|..|G-2 2AFF ....|E-5 2F.F ....|E-5 3F.F ....
....|..|R-- .... ....|F-5 2F.F ....|F-5 3F.F ....
....|..|--- .... ....|A-4 2F.F ....|A-4 3F.F ....
....|..|--- .... ....|C-5 2F.F ....|C-5 3F.F ....
....|..|A-2 2FF7 ....|A-4 2F.F ....|A-4 3F.F ....
....|..|--- .... ....|E-5 2F.F ....|E-5 3F.F ....
....|..|G-2 2FFA ....|F-5 2F.F ....|F-5 3F.F ....
....|..|R-- .... ....|A-4 2F17 ....|F-5 3F.7 ....
..11|..|F-1 2AFF ....|F-5 2F.7 ....|A-4 3F.7 ....
....|..|--- .... ....|E-5 2F.F ....|E-5 3F.F ....
....|..|R-- .... ....|F-5 2F.F ....|F-5 3F.F ....
....|..|--- .... ....|E-5 2F.A ....|E-5 3F.7 ....
....|..|G-2 2FF7 ....|E-5 2F.F ....|E-5 3F.F ....
....|..|R-- .... ....|F-5 2F.7 ....|F-5 3F.A ....
....|..|F-2 2FFA ....|A-4 2F.F ....|A-4 3F.F ....
....|..|--- .... ....|A-4 2F1F ....|A-4 3F1F ....
....|..|--- .... ....|F-5 2F.F ....|F-5 3F.F ....
....|..|R-- .... ....|E-5 2F.7 ....|A-4 3F.A ....
....|..|--- .... ....|E-5 2F.F ....|E-5 3F.F ....
....|..|R-- .... ....|--- .... ....|F-5 3F.A ....
..22|..|F-2 2AFF ....|A-4 2F.F ....|A-4 3F.F ....
....|..|R-- .... ....|A-4 2F1F ....|A-4 3F1F ....
....|..|--- .... ....|F-5 2F.F ....|F-5 3F.F ....
....|..|R-- .... ....|--- .... ....|A-4 3F.A ....
..11|..|F-2 2AFF ....|E-5 2F.F ....|E-5 3F.F ....
....|..|--- .... ....|--- .... ....|F-5 3F.A ....
....|..|F-2 2FFA ....|A-4 2F.F ....|A-4 3F.F ....
....|..|R-- .... ....|A-4 2F1F ....|A-4 3F1F ....
....|..|--- .... ....|F-5 2F.F ....|F-5 3F.F ....
....|..|R-- .... ....|--- .... ....|A-4 3F.A ....
....|..|F-2 2FFA ....|E-5 2F.F ....|E-5 3F.F ....
....|..|--- .... ....|--- .... ....|F-5 3F.A ....
....|..|F-2 2FF7 ....|E-5 2F.F ....|E-5 3F.F ....
....|..|R-- .... ....|F-5 2F.F ....|F-5 3F.F ....
....|..|--- .... ....|A-4 2F.F ....|A-4 3F.F ....
....|..|--- .... ....|C-5 2F.F ....|C-5 3F.F ....
..11|..|F-2 2AFF ....|A-4 2F.F ....|A-4 3F.F ....
....|..|R-- .... ....|C-5 2F.F ....|C-5 3F.F ....
....|..|--- .... ....|D-5 2F.F ....|D-5 3F.F ....
....|..|R-- .... ....|A-4 2F17 ....|F-5 3F.7 ....

[Pattern2]
..14|..|D-3 2C.F ....|D-3 2CFF ....|D-3 3F2F ....
....|..|--- .... ....|D-3 2F2F ....|C-5 3F.7 ....
....|..|--- .... ....|R-- .... ....|R-- .... ....
....|..|--- .... ....|C-5 2F.A ....|C-5 3F.7 ....
....|..|--- .... ....|D-5 2F.F ....|D-5 3F.F ....
....|..|--- .... ....|R-- .... ....|R-- .... ....
....|..|--- .... ....|A-4 2F.7 ....|D-3 2F.A ....
....|..|--- .... ....|D-4 2F.A ....|D-5 3F.A ....
..14|..|D-3 2C.F ....|D-3 2CFF ....|D-3 3F2F ....
....|..|--- .... ....|D-3 2F2F ....|R-- .... ....
....|..|--- .... ....|C-5 2F.7 ....|D-4 2F.A ....
....|..|--- .... ....|D-3 2F.A ....|D-3 3F2A ....
....|..|--- .... ....|E-5 2F.F ....|E-5 3F.F ....
....|..|--- .... ....|R-- .... ....|R-- .... ....
....|..|--- .... ....|D-3 2F2A ....|D-3 2F.A ....
....|..|--- .... ....|E-4 2F.A ....|E-5 3F.A ....
..2D|..|C-3 2C.F ....|C-3 2CFF ....|C-3 3F.F ....
....|..|--- .... ....|C-3 2F.F ....|R-- .... ....
....|..|--- .... ....|E-5 2F.A ....|E-4 2F.A ....
....|..|--- .... ....|C-4 2F.A ....|C-3 3F.A ....
....|..|--- .... ....|G-5 2F.F ....|G-5 3F.F ....
....|..|--- .... ....|R-- .... ....|R-- .... ....
....|..|--- .... ....|C-3 2F.A ....|C-4 2F.A ....
....|..|--- .... ....|G-4 2F.A ....|G-5 3F.A ....
....|..|R-- .... ....|G-5 2F.F ....|G-5 3F.F ....
....|..|--- .... ....|R-- .... ....|R-- .... ....
....|..|--- .... ....|F-5 2F.F ....|F-5 3F.F ....
....|..|--- .... ....|G-4 2F.A ....|G-5 3F.A ....
....|..|--- .... ....|E-5 2F.F ....|E-5 3F.F ....
....|..|--- .... ....|F-4 2F.A ....|F-5 3F.A ....
....|..|--- .... ....|D-5 2F.F ....|D-5 3F.F ....
....|..|--- .... ....|E-4 2F.A ....|E-5 3F.A ....
..11|..|F-3 2C.F ....|F-3 2CFF ....|F-3 3F.F ....
....|..|--- .... ....|F-3 2F.F ....|D-5 3F.A ....
....|..|--- .... ....|E-5 2F.A ....|E-4 2F.A ....
....|..|--- .... ....|F-4 2F.A ....|F-3 3F.A ....
....|..|--- .... ....|C-5 2F.F ....|C-5 3F.F ....
....|..|--- .... ....|R-- .... ....|R-- .... ....
....|..|--- .... ....|F-5 2F.7 ....|F-3 3F.7 ....
....|..|--- .... ....|C-4 2F.A ....|C-5 3F.A ....
..11|..|F-3 2C.F ....|F-3 2CFF ....|F-3 3F.F ....
....|..|--- .... ....|F-3 2F.F ....|R-- .... ....
....|..|--- .... ....|D-5 2F.7 ....|C-5 3F.7 ....
....|..|--- .... ....|F-4 2F.A ....|F-3 3F.A ....
....|..|--- .... ....|D-5 2F.F ....|D-5 3F.F ....
....|..|--- .... ....|R-- .... ....|R-- .... ....
....|..|--- .... ....|F-3 2F.A ....|F-4 2F.A ....
....|..|--- .... ....|D-4 2F.A ....|D-5 3F.A ....
..11|..|F-3 2C.F ....|F-3 2CFF ....|F-3 3F.F ....
....|..|--- .... ....|F-3 2F.F ....|R-- .... ....
....|..|--- .... ....|D-5 2F.A ....|D-4 2F.A ....
....|..|--- .... ....|F-4 2F.A ....|F-3 3F.A ....
....|..|--- .... ....|F-5 2F.F ....|F-5 3F.F ....
....|..|--- .... ....|R-- .... ....|R-- .... ....
....|..|--- .... ....|F-3 2F.A ....|F-4 2F.A ....
....|..|--- .... ....|F-4 2F.A ....|F-5 3F.A ....
....|..|R-- .... ....|E-5 2F.F ....|E-5 3F.F ....
....|..|--- .... ....|R-- .... ....|R-- .... ....
....|..|--- .... ....|D-5 2F.F ....|D-5 3F.F ....
....|..|--- .... ....|E-4 2F.A ....|E-5 3F.A ....
....|..|--- .... ....|C-5 2F.F ....|C-5 3F.F ....
....|..|--- .... ....|D-4 2F.A ....|D-5 3F.A ....
....|..|--- .... ....|D-5 2F.F ....|D-5 3F.F ....
....|..|--- .... ....|C-4 2F.A ....|C-5 3F.A ....

[Pattern3]
..28|..|D-2 2C.F ....|D-3 2CFF B..5|D-3 3F2F ....
....|..|--- .... ....|D-3 2F2F ....|D-5 3F.A ....
....|..|--- .... ....|C-5 2F.A B..3|C-4 2F.A ....
....|..|--- .... ....|D-3 2F.A ....|D-3 3F2A ....
....|..|--- .... ....|D-5 2F.F B..5|D-5 3F.F ....
....|..|--- .... ....|R-- .... ....|R-- .... ....
.200|..|D-4 28.. ....|D-5 2F.7 B..3|D-3 3F27 ....
....|..|--- .... ....|D-4 2F.A ....|D-5 3F.A ....
..14|..|D-3 2C.F ....|D-3 2CFF B..5|D-3 3F2F ....
....|..|--- .... ....|D-3 2F2F ....|R-- .... ....
....|..|--- .... ....|D-5 2F.7 B..3|D-5 3F.7 ....
....|..|--- .... ....|D-3 2F.A ....|D-3 3F2A ....
..A0|..|D-1 .C.. ....|E-5 2F.F B..5|E-5 3F.F ....
....|..|--- .... ....|R-- .... ....|R-- .... ....
..50|..|D-2 .C.. ....|D-3 2F2A B..3|D-3 2F.A ....
....|..|--- .... ....|E-4 2F.A ....|E-5 3F.A ....
..2D|..|C-3 2C.F ....|C-3 2CFF B..5|C-3 3F.F ....
....|..|--- .... ....|C-3 2F.F ....|R-- .... ....
....|..|--- .... ....|E-5 2F.A B..3|E-4 2F.A ....
....|..|--- .... ....|C-4 2F.A ....|C-3 3F.A ....
....|..|--- .... ....|G-5 2F.F B..5|G-5 3F.F ....
....|..|--- .... ....|R-- .... ....|R-- .... ....
....|..|--- .... ....|C-3 2F.A B..3|C-4 2F.A ....
....|..|--- .... ....|G-4 2F.A ....|G-5 3F.A ....
..5A|..|C-2 .8.. 11.2|G-5 2F.F B..5|G-5 3F.F ....
....|..|--- .... 1...|R-- .... ....|R-- .... ....
....|..|--- .... ....|F-5 2F.F B..3|F-5 3F.F ....
....|..|--- .... ....|G-4 2F.A ....|G-5 3F.A ....
....|..|--- .... ....|E-5 2F.F B..5|E-5 3F.F ....
....|..|--- .... ....|F-4 2F.A ....|F-5 3F.A ....
.32D|..|C-3 .8.. 21.1|D-5 2F.F B..3|D-5 3F.F ....
....|..|--- .... ....|E-4 2F.A ....|E-5 3F.A ....
..44|..|F-1 2A.F ....|F-3 2CFF B..5|F-3 3F.F ....
....|..|--- .... ....|F-3 2F.F ....|D-5 3F.A ....
....|..|--- .... ....|E-5 2F.A B..3|E-4 2F.A ....
....|..|--- .... ....|F-4 2F.A ....|F-3 3F.A ....
....|..|E-2 .... ....|C-5 2F.F B..5|C-5 3F.F ....
....|..|--- .... ....|R-- .... ....|R-- .... ....
....|..|--- .... ....|F-5 2F.7 B..3|F-3 3F.7 ....
....|..|--- .... ....|C-4 2F.A ....|C-5 3F.A ....
..11|..|F-3 2C.F ....|F-3 2CFF B..5|F-3 3F.F ....
....|..|--- .... ....|F-3 2F.F ....|R-- .... ....
..44|..|F-1 .A.. 11.6|D-5 2F.7 B..3|C-5 3F.7 ....
....|..|--- .... ....|F-4 2F.A ....|F-3 3F.A ....
....|..|--- .... 1...|D-5 2F.F B..5|D-5 3F.F ....
....|..|--- .... ....|R-- .... ....|R-- .... ....
....|..|--- .... ....|F-3 2F.A B..3|F-4 2F.A ....
....|..|--- .... ....|D-4 2F.A ....|D-5 3F.A ....
..11|..|F-3 2C.F ....|F-3 2CFF B..5|F-3 3F.F ....
....|..|--- .... ....|F-3 2F.F ....|R-- .... ....
....|..|--- .... ....|D-5 2F.A B..3|D-4 2F.A ....
....|..|--- .... ....|F-4 2F.A ....|F-3 3F.A ....
....|..|--- .... ....|F-5 2F.F B..5|F-5 3F.F ....
....|..|--- .... ....|R-- .... ....|R-- .... ....
....|..|--- .... ....|F-3 2F.A B..3|F-4 2F.A ....
....|..|--- .... ....|F-4 2F.A ....|F-5 3F.A ....
..87|..|F-1 .C.. 11.3|E-5 2F.F B..5|E-5 3F.F ....
....|..|--- .... ....|R-- .... ....|R-- .... ....
....|..|--- .... 1...|D-5 2F.F B..3|D-5 3F.F ....
....|..|--- .... ....|E-4 2F.A ....|E-5 3F.A ....
.344|..|F-2 .C.. ....|C-5 2F.F B..5|C-5 3F.F ....
....|..|--- .... ....|D-4 2F.A ....|D-5 3F.A ....
....|..|--- .... ....|D-5 2F.F B..3|D-5 3F.F ....
....|..|--- .... ....|C-4 2F.A ....|C-5 3F.A ....

[Pattern4]
..28|..|D-1 2C.F ....|C-4 9F.F B..5|D-3 3F2F ....
....|..|--- .... ....|--- .... ....|D-5 3F.A ....
..28|..|D-2 .... ....|C-4 9F.F B..3|C-4 2F.A ....
....|..|--- .... ....|--- .... ....|D-3 3F2A ....
....|..|D-1 .... ....|C-4 9F.D B..5|D-5 3F.F ....
....|..|--- .... ....|--- .... ....|R-- .... ....
.200|..|D-4 28.. ....|C-4 9F.D B..3|D-3 3F27 ....
....|..|--- .... ....|--- .... ....|D-5 3F.A ....
..14|..|D-3 2C.F ....|C-4 K..A B..5|D-3 3F2F ....
....|..|--- .... ....|--- .... ....|R-- .... ....
..28|..|D-1 .C.. ....|C-4 KF.B B..3|D-5 3F.7 ....
....|..|--- .... ....|--- .... ....|D-3 3F2A ....
..A0|..|D-1 .C.. ....|C-4 CF.F B..5|E-5 3F.F ....
....|..|--- .... ....|--- .... ....|R-- .... ....
..50|..|D-2 .C.. ....|D-1 2C.B B..3|D-3 2F.A ....
....|..|--- .... ....|--- .... ....|E-5 3F.A ....
..2D|..|C-3 2C.F ....|C-4 VF.F B..5|C-3 3F.F ....
....|..|--- .... ....|--- .... ....|R-- .... ....
....|..|--- .... ....|C-3 9..6 B..3|E-4 2F.A ....
....|..|--- .... ....|--- .... ....|C-3 3F.A ....
.300|..|--- .... ....|C-3 2C.B B..5|G-5 3F.F ....
....|..|--- .... ....|--- .... ....|R-- .... ....
....|..|--- .... ....|C-4 VF.C B..3|C-4 2F.A ....
....|..|--- .... ....|--- .... ....|G-5 3F.A ....
.35A|..|C-2 .8.. 11.2|C-4 K..A B..5|G-5 3F.F ....
....|..|--- .... 1...|--- .... ....|R-- .... ....
....|..|--- .... ....|C-4 KF.B B..3|F-5 3F.F ....
....|..|--- .... ....|--- .... ....|G-5 3F.A ....
....|..|--- .... ....|C-4 9F.A B..5|E-5 3F.F ....
....|..|--- .... ....|--- .... ....|F-5 3F.A ....
..2D|..|C-3 .8.. 21.1|C-2 2F2B B..3|D-5 3F.F ....
....|..|--- .... ....|--- .... ....|E-5 3F.A ....
..44|..|F-1 2A.F ....|C-4 9F.F B..5|F-3 3F.F ....
....|..|--- .... ....|--- .... ....|D-5 3F.A ....
....|..|--- .... ....|C-4 9F.F B..3|E-4 2F.A ....
....|..|--- .... ....|--- .... ....|F-3 3F.A ....
....|..|E-2 .... ....|C-4 9F.D B..5|C-5 3F.F ....
....|..|--- .... ....|--- .... ....|R-- .... ....
....|..|--- .... ....|C-4 9F.D B..3|F-3 3F.7 ....
....|..|--- .... ....|--- .... ....|C-5 3F.A ....
..11|..|F-3 2C.F ....|F-2 7C.. B..5|F-3 3F.F ....
....|..|--- .... ....|--- .... ....|R-- .... ....
..44|..|F-1 .A.. 11.6|C-4 9F.C B..3|C-5 3F.7 ....
....|..|--- .... ....|--- .... ....|F-3 3F.A ....
....|..|--- .... 1...|F-2 2F2B B..5|D-5 3F.F ....
....|..|--- .... ....|--- .... ....|R-- .... ....
....|..|--- .... ....|--- .... B..3|F-4 2F.A ....
....|..|--- .... ....|--- .... ....|D-5 3F.A ....
..11|..|F-3 2C.F ....|C-4 VF.F B..5|F-3 3F.F ....
....|..|--- .... ....|--- .... ....|R-- .... ....
....|..|--- .... ....|F-4 2F2B B..3|D-4 2F.A ....
....|..|--- .... ....|--- .... ....|F-3 3F.A ....
....|..|--- .... ....|--- .... B..5|F-5 3F.F ....
....|..|--- .... ....|--- .... ....|R-- .... ....
....|..|--- .... ....|C-4 VF.C B..3|F-4 2F.A ....
....|..|--- .... ....|--- .... ....|F-5 3F.A ....
.287|..|F-1 .8.. 11.3|F-3 2F2B B..5|E-5 3F.F ....
....|..|--- .... ....|--- .... ....|R-- .... ....
....|..|--- .... 1...|--- .... B..3|D-5 3F.F ....
....|..|--- .... ....|--- .... ....|E-5 3F.A ....
..22|..|F-2 .C.. ....|C-4 VF.9 B..5|C-5 3F.F ....
....|..|--- .... ....|--- .... ....|D-5 3F.A ....
....|..|--- .... ....|--- .... B..3|D-5 3F.F ....
....|..|--- .... ....|--- .... ....|C-5 3F.A ....

[Pattern5]
....|..|--- .... ....|--- .... ....|--- .... ....
....|..|--- .... ....|--- .... ....|--- .... ....
....|..|--- .... ....|--- .... ....|--- .... ....
....|..|--- .... ....|--- .... ....|--- .... ....
....|..|--- .... ....|--- .... ....|--- .... ....
....|..|--- .... ....|--- .... ....|--- .... ....
....|..|--- .... ....|--- .... ....|--- .... ....
....|..|--- .... ....|--- .... ....|--- .... ....
....|..|--- .... ....|--- .... ....|--- .... ....
....|..|--- .... ....|--- .... ....|--- .... ....
....|..|--- .... ....|--- .... ....|--- .... ....
....|..|--- .... ....|--- .... ....|--- .... ....
....|..|--- .... ....|--- .... ....|--- .... ....
....|..|--- .... ....|--- .... ....|--- .... ....
....|..|--- .... ....|--- .... ....|--- .... ....
....|..|--- .... ....|--- .... ....|--- .... ....
....|..|--- .... ....|--- .... ....|--- .... ....
....|..|--- .... ....|--- .... ....|--- .... ....
....|..|--- .... ....|--- .... ....|--- .... ....
....|..|--- .... ....|--- .... ....|--- .... ....
....|..|--- .... ....|--- .... ....|--- .... ....
....|..|--- .... ....|--- .... ....|--- .... ....
....|..|--- .... ....|--- .... ....|--- .... ....
....|..|--- .... ....|--- .... ....|--- .... ....
....|..|--- .... ....|--- .... ....|--- .... ....
....|..|--- .... ....|--- .... ....|--- .... ....
....|..|--- .... ....|--- .... ....|--- .... ....
....|..|--- .... ....|--- .... ....|--- .... ....
....|..|--- .... ....|--- .... ....|--- .... ....
....|..|--- .... ....|--- .... ....|--- .... ....
....|..|--- .... ....|--- .... ....|--- .... ....
....|..|--- .... ....|--- .... ....|--- .... ....
....|..|--- .... ....|--- .... ....|--- .... ....
....|..|--- .... ....|--- .... ....|--- .... ....
....|..|--- .... ....|--- .... ....|--- .... ....
....|..|--- .... ....|--- .... ....|--- .... ....
....|..|--- .... ....|--- .... ....|--- .... ....
....|..|--- .... ....|--- .... ....|--- .... ....
....|..|--- .... ....|--- .... ....|--- .... ....
....|..|--- .... ....|--- .... ....|--- .... ....
....|..|--- .... ....|--- .... ....|--- .... ....
....|..|--- .... ....|--- .... ....|--- .... ....
....|..|--- .... ....|--- .... ....|--- .... ....
....|..|--- .... ....|--- .... ....|--- .... ....
....|..|--- .... ....|--- .... ....|--- .... ....
....|..|--- .... ....|--- .... ....|--- .... ....
....|..|--- .... ....|--- .... ....|--- .... ....
....|..|--- .... ....|--- .... ....|--- .... ....
....|..|--- .... ....|--- .... ....|--- .... ....
....|..|--- .... ....|--- .... ....|--- .... ....
....|..|--- .... ....|--- .... ....|--- .... ....
....|..|--- .... ....|--- .... ....|--- .... ....
....|..|--- .... ....|--- .... ....|--- .... ....
....|..|--- .... ....|--- .... ....|--- .... ....
....|..|--- .... ....|--- .... ....|--- .... ....
....|..|--- .... ....|--- .... ....|--- .... ....
....|..|--- .... ....|--- .... ....|--- .... ....
....|..|--- .... ....|--- .... ....|--- .... ....
....|..|--- .... ....|--- .... ....|--- .... ....
....|..|--- .... ....|--- .... ....|--- .... ....
....|..|--- .... ....|--- .... ....|--- .... ....
....|..|--- .... ....|--- .... ....|--- .... ....
....|..|--- .... ....|--- .... ....|--- .... ....
....|..|--- .... ....|--- .... ....|--- .... ....

[Pattern6]
..50|..|D-1 2A.F ....|D-3 9FFF B..5|F-4 3F.F ....
....|..|--- .... ....|F-4 2F.F ....|D-5 3F.A ....
....|..|--- .... ....|C-5 2F.A B..3|C-4 2F.A ....
....|..|--- .... ....|R-- .... ....|F-4 3F.A ....
.200|..|D-1 .EE. ....|D-4 KF.F B..5|D-5 3F.7 ....
....|..|--- .... ....|--- .... ....|--- .... ....
....|..|--- .... ....|D-5 2F.7 B..3|F-4 3F.7 ....
....|..|--- .... ....|D-4 K..F ....|--- .... ....
....|..|--- .... ....|C-5 2F.7 B..5|C-4 2F.7 ....
....|..|--- .... ....|--- .... ....|--- .... ....
....|..|--- .... ....|D-4 AF.F B..3|D-4 2F.7 ....
....|..|--- .... ....|--- .... ....|--- .... ....
....|..|--- .... ....|G-4 2F.F B..5|G-4 3F.F ....
..28|..|D-2 .A.. ....|--- .... ....|--- .... ....
....|..|--- .... ....|--- .... B..3|--- .... ....
....|..|--- .... ....|--- .... ....|G-4 3F.A ....
..22|..|F-2 2A.F ....|F-5 OFFF B..5|A-4 3F.F ....
....|..|--- .... ....|D-5 KF.A ....|--- .... ....
....|..|--- .... ....|G-4 2F.A B..3|G-4 3F.7 ....
....|..|--- .... ....|--- .... ....|A-4 3F.A ....
.100|..|F-6 .9.. ....|--- .... B..5|--- .... ....
.100|..|F-5 .9.. ....|--- .... ....|--- .... ....
.100|..|F-4 .9.. ....|D-5 9F.F B..3|A-4 3F.7 ....
.100|..|F-3 .9.. ....|--- .... ....|--- .... ....
.400|..|F-2 .A.. ....|C-5 2F.F B..5|C-5 3F.F ....
....|..|--- .... ....|D-4 9F.E ....|--- .... ....
....|..|--- .... ....|--- .... B..3|--- .... ....
....|..|--- .... ....|--- .... ....|C-5 3F.A ....
....|..|--- .... ....|D-3 9F.D B..5|--- .... ....
....|..|--- .... ....|--- .... ....|--- .... ....
....|..|--- .... ....|C-5 2F.A B..3|C-5 3F.7 ....
....|..|--- .... ....|--- .... ....|--- .... ....
..19|..|A#1 2A.F ....|D-3 9FFF B..5|F-4 3F.F ....
....|..|--- .... ....|F-4 2F.F ....|--- .... ....
....|..|--- .... ....|--- .... B..3|--- .... ....
....|..|--- .... ....|--- .... ....|F-4 3F.A ....
.133|..|A#5 .9.. ....|D-4 KF.F B..5|--- .... ....
....|..|A#1 .F.. ....|--- .... ....|--- .... ....
....|..|A#1 .... ....|F-4 2F.A B..3|F-4 3F.7 ....
.100|..|A#5 .9.. ....|D-4 B..D ....|--- .... ....
....|..|A#1 .F.. ....|--- .... B..5|--- .... ....
....|..|A#1 .F.. ....|--- .... ....|--- .... ....
.200|..|A#5 .9.. ....|D-4 B..C B..3|--- .... ....
....|..|--- .... ....|--- .... ....|--- .... ....
..19|..|A#3 .C.. ....|F-4 2F.7 B..5|--- .... ....
....|..|--- .... ....|--- .... ....|--- .... ....
....|..|--- .... ....|--- .... B..3|--- .... ....
....|..|--- .... ....|--- .... ....|--- .... ....
..33|..|A#1 .C.. ....|A#3 A..D B..5|--- .... ....
....|..|--- .... ....|--- .... ....|--- .... ....
....|..|--- .... ....|A#3 A... B..3|--- .... ....
....|..|--- .... ....|A#3 K... ....|--- .... ....
....|..|--- .... ....|A#3 A... B..5|--- .... ....
....|..|--- .... ....|--- .... ....|--- .... ....
....|..|--- .... ....|A#3 F... B..3|R-- .... ....
....|..|--- .... ....|--- .... ....|--- .... ....
.300|..|A-4 .9.. ....|A-4 AF.F B..5|A-4 3F.F ....
..1B|..|A-2 .A.. ....|--- .... ....|R-- .... ....
....|..|--- .... ....|G-4 2F.F B..3|G-4 3F.F ....
.300|..|A-4 .9.. ....|--- .... ....|A-4 3F.A ....
..1B|..|A-2 .A.. ....|F-4 2F.F B..5|F-4 3F.F ....
....|..|--- .... ....|--- .... ....|G-4 3F.A ....
.100|..|A-2 .A.. ....|E-4 2F.F B..3|E-4 3F.F ....
....|..|--- .... ....|--- .... ....|F-4 3F.A ....

[Pattern7]
..50|..|D-1 2A.F ....|D-2 2AFF B..5|F-4 3F.F ....
....|..|--- .... ....|F-4 2F.F ....|E-4 3F.A ....
....|..|--- .... ....|F-4 2F.A B..3|F-4 3F.7 ....
....|..|--- .... ....|--- .... ....|F-4 3F.A ....
.200|..|D-1 .EE. ....|A-4 2F.7 B..5|E-4 3F.7 ....
....|..|--- .... ....|--- .... ....|--- .... ....
....|..|--- .... ....|G-4 2F.7 B..3|F-4 3F.7 ....
....|..|--- .... ....|--- .... ....|--- .... ....
....|..|--- .... ....|F-4 2F.7 B..5|--- .... ....
....|..|--- .... ....|--- .... ....|--- .... ....
....|..|--- .... ....|E-4 2F.7 B..3|--- .... ....
....|..|--- .... ....|--- .... ....|--- .... ....
....|..|--- .... ....|G-4 2F.F B..5|G-4 3F.F ....
..28|..|D-2 .A.. ....|D-2 2A.. ....|--- .... ....
....|..|--- .... ....|--- .... B..3|--- .... ....
....|..|--- .... ....|--- .... ....|G-4 3F.A ....
..22|..|F-2 2A.F ....|F-2 2AFF B..5|A-4 3F.F ....
....|..|--- .... ....|A-4 2F.F ....|--- .... ....
....|..|--- .... ....|G-4 2F.A B..3|G-4 3F.7 ....
....|..|--- .... ....|--- .... ....|A-4 3F.A ....
.100|..|F-6 .9.. ....|--- .... B..5|--- .... ....
.100|..|F-5 .9.. ....|--- .... ....|--- .... ....
.100|..|F-4 .9.. ....|A-4 2F.A B..3|A-4 3F.7 ....
.100|..|F-3 .9.. ....|--- .... ....|--- .... ....
.400|..|F-2 .A.. ....|C-5 2F.F B..5|C-5 3F.F ....
....|..|--- .... ....|--- .... ....|--- .... ....
....|..|--- .... ....|--- .... B..3|--- .... ....
....|..|--- .... ....|--- .... ....|C-5 3F.A ....
....|..|--- .... ....|A-4 2F.7 B..5|--- .... ....
....|..|--- .... ....|--- .... ....|--- .... ....
....|..|--- .... ....|C-5 2F.A B..3|C-5 3F.7 ....
....|..|--- .... ....|--- .... ....|--- .... ....
..19|..|A#1 2A.F ....|A#1 2AFF B..5|F-4 3F.F ....
....|..|--- .... ....|F-4 2F.F ....|--- .... ....
....|..|--- .... ....|--- .... B..3|--- .... ....
....|..|--- .... ....|--- .... ....|F-4 3F.A ....
.133|..|A#5 .9.. ....|C-5 2F.7 B..5|--- .... ....
....|..|A#1 .F.. ....|--- .... ....|--- .... ....
....|..|A#1 .... ....|F-4 2F.A B..3|F-4 3F.7 ....
.100|..|A#5 .9.. ....|--- .... ....|--- .... ....
....|..|A#1 .F.. ....|--- .... B..5|--- .... ....
....|..|A#1 .F.. ....|--- .... ....|--- .... ....
.200|..|A#5 .9.. ....|--- .... B..3|--- .... ....
....|..|--- .... ....|--- .... ....|--- .... ....
..19|..|A#3 .C.. ....|F-4 2F.7 B..5|--- .... ....
....|..|--- .... ....|--- .... ....|--- .... ....
....|..|--- .... ....|--- .... B..3|--- .... ....
....|..|--- .... ....|--- .... ....|--- .... ....
..33|..|A#1 .C.. ....|A#1 .C.. B..5|--- .... ....
....|..|--- .... ....|--- .... ....|--- .... ....
....|..|--- .... ....|--- .... B..3|--- .... ....
....|..|--- .... ....|--- .... ....|--- .... ....
....|..|--- .... ....|--- .... B..5|--- .... ....
....|..|--- .... ....|--- .... ....|--- .... ....
....|..|--- .... ....|R-- .... B..3|R-- .... ....
....|..|--- .... ....|--- .... ....|--- .... ....
.300|..|A-4 .9.. ....|A-4 2F.F B..5|A-4 3F.F ....
..1B|..|A-2 .A.. ....|--- .... ....|R-- .... ....
....|..|--- .... ....|G-4 2F.F B..3|G-4 3F.F ....
.300|..|A-4 .9.. ....|--- .... ....|A-4 3F.A ....
..1B|..|A-2 .A.. ....|F-4 2F.F B..5|F-4 3F.F ....
....|..|--- .... ....|--- .... ....|G-4 3F.A ....
.100|..|A-2 .A.. ....|E-4 2F.F B..3|E-4 3F.F ....
....|..|--- .... ....|--- .... ....|F-4 3F.A ....

[Pattern8]
..50|..|D-1 2A.F ....|D-2 2AFF B..5|F-4 3F.F ....
....|..|--- .... ....|F-4 2F.F ....|E-4 3F.A ....
....|..|--- .... ....|F-4 2F.A B..3|F-4 3F.7 ....
....|..|--- .... ....|--- .... ....|F-4 3F.A ....
.200|..|D-1 .EE. ....|A-4 2F.7 B..5|E-4 38.7 ....
....|..|--- .... ....|--- .... ....|--- .... ....
.100|..|--- .... ....|G-4 2F.7 B..3|F-4 3E.7 ....
....|..|--- .... ....|--- .... ....|--- .... ....
....|..|--- .... ....|F-4 2F.7 B..5|--- .... ....
....|..|--- .... ....|--- .... ....|--- .... ....
....|..|--- .... ....|E-4 2F.7 B..3|--- .... ....
....|..|--- .... ....|--- .... ....|--- .... ....
....|..|--- .... ....|G-4 2F.F B..5|G-4 3F.F ....
..28|..|D-2 .A.. ....|D-2 2A.. ....|--- .... ....
....|..|--- .... ....|--- .... B..3|--- .... ....
....|..|--- .... ....|--- .... ....|G-4 3F.A ....
..22|..|F-2 2A.F ....|F-2 2AFF B..5|A-4 3F.F ....
....|..|--- .... ....|A-4 2F.F ....|--- .... ....
....|..|--- .... ....|G-4 2F.A B..3|G-4 3F.7 ....
....|..|--- .... ....|--- .... ....|A-4 3F.A ....
.100|..|A-6 .9.. ....|--- .... B..5|--- .... ....
.100|..|A-5 .9.. ....|--- .... ....|--- .... ....
.100|..|A-4 .9.. ....|A-4 2F.A B..3|A-4 3F.7 ....
.100|..|A-3 .9.. ....|--- .... ....|--- .... ....
.400|..|A-2 .82. ....|C-5 28.F B..5|C-5 38.F ....
....|..|--- .... ....|--- .... ....|--- .... ....
....|..|--- .... ....|--- .... B..3|--- .... ....
....|..|--- .... ....|--- .... ....|C-5 3..A ....
....|..|--- .... ....|A-4 2F.7 B..5|--- .... ....
....|..|--- .... ....|--- .... ....|--- .... ....
....|..|--- .... ....|C-5 2F.A B..3|C-5 3F.7 ....
....|..|--- .... ....|--- .... ....|--- .... ....
..19|..|A#1 2A.F ....|A#1 2AFF B..5|F-4 3F.F ....
....|..|--- .... ....|F-4 2F.F ....|--- .... ....
....|..|--- .... ....|--- .... B..3|--- .... ....
....|..|--- .... ....|--- .... ....|F-4 3F.A ....
.133|..|C-6 .9.. ....|C-5 2F.7 B..5|--- .... ....
....|..|C-1 .F.. ....|--- .... ....|--- .... ....
....|..|C-1 .... ....|F-4 2F.A B..3|F-4 3A.7 ....
.100|..|C-6 .9.. ....|--- .... ....|--- .... ....
....|..|C-1 .F.. ....|--- .... B..5|--- .... ....
....|..|C-1 .F.. ....|--- .... ....|--- .... ....
.200|..|F-6 .9.. ....|--- .... B..3|--- .... ....
....|..|--- .... ....|--- .... ....|--- .... ....
..19|..|A#3 .C.. ....|F-4 2F.7 B..5|--- .... ....
....|..|--- .... ....|--- .... ....|--- .... ....
....|..|--- .... ....|--- .... B..3|--- .... ....
....|..|--- .... ....|--- .... ....|--- .... ....
..33|..|A#1 .C.. ....|A#1 .C.. B..5|--- .... ....
....|..|--- .... ....|--- .... ....|--- .... ....
....|..|--- .... ....|--- .... B..3|--- .... ....
....|..|--- .... ....|--- .... ....|--- .... ....
....|..|--- .... ....|--- .... B..5|--- .... ....
....|..|--- .... ....|--- .... ....|--- .... ....
....|..|--- .... ....|R-- .... B..3|R-- .... ....
....|..|--- .... ....|--- .... ....|--- .... ....
.300|..|A-4 .8.. ....|A-4 28.F B..5|A-4 38.F ....
..1B|..|A-2 .A.. ....|--- .... ....|R-- .... ....
....|..|--- .... ....|G-4 2F.F B..3|G-4 3F.F ....
.300|..|A-4 .9.. ....|--- .... ....|A-4 3F.A ....
..1B|..|A-2 .A.. ....|F-4 2F.F B..5|F-4 3F.F ....
....|..|--- .... ....|--- .... ....|G-4 3F.A ....
.100|..|A-2 .A.. ....|E-4 2F.F B..3|E-4 3F.F ....
....|..|--- .... ....|--- .... ....|F-4 3F.A ....

[Pattern9]
..13|..|D#2 2AFF B...|A#4 2FF7 B..5|D#2 7A.F ....
....|..|--- .... ....|--- .... ....|--- .... ....
....|..|--- .... ....|G-4 2FFF B..3|--- .... 11.2
....|..|--- .... ....|--- .... ....|--- .... ....
....|..|--- .... ....|F-4 2FFF B..5|F-2 .F.A ....
....|..|--- .... ....|--- .... ....|--- .... ....
..13|..|D#2 2A.. ....|G-4 2FFF B..3|--- .... ....
....|..|--- .... ....|--- .... ....|--- .... ....
..4B|..|D#2 .C.. ....|A#4 2FFF B..5|G-2 .F.7 ....
....|..|--- .... ....|--- .... ....|--- .... ....
....|..|--- .... ....|F-4 2FF7 B..3|--- .... ....
....|..|--- .... ....|--- .... ....|--- .... ....
..11|..|F-2 2AFF ....|G-4 2FFF B..5|F-2 .A.F ....
....|..|--- .... ....|--- .... ....|--- .... ....
...F|..|G-2 .... ....|D-5 2FFF B..3|G-2 .A.F ....
....|..|--- .... ....|--- .... ....|--- .... ....
..11|..|F-2 2AFF ....|C-5 2FFF B..5|F-2 .A.F ....
....|..|--- .... ....|--- .... ....|--- .... ....
....|..|C-2 7F2B ....|A#4 2FFF B..3|C-3 .... ....
....|..|--- .... ....|--- .... ....|--- .... ....
....|..|--- .... ....|F-4 2FFF B..5|F-2 .... ....
....|..|--- .... ....|--- .... ....|--- .... ....
....|..|C-3 2FFA ....|C-5 2FFA B..3|C-3 .... ....
....|..|--- .... ....|--- .... ....|--- .... ....
..13|..|D#1 2AFF ....|A#4 2FFF B..5|D#2 .F.7 ....
....|..|--- .... ....|--- .... ....|--- .... ....
....|..|--- .... ....|A-4 2FFF B..3|G-2 .F.A ....
....|..|--- .... ....|--- .... ....|--- .... ....
....|..|F-3 2F27 ....|F-4 2FFF B..5|F-2 .F.A ....
....|..|--- .... ....|--- .... ....|--- .... ....
....|..|D#2 2F2A ....|D#4 2FFF B..3|--- .... ....
....|..|--- .... ....|--- .... ....|--- .... ....
...F|..|G-2 2A.F ....|D-4 2FFF B..5|G-2 .A.F ....
....|..|--- .... ....|--- .... ....|--- .... ....
....|..|--- .... ....|C-4 2FFF B..3|--- .... ....
....|..|--- .... ....|--- .... ....|--- .... ....
....|..|F-2 2FF7 ....|A#3 2FFF B..5|F-2 .F.7 ....
....|..|--- .... ....|--- .... ....|--- .... ....
....|..|G-2 2FFA ....|F-4 2FFF B..3|G-2 .F.7 ....
....|..|--- .... ....|--- .... ....|--- .... ....
.100|..|F-4 F9.F ....|A#3 2FFF B..5|F-2 .F.7 ....
....|..|--- .... ....|--- .... ....|--- .... ....
.200|..|F-4 F9.. ....|G-3 2FFF B..3|--- .... ....
....|..|--- .... ....|--- .... ....|--- .... ....
...F|..|G-2 2AFF ....|A#3 2FFF B..5|G-2 .F.A ....
....|..|--- .... ....|--- .... ....|--- .... ....
.100|..|F-4 F9.F ....|D-4 2FFF B..3|--- .... ....
....|..|--- .... ....|--- .... ....|--- .... ....
...F|..|G-2 2AFF ....|G-5 2FFF B..5|G-2 .A.F ....
....|..|--- .... ....|--- .... ....|--- .... ....
....|..|F-2 2FFA ....|D-5 2FFF B..3|--- .... ....
....|..|R-- .... ....|--- .... ....|--- .... ....
....|..|--- .... ....|A#4 2FFF B..5|--- .... ....
....|..|R-- .... ....|--- .... ....|--- .... ....
....|..|F-2 2FFA ....|G-4 2FFF B..3|--- .... ....
....|..|--- .... ....|--- .... ....|--- .... ....
..11|..|F-2 2A.F ....|F-5 2FFF B..5|F-2 .A.F ....
.100|..|F-5 .9.. ....|--- .... ....|--- .... ....
.200|..|F-5 .9.. ....|A#4 2FFF B..3|--- .... ....
.300|..|F-5 .9.. ....|--- .... ....|--- .... ....
....|..|F-2 2AFF ....|G-4 2FFF B..5|G-2 .F.A ....
....|..|R-- .... ....|--- .... ....|--- .... ....
....|..|--- .... ....|F-4 2FFF B..3|--- .... ....
....|..|R-- .... ....|--- .... ....|--- .... ....

[Pattern10]
..26|..|D#1 2A.F ....|A#4 2FFF B..5|D#2 2AEF ....
....|..|--- .... ....|F-5 2FFA ....|--- .... ....
....|..|G-4 3FE7 ....|G-5 2FF7 B..3|--- .... ....
....|..|D#1 2F.A ....|A#4 2FFA ....|--- .... ....
....|..|A#3 3FEF ....|A#4 2FFF B..5|F-2 2FE7 ....
....|..|--- .... ....|--- .... ....|--- .... ....
....|..|D#1 2F.7 ....|A#4 2FF7 B..3|D#2 2FEA ....
....|..|--- .... ....|A#4 2FFA ....|--- .... ....
....|..|F-4 3FEF ....|F-5 2FFF B..5|--- .... ....
....|..|--- .... ....|--- .... ....|--- .... ....
....|..|F-4 3FE7 ....|A#4 2FF7 B..3|--- .... ....
....|..|--- .... ....|F-5 2FFA ....|--- .... ....
..22|..|F-1 2A.F ....|--- .... B..5|F-2 2AEF ....
....|..|--- .... ....|--- .... ....|--- .... ....
..1E|..|G-1 2A.F ....|F-5 2FF7 B..3|G-2 2AEF ....
....|..|F-1 2F.A ....|--- .... ....|--- .... ....
..22|..|F-1 2A.F ....|D-5 2FFF B..5|F-2 2AEF ....
....|..|G-1 2F.A ....|--- .... ....|--- .... ....
....|..|R-- .... ....|R-- .... B..3|F-2 2FEA ....
....|..|F-1 2F.A ....|D-5 2FFA ....|--- .... ....
....|..|D-4 3FEF ....|D-5 2FFF B..5|G-2 2FEA ....
....|..|--- .... ....|R-- .... ....|--- .... ....
....|..|D-4 3FEA ....|D-5 2FF7 B..3|F-2 2FEA ....
....|..|D-4 3FEF ....|D-5 2FFF ....|--- .... ....
....|..|C-4 3FEF ....|C-5 2FFF B..5|F-2 2FE7 ....
....|..|--- .... ....|R-- .... ....|--- .... ....
....|..|A#3 3FEF ....|A#4 2FFF B..3|G-2 2FE7 ....
....|..|--- .... ....|C-5 2FFA ....|--- .... ....
....|..|A#3 3FEF ....|A#4 2FFF B..5|F-2 2FE7 ....
....|..|C-4 3FEF ....|C-5 2FFF ....|--- .... ....
....|..|D-4 3FEF ....|D-5 2FFF B..3|--- .... ....
....|..|D#4 3FEF ....|D#5 2FFF ....|--- .... ....
..1E|..|G-1 2A.F ....|D-5 2FFF B..5|G-2 2AEF ....
....|..|--- .... ....|D-5 2FFA ....|--- .... ....
....|..|G-3 3FEF ....|G-4 2FFF B..3|--- .... ....
....|..|G-1 2F.A ....|C-5 2FF7 ....|--- .... ....
....|..|A#3 3FEF ....|A#4 2FFF B..5|--- .... ....
....|..|D#4 3FEA ....|D#5 2FF7 ....|--- .... ....
....|..|A#3 3FEF ....|A#4 2FFF B..3|G-2 2FEA ....
....|..|--- .... ....|A#4 2FFA ....|--- .... ....
....|..|A#3 3FEF ....|A#4 2FFF B..5|--- .... ....
....|..|C-4 3FE7 ....|A#4 2FFA ....|--- .... ....
....|..|G-3 3FEF ....|G-4 2FFF B..3|--- .... ....
....|..|D#4 3FE7 ....|A#4 2FFA ....|--- .... ....
....|..|A#3 3FEF ....|A#4 2FFF B..5|G-2 2FE7 ....
....|..|--- .... ....|G-4 2FFA ....|--- .... ....
....|..|A#3 3FEF ....|A#4 2FFF B..3|--- .... ....
....|..|--- .... ....|A#4 2FFA ....|--- .... ....
..1E|..|G-1 2A.F ....|F-5 2FFF B..5|G-2 2AEF ....
....|..|--- .... ....|A#4 2FFA ....|--- .... ....
....|..|A#3 3FEF ....|A#4 2FFF B..3|--- .... ....
....|..|A#3 3FEF ....|A#4 2FFF ....|--- .... ....
....|..|A#3 3FEF ....|A#4 2FFF B..5|--- .... ....
....|..|--- .... ....|A#4 2FFA ....|--- .... ....
....|..|C-4 3FEF ....|C-5 2FFF B..3|G-2 2FEA ....
....|..|--- .... ....|A#4 2FFA ....|--- .... ....
..22|..|F-1 2A.F ....|A#4 2FFF B..5|F-2 2AEF ....
....|..|A#3 3FEA ....|A#4 2FF7 ....|--- .... ....
....|..|A-3 3FEF ....|A-4 2FFF B..3|--- .... ....
....|..|F-1 2F.A ....|A#4 2FFA ....|--- .... ....
....|..|G-3 3FEF ....|G-4 2FFF B..5|G-2 2FE7 ....
....|..|--- .... ....|A-4 2FFA ....|--- .... ....
....|..|F-3 3FEF ....|F-4 2FFF B..3|F-2 2FEA ....
....|..|A#3 3FE7 ....|G-4 2FFA ....|--- .... ....

[Pattern11]
..50|..|D-1 2A.F ....|C-4 9F.F B..5|F-4 3F.F ....
....|..|--- .... ....|--- .... ....|E-4 3F.A ....
....|..|--- .... ....|C-4 9F.F B..3|F-4 3F.7 ....
....|..|--- .... ....|--- .... ....|F-4 3F.A ....
.200|..|D-1 .EE. ....|C-4 9F.D B..5|E-4 38.7 ....
....|..|--- .... ....|--- .... ....|--- .... ....
.100|..|--- .... ....|C-4 9F.D B..3|F-4 3E.7 ....
....|..|--- .... ....|--- .... ....|--- .... ....
....|..|--- .... ....|C-4 K..A B..5|--- .... ....
....|..|--- .... ....|--- .... ....|--- .... ....
....|..|--- .... ....|C-4 KF.B B..3|--- .... ....
....|..|--- .... ....|--- .... ....|--- .... ....
....|..|--- .... ....|C-4 CF.F B..5|G-4 3F.F ....
..28|..|D-2 .A.. ....|D-1 2C.B ....|--- .... ....
....|..|--- .... ....|--- .... B..3|--- .... ....
....|..|--- .... ....|--- .... ....|G-4 3F.A ....
..22|..|F-2 2A.F ....|C-4 VF.F B..5|A-4 3F.F ....
....|..|--- .... ....|--- .... ....|--- .... ....
....|..|--- .... ....|C-3 9..6 B..3|G-4 3F.7 ....
....|..|--- .... ....|--- .... ....|A-4 3F.A ....
.100|..|F-6 .9.. ....|F-3 2C.B B..5|--- .... ....
.100|..|F-5 .9.. ....|--- .... ....|--- .... ....
.100|..|F-4 .9.. ....|C-4 VF.C B..3|A-4 3F.7 ....
.100|..|F-3 .9.. ....|--- .... ....|--- .... ....
.400|..|F-2 .8.. ....|C-4 K..A B..5|C-5 38.F ....
....|..|--- .... ....|--- .... ....|--- .... ....
....|..|--- .... ....|C-4 KF.B B..3|--- .... ....
....|..|--- .... ....|--- .... ....|C-5 3..A ....
....|..|--- .... ....|C-4 9F.A B..5|--- .... ....
....|..|--- .... ....|--- .... ....|--- .... ....
....|..|--- .... ....|C-2 2F2B B..3|C-5 3F.7 ....
....|..|--- .... ....|--- .... ....|--- .... ....
..19|..|A#1 2A.F ....|C-4 9F.F B..5|F-4 3F.F ....
....|..|--- .... ....|--- .... ....|--- .... ....
....|..|--- .... ....|C-4 9F.F B..3|--- .... ....
....|..|--- .... ....|--- .... ....|F-4 3F.A ....
.133|..|A#5 .9.. ....|C-4 9F.D B..5|--- .... ....
....|..|A#1 .F.. ....|--- .... ....|--- .... ....
....|..|A#1 .... ....|C-4 9F.D B..3|F-4 3A.7 ....
.100|..|A#5 .9.. ....|A#3 7C.. ....|--- .... ....
....|..|A#1 .F.. ....|--- .... B..5|--- .... ....
....|..|A#1 .F.. ....|--- .... ....|--- .... ....
.200|..|A#5 .9.. ....|C-4 9F.C B..3|--- .... ....
....|..|--- .... ....|--- .... ....|--- .... ....
..19|..|A#3 .C.. ....|F-2 2F2B B..5|--- .... ....
....|..|--- .... ....|--- .... ....|--- .... ....
....|..|--- .... ....|--- .... B..3|--- .... ....
....|..|--- .... ....|--- .... ....|--- .... ....
..33|..|A#1 .C.. ....|C-4 VF.F B..5|--- .... ....
....|..|--- .... ....|--- .... ....|--- .... ....
....|..|--- .... ....|A#4 2F2B B..3|--- .... ....
....|..|--- .... ....|--- .... ....|--- .... ....
....|..|--- .... ....|--- .... B..5|--- .... ....
....|..|--- .... ....|--- .... ....|--- .... ....
....|..|--- .... ....|C-4 VF.C B..3|R-- .... ....
....|..|--- .... ....|--- .... ....|--- .... ....
.300|..|A-4 .8.. ....|A-3 2F2B B..5|A-4 38.F ....
..1B|..|A-2 .A.. ....|--- .... ....|R-- .... ....
....|..|--- .... ....|--- .... B..3|G-4 3F.F ....
.300|..|A-4 .9.. ....|--- .... ....|A-4 3F.A ....
..1B|..|A-2 .A.. ....|C-4 VF.9 B..5|F-4 3F.F ....
....|..|--- .... ....|--- .... ....|G-4 3F.A ....
.100|..|A-2 .A.. ....|--- .... B..3|E-4 3F.F ....
....|..|--- .... ....|--- .... ....|F-4 3F.A ....

[Pattern12]
..1E|..|G-2 2A.F ....|D-4 2F3F B..5|G-2 2AFF ....
....|..|--- .... ....|--- .... ....|--- .... ....
....|..|--- .... ....|E-6 3FCA B..3|--- .... ....
....|..|--- .... ....|R-- .... ....|--- .... ....
.200|..|G-2 .EE. ....|B-6 3FCF B..5|--- .... ....
....|..|--- .... ....|G-4 2F.A ....|--- .... ....
.100|..|--- .... ....|D-4 2F3A B..3|G-2 2FFA ....
....|..|--- .... ....|--- .... ....|--- .... ....
....|..|--- .... ....|G-6 3FCF B..5|C-2 2FF7 ....
....|..|--- .... ....|R-- .... ....|R-- .... ....
....|..|--- .... ....|B-6 3FCA B..3|--- .... ....
....|..|--- .... ....|G-4 2F.7 ....|--- .... ....
..1E|..|G-2 .A.. ....|D-6 3FCF B..5|G-2 2AFF ....
...F|..|G-3 .A.. ....|D-4 2F37 ....|R-- .... ....
....|..|--- .... ....|G-6 3FCA B..3|--- .... ....
....|..|--- .... ....|--- .... ....|R-- .... ....
..1E|..|G-2 2A.F ....|B-6 3FC7 B..5|G-2 2AFF ....
....|..|--- .... ....|--- .... ....|--- .... ....
....|..|--- .... ....|D-6 3FCA B..3|G-2 2FFA ....
....|..|--- .... ....|--- .... ....|R-- .... ....
.100|..|G-6 .9.. ....|B-6 3FCF B..5|--- .... ....
.100|..|G-5 .9.. ....|--- .... ....|R-- .... ....
.100|..|G-4 .9.. ....|R-- .... B..3|G-2 2FFA ....
.100|..|G-3 .9.. ....|--- .... ....|--- .... ....
.400|..|G-2 .8.. ....|G-6 3FCF B..5|G-2 2FF7 ....
....|..|--- .... ....|R-- .... ....|R-- .... ....
....|..|--- .... ....|B-6 3FCA B..3|--- .... ....
....|..|--- .... ....|--- .... ....|--- .... ....
....|..|--- .... ....|D-6 3FCF B..5|G-2 2AFF ....
....|..|--- .... ....|R-- .... ....|R-- .... ....
....|..|--- .... ....|R-- .... B..3|--- .... ....
....|..|--- .... ....|R-- .... ....|R-- .... ....
..19|..|A#1 2A.F ....|A#3 2F4F B..5|A#1 2AFF ....
....|..|--- .... ....|--- .... ....|--- .... ....
....|..|--- .... ....|A#5 3FCA B..3|D#2 2FFA ....
....|..|--- .... ....|R-- .... ....|R-- .... ....
.133|..|A#5 .9.. ....|A#6 3FCF B..5|--- .... ....
....|..|A#1 .F.. ....|R-- .... ....|R-- .... ....
....|..|A#1 .... ....|A#3 2F4A B..3|A#1 2FFA ....
.100|..|A#5 .9.. ....|--- .... ....|--- .... ....
....|..|A#1 .F.. ....|F-6 3FCF B..5|D#2 2FF7 ....
....|..|A#1 .F.. ....|R-- .... ....|R-- .... ....
.200|..|A#5 .9.. ....|A#6 3FCA B..3|--- .... ....
....|..|--- .... ....|R-- .... ....|--- .... ....
..19|..|A#3 .C.. ....|D-6 3FCF B..5|A#1 2AFF ....
....|..|--- .... ....|A#3 2F47 ....|R-- .... ....
....|..|--- .... ....|F-6 3FCA B..3|--- .... ....
....|..|--- .... ....|R-- .... ....|R-- .... ....
..33|..|A#1 .C.. ....|A#6 3FCF B..5|C#2 2AFF ....
....|..|--- .... ....|R-- .... ....|--- .... ....
....|..|--- .... ....|C#6 3FCA B..3|A-1 2FFA ....
....|..|--- .... ....|R-- .... ....|R-- .... ....
....|..|--- .... ....|E-6 3FC7 B..5|D-2 2AFF ....
....|..|--- .... ....|R-- .... ....|R-- .... ....
....|..|--- .... ....|A#6 3FCA B..3|C#2 2FFA ....
....|..|--- .... ....|R-- .... ....|R-- .... ....
.300|..|A-4 .8.. ....|C#6 3FC7 B..5|E-2 2CFF ....
..1B|..|A-2 .A.. ....|R-- .... ....|R-- .... ....
....|..|--- .... ....|--- .... B..3|D-2 2FFA ....
.300|..|A-4 .9.. ....|--- .... ....|--- .... ....
..1B|..|A-2 .A.. ....|A-6 3FC7 B..5|A-1 2AFF ....
....|..|--- .... ....|R-- .... ....|R-- .... ....
.100|..|A-2 .A.. ....|R-- .... B..3|E-2 2FFA ....
....|..|--- .... ....|--- .... ....|R-- .... ....

[Pattern13]
..1B|..|A-1 2AFF B..4|--- .... ....|--- .... ....
....|..|--- .... ....|--- .... ....|--- .... ....
....|..|--- .... ....|--- .... ....|--- .... ....
....|..|--- .... ....|--- .... ....|--- .... ....
....|..|--- .... ....|--- .... ....|--- .... ....
....|..|--- .... ....|--- .... ....|--- .... ....
....|..|A-2 2... ....|--- .... ....|--- .... ....
....|..|--- .... ....|--- .... ....|--- .... ....
....|..|--- .... ....|--- .... ....|--- .... ....
....|..|--- .... ....|--- .... ....|--- .... ....
....|..|--- .... ....|--- .... ....|--- .... ....
....|..|--- .... ....|--- .... ....|--- .... ....
..1B|..|A-2 2AFF ....|--- .... ....|--- .... ....
....|..|--- .... ....|--- .... ....|--- .... ....
....|..|--- .... ....|--- .... ....|--- .... ....
....|..|--- .... ....|--- .... ....|--- .... ....
.100|..|F-4 F9.. ....|--- .... ....|--- .... ....
....|..|--- .... ....|--- .... ....|--- .... ....
.200|..|F-4 F9.. ....|--- .... ....|--- .... ....
....|..|--- .... ....|--- .... ....|--- .... ....
....|..|--- .... ....|--- .... ....|--- .... ....
....|..|--- .... ....|--- .... ....|--- .... ....
....|..|A-2 2FFA ....|--- .... ....|--- .... ....
....|..|--- .... ....|--- .... ....|--- .... ....
..3C|..|G-2 2AFF ....|--- .... ....|--- .... ....
....|..|--- .... ....|--- .... ....|--- .... ....
....|..|--- .... ....|--- .... ....|--- .... ....
....|..|--- .... ....|--- .... ....|--- .... ....
....|..|A-2 2F27 ....|--- .... ....|--- .... ....
....|..|--- .... ....|--- .... ....|--- .... ....
....|..|G-2 2F2A ....|--- .... ....|--- .... ....
....|..|--- .... ....|--- .... ....|--- .... ....
..11|..|F-2 2A2F ....|--- .... ....|--- .... ....
....|..|--- .... ....|--- .... ....|--- .... ....
....|..|--- .... ....|--- .... ....|--- .... ....
....|..|--- .... ....|--- .... ....|--- .... ....
....|..|G-2 2FF7 ....|--- .... ....|--- .... ....
....|..|--- .... ....|--- .... ....|--- .... ....
....|..|F-2 2FFA ....|--- .... ....|--- .... ....
....|..|--- .... ....|--- .... ....|--- .... ....
.100|..|F-4 F9.. ....|--- .... ....|--- .... ....
.100|..|E-4 F9.. ....|--- .... ....|--- .... ....
.100|..|D-4 F9.. ....|--- .... ....|--- .... ....
.100|..|C-4 .... ....|--- .... ....|--- .... ....
..22|..|F-2 2AFF ....|--- .... ....|--- .... ....
....|..|--- .... ....|--- .... ....|--- .... ....
.200|..|C-4 F9.. ....|--- .... ....|--- .... ....
....|..|--- .... ....|--- .... ....|--- .... ....
..11|..|F-2 2AFF ....|--- .... ....|--- .... ....
....|..|--- .... ....|--- .... ....|--- .... ....
.200|..|C-4 F93. ....|--- .... ....|--- .... ....
....|..|--- .... ....|--- .... ....|--- .... ....
....|..|--- .... ....|--- .... ....|--- .... ....
....|..|R-- .... ....|--- .... ....|--- .... ....
....|..|F-2 2FFA ....|--- .... ....|--- .... ....
....|..|--- .... ....|--- .... ....|--- .... ....
.100|..|F-5 T9.. ....|--- .... ....|--- .... ....
.100|..|F-5 .9.. ....|--- .... ....|--- .... ....
.100|..|F-5 .9.. ....|--- .... ....|--- .... ....
.100|..|F-5 .9.. ....|--- .... ....|--- .... ....
..11|..|F-2 2AFF ....|--- .... ....|--- .... ....
....|..|R-- .... ....|--- .... ....|--- .... ....
....|..|--- .... ....|--- .... ....|--- .... ....
....|..|R-- .... ....|--- .... ....|--- .... ....

[Pattern14]
..1B|..|A-1 2AFF B..4|C-4 AF.F ....|R-- .... ....
....|..|--- .... ....|--- .... ....|--- .... ....
....|..|--- .... ....|--- .... ....|--- .... ....
....|..|--- .... ....|--- .... ....|--- .... ....
....|..|--- .... ....|--- .... ....|--- .... ....
....|..|--- .... ....|--- .... ....|--- .... ....
....|..|A-2 2... ....|--- .... ....|--- .... ....
....|..|--- .... ....|--- .... ....|--- .... ....
....|..|--- .... ....|--- .... ....|--- .... ....
....|..|--- .... ....|--- .... ....|--- .... ....
....|..|--- .... ....|--- .... ....|--- .... ....
....|..|--- .... ....|--- .... ....|--- .... ....
..1B|..|A-2 2AFF ....|--- .... ....|--- .... ....
....|..|--- .... ....|--- .... ....|--- .... ....
....|..|--- .... ....|--- .... ....|--- .... ....
....|..|--- .... ....|--- .... ....|--- .... ....
..1B|..|A-2 2AFF ....|--- .... ....|--- .... ....
....|..|--- .... ....|--- .... ....|--- .... ....
....|..|A-1 7... ....|--- .... ....|--- .... ....
....|..|--- .... ....|--- .... ....|--- .... ....
....|..|--- .... ....|--- .... ....|--- .... ....
....|..|--- .... ....|--- .... ....|--- .... ....
....|..|A-2 2FFA ....|--- .... ....|--- .... ....
....|..|--- .... ....|--- .... ....|--- .... ....
..3C|..|G-2 2AFF ....|--- .... ....|--- .... ....
....|..|--- .... ....|--- .... ....|--- .... ....
....|..|--- .... ....|--- .... ....|--- .... ....
....|..|--- .... ....|--- .... ....|--- .... ....
....|..|A-2 2F27 ....|--- .... ....|--- .... ....
....|..|--- .... ....|--- .... ....|--- .... ....
....|..|G-2 2F2A ....|--- .... ....|--- .... ....
....|..|--- .... ....|--- .... ....|--- .... ....
..11|..|F-2 2A2F ....|--- .... ....|--- .... ....
....|..|--- .... ....|--- .... ....|--- .... ....
....|..|--- .... ....|--- .... ....|--- .... ....
....|..|--- .... ....|--- .... ....|--- .... ....
....|..|G-2 2FF7 ....|--- .... ....|--- .... ....
....|..|--- .... ....|--- .... ....|--- .... ....
....|..|F-2 2FFA ....|--- .... ....|--- .... ....
....|..|--- .... ....|--- .... ....|--- .... ....
.100|..|F-4 F9.. ....|--- .... ....|--- .... ....
....|..|--- .... ....|--- .... ....|--- .... ....
.100|..|F-4 F9.. ....|--- .... ....|--- .... ....
....|..|--- .... ....|--- .... ....|--- .... ....
..22|..|F-2 2AFF ....|--- .... ....|--- .... ....
....|..|--- .... ....|--- .... ....|--- .... ....
.200|..|F-4 F9.. ....|--- .... ....|--- .... ....
....|..|--- .... ....|--- .... ....|--- .... ....
..11|..|F-2 2AFF ....|--- .... ....|--- .... ....
....|..|--- .... ....|--- .... ....|--- .... ....
....|..|F-2 2FFA ....|--- .... ....|--- .... ....
....|..|R-- .... ....|--- .... ....|--- .... ....
....|..|--- .... ....|--- .... ....|--- .... ....
....|..|R-- .... ....|--- .... ....|--- .... ....
....|..|F-2 2FFA ....|--- .... ....|--- .... ....
....|..|--- .... ....|--- .... ....|--- .... ....
.100|..|F-5 T9.. ....|--- .... ....|--- .... ....
.100|..|F-5 .9.. ....|--- .... ....|--- .... ....
.100|..|F-5 .9.. ....|--- .... ....|--- .... ....
.100|..|F-5 .9.. ....|--- .... ....|--- .... ....
..11|..|F-2 2AFF ....|--- .... ....|--- .... ....
....|..|R-- .... ....|--- .... ....|--- .... ....
....|..|--- .... ....|--- .... ....|--- .... ....
....|..|R-- .... ....|--- .... ....|--- .... ....

[Pattern15]
..1B|..|A-1 2AFF B..4|C-4 9F.F B..5|--- .... ....
....|..|--- .... ....|--- .... ....|--- .... ....
....|..|--- .... ....|C-4 9F.F B..3|--- .... ....
....|..|--- .... ....|--- .... ....|--- .... ....
....|..|--- .... ....|C-4 9F.D B..5|--- .... ....
....|..|--- .... ....|--- .... ....|--- .... ....
....|..|A-2 2... ....|C-4 9F.D B..3|--- .... ....
....|..|--- .... ....|--- .... ....|--- .... ....
....|..|--- .... ....|C-4 K..A B..5|--- .... ....
....|..|--- .... ....|--- .... ....|--- .... ....
....|..|--- .... ....|E-5 2F.B B..3|--- .... ....
....|..|--- .... ....|--- .... ....|--- .... ....
..1B|..|A-2 2AFF ....|A-4 2F.B B..5|--- .... ....
....|..|--- .... ....|A-4 2F1B ....|--- .... ....
....|..|--- .... ....|F-5 2F.B B..3|--- .... ....
....|..|--- .... ....|--- .... ....|--- .... ....
.100|..|F-4 F9.. ....|C-4 9F.F B..5|--- .... ....
....|..|--- .... ....|--- .... ....|--- .... ....
.200|..|F-4 F9.. ....|C-4 9F.F B..3|--- .... ....
....|..|--- .... ....|--- .... ....|--- .... ....
....|..|--- .... ....|C-4 9F.D B..5|--- .... ....
....|..|--- .... ....|--- .... ....|--- .... ....
....|..|A-2 2FFA ....|C-4 9F.D B..3|--- .... ....
....|..|--- .... ....|--- .... ....|--- .... ....
..3C|..|G-2 2AFF ....|C-4 K..A B..5|--- .... ....
....|..|--- .... ....|--- .... ....|--- .... ....
....|..|--- .... ....|A-4 2F.C B..3|--- .... ....
....|..|--- .... ....|C-5 2F.C ....|--- .... ....
....|..|A-2 2F27 ....|A-4 2F.C B..5|--- .... ....
....|..|--- .... ....|E-5 2F.C ....|--- .... ....
....|..|G-2 2F2A ....|F-5 2F.C B..3|--- .... ....
....|..|--- .... ....|A-4 2F14 ....|--- .... ....
..11|..|F-2 2A2F ....|C-4 9F.F B..5|--- .... ....
....|..|--- .... ....|--- .... ....|--- .... ....
....|..|--- .... ....|C-4 9F.F B..3|--- .... ....
....|..|--- .... ....|--- .... ....|--- .... ....
....|..|G-2 2FF7 ....|C-4 9F.D B..5|--- .... ....
....|..|--- .... ....|--- .... ....|--- .... ....
....|..|F-2 2FFA ....|C-4 9F.D B..3|--- .... ....
....|..|--- .... ....|--- .... ....|--- .... ....
.100|..|F-4 F9.. ....|C-4 K..A B..5|--- .... ....
.100|..|E-4 F9.. ....|--- .... ....|--- .... ....
.100|..|D-4 F9.. ....|E-5 2F.D B..3|--- .... ....
.100|..|C-4 .... ....|--- .... ....|--- .... ....
..22|..|F-2 2AFF ....|A-4 2F.D B..5|--- .... ....
....|..|--- .... ....|A-4 2F1D ....|--- .... ....
.200|..|C-4 F9.. ....|F-5 2F.D B..3|--- .... ....
....|..|--- .... ....|--- .... ....|--- .... ....
..11|..|F-2 2AFF ....|C-4 9F.F B..5|--- .... ....
....|..|--- .... ....|--- .... ....|--- .... ....
.200|..|C-4 F93. ....|C-4 9F.F B..3|--- .... ....
....|..|--- .... ....|--- .... ....|--- .... ....
....|..|--- .... ....|C-4 9F.D B..5|--- .... ....
....|..|R-- .... ....|--- .... ....|--- .... ....
....|..|F-2 2FFA ....|C-4 9F.D B..3|--- .... ....
....|..|--- .... ....|--- .... ....|--- .... ....
.100|..|F-5 T9.. ....|C-4 K..A B..5|--- .... ....
.100|..|F-5 .9.. ....|--- .... ....|--- .... ....
.100|..|F-5 .9.. ....|A-4 2F.E B..3|--- .... ....
.100|..|F-5 .9.. ....|C-5 2F.E ....|--- .... ....
..11|..|F-2 2AFF ....|A-4 2F.E B..5|--- .... ....
....|..|R-- .... ....|C-5 2F.E ....|--- .... ....
....|..|--- .... ....|D-5 2F.E B..3|--- .... ....
....|..|R-- .... ....|A-4 2F16 ....|--- .... ....

[Pattern16]
..28|..|D-2 2AFF B..4|C-4 9F.F B..5|--- .... ....
....|..|--- .... ....|--- .... ....|--- .... ....
....|..|--- .... ....|C-4 9F.F B..3|--- .... ....
....|..|--- .... ....|--- .... ....|--- .... ....
....|..|--- .... ....|C-4 9F.D B..5|--- .... ....
....|..|--- .... ....|--- .... ....|--- .... ....
.200|..|D-3 2A.. ....|C-4 9F.D B..3|--- .... ....
....|..|--- .... ....|--- .... ....|--- .... ....
..14|..|D-3 .C.. ....|C-4 K..A B..5|--- .... ....
....|..|--- .... ....|D-3 2F2F ....|--- .... ....
....|..|--- .... ....|D-5 2F.7 B..3|--- .... ....
....|..|--- .... ....|D-3 2F.A ....|--- .... ....
..28|..|D-2 2AFF ....|E-5 2F.F B..5|--- .... ....
....|..|--- .... ....|R-- .... ....|--- .... ....
..50|..|--- .... ....|D-3 2F2A B..3|--- .... ....
....|..|--- .... ....|E-4 2F.A ....|--- .... ....
..2D|..|C-2 2AFF ....|C-4 9F.F B..5|--- .... ....
....|..|--- .... ....|--- .... ....|--- .... ....
....|..|C-2 7F2B ....|C-4 9F.F B..3|--- .... ....
....|..|--- .... ....|--- .... ....|--- .... ....
....|..|--- .... ....|C-4 9F.D B..5|--- .... ....
....|..|--- .... ....|--- .... ....|--- .... ....
....|..|C-3 2FFA ....|C-4 9F.D B..3|--- .... ....
....|..|--- .... ....|--- .... ....|--- .... ....
..5A|..|C-2 2AFF ....|C-4 K..A B..5|--- .... ....
....|..|--- .... ....|R-- .... ....|--- .... ....
....|..|--- .... ....|F-5 2F.F B..3|--- .... ....
....|..|--- .... ....|G-4 2F.A ....|--- .... ....
....|..|A-2 2F27 ....|E-5 2F.F B..5|--- .... ....
....|..|--- .... ....|F-4 2F.A ....|--- .... ....
.32D|..|D-3 2F2A ....|D-5 2F.F B..3|--- .... ....
....|..|--- .... ....|E-4 2F.A ....|--- .... ....
..44|..|F-2 2A.F ....|F-3 2CFF B..5|--- .... ....
....|..|--- .... ....|F-3 2F.F ....|--- .... ....
....|..|--- .... ....|E-5 2F.A B..3|--- .... ....
....|..|--- .... ....|F-4 2F.A ....|--- .... ....
....|..|G-2 2FF7 ....|C-5 2F.F B..5|--- .... ....
....|..|--- .... ....|R-- .... ....|--- .... ....
....|..|F-2 2FFA ....|F-5 2F.7 B..3|--- .... ....
....|..|--- .... ....|C-4 2F.A ....|--- .... ....
.111|..|F-4 F9.. ....|C-4 9F.F B..5|--- .... ....
....|..|--- .... ....|--- .... ....|--- .... ....
.144|..|F-4 F9.. ....|C-4 9F.F B..3|--- .... ....
....|..|--- .... ....|--- .... ....|--- .... ....
..11|..|F-2 2AFF ....|C-4 9F.D B..5|--- .... ....
....|..|--- .... ....|--- .... ....|--- .... ....
.100|..|F-4 F9.. ....|C-4 9F.D B..3|--- .... ....
....|..|--- .... ....|--- .... ....|--- .... ....
..11|..|F-3 2AFF ....|C-4 9F.F B..5|--- .... ....
....|..|--- .... ....|--- .... ....|--- .... ....
....|..|F-2 2FFA ....|C-4 9F.F B..3|--- .... ....
....|..|R-- .... ....|--- .... ....|--- .... ....
....|..|--- .... ....|C-4 9F.D B..5|--- .... ....
....|..|R-- .... ....|--- .... ....|--- .... ....
....|..|F-2 2FFA ....|C-4 9F.D B..3|--- .... ....
....|..|--- .... ....|--- .... ....|--- .... ....
..87|..|F-5 T9.. ....|C-4 K..A B..5|--- .... ....
....|..|F-5 .9.. ....|R-- .... ....|--- .... ....
....|..|F-5 .9.. ....|D-5 2F.F B..3|--- .... ....
....|..|F-5 .9.. ....|E-4 2F.A ....|--- .... ....
.344|..|F-2 2AFF ....|C-5 2F.F B..5|--- .... ....
....|..|R-- .... ....|D-4 2F.A ....|--- .... ....
....|..|--- .... ....|D-5 2F.F B..3|--- .... ....
....|..|R-- .... ....|C-4 2F.A ....|--- .... ....

[Pattern17]
..28|..|D-2 2AFF B..4|C-4 9F.F B..5|D-3 9FFF ....
....|..|--- .... ....|--- .... ....|F-4 2F.F ....
....|..|--- .... ....|C-4 9F.F B..3|C-5 2F.A ....
....|..|--- .... ....|--- .... ....|R-- .... ....
....|..|--- .... ....|C-4 9F.D B..5|D-4 KF.F ....
....|..|--- .... ....|--- .... ....|--- .... ....
.200|..|D-3 2A.. ....|C-4 9F.D B..3|D-5 2F.7 ....
....|..|--- .... ....|--- .... ....|D-4 K..F ....
..14|..|D-3 .C.. ....|C-4 K..A B..5|C-5 2F.7 ....
....|..|--- .... ....|D-3 2F2F ....|--- .... ....
....|..|--- .... ....|D-5 2F.7 B..3|D-4 AF.F ....
....|..|--- .... ....|D-3 2F.A ....|--- .... ....
..28|..|D-2 2AFF ....|E-5 2F.F B..5|G-4 2F.F ....
....|..|--- .... ....|R-- .... ....|--- .... ....
..50|..|--- .... ....|D-3 2F2A B..3|--- .... ....
....|..|--- .... ....|E-4 2F.A ....|--- .... ....
..2D|..|C-2 2AFF ....|C-4 9F.F B..5|F-5 OFFF ....
....|..|--- .... ....|--- .... ....|D-5 KF.A ....
....|..|C-2 7F2B ....|C-4 9F.F B..3|G-4 2F.A ....
....|..|--- .... ....|--- .... ....|--- .... ....
....|..|--- .... ....|C-4 9F.D B..5|--- .... ....
....|..|--- .... ....|--- .... ....|--- .... ....
....|..|C-3 2FFA ....|C-4 9F.D B..3|D-5 9F.F ....
....|..|--- .... ....|--- .... ....|--- .... ....
..5A|..|C-2 2AFF ....|C-4 K..A B..5|C-5 2F.F ....
....|..|--- .... ....|R-- .... ....|D-4 9F.E ....
....|..|--- .... ....|F-5 2F.F B..3|--- .... ....
....|..|--- .... ....|G-4 2F.A ....|--- .... ....
....|..|A-2 2F27 ....|E-5 2F.F B..5|D-3 9F.D ....
....|..|--- .... ....|F-4 2F.A ....|--- .... ....
.32D|..|D-3 2F2A ....|D-5 2F.F B..3|C-5 2F.A ....
....|..|--- .... ....|E-4 2F.A ....|--- .... ....
..44|..|F-2 2A.F ....|F-3 2CFF B..5|D-3 9FFF ....
....|..|--- .... ....|F-3 2F.F ....|F-4 2F.F ....
....|..|--- .... ....|E-5 2F.A B..3|--- .... ....
....|..|--- .... ....|F-4 2F.A ....|--- .... ....
....|..|G-2 2FF7 ....|C-5 2F.F B..5|D-4 KF.F ....
....|..|--- .... ....|R-- .... ....|--- .... ....
....|..|F-2 2FFA ....|F-5 2F.7 B..3|F-4 2F.A ....
....|..|--- .... ....|C-4 2F.A ....|D-4 B..D ....
.111|..|F-4 F9.. ....|C-4 9F.F B..5|--- .... ....
....|..|--- .... ....|--- .... ....|--- .... ....
.144|..|F-4 F9.. ....|C-4 9F.F B..3|D-4 B..C ....
....|..|--- .... ....|--- .... ....|--- .... ....
..11|..|F-2 2AFF ....|C-4 9F.D B..5|F-4 2F.7 ....
....|..|--- .... ....|--- .... ....|--- .... ....
.100|..|F-4 F9.. ....|C-4 9F.D B..3|--- .... ....
....|..|--- .... ....|--- .... ....|--- .... ....
..11|..|F-3 2AFF ....|C-4 9F.F B..5|A#3 A..D ....
....|..|--- .... ....|--- .... ....|--- .... ....
....|..|F-2 2FFA ....|C-4 9F.F B..3|A#3 A... ....
....|..|R-- .... ....|--- .... ....|A#3 K... ....
....|..|--- .... ....|C-4 9F.D B..5|A#3 A... ....
....|..|R-- .... ....|--- .... ....|--- .... ....
....|..|F-2 2FFA ....|C-4 9F.D B..3|A#3 F... ....
....|..|--- .... ....|--- .... ....|--- .... ....
..87|..|F-5 T9.. ....|C-4 K..A B..5|A-4 AF.F ....
....|..|F-5 .9.. ....|R-- .... ....|--- .... ....
....|..|F-5 .9.. ....|D-5 2F.F B..3|G-4 2F.F ....
....|..|F-5 .9.. ....|E-4 2F.A ....|--- .... ....
.344|..|F-2 2AFF ....|C-5 2F.F B..5|F-4 2F.F ....
....|..|R-- .... ....|D-4 2F.A ....|--- .... ....
....|..|--- .... ....|D-5 2F.F B..3|E-4 2F.F ....
....|..|R-- .... ....|C-4 2F.A ....|--- .... ....

[Pattern18]
..28|..|D-2 2AFF B..4|D-3 2CFF B..5|D-3 3F2F ....
....|..|--- .... ....|D-3 2F2F ....|D-5 3F.A ....
....|..|--- .... ....|C-5 2F.A B..3|C-4 2F.A ....
....|..|--- .... ....|D-3 2F.A ....|D-3 3F2A ....
....|..|--- .... ....|D-5 2F.F B..5|D-5 3F.F ....
....|..|--- .... ....|R-- .... ....|R-- .... ....
.200|..|D-3 2A.. ....|D-5 2F.7 B..3|D-3 3F27 ....
....|..|--- .... ....|D-4 2F.A ....|D-5 3F.A ....
..14|..|D-3 .C.. ....|D-3 2CFF B..5|D-3 3F2F ....
....|..|--- .... ....|D-3 2F2F ....|R-- .... ....
....|..|--- .... ....|D-5 2F.7 B..3|D-5 3F.7 ....
....|..|--- .... ....|D-3 2F.A ....|D-3 3F2A ....
..28|..|D-2 2AFF ....|E-5 2F.F B..5|E-5 3F.F ....
....|..|--- .... ....|R-- .... ....|R-- .... ....
..50|..|--- .... ....|D-3 2F2A B..3|D-3 2F.A ....
....|..|--- .... ....|E-4 2F.A ....|E-5 3F.A ....
..2D|..|C-2 2AFF ....|C-3 2CFF B..5|C-3 3F.F ....
....|..|--- .... ....|C-3 2F.F ....|R-- .... ....
....|..|C-2 7F2B ....|E-5 2F.A B..3|E-4 2F.A ....
....|..|--- .... ....|C-4 2F.A ....|C-3 3F.A ....
....|..|--- .... ....|G-5 2F.F B..5|G-5 3F.F ....
....|..|--- .... ....|R-- .... ....|R-- .... ....
....|..|C-3 2FFA ....|C-3 2F.A B..3|C-4 2F.A ....
....|..|--- .... ....|G-4 2F.A ....|G-5 3F.A ....
..5A|..|C-2 2AFF ....|G-5 2F.F B..5|G-5 3F.F ....
....|..|--- .... ....|R-- .... ....|R-- .... ....
....|..|--- .... ....|F-5 2F.F B..3|F-5 3F.F ....
....|..|--- .... ....|G-4 2F.A ....|G-5 3F.A ....
....|..|A-2 2F27 ....|E-5 2F.F B..5|E-5 3F.F ....
....|..|--- .... ....|F-4 2F.A ....|F-5 3F.A ....
.32D|..|D-3 2F2A ....|D-5 2F.F B..3|D-5 3F.F ....
....|..|--- .... ....|E-4 2F.A ....|E-5 3F.A ....
..44|..|F-2 2A.F ....|F-3 2CFF B..5|F-3 3F.F ....
....|..|--- .... ....|F-3 2F.F ....|D-5 3F.A ....
....|..|--- .... ....|E-5 2F.A B..3|E-4 2F.A ....
....|..|--- .... ....|F-4 2F.A ....|F-3 3F.A ....
....|..|G-2 2FF7 ....|C-5 2F.F B..5|C-5 3F.F ....
....|..|--- .... ....|R-- .... ....|R-- .... ....
....|..|F-2 2FFA ....|F-5 2F.7 B..3|F-3 3F.7 ....
....|..|--- .... ....|C-4 2F.A ....|C-5 3F.A ....
.111|..|F-4 F9.. ....|F-3 2CFF B..5|F-3 3F.F ....
....|..|--- .... ....|F-3 2F.F ....|R-- .... ....
.144|..|F-4 F9.. ....|D-5 2F.7 B..3|C-5 3F.7 ....
....|..|--- .... ....|F-4 2F.A ....|F-3 3F.A ....
....|..|F-2 2AFF ....|D-5 2F.F B..5|D-5 3F.F ....
....|..|--- .... ....|R-- .... ....|R-- .... ....
.100|..|F-4 F9.. ....|F-3 2F.A B..3|F-4 2F.A ....
....|..|--- .... ....|D-4 2F.A ....|D-5 3F.A ....
..11|..|F-3 2AFF ....|F-3 2CFF B..5|F-3 3F.F ....
....|..|--- .... ....|F-3 2F.F ....|R-- .... ....
....|..|F-2 2FFA ....|D-5 2F.A B..3|D-4 2F.A ....
....|..|R-- .... ....|F-4 2F.A ....|F-3 3F.A ....
....|..|--- .... ....|F-5 2F.F B..5|F-5 3F.F ....
....|..|R-- .... ....|R-- .... ....|R-- .... ....
....|..|F-2 2FFA ....|F-3 2F.A B..3|F-4 2F.A ....
....|..|--- .... ....|F-4 2F.A ....|F-5 3F.A ....
..87|..|F-5 T9.. ....|E-5 2F.F B..5|E-5 3F.F ....
....|..|F-5 .9.. ....|R-- .... ....|R-- .... ....
....|..|F-5 .9.. ....|D-5 2F.F B..3|D-5 3F.F ....
....|..|F-5 .9.. ....|E-4 2F.A ....|E-5 3F.A ....
.344|..|F-2 2AFF ....|C-5 2F.F B..5|C-5 3F.F ....
....|..|R-- .... ....|D-4 2F.A ....|D-5 3F.A ....
....|..|--- .... ....|D-5 2F.F B..3|D-5 3F.F ....
....|..|R-- .... ....|C-4 2F.A ....|C-5 3F.A ....

[Pattern19]
..80|..|F-3 T9.F ....|F-4 F9.F B..5|F-4 AF.F ....
.100|..|F-3 .9.. ....|F-4 .9.. ....|F-4 .F.. ....
.200|..|F-3 .9.. ....|F-4 .9.. B..3|F-4 .F.. ....
.400|..|F-3 .9.. ....|F-4 .9.. ....|F-4 .F.. ....
....|..|--- .... ....|--- .... B..5|--- .... ....
....|..|--- .... ....|--- .... ....|--- .... ....
....|..|--- .... ....|--- .... B..3|--- .... ....
....|..|--- .... ....|--- .... ....|--- .... ....

[Pattern20]
..80|..|A#4 29.F ....|A#4 2FF7 B..5|F-4 AF.F ....
.100|..|A#4 .9.. ....|--- .... ....|F-4 .F.. ....
.200|..|A#4 .9.. ....|G-4 2FFF B..3|F-4 .F.. ....
.400|..|A#4 .9.. ....|--- .... ....|F-4 .F.. ....
....|..|--- .... ....|F-4 2FFF B..5|--- .... ....
....|..|--- .... ....|--- .... ....|--- .... ....
....|..|--- .... ....|G-4 2FFF B..3|--- .... ....
....|..|--- .... ....|--- .... ....|--- .... ....
..80|..|A#4 29.. ....|A#4 2FFF B..5|F-4 AF.. ....
.100|..|A#4 .9.. ....|--- .... ....|F-4 .F.. ....
.200|..|A#4 .9.. ....|G-4 2FFF B..3|F-4 .F.. ....
.400|..|A#4 .9.. ....|--- .... ....|F-4 .F.. ....
....|..|--- .... ....|F-4 2FFF B..5|--- .... ....
....|..|--- .... ....|--- .... ....|--- .... ....
....|..|--- .... ....|G-4 2FFF B..3|--- .... ....
....|..|--- .... ....|--- .... ....|--- .... ....
....|..|--- .... ....|A#4 2FFF B..5|--- .... ....
....|..|--- .... ....|--- .... ....|--- .... ....
....|..|--- .... ....|A#4 2FFF B..3|--- .... ....
....|..|--- .... ....|--- .... ....|--- .... ....
..80|..|F-4 29.. ....|F-4 2FFF B..5|--- .... ....
.100|..|F-4 .9.. ....|--- .... ....|--- .... ....
.200|..|F-4 .9.. ....|C-5 2FFA B..3|--- .... ....
.400|..|F-4 .9.. ....|--- .... ....|--- .... ....
....|..|--- .... ....|A#4 2FFF B..5|--- .... ....
....|..|--- .... ....|--- .... ....|--- .... ....
....|..|--- .... ....|A-4 2FFF B..3|--- .... ....
....|..|--- .... ....|--- .... ....|--- .... ....
..80|..|F-4 29.. ....|F-4 2FFF B..5|--- .... ....
.100|..|F-4 .9.. ....|--- .... ....|--- .... ....
.200|..|F-4 .9.. ....|D#4 2FFF B..3|--- .... ....
.400|..|F-4 .9.. ....|--- .... ....|--- .... ....

[Pattern30]
....|..|G-2 2A.F B..5|C-2 2A.F ....|D#2 2A.F ....
....|..|--- .... ....|--- .... ....|--- .... ....
....|..|--- .... B..3|--- .... ....|--- .... ....
....|..|--- .... ....|--- .... ....|--- .... ....
....|..|G-2 .EE. B..5|C-2 .EE. ....|D#2 .EE. ....
....|..|--- .... ....|--- .... ....|--- .... ....
....|..|--- .... B..3|--- .... ....|--- .... ....
....|..|--- .... ....|--- .... ....|--- .... ....
....|..|--- .... B..5|--- .... ....|--- .... ....
....|..|--- .... ....|--- .... ....|--- .... ....
....|..|--- .... B..3|--- .... ....|--- .... ....
....|..|--- .... ....|--- .... ....|--- .... ....
....|..|G-2 .A.. B..5|C-2 .A.. ....|D#2 .A.. ....
....|..|G-3 .A.. ....|C-3 .A.. ....|D#3 .A.. ....
....|..|--- .... B..3|--- .... ....|--- .... ....
....|..|--- .... ....|--- .... ....|--- .... ....
....|..|G-2 2A.F B..5|C-2 2A.F ....|D#2 2A.F ....
....|..|--- .... ....|--- .... ....|--- .... ....
....|..|--- .... B..3|--- .... ....|--- .... ....
....|..|--- .... ....|--- .... ....|--- .... ....
....|..|G-6 .9.. B..5|C-6 .9.. ....|D#6 .9.. ....
....|..|G-5 .9.. ....|C-5 .9.. ....|D#5 .9.. ....
....|..|G-4 .9.. B..3|C-4 .9.. ....|D#4 .9.. ....
....|..|G-3 .9.. ....|C-3 .9.. ....|D#3 .9.. ....
....|..|G-2 .8.. B..5|C-2 .8.. ....|D#2 .8.. ....
....|..|--- .... ....|--- .... ....|--- .... ....
....|..|--- .... B..3|--- .... ....|--- .... ....
....|..|--- .... ....|--- .... ....|--- .... ....
....|..|--- .... B..5|--- .... ....|--- .... ....
....|..|--- .... ....|--- .... ....|--- .... ....
....|..|--- .... B..3|--- .... ....|--- .... ....
....|..|--- .... ....|--- .... ....|--- .... ....
....|..|A#1 2A.F B..5|D#1 2A.F ....|F#1 2A.F ....
....|..|--- .... ....|--- .... ....|--- .... ....
....|..|--- .... B..3|--- .... ....|--- .... ....
....|..|--- .... ....|--- .... ....|--- .... ....
....|..|A#5 .9.. B..5|D#5 .9.. ....|F#5 .9.. ....
....|..|A#1 .F.. ....|D#1 .F.. ....|F#1 .F.. ....
....|..|A#1 .... B..3|D#1 .... ....|F#1 .... ....
....|..|A#5 .9.. ....|D#5 .9.. ....|F#5 .9.. ....
....|..|A#1 .F.. B..5|D#1 .F.. ....|F#1 .F.. ....
....|..|A#1 .F.. ....|D#1 .F.. ....|F#1 .F.. ....
....|..|A#5 .9.. B..3|D#5 .9.. ....|F#5 .9.. ....
....|..|--- .... ....|--- .... ....|--- .... ....
....|..|A#3 .C.. B..5|D#3 .C.. ....|F#3 .C.. ....
....|..|--- .... ....|--- .... ....|--- .... ....
....|..|--- .... B..3|--- .... ....|--- .... ....
....|..|--- .... ....|--- .... ....|--- .... ....
....|..|A#1 .C.. B..5|D#1 .C.. ....|F#1 .C.. ....
....|..|--- .... ....|--- .... ....|--- .... ....
....|..|--- .... B..3|--- .... ....|--- .... ....
....|..|--- .... ....|--- .... ....|--- .... ....
....|..|--- .... B..5|--- .... ....|--- .... ....
....|..|--- .... ....|--- .... ....|--- .... ....
....|..|--- .... B..3|--- .... ....|--- .... ....
....|..|--- .... ....|--- .... ....|--- .... ....
....|..|A-4 .8.. B..5|D-4 .8.. ....|F-4 .8.. ....
....|..|A-2 .A.. ....|D-2 .A.. ....|F-2 .A.. ....
....|..|--- .... B..3|--- .... ....|--- .... ....
....|..|A-4 .9.. ....|D-4 .9.. ....|F-4 .9.. ....
....|..|A-2 .A.. B..5|D-2 .A.. ....|F-2 .A.. ....
....|..|--- .... ....|--- .... ....|--- .... ....
....|..|A-2 .A.. B..3|D-2 .A.. ....|F-2 .A.. ....
....|..|--- .... ....|--- .... ....|--- .... ....

[Pattern31]
....|..|B-1 2A.F ....|--- .... ....|--- .... ....
....|..|--- .... ....|--- .... ....|--- .... ....
....|..|--- .... ....|--- .... ....|--- .... ....
....|..|--- .... ....|--- .... ....|--- .... ....
....|..|B-1 .EE. ....|--- .... ....|--- .... ....
....|..|--- .... ....|--- .... ....|--- .... ....
....|..|--- .... ....|--- .... ....|--- .... ....
....|..|--- .... ....|--- .... ....|--- .... ....
....|..|--- .... ....|--- .... ....|--- .... ....
....|..|--- .... ....|--- .... ....|--- .... ....
....|..|--- .... ....|--- .... ....|--- .... ....
....|..|--- .... ....|--- .... ....|--- .... ....
....|..|B-1 .A.. ....|--- .... ....|--- .... ....
....|..|B-2 .A.. ....|--- .... ....|--- .... ....
....|..|--- .... ....|--- .... ....|--- .... ....
....|..|--- .... ....|--- .... ....|--- .... ....
....|..|B-1 2A.F ....|--- .... ....|--- .... ....
....|..|--- .... ....|--- .... ....|--- .... ....
....|..|--- .... ....|--- .... ....|--- .... ....
....|..|--- .... ....|--- .... ....|--- .... ....
....|..|B-5 .9.. ....|--- .... ....|--- .... ....
....|..|B-4 .9.. ....|--- .... ....|--- .... ....
....|..|B-3 .9.. ....|--- .... ....|--- .... ....
....|..|B-2 .9.. ....|--- .... ....|--- .... ....
....|..|B-1 .8.. ....|--- .... ....|--- .... ....
....|..|--- .... ....|--- .... ....|--- .... ....
....|..|--- .... ....|--- .... ....|--- .... ....
....|..|--- .... ....|--- .... ....|--- .... ....
....|..|--- .... ....|--- .... ....|--- .... ....
....|..|--- .... ....|--- .... ....|--- .... ....
....|..|--- .... ....|--- .... ....|--- .... ....
....|..|--- .... ....|--- .... ....|--- .... ....
....|..|D-1 2A.F ....|--- .... ....|--- .... ....
....|..|--- .... ....|--- .... ....|--- .... ....
....|..|--- .... ....|--- .... ....|--- .... ....
....|..|--- .... ....|--- .... ....|--- .... ....
....|..|D-5 .9.. ....|--- .... ....|--- .... ....
....|..|D-1 .F.. ....|--- .... ....|--- .... ....
....|..|D-1 .... ....|--- .... ....|--- .... ....
....|..|D-5 .9.. ....|--- .... ....|--- .... ....
....|..|D-1 .F.. ....|--- .... ....|--- .... ....
....|..|D-1 .F.. ....|--- .... ....|--- .... ....
....|..|D-5 .9.. ....|--- .... ....|--- .... ....
....|..|--- .... ....|--- .... ....|--- .... ....
....|..|D-3 .C.. ....|--- .... ....|--- .... ....
....|..|--- .... ....|--- .... ....|--- .... ....
....|..|--- .... ....|--- .... ....|--- .... ....
....|..|--- .... ....|--- .... ....|--- .... ....
....|..|D-1 .C.. ....|--- .... ....|--- .... ....
....|..|--- .... ....|--- .... ....|--- .... ....
....|..|--- .... ....|--- .... ....|--- .... ....
....|..|--- .... ....|--- .... ....|--- .... ....
....|..|--- .... ....|--- .... ....|--- .... ....
....|..|--- .... ....|--- .... ....|--- .... ....
....|..|--- .... ....|--- .... ....|--- .... ....
....|..|--- .... ....|--- .... ....|--- .... ....
....|..|C#4 .8.. ....|--- .... ....|--- .... ....
....|..|C#2 .A.. ....|--- .... ....|--- .... ....
....|..|--- .... ....|--- .... ....|--- .... ....
....|..|C#4 .9.. ....|--- .... ....|--- .... ....
....|..|C#2 .A.. ....|--- .... ....|--- .... ....
....|..|--- .... ....|--- .... ....|--- .... ....
....|..|C#2 .A.. ....|--- .... ....|--- .... ....
....|..|--- .... ....|--- .... ....|--- .... ....

[Pattern40]
..26|..|D#1 2A.F ....|--- .... ....|D#2 2AEF ....
....|..|--- .... ....|--- .... ....|--- .... ....
....|..|G-4 3FEF ....|G-5 2FFF ....|--- .... ....
....|..|D#1 2F.A ....|--- .... ....|--- .... ....
....|..|F-4 3FEF ....|F-5 2FFF ....|--- .... ....
....|..|--- .... ....|G-5 2FFA ....|--- .... ....
....|..|G-4 3FEF ....|G-5 2FFF ....|D#2 2FEA ....
....|..|--- .... ....|F-5 2FFA ....|--- .... ....
....|..|A#4 3FEF ....|A#5 2FFF ....|--- .... ....
....|..|--- .... ....|G-5 2FFA ....|--- .... ....
....|..|F-4 3FEA ....|F-5 2FF7 ....|--- .... ....
....|..|--- .... ....|A#5 2FFA ....|--- .... ....
..22|..|F-1 2A.F ....|G-5 2FFF ....|F-2 2AEF ....
....|..|--- .... ....|R-- .... ....|--- .... ....
..1E|..|G-1 2A.F ....|D-6 2FFF ....|G-2 2AEF ....
....|..|F-1 2F.A ....|G-5 2FFA ....|--- .... ....
..22|..|F-1 2A.F ....|C-6 2FFF ....|F-2 2AEF ....
....|..|G-1 2F.A ....|D-6 2FFA ....|--- .... ....
....|..|A#4 3FEF ....|A#5 2FFF ....|F-2 2FEA ....
....|..|F-1 2F.A ....|C-6 2FFA ....|--- .... ....
....|..|F-4 3FEF ....|F-5 2FFF ....|G-2 2FEA ....
....|..|--- .... ....|A#5 2FFA ....|--- .... ....
....|..|C-5 3FEA ....|C-6 2FF7 ....|F-2 2FEA ....
....|..|--- .... ....|F-5 2FFA ....|--- .... ....
....|..|A#4 3FEF ....|A#5 2FFF ....|F-2 2FE7 ....
....|..|--- .... ....|R-- .... ....|--- .... ....
....|..|A-4 3FEF ....|A-5 2FFF ....|G-2 2FE7 ....
....|..|--- .... ....|A#5 2FFA ....|--- .... ....
....|..|F-4 3FEF ....|F-5 2FFF ....|F-2 2FE7 ....
....|..|--- .... ....|A-5 2FFA ....|--- .... ....
....|..|D#4 3FEF ....|D#5 2FFF ....|--- .... ....
....|..|--- .... ....|F-5 2FFA ....|--- .... ....
..1E|..|G-1 2A.F ....|D-5 2FFF ....|G-2 2AEF ....
....|..|--- .... ....|D#5 2FFA ....|--- .... ....
....|..|C-4 3FEF ....|C-5 2FFF ....|--- .... ....
....|..|G-1 2F.A ....|D-5 2FFA ....|--- .... ....
....|..|A#3 3FEF ....|A#4 2FFF ....|--- .... ....
....|..|--- .... ....|C-5 2FFA ....|--- .... ....
....|..|F-4 3FEF ....|F-5 2FFF ....|G-2 2FEA ....
....|..|--- .... ....|A#4 2FFA ....|--- .... ....
....|..|A#3 3FEF ....|A#4 2FFF ....|--- .... ....
....|..|--- .... ....|F-5 2FFA ....|--- .... ....
....|..|G-3 3FEF ....|G-4 2FFF ....|--- .... ....
....|..|--- .... ....|A#4 2FFA ....|--- .... ....
....|..|A#3 3FEF ....|A#4 2FFF ....|G-2 2FE7 ....
....|..|--- .... ....|G-4 2FFA ....|--- .... ....
....|..|D-4 3FEF ....|D-5 2FFF ....|--- .... ....
....|..|--- .... ....|A#4 2FFA ....|--- .... ....
..1E|..|G-1 2A.F ....|G-6 2FFF ....|G-2 2AEF ....
....|..|--- .... ....|D-5 2FFA ....|--- .... ....
....|..|D-5 3FEF ....|D-6 2FFF ....|--- .... ....
....|..|G-1 2F.A ....|G-6 2FFA ....|--- .... ....
....|..|A#4 3FEF ....|A#5 2FFF ....|--- .... ....
....|..|--- .... ....|D-6 2FFA ....|--- .... ....
....|..|G-4 3FEF ....|G-5 2FFF ....|G-2 2FEA ....
....|..|--- .... ....|A#5 2FFA ....|--- .... ....
..22|..|F-1 2A.F ....|F-6 2FFF ....|F-2 2AEF ....
....|..|--- .... ....|G-5 2FFA ....|--- .... ....
....|..|A#4 3FEF ....|A#5 2FFF ....|--- .... ....
....|..|F-1 2F.A ....|F-6 2FFA ....|--- .... ....
....|..|G-4 3FEF ....|G-5 2FFF ....|G-2 2FE7 ....
....|..|--- .... ....|A#5 2FFA ....|--- .... ....
....|..|F-4 3FEF ....|F-5 2FFF ....|F-2 2FEA ....
....|..|--- .... ....|G-5 2FFA ....|--- .... ....

[Pattern41]
..13|..|D#2 2AFF B...|A#5 2FF7 B..5|D#2 7A.F ....
....|..|--- .... ....|F-5 2FFA ....|--- .... ....
....|..|G-4 3FEF ....|G-5 2FFF B..3|--- .... ....
....|..|D#1 2F.A ....|R-- .... ....|--- .... ....
....|..|F-4 3FEF ....|F-5 2FFF B..5|F-2 .F.7 ....
....|..|--- .... ....|G-5 2FFA ....|--- .... ....
..13|..|G-4 3FEF ....|G-5 2FFF B..3|D#2 .F.A ....
....|..|--- .... ....|F-5 2FFA ....|--- .... ....
..4B|..|D#2 .C.. ....|A#5 2FFF B..5|--- .... ....
....|..|--- .... ....|G-5 2FFA ....|--- .... ....
....|..|--- .... ....|F-5 2FF7 B..3|--- .... ....
....|..|--- .... ....|A#5 2FFA ....|--- .... ....
..11|..|F-2 2AFF ....|G-5 2FFF B..5|F-2 .A.F ....
....|..|--- .... ....|R-- .... ....|--- .... ....
...F|..|G-2 .... ....|D-6 2FFF B..3|G-2 .A.F ....
....|..|--- .... ....|G-5 2FFA ....|--- .... ....
..11|..|F-2 2AFF ....|C-6 2FFF B..5|F-2 .A.F ....
....|..|--- .... ....|D-6 2FFA ....|--- .... ....
....|..|A#4 3FEF ....|A#5 2FFF B..3|F-2 .F.A ....
....|..|F-1 2F.A ....|C-6 2FFA ....|--- .... ....
....|..|F-4 3FEF ....|F-5 2FFF B..5|G-2 .F.A ....
....|..|--- .... ....|A#5 2FFA ....|--- .... ....
....|..|C-5 3FEA ....|C-6 2FF7 B..3|F-2 .F.A ....
....|..|--- .... ....|F-5 2FFA ....|--- .... ....
..13|..|A#4 3FEF ....|A#5 2FFF B..5|F-2 .F.7 ....
....|..|--- .... ....|R-- .... ....|--- .... ....
....|..|A-4 3FEF ....|A-5 2FFF B..3|G-2 .F.7 ....
....|..|--- .... ....|A#5 2FFA ....|--- .... ....
....|..|F-3 2F27 ....|F-5 2FFF B..5|F-2 .F.7 ....
....|..|--- .... ....|A-5 2FFA ....|--- .... ....
....|..|D#2 2F2A ....|D#5 2FFF B..3|--- .... ....
....|..|--- .... ....|F-5 2FFA ....|--- .... ....
...F|..|G-2 2A.F ....|D-5 2FFF B..5|G-2 .A.F ....
....|..|--- .... ....|D#5 2FFA ....|--- .... ....
....|..|--- .... ....|C-5 2FFF B..3|--- .... ....
....|..|--- .... ....|D-5 2FFA ....|--- .... ....
....|..|F-2 2FF7 ....|A#4 2FFF B..5|--- .... ....
....|..|--- .... ....|C-5 2FFA ....|--- .... ....
....|..|G-2 2FFA ....|F-5 2FFF B..3|G-2 .F.A ....
....|..|--- .... ....|A#4 2FFA ....|--- .... ....
.100|..|F-4 F9.F ....|A#4 2FFF B..5|--- .... ....
....|..|--- .... ....|F-5 2FFA ....|--- .... ....
.200|..|F-4 F9.. ....|G-4 2FFF B..3|--- .... ....
....|..|--- .... ....|A#4 2FFA ....|--- .... ....
...F|..|G-2 2AFF ....|A#4 2FFF B..5|G-2 .F.7 ....
....|..|--- .... ....|G-4 2FFA ....|--- .... ....
.100|..|F-4 F9.F ....|D-5 2FFF B..3|--- .... ....
....|..|--- .... ....|A#4 2FFA ....|--- .... ....
...F|..|G-2 2AFF ....|G-6 2FFF B..5|G-2 .A.F ....
....|..|--- .... ....|D-5 2FFA ....|--- .... ....
....|..|D-5 3FEF ....|D-6 2FFF B..3|--- .... ....
....|..|G-1 2F.A ....|G-6 2FFA ....|--- .... ....
....|..|A#4 3FEF ....|A#5 2FFF B..5|--- .... ....
....|..|--- .... ....|D-6 2FFA ....|--- .... ....
....|..|G-4 3FEF ....|G-5 2FFF B..3|G-2 .F.A ....
....|..|--- .... ....|A#5 2FFA ....|--- .... ....
..11|..|F-2 2A.F ....|F-6 2FFF B..5|F-2 .A.F ....
.100|..|F-5 .9.. ....|G-5 2FFA ....|--- .... ....
.200|..|F-5 .9.. ....|A#5 2FFF B..3|--- .... ....
.300|..|F-5 .9.. ....|F-6 2FFA ....|--- .... ....
....|..|F-2 2AFF ....|G-5 2FFF B..5|G-2 .F.7 ....
....|..|R-- .... ....|A#5 2FFA ....|--- .... ....
....|..|--- .... ....|F-5 2FFF B..3|F-2 .F.A ....
....|..|R-- .... ....|G-5 2FFA ....|--- .... ....

[Pattern42]
..26|..|C-4 AF.F ....|A#4 2FFF B..5|C-4 9F.F ....
..26|..|D#1 2A.F ....|F-5 2FFA ....|D#2 7A.. ....
....|..|G-4 3FE7 ....|G-5 2FF7 B..3|--- ...F ....
....|..|D#1 2F.A ....|A#4 2FFA ....|--- .... ....
....|..|A#3 3FEF ....|A#4 2FFF B..5|F-2 .F.7 ....
....|..|--- .... ....|--- .... ....|--- .... ....
....|..|D#1 2F.7 ....|A#4 2FF7 B..3|D#2 .F.A ....
....|..|--- .... ....|A#4 2FFA ....|--- .... ....
....|..|F-4 3FEF ....|F-5 2FFF B..5|--- .... ....
....|..|--- .... ....|--- .... ....|--- .... ....
....|..|F-4 3FE7 ....|A#4 2FF7 B..3|--- .... ....
....|..|--- .... ....|F-5 2FFA ....|--- .... ....
..22|..|F-1 2A.F ....|--- .... B..5|F-2 .A.F ....
....|..|--- .... ....|--- .... ....|--- .... ....
..1E|..|G-1 2A.F ....|F-5 2FF7 B..3|G-2 .A.F ....
....|..|F-1 2F.A ....|--- .... ....|--- .... ....
..22|..|C-4 AF.F ....|D-5 2FFF B..5|C-4 9F.F ....
..22|..|F-1 2A.F ....|--- .... ....|F-3 TA.F ....
..11|..|G-1 2F.A ....|R-- .... B..3|F-2 7A.A ....
....|..|F-1 2F.A ....|D-5 2FFA ....|--- .... ....
....|..|D-4 3FEF ....|D-5 2FFF B..5|G-2 .F.A ....
....|..|--- .... ....|R-- .... ....|--- .... ....
....|..|D-4 3FEA ....|D-5 2FF7 B..3|F-2 .F.A ....
....|..|D-4 3FEF ....|D-5 2FFF ....|--- .... ....
....|..|C-4 3FEF ....|C-5 2FFF B..5|F-2 .F.7 ....
....|..|--- .... ....|R-- .... ....|--- .... ....
....|..|A#3 3FEF ....|A#4 2FFF B..3|G-2 .F.7 ....
....|..|--- .... ....|C-5 2FFA ....|--- .... ....
....|..|A#3 3FEF ....|A#4 2FFF B..5|F-2 .F.7 ....
....|..|C-4 3FEF ....|C-5 2FFF ....|--- .... ....
....|..|D-4 3FEF ....|D-5 2FFF B..3|--- .... ....
....|..|D#4 3FEF ....|D#5 2FFF ....|--- .... ....
...F|..|C-4 AF.F ....|D-5 2FFF B..5|C-4 9F.F ....
..3C|..|G-1 2A.F ....|D-5 2FFA ....|G-1 7C.F ....
....|..|G-3 3FEF ....|G-4 2FFF B..3|--- .... ....
....|..|G-1 2F.A ....|C-5 2FF7 ....|--- .... ....
....|..|A#3 3FEF ....|A#4 2FFF B..5|--- .... ....
....|..|D#4 3FEA ....|D#5 2FF7 ....|--- .... ....
....|..|A#3 3FEF ....|A#4 2FFF B..3|G-2 .F.A ....
....|..|--- .... ....|A#4 2FFA ....|--- .... ....
....|..|A#3 3FEF ....|A#4 2FFF B..5|--- .... ....
....|..|C-4 3FE7 ....|A#4 2FFA ....|--- .... ....
....|..|G-3 3FEF ....|G-4 2FFF B..3|--- .... ....
....|..|D#4 3FE7 ....|A#4 2FFA ....|--- .... ....
....|..|A#3 3FEF ....|A#4 2FFF B..5|G-2 .F.7 ....
....|..|--- .... ....|G-4 2FFA ....|--- .... ....
....|..|A#3 3FEF ....|A#4 2FFF B..3|--- .... ....
....|..|--- .... ....|A#4 2FFA ....|--- .... ....
..1E|..|C-5 AF.F ....|F-5 2FFF B..5|C-4 9F.F ....
..1E|..|G-1 2A.F ....|A#4 2FFA ....|G-2 7A.F ....
....|..|A#3 3FEF ....|A#4 2FFF B..3|--- .... ....
....|..|A#3 3FEF ....|A#4 2FFF ....|--- .... ....
....|..|A#3 3FEF ....|A#4 2FFF B..5|--- .... ....
....|..|--- .... ....|A#4 2FFA ....|--- .... ....
....|..|C-4 3FEF ....|C-5 2FFF B..3|G-2 .F.A ....
....|..|--- .... ....|A#4 2FFA ....|--- .... ....
..22|..|F-1 2A.F ....|A#4 2FFF B..5|F-2 .A.F ....
....|..|A#3 3FEA ....|A#4 2FF7 ....|--- .... ....
....|..|A-3 3FEF ....|A-4 2FFF B..3|--- .... ....
....|..|F-1 2F.A ....|A#4 2FFA ....|--- .... ....
....|..|G-3 3FEF ....|G-4 2FFF B..5|G-2 .F.7 ....
....|..|--- .... ....|A-4 2FFA ....|--- .... ....
....|..|F-3 3FEF ....|F-4 2FFF B..3|F-2 .F.A ....
....|..|A#3 3FE7 ....|G-4 2FFA ....|--- .... ....

[Pattern43]
..26|..|D#2 TA.F ....|A#4 2FFF B..5|C-4 9F.F ....
....|..|--- .... ....|F-4 2FFA ....|--- .... ....
..13|..|C-4 3FE7 ....|G-4 2FF7 B..3|D#2 7A.F ....
....|..|D#1 2F.A ....|A#4 2FFA ....|--- .... ....
....|..|A#3 3FEF ....|A#4 2FFF B..5|F-2 .F.7 ....
....|..|--- .... ....|--- .... ....|--- .... ....
....|..|D#1 2F.7 ....|A#4 2FF7 B..3|D#2 .F.A ....
....|..|--- .... ....|A#4 2FFA ....|--- .... ....
....|..|F-4 3FEF ....|F-5 2FFF B..5|--- .... ....
....|..|--- .... ....|--- .... ....|--- .... ....
....|..|F-3 3FE7 ....|A#4 2FF7 B..3|--- .... ....
....|..|--- .... ....|F-5 2FFA ....|--- .... ....
..11|..|F-1 TA.F ....|--- .... B..5|F-2 .A.F ....
....|..|--- .... ....|--- .... ....|--- .... ....
...F|..|G-1 TA.F ....|F-5 2FF7 B..3|G-2 .A.F ....
....|..|F-1 2F.A ....|--- .... ....|--- .... ....
..11|..|F-1 TA.F ....|D-5 2FFF B..5|C-4 9F.F ....
..11|..|G-1 2F.A ....|--- .... ....|--- ...F ....
..11|..|R-- .... ....|R-- .... B..3|F-2 7A.A ....
....|..|F-1 2F.A ....|D-5 2FFA ....|--- .... ....
....|..|D-4 3FEF ....|D-5 2FFF B..5|G-2 .F.A ....
....|..|--- .... ....|R-- .... ....|--- .... ....
....|..|D-4 3FEA ....|D-5 2FF7 B..3|F-2 .F.A ....
....|..|D-4 3FEF ....|D-5 2FFF ....|--- .... ....
....|..|C-4 3FEF ....|C-5 2FFF B..5|F-2 .F.7 ....
....|..|--- .... ....|R-- .... ....|--- .... ....
....|..|A#3 3FEF ....|A#4 2FFF B..3|G-2 .F.7 ....
....|..|--- .... ....|C-5 2FFA ....|--- .... ....
....|..|A#3 3FEF ....|A#4 2FFF B..5|F-2 .F.7 ....
....|..|C-4 3FEF ....|C-5 2FFF ....|--- .... ....
....|..|D-4 3FEF ....|D-5 2FFF B..3|--- .... ....
....|..|D#4 3FEF ....|D#5 2FFF ....|--- .... ....
..3C|..|G-1 TC.F ....|F-5 2FFF B..5|C-4 9F.F ....
..3C|..|--- .... ....|D-5 2FFA ....|G-1 7C.F ....
....|..|G-3 3FEF ....|G-4 2FFF B..3|--- .... ....
....|..|G-1 2F.A ....|C-5 2FF7 ....|--- .... ....
....|..|A#3 3FEF ....|A#4 2FFF B..5|--- .... ....
....|..|D#4 3FEA ....|D#5 2FF7 ....|--- .... ....
....|..|A#3 3FEF ....|A#4 2FFF B..3|G-2 .F.A ....
....|..|--- .... ....|A#4 2FFA ....|--- .... ....
....|..|A#3 3FEF ....|A#4 2FFF B..5|--- .... ....
....|..|C-4 3FE7 ....|A#4 2FFA ....|--- .... ....
....|..|G-3 3FEF ....|G-4 2FFF B..3|--- .... ....
....|..|D#4 3FE7 ....|A#4 2FFA ....|--- .... ....
....|..|A#3 3FEF ....|A#4 2FFF B..5|G-2 .F.7 ....
....|..|--- .... ....|G-4 2FFA ....|--- .... ....
....|..|A#3 3FEF ....|A#4 2FFF B..3|--- .... ....
....|..|A#3 3FEF ....|A#4 2FFF ....|--- .... ....
..1E|..|G-1 TA.F ....|F-5 2FFF B..5|C-4 9F.F ....
...F|..|--- .... ....|A#4 2FFA ....|G-2 7A.F ....
....|..|A#3 3FEF ....|A#4 2FFF B..3|--- .... ....
....|..|G-1 2F.A ....|F-5 2FFA ....|--- .... ....
....|..|A#3 3FEF ....|A#4 2FFF B..5|--- .... ....
....|..|A#3 3FEF ....|A#4 2FFF ....|--- .... ....
....|..|C-4 3FEF ....|C-5 2FFF B..3|G-2 .F.A ....
....|..|--- .... ....|A#4 2FFA ....|--- .... ....
..11|..|F-1 TA.F ....|A#4 2FFF B..5|F-2 .A.F ....
....|..|--- .... ....|C-5 2FFA ....|--- .... ....
....|..|A-3 3FEF ....|A-4 2FFF B..3|--- .... ....
....|..|F-1 2F.A ....|A#4 2FF7 ....|--- .... ....
....|..|G-3 3FEF ....|G-4 2FFF B..5|G-2 .F.7 ....
....|..|--- .... ....|A-4 2FFA ....|--- .... ....
....|..|F-3 3FEF ....|F-4 2FFF B..3|F-2 .F.A ....
....|..|--- .... ....|G-4 2FFA ....|--- .... ....

[Pattern44]
..26|..|D#1 2A.F ....|A-4 2FF7 B..5|D#2 7A.F ....
....|..|A#3 3FE7 ....|F-4 2FFA ....|--- .... ....
....|..|G-4 3FEF ....|G-5 2FFF B..3|--- .... ....
....|..|D#1 2F.A ....|R-- .... ....|--- .... ....
....|..|F-4 3FEF ....|F-5 2FFF B..5|F-2 .F.7 ....
....|..|--- .... ....|G-5 2FFA ....|--- .... ....
....|..|G-4 3FEF ....|G-5 2FFF B..3|D#2 .F.A ....
....|..|--- .... ....|F-5 2FFA ....|--- .... ....
....|..|A#4 3FEF ....|A#5 2FFF B..5|--- .... ....
....|..|--- .... ....|G-5 2FFA ....|--- .... ....
....|..|F-3 3FE7 ....|F-5 2FF7 B..3|--- .... ....
....|..|--- .... ....|A#5 2FFA ....|--- .... ....
..22|..|F-1 2A.F ....|G-5 2FFF B..5|F-2 .A.F ....
....|..|--- .... ....|R-- .... ....|--- .... ....
..1E|..|G-1 2A.F ....|D-6 2FFF B..3|G-2 .A.F ....
....|..|F-1 2F.A ....|G-5 2FFA ....|--- .... ....
..22|..|F-1 2A.F ....|C-6 2FFF B..5|F-2 .A.F ....
....|..|G-1 2F.A ....|D-6 2FFA ....|--- .... ....
....|..|A#4 3FEF ....|A#5 2FFF B..3|F-2 .F.A ....
....|..|F-1 2F.A ....|C-6 2FFA ....|--- .... ....
....|..|F-4 3FEF ....|F-5 2FFF B..5|G-2 .F.A ....
....|..|--- .... ....|A#5 2FFA ....|--- .... ....
....|..|C-5 3FEA ....|C-6 2FF7 B..3|F-2 .F.A ....
....|..|--- .... ....|F-5 2FFA ....|--- .... ....
....|..|A#4 3FEF ....|A#5 2FFF B..5|F-2 .F.7 ....
....|..|--- .... ....|R-- .... ....|--- .... ....
....|..|A-4 3FEF ....|A-5 2FFF B..3|G-2 .F.7 ....
....|..|--- .... ....|A#5 2FFA ....|--- .... ....
....|..|F-4 3FEF ....|F-5 2FFF B..5|F-2 .F.7 ....
....|..|--- .... ....|A-5 2FFA ....|--- .... ....
....|..|D#4 3FEF ....|D#5 2FFF B..3|--- .... ....
....|..|--- .... ....|F-5 2FFA ....|--- .... ....
..1E|..|G-1 2A.F ....|D-5 2FFF B..5|G-2 .A.F ....
....|..|--- .... ....|D#5 2FFA ....|--- .... ....
....|..|C-4 3FEF ....|C-5 2FFF B..3|--- .... ....
....|..|G-1 2F.A ....|D-5 2FFA ....|--- .... ....
....|..|A#3 3FEF ....|A#4 2FFF B..5|--- .... ....
....|..|--- .... ....|C-5 2FFA ....|--- .... ....
....|..|F-4 3FEF ....|F-5 2FFF B..3|G-2 .F.A ....
....|..|--- .... ....|A#4 2FFA ....|--- .... ....
....|..|A#3 3FEF ....|A#4 2FFF B..5|--- .... ....
....|..|--- .... ....|F-5 2FFA ....|--- .... ....
....|..|G-3 3FEF ....|G-4 2FFF B..3|--- .... ....
....|..|--- .... ....|A#4 2FFA ....|--- .... ....
....|..|A#3 3FEF ....|A#4 2FFF B..5|G-2 .F.7 ....
....|..|--- .... ....|G-4 2FFA ....|--- .... ....
....|..|D-4 3FEF ....|D-5 2FFF B..3|--- .... ....
....|..|--- .... ....|A#4 2FFA ....|--- .... ....
..1E|..|G-1 2A.F ....|G-6 2FFF B..5|G-2 .A.F ....
....|..|--- .... ....|D-5 2FFA ....|--- .... ....
....|..|D-5 3FEF ....|D-6 2FFF B..3|--- .... ....
....|..|G-1 2F.A ....|G-6 2FFA ....|--- .... ....
....|..|A#4 3FEF ....|A#5 2FFF B..5|--- .... ....
....|..|--- .... ....|D-6 2FFA ....|--- .... ....
....|..|G-4 3FEF ....|G-5 2FFF B..3|G-2 .F.A ....
....|..|--- .... ....|A#5 2FFA ....|--- .... ....
..22|..|F-1 2A.F ....|F-6 2FFF B..5|F-2 .A.F ....
....|..|--- .... ....|G-5 2FFA ....|--- .... ....
....|..|A#4 3FEF ....|A#5 2FFF B..3|--- .... ....
....|..|F-1 2F.A ....|F-6 2FFA ....|--- .... ....
....|..|G-4 3FEF ....|G-5 2FFF B..5|G-2 .F.7 ....
....|..|--- .... ....|A#5 2FFA ....|--- .... ....
....|..|F-4 3FEF ....|F-5 2FFF B..3|F-2 .F.A ....
....|..|--- .... ....|G-5 2FFA ....|--- .... ....

[Pattern45]
..26|..|D#1 2A.F ....|G-4 2FFF B..5|D#2 7A.F ....
....|..|--- .... ....|F-5 2FFA ....|--- .... ....
....|..|A-3 3FEF ....|A-4 2FFF B..3|--- .... ....
....|..|D#1 2F.A ....|G-4 2FFA ....|--- .... ....
....|..|F-5 3FE7 ....|F-5 2FF7 B..5|F-2 .F.7 ....
....|..|--- .... ....|A-4 2FFA ....|--- .... ....
....|..|A#3 3FEF ....|A#4 2FFF B..3|D#2 .F.A ....
....|..|--- .... ....|--- .... ....|--- .... ....
....|..|G-4 3FE7 ....|A-4 2FF7 B..5|--- .... ....
....|..|--- .... ....|A#4 2FFA ....|--- .... ....
....|..|F-3 3FEF ....|F-4 2FFF B..3|--- .... ....
....|..|--- .... ....|--- .... ....|--- .... ....
....|..|G-3 3FE7 ....|A#4 2FF7 B..5|D#2 .F.7 ....
....|..|--- .... ....|F-4 2FFA ....|--- .... ....
....|..|F-3 3FEF ....|F-4 2FFF B..3|--- .... ....
....|..|--- .... ....|--- .... ....|--- .... ....
..22|..|F-1 2A.F ....|F-4 2FF7 B..5|F-2 .A.F ....
....|..|--- .... ....|F-4 2FFA ....|--- .... ....
....|..|A#3 3FE7 ....|--- .... B..3|--- .... ....
....|..|F-1 2F.A ....|--- .... ....|--- .... ....
....|..|F-3 3FEA ....|F-4 2FF7 B..5|--- .... ....
....|..|--- .... ....|--- .... ....|--- .... ....
....|..|F-1 2F.7 ....|--- .... B..3|F-2 .F.A ....
....|..|--- .... ....|--- .... ....|--- .... ....
....|..|--- .... ....|--- .... B..5|--- .... ....
....|..|--- .... ....|--- .... ....|--- .... ....
....|..|F-3 3FE7 ....|--- .... B..3|--- .... ....
....|..|--- .... ....|--- .... ....|--- .... ....
....|..|--- .... ....|--- .... B..5|F-2 .F.7 ....
....|..|--- .... ....|--- .... ....|--- .... ....
....|..|--- .... ....|--- .... B..3|--- .... ....
....|..|--- .... ....|--- .... ....|--- .... ....
..1E|..|G-1 2A.F ....|G-4 2FFF B..5|G-2 .A.F ....
....|..|--- .... ....|--- .... ....|--- .... ....
....|..|A#3 3FEF ....|A#4 2FFF B..3|--- .... ....
....|..|G-1 2F.A ....|G-4 2FFA ....|--- .... ....
....|..|--- .... ....|--- .... B..5|--- .... ....
....|..|--- .... ....|A#4 2FFA ....|--- .... ....
....|..|D-4 3FEF ....|D-5 2FFF B..3|G-2 .F.A ....
....|..|--- .... ....|--- .... ....|--- .... ....
....|..|A#3 3FEA ....|A#4 2FF7 B..5|--- .... ....
....|..|--- .... ....|D-5 2FFA ....|--- .... ....
....|..|A#3 3FEF ....|A#4 2FFF B..3|--- .... ....
....|..|--- .... ....|--- .... ....|--- .... ....
....|..|G-3 3FE7 ....|D-5 2FF7 B..5|G-2 .F.7 ....
....|..|--- .... ....|A#4 2FFA ....|--- .... ....
....|..|A#3 3FE7 ....|--- .... B..3|--- .... ....
....|..|--- .... ....|--- .... ....|--- .... ....
..33|..|A#1 2C.F ....|A#4 2FFF B..5|A#2 .C.F ....
....|..|--- .... ....|--- .... ....|--- .... ....
....|..|D-4 3FE7 ....|--- .... B..3|--- .... ....
....|..|A#1 2F.A ....|A#4 2FFA ....|--- .... ....
....|..|--- .... ....|--- .... B..5|--- .... ....
....|..|--- .... ....|--- .... ....|--- .... ....
....|..|A#1 2F.7 ....|A#4 2FF7 B..3|A#2 .F.A ....
....|..|--- .... ....|--- .... ....|--- .... ....
....|..|--- .... ....|--- .... B..5|--- .... ....
....|..|--- .... ....|--- .... ....|--- .... ....
....|..|--- .... ....|--- .... B..3|--- .... ....
....|..|--- .... ....|--- .... ....|--- .... ....
....|..|A#3 3FE7 ....|--- .... B..5|A#2 .F.7 ....
....|..|--- .... ....|--- .... ....|--- .... ....
....|..|--- .... ....|--- .... B..3|--- .... ....
....|..|--- .... ....|--- .... ....|--- .... ....

[Pattern46]
..26|..|D#1 2A.F ....|G-4 2FFF B..5|D#2 7A.F ....
....|..|--- .... ....|--- .... ....|--- .... ....
....|..|A-3 3FEF ....|A-4 2FFF B..3|--- .... ....
....|..|D#1 2F.A ....|G-4 2FFA ....|--- .... ....
....|..|--- .... ....|--- .... B..5|--- .... ....
....|..|--- .... ....|A-4 2FFA ....|--- .... ....
....|..|A#3 3FEF ....|A#4 2FFF B..3|D#2 .F.A ....
....|..|--- .... ....|--- .... ....|--- .... ....
....|..|A-3 3FEA ....|A-4 2FF7 B..5|--- .... ....
....|..|--- .... ....|A#4 2FFA ....|--- .... ....
....|..|F-3 3FEF ....|F-4 2FFF B..3|--- .... ....
....|..|--- .... ....|--- .... ....|--- .... ....
....|..|G-3 3FE7 ....|A#4 2FF7 B..5|D#2 .F.7 ....
....|..|--- .... ....|F-4 2FFA ....|--- .... ....
....|..|F-3 3FEF ....|F-4 2FFF B..3|--- .... ....
....|..|--- .... ....|--- .... ....|--- .... ....
..22|..|F-1 2A.F ....|F-4 2FF7 B..5|F-2 .A.F ....
....|..|--- .... ....|F-4 2FFA ....|--- .... ....
....|..|C-4 3FEF ....|C-5 2FFF B..3|--- .... ....
....|..|F-1 2F.A ....|--- .... ....|--- .... ....
....|..|F-3 3FEA ....|F-4 2FF7 B..5|--- .... ....
....|..|--- .... ....|C-5 2FFA ....|--- .... ....
....|..|A#3 3FEF ....|A#4 2FFF B..3|F-2 .F.A ....
....|..|--- .... ....|--- .... ....|--- .... ....
....|..|C-4 3FEA ....|C-5 2FF7 B..5|--- .... ....
....|..|--- .... ....|A#4 2FFA ....|--- .... ....
....|..|F-3 3FE7 ....|R-- .... B..3|--- .... ....
....|..|--- .... ....|--- .... ....|--- .... ....
....|..|A#3 3FEA ....|A#4 2FF7 B..5|F-2 .F.7 ....
....|..|--- .... ....|R-- .... ....|--- .... ....
....|..|C-4 3FEF ....|C-5 2FFF B..3|--- .... ....
....|..|--- .... ....|--- .... ....|--- .... ....
..1E|..|G-1 2A.F ....|D-5 2FFF B..5|G-2 .A.F ....
....|..|--- .... ....|C-5 2FFA ....|--- .... ....
....|..|A#3 3FE7 ....|--- .... B..3|--- .... ....
....|..|G-1 2F.A ....|D-5 2FFA ....|--- .... ....
....|..|C-4 3FEF ....|C-5 2FFF B..5|--- .... ....
....|..|--- .... ....|--- .... ....|--- .... ....
....|..|D-4 3FEF ....|D-5 2FFF B..3|G-2 .F.A ....
....|..|--- .... ....|C-5 2FFA ....|--- .... ....
....|..|--- .... ....|--- .... B..5|--- .... ....
....|..|--- .... ....|D-5 2FFA ....|--- .... ....
....|..|D-4 3FEF ....|D-5 2FFF B..3|--- .... ....
....|..|--- .... ....|--- .... ....|--- .... ....
....|..|F-4 3FEF ....|F-5 2FFF B..5|G-2 .F.7 ....
....|..|--- .... ....|D-5 2FFA ....|--- .... ....
....|..|--- .... ....|--- .... B..3|--- .... ....
....|..|--- .... ....|F-5 2FFA ....|--- .... ....
..33|..|A#1 2C.F ....|D-5 2FF7 B..5|A#2 .C.F ....
....|..|--- .... ....|--- .... ....|--- .... ....
....|..|D-4 3FE7 ....|F-5 2FF7 B..3|--- .... ....
....|..|A#1 2F.A ....|--- .... ....|--- .... ....
....|..|A#3 3FEF ....|A#4 2FFF B..5|--- .... ....
....|..|--- .... ....|--- .... ....|--- .... ....
....|..|A#1 2F.7 ....|--- .... B..3|A#2 .F.A ....
....|..|--- .... ....|A#4 2FFA ....|--- .... ....
....|..|F-4 3FE7 ....|--- .... B..5|--- .... ....
....|..|--- .... ....|--- .... ....|--- .... ....
....|..|A#3 3FEA ....|A#4 2FF7 B..3|--- .... ....
....|..|--- .... ....|--- .... ....|--- .... ....
....|..|--- .... ....|--- .... B..5|A#2 .F.7 ....
....|..|--- .... ....|--- .... ....|--- .... ....
....|..|--- .... ....|--- .... B..3|--- .... ....
....|..|--- .... ....|--- .... ....|--- .... ....

[Pattern47]
..26|..|D#1 2A.F ....|G-4 2FFF B..5|D#2 7A.F ....
....|..|--- .... ....|--- .... ....|--- .... ....
....|..|A#3 3FEF ....|A#4 2FFF B..3|--- .... ....
....|..|D#1 2F.A ....|G-4 2FFA ....|--- .... ....
....|..|A-3 3FEF ....|A-4 2FFF B..5|--- .... ....
....|..|--- .... ....|A#4 2FFA ....|--- .... ....
....|..|A#3 3FEF ....|A#4 2FFF B..3|D#2 .F.A ....
....|..|--- .... ....|A-4 2FFA ....|--- .... ....
....|..|A#3 3FEF ....|A#4 2FFF B..5|--- .... ....
....|..|--- .... ....|A#4 2FFA ....|--- .... ....
....|..|A#3 3FEF ....|A#4 2FFF B..3|--- .... ....
....|..|--- .... ....|A#4 2FFA ....|--- .... ....
....|..|C-4 3FEF ....|C-5 2FFF B..5|D#2 .F.7 ....
....|..|--- .... ....|A#4 2FFA ....|--- .... ....
....|..|A#3 3FEF ....|A#4 2FFF B..3|--- .... ....
....|..|--- .... ....|C-5 2FFA ....|--- .... ....
..22|..|F-1 2A.F ....|C-5 2FFF B..5|F-2 .A.F ....
....|..|--- .... ....|A#4 2FFA ....|--- .... ....
....|..|A#3 3FEF ....|A#4 2FFF B..3|--- .... ....
....|..|F-1 2F.A ....|C-5 2FFA ....|--- .... ....
....|..|C-4 3FEF ....|C-5 2FFF B..5|--- .... ....
....|..|--- .... ....|A#4 2FFA ....|--- .... ....
....|..|A#3 3FEF ....|A#4 2FFF B..3|F-2 .F.A ....
....|..|--- .... ....|C-5 2FFA ....|--- .... ....
....|..|D-4 3FEF ....|D-5 2FFF B..5|--- .... ....
....|..|--- .... ....|A#4 2FFA ....|--- .... ....
....|..|A#3 3FEF ....|A#4 2FFF B..3|--- .... ....
....|..|--- .... ....|D-5 2FFA ....|--- .... ....
....|..|C-4 3FEF ....|C-5 2FFF B..5|F-2 .F.7 ....
....|..|--- .... ....|A#4 2FFA ....|--- .... ....
....|..|D-4 3FEF ....|D-5 2FFF B..3|--- .... ....
....|..|--- .... ....|C-5 2FFA ....|--- .... ....
..1E|..|G-1 2A.F ....|F-4 2FFF B..5|G-2 .A.F ....
....|..|--- .... ....|D-5 2FFA ....|--- .... ....
....|..|A-3 3FEF ....|A-4 2FFF B..3|--- .... ....
....|..|G-1 2F.A ....|F-4 2FFA ....|--- .... ....
....|..|A#3 3FEF ....|A#4 2FFF B..5|--- .... ....
....|..|--- .... ....|A-4 2FFA ....|--- .... ....
....|..|F-3 3FEF ....|F-4 2FFF B..3|G-2 .F.A ....
....|..|--- .... ....|A#4 2FFA ....|--- .... ....
....|..|A#3 3FEF ....|A#4 2FFF B..5|--- .... ....
....|..|--- .... ....|F-4 2FFA ....|--- .... ....
....|..|F-3 3FEF ....|F-4 2FFF B..3|--- .... ....
....|..|--- .... ....|A#4 2FFA ....|--- .... ....
....|..|D#3 3FEF ....|D#4 2FFF B..5|G-2 .F.7 ....
....|..|--- .... ....|F-4 2FFA ....|--- .... ....
....|..|D-3 3FEF ....|D-4 2FFF B..3|--- .... ....
....|..|--- .... ....|D#4 2FFA ....|--- .... ....
..33|..|A#1 2C.F ....|C-4 2FFF B..5|A#2 .C.F ....
....|..|--- .... ....|D-4 2FFA ....|--- .... ....
....|..|A#2 3FEF ....|A#3 2FFF B..3|--- .... ....
....|..|A#1 2F.A ....|C-4 2FFA ....|--- .... ....
....|..|C-4 3FEF ....|C-5 2FFF B..5|--- .... ....
....|..|--- .... ....|A#3 2FFA ....|--- .... ....
....|..|A#3 3FEF ....|A#4 2FFF B..3|A#2 .F.A ....
....|..|--- .... ....|C-5 2FFA ....|--- .... ....
....|..|D-4 3FEF ....|D-5 2FFF B..5|--- .... ....
....|..|--- .... ....|A#4 2FFA ....|--- .... ....
....|..|A#3 3FEF ....|A#4 2FFF B..3|--- .... ....
....|..|--- .... ....|D-5 2FFA ....|--- .... ....
....|..|C-4 3FEF ....|C-5 2FFF B..5|A#2 .F.7 ....
....|..|--- .... ....|A#4 2FFA ....|--- .... ....
....|..|A#3 3FEF ....|A#4 2FFF B..3|--- .... ....
....|..|--- .... ....|C-5 2FFA ....|--- .... ....

[Pattern48]
..26|..|C-4 AF.F ....|G-4 2FFF B..5|D#2 GA.F ....
..13|..|D#1 GA.. ....|A#4 2FFA ....|--- .A.. ....
....|..|A#3 3FEF ....|A#4 2FFF B..3|--- .... ....
....|..|D#1 2F.A ....|G-4 2FFA ....|D#1 .... ....
....|..|A-3 3FEF ....|A-4 2FFF B..5|--- .... ....
....|..|--- .... ....|A#4 2FFA ....|--- .... ....
....|..|A#3 3FEF ....|A#4 2FFF B..3|D#2 .F.A ....
....|..|--- .... ....|A-4 2FFA ....|--- .... ....
....|..|A#3 3FEF ....|A#4 2FFF B..5|--- .... ....
....|..|--- .... ....|A#4 2FFA ....|D#2 .... ....
....|..|A#3 3FEF ....|A#4 2FFF B..3|--- .... ....
....|..|--- .... ....|A#4 2FFA ....|--- .... ....
....|..|C-4 3FEF ....|C-5 2FFF B..5|D#2 .F.7 ....
....|..|--- .... ....|A#4 2FFA ....|--- .... ....
....|..|A#3 3FEF ....|A#4 2FFF B..3|--- .... ....
....|..|--- .... ....|C-5 2FFA ....|--- .... ....
..22|..|C-4 AF.F ....|C-5 2FFF B..5|F-2 .A.F ....
..11|..|F-1 2A.F ....|A#4 2FFA ....|F-4 .A.. ....
....|..|A#3 3FEF ....|A#4 2FFF B..3|--- .... ....
....|..|F-1 2F.A ....|C-5 2FFA ....|F-1 .... ....
....|..|C-4 3FEF ....|C-5 2FFF B..5|--- .... ....
....|..|--- .... ....|A#4 2FFA ....|--- .... ....
....|..|A#3 3FEF ....|A#4 2FFF B..3|F-2 .F.A ....
....|..|--- .... ....|C-5 2FFA ....|--- .... ....
....|..|D-4 3FEF ....|D-5 2FFF B..5|--- .... ....
....|..|--- .... ....|A#4 2FFA ....|F-1 .... ....
....|..|A#3 3FEF ....|A#4 2FFF B..3|--- .... ....
....|..|--- .... ....|D-5 2FFA ....|--- .... ....
....|..|C-4 3FEF ....|C-5 2FFF B..5|F-2 .F.7 ....
....|..|--- .... ....|A#4 2FFA ....|--- .... ....
....|..|D-4 3FEF ....|D-5 2FFF B..3|--- .... ....
....|..|--- .... ....|C-5 2FFA ....|--- .... ....
..1E|..|C-4 AF.F ....|F-4 2FFF B..5|G-2 .A.F ....
...F|..|G-1 2A.F ....|D-5 2FFA ....|G-2 .A.. ....
....|..|A-3 3FEF ....|A-4 2FFF B..3|G-1 .... ....
....|..|G-1 2F.A ....|F-4 2FFA ....|--- .... ....
....|..|A#3 3FEF ....|A#4 2FFF B..5|G-2 .... ....
....|..|--- .... ....|A-4 2FFA ....|--- .... ....
....|..|F-3 3FEF ....|F-4 2FFF B..3|G-2 .F.A ....
....|..|--- .... ....|A#4 2FFA ....|--- .... ....
....|..|A#3 3FEF ....|A#4 2FFF B..5|--- .... ....
....|..|--- .... ....|F-4 2FFA ....|G-1 .... ....
....|..|F-3 3FEF ....|F-4 2FFF B..3|--- .... ....
....|..|--- .... ....|A#4 2FFA ....|--- .... ....
....|..|D#3 3FEF ....|D#4 2FFF B..5|G-2 .F.7 ....
....|..|--- .... ....|F-4 2FFA ....|--- .... ....
....|..|D-3 3FEF ....|D-4 2FFF B..3|--- .... ....
....|..|--- .... ....|D#4 2FFA ....|--- .... ....
..33|..|C-4 AF.. ....|C-4 2FFF B..5|A#2 .C.F ....
..19|..|A#1 2A.F ....|D-4 2FFA ....|A#1 .A.. ....
....|..|A#2 3FEF ....|A#3 2FFF B..3|--- .... ....
....|..|A#1 2F.A ....|C-4 2FFA ....|A#1 .... ....
....|..|C-4 3FEF ....|C-5 2FFF B..5|--- .... ....
....|..|--- .... ....|A#3 2FFA ....|--- .... ....
....|..|A#3 3FEF ....|A#4 2FFF B..3|A#2 .F.A ....
....|..|--- .... ....|C-5 2FFA ....|--- .... ....
....|..|D-4 3FEF ....|D-5 2FFF B..5|--- .... ....
....|..|--- .... ....|A#4 2FFA ....|--- .... ....
....|..|A#3 3FEF ....|A#4 2FFF B..3|--- .... ....
....|..|--- .... ....|D-5 2FFA ....|--- .... ....
....|..|C-4 3FEF ....|C-5 2FFF B..5|A#2 .F.7 ....
....|..|--- .... ....|A#4 2FFA ....|--- .... ....
....|..|A#3 3FEF ....|A#4 2FFF B..3|--- .... ....
....|..|--- .... ....|C-5 2FFA ....|--- .... ....

[Pattern51]
..13|..|D#2 2AFF B...|A#5 2FF7 B..5|C-4 9F.F B..5
....|..|--- .... ....|F-5 2FFA ....|--- .... ....
....|..|G-4 3FEF ....|G-5 2FFF B..3|C-4 9F.F B..3
....|..|D#1 2F.A ....|R-- .... ....|--- .... ....
....|..|F-4 3FEF ....|F-5 2FFF B..5|C-4 9F.D B..5
....|..|--- .... ....|G-5 2FFA ....|--- .... ....
..13|..|G-4 3FEF ....|G-5 2FFF B..3|C-4 9F.D B..3
....|..|--- .... ....|F-5 2FFA ....|--- .... ....
..4B|..|D#2 .C.. ....|A#5 2FFF B..5|D#1 7A.A B..5
....|..|--- .... ....|G-5 2FFA ....|--- .... ....
....|..|--- .... ....|F-5 2FF7 B..3|C-4 KF.B B..3
....|..|--- .... ....|A#5 2FFA ....|--- .... ....
..11|..|F-2 2AFF ....|G-5 2FFF B..5|C-4 CF.F B..5
....|..|--- .... ....|R-- .... ....|--- .... ....
...F|..|G-2 .... ....|D-6 2FFF B..3|G-2 7A.F ....
....|..|--- .... ....|G-5 2FFA ....|--- .... ....
..11|..|F-2 2AFF ....|C-6 2FFF B..5|F-2 .A.F ....
....|..|--- .... ....|D-6 2FFA ....|--- .... ....
....|..|A#4 3FEF ....|A#5 2FFF B..3|F-2 .F.A ....
....|..|F-1 2F.A ....|C-6 2FFA ....|--- .... ....
....|..|F-4 3FEF ....|F-5 2FFF B..5|G-2 .F.A ....
....|..|--- .... ....|A#5 2FFA ....|--- .... ....
....|..|C-5 3FEA ....|C-6 2FF7 B..3|F-2 .F.A ....
....|..|--- .... ....|F-5 2FFA ....|--- .... ....
..13|..|A#4 3FEF ....|A#5 2FFF B..5|F-2 .F.7 ....
....|..|--- .... ....|R-- .... ....|--- .... ....
....|..|A-4 3FEF ....|A-5 2FFF B..3|G-2 .F.7 ....
....|..|--- .... ....|A#5 2FFA ....|--- .... ....
....|..|F-3 2F27 ....|F-5 2FFF B..5|F-2 .F.7 ....
....|..|--- .... ....|A-5 2FFA ....|--- .... ....
....|..|D#2 2F2A ....|D#5 2FFF B..3|--- .... ....
....|..|--- .... ....|F-5 2FFA ....|--- .... ....
...F|..|G-2 2A.F ....|D-5 2FFF B..5|C-4 9F.F B..5
....|..|--- .... ....|D#5 2FFA ....|--- .... ....
....|..|--- .... ....|C-5 2FFF B..3|C-4 9F.F B..3
....|..|--- .... ....|D-5 2FFA ....|--- .... ....
....|..|F-2 2FF7 ....|A#4 2FFF B..5|C-4 9F.D B..5
....|..|--- .... ....|C-5 2FFA ....|--- .... ....
....|..|G-2 2FFA ....|F-5 2FFF B..3|C-4 9F.D B..3
....|..|--- .... ....|A#4 2FFA ....|--- .... ....
.100|..|F-4 F9.F ....|A#4 2FFF B..5|D-4 F9.F B..5
....|..|--- .... ....|F-5 2FFA ....|--- .... ....
.200|..|F-4 F9.. ....|G-4 2FFF B..3|C-4 KF.B B..3
....|..|--- .... ....|A#4 2FFA ....|--- .... ....
...F|..|G-2 2AFF ....|A#4 2FFF B..5|C-4 CF.F B..5
....|..|--- .... ....|G-4 2FFA ....|--- .... ....
.100|..|F-4 F9.F ....|D-5 2FFF B..3|F-6 29.. ....
....|..|--- .... ....|A#4 2FFA ....|--- .... ....
...F|..|G-2 2AFF ....|G-6 2FFF B..5|G-2 7A.F ....
....|..|--- .... ....|D-5 2FFA ....|--- .... ....
....|..|D-5 3FEF ....|D-6 2FFF B..3|--- .... ....
....|..|G-1 2F.A ....|G-6 2FFA ....|--- .... ....
....|..|A#4 3FEF ....|A#5 2FFF B..5|--- .... ....
....|..|--- .... ....|D-6 2FFA ....|--- .... ....
....|..|G-4 3FEF ....|G-5 2FFF B..3|G-2 .F.A ....
....|..|--- .... ....|A#5 2FFA ....|--- .... ....
..11|..|F-2 2A.F ....|F-6 2FFF B..5|F-2 .A.F ....
.100|..|F-5 .9.. ....|G-5 2FFA ....|--- .... ....
.200|..|F-5 .9.. ....|A#5 2FFF B..3|--- .... ....
.300|..|F-5 .9.. ....|F-6 2FFA ....|--- .... ....
....|..|F-2 2AFF ....|G-5 2FFF B..5|G-2 .F.7 ....
....|..|R-- .... ....|A#5 2FFA ....|--- .... ....
....|..|--- .... ....|F-5 2FFF B..3|F-2 .F.A ....
....|..|R-- .... ....|G-5 2FFA ....|--- .... ....

[Pattern54]
..26|..|D#1 2A.F ....|C-4 9F.F B..5|D#2 7A.F ....
..26|..|A#3 3FE7 ....|--- .... ....|--- .... ....
....|..|G-4 3FEF ....|C-4 9F.F B..3|--- .... ....
....|..|D#1 2F.A ....|--- .... ....|--- .... ....
....|..|F-4 3FEF ....|C-4 9F.D B..5|F-2 .F.7 ....
....|..|--- .... ....|--- .... ....|--- .... ....
..26|..|G-4 3FEF ....|C-4 9F.D B..3|D#1 2A.F ....
....|..|--- .... ....|--- .... ....|A#3 3FE7 ....
....|..|A#4 3FEF ....|C-4 K..A B..5|G-4 3FEF ....
....|..|--- .... ....|G-5 2FFA ....|D#1 2F.A ....
....|..|F-3 3FE7 ....|F-5 2FF7 B..3|F-4 3FEF ....
....|..|--- .... ....|A#5 2FFA ....|--- .... ....
..22|..|F-1 2A.F ....|G-5 2FFF B..5|F-2 .A.F ....
....|..|--- .... ....|R-- .... ....|--- .... ....
..1E|..|G-1 2A.F ....|D-6 2FFF B..3|G-2 .A.F ....
....|..|F-1 2F.A ....|G-5 2FFA ....|--- .... ....
..22|..|F-1 2A.F ....|C-4 9F.F B..5|F-2 .A.F ....
....|..|G-1 2F.A ....|--- .... ....|--- .... ....
....|..|A#4 3FEF ....|C-4 9F.F B..3|F-2 .F.A ....
....|..|F-1 2F.A ....|--- .... ....|--- .... ....
....|..|F-4 3FEF ....|C-4 9F.D B..5|G-2 .F.A ....
....|..|--- .... ....|--- .... ....|--- .... ....
....|..|C-5 3FEA ....|C-4 9F.D B..3|F-2 .F.A ....
....|..|--- .... ....|--- .... ....|--- .... ....
....|..|A#4 3FEF ....|C-4 K..A B..5|F-2 .F.7 ....
....|..|--- .... ....|R-- .... ....|--- .... ....
....|..|A-4 3FEF ....|A-5 2FFF B..3|G-2 .F.7 ....
....|..|--- .... ....|A#5 2FFA ....|--- .... ....
....|..|F-4 3FEF ....|F-5 2FFF B..5|F-2 .F.7 ....
....|..|--- .... ....|A-5 2FFA ....|--- .... ....
....|..|D#4 3FEF ....|D#5 2FFF B..3|--- .... ....
....|..|--- .... ....|F-5 2FFA ....|--- .... ....
....|..|A#4 3FEF ....|C-4 K..A B..5|F-2 .F.7 ....
....|..|--- .... ....|R-- .... ....|--- .... ....
....|..|A-4 3FEF ....|A-5 2FFF B..3|G-2 .F.7 ....
....|..|--- .... ....|A#5 2FFA ....|--- .... ....
....|..|F-4 3FEF ....|F-5 2FFF B..5|F-2 .F.7 ....
....|..|--- .... ....|A-5 2FFA ....|--- .... ....
....|..|D#4 3FEF ....|D#5 2FFF B..3|--- .... ....
....|..|--- .... ....|F-5 2FFA ....|--- .... ....
..1E|..|G-1 2A.F ....|C-4 9F.F B..5|G-2 .A.F ....
....|..|--- .... ....|F-5 2FFA ....|--- .... ....
....|..|G-3 3FEF ....|G-4 2FFF B..3|--- .... ....
....|..|--- .... ....|A#4 2FFA ....|--- .... ....
....|..|A#3 3FEF ....|A#4 2FFF B..5|G-2 .F.7 ....
....|..|--- .... ....|G-4 2FFA ....|--- .... ....
....|..|D-4 3FEF ....|D-5 2FFF B..3|--- .... ....
....|..|--- .... ....|A#4 2FFA ....|--- .... ....
..1E|..|A#3 3FEF ....|A#4 2FFF B..5|--- .... ....
....|..|--- .... ....|G-4 2FFA ....|--- .... ....
....|..|D-4 3FEF ....|D-5 2FFF B..3|--- .... ....
....|..|--- .... ....|A#4 2FFA ....|--- .... ....
....|..|A#3 3FEF ....|A#4 2FFF B..5|--- .... ....
....|..|--- .... ....|G-4 2FFA ....|--- .... ....
....|..|D-4 3FEF ....|D-5 2FFF B..3|--- .... ....
....|..|--- .... ....|A#4 2FFA ....|--- .... ....
..22|..|G-1 2A.F ....|C-4 9F.F B..5|G-3 3FEF ..3F
....|..|--- .... ....|--- .... ....|--- .... ....
....|..|D-5 3FEF ....|C-4 9F.F B..3|A#3 3FEF ..3F
....|..|G-1 2F.A ....|--- .... ....|--- .... ....
....|..|A#4 3FEF ....|C-4 9F.D B..5|D-4 3FEF ....
....|..|--- .... ....|--- .... ....|--- .... ....
....|..|G-4 3FEF ....|C-4 9F.D B..3|G-3 3FEF ....
....|..|--- .... ....|--- .... ....|--- .... ....
..22|..|F-1 2A.F ....|C-4 K..A B..5|A#3 3FEF ....
....|..|--- .... ....|G-5 2FFA ....|--- .... ....
....|..|A#4 3FEF ....|A#5 2FFF B..3|D-4 3FEF ....
....|..|F-1 2F.A ....|F-6 2FFA ....|--- .... ....
....|..|G-4 3FEF ....|G-5 2FFF B..5|G-3 3FEF ....
....|..|--- .... ....|A#5 2FFA ....|--- .... ....
....|..|F-4 3FEF ....|F-5 2FFF B..3|A#3 3FEF ....
....|..|--- .... ....|G-5 2FFA ....|--- .... ....

