[Module]
VortexTrackerII=0
Version=3.5
Title=2me-2me-5me,8m[ud]-5m[3f]-4p+-7p+,6m[6e]-7p+-4p+
Author=oisee ^ 4d 29.05.2010
NoteTable=4
ChipFreq=1750000
Speed=3
PlayOrder=L0,1,2,3,4,5,6,7,8,9,10,11,12,13,14,15,16,17,18,19,20,21,22,23,24,25,26,27,28,29,30,31,32,33,34,35,36,37,38,39,18,19,20,21,22,23,24,25,26,27,28,51,52,53,54,55,26,27,58,59,22,23,62,63

[Ornament1]
L0,0,4,4,7,7,12,12

[Ornament2]
L0,0,4,4,9,9,12,12

[Ornament3]
L0,0,5,5,9,9,12,12

[Ornament4]
L0,0,5,5,10,10,12,12

[Ornament5]
L0,0,5,5,12,12

[Ornament6]
L0,0,4,4,12,12

[Ornament7]
L0,0,9,9,12,12

[Ornament8]
L0,0,5,5,9,9

[Ornament9]
L0,0,4,4

[Ornament10]
L0

[Ornament11]
L0

[Ornament12]
L0

[Ornament13]
-1,L0

[Ornament14]
-1,L0

[Ornament15]
24,L12,12,12,12,12,12,12,12

[Sample1]
TnE +000_ +00_ F_
TnE +000_ +00_ F_
TnE +000_ +00_ F_
TnE +000_ +00_ D_
TnE +000_ +00_ B_
TnE +000_ +00_ B_ L

[Sample2]
TnE +000_ +00_ C_
TnE +000_ +00_ D_ L
TnE +000_ +00_ D_
TnE +000_ +00_ D_

[Sample3]
TnE +001_ +00_ F_
TnE +002_ +00_ F_
TnE +001_ +00_ E_
TnE +002_ +00_ E_
TnE +000_ +00_ E_ L
TnE -001_ +00_ E_
TnE -002_ +00_ E_
TnE -001_ +00_ E_
TnE +000_ +00_ E_
TnE +001_ +00_ E_
TnE +002_ +00_ E_
TnE +001_ +00_ E_

[Sample4]
TnE +002_ +00_ D_
TnE +002_ +00_ D_
TnE +002_ +00_ C_
TnE +002_ +00_ B_
TnE +002_ +00_ A_ L
TnE +002_ +00_ A_
TnE +002_ +00_ A_
TnE +002_ +00_ A_
TnE +002_ +00_ A_
TnE +002_ +00_ A_
TnE +002_ +00_ A_
TnE +002_ +00_ A_

[Sample5]
TnE +000_ +00_ F_
TnE +000_ +00_ F_
tne +000_ +00_ 0_ L

[Sample6]
Tne +000_ +00_ D_
Tne +000_ +00_ E_
Tne +000_ +00_ F_
Tne +000_ +00_ D_
Tne +000_ +00_ C_
Tne +000_ +00_ C_ L

[Sample7]
TnE +006_ +00_ F_ L

[Sample8]
tNe +000_ +00_ F_
tNe +000_ +00_ B_
tNe +000_ +00_ 7_
tNe +000_ +00_ 6- L

[Sample9]
TnE +080_ +00_ F_
TnE +100_ +00_ E_
TnE +180_ +00_ E_
TnE +200_ +00_ E_
TnE +240_ +00_ D_
TnE +280_ +00_ D_
TnE +2C0_ +00_ D_
TnE +300_ +00_ C_
TnE +300_ +00_ C_
TnE +340_ +00_ C_
TnE +340_ +00_ C_
TnE +380_ +00_ B_
TnE +380_ +00_ B_
TnE +400_ +00_ B_
TnE +400_ +00_ B_
TnE +480_ +00_ A_
TnE +500_ +00_ 9_
TnE +580_ +00_ 7_
TnE +600_ +00_ 4_
TnE +680_ +00_ 1_
TnE +000_ +00_ 0_ L

[Sample10]
Tne +1C0_ +00_ F_
Tne +280_ +00_ E_
Tne +380_ +00_ C_
Tne +440_ +00_ A_
Tne +480_ +00_ 8_
TnE +000_ +00_ 0_ L

[Sample11]
TNe +200_ -0A_ F_
tNe +000_ +0F_ A_
TNe +200_ -07_ E_
tNe +000_ +0E_ B- L

[Sample12]
TNE +0A0_ +05_ F_
TNE +140_ +02_ D_
TNE +140_ +02_ B_
TNE +100_ +00_ A_ L
TNE +140_ +00_ A_
TNE +200_ +00_ A-

[Sample13]
Tne +200_ +00_ F_
Tne +2C0_ +00_ F_
Tne +380_ +00_ E_
Tne +500_ +00_ C_
Tne +520_ +00_ 9_
tne +000_ +00_ 0_ L

[Sample14]
TNE -100_ +00_ F_
TNE -100_ +00_ D_
TNE -100_ +00_ A_
TNE -100_ +00_ 5_
tne +000_ +00_ 0_ L

[Sample15]
TNE -100_ +00_ 5_
TNE -100_ +00_ 8_
TNE -100_ +00_ B_
TNE -100_ +00_ F_
TNe -100_ +00_ 9- L

[Sample16]
TnE +000_ +00_ C_
TnE +000_ +00_ E_
TnE +000_ +00_ F_
TnE +000_ +00_ F_
TnE +000_ +00_ E_
TnE +000_ +00_ D_
TnE +000_ +00_ C_
TnE +000_ +00_ C_ L
TnE +001_ +00_ C_
TnE +002_ +00_ C_
TnE +003_ +00_ C_
TnE +001_ +00_ C_
TnE +000_ +00_ C_
TnE -001_ +00_ C_
TnE -002_ +00_ C_
TnE -003_ +00_ C_
TnE -001_ +00_ C_
TnE +000_ +00_ C_
TnE +000_ +00_ C_

[Sample17]
Tne +1C0_ +00_ F_
Tne +280_ +00_ D_
Tne +380_ +00_ 7_
TNE +000_ +00_ 0_ L

[Sample18]
TnE -00C_ +00_ 0_ L

[Sample19]
TNe +000_ +00_ F_
TNe +000_ +00_ C_
TNe +000_ +00_ 6_
TNe +000_ +01_ A- L

[Sample20]
TNE +140_ +00_ F_
tNE +000_ +00_ B- L

[Sample21]
tNE +000_ +00_ D_
tNE +000_ +00_ 8_
tNE +000_ +00_ 1_
TNE +000_ +00_ 0_ L

[Sample22]
TnE +000_ +00_ D_ L
TnE +000_ +00_ D_
tne +000_ +00_ 9_
tne +000_ +00_ 9_
TnE +000_ +00_ D_
TnE +000_ +00_ D_
tne +000_ +00_ 9_
tne +000_ +00_ 9_
TnE +000_ +00_ D_
TnE +000_ +00_ D_
TnE +000_ +00_ D_
TnE +000_ +00_ D_
TnE +000_ +00_ D_
TnE +000_ +00_ D_
tne +000_ +00_ 9_
tne +000_ +00_ 9_

[Sample23]
TnE +000_ +00_ F_ L
TnE +010_ +01_ F_
TnE +010_ +01_ F_
TnE +010_ +01_ F_
TnE +010_ +01_ F_
TnE +000_ +00_ F_
TnE +000_ +00_ F_
TnE -010_ -01_ F_
TnE -010_ -01_ F_
TnE -010_ -01_ F_
TnE -010_ -01_ F_
TnE +000_ +00_ F_

[Sample24]
TNe +000_ -01_ C_
TNe +000_ -01_ D_
TNe +000_ -01_ E_
TNe +000_ -01_ F_
TNe +000_ -01_ F_
TNe +000_ -01_ F_
TNe +000_ -01_ F_
TNe +000_ -01_ F_
TNe +000_ -01_ E_
TNe +000_ -01_ E_
TNe +000_ -01_ E_
TNe +000_ -01_ F_
TNe +000_ -01_ F_ L

[Sample25]
TNE +000_ +00_ F_
TNE +000_ +00_ F_ L
TNE +000_ +00_ F_
TNE +000_ +00_ F_
TNE +000_ +00_ F-

[Sample26]
tne +000_ +00_ 0_ L

[Sample27]
TnE +100_ +05_ F_
TnE +200_ +02_ A_
TnE +300_ +02_ 7_
TNE +400_ +00_ 3- L

[Sample28]
tne +000_ +00_ 0_ L

[Sample29]
tnE +000_ +00_ 0_ L

[Sample30]
Tne +000_ +00_ C+ L

[Sample31]
TNe +1C0_ +00_ F_
Tne +280_ +00_ E_
Tne +380_ +00_ C_
Tne +440_ +00_ A_
Tne +480_ +00_ 8_
TnE +000_ +00_ 0_ L

[Pattern0]
....|..|R-- .... ....|R-- .... ....|C-5 6FEF ....
....|..|--- .... ....|--- .... ....|--- .... ....
....|..|--- .... ....|--- .... ....|--- .... ....
....|..|--- .... ....|--- .... ....|R-- .... ....
....|..|--- .... ....|--- .... ....|C-5 6FEF ....
....|..|--- .... ....|--- .... ....|--- .... ....
....|..|--- .... ....|--- .... ....|--- .... ....
....|..|--- .... ....|--- .... ....|R-- .... ....
....|..|--- .... ....|--- .... ....|--- .... ....
....|..|--- .... ....|--- .... ....|--- .... ....
....|..|--- .... ....|--- .... ....|--- .... ....
....|..|--- .... ....|--- .... ....|--- .... ....
....|..|--- .... ....|--- .... ....|C-5 6FEA ....
....|..|--- .... ....|--- .... ....|--- .... ....
....|..|--- .... ....|--- .... ....|--- .... ....
....|..|--- .... ....|--- .... ....|R-- .... ....
....|..|--- .... ....|--- .... ....|C-5 6FEF ....
....|..|--- .... ....|--- .... ....|--- .... ....
....|..|--- .... ....|--- .... ....|--- .... ....
....|..|--- .... ....|--- .... ....|R-- .... ....
....|..|--- .... ....|--- .... ....|C-5 6FEF ....
....|..|--- .... ....|--- .... ....|--- .... ....
....|..|--- .... ....|--- .... ....|--- .... ....
....|..|--- .... ....|--- .... ....|R-- .... ....
....|..|--- .... ....|--- .... ....|C-5 6FE7 ....
....|..|--- .... ....|--- .... ....|--- .... ....
....|..|--- .... ....|--- .... ....|--- .... ....
....|..|--- .... ....|--- .... ....|R-- .... ....
....|..|--- .... ....|--- .... ....|C-5 6FE7 ....
....|..|--- .... ....|--- .... ....|--- .... ....
....|..|--- .... ....|--- .... ....|--- .... ....
....|..|--- .... ....|--- .... ....|R-- .... ....
....|..|--- .... ....|--- .... ....|C-5 6FEF ....
....|..|--- .... ....|--- .... ....|--- .... ....
....|..|--- .... ....|--- .... ....|--- .... ....
....|..|--- .... ....|--- .... ....|R-- .... ....
....|..|--- .... ....|--- .... ....|C-5 6FEF ....
....|..|--- .... ....|--- .... ....|--- .... ....
....|..|--- .... ....|--- .... ....|--- .... ....
....|..|--- .... ....|--- .... ....|R-- .... ....
....|..|--- .... ....|--- .... ....|C-5 6FE7 ....
....|..|--- .... ....|--- .... ....|--- .... ....
....|..|--- .... ....|--- .... ....|--- .... ....
....|..|--- .... ....|--- .... ....|R-- .... ....
....|..|--- .... ....|--- .... ....|C-5 6FE7 ....
....|..|--- .... ....|--- .... ....|--- .... ....
....|..|--- .... ....|--- .... ....|--- .... ....
....|..|--- .... ....|--- .... ....|R-- .... ....
....|..|--- .... ....|--- .... ....|C-5 6FEF ....
....|..|--- .... ....|--- .... ....|--- .... ....
....|..|--- .... ....|--- .... ....|--- .... ....
....|..|--- .... ....|--- .... ....|R-- .... ....
....|..|--- .... ....|--- .... ....|C-5 6FEF ....
....|..|--- .... ....|--- .... ....|--- .... ....
....|..|--- .... ....|--- .... ....|--- .... ....
....|..|--- .... ....|--- .... ....|R-- .... ....
....|..|--- .... ....|--- .... ....|C-5 6FE7 ....
....|..|--- .... ....|--- .... ....|--- .... ....
....|..|--- .... ....|--- .... ....|--- .... ....
....|..|--- .... ....|--- .... ....|R-- .... ....
 C-3|..|C-3 2C.F ....|C-3 3FFF ....|C-5 6FE7 ....
....|..|--- .... ....|--- .... ....|--- .... ....
....|..|--- .... ....|--- .... ....|--- .... ....
....|..|--- .... ....|--- .... ....|R-- .... ....

[Pattern1]
 D-4|..|D-3 2C.F ....|D-3 3FFF ....|C-5 6FEF ....
....|..|--- .... ....|--- .... ....|--- .... ....
....|..|--- .... ....|--- .... ....|--- .... ....
....|..|--- .... ....|--- .... ....|R-- .... ....
....|..|--- .... ....|--- .... ....|C-5 6FEF ....
....|..|R-- .... ....|R-- .... ....|--- .... ....
....|..|--- .... ....|--- .... ....|--- .... ....
....|..|--- .... ....|--- .... ....|R-- .... ....
....|..|C-3 2F.A ....|C-3 3FFA ....|C-5 6FE7 ....
....|..|--- .... ....|--- .... ....|--- .... ....
....|..|--- .... ....|--- .... ....|--- .... ....
....|..|--- .... ....|--- .... ....|R-- .... ....
 C-3|..|C-3 2C.F ....|C-3 3FFF ....|C-5 6FE7 ....
....|..|--- .... ....|--- .... ....|--- .... ....
....|..|--- .... ....|--- .... ....|--- .... ....
....|..|R-- .... ....|R-- .... ....|R-- .... ....
 F-4|..|F-3 2C.F ....|F-3 3FFF ....|C-5 6FEF ....
....|..|R-- .... ....|R-- .... ....|--- .... ....
....|..|--- .... ....|--- .... ....|--- .... ....
....|..|--- .... ....|--- .... ....|R-- .... ....
 F-4|..|F-3 2C.F ....|F-3 3FFF ....|C-5 6FEF ....
....|..|--- .... ....|--- .... ....|--- .... ....
....|..|--- .... ....|--- .... ....|--- .... ....
....|..|--- .... ....|--- .... ....|R-- .... ....
 C-3|..|C-3 2C.F ....|C-3 3FFF ....|C-5 6FE7 ....
....|..|--- .... ....|--- .... ....|--- .... ....
....|..|--- .... ....|--- .... ....|--- .... ....
....|..|R-- .... ....|R-- .... ....|R-- .... ....
 C-3|..|C-3 2C.F ....|C-3 3FFF ....|C-5 6FE7 ....
....|..|R-- .... ....|R-- .... ....|--- .... ....
....|..|--- .... ....|--- .... ....|--- .... ....
....|..|R-- .... ....|R-- .... ....|R-- .... ....
 D-4|..|D-3 2C.F ....|D-3 3FFF ....|C-5 6FEF ....
....|..|--- .... ....|--- .... ....|--- .... ....
....|..|--- .... ....|--- .... ....|--- .... ....
....|..|--- .... ....|--- .... ....|R-- .... ....
 C-3|..|C-3 2C.F ....|C-3 3FFF ....|C-5 6FEF ....
....|..|--- .... ....|--- .... ....|--- .... ....
....|..|--- .... ....|--- .... ....|--- .... ....
....|..|R-- .... ....|R-- .... ....|R-- .... ....
 D-4|..|D-3 2C.F ....|D-3 3FFF ....|C-5 6FE7 ....
....|..|--- .... ....|--- .... ....|--- .... ....
....|..|--- .... ....|--- .... ....|--- .... ....
....|..|R-- .... ....|R-- .... ....|R-- .... ....
 C-3|..|C-3 2C.F ....|C-3 3FFF ....|C-5 6FE7 ....
....|..|--- .... ....|--- .... ....|--- .... ....
....|..|--- .... ....|--- .... ....|--- .... ....
....|..|--- .... ....|--- .... ....|R-- .... ....
 F-4|..|F-3 2C.F ....|F-3 3FFF ....|C-5 6FEF ....
....|..|--- .... ....|--- .... ....|--- .... ....
....|..|--- .... ....|--- .... ....|--- .... ....
....|..|R-- .... ....|R-- .... ....|R-- .... ....
 F-4|..|F-3 2C.F ....|F-3 3FFF ....|C-5 6FEF ....
....|..|--- .... ....|--- .... ....|--- .... ....
....|..|--- .... ....|--- .... ....|--- .... ....
....|..|R-- .... ....|R-- .... ....|R-- .... ....
 C-3|..|C-3 2C.F ....|C-3 3FFF ....|C-5 6FE7 ....
....|..|--- .... ....|--- .... ....|--- .... ....
....|..|--- .... ....|--- .... ....|--- .... ....
....|..|R-- .... ....|R-- .... ....|R-- .... ....
 C-3|..|C-3 2C.F ....|C-3 3FFF ....|C-5 6FE7 ....
....|..|--- .... ....|--- .... ....|--- .... ....
....|..|--- .... ....|--- .... ....|--- .... ....
....|..|R-- .... ....|R-- .... ....|R-- .... ....

[Pattern2]
 D-4|..|D-3 2C.F ....|D-3 3FFF ....|C-5 6FEF ....
....|..|--- .... ....|--- .... ....|--- .... ....
....|..|--- .... ....|--- .... ....|--- .... ....
....|..|--- .... ....|--- .... ....|R-- .... ....
....|..|C-3 2F.7 ....|C-3 3FF7 ....|C-5 6FEF ....
....|..|R-- .... ....|R-- .... ....|--- .... ....
....|..|--- .... ....|--- .... ....|--- .... ....
....|..|R-- .... ....|R-- .... ....|R-- .... ....
....|..|F-3 2F.7 ....|F-3 3FF7 ....|C-5 6FE7 ....
....|..|--- .... ....|--- .... ....|--- .... ....
....|..|--- .... ....|--- .... ....|--- .... ....
....|..|R-- .... ....|R-- .... ....|R-- .... ....
 C-3|..|C-3 2C.F ....|C-3 3FFF ....|C-5 6FE7 ....
....|..|--- .... ....|--- .... ....|--- .... ....
....|..|--- .... ....|--- .... ....|--- .... ....
....|..|--- .... ....|--- .... ....|R-- .... ....
 F-4|..|F-3 2C.F ....|F-3 3FFF ....|C-5 6FEF ....
....|..|R-- .... ....|R-- .... ....|--- .... ....
....|..|--- .... ....|--- .... ....|--- .... ....
....|..|R-- .... ....|R-- .... ....|R-- .... ....
 F-4|..|F-3 2C.F ....|F-3 3FFF ....|C-5 6FEF ....
....|..|--- .... ....|--- .... ....|--- .... ....
....|..|--- .... ....|--- .... ....|--- .... ....
....|..|R-- .... ....|R-- .... ....|R-- .... ....
 C-3|..|C-3 2C.F ....|C-3 3FFF ....|C-5 6FE7 ....
....|..|--- .... ....|--- .... ....|--- .... ....
....|..|--- .... ....|--- .... ....|--- .... ....
....|..|--- .... ....|--- .... ....|R-- .... ....
 C-3|..|C-3 2C.F ....|C-3 3FFF ....|C-5 6FE7 ....
....|..|R-- .... ....|R-- .... ....|--- .... ....
....|..|--- .... ....|--- .... ....|--- .... ....
....|..|R-- .... ....|R-- .... ....|R-- .... ....
 D-4|..|D-3 2C.F ....|D-3 3FFF ....|C-5 6FEF ....
....|..|--- .... ....|--- .... ....|--- .... ....
....|..|--- .... ....|--- .... ....|--- .... ....
....|..|R-- .... ....|R-- .... ....|R-- .... ....
 C-3|..|C-3 2C.F ....|C-3 3FFF ....|C-5 6FEF ....
....|..|--- .... ....|--- .... ....|--- .... ....
....|..|--- .... ....|--- .... ....|--- .... ....
....|..|R-- .... ....|R-- .... ....|R-- .... ....
 D-4|..|D-3 2C.F ....|D-3 3FFF ....|C-5 6FE7 ....
....|..|--- .... ....|--- .... ....|--- .... ....
....|..|--- .... ....|--- .... ....|--- .... ....
....|..|R-- .... ....|R-- .... ....|R-- .... ....
 C-3|..|C-3 2C.F ....|C-3 3FFF ....|C-5 6FE7 ....
....|..|--- .... ....|--- .... ....|--- .... ....
....|..|--- .... ....|--- .... ....|--- .... ....
....|..|R-- .... ....|R-- .... ....|R-- .... ....
 F-4|..|F-3 2C.F ....|F-3 3FFF ....|C-5 6FEF ....
....|..|--- .... ....|--- .... ....|--- .... ....
....|..|--- .... ....|--- .... ....|--- .... ....
....|..|R-- .... ....|R-- .... ....|R-- .... ....
 F-4|..|F-3 2C.F ....|F-3 3FFF ....|C-5 6FEF ....
....|..|--- .... ....|--- .... ....|--- .... ....
....|..|--- .... ....|--- .... ....|--- .... ....
....|..|--- .... ....|--- .... ....|R-- .... ....
 C-3|..|C-3 2C.F ....|C-3 3FFF ....|C-5 6FE7 ....
....|..|--- .... ....|--- .... ....|--- .... ....
....|..|--- .... ....|--- .... ....|--- .... ....
....|..|--- .... ....|--- .... ....|R-- .... ....
 C-3|..|C-3 2C.F ....|C-3 3FFF ....|C-5 6FE7 ....
....|..|--- .... ....|--- .... ....|--- .... ....
....|..|--- .... ....|--- .... ....|--- .... ....
....|..|R-- .... ....|R-- .... ....|R-- .... ....

[Pattern3]
 D-4|..|D-3 2C.F ....|D-3 3FFF ....|C-5 6FEF ....
....|..|--- .... ....|--- .... ....|--- .... ....
....|..|--- .... ....|--- .... ....|--- .... ....
....|..|--- .... ....|--- .... ....|R-- .... ....
....|..|C-3 2F.7 ....|C-3 3FF7 ....|C-5 6FEF ....
....|..|R-- .... ....|R-- .... ....|--- .... ....
....|..|--- .... ....|--- .... ....|--- .... ....
....|..|--- .... ....|--- .... ....|R-- .... ....
....|..|F-3 2F.7 ....|F-3 3FF7 ....|C-5 6FE7 ....
....|..|--- .... ....|--- .... ....|--- .... ....
....|..|--- .... ....|--- .... ....|--- .... ....
....|..|R-- .... ....|R-- .... ....|R-- .... ....
 C-3|..|C-3 2C.F ....|C-3 3FFF ....|C-5 6FE7 ....
....|..|--- .... ....|--- .... ....|--- .... ....
....|..|--- .... ....|--- .... ....|--- .... ....
....|..|R-- .... ....|R-- .... ....|R-- .... ....
 F-4|..|F-3 2C.F ....|F-3 3FFF ....|C-5 6FEF ....
....|..|R-- .... ....|R-- .... ....|--- .... ....
....|..|--- .... ....|--- .... ....|--- .... ....
....|..|--- .... ....|--- .... ....|R-- .... ....
 F-4|..|F-3 2C.F ....|F-3 3FFF ....|C-5 6FEF ....
....|..|--- .... ....|--- .... ....|--- .... ....
....|..|--- .... ....|--- .... ....|--- .... ....
....|..|R-- .... ....|R-- .... ....|R-- .... ....
 C-3|..|C-3 2C.F ....|C-3 3FFF ....|C-5 6FE7 ....
....|..|--- .... ....|--- .... ....|--- .... ....
....|..|--- .... ....|--- .... ....|--- .... ....
....|..|R-- .... ....|R-- .... ....|R-- .... ....
 C-3|..|C-3 2C.F ....|C-3 3FFF ....|C-5 6FE7 ....
....|..|R-- .... ....|R-- .... ....|--- .... ....
....|..|--- .... ....|--- .... ....|--- .... ....
....|..|R-- .... ....|R-- .... ....|R-- .... ....
 D-4|..|D-3 2C.F ....|D-3 3FFF ....|C-5 6FEF ....
....|..|--- .... ....|--- .... ....|--- .... ....
....|..|--- .... ....|--- .... ....|--- .... ....
....|..|--- .... ....|--- .... ....|R-- .... ....
 C-3|..|C-3 2C.F ....|C-3 3FFF ....|C-5 6FEF ....
....|..|--- .... ....|--- .... ....|--- .... ....
....|..|--- .... ....|--- .... ....|--- .... ....
....|..|R-- .... ....|R-- .... ....|R-- .... ....
 D-4|..|D-3 2C.F ....|D-3 3FFF ....|C-5 6FE7 ....
....|..|--- .... ....|--- .... ....|--- .... ....
....|..|--- .... ....|--- .... ....|--- .... ....
....|..|R-- .... ....|R-- .... ....|R-- .... ....
 C-3|..|C-3 2C.F ....|C-3 3FFF ....|C-5 6FE7 ....
....|..|--- .... ....|--- .... ....|--- .... ....
....|..|--- .... ....|--- .... ....|--- .... ....
....|..|R-- .... ....|R-- .... ....|R-- .... ....
 F-4|..|F-3 2C.F ....|F-3 3FFF ....|C-5 6FEF ....
....|..|--- .... ....|--- .... ....|--- .... ....
....|..|--- .... ....|--- .... ....|--- .... ....
....|..|R-- .... ....|R-- .... ....|R-- .... ....
 F-4|..|F-3 2C.F ....|F-3 3FFF ....|C-5 6FEF ....
....|..|--- .... ....|--- .... ....|--- .... ....
....|..|--- .... ....|--- .... ....|--- .... ....
....|..|R-- .... ....|R-- .... ....|R-- .... ....
 C-3|..|C-3 2C.F ....|C-3 3FFF ....|C-5 6FE7 ....
....|..|--- .... ....|--- .... ....|--- .... ....
....|..|--- .... ....|--- .... ....|--- .... ....
....|..|R-- .... ....|R-- .... ....|R-- .... ....
 C-3|..|C-3 2C.F ....|C-3 3FFF ....|C-5 6FE7 ....
....|..|--- .... ....|--- .... ....|--- .... ....
....|..|--- .... ....|--- .... ....|--- .... ....
....|..|R-- .... ....|R-- .... ....|R-- .... ....

[Pattern4]
 D-4|..|D-3 2C.F ....|D-3 3FFF ....|C-5 6FEF ....
....|..|--- .... ....|--- .... ....|--- .... ....
....|..|--- .... ....|--- .... ....|--- .... ....
....|..|R-- .... ....|R-- .... ....|R-- .... ....
....|..|C-3 2F.7 ....|C-3 3FF7 ....|C-5 6FEF ....
....|..|R-- .... ....|R-- .... ....|--- .... ....
....|..|--- .... ....|--- .... ....|--- .... ....
....|..|R-- .... ....|R-- .... ....|R-- .... ....
....|..|F-3 2F.7 ....|F-3 3FF7 ....|C-5 6FE7 ....
....|..|--- .... ....|--- .... ....|--- .... ....
....|..|--- .... ....|--- .... ....|--- .... ....
....|..|R-- .... ....|R-- .... ....|R-- .... ....
 C-3|..|C-3 2C.F ....|C-3 3FFF ....|C-5 6FE7 ....
....|..|--- .... ....|--- .... ....|--- .... ....
....|..|--- .... ....|--- .... ....|--- .... ....
....|..|R-- .... ....|R-- .... ....|R-- .... ....
 F-4|..|F-3 2C.F ....|F-3 3FFF ....|C-5 6FEF ....
....|..|R-- .... ....|R-- .... ....|--- .... ....
....|..|--- .... ....|--- .... ....|--- .... ....
....|..|R-- .... ....|R-- .... ....|R-- .... ....
 F-4|..|F-3 2C.F ....|F-3 3FFF ....|C-5 6FEF ....
....|..|--- .... ....|--- .... ....|--- .... ....
....|..|--- .... ....|--- .... ....|--- .... ....
....|..|R-- .... ....|R-- .... ....|R-- .... ....
 C-3|..|C-3 2C.F ....|C-3 3FFF ....|C-5 6FE7 ....
....|..|--- .... ....|--- .... ....|--- .... ....
....|..|--- .... ....|--- .... ....|--- .... ....
....|..|R-- .... ....|R-- .... ....|R-- .... ....
 C-3|..|C-3 2C.F ....|C-3 3FFF ....|C-5 6FE7 ....
....|..|R-- .... ....|R-- .... ....|--- .... ....
....|..|--- .... ....|--- .... ....|--- .... ....
....|..|R-- .... ....|G-3 2F5F ....|G-3 2F5F ....
 D-4|..|D-3 2C.F ....|D-3 3FFF ....|C-5 6FEF ....
....|..|--- .... ....|--- .... ....|--- .... ....
....|..|--- .... ....|--- .... ....|--- .... ....
....|..|R-- .... ....|R-- .... ....|R-- .... ....
 C-3|..|C-3 2C.F ....|C-3 3FFF ....|C-5 6FEF ....
....|..|--- .... ....|--- .... ....|--- .... ....
....|..|--- .... ....|--- .... ....|--- .... ....
....|..|R-- .... ....|R-- .... ....|R-- .... ....
 D-4|..|D-3 2C.F ....|D-3 3FFF ....|C-5 6FE7 ....
....|..|--- .... ....|--- .... ....|--- .... ....
....|..|--- .... ....|--- .... ....|--- .... ....
....|..|R-- .... ....|G-3 2F5A ....|G-3 2F5A ....
 C-3|..|C-3 2C.F ....|C-3 3FFF ....|C-5 6FE7 ....
....|..|--- .... ....|--- .... ....|--- .... ....
....|..|--- .... ....|--- .... ....|--- .... ....
....|..|R-- .... ....|R-- .... ....|R-- .... ....
 F-4|..|F-3 2C.F ....|F-3 3FFF ....|C-5 6FEF ....
....|..|--- .... ....|--- .... ....|--- .... ....
....|..|--- .... ....|--- .... ....|--- .... ....
....|..|R-- .... ....|R-- .... ....|R-- .... ....
 F-4|..|F-3 2C.F ....|F-3 3FFF ....|C-5 6FEF ....
....|..|--- .... ....|--- .... ....|--- .... ....
....|..|--- .... ....|--- .... ....|--- .... ....
....|..|R-- .... ....|G-3 2F57 ....|G-3 2F57 ....
 C-3|..|C-3 2C.F ....|C-3 3FFF ....|C-5 6FEF ....
....|..|--- .... ....|--- .... ....|--- .... ....
....|..|--- .... ....|--- .... ....|--- .... ....
....|..|R-- .... ....|R-- .... ....|R-- .... ....
 C-3|..|C-3 2C.F ....|C-3 3FFF ....|C-5 6FE7 ....
....|..|--- .... ....|--- .... ....|--- .... ....
....|..|--- .... ....|--- .... ....|--- .... ....
....|..|R-- .... ....|R-- .... ....|R-- .... ....

[Pattern5]
 F-3|..|F-1 2A.F ....|D-3 3FFF ....|F-5 6FEF ....
 F-3|..|F-1 2A.F ....|--- .... ....|--- .... ....
 D-4|..|D-3 2C.F ....|--- .... ....|--- .... ....
....|..|R-- .... ....|R-- .... ....|R-- .... ....
 F-4|..|F-2 2A.F ....|C-3 3FF7 ....|C-5 6FEA ....
 F-4|..|F-2 2A.F ....|R-- .... ....|--- .... ....
....|..|R-- .... ....|--- .... ....|--- .... ....
....|..|R-- .... ....|R-- .... ....|--- .... ....
 F-3|..|F-1 2A.F ....|F-3 3FF7 ....|C-5 6FE7 ....
 F-3|..|F-1 2A.F ....|--- .... ....|--- .... ....
....|..|R-- .... ....|--- .... ....|--- .... ....
....|..|R-- .... ....|R-- .... ....|R-- .... ....
 F-4|..|F-2 2A.F ....|C-3 3FFF ....|C-5 6FE7 ....
 F-4|..|F-2 2A.F ....|--- .... ....|--- .... ....
 C-3|..|C-3 2C.F ....|--- .... ....|--- .... ....
....|..|R-- .... ....|R-- .... ....|R-- .... ....
 F-3|..|F-1 2A.F ....|F-3 3FFF ....|C-5 6FE7 ....
 F-3|..|F-1 2A.F ....|R-- .... ....|--- .... ....
 F-4|..|F-3 2C.F ....|--- .... ....|--- .... ....
....|..|--- .... ....|--- .... ....|--- .... ....
 F-4|..|F-2 2A.F ....|F-3 3FFF ....|--- .... ....
 F-4|..|F-2 2A.F ....|--- .... ....|--- .... ....
 F-4|..|F-3 2C.F ....|--- .... ....|--- .... ....
....|..|--- .... ....|--- .... ....|--- .... ....
 F-3|..|F-1 2A.F ....|C-3 3FFF ....|F-5 6FE7 ....
 F-3|..|F-1 2A.F ....|--- .... ....|--- .... ....
 C-3|..|C-3 2C.F ....|--- .... ....|--- .... ....
....|..|R-- .... ....|R-- .... ....|--- .... ....
 F-4|..|F-2 2A.F ....|C-3 3FFF ....|--- .... ....
 F-4|..|F-2 2A.F ....|R-- .... ....|--- .... ....
 C-3|..|C-3 2C.F ....|--- .... ....|--- .... ....
....|..|R-- .... ....|R-- .... ....|--- .... ....
 F-3|..|F-1 2A.F ....|D-3 3FFF ....|--- .... ....
 F-3|..|F-1 2A.F ....|--- .... ....|--- .... ....
 D-4|..|D-3 2C.F ....|--- .... ....|--- .... ....
....|..|--- .... ....|--- .... ....|--- .... ....
 F-4|..|F-2 2A.F ....|C-3 3FFF ....|--- .... ....
 F-4|..|F-2 2A.F ....|--- .... ....|--- .... ....
 C-3|..|C-3 2C.F ....|--- .... ....|--- .... ....
....|..|R-- .... ....|R-- .... ....|--- .... ....
 F-3|..|F-1 2A.F ....|D-3 3FFF ....|--- .... ....
 F-3|..|F-1 2A.F ....|--- .... ....|--- .... ....
 D-4|..|D-3 2C.F ....|--- .... ....|--- .... ....
....|..|R-- .... ....|R-- .... ....|--- .... ....
 F-4|..|F-2 2A.F ....|C-3 3FFF ....|--- .... ....
 F-4|..|F-2 2A.F ....|--- .... ....|--- .... ....
 C-3|..|C-3 2C.F ....|--- .... ....|--- .... ....
....|..|--- .... ....|--- .... ....|--- .... ....
 F-3|..|F-1 2A.F ....|F-3 3FFF ....|--- .... ....
 F-3|..|F-1 2A.F ....|--- .... ....|--- .... ....
 F-4|..|F-3 2C.F ....|--- .... ....|--- .... ....
....|..|R-- .... ....|R-- .... ....|--- .... ....
 F-4|..|F-2 2A.F ....|F-3 3FFF ....|--- .... ....
 F-4|..|F-2 2A.F ....|--- .... ....|--- .... ....
 F-4|..|F-3 2C.F ....|--- .... ....|--- .... ....
....|..|R-- .... ....|R-- .... ....|--- .... ....
 F-3|..|F-1 2A.F ....|C-3 3FFF ....|--- .... ....
 F-3|..|F-1 2A.F ....|--- .... ....|--- .... ....
 C-3|..|C-3 2C.F ....|--- .... ....|--- .... ....
....|..|R-- .... ....|R-- .... ....|--- .... ....
 F-4|..|F-2 2A.F ....|C-3 3FFF ....|--- .... ....
 F-4|..|F-2 2A.F ....|--- .... ....|--- .... ....
 C-3|..|C-3 2C.F ....|--- .... ....|--- .... ....
....|..|R-- .... ....|R-- .... ....|--- .... ....

[Pattern6]
 D-3|..|D-1 2A.F ....|D-3 3FFF ....|F-3 2F2F ....
 D-3|..|D-1 2A.F ....|--- .... ....|--- .... ....
 D-4|..|D-3 2C.F ....|--- .... ....|--- .... ....
....|..|--- .... ....|--- .... ....|--- .... ....
 D-4|..|D-2 2A.F ....|C-3 3FF7 ....|--- .... ....
 D-4|..|D-2 2A.F ....|R-- .... ....|--- .... ....
....|..|C-3 2F.7 ....|--- .... ....|--- .... ....
....|..|R-- .... ....|R-- .... ....|--- .... ....
 D-3|..|D-1 2A.F ....|F-3 3FF7 ....|--- .... ....
 D-3|..|D-1 2A.F ....|--- .... ....|--- .... ....
....|..|F-3 2F.7 ....|--- .... ....|--- .... ....
....|..|R-- .... ....|R-- .... ....|--- .... ....
 D-4|..|D-2 2A.F ....|C-3 3FFF ....|F-3 2F2A ....
 D-4|..|D-2 2A.F ....|--- .... ....|--- .... ....
 C-3|..|C-3 2C.F ....|--- .... ....|--- .... ....
....|..|--- .... ....|--- .... ....|--- .... ....
 D-3|..|D-1 2A.F ....|F-3 3FFF ....|--- .... ....
 D-3|..|D-1 2A.F ....|R-- .... ....|--- .... ....
 F-4|..|F-3 2C.F ....|--- .... ....|--- .... ....
....|..|R-- .... ....|R-- .... ....|--- .... ....
 D-4|..|D-2 2A.F ....|F-3 3FFF ....|--- .... ....
 D-4|..|D-2 2A.F ....|--- .... ....|--- .... ....
 F-4|..|F-3 2C.F ....|--- .... ....|--- .... ....
....|..|R-- .... ....|R-- .... ....|--- .... ....
 D-3|..|D-1 2A.F ....|C-3 3FFF ....|F-3 2F27 ....
 D-3|..|D-1 2A.F ....|--- .... ....|--- .... ....
 C-3|..|C-3 2C.F ....|--- .... ....|--- .... ....
....|..|--- .... ....|--- .... ....|--- .... ....
 D-4|..|D-2 2A.F ....|C-3 3FFF ....|--- .... ....
 D-4|..|D-2 2A.F ....|R-- .... ....|--- .... ....
 C-3|..|C-3 2C.F ....|--- .... ....|--- .... ....
....|..|R-- .... ....|R-- .... ....|--- .... ....
 D-3|..|D-1 2A.F ....|D-3 3FFF ....|--- .... ....
 D-3|..|D-1 2A.F ....|--- .... ....|--- .... ....
 D-4|..|D-3 2C.F ....|--- .... ....|--- .... ....
....|..|R-- .... ....|R-- .... ....|--- .... ....
 D-4|..|D-2 2A.F ....|C-3 3FFF ....|--- .... ....
 D-4|..|D-2 2A.F ....|--- .... ....|--- .... ....
 C-3|..|C-3 2C.F ....|--- .... ....|--- .... ....
....|..|R-- .... ....|R-- .... ....|--- .... ....
 D-3|..|D-1 2A.F ....|D-3 3FFF ....|--- .... ....
 D-3|..|D-1 2A.F ....|--- .... ....|--- .... ....
 D-4|..|D-3 2C.F ....|--- .... ....|--- .... ....
....|..|R-- .... ....|R-- .... ....|--- .... ....
 D-4|..|D-2 2A.F ....|C-3 3FFF ....|--- .... ....
 D-4|..|D-2 2A.F ....|--- .... ....|--- .... ....
 C-3|..|C-3 2C.F ....|--- .... ....|--- .... ....
....|..|R-- .... ....|R-- .... ....|--- .... ....
 D-3|..|D-1 2A.F ....|F-3 3FFF ....|--- .... ....
 D-3|..|D-1 2A.F ....|--- .... ....|--- .... ....
 F-4|..|F-3 2C.F ....|--- .... ....|--- .... ....
....|..|R-- .... ....|R-- .... ....|--- .... ....
 D-4|..|D-2 2A.F ....|F-3 3FFF ....|--- .... ....
 D-4|..|D-2 2A.F ....|--- .... ....|--- .... ....
 F-4|..|F-3 2C.F ....|--- .... ....|--- .... ....
....|..|--- .... ....|--- .... ....|R-- .... ....
 D-3|..|D-1 2A.F ....|C-3 3FFF ....|D-5 6FEF ....
 D-3|..|D-1 2A.F ....|--- .... ....|--- .... ....
 C-3|..|C-3 2C.F ....|--- .... ....|--- .... ....
....|..|--- .... ....|--- .... ....|--- .... ....
 D-4|..|D-2 2A.F ....|C-3 3FFF ....|--- .... ....
 D-4|..|D-2 2A.F ....|--- .... ....|--- .... ....
 C-3|..|C-3 2C.F ....|--- .... ....|--- .... ....
....|..|R-- .... ....|R-- .... ....|R-- .... ....

[Pattern7]
 A#2|..|A#1 2A.F ....|D-3 3FFF ....|C-5 6FEF ....
 A#2|..|A#1 2A.F ....|--- .... ....|--- .... ....
 D-4|..|D-3 2C.F ....|--- .... ....|--- .... ....
....|..|--- .... ....|--- .... ....|R-- .... ....
 A#3|..|A#1 2A.F ....|C-3 3FF7 ....|D-5 6FEA ....
 A#3|..|A#1 2A.F ....|R-- .... ....|--- .... ....
....|..|C-3 2F.7 ....|--- .... ....|--- .... ....
....|..|--- .... ....|--- .... ....|--- .... ....
 A#2|..|A#1 2A.F ....|F-3 3FF7 ....|--- .... ....
 A#2|..|A#1 2A.F ....|--- .... ....|--- .... ....
....|..|F-3 2F.7 ....|--- .... ....|--- .... ....
....|..|R-- .... ....|R-- .... ....|R-- .... ....
 A#3|..|A#1 2A.F ....|C-3 3FFF ....|C-5 6FEA ....
 A#3|..|A#1 2A.F ....|--- .... ....|--- .... ....
 C-3|..|C-3 2C.F ....|--- .... ....|--- .... ....
....|..|R-- .... ....|R-- .... ....|R-- .... ....
 A#2|..|A#1 2A.F ....|F-3 3FFF ....|D-5 6FE7 ....
 A#2|..|A#1 2A.F ....|R-- .... ....|--- .... ....
 F-4|..|F-3 2C.F ....|--- .... ....|--- .... ....
....|..|--- .... ....|--- .... ....|--- .... ....
 A#3|..|A#1 2A.F ....|F-3 3FFF ....|--- .... ....
 A#3|..|A#1 2A.F ....|--- .... ....|--- .... ....
 F-4|..|F-3 2C.F ....|--- .... ....|--- .... ....
....|..|R-- .... ....|R-- .... ....|R-- .... ....
 A#2|..|A#1 2A.F ....|C-3 3FFF ....|C-5 6FE7 ....
 A#2|..|A#1 2A.F ....|--- .... ....|--- .... ....
 C-3|..|C-3 2C.F ....|--- .... ....|--- .... ....
....|..|R-- .... ....|R-- .... ....|--- .... ....
 A#3|..|A#1 2A.F ....|C-3 3FFF ....|--- .... ....
 A#3|..|A#1 2A.F ....|R-- .... ....|--- .... ....
 C-3|..|C-3 2C.F ....|--- .... ....|--- .... ....
....|..|R-- .... ....|R-- .... ....|--- .... ....
 A#2|..|A#1 2A.F ....|D-3 3FFF ....|--- .... ....
 A#2|..|A#1 2A.F ....|--- .... ....|--- .... ....
 D-4|..|D-3 2C.F ....|--- .... ....|--- .... ....
....|..|--- .... ....|--- .... ....|--- .... ....
 A#3|..|A#1 2A.F ....|C-3 3FFF ....|--- .... ....
 A#3|..|A#1 2A.F ....|--- .... ....|--- .... ....
 C-3|..|C-3 2C.F ....|--- .... ....|--- .... ....
....|..|R-- .... ....|R-- .... ....|--- .... ....
 A#2|..|A#1 2A.F ....|D-3 3FFF ....|--- .... ....
 A#2|..|A#1 2A.F ....|--- .... ....|--- .... ....
 D-4|..|D-3 2C.F ....|--- .... ....|--- .... ....
....|..|R-- .... ....|R-- .... ....|--- .... ....
 A#3|..|A#1 2A.F ....|C-3 3FFF ....|--- .... ....
 A#3|..|A#1 2A.F ....|--- .... ....|--- .... ....
 C-3|..|C-3 2C.F ....|--- .... ....|--- .... ....
....|..|R-- .... ....|R-- .... ....|--- .... ....
 A#2|..|A#1 2A.F ....|F-3 3FFF ....|--- .... ....
 A#2|..|A#1 2A.F ....|--- .... ....|--- .... ....
 F-4|..|F-3 2C.F ....|--- .... ....|--- .... ....
....|..|R-- .... ....|R-- .... ....|--- .... ....
 A#3|..|A#1 2A.F ....|F-3 3FFF ....|--- .... ....
 A#3|..|A#1 2A.F ....|--- .... ....|--- .... ....
 F-4|..|F-3 2C.F ....|--- .... ....|--- .... ....
....|..|R-- .... ....|R-- .... ....|R-- .... ....
 A#2|..|A#1 2A.F ....|C-3 3FFF ....|C-5 6FEF ....
 A#2|..|A#1 2A.F ....|--- .... ....|--- .... ....
 C-3|..|C-3 2C.F ....|--- .... ....|--- .... ....
....|..|R-- .... ....|R-- .... ....|--- .... ....
 A#3|..|A#1 2A.F ....|C-3 3FFF ....|--- .... ....
 A#3|..|A#1 2A.F ....|--- .... ....|--- .... ....
 C-3|..|C-3 2C.F ....|--- .... ....|--- .... ....
....|..|R-- .... ....|R-- .... ....|--- .... ....

[Pattern8]
 C-3|..|C-1 2A.F ....|D-3 3FFF ....|F-5 6FEF ....
 C-3|..|C-1 2A.F ....|--- .... ....|--- .... ....
 D-4|..|D-3 2C.F ....|--- .... ....|--- .... ....
....|..|R-- .... ....|R-- .... ....|R-- .... ....
 C-4|..|C-2 2A.F ....|C-3 3FF7 ....|C-5 6FEA ....
 C-4|..|C-2 2A.F ....|R-- .... ....|--- .... ....
....|..|C-3 2F.7 ....|--- .... ....|--- .... ....
....|..|R-- .... ....|R-- .... ....|--- .... ....
 C-3|..|C-1 2A.F ....|F-3 3FF7 ....|--- .... ....
 C-3|..|C-1 2A.F ....|--- .... ....|--- .... ....
....|..|F-3 2F.7 ....|--- .... ....|--- .... ....
....|..|R-- .... ....|R-- .... ....|--- .... ....
 C-4|..|C-2 2A.F ....|C-3 3FFF ....|F-5 6FEA ....
 C-4|..|C-2 2A.F ....|--- .... ....|--- .... ....
 C-3|..|C-3 2C.F ....|--- .... ....|--- .... ....
....|..|R-- .... ....|R-- .... ....|R-- .... ....
 C-3|..|C-1 2A.F ....|F-3 3FFF ....|C-5 6FE7 ....
 C-3|..|C-1 2A.F ....|R-- .... ....|--- .... ....
 F-4|..|F-3 2C.F ....|--- .... ....|--- .... ....
....|..|R-- .... ....|R-- .... ....|--- .... ....
 C-4|..|C-2 2A.F ....|F-3 3FFF ....|--- .... ....
 C-4|..|C-2 2A.F ....|--- .... ....|--- .... ....
 F-4|..|F-3 2C.F ....|--- .... ....|--- .... ....
....|..|R-- .... ....|R-- .... ....|--- .... ....
 C-3|..|C-1 2A.F ....|C-3 3FFF ....|F-5 6FE7 ....
 C-3|..|C-1 2A.F ....|--- .... ....|--- .... ....
 C-3|..|C-3 2C.F ....|--- .... ....|--- .... ....
....|..|R-- .... ....|R-- .... ....|--- .... ....
 C-4|..|C-2 2A.F ....|C-3 3FFF ....|--- .... ....
 C-4|..|C-2 2A.F ....|R-- .... ....|--- .... ....
 C-3|..|C-3 2C.F ....|--- .... ....|--- .... ....
....|..|R-- .... ....|G-3 2F5F ....|G-3 2F5F ....
 C-3|..|C-1 2A.F ....|D-3 3FFF ....|G-3 2F3F ....
 C-3|..|C-1 2A.F ....|--- .... ....|--- .... ....
 D-4|..|D-3 2C.F ....|--- .... ....|--- .... ....
....|..|R-- .... ....|R-- .... ....|--- .... ....
 C-4|..|C-2 2A.F ....|C-3 3FFF ....|--- .... ....
 C-4|..|C-2 2A.F ....|--- .... ....|--- .... ....
 C-3|..|C-3 2C.F ....|--- .... ....|--- .... ....
....|..|R-- .... ....|R-- .... ....|--- .... ....
 C-3|..|C-1 2A.F ....|D-3 3FFF ....|--- .... ....
 C-3|..|C-1 2A.F ....|--- .... ....|--- .... ....
 D-4|..|D-3 2C.F ....|--- .... ....|--- .... ....
....|..|R-- .... ....|G-3 2F5A ....|G-3 2F5A ....
 C-4|..|C-2 2A.F ....|C-3 3FFF ....|G-3 2F3A ....
 C-4|..|C-2 2A.F ....|--- .... ....|--- .... ....
 C-3|..|C-3 2C.F ....|--- .... ....|--- .... ....
....|..|R-- .... ....|R-- .... ....|--- .... ....
 C-3|..|C-1 2A.F ....|F-3 3FFF ....|--- .... ....
 C-3|..|C-1 2A.F ....|--- .... ....|--- .... ....
 F-4|..|F-3 2C.F ....|--- .... ....|--- .... ....
....|..|R-- .... ....|R-- .... ....|--- .... ....
 C-4|..|C-2 2A.F ....|F-3 3FFF ....|--- .... ....
 C-4|..|C-2 2A.F ....|--- .... ....|--- .... ....
 F-4|..|F-3 2C.F ....|--- .... ....|--- .... ....
....|..|R-- .... ....|G-3 2F57 ....|G-3 2F57 ....
 C-3|..|C-1 2A.F ....|C-3 3FFF ....|G-3 2F37 ....
 C-3|..|C-1 2A.F ....|--- .... ....|--- .... ....
 C-3|..|C-3 2C.F ....|--- .... ....|--- .... ....
....|..|R-- .... ....|R-- .... ....|R-- .... ....
 C-4|..|C-2 2A.F ....|C-3 3FFF ....|--- .... ....
 C-4|..|C-2 2A.F ....|--- .... ....|--- .... ....
 C-3|..|C-3 2C.F ....|--- .... ....|--- .... ....
....|..|R-- .... ....|R-- .... ....|--- .... ....

[Pattern9]
 F-3|..|F-1 2A.F ....|D-3 3FFF ....|F-3 2F1F ....
 F-3|..|F-1 2A.F ....|--- .... ....|--- .... ....
 D-4|..|D-3 2C.F ....|--- .... ....|--- .... ....
....|..|R-- .... ....|R-- .... ....|--- .... ....
 F-4|..|F-2 2A.F ....|C-3 3FF7 ....|--- .... ....
 F-4|..|F-2 2A.F ....|R-- .... ....|--- .... ....
....|..|C-3 2F.7 ....|--- .... ....|--- .... ....
....|..|R-- .... ....|R-- .... ....|R-- .... ....
 F-3|..|F-1 2A.F ....|F-3 3FF7 ....|--- .... ....
 F-3|..|F-1 2A.F ....|--- .... ....|--- .... ....
....|..|F-3 2F.7 ....|--- .... ....|--- .... ....
....|..|R-- .... ....|R-- .... ....|--- .... ....
 F-4|..|F-2 2A.F ....|C-3 3FFF ....|F-3 2F1A ....
 F-4|..|F-2 2A.F ....|--- .... ....|--- .... ....
 C-3|..|C-3 2C.F ....|--- .... ....|--- .... ....
....|..|R-- .... ....|R-- .... ....|--- .... ....
 F-3|..|F-1 2A.F ....|F-3 3FFF ....|--- .... ....
 F-3|..|F-1 2A.F ....|R-- .... ....|--- .... ....
 F-4|..|F-3 2C.F ....|--- .... ....|--- .... ....
....|..|--- .... ....|--- .... ....|R-- .... ....
 F-4|..|F-2 2A.F ....|F-3 3FFF ....|--- .... ....
 F-4|..|F-2 2A.F ....|--- .... ....|--- .... ....
 F-4|..|F-3 2C.F ....|--- .... ....|--- .... ....
....|..|--- .... ....|--- .... ....|--- .... ....
 F-3|..|F-1 2A.F ....|C-3 3FFF ....|F-3 2F17 ....
 F-3|..|F-1 2A.F ....|--- .... ....|--- .... ....
 C-3|..|C-3 2C.F ....|--- .... ....|--- .... ....
....|..|R-- .... ....|R-- .... ....|--- .... ....
 F-4|..|F-2 2A.F ....|C-3 3FFF ....|--- .... ....
 F-4|..|F-2 2A.F ....|R-- .... ....|--- .... ....
 C-3|..|C-3 2C.F ....|--- .... ....|--- .... ....
....|..|R-- .... ....|R-- .... ....|--- .... ....
 F-3|..|F-1 2A.F ....|D-3 3FFF ....|--- .... ....
 F-3|..|F-1 2A.F ....|--- .... ....|--- .... ....
 D-4|..|D-3 2C.F ....|--- .... ....|--- .... ....
....|..|--- .... ....|--- .... ....|--- .... ....
 F-4|..|F-2 2A.F ....|C-3 3FFF ....|--- .... ....
 F-4|..|F-2 2A.F ....|--- .... ....|--- .... ....
 C-3|..|C-3 2C.F ....|--- .... ....|--- .... ....
....|..|R-- .... ....|R-- .... ....|--- .... ....
 F-3|..|F-1 2A.F ....|D-3 3FFF ....|--- .... ....
 F-3|..|F-1 2A.F ....|--- .... ....|--- .... ....
 D-4|..|D-3 2C.F ....|--- .... ....|--- .... ....
....|..|R-- .... ....|R-- .... ....|--- .... ....
 F-4|..|F-2 2A.F ....|C-3 3FFF ....|--- .... ....
 F-4|..|F-2 2A.F ....|--- .... ....|--- .... ....
 C-3|..|C-3 2C.F ....|--- .... ....|--- .... ....
....|..|--- .... ....|--- .... ....|--- .... ....
 F-3|..|F-1 2A.F ....|F-3 3FFF ....|--- .... ....
 F-3|..|F-1 2A.F ....|--- .... ....|--- .... ....
 F-4|..|F-3 2C.F ....|--- .... ....|--- .... ....
....|..|R-- .... ....|R-- .... ....|--- .... ....
 F-4|..|F-2 2A.F ....|F-3 3FFF ....|--- .... ....
 F-4|..|F-2 2A.F ....|--- .... ....|--- .... ....
 F-4|..|F-3 2C.F ....|--- .... ....|--- .... ....
....|..|R-- .... ....|R-- .... ....|--- .... ....
 F-3|..|F-1 2A.F ....|C-3 3FFF ....|--- .... ....
 F-3|..|F-1 2A.F ....|--- .... ....|--- .... ....
 C-3|..|C-3 2C.F ....|--- .... ....|--- .... ....
....|..|R-- .... ....|R-- .... ....|--- .... ....
 F-4|..|F-2 2A.F ....|C-3 3FFF ....|--- .... ....
 F-4|..|F-2 2A.F ....|--- .... ....|--- .... ....
 C-3|..|C-3 2C.F ....|--- .... ....|--- .... ....
....|..|R-- .... ....|F-3 2F6F ....|F-3 2F6F ....

[Pattern10]
 D-3|..|D-1 2A.F ....|D-3 3FFF ....|F-3 2F2F ....
 D-3|..|D-1 2A.F ....|--- .... ....|--- .... ....
 D-4|..|D-3 2C.F ....|--- .... ....|--- .... ....
....|..|--- .... ....|--- .... ....|--- .... ....
 D-4|..|D-2 2A.F ....|C-3 3FF7 ....|--- .... ....
 D-4|..|D-2 2A.F ....|R-- .... ....|--- .... ....
....|..|C-3 2F.7 ....|--- .... ....|--- .... ....
....|..|R-- .... ....|R-- .... ....|--- .... ....
 D-3|..|D-1 2A.F ....|F-3 3FF7 ....|--- .... ....
 D-3|..|D-1 2A.F ....|--- .... ....|--- .... ....
....|..|F-3 2F.7 ....|--- .... ....|--- .... ....
....|..|R-- .... ....|F-3 2F6A ....|F-3 2F6A ....
 D-4|..|D-2 2A.F ....|C-3 3FFF ....|F-3 2F2A ....
 D-4|..|D-2 2A.F ....|--- .... ....|--- .... ....
 C-3|..|C-3 2C.F ....|--- .... ....|--- .... ....
....|..|--- .... ....|--- .... ....|--- .... ....
 D-3|..|D-1 2A.F ....|F-3 3FFF ....|--- .... ....
 D-3|..|D-1 2A.F ....|R-- .... ....|--- .... ....
 F-4|..|F-3 2C.F ....|--- .... ....|--- .... ....
....|..|R-- .... ....|R-- .... ....|--- .... ....
 D-4|..|D-2 2A.F ....|F-3 3FFF ....|--- .... ....
 D-4|..|D-2 2A.F ....|--- .... ....|--- .... ....
 F-4|..|F-3 2C.F ....|--- .... ....|--- .... ....
....|..|R-- .... ....|F-3 2F67 ....|F-3 2F67 ....
 D-3|..|D-1 2A.F ....|C-3 3FFF ....|F-3 2F27 ....
 D-3|..|D-1 2A.F ....|--- .... ....|--- .... ....
 C-3|..|C-3 2C.F ....|--- .... ....|--- .... ....
....|..|--- .... ....|--- .... ....|--- .... ....
 D-4|..|D-2 2A.F ....|C-3 3FFF ....|--- .... ....
 D-4|..|D-2 2A.F ....|R-- .... ....|--- .... ....
 C-3|..|C-3 2C.F ....|--- .... ....|--- .... ....
....|..|R-- .... ....|R-- .... ....|--- .... ....
 D-3|..|D-1 2A.F ....|D-3 3FFF ....|--- .... ....
 D-3|..|D-1 2A.F ....|--- .... ....|--- .... ....
 D-4|..|D-3 2C.F ....|--- .... ....|--- .... ....
....|..|R-- .... ....|R-- .... ....|--- .... ....
 D-4|..|D-2 2A.F ....|C-3 3FFF ....|--- .... ....
 D-4|..|D-2 2A.F ....|--- .... ....|--- .... ....
 C-3|..|C-3 2C.F ....|--- .... ....|--- .... ....
....|..|R-- .... ....|R-- .... ....|--- .... ....
 D-3|..|D-1 2A.F ....|D-3 3FFF ....|--- .... ....
 D-3|..|D-1 2A.F ....|--- .... ....|--- .... ....
 D-4|..|D-3 2C.F ....|--- .... ....|--- .... ....
....|..|R-- .... ....|R-- .... ....|--- .... ....
 D-4|..|D-2 2A.F ....|C-3 3FFF ....|--- .... ....
 D-4|..|D-2 2A.F ....|--- .... ....|--- .... ....
 C-3|..|C-3 2C.F ....|--- .... ....|--- .... ....
....|..|R-- .... ....|R-- .... ....|--- .... ....
 D-3|..|D-1 2A.F ....|F-3 3FFF ....|--- .... ....
 D-3|..|D-1 2A.F ....|--- .... ....|--- .... ....
 F-4|..|F-3 2C.F ....|--- .... ....|--- .... ....
....|..|R-- .... ....|R-- .... ....|--- .... ....
 D-4|..|D-2 2A.F ....|F-3 3FFF ....|--- .... ....
 D-4|..|D-2 2A.F ....|--- .... ....|--- .... ....
 F-4|..|F-3 2C.F ....|--- .... ....|--- .... ....
....|..|--- .... ....|--- .... ....|--- .... ....
 D-3|..|D-1 2A.F ....|C-3 3FFF ....|--- .... ....
 D-3|..|D-1 2A.F ....|--- .... ....|--- .... ....
 C-3|..|C-3 2C.F ....|--- .... ....|--- .... ....
....|..|--- .... ....|--- .... ....|--- .... ....
 D-4|..|D-2 2A.F ....|C-3 3FFF ....|--- .... ....
 D-4|..|D-2 2A.F ....|--- .... ....|--- .... ....
 C-3|..|C-3 2C.F ....|--- .... ....|--- .... ....
....|..|R-- .... ....|R-- .... ....|--- .... ....

[Pattern11]
 A#2|..|A#1 2A.F ....|D-3 3FFF ....|F-3 2F3F ....
 A#2|..|A#1 2A.F ....|--- .... ....|--- .... ....
 D-4|..|D-3 2C.F ....|--- .... ....|--- .... ....
....|..|--- .... ....|--- .... ....|--- .... ....
 A#3|..|A#1 2A.F ....|C-3 3FF7 ....|--- .... ....
 A#3|..|A#1 2A.F ....|R-- .... ....|--- .... ....
....|..|C-3 2F.7 ....|--- .... ....|--- .... ....
....|..|--- .... ....|--- .... ....|--- .... ....
 A#2|..|A#1 2A.F ....|F-3 3FF7 ....|--- .... ....
 A#2|..|A#1 2A.F ....|--- .... ....|--- .... ....
....|..|F-3 2F.7 ....|--- .... ....|--- .... ....
....|..|R-- .... ....|R-- .... ....|--- .... ....
 A#3|..|A#1 2A.F ....|C-3 3FFF ....|F-3 2F3A ....
 A#3|..|A#1 2A.F ....|--- .... ....|--- .... ....
 C-3|..|C-3 2C.F ....|--- .... ....|--- .... ....
....|..|R-- .... ....|R-- .... ....|--- .... ....
 A#2|..|A#1 2A.F ....|F-3 3FFF ....|--- .... ....
 A#2|..|A#1 2A.F ....|R-- .... ....|--- .... ....
 F-4|..|F-3 2C.F ....|--- .... ....|--- .... ....
....|..|--- .... ....|--- .... ....|--- .... ....
 A#3|..|A#1 2A.F ....|F-3 3FFF ....|--- .... ....
 A#3|..|A#1 2A.F ....|--- .... ....|--- .... ....
 F-4|..|F-3 2C.F ....|--- .... ....|--- .... ....
....|..|R-- .... ....|R-- .... ....|--- .... ....
 A#2|..|A#1 2A.F ....|C-3 3FFF ....|F-3 2F37 ....
 A#2|..|A#1 2A.F ....|--- .... ....|--- .... ....
 C-3|..|C-3 2C.F ....|--- .... ....|--- .... ....
....|..|R-- .... ....|R-- .... ....|--- .... ....
 A#3|..|A#1 2A.F ....|C-3 3FFF ....|--- .... ....
 A#3|..|A#1 2A.F ....|R-- .... ....|--- .... ....
 C-3|..|C-3 2C.F ....|--- .... ....|--- .... ....
....|..|R-- .... ....|R-- .... ....|--- .... ....
 A#2|..|A#1 2A.F ....|D-3 3FFF ....|--- .... ....
 A#2|..|A#1 2A.F ....|--- .... ....|--- .... ....
 D-4|..|D-3 2C.F ....|--- .... ....|--- .... ....
....|..|--- .... ....|--- .... ....|--- .... ....
 A#3|..|A#1 2A.F ....|C-3 3FFF ....|--- .... ....
 A#3|..|A#1 2A.F ....|--- .... ....|--- .... ....
 C-3|..|C-3 2C.F ....|--- .... ....|--- .... ....
....|..|R-- .... ....|R-- .... ....|--- .... ....
 A#2|..|A#1 2A.F ....|D-3 3FFF ....|--- .... ....
 A#2|..|A#1 2A.F ....|--- .... ....|--- .... ....
 D-4|..|D-3 2C.F ....|--- .... ....|--- .... ....
....|..|R-- .... ....|R-- .... ....|--- .... ....
 A#3|..|A#1 2A.F ....|C-3 3FFF ....|--- .... ....
 A#3|..|A#1 2A.F ....|--- .... ....|--- .... ....
 C-3|..|C-3 2C.F ....|--- .... ....|--- .... ....
....|..|R-- .... ....|R-- .... ....|--- .... ....
 A#2|..|A#1 2A.F ....|F-3 3FFF ....|--- .... ....
 A#2|..|A#1 2A.F ....|--- .... ....|--- .... ....
 F-4|..|F-3 2C.F ....|--- .... ....|--- .... ....
....|..|R-- .... ....|R-- .... ....|--- .... ....
 A#3|..|A#1 2A.F ....|F-3 3FFF ....|--- .... ....
 A#3|..|A#1 2A.F ....|--- .... ....|--- .... ....
 F-4|..|F-3 2C.F ....|--- .... ....|--- .... ....
....|..|R-- .... ....|R-- .... ....|--- .... ....
 A#2|..|A#1 2A.F ....|C-3 3FFF ....|--- .... ....
 A#2|..|A#1 2A.F ....|--- .... ....|--- .... ....
 C-3|..|C-3 2C.F ....|--- .... ....|--- .... ....
....|..|R-- .... ....|R-- .... ....|--- .... ....
 A#3|..|A#1 2A.F ....|C-3 3FFF ....|--- .... ....
 A#3|..|A#1 2A.F ....|--- .... ....|--- .... ....
 C-3|..|C-3 2C.F ....|--- .... ....|--- .... ....
....|..|R-- .... ....|R-- .... ....|--- .... ....

[Pattern12]
 C-3|..|C-1 2A.F ....|D-3 3FFF ....|G-3 2F4F ....
 C-3|..|C-1 2A.F ....|--- .... ....|--- .... ....
 D-4|..|D-3 2C.F ....|--- .... ....|--- .... ....
....|..|R-- .... ....|R-- .... ....|--- .... ....
 C-4|..|C-2 2A.F ....|C-3 3FF7 ....|--- .... ....
 C-4|..|C-2 2A.F ....|R-- .... ....|--- .... ....
....|..|C-3 2F.7 ....|--- .... ....|--- .... ....
....|..|R-- .... ....|R-- .... ....|--- .... ....
 C-3|..|C-1 2A.F ....|F-3 3FF7 ....|--- .... ....
 C-3|..|C-1 2A.F ....|--- .... ....|--- .... ....
....|..|F-3 2F.7 ....|--- .... ....|--- .... ....
....|..|R-- .... ....|R-- .... ....|--- .... ....
 C-4|..|C-2 2A.F ....|C-3 3FFF ....|G-3 2F4A ....
 C-4|..|C-2 2A.F ....|--- .... ....|--- .... ....
 C-3|..|C-3 2C.F ....|--- .... ....|--- .... ....
....|..|R-- .... ....|R-- .... ....|--- .... ....
 C-3|..|C-1 2A.F ....|F-3 3FFF ....|--- .... ....
 C-3|..|C-1 2A.F ....|R-- .... ....|--- .... ....
 F-4|..|F-3 2C.F ....|--- .... ....|--- .... ....
....|..|R-- .... ....|R-- .... ....|--- .... ....
 C-4|..|C-2 2A.F ....|F-3 3FFF ....|--- .... ....
 C-4|..|C-2 2A.F ....|--- .... ....|--- .... ....
 F-4|..|F-3 2C.F ....|--- .... ....|--- .... ....
....|..|R-- .... ....|R-- .... ....|--- .... ....
 C-3|..|C-1 2A.F ....|C-3 3FFF ....|G-3 2F47 ....
 C-3|..|C-1 2A.F ....|--- .... ....|--- .... ....
 C-3|..|C-3 2C.F ....|--- .... ....|--- .... ....
....|..|R-- .... ....|R-- .... ....|--- .... ....
 C-4|..|C-2 2A.F ....|C-3 3FFF ....|--- .... ....
 C-4|..|C-2 2A.F ....|R-- .... ....|--- .... ....
 C-3|..|C-3 2C.F ....|--- .... ....|--- .... ....
....|..|R-- .... ....|G-3 2F5F ....|G-3 2F5F ....
 C-3|..|C-1 2A.F ....|D-3 3FFF ....|G-3 2F3F ....
 C-3|..|C-1 2A.F ....|--- .... ....|--- .... ....
 D-4|..|D-3 2C.F ....|--- .... ....|--- .... ....
....|..|R-- .... ....|R-- .... ....|--- .... ....
 C-4|..|C-2 2A.F ....|C-3 3FFF ....|--- .... ....
 C-4|..|C-2 2A.F ....|--- .... ....|--- .... ....
 C-3|..|C-3 2C.F ....|--- .... ....|--- .... ....
....|..|R-- .... ....|R-- .... ....|--- .... ....
 C-3|..|C-1 2A.F ....|D-3 3FFF ....|--- .... ....
 C-3|..|C-1 2A.F ....|--- .... ....|--- .... ....
 D-4|..|D-3 2C.F ....|--- .... ....|--- .... ....
....|..|R-- .... ....|G-3 2F5A ....|G-3 2F5A ....
 C-4|..|C-2 2A.F ....|C-3 3FFF ....|G-3 2F3A ....
 C-4|..|C-2 2A.F ....|--- .... ....|--- .... ....
 C-3|..|C-3 2C.F ....|--- .... ....|--- .... ....
....|..|R-- .... ....|R-- .... ....|--- .... ....
 C-3|..|C-1 2A.F ....|F-3 3FFF ....|--- .... ....
 C-3|..|C-1 2A.F ....|--- .... ....|--- .... ....
 F-4|..|F-3 2C.F ....|--- .... ....|--- .... ....
....|..|R-- .... ....|R-- .... ....|--- .... ....
 C-4|..|C-2 2A.F ....|F-3 3FFF ....|--- .... ....
 C-4|..|C-2 2A.F ....|--- .... ....|--- .... ....
 F-4|..|F-3 2C.F ....|--- .... ....|--- .... ....
....|..|R-- .... ....|G-3 2F57 ....|G-3 2F57 ....
 C-3|..|C-1 2A.F ....|C-3 3FFF ....|G-3 2F37 ....
 C-3|..|C-1 2A.F ....|--- .... ....|--- .... ....
 C-3|..|C-3 2C.F ....|--- .... ....|--- .... ....
....|..|R-- .... ....|R-- .... ....|--- .... ....
 C-4|..|C-2 2A.F ....|C-3 3FF7 ....|--- .... ....
 C-4|..|C-2 2A.F ....|--- .... ....|--- .... ....
....|..|C-3 2F.7 ....|--- .... ....|--- .... ....
....|..|R-- .... ....|R-- .... ....|--- .... ....

[Pattern13]
 F-3|..|F-1 2A.F ....|D-3 3FF7 ....|R-- .... ....
 F-3|..|F-1 2A.F ....|--- .... ....|--- .... ....
....|..|D-3 2F.7 ....|--- .... ....|--- .... ....
....|..|R-- .... ....|R-- .... ....|--- .... ....
 F-4|..|F-2 2A.F ....|C-3 3FFF ....|--- .... ....
 F-4|..|F-2 2A.F ....|--- .... ....|--- .... ....
 C-3|..|C-3 2C.F ....|--- .... ....|--- .... ....
....|..|R-- .... ....|R-- .... ....|--- .... ....
 F-3|..|F-1 2A.F ....|D-3 3FFF ....|--- .... ....
 F-3|..|F-1 2A.F ....|--- .... ....|--- .... ....
 D-4|..|D-3 2C.F ....|--- .... ....|--- .... ....
....|..|R-- .... ....|R-- .... ....|--- .... ....
 F-4|..|F-2 2A.F ....|C-3 3FFF ....|R-- .... ....
 F-4|..|F-2 2A.F ....|--- .... ....|--- .... ....
 C-3|..|C-3 2C.F ....|--- .... ....|--- .... ....
....|..|R-- .... ....|R-- .... ....|--- .... ....
 F-3|..|F-1 2A.F ....|D-3 3FFF ....|--- .... ....
 F-3|..|F-1 2A.F ....|--- .... ....|--- .... ....
 D-4|..|D-3 2C.F ....|--- .... ....|--- .... ....
....|..|--- .... ....|--- .... ....|--- .... ....
 F-4|..|F-2 2A.F ....|F-3 3FFF ....|--- .... ....
 F-4|..|F-2 2A.F ....|--- .... ....|--- .... ....
 F-4|..|F-3 2C.F ....|--- .... ....|--- .... ....
....|..|R-- .... ....|R-- .... ....|--- .... ....
 F-3|..|F-1 2A.F ....|D-3 3FFF ....|R-- .... ....
 F-3|..|F-1 2A.F ....|--- .... ....|--- .... ....
 D-4|..|D-3 2C.F ....|--- .... ....|--- .... ....
....|..|R-- .... ....|R-- .... ....|--- .... ....
 F-4|..|F-2 2A.F ....|C-3 3FFF ....|--- .... ....
 F-4|..|F-2 2A.F ....|--- .... ....|--- .... ....
 C-3|..|C-3 2C.F ....|--- .... ....|--- .... ....
....|..|R-- .... ....|R-- .... ....|--- .... ....
 F-3|..|F-1 2A.F ....|F-3 3FFF ....|--- .... ....
 F-3|..|F-1 2A.F ....|--- .... ....|--- .... ....
 F-4|..|F-3 2C.F ....|--- .... ....|--- .... ....
....|..|R-- .... ....|R-- .... ....|--- .... ....
 F-4|..|F-2 2A.F ....|C-3 3FF7 ....|--- .... ....
 F-4|..|F-2 2A.F ....|--- .... ....|--- .... ....
....|..|C-3 2F.7 ....|--- .... ....|--- .... ....
....|..|R-- .... ....|R-- .... ....|--- .... ....
 F-3|..|F-1 2A.F ....|C-3 3FFF ....|--- .... ....
 F-3|..|F-1 2A.F ....|--- .... ....|--- .... ....
 C-3|..|C-3 2C.F ....|--- .... ....|--- .... ....
....|..|R-- .... ....|R-- .... ....|--- .... ....
 F-4|..|F-2 2A.F ....|D-3 3FFF ....|--- .... ....
 F-4|..|F-2 2A.F ....|--- .... ....|--- .... ....
 D-4|..|D-3 2C.F ....|--- .... ....|--- .... ....
....|..|--- .... ....|--- .... ....|--- .... ....
 F-3|..|F-1 2A.F ....|D-3 3FF7 ....|--- .... ....
 F-3|..|F-1 2A.F ....|--- .... ....|--- .... ....
....|..|D-3 2F.7 ....|R-- .... ....|--- .... ....
....|..|R-- .... ....|R-- .... ....|--- .... ....
 F-4|..|F-2 2A.F ....|F-3 3FFF ....|--- .... ....
 F-4|..|F-2 2A.F ....|--- .... ....|--- .... ....
 F-4|..|F-3 2C.F ....|--- .... ....|--- .... ....
....|..|R-- .... ....|R-- .... ....|--- .... ....
 F-3|..|F-1 2A.F ....|C-3 3FFF ....|--- .... ....
 F-3|..|F-1 2A.F ....|--- .... ....|--- .... ....
 C-3|..|C-3 2C.F ....|--- .... ....|--- .... ....
....|..|--- .... ....|--- .... ....|--- .... ....
 F-4|..|F-2 2A.F ....|R-- .... ....|--- .... ....
 F-4|..|F-2 2A.F ....|R-- .... ....|--- .... ....
 C-3|..|C-3 2C.F ....|R-- .... ....|--- .... ....
 C-3|..|C-3 2C.F ....|--- .... ....|--- .... ....

[Pattern14]
 F-3|..|F-1 2A.F ....|C-3 3FF7 ....|--- .... ....
 F-3|..|F-1 2A.F ....|--- .... ....|--- .... ....
....|..|C-3 2F.7 ....|--- .... ....|--- .... ....
....|..|R-- .... ....|R-- .... ....|--- .... ....
 F-4|..|F-2 2A.F ....|C-3 3FFF ....|--- .... ....
 F-4|..|F-2 2A.F ....|--- .... ....|--- .... ....
 C-3|..|C-3 2C.F ....|--- .... ....|--- .... ....
....|..|R-- .... ....|R-- .... ....|--- .... ....
 F-3|..|F-1 2A.F ....|D-3 3FFF ....|--- .... ....
 F-3|..|F-1 2A.F ....|R-- .... ....|--- .... ....
 D-4|..|D-3 2C.F ....|R-- .... ....|--- .... ....
....|..|C-3 2F.A ....|R-- .... ....|--- .... ....
 F-4|..|F-2 2A.F ....|C-3 3FFF ....|--- .... ....
 F-4|..|F-2 2A.F ....|--- .... ....|--- .... ....
 C-3|..|C-3 2C.F ....|--- .... ....|--- .... ....
....|..|R-- .... ....|R-- .... ....|--- .... ....
 F-3|..|F-1 2A.F ....|D-3 3FFF ....|--- .... ....
 F-3|..|F-1 2A.F ....|--- .... ....|--- .... ....
 D-4|..|D-3 2C.F ....|--- .... ....|--- .... ....
....|..|R-- .... ....|R-- .... ....|--- .... ....
 F-4|..|F-2 2A.F ....|F-3 3FFF ....|--- .... ....
 F-4|..|F-2 2A.F ....|R-- .... ....|--- .... ....
 F-4|..|F-3 2C.F ....|--- .... ....|--- .... ....
....|..|C-3 2F.7 ....|R-- .... ....|--- .... ....
 F-3|..|F-1 2A.F ....|C-3 3FFA ....|--- .... ....
 F-3|..|F-1 2A.F ....|--- .... ....|--- .... ....
....|..|C-3 2F.A ....|--- .... ....|--- .... ....
....|..|R-- .... ....|R-- .... ....|--- .... ....
 F-4|..|F-2 2A.F ....|C-3 3FFF ....|--- .... ....
 F-4|..|F-2 2A.F ....|--- .... ....|--- .... ....
 C-3|..|C-3 2C.F ....|--- .... ....|--- .... ....
....|..|R-- .... ....|R-- .... ....|--- .... ....
 C-3|..|C-1 2A.F ....|F-3 3FFF ....|--- .... ....
 C-3|..|C-1 2A.F ....|--- .... ....|--- .... ....
 F-4|..|F-3 2C.F ....|--- .... ....|--- .... ....
....|..|R-- .... ....|R-- .... ....|--- .... ....
 C-4|..|C-2 2A.F ....|C-3 3FF7 ....|--- .... ....
 C-4|..|C-2 2A.F ....|R-- .... ....|--- .... ....
....|..|C-3 2F.7 ....|--- .... ....|--- .... ....
....|..|R-- .... ....|R-- .... ....|--- .... ....
 C-3|..|C-1 2A.F ....|C-3 3FFF ....|--- .... ....
 C-3|..|C-1 2A.F ....|--- .... ....|--- .... ....
 C-3|..|C-3 2C.F ....|--- .... ....|--- .... ....
....|..|R-- .... ....|R-- .... ....|--- .... ....
 C-4|..|C-2 2A.F ....|D-3 3FFF ....|--- .... ....
 C-4|..|C-2 2A.F ....|--- .... ....|--- .... ....
 D-4|..|D-3 2C.F ....|--- .... ....|--- .... ....
....|..|--- .... ....|--- .... ....|--- .... ....
 C-3|..|C-1 2A.F ....|R-- .... ....|--- .... ....
 C-3|..|C-1 2A.F ....|R-- .... ....|--- .... ....
....|..|R-- .... ....|R-- .... ....|--- .... ....
....|..|--- .... ....|--- .... ....|--- .... ....
 C-4|..|C-2 2A.F ....|F-3 3FFF ....|--- .... ....
 C-4|..|C-2 2A.F ....|--- .... ....|--- .... ....
 F-4|..|F-3 2C.F ....|--- .... ....|--- .... ....
....|..|R-- .... ....|R-- .... ....|--- .... ....
 C-3|..|C-1 2A.F ....|C-3 3FFF ....|--- .... ....
 C-3|..|C-1 2A.F ....|--- .... ....|--- .... ....
 C-3|..|C-3 2C.F ....|--- .... ....|--- .... ....
....|..|--- .... ....|--- .... ....|--- .... ....
 C-4|..|C-2 2A.F ....|--- .... ....|--- .... ....
 C-4|..|C-2 2A.F ....|R-- .... ....|--- .... ....
....|..|R-- .... ....|R-- .... ....|--- .... ....
....|..|--- .... ....|--- .... ....|--- .... ....

[Pattern15]
 F-3|..|F-1 2A.F ....|C-3 3FF7 ....|--- .... ....
 F-3|..|F-1 2A.F ....|--- .... ....|--- .... ....
....|..|C-3 2F.7 ....|--- .... ....|--- .... ....
....|..|R-- .... ....|R-- .... ....|--- .... ....
 F-4|..|F-2 2A.F ....|C-3 3FFF ....|--- .... ....
 F-4|..|F-2 2A.F ....|--- .... ....|--- .... ....
 C-3|..|C-3 2C.F ....|--- .... ....|--- .... ....
....|..|--- .... ....|--- .... ....|--- .... ....
 F-3|..|F-1 2A.F ....|D-3 3FFF ....|--- .... ....
 F-3|..|F-1 2A.F ....|R-- .... ....|--- .... ....
 D-4|..|D-3 2C.F ....|R-- .... ....|--- .... ....
....|..|--- .... ....|--- .... ....|--- .... ....
 F-4|..|F-2 2A.F ....|C-3 3FFF ....|--- .... ....
 F-4|..|F-2 2A.F ....|--- .... ....|--- .... ....
 C-3|..|C-3 2C.F ....|--- .... ....|--- .... ....
....|..|R-- .... ....|R-- .... ....|--- .... ....
 F-3|..|F-1 2A.F ....|D-3 3FFF ....|--- .... ....
 F-3|..|F-1 2A.F ....|--- .... ....|--- .... ....
 D-4|..|D-3 2C.F ....|--- .... ....|--- .... ....
....|..|R-- .... ....|R-- .... ....|--- .... ....
 F-4|..|F-2 2A.F ....|F-3 3FFF ....|--- .... ....
 F-4|..|F-2 2A.F ....|R-- .... ....|--- .... ....
 F-4|..|F-3 2C.F ....|--- .... ....|--- .... ....
....|..|--- .... ....|--- .... ....|--- .... ....
 F-3|..|F-1 2A.F ....|D-3 3FFF ....|--- .... ....
 F-3|..|F-1 2A.F ....|--- .... ....|--- .... ....
 D-4|..|D-3 2C.F ....|--- .... ....|--- .... ....
....|..|R-- .... ....|R-- .... ....|--- .... ....
 F-4|..|F-2 2A.F ....|C-3 3FFF ....|--- .... ....
 F-4|..|F-2 2A.F ....|--- .... ....|--- .... ....
 C-3|..|C-3 2C.F ....|--- .... ....|--- .... ....
 C-3|..|C-3 2C.F ....|R-- .... ....|--- .... ....
 F-3|..|F-1 2A.F ....|F-3 3FFF ....|--- .... ....
 F-3|..|F-1 2A.F ....|--- .... ....|--- .... ....
 F-4|..|F-3 2C.F ....|--- .... ....|--- .... ....
....|..|--- .... ....|--- .... ....|--- .... ....
 F-4|..|F-2 2A.F ....|C-3 3FF7 ....|--- .... ....
 F-4|..|F-2 2A.F ....|--- .... ....|--- .... ....
....|..|C-3 2F.7 ....|--- .... ....|--- .... ....
....|..|R-- .... ....|R-- .... ....|--- .... ....
 F-3|..|F-1 2A.F ....|C-3 3FFF ....|--- .... ....
 F-3|..|F-1 2A.F ....|--- .... ....|--- .... ....
 C-3|..|C-3 2C.F ....|--- .... ....|--- .... ....
....|..|C-3 2F.A ....|R-- .... ....|--- .... ....
 F-4|..|F-2 2A.F ....|D-3 3FFF ....|--- .... ....
 F-4|..|F-2 2A.F ....|--- .... ....|--- .... ....
 D-4|..|D-3 2C.F ....|--- .... ....|--- .... ....
....|..|--- .... ....|--- .... ....|--- .... ....
 F-3|..|F-1 2A.F ....|D-3 3FF7 ....|--- .... ....
 F-3|..|F-1 2A.F ....|--- .... ....|--- .... ....
....|..|D-3 2F.7 ....|R-- .... ....|--- .... ....
....|..|--- .... ....|--- .... ....|--- .... ....
 F-4|..|F-2 2A.F ....|F-3 3FFF ....|--- .... ....
 F-4|..|F-2 2A.F ....|--- .... ....|--- .... ....
 F-4|..|F-3 2C.F ....|--- .... ....|--- .... ....
....|..|C-3 2F.7 ....|R-- .... ....|--- .... ....
 F-3|..|F-1 2A.F ....|C-3 3FFF ....|--- .... ....
 F-3|..|F-1 2A.F ....|--- .... ....|--- .... ....
 C-3|..|C-3 2C.F ....|--- .... ....|--- .... ....
....|..|--- .... ....|--- .... ....|--- .... ....
 F-4|..|F-2 2A.F ....|R-- .... ....|--- .... ....
 F-4|..|F-2 2A.F ....|--- .... ....|--- .... ....
....|..|R-- .... ....|R-- .... ....|--- .... ....
....|..|--- .... ....|--- .... ....|--- .... ....

[Pattern16]
 F-3|..|F-1 2A.F ....|C-3 3FF7 ....|--- .... ....
 F-3|..|F-1 2A.F ....|--- .... ....|--- .... ....
....|..|C-3 2F.7 ....|--- .... ....|--- .... ....
....|..|R-- .... ....|R-- .... ....|--- .... ....
 F-4|..|F-2 2A.F ....|C-3 3FFF ....|--- .... ....
 F-4|..|F-2 2A.F ....|--- .... ....|--- .... ....
 C-3|..|C-3 2C.F ....|--- .... ....|--- .... ....
....|..|--- .... ....|--- .... ....|--- .... ....
 F-3|..|F-1 2A.F ....|D-3 3FFF ....|--- .... ....
 F-3|..|F-1 2A.F ....|--- .... ....|--- .... ....
 D-4|..|D-3 2C.F ....|R-- .... ....|--- .... ....
....|..|--- .... ....|--- .... ....|--- .... ....
 F-4|..|F-2 2A.F ....|C-3 3FFF ....|--- .... ....
 F-4|..|F-2 2A.F ....|--- .... ....|--- .... ....
 C-3|..|C-3 2C.F ....|--- .... ....|--- .... ....
....|..|--- .... ....|--- .... ....|--- .... ....
 F-3|..|F-1 2A.F ....|D-3 3FFF ....|--- .... ....
 F-3|..|F-1 2A.F ....|--- .... ....|--- .... ....
 D-4|..|D-3 2C.F ....|--- .... ....|--- .... ....
....|..|--- .... ....|--- .... ....|--- .... ....
 F-4|..|F-2 2A.F ....|F-3 3FFF ....|--- .... ....
 F-4|..|F-2 2A.F ....|--- .... ....|--- .... ....
 F-4|..|F-3 2C.F ....|--- .... ....|--- .... ....
....|..|--- .... ....|--- .... ....|--- .... ....
 F-3|..|F-1 2A.F ....|C-3 3FFA ....|--- .... ....
 F-3|..|F-1 2A.F ....|--- .... ....|--- .... ....
....|..|C-3 2F.A ....|--- .... ....|--- .... ....
....|..|--- .... ....|--- .... ....|--- .... ....
 F-4|..|F-2 2A.F ....|C-3 3FFF ....|--- .... ....
 F-4|..|F-2 2A.F ....|--- .... ....|--- .... ....
 C-3|..|C-3 2C.F ....|--- .... ....|--- .... ....
....|..|--- .... ....|--- .... ....|--- .... ....
 C-3|..|C-1 2A.F ....|F-3 3FFF ....|--- .... ....
 C-3|..|C-1 2A.F ....|--- .... ....|--- .... ....
 F-4|..|F-3 2C.F ....|--- .... ....|--- .... ....
....|..|--- .... ....|--- .... ....|--- .... ....
 C-4|..|C-2 2A.F ....|D-3 3FFF ....|--- .... ....
 C-4|..|C-2 2A.F ....|--- .... ....|--- .... ....
 D-4|..|D-3 2C.F ....|--- .... ....|--- .... ....
....|..|--- .... ....|--- .... ....|--- .... ....
 C-3|..|C-1 2A.F ....|C-3 3FFF ....|--- .... ....
 C-3|..|C-1 2A.F ....|--- .... ....|--- .... ....
 C-3|..|C-3 2C.F ....|--- .... ....|--- .... ....
....|..|--- .... ....|--- .... ....|--- .... ....
 C-4|..|C-2 2A.F ....|F-3 3FFF ....|--- .... ....
 C-4|..|C-2 2A.F ....|--- .... ....|--- .... ....
 F-4|..|F-3 2C.F ....|--- .... ....|--- .... ....
....|..|--- .... ....|--- .... ....|--- .... ....
 C-3|..|C-1 2A.F ....|D-3 3FFA ....|--- .... ....
 C-3|..|C-1 2A.F ....|R-- .... ....|--- .... ....
....|..|D-3 2F.A ....|--- .... ....|--- .... ....
....|..|--- .... ....|--- .... ....|--- .... ....
 C-4|..|C-2 2A.F ....|C-3 3FF7 ....|--- .... ....
 C-4|..|C-2 2A.F ....|--- .... ....|--- .... ....
....|..|C-3 2F.7 ....|--- .... ....|--- .... ....
....|..|--- .... ....|--- .... ....|--- .... ....
 C-3|..|C-1 2A.F ....|F-3 3FF7 ....|A-4 6FEF ....
 C-3|..|C-1 2A.F ....|--- .... ....|--- .... ....
....|..|F-3 2F.7 ....|--- .... ....|--- .... ....
....|..|--- .... ....|--- .... ....|--- .... ....
 C-4|..|C-2 2A.F ....|D-3 3FF7 ....|A#4 6FEF ....
 C-4|..|C-2 2A.F ....|R-- .... ....|--- .... ....
....|..|D-3 2F.7 ....|--- .... ....|--- .... ....
....|..|--- .... ....|--- .... ....|--- .... ....

[Pattern17]
 F-3|..|F-1 2A.F ....|A-3 UFDF ....|C-5 6FEF ....
 F-3|..|F-1 2A.F ....|--- .... ....|--- .... ....
....|..|C-3 2F.7 ....|C-4 UFDF ....|--- .... ....
....|..|--- .... ....|--- .... ....|--- .... ....
 F-4|..|F-2 2A.F ....|F-4 UFDF ....|A-4 6FEA ....
 F-4|..|F-2 2A.F ....|--- .... ....|--- .... ....
....|..|F-3 2F.7 ....|A-4 UFDF ....|--- .... ....
....|..|--- .... ....|--- .... ....|--- .... ....
 F-3|..|F-1 2A.F ....|C-5 UFDF ....|A#4 6FEA ....
 F-3|..|F-1 2A.F ....|R-- .... ....|--- .... ....
....|..|R-- .... ....|F-5 UFDF ....|--- .... ....
....|..|--- .... ....|--- .... ....|--- .... ....
 F-4|..|F-2 2A.F ....|A-5 UFDF ....|C-5 6FEA ....
 F-4|..|F-2 2A.F ....|--- .... ....|R-- .... ....
....|..|R-- .... ....|C-6 UFDF ....|--- .... ....
....|..|--- .... ....|--- .... ....|--- .... ....
 F-3|..|F-1 2A.F ....|F-6 UFDF ....|A-4 6FE7 ....
 F-3|..|F-1 2A.F ....|--- .... ....|--- .... ....
....|..|R-- .... ....|C-6 UFDF ....|--- .... ....
....|..|--- .... ....|--- .... ....|--- .... ....
 F-4|..|F-2 2A.F ....|A-5 UFDF ....|A#4 6FE7 ....
 F-4|..|F-2 2A.F ....|--- .... ....|--- .... ....
....|..|R-- .... ....|F-5 UFDF ....|--- .... ....
....|..|--- .... ....|--- .... ....|--- .... ....
 F-3|..|F-1 2A.F ....|C-5 UFDF ....|D-5 6FEF ....
 F-3|..|F-1 2A.F ....|--- .... ....|R-- .... ....
....|..|R-- .... ....|A-4 UFDF ....|--- .... ....
....|..|--- .... ....|--- .... ....|--- .... ....
 F-4|..|F-2 2A.F ....|F-4 UFDF ....|--- .... ....
 F-4|..|F-2 2A.F ....|--- .... ....|--- .... ....
....|..|R-- .... ....|C-4 UFDF ....|--- .... ....
....|..|--- .... ....|--- .... ....|--- .... ....
 D-3|..|D-1 2A.F ....|F-3 UFDF ....|G-4 6FEF ....
 D-3|..|D-1 2A.F ....|--- .... ....|--- .... ....
....|..|R-- .... ....|A-3 UFDF ....|--- .... ....
....|..|--- .... ....|--- .... ....|--- .... ....
 D-4|..|D-2 2A.F ....|D-4 UFDF ....|D-5 6FEA ....
 D-4|..|D-2 2A.F ....|--- .... ....|R-- .... ....
....|..|R-- .... ....|F-4 UFDF ....|--- .... ....
....|..|--- .... ....|--- .... ....|--- .... ....
 D-3|..|D-1 2A.F ....|A-4 UFDF ....|F-4 6FEF ....
 D-3|..|D-1 2A.F ....|--- .... ....|--- .... ....
....|..|R-- .... ....|D-5 UFDF ....|--- .... ....
....|..|--- .... ....|--- .... ....|--- .... ....
 D-4|..|D-2 2A.F ....|F-5 UFDF ....|G-4 6FEA ....
 D-4|..|D-2 2A.F ....|--- .... ....|--- .... ....
....|..|R-- .... ....|A-5 UFDF ....|--- .... ....
....|..|--- .... ....|--- .... ....|--- .... ....
 D-3|..|D-1 2A.F ....|D-6 UFDF ....|D-5 6FE7 ....
 D-3|..|D-1 2A.F ....|--- .... ....|--- .... ....
....|..|R-- .... ....|A-5 UFDF ....|--- .... ....
....|..|--- .... ....|--- .... ....|R-- .... ....
 D-4|..|D-2 2A.F ....|F-5 UFDF ....|F-4 6FEA ....
 D-4|..|D-2 2A.F ....|--- .... ....|--- .... ....
....|..|R-- .... ....|D-5 UFDF ....|--- .... ....
....|..|--- .... ....|--- .... ....|--- .... ....
 D-3|..|D-1 2A.F ....|A-4 UFDF ....|A-4 6FEF ....
 D-3|..|D-1 2A.F ....|--- .... ....|--- .... ....
....|..|R-- .... ....|F-4 UFDF ....|--- .... ....
....|..|--- .... ....|--- .... ....|--- .... ....
 D-4|..|D-2 2A.F ....|D-4 UFDF ....|--- .... ....
 D-4|..|D-2 2A.F ....|--- .... ....|--- .... ....
....|..|R-- .... ....|A-3 UFDF ....|--- .... ....
....|..|--- .... ....|--- .... ....|R-- .... ....

[Pattern18]
 A#2|..|A#1 2A.F ....|D-4 UFDF ....|A#4 6FEF ....
 A#2|..|A#1 2A.F ....|--- .... ....|--- .... ....
....|..|R-- .... ....|F-4 UFDF ....|--- .... ....
....|..|--- .... ....|--- .... ....|--- .... ....
 A#3|..|A#1 2A.F ....|A#4 UFDF ....|A-4 6FEA ....
 A#3|..|A#1 2A.F ....|--- .... ....|--- .... ....
....|..|R-- .... ....|D-5 UFDF ....|--- .... ....
....|..|--- .... ....|--- .... ....|--- .... ....
 A#2|..|A#1 2A.F ....|F-5 UFDF ....|A-4 6FEF ....
 A#2|..|A#1 2A.F ....|--- .... ....|--- .... ....
....|..|R-- .... ....|A#5 UFDF ....|--- .... ....
....|..|--- .... ....|--- .... ....|R-- .... ....
 A#3|..|A#1 2A.F ....|D-6 UFDF ....|A#4 6FEA ....
 A#3|..|A#1 2A.F ....|--- .... ....|--- .... ....
....|..|R-- .... ....|F-6 UFDF ....|--- .... ....
....|..|--- .... ....|--- .... ....|--- .... ....
 A#2|..|A#1 2A.F ....|A#6 UFDF ....|G-4 6FEF ....
 A#2|..|A#1 2A.F ....|--- .... ....|--- .... ....
....|..|R-- .... ....|F-6 UFDF ....|--- .... ....
....|..|--- .... ....|--- .... ....|--- .... ....
 A#3|..|A#1 2A.F ....|D-6 UFDF ....|A-4 6FEA ....
 A#3|..|A#1 2A.F ....|--- .... ....|--- .... ....
....|..|R-- .... ....|A#5 UFDF ....|--- .... ....
....|..|--- .... ....|--- .... ....|--- .... ....
 A#2|..|A#1 2A.F ....|F-5 UFDF ....|F-4 6FEF ....
 A#2|..|A#1 2A.F ....|--- .... ....|--- .... ....
....|..|R-- .... ....|D-5 UFDF ....|--- .... ....
....|..|--- .... ....|--- .... ....|--- .... ....
 A#3|..|A#1 2A.F ....|A#4 UFDF ....|G-4 6FEA ....
 A#3|..|A#1 2A.F ....|--- .... ....|--- .... ....
....|..|R-- .... ....|F-4 UFDF ....|--- .... ....
....|..|--- .... ....|F-3 2F7F ....|F-3 2F7F ....
 C-3|..|C-1 2A.F ....|E-4 UFDF ....|C-4 6FEF ....
 C-3|..|C-1 2A.F ....|--- .... ....|--- .... ....
....|..|R-- .... ....|G-4 UFDF ....|--- .... ....
....|..|--- .... ....|--- .... ....|--- .... ....
 C-4|..|C-2 2A.F ....|C-5 UFDF ....|F-4 6FEA ....
 C-4|..|C-2 2A.F ....|--- .... ....|--- .... ....
....|..|R-- .... ....|E-5 UFDF ....|--- .... ....
....|..|--- .... ....|--- .... ....|--- .... ....
 C-3|..|C-1 2A.F ....|G-5 UFDF ....|G-4 6FE7 ....
 C-3|..|C-1 2A.F ....|--- .... ....|--- .... ....
....|..|R-- .... ....|C-6 UFDF ....|--- .... ....
....|..|--- .... ....|F-3 2F7A ....|F-3 2F7A ....
 C-4|..|C-2 2A.F ....|E-6 UFDF ....|C-4 6FEA ....
 C-4|..|C-2 2A.F ....|--- .... ....|--- .... ....
....|..|R-- .... ....|G-6 UFDF ....|--- .... ....
....|..|--- .... ....|--- .... ....|--- .... ....
 C-3|..|C-1 2A.F ....|C-7 UFDF ....|F-4 6FE7 ....
 C-3|..|C-1 2A.F ....|--- .... ....|--- .... ....
....|..|R-- .... ....|G-6 UFDF ....|--- .... ....
....|..|--- .... ....|--- .... ....|--- .... ....
 C-4|..|C-2 2A.F ....|E-6 UFDF ....|R-- .... ....
 C-4|..|C-2 2A.F ....|--- .... ....|--- .... ....
....|..|R-- .... ....|C-6 UFDF ....|--- .... ....
....|..|--- .... ....|F-3 2F77 ....|F-3 2F77 ....
 C-3|..|C-1 2A.F ....|G-5 UFDF ....|A-4 6FEF ....
 C-3|..|C-1 2A.F ....|--- .... ....|--- .... ....
....|..|R-- .... ....|E-5 UFDF ....|--- .... ....
....|..|--- .... ....|--- .... ....|--- .... ....
 C-4|..|C-2 2A.F ....|C-5 UFDF ....|A#4 6FEF ....
 C-4|..|C-2 2A.F ....|--- .... ....|--- .... ....
....|..|R-- .... ....|G-4 UFDF ....|--- .... ....
....|..|--- .... ....|G-3 2F8F ....|G-3 2F8F ....

[Pattern19]
 F-3|..|F-1 2A.F ....|A-3 UFDF ....|C-5 6FEF ....
 F-3|..|F-1 2A.F ....|--- .... ....|--- .... ....
....|..|R-- .... ....|C-4 UFDF ....|--- .... ....
....|..|--- .... ....|--- .... ....|--- .... ....
 F-4|..|F-2 2A.F ....|F-4 UFDF ....|A-4 6FEA ....
 F-4|..|F-2 2A.F ....|--- .... ....|--- .... ....
....|..|R-- .... ....|A-4 UFDF ....|--- .... ....
....|..|--- .... ....|--- .... ....|--- .... ....
 F-3|..|F-1 2A.F ....|C-5 UFDF ....|A#4 6FEA ....
 F-3|..|F-1 2A.F ....|--- .... ....|--- .... ....
....|..|R-- .... ....|F-5 UFDF ....|--- .... ....
....|..|--- .... ....|G-3 2F8A ....|G-3 2F8A ....
 F-4|..|F-2 2A.F ....|A-5 UFDF ....|C-5 6FEA ....
 F-4|..|F-2 2A.F ....|--- .... ....|--- .... ....
....|..|R-- .... ....|C-6 UFDF ....|--- .... ....
....|..|--- .... ....|--- .... ....|--- .... ....
 F-3|..|F-1 2A.F ....|F-6 UFDF ....|A-4 6FE7 ....
 F-3|..|F-1 2A.F ....|--- .... ....|--- .... ....
....|..|R-- .... ....|C-6 UFDF ....|--- .... ....
....|..|--- .... ....|--- .... ....|--- .... ....
 F-4|..|F-2 2A.F ....|A-5 UFDF ....|A#4 6FE7 ....
 F-4|..|F-2 2A.F ....|--- .... ....|--- .... ....
....|..|R-- .... ....|F-5 UFDF ....|--- .... ....
....|..|--- .... ....|G-3 2F87 ....|G-3 2F87 ....
 F-3|..|F-1 2A.F ....|C-5 UFDF ....|D-5 6FEF ....
 F-3|..|F-1 2A.F ....|--- .... ....|--- .... ....
....|..|R-- .... ....|A-4 UFDF ....|--- .... ....
....|..|--- .... ....|--- .... ....|--- .... ....
 F-4|..|F-2 2A.F ....|F-4 UFDF ....|--- .... ....
 F-4|..|F-2 2A.F ....|--- .... ....|--- .... ....
....|..|R-- .... ....|C-4 UFDF ....|--- .... ....
....|..|--- .... ....|F-3 2F6F ....|F-3 2F6F ....
 D-3|..|D-1 2A.F ....|F-3 UFDF ....|G-4 6FEF ....
 D-3|..|D-1 2A.F ....|--- .... ....|--- .... ....
....|..|R-- .... ....|A-3 UFDF ....|--- .... ....
....|..|--- .... ....|--- .... ....|--- .... ....
 D-4|..|D-2 2A.F ....|D-4 UFDF ....|D-5 6FEA ....
 D-4|..|D-2 2A.F ....|--- .... ....|--- .... ....
....|..|R-- .... ....|F-4 UFDF ....|--- .... ....
....|..|--- .... ....|--- .... ....|--- .... ....
 D-3|..|D-1 2A.F ....|A-4 UFDF ....|F-4 6FEF ....
 D-3|..|D-1 2A.F ....|--- .... ....|--- .... ....
....|..|R-- .... ....|D-5 UFDF ....|--- .... ....
....|..|--- .... ....|F-3 2F6A ....|F-3 2F6A ....
 D-4|..|D-2 2A.F ....|F-5 UFDF ....|G-4 6FEA ....
 D-4|..|D-2 2A.F ....|--- .... ....|--- .... ....
....|..|R-- .... ....|A-5 UFDF ....|--- .... ....
....|..|--- .... ....|--- .... ....|--- .... ....
 D-3|..|D-1 2A.F ....|D-6 UFDF ....|D-5 6FE7 ....
 D-3|..|D-1 2A.F ....|--- .... ....|--- .... ....
....|..|R-- .... ....|A-5 UFDF ....|--- .... ....
....|..|--- .... ....|--- .... ....|R-- .... ....
 D-4|..|D-2 2A.F ....|F-5 UFDF ....|F-4 6FEA ....
 D-4|..|D-2 2A.F ....|--- .... ....|--- .... ....
....|..|R-- .... ....|D-5 UFDF ....|--- .... ....
....|..|--- .... ....|F-3 2F67 ....|F-3 2F67 ....
 D-3|..|D-1 2A.F ....|A-4 UFDF ....|A-4 6FEF ....
 D-3|..|D-1 2A.F ....|--- .... ....|--- .... ....
....|..|R-- .... ....|F-4 UFDF ....|--- .... ....
....|..|--- .... ....|--- .... ....|--- .... ....
 D-4|..|D-2 2A.F ....|D-4 UFDF ....|--- .... ....
 D-4|..|D-2 2A.F ....|--- .... ....|--- .... ....
....|..|R-- .... ....|A-3 UFDF ....|--- .... ....
....|..|--- .... ....|--- .... ....|R-- .... ....

[Pattern20]
 A#2|..|A#1 2A.F ....|D-4 UFDF ....|A#4 6FEF ....
 A#2|..|A#1 2A.F ....|--- .... ....|--- .... ....
....|..|R-- .... ....|F-4 UFDF ....|--- .... ....
....|..|--- .... ....|--- .... ....|--- .... ....
 A#3|..|A#1 2A.F ....|A#4 UFDF ....|A-4 6FEA ....
 A#3|..|A#1 2A.F ....|--- .... ....|--- .... ....
....|..|R-- .... ....|D-5 UFDF ....|--- .... ....
....|..|--- .... ....|--- .... ....|R-- .... ....
 A#2|..|A#1 2A.F ....|F-5 UFDF ....|A-4 6FEF ....
 A#2|..|A#1 2A.F ....|--- .... ....|--- .... ....
....|..|R-- .... ....|A#5 UFDF ....|--- .... ....
....|..|--- .... ....|--- .... ....|R-- .... ....
 A#3|..|A#1 2A.F ....|D-6 UFDF ....|A#4 6FEA ....
 A#3|..|A#1 2A.F ....|--- .... ....|--- .... ....
....|..|R-- .... ....|F-6 UFDF ....|--- .... ....
....|..|--- .... ....|--- .... ....|--- .... ....
 A#2|..|A#1 2A.F ....|A#6 UFDF ....|G-4 6FEF ....
 A#2|..|A#1 2A.F ....|--- .... ....|--- .... ....
....|..|R-- .... ....|F-6 UFDF ....|--- .... ....
....|..|--- .... ....|--- .... ....|R-- .... ....
 A#3|..|A#1 2A.F ....|D-6 UFDF ....|A-4 6FEA ....
 A#3|..|A#1 2A.F ....|--- .... ....|--- .... ....
....|..|R-- .... ....|A#5 UFDF ....|--- .... ....
....|..|--- .... ....|--- .... ....|R-- .... ....
 A#2|..|A#1 2A.F ....|F-5 UFDF ....|F-4 6FEF ....
 A#2|..|A#1 2A.F ....|--- .... ....|--- .... ....
....|..|R-- .... ....|D-5 UFDF ....|--- .... ....
....|..|--- .... ....|--- .... ....|--- .... ....
 A#3|..|A#1 2A.F ....|A#4 UFDF ....|G-4 6FEA ....
 A#3|..|A#1 2A.F ....|--- .... ....|--- .... ....
....|..|R-- .... ....|F-4 UFDF ....|--- .... ....
....|..|--- .... ....|F-3 2F7F ....|F-3 2F7F ....
 C-3|..|C-1 2A.F ....|E-4 UFDF ....|G-4 6FEF ....
 C-3|..|C-1 2A.F ....|--- .... ....|--- .... ....
....|..|R-- .... ....|G-4 UFDF ....|--- .... ....
....|..|--- .... ....|--- .... ....|R-- .... ....
 C-4|..|C-2 2A.F ....|C-5 UFDF ....|F-4 6FEA ....
 C-4|..|C-2 2A.F ....|--- .... ....|--- .... ....
....|..|R-- .... ....|E-5 UFDF ....|--- .... ....
....|..|--- .... ....|--- .... ....|--- .... ....
 C-3|..|C-1 2A.F ....|G-5 UFDF ....|G-4 6FE7 ....
 C-3|..|C-1 2A.F ....|--- .... ....|--- .... ....
....|..|R-- .... ....|C-6 UFDF ....|--- .... ....
....|..|--- .... ....|F-3 2F7A ....|F-3 2F7A ....
 C-4|..|C-2 2A.F ....|E-6 UFDF ....|G-4 6FEA ....
 C-4|..|C-2 2A.F ....|--- .... ....|--- .... ....
....|..|R-- .... ....|G-6 UFDF ....|--- .... ....
....|..|--- .... ....|--- .... ....|R-- .... ....
 C-3|..|C-1 2A.F ....|C-7 UFDF ....|F-4 6FE7 ....
 C-3|..|C-1 2A.F ....|--- .... ....|--- .... ....
....|..|R-- .... ....|G-6 UFDF ....|--- .... ....
....|..|--- .... ....|--- .... ....|--- .... ....
 C-4|..|C-2 2A.F ....|E-6 UFDF ....|R-- .... ....
 C-4|..|C-2 2A.F ....|--- .... ....|--- .... ....
....|..|R-- .... ....|C-6 UFDF ....|--- .... ....
....|..|--- .... ....|F-3 2F77 ....|F-3 2F77 ....
 C-3|..|C-1 2A.F ....|G-5 UFDF ....|C-5 6FEF ....
 C-3|..|C-1 2A.F ....|--- .... ....|--- .... ....
....|..|R-- .... ....|E-5 UFDF ....|--- .... ....
....|..|--- .... ....|--- .... ....|--- .... ....
 C-4|..|C-2 2A.F ....|C-5 UFDF ....|--- .... ....
 C-4|..|C-2 2A.F ....|--- .... ....|--- .... ....
....|..|R-- .... ....|G-4 UFDF ....|--- .... ....
....|..|--- .... ....|G-3 2F8F ....|G-3 2F8F ....

[Pattern21]
 F-3|..|F-1 2A.F ....|F-3 2F1F ....|F-5 6FEF ....
 F-3|..|F-1 2A.F ....|--- .... ....|--- .... ....
....|..|R-- .... ....|C-6 UFD7 ....|--- .... ....
....|..|--- .... ....|--- .... ....|--- .... ....
 F-4|..|F-2 2A.F ....|F-4 2F9F ....|F-4 2F9F ....
 F-4|..|F-2 2A.F ....|--- .... ....|--- .... ....
....|..|R-- .... ....|G-6 UFD7 ....|R-- .... ....
....|..|--- .... ....|--- .... ....|--- .... ....
 F-3|..|F-1 2A.F ....|F-4 2F9F ....|F-4 2F9F ....
 F-3|..|F-1 2A.F ....|--- .... ....|--- .... ....
....|..|R-- .... ....|G-6 UFD7 ....|R-- .... ....
....|..|--- .... ....|G-3 2F8A ....|G-3 2F8A ....
 F-4|..|F-2 2A.F ....|E-6 UFD7 ....|F-5 6FEA ....
 F-4|..|F-2 2A.F ....|--- .... ....|--- .... ....
....|..|R-- .... ....|F-4 2F9F ....|F-4 2F9F ....
....|..|--- .... ....|--- .... ....|--- .... ....
 F-3|..|F-1 2A.F ....|G-5 UFD7 ....|C-5 6FE7 ....
 F-3|..|F-1 2A.F ....|R-- .... ....|R-- .... ....
....|..|R-- .... ....|E-5 UFD7 ....|R-- .... ....
....|..|--- .... ....|--- .... ....|--- .... ....
 F-4|..|F-2 2A.F ....|F-4 2F9F ....|F-4 2F9F ....
 F-4|..|F-2 2A.F ....|--- .... ....|--- .... ....
....|..|R-- .... ....|G-4 UFD7 ....|R-- .... ....
....|..|--- .... ....|G-3 2F87 ....|G-3 2F87 ....
 F-3|..|F-1 2A.F ....|F-3 2F17 ....|F-5 6FE7 ....
 F-3|..|F-1 2A.F ....|--- .... ....|--- .... ....
....|..|R-- .... ....|F-4 2F9A ....|F-4 2F9A ....
....|..|--- .... ....|--- .... ....|--- .... ....
 F-4|..|F-2 2A.F ....|F-4 2F97 ....|F-4 2F97 ....
 F-4|..|F-2 2A.F ....|R-- .... ....|R-- .... ....
 C-3|..|C-3 2C.F ....|R-- .... ....|R-- .... ....
 C-3|..|C-3 2C.F ....|--- .... ....|--- .... ....
 F-3|..|F-1 2A.F ....|F-4 2F97 ....|F-4 2F97 ....
 F-3|..|F-1 2A.F ....|--- .... ....|--- .... ....
....|..|R-- .... ....|R-- .... ....|R-- .... ....
....|..|--- .... ....|--- .... ....|--- .... ....
 F-4|..|F-2 2A.F ....|--- .... ....|--- .... ....
 F-4|..|F-2 2A.F ....|--- .... ....|--- .... ....
....|..|R-- .... ....|F-4 2F97 ....|F-4 2F97 ....
....|..|--- .... ....|--- .... ....|--- .... ....
 F-3|..|F-1 2A.F ....|--- .... ....|--- .... ....
 F-3|..|F-1 2A.F ....|R-- .... ....|R-- .... ....
....|..|C-3 2F.A ....|--- .... ....|--- .... ....
....|..|C-3 2F.A ....|--- .... ....|--- .... ....
 F-4|..|F-2 2A.F ....|F-4 2F97 ....|F-4 2F97 ....
 F-4|..|F-2 2A.F ....|--- .... ....|--- .... ....
....|..|R-- .... ....|R-- .... ....|R-- .... ....
....|..|--- .... ....|--- .... ....|--- .... ....
 F-3|..|F-1 2A.F ....|--- .... ....|--- .... ....
 F-3|..|F-1 2A.F ....|--- .... ....|--- .... ....
....|..|R-- .... ....|--- .... ....|--- .... ....
....|..|--- .... ....|--- .... ....|--- .... ....
 F-4|..|F-2 2A.F ....|--- .... ....|--- .... ....
 F-4|..|F-2 2A.F ....|--- .... ....|--- .... ....
....|..|C-3 2F.7 ....|--- .... ....|--- .... ....
....|..|C-3 2F.7 ....|--- .... ....|--- .... ....
 F-3|..|F-1 2A.F ....|--- .... ....|--- .... ....
 F-3|..|F-1 2A.F ....|--- .... ....|--- .... ....
....|..|R-- .... ....|--- .... ....|--- .... ....
....|..|--- .... ....|--- .... ....|--- .... ....
 F-4|..|F-2 2A.F ....|--- .... ....|--- .... ....
 F-4|..|F-2 2A.F ....|--- .... ....|--- .... ....
 C-3|..|C-3 2C.F ....|--- .... ....|--- .... ....
 C-3|..|C-3 2C.F ....|--- .... ....|--- .... ....

[Pattern22]
 D-3|..|D-1 2A.F ....|F-3 2F2F ....|F-3 2F2F ....
 D-3|..|D-1 2A.F ....|--- .... ....|--- .... ....
....|..|R-- .... ....|--- .... ....|--- .... ....
....|..|--- .... ....|--- .... ....|--- .... ....
 D-4|..|D-2 2A.F ....|F-4 2F9F ....|F-4 2F9F ....
 D-4|..|D-2 2A.F ....|--- .... ....|--- .... ....
....|..|R-- .... ....|R-- .... ....|R-- .... ....
....|..|--- .... ....|--- .... ....|--- .... ....
 D-3|..|D-1 2A.F ....|F-4 2F9F ....|F-4 2F9F ....
 D-3|..|D-1 2A.F ....|--- .... ....|--- .... ....
....|..|C-3 2F.A ....|R-- .... ....|R-- .... ....
....|..|C-3 2F.A ....|--- .... ....|--- .... ....
 D-4|..|D-2 2A.F ....|F-3 2F2A ....|F-3 2F2A ....
 D-4|..|D-2 2A.F ....|--- .... ....|--- .... ....
....|..|R-- .... ....|F-4 2F9F ....|F-4 2F9F ....
....|..|--- .... ....|--- .... ....|--- .... ....
 D-3|..|D-1 2A.F ....|F-4 2F9A ....|F-4 2F9A ....
 D-3|..|D-1 2A.F ....|R-- .... ....|R-- .... ....
....|..|R-- .... ....|R-- .... ....|R-- .... ....
....|..|--- .... ....|--- .... ....|--- .... ....
 D-4|..|D-2 2A.F ....|F-4 2F9F ....|F-4 2F9F ....
 D-4|..|D-2 2A.F ....|--- .... ....|--- .... ....
....|..|C-3 2F.7 ....|R-- .... ....|R-- .... ....
....|..|C-3 2F.7 ....|--- .... ....|--- .... ....
 D-3|..|D-1 2A.F ....|F-3 2F27 ....|F-3 2F27 ....
 D-3|..|D-1 2A.F ....|--- .... ....|--- .... ....
....|..|R-- .... ....|F-4 2F9A ....|F-4 2F9A ....
....|..|--- .... ....|--- .... ....|--- .... ....
 D-4|..|D-2 2A.F ....|F-4 2F97 ....|F-4 2F97 ....
 D-4|..|D-2 2A.F ....|R-- .... ....|R-- .... ....
 A-3|..|A-2 2C.F ....|R-- .... ....|R-- .... ....
 A-3|..|A-2 2C.F ....|--- .... ....|--- .... ....
 D-3|..|D-1 2A.F ....|F-4 2F97 ....|F-4 2F97 ....
 D-3|..|D-1 2A.F ....|--- .... ....|--- .... ....
....|..|R-- .... ....|R-- .... ....|R-- .... ....
....|..|--- .... ....|--- .... ....|--- .... ....
 D-4|..|D-2 2A.F ....|--- .... ....|--- .... ....
 D-4|..|D-2 2A.F ....|--- .... ....|--- .... ....
....|..|R-- .... ....|F-4 2F97 ....|F-4 2F97 ....
....|..|--- .... ....|--- .... ....|--- .... ....
 D-3|..|D-1 2A.F ....|--- .... ....|--- .... ....
 D-3|..|D-1 2A.F ....|R-- .... ....|R-- .... ....
....|..|A-2 2F.A ....|--- .... ....|--- .... ....
....|..|A-2 2F.A ....|--- .... ....|--- .... ....
 D-4|..|D-2 2A.F ....|F-4 2F97 ....|F-4 2F97 ....
 D-4|..|D-2 2A.F ....|--- .... ....|--- .... ....
....|..|R-- .... ....|R-- .... ....|R-- .... ....
....|..|--- .... ....|--- .... ....|--- .... ....
 D-3|..|D-1 2A.F ....|--- .... ....|--- .... ....
 D-3|..|D-1 2A.F ....|--- .... ....|--- .... ....
....|..|R-- .... ....|--- .... ....|--- .... ....
....|..|--- .... ....|--- .... ....|--- .... ....
 D-4|..|D-2 2A.F ....|--- .... ....|--- .... ....
 D-4|..|D-2 2A.F ....|--- .... ....|--- .... ....
....|..|A-2 2F.7 ....|--- .... ....|--- .... ....
....|..|A-2 2F.7 ....|--- .... ....|R-- .... ....
 D-3|..|D-1 2A.F ....|--- .... ....|D-5 6FEF ....
 D-3|..|D-1 2A.F ....|--- .... ....|--- .... ....
....|..|R-- .... ....|--- .... ....|--- .... ....
....|..|--- .... ....|--- .... ....|--- .... ....
 D-4|..|D-2 2A.F ....|--- .... ....|--- .... ....
 D-4|..|D-2 2A.F ....|--- .... ....|--- .... ....
 A-3|..|A-2 2C.F ....|--- .... ....|--- .... ....
 A-3|..|A-2 2C.F ....|--- .... ....|R-- .... ....

[Pattern23]
 A#2|..|A#1 2A.F ....|F-3 2F3F ....|C-5 6FEF ....
 A#2|..|A#1 2A.F ....|--- .... ....|--- .... ....
....|..|R-- .... ....|--- .... ....|--- .... ....
....|..|--- .... ....|--- .... ....|R-- .... ....
 A#3|..|A#1 2A.F ....|F-4 2F9F ....|F-4 2F9F ....
 A#3|..|A#1 2A.F ....|--- .... ....|--- .... ....
....|..|R-- .... ....|R-- .... ....|R-- .... ....
....|..|--- .... ....|--- .... ....|--- .... ....
 A#2|..|A#1 2A.F ....|F-4 2F9F ....|F-4 2F9F ....
 A#2|..|A#1 2A.F ....|--- .... ....|--- .... ....
....|..|A-2 2F.A ....|R-- .... ....|R-- .... ....
....|..|A-2 2F.A ....|--- .... ....|R-- .... ....
 A#3|..|A#1 2A.F ....|F-3 2F3A ....|C-5 6FEA ....
 A#3|..|A#1 2A.F ....|--- .... ....|--- .... ....
....|..|R-- .... ....|F-4 2F9F ....|F-4 2F9F ....
....|..|--- .... ....|--- .... ....|R-- .... ....
 A#2|..|A#1 2A.F ....|F-4 2F9A ....|D-5 6FE7 ....
 A#2|..|A#1 2A.F ....|R-- .... ....|R-- .... ....
....|..|R-- .... ....|R-- .... ....|R-- .... ....
....|..|--- .... ....|--- .... ....|--- .... ....
 A#3|..|A#1 2A.F ....|F-4 2F9F ....|F-4 2F9F ....
 A#3|..|A#1 2A.F ....|--- .... ....|--- .... ....
....|..|A-2 2F.7 ....|R-- .... ....|R-- .... ....
....|..|A-2 2F.7 ....|--- .... ....|R-- .... ....
 A#2|..|A#1 2A.F ....|F-3 2F37 ....|C-5 6FE7 ....
 A#2|..|A#1 2A.F ....|--- .... ....|--- .... ....
....|..|R-- .... ....|F-4 2F9A ....|F-4 2F9A ....
....|..|--- .... ....|--- .... ....|--- .... ....
 A#3|..|A#1 2A.F ....|F-4 2F97 ....|F-4 2F97 ....
 A#3|..|A#1 2A.F ....|R-- .... ....|R-- .... ....
 F-4|..|F-2 2A.F ....|R-- .... ....|R-- .... ....
 F-4|..|F-2 2A.F ....|--- .... ....|--- .... ....
 A#2|..|A#1 2A.F ....|F-4 2F97 ....|F-4 2F97 ....
 A#2|..|A#1 2A.F ....|--- .... ....|--- .... ....
....|..|R-- .... ....|R-- .... ....|R-- .... ....
....|..|--- .... ....|--- .... ....|--- .... ....
 A#3|..|A#1 2A.F ....|--- .... ....|--- .... ....
 A#3|..|A#1 2A.F ....|--- .... ....|--- .... ....
....|..|R-- .... ....|F-4 2F97 ....|F-4 2F97 ....
....|..|--- .... ....|--- .... ....|--- .... ....
 A#2|..|A#1 2A.F ....|--- .... ....|--- .... ....
 A#2|..|A#1 2A.F ....|R-- .... ....|R-- .... ....
....|..|F-2 2F.A ....|--- .... ....|--- .... ....
....|..|F-2 2F.A ....|--- .... ....|--- .... ....
 A#3|..|A#1 2A.F ....|F-4 2F97 ....|F-4 2F97 ....
 A#3|..|A#1 2A.F ....|--- .... ....|--- .... ....
....|..|R-- .... ....|R-- .... ....|R-- .... ....
....|..|--- .... ....|--- .... ....|--- .... ....
 A#2|..|A#1 2A.F ....|--- .... ....|--- .... ....
 A#2|..|A#1 2A.F ....|--- .... ....|--- .... ....
....|..|R-- .... ....|--- .... ....|--- .... ....
....|..|--- .... ....|--- .... ....|--- .... ....
 A#3|..|A#1 2A.F ....|--- .... ....|--- .... ....
 A#3|..|A#1 2A.F ....|--- .... ....|--- .... ....
....|..|F-2 2F.7 ....|--- .... ....|--- .... ....
....|..|F-2 2F.7 ....|--- .... ....|R-- .... ....
 A#2|..|A#1 2A.F ....|--- .... ....|C-5 6FEF ....
 A#2|..|A#1 2A.F ....|--- .... ....|--- .... ....
....|..|R-- .... ....|--- .... ....|--- .... ....
....|..|--- .... ....|--- .... ....|--- .... ....
 A#3|..|A#1 2A.F ....|--- .... ....|--- .... ....
 A#3|..|A#1 2A.F ....|--- .... ....|--- .... ....
 F-4|..|F-2 2A.F ....|--- .... ....|--- .... ....
 F-4|..|F-2 2A.F ....|--- .... ....|--- .... ....

[Pattern24]
 C-3|..|C-1 2A.F ....|G-3 2F4F ....|F-5 6FEF ....
 C-3|..|C-1 2A.F ....|--- .... ....|--- .... ....
....|..|R-- .... ....|--- .... ....|--- .... ....
....|..|--- .... ....|--- .... ....|R-- .... ....
 C-4|..|C-2 2A.F ....|F-4 2F9F ....|F-4 2F9F ....
 C-4|..|C-2 2A.F ....|--- .... ....|--- .... ....
....|..|R-- .... ....|R-- .... ....|R-- .... ....
....|..|--- .... ....|--- .... ....|--- .... ....
 C-3|..|C-1 2A.F ....|F-4 2F9F ....|F-4 2F9F ....
 C-3|..|C-1 2A.F ....|--- .... ....|--- .... ....
....|..|F-2 2F.A ....|R-- .... ....|R-- .... ....
....|..|F-2 2F.A ....|--- .... ....|--- .... ....
 C-4|..|C-2 2A.F ....|G-3 2F4A ....|F-5 6FEA ....
 C-4|..|C-2 2A.F ....|--- .... ....|--- .... ....
....|..|R-- .... ....|F-4 2F9F ....|F-4 2F9F ....
....|..|--- .... ....|--- .... ....|R-- .... ....
 C-3|..|C-1 2A.F ....|F-4 2F9A ....|C-5 6FE7 ....
 C-3|..|C-1 2A.F ....|R-- .... ....|R-- .... ....
....|..|R-- .... ....|R-- .... ....|R-- .... ....
....|..|--- .... ....|--- .... ....|--- .... ....
 C-4|..|C-2 2A.F ....|F-4 2F9F ....|F-4 2F9F ....
 C-4|..|C-2 2A.F ....|--- .... ....|--- .... ....
....|..|F-2 2F.7 ....|R-- .... ....|R-- .... ....
....|..|F-2 2F.7 ....|--- .... ....|--- .... ....
 C-3|..|C-1 2A.F ....|G-3 2F47 ....|F-5 6FE7 ....
 C-3|..|C-1 2A.F ....|--- .... ....|--- .... ....
....|..|R-- .... ....|F-4 2F9A ....|F-4 2F9A ....
....|..|--- .... ....|--- .... ....|--- .... ....
 C-4|..|C-2 2A.F ....|F-4 2F97 ....|F-4 2F97 ....
 C-4|..|C-2 2A.F ....|R-- .... ....|R-- .... ....
....|..|R-- .... ....|R-- .... ....|R-- .... ....
....|..|--- .... ....|G-3 2F5F ....|G-3 2F5F ....
 C-3|..|C-1 2A.F ....|G-3 2F3F ....|G-3 2F3F ....
 C-3|..|C-1 2A.F ....|--- .... ....|--- .... ....
....|..|R-- .... ....|R-- .... ....|R-- .... ....
....|..|--- .... ....|--- .... ....|--- .... ....
 C-4|..|C-2 2A.F ....|A#3 2F9F ....|A#3 2F9F ....
 C-4|..|C-2 2A.F ....|--- .... ....|--- .... ....
....|..|R-- .... ....|F-4 2F97 ....|F-4 2F97 ....
....|..|--- .... ....|--- .... ....|--- .... ....
 C-3|..|C-1 2A.F ....|A#3 2F9F ....|A#3 2F9F ....
 C-3|..|C-1 2A.F ....|R-- .... ....|R-- .... ....
....|..|R-- .... ....|R-- .... ....|R-- .... ....
....|..|--- .... ....|G-3 2F5A ....|G-3 2F5A ....
 C-4|..|C-2 2A.F ....|F-4 2F97 ....|F-4 2F97 ....
 C-4|..|C-2 2A.F ....|--- .... ....|--- .... ....
....|..|R-- .... ....|A#3 2F9F ....|A#3 2F9F ....
....|..|--- .... ....|--- .... ....|--- .... ....
 C-3|..|C-1 2A.F ....|A#3 2F9A ....|A#3 2F9A ....
 C-3|..|C-1 2A.F ....|R-- .... ....|R-- .... ....
....|..|R-- .... ....|R-- .... ....|R-- .... ....
....|..|--- .... ....|--- .... ....|--- .... ....
 C-4|..|C-2 2A.F ....|C-4 2F9F ....|C-4 2F9F ....
 C-4|..|C-2 2A.F ....|--- .... ....|--- .... ....
....|..|R-- .... ....|R-- .... ....|R-- .... ....
....|..|--- .... ....|G-3 2F57 ....|G-3 2F57 ....
 C-3|..|C-1 2A.F ....|G-3 2F37 ....|C-5 6FEF ....
 C-3|..|C-1 2A.F ....|--- .... ....|--- .... ....
....|..|R-- .... ....|A#3 2F9A ....|A#3 2F9A ....
....|..|--- .... ....|--- .... ....|--- .... ....
 C-4|..|C-2 2A.F ....|C-3 3FFF ....|A#3 2F97 ....
 C-4|..|C-2 2A.F ....|R-- .... ....|R-- .... ....
 C-3|..|C-3 2C.F ....|R-- .... ....|R-- .... ....
....|..|--- .... ....|--- .... ....|--- .... ....

[Pattern25]
 F-3|..|F-1 2A.F ....|D-3 3FFF ....|F-5 6FEF ....
 F-3|..|F-1 2A.F ....|--- .... ....|--- .... ....
 D-4|..|D-3 2C.F ....|R-- .... ....|R-- .... ....
....|..|--- .... ....|--- .... ....|R-- .... ....
 F-4|..|F-2 2A.F ....|F-4 2F9F ....|F-4 2F9F ....
 F-4|..|F-2 2A.F ....|R-- .... ....|--- .... ....
....|..|R-- .... ....|A#3 2F97 ....|A#3 2F97 ....
....|..|--- .... ....|--- .... ....|--- .... ....
 F-3|..|F-1 2A.F ....|F-4 2F9F ....|F-4 2F9F ....
 F-3|..|F-1 2A.F ....|R-- .... ....|R-- .... ....
....|..|C-3 2F.A ....|R-- .... ....|R-- .... ....
....|..|--- .... ....|--- .... ....|--- .... ....
 F-4|..|F-2 2A.F ....|C-3 3FFF ....|C-4 2F97 ....
 F-4|..|F-2 2A.F ....|--- .... ....|--- .... ....
 C-3|..|C-3 2C.F ....|F-4 2F9F ....|F-4 2F9F ....
....|..|R-- .... ....|R-- .... ....|R-- .... ....
 F-3|..|F-1 2A.F ....|F-3 3FFF ....|C-5 6FE7 ....
 F-3|..|F-1 2A.F ....|R-- .... ....|R-- .... ....
 F-4|..|F-3 2C.F ....|R-- .... ....|R-- .... ....
....|..|--- .... ....|--- .... ....|--- .... ....
 F-4|..|F-2 2A.F ....|F-3 3FFF ....|F-4 2F9F ....
 F-4|..|F-2 2A.F ....|--- .... ....|--- .... ....
 F-4|..|F-3 2C.F ....|R-- .... ....|R-- .... ....
....|..|--- .... ....|--- .... ....|--- .... ....
 F-3|..|F-1 2A.F ....|C-3 3FFF ....|F-5 6FE7 ....
 F-3|..|F-1 2A.F ....|--- .... ....|--- .... ....
 C-3|..|C-3 2C.F ....|F-4 2F9A ....|F-4 2F9A ....
....|..|R-- .... ....|R-- .... ....|--- .... ....
 F-4|..|F-2 2A.F ....|C-3 3FFF ....|F-4 2F97 ....
 F-4|..|F-2 2A.F ....|R-- .... ....|R-- .... ....
 C-3|..|C-3 2C.F ....|R-- .... ....|R-- .... ....
 C-3|..|C-3 2C.F ....|R-- .... ....|--- .... ....
 F-3|..|F-1 2A.F ....|D-3 3FFF ....|F-4 2F97 ....
 F-3|..|F-1 2A.F ....|--- .... ....|--- .... ....
 D-4|..|D-3 2C.F ....|R-- .... ....|R-- .... ....
....|..|--- .... ....|--- .... ....|--- .... ....
 F-4|..|F-2 2A.F ....|C-3 3FFF ....|--- .... ....
 F-4|..|F-2 2A.F ....|--- .... ....|--- .... ....
 C-3|..|C-3 2C.F ....|F-4 2F97 ....|F-4 2F97 ....
....|..|R-- .... ....|R-- .... ....|--- .... ....
 F-3|..|F-1 2A.F ....|D-3 3FFF ....|--- .... ....
 F-3|..|F-1 2A.F ....|R-- .... ....|R-- .... ....
 D-4|..|D-3 2C.F ....|--- .... ....|--- .... ....
....|..|C-3 2F.A ....|R-- .... ....|--- .... ....
 F-4|..|F-2 2A.F ....|C-3 3FFF ....|F-4 2F97 ....
 F-4|..|F-2 2A.F ....|--- .... ....|--- .... ....
 C-3|..|C-3 2C.F ....|R-- .... ....|R-- .... ....
....|..|--- .... ....|--- .... ....|--- .... ....
 F-3|..|F-1 2A.F ....|F-3 3FFF ....|--- .... ....
 F-3|..|F-1 2A.F ....|--- .... ....|--- .... ....
 F-4|..|F-3 2C.F ....|--- .... ....|--- .... ....
....|..|R-- .... ....|R-- .... ....|--- .... ....
 F-4|..|F-2 2A.F ....|F-3 3FFF ....|--- .... ....
 F-4|..|F-2 2A.F ....|--- .... ....|--- .... ....
 F-4|..|F-3 2C.F ....|--- .... ....|--- .... ....
....|..|C-3 2F.7 ....|R-- .... ....|--- .... ....
 F-3|..|F-1 2A.F ....|C-3 3FFF ....|--- .... ....
 F-3|..|F-1 2A.F ....|--- .... ....|--- .... ....
 C-3|..|C-3 2C.F ....|--- .... ....|--- .... ....
....|..|R-- .... ....|R-- .... ....|--- .... ....
 F-4|..|F-2 2A.F ....|C-3 3FFF ....|--- .... ....
 F-4|..|F-2 2A.F ....|--- .... ....|--- .... ....
 C-3|..|C-3 2C.F ....|--- .... ....|--- .... ....
 C-3|..|C-3 2C.F ....|R-- .... ....|--- .... ....

[Pattern26]
 D-3|..|D-1 2A.F ....|D-3 3FFF ....|F-3 2F2F ....
 D-3|..|D-1 2A.F ....|--- .... ....|--- .... ....
 D-4|..|D-3 2C.F ....|--- .... ....|--- .... ....
....|..|--- .... ....|--- .... ....|--- .... ....
 D-4|..|D-2 2A.F ....|F-4 2F9F ....|F-4 2F9F ....
 D-4|..|D-2 2A.F ....|R-- .... ....|--- .... ....
....|..|C-3 2F.7 ....|R-- .... ....|R-- .... ....
....|..|R-- .... ....|R-- .... ....|--- .... ....
 D-3|..|D-1 2A.F ....|F-4 2F9F ....|F-4 2F9F ....
 D-3|..|D-1 2A.F ....|--- .... ....|--- .... ....
....|..|F-3 2F.7 ....|R-- .... ....|R-- .... ....
....|..|C-3 2F.A ....|R-- .... ....|--- .... ....
 D-4|..|D-2 2A.F ....|C-3 3FFF ....|F-3 2F2A ....
 D-4|..|D-2 2A.F ....|--- .... ....|--- .... ....
 C-3|..|C-3 2C.F ....|F-4 2F9F ....|F-4 2F9F ....
....|..|--- .... ....|--- .... ....|--- .... ....
 D-3|..|D-1 2A.F ....|F-3 3FFF ....|F-4 2F9A ....
 D-3|..|D-1 2A.F ....|R-- .... ....|R-- .... ....
 F-4|..|F-3 2C.F ....|R-- .... ....|R-- .... ....
....|..|R-- .... ....|R-- .... ....|--- .... ....
 D-4|..|D-2 2A.F ....|F-3 3FFF ....|F-4 2F9F ....
 D-4|..|D-2 2A.F ....|--- .... ....|--- .... ....
 F-4|..|F-3 2C.F ....|R-- .... ....|R-- .... ....
....|..|C-3 2F.7 ....|R-- .... ....|--- .... ....
 D-3|..|D-1 2A.F ....|C-3 3FFF ....|F-3 2F27 ....
 D-3|..|D-1 2A.F ....|--- .... ....|--- .... ....
 C-3|..|C-3 2C.F ....|F-4 2F9A ....|F-4 2F9A ....
....|..|--- .... ....|--- .... ....|--- .... ....
 D-4|..|D-2 2A.F ....|C-3 3FFF ....|F-4 2F97 ....
 D-4|..|D-2 2A.F ....|R-- .... ....|R-- .... ....
 A-3|..|A-2 2C.F ....|R-- .... ....|R-- .... ....
 A-3|..|A-2 2C.F ....|R-- .... ....|--- .... ....
 D-3|..|D-1 2A.F ....|D-3 3FFF ....|F-4 2F97 ....
 D-3|..|D-1 2A.F ....|--- .... ....|--- .... ....
 D-4|..|D-3 2C.F ....|R-- .... ....|R-- .... ....
....|..|R-- .... ....|R-- .... ....|--- .... ....
 D-4|..|D-2 2A.F ....|C-3 3FFF ....|--- .... ....
 D-4|..|D-2 2A.F ....|--- .... ....|--- .... ....
 C-3|..|C-3 2C.F ....|F-4 2F97 ....|F-4 2F97 ....
....|..|R-- .... ....|R-- .... ....|--- .... ....
 D-3|..|D-1 2A.F ....|D-3 3FFF ....|--- .... ....
 D-3|..|D-1 2A.F ....|R-- .... ....|R-- .... ....
 D-4|..|D-3 2C.F ....|--- .... ....|--- .... ....
....|..|A-2 2F.A ....|R-- .... ....|--- .... ....
 D-4|..|D-2 2A.F ....|C-3 3FFF ....|F-4 2F97 ....
 D-4|..|D-2 2A.F ....|--- .... ....|--- .... ....
 C-3|..|C-3 2C.F ....|R-- .... ....|R-- .... ....
....|..|R-- .... ....|R-- .... ....|--- .... ....
 D-3|..|D-1 2A.F ....|F-3 3FFF ....|--- .... ....
 D-3|..|D-1 2A.F ....|--- .... ....|--- .... ....
 F-4|..|F-3 2C.F ....|--- .... ....|--- .... ....
....|..|R-- .... ....|R-- .... ....|--- .... ....
 D-4|..|D-2 2A.F ....|F-3 3FFF ....|--- .... ....
 D-4|..|D-2 2A.F ....|--- .... ....|--- .... ....
 F-4|..|F-3 2C.F ....|--- .... ....|--- .... ....
....|..|A-2 2F.7 ....|--- .... ....|R-- .... ....
 D-3|..|D-1 2A.F ....|C-3 3FFF ....|D-5 6FEF ....
 D-3|..|D-1 2A.F ....|--- .... ....|--- .... ....
 C-3|..|C-3 2C.F ....|--- .... ....|--- .... ....
....|..|--- .... ....|--- .... ....|--- .... ....
 D-4|..|D-2 2A.F ....|C-3 3FFF ....|--- .... ....
 D-4|..|D-2 2A.F ....|--- .... ....|--- .... ....
 A-3|..|A-2 2C.F ....|--- .... ....|--- .... ....
 A-3|..|A-2 2C.F ....|R-- .... ....|R-- .... ....

[Pattern27]
 A#2|..|A#1 2A.F ....|D-3 3FFF ....|C-5 6FEF ....
 A#2|..|A#1 2A.F ....|--- .... ....|--- .... ....
 D-4|..|D-3 2C.F ....|--- .... ....|--- .... ....
....|..|--- .... ....|--- .... ....|R-- .... ....
 A#3|..|A#1 2A.F ....|F-4 2F9F ....|F-4 2F9F ....
 A#3|..|A#1 2A.F ....|R-- .... ....|--- .... ....
....|..|C-3 2F.7 ....|R-- .... ....|R-- .... ....
....|..|--- .... ....|--- .... ....|--- .... ....
 A#2|..|A#1 2A.F ....|F-4 2F9F ....|F-4 2F9F ....
 A#2|..|A#1 2A.F ....|--- .... ....|--- .... ....
....|..|F-3 2F.7 ....|R-- .... ....|R-- .... ....
....|..|A-2 2F.A ....|R-- .... ....|R-- .... ....
 A#3|..|A#1 2A.F ....|C-3 3FFF ....|C-5 6FEA ....
 A#3|..|A#1 2A.F ....|--- .... ....|--- .... ....
 C-3|..|C-3 2C.F ....|F-4 2F9F ....|F-4 2F9F ....
....|..|R-- .... ....|R-- .... ....|R-- .... ....
 A#2|..|A#1 2A.F ....|F-3 3FFF ....|D-5 6FE7 ....
 A#2|..|A#1 2A.F ....|R-- .... ....|R-- .... ....
 F-4|..|F-3 2C.F ....|R-- .... ....|R-- .... ....
....|..|--- .... ....|--- .... ....|--- .... ....
 A#3|..|A#1 2A.F ....|F-3 3FFF ....|F-4 2F9F ....
 A#3|..|A#1 2A.F ....|--- .... ....|--- .... ....
 F-4|..|F-3 2C.F ....|R-- .... ....|R-- .... ....
....|..|A-2 2F.7 ....|R-- .... ....|R-- .... ....
 A#2|..|A#1 2A.F ....|C-3 3FFF ....|C-5 6FE7 ....
 A#2|..|A#1 2A.F ....|--- .... ....|--- .... ....
 C-3|..|C-3 2C.F ....|F-4 2F9A ....|F-4 2F9A ....
....|..|R-- .... ....|R-- .... ....|--- .... ....
 A#3|..|A#1 2A.F ....|C-3 3FFF ....|F-4 2F97 ....
 A#3|..|A#1 2A.F ....|R-- .... ....|R-- .... ....
 F-4|..|F-2 2A.F ....|R-- .... ....|R-- .... ....
 F-4|..|F-2 2A.F ....|R-- .... ....|--- .... ....
 A#2|..|A#1 2A.F ....|D-3 3FFF ....|F-4 2F97 ....
 A#2|..|A#1 2A.F ....|--- .... ....|--- .... ....
 D-4|..|D-3 2C.F ....|R-- .... ....|R-- .... ....
....|..|--- .... ....|--- .... ....|--- .... ....
 A#3|..|A#1 2A.F ....|C-3 3FFF ....|--- .... ....
 A#3|..|A#1 2A.F ....|--- .... ....|--- .... ....
 C-3|..|C-3 2C.F ....|F-4 2F97 ....|F-4 2F97 ....
....|..|R-- .... ....|R-- .... ....|--- .... ....
 A#2|..|A#1 2A.F ....|D-3 3FFF ....|--- .... ....
 A#2|..|A#1 2A.F ....|R-- .... ....|R-- .... ....
 D-4|..|D-3 2C.F ....|--- .... ....|--- .... ....
....|..|F-2 2F.A ....|R-- .... ....|--- .... ....
 A#3|..|A#1 2A.F ....|C-3 3FFF ....|F-4 2F97 ....
 A#3|..|A#1 2A.F ....|--- .... ....|--- .... ....
 C-3|..|C-3 2C.F ....|R-- .... ....|R-- .... ....
....|..|R-- .... ....|R-- .... ....|--- .... ....
 A#2|..|A#1 2A.F ....|F-3 3FFF ....|--- .... ....
 A#2|..|A#1 2A.F ....|--- .... ....|--- .... ....
 F-4|..|F-3 2C.F ....|--- .... ....|--- .... ....
....|..|R-- .... ....|R-- .... ....|--- .... ....
 A#3|..|A#1 2A.F ....|F-3 3FFF ....|--- .... ....
 A#3|..|A#1 2A.F ....|--- .... ....|--- .... ....
 F-4|..|F-3 2C.F ....|--- .... ....|--- .... ....
....|..|F-2 2F.7 ....|R-- .... ....|R-- .... ....
 A#2|..|A#1 2A.F ....|C-3 3FFF ....|C-5 6FEF ....
 A#2|..|A#1 2A.F ....|--- .... ....|--- .... ....
 C-3|..|C-3 2C.F ....|--- .... ....|--- .... ....
....|..|R-- .... ....|R-- .... ....|--- .... ....
 A#3|..|A#1 2A.F ....|C-3 3FFF ....|--- .... ....
 A#3|..|A#1 2A.F ....|--- .... ....|--- .... ....
 F-4|..|F-2 2A.F ....|--- .... ....|--- .... ....
 F-4|..|F-2 2A.F ....|R-- .... ....|--- .... ....

[Pattern28]
 C-3|..|C-1 2A.F ....|D-3 3FFF ....|F-5 6FEF ....
 C-3|..|C-1 2A.F ....|--- .... ....|--- .... ....
 D-4|..|D-3 2C.F ....|--- .... ....|--- .... ....
....|..|R-- .... ....|R-- .... ....|R-- .... ....
 C-4|..|C-2 2A.F ....|F-4 2F9F ....|F-4 2F9F ....
 C-4|..|C-2 2A.F ....|R-- .... ....|--- .... ....
....|..|C-3 2F.7 ....|R-- .... ....|R-- .... ....
....|..|R-- .... ....|R-- .... ....|--- .... ....
 C-3|..|C-1 2A.F ....|F-4 2F9F ....|F-4 2F9F ....
 C-3|..|C-1 2A.F ....|--- .... ....|--- .... ....
....|..|F-3 2F.7 ....|R-- .... ....|R-- .... ....
....|..|F-2 2F.A ....|R-- .... ....|--- .... ....
 C-4|..|C-2 2A.F ....|C-3 3FFF ....|F-5 6FEA ....
 C-4|..|C-2 2A.F ....|--- .... ....|--- .... ....
 C-3|..|C-3 2C.F ....|F-4 2F9F ....|F-4 2F9F ....
....|..|R-- .... ....|R-- .... ....|R-- .... ....
 C-3|..|C-1 2A.F ....|F-3 3FFF ....|C-5 6FE7 ....
 C-3|..|C-1 2A.F ....|R-- .... ....|R-- .... ....
 F-4|..|F-3 2C.F ....|R-- .... ....|R-- .... ....
....|..|R-- .... ....|R-- .... ....|--- .... ....
 C-4|..|C-2 2A.F ....|F-3 3FFF ....|F-4 2F9F ....
 C-4|..|C-2 2A.F ....|--- .... ....|--- .... ....
 F-4|..|F-3 2C.F ....|R-- .... ....|R-- .... ....
....|..|F-2 2F.7 ....|R-- .... ....|--- .... ....
 C-3|..|C-1 2A.F ....|C-3 3FFF ....|F-5 6FE7 ....
 C-3|..|C-1 2A.F ....|--- .... ....|--- .... ....
 C-3|..|C-3 2C.F ....|F-4 2F9A ....|F-4 2F9A ....
....|..|R-- .... ....|R-- .... ....|--- .... ....
 C-4|..|C-2 2A.F ....|C-3 3FFF ....|F-4 2F97 ....
 C-4|..|C-2 2A.F ....|R-- .... ....|R-- .... ....
 C-3|..|C-3 2C.F ....|R-- .... ....|R-- .... ....
....|..|R-- .... ....|G-3 2F5F ....|G-3 2F5F ....
 C-3|..|C-1 2A.F ....|D-3 3FFF ....|G-3 2F3F ....
 C-3|..|C-1 2A.F ....|--- .... ....|--- .... ....
 D-4|..|D-3 2C.F ....|R-- .... ....|R-- .... ....
....|..|R-- .... ....|R-- .... ....|--- .... ....
 C-4|..|C-2 2A.F ....|C-3 3FFF ....|A#3 2F9F ....
 C-4|..|C-2 2A.F ....|--- .... ....|--- .... ....
 C-3|..|C-3 2C.F ....|F-4 2F97 ....|F-4 2F97 ....
....|..|R-- .... ....|R-- .... ....|--- .... ....
 C-3|..|C-1 2A.F ....|D-3 3FFF ....|A#3 2F9F ....
 C-3|..|C-1 2A.F ....|R-- .... ....|R-- .... ....
 D-4|..|D-3 2C.F ....|R-- .... ....|R-- .... ....
....|..|R-- .... ....|G-3 2F5A ....|G-3 2F5A ....
 C-4|..|C-2 2A.F ....|C-3 3FFF ....|F-4 2F97 ....
 C-4|..|C-2 2A.F ....|--- .... ....|--- .... ....
 C-3|..|C-3 2C.F ....|A#3 2F9F ....|A#3 2F9F ....
....|..|R-- .... ....|R-- .... ....|--- .... ....
 C-3|..|C-1 2A.F ....|F-3 3FFF ....|A#3 2F9A ....
 C-3|..|C-1 2A.F ....|R-- .... ....|R-- .... ....
 F-4|..|F-3 2C.F ....|R-- .... ....|R-- .... ....
....|..|R-- .... ....|R-- .... ....|--- .... ....
 C-4|..|C-2 2A.F ....|F-3 3FFF ....|C-4 2F9F ....
 C-4|..|C-2 2A.F ....|--- .... ....|--- .... ....
 F-4|..|F-3 2C.F ....|R-- .... ....|R-- .... ....
....|..|R-- .... ....|G-3 2F57 ....|G-3 2F57 ....
 C-3|..|C-1 2A.F ....|C-3 3FFF ....|G-3 2F37 ....
 C-3|..|C-1 2A.F ....|--- .... ....|--- .... ....
 C-3|..|C-3 2C.F ....|A#3 2F9A ....|A#3 2F9A ....
....|..|R-- .... ....|R-- .... ....|--- .... ....
 C-4|..|C-2 2A.F ....|C-3 3FFF ....|A#3 2F97 ....
 C-4|..|C-2 2A.F ....|R-- .... ....|R-- .... ....
 C-3|..|C-3 2C.F ....|R-- .... ....|R-- .... ....
....|..|R-- .... ....|R-- .... ....|--- .... ....

[Pattern29]
 F-3|..|F-1 2A.F ....|D-3 3FFF ....|F-3 2F1F ....
 F-3|..|F-1 2A.F ....|--- .... ....|--- .... ....
 D-4|..|D-3 2C.F ....|R-- .... ....|R-- .... ....
....|..|R-- .... ....|R-- .... ....|R-- .... ....
 F-4|..|F-2 2A.F ....|F-4 2F9F ....|F-4 2F9F ....
 F-4|..|F-2 2A.F ....|R-- .... ....|--- .... ....
....|..|C-3 2F.7 ....|A#3 2F97 ....|A#3 2F97 ....
....|..|R-- .... ....|R-- .... ....|--- .... ....
 F-3|..|F-1 2A.F ....|F-4 2F9F ....|F-4 2F9F ....
 F-3|..|F-1 2A.F ....|R-- .... ....|R-- .... ....
....|..|F-3 2F.7 ....|R-- .... ....|R-- .... ....
....|..|R-- .... ....|R-- .... ....|--- .... ....
 F-4|..|F-2 2A.F ....|C-3 3FFF ....|C-4 2F97 ....
 F-4|..|F-2 2A.F ....|--- .... ....|--- .... ....
 C-3|..|C-3 2C.F ....|F-4 2F9F ....|F-4 2F9F ....
....|..|R-- .... ....|R-- .... ....|R-- .... ....
 F-3|..|F-1 2A.F ....|F-3 3FFF ....|F-4 2F9A ....
 F-3|..|F-1 2A.F ....|R-- .... ....|R-- .... ....
 F-4|..|F-3 2C.F ....|R-- .... ....|R-- .... ....
....|..|--- .... ....|--- .... ....|--- .... ....
 F-4|..|F-2 2A.F ....|F-3 3FFF ....|F-4 2F9F ....
 F-4|..|F-2 2A.F ....|--- .... ....|--- .... ....
 F-4|..|F-3 2C.F ....|R-- .... ....|R-- .... ....
....|..|--- .... ....|--- .... ....|--- .... ....
 F-3|..|F-1 2A.F ....|C-3 3FFF ....|F-3 2F17 ....
 F-3|..|F-1 2A.F ....|--- .... ....|--- .... ....
 C-3|..|C-3 2C.F ....|F-4 2F9A ....|F-4 2F9A ....
....|..|R-- .... ....|R-- .... ....|--- .... ....
 F-4|..|F-2 2A.F ....|C-3 3FFF ....|F-4 2F97 ....
 F-4|..|F-2 2A.F ....|R-- .... ....|R-- .... ....
 C-3|..|C-3 2C.F ....|R-- .... ....|R-- .... ....
 C-3|..|C-3 2C.F ....|R-- .... ....|--- .... ....
 F-3|..|F-1 2A.F ....|D-3 3FFF ....|F-4 2F97 ....
 F-3|..|F-1 2A.F ....|--- .... ....|--- .... ....
 D-4|..|D-3 2C.F ....|R-- .... ....|R-- .... ....
....|..|--- .... ....|--- .... ....|--- .... ....
 F-4|..|F-2 2A.F ....|C-3 3FFF ....|--- .... ....
 F-4|..|F-2 2A.F ....|--- .... ....|--- .... ....
 C-3|..|C-3 2C.F ....|F-4 2F97 ....|F-4 2F97 ....
....|..|R-- .... ....|R-- .... ....|--- .... ....
 F-3|..|F-1 2A.F ....|D-3 3FFF ....|--- .... ....
 F-3|..|F-1 2A.F ....|R-- .... ....|R-- .... ....
 D-4|..|D-3 2C.F ....|--- .... ....|--- .... ....
....|..|C-3 2F.A ....|R-- .... ....|--- .... ....
 F-4|..|F-2 2A.F ....|C-3 3FFF ....|F-4 2F97 ....
 F-4|..|F-2 2A.F ....|--- .... ....|--- .... ....
 C-3|..|C-3 2C.F ....|R-- .... ....|R-- .... ....
....|..|--- .... ....|--- .... ....|--- .... ....
 F-3|..|F-1 2A.F ....|F-3 3FFF ....|--- .... ....
 F-3|..|F-1 2A.F ....|--- .... ....|--- .... ....
 F-4|..|F-3 2C.F ....|--- .... ....|--- .... ....
....|..|R-- .... ....|R-- .... ....|--- .... ....
 F-4|..|F-2 2A.F ....|F-3 3FFF ....|--- .... ....
 F-4|..|F-2 2A.F ....|--- .... ....|--- .... ....
 F-4|..|F-3 2C.F ....|--- .... ....|--- .... ....
....|..|C-3 2F.7 ....|R-- .... ....|--- .... ....
 F-3|..|F-1 2A.F ....|C-3 3FFF ....|--- .... ....
 F-3|..|F-1 2A.F ....|--- .... ....|--- .... ....
 C-3|..|C-3 2C.F ....|--- .... ....|--- .... ....
....|..|R-- .... ....|R-- .... ....|--- .... ....
 F-4|..|F-2 2A.F ....|C-3 3FFF ....|--- .... ....
 F-4|..|F-2 2A.F ....|--- .... ....|--- .... ....
 C-3|..|C-3 2C.F ....|--- .... ....|--- .... ....
 C-3|..|C-3 2C.F ....|R-- .... ....|--- .... ....

[Pattern30]
 D-3|..|D-1 2A.F ....|D-3 3FFF ....|F-3 2F2F ....
 D-3|..|D-1 2A.F ....|--- .... ....|--- .... ....
 D-4|..|D-3 2C.F ....|--- .... ....|--- .... ....
....|..|--- .... ....|--- .... ....|--- .... ....
 D-4|..|D-2 2A.F ....|F-4 2F9F ....|F-4 2F9F ....
 D-4|..|D-2 2A.F ....|R-- .... ....|--- .... ....
....|..|C-3 2F.7 ....|R-- .... ....|R-- .... ....
....|..|R-- .... ....|R-- .... ....|--- .... ....
 D-3|..|D-1 2A.F ....|F-4 2F9F ....|F-4 2F9F ....
 D-3|..|D-1 2A.F ....|--- .... ....|--- .... ....
....|..|F-3 2F.7 ....|R-- .... ....|R-- .... ....
....|..|C-3 2F.A ....|R-- .... ....|--- .... ....
 D-4|..|D-2 2A.F ....|C-3 3FFF ....|F-3 2F2A ....
 D-4|..|D-2 2A.F ....|--- .... ....|--- .... ....
 C-3|..|C-3 2C.F ....|F-4 2F9F ....|F-4 2F9F ....
....|..|--- .... ....|--- .... ....|--- .... ....
 D-3|..|D-1 2A.F ....|F-3 3FFF ....|F-4 2F9A ....
 D-3|..|D-1 2A.F ....|R-- .... ....|R-- .... ....
 F-4|..|F-3 2C.F ....|R-- .... ....|R-- .... ....
....|..|R-- .... ....|R-- .... ....|--- .... ....
 D-4|..|D-2 2A.F ....|F-3 3FFF ....|F-4 2F9F ....
 D-4|..|D-2 2A.F ....|--- .... ....|--- .... ....
 F-4|..|F-3 2C.F ....|R-- .... ....|R-- .... ....
....|..|C-3 2F.7 ....|R-- .... ....|--- .... ....
 D-3|..|D-1 2A.F ....|C-3 3FFF ....|F-3 2F27 ....
 D-3|..|D-1 2A.F ....|--- .... ....|--- .... ....
 C-3|..|C-3 2C.F ....|F-4 2F9A ....|F-4 2F9A ....
....|..|--- .... ....|--- .... ....|--- .... ....
 D-4|..|D-2 2A.F ....|C-3 3FFF ....|F-4 2F97 ....
 D-4|..|D-2 2A.F ....|R-- .... ....|R-- .... ....
 A-3|..|A-2 2C.F ....|R-- .... ....|R-- .... ....
 A-3|..|A-2 2C.F ....|R-- .... ....|--- .... ....
 D-3|..|D-1 2A.F ....|D-3 3FFF ....|F-4 2F97 ....
 D-3|..|D-1 2A.F ....|--- .... ....|--- .... ....
 D-4|..|D-3 2C.F ....|R-- .... ....|R-- .... ....
....|..|R-- .... ....|R-- .... ....|--- .... ....
 D-4|..|D-2 2A.F ....|C-3 3FFF ....|--- .... ....
 D-4|..|D-2 2A.F ....|--- .... ....|--- .... ....
 C-3|..|C-3 2C.F ....|F-4 2F97 ....|F-4 2F97 ....
....|..|R-- .... ....|R-- .... ....|--- .... ....
 D-3|..|D-1 2A.F ....|D-3 3FFF ....|--- .... ....
 D-3|..|D-1 2A.F ....|R-- .... ....|R-- .... ....
 D-4|..|D-3 2C.F ....|--- .... ....|--- .... ....
....|..|A-2 2F.A ....|R-- .... ....|--- .... ....
 D-4|..|D-2 2A.F ....|C-3 3FFF ....|F-4 2F97 ....
 D-4|..|D-2 2A.F ....|--- .... ....|--- .... ....
 C-3|..|C-3 2C.F ....|R-- .... ....|R-- .... ....
....|..|R-- .... ....|R-- .... ....|--- .... ....
 D-3|..|D-1 2A.F ....|F-3 3FFF ....|--- .... ....
 D-3|..|D-1 2A.F ....|--- .... ....|--- .... ....
 F-4|..|F-3 2C.F ....|--- .... ....|--- .... ....
....|..|R-- .... ....|R-- .... ....|--- .... ....
 D-4|..|D-2 2A.F ....|F-3 3FFF ....|--- .... ....
 D-4|..|D-2 2A.F ....|--- .... ....|--- .... ....
 F-4|..|F-3 2C.F ....|--- .... ....|--- .... ....
....|..|A-2 2F.7 ....|--- .... ....|--- .... ....
 D-3|..|D-1 2A.F ....|C-3 3FFF ....|--- .... ....
 D-3|..|D-1 2A.F ....|--- .... ....|--- .... ....
 C-3|..|C-3 2C.F ....|--- .... ....|--- .... ....
....|..|--- .... ....|--- .... ....|--- .... ....
 D-4|..|D-2 2A.F ....|C-3 3FFF ....|--- .... ....
 D-4|..|D-2 2A.F ....|--- .... ....|--- .... ....
 A-3|..|A-2 2C.F ....|--- .... ....|--- .... ....
 A-3|..|A-2 2C.F ....|R-- .... ....|--- .... ....

[Pattern31]
 A#2|..|A#1 2A.F ....|D-3 3FFF ....|F-3 2F3F ....
 A#2|..|A#1 2A.F ....|--- .... ....|--- .... ....
 D-4|..|D-3 2C.F ....|--- .... ....|--- .... ....
....|..|--- .... ....|--- .... ....|--- .... ....
 A#3|..|A#1 2A.F ....|F-4 2F9F ....|F-4 2F9F ....
 A#3|..|A#1 2A.F ....|R-- .... ....|--- .... ....
....|..|C-3 2F.7 ....|R-- .... ....|R-- .... ....
....|..|--- .... ....|--- .... ....|--- .... ....
 A#2|..|A#1 2A.F ....|F-4 2F9F ....|F-4 2F9F ....
 A#2|..|A#1 2A.F ....|--- .... ....|--- .... ....
....|..|F-3 2F.7 ....|R-- .... ....|R-- .... ....
....|..|A-2 2F.A ....|R-- .... ....|--- .... ....
 A#3|..|A#1 2A.F ....|C-3 3FFF ....|F-3 2F3A ....
 A#3|..|A#1 2A.F ....|--- .... ....|--- .... ....
 C-3|..|C-3 2C.F ....|F-4 2F9F ....|F-4 2F9F ....
....|..|R-- .... ....|R-- .... ....|--- .... ....
 A#2|..|A#1 2A.F ....|F-3 3FFF ....|F-4 2F9A ....
 A#2|..|A#1 2A.F ....|R-- .... ....|R-- .... ....
 F-4|..|F-3 2C.F ....|R-- .... ....|R-- .... ....
....|..|--- .... ....|--- .... ....|--- .... ....
 A#3|..|A#1 2A.F ....|F-3 3FFF ....|F-4 2F9F ....
 A#3|..|A#1 2A.F ....|--- .... ....|--- .... ....
 F-4|..|F-3 2C.F ....|R-- .... ....|R-- .... ....
....|..|A-2 2F.7 ....|R-- .... ....|--- .... ....
 A#2|..|A#1 2A.F ....|C-3 3FFF ....|F-3 2F37 ....
 A#2|..|A#1 2A.F ....|--- .... ....|--- .... ....
 C-3|..|C-3 2C.F ....|F-4 2F9A ....|F-4 2F9A ....
....|..|R-- .... ....|R-- .... ....|--- .... ....
 A#3|..|A#1 2A.F ....|C-3 3FFF ....|F-4 2F97 ....
 A#3|..|A#1 2A.F ....|R-- .... ....|R-- .... ....
 F-4|..|F-2 2A.F ....|R-- .... ....|R-- .... ....
 F-4|..|F-2 2A.F ....|R-- .... ....|--- .... ....
 A#2|..|A#1 2A.F ....|D-3 3FFF ....|F-4 2F97 ....
 A#2|..|A#1 2A.F ....|--- .... ....|--- .... ....
 D-4|..|D-3 2C.F ....|R-- .... ....|R-- .... ....
....|..|--- .... ....|--- .... ....|--- .... ....
 A#3|..|A#1 2A.F ....|C-3 3FFF ....|--- .... ....
 A#3|..|A#1 2A.F ....|--- .... ....|--- .... ....
 C-3|..|C-3 2C.F ....|F-4 2F97 ....|F-4 2F97 ....
....|..|R-- .... ....|R-- .... ....|--- .... ....
 A#2|..|A#1 2A.F ....|D-3 3FFF ....|--- .... ....
 A#2|..|A#1 2A.F ....|R-- .... ....|R-- .... ....
 D-4|..|D-3 2C.F ....|--- .... ....|--- .... ....
....|..|F-2 2F.A ....|R-- .... ....|--- .... ....
 A#3|..|A#1 2A.F ....|C-3 3FFF ....|F-4 2F97 ....
 A#3|..|A#1 2A.F ....|--- .... ....|--- .... ....
 C-3|..|C-3 2C.F ....|R-- .... ....|R-- .... ....
....|..|R-- .... ....|R-- .... ....|--- .... ....
 A#2|..|A#1 2A.F ....|F-3 3FFF ....|--- .... ....
 A#2|..|A#1 2A.F ....|--- .... ....|--- .... ....
 F-4|..|F-3 2C.F ....|--- .... ....|--- .... ....
....|..|R-- .... ....|R-- .... ....|--- .... ....
 A#3|..|A#1 2A.F ....|F-3 3FFF ....|--- .... ....
 A#3|..|A#1 2A.F ....|--- .... ....|--- .... ....
 F-4|..|F-3 2C.F ....|--- .... ....|--- .... ....
....|..|F-2 2F.7 ....|R-- .... ....|--- .... ....
 A#2|..|A#1 2A.F ....|C-3 3FFF ....|--- .... ....
 A#2|..|A#1 2A.F ....|--- .... ....|--- .... ....
 C-3|..|C-3 2C.F ....|--- .... ....|--- .... ....
....|..|R-- .... ....|R-- .... ....|--- .... ....
 A#3|..|A#1 2A.F ....|C-3 3FFF ....|--- .... ....
 A#3|..|A#1 2A.F ....|--- .... ....|--- .... ....
 F-4|..|F-2 2A.F ....|--- .... ....|--- .... ....
 F-4|..|F-2 2A.F ....|R-- .... ....|--- .... ....

[Pattern32]
 C-3|..|C-1 2A.F ....|D-3 3FFF ....|G-3 2F4F ....
 C-3|..|C-1 2A.F ....|--- .... ....|--- .... ....
 D-4|..|D-3 2C.F ....|--- .... ....|--- .... ....
....|..|R-- .... ....|R-- .... ....|--- .... ....
 C-4|..|C-2 2A.F ....|F-4 2F9F ....|F-4 2F9F ....
 C-4|..|C-2 2A.F ....|R-- .... ....|--- .... ....
....|..|C-3 2F.7 ....|R-- .... ....|R-- .... ....
....|..|R-- .... ....|R-- .... ....|--- .... ....
 C-3|..|C-1 2A.F ....|F-4 2F9F ....|F-4 2F9F ....
 C-3|..|C-1 2A.F ....|--- .... ....|--- .... ....
....|..|F-3 2F.7 ....|R-- .... ....|R-- .... ....
....|..|F-2 2F.A ....|R-- .... ....|--- .... ....
 C-4|..|C-2 2A.F ....|C-3 3FFF ....|G-3 2F4A ....
 C-4|..|C-2 2A.F ....|--- .... ....|--- .... ....
 C-3|..|C-3 2C.F ....|F-4 2F9F ....|F-4 2F9F ....
....|..|R-- .... ....|R-- .... ....|--- .... ....
 C-3|..|C-1 2A.F ....|F-3 3FFF ....|F-4 2F9A ....
 C-3|..|C-1 2A.F ....|R-- .... ....|R-- .... ....
 F-4|..|F-3 2C.F ....|R-- .... ....|R-- .... ....
....|..|R-- .... ....|R-- .... ....|--- .... ....
 C-4|..|C-2 2A.F ....|F-3 3FFF ....|F-4 2F9F ....
 C-4|..|C-2 2A.F ....|--- .... ....|--- .... ....
 F-4|..|F-3 2C.F ....|R-- .... ....|R-- .... ....
....|..|F-2 2F.7 ....|R-- .... ....|--- .... ....
 C-3|..|C-1 2A.F ....|C-3 3FFF ....|G-3 2F47 ....
 C-3|..|C-1 2A.F ....|--- .... ....|--- .... ....
 C-3|..|C-3 2C.F ....|F-4 2F9A ....|F-4 2F9A ....
....|..|R-- .... ....|R-- .... ....|--- .... ....
 C-4|..|C-2 2A.F ....|C-3 3FFF ....|F-4 2F97 ....
 C-4|..|C-2 2A.F ....|R-- .... ....|R-- .... ....
 C-3|..|C-3 2C.F ....|R-- .... ....|R-- .... ....
....|..|R-- .... ....|G-3 2F5F ....|G-3 2F5F ....
 C-3|..|C-1 2A.F ....|D-3 3FFF ....|G-3 2F3F ....
 C-3|..|C-1 2A.F ....|--- .... ....|--- .... ....
 D-4|..|D-3 2C.F ....|R-- .... ....|R-- .... ....
....|..|R-- .... ....|R-- .... ....|--- .... ....
 C-4|..|C-2 2A.F ....|C-3 3FFF ....|A#3 2F9F ....
 C-4|..|C-2 2A.F ....|--- .... ....|--- .... ....
 C-3|..|C-3 2C.F ....|F-4 2F97 ....|F-4 2F97 ....
....|..|R-- .... ....|R-- .... ....|--- .... ....
 C-3|..|C-1 2A.F ....|D-3 3FFF ....|A#3 2F9F ....
 C-3|..|C-1 2A.F ....|R-- .... ....|R-- .... ....
 D-4|..|D-3 2C.F ....|R-- .... ....|R-- .... ....
....|..|R-- .... ....|G-3 2F5A ....|G-3 2F5A ....
 C-4|..|C-2 2A.F ....|C-3 3FFF ....|F-4 2F97 ....
 C-4|..|C-2 2A.F ....|--- .... ....|--- .... ....
 C-3|..|C-3 2C.F ....|A#3 2F9F ....|A#3 2F9F ....
....|..|R-- .... ....|R-- .... ....|--- .... ....
 C-3|..|C-1 2A.F ....|F-3 3FFF ....|A#3 2F9A ....
 C-3|..|C-1 2A.F ....|R-- .... ....|R-- .... ....
 F-4|..|F-3 2C.F ....|R-- .... ....|R-- .... ....
....|..|R-- .... ....|R-- .... ....|--- .... ....
 C-4|..|C-2 2A.F ....|F-3 3FFF ....|C-4 2F9F ....
 C-4|..|C-2 2A.F ....|--- .... ....|--- .... ....
 F-4|..|F-3 2C.F ....|R-- .... ....|R-- .... ....
....|..|R-- .... ....|G-3 2F57 ....|G-3 2F57 ....
 C-3|..|C-1 2A.F ....|C-3 3FFF ....|G-3 2F37 ....
 C-3|..|C-1 2A.F ....|--- .... ....|--- .... ....
 C-3|..|C-3 2C.F ....|A#3 2F9A ....|A#3 2F9A ....
....|..|R-- .... ....|R-- .... ....|--- .... ....
 C-4|..|C-2 2A.F ....|C-3 3FF7 ....|A#3 2F97 ....
 C-4|..|C-2 2A.F ....|R-- .... ....|R-- .... ....
....|..|C-3 2F.7 ....|R-- .... ....|R-- .... ....
....|..|R-- .... ....|R-- .... ....|--- .... ....

[Pattern33]
 F-3|..|F-1 2A.F ....|D-3 3FF7 ....|A#3 2F97 ....
 F-3|..|F-1 2A.F ....|--- .... ....|--- .... ....
....|..|D-3 2F.7 ....|R-- .... ....|R-- .... ....
....|..|R-- .... ....|R-- .... ....|--- .... ....
 F-4|..|F-2 2A.F ....|C-3 3FF7 ....|--- .... ....
 F-4|..|F-2 2A.F ....|--- .... ....|--- .... ....
....|..|C-3 2F.7 ....|A#3 2F97 ....|A#3 2F97 ....
....|..|R-- .... ....|R-- .... ....|--- .... ....
 F-3|..|F-1 2A.F ....|F-3 3FF7 ....|C-4 6FEF ....
 F-3|..|F-1 2A.F ....|R-- .... ....|R-- .... ....
....|..|F-3 2F.7 ....|--- .... ....|--- .... ....
....|..|R-- .... ....|R-- .... ....|--- .... ....
 F-4|..|F-2 2A.F ....|C-3 3FFF ....|C-4 2F97 ....
 F-4|..|F-2 2A.F ....|--- .... ....|--- .... ....
 C-3|..|C-3 2C.F ....|R-- .... ....|R-- .... ....
....|..|R-- .... ....|R-- .... ....|--- .... ....
 F-3|..|F-1 2A.F ....|D-3 3FFF ....|--- .... ....
 F-3|..|F-1 2A.F ....|--- .... ....|--- .... ....
 D-4|..|D-3 2C.F ....|--- .... ....|--- .... ....
....|..|--- .... ....|--- .... ....|--- .... ....
 F-4|..|F-2 2A.F ....|C-3 3FFF ....|C-4 6FEA ....
 F-4|..|F-2 2A.F ....|--- .... ....|--- .... ....
 C-3|..|C-3 2C.F ....|--- .... ....|--- .... ....
....|..|--- .... ....|--- .... ....|--- .... ....
 F-3|..|F-1 2A.F ....|D-3 3FFF ....|R-- .... ....
 F-3|..|F-1 2A.F ....|--- .... ....|--- .... ....
 D-4|..|D-3 2C.F ....|--- .... ....|--- .... ....
....|..|--- .... ....|--- .... ....|--- .... ....
 F-4|..|F-2 2A.F ....|C-3 3FFF ....|--- .... ....
 F-4|..|F-2 2A.F ....|--- .... ....|--- .... ....
 C-3|..|C-3 2C.F ....|--- .... ....|--- .... ....
....|..|--- .... ....|--- .... ....|--- .... ....
 F-3|..|F-1 2A.F ....|D-3 3FFF ....|C-4 6FE7 ....
 F-3|..|F-1 2A.F ....|--- .... ....|--- .... ....
 D-4|..|D-3 2C.F ....|--- .... ....|--- .... ....
....|..|--- .... ....|--- .... ....|--- .... ....
 F-4|..|F-2 2A.F ....|C-3 3FF7 ....|R-- .... ....
 F-4|..|F-2 2A.F ....|--- .... ....|--- .... ....
....|..|C-3 2F.7 ....|R-- .... ....|--- .... ....
....|..|--- .... ....|--- .... ....|--- .... ....
 F-3|..|F-1 2A.F ....|C-3 3FFF ....|--- .... ....
 F-3|..|F-1 2A.F ....|--- .... ....|--- .... ....
 C-3|..|C-3 2C.F ....|--- .... ....|--- .... ....
....|..|R-- .... ....|R-- .... ....|--- .... ....
 F-4|..|F-2 2A.F ....|D-3 3FFF ....|--- .... ....
 F-4|..|F-2 2A.F ....|--- .... ....|--- .... ....
 D-4|..|D-3 2C.F ....|--- .... ....|--- .... ....
....|..|--- .... ....|--- .... ....|--- .... ....
 F-3|..|F-1 2A.F ....|D-3 3FF7 ....|--- .... ....
 F-3|..|F-1 2A.F ....|--- .... ....|--- .... ....
....|..|D-3 2F.7 ....|R-- .... ....|--- .... ....
....|..|--- .... ....|--- .... ....|--- .... ....
 F-4|..|F-2 2A.F ....|F-3 3FFF ....|--- .... ....
 F-4|..|F-2 2A.F ....|--- .... ....|--- .... ....
 F-4|..|F-3 2C.F ....|--- .... ....|--- .... ....
....|..|R-- .... ....|R-- .... ....|--- .... ....
 F-3|..|F-1 2A.F ....|D-3 3FF7 ....|--- .... ....
 F-3|..|F-1 2A.F ....|R-- .... ....|--- .... ....
....|..|D-3 2F.7 ....|--- .... ....|--- .... ....
....|..|--- .... ....|--- .... ....|--- .... ....
 F-4|..|F-2 2A.F ....|--- .... ....|--- .... ....
 F-4|..|F-2 2A.F ....|--- .... ....|--- .... ....
 C-3|..|C-3 2C.F ....|R-- .... ....|--- .... ....
 C-3|..|C-3 2C.F ....|--- .... ....|--- .... ....

[Pattern34]
 F-3|..|F-1 2A.F ....|C-3 3FF7 ....|--- .... ....
 F-3|..|F-1 2A.F ....|--- .... ....|--- .... ....
....|..|C-3 2F.7 ....|--- .... ....|--- .... ....
....|..|R-- .... ....|R-- .... ....|--- .... ....
 F-4|..|F-2 2A.F ....|C-3 3FFF ....|--- .... ....
 F-4|..|F-2 2A.F ....|R-- .... ....|--- .... ....
 C-3|..|C-3 2C.F ....|--- .... ....|--- .... ....
....|..|--- .... ....|--- .... ....|--- .... ....
 F-3|..|F-1 2A.F ....|D-3 3FFF ....|--- .... ....
 F-3|..|F-1 2A.F ....|--- .... ....|--- .... ....
 D-4|..|D-3 2C.F ....|R-- .... ....|--- .... ....
....|..|C-3 2F.A ....|--- .... ....|--- .... ....
 F-4|..|F-2 2A.F ....|C-3 3FFF ....|--- .... ....
 F-4|..|F-2 2A.F ....|--- .... ....|--- .... ....
 C-3|..|C-3 2C.F ....|--- .... ....|--- .... ....
....|..|--- .... ....|--- .... ....|--- .... ....
 F-3|..|F-1 2A.F ....|F-3 3FFF ....|--- .... ....
 F-3|..|F-1 2A.F ....|R-- .... ....|--- .... ....
 F-4|..|F-3 2C.F ....|--- .... ....|--- .... ....
....|..|--- .... ....|--- .... ....|--- .... ....
 F-4|..|F-2 2A.F ....|C-3 3FFF ....|--- .... ....
 F-4|..|F-2 2A.F ....|--- .... ....|--- .... ....
 C-3|..|C-3 2C.F ....|--- .... ....|--- .... ....
....|..|C-3 2F.7 ....|R-- .... ....|--- .... ....
 F-3|..|F-1 2A.F ....|C-3 3FFA ....|--- .... ....
 F-3|..|F-1 2A.F ....|--- .... ....|--- .... ....
....|..|C-3 2F.A ....|--- .... ....|--- .... ....
....|..|--- .... ....|--- .... ....|--- .... ....
 F-4|..|F-2 2A.F ....|C-3 3FFF ....|--- .... ....
 F-4|..|F-2 2A.F ....|--- .... ....|--- .... ....
 C-3|..|C-3 2C.F ....|--- .... ....|--- .... ....
....|..|--- .... ....|--- .... ....|--- .... ....
 C-3|..|C-1 2A.F ....|F-3 3FFF ....|--- .... ....
 C-3|..|C-1 2A.F ....|--- .... ....|--- .... ....
 F-4|..|F-3 2C.F ....|--- .... ....|--- .... ....
....|..|R-- .... ....|R-- .... ....|--- .... ....
 C-4|..|C-2 2A.F ....|C-3 3FF7 ....|--- .... ....
 C-4|..|C-2 2A.F ....|--- .... ....|--- .... ....
....|..|C-3 2F.7 ....|R-- .... ....|--- .... ....
....|..|--- .... ....|--- .... ....|--- .... ....
 C-3|..|C-1 2A.F ....|D-3 3FFF ....|--- .... ....
 C-3|..|C-1 2A.F ....|--- .... ....|--- .... ....
 D-4|..|D-3 2C.F ....|--- .... ....|--- .... ....
....|..|--- .... ....|--- .... ....|--- .... ....
 C-4|..|C-2 2A.F ....|C-3 3FFF ....|--- .... ....
 C-4|..|C-2 2A.F ....|--- .... ....|--- .... ....
 C-3|..|C-3 2C.F ....|--- .... ....|--- .... ....
....|..|R-- .... ....|R-- .... ....|--- .... ....
 C-3|..|C-1 2A.F ....|--- .... ....|--- .... ....
 C-3|..|C-1 2A.F ....|--- .... ....|--- .... ....
....|..|R-- .... ....|R-- .... ....|--- .... ....
....|..|--- .... ....|--- .... ....|--- .... ....
 C-4|..|C-2 2A.F ....|C-3 3FFF ....|--- .... ....
 C-4|..|C-2 2A.F ....|--- .... ....|--- .... ....
 C-3|..|C-3 2C.F ....|--- .... ....|--- .... ....
....|..|--- .... ....|--- .... ....|--- .... ....
 C-3|..|C-1 2A.F ....|F-3 3FF7 ....|--- .... ....
 C-3|..|C-1 2A.F ....|--- .... ....|--- .... ....
....|..|F-3 2F.7 ....|R-- .... ....|--- .... ....
....|..|--- .... ....|--- .... ....|--- .... ....
 C-4|..|C-2 2A.F ....|--- .... ....|--- .... ....
 C-4|..|C-2 2A.F ....|--- .... ....|--- .... ....
....|..|R-- .... ....|R-- .... ....|--- .... ....
....|..|--- .... ....|--- .... ....|--- .... ....

[Pattern35]
 F-3|..|F-1 2A.F ....|D-3 3FF7 ....|--- .... ....
 F-3|..|F-1 2A.F ....|--- .... ....|--- .... ....
....|..|D-3 2F.7 ....|--- .... ....|--- .... ....
....|..|--- .... ....|--- .... ....|--- .... ....
 F-4|..|F-2 2A.F ....|C-3 3FFF ....|--- .... ....
 F-4|..|F-2 2A.F ....|--- .... ....|--- .... ....
 C-3|..|C-3 2C.F ....|R-- .... ....|--- .... ....
....|..|--- .... ....|--- .... ....|--- .... ....
 F-3|..|F-1 2A.F ....|D-3 3FFF ....|--- .... ....
 F-3|..|F-1 2A.F ....|--- .... ....|--- .... ....
 D-4|..|D-3 2C.F ....|R-- .... ....|--- .... ....
....|..|R-- .... ....|R-- .... ....|--- .... ....
 F-4|..|F-2 2A.F ....|C-3 3FFF ....|--- .... ....
 F-4|..|F-2 2A.F ....|--- .... ....|--- .... ....
 C-3|..|C-3 2C.F ....|--- .... ....|--- .... ....
....|..|--- .... ....|--- .... ....|--- .... ....
 F-3|..|F-1 2A.F ....|F-3 3FFF ....|--- .... ....
 F-3|..|F-1 2A.F ....|--- .... ....|--- .... ....
 F-4|..|F-3 2C.F ....|R-- .... ....|--- .... ....
....|..|--- .... ....|--- .... ....|--- .... ....
 F-4|..|F-2 2A.F ....|C-3 3FFF ....|--- .... ....
 F-4|..|F-2 2A.F ....|--- .... ....|--- .... ....
 C-3|..|C-3 2C.F ....|--- .... ....|--- .... ....
....|..|R-- .... ....|R-- .... ....|--- .... ....
 F-3|..|F-1 2A.F ....|C-3 3FFA ....|--- .... ....
 F-3|..|F-1 2A.F ....|R-- .... ....|--- .... ....
....|..|C-3 2F.A ....|--- .... ....|--- .... ....
....|..|--- .... ....|--- .... ....|--- .... ....
 F-4|..|F-2 2A.F ....|C-3 3FFF ....|--- .... ....
 F-4|..|F-2 2A.F ....|--- .... ....|--- .... ....
 C-3|..|C-3 2C.F ....|--- .... ....|--- .... ....
 C-3|..|C-3 2C.F ....|--- .... ....|--- .... ....
 F-3|..|F-1 2A.F ....|D-3 3FFF ....|--- .... ....
 F-3|..|F-1 2A.F ....|--- .... ....|--- .... ....
 D-4|..|D-3 2C.F ....|--- .... ....|--- .... ....
....|..|R-- .... ....|R-- .... ....|--- .... ....
 F-4|..|F-2 2A.F ....|C-3 3FFF ....|--- .... ....
 F-4|..|F-2 2A.F ....|R-- .... ....|--- .... ....
 C-3|..|C-3 2C.F ....|--- .... ....|--- .... ....
....|..|--- .... ....|--- .... ....|--- .... ....
 F-3|..|F-1 2A.F ....|D-3 3FFF ....|--- .... ....
 F-3|..|F-1 2A.F ....|--- .... ....|--- .... ....
 D-4|..|D-3 2C.F ....|--- .... ....|--- .... ....
....|..|C-3 2F.A ....|--- .... ....|--- .... ....
 F-4|..|F-2 2A.F ....|C-3 3FFF ....|--- .... ....
 F-4|..|F-2 2A.F ....|--- .... ....|--- .... ....
 C-3|..|C-3 2C.F ....|--- .... ....|--- .... ....
....|..|--- .... ....|--- .... ....|--- .... ....
 F-3|..|F-1 2A.F ....|D-3 3FFF ....|--- .... ....
 F-3|..|F-1 2A.F ....|R-- .... ....|--- .... ....
 D-4|..|D-3 2C.F ....|--- .... ....|--- .... ....
....|..|R-- .... ....|R-- .... ....|--- .... ....
 F-4|..|F-2 2A.F ....|C-3 3FFF ....|--- .... ....
 F-4|..|F-2 2A.F ....|--- .... ....|--- .... ....
 C-3|..|C-3 2C.F ....|--- .... ....|--- .... ....
....|..|C-3 2F.7 ....|--- .... ....|--- .... ....
 F-3|..|F-1 2A.F ....|F-3 3FFF ....|--- .... ....
 F-3|..|F-1 2A.F ....|--- .... ....|--- .... ....
 F-4|..|F-3 2C.F ....|--- .... ....|--- .... ....
....|..|--- .... ....|--- .... ....|--- .... ....
 F-4|..|F-2 2A.F ....|C-3 3FF7 ....|--- .... ....
 F-4|..|F-2 2A.F ....|--- .... ....|--- .... ....
 C-3|..|C-3 2C.F ....|R-- .... ....|--- .... ....
 C-3|..|C-3 2C.F ....|R-- .... ....|--- .... ....

[Pattern36]
 F-3|..|F-1 2A.F ....|D-3 3FF7 ....|--- .... ....
 F-3|..|F-1 2A.F ....|--- .... ....|--- .... ....
....|..|D-3 2F.7 ....|--- .... ....|--- .... ....
....|..|--- .... ....|--- .... ....|--- .... ....
 F-4|..|F-2 2A.F ....|C-3 3FFF ....|--- .... ....
 F-4|..|F-2 2A.F ....|--- .... ....|--- .... ....
 C-3|..|C-3 2C.F ....|--- .... ....|--- .... ....
....|..|--- .... ....|--- .... ....|--- .... ....
 F-3|..|F-1 2A.F ....|D-3 3FFF ....|--- .... ....
 F-3|..|F-1 2A.F ....|--- .... ....|--- .... ....
 D-4|..|D-3 2C.F ....|R-- .... ....|--- .... ....
....|..|C-3 2F.A ....|R-- .... ....|--- .... ....
 F-4|..|F-2 2A.F ....|C-3 3FFF ....|--- .... ....
 F-4|..|F-2 2A.F ....|--- .... ....|--- .... ....
 C-3|..|C-3 2C.F ....|--- .... ....|--- .... ....
....|..|--- .... ....|--- .... ....|--- .... ....
 F-3|..|F-1 2A.F ....|D-3 3FFF ....|--- .... ....
 F-3|..|F-1 2A.F ....|--- .... ....|--- .... ....
 D-4|..|D-3 2C.F ....|--- .... ....|--- .... ....
....|..|--- .... ....|--- .... ....|--- .... ....
 F-4|..|F-2 2A.F ....|C-3 3FFF ....|--- .... ....
 F-4|..|F-2 2A.F ....|--- .... ....|--- .... ....
 C-3|..|C-3 2C.F ....|R-- .... ....|--- .... ....
....|..|C-3 2F.7 ....|--- .... ....|--- .... ....
 F-3|..|F-1 2A.F ....|D-3 3FFF ....|--- .... ....
 F-3|..|F-1 2A.F ....|--- .... ....|--- .... ....
 D-4|..|D-3 2C.F ....|--- .... ....|--- .... ....
....|..|R-- .... ....|R-- .... ....|--- .... ....
 F-4|..|F-2 2A.F ....|F-3 3FFF ....|--- .... ....
 F-4|..|F-2 2A.F ....|--- .... ....|--- .... ....
 F-4|..|F-3 2C.F ....|--- .... ....|--- .... ....
....|..|--- .... ....|--- .... ....|--- .... ....
 C-3|..|C-1 2A.F ....|D-3 3FF7 ....|--- .... ....
 C-3|..|C-1 2A.F ....|R-- .... ....|--- .... ....
....|..|D-3 2F.7 ....|--- .... ....|--- .... ....
....|..|--- .... ....|--- .... ....|--- .... ....
 C-4|..|C-2 2A.F ....|C-3 3FFF ....|--- .... ....
 C-4|..|C-2 2A.F ....|--- .... ....|--- .... ....
 C-3|..|C-3 2C.F ....|--- .... ....|--- .... ....
....|..|R-- .... ....|R-- .... ....|--- .... ....
 C-3|..|C-1 2A.F ....|D-3 3FFF ....|--- .... ....
 C-3|..|C-1 2A.F ....|--- .... ....|--- .... ....
 D-4|..|D-3 2C.F ....|--- .... ....|--- .... ....
....|..|R-- .... ....|R-- .... ....|--- .... ....
 C-4|..|C-2 2A.F ....|C-3 3FFF ....|--- .... ....
 C-4|..|C-2 2A.F ....|R-- .... ....|--- .... ....
 C-3|..|C-3 2C.F ....|--- .... ....|--- .... ....
....|..|R-- .... ....|R-- .... ....|--- .... ....
 C-3|..|C-1 2A.F ....|G-3 3FFF ....|--- .... ....
 C-3|..|C-1 2A.F ....|--- .... ....|--- .... ....
 G-4|..|G-3 2C.F ....|--- .... ....|--- .... ....
....|..|R-- .... ....|R-- .... ....|--- .... ....
 C-4|..|C-2 2A.F ....|F-3 3FF7 ....|--- .... ....
 C-4|..|C-2 2A.F ....|R-- .... ....|--- .... ....
....|..|F-3 2F.7 ....|--- .... ....|--- .... ....
....|..|R-- .... ....|R-- .... ....|--- .... ....
 C-3|..|C-1 2A.F ....|C-3 3FFF ....|--- .... ....
 C-3|..|C-1 2A.F ....|R-- .... ....|--- .... ....
 C-3|..|C-3 2C.F ....|--- .... ....|--- .... ....
....|..|R-- .... ....|R-- .... ....|--- .... ....
 C-4|..|C-2 2A.F ....|C-3 3FFF ....|--- .... ....
 C-4|..|C-2 2A.F ....|--- .... ....|--- .... ....
 C-3|..|C-3 2C.F ....|--- .... ....|--- .... ....
....|..|--- .... ....|--- .... ....|--- .... ....

[Pattern37]
 F-3|..|F-1 2A.F ....|D-3 3FFF ....|--- .... ....
 F-3|..|F-1 2A.F ....|R-- .... ....|--- .... ....
 D-4|..|D-3 2C.F ....|--- .... ....|--- .... ....
....|..|R-- .... ....|R-- .... ....|--- .... ....
 F-4|..|F-2 2A.F ....|C-3 3FF7 ....|--- .... ....
 F-4|..|F-2 2A.F ....|R-- .... ....|--- .... ....
....|..|C-3 2F.7 ....|--- .... ....|--- .... ....
....|..|R-- .... ....|R-- .... ....|--- .... ....
 F-3|..|F-1 2A.F ....|G-3 3FF7 ....|--- .... ....
 F-3|..|F-1 2A.F ....|--- .... ....|--- .... ....
....|..|G-3 2F.7 ....|--- .... ....|--- .... ....
....|..|--- .... ....|--- .... ....|--- .... ....
 F-4|..|F-2 2A.F ....|C-3 3FFF ....|--- .... ....
 F-4|..|F-2 2A.F ....|R-- .... ....|--- .... ....
 C-3|..|C-3 2C.F ....|--- .... ....|--- .... ....
....|..|R-- .... ....|R-- .... ....|--- .... ....
 F-3|..|F-1 2A.F ....|D-3 3FFF ....|--- .... ....
 F-3|..|F-1 2A.F ....|R-- .... ....|--- .... ....
 D-4|..|D-3 2C.F ....|--- .... ....|--- .... ....
....|..|--- .... ....|--- .... ....|--- .... ....
 F-4|..|F-2 2A.F ....|C-3 3FF7 ....|--- .... ....
 F-4|..|F-2 2A.F ....|R-- .... ....|--- .... ....
....|..|C-3 2F.7 ....|--- .... ....|--- .... ....
....|..|--- .... ....|--- .... ....|--- .... ....
 F-3|..|F-1 2A.F ....|D-3 3FF7 ....|--- .... ....
 F-3|..|F-1 2A.F ....|--- .... ....|--- .... ....
....|..|D-3 2F.7 ....|--- .... ....|--- .... ....
....|..|R-- .... ....|R-- .... ....|--- .... ....
 F-4|..|F-2 2A.F ....|C-3 3FFF ....|--- .... ....
 F-4|..|F-2 2A.F ....|R-- .... ....|--- .... ....
 C-3|..|C-3 2C.F ....|--- .... ....|--- .... ....
....|..|--- .... ....|--- .... ....|--- .... ....
 F-3|..|F-1 2A.F ....|D-3 3FFF ....|--- .... ....
 F-3|..|F-1 2A.F ....|R-- .... ....|--- .... ....
 D-4|..|D-3 2C.F ....|--- .... ....|--- .... ....
....|..|--- .... ....|--- .... ....|--- .... ....
 F-4|..|F-2 2A.F ....|C-3 3FF7 ....|--- .... ....
 F-4|..|F-2 2A.F ....|R-- .... ....|--- .... ....
....|..|C-3 2F.7 ....|--- .... ....|--- .... ....
....|..|R-- .... ....|R-- .... ....|--- .... ....
 F-3|..|F-1 2A.F ....|D-3 3FF7 ....|--- .... ....
 F-3|..|F-1 2A.F ....|--- .... ....|--- .... ....
....|..|D-3 2F.7 ....|--- .... ....|--- .... ....
....|..|--- .... ....|--- .... ....|--- .... ....
 F-4|..|F-2 2A.F ....|C-3 3FFF ....|--- .... ....
 F-4|..|F-2 2A.F ....|R-- .... ....|--- .... ....
 C-3|..|C-3 2C.F ....|--- .... ....|--- .... ....
....|..|R-- .... ....|R-- .... ....|--- .... ....
 F-3|..|F-1 2A.F ....|D-3 3FFF ....|--- .... ....
 F-3|..|F-1 2A.F ....|R-- .... ....|--- .... ....
 D-4|..|D-3 2C.F ....|--- .... ....|--- .... ....
....|..|--- .... ....|--- .... ....|--- .... ....
 F-4|..|F-2 2A.F ....|C-3 3FF7 ....|--- .... ....
 F-4|..|F-2 2A.F ....|R-- .... ....|--- .... ....
....|..|C-3 2F.7 ....|--- .... ....|--- .... ....
....|..|--- .... ....|--- .... ....|--- .... ....
 F-3|..|F-1 2A.F ....|D-3 3FF7 ....|--- .... ....
 F-3|..|F-1 2A.F ....|--- .... ....|--- .... ....
....|..|D-3 2F.7 ....|--- .... ....|--- .... ....
....|..|R-- .... ....|R-- .... ....|--- .... ....
 F-4|..|F-2 2A.F ....|C-3 3FFF ....|--- .... ....
 F-4|..|F-2 2A.F ....|R-- .... ....|--- .... ....
 C-3|..|C-3 2C.F ....|--- .... ....|--- .... ....
....|..|--- .... ....|--- .... ....|--- .... ....

[Pattern38]
 F-3|..|F-1 2A.F ....|D-3 3FFF ....|--- .... ....
 F-3|..|F-1 2A.F ....|R-- .... ....|--- .... ....
 D-4|..|D-3 2C.F ....|--- .... ....|--- .... ....
....|..|--- .... ....|--- .... ....|--- .... ....
 F-4|..|F-2 2A.F ....|C-3 3FF7 ....|--- .... ....
 F-4|..|F-2 2A.F ....|R-- .... ....|--- .... ....
....|..|C-3 2F.7 ....|--- .... ....|--- .... ....
....|..|R-- .... ....|R-- .... ....|--- .... ....
 F-3|..|F-1 2A.F ....|D-3 3FF7 ....|--- .... ....
 F-3|..|F-1 2A.F ....|--- .... ....|--- .... ....
....|..|D-3 2F.7 ....|--- .... ....|--- .... ....
....|..|--- .... ....|--- .... ....|--- .... ....
 F-4|..|F-2 2A.F ....|C-3 3FFF ....|--- .... ....
 F-4|..|F-2 2A.F ....|R-- .... ....|--- .... ....
 C-3|..|C-3 2C.F ....|--- .... ....|--- .... ....
....|..|R-- .... ....|R-- .... ....|--- .... ....
 F-3|..|F-1 2A.F ....|D-3 3FFF ....|--- .... ....
 F-3|..|F-1 2A.F ....|R-- .... ....|--- .... ....
 D-4|..|D-3 2C.F ....|--- .... ....|--- .... ....
....|..|--- .... ....|--- .... ....|--- .... ....
 F-4|..|F-2 2A.F ....|C-3 3FF7 ....|--- .... ....
 F-4|..|F-2 2A.F ....|R-- .... ....|--- .... ....
....|..|C-3 2F.7 ....|--- .... ....|--- .... ....
....|..|--- .... ....|--- .... ....|--- .... ....
 F-3|..|F-1 2A.F ....|D-3 3FF7 ....|--- .... ....
 F-3|..|F-1 2A.F ....|--- .... ....|--- .... ....
....|..|D-3 2F.7 ....|--- .... ....|--- .... ....
....|..|R-- .... ....|R-- .... ....|--- .... ....
 F-4|..|F-2 2A.F ....|C-3 3FFF ....|--- .... ....
 F-4|..|F-2 2A.F ....|R-- .... ....|--- .... ....
 C-3|..|C-3 2C.F ....|--- .... ....|--- .... ....
....|..|--- .... ....|--- .... ....|--- .... ....
 C-3|..|C-1 2A.F ....|D-3 3FFF ....|--- .... ....
 C-3|..|C-1 2A.F ....|R-- .... ....|--- .... ....
 D-4|..|D-3 2C.F ....|--- .... ....|--- .... ....
....|..|--- .... ....|--- .... ....|--- .... ....
 C-4|..|C-2 2A.F ....|C-3 3FF7 ....|--- .... ....
 C-4|..|C-2 2A.F ....|R-- .... ....|--- .... ....
....|..|C-3 2F.7 ....|--- .... ....|--- .... ....
....|..|R-- .... ....|R-- .... ....|--- .... ....
 C-3|..|C-1 2A.F ....|D-3 3FF7 ....|--- .... ....
 C-3|..|C-1 2A.F ....|--- .... ....|--- .... ....
....|..|D-3 2F.7 ....|--- .... ....|--- .... ....
....|..|--- .... ....|--- .... ....|--- .... ....
 C-4|..|C-2 2A.F ....|C-3 3FFF ....|--- .... ....
 C-4|..|C-2 2A.F ....|R-- .... ....|--- .... ....
 C-3|..|C-3 2C.F ....|--- .... ....|--- .... ....
....|..|R-- .... ....|R-- .... ....|--- .... ....
 C-3|..|C-1 2A.F ....|D-3 3FFF ....|--- .... ....
 C-3|..|C-1 2A.F ....|R-- .... ....|--- .... ....
 D-4|..|D-3 2C.F ....|--- .... ....|--- .... ....
....|..|--- .... ....|--- .... ....|--- .... ....
 C-4|..|C-2 2A.F ....|C-3 3FF7 ....|--- .... ....
 C-4|..|C-2 2A.F ....|R-- .... ....|--- .... ....
....|..|C-3 2F.7 ....|--- .... ....|--- .... ....
....|..|--- .... ....|--- .... ....|--- .... ....
 C-3|..|C-1 2A.F ....|D-3 3FF7 ....|A-4 6FEF ....
 C-3|..|C-1 2A.F ....|--- .... ....|--- .... ....
....|..|D-3 2F.7 ....|--- .... ....|--- .... ....
....|..|R-- .... ....|R-- .... ....|--- .... ....
 C-4|..|C-2 2A.F ....|D-3 3FFA ....|A#4 6FEF ....
 C-4|..|C-2 2A.F ....|R-- .... ....|--- .... ....
....|..|D-3 2F.A ....|--- .... ....|--- .... ....
....|..|--- .... ....|--- .... ....|--- .... ....

[Pattern39]
 F-3|..|F-1 2A.F ....|A-3 UFDF ....|C-5 6FEF ....
 F-3|..|F-1 2A.F ....|R-- .... ....|--- .... ....
....|..|R-- .... ....|C-4 UFDF ....|--- .... ....
....|..|--- .... ....|--- .... ....|--- .... ....
 F-4|..|F-2 2A.F ....|F-4 UFDF ....|A-4 6FEA ....
 F-4|..|F-2 2A.F ....|--- .... ....|--- .... ....
....|..|C-3 2F.7 ....|A-4 UFDF ....|--- .... ....
....|..|R-- .... ....|R-- .... ....|--- .... ....
 F-3|..|F-1 2A.F ....|C-5 UFDF ....|A#4 6FEA ....
 F-3|..|F-1 2A.F ....|--- .... ....|--- .... ....
....|..|D-3 2F.7 ....|F-5 UFDF ....|--- .... ....
....|..|--- .... ....|--- .... ....|--- .... ....
 F-4|..|F-2 2A.F ....|A-5 UFDF ....|C-5 6FEA ....
 F-4|..|F-2 2A.F ....|R-- .... ....|R-- .... ....
....|..|R-- .... ....|C-6 UFDF ....|--- .... ....
....|..|--- .... ....|--- .... ....|--- .... ....
 F-3|..|F-1 2A.F ....|F-6 UFDF ....|A-4 6FE7 ....
 F-3|..|F-1 2A.F ....|--- .... ....|--- .... ....
....|..|R-- .... ....|C-6 UFDF ....|--- .... ....
....|..|--- .... ....|--- .... ....|--- .... ....
 F-4|..|F-2 2A.F ....|A-5 UFDF ....|A#4 6FE7 ....
 F-4|..|F-2 2A.F ....|--- .... ....|--- .... ....
....|..|R-- .... ....|F-5 UFDF ....|--- .... ....
....|..|--- .... ....|--- .... ....|--- .... ....
 F-3|..|F-1 2A.F ....|C-5 UFDF ....|D-5 6FEF ....
 F-3|..|F-1 2A.F ....|--- .... ....|R-- .... ....
....|..|R-- .... ....|A-4 UFDF ....|--- .... ....
....|..|--- .... ....|--- .... ....|--- .... ....
 F-4|..|F-2 2A.F ....|F-4 UFDF ....|--- .... ....
 F-4|..|F-2 2A.F ....|--- .... ....|--- .... ....
....|..|R-- .... ....|C-4 UFDF ....|--- .... ....
....|..|--- .... ....|--- .... ....|--- .... ....
 D-3|..|D-1 2A.F ....|F-3 UFDF ....|G-4 6FEF ....
 D-3|..|D-1 2A.F ....|--- .... ....|--- .... ....
....|..|R-- .... ....|A-3 UFDF ....|--- .... ....
....|..|--- .... ....|--- .... ....|--- .... ....
 D-4|..|D-2 2A.F ....|D-4 UFDF ....|D-5 6FEA ....
 D-4|..|D-2 2A.F ....|--- .... ....|R-- .... ....
....|..|R-- .... ....|F-4 UFDF ....|--- .... ....
....|..|--- .... ....|--- .... ....|--- .... ....
 D-3|..|D-1 2A.F ....|A-4 UFDF ....|F-4 6FEF ....
 D-3|..|D-1 2A.F ....|--- .... ....|--- .... ....
....|..|R-- .... ....|D-5 UFDF ....|--- .... ....
....|..|--- .... ....|--- .... ....|--- .... ....
 D-4|..|D-2 2A.F ....|F-5 UFDF ....|G-4 6FEA ....
 D-4|..|D-2 2A.F ....|--- .... ....|--- .... ....
....|..|R-- .... ....|A-5 UFDF ....|--- .... ....
....|..|--- .... ....|--- .... ....|--- .... ....
 D-3|..|D-1 2A.F ....|D-6 UFDF ....|D-5 6FE7 ....
 D-3|..|D-1 2A.F ....|--- .... ....|--- .... ....
....|..|R-- .... ....|A-5 UFDF ....|--- .... ....
....|..|--- .... ....|--- .... ....|R-- .... ....
 D-4|..|D-2 2A.F ....|F-5 UFDF ....|F-4 6FEA ....
 D-4|..|D-2 2A.F ....|--- .... ....|--- .... ....
....|..|R-- .... ....|D-5 UFDF ....|--- .... ....
....|..|--- .... ....|--- .... ....|--- .... ....
 D-3|..|D-1 2A.F ....|A-4 UFDF ....|A-4 6FEF ....
 D-3|..|D-1 2A.F ....|--- .... ....|--- .... ....
....|..|R-- .... ....|F-4 UFDF ....|--- .... ....
....|..|--- .... ....|--- .... ....|--- .... ....
 D-4|..|D-2 2A.F ....|D-4 UFDF ....|--- .... ....
 D-4|..|D-2 2A.F ....|--- .... ....|--- .... ....
....|..|R-- .... ....|A-3 UFDF ....|--- .... ....
....|..|--- .... ....|--- .... ....|R-- .... ....

[Pattern51]
 F-3|..|F-1 2A.F ....|D-3 3FFF ....|F-3 2F1F ....
 F-3|..|F-1 2A.F ....|--- .... ....|--- .... ....
 D-4|..|D-3 2C.F ....|R-- .... ....|R-- .... ....
....|..|R-- .... ....|R-- .... ....|R-- .... ....
 F-4|..|F-2 2A.F ....|C-3 3FF7 ....|--- .... ....
 F-4|..|F-2 2A.F ....|R-- .... ....|--- .... ....
....|..|C-3 2F.7 ....|A#3 2F97 ....|A#3 2F97 ....
....|..|R-- .... ....|R-- .... ....|--- .... ....
 F-3|..|F-1 2A.F ....|F-3 3FF7 ....|--- .... ....
 F-3|..|F-1 2A.F ....|R-- .... ....|R-- .... ....
....|..|F-3 2F.7 ....|--- .... ....|--- .... ....
....|..|R-- .... ....|R-- .... ....|--- .... ....
 F-4|..|F-2 2A.F ....|C-3 3FFF ....|C-4 2F97 ....
 F-4|..|F-2 2A.F ....|--- .... ....|--- .... ....
 C-3|..|C-3 2C.F ....|R-- .... ....|R-- .... ....
....|..|R-- .... ....|R-- .... ....|R-- .... ....
 F-3|..|F-1 2A.F ....|F-3 3FFF ....|--- .... ....
 F-3|..|F-1 2A.F ....|R-- .... ....|--- .... ....
 F-4|..|F-3 2C.F ....|--- .... ....|--- .... ....
....|..|--- .... ....|--- .... ....|--- .... ....
 F-4|..|F-2 2A.F ....|F-3 3FFF ....|--- .... ....
 F-4|..|F-2 2A.F ....|--- .... ....|--- .... ....
 F-4|..|F-3 2C.F ....|--- .... ....|--- .... ....
....|..|--- .... ....|--- .... ....|--- .... ....
 F-3|..|F-1 2A.F ....|C-3 3FFF ....|F-3 2F17 ....
 F-3|..|F-1 2A.F ....|--- .... ....|--- .... ....
 C-3|..|C-3 2C.F ....|--- .... ....|--- .... ....
....|..|R-- .... ....|R-- .... ....|--- .... ....
 F-4|..|F-2 2A.F ....|C-3 3FFF ....|--- .... ....
 F-4|..|F-2 2A.F ....|R-- .... ....|--- .... ....
 C-3|..|C-3 2C.F ....|--- .... ....|--- .... ....
 C-3|..|C-3 2C.F ....|R-- .... ....|--- .... ....
 F-3|..|F-1 2A.F ....|D-3 3FFF ....|--- .... ....
 F-3|..|F-1 2A.F ....|--- .... ....|--- .... ....
 D-4|..|D-3 2C.F ....|--- .... ....|--- .... ....
....|..|--- .... ....|--- .... ....|--- .... ....
 F-4|..|F-2 2A.F ....|C-3 3FFF ....|--- .... ....
 F-4|..|F-2 2A.F ....|--- .... ....|--- .... ....
 C-3|..|C-3 2C.F ....|--- .... ....|--- .... ....
....|..|R-- .... ....|R-- .... ....|--- .... ....
 F-3|..|F-1 2A.F ....|D-3 3FFF ....|--- .... ....
 F-3|..|F-1 2A.F ....|--- .... ....|--- .... ....
 D-4|..|D-3 2C.F ....|--- .... ....|--- .... ....
....|..|C-3 2F.A ....|R-- .... ....|--- .... ....
 F-4|..|F-2 2A.F ....|C-3 3FFF ....|--- .... ....
 F-4|..|F-2 2A.F ....|--- .... ....|--- .... ....
 C-3|..|C-3 2C.F ....|--- .... ....|--- .... ....
....|..|--- .... ....|--- .... ....|--- .... ....
 F-3|..|F-1 2A.F ....|F-3 3FFF ....|--- .... ....
 F-3|..|F-1 2A.F ....|--- .... ....|--- .... ....
 F-4|..|F-3 2C.F ....|--- .... ....|--- .... ....
....|..|R-- .... ....|R-- .... ....|--- .... ....
 F-4|..|F-2 2A.F ....|F-3 3FFF ....|--- .... ....
 F-4|..|F-2 2A.F ....|--- .... ....|--- .... ....
 F-4|..|F-3 2C.F ....|--- .... ....|--- .... ....
....|..|C-3 2F.7 ....|R-- .... ....|--- .... ....
 F-3|..|F-1 2A.F ....|C-3 3FFF ....|--- .... ....
 F-3|..|F-1 2A.F ....|--- .... ....|--- .... ....
 C-3|..|C-3 2C.F ....|--- .... ....|--- .... ....
....|..|R-- .... ....|R-- .... ....|--- .... ....
 F-4|..|F-2 2A.F ....|C-3 3FFF ....|--- .... ....
 F-4|..|F-2 2A.F ....|--- .... ....|--- .... ....
 C-3|..|C-3 2C.F ....|--- .... ....|--- .... ....
 C-3|..|C-3 2C.F ....|R-- .... ....|--- .... ....

[Pattern52]
 D-3|..|D-1 2A.F ....|D-3 3FFF ....|F-3 2F2F ....
 D-3|..|D-1 2A.F ....|--- .... ....|--- .... ....
 D-4|..|D-3 2C.F ....|--- .... ....|--- .... ....
....|..|--- .... ....|--- .... ....|--- .... ....
 D-4|..|D-2 2A.F ....|C-3 3FF7 ....|--- .... ....
 D-4|..|D-2 2A.F ....|R-- .... ....|--- .... ....
....|..|C-3 2F.7 ....|--- .... ....|--- .... ....
....|..|R-- .... ....|R-- .... ....|--- .... ....
 D-3|..|D-1 2A.F ....|F-3 3FF7 ....|--- .... ....
 D-3|..|D-1 2A.F ....|--- .... ....|--- .... ....
....|..|F-3 2F.7 ....|--- .... ....|--- .... ....
....|..|C-3 2F.A ....|R-- .... ....|--- .... ....
 D-4|..|D-2 2A.F ....|C-3 3FFF ....|F-3 2F2A ....
 D-4|..|D-2 2A.F ....|--- .... ....|--- .... ....
 C-3|..|C-3 2C.F ....|--- .... ....|--- .... ....
....|..|--- .... ....|--- .... ....|--- .... ....
 D-3|..|D-1 2A.F ....|F-3 3FFF ....|--- .... ....
 D-3|..|D-1 2A.F ....|R-- .... ....|--- .... ....
 F-4|..|F-3 2C.F ....|--- .... ....|--- .... ....
....|..|R-- .... ....|R-- .... ....|--- .... ....
 D-4|..|D-2 2A.F ....|F-3 3FFF ....|--- .... ....
 D-4|..|D-2 2A.F ....|--- .... ....|--- .... ....
 F-4|..|F-3 2C.F ....|--- .... ....|--- .... ....
....|..|C-3 2F.7 ....|R-- .... ....|--- .... ....
 D-3|..|D-1 2A.F ....|C-3 3FFF ....|F-3 2F27 ....
 D-3|..|D-1 2A.F ....|--- .... ....|--- .... ....
 C-3|..|C-3 2C.F ....|--- .... ....|--- .... ....
....|..|--- .... ....|--- .... ....|--- .... ....
 D-4|..|D-2 2A.F ....|C-3 3FFF ....|--- .... ....
 D-4|..|D-2 2A.F ....|R-- .... ....|--- .... ....
 A-3|..|A-2 2C.F ....|--- .... ....|--- .... ....
 A-3|..|A-2 2C.F ....|R-- .... ....|--- .... ....
 D-3|..|D-1 2A.F ....|D-3 3FFF ....|--- .... ....
 D-3|..|D-1 2A.F ....|--- .... ....|--- .... ....
 D-4|..|D-3 2C.F ....|--- .... ....|--- .... ....
....|..|R-- .... ....|R-- .... ....|--- .... ....
 D-4|..|D-2 2A.F ....|C-3 3FFF ....|--- .... ....
 D-4|..|D-2 2A.F ....|--- .... ....|--- .... ....
 C-3|..|C-3 2C.F ....|--- .... ....|--- .... ....
....|..|R-- .... ....|R-- .... ....|--- .... ....
 D-3|..|D-1 2A.F ....|D-3 3FFF ....|--- .... ....
 D-3|..|D-1 2A.F ....|--- .... ....|--- .... ....
 D-4|..|D-3 2C.F ....|--- .... ....|--- .... ....
....|..|A-2 2F.A ....|R-- .... ....|--- .... ....
 D-4|..|D-2 2A.F ....|C-3 3FFF ....|--- .... ....
 D-4|..|D-2 2A.F ....|--- .... ....|--- .... ....
 C-3|..|C-3 2C.F ....|--- .... ....|--- .... ....
....|..|R-- .... ....|R-- .... ....|--- .... ....
 D-3|..|D-1 2A.F ....|F-3 3FFF ....|--- .... ....
 D-3|..|D-1 2A.F ....|--- .... ....|--- .... ....
 F-4|..|F-3 2C.F ....|--- .... ....|--- .... ....
....|..|R-- .... ....|R-- .... ....|--- .... ....
 D-4|..|D-2 2A.F ....|F-3 3FFF ....|--- .... ....
 D-4|..|D-2 2A.F ....|--- .... ....|--- .... ....
 F-4|..|F-3 2C.F ....|--- .... ....|--- .... ....
....|..|A-2 2F.7 ....|--- .... ....|--- .... ....
 D-3|..|D-1 2A.F ....|C-3 3FFF ....|--- .... ....
 D-3|..|D-1 2A.F ....|--- .... ....|--- .... ....
 C-3|..|C-3 2C.F ....|--- .... ....|--- .... ....
....|..|--- .... ....|--- .... ....|--- .... ....
 D-4|..|D-2 2A.F ....|C-3 3FFF ....|--- .... ....
 D-4|..|D-2 2A.F ....|--- .... ....|--- .... ....
 A-3|..|A-2 2C.F ....|--- .... ....|--- .... ....
 A-3|..|A-2 2C.F ....|R-- .... ....|--- .... ....

[Pattern53]
 A#2|..|A#1 2A.F ....|D-3 3FFF ....|F-3 2F3F ....
 A#2|..|A#1 2A.F ....|--- .... ....|--- .... ....
 D-4|..|D-3 2C.F ....|--- .... ....|--- .... ....
....|..|--- .... ....|--- .... ....|--- .... ....
 A#3|..|A#1 2A.F ....|C-3 3FF7 ....|--- .... ....
 A#3|..|A#1 2A.F ....|R-- .... ....|--- .... ....
....|..|C-3 2F.7 ....|--- .... ....|--- .... ....
....|..|--- .... ....|--- .... ....|--- .... ....
 A#2|..|A#1 2A.F ....|F-3 3FF7 ....|--- .... ....
 A#2|..|A#1 2A.F ....|--- .... ....|--- .... ....
....|..|F-3 2F.7 ....|--- .... ....|--- .... ....
....|..|A-2 2F.A ....|R-- .... ....|--- .... ....
 A#3|..|A#1 2A.F ....|C-3 3FFF ....|F-3 2F3A ....
 A#3|..|A#1 2A.F ....|--- .... ....|--- .... ....
 C-3|..|C-3 2C.F ....|--- .... ....|--- .... ....
....|..|R-- .... ....|R-- .... ....|--- .... ....
 A#2|..|A#1 2A.F ....|F-3 3FFF ....|--- .... ....
 A#2|..|A#1 2A.F ....|R-- .... ....|--- .... ....
 F-4|..|F-3 2C.F ....|--- .... ....|--- .... ....
....|..|--- .... ....|--- .... ....|--- .... ....
 A#3|..|A#1 2A.F ....|F-3 3FFF ....|--- .... ....
 A#3|..|A#1 2A.F ....|--- .... ....|--- .... ....
 F-4|..|F-3 2C.F ....|--- .... ....|--- .... ....
....|..|A-2 2F.7 ....|R-- .... ....|--- .... ....
 A#2|..|A#1 2A.F ....|C-3 3FFF ....|F-3 2F37 ....
 A#2|..|A#1 2A.F ....|--- .... ....|--- .... ....
 C-3|..|C-3 2C.F ....|--- .... ....|--- .... ....
....|..|R-- .... ....|R-- .... ....|--- .... ....
 A#3|..|A#1 2A.F ....|C-3 3FFF ....|--- .... ....
 A#3|..|A#1 2A.F ....|R-- .... ....|--- .... ....
 F-4|..|F-2 2A.F ....|--- .... ....|--- .... ....
 F-4|..|F-2 2A.F ....|R-- .... ....|--- .... ....
 A#2|..|A#1 2A.F ....|D-3 3FFF ....|--- .... ....
 A#2|..|A#1 2A.F ....|--- .... ....|--- .... ....
 D-4|..|D-3 2C.F ....|--- .... ....|--- .... ....
....|..|--- .... ....|--- .... ....|--- .... ....
 A#3|..|A#1 2A.F ....|C-3 3FFF ....|--- .... ....
 A#3|..|A#1 2A.F ....|--- .... ....|--- .... ....
 C-3|..|C-3 2C.F ....|--- .... ....|--- .... ....
....|..|R-- .... ....|R-- .... ....|--- .... ....
 A#2|..|A#1 2A.F ....|D-3 3FFF ....|--- .... ....
 A#2|..|A#1 2A.F ....|--- .... ....|--- .... ....
 D-4|..|D-3 2C.F ....|--- .... ....|--- .... ....
....|..|F-2 2F.A ....|R-- .... ....|--- .... ....
 A#3|..|A#1 2A.F ....|C-3 3FFF ....|--- .... ....
 A#3|..|A#1 2A.F ....|--- .... ....|--- .... ....
 C-3|..|C-3 2C.F ....|--- .... ....|--- .... ....
....|..|R-- .... ....|R-- .... ....|--- .... ....
 A#2|..|A#1 2A.F ....|F-3 3FFF ....|--- .... ....
 A#2|..|A#1 2A.F ....|--- .... ....|--- .... ....
 F-4|..|F-3 2C.F ....|--- .... ....|--- .... ....
....|..|R-- .... ....|R-- .... ....|--- .... ....
 A#3|..|A#1 2A.F ....|F-3 3FFF ....|--- .... ....
 A#3|..|A#1 2A.F ....|--- .... ....|--- .... ....
 F-4|..|F-3 2C.F ....|--- .... ....|--- .... ....
....|..|F-2 2F.7 ....|R-- .... ....|--- .... ....
 A#2|..|A#1 2A.F ....|C-3 3FFF ....|--- .... ....
 A#2|..|A#1 2A.F ....|--- .... ....|--- .... ....
 C-3|..|C-3 2C.F ....|--- .... ....|--- .... ....
....|..|R-- .... ....|R-- .... ....|--- .... ....
 A#3|..|A#1 2A.F ....|C-3 3FFF ....|--- .... ....
 A#3|..|A#1 2A.F ....|--- .... ....|--- .... ....
 F-4|..|F-2 2A.F ....|--- .... ....|--- .... ....
 F-4|..|F-2 2A.F ....|R-- .... ....|--- .... ....

[Pattern54]
 C-3|..|C-1 2A.F ....|D-3 3FFF ....|G-3 2F4F ....
 C-3|..|C-1 2A.F ....|--- .... ....|--- .... ....
 D-4|..|D-3 2C.F ....|--- .... ....|--- .... ....
....|..|R-- .... ....|R-- .... ....|--- .... ....
 C-4|..|C-2 2A.F ....|C-3 3FF7 ....|--- .... ....
 C-4|..|C-2 2A.F ....|R-- .... ....|--- .... ....
....|..|C-3 2F.7 ....|--- .... ....|--- .... ....
....|..|R-- .... ....|R-- .... ....|--- .... ....
 C-3|..|C-1 2A.F ....|F-3 3FF7 ....|--- .... ....
 C-3|..|C-1 2A.F ....|--- .... ....|--- .... ....
....|..|F-3 2F.7 ....|--- .... ....|--- .... ....
....|..|F-2 2F.A ....|R-- .... ....|--- .... ....
 C-4|..|C-2 2A.F ....|C-3 3FFF ....|G-3 2F4A ....
 C-4|..|C-2 2A.F ....|--- .... ....|--- .... ....
 C-3|..|C-3 2C.F ....|--- .... ....|--- .... ....
....|..|R-- .... ....|R-- .... ....|--- .... ....
 C-3|..|C-1 2A.F ....|F-3 3FFF ....|--- .... ....
 C-3|..|C-1 2A.F ....|R-- .... ....|--- .... ....
 F-4|..|F-3 2C.F ....|--- .... ....|--- .... ....
....|..|R-- .... ....|R-- .... ....|--- .... ....
 C-4|..|C-2 2A.F ....|F-3 3FFF ....|--- .... ....
 C-4|..|C-2 2A.F ....|--- .... ....|--- .... ....
 F-4|..|F-3 2C.F ....|--- .... ....|--- .... ....
....|..|F-2 2F.7 ....|R-- .... ....|--- .... ....
 C-3|..|C-1 2A.F ....|C-3 3FFF ....|G-3 2F47 ....
 C-3|..|C-1 2A.F ....|--- .... ....|--- .... ....
 C-3|..|C-3 2C.F ....|--- .... ....|--- .... ....
....|..|R-- .... ....|R-- .... ....|--- .... ....
 C-4|..|C-2 2A.F ....|C-3 3FFF ....|--- .... ....
 C-4|..|C-2 2A.F ....|R-- .... ....|--- .... ....
 C-3|..|C-3 2C.F ....|--- .... ....|--- .... ....
....|..|R-- .... ....|G-3 2F5F ....|G-3 2F5F ....
 C-3|..|C-1 2A.F ....|D-3 3FFF ....|G-3 2F3F ....
 C-3|..|C-1 2A.F ....|--- .... ....|--- .... ....
 D-4|..|D-3 2C.F ....|--- .... ....|--- .... ....
....|..|R-- .... ....|R-- .... ....|--- .... ....
 C-4|..|C-2 2A.F ....|C-3 3FFF ....|--- .... ....
 C-4|..|C-2 2A.F ....|--- .... ....|--- .... ....
 C-3|..|C-3 2C.F ....|--- .... ....|--- .... ....
....|..|R-- .... ....|R-- .... ....|--- .... ....
 C-3|..|C-1 2A.F ....|D-3 3FFF ....|--- .... ....
 C-3|..|C-1 2A.F ....|--- .... ....|--- .... ....
 D-4|..|D-3 2C.F ....|--- .... ....|--- .... ....
....|..|R-- .... ....|G-3 2F5A ....|G-3 2F5A ....
 C-4|..|C-2 2A.F ....|C-3 3FFF ....|G-3 2F3A ....
 C-4|..|C-2 2A.F ....|--- .... ....|--- .... ....
 C-3|..|C-3 2C.F ....|--- .... ....|--- .... ....
....|..|R-- .... ....|R-- .... ....|--- .... ....
 C-3|..|C-1 2A.F ....|F-3 3FFF ....|--- .... ....
 C-3|..|C-1 2A.F ....|--- .... ....|--- .... ....
 F-4|..|F-3 2C.F ....|--- .... ....|--- .... ....
....|..|R-- .... ....|R-- .... ....|--- .... ....
 C-4|..|C-2 2A.F ....|F-3 3FFF ....|--- .... ....
 C-4|..|C-2 2A.F ....|--- .... ....|--- .... ....
 F-4|..|F-3 2C.F ....|--- .... ....|--- .... ....
....|..|R-- .... ....|G-3 2F57 ....|G-3 2F57 ....
 C-3|..|C-1 2A.F ....|C-3 3FFF ....|C-5 6FEF ....
 C-3|..|C-1 2A.F ....|--- .... ....|--- .... ....
 C-3|..|C-3 2C.F ....|--- .... ....|--- .... ....
....|..|R-- .... ....|R-- .... ....|--- .... ....
 C-4|..|C-2 2A.F ....|C-3 3FFF ....|--- .... ....
 C-4|..|C-2 2A.F ....|--- .... ....|--- .... ....
 C-3|..|C-3 2C.F ....|--- .... ....|--- .... ....
....|..|R-- .... ....|R-- .... ....|--- .... ....

[Pattern55]
 F-3|..|F-1 2A.F ....|D-3 3FFF ....|F-5 6FEF ....
 F-3|..|F-1 2A.F ....|--- .... ....|--- .... ....
 D-4|..|D-3 2C.F ....|--- .... ....|--- .... ....
....|..|R-- .... ....|R-- .... ....|--- .... ....
 F-4|..|F-2 2A.F ....|F-4 2F9F ....|F-4 2F9F ....
 F-4|..|F-2 2A.F ....|R-- .... ....|--- .... ....
....|..|C-3 2F.7 ....|R-- .... ....|R-- .... ....
....|..|R-- .... ....|R-- .... ....|--- .... ....
 F-3|..|F-1 2A.F ....|F-4 2F9F ....|F-4 2F9F ....
 F-3|..|F-1 2A.F ....|--- .... ....|--- .... ....
....|..|F-3 2F.7 ....|R-- .... ....|R-- .... ....
....|..|R-- .... ....|R-- .... ....|--- .... ....
 F-4|..|F-2 2A.F ....|C-3 3FFF ....|F-5 6FEA ....
 F-4|..|F-2 2A.F ....|--- .... ....|--- .... ....
 C-3|..|C-3 2C.F ....|F-4 2F9F ....|F-4 2F9F ....
....|..|R-- .... ....|R-- .... ....|--- .... ....
 F-3|..|F-1 2A.F ....|F-3 3FFF ....|C-5 6FE7 ....
 F-3|..|F-1 2A.F ....|R-- .... ....|R-- .... ....
 F-4|..|F-3 2C.F ....|R-- .... ....|R-- .... ....
....|..|--- .... ....|--- .... ....|--- .... ....
 F-4|..|F-2 2A.F ....|F-3 3FFF ....|F-4 2F9F ....
 F-4|..|F-2 2A.F ....|--- .... ....|--- .... ....
 F-4|..|F-3 2C.F ....|R-- .... ....|R-- .... ....
....|..|--- .... ....|--- .... ....|--- .... ....
 F-3|..|F-1 2A.F ....|C-3 3FFF ....|F-5 6FE7 ....
 F-3|..|F-1 2A.F ....|--- .... ....|--- .... ....
 C-3|..|C-3 2C.F ....|F-4 2F9A ....|F-4 2F9A ....
....|..|R-- .... ....|R-- .... ....|--- .... ....
 F-4|..|F-2 2A.F ....|C-3 3FFF ....|F-4 2F97 ....
 F-4|..|F-2 2A.F ....|R-- .... ....|R-- .... ....
 C-3|..|C-3 2C.F ....|R-- .... ....|R-- .... ....
 C-3|..|C-3 2C.F ....|R-- .... ....|--- .... ....
 F-3|..|F-1 2A.F ....|D-3 3FFF ....|F-4 2F97 ....
 F-3|..|F-1 2A.F ....|--- .... ....|--- .... ....
 D-4|..|D-3 2C.F ....|R-- .... ....|R-- .... ....
....|..|--- .... ....|--- .... ....|--- .... ....
 F-4|..|F-2 2A.F ....|C-3 3FFF ....|--- .... ....
 F-4|..|F-2 2A.F ....|--- .... ....|--- .... ....
 C-3|..|C-3 2C.F ....|F-4 2F97 ....|F-4 2F97 ....
....|..|R-- .... ....|R-- .... ....|--- .... ....
 F-3|..|F-1 2A.F ....|D-3 3FFF ....|--- .... ....
 F-3|..|F-1 2A.F ....|R-- .... ....|R-- .... ....
 D-4|..|D-3 2C.F ....|--- .... ....|--- .... ....
....|..|C-3 2F.A ....|R-- .... ....|--- .... ....
 F-4|..|F-2 2A.F ....|C-3 3FFF ....|F-4 2F97 ....
 F-4|..|F-2 2A.F ....|--- .... ....|--- .... ....
 C-3|..|C-3 2C.F ....|R-- .... ....|R-- .... ....
....|..|--- .... ....|--- .... ....|--- .... ....
 F-3|..|F-1 2A.F ....|F-3 3FFF ....|--- .... ....
 F-3|..|F-1 2A.F ....|--- .... ....|--- .... ....
 F-4|..|F-3 2C.F ....|--- .... ....|--- .... ....
....|..|R-- .... ....|R-- .... ....|--- .... ....
 F-4|..|F-2 2A.F ....|F-3 3FFF ....|--- .... ....
 F-4|..|F-2 2A.F ....|--- .... ....|--- .... ....
 F-4|..|F-3 2C.F ....|--- .... ....|--- .... ....
....|..|C-3 2F.7 ....|R-- .... ....|--- .... ....
 F-3|..|F-1 2A.F ....|C-3 3FFF ....|--- .... ....
 F-3|..|F-1 2A.F ....|--- .... ....|--- .... ....
 C-3|..|C-3 2C.F ....|--- .... ....|--- .... ....
....|..|R-- .... ....|R-- .... ....|--- .... ....
 F-4|..|F-2 2A.F ....|C-3 3FFF ....|--- .... ....
 F-4|..|F-2 2A.F ....|--- .... ....|--- .... ....
 C-3|..|C-3 2C.F ....|--- .... ....|--- .... ....
 C-3|..|C-3 2C.F ....|R-- .... ....|--- .... ....

[Pattern58]
 C-3|..|C-1 2A.F ....|D-3 3FFF ....|F-5 6FEF ....
 C-3|..|C-1 2A.F ....|--- .... ....|--- .... ....
 D-4|..|D-3 2C.F ....|--- .... ....|--- .... ....
....|..|R-- .... ....|R-- .... ....|R-- .... ....
 C-4|..|C-2 2A.F ....|F-4 2F9F ....|F-4 2F9F ....
 C-4|..|C-2 2A.F ....|R-- .... ....|--- .... ....
....|..|C-3 2F.7 ....|R-- .... ....|R-- .... ....
....|..|R-- .... ....|R-- .... ....|--- .... ....
 C-3|..|C-1 2A.F ....|F-4 2F9F ....|F-4 2F9F ....
 C-3|..|C-1 2A.F ....|--- .... ....|--- .... ....
....|..|F-3 2F.7 ....|R-- .... ....|R-- .... ....
....|..|F-2 2F.A ....|R-- .... ....|--- .... ....
 C-4|..|C-2 2A.F ....|C-3 3FFF ....|F-5 6FEA ....
 C-4|..|C-2 2A.F ....|--- .... ....|--- .... ....
 C-3|..|C-3 2C.F ....|F-4 2F9F ....|F-4 2F9F ....
....|..|R-- .... ....|R-- .... ....|R-- .... ....
 C-3|..|C-1 2A.F ....|F-3 3FFF ....|C-5 6FE7 ....
 C-3|..|C-1 2A.F ....|R-- .... ....|R-- .... ....
 F-4|..|F-3 2C.F ....|R-- .... ....|R-- .... ....
....|..|R-- .... ....|R-- .... ....|--- .... ....
 C-4|..|C-2 2A.F ....|F-3 3FFF ....|F-4 2F9F ....
 C-4|..|C-2 2A.F ....|--- .... ....|--- .... ....
 F-4|..|F-3 2C.F ....|R-- .... ....|R-- .... ....
....|..|F-2 2F.7 ....|R-- .... ....|--- .... ....
 C-3|..|C-1 2A.F ....|C-3 3FFF ....|F-5 6FE7 ....
 C-3|..|C-1 2A.F ....|--- .... ....|--- .... ....
 C-3|..|C-3 2C.F ....|F-4 2F9A ....|F-4 2F9A ....
....|..|R-- .... ....|R-- .... ....|--- .... ....
 C-4|..|C-2 2A.F ....|C-3 3FFF ....|F-4 2F97 ....
 C-4|..|C-2 2A.F ....|R-- .... ....|R-- .... ....
 C-3|..|C-3 2C.F ....|R-- .... ....|R-- .... ....
....|..|R-- .... ....|G-3 2F5F ....|G-3 2F5F ....
 C-3|..|C-1 2A.F ....|D-3 3FFF ....|G-3 2F3F ....
 C-3|..|C-1 2A.F ....|--- .... ....|--- .... ....
 D-4|..|D-3 2C.F ....|R-- .... ....|R-- .... ....
....|..|R-- .... ....|R-- .... ....|--- .... ....
 C-4|..|C-2 2A.F ....|C-3 3FFF ....|A#3 2F9F ....
 C-4|..|C-2 2A.F ....|--- .... ....|--- .... ....
 C-3|..|C-3 2C.F ....|F-4 2F97 ....|F-4 2F97 ....
....|..|R-- .... ....|R-- .... ....|--- .... ....
 C-3|..|C-1 2A.F ....|D-3 3FFF ....|A#3 2F9F ....
 C-3|..|C-1 2A.F ....|R-- .... ....|R-- .... ....
 D-4|..|D-3 2C.F ....|R-- .... ....|R-- .... ....
....|..|R-- .... ....|G-3 2F5A ....|G-3 2F5A ....
 C-4|..|C-2 2A.F ....|C-3 3FFF ....|F-4 2F97 ....
 C-4|..|C-2 2A.F ....|--- .... ....|--- .... ....
 C-3|..|C-3 2C.F ....|A#3 2F9F ....|A#3 2F9F ....
....|..|R-- .... ....|R-- .... ....|--- .... ....
 C-3|..|C-1 2A.F ....|F-3 3FFF ....|A#3 2F9A ....
 C-3|..|C-1 2A.F ....|R-- .... ....|R-- .... ....
 F-4|..|F-3 2C.F ....|R-- .... ....|R-- .... ....
....|..|R-- .... ....|R-- .... ....|--- .... ....
 C-4|..|C-2 2A.F ....|F-3 3FFF ....|C-4 2F9F ....
 C-4|..|C-2 2A.F ....|--- .... ....|--- .... ....
 F-4|..|F-3 2C.F ....|R-- .... ....|R-- .... ....
....|..|R-- .... ....|G-3 2F57 ....|G-3 2F57 ....
 C-3|..|C-1 2A.F ....|C-3 3FFF ....|C-5 6FEF ....
 C-3|..|C-1 2A.F ....|--- .... ....|--- .... ....
 C-3|..|C-3 2C.F ....|A#3 2F9A ....|A#3 2F9A ....
....|..|R-- .... ....|R-- .... ....|--- .... ....
 C-4|..|C-2 2A.F ....|C-3 3FF7 ....|A#3 2F97 ....
 C-4|..|C-2 2A.F ....|R-- .... ....|R-- .... ....
....|..|C-3 2F.7 ....|R-- .... ....|R-- .... ....
....|..|R-- .... ....|R-- .... ....|--- .... ....

[Pattern59]
 F-3|..|F-1 2A.F ....|F-3 2F1F ....|F-5 6FEF ....
 F-3|..|F-1 2A.F ....|--- .... ....|--- .... ....
....|..|D-3 2F.7 ....|R-- .... ....|R-- .... ....
....|..|R-- .... ....|R-- .... ....|R-- .... ....
 F-4|..|F-2 2A.F ....|F-4 2F9F ....|F-4 2F9F ....
 F-4|..|F-2 2A.F ....|--- .... ....|--- .... ....
....|..|C-3 2F.7 ....|A#3 2F97 ....|A#3 2F97 ....
....|..|R-- .... ....|R-- .... ....|--- .... ....
 F-3|..|F-1 2A.F ....|F-4 2F9F ....|F-4 2F9F ....
 F-3|..|F-1 2A.F ....|R-- .... ....|R-- .... ....
....|..|F-3 2F.7 ....|R-- .... ....|R-- .... ....
....|..|R-- .... ....|R-- .... ....|--- .... ....
 F-4|..|F-2 2A.F ....|F-3 3FF7 ....|C-4 2F97 ....
 F-4|..|F-2 2A.F ....|--- .... ....|--- .... ....
....|..|F-3 2F.7 ....|F-4 2F9F ....|F-4 2F9F ....
....|..|R-- .... ....|R-- .... ....|R-- .... ....
 F-3|..|F-1 2A.F ....|C-3 3FF7 ....|C-5 6FE7 ....
 F-3|..|F-1 2A.F ....|R-- .... ....|R-- .... ....
....|..|C-3 2F.7 ....|R-- .... ....|R-- .... ....
....|..|--- .... ....|--- .... ....|--- .... ....
 F-4|..|F-2 2A.F ....|F-4 2F9F ....|F-4 2F9F ....
 F-4|..|F-2 2A.F ....|--- .... ....|--- .... ....
....|..|R-- .... ....|R-- .... ....|R-- .... ....
....|..|--- .... ....|--- .... ....|--- .... ....
 F-3|..|F-1 2A.F ....|F-3 2F17 ....|F-5 6FE7 ....
 F-3|..|F-1 2A.F ....|--- .... ....|--- .... ....
....|..|R-- .... ....|F-4 2F9A ....|F-4 2F9A ....
....|..|--- .... ....|--- .... ....|--- .... ....
 F-4|..|F-2 2A.F ....|F-4 2F97 ....|F-4 2F97 ....
 F-4|..|F-2 2A.F ....|R-- .... ....|R-- .... ....
 C-3|..|C-3 2C.F ....|R-- .... ....|R-- .... ....
 C-3|..|C-3 2C.F ....|--- .... ....|--- .... ....
 F-3|..|F-1 2A.F ....|F-4 2F97 ....|F-4 2F97 ....
 F-3|..|F-1 2A.F ....|--- .... ....|--- .... ....
....|..|R-- .... ....|R-- .... ....|R-- .... ....
....|..|--- .... ....|--- .... ....|--- .... ....
 F-4|..|F-2 2A.F ....|--- .... ....|--- .... ....
 F-4|..|F-2 2A.F ....|--- .... ....|--- .... ....
....|..|R-- .... ....|F-4 2F97 ....|F-4 2F97 ....
....|..|--- .... ....|--- .... ....|--- .... ....
 F-3|..|F-1 2A.F ....|--- .... ....|--- .... ....
 F-3|..|F-1 2A.F ....|R-- .... ....|R-- .... ....
....|..|C-3 2F.A ....|--- .... ....|--- .... ....
....|..|C-3 2F.A ....|--- .... ....|--- .... ....
 F-4|..|F-2 2A.F ....|F-4 2F97 ....|F-4 2F97 ....
 F-4|..|F-2 2A.F ....|--- .... ....|--- .... ....
....|..|R-- .... ....|R-- .... ....|R-- .... ....
....|..|--- .... ....|--- .... ....|--- .... ....
 F-3|..|F-1 2A.F ....|--- .... ....|--- .... ....
 F-3|..|F-1 2A.F ....|--- .... ....|--- .... ....
....|..|R-- .... ....|--- .... ....|--- .... ....
....|..|--- .... ....|--- .... ....|--- .... ....
 F-4|..|F-2 2A.F ....|--- .... ....|--- .... ....
 F-4|..|F-2 2A.F ....|--- .... ....|--- .... ....
....|..|C-3 2F.7 ....|--- .... ....|--- .... ....
....|..|C-3 2F.7 ....|--- .... ....|--- .... ....
 F-3|..|F-1 2A.F ....|--- .... ....|--- .... ....
 F-3|..|F-1 2A.F ....|--- .... ....|--- .... ....
....|..|R-- .... ....|--- .... ....|--- .... ....
....|..|--- .... ....|--- .... ....|--- .... ....
 F-4|..|F-2 2A.F ....|--- .... ....|--- .... ....
 F-4|..|F-2 2A.F ....|--- .... ....|--- .... ....
 C-3|..|C-3 2C.F ....|--- .... ....|--- .... ....
 C-3|..|C-3 2C.F ....|--- .... ....|--- .... ....

[Pattern62]
 C-3|..|C-1 2A.F ....|G-3 2F4F ....|F-5 6FEF ....
 C-3|..|C-1 2A.F ....|--- .... ....|--- .... ....
....|..|R-- .... ....|--- .... ....|--- .... ....
....|..|--- .... ....|--- .... ....|R-- .... ....
 C-4|..|C-2 2A.F ....|F-4 2F9F ....|F-4 2F9F ....
 C-4|..|C-2 2A.F ....|--- .... ....|--- .... ....
....|..|R-- .... ....|R-- .... ....|R-- .... ....
....|..|--- .... ....|--- .... ....|--- .... ....
 C-3|..|C-1 2A.F ....|F-4 2F9F ....|F-4 2F9F ....
 C-3|..|C-1 2A.F ....|--- .... ....|--- .... ....
....|..|F-2 2F.A ....|R-- .... ....|R-- .... ....
....|..|F-2 2F.A ....|--- .... ....|--- .... ....
 C-4|..|C-2 2A.F ....|G-3 2F4A ....|F-5 6FEA ....
 C-4|..|C-2 2A.F ....|--- .... ....|--- .... ....
....|..|R-- .... ....|F-4 2F9F ....|F-4 2F9F ....
....|..|--- .... ....|--- .... ....|R-- .... ....
 C-3|..|C-1 2A.F ....|F-4 2F9A ....|C-5 6FE7 ....
 C-3|..|C-1 2A.F ....|R-- .... ....|R-- .... ....
....|..|R-- .... ....|R-- .... ....|R-- .... ....
....|..|--- .... ....|--- .... ....|--- .... ....
 C-4|..|C-2 2A.F ....|F-4 2F9F ....|F-4 2F9F ....
 C-4|..|C-2 2A.F ....|--- .... ....|--- .... ....
....|..|F-2 2F.7 ....|R-- .... ....|R-- .... ....
....|..|F-2 2F.7 ....|--- .... ....|--- .... ....
 C-3|..|C-1 2A.F ....|G-3 2F47 ....|F-5 6FE7 ....
 C-3|..|C-1 2A.F ....|--- .... ....|--- .... ....
....|..|R-- .... ....|F-4 2F9A ....|F-4 2F9A ....
....|..|--- .... ....|--- .... ....|--- .... ....
 C-4|..|C-2 2A.F ....|F-4 2F97 ....|F-4 2F97 ....
 C-4|..|C-2 2A.F ....|R-- .... ....|R-- .... ....
....|..|R-- .... ....|R-- .... ....|R-- .... ....
....|..|--- .... ....|G-3 2F5F ....|G-3 2F5F ....
 C-3|..|C-1 2A.F ....|G-3 2F3F ....|G-3 2F3F ....
 C-3|..|C-1 2A.F ....|--- .... ....|--- .... ....
....|..|R-- .... ....|R-- .... ....|R-- .... ....
....|..|--- .... ....|--- .... ....|--- .... ....
 C-4|..|C-2 2A.F ....|A#3 2F9F ....|A#3 2F9F ....
 C-4|..|C-2 2A.F ....|--- .... ....|--- .... ....
....|..|R-- .... ....|F-4 2F97 ....|F-4 2F97 ....
....|..|--- .... ....|--- .... ....|--- .... ....
 C-3|..|C-1 2A.F ....|A#3 2F9F ....|A#3 2F9F ....
 C-3|..|C-1 2A.F ....|R-- .... ....|R-- .... ....
....|..|R-- .... ....|R-- .... ....|R-- .... ....
....|..|--- .... ....|G-3 2F5A ....|G-3 2F5A ....
 C-4|..|C-2 2A.F ....|F-4 2F97 ....|F-4 2F97 ....
 C-4|..|C-2 2A.F ....|--- .... ....|--- .... ....
....|..|R-- .... ....|A#3 2F9F ....|A#3 2F9F ....
....|..|--- .... ....|--- .... ....|--- .... ....
 C-3|..|C-1 2A.F ....|A#3 2F9A ....|A#3 2F9A ....
 C-3|..|C-1 2A.F ....|R-- .... ....|R-- .... ....
....|..|R-- .... ....|R-- .... ....|R-- .... ....
....|..|--- .... ....|--- .... ....|R-- .... ....
 C-4|..|C-2 2A.F ....|C-4 2F9F ....|C-4 2F9F ....
 C-4|..|C-2 2A.F ....|--- .... ....|--- .... ....
....|..|R-- .... ....|R-- .... ....|R-- .... ....
....|..|--- .... ....|G-3 2F57 ....|G-3 2F57 ....
....|..|C-1 2F.7 ....|G-3 2F37 ....|G-3 2F37 ....
....|..|C-1 2F.7 ....|G-3 2F7F ....|G-3 2F7F ....
....|..|R-- .... ....|A#3 2F9A ....|A#3 2F9A ....
....|..|--- .... ....|--- .... ....|--- .... ....
....|..|C-2 2F.7 ....|A#3 2F97 ....|A#3 2F97 ....
....|..|C-2 2F.7 ....|R-- .... ....|R-- .... ....
....|..|R-- .... ....|R-- .... ....|R-- .... ....
....|..|--- .... ....|--- .... ....|R-- .... ....

[Pattern63]
....|..|C-1 2F.7 ....|A#3 2F97 ....|A#3 2F97 ....
....|..|C-1 2F.7 ....|--- .... ....|--- .... ....
....|..|R-- .... ....|R-- .... ....|R-- .... ....
....|..|--- .... ....|--- .... ....|--- .... ....
....|..|C-2 2F.7 ....|--- .... ....|--- .... ....
....|..|C-2 2F.7 ....|G-3 2F7A ....|G-3 2F7A ....
....|..|R-- .... ....|A#3 2F97 ....|A#3 2F97 ....
....|..|--- .... ....|--- .... ....|--- .... ....
....|..|C-1 2F.7 ....|--- .... ....|--- .... ....
....|..|C-1 2F.7 ....|R-- .... ....|R-- .... ....
....|..|R-- .... ....|--- .... ....|--- .... ....
....|..|--- .... ....|--- .... ....|R-- .... ....
....|..|C-2 2F.7 ....|C-4 2F97 ....|C-4 2F97 ....
....|..|C-2 2F.7 ....|--- .... ....|--- .... ....
....|..|R-- .... ....|R-- .... ....|R-- .... ....
....|..|--- .... ....|--- .... ....|--- .... ....
....|..|--- .... ....|--- .... ....|--- .... ....
....|..|--- .... ....|G-3 2F77 ....|G-3 2F77 ....

