[Module]
VortexTrackerII=0
Version=3.5
Title=2meu,2me[2f]-1mw[2]+,1m[3]
Author=oisee ^ 4d 29.05.2010
NoteTable=4
ChipFreq=1750000
Speed=4
PlayOrder=L0,1,1,1,4,5,6,1,1,1,10,11,12,13,14

[Ornament1]
L0

[Ornament2]
L0

[Ornament3]
L0

[Ornament4]
L0

[Ornament5]
L0

[Ornament6]
L0

[Ornament7]
L0

[Ornament8]
L0

[Ornament9]
L0

[Ornament10]
L0

[Ornament11]
L0

[Ornament12]
L0

[Ornament13]
L0

[Ornament14]
L0

[Ornament15]
L0

[Sample1]
TnE +000_ +00_ F_
TnE +000_ +00_ F_
TnE +000_ +00_ F_
TnE +000_ +00_ D_
TnE +000_ +00_ B_
TnE +000_ +00_ B_ L

[Sample2]
TnE +000_ +00_ F_ L

[Sample3]
TnE +001_ +00_ F_
TnE +002_ +00_ F_
TnE +001_ +00_ E_
TnE +002_ +00_ E_
TnE +000_ +00_ E_ L
TnE -001_ +00_ E_
TnE -002_ +00_ E_
TnE -001_ +00_ E_
TnE +000_ +00_ E_
TnE +001_ +00_ E_
TnE +002_ +00_ E_
TnE +001_ +00_ E_

[Sample4]
TnE +002_ +00_ D_
TnE +002_ +00_ D_
TnE +002_ +00_ C_
TnE +002_ +00_ B_
TnE +002_ +00_ A_ L
TnE +002_ +00_ A_
TnE +002_ +00_ A_
TnE +002_ +00_ A_
TnE +002_ +00_ A_
TnE +002_ +00_ A_
TnE +002_ +00_ A_
TnE +002_ +00_ A_

[Sample5]
TnE +000_ +00_ F_
TnE +000_ +00_ F_
tne +000_ +00_ 0_ L

[Sample6]
TnE -001_ +00_ F_ L

[Sample7]
TnE +006_ +00_ F_ L

[Sample8]
tNe +000_ +00_ F_
tNe +000_ +00_ B_
tNe +000_ +00_ 7_
tNe +000_ +00_ 6- L

[Sample9]
TnE +080_ +00_ F_
TnE +100_ +00_ E_
TnE +180_ +00_ E_
TnE +200_ +00_ E_
TnE +240_ +00_ D_
TnE +280_ +00_ D_
TnE +2C0_ +00_ D_
TnE +300_ +00_ C_
TnE +300_ +00_ C_
TnE +340_ +00_ C_
TnE +340_ +00_ C_
TnE +380_ +00_ B_
TnE +380_ +00_ B_
TnE +400_ +00_ B_
TnE +400_ +00_ B_
TnE +480_ +00_ A_
TnE +500_ +00_ 9_
TnE +580_ +00_ 7_
TnE +600_ +00_ 4_
TnE +680_ +00_ 1_
TnE +000_ +00_ 0_ L

[Sample10]
Tne +1C0_ +00_ F_
Tne +280_ +00_ E_
Tne +380_ +00_ C_
Tne +440_ +00_ A_
Tne +480_ +00_ 8_
TnE +000_ +00_ 0_ L

[Sample11]
TNe +200_ -0A_ F_
tNe +000_ +0F_ A_
TNe +200_ -07_ E_
tNe +000_ +0E_ B- L

[Sample12]
TNE +0A0_ +05_ F_
TNE +140_ +02_ D_
TNE +140_ +02_ B_
TNE +100_ +00_ A_ L
TNE +140_ +00_ A_
TNE +200_ +00_ A-

[Sample13]
Tne +200_ +00_ F_
Tne +2C0_ +00_ F_
Tne +380_ +00_ E_
Tne +500_ +00_ C_
Tne +520_ +00_ 9_
tne +000_ +00_ 0_ L

[Sample14]
TNE -100_ +00_ F_
TNE -100_ +00_ D_
TNE -100_ +00_ A_
TNE -100_ +00_ 5_
tne +000_ +00_ 0_ L

[Sample15]
TNE -100_ +00_ 5_
TNE -100_ +00_ 8_
TNE -100_ +00_ B_
TNE -100_ +00_ F_
TNe -100_ +00_ 9- L

[Sample16]
TnE +000_ +00_ C_
TnE +000_ +00_ E_
TnE +000_ +00_ F_
TnE +000_ +00_ F_
TnE +000_ +00_ E_
TnE +000_ +00_ D_
TnE +000_ +00_ C_
TnE +000_ +00_ C_ L
TnE +001_ +00_ C_
TnE +002_ +00_ C_
TnE +003_ +00_ C_
TnE +001_ +00_ C_
TnE +000_ +00_ C_
TnE -001_ +00_ C_
TnE -002_ +00_ C_
TnE -003_ +00_ C_
TnE -001_ +00_ C_
TnE +000_ +00_ C_
TnE +000_ +00_ C_

[Sample17]
Tne +1C0_ +00_ F_
Tne +280_ +00_ D_
Tne +380_ +00_ 7_
TNE +000_ +00_ 0_ L

[Sample18]
TnE -00C_ +00_ 0_ L

[Sample19]
TNe +000_ +00_ F_
TNe +000_ +00_ C_
TNe +000_ +00_ 6_
TNe +000_ +01_ A- L

[Sample20]
TNE +140_ +00_ F_
tNE +000_ +00_ B- L

[Sample21]
tNE +000_ +00_ D_
tNE +000_ +00_ 8_
tNE +000_ +00_ 1_
TNE +000_ +00_ 0_ L

[Sample22]
TnE +000_ +00_ D_ L
TnE +000_ +00_ D_
tne +000_ +00_ 9_
tne +000_ +00_ 9_
TnE +000_ +00_ D_
TnE +000_ +00_ D_
tne +000_ +00_ 9_
tne +000_ +00_ 9_
TnE +000_ +00_ D_
TnE +000_ +00_ D_
TnE +000_ +00_ D_
TnE +000_ +00_ D_
TnE +000_ +00_ D_
TnE +000_ +00_ D_
tne +000_ +00_ 9_
tne +000_ +00_ 9_

[Sample23]
TnE +000_ +00_ F_ L
TnE +010_ +01_ F_
TnE +010_ +01_ F_
TnE +010_ +01_ F_
TnE +010_ +01_ F_
TnE +000_ +00_ F_
TnE +000_ +00_ F_
TnE -010_ -01_ F_
TnE -010_ -01_ F_
TnE -010_ -01_ F_
TnE -010_ -01_ F_
TnE +000_ +00_ F_

[Sample24]
TNe +000_ -01_ C_
TNe +000_ -01_ D_
TNe +000_ -01_ E_
TNe +000_ -01_ F_
TNe +000_ -01_ F_
TNe +000_ -01_ F_
TNe +000_ -01_ F_
TNe +000_ -01_ F_
TNe +000_ -01_ E_
TNe +000_ -01_ E_
TNe +000_ -01_ E_
TNe +000_ -01_ F_
TNe +000_ -01_ F_ L

[Sample25]
TNE +000_ +00_ F_
TNE +000_ +00_ F_ L
TNE +000_ +00_ F_
TNE +000_ +00_ F_
TNE +000_ +00_ F-

[Sample26]
tne +000_ +00_ 0_ L

[Sample27]
TnE +100_ +05_ F_
TnE +200_ +02_ A_
TnE +300_ +02_ 7_
TNE +400_ +00_ 3- L

[Sample28]
tne +000_ +00_ 0_ L

[Sample29]
tnE +000_ +00_ 0_ L

[Sample30]
TNE +000_ +00_ C+ L

[Sample31]
TNe +1C0_ +00_ F_
Tne +280_ +00_ E_
Tne +380_ +00_ C_
Tne +440_ +00_ A_
Tne +480_ +00_ 8_
TnE +000_ +00_ 0_ L

[Pattern0]
..22|..|F-1 2A.F ....|F-1 2AFF ....|--- .... ....
....|..|--- .... ....|--- .... ....|--- .... ....
....|..|--- .... ....|A-4 2F.F ....|A-4 3F.F ....
....|..|--- .... ....|F-1 2FFA ....|--- .... ....
....|..|--- .... ....|G-4 2F.F ....|G-4 3F.F ....
....|..|--- .... ....|--- .... ....|A-4 3F.A ....
....|..|--- .... ....|A-4 2F.F ....|A-4 3F.F ....
....|..|--- .... ....|--- .... ....|G-4 3F.A ....
....|..|--- .... ....|C-5 2F.F ....|C-5 3F.F ....
....|..|--- .... ....|--- .... ....|A-4 3F.A ....
....|..|--- .... ....|G-4 2F.A ....|G-4 3F.7 ....
....|..|--- .... ....|--- .... ....|C-5 3F.A ....
..1E|..|G-1 2A.F ....|G-1 2AFF ....|A-4 3F.F ....
....|..|--- .... ....|--- .... ....|R-- .... ....
..1B|..|A-1 2A.F ....|A-1 2AFF ....|E-5 3F.F ....
....|..|--- .... ....|G-1 2FFA ....|A-4 3F.A ....
..1E|..|G-1 2A.F ....|G-1 2AFF ....|D-5 3F.F ....
....|..|--- .... ....|A-1 2FFA ....|E-5 3F.A ....
....|..|--- .... ....|C-5 2F.F ....|C-5 3F.F ....
....|..|--- .... ....|G-1 2FFA ....|D-5 3F.A ....
....|..|--- .... ....|G-4 2F.F ....|G-4 3F.F ....
....|..|--- .... ....|--- .... ....|C-5 3F.A ....
....|..|--- .... ....|D-5 2F.A ....|D-5 3F.7 ....
....|..|--- .... ....|--- .... ....|G-4 3F.A ....
....|..|--- .... ....|C-5 2F.F ....|C-5 3F.F ....
....|..|--- .... ....|--- .... ....|R-- .... ....
....|..|--- .... ....|B-4 2F.F ....|B-4 3F.F ....
....|..|--- .... ....|--- .... ....|C-5 3F.A ....
....|..|--- .... ....|G-4 2F.F ....|G-4 3F.F ....
....|..|--- .... ....|--- .... ....|B-4 3F.A ....
....|..|--- .... ....|F-4 2F.F ....|F-4 3F.F ....
....|..|--- .... ....|--- .... ....|G-4 3F.A ....
..1B|..|A-1 2A.F ....|A-1 2AFF ....|E-4 3F.F ....
....|..|--- .... ....|--- .... ....|F-4 3F.A ....
....|..|--- .... ....|D-4 2F.F ....|D-4 3F.F ....
....|..|--- .... ....|A-1 2FFA ....|E-4 3F.A ....
....|..|--- .... ....|C-4 2F.F ....|C-4 3F.F ....
....|..|--- .... ....|--- .... ....|D-4 3F.A ....
....|..|--- .... ....|G-4 2F.F ....|G-4 3F.F ....
....|..|--- .... ....|--- .... ....|C-4 3F.A ....
....|..|--- .... ....|C-4 2F.F ....|C-4 3F.F ....
....|..|--- .... ....|--- .... ....|G-4 3F.A ....
....|..|--- .... ....|A-3 2F.F ....|A-3 3F.F ....
....|..|--- .... ....|--- .... ....|C-4 3F.A ....
....|..|--- .... ....|C-4 2F.F ....|C-4 3F.F ....
....|..|--- .... ....|--- .... ....|A-3 3F.A ....
....|..|--- .... ....|E-4 2F.F ....|E-4 3F.F ....
....|..|--- .... ....|--- .... ....|C-4 3F.A ....
..1B|..|A-1 2A.F ....|A-1 2AFF ....|A-5 3F.F ....
....|..|--- .... ....|--- .... ....|E-4 3F.A ....
....|..|--- .... ....|E-5 2F.F ....|E-5 3F.F ....
....|..|--- .... ....|A-1 2FFA ....|A-5 3F.A ....
....|..|--- .... ....|C-5 2F.F ....|C-5 3F.F ....
....|..|--- .... ....|--- .... ....|E-5 3F.A ....
....|..|--- .... ....|A-4 2F.F ....|A-4 3F.F ....
....|..|--- .... ....|--- .... ....|C-5 3F.A ....
..1E|..|G-1 2A.F ....|G-1 2AFF ....|G-5 3F.F ....
....|..|--- .... ....|--- .... ....|A-4 3F.A ....
....|..|--- .... ....|C-5 2F.F ....|C-5 3F.F ....
....|..|--- .... ....|G-1 2FFA ....|G-5 3F.A ....
....|..|--- .... ....|A-4 2F.F ....|A-4 3F.F ....
....|..|--- .... ....|--- .... ....|C-5 3F.A ....
....|..|--- .... ....|G-4 2F.F ....|G-4 3F.F ....
....|..|--- .... ....|--- .... ....|A-4 3F.A ....

[Pattern1]
..22|..|F-1 2A.F ....|F-1 2AFF ....|C-5 3F.7 ....
....|..|--- .... ....|--- .... ....|G-4 3F.A ....
....|..|--- .... ....|A-4 2F.F ....|A-4 3F.F ....
....|..|--- .... ....|F-1 2FFA ....|R-- .... ....
....|..|--- .... ....|G-4 2F.F ....|G-4 3F.F ....
....|..|--- .... ....|--- .... ....|A-4 3F.A ....
....|..|--- .... ....|A-4 2F.F ....|A-4 3F.F ....
....|..|--- .... ....|--- .... ....|G-4 3F.A ....
....|..|--- .... ....|C-5 2F.F ....|C-5 3F.F ....
....|..|--- .... ....|--- .... ....|A-4 3F.A ....
....|..|--- .... ....|G-4 2F.7 ....|G-4 3F.7 ....
....|..|--- .... ....|--- .... ....|C-5 3F.A ....
..1E|..|G-1 2A.F ....|G-1 2AFF ....|A-4 3F.F ....
....|..|--- .... ....|--- .... ....|R-- .... ....
..1B|..|A-1 2A.F ....|A-1 2AFF ....|E-5 3F.F ....
....|..|--- .... ....|G-1 2FFA ....|A-4 3F.A ....
..1E|..|G-1 2A.F ....|G-1 2AFF ....|D-5 3F.F ....
....|..|--- .... ....|A-1 2FFA ....|E-5 3F.A ....
....|..|--- .... ....|C-5 2F.F ....|C-5 3F.F ....
....|..|--- .... ....|G-1 2FFA ....|D-5 3F.A ....
....|..|--- .... ....|G-4 2F.F ....|G-4 3F.F ....
....|..|--- .... ....|--- .... ....|C-5 3F.A ....
....|..|--- .... ....|D-5 2F.A ....|D-5 3F.7 ....
....|..|--- .... ....|--- .... ....|G-4 3F.A ....
....|..|--- .... ....|C-5 2F.F ....|C-5 3F.F ....
....|..|--- .... ....|--- .... ....|R-- .... ....
....|..|--- .... ....|B-4 2F.F ....|B-4 3F.F ....
....|..|--- .... ....|--- .... ....|C-5 3F.A ....
....|..|--- .... ....|G-4 2F.F ....|G-4 3F.F ....
....|..|--- .... ....|--- .... ....|B-4 3F.A ....
....|..|--- .... ....|F-4 2F.F ....|F-4 3F.F ....
....|..|--- .... ....|--- .... ....|G-4 3F.A ....
..1B|..|A-1 2A.F ....|A-1 2AFF ....|E-4 3F.F ....
....|..|--- .... ....|--- .... ....|F-4 3F.A ....
....|..|--- .... ....|D-4 2F.F ....|D-4 3F.F ....
....|..|--- .... ....|A-1 2FFA ....|E-4 3F.A ....
....|..|--- .... ....|C-4 2F.F ....|C-4 3F.F ....
....|..|--- .... ....|--- .... ....|D-4 3F.A ....
....|..|--- .... ....|G-4 2F.F ....|G-4 3F.F ....
....|..|--- .... ....|--- .... ....|C-4 3F.A ....
....|..|--- .... ....|C-4 2F.F ....|C-4 3F.F ....
....|..|--- .... ....|--- .... ....|G-4 3F.A ....
....|..|--- .... ....|A-3 2F.F ....|A-3 3F.F ....
....|..|--- .... ....|--- .... ....|C-4 3F.A ....
....|..|--- .... ....|C-4 2F.F ....|C-4 3F.F ....
....|..|--- .... ....|--- .... ....|A-3 3F.A ....
....|..|--- .... ....|E-4 2F.F ....|E-4 3F.F ....
....|..|--- .... ....|--- .... ....|C-4 3F.A ....
..1B|..|A-1 2A.F ....|A-1 2AFF ....|A-5 3F.F ....
....|..|--- .... ....|--- .... ....|E-4 3F.A ....
....|..|--- .... ....|E-5 2F.F ....|E-5 3F.F ....
....|..|--- .... ....|A-1 2FFA ....|A-5 3F.A ....
....|..|--- .... ....|C-5 2F.F ....|C-5 3F.F ....
....|..|--- .... ....|--- .... ....|E-5 3F.A ....
....|..|--- .... ....|A-4 2F.F ....|A-4 3F.F ....
....|..|--- .... ....|--- .... ....|C-5 3F.A ....
..1E|..|G-1 2A.F ....|G-1 2AFF ....|G-5 3F.F ....
....|..|--- .... ....|--- .... ....|A-4 3F.A ....
....|..|--- .... ....|C-5 2F.F ....|C-5 3F.F ....
....|..|--- .... ....|G-1 2FFA ....|G-5 3F.A ....
....|..|--- .... ....|A-4 2F.F ....|A-4 3F.F ....
....|..|--- .... ....|--- .... ....|C-5 3F.A ....
....|..|--- .... ....|G-4 2F.F ....|G-4 3F.F ....
....|..|--- .... ....|--- .... ....|A-4 3F.A ....

[Pattern4]
..22|..|F-1 2A.F ....|F-1 2AFF ....|C-4 3F.F ....
....|..|--- .... ....|--- .... ....|G-4 3F.A ....
....|..|--- .... ....|A-4 2F.7 ....|A-4 3F.7 ....
....|..|--- .... ....|F-1 2FFA ....|C-4 3F.A ....
....|..|--- .... ....|C-4 2F.F ....|C-4 3F.F ....
....|..|--- .... ....|--- .... ....|--- .... ....
....|..|--- .... ....|F-1 2FF7 ....|C-4 3F.7 ....
....|..|--- .... ....|--- .... ....|C-4 3F.A ....
....|..|--- .... ....|G-4 2F.F ....|G-4 3F.F ....
....|..|--- .... ....|--- .... ....|--- .... ....
....|..|--- .... ....|G-4 2F.7 ....|C-4 3F.7 ....
....|..|--- .... ....|--- .... ....|G-4 3F.A ....
..1E|..|G-1 2A.F ....|G-1 2AFF ....|--- .... ....
....|..|--- .... ....|--- .... ....|--- .... ....
..1B|..|A-1 2A.F ....|A-1 2AFF ....|G-4 3F.7 ....
....|..|--- .... ....|G-1 2FFA ....|--- .... ....
..1E|..|G-1 2A.F ....|G-1 2AFF ....|E-4 3F.F ....
....|..|--- .... ....|A-1 2FFA ....|--- .... ....
....|..|--- .... ....|R-- .... ....|R-- .... ....
....|..|--- .... ....|G-1 2FFA ....|E-4 3F.A ....
....|..|--- .... ....|E-4 2F.F ....|E-4 3F.F ....
....|..|--- .... ....|--- .... ....|R-- .... ....
....|..|--- .... ....|E-4 2F.A ....|E-4 3F.7 ....
....|..|--- .... ....|E-4 2F.F ....|E-4 3F.F ....
....|..|--- .... ....|D-4 2F.F ....|D-4 3F.F ....
....|..|--- .... ....|--- .... ....|R-- .... ....
....|..|--- .... ....|C-4 2F.F ....|C-4 3F.F ....
....|..|--- .... ....|--- .... ....|D-4 3F.A ....
....|..|--- .... ....|C-4 2F.F ....|C-4 3F.F ....
....|..|--- .... ....|D-4 2F.F ....|D-4 3F.F ....
....|..|--- .... ....|E-4 2F.F ....|E-4 3F.F ....
....|..|--- .... ....|F-4 2F.F ....|F-4 3F.F ....
..1B|..|A-1 2A.F ....|A-1 2AFF ....|E-4 3F.F ....
....|..|--- .... ....|--- .... ....|E-4 3F.A ....
....|..|--- .... ....|A-3 2F.F ....|A-3 3F.F ....
....|..|--- .... ....|A-1 2FFA ....|D-4 3F.7 ....
....|..|--- .... ....|C-4 2F.F ....|C-4 3F.F ....
....|..|--- .... ....|F-4 2F.A ....|F-4 3F.7 ....
....|..|--- .... ....|C-4 2F.F ....|C-4 3F.F ....
....|..|--- .... ....|--- .... ....|C-4 3F.A ....
....|..|--- .... ....|C-4 2F.F ....|C-4 3F.F ....
....|..|--- .... ....|D-4 2F.7 ....|C-4 3F.A ....
....|..|--- .... ....|A-3 2F.F ....|A-3 3F.F ....
....|..|--- .... ....|F-4 2F.7 ....|C-4 3F.A ....
....|..|--- .... ....|C-4 2F.F ....|C-4 3F.F ....
....|..|--- .... ....|--- .... ....|A-3 3F.A ....
....|..|--- .... ....|C-4 2F.F ....|C-4 3F.F ....
....|..|--- .... ....|--- .... ....|C-4 3F.A ....
..1B|..|A-1 2A.F ....|A-1 2AFF ....|G-4 3F.F ....
....|..|--- .... ....|--- .... ....|C-4 3F.A ....
....|..|--- .... ....|C-4 2F.F ....|C-4 3F.F ....
....|..|--- .... ....|C-4 2F.F ....|C-4 3F.F ....
....|..|--- .... ....|C-4 2F.F ....|C-4 3F.F ....
....|..|--- .... ....|--- .... ....|C-4 3F.A ....
....|..|--- .... ....|D-4 2F.F ....|D-4 3F.F ....
....|..|--- .... ....|--- .... ....|C-4 3F.A ....
..1E|..|G-1 2A.F ....|G-1 2AFF ....|C-4 3F.F ....
....|..|--- .... ....|C-4 2F.A ....|C-4 3F.7 ....
....|..|--- .... ....|B-3 2F.F ....|B-3 3F.F ....
....|..|--- .... ....|G-1 2FFA ....|C-4 3F.A ....
....|..|--- .... ....|A-3 2F.F ....|A-3 3F.F ....
....|..|--- .... ....|--- .... ....|B-3 3F.A ....
....|..|--- .... ....|G-3 2F.F ....|G-3 3F.F ....
....|..|--- .... ....|C-4 2F.7 ....|A-3 3F.A ....

[Pattern5]
..22|..|F-1 2A.F ....|F-1 2AFF ....|C-4 3F.F ....
....|..|--- .... ....|--- .... ....|G-3 3F.A ....
....|..|--- .... ....|D-4 2F.7 ....|A-3 3F.7 ....
....|..|--- .... ....|F-1 2FFA ....|C-4 3F.A ....
....|..|--- .... ....|C-4 2F.F ....|C-4 3F.F ....
....|..|--- .... ....|--- .... ....|--- .... ....
....|..|--- .... ....|F-1 2FF7 ....|C-4 3F.7 ....
....|..|--- .... ....|--- .... ....|C-4 3F.A ....
....|..|--- .... ....|G-4 2F.F ....|G-4 3F.F ....
....|..|--- .... ....|--- .... ....|--- .... ....
....|..|--- .... ....|G-3 2F.7 ....|C-4 3F.7 ....
....|..|--- .... ....|--- .... ....|G-4 3F.A ....
..1E|..|G-1 2A.F ....|G-1 2AFF ....|--- .... ....
....|..|--- .... ....|--- .... ....|--- .... ....
..1B|..|A-1 2A.F ....|A-1 2AFF ....|G-4 3F.7 ....
....|..|--- .... ....|G-1 2FFA ....|--- .... ....
..1E|..|G-1 2A.F ....|G-1 2AFF ....|E-4 3F.F ....
....|..|--- .... ....|A-1 2FFA ....|--- .... ....
....|..|--- .... ....|R-- .... ....|R-- .... ....
....|..|--- .... ....|G-1 2FFA ....|E-4 3F.A ....
....|..|--- .... ....|E-4 2F.F ....|E-4 3F.F ....
....|..|--- .... ....|--- .... ....|R-- .... ....
....|..|--- .... ....|E-4 2F.A ....|E-4 3F.7 ....
....|..|--- .... ....|E-4 2F.F ....|E-4 3F.F ....
....|..|--- .... ....|D-4 2F.F ....|D-4 3F.F ....
....|..|--- .... ....|--- .... ....|R-- .... ....
....|..|--- .... ....|C-4 2F.F ....|C-4 3F.F ....
....|..|--- .... ....|--- .... ....|D-4 3F.A ....
....|..|--- .... ....|C-4 2F.F ....|C-4 3F.F ....
....|..|--- .... ....|D-4 2F.F ....|D-4 3F.F ....
....|..|--- .... ....|E-4 2F.F ....|E-4 3F.F ....
....|..|--- .... ....|F-4 2F.F ....|F-4 3F.F ....
..1B|..|A-1 2A.F ....|A-1 2AFF ....|G-4 3F.F ....
....|..|--- .... ....|--- .... ....|E-4 3F.A ....
....|..|--- .... ....|A-3 2F.F ....|A-3 3F.F ....
....|..|--- .... ....|A-1 2FFA ....|D-4 3F.7 ....
....|..|--- .... ....|C-4 2F.F ....|C-4 3F.F ....
....|..|--- .... ....|F-4 2F.A ....|F-4 3F.7 ....
....|..|--- .... ....|C-4 2F.F ....|C-4 3F.F ....
....|..|--- .... ....|--- .... ....|C-4 3F.A ....
....|..|--- .... ....|C-4 2F.F ....|C-4 3F.F ....
....|..|--- .... ....|D-4 2F.7 ....|C-4 3F.A ....
....|..|--- .... ....|A-3 2F.F ....|A-3 3F.F ....
....|..|--- .... ....|F-4 2F.7 ....|C-4 3F.A ....
....|..|--- .... ....|C-4 2F.F ....|C-4 3F.F ....
....|..|--- .... ....|--- .... ....|A-3 3F.A ....
....|..|--- .... ....|C-4 2F.F ....|C-4 3F.F ....
....|..|--- .... ....|C-4 2F.F ....|C-4 3F.F ....
..1B|..|A-1 2A.F ....|A-1 2AFF ....|G-4 3F.F ....
....|..|--- .... ....|--- .... ....|C-4 3F.A ....
....|..|--- .... ....|C-4 2F.F ....|C-4 3F.F ....
....|..|--- .... ....|A-1 2FFA ....|G-4 3F.A ....
....|..|--- .... ....|C-4 2F.F ....|C-4 3F.F ....
....|..|--- .... ....|C-4 2F.F ....|C-4 3F.F ....
....|..|--- .... ....|D-4 2F.F ....|D-4 3F.F ....
....|..|--- .... ....|--- .... ....|C-4 3F.A ....
..1E|..|G-1 2A.F ....|G-1 2AFF ....|C-4 3F.F ....
....|..|--- .... ....|--- .... ....|D-4 3F.A ....
....|..|--- .... ....|B-3 2F.F ....|B-3 3F.F ....
....|..|--- .... ....|G-1 2FFA ....|C-4 3F.7 ....
....|..|--- .... ....|A-3 2F.F ....|A-3 3F.F ....
....|..|--- .... ....|--- .... ....|B-3 3F.A ....
....|..|--- .... ....|G-3 2F.F ....|G-3 3F.F ....
....|..|--- .... ....|--- .... ....|A-3 3F.A ....

[Pattern6]
..22|..|F-1 2A.F ....|F-1 2AFF ....|B-3 3F.7 ....
....|..|--- .... ....|C-4 2F.7 ....|G-3 3F.A ....
....|..|--- .... ....|A-4 2F.F ....|A-4 3F.F ....
....|..|--- .... ....|F-1 2FFA ....|R-- .... ....
....|..|--- .... ....|G-4 2F.F ....|G-4 3F.F ....
....|..|--- .... ....|--- .... ....|A-4 3F.A ....
....|..|--- .... ....|A-4 2F.F ....|A-4 3F.F ....
....|..|--- .... ....|--- .... ....|G-4 3F.A ....
....|..|--- .... ....|C-5 2F.F ....|C-5 3F.F ....
....|..|--- .... ....|--- .... ....|A-4 3F.A ....
....|..|--- .... ....|G-3 2F.7 ....|G-4 3F.7 ....
....|..|--- .... ....|--- .... ....|C-5 3F.A ....
..1E|..|G-1 2A.F ....|G-1 2AFF ....|A-4 3F.F ....
....|..|--- .... ....|--- .... ....|R-- .... ....
..1B|..|A-1 2A.F ....|A-1 2AFF ....|E-5 3F.F ....
....|..|--- .... ....|G-1 2FFA ....|A-4 3F.A ....
..1E|..|G-1 2A.F ....|G-1 2AFF ....|D-5 3F.F ....
....|..|--- .... ....|A-1 2FFA ....|E-5 3F.A ....
....|..|--- .... ....|C-5 2F.F ....|C-5 3F.F ....
....|..|--- .... ....|G-1 2FFA ....|D-5 3F.A ....
....|..|--- .... ....|G-4 2F.F ....|G-4 3F.F ....
....|..|--- .... ....|--- .... ....|C-5 3F.A ....
....|..|--- .... ....|D-5 2F.A ....|D-5 3F.7 ....
....|..|--- .... ....|--- .... ....|G-4 3F.A ....
....|..|--- .... ....|C-5 2F.F ....|C-5 3F.F ....
....|..|--- .... ....|--- .... ....|R-- .... ....
....|..|--- .... ....|B-4 2F.F ....|B-4 3F.F ....
....|..|--- .... ....|--- .... ....|C-5 3F.A ....
....|..|--- .... ....|G-4 2F.F ....|G-4 3F.F ....
....|..|--- .... ....|--- .... ....|B-4 3F.A ....
....|..|--- .... ....|F-4 2F.F ....|F-4 3F.F ....
....|..|--- .... ....|--- .... ....|G-4 3F.A ....
..1B|..|A-1 2A.F ....|A-1 2AFF ....|E-4 3F.F ....
....|..|--- .... ....|--- .... ....|F-4 3F.A ....
....|..|--- .... ....|D-4 2F.F ....|D-4 3F.F ....
....|..|--- .... ....|A-1 2FFA ....|E-4 3F.A ....
....|..|--- .... ....|C-4 2F.F ....|C-4 3F.F ....
....|..|--- .... ....|--- .... ....|D-4 3F.A ....
....|..|--- .... ....|G-4 2F.F ....|G-4 3F.F ....
....|..|--- .... ....|--- .... ....|C-4 3F.A ....
....|..|--- .... ....|C-4 2F.F ....|C-4 3F.F ....
....|..|--- .... ....|--- .... ....|G-4 3F.A ....
....|..|--- .... ....|A-3 2F.F ....|A-3 3F.F ....
....|..|--- .... ....|--- .... ....|C-4 3F.A ....
....|..|--- .... ....|C-4 2F.F ....|C-4 3F.F ....
....|..|--- .... ....|--- .... ....|A-3 3F.A ....
....|..|--- .... ....|E-4 2F.F ....|E-4 3F.F ....
....|..|--- .... ....|--- .... ....|C-4 3F.A ....
..1B|..|A-1 2A.F ....|A-1 2AFF ....|A-5 3F.F ....
....|..|--- .... ....|--- .... ....|E-4 3F.A ....
....|..|--- .... ....|E-5 2F.F ....|E-5 3F.F ....
....|..|--- .... ....|A-1 2FFA ....|A-5 3F.A ....
....|..|--- .... ....|C-5 2F.F ....|C-5 3F.F ....
....|..|--- .... ....|--- .... ....|E-5 3F.A ....
....|..|--- .... ....|A-4 2F.F ....|A-4 3F.F ....
....|..|--- .... ....|--- .... ....|C-5 3F.A ....
..1E|..|G-1 2A.F ....|G-1 2AFF ....|G-5 3F.F ....
....|..|--- .... ....|--- .... ....|A-4 3F.A ....
....|..|--- .... ....|C-5 2F.F ....|C-5 3F.F ....
....|..|--- .... ....|G-1 2FFA ....|G-5 3F.A ....
....|..|--- .... ....|A-4 2F.F ....|A-4 3F.F ....
....|..|--- .... ....|--- .... ....|C-5 3F.A ....
....|..|--- .... ....|G-4 2F.F ....|G-4 3F.F ....
....|..|--- .... ....|--- .... ....|A-4 3F.A ....

[Pattern10]
..22|..|F-1 2A.F ....|F-1 2AFF ....|A-3 3F.F ....
....|..|--- .... ....|--- .... ....|G-4 3F.A ....
....|..|--- .... ....|B-3 2F.F ....|B-3 3F.F ....
....|..|--- .... ....|F-1 2FFA ....|A-3 3F.A ....
....|..|--- .... ....|G-5 2F.7 ....|G-4 3F.7 ....
....|..|--- .... ....|--- .... ....|B-3 3F.A ....
....|..|--- .... ....|C-4 2F.F ....|C-4 3F.F ....
....|..|--- .... ....|--- .... ....|--- .... ....
....|..|--- .... ....|A-4 2F.7 ....|B-3 3F.7 ....
....|..|--- .... ....|--- .... ....|C-4 3F.A ....
....|..|--- .... ....|G-3 2F.F ....|G-3 3F.F ....
....|..|--- .... ....|--- .... ....|--- .... ....
....|..|--- .... ....|A-3 2F.7 ....|C-4 3F.7 ....
....|..|--- .... ....|--- .... ....|G-3 3F.A ....
....|..|--- .... ....|G-3 2F.F ....|G-3 3F.F ....
....|..|--- .... ....|--- .... ....|--- .... ....
..1E|..|G-1 2A.F ....|G-1 2AFF ....|G-3 3F.7 ....
....|..|--- .... ....|--- .... ....|G-3 3F.A ....
....|..|--- .... ....|C-4 2F.7 ....|--- .... ....
....|..|--- .... ....|G-1 2FFA ....|--- .... ....
....|..|--- .... ....|G-3 2F.A ....|G-3 3F.7 ....
....|..|--- .... ....|--- .... ....|--- .... ....
....|..|--- .... ....|G-1 2FF7 ....|--- .... ....
....|..|--- .... ....|--- .... ....|--- .... ....
....|..|--- .... ....|--- .... ....|--- .... ....
....|..|--- .... ....|--- .... ....|--- .... ....
....|..|--- .... ....|G-3 2F.7 ....|--- .... ....
....|..|--- .... ....|--- .... ....|--- .... ....
....|..|--- .... ....|--- .... ....|--- .... ....
....|..|--- .... ....|--- .... ....|--- .... ....
....|..|--- .... ....|--- .... ....|--- .... ....
....|..|--- .... ....|--- .... ....|--- .... ....
..1B|..|A-1 2A.F ....|A-1 2AFF ....|A-3 3F.F ....
....|..|--- .... ....|--- .... ....|--- .... ....
....|..|--- .... ....|C-4 2F.F ....|C-4 3F.F ....
....|..|--- .... ....|A-1 2FFA ....|A-3 3F.A ....
....|..|--- .... ....|--- .... ....|--- .... ....
....|..|--- .... ....|--- .... ....|C-4 3F.A ....
....|..|--- .... ....|E-4 2F.F ....|E-4 3F.F ....
....|..|--- .... ....|--- .... ....|--- .... ....
....|..|--- .... ....|C-4 2F.A ....|C-4 3F.7 ....
....|..|--- .... ....|--- .... ....|E-4 3F.A ....
....|..|--- .... ....|C-4 2F.F ....|C-4 3F.F ....
....|..|--- .... ....|--- .... ....|--- .... ....
....|..|--- .... ....|A-3 2F.7 ....|E-4 3F.7 ....
....|..|--- .... ....|--- .... ....|C-4 3F.A ....
....|..|--- .... ....|C-4 2F.7 ....|--- .... ....
....|..|--- .... ....|--- .... ....|--- .... ....
..16|..|C-2 2A.F ....|C-2 2AFF ....|C-4 3F.F ....
....|..|--- .... ....|--- .... ....|--- .... ....
....|..|--- .... ....|E-4 2F.7 ....|--- .... ....
....|..|--- .... ....|C-2 2FFA ....|C-4 3F.A ....
....|..|--- .... ....|--- .... ....|--- .... ....
....|..|--- .... ....|--- .... ....|--- .... ....
....|..|--- .... ....|C-2 2FF7 ....|C-4 3F.7 ....
....|..|--- .... ....|--- .... ....|--- .... ....
....|..|--- .... ....|--- .... ....|--- .... ....
....|..|--- .... ....|--- .... ....|--- .... ....
....|..|--- .... ....|--- .... ....|--- .... ....
....|..|--- .... ....|--- .... ....|--- .... ....
....|..|--- .... ....|C-4 2F.7 ....|--- .... ....
....|..|--- .... ....|--- .... ....|--- .... ....
....|..|--- .... ....|--- .... ....|--- .... ....
....|..|--- .... ....|--- .... ....|--- .... ....

[Pattern11]
..22|..|F-1 2A.F ....|F-1 2AFF ....|A-3 3F.F ....
....|..|--- .... ....|--- .... ....|--- .... ....
....|..|--- .... ....|B-3 2F.F ....|B-3 3F.F ....
....|..|--- .... ....|F-1 2FFA ....|A-3 3F.A ....
....|..|--- .... ....|--- .... ....|--- .... ....
....|..|--- .... ....|--- .... ....|B-3 3F.A ....
....|..|--- .... ....|C-4 2F.F ....|C-4 3F.F ....
....|..|--- .... ....|--- .... ....|--- .... ....
....|..|--- .... ....|B-3 2F.A ....|B-3 3F.7 ....
....|..|--- .... ....|--- .... ....|C-4 3F.A ....
....|..|--- .... ....|G-3 2F.F ....|G-3 3F.F ....
....|..|--- .... ....|--- .... ....|--- .... ....
....|..|--- .... ....|A-3 2F.7 ....|C-4 3F.7 ....
....|..|--- .... ....|--- .... ....|G-3 3F.A ....
....|..|--- .... ....|G-3 2F.F ....|G-3 3F.F ....
....|..|--- .... ....|--- .... ....|--- .... ....
..1E|..|G-1 2A.F ....|G-1 2AFF ....|G-3 3F.7 ....
....|..|--- .... ....|--- .... ....|G-3 3F.A ....
....|..|--- .... ....|D-4 2F.F ....|D-4 3F.F ....
....|..|--- .... ....|G-1 2FFA ....|--- .... ....
....|..|--- .... ....|G-3 2F.A ....|G-3 3F.7 ....
....|..|--- .... ....|--- .... ....|D-4 3F.A ....
....|..|--- .... ....|C-4 2F.F ....|C-4 3F.F ....
....|..|--- .... ....|--- .... ....|--- .... ....
....|..|--- .... ....|D-4 2F.A ....|D-4 3F.7 ....
....|..|--- .... ....|--- .... ....|C-4 3F.A ....
....|..|--- .... ....|G-3 2F.7 ....|R-- .... ....
....|..|--- .... ....|--- .... ....|--- .... ....
....|..|--- .... ....|C-4 2F.A ....|C-4 3F.7 ....
....|..|--- .... ....|--- .... ....|R-- .... ....
....|..|--- .... ....|D-4 2F.F ....|D-4 3F.F ....
....|..|--- .... ....|--- .... ....|--- .... ....
..1B|..|A-1 2A.F ....|A-1 2AFF ....|E-4 3F.F ....
....|..|--- .... ....|--- .... ....|D-4 3F.A ....
....|..|--- .... ....|C-4 2F.7 ....|--- .... ....
....|..|--- .... ....|A-1 2FFA ....|E-4 3F.A ....
....|..|--- .... ....|D-4 2F.F ....|D-4 3F.F ....
....|..|--- .... ....|--- .... ....|--- .... ....
....|..|--- .... ....|E-4 2F.F ....|E-4 3F.F ....
....|..|--- .... ....|--- .... ....|D-4 3F.A ....
....|..|--- .... ....|--- .... ....|--- .... ....
....|..|--- .... ....|--- .... ....|E-4 3F.A ....
....|..|--- .... ....|E-4 2F.F ....|E-4 3F.F ....
....|..|--- .... ....|--- .... ....|--- .... ....
....|..|--- .... ....|G-4 2F.F ....|G-4 3F.F ....
....|..|--- .... ....|--- .... ....|E-4 3F.A ....
....|..|--- .... ....|--- .... ....|--- .... ....
....|..|--- .... ....|--- .... ....|G-4 3F.A ....
..16|..|C-2 2A.F ....|C-2 2AFF ....|E-4 3F.7 ....
....|..|--- .... ....|--- .... ....|--- .... ....
....|..|--- .... ....|E-4 2F.7 ....|G-4 3F.7 ....
....|..|--- .... ....|C-2 2FFA ....|--- .... ....
....|..|--- .... ....|C-4 2F.F ....|C-4 3F.F ....
....|..|--- .... ....|--- .... ....|--- .... ....
....|..|--- .... ....|C-2 2FF7 ....|--- .... ....
....|..|--- .... ....|--- .... ....|C-4 3F.A ....
....|..|--- .... ....|G-4 2F.7 ....|--- .... ....
....|..|--- .... ....|--- .... ....|--- .... ....
....|..|--- .... ....|C-4 2F.A ....|C-4 3F.7 ....
....|..|--- .... ....|--- .... ....|--- .... ....
....|..|--- .... ....|--- .... ....|--- .... ....
....|..|--- .... ....|--- .... ....|--- .... ....
....|..|--- .... ....|--- .... ....|--- .... ....
....|..|--- .... ....|--- .... ....|--- .... ....

[Pattern12]
..22|..|F-1 2A.F ....|F-1 2AFF ....|A-3 3F.F ....
....|..|--- .... ....|--- .... ....|--- .... ....
....|..|--- .... ....|C-4 2F.F ....|C-4 3F.F ....
....|..|--- .... ....|F-1 2FFA ....|A-3 3F.A ....
....|..|--- .... ....|B-3 2F.F ....|B-3 3F.F ....
....|..|--- .... ....|--- .... ....|C-4 3F.A ....
....|..|--- .... ....|C-4 2F.F ....|C-4 3F.F ....
....|..|--- .... ....|--- .... ....|B-3 3F.A ....
....|..|--- .... ....|C-4 2F.F ....|C-4 3F.F ....
....|..|--- .... ....|--- .... ....|C-4 3F.A ....
....|..|--- .... ....|C-4 2F.F ....|C-4 3F.F ....
....|..|--- .... ....|--- .... ....|C-4 3F.A ....
....|..|--- .... ....|D-4 2F.F ....|D-4 3F.F ....
....|..|--- .... ....|--- .... ....|C-4 3F.A ....
....|..|--- .... ....|C-4 2F.F ....|C-4 3F.F ....
....|..|--- .... ....|--- .... ....|D-4 3F.A ....
..1E|..|G-1 2A.F ....|G-1 2AFF ....|D-4 3F.F ....
....|..|--- .... ....|--- .... ....|C-4 3F.A ....
....|..|--- .... ....|C-4 2F.F ....|C-4 3F.F ....
....|..|--- .... ....|G-1 2FFA ....|D-4 3F.A ....
....|..|--- .... ....|D-4 2F.F ....|D-4 3F.F ....
....|..|--- .... ....|--- .... ....|C-4 3F.A ....
....|..|--- .... ....|C-4 2F.F ....|C-4 3F.F ....
....|..|--- .... ....|--- .... ....|D-4 3F.A ....
....|..|--- .... ....|E-4 2F.F ....|E-4 3F.F ....
....|..|--- .... ....|--- .... ....|C-4 3F.A ....
....|..|--- .... ....|C-4 2F.F ....|C-4 3F.F ....
....|..|--- .... ....|--- .... ....|E-4 3F.A ....
....|..|--- .... ....|D-4 2F.F ....|D-4 3F.F ....
....|..|--- .... ....|--- .... ....|C-4 3F.A ....
....|..|--- .... ....|E-4 2F.F ....|E-4 3F.F ....
....|..|--- .... ....|--- .... ....|D-4 3F.A ....
..1B|..|A-1 2A.F ....|A-1 2AFF ....|G-3 3F.F ....
....|..|--- .... ....|--- .... ....|E-4 3F.A ....
....|..|--- .... ....|B-3 2F.F ....|B-3 3F.F ....
....|..|--- .... ....|A-1 2FFA ....|G-3 3F.A ....
....|..|--- .... ....|C-4 2F.F ....|C-4 3F.F ....
....|..|--- .... ....|--- .... ....|B-3 3F.A ....
....|..|--- .... ....|G-3 2F.F ....|G-3 3F.F ....
....|..|--- .... ....|--- .... ....|C-4 3F.A ....
....|..|--- .... ....|C-4 2F.F ....|C-4 3F.F ....
....|..|--- .... ....|--- .... ....|G-3 3F.A ....
....|..|--- .... ....|G-3 2F.F ....|G-3 3F.F ....
....|..|--- .... ....|--- .... ....|C-4 3F.A ....
....|..|--- .... ....|F-3 2F.F ....|F-3 3F.F ....
....|..|--- .... ....|--- .... ....|G-3 3F.A ....
....|..|--- .... ....|E-3 2F.F ....|E-3 3F.F ....
....|..|--- .... ....|--- .... ....|F-3 3F.A ....
..16|..|C-2 2A.F ....|C-2 2AFF ....|D-3 3F.F ....
....|..|--- .... ....|--- .... ....|E-3 3F.A ....
....|..|--- .... ....|C-3 2F.F ....|C-3 3F.F ....
....|..|--- .... ....|C-2 2FFA ....|D-3 3F.A ....
....|..|--- .... ....|D-4 2F.F ....|D-4 3F.F ....
....|..|--- .... ....|--- .... ....|C-3 3F.A ....
....|..|--- .... ....|C-4 2F.F ....|C-4 3F.F ....
....|..|--- .... ....|--- .... ....|D-4 3F.A ....
....|..|--- .... ....|E-4 2F.F ....|E-4 3F.F ....
....|..|--- .... ....|--- .... ....|C-4 3F.A ....
....|..|--- .... ....|C-4 2F.F ....|C-4 3F.F ....
....|..|--- .... ....|--- .... ....|E-4 3F.A ....
....|..|--- .... ....|D-4 2F.F ....|D-4 3F.F ....
....|..|--- .... ....|--- .... ....|C-4 3F.A ....
....|..|--- .... ....|C-4 2F.F ....|C-4 3F.F ....
....|..|--- .... ....|--- .... ....|D-4 3F.A ....

[Pattern13]
..22|..|F-1 2A.F ....|F-1 2AFF ....|A-3 3F.F ....
....|..|--- .... ....|--- .... ....|C-4 3F.A ....
....|..|--- .... ....|C-4 2F.F ....|C-4 3F.F ....
....|..|--- .... ....|F-1 2FFA ....|A-3 3F.A ....
....|..|--- .... ....|B-3 2F.F ....|B-3 3F.F ....
....|..|--- .... ....|--- .... ....|C-4 3F.A ....
....|..|--- .... ....|C-4 2F.F ....|C-4 3F.F ....
....|..|--- .... ....|--- .... ....|B-3 3F.A ....
....|..|--- .... ....|C-4 2F.F ....|C-4 3F.F ....
....|..|--- .... ....|--- .... ....|C-4 3F.A ....
....|..|--- .... ....|C-4 2F.F ....|C-4 3F.F ....
....|..|--- .... ....|--- .... ....|C-4 3F.A ....
....|..|--- .... ....|D-4 2F.F ....|D-4 3F.F ....
....|..|--- .... ....|--- .... ....|C-4 3F.A ....
....|..|--- .... ....|C-4 2F.F ....|C-4 3F.F ....
....|..|--- .... ....|--- .... ....|D-4 3F.A ....
..1E|..|G-1 2A.F ....|G-1 2AFF ....|D-4 3F.F ....
....|..|--- .... ....|--- .... ....|C-4 3F.A ....
....|..|--- .... ....|C-4 2F.F ....|C-4 3F.F ....
....|..|--- .... ....|G-1 2FFA ....|D-4 3F.A ....
....|..|--- .... ....|D-4 2F.F ....|D-4 3F.F ....
....|..|--- .... ....|--- .... ....|C-4 3F.A ....
....|..|--- .... ....|C-4 2F.F ....|C-4 3F.F ....
....|..|--- .... ....|--- .... ....|D-4 3F.A ....
....|..|--- .... ....|E-4 2F.F ....|E-4 3F.F ....
....|..|--- .... ....|--- .... ....|C-4 3F.A ....
....|..|--- .... ....|C-4 2F.F ....|C-4 3F.F ....
....|..|--- .... ....|--- .... ....|E-4 3F.A ....
....|..|--- .... ....|D-4 2F.F ....|D-4 3F.F ....
....|..|--- .... ....|--- .... ....|C-4 3F.A ....
....|..|--- .... ....|E-4 2F.F ....|E-4 3F.F ....
....|..|--- .... ....|--- .... ....|D-4 3F.A ....
..1B|..|A-1 2A.F ....|A-1 2AFF ....|G-3 3F.F ....
....|..|--- .... ....|--- .... ....|E-4 3F.A ....
....|..|--- .... ....|B-3 2F.F ....|B-3 3F.F ....
....|..|--- .... ....|A-1 2FFA ....|G-3 3F.A ....
....|..|--- .... ....|C-4 2F.F ....|C-4 3F.F ....
....|..|--- .... ....|--- .... ....|B-3 3F.A ....
....|..|--- .... ....|G-3 2F.F ....|G-3 3F.F ....
....|..|--- .... ....|--- .... ....|C-4 3F.A ....
....|..|--- .... ....|C-4 2F.F ....|C-4 3F.F ....
....|..|--- .... ....|--- .... ....|G-3 3F.A ....
....|..|--- .... ....|G-3 2F.F ....|G-3 3F.F ....
....|..|--- .... ....|--- .... ....|C-4 3F.A ....
....|..|--- .... ....|F-3 2F.F ....|F-3 3F.F ....
....|..|--- .... ....|--- .... ....|G-3 3F.A ....
....|..|--- .... ....|E-3 2F.F ....|E-3 3F.F ....
....|..|--- .... ....|--- .... ....|F-3 3F.A ....
..16|..|C-2 2A.F ....|C-2 2AFF ....|D-3 3F.F ....
....|..|--- .... ....|--- .... ....|E-3 3F.A ....
....|..|--- .... ....|C-3 2F.F ....|C-3 3F.F ....
....|..|--- .... ....|C-2 2FFA ....|D-3 3F.A ....
....|..|--- .... ....|D-4 2F.F ....|D-4 3F.F ....
....|..|--- .... ....|--- .... ....|C-3 3F.A ....
....|..|--- .... ....|C-4 2F.F ....|C-4 3F.F ....
....|..|--- .... ....|--- .... ....|D-4 3F.A ....
....|..|--- .... ....|E-4 2F.F ....|E-4 3F.F ....
....|..|--- .... ....|--- .... ....|C-4 3F.A ....
....|..|--- .... ....|C-4 2F.F ....|C-4 3F.F ....
....|..|--- .... ....|--- .... ....|E-4 3F.A ....
....|..|--- .... ....|D-4 2F.F ....|D-4 3F.F ....
....|..|--- .... ....|--- .... ....|C-4 3F.A ....
....|..|--- .... ....|C-4 2F.F ....|C-4 3F.F ....
....|..|--- .... ....|--- .... ....|D-4 3F.A ....

[Pattern14]
....|..|R-- .... ....|D-4 2F.7 ....|C-4 3F.7 ....
....|..|--- .... ....|--- .... ....|C-4 3F.A ....
....|..|--- .... ....|C-4 2F.7 ....|D-4 3F.7 ....
....|..|--- .... ....|R-- .... ....|R-- .... ....
....|..|--- .... ....|E-4 2F.7 ....|C-4 3F.7 ....
....|..|--- .... ....|--- .... ....|--- .... ....

[Module]
VortexTrackerII=0
Version=3.5
Title=2meu,2meu[2f]-3pw[2]-4m+,3p[3]-4mw+
Author=oisee ^ 4d 29.05.2010
NoteTable=4
ChipFreq=1750000
Speed=4
PlayOrder=L1,1,3,3,3,3,6,7,7,7,7,7,7,7,7,7,7,7,18,19,20

[Ornament1]
L0,0,7,7

[Ornament2]
L0,0,12,12

[Ornament3]
L0

[Ornament4]
L0

[Ornament5]
L0

[Ornament6]
L0

[Ornament7]
L0

[Ornament8]
L0

[Ornament9]
L0

[Ornament10]
L0

[Ornament11]
L0

[Ornament12]
L0

[Ornament13]
L0

[Ornament14]
L12,12,0,0

[Ornament15]
L0

[Sample1]
TnE +000_ +00_ F_
TnE +000_ +00_ F_
TnE +000_ +00_ F_
TnE +000_ +00_ D_
TnE +000_ +00_ B_
TnE +000_ +00_ B_ L

[Sample2]
TnE +000_ +00_ F_ L

[Sample3]
TnE +001_ +00_ F_
TnE +002_ +00_ F_
TnE +001_ +00_ E_
TnE +002_ +00_ E_
TnE +000_ +00_ E_ L
TnE -001_ +00_ E_
TnE -002_ +00_ E_
TnE -001_ +00_ E_
TnE +000_ +00_ E_
TnE +001_ +00_ E_
TnE +002_ +00_ E_
TnE +001_ +00_ E_

[Sample4]
TnE +002_ +00_ D_
TnE +002_ +00_ D_
TnE +002_ +00_ C_
TnE +002_ +00_ B_
TnE +002_ +00_ A_ L
TnE +002_ +00_ A_
TnE +002_ +00_ A_
TnE +002_ +00_ A_
TnE +002_ +00_ A_
TnE +002_ +00_ A_
TnE +002_ +00_ A_
TnE +002_ +00_ A_

[Sample5]
TnE +000_ +00_ F_
TnE +000_ +00_ F_
tne +000_ +00_ 0_ L

[Sample6]
TnE -001_ +00_ F_ L

[Sample7]
TnE +006_ +00_ F_ L

[Sample8]
tNe +000_ +00_ F_
tNe +000_ +00_ B_
tNe +000_ +00_ 7_
tNe +000_ +00_ 6- L

[Sample9]
TnE +080_ +00_ F_
TnE +100_ +00_ E_
TnE +180_ +00_ E_
TnE +200_ +00_ E_
TnE +240_ +00_ D_
TnE +280_ +00_ D_
TnE +2C0_ +00_ D_
TnE +300_ +00_ C_
TnE +300_ +00_ C_
TnE +340_ +00_ C_
TnE +340_ +00_ C_
TnE +380_ +00_ B_
TnE +380_ +00_ B_
TnE +400_ +00_ B_
TnE +400_ +00_ B_
TnE +480_ +00_ A_
TnE +500_ +00_ 9_
TnE +580_ +00_ 7_
TnE +600_ +00_ 4_
TnE +680_ +00_ 1_
TnE +000_ +00_ 0_ L

[Sample10]
Tne +1C0_ +00_ F_
Tne +280_ +00_ E_
Tne +380_ +00_ C_
Tne +440_ +00_ A_
Tne +480_ +00_ 8_
TnE +000_ +00_ 0_ L

[Sample11]
TNe +200_ -0A_ F_
tNe +000_ +0F_ A_
TNe +200_ -07_ E_
tNe +000_ +0E_ B- L

[Sample12]
TNE +0A0_ +05_ F_
TNE +140_ +02_ D_
TNE +140_ +02_ B_
TNE +100_ +00_ A_ L
TNE +140_ +00_ A_
TNE +200_ +00_ A-

[Sample13]
Tne +200_ +00_ F_
Tne +2C0_ +00_ F_
Tne +380_ +00_ E_
Tne +500_ +00_ C_
Tne +520_ +00_ 9_
tne +000_ +00_ 0_ L

[Sample14]
TNE -100_ +00_ F_
TNE -100_ +00_ D_
TNE -100_ +00_ A_
TNE -100_ +00_ 5_
tne +000_ +00_ 0_ L

[Sample15]
TNE -100_ +00_ 5_
TNE -100_ +00_ 8_
TNE -100_ +00_ B_
TNE -100_ +00_ F_
TNe -100_ +00_ 9- L

[Sample16]
TnE +000_ +00_ C_
TnE +000_ +00_ E_
TnE +000_ +00_ F_
TnE +000_ +00_ F_
TnE +000_ +00_ E_
TnE +000_ +00_ D_
TnE +000_ +00_ C_
TnE +000_ +00_ C_ L
TnE +001_ +00_ C_
TnE +002_ +00_ C_
TnE +003_ +00_ C_
TnE +001_ +00_ C_
TnE +000_ +00_ C_
TnE -001_ +00_ C_
TnE -002_ +00_ C_
TnE -003_ +00_ C_
TnE -001_ +00_ C_
TnE +000_ +00_ C_
TnE +000_ +00_ C_

[Sample17]
Tne +1C0_ +00_ F_
Tne +280_ +00_ D_
Tne +380_ +00_ 7_
TNE +000_ +00_ 0_ L

[Sample18]
TnE -00C_ +00_ 0_ L

[Sample19]
TNe +000_ +00_ F_
TNe +000_ +00_ C_
TNe +000_ +00_ 6_
TNe +000_ +01_ A- L

[Sample20]
TNE +140_ +00_ F_
tNE +000_ +00_ B- L

[Sample21]
tNE +000_ +00_ D_
tNE +000_ +00_ 8_
tNE +000_ +00_ 1_
TNE +000_ +00_ 0_ L

[Sample22]
TnE +000_ +00_ D_ L
TnE +000_ +00_ D_
tne +000_ +00_ 9_
tne +000_ +00_ 9_
TnE +000_ +00_ D_
TnE +000_ +00_ D_
tne +000_ +00_ 9_
tne +000_ +00_ 9_
TnE +000_ +00_ D_
TnE +000_ +00_ D_
TnE +000_ +00_ D_
TnE +000_ +00_ D_
TnE +000_ +00_ D_
TnE +000_ +00_ D_
tne +000_ +00_ 9_
tne +000_ +00_ 9_

[Sample23]
TnE +000_ +00_ F_ L
TnE +010_ +01_ F_
TnE +010_ +01_ F_
TnE +010_ +01_ F_
TnE +010_ +01_ F_
TnE +000_ +00_ F_
TnE +000_ +00_ F_
TnE -010_ -01_ F_
TnE -010_ -01_ F_
TnE -010_ -01_ F_
TnE -010_ -01_ F_
TnE +000_ +00_ F_

[Sample24]
TNe +000_ -01_ C_
TNe +000_ -01_ D_
TNe +000_ -01_ E_
TNe +000_ -01_ F_
TNe +000_ -01_ F_
TNe +000_ -01_ F_
TNe +000_ -01_ F_
TNe +000_ -01_ F_
TNe +000_ -01_ E_
TNe +000_ -01_ E_
TNe +000_ -01_ E_
TNe +000_ -01_ F_
TNe +000_ -01_ F_ L

[Sample25]
TNE +000_ +00_ F_
TNE +000_ +00_ F_ L
TNE +000_ +00_ F_
TNE +000_ +00_ F_
TNE +000_ +00_ F-

[Sample26]
tne +000_ +00_ 0_ L

[Sample27]
TnE +100_ +05_ F_
TnE +200_ +02_ A_
TnE +300_ +02_ 7_
TNE +400_ +00_ 3- L

[Sample28]
tne +000_ +00_ 0_ L

[Sample29]
tnE +000_ +00_ 0_ L

[Sample30]
TNE +000_ +00_ C+ L

[Sample31]
TNe +1C0_ +00_ F_
Tne +280_ +00_ E_
Tne +380_ +00_ C_
Tne +440_ +00_ A_
Tne +480_ +00_ 8_
TnE +000_ +00_ 0_ L

[Pattern0]
....|..|--- .... ....|--- .... ....|--- .... ....
....|..|--- .... ....|B-4 2F.F ....|B-4 3F.F ....
....|..|--- .... ....|C-5 2F.F ....|C-5 3F.F ....
....|..|--- .... ....|--- .... ....|--- .... ....
....|..|--- .... ....|B-4 2F.F ....|B-4 3F.F ....
....|..|--- .... ....|--- .... ....|C-5 3F.A ....
....|..|--- .... ....|E-4 2F.F ....|E-4 3F.F ....
....|..|--- .... ....|E-4 2F1F ....|E-4 3F1F ....
....|..|--- .... ....|C-5 2F.F ....|C-5 3F.F ....
....|..|--- .... ....|--- .... ....|E-4 3F.A ....
....|..|--- .... ....|B-4 2F.F ....|B-4 3F.F ....
....|..|--- .... ....|--- .... ....|C-5 3F.A ....
....|..|--- .... ....|E-4 2F.F ....|E-4 3F.F ....
....|..|--- .... ....|E-4 2F1F ....|E-4 3F1F ....
....|..|--- .... ....|C-5 2F.F ....|C-5 3F.F ....
....|..|--- .... ....|--- .... ....|E-4 3F.A ....
....|..|--- .... ....|B-4 2F.F ....|B-4 3F.F ....
....|..|--- .... ....|--- .... ....|C-5 3F.A ....
....|..|--- .... ....|E-4 2F.F ....|E-4 3F.F ....
....|..|--- .... ....|E-4 2F1F ....|E-4 3F1F ....
....|..|--- .... ....|C-5 2F.F ....|C-5 3F.F ....
....|..|--- .... ....|--- .... ....|E-4 3F.A ....
....|..|--- .... ....|B-4 2F.F ....|B-4 3F.F ....
....|..|--- .... ....|--- .... ....|C-5 3F.A ....
....|..|--- .... ....|B-4 2F.F ....|B-4 3F.F ....
....|..|--- .... ....|C-5 2F.F ....|C-5 3F.F ....
....|..|--- .... ....|E-4 2F.F ....|E-4 3F.F ....
....|..|--- .... ....|G-4 2F.F ....|G-4 3F.F ....
....|..|--- .... ....|E-4 2F.F ....|E-4 3F.F ....
....|..|--- .... ....|B-4 2F.F ....|B-4 3F.F ....
....|..|--- .... ....|C-5 2F.F ....|C-5 3F.F ....
....|..|--- .... ....|E-4 2F17 ....|C-5 3F.7 ....
....|..|--- .... ....|C-5 2F.7 ....|E-4 3F.7 ....
....|..|--- .... ....|B-4 2F.F ....|B-4 3F.F ....
....|..|--- .... ....|C-5 2F.F ....|C-5 3F.F ....
....|..|--- .... ....|B-4 2F.A ....|B-4 3F.7 ....
....|..|--- .... ....|B-4 2F.F ....|B-4 3F.F ....
....|..|--- .... ....|C-5 2F.7 ....|C-5 3F.A ....
....|..|--- .... ....|E-4 2F.F ....|E-4 3F.F ....
....|..|--- .... ....|E-4 2F1F ....|E-4 3F1F ....
....|..|--- .... ....|C-5 2F.F ....|C-5 3F.F ....
....|..|--- .... ....|B-4 2F.7 ....|E-4 3F.A ....
....|..|--- .... ....|B-4 2F.F ....|B-4 3F.F ....
....|..|--- .... ....|--- .... ....|C-5 3F.A ....
....|..|--- .... ....|E-4 2F.F ....|E-4 3F.F ....
....|..|--- .... ....|E-4 2F1F ....|E-4 3F1F ....
....|..|--- .... ....|C-5 2F.F ....|C-5 3F.F ....
....|..|--- .... ....|--- .... ....|E-4 3F.A ....
....|..|--- .... ....|B-4 2F.F ....|B-4 3F.F ....
....|..|--- .... ....|--- .... ....|C-5 3F.A ....
....|..|--- .... ....|E-4 2F.F ....|E-4 3F.F ....
....|..|--- .... ....|E-4 2F1F ....|E-4 3F1F ....
....|..|--- .... ....|C-5 2F.F ....|C-5 3F.F ....
....|..|--- .... ....|--- .... ....|E-4 3F.A ....
....|..|--- .... ....|B-4 2F.F ....|B-4 3F.F ....
....|..|--- .... ....|--- .... ....|C-5 3F.A ....
....|..|--- .... ....|B-4 2F.F ....|B-4 3F.F ....
....|..|--- .... ....|C-5 2F.F ....|C-5 3F.F ....
....|..|--- .... ....|E-4 2F.F ....|E-4 3F.F ....
....|..|--- .... ....|G-4 2F.F ....|G-4 3F.F ....
....|..|--- .... ....|E-4 2F.F ....|E-4 3F.F ....
....|..|--- .... ....|G-4 2F.F ....|G-4 3F.F ....
....|..|--- .... ....|A-4 2F.F ....|A-4 3F.F ....
....|..|--- .... ....|E-4 2F17 ....|C-5 3F.7 ....

[Pattern1]
....|..|--- .... ....|C-5 2F.7 ....|E-4 3F.7 ....
....|..|--- .... ....|B-4 2F.F ....|B-4 3F.F ....
....|..|--- .... ....|C-5 2F.F ....|C-5 3F.F ....
....|..|--- .... ....|G-4 2F.A ....|G-4 3F.7 ....
....|..|--- .... ....|B-4 2F.F ....|B-4 3F.F ....
....|..|--- .... ....|C-5 2F.7 ....|C-5 3F.A ....
....|..|--- .... ....|E-4 2F.F ....|E-4 3F.F ....
....|..|--- .... ....|E-4 2F1F ....|E-4 3F1F ....
....|..|--- .... ....|C-5 2F.F ....|C-5 3F.F ....
....|..|--- .... ....|G-4 2F.7 ....|E-4 3F.A ....
....|..|--- .... ....|B-4 2F.F ....|B-4 3F.F ....
....|..|--- .... ....|--- .... ....|C-5 3F.A ....
....|..|--- .... ....|E-4 2F.F ....|E-4 3F.F ....
....|..|--- .... ....|E-4 2F1F ....|E-4 3F1F ....
....|..|--- .... ....|C-5 2F.F ....|C-5 3F.F ....
....|..|--- .... ....|--- .... ....|E-4 3F.A ....
....|..|--- .... ....|B-4 2F.F ....|B-4 3F.F ....
....|..|--- .... ....|--- .... ....|C-5 3F.A ....
....|..|--- .... ....|E-4 2F.F ....|E-4 3F.F ....
....|..|--- .... ....|E-4 2F1F ....|E-4 3F1F ....
....|..|--- .... ....|C-5 2F.F ....|C-5 3F.F ....
....|..|--- .... ....|--- .... ....|E-4 3F.A ....
....|..|--- .... ....|B-4 2F.F ....|B-4 3F.F ....
....|..|--- .... ....|--- .... ....|C-5 3F.A ....
....|..|--- .... ....|B-4 2F.F ....|B-4 3F.F ....
....|..|--- .... ....|C-5 2F.F ....|C-5 3F.F ....
....|..|--- .... ....|E-4 2F.F ....|E-4 3F.F ....
....|..|--- .... ....|G-4 2F.F ....|G-4 3F.F ....
....|..|--- .... ....|E-4 2F.F ....|E-4 3F.F ....
....|..|--- .... ....|B-4 2F.F ....|B-4 3F.F ....
....|..|--- .... ....|C-5 2F.F ....|C-5 3F.F ....
....|..|--- .... ....|E-4 2F17 ....|C-5 3F.7 ....
....|..|--- .... ....|C-5 2F.7 ....|E-4 3F.7 ....
....|..|--- .... ....|B-4 2F.F ....|B-4 3F.F ....
....|..|--- .... ....|C-5 2F.F ....|C-5 3F.F ....
....|..|--- .... ....|B-4 2F.A ....|B-4 3F.7 ....
....|..|--- .... ....|B-4 2F.F ....|B-4 3F.F ....
....|..|--- .... ....|C-5 2F.7 ....|C-5 3F.A ....
....|..|--- .... ....|E-4 2F.F ....|E-4 3F.F ....
....|..|--- .... ....|E-4 2F1F ....|E-4 3F1F ....
....|..|--- .... ....|C-5 2F.F ....|C-5 3F.F ....
....|..|--- .... ....|B-4 2F.7 ....|E-4 3F.A ....
....|..|--- .... ....|B-4 2F.F ....|B-4 3F.F ....
....|..|--- .... ....|--- .... ....|C-5 3F.A ....
....|..|--- .... ....|E-4 2F.F ....|E-4 3F.F ....
....|..|--- .... ....|E-4 2F1F ....|E-4 3F1F ....
....|..|--- .... ....|C-5 2F.F ....|C-5 3F.F ....
....|..|--- .... ....|--- .... ....|E-4 3F.A ....
....|..|--- .... ....|B-4 2F.F ....|B-4 3F.F ....
....|..|--- .... ....|--- .... ....|C-5 3F.A ....
....|..|--- .... ....|E-4 2F.F ....|E-4 3F.F ....
....|..|--- .... ....|E-4 2F1F ....|E-4 3F1F ....
....|..|--- .... ....|C-5 2F.F ....|C-5 3F.F ....
....|..|--- .... ....|--- .... ....|E-4 3F.A ....
....|..|--- .... ....|B-4 2F.F ....|B-4 3F.F ....
....|..|--- .... ....|--- .... ....|C-5 3F.A ....
....|..|--- .... ....|B-4 2F.F ....|B-4 3F.F ....
....|..|--- .... ....|C-5 2F.F ....|C-5 3F.F ....
....|..|--- .... ....|E-4 2F.F ....|E-4 3F.F ....
....|..|--- .... ....|G-4 2F.F ....|G-4 3F.F ....
....|..|--- .... ....|E-4 2F.F ....|E-4 3F.F ....
....|..|--- .... ....|G-4 2F.F ....|G-4 3F.F ....
....|..|--- .... ....|A-4 2F.F ....|A-4 3F.F ....
....|..|--- .... ....|E-4 2F17 ....|C-5 3F.7 ....

[Pattern2]
..1B|..|A-2 2C.F ....|A-2 2CFF ....|A-2 3F2F ....
....|..|--- .... ....|A-2 2F2F ....|G-4 3F.7 ....
....|..|--- .... ....|R-- .... ....|R-- .... ....
....|..|--- .... ....|G-4 2F.A ....|G-4 3F.7 ....
....|..|--- .... ....|A-4 2F.F ....|A-4 3F.F ....
....|..|--- .... ....|R-- .... ....|R-- .... ....
....|..|--- .... ....|E-4 2F.7 ....|A-2 2F.A ....
....|..|--- .... ....|A-3 2F.A ....|A-4 3F.A ....
..1B|..|A-2 2C.F ....|A-2 2CFF ....|A-2 3F2F ....
....|..|--- .... ....|A-2 2F2F ....|R-- .... ....
....|..|--- .... ....|G-4 2F.7 ....|A-3 2F.A ....
....|..|--- .... ....|A-2 2F.A ....|A-2 3F2A ....
....|..|--- .... ....|B-4 2F.F ....|B-4 3F.F ....
....|..|--- .... ....|R-- .... ....|R-- .... ....
....|..|--- .... ....|A-2 2F2A ....|A-2 2F.A ....
....|..|--- .... ....|B-3 2F.A ....|B-4 3F.A ....
..3C|..|G-2 2C.F ....|G-2 2CFF ....|G-2 3F.F ....
....|..|--- .... ....|G-2 2F.F ....|R-- .... ....
....|..|--- .... ....|B-4 2F.A ....|B-3 2F.A ....
....|..|--- .... ....|G-3 2F.A ....|G-2 3F.A ....
....|..|--- .... ....|D-5 2F.F ....|D-5 3F.F ....
....|..|--- .... ....|R-- .... ....|R-- .... ....
....|..|--- .... ....|G-2 2F.A ....|G-3 2F.A ....
....|..|--- .... ....|D-4 2F.A ....|D-5 3F.A ....
....|..|R-- .... ....|D-5 2F.F ....|D-5 3F.F ....
....|..|--- .... ....|R-- .... ....|R-- .... ....
....|..|--- .... ....|C-5 2F.F ....|C-5 3F.F ....
....|..|--- .... ....|D-4 2F.A ....|D-5 3F.A ....
....|..|--- .... ....|B-4 2F.F ....|B-4 3F.F ....
....|..|--- .... ....|C-4 2F.A ....|C-5 3F.A ....
....|..|--- .... ....|A-4 2F.F ....|A-4 3F.F ....
....|..|--- .... ....|B-3 2F.A ....|B-4 3F.A ....
..16|..|C-3 2C.F ....|C-3 2CFF ....|C-3 3F.F ....
....|..|--- .... ....|C-3 2F.F ....|A-4 3F.A ....
....|..|--- .... ....|B-4 2F.A ....|B-3 2F.A ....
....|..|--- .... ....|C-4 2F.A ....|C-3 3F.A ....
....|..|--- .... ....|G-4 2F.F ....|G-4 3F.F ....
....|..|--- .... ....|R-- .... ....|R-- .... ....
....|..|--- .... ....|C-5 2F.7 ....|C-3 3F.7 ....
....|..|--- .... ....|G-3 2F.A ....|G-4 3F.A ....
..16|..|C-3 2C.F ....|C-3 2CFF ....|C-3 3F.F ....
....|..|--- .... ....|C-3 2F.F ....|R-- .... ....
....|..|--- .... ....|A-4 2F.7 ....|G-4 3F.7 ....
....|..|--- .... ....|C-4 2F.A ....|C-3 3F.A ....
....|..|--- .... ....|A-4 2F.F ....|A-4 3F.F ....
....|..|--- .... ....|R-- .... ....|R-- .... ....
....|..|--- .... ....|C-3 2F.A ....|C-4 2F.A ....
....|..|--- .... ....|A-3 2F.A ....|A-4 3F.A ....
..16|..|C-3 2C.F ....|C-3 2CFF ....|C-3 3F.F ....
....|..|--- .... ....|C-3 2F.F ....|R-- .... ....
....|..|--- .... ....|A-4 2F.A ....|A-3 2F.A ....
....|..|--- .... ....|C-4 2F.A ....|C-3 3F.A ....
....|..|--- .... ....|C-5 2F.F ....|C-5 3F.F ....
....|..|--- .... ....|R-- .... ....|R-- .... ....
....|..|--- .... ....|C-3 2F.A ....|C-4 2F.A ....
....|..|--- .... ....|C-4 2F.A ....|C-5 3F.A ....
....|..|R-- .... ....|B-4 2F.F ....|B-4 3F.F ....
....|..|--- .... ....|R-- .... ....|R-- .... ....
....|..|--- .... ....|A-4 2F.F ....|A-4 3F.F ....
....|..|--- .... ....|B-3 2F.A ....|B-4 3F.A ....
....|..|--- .... ....|G-4 2F.F ....|G-4 3F.F ....
....|..|--- .... ....|A-3 2F.A ....|A-4 3F.A ....
....|..|--- .... ....|A-4 2F.F ....|A-4 3F.F ....
....|..|--- .... ....|G-3 2F.A ....|G-4 3F.A ....

[Pattern3]
..36|..|A-1 2C.F ....|A-2 2CFF ....|A-2 3F2F ....
....|..|--- .... ....|A-2 2F2F ....|A-4 3F.A ....
....|..|--- .... ....|G-4 2F.A ....|G-3 2F.A ....
....|..|--- .... ....|A-2 2F.A ....|A-2 3F2A ....
....|..|--- .... ....|A-4 2F.F ....|A-4 3F.F ....
....|..|--- .... ....|R-- .... ....|R-- .... ....
.2AB|..|A-3 28.. ....|A-4 2F.7 ....|A-2 3F27 ....
....|..|--- .... ....|A-3 2F.A ....|A-4 3F.A ....
..1B|..|A-2 2C.F ....|A-2 2CFF ....|A-2 3F2F ....
....|..|--- .... ....|A-2 2F2F ....|R-- .... ....
....|..|--- .... ....|A-4 2F.7 ....|A-4 3F.7 ....
....|..|--- .... ....|A-2 2F.A ....|A-2 3F2A ....
..50|..|A-2 .C.. ....|B-4 2F.F ....|B-4 3F.F ....
....|..|--- .... ....|R-- .... ....|R-- .... ....
..6C|..|A-1 .C.. ....|A-2 2F2A ....|A-2 2F.A ....
....|..|--- .... ....|B-3 2F.A ....|B-4 3F.A ....
..3C|..|G-2 2C.F ....|G-2 2CFF ....|G-2 3F.F ....
....|..|--- .... ....|G-2 2F.F ....|R-- .... ....
....|..|--- .... ....|B-4 2F.A ....|B-3 2F.A ....
....|..|--- .... ....|G-3 2F.A ....|G-2 3F.A ....
....|..|--- .... ....|D-5 2F.F ....|D-5 3F.F ....
....|..|--- .... ....|R-- .... ....|R-- .... ....
....|..|--- .... ....|G-2 2F.A ....|G-3 2F.A ....
....|..|--- .... ....|D-4 2F.A ....|D-5 3F.A ....
.413|..|G-1 .8.. 11.2|D-5 2F.F ....|D-5 3F.F ....
....|..|--- .... 1...|R-- .... ....|R-- .... ....
....|..|--- .... ....|C-5 2F.F ....|C-5 3F.F ....
....|..|--- .... ....|D-4 2F.A ....|D-5 3F.A ....
....|..|--- .... ....|B-4 2F.F ....|B-4 3F.F ....
....|..|--- .... ....|C-4 2F.A ....|C-5 3F.A ....
.43D|..|G-2 .8.. 21.1|A-4 2F.F ....|A-4 3F.F ....
....|..|--- .... ....|B-3 2F.A ....|B-4 3F.A ....
..5A|..|C-1 2A.F ....|C-3 2CFF ....|C-3 3F.F ....
....|..|--- .... ....|C-3 2F.F ....|A-4 3F.A ....
....|..|--- .... ....|B-4 2F.A ....|B-3 2F.A ....
....|..|--- .... ....|C-4 2F.A ....|C-3 3F.A ....
....|..|C-2 .... ....|G-4 2F.F ....|G-4 3F.F ....
....|..|--- .... ....|R-- .... ....|R-- .... ....
....|..|--- .... ....|C-5 2F.7 ....|C-3 3F.7 ....
....|..|--- .... ....|G-3 2F.A ....|G-4 3F.A ....
..2D|..|C-3 2C.F ....|C-3 2CFF ....|C-3 3F.F ....
....|..|--- .... ....|C-3 2F.F ....|R-- .... ....
..5A|..|C-1 .A.. 11.6|A-4 2F.7 ....|G-4 3F.7 ....
....|..|--- .... ....|C-4 2F.A ....|C-3 3F.A ....
....|..|--- .... 1...|A-4 2F.F ....|A-4 3F.F ....
....|..|--- .... ....|R-- .... ....|R-- .... ....
....|..|--- .... ....|C-3 2F.A ....|C-4 2F.A ....
....|..|--- .... ....|A-3 2F.A ....|A-4 3F.A ....
..2D|..|C-3 2C.F 11.1|C-3 2CFF ....|C-3 3F.F ....
....|..|--- .... 1...|C-3 2F.F ....|R-- .... ....
....|..|--- .... ....|A-4 2F.A ....|A-3 2F.A ....
....|..|--- .... ....|C-4 2F.A ....|C-3 3F.A ....
....|..|--- .... ....|C-5 2F.F ....|C-5 3F.F ....
....|..|--- .... ....|R-- .... ....|R-- .... ....
....|..|--- .... ....|C-3 2F.A ....|C-4 2F.A ....
....|..|--- .... ....|C-4 2F.A ....|C-5 3F.A ....
..5A|..|C-1 .C.. 11.3|B-4 2F.F ....|B-4 3F.F ....
....|..|--- .... ....|R-- .... ....|R-- .... ....
....|..|--- .... 1...|A-4 2F.F ....|A-4 3F.F ....
....|..|--- .... ....|B-3 2F.A ....|B-4 3F.A ....
.45C|..|C-2 .C.. ....|G-4 2F.F ....|G-4 3F.F ....
....|..|--- .... ....|A-3 2F.A ....|A-4 3F.A ....
....|..|--- .... ....|A-4 2F.F ....|A-4 3F.F ....
....|..|--- .... ....|G-3 2F.A ....|G-4 3F.A ....

[Pattern6]
..1B|..|A-1 2A.F ....|A-2 9FFF ....|C-4 3F.F ....
....|..|--- .... ....|C-4 2F.F ....|A-4 3F.A ....
.200|..|A-2 .9.. ....|G-4 2F.A ....|G-3 2F.A ....
....|..|--- .... ....|R-- .... ....|C-4 3F.A ....
.2AB|..|A-1 .EE. ....|A-3 KF.F ....|A-4 3F.7 ....
....|..|--- .... ....|--- .... ....|--- .... ....
....|..|--- .... ....|A-4 2F.7 ....|C-4 3F.7 ....
....|..|--- .... ....|A-3 K..F ....|--- .... ....
..1B|..|A-1 2A.F ....|G-4 2F.7 ....|G-3 2F.7 ....
....|..|--- .... ....|--- .... ....|--- .... ....
.200|..|A-2 .9.. ....|A-3 AF.F ....|A-3 2F.7 ....
....|..|--- .... ....|--- .... ....|--- .... ....
.2AB|..|A-1 .EE. ....|D-4 2F.F ....|D-4 3F.F ....
....|..|--- .... ....|--- .... ....|--- .... ....
....|..|--- .... ....|--- .... ....|--- .... ....
....|..|--- .... ....|--- .... ....|D-4 3F.A ....
..2D|..|C-2 2A.F ....|C-5 OFFF ....|E-4 3F.F ....
....|..|--- .... ....|A-4 KF.A ....|--- .... ....
....|..|--- .... ....|D-4 2F.A ....|D-4 3F.7 ....
....|..|--- .... ....|--- .... ....|E-4 3F.A ....
.156|..|C-6 .9.. ....|--- .... ....|--- .... ....
.156|..|C-5 .9.. ....|--- .... ....|--- .... ....
.156|..|C-4 .9.. ....|A-4 9F.F ....|E-4 3F.7 ....
.156|..|C-3 .9.. ....|--- .... ....|--- .... ....
.557|..|C-2 .A.. ....|G-4 2F.F ....|G-4 3F.F ....
....|..|--- .... ....|A-3 9F.E ....|--- .... ....
....|..|--- .... ....|--- .... ....|--- .... ....
....|..|--- .... ....|--- .... ....|G-4 3F.A ....
....|..|--- .... ....|A-2 9F.D ....|--- .... ....
....|..|--- .... ....|--- .... ....|--- .... ....
....|..|--- .... ....|G-4 2F.A ....|G-4 3F.7 ....
....|..|--- .... ....|--- .... ....|--- .... ....
..22|..|F-1 2A.F ....|A-2 9FFF ....|C-4 3F.F ....
....|..|--- .... ....|C-4 2F.F ....|--- .... ....
....|..|--- .... ....|--- .... ....|--- .... ....
....|..|--- .... ....|--- .... ....|C-4 3F.A ....
.19A|..|F-5 .9.. ....|A-3 KF.F ....|--- .... ....
....|..|F-1 .F.. ....|--- .... ....|--- .... ....
....|..|F-1 .... ....|C-4 2F.A ....|C-4 3F.7 ....
.156|..|F-5 .9.. ....|A-3 B..D ....|--- .... ....
....|..|F-1 .F.. ....|--- .... ....|--- .... ....
....|..|F-1 .F.. ....|--- .... ....|--- .... ....
.2AB|..|F-5 .9.. ....|A-3 B..C ....|--- .... ....
....|..|--- .... ....|--- .... ....|--- .... ....
..22|..|F-3 .C.. ....|C-4 2F.7 ....|--- .... ....
....|..|--- .... ....|--- .... ....|--- .... ....
....|..|--- .... ....|--- .... ....|--- .... ....
....|..|--- .... ....|--- .... ....|--- .... ....
..44|..|F-1 .C.. ....|F-3 A..D ....|--- .... ....
....|..|--- .... ....|--- .... ....|--- .... ....
....|..|--- .... ....|F-3 A... ....|--- .... ....
....|..|--- .... ....|F-3 K... ....|--- .... ....
....|..|--- .... ....|F-3 A... ....|--- .... ....
....|..|--- .... ....|--- .... ....|--- .... ....
....|..|--- .... ....|F-3 F... ....|R-- .... ....
....|..|--- .... ....|--- .... ....|--- .... ....
.401|..|E-4 .9.. ....|E-4 AF.F ....|E-4 3F.F ....
..24|..|E-2 .A.. ....|--- .... ....|R-- .... ....
....|..|--- .... ....|D-4 2F.F ....|D-4 3F.F ....
.401|..|E-4 .9.. ....|--- .... ....|E-4 3F.A ....
..24|..|E-2 .A.. ....|C-4 2F.F ....|C-4 3F.F ....
....|..|--- .... ....|--- .... ....|D-4 3F.A ....
.156|..|E-4 .9.. ....|B-3 2F.F ....|B-3 3F.F ....
..90|..|E-1 .C.. ....|--- .... ....|C-4 3F.A ....

[Pattern7]
..14|..|D-3 2A.F ....|A-1 2AFF ....|C-4 3F.F ....
....|..|--- .... ....|C-4 2F.F ....|B-3 3F.A ....
....|..|--- .... ....|C-4 2F.A ....|C-4 3F.7 ....
....|..|--- .... ....|--- .... ....|C-4 3F.A ....
..28|..|D-2 .EE. ....|E-4 2F.7 ....|B-3 3F.7 ....
....|..|--- .... ....|--- .... ....|--- .... ....
....|..|--- .... ....|D-4 2F.7 ....|C-4 3F.7 ....
....|..|--- .... ....|--- .... ....|--- .... ....
....|..|--- .... ....|C-4 2F.7 ....|--- .... ....
....|..|--- .... ....|--- .... ....|--- .... ....
....|..|--- .... ....|B-3 2F.7 ....|--- .... ....
....|..|--- .... ....|--- .... ....|--- .... ....
....|..|--- .... ....|D-4 2F.F ....|D-4 3F.F ....
..50|..|D-1 .A.. ....|A-1 2A.. ....|--- .... ....
....|..|--- .... ....|--- .... ....|--- .... ....
....|..|--- .... ....|--- .... ....|D-4 3F.A ....
..2D|..|C-2 2A.F ....|C-2 2AFF ....|E-4 3F.F ....
....|..|--- .... ....|E-4 2F.F ....|--- .... ....
....|..|--- .... ....|D-4 2F.A ....|D-4 3F.7 ....
....|..|--- .... ....|--- .... ....|E-4 3F.A ....
.156|..|C-6 .9.. ....|--- .... ....|--- .... ....
.156|..|C-5 .9.. ....|--- .... ....|--- .... ....
.156|..|C-4 .9.. ....|E-4 2F.A ....|E-4 3F.7 ....
.156|..|C-3 .9.. ....|--- .... ....|--- .... ....
.557|..|C-2 .A.. ....|G-4 2F.F ....|G-4 3F.F ....
....|..|--- .... ....|--- .... ....|--- .... ....
....|..|--- .... ....|--- .... ....|--- .... ....
....|..|--- .... ....|--- .... ....|G-4 3F.A ....
....|..|--- .... ....|E-4 2F.7 ....|--- .... ....
....|..|--- .... ....|--- .... ....|--- .... ....
....|..|--- .... ....|G-4 2F.A ....|G-4 3F.7 ....
....|..|--- .... ....|--- .... ....|--- .... ....
..22|..|F-1 2A.F ....|F-1 2AFF ....|C-4 3F.F ....
....|..|--- .... ....|C-4 2F.F ....|--- .... ....
....|..|--- .... ....|--- .... ....|--- .... ....
....|..|--- .... ....|--- .... ....|C-4 3F.A ....
.19A|..|F-5 .9.. ....|G-4 2F.7 ....|--- .... ....
....|..|F-1 .F.. ....|--- .... ....|--- .... ....
....|..|F-1 .... ....|C-4 2F.A ....|C-4 3F.7 ....
.156|..|F-5 .9.. ....|--- .... ....|--- .... ....
....|..|F-1 .F.. ....|--- .... ....|--- .... ....
....|..|F-1 .F.. ....|--- .... ....|--- .... ....
.2AB|..|F-5 .9.. ....|--- .... ....|--- .... ....
....|..|--- .... ....|--- .... ....|--- .... ....
..22|..|F-3 .C.. ....|C-4 2F.7 ....|--- .... ....
....|..|--- .... ....|--- .... ....|--- .... ....
....|..|--- .... ....|--- .... ....|--- .... ....
....|..|--- .... ....|--- .... ....|--- .... ....
..44|..|F-1 .C.. ....|F-1 .C.. 21.2|--- .... ....
....|..|--- .... ....|--- .... 2...|--- .... ....
....|..|--- .... ....|--- .... ....|--- .... ....
....|..|--- .... ....|--- .... ....|--- .... ....
....|..|--- .... ....|--- .... ....|--- .... ....
....|..|--- .... ....|--- .... ....|--- .... ....
....|..|--- .... ....|R-- .... ....|R-- .... ....
....|..|--- .... ....|--- .... ....|--- .... ....
.401|..|E-4 .9.. ....|E-4 2F.F ....|E-4 3F.F ....
..24|..|E-2 .A.. ....|--- .... ....|R-- .... ....
....|..|--- .... ....|D-4 2F.F ....|D-4 3F.F ....
.401|..|E-4 .9.. ....|--- .... ....|E-4 3F.A ....
..24|..|E-2 .A.. ....|C-4 2F.F ....|C-4 3F.F ....
....|..|--- .... ....|--- .... ....|D-4 3F.A ....
.156|..|E-2 .A.. ....|B-3 2F.F ....|B-3 3F.F ....
....|..|--- .... ....|--- .... ....|C-4 3F.A ....

[Pattern18]
....|..|R-- .... ....|D-4 2F.A ....|D-4 3F.7 ....
....|..|--- .... ....|--- .... ....|B-3 3F.A ....
....|..|--- .... ....|C-4 2F.A ....|C-4 3F.7 ....
....|..|--- .... ....|--- .... ....|R-- .... ....
....|..|--- .... ....|E-4 2F.7 ....|B-3 3F.7 ....
....|..|--- .... ....|--- .... ....|--- .... ....
....|..|--- .... ....|D-4 2F.7 ....|R-- .... ....
....|..|--- .... ....|--- .... ....|--- .... ....
....|..|--- .... ....|C-4 2F.7 ....|--- .... ....
....|..|--- .... ....|--- .... ....|--- .... ....
....|..|--- .... ....|B-3 2F.7 ....|--- .... ....
....|..|--- .... ....|--- .... ....|--- .... ....
....|..|--- .... ....|R-- .... ....|--- .... ....
....|..|--- .... ....|--- .... ....|--- .... ....
....|..|--- .... ....|--- .... ....|--- .... ....
....|..|--- .... ....|--- .... ....|--- .... ....
....|..|--- .... ....|--- .... ....|--- .... ....
....|..|--- .... ....|--- .... ....|--- .... ....
....|..|--- .... ....|--- .... ....|--- .... ....
....|..|--- .... ....|--- .... ....|--- .... ....
....|..|--- .... ....|--- .... ....|--- .... ....
....|..|--- .... ....|--- .... ....|--- .... ....
....|..|--- .... ....|--- .... ....|--- .... ....
....|..|--- .... ....|--- .... ....|--- .... ....
....|..|--- .... ....|--- .... ....|--- .... ....
....|..|--- .... ....|--- .... ....|--- .... ....
....|..|--- .... ....|--- .... ....|--- .... ....
....|..|--- .... ....|--- .... ....|--- .... ....
....|..|--- .... ....|--- .... ....|--- .... ....
....|..|--- .... ....|--- .... ....|--- .... ....
....|..|--- .... ....|--- .... ....|--- .... ....
....|..|--- .... ....|--- .... ....|--- .... ....
....|..|--- .... ....|--- .... ....|--- .... ....
....|..|--- .... ....|--- .... ....|--- .... ....
....|..|--- .... ....|--- .... ....|--- .... ....
....|..|--- .... ....|--- .... ....|--- .... ....
....|..|--- .... ....|--- .... ....|--- .... ....
....|..|--- .... ....|--- .... ....|--- .... ....
....|..|--- .... ....|--- .... ....|--- .... ....
....|..|--- .... ....|--- .... ....|--- .... ....
....|..|--- .... ....|--- .... ....|--- .... ....
....|..|--- .... ....|--- .... ....|--- .... ....
....|..|--- .... ....|--- .... ....|--- .... ....
....|..|--- .... ....|--- .... ....|--- .... ....
....|..|--- .... ....|--- .... ....|--- .... ....
....|..|--- .... ....|--- .... ....|--- .... ....
....|..|--- .... ....|--- .... ....|--- .... ....
....|..|--- .... ....|--- .... ....|--- .... ....
....|..|--- .... ....|--- .... ....|--- .... ....
....|..|--- .... ....|--- .... ....|--- .... ....
....|..|--- .... ....|--- .... ....|--- .... ....
....|..|--- .... ....|--- .... ....|--- .... ....
....|..|--- .... ....|--- .... ....|--- .... ....
....|..|--- .... ....|--- .... ....|--- .... ....
....|..|--- .... ....|--- .... ....|--- .... ....
....|..|--- .... ....|--- .... ....|--- .... ....
....|..|--- .... ....|--- .... ....|--- .... ....
....|..|--- .... ....|--- .... ....|--- .... ....
....|..|--- .... ....|--- .... ....|--- .... ....
....|..|--- .... ....|--- .... ....|--- .... ....
....|..|--- .... ....|--- .... ....|--- .... ....
....|..|--- .... ....|--- .... ....|--- .... ....
....|..|--- .... ....|--- .... ....|--- .... ....
....|..|--- .... ....|--- .... ....|--- .... ....

[Pattern19]
....|..|--- .... ....|--- .... ....|--- .... ....
....|..|--- .... ....|--- .... ....|--- .... ....
....|..|--- .... ....|--- .... ....|--- .... ....
....|..|--- .... ....|--- .... ....|--- .... ....
....|..|--- .... ....|--- .... ....|--- .... ....
....|..|--- .... ....|--- .... ....|--- .... ....
....|..|--- .... ....|--- .... ....|--- .... ....
....|..|--- .... ....|--- .... ....|--- .... ....
....|..|--- .... ....|--- .... ....|--- .... ....
....|..|--- .... ....|--- .... ....|--- .... ....
....|..|--- .... ....|--- .... ....|--- .... ....
....|..|--- .... ....|--- .... ....|--- .... ....
....|..|--- .... ....|--- .... ....|--- .... ....
....|..|--- .... ....|--- .... ....|--- .... ....
....|..|--- .... ....|--- .... ....|--- .... ....
....|..|--- .... ....|--- .... ....|--- .... ....
....|..|--- .... ....|--- .... ....|--- .... ....
....|..|--- .... ....|--- .... ....|--- .... ....
....|..|--- .... ....|--- .... ....|--- .... ....
....|..|--- .... ....|--- .... ....|--- .... ....
....|..|--- .... ....|--- .... ....|--- .... ....
....|..|--- .... ....|--- .... ....|--- .... ....
....|..|--- .... ....|--- .... ....|--- .... ....
....|..|--- .... ....|--- .... ....|--- .... ....
....|..|--- .... ....|--- .... ....|--- .... ....
....|..|--- .... ....|--- .... ....|--- .... ....
....|..|--- .... ....|--- .... ....|--- .... ....
....|..|--- .... ....|--- .... ....|--- .... ....
....|..|--- .... ....|--- .... ....|--- .... ....
....|..|--- .... ....|--- .... ....|--- .... ....
....|..|--- .... ....|--- .... ....|--- .... ....
....|..|--- .... ....|--- .... ....|--- .... ....
....|..|--- .... ....|--- .... ....|--- .... ....
....|..|--- .... ....|--- .... ....|--- .... ....
....|..|--- .... ....|--- .... ....|--- .... ....
....|..|--- .... ....|--- .... ....|--- .... ....
....|..|--- .... ....|--- .... ....|--- .... ....
....|..|--- .... ....|--- .... ....|--- .... ....
....|..|--- .... ....|--- .... ....|--- .... ....
....|..|--- .... ....|--- .... ....|--- .... ....
....|..|--- .... ....|--- .... ....|--- .... ....
....|..|--- .... ....|--- .... ....|--- .... ....
....|..|--- .... ....|--- .... ....|--- .... ....
....|..|--- .... ....|--- .... ....|--- .... ....
....|..|--- .... ....|--- .... ....|--- .... ....
....|..|--- .... ....|--- .... ....|--- .... ....
....|..|--- .... ....|--- .... ....|--- .... ....
....|..|--- .... ....|--- .... ....|--- .... ....
....|..|--- .... ....|--- .... ....|--- .... ....
....|..|--- .... ....|--- .... ....|--- .... ....
....|..|--- .... ....|--- .... ....|--- .... ....
....|..|--- .... ....|--- .... ....|--- .... ....
....|..|--- .... ....|--- .... ....|--- .... ....
....|..|--- .... ....|--- .... ....|--- .... ....
....|..|--- .... ....|--- .... ....|--- .... ....
....|..|--- .... ....|--- .... ....|--- .... ....
....|..|--- .... ....|--- .... ....|--- .... ....
....|..|--- .... ....|--- .... ....|--- .... ....
....|..|--- .... ....|--- .... ....|--- .... ....
....|..|--- .... ....|--- .... ....|--- .... ....
....|..|--- .... ....|--- .... ....|--- .... ....
....|..|--- .... ....|--- .... ....|--- .... ....
....|..|--- .... ....|--- .... ....|--- .... ....
....|..|--- .... ....|--- .... ....|--- .... ....

[Pattern20]
....|..|--- .... ....|--- .... ....|--- .... ....
....|..|--- .... ....|--- .... ....|--- .... ....
....|..|--- .... ....|--- .... ....|--- .... ....
....|..|--- .... ....|--- .... ....|--- .... ....
....|..|--- .... ....|--- .... ....|--- .... ....
....|..|--- .... ....|--- .... ....|--- .... ....
....|..|--- .... ....|--- .... ....|--- .... ....

