[Module]
VortexTrackerII=0
Version=3.5
Title=swoon by chemical brothers
Author=oisee ^ 4d 29.05.2010
NoteTable=4
ChipFreq=1750000
Speed=4
PlayOrder=0,L1,2,3,4,5,6,7,8,9,10,11,12,13,14,15,16,1,8,16,16,17,17,9,9,12,13,12,13,14,15,11,11,16,16,17,17,12,13,19,20,21,23,24,25,26,27

[Ornament1]
L0

[Ornament2]
L7,7,2,2,0,0

[Ornament3]
7,L4,0,0,4,7

[Ornament4]
7,L4,0,0,4,7

[Ornament5]
8,L5,0,0,5,8

[Ornament6]
L6,6,3,3,0,0

[Ornament7]
L0,3,7

[Ornament8]
L0,4,7

[Ornament9]
L0

[Ornament10]
L0,0,12,12,0,0,12,12

[Ornament11]
L0

[Ornament12]
L0

[Ornament13]
1,L0

[Ornament14]
L0

[Ornament15]
L0

[Sample1]
TnE +000_ +00_ F_
TnE +000_ +00_ F_
TnE +000_ +00_ F_
TnE +000_ +00_ D_
TnE +000_ +00_ B_
TnE +000_ +00_ B_ L

[Sample2]
TnE +000_ +00_ F_ L

[Sample3]
TnE +001_ +00_ F_
TnE +002_ +00_ F_
TnE +001_ +00_ E_
TnE +002_ +00_ E_
TnE +000_ +00_ E_ L
TnE -001_ +00_ E_
TnE -002_ +00_ E_
TnE -001_ +00_ E_
TnE +000_ +00_ E_
TnE +001_ +00_ E_
TnE +002_ +00_ E_
TnE +001_ +00_ E_

[Sample4]
TnE +002_ +00_ D_
TnE +002_ +00_ D_
TnE +002_ +00_ C_
TnE +002_ +00_ B_
TnE +002_ +00_ A_ L
TnE +002_ +00_ A_
TnE +002_ +00_ A_
TnE +002_ +00_ A_
TnE +002_ +00_ A_
TnE +002_ +00_ A_
TnE +002_ +00_ A_
TnE +002_ +00_ A_

[Sample5]
TnE +000_ +00_ F_
TnE +000_ +00_ F_
tne +000_ +00_ 0_ L

[Sample6]
TnE -001_ +00_ F_ L
TnE -001_ +00_ F-

[Sample7]
tnE +000_ +00_ 0_ L

[Sample8]
tNe +000_ +00_ F_
tNe +000_ +00_ B_
tNe +000_ +00_ 7_
tNe +000_ +00_ 6- L

[Sample9]
TnE +080_ +00_ F_
TnE +100_ +00_ E_
TnE +180_ +00_ E_
TnE +200_ +00_ E_
TnE +240_ +00_ D_
TnE +280_ +00_ D_
TnE +2C0_ +00_ D_
TnE +300_ +00_ C_
TnE +300_ +00_ C_
TnE +340_ +00_ C_
TnE +340_ +00_ C_
TnE +380_ +00_ B_
TnE +380_ +00_ B_
TnE +400_ +00_ B_
TnE +400_ +00_ B_
TnE +480_ +00_ A_
TnE +500_ +00_ 9_
TnE +580_ +00_ 7_
TnE +600_ +00_ 4_
TnE +680_ +00_ 1_
TnE +000_ +00_ 0_ L

[Sample10]
Tne +1C0_ +00_ F_
Tne +280_ +00_ E_
Tne +380_ +00_ C_
Tne +440_ +00_ A_
Tne +480_ +00_ 8_
TnE +000_ +00_ 0_ L

[Sample11]
TNe +200_ -0A_ F_
tNe +000_ +0F_ A_
TNe +200_ -07_ E_
tNe +000_ +0E_ B- L

[Sample12]
TNE +0A0_ +05_ F_
TNE +140_ +02_ D_
TNE +140_ +02_ B_
TNE +100_ +00_ A_ L
TNE +140_ +00_ A_
TNE +200_ +00_ A-

[Sample13]
Tne +200_ +00_ F_
Tne +2C0_ +00_ F_
Tne +380_ +00_ E_
Tne +500_ +00_ C_
Tne +520_ +00_ 9_
tne +000_ +00_ 0_ L

[Sample14]
TNE -100_ +00_ F_
TNE -100_ +00_ D_
TNE -100_ +00_ A_
TNE -100_ +00_ 5_
tne +000_ +00_ 0_ L

[Sample15]
TNE -100_ +00_ 5_
TNE -100_ +00_ 8_
TNE -100_ +00_ B_
TNE -100_ +00_ F_
TNe -100_ +00_ 9- L

[Sample16]
TnE +000_ +00_ C_
TnE +000_ +00_ E_
TnE +000_ +00_ F_
TnE +000_ +00_ F_
TnE +000_ +00_ E_
TnE +000_ +00_ D_
TnE +000_ +00_ C_
TnE +000_ +00_ C_ L
TnE +001_ +00_ C_
TnE +002_ +00_ C_
TnE +003_ +00_ C_
TnE +001_ +00_ C_
TnE +000_ +00_ C_
TnE -001_ +00_ C_
TnE -002_ +00_ C_
TnE -003_ +00_ C_
TnE -001_ +00_ C_
TnE +000_ +00_ C_
TnE +000_ +00_ C_

[Sample17]
Tne +1C0_ +00_ F_
Tne +280_ +00_ D_
Tne +380_ +00_ 7_
TNE +000_ +00_ 0_ L

[Sample18]
tne +000_ +00_ 0_ L

[Sample19]
TNe +000_ +00_ F_
TNe +000_ +00_ C_
TNe +000_ +00_ 6_
TNe +000_ +01_ A- L

[Sample20]
TNE +140_ +00_ F_
tNE +000_ +00_ B- L

[Sample21]
tNE +000_ +00_ D_
tNE +000_ +00_ 8_
tNE +000_ +00_ 1_
TNE +000_ +00_ 0_ L

[Sample22]
TnE +000_ +00_ D_ L
TnE +000_ +00_ D_
tne +000_ +00_ 9_
tne +000_ +00_ 9_
TnE +000_ +00_ D_
TnE +000_ +00_ D_
tne +000_ +00_ 9_
tne +000_ +00_ 9_
TnE +000_ +00_ D_
TnE +000_ +00_ D_
TnE +000_ +00_ D_
TnE +000_ +00_ D_
TnE +000_ +00_ D_
TnE +000_ +00_ D_
tne +000_ +00_ 9_
tne +000_ +00_ 9_

[Sample23]
TnE +000_ +00_ F_ L
TnE +010_ +01_ F_
TnE +010_ +01_ F_
TnE +010_ +01_ F_
TnE +010_ +01_ F_
TnE +000_ +00_ F_
TnE +000_ +00_ F_
TnE -010_ -01_ F_
TnE -010_ -01_ F_
TnE -010_ -01_ F_
TnE -010_ -01_ F_
TnE +000_ +00_ F_

[Sample24]
TNe +000_ -01_ C_
TNe +000_ -01_ D_
TNe +000_ -01_ E_
TNe +000_ -01_ F_
TNe +000_ -01_ F_
TNe +000_ -01_ F_
TNe +000_ -01_ F_
TNe +000_ -01_ F_
TNe +000_ -01_ E_
TNe +000_ -01_ E_
TNe +000_ -01_ E_
TNe +000_ -01_ F_
TNe +000_ -01_ F_ L

[Sample25]
tne +000_ +00_ 0_ L

[Sample26]
tne +000_ +00_ 0_ L

[Sample27]
tne +000_ +00_ 0_ L

[Sample28]
tne +000_ +00_ 0_ L

[Sample29]
tne +000_ +00_ 0_ L

[Sample30]
TNE +000_ +00_ C+ L

[Sample31]
tne +000_ +00_ 0_ L

[Pattern0]
 C-4|..|C-3 2A.1 ....|C-4 DF.F ....|C-4 AF.F ....
 C-4|..|C-5 58.. ....|--- .... ....|--- .... ....
 C-4|..|C-5 .8.. ....|C-4 L..B ....|C-4 K..F ....
 C-4|..|C-3 2A.. ....|--- .... ....|C-4 L... ....
 C-4|..|C-5 58.. ....|C-4 K..B ....|C-4 K..B ....
 C-4|..|C-3 2A.. ....|--- .... ....|C-4 L... ....
 C-4|..|C-5 58.. ....|C-4 D..F ....|C-4 D..B ....
 C-4|..|C-5 .8.. ....|--- .... ....|--- .... ....
 C-4|..|C-3 2A.. ....|C-4 L..B ....|C-4 L..B ....
 C-4|..|C-5 58.. ....|--- .... ....|--- .... ....
 C-4|..|C-5 .8.. ....|--- ...F ....|C-4 A..F ....
 C-4|..|C-3 2A.. ....|--- .... ....|--- .... ....
 C-4|..|C-4 4C.. ....|C-4 K..F ....|C-4 K..F ....
....|..|--- .... ....|C-4 L... ....|C-4 L... ....
 C-4|..|C-5 58.. ....|C-4 K..B ....|C-4 K..B ....
 C-4|..|C-5 .8.. ....|C-4 L... ....|C-4 L... ....
 C-4|..|C-3 2A.. ....|C-4 D..B ....|C-4 D..B ....
 C-4|..|C-5 58.. ....|--- .... ....|--- .... ....
 C-4|..|C-5 .8.. ....|E-4 E..F ....|E-4 E..F ....
 C-4|..|C-3 2A.. ....|--- .... ....|--- .... ....
 C-4|..|C-5 58.. ....|C-4 A..B ....|C-4 A..B ....
 C-4|..|C-3 2A.. ....|--- .... ....|--- .... ....
 C-4|..|C-5 58.. ....|C-4 L..F ....|C-4 L..F ....
 C-4|..|C-5 .8.. ....|--- .... ....|--- .... ....
 C-4|..|C-3 2A.. ....|E-4 E..F ....|E-4 E..F ....
 C-4|..|C-5 58.. ....|--- .... ....|--- .... ....
 C-4|..|C-5 .8.. ....|--- ...B ....|--- ...B ....
 C-4|..|C-3 2A.. ....|--- .... ....|--- .... ....
 C-4|..|C-4 4C.. ....|C-4 K..B ....|C-4 K..B ....
....|..|--- .... ....|--- .... ....|--- .... ....
 C-4|..|C-5 58.. ....|C-4 L..F ....|C-4 L..F ....
 C-4|..|C-5 .8.. ....|--- .... ....|--- .... ....
 C-4|..|C-3 2A.. ....|C-4 DF.F ....|C-4 DF.F ....
 C-4|..|C-5 58.. ....|--- .... ....|--- .... ....
 C-4|..|C-5 .8.. ....|C-4 L..B ....|C-4 K..F ....
 C-4|..|C-3 2A.. ....|--- .... ....|C-4 L... ....
 C-4|..|C-5 58.. ....|C-4 K..B ....|C-4 K..B ....
 C-4|..|C-3 2A.. ....|--- .... ....|C-4 L... ....
 C-4|..|C-5 58.. ....|C-4 D..F ....|C-4 D..B ....
 C-4|..|C-5 .8.. ....|--- .... ....|--- .... ....
 C-4|..|C-3 2A.. ....|C-4 L..B ....|C-4 L..B ....
 C-4|..|C-5 58.. ....|--- .... ....|--- .... ....
 C-4|..|C-5 .8.. ....|--- ...F ....|--- ...F ....
 C-4|..|C-3 2A.. ....|--- .... ....|--- .... ....
 C-4|..|C-5 58.. ....|C-4 K..F ....|C-4 K..F ....
 C-4|..|C-3 2A.. ....|C-4 L... ....|C-4 L... ....
 C-4|..|C-5 58.. ....|C-4 K..B ....|C-4 K..B ....
 C-4|..|C-5 .8.. ....|C-4 L... ....|C-4 L... ....
 C-4|..|C-3 2... ....|C-4 D..B ....|C-4 D..B ....
....|..|C-5 5... ....|--- .... ....|--- .... ....
....|..|C-5 .... ....|E-4 E..F ....|E-4 E..F ....
....|..|C-3 2... ....|--- .... ....|--- .... ....
....|..|C-5 5... ....|C-4 A..B ....|C-4 A..B ....
....|..|C-3 2... ....|--- .... ....|--- .... ....
....|..|C-5 5... ....|C-4 L..F ....|C-4 L..F ....
....|..|C-5 .... ....|--- .... ....|--- .... ....
....|..|C-4 2... ....|E-4 E..F ....|E-4 E..F ....
....|..|--- .... ....|--- .... ....|--- .... ....
....|..|C-5 .... ....|--- ...B ....|--- ...B ....
....|..|C-3 .... ....|--- .... ....|--- .... ....
....|..|C-5 5... ....|C-4 K..B 11.4|C-4 K..B ....
....|..|C-3 2... ....|--- .... ....|--- .... ....
....|..|C-5 5... ....|C-4 L..F ....|C-4 L..F ....
....|..|C-5 .... ....|--- .... ....|--- .... ....

[Pattern1]
....|..|C-4 GF45 ....|--- .... ....|C-4 DF.F ....
....|..|--- .... ....|--- .... ....|--- .... ....
....|..|--- ...8 ....|--- .... ....|C-4 L..B ....
....|..|--- .... ....|--- .... ....|--- .... ....
....|..|--- ...8 ....|--- .... ....|C-4 K..B ....
....|..|--- .... ....|--- .... ....|--- .... ....
....|..|--- ...5 ....|--- .... ....|C-4 D..F ....
....|..|--- .... ....|--- .... ....|--- .... ....
....|..|--- ...8 ....|--- .... ....|C-4 L..B ....
....|..|--- .... ....|--- .... ....|--- .... ....
....|..|--- ...8 ....|--- .... ....|--- ...F ....
....|..|--- .... ....|--- .... ....|--- .... ....
 C-4|..|--- ...5 ....|C-2 NA.. ....|C-4 K..F ....
 C-3|..|--- .... ....|R-- .... ....|C-4 L... ....
 G-4|..|--- ...8 ....|G-2 .A.. ....|C-4 K..B ....
....|..|--- .... ....|R-- .... ....|C-4 L... ....
 G-3|..|--- ...6 ....|G-1 .A.. ....|C-4 D..B ....
....|..|--- .... ....|--- .... ....|--- .... ....
....|..|--- ...9 ....|R-- .... ....|E-4 E..F ....
....|..|--- .... ....|--- .... ....|--- .... ....
....|..|--- ...9 ....|--- .... ....|C-4 A..B ....
....|..|--- .... ....|--- .... ....|--- .... ....
....|..|--- ...6 ....|--- .... ....|C-4 L..F ....
....|..|--- .... ....|--- .... ....|--- .... ....
....|..|--- ...9 ....|--- .... ....|E-4 E..F ....
....|..|--- .... ....|--- .... ....|--- .... ....
....|..|--- ...9 ....|--- .... ....|--- ...B ....
....|..|--- .... ....|--- .... ....|--- .... ....
....|..|--- ...6 ....|--- .... ....|C-4 K..B ....
....|..|--- .... ....|--- .... ....|--- .... ....
....|..|--- ...9 ....|--- .... ....|C-4 L..F ....
....|..|--- .... ....|--- .... ....|--- .... ....
 G-3|..|G-4 .F37 ....|G-2 NC.. ....|C-4 DF.F ....
....|..|--- .... ....|--- .... ....|--- .... ....
....|..|--- ...A ....|R-- .... ....|C-4 L..B ....
....|..|--- .... ....|--- .... ....|--- .... ....
 G-4|..|--- ...A ....|G-3 .C.. ....|C-4 K..B ....
....|..|--- .... ....|--- .... ....|--- .... ....
....|..|--- ...7 ....|R-- .... ....|C-4 D..F ....
....|..|--- .... ....|--- .... ....|--- .... ....
 G-3|..|--- ...A ....|G-1 NA.. ....|C-4 L..B ....
....|..|--- .... ....|--- .... ....|--- .... ....
 G-4|..|--- ...A ....|G-2 2A.. ....|--- ...F ....
....|..|--- .... ....|--- .... ....|--- .... ....
 A-3|..|--- ...7 ....|A-1 NA.. ....|C-4 K..F ....
....|..|--- .... ....|--- .... ....|C-4 L... ....
....|..|--- ...A ....|R-- .... ....|C-4 K..B ....
....|..|--- .... ....|--- .... ....|C-4 L... ....
 G-3|..|--- ...9 ....|G-1 NA.. ....|C-4 D..B ....
....|..|--- .... ....|--- .... ....|--- .... ....
 A-3|..|--- ...B ....|A-1 .A.. ....|E-4 E..F ....
....|..|--- .... ....|--- .... ....|--- .... ....
 A#3|..|--- ...B ....|A#1 .A.. ....|C-4 A..B ....
....|..|--- .... ....|--- .... ....|--- .... ....
 B-3|..|--- ...9 ....|B-1 .A.. ....|C-4 L..F ....
....|..|--- .... ....|--- .... ....|--- .... ....
....|..|--- ...B ....|R-- .... ....|E-4 E..F ....
....|..|--- .... ....|--- .... ....|--- .... ....
....|..|--- ...B ....|--- .... ....|--- ...B ....
....|..|--- .... ....|--- .... ....|--- .... ....
....|..|--- ...9 ....|--- .... ....|C-4 K..B ....
....|..|--- .... ....|--- .... ....|--- .... ....
....|..|--- ...B ....|--- .... ....|C-4 L..F ....
....|..|--- .... ....|--- .... ....|--- .... ....

[Pattern2]
....|..|C-5 GF4A ....|--- .... ....|C-4 DF.F ....
....|..|--- .... ....|--- .... ....|--- .... ....
....|..|--- .... ....|--- .... ....|C-4 L..B ....
....|..|--- .... ....|--- .... ....|--- .... ....
....|..|--- .... ....|--- .... ....|C-4 K..B ....
....|..|--- .... ....|--- .... ....|--- .... ....
....|..|--- .... ....|--- .... ....|C-4 D..F ....
....|..|--- .... ....|--- .... ....|--- .... ....
....|..|--- .... ....|--- .... ....|C-4 L..B ....
....|..|--- .... ....|--- .... ....|--- .... ....
....|..|--- .... ....|--- .... ....|--- ...F ....
....|..|--- .... ....|--- .... ....|--- .... ....
....|..|--- .... ....|--- .... ....|C-4 K..F ....
....|..|--- .... ....|--- .... ....|C-4 L... ....
....|..|--- .... ....|--- .... ....|C-4 K..B ....
....|..|--- .... ....|--- .... ....|C-4 L... ....
 C-3|..|--- .... ....|C-2 2C.. ....|C-4 D..B ....
....|..|--- .... ....|--- .... ....|--- .... ....
....|..|--- .... ....|R-- .... ....|E-4 E..F ....
....|..|--- .... ....|--- .... ....|--- .... ....
 E-4|..|--- .... ....|E-3 .C.. ....|C-4 A..B ....
....|..|--- .... ....|--- .... ....|--- .... ....
....|..|--- .... ....|R-- .... ....|C-4 L..F ....
....|..|--- .... ....|--- .... ....|--- .... ....
 C-3|..|--- .... ....|C-2 .C.. ....|E-4 E..F ....
....|..|--- .... ....|--- .... ....|--- .... ....
....|..|--- .... ....|--- .... ....|--- ...B ....
....|..|--- .... ....|--- .... ....|--- .... ....
....|..|--- .... ....|R-- .... ....|C-4 K..B ....
....|..|--- .... ....|--- .... ....|--- .... ....
 A-3|..|--- .... ....|A-2 .C.. ....|C-4 L..F ....
....|..|--- .... ....|--- .... ....|--- .... ....
 B-3|..|B-4 .F5. ....|B-2 .C.. .1..|C-4 DF.F ....
....|..|--- .... ....|--- .... ....|--- .... ....
....|..|--- .... ....|R-- .... ....|C-4 L..B ....
....|..|--- .... ....|--- .... ....|--- .... ....
 B-4|..|--- .... ....|B-2 .A.. .1..|C-4 K..B ....
....|..|--- .... ....|--- .... ....|--- .... ....
....|..|--- .... ....|--- .... ....|C-4 D..F ....
....|..|--- .... ....|--- .... ....|--- .... ....
....|..|--- .... ....|R-- .... ....|C-4 L..B ....
....|..|--- .... ....|--- .... ....|--- .... ....
....|..|--- .... ....|--- .... ....|--- ...F ....
....|..|--- .... ....|--- .... ....|--- .... ....
....|..|--- .... ....|--- .... ....|C-4 K..F ....
....|..|--- .... ....|--- .... ....|C-4 L... ....
....|..|--- .... ....|--- .... ....|C-4 K..B ....
....|..|--- .... ....|--- .... ....|C-4 L... ....
....|..|--- .... ....|--- .... ....|C-4 D..B ....
....|..|--- .... ....|--- .... ....|--- .... ....
....|..|--- .... ....|--- .... ....|E-4 E..F ....
....|..|--- .... ....|--- .... ....|--- .... ....
....|..|--- .... ....|--- .... ....|C-4 A..B ....
....|..|--- .... ....|--- .... ....|--- .... ....
....|..|--- .... ....|--- .... ....|C-4 L..F ....
....|..|--- .... ....|--- .... ....|--- .... ....
....|..|--- .... ....|--- .... ....|E-4 E..F ....
....|..|--- .... ....|--- .... ....|--- .... ....
....|..|--- .... ....|--- .... ....|--- ...B ....
....|..|--- .... ....|--- .... ....|--- .... ....
....|..|--- .... ....|--- .... ....|C-4 K..B ....
....|..|--- .... ....|--- .... ....|--- .... ....
....|..|--- .... ....|--- .... ....|C-4 L..F ....
....|..|--- .... ....|--- .... ....|--- .... ....

[Pattern3]
....|..|A#4 GF4A ....|C-4 DF.F ....|B-8 8F.F ....
....|..|--- .... ....|--- .... ....|--- .... ....
....|..|--- .... ....|C-4 L..B ....|B-8 B..B ....
....|..|--- .... ....|--- .... ....|--- .... ....
....|..|--- .... ....|C-4 K..B ....|B-8 J..F ....
....|..|--- .... ....|--- .... ....|--- .... ....
....|..|--- .... ....|C-4 D..F ....|B-8 8..B ....
....|..|--- .... ....|--- .... ....|--- .... ....
....|..|--- .... ....|C-4 L..B ....|B-8 8..F ....
....|..|--- .... ....|--- .... ....|--- .... ....
....|..|--- .... ....|--- ...F ....|B-8 J..B ....
....|..|--- .... ....|--- .... ....|--- .... ....
....|..|--- .... ....|C-4 K..F ....|B-8 8..F ....
....|..|--- .... ....|C-4 L... ....|--- .... ....
....|..|--- .... ....|C-4 K..B ....|B-8 8..B ....
....|..|--- .... ....|C-4 L... ....|--- .... ....
 A#2|..|--- .... ....|C-4 D..B ....|B-8 U..F ....
....|..|--- .... ....|--- .... ....|--- .... ....
....|..|--- .... ....|A#4 2F4. ....|B-8 8..B ....
....|..|--- .... ....|--- .... ....|--- .... ....
 A#3|..|--- .... ....|A#1 2E.. ....|B-8 J..F ....
....|..|--- .... ....|--- .... ....|--- .... ....
....|..|--- .... ....|A#4 2F4. ....|B-8 U..B ....
....|..|--- .... ....|--- .... ....|--- .... ....
 A#3|..|--- .... ....|A#1 2A.. ....|B-8 8..F ....
....|..|--- .... ....|--- .... ....|--- .... ....
....|..|--- .... ....|--- .... ....|B-8 J..B ....
....|..|--- .... ....|--- .... ....|--- .... ....
....|..|--- .... ....|A#4 F24. ....|B-8 U..F ....
....|..|--- .... ....|--- .... ....|--- .... ....
 A#3|..|--- .... ....|A#1 2A.. ....|B-8 8..B ....
....|..|--- .... ....|--- .... ....|--- .... ....
 A-3|..|A-4 .F5. ....|A-1 2A.. 11.2|B-8 8F.F ....
....|..|--- .... ....|--- .... ....|--- .... ....
....|..|--- .... ....|A-4 2F5. 1...|B-8 8..B ....
....|..|--- .... ....|--- .... ....|--- .... ....
 A-3|..|--- .... ....|A-1 1A.. 11.2|B-8 J..F ....
....|..|--- .... ....|--- .... ....|--- .... ....
....|..|--- .... ....|--- .... ....|B-8 8..B ....
....|..|--- .... ....|--- .... ....|--- .... ....
....|..|--- .... ....|C-4 DF.F ....|B-8 8..F ....
....|..|--- .... ....|--- .... ....|--- .... ....
....|..|--- .... ....|C-4 L..B ....|B-8 J..B ....
....|..|--- .... ....|--- .... ....|--- .... ....
....|..|--- .... ....|C-4 K..B ....|B-8 8..F ....
....|..|--- .... ....|--- .... ....|--- .... ....
....|..|--- .... ....|C-4 D..F ....|B-8 8..B ....
....|..|--- .... ....|--- .... ....|--- .... ....
....|..|--- .... ....|C-4 DF.F ....|B-8 B..F ....
....|..|--- .... ....|--- .... ....|--- .... ....
....|..|--- .... ....|C-4 L..B ....|B-8 8..B ....
....|..|--- .... ....|--- .... ....|--- .... ....
....|..|--- .... ....|C-4 K..B ....|B-8 J..F ....
....|..|--- .... ....|--- .... ....|--- .... ....
....|..|--- .... ....|C-4 D..F ....|B-8 B..B ....
....|..|--- .... ....|--- .... ....|--- .... ....
....|..|--- .... ....|C-4 L..B ....|B-8 8..F ....
....|..|--- .... ....|--- .... ....|--- .... ....
....|..|--- .... ....|--- ...F ....|B-8 J..B ....
....|..|--- .... ....|--- .... ....|--- .... ....
....|..|--- .... ....|C-4 K..F ....|B-8 B..F ....
....|..|--- .... ....|C-4 L... ....|--- .... ....
....|..|--- .... ....|C-4 K..B ....|B-8 8..B ....
....|..|--- .... ....|C-4 L... ....|--- .... ....

[Pattern4]
....|..|G-4 GF4A ....|G-3 9F.F ....|B-8 8F.F ....
 G-3|..|--- .... ....|G-1 2A.. ....|--- .... ....
....|..|--- .... ....|--- .... ....|B-8 B..B ....
....|..|--- .... ....|--- .... ....|--- .... ....
....|..|--- .... ....|--- .... ....|B-8 J..F ....
....|..|--- .... ....|--- .... ....|--- .... ....
....|..|--- .... ....|R-- .... ....|B-8 8..B ....
....|..|--- .... ....|--- .... ....|--- .... ....
....|..|--- .... ....|G-3 9F.. ....|B-8 8..F ....
 G-3|..|--- .... ....|G-1 2A.. ....|--- .... ....
....|..|--- .... ....|--- .... ....|B-8 J..B ....
....|..|--- .... ....|--- .... ....|--- .... ....
....|..|--- .... ....|--- .... ....|B-8 8..F ....
....|..|--- .... ....|--- .... ....|--- .... ....
....|..|--- .... ....|R-- .... ....|B-8 8..B ....
....|..|--- .... ....|--- .... ....|--- .... ....
....|..|--- .... ....|G-3 9F.. ....|B-8 U..F ....
 G-3|..|--- .... ....|G-1 2A.. ....|--- .... ....
....|..|--- .... ....|--- .... ....|B-8 8..B ....
....|..|--- .... ....|--- .... ....|--- .... ....
....|..|--- .... ....|--- .... ....|B-8 J..F ....
....|..|--- .... ....|--- .... ....|--- .... ....
....|..|--- .... ....|--- .... ....|B-8 U..B ....
....|..|--- .... ....|--- .... ....|--- .... ....
....|..|--- .... ....|R-- .... ....|B-8 8..F ....
....|..|--- .... ....|--- .... ....|--- .... ....
....|..|--- .... ....|--- .... ....|B-8 J..B ....
....|..|--- .... ....|--- .... ....|--- .... ....
....|..|--- .... ....|G-3 9F.. ....|B-8 U..F ....
 G-4|..|--- .... ....|G-2 2A.. ....|--- .... ....
....|..|--- .... ....|--- .... ....|B-8 8..B ....
....|..|--- .... ....|--- .... ....|--- .... ....
....|..|F-4 .F4. ....|F-3 9F.. ....|B-8 8F.F ....
 F-4|..|--- .... ....|F-2 2A.. ....|--- .... ....
....|..|--- .... ....|--- .... ....|B-8 8..B ....
....|..|--- .... ....|--- .... ....|--- .... ....
....|..|--- .... ....|R-- .... ....|B-8 J..F ....
....|..|--- .... ....|--- .... ....|--- .... ....
....|..|--- .... ....|F-3 9F.. ....|B-8 8..B ....
 F-4|..|--- .... ....|F-2 2A.. ....|--- .... ....
....|..|--- .... ....|--- .... ....|B-8 8..F ....
....|..|--- .... ....|--- .... ....|--- .... ....
....|..|--- .... ....|R-- .... ....|B-8 J..B ....
....|..|--- .... ....|--- .... ....|--- .... ....
....|..|--- .... ....|F-3 9F.. ....|B-8 8..F ....
 F-3|..|--- .... ....|F-1 2A.. ....|--- .... ....
....|..|--- .... ....|--- .... ....|B-8 8..B ....
....|..|--- .... ....|--- .... ....|--- .... ....
....|..|--- .... ....|F-3 9F.. ....|B-8 B..F ....
 F-4|..|--- .... ....|F-2 2A.. ....|--- .... ....
....|..|--- .... ....|--- .... ....|B-8 8..B ....
....|..|--- .... ....|--- .... ....|--- .... ....
....|..|--- .... ....|R-- .... ....|B-8 J..F ....
....|..|--- .... ....|--- .... ....|--- .... ....
....|..|--- .... ....|F-3 9F.. ....|B-8 B..B ....
 F-4|..|--- .... ....|F-2 2A.. ....|--- .... ....
....|..|--- .... ....|--- .... ....|B-8 8..F ....
....|..|--- .... ....|--- .... ....|--- .... ....
....|..|--- .... ....|R-- .... ....|B-8 J..B ....
....|..|--- .... ....|--- .... ....|--- .... ....
....|..|--- .... ....|F-3 9F.. ....|B-8 B..F ....
 F-3|..|--- .... ....|F-1 2A.. ....|--- .... ....
....|..|--- .... ....|--- .... ....|B-8 8..B ....
....|..|--- .... ....|--- .... ....|--- .... ....

[Pattern5]
....|..|C-4 GF4A ....|C-4 9F.F ....|C-4 AF.F ....
 C-3|..|--- .... ....|G-3 2C.. ....|--- .... ....
....|..|--- .... ....|--- .... ....|C-4 K..F ....
....|..|--- .... ....|--- .... ....|C-4 L... ....
....|..|--- .... ....|--- .... ....|C-4 K..B ....
....|..|--- .... ....|--- .... ....|C-4 L... ....
....|..|--- .... ....|R-- .... ....|C-4 D..B ....
....|..|--- .... ....|--- .... ....|--- .... ....
....|..|--- .... ....|A-3 9F.. ....|C-4 L..B ....
 C-3|..|--- .... ....|G-3 2C.. ....|--- .... ....
....|..|--- .... ....|--- .... ....|C-4 A..F ....
....|..|--- .... ....|--- .... ....|--- .... ....
....|..|--- .... ....|--- .... ....|C-4 K..F ....
....|..|--- .... ....|--- .... ....|C-4 L... ....
....|..|--- .... ....|R-- .... ....|C-4 K..B ....
....|..|--- .... ....|--- .... ....|C-4 L... ....
....|..|--- .... ....|C-3 9F.. ....|C-4 D..B ....
 C-3|..|--- .... ....|C-2 2C.. ....|--- .... ....
....|..|--- .... ....|--- .... ....|E-4 E..F ....
....|..|--- .... ....|C-2 .... ....|--- .... ....
....|..|--- .... ....|--- .... ....|C-4 A..B ....
....|..|--- .... ....|C-1 .... ....|--- .... ....
....|..|--- .... ....|--- .... ....|C-4 L..F ....
....|..|--- .... ....|--- .... ....|--- .... ....
....|..|--- .... ....|R-- .... ....|E-4 E..F ....
....|..|--- .... ....|--- .... ....|--- .... ....
....|..|--- .... ....|--- .... ....|--- ...B ....
....|..|--- .... ....|--- .... ....|--- .... ....
....|..|--- .... ....|C-3 9F.. ....|C-4 K..B ....
 C-3|..|--- .... ....|C-2 2A.. ....|--- .... ....
....|..|--- .... ....|--- .... ....|C-4 L..F ....
....|..|--- .... ....|--- .... ....|--- .... ....
....|..|G-4 .F3. ....|F-3 9F.. ....|C-4 DF.F ....
 G-4|..|--- .... ....|G-3 2A.. ....|--- .... ....
....|..|--- .... ....|--- .... ....|C-4 K..F ....
....|..|--- .... ....|--- .... ....|C-4 L... ....
....|..|--- .... ....|R-- .... ....|C-4 K..B ....
....|..|--- .... ....|--- .... ....|C-4 L... ....
....|..|--- .... ....|F-3 9F.. ....|C-4 D..B ....
 G-3|..|--- .... ....|G-2 2A.. ....|--- .... ....
....|..|--- .... ....|--- .... ....|C-4 L..B ....
....|..|--- .... ....|--- .... ....|--- .... ....
....|..|--- .... ....|R-- .... ....|--- ...F ....
....|..|--- .... ....|--- .... ....|--- .... ....
....|..|--- .... ....|F-3 9F.. ....|C-4 K..F ....
 G-3|..|--- .... ....|G-1 2A.. ....|C-4 L... ....
....|..|--- .... ....|--- .... ....|C-4 K..B ....
....|..|--- .... ....|--- .... ....|C-4 L... ....
....|..|--- .... ....|A#3 9F.. ....|C-4 D..B ....
 A#3|..|--- .... ....|A#2 2A.. ....|--- .... ....
....|..|--- .... ....|--- .... ....|E-4 E..F ....
....|..|--- .... ....|--- .... ....|--- .... ....
....|..|--- .... ....|R-- .... ....|C-4 A..B ....
....|..|--- .... ....|--- .... ....|--- .... ....
....|..|--- .... ....|A#3 9F.. ....|C-4 L..F ....
 A#3|..|--- .... ....|A#2 2A.. ....|--- .... ....
....|..|--- .... ....|--- .... ....|E-4 E..F ....
....|..|--- .... ....|--- .... ....|--- .... ....
....|..|--- .... ....|R-- .... ....|--- ...B ....
....|..|--- .... ....|--- .... ....|--- .... ....
....|..|--- .... ....|A#3 9F.. ....|C-4 K..B ....
 A#3|..|--- .... ....|A#2 2A.. ....|--- .... ....
....|..|--- .... ....|--- .... ....|C-4 L..F ....
....|..|--- .... ....|--- .... ....|--- .... ....

[Pattern6]
....|..|C-5 GF4A ....|C-4 9F.F ....|C-4 AF.F ....
 C-3|..|--- .... ....|C-2 2A.. ....|--- .... ....
....|..|--- .... ....|--- .... ....|C-4 K..F ....
....|..|--- .... ....|--- .... ....|C-4 L... ....
....|..|--- .... ....|--- .... ....|C-4 K..B ....
....|..|--- .... ....|--- .... ....|C-4 L... ....
....|..|--- .... ....|C-5 2F4D ....|C-4 D..B ....
....|..|--- .... ....|--- .... ....|--- .... ....
....|..|--- .... ....|C-4 9F.F ....|C-4 L..B ....
 C-3|..|--- .... ....|C-2 2A.. ....|--- .... ....
....|..|--- .... ....|--- .... ....|C-4 A..F ....
....|..|--- .... ....|--- .... ....|--- .... ....
....|..|--- .... ....|--- .... ....|B-8 8..F ....
....|..|--- .... ....|--- .... ....|--- .... ....
....|..|--- .... ....|C-4 2F4D ....|B-8 8..B ....
....|..|--- .... ....|--- .... ....|--- .... ....
....|..|--- .... ....|C-3 9F.F ....|B-8 B..F ....
 C-3|..|--- .... ....|C-2 2A.. ....|--- .... ....
....|..|--- .... ....|--- .... ....|B-8 8..B ....
....|..|--- .... ....|--- .... ....|--- .... ....
....|..|--- .... ....|--- .... ....|B-8 J..F ....
....|..|--- .... ....|--- .... ....|--- .... ....
....|..|--- .... ....|--- .... ....|B-8 B..B ....
....|..|--- .... ....|--- .... ....|--- .... ....
....|..|--- .... ....|C-5 2F4D ....|B-8 J..F ....
....|..|--- .... ....|--- .... ....|--- .... ....
....|..|--- .... ....|--- .... ....|B-8 J..B ....
....|..|--- .... ....|--- .... ....|--- .... ....
....|..|--- .... ....|C-4 9F.F ....|B-8 U..F ....
 C-3|..|--- .... ....|C-2 2A.. ....|--- .... ....
....|..|--- .... ....|--- .... ....|B-8 J..B ....
....|..|--- .... ....|--- .... ....|--- .... ....
....|..|B-4 .F5. ....|B-4 9F.. ....|C-4 DF.F ....
 B-2|..|--- .... ....|B-1 2A.. ....|--- .... ....
....|..|--- .... ....|--- .... ....|C-4 K..F ....
....|..|--- .... ....|--- .... ....|C-4 L... ....
....|..|--- .... ....|B-4 2F5D ....|C-4 K..B ....
....|..|--- .... ....|--- .... ....|C-4 L... ....
....|..|--- .... ....|F-3 9F.F ....|C-4 D..B ....
 B-2|..|--- .... ....|B-1 2A.. ....|--- .... ....
....|..|--- .... ....|--- .... ....|C-4 L..B ....
....|..|--- .... ....|--- .... ....|--- .... ....
....|..|--- .... ....|B-3 2F5D ....|B-8 J..B ....
....|..|--- .... ....|--- .... ....|--- .... ....
....|..|--- .... ....|F-3 9F.F ....|A-3 A..F ....
 B-3|..|--- .... ....|B-2 2A.. ....|--- .... ....
....|..|--- .... ....|--- .... ....|B-8 8..B ....
....|..|--- .... ....|--- .... ....|--- .... ....
....|..|--- .... ....|A-3 9F.. ....|B-8 B..F ....
 B-2|..|--- .... ....|B-1 2A.. ....|--- .... ....
....|..|--- .... ....|--- .... ....|A-3 A..B ....
....|..|--- .... ....|--- .... ....|--- .... ....
....|..|--- .... ....|B-4 2F5D ....|B-8 J..F ....
....|..|--- .... ....|--- .... ....|--- .... ....
....|..|--- .... ....|B-3 9F.F ....|B-8 B..B ....
 B-3|..|--- .... ....|B-2 2A.. ....|--- .... ....
....|..|--- .... ....|--- .... ....|B-8 8..F ....
....|..|--- .... ....|--- .... ....|--- .... ....
....|..|--- .... ....|B-3 2F5D ....|B-8 J..B ....
....|..|--- .... ....|--- .... ....|--- .... ....
....|..|--- .... ....|B-3 9F.F ....|B-8 B..F ....
 B-2|..|--- .... ....|B-1 2A.. ....|--- .... ....
....|..|--- .... ....|--- .... ....|B-8 8..B ....
....|..|--- .... ....|--- .... ....|--- .... ....

[Pattern7]
....|..|A#4 GF4A ....|A#3 9F.F ....|C-4 AF.F ....
 A#3|..|--- .... ....|A#1 2A.. ....|--- .... ....
....|..|--- .... ....|--- .... ....|C-4 K..F ....
....|..|--- .... ....|--- .... ....|C-4 L... ....
....|..|--- .... ....|--- .... ....|C-4 K..B ....
....|..|--- .... ....|--- .... ....|C-4 L... ....
....|..|--- .... ....|A#4 2F4D ....|C-4 D..B ....
....|..|--- .... ....|--- .... ....|--- .... ....
....|..|--- .... ....|A-3 9F.F ....|C-4 L..B ....
 A-3|..|--- .... ....|A-1 2A.. ....|--- .... ....
....|..|--- .... ....|--- .... ....|C-4 A..F ....
....|..|--- .... ....|--- .... ....|--- .... ....
....|..|--- .... ....|--- .... ....|B-8 8..F ....
....|..|--- .... ....|--- .... ....|--- .... ....
....|..|--- .... ....|A#4 2F4D ....|B-8 8..B ....
....|..|--- .... ....|--- .... ....|--- .... ....
....|..|--- .... ....|A#3 9F.F ....|B-8 B..F ....
 A#3|..|--- .... ....|A#1 2A.. ....|--- .... ....
....|..|--- .... ....|--- .... ....|B-8 8..B ....
....|..|--- .... ....|--- .... ....|--- .... ....
....|..|--- .... ....|--- .... ....|B-8 J..F ....
....|..|--- .... ....|--- .... ....|--- .... ....
....|..|--- .... ....|--- .... ....|B-8 B..B ....
....|..|--- .... ....|--- .... ....|--- .... ....
....|..|--- .... ....|A#4 2F4D ....|B-8 J..F ....
....|..|--- .... ....|--- .... ....|--- .... ....
....|..|--- .... ....|--- .... ....|B-8 J..B ....
....|..|--- .... ....|--- .... ....|--- .... ....
....|..|--- .... ....|A#3 9F.F ....|B-8 U..F ....
 A#3|..|--- .... ....|A#1 2A.. ....|--- .... ....
....|..|--- .... ....|--- .... ....|B-8 J..B ....
....|..|--- .... ....|--- .... ....|--- .... ....
....|..|A-4 .F5. ....|A-3 9F.. ....|C-4 DF.F ....
 A-3|..|--- .... ....|A-1 2A.. ....|--- .... ....
....|..|--- .... ....|--- .... ....|C-4 K..F ....
....|..|--- .... ....|--- .... ....|C-4 L... ....
....|..|--- .... ....|A-4 2F5D ....|C-4 K..B ....
....|..|--- .... ....|--- .... ....|C-4 L... ....
....|..|--- .... ....|A-3 9F.F ....|C-4 D..B ....
 A-3|..|--- .... ....|A-1 2A.. ....|--- .... ....
....|..|--- .... ....|--- .... ....|C-4 L..B ....
....|..|--- .... ....|--- .... ....|--- .... ....
....|..|--- .... ....|A-4 2F5D ....|B-8 J..B ....
....|..|--- .... ....|--- .... ....|--- .... ....
....|..|--- .... ....|A-3 9F.F ....|A-3 A..F ....
 A-3|..|--- .... ....|A-1 2A.. ....|--- .... ....
....|..|--- .... ....|--- .... ....|B-8 8..B ....
....|..|--- .... ....|--- .... ....|--- .... ....
....|..|--- .... ....|A-3 9F.. ....|B-8 B..F ....
 A-3|..|--- .... ....|A-1 2A.. ....|--- .... ....
....|..|--- .... ....|--- .... ....|A-3 A..B ....
....|..|--- .... ....|--- .... ....|--- .... ....
....|..|--- .... ....|A-4 2F5D ....|B-8 J..F ....
....|..|--- .... ....|--- .... ....|--- .... ....
....|..|--- .... ....|A-3 9F.F ....|B-8 B..B ....
 A-3|..|--- .... ....|A-1 2A.. ....|--- .... ....
....|..|--- .... ....|--- .... ....|B-8 8..F ....
....|..|--- .... ....|--- .... ....|--- .... ....
....|..|--- .... ....|A-4 2F5D ....|B-8 J..B ....
....|..|--- .... ....|--- .... ....|--- .... ....
....|..|--- .... ....|A-3 9F.F ....|B-8 B..F ....
 A-3|..|--- .... ....|A-1 2A.. ....|--- .... ....
....|..|--- .... ....|--- .... ....|B-8 8..B ....
....|..|--- .... ....|--- .... ....|--- .... ....

[Pattern8]
....|..|G-4 GF4A ....|G-3 9F.F ....|C-4 DF.F ....
 G-3|..|--- .... ....|G-1 2A.. ....|--- .... ....
....|..|--- .... ....|--- .... ....|C-4 K..F ....
....|..|--- .... ....|--- .... ....|C-4 L... ....
....|..|--- .... 31.A|G-2 .... ....|C-4 K..B ....
....|..|--- .... ....|--- .... ....|C-4 L... ....
....|..|--- .... ....|G-4 2F4D ....|C-4 D..B ....
....|..|--- .... ....|--- .... ....|--- .... ....
....|..|--- .... ....|G-3 9F.F ....|C-4 L..B ....
 G-3|..|--- .... ....|G-1 2A.. ....|--- .... ....
....|..|--- .... ....|--- .... ....|B-8 J..B ....
....|..|--- .... ....|--- .... ....|--- .... ....
....|..|--- .... 31.A|G-2 .... ....|B-8 8..F ....
....|..|--- .... ....|--- .... ....|--- .... ....
....|..|--- .... ....|G-4 2F4D ....|B-8 8..B ....
....|..|--- .... ....|--- .... ....|--- .... ....
....|..|--- .... ....|C-3 9F.F ....|B-8 B..F ....
 C-3|..|--- .... ....|C-1 2A.. ....|--- .... ....
....|..|--- .... ....|C-2 .... ....|B-8 8..B ....
....|..|--- .... ....|--- .... ....|--- .... ....
....|..|--- .... ....|C-1 .... ....|B-8 J..F ....
....|..|--- .... ....|--- .... ....|--- .... ....
....|..|--- .... ....|C-2 .... ....|B-8 B..B ....
....|..|--- .... ....|--- .... ....|--- .... ....
....|..|--- .... ....|G-4 2F4D ....|B-8 J..F ....
....|..|--- .... ....|--- .... ....|--- .... ....
....|..|--- .... ....|--- .... ....|B-8 J..B ....
....|..|--- .... ....|--- .... ....|--- .... ....
....|..|--- .... 11.1|E-3 9F.F ....|B-8 U..F ....
 E-3|..|--- .... ....|E-1 2A.. ....|--- .... ....
....|..|--- .... ....|--- .... ....|C-4 DF.F ....
....|..|--- .... ....|--- .... ....|--- .... ....
....|..|F-4 .F4. ....|F-3 9F.. ....|C-4 K..F ....
 F-3|..|--- .... ....|F-1 2A.. ....|C-4 L... ....
....|..|--- .... ....|--- .... ....|C-4 K..B ....
....|..|--- .... ....|--- .... ....|C-4 L... ....
....|..|--- .... 31.A|F-4 2F4D ....|C-4 D..B ....
....|..|--- .... ....|--- .... ....|--- .... ....
....|..|--- .... ....|F-3 9F.F ....|C-4 L..B ....
 F-3|..|--- .... ....|F-1 2A.. ....|--- .... ....
....|..|--- .... ....|F-2 .... ....|B-8 8..F ....
....|..|--- .... ....|F-2 .... ....|--- .... ....
....|..|--- .... ....|F-3 2F4D ....|B-8 1..B ....
....|..|--- .... ....|--- .... ....|--- .... ....
....|..|--- .... 31.A|F-3 9F.F ....|A-3 A..F ....
 F-3|..|--- .... ....|F-1 2A.. ....|--- .... ....
....|..|--- .... ....|--- .... ....|B-8 8..B ....
....|..|--- .... ....|--- .... ....|--- .... ....
....|..|--- .... ....|A-3 9F.. ....|B-8 B..F ....
 A-2|..|--- .... ....|A-2 28.. ....|--- .... ....
....|..|--- .... ....|--- .... ....|A-3 A..B ....
....|..|--- .... ....|--- .... ....|--- .... ....
....|..|--- .... 31.A|F-4 2F4D ....|B-8 J..F ....
....|..|--- .... ....|--- .... ....|--- .... ....
....|..|--- .... ....|A-3 9F.F ....|B-8 B..B ....
 A-2|..|--- .... ....|A-1 2A.. ....|--- .... ....
....|..|--- .... ....|--- .... ....|B-8 8..F ....
....|..|--- .... ....|--- .... ....|--- .... ....
....|..|--- .... ....|F-4 2F4D ....|B-8 J..B ....
....|..|--- .... ....|--- .... ....|--- .... ....
....|..|--- .... 31.A|A-3 9F.F ....|B-8 B..F ....
 A-3|..|--- .... ....|A-1 2A.. ....|--- .... ....
....|..|--- .... ....|--- .... ....|B-8 8..B ....
....|..|--- .... ....|--- .... ....|--- .... ....

[Pattern9]
....|..|C-4 MFAF ....|C-4 9F.F ....|A-3 AF.F ....
 C-4|..|A#4 ...B ....|C-2 2A.. ....|--- .... ....
....|..|E-4 ...F ....|--- .... ....|B-8 U..B ....
....|..|C-4 ...B ....|--- .... ....|--- .... ....
 G-4|..|G-4 ...F ....|G-2 .A.. ....|B-8 J..F ....
....|..|E-4 ...B ....|--- .... ....|--- .... ....
....|..|B-4 ...F ....|C-4 2F4D ....|A-3 A..B ....
....|..|G-4 ...B ....|--- .... ....|--- .... ....
....|..|C-5 ...F ....|C-4 9F.F ....|A-3 B..F ....
 C-4|..|B-4 ...B ....|C-2 2A.. ....|--- .... ....
....|..|B-4 ...F ....|--- .... ....|B-8 J..B ....
....|..|C-5 ...B ....|--- .... ....|--- .... ....
....|..|G-4 ...F ....|C-3 .... ....|B-8 8..F ....
....|..|B-4 ...B ....|--- .... ....|--- .... ....
....|..|E-4 ...F ....|C-4 2F4D ....|A-3 B..B ....
....|..|G-4 ...B ....|--- .... ....|--- .... ....
....|..|C-4 ...F ....|C-4 9F.F ....|A-3 A..F ....
 C-4|..|E-4 ...B ....|C-2 2A.. ....|--- .... ....
....|..|E-4 ...F ....|C-3 .... ....|B-8 8..B ....
....|..|C-4 ...B ....|--- .... ....|--- .... ....
....|..|G-4 ...F ....|C-1 .... ....|B-8 J..F ....
....|..|E-4 ...B ....|--- .... ....|--- .... ....
....|..|B-4 ...F ....|C-2 .... ....|A-3 A..B ....
....|..|G-4 ...B ....|--- .... ....|--- .... ....
....|..|C-5 ...F ....|C-4 2F4D ....|B-8 J..F ....
....|..|B-4 ...B ....|--- .... ....|--- .... ....
....|..|B-4 ...F ....|--- .... ....|B-8 J..B ....
....|..|C-5 ...B ....|--- .... ....|--- .... ....
....|..|G-4 ...F ....|C-4 9F.F ....|B-8 U..F ....
 G-2|..|B-4 ...B ....|G-1 2C.. ....|B-8 J..C ....
....|..|E-4 ...F ....|--- .... ....|B-8 J..B ....
....|..|G-4 ...B ....|--- .... ....|B-8 J..D ....
....|..|G-4 ...F ....|G-3 9F.. ....|A-3 AF.F ....
 G-3|..|E-4 ...B ....|G-1 2A.. ....|--- .... ....
....|..|A#4 ...F ....|--- .... ....|B-8 U..B ....
....|..|G-4 ...B ....|--- .... ....|--- .... ....
....|..|D-5 ...F ....|G-4 2F3D ....|B-8 J..F ....
....|..|A#4 ...B ....|--- .... ....|--- .... ....
....|..|F-5 ...F ....|G-3 9F.F ....|A-3 A..B ....
 G-3|..|D-5 ...B ....|G-1 2A.. ....|--- .... ....
....|..|A-5 ...F ....|G-2 .... ....|A-3 B..F ....
....|..|F-5 ...B ....|G-2 .... ....|--- .... ....
....|..|F-5 ...F ....|G-4 2F3D ....|B-8 J..B ....
....|..|A-5 ...B ....|--- .... ....|--- .... ....
....|..|D-5 ...F ....|G-3 9F.F ....|B-8 8..F ....
 G-3|..|F-5 ...B ....|G-1 2A.. ....|--- .... ....
....|..|A#4 ...F ....|--- .... ....|A-3 B..B ....
....|..|D-5 ...B ....|--- .... ....|--- .... ....
....|..|G-4 ...F ....|G-3 9F.. ....|A-3 A..F ....
 G-2|..|A#4 ...B ....|G-1 28.. ....|--- .... ....
....|..|A#4 ...F ....|--- .... ....|B-8 8..B ....
....|..|G-4 ...B ....|--- .... ....|--- .... ....
....|..|D-5 ...F ....|G-4 2F3D ....|B-8 J..F ....
....|..|A#4 ...B ....|--- .... ....|--- .... ....
....|..|F-5 ...F ....|G-3 9F.F ....|A-3 A..B ....
 G-3|..|D-5 ...B ....|G-2 28.. ....|--- .... ....
....|..|A-5 ...F ....|--- .... ....|B-8 J..F ....
....|..|F-5 ...B ....|--- .... ....|--- .... ....
....|..|F-5 ...F ....|G-4 2F3D ....|B-8 J..B ....
....|..|A-5 ...B ....|--- .... ....|--- .... ....
....|..|D-5 ...F ....|G-3 9F.F ....|B-8 U..F ....
 G-3|..|F-5 ...B ....|G-1 2A.. ....|--- .... ....
....|..|A#4 ...F ....|--- .... ....|B-8 J..B ....
....|..|D-5 ...B ....|--- .... ....|--- .... ....

[Pattern10]
....|..|A-4 MFAF ....|C-4 9F.F ....|A-3 AF.F ....
 C-3|..|E-5 ...B ....|C-2 2A.. ....|--- .... ....
....|..|C-5 ...F ....|--- .... ....|B-8 B..B ....
....|..|A-4 ...B ....|--- .... ....|--- .... ....
....|..|E-5 ...F ....|--- .... ....|B-8 J..F ....
....|..|C-5 ...B ....|--- .... ....|--- .... ....
....|..|G-5 ...F ....|C-5 2F4C ....|A-3 A..B ....
....|..|E-5 ...B ....|--- .... ....|--- .... ....
....|..|B-5 ...F ....|C-4 9F.F ....|B-8 8..F ....
 C-3|..|G-5 ...B ....|C-2 2A.. ....|--- .... ....
....|..|G-5 ...F ....|--- .... ....|B-8 J..B ....
....|..|B-5 ...B ....|--- .... ....|--- .... ....
....|..|E-5 ...F ....|--- .... ....|B-8 8..F ....
....|..|G-5 ...B ....|--- .... ....|--- .... ....
....|..|C-5 ...F ....|C-5 2F4C ....|B-8 8..B ....
....|..|E-5 ...B ....|--- .... ....|--- .... ....
....|..|A-4 ...F ....|C-3 9F.F ....|B-8 B..F ....
 C-3|..|C-5 ...B ....|C-2 2A.. ....|--- .... ....
....|..|C-5 ...F ....|--- .... ....|B-8 8..B ....
....|..|A-4 ...B ....|--- .... ....|--- .... ....
....|..|E-5 ...F ....|--- .... ....|B-8 J..F ....
....|..|C-5 ...B ....|--- .... ....|--- .... ....
....|..|G-5 ...F ....|--- .... ....|B-8 B..B ....
....|..|E-5 ...B ....|--- .... ....|--- .... ....
....|..|B-5 ...F ....|C-5 2F4C ....|B-8 J..F ....
....|..|G-5 ...B ....|--- .... ....|--- .... ....
....|..|G-5 ...F ....|--- .... ....|B-8 J..B ....
....|..|B-5 ...B ....|--- .... ....|--- .... ....
....|..|E-5 ...F ....|C-4 9F.F ....|B-8 U..F ....
 C-3|..|G-5 ...B ....|C-2 2A.. ....|--- .... ....
....|..|C-5 ...F ....|--- .... ....|B-8 J..B ....
....|..|E-5 ...B ....|--- .... ....|--- .... ....
....|..|B-4 ...F ....|B-4 9F.. ....|A-3 AF.F ....
 B-2|..|C-5 ...B ....|B-1 2A.. ....|--- .... ....
....|..|E-5 ...F ....|--- .... ....|B-8 8..B ....
....|..|B-4 ...B ....|--- .... ....|--- .... ....
....|..|G-5 ...F ....|B-4 2F5C ....|B-8 J..F ....
....|..|E-5 ...B ....|--- .... ....|--- .... ....
....|..|B-5 ...F ....|F-3 9F.F ....|A-3 A..B ....
 B-2|..|G-5 ...B ....|B-1 2A.. ....|--- .... ....
....|..|C-6 ...F ....|--- .... ....|B-8 8..F ....
....|..|B-5 ...B ....|--- .... ....|--- .... ....
....|..|B-5 ...F ....|B-4 2F5C ....|B-8 J..B ....
....|..|C-6 ...B ....|--- .... ....|--- .... ....
....|..|G-5 ...F ....|F-3 9F.F ....|A-3 A..F ....
 B-3|..|B-5 ...B ....|B-2 2A.. ....|--- .... ....
....|..|E-5 ...F ....|--- .... ....|B-8 8..B ....
....|..|G-5 ...B ....|--- .... ....|--- .... ....
....|..|B-4 ...F ....|A-3 9F.. ....|B-8 B..F ....
 B-2|..|E-5 ...B ....|B-1 2A.. ....|--- .... ....
....|..|E-5 ...F ....|--- .... ....|A-3 A..B ....
....|..|B-4 ...B ....|--- .... ....|--- .... ....
....|..|G-5 ...F ....|B-4 2F5C ....|B-8 J..F ....
....|..|E-5 ...B ....|--- .... ....|--- .... ....
....|..|B-5 ...F ....|B-3 9F.F ....|B-8 B..B ....
 B-3|..|G-5 ...B ....|B-2 2A.. ....|--- .... ....
....|..|C-6 ...F ....|--- .... ....|B-8 8..F ....
....|..|B-5 ...B ....|--- .... ....|--- .... ....
....|..|B-5 ...F ....|B-4 2F5C ....|B-8 J..B ....
....|..|C-6 ...B ....|--- .... ....|--- .... ....
....|..|G-5 ...F ....|B-3 9F.F ....|B-8 B..F ....
 B-2|..|B-5 ...B ....|B-1 2A.. ....|--- .... ....
....|..|E-5 ...F ....|--- .... ....|B-8 8..B ....
....|..|G-5 ...B ....|--- .... ....|--- .... ....

[Pattern11]
....|..|A#4 MFAF ....|A#3 9F.F ....|A-3 AF.F ....
 A#3|..|C-6 ...B ....|A#1 2A.. ....|--- .... ....
....|..|D-5 ...F ....|--- .... ....|B-8 B..B ....
....|..|A#4 ...B ....|--- .... ....|--- .... ....
....|..|F-5 ...F ....|--- .... ....|B-8 J..F ....
....|..|D-5 ...B ....|--- .... ....|--- .... ....
....|..|A-5 ...F ....|A#4 2F4D ....|A-3 A..B ....
....|..|F-5 ...B ....|--- .... ....|--- .... ....
....|..|A#5 ...F ....|A-3 9F.F ....|B-8 8..F ....
 A-3|..|A-5 ...B ....|A-1 2A.. ....|--- .... ....
....|..|A-5 ...F ....|--- .... ....|B-8 J..B ....
....|..|A#5 ...B ....|--- .... ....|--- .... ....
....|..|F-5 ...F ....|--- .... ....|B-8 8..F ....
....|..|A-5 ...B ....|--- .... ....|--- .... ....
....|..|D-5 ...F ....|A#4 2F4D ....|B-8 8..B ....
....|..|F-5 ...B ....|--- .... ....|--- .... ....
....|..|A#4 ...F ....|A#3 9F.F ....|B-8 B..F ....
 A#3|..|D-5 ...B ....|A#1 2A.. ....|--- .... ....
....|..|D-5 ...F ....|--- .... ....|B-8 8..B ....
....|..|A#4 ...B ....|--- .... ....|--- .... ....
....|..|F-5 ...F ....|--- .... ....|B-8 J..F ....
....|..|D-5 ...B ....|--- .... ....|--- .... ....
....|..|A-5 ...F ....|--- .... ....|B-8 B..B ....
....|..|F-5 ...B ....|--- .... ....|--- .... ....
....|..|A#5 ...F ....|A#4 2F4D ....|B-8 J..F ....
....|..|A-5 ...B ....|--- .... ....|--- .... ....
....|..|A-5 ...F ....|--- .... ....|B-8 J..B ....
....|..|A#5 ...B ....|--- .... ....|--- .... ....
....|..|F-5 ...F ....|A#3 9F.F ....|B-8 U..F ....
 A#3|..|A-5 ...B ....|A#1 2A.. ....|--- .... ....
....|..|D-5 ...F ....|--- .... ....|B-8 J..B ....
....|..|F-5 ...B ....|--- .... ....|--- .... ....
....|..|A-4 ...F ....|A-3 9F.. ....|A-3 AF.F ....
 A-3|..|D-5 ...B ....|A-1 2A.. ....|--- .... ....
....|..|E-5 ...F ....|--- .... ....|B-8 8..B ....
....|..|A-4 ...B ....|--- .... ....|--- .... ....
....|..|G-5 ...F ....|A-4 2F5D ....|B-8 J..F ....
....|..|E-5 ...B ....|--- .... ....|--- .... ....
....|..|A#5 ...F ....|A-3 9F.F ....|A-3 A..B ....
 A-3|..|G-5 ...B ....|A-1 2A.. ....|--- .... ....
....|..|A-4 ...F ....|--- .... ....|B-8 8..F ....
....|..|A#5 ...B ....|--- .... ....|--- .... ....
....|..|E-5 ...F ....|A-4 2F5D ....|B-8 J..B ....
....|..|A-4 ...B ....|--- .... ....|--- .... ....
....|..|G-5 ...F ....|A-3 9F.F ....|A-3 A..F ....
 A-3|..|E-5 ...B ....|A-1 2A.. ....|--- .... ....
....|..|C-6 ...F ....|--- .... ....|B-8 8..B ....
....|..|G-5 ...B ....|--- .... ....|--- .... ....
....|..|A-4 ...F ....|A-3 9F.. ....|B-8 B..F ....
 A-3|..|C-6 ...B ....|A-1 2A.. ....|--- .... ....
....|..|E-5 ...F ....|--- .... ....|A-3 A..B ....
....|..|A-4 ...B ....|--- .... ....|--- .... ....
....|..|G-5 ...F ....|A-4 2F5D ....|B-8 J..F ....
....|..|E-5 ...B ....|--- .... ....|--- .... ....
....|..|A#5 ...F ....|A-3 9F.F ....|B-8 B..B ....
 A-3|..|G-5 ...B ....|A-1 2A.. ....|--- .... ....
....|..|A-4 ...F ....|--- .... ....|B-8 8..F ....
....|..|A#5 ...B ....|--- .... ....|--- .... ....
....|..|E-5 ...F ....|A-4 2F5D ....|B-8 J..B ....
....|..|A-4 ...B ....|--- .... ....|--- .... ....
....|..|G-5 ...F ....|A-3 9F.F ....|B-8 B..F ....
 A-3|..|E-5 ...B ....|A-1 2A.. ....|--- .... ....
....|..|C-6 ...F ....|--- .... ....|B-8 8..B ....
....|..|G-5 ...B ....|--- .... ....|--- .... ....

[Pattern12]
....|..|G-4 MFAF ....|G-3 9F.F ....|A-3 AF.F ....
 G-3|..|A-4 ...B ....|G-1 2A.. ....|--- .... ....
....|..|B-4 ...F ....|--- .... ....|B-8 U..B ....
....|..|G-4 ...B ....|--- .... ....|--- .... ....
....|..|D-5 ...F ....|G-2 .... ....|B-8 J..F ....
....|..|B-4 ...B ....|--- .... ....|--- .... ....
....|..|E-5 ...F ....|G-4 2F4D ....|A-3 A..B ....
....|..|D-5 ...B ....|--- .... ....|--- .... ....
....|..|G-5 ...F ....|G-3 9F.F ....|G-4 2FAF ....
 G-3|..|E-5 ...B ....|G-1 2A.. ....|--- .... ....
....|..|E-5 ...F ....|--- .... ....|B-8 J..B ....
....|..|G-5 ...B ....|--- .... ....|--- .... ....
....|..|D-5 ...F ....|G-2 .... ....|B-8 8..F ....
....|..|E-5 ...B ....|--- .... ....|--- .... ....
....|..|B-4 ...F ....|G-4 2F4D ....|A-3 B..B ....
....|..|D-5 ...B ....|--- .... ....|--- .... ....
....|..|G-4 ...F ....|C-3 9F.F ....|A-3 A..F ....
 C-3|..|B-4 ...B ....|C-1 2A.. ....|--- .... ....
....|..|B-4 ...F ....|C-2 .... ....|B-8 8..B ....
....|..|G-4 ...B ....|--- .... ....|--- .... ....
....|..|D-5 ...F ....|C-1 .... ....|B-8 J..F ....
....|..|B-4 ...B ....|--- .... ....|--- .... ....
....|..|E-5 ...F ....|C-2 .... ....|A-3 A..B ....
....|..|D-5 ...B ....|--- .... ....|--- .... ....
....|..|G-5 ...F ....|G-4 2F4D ....|B-8 J..F ....
....|..|E-5 ...B ....|--- .... ....|--- .... ....
....|..|E-5 ...F ....|--- .... ....|B-8 J..B ....
....|..|G-5 ...B ....|--- .... ....|--- .... ....
....|..|D-5 ...F ....|E-3 9F.F ....|B-8 U..F ....
 E-3|..|E-5 ...B ....|E-1 2A.. ....|B-8 J..C ....
....|..|B-4 ...F ....|--- .... ....|B-8 J..B ....
....|..|D-5 ...B ....|--- .... ....|B-8 J..D ....
....|..|F-4 ...F ....|F-3 9F.. ....|A-3 AF.F ....
 F-3|..|B-4 ...B ....|F-1 2A.. ....|--- .... ....
....|..|A-4 ...F ....|--- .... ....|B-8 U..B ....
....|..|F-4 ...B ....|--- .... ....|--- .... ....
....|..|C-5 ...F ....|F-4 2F4D ....|B-8 J..F ....
....|..|A-4 ...B ....|--- .... ....|--- .... ....
....|..|E-5 ...F ....|F-3 9F.F ....|A-3 A..B ....
 F-3|..|C-5 ...B ....|F-1 2A.. ....|--- .... ....
....|..|F-5 ...F ....|F-2 .... ....|F-4 2FAF ....
....|..|E-5 ...B ....|F-2 .... ....|--- .... ....
....|..|E-5 ...F ....|F-3 2F4D ....|B-8 J..B ....
....|..|F-5 ...B ....|--- .... ....|--- .... ....
....|..|C-5 ...F ....|F-3 9F.F ....|A-4 2FAF ....
 F-3|..|E-5 ...B ....|F-1 2A.. ....|--- .... ....
....|..|A-4 ...F ....|--- .... ....|A-3 B..B ....
....|..|C-5 ...B ....|--- .... ....|--- .... ....
....|..|F-4 ...F ....|A-3 9F.. ....|A-3 A..F ....
 A-2|..|A-4 ...B ....|A-2 28.. ....|--- .... ....
....|..|A-4 ...F ....|--- .... ....|B-8 8..B ....
....|..|F-4 ...B ....|--- .... ....|--- .... ....
....|..|C-5 ...F ....|F-4 2F4D ....|B-8 J..F ....
....|..|A-4 ...B ....|--- .... ....|--- .... ....
....|..|E-5 ...F ....|A-3 9F.F ....|A-3 A..B ....
 A-2|..|C-5 ...B ....|A-1 2A.. ....|--- .... ....
....|..|F-5 ...F ....|--- .... ....|B-8 J..F ....
....|..|E-5 ...B ....|--- .... ....|--- .... ....
....|..|E-5 ...F ....|F-4 2F4D ....|B-8 J..B ....
....|..|F-5 ...B ....|--- .... ....|--- .... ....
....|..|C-5 ...F ....|A-3 9F.F ....|B-8 U..F ....
 A-3|..|E-5 ...B ....|A-1 2A.. ....|--- .... ....
....|..|A-4 ...F ....|--- .... ....|B-8 J..B ....
....|..|C-5 ...B ....|--- .... ....|--- .... ....

[Pattern13]
....|..|C-1 2F1E ....|C-4 9F.F ....|A-3 AF.F ....
 C-4|..|--- .... ....|C-2 2A.. ....|--- .... ....
 C-4|..|C-2 .... ....|--- .... ....|C-3 2A.B ....
....|..|--- .... ....|--- .... ....|--- .... ....
 G-4|..|G-4 5A.. ....|G-2 .A.. ....|A-3 AF.F ....
....|..|G-4 .... ....|--- .... ....|--- .... ....
 G-2|..|G-1 NC.. ....|C-4 2F4D ....|G-1 2C.B ....
....|..|--- .... ....|--- .... ....|--- .... ....
....|..|--- .... ....|C-4 9F.F ....|A-3 AF.F ....
 E-4|..|B-3 MA.. ....|E-2 2A.. ....|--- .... ....
 E-4|..|--- .... ....|--- .... ....|E-2 2A.B ....
....|..|--- .... ....|--- .... ....|--- .... ....
 G-4|..|G-5 .A.. ....|G-2 .A.. ....|A-3 AF.F ....
....|..|--- .... ....|--- .... ....|--- .... ....
 G-4|..|C-2 .F.. ....|C-4 2F4D ....|G-2 2A.B ....
....|..|--- .... ....|--- .... ....|--- .... ....
....|..|C-1 .... ....|C-4 9F.F ....|A-3 AF.F ....
 C-4|..|C-2 2A.. ....|C-2 2A.. ....|--- .... ....
 C-4|..|--- .... ....|C-3 .... ....|C-2 2A.B ....
....|..|--- .... ....|--- .... ....|--- .... ....
....|..|--- .... ....|C-1 .... ....|A-3 AF.F ....
....|..|--- .... ....|--- .... ....|--- .... ....
 C-4|..|--- .... ....|C-2 .... ....|C-2 2A.B ....
....|..|--- .... ....|--- .... ....|--- .... ....
....|..|--- .... ....|C-4 2F4D ....|A-3 AF.F ....
....|..|--- .... ....|--- .... ....|--- .... ....
 C-4|..|--- .... ....|--- .... ....|C-2 2A.B ....
....|..|--- .... ....|--- .... ....|--- .... ....
....|..|G-1 .... ....|C-4 9F.F ....|A-3 AF.F ....
 G-2|..|D-3 MC.. ....|G-1 2C.. ....|B-8 J..C ....
 G-2|..|--- .... ....|--- .... ....|G-1 2C.B ....
....|..|--- .... ....|--- .... ....|B-8 J..D ....
 A#3|..|D#4 MC.. ....|G-3 9F.. ....|A-3 AF.F ....
 A#3|..|F-3 .A.. ....|A#1 2A.. ....|--- .... ....
 A#4|..|--- .... ....|--- .... ....|A#2 2A.B ....
....|..|--- .... ....|--- .... ....|--- .... ....
....|..|--- .... ....|G-4 2F3D ....|A-3 AF.F ....
....|..|--- .... ....|--- .... ....|--- .... ....
 D-3|..|D-2 2A.. ....|G-3 9F.F ....|D-1 2A.B ....
 D-4|..|D-3 .... ....|D-2 2A.. ....|--- .... ....
....|..|--- .... ....|D-4 .... ....|A-3 AF.F ....
....|..|--- .... ....|D-3 .... ....|--- .... ....
 D-3|..|--- .... ....|G-4 2F3D ....|D-1 2A.B ....
....|..|--- .... ....|--- .... ....|--- .... ....
 F-4|..|F-2 2A.. ....|G-3 9F.F ....|A-3 AF.F ....
 F-4|..|F-2 .... ....|F-2 2A.. ....|--- .... ....
 F-3|..|--- .... ....|--- .... ....|F-1 2A.B ....
....|..|--- .... ....|--- .... ....|--- .... ....
....|..|--- .... ....|G-3 9F.. ....|A-3 AF.F ....
 E-3|..|E-4 M8.. ....|E-2 28.. ....|--- .... ....
 E-2|..|B-6 .... ....|--- .... ....|E-1 28.B ....
....|..|--- .... ....|--- .... ....|--- .... ....
....|..|--- .... ....|G-4 2F3D ....|A-3 AF.F ....
....|..|E-3 2... ....|--- .... ....|--- .... ....
 E-2|..|--- .... ....|G-3 9F.F ....|E-1 28.B ....
 A#2|..|A#1 .... ....|A#1 28.. ....|--- .... ....
....|..|--- .... ....|--- .... ....|A-3 AF.F ....
....|..|--- .... ....|--- .... ....|--- .... ....
 A#2|..|--- .... ....|G-4 2F3D ....|A#1 28.B ....
....|..|--- .... ....|--- .... ....|--- .... ....
 G-3|..|G-1 .A.. ....|G-3 9F.F ....|A-3 AF.F ....
 G-3|..|G-1 .... ....|G-1 2A.. ....|--- .... ....
 G-3|..|--- .... ....|--- .... ....|G-1 2A.B ....
....|..|--- .... ....|--- .... ....|--- .... ....

[Pattern14]
....|..|A-4 MFAF ....|C-4 9F.F ....|A-3 AF.F ....
 C-3|..|E-5 ...B ....|C-2 2A.. ....|--- .... ....
....|..|C-5 ...F ....|--- .... ....|B-8 B..B ....
....|..|A-4 ...B ....|--- .... ....|--- .... ....
....|..|E-5 ...F ....|--- .... ....|B-8 J..F ....
....|..|C-5 ...B ....|--- .... ....|--- .... ....
....|..|G-5 ...F ....|C-5 2F4C ....|A-3 A..B ....
....|..|E-5 ...B ....|--- .... ....|--- .... ....
....|..|B-5 ...F ....|C-4 9F.F ....|B-8 8..F ....
 C-3|..|G-5 ...B ....|C-2 2A.. ....|--- .... ....
....|..|G-5 ...F ....|--- .... ....|B-8 J..B ....
....|..|B-5 ...B ....|--- .... ....|--- .... ....
....|..|E-5 ...F ....|--- .... ....|B-8 8..F ....
....|..|G-5 ...B ....|--- .... ....|--- .... ....
....|..|C-5 ...F ....|C-5 2F4C ....|B-8 8..B ....
....|..|E-5 ...B ....|--- .... ....|--- .... ....
....|..|A-4 ...F ....|C-3 9F.F ....|B-8 B..F ....
 C-3|..|C-5 ...B ....|C-2 2A.. ....|--- .... ....
....|..|C-5 ...F ....|--- .... ....|B-8 8..B ....
....|..|A-4 ...B ....|--- .... ....|--- .... ....
....|..|E-5 ...F ....|--- .... ....|B-8 J..F ....
....|..|C-5 ...B ....|--- .... ....|--- .... ....
....|..|G-5 ...F ....|--- .... ....|B-8 B..B ....
....|..|E-5 ...B ....|--- .... ....|--- .... ....
....|..|B-5 ...F ....|C-5 2F4C ....|B-8 J..F ....
....|..|G-5 ...B ....|--- .... ....|--- .... ....
....|..|G-5 ...F ....|--- .... ....|B-8 J..B ....
....|..|B-5 ...B ....|--- .... ....|--- .... ....
....|..|E-5 ...F ....|C-4 9F.F ....|B-8 U..F ....
 C-3|..|G-5 ...B ....|C-2 2A.. ....|--- .... ....
....|..|C-5 ...F ....|--- .... ....|B-8 J..B ....
....|..|E-5 ...B ....|--- .... ....|--- .... ....
....|..|B-4 ...F ....|B-4 9F.. ....|A-3 AF.F ....
 B-2|..|C-5 ...B ....|B-1 2A.. ....|--- .... ....
....|..|E-5 ...F ....|--- .... ....|B-8 8..B ....
....|..|B-4 ...B ....|--- .... ....|--- .... ....
....|..|G-5 ...F ....|B-4 2F5C ....|B-8 J..F ....
....|..|E-5 ...B ....|--- .... ....|--- .... ....
....|..|B-5 ...F ....|F-3 9F.F ....|A-3 A..B ....
 B-2|..|G-5 ...B ....|B-1 2A.. ....|--- .... ....
....|..|C-6 ...F ....|--- .... ....|B-8 8..F ....
....|..|B-5 ...B ....|--- .... ....|--- .... ....
....|..|B-5 ...F ....|B-4 2F5C ....|B-8 J..B ....
....|..|C-6 ...B ....|--- .... ....|--- .... ....
....|..|G-5 ...F ....|F-3 9F.F ....|A-3 A..F ....
 B-3|..|B-5 ...B ....|B-2 2A.. ....|--- .... ....
....|..|E-5 ...F ....|--- .... ....|B-8 8..B ....
....|..|G-5 ...B ....|--- .... ....|--- .... ....
....|..|B-4 ...F ....|A-3 9F.. ....|B-8 B..F ....
 B-2|..|E-5 ...B ....|B-1 2A.. ....|--- .... ....
....|..|E-5 ...F ....|--- .... ....|A-3 A..B ....
....|..|B-4 ...B ....|--- .... ....|--- .... ....
....|..|G-5 ...F ....|B-4 2F5C ....|B-8 J..F ....
....|..|E-5 ...B ....|--- .... ....|--- .... ....
....|..|B-5 ...F ....|B-3 9F.F ....|B-8 B..B ....
 B-3|..|G-5 ...B ....|B-2 2A.. ....|--- .... ....
....|..|C-6 ...F ....|--- .... ....|B-8 8..F ....
....|..|B-5 ...B ....|--- .... ....|--- .... ....
....|..|B-5 ...F ....|B-4 2F5C ....|B-8 J..B ....
....|..|C-6 ...B ....|--- .... ....|--- .... ....
....|..|G-5 ...F ....|B-3 9F.F ....|B-8 B..F ....
 B-2|..|B-5 ...B ....|B-1 2A.. ....|--- .... ....
....|..|E-5 ...F ....|--- .... ....|B-8 8..B ....
....|..|G-5 ...B ....|--- .... ....|--- .... ....

[Pattern15]
....|..|A#4 OFAF ....|A#3 9F.F ....|A-3 AF.F ....
 A#3|..|C-6 ...B ....|A#1 2A.. ....|--- .... ....
....|..|D-5 ...F ....|--- .... ....|B-8 B..B ....
....|..|A#4 ...B ....|--- .... ....|--- .... ....
....|..|F-5 ...F ....|--- .... ....|B-8 J..F ....
....|..|D-5 ...B ....|--- .... ....|--- .... ....
....|..|A-5 ...F ....|A#4 2F4D ....|A-3 A..B ....
....|..|F-5 ...B ....|--- .... ....|--- .... ....
....|..|R-- .... ....|A-3 9F.F ....|B-8 8..F ....
 D-4|..|--- .... ....|D-2 2A.. ....|--- .... ....
....|..|D-5 ...A ....|--- .... ....|B-8 J..B ....
....|..|A#4 ...8 ....|--- .... ....|--- .... ....
....|..|F-5 ...A ....|--- .... ....|B-8 8..F ....
....|..|D-5 ...8 ....|--- .... ....|--- .... ....
....|..|A-5 ...A ....|A#4 2F4D ....|B-8 8..B ....
....|..|F-5 ...8 ....|--- .... ....|--- .... ....
....|..|D-5 ...9 ....|A#3 9F.F ....|B-8 B..F ....
 F-4|..|A#4 ...6 ....|F-2 2A.. ....|--- .... ....
....|..|F-5 ...9 ....|--- .... ....|B-8 8..B ....
....|..|D-5 ...6 ....|--- .... ....|--- .... ....
....|..|A#5 MFAF 21.2|--- .... ....|B-8 J..F ....
....|..|--- ...D ....|--- .... ....|--- .... ....
....|..|--- ...B 21.1|--- .... ....|B-8 B..B ....
....|..|--- ...F ....|--- .... ....|--- .... ....
....|..|A#5 .FAD 21.2|A#4 2F4D ....|B-8 J..F ....
....|..|--- ...B ....|--- .... ....|--- .... ....
....|..|--- ...F 21.1|--- .... ....|B-8 J..B ....
....|..|--- ...D ....|--- .... ....|--- .... ....
....|..|A#5 MFA9 21.2|A#3 9F.F ....|B-8 U..F ....
 A#3|..|--- ...8 ....|A#1 2A.. ....|--- .... ....
....|..|--- ...7 21.1|--- .... ....|B-8 J..B ....
....|..|--- ...9 ....|--- .... ....|--- .... ....
....|..|A-4 OF.F ....|A-3 9F.. ....|A-3 AF.F ....
 A-3|..|D-5 ...B ....|A-1 2A.. ....|--- .... ....
....|..|E-5 ...F ....|--- .... ....|B-8 8..B ....
....|..|A-4 ...B ....|--- .... ....|--- .... ....
....|..|G-5 ...F ....|A-4 2F5D ....|B-8 J..F ....
....|..|E-5 ...B ....|--- .... ....|--- .... ....
....|..|A#5 ...F ....|A-3 9F.F ....|A-3 A..B ....
 A#3|..|G-5 ...B ....|A#1 2A.. ....|--- .... ....
....|..|A-4 ...F ....|--- .... ....|B-8 8..F ....
....|..|A#5 ...B ....|--- .... ....|--- .... ....
....|..|E-5 ...F ....|A-4 2F5D ....|B-8 J..B ....
....|..|A-4 ...B ....|--- .... ....|--- .... ....
....|..|E-5 MFAF 11.2|A-3 9F.F ....|A-3 A..F ....
 E-4|..|--- ...D ....|E-2 2A.. ....|--- .... ....
....|..|--- ...B 11.1|--- .... ....|B-8 8..B ....
....|..|--- ...F ....|--- .... ....|--- .... ....
....|..|A-4 OFAF ....|A-3 9F.. ....|B-8 B..F ....
 G-4|..|C-6 ...B ....|G-2 2A.. ....|--- .... ....
....|..|E-5 ...F ....|--- .... ....|A-3 A..B ....
....|..|A-4 ...B ....|--- .... ....|--- .... ....
....|..|E-5 MFAF 11.2|A-4 2F5D ....|B-8 J..F ....
....|..|--- ...D ....|--- .... ....|--- .... ....
....|..|--- ...B 11.1|A-3 9F.F ....|B-8 B..B ....
 A-3|..|--- ...F ....|A-1 2A.. ....|--- .... ....
....|..|A-4 O..F ....|--- .... ....|B-8 8..F ....
....|..|A#5 ...B ....|--- .... ....|--- .... ....
....|..|E-5 ...F ....|A-4 2F5D ....|B-8 J..B ....
....|..|A-4 ...B ....|--- .... ....|--- .... ....
....|..|G-5 ...F ....|A-3 9F.F ....|B-8 B..F ....
 F-3|..|E-5 ...B ....|F-1 2A.. ....|--- .... ....
....|..|C-6 ...F ....|--- .... ....|B-8 8..B ....
....|..|G-5 ...B ....|--- .... ....|--- .... ....

[Pattern16]
....|..|G-4 MFAF ....|G-3 9F.F ....|A-3 AF.F ....
 G-3|..|A-4 ...B ....|G-1 2A.. ....|--- .... ....
....|..|B-4 ...F ....|--- .... ....|B-8 U..B ....
....|..|G-4 ...B ....|--- .... ....|--- .... ....
....|..|D-5 ...F ....|G-2 .... ....|B-8 J..F ....
....|..|B-4 ...B ....|--- .... ....|--- .... ....
....|..|E-5 ...F ....|G-4 2F4D ....|A-3 A..B ....
....|..|D-5 ...B ....|--- .... ....|--- .... ....
....|..|G-5 ...F ....|G-3 9F.F ....|G-4 2FAF ....
 G-3|..|E-5 ...B ....|G-1 2A.. ....|--- .... ....
....|..|E-5 ...F ....|--- .... ....|B-8 J..B ....
....|..|G-5 ...B ....|--- .... ....|--- .... ....
....|..|D-5 ...F ....|G-2 .... ....|B-8 8..F ....
....|..|E-5 ...B ....|--- .... ....|--- .... ....
....|..|B-4 ...F ....|G-4 2F4D ....|A-3 B..B ....
....|..|D-5 ...B ....|--- .... ....|--- .... ....
....|..|G-4 ...F ....|C-3 9F.F ....|A-3 A..F ....
 C-3|..|B-4 ...B ....|C-1 2A.. ....|--- .... ....
....|..|B-4 ...F ....|C-2 .... ....|B-8 8..B ....
....|..|G-4 ...B ....|--- .... ....|--- .... ....
....|..|D-5 ...F ....|C-1 .... ....|B-8 J..F ....
....|..|B-4 ...B ....|--- .... ....|--- .... ....
....|..|E-5 ...F ....|C-2 .... ....|A-3 A..B ....
....|..|D-5 ...B ....|--- .... ....|--- .... ....
....|..|G-5 ...F ....|G-4 2F4D ....|B-8 J..F ....
....|..|E-5 ...B ....|--- .... ....|--- .... ....
....|..|E-5 ...F ....|--- .... ....|B-8 J..B ....
....|..|G-5 ...B ....|--- .... ....|--- .... ....
....|..|D-5 ...F ....|E-3 9F.F ....|B-8 U..F ....
 E-3|..|E-5 ...B ....|E-1 2A.. ....|B-8 J..C ....
....|..|B-4 ...F ....|--- .... ....|B-8 J..B ....
....|..|D-5 ...B ....|--- .... ....|B-8 J..D ....
....|..|F-4 ...F ....|F-3 9F.. ....|A-3 AF.F ....
 F-3|..|B-4 ...B ....|F-1 2A.. ....|--- .... ....
....|..|A-4 ...F ....|--- .... ....|B-8 U..B ....
....|..|F-4 ...B ....|--- .... ....|--- .... ....
....|..|C-5 ...F ....|F-4 2F4D ....|B-8 J..F ....
....|..|A-4 ...B ....|--- .... ....|--- .... ....
....|..|E-5 ...F ....|F-3 9F.F ....|A-3 A..B ....
 F-3|..|C-5 ...B ....|F-1 2A.. ....|--- .... ....
....|..|F-5 ...F ....|F-2 .... ....|F-4 2FAF ....
....|..|E-5 ...B ....|F-2 .... ....|--- .... ....
....|..|E-5 ...F ....|F-3 2F4D ....|B-8 J..B ....
....|..|F-5 ...B ....|--- .... ....|--- .... ....
....|..|C-5 ...F ....|F-3 9F.F ....|A-4 2FAF ....
 F-3|..|E-5 ...B ....|F-1 2A.. ....|--- .... ....
....|..|A-4 ...F ....|--- .... ....|A-3 B..B ....
....|..|C-5 ...B ....|--- .... ....|--- .... ....
....|..|F-4 ...F ....|A-3 9F.. ....|A-3 A..F ....
 A-2|..|A-4 ...B ....|A-2 28.. ....|--- .... ....
....|..|A-4 ...F ....|--- .... ....|B-8 8..B ....
....|..|F-4 ...B ....|--- .... ....|--- .... ....
....|..|C-5 ...F ....|F-4 2F4D ....|B-8 J..F ....
....|..|A-4 ...B ....|--- .... ....|--- .... ....
....|..|E-5 ...F ....|A-3 9F.F ....|A-3 A..B ....
 A-2|..|C-5 ...B ....|A-1 2A.. ....|--- .... ....
....|..|F-5 ...F ....|--- .... ....|B-8 J..F ....
....|..|E-5 ...B ....|--- .... ....|--- .... ....
....|..|E-5 ...F ....|F-4 2F4D ....|B-8 J..B ....
....|..|F-5 ...B ....|--- .... ....|--- .... ....
....|..|C-5 ...F ....|A-3 9F.F ....|B-8 U..F ....
 A-3|..|E-5 ...B ....|A-1 2A.. ....|--- .... ....
....|..|A-4 ...F ....|--- .... ....|B-8 J..B ....
....|..|C-5 ...B ....|--- .... ....|--- .... ....

[Pattern17]
....|..|C-4 2F.F ....|A-3 9F.F ....|A-3 AF.F ....
 A-3|..|--- .... ....|A-1 2A.. ....|--- .... ....
....|..|--- .... ....|--- .... ....|B-8 B..B ....
....|..|--- .... ....|--- .... ....|--- .... ....
....|..|D-4 ...F 31.A|A-2 .... ....|B-8 J..F ....
....|..|--- .... ....|--- .... ....|--- .... ....
....|..|--- .... ....|A-3 2F3D ....|A-3 A..B ....
....|..|--- .... ....|--- .... ....|--- .... ....
....|..|C-4 ...F ....|A-3 9F.F ....|B-8 8..F ....
 A-3|..|--- .... ....|A-1 2A.. ....|--- .... ....
....|..|--- .... ....|--- .... ....|B-8 J..B ....
....|..|--- .... ....|--- .... ....|--- .... ....
....|..|D-4 ...B 31.A|A-2 .... ....|B-8 8..F ....
....|..|--- .... ....|--- .... ....|--- .... ....
....|..|--- .... ....|A-3 2F3D ....|B-8 8..B ....
....|..|--- .... ....|--- .... ....|--- .... ....
....|..|C-3 ...F ....|C-3 9F.F ....|B-8 B..F ....
 C-3|..|--- .... ....|C-1 2A.. ....|--- .... ....
....|..|--- .... ....|C-2 .... ....|B-8 8..B ....
....|..|--- .... ....|--- .... ....|--- .... ....
....|..|C-6 MFAF 21.2|--- .... ....|B-8 J..F ....
....|..|--- ...D ....|--- .... ....|--- .... ....
....|..|--- ...B 21.1|--- .... ....|B-8 B..B ....
....|..|--- ...F ....|--- .... ....|--- .... ....
....|..|A-3 .F3D 21..|C-6 MFAB 21.2|B-8 J..F ....
....|..|--- ...B ....|--- ...A ....|--- .... ....
....|..|--- ...F ....|--- ...9 21.1|B-8 J..B ....
....|..|--- ...D ....|--- ...B ....|--- .... ....
....|..|C-6 MFA9 21.2|E-3 9F.F ....|B-8 U..F ....
 E-3|..|--- ...8 ....|E-1 2A.. ....|--- .... ....
....|..|--- ...7 21.1|--- .... ....|B-8 J..B ....
....|..|--- ...9 ....|--- .... ....|--- .... ....
....|..|A-3 2F.F 2...|F-3 9F.. ....|A-3 AF.F ....
 F-3|..|--- .... ....|F-1 2A.. ....|--- .... ....
....|..|--- .... ....|--- .... ....|B-8 8..B ....
....|..|--- .... ....|--- .... ....|--- .... ....
....|..|B-3 ...F 31.A|F-3 2F4D ....|B-8 1F.F ....
....|..|--- .... ....|--- .... ....|--- .... ....
....|..|--- .... ....|F-3 9F.F ....|A-3 A..B ....
 F-3|..|--- .... ....|F-1 2A.. ....|--- .... ....
....|..|A-3 ...F ....|F-2 .... ....|B-8 8..F ....
....|..|--- .... ....|F-2 .... ....|--- .... ....
....|..|--- .... ....|F-3 2F4D ....|B-8 1..B ....
....|..|--- .... ....|--- .... ....|--- .... ....
....|..|E-5 MFAF 11.2|F-3 9F.F ....|A-3 A..F ....
 F-3|..|--- ...D ....|F-1 2A.. ....|--- .... ....
....|..|--- ...B 11.1|--- .... ....|B-8 8..B ....
....|..|--- ...F ....|--- .... ....|--- .... ....
....|..|A-3 .F3D 21..|E-5 MFAB 11.2|B-8 B..F ....
 A-2|..|--- ...B ....|--- ...A ....|--- .... ....
....|..|--- ...F ....|--- ...9 11.1|A-3 A..B ....
....|..|--- ...D ....|--- ...B ....|--- .... ....
....|..|E-5 MFAF 11.2|G-3 2F4D ....|B-8 J..F ....
....|..|--- ...D ....|--- .... ....|--- .... ....
....|..|--- ...B 11.1|A-3 9F.F ....|B-8 B..B ....
 A-2|..|--- ...F ....|A-1 2A.. ....|--- .... ....
....|..|B-3 2F.F 2...|--- .... ....|B-8 8..F ....
....|..|--- .... ....|--- .... ....|--- .... ....
....|..|--- .... ....|G-3 2F4D ....|B-8 J..B ....
....|..|--- .... ....|--- .... ....|--- .... ....
....|..|A-3 ...B 31.A|A-3 9F.F ....|B-8 B..F ....
 A-3|..|--- .... ....|A-1 2A.. ....|--- .... ....
....|..|--- .... ....|--- .... ....|B-8 8..B ....
....|..|--- .... ....|--- .... ....|--- .... ....

[Pattern18]
....|..|C-4 2F.F ....|A-3 9F.F ....|A-3 AF.F ....
 A-3|..|--- .... ....|A-1 2A.. ....|--- .... ....
....|..|A-3 2F3D ....|--- .... ....|B-8 B..B ....
....|..|--- .... ....|--- .... ....|--- .... ....
....|..|D-4 2F.F 31.A|--- .... ....|B-8 J..F ....
....|..|--- .... ....|--- .... ....|--- .... ....
....|..|A-3 2F7D ....|A-3 2F3D ....|A-3 A..B ....
....|..|--- .... ....|--- .... ....|--- .... ....
....|..|C-4 2F.F ....|A-3 9F.F ....|B-8 8..F ....
 A-3|..|--- .... ....|A-1 2A.. ....|--- .... ....
....|..|A-3 2F7. ....|--- .... ....|B-8 J..B ....
....|..|--- .... ....|--- .... ....|--- .... ....
....|..|D-4 2F.B 31.A|--- .... ....|B-8 8..F ....
....|..|--- .... ....|--- .... ....|--- .... ....
....|..|--- .... ....|A-3 2F3D ....|B-8 8..B ....
....|..|--- .... ....|--- .... ....|--- .... ....
....|..|C-4 2F.F ....|C-3 9F.F ....|B-8 B..F ....
 C-3|..|--- .... ....|C-1 2A.. ....|--- .... ....
....|..|A-3 2F3D ....|--- .... ....|B-8 8..B ....
....|..|--- .... ....|--- .... ....|--- .... ....
....|..|D-4 2F.F 31.A|--- .... ....|B-8 J..F ....
....|..|--- .... ....|--- .... ....|--- .... ....
....|..|A-3 2F7D ....|--- .... ....|B-8 B..B ....
....|..|--- .... ....|--- .... ....|--- .... ....
....|..|C-4 2F.F ....|A-3 2F3D ....|B-8 J..F ....
....|..|--- .... ....|--- .... ....|--- .... ....
....|..|A-3 2F7. ....|--- .... ....|B-8 J..B ....
....|..|--- .... ....|--- .... ....|--- .... ....
....|..|D-4 2F.B 31.A|E-3 9F.F ....|B-8 U..F ....
 E-3|..|--- .... ....|E-1 2A.. ....|--- .... ....
....|..|--- .... ....|--- .... ....|B-8 J..B ....
....|..|--- .... ....|--- .... ....|--- .... ....
....|..|A-3 2F.F ....|F-3 9F.. ....|A-3 AF.F ....
 F-3|..|--- .... ....|F-1 2A.. ....|--- .... ....
....|..|F-3 2F8D ....|--- .... ....|B-8 8..B ....
....|..|A-3 .F.D ....|--- .... ....|--- .... ....
....|..|B-3 2F.F 31.A|F-3 2F4D ....|B-8 J..F ....
....|..|--- .... ....|--- .... ....|--- .... ....
....|..|F-3 2F4D ....|F-3 9F.F ....|A-3 A..B ....
 F-3|..|--- .... ....|F-1 2A.. ....|--- .... ....
....|..|A-3 2F.F ....|--- .... ....|B-8 8..F ....
....|..|--- .... ....|--- .... ....|--- .... ....
....|..|F-3 2F4D ....|F-3 2F4D ....|B-8 J..B ....
....|..|A-3 .F.D ....|--- .... ....|--- .... ....
....|..|B-3 2F.B 31.A|F-3 9F.F ....|A-3 A..F ....
 F-3|..|--- .... ....|F-1 2A.. ....|--- .... ....
....|..|--- .... ....|--- .... ....|B-8 8..B ....
....|..|--- .... ....|--- .... ....|--- .... ....
....|..|B-3 2F.F ....|A-3 9F.. ....|B-8 B..F ....
 A-3|..|--- .... ....|A-1 2A.. ....|--- .... ....
....|..|G-3 .F8D ....|--- .... ....|A-3 A..B ....
....|..|B-3 .F.D ....|--- .... ....|--- .... ....
....|..|A-3 2F.F 31.A|G-3 2F4D ....|B-8 J..F ....
....|..|--- .... ....|--- .... ....|--- .... ....
....|..|G-3 .F8D ....|A-3 9F.F ....|B-8 B..B ....
 A-3|..|--- .... ....|A-1 2A.. ....|--- .... ....
....|..|B-3 2F.F ....|--- .... ....|B-8 8..F ....
....|..|--- .... ....|--- .... ....|--- .... ....
....|..|G-3 .F8D ....|G-3 2F4D ....|B-8 J..B ....
....|..|--- .... ....|--- .... ....|--- .... ....
....|..|A-3 2F.B 31.A|A-3 9F.F ....|B-8 B..F ....
 A-3|..|--- .... ....|A-1 2A.. ....|--- .... ....
....|..|--- .... ....|--- .... ....|B-8 8..B ....
....|..|--- .... ....|--- .... ....|--- .... ....

[Pattern19]
 A-3|..|C-4 2F.F ....|A-1 2A.. ....|A-3 AF.F ....
....|..|--- .... ....|--- .... ....|--- .... ....
....|..|--- .... ....|--- .... ....|B-8 U..B ....
....|..|--- .... ....|--- ...1 ....|--- .... ....
....|..|D-4 ...F 31.A|--- .... ....|B-8 J..F ....
....|..|--- .... ....|A-3 2F31 ....|--- .... ....
....|..|--- .... ....|--- .... ....|A-3 A..B ....
....|..|--- .... ....|A-3 9F.1 ....|--- .... ....
 A-3|..|E-4 2FAF ....|A-1 2A.. ....|C-4 2F.F ....
....|..|R-- .... ....|--- .... ....|--- .... ....
....|..|E-4 ...F ....|--- .... ....|B-8 J..B ....
....|..|R-- .... ....|--- .... ....|--- .... ....
....|..|F-4 ...F ....|--- .... ....|B-8 8..F ....
....|..|--- .... ....|A-3 2F31 ....|--- .... ....
....|..|E-4 .F.B ....|--- .... ....|A-3 B..B ....
....|..|--- .... ....|C-3 9F.1 ....|--- .... ....
 C-3|..|F-4 .FAC ....|C-1 2A.. ....|A-3 A..C ....
....|..|--- .... ....|--- .... ....|--- .... ....
....|..|--- .... ....|--- .... ....|B-8 8..9 ....
....|..|--- .... ....|--- .... ....|--- .... ....
....|..|--- ...9 ....|--- .... ....|B-8 J..C ....
....|..|--- .... ....|--- .... ....|--- .... ....
....|..|R-- .... ....|--- .... ....|A-3 A..9 ....
....|..|--- .... ....|A-3 2F71 ....|--- .... ....
....|..|F-4 ...9 ....|--- .... ....|B-8 J..C ....
....|..|--- .... ....|--- .... ....|--- .... ....
....|..|--- .... ....|--- .... ....|B-8 J..9 ....
....|..|--- .... ....|E-3 9F.1 ....|--- .... ....
 E-3|..|--- ...9 11.1|E-1 2A.. ....|B-8 U..C ....
....|..|--- .... ....|--- .... ....|B-8 J..C ....
....|..|--- .... ....|--- .... ....|B-8 J..9 ....
....|..|--- .... ....|F-3 9F.. ....|B-8 J..D ....
 F-3|..|A-3 2F.A ....|F-1 2A.. ....|A-3 AF.A ....
....|..|--- .... ....|--- .... ....|--- .... ....
....|..|--- .... ....|--- .... ....|B-8 U..7 ....
....|..|--- .... ....|F-3 2F41 ....|--- .... ....
....|..|B-3 ...A 31.A|--- .... ....|B-8 J..A ....
....|..|--- .... ....|F-3 9F.1 ....|--- .... ....
 F-3|..|--- .... ....|F-1 2A.. ....|A-3 A..7 ....
....|..|--- .... ....|--- .... ....|--- .... ....
....|..|A-3 2FA7 ....|--- .... ....|A-3 2F.A ....
....|..|--- .... ....|F-3 2F41 ....|--- .... ....
....|..|--- .... ....|--- .... ....|B-8 J..7 ....
....|..|--- .... ....|F-3 9F.1 ....|--- .... ....
 F-3|..|B-3 .FA7 31.A|F-1 2A.. ....|B-3 2F.A ....
....|..|--- .... ....|--- .... ....|--- .... ....
....|..|--- .... ....|--- .... ....|A-3 B..7 ....
....|..|--- .... ....|A-3 9F.. ....|--- .... ....
 A-3|..|--- .... ....|A-1 2A.. ....|A-3 A..9 ....
....|..|--- .... ....|--- .... ....|--- .... ....
....|..|A-3 .... ....|--- .... ....|B-8 8..6 ....
....|..|--- .... ....|G-3 2F41 ....|--- .... ....
....|..|A-3 ...9 31.A|--- .... ....|B-8 J..9 ....
....|..|--- .... ....|A-3 9F.1 ....|--- .... ....
 A-3|..|--- ...6 ....|A-1 2A.. ....|A-3 A..6 ....
....|..|--- .... ....|--- .... ....|--- .... ....
....|..|E-3 ...9 ....|--- .... ....|B-8 J..9 ....
....|..|--- .... ....|G-3 2F41 ....|--- .... ....
....|..|A-3 .F.6 ....|--- .... ....|B-8 J..6 ....
....|..|--- .... ....|A-3 9F.1 ....|--- .... ....
 A-3|..|A-3 .F.9 31.A|A-1 2A.. ....|B-8 U..9 ....
....|..|--- .... ....|--- .... ....|--- .... ....
....|..|E-3 .FA6 ....|--- .... ....|B-8 J..6 ....
....|..|--- .... ....|--- .... ....|--- .... ....

[Pattern20]
 A-3|..|C-4 2F.7 ....|A-1 2A.. ....|A-3 AF.7 ....
....|..|--- .... ....|--- .... ....|--- .... ....
....|..|--- .... ....|--- .... ....|B-8 B..5 ....
....|..|--- .... ....|--- ...1 ....|--- .... ....
....|..|D-4 ...7 31.A|--- .... ....|B-8 J..7 ....
....|..|--- .... ....|A-3 2F31 ....|--- .... ....
....|..|--- .... ....|--- .... ....|A-3 A..5 ....
....|..|--- .... ....|A-3 9F.1 ....|--- .... ....
 A-3|..|C-4 ...7 ....|A-1 2A.. ....|C-4 2F.7 ....
....|..|--- .... ....|--- .... ....|--- .... ....
....|..|--- .... ....|--- .... ....|B-8 J..5 ....
....|..|--- .... ....|--- .... ....|--- .... ....
....|..|E-3 2FA7 ....|--- .... ....|B-8 8..7 ....
....|..|--- .... ....|A-3 2F31 ....|--- .... ....
....|..|--- .... 11.1|--- .... ....|B-8 8..5 ....
....|..|--- .... ....|C-3 9F.1 ....|--- .... ....
 C-3|..|E-3 ...6 ....|C-1 2A.. ....|B-8 B..6 ....
....|..|--- .... ....|--- .... ....|--- .... ....
....|..|E-3 ...4 ....|--- .... ....|B-8 8..4 ....
....|..|--- .... ....|--- .... ....|--- .... ....
....|..|F-3 ...6 ....|--- .... ....|B-8 J..6 ....
....|..|--- .... ....|--- .... ....|--- .... ....
....|..|E-3 ...4 ....|--- .... ....|B-8 B..4 ....
....|..|--- .... ....|A-3 2F71 ....|--- .... ....
....|..|E-3 ...6 ....|--- .... ....|B-8 J..6 ....
....|..|--- .... ....|--- .... ....|--- .... ....
....|..|--- .... ....|--- .... ....|B-8 J..4 ....
....|..|--- .... ....|E-3 9F.1 ....|--- .... ....
 E-3|..|--- ...4 11.1|E-1 2A.. ....|B-8 U..6 ....
....|..|--- .... ....|--- .... ....|--- .... ....
....|..|--- .... ....|--- .... ....|B-8 J..4 ....
....|..|--- .... ....|F-3 9F.. ....|--- .... ....
 F-3|..|A-3 ...5 ....|F-1 2A.. ....|A-3 AF.5 ....
....|..|--- .... ....|--- .... ....|--- .... ....
....|..|--- .... ....|--- .... ....|B-8 8..3 ....
....|..|--- .... ....|F-3 2F41 ....|--- .... ....
....|..|B-3 ...5 31.A|--- .... ....|B-8 1F.5 ....
....|..|--- .... ....|F-3 9F.1 ....|--- .... ....
 F-3|..|--- .... ....|F-1 2A.. ....|A-3 A..3 ....
....|..|--- .... ....|--- .... ....|--- .... ....
....|..|A-3 ...5 ....|--- .... ....|A-3 2F.5 ....
....|..|--- .... ....|F-3 2F41 ....|--- .... ....
....|..|--- .... ....|--- .... ....|B-8 1..3 ....
....|..|--- .... ....|F-3 9F.1 ....|--- .... ....
 F-3|..|E-3 2FA5 ....|F-1 2A.. ....|B-3 2F.5 ....
....|..|--- .... ....|--- .... ....|--- .... ....
....|..|--- .... 11.1|--- .... ....|B-8 8..3 ....
....|..|--- .... ....|A-3 9F.. ....|--- .... ....
 A-3|..|E-3 ...3 ....|A-1 2A.. ....|B-8 B..3 ....
....|..|--- .... ....|--- .... ....|--- .... ....
....|..|E-3 ...1 ....|--- .... ....|A-3 A..1 ....
....|..|--- .... ....|G-3 2F41 ....|--- .... ....
....|..|F-3 ...3 ....|--- .... ....|B-8 J..3 ....
....|..|--- .... ....|A-3 9F.1 ....|--- .... ....
 A-3|..|E-3 ...1 ....|A-1 2A.. ....|B-8 B..1 ....
....|..|--- .... ....|--- .... ....|--- .... ....
....|..|E-3 ...3 ....|--- .... ....|B-8 8..3 ....
....|..|--- .... ....|G-3 2F41 ....|--- .... ....
....|..|--- .... ....|--- .... ....|B-8 J..1 ....
....|..|--- .... ....|A-3 9F.1 ....|--- .... ....
 A-3|..|A-3 ...1 31.A|A-1 2A.. ....|B-8 B..3 ....
....|..|--- .... ....|--- .... ....|--- .... ....
....|..|--- .... ....|--- .... ....|B-8 8..1 ....
....|..|--- .... ....|--- .... ....|--- .... ....

[Pattern21]
 A-3|..|A-1 2A.. ....|R-- .... ....|R-- .... ....
....|..|--- .... ....|--- .... ....|--- .... ....
....|..|--- .... ....|--- .... ....|--- .... ....
....|..|--- ...1 ....|--- .... ....|--- .... ....
....|..|--- .... ....|--- .... ....|--- .... ....
....|..|A-3 2F31 ....|--- .... ....|--- .... ....
....|..|--- .... ....|--- .... ....|--- .... ....
....|..|A-3 9F.1 ....|--- .... ....|--- .... ....
 A-3|..|A-1 2A.. ....|--- .... ....|--- .... ....
....|..|--- .... ....|--- .... ....|--- .... ....
....|..|--- .... ....|--- .... ....|--- .... ....
....|..|--- .... ....|--- .... ....|--- .... ....
....|..|--- .... ....|--- .... ....|--- .... ....
....|..|A-3 2F31 ....|--- .... ....|--- .... ....
....|..|--- .... ....|--- .... ....|--- .... ....
....|..|C-3 9F.1 ....|--- .... ....|--- .... ....
 C-3|..|C-1 2A.. ....|--- .... ....|--- .... ....
....|..|--- .... ....|--- .... ....|--- .... ....
....|..|--- .... ....|--- .... ....|--- .... ....
....|..|--- .... ....|--- .... ....|--- .... ....
....|..|--- .... ....|--- .... ....|--- .... ....
....|..|--- .... ....|--- .... ....|--- .... ....
....|..|--- .... ....|--- .... ....|--- .... ....
....|..|A-3 2F71 ....|--- .... ....|--- .... ....
....|..|--- .... ....|--- .... ....|--- .... ....
....|..|--- .... ....|--- .... ....|--- .... ....
....|..|--- .... ....|--- .... ....|--- .... ....
....|..|E-3 9F.1 ....|--- .... ....|--- .... ....
 E-3|..|E-1 2A.. ....|--- .... ....|--- .... ....
....|..|--- .... ....|--- .... ....|--- .... ....
....|..|--- .... ....|--- .... ....|--- .... ....
....|..|F-3 9F.. ....|--- .... ....|--- .... ....
 F-3|..|F-1 2A.. ....|--- .... ....|--- .... ....
....|..|--- .... ....|--- .... ....|--- .... ....
....|..|--- .... ....|--- .... ....|--- .... ....
....|..|F-3 2F41 ....|--- .... ....|--- .... ....
....|..|--- .... ....|--- .... ....|--- .... ....
....|..|F-3 9F.1 ....|--- .... ....|--- .... ....
 F-3|..|F-1 2A.. ....|--- .... ....|--- .... ....
....|..|--- .... ....|--- .... ....|--- .... ....
....|..|--- .... ....|--- .... ....|--- .... ....
....|..|F-3 2F41 ....|--- .... ....|--- .... ....
....|..|--- .... ....|--- .... ....|--- .... ....
....|..|F-3 9F.1 ....|--- .... ....|--- .... ....
 F-3|..|F-1 2A.. ....|--- .... ....|--- .... ....
....|..|--- .... ....|--- .... ....|--- .... ....
....|..|--- .... ....|--- .... ....|--- .... ....
....|..|A-3 9F.. ....|--- .... ....|--- .... ....
 A-3|..|A-1 2A.. ....|--- .... ....|--- .... ....
....|..|--- .... ....|--- .... ....|--- .... ....
....|..|--- .... ....|--- .... ....|--- .... ....
....|..|G-3 2F41 ....|--- .... ....|--- .... ....
....|..|--- .... ....|--- .... ....|--- .... ....
....|..|A-3 9F.1 ....|--- .... ....|--- .... ....
 A-3|..|A-1 2A.. ....|--- .... ....|--- .... ....
....|..|--- .... ....|--- .... ....|--- .... ....
....|..|--- .... ....|--- .... ....|--- .... ....
....|..|G-3 2F41 ....|--- .... ....|--- .... ....
....|..|--- .... ....|--- .... ....|--- .... ....
....|..|A-3 9F.1 ....|--- .... ....|--- .... ....
 A-3|..|A-1 2A.. ....|--- .... ....|--- .... ....
....|..|--- .... ....|--- .... ....|--- .... ....
....|..|--- .... ....|--- .... ....|--- .... ....
....|..|--- .... ....|--- .... ....|--- .... ....

[Pattern22]
....|..|A-3 NF.F ....|A-3 MFAF ....|B-8 8F.F ....
....|..|E-3 .F.B ....|E-3 .F.B ....|--- .... ....
....|..|G-3 .F.F ....|G-3 .FAF ....|B-8 B..B ....
....|..|A-3 .F.B ....|A-3 .F.B ....|--- .... ....
....|..|F-3 .F.F ....|F-3 .FAF ....|B-8 J..F ....
....|..|G-3 .F.B ....|G-3 .F.B ....|--- .... ....
....|..|E-3 .F.F ....|E-3 .FAF ....|B-8 8..B ....
....|..|F-3 .F.B ....|F-3 .F.B ....|--- .... ....
....|..|A-3 .F.F ....|A-3 .FAF ....|B-8 8..F ....
....|..|E-3 .F.B ....|E-3 .F.B ....|--- .... ....
....|..|G-3 .F.F ....|G-3 .FAF ....|B-8 J..B ....
....|..|A-3 .F.B ....|A-3 .F.B ....|--- .... ....
....|..|F-3 .F.F ....|F-3 .FAF ....|B-8 8..F ....
....|..|G-3 .F.B ....|G-3 .F.B ....|--- .... ....
....|..|E-3 .F.F ....|E-3 .FAF ....|B-8 8..B ....
....|..|F-3 .F.B ....|F-3 .F.B ....|--- .... ....
....|..|A-3 .F.F ....|A-3 .FAF ....|B-8 U..F ....
....|..|E-3 .F.B ....|E-3 .F.B ....|--- .... ....
....|..|G-3 .F.F ....|G-3 .FAF ....|B-8 8..B ....
....|..|A-3 .F.B ....|A-3 .F.B ....|--- .... ....
....|..|F-3 .F.F ....|F-3 .FAF ....|B-8 J..F ....
....|..|G-3 .F.B ....|G-3 .F.B ....|--- .... ....
....|..|E-3 .F.F ....|E-3 .FAF ....|B-8 U..B ....
....|..|F-3 .F.B ....|F-3 .F.B ....|--- .... ....
....|..|A-3 .F.F ....|A-3 .FAF ....|B-8 8..F ....
....|..|E-3 .F.B ....|E-3 .F.B ....|--- .... ....
....|..|G-3 .F.F ....|G-3 .FAF ....|B-8 J..B ....
....|..|A-3 .F.B ....|A-3 .F.B ....|--- .... ....
....|..|F-3 .F.F ....|F-3 .FAF ....|B-8 U..F ....
....|..|G-3 .F.B ....|G-3 .F.B ....|--- .... ....
....|..|E-3 .F.F ....|E-3 .FAF ....|B-8 8..B ....
....|..|F-3 .F.B ....|F-3 .F.B ....|--- .... ....
....|..|A-3 .F.F ....|A-3 .FAF ....|B-8 8F.F ....
....|..|E-3 .F.B ....|E-3 .F.B ....|--- .... ....
....|..|G-3 .F.F ....|G-3 .FAF ....|B-8 8..B ....
....|..|A-3 .F.B ....|A-3 .F.B ....|--- .... ....
....|..|F-3 .F.F ....|F-3 .FAF ....|B-8 J..F ....
....|..|G-3 .F.B ....|G-3 .F.B ....|--- .... ....
....|..|E-3 .F.F ....|E-3 .FAF ....|B-8 8..B ....
....|..|F-3 .F.B ....|F-3 .F.B ....|--- .... ....
....|..|A-3 .F.F ....|A-3 .FAF ....|B-8 8..F ....
....|..|E-3 .F.B ....|E-3 .F.B ....|--- .... ....
....|..|G-3 .F.F ....|G-3 .FAF ....|B-8 J..B ....
....|..|A-3 .F.B ....|A-3 .F.B ....|--- .... ....
....|..|F-3 .F.F ....|F-3 .FAF ....|B-8 8..F ....
....|..|G-3 .F.B ....|G-3 .F.B ....|--- .... ....
....|..|E-3 .F.F ....|E-3 .FAF ....|B-8 8..B ....
....|..|F-3 .F.B ....|F-3 .F.B ....|--- .... ....
....|..|A-3 .F.F ....|A-3 .FAF ....|B-8 B..F ....
....|..|E-3 .F.B ....|E-3 .F.B ....|--- .... ....
....|..|G-3 .F.F ....|G-3 .FAF ....|B-8 8..B ....
....|..|A-3 .F.B ....|A-3 .F.B ....|--- .... ....
....|..|F-3 .F.F ....|F-3 .FAF ....|B-8 J..F ....
....|..|G-3 .F.B ....|G-3 .F.B ....|--- .... ....
....|..|E-3 .F.F ....|E-3 .FAF ....|B-8 B..B ....
....|..|F-3 .F.B ....|F-3 .F.B ....|--- .... ....
....|..|A-3 .F.F ....|A-3 .FAF ....|B-8 8..F ....
....|..|E-3 .F.B ....|E-3 .F.B ....|--- .... ....
....|..|G-3 .F.F ....|G-3 .FAF ....|B-8 J..B ....
....|..|A-3 .F.B ....|A-3 .F.B ....|--- .... ....
....|..|F-3 .F.F ....|F-3 .FAF ....|B-8 B..F ....
....|..|G-3 .F.B ....|G-3 .F.B ....|--- .... ....
....|..|E-3 .F.F ....|E-3 .FAF ....|B-8 8..B ....
....|..|F-3 .F.B ....|F-3 .F.B ....|--- .... ....

[Pattern23]
....|..|R-- .... ....|R-- .... ....|R-- .... ....
....|..|--- .... ....|--- .... ....|--- .... ....
....|..|--- .... ....|--- .... ....|--- .... ....
....|..|--- .... ....|--- .... ....|--- .... ....
....|..|--- .... ....|--- .... ....|--- .... ....
....|..|--- .... ....|--- .... ....|--- .... ....
....|..|--- .... ....|--- .... ....|--- .... ....
....|..|--- .... ....|--- .... ....|--- .... ....
....|..|--- .... ....|--- .... ....|--- .... ....
....|..|--- .... ....|--- .... ....|--- .... ....
....|..|--- .... ....|--- .... ....|--- .... ....
....|..|--- .... ....|--- .... ....|--- .... ....
....|..|--- .... ....|--- .... ....|--- .... ....
....|..|--- .... ....|--- .... ....|--- .... ....
....|..|--- .... ....|--- .... ....|--- .... ....
....|..|--- .... ....|--- .... ....|--- .... ....
....|..|--- .... ....|--- .... ....|--- .... ....
....|..|--- .... ....|--- .... ....|--- .... ....
....|..|--- .... ....|--- .... ....|--- .... ....
....|..|--- .... ....|--- .... ....|--- .... ....
....|..|--- .... ....|--- .... ....|--- .... ....
....|..|--- .... ....|--- .... ....|--- .... ....
....|..|--- .... ....|--- .... ....|--- .... ....
....|..|--- .... ....|--- .... ....|--- .... ....
....|..|--- .... ....|--- .... ....|--- .... ....
....|..|--- .... ....|--- .... ....|--- .... ....
....|..|--- .... ....|--- .... ....|--- .... ....
....|..|--- .... ....|--- .... ....|--- .... ....
....|..|--- .... ....|--- .... ....|--- .... ....
....|..|--- .... ....|--- .... ....|--- .... ....
....|..|--- .... ....|--- .... ....|--- .... ....
....|..|--- .... ....|--- .... ....|--- .... ....
....|..|--- .... ....|--- .... ....|--- .... ....
....|..|--- .... ....|--- .... ....|--- .... ....
....|..|--- .... ....|--- .... ....|--- .... ....
....|..|--- .... ....|--- .... ....|--- .... ....
....|..|--- .... ....|--- .... ....|--- .... ....
....|..|--- .... ....|--- .... ....|--- .... ....
....|..|--- .... ....|--- .... ....|--- .... ....
....|..|--- .... ....|--- .... ....|--- .... ....
....|..|--- .... ....|--- .... ....|--- .... ....
....|..|--- .... ....|--- .... ....|--- .... ....
....|..|--- .... ....|--- .... ....|--- .... ....
....|..|--- .... ....|--- .... ....|--- .... ....
....|..|--- .... ....|--- .... ....|--- .... ....
....|..|--- .... ....|--- .... ....|--- .... ....
....|..|--- .... ....|--- .... ....|--- .... ....
....|..|--- .... ....|--- .... ....|--- .... ....
....|..|--- .... ....|--- .... ....|--- .... ....
....|..|--- .... ....|--- .... ....|--- .... ....
....|..|--- .... ....|--- .... ....|--- .... ....
....|..|--- .... ....|--- .... ....|--- .... ....
....|..|--- .... ....|--- .... ....|--- .... ....
....|..|--- .... ....|--- .... ....|--- .... ....
....|..|--- .... ....|--- .... ....|--- .... ....
....|..|--- .... ....|--- .... ....|--- .... ....
....|..|--- .... ....|--- .... ....|--- .... ....
....|..|--- .... ....|--- .... ....|--- .... ....
....|..|--- .... ....|--- .... ....|--- .... ....
....|..|--- .... ....|--- .... ....|--- .... ....
....|..|--- .... ....|--- .... ....|--- .... ....
....|..|--- .... ....|--- .... ....|--- .... ....
....|..|--- .... ....|--- .... ....|--- .... ....
....|..|--- .... ....|--- .... ....|--- .... ....

[Pattern24]
 G#4|..|A#2 9F.F ....|C-4 DF.F ....|D-5 1F3. ....
 D-3|..|D-1 NA.. ....|--- ...B ....|--- .... ....
....|..|--- .... ....|C-4 L... ....|--- .... ....
....|..|--- .... ....|C-4 K... ....|--- .... ....
 D-4|..|D-2 2E.. ....|C-4 ...F ....|--- .... ....
....|..|--- .... ....|--- .... ....|--- .... ....
 D-2|..|D-1 NA.. ....|C-4 L..B ....|--- .... ....
....|..|--- .... ....|C-4 K... ....|--- .... ....
 D-4|..|D-2 MA.. ....|C-4 L... ....|--- .... ....
....|..|--- .... ....|C-4 K... ....|--- .... ....
 F-4|..|A#1 1A.. ....|C-4 ...F ....|--- .... ....
....|..|--- .... ....|--- .... ....|--- .... ....
....|..|--- .... ....|C-4 A..F ....|--- .... ....
....|..|--- .... ....|--- ...B ....|--- .... ....
....|..|--- .... ....|C-4 L... ....|--- .... ....
....|..|--- .... ....|C-4 K... ....|--- .... ....
 G#4|..|A#2 9F.F ....|C-4 .... ....|--- .... ....
 D-3|..|D-1 NA.. ....|--- .... ....|--- .... ....
....|..|--- .... ....|C-4 H..F ....|--- .... ....
....|..|--- .... ....|--- .... ....|--- .... ....
 D-4|..|D-2 2E.. ....|F-4 F..F ....|--- .... ....
....|..|--- .... ....|--- .... ....|--- .... ....
 D-2|..|D-1 NA.. ....|C-4 L..B ....|--- .... ....
....|..|--- .... ....|C-4 K... ....|--- .... ....
 D-4|..|D-2 MA.. ....|C-4 L... ....|--- .... ....
....|..|--- .... ....|C-4 K... ....|--- .... ....
 F-4|..|A#1 1A.. ....|C-4 ...F ....|--- .... ....
....|..|--- .... ....|--- .... ....|--- .... ....
....|..|--- .... ....|C-4 D..F ....|--- .... ....
....|..|--- .... ....|--- .... ....|--- .... ....
....|..|--- .... ....|C-4 B..B ....|--- .... ....
....|..|--- .... ....|--- .... ....|--- .... ....
 G#4|..|A#2 9F.F ....|E-4 E... ....|--- .... ....
 D-3|..|D-1 NA.. ....|--- ...B ....|--- .... ....
....|..|--- .... ....|F-4 ...F ....|--- .... ....
....|..|--- .... ....|--- .... ....|--- .... ....
 D-4|..|D-2 2E.. ....|C-4 H... ....|--- .... ....
....|..|--- .... ....|--- ...B ....|--- .... ....
 D-2|..|D-1 NA.. ....|C-4 L... ....|--- .... ....
....|..|--- .... ....|C-4 K... ....|--- .... ....
 D-4|..|D-2 MA.. ....|C-4 L... ....|--- .... ....
....|..|--- .... ....|C-4 K... ....|--- .... ....
....|..|--- .... ....|C-4 ...F ....|--- .... ....
....|..|--- .... ....|--- .... ....|--- .... ....
....|..|--- .... ....|C-4 H... ....|--- .... ....
....|..|--- .... ....|--- ...B ....|--- .... ....
....|..|--- .... ....|C-4 L... ....|--- .... ....
....|..|--- .... ....|C-4 K... ....|--- .... ....
 F-4|..|A#1 1A.. ....|F-4 E..F ....|--- .... ....
....|..|--- .... ....|--- ...B ....|--- .... ....
....|..|--- .... ....|C-4 L... ....|--- .... ....
....|..|--- .... ....|C-4 K... ....|--- .... ....
....|..|--- .... ....|F-4 E..F ....|--- .... ....
....|..|--- .... ....|--- .... ....|--- .... ....
....|..|--- .... ....|C-4 D... ....|--- .... ....
....|..|--- .... ....|--- .... ....|--- .... ....
....|..|--- .... ....|F-4 F... ....|--- .... ....
....|..|--- .... ....|--- ...B ....|--- .... ....
....|..|--- .... ....|C-4 K..F ....|--- .... ....
....|..|--- .... ....|C-4 L... ....|--- .... ....
 F-4|..|--- .... ....|C-4 K... ....|--- .... ....
....|..|--- .... ....|--- ...B ....|--- .... ....
 F-4|..|--- .... ....|C-4 ...F ....|--- .... ....
....|..|--- .... ....|C-4 L... ....|--- .... ....

[Pattern25]
....|..|C-4 2F.F ....|A-3 9F.F ....|C-4 DF.F ....
 A-3|..|--- .... ....|A-1 2A.. ....|--- ...B ....
....|..|D-4 ...F 31.A|--- .... ....|C-4 L... ....
....|..|--- .... ....|--- .... ....|C-4 K... ....
....|..|C-4 ...F ....|--- .... ....|C-4 ...F ....
....|..|--- .... ....|--- .... ....|--- .... ....
....|..|E-3 2FAF ....|A-3 2F3D ....|A#4 E... ....
....|..|--- .... 11.1|--- .... ....|--- .... ....
....|..|E-3 ...F ....|A-3 9F.F ....|A#4 F... ....
 A-3|..|E-3 ...B ....|A-1 2A.. ....|--- ...B ....
....|..|F-3 ...F ....|--- .... ....|A#4 C..F ....
....|..|E-3 ...B ....|--- .... ....|--- .... ....
....|..|E-3 ...F ....|--- .... ....|C-4 D... ....
....|..|--- .... ....|--- .... ....|--- ...B ....
....|..|--- ...B 11.1|A-3 2F3D ....|C-4 L... ....
....|..|--- .... ....|--- .... ....|C-4 K... ....
....|..|A-3 ...F ....|C-3 9F.F ....|C-4 .... ....
 C-3|..|--- .... ....|C-1 2A.. ....|--- .... ....
....|..|B-3 ...F 31.A|--- .... ....|C-4 H..F ....
....|..|--- .... ....|--- .... ....|--- ...B ....
....|..|A-3 ...F ....|--- .... ....|C-4 L... ....
....|..|--- .... ....|--- .... ....|C-4 K... ....
....|..|E-3 2FAF ....|--- .... ....|C-4 ...F ....
....|..|--- .... 11.1|--- .... ....|--- .... ....
....|..|E-3 ...F ....|A-3 2F7D ....|C-4 D... ....
....|..|E-3 ...B ....|--- .... ....|--- ...B ....
....|..|F-3 ...F ....|--- .... ....|C-4 L... ....
....|..|E-3 ...B ....|--- .... ....|C-4 K... ....
....|..|E-3 ...F ....|E-3 9F.F ....|C-4 ...F ....
 E-3|..|--- .... ....|E-1 2A.. ....|--- .... ....
....|..|A-3 ...B 31.A|--- .... ....|C-4 D... ....
....|..|--- .... ....|--- .... ....|--- .... ....
....|..|A-3 ...F ....|F-3 9F.. ....|C-4 C... ....
 F-3|..|--- .... ....|F-1 2A.. ....|--- ...B ....
....|..|--- .... ....|--- .... ....|--- ...F ....
....|..|--- .... ....|--- .... ....|--- .... ....
....|..|B-3 ...F 31.A|F-3 2F4D ....|C-4 H... ....
....|..|--- .... ....|--- .... ....|--- ...B ....
....|..|--- .... ....|F-3 9F.F ....|C-4 L... ....
 F-3|..|--- .... ....|F-1 2A.. ....|C-4 K... ....
....|..|A-3 ...F ....|--- .... ....|A#4 F... ....
....|..|--- .... ....|--- .... ....|--- .... ....
....|..|--- .... ....|F-3 2F4D ....|C-4 D..F ....
....|..|--- .... ....|--- .... ....|--- ...B ....
....|..|E-3 2FAF ....|F-3 9F.F ....|C-4 L... ....
 F-3|..|--- .... ....|F-1 2A.. ....|C-4 K... ....
....|..|--- .... 11.1|--- .... ....|C-4 ...F ....
....|..|--- .... ....|--- .... ....|--- .... ....
....|..|E-3 ...F ....|A-3 9F.. ....|C-4 H... ....
 A-3|..|--- .... ....|A-1 2A.. ....|--- ...B ....
....|..|E-3 ...B ....|--- .... ....|C-4 L... ....
....|..|--- .... ....|--- .... ....|C-4 K... ....
....|..|F-3 ...F ....|G-3 2F4D ....|A#4 E..F ....
....|..|--- .... ....|--- .... ....|--- .... ....
....|..|E-3 ...B ....|A-3 9F.F ....|C-4 D... ....
 A-3|..|--- .... ....|A-1 2A.. ....|--- .... ....
....|..|E-3 ...F ....|--- .... ....|A#4 F... ....
....|..|--- .... ....|--- .... ....|--- ...B ....
....|..|--- .... ....|G-3 2F4D ....|C-4 K..F ....
....|..|--- .... ....|--- .... ....|C-4 L... ....
....|..|A-3 ...B 31.A|A-3 9F.F ....|C-4 K... ....
 A-3|..|--- .... ....|A-1 2A.. ....|--- ...B ....
....|..|--- .... ....|--- .... ....|C-4 ...F ....
....|..|--- .... ....|--- .... ....|C-4 L... ....

[Pattern26]
 A-2|..|A-1 9F.F ....|C-4 DF.F ....|A-4 1F3D ....
....|..|--- .... ....|--- .... ....|C-4 ...A ....
 A-3|..|A-1 NA.. ....|C-4 ...B ....|A-3 ...D ....
....|..|--- .... ....|--- .... ....|A-4 ...A ....
....|..|--- .... ....|C-4 L... ....|A-2 ...D ....
....|..|--- .... ....|C-4 K... ....|A-3 ...A ....
....|..|--- .... ....|C-4 L... ....|A-4 ...D ....
....|..|--- .... ....|C-4 K... ....|A-2 ...A ....
 A-2|..|A-1 2E.. ....|C-4 ...F ....|A-3 ...D ....
....|..|--- .... ....|--- .... ....|A-4 ...A ....
....|..|--- .... ....|--- .... ....|A-2 ...D ....
....|..|--- .... ....|--- .... ....|A-3 ...A ....
 A-3|..|A-2 NA.. ....|C-4 L..B ....|A-4 ...D ....
....|..|--- .... ....|--- .... ....|A-2 ...A ....
....|..|--- .... ....|C-4 K... ....|A-3 ...D ....
....|..|--- .... ....|--- .... ....|A-4 ...A ....
 A-2|..|A-1 MA.. ....|C-4 L... ....|A-2 ...D ....
....|..|--- .... ....|--- .... ....|A-3 ...A ....
....|..|--- .... ....|C-4 K... ....|A-4 ...D ....
....|..|--- .... ....|--- .... ....|A-2 ...A ....
 A-2|..|A-1 1A.. ....|C-2 9..F ....|A-3 ...D ....
....|..|--- .... ....|--- .... ....|A-4 ...A ....
....|..|--- .... ....|R-- .... ....|A-2 ...D ....
....|..|--- .... ....|--- .... ....|A-3 ...A ....
....|..|--- .... ....|C-4 A..F ....|A-4 ...D ....
....|..|--- .... ....|--- .... ....|A-2 ...A ....
....|..|--- .... ....|--- ...B ....|A-3 ...D ....
....|..|--- .... ....|--- .... ....|A-4 ...A ....
....|..|--- .... ....|C-4 L... ....|A-4 .1.D ....
....|..|--- .... ....|--- .... ....|A-3 ...A ....
....|..|--- .... ....|C-4 K... ....|A-3 ...D ....
....|..|--- .... ....|--- .... ....|A-4 ...A ....
 G#4|..|E-2 9F.F ....|C-4 DF.F ....|E-4 ...D ....
....|..|--- .... ....|--- .... ....|A-3 ...A ....
 E-3|..|E-1 NA.. ....|C-4 ...B ....|E-3 ...D ....
....|..|--- .... ....|--- .... ....|E-4 ...A ....
....|..|--- .... ....|C-4 L... ....|E-2 ...D ....
....|..|--- .... ....|C-4 K... ....|E-3 ...A ....
....|..|--- .... ....|C-4 L... ....|E-4 ...D ....
....|..|--- .... ....|C-4 K... ....|E-2 ...A ....
 E-3|..|E-1 2E.. ....|C-4 ...F ....|E-3 ...D ....
....|..|--- .... ....|--- .... ....|E-4 ...A ....
....|..|--- .... ....|--- .... ....|E-2 ...D ....
....|..|--- .... ....|--- .... ....|E-3 ...A ....
 E-3|..|E-1 NA.. ....|E-4 E..B ....|E-4 ...D ....
....|..|--- .... ....|--- .... ....|E-2 ...A ....
....|..|--- .... ....|E-4 C... ....|E-3 ...D ....
....|..|--- .... ....|--- .... ....|E-4 ...A ....
 E-4|..|E-2 MA.. ....|C-4 B... ....|E-2 ...D ....
....|..|--- .... ....|--- .... ....|E-3 ...A ....
....|..|--- .... ....|C-4 B... ....|E-4 ...D ....
....|..|--- .... ....|--- .... ....|E-2 ...A ....
 E-3|..|E-1 1A.. ....|C-2 9..F ....|E-3 ...D ....
....|..|--- .... ....|--- .... ....|E-4 ...A ....
....|..|--- .... ....|R-- .... ....|E-2 ...D ....
....|..|--- .... ....|--- .... ....|E-3 ...A ....
....|..|--- .... ....|C-4 A..F ....|E-4 ...D ....
....|..|--- .... ....|--- .... ....|E-2 ...A ....
....|..|--- .... ....|--- ...B ....|E-3 ...D ....
....|..|--- .... ....|--- .... ....|E-4 ...A ....
....|..|--- .... ....|C-4 L... ....|E-4 ...D ....
....|..|--- .... ....|--- .... ....|E-3 ...A ....
....|..|--- .... ....|C-4 K... ....|E-3 ...D ....
....|..|--- .... ....|--- .... ....|E-4 ...A ....
 G#4|..|F-2 9F.F ....|C-4 DF.F ....|F-4 .F4D ....
....|..|--- .... ....|--- .... ....|E-3 ...A ....
 F-3|..|F-1 NA.. ....|C-4 ...B ....|F-3 ...D ....
....|..|--- .... ....|--- .... ....|F-4 ...A ....
....|..|--- .... ....|C-4 L... ....|F-2 ...D ....
....|..|--- .... ....|C-4 K... ....|F-3 ...A ....
....|..|--- .... ....|C-4 L... ....|F-4 ...D ....
....|..|--- .... ....|C-4 K... ....|F-2 ...A ....
 F-3|..|F-1 2E.. ....|C-4 ...F ....|F-3 ...D ....
....|..|--- .... ....|--- .... ....|F-4 ...A ....
....|..|--- .... ....|--- .... ....|F-2 ...D ....
....|..|--- .... ....|--- .... ....|F-3 ...A ....
 F-4|..|F-2 NA.. ....|C-4 L..B ....|F-4 ...D ....
....|..|--- .... ....|--- .... ....|F-2 ...A ....
....|..|--- .... ....|C-4 K... ....|F-3 ...D ....
....|..|--- .... ....|--- .... ....|F-4 ...A ....
 F-4|..|F-2 MA.. ....|C-4 L... ....|F-2 ...D ....
....|..|--- .... ....|--- .... ....|F-3 ...A ....
....|..|--- .... ....|C-4 K... ....|F-4 ...D ....
....|..|--- .... ....|--- .... ....|F-2 ...A ....
....|..|--- .... ....|C-2 9..F ....|F-3 ...D ....
....|..|--- .... ....|--- .... ....|F-4 ...A ....
....|..|--- .... ....|R-- .... ....|F-2 ...D ....
....|..|--- .... ....|--- .... ....|F-3 ...A ....
....|..|--- .... ....|C-4 A..F ....|F-4 ...D ....
....|..|--- .... ....|--- .... ....|F-2 ...A ....
....|..|--- .... ....|--- ...B ....|F-3 ...D ....
....|..|--- .... ....|--- .... ....|F-4 ...A ....
....|..|--- .... ....|C-4 L... ....|F-4 ...D ....
....|..|--- .... ....|--- .... ....|F-3 ...A ....
....|..|--- .... ....|C-4 K... ....|F-3 ...D ....
....|..|--- .... ....|--- .... ....|F-4 ...A ....
 C-3|..|C-1 NA.. ....|C-4 DF.F ....|C-5 .F4D ....
....|..|--- .... ....|--- .... ....|F-3 ...A ....
....|..|--- .... ....|C-4 ...B ....|C-4 ...D ....
....|..|--- .... ....|--- .... ....|C-4 ...A ....
....|..|--- .... ....|C-4 L... ....|C-3 ...D ....
....|..|--- .... ....|C-4 K... ....|C-3 ...A ....
....|..|--- .... ....|C-4 L... ....|C-5 ...D ....
....|..|--- .... ....|C-4 K... ....|C-2 ...A ....
....|..|--- .... ....|C-4 ...F ....|C-4 .1.D ....
....|..|--- .... ....|--- .... ....|C-4 ...A ....
....|..|--- .... ....|--- .... ....|C-3 ...D ....
....|..|--- .... ....|--- .... ....|C-3 ...A ....
....|..|--- .... ....|E-4 E..B ....|C-5 ...D ....
....|..|--- .... ....|--- .... ....|C-2 ...A ....
....|..|--- .... ....|E-4 C... ....|C-4 ...D ....
....|..|--- .... ....|--- .... ....|C-4 ...A ....
....|..|--- .... ....|C-4 B... ....|C-3 ...D ....
....|..|--- .... ....|--- .... ....|C-3 ...A ....
....|..|--- .... ....|C-4 B... ....|C-5 ...D ....
....|..|--- .... ....|--- .... ....|C-2 ...A ....
....|..|--- .... ....|C-2 9..F ....|C-4 ...D ....
....|..|--- .... ....|--- .... ....|C-4 ...A ....
....|..|--- .... ....|R-- .... ....|C-3 ...D ....
....|..|--- .... ....|--- .... ....|C-3 ...A ....
 F-4|..|--- .... ....|C-4 A..F ....|C-5 ...D ....
....|..|--- .... ....|--- .... ....|C-2 ...A ....
....|..|--- .... ....|--- ...B ....|C-4 ...D ....
....|..|--- .... ....|--- .... ....|C-4 ...A ....
 F-4|..|--- .... ....|C-4 L... ....|C-5 ...D ....
....|..|--- .... ....|--- .... ....|C-3 ...A ....
....|..|--- .... ....|C-4 K... ....|C-4 ...D ....
....|..|--- .... ....|--- .... ....|C-4 ...A ....

[Pattern27]
....|..|--- .... ....|--- .... ....|--- .... ....
....|..|--- .... ....|--- .... ....|--- .... ....
....|..|--- .... ....|--- .... ....|--- .... ....
....|..|--- .... ....|--- .... ....|--- .... ....
....|..|--- .... ....|--- .... ....|--- .... ....
....|..|--- .... ....|--- .... ....|--- .... ....
....|..|--- .... ....|--- .... ....|--- .... ....
....|..|--- .... ....|--- .... ....|--- .... ....
....|..|--- .... ....|--- .... ....|--- .... ....
....|..|--- .... ....|--- .... ....|--- .... ....
....|..|--- .... ....|--- .... ....|--- .... ....
....|..|--- .... ....|--- .... ....|--- .... ....
....|..|--- .... ....|--- .... ....|--- .... ....
....|..|--- .... ....|--- .... ....|--- .... ....
....|..|--- .... ....|--- .... ....|--- .... ....
....|..|--- .... ....|--- .... ....|--- .... ....
....|..|--- .... ....|--- .... ....|--- .... ....
....|..|--- .... ....|--- .... ....|--- .... ....
....|..|--- .... ....|--- .... ....|--- .... ....
....|..|--- .... ....|--- .... ....|--- .... ....
....|..|--- .... ....|--- .... ....|--- .... ....
....|..|--- .... ....|--- .... ....|--- .... ....
....|..|--- .... ....|--- .... ....|--- .... ....
....|..|--- .... ....|--- .... ....|--- .... ....
....|..|--- .... ....|--- .... ....|--- .... ....
....|..|--- .... ....|--- .... ....|--- .... ....
....|..|--- .... ....|--- .... ....|--- .... ....
....|..|--- .... ....|--- .... ....|--- .... ....
....|..|--- .... ....|--- .... ....|--- .... ....
....|..|--- .... ....|--- .... ....|--- .... ....
....|..|--- .... ....|--- .... ....|--- .... ....
....|..|--- .... ....|--- .... ....|--- .... ....
....|..|--- .... ....|--- .... ....|--- .... ....
....|..|--- .... ....|--- .... ....|--- .... ....
....|..|--- .... ....|--- .... ....|--- .... ....
....|..|--- .... ....|--- .... ....|--- .... ....
....|..|--- .... ....|--- .... ....|--- .... ....
....|..|--- .... ....|--- .... ....|--- .... ....
....|..|--- .... ....|--- .... ....|--- .... ....
....|..|--- .... ....|--- .... ....|--- .... ....
....|..|--- .... ....|--- .... ....|--- .... ....
....|..|--- .... ....|--- .... ....|--- .... ....
....|..|--- .... ....|--- .... ....|--- .... ....
....|..|--- .... ....|--- .... ....|--- .... ....
....|..|--- .... ....|--- .... ....|--- .... ....
....|..|--- .... ....|--- .... ....|--- .... ....
....|..|--- .... ....|--- .... ....|--- .... ....
....|..|--- .... ....|--- .... ....|--- .... ....
....|..|--- .... ....|--- .... ....|--- .... ....
....|..|--- .... ....|--- .... ....|--- .... ....
....|..|--- .... ....|--- .... ....|--- .... ....
....|..|--- .... ....|--- .... ....|--- .... ....
....|..|--- .... ....|--- .... ....|--- .... ....
....|..|--- .... ....|--- .... ....|--- .... ....
....|..|--- .... ....|--- .... ....|--- .... ....
....|..|--- .... ....|--- .... ....|--- .... ....
....|..|--- .... ....|--- .... ....|--- .... ....
....|..|--- .... ....|--- .... ....|--- .... ....
....|..|--- .... ....|--- .... ....|--- .... ....
....|..|--- .... ....|--- .... ....|--- .... ....
....|..|--- .... ....|--- .... ....|--- .... ....
....|..|--- .... ....|--- .... ....|--- .... ....
....|..|--- .... ....|--- .... ....|--- .... ....
....|..|--- .... ....|--- .... ....|--- .... ....
....|..|--- .... ....|--- .... ....|--- .... ....
....|..|--- .... ....|--- .... ....|--- .... ....
....|..|--- .... ....|--- .... ....|--- .... ....
....|..|--- .... ....|--- .... ....|--- .... ....
....|..|--- .... ....|--- .... ....|--- .... ....
....|..|--- .... ....|--- .... ....|--- .... ....
....|..|--- .... ....|--- .... ....|--- .... ....
....|..|--- .... ....|--- .... ....|--- .... ....
....|..|--- .... ....|--- .... ....|--- .... ....
....|..|--- .... ....|--- .... ....|--- .... ....
....|..|--- .... ....|--- .... ....|--- .... ....
....|..|--- .... ....|--- .... ....|--- .... ....
....|..|--- .... ....|--- .... ....|--- .... ....
....|..|--- .... ....|--- .... ....|--- .... ....
....|..|--- .... ....|--- .... ....|--- .... ....
....|..|--- .... ....|--- .... ....|--- .... ....
....|..|--- .... ....|--- .... ....|--- .... ....
....|..|--- .... ....|--- .... ....|--- .... ....
....|..|--- .... ....|--- .... ....|--- .... ....
....|..|--- .... ....|--- .... ....|--- .... ....
....|..|--- .... ....|--- .... ....|--- .... ....
....|..|--- .... ....|--- .... ....|--- .... ....
....|..|--- .... ....|--- .... ....|--- .... ....
....|..|--- .... ....|--- .... ....|--- .... ....
....|..|--- .... ....|--- .... ....|--- .... ....
....|..|--- .... ....|--- .... ....|--- .... ....
....|..|--- .... ....|--- .... ....|--- .... ....
....|..|--- .... ....|--- .... ....|--- .... ....
....|..|--- .... ....|--- .... ....|--- .... ....
....|..|--- .... ....|--- .... ....|--- .... ....
....|..|--- .... ....|--- .... ....|--- .... ....
....|..|--- .... ....|--- .... ....|--- .... ....
....|..|--- .... ....|--- .... ....|--- .... ....
....|..|--- .... ....|--- .... ....|--- .... ....
....|..|--- .... ....|--- .... ....|--- .... ....
....|..|--- .... ....|--- .... ....|--- .... ....
....|..|--- .... ....|--- .... ....|--- .... ....
....|..|--- .... ....|--- .... ....|--- .... ....
....|..|--- .... ....|--- .... ....|--- .... ....
....|..|--- .... ....|--- .... ....|--- .... ....
....|..|--- .... ....|--- .... ....|--- .... ....
....|..|--- .... ....|--- .... ....|--- .... ....
....|..|--- .... ....|--- .... ....|--- .... ....
....|..|--- .... ....|--- .... ....|--- .... ....
....|..|--- .... ....|--- .... ....|--- .... ....
....|..|--- .... ....|--- .... ....|--- .... ....
....|..|--- .... ....|--- .... ....|--- .... ....
....|..|--- .... ....|--- .... ....|--- .... ....
....|..|--- .... ....|--- .... ....|--- .... ....
....|..|--- .... ....|--- .... ....|--- .... ....
....|..|--- .... ....|--- .... ....|--- .... ....
....|..|--- .... ....|--- .... ....|--- .... ....
....|..|--- .... ....|--- .... ....|--- .... ....
....|..|--- .... ....|--- .... ....|--- .... ....
....|..|--- .... ....|--- .... ....|--- .... ....
....|..|--- .... ....|--- .... ....|--- .... ....
....|..|--- .... ....|--- .... ....|--- .... ....
....|..|--- .... ....|--- .... ....|--- .... ....
....|..|--- .... ....|--- .... ....|--- .... ....
....|..|--- .... ....|--- .... ....|--- .... ....
....|..|--- .... ....|--- .... ....|--- .... ....
....|..|--- .... ....|--- .... ....|--- .... ....
....|..|--- .... ....|--- .... ....|--- .... ....
....|..|--- .... ....|--- .... ....|--- .... ....

