[Module]
VortexTrackerII=0
Version=3.7
Title=Sync! (OutPhase/DDR Extreme)
Author=cover by siril/4D
NoteTable=2
ChipFreq=1520640
Speed=4
PlayOrder=20,21,22,23,24,12,13,25,26,14,15,16,17,0,1,2,3,2,3,4,5,6,18,19,10,11,6,7,8,L9

[Ornament1]
12,L0

[Ornament2]
L0

[Ornament3]
L0

[Ornament4]
L0

[Ornament5]
24,12,0,0,L0

[Ornament6]
L7,7,3,3,0,0

[Ornament7]
L7,7,4,4,0,0

[Ornament8]
L0

[Ornament9]
L0

[Ornament10]
L0

[Ornament11]
L0

[Ornament12]
L0

[Ornament13]
1,L0

[Ornament14]
-12,-10,-8,-6,-4,-2,0,0,0,0,0,0,0,0,0,0,L0

[Ornament15]
L0

[Sample1]
TnE +000_ +00_ D_
TnE +000_ +00_ D_
TnE +000_ +00_ D_
TnE +000_ +00_ D_ L

[Sample2]
TnE +000_ +00_ F_ L

[Sample3]
TnE +001_ +00_ F_
TnE +002_ +00_ F_
TnE +001_ +00_ F_
TnE +002_ +00_ E_
TnE +000_ +00_ D_ L
TnE -001_ +00_ D_
TnE -001_ +00_ D_
TnE -001_ +00_ D_
TnE +000_ +00_ D_
TnE +001_ +00_ D_
TnE +001_ +00_ D_
TnE +001_ +00_ D_

[Sample4]
tNe +000_ +00_ F_
tNe +000_ +00_ 9_
TnE +000_ +00_ 0_
TnE +000_ +00_ 0_ L

[Sample5]
TnE +000_ +00_ F_
TnE +000_ +00_ F_
tne +000_ +00_ 0_ L

[Sample6]
tne +000_ +00_ 0_ L

[Sample7]
tnE +000_ +00_ 0_ L

[Sample8]
tne +000_ +00_ 0_ L

[Sample9]
tne +000_ +00_ 0_ L

[Sample10]
Tne +1C0_ +00_ F_
Tne +280_ +00_ E_
Tne +380_ +00_ C_
Tne +440_ +00_ A_
Tne +480_ +00_ 8_
TnE +000_ +00_ 0_ L

[Sample11]
tne +000_ +00_ 0_ L

[Sample12]
tne +000_ +00_ 0_ L

[Sample13]
tne +000_ +00_ 0_ L

[Sample14]
tne +000_ +00_ 0_ L

[Sample15]
TNE +000_ +06_ F_
TNE +000_ +05_ E_
TNE +100_ +04_ A_
TNE +180_ +04_ 8_
TNE +200_ +04_ 7_
tNE +280_ +00_ 6_
tNE +300_ +00_ 5_
tNE +380_ +00_ 4_
tNE +401_ +00_ 3_
tNE +480_ +00_ 2_
tNE +480_ +00_ 1_
tNE +000_ +00_ 0_ L

[Sample16]
TnE +000_ +00_ C_
TnE +000_ +00_ E_
TnE +000_ +00_ F_
TnE +000_ +00_ F_
TnE +000_ +00_ E_
TnE +000_ +00_ D_
TnE +000_ +00_ C_
TnE +000_ +00_ C_ L
TnE +001_ +00_ C_
TnE +002_ +00_ C_
TnE +003_ +00_ C_
TnE +001_ +00_ C_
TnE +000_ +00_ C_
TnE -001_ +00_ C_
TnE -002_ +00_ C_
TnE -003_ +00_ C_
TnE -001_ +00_ C_
TnE +000_ +00_ C-
TnE +000_ +00_ C_

[Sample17]
tne +000_ +00_ 0_ L

[Sample18]
tne +000_ +00_ 0_ L

[Sample19]
TNe +000_ +00_ F_
TNe +000_ +00_ C_
TNe +000_ +00_ 6_
TNe +000_ +01_ A- L

[Sample20]
TNE +000_ +06_ F_
TNE +080_ +05_ D_
TNE +100_ +04_ 9_
TNE +180_ +04_ 8_
TNE +200_ +04_ 7_
tNE +280_ +00_ 6_
tNE +300_ +00_ 5_
tNE +380_ +00_ 4_
tNE +401_ +00_ 3_
tNE +480_ +00_ 2_
tNE +480_ +00_ 1_
tNE +000_ +00_ 0_ L

[Sample21]
tne +000_ +00_ 0_ L

[Sample22]
TnE +000_ +00_ D_ L
TnE +000_ +00_ D_
Tne +000_ +00_ 9_
Tne +000_ +00_ 9_
TnE +000_ +00_ D_
TnE +000_ +00_ D_
Tne +000_ +00_ 9_
Tne +000_ +00_ 9_
TnE +000_ +00_ D_
TnE +000_ +00_ D_
TnE +000_ +00_ D_
TnE +000_ +00_ D_
TnE +000_ +00_ D_
TnE +000_ +00_ D_
Tne +000_ +00_ 9_
Tne +000_ +00_ 9_

[Sample23]
tne +000_ +00_ 0_ L

[Sample24]
tne +000_ +00_ 0_ L

[Sample25]
tne +000_ +00_ 0_ L

[Sample26]
tne +000_ +00_ 0_ L

[Sample27]
tne +000_ +00_ 0_ L

[Sample28]
tne +000_ +00_ 0_ L

[Sample29]
tne +000_ +00_ 0_ L

[Sample30]
TNE +000_ +00_ F_
TNE +000_ +00_ F_
TNE +000_ +00_ F_
TNE +000_ +00_ F- L

[Sample31]
TnE +000_ +00_ D_ L
TnE +000_ +00_ D_
tne +000_ +00_ 9_
tne +000_ +00_ 9_
TnE +000_ +00_ D_
TnE +000_ +00_ D_
tne +000_ +00_ 9_
tne +000_ +00_ 9_
TnE +000_ +00_ D_
TnE +000_ +00_ D_
TnE +000_ +00_ D_
TnE +000_ +00_ D_
TnE +000_ +00_ D_
TnE +000_ +00_ D_
tne +000_ +00_ 9_
tne +000_ +00_ 9_

[Pattern0]
..2A|..|E-4 2F.F ....|C-4 AF.F ....|E-2 5A.D ....
....|..|--- .... ....|--- .... ....|E-1 ...B ....
..2A|..|E-5 5..B ....|E-2 2A.. ....|E-2 .... ....
....|..|R-- .... ....|--- .... ....|E-2 ...D ....
....|..|F#4 2..F ....|C-4 AF.. ....|E-2 ...B ....
....|..|--- .... ....|--- .... ....|E-2 .... ....
..2A|..|E-4 ...B ....|E-3 2A.. ....|E-2 ...D ....
....|..|G-4 ...F 3140|--- .... ....|E-2 ...B ....
....|..|--- .... ....|C-4 AF.. ....|E-2 2..D ....
....|..|F#4 5..B ....|--- .... ....|E-2 ...B ....
..2A|..|G-4 ...F ....|E-3 2A.. ....|E-2 .... ....
....|..|G-4 2..B ....|--- .... ....|E-2 ...D ....
....|..|A-4 5..F 3130|C-4 AF.. ....|E-2 ...B ....
....|..|G-4 2..B ....|--- .... ....|E-2 .... ....
..2A|..|A-4 ...F ....|E-2 2A.. ....|E-2 5..D ....
....|..|A-4 ...B ....|--- .... ....|E-2 ...B ....
..23|..|B-4 5..F ....|C-4 AF.. ....|G-1 .A.D ....
..2A|..|A-4 .... 3130|--- .... ....|E-1 .A.B ....
..23|..|B-4 2... 3130|G-2 2A.. ....|G-2 .A.. ....
....|..|B-4 ...B ....|--- .... ....|G-2 ...D ....
....|..|D-5 5..F ....|C-4 AF.. ....|G-2 ...B ....
....|..|--- .... ....|--- .... ....|G-2 .... ....
..23|..|B-4 ...B ....|G-3 2A.. ....|G-2 ...D ....
....|..|E-5 2..F 3140|--- .... ....|G-2 ...B ....
....|..|--- .... ....|C-4 AF.. ....|G-2 2..D ....
....|..|D-5 ...B ....|--- .... ....|G-2 ...B ....
..23|..|E-5 ...F ....|G-3 2A.. ....|G-2 .... ....
....|..|E-5 5..B ....|--- .... ....|G-2 ...D ....
....|..|F#5 ...F ....|C-4 AF.. ....|G-2 ...B ....
....|..|E-5 ...B ....|--- .... ....|G-2 .... ....
....|..|F#5 2..F ....|G-3 .... ....|G-2 ...D ....
....|..|F#5 ...B ....|--- .... ....|G-2 ...B ....
..1A|..|E-5 5.1F ....|C-4 .... ....|C-3 5A.D ....
..23|..|--- ...B ....|--- .... ....|G-2 .A.B ....
..1A|..|D-4 2... ....|C-2 2A.. ....|C-3 .A.. ....
....|..|E-5 5..F ....|--- .... ....|C-3 ...D ....
....|..|E-5 2..B ....|C-4 AF.. ....|C-3 ...B ....
....|..|D-4 .... ....|--- .... ....|C-3 .... ....
..1A|..|D-4 ...F ....|C-3 2A.. ....|C-3 ...D ....
....|..|E-5 ...B ....|--- .... ....|C-3 ...B ....
....|..|D-5 5..F ....|C-4 AF.. ....|C-3 2..D ....
....|..|D-4 2..B ....|--- .... ....|C-3 ...B ....
..1A|..|D-4 .... ....|C-3 2A.. ....|C-3 .... ....
....|..|D-5 5..F ....|--- .... ....|C-3 ...D ....
....|..|D-5 2..B ....|C-4 AF.. ....|C-3 ...B ....
....|..|D-4 .... ....|--- .... ....|C-3 .... ....
..1A|..|D-4 ...F ....|C-3 2A.. ....|C-3 5..D ....
....|..|D-5 ...B ....|--- .... ....|C-3 ...B ....
..1C|..|B-4 ...F ....|C-4 AF.. ....|B-2 .A.D ....
..1A|..|D-4 ...B ....|--- .... ....|C-3 .A.B ....
..1C|..|B-3 5... ....|B-2 2A.. ....|B-2 .A.. ....
....|..|B-4 ...F ....|--- .... ....|B-2 ...D ....
....|..|B-4 2..B ....|C-4 AF.. ....|B-2 ...B ....
....|..|B-3 .... ....|--- .... ....|B-2 .... ....
..1C|..|B-3 ...F ....|B-3 2A.. ....|B-2 ...D ....
....|..|B-4 ...B ....|--- .... ....|B-2 ...B ....
....|..|G-4 ...F ....|C-4 AF.. ....|B-2 2..D ....
....|..|B-3 ...B ....|--- .... ....|B-2 ...B ....
..1C|..|B-3 5... ....|B-3 2A.. ....|B-2 .... ....
....|..|G-4 ...F ....|--- .... ....|B-2 ...D ....
....|..|G-4 2..B ....|C-4 AF.. ....|B-2 ...B ....
....|..|B-3 .... ....|--- .... ....|B-2 .... ....
....|..|B-3 ...F ....|B-3 .... ....|B-2 ...D ....
....|..|G-4 ...B ....|--- .... ....|B-2 ...B ....

[Pattern1]
..2A|..|E-3 2F.F ....|C-4 AF.F ....|E-2 5A.D ....
....|..|--- .... ....|--- .... ....|E-1 ...B ....
..2A|..|E-4 5..B ....|E-2 2A.. ....|E-2 .... ....
....|..|R-- .... ....|--- .... ....|E-2 ...D ....
....|..|F#3 2..F ....|C-4 AF.. ....|E-2 ...B ....
....|..|--- .... ....|--- .... ....|E-2 .... ....
..2A|..|E-3 ...B ....|E-3 2A.. ....|E-2 ...D ....
....|..|G-3 ...F 3150|--- .... ....|E-2 ...B ....
....|..|--- .... ....|C-4 AF.. ....|E-2 2..D ....
....|..|F#3 5..B ....|--- .... ....|E-2 ...B ....
..2A|..|G-3 ...F ....|E-3 2A.. ....|E-2 .... ....
....|..|G-3 2..B ....|--- .... ....|E-2 ...D ....
....|..|A-3 5..F 3150|C-4 AF.. ....|E-2 ...B ....
....|..|G-3 2..B ....|--- .... ....|E-2 .... ....
..2A|..|A-3 ...F ....|E-2 2A.. ....|E-2 5..D ....
....|..|A-3 ...B ....|--- .... ....|E-2 ...B ....
..23|..|B-3 5..F ....|C-4 AF.. ....|G-1 .A.D ....
..2A|..|A-3 .... 3140|--- .... ....|E-1 .A.B ....
..23|..|B-3 2... 3140|G-2 2A.. ....|G-2 .A.. ....
....|..|B-3 ...B ....|--- .... ....|G-2 ...D ....
....|..|D-4 5..F ....|C-4 AF.. ....|G-2 ...B ....
....|..|--- .... ....|--- .... ....|G-2 .... ....
..23|..|B-3 ...B ....|G-3 2A.. ....|G-2 ...D ....
....|..|E-4 2..F 3150|--- .... ....|G-2 ...B ....
....|..|--- .... ....|C-4 AF.. ....|G-2 2..D ....
....|..|D-4 ...B ....|--- .... ....|G-2 ...B ....
..23|..|E-4 ...F ....|G-3 2A.. ....|G-2 .... ....
....|..|E-4 5..B ....|--- .... ....|G-2 ...D ....
....|..|F#4 ...F ....|C-4 AF.. ....|G-2 ...B ....
....|..|E-4 ...B ....|--- .... ....|G-2 .... ....
....|..|F#4 2..F ....|G-3 .... ....|G-2 ...D ....
....|..|F#4 ...B ....|--- .... ....|G-2 ...B ....
..1A|..|E-4 1.5F ....|C-4 .... ....|C-3 5A.D ....
..23|..|--- ...B ....|--- .... ....|G-2 .A.B ....
..1A|..|D-3 .... ....|C-2 2A.. ....|C-3 .A.. ....
....|..|E-4 ...F ....|--- .... ....|C-3 ...D ....
....|..|E-4 ...B ....|C-4 AF.. ....|C-3 ...B ....
....|..|D-3 .... ....|--- .... ....|C-3 .... ....
..1A|..|D-3 ...F ....|C-3 2A.. ....|C-3 ...D ....
....|..|E-4 ...B ....|--- .... ....|C-3 ...B ....
....|..|D-4 ...F ....|C-4 AF.. ....|C-3 2..D ....
....|..|D-3 ...B ....|--- .... ....|C-3 ...B ....
..1A|..|D-3 .... ....|C-3 2A.. ....|C-3 .... ....
....|..|D-4 ...F ....|--- .... ....|C-3 ...D ....
....|..|D-4 ...B ....|C-4 AF.. ....|C-3 ...B ....
....|..|D-3 .... ....|--- .... ....|C-3 .... ....
..1A|..|D-3 ...F ....|C-3 2A.. ....|C-3 5..D ....
....|..|D-4 ...B ....|--- .... ....|C-3 ...B ....
..1C|..|B-3 ...F ....|C-4 AF.. ....|B-2 .A.D ....
..1A|..|D-3 ...B ....|--- .... ....|C-3 .A.B ....
..1C|..|B-2 .... ....|B-2 2A.. ....|B-2 .A.. ....
....|..|B-3 ...F ....|--- .... ....|B-2 ...D ....
....|..|B-3 ...B ....|C-4 AF.. ....|B-2 ...B ....
....|..|B-2 .... ....|--- .... ....|B-2 .... ....
..1C|..|B-2 ...F ....|B-3 2A.. ....|B-2 ...D ....
....|..|B-3 ...B ....|--- .... ....|B-2 ...B ....
....|..|G-3 ...F ....|C-4 AF.. ....|B-2 2..D ....
....|..|B-2 ...B ....|--- .... ....|B-2 ...B ....
..1C|..|B-2 .... ....|B-3 2A.. ....|B-2 .... ....
....|..|G-3 ...F ....|--- .... ....|B-2 ...D ....
....|..|G-3 ...B ....|C-4 AF.. ....|B-2 ...B ....
....|..|B-2 .... ....|--- .... ....|B-2 .... ....
....|..|B-2 ...F ....|B-3 .... ....|B-2 ...D ....
....|..|G-3 ...B ....|--- .... ....|B-2 ...B ....

[Pattern2]
..2A|..|E-4 UF5F ....|C-4 AF.F ....|E-2 5A.D ....
....|..|--- .... ....|--- .... ....|E-1 ...B ....
..2A|..|E-5 ...B ....|E-2 4A.. ....|E-2 .... ....
....|..|R-- .... ....|--- .... ....|E-2 ...D ....
....|.1|F#4 ...F ....|C-4 AF.. ....|E-2 ...B ....
....|.1|--- .... ....|--- .... ....|E-2 .... ....
..2A|.1|E-4 ...B ....|E-3 4A.. ....|E-2 ...D ....
....|.1|G-4 ...F 3140|--- .... ....|E-2 ...B ....
....|.2|--- .... ....|C-4 AF.. ....|E-2 2..D ....
....|.2|F#4 ...B ....|--- .... ....|E-2 ...B ....
..2A|.2|G-4 ...F ....|E-3 4A.. ....|E-2 .... ....
....|.2|G-4 ...B ....|--- .... ....|E-2 ...D ....
....|.3|A-4 ...F 3130|C-4 AF.. ....|E-2 ...B ....
....|.3|G-4 ...B ....|--- .... ....|E-2 .... ....
..2A|.3|A-4 ...F ....|E-2 4A.. ....|E-2 5..D ....
....|.3|A-4 ...B ....|--- .... ....|E-2 ...B ....
..23|.4|B-4 ...F ....|C-4 AF.. ....|G-1 .A.D ....
..2A|.4|A-4 .... 3130|--- .... ....|E-1 .A.B ....
..23|.4|B-4 .... 3130|G-2 4A.. ....|G-2 .A.. ....
....|.4|B-4 ...B ....|--- .... ....|G-2 ...D ....
....|.5|D-5 ...F ....|C-4 AF.. ....|G-2 ...B ....
....|.5|--- .... ....|--- .... ....|G-2 .... ....
..23|.5|B-4 ...B ....|G-3 4A.. ....|G-2 ...D ....
....|.5|E-5 ...F 3140|--- .... ....|G-2 ...B ....
....|.6|--- .... ....|C-4 AF.. ....|G-6 JF5. ....
....|.6|D-5 ...B ....|--- .... ....|G-6 .... ....
..23|.6|E-5 ...F ....|G-3 4A.. ....|G-6 ...D ....
....|.6|E-5 ...B ....|--- .... ....|G-6 ...B ....
....|.7|F#5 ...F ....|C-4 AF.. ....|G-6 .... ....
....|.7|E-5 ...B ....|--- .... ....|G-6 ...D ....
....|.7|F#5 ...F ....|G-3 .... ....|G-6 ...B ....
....|.7|F#5 ...B ....|--- .... ....|G-6 ...D ....
..1A|.8|E-5 ...F ....|C-4 .... ....|C-3 5A.. ....
..23|.8|--- ...B ....|--- .... ....|G-2 .A.B ....
..1A|.8|D-4 .... ....|C-2 4A.. ....|C-3 .A.. ....
....|.8|E-5 ...F ....|--- .... ....|C-3 ...D ....
....|.9|E-5 ...B ....|C-4 AF.. ....|C-3 ...B ....
....|.9|D-4 .... ....|--- .... ....|C-3 .... ....
..1A|.9|D-4 ...F ....|C-3 4A.. ....|C-3 ...D ....
....|.9|E-5 ...B ....|--- .... ....|C-3 ...B ....
....|.A|D-5 ...F ....|C-4 AF.. ....|C-3 2..D ....
....|.A|D-4 ...B ....|--- .... ....|C-3 ...B ....
..1A|.A|D-4 .... ....|C-3 4A.. ....|C-3 .... ....
....|.A|D-5 ...F ....|--- .... ....|C-3 ...D ....
....|.B|D-5 ...B ....|C-4 AF.. ....|C-3 ...B ....
....|.B|D-4 .... ....|--- .... ....|C-3 .... ....
..1A|.B|D-4 ...F ....|C-3 4A.. ....|C-3 5..D ....
....|.B|D-5 ...B ....|--- .... ....|C-3 ...B ....
..1C|.C|B-4 ...F ....|C-4 AF.. ....|B-2 .A.D ....
..1A|.C|D-4 ...B ....|--- .... ....|C-3 .A.B ....
..1C|.C|B-3 .... ....|B-2 4A.. ....|B-2 .A.. ....
....|.C|B-4 ...F ....|--- .... ....|B-2 ...D ....
....|.D|B-4 ...B ....|C-4 AF.. ....|B-2 ...B ....
....|.D|B-3 .... ....|--- .... ....|B-2 .... ....
..1C|.D|B-3 ...F ....|B-3 4A.. ....|B-2 ...D ....
....|.D|B-4 ...B ....|--- .... ....|B-2 ...B ....
..1C|.E|G-4 ...F ....|C-4 AF.. ....|B-6 JA5D ....
....|.E|B-3 ...B ....|--- .... ....|B-6 ...B ....
..1C|.E|B-3 .... ....|B-3 4A.. ....|B-6 .... ....
....|.E|G-4 ...F ....|--- .... ....|B-6 ...D ....
....|.F|G-4 ...B ....|C-4 AF.. ....|B-6 ...B ....
....|.F|B-3 .... ....|--- .... ....|B-6 .... ....
....|.F|B-3 ...F ....|B-3 .... ....|B-6 ...D ....
....|.F|G-4 ...B ....|--- .... ....|B-6 ...B ....

[Pattern3]
..2A|10|E-5 UF5F ....|C-4 AF.F ....|E-2 5A.D ....
....|10|--- .... ....|--- .... ....|E-1 ...B ....
..2A|10|E-6 ...B ....|E-2 4A.. ....|E-2 .... ....
....|10|R-- .... ....|--- .... ....|E-2 ...D ....
....|.F|F#5 ...F ....|C-4 AF.. ....|E-2 ...B ....
....|.F|--- .... ....|--- .... ....|E-2 .... ....
..2A|.F|E-5 ...B ....|E-3 4A.. ....|E-2 ...D ....
....|.F|G-5 ...F 3140|--- .... ....|E-2 ...B ....
....|.E|--- .... ....|C-4 AF.. ....|E-2 2..D ....
....|.E|F#5 ...B ....|--- .... ....|E-2 ...B ....
..2A|.E|G-5 ...F ....|E-3 4A.. ....|E-2 .... ....
....|.E|G-5 ...B ....|--- .... ....|E-2 ...D ....
....|.D|A-5 ...F 3130|C-4 AF.. ....|E-2 ...B ....
....|.D|G-5 ...B ....|--- .... ....|E-2 .... ....
..2A|.D|A-5 ...F ....|E-2 4A.. ....|E-2 5..D ....
....|.D|A-5 ...B ....|--- .... ....|E-2 ...B ....
..23|.C|B-5 ...F ....|C-4 AF.. ....|G-1 .A.D ....
..2A|.C|A-5 .... 3130|--- .... ....|E-1 .A.B ....
..23|.C|B-5 .... 3130|G-2 4A.. ....|G-2 .A.. ....
....|.C|B-5 ...B ....|--- .... ....|G-2 ...D ....
....|.B|D-6 ...F ....|C-4 AF.. ....|G-2 ...B ....
....|.B|--- .... ....|--- .... ....|G-2 .... ....
..23|.B|B-5 ...B ....|G-3 4A.. ....|G-2 ...D ....
....|.B|E-6 ...F 3140|--- .... ....|G-2 ...B ....
....|.A|--- .... ....|C-4 AF.. ....|G-6 JF5. ....
....|.A|D-6 ...B ....|--- .... ....|G-6 .... ....
..23|.A|E-6 ...F ....|G-3 4A.. ....|G-6 ...D ....
....|.A|E-6 ...B ....|--- .... ....|G-6 ...B ....
....|.9|F#6 ...F ....|C-4 AF.. ....|G-6 .... ....
....|.9|E-6 ...B ....|--- .... ....|G-6 ...D ....
....|.9|F#6 ...F ....|G-3 .... ....|G-6 ...B ....
....|.9|F#6 ...B ....|--- .... ....|G-6 ...D ....
..1A|.8|E-6 ...F ....|C-4 .... ....|C-3 5A.. ....
..23|.8|--- ...B ....|--- .... ....|G-2 .A.B ....
..1A|.8|D-5 .... ....|C-2 4A.. ....|C-3 .A.. ....
....|.8|E-6 ...F ....|--- .... ....|C-3 ...D ....
....|.7|E-6 ...B ....|C-4 AF.. ....|C-3 ...B ....
....|.7|D-5 .... ....|--- .... ....|C-3 .... ....
..1A|.7|D-5 ...F ....|C-3 4A.. ....|C-3 ...D ....
....|.7|E-6 ...B ....|--- .... ....|C-3 ...B ....
....|.6|D-6 ...F ....|C-4 AF.. ....|C-3 2..D ....
....|.6|D-5 ...B ....|--- .... ....|C-3 ...B ....
..1A|.6|D-5 .... ....|C-3 4A.. ....|C-3 .... ....
....|.6|D-6 ...F ....|--- .... ....|C-3 ...D ....
....|.5|D-6 ...B ....|C-4 AF.. ....|C-3 ...B ....
....|.5|D-5 .... ....|--- .... ....|C-3 .... ....
..1A|.5|D-5 ...F ....|C-3 4A.. ....|C-3 5..D ....
....|.5|D-6 ...B ....|--- .... ....|C-3 ...B ....
..1C|.4|B-5 ...F ....|C-4 AF.. ....|B-2 .A.D ....
..1A|.4|D-5 ...B ....|--- .... ....|C-3 .A.B ....
..1C|.4|B-4 .... ....|B-2 4A.. ....|B-2 .A.. ....
....|.4|B-5 ...F ....|--- .... ....|B-2 ...D ....
....|.3|B-5 ...B ....|C-4 AF.. ....|B-2 ...B ....
....|.3|B-4 .... ....|--- .... ....|B-2 .... ....
..1C|.3|B-4 ...F ....|B-3 4A.. ....|B-2 ...D ....
....|.3|B-5 ...B ....|--- .... ....|B-2 ...B ....
..1C|.2|G-5 ...F ....|C-4 AF.. ....|B-6 JA5D ....
....|.2|B-4 ...B ....|--- .... ....|B-6 ...B ....
..1C|.2|B-4 .... ....|B-3 4A.. ....|B-6 .... ....
....|.2|G-5 ...F ....|--- .... ....|B-6 ...D ....
....|.1|G-5 ...B ....|C-4 AF.. ....|B-6 ...B ....
....|.1|B-4 .... ....|--- .... ....|B-6 .... ....
....|.1|B-4 ...F ....|B-3 .... ....|B-6 ...D ....
....|.1|G-5 ...B ....|--- .... ....|B-6 ...B ....

[Pattern4]
....|..|F#4 2F.F ....|E-4 MF5F ....|C-4 AF.D ....
..2A|..|--- .... ....|--- .... ....|E-4 5C.B ....
..2A|..|--- .... ....|E-5 ...B ....|E-5 .C.. ....
..2A|..|--- .... ....|R-- .... ....|E-4 .C.D ....
....|..|R-- G.6D ....|F#4 ...F ....|C-4 AF.B ....
..2A|..|--- .... ....|--- .... ....|E-2 5A.. ....
..2A|..|F#4 3F.B ....|E-4 ...B ....|E-4 .C.D ....
..2A|..|--- .... ....|G-4 ...F 3140|E-2 .A.B ....
....|..|G-4 2..F ....|--- .... ....|C-4 .F.D ....
..15|..|--- .... ....|F#4 ...B ....|E-5 .C.B ....
..15|..|--- .... ....|G-4 ...F ....|E-5 .C.. ....
..15|..|--- .... ....|G-4 ...B ....|E-5 .C.D ....
....|..|R-- G.6D ....|A-4 ...F 3130|C-6 AF.B ....
..2A|..|--- .... ....|G-4 ...B ....|E-2 2A.. ....
..2A|..|G-4 3F.B ....|A-4 ...F ....|E-2 .A.D ....
..2A|..|--- .... ....|A-4 ...B ....|E-2 5A.B ....
....|..|E-4 2..F ....|B-4 ...F ....|C-4 AF.D ....
..2A|..|--- .... ....|A-4 .... 3130|E-6 58.B ....
..23|..|--- .... ....|B-4 .... 3130|G-6 .8.. ....
..23|..|--- .... ....|B-4 ...B ....|G-5 .8.D ....
....|..|R-- .... ....|D-5 ...F ....|C-4 AF.B ....
..23|..|--- .... ....|--- .... ....|G-2 58.. ....
....|..|E-4 3..B ....|B-4 ...B ....|G-3 ...D ....
....|..|--- .... ....|E-5 ...F 3140|G-4 ...B ....
....|..|B-3 2..F ....|--- .... ....|G-6 JF5. ....
....|..|--- .... ....|D-5 ...B ....|G-6 .F.. ....
..23|..|--- .... ....|E-5 ...F ....|G-6 58.D ....
....|..|--- .... ....|E-5 ...B ....|G-6 JF.B ....
....|..|R-- G.7D ....|F#5 ...F ....|G-6 .... ....
....|..|--- .... ....|E-5 ...B ....|G-6 ...D ....
..23|..|B-3 3F.B ....|F#5 ...F ....|G-6 58.B ....
....|..|--- .... ....|F#5 ...B ....|G-6 JF.D ....
....|..|D-4 2..F ....|E-5 ...F ....|C-4 A... ....
..23|..|--- .... ....|--- ...B ....|G-5 5C.B ....
..1A|..|R-- G.7B ....|D-4 .... ....|C-5 .C.. ....
..1A|..|--- .... ....|E-5 ...F ....|C-4 .C.D ....
....|..|R-- ...D ....|E-5 ...B ....|C-4 AF.B ....
..1A|..|--- .... ....|D-4 .... ....|C-5 5A.. ....
..1A|..|D-4 3F.B ....|D-4 ...F ....|C-7 .C.D ....
..1A|..|--- .... ....|E-5 ...B ....|C-5 .A.B ....
....|..|D-4 2..D ....|D-5 ...F ....|C-5 AF.D ....
..1A|..|--- .... ....|D-4 ...B ....|C-4 28.B ....
..1A|..|R-- G.7B ....|D-4 .... ....|C-4 .8.. ....
..1A|..|--- .... ....|D-5 ...F ....|C-3 .8.D ....
....|..|R-- ...D ....|D-5 ...B ....|C-4 AF.B ....
..1A|..|--- .... ....|D-4 .... ....|C-2 5A.. ....
..1A|..|D-4 3F.B ....|D-4 ...F ....|C-2 .A.D ....
..1A|..|--- .... ....|D-5 ...B ....|C-2 .A.B ....
....|..|D-4 2... ....|B-4 ...F ....|C-4 AF.D ....
..1C|..|--- .... ....|D-4 ...B ....|B-4 58.B ....
..1C|..|R-- G.7. ....|B-3 .... ....|B-4 .8.. ....
..1C|..|--- .... ....|B-4 ...F ....|B-4 .8.D ....
....|..|R-- ...D ....|B-4 ...B ....|C-4 AF.B ....
..1C|..|--- .... ....|B-3 .... ....|B-1 58.. ....
....|..|D-4 3F.B ....|B-3 ...F ....|B-2 ...D ....
....|..|--- .... ....|B-4 ...B ....|B-3 ...B ....
....|..|D-4 2..A ....|G-4 ...F ....|B-5 JF5. ....
....|..|--- .... ....|B-3 ...B ....|B-5 .F.. ....
..1C|..|R-- G.7B ....|B-3 .... ....|B-5 58.D ....
....|..|--- .... ....|G-4 ...F ....|B-5 JF.B ....
....|..|R-- ...D ....|G-4 ...B ....|B-5 .... ....
....|..|--- .... ....|B-3 .... ....|B-5 ...D ....
..1C|..|D-4 3F.B ....|B-3 ...F ....|B-5 58.B ....
....|..|--- .... ....|G-4 ...B ....|B-5 JF.D ....

[Pattern5]
....|..|F#4 2F.F ....|E-4 2F.F ....|C-4 AF.D ....
..2A|..|--- .... ....|--- .... ....|E-4 5C.B ....
..2A|..|B-3 G.7B ....|E-5 5..B ....|E-5 .C.. ....
..2A|..|--- .... ....|R-- .... ....|E-4 .C.D ....
....|..|E-4 ..6D ....|F#4 2..F ....|C-4 AF.B ....
..2A|..|--- .... ....|--- .... ....|E-2 5A.. ....
..2A|..|F#4 3F.B ....|E-4 ...B ....|E-4 .C.D ....
..2A|..|--- .... ....|G-4 ...F 3140|E-2 .A.B ....
....|..|G-4 2..F ....|--- .... ....|C-4 .F.D ....
..15|..|--- .... ....|F#4 5..B ....|E-5 .C.B ....
..15|..|E-4 G.6B ....|G-4 ...F ....|E-5 .C.. ....
..15|..|--- .... ....|G-4 2..B ....|E-5 .C.D ....
....|..|E-4 ...D ....|A-4 5..F 3130|C-6 AF.B ....
..2A|..|--- .... ....|G-4 2..B ....|E-2 2A.. ....
..2A|..|G-4 3F.B ....|A-4 ...F ....|E-2 .A.D ....
..2A|..|--- .... ....|A-4 ...B ....|E-2 5A.B ....
....|..|E-4 2..F ....|B-4 5..F ....|C-4 AF.D ....
..2A|..|--- .... ....|A-4 .... 3130|E-6 58.B ....
..23|..|E-4 G.6B ....|B-4 2... 3130|G-6 .8.. ....
..23|..|--- .... ....|B-4 ...B ....|G-5 .8.D ....
....|..|G-4 ..7D ....|D-5 5..F ....|C-4 AF.B ....
..23|..|--- .... ....|--- .... ....|G-2 58.. ....
....|..|E-4 3F.B ....|B-4 ...B ....|G-3 ...D ....
....|..|--- .... ....|E-5 2..F 3140|G-4 ...B ....
....|..|B-3 2..F ....|--- .... ....|G-6 JF5. ....
....|..|--- .... ....|D-5 ...B ....|G-6 .F.. ....
..23|..|G-4 G.7B ....|E-5 ...F ....|G-6 58.D ....
....|..|--- .... ....|E-5 5..B ....|G-6 JF.B ....
....|..|G-4 ...D ....|F#5 ...F ....|G-6 .... ....
....|..|--- .... ....|E-5 ...B ....|G-6 ...D ....
..23|..|B-3 3F.B ....|F#5 2..F ....|G-6 58.B ....
....|..|--- .... ....|F#5 ...B ....|G-6 JF.D ....
....|..|D-4 2..F ....|B-4 5..F ....|C-4 A... ....
..23|..|--- .... ....|A-4 .... 3130|G-5 5C.B ....
..1A|..|G-4 G.7B ....|B-4 2... 3130|C-5 .C.. ....
..1A|..|--- .... ....|B-4 5..B ....|C-4 .C.D ....
....|..|C-4 ...D ....|A-4 2..F ....|C-4 AF.B ....
..1A|..|--- .... ....|--- .... ....|C-5 5A.. ....
..1A|..|D-4 3F.B ....|R-- .... ....|C-7 .C.D ....
..1A|..|--- .... ....|B-4 .... 3140|C-5 .A.B ....
....|..|D-4 2..F ....|--- .... ....|C-5 AF.D ....
..1A|..|--- .... ....|R-- ...B ....|C-4 28.B ....
..1A|..|D-4 G.7B ....|B-4 ...F ....|C-4 .8.. ....
..1A|..|--- .... ....|R-- 5..B ....|C-3 .8.D ....
....|..|C-4 ...D ....|F#4 2..F ....|C-4 AF.B ....
..1A|..|--- .... ....|R-- ...B ....|C-2 5A.. ....
..1A|..|D-4 3F.B ....|F#4 ...F ....|C-2 .A.D ....
..1A|..|--- .... ....|R-- ...B ....|C-2 .A.B ....
....|..|D-4 2..F ....|B-4 ...F ....|C-4 AF.D ....
..1C|..|--- .... ....|A-4 .... ....|B-4 58.B ....
..1C|..|D-4 G.7B ....|B-4 5... ....|B-4 .8.. ....
..1C|..|--- .... ....|B-4 ...B 3140|B-4 .8.D ....
....|..|B-3 ...D ....|A-4 2..F ....|C-4 AF.B ....
..1C|..|--- .... ....|--- .... ....|B-1 58.. ....
....|..|D-4 3F.B ....|R-- .... ....|B-2 ...D ....
....|..|--- .... ....|B-4 .... 3140|B-3 ...B ....
....|..|D-4 2..F ....|--- .... ....|B-5 JF5. ....
....|..|--- .... ....|R-- ...B ....|B-5 .F.. ....
..1C|..|B-3 G.7B ....|B-4 5..F ....|B-5 58.D ....
....|..|--- .... ....|R-- ...B ....|B-5 JF.B ....
....|..|B-3 ...D ....|F#4 2..F ....|B-5 .... ....
....|..|--- .... ....|R-- ...B ....|B-5 ...D ....
..1C|..|D-4 3F.B ....|F#4 ...F ....|B-5 58.B ....
....|..|--- .... ....|R-- ...B ....|B-5 JF.D ....

[Pattern6]
....|..|E-4 AF.F ....|E-4 2F1F ....|F#4 2F.F ....
....|..|E-2 M... ....|--- .... ....|--- .... ....
....|..|E-3 ...D ....|E-5 5..B ....|B-3 G.7B ....
....|..|--- .... ....|R-- .... ....|--- .... ....
....|..|E-4 A..F ....|F#4 2..F ....|E-4 ..6D ....
....|..|E-2 2... ....|--- .... ....|--- .... ....
....|..|E-4 M.5D ....|E-4 ...B ....|F#4 3F.B ....
....|..|--- .... ....|G-4 ...F 3140|--- .... ....
....|..|E-4 FF.F ....|--- .... ....|G-4 2..F ....
....|..|--- .... ....|F#4 5..B ....|--- .... ....
....|..|E-4 5... ....|G-4 ...F ....|E-4 G.6B ....
....|..|E-4 2... ....|G-4 2..B ....|--- .... ....
....|..|E-4 ...9 ....|A-4 5..F 3130|E-4 ...D ....
....|..|--- .... ....|G-4 2..B ....|--- .... ....
....|..|E-4 A..D ....|A-4 ...F ....|G-4 3F.B ....
....|..|E-3 2... ....|A-4 ...B ....|--- .... ....
....|..|G-4 A..F ....|B-4 5..F ....|E-4 2..F ....
....|..|G-2 M... ....|A-4 .... 3130|--- .... ....
....|..|G-3 ...D ....|B-4 2... 3130|E-4 G.6B ....
....|..|--- .... ....|B-4 ...B ....|--- .... ....
....|..|G-4 A..F ....|D-5 5..F ....|G-4 ..7D ....
....|..|G-2 2... ....|--- .... ....|--- .... ....
....|..|G-4 M.5D ....|B-4 ...B ....|E-4 3F.B ....
....|..|--- .... ....|E-5 2..F 3140|--- .... ....
....|..|G-4 FF.F ....|--- .... ....|B-3 2..F ....
....|..|--- .... ....|D-5 ...B ....|--- .... ....
....|..|G-4 5... ....|E-5 ...F ....|G-4 G.7B ....
....|..|G-4 2... ....|E-5 5..B ....|--- .... ....
....|..|G-4 ...9 ....|F#5 ...F ....|G-4 ...D ....
....|..|--- .... ....|E-5 ...B ....|--- .... ....
....|..|G-4 A..D ....|F#5 2..F ....|B-3 3F.B ....
....|..|G-3 2... ....|F#5 ...B ....|--- .... ....
....|..|C-5 A..F ....|B-4 5..F ....|D-4 2..F ....
....|..|C-3 M... ....|A-4 .... 3130|--- .... ....
....|..|C-4 ...D ....|B-4 2... 3130|G-4 G.7B ....
....|..|--- .... ....|B-4 5..B ....|--- .... ....
....|..|C-5 A..F ....|A-4 2..F ....|C-4 ...D ....
....|..|C-3 2... ....|--- .... ....|--- .... ....
....|..|C-5 M.5D ....|R-- .... ....|D-4 3F.B ....
....|..|--- .... ....|B-4 .... 3140|--- .... ....
....|..|C-5 FF.F ....|--- .... ....|D-4 2..F ....
....|..|--- .... ....|R-- ...B ....|--- .... ....
....|..|C-5 5... ....|B-4 ...F ....|D-4 G.7B ....
....|..|C-5 2... ....|R-- 5..B ....|--- .... ....
....|..|C-5 ...9 ....|F#4 2..F ....|C-4 ...D ....
....|..|--- .... ....|R-- ...B ....|--- .... ....
....|..|C-5 A..D ....|F#4 ...F ....|D-4 3F.B ....
....|..|C-4 2... ....|R-- ...B ....|--- .... ....
....|..|B-3 A..F ....|B-4 ...F ....|D-4 2..F ....
....|..|B-2 M... ....|A-4 .... ....|--- .... ....
....|..|B-3 ...D ....|B-4 5... ....|D-4 G.7B ....
....|..|--- .... ....|B-4 ...B 3140|--- .... ....
....|..|B-4 A..F ....|A-4 2..F ....|B-3 ...D ....
....|..|B-2 2... ....|--- .... ....|--- .... ....
....|..|B-4 M.5D ....|R-- .... ....|D-4 3F.B ....
....|..|--- .... ....|B-4 .... 3140|--- .... ....
....|..|B-4 FF.F ....|--- .... ....|D-4 2..F ....
....|..|--- .... ....|R-- ...B ....|--- .... ....
....|..|B-4 5... ....|B-4 5..F ....|B-3 G.7B ....
....|..|B-4 2... ....|R-- ...B ....|--- .... ....
....|..|B-4 ...9 ....|F#4 2..F ....|B-3 ...D ....
....|..|--- .... ....|R-- ...B ....|--- .... ....
....|..|B-4 A..D ....|F#4 ...F ....|D-4 3F.B ....
....|..|B-3 2... ....|R-- ...B ....|--- .... ....

[Pattern7]
....|..|C-5 AF.D ....|B-4 1F5D ....|D-4 2F1D ....
....|..|C-3 M... ....|A-4 .... 3130|--- .... ....
....|..|C-4 ...B ....|B-4 .... 3130|G-4 G.7A ....
....|..|--- .... ....|B-4 ...A ....|--- .... ....
....|..|C-5 A..D ....|A-4 ...D ....|C-4 ...B ....
....|..|C-3 2... ....|--- .... ....|--- .... ....
....|..|C-5 M.5B ....|R-- .... ....|D-4 3F.A ....
....|..|--- .... ....|B-4 .... 3140|--- .... ....
....|..|C-5 FF.D ....|--- .... ....|D-4 2.1D ....
....|..|--- .... ....|R-- ...A ....|--- .... ....
....|..|C-5 5... ....|B-4 ...D ....|D-4 G.7A ....
....|..|C-5 2... ....|R-- ...A ....|--- .... ....
....|..|C-5 ...7 ....|F#4 ...D ....|C-4 ...B ....
....|..|--- .... ....|R-- ...A ....|--- .... ....
....|..|C-5 A..B ....|F#4 ...D ....|D-4 3F.A ....
....|..|C-4 2... ....|R-- ...A ....|--- .... ....
....|..|B-3 A..C ....|B-4 ...C ....|D-4 2.1C ....
....|..|B-2 M... ....|A-4 .... ....|--- .... ....
....|..|B-3 ...A ....|B-4 .... ....|D-4 G.79 ....
....|..|--- .... ....|B-4 ...9 3140|--- .... ....
....|..|B-4 A..C ....|A-4 ...C ....|B-3 ...A ....
....|..|B-2 2... ....|--- .... ....|--- .... ....
....|..|B-4 M.5A ....|R-- .... ....|D-4 3F.9 ....
....|..|--- .... ....|B-4 .... 3140|--- .... ....
....|..|B-4 FF.C ....|--- .... ....|D-4 2.1C ....
....|..|--- .... ....|R-- ...9 ....|--- .... ....
....|..|B-4 5... ....|B-4 ...C ....|B-3 G.79 ....
....|..|B-4 2... ....|R-- ...9 ....|--- .... ....
....|..|B-4 ...6 ....|F#4 ...C ....|B-3 ...A ....
....|..|--- .... ....|R-- ...9 ....|--- .... ....
....|..|B-4 A..C ....|F#4 ...C ....|D-3 3F.9 ....
....|..|B-3 2... ....|R-- ...9 ....|--- .... ....
....|..|C-5 A..B ....|B-4 ...C ....|D-3 2.1B ....
....|..|C-3 M... ....|A-4 .... 3130|--- .... ....
....|..|C-4 ...8 ....|B-4 .... 3130|G-4 G.78 ....
....|..|--- .... ....|B-4 ...9 ....|--- .... ....
....|..|C-5 A..B ....|A-4 ...C ....|C-4 ...9 ....
....|..|C-3 2... ....|--- .... ....|--- .... ....
....|..|C-5 M.58 ....|R-- .... ....|D-3 3F.8 ....
....|..|--- .... ....|B-4 ...B 3140|--- .... ....
....|..|C-5 FF.B ....|--- .... ....|D-3 2.1B ....
....|..|--- .... ....|R-- ...8 ....|--- .... ....
....|..|C-5 5... ....|B-4 ...B ....|D-4 G.78 ....
....|..|C-5 2... ....|R-- ...8 ....|--- .... ....
....|..|C-5 ...5 ....|F#4 ...B ....|C-4 ...9 ....
....|..|--- .... ....|R-- ...8 ....|--- .... ....
....|..|C-5 A..B ....|F#4 ...B ....|D-3 3F.8 ....
....|..|C-4 2... ....|R-- ...8 ....|--- .... ....
....|..|B-3 A..A ....|B-4 ...A ....|D-3 2.1A ....
....|..|B-2 M... ....|A-4 .... ....|--- .... ....
....|..|B-3 ...9 ....|B-4 .... ....|D-4 G.77 ....
....|..|--- .... ....|B-4 ...7 3140|--- .... ....
....|..|B-4 A..A ....|A-4 ...A ....|B-3 ...8 ....
....|..|B-2 2... ....|--- .... ....|--- .... ....
....|..|B-4 M.59 ....|R-- .... ....|D-3 3F.7 ....
....|..|--- .... ....|B-4 .... 3140|--- .... ....
....|..|B-4 FF.A ....|--- .... ....|D-3 2.1A ....
....|..|--- .... ....|R-- ...7 ....|--- .... ....
....|..|B-4 5... ....|B-4 ...A ....|B-3 G.77 ....
....|..|B-4 2... ....|R-- ...7 ....|--- .... ....
....|..|B-4 ...4 ....|F#4 ...A ....|B-3 ...8 ....
....|..|--- .... ....|R-- ...7 ....|--- .... ....
....|..|B-4 A..8 ....|F#4 ...A ....|D-3 3F.7 ....
....|..|B-3 2... ....|R-- ...7 ....|--- .... ....

[Pattern8]
....|..|C-5 AF.9 ....|B-4 1F59 ....|D-4 2F19 ....
....|..|C-3 M... ....|A-4 .... 3130|--- .... ....
....|..|C-4 ...7 ....|B-4 .... 3130|G-4 G.77 ....
....|..|--- .... ....|B-4 ...6 ....|--- .... ....
....|..|C-5 A..9 ....|A-4 ...9 ....|C-4 ...5 ....
....|..|C-3 2... ....|--- .... ....|--- .... ....
....|..|C-5 M.55 ....|R-- .... ....|D-4 3F.. ....
....|..|--- .... ....|B-4 .... 3140|--- .... ....
....|..|C-5 FF.9 ....|--- .... ....|D-4 2.19 ....
....|..|--- .... ....|R-- ...6 ....|--- .... ....
....|..|C-5 5... ....|B-4 ...9 ....|D-4 G.75 ....
....|..|C-5 2... ....|R-- ...6 ....|--- .... ....
....|..|C-5 ...4 ....|F#4 ...9 ....|C-4 ...7 ....
....|..|--- .... ....|R-- ...6 ....|--- .... ....
....|..|C-5 A..9 ....|F#4 ...9 ....|D-4 3F.5 ....
....|..|C-4 2... ....|R-- ...6 ....|--- .... ....
....|..|B-3 A..4 ....|B-4 ...8 ....|D-4 2.18 ....
....|..|B-2 M... ....|A-4 .... ....|--- .... ....
....|..|B-3 ...8 ....|B-4 .... ....|D-4 G.74 ....
....|..|--- .... ....|B-4 ...5 3140|--- .... ....
....|..|B-4 A..6 ....|A-4 ...8 ....|B-3 ...6 ....
....|..|B-2 2... ....|--- .... ....|--- .... ....
....|..|B-4 M.58 ....|R-- .... ....|D-4 3F.4 ....
....|..|--- .... ....|B-4 .... 3140|--- .... ....
....|..|B-4 FF.6 ....|--- .... ....|D-4 2.18 ....
....|..|--- .... ....|R-- ...5 ....|--- .... ....
....|..|B-4 5... ....|B-4 ...8 ....|B-3 G.74 ....
....|..|B-4 2... ....|R-- ...5 ....|--- .... ....
....|..|B-4 ...4 ....|F#4 ...8 ....|B-3 ...6 ....
....|..|--- .... ....|R-- ...5 ....|--- .... ....
....|..|B-4 A..8 ....|F#4 ...8 ....|D-3 3F.4 ....
....|..|B-3 2... ....|R-- ...5 ....|--- .... ....
....|..|C-5 A..7 ....|B-4 ...7 ....|D-3 2.17 ....
....|..|C-3 M... ....|A-4 .... 3130|--- .... ....
....|..|C-4 ...5 ....|B-4 .... 3130|G-4 G.73 ....
....|..|--- .... ....|B-4 ...4 ....|--- .... ....
....|..|C-5 A..7 ....|A-4 ...7 ....|C-4 ...5 ....
....|..|C-3 2... ....|--- .... ....|--- .... ....
....|..|C-5 M.55 ....|R-- .... ....|D-3 3F.3 ....
....|..|--- .... ....|B-4 .... 3140|--- .... ....
....|..|C-5 FF.7 ....|--- .... ....|D-3 2.17 ....
....|..|--- .... ....|R-- ...4 ....|--- .... ....
....|..|C-5 5... ....|B-4 ...7 ....|D-4 G.73 ....
....|..|C-5 2... ....|R-- ...4 ....|--- .... ....
....|..|C-5 ...2 ....|F#4 ...7 ....|C-4 ...5 ....
....|..|--- .... ....|R-- ...4 ....|--- .... ....
....|..|C-5 A..6 ....|F#4 ...7 ....|D-3 3F.3 ....
....|..|C-4 2... ....|R-- ...4 ....|--- .... ....
....|..|B-3 A..4 ....|B-4 ...6 ....|D-3 2.16 ....
....|..|B-2 M... ....|A-4 .... ....|--- .... ....
....|..|B-3 ...6 ....|B-4 .... ....|D-4 G.72 ....
....|..|--- .... ....|B-4 ...3 3140|--- .... ....
....|..|B-4 A..2 ....|A-4 ...6 ....|B-3 ...4 ....
....|..|B-2 2... ....|--- .... ....|--- .... ....
....|..|B-4 M.56 ....|R-- .... ....|D-3 3F.2 ....
....|..|--- .... ....|B-4 .... 3140|--- .... ....
....|..|B-4 FF.4 ....|--- .... ....|D-3 2.16 ....
....|..|--- .... ....|R-- ...3 ....|--- .... ....
....|..|B-4 5... ....|B-4 ...6 ....|B-3 G.72 ....
....|..|B-4 2... ....|R-- ...3 ....|--- .... ....
....|..|B-4 ...2 ....|F#4 ...6 ....|B-3 ...4 ....
....|..|--- .... ....|R-- ...3 ....|--- .... ....
....|..|B-4 A..6 ....|F#4 ...6 ....|D-3 3F.2 ....
....|..|B-3 2... ....|R-- ...3 ....|--- .... ....

[Pattern9]
....|..|--- .... ....|--- .... ....|--- .... ....
....|..|--- .... ....|--- .... ....|--- .... ....
....|..|--- .... ....|--- .... ....|--- .... ....
....|..|--- .... ....|--- .... ....|--- .... ....
....|..|R-- .... ....|R-- .... ....|R-- .... ....
....|..|--- .... ....|--- .... ....|--- .... ....
....|..|--- .... ....|--- .... ....|--- .... ....
....|..|--- .... ....|--- .... ....|--- .... ....
....|..|--- .... ....|--- .... ....|--- .... ....
....|..|--- .... ....|--- .... ....|--- .... ....
....|..|--- .... ....|--- .... ....|--- .... ....
....|..|--- .... ....|--- .... ....|--- .... ....
....|..|--- .... ....|--- .... ....|--- .... ....
....|..|--- .... ....|--- .... ....|--- .... ....
....|..|--- .... ....|--- .... ....|--- .... ....
....|..|--- .... ....|--- .... ....|--- .... ....
....|..|--- .... ....|--- .... ....|--- .... ....
....|..|--- .... ....|--- .... ....|--- .... ....
....|..|--- .... ....|--- .... ....|--- .... ....
....|..|--- .... ....|--- .... ....|--- .... ....
....|..|--- .... ....|--- .... ....|--- .... ....
....|..|--- .... ....|--- .... ....|--- .... ....
....|..|--- .... ....|--- .... ....|--- .... ....
....|..|--- .... ....|--- .... ....|--- .... ....
....|..|--- .... ....|--- .... ....|--- .... ....
....|..|--- .... ....|--- .... ....|--- .... ....
....|..|--- .... ....|--- .... ....|--- .... ....
....|..|--- .... ....|--- .... ....|--- .... ....
....|..|--- .... ....|--- .... ....|--- .... ....
....|..|--- .... ....|--- .... ....|--- .... ....
....|..|--- .... ....|--- .... ....|--- .... ....
....|..|--- .... ....|--- .... ....|--- .... ....
....|..|--- .... ....|--- .... ....|--- .... ....
....|..|--- .... ....|--- .... ....|--- .... ....
....|..|--- .... ....|--- .... ....|--- .... ....
....|..|--- .... ....|--- .... ....|--- .... ....
....|..|--- .... ....|--- .... ....|--- .... ....
....|..|--- .... ....|--- .... ....|--- .... ....
....|..|--- .... ....|--- .... ....|--- .... ....
....|..|--- .... ....|--- .... ....|--- .... ....
....|..|--- .... ....|--- .... ....|--- .... ....
....|..|--- .... ....|--- .... ....|--- .... ....
....|..|--- .... ....|--- .... ....|--- .... ....
....|..|--- .... ....|--- .... ....|--- .... ....
....|..|--- .... ....|--- .... ....|--- .... ....
....|..|--- .... ....|--- .... ....|--- .... ....
....|..|--- .... ....|--- .... ....|--- .... ....
....|..|--- .... ....|--- .... ....|--- .... ....
....|..|--- .... ....|--- .... ....|--- .... ....
....|..|--- .... ....|--- .... ....|--- .... ....
....|..|--- .... ....|--- .... ....|--- .... ....
....|..|--- .... ....|--- .... ....|--- .... ....
....|..|--- .... ....|--- .... ....|--- .... ....
....|..|--- .... ....|--- .... ....|--- .... ....
....|..|--- .... ....|--- .... ....|--- .... ....
....|..|--- .... ....|--- .... ....|--- .... ....
....|..|--- .... ....|--- .... ....|--- .... ....
....|..|--- .... ....|--- .... ....|--- .... ....
....|..|--- .... ....|--- .... ....|--- .... ....
....|..|--- .... ....|--- .... ....|--- .... ....
....|..|--- .... ....|--- .... ....|--- .... ....
....|..|--- .... ....|--- .... ....|--- .... ....
....|..|--- .... ....|--- .... ....|--- .... ....
....|..|--- .... ....|--- .... ....|--- .... ....

[Pattern10]
..2A|..|E-4 AF.F ....|E-3 M8.. ....|E-4 GF6F ....
....|..|E-2 M... ....|--- .... ....|--- .... ....
....|..|E-3 ...D ....|--- .... ....|--- .... ....
....|..|--- .... ....|R-- .... ....|--- .... ....
..25|..|E-4 A..F ....|F#3 .8.. ....|--- .... ....
....|..|E-2 2... ....|--- .... ....|--- .... ....
....|..|E-4 M.5D ....|R-- .... ....|--- .... ....
..23|..|--- .... ....|G-3 .8.. ....|--- .... ....
....|..|E-4 FF.F ....|--- .... ....|--- .... ....
....|..|--- .... ....|R-- .... ....|--- .... ....
..23|..|E-4 5... ....|G-3 .8.. ....|--- .... ....
....|..|E-4 2... ....|R-- .... ....|--- .... ....
..1F|..|E-4 ...9 ....|A-3 .8.. ....|--- .... ....
....|..|--- .... ....|R-- .... ....|--- .... ....
..1F|..|E-4 A..D ....|A-3 .8.. ....|--- .... ....
....|..|E-3 2... ....|--- .... ....|--- .... ....
..1C|..|G-4 A..F ....|B-3 .8.. ....|G-4 ..7. ....
..1F|..|G-2 M... ....|A-3 .8.. ....|--- .... ....
..1C|..|G-3 ...D ....|B-3 .8.. ....|--- .... ....
....|..|--- .... ....|R-- .... ....|--- .... ....
..17|..|G-4 A..F ....|D-4 .8.. ....|--- .... ....
....|..|G-2 2... ....|--- .... ....|--- .... ....
....|..|G-4 M.5D ....|R-- .... ....|--- .... ....
..15|..|--- .... ....|E-4 .8.. ....|--- .... ....
....|..|G-4 FF.F ....|--- .... ....|--- .... ....
....|..|--- .... ....|R-- .... ....|--- .... ....
..15|..|G-4 5... ....|E-4 .8.. ....|--- .... ....
....|..|G-4 2... ....|R-- .... ....|--- .... ....
..25|..|G-4 ...9 ....|F#4 .8.. ....|--- .... ....
....|..|--- .... ....|R-- .... ....|--- .... ....
..25|..|G-4 A..D ....|F#4 .8.. ....|--- .... ....
....|..|G-3 2... ....|R-- .... ....|--- .... ....
..23|..|C-5 A..F ....|G-4 .8.. ....|C-5 .... ....
....|..|C-3 M... ....|R-- .... ....|--- .... ....
..23|..|C-4 ...D ....|G-3 .E.. ....|--- .... ....
....|..|--- .... ....|R-- .... ....|--- .... ....
..23|..|C-5 A..F ....|G-4 .8.. ....|--- .... ....
....|..|C-3 2... ....|--- .... ....|--- .... ....
....|..|C-5 M.5D ....|R-- .... ....|--- .... ....
....|..|--- .... ....|--- .... ....|--- .... ....
..1F|..|C-5 FF.F ....|A-4 .8.. ....|--- .... ....
....|..|--- .... ....|R-- .... ....|--- .... ....
..1F|..|C-5 5... ....|A-3 .E.. ....|--- .... ....
....|..|C-5 2... ....|R-- .... ....|--- .... ....
..1F|..|C-5 ...9 ....|A-4 .8.. ....|--- .... ....
....|..|--- .... ....|--- .... ....|--- .... ....
....|..|C-5 A..D ....|R-- .... ....|--- .... ....
....|..|C-4 2... ....|--- .... ....|--- .... ....
..1C|..|B-3 A..F ....|B-3 .8.. ....|B-4 .... ....
....|..|B-2 M... ....|R-- .... ....|--- .... ....
..1C|..|B-3 ...D ....|B-2 .E.. ....|--- .... ....
....|..|--- .... ....|R-- .... ....|--- .... ....
..1C|..|B-4 A..F ....|B-3 .8.. ....|--- .... ....
....|..|B-2 2... ....|--- .... ....|--- .... ....
....|..|B-4 M.5D ....|R-- .... ....|--- .... ....
....|..|--- .... ....|--- .... ....|--- .... ....
..1A|..|B-4 FF.F ....|C-4 .8.. ....|--- .... ....
....|..|--- .... ....|R-- .... ....|--- .... ....
..1A|..|B-4 5... ....|C-3 .E.. ....|--- .... ....
....|..|B-4 2... ....|R-- .... ....|--- .... ....
..1A|..|B-4 ...9 ....|C-4 .8.. ....|--- .... ....
....|..|--- .... ....|--- .... ....|--- .... ....
....|..|B-4 A..D ....|R-- .... ....|--- .... ....
....|..|B-3 2... ....|--- .... ....|--- .... ....

[Pattern11]
..23|..|G-4 AF.F ....|G-4 M8.F ....|G-4 GF6F ....
....|..|G-2 M... ....|--- .... ....|--- .... ....
....|..|G-3 ...D ....|--- ...B ....|--- .... ....
....|..|--- .... ....|R-- .... ....|--- .... ....
..1F|..|G-4 A..F ....|A-4 .8DF ....|--- .... ....
....|..|G-2 2... ....|--- .... ....|--- .... ....
....|..|G-4 M.5D ....|R-- ...B ....|--- .... ....
..1D|..|--- .... ....|A#4 .8.F ....|--- .... ....
....|..|G-4 FF.F ....|--- .... ....|--- .... ....
....|..|--- .... ....|R-- ...B ....|--- .... ....
..1D|..|G-4 5... ....|A#4 .8DF ....|--- .... ....
....|..|G-4 2... ....|R-- .... ....|--- .... ....
..1A|..|G-4 ...9 ....|C-5 .8D. ....|--- .... ....
....|..|--- .... ....|R-- ...B ....|--- .... ....
..1A|..|G-4 A..D ....|C-5 .8DF ....|--- .... ....
....|..|G-3 2... ....|--- ...B ....|--- .... ....
..17|..|G-4 A..F ....|D-5 .8.F ....|G-4 .... ....
..1A|..|G-2 M... ....|C-5 .8.. ....|--- .... ....
..17|..|G-3 ...D ....|D-5 .8.. ....|--- .... ....
....|..|--- .... ....|R-- .... ....|--- .... ....
..1A|..|G-4 A..F ....|C-5 .8.. ....|--- .... ....
....|..|G-2 2... ....|--- .... ....|--- .... ....
....|..|G-4 M.5D ....|R-- .... ....|--- .... ....
..1D|..|--- .... ....|A#4 .8.. ....|--- .... ....
....|..|G-4 FF.F ....|--- .... ....|--- .... ....
....|..|--- .... ....|R-- ...B ....|--- .... ....
..1D|..|G-4 5... ....|A#4 .8DF ....|--- .... ....
....|..|G-4 2... ....|R-- ...B ....|--- .... ....
..27|..|G-4 ...9 ....|F-4 .8DF ....|--- .... ....
....|..|--- .... ....|R-- ...B ....|--- .... ....
..27|..|G-4 A..D ....|F-4 .8DF ....|--- .... ....
....|..|G-3 2... ....|R-- ...B ....|--- .... ....
..23|..|A#4 A..F ....|G-5 58DF ....|A#4 ..7. ....
....|..|A#2 M... ....|R-- .... ....|--- .... ....
..23|..|A#3 ...D ....|G-4 .E.. ....|--- .... ....
....|..|--- .... ....|R-- .... ....|--- .... ....
..23|..|A#4 A..F ....|G-5 28D. ....|--- .... ....
....|..|A#2 2... ....|--- .... ....|--- .... ....
....|..|A#4 M.5D ....|R-- .... ....|--- .... ....
....|..|--- .... ....|--- .... ....|--- .... ....
..27|..|A#4 FF.F ....|F-5 58.. ....|--- .... ....
....|..|--- .... ....|R-- .... ....|--- .... ....
..27|..|A#4 5... ....|F-4 .E.. ....|--- .... ....
....|..|A#4 2... ....|R-- .... ....|--- .... ....
..27|..|A#4 ...9 ....|F-5 28.. ....|--- .... ....
....|..|--- .... ....|--- .... ....|--- .... ....
....|..|A#4 A..D ....|R-- .... ....|--- .... ....
....|..|A#3 2... ....|--- .... ....|--- .... ....
..16|..|F-4 A..F ....|D#5 .8D. ....|F-4 .... ....
....|..|F-2 M... ....|R-- .... ....|--- .... ....
..16|..|F-3 ...D ....|D#4 .E.. ....|--- .... ....
....|..|--- .... ....|R-- .... ....|--- .... ....
..16|..|F-4 A..F ....|D#5 .8.. ....|--- .... ....
....|..|F-2 2... ....|--- .... ....|--- .... ....
....|..|F-4 M.5D ....|R-- .... ....|--- .... ....
....|..|--- .... ....|--- .... ....|--- .... ....
..17|..|D-4 FF.F ....|D-5 .8D. ....|D-4 .... ....
....|..|--- .... ....|R-- .... ....|--- .... ....
..23|..|D-4 5... ....|D-4 .8.. ....|--- .... ....
....|..|D-4 2... ....|R-- .... ....|--- .... ....
..17|..|D-4 ...9 ....|D-5 .8.. ....|--- .... ....
....|..|--- .... ....|--- .... ....|--- .... ....
....|..|D-4 A..D ....|R-- .... ....|--- .... ....
....|..|D-3 2... ....|--- .... ....|--- .... ....

[Pattern12]
....|..|C-4 AF.F ....|E-4 2F.F ....|E-4 MF6F ....
....|..|--- .... ....|--- .... ....|--- .... ....
..2A|..|E-3 7A.. ....|E-5 5..B ....|--- .... ....
....|..|--- .... ....|R-- .... ....|--- .... ....
....|..|C-4 AF.. ....|F#4 2..F ....|--- .... ....
....|..|--- .... ....|--- .... ....|--- .... ....
..2A|..|E-3 7A.. ....|E-4 ...B ....|--- .... ....
....|..|--- .... ....|G-4 ...F 3140|--- .... ....
....|..|C-4 AF.. ....|--- .... ....|--- .... ....
....|..|--- .... ....|F#4 5..B ....|--- .... ....
..2A|..|E-3 7A.. ....|G-4 ...F ....|--- .... ....
....|..|--- .... ....|G-4 2..B ....|--- .... ....
....|..|C-4 AF.. ....|A-4 5..F 3130|--- .... ....
....|..|--- .... ....|G-4 2..B ....|--- .... ....
..2A|..|E-3 7A.. ....|A-4 ...F ....|--- .... ....
....|..|--- .... ....|A-4 ...B ....|--- .... ....
....|..|C-4 AF.. ....|B-4 5..F ....|G-4 ..7. ....
....|..|--- .... ....|A-4 .... 3130|--- .... ....
..23|..|G-3 7A.. ....|B-4 2... 3130|--- .... ....
....|..|--- .... ....|B-4 ...B ....|--- .... ....
....|..|C-4 AF.. ....|D-5 5..F ....|--- .... ....
....|..|--- .... ....|--- .... ....|--- .... ....
..23|..|G-3 7A.. ....|B-4 ...B ....|--- .... ....
....|..|--- .... ....|E-5 2..F 3140|--- .... ....
....|..|C-4 AF.. ....|--- .... ....|--- .... ....
....|..|--- .... ....|D-5 ...B ....|--- .... ....
..23|..|G-3 7A.. ....|E-5 ...F ....|--- .... ....
....|..|--- .... ....|E-5 5..B ....|--- .... ....
....|..|C-4 AF.. ....|F#5 ...F ....|--- .... ....
....|..|--- .... ....|E-5 ...B ....|--- .... ....
..23|..|G-3 7A.. ....|F#5 2..F ....|--- .... ....
....|..|--- .... ....|F#5 ...B ....|--- .... ....
....|..|C-4 AF.. ....|G-5 5..F ....|C-5 .... ....
....|..|--- .... ....|F#5 ...B ....|--- .... ....
..1A|..|C-4 7A.. ....|G-4 2..F ....|--- .... ....
....|..|--- .... ....|G-5 5..B ....|--- .... ....
....|..|C-4 AF.. ....|G-5 2..F ....|--- .... ....
....|..|--- .... ....|--- .... ....|--- .... ....
..1A|..|C-4 7A.. ....|G-4 ...B ....|--- .... ....
....|..|--- .... ....|--- .... ....|--- .... ....
....|..|C-4 AF.. ....|A-5 5..F ....|--- .... ....
....|..|--- .... ....|G-5 2..B ....|--- .... ....
..1A|..|C-4 7A.. ....|A-4 ...F ....|--- .... ....
....|..|--- .... ....|A-5 5..B ....|--- .... ....
....|..|C-4 AF.. ....|A-5 2..F ....|--- .... ....
....|..|--- .... ....|--- .... ....|--- .... ....
..1A|..|C-4 7A.. ....|A-4 ...B ....|--- .... ....
....|..|--- .... ....|--- .... ....|--- .... ....
....|..|C-4 AF.. ....|B-5 ...F ....|B-4 .... ....
....|..|--- .... ....|A-5 ...B ....|--- .... ....
..1C|..|B-3 7A.. ....|B-4 5..F ....|--- .... ....
....|..|--- .... ....|B-5 ...B ....|--- .... ....
....|..|C-4 AF.. ....|B-5 2..F ....|--- .... ....
....|..|--- .... ....|--- .... ....|--- .... ....
..1C|..|B-3 7A.. ....|B-4 ...B ....|--- .... ....
....|..|--- .... ....|--- .... ....|--- .... ....
....|..|C-4 AF.. ....|C-6 ...F ....|--- .... ....
....|..|--- .... ....|B-5 ...B ....|--- .... ....
..1C|..|B-3 7A.. ....|C-5 5..F ....|--- .... ....
....|..|--- .... ....|C-6 ...B ....|--- .... ....
....|..|C-4 AF.. ....|C-6 2..F ....|--- .... ....
....|..|--- .... ....|--- .... ....|--- .... ....
..1C|..|B-3 7A.. ....|C-5 .... ....|--- .... ....
....|..|--- .... ....|--- .... ....|--- .... ....

[Pattern13]
....|..|C-4 AF.F ....|G-4 2F.F ....|G-4 MF6F ....
....|..|--- .... ....|--- .... ....|--- .... ....
..23|..|G-3 7A.. ....|G-5 5..B ....|--- .... ....
....|..|--- .... ....|R-- .... ....|--- .... ....
....|..|C-4 AF.. ....|A-4 2..F ....|--- .... ....
....|..|--- .... ....|--- .... ....|--- .... ....
..23|..|G-3 7A.. ....|G-4 ...B ....|--- .... ....
....|..|--- .... ....|A#4 ...F 3140|--- .... ....
....|..|C-4 AF.. ....|--- .... ....|--- .... ....
....|..|--- .... ....|A-4 5..B ....|--- .... ....
..23|..|G-3 7A.. ....|A#4 ...F ....|--- .... ....
....|..|--- .... ....|A#4 2..B ....|--- .... ....
....|..|C-4 AF.. ....|C-5 5..F 3130|--- .... ....
....|..|--- .... ....|A#4 2..B ....|--- .... ....
..23|..|G-3 7A.. ....|C-5 ...F ....|--- .... ....
....|..|--- .... ....|C-5 ...B ....|--- .... ....
....|..|C-4 AF.. ....|D-5 5..F ....|G-4 .... ....
....|..|--- .... ....|C-5 .... 3130|--- .... ....
..23|..|G-3 7A.. ....|D-5 2... 3130|--- .... ....
....|..|--- .... ....|C-5 ...B ....|--- .... ....
....|..|C-4 AF.. ....|C-5 5..F ....|--- .... ....
....|..|--- .... ....|--- .... ....|--- .... ....
..23|..|G-3 7A.. ....|D-5 ...B ....|--- .... ....
....|..|--- .... ....|A#4 2..F 3140|--- .... ....
....|..|C-4 AF.. ....|--- .... ....|--- .... ....
....|..|--- .... ....|C-5 ...B ....|--- .... ....
..23|..|G-3 7A.. ....|A#4 ...F ....|--- .... ....
....|..|--- .... ....|A#4 5..B ....|--- .... ....
....|..|C-4 AF.. ....|F-4 ...F ....|--- .... ....
....|..|--- .... ....|A#4 ...B ....|--- .... ....
..23|..|G-3 7A.. ....|F-4 2..F ....|--- .... ....
....|..|--- .... ....|F-4 ...B ....|--- .... ....
....|..|C-4 AF.. ....|G-5 5..F ....|A#4 ..7. ....
....|..|--- .... ....|F-4 ...B ....|--- .... ....
..1D|..|A#3 7A.. ....|F-4 2..F ....|--- .... ....
....|..|--- .... ....|G-5 5..B ....|--- .... ....
....|..|C-4 AF.. ....|G-5 2..F 11.1|--- .... ....
....|..|--- .... ....|--- .... ....|--- .... ....
..1D|..|A#3 7A.. ....|F-4 ...B ....|--- .... ....
....|..|--- .... ....|--- .... ....|--- .... ....
....|..|C-4 AF.. ....|F-5 5..F ....|--- .... ....
....|..|--- .... ....|G-5 2..B ....|--- .... ....
..1D|..|A#3 7A.. ....|D-4 ...F ....|--- .... ....
....|..|--- .... ....|F-5 5..B ....|--- .... ....
....|..|C-4 AF.. ....|F-5 2..F 11.1|--- .... ....
....|..|--- .... ....|--- .... ....|--- .... ....
..1D|..|A#3 7A.. ....|D-4 ...B ....|--- .... ....
....|..|--- .... ....|--- .... ....|--- .... ....
....|..|C-4 AF.. ....|D#5 ...F ....|F-4 .... ....
....|..|--- .... ....|F-5 ...B ....|--- .... ....
..27|..|F-3 7A.. ....|D#4 5..F ....|--- .... ....
....|..|--- .... ....|D-4 ...B ....|--- .... ....
....|..|C-4 AF.. ....|D#5 2..F 11.1|--- .... ....
....|..|--- .... ....|--- .... ....|--- .... ....
..27|..|F-3 7A.. ....|D#4 ...B ....|--- .... ....
....|..|--- .... ....|--- .... ....|--- .... ....
....|..|C-4 AF.. ....|D-5 ...F ....|D-4 .... ....
....|..|--- .... ....|D#5 ...B ....|--- .... ....
..2F|..|D-3 7A.. ....|D-4 5..F ....|--- .... ....
....|..|--- .... ....|D-5 ...B ....|--- .... ....
....|..|C-4 AF.. ....|D-5 2..F 11.1|--- .... ....
....|..|--- .... ....|--- .... ....|--- .... ....
..2F|..|D-3 7A.. ....|D-4 ...B ....|--- .... ....
....|..|--- .... ....|--- .... ....|--- .... ....

[Pattern14]
....|..|C-4 AF.F ....|E-4 28.F ....|E-4 GF6E ....
....|..|--- .... ....|--- .... ....|--- .... ....
..2A|..|E-1 4A.. ....|E-5 5F.B ....|--- .... ....
....|..|--- .... ....|R-- .... ....|--- .... ....
....|..|C-4 AF.. ....|F#4 28.F ....|--- .... ....
....|..|--- .... ....|--- .... ....|--- .... ....
..2A|..|E-1 4A.. ....|E-4 .F.B ....|--- .... ....
....|..|--- .... ....|G-4 ...F 3140|--- .... ....
....|..|C-4 AF.. ....|--- .8.. ....|--- .... ....
....|..|--- .... ....|F#4 5..B ....|--- .... ....
..2A|..|E-1 4A.. ....|G-4 .F.F ....|--- .... ....
....|..|--- .... ....|G-4 2..B ....|--- .... ....
....|..|C-4 AF.. ....|A-4 58.F 3130|--- .... ....
....|..|--- .... ....|G-4 2..B ....|--- .... ....
..2A|..|E-1 4A.. ....|A-4 .F.F ....|--- .... ....
....|..|--- .... ....|A-4 ...B ....|--- .... ....
....|..|C-4 AF.. ....|B-4 58.F ....|G-4 ..7. ....
....|..|--- .... ....|A-4 .... 3130|--- .... ....
..23|..|G-1 4A.. ....|B-4 2F.. 3130|--- .... ....
....|..|--- .... ....|B-4 ...B ....|--- .... ....
....|..|C-4 AF.. ....|D-5 58.F ....|--- .... ....
....|..|--- .... ....|--- .... ....|--- .... ....
..23|..|G-1 4A.. ....|B-4 .F.B ....|--- .... ....
....|..|--- .... ....|E-5 2..F 3140|--- .... ....
....|..|C-4 AF.. ....|--- .8.. ....|--- .... ....
....|..|--- .... ....|D-5 ...B ....|--- .... ....
..23|..|G-1 4A.. ....|E-5 .F.F ....|--- .... ....
....|..|--- .... ....|E-5 5..B ....|--- .... ....
....|..|C-4 AF.. ....|F#5 .8.F ....|--- .... ....
....|..|--- .... ....|E-5 ...B ....|--- .... ....
....|..|C-4 .... ....|F#5 2F.F ....|--- .... ....
....|..|--- .... ....|F#5 ...B ....|--- .... ....
....|..|C-4 .... ....|G-5 58.F ....|C-5 .... ....
....|..|--- .... ....|F#5 ...B ....|--- .... ....
..1A|..|C-2 4A.. ....|G-4 2F.F ....|--- .... ....
....|..|--- .... ....|G-5 5..B ....|--- .... ....
....|..|C-4 AF.. ....|G-5 M8.F 21.1|--- .... ....
....|..|--- .... ....|--- .... ....|--- .... ....
..1A|..|C-2 4A.. ....|G-4 .F.B ....|--- .... ....
....|..|--- .... ....|--- .... ....|--- .... ....
....|..|C-4 AF.. ....|A-5 .8.F ....|--- .... ....
....|..|--- .... ....|G-5 ...B ....|--- .... ....
..1A|..|C-2 4A.. ....|A-4 .F.F ....|--- .... ....
....|..|--- .... ....|A-5 ...B ....|--- .... ....
....|..|C-4 AF.. ....|A-5 .8.F 21.1|--- .... ....
....|..|--- .... ....|--- .... ....|--- .... ....
..1A|..|C-2 4A.. ....|A-4 .F.B ....|--- .... ....
....|..|--- .... ....|--- .... ....|--- .... ....
....|..|C-4 AF.. ....|B-5 .8.F ....|B-4 .... ....
....|..|--- .... ....|A-5 ...B ....|--- .... ....
..1C|..|B-1 4A.. ....|B-4 .F.F ....|--- .... ....
....|..|--- .... ....|B-5 ...B ....|--- .... ....
....|..|C-4 AF.. ....|B-5 .8.F 21.1|--- .... ....
....|..|--- .... ....|--- .... ....|--- .... ....
..1C|..|B-1 4A.. ....|B-4 .F.B ....|--- .... ....
....|..|--- .... ....|--- .... ....|--- .... ....
....|..|C-4 AF.. ....|C-6 .8.F ....|--- .... ....
....|..|--- .... ....|B-5 ...B ....|--- .... ....
..1C|..|B-1 4A.. ....|C-5 .F.F ....|--- .... ....
....|..|--- .... ....|C-6 ...B ....|--- .... ....
....|..|C-4 AF.. ....|C-6 .8.F 21.1|--- .... ....
....|..|--- .... ....|--- .... ....|--- .... ....
....|..|C-4 .... ....|C-5 .F.. ....|--- .... ....
....|..|--- .... ....|--- .... ....|--- .... ....

[Pattern15]
....|..|C-4 AF.F ....|G-4 28.F ....|G-4 GF6F ....
....|..|--- .... ....|--- .... ....|--- .... ....
..23|..|G-1 4A.. ....|G-5 5F.B ....|--- .... ....
....|..|--- .... ....|R-- .... ....|--- .... ....
....|..|C-4 AF.. ....|A-4 28.F ....|--- .... ....
....|..|--- .... ....|--- .... ....|--- .... ....
..23|..|G-1 4A.. ....|G-4 .F.B ....|--- .... ....
....|..|--- .... ....|A#4 ...F 3140|--- .... ....
....|..|C-4 AF.. ....|--- .8.. ....|--- .... ....
....|..|--- .... ....|A-4 5..B ....|--- .... ....
..23|..|G-1 4A.. ....|A#4 .F.F ....|--- .... ....
....|..|--- .... ....|A#4 2..B ....|--- .... ....
....|..|C-4 AF.. ....|C-5 58.F 3130|--- .... ....
....|..|--- .... ....|A#4 2..B ....|--- .... ....
..23|..|G-1 4A.. ....|C-5 .F.F ....|--- .... ....
....|..|--- .... ....|C-5 ...B ....|--- .... ....
....|..|C-4 AF.. ....|D-5 58.F ....|G-4 .... ....
....|..|--- .... ....|C-5 .... 3130|--- .... ....
..23|..|G-1 4A.. ....|D-5 2F.. 3130|--- .... ....
....|..|--- .... ....|C-5 ...B ....|--- .... ....
....|..|C-4 AF.. ....|C-5 58.F ....|--- .... ....
....|..|--- .... ....|--- .... ....|--- .... ....
..23|..|G-1 4A.. ....|D-5 .F.B ....|--- .... ....
....|..|--- .... ....|A#4 2..F 3140|--- .... ....
....|..|C-4 AF.. ....|--- .8.. ....|--- .... ....
....|..|--- .... ....|C-5 ...B ....|--- ...D ....
..23|..|G-1 4A.. ....|A#4 .F.F ....|--- .... ....
....|..|--- .... ....|A#4 5..B ....|--- ...F ....
....|..|C-4 AF.. ....|F-4 .8.F ....|--- ...D ....
....|..|--- .... ....|A#4 ...B ....|--- .... ....
....|..|C-4 .... ....|F-4 2F.F ....|--- ...F ....
....|..|--- .... ....|F-4 ...B ....|--- ...D ....
....|..|C-4 .... ....|G-5 58.F ....|A#4 ..7F ....
....|..|--- .... ....|F-4 ...B ....|--- .... ....
..1D|..|A#1 4A.. ....|F-4 2F.F ....|--- .... ....
....|..|--- .... ....|G-5 5..B ....|--- .... ....
....|..|C-4 AF.. ....|G-5 M8.F 11.1|--- .... ....
....|..|--- .... ....|--- .... ....|--- .... ....
..1D|..|A#1 4A.. ....|F-4 .F.B ....|--- .... ....
....|..|--- .... ....|--- .... ....|--- .... ....
....|..|C-4 AF.. ....|F-5 .8.F ....|--- .... ....
....|..|--- .... ....|G-5 ...B ....|--- .... ....
..1D|..|A#1 4A.. ....|D-4 .F.F ....|--- .... ....
....|..|--- .... ....|F-5 ...B ....|--- .... ....
....|..|C-4 AF.. ....|F-5 .8.F 11.1|--- .... ....
....|..|--- .... ....|--- .... ....|--- .... ....
..1D|..|A#1 4A.. ....|D-4 .F.B ....|--- .... ....
....|..|--- .... ....|--- .... ....|--- .... ....
....|..|C-4 AF.. ....|D#5 .8.F ....|F-4 .... ....
....|..|--- .... ....|F-5 ...B ....|--- .... ....
..27|..|F-1 4A.. ....|D#4 .F.F ....|--- ...D ....
....|..|--- .... ....|D-4 ...B ....|--- .... ....
....|..|C-4 AF.. ....|D#5 .8.F 11.1|--- .... ....
....|..|--- .... ....|--- .... ....|--- .... ....
..27|..|F-1 4A.. ....|D#4 .F.B ....|--- .... ....
....|..|--- .... ....|--- .... ....|--- .... ....
....|..|C-4 AF.. ....|D-5 .8.F ....|D-4 ...F ....
....|..|--- .... ....|D#5 ...B ....|--- ...D ....
..2F|..|D-1 4A.. ....|D-4 .F.F ....|--- .... ....
....|..|--- .... ....|D-5 ...B ....|--- ...F ....
....|..|C-4 AF.. ....|D-5 .8.F 11.1|--- ...D ....
....|..|--- .... ....|--- .... ....|--- .... ....
....|..|C-4 4... ....|D-4 ...B ....|--- ...F ....
....|..|--- .... ....|--- .... ....|--- ...D ....

[Pattern16]
..29|..|E-4 AF.F ....|B-8 V8EF ....|E-4 GF6E ....
....|..|E-2 M... ....|--- .... ....|--- .... ....
....|..|E-3 ...D ....|--- ...B ....|--- .... ....
....|..|--- .... ....|R-- .... ....|--- .... ....
..25|..|E-4 A..F ....|A#8 .8EF ....|--- .... ....
....|..|E-2 2... ....|--- .... ....|--- .... ....
....|..|E-4 M.5D ....|R-- ...B ....|--- .... ....
..23|..|--- .... ....|A-8 .8EF ....|--- .... ....
....|..|E-4 FF.F ....|--- .... ....|--- .... ....
....|..|--- .... ....|R-- ...B ....|--- .... ....
..23|..|E-4 5... ....|G#8 .8EF ....|--- .... ....
....|..|E-4 2... ....|R-- .... ....|--- .... ....
..1F|..|E-4 ...9 ....|G-8 .8E. ....|--- .... ....
....|..|--- .... ....|R-- ...B ....|--- .... ....
..1F|..|E-4 A..D ....|F#8 .8EF ....|--- .... ....
....|..|E-3 2... ....|--- ...B ....|--- .... ....
..1C|..|G-4 A..F ....|F-8 .8EF ....|G-4 ..7. ....
..1F|..|G-2 M... ....|E-8 .8E. ....|--- .... ....
..1C|..|G-3 ...D ....|D#8 .8E. ....|--- .... ....
....|..|--- .... ....|R-- .... ....|--- .... ....
..17|..|G-4 A..F ....|D-8 .8E. ....|--- .... ....
....|..|G-2 2... ....|--- .... ....|--- .... ....
....|..|G-4 M.5D ....|R-- .... ....|--- .... ....
..15|..|--- .... ....|C#8 .8E. ....|--- .... ....
....|..|G-4 FF.F ....|--- .... ....|--- .... ....
....|..|--- .... ....|R-- ...B ....|--- .... ....
..15|..|G-4 5... ....|C-8 .8EF ....|--- .... ....
....|..|G-4 2... ....|R-- ...B ....|--- .... ....
..25|..|G-4 ...9 ....|B-7 .8EF ....|--- .... ....
....|..|--- .... ....|R-- ...B ....|--- .... ....
..25|..|G-4 A..D ....|A#7 .8EF ....|--- .... ....
....|..|G-3 2... ....|R-- ...B ....|--- .... ....
..23|..|C-5 A..F ....|A#8 .CEF ....|C-5 .... ....
....|..|C-3 M... ....|R-- .... ....|--- .... ....
..23|..|C-4 ...D ....|A#8 .EE. ....|--- .... ....
....|..|--- .... ....|R-- .... ....|--- .... ....
..23|..|C-5 A..F ....|A#8 .CE. ....|--- .... ....
....|..|C-3 2... ....|--- .... ....|--- .... ....
....|..|C-5 M.5D ....|R-- .... ....|--- .... ....
....|..|--- .... ....|--- .... ....|--- .... ....
..1F|..|C-5 FF.F ....|A#8 .CE. ....|--- .... ....
....|..|--- .... ....|R-- .... ....|--- .... ....
..1F|..|C-5 5... ....|A#8 .EE. ....|--- .... ....
....|..|C-5 2... ....|R-- .... ....|--- .... ....
..1F|..|C-5 ...9 ....|A#8 .CE. ....|--- .... ....
....|..|--- .... ....|--- .... ....|--- .... ....
....|..|C-5 A..D ....|R-- .... ....|--- .... ....
....|..|C-4 2... ....|--- .... ....|--- .... ....
..1C|..|B-3 A..F ....|A#8 .8E. ....|B-4 .... ....
....|..|B-2 M... ....|R-- .... ....|--- .... ....
..1C|..|B-3 ...D ....|A#8 .AE. ....|--- .... ....
....|..|--- .... ....|R-- .... ....|--- .... ....
..1C|..|B-4 A..F ....|A#8 .8E. ....|--- .... ....
....|..|B-2 2... ....|--- .... ....|--- .... ....
....|..|B-4 M.5D ....|R-- .... ....|--- .... ....
....|..|--- .... ....|--- .... ....|--- .... ....
..1A|..|B-4 FF.F ....|A#8 .8E. ....|--- .... ....
....|..|--- .... ....|R-- .... ....|--- .... ....
..1A|..|B-4 5... ....|A#8 .8E. ....|--- .... ....
....|..|B-4 2... ....|R-- .... ....|--- .... ....
..1A|..|B-4 ...9 ....|A#8 .8E. ....|--- .... ....
....|..|--- .... ....|--- .... ....|--- .... ....
....|..|B-4 A..D ....|R-- .... ....|--- .... ....
....|..|B-3 2... ....|--- .... ....|--- .... ....

[Pattern17]
..23|..|G-4 AF.F ....|B-8 V8EF ....|G-4 GF6E ....
....|..|G-2 M... ....|--- .... ....|--- .... ....
....|..|G-3 ...D ....|--- ...B ....|--- .... ....
....|..|--- .... ....|R-- .... ....|--- .... ....
..1F|..|G-4 A..F ....|A#8 .8EF ....|--- .... ....
....|..|G-2 2... ....|--- .... ....|--- .... ....
....|..|G-4 M.5D ....|R-- ...B ....|--- .... ....
..1D|..|--- .... ....|A-8 .8EF ....|--- .... ....
....|..|G-4 FF.F ....|--- .... ....|--- .... ....
....|..|--- .... ....|R-- ...B ....|--- .... ....
..1D|..|G-4 5... ....|G#8 .8EF ....|--- .... ....
....|..|G-4 2... ....|R-- .... ....|--- .... ....
..1A|..|G-4 ...9 ....|G-8 .8E. ....|--- .... ....
....|..|--- .... ....|R-- ...B ....|--- .... ....
..1A|..|G-4 A..D ....|F#8 .8EF ....|--- .... ....
....|..|G-3 2... ....|--- ...B ....|--- .... ....
..17|..|G-4 A..F ....|F-8 .8EF ....|G-4 .... ....
..1A|..|G-2 M... ....|E-8 .8E. ....|--- .... ....
..17|..|G-3 ...D ....|D#8 .8E. ....|--- .... ....
....|..|--- .... ....|R-- .... ....|--- .... ....
..1A|..|G-4 A..F ....|D-8 .8E. ....|--- .... ....
....|..|G-2 2... ....|--- .... ....|--- .... ....
....|..|G-4 M.5D ....|R-- .... ....|--- .... ....
..1D|..|--- .... ....|C#8 .8E. ....|--- .... ....
....|..|G-4 FF.F ....|--- .... ....|--- .... ....
....|..|--- .... ....|R-- ...B ....|--- .... ....
..1D|..|G-4 5... ....|C-8 .8EF ....|--- .... ....
....|..|G-4 2... ....|R-- ...B ....|--- .... ....
..27|..|G-4 ...9 ....|B-7 .8EF ....|--- .... ....
....|..|--- .... ....|R-- ...B ....|--- .... ....
..27|..|G-4 A..D ....|A#7 .8EF ....|--- .... ....
....|..|G-3 2... ....|R-- ...B ....|--- .... ....
..23|..|A#4 A..F ....|A#8 .CEF ....|A#4 ..7. ....
....|..|A#2 M... ....|R-- .... ....|--- .... ....
..23|..|A#3 ...D ....|A#8 .EE. ....|--- .... ....
....|..|--- .... ....|R-- .... ....|--- .... ....
..23|..|A#4 A..F ....|A#8 .CE. ....|--- .... ....
....|..|A#2 2... ....|--- .... ....|--- .... ....
....|..|A#4 M.5D ....|R-- .... ....|--- .... ....
....|..|--- .... ....|--- .... ....|--- .... ....
..27|..|A#4 FF.F ....|A#8 .CE. ....|--- .... ....
....|..|--- .... ....|R-- .... ....|--- .... ....
..27|..|A#4 5... ....|A#8 .EE. ....|--- .... ....
....|..|A#4 2... ....|R-- .... ....|--- .... ....
..27|..|A#4 ...9 ....|A#8 .CE. ....|--- .... ....
....|..|--- .... ....|--- .... ....|--- .... ....
....|..|A#4 A..D ....|R-- .... ....|--- .... ....
....|..|A#3 2... ....|--- .... ....|--- .... ....
..16|..|F-4 A..F ....|A#8 .8E. ....|F-4 .... ....
....|..|F-2 M... ....|R-- .... ....|--- .... ....
..2C|..|F-3 ...D ....|A#8 .8E. ....|--- .... ....
....|..|--- .... ....|R-- .... ....|--- .... ....
..16|..|F-4 A..F ....|A#8 .8E. ....|--- .... ....
....|..|F-2 2... ....|--- .... ....|--- .... ....
....|..|F-4 M.5D ....|R-- .... ....|--- .... ....
....|..|--- .... ....|--- .... ....|--- .... ....
..17|..|D-4 FF.F ....|A#8 .8E. ....|D-4 .... ....
....|..|--- .... ....|R-- .... ....|--- .... ....
..2F|..|D-4 5... ....|A#8 .8E. ....|--- .... ....
....|..|D-4 2... ....|R-- .... ....|--- .... ....
..17|..|D-4 ...9 ....|A#8 .8E. ....|--- .... ....
....|..|--- .... ....|--- .... ....|--- .... ....
....|..|D-4 A..D ....|R-- .... ....|--- .... ....
....|..|D-3 2... ....|--- .... ....|--- .... ....

[Pattern18]
..29|..|E-4 AF.F ....|B-8 V8EF ....|F#4 2F.F ....
....|..|E-2 M... ....|--- .... ....|--- .... ....
....|..|E-3 ...D ....|--- ...B ....|B-3 G.7B ....
....|..|--- .... ....|R-- .... ....|--- .... ....
..25|..|E-4 A..F ....|A#8 .8EF ....|E-4 ..6D ....
....|..|E-2 2... ....|--- .... ....|--- .... ....
....|..|E-4 M.5D ....|R-- ...B ....|F#4 3F.B ....
..23|..|--- .... ....|A-8 .8EF ....|--- .... ....
....|..|E-4 FF.F ....|--- .... ....|G-4 2..F ....
....|..|--- .... ....|R-- ...B ....|--- .... ....
..23|..|E-4 5... ....|G#8 .8EF ....|E-4 G.6B ....
....|..|E-4 2... ....|R-- .... ....|--- .... ....
..1F|..|E-4 ...9 ....|G-8 .8E. ....|E-4 ...D ....
....|..|--- .... ....|R-- ...B ....|--- .... ....
..1F|..|E-4 A..D ....|F#8 .8EF ....|G-4 3F.B ....
....|..|E-3 2... ....|--- ...B ....|--- .... ....
..1C|..|G-4 A..F ....|F-8 .8EF ....|E-4 2..F ....
..1F|..|G-2 M... ....|E-8 .8E. ....|--- .... ....
..1C|..|G-3 ...D ....|D#8 .8E. ....|E-4 G.6B ....
....|..|--- .... ....|R-- .... ....|--- .... ....
..17|..|G-4 A..F ....|D-8 .8E. ....|G-4 ..7D ....
....|..|G-2 2... ....|--- .... ....|--- .... ....
....|..|G-4 M.5D ....|R-- .... ....|E-4 3F.B ....
..15|..|--- .... ....|C#8 .8E. ....|--- .... ....
....|..|G-4 FF.F ....|--- .... ....|B-3 2..F ....
....|..|--- .... ....|R-- ...B ....|--- .... ....
..15|..|G-4 5... ....|C-8 .8EF ....|G-4 G.7B ....
....|..|G-4 2... ....|R-- ...B ....|--- .... ....
..25|..|G-4 ...9 ....|B-7 .8EF ....|G-4 ...D ....
....|..|--- .... ....|R-- ...B ....|--- .... ....
..25|..|G-4 A..D ....|A#7 .8EF ....|B-3 3F.B ....
....|..|G-3 2... ....|R-- ...B ....|--- .... ....
..23|..|C-5 A..F ....|A#8 .CEF ....|D-4 2..F ....
....|..|C-3 M... ....|R-- .... ....|--- .... ....
..23|..|C-4 ...D ....|A#8 .EE. ....|G-4 G.7B ....
....|..|--- .... ....|R-- .... ....|--- .... ....
..23|..|C-5 A..F ....|A#8 .CE. ....|C-4 ...D ....
....|..|C-3 2... ....|--- .... ....|--- .... ....
....|..|C-5 M.5D ....|R-- .... ....|D-4 3F.B ....
....|..|--- .... ....|--- .... ....|--- .... ....
..1F|..|C-5 FF.F ....|A#8 .CE. ....|D-4 2..F ....
....|..|--- .... ....|R-- .... ....|--- .... ....
..1F|..|C-5 5... ....|A#8 .EE. ....|D-4 G.7B ....
....|..|C-5 2... ....|R-- .... ....|--- .... ....
..1F|..|C-5 ...9 ....|A#8 .CE. ....|C-4 ...D ....
....|..|--- .... ....|--- .... ....|--- .... ....
....|..|C-5 A..D ....|R-- .... ....|D-4 3F.B ....
....|..|C-4 2... ....|--- .... ....|--- .... ....
..1C|..|B-3 A..F ....|A#8 .8E. ....|D-4 2..F ....
....|..|B-2 M... ....|R-- .... ....|--- .... ....
..1C|..|B-3 ...D ....|A#8 .AE. ....|D-4 G.7B ....
....|..|--- .... ....|R-- .... ....|--- .... ....
..1C|..|B-4 A..F ....|A#8 .8E. ....|B-3 ...D ....
....|..|B-2 2... ....|--- .... ....|--- .... ....
....|..|B-4 M.5D ....|R-- .... ....|D-4 3F.B ....
....|..|--- .... ....|--- .... ....|--- .... ....
..1A|..|B-4 FF.F ....|A#8 .8E. ....|D-4 2..F ....
....|..|--- .... ....|R-- .... ....|--- .... ....
..1A|..|B-4 5... ....|A#8 .8E. ....|B-3 G.7B ....
....|..|B-4 2... ....|R-- .... ....|--- .... ....
..1A|..|B-4 ...9 ....|A#8 .8E. ....|B-3 ...D ....
....|..|--- .... ....|--- .... ....|--- .... ....
....|..|B-4 A..D ....|R-- .... ....|D-4 3F.B ....
....|..|B-3 2... ....|--- .... ....|--- .... ....

[Pattern19]
..23|..|G-4 AF.F ....|B-8 V8EF ....|A-4 2F.F ....
....|..|G-2 M... ....|--- .... ....|--- .... ....
....|..|G-3 ...D ....|--- ...B ....|D-4 G.7B ....
....|..|--- .... ....|R-- .... ....|--- .... ....
..1F|..|G-4 A..F ....|A#8 .8EF ....|G-4 ..6D ....
....|..|G-2 2... ....|--- .... ....|--- .... ....
....|..|G-4 M.5D ....|R-- ...B ....|A-4 3F.B ....
..1D|..|--- .... ....|A-8 .8EF ....|--- .... ....
....|..|G-4 FF.F ....|--- .... ....|A#4 2..F ....
....|..|--- .... ....|R-- ...B ....|--- .... ....
..1D|..|G-4 5... ....|G#8 .8EF ....|G-4 G.6B ....
....|..|G-4 2... ....|R-- .... ....|--- .... ....
..1A|..|G-4 ...9 ....|G-8 .8E. ....|G-4 ...D ....
....|..|--- .... ....|R-- ...B ....|--- .... ....
..1A|..|G-4 A..D ....|F#8 .8EF ....|A#4 3F.B ....
....|..|G-3 2... ....|--- ...B ....|--- .... ....
..17|..|G-4 A..F ....|F-8 .8EF ....|G-4 2..F ....
..1A|..|G-2 M... ....|E-8 .8E. ....|--- .... ....
..17|..|G-3 ...D ....|D#8 .8E. ....|G-4 G.6B ....
....|..|--- .... ....|R-- .... ....|--- .... ....
..1A|..|G-4 A..F ....|D-8 .8E. ....|A#4 ..7D ....
....|..|G-2 2... ....|--- .... ....|--- .... ....
....|..|G-4 M.5D ....|R-- .... ....|G-4 3F.B ....
..1D|..|--- .... ....|C#8 .8E. ....|--- .... ....
....|..|G-4 FF.F ....|--- .... ....|D-4 2..F ....
....|..|--- .... ....|R-- ...B ....|--- .... ....
..1D|..|G-4 5... ....|C-8 .8EF ....|G-4 G.6B ....
....|..|G-4 2... ....|R-- ...B ....|--- .... ....
..27|..|G-4 ...9 ....|B-7 .8EF ....|A#4 ..7D ....
....|..|--- .... ....|R-- ...B ....|--- .... ....
..27|..|G-4 A..D ....|A#7 .8EF ....|D-4 3F.B ....
....|..|G-3 2... ....|R-- ...B ....|--- .... ....
..23|..|A#4 A..F ....|A#8 .CEF ....|F-4 2..F ....
....|..|A#2 M... ....|R-- .... ....|--- .... ....
..23|..|A#3 ...D ....|A#8 .EE. ....|G-4 G.6B ....
....|..|--- .... ....|R-- .... ....|--- .... ....
..23|..|A#4 A..F ....|A#8 .CE. ....|A#4 ..7D ....
....|..|A#2 2... ....|--- .... ....|--- .... ....
....|..|A#4 M.5D ....|R-- .... ....|F-4 3F.B ....
....|..|--- .... ....|--- .... ....|--- .... ....
..27|..|A#4 FF.F ....|A#8 .CE. ....|F-4 2..F ....
....|..|--- .... ....|R-- .... ....|--- .... ....
..27|..|A#4 5... ....|A#8 .EE. ....|F-4 G.7B ....
....|..|A#4 2... ....|R-- .... ....|--- .... ....
..27|..|A#4 ...9 ....|A#8 .CE. ....|A#4 ...D ....
....|..|--- .... ....|--- .... ....|--- .... ....
....|..|A#4 A..D ....|R-- .... ....|F-4 3F.B ....
....|..|A#3 2... ....|--- .... ....|--- .... ....
..16|..|F-4 A..F ....|A#8 .8E. ....|F-4 2..F ....
....|..|F-2 M... ....|R-- .... ....|--- .... ....
..2C|..|F-3 ...D ....|A#8 .8E. ....|F-4 G.7B ....
....|..|--- .... ....|R-- .... ....|--- .... ....
..16|..|F-4 A..F ....|A#8 .8E. ....|A#4 ...D ....
....|..|F-2 2... ....|--- .... ....|--- .... ....
....|..|F-4 M.5D ....|R-- .... ....|F-4 3F.B ....
....|..|--- .... ....|--- .... ....|--- .... ....
..17|..|D-4 FF.F ....|A#8 .8E. ....|F-4 2..F ....
....|..|--- .... ....|R-- .... ....|--- .... ....
..2F|..|D-4 5... ....|A#8 .8E. ....|D-4 G.7B ....
....|..|D-4 2... ....|R-- .... ....|--- .... ....
..17|..|D-4 ...9 ....|A#8 .8E. ....|D-4 ...D ....
....|..|--- .... ....|--- .... ....|--- .... ....
....|..|D-4 A..D ....|R-- .... ....|F-4 3F.B ....
....|..|D-3 2... ....|--- .... ....|--- .... ....

[Pattern20]
....|..|B-3 KF.B ....|B-1 1F5B 22.C|B-2 1F5B 22.6
....|..|--- ...8 ....|--- ...8 ....|--- ...8 ....
....|..|B-3 .... ....|--- .... ....|--- .... ....
....|..|B-3 ...B ....|--- ...B ....|--- ...B ....
....|..|B-3 ...8 ....|--- ...8 ....|--- ...8 ....
....|..|B-3 .... ....|--- .... ....|--- .... ....
....|..|B-3 ...B ....|--- ...B ....|--- ...B ....
....|..|B-3 ...8 ....|--- ...8 ....|--- ...8 ....
....|..|B-3 .... ....|--- .... ....|--- .... ....
....|..|B-3 ...B ....|--- ...B ....|--- ...B ....
....|..|B-3 ...8 ....|--- ...8 ....|--- ...8 ....
....|..|B-3 .... ....|--- .... ....|--- .... ....
....|..|B-3 ...C ....|--- ...C ....|--- ...C ....
....|..|B-3 ...9 ....|--- ...9 ....|--- ...9 ....
....|..|B-3 ...C ....|--- ...C ....|--- ...C ....
....|..|B-3 ...9 ....|--- ...9 ....|--- ...9 ....
....|..|B-3 ...D ....|--- ...D ....|--- ...D ....
....|..|B-3 ...A ....|--- ...A ....|--- ...A ....
....|..|B-3 .... ....|--- .... ....|--- .... ....
....|..|B-3 ...D ....|--- ...D ....|--- ...D ....
....|..|B-3 ...A ....|--- ...A ....|--- ...A ....
....|..|B-3 .... ....|--- .... ....|--- .... ....
....|..|B-3 ...E ....|--- ...E ....|--- ...E ....
....|..|B-3 ...B ....|--- ...B ....|--- ...B ....
....|..|B-3 .... ....|F#4 JF.. ....|A-4 J... ....
....|..|B-3 ...E ....|--- ...E ....|--- ...E ....
....|..|B-3 ...B ....|F#4 ...B ....|A-4 ...B ....
....|..|B-3 .... ....|F#4 .... ....|A-4 .... ....
....|..|B-3 ...F ....|F#4 ...F ....|A-4 ...F ....
....|..|B-3 ...B ....|F#4 ...B ....|A-4 ...B ....
....|..|B-3 ...F ....|F#4 ...F ....|A-4 ...F ....
....|..|B-3 ...B ....|F#4 ...B ....|A-4 ...B ....

[Pattern21]
....|..|C-4 AF.F ....|F#4 2F.F ....|A-4 2F.F ....
....|..|--- .... ....|--- .... ....|E-4 ...B ....
..1C|..|B-2 7A.. ....|--- .... ....|B-4 ...F ....
....|..|--- .... ....|--- .... ....|A-4 ...B ....
....|..|C-4 AF.. ....|--- ...B ....|E-4 ...F ....
....|..|--- .... ....|--- .... ....|B-4 ...B ....
..1C|..|B-2 7A.. ....|--- .... ....|A-4 ...F ....
....|..|--- .... ....|--- .... ....|E-4 ...B ....
....|..|C-4 AF.. ....|--- .... ....|B-4 ...F ....
....|..|--- .... ....|--- .... ....|A-4 ...B ....
..1C|..|B-2 7A.. ....|--- .... ....|E-4 ...F ....
....|..|--- .... ....|--- .... ....|B-4 ...B ....
....|..|C-4 AF.. ....|--- .... ....|A-4 ...F ....
....|..|--- .... ....|--- .... ....|E-4 ...B ....
..1C|..|B-2 7A.. ....|--- .... ....|E-4 ...F ....
....|..|--- .... ....|--- .... ....|A-4 ...B ....
....|..|C-4 AF.. ....|G-4 ...F ....|A-4 ...F ....
....|..|--- .... ....|--- .... ....|E-4 ...B ....
..1C|..|B-2 7A.. ....|--- .... ....|B-4 ...F ....
....|..|--- .... ....|--- .... ....|A-4 ...B ....
....|..|C-4 AF.. ....|--- ...B ....|E-4 ...F ....
....|..|--- .... ....|--- .... ....|B-4 ...B ....
..1C|..|B-2 7A.. ....|--- .... ....|A-4 ...F ....
....|..|--- .... ....|--- .... ....|E-4 ...B ....
....|..|C-4 AF.. ....|--- .... ....|B-4 ...F ....
....|..|--- .... ....|--- .... ....|A-4 ...B ....
..1C|..|B-2 7A.. ....|--- .... ....|A-4 ...F ....
....|..|--- .... ....|--- .... ....|B-4 ...B ....
....|..|C-4 AF.. ....|--- .... ....|B-4 ...F ....
....|..|--- .... ....|--- .... ....|A-4 ...B ....
..1C|..|B-2 7A.. ....|--- .... ....|E-4 ...F ....
....|..|--- .... ....|--- .... ....|B-4 ...B ....
....|..|C-4 AF.. ....|E-4 ...F ....|A-4 ...F ....
....|..|--- .... ....|--- .... ....|E-4 ...B ....
..1C|..|B-2 7A.. ....|--- .... ....|B-4 ...F ....
....|..|--- .... ....|--- .... ....|A-4 ...B ....
....|..|C-4 AF.. ....|--- ...B ....|E-4 ...F ....
....|..|--- .... ....|--- .... ....|B-4 ...B ....
..1C|..|B-2 7A.. ....|--- .... ....|A-4 ...F ....
....|..|--- .... ....|--- .... ....|E-4 ...B ....
....|..|C-4 AF.. ....|--- .... ....|B-4 ...F ....
....|..|--- .... ....|--- .... ....|A-4 ...B ....
..1C|..|B-2 7A.. ....|--- .... ....|E-4 ...F ....
....|..|--- .... ....|--- .... ....|B-4 ...B ....
....|..|C-4 AF.. ....|--- .... ....|A-4 ...F ....
....|..|--- .... ....|--- .... ....|E-4 ...B ....
..1C|..|B-2 7A.. ....|--- .... ....|E-4 ...F ....
....|..|--- .... ....|--- .... ....|A-4 ...B ....
....|..|C-4 AF.. ....|B-3 ...F ....|A-4 ...F ....
....|..|--- .... ....|--- .... ....|E-4 ...B ....
..1C|..|B-2 7A.. ....|--- .... ....|B-4 ...F ....
....|..|--- .... ....|--- .... ....|A-4 ...B ....
....|..|C-4 AF.. ....|--- ...B ....|E-4 ...F ....
....|..|--- .... ....|--- .... ....|B-4 ...B ....
..1C|..|B-2 7A.. ....|--- .... ....|A-4 ...F ....
....|..|--- .... ....|--- .... ....|E-4 ...B ....
....|..|C-4 AF.. ....|--- .... ....|B-4 ...F ....
....|..|--- .... ....|--- .... ....|A-4 ...B ....
..1C|..|B-2 7A.. ....|--- .... ....|A-4 ...F ....
....|..|--- .... ....|--- .... ....|B-4 ...B ....
....|..|C-4 AF.. ....|--- .... ....|B-4 ...F ....
....|..|--- .... ....|--- .... ....|A-4 ...B ....
..1C|..|B-2 7A.. ....|--- .... ....|E-4 ...F ....
....|..|--- .... ....|--- .... ....|B-4 ...B ....

[Pattern22]
....|..|C-4 AF.F ....|F#4 GF.F ....|A-4 2F1F ....
....|..|--- .... ....|--- .... ....|E-4 ...B ....
..1C|..|B-2 7A.. ....|F#5 .... ....|B-4 ...F ....
....|..|--- .... ....|--- .... ....|A-4 ...B ....
....|..|C-4 AF.. ....|F#4 ...B ....|E-4 ...F ....
....|..|--- .... ....|--- .... ....|B-4 ...B ....
..1C|..|B-2 7A.. ....|F#5 .... ....|A-4 ...F ....
....|..|--- .... ....|--- .... ....|E-4 ...B ....
....|..|C-4 AF.. ....|E-4 3.1D ....|B-4 ...F ....
....|..|--- .... ....|A-4 .... ....|A-4 ...B ....
..1C|..|B-2 7A.. ....|B-4 .... ....|E-4 ...F ....
....|..|--- .... ....|E-4 .... ....|B-4 ...B ....
....|..|C-4 AF.. ....|A-4 ...A ....|A-4 ...F ....
....|..|--- .... ....|B-4 .... ....|E-4 ...B ....
..1C|..|B-2 7A.. ....|E-4 .... ....|E-4 ...F ....
....|..|--- .... ....|A-4 .... ....|A-4 ...B ....
....|..|C-4 AF.. ....|G-4 GF.F ....|A-4 ...F ....
....|..|--- .... ....|--- .... ....|E-4 ...B ....
..1C|..|B-2 7A.. ....|G-5 .... ....|B-4 ...F ....
....|..|--- .... ....|--- .... ....|A-4 ...B ....
....|..|C-4 AF.. ....|G-4 ...B ....|E-4 ...F ....
....|..|--- .... ....|--- .... ....|B-4 ...B ....
..1C|..|B-2 7A.. ....|G-5 .... ....|A-4 ...F ....
....|..|--- .... ....|--- .... ....|E-4 ...B ....
....|..|C-4 AF.. ....|E-4 3.5D ....|B-4 ...F ....
....|..|--- .... ....|A-4 .... ....|A-4 ...B ....
..1C|..|B-2 7A.. ....|B-4 .... ....|A-4 ...F ....
....|..|--- .... ....|E-4 .... ....|B-4 ...B ....
....|..|C-4 AF.. ....|A-4 ...A ....|B-4 ...F ....
....|..|--- .... ....|B-4 .... ....|A-4 ...B ....
..1C|..|B-2 7A.. ....|E-4 .... ....|E-4 ...F ....
....|..|--- .... ....|A-4 .... ....|B-4 ...B ....
....|..|C-4 AF.. ....|E-4 2F.F ....|A-4 ...F ....
....|..|--- .... ....|--- .... ....|E-4 ...B ....
..1C|..|B-2 7A.. ....|E-5 .... ....|B-4 ...F ....
....|..|--- .... ....|--- .... ....|A-4 ...B ....
....|..|C-4 AF.. ....|E-4 ...B ....|E-4 ...F ....
....|..|--- .... ....|--- .... ....|B-4 ...B ....
..1C|..|B-2 7A.. ....|E-5 .... ....|A-4 ...F ....
....|..|--- .... ....|--- .... ....|E-4 ...B ....
....|..|C-4 AF.. ....|E-4 3.1D ....|B-4 ...F ....
....|..|--- .... ....|A-4 .... ....|A-4 ...B ....
..1C|..|B-2 7A.. ....|B-4 .... ....|E-4 ...F ....
....|..|--- .... ....|E-4 .... ....|B-4 ...B ....
....|..|C-4 AF.. ....|A-4 ...A ....|A-4 ...F ....
....|..|--- .... ....|B-4 .... ....|E-4 ...B ....
..1C|..|B-2 7A.. ....|E-4 .... ....|E-4 ...F ....
....|..|--- .... ....|A-4 .... ....|A-4 ...B ....
....|..|C-4 AF.. ....|B-3 2F.F ....|A-4 ...F ....
....|..|--- .... ....|--- .... ....|E-4 ...B ....
..1C|..|B-2 7A.. ....|B-4 .... ....|B-4 ...F ....
....|..|--- .... ....|--- .... ....|A-4 ...B ....
..1C|..|C-4 AF.. ....|C-7 58EB ....|E-4 ...F ....
....|..|--- .... ....|R-- .... ....|B-4 ...B ....
..1C|..|B-2 7A.. ....|D-7 28E. ....|A-4 ...F ....
....|..|--- .... ....|R-- .... ....|E-4 ...B ....
..1C|..|C-4 AF.. ....|E-7 .8E. ....|B-4 ...F ....
....|..|--- .... ....|R-- .... ....|A-4 ...B ....
..1C|..|B-2 7A.. ....|F-7 58E. ....|A-4 ...F ....
....|..|--- .... ....|R-- .... ....|B-4 ...B ....
..1C|..|C-4 AF.. ....|G-7 .8E. ....|B-4 ...F ....
....|..|--- .... ....|R-- .... ....|A-4 ...B ....
..1C|..|B-2 7A.. ....|A-7 28E. ....|E-4 ...F ....
....|..|--- .... ....|R-- .... ....|B-4 ...B ....

[Pattern23]
....|..|C-4 AF.F ....|E-4 GF.F ....|A-4 2F1F ....
....|..|--- .... ....|--- .... ....|E-4 ...B ....
..2A|..|E-1 4A.. ....|E-5 .... ....|B-4 5..F ....
....|..|--- .... ....|--- .... ....|A-4 ...B ....
....|..|C-4 AF.. ....|E-4 2.6B ....|E-4 2..F ....
....|..|--- .... ....|--- .... ....|B-4 ...B ....
..2A|..|E-1 4A.. ....|--- .... ....|A-4 ...F ....
....|..|--- .... ....|--- .... ....|E-4 ...B ....
....|..|C-4 AF.. ....|E-4 3.1D ....|B-4 ...F ....
....|..|--- .... ....|A-4 .... ....|A-4 5..B ....
..2A|..|E-1 4A.. ....|B-4 .... ....|E-4 ...F ....
....|..|--- .... ....|E-4 .... ....|B-4 2..B ....
....|..|C-4 AF.. ....|A-4 ...A ....|A-4 5..F ....
....|..|--- .... ....|B-4 .... ....|E-4 2..B ....
..2A|..|E-1 4A.. ....|E-4 .... ....|E-4 ...F ....
....|..|--- .... ....|A-4 .... ....|A-4 ...B ....
....|..|C-4 AF.. ....|G-4 GF.F ....|A-4 5..F ....
....|..|--- .... ....|--- .... ....|E-4 ...B ....
..23|..|G-1 4A.. ....|G-5 .... ....|B-4 2..F ....
....|..|--- .... ....|--- .... ....|A-4 ...B ....
....|..|C-4 AF.. ....|G-4 2.7B ....|E-4 5..F ....
....|..|--- .... ....|--- .... ....|B-4 ...B ....
..23|..|G-1 4A.. ....|--- .... ....|A-4 ...F ....
....|..|--- .... ....|--- .... ....|E-4 2..B ....
....|..|C-4 AF.. ....|E-4 3.5D ....|B-4 ...F ....
....|..|--- .... ....|A-4 .... ....|A-4 ...B ....
..23|..|G-1 4A.. ....|B-4 .... ....|A-4 ...F ....
....|..|--- .... ....|E-4 .... ....|B-4 5..B ....
....|..|C-4 AF.. ....|A-4 ...A ....|B-4 ...F ....
....|..|--- .... ....|B-4 .... ....|A-4 ...B ....
....|..|C-4 .... ....|E-4 .... ....|E-4 2..F ....
....|..|--- .... ....|A-4 .... ....|B-4 ...B ....
....|..|C-4 .... ....|C-4 2F.F ....|A-4 5..F ....
....|..|--- .... ....|--- .... ....|E-4 ...B ....
..1A|..|C-2 4A.. ....|C-5 .... ....|B-4 2..F ....
....|..|--- .... ....|--- .... ....|A-4 5..B ....
....|..|C-4 AF.. ....|C-4 ..7B ....|E-4 2..F ....
....|..|--- .... ....|--- .... ....|B-4 ...B ....
..1A|..|C-2 4A.. ....|--- .... ....|A-4 ...F ....
....|..|--- .... ....|--- .... ....|E-4 ...B ....
....|..|C-4 AF.. ....|E-4 3.5D ....|B-4 5..F ....
....|..|--- .... ....|A-4 .... ....|A-4 2..B ....
..1A|..|C-2 4A.. ....|B-4 .... ....|E-4 ...F ....
....|..|--- .... ....|E-4 .... ....|B-4 5..B ....
....|..|C-4 AF.. ....|A-4 ...A ....|A-4 2..F ....
....|..|--- .... ....|B-4 .... ....|E-4 ...B ....
..1A|..|C-2 4A.. ....|E-4 .... ....|E-4 ...F ....
....|..|--- .... ....|A-4 .... ....|A-4 ...B ....
....|..|C-4 AF.. ....|B-3 2.7F ....|A-4 ...F ....
....|..|--- .... ....|--- .... ....|E-4 ...B ....
..1C|..|B-1 4A.. ....|B-4 .... ....|B-4 5..F ....
....|..|--- .... ....|--- .... ....|A-4 ...B ....
..1C|..|C-4 AF.. ....|C-7 58EB ....|E-4 2..F ....
....|..|--- .... ....|R-- .... ....|B-4 ...B ....
..1C|..|B-2 48.. ....|D-7 2... ....|A-4 ...F ....
....|..|--- .... ....|R-- .... ....|E-4 ...B ....
....|..|C-4 AF.. ....|E-7 .... ....|B-4 ...F ....
....|..|--- .... ....|R-- .... ....|A-4 ...B ....
..1C|..|B-2 48.. ....|F-7 5... ....|A-4 5..F ....
....|..|--- .... ....|R-- .... ....|B-4 ...B ....
....|..|C-4 AF.. ....|G-7 .... ....|B-4 2..F ....
....|..|--- .... ....|R-- .... ....|A-4 ...B ....
....|..|C-4 .... ....|A-7 2... ....|E-4 ...F ....
....|..|--- .... ....|R-- .... ....|B-4 ...B ....

[Pattern24]
....|..|C-4 AF.F ....|E-4 GF1F ....|A-4 2F1F ....
....|..|--- .... ....|--- .... ....|E-4 ...B ....
..2A|..|E-1 4A.. ....|E-5 .... ....|B-4 5..F ....
....|..|--- .... ....|--- .... ....|A-4 ...B ....
....|..|C-4 AF.. ....|E-4 2.6B ....|E-4 2..F ....
....|..|--- .... ....|--- .... ....|B-4 ...B ....
..2A|..|E-1 4A.. ....|--- .... ....|A-4 ...F ....
....|..|--- .... ....|--- .... ....|E-4 ...B ....
....|..|C-4 AF.. ....|E-4 3.1D ....|B-4 ...F ....
....|..|--- .... ....|A-4 .... ....|A-4 5..B ....
..2A|..|E-1 4A.. ....|B-4 .... ....|E-4 ...F ....
....|..|--- .... ....|E-4 .... ....|B-4 2..B ....
....|..|C-4 AF.. ....|A-4 ...A ....|A-4 5..F ....
....|..|--- .... ....|B-4 .... ....|E-4 2..B ....
..2A|..|E-1 4A.. ....|E-4 .... ....|E-4 ...F ....
....|..|--- .... ....|A-4 .... ....|A-4 ...B ....
....|..|C-4 AF.. ....|G-4 GF.F ....|A-4 5..F ....
....|..|--- .... ....|--- .... ....|E-4 ...B ....
..23|..|G-1 4A.. ....|G-5 .... ....|B-4 2..F ....
....|..|--- .... ....|--- .... ....|A-4 ...B ....
....|..|C-4 AF.. ....|G-4 2.7B ....|E-4 5..F ....
....|..|--- .... ....|--- .... ....|B-4 ...B ....
..23|..|G-1 4A.. ....|--- .... ....|A-4 ...F ....
....|..|--- .... ....|--- .... ....|E-4 2..B ....
....|..|C-4 AF.. ....|E-4 3.5D ....|B-4 ...F ....
....|..|--- .... ....|A-4 .... ....|A-4 ...B ....
..23|..|G-1 4A.. ....|B-4 .... ....|A-4 ...F ....
....|..|--- .... ....|E-4 .... ....|B-4 5..B ....
....|..|C-4 AF.. ....|A-4 ...A ....|B-4 ...F ....
....|..|--- .... ....|B-4 .... ....|A-4 ...B ....
....|..|C-4 .... ....|E-4 .... ....|E-4 2..F ....
....|..|--- .... ....|A-4 .... ....|B-4 ...B ....
....|..|C-4 .... ....|C-4 2F.F ....|A-4 ...F ....
....|..|--- .... ....|--- .... ....|E-4 ...B ....
..1A|..|C-2 4A.. ....|C-5 .... ....|B-4 5..F ....
....|..|--- .... ....|--- .... ....|A-4 ...B ....
....|..|C-4 AF.. ....|C-4 ..7B ....|E-4 2..F ....
....|..|--- .... ....|--- .... ....|B-4 ...B ....
..1A|..|C-2 4A.. ....|--- .... ....|A-4 ...F ....
....|..|--- .... ....|--- .... ....|E-4 ...B ....
....|..|C-4 AF.. ....|E-4 3.5D ....|B-4 ...F ....
....|..|--- .... ....|A-4 .... ....|A-4 5..B ....
..1A|..|C-2 4A.. ....|B-4 .... ....|E-4 ...F ....
....|..|--- .... ....|E-4 .... ....|B-4 2..B ....
....|..|C-4 AF.. ....|A-4 ...A ....|A-4 5..F ....
....|..|--- .... ....|B-4 .... ....|E-4 2..B ....
..1A|..|C-2 4A.. ....|E-4 .... ....|E-4 ...F ....
....|..|--- .... ....|A-4 .... ....|A-4 ...B ....
....|..|C-4 AF.. ....|B-3 2.7F ....|A-4 5..F ....
....|..|--- .... ....|--- .... ....|E-4 ...B ....
..1C|..|B-1 4A.. ....|B-4 .... ....|B-4 2..F ....
....|..|--- .... ....|--- .... ....|A-4 ...B ....
....|..|C-4 AF.. ....|E-4 ..1A ....|E-4 5..F ....
....|..|--- .... ....|E-4 5..7 ....|B-4 ...B ....
..1C|..|B-2 48.. ....|E-4 2..B ....|A-4 ...F ....
....|..|--- .... ....|E-4 5..8 ....|E-4 2..B ....
....|..|C-4 AF.. ....|E-4 2..C ....|B-4 ...F ....
....|..|--- .... ....|E-4 ...9 ....|A-4 ...B ....
..1C|..|B-2 48.. ....|E-4 5..D ....|A-4 ...F ....
....|..|--- .... ....|E-4 2..A ....|B-4 5..B ....
....|..|C-4 AF.. ....|E-4 5..E ....|B-4 ...F ....
....|..|--- .... ....|E-4 ...B ....|A-4 ...B ....
....|..|C-4 .... ....|E-4 2..F ....|E-4 2..F ....
....|..|--- .... ....|E-4 5..C ....|B-4 ...B ....

[Pattern25]
....|..|C-4 AF.F ....|E-4 2F1F ....|E-4 MF6F ....
....|..|--- .... ....|--- .... ....|--- .... ....
..2A|..|E-1 4A.. ....|E-5 5..B ....|--- .... ....
....|..|--- .... ....|R-- .... ....|--- .... ....
....|..|C-4 AF.. ....|F#4 2..F ....|--- ...D ....
....|..|--- .... ....|--- .... ....|--- .... ....
..2A|..|E-1 4A.. ....|E-4 ...B ....|--- .... ....
....|..|--- .... ....|G-4 ...F 3140|--- .... ....
....|..|C-4 AF.. ....|--- .... ....|--- .... ....
....|..|--- .... ....|F#4 5..B ....|--- .... ....
..2A|..|E-1 4A.. ....|G-4 ...F ....|--- .... ....
....|..|--- .... ....|G-4 2..B ....|--- .... ....
....|..|C-4 AF.. ....|A-4 5..F 3130|--- ...F ....
....|..|--- .... ....|G-4 2..B ....|--- .... ....
..2A|..|E-1 4A.. ....|A-4 ...F ....|--- .... ....
....|..|--- .... ....|A-4 ...B ....|--- .... ....
....|..|C-4 AF.. ....|B-4 5..F ....|G-4 ..7D ....
....|..|--- .... ....|A-4 .... 3130|--- .... ....
..23|..|G-1 4A.. ....|B-4 2... 3130|--- .... ....
....|..|--- .... ....|B-4 ...B ....|--- .... ....
....|..|C-4 AF.. ....|D-5 5..F ....|--- .... ....
....|..|--- .... ....|--- .... ....|--- .... ....
..23|..|G-1 4A.. ....|B-4 ...B ....|--- .... ....
....|..|--- .... ....|E-5 2..F 3140|--- .... ....
....|..|C-4 AF.. ....|--- .... ....|--- ...F ....
....|..|--- .... ....|D-5 ...B ....|--- .... ....
..23|..|G-1 4A.. ....|E-5 ...F ....|--- .... ....
....|..|--- .... ....|E-5 5..B ....|--- .... ....
....|..|C-4 AF.. ....|F#5 ...F ....|--- ...D ....
....|..|--- .... ....|E-5 ...B ....|--- .... ....
....|..|C-4 .... ....|F#5 2..F ....|--- .... ....
....|..|--- .... ....|F#5 ...B ....|--- .... ....
....|..|C-4 .... ....|G-5 5..F ....|C-5 .... ....
....|..|--- .... ....|F#5 ...B ....|--- .... ....
..1A|..|C-2 4A.. ....|G-4 2..F ....|--- .... ....
....|..|--- .... ....|G-5 5..B ....|--- .... ....
....|..|C-4 AF.. ....|G-5 2..F ....|--- ...F ....
....|..|--- .... ....|--- .... ....|--- .... ....
..1A|..|C-2 4A.. ....|G-4 ...B ....|--- .... ....
....|..|--- .... ....|--- .... ....|--- .... ....
....|..|C-4 AF.. ....|A-5 5..F ....|--- ...D ....
....|..|--- .... ....|G-5 2..B ....|--- .... ....
..1A|..|C-2 4A.. ....|A-4 ...F ....|--- .... ....
....|..|--- .... ....|A-5 5..B ....|--- .... ....
....|..|C-4 AF.. ....|A-5 2..F ....|--- .... ....
....|..|--- .... ....|--- .... ....|--- .... ....
..1A|..|C-2 4A.. ....|A-4 ...B ....|--- .... ....
....|..|--- .... ....|--- .... ....|--- .... ....
....|..|C-4 AF.. ....|B-5 ...F ....|B-4 ...F ....
....|..|--- .... ....|A-5 ...B ....|--- .... ....
..1C|..|B-1 4A.. ....|B-4 5..F ....|--- .... ....
....|..|--- .... ....|B-5 ...B ....|--- .... ....
....|..|C-4 AF.. ....|B-5 2..F ....|--- ...D ....
....|..|--- .... ....|--- .... ....|--- .... ....
..1C|..|B-1 4A.. ....|B-4 ...B ....|--- .... ....
....|..|--- .... ....|--- .... ....|--- .... ....
....|..|C-4 AF.. ....|C-6 ...F ....|--- ...F ....
....|..|--- .... ....|B-5 ...B ....|--- .... ....
..1C|..|B-1 4A.. ....|C-5 5..F ....|--- .... ....
....|..|--- .... ....|C-6 ...B ....|--- .... ....
....|..|C-4 AF.. ....|C-6 2..F ....|--- ...D ....
....|..|--- .... ....|--- .... ....|--- .... ....
....|..|C-4 .... ....|C-5 .... ....|--- .... ....
....|..|--- .... ....|--- .... ....|--- .... ....

[Pattern26]
....|..|C-4 AF.F ....|G-4 2F.F ....|G-4 MF6F ....
....|..|--- .... ....|--- .... ....|--- .... ....
..23|..|G-3 7A.. ....|G-5 5..B ....|--- .... ....
....|..|--- .... ....|R-- .... ....|--- .... ....
....|..|C-4 AF.. ....|A-4 2..F ....|--- ...D ....
....|..|--- .... ....|--- .... ....|--- .... ....
..23|..|G-3 7A.. ....|G-4 ...B ....|--- .... ....
....|..|--- .... ....|A#4 ...F 3140|--- .... ....
....|..|C-4 AF.. ....|--- .... ....|--- .... ....
....|..|--- .... ....|A-4 5..B ....|--- .... ....
..23|..|G-3 7A.. ....|A#4 ...F ....|--- .... ....
....|..|--- .... ....|A#4 2..B ....|--- .... ....
....|..|C-4 AF.. ....|C-5 5..F 3130|--- ...F ....
....|..|--- .... ....|A#4 2..B ....|--- .... ....
..23|..|G-3 7A.. ....|C-5 ...F ....|--- .... ....
....|..|--- .... ....|C-5 ...B ....|--- .... ....
....|..|C-4 AF.. ....|D-5 5..F ....|G-4 ...D ....
....|..|--- .... ....|C-5 .... 3130|--- .... ....
..23|..|G-3 7A.. ....|D-5 2... 3130|--- .... ....
....|..|--- .... ....|C-5 ...B ....|--- .... ....
....|..|C-4 AF.. ....|C-5 5..F ....|--- .... ....
....|..|--- .... ....|--- .... ....|--- .... ....
..23|..|G-3 7A.. ....|D-5 ...B ....|--- .... ....
....|..|--- .... ....|A#4 2..F 3140|--- .... ....
....|..|C-4 AF.. ....|--- .... ....|--- ...F ....
....|..|--- .... ....|C-5 ...B ....|--- .... ....
..23|..|G-3 7A.. ....|A#4 ...F ....|--- .... ....
....|..|--- .... ....|A#4 5..B ....|--- .... ....
....|..|C-4 AF.. ....|F-4 ...F ....|--- ...D ....
....|..|--- .... ....|A#4 ...B ....|--- .... ....
..23|..|G-3 7A.. ....|F-4 2..F ....|--- .... ....
....|..|--- .... ....|F-4 ...B ....|--- .... ....
....|..|C-4 AF.. ....|G-5 5..F ....|A#4 ..7. ....
....|..|--- .... ....|F-4 ...B ....|--- .... ....
..1D|..|A#3 7A.. ....|F-4 2..F ....|--- .... ....
....|..|--- .... ....|G-5 5..B ....|--- .... ....
....|..|C-4 AF.. ....|G-5 2..F 11.1|--- ...F ....
....|..|--- .... ....|--- .... ....|--- .... ....
..1D|..|A#3 7A.. ....|F-4 ...B ....|--- .... ....
....|..|--- .... ....|--- .... ....|--- .... ....
....|..|C-4 AF.. ....|F-5 5..F ....|--- ...D ....
....|..|--- .... ....|G-5 2..B ....|--- .... ....
..1D|..|A#3 7A.. ....|D-4 ...F ....|--- .... ....
....|..|--- .... ....|F-5 5..B ....|--- .... ....
....|..|C-4 AF.. ....|F-5 2..F 11.1|--- .... ....
....|..|--- .... ....|--- .... ....|--- .... ....
..1D|..|A#3 7A.. ....|D-4 ...B ....|--- .... ....
....|..|--- .... ....|--- .... ....|--- .... ....
....|..|C-4 AF.. ....|D#5 ...F ....|F-4 ...F ....
....|..|--- .... ....|F-5 ...B ....|--- .... ....
..27|..|F-3 7A.. ....|D#4 5..F ....|--- .... ....
....|..|--- .... ....|D-4 ...B ....|--- .... ....
....|..|C-4 AF.. ....|D#5 2..F 11.1|--- ...D ....
....|..|--- .... ....|--- .... ....|--- .... ....
..27|..|F-3 7A.. ....|D#4 ...B ....|--- .... ....
....|..|--- .... ....|--- .... ....|--- .... ....
....|..|C-4 AF.. ....|D-5 ...F ....|D-4 ...F ....
....|..|--- .... ....|D#5 ...B ....|--- .... ....
..2F|..|D-3 7A.. ....|D-4 5..F ....|--- .... ....
....|..|--- .... ....|D-5 ...B ....|--- .... ....
....|..|C-4 AF.. ....|D-5 2..F 11.1|--- ...D ....
....|..|--- .... ....|--- .... ....|--- .... ....
..2F|..|D-3 7A.. ....|D-4 ...B ....|--- .... ....
....|..|--- .... ....|--- .... ....|--- .... ....

