[Module]
VortexTrackerII=0
Version=3.5
Title=1d-3me-2me,4m[3e]-6m[uf]+,5p[3]-8me[2d]
Author=oisee ^ 4d 29.05.2010
NoteTable=4
ChipFreq=1750000
Speed=4
PlayOrder=L0,1,2,3,4,5,6,7,8,9,10,11,12,13,14,15,16,17,18,19,20,21,22,23,24,25,26,27,28,29,30,31,32,33


[Ornament1]
L0,0,9,9

[Ornament2]
L0,0,12,12

[Ornament3]
L0,0,10,10

[Ornament4]
L0,0,11,11

[Ornament5]
L0,0,7,7

[Ornament6]
L0,0,8,8,20,20

[Ornament7]
L0,0,8,8

[Ornament8]
L0,0,12,12,22,22

[Ornament9]
L0,0,4,4

[Ornament10]
L0,0,12,12,24,24

[Ornament11]
L0,0,11,11,23,23


[Sample1]
TnE +000_ +00_ F_
TnE +000_ +00_ F_
TnE +000_ +00_ F_
TnE +000_ +00_ D_
TnE +000_ +00_ B_
TnE +000_ +00_ B_ L

[Sample2]
TnE +000_ +00_ F_ L

[Sample3]
TnE +001_ +00_ F_
TnE +002_ +00_ F_
TnE +001_ +00_ E_
TnE +002_ +00_ E_
TnE +000_ +00_ E_ L
TnE -001_ +00_ E_
TnE -002_ +00_ E_
TnE -001_ +00_ E_
TnE +000_ +00_ E_
TnE +001_ +00_ E_
TnE +002_ +00_ E_
TnE +001_ +00_ E_

[Sample4]
TnE +002_ +00_ D_
TnE +002_ +00_ D_
TnE +002_ +00_ C_
TnE +002_ +00_ B_
TnE +002_ +00_ A_ L
TnE +002_ +00_ A_
TnE +002_ +00_ A_
TnE +002_ +00_ A_
TnE +002_ +00_ A_
TnE +002_ +00_ A_
TnE +002_ +00_ A_
TnE +002_ +00_ A_

[Sample5]
TnE +000_ +00_ F_
TnE +000_ +00_ F_
tne +000_ +00_ 0_ L

[Sample6]
TnE -001_ +00_ F_ L

[Sample7]
TnE +006_ +00_ F_ L

[Sample8]
tNe +000_ +00_ F_
tNe +000_ +00_ B_
tNe +000_ +00_ 7_
tNe +000_ +00_ 6- L

[Sample9]
TnE +080_ +00_ F_
TnE +100_ +00_ E_
TnE +180_ +00_ E_
TnE +200_ +00_ E_
TnE +240_ +00_ D_
TnE +280_ +00_ D_
TnE +2C0_ +00_ D_
TnE +300_ +00_ C_
TnE +300_ +00_ C_
TnE +340_ +00_ C_
TnE +340_ +00_ C_
TnE +380_ +00_ B_
TnE +380_ +00_ B_
TnE +400_ +00_ B_
TnE +400_ +00_ B_
TnE +480_ +00_ A_
TnE +500_ +00_ 9_
TnE +580_ +00_ 7_
TnE +600_ +00_ 4_
TnE +680_ +00_ 1_
TnE +000_ +00_ 0_ L

[Sample10]
Tne +1C0_ +00_ F_
Tne +280_ +00_ E_
Tne +380_ +00_ C_
Tne +440_ +00_ A_
Tne +480_ +00_ 8_
TnE +000_ +00_ 0_ L

[Sample11]
TNe +200_ -0A_ F_
tNe +000_ +0F_ A_
TNe +200_ -07_ E_
tNe +000_ +0E_ B- L

[Sample12]
TNE +0A0_ +05_ F_
TNE +140_ +02_ D_
TNE +140_ +02_ B_
TNE +100_ +00_ A_ L
TNE +140_ +00_ A_
TNE +200_ +00_ A-

[Sample13]
Tne +200_ +00_ F_
Tne +2C0_ +00_ F_
Tne +380_ +00_ E_
Tne +500_ +00_ C_
Tne +520_ +00_ 9_
tne +000_ +00_ 0_ L

[Sample14]
TNE -100_ +00_ F_
TNE -100_ +00_ D_
TNE -100_ +00_ A_
TNE -100_ +00_ 5_
tne +000_ +00_ 0_ L

[Sample15]
TNE -100_ +00_ 5_
TNE -100_ +00_ 8_
TNE -100_ +00_ B_
TNE -100_ +00_ F_
TNe -100_ +00_ 9- L

[Sample16]
TnE +000_ +00_ C_
TnE +000_ +00_ E_
TnE +000_ +00_ F_
TnE +000_ +00_ F_
TnE +000_ +00_ E_
TnE +000_ +00_ D_
TnE +000_ +00_ C_
TnE +000_ +00_ C_ L
TnE +001_ +00_ C_
TnE +002_ +00_ C_
TnE +003_ +00_ C_
TnE +001_ +00_ C_
TnE +000_ +00_ C_
TnE -001_ +00_ C_
TnE -002_ +00_ C_
TnE -003_ +00_ C_
TnE -001_ +00_ C_
TnE +000_ +00_ C_
TnE +000_ +00_ C_

[Sample17]
Tne +1C0_ +00_ F_
Tne +280_ +00_ D_
Tne +380_ +00_ 7_
TNE +000_ +00_ 0_ L

[Sample18]
TnE -00C_ +00_ 0_ L

[Sample19]
TNe +000_ +00_ F_
TNe +000_ +00_ C_
TNe +000_ +00_ 6_
TNe +000_ +01_ A- L

[Sample20]
TNE +140_ +00_ F_
tNE +000_ +00_ B- L

[Sample21]
tNE +000_ +00_ D_
tNE +000_ +00_ 8_
tNE +000_ +00_ 1_
TNE +000_ +00_ 0_ L

[Sample22]
TnE +000_ +00_ D_ L
TnE +000_ +00_ D_
tne +000_ +00_ 9_
tne +000_ +00_ 9_
TnE +000_ +00_ D_
TnE +000_ +00_ D_
tne +000_ +00_ 9_
tne +000_ +00_ 9_
TnE +000_ +00_ D_
TnE +000_ +00_ D_
TnE +000_ +00_ D_
TnE +000_ +00_ D_
TnE +000_ +00_ D_
TnE +000_ +00_ D_
tne +000_ +00_ 9_
tne +000_ +00_ 9_

[Sample23]
TnE +000_ +00_ F_ L
TnE +010_ +01_ F_
TnE +010_ +01_ F_
TnE +010_ +01_ F_
TnE +010_ +01_ F_
TnE +000_ +00_ F_
TnE +000_ +00_ F_
TnE -010_ -01_ F_
TnE -010_ -01_ F_
TnE -010_ -01_ F_
TnE -010_ -01_ F_
TnE +000_ +00_ F_

[Sample24]
TNe +000_ -01_ C_
TNe +000_ -01_ D_
TNe +000_ -01_ E_
TNe +000_ -01_ F_
TNe +000_ -01_ F_
TNe +000_ -01_ F_
TNe +000_ -01_ F_
TNe +000_ -01_ F_
TNe +000_ -01_ E_
TNe +000_ -01_ E_
TNe +000_ -01_ E_
TNe +000_ -01_ F_
TNe +000_ -01_ F_ L

[Sample25]
TNE +000_ +00_ F_
TNE +000_ +00_ F_ L
TNE +000_ +00_ F_
TNE +000_ +00_ F_
TNE +000_ +00_ F-

[Sample26]
tne +000_ +00_ 0_ L

[Sample27]
TnE +100_ +05_ F_
TnE +200_ +02_ A_
TnE +300_ +02_ 7_
TNE +400_ +00_ 3- L

[Sample28]
tne +000_ +00_ 0_ L

[Sample29]
tnE +000_ +00_ 0_ L

[Sample30]
TNE +000_ +00_ C+ L

[Sample31]
TNe +1C0_ +00_ F_
Tne +280_ +00_ E_
Tne +380_ +00_ C_
Tne +440_ +00_ A_
Tne +480_ +00_ 8_
TnE +000_ +00_ 0_ L

[Pattern0]
....|..|--- .... ....|--- .... ....|--- .... ....
....|..|--- .... ....|--- .... ....|--- .... ....
....|..|--- .... ....|--- .... ....|--- .... ....
....|..|--- .... ....|--- .... ....|--- .... ....
....|..|--- .... ....|--- .... ....|--- .... ....
....|..|--- .... ....|--- .... ....|--- .... ....
....|..|--- .... ....|--- .... ....|--- .... ....
....|..|--- .... ....|--- .... ....|--- .... ....
....|..|--- .... ....|--- .... ....|--- .... ....
....|..|--- .... ....|--- .... ....|--- .... ....
....|..|--- .... ....|--- .... ....|--- .... ....
....|..|--- .... ....|--- .... ....|--- .... ....
....|..|--- .... ....|--- .... ....|--- .... ....
....|..|--- .... ....|--- .... ....|--- .... ....
....|..|--- .... ....|--- .... ....|--- .... ....
....|..|--- .... ....|--- .... ....|--- .... ....
....|..|--- .... ....|--- .... ....|--- .... ....
....|..|--- .... ....|--- .... ....|--- .... ....
....|..|--- .... ....|--- .... ....|--- .... ....
....|..|--- .... ....|--- .... ....|--- .... ....
....|..|--- .... ....|--- .... ....|--- .... ....
....|..|--- .... ....|--- .... ....|--- .... ....
....|..|--- .... ....|--- .... ....|--- .... ....
....|..|--- .... ....|--- .... ....|--- .... ....
....|..|--- .... ....|--- .... ....|--- .... ....
....|..|--- .... ....|--- .... ....|--- .... ....
....|..|--- .... ....|--- .... ....|--- .... ....
....|..|--- .... ....|--- .... ....|--- .... ....
....|..|--- .... ....|--- .... ....|--- .... ....
....|..|--- .... ....|--- .... ....|--- .... ....
....|..|--- .... ....|--- .... ....|--- .... ....
....|..|--- .... ....|--- .... ....|--- .... ....
 C-4|..|C-2 2A.F ....|--- .... ....|--- .... ....
....|..|--- .... ....|--- .... ....|--- .... ....
....|..|--- .... ....|--- .... ....|--- .... ....
....|..|--- .... ....|--- .... ....|--- .... ....
....|..|--- .... ....|--- .... ....|--- .... ....
....|..|--- .... ....|--- .... ....|--- .... ....
....|..|--- .... ....|--- .... ....|--- .... ....
....|..|--- .... ....|--- .... ....|--- .... ....
....|..|--- .... ....|--- .... ....|--- .... ....
....|..|--- .... ....|--- .... ....|--- .... ....
....|..|--- .... ....|--- .... ....|--- .... ....
....|..|--- .... ....|--- .... ....|--- .... ....
....|..|C-2 2F.A ....|--- .... ....|--- .... ....
....|..|--- .... ....|--- .... ....|--- .... ....
....|..|--- .... ....|--- .... ....|--- .... ....
....|..|--- .... ....|--- .... ....|--- .... ....
....|..|--- .... ....|--- .... ....|--- .... ....
....|..|--- .... ....|--- .... ....|--- .... ....
....|..|--- .... ....|--- .... ....|--- .... ....
....|..|--- .... ....|--- .... ....|--- .... ....
....|..|--- .... ....|--- .... ....|--- .... ....
....|..|--- .... ....|--- .... ....|--- .... ....
....|..|--- .... ....|--- .... ....|--- .... ....
....|..|--- .... ....|--- .... ....|--- .... ....
....|..|C-2 2F.7 ....|--- .... ....|--- .... ....
....|..|--- .... ....|--- .... ....|--- .... ....
....|..|--- .... ....|--- .... ....|--- .... ....
....|..|--- .... ....|--- .... ....|--- .... ....
....|..|--- .... ....|--- .... ....|--- .... ....
....|..|--- .... ....|--- .... ....|--- .... ....
....|..|--- .... ....|--- .... ....|--- .... ....
....|..|--- .... ....|--- .... ....|--- .... ....
....|..|--- .... ....|--- .... ....|--- .... ....
....|..|--- .... ....|--- .... ....|--- .... ....
....|..|--- .... ....|--- .... ....|--- .... ....
....|..|--- .... ....|--- .... ....|--- .... ....
....|..|--- .... ....|--- .... ....|--- .... ....
....|..|--- .... ....|--- .... ....|--- .... ....
....|..|--- .... ....|--- .... ....|--- .... ....
....|..|--- .... ....|--- .... ....|--- .... ....
....|..|--- .... ....|--- .... ....|--- .... ....
....|..|--- .... ....|--- .... ....|--- .... ....
....|..|--- .... ....|--- .... ....|--- .... ....
....|..|--- .... ....|--- .... ....|--- .... ....
....|..|--- .... ....|--- .... ....|--- .... ....
....|..|--- .... ....|--- .... ....|--- .... ....
....|..|--- .... ....|--- .... ....|--- .... ....
....|..|--- .... ....|--- .... ....|--- .... ....
....|..|--- .... ....|--- .... ....|--- .... ....
....|..|--- .... ....|--- .... ....|--- .... ....
....|..|--- .... ....|--- .... ....|--- .... ....
....|..|--- .... ....|--- .... ....|--- .... ....
....|..|--- .... ....|--- .... ....|--- .... ....
....|..|--- .... ....|--- .... ....|--- .... ....
....|..|--- .... ....|--- .... ....|--- .... ....
....|..|--- .... ....|--- .... ....|--- .... ....
....|..|--- .... ....|--- .... ....|--- .... ....
....|..|--- .... ....|--- .... ....|--- .... ....
....|..|--- .... ....|--- .... ....|--- .... ....
....|..|--- .... ....|--- .... ....|--- .... ....
....|..|--- .... ....|--- .... ....|--- .... ....
....|..|--- .... ....|--- .... ....|--- .... ....
....|..|--- .... ....|--- .... ....|--- .... ....
....|..|--- .... ....|--- .... ....|--- .... ....
....|..|C-4 AF.F ....|--- .... ....|--- .... ....
....|..|--- .... ....|--- .... ....|--- .... ....
....|..|C-4 LF.F ....|--- .... ....|--- .... ....
....|..|--- .... ....|--- .... ....|--- .... ....
....|..|C-4 AF.F ....|--- .... ....|--- .... ....
....|..|--- .... ....|--- .... ....|--- .... ....
....|..|C-4 LF.F ....|--- .... ....|--- .... ....
....|..|--- .... ....|--- .... ....|--- .... ....
....|..|C-5 VF.F ....|--- .... ....|--- .... ....
....|..|--- .... ....|--- .... ....|--- .... ....
....|..|C-4 LF.F ....|--- .... ....|--- .... ....
....|..|--- .... ....|--- .... ....|--- .... ....
....|..|B-8 JF.F ....|--- .... ....|--- .... ....
....|..|--- .... ....|--- .... ....|--- .... ....
....|..|C-5 VF.F ....|--- .... ....|--- .... ....
....|..|--- .... ....|--- .... ....|--- .... ....
....|..|B-8 JF.F ....|--- .... ....|--- .... ....
....|..|--- .... ....|--- .... ....|--- .... ....
....|..|C-4 LF.F ....|--- .... ....|--- .... ....
....|..|--- .... ....|--- .... ....|--- .... ....
....|..|C-4 AF.F ....|--- .... ....|--- .... ....
....|..|--- .... ....|--- .... ....|--- .... ....
....|..|C-4 AF.F ....|--- .... ....|--- .... ....
....|..|--- .... ....|--- .... ....|--- .... ....
....|..|C-5 VF.F ....|--- .... ....|--- .... ....
....|..|--- .... ....|--- .... ....|--- .... ....
....|..|C-4 AF.F ....|--- .... ....|--- .... ....
....|..|--- .... ....|--- .... ....|--- .... ....
....|..|B-8 JF.F ....|--- .... ....|--- .... ....
....|..|--- .... ....|--- .... ....|--- .... ....
....|..|C-5 VF.F ....|--- .... ....|--- .... ....
....|..|--- .... ....|--- .... ....|--- .... ....

[Pattern1]
....|..|C-4 AF.F ....|--- .... ....|--- .... ....
....|..|--- .... ....|--- .... ....|--- .... ....
....|..|C-4 LF.F ....|--- .... ....|--- .... ....
....|..|--- .... ....|--- .... ....|--- .... ....
....|..|C-4 AF.F ....|--- .... ....|--- .... ....
....|..|--- .... ....|--- .... ....|--- .... ....
....|..|C-4 LF.F ....|--- .... ....|--- .... ....
....|..|--- .... ....|--- .... ....|--- .... ....
....|..|C-5 VF.F ....|--- .... ....|--- .... ....
....|..|--- .... ....|--- .... ....|--- .... ....
....|..|C-4 LF.F ....|--- .... ....|--- .... ....
....|..|--- .... ....|--- .... ....|--- .... ....
....|..|B-8 JF.F ....|--- .... ....|--- .... ....
....|..|--- .... ....|--- .... ....|--- .... ....
....|..|C-5 VF.F ....|--- .... ....|--- .... ....
....|..|--- .... ....|--- .... ....|--- .... ....
....|..|B-8 JF.F ....|--- .... ....|--- .... ....
....|..|--- .... ....|--- .... ....|--- .... ....
....|..|C-4 LF.F ....|--- .... ....|--- .... ....
....|..|--- .... ....|--- .... ....|--- .... ....
....|..|C-4 AF.F ....|--- .... ....|--- .... ....
....|..|--- .... ....|--- .... ....|--- .... ....
....|..|C-4 AF.F ....|--- .... ....|--- .... ....
....|..|--- .... ....|--- .... ....|--- .... ....
....|..|C-5 VF.F ....|--- .... ....|--- .... ....
....|..|--- .... ....|--- .... ....|--- .... ....
....|..|C-4 AF.F ....|--- .... ....|--- .... ....
....|..|--- .... ....|--- .... ....|--- .... ....
....|..|B-8 JF.F ....|--- .... ....|--- .... ....
....|..|--- .... ....|--- .... ....|--- .... ....
....|..|C-5 VF.F ....|--- .... ....|--- .... ....
....|..|--- .... ....|--- .... ....|--- .... ....
....|..|C-4 AF.F ....|--- .... ....|--- .... ....
 C-4|..|C-2 2A.F ....|--- .... ....|--- .... ....
....|..|C-4 LF.F ....|--- .... ....|--- .... ....
....|..|--- .... ....|--- .... ....|--- .... ....
....|..|C-4 AF.F ....|--- .... ....|--- .... ....
....|..|--- .... ....|--- .... ....|--- .... ....
....|..|C-4 LF.F ....|--- .... ....|--- .... ....
....|..|--- .... ....|--- .... ....|--- .... ....
....|..|C-5 VF.F ....|--- .... ....|--- .... ....
....|..|--- .... ....|--- .... ....|--- .... ....
....|..|C-4 LF.F ....|--- .... ....|--- .... ....
....|..|--- .... ....|--- .... ....|--- .... ....
....|..|B-8 JF.F ....|--- .... ....|--- .... ....
....|..|C-2 2F.A ....|--- .... ....|--- .... ....
....|..|C-5 VF.F ....|--- .... ....|--- .... ....
....|..|--- .... ....|--- .... ....|--- .... ....
....|..|B-8 JF.F ....|--- .... ....|--- .... ....
....|..|--- .... ....|--- .... ....|--- .... ....
....|..|C-4 LF.F ....|--- .... ....|--- .... ....
....|..|--- .... ....|--- .... ....|--- .... ....
....|..|C-4 AF.F ....|--- .... ....|--- .... ....
....|..|--- .... ....|--- .... ....|--- .... ....
....|..|C-4 AF.F ....|--- .... ....|--- .... ....
....|..|--- .... ....|--- .... ....|--- .... ....
....|..|C-5 VF.F ....|--- .... ....|--- .... ....
....|..|C-2 2F.7 ....|--- .... ....|--- .... ....
....|..|C-4 AF.F ....|--- .... ....|--- .... ....
....|..|--- .... ....|--- .... ....|--- .... ....
....|..|B-8 JF.F ....|--- .... ....|--- .... ....
....|..|--- .... ....|--- .... ....|--- .... ....
....|..|C-5 VF.F ....|--- .... ....|--- .... ....
....|..|--- .... ....|--- .... ....|--- .... ....
....|..|C-4 AF.F ....|--- .... ....|--- .... ....
....|..|--- .... ....|--- .... ....|--- .... ....
....|..|C-4 LF.F ....|--- .... ....|--- .... ....
....|..|--- .... ....|--- .... ....|--- .... ....
....|..|C-4 AF.F ....|--- .... ....|--- .... ....
....|..|--- .... ....|--- .... ....|--- .... ....
....|..|C-4 LF.F ....|--- .... ....|--- .... ....
....|..|--- .... ....|--- .... ....|--- .... ....
....|..|C-4 AF.F ....|--- .... ....|--- .... ....
....|..|--- .... ....|--- .... ....|--- .... ....
....|..|C-4 LF.F ....|--- .... ....|--- .... ....
....|..|--- .... ....|--- .... ....|--- .... ....
....|..|B-8 JF.F ....|--- .... ....|--- .... ....
....|..|--- .... ....|--- .... ....|--- .... ....
....|..|C-5 VF.F ....|--- .... ....|--- .... ....
....|..|--- .... ....|--- .... ....|--- .... ....
....|..|B-8 JF.F ....|--- .... ....|--- .... ....
....|..|--- .... ....|--- .... ....|--- .... ....
....|..|C-4 LF.F ....|--- .... ....|--- .... ....
....|..|--- .... ....|--- .... ....|--- .... ....
....|..|C-4 AF.F ....|--- .... ....|--- .... ....
....|..|--- .... ....|--- .... ....|--- .... ....
....|..|C-4 AF.F ....|--- .... ....|--- .... ....
....|..|--- .... ....|--- .... ....|--- .... ....
....|..|C-4 AF.F ....|--- .... ....|--- .... ....
....|..|--- .... ....|--- .... ....|--- .... ....
....|..|C-4 AF.F ....|--- .... ....|--- .... ....
....|..|--- .... ....|--- .... ....|--- .... ....
....|..|B-8 JF.F ....|--- .... ....|--- .... ....
....|..|--- .... ....|--- .... ....|--- .... ....
....|..|C-5 VF.F ....|--- .... ....|--- .... ....
....|..|--- .... ....|--- .... ....|--- .... ....
....|..|C-4 AF.F ....|--- .... ....|--- .... ....
....|..|--- .... ....|--- .... ....|--- .... ....
....|..|C-4 LF.F ....|--- .... ....|--- .... ....
....|..|--- .... ....|--- .... ....|--- .... ....
....|..|C-4 AF.F ....|--- .... ....|--- .... ....
....|..|--- .... ....|--- .... ....|--- .... ....
....|..|C-4 RF.F ....|--- .... ....|--- .... ....
....|..|--- .... ....|--- .... ....|--- .... ....
....|..|C-4 AF.F ....|--- .... ....|--- .... ....
....|..|--- .... ....|--- .... ....|--- .... ....
....|..|C-4 LF.F ....|--- .... ....|--- .... ....
....|..|--- .... ....|--- .... ....|--- .... ....
....|..|B-8 JF.F ....|--- .... ....|--- .... ....
....|..|--- .... ....|--- .... ....|--- .... ....
....|..|C-5 VF.F ....|--- .... ....|--- .... ....
....|..|--- .... ....|--- .... ....|--- .... ....
....|..|B-8 JF.F ....|--- .... ....|--- .... ....
....|..|--- .... ....|--- .... ....|--- .... ....
....|..|C-4 LF.F ....|--- .... ....|--- .... ....
....|..|--- .... ....|--- .... ....|--- .... ....
....|..|C-4 AF.F ....|--- .... ....|--- .... ....
....|..|--- .... ....|--- .... ....|--- .... ....
....|..|C-4 AF.F ....|--- .... ....|--- .... ....
....|..|--- .... ....|--- .... ....|--- .... ....
....|..|C-4 AF.F ....|--- .... ....|--- .... ....
....|..|--- .... ....|--- .... ....|--- .... ....
....|..|C-4 AF.F ....|--- .... ....|--- .... ....
....|..|--- .... ....|--- .... ....|--- .... ....
....|..|B-8 JF.F ....|--- .... ....|--- .... ....
....|..|--- .... ....|--- .... ....|--- .... ....
....|..|C-5 VF.F ....|--- .... ....|--- .... ....
....|..|--- .... ....|--- .... ....|--- .... ....

[Pattern2]
....|..|C-4 AF.F ....|--- .... ....|--- .... ....
....|..|--- .... ....|--- .... ....|--- .... ....
....|..|C-4 LF.F ....|--- .... ....|--- .... ....
....|..|--- .... ....|--- .... ....|--- .... ....
....|..|C-4 AF.F ....|--- .... ....|--- .... ....
....|..|--- .... ....|--- .... ....|--- .... ....
....|..|C-4 RF.F ....|--- .... ....|--- .... ....
....|..|--- .... ....|--- .... ....|--- .... ....
....|..|C-4 AF.F ....|--- .... ....|--- .... ....
....|..|--- .... ....|--- .... ....|--- .... ....
....|..|C-4 LF.F ....|--- .... ....|--- .... ....
....|..|--- .... ....|--- .... ....|--- .... ....
....|..|B-8 JF.F ....|--- .... ....|--- .... ....
....|..|--- .... ....|--- .... ....|--- .... ....
....|..|C-5 VF.F ....|--- .... ....|--- .... ....
....|..|--- .... ....|--- .... ....|--- .... ....
....|..|B-8 JF.F ....|--- .... ....|--- .... ....
....|..|--- .... ....|--- .... ....|--- .... ....
....|..|C-4 LF.F ....|--- .... ....|--- .... ....
....|..|--- .... ....|--- .... ....|--- .... ....
....|..|C-4 AF.F ....|--- .... ....|--- .... ....
....|..|--- .... ....|--- .... ....|--- .... ....
....|..|C-4 AF.F ....|--- .... ....|--- .... ....
....|..|--- .... ....|--- .... ....|--- .... ....
....|..|C-4 AF.F ....|--- .... ....|--- .... ....
....|..|--- .... ....|--- .... ....|--- .... ....
....|..|C-4 AF.F ....|--- .... ....|--- .... ....
....|..|--- .... ....|--- .... ....|--- .... ....
....|..|B-8 JF.F ....|--- .... ....|--- .... ....
....|..|--- .... ....|--- .... ....|--- .... ....
....|..|C-5 VF.F ....|--- .... ....|--- .... ....
....|..|--- .... ....|--- .... ....|--- .... ....
....|..|C-4 AF.F ....|--- .... ....|--- .... ....
 C-4|..|C-2 2A.F ....|--- .... ....|--- .... ....
....|..|C-4 LF.F ....|--- .... ....|--- .... ....
....|..|--- .... ....|--- .... ....|--- .... ....
....|..|C-4 AF.F ....|--- .... ....|--- .... ....
....|..|--- .... ....|--- .... ....|--- .... ....
....|..|C-4 RF.F ....|--- .... ....|--- .... ....
....|..|--- .... ....|--- .... ....|--- .... ....
....|..|C-4 AF.F ....|--- .... ....|--- .... ....
....|..|--- .... ....|--- .... ....|--- .... ....
....|..|C-4 LF.F ....|--- .... ....|--- .... ....
....|..|--- .... ....|--- .... ....|--- .... ....
....|..|B-8 JF.F ....|--- .... ....|--- .... ....
....|..|C-2 2F.A ....|--- .... ....|--- .... ....
....|..|C-5 VF.F ....|--- .... ....|--- .... ....
....|..|--- .... ....|--- .... ....|--- .... ....
....|..|B-8 JF.F ....|--- .... ....|--- .... ....
....|..|--- .... ....|--- .... ....|--- .... ....
....|..|C-4 LF.F ....|--- .... ....|--- .... ....
....|..|--- .... ....|--- .... ....|--- .... ....
....|..|C-4 AF.F ....|--- .... ....|--- .... ....
....|..|--- .... ....|--- .... ....|--- .... ....
....|..|C-4 AF.F ....|--- .... ....|--- .... ....
....|..|--- .... ....|--- .... ....|--- .... ....
....|..|C-4 AF.F ....|--- .... ....|--- .... ....
....|..|C-2 2F.7 ....|--- .... ....|--- .... ....
....|..|C-4 AF.F ....|--- .... ....|--- .... ....
....|..|--- .... ....|--- .... ....|--- .... ....
....|..|B-8 JF.F ....|--- .... ....|--- .... ....
....|..|--- .... ....|--- .... ....|--- .... ....
....|..|C-5 VF.F ....|--- .... ....|--- .... ....
....|..|--- .... ....|--- .... ....|--- .... ....
....|..|C-4 AF.F ....|--- .... ....|--- .... ....
....|..|--- .... ....|--- .... ....|--- .... ....
....|..|C-4 LF.F ....|--- .... ....|--- .... ....
....|..|--- .... ....|--- .... ....|--- .... ....
....|..|C-4 AF.F ....|--- .... ....|--- .... ....
....|..|--- .... ....|--- .... ....|--- .... ....
....|..|C-4 RF.F ....|--- .... ....|--- .... ....
....|..|--- .... ....|--- .... ....|--- .... ....
....|..|C-4 AF.F ....|--- .... ....|--- .... ....
....|..|--- .... ....|--- .... ....|--- .... ....
....|..|C-4 LF.F ....|--- .... ....|--- .... ....
....|..|--- .... ....|--- .... ....|--- .... ....
....|..|C-4 AF.F ....|--- .... ....|--- .... ....
....|..|--- .... ....|--- .... ....|--- .... ....
....|..|C-4 AF.F ....|--- .... ....|--- .... ....
....|..|--- .... ....|--- .... ....|--- .... ....
....|..|C-4 LF.F ....|--- .... ....|--- .... ....
....|..|--- .... ....|--- .... ....|--- .... ....
....|..|C-4 LF.F ....|--- .... ....|--- .... ....
....|..|--- .... ....|--- .... ....|--- .... ....
....|..|C-4 LF.F ....|--- .... ....|--- .... ....
....|..|--- .... ....|--- .... ....|--- .... ....
....|..|C-4 RF.F ....|--- .... ....|--- .... ....
....|..|--- .... ....|--- .... ....|--- .... ....
....|..|C-4 AF.F ....|--- .... ....|--- .... ....
....|..|--- .... ....|--- .... ....|--- .... ....
....|..|C-4 AF.F ....|--- .... ....|--- .... ....
....|..|R-- .... ....|--- .... ....|--- .... ....
....|..|C-4 AF.F ....|--- .... ....|--- .... ....
....|..|--- .... ....|--- .... ....|--- .... ....
....|..|C-4 AF.F ....|--- .... ....|--- .... ....
....|..|R-- .... ....|--- .... ....|--- .... ....
....|..|C-4 AF.F ....|E-5 3FEF ....|--- .... ....
....|..|--- .... ....|--- .... ....|--- .... ....
....|..|C-4 LF.F ....|--- .... ....|--- .... ....
....|..|--- .... ....|--- .... ....|--- .... ....
....|..|C-4 AF.F ....|R-- .... ....|--- .... ....
....|..|--- .... ....|--- .... ....|--- .... ....
....|..|C-4 RF.F ....|--- .... ....|--- .... ....
....|..|R-- .... ....|--- .... ....|--- .... ....
....|..|C-4 AF.F ....|E-5 3FEF ....|--- .... ....
....|..|--- .... ....|--- .... ....|--- .... ....
....|..|C-4 LF.F ....|--- .... ....|--- .... ....
....|..|R-- .... ....|--- .... ....|--- .... ....
....|..|B-8 JF.F ....|D#5 3FEF ....|--- .... ....
....|..|--- .... ....|--- .... ....|--- .... ....
....|..|C-4 AF.F ....|--- .... ....|--- .... ....
....|..|--- .... ....|--- .... ....|--- .... ....
....|..|B-8 JF.F ....|E-5 3FEF ....|--- .... ....
....|..|--- .... ....|--- .... ....|--- .... ....
....|..|C-4 AF.F ....|--- .... ....|--- .... ....
....|..|R-- .... ....|--- .... ....|--- .... ....
....|..|C-4 AF.F ....|C#5 3FEF ....|--- .... ....
....|..|--- .... ....|--- .... ....|--- .... ....
....|..|C-4 AF.F ....|--- .... ....|--- .... ....
....|..|R-- .... ....|--- .... ....|--- .... ....
....|..|C-4 AF.F ....|E-5 3FE7 ....|--- .... ....
....|..|--- .... ....|--- .... ....|--- .... ....
....|..|C-4 AF.F ....|--- .... ....|--- .... ....
....|..|--- .... ....|--- .... ....|--- .... ....
....|..|B-8 JF.F ....|E-5 3FEA ....|--- .... ....
....|..|--- .... ....|--- .... ....|--- .... ....
....|..|C-4 AF.F ....|--- .... ....|--- .... ....
....|..|--- .... ....|--- .... ....|--- .... ....

[Pattern3]
....|..|C-4 AF.F ....|E-5 3FE7 ....|--- .... ....
....|..|--- .... ....|--- .... ....|--- .... ....
....|..|C-4 LF.F ....|--- .... ....|--- .... ....
....|..|--- .... ....|--- .... ....|--- .... ....
....|..|C-4 AF.F ....|D#5 3FE7 ....|--- .... ....
....|..|--- .... ....|--- .... ....|--- .... ....
....|..|C-4 RF.F ....|--- .... ....|--- .... ....
....|..|--- .... ....|--- .... ....|--- .... ....
....|..|C-4 AF.F ....|E-5 3FE7 ....|--- .... ....
....|..|--- .... ....|--- .... ....|--- .... ....
....|..|C-4 LF.F ....|--- .... ....|--- .... ....
....|..|--- .... ....|--- .... ....|--- .... ....
....|..|B-8 JF.F ....|C#5 3FE7 ....|--- .... ....
....|..|--- .... ....|--- .... ....|--- .... ....
....|..|C-4 AF.F ....|--- .... ....|--- .... ....
....|..|--- .... ....|--- .... ....|--- .... ....
....|..|B-8 JF.F ....|R-- .... ....|--- .... ....
....|..|--- .... ....|--- .... ....|--- .... ....
....|..|C-4 AF.F ....|--- .... ....|--- .... ....
....|..|--- .... ....|--- .... ....|--- .... ....
....|..|C-4 AF.F ....|--- .... ....|--- .... ....
....|..|--- .... ....|--- .... ....|--- .... ....
....|..|C-4 AF.F ....|--- .... ....|--- .... ....
....|..|--- .... ....|--- .... ....|--- .... ....
....|..|C-4 AF.F ....|--- .... ....|--- .... ....
....|..|--- .... ....|--- .... ....|--- .... ....
....|..|C-4 AF.F ....|--- .... ....|--- .... ....
....|..|--- .... ....|--- .... ....|--- .... ....
....|..|B-8 JF.F ....|D#5 3FEF ....|--- .... ....
....|..|--- .... ....|--- .... ....|--- .... ....
....|..|C-4 AF.F ....|--- .... ....|--- .... ....
....|..|--- .... ....|R-- .... ....|--- .... ....
....|..|C-4 AF.F ....|E-5 3FEF ....|--- .... ....
....|..|--- .... ....|--- .... ....|--- .... ....
....|..|C-4 LF.F ....|--- .... ....|--- .... ....
....|..|--- .... ....|--- .... ....|--- .... ....
....|..|C-4 AF.F ....|R-- .... ....|--- .... ....
....|..|--- .... ....|--- .... ....|--- .... ....
....|..|C-4 RF.F ....|--- .... ....|--- .... ....
....|..|--- .... ....|--- .... ....|--- .... ....
....|..|C-4 AF.F ....|E-5 3FEF ....|--- .... ....
....|..|--- .... ....|--- .... ....|--- .... ....
....|..|C-4 LF.F ....|--- .... ....|--- .... ....
....|..|--- .... ....|R-- .... ....|--- .... ....
....|..|B-8 JF.F ....|D#5 3FEF ....|--- .... ....
....|..|--- .... ....|--- .... ....|--- .... ....
....|..|C-4 AF.F ....|--- .... ....|--- .... ....
....|..|--- .... ....|--- .... ....|--- .... ....
....|..|B-8 JF.F ....|E-5 3FEF ....|--- .... ....
....|..|--- .... ....|--- .... ....|--- .... ....
....|..|C-4 AF.F ....|--- .... ....|--- .... ....
....|..|--- .... ....|--- .... ....|--- .... ....
....|..|C-4 AF.F ....|C#5 3FEF ....|--- .... ....
....|..|--- .... ....|--- .... ....|--- .... ....
....|..|C-4 AF.F ....|--- .... ....|--- .... ....
....|..|--- .... ....|R-- .... ....|--- .... ....
....|..|C-4 AF.F ....|E-5 3FE7 ....|--- .... ....
....|..|--- .... ....|--- .... ....|--- .... ....
....|..|C-4 AF.F ....|--- .... ....|--- .... ....
....|..|--- .... ....|--- .... ....|--- .... ....
....|..|B-8 JF.F ....|E-5 3FEA ....|--- .... ....
....|..|--- .... ....|--- .... ....|--- .... ....
....|..|C-4 AF.F ....|--- .... ....|--- .... ....
....|..|--- .... ....|--- .... ....|--- .... ....
....|..|C-4 AF.F ....|E-5 3FEF ....|--- .... ....
....|..|--- .... ....|--- .... ....|--- .... ....
....|..|C-4 LF.F ....|--- .... ....|--- .... ....
....|..|--- .... ....|--- .... ....|--- .... ....
....|..|C-4 AF.F ....|D#5 3FE7 ....|--- .... ....
....|..|--- .... ....|--- .... ....|--- .... ....
....|..|C-4 RF.F ....|--- .... ....|--- .... ....
....|..|--- .... ....|--- .... ....|--- .... ....
....|..|C-4 AF.F ....|E-5 3FEF ....|--- .... ....
....|..|--- .... ....|--- .... ....|--- .... ....
....|..|C-4 LF.F ....|--- .... ....|--- .... ....
....|..|--- .... ....|--- .... ....|--- .... ....
....|..|B-8 JF.F ....|D#5 3FEF ....|--- .... ....
....|..|--- .... ....|--- .... ....|--- .... ....
....|..|C-4 AF.F ....|--- .... ....|--- .... ....
....|..|--- .... ....|--- .... ....|--- .... ....
....|..|B-8 JF.F ....|E-5 3FEF ....|--- .... ....
....|..|--- .... ....|--- .... ....|--- .... ....
....|..|C-4 AF.F ....|--- .... ....|--- .... ....
....|..|--- .... ....|--- .... ....|--- .... ....
....|..|C-4 AF.F ....|C#5 3FEF ....|--- .... ....
....|..|--- .... ....|--- .... ....|--- .... ....
....|..|C-4 AF.F ....|--- .... ....|--- .... ....
....|..|--- .... ....|--- .... ....|--- .... ....
....|..|C-4 AF.F ....|E-5 3FE7 ....|--- .... ....
....|..|--- .... ....|--- .... ....|--- .... ....
....|..|C-4 AF.F ....|--- .... ....|--- .... ....
....|..|--- .... ....|--- .... ....|--- .... ....
....|..|B-8 JF.F ....|E-5 3FEA ....|--- .... ....
....|..|--- .... ....|--- .... ....|--- .... ....
....|..|C-4 AF.F ....|--- .... ....|--- .... ....
....|..|--- .... ....|--- .... ....|--- .... ....
....|..|C-4 AF.F ....|E-5 3FE7 ....|--- .... ....
....|..|--- .... ....|--- .... ....|--- .... ....
....|..|C-4 LF.F ....|--- .... ....|--- .... ....
....|..|--- .... ....|--- .... ....|--- .... ....
....|..|C-4 AF.F ....|D#5 3FE7 ....|--- .... ....
....|..|--- .... ....|--- .... ....|--- .... ....
....|..|C-4 RF.F ....|--- .... ....|--- .... ....
....|..|--- .... ....|--- .... ....|--- .... ....
....|..|C-4 AF.F ....|E-5 3FE7 ....|--- .... ....
....|..|--- .... ....|--- .... ....|--- .... ....
....|..|C-4 LF.F ....|--- .... ....|--- .... ....
....|..|--- .... ....|--- .... ....|--- .... ....
....|..|B-8 JF.F ....|C#5 3FE7 ....|--- .... ....
....|..|--- .... ....|--- .... ....|--- .... ....
....|..|C-4 AF.F ....|--- .... ....|--- .... ....
....|..|--- .... ....|--- .... ....|--- .... ....
....|..|B-8 JF.F ....|R-- .... ....|--- .... ....
....|..|--- .... ....|--- .... ....|--- .... ....
....|..|C-4 AF.F ....|--- .... ....|--- .... ....
....|..|--- .... ....|--- .... ....|--- .... ....
....|..|C-4 AF.F ....|--- .... ....|--- .... ....
....|..|--- .... ....|--- .... ....|--- .... ....
....|..|C-4 AF.F ....|--- .... ....|--- .... ....
....|..|--- .... ....|--- .... ....|--- .... ....
....|..|C-4 AF.F ....|--- .... ....|--- .... ....
....|..|--- .... ....|--- .... ....|--- .... ....
....|..|C-4 AF.F ....|--- .... ....|--- .... ....
....|..|--- .... ....|--- .... ....|--- .... ....
....|..|B-8 JF.F ....|--- .... ....|--- .... ....
....|..|--- .... ....|--- .... ....|--- .... ....
....|..|C-4 AF.F ....|--- .... ....|--- .... ....
....|..|--- .... ....|--- .... ....|--- .... ....

[Pattern4]
....|..|C-4 AF.F ....|E-5 3FEF ....|--- .... ....
....|..|--- .... ....|--- .... ....|--- .... ....
....|..|C-4 LF.F ....|--- .... ....|--- .... ....
....|..|--- .... ....|--- .... ....|--- .... ....
....|..|C-4 AF.F ....|R-- .... ....|--- .... ....
....|..|--- .... ....|--- .... ....|--- .... ....
....|..|C-4 RF.F ....|--- .... ....|--- .... ....
....|..|--- .... ....|--- .... ....|--- .... ....
....|..|C-4 AF.F ....|E-5 3FEF ....|--- .... ....
....|..|--- .... ....|--- .... ....|--- .... ....
....|..|C-4 LF.F ....|--- .... ....|--- .... ....
....|..|--- .... ....|--- .... ....|--- .... ....
....|..|B-8 JF.F ....|D#5 3FEF ....|--- .... ....
....|..|--- .... ....|--- .... ....|--- .... ....
....|..|C-4 AF.F ....|--- .... ....|--- .... ....
....|..|--- .... ....|--- .... ....|--- .... ....
....|..|B-8 JF.F ....|E-5 3FEF ....|--- .... ....
....|..|--- .... ....|--- .... ....|--- .... ....
....|..|C-4 AF.F ....|--- .... ....|--- .... ....
....|..|--- .... ....|--- .... ....|--- .... ....
....|..|C-4 AF.F ....|C#5 3FEF ....|--- .... ....
....|..|--- .... ....|--- .... ....|--- .... ....
....|..|C-4 AF.F ....|--- .... ....|--- .... ....
....|..|--- .... ....|--- .... ....|--- .... ....
....|..|C-4 AF.F ....|E-5 3FEF ....|--- .... ....
....|..|--- .... ....|--- .... ....|--- .... ....
....|..|C-4 AF.F ....|--- .... ....|--- .... ....
....|..|--- .... ....|--- .... ....|--- .... ....
....|..|B-8 JF.F ....|D#5 3FEF ....|--- .... ....
....|..|--- .... ....|--- .... ....|--- .... ....
....|..|C-4 AF.F ....|--- .... ....|--- .... ....
....|..|--- .... ....|--- .... ....|--- .... ....
....|..|C-4 AF.7 ....|E-5 3FEF ....|--- .... ....
....|..|--- .... ....|--- .... ....|--- .... ....
....|..|C-4 LF.7 ....|--- .... ....|--- .... ....
....|..|--- .... ....|--- .... ....|--- .... ....
....|..|B-8 JF.7 ....|C#5 3FEF ....|--- .... ....
....|..|--- .... ....|--- .... ....|--- .... ....
....|..|C-4 AF.7 ....|--- .... ....|--- .... ....
....|..|--- .... ....|--- .... ....|--- .... ....
....|..|B-8 JF.7 ....|E-5 3FEF ....|--- .... ....
....|..|--- .... ....|--- .... ....|--- .... ....
....|..|C-4 AF.7 ....|--- .... ....|--- .... ....
....|..|--- .... ....|--- .... ....|--- .... ....
....|..|C-4 AF.7 ....|D#5 3FEF ....|--- .... ....
....|..|--- .... ....|--- .... ....|--- .... ....
....|..|C-4 AF.7 ....|--- .... ....|--- .... ....
....|..|--- .... ....|--- .... ....|--- .... ....
....|..|C-4 AF.7 ....|E-5 3FEF ....|--- .... ....
....|..|--- .... ....|--- .... ....|--- .... ....
....|..|C-4 AF.7 ....|--- .... ....|--- .... ....
....|..|--- .... ....|--- .... ....|--- .... ....
....|..|B-8 JF.7 ....|C#5 3FEF ....|--- .... ....
....|..|--- .... ....|--- .... ....|--- .... ....
....|..|C-4 AF.7 ....|--- .... ....|--- .... ....
....|..|--- .... ....|--- .... ....|--- .... ....
....|..|--- .... ....|E-5 3FE7 ....|--- .... ....
....|..|--- .... ....|--- .... ....|--- .... ....
....|..|--- .... ....|--- .... ....|--- .... ....
....|..|--- .... ....|--- .... ....|--- .... ....
....|..|--- .... ....|C#5 3FE7 ....|--- .... ....
....|..|--- .... ....|--- .... ....|--- .... ....
....|..|--- .... ....|--- .... ....|--- .... ....
....|..|--- .... ....|--- .... ....|--- .... ....
....|..|--- .... ....|E-5 3FE7 ....|--- .... ....
....|..|--- .... ....|--- .... ....|--- .... ....
....|..|--- .... ....|--- .... ....|--- .... ....
....|..|--- .... ....|--- .... ....|--- .... ....
....|..|--- .... ....|D#5 3FE7 ....|--- .... ....
....|..|--- .... ....|--- .... ....|--- .... ....
....|..|--- .... ....|--- .... ....|--- .... ....
....|..|--- .... ....|--- .... ....|--- .... ....
....|..|--- .... ....|E-5 3FE7 ....|--- .... ....
....|..|--- .... ....|--- .... ....|--- .... ....
....|..|--- .... ....|--- .... ....|--- .... ....
....|..|--- .... ....|--- .... ....|--- .... ....
....|..|--- .... ....|C#5 3FE7 ....|--- .... ....
....|..|--- .... ....|--- .... ....|--- .... ....
....|..|--- .... ....|--- .... ....|--- .... ....
....|..|--- .... ....|--- .... ....|--- .... ....
....|..|--- .... ....|R-- .... ....|--- .... ....
....|..|--- .... ....|--- .... ....|--- .... ....
....|..|--- .... ....|--- .... ....|--- .... ....
....|..|--- .... ....|--- .... ....|--- .... ....
....|..|--- .... ....|--- .... ....|--- .... ....
....|..|--- .... ....|--- .... ....|--- .... ....
....|..|--- .... ....|--- .... ....|--- .... ....
....|..|--- .... ....|--- .... ....|--- .... ....
....|..|--- .... ....|--- .... ....|--- .... ....
....|..|--- .... ....|--- .... ....|--- .... ....
....|..|--- .... ....|--- .... ....|--- .... ....
....|..|--- .... ....|--- .... ....|--- .... ....
....|..|--- .... ....|--- .... ....|--- .... ....
....|..|--- .... ....|--- .... ....|--- .... ....
....|..|--- .... ....|--- .... ....|--- .... ....
....|..|--- .... ....|--- .... ....|--- .... ....
....|..|C-4 AF.F ....|E-5 3FEF ....|C#4 3F.F ....
 A-3|..|A-1 2A.F ....|--- .... ....|--- .... ....
....|..|C-4 LF.F ....|--- .... ....|A-1 3F.F ....
....|..|R-- .... ....|--- .... ....|--- .... ....
....|..|C-4 AF.F ....|R-- .... ....|E-4 3F1F ....
 A-3|..|A-1 2A.F ....|--- .... ....|A-1 3F.F ....
....|..|C-4 RF.F ....|--- .... ....|--- .... ....
 A-3|..|A-1 2A.F ....|--- .... ....|--- .... ....
....|..|C-4 AF.F ....|E-5 3FEF ....|D#4 3F.F ....
 A-3|..|A-1 2A.F ....|--- .... ....|A-1 3F.F ....
....|..|C-4 LF.F ....|--- .... ....|C#5 3F.F ....
....|..|R-- .... ....|--- .... ....|A-1 3F.F ....
....|..|B-8 JF.F ....|D#5 3FEF ....|F#4 3F.F ....
 A-3|..|A-1 2A.F ....|--- .... ....|A-1 3F.F ....
....|..|C-4 AF.F ....|--- .... ....|A-1 3F.A ....
 A-3|..|A-1 2A.F ....|--- .... ....|--- .... ....
....|..|B-8 JF.F ....|E-5 3FEF ....|C#4 3F2F ....
....|..|A-1 2F.A ....|--- .... ....|A-1 3F.A ....
....|..|C-4 AF.F ....|--- .... ....|A-1 3F.F ....
 A-3|..|A-1 2A.F ....|--- .... ....|--- .... ....
....|..|C-4 AF.F ....|C#5 3FEF ....|E-4 3F.F ....
 A-3|..|A-1 2A.F ....|--- .... ....|A-1 3F.A ....
....|..|C-4 AF.F ....|--- .... ....|C#5 3F.F ....
 A-3|..|A-1 2A.F ....|--- .... ....|A-1 3F.A ....
....|..|C-4 AF.F ....|E-5 3FE7 ....|D#4 3F.F ....
 A-3|..|A-1 2A.F ....|--- .... ....|A-1 3F.A ....
....|..|C-4 AF.F ....|--- .... ....|A-1 3F.F ....
....|..|A-1 2F.A ....|--- .... ....|--- .... ....
....|..|B-8 JF.F ....|E-5 3FEA ....|C#5 3F.F ....
 A-3|..|A-1 2A.F ....|--- .... ....|A-1 3F.7 ....
....|..|C-4 AF.F ....|--- .... ....|D#4 3F3F ....
....|..|A-1 2F.7 ....|--- .... ....|C#5 3F.F ....

[Pattern5]
....|..|C-4 AF.F ....|E-5 3FE7 ....|D#4 3F3F ....
 G#3|..|G#1 2A.F ....|--- .... ....|A-1 3F.7 ....
....|..|C-4 LF.F ....|--- .... ....|G#1 3F.F ....
....|..|A-1 2F.A ....|--- .... ....|A-1 3F.7 ....
....|..|C-4 AF.F ....|D#5 3FE7 ....|E-4 3F4F ....
 G#3|..|G#1 2A.F ....|--- .... ....|D#5 3F.F ....
....|..|C-4 RF.F ....|--- .... ....|G#1 3F.F ....
 G#3|..|G#1 2A.F ....|--- .... ....|--- .... ....
....|..|C-4 AF.F ....|E-5 3FE7 ....|D#4 3F.F ....
 G#3|..|G#1 2A.F ....|--- .... ....|--- .... ....
....|..|C-4 LF.F ....|--- .... ....|D#5 3F.F ....
....|..|A-1 2F.7 ....|--- .... ....|C#5 3F.A ....
....|..|B-8 JF.F ....|C#5 3FE7 ....|F#4 3F.F ....
 G#3|..|G#1 2A.F ....|--- .... ....|--- .... ....
....|..|C-4 AF.F ....|--- .... ....|D#4 3F.F ....
 G#3|..|G#1 2A.F ....|--- .... ....|--- .... ....
....|..|B-8 JF.F ....|R-- .... ....|D#5 3F.F ....
....|..|A-1 2F.7 ....|--- .... ....|D#5 3F.A ....
....|..|C-4 AF.F ....|--- .... ....|A-3 3F.F ....
 G#3|..|G#1 2A.F ....|--- .... ....|--- .... ....
....|..|C-4 AF.F ....|--- .... ....|D#4 3F.F ....
 G#3|..|G#1 2A.F ....|--- .... ....|--- .... ....
....|..|C-4 AF.F ....|--- .... ....|D#5 3F.F ....
 G#3|..|G#1 2A.F ....|--- .... ....|C#5 3F.7 ....
....|..|C-4 AF.F ....|--- .... ....|A-3 3F.F ....
 G#3|..|G#1 2A.F ....|--- .... ....|G#1 3F.F ....
....|..|C-4 AF.F ....|--- .... ....|D#4 3F.F ....
....|..|G#1 2F.A ....|--- .... ....|--- .... ....
....|..|B-8 JF.F ....|D#5 3FEF ....|F#4 3F1F ....
 E-4|..|E-2 2A.F ....|--- .... ....|D#5 3F.7 ....
....|..|C-4 AF.F ....|--- .... ....|D#4 3F.F ....
....|..|G#1 2F.7 ....|R-- .... ....|--- .... ....
....|..|C-4 AF.F ....|E-5 3FEF ....|G#3 3F5F ....
 C#4|..|C#2 2A.F ....|--- .... ....|--- .... ....
....|..|C-4 LF.F ....|--- .... ....|G#3 3F.F ....
....|..|G#1 2F.A ....|--- .... ....|--- .... ....
....|..|C-4 AF.F ....|R-- .... ....|G#3 3F6F ....
 C#4|..|C#2 2A.F ....|--- .... ....|G#1 3F.A ....
....|..|C-4 RF.F ....|--- .... ....|G#3 3F5F ....
 C#4|..|C#2 2A.F ....|--- .... ....|--- .... ....
....|..|C-4 AF.F ....|E-5 3FEF ....|G#3 3F.F ....
 C#4|..|C#2 2A.F ....|--- .... ....|--- .... ....
....|..|C-4 LF.F ....|--- .... ....|G#3 3F5F ....
....|..|G#1 2F.7 ....|R-- .... ....|--- .... ....
....|..|B-8 JF.F ....|D#5 3FEF ....|G#3 3F3F ....
 C#4|..|C#2 2A.F ....|--- .... ....|--- .... ....
....|..|C-4 AF.F ....|--- .... ....|G#3 3F5F ....
 C#4|..|C#2 2A.F ....|--- .... ....|G#3 3F.F ....
....|..|B-8 JF.F ....|E-5 3FEF ....|G#3 3F.F ....
....|..|G#1 2F.7 ....|--- .... ....|G#1 3F.7 ....
....|..|C-4 AF.F ....|--- .... ....|G#3 3F.F ....
 C#4|..|C#2 2A.F ....|--- .... ....|--- .... ....
....|..|C-4 AF.F ....|C#5 3FEF ....|G#3 3F5F ....
 C#4|..|C#2 2A.F ....|--- .... ....|G#3 3F.F ....
....|..|C-4 AF.F ....|--- .... ....|G#3 3F6F ....
 C#4|..|C#2 2A.F ....|R-- .... ....|--- .... ....
....|..|C-4 AF.F ....|E-5 3FE7 ....|G#3 3F.F ....
 C#4|..|C#2 2A.F ....|--- .... ....|--- .... ....
....|..|C-4 AF.F ....|--- .... ....|G#3 3F7F ....
....|..|C#2 2F.A ....|--- .... ....|G#3 3F.A ....
....|..|B-8 JF.F ....|E-5 3FEA ....|F#3 3F8F ....
 B-3|..|B-1 2A.F ....|--- .... ....|--- .... ....
....|..|C-4 AF.F ....|--- .... ....|F#3 3F.F ....
....|..|C#2 2F.7 ....|--- .... ....|--- .... ....
....|..|C-4 AF.F ....|E-5 3FEF ....|G#3 3F.F ....
 E-4|..|E-2 2A.F ....|--- .... ....|G#3 3F.A ....
....|..|C-4 LF.F ....|--- .... ....|G#3 3F7F ....
....|..|C#2 2F.A ....|--- .... ....|--- .... ....
....|..|C-4 AF.F ....|D#5 3FE7 ....|G#3 3F.F ....
 E-4|..|E-2 2A.F ....|--- .... ....|G#3 3F.F ....
....|..|C-4 RF.F ....|--- .... ....|G#3 3F57 ....
 E-4|..|E-2 2A.F ....|--- .... ....|G#3 3F.7 ....
....|..|C-4 AF.F ....|E-5 3FEF ....|G#3 3F7F ....
 E-4|..|E-2 2A.F ....|--- .... ....|--- .... ....
....|..|C-4 LF.F ....|--- .... ....|G#3 3F.F ....
....|..|C#2 2F.7 ....|--- .... ....|G#3 3F.F ....
....|..|B-8 JF.F ....|D#5 3FEF ....|G#3 3F7F ....
 E-4|..|E-2 2A.F ....|--- .... ....|G#3 3F.F ....
....|..|C-4 AF.F ....|--- .... ....|G#3 3F67 ....
 E-4|..|E-2 2A.F ....|--- .... ....|--- .... ....
....|..|B-8 JF.F ....|E-5 3FEF ....|G#3 3F.F ....
....|..|C#2 2F.7 ....|--- .... ....|G#3 3F.A ....
....|..|C-4 AF.F ....|--- .... ....|G#3 3F7F ....
 E-4|..|E-2 2A.F ....|--- .... ....|--- .... ....
....|..|C-4 AF.F ....|C#5 3FEF ....|G#3 3F.F ....
 E-4|..|E-2 2A.F ....|--- .... ....|--- .... ....
....|..|C-4 AF.F ....|--- .... ....|G#3 3F.F ....
 E-4|..|E-2 2A.F ....|--- .... ....|G#3 3F.A ....
....|..|C-4 AF.F ....|E-5 3FE7 ....|G#3 3F.F ....
 E-4|..|E-2 2A.F ....|--- .... ....|G#3 3F.A ....
....|..|C-4 AF.F ....|--- .... ....|G#3 3F5F ....
....|..|E-2 2F.A ....|--- .... ....|--- .... ....
....|..|B-8 JF.F ....|E-5 3FEA ....|G#3 3F3F ....
 E-4|..|E-2 2A.F ....|--- .... ....|G#3 3F.7 ....
....|..|C-4 AF.F ....|--- .... ....|G#3 3F5F ....
....|..|E-2 2F.7 ....|--- .... ....|--- .... ....
....|..|C-4 AF.F ....|E-5 3FE7 ....|A-2 3F2F ....
 A-3|..|A-1 2A.F ....|--- .... ....|A-2 3F2F ....
....|..|C-4 LF.F ....|--- .... ....|A-2 3F2F ....
....|..|E-2 2F.A ....|--- .... ....|G#3 3F.7 ....
....|..|C-4 AF.F ....|D#5 3FE7 ....|E-4 3F.F ....
 A-3|..|A-1 2A.F ....|--- .... ....|A-1 3F.F ....
....|..|C-4 RF.F ....|--- .... ....|G#5 3F.F ....
 A-3|..|A-1 2A.F ....|--- .... ....|A-1 3F.F ....
....|..|C-4 AF.F ....|E-5 3FE7 ....|D#4 3F.F ....
 A-3|..|A-1 2A.F ....|--- .... ....|A-1 3F.F ....
....|..|C-4 LF.F ....|--- .... ....|G#3 3F77 ....
....|..|E-2 2F.7 ....|--- .... ....|--- .... ....
....|..|B-8 JF.F ....|C#5 3FE7 ....|F#4 3F.F ....
 A-3|..|A-1 2A.F ....|--- .... ....|A-1 3F.F ....
....|..|C-4 AF.F ....|--- .... ....|G#5 3F.F ....
 A-3|..|A-1 2A.F ....|--- .... ....|A-1 3F.F ....
....|..|B-8 JF.F ....|R-- .... ....|A-2 3F2F ....
....|..|E-2 2F.7 ....|--- .... ....|A-1 3F.F ....
....|..|C-4 AF.F ....|--- .... ....|A-2 3F2F ....
 A-3|..|A-1 2A.F ....|--- .... ....|A-1 3F.F ....
....|..|C-4 AF.F ....|--- .... ....|E-4 3F.F ....
 A-3|..|A-1 2A.F ....|--- .... ....|E-4 3F.F ....
....|..|C-4 AF.F ....|--- .... ....|E-4 3F.F ....
 A-3|..|A-1 2A.F ....|--- .... ....|--- .... ....
....|..|C-4 AF.F ....|--- .... ....|D#4 3F.F ....
 A-3|..|A-1 2A.F ....|--- .... ....|A-2 3F27 ....
....|..|C-4 AF.F ....|--- .... ....|A-1 3F.F ....
....|..|A-1 2F.A ....|--- .... ....|A-1 3F.A ....
....|..|B-8 JF.F ....|D#5 3FEF ....|F#4 3F.F ....
 A-3|..|A-1 2A.F ....|--- .... ....|A-1 3F.F ....
....|..|C-4 AF.F ....|--- .... ....|D#4 3F.F ....
....|..|A-1 2F.7 ....|R-- .... ....|A-1 3F.F ....

[Pattern6]
....|..|C-4 AF.F ....|E-5 3FEF ....|G#2 3F2F ....
 G#3|..|G#1 2A.F ....|--- .... ....|G#1 3F.F ....
....|..|C-4 LF.F ....|--- .... ....|G#2 3F2F ....
....|..|A-1 2F.A ....|--- .... ....|G#1 3F.F ....
....|..|C-4 AF.F ....|R-- .... ....|E-4 3F.F ....
 G#3|..|G#1 2A.F ....|--- .... ....|G#1 3F.F ....
....|..|C-4 RF.F ....|--- .... ....|E-4 3F.F ....
 G#3|..|G#1 2A.F ....|--- .... ....|G#1 3F.F ....
....|..|C-4 AF.F ....|E-5 3FEF ....|D#4 3F.F ....
 G#3|..|G#1 2A.F ....|--- .... ....|G#1 3F.F ....
....|..|C-4 LF.F ....|--- .... ....|A-2 3F27 ....
....|..|A-1 2F.7 ....|R-- .... ....|A-1 3F.7 ....
....|..|B-8 JF.F ....|D#5 3FEF ....|F#4 3F.F ....
 G#3|..|G#1 2A.F ....|--- .... ....|G#1 3F.F ....
....|..|C-4 AF.F ....|--- .... ....|G#2 3F2F ....
 G#3|..|G#1 2A.F ....|--- .... ....|G#1 3F.F ....
....|..|B-8 JF.F ....|E-5 3FEF ....|G#2 3F2F ....
....|..|A-1 2F.7 ....|--- .... ....|G#1 3F.F ....
....|..|C-4 AF.F ....|--- .... ....|G#2 3F2F ....
 G#3|..|G#1 2A.F ....|--- .... ....|G#1 3F.F ....
....|..|C-4 AF.F ....|C#5 3FEF ....|E-4 3F.F ....
 G#3|..|G#1 2A.F ....|--- .... ....|G#1 3F.F ....
....|..|C-4 AF.F ....|--- .... ....|E-4 3F.F ....
 G#3|..|G#1 2A.F ....|R-- .... ....|G#1 3F.F ....
....|..|C-4 AF.F ....|E-5 3FE7 ....|D#4 3F.F ....
 G#3|..|G#1 2A.F ....|--- .... ....|G#1 3F.F ....
....|..|C-4 AF.F ....|--- .... ....|G#2 3F27 ....
....|..|G#1 2F.A ....|--- .... ....|G#1 3F.7 ....
....|..|B-8 JF.F ....|E-5 3FEA ....|F#4 3F.F ....
 E-4|..|E-2 2A.F ....|--- .... ....|G#1 3F.F ....
....|..|C-4 AF.F ....|--- .... ....|E-4 3F.7 ....
....|..|G#1 2F.7 ....|--- .... ....|G#1 3F.7 ....
....|..|C-4 AF.F ....|E-5 3FE7 ....|G#3 3F5F ....
 C#4|..|C#2 2A.F ....|--- .... ....|D#4 3F.F ....
....|..|C-4 LF.F ....|--- .... ....|G#3 3F.F ....
....|..|G#1 2F.A ....|--- .... ....|G#1 3F.A ....
....|..|C-4 AF.F ....|D#5 3FE7 ....|G#3 3F7F ....
 C#4|..|C#2 2A.F ....|--- .... ....|G#1 3F.7 ....
....|..|C-4 RF.F ....|--- .... ....|G#3 3F5F ....
 C#4|..|C#2 2A.F ....|--- .... ....|G#1 3F.7 ....
....|..|C-4 AF.F ....|E-5 3FE7 ....|G#3 3F.F ....
 C#4|..|C#2 2A.F ....|--- .... ....|G#1 3F.7 ....
....|..|C-4 LF.F ....|--- .... ....|G#3 3F5F ....
....|..|G#1 2F.7 ....|--- .... ....|D#4 3F.F ....
....|..|B-8 JF.F ....|C#5 3FE7 ....|F#3 3F2F ....
 C#4|..|C#2 2A.F ....|--- .... ....|G#1 3F.7 ....
....|..|C-4 AF.F ....|--- .... ....|D#4 3F.F ....
 C#4|..|C#2 2A.F ....|--- .... ....|C#2 3F.F ....
....|..|B-8 JF.F ....|R-- .... ....|G#3 3F.F ....
....|..|G#1 2F.7 ....|--- .... ....|C#2 3F.F ....
....|..|C-4 AF.F ....|--- .... ....|G#3 3F.F ....
 C#4|..|C#2 2A.F ....|--- .... ....|--- .... ....
....|..|C-4 AF.F ....|--- .... ....|G#3 3F5F ....
 C#4|..|C#2 2A.F ....|--- .... ....|G#3 3F.F ....
....|..|C-4 AF.F ....|--- .... ....|G#3 3F7F ....
 C#4|..|C#2 2A.F ....|--- .... ....|D#4 3F.A ....
....|..|C-4 AF.F ....|--- .... ....|G#3 3F.F ....
 C#4|..|C#2 2A.F ....|--- .... ....|D#4 3F.7 ....
....|..|C-4 AF.F ....|--- .... ....|G#3 3F7F ....
....|..|C#2 2F.A ....|--- .... ....|C#2 3F.A ....
....|..|B-8 JF.F ....|--- .... ....|F#3 3F2F ....
 B-3|..|B-1 2A.F ....|--- .... ....|C#2 3F.A ....
....|..|C-4 AF.F ....|--- .... ....|F#3 3F.F ....
....|..|C#2 2F.7 ....|--- .... ....|--- .... ....
....|..|C-4 LF.F ....|E-5 3FEF ....|G#3 3F.F ....
....|..|C#2 2F.7 ....|--- .... ....|G#3 3F.A ....
....|..|C-4 LF.7 ....|--- .... ....|G#3 3F57 ....
....|..|C#2 2F.A ....|--- .... ....|D#4 3F.7 ....
....|..|B-8 JF.7 ....|R-- .... ....|G#3 3F7F ....
....|..|C#2 2F.7 ....|--- .... ....|G#3 3F.F ....
....|..|C-4 AF.7 ....|--- .... ....|D#4 3F.7 ....
....|..|C#2 2F.7 ....|--- .... ....|C#2 3F.7 ....
....|..|B-8 JF.7 ....|E-5 3FEF ....|G#3 3F5F ....
....|..|B-1 2F.A ....|--- .... ....|C#2 3F.7 ....
....|..|C-4 AF.7 ....|--- .... ....|G#3 3F.F ....
....|..|C#2 2F.7 ....|--- .... ....|--- .... ....
....|..|C-4 AF.7 ....|D#5 3FEF ....|G#3 3F3F ....
....|..|C#2 2F.7 ....|--- .... ....|F#4 3F.F ....
....|..|C-4 AF.7 ....|--- .... ....|E-2 3F.F ....
....|..|C#2 2F.7 ....|--- .... ....|--- .... ....
....|..|C-4 AF.7 ....|E-5 3FEF ....|E-3 3F9F ....
....|..|C#2 2F.7 ....|--- .... ....|E-2 3F.F ....
....|..|C-4 AF.7 ....|--- .... ....|E-3 3F9F ....
....|..|R-- .... ....|--- .... ....|--- .... ....
....|..|B-8 JF.7 ....|F#5 3FEF ....|E-3 3FAF ....
....|..|B-1 2F.7 ....|--- .... ....|E-2 3F.F ....
....|..|C-4 AF.7 ....|--- .... ....|E-3 3FAF ....
....|..|--- .... ....|--- .... ....|E-3 3F2F ....
....|..|C-4 LF.7 ....|E-5 3FE7 ....|E-3 3FBF ....
....|..|R-- .... ....|--- .... ....|E-2 3F.F ....
....|..|--- .... ....|--- .... ....|E-3 3FBF ....
....|..|--- .... ....|--- .... ....|D#4 3F.F ....
....|..|--- .... ....|E-5 3FEA ....|F#3 3F2F ....
....|..|--- .... ....|--- .... ....|F#3 3F.F ....
....|..|--- .... ....|--- .... ....|E-3 3FBF ....
....|..|--- .... ....|--- .... ....|--- .... ....
 B-4|..|--- .... ....|F#5 3FEF ....|B-3 2CDF ....
....|..|--- .... ....|--- .... ....|E-2 3F.A ....
....|..|--- .... ....|--- .... ....|G#3 3F.7 ....
....|..|--- .... ....|--- .... ....|E-3 3F2A ....
 B-4|..|--- .... ....|D#5 3FE7 ....|B-3 2CDF ....
....|..|--- .... ....|--- .... ....|F#4 3F.7 ....
....|..|--- .... ....|--- .... ....|E-2 3F.7 ....
....|..|--- .... ....|F#5 3FEF ....|D#4 3F.A ....
 B-4|..|--- .... ....|F#5 3FEF ....|B-3 2CDF ....
....|..|--- .... ....|F#5 3FEF ....|E-2 3F.7 ....
 E-4|..|--- .... ....|--- .... ....|E-3 2CDF ....
....|..|--- .... ....|--- .... ....|--- .... ....
 B-4|..|--- .... ....|F#5 3FEF ....|B-3 2CDF ....
....|..|--- .... ....|--- .... ....|E-2 3F.7 ....
....|..|--- .... ....|F#5 3FEF ....|E-3 3FA7 ....
....|..|--- .... ....|--- .... ....|E-3 3F27 ....
....|..|--- .... ....|F#5 3FEF ....|E-3 3FB7 ....
....|..|--- .... ....|--- .... ....|E-2 3F.7 ....
....|..|--- .... ....|--- .... ....|E-3 3FB7 ....
....|..|--- .... ....|F#5 3FEA ....|D#4 3F.7 ....
 B-4|..|--- .... ....|F#5 3FEA ....|B-3 2CDF ....
....|..|--- .... ....|F#5 3FEA ....|F#3 3F.7 ....
 A-3|..|--- .... ....|--- .... ....|A-3 2CDF ....
....|..|--- .... ....|E-4 3FEF ....|--- .... ....
....|..|--- .... ....|F#5 3FE7 ....|B-3 2FD7 ....
....|..|--- .... ....|--- .... ....|--- .... ....
....|..|--- .... ....|F#5 3FEA ....|--- .... ....
....|..|--- .... ....|--- .... ....|--- .... ....
 A-3|..|--- .... ....|F#5 3FEA ....|A-3 2CDF ....
....|..|--- .... ....|--- .... ....|--- .... ....
....|..|--- .... ....|--- .... ....|--- .... ....
 A-3|..|--- .... ....|F#5 3FE7 ....|A-3 2CDF ....

[Pattern7]
 A-3|..|--- .... ....|E-4 3FEF ....|A-3 2CDF ....
 C#4|..|--- .... ....|F#5 3FE7 ....|C#3 2CDF ....
....|..|--- .... ....|--- .... ....|E-3 2FD7 ....
....|..|--- .... ....|E-4 3FEA ....|--- .... ....
 G#4|..|--- .... ....|F#5 3FE7 ....|G#3 2CDF ....
....|..|--- .... ....|R-- .... ....|--- .... ....
....|..|--- .... ....|F#5 3FE7 ....|--- .... ....
....|..|--- .... ....|--- .... ....|--- .... ....
 C#4|..|--- .... ....|E-4 3FEF ....|C#4 2CDF ....
....|..|--- .... ....|--- .... ....|--- .... ....
....|..|--- .... ....|R-- .... ....|--- .... ....
....|..|--- .... ....|--- .... ....|A-3 2FDA ....
 D#4|..|--- .... ....|D#4 3FEF ....|D#4 2CDF ....
....|..|--- .... ....|--- .... ....|C#3 2FDA ....
....|..|--- .... ....|R-- .... ....|A-3 2FD7 ....
....|..|--- .... ....|E-4 3FE7 ....|--- .... ....
....|..|--- .... ....|E-4 3FEF ....|G#3 2FDA ....
....|..|--- .... ....|R-- .... ....|--- .... ....
....|..|--- .... ....|--- .... ....|--- .... ....
....|..|--- .... ....|--- .... ....|--- .... ....
 E-4|..|--- .... ....|F#4 3FEF ....|E-4 2CDF ....
....|..|--- .... ....|--- .... ....|--- .... ....
 E-4|..|--- .... ....|R-- .... ....|E-4 2CDF ....
....|..|--- .... ....|--- .... ....|A-3 2FD7 ....
....|..|--- .... ....|E-4 3FE7 ....|A-3 2FD7 ....
 E-4|..|--- .... ....|--- .... ....|E-4 2CDF ....
....|..|--- .... ....|R-- .... ....|--- .... ....
....|..|--- .... ....|--- .... ....|--- .... ....
 E-4|..|--- .... ....|E-4 3FEA ....|E-4 2CDF ....
....|..|--- .... ....|R-- .... ....|--- .... ....
....|..|--- .... ....|R-- .... ....|--- .... ....
 E-4|..|--- .... ....|--- .... ....|E-4 2CDF ....
 E-4|..|--- .... ....|E-4 3FE7 ....|E-4 2CDF ....
....|..|--- .... ....|--- .... ....|--- .... ....
....|..|--- .... ....|R-- .... ....|E-4 2FDA ....
....|..|--- .... ....|--- .... ....|--- .... ....
 E-4|..|--- .... ....|D#4 3FE7 ....|E-4 2CDF ....
....|..|--- .... ....|--- .... ....|E-4 2FDA ....
....|..|--- .... ....|R-- .... ....|--- .... ....
 A-3|..|--- .... ....|--- .... ....|A-2 2CDF ....
 E-4|..|--- .... ....|E-4 3FEF ....|E-3 2CDF ....
....|..|--- .... ....|--- .... ....|--- .... ....
....|..|--- .... ....|R-- .... ....|--- .... ....
....|..|--- .... ....|--- .... ....|E-4 2FDA ....
 B-4|..|--- .... ....|D#4 3FEF ....|B-3 2CDF ....
....|..|--- .... ....|R-- .... ....|--- .... ....
....|..|--- .... ....|--- .... ....|E-4 2FD7 ....
....|..|--- .... ....|--- .... ....|--- .... ....
....|..|--- .... ....|E-4 3FEF ....|E-4 2FDA ....
....|..|--- .... ....|--- .... ....|E-4 2FD7 ....
....|..|--- .... ....|--- .... ....|--- .... ....
....|..|--- .... ....|--- .... ....|A-2 2FDA ....
 B-4|..|--- .... ....|E-4 3FEA ....|B-3 2CDF ....
....|..|--- .... ....|--- .... ....|--- .... ....
 A-3|..|--- .... ....|R-- .... ....|A-3 2CDF ....
....|..|--- .... ....|R-- .... ....|E-4 2FD7 ....
....|..|--- .... ....|D#4 3FEA ....|E-4 2FD7 ....
....|..|--- .... ....|R-- .... ....|--- .... ....
....|..|--- .... ....|--- .... ....|--- .... ....
....|..|--- .... ....|--- .... ....|--- .... ....
 A-3|..|--- .... ....|E-4 3FEA ....|A-3 2CDF ....
....|..|--- .... ....|--- .... ....|--- .... ....
....|..|--- .... ....|--- .... ....|--- .... ....
 A-3|..|--- .... ....|--- .... ....|A-3 2CDF ....
 A-3|..|--- .... ....|E-4 3FE7 ....|A-3 2CDF ....
 C#4|..|--- .... ....|--- .... ....|C#3 2CDF ....
....|..|--- .... ....|R-- .... ....|A-3 2FDA ....
....|..|--- .... ....|R-- .... ....|--- .... ....
 G#4|..|--- .... ....|E-4 3FEF ....|G#3 2CDF ....
....|..|--- .... ....|R-- .... ....|--- .... ....
....|..|--- .... ....|--- .... ....|--- .... ....
....|..|--- .... ....|--- .... ....|--- .... ....
 D#4|..|--- .... ....|E-4 3FEF ....|D#4 2CDF ....
....|..|--- .... ....|--- .... ....|--- .... ....
....|..|--- .... ....|R-- .... ....|--- .... ....
....|..|--- .... ....|--- .... ....|A-3 2FDA ....
 E-4|..|--- .... ....|D#4 3FEF ....|E-4 2CDF ....
....|..|--- .... ....|--- .... ....|C#3 2FDA ....
....|..|--- .... ....|--- .... ....|A-3 2FD7 ....
....|..|--- .... ....|R-- .... ....|--- .... ....
....|..|--- .... ....|E-4 3FEF ....|G#3 2FDA ....
....|..|--- .... ....|R-- .... ....|--- .... ....
....|..|--- .... ....|--- .... ....|--- .... ....
....|..|--- .... ....|--- .... ....|--- .... ....
 G#4|..|--- .... ....|F#4 3FEF ....|G#4 2CDF ....
....|..|--- .... ....|--- .... ....|--- .... ....
 G#4|..|--- .... ....|R-- .... ....|G#4 2CDF ....
....|..|--- .... ....|--- .... ....|A-3 2FD7 ....
....|..|--- .... ....|D#4 3FEA ....|A-3 2FD7 ....
....|..|--- .... ....|--- .... ....|C#3 2FD7 ....
....|..|--- .... ....|--- .... ....|--- .... ....
 E-4|..|--- .... ....|R-- .... ....|E-4 2CDF ....
 G#4|..|--- .... ....|E-4 3FE7 ....|G#4 2CDF ....
 G#4|..|--- .... ....|R-- .... ....|G#4 2CDF ....
....|..|--- .... ....|--- .... ....|--- .... ....
....|..|--- .... ....|--- .... ....|--- .... ....
 B-4|..|--- .... ....|E-4 3FEF ....|B-3 2CDF ....
....|..|--- .... ....|--- .... ....|--- .... ....
....|..|--- .... ....|R-- .... ....|G#4 2FDA ....
....|..|--- .... ....|--- .... ....|--- .... ....
 B-4|..|--- .... ....|D#4 3FE7 ....|B-3 2CDF ....
....|..|--- .... ....|--- .... ....|--- .... ....
....|..|--- .... ....|R-- .... ....|--- .... ....
....|..|--- .... ....|R-- .... ....|E-4 2FDA ....
 B-4|..|--- .... ....|E-4 3FEF ....|B-3 2CDF ....
....|..|--- .... ....|--- .... ....|G#4 2FDA ....
 E-4|..|--- .... ....|--- .... ....|E-3 2CDF ....
....|..|--- .... ....|R-- .... ....|--- .... ....
 B-4|..|--- .... ....|D#4 3FEF ....|B-3 2CDF ....
....|..|--- .... ....|--- .... ....|--- .... ....
....|..|--- .... ....|--- .... ....|G#4 2FD7 ....
....|..|--- .... ....|R-- .... ....|--- .... ....
....|..|--- .... ....|E-4 3FEF ....|B-3 2FDA ....
....|..|--- .... ....|--- .... ....|--- .... ....
....|..|--- .... ....|R-- .... ....|--- .... ....
....|..|--- .... ....|--- .... ....|E-4 2FD7 ....
 B-4|..|--- .... ....|E-4 3FEA ....|B-3 2CDF ....
....|..|--- .... ....|--- .... ....|G#4 2FD7 ....
 A-3|..|--- .... ....|--- .... ....|A-3 2CDF ....
....|..|--- .... ....|R-- .... ....|--- .... ....
....|..|--- .... ....|E-4 3FE7 ....|B-3 2FD7 ....
....|..|--- .... ....|--- .... ....|--- .... ....
....|..|--- .... ....|--- .... ....|--- .... ....
....|..|--- .... ....|R-- .... ....|--- .... ....
 A-3|..|--- .... ....|E-4 3FEA ....|A-3 2CDF ....
....|..|--- .... ....|--- .... ....|--- .... ....
....|..|--- .... ....|R-- .... ....|--- .... ....
 A-3|..|--- .... ....|--- .... ....|A-3 2CDF ....

[Pattern8]
 A-3|..|--- .... ....|E-4 3FE7 ....|A-3 2CDF ....
 C#4|..|--- .... ....|--- .... ....|C#3 2CDF ....
....|..|--- .... ....|--- .... ....|E-3 2FD7 ....
....|..|--- .... ....|R-- .... ....|--- .... ....
 G#4|..|--- .... ....|E-4 3FEF ....|G#3 2CDF ....
....|..|--- .... ....|R-- .... ....|--- .... ....
....|..|--- .... ....|--- .... ....|--- .... ....
....|..|--- .... ....|R-- .... ....|--- .... ....
 C#4|..|--- .... ....|E-4 3FEF ....|C#4 2CDF ....
....|..|--- .... ....|--- .... ....|--- .... ....
....|..|--- .... ....|R-- .... ....|--- .... ....
....|..|--- .... ....|--- .... ....|A-3 2FDA ....
 D#4|..|--- .... ....|D#4 3FEF ....|D#4 2CDF ....
....|..|--- .... ....|--- .... ....|C#3 2FDA ....
....|..|--- .... ....|R-- .... ....|A-3 2FD7 ....
....|..|--- .... ....|--- .... ....|--- .... ....
....|..|--- .... ....|E-4 3FEF ....|G#3 2FDA ....
....|..|--- .... ....|R-- .... ....|--- .... ....
....|..|--- .... ....|--- .... ....|--- .... ....
....|..|--- .... ....|--- .... ....|--- .... ....
 E-4|..|--- .... ....|F#4 3FEF ....|E-4 2CDF ....
....|..|--- .... ....|--- .... ....|--- .... ....
 E-4|..|--- .... ....|R-- .... ....|E-4 2CDF ....
....|..|--- .... ....|--- .... ....|A-3 2FD7 ....
....|..|--- .... ....|D#4 3FEA ....|A-3 2FD7 ....
 E-4|..|--- .... ....|--- .... ....|E-4 2CDF ....
....|..|--- .... ....|R-- .... ....|--- .... ....
....|..|--- .... ....|--- .... ....|--- .... ....
 E-4|..|--- .... ....|E-4 3FE7 ....|E-4 2CDF ....
....|..|--- .... ....|R-- .... ....|--- .... ....
....|..|--- .... ....|R-- .... ....|--- .... ....
 E-4|..|--- .... ....|--- .... ....|E-4 2CDF ....
 E-4|..|--- .... ....|E-4 3FEF ....|E-4 2CDF ....
....|..|--- .... ....|--- .... ....|--- .... ....
....|..|--- .... ....|R-- .... ....|E-4 2FDA ....
....|..|--- .... ....|--- .... ....|--- .... ....
 E-4|..|--- .... ....|D#4 3FE7 ....|E-4 2CDF ....
....|..|--- .... ....|--- .... ....|E-4 2FDA ....
....|..|--- .... ....|R-- .... ....|--- .... ....
 F#4|..|--- .... ....|R-- .... ....|F#2 2ADF ....
 E-4|..|--- .... ....|E-4 3FEF ....|E-3 2CDF ....
....|..|--- .... ....|--- .... ....|--- .... ....
....|..|--- .... ....|R-- .... ....|--- .... ....
....|..|--- .... ....|--- .... ....|E-4 2FDA ....
 A-3|..|--- .... ....|D#4 3FEF ....|A-3 2CDF ....
....|..|--- .... ....|R-- .... ....|--- .... ....
....|..|--- .... ....|--- .... ....|E-4 2FD7 ....
....|..|--- .... ....|--- .... ....|--- .... ....
....|..|--- .... ....|E-4 3FEF ....|E-4 2FDA ....
....|..|--- .... ....|--- .... ....|E-4 2FD7 ....
....|..|--- .... ....|--- .... ....|--- .... ....
....|..|--- .... ....|R-- .... ....|F#2 2FDA ....
 C#4|..|--- .... ....|E-4 3FEA ....|C#4 2CDF ....
....|..|--- .... ....|--- .... ....|--- .... ....
....|..|--- .... ....|R-- .... ....|--- .... ....
....|..|--- .... ....|R-- .... ....|E-4 2FD7 ....
....|..|--- .... ....|E-4 3FE7 ....|E-4 2FD7 ....
....|..|--- .... ....|R-- .... ....|--- .... ....
....|..|--- .... ....|--- .... ....|--- .... ....
....|..|--- .... ....|--- .... ....|--- .... ....
 C#4|..|--- .... ....|B-3 3FEF ....|C#4 2CDF ....
....|..|--- .... ....|--- .... ....|--- .... ....
....|..|--- .... ....|--- .... ....|--- .... ....
 F#4|..|--- .... ....|R-- .... ....|F#3 2CDF ....
 B-4|..|--- .... ....|E-4 3FEF ....|B-2 2ADF ....
....|..|--- .... ....|--- .... ....|--- .... ....
....|..|--- .... ....|R-- .... ....|--- .... ....
....|..|--- .... ....|R-- .... ....|--- .... ....
 B-4|..|--- .... ....|D#4 3FE7 ....|B-3 2CDF ....
....|..|--- .... ....|R-- .... ....|--- .... ....
....|..|--- .... ....|--- .... ....|--- .... ....
....|..|--- .... ....|--- .... ....|--- .... ....
 D#4|..|--- .... ....|E-4 3FEF ....|D#4 2CDF ....
....|..|--- .... ....|--- .... ....|--- .... ....
....|..|--- .... ....|--- .... ....|--- .... ....
....|..|--- .... ....|R-- .... ....|F#3 2FDA ....
 A-3|..|--- .... ....|D#4 3FEF ....|A-4 2CDF ....
....|..|--- .... ....|--- .... ....|--- .... ....
....|..|--- .... ....|R-- .... ....|--- .... ....
....|..|--- .... ....|R-- .... ....|--- .... ....
....|..|--- .... ....|A-4 3FEF ....|B-3 2FDA ....
....|..|--- .... ....|R-- .... ....|--- .... ....
....|..|--- .... ....|--- .... ....|--- .... ....
....|..|--- .... ....|R-- .... ....|--- .... ....
 G#4|..|--- .... ....|G#4 3FEF ....|G#4 2CDF ....
 G#4|..|--- .... ....|--- .... ....|G#4 2CDF ....
....|..|--- .... ....|--- .... ....|--- .... ....
....|..|--- .... ....|R-- .... ....|F#3 2FD7 ....
....|..|C-5 VF.F ....|E-4 3FE7 ....|B-2 2FD7 ....
....|..|--- .... ....|--- .... ....|--- .... ....
....|..|C-5 VF.F ....|R-- .... ....|--- .... ....
....|..|--- .... ....|--- .... ....|--- .... ....
 G#4|..|C-5 VF.F ....|A-4 3FEA ....|G#4 2CDF ....
....|..|--- .... ....|R-- .... ....|--- .... ....
....|..|C-5 VF.F ....|--- .... ....|--- .... ....
 G#4|..|--- .... ....|R-- .... ....|G#4 2CDF ....
....|..|C-4 AF.F ....|E-4 3FEF ....|A-1 3F.F ....
 A-3|..|A-1 2A.F ....|--- .... ....|G#4 2FDA ....
....|..|C-4 LF.F ....|--- .... ....|--- .... ....
....|..|R-- .... ....|R-- .... ....|--- .... ....
....|..|C-4 AF.F ....|D#4 3FE7 ....|A-4 2FD7 ....
 A-3|..|A-1 2A.F ....|R-- .... ....|--- .... ....
....|..|C-4 RF.F ....|R-- .... ....|--- .... ....
 A-3|..|A-1 2A.F ....|--- .... ....|--- .... ....
....|..|C-4 AF.F ....|E-4 3FEF ....|G#4 2FDA ....
 A-3|..|A-1 2A.F ....|--- .... ....|--- .... ....
....|..|C-4 LF.F ....|--- .... ....|--- .... ....
....|..|R-- .... ....|R-- .... ....|G#4 2FDA ....
....|..|B-8 JF.F ....|D#4 3FEF ....|G#4 2FD7 ....
 A-3|..|A-1 2A.F ....|--- .... ....|G#4 2FD7 ....
....|..|C-4 AF.F ....|--- .... ....|--- .... ....
 A-3|..|A-1 2A.F ....|--- .... ....|--- .... ....
....|..|B-8 JF.F ....|E-4 3FEF ....|--- .... ....
....|..|A-1 2F.A ....|R-- .... ....|--- .... ....
....|..|C-4 AF.F ....|R-- .... ....|--- .... ....
 A-3|..|A-1 2A.F ....|--- .... ....|--- .... ....
....|..|C-4 AF.F ....|E-4 3FEA ....|G#4 2FD7 ....
 A-3|..|A-1 2A.F ....|--- .... ....|--- .... ....
....|..|C-4 AF.F ....|--- .... ....|--- .... ....
 A-3|..|A-1 2A.F ....|R-- .... ....|G#4 2FD7 ....
....|..|C-4 AF.F ....|E-4 3FE7 ....|A-1 3F.7 ....
 A-3|..|A-1 2A.F ....|--- .... ....|R-- .... ....
....|..|C-4 AF.F ....|--- .... ....|--- .... ....
....|..|A-1 2F.A ....|--- .... ....|--- .... ....
....|..|B-8 JF.F ....|E-4 3FEA ....|--- .... ....
 A-3|..|A-1 2A.F ....|R-- .... ....|--- .... ....
....|..|C-4 AF.F ....|--- .... ....|--- .... ....
....|..|A-1 2F.7 ....|--- .... ....|--- .... ....

[Pattern9]
....|..|C-4 AF.F ....|E-4 3FEF ....|G#1 3F.F ....
 G#3|..|G#1 2A.F ....|--- .... ....|--- .... ....
....|..|C-4 LF.F ....|--- .... ....|--- .... ....
....|..|A-1 2F.A ....|R-- .... ....|--- .... ....
....|..|C-4 AF.F ....|D#4 3FE7 ....|--- .... ....
 G#3|..|G#1 2A.F ....|--- .... ....|--- .... ....
....|..|C-4 RF.F ....|--- .... ....|--- .... ....
 G#3|..|G#1 2A.F ....|--- .... ....|--- .... ....
....|..|C-4 AF.F ....|E-4 3FEF ....|--- .... ....
 G#3|..|G#1 2A.F ....|--- .... ....|--- .... ....
....|..|C-4 LF.F ....|--- .... ....|--- .... ....
....|..|A-1 2F.7 ....|R-- .... ....|--- .... ....
....|..|B-8 JF.F ....|D#4 3FEF ....|G#1 3F.A ....
 G#3|..|G#1 2A.F ....|--- .... ....|--- .... ....
....|..|C-4 AF.F ....|--- .... ....|--- .... ....
 G#3|..|G#1 2A.F ....|R-- .... ....|--- .... ....
....|..|B-8 JF.F ....|E-4 3FEF ....|--- .... ....
....|..|A-1 2F.7 ....|--- .... ....|--- .... ....
....|..|C-4 AF.F ....|--- .... ....|--- .... ....
 G#3|..|G#1 2A.F ....|R-- .... ....|--- .... ....
....|..|C-4 AF.F ....|F#4 3FEF ....|--- .... ....
 G#3|..|G#1 2A.F ....|--- .... ....|--- .... ....
....|..|C-4 AF.F ....|--- .... ....|--- .... ....
 G#3|..|G#1 2A.F ....|R-- .... ....|--- .... ....
....|..|C-4 AF.F ....|E-4 3FE7 ....|G#1 3F.7 ....
 G#3|..|G#1 2A.F ....|--- .... ....|--- .... ....
....|..|C-4 AF.F ....|--- .... ....|--- .... ....
....|..|G#1 2F.A ....|R-- .... ....|--- .... ....
....|..|B-8 JF.F ....|E-4 3FEA ....|--- .... ....
 E-4|..|E-2 2A.F ....|--- .... ....|--- .... ....
....|..|C-4 AF.F ....|--- .... ....|--- .... ....
....|..|G#1 2F.7 ....|R-- .... ....|--- .... ....
....|..|C-4 AF.F ....|E-4 3FE7 ....|C#2 3F.F ....
 C#4|..|C#2 2A.F ....|--- .... ....|--- .... ....
....|..|C-4 LF.F ....|--- .... ....|--- .... ....
....|..|G#1 2F.A ....|R-- .... ....|--- .... ....
....|..|C-4 AF.F ....|E-4 3FEF ....|--- .... ....
 C#4|..|C#2 2A.F ....|--- .... ....|--- .... ....
....|..|C-4 RF.F ....|--- .... ....|--- .... ....
 C#4|..|C#2 2A.F ....|R-- .... ....|--- .... ....
....|..|C-4 AF.F ....|E-4 3FEF ....|--- .... ....
 C#4|..|C#2 2A.F ....|--- .... ....|--- .... ....
....|..|C-4 LF.F ....|R-- .... ....|--- .... ....
....|..|G#1 2F.7 ....|R-- .... ....|--- .... ....
....|..|B-8 JF.F ....|D#4 3FEF ....|C#2 3F.A ....
 C#4|..|C#2 2A.F ....|--- .... ....|--- .... ....
....|..|C-4 AF.F ....|--- .... ....|--- .... ....
 C#4|..|C#2 2A.F ....|R-- .... ....|--- .... ....
....|..|B-8 JF.F ....|E-4 3FEF ....|--- .... ....
....|..|G#1 2F.7 ....|--- .... ....|--- .... ....
....|..|C-4 AF.F ....|--- .... ....|--- .... ....
 C#4|..|C#2 2A.F ....|R-- .... ....|--- .... ....
....|..|C-4 AF.F ....|E-4 3FEA ....|--- .... ....
 C#4|..|C#2 2A.F ....|--- .... ....|--- .... ....
....|..|C-4 AF.F ....|R-- .... ....|--- .... ....
 C#4|..|C#2 2A.F ....|--- .... ....|--- .... ....
....|..|C-4 AF.F ....|D#4 3FEA ....|C#2 3F.7 ....
 C#4|..|C#2 2A.F ....|--- .... ....|--- .... ....
....|..|C-4 AF.F ....|--- .... ....|--- .... ....
....|..|C#2 2F.A ....|R-- .... ....|--- .... ....
....|..|B-8 JF.F ....|E-4 3FE7 ....|--- .... ....
 B-3|..|B-1 2A.F ....|--- .... ....|--- .... ....
....|..|C-4 AF.F ....|--- .... ....|--- .... ....
....|..|C#2 2F.7 ....|R-- .... ....|--- .... ....
....|..|C-4 AF.F ....|E-4 3FEF ....|E-2 3F.F ....
 E-4|..|E-2 2A.F ....|--- .... ....|--- .... ....
....|..|C-4 LF.F ....|R-- .... ....|--- .... ....
....|..|C#2 2F.A ....|--- .... ....|--- .... ....
....|..|C-4 AF.F ....|D#4 3FE7 ....|--- .... ....
 E-4|..|E-2 2A.F ....|--- .... ....|--- .... ....
....|..|C-4 RF.F ....|R-- .... ....|--- .... ....
 E-4|..|E-2 2A.F ....|R-- .... ....|--- .... ....
....|..|C-4 AF.F ....|E-4 3FEF ....|--- .... ....
 E-4|..|E-2 2A.F ....|--- .... ....|--- .... ....
....|..|C-4 LF.F ....|R-- .... ....|--- .... ....
....|..|C#2 2F.7 ....|--- .... ....|--- .... ....
....|..|B-8 JF.F ....|D#4 3FEF ....|E-2 3F.A ....
 E-4|..|E-2 2A.F ....|--- .... ....|--- .... ....
....|..|C-4 AF.F ....|R-- .... ....|--- .... ....
 E-4|..|E-2 2A.F ....|--- .... ....|--- .... ....
....|..|B-8 JF.F ....|E-4 3FEF ....|--- .... ....
....|..|C#2 2F.7 ....|--- .... ....|--- .... ....
....|..|C-4 AF.F ....|R-- .... ....|--- .... ....
 E-4|..|E-2 2A.F ....|--- .... ....|--- .... ....
....|..|C-4 AF.F ....|F#4 3FEF ....|--- .... ....
 E-4|..|E-2 2A.F ....|--- .... ....|--- .... ....
....|..|C-4 AF.F ....|R-- .... ....|--- .... ....
 E-4|..|E-2 2A.F ....|--- .... ....|--- .... ....
....|..|C-4 AF.F ....|E-4 3FE7 ....|E-2 3F.7 ....
 E-4|..|E-2 2A.F ....|R-- .... ....|--- .... ....
....|..|C-4 AF.F ....|R-- .... ....|--- .... ....
....|..|E-2 2F.A ....|--- .... ....|--- .... ....
....|..|B-8 JF.F ....|E-4 3FEA ....|--- .... ....
 E-4|..|E-2 2A.F ....|--- .... ....|--- .... ....
....|..|C-4 AF.F ....|R-- .... ....|--- .... ....
....|..|E-2 2F.7 ....|--- .... ....|--- .... ....
....|..|C-4 AF.F ....|E-4 3FEF ....|R-- .... ....
 A-3|..|A-1 2A.F ....|--- .... ....|--- .... ....
....|..|C-4 LF.F ....|R-- .... ....|--- .... ....
....|..|E-2 2F.A ....|--- .... ....|--- .... ....
....|..|C-4 AF.F ....|D#4 3FE7 ....|--- .... ....
 E-4|..|E-5 2C.F ....|R-- .... ....|--- .... ....
....|..|C-4 RF.F ....|A-4 UFFF ....|--- .... ....
....|..|E-2 2F.7 ....|--- .... ....|--- .... ....
....|..|C-4 AF.F ....|E-4 3FEF ....|--- .... ....
....|..|E-2 2F.A ....|--- .... ....|--- .... ....
....|..|C-4 LF.F ....|--- .... ....|--- .... ....
 A-3|..|A-4 2C.F ....|R-- .... ....|--- .... ....
....|..|B-8 JF.F ....|D#4 3FEF ....|R-- .... ....
 E-4|..|E-5 2C.F ....|--- .... ....|--- .... ....
....|..|C-4 AF.F ....|R-- .... ....|--- .... ....
....|..|E-2 2F.7 ....|--- .... ....|--- .... ....
....|..|B-8 JF.F ....|E-4 3FEF ....|--- .... ....
 E-4|..|E-5 2C.F ....|R-- .... ....|--- .... ....
....|..|C-4 AF.F ....|A-4 UFFA ....|--- .... ....
 D#4|..|D#5 2C.F ....|--- .... ....|--- .... ....
....|..|C-4 AF.F ....|D#5 UFFF ....|--- .... ....
 E-4|..|E-5 2C.F ....|--- .... ....|--- .... ....
....|..|C-4 AF.F ....|D#5 UFFF ....|--- .... ....
 E-4|..|E-5 2C.F ....|A-4 UFFF ....|--- .... ....
....|..|C-4 AF.F ....|E-5 UFFF ....|R-- .... ....
 E-4|..|E-5 2C.F ....|E-5 UFFF ....|--- .... ....
....|..|C-4 AF.F ....|R-- .... ....|--- .... ....
 D#4|..|D#5 2C.F ....|R-- .... ....|--- .... ....
....|..|B-8 JF.F ....|B-3 3FEF ....|--- .... ....
 E-4|..|E-5 2C.F ....|R-- .... ....|--- .... ....
....|..|C-4 AF.F ....|A-4 UFFF ....|--- .... ....
 E-4|..|E-5 2C.F ....|R-- .... ....|--- .... ....

[Pattern10]
....|..|C-4 AF.F ....|E-4 3FEF ....|--- .... ....
 E-4|..|E-5 2C.F ....|E-5 UFFF ....|--- .... ....
....|..|C-4 LF.F ....|D#5 UFFA ....|--- .... ....
 D#4|..|D#5 2C.F ....|A-4 UFFA ....|--- .... ....
....|..|C-4 AF.F ....|D#5 UFFF ....|--- .... ....
 E-4|..|E-5 2C.F ....|E-5 UFFA ....|--- .... ....
....|..|C-4 RF.F ....|B-4 UFFF ....|--- .... ....
 E-4|..|E-5 2C.F ....|R-- .... ....|--- .... ....
....|..|C-4 AF.F ....|E-4 3FEF ....|--- .... ....
 E-4|..|E-5 2C.F ....|E-5 UFFF ....|--- .... ....
....|..|C-4 LF.F ....|A-4 UFFA ....|--- .... ....
 D#4|..|D#5 2C.F ....|R-- .... ....|--- .... ....
....|..|B-8 JF.F ....|D#4 3FEF ....|--- .... ....
 E-4|..|E-5 2C.F ....|E-5 UFFA ....|--- .... ....
....|..|C-4 AF.F ....|B-4 UFFF ....|--- .... ....
 E-4|..|E-5 2C.F ....|A-4 UFF7 ....|--- .... ....
....|..|B-8 JF.F ....|E-4 3FEF ....|--- .... ....
 E-4|..|E-5 2C.F ....|E-5 UFFF ....|--- .... ....
....|..|C-4 AF.F ....|B-4 UFFA ....|--- .... ....
 D#4|..|D#5 2C.F ....|R-- .... ....|--- .... ....
....|..|C-4 AF.F ....|F#4 3FEF ....|--- .... ....
 E-4|..|E-5 2C.F ....|E-5 UFFA ....|--- .... ....
....|..|C-4 AF.F ....|B-4 UFFF ....|--- .... ....
 E-4|..|E-5 2C.F ....|R-- .... ....|--- .... ....
....|..|C-4 AF.F ....|E-5 UFFF ....|--- .... ....
 E-4|..|E-5 2C.F ....|E-5 UFFF ....|--- .... ....
....|..|C-4 AF.F ....|B-4 UFFA ....|--- .... ....
 D#4|..|D#5 2C.F ....|R-- .... ....|--- .... ....
....|..|B-8 JF.F ....|D#5 UFFF ....|--- .... ....
 E-4|..|E-5 2C.F ....|E-5 UFFA ....|--- .... ....
....|..|C-4 AF.F ....|B-4 UFFF ....|--- .... ....
 E-4|..|E-5 2C.F ....|R-- .... ....|--- .... ....
....|..|C-4 AF.F ....|E-4 3FEF ....|--- .... ....
 E-4|..|E-5 2C.F ....|E-5 UFFF ....|--- .... ....
....|..|C-4 LF.F ....|B-4 UFFA ....|--- .... ....
....|..|D#5 2F.7 ....|R-- .... ....|--- .... ....
....|..|C-4 AF.F ....|D#5 UFFF ....|--- .... ....
 E-4|..|E-5 2C.F ....|E-5 UFFA ....|--- .... ....
....|..|C-4 RF.F ....|C#5 UFFF ....|--- .... ....
 D#4|..|D#5 2C.F ....|R-- .... ....|--- .... ....
....|..|C-4 AF.F ....|E-4 3FEF ....|--- .... ....
 E-4|..|E-5 2C.F ....|E-5 UFFF ....|--- .... ....
....|..|C-4 LF.F ....|B-4 UFFA ....|--- .... ....
 E-4|..|E-5 2C.F ....|R-- .... ....|--- .... ....
....|..|B-8 JF.F ....|D#4 3FEF ....|--- .... ....
 E-4|..|E-5 2C.F ....|E-5 UFFA ....|--- .... ....
....|..|C-4 AF.F ....|C#5 UFFF ....|--- .... ....
 D#4|..|D#5 2C.F ....|R-- .... ....|--- .... ....
....|..|B-8 JF.F ....|E-4 3FEF ....|--- .... ....
 E-4|..|E-5 2C.F ....|E-5 UFFF ....|--- .... ....
....|..|C-4 AF.F ....|C#5 UFFA ....|--- .... ....
 E-4|..|E-5 2C.F ....|R-- .... ....|--- .... ....
....|..|C-4 AF.F ....|C#4 3FEF ....|--- .... ....
 E-4|..|E-5 2C.F ....|E-5 UFFA ....|--- .... ....
....|..|C-4 AF.F ....|C#5 UFFF ....|--- .... ....
 D#4|..|D#5 2C.F ....|--- .... ....|--- .... ....
....|..|C-4 AF.F ....|E-5 UFFF ....|--- .... ....
 E-4|..|E-5 2C.F ....|E-5 UFFF ....|--- .... ....
....|..|C-4 AF.F ....|C#5 UFFA ....|--- .... ....
 E-4|..|E-5 2C.F ....|R-- .... ....|--- .... ....
....|..|B-8 JF.F ....|D#5 UFFF ....|--- .... ....
 E-4|..|E-5 2C.F ....|E-5 UFFA ....|--- .... ....
....|..|C-4 AF.F ....|C#5 UFFF ....|--- .... ....
 D#4|..|D#5 2C.F ....|--- .... ....|--- .... ....
 E-4|..|E-5 2C.F ....|E-5 3FEF ....|--- .... ....
....|..|E-5 2F.7 ....|E-5 UFFF ....|--- .... ....
 E-4|..|E-5 2C.F ....|C#5 UFFA ....|--- .... ....
....|..|E-5 2F.7 ....|--- .... ....|--- .... ....
 E-4|..|E-5 2C.F ....|D#4 3FE7 ....|--- .... ....
....|..|E-5 2F.7 ....|B-4 UFFF ....|--- .... ....
....|..|C-4 AF.7 ....|C#5 UFF7 ....|--- .... ....
....|..|D#5 2F.7 ....|R-- .... ....|--- .... ....
....|..|B-8 JF.7 ....|E-5 3FEF ....|--- .... ....
....|..|E-5 2F.7 ....|E-5 UFF7 ....|--- .... ....
....|..|C-4 AF.7 ....|C#5 UFFA ....|--- .... ....
....|..|E-5 2F.7 ....|--- .... ....|--- .... ....
....|..|C-4 AF.7 ....|D#5 3FEF ....|--- .... ....
....|..|E-5 2F.7 ....|E-5 UFFA ....|--- .... ....
....|..|C-4 AF.7 ....|C#5 UFF7 ....|--- .... ....
....|..|D#5 2F.7 ....|R-- .... ....|--- .... ....
....|..|C-4 AF.7 ....|E-5 3FEF ....|--- .... ....
....|..|E-5 2F.7 ....|E-5 UFF7 ....|--- .... ....
....|..|C-4 AF.7 ....|R-- .... ....|--- .... ....
....|..|E-5 2F.7 ....|--- .... ....|--- .... ....
....|..|B-8 JF.7 ....|C#5 3FEF ....|--- .... ....
....|..|E-5 2F.7 ....|--- .... ....|--- .... ....
....|..|C-4 AF.7 ....|C#5 UFF7 ....|--- .... ....
....|..|D#5 2F.7 ....|--- .... ....|--- .... ....
....|..|E-5 2F.7 ....|E-5 3FE7 ....|--- .... ....
....|..|--- .... ....|E-5 UFF7 ....|--- .... ....
....|..|E-5 2F.7 ....|R-- .... ....|--- .... ....
....|..|--- .... ....|R-- .... ....|--- .... ....
....|..|E-5 2F.7 ....|E-5 3FEA ....|--- .... ....
....|..|--- .... ....|B-4 UFF7 ....|--- .... ....
....|..|R-- .... ....|--- .... ....|--- .... ....
....|..|--- .... ....|--- .... ....|--- .... ....
....|..|C-4 AF.F ....|A-4 3FEF ....|C#4 3F.F ....
 A-3|..|A-1 2A.F ....|--- .... ....|--- .... ....
....|..|C-4 LF.F ....|--- .... ....|A-1 3F.F ....
....|..|R-- .... ....|--- .... ....|--- .... ....
....|..|C-4 AF.F ....|D#5 3FE7 ....|E-4 3F1F ....
 A-3|..|A-1 2A.F ....|R-- .... ....|A-1 3F.F ....
....|..|C-4 RF.F ....|--- .... ....|--- .... ....
 A-3|..|A-1 2A.F ....|R-- .... ....|--- .... ....
....|..|C-4 AF.F ....|A-4 3FEF ....|D#4 3F.F ....
 A-3|..|A-1 2A.F ....|--- .... ....|A-1 3F.F ....
....|..|C-4 LF.F ....|--- .... ....|C#5 3F.F ....
....|..|R-- .... ....|R-- .... ....|A-1 3F.F ....
....|..|B-8 JF.F ....|G#4 3FEF ....|F#4 3F.F ....
 A-3|..|A-1 2A.F ....|--- .... ....|A-1 3F.F ....
....|..|C-4 AF.F ....|--- .... ....|A-1 3F.A ....
 A-3|..|A-1 2A.F ....|R-- .... ....|--- .... ....
....|..|B-8 JF.F ....|A-4 3FEF ....|C#4 3F2F ....
....|..|A-1 2F.A ....|R-- .... ....|A-1 3F.A ....
....|..|C-4 AF.F ....|--- .... ....|A-1 3F.F ....
 A-3|..|A-1 2A.F ....|R-- .... ....|--- .... ....
....|..|C-4 AF.F ....|F#4 3FEF ....|E-4 3F.F ....
 A-3|..|A-1 2A.F ....|--- .... ....|A-1 3F.A ....
....|..|C-4 AF.F ....|--- .... ....|C#5 3F.F ....
 A-3|..|A-1 2A.F ....|R-- .... ....|A-1 3F.A ....
....|..|C-4 AF.F ....|A-4 3FE7 ....|D#4 3F.F ....
 A-3|..|A-1 2A.F ....|--- .... ....|A-1 3F.A ....
....|..|C-4 AF.F ....|--- .... ....|A-1 3F.F ....
....|..|A-1 2F.A ....|R-- .... ....|--- .... ....
....|..|B-8 JF.F ....|A-4 3FEF ....|C#5 3F.F ....
 A-3|..|A-1 2A.F ....|R-- .... ....|A-1 3F.7 ....
....|..|C-4 AF.F ....|--- .... ....|D#4 3F3F ....
....|..|A-1 2F.7 ....|R-- .... ....|C#5 3F.F ....

[Pattern11]
....|..|C-4 AF.F ....|A-4 3FE7 ....|D#4 3F3F ....
 G#3|..|G#1 2A.F ....|--- .... ....|A-1 3F.7 ....
....|..|C-4 LF.F ....|--- .... ....|G#1 3F.F ....
....|..|A-1 2F.A ....|R-- .... ....|A-1 3F.7 ....
....|..|C-4 AF.F ....|G#4 3FE7 ....|E-4 3F4F ....
 G#3|..|G#1 2A.F ....|--- .... ....|D#5 3F.F ....
....|..|C-4 RF.F ....|--- .... ....|G#1 3F.F ....
 G#3|..|G#1 2A.F ....|R-- .... ....|--- .... ....
....|..|C-4 AF.F ....|A-4 3FEF ....|D#4 3F.F ....
 G#3|..|G#1 2A.F ....|--- .... ....|--- .... ....
....|..|C-4 LF.F ....|--- .... ....|D#5 3F.F ....
....|..|A-1 2F.7 ....|R-- .... ....|C#5 3F.A ....
....|..|B-8 JF.F ....|G#4 3FEF ....|F#4 3F.F ....
 G#3|..|G#1 2A.F ....|--- .... ....|--- .... ....
....|..|C-4 AF.F ....|R-- .... ....|D#4 3F.F ....
 G#3|..|G#1 2A.F ....|--- .... ....|--- .... ....
....|..|B-8 JF.F ....|A-4 3FEF ....|D#5 3F.F ....
....|..|A-1 2F.7 ....|--- .... ....|D#5 3F.A ....
....|..|C-4 AF.F ....|--- .... ....|A-3 3F.F ....
 G#3|..|G#1 2A.F ....|--- .... ....|--- .... ....
....|..|C-4 AF.F ....|D#5 3FEF ....|D#4 3F.F ....
 G#3|..|G#1 2A.F ....|--- .... ....|--- .... ....
....|..|C-4 AF.F ....|--- .... ....|D#5 3F.F ....
 G#3|..|G#1 2A.F ....|R-- .... ....|C#5 3F.7 ....
....|..|C-4 AF.F ....|G#4 3FEA ....|A-3 3F.F ....
 G#3|..|G#1 2A.F ....|R-- .... ....|G#1 3F.F ....
....|..|C-4 AF.F ....|R-- .... ....|D#4 3F.F ....
....|..|G#1 2F.A ....|--- .... ....|--- .... ....
....|..|B-8 JF.F ....|D#5 3FEF ....|F#4 3F1F ....
 E-4|..|E-2 2A.F ....|--- .... ....|D#5 3F.7 ....
....|..|C-4 AF.F ....|--- .... ....|D#4 3F.F ....
....|..|G#1 2F.7 ....|--- .... ....|--- .... ....
....|..|C-4 AF.F ....|E-5 3FEF ....|G#3 3F5F ....
 C#4|..|C#2 2A.F ....|--- .... ....|--- .... ....
....|..|C-4 LF.F ....|--- .... ....|G#3 3F.F ....
....|..|G#1 2F.A ....|R-- .... ....|--- .... ....
....|..|C-4 AF.F ....|G#4 3FE7 ....|G#3 3F6F ....
 C#4|..|C#2 2A.F ....|R-- .... ....|G#1 3F.A ....
....|..|C-4 RF.F ....|R-- .... ....|G#3 3F5F ....
 C#4|..|C#2 2A.F ....|--- .... ....|--- .... ....
....|..|C-4 AF.F ....|E-5 3FEF ....|G#3 3F.F ....
 C#4|..|C#2 2A.F ....|--- .... ....|--- .... ....
....|..|C-4 LF.F ....|--- .... ....|G#3 3F5F ....
....|..|G#1 2F.7 ....|--- .... ....|--- .... ....
....|..|B-8 JF.F ....|D#5 3FEF ....|G#3 3F3F ....
 C#4|..|C#2 2A.F ....|--- .... ....|--- .... ....
....|..|C-4 AF.F ....|--- .... ....|G#3 3F5F ....
 C#4|..|C#2 2A.F ....|--- .... ....|G#3 3F.F ....
....|..|B-8 JF.F ....|E-5 3FEF ....|G#3 3F.F ....
....|..|G#1 2F.7 ....|R-- .... ....|G#1 3F.7 ....
....|..|C-4 AF.F ....|--- .... ....|G#3 3F.F ....
 C#4|..|C#2 2A.F ....|--- .... ....|--- .... ....
....|..|C-4 AF.F ....|C#5 3FEF ....|G#3 3F5F ....
 C#4|..|C#2 2A.F ....|--- .... ....|G#3 3F.F ....
....|..|C-4 AF.F ....|--- .... ....|G#3 3F6F ....
 C#4|..|C#2 2A.F ....|--- .... ....|--- .... ....
....|..|C-4 AF.F ....|E-5 3FE7 ....|G#3 3F.F ....
 C#4|..|C#2 2A.F ....|--- .... ....|--- .... ....
....|..|C-4 AF.F ....|--- .... ....|G#3 3F7F ....
....|..|C#2 2F.A ....|--- .... ....|G#3 3F.A ....
....|..|B-8 JF.F ....|D#5 3FEF ....|F#3 3F8F ....
 B-3|..|B-1 2A.F ....|--- .... ....|--- .... ....
....|..|C-4 AF.F ....|--- .... ....|F#3 3F.F ....
....|..|C#2 2F.7 ....|--- .... ....|--- .... ....
....|..|C-4 AF.F ....|E-5 3FEF ....|G#3 3F.F ....
 E-4|..|E-2 2A.F ....|--- .... ....|G#3 3F.A ....
....|..|C-4 LF.F ....|--- .... ....|G#3 3F7F ....
....|..|C#2 2F.A ....|--- .... ....|--- .... ....
....|..|C-4 AF.F ....|D#5 3FE7 ....|G#3 3F.F ....
 E-4|..|E-2 2A.F ....|--- .... ....|G#3 3F.F ....
....|..|C-4 RF.F ....|--- .... ....|G#3 3F57 ....
 E-4|..|E-2 2A.F ....|--- .... ....|G#3 3F.7 ....
....|..|C-4 AF.F ....|E-5 3FEF ....|G#3 3F7F ....
 E-4|..|E-2 2A.F ....|--- .... ....|--- .... ....
....|..|C-4 LF.F ....|--- .... ....|G#3 3F.F ....
....|..|C#2 2F.7 ....|--- .... ....|G#3 3F.F ....
....|..|B-8 JF.F ....|D#5 3FEF ....|G#3 3F7F ....
 E-4|..|E-2 2A.F ....|--- .... ....|G#3 3F.F ....
....|..|C-4 AF.F ....|--- .... ....|G#3 3F67 ....
 E-4|..|E-2 2A.F ....|--- .... ....|--- .... ....
....|..|B-8 JF.F ....|E-5 3FEF ....|G#3 3F.F ....
....|..|C#2 2F.7 ....|--- .... ....|G#3 3F.A ....
....|..|C-4 AF.F ....|--- .... ....|G#3 3F7F ....
 E-4|..|E-2 2A.F ....|--- .... ....|--- .... ....
....|..|C-4 AF.F ....|C#5 3FEF ....|G#3 3F.F ....
 E-4|..|E-2 2A.F ....|--- .... ....|--- .... ....
....|..|C-4 AF.F ....|--- .... ....|G#3 3F.F ....
 E-4|..|E-2 2A.F ....|--- .... ....|G#3 3F.A ....
....|..|C-4 AF.F ....|E-5 3FE7 ....|G#3 3F.F ....
 E-4|..|E-2 2A.F ....|--- .... ....|G#3 3F.A ....
....|..|C-4 AF.F ....|--- .... ....|G#3 3F5F ....
....|..|E-2 2F.A ....|--- .... ....|--- .... ....
....|..|B-8 JF.F ....|E-5 3FEA ....|G#3 3F3F ....
 E-4|..|E-2 2A.F ....|--- .... ....|G#3 3F.7 ....
....|..|C-4 AF.F ....|--- .... ....|G#3 3F5F ....
....|..|E-2 2F.7 ....|--- .... ....|--- .... ....
....|..|C-4 AF.F ....|A-4 3FEF ....|A-2 3F2F ....
 A-3|..|A-1 2A.F ....|--- .... ....|A-2 3F2F ....
....|..|C-4 LF.F ....|--- .... ....|A-2 3F2F ....
....|..|E-2 2F.A ....|--- .... ....|G#3 3F.7 ....
....|..|C-4 AF.F ....|D#5 3FE7 ....|E-4 3F.F ....
 A-3|..|A-1 2A.F ....|R-- .... ....|A-1 3F.F ....
....|..|C-4 RF.F ....|--- .... ....|G#5 3F.F ....
 A-3|..|A-1 2A.F ....|--- .... ....|A-1 3F.F ....
....|..|C-4 AF.F ....|A-4 3FEF ....|D#4 3F.F ....
 A-3|..|A-1 2A.F ....|--- .... ....|A-1 3F.F ....
....|..|C-4 LF.F ....|--- .... ....|G#3 3F77 ....
....|..|E-2 2F.7 ....|R-- .... ....|--- .... ....
....|..|B-8 JF.F ....|G#4 3FEF ....|F#4 3F.F ....
 A-3|..|A-1 2A.F ....|--- .... ....|A-1 3F.F ....
....|..|C-4 AF.F ....|--- .... ....|G#5 3F.F ....
 A-3|..|A-1 2A.F ....|R-- .... ....|A-1 3F.F ....
....|..|B-8 JF.F ....|A-4 3FEF ....|A-2 3F2F ....
....|..|E-2 2F.7 ....|R-- .... ....|A-1 3F.F ....
....|..|C-4 AF.F ....|--- .... ....|A-2 3F2F ....
 A-3|..|A-1 2A.F ....|R-- .... ....|A-1 3F.F ....
....|..|C-4 AF.F ....|F#4 3FEF ....|E-4 3F.F ....
 A-3|..|A-1 2A.F ....|--- .... ....|E-4 3F.F ....
....|..|C-4 AF.F ....|--- .... ....|E-4 3F.F ....
 A-3|..|A-1 2A.F ....|R-- .... ....|--- .... ....
....|..|C-4 AF.F ....|A-4 3FE7 ....|D#4 3F.F ....
 A-3|..|A-1 2A.F ....|--- .... ....|A-2 3F27 ....
....|..|C-4 AF.F ....|--- .... ....|A-1 3F.F ....
....|..|A-1 2F.A ....|R-- .... ....|A-1 3F.A ....
....|..|B-8 JF.F ....|A-4 3FEF ....|F#4 3F.F ....
 A-3|..|A-1 2A.F ....|R-- .... ....|A-1 3F.F ....
....|..|C-4 AF.F ....|--- .... ....|D#4 3F.F ....
....|..|A-1 2F.7 ....|R-- .... ....|A-1 3F.F ....

[Pattern12]
....|..|C-4 AF.F ....|A-4 3FE7 ....|G#2 3F2F ....
 G#3|..|G#1 2A.F ....|--- .... ....|G#1 3F.F ....
....|..|C-4 LF.F ....|--- .... ....|G#2 3F2F ....
....|..|A-1 2F.A ....|R-- .... ....|G#1 3F.F ....
....|..|C-4 AF.F ....|G#4 3FE7 ....|E-4 3F.F ....
 G#3|..|G#1 2A.F ....|--- .... ....|G#1 3F.F ....
....|..|C-4 RF.F ....|--- .... ....|E-4 3F.F ....
 G#3|..|G#1 2A.F ....|R-- .... ....|G#1 3F.F ....
....|..|C-4 AF.F ....|A-4 3FEF ....|D#4 3F.F ....
 G#3|..|G#1 2A.F ....|--- .... ....|G#1 3F.F ....
....|..|C-4 LF.F ....|--- .... ....|A-2 3F27 ....
....|..|A-1 2F.7 ....|R-- .... ....|A-1 3F.7 ....
....|..|B-8 JF.F ....|G#4 3FEF ....|F#4 3F.F ....
 G#3|..|G#1 2A.F ....|--- .... ....|G#1 3F.F ....
....|..|C-4 AF.F ....|R-- .... ....|G#2 3F2F ....
 G#3|..|G#1 2A.F ....|--- .... ....|G#1 3F.F ....
....|..|B-8 JF.F ....|A-4 3FEF ....|G#2 3F2F ....
....|..|A-1 2F.7 ....|--- .... ....|G#1 3F.F ....
....|..|C-4 AF.F ....|--- .... ....|G#2 3F2F ....
 G#3|..|G#1 2A.F ....|--- .... ....|G#1 3F.F ....
....|..|C-4 AF.F ....|D#5 3FEF ....|E-4 3F.F ....
 G#3|..|G#1 2A.F ....|--- .... ....|G#1 3F.F ....
....|..|C-4 AF.F ....|--- .... ....|E-4 3F.F ....
 G#3|..|G#1 2A.F ....|R-- .... ....|G#1 3F.F ....
....|..|C-4 AF.F ....|G#4 3FEA ....|D#4 3F.F ....
 G#3|..|G#1 2A.F ....|R-- .... ....|G#1 3F.F ....
....|..|C-4 AF.F ....|R-- .... ....|G#2 3F27 ....
....|..|G#1 2F.A ....|--- .... ....|G#1 3F.7 ....
....|..|B-8 JF.F ....|D#5 3FEF ....|F#4 3F.F ....
 E-4|..|E-2 2A.F ....|--- .... ....|G#1 3F.F ....
....|..|C-4 AF.F ....|--- .... ....|E-4 3F.7 ....
....|..|G#1 2F.7 ....|--- .... ....|G#1 3F.7 ....
....|..|C-4 AF.F ....|E-5 3FEF ....|G#3 3F5F ....
 C#4|..|C#2 2A.F ....|--- .... ....|D#4 3F.F ....
....|..|C-4 LF.F ....|--- .... ....|G#3 3F.F ....
....|..|G#1 2F.A ....|R-- .... ....|G#1 3F.A ....
....|..|C-4 AF.F ....|G#4 3FE7 ....|G#3 3F7F ....
 C#4|..|C#2 2A.F ....|R-- .... ....|G#1 3F.7 ....
....|..|C-4 RF.F ....|R-- .... ....|G#3 3F5F ....
 C#4|..|C#2 2A.F ....|--- .... ....|G#1 3F.7 ....
....|..|C-4 AF.F ....|E-5 3FEF ....|G#3 3F.F ....
 C#4|..|C#2 2A.F ....|--- .... ....|G#1 3F.7 ....
....|..|C-4 LF.F ....|--- .... ....|G#3 3F5F ....
....|..|G#1 2F.7 ....|--- .... ....|D#4 3F.F ....
....|..|B-8 JF.F ....|D#5 3FEF ....|F#3 3F2F ....
 C#4|..|C#2 2A.F ....|--- .... ....|G#1 3F.7 ....
....|..|C-4 AF.F ....|--- .... ....|D#4 3F.F ....
 C#4|..|C#2 2A.F ....|--- .... ....|C#2 3F.F ....
....|..|B-8 JF.F ....|E-5 3FEF ....|G#3 3F.F ....
....|..|G#1 2F.7 ....|R-- .... ....|C#2 3F.F ....
....|..|C-4 AF.F ....|--- .... ....|G#3 3F.F ....
 C#4|..|C#2 2A.F ....|--- .... ....|--- .... ....
....|..|C-4 AF.F ....|C#5 3FEF ....|G#3 3F5F ....
 C#4|..|C#2 2A.F ....|--- .... ....|G#3 3F.F ....
....|..|C-4 AF.F ....|--- .... ....|G#3 3F7F ....
 C#4|..|C#2 2A.F ....|--- .... ....|D#4 3F.A ....
....|..|C-4 AF.F ....|E-5 3FE7 ....|G#3 3F.F ....
 C#4|..|C#2 2A.F ....|--- .... ....|D#4 3F.7 ....
....|..|C-4 AF.F ....|--- .... ....|G#3 3F7F ....
....|..|C#2 2F.A ....|--- .... ....|C#2 3F.A ....
....|..|B-8 JF.F ....|D#5 3FEF ....|F#3 3F2F ....
 B-3|..|B-1 2A.F ....|--- .... ....|C#2 3F.A ....
....|..|C-4 AF.F ....|--- .... ....|F#3 3F.F ....
....|..|C#2 2F.7 ....|--- .... ....|--- .... ....
....|..|C-4 LF.F ....|E-5 3FEF ....|G#3 3F.7 ....
....|..|C#2 2F.7 ....|--- .... ....|G#3 3F.A ....
....|..|C-4 LF.7 ....|--- .... ....|G#3 3F57 ....
....|..|C#2 2F.A ....|--- .... ....|D#4 3F.7 ....
....|..|B-8 JF.7 ....|D#5 3FE7 ....|F#3 3F27 ....
....|..|C#2 2F.7 ....|--- .... ....|--- .... ....
....|..|C-4 AF.7 ....|E-5 UFFF ....|D#4 3F.7 ....
....|..|C#2 2F.7 ....|--- .... ....|C#2 3F.7 ....
....|..|B-8 JF.7 ....|E-5 3FEF ....|G#3 3F.7 ....
....|..|B-1 2F.A ....|--- .... ....|C#2 3F.7 ....
....|..|C-4 AF.7 ....|--- .... ....|G#3 3F.7 ....
....|..|C#2 2F.7 ....|--- .... ....|--- .... ....
....|..|C-4 AF.7 ....|D#5 3FEF ....|G#3 3F57 ....
....|..|C#2 2F.7 ....|--- .... ....|G#3 3F.7 ....
....|..|C-4 AF.7 ....|--- .... ....|G#3 3F77 ....
....|..|C#2 2F.7 ....|--- .... ....|--- .... ....
....|..|C-4 AF.7 ....|E-5 3FEF ....|G#3 3F.7 ....
....|..|C#2 2F.7 ....|--- .... ....|--- .... ....
....|..|C-4 AF.7 ....|E-5 UFFA ....|G#3 3F77 ....
....|..|R-- .... ....|--- .... ....|--- .... ....
....|..|B-8 JF.7 ....|C#5 3FEF ....|F#3 3F27 ....
....|..|B-1 2F.7 ....|--- .... ....|--- .... ....
....|..|C-4 AF.7 ....|--- .... ....|F#3 3F.7 ....
....|..|--- .... ....|--- .... ....|--- .... ....
....|..|C-4 LF.7 ....|E-5 3FE7 ....|R-- .... ....
....|..|R-- .... ....|--- .... ....|--- .... ....
....|..|--- .... ....|--- .... ....|--- .... ....
....|..|--- .... ....|--- .... ....|--- .... ....
....|..|C-4 AF.F ....|D#5 3FEF ....|--- .... ....
....|..|--- .... ....|--- .... ....|--- .... ....
....|..|C-4 AF.F ....|E-5 UFF7 ....|--- .... ....
....|..|--- .... ....|--- .... ....|--- .... ....
....|..|C-4 AF.F ....|E-5 3FEF ....|C#4 3F.F ....
 A-3|..|A-1 2A.F ....|--- .... ....|--- .... ....
....|..|C-4 LF.F ....|--- .... ....|A-1 3F.F ....
....|..|R-- .... ....|--- .... ....|--- .... ....
....|..|C-4 AF.F ....|D#5 3FE7 ....|E-4 3F1F ....
 A-3|..|A-1 2A.F ....|--- .... ....|A-1 3F.F ....
....|..|C-4 RF.F ....|--- .... ....|--- .... ....
 A-3|..|A-1 2A.F ....|--- .... ....|--- .... ....
....|..|C-4 AF.F ....|E-5 3FEF ....|D#4 3F.F ....
 A-3|..|A-1 2A.F ....|--- .... ....|A-1 3F.F ....
....|..|C-4 LF.F ....|--- .... ....|C#5 3F.F ....
....|..|R-- .... ....|R-- .... ....|A-1 3F.F ....
....|..|B-8 JF.F ....|D#5 3FEF ....|F#4 3F.F ....
 A-3|..|A-1 2A.F ....|--- .... ....|A-1 3F.F ....
....|..|C-4 AF.F ....|--- .... ....|A-1 3F.A ....
 A-3|..|A-1 2A.F ....|--- .... ....|--- .... ....
....|..|B-8 JF.F ....|E-5 3FEF ....|C#4 3F2F ....
....|..|A-1 2F.A ....|--- .... ....|A-1 3F.A ....
....|..|C-4 AF.F ....|--- .... ....|A-1 3F.F ....
 A-3|..|A-1 2A.F ....|--- .... ....|--- .... ....
....|..|C-4 AF.F ....|F#5 3FEF ....|E-4 3F.F ....
 A-3|..|A-1 2A.F ....|--- .... ....|A-1 3F.A ....
....|..|C-4 AF.F ....|--- .... ....|C#5 3F.F ....
 A-3|..|A-1 2A.F ....|R-- .... ....|A-1 3F.A ....
....|..|C-4 AF.F ....|E-5 3FE7 ....|D#4 3F.F ....
 A-3|..|A-1 2A.F ....|--- .... ....|A-1 3F.A ....
....|..|C-4 AF.F ....|--- .... ....|A-1 3F.F ....
....|..|A-1 2F.A ....|--- .... ....|--- .... ....
....|..|B-8 JF.F ....|E-5 3FEA ....|C#5 3F.F ....
 A-3|..|A-1 2A.F ....|--- .... ....|A-1 3F.7 ....
....|..|C-4 AF.F ....|--- .... ....|D#4 3F3F ....
....|..|A-1 2F.7 ....|--- .... ....|C#5 3F.F ....

[Pattern13]
....|..|C-4 AF.F ....|E-5 3FE7 ....|D#4 3F3F ....
 G#3|..|G#1 2A.F ....|--- .... ....|A-1 3F.7 ....
....|..|C-4 LF.F ....|--- .... ....|G#1 3F.F ....
....|..|A-1 2F.A ....|R-- .... ....|A-1 3F.7 ....
....|..|C-4 AF.F ....|D#5 3FE7 ....|E-4 3F4F ....
 G#3|..|G#1 2A.F ....|--- .... ....|D#5 3F.F ....
....|..|C-4 RF.F ....|--- .... ....|G#1 3F.F ....
 G#3|..|G#1 2A.F ....|--- .... ....|--- .... ....
....|..|C-4 AF.F ....|E-5 3FE7 ....|D#4 3F.F ....
 G#3|..|G#1 2A.F ....|--- .... ....|--- .... ....
....|..|C-4 LF.F ....|--- .... ....|D#5 3F.F ....
....|..|A-1 2F.7 ....|--- .... ....|C#5 3F.A ....
....|..|B-8 JF.F ....|F#5 3FE7 ....|F#4 3F.F ....
 G#3|..|G#1 2A.F ....|--- .... ....|--- .... ....
....|..|C-4 AF.F ....|--- .... ....|D#4 3F.F ....
 G#3|..|G#1 2A.F ....|--- .... ....|--- .... ....
....|..|B-8 JF.F ....|--- .... ....|D#5 3F.F ....
....|..|A-1 2F.7 ....|--- .... ....|D#5 3F.A ....
....|..|C-4 AF.F ....|--- .... ....|A-3 3F.F ....
 G#3|..|G#1 2A.F ....|--- .... ....|--- .... ....
....|..|C-4 AF.F ....|--- .... ....|D#4 3F.F ....
 G#3|..|G#1 2A.F ....|--- .... ....|--- .... ....
....|..|C-4 AF.F ....|--- .... ....|D#5 3F.F ....
 G#3|..|G#1 2A.F ....|--- .... ....|C#5 3F.7 ....
....|..|C-4 AF.F ....|R-- .... ....|A-3 3F.F ....
 G#3|..|G#1 2A.F ....|--- .... ....|G#1 3F.F ....
....|..|C-4 AF.F ....|--- .... ....|D#4 3F.F ....
....|..|G#1 2F.A ....|--- .... ....|--- .... ....
....|..|B-8 JF.F ....|D#5 3FEF ....|F#4 3F1F ....
 E-4|..|E-2 2A.F ....|--- .... ....|D#5 3F.7 ....
....|..|C-4 AF.F ....|--- .... ....|D#4 3F.F ....
....|..|G#1 2F.7 ....|--- .... ....|--- .... ....
....|..|C-4 AF.F ....|E-5 3FEF ....|G#3 3F5F ....
 C#4|..|C#2 2A.F ....|--- .... ....|--- .... ....
....|..|C-4 LF.F ....|--- .... ....|G#3 3F.F ....
....|..|G#1 2F.A ....|--- .... ....|--- .... ....
....|..|C-4 AF.F ....|R-- .... ....|G#3 3F6F ....
 C#4|..|C#2 2A.F ....|--- .... ....|G#1 3F.A ....
....|..|C-4 RF.F ....|--- .... ....|G#3 3F5F ....
 C#4|..|C#2 2A.F ....|--- .... ....|--- .... ....
....|..|C-4 AF.F ....|E-5 3FEF ....|G#3 3F.F ....
 C#4|..|C#2 2A.F ....|--- .... ....|--- .... ....
....|..|C-4 LF.F ....|--- .... ....|G#3 3F5F ....
....|..|G#1 2F.7 ....|R-- .... ....|--- .... ....
....|..|B-8 JF.F ....|D#5 3FEF ....|G#3 3F3F ....
 C#4|..|C#2 2A.F ....|--- .... ....|--- .... ....
....|..|C-4 AF.F ....|--- .... ....|G#3 3F5F ....
 C#4|..|C#2 2A.F ....|--- .... ....|G#3 3F.F ....
....|..|B-8 JF.F ....|E-5 3FEF ....|G#3 3F.F ....
....|..|G#1 2F.7 ....|--- .... ....|G#1 3F.7 ....
....|..|C-4 AF.F ....|--- .... ....|G#3 3F.F ....
 C#4|..|C#2 2A.F ....|--- .... ....|--- .... ....
....|..|C-4 AF.F ....|C#5 3FEF ....|G#3 3F5F ....
 C#4|..|C#2 2A.F ....|--- .... ....|G#3 3F.F ....
....|..|C-4 AF.F ....|--- .... ....|G#3 3F6F ....
 C#4|..|C#2 2A.F ....|R-- .... ....|--- .... ....
....|..|C-4 AF.F ....|E-5 3FEF ....|G#3 3F.F ....
 C#4|..|C#2 2A.F ....|--- .... ....|--- .... ....
....|..|C-4 AF.F ....|--- .... ....|G#3 3F7F ....
....|..|C#2 2F.A ....|--- .... ....|G#3 3F.A ....
....|..|B-8 JF.F ....|D#5 3FEF ....|F#3 3F8F ....
 B-3|..|B-1 2A.F ....|--- .... ....|--- .... ....
....|..|C-4 AF.F ....|--- .... ....|F#3 3F.F ....
....|..|C#2 2F.7 ....|--- .... ....|--- .... ....
....|..|C-4 AF.F ....|E-5 3FEF ....|G#3 3F.F ....
 E-4|..|E-2 2A.F ....|--- .... ....|G#3 3F.A ....
....|..|C-4 LF.F ....|--- .... ....|G#3 3F7F ....
....|..|C#2 2F.A ....|R-- .... ....|--- .... ....
....|..|C-4 AF.F ....|C#5 3FEF ....|G#3 3F.F ....
 E-4|..|E-2 2A.F ....|--- .... ....|G#3 3F.F ....
....|..|C-4 RF.F ....|--- .... ....|G#3 3F57 ....
 E-4|..|E-2 2A.F ....|R-- .... ....|G#3 3F.7 ....
....|..|C-4 AF.F ....|E-5 UFFF ....|G#3 3F7F ....
 E-4|..|E-2 2A.F ....|--- .... ....|--- .... ....
....|..|C-4 LF.F ....|--- .... ....|G#3 3F.F ....
....|..|C#2 2F.7 ....|R-- .... ....|G#3 3F.F ....
....|..|B-8 JF.F ....|D#5 UFFF ....|G#3 3F7F ....
 E-4|..|E-2 2A.F ....|--- .... ....|G#3 3F.F ....
....|..|C-4 AF.F ....|--- .... ....|G#3 3F67 ....
 E-4|..|E-2 2A.F ....|--- .... ....|--- .... ....
....|..|B-8 JF.F ....|E-5 UFFF ....|G#3 3F.F ....
....|..|C#2 2F.7 ....|--- .... ....|G#3 3F.A ....
....|..|C-4 AF.F ....|--- .... ....|G#3 3F7F ....
 E-4|..|E-2 2A.F ....|R-- .... ....|--- .... ....
....|..|C-4 AF.F ....|C#5 UFFF ....|G#3 3F.F ....
 E-4|..|E-2 2A.F ....|--- .... ....|--- .... ....
....|..|C-4 AF.F ....|--- .... ....|G#3 3F.F ....
 E-4|..|E-2 2A.F ....|R-- .... ....|G#3 3F.A ....
....|..|C-4 AF.F ....|E-5 3FE7 ....|G#3 3F.F ....
 E-4|..|E-2 2A.F ....|--- .... ....|G#3 3F.A ....
....|..|C-4 AF.F ....|--- .... ....|G#3 3F5F ....
....|..|E-2 2F.A ....|--- .... ....|--- .... ....
....|..|B-8 JF.F ....|D#5 3FEF ....|G#3 3F3F ....
 E-4|..|E-2 2A.F ....|--- .... ....|G#3 3F.7 ....
....|..|C-4 AF.F ....|--- .... ....|G#3 3F5F ....
....|..|E-2 2F.7 ....|R-- .... ....|--- .... ....
....|..|C-4 AF.F ....|E-5 3FEF ....|A-2 3F2F ....
 A-3|..|A-1 2A.F ....|--- .... ....|A-2 3F2F ....
....|..|C-4 LF.F ....|--- .... ....|A-2 3F2F ....
....|..|E-2 2F.A ....|R-- .... ....|G#3 3F.7 ....
....|..|C-4 AF.F ....|D#5 UFF7 ....|E-4 3F.F ....
 A-3|..|A-1 2A.F ....|--- .... ....|A-1 3F.F ....
....|..|C-4 RF.F ....|--- .... ....|G#5 3F.F ....
 A-3|..|A-1 2A.F ....|--- .... ....|A-1 3F.F ....
....|..|C-4 AF.F ....|E-5 3FEF ....|D#4 3F.F ....
 A-3|..|A-1 2A.F ....|--- .... ....|A-1 3F.F ....
....|..|C-4 LF.F ....|--- .... ....|G#3 3F77 ....
....|..|E-2 2F.7 ....|R-- .... ....|--- .... ....
....|..|B-8 JF.F ....|D#5 3FEF ....|F#4 3F.F ....
 A-3|..|A-1 2A.F ....|--- .... ....|A-1 3F.F ....
....|..|C-4 AF.F ....|--- .... ....|G#5 3F.F ....
 A-3|..|A-1 2A.F ....|--- .... ....|A-1 3F.F ....
....|..|B-8 JF.F ....|E-5 3FEF ....|A-2 3F2F ....
....|..|E-2 2F.7 ....|--- .... ....|A-1 3F.F ....
....|..|C-4 AF.F ....|--- .... ....|A-2 3F2F ....
 A-3|..|A-1 2A.F ....|--- .... ....|A-1 3F.F ....
....|..|C-4 AF.F ....|C#5 3FEF ....|E-4 3F.F ....
 A-3|..|A-1 2A.F ....|--- .... ....|E-4 3F.F ....
....|..|C-4 AF.F ....|--- .... ....|E-4 3F.F ....
 A-3|..|A-1 2A.F ....|R-- .... ....|--- .... ....
....|..|C-4 AF.F ....|E-5 3FEF ....|D#4 3F.F ....
 A-3|..|A-1 2A.F ....|--- .... ....|A-2 3F27 ....
....|..|C-4 AF.F ....|--- .... ....|A-1 3F.F ....
....|..|A-1 2F.A ....|--- .... ....|A-1 3F.A ....
....|..|B-8 JF.F ....|D#5 3FEF ....|F#4 3F.F ....
 A-3|..|A-1 2A.F ....|--- .... ....|A-1 3F.F ....
....|..|C-4 AF.F ....|--- .... ....|D#4 3F.F ....
....|..|A-1 2F.7 ....|--- .... ....|A-1 3F.F ....

[Pattern14]
....|..|C-4 AF.F ....|E-5 3FEF ....|G#2 3F2F ....
 G#3|..|G#1 2A.F ....|--- .... ....|G#1 3F.F ....
....|..|C-4 LF.F ....|--- .... ....|G#2 3F2F ....
....|..|A-1 2F.A ....|R-- .... ....|G#1 3F.F ....
....|..|C-4 AF.F ....|C#5 3FEF ....|E-4 3F.F ....
 G#3|..|G#1 2A.F ....|--- .... ....|G#1 3F.F ....
....|..|C-4 RF.F ....|--- .... ....|E-4 3F.F ....
 G#3|..|G#1 2A.F ....|R-- .... ....|G#1 3F.F ....
....|..|C-4 AF.F ....|E-5 3FEF ....|D#4 3F.F ....
 G#3|..|G#1 2A.F ....|--- .... ....|G#1 3F.F ....
....|..|C-4 LF.F ....|--- .... ....|A-2 3F27 ....
....|..|A-1 2F.7 ....|--- .... ....|A-1 3F.7 ....
....|..|B-8 JF.F ....|D#5 3FEF ....|F#4 3F.F ....
 G#3|..|G#1 2A.F ....|--- .... ....|G#1 3F.F ....
....|..|C-4 AF.F ....|--- .... ....|G#2 3F2F ....
 G#3|..|G#1 2A.F ....|--- .... ....|G#1 3F.F ....
....|..|B-8 JF.F ....|E-5 3FEF ....|G#2 3F2F ....
....|..|A-1 2F.7 ....|--- .... ....|G#1 3F.F ....
....|..|C-4 AF.F ....|--- .... ....|G#2 3F2F ....
 G#3|..|G#1 2A.F ....|R-- .... ....|G#1 3F.F ....
....|..|C-4 AF.F ....|C#5 3FEF ....|E-4 3F.F ....
 G#3|..|G#1 2A.F ....|--- .... ....|G#1 3F.F ....
....|..|C-4 AF.F ....|--- .... ....|E-4 3F.F ....
 G#3|..|G#1 2A.F ....|R-- .... ....|G#1 3F.F ....
....|..|C-4 AF.F ....|E-5 3FE7 ....|D#4 3F.F ....
 G#3|..|G#1 2A.F ....|--- .... ....|G#1 3F.F ....
....|..|C-4 AF.F ....|--- .... ....|G#2 3F27 ....
....|..|G#1 2F.A ....|--- .... ....|G#1 3F.7 ....
....|..|B-8 JF.F ....|C#5 3FE7 ....|F#4 3F.F ....
 E-4|..|E-2 2A.F ....|--- .... ....|G#1 3F.F ....
....|..|C-4 AF.F ....|--- .... ....|E-4 3F.7 ....
....|..|G#1 2F.7 ....|R-- .... ....|G#1 3F.7 ....
....|..|C-4 AF.F ....|E-5 3FE7 ....|G#3 3F5F ....
 C#4|..|C#2 2A.F ....|--- .... ....|D#4 3F.F ....
....|..|C-4 LF.F ....|--- .... ....|G#3 3F.F ....
....|..|G#1 2F.A ....|R-- .... ....|G#1 3F.A ....
....|..|C-4 AF.F ....|D#5 3FE7 ....|G#3 3F7F ....
 C#4|..|C#2 2A.F ....|--- .... ....|G#1 3F.7 ....
....|..|C-4 RF.F ....|--- .... ....|G#3 3F5F ....
 C#4|..|C#2 2A.F ....|--- .... ....|G#1 3F.7 ....
....|..|C-4 AF.F ....|E-5 3FE7 ....|G#3 3F.F ....
 C#4|..|C#2 2A.F ....|--- .... ....|G#1 3F.7 ....
....|..|C-4 LF.F ....|--- .... ....|G#3 3F5F ....
....|..|G#1 2F.7 ....|--- .... ....|D#4 3F.F ....
....|..|B-8 JF.F ....|C#5 3FE7 ....|F#3 3F2F ....
 C#4|..|C#2 2A.F ....|--- .... ....|G#1 3F.7 ....
....|..|C-4 AF.F ....|--- .... ....|D#4 3F.F ....
 C#4|..|C#2 2A.F ....|R-- .... ....|C#2 3F.F ....
....|..|B-8 JF.F ....|--- .... ....|G#3 3F.F ....
....|..|G#1 2F.7 ....|--- .... ....|C#2 3F.F ....
....|..|C-4 AF.F ....|--- .... ....|G#3 3F.F ....
 C#4|..|C#2 2A.F ....|--- .... ....|--- .... ....
....|..|C-4 AF.F ....|--- .... ....|G#3 3F5F ....
 C#4|..|C#2 2A.F ....|--- .... ....|G#3 3F.F ....
....|..|C-4 AF.F ....|--- .... ....|G#3 3F7F ....
 C#4|..|C#2 2A.F ....|--- .... ....|D#4 3F.A ....
....|..|C-4 AF.F ....|--- .... ....|G#3 3F.F ....
 C#4|..|C#2 2A.F ....|--- .... ....|D#4 3F.7 ....
....|..|C-4 AF.F ....|--- .... ....|G#3 3F7F ....
....|..|C#2 2F.A ....|--- .... ....|C#2 3F.A ....
....|..|B-8 JF.F ....|--- .... ....|F#3 3F2F ....
 B-3|..|B-1 2A.F ....|--- .... ....|C#2 3F.A ....
....|..|C-4 AF.F ....|--- .... ....|F#3 3F.F ....
....|..|C#2 2F.7 ....|--- .... ....|--- .... ....
....|..|C-4 LF.F ....|--- .... ....|G#3 3F.F ....
 G#4|..|G#2 2A.F ....|--- .... ....|G#3 3F.A ....
 G#4|..|G#2 2A.F ....|--- .... ....|G#3 3F.F ....
....|..|C#2 2F.A ....|--- .... ....|D#4 3F.7 ....
 E-4|..|E-3 2C.F ....|--- .... ....|E-4 3F.F ....
....|..|C#2 2F.7 ....|--- .... ....|R-- .... ....
 G#4|..|G#2 2A.F ....|--- .... ....|G#3 3F.F ....
....|..|C#2 2F.7 ....|--- .... ....|C#2 3F.7 ....
 D#4|..|D#3 2C.F ....|--- .... ....|D#4 3F.F ....
....|..|B-1 2F.A ....|--- .... ....|C#2 3F.7 ....
 G#4|..|G#2 2A.F ....|--- .... ....|G#3 3F.F ....
....|..|C#2 2F.7 ....|--- .... ....|R-- .... ....
 F#4|..|F#3 2C.F ....|--- .... ....|F#4 3F.F ....
....|..|C#2 2F.7 ....|--- .... ....|G#3 3F.7 ....
 G#4|..|G#2 2A.F ....|--- .... ....|G#3 3F.F ....
....|..|C#2 2F.7 ....|--- .... ....|R-- .... ....
 G#4|..|G#2 2A.F ....|--- .... ....|G#3 3F.F ....
....|..|C#2 2F.7 ....|--- .... ....|R-- .... ....
 G#4|..|G#2 2A.F ....|--- .... ....|G#3 3F.F ....
....|..|R-- .... ....|--- .... ....|R-- .... ....
 E-4|..|E-3 2C.F ....|--- .... ....|E-4 3F.F ....
....|..|B-1 2F.7 ....|--- .... ....|R-- .... ....
 E-4|..|E-3 2C.F ....|--- .... ....|E-4 3F.F ....
....|..|R-- .... ....|--- .... ....|R-- .... ....
 D#4|..|D#3 2C.F ....|--- .... ....|D#4 3F.F ....
....|..|G#2 2F.7 ....|--- .... ....|R-- .... ....
 D#4|..|D#3 2C.F ....|--- .... ....|D#4 3F.F ....
....|..|R-- .... ....|--- .... ....|R-- .... ....
 F#4|..|F#3 2C.F ....|--- .... ....|F#4 3F.F ....
....|..|R-- .... ....|--- .... ....|R-- .... ....
 D#4|..|D#3 2C.F ....|--- .... ....|D#4 3F.F ....
....|..|R-- .... ....|--- .... ....|R-- .... ....
....|..|C-4 AF.F ....|--- .... ....|C#4 3F.F ....
 A-3|..|A-1 2A.F ....|--- .... ....|R-- .... ....
....|..|C-4 LF.F ....|--- .... ....|A-1 3F.F ....
....|..|R-- .... ....|--- .... ....|R-- .... ....
....|..|C-4 AF.F ....|--- .... ....|E-4 3F1F ....
 A-3|..|A-1 2A.F ....|--- .... ....|A-1 3F.F ....
....|..|C-4 RF.F ....|--- .... ....|G#3 3F.7 ....
 A-3|..|A-1 2A.F ....|--- .... ....|R-- .... ....
....|..|C-4 AF.F ....|--- .... ....|D#4 3F.F ....
 A-3|..|A-1 2A.F ....|--- .... ....|A-1 3F.F ....
....|..|C-4 LF.F ....|--- .... ....|C#5 3F.F ....
....|..|R-- .... ....|--- .... ....|A-1 3F.F ....
....|..|B-8 JF.F ....|--- .... ....|F#4 3F.F ....
 A-3|..|A-1 2A.F ....|--- .... ....|A-1 3F.F ....
....|..|C-4 AF.F ....|--- .... ....|E-4 3F.7 ....
 A-3|..|A-1 2A.F ....|--- .... ....|R-- .... ....
....|..|B-8 JF.F ....|--- .... ....|C#4 3F2F ....
....|..|A-1 2F.A ....|--- .... ....|A-1 3F.A ....
....|..|C-4 AF.F ....|--- .... ....|A-1 3F.F ....
 A-3|..|A-1 2A.F ....|--- .... ....|R-- .... ....
....|..|C-4 AF.F ....|--- .... ....|E-4 3F.F ....
 A-3|..|A-1 2A.F ....|--- .... ....|A-1 3F.A ....
....|..|C-4 AF.F ....|--- .... ....|C#5 3F.F ....
 A-3|..|A-1 2A.F ....|--- .... ....|A-1 3F.A ....
....|..|C-4 AF.F ....|--- .... ....|D#4 3F.F ....
 A-3|..|A-1 2A.F ....|--- .... ....|A-1 3F.A ....
....|..|C-4 AF.F ....|--- .... ....|A-1 3F.F ....
....|..|A-1 2F.A ....|--- .... ....|--- .... ....
....|..|B-8 JF.F ....|--- .... ....|C#5 3F.F ....
 A-3|..|A-1 2A.F ....|--- .... ....|A-1 3F.7 ....
....|..|C-4 AF.F ....|--- .... ....|D#4 3F3F ....
....|..|A-1 2F.7 ....|--- .... ....|C#5 3F.F ....

[Pattern15]
....|..|C-4 AF.F ....|--- .... ....|D#4 3F3F ....
 G#3|..|G#1 2A.F ....|--- .... ....|A-1 3F.7 ....
....|..|C-4 LF.F ....|--- .... ....|G#1 3F.F ....
....|..|A-1 2F.A ....|--- .... ....|A-1 3F.7 ....
....|..|C-4 AF.F ....|--- .... ....|E-4 3F4F ....
 G#3|..|G#1 2A.F ....|--- .... ....|D#5 3F.F ....
....|..|C-4 RF.F ....|--- .... ....|G#1 3F.F ....
 G#3|..|G#1 2A.F ....|--- .... ....|--- .... ....
....|..|C-4 AF.F ....|--- .... ....|D#4 3F.F ....
 G#3|..|G#1 2A.F ....|--- .... ....|--- .... ....
....|..|C-4 LF.F ....|--- .... ....|D#5 3F.F ....
....|..|A-1 2F.7 ....|--- .... ....|C#5 3F.A ....
....|..|B-8 JF.F ....|--- .... ....|F#4 3F.F ....
 G#3|..|G#1 2A.F ....|--- .... ....|--- .... ....
....|..|C-4 AF.F ....|--- .... ....|D#4 3F.F ....
 G#3|..|G#1 2A.F ....|--- .... ....|--- .... ....
....|..|B-8 JF.F ....|--- .... ....|D#5 3F.F ....
....|..|A-1 2F.7 ....|--- .... ....|D#5 3F.A ....
....|..|C-4 AF.F ....|--- .... ....|A-3 3F.F ....
 G#3|..|G#1 2A.F ....|--- .... ....|--- .... ....
....|..|C-4 AF.F ....|--- .... ....|D#4 3F.F ....
 G#3|..|G#1 2A.F ....|--- .... ....|--- .... ....
....|..|C-4 AF.F ....|--- .... ....|D#5 3F.F ....
 G#3|..|G#1 2A.F ....|--- .... ....|C#5 3F.7 ....
....|..|C-4 AF.F ....|--- .... ....|A-3 3F.F ....
 G#3|..|G#1 2A.F ....|--- .... ....|G#1 3F.F ....
....|..|C-4 AF.F ....|--- .... ....|D#4 3F.F ....
....|..|G#1 2F.A ....|--- .... ....|--- .... ....
....|..|B-8 JF.F ....|--- .... ....|F#4 3F1F ....
 E-4|..|E-2 2A.F ....|--- .... ....|D#5 3F.7 ....
....|..|C-4 AF.F ....|--- .... ....|D#4 3F.F ....
....|..|G#1 2F.7 ....|--- .... ....|--- .... ....
....|..|C-4 AF.F ....|--- .... ....|G#3 3F5F ....
 C#4|..|C#2 2A.F ....|--- .... ....|--- .... ....
....|..|C-4 LF.F ....|--- .... ....|G#3 3F.F ....
....|..|G#1 2F.A ....|--- .... ....|--- .... ....
....|..|C-4 AF.F ....|--- .... ....|G#3 3F6F ....
 C#4|..|C#2 2A.F ....|--- .... ....|G#1 3F.A ....
....|..|C-4 RF.F ....|--- .... ....|G#3 3F5F ....
 C#4|..|C#2 2A.F ....|--- .... ....|--- .... ....
....|..|C-4 AF.F ....|--- .... ....|G#3 3F.F ....
 C#4|..|C#2 2A.F ....|--- .... ....|--- .... ....
....|..|C-4 LF.F ....|--- .... ....|G#3 3F5F ....
....|..|G#1 2F.7 ....|--- .... ....|--- .... ....
....|..|B-8 JF.F ....|--- .... ....|G#3 3F3F ....
 C#4|..|C#2 2A.F ....|--- .... ....|--- .... ....
....|..|C-4 AF.F ....|--- .... ....|G#3 3F5F ....
 C#4|..|C#2 2A.F ....|--- .... ....|G#3 3F.F ....
....|..|B-8 JF.F ....|--- .... ....|G#3 3F.F ....
....|..|G#1 2F.7 ....|--- .... ....|G#1 3F.7 ....
....|..|C-4 AF.F ....|--- .... ....|G#3 3F.F ....
 C#4|..|C#2 2A.F ....|--- .... ....|--- .... ....
....|..|C-4 AF.F ....|--- .... ....|G#3 3F5F ....
 C#4|..|C#2 2A.F ....|--- .... ....|G#3 3F.F ....
....|..|C-4 AF.F ....|--- .... ....|G#3 3F6F ....
 C#4|..|C#2 2A.F ....|--- .... ....|--- .... ....
....|..|C-4 AF.F ....|--- .... ....|G#3 3F.F ....
 C#4|..|C#2 2A.F ....|--- .... ....|--- .... ....
....|..|C-4 AF.F ....|--- .... ....|G#3 3F7F ....
....|..|C#2 2F.A ....|--- .... ....|G#3 3F.A ....
....|..|B-8 JF.F ....|--- .... ....|F#3 3F8F ....
 B-3|..|B-1 2A.F ....|--- .... ....|--- .... ....
....|..|C-4 AF.F ....|--- .... ....|F#3 3F.F ....
....|..|C#2 2F.7 ....|--- .... ....|--- .... ....
....|..|C-4 AF.F ....|E-5 3FEF ....|G#3 3F.F ....
 E-4|..|E-2 2A.F ....|--- .... ....|G#3 3F.A ....
....|..|C-4 LF.F ....|--- .... ....|G#3 3F7F ....
....|..|C#2 2F.A ....|--- .... ....|--- .... ....
....|..|C-4 AF.F ....|R-- .... ....|G#3 3F.F ....
 E-4|..|E-2 2A.F ....|--- .... ....|G#3 3F.F ....
....|..|C-4 RF.F ....|--- .... ....|G#3 3F57 ....
 E-4|..|E-2 2A.F ....|--- .... ....|G#3 3F.7 ....
....|..|C-4 AF.F ....|E-5 3FEF ....|G#3 3F7F ....
 E-4|..|E-2 2A.F ....|--- .... ....|--- .... ....
....|..|C-4 LF.F ....|--- .... ....|G#3 3F.F ....
....|..|C#2 2F.7 ....|--- .... ....|G#3 3F.F ....
....|..|B-8 JF.F ....|D#5 3FEF ....|G#3 3F7F ....
 E-4|..|E-2 2A.F ....|--- .... ....|G#3 3F.F ....
....|..|C-4 AF.F ....|--- .... ....|G#3 3F67 ....
 E-4|..|E-2 2A.F ....|--- .... ....|--- .... ....
....|..|B-8 JF.F ....|E-5 3FEF ....|G#3 3F.F ....
....|..|C#2 2F.7 ....|--- .... ....|G#3 3F.A ....
....|..|C-4 AF.F ....|--- .... ....|G#3 3F7F ....
 E-4|..|E-2 2A.F ....|--- .... ....|--- .... ....
....|..|C-4 AF.F ....|C#5 3FEF ....|G#3 3F.F ....
 E-4|..|E-2 2A.F ....|--- .... ....|--- .... ....
....|..|C-4 AF.F ....|--- .... ....|G#3 3F.F ....
 E-4|..|E-2 2A.F ....|--- .... ....|G#3 3F.A ....
....|..|C-4 AF.F ....|E-5 3FE7 ....|G#3 3F.F ....
 E-4|..|E-2 2A.F ....|--- .... ....|G#3 3F.A ....
....|..|C-4 AF.F ....|--- .... ....|G#3 3F5F ....
....|..|E-2 2F.A ....|--- .... ....|--- .... ....
....|..|B-8 JF.F ....|E-5 3FEA ....|G#3 3F3F ....
 E-4|..|E-2 2A.F ....|--- .... ....|G#3 3F.7 ....
....|..|C-4 AF.F ....|--- .... ....|G#3 3F5F ....
....|..|E-2 2F.7 ....|--- .... ....|--- .... ....
....|..|C-4 AF.F ....|E-5 3FE7 ....|A-2 3F2F ....
 A-3|..|A-1 2A.F ....|--- .... ....|A-2 3F2F ....
....|..|C-4 LF.F ....|--- .... ....|A-2 3F2F ....
....|..|E-2 2F.A ....|--- .... ....|G#3 3F.7 ....
....|..|C-4 AF.F ....|D#5 3FE7 ....|E-4 3F1F ....
 A-3|..|A-1 2A.F ....|--- .... ....|A-1 3F.F ....
....|..|C-4 RF.F ....|--- .... ....|G#3 3F5A ....
 A-3|..|A-1 2A.F ....|--- .... ....|--- .... ....
....|..|C-4 AF.F ....|E-5 3FE7 ....|D#4 3F.F ....
 A-3|..|A-1 2A.F ....|--- .... ....|A-1 3F.F ....
....|..|C-4 LF.F ....|--- .... ....|C#5 3F.F ....
....|..|E-2 2F.7 ....|--- .... ....|A-1 3F.F ....
....|..|B-8 JF.F ....|C#5 3FE7 ....|F#4 3F.F ....
 A-3|..|A-1 2A.F ....|--- .... ....|A-1 3F.F ....
....|..|C-4 AF.F ....|--- .... ....|G#3 3F.7 ....
 A-3|..|A-1 2A.F ....|--- .... ....|--- .... ....
....|..|B-8 JF.F ....|R-- .... ....|A-2 3F2F ....
....|..|E-2 2F.7 ....|--- .... ....|C#5 3F.F ....
....|..|C-4 AF.F ....|--- .... ....|A-2 3F2F ....
 A-3|..|A-1 2A.F ....|--- .... ....|A-1 3F.F ....
....|..|C-4 AF.F ....|--- .... ....|E-4 3F.F ....
 A-3|..|A-1 2A.F ....|--- .... ....|A-1 3F.A ....
....|..|C-4 AF.F ....|--- .... ....|E-4 3F1F ....
 A-3|..|A-1 2A.F ....|--- .... ....|A-1 3F.A ....
....|..|C-4 AF.F ....|--- .... ....|D#4 3F.F ....
 A-3|..|A-1 2A.F ....|--- .... ....|A-2 3F27 ....
....|..|C-4 AF.F ....|--- .... ....|A-1 3F.F ....
....|..|A-1 2F.A ....|--- .... ....|--- .... ....
....|..|B-8 JF.F ....|--- .... ....|F#4 3F5F ....
 A-3|..|A-1 2A.F ....|--- .... ....|C#5 3F.F ....
....|..|C-4 AF.F ....|--- .... ....|D#4 3F3F ....
....|..|A-1 2F.7 ....|--- .... ....|C#5 3F.F ....

[Pattern16]
....|..|C-4 AF.F ....|E-5 3FEF ....|G#2 3F2F ....
 G#3|..|G#1 2A.F ....|--- .... ....|C#5 3F.F ....
....|..|C-4 LF.F ....|--- .... ....|G#2 3F2F ....
....|..|A-1 2F.A ....|--- .... ....|G#1 3F.F ....
....|..|C-4 AF.F ....|R-- .... ....|E-4 3F4F ....
 G#3|..|G#1 2A.F ....|--- .... ....|D#5 3F.F ....
....|..|C-4 RF.F ....|--- .... ....|E-4 3F.F ....
 G#3|..|G#1 2A.F ....|--- .... ....|G#1 3F.F ....
....|..|C-4 AF.F ....|E-5 3FEF ....|D#4 3F.F ....
 G#3|..|G#1 2A.F ....|--- .... ....|G#1 3F.F ....
....|..|C-4 LF.F ....|--- .... ....|D#5 3F.F ....
....|..|A-1 2F.7 ....|--- .... ....|A-1 3F.7 ....
....|..|B-8 JF.F ....|D#5 3FEF ....|F#4 3F.F ....
 G#3|..|G#1 2A.F ....|--- .... ....|G#1 3F.F ....
....|..|C-4 AF.F ....|--- .... ....|G#2 3F2F ....
 G#3|..|G#1 2A.F ....|--- .... ....|G#1 3F.F ....
....|..|B-8 JF.F ....|E-5 3FEF ....|G#2 3F2F ....
....|..|A-1 2F.7 ....|--- .... ....|D#5 3F.F ....
....|..|C-4 AF.F ....|--- .... ....|G#2 3F2F ....
 G#3|..|G#1 2A.F ....|--- .... ....|G#1 3F.F ....
....|..|C-4 AF.F ....|C#5 3FEF ....|E-4 3F.F ....
 G#3|..|G#1 2A.F ....|--- .... ....|G#1 3F.F ....
....|..|C-4 AF.F ....|--- .... ....|E-4 3F4F ....
 G#3|..|G#1 2A.F ....|--- .... ....|D#5 3F.F ....
....|..|C-4 AF.F ....|E-5 3FEF ....|D#4 3F.F ....
 G#3|..|G#1 2A.F ....|--- .... ....|G#1 3F.F ....
....|..|C-4 AF.F ....|--- .... ....|G#2 3F27 ....
....|..|G#1 2F.A ....|--- .... ....|G#1 3F.7 ....
....|..|B-8 JF.F ....|D#5 3FEF ....|F#4 3F1F ....
 E-4|..|E-2 2A.F ....|--- .... ....|D#5 3F.F ....
....|..|C-4 AF.F ....|--- .... ....|G#1 3F.F ....
....|..|G#1 2F.7 ....|--- .... ....|G#1 3F.7 ....
....|..|C-4 AF.F ....|E-5 3FEF ....|G#3 3F5F ....
 C#4|..|C#2 2A.F ....|--- .... ....|D#4 3F.F ....
....|..|C-4 LF.F ....|--- .... ....|G#3 3F.F ....
....|..|G#1 2F.A ....|--- .... ....|D#5 3F.A ....
....|..|C-4 AF.F ....|C#5 3FEF ....|G#3 3F6F ....
 C#4|..|C#2 2A.F ....|--- .... ....|G#1 3F.7 ....
....|..|C-4 RF.F ....|--- .... ....|G#3 3F5F ....
 C#4|..|C#2 2A.F ....|--- .... ....|G#1 3F.7 ....
....|..|C-4 AF.F ....|E-5 3FE7 ....|G#3 3F.F ....
 C#4|..|C#2 2A.F ....|--- .... ....|D#5 3F.7 ....
....|..|C-4 LF.F ....|--- .... ....|G#3 3F5F ....
....|..|G#1 2F.7 ....|--- .... ....|D#4 3F.F ....
....|..|B-8 JF.F ....|C#5 3FE7 ....|F#3 3F2F ....
 C#4|..|C#2 2A.F ....|--- .... ....|G#1 3F.7 ....
....|..|C-4 AF.F ....|--- .... ....|D#4 3F.F ....
 C#4|..|C#2 2A.F ....|--- .... ....|C#2 3F.F ....
....|..|B-8 JF.F ....|E-5 3FE7 ....|G#3 3F.F ....
....|..|G#1 2F.7 ....|--- .... ....|E-5 3F.F ....
....|..|C-4 AF.F ....|--- .... ....|G#3 3F.F ....
 C#4|..|C#2 2A.F ....|--- .... ....|--- .... ....
....|..|C-4 AF.F ....|D#5 3FE7 ....|G#3 3F5F ....
 C#4|..|C#2 2A.F ....|--- .... ....|G#3 3F.F ....
....|..|C-4 AF.F ....|--- .... ....|G#3 3F6F ....
 C#4|..|C#2 2A.F ....|--- .... ....|D#4 3F.A ....
....|..|C-4 AF.F ....|E-5 3FE7 ....|G#3 3F.F ....
 C#4|..|C#2 2A.F ....|--- .... ....|D#4 3F.7 ....
....|..|C-4 AF.F ....|--- .... ....|G#3 3F7F ....
....|..|C#2 2F.A ....|--- .... ....|C#2 3F.A ....
....|..|B-8 JF.F ....|C#5 3FE7 ....|F#3 3F8F ....
 B-3|..|B-1 2A.F ....|--- .... ....|E-5 3F.A ....
....|..|C-4 AF.F ....|--- .... ....|F#3 3F.F ....
....|..|C#2 2F.7 ....|--- .... ....|--- .... ....
....|..|C-4 AF.F ....|E-5 3FEF ....|G#3 3F.F ....
 E-4|..|E-2 2A.F ....|--- .... ....|G#3 3F.A ....
....|..|C-4 LF.F ....|--- .... ....|G#3 3F57 ....
....|..|C#2 2F.A ....|--- .... ....|D#4 3F.7 ....
....|..|C-4 AF.F ....|R-- .... ....|G#3 3F7F ....
 E-4|..|E-2 2A.F ....|--- .... ....|G#3 3F.F ....
....|..|C-4 RF.F ....|--- .... ....|D#4 3F.7 ....
 E-4|..|E-2 2A.F ....|--- .... ....|C#2 3F.7 ....
....|..|C-4 AF.F ....|E-5 3FEF ....|G#3 3F5F ....
 E-4|..|E-2 2A.F ....|--- .... ....|E-5 3F.7 ....
....|..|C-4 LF.F ....|--- .... ....|G#3 3F.F ....
....|..|C#2 2F.7 ....|--- .... ....|G#3 3F.F ....
....|..|B-8 JF.F ....|D#5 3FEF ....|G#3 3F3F ....
 E-4|..|E-2 2A.F ....|--- .... ....|F#4 3F.F ....
....|..|C-4 AF.F ....|--- .... ....|E-2 3F.F ....
 E-4|..|E-2 2A.F ....|--- .... ....|--- .... ....
....|..|B-8 JF.F ....|E-5 3FEF ....|E-3 3F9F ....
....|..|C#2 2F.7 ....|--- .... ....|G#5 3F.F ....
....|..|C-4 AF.F ....|--- .... ....|E-3 3F9F ....
 E-4|..|E-2 2A.F ....|--- .... ....|--- .... ....
....|..|C-4 AF.F ....|C#5 3FEF ....|E-3 3FAF ....
 E-4|..|E-2 2A.F ....|--- .... ....|E-2 3F.F ....
....|..|C-4 AF.F ....|--- .... ....|E-3 3F2F ....
 E-4|..|E-2 2A.F ....|--- .... ....|E-3 3F2F ....
....|..|C-4 AF.F ....|E-5 3FE7 ....|E-3 3FBF ....
 E-4|..|E-2 2A.F ....|--- .... ....|E-2 3F.F ....
....|..|C-4 AF.F ....|--- .... ....|E-3 3FBF ....
....|..|E-2 2F.A ....|--- .... ....|D#4 3F.F ....
....|..|B-8 JF.F ....|E-5 3FEA ....|F#3 3F2F ....
 E-4|..|E-2 2A.F ....|--- .... ....|F#3 3F.F ....
....|..|C-4 AF.F ....|--- .... ....|D#3 3F2F ....
....|..|E-2 2F.7 ....|--- .... ....|--- .... ....
....|..|C-4 AF.F ....|E-5 3FE7 ....|C#4 3F.F ....
 E-4|..|E-4 2C.F ....|--- .... ....|C#4 3F.F ....
....|..|C-4 LF.F ....|--- .... ....|F#5 3F.F ....
 A-3|..|A-1 2A.F ....|--- .... ....|G#3 3F.7 ....
....|..|C-4 AF.F ....|D#5 3FE7 ....|E-4 3F.F ....
 A-3|..|A-1 2A.F ....|--- .... ....|A-1 3F.F ....
....|..|C-4 RF.F ....|--- .... ....|G#5 3F.F ....
 A-3|..|A-1 2A.F ....|--- .... ....|A-1 3F.F ....
....|..|C-4 AF.F ....|E-5 3FE7 ....|D#4 3F.F ....
 A-3|..|A-1 2A.F ....|--- .... ....|A-1 3F.F ....
....|..|C-4 LF.F ....|--- .... ....|E-3 3F97 ....
....|..|E-2 2F.7 ....|--- .... ....|--- .... ....
....|..|B-8 JF.F ....|C#5 3FE7 ....|F#4 3F.F ....
 A-3|..|A-1 2A.F ....|--- .... ....|A-1 3F.F ....
....|..|C-4 AF.F ....|--- .... ....|G#5 3F.F ....
 A-3|..|A-1 2A.F ....|--- .... ....|A-1 3F.F ....
....|..|B-8 JF.F ....|R-- .... ....|C#4 3F.F ....
....|..|E-2 2F.7 ....|--- .... ....|E-2 3F.7 ....
....|..|C-4 AF.F ....|--- .... ....|A-1 3F.F ....
 A-3|..|A-1 2A.F ....|--- .... ....|D#4 3F.7 ....
....|..|C-4 AF.F ....|--- .... ....|E-4 3F.F ....
 A-3|..|A-1 2A.F ....|--- .... ....|E-4 3F.F ....
....|..|C-4 AF.F ....|--- .... ....|A-1 3F.F ....
 A-3|..|A-1 2A.F ....|--- .... ....|--- .... ....
....|..|C-4 AF.F ....|--- .... ....|D#4 3F.F ....
 A-3|..|A-1 2A.F ....|--- .... ....|C#4 3F.7 ....
....|..|C-4 AF.F ....|--- .... ....|A-1 3F.F ....
....|..|A-1 2F.7 ....|--- .... ....|A-1 3F.A ....
....|..|B-8 JF.F ....|--- .... ....|E-4 3F.7 ....
 A-3|..|A-1 2A.F ....|--- .... ....|A-1 3F.7 ....
....|..|C-4 AF.F ....|--- .... ....|D#4 3F.F ....
....|..|A-1 2F.7 ....|--- .... ....|A-1 3F.F ....

[Pattern17]
....|..|C-4 AF.F ....|E-5 3FEF ....|D#4 3F.F ....
 G#3|..|G#1 2A.F ....|--- .... ....|A-1 3F.7 ....
....|..|C-4 LF.F ....|--- .... ....|G#1 3F.F ....
....|..|A-1 2F.A ....|--- .... ....|--- .... ....
....|..|C-4 AF.F ....|R-- .... ....|E-4 3F.F ....
 G#3|..|G#1 2A.F ....|--- .... ....|G#1 3F.F ....
....|..|C-4 RF.F ....|--- .... ....|G#5 3F.7 ....
 G#3|..|G#1 2A.F ....|--- .... ....|A-1 3F.7 ....
....|..|C-4 AF.F ....|E-5 3FEF ....|D#4 3F.F ....
 G#3|..|G#1 2A.F ....|--- .... ....|--- .... ....
....|..|C-4 LF.F ....|--- .... ....|G#1 3F.F ....
....|..|A-1 2F.7 ....|R-- .... ....|A-1 3F.A ....
....|..|B-8 JF.F ....|D#5 3FEF ....|F#4 3F.F ....
 G#3|..|G#1 2A.F ....|--- .... ....|E-4 3F.7 ....
....|..|C-4 AF.F ....|--- .... ....|D#4 3F.F ....
 G#3|..|G#1 2A.F ....|--- .... ....|--- .... ....
....|..|B-8 JF.F ....|E-5 3FEF ....|G#1 3F.F ....
....|..|A-1 2F.7 ....|--- .... ....|G#1 3F.A ....
....|..|C-4 AF.F ....|--- .... ....|A-3 3F.F ....
 G#3|..|G#1 2A.F ....|--- .... ....|--- .... ....
....|..|C-4 AF.F ....|F#5 3FEF ....|D#4 3F.F ....
 G#3|..|G#1 2A.F ....|--- .... ....|--- .... ....
....|..|C-4 AF.F ....|--- .... ....|G#1 3F.F ....
 G#3|..|G#1 2A.F ....|R-- .... ....|A-1 3F.7 ....
....|..|C-4 AF.F ....|E-5 3FE7 ....|A-3 3F.F ....
 G#3|..|G#1 2A.F ....|--- .... ....|G#1 3F.F ....
....|..|C-4 AF.F ....|--- .... ....|D#4 3F.F ....
....|..|G#1 2F.A ....|--- .... ....|--- .... ....
....|..|B-8 JF.F ....|E-5 3FEA ....|F#4 3F.F ....
 E-4|..|E-2 2A.F ....|--- .... ....|G#1 3F.7 ....
....|..|C-4 AF.F ....|--- .... ....|D#4 3F.F ....
....|..|G#1 2F.7 ....|--- .... ....|--- .... ....
....|..|C-4 AF.F ....|E-5 3FE7 ....|G#3 3F5F ....
 C#4|..|C#2 2A.F ....|--- .... ....|--- .... ....
....|..|C-4 LF.F ....|--- .... ....|G#3 3F.F ....
....|..|G#1 2F.A ....|R-- .... ....|--- .... ....
....|..|C-4 AF.F ....|D#5 3FE7 ....|G#3 3F7F ....
 C#4|..|C#2 2A.F ....|--- .... ....|G#1 3F.A ....
....|..|C-4 RF.F ....|--- .... ....|G#3 3F5F ....
 C#4|..|C#2 2A.F ....|--- .... ....|--- .... ....
....|..|C-4 AF.F ....|E-5 UFFF ....|G#3 3F.F ....
 C#4|..|C#2 2A.F ....|--- .... ....|--- .... ....
....|..|C-4 LF.F ....|--- .... ....|G#3 3F5F ....
....|..|G#1 2F.7 ....|R-- .... ....|--- .... ....
....|..|B-8 JF.F ....|D#5 UFFF ....|G#3 3F3F ....
 C#4|..|C#2 2A.F ....|--- .... ....|--- .... ....
....|..|C-4 AF.F ....|--- .... ....|G#3 3F5F ....
 C#4|..|C#2 2A.F ....|--- .... ....|G#3 3F.F ....
....|..|B-8 JF.F ....|E-5 UFFF ....|A-3 3F.7 ....
....|..|G#1 2F.7 ....|--- .... ....|G#1 3F.7 ....
....|..|C-4 AF.F ....|--- .... ....|D#4 3F.7 ....
 C#4|..|C#2 2A.F ....|--- .... ....|--- .... ....
....|..|C-4 AF.F ....|C#5 UFFF ....|G#3 3F5F ....
 C#4|..|C#2 2A.F ....|--- .... ....|G#3 3F.F ....
....|..|C-4 AF.F ....|--- .... ....|G#3 3F7F ....
 C#4|..|C#2 2A.F ....|R-- .... ....|--- .... ....
....|..|C-4 AF.F ....|D#5 UFFA ....|G#3 3F.F ....
 C#4|..|C#2 2A.F ....|--- .... ....|--- .... ....
....|..|C-4 AF.F ....|--- .... ....|G#3 3F7F ....
....|..|C#2 2F.A ....|--- .... ....|G#3 3F.A ....
....|..|B-8 JF.F ....|E-5 UFFA ....|F#3 3F2F ....
 B-3|..|B-1 2A.F ....|--- .... ....|--- .... ....
....|..|C-4 AF.F ....|--- .... ....|F#3 3F.F ....
....|..|C#2 2F.7 ....|--- .... ....|--- .... ....
....|..|C-4 AF.F ....|E-5 UFF7 ....|G#3 3F.F ....
 E-4|..|E-2 2A.F ....|--- .... ....|G#3 3F.A ....
....|..|C-4 LF.F ....|--- .... ....|G#3 3F7F ....
....|..|C#2 2F.A ....|R-- .... ....|--- .... ....
....|..|C-4 AF.F ....|D#5 UFF7 ....|G#3 3F.F ....
 E-4|..|E-2 2A.F ....|--- .... ....|--- .... ....
....|..|C-4 RF.F ....|--- .... ....|G#3 3F57 ....
 E-4|..|E-2 2A.F ....|--- .... ....|G#3 3F.7 ....
....|..|C-4 AF.F ....|E-5 UFF7 ....|G#3 3F7F ....
 E-4|..|E-2 2A.F ....|--- .... ....|--- .... ....
....|..|C-4 LF.F ....|--- .... ....|G#3 3F.F ....
....|..|C#2 2F.7 ....|--- .... ....|--- .... ....
....|..|B-8 JF.F ....|C#5 UFF7 ....|G#3 3F7F ....
 E-4|..|E-2 2A.F ....|--- .... ....|G#3 3F.F ....
....|..|C-4 AF.F ....|--- .... ....|G#3 3F77 ....
 E-4|..|E-2 2A.F ....|--- .... ....|--- .... ....
....|..|B-8 JF.F ....|E-5 3FEF ....|G#3 3F.7 ....
....|..|C#2 2F.7 ....|--- .... ....|--- .... ....
....|..|C-4 AF.F ....|--- .... ....|G#3 3F7F ....
 E-4|..|E-2 2A.F ....|--- .... ....|--- .... ....
....|..|C-4 AF.F ....|F#5 3FEF ....|G#3 3F.F ....
 E-4|..|E-2 2A.F ....|--- .... ....|--- .... ....
....|..|C-4 AF.F ....|--- .... ....|F#3 3F.7 ....
 E-4|..|E-2 2A.F ....|--- .... ....|--- .... ....
....|..|C-4 AF.F ....|--- .... ....|G#3 3F.7 ....
 E-4|..|E-2 2A.F ....|--- .... ....|G#3 3F.A ....
....|..|C-4 AF.F ....|--- .... ....|G#3 3F5F ....
....|..|E-2 2F.A ....|--- .... ....|--- .... ....
....|..|B-8 JF.F ....|E-5 3FEA ....|G#3 3F3F ....
 E-4|..|E-2 2A.F ....|--- .... ....|--- .... ....
....|..|C-4 AF.F ....|--- .... ....|G#3 3F5F ....
....|..|E-2 2F.7 ....|--- .... ....|--- .... ....
....|..|C-4 AF.F ....|E-5 3FEF ....|A-2 3F2F ....
 E-4|..|E-4 2C.F ....|--- .... ....|--- .... ....
....|..|C-4 LF.F ....|--- .... ....|A-2 3F2F ....
 A-3|..|A-1 2A.F ....|--- .... ....|--- .... ....
....|..|C-4 AF.F ....|F#5 3FEF ....|E-4 3F.F ....
 A-3|..|A-1 2A.F ....|--- .... ....|A-1 3F.F ....
....|..|C-4 RF.F ....|--- .... ....|G#3 3F5A ....
 A-3|..|A-1 2A.F ....|--- .... ....|--- .... ....
....|..|C-4 AF.F ....|E-5 3FE7 ....|D#4 3F.F ....
 A-3|..|A-1 2A.F ....|--- .... ....|A-1 3F.F ....
....|..|C-4 LF.F ....|--- .... ....|G#3 3F77 ....
....|..|E-2 2F.7 ....|--- .... ....|--- .... ....
....|..|B-8 JF.F ....|F#5 3FE7 ....|F#4 3F.F ....
 A-3|..|A-1 2A.F ....|--- .... ....|A-1 3F.F ....
....|..|C-4 AF.F ....|--- .... ....|A-2 3F2A ....
 A-3|..|A-1 2A.F ....|--- .... ....|--- .... ....
....|..|B-8 JF.F ....|F#5 3FEA ....|A-2 3F2F ....
....|..|E-2 2F.7 ....|--- .... ....|A-1 3F.F ....
....|..|C-4 AF.F ....|--- .... ....|A-2 3F2F ....
 A-3|..|A-1 2A.F ....|--- .... ....|A-1 3F.F ....
....|..|C-4 AF.F ....|--- .... ....|E-4 3F.F ....
 A-3|..|A-1 2A.F ....|--- .... ....|A-1 3F.A ....
....|..|C-4 AF.F ....|--- .... ....|E-4 3F.F ....
 A-3|..|A-1 2A.F ....|--- .... ....|--- .... ....
....|..|C-4 AF.F ....|E-5 3FE7 ....|D#4 3F.F ....
 A-3|..|A-1 2A.F ....|--- .... ....|A-1 3F.A ....
....|..|C-4 AF.F ....|--- .... ....|A-1 3F.F ....
....|..|A-1 2F.7 ....|--- .... ....|--- .... ....
....|..|B-8 JF.F ....|F#5 3FE7 ....|F#4 3F.F ....
 A-3|..|A-1 2A.F ....|--- .... ....|A-1 3F.F ....
....|..|C-4 AF.F ....|--- .... ....|D#4 3F.F ....
....|..|A-1 2F.7 ....|R-- .... ....|A-1 3F.F ....

[Pattern18]
....|..|C-4 AF.F ....|E-5 3FEF ....|G#2 3F2F ....
 G#3|..|G#1 2A.F ....|--- .... ....|G#1 3F.F ....
....|..|C-4 LF.F ....|--- .... ....|G#2 3F2F ....
....|..|A-1 2F.A ....|R-- .... ....|G#1 3F.F ....
....|..|C-4 AF.F ....|R-- .... ....|E-4 3F.F ....
 G#3|..|G#1 2A.F ....|--- .... ....|G#1 3F.F ....
....|..|C-4 RF.F ....|--- .... ....|E-4 3F.F ....
 G#3|..|G#1 2A.F ....|--- .... ....|G#1 3F.F ....
....|..|C-4 AF.F ....|E-5 3FEF ....|D#4 3F.F ....
 G#3|..|G#1 2A.F ....|--- .... ....|G#1 3F.F ....
....|..|C-4 LF.F ....|--- .... ....|A-2 3F27 ....
....|..|A-1 2F.7 ....|R-- .... ....|A-1 3F.7 ....
....|..|B-8 JF.F ....|D#5 3FEF ....|F#4 3F.F ....
 G#3|..|G#1 2A.F ....|--- .... ....|G#1 3F.F ....
....|..|C-4 AF.F ....|--- .... ....|G#2 3F2F ....
 G#3|..|G#1 2A.F ....|R-- .... ....|G#1 3F.F ....
....|..|B-8 JF.F ....|E-5 3FEF ....|G#2 3F2F ....
....|..|A-1 2F.7 ....|--- .... ....|G#1 3F.F ....
....|..|C-4 AF.F ....|--- .... ....|G#2 3F2F ....
 G#3|..|G#1 2A.F ....|--- .... ....|G#1 3F.F ....
....|..|C-4 AF.F ....|C#5 3FEF ....|E-4 3F.F ....
 G#3|..|G#1 2A.F ....|--- .... ....|G#1 3F.F ....
....|..|C-4 AF.F ....|--- .... ....|E-4 3F.F ....
 G#3|..|G#1 2A.F ....|R-- .... ....|G#1 3F.F ....
....|..|C-4 AF.F ....|E-5 3FE7 ....|D#4 3F.F ....
 G#3|..|G#1 2A.F ....|--- .... ....|G#1 3F.F ....
....|..|C-4 AF.F ....|--- .... ....|G#2 3F27 ....
....|..|G#1 2F.A ....|R-- .... ....|G#1 3F.7 ....
....|..|B-8 JF.F ....|E-5 3FEA ....|F#4 3F.F ....
 E-4|..|E-2 2A.F ....|--- .... ....|G#1 3F.F ....
....|..|C-4 AF.F ....|--- .... ....|E-4 3F.7 ....
....|..|G#1 2F.7 ....|--- .... ....|G#1 3F.7 ....
....|..|C-4 AF.F ....|E-5 3FE7 ....|G#3 3F5F ....
 C#4|..|C#2 2A.F ....|--- .... ....|D#4 3F.F ....
....|..|C-4 LF.F ....|--- .... ....|G#3 3F.F ....
....|..|G#1 2F.A ....|R-- .... ....|G#1 3F.A ....
....|..|C-4 AF.F ....|D#5 3FE7 ....|G#3 3F7F ....
 C#4|..|C#2 2A.F ....|--- .... ....|G#1 3F.7 ....
....|..|C-4 RF.F ....|--- .... ....|G#3 3F5F ....
 C#4|..|C#2 2A.F ....|--- .... ....|G#1 3F.7 ....
....|..|C-4 AF.F ....|E-5 3FE7 ....|G#3 3F.F ....
 C#4|..|C#2 2A.F ....|--- .... ....|G#1 3F.7 ....
....|..|C-4 LF.F ....|--- .... ....|G#3 3F5F ....
....|..|G#1 2F.7 ....|--- .... ....|D#4 3F.F ....
....|..|B-8 JF.F ....|C#5 3FE7 ....|F#3 3F2F ....
 C#4|..|C#2 2A.F ....|--- .... ....|G#1 3F.7 ....
....|..|C-4 AF.F ....|--- .... ....|D#4 3F.F ....
 C#4|..|C#2 2A.F ....|--- .... ....|C#2 3F.F ....
....|..|B-8 JF.F ....|R-- .... ....|G#3 3F.F ....
....|..|G#1 2F.7 ....|--- .... ....|C#2 3F.F ....
....|..|C-4 AF.F ....|--- .... ....|G#3 3F.F ....
 C#4|..|C#2 2A.F ....|--- .... ....|--- .... ....
....|..|C-4 AF.F ....|--- .... ....|G#3 3F5F ....
 C#4|..|C#2 2A.F ....|--- .... ....|G#3 3F.F ....
....|..|C-4 AF.F ....|--- .... ....|G#3 3F7F ....
 C#4|..|C#2 2A.F ....|--- .... ....|D#4 3F.A ....
....|..|C-4 AF.F ....|--- .... ....|G#3 3F.F ....
 C#4|..|C#2 2A.F ....|--- .... ....|D#4 3F.7 ....
....|..|C-4 AF.F ....|--- .... ....|G#3 3F7F ....
....|..|C#2 2F.A ....|--- .... ....|C#2 3F.A ....
....|..|B-8 JF.F ....|--- .... ....|F#3 3F2F ....
 B-3|..|B-1 2A.F ....|--- .... ....|C#2 3F.A ....
....|..|C-4 AF.F ....|--- .... ....|F#3 3F.F ....
....|..|C#2 2F.7 ....|--- .... ....|--- .... ....
....|..|C-4 AF.F ....|--- .... ....|G#2 3F.F ....
 G#4|..|G#2 2A.F ....|--- .... ....|G#3 3F.A ....
....|..|C-4 LF.F ....|--- .... ....|G#2 3F.F ....
 G#4|..|G#2 2A.F ....|--- .... ....|D#4 3F.7 ....
....|..|B-8 JF.F ....|--- .... ....|E-3 3F.F ....
 E-4|..|E-3 2C.F ....|--- .... ....|R-- .... ....
....|..|C-4 LF.F ....|--- .... ....|G#2 3F.F ....
 G#4|..|G#2 2A.F ....|--- .... ....|C#2 3F.7 ....
....|..|C-4 AF.F ....|--- .... ....|D#3 3F.F ....
 D#4|..|D#3 2C.F ....|--- .... ....|C#2 3F.7 ....
....|..|C-4 LF.F ....|--- .... ....|G#2 3F.F ....
 G#4|..|G#2 2A.F ....|--- .... ....|R-- .... ....
....|..|B-8 JF.F ....|--- .... ....|F#3 3F.F ....
 F#4|..|F#3 2C.F ....|--- .... ....|G#3 3F.7 ....
....|..|C-4 AF.F ....|--- .... ....|G#2 3F.F ....
 G#4|..|G#2 2A.F ....|--- .... ....|R-- .... ....
....|..|B-8 JF.F ....|--- .... ....|G#2 3F.F ....
 G#4|..|G#2 2A.F ....|--- .... ....|R-- .... ....
....|..|C-4 LF.F ....|--- .... ....|G#2 3F.F ....
 G#4|..|G#2 2A.F ....|--- .... ....|R-- .... ....
....|..|C-4 AF.F ....|--- .... ....|E-3 3F.F ....
 E-4|..|E-3 2C.F ....|--- .... ....|R-- .... ....
....|..|C-4 LF.F ....|--- .... ....|E-3 3F.F ....
 E-4|..|E-3 2C.F ....|--- .... ....|R-- .... ....
....|..|C-4 AF.F ....|--- .... ....|D#3 3F.F ....
 D#4|..|D#3 2C.F ....|--- .... ....|R-- .... ....
....|..|C-4 AF.F ....|--- .... ....|D#3 3F.F ....
 D#4|..|D#3 2C.F ....|--- .... ....|R-- .... ....
....|..|B-8 JF.F ....|--- .... ....|F#3 3F.F ....
 F#4|..|F#3 2C.F ....|--- .... ....|R-- .... ....
....|..|C-4 LF.F ....|--- .... ....|D#3 3F.F ....
 D#4|..|D#3 2C.F ....|--- .... ....|R-- .... ....
....|..|C-4 AF.F ....|A-4 3FEF ....|A-1 3F.F ....
 E-4|..|E-4 2C.F ....|--- .... ....|R-- .... ....
....|..|C-4 LF.F ....|--- .... ....|G#2 3F.7 ....
 A-3|..|A-1 2A.F ....|--- .... ....|R-- .... ....
....|..|C-4 AF.F ....|--- .... ....|F#3 3F.7 ....
 A-3|..|A-1 2A.F ....|--- .... ....|R-- .... ....
....|..|C-4 RF.F ....|R-- .... ....|G#2 3F.7 ....
 A-3|..|A-1 2A.F ....|--- .... ....|R-- .... ....
....|..|C-4 AF.F ....|A-4 3FEF ....|G#2 3F.7 ....
 A-3|..|A-1 2A.F ....|--- .... ....|R-- .... ....
....|..|C-4 LF.F ....|--- .... ....|G#2 3F.7 ....
....|..|G#2 2F.7 ....|--- .... ....|R-- .... ....
....|..|B-8 JF.F ....|G#4 3FEF ....|E-3 3F.7 ....
 A-3|..|A-1 2A.F ....|--- .... ....|R-- .... ....
....|..|C-4 AF.F ....|--- .... ....|E-3 3F.7 ....
 A-3|..|A-1 2A.F ....|--- .... ....|R-- .... ....
....|..|B-8 JF.F ....|A-4 3FEF ....|D#3 3F.7 ....
....|..|D#3 2F.7 ....|--- .... ....|R-- .... ....
....|..|C-4 AF.F ....|R-- .... ....|D#3 3F.7 ....
 A-3|..|A-1 2A.F ....|--- .... ....|R-- .... ....
....|..|C-4 AF.F ....|A-4 3FEA ....|F#3 3F.7 ....
 A-3|..|A-1 2A.F ....|--- .... ....|R-- .... ....
....|..|C-4 AF.F ....|--- .... ....|D#3 3F.7 ....
 A-3|..|A-1 2A.F ....|R-- .... ....|R-- .... ....
....|..|C-4 AF.F ....|A-4 3FE7 ....|A-1 3F.7 ....
 A-3|..|A-1 2A.F ....|--- .... ....|--- .... ....
....|..|C-4 AF.F ....|--- .... ....|--- .... ....
....|..|A-1 2F.7 ....|--- .... ....|--- .... ....
....|..|B-8 JF.F ....|A-4 3FEA ....|--- .... ....
 A-3|..|A-1 2A.F ....|--- .... ....|--- .... ....
....|..|C-4 AF.F ....|R-- .... ....|--- .... ....
....|..|A-1 2F.7 ....|--- .... ....|--- .... ....

[Pattern19]
....|..|C-4 AF.F ....|A-4 3FEF ....|G#1 3F.F ....
 G#4|..|G#4 2C.F ....|R-- .... ....|--- .... ....
....|..|C-4 LF.F ....|--- .... ....|--- .... ....
 G#3|..|G#1 2A.F ....|R-- .... ....|--- .... ....
....|..|C-4 AF.F ....|A-4 3FEF ....|--- .... ....
 G#3|..|G#1 2A.F ....|--- .... ....|--- .... ....
....|..|C-4 RF.F ....|--- .... ....|--- .... ....
 G#3|..|G#1 2A.F ....|R-- .... ....|--- .... ....
....|..|C-4 AF.F ....|G#4 3FEF ....|--- .... ....
 G#3|..|G#1 2A.F ....|--- .... ....|--- .... ....
....|..|C-4 LF.F ....|R-- .... ....|--- .... ....
....|..|A-1 2F.7 ....|--- .... ....|--- .... ....
....|..|B-8 JF.F ....|A-4 3FEF ....|G#1 3F.A ....
 G#3|..|G#1 2A.F ....|R-- .... ....|--- .... ....
....|..|C-4 AF.F ....|--- .... ....|--- .... ....
 G#3|..|G#1 2A.F ....|R-- .... ....|--- .... ....
....|..|B-8 JF.F ....|D#5 3FEF ....|--- .... ....
....|..|A-1 2F.7 ....|--- .... ....|--- .... ....
....|..|C-4 AF.F ....|--- .... ....|--- .... ....
 G#3|..|G#1 2A.F ....|R-- .... ....|--- .... ....
....|..|C-4 AF.F ....|G#4 3FEA ....|--- .... ....
 G#3|..|G#1 2A.F ....|--- .... ....|--- .... ....
....|..|C-4 AF.F ....|R-- .... ....|--- .... ....
 G#3|..|G#1 2A.F ....|R-- .... ....|--- .... ....
....|..|C-4 AF.F ....|A-4 3FE7 ....|G#1 3F.7 ....
 G#3|..|G#1 2A.F ....|R-- .... ....|--- .... ....
....|..|C-4 AF.F ....|--- .... ....|--- .... ....
....|..|G#1 2F.7 ....|R-- .... ....|--- .... ....
....|..|B-8 JF.F ....|A-4 3FE7 ....|--- .... ....
 E-4|..|E-2 2A.F ....|--- .... ....|--- .... ....
....|..|C-4 AF.F ....|--- .... ....|--- .... ....
....|..|G#1 2F.7 ....|R-- .... ....|--- .... ....
....|..|C-4 AF.F ....|G#4 3FEF ....|C#2 3F.F ....
 G#4|..|G#4 2C.F ....|--- .... ....|--- .... ....
....|..|C-4 LF.F ....|R-- .... ....|--- .... ....
 C#4|..|C#2 2A.F ....|R-- .... ....|--- .... ....
....|..|C-4 AF.F ....|A-4 3FE7 ....|--- .... ....
 C#4|..|C#2 2A.F ....|--- .... ....|--- .... ....
....|..|C-4 RF.F ....|R-- .... ....|--- .... ....
 C#4|..|C#2 2A.F ....|R-- .... ....|--- .... ....
....|..|C-4 AF.F ....|G#4 3FEF ....|--- .... ....
 C#4|..|C#2 2A.F ....|--- .... ....|--- .... ....
....|..|C-4 LF.F ....|R-- .... ....|--- .... ....
....|..|G#1 2F.7 ....|--- .... ....|--- .... ....
....|..|B-8 JF.F ....|F#4 3FEF ....|C#2 3F.A ....
 C#4|..|C#2 2A.F ....|--- .... ....|--- .... ....
....|..|C-4 AF.F ....|--- .... ....|--- .... ....
 C#4|..|C#2 2A.F ....|R-- .... ....|--- .... ....
....|..|B-8 JF.F ....|G#4 3FEF ....|--- .... ....
....|..|G#1 2F.7 ....|--- .... ....|--- .... ....
....|..|C-4 AF.F ....|R-- .... ....|--- .... ....
 C#4|..|C#2 2A.F ....|--- .... ....|--- .... ....
....|..|C-4 AF.F ....|G#4 3FEA ....|--- .... ....
 C#4|..|C#2 2A.F ....|--- .... ....|--- .... ....
....|..|C-4 AF.F ....|R-- .... ....|--- .... ....
 C#4|..|C#2 2A.F ....|--- .... ....|--- .... ....
....|..|C-4 AF.F ....|G#4 3FE7 ....|C#2 3F.7 ....
 C#4|..|C#2 2A.F ....|--- .... ....|--- .... ....
....|..|C-4 AF.F ....|--- .... ....|--- .... ....
....|..|C#2 2F.7 ....|R-- .... ....|--- .... ....
....|..|B-8 JF.F ....|G#4 3FEF ....|--- .... ....
 B-3|..|B-1 2A.F ....|--- .... ....|--- .... ....
....|..|C-4 AF.F ....|R-- .... ....|--- .... ....
....|..|C#2 2F.7 ....|--- .... ....|--- .... ....
....|..|C-4 AF.F ....|G#4 3FE7 ....|E-2 3F.F ....
 G#4|..|G#4 2C.F ....|--- .... ....|--- .... ....
....|..|C-4 LF.F ....|R-- .... ....|--- .... ....
 E-4|..|E-2 2A.F ....|--- .... ....|--- .... ....
....|..|C-4 AF.F ....|F#4 3FE7 ....|--- .... ....
 E-4|..|E-2 2A.F ....|--- .... ....|--- .... ....
....|..|C-4 RF.F ....|--- .... ....|--- .... ....
 E-4|..|E-2 2A.F ....|R-- .... ....|--- .... ....
....|..|C-4 AF.F ....|G#4 3FEF ....|--- .... ....
 E-4|..|E-2 2A.F ....|--- .... ....|--- .... ....
....|..|C-4 LF.F ....|--- .... ....|--- .... ....
....|..|C#2 2F.7 ....|R-- .... ....|--- .... ....
....|..|B-8 JF.F ....|F#4 3FEF ....|E-2 3F.A ....
 E-4|..|E-2 2A.F ....|--- .... ....|--- .... ....
....|..|C-4 AF.F ....|R-- .... ....|--- .... ....
 E-4|..|E-2 2A.F ....|--- .... ....|--- .... ....
....|..|B-8 JF.F ....|G#4 3FEF ....|--- .... ....
....|..|C#2 2F.7 ....|--- .... ....|--- .... ....
....|..|C-4 AF.F ....|--- .... ....|--- .... ....
 E-4|..|E-2 2A.F ....|--- .... ....|--- .... ....
....|..|C-4 AF.F ....|E-5 3FEF ....|--- .... ....
 E-4|..|E-2 2A.F ....|--- .... ....|--- .... ....
....|..|C-4 AF.F ....|--- .... ....|--- .... ....
 E-4|..|E-2 2A.F ....|R-- .... ....|--- .... ....
....|..|C-4 AF.F ....|F#4 3FEA ....|E-2 3F.7 ....
 E-4|..|E-2 2A.F ....|R-- .... ....|--- .... ....
....|..|C-4 AF.F ....|R-- .... ....|--- .... ....
....|..|E-2 2F.7 ....|--- .... ....|--- .... ....
....|..|B-8 JF.F ....|G#4 3FEA ....|--- .... ....
 E-4|..|E-2 2A.F ....|--- .... ....|--- .... ....
....|..|C-4 AF.F ....|--- .... ....|--- .... ....
....|..|E-2 2F.7 ....|--- .... ....|--- .... ....
....|..|C-4 AF.F ....|A-4 3FEF ....|A-1 3F.F ....
 E-4|..|E-4 2C.F ....|--- .... ....|--- .... ....
....|..|C-4 LF.F ....|--- .... ....|--- .... ....
 A-3|..|A-1 2A.F ....|R-- .... ....|--- .... ....
....|..|C-4 AF.F ....|F#4 3FE7 ....|--- .... ....
 A-3|..|A-1 2A.F ....|R-- .... ....|--- .... ....
....|..|C-4 RF.F ....|R-- .... ....|--- .... ....
 A-3|..|A-1 2A.F ....|--- .... ....|--- .... ....
....|..|C-4 AF.F ....|A-4 3FEF ....|--- .... ....
 A-3|..|A-1 2A.F ....|--- .... ....|--- .... ....
....|..|C-4 LF.F ....|--- .... ....|--- .... ....
....|..|E-2 2F.7 ....|--- .... ....|--- .... ....
....|..|B-8 JF.F ....|G#4 3FEF ....|A-1 3F.A ....
 A-3|..|A-1 2A.F ....|--- .... ....|--- .... ....
....|..|C-4 AF.F ....|--- .... ....|--- .... ....
 A-3|..|A-1 2A.F ....|--- .... ....|--- .... ....
....|..|B-8 JF.F ....|A-4 3FEF ....|--- .... ....
....|..|E-2 2F.7 ....|R-- .... ....|--- .... ....
....|..|C-4 AF.F ....|R-- .... ....|--- .... ....
 A-3|..|A-1 2A.F ....|--- .... ....|--- .... ....
....|..|C-4 AF.F ....|A-4 3FEA ....|--- .... ....
 A-3|..|A-1 2A.F ....|--- .... ....|--- .... ....
....|..|C-4 AF.F ....|--- .... ....|--- .... ....
 A-3|..|A-1 2A.F ....|R-- .... ....|--- .... ....
....|..|C-4 AF.F ....|A-4 3FE7 ....|A-1 3F.7 ....
 A-3|..|A-1 2A.F ....|--- .... ....|--- .... ....
....|..|C-4 AF.F ....|--- .... ....|--- .... ....
....|..|A-1 2F.7 ....|--- .... ....|--- .... ....
....|..|B-8 JF.F ....|E-4 3FEF ....|--- .... ....
 A-3|..|A-1 2A.F ....|--- .... ....|--- .... ....
....|..|C-4 AF.F ....|R-- .... ....|--- .... ....
....|..|A-1 2F.7 ....|R-- .... ....|--- .... ....

[Pattern20]
....|..|C-4 AF.F ....|A-4 3FEF ....|G#1 3F.F ....
 G#4|..|G#4 2C.F ....|--- .... ....|--- .... ....
....|..|C-4 LF.F ....|--- .... ....|--- .... ....
 G#3|..|G#1 2A.F ....|R-- .... ....|--- .... ....
....|..|C-4 AF.F ....|A-4 3FEF ....|--- .... ....
 G#3|..|G#1 2A.F ....|--- .... ....|--- .... ....
....|..|C-4 RF.F ....|--- .... ....|--- .... ....
 G#3|..|G#1 2A.F ....|R-- .... ....|--- .... ....
....|..|C-4 AF.F ....|G#4 3FEF ....|--- .... ....
 G#3|..|G#1 2A.F ....|--- .... ....|--- .... ....
....|..|C-4 LF.F ....|R-- .... ....|--- .... ....
....|..|A-1 2F.7 ....|R-- .... ....|--- .... ....
....|..|B-8 JF.F ....|A-4 3FEF ....|G#1 3F.A ....
 G#3|..|G#1 2A.F ....|--- .... ....|--- .... ....
....|..|C-4 AF.F ....|--- .... ....|--- .... ....
 G#3|..|G#1 2A.F ....|R-- .... ....|--- .... ....
....|..|B-8 JF.F ....|D#5 3FEF ....|--- .... ....
....|..|A-1 2F.7 ....|--- .... ....|--- .... ....
....|..|C-4 AF.F ....|--- .... ....|--- .... ....
 G#3|..|G#1 2A.F ....|R-- .... ....|--- .... ....
....|..|C-4 AF.F ....|E-4 3FE7 ....|--- .... ....
 G#3|..|G#1 2A.F ....|--- .... ....|--- .... ....
....|..|C-4 AF.F ....|R-- .... ....|--- .... ....
 G#3|..|G#1 2A.F ....|R-- .... ....|--- .... ....
....|..|C-4 AF.F ....|A-4 3FE7 ....|G#1 3F.7 ....
 G#3|..|G#1 2A.F ....|--- .... ....|--- .... ....
....|..|C-4 AF.F ....|--- .... ....|--- .... ....
....|..|G#1 2F.7 ....|R-- .... ....|--- .... ....
....|..|B-8 JF.F ....|A-4 3FE7 ....|--- .... ....
 E-4|..|E-2 2A.F ....|--- .... ....|--- .... ....
....|..|C-4 AF.F ....|--- .... ....|--- .... ....
....|..|G#1 2F.7 ....|R-- .... ....|--- .... ....
....|..|C-4 AF.F ....|G#4 3FEF ....|C#2 3F.F ....
 G#4|..|G#4 2C.F ....|--- .... ....|--- .... ....
....|..|C-4 LF.F ....|R-- .... ....|--- .... ....
 C#4|..|C#2 2A.F ....|R-- .... ....|--- .... ....
....|..|C-4 AF.F ....|A-4 3FE7 ....|--- .... ....
 C#4|..|C#2 2A.F ....|--- .... ....|--- .... ....
....|..|C-4 RF.F ....|R-- .... ....|--- .... ....
 C#4|..|C#2 2A.F ....|R-- .... ....|--- .... ....
....|..|C-4 AF.F ....|G#4 3FEF ....|--- .... ....
 C#4|..|C#2 2A.F ....|--- .... ....|--- .... ....
....|..|C-4 LF.F ....|--- .... ....|--- .... ....
....|..|G#1 2F.7 ....|R-- .... ....|--- .... ....
....|..|B-8 JF.F ....|F#4 3FEF ....|C#2 3F.A ....
 C#4|..|C#2 2A.F ....|--- .... ....|--- .... ....
....|..|C-4 AF.F ....|--- .... ....|--- .... ....
 C#4|..|C#2 2A.F ....|R-- .... ....|--- .... ....
....|..|B-8 JF.F ....|G#4 3FEF ....|--- .... ....
....|..|G#1 2F.7 ....|--- .... ....|--- .... ....
....|..|C-4 AF.F ....|R-- .... ....|--- .... ....
 C#4|..|C#2 2A.F ....|--- .... ....|--- .... ....
....|..|C-4 AF.F ....|G#4 3FEA ....|--- .... ....
 C#4|..|C#2 2A.F ....|R-- .... ....|--- .... ....
....|..|C-4 AF.F ....|--- .... ....|--- .... ....
 C#4|..|C#2 2A.F ....|R-- .... ....|--- .... ....
....|..|C-4 AF.F ....|C#4 3FEF ....|C#2 3F.7 ....
 C#4|..|C#2 2A.F ....|--- .... ....|--- .... ....
....|..|C-4 AF.F ....|--- .... ....|--- .... ....
....|..|C#2 2F.7 ....|R-- .... ....|--- .... ....
....|..|B-8 JF.F ....|G#4 3FEF ....|--- .... ....
 B-3|..|B-1 2A.F ....|--- .... ....|--- .... ....
....|..|C-4 AF.F ....|R-- .... ....|--- .... ....
 B-3|..|B-1 2A.F ....|--- .... ....|--- .... ....
....|..|C-4 LF.F ....|G#4 3FE7 ....|R-- .... ....
....|..|C#2 2F.7 ....|R-- .... ....|--- .... ....
....|..|C-4 LF.7 ....|--- .... ....|--- .... ....
....|..|C#2 2F.A ....|R-- .... ....|--- .... ....
....|..|C-4 LF.F ....|F#4 3FE7 ....|--- .... ....
....|..|C#2 2F.7 ....|--- .... ....|--- .... ....
....|..|C-4 AF.7 ....|--- .... ....|--- .... ....
....|..|C#2 2F.7 ....|R-- .... ....|--- .... ....
....|..|C-4 LF.F ....|G#4 3FEF ....|--- .... ....
....|..|B-1 2F.A ....|--- .... ....|--- .... ....
....|..|C-4 AF.7 ....|--- .... ....|--- .... ....
....|..|C#2 2F.7 ....|R-- .... ....|--- .... ....
....|..|C-4 LF.F ....|F#4 3FEF ....|R-- .... ....
....|..|C#2 2F.7 ....|R-- .... ....|--- .... ....
....|..|C-4 AF.7 ....|--- .... ....|--- .... ....
....|..|C#2 2F.7 ....|--- .... ....|--- .... ....
....|..|C-4 LF.F ....|G#4 3FEF ....|--- .... ....
....|..|C#2 2F.7 ....|--- .... ....|--- .... ....
....|..|C-4 AF.7 ....|--- .... ....|--- .... ....
....|..|R-- .... ....|--- .... ....|--- .... ....
....|..|C-4 AF.F ....|E-5 3FEF ....|--- .... ....
....|..|B-1 2F.7 ....|--- .... ....|--- .... ....
....|..|C-4 AF.7 ....|--- .... ....|--- .... ....
....|..|B-1 2F.7 ....|R-- .... ....|--- .... ....
....|..|C-5 VF.F ....|F#4 3FEA ....|R-- .... ....
....|..|R-- .... ....|R-- .... ....|--- .... ....
....|..|C-4 AF.F ....|--- .... ....|--- .... ....
....|..|--- .... ....|--- .... ....|--- .... ....
....|..|C-4 LF.F ....|G#4 3FEA ....|--- .... ....
....|..|--- .... ....|--- .... ....|--- .... ....
....|..|--- .... ....|--- .... ....|--- .... ....
....|..|--- .... ....|--- .... ....|--- .... ....
....|..|C-4 AF.F ....|A-4 3FEF ....|A-1 3F.F ....
 E-4|..|E-5 2C.F ....|--- .... ....|--- .... ....
....|..|C-4 LF.F ....|--- .... ....|--- .... ....
 A-3|..|A-1 2A.F ....|R-- .... ....|--- .... ....
....|..|C-4 AF.F ....|F#4 3FE7 ....|--- .... ....
 A-3|..|A-1 2A.F ....|R-- .... ....|--- .... ....
....|..|C-4 RF.F ....|R-- .... ....|--- .... ....
 A-3|..|A-1 2A.F ....|--- .... ....|--- .... ....
....|..|C-4 AF.F ....|A-4 3FEF ....|--- .... ....
 A-3|..|A-1 2A.F ....|--- .... ....|--- .... ....
....|..|C-4 LF.F ....|--- .... ....|--- .... ....
....|..|R-- .... ....|--- .... ....|--- .... ....
....|..|B-8 JF.F ....|G#4 3FEF ....|A-1 3F.A ....
 A-3|..|A-1 2A.F ....|--- .... ....|--- .... ....
....|..|C-4 AF.F ....|--- .... ....|--- .... ....
 A-3|..|A-1 2A.F ....|--- .... ....|--- .... ....
....|..|B-8 JF.F ....|A-4 3FEF ....|--- .... ....
....|..|A-1 2F.A ....|R-- .... ....|--- .... ....
....|..|C-4 AF.F ....|R-- .... ....|--- .... ....
 A-3|..|A-1 2A.F ....|--- .... ....|--- .... ....
....|..|C-4 AF.F ....|A-4 3FEA ....|--- .... ....
 A-3|..|A-1 2A.F ....|--- .... ....|--- .... ....
....|..|C-4 AF.F ....|--- .... ....|--- .... ....
 A-3|..|A-1 2A.F ....|R-- .... ....|--- .... ....
....|..|C-4 AF.F ....|A-4 3FE7 ....|A-1 3F.7 ....
 A-3|..|A-1 2A.F ....|--- .... ....|--- .... ....
....|..|C-4 AF.F ....|--- .... ....|--- .... ....
....|..|A-1 2F.7 ....|--- .... ....|--- .... ....
....|..|B-8 JF.F ....|A-4 3FEA ....|--- .... ....
 A-3|..|A-1 2A.F ....|--- .... ....|--- .... ....
....|..|C-4 AF.F ....|R-- .... ....|--- .... ....
....|..|A-1 2F.7 ....|--- .... ....|--- .... ....

[Pattern21]
....|..|C-4 AF.F ....|A-4 3FEF ....|G#1 3F.F ....
 D#4|..|D#5 2C.F ....|--- .... ....|--- .... ....
....|..|C-4 LF.F ....|--- .... ....|--- .... ....
 G#3|..|G#1 2A.F ....|R-- .... ....|--- .... ....
....|..|C-4 AF.F ....|A-4 3FEF ....|--- .... ....
 G#3|..|G#1 2A.F ....|--- .... ....|--- .... ....
....|..|C-4 RF.F ....|--- .... ....|--- .... ....
 G#3|..|G#1 2A.F ....|R-- .... ....|--- .... ....
....|..|C-4 AF.F ....|G#4 3FEF ....|--- .... ....
 G#3|..|G#1 2A.F ....|--- .... ....|--- .... ....
....|..|C-4 LF.F ....|R-- .... ....|--- .... ....
....|..|A-1 2F.7 ....|--- .... ....|--- .... ....
....|..|B-8 JF.F ....|A-4 3FEF ....|G#1 3F.A ....
 G#3|..|G#1 2A.F ....|--- .... ....|--- .... ....
....|..|C-4 AF.F ....|--- .... ....|--- .... ....
 G#3|..|G#1 2A.F ....|R-- .... ....|--- .... ....
....|..|B-8 JF.F ....|D#5 3FEF ....|--- .... ....
....|..|A-1 2F.7 ....|--- .... ....|--- .... ....
....|..|C-4 AF.F ....|--- .... ....|--- .... ....
 G#3|..|G#1 2A.F ....|R-- .... ....|--- .... ....
....|..|C-4 AF.F ....|G#4 3FEA ....|--- .... ....
 G#3|..|G#1 2A.F ....|--- .... ....|--- .... ....
....|..|C-4 AF.F ....|R-- .... ....|--- .... ....
 G#3|..|G#1 2A.F ....|R-- .... ....|--- .... ....
....|..|C-4 AF.F ....|A-4 3FE7 ....|G#1 3F.7 ....
 G#3|..|G#1 2A.F ....|--- .... ....|--- .... ....
....|..|C-4 AF.F ....|--- .... ....|--- .... ....
....|..|G#1 2F.7 ....|R-- .... ....|--- .... ....
....|..|B-8 JF.F ....|A-4 3FE7 ....|--- .... ....
 E-4|..|E-2 2A.F ....|--- .... ....|--- .... ....
....|..|C-4 AF.F ....|--- .... ....|--- .... ....
....|..|G#1 2F.7 ....|R-- .... ....|--- .... ....
....|..|C-4 AF.F ....|G#4 3FEF ....|C#2 3F.F ....
 G#4|..|G#5 2C.F ....|--- .... ....|--- .... ....
....|..|C-4 LF.F ....|R-- .... ....|--- .... ....
 C#4|..|C#2 2A.F ....|R-- .... ....|--- .... ....
....|..|C-4 AF.F ....|A-4 3FE7 ....|--- .... ....
 C#4|..|C#2 2A.F ....|--- .... ....|--- .... ....
....|..|C-4 RF.F ....|R-- .... ....|--- .... ....
 C#4|..|C#2 2A.F ....|R-- .... ....|--- .... ....
....|..|C-4 AF.F ....|G#4 3FEF ....|--- .... ....
 C#4|..|C#2 2A.F ....|--- .... ....|--- .... ....
....|..|C-4 LF.F ....|R-- .... ....|--- .... ....
....|..|G#1 2F.7 ....|--- .... ....|--- .... ....
....|..|B-8 JF.F ....|F#4 3FEF ....|C#2 3F.A ....
 C#4|..|C#2 2A.F ....|--- .... ....|--- .... ....
....|..|C-4 AF.F ....|--- .... ....|--- .... ....
 C#4|..|C#2 2A.F ....|R-- .... ....|--- .... ....
....|..|B-8 JF.F ....|G#4 3FEF ....|--- .... ....
....|..|G#1 2F.7 ....|--- .... ....|--- .... ....
....|..|C-4 AF.F ....|R-- .... ....|--- .... ....
 C#4|..|C#2 2A.F ....|--- .... ....|--- .... ....
....|..|C-4 AF.F ....|G#4 3FEA ....|--- .... ....
 C#4|..|C#2 2A.F ....|--- .... ....|--- .... ....
....|..|C-4 AF.F ....|R-- .... ....|--- .... ....
 C#4|..|C#2 2A.F ....|--- .... ....|--- .... ....
....|..|C-4 AF.F ....|G#4 3FE7 ....|C#2 3F.7 ....
 C#4|..|C#2 2A.F ....|--- .... ....|--- .... ....
....|..|C-4 AF.F ....|--- .... ....|--- .... ....
....|..|C#2 2F.7 ....|R-- .... ....|--- .... ....
....|..|B-8 JF.F ....|G#4 3FEF ....|--- .... ....
 B-3|..|B-1 2A.F ....|--- .... ....|--- .... ....
....|..|C-4 AF.F ....|R-- .... ....|--- .... ....
....|..|C#2 2F.7 ....|--- .... ....|--- .... ....
....|..|C-4 AF.F ....|G#4 3FE7 ....|E-2 3F.F ....
 G#4|..|G#5 2C.F ....|--- .... ....|--- .... ....
....|..|C-4 LF.F ....|R-- .... ....|--- .... ....
 E-4|..|E-2 2A.F ....|--- .... ....|--- .... ....
....|..|C-4 AF.F ....|F#4 3FE7 ....|--- .... ....
 E-4|..|E-2 2A.F ....|--- .... ....|--- .... ....
....|..|C-4 RF.F ....|--- .... ....|--- .... ....
 E-4|..|E-2 2A.F ....|R-- .... ....|--- .... ....
....|..|C-4 AF.F ....|G#4 3FEF ....|--- .... ....
 E-4|..|E-2 2A.F ....|--- .... ....|--- .... ....
....|..|C-4 LF.F ....|--- .... ....|--- .... ....
....|..|C#2 2F.7 ....|R-- .... ....|--- .... ....
....|..|B-8 JF.F ....|F#4 3FEF ....|E-2 3F.A ....
 E-4|..|E-2 2A.F ....|--- .... ....|--- .... ....
....|..|C-4 AF.F ....|R-- .... ....|--- .... ....
 E-4|..|E-2 2A.F ....|--- .... ....|--- .... ....
....|..|B-8 JF.F ....|G#4 3FEF ....|--- .... ....
....|..|C#2 2F.7 ....|--- .... ....|--- .... ....
....|..|C-4 AF.F ....|--- .... ....|--- .... ....
 E-4|..|E-2 2A.F ....|--- .... ....|--- .... ....
....|..|C-4 AF.F ....|E-5 3FEF ....|--- .... ....
 E-4|..|E-2 2A.F ....|--- .... ....|--- .... ....
....|..|C-4 AF.F ....|--- .... ....|--- .... ....
 E-4|..|E-2 2A.F ....|R-- .... ....|--- .... ....
....|..|C-4 AF.F ....|F#4 3FEA ....|E-2 3F.7 ....
 E-4|..|E-2 2A.F ....|R-- .... ....|--- .... ....
....|..|C-4 AF.F ....|R-- .... ....|--- .... ....
....|..|E-2 2F.7 ....|--- .... ....|--- .... ....
....|..|B-8 JF.F ....|G#4 3FEA ....|--- .... ....
 E-4|..|E-2 2A.F ....|--- .... ....|--- .... ....
....|..|C-4 AF.F ....|--- .... ....|--- .... ....
....|..|E-2 2F.7 ....|--- .... ....|--- .... ....
....|..|C-4 AF.F ....|A-4 3FEF ....|A-1 3F.F ....
 E-4|..|E-5 2C.F ....|--- .... ....|--- .... ....
....|..|C-4 LF.F ....|--- .... ....|--- .... ....
 A-3|..|A-1 2A.F ....|R-- .... ....|--- .... ....
....|..|C-4 AF.F ....|F#4 3FE7 ....|--- .... ....
 A-3|..|A-1 2A.F ....|R-- .... ....|--- .... ....
....|..|C-4 RF.F ....|R-- .... ....|--- .... ....
 A-3|..|A-1 2A.F ....|--- .... ....|--- .... ....
....|..|C-4 AF.F ....|A-4 3FEF ....|--- .... ....
 A-3|..|A-1 2A.F ....|--- .... ....|--- .... ....
....|..|C-4 LF.F ....|--- .... ....|--- .... ....
....|..|E-2 2F.7 ....|--- .... ....|--- .... ....
....|..|B-8 JF.F ....|G#4 3FEF ....|A-1 3F.A ....
 A-3|..|A-1 2A.F ....|--- .... ....|--- .... ....
....|..|C-4 AF.F ....|--- .... ....|--- .... ....
 A-3|..|A-1 2A.F ....|--- .... ....|--- .... ....
....|..|B-8 JF.F ....|A-4 3FEF ....|--- .... ....
....|..|E-2 2F.7 ....|R-- .... ....|--- .... ....
....|..|C-4 AF.F ....|--- .... ....|--- .... ....
 A-3|..|A-1 2A.F ....|--- .... ....|--- .... ....
....|..|C-4 AF.F ....|A-4 3FEA ....|--- .... ....
 A-3|..|A-1 2A.F ....|--- .... ....|--- .... ....
....|..|C-4 AF.F ....|--- .... ....|--- .... ....
 A-3|..|A-1 2A.F ....|--- .... ....|--- .... ....
....|..|C-4 AF.F ....|A-4 3FE7 ....|A-1 3F.7 ....
 A-3|..|A-1 2A.F ....|--- .... ....|--- .... ....
....|..|C-4 AF.F ....|--- .... ....|--- .... ....
....|..|A-1 2F.7 ....|--- .... ....|--- .... ....
....|..|B-8 JF.F ....|A-4 3FEA ....|--- .... ....
 A-3|..|A-1 2A.F ....|--- .... ....|--- .... ....
....|..|C-4 AF.F ....|--- .... ....|--- .... ....
....|..|A-1 2F.7 ....|--- .... ....|--- .... ....

[Pattern22]
....|..|C-4 AF.F ....|A-4 3FEF ....|G#1 3F.F ....
 D#4|..|D#5 2C.F ....|--- .... ....|--- .... ....
....|..|C-4 LF.F ....|--- .... ....|--- .... ....
 G#3|..|G#1 2A.F ....|--- .... ....|--- .... ....
....|..|C-4 AF.F ....|G#4 3FE7 ....|--- .... ....
 G#3|..|G#1 2A.F ....|--- .... ....|--- .... ....
....|..|C-4 RF.F ....|--- .... ....|--- .... ....
 G#3|..|G#1 2A.F ....|--- .... ....|--- .... ....
....|..|C-4 AF.F ....|A-4 3FEF ....|--- .... ....
 G#3|..|G#1 2A.F ....|--- .... ....|--- .... ....
....|..|C-4 LF.F ....|--- .... ....|--- .... ....
....|..|A-1 2F.7 ....|--- .... ....|--- .... ....
....|..|B-8 JF.F ....|G#4 3FEF ....|G#1 3F.A ....
 G#3|..|G#1 2A.F ....|--- .... ....|--- .... ....
....|..|C-4 AF.F ....|--- .... ....|--- .... ....
 G#3|..|G#1 2A.F ....|--- .... ....|--- .... ....
....|..|B-8 JF.F ....|A-4 3FEF ....|--- .... ....
....|..|A-1 2F.7 ....|--- .... ....|--- .... ....
....|..|C-4 AF.F ....|--- .... ....|--- .... ....
 G#3|..|G#1 2A.F ....|--- .... ....|--- .... ....
....|..|C-4 AF.F ....|D#5 3FEF ....|--- .... ....
 G#3|..|G#1 2A.F ....|--- .... ....|--- .... ....
....|..|C-4 AF.F ....|--- .... ....|--- .... ....
 G#3|..|G#1 2A.F ....|R-- .... ....|--- .... ....
....|..|C-4 AF.F ....|A-4 3FE7 ....|G#1 3F.7 ....
 G#3|..|G#1 2A.F ....|--- .... ....|--- .... ....
....|..|C-4 AF.F ....|--- .... ....|--- .... ....
....|..|G#1 2F.7 ....|--- .... ....|--- .... ....
....|..|B-8 JF.F ....|D#5 3FEF ....|--- .... ....
 E-4|..|E-2 2A.F ....|--- .... ....|--- .... ....
....|..|C-4 AF.F ....|--- .... ....|--- .... ....
....|..|G#1 2F.7 ....|R-- .... ....|--- .... ....
....|..|C-4 AF.F ....|G#4 3FEF ....|C#2 3F.F ....
 C#4|..|C#5 2C.F ....|--- .... ....|--- .... ....
....|..|C-4 LF.F ....|--- .... ....|--- .... ....
 C#4|..|C#2 2A.F ....|R-- .... ....|--- .... ....
....|..|C-4 AF.F ....|G#4 3FE7 ....|--- .... ....
 C#4|..|C#2 2A.F ....|--- .... ....|--- .... ....
....|..|C-4 RF.F ....|R-- .... ....|--- .... ....
 C#4|..|C#2 2A.F ....|--- .... ....|--- .... ....
....|..|C-4 AF.F ....|G#4 3FEF ....|--- .... ....
 C#4|..|C#2 2A.F ....|--- .... ....|--- .... ....
....|..|C-4 LF.F ....|--- .... ....|--- .... ....
....|..|G#1 2F.7 ....|R-- .... ....|--- .... ....
....|..|B-8 JF.F ....|F#4 3FEF ....|C#2 3F.A ....
 C#4|..|C#2 2A.F ....|--- .... ....|--- .... ....
....|..|C-4 AF.F ....|--- .... ....|--- .... ....
 C#4|..|C#2 2A.F ....|R-- .... ....|--- .... ....
....|..|B-8 JF.F ....|G#4 3FEF ....|--- .... ....
....|..|G#1 2F.7 ....|--- .... ....|--- .... ....
....|..|C-4 AF.F ....|R-- .... ....|--- .... ....
 C#4|..|C#2 2A.F ....|--- .... ....|--- .... ....
....|..|C-4 AF.F ....|D#5 3FE7 ....|--- .... ....
 C#4|..|C#2 2A.F ....|R-- .... ....|--- .... ....
....|..|C-4 AF.F ....|--- .... ....|--- .... ....
 C#4|..|C#2 2A.F ....|R-- .... ....|--- .... ....
....|..|C-4 AF.F ....|G#4 3FE7 ....|C#2 3F.7 ....
 C#4|..|C#2 2A.F ....|--- .... ....|--- .... ....
....|..|C-4 AF.F ....|--- .... ....|--- .... ....
....|..|C#2 2F.7 ....|R-- .... ....|--- .... ....
....|..|B-8 JF.F ....|D#5 3FEF ....|--- .... ....
 B-3|..|B-1 2A.F ....|--- .... ....|--- .... ....
....|..|C-4 AF.F ....|R-- .... ....|--- .... ....
 B-3|..|B-1 2A.F ....|R-- .... ....|--- .... ....
....|..|C-4 AF.F ....|E-5 3FEF ....|R-- .... ....
 E-4|..|E-5 2C.F ....|R-- .... ....|--- .... ....
....|..|C-4 LF.7 ....|--- .... ....|--- .... ....
....|..|C#2 2F.A ....|R-- .... ....|--- .... ....
....|..|C-4 AF.F ....|F#4 3FE7 ....|--- .... ....
....|..|C#2 2F.7 ....|R-- .... ....|--- .... ....
....|..|C-4 AF.7 ....|--- .... ....|--- .... ....
....|..|C#2 2F.7 ....|R-- .... ....|--- .... ....
....|..|C-4 AF.F ....|E-5 3FEF ....|--- .... ....
....|..|B-1 2F.A ....|--- .... ....|--- .... ....
....|..|C-4 AF.F ....|--- .... ....|--- .... ....
....|..|C#2 2F.7 ....|R-- .... ....|--- .... ....
 E-4|..|E-5 2C.F ....|D#5 3FEF ....|R-- .... ....
....|..|C#2 2F.7 ....|R-- .... ....|--- .... ....
....|..|C-4 AF.7 ....|--- .... ....|--- .... ....
....|..|C#2 2F.7 ....|R-- .... ....|--- .... ....
....|..|C-4 AF.F ....|F#5 3FEF ....|--- .... ....
 F#3|..|F#5 2C.F ....|R-- .... ....|--- .... ....
....|..|C-4 AF.7 ....|--- .... ....|--- .... ....
....|..|R-- .... ....|--- .... ....|--- .... ....
....|..|C-4 AF.F ....|E-5 3FEF ....|--- .... ....
....|..|B-1 2F.7 ....|--- .... ....|--- .... ....
....|..|C-4 AF.7 ....|--- .... ....|--- .... ....
....|..|B-1 2F.7 ....|R-- .... ....|--- .... ....
....|..|C-4 AF.F ....|E-5 3FE7 ....|R-- .... ....
....|..|E-5 2F.7 ....|--- .... ....|--- .... ....
....|..|C-4 AF.F ....|--- .... ....|--- .... ....
....|..|--- .... ....|R-- .... ....|--- .... ....
....|..|C-4 AF.7 ....|F#5 3FEA ....|--- .... ....
....|..|F#5 2F.A ....|R-- .... ....|--- .... ....
....|..|--- .... ....|--- .... ....|--- .... ....
....|..|--- .... ....|--- .... ....|--- .... ....
 E-4|..|E-5 2C.F ....|E-5 3FEF ....|B-3 2FDF ....
....|..|--- .... ....|--- .... ....|--- .... ....
....|..|C-4 AF.7 ....|--- .... ....|--- .... ....
....|..|--- .... ....|R-- .... ....|--- .... ....
 B-4|..|E-5 2F.7 ....|D#5 3FE7 ....|B-3 2CDF ....
....|..|--- .... ....|R-- .... ....|--- .... ....
....|..|C-4 AF.A ....|--- .... ....|--- .... ....
....|..|--- .... ....|R-- .... ....|--- .... ....
 B-4|..|C-4 AF.7 ....|E-5 3FEF ....|B-3 2CDF ....
....|..|F#5 2F.7 ....|--- .... ....|--- .... ....
 E-4|..|--- .... ....|--- .... ....|E-3 2CDF ....
....|..|--- .... ....|R-- .... ....|--- .... ....
 E-4|..|E-5 2C.F ....|D#5 3FEF ....|B-3 2FDF ....
....|..|--- .... ....|--- .... ....|--- .... ....
....|..|--- .... ....|--- .... ....|--- .... ....
....|..|--- .... ....|R-- .... ....|--- .... ....
 F#3|..|F#5 2C.F ....|F#5 3FEF ....|B-3 2FDA ....
....|..|--- .... ....|R-- .... ....|--- .... ....
....|..|C-4 AF.7 ....|--- .... ....|--- .... ....
....|..|--- .... ....|--- .... ....|--- .... ....
 B-4|..|--- .... ....|E-5 3FEF ....|B-3 2CDF ....
....|..|--- .... ....|--- .... ....|--- .... ....
 A-3|..|--- .... ....|--- .... ....|A-3 2CDF ....
....|..|--- .... ....|R-- .... ....|--- .... ....
....|..|E-5 2F.7 ....|E-5 3FE7 ....|B-3 2FD7 ....
....|..|--- .... ....|--- .... ....|--- .... ....
....|..|--- .... ....|R-- .... ....|--- .... ....
....|..|--- .... ....|R-- .... ....|--- .... ....
 A-3|..|F#5 2F.A ....|D#5 3FEF ....|A-3 2CDF ....
....|..|--- .... ....|R-- .... ....|--- .... ....
....|..|--- .... ....|--- .... ....|--- .... ....
 A-3|..|--- .... ....|R-- .... ....|A-3 2CDF ....

[Pattern23]
 A-3|..|--- .... ....|F#5 3FEF ....|A-3 2CDF ....
 C#4|..|--- .... ....|--- .... ....|C#3 2CDF ....
....|..|--- .... ....|--- .... ....|E-3 2FD7 ....
....|..|--- .... ....|R-- .... ....|--- .... ....
 G#4|..|E-5 2F.7 ....|E-5 3FEF ....|G#3 2CDF ....
....|..|--- .... ....|--- .... ....|--- .... ....
....|..|--- .... ....|R-- .... ....|--- .... ....
....|..|--- .... ....|R-- .... ....|--- .... ....
 C#4|..|F#5 2F.7 ....|F#5 3FE7 ....|C#4 2CDF ....
....|..|--- .... ....|--- .... ....|--- .... ....
....|..|--- .... ....|R-- .... ....|--- .... ....
....|..|--- .... ....|R-- .... ....|A-3 2FDA ....
 D#4|..|--- .... ....|D#5 3FEF ....|D#4 2CDF ....
....|..|--- .... ....|--- .... ....|C#3 2FDA ....
....|..|--- .... ....|--- .... ....|A-3 2FD7 ....
....|..|--- .... ....|R-- .... ....|--- .... ....
....|..|--- .... ....|F#5 3FEF ....|G#3 2FDA ....
....|..|--- .... ....|--- .... ....|--- .... ....
....|..|--- .... ....|R-- .... ....|--- .... ....
....|..|--- .... ....|--- .... ....|--- .... ....
 E-4|..|--- .... ....|E-5 3FEF ....|E-4 2CDF ....
....|..|--- .... ....|--- .... ....|--- .... ....
 E-4|..|--- .... ....|R-- .... ....|E-4 2CDF ....
....|..|--- .... ....|R-- .... ....|A-3 2FD7 ....
....|..|--- .... ....|F#5 3FE7 ....|A-3 2FD7 ....
 E-4|..|--- .... ....|--- .... ....|E-4 2CDF ....
....|..|--- .... ....|R-- .... ....|--- .... ....
....|..|--- .... ....|R-- .... ....|--- .... ....
 E-4|..|--- .... ....|E-5 3FE7 ....|E-4 2CDF ....
....|..|--- .... ....|--- .... ....|--- .... ....
....|..|--- .... ....|--- .... ....|--- .... ....
 E-4|..|--- .... ....|--- .... ....|E-4 2CDF ....
 E-4|..|--- .... ....|E-5 3FEA ....|E-4 2CDF ....
....|..|--- .... ....|--- .... ....|--- .... ....
....|..|--- .... ....|R-- .... ....|E-4 2FDA ....
....|..|--- .... ....|--- .... ....|--- .... ....
 E-4|..|--- .... ....|D#5 3FE7 ....|E-4 2CDF ....
....|..|--- .... ....|--- .... ....|E-4 2FDA ....
....|..|--- .... ....|R-- .... ....|--- .... ....
 A-3|..|--- .... ....|R-- .... ....|A-2 2CDF ....
 E-4|..|--- .... ....|F#5 3FE7 ....|E-3 2CDF ....
....|..|--- .... ....|--- .... ....|--- .... ....
....|..|--- .... ....|--- .... ....|--- .... ....
....|..|--- .... ....|--- .... ....|E-4 2FDA ....
 B-4|..|--- .... ....|E-5 3FE7 ....|B-3 2CDF ....
....|..|--- .... ....|--- .... ....|--- .... ....
....|..|--- .... ....|--- .... ....|E-4 2FD7 ....
....|..|--- .... ....|--- .... ....|--- .... ....
....|..|--- .... ....|--- .... ....|E-4 2FDA ....
....|..|--- .... ....|--- .... ....|E-4 2FD7 ....
....|..|--- .... ....|R-- .... ....|--- .... ....
....|..|--- .... ....|--- .... ....|A-2 2FDA ....
 B-4|..|--- .... ....|--- .... ....|B-3 2CDF ....
....|..|--- .... ....|--- .... ....|--- .... ....
 A-3|..|--- .... ....|--- .... ....|A-3 2CDF ....
....|..|--- .... ....|--- .... ....|E-4 2FD7 ....
....|..|--- .... ....|--- .... ....|E-4 2FD7 ....
....|..|--- .... ....|--- .... ....|--- .... ....
....|..|--- .... ....|--- .... ....|--- .... ....
....|..|--- .... ....|--- .... ....|--- .... ....
 A-3|..|--- .... ....|--- .... ....|A-3 2CDF ....
....|..|--- .... ....|--- .... ....|--- .... ....
....|..|--- .... ....|--- .... ....|--- .... ....
 A-3|..|--- .... ....|--- .... ....|A-3 2CDF ....
 A-3|..|R-- .... ....|--- .... ....|A-3 2CDF ....
 C#4|..|--- .... ....|--- .... ....|C#3 2CDF ....
....|..|--- .... ....|--- .... ....|A-3 2FDA ....
....|..|--- .... ....|--- .... ....|--- .... ....
 G#4|..|--- .... ....|--- .... ....|G#3 2CDF ....
....|..|--- .... ....|--- .... ....|--- .... ....
....|..|--- .... ....|--- .... ....|--- .... ....
....|..|--- .... ....|--- .... ....|--- .... ....
 D#4|..|--- .... ....|--- .... ....|D#4 2CDF ....
....|..|--- .... ....|--- .... ....|--- .... ....
....|..|--- .... ....|--- .... ....|--- .... ....
....|..|--- .... ....|--- .... ....|A-3 2FDA ....
 E-4|..|R-- .... ....|--- .... ....|E-4 2CDF ....
....|..|--- .... ....|--- .... ....|C#3 2FDA ....
....|..|--- .... ....|--- .... ....|A-3 2FD7 ....
....|..|--- .... ....|--- .... ....|--- .... ....
....|..|--- .... ....|--- .... ....|G#3 2FDA ....
....|..|--- .... ....|--- .... ....|--- .... ....
....|..|--- .... ....|--- .... ....|--- .... ....
....|..|--- .... ....|--- .... ....|--- .... ....
 G#4|..|--- .... ....|--- .... ....|G#4 2CDF ....
....|..|--- .... ....|--- .... ....|--- .... ....
 G#4|..|--- .... ....|--- .... ....|G#4 2CDF ....
....|..|--- .... ....|--- .... ....|A-3 2FD7 ....
....|..|R-- .... ....|--- .... ....|A-3 2FD7 ....
....|..|--- .... ....|--- .... ....|C#3 2FD7 ....
....|..|--- .... ....|--- .... ....|--- .... ....
 E-4|..|--- .... ....|--- .... ....|E-4 2CDF ....
 G#4|..|--- .... ....|--- .... ....|G#4 2CDF ....
 G#4|..|--- .... ....|--- .... ....|G#4 2CDF ....
....|..|--- .... ....|--- .... ....|--- .... ....
....|..|--- .... ....|--- .... ....|--- .... ....
 E-4|..|--- .... ....|E-5 3FEF ....|E-4 2CDF ....
....|..|--- .... ....|--- .... ....|--- .... ....
....|..|--- .... ....|--- .... ....|G#4 2FDA ....
....|..|--- .... ....|--- .... ....|--- .... ....
 E-4|..|--- .... ....|R-- .... ....|E-4 2CDF ....
....|..|--- .... ....|--- .... ....|--- .... ....
....|..|--- .... ....|--- .... ....|--- .... ....
....|..|--- .... ....|--- .... ....|E-4 2FDA ....
 E-4|..|--- .... ....|E-5 3FEF ....|E-4 2CDF ....
....|..|--- .... ....|--- .... ....|G#4 2FDA ....
 E-4|..|--- .... ....|--- .... ....|E-3 2CDF ....
....|..|--- .... ....|R-- .... ....|--- .... ....
 B-4|..|--- .... ....|D#5 3FEF ....|B-3 2CDF ....
....|..|--- .... ....|--- .... ....|--- .... ....
....|..|--- .... ....|--- .... ....|G#4 2FD7 ....
....|..|--- .... ....|R-- .... ....|--- .... ....
....|..|--- .... ....|E-5 3FEF ....|E-4 2FDA ....
....|..|--- .... ....|--- .... ....|--- .... ....
....|..|--- .... ....|--- .... ....|--- .... ....
....|..|--- .... ....|R-- .... ....|E-4 2FD7 ....
 B-4|..|--- .... ....|C#5 3FEF ....|B-3 2CDF ....
....|..|--- .... ....|--- .... ....|G#4 2FD7 ....
 A-3|..|--- .... ....|--- .... ....|A-3 2CDF ....
....|..|--- .... ....|R-- .... ....|--- .... ....
....|..|--- .... ....|E-5 3FEF ....|E-4 2FD7 ....
....|..|--- .... ....|E-5 3FEF ....|--- .... ....
....|..|--- .... ....|--- .... ....|--- .... ....
....|..|--- .... ....|R-- .... ....|--- .... ....
 A-3|..|--- .... ....|D#5 3FEF ....|A-3 2CDF ....
....|..|--- .... ....|--- .... ....|--- .... ....
....|..|--- .... ....|--- .... ....|--- .... ....
 A-3|..|--- .... ....|R-- .... ....|A-3 2CDF ....

[Pattern24]
 A-3|..|--- .... ....|E-5 3FEF ....|A-3 2CDF ....
 C#4|..|--- .... ....|--- .... ....|C#3 2CDF ....
....|..|--- .... ....|--- .... ....|E-3 2FD7 ....
....|..|--- .... ....|R-- .... ....|--- .... ....
 G#4|..|--- .... ....|C#5 3FEF ....|G#3 2CDF ....
....|..|--- .... ....|E-5 3FEA ....|--- .... ....
....|..|--- .... ....|--- .... ....|--- .... ....
....|..|--- .... ....|R-- .... ....|--- .... ....
 C#4|..|--- .... ....|E-5 3FEF ....|C#4 2CDF ....
....|..|--- .... ....|E-5 3FEF ....|--- .... ....
....|..|--- .... ....|--- .... ....|--- .... ....
....|..|--- .... ....|R-- .... ....|A-3 2FDA ....
 D#4|..|--- .... ....|D#5 3FEF ....|D#4 2CDF ....
....|..|--- .... ....|--- .... ....|C#3 2FDA ....
....|..|--- .... ....|--- .... ....|A-3 2FD7 ....
....|..|--- .... ....|--- .... ....|--- .... ....
....|..|--- .... ....|E-5 3FEF ....|G#3 2FDA ....
....|..|--- .... ....|E-5 3FE7 ....|--- .... ....
....|..|--- .... ....|--- .... ....|--- .... ....
....|..|--- .... ....|--- .... ....|--- .... ....
 E-4|..|--- .... ....|E-5 3FEF ....|E-4 2CDF ....
....|..|--- .... ....|C#5 3FEF ....|--- .... ....
 E-4|..|--- .... ....|--- .... ....|E-4 2CDF ....
....|..|--- .... ....|R-- .... ....|A-3 2FD7 ....
....|..|--- .... ....|E-5 3FE7 ....|A-3 2FD7 ....
 E-4|..|--- .... ....|--- .... ....|E-4 2CDF ....
....|..|--- .... ....|--- .... ....|--- .... ....
....|..|--- .... ....|--- .... ....|--- .... ....
 E-4|..|--- .... ....|C#5 3FE7 ....|E-4 2CDF ....
....|..|--- .... ....|--- .... ....|--- .... ....
....|..|--- .... ....|--- .... ....|--- .... ....
 E-4|..|--- .... ....|--- .... ....|E-4 2CDF ....
 E-4|..|--- .... ....|E-5 3FE7 ....|E-4 2CDF ....
....|..|--- .... ....|E-5 3FE7 ....|--- .... ....
....|..|--- .... ....|--- .... ....|E-4 2FDA ....
....|..|--- .... ....|R-- .... ....|--- .... ....
 E-4|..|--- .... ....|D#5 3FE7 ....|E-4 2CDF ....
....|..|--- .... ....|--- .... ....|E-4 2FDA ....
....|..|--- .... ....|--- .... ....|--- .... ....
 F#4|..|--- .... ....|--- .... ....|F#2 2ADF ....
 E-4|..|--- .... ....|E-5 3FE7 ....|E-3 2CDF ....
....|..|--- .... ....|--- .... ....|--- .... ....
....|..|--- .... ....|--- .... ....|--- .... ....
....|..|--- .... ....|--- .... ....|E-4 2FDA ....
 A-3|..|--- .... ....|E-5 3FE7 ....|A-3 2CDF ....
....|..|--- .... ....|C#5 3FE7 ....|--- .... ....
....|..|--- .... ....|--- .... ....|E-4 2FD7 ....
....|..|--- .... ....|--- .... ....|--- .... ....
....|..|--- .... ....|R-- .... ....|E-4 2FDA ....
....|..|--- .... ....|--- .... ....|E-4 2FD7 ....
....|..|--- .... ....|--- .... ....|--- .... ....
....|..|--- .... ....|--- .... ....|F#2 2FDA ....
 C#4|..|--- .... ....|--- .... ....|C#4 2CDF ....
....|..|--- .... ....|--- .... ....|--- .... ....
....|..|--- .... ....|--- .... ....|--- .... ....
....|..|--- .... ....|--- .... ....|E-4 2FD7 ....
....|..|--- .... ....|--- .... ....|E-4 2FD7 ....
....|..|--- .... ....|--- .... ....|--- .... ....
....|..|--- .... ....|--- .... ....|--- .... ....
....|..|--- .... ....|--- .... ....|--- .... ....
 C#4|..|--- .... ....|--- .... ....|C#4 2CDF ....
....|..|--- .... ....|--- .... ....|--- .... ....
....|..|--- .... ....|--- .... ....|--- .... ....
 F#4|..|--- .... ....|--- .... ....|F#3 2CDF ....
 B-4|..|--- .... ....|--- .... ....|B-2 2ADF ....
....|..|--- .... ....|--- .... ....|--- .... ....
....|..|--- .... ....|--- .... ....|--- .... ....
....|..|--- .... ....|--- .... ....|--- .... ....
 B-4|..|--- .... ....|--- .... ....|B-3 2CDF ....
....|..|--- .... ....|--- .... ....|--- .... ....
....|..|--- .... ....|--- .... ....|--- .... ....
....|..|--- .... ....|--- .... ....|--- .... ....
 D#4|..|--- .... ....|--- .... ....|D#4 2CDF ....
....|..|--- .... ....|--- .... ....|--- .... ....
....|..|--- .... ....|--- .... ....|--- .... ....
....|..|--- .... ....|--- .... ....|F#3 2FDA ....
 A-3|..|--- .... ....|--- .... ....|A-4 2CDF ....
....|..|--- .... ....|--- .... ....|--- .... ....
....|..|--- .... ....|--- .... ....|--- .... ....
....|..|--- .... ....|--- .... ....|--- .... ....
....|..|--- .... ....|--- .... ....|B-3 2FDA ....
....|..|--- .... ....|--- .... ....|--- .... ....
....|..|--- .... ....|--- .... ....|--- .... ....
....|..|--- .... ....|--- .... ....|--- .... ....
 G#4|..|--- .... ....|--- .... ....|G#4 2CDF ....
 G#4|..|--- .... ....|--- .... ....|G#4 2CDF ....
....|..|--- .... ....|--- .... ....|--- .... ....
....|..|--- .... ....|--- .... ....|F#3 2FD7 ....
....|..|--- .... ....|--- .... ....|B-2 2FD7 ....
....|..|--- .... ....|--- .... ....|--- .... ....
....|..|--- .... ....|--- .... ....|--- .... ....
....|..|--- .... ....|--- .... ....|--- .... ....
 G#4|..|--- .... ....|--- .... ....|G#4 2CDF ....
....|..|--- .... ....|--- .... ....|--- .... ....
....|..|--- .... ....|--- .... ....|--- .... ....
 G#4|..|--- .... ....|--- .... ....|G#4 2CDF ....
 E-4|..|--- .... ....|E-5 3FEF ....|E-4 2CDF ....
....|..|--- .... ....|--- .... ....|G#4 2FDA ....
....|..|--- .... ....|--- .... ....|--- .... ....
....|..|--- .... ....|--- .... ....|--- .... ....
 E-4|..|--- .... ....|R-- .... ....|E-4 2CDF ....
....|..|--- .... ....|--- .... ....|--- .... ....
....|..|--- .... ....|--- .... ....|--- .... ....
....|..|--- .... ....|--- .... ....|--- .... ....
 E-4|..|--- .... ....|E-5 3FEF ....|E-4 2CDF ....
....|..|--- .... ....|--- .... ....|--- .... ....
 E-4|..|--- .... ....|--- .... ....|E-3 2CDF ....
....|..|--- .... ....|R-- .... ....|G#4 2FDA ....
 B-4|..|--- .... ....|D#5 3FEF ....|B-3 2CDF ....
....|..|--- .... ....|--- .... ....|G#4 2FD7 ....
....|..|--- .... ....|--- .... ....|--- .... ....
....|..|--- .... ....|R-- .... ....|--- .... ....
....|..|--- .... ....|E-5 3FEF ....|E-4 2FDA ....
....|..|--- .... ....|--- .... ....|--- .... ....
....|..|--- .... ....|--- .... ....|--- .... ....
....|..|--- .... ....|R-- .... ....|--- .... ....
 B-4|..|--- .... ....|C#5 3FEF ....|B-3 2CDF ....
....|..|--- .... ....|--- .... ....|--- .... ....
 A-3|..|--- .... ....|--- .... ....|A-3 2CDF ....
....|..|--- .... ....|R-- .... ....|G#4 2FD7 ....
....|..|--- .... ....|E-5 3FEF ....|E-4 2FD7 ....
....|..|--- .... ....|E-5 3FEF ....|--- .... ....
....|..|--- .... ....|--- .... ....|--- .... ....
....|..|--- .... ....|R-- .... ....|--- .... ....
 A-3|..|--- .... ....|D#5 3FEF ....|A-3 2CDF ....
....|..|--- .... ....|--- .... ....|--- .... ....
....|..|--- .... ....|--- .... ....|--- .... ....
 A-3|..|--- .... ....|R-- .... ....|A-3 2CDF ....

[Pattern25]
 A-3|..|--- .... ....|E-5 3FEF ....|A-3 2CDF ....
 C#4|..|--- .... ....|--- .... ....|C#3 2CDF ....
....|..|--- .... ....|--- .... ....|E-3 2FD7 ....
....|..|--- .... ....|R-- .... ....|--- .... ....
 G#4|..|--- .... ....|C#5 3FEF ....|G#3 2CDF ....
....|..|--- .... ....|E-5 3FEA ....|--- .... ....
....|..|--- .... ....|--- .... ....|--- .... ....
....|..|--- .... ....|R-- .... ....|--- .... ....
 C#4|..|--- .... ....|E-5 3FEF ....|C#4 2CDF ....
....|..|--- .... ....|E-5 3FEF ....|--- .... ....
....|..|--- .... ....|--- .... ....|--- .... ....
....|..|--- .... ....|R-- .... ....|A-3 2FDA ....
 D#4|..|--- .... ....|D#5 3FEF ....|D#4 2CDF ....
....|..|--- .... ....|--- .... ....|C#3 2FDA ....
....|..|--- .... ....|--- .... ....|A-3 2FD7 ....
....|..|--- .... ....|--- .... ....|--- .... ....
....|..|--- .... ....|E-5 3FEF ....|G#3 2FDA ....
....|..|--- .... ....|E-5 3FE7 ....|--- .... ....
....|..|--- .... ....|--- .... ....|--- .... ....
....|..|--- .... ....|--- .... ....|--- .... ....
 E-4|..|--- .... ....|E-5 3FEF ....|E-4 2CDF ....
....|..|--- .... ....|C#5 3FEF ....|--- .... ....
 E-4|..|--- .... ....|--- .... ....|E-4 2CDF ....
....|..|--- .... ....|R-- .... ....|A-3 2FD7 ....
....|..|--- .... ....|E-5 3FE7 ....|A-3 2FD7 ....
 E-4|..|--- .... ....|--- .... ....|E-4 2CDF ....
....|..|--- .... ....|--- .... ....|--- .... ....
....|..|--- .... ....|--- .... ....|--- .... ....
 E-4|..|--- .... ....|C#5 3FE7 ....|E-4 2CDF ....
....|..|--- .... ....|--- .... ....|--- .... ....
....|..|--- .... ....|--- .... ....|--- .... ....
 E-4|..|--- .... ....|--- .... ....|E-4 2CDF ....
 E-4|..|--- .... ....|E-5 3FE7 ....|E-4 2CDF ....
....|..|--- .... ....|E-5 3FE7 ....|--- .... ....
....|..|--- .... ....|--- .... ....|E-4 2FDA ....
....|..|--- .... ....|R-- .... ....|--- .... ....
 E-4|..|--- .... ....|D#5 3FE7 ....|E-4 2CDF ....
....|..|--- .... ....|--- .... ....|E-4 2FDA ....
....|..|--- .... ....|--- .... ....|--- .... ....
 A-3|..|--- .... ....|--- .... ....|A-2 2CDF ....
 E-4|..|--- .... ....|E-5 3FE7 ....|E-3 2CDF ....
....|..|--- .... ....|--- .... ....|--- .... ....
....|..|--- .... ....|--- .... ....|--- .... ....
....|..|--- .... ....|--- .... ....|E-4 2FDA ....
 B-4|..|--- .... ....|E-5 3FE7 ....|B-3 2CDF ....
....|..|--- .... ....|C#5 3FE7 ....|--- .... ....
....|..|--- .... ....|--- .... ....|E-4 2FD7 ....
....|..|--- .... ....|--- .... ....|--- .... ....
....|..|--- .... ....|R-- .... ....|E-4 2FDA ....
....|..|--- .... ....|--- .... ....|E-4 2FD7 ....
....|..|--- .... ....|--- .... ....|--- .... ....
....|..|--- .... ....|--- .... ....|A-2 2FDA ....
 B-4|..|--- .... ....|--- .... ....|B-3 2CDF ....
....|..|--- .... ....|--- .... ....|--- .... ....
 A-3|..|--- .... ....|--- .... ....|A-3 2CDF ....
....|..|--- .... ....|--- .... ....|E-4 2FD7 ....
....|..|--- .... ....|--- .... ....|E-4 2FD7 ....
....|..|--- .... ....|--- .... ....|--- .... ....
....|..|--- .... ....|--- .... ....|--- .... ....
....|..|--- .... ....|--- .... ....|--- .... ....
 A-3|..|--- .... ....|--- .... ....|A-3 2CDF ....
....|..|--- .... ....|--- .... ....|--- .... ....
....|..|--- .... ....|--- .... ....|--- .... ....
 A-3|..|--- .... ....|--- .... ....|A-3 2CDF ....
 A-3|..|--- .... ....|--- .... ....|A-3 2CDF ....
 C#4|..|--- .... ....|--- .... ....|C#3 2CDF ....
....|..|--- .... ....|--- .... ....|A-3 2FDA ....
....|..|--- .... ....|--- .... ....|--- .... ....
 G#4|..|--- .... ....|--- .... ....|G#3 2CDF ....
....|..|--- .... ....|--- .... ....|--- .... ....
....|..|--- .... ....|--- .... ....|--- .... ....
....|..|--- .... ....|--- .... ....|--- .... ....
 D#4|..|--- .... ....|--- .... ....|D#4 2CDF ....
....|..|--- .... ....|--- .... ....|--- .... ....
....|..|--- .... ....|--- .... ....|--- .... ....
....|..|--- .... ....|--- .... ....|A-3 2FDA ....
 E-4|..|--- .... ....|--- .... ....|E-4 2CDF ....
....|..|--- .... ....|--- .... ....|C#3 2FDA ....
....|..|--- .... ....|--- .... ....|A-3 2FD7 ....
....|..|--- .... ....|--- .... ....|--- .... ....
....|..|--- .... ....|--- .... ....|G#3 2FDA ....
....|..|--- .... ....|--- .... ....|--- .... ....
....|..|--- .... ....|--- .... ....|--- .... ....
....|..|--- .... ....|--- .... ....|--- .... ....
 G#4|..|--- .... ....|--- .... ....|G#4 2CDF ....
....|..|--- .... ....|--- .... ....|--- .... ....
 G#4|..|--- .... ....|--- .... ....|G#4 2CDF ....
....|..|--- .... ....|--- .... ....|A-3 2FD7 ....
....|..|--- .... ....|--- .... ....|A-3 2FD7 ....
....|..|--- .... ....|--- .... ....|C#3 2FD7 ....
....|..|--- .... ....|--- .... ....|--- .... ....
 E-4|..|--- .... ....|--- .... ....|E-4 2CDF ....
 G#4|..|--- .... ....|--- .... ....|G#4 2CDF ....
 G#4|..|--- .... ....|--- .... ....|G#4 2CDF ....
....|..|--- .... ....|--- .... ....|--- .... ....
....|..|--- .... ....|--- .... ....|--- .... ....
 B-4|..|--- .... ....|E-5 3FEF ....|B-3 2CDF ....
....|..|--- .... ....|--- .... ....|--- .... ....
....|..|--- .... ....|--- .... ....|G#4 2FDA ....
....|..|--- .... ....|--- .... ....|--- .... ....
 B-4|..|--- .... ....|R-- .... ....|B-3 2CDF ....
....|..|--- .... ....|--- .... ....|--- .... ....
....|..|--- .... ....|--- .... ....|--- .... ....
....|..|--- .... ....|--- .... ....|E-4 2FDA ....
 B-4|..|--- .... ....|E-5 3FEF ....|B-3 2CDF ....
....|..|--- .... ....|--- .... ....|G#4 2FDA ....
 E-4|..|--- .... ....|--- .... ....|E-3 2CDF ....
....|..|--- .... ....|R-- .... ....|--- .... ....
 B-4|..|--- .... ....|D#5 3FEF ....|B-3 2CDF ....
....|..|--- .... ....|--- .... ....|--- .... ....
....|..|--- .... ....|--- .... ....|G#4 2FD7 ....
....|..|--- .... ....|R-- .... ....|--- .... ....
....|..|--- .... ....|E-5 3FEF ....|B-3 2FDA ....
....|..|--- .... ....|--- .... ....|--- .... ....
....|..|--- .... ....|--- .... ....|--- .... ....
....|..|--- .... ....|R-- .... ....|E-4 2FD7 ....
 B-4|..|--- .... ....|C#5 3FEF ....|B-3 2CDF ....
....|..|--- .... ....|--- .... ....|G#4 2FD7 ....
 A-3|..|--- .... ....|--- .... ....|A-3 2CDF ....
....|..|--- .... ....|R-- .... ....|--- .... ....
....|..|--- .... ....|E-5 3FEF ....|B-3 2FD7 ....
....|..|--- .... ....|E-5 3FEF ....|--- .... ....
....|..|--- .... ....|--- .... ....|--- .... ....
....|..|--- .... ....|R-- .... ....|--- .... ....
 A-3|..|--- .... ....|D#5 3FEF ....|A-3 2CDF ....
....|..|--- .... ....|--- .... ....|--- .... ....
....|..|--- .... ....|--- .... ....|--- .... ....
 A-3|..|--- .... ....|R-- .... ....|A-3 2CDF ....

[Pattern26]
 A-3|..|--- .... ....|E-5 3FEF ....|A-3 2CDF ....
 C#4|..|--- .... ....|--- .... ....|C#3 2CDF ....
....|..|--- .... ....|--- .... ....|E-3 2FD7 ....
....|..|--- .... ....|R-- .... ....|--- .... ....
 G#4|..|--- .... ....|C#5 3FEF ....|G#3 2CDF ....
....|..|--- .... ....|E-5 3FEA ....|--- .... ....
....|..|--- .... ....|--- .... ....|--- .... ....
....|..|--- .... ....|R-- .... ....|--- .... ....
 C#4|..|--- .... ....|E-5 3FEF ....|C#4 2CDF ....
....|..|--- .... ....|E-5 3FEF ....|--- .... ....
....|..|--- .... ....|--- .... ....|--- .... ....
....|..|--- .... ....|R-- .... ....|A-3 2FDA ....
 D#4|..|--- .... ....|D#5 3FEF ....|D#4 2CDF ....
....|..|--- .... ....|--- .... ....|C#3 2FDA ....
....|..|--- .... ....|--- .... ....|A-3 2FD7 ....
....|..|--- .... ....|--- .... ....|--- .... ....
....|..|--- .... ....|E-5 3FEF ....|G#3 2FDA ....
....|..|--- .... ....|E-5 3FE7 ....|--- .... ....
....|..|--- .... ....|--- .... ....|--- .... ....
....|..|--- .... ....|--- .... ....|--- .... ....
 E-4|..|--- .... ....|E-5 3FEF ....|E-4 2CDF ....
....|..|--- .... ....|C#5 3FEF ....|--- .... ....
 E-4|..|--- .... ....|--- .... ....|E-4 2CDF ....
....|..|--- .... ....|R-- .... ....|A-3 2FD7 ....
....|..|--- .... ....|E-5 3FE7 ....|A-3 2FD7 ....
 E-4|..|--- .... ....|--- .... ....|E-4 2CDF ....
....|..|--- .... ....|--- .... ....|--- .... ....
....|..|--- .... ....|--- .... ....|--- .... ....
 E-4|..|--- .... ....|D#5 3FEF ....|E-4 2CDF ....
....|..|--- .... ....|--- .... ....|--- .... ....
....|..|--- .... ....|--- .... ....|--- .... ....
 E-4|..|--- .... ....|R-- .... ....|E-4 2CDF ....
 E-4|..|--- .... ....|E-5 3FEF ....|E-4 2CDF ....
....|..|--- .... ....|E-5 3FE7 ....|--- .... ....
....|..|--- .... ....|--- .... ....|E-4 2FDA ....
....|..|--- .... ....|R-- .... ....|--- .... ....
 E-4|..|--- .... ....|D#5 3FE7 ....|E-4 2CDF ....
....|..|--- .... ....|--- .... ....|E-4 2FDA ....
....|..|--- .... ....|--- .... ....|--- .... ....
 F#4|..|--- .... ....|--- .... ....|F#2 2ADF ....
 E-4|..|--- .... ....|E-5 3FEF ....|E-3 2CDF ....
....|..|--- .... ....|--- .... ....|--- .... ....
....|..|--- .... ....|--- .... ....|--- .... ....
....|..|--- .... ....|R-- .... ....|E-4 2FDA ....
 A-3|..|--- .... ....|D#5 3FEF ....|A-3 2CDF ....
....|..|--- .... ....|C#5 3FE7 ....|--- .... ....
....|..|--- .... ....|--- .... ....|E-4 2FD7 ....
....|..|--- .... ....|R-- .... ....|--- .... ....
....|..|--- .... ....|E-5 3FEF ....|E-4 2FDA ....
....|..|--- .... ....|--- .... ....|E-4 2FD7 ....
....|..|--- .... ....|--- .... ....|--- .... ....
....|..|--- .... ....|R-- .... ....|F#2 2FDA ....
 C#4|..|--- .... ....|F#5 3FEF ....|C#4 2CDF ....
....|..|--- .... ....|--- .... ....|--- .... ....
....|..|--- .... ....|--- .... ....|--- .... ....
....|..|--- .... ....|R-- .... ....|E-4 2FD7 ....
....|..|--- .... ....|E-5 3FE7 ....|E-4 2FD7 ....
....|..|--- .... ....|--- .... ....|--- .... ....
....|..|--- .... ....|--- .... ....|--- .... ....
....|..|--- .... ....|R-- .... ....|--- .... ....
 C#4|..|--- .... ....|D#5 3FEF ....|C#4 2CDF ....
....|..|--- .... ....|--- .... ....|--- .... ....
....|..|--- .... ....|--- .... ....|--- .... ....
 F#4|..|--- .... ....|R-- .... ....|F#3 2CDF ....
 B-4|..|--- .... ....|E-5 3FEF ....|B-2 2ADF ....
....|..|--- .... ....|--- .... ....|--- .... ....
....|..|--- .... ....|--- .... ....|--- .... ....
....|..|--- .... ....|--- .... ....|--- .... ....
 B-4|..|--- .... ....|D#5 3FE7 ....|B-3 2CDF ....
....|..|--- .... ....|--- .... ....|--- .... ....
....|..|--- .... ....|--- .... ....|--- .... ....
....|..|--- .... ....|R-- .... ....|--- .... ....
 D#4|..|--- .... ....|E-5 3FEF ....|D#4 2CDF ....
....|..|--- .... ....|--- .... ....|--- .... ....
....|..|--- .... ....|--- .... ....|--- .... ....
....|..|--- .... ....|R-- .... ....|F#3 2FDA ....
 A-3|..|--- .... ....|D#5 3FEF ....|A-4 2CDF ....
....|..|--- .... ....|--- .... ....|--- .... ....
....|..|--- .... ....|--- .... ....|--- .... ....
....|..|--- .... ....|R-- .... ....|--- .... ....
....|..|--- .... ....|E-5 3FEF ....|B-3 2FDA ....
....|..|--- .... ....|--- .... ....|--- .... ....
....|..|--- .... ....|--- .... ....|--- .... ....
....|..|--- .... ....|R-- .... ....|--- .... ....
 G#4|..|--- .... ....|F#5 3FEF ....|G#4 2CDF ....
 G#4|..|--- .... ....|--- .... ....|G#4 2CDF ....
....|..|--- .... ....|--- .... ....|--- .... ....
....|..|--- .... ....|R-- .... ....|F#3 2FD7 ....
....|..|--- .... ....|E-5 3FE7 ....|B-2 2FD7 ....
....|..|--- .... ....|--- .... ....|--- .... ....
....|..|--- .... ....|--- .... ....|--- .... ....
....|..|--- .... ....|R-- .... ....|--- .... ....
 G#4|..|--- .... ....|E-5 3FEA ....|G#4 2CDF ....
....|..|--- .... ....|--- .... ....|--- .... ....
....|..|--- .... ....|--- .... ....|--- .... ....
 G#4|..|--- .... ....|R-- .... ....|G#4 2CDF ....
....|..|C-4 AF.F ....|A-4 3FEF ....|C#4 3F.F ....
 E-4|..|E-4 2C.F ....|--- .... ....|G#4 2FDA ....
....|..|C-4 LF.F ....|--- .... ....|A-1 3F.F ....
 A-3|..|A-1 2A.F ....|--- .... ....|--- .... ....
....|..|C-4 AF.F ....|D#5 3FE7 ....|C#5 3F.F ....
 A-3|..|A-1 2A.F ....|--- .... ....|A-1 3F.F ....
....|..|C-4 RF.F ....|--- .... ....|--- .... ....
 A-3|..|A-1 2A.F ....|R-- .... ....|--- .... ....
....|..|C-4 AF.F ....|A-4 3FEF ....|G#4 2FDA ....
 A-3|..|A-1 2A.F ....|--- .... ....|--- .... ....
....|..|C-4 LF.F ....|--- .... ....|C#5 3F.F ....
....|..|R-- .... ....|R-- .... ....|A-1 3F.F ....
....|..|B-8 JF.F ....|G#4 3FEF ....|G#4 2FD7 ....
 A-3|..|A-1 2A.F ....|--- .... ....|G#4 2FD7 ....
....|..|C-4 AF.F ....|--- .... ....|A-1 3F.A ....
 A-3|..|A-1 2A.F ....|--- .... ....|--- .... ....
....|..|B-8 JF.F ....|A-4 3FEF ....|C#5 3F.F ....
....|..|A-1 2F.A ....|--- .... ....|A-1 3F.A ....
....|..|C-4 AF.F ....|--- .... ....|A-1 3F.F ....
 A-3|..|A-1 2A.F ....|--- .... ....|--- .... ....
....|..|C-4 AF.F ....|F#4 3FEF ....|G#4 2FD7 ....
 A-3|..|A-1 2A.F ....|--- .... ....|--- .... ....
....|..|C-4 AF.F ....|--- .... ....|C#5 3F.F ....
 A-3|..|A-1 2A.F ....|R-- .... ....|G#4 2FD7 ....
....|..|C-4 AF.F ....|A-4 3FE7 ....|A-1 3F.F ....
 A-3|..|A-1 2A.F ....|--- .... ....|R-- .... ....
....|..|C-4 AF.F ....|--- .... ....|A-1 3F.7 ....
....|..|A-1 2F.7 ....|--- .... ....|--- .... ....
....|..|B-8 JF.F ....|A-4 3FEA ....|C#5 3F.F ....
 A-3|..|A-1 2A.F ....|--- .... ....|A-1 3F.7 ....
....|..|C-4 AF.F ....|--- .... ....|A-1 3F.A ....
....|..|A-1 2F.7 ....|--- .... ....|--- .... ....

[Pattern27]
....|..|C-4 AF.F ....|A-4 3FEF ....|C#5 3F.F ....
 G#4|..|G#4 2C.F ....|--- .... ....|--- .... ....
....|..|C-4 LF.F ....|--- .... ....|G#1 3F.F ....
 G#3|..|G#1 2A.F ....|--- .... ....|A-1 3F.7 ....
....|..|C-4 AF.F ....|G#4 3FE7 ....|D#5 3F.F ....
 G#3|..|G#1 2A.F ....|--- .... ....|--- .... ....
....|..|C-4 RF.F ....|R-- .... ....|G#1 3F.F ....
 G#3|..|G#1 2A.F ....|--- .... ....|--- .... ....
....|..|C-4 AF.F ....|A-4 3FEF ....|C#5 3F.7 ....
 G#3|..|G#1 2A.F ....|--- .... ....|--- .... ....
....|..|C-4 LF.F ....|R-- .... ....|D#5 3F.F ....
....|..|A-1 2F.7 ....|--- .... ....|--- .... ....
....|..|B-8 JF.F ....|G#4 3FEF ....|G#1 3F.F ....
 G#3|..|G#1 2A.F ....|--- .... ....|--- .... ....
....|..|C-4 AF.F ....|--- .... ....|C#5 3F.7 ....
 G#3|..|G#1 2A.F ....|R-- .... ....|--- .... ....
....|..|B-8 JF.F ....|A-4 3FEF ....|D#5 3F.F ....
....|..|A-1 2F.7 ....|--- .... ....|--- .... ....
....|..|C-4 AF.F ....|R-- .... ....|G#1 3F.F ....
 G#3|..|G#1 2A.F ....|--- .... ....|--- .... ....
....|..|C-4 AF.F ....|D#5 3FEF ....|C#5 3F.7 ....
 G#3|..|G#1 2A.F ....|--- .... ....|--- .... ....
....|..|C-4 AF.F ....|R-- .... ....|D#5 3F.F ....
 G#3|..|G#1 2A.F ....|--- .... ....|--- .... ....
....|..|C-4 AF.F ....|A-4 3FE7 ....|G#1 3F.F ....
 G#3|..|G#1 2A.F ....|--- .... ....|--- .... ....
....|..|C-4 AF.F ....|--- .... ....|G#1 3F.7 ....
....|..|G#1 2F.7 ....|R-- .... ....|--- .... ....
....|..|B-8 JF.F ....|D#5 3FEF ....|D#5 3F.F ....
 E-4|..|E-2 2A.F ....|--- .... ....|--- .... ....
....|..|C-4 AF.F ....|R-- .... ....|G#1 3F.F ....
....|..|G#1 2F.7 ....|--- .... ....|--- .... ....
....|..|C-4 AF.F ....|E-5 3FEF ....|G#3 3F.F ....
 G#4|..|G#4 2C.F ....|--- .... ....|--- .... ....
....|..|C-4 LF.F ....|R-- .... ....|D#5 3F.7 ....
 C#4|..|C#2 2A.F ....|--- .... ....|--- .... ....
....|..|C-4 AF.F ....|G#4 3FE7 ....|G#3 3F.F ....
 C#4|..|C#2 2A.F ....|R-- .... ....|--- .... ....
....|..|C-4 RF.F ....|--- .... ....|G#3 3F.F ....
 C#4|..|C#2 2A.F ....|R-- .... ....|--- .... ....
....|..|C-4 AF.F ....|E-5 3FEF ....|D#5 3F.7 ....
 C#4|..|C#2 2A.F ....|--- .... ....|--- .... ....
....|..|C-4 LF.F ....|R-- .... ....|G#3 3F.F ....
....|..|G#1 2F.7 ....|R-- .... ....|--- .... ....
....|..|B-8 JF.F ....|D#5 3FEF ....|G#3 3F.F ....
 C#4|..|C#2 2A.F ....|--- .... ....|--- .... ....
....|..|C-4 AF.F ....|--- .... ....|D#5 3F.7 ....
 C#4|..|C#2 2A.F ....|R-- .... ....|--- .... ....
....|..|B-8 JF.F ....|E-5 3FEF ....|G#3 3F.F ....
....|..|G#1 2F.7 ....|R-- .... ....|--- .... ....
....|..|C-4 AF.F ....|--- .... ....|G#3 3F.F ....
 C#4|..|C#2 2A.F ....|R-- .... ....|--- .... ....
....|..|C-4 AF.F ....|C#5 3FEF ....|D#5 3F.7 ....
 C#4|..|C#2 2A.F ....|--- .... ....|--- .... ....
....|..|C-4 AF.F ....|--- .... ....|G#3 3F.F ....
 C#4|..|C#2 2A.F ....|R-- .... ....|--- .... ....
....|..|C-4 AF.F ....|E-5 3FE7 ....|G#3 3F.F ....
 C#4|..|C#2 2A.F ....|--- .... ....|--- .... ....
....|..|C-4 AF.F ....|R-- .... ....|--- .... ....
....|..|C#2 2F.7 ....|R-- .... ....|--- .... ....
....|..|B-8 JF.F ....|D#5 3FEF ....|F#3 3F.F ....
 B-3|..|B-1 2A.F ....|R-- .... ....|--- .... ....
....|..|C-4 AF.F ....|--- .... ....|F#3 3F.F ....
....|..|C#2 2F.7 ....|--- .... ....|--- .... ....
....|..|C-4 AF.F ....|E-5 3FEF ....|G#3 3F.F ....
 G#4|..|G#4 2C.F ....|--- .... ....|--- .... ....
....|..|C-4 LF.F ....|--- .... ....|G#3 3F.7 ....
 E-4|..|E-2 2A.F ....|R-- .... ....|--- .... ....
....|..|C-4 AF.F ....|D#5 3FE7 ....|G#3 3F.F ....
 E-4|..|E-2 2A.F ....|R-- .... ....|G#3 3F.F ....
....|..|C-4 RF.F ....|R-- .... ....|--- .... ....
 E-4|..|E-2 2A.F ....|R-- .... ....|--- .... ....
....|..|C-4 AF.F ....|E-5 3FEF ....|G#3 3F.7 ....
 E-4|..|E-2 2A.F ....|--- .... ....|--- .... ....
....|..|C-4 LF.F ....|--- .... ....|G#3 3F.F ....
....|..|C#2 2F.7 ....|R-- .... ....|G#3 3F.F ....
....|..|B-8 JF.F ....|D#5 3FEF ....|G#3 3F.A ....
 E-4|..|E-2 2A.F ....|--- .... ....|--- .... ....
....|..|C-4 AF.F ....|--- .... ....|G#3 3F.7 ....
 E-4|..|E-2 2A.F ....|R-- .... ....|--- .... ....
....|..|B-8 JF.F ....|E-5 3FEF ....|G#3 3F.F ....
....|..|C#2 2F.7 ....|R-- .... ....|G#3 3F.A ....
....|..|C-4 AF.F ....|R-- .... ....|G#3 3F.F ....
 E-4|..|E-2 2A.F ....|--- .... ....|--- .... ....
....|..|C-4 AF.F ....|C#5 3FEF ....|F#3 3F.7 ....
 E-4|..|E-2 2A.F ....|--- .... ....|--- .... ....
....|..|C-4 AF.F ....|--- .... ....|G#3 3F.F ....
 E-4|..|E-2 2A.F ....|R-- .... ....|G#3 3F.A ....
....|..|C-4 AF.F ....|E-5 3FE7 ....|G#3 3F.F ....
 E-4|..|E-2 2A.F ....|--- .... ....|--- .... ....
....|..|C-4 AF.F ....|R-- .... ....|--- .... ....
....|..|E-2 2F.7 ....|R-- .... ....|--- .... ....
....|..|B-8 JF.F ....|E-5 3FEA ....|G#3 3F.F ....
 E-4|..|E-2 2A.F ....|R-- .... ....|G#3 3F.7 ....
....|..|C-4 AF.F ....|--- .... ....|G#3 3F.A ....
....|..|E-2 2F.7 ....|--- .... ....|--- .... ....
....|..|C-4 AF.F ....|A-4 3FEF ....|C#4 3F.F ....
 E-4|..|E-4 2C.F ....|--- .... ....|C#4 3F.F ....
....|..|C-4 LF.F ....|--- .... ....|A-1 3F.F ....
 A-3|..|A-1 2A.F ....|R-- .... ....|G#3 3F.7 ....
....|..|C-4 AF.F ....|D#5 3FE7 ....|C#5 3F.F ....
 A-3|..|A-1 2A.F ....|--- .... ....|A-1 3F.F ....
....|..|C-4 RF.F ....|R-- .... ....|--- .... ....
 A-3|..|A-1 2A.F ....|R-- .... ....|--- .... ....
....|..|C-4 AF.F ....|A-4 3FEF ....|G#3 3F.7 ....
 A-3|..|A-1 2A.F ....|--- .... ....|--- .... ....
....|..|C-4 LF.F ....|--- .... ....|C#5 3F.F ....
....|..|E-2 2F.7 ....|--- .... ....|A-1 3F.F ....
....|..|B-8 JF.F ....|G#4 3FEF ....|C#4 3F.A ....
 A-3|..|A-1 2A.F ....|--- .... ....|C#4 3F.A ....
....|..|C-4 AF.F ....|--- .... ....|G#3 3F.7 ....
 A-3|..|A-1 2A.F ....|--- .... ....|--- .... ....
....|..|B-8 JF.F ....|A-4 3FEF ....|C#5 3F.F ....
....|..|E-2 2F.7 ....|--- .... ....|A-1 3F.A ....
....|..|C-4 AF.F ....|R-- .... ....|A-1 3F.F ....
 A-3|..|A-1 2A.F ....|--- .... ....|--- .... ....
....|..|C-4 AF.F ....|F#4 3FEF ....|G#3 3F.7 ....
 A-3|..|A-1 2A.F ....|--- .... ....|--- .... ....
....|..|C-4 AF.F ....|--- .... ....|C#5 3F.F ....
 A-3|..|A-1 2A.F ....|--- .... ....|A-1 3F.A ....
....|..|C-4 AF.F ....|A-4 3FE7 ....|A-1 3F.F ....
 A-3|..|A-1 2A.F ....|--- .... ....|C#4 3F.7 ....
....|..|C-4 AF.F ....|--- .... ....|A-1 3F.7 ....
....|..|A-1 2F.7 ....|--- .... ....|--- .... ....
....|..|B-8 JF.F ....|A-4 3FEA ....|C#5 3F.F ....
 A-3|..|A-1 2A.F ....|--- .... ....|A-1 3F.7 ....
....|..|C-4 AF.F ....|--- .... ....|A-1 3F.A ....
....|..|A-1 2F.7 ....|--- .... ....|--- .... ....

[Pattern28]
....|..|C-4 AF.F ....|A-4 3FEF ....|C#5 3F.F ....
 G#4|..|G#4 2C.F ....|--- .... ....|--- .... ....
....|..|C-4 LF.F ....|--- .... ....|G#1 3F.F ....
 G#3|..|G#1 2A.F ....|--- .... ....|A-1 3F.7 ....
....|..|C-4 AF.F ....|G#4 3FE7 ....|D#5 3F.F ....
 G#3|..|G#1 2A.F ....|--- .... ....|--- .... ....
....|..|C-4 RF.F ....|R-- .... ....|G#1 3F.F ....
 G#3|..|G#1 2A.F ....|--- .... ....|--- .... ....
....|..|C-4 AF.F ....|A-4 3FEF ....|C#5 3F.7 ....
 G#3|..|G#1 2A.F ....|--- .... ....|--- .... ....
....|..|C-4 LF.F ....|R-- .... ....|D#5 3F.F ....
....|..|A-1 2F.7 ....|--- .... ....|--- .... ....
....|..|B-8 JF.F ....|G#4 3FEF ....|G#1 3F.F ....
 G#3|..|G#1 2A.F ....|--- .... ....|--- .... ....
....|..|C-4 AF.F ....|--- .... ....|C#5 3F.7 ....
 G#3|..|G#1 2A.F ....|R-- .... ....|--- .... ....
....|..|B-8 JF.F ....|A-4 3FEF ....|D#5 3F.F ....
....|..|A-1 2F.7 ....|--- .... ....|--- .... ....
....|..|C-4 AF.F ....|R-- .... ....|G#1 3F.F ....
 G#3|..|G#1 2A.F ....|--- .... ....|--- .... ....
....|..|C-4 AF.F ....|D#5 3FEF ....|C#5 3F.7 ....
 G#3|..|G#1 2A.F ....|--- .... ....|--- .... ....
....|..|C-4 AF.F ....|R-- .... ....|D#5 3F.F ....
 G#3|..|G#1 2A.F ....|--- .... ....|--- .... ....
....|..|C-4 AF.F ....|A-4 3FE7 ....|G#1 3F.F ....
 G#3|..|G#1 2A.F ....|--- .... ....|--- .... ....
....|..|C-4 AF.F ....|--- .... ....|G#1 3F.7 ....
....|..|G#1 2F.7 ....|R-- .... ....|--- .... ....
....|..|B-8 JF.F ....|D#5 3FEF ....|D#5 3F.F ....
 E-4|..|E-2 2A.F ....|--- .... ....|--- .... ....
....|..|C-4 AF.F ....|R-- .... ....|G#1 3F.F ....
....|..|G#1 2F.7 ....|--- .... ....|--- .... ....
....|..|C-4 AF.F ....|E-5 3FEF ....|G#3 3F.F ....
 G#4|..|G#4 2C.F ....|--- .... ....|--- .... ....
....|..|C-4 LF.F ....|R-- .... ....|D#5 3F.7 ....
 C#4|..|C#2 2A.F ....|--- .... ....|--- .... ....
....|..|C-4 AF.F ....|G#4 3FE7 ....|G#3 3F.F ....
 C#4|..|C#2 2A.F ....|R-- .... ....|--- .... ....
....|..|C-4 RF.F ....|--- .... ....|G#3 3F.F ....
 C#4|..|C#2 2A.F ....|R-- .... ....|--- .... ....
....|..|C-4 AF.F ....|E-5 3FEF ....|D#5 3F.7 ....
 C#4|..|C#2 2A.F ....|--- .... ....|--- .... ....
....|..|C-4 LF.F ....|R-- .... ....|G#3 3F.F ....
....|..|G#1 2F.7 ....|R-- .... ....|--- .... ....
....|..|B-8 JF.F ....|D#5 3FEF ....|G#3 3F.F ....
 C#4|..|C#2 2A.F ....|--- .... ....|--- .... ....
....|..|C-4 AF.F ....|--- .... ....|D#5 3F.7 ....
 C#4|..|C#2 2A.F ....|R-- .... ....|--- .... ....
....|..|B-8 JF.F ....|E-5 3FEF ....|G#3 3F.F ....
....|..|G#1 2F.7 ....|R-- .... ....|--- .... ....
....|..|C-4 AF.F ....|--- .... ....|G#3 3F.F ....
 C#4|..|C#2 2A.F ....|R-- .... ....|--- .... ....
....|..|C-4 AF.F ....|C#5 3FEF ....|D#5 3F.7 ....
 C#4|..|C#2 2A.F ....|--- .... ....|--- .... ....
....|..|C-4 AF.F ....|--- .... ....|G#3 3F.F ....
 C#4|..|C#2 2A.F ....|R-- .... ....|--- .... ....
....|..|C-4 AF.F ....|E-5 3FE7 ....|G#3 3F.F ....
 C#4|..|C#2 2A.F ....|--- .... ....|--- .... ....
....|..|C-4 AF.F ....|R-- .... ....|--- .... ....
....|..|C#2 2F.7 ....|R-- .... ....|--- .... ....
....|..|B-8 JF.F ....|D#5 3FEF ....|F#3 3F.F ....
 B-3|..|B-1 2A.F ....|R-- .... ....|--- .... ....
....|..|C-4 AF.F ....|--- .... ....|F#3 3F.F ....
....|..|C#2 2F.7 ....|--- .... ....|--- .... ....
....|..|C-4 AF.F ....|E-5 3FEF ....|G#3 3F.F ....
 E-4|..|E-2 2A.F ....|--- .... ....|--- .... ....
....|..|C-4 LF.F ....|--- .... ....|G#3 3F.7 ....
....|..|C#2 2F.A ....|R-- .... ....|--- .... ....
....|..|C-4 AF.F ....|D#5 3FE7 ....|G#3 3F.F ....
 E-4|..|E-2 2A.F ....|R-- .... ....|G#3 3F.F ....
....|..|C-4 RF.F ....|R-- .... ....|--- .... ....
 E-4|..|E-2 2A.F ....|R-- .... ....|--- .... ....
....|..|C-4 AF.F ....|E-5 3FEF ....|G#3 3F.7 ....
 E-4|..|E-2 2A.F ....|--- .... ....|--- .... ....
....|..|C-4 LF.F ....|--- .... ....|G#3 3F.F ....
....|..|C#2 2F.7 ....|R-- .... ....|G#3 3F.F ....
....|..|B-8 JF.F ....|D#5 3FEF ....|G#3 3F.A ....
 E-4|..|E-2 2A.F ....|--- .... ....|--- .... ....
....|..|C-4 AF.F ....|--- .... ....|G#3 3F.7 ....
 E-4|..|E-2 2A.F ....|R-- .... ....|--- .... ....
....|..|B-8 JF.F ....|E-5 3FEF ....|G#3 3F.F ....
....|..|C#2 2F.7 ....|R-- .... ....|G#3 3F.A ....
....|..|C-4 AF.F ....|R-- .... ....|G#3 3F.F ....
 E-4|..|E-2 2A.F ....|--- .... ....|--- .... ....
....|..|C-4 AF.F ....|C#5 3FEF ....|F#3 3F.7 ....
 E-4|..|E-2 2A.F ....|--- .... ....|--- .... ....
....|..|C-4 AF.F ....|--- .... ....|G#3 3F.F ....
 E-4|..|E-2 2A.F ....|R-- .... ....|G#3 3F.A ....
....|..|C-4 AF.F ....|E-5 3FE7 ....|G#3 3F.F ....
 E-4|..|E-2 2A.F ....|--- .... ....|--- .... ....
....|..|C-4 AF.F ....|R-- .... ....|--- .... ....
....|..|E-2 2F.A ....|R-- .... ....|--- .... ....
....|..|B-8 JF.F ....|D#5 3FEF ....|G#3 3F.F ....
 E-4|..|E-2 2A.F ....|R-- .... ....|G#3 3F.7 ....
....|..|C-4 AF.F ....|--- .... ....|G#3 3F.A ....
....|..|E-2 2F.7 ....|R-- .... ....|--- .... ....
....|..|C-4 AF.F ....|E-5 3FEF ....|G#5 3F.F ....
 E-4|..|E-4 2C.F ....|--- .... ....|A-1 3F.F ....
....|..|C-4 LF.F ....|--- .... ....|G#3 3F.7 ....
 A-3|..|A-1 2A.F ....|R-- .... ....|G#3 3F.7 ....
....|..|C-4 AF.F ....|D#5 3FE7 ....|G#3 3F.A ....
 A-3|..|A-1 2A.F ....|--- .... ....|--- .... ....
....|..|C-4 RF.F ....|R-- .... ....|--- .... ....
 A-3|..|A-1 2A.F ....|R-- .... ....|--- .... ....
....|..|C-4 AF.F ....|E-5 3FEF ....|G#3 3F.7 ....
 A-3|..|A-1 2A.F ....|--- .... ....|--- .... ....
....|..|C-4 LF.F ....|--- .... ....|G#3 3F.7 ....
....|..|E-2 2F.7 ....|R-- .... ....|--- .... ....
....|..|B-8 JF.F ....|D#5 3FEF ....|G#5 3F.A ....
 A-3|..|A-1 2A.F ....|--- .... ....|A-1 3F.A ....
....|..|C-4 AF.F ....|--- .... ....|G#3 3F.7 ....
 A-3|..|A-1 2A.F ....|R-- .... ....|--- .... ....
....|..|B-8 JF.F ....|E-5 3FEF ....|G#3 3F.7 ....
....|..|E-2 2F.7 ....|--- .... ....|--- .... ....
....|..|C-4 AF.F ....|R-- .... ....|--- .... ....
 A-3|..|A-1 2A.F ....|--- .... ....|--- .... ....
....|..|C-4 AF.F ....|F#5 3FEF ....|G#3 3F.7 ....
 A-3|..|A-1 2A.F ....|--- .... ....|--- .... ....
....|..|C-4 AF.F ....|--- .... ....|--- .... ....
 A-3|..|A-1 2A.F ....|R-- .... ....|--- .... ....
....|..|C-4 AF.F ....|E-5 3FE7 ....|G#5 3F.7 ....
 A-3|..|A-1 2A.F ....|--- .... ....|A-1 3F.7 ....
....|..|C-4 AF.F ....|--- .... ....|--- .... ....
....|..|A-1 2F.7 ....|--- .... ....|--- .... ....
....|..|B-8 JF.F ....|E-5 3FEA ....|--- .... ....
 A-3|..|A-1 2A.F ....|--- .... ....|--- .... ....
....|..|C-4 AF.F ....|--- .... ....|--- .... ....
....|..|A-1 2F.7 ....|--- .... ....|--- .... ....

[Pattern29]
....|..|C-4 AF.F ....|F#5 3FEF ....|G#1 3F.F ....
 G#4|..|G#4 2C.F ....|--- .... ....|--- .... ....
....|..|C-4 LF.F ....|--- .... ....|--- .... ....
 G#3|..|G#1 2A.F ....|R-- .... ....|--- .... ....
....|..|C-4 AF.F ....|F#5 3FEF ....|--- .... ....
 G#3|..|G#1 2A.F ....|--- .... ....|--- .... ....
....|..|C-4 RF.F ....|--- .... ....|--- .... ....
 G#3|..|G#1 2A.F ....|--- .... ....|--- .... ....
....|..|C-4 AF.F ....|F#5 3FEF ....|--- .... ....
 G#3|..|G#1 2A.F ....|--- .... ....|--- .... ....
....|..|C-4 LF.F ....|--- .... ....|--- .... ....
....|..|A-1 2F.7 ....|--- .... ....|--- .... ....
....|..|B-8 JF.F ....|F#5 3FEF ....|G#1 3F.A ....
 G#3|..|G#1 2A.F ....|--- .... ....|--- .... ....
....|..|C-4 AF.F ....|--- .... ....|--- .... ....
 G#3|..|G#1 2A.F ....|--- .... ....|--- .... ....
....|..|B-8 JF.F ....|F#5 3FEF ....|--- .... ....
....|..|A-1 2F.7 ....|--- .... ....|--- .... ....
....|..|C-4 AF.F ....|--- .... ....|--- .... ....
 G#3|..|G#1 2A.F ....|--- .... ....|--- .... ....
....|..|C-4 AF.F ....|F#5 3FEF ....|--- .... ....
 G#3|..|G#1 2A.F ....|--- .... ....|--- .... ....
....|..|C-4 AF.F ....|--- .... ....|--- .... ....
 G#3|..|G#1 2A.F ....|--- .... ....|--- .... ....
....|..|C-4 AF.F ....|F#5 3FE7 ....|G#1 3F.7 ....
 G#3|..|G#1 2A.F ....|--- .... ....|--- .... ....
....|..|C-4 AF.F ....|--- .... ....|--- .... ....
....|..|G#1 2F.7 ....|--- .... ....|--- .... ....
....|..|B-8 JF.F ....|D#5 3FEF ....|--- .... ....
 E-4|..|E-2 2A.F ....|--- .... ....|--- .... ....
....|..|C-4 AF.F ....|--- .... ....|--- .... ....
....|..|G#1 2F.7 ....|--- .... ....|--- .... ....
....|..|C-4 AF.F ....|E-5 3FEF ....|C#2 3F.F ....
 G#4|..|G#4 2C.F ....|--- .... ....|--- .... ....
....|..|C-4 LF.F ....|--- .... ....|--- .... ....
 C#4|..|C#2 2A.F ....|--- .... ....|--- .... ....
....|..|C-4 AF.F ....|F#5 3FE7 ....|--- .... ....
 C#4|..|C#2 2A.F ....|--- .... ....|--- .... ....
....|..|C-4 RF.F ....|--- .... ....|--- .... ....
 C#4|..|C#2 2A.F ....|--- .... ....|--- .... ....
....|..|C-4 AF.F ....|E-5 3FEF ....|--- .... ....
 C#4|..|C#2 2A.F ....|--- .... ....|--- .... ....
....|..|C-4 LF.F ....|--- .... ....|--- .... ....
....|..|G#1 2F.7 ....|R-- .... ....|--- .... ....
....|..|B-8 JF.F ....|D#5 3FEF ....|C#2 3F.A ....
 C#4|..|C#2 2A.F ....|--- .... ....|--- .... ....
....|..|C-4 AF.F ....|--- .... ....|--- .... ....
 C#4|..|C#2 2A.F ....|--- .... ....|--- .... ....
....|..|B-8 JF.F ....|E-5 3FEF ....|--- .... ....
....|..|G#1 2F.7 ....|--- .... ....|--- .... ....
....|..|C-4 AF.F ....|--- .... ....|--- .... ....
 C#4|..|C#2 2A.F ....|--- .... ....|--- .... ....
....|..|C-4 AF.F ....|C#5 3FEF ....|--- .... ....
 C#4|..|C#2 2A.F ....|--- .... ....|--- .... ....
....|..|C-4 AF.F ....|--- .... ....|--- .... ....
 C#4|..|C#2 2A.F ....|R-- .... ....|--- .... ....
....|..|C-4 AF.F ....|E-5 3FEF ....|C#2 3F.7 ....
 C#4|..|C#2 2A.F ....|--- .... ....|--- .... ....
....|..|C-4 AF.F ....|--- .... ....|--- .... ....
....|..|C#2 2F.7 ....|--- .... ....|--- .... ....
....|..|B-8 JF.F ....|D#5 3FEF ....|--- .... ....
 B-3|..|B-1 2A.F ....|--- .... ....|--- .... ....
....|..|C-4 AF.F ....|--- .... ....|--- .... ....
....|..|C#2 2F.7 ....|--- .... ....|--- .... ....
....|..|C-4 AF.F ....|E-5 3FEF ....|E-2 3F.F ....
 G#4|..|G#4 2C.F ....|--- .... ....|--- .... ....
....|..|C-4 LF.F ....|--- .... ....|--- .... ....
 E-4|..|E-2 2A.F ....|R-- .... ....|--- .... ....
....|..|C-4 AF.F ....|C#5 3FEF ....|--- .... ....
 E-4|..|E-2 2A.F ....|--- .... ....|--- .... ....
....|..|C-4 RF.F ....|--- .... ....|--- .... ....
 E-4|..|E-2 2A.F ....|C#5 3FEF ....|--- .... ....
....|..|C-4 AF.F ....|E-5 3FE7 ....|--- .... ....
 E-4|..|E-2 2A.F ....|--- .... ....|--- .... ....
....|..|C-4 LF.F ....|--- .... ....|--- .... ....
....|..|C#2 2F.7 ....|--- .... ....|--- .... ....
....|..|B-8 JF.F ....|C#5 3FE7 ....|E-2 3F.A ....
 E-4|..|E-2 2A.F ....|--- .... ....|--- .... ....
....|..|C-4 AF.F ....|--- .... ....|--- .... ....
 E-4|..|E-2 2A.F ....|--- .... ....|--- .... ....
....|..|B-8 JF.F ....|E-5 3FE7 ....|--- .... ....
....|..|C#2 2F.7 ....|--- .... ....|--- .... ....
....|..|C-4 AF.F ....|--- .... ....|--- .... ....
 E-4|..|E-2 2A.F ....|C#5 3FEA ....|--- .... ....
....|..|C-4 AF.F ....|D#5 3FE7 ....|--- .... ....
 E-4|..|E-2 2A.F ....|--- .... ....|--- .... ....
....|..|C-4 AF.F ....|--- .... ....|--- .... ....
 E-4|..|E-2 2A.F ....|--- .... ....|--- .... ....
....|..|C-4 AF.F ....|E-5 3FE7 ....|E-2 3F.7 ....
 E-4|..|E-2 2A.F ....|--- .... ....|--- .... ....
....|..|C-4 AF.F ....|--- .... ....|--- .... ....
....|..|E-2 2F.7 ....|--- .... ....|--- .... ....
....|..|B-8 JF.F ....|D#5 3FEF ....|--- .... ....
 E-4|..|E-2 2A.F ....|--- .... ....|--- .... ....
....|..|C-4 AF.F ....|--- .... ....|--- .... ....
....|..|E-2 2F.7 ....|C#5 3FE7 ....|--- .... ....
....|..|C-4 AF.F ....|E-5 3FEF ....|A-1 3F.F ....
 E-4|..|E-4 2C.F ....|--- .... ....|--- .... ....
....|..|C-4 LF.F ....|--- .... ....|--- .... ....
 A-3|..|A-1 2A.F ....|--- .... ....|--- .... ....
....|..|C-4 AF.F ....|R-- .... ....|--- .... ....
 A-3|..|A-1 2A.F ....|--- .... ....|--- .... ....
....|..|C-4 RF.F ....|--- .... ....|--- .... ....
 A-3|..|A-1 2A.F ....|--- .... ....|--- .... ....
....|..|C-4 AF.F ....|E-5 3FEF ....|--- .... ....
 A-3|..|A-1 2A.F ....|--- .... ....|--- .... ....
....|..|C-4 LF.F ....|--- .... ....|--- .... ....
....|..|E-2 2F.7 ....|R-- .... ....|--- .... ....
....|..|B-8 JF.F ....|D#5 3FEF ....|A-1 3F.A ....
 A-3|..|A-1 2A.F ....|--- .... ....|--- .... ....
....|..|C-4 AF.F ....|--- .... ....|--- .... ....
 A-3|..|A-1 2A.F ....|--- .... ....|--- .... ....
....|..|B-8 JF.F ....|E-5 3FEF ....|--- .... ....
....|..|E-2 2F.7 ....|--- .... ....|--- .... ....
....|..|C-4 AF.F ....|--- .... ....|--- .... ....
 A-3|..|A-1 2A.F ....|--- .... ....|--- .... ....
....|..|C-4 AF.F ....|F#5 3FEF ....|--- .... ....
 A-3|..|A-1 2A.F ....|--- .... ....|--- .... ....
....|..|C-4 AF.F ....|--- .... ....|--- .... ....
 A-3|..|A-1 2A.F ....|R-- .... ....|--- .... ....
....|..|C-4 AF.F ....|E-5 3FE7 ....|A-1 3F.7 ....
 A-3|..|A-1 2A.F ....|--- .... ....|--- .... ....
....|..|C-4 AF.F ....|--- .... ....|--- .... ....
....|..|A-1 2F.7 ....|--- .... ....|--- .... ....
....|..|B-8 JF.F ....|E-5 3FEA ....|--- .... ....
 A-3|..|A-1 2A.F ....|--- .... ....|--- .... ....
....|..|C-4 AF.F ....|--- .... ....|--- .... ....
....|..|A-1 2F.7 ....|--- .... ....|--- .... ....

[Pattern30]
....|..|C-4 AF.F ....|F#5 3FEF ....|G#1 3F.F ....
 G#4|..|G#4 2C.F ....|--- .... ....|--- .... ....
....|..|C-4 LF.F ....|--- .... ....|--- .... ....
 G#3|..|G#1 2A.F ....|R-- .... ....|--- .... ....
....|..|C-4 AF.F ....|F#5 3FEF ....|--- .... ....
 G#3|..|G#1 2A.F ....|--- .... ....|--- .... ....
....|..|C-4 RF.F ....|--- .... ....|--- .... ....
 G#3|..|G#1 2A.F ....|--- .... ....|--- .... ....
....|..|C-4 AF.F ....|F#5 3FEF ....|--- .... ....
 G#3|..|G#1 2A.F ....|--- .... ....|--- .... ....
....|..|C-4 LF.F ....|--- .... ....|--- .... ....
....|..|A-1 2F.7 ....|--- .... ....|--- .... ....
....|..|B-8 JF.F ....|F#5 3FEF ....|G#1 3F.A ....
 G#3|..|G#1 2A.F ....|--- .... ....|--- .... ....
....|..|C-4 AF.F ....|--- .... ....|--- .... ....
 G#3|..|G#1 2A.F ....|--- .... ....|--- .... ....
....|..|B-8 JF.F ....|F#5 3FEF ....|--- .... ....
....|..|A-1 2F.7 ....|--- .... ....|--- .... ....
....|..|C-4 AF.F ....|--- .... ....|--- .... ....
 G#3|..|G#1 2A.F ....|--- .... ....|--- .... ....
....|..|C-4 AF.F ....|F#5 3FEF ....|--- .... ....
 G#3|..|G#1 2A.F ....|--- .... ....|--- .... ....
....|..|C-4 AF.F ....|--- .... ....|--- .... ....
 G#3|..|G#1 2A.F ....|--- .... ....|--- .... ....
....|..|C-4 AF.F ....|F#5 3FE7 ....|G#1 3F.7 ....
 G#3|..|G#1 2A.F ....|--- .... ....|--- .... ....
....|..|C-4 AF.F ....|--- .... ....|--- .... ....
....|..|G#1 2F.7 ....|--- .... ....|--- .... ....
....|..|B-8 JF.F ....|D#5 3FEF ....|--- .... ....
 E-4|..|E-2 2A.F ....|--- .... ....|--- .... ....
....|..|C-4 AF.F ....|--- .... ....|--- .... ....
....|..|G#1 2F.7 ....|--- .... ....|--- .... ....
....|..|C-4 AF.F ....|E-5 3FEF ....|C#2 3F.F ....
 G#4|..|G#4 2C.F ....|--- .... ....|--- .... ....
....|..|C-4 LF.F ....|--- .... ....|--- .... ....
 C#4|..|C#2 2A.F ....|--- .... ....|--- .... ....
....|..|C-4 AF.F ....|F#5 3FE7 ....|--- .... ....
 C#4|..|C#2 2A.F ....|--- .... ....|--- .... ....
....|..|C-4 RF.F ....|--- .... ....|--- .... ....
 C#4|..|C#2 2A.F ....|--- .... ....|--- .... ....
....|..|C-4 AF.F ....|E-5 3FEF ....|--- .... ....
 C#4|..|C#2 2A.F ....|--- .... ....|--- .... ....
....|..|C-4 LF.F ....|--- .... ....|--- .... ....
....|..|G#1 2F.7 ....|R-- .... ....|--- .... ....
....|..|B-8 JF.F ....|D#5 3FEF ....|C#2 3F.A ....
 C#4|..|C#2 2A.F ....|--- .... ....|--- .... ....
....|..|C-4 AF.F ....|--- .... ....|--- .... ....
 C#4|..|C#2 2A.F ....|--- .... ....|--- .... ....
....|..|B-8 JF.F ....|E-5 3FEF ....|--- .... ....
....|..|G#1 2F.7 ....|--- .... ....|--- .... ....
....|..|C-4 AF.F ....|--- .... ....|--- .... ....
 C#4|..|C#2 2A.F ....|--- .... ....|--- .... ....
....|..|C-4 AF.F ....|C#5 3FEF ....|--- .... ....
 C#4|..|C#2 2A.F ....|--- .... ....|--- .... ....
....|..|C-4 AF.F ....|--- .... ....|--- .... ....
 C#4|..|C#2 2A.F ....|R-- .... ....|--- .... ....
....|..|C-4 AF.F ....|E-5 3FEF ....|C#2 3F.7 ....
 C#4|..|C#2 2A.F ....|--- .... ....|--- .... ....
....|..|C-4 AF.F ....|--- .... ....|--- .... ....
....|..|C#2 2F.7 ....|--- .... ....|--- .... ....
....|..|B-8 JF.F ....|D#5 3FEF ....|--- .... ....
 B-3|..|B-1 2A.F ....|--- .... ....|--- .... ....
....|..|C-4 AF.F ....|--- .... ....|--- .... ....
....|..|C#2 2F.7 ....|--- .... ....|--- .... ....
....|..|C-4 LF.F ....|E-5 3FEF ....|E-2 3F.F ....
....|..|C#2 2F.7 ....|--- .... ....|--- .... ....
....|..|C-4 LF.7 ....|--- .... ....|--- .... ....
....|..|C#2 2F.A ....|R-- .... ....|--- .... ....
....|..|C-4 AF.F ....|C#5 3FEF ....|--- .... ....
....|..|C#2 2F.7 ....|--- .... ....|--- .... ....
....|..|C-4 AF.7 ....|--- .... ....|--- .... ....
....|..|C#2 2F.7 ....|C#5 3FEF ....|--- .... ....
....|..|C-4 AF.F ....|E-5 3FE7 ....|--- .... ....
....|..|B-1 2F.A ....|--- .... ....|--- .... ....
....|..|C-4 AF.7 ....|--- .... ....|--- .... ....
....|..|C#2 2F.7 ....|--- .... ....|--- .... ....
....|..|B-8 JF.F ....|C#5 3FE7 ....|E-2 3F.A ....
....|..|C#2 2F.7 ....|--- .... ....|--- .... ....
....|..|C-5 VF.F ....|--- .... ....|--- .... ....
....|..|C#2 2F.7 ....|--- .... ....|--- .... ....
....|..|B-8 JF.F ....|E-5 3FE7 ....|--- .... ....
....|..|C#2 2F.7 ....|--- .... ....|--- .... ....
....|..|C-4 AF.F ....|--- .... ....|--- .... ....
....|..|R-- .... ....|C#5 3FEA ....|--- .... ....
....|..|B-8 JF.F ....|D#5 3FE7 ....|--- .... ....
....|..|B-1 2F.7 ....|--- .... ....|--- .... ....
....|..|C-4 AF.F ....|--- .... ....|--- .... ....
....|..|--- .... ....|--- .... ....|--- .... ....
....|..|C-4 AF.F ....|E-5 3FE7 ....|E-2 3F.7 ....
....|..|R-- .... ....|--- .... ....|--- .... ....
....|..|C-5 VF.A ....|--- .... ....|--- .... ....
....|..|--- .... ....|--- .... ....|--- .... ....
....|..|B-8 JF.F ....|D#5 3FEF ....|--- .... ....
....|..|--- .... ....|--- .... ....|--- .... ....
....|..|C-4 AF.F ....|--- .... ....|--- .... ....
....|..|--- .... ....|C#5 3FE7 ....|--- .... ....
....|..|C-4 AF.F ....|E-5 3FEF ....|R-- .... ....
....|..|--- .... ....|--- .... ....|--- .... ....
....|..|C-4 LF.F ....|--- .... ....|--- .... ....
....|..|--- .... ....|--- .... ....|--- .... ....
....|..|C-4 AF.F ....|R-- .... ....|--- .... ....
....|..|--- .... ....|--- .... ....|--- .... ....
....|..|C-4 LF.F ....|--- .... ....|--- .... ....
....|..|--- .... ....|--- .... ....|--- .... ....
....|..|C-5 VF.F ....|E-5 3FEF ....|--- .... ....
....|..|--- .... ....|--- .... ....|--- .... ....
....|..|C-4 LF.F ....|--- .... ....|--- .... ....
....|..|--- .... ....|R-- .... ....|--- .... ....
....|..|B-8 JF.F ....|D#5 3FEF ....|R-- .... ....
....|..|--- .... ....|--- .... ....|--- .... ....
....|..|C-4 AF.F ....|--- .... ....|--- .... ....
....|..|--- .... ....|--- .... ....|--- .... ....
....|..|B-8 JF.F ....|E-5 3FEF ....|--- .... ....
....|..|--- .... ....|--- .... ....|--- .... ....
....|..|C-4 LF.F ....|--- .... ....|--- .... ....
....|..|--- .... ....|--- .... ....|--- .... ....
....|..|C-4 AF.F ....|C#5 3FEF ....|--- .... ....
....|..|--- .... ....|--- .... ....|--- .... ....
....|..|C-4 AF.F ....|--- .... ....|--- .... ....
....|..|--- .... ....|R-- .... ....|--- .... ....
....|..|C-5 VF.F ....|E-5 3FEF ....|R-- .... ....
....|..|--- .... ....|--- .... ....|--- .... ....
....|..|C-4 AF.F ....|--- .... ....|--- .... ....
....|..|--- .... ....|--- .... ....|--- .... ....
....|..|B-8 JF.F ....|D#5 3FEF ....|--- .... ....
....|..|--- .... ....|--- .... ....|--- .... ....
....|..|C-5 VF.F ....|--- .... ....|--- .... ....
....|..|--- .... ....|--- .... ....|--- .... ....

[Pattern31]
....|..|C-4 AF.F ....|E-5 3FEF ....|--- .... ....
....|..|--- .... ....|--- .... ....|--- .... ....
....|..|C-4 LF.F ....|--- .... ....|--- .... ....
....|..|--- .... ....|--- .... ....|--- .... ....
....|..|C-4 AF.F ....|C#5 3FEF ....|--- .... ....
....|..|--- .... ....|--- .... ....|--- .... ....
....|..|C-4 LF.F ....|--- .... ....|--- .... ....
....|..|--- .... ....|R-- .... ....|--- .... ....
....|..|C-5 VF.F ....|E-5 3FEF ....|--- .... ....
....|..|--- .... ....|--- .... ....|--- .... ....
....|..|C-4 LF.F ....|--- .... ....|--- .... ....
....|..|--- .... ....|--- .... ....|--- .... ....
....|..|B-8 JF.F ....|D#5 3FEF ....|--- .... ....
....|..|--- .... ....|--- .... ....|--- .... ....
....|..|C-4 AF.F ....|--- .... ....|--- .... ....
....|..|--- .... ....|--- .... ....|--- .... ....
....|..|B-8 JF.F ....|E-5 3FEF ....|--- .... ....
....|..|--- .... ....|--- .... ....|--- .... ....
....|..|C-4 LF.F ....|--- .... ....|--- .... ....
....|..|--- .... ....|R-- .... ....|--- .... ....
....|..|C-4 AF.F ....|C#5 3FEF ....|--- .... ....
....|..|--- .... ....|--- .... ....|--- .... ....
....|..|C-4 AF.F ....|--- .... ....|--- .... ....
....|..|--- .... ....|R-- .... ....|--- .... ....
....|..|C-5 VF.F ....|E-5 3FE7 ....|--- .... ....
....|..|--- .... ....|--- .... ....|--- .... ....
....|..|C-4 AF.F ....|--- .... ....|--- .... ....
....|..|--- .... ....|--- .... ....|--- .... ....
....|..|B-8 JF.F ....|C#5 3FE7 ....|--- .... ....
....|..|--- .... ....|--- .... ....|--- .... ....
....|..|C-5 VF.F ....|--- .... ....|--- .... ....
....|..|--- .... ....|R-- .... ....|--- .... ....
....|..|C-4 AF.F ....|E-5 3FE7 ....|--- .... ....
....|..|--- .... ....|--- .... ....|--- .... ....
....|..|C-4 LF.F ....|--- .... ....|--- .... ....
....|..|--- .... ....|R-- .... ....|--- .... ....
....|..|C-4 AF.F ....|D#5 3FE7 ....|--- .... ....
....|..|--- .... ....|--- .... ....|--- .... ....
....|..|C-4 LF.F ....|--- .... ....|--- .... ....
....|..|--- .... ....|--- .... ....|--- .... ....
....|..|C-5 VF.F ....|E-5 3FE7 ....|--- .... ....
....|..|--- .... ....|--- .... ....|--- .... ....
....|..|C-4 LF.F ....|--- .... ....|--- .... ....
....|..|--- .... ....|--- .... ....|--- .... ....
....|..|B-8 JF.F ....|C#5 3FE7 ....|--- .... ....
....|..|--- .... ....|--- .... ....|--- .... ....
....|..|C-4 AF.F ....|--- .... ....|--- .... ....
....|..|--- .... ....|R-- .... ....|--- .... ....
....|..|B-8 JF.F ....|--- .... ....|--- .... ....
....|..|--- .... ....|--- .... ....|--- .... ....
....|..|C-4 LF.F ....|--- .... ....|--- .... ....
....|..|--- .... ....|--- .... ....|--- .... ....
....|..|C-4 AF.F ....|--- .... ....|--- .... ....
....|..|--- .... ....|--- .... ....|--- .... ....
....|..|C-4 AF.F ....|--- .... ....|--- .... ....
....|..|--- .... ....|--- .... ....|--- .... ....
....|..|C-5 VF.F ....|--- .... ....|--- .... ....
....|..|--- .... ....|--- .... ....|--- .... ....
....|..|C-4 AF.F ....|--- .... ....|--- .... ....
....|..|--- .... ....|--- .... ....|--- .... ....
....|..|B-8 JF.F ....|--- .... ....|--- .... ....
....|..|--- .... ....|--- .... ....|--- .... ....
....|..|C-5 VF.F ....|--- .... ....|--- .... ....
....|..|--- .... ....|--- .... ....|--- .... ....
....|..|C-4 AF.F ....|--- .... ....|--- .... ....
....|..|--- .... ....|--- .... ....|--- .... ....
....|..|C-4 LF.F ....|--- .... ....|--- .... ....
....|..|--- .... ....|--- .... ....|--- .... ....
....|..|C-4 AF.F ....|--- .... ....|--- .... ....
....|..|--- .... ....|--- .... ....|--- .... ....
....|..|C-4 LF.F ....|--- .... ....|--- .... ....
....|..|--- .... ....|--- .... ....|--- .... ....
....|..|C-4 AF.F ....|--- .... ....|--- .... ....
....|..|--- .... ....|--- .... ....|--- .... ....
....|..|C-4 LF.F ....|--- .... ....|--- .... ....
....|..|--- .... ....|--- .... ....|--- .... ....
....|..|B-8 JF.F ....|--- .... ....|--- .... ....
....|..|--- .... ....|--- .... ....|--- .... ....
....|..|C-4 AF.F ....|--- .... ....|--- .... ....
....|..|--- .... ....|--- .... ....|--- .... ....
....|..|B-8 JF.F ....|--- .... ....|--- .... ....
....|..|--- .... ....|--- .... ....|--- .... ....
....|..|C-4 LF.F ....|--- .... ....|--- .... ....
....|..|--- .... ....|--- .... ....|--- .... ....
....|..|C-4 AF.F ....|--- .... ....|--- .... ....
....|..|--- .... ....|--- .... ....|--- .... ....
....|..|C-4 AF.F ....|--- .... ....|--- .... ....
....|..|--- .... ....|--- .... ....|--- .... ....
....|..|C-4 AF.F ....|--- .... ....|--- .... ....
....|..|--- .... ....|--- .... ....|--- .... ....
....|..|C-4 AF.F ....|--- .... ....|--- .... ....
....|..|--- .... ....|--- .... ....|--- .... ....
....|..|B-8 JF.F ....|--- .... ....|--- .... ....
....|..|--- .... ....|--- .... ....|--- .... ....
....|..|C-5 VF.F ....|--- .... ....|--- .... ....
....|..|--- .... ....|--- .... ....|--- .... ....
....|..|C-4 AF.F ....|E-5 3FEF ....|--- .... ....
....|..|--- .... ....|--- .... ....|--- .... ....
....|..|C-4 LF.F ....|--- .... ....|--- .... ....
....|..|--- .... ....|--- .... ....|--- .... ....
....|..|C-4 AF.F ....|R-- .... ....|--- .... ....
....|..|--- .... ....|--- .... ....|--- .... ....
....|..|C-4 LF.F ....|--- .... ....|--- .... ....
....|..|--- .... ....|--- .... ....|--- .... ....
....|..|C-5 VF.F ....|E-5 3FEF ....|--- .... ....
....|..|--- .... ....|--- .... ....|--- .... ....
....|..|C-4 LF.F ....|--- .... ....|--- .... ....
....|..|--- .... ....|--- .... ....|--- .... ....
....|..|B-8 JF.F ....|D#5 3FEF ....|--- .... ....
....|..|--- .... ....|--- .... ....|--- .... ....
....|..|C-4 AF.F ....|--- .... ....|--- .... ....
....|..|--- .... ....|--- .... ....|--- .... ....
....|..|B-8 JF.F ....|E-5 3FEF ....|--- .... ....
....|..|--- .... ....|--- .... ....|--- .... ....
....|..|C-4 LF.F ....|--- .... ....|--- .... ....
....|..|--- .... ....|--- .... ....|--- .... ....
....|..|C-4 AF.F ....|C#5 3FEF ....|--- .... ....
....|..|--- .... ....|--- .... ....|--- .... ....
....|..|C-4 AF.F ....|--- .... ....|--- .... ....
....|..|--- .... ....|--- .... ....|--- .... ....
....|..|C-5 VF.F ....|E-5 3FEF ....|--- .... ....
....|..|--- .... ....|--- .... ....|--- .... ....
....|..|C-4 AF.F ....|--- .... ....|--- .... ....
....|..|--- .... ....|--- .... ....|--- .... ....
....|..|B-8 JF.F ....|D#5 3FEF ....|--- .... ....
....|..|--- .... ....|--- .... ....|--- .... ....
....|..|C-5 VF.F ....|--- .... ....|--- .... ....
....|..|--- .... ....|--- .... ....|--- .... ....

[Pattern32]
....|..|C-4 AF.F ....|E-5 3FEF ....|--- .... ....
....|..|--- .... ....|--- .... ....|--- .... ....
....|..|C-4 LF.F ....|--- .... ....|--- .... ....
....|..|--- .... ....|--- .... ....|--- .... ....
....|..|C-4 AF.F ....|C#5 3FEF ....|--- .... ....
....|..|--- .... ....|--- .... ....|--- .... ....
....|..|C-4 LF.F ....|--- .... ....|--- .... ....
....|..|--- .... ....|R-- .... ....|--- .... ....
....|..|C-5 VF.F ....|E-5 3FEF ....|--- .... ....
....|..|--- .... ....|--- .... ....|--- .... ....
....|..|C-4 LF.F ....|--- .... ....|--- .... ....
....|..|--- .... ....|--- .... ....|--- .... ....
....|..|B-8 JF.F ....|D#5 3FEF ....|--- .... ....
....|..|--- .... ....|--- .... ....|--- .... ....
....|..|C-4 AF.F ....|--- .... ....|--- .... ....
....|..|--- .... ....|--- .... ....|--- .... ....
....|..|B-8 JF.F ....|E-5 3FEF ....|--- .... ....
....|..|--- .... ....|--- .... ....|--- .... ....
....|..|C-4 LF.F ....|--- .... ....|--- .... ....
....|..|--- .... ....|R-- .... ....|--- .... ....
....|..|C-4 AF.F ....|C#5 3FEF ....|--- .... ....
....|..|--- .... ....|--- .... ....|--- .... ....
....|..|C-4 AF.F ....|--- .... ....|--- .... ....
....|..|--- .... ....|R-- .... ....|--- .... ....
....|..|C-5 VF.F ....|E-5 3FE7 ....|--- .... ....
....|..|--- .... ....|--- .... ....|--- .... ....
....|..|C-4 AF.F ....|--- .... ....|--- .... ....
....|..|--- .... ....|--- .... ....|--- .... ....
....|..|B-8 JF.F ....|C#5 3FE7 ....|--- .... ....
....|..|--- .... ....|--- .... ....|--- .... ....
....|..|C-5 VF.F ....|--- .... ....|--- .... ....
....|..|--- .... ....|R-- .... ....|--- .... ....
....|..|C-4 AF.F ....|E-5 3FE7 ....|--- .... ....
....|..|--- .... ....|--- .... ....|--- .... ....
....|..|C-4 LF.F ....|--- .... ....|--- .... ....
....|..|--- .... ....|R-- .... ....|--- .... ....
....|..|C-4 AF.F ....|D#5 3FE7 ....|--- .... ....
....|..|--- .... ....|--- .... ....|--- .... ....
....|..|C-4 LF.F ....|--- .... ....|--- .... ....
....|..|--- .... ....|--- .... ....|--- .... ....
....|..|C-5 VF.F ....|E-5 3FE7 ....|--- .... ....
....|..|--- .... ....|--- .... ....|--- .... ....
....|..|C-4 LF.F ....|--- .... ....|--- .... ....
....|..|--- .... ....|--- .... ....|--- .... ....
....|..|B-8 JF.F ....|C#5 3FE7 ....|--- .... ....
....|..|--- .... ....|--- .... ....|--- .... ....
....|..|C-4 AF.F ....|--- .... ....|--- .... ....
....|..|--- .... ....|R-- .... ....|--- .... ....
....|..|B-8 JF.F ....|--- .... ....|--- .... ....
....|..|--- .... ....|--- .... ....|--- .... ....
....|..|C-4 LF.F ....|--- .... ....|--- .... ....
....|..|--- .... ....|--- .... ....|--- .... ....
....|..|C-4 AF.F ....|--- .... ....|--- .... ....
....|..|--- .... ....|--- .... ....|--- .... ....
....|..|C-4 AF.F ....|--- .... ....|--- .... ....
....|..|--- .... ....|--- .... ....|--- .... ....
....|..|C-5 VF.F ....|--- .... ....|--- .... ....
....|..|--- .... ....|--- .... ....|--- .... ....
....|..|C-4 AF.F ....|--- .... ....|--- .... ....
....|..|--- .... ....|--- .... ....|--- .... ....
....|..|B-8 JF.F ....|--- .... ....|--- .... ....
....|..|--- .... ....|--- .... ....|--- .... ....
....|..|C-5 VF.F ....|--- .... ....|--- .... ....
....|..|--- .... ....|--- .... ....|--- .... ....
....|..|C-4 AF.F ....|--- .... ....|--- .... ....
....|..|--- .... ....|--- .... ....|--- .... ....
....|..|C-4 LF.F ....|--- .... ....|--- .... ....
....|..|--- .... ....|--- .... ....|--- .... ....
....|..|C-4 AF.F ....|--- .... ....|--- .... ....
....|..|--- .... ....|--- .... ....|--- .... ....
....|..|C-4 LF.F ....|--- .... ....|--- .... ....
....|..|--- .... ....|--- .... ....|--- .... ....
....|..|C-4 AF.F ....|--- .... ....|--- .... ....
....|..|--- .... ....|--- .... ....|--- .... ....
....|..|C-4 LF.F ....|--- .... ....|--- .... ....
....|..|--- .... ....|--- .... ....|--- .... ....
....|..|B-8 JF.F ....|--- .... ....|--- .... ....
....|..|--- .... ....|--- .... ....|--- .... ....
....|..|C-4 AF.F ....|--- .... ....|--- .... ....
....|..|--- .... ....|--- .... ....|--- .... ....
....|..|B-8 JF.F ....|--- .... ....|--- .... ....
....|..|--- .... ....|--- .... ....|--- .... ....
....|..|C-5 VF.F ....|--- .... ....|--- .... ....
....|..|--- .... ....|--- .... ....|--- .... ....
....|..|C-4 AF.F ....|--- .... ....|--- .... ....
....|..|--- .... ....|--- .... ....|--- .... ....
....|..|C-4 AF.F ....|--- .... ....|--- .... ....
....|..|--- .... ....|--- .... ....|--- .... ....
....|..|C-4 AF.F ....|--- .... ....|--- .... ....
....|..|--- .... ....|--- .... ....|--- .... ....
....|..|C-4 AF.F ....|--- .... ....|--- .... ....
....|..|--- .... ....|--- .... ....|--- .... ....
....|..|B-8 JF.F ....|--- .... ....|--- .... ....
....|..|--- .... ....|--- .... ....|--- .... ....
....|..|C-4 LF.F ....|--- .... ....|--- .... ....
....|..|--- .... ....|--- .... ....|--- .... ....
....|..|C-4 AF.F ....|--- .... ....|--- .... ....
....|..|--- .... ....|--- .... ....|--- .... ....
....|..|C-4 LF.7 ....|--- .... ....|--- .... ....
....|..|--- .... ....|--- .... ....|--- .... ....
....|..|B-8 JF.7 ....|--- .... ....|--- .... ....
....|..|--- .... ....|--- .... ....|--- .... ....
....|..|C-4 AF.7 ....|--- .... ....|--- .... ....
....|..|--- .... ....|--- .... ....|--- .... ....
....|..|B-8 JF.7 ....|--- .... ....|--- .... ....
....|..|--- .... ....|--- .... ....|--- .... ....
....|..|C-5 VF.7 ....|--- .... ....|--- .... ....
....|..|--- .... ....|--- .... ....|--- .... ....
....|..|C-4 AF.7 ....|--- .... ....|--- .... ....
....|..|--- .... ....|--- .... ....|--- .... ....
....|..|C-4 AF.7 ....|--- .... ....|--- .... ....
....|..|--- .... ....|--- .... ....|--- .... ....
....|..|C-4 AF.7 ....|--- .... ....|--- .... ....
....|..|--- .... ....|--- .... ....|--- .... ....
....|..|C-4 AF.7 ....|--- .... ....|--- .... ....
....|..|--- .... ....|--- .... ....|--- .... ....
....|..|B-8 JF.7 ....|--- .... ....|--- .... ....
....|..|--- .... ....|--- .... ....|--- .... ....
....|..|C-4 LF.7 ....|--- .... ....|--- .... ....
....|..|--- .... ....|--- .... ....|--- .... ....
....|..|C-4 AF.7 ....|--- .... ....|--- .... ....
....|..|--- .... ....|--- .... ....|--- .... ....
....|..|--- .... ....|--- .... ....|--- .... ....
....|..|--- .... ....|--- .... ....|--- .... ....
....|..|--- .... ....|--- .... ....|--- .... ....
....|..|--- .... ....|--- .... ....|--- .... ....
....|..|--- .... ....|--- .... ....|--- .... ....
....|..|--- .... ....|--- .... ....|--- .... ....

[Pattern33]
....|..|--- .... ....|--- .... ....|--- .... ....
....|..|--- .... ....|--- .... ....|--- .... ....
....|..|--- .... ....|--- .... ....|--- .... ....
....|..|--- .... ....|--- .... ....|--- .... ....
....|..|--- .... ....|--- .... ....|--- .... ....
....|..|--- .... ....|--- .... ....|--- .... ....
....|..|--- .... ....|--- .... ....|--- .... ....
....|..|--- .... ....|--- .... ....|--- .... ....
....|..|--- .... ....|--- .... ....|--- .... ....
....|..|--- .... ....|--- .... ....|--- .... ....
....|..|--- .... ....|--- .... ....|--- .... ....
....|..|--- .... ....|--- .... ....|--- .... ....
....|..|--- .... ....|--- .... ....|--- .... ....
....|..|--- .... ....|--- .... ....|--- .... ....
....|..|--- .... ....|--- .... ....|--- .... ....
....|..|--- .... ....|--- .... ....|--- .... ....
....|..|--- .... ....|--- .... ....|--- .... ....
....|..|--- .... ....|--- .... ....|--- .... ....
....|..|--- .... ....|--- .... ....|--- .... ....
....|..|--- .... ....|--- .... ....|--- .... ....
....|..|--- .... ....|--- .... ....|--- .... ....
....|..|--- .... ....|--- .... ....|--- .... ....
....|..|--- .... ....|--- .... ....|--- .... ....
