[Module]
VortexTrackerII=0
Version=3.5
Title=3p[u],4m[3]-6m[u]+,2me
Author=oisee ^ 4d 29.05.2010
NoteTable=4
ChipFreq=1750000
Speed=4
PlayOrder=L0,0,2,3,4,5,6,7,8,9,10,11,12,13,14,15,16,17,18,19,20,21,22,23,24,24,26,27,28,29,30,31,32,33


[Ornament1]
L0,0,7,7

[Ornament2]
L0,0,1,1

[Ornament3]
L0,0,6,6

[Ornament4]
L0,0,6,6,7,7

[Ornament5]
L0,0,4,4

[Ornament6]
L0,0,4,4,5,5

[Ornament7]
L0,0,5,5

[Ornament8]
L0,0,2,2

[Ornament9]
L0,0,2,2,3,3

[Ornament10]
L0,0,3,3

[Ornament11]
L0,0,7,7,12,12

[Ornament12]
L0,0,3,3,7,7

[Ornament13]
L0,0,4,4,7,7

[Ornament14]
L0,0,4,4,9,9

[Ornament15]
L0,0,1,1,3,3


[Sample1]
TnE +000_ +00_ F_
TnE +000_ +00_ F_
TnE +000_ +00_ F_
TnE +000_ +00_ D_
TnE +000_ +00_ B_
TnE +000_ +00_ B_ L

[Sample2]
TnE +000_ +00_ F_ L

[Sample3]
TnE +001_ +00_ F_
TnE +002_ +00_ F_
TnE +001_ +00_ E_
TnE +002_ +00_ E_
TnE +000_ +00_ E_ L
TnE -001_ +00_ E_
TnE -002_ +00_ E_
TnE -001_ +00_ E_
TnE +000_ +00_ E_
TnE +001_ +00_ E_
TnE +002_ +00_ E_
TnE +001_ +00_ E_

[Sample4]
TnE +002_ +00_ D_
TnE +002_ +00_ D_
TnE +002_ +00_ C_
TnE +002_ +00_ B_
TnE +002_ +00_ A_ L
TnE +002_ +00_ A_
TnE +002_ +00_ A_
TnE +002_ +00_ A_
TnE +002_ +00_ A_
TnE +002_ +00_ A_
TnE +002_ +00_ A_
TnE +002_ +00_ A_

[Sample5]
TnE +000_ +00_ F_
TnE +000_ +00_ F_
tne +000_ +00_ 0_ L

[Sample6]
TnE -001_ +00_ F_ L

[Sample7]
TnE +006_ +00_ F_ L

[Sample8]
tNe +000_ +00_ F_
tNe +000_ +00_ B_
tNe +000_ +00_ 7_
tNe +000_ +00_ 6- L

[Sample9]
TnE +080_ +00_ F_
TnE +100_ +00_ E_
TnE +180_ +00_ E_
TnE +200_ +00_ E_
TnE +240_ +00_ D_
TnE +280_ +00_ D_
TnE +2C0_ +00_ D_
TnE +300_ +00_ C_
TnE +300_ +00_ C_
TnE +340_ +00_ C_
TnE +340_ +00_ C_
TnE +380_ +00_ B_
TnE +380_ +00_ B_
TnE +400_ +00_ B_
TnE +400_ +00_ B_
TnE +480_ +00_ A_
TnE +500_ +00_ 9_
TnE +580_ +00_ 7_
TnE +600_ +00_ 4_
TnE +680_ +00_ 1_
TnE +000_ +00_ 0_ L

[Sample10]
Tne +1C0_ +00_ F_
Tne +280_ +00_ E_
Tne +380_ +00_ C_
Tne +440_ +00_ A_
Tne +480_ +00_ 8_
TnE +000_ +00_ 0_ L

[Sample11]
TNe +200_ -0A_ F_
tNe +000_ +0F_ A_
TNe +200_ -07_ E_
tNe +000_ +0E_ B- L

[Sample12]
TNE +0A0_ +05_ F_
TNE +140_ +02_ D_
TNE +140_ +02_ B_
TNE +100_ +00_ A_ L
TNE +140_ +00_ A_
TNE +200_ +00_ A-

[Sample13]
Tne +200_ +00_ F_
Tne +2C0_ +00_ F_
Tne +380_ +00_ E_
Tne +500_ +00_ C_
Tne +520_ +00_ 9_
tne +000_ +00_ 0_ L

[Sample14]
TNE -100_ +00_ F_
TNE -100_ +00_ D_
TNE -100_ +00_ A_
TNE -100_ +00_ 5_
tne +000_ +00_ 0_ L

[Sample15]
TNE -100_ +00_ 5_
TNE -100_ +00_ 8_
TNE -100_ +00_ B_
TNE -100_ +00_ F_
TNe -100_ +00_ 9- L

[Sample16]
TnE +000_ +00_ C_
TnE +000_ +00_ E_
TnE +000_ +00_ F_
TnE +000_ +00_ F_
TnE +000_ +00_ E_
TnE +000_ +00_ D_
TnE +000_ +00_ C_
TnE +000_ +00_ C_ L
TnE +001_ +00_ C_
TnE +002_ +00_ C_
TnE +003_ +00_ C_
TnE +001_ +00_ C_
TnE +000_ +00_ C_
TnE -001_ +00_ C_
TnE -002_ +00_ C_
TnE -003_ +00_ C_
TnE -001_ +00_ C_
TnE +000_ +00_ C_
TnE +000_ +00_ C_

[Sample17]
Tne +1C0_ +00_ F_
Tne +280_ +00_ D_
Tne +380_ +00_ 7_
TNE +000_ +00_ 0_ L

[Sample18]
TnE -00C_ +00_ 0_ L

[Sample19]
TNe +000_ +00_ F_
TNe +000_ +00_ C_
TNe +000_ +00_ 6_
TNe +000_ +01_ A- L

[Sample20]
TNE +140_ +00_ F_
tNE +000_ +00_ B- L

[Sample21]
tNE +000_ +00_ D_
tNE +000_ +00_ 8_
tNE +000_ +00_ 1_
TNE +000_ +00_ 0_ L

[Sample22]
TnE +000_ +00_ D_ L
TnE +000_ +00_ D_
tne +000_ +00_ 9_
tne +000_ +00_ 9_
TnE +000_ +00_ D_
TnE +000_ +00_ D_
tne +000_ +00_ 9_
tne +000_ +00_ 9_
TnE +000_ +00_ D_
TnE +000_ +00_ D_
TnE +000_ +00_ D_
TnE +000_ +00_ D_
TnE +000_ +00_ D_
TnE +000_ +00_ D_
tne +000_ +00_ 9_
tne +000_ +00_ 9_

[Sample23]
TnE +000_ +00_ F_ L
TnE +010_ +01_ F_
TnE +010_ +01_ F_
TnE +010_ +01_ F_
TnE +010_ +01_ F_
TnE +000_ +00_ F_
TnE +000_ +00_ F_
TnE -010_ -01_ F_
TnE -010_ -01_ F_
TnE -010_ -01_ F_
TnE -010_ -01_ F_
TnE +000_ +00_ F_

[Sample24]
TNe +000_ -01_ C_
TNe +000_ -01_ D_
TNe +000_ -01_ E_
TNe +000_ -01_ F_
TNe +000_ -01_ F_
TNe +000_ -01_ F_
TNe +000_ -01_ F_
TNe +000_ -01_ F_
TNe +000_ -01_ E_
TNe +000_ -01_ E_
TNe +000_ -01_ E_
TNe +000_ -01_ F_
TNe +000_ -01_ F_ L

[Sample25]
TNE +000_ +00_ F_
TNE +000_ +00_ F_ L
TNE +000_ +00_ F_
TNE +000_ +00_ F_
TNE +000_ +00_ F-

[Sample26]
tne +000_ +00_ 0_ L

[Sample27]
TnE +100_ +05_ F_
TnE +200_ +02_ A_
TnE +300_ +02_ 7_
TNE +400_ +00_ 3- L

[Sample28]
tne +000_ +00_ 0_ L

[Sample29]
tnE +000_ +00_ 0_ L

[Sample30]
TNE +000_ +00_ C+ L

[Sample31]
TNe +1C0_ +00_ F_
Tne +280_ +00_ E_
Tne +380_ +00_ C_
Tne +440_ +00_ A_
Tne +480_ +00_ 8_
TnE +000_ +00_ 0_ L

[Pattern0]
....|..|--- .... ....|--- .... ....|--- .... ....
....|..|--- .... ....|--- .... ....|--- .... ....
....|..|--- .... ....|--- .... ....|--- .... ....
....|..|--- .... ....|--- .... ....|--- .... ....
....|..|--- .... ....|--- .... ....|--- .... ....
....|..|--- .... ....|--- .... ....|--- .... ....
....|..|--- .... ....|--- .... ....|--- .... ....
....|..|--- .... ....|--- .... ....|--- .... ....
....|..|--- .... ....|--- .... ....|--- .... ....
....|..|--- .... ....|--- .... ....|--- .... ....
....|..|--- .... ....|--- .... ....|--- .... ....
....|..|--- .... ....|--- .... ....|--- .... ....
....|..|--- .... ....|--- .... ....|--- .... ....
....|..|--- .... ....|--- .... ....|--- .... ....
....|..|--- .... ....|--- .... ....|--- .... ....
....|..|--- .... ....|--- .... ....|--- .... ....
....|..|--- .... ....|--- .... ....|--- .... ....
....|..|--- .... ....|--- .... ....|--- .... ....
....|..|--- .... ....|--- .... ....|--- .... ....
....|..|--- .... ....|--- .... ....|--- .... ....
....|..|--- .... ....|--- .... ....|--- .... ....
....|..|--- .... ....|--- .... ....|--- .... ....
....|..|--- .... ....|--- .... ....|--- .... ....
....|..|--- .... ....|--- .... ....|--- .... ....
....|..|--- .... ....|--- .... ....|--- .... ....
....|..|--- .... ....|--- .... ....|--- .... ....
....|..|--- .... ....|--- .... ....|--- .... ....
....|..|--- .... ....|--- .... ....|--- .... ....
....|..|--- .... ....|--- .... ....|--- .... ....
....|..|--- .... ....|--- .... ....|--- .... ....
....|..|--- .... ....|--- .... ....|--- .... ....
....|..|--- .... ....|--- .... ....|--- .... ....
....|..|C-2 UF.F ....|--- .... ....|--- .... ....
....|..|--- .... ....|--- .... ....|--- .... ....
....|..|--- .... ....|--- .... ....|--- .... ....
....|..|--- .... ....|--- .... ....|--- .... ....
....|..|--- .... ....|--- .... ....|--- .... ....
....|..|--- .... ....|--- .... ....|--- .... ....
....|..|--- .... ....|--- .... ....|--- .... ....
....|..|--- .... ....|--- .... ....|--- .... ....
....|..|--- .... ....|--- .... ....|--- .... ....
....|..|--- .... ....|--- .... ....|--- .... ....
....|..|--- .... ....|--- .... ....|--- .... ....
....|..|--- .... ....|--- .... ....|--- .... ....
....|..|C-2 UF.A ....|--- .... ....|--- .... ....
....|..|--- .... ....|--- .... ....|--- .... ....
....|..|--- .... ....|--- .... ....|--- .... ....
....|..|--- .... ....|--- .... ....|--- .... ....
....|..|--- .... ....|--- .... ....|--- .... ....
....|..|--- .... ....|--- .... ....|--- .... ....
....|..|--- .... ....|--- .... ....|--- .... ....
....|..|--- .... ....|--- .... ....|--- .... ....
....|..|--- .... ....|--- .... ....|--- .... ....
....|..|--- .... ....|--- .... ....|--- .... ....
....|..|--- .... ....|--- .... ....|--- .... ....
....|..|--- .... ....|--- .... ....|--- .... ....
....|..|C-2 UF.7 ....|--- .... ....|--- .... ....
....|..|--- .... ....|--- .... ....|--- .... ....
....|..|--- .... ....|--- .... ....|--- .... ....
....|..|--- .... ....|--- .... ....|--- .... ....
....|..|--- .... ....|--- .... ....|--- .... ....
....|..|--- .... ....|--- .... ....|--- .... ....
....|..|--- .... ....|--- .... ....|--- .... ....
....|..|--- .... ....|--- .... ....|--- .... ....
....|..|--- .... ....|--- .... ....|--- .... ....
....|..|--- .... ....|--- .... ....|--- .... ....
....|..|--- .... ....|--- .... ....|--- .... ....
....|..|--- .... ....|--- .... ....|--- .... ....
....|..|--- .... ....|--- .... ....|--- .... ....
....|..|--- .... ....|--- .... ....|--- .... ....
....|..|--- .... ....|--- .... ....|--- .... ....
....|..|--- .... ....|--- .... ....|--- .... ....
....|..|--- .... ....|--- .... ....|--- .... ....
....|..|--- .... ....|--- .... ....|--- .... ....
....|..|--- .... ....|--- .... ....|--- .... ....
....|..|--- .... ....|--- .... ....|--- .... ....
....|..|--- .... ....|--- .... ....|--- .... ....
....|..|--- .... ....|--- .... ....|--- .... ....
....|..|--- .... ....|--- .... ....|--- .... ....
....|..|--- .... ....|--- .... ....|--- .... ....
....|..|--- .... ....|--- .... ....|--- .... ....
....|..|--- .... ....|--- .... ....|--- .... ....
....|..|--- .... ....|--- .... ....|--- .... ....
....|..|--- .... ....|--- .... ....|--- .... ....
....|..|--- .... ....|--- .... ....|--- .... ....
....|..|--- .... ....|--- .... ....|--- .... ....
....|..|--- .... ....|--- .... ....|--- .... ....
....|..|--- .... ....|--- .... ....|--- .... ....
....|..|--- .... ....|--- .... ....|--- .... ....
....|..|--- .... ....|--- .... ....|--- .... ....
....|..|--- .... ....|--- .... ....|--- .... ....
....|..|--- .... ....|--- .... ....|--- .... ....
....|..|--- .... ....|--- .... ....|--- .... ....
....|..|--- .... ....|--- .... ....|--- .... ....
....|..|--- .... ....|--- .... ....|--- .... ....
....|..|--- .... ....|--- .... ....|--- .... ....
....|..|--- .... ....|--- .... ....|--- .... ....
....|..|--- .... ....|--- .... ....|--- .... ....
....|..|--- .... ....|--- .... ....|--- .... ....
....|..|--- .... ....|--- .... ....|--- .... ....
....|..|--- .... ....|--- .... ....|--- .... ....
....|..|--- .... ....|--- .... ....|--- .... ....
....|..|--- .... ....|--- .... ....|--- .... ....
....|..|--- .... ....|--- .... ....|--- .... ....
....|..|--- .... ....|--- .... ....|--- .... ....
....|..|--- .... ....|--- .... ....|--- .... ....
....|..|--- .... ....|--- .... ....|--- .... ....
....|..|--- .... ....|--- .... ....|--- .... ....
....|..|--- .... ....|--- .... ....|--- .... ....
....|..|--- .... ....|--- .... ....|--- .... ....
....|..|--- .... ....|--- .... ....|--- .... ....
....|..|--- .... ....|--- .... ....|--- .... ....
....|..|--- .... ....|--- .... ....|--- .... ....
....|..|--- .... ....|--- .... ....|--- .... ....
....|..|--- .... ....|--- .... ....|--- .... ....
....|..|--- .... ....|--- .... ....|--- .... ....
....|..|--- .... ....|--- .... ....|--- .... ....
....|..|--- .... ....|--- .... ....|--- .... ....
....|..|--- .... ....|--- .... ....|--- .... ....
....|..|--- .... ....|--- .... ....|--- .... ....
....|..|--- .... ....|--- .... ....|--- .... ....
....|..|--- .... ....|--- .... ....|--- .... ....
....|..|--- .... ....|--- .... ....|--- .... ....
....|..|--- .... ....|--- .... ....|--- .... ....
....|..|--- .... ....|--- .... ....|--- .... ....
....|..|--- .... ....|--- .... ....|--- .... ....
....|..|--- .... ....|--- .... ....|--- .... ....
....|..|--- .... ....|--- .... ....|--- .... ....

[Pattern2]
....|..|--- .... ....|--- .... ....|--- .... ....
....|..|--- .... ....|--- .... ....|--- .... ....
....|..|--- .... ....|--- .... ....|--- .... ....
....|..|--- .... ....|--- .... ....|--- .... ....
....|..|--- .... ....|--- .... ....|--- .... ....
....|..|--- .... ....|--- .... ....|--- .... ....
....|..|--- .... ....|--- .... ....|--- .... ....
....|..|--- .... ....|--- .... ....|--- .... ....
....|..|--- .... ....|--- .... ....|--- .... ....
....|..|--- .... ....|--- .... ....|--- .... ....
....|..|--- .... ....|--- .... ....|--- .... ....
....|..|--- .... ....|--- .... ....|--- .... ....
....|..|--- .... ....|--- .... ....|--- .... ....
....|..|--- .... ....|--- .... ....|--- .... ....
....|..|--- .... ....|--- .... ....|--- .... ....
....|..|--- .... ....|--- .... ....|--- .... ....
....|..|--- .... ....|--- .... ....|--- .... ....
....|..|--- .... ....|--- .... ....|--- .... ....
....|..|--- .... ....|--- .... ....|--- .... ....
....|..|--- .... ....|--- .... ....|--- .... ....
....|..|--- .... ....|--- .... ....|--- .... ....
....|..|--- .... ....|--- .... ....|--- .... ....
....|..|--- .... ....|--- .... ....|--- .... ....
....|..|--- .... ....|--- .... ....|--- .... ....
....|..|--- .... ....|--- .... ....|--- .... ....
....|..|--- .... ....|--- .... ....|--- .... ....
....|..|--- .... ....|--- .... ....|--- .... ....
....|..|--- .... ....|--- .... ....|--- .... ....
....|..|--- .... ....|--- .... ....|--- .... ....
....|..|--- .... ....|--- .... ....|--- .... ....
....|..|--- .... ....|--- .... ....|--- .... ....
....|..|--- .... ....|--- .... ....|--- .... ....
....|..|C-2 UF.F ....|--- .... ....|--- .... ....
....|..|--- .... ....|--- .... ....|--- .... ....
....|..|--- .... ....|--- .... ....|--- .... ....
....|..|--- .... ....|--- .... ....|--- .... ....
....|..|--- .... ....|--- .... ....|--- .... ....
....|..|--- .... ....|--- .... ....|--- .... ....
....|..|--- .... ....|--- .... ....|--- .... ....
....|..|--- .... ....|--- .... ....|--- .... ....
....|..|--- .... ....|--- .... ....|--- .... ....
....|..|--- .... ....|--- .... ....|--- .... ....
....|..|--- .... ....|--- .... ....|--- .... ....
....|..|--- .... ....|--- .... ....|--- .... ....
....|..|C-2 UF.A ....|--- .... ....|--- .... ....
....|..|--- .... ....|--- .... ....|--- .... ....
....|..|--- .... ....|--- .... ....|--- .... ....
....|..|--- .... ....|--- .... ....|--- .... ....
....|..|--- .... ....|--- .... ....|--- .... ....
....|..|--- .... ....|--- .... ....|--- .... ....
....|..|--- .... ....|--- .... ....|--- .... ....
....|..|--- .... ....|--- .... ....|--- .... ....
....|..|--- .... ....|--- .... ....|--- .... ....
....|..|--- .... ....|--- .... ....|--- .... ....
....|..|--- .... ....|--- .... ....|--- .... ....
....|..|--- .... ....|--- .... ....|--- .... ....
....|..|C-2 UF.7 ....|--- .... ....|--- .... ....
....|..|--- .... ....|--- .... ....|--- .... ....
....|..|--- .... ....|--- .... ....|--- .... ....
....|..|--- .... ....|--- .... ....|--- .... ....
....|..|--- .... ....|--- .... ....|--- .... ....
....|..|--- .... ....|--- .... ....|--- .... ....
....|..|--- .... ....|--- .... ....|--- .... ....
....|..|--- .... ....|--- .... ....|--- .... ....
....|..|--- .... ....|--- .... ....|--- .... ....
....|..|--- .... ....|--- .... ....|--- .... ....
....|..|--- .... ....|--- .... ....|--- .... ....
....|..|--- .... ....|--- .... ....|--- .... ....
....|..|--- .... ....|--- .... ....|--- .... ....
....|..|--- .... ....|--- .... ....|--- .... ....
....|..|--- .... ....|--- .... ....|--- .... ....
....|..|--- .... ....|--- .... ....|--- .... ....
....|..|--- .... ....|--- .... ....|--- .... ....
....|..|--- .... ....|--- .... ....|--- .... ....
....|..|--- .... ....|--- .... ....|--- .... ....
....|..|--- .... ....|--- .... ....|--- .... ....
....|..|--- .... ....|--- .... ....|--- .... ....
....|..|--- .... ....|--- .... ....|--- .... ....
....|..|--- .... ....|--- .... ....|--- .... ....
....|..|--- .... ....|--- .... ....|--- .... ....
....|..|--- .... ....|--- .... ....|--- .... ....
....|..|--- .... ....|--- .... ....|--- .... ....
....|..|--- .... ....|--- .... ....|--- .... ....
....|..|--- .... ....|--- .... ....|--- .... ....
....|..|--- .... ....|--- .... ....|--- .... ....
....|..|--- .... ....|--- .... ....|--- .... ....
....|..|--- .... ....|--- .... ....|--- .... ....
....|..|--- .... ....|--- .... ....|--- .... ....
....|..|--- .... ....|--- .... ....|--- .... ....
....|..|--- .... ....|--- .... ....|--- .... ....
....|..|--- .... ....|--- .... ....|--- .... ....
....|..|--- .... ....|--- .... ....|--- .... ....
....|..|--- .... ....|--- .... ....|--- .... ....
....|..|--- .... ....|--- .... ....|--- .... ....
....|..|R-- .... ....|--- .... ....|--- .... ....
....|..|--- .... ....|--- .... ....|--- .... ....
....|..|--- .... ....|E-5 3F.F ....|--- .... ....
....|..|--- .... ....|--- .... ....|--- .... ....
....|..|--- .... ....|--- .... ....|--- .... ....
....|..|--- .... ....|--- .... ....|--- .... ....
....|..|--- .... ....|R-- .... ....|--- .... ....
....|..|--- .... ....|--- .... ....|--- .... ....
....|..|--- .... ....|--- .... ....|--- .... ....
....|..|--- .... ....|--- .... ....|--- .... ....
....|..|--- .... ....|E-5 3F.F ....|--- .... ....
....|..|--- .... ....|--- .... ....|--- .... ....
....|..|R-- .... ....|--- .... ....|--- .... ....
....|..|--- .... ....|--- .... ....|--- .... ....
....|..|--- .... ....|D#5 3F.F ....|--- .... ....
....|..|--- .... ....|--- .... ....|--- .... ....
....|..|--- .... ....|--- .... ....|--- .... ....
....|..|--- .... ....|--- .... ....|--- .... ....
....|..|--- .... ....|E-5 3F.F ....|--- .... ....
....|..|--- .... ....|--- .... ....|--- .... ....
....|..|--- .... ....|--- .... ....|--- .... ....
....|..|--- .... ....|--- .... ....|--- .... ....
....|..|--- .... ....|C#5 3F.F ....|--- .... ....
....|..|--- .... ....|--- .... ....|--- .... ....
....|..|R-- .... ....|--- .... ....|--- .... ....
....|..|--- .... ....|--- .... ....|--- .... ....
....|..|--- .... ....|E-5 3F.7 ....|--- .... ....
....|..|--- .... ....|--- .... ....|--- .... ....
....|..|--- .... ....|--- .... ....|--- .... ....
....|..|--- .... ....|--- .... ....|--- .... ....
....|..|--- .... ....|E-5 3F.A ....|--- .... ....
....|..|--- .... ....|--- .... ....|--- .... ....
....|..|--- .... ....|--- .... ....|--- .... ....
....|..|--- .... ....|--- .... ....|--- .... ....

[Pattern3]
....|..|--- .... ....|E-5 3F.7 ....|--- .... ....
....|..|--- .... ....|--- .... ....|--- .... ....
....|..|--- .... ....|--- .... ....|--- .... ....
....|..|--- .... ....|--- .... ....|--- .... ....
....|..|--- .... ....|D#5 3F.7 ....|--- .... ....
....|..|--- .... ....|--- .... ....|--- .... ....
....|..|--- .... ....|--- .... ....|--- .... ....
....|..|--- .... ....|--- .... ....|--- .... ....
....|..|--- .... ....|E-5 3F.7 ....|--- .... ....
....|..|--- .... ....|--- .... ....|--- .... ....
....|..|--- .... ....|--- .... ....|--- .... ....
....|..|--- .... ....|--- .... ....|--- .... ....
....|..|--- .... ....|C#5 3F.7 ....|--- .... ....
....|..|--- .... ....|--- .... ....|--- .... ....
....|..|--- .... ....|--- .... ....|--- .... ....
....|..|--- .... ....|--- .... ....|--- .... ....
....|..|--- .... ....|R-- .... ....|--- .... ....
....|..|--- .... ....|--- .... ....|--- .... ....
....|..|--- .... ....|--- .... ....|--- .... ....
....|..|--- .... ....|--- .... ....|--- .... ....
....|..|--- .... ....|--- .... ....|--- .... ....
....|..|--- .... ....|--- .... ....|--- .... ....
....|..|--- .... ....|--- .... ....|--- .... ....
....|..|--- .... ....|--- .... ....|--- .... ....
....|..|--- .... ....|--- .... ....|--- .... ....
....|..|--- .... ....|--- .... ....|--- .... ....
....|..|--- .... ....|--- .... ....|--- .... ....
....|..|--- .... ....|--- .... ....|--- .... ....
....|..|--- .... ....|D#5 3F.F ....|--- .... ....
....|..|--- .... ....|--- .... ....|--- .... ....
....|..|--- .... ....|--- .... ....|--- .... ....
....|..|--- .... ....|R-- .... ....|--- .... ....
....|..|--- .... ....|E-5 3F.F ....|--- .... ....
....|..|--- .... ....|--- .... ....|--- .... ....
....|..|--- .... ....|--- .... ....|--- .... ....
....|..|--- .... ....|--- .... ....|--- .... ....
....|..|--- .... ....|R-- .... ....|--- .... ....
....|..|--- .... ....|--- .... ....|--- .... ....
....|..|--- .... ....|--- .... ....|--- .... ....
....|..|--- .... ....|--- .... ....|--- .... ....
....|..|--- .... ....|E-5 3F.F ....|--- .... ....
....|..|--- .... ....|--- .... ....|--- .... ....
....|..|--- .... ....|--- .... ....|--- .... ....
....|..|--- .... ....|R-- .... ....|--- .... ....
....|..|--- .... ....|D#5 3F.F ....|--- .... ....
....|..|--- .... ....|--- .... ....|--- .... ....
....|..|--- .... ....|--- .... ....|--- .... ....
....|..|--- .... ....|--- .... ....|--- .... ....
....|..|--- .... ....|E-5 3F.F ....|--- .... ....
....|..|--- .... ....|--- .... ....|--- .... ....
....|..|--- .... ....|--- .... ....|--- .... ....
....|..|--- .... ....|--- .... ....|--- .... ....
....|..|--- .... ....|C#5 3F.F ....|--- .... ....
....|..|--- .... ....|--- .... ....|--- .... ....
....|..|--- .... ....|--- .... ....|--- .... ....
....|..|--- .... ....|R-- .... ....|--- .... ....
....|..|--- .... ....|E-5 3F.7 ....|--- .... ....
....|..|--- .... ....|--- .... ....|--- .... ....
....|..|--- .... ....|--- .... ....|--- .... ....
....|..|--- .... ....|--- .... ....|--- .... ....
....|..|--- .... ....|E-5 3F.A ....|--- .... ....
....|..|--- .... ....|--- .... ....|--- .... ....
....|..|--- .... ....|--- .... ....|--- .... ....
....|..|--- .... ....|--- .... ....|--- .... ....
....|..|--- .... ....|E-5 3F.F ....|--- .... ....
....|..|--- .... ....|--- .... ....|--- .... ....
....|..|--- .... ....|--- .... ....|--- .... ....
....|..|--- .... ....|--- .... ....|--- .... ....
....|..|--- .... ....|D#5 3F.7 ....|--- .... ....
....|..|--- .... ....|--- .... ....|--- .... ....
....|..|--- .... ....|--- .... ....|--- .... ....
....|..|--- .... ....|--- .... ....|--- .... ....
....|..|--- .... ....|E-5 3F.F ....|--- .... ....
....|..|--- .... ....|--- .... ....|--- .... ....
....|..|--- .... ....|--- .... ....|--- .... ....
....|..|--- .... ....|--- .... ....|--- .... ....
....|..|--- .... ....|D#5 3F.F ....|--- .... ....
....|..|--- .... ....|--- .... ....|--- .... ....
....|..|--- .... ....|--- .... ....|--- .... ....
....|..|--- .... ....|--- .... ....|--- .... ....
....|..|--- .... ....|E-5 3F.F ....|--- .... ....
....|..|--- .... ....|--- .... ....|--- .... ....
....|..|--- .... ....|--- .... ....|--- .... ....
....|..|--- .... ....|--- .... ....|--- .... ....
....|..|--- .... ....|C#5 3F.F ....|--- .... ....
....|..|--- .... ....|--- .... ....|--- .... ....
....|..|--- .... ....|--- .... ....|--- .... ....
....|..|--- .... ....|--- .... ....|--- .... ....
....|..|--- .... ....|E-5 3F.7 ....|--- .... ....
....|..|--- .... ....|--- .... ....|--- .... ....
....|..|--- .... ....|--- .... ....|--- .... ....
....|..|--- .... ....|--- .... ....|--- .... ....
....|..|--- .... ....|E-5 3F.A ....|--- .... ....
....|..|--- .... ....|--- .... ....|--- .... ....
....|..|--- .... ....|--- .... ....|--- .... ....
....|..|--- .... ....|--- .... ....|--- .... ....
....|..|--- .... ....|E-5 3F.7 ....|--- .... ....
....|..|--- .... ....|--- .... ....|--- .... ....
....|..|--- .... ....|--- .... ....|--- .... ....
....|..|--- .... ....|--- .... ....|--- .... ....
....|..|--- .... ....|D#5 3F.7 ....|--- .... ....
....|..|--- .... ....|--- .... ....|--- .... ....
....|..|--- .... ....|--- .... ....|--- .... ....
....|..|--- .... ....|--- .... ....|--- .... ....
....|..|--- .... ....|E-5 3F.7 ....|--- .... ....
....|..|--- .... ....|--- .... ....|--- .... ....
....|..|--- .... ....|--- .... ....|--- .... ....
....|..|--- .... ....|--- .... ....|--- .... ....
....|..|--- .... ....|C#5 3F.7 ....|--- .... ....
....|..|--- .... ....|--- .... ....|--- .... ....
....|..|--- .... ....|--- .... ....|--- .... ....
....|..|--- .... ....|--- .... ....|--- .... ....
....|..|--- .... ....|R-- .... ....|--- .... ....
....|..|--- .... ....|--- .... ....|--- .... ....
....|..|--- .... ....|--- .... ....|--- .... ....
....|..|--- .... ....|--- .... ....|--- .... ....
....|..|--- .... ....|--- .... ....|--- .... ....
....|..|--- .... ....|--- .... ....|--- .... ....
....|..|--- .... ....|--- .... ....|--- .... ....
....|..|--- .... ....|--- .... ....|--- .... ....
....|..|--- .... ....|--- .... ....|--- .... ....
....|..|--- .... ....|--- .... ....|--- .... ....
....|..|--- .... ....|--- .... ....|--- .... ....
....|..|--- .... ....|--- .... ....|--- .... ....
....|..|--- .... ....|--- .... ....|--- .... ....
....|..|--- .... ....|--- .... ....|--- .... ....
....|..|--- .... ....|--- .... ....|--- .... ....
....|..|--- .... ....|--- .... ....|--- .... ....

[Pattern4]
....|..|--- .... ....|E-5 3F.F ....|--- .... ....
....|..|--- .... ....|--- .... ....|--- .... ....
....|..|--- .... ....|--- .... ....|--- .... ....
....|..|--- .... ....|--- .... ....|--- .... ....
....|..|--- .... ....|R-- .... ....|--- .... ....
....|..|--- .... ....|--- .... ....|--- .... ....
....|..|--- .... ....|--- .... ....|--- .... ....
....|..|--- .... ....|--- .... ....|--- .... ....
....|..|--- .... ....|E-5 3F.F ....|--- .... ....
....|..|--- .... ....|--- .... ....|--- .... ....
....|..|--- .... ....|--- .... ....|--- .... ....
....|..|--- .... ....|--- .... ....|--- .... ....
....|..|--- .... ....|D#5 3F.F ....|--- .... ....
....|..|--- .... ....|--- .... ....|--- .... ....
....|..|--- .... ....|--- .... ....|--- .... ....
....|..|--- .... ....|--- .... ....|--- .... ....
....|..|--- .... ....|E-5 3F.F ....|--- .... ....
....|..|--- .... ....|--- .... ....|--- .... ....
....|..|--- .... ....|--- .... ....|--- .... ....
....|..|--- .... ....|--- .... ....|--- .... ....
....|..|--- .... ....|C#5 3F.F ....|--- .... ....
....|..|--- .... ....|--- .... ....|--- .... ....
....|..|--- .... ....|--- .... ....|--- .... ....
....|..|--- .... ....|--- .... ....|--- .... ....
....|..|--- .... ....|E-5 3F.F ....|--- .... ....
....|..|--- .... ....|--- .... ....|--- .... ....
....|..|--- .... ....|--- .... ....|--- .... ....
....|..|--- .... ....|--- .... ....|--- .... ....
....|..|--- .... ....|D#5 3F.F ....|--- .... ....
....|..|--- .... ....|--- .... ....|--- .... ....
....|..|--- .... ....|--- .... ....|--- .... ....
....|..|--- .... ....|--- .... ....|--- .... ....
....|..|--- .... ....|E-5 3F.F ....|--- .... ....
....|..|--- .... ....|--- .... ....|--- .... ....
....|..|--- .... ....|--- .... ....|--- .... ....
....|..|--- .... ....|--- .... ....|--- .... ....
....|..|--- .... ....|C#5 3F.F ....|--- .... ....
....|..|--- .... ....|--- .... ....|--- .... ....
....|..|--- .... ....|--- .... ....|--- .... ....
....|..|--- .... ....|--- .... ....|--- .... ....
....|..|--- .... ....|E-5 3F.F ....|--- .... ....
....|..|--- .... ....|--- .... ....|--- .... ....
....|..|--- .... ....|--- .... ....|--- .... ....
....|..|--- .... ....|--- .... ....|--- .... ....
....|..|--- .... ....|D#5 3F.F ....|--- .... ....
....|..|--- .... ....|--- .... ....|--- .... ....
....|..|--- .... ....|--- .... ....|--- .... ....
....|..|--- .... ....|--- .... ....|--- .... ....
....|..|--- .... ....|E-5 3F.F ....|--- .... ....
....|..|--- .... ....|--- .... ....|--- .... ....
....|..|--- .... ....|--- .... ....|--- .... ....
....|..|--- .... ....|--- .... ....|--- .... ....
....|..|--- .... ....|C#5 3F.F ....|--- .... ....
....|..|--- .... ....|--- .... ....|--- .... ....
....|..|--- .... ....|--- .... ....|--- .... ....
....|..|--- .... ....|--- .... ....|--- .... ....
....|..|--- .... ....|E-5 3F.7 ....|--- .... ....
....|..|--- .... ....|--- .... ....|--- .... ....
....|..|--- .... ....|--- .... ....|--- .... ....
....|..|--- .... ....|--- .... ....|--- .... ....
....|..|--- .... ....|C#5 3F.7 ....|--- .... ....
....|..|--- .... ....|--- .... ....|--- .... ....
....|..|--- .... ....|--- .... ....|--- .... ....
....|..|--- .... ....|--- .... ....|--- .... ....
....|..|--- .... ....|E-5 3F.7 ....|--- .... ....
....|..|--- .... ....|--- .... ....|--- .... ....
....|..|--- .... ....|--- .... ....|--- .... ....
....|..|--- .... ....|--- .... ....|--- .... ....
....|..|--- .... ....|D#5 3F.7 ....|--- .... ....
....|..|--- .... ....|--- .... ....|--- .... ....
....|..|--- .... ....|--- .... ....|--- .... ....
....|..|--- .... ....|--- .... ....|--- .... ....
....|..|--- .... ....|E-5 3F.7 ....|--- .... ....
....|..|--- .... ....|--- .... ....|--- .... ....
....|..|--- .... ....|--- .... ....|--- .... ....
....|..|--- .... ....|--- .... ....|--- .... ....
....|..|--- .... ....|C#5 3F.7 ....|--- .... ....
....|..|--- .... ....|--- .... ....|--- .... ....
....|..|--- .... ....|--- .... ....|--- .... ....
....|..|--- .... ....|--- .... ....|--- .... ....
....|..|--- .... ....|R-- .... ....|--- .... ....
....|..|--- .... ....|--- .... ....|--- .... ....
....|..|--- .... ....|--- .... ....|--- .... ....
....|..|--- .... ....|--- .... ....|--- .... ....
....|..|--- .... ....|--- .... ....|--- .... ....
....|..|--- .... ....|--- .... ....|--- .... ....
....|..|--- .... ....|--- .... ....|--- .... ....
....|..|--- .... ....|--- .... ....|--- .... ....
....|..|--- .... ....|--- .... ....|--- .... ....
....|..|--- .... ....|--- .... ....|--- .... ....
....|..|--- .... ....|--- .... ....|--- .... ....
....|..|--- .... ....|--- .... ....|--- .... ....
....|..|--- .... ....|--- .... ....|--- .... ....
....|..|--- .... ....|--- .... ....|--- .... ....
....|..|--- .... ....|--- .... ....|--- .... ....
....|..|--- .... ....|--- .... ....|--- .... ....
 A-3|..|--- .... ....|E-5 3F.F ....|A-1 2A.F ....
....|..|--- .... ....|--- .... ....|--- .... ....
....|..|--- .... ....|--- .... ....|--- .... ....
....|..|--- .... ....|--- .... ....|R-- .... ....
 A-3|..|--- .... ....|R-- .... ....|A-1 2A.F ....
....|..|--- .... ....|--- .... ....|R-- .... ....
 A-3|..|--- .... ....|--- .... ....|A-1 2A.F ....
....|..|--- .... ....|--- .... ....|R-- .... ....
 A-3|..|--- .... ....|E-5 3F.F ....|A-1 2A.F ....
....|..|--- .... ....|--- .... ....|--- .... ....
....|..|--- .... ....|--- .... ....|--- .... ....
....|..|--- .... ....|--- .... ....|R-- .... ....
 A-3|..|--- .... ....|D#5 3F.F ....|A-1 2A.F ....
....|..|--- .... ....|--- .... ....|--- .... ....
 A-3|..|--- .... ....|--- .... ....|A-1 2A.F ....
....|..|--- .... ....|--- .... ....|R-- .... ....
....|..|--- .... ....|E-5 3F.F ....|A-1 2F.A ....
....|..|--- .... ....|--- .... ....|R-- .... ....
 A-3|..|--- .... ....|--- .... ....|A-1 2A.F ....
....|..|--- .... ....|--- .... ....|R-- .... ....
 A-3|..|--- .... ....|C#5 3F.F ....|A-1 2A.F ....
....|..|--- .... ....|--- .... ....|R-- .... ....
 A-3|..|--- .... ....|--- .... ....|A-1 2A.F ....
....|..|--- .... ....|--- .... ....|R-- .... ....
 A-3|..|--- .... ....|E-5 3F.7 ....|A-1 2A.F ....
....|..|--- .... ....|--- .... ....|--- .... ....
....|..|--- .... ....|--- .... ....|A-1 2F.A ....
....|..|--- .... ....|--- .... ....|R-- .... ....
 A-3|..|--- .... ....|E-5 3F.A ....|A-1 2A.F ....
....|..|--- .... ....|--- .... ....|R-- .... ....
....|..|--- .... ....|--- .... ....|A-1 2F.7 ....
....|..|--- .... ....|--- .... ....|R-- .... ....

[Pattern5]
 G#3|..|--- .... ....|E-5 3F.7 ....|G#1 2A.F ....
....|..|--- .... ....|--- .... ....|R-- .... ....
....|..|--- .... ....|--- .... ....|A-1 2F.A ....
....|..|--- .... ....|--- .... ....|R-- .... ....
 G#3|..|--- .... ....|D#5 3F.7 ....|G#1 2A.F ....
....|..|--- .... ....|--- .... ....|R-- .... ....
 G#3|..|--- .... ....|--- .... ....|G#1 2A.F ....
....|..|--- .... ....|--- .... ....|R-- .... ....
 G#3|..|--- .... ....|E-5 3F.7 ....|G#1 2A.F ....
....|..|--- .... ....|--- .... ....|--- .... ....
....|..|--- .... ....|--- .... ....|A-1 2F.7 ....
....|..|--- .... ....|--- .... ....|R-- .... ....
 G#3|..|--- .... ....|C#5 3F.7 ....|G#1 2A.F ....
....|..|--- .... ....|--- .... ....|R-- .... ....
 G#3|..|--- .... ....|--- .... ....|G#1 2A.F ....
....|..|--- .... ....|--- .... ....|R-- .... ....
....|..|--- .... ....|R-- .... ....|A-1 2F.7 ....
....|..|--- .... ....|--- .... ....|R-- .... ....
 G#3|..|--- .... ....|--- .... ....|G#1 2A.F ....
....|..|--- .... ....|--- .... ....|R-- .... ....
 G#3|..|--- .... ....|--- .... ....|G#1 2A.F ....
....|..|--- .... ....|--- .... ....|R-- .... ....
 G#3|..|--- .... ....|--- .... ....|G#1 2A.F ....
....|..|--- .... ....|--- .... ....|R-- .... ....
 G#3|..|--- .... ....|--- .... ....|G#1 2A.F ....
....|..|--- .... ....|--- .... ....|--- .... ....
....|..|--- .... ....|--- .... ....|G#1 2F.A ....
....|..|--- .... ....|--- .... ....|R-- .... ....
 E-4|..|--- .... ....|D#5 3F.F ....|E-2 2A.F ....
....|..|--- .... ....|--- .... ....|R-- .... ....
....|..|--- .... ....|--- .... ....|G#1 2F.7 ....
....|..|--- .... ....|R-- .... ....|R-- .... ....
 C#4|..|--- .... ....|E-5 3F.F ....|C#2 2A.F ....
....|..|--- .... ....|--- .... ....|R-- .... ....
....|..|--- .... ....|--- .... ....|G#1 2F.A ....
....|..|--- .... ....|--- .... ....|R-- .... ....
 C#4|..|--- .... ....|R-- .... ....|C#2 2A.F ....
....|..|--- .... ....|--- .... ....|R-- .... ....
 C#4|..|--- .... ....|--- .... ....|C#2 2A.F ....
....|..|--- .... ....|--- .... ....|R-- .... ....
 C#4|..|--- .... ....|E-5 3F.F ....|C#2 2A.F ....
....|..|--- .... ....|--- .... ....|--- .... ....
....|..|--- .... ....|--- .... ....|G#1 2F.7 ....
....|..|--- .... ....|R-- .... ....|R-- .... ....
 C#4|..|--- .... ....|D#5 3F.F ....|C#2 2A.F ....
....|..|--- .... ....|--- .... ....|R-- .... ....
 C#4|..|--- .... ....|--- .... ....|C#2 2A.F ....
....|..|--- .... ....|--- .... ....|R-- .... ....
....|..|--- .... ....|E-5 3F.F ....|G#1 2F.7 ....
....|..|--- .... ....|--- .... ....|R-- .... ....
 C#4|..|--- .... ....|--- .... ....|C#2 2A.F ....
....|..|--- .... ....|--- .... ....|R-- .... ....
 C#4|..|--- .... ....|C#5 3F.F ....|C#2 2A.F ....
....|..|--- .... ....|--- .... ....|R-- .... ....
 C#4|..|--- .... ....|--- .... ....|C#2 2A.F ....
....|..|--- .... ....|R-- .... ....|R-- .... ....
 C#4|..|--- .... ....|E-5 3F.7 ....|C#2 2A.F ....
....|..|--- .... ....|--- .... ....|--- .... ....
....|..|--- .... ....|--- .... ....|C#2 2F.A ....
....|..|--- .... ....|--- .... ....|R-- .... ....
 B-3|..|--- .... ....|E-5 3F.A ....|B-1 2A.F ....
....|..|--- .... ....|--- .... ....|R-- .... ....
....|..|--- .... ....|--- .... ....|C#2 2F.7 ....
....|..|--- .... ....|--- .... ....|R-- .... ....
 E-4|..|--- .... ....|E-5 3F.F ....|E-2 2A.F ....
....|..|--- .... ....|--- .... ....|R-- .... ....
....|..|--- .... ....|--- .... ....|C#2 2F.A ....
....|..|--- .... ....|--- .... ....|R-- .... ....
 E-4|..|--- .... ....|D#5 3F.7 ....|E-2 2A.F ....
....|..|--- .... ....|--- .... ....|R-- .... ....
 E-4|..|--- .... ....|--- .... ....|E-2 2A.F ....
....|..|--- .... ....|--- .... ....|R-- .... ....
 E-4|..|--- .... ....|E-5 3F.F ....|E-2 2A.F ....
....|..|--- .... ....|--- .... ....|--- .... ....
....|..|--- .... ....|--- .... ....|C#2 2F.7 ....
....|..|--- .... ....|--- .... ....|R-- .... ....
 E-4|..|--- .... ....|D#5 3F.F ....|E-2 2A.F ....
....|..|--- .... ....|--- .... ....|R-- .... ....
 E-4|..|--- .... ....|--- .... ....|E-2 2A.F ....
....|..|--- .... ....|--- .... ....|R-- .... ....
....|..|--- .... ....|E-5 3F.F ....|C#2 2F.7 ....
....|..|--- .... ....|--- .... ....|R-- .... ....
 E-4|..|--- .... ....|--- .... ....|E-2 2A.F ....
....|..|--- .... ....|--- .... ....|R-- .... ....
 E-4|..|--- .... ....|C#5 3F.F ....|E-2 2A.F ....
....|..|--- .... ....|--- .... ....|R-- .... ....
 E-4|..|--- .... ....|--- .... ....|E-2 2A.F ....
....|..|--- .... ....|--- .... ....|R-- .... ....
 E-4|..|--- .... ....|E-5 3F.7 ....|E-2 2A.F ....
....|..|--- .... ....|--- .... ....|--- .... ....
....|..|--- .... ....|--- .... ....|E-2 2F.A ....
....|..|--- .... ....|--- .... ....|R-- .... ....
 E-4|..|--- .... ....|E-5 3F.A ....|E-2 2A.F ....
....|..|--- .... ....|--- .... ....|R-- .... ....
....|..|--- .... ....|--- .... ....|E-2 2F.7 ....
....|..|--- .... ....|--- .... ....|R-- .... ....
 A-3|..|--- .... ....|E-5 3F.7 ....|A-1 2A.F ....
....|..|--- .... ....|--- .... ....|R-- .... ....
....|..|--- .... ....|--- .... ....|E-2 2F.A ....
....|..|--- .... ....|--- .... ....|R-- .... ....
 A-3|..|--- .... ....|D#5 3F.7 ....|A-1 2A.F ....
....|..|--- .... ....|--- .... ....|R-- .... ....
 A-3|..|--- .... ....|--- .... ....|A-1 2A.F ....
....|..|--- .... ....|--- .... ....|R-- .... ....
 A-3|..|--- .... ....|E-5 3F.7 ....|A-1 2A.F ....
....|..|--- .... ....|--- .... ....|--- .... ....
....|..|--- .... ....|--- .... ....|E-2 2F.7 ....
....|..|--- .... ....|--- .... ....|R-- .... ....
 A-3|..|--- .... ....|C#5 3F.7 ....|A-1 2A.F ....
....|..|--- .... ....|--- .... ....|R-- .... ....
 A-3|..|--- .... ....|--- .... ....|A-1 2A.F ....
....|..|--- .... ....|--- .... ....|R-- .... ....
....|..|--- .... ....|R-- .... ....|E-2 2F.7 ....
....|..|--- .... ....|--- .... ....|R-- .... ....
 A-3|..|--- .... ....|--- .... ....|A-1 2A.F ....
....|..|--- .... ....|--- .... ....|R-- .... ....
 A-3|..|--- .... ....|--- .... ....|A-1 2A.F ....
....|..|--- .... ....|--- .... ....|R-- .... ....
 A-3|..|--- .... ....|--- .... ....|A-1 2A.F ....
....|..|--- .... ....|--- .... ....|R-- .... ....
 A-3|..|--- .... ....|--- .... ....|A-1 2A.F ....
....|..|--- .... ....|--- .... ....|--- .... ....
....|..|--- .... ....|--- .... ....|A-1 2F.A ....
....|..|--- .... ....|--- .... ....|R-- .... ....
 A-3|..|--- .... ....|D#5 3F.F ....|A-1 2A.F ....
....|..|--- .... ....|--- .... ....|R-- .... ....
....|..|--- .... ....|--- .... ....|A-1 2F.7 ....
....|..|--- .... ....|R-- .... ....|R-- .... ....

[Pattern6]
 G#3|..|--- .... ....|E-5 3F.F ....|G#1 2A.F ....
....|..|--- .... ....|--- .... ....|R-- .... ....
....|..|--- .... ....|--- .... ....|A-1 2F.A ....
....|..|--- .... ....|--- .... ....|R-- .... ....
 G#3|..|--- .... ....|R-- .... ....|G#1 2A.F ....
....|..|--- .... ....|--- .... ....|R-- .... ....
 G#3|..|--- .... ....|--- .... ....|G#1 2A.F ....
....|..|--- .... ....|--- .... ....|R-- .... ....
 G#3|..|--- .... ....|E-5 3F.F ....|G#1 2A.F ....
....|..|--- .... ....|--- .... ....|--- .... ....
....|..|--- .... ....|--- .... ....|A-1 2F.7 ....
....|..|--- .... ....|R-- .... ....|R-- .... ....
 G#3|..|--- .... ....|D#5 3F.F ....|G#1 2A.F ....
....|..|--- .... ....|--- .... ....|R-- .... ....
 G#3|..|--- .... ....|--- .... ....|G#1 2A.F ....
....|..|--- .... ....|--- .... ....|R-- .... ....
....|..|--- .... ....|E-5 3F.F ....|A-1 2F.7 ....
....|..|--- .... ....|--- .... ....|R-- .... ....
 G#3|..|--- .... ....|--- .... ....|G#1 2A.F ....
....|..|--- .... ....|--- .... ....|R-- .... ....
 G#3|..|--- .... ....|C#5 3F.F ....|G#1 2A.F ....
....|..|--- .... ....|--- .... ....|R-- .... ....
 G#3|..|--- .... ....|--- .... ....|G#1 2A.F ....
....|..|--- .... ....|R-- .... ....|R-- .... ....
 G#3|..|--- .... ....|E-5 3F.7 ....|G#1 2A.F ....
....|..|--- .... ....|--- .... ....|--- .... ....
....|..|--- .... ....|--- .... ....|G#1 2F.A ....
....|..|--- .... ....|--- .... ....|R-- .... ....
 E-4|..|--- .... ....|E-5 3F.A ....|E-2 2A.F ....
....|..|--- .... ....|--- .... ....|R-- .... ....
....|..|--- .... ....|--- .... ....|G#1 2F.7 ....
....|..|--- .... ....|--- .... ....|R-- .... ....
 C#4|..|--- .... ....|E-5 3F.7 ....|C#2 2A.F ....
....|..|--- .... ....|--- .... ....|R-- .... ....
....|..|--- .... ....|--- .... ....|G#1 2F.A ....
....|..|--- .... ....|--- .... ....|R-- .... ....
 C#4|..|--- .... ....|D#5 3F.7 ....|C#2 2A.F ....
....|..|--- .... ....|--- .... ....|R-- .... ....
 C#4|..|--- .... ....|--- .... ....|C#2 2A.F ....
....|..|--- .... ....|--- .... ....|R-- .... ....
 C#4|..|--- .... ....|E-5 3F.7 ....|C#2 2A.F ....
....|..|--- .... ....|--- .... ....|--- .... ....
....|..|--- .... ....|--- .... ....|G#1 2F.7 ....
....|..|--- .... ....|--- .... ....|R-- .... ....
 C#4|..|--- .... ....|C#5 3F.7 ....|C#2 2A.F ....
....|..|--- .... ....|--- .... ....|R-- .... ....
 C#4|..|--- .... ....|--- .... ....|C#2 2A.F ....
....|..|--- .... ....|--- .... ....|R-- .... ....
....|..|--- .... ....|R-- .... ....|G#1 2F.7 ....
....|..|--- .... ....|--- .... ....|R-- .... ....
 C#4|..|--- .... ....|--- .... ....|C#2 2A.F ....
....|..|--- .... ....|--- .... ....|R-- .... ....
 C#4|..|--- .... ....|--- .... ....|C#2 2A.F ....
....|..|--- .... ....|--- .... ....|R-- .... ....
 C#4|..|--- .... ....|--- .... ....|C#2 2A.F ....
....|..|--- .... ....|--- .... ....|R-- .... ....
 C#4|..|--- .... ....|--- .... ....|C#2 2A.F ....
....|..|--- .... ....|--- .... ....|--- .... ....
....|..|--- .... ....|--- .... ....|C#2 2F.A ....
....|..|--- .... ....|--- .... ....|R-- .... ....
 B-3|..|--- .... ....|--- .... ....|B-1 2A.F ....
....|..|--- .... ....|--- .... ....|R-- .... ....
....|..|--- .... ....|--- .... ....|C#2 2F.7 ....
....|..|--- .... ....|--- .... ....|R-- .... ....
....|..|--- .... ....|E-5 3F.F ....|C#2 2F.7 ....
....|..|--- .... ....|--- .... ....|R-- .... ....
....|..|--- .... ....|--- .... ....|C#2 2F.A ....
....|..|--- .... ....|--- .... ....|R-- .... ....
....|..|--- .... ....|R-- .... ....|C#2 2F.7 ....
....|..|--- .... ....|--- .... ....|--- .... ....
....|..|--- .... ....|--- .... ....|C#2 2F.7 ....
....|..|--- .... ....|--- .... ....|R-- .... ....
....|..|--- .... ....|E-5 3F.F ....|B-1 2F.A ....
....|..|--- .... ....|--- .... ....|--- .... ....
....|..|--- .... ....|--- .... ....|C#2 2F.7 ....
....|..|--- .... ....|--- .... ....|R-- .... ....
....|..|--- .... ....|D#5 3F.F ....|C#2 2F.7 ....
....|..|--- .... ....|--- .... ....|R-- .... ....
....|..|--- .... ....|--- .... ....|C#2 2F.7 ....
....|..|--- .... ....|--- .... ....|--- .... ....
....|..|--- .... ....|E-5 3F.F ....|C#2 2F.7 ....
....|..|--- .... ....|--- .... ....|--- .... ....
....|..|--- .... ....|--- .... ....|--- .... ....
....|..|--- .... ....|--- .... ....|R-- .... ....
....|..|--- .... ....|F#5 3F.F ....|B-1 2F.7 ....
....|..|--- .... ....|--- .... ....|--- .... ....
....|..|--- .... ....|--- .... ....|--- .... ....
....|..|--- .... ....|--- .... ....|--- .... ....
....|..|--- .... ....|E-5 3F.7 ....|R-- .... ....
....|..|--- .... ....|--- .... ....|--- .... ....
....|..|--- .... ....|--- .... ....|--- .... ....
....|..|--- .... ....|--- .... ....|--- .... ....
....|..|--- .... ....|E-5 3F.A ....|--- .... ....
....|..|--- .... ....|--- .... ....|--- .... ....
....|..|--- .... ....|--- .... ....|--- .... ....
....|..|--- .... ....|--- .... ....|--- .... ....
....|..|--- .... ....|F#5 3F.F ....|--- .... ....
....|..|--- .... ....|--- .... ....|--- .... ....
....|..|--- .... ....|--- .... ....|--- .... ....
....|..|--- .... ....|--- .... ....|--- .... ....
....|..|--- .... ....|D#5 3F.7 ....|--- .... ....
....|..|--- .... ....|--- .... ....|--- .... ....
....|..|--- .... ....|--- .... ....|--- .... ....
....|..|--- .... ....|F#5 3F.F ....|--- .... ....
....|..|--- .... ....|F#5 3F.F ....|--- .... ....
....|..|--- .... ....|F#5 3F.F ....|--- .... ....
....|..|--- .... ....|--- .... ....|--- .... ....
....|..|--- .... ....|--- .... ....|--- .... ....
....|..|--- .... ....|F#5 3F.F ....|--- .... ....
....|..|--- .... ....|--- .... ....|--- .... ....
....|..|--- .... ....|F#5 3F.F ....|--- .... ....
....|..|--- .... ....|--- .... ....|--- .... ....
....|..|--- .... ....|F#5 3F.F ....|--- .... ....
....|..|--- .... ....|--- .... ....|--- .... ....
....|..|--- .... ....|--- .... ....|--- .... ....
....|..|--- .... ....|F#5 3F.A ....|--- .... ....
....|..|--- .... ....|F#5 3F.A ....|--- .... ....
....|..|--- .... ....|F#5 3F.A ....|--- .... ....
....|..|--- .... ....|--- .... ....|--- .... ....
....|..|--- .... ....|E-4 3F.F ....|--- .... ....
....|..|--- .... ....|F#5 3F.7 ....|--- .... ....
....|..|--- .... ....|--- .... ....|--- .... ....
....|..|--- .... ....|F#5 3F.A ....|--- .... ....
....|..|--- .... ....|--- .... ....|--- .... ....
....|..|--- .... ....|F#5 3F.A ....|--- .... ....
....|..|--- .... ....|--- .... ....|--- .... ....
....|..|--- .... ....|--- .... ....|--- .... ....
....|..|--- .... ....|F#5 3F.7 ....|--- .... ....

[Pattern7]
....|..|--- .... ....|E-4 3F.F ....|--- .... ....
....|..|--- .... ....|F#5 3F.7 ....|--- .... ....
....|..|--- .... ....|--- .... ....|--- .... ....
....|..|--- .... ....|E-4 3F.A ....|--- .... ....
....|..|--- .... ....|F#5 3F.7 ....|--- .... ....
....|..|--- .... ....|R-- .... ....|--- .... ....
....|..|--- .... ....|F#5 3F.7 ....|--- .... ....
....|..|--- .... ....|--- .... ....|--- .... ....
....|..|--- .... ....|E-4 3F.F ....|--- .... ....
....|..|--- .... ....|--- .... ....|--- .... ....
....|..|--- .... ....|R-- .... ....|--- .... ....
....|..|--- .... ....|--- .... ....|--- .... ....
....|..|--- .... ....|D#4 3F.F ....|--- .... ....
....|..|--- .... ....|--- .... ....|--- .... ....
....|..|--- .... ....|R-- .... ....|--- .... ....
....|..|--- .... ....|E-4 3F.7 ....|--- .... ....
....|..|--- .... ....|E-4 3F.F ....|--- .... ....
....|..|--- .... ....|R-- .... ....|--- .... ....
....|..|--- .... ....|--- .... ....|--- .... ....
....|..|--- .... ....|--- .... ....|--- .... ....
....|..|--- .... ....|F#4 3F.F ....|--- .... ....
....|..|--- .... ....|--- .... ....|--- .... ....
....|..|--- .... ....|R-- .... ....|--- .... ....
....|..|--- .... ....|--- .... ....|--- .... ....
....|..|--- .... ....|E-4 3F.7 ....|--- .... ....
....|..|--- .... ....|--- .... ....|--- .... ....
....|..|--- .... ....|R-- .... ....|--- .... ....
....|..|--- .... ....|--- .... ....|--- .... ....
....|..|--- .... ....|E-4 3F.A ....|--- .... ....
....|..|--- .... ....|R-- .... ....|--- .... ....
....|..|--- .... ....|R-- .... ....|--- .... ....
....|..|--- .... ....|--- .... ....|--- .... ....
....|..|--- .... ....|E-4 3F.7 ....|--- .... ....
....|..|--- .... ....|--- .... ....|--- .... ....
....|..|--- .... ....|R-- .... ....|--- .... ....
....|..|--- .... ....|--- .... ....|--- .... ....
....|..|--- .... ....|D#4 3F.7 ....|--- .... ....
....|..|--- .... ....|--- .... ....|--- .... ....
....|..|--- .... ....|R-- .... ....|--- .... ....
....|..|--- .... ....|--- .... ....|--- .... ....
....|..|--- .... ....|E-4 3F.F ....|--- .... ....
....|..|--- .... ....|--- .... ....|--- .... ....
....|..|--- .... ....|R-- .... ....|--- .... ....
....|..|--- .... ....|--- .... ....|--- .... ....
....|..|--- .... ....|D#4 3F.F ....|--- .... ....
....|..|--- .... ....|R-- .... ....|--- .... ....
....|..|--- .... ....|--- .... ....|--- .... ....
....|..|--- .... ....|--- .... ....|--- .... ....
....|..|--- .... ....|E-4 3F.F ....|--- .... ....
....|..|--- .... ....|--- .... ....|--- .... ....
....|..|--- .... ....|--- .... ....|--- .... ....
....|..|--- .... ....|--- .... ....|--- .... ....
....|..|--- .... ....|E-4 3F.A ....|--- .... ....
....|..|--- .... ....|--- .... ....|--- .... ....
....|..|--- .... ....|R-- .... ....|--- .... ....
....|..|--- .... ....|R-- .... ....|--- .... ....
....|..|--- .... ....|D#4 3F.A ....|--- .... ....
....|..|--- .... ....|R-- .... ....|--- .... ....
....|..|--- .... ....|--- .... ....|--- .... ....
....|..|--- .... ....|--- .... ....|--- .... ....
....|..|--- .... ....|E-4 3F.A ....|--- .... ....
....|..|--- .... ....|--- .... ....|--- .... ....
....|..|--- .... ....|--- .... ....|--- .... ....
....|..|--- .... ....|--- .... ....|--- .... ....
....|..|--- .... ....|E-4 3F.7 ....|--- .... ....
....|..|--- .... ....|--- .... ....|--- .... ....
....|..|--- .... ....|R-- .... ....|--- .... ....
....|..|--- .... ....|R-- .... ....|--- .... ....
....|..|--- .... ....|E-4 3F.F ....|--- .... ....
....|..|--- .... ....|R-- .... ....|--- .... ....
....|..|--- .... ....|--- .... ....|--- .... ....
....|..|--- .... ....|--- .... ....|--- .... ....
....|..|--- .... ....|E-4 3F.F ....|--- .... ....
....|..|--- .... ....|--- .... ....|--- .... ....
....|..|--- .... ....|R-- .... ....|--- .... ....
....|..|--- .... ....|--- .... ....|--- .... ....
....|..|--- .... ....|D#4 3F.F ....|--- .... ....
....|..|--- .... ....|--- .... ....|--- .... ....
....|..|--- .... ....|--- .... ....|--- .... ....
....|..|--- .... ....|R-- .... ....|--- .... ....
....|..|--- .... ....|E-4 3F.F ....|--- .... ....
....|..|--- .... ....|R-- .... ....|--- .... ....
....|..|--- .... ....|--- .... ....|--- .... ....
....|..|--- .... ....|--- .... ....|--- .... ....
....|..|--- .... ....|F#4 3F.F ....|--- .... ....
....|..|--- .... ....|--- .... ....|--- .... ....
....|..|--- .... ....|R-- .... ....|--- .... ....
....|..|--- .... ....|--- .... ....|--- .... ....
....|..|--- .... ....|D#4 3F.A ....|--- .... ....
....|..|--- .... ....|--- .... ....|--- .... ....
....|..|--- .... ....|--- .... ....|--- .... ....
....|..|--- .... ....|R-- .... ....|--- .... ....
....|..|--- .... ....|E-4 3F.7 ....|--- .... ....
....|..|--- .... ....|R-- .... ....|--- .... ....
....|..|--- .... ....|--- .... ....|--- .... ....
....|..|--- .... ....|--- .... ....|--- .... ....
....|..|--- .... ....|E-4 3F.F ....|--- .... ....
....|..|--- .... ....|--- .... ....|--- .... ....
....|..|--- .... ....|R-- .... ....|--- .... ....
....|..|--- .... ....|--- .... ....|--- .... ....
....|..|--- .... ....|D#4 3F.7 ....|--- .... ....
....|..|--- .... ....|--- .... ....|--- .... ....
....|..|--- .... ....|R-- .... ....|--- .... ....
....|..|--- .... ....|R-- .... ....|--- .... ....
....|..|--- .... ....|E-4 3F.F ....|--- .... ....
....|..|--- .... ....|--- .... ....|--- .... ....
....|..|--- .... ....|--- .... ....|--- .... ....
....|..|--- .... ....|R-- .... ....|--- .... ....
....|..|--- .... ....|D#4 3F.F ....|--- .... ....
....|..|--- .... ....|--- .... ....|--- .... ....
....|..|--- .... ....|--- .... ....|--- .... ....
....|..|--- .... ....|R-- .... ....|--- .... ....
....|..|--- .... ....|E-4 3F.F ....|--- .... ....
....|..|--- .... ....|--- .... ....|--- .... ....
....|..|--- .... ....|R-- .... ....|--- .... ....
....|..|--- .... ....|--- .... ....|--- .... ....
....|..|--- .... ....|E-4 3F.A ....|--- .... ....
....|..|--- .... ....|--- .... ....|--- .... ....
....|..|--- .... ....|--- .... ....|--- .... ....
....|..|--- .... ....|R-- .... ....|--- .... ....
....|..|--- .... ....|E-4 3F.7 ....|--- .... ....
....|..|--- .... ....|--- .... ....|--- .... ....
....|..|--- .... ....|--- .... ....|--- .... ....
....|..|--- .... ....|R-- .... ....|--- .... ....
....|..|--- .... ....|E-4 3F.A ....|--- .... ....
....|..|--- .... ....|--- .... ....|--- .... ....
....|..|--- .... ....|R-- .... ....|--- .... ....
....|..|--- .... ....|--- .... ....|--- .... ....

[Pattern8]
....|..|--- .... ....|E-4 3F.7 ....|--- .... ....
....|..|--- .... ....|--- .... ....|--- .... ....
....|..|--- .... ....|--- .... ....|--- .... ....
....|..|--- .... ....|R-- .... ....|--- .... ....
....|..|--- .... ....|E-4 3F.F ....|--- .... ....
....|..|--- .... ....|R-- .... ....|--- .... ....
....|..|--- .... ....|--- .... ....|--- .... ....
....|..|--- .... ....|R-- .... ....|--- .... ....
....|..|--- .... ....|E-4 3F.F ....|--- .... ....
....|..|--- .... ....|--- .... ....|--- .... ....
....|..|--- .... ....|R-- .... ....|--- .... ....
....|..|--- .... ....|--- .... ....|--- .... ....
....|..|--- .... ....|D#4 3F.F ....|--- .... ....
....|..|--- .... ....|--- .... ....|--- .... ....
....|..|--- .... ....|R-- .... ....|--- .... ....
....|..|--- .... ....|--- .... ....|--- .... ....
....|..|--- .... ....|E-4 3F.F ....|--- .... ....
....|..|--- .... ....|R-- .... ....|--- .... ....
....|..|--- .... ....|--- .... ....|--- .... ....
....|..|--- .... ....|--- .... ....|--- .... ....
....|..|--- .... ....|F#4 3F.F ....|--- .... ....
....|..|--- .... ....|--- .... ....|--- .... ....
....|..|--- .... ....|R-- .... ....|--- .... ....
....|..|--- .... ....|--- .... ....|--- .... ....
....|..|--- .... ....|D#4 3F.A ....|--- .... ....
....|..|--- .... ....|--- .... ....|--- .... ....
....|..|--- .... ....|R-- .... ....|--- .... ....
....|..|--- .... ....|--- .... ....|--- .... ....
....|..|--- .... ....|E-4 3F.7 ....|--- .... ....
....|..|--- .... ....|R-- .... ....|--- .... ....
....|..|--- .... ....|R-- .... ....|--- .... ....
....|..|--- .... ....|--- .... ....|--- .... ....
....|..|--- .... ....|E-4 3F.F ....|--- .... ....
....|..|--- .... ....|--- .... ....|--- .... ....
....|..|--- .... ....|R-- .... ....|--- .... ....
....|..|--- .... ....|--- .... ....|--- .... ....
....|..|--- .... ....|D#4 3F.7 ....|--- .... ....
....|..|--- .... ....|--- .... ....|--- .... ....
....|..|--- .... ....|R-- .... ....|--- .... ....
....|..|--- .... ....|R-- .... ....|--- .... ....
....|..|--- .... ....|E-4 3F.F ....|--- .... ....
....|..|--- .... ....|--- .... ....|--- .... ....
....|..|--- .... ....|R-- .... ....|--- .... ....
....|..|--- .... ....|--- .... ....|--- .... ....
....|..|--- .... ....|D#4 3F.F ....|--- .... ....
....|..|--- .... ....|R-- .... ....|--- .... ....
....|..|--- .... ....|--- .... ....|--- .... ....
....|..|--- .... ....|--- .... ....|--- .... ....
....|..|--- .... ....|E-4 3F.F ....|--- .... ....
....|..|--- .... ....|--- .... ....|--- .... ....
....|..|--- .... ....|--- .... ....|--- .... ....
....|..|--- .... ....|R-- .... ....|--- .... ....
....|..|--- .... ....|E-4 3F.A ....|--- .... ....
....|..|--- .... ....|--- .... ....|--- .... ....
....|..|--- .... ....|R-- .... ....|--- .... ....
....|..|--- .... ....|R-- .... ....|--- .... ....
....|..|--- .... ....|E-4 3F.7 ....|--- .... ....
....|..|--- .... ....|R-- .... ....|--- .... ....
....|..|--- .... ....|--- .... ....|--- .... ....
....|..|--- .... ....|--- .... ....|--- .... ....
....|..|--- .... ....|B-3 3F.F ....|--- .... ....
....|..|--- .... ....|--- .... ....|--- .... ....
....|..|--- .... ....|--- .... ....|--- .... ....
....|..|--- .... ....|R-- .... ....|--- .... ....
....|..|--- .... ....|E-4 3F.F ....|--- .... ....
....|..|--- .... ....|--- .... ....|--- .... ....
....|..|--- .... ....|R-- .... ....|--- .... ....
....|..|--- .... ....|R-- .... ....|--- .... ....
....|..|--- .... ....|D#4 3F.7 ....|--- .... ....
....|..|--- .... ....|R-- .... ....|--- .... ....
....|..|--- .... ....|--- .... ....|--- .... ....
....|..|--- .... ....|--- .... ....|--- .... ....
....|..|--- .... ....|E-4 3F.F ....|--- .... ....
....|..|--- .... ....|--- .... ....|--- .... ....
....|..|--- .... ....|--- .... ....|--- .... ....
....|..|--- .... ....|R-- .... ....|--- .... ....
....|..|--- .... ....|D#4 3F.F ....|--- .... ....
....|..|--- .... ....|--- .... ....|--- .... ....
....|..|--- .... ....|R-- .... ....|--- .... ....
....|..|--- .... ....|R-- .... ....|--- .... ....
....|..|--- .... ....|A-4 3F.F ....|--- .... ....
....|..|--- .... ....|R-- .... ....|--- .... ....
....|..|--- .... ....|--- .... ....|--- .... ....
....|..|--- .... ....|R-- .... ....|--- .... ....
....|..|--- .... ....|G#4 3F.F ....|--- .... ....
....|..|--- .... ....|--- .... ....|--- .... ....
....|..|--- .... ....|--- .... ....|--- .... ....
....|..|--- .... ....|R-- .... ....|--- .... ....
....|..|--- .... ....|E-4 3F.7 ....|--- .... ....
....|..|--- .... ....|--- .... ....|--- .... ....
....|..|--- .... ....|R-- .... ....|--- .... ....
....|..|--- .... ....|--- .... ....|--- .... ....
....|..|--- .... ....|A-4 3F.A ....|--- .... ....
....|..|--- .... ....|R-- .... ....|--- .... ....
....|..|--- .... ....|--- .... ....|--- .... ....
....|..|--- .... ....|R-- .... ....|--- .... ....
 A-3|..|--- .... ....|E-4 3F.F ....|A-1 2A.F ....
....|..|--- .... ....|--- .... ....|--- .... ....
....|..|--- .... ....|--- .... ....|--- .... ....
....|..|--- .... ....|R-- .... ....|R-- .... ....
 A-3|..|--- .... ....|D#4 3F.7 ....|A-1 2A.F ....
....|..|--- .... ....|R-- .... ....|R-- .... ....
 A-3|..|--- .... ....|R-- .... ....|A-1 2A.F ....
....|..|--- .... ....|--- .... ....|R-- .... ....
 A-3|..|--- .... ....|E-4 3F.F ....|A-1 2A.F ....
....|..|--- .... ....|--- .... ....|--- .... ....
....|..|--- .... ....|--- .... ....|--- .... ....
....|..|--- .... ....|R-- .... ....|R-- .... ....
 A-3|..|--- .... ....|D#4 3F.F ....|A-1 2A.F ....
....|..|--- .... ....|--- .... ....|--- .... ....
 A-3|..|--- .... ....|--- .... ....|A-1 2A.F ....
....|..|--- .... ....|--- .... ....|R-- .... ....
....|..|--- .... ....|E-4 3F.F ....|A-1 2F.A ....
....|..|--- .... ....|R-- .... ....|R-- .... ....
 A-3|..|--- .... ....|R-- .... ....|A-1 2A.F ....
....|..|--- .... ....|--- .... ....|R-- .... ....
 A-3|..|--- .... ....|E-4 3F.A ....|A-1 2A.F ....
....|..|--- .... ....|--- .... ....|R-- .... ....
 A-3|..|--- .... ....|--- .... ....|A-1 2A.F ....
....|..|--- .... ....|R-- .... ....|R-- .... ....
 A-3|..|--- .... ....|E-4 3F.7 ....|A-1 2A.F ....
....|..|--- .... ....|--- .... ....|--- .... ....
....|..|--- .... ....|--- .... ....|A-1 2F.A ....
....|..|--- .... ....|--- .... ....|R-- .... ....
 A-3|..|--- .... ....|E-4 3F.A ....|A-1 2A.F ....
....|..|--- .... ....|R-- .... ....|R-- .... ....
....|..|--- .... ....|--- .... ....|A-1 2F.7 ....
....|..|--- .... ....|--- .... ....|R-- .... ....

[Pattern9]
 G#3|..|--- .... ....|E-4 3F.F ....|G#1 2A.F ....
....|..|--- .... ....|--- .... ....|R-- .... ....
....|..|--- .... ....|--- .... ....|A-1 2F.A ....
....|..|--- .... ....|R-- .... ....|R-- .... ....
 G#3|..|--- .... ....|D#4 3F.7 ....|G#1 2A.F ....
....|..|--- .... ....|--- .... ....|R-- .... ....
 G#3|..|--- .... ....|--- .... ....|G#1 2A.F ....
....|..|--- .... ....|--- .... ....|R-- .... ....
 G#3|..|--- .... ....|E-4 3F.F ....|G#1 2A.F ....
....|..|--- .... ....|--- .... ....|--- .... ....
....|..|--- .... ....|--- .... ....|A-1 2F.7 ....
....|..|--- .... ....|R-- .... ....|R-- .... ....
 G#3|..|--- .... ....|D#4 3F.F ....|G#1 2A.F ....
....|..|--- .... ....|--- .... ....|R-- .... ....
 G#3|..|--- .... ....|--- .... ....|G#1 2A.F ....
....|..|--- .... ....|R-- .... ....|R-- .... ....
....|..|--- .... ....|E-4 3F.F ....|A-1 2F.7 ....
....|..|--- .... ....|--- .... ....|R-- .... ....
 G#3|..|--- .... ....|--- .... ....|G#1 2A.F ....
....|..|--- .... ....|R-- .... ....|R-- .... ....
 G#3|..|--- .... ....|F#4 3F.F ....|G#1 2A.F ....
....|..|--- .... ....|--- .... ....|R-- .... ....
 G#3|..|--- .... ....|--- .... ....|G#1 2A.F ....
....|..|--- .... ....|R-- .... ....|R-- .... ....
 G#3|..|--- .... ....|E-4 3F.7 ....|G#1 2A.F ....
....|..|--- .... ....|--- .... ....|--- .... ....
....|..|--- .... ....|--- .... ....|G#1 2F.A ....
....|..|--- .... ....|R-- .... ....|R-- .... ....
 E-4|..|--- .... ....|E-4 3F.A ....|E-2 2A.F ....
....|..|--- .... ....|--- .... ....|R-- .... ....
....|..|--- .... ....|--- .... ....|G#1 2F.7 ....
....|..|--- .... ....|R-- .... ....|R-- .... ....
 C#4|..|--- .... ....|E-4 3F.7 ....|C#2 2A.F ....
....|..|--- .... ....|--- .... ....|R-- .... ....
....|..|--- .... ....|--- .... ....|G#1 2F.A ....
....|..|--- .... ....|R-- .... ....|R-- .... ....
 C#4|..|--- .... ....|E-4 3F.F ....|C#2 2A.F ....
....|..|--- .... ....|--- .... ....|R-- .... ....
 C#4|..|--- .... ....|--- .... ....|C#2 2A.F ....
....|..|--- .... ....|R-- .... ....|R-- .... ....
 C#4|..|--- .... ....|E-4 3F.F ....|C#2 2A.F ....
....|..|--- .... ....|--- .... ....|--- .... ....
....|..|--- .... ....|R-- .... ....|G#1 2F.7 ....
....|..|--- .... ....|R-- .... ....|R-- .... ....
 C#4|..|--- .... ....|D#4 3F.F ....|C#2 2A.F ....
....|..|--- .... ....|--- .... ....|R-- .... ....
 C#4|..|--- .... ....|--- .... ....|C#2 2A.F ....
....|..|--- .... ....|R-- .... ....|R-- .... ....
....|..|--- .... ....|E-4 3F.F ....|G#1 2F.7 ....
....|..|--- .... ....|--- .... ....|R-- .... ....
 C#4|..|--- .... ....|--- .... ....|C#2 2A.F ....
....|..|--- .... ....|R-- .... ....|R-- .... ....
 C#4|..|--- .... ....|E-4 3F.A ....|C#2 2A.F ....
....|..|--- .... ....|--- .... ....|R-- .... ....
 C#4|..|--- .... ....|R-- .... ....|C#2 2A.F ....
....|..|--- .... ....|--- .... ....|R-- .... ....
 C#4|..|--- .... ....|D#4 3F.A ....|C#2 2A.F ....
....|..|--- .... ....|--- .... ....|--- .... ....
....|..|--- .... ....|--- .... ....|C#2 2F.A ....
....|..|--- .... ....|R-- .... ....|R-- .... ....
 B-3|..|--- .... ....|E-4 3F.7 ....|B-1 2A.F ....
....|..|--- .... ....|--- .... ....|R-- .... ....
....|..|--- .... ....|--- .... ....|C#2 2F.7 ....
....|..|--- .... ....|R-- .... ....|R-- .... ....
 E-4|..|--- .... ....|E-4 3F.F ....|E-2 2A.F ....
....|..|--- .... ....|--- .... ....|R-- .... ....
....|..|--- .... ....|R-- .... ....|C#2 2F.A ....
....|..|--- .... ....|--- .... ....|R-- .... ....
 E-4|..|--- .... ....|D#4 3F.7 ....|E-2 2A.F ....
....|..|--- .... ....|--- .... ....|R-- .... ....
 E-4|..|--- .... ....|R-- .... ....|E-2 2A.F ....
....|..|--- .... ....|R-- .... ....|R-- .... ....
 E-4|..|--- .... ....|E-4 3F.F ....|E-2 2A.F ....
....|..|--- .... ....|--- .... ....|--- .... ....
....|..|--- .... ....|R-- .... ....|C#2 2F.7 ....
....|..|--- .... ....|--- .... ....|R-- .... ....
 E-4|..|--- .... ....|D#4 3F.F ....|E-2 2A.F ....
....|..|--- .... ....|--- .... ....|R-- .... ....
 E-4|..|--- .... ....|R-- .... ....|E-2 2A.F ....
....|..|--- .... ....|--- .... ....|R-- .... ....
....|..|--- .... ....|E-4 3F.F ....|C#2 2F.7 ....
....|..|--- .... ....|--- .... ....|R-- .... ....
 E-4|..|--- .... ....|R-- .... ....|E-2 2A.F ....
....|..|--- .... ....|--- .... ....|R-- .... ....
 E-4|..|--- .... ....|F#4 3F.F ....|E-2 2A.F ....
....|..|--- .... ....|--- .... ....|R-- .... ....
 E-4|..|--- .... ....|R-- .... ....|E-2 2A.F ....
....|..|--- .... ....|--- .... ....|R-- .... ....
 E-4|..|--- .... ....|E-4 3F.7 ....|E-2 2A.F ....
....|..|--- .... ....|R-- .... ....|--- .... ....
....|..|--- .... ....|R-- .... ....|E-2 2F.A ....
....|..|--- .... ....|--- .... ....|R-- .... ....
 E-4|..|--- .... ....|E-4 3F.A ....|E-2 2A.F ....
....|..|--- .... ....|--- .... ....|R-- .... ....
....|..|--- .... ....|R-- .... ....|E-2 2F.7 ....
....|..|--- .... ....|--- .... ....|R-- .... ....
 A-3|..|--- .... ....|E-4 3F.F ....|A-1 2A.F ....
....|..|--- .... ....|--- .... ....|R-- .... ....
....|..|--- .... ....|R-- .... ....|E-2 2F.A ....
....|..|--- .... ....|--- .... ....|R-- .... ....
....|..|E-5 UF.F ....|D#4 3F.7 ....|E-2 2F.7 ....
....|..|--- .... ....|R-- .... ....|--- .... ....
....|..|--- .... ....|A-4 UF.F ....|E-2 2F.7 ....
....|..|--- .... ....|--- .... ....|R-- .... ....
....|..|--- .... ....|E-4 3F.F ....|E-2 2F.A ....
....|..|--- .... ....|--- .... ....|--- .... ....
....|..|A-4 UF.F ....|--- .... ....|E-2 2F.7 ....
....|..|--- .... ....|R-- .... ....|R-- .... ....
....|..|A-4 UF1F ....|D#4 3F.F ....|E-2 2F.7 ....
....|..|--- .... ....|--- .... ....|R-- .... ....
....|..|--- .... ....|R-- .... ....|E-2 2F.7 ....
....|..|--- .... ....|--- .... ....|R-- .... ....
....|..|D#4 UF2F ....|E-4 3F.F ....|E-2 2F.7 ....
....|..|--- .... ....|R-- .... ....|--- .... ....
....|..|D#5 UF.F ....|A-4 UF.A ....|--- .... ....
....|..|--- .... ....|--- .... ....|R-- .... ....
....|..|D#4 UF2F ....|D#5 UF.F ....|E-2 2F.7 ....
....|..|--- .... ....|--- .... ....|--- .... ....
....|..|E-5 UF.F ....|D#5 UF.F ....|--- .... ....
....|..|--- .... ....|A-4 UF.F ....|--- .... ....
....|..|D#4 UF2F ....|E-5 UF.F ....|A-1 2F.7 ....
....|..|--- .... ....|E-5 UF.F ....|--- .... ....
....|..|A-4 UF3F ....|R-- .... ....|--- .... ....
....|..|--- .... ....|R-- .... ....|R-- .... ....
....|..|A-4 UF4F ....|B-3 3F.F ....|--- .... ....
....|..|--- .... ....|R-- .... ....|--- .... ....
....|..|A-4 UF1F ....|A-4 UF.F ....|--- .... ....
....|..|--- .... ....|R-- .... ....|--- .... ....

[Pattern10]
....|..|D#4 UF2F ....|E-4 3F.F ....|--- .... ....
....|..|--- .... ....|E-5 UF.F ....|--- .... ....
....|..|A-4 UF3F ....|D#5 UF.A ....|--- .... ....
....|..|--- .... ....|A-4 UF.A ....|--- .... ....
....|..|A-4 UF4F ....|D#5 UF.F ....|--- .... ....
....|..|--- .... ....|E-5 UF.A ....|--- .... ....
....|..|A-4 UF1F ....|B-4 UF.F ....|--- .... ....
....|..|--- .... ....|R-- .... ....|--- .... ....
....|..|D#4 UF2F ....|E-4 3F.F ....|--- .... ....
....|..|--- .... ....|E-5 UF.F ....|--- .... ....
....|..|B-4 UF5F ....|A-4 UF.A ....|--- .... ....
....|..|--- .... ....|R-- .... ....|--- .... ....
....|..|B-4 UF6F ....|D#4 3F.F ....|--- .... ....
....|..|--- .... ....|E-5 UF.A ....|--- .... ....
....|..|B-4 UF7F ....|B-4 UF.F ....|--- .... ....
....|..|--- .... ....|A-4 UF.7 ....|--- .... ....
....|..|D#4 UF2F ....|E-4 3F.F ....|--- .... ....
....|..|--- .... ....|E-5 UF.F ....|--- .... ....
....|..|B-4 UF5F ....|B-4 UF.A ....|--- .... ....
....|..|--- .... ....|R-- .... ....|--- .... ....
....|..|B-4 UF6F ....|F#4 3F.F ....|--- .... ....
....|..|--- .... ....|E-5 UF.A ....|--- .... ....
....|..|B-4 UF7F ....|B-4 UF.F ....|--- .... ....
....|..|--- .... ....|R-- .... ....|--- .... ....
....|..|D#4 UF2F ....|E-5 UF.F ....|--- .... ....
....|..|--- .... ....|E-5 UF.F ....|--- .... ....
....|..|B-4 UF5F ....|B-4 UF.A ....|--- .... ....
....|..|--- .... ....|R-- .... ....|--- .... ....
....|..|B-4 UF6F ....|D#5 UF.F ....|--- .... ....
....|..|--- .... ....|E-5 UF.A ....|--- .... ....
....|..|B-4 UF7F ....|B-4 UF.F ....|--- .... ....
....|..|--- .... ....|R-- .... ....|--- .... ....
....|..|E-5 UF.F ....|E-4 3F.F ....|--- .... ....
....|..|--- .... ....|E-5 UF.F ....|--- .... ....
....|..|B-4 UF57 ....|B-4 UF.A ....|--- .... ....
....|..|--- .... ....|R-- .... ....|--- .... ....
....|..|D#4 UF2F ....|D#5 UF.F ....|--- .... ....
....|..|--- .... ....|E-5 UF.A ....|--- .... ....
....|..|C#4 UF8F ....|C#5 UF.F ....|--- .... ....
....|..|--- .... ....|R-- .... ....|--- .... ....
....|..|C#4 UF9F ....|E-4 3F.F ....|--- .... ....
....|..|--- .... ....|E-5 UF.F ....|--- .... ....
....|..|C#4 UFAF ....|B-4 UF.A ....|--- .... ....
....|..|--- .... ....|R-- .... ....|--- .... ....
....|..|D#4 UF2F ....|D#4 3F.F ....|--- .... ....
....|..|--- .... ....|E-5 UF.A ....|--- .... ....
....|..|C#4 UF8F ....|C#5 UF.F ....|--- .... ....
....|..|--- .... ....|R-- .... ....|--- .... ....
....|..|C#4 UF9F ....|E-4 3F.F ....|--- .... ....
....|..|--- .... ....|E-5 UF.F ....|--- .... ....
....|..|C#4 UFAF ....|C#5 UF.A ....|--- .... ....
....|..|--- .... ....|R-- .... ....|--- .... ....
....|..|D#4 UF2F ....|C#4 3F.F ....|--- .... ....
....|..|--- .... ....|E-5 UF.A ....|--- .... ....
....|..|C#4 UF8F ....|C#5 UF.F ....|--- .... ....
....|..|--- .... ....|--- .... ....|--- .... ....
....|..|C#4 UF9F ....|E-5 UF.F ....|--- .... ....
....|..|--- .... ....|E-5 UF.F ....|--- .... ....
....|..|C#4 UFAF ....|C#5 UF.A ....|--- .... ....
....|..|--- .... ....|R-- .... ....|--- .... ....
....|..|D#4 UF2F ....|D#5 UF.F ....|--- .... ....
....|..|--- .... ....|E-5 UF.A ....|--- .... ....
....|..|C#4 UF8F ....|C#5 UF.F ....|--- .... ....
....|..|--- .... ....|--- .... ....|--- .... ....
....|..|C#4 UF9F ....|E-5 3F.F ....|--- .... ....
....|..|--- .... ....|E-5 UF.F ....|--- .... ....
....|..|C#4 UFAF ....|C#5 UF.A ....|--- .... ....
....|..|--- .... ....|--- .... ....|--- .... ....
....|..|E-5 UF.F ....|D#4 3F.7 ....|--- .... ....
....|..|--- .... ....|B-4 UF.F ....|--- .... ....
....|..|C#4 UF87 ....|C#5 UF.7 ....|--- .... ....
....|..|--- .... ....|R-- .... ....|--- .... ....
....|..|C#4 UF97 ....|E-5 3F.F ....|--- .... ....
....|..|--- .... ....|E-5 UF.7 ....|--- .... ....
....|..|C#4 UFA7 ....|C#5 UF.A ....|--- .... ....
....|..|--- .... ....|--- .... ....|--- .... ....
....|..|D#4 UF27 ....|D#5 3F.F ....|--- .... ....
....|..|--- .... ....|E-5 UF.A ....|--- .... ....
....|..|C#4 UF87 ....|C#5 UF.7 ....|--- .... ....
....|..|--- .... ....|R-- .... ....|--- .... ....
....|..|C#4 UF97 ....|E-5 3F.F ....|--- .... ....
....|..|--- .... ....|E-5 UF.7 ....|--- .... ....
....|..|C#4 UFA7 ....|R-- .... ....|--- .... ....
....|..|--- .... ....|--- .... ....|--- .... ....
....|..|D#4 UF27 ....|C#5 3F.F ....|--- .... ....
....|..|--- .... ....|--- .... ....|--- .... ....
....|..|C#4 UF87 ....|C#5 UF.7 ....|--- .... ....
....|..|--- .... ....|--- .... ....|--- .... ....
....|..|C#4 UF97 ....|E-5 3F.7 ....|--- .... ....
....|..|--- .... ....|E-5 UF.7 ....|--- .... ....
....|..|C#4 UFA7 ....|R-- .... ....|--- .... ....
....|..|--- .... ....|R-- .... ....|--- .... ....
....|..|E-5 UF.7 ....|E-5 3F.A ....|--- .... ....
....|..|--- .... ....|B-4 UF.7 ....|--- .... ....
....|..|R-- .... ....|--- .... ....|--- .... ....
....|..|--- .... ....|--- .... ....|--- .... ....
 A-3|..|--- .... ....|A-4 3F.F ....|A-1 2A.F ....
....|..|--- .... ....|--- .... ....|--- .... ....
....|..|--- .... ....|--- .... ....|--- .... ....
....|..|--- .... ....|--- .... ....|R-- .... ....
 A-3|..|--- .... ....|D#5 3F.7 ....|A-1 2A.F ....
....|..|--- .... ....|R-- .... ....|R-- .... ....
 A-3|..|--- .... ....|--- .... ....|A-1 2A.F ....
....|..|--- .... ....|R-- .... ....|R-- .... ....
 A-3|..|--- .... ....|A-4 3F.F ....|A-1 2A.F ....
....|..|--- .... ....|--- .... ....|--- .... ....
....|..|--- .... ....|--- .... ....|--- .... ....
....|..|--- .... ....|R-- .... ....|R-- .... ....
 A-3|..|--- .... ....|G#4 3F.F ....|A-1 2A.F ....
....|..|--- .... ....|--- .... ....|--- .... ....
 A-3|..|--- .... ....|--- .... ....|A-1 2A.F ....
....|..|--- .... ....|R-- .... ....|R-- .... ....
....|..|--- .... ....|A-4 3F.F ....|A-1 2F.A ....
....|..|--- .... ....|R-- .... ....|R-- .... ....
 A-3|..|--- .... ....|--- .... ....|A-1 2A.F ....
....|..|--- .... ....|R-- .... ....|R-- .... ....
 A-3|..|--- .... ....|F#4 3F.F ....|A-1 2A.F ....
....|..|--- .... ....|--- .... ....|R-- .... ....
 A-3|..|--- .... ....|--- .... ....|A-1 2A.F ....
....|..|--- .... ....|R-- .... ....|R-- .... ....
 A-3|..|--- .... ....|A-4 3F.7 ....|A-1 2A.F ....
....|..|--- .... ....|--- .... ....|--- .... ....
....|..|--- .... ....|--- .... ....|A-1 2F.A ....
....|..|--- .... ....|R-- .... ....|R-- .... ....
 A-3|..|--- .... ....|A-4 3F.F ....|A-1 2A.F ....
....|..|--- .... ....|R-- .... ....|R-- .... ....
....|..|--- .... ....|--- .... ....|A-1 2F.7 ....
....|..|--- .... ....|R-- .... ....|R-- .... ....

[Pattern11]
 G#3|..|--- .... ....|A-4 3F.7 ....|G#1 2A.F ....
....|..|--- .... ....|--- .... ....|R-- .... ....
....|..|--- .... ....|--- .... ....|A-1 2F.A ....
....|..|--- .... ....|R-- .... ....|R-- .... ....
 G#3|..|--- .... ....|G#4 3F.7 ....|G#1 2A.F ....
....|..|--- .... ....|--- .... ....|R-- .... ....
 G#3|..|--- .... ....|--- .... ....|G#1 2A.F ....
....|..|--- .... ....|R-- .... ....|R-- .... ....
 G#3|..|--- .... ....|A-4 3F.F ....|G#1 2A.F ....
....|..|--- .... ....|--- .... ....|--- .... ....
....|..|--- .... ....|--- .... ....|A-1 2F.7 ....
....|..|--- .... ....|R-- .... ....|R-- .... ....
 G#3|..|--- .... ....|G#4 3F.F ....|G#1 2A.F ....
....|..|--- .... ....|--- .... ....|R-- .... ....
 G#3|..|--- .... ....|R-- .... ....|G#1 2A.F ....
....|..|--- .... ....|--- .... ....|R-- .... ....
....|..|--- .... ....|A-4 3F.F ....|A-1 2F.7 ....
....|..|--- .... ....|--- .... ....|R-- .... ....
 G#3|..|--- .... ....|--- .... ....|G#1 2A.F ....
....|..|--- .... ....|--- .... ....|R-- .... ....
 G#3|..|--- .... ....|D#5 3F.F ....|G#1 2A.F ....
....|..|--- .... ....|--- .... ....|R-- .... ....
 G#3|..|--- .... ....|--- .... ....|G#1 2A.F ....
....|..|--- .... ....|R-- .... ....|R-- .... ....
 G#3|..|--- .... ....|G#4 3F.A ....|G#1 2A.F ....
....|..|--- .... ....|R-- .... ....|--- .... ....
....|..|--- .... ....|R-- .... ....|G#1 2F.A ....
....|..|--- .... ....|--- .... ....|R-- .... ....
 E-4|..|--- .... ....|D#5 3F.F ....|E-2 2A.F ....
....|..|--- .... ....|--- .... ....|R-- .... ....
....|..|--- .... ....|--- .... ....|G#1 2F.7 ....
....|..|--- .... ....|--- .... ....|R-- .... ....
 C#4|..|--- .... ....|E-5 3F.F ....|C#2 2A.F ....
....|..|--- .... ....|--- .... ....|R-- .... ....
....|..|--- .... ....|--- .... ....|G#1 2F.A ....
....|..|--- .... ....|R-- .... ....|R-- .... ....
 C#4|..|--- .... ....|G#4 3F.7 ....|C#2 2A.F ....
....|..|--- .... ....|R-- .... ....|R-- .... ....
 C#4|..|--- .... ....|R-- .... ....|C#2 2A.F ....
....|..|--- .... ....|--- .... ....|R-- .... ....
 C#4|..|--- .... ....|E-5 3F.F ....|C#2 2A.F ....
....|..|--- .... ....|--- .... ....|--- .... ....
....|..|--- .... ....|--- .... ....|G#1 2F.7 ....
....|..|--- .... ....|--- .... ....|R-- .... ....
 C#4|..|--- .... ....|D#5 3F.F ....|C#2 2A.F ....
....|..|--- .... ....|--- .... ....|R-- .... ....
 C#4|..|--- .... ....|--- .... ....|C#2 2A.F ....
....|..|--- .... ....|--- .... ....|R-- .... ....
....|..|--- .... ....|E-5 3F.F ....|G#1 2F.7 ....
....|..|--- .... ....|R-- .... ....|R-- .... ....
 C#4|..|--- .... ....|--- .... ....|C#2 2A.F ....
....|..|--- .... ....|--- .... ....|R-- .... ....
 C#4|..|--- .... ....|C#5 3F.F ....|C#2 2A.F ....
....|..|--- .... ....|--- .... ....|R-- .... ....
 C#4|..|--- .... ....|--- .... ....|C#2 2A.F ....
....|..|--- .... ....|--- .... ....|R-- .... ....
 C#4|..|--- .... ....|E-5 3F.7 ....|C#2 2A.F ....
....|..|--- .... ....|--- .... ....|--- .... ....
....|..|--- .... ....|--- .... ....|C#2 2F.A ....
....|..|--- .... ....|--- .... ....|R-- .... ....
 B-3|..|--- .... ....|D#5 3F.F ....|B-1 2A.F ....
....|..|--- .... ....|--- .... ....|R-- .... ....
....|..|--- .... ....|--- .... ....|C#2 2F.7 ....
....|..|--- .... ....|--- .... ....|R-- .... ....
 E-4|..|--- .... ....|E-5 3F.F ....|E-2 2A.F ....
....|..|--- .... ....|--- .... ....|R-- .... ....
....|..|--- .... ....|--- .... ....|C#2 2F.A ....
....|..|--- .... ....|--- .... ....|R-- .... ....
 E-4|..|--- .... ....|D#5 3F.7 ....|E-2 2A.F ....
....|..|--- .... ....|--- .... ....|R-- .... ....
 E-4|..|--- .... ....|--- .... ....|E-2 2A.F ....
....|..|--- .... ....|--- .... ....|R-- .... ....
 E-4|..|--- .... ....|E-5 3F.F ....|E-2 2A.F ....
....|..|--- .... ....|--- .... ....|--- .... ....
....|..|--- .... ....|--- .... ....|C#2 2F.7 ....
....|..|--- .... ....|--- .... ....|R-- .... ....
 E-4|..|--- .... ....|D#5 3F.F ....|E-2 2A.F ....
....|..|--- .... ....|--- .... ....|R-- .... ....
 E-4|..|--- .... ....|--- .... ....|E-2 2A.F ....
....|..|--- .... ....|--- .... ....|R-- .... ....
....|..|--- .... ....|E-5 3F.F ....|C#2 2F.7 ....
....|..|--- .... ....|--- .... ....|R-- .... ....
 E-4|..|--- .... ....|--- .... ....|E-2 2A.F ....
....|..|--- .... ....|--- .... ....|R-- .... ....
 E-4|..|--- .... ....|C#5 3F.F ....|E-2 2A.F ....
....|..|--- .... ....|--- .... ....|R-- .... ....
 E-4|..|--- .... ....|--- .... ....|E-2 2A.F ....
....|..|--- .... ....|--- .... ....|R-- .... ....
 E-4|..|--- .... ....|E-5 3F.7 ....|E-2 2A.F ....
....|..|--- .... ....|--- .... ....|--- .... ....
....|..|--- .... ....|--- .... ....|E-2 2F.A ....
....|..|--- .... ....|--- .... ....|R-- .... ....
 E-4|..|--- .... ....|E-5 3F.A ....|E-2 2A.F ....
....|..|--- .... ....|--- .... ....|R-- .... ....
....|..|--- .... ....|--- .... ....|E-2 2F.7 ....
....|..|--- .... ....|--- .... ....|R-- .... ....
 A-3|..|--- .... ....|A-4 3F.F ....|A-1 2A.F ....
....|..|--- .... ....|--- .... ....|R-- .... ....
....|..|--- .... ....|--- .... ....|E-2 2F.A ....
....|..|--- .... ....|--- .... ....|R-- .... ....
 A-3|..|--- .... ....|D#5 3F.7 ....|A-1 2A.F ....
....|..|--- .... ....|R-- .... ....|R-- .... ....
 A-3|..|--- .... ....|--- .... ....|A-1 2A.F ....
....|..|--- .... ....|--- .... ....|R-- .... ....
 A-3|..|--- .... ....|A-4 3F.F ....|A-1 2A.F ....
....|..|--- .... ....|--- .... ....|--- .... ....
....|..|--- .... ....|--- .... ....|E-2 2F.7 ....
....|..|--- .... ....|R-- .... ....|R-- .... ....
 A-3|..|--- .... ....|G#4 3F.F ....|A-1 2A.F ....
....|..|--- .... ....|--- .... ....|R-- .... ....
 A-3|..|--- .... ....|--- .... ....|A-1 2A.F ....
....|..|--- .... ....|R-- .... ....|R-- .... ....
....|..|--- .... ....|A-4 3F.F ....|E-2 2F.7 ....
....|..|--- .... ....|R-- .... ....|R-- .... ....
 A-3|..|--- .... ....|--- .... ....|A-1 2A.F ....
....|..|--- .... ....|R-- .... ....|R-- .... ....
 A-3|..|--- .... ....|F#4 3F.F ....|A-1 2A.F ....
....|..|--- .... ....|--- .... ....|R-- .... ....
 A-3|..|--- .... ....|--- .... ....|A-1 2A.F ....
....|..|--- .... ....|R-- .... ....|R-- .... ....
 A-3|..|--- .... ....|A-4 3F.7 ....|A-1 2A.F ....
....|..|--- .... ....|--- .... ....|--- .... ....
....|..|--- .... ....|--- .... ....|A-1 2F.A ....
....|..|--- .... ....|R-- .... ....|R-- .... ....
 A-3|..|--- .... ....|A-4 3F.F ....|A-1 2A.F ....
....|..|--- .... ....|R-- .... ....|R-- .... ....
....|..|--- .... ....|--- .... ....|A-1 2F.7 ....
....|..|--- .... ....|R-- .... ....|R-- .... ....

[Pattern12]
 G#3|..|--- .... ....|A-4 3F.7 ....|G#1 2A.F ....
....|..|--- .... ....|--- .... ....|R-- .... ....
....|..|--- .... ....|--- .... ....|A-1 2F.A ....
....|..|--- .... ....|R-- .... ....|R-- .... ....
 G#3|..|--- .... ....|G#4 3F.7 ....|G#1 2A.F ....
....|..|--- .... ....|--- .... ....|R-- .... ....
 G#3|..|--- .... ....|--- .... ....|G#1 2A.F ....
....|..|--- .... ....|R-- .... ....|R-- .... ....
 G#3|..|--- .... ....|A-4 3F.F ....|G#1 2A.F ....
....|..|--- .... ....|--- .... ....|--- .... ....
....|..|--- .... ....|--- .... ....|A-1 2F.7 ....
....|..|--- .... ....|R-- .... ....|R-- .... ....
 G#3|..|--- .... ....|G#4 3F.F ....|G#1 2A.F ....
....|..|--- .... ....|--- .... ....|R-- .... ....
 G#3|..|--- .... ....|R-- .... ....|G#1 2A.F ....
....|..|--- .... ....|--- .... ....|R-- .... ....
....|..|--- .... ....|A-4 3F.F ....|A-1 2F.7 ....
....|..|--- .... ....|--- .... ....|R-- .... ....
 G#3|..|--- .... ....|--- .... ....|G#1 2A.F ....
....|..|--- .... ....|--- .... ....|R-- .... ....
 G#3|..|--- .... ....|D#5 3F.F ....|G#1 2A.F ....
....|..|--- .... ....|--- .... ....|R-- .... ....
 G#3|..|--- .... ....|--- .... ....|G#1 2A.F ....
....|..|--- .... ....|R-- .... ....|R-- .... ....
 G#3|..|--- .... ....|G#4 3F.A ....|G#1 2A.F ....
....|..|--- .... ....|R-- .... ....|--- .... ....
....|..|--- .... ....|R-- .... ....|G#1 2F.A ....
....|..|--- .... ....|--- .... ....|R-- .... ....
 E-4|..|--- .... ....|D#5 3F.F ....|E-2 2A.F ....
....|..|--- .... ....|--- .... ....|R-- .... ....
....|..|--- .... ....|--- .... ....|G#1 2F.7 ....
....|..|--- .... ....|--- .... ....|R-- .... ....
 C#4|..|--- .... ....|E-5 3F.F ....|C#2 2A.F ....
....|..|--- .... ....|--- .... ....|R-- .... ....
....|..|--- .... ....|--- .... ....|G#1 2F.A ....
....|..|--- .... ....|R-- .... ....|R-- .... ....
 C#4|..|--- .... ....|G#4 3F.7 ....|C#2 2A.F ....
....|..|--- .... ....|R-- .... ....|R-- .... ....
 C#4|..|--- .... ....|R-- .... ....|C#2 2A.F ....
....|..|--- .... ....|--- .... ....|R-- .... ....
 C#4|..|--- .... ....|E-5 3F.F ....|C#2 2A.F ....
....|..|--- .... ....|--- .... ....|--- .... ....
....|..|--- .... ....|--- .... ....|G#1 2F.7 ....
....|..|--- .... ....|--- .... ....|R-- .... ....
 C#4|..|--- .... ....|D#5 3F.F ....|C#2 2A.F ....
....|..|--- .... ....|--- .... ....|R-- .... ....
 C#4|..|--- .... ....|--- .... ....|C#2 2A.F ....
....|..|--- .... ....|--- .... ....|R-- .... ....
....|..|--- .... ....|E-5 3F.F ....|G#1 2F.7 ....
....|..|--- .... ....|R-- .... ....|R-- .... ....
 C#4|..|--- .... ....|--- .... ....|C#2 2A.F ....
....|..|--- .... ....|--- .... ....|R-- .... ....
 C#4|..|--- .... ....|C#5 3F.F ....|C#2 2A.F ....
....|..|--- .... ....|--- .... ....|R-- .... ....
 C#4|..|--- .... ....|--- .... ....|C#2 2A.F ....
....|..|--- .... ....|--- .... ....|R-- .... ....
 C#4|..|--- .... ....|E-5 3F.7 ....|C#2 2A.F ....
....|..|--- .... ....|--- .... ....|--- .... ....
....|..|--- .... ....|--- .... ....|C#2 2F.A ....
....|..|--- .... ....|--- .... ....|R-- .... ....
 B-3|..|--- .... ....|D#5 3F.F ....|B-1 2A.F ....
....|..|--- .... ....|--- .... ....|R-- .... ....
....|..|--- .... ....|--- .... ....|C#2 2F.7 ....
....|..|--- .... ....|--- .... ....|R-- .... ....
....|..|--- .... ....|E-5 3F.F ....|C#2 2F.7 ....
....|..|--- .... ....|--- .... ....|R-- .... ....
....|..|--- .... ....|--- .... ....|C#2 2F.A ....
....|..|--- .... ....|--- .... ....|R-- .... ....
....|..|--- .... ....|D#5 3F.7 ....|C#2 2F.7 ....
....|..|--- .... ....|--- .... ....|--- .... ....
....|..|--- .... ....|E-5 UF.F ....|C#2 2F.7 ....
....|..|--- .... ....|--- .... ....|R-- .... ....
....|..|--- .... ....|E-5 3F.F ....|B-1 2F.A ....
....|..|--- .... ....|--- .... ....|--- .... ....
....|..|--- .... ....|--- .... ....|C#2 2F.7 ....
....|..|--- .... ....|--- .... ....|R-- .... ....
....|..|--- .... ....|D#5 3F.F ....|C#2 2F.7 ....
....|..|--- .... ....|--- .... ....|R-- .... ....
....|..|--- .... ....|--- .... ....|C#2 2F.7 ....
....|..|--- .... ....|--- .... ....|--- .... ....
....|..|--- .... ....|E-5 3F.F ....|C#2 2F.7 ....
....|..|--- .... ....|--- .... ....|--- .... ....
....|..|--- .... ....|E-5 UF.A ....|--- .... ....
....|..|--- .... ....|--- .... ....|R-- .... ....
....|..|--- .... ....|C#5 3F.F ....|B-1 2F.7 ....
....|..|--- .... ....|--- .... ....|--- .... ....
....|..|--- .... ....|--- .... ....|--- .... ....
....|..|--- .... ....|--- .... ....|--- .... ....
....|..|--- .... ....|E-5 3F.7 ....|R-- .... ....
....|..|--- .... ....|--- .... ....|--- .... ....
....|..|--- .... ....|--- .... ....|--- .... ....
....|..|--- .... ....|--- .... ....|--- .... ....
....|..|--- .... ....|D#5 3F.F ....|--- .... ....
....|..|--- .... ....|--- .... ....|--- .... ....
....|..|--- .... ....|E-5 UF.7 ....|--- .... ....
....|..|--- .... ....|--- .... ....|--- .... ....
 A-3|..|--- .... ....|E-5 3F.F ....|A-1 2A.F ....
....|..|--- .... ....|--- .... ....|--- .... ....
....|..|--- .... ....|--- .... ....|--- .... ....
....|..|--- .... ....|--- .... ....|R-- .... ....
 A-3|..|--- .... ....|D#5 3F.7 ....|A-1 2A.F ....
....|..|--- .... ....|--- .... ....|R-- .... ....
 A-3|..|--- .... ....|--- .... ....|A-1 2A.F ....
....|..|--- .... ....|--- .... ....|R-- .... ....
 A-3|..|--- .... ....|E-5 3F.F ....|A-1 2A.F ....
....|..|--- .... ....|--- .... ....|--- .... ....
....|..|--- .... ....|--- .... ....|--- .... ....
....|..|--- .... ....|R-- .... ....|R-- .... ....
 A-3|..|--- .... ....|D#5 3F.F ....|A-1 2A.F ....
....|..|--- .... ....|--- .... ....|--- .... ....
 A-3|..|--- .... ....|--- .... ....|A-1 2A.F ....
....|..|--- .... ....|--- .... ....|R-- .... ....
....|..|--- .... ....|E-5 3F.F ....|A-1 2F.A ....
....|..|--- .... ....|--- .... ....|R-- .... ....
 A-3|..|--- .... ....|--- .... ....|A-1 2A.F ....
....|..|--- .... ....|--- .... ....|R-- .... ....
 A-3|..|--- .... ....|F#5 3F.F ....|A-1 2A.F ....
....|..|--- .... ....|--- .... ....|R-- .... ....
 A-3|..|--- .... ....|--- .... ....|A-1 2A.F ....
....|..|--- .... ....|R-- .... ....|R-- .... ....
 A-3|..|--- .... ....|E-5 3F.7 ....|A-1 2A.F ....
....|..|--- .... ....|--- .... ....|--- .... ....
....|..|--- .... ....|--- .... ....|A-1 2F.A ....
....|..|--- .... ....|--- .... ....|R-- .... ....
 A-3|..|--- .... ....|E-5 3F.A ....|A-1 2A.F ....
....|..|--- .... ....|--- .... ....|R-- .... ....
....|..|--- .... ....|--- .... ....|A-1 2F.7 ....
....|..|--- .... ....|--- .... ....|R-- .... ....

[Pattern13]
 G#3|..|--- .... ....|E-5 3F.7 ....|G#1 2A.F ....
....|..|--- .... ....|--- .... ....|R-- .... ....
....|..|--- .... ....|--- .... ....|A-1 2F.A ....
....|..|--- .... ....|R-- .... ....|R-- .... ....
 G#3|..|--- .... ....|D#5 3F.7 ....|G#1 2A.F ....
....|..|--- .... ....|--- .... ....|R-- .... ....
 G#3|..|--- .... ....|--- .... ....|G#1 2A.F ....
....|..|--- .... ....|--- .... ....|R-- .... ....
 G#3|..|--- .... ....|E-5 3F.7 ....|G#1 2A.F ....
....|..|--- .... ....|--- .... ....|--- .... ....
....|..|--- .... ....|--- .... ....|A-1 2F.7 ....
....|..|--- .... ....|--- .... ....|R-- .... ....
 G#3|..|--- .... ....|F#5 3F.7 ....|G#1 2A.F ....
....|..|--- .... ....|--- .... ....|R-- .... ....
 G#3|..|--- .... ....|--- .... ....|G#1 2A.F ....
....|..|--- .... ....|--- .... ....|R-- .... ....
....|..|--- .... ....|--- .... ....|A-1 2F.7 ....
....|..|--- .... ....|--- .... ....|R-- .... ....
 G#3|..|--- .... ....|--- .... ....|G#1 2A.F ....
....|..|--- .... ....|--- .... ....|R-- .... ....
 G#3|..|--- .... ....|--- .... ....|G#1 2A.F ....
....|..|--- .... ....|--- .... ....|R-- .... ....
 G#3|..|--- .... ....|--- .... ....|G#1 2A.F ....
....|..|--- .... ....|--- .... ....|R-- .... ....
 G#3|..|--- .... ....|R-- .... ....|G#1 2A.F ....
....|..|--- .... ....|--- .... ....|--- .... ....
....|..|--- .... ....|--- .... ....|G#1 2F.A ....
....|..|--- .... ....|--- .... ....|R-- .... ....
 E-4|..|--- .... ....|D#5 3F.F ....|E-2 2A.F ....
....|..|--- .... ....|--- .... ....|R-- .... ....
....|..|--- .... ....|--- .... ....|G#1 2F.7 ....
....|..|--- .... ....|--- .... ....|R-- .... ....
 C#4|..|--- .... ....|E-5 3F.F ....|C#2 2A.F ....
....|..|--- .... ....|--- .... ....|R-- .... ....
....|..|--- .... ....|--- .... ....|G#1 2F.A ....
....|..|--- .... ....|--- .... ....|R-- .... ....
 C#4|..|--- .... ....|R-- .... ....|C#2 2A.F ....
....|..|--- .... ....|--- .... ....|R-- .... ....
 C#4|..|--- .... ....|--- .... ....|C#2 2A.F ....
....|..|--- .... ....|--- .... ....|R-- .... ....
 C#4|..|--- .... ....|E-5 3F.F ....|C#2 2A.F ....
....|..|--- .... ....|--- .... ....|--- .... ....
....|..|--- .... ....|--- .... ....|G#1 2F.7 ....
....|..|--- .... ....|R-- .... ....|R-- .... ....
 C#4|..|--- .... ....|D#5 3F.F ....|C#2 2A.F ....
....|..|--- .... ....|--- .... ....|R-- .... ....
 C#4|..|--- .... ....|--- .... ....|C#2 2A.F ....
....|..|--- .... ....|--- .... ....|R-- .... ....
....|..|--- .... ....|E-5 3F.F ....|G#1 2F.7 ....
....|..|--- .... ....|--- .... ....|R-- .... ....
 C#4|..|--- .... ....|--- .... ....|C#2 2A.F ....
....|..|--- .... ....|--- .... ....|R-- .... ....
 C#4|..|--- .... ....|C#5 3F.F ....|C#2 2A.F ....
....|..|--- .... ....|--- .... ....|R-- .... ....
 C#4|..|--- .... ....|--- .... ....|C#2 2A.F ....
....|..|--- .... ....|R-- .... ....|R-- .... ....
 C#4|..|--- .... ....|E-5 3F.F ....|C#2 2A.F ....
....|..|--- .... ....|--- .... ....|--- .... ....
....|..|--- .... ....|--- .... ....|C#2 2F.A ....
....|..|--- .... ....|--- .... ....|R-- .... ....
 B-3|..|--- .... ....|D#5 3F.F ....|B-1 2A.F ....
....|..|--- .... ....|--- .... ....|R-- .... ....
....|..|--- .... ....|--- .... ....|C#2 2F.7 ....
....|..|--- .... ....|--- .... ....|R-- .... ....
 E-4|..|--- .... ....|E-5 3F.F ....|E-2 2A.F ....
....|..|--- .... ....|--- .... ....|R-- .... ....
....|..|--- .... ....|--- .... ....|C#2 2F.A ....
....|..|--- .... ....|R-- .... ....|R-- .... ....
 E-4|..|--- .... ....|C#5 3F.F ....|E-2 2A.F ....
....|..|--- .... ....|--- .... ....|R-- .... ....
 E-4|..|--- .... ....|--- .... ....|E-2 2A.F ....
....|..|--- .... ....|R-- .... ....|R-- .... ....
 E-4|..|--- .... ....|E-5 UF.F ....|E-2 2A.F ....
....|..|--- .... ....|--- .... ....|--- .... ....
....|..|--- .... ....|--- .... ....|C#2 2F.7 ....
....|..|--- .... ....|R-- .... ....|R-- .... ....
 E-4|..|--- .... ....|D#5 UF.F ....|E-2 2A.F ....
....|..|--- .... ....|--- .... ....|R-- .... ....
 E-4|..|--- .... ....|--- .... ....|E-2 2A.F ....
....|..|--- .... ....|--- .... ....|R-- .... ....
....|..|--- .... ....|E-5 UF.F ....|C#2 2F.7 ....
....|..|--- .... ....|--- .... ....|R-- .... ....
 E-4|..|--- .... ....|--- .... ....|E-2 2A.F ....
....|..|--- .... ....|R-- .... ....|R-- .... ....
 E-4|..|--- .... ....|C#5 UF.F ....|E-2 2A.F ....
....|..|--- .... ....|--- .... ....|R-- .... ....
 E-4|..|--- .... ....|--- .... ....|E-2 2A.F ....
....|..|--- .... ....|R-- .... ....|R-- .... ....
 E-4|..|--- .... ....|E-5 3F.7 ....|E-2 2A.F ....
....|..|--- .... ....|--- .... ....|--- .... ....
....|..|--- .... ....|--- .... ....|E-2 2F.A ....
....|..|--- .... ....|--- .... ....|R-- .... ....
 E-4|..|--- .... ....|D#5 3F.F ....|E-2 2A.F ....
....|..|--- .... ....|--- .... ....|R-- .... ....
....|..|--- .... ....|--- .... ....|E-2 2F.7 ....
....|..|--- .... ....|R-- .... ....|R-- .... ....
 A-3|..|--- .... ....|E-5 3F.F ....|A-1 2A.F ....
....|..|--- .... ....|--- .... ....|R-- .... ....
....|..|--- .... ....|--- .... ....|E-2 2F.A ....
....|..|--- .... ....|R-- .... ....|R-- .... ....
 A-3|..|--- .... ....|D#5 UF.7 ....|A-1 2A.F ....
....|..|--- .... ....|--- .... ....|R-- .... ....
 A-3|..|--- .... ....|--- .... ....|A-1 2A.F ....
....|..|--- .... ....|--- .... ....|R-- .... ....
 A-3|..|--- .... ....|E-5 3F.F ....|A-1 2A.F ....
....|..|--- .... ....|--- .... ....|--- .... ....
....|..|--- .... ....|--- .... ....|E-2 2F.7 ....
....|..|--- .... ....|R-- .... ....|R-- .... ....
 A-3|..|--- .... ....|D#5 3F.F ....|A-1 2A.F ....
....|..|--- .... ....|--- .... ....|R-- .... ....
 A-3|..|--- .... ....|--- .... ....|A-1 2A.F ....
....|..|--- .... ....|--- .... ....|R-- .... ....
....|..|--- .... ....|E-5 3F.F ....|E-2 2F.7 ....
....|..|--- .... ....|--- .... ....|R-- .... ....
 A-3|..|--- .... ....|--- .... ....|A-1 2A.F ....
....|..|--- .... ....|--- .... ....|R-- .... ....
 A-3|..|--- .... ....|C#5 3F.F ....|A-1 2A.F ....
....|..|--- .... ....|--- .... ....|R-- .... ....
 A-3|..|--- .... ....|--- .... ....|A-1 2A.F ....
....|..|--- .... ....|R-- .... ....|R-- .... ....
 A-3|..|--- .... ....|E-5 3F.F ....|A-1 2A.F ....
....|..|--- .... ....|--- .... ....|--- .... ....
....|..|--- .... ....|--- .... ....|A-1 2F.A ....
....|..|--- .... ....|--- .... ....|R-- .... ....
 A-3|..|--- .... ....|D#5 3F.F ....|A-1 2A.F ....
....|..|--- .... ....|--- .... ....|R-- .... ....
....|..|--- .... ....|--- .... ....|A-1 2F.7 ....
....|..|--- .... ....|--- .... ....|R-- .... ....

[Pattern14]
 G#3|..|--- .... ....|E-5 3F.F ....|G#1 2A.F ....
....|..|--- .... ....|--- .... ....|R-- .... ....
....|..|--- .... ....|--- .... ....|A-1 2F.A ....
....|..|--- .... ....|R-- .... ....|R-- .... ....
 G#3|..|--- .... ....|C#5 3F.F ....|G#1 2A.F ....
....|..|--- .... ....|--- .... ....|R-- .... ....
 G#3|..|--- .... ....|--- .... ....|G#1 2A.F ....
....|..|--- .... ....|R-- .... ....|R-- .... ....
 G#3|..|--- .... ....|E-5 3F.F ....|G#1 2A.F ....
....|..|--- .... ....|--- .... ....|--- .... ....
....|..|--- .... ....|--- .... ....|A-1 2F.7 ....
....|..|--- .... ....|--- .... ....|R-- .... ....
 G#3|..|--- .... ....|D#5 3F.F ....|G#1 2A.F ....
....|..|--- .... ....|--- .... ....|R-- .... ....
 G#3|..|--- .... ....|--- .... ....|G#1 2A.F ....
....|..|--- .... ....|--- .... ....|R-- .... ....
....|..|--- .... ....|E-5 3F.F ....|A-1 2F.7 ....
....|..|--- .... ....|--- .... ....|R-- .... ....
 G#3|..|--- .... ....|--- .... ....|G#1 2A.F ....
....|..|--- .... ....|R-- .... ....|R-- .... ....
 G#3|..|--- .... ....|C#5 3F.F ....|G#1 2A.F ....
....|..|--- .... ....|--- .... ....|R-- .... ....
 G#3|..|--- .... ....|--- .... ....|G#1 2A.F ....
....|..|--- .... ....|R-- .... ....|R-- .... ....
 G#3|..|--- .... ....|E-5 3F.7 ....|G#1 2A.F ....
....|..|--- .... ....|--- .... ....|--- .... ....
....|..|--- .... ....|--- .... ....|G#1 2F.A ....
....|..|--- .... ....|--- .... ....|R-- .... ....
 E-4|..|--- .... ....|C#5 3F.7 ....|E-2 2A.F ....
....|..|--- .... ....|--- .... ....|R-- .... ....
....|..|--- .... ....|--- .... ....|G#1 2F.7 ....
....|..|--- .... ....|R-- .... ....|R-- .... ....
 C#4|..|--- .... ....|E-5 3F.7 ....|C#2 2A.F ....
....|..|--- .... ....|--- .... ....|R-- .... ....
....|..|--- .... ....|--- .... ....|G#1 2F.A ....
....|..|--- .... ....|R-- .... ....|R-- .... ....
 C#4|..|--- .... ....|D#5 3F.7 ....|C#2 2A.F ....
....|..|--- .... ....|--- .... ....|R-- .... ....
 C#4|..|--- .... ....|--- .... ....|C#2 2A.F ....
....|..|--- .... ....|--- .... ....|R-- .... ....
 C#4|..|--- .... ....|E-5 3F.7 ....|C#2 2A.F ....
....|..|--- .... ....|--- .... ....|--- .... ....
....|..|--- .... ....|--- .... ....|G#1 2F.7 ....
....|..|--- .... ....|--- .... ....|R-- .... ....
 C#4|..|--- .... ....|C#5 3F.7 ....|C#2 2A.F ....
....|..|--- .... ....|--- .... ....|R-- .... ....
 C#4|..|--- .... ....|--- .... ....|C#2 2A.F ....
....|..|--- .... ....|R-- .... ....|R-- .... ....
....|..|--- .... ....|--- .... ....|G#1 2F.7 ....
....|..|--- .... ....|--- .... ....|R-- .... ....
 C#4|..|--- .... ....|--- .... ....|C#2 2A.F ....
....|..|--- .... ....|--- .... ....|R-- .... ....
 C#4|..|--- .... ....|--- .... ....|C#2 2A.F ....
....|..|--- .... ....|--- .... ....|R-- .... ....
 C#4|..|--- .... ....|--- .... ....|C#2 2A.F ....
....|..|--- .... ....|--- .... ....|R-- .... ....
 C#4|..|--- .... ....|--- .... ....|C#2 2A.F ....
....|..|--- .... ....|--- .... ....|--- .... ....
....|..|--- .... ....|--- .... ....|C#2 2F.A ....
....|..|--- .... ....|--- .... ....|R-- .... ....
 B-3|..|--- .... ....|--- .... ....|B-1 2A.F ....
....|..|--- .... ....|--- .... ....|R-- .... ....
....|..|--- .... ....|--- .... ....|C#2 2F.7 ....
....|..|--- .... ....|--- .... ....|R-- .... ....
 G#4|..|--- .... ....|--- .... ....|G#2 2A.F ....
....|..|--- .... ....|--- .... ....|R-- .... ....
 G#4|..|--- .... ....|--- .... ....|G#2 2A.F ....
....|..|--- .... ....|--- .... ....|R-- .... ....
 E-4|..|--- .... ....|--- .... ....|E-3 2C.F ....
....|..|--- .... ....|--- .... ....|R-- .... ....
 G#4|..|--- .... ....|--- .... ....|G#2 2A.F ....
....|..|--- .... ....|--- .... ....|R-- .... ....
 D#4|..|--- .... ....|--- .... ....|D#3 2C.F ....
....|..|--- .... ....|--- .... ....|R-- .... ....
 G#4|..|--- .... ....|--- .... ....|G#2 2A.F ....
....|..|--- .... ....|--- .... ....|R-- .... ....
 F#4|..|--- .... ....|--- .... ....|F#3 2C.F ....
....|..|--- .... ....|--- .... ....|R-- .... ....
 G#4|..|--- .... ....|--- .... ....|G#2 2A.F ....
....|..|--- .... ....|--- .... ....|R-- .... ....
 G#4|..|--- .... ....|--- .... ....|G#2 2A.F ....
....|..|--- .... ....|--- .... ....|R-- .... ....
 G#4|..|--- .... ....|--- .... ....|G#2 2A.F ....
....|..|--- .... ....|--- .... ....|R-- .... ....
 E-4|..|--- .... ....|--- .... ....|E-3 2C.F ....
....|..|--- .... ....|--- .... ....|R-- .... ....
 E-4|..|--- .... ....|--- .... ....|E-3 2C.F ....
....|..|--- .... ....|--- .... ....|R-- .... ....
 D#4|..|--- .... ....|--- .... ....|D#3 2C.F ....
....|..|--- .... ....|--- .... ....|R-- .... ....
 D#4|..|--- .... ....|--- .... ....|D#3 2C.F ....
....|..|--- .... ....|--- .... ....|R-- .... ....
 F#4|..|--- .... ....|--- .... ....|F#3 2C.F ....
....|..|--- .... ....|--- .... ....|R-- .... ....
 D#4|..|--- .... ....|--- .... ....|D#3 2C.F ....
....|..|--- .... ....|--- .... ....|R-- .... ....
 A-3|..|--- .... ....|--- .... ....|A-1 2A.F ....
....|..|--- .... ....|--- .... ....|R-- .... ....
....|..|--- .... ....|--- .... ....|G#2 2F.7 ....
....|..|--- .... ....|--- .... ....|R-- .... ....
 A-3|..|--- .... ....|--- .... ....|A-1 2A.F ....
....|..|--- .... ....|--- .... ....|R-- .... ....
 A-3|..|--- .... ....|--- .... ....|A-1 2A.F ....
....|..|--- .... ....|--- .... ....|R-- .... ....
 A-3|..|--- .... ....|--- .... ....|A-1 2A.F ....
....|..|--- .... ....|--- .... ....|R-- .... ....
....|..|--- .... ....|--- .... ....|G#2 2F.7 ....
....|..|--- .... ....|--- .... ....|R-- .... ....
 A-3|..|--- .... ....|--- .... ....|A-1 2A.F ....
....|..|--- .... ....|--- .... ....|R-- .... ....
 A-3|..|--- .... ....|--- .... ....|A-1 2A.F ....
....|..|--- .... ....|--- .... ....|R-- .... ....
....|..|--- .... ....|--- .... ....|D#3 2F.7 ....
....|..|--- .... ....|--- .... ....|R-- .... ....
 A-3|..|--- .... ....|--- .... ....|A-1 2A.F ....
....|..|--- .... ....|--- .... ....|R-- .... ....
 A-3|..|--- .... ....|--- .... ....|A-1 2A.F ....
....|..|--- .... ....|--- .... ....|R-- .... ....
 A-3|..|--- .... ....|--- .... ....|A-1 2A.F ....
....|..|--- .... ....|--- .... ....|R-- .... ....
 A-3|..|--- .... ....|--- .... ....|A-1 2A.F ....
....|..|--- .... ....|--- .... ....|--- .... ....
....|..|--- .... ....|--- .... ....|A-1 2F.A ....
....|..|--- .... ....|--- .... ....|R-- .... ....
 A-3|..|--- .... ....|--- .... ....|A-1 2A.F ....
....|..|--- .... ....|--- .... ....|R-- .... ....
....|..|--- .... ....|--- .... ....|A-1 2F.7 ....
....|..|--- .... ....|--- .... ....|R-- .... ....

[Pattern15]
 G#3|..|--- .... ....|--- .... ....|G#1 2A.F ....
....|..|--- .... ....|--- .... ....|R-- .... ....
....|..|--- .... ....|--- .... ....|A-1 2F.A ....
....|..|--- .... ....|--- .... ....|R-- .... ....
 G#3|..|--- .... ....|--- .... ....|G#1 2A.F ....
....|..|--- .... ....|--- .... ....|R-- .... ....
 G#3|..|--- .... ....|--- .... ....|G#1 2A.F ....
....|..|--- .... ....|--- .... ....|R-- .... ....
 G#3|..|--- .... ....|--- .... ....|G#1 2A.F ....
....|..|--- .... ....|--- .... ....|--- .... ....
....|..|--- .... ....|--- .... ....|A-1 2F.7 ....
....|..|--- .... ....|--- .... ....|R-- .... ....
 G#3|..|--- .... ....|--- .... ....|G#1 2A.F ....
....|..|--- .... ....|--- .... ....|R-- .... ....
 G#3|..|--- .... ....|--- .... ....|G#1 2A.F ....
....|..|--- .... ....|--- .... ....|R-- .... ....
....|..|--- .... ....|--- .... ....|A-1 2F.7 ....
....|..|--- .... ....|--- .... ....|R-- .... ....
 G#3|..|--- .... ....|--- .... ....|G#1 2A.F ....
....|..|--- .... ....|--- .... ....|R-- .... ....
 G#3|..|--- .... ....|--- .... ....|G#1 2A.F ....
....|..|--- .... ....|--- .... ....|R-- .... ....
 G#3|..|--- .... ....|--- .... ....|G#1 2A.F ....
....|..|--- .... ....|--- .... ....|R-- .... ....
 G#3|..|--- .... ....|--- .... ....|G#1 2A.F ....
....|..|--- .... ....|--- .... ....|--- .... ....
....|..|--- .... ....|--- .... ....|G#1 2F.A ....
....|..|--- .... ....|--- .... ....|R-- .... ....
 E-4|..|--- .... ....|--- .... ....|E-2 2A.F ....
....|..|--- .... ....|--- .... ....|R-- .... ....
....|..|--- .... ....|--- .... ....|G#1 2F.7 ....
....|..|--- .... ....|--- .... ....|R-- .... ....
 C#4|..|--- .... ....|--- .... ....|C#2 2A.F ....
....|..|--- .... ....|--- .... ....|R-- .... ....
....|..|--- .... ....|--- .... ....|G#1 2F.A ....
....|..|--- .... ....|--- .... ....|R-- .... ....
 C#4|..|--- .... ....|--- .... ....|C#2 2A.F ....
....|..|--- .... ....|--- .... ....|R-- .... ....
 C#4|..|--- .... ....|--- .... ....|C#2 2A.F ....
....|..|--- .... ....|--- .... ....|R-- .... ....
 C#4|..|--- .... ....|--- .... ....|C#2 2A.F ....
....|..|--- .... ....|--- .... ....|--- .... ....
....|..|--- .... ....|--- .... ....|G#1 2F.7 ....
....|..|--- .... ....|--- .... ....|R-- .... ....
 C#4|..|--- .... ....|--- .... ....|C#2 2A.F ....
....|..|--- .... ....|--- .... ....|R-- .... ....
 C#4|..|--- .... ....|--- .... ....|C#2 2A.F ....
....|..|--- .... ....|--- .... ....|R-- .... ....
....|..|--- .... ....|--- .... ....|G#1 2F.7 ....
....|..|--- .... ....|--- .... ....|R-- .... ....
 C#4|..|--- .... ....|--- .... ....|C#2 2A.F ....
....|..|--- .... ....|--- .... ....|R-- .... ....
 C#4|..|--- .... ....|--- .... ....|C#2 2A.F ....
....|..|--- .... ....|--- .... ....|R-- .... ....
 C#4|..|--- .... ....|--- .... ....|C#2 2A.F ....
....|..|--- .... ....|--- .... ....|R-- .... ....
 C#4|..|--- .... ....|--- .... ....|C#2 2A.F ....
....|..|--- .... ....|--- .... ....|--- .... ....
....|..|--- .... ....|--- .... ....|C#2 2F.A ....
....|..|--- .... ....|--- .... ....|R-- .... ....
 B-3|..|--- .... ....|--- .... ....|B-1 2A.F ....
....|..|--- .... ....|--- .... ....|R-- .... ....
....|..|--- .... ....|--- .... ....|C#2 2F.7 ....
....|..|--- .... ....|--- .... ....|R-- .... ....
 E-4|..|--- .... ....|E-5 3F.F ....|E-2 2A.F ....
....|..|--- .... ....|--- .... ....|R-- .... ....
....|..|--- .... ....|--- .... ....|C#2 2F.A ....
....|..|--- .... ....|--- .... ....|R-- .... ....
 E-4|..|--- .... ....|R-- .... ....|E-2 2A.F ....
....|..|--- .... ....|--- .... ....|R-- .... ....
 E-4|..|--- .... ....|--- .... ....|E-2 2A.F ....
....|..|--- .... ....|--- .... ....|R-- .... ....
 E-4|..|--- .... ....|E-5 3F.F ....|E-2 2A.F ....
....|..|--- .... ....|--- .... ....|--- .... ....
....|..|--- .... ....|--- .... ....|C#2 2F.7 ....
....|..|--- .... ....|--- .... ....|R-- .... ....
 E-4|..|--- .... ....|D#5 3F.F ....|E-2 2A.F ....
....|..|--- .... ....|--- .... ....|R-- .... ....
 E-4|..|--- .... ....|--- .... ....|E-2 2A.F ....
....|..|--- .... ....|--- .... ....|R-- .... ....
....|..|--- .... ....|E-5 3F.F ....|C#2 2F.7 ....
....|..|--- .... ....|--- .... ....|R-- .... ....
 E-4|..|--- .... ....|--- .... ....|E-2 2A.F ....
....|..|--- .... ....|--- .... ....|R-- .... ....
 E-4|..|--- .... ....|C#5 3F.F ....|E-2 2A.F ....
....|..|--- .... ....|--- .... ....|R-- .... ....
 E-4|..|--- .... ....|--- .... ....|E-2 2A.F ....
....|..|--- .... ....|--- .... ....|R-- .... ....
 E-4|..|--- .... ....|E-5 3F.7 ....|E-2 2A.F ....
....|..|--- .... ....|--- .... ....|--- .... ....
....|..|--- .... ....|--- .... ....|E-2 2F.A ....
....|..|--- .... ....|--- .... ....|R-- .... ....
 E-4|..|--- .... ....|E-5 3F.A ....|E-2 2A.F ....
....|..|--- .... ....|--- .... ....|R-- .... ....
....|..|--- .... ....|--- .... ....|E-2 2F.7 ....
....|..|--- .... ....|--- .... ....|R-- .... ....
 A-3|..|--- .... ....|E-5 3F.7 ....|A-1 2A.F ....
....|..|--- .... ....|--- .... ....|R-- .... ....
....|..|--- .... ....|--- .... ....|E-2 2F.A ....
....|..|--- .... ....|--- .... ....|R-- .... ....
 A-3|..|--- .... ....|D#5 3F.7 ....|A-1 2A.F ....
....|..|--- .... ....|--- .... ....|R-- .... ....
 A-3|..|--- .... ....|--- .... ....|A-1 2A.F ....
....|..|--- .... ....|--- .... ....|R-- .... ....
 A-3|..|--- .... ....|E-5 3F.7 ....|A-1 2A.F ....
....|..|--- .... ....|--- .... ....|--- .... ....
....|..|--- .... ....|--- .... ....|E-2 2F.7 ....
....|..|--- .... ....|--- .... ....|R-- .... ....
 A-3|..|--- .... ....|C#5 3F.7 ....|A-1 2A.F ....
....|..|--- .... ....|--- .... ....|R-- .... ....
 A-3|..|--- .... ....|--- .... ....|A-1 2A.F ....
....|..|--- .... ....|--- .... ....|R-- .... ....
....|..|--- .... ....|R-- .... ....|E-2 2F.7 ....
....|..|--- .... ....|--- .... ....|R-- .... ....
 A-3|..|--- .... ....|--- .... ....|A-1 2A.F ....
....|..|--- .... ....|--- .... ....|R-- .... ....
 A-3|..|--- .... ....|--- .... ....|A-1 2A.F ....
....|..|--- .... ....|--- .... ....|R-- .... ....
 A-3|..|--- .... ....|--- .... ....|A-1 2A.F ....
....|..|--- .... ....|--- .... ....|R-- .... ....
 A-3|..|--- .... ....|--- .... ....|A-1 2A.F ....
....|..|--- .... ....|--- .... ....|--- .... ....
....|..|--- .... ....|--- .... ....|A-1 2F.A ....
....|..|--- .... ....|--- .... ....|R-- .... ....
 A-3|..|--- .... ....|--- .... ....|A-1 2A.F ....
....|..|--- .... ....|--- .... ....|R-- .... ....
....|..|--- .... ....|--- .... ....|A-1 2F.7 ....
....|..|--- .... ....|--- .... ....|R-- .... ....

[Pattern16]
 G#3|..|--- .... ....|E-5 3F.F ....|G#1 2A.F ....
....|..|--- .... ....|--- .... ....|R-- .... ....
....|..|--- .... ....|--- .... ....|A-1 2F.A ....
....|..|--- .... ....|--- .... ....|R-- .... ....
 G#3|..|--- .... ....|R-- .... ....|G#1 2A.F ....
....|..|--- .... ....|--- .... ....|R-- .... ....
 G#3|..|--- .... ....|--- .... ....|G#1 2A.F ....
....|..|--- .... ....|--- .... ....|R-- .... ....
 G#3|..|--- .... ....|E-5 3F.F ....|G#1 2A.F ....
....|..|--- .... ....|--- .... ....|--- .... ....
....|..|--- .... ....|--- .... ....|A-1 2F.7 ....
....|..|--- .... ....|--- .... ....|R-- .... ....
 G#3|..|--- .... ....|D#5 3F.F ....|G#1 2A.F ....
....|..|--- .... ....|--- .... ....|R-- .... ....
 G#3|..|--- .... ....|--- .... ....|G#1 2A.F ....
....|..|--- .... ....|--- .... ....|R-- .... ....
....|..|--- .... ....|E-5 3F.F ....|A-1 2F.7 ....
....|..|--- .... ....|--- .... ....|R-- .... ....
 G#3|..|--- .... ....|--- .... ....|G#1 2A.F ....
....|..|--- .... ....|--- .... ....|R-- .... ....
 G#3|..|--- .... ....|C#5 3F.F ....|G#1 2A.F ....
....|..|--- .... ....|--- .... ....|R-- .... ....
 G#3|..|--- .... ....|--- .... ....|G#1 2A.F ....
....|..|--- .... ....|--- .... ....|R-- .... ....
 G#3|..|--- .... ....|E-5 3F.F ....|G#1 2A.F ....
....|..|--- .... ....|--- .... ....|--- .... ....
....|..|--- .... ....|--- .... ....|G#1 2F.A ....
....|..|--- .... ....|--- .... ....|R-- .... ....
 E-4|..|--- .... ....|D#5 3F.F ....|E-2 2A.F ....
....|..|--- .... ....|--- .... ....|R-- .... ....
....|..|--- .... ....|--- .... ....|G#1 2F.7 ....
....|..|--- .... ....|--- .... ....|R-- .... ....
 C#4|..|--- .... ....|E-5 3F.F ....|C#2 2A.F ....
....|..|--- .... ....|--- .... ....|R-- .... ....
....|..|--- .... ....|--- .... ....|G#1 2F.A ....
....|..|--- .... ....|--- .... ....|R-- .... ....
 C#4|..|--- .... ....|C#5 3F.F ....|C#2 2A.F ....
....|..|--- .... ....|--- .... ....|R-- .... ....
 C#4|..|--- .... ....|--- .... ....|C#2 2A.F ....
....|..|--- .... ....|--- .... ....|R-- .... ....
 C#4|..|--- .... ....|E-5 3F.7 ....|C#2 2A.F ....
....|..|--- .... ....|--- .... ....|--- .... ....
....|..|--- .... ....|--- .... ....|G#1 2F.7 ....
....|..|--- .... ....|--- .... ....|R-- .... ....
 C#4|..|--- .... ....|C#5 3F.7 ....|C#2 2A.F ....
....|..|--- .... ....|--- .... ....|R-- .... ....
 C#4|..|--- .... ....|--- .... ....|C#2 2A.F ....
....|..|--- .... ....|--- .... ....|R-- .... ....
....|..|--- .... ....|E-5 3F.7 ....|G#1 2F.7 ....
....|..|--- .... ....|--- .... ....|R-- .... ....
 C#4|..|--- .... ....|--- .... ....|C#2 2A.F ....
....|..|--- .... ....|--- .... ....|R-- .... ....
 C#4|..|--- .... ....|D#5 3F.7 ....|C#2 2A.F ....
....|..|--- .... ....|--- .... ....|R-- .... ....
 C#4|..|--- .... ....|--- .... ....|C#2 2A.F ....
....|..|--- .... ....|--- .... ....|R-- .... ....
 C#4|..|--- .... ....|E-5 3F.7 ....|C#2 2A.F ....
....|..|--- .... ....|--- .... ....|--- .... ....
....|..|--- .... ....|--- .... ....|C#2 2F.A ....
....|..|--- .... ....|--- .... ....|R-- .... ....
 B-3|..|--- .... ....|C#5 3F.7 ....|B-1 2A.F ....
....|..|--- .... ....|--- .... ....|R-- .... ....
....|..|--- .... ....|--- .... ....|C#2 2F.7 ....
....|..|--- .... ....|--- .... ....|R-- .... ....
 E-4|..|--- .... ....|E-5 3F.F ....|E-2 2A.F ....
....|..|--- .... ....|--- .... ....|R-- .... ....
....|..|--- .... ....|--- .... ....|C#2 2F.A ....
....|..|--- .... ....|--- .... ....|R-- .... ....
 E-4|..|--- .... ....|R-- .... ....|E-2 2A.F ....
....|..|--- .... ....|--- .... ....|R-- .... ....
 E-4|..|--- .... ....|--- .... ....|E-2 2A.F ....
....|..|--- .... ....|--- .... ....|R-- .... ....
 E-4|..|--- .... ....|E-5 3F.F ....|E-2 2A.F ....
....|..|--- .... ....|--- .... ....|--- .... ....
....|..|--- .... ....|--- .... ....|C#2 2F.7 ....
....|..|--- .... ....|--- .... ....|R-- .... ....
 E-4|..|--- .... ....|D#5 3F.F ....|E-2 2A.F ....
....|..|--- .... ....|--- .... ....|R-- .... ....
 E-4|..|--- .... ....|--- .... ....|E-2 2A.F ....
....|..|--- .... ....|--- .... ....|R-- .... ....
....|..|--- .... ....|E-5 3F.F ....|C#2 2F.7 ....
....|..|--- .... ....|--- .... ....|R-- .... ....
 E-4|..|--- .... ....|--- .... ....|E-2 2A.F ....
....|..|--- .... ....|--- .... ....|R-- .... ....
 E-4|..|--- .... ....|C#5 3F.F ....|E-2 2A.F ....
....|..|--- .... ....|--- .... ....|R-- .... ....
 E-4|..|--- .... ....|--- .... ....|E-2 2A.F ....
....|..|--- .... ....|--- .... ....|R-- .... ....
 E-4|..|--- .... ....|E-5 3F.7 ....|E-2 2A.F ....
....|..|--- .... ....|--- .... ....|--- .... ....
....|..|--- .... ....|--- .... ....|E-2 2F.A ....
....|..|--- .... ....|--- .... ....|R-- .... ....
 E-4|..|--- .... ....|E-5 3F.A ....|E-2 2A.F ....
....|..|--- .... ....|--- .... ....|R-- .... ....
....|..|--- .... ....|--- .... ....|E-2 2F.7 ....
....|..|--- .... ....|--- .... ....|R-- .... ....
 A-3|..|E-4 UF.F ....|E-5 3F.7 ....|A-1 2A.F ....
....|..|--- .... ....|--- .... ....|R-- .... ....
....|..|--- .... ....|--- .... ....|E-2 2F.A ....
....|..|--- .... ....|--- .... ....|R-- .... ....
 A-3|..|--- .... ....|D#5 3F.7 ....|A-1 2A.F ....
....|..|--- .... ....|--- .... ....|R-- .... ....
 A-3|..|--- .... ....|--- .... ....|A-1 2A.F ....
....|..|--- .... ....|--- .... ....|R-- .... ....
 A-3|..|--- .... ....|E-5 3F.7 ....|A-1 2A.F ....
....|..|--- .... ....|--- .... ....|--- .... ....
....|..|--- .... ....|--- .... ....|E-2 2F.7 ....
....|..|--- .... ....|--- .... ....|R-- .... ....
 A-3|..|E-4 UF.A ....|C#5 3F.7 ....|A-1 2A.F ....
....|..|--- .... ....|--- .... ....|R-- .... ....
 A-3|..|--- .... ....|--- .... ....|A-1 2A.F ....
....|..|--- .... ....|--- .... ....|R-- .... ....
....|..|--- .... ....|R-- .... ....|E-2 2F.7 ....
....|..|--- .... ....|--- .... ....|R-- .... ....
 A-3|..|--- .... ....|--- .... ....|A-1 2A.F ....
....|..|--- .... ....|--- .... ....|R-- .... ....
 A-3|..|--- .... ....|--- .... ....|A-1 2A.F ....
....|..|--- .... ....|--- .... ....|R-- .... ....
 A-3|..|--- .... ....|--- .... ....|A-1 2A.F ....
....|..|--- .... ....|--- .... ....|R-- .... ....
 A-3|..|E-4 UF.7 ....|--- .... ....|A-1 2A.F ....
....|..|--- .... ....|--- .... ....|--- .... ....
....|..|--- .... ....|--- .... ....|A-1 2F.A ....
....|..|--- .... ....|--- .... ....|R-- .... ....
 A-3|..|--- .... ....|--- .... ....|A-1 2A.F ....
....|..|--- .... ....|--- .... ....|R-- .... ....
....|..|--- .... ....|--- .... ....|A-1 2F.7 ....
....|..|--- .... ....|--- .... ....|R-- .... ....

[Pattern17]
 G#3|..|--- .... ....|E-5 3F.F ....|G#1 2A.F ....
....|..|--- .... ....|--- .... ....|R-- .... ....
....|..|--- .... ....|--- .... ....|A-1 2F.A ....
....|..|--- .... ....|--- .... ....|R-- .... ....
 G#3|..|--- .... ....|R-- .... ....|G#1 2A.F ....
....|..|--- .... ....|--- .... ....|R-- .... ....
 G#3|..|--- .... ....|--- .... ....|G#1 2A.F ....
....|..|--- .... ....|--- .... ....|R-- .... ....
 G#3|..|--- .... ....|E-5 3F.F ....|G#1 2A.F ....
....|..|--- .... ....|--- .... ....|--- .... ....
....|..|--- .... ....|--- .... ....|A-1 2F.7 ....
....|..|--- .... ....|R-- .... ....|R-- .... ....
 G#3|..|--- .... ....|D#5 3F.F ....|G#1 2A.F ....
....|..|--- .... ....|--- .... ....|R-- .... ....
 G#3|..|--- .... ....|--- .... ....|G#1 2A.F ....
....|..|--- .... ....|--- .... ....|R-- .... ....
....|..|--- .... ....|E-5 3F.F ....|A-1 2F.7 ....
....|..|--- .... ....|--- .... ....|R-- .... ....
 G#3|..|--- .... ....|--- .... ....|G#1 2A.F ....
....|..|--- .... ....|--- .... ....|R-- .... ....
 G#3|..|--- .... ....|F#5 3F.F ....|G#1 2A.F ....
....|..|--- .... ....|--- .... ....|R-- .... ....
 G#3|..|--- .... ....|--- .... ....|G#1 2A.F ....
....|..|--- .... ....|R-- .... ....|R-- .... ....
 G#3|..|--- .... ....|E-5 3F.7 ....|G#1 2A.F ....
....|..|--- .... ....|--- .... ....|--- .... ....
....|..|--- .... ....|--- .... ....|G#1 2F.A ....
....|..|--- .... ....|--- .... ....|R-- .... ....
 E-4|..|--- .... ....|E-5 3F.A ....|E-2 2A.F ....
....|..|--- .... ....|--- .... ....|R-- .... ....
....|..|--- .... ....|--- .... ....|G#1 2F.7 ....
....|..|--- .... ....|--- .... ....|R-- .... ....
 C#4|..|--- .... ....|E-5 3F.7 ....|C#2 2A.F ....
....|..|--- .... ....|--- .... ....|R-- .... ....
....|..|--- .... ....|--- .... ....|G#1 2F.A ....
....|..|--- .... ....|R-- .... ....|R-- .... ....
 C#4|..|--- .... ....|D#5 3F.7 ....|C#2 2A.F ....
....|..|--- .... ....|--- .... ....|R-- .... ....
 C#4|..|--- .... ....|--- .... ....|C#2 2A.F ....
....|..|--- .... ....|--- .... ....|R-- .... ....
 C#4|..|--- .... ....|E-5 UF.F ....|C#2 2A.F ....
....|..|--- .... ....|--- .... ....|--- .... ....
....|..|--- .... ....|--- .... ....|G#1 2F.7 ....
....|..|--- .... ....|R-- .... ....|R-- .... ....
 C#4|..|--- .... ....|D#5 UF.F ....|C#2 2A.F ....
....|..|--- .... ....|--- .... ....|R-- .... ....
 C#4|..|--- .... ....|--- .... ....|C#2 2A.F ....
....|..|--- .... ....|--- .... ....|R-- .... ....
....|..|--- .... ....|E-5 UF.F ....|G#1 2F.7 ....
....|..|--- .... ....|--- .... ....|R-- .... ....
 C#4|..|--- .... ....|--- .... ....|C#2 2A.F ....
....|..|--- .... ....|--- .... ....|R-- .... ....
 C#4|..|--- .... ....|C#5 UF.F ....|C#2 2A.F ....
....|..|--- .... ....|--- .... ....|R-- .... ....
 C#4|..|--- .... ....|--- .... ....|C#2 2A.F ....
....|..|--- .... ....|R-- .... ....|R-- .... ....
 C#4|..|--- .... ....|D#5 UF.A ....|C#2 2A.F ....
....|..|--- .... ....|--- .... ....|--- .... ....
....|..|--- .... ....|--- .... ....|C#2 2F.A ....
....|..|--- .... ....|--- .... ....|R-- .... ....
 B-3|..|--- .... ....|E-5 UF.A ....|B-1 2A.F ....
....|..|--- .... ....|--- .... ....|R-- .... ....
....|..|--- .... ....|--- .... ....|C#2 2F.7 ....
....|..|--- .... ....|--- .... ....|R-- .... ....
 E-4|..|--- .... ....|E-5 UF.7 ....|E-2 2A.F ....
....|..|--- .... ....|--- .... ....|R-- .... ....
....|..|--- .... ....|--- .... ....|C#2 2F.A ....
....|..|--- .... ....|R-- .... ....|R-- .... ....
 E-4|..|--- .... ....|D#5 UF.7 ....|E-2 2A.F ....
....|..|--- .... ....|--- .... ....|R-- .... ....
 E-4|..|--- .... ....|--- .... ....|E-2 2A.F ....
....|..|--- .... ....|--- .... ....|R-- .... ....
 E-4|..|--- .... ....|E-5 UF.7 ....|E-2 2A.F ....
....|..|--- .... ....|--- .... ....|--- .... ....
....|..|--- .... ....|--- .... ....|C#2 2F.7 ....
....|..|--- .... ....|--- .... ....|R-- .... ....
 E-4|..|--- .... ....|C#5 UF.7 ....|E-2 2A.F ....
....|..|--- .... ....|--- .... ....|R-- .... ....
 E-4|..|--- .... ....|--- .... ....|E-2 2A.F ....
....|..|--- .... ....|--- .... ....|R-- .... ....
....|..|--- .... ....|E-5 3F.F ....|C#2 2F.7 ....
....|..|--- .... ....|--- .... ....|R-- .... ....
 E-4|..|--- .... ....|--- .... ....|E-2 2A.F ....
....|..|--- .... ....|--- .... ....|R-- .... ....
 E-4|..|--- .... ....|F#5 3F.F ....|E-2 2A.F ....
....|..|--- .... ....|--- .... ....|R-- .... ....
 E-4|..|--- .... ....|--- .... ....|E-2 2A.F ....
....|..|--- .... ....|--- .... ....|R-- .... ....
 E-4|..|--- .... ....|--- .... ....|E-2 2A.F ....
....|..|--- .... ....|--- .... ....|--- .... ....
....|..|--- .... ....|--- .... ....|E-2 2F.A ....
....|..|--- .... ....|--- .... ....|R-- .... ....
 E-4|..|--- .... ....|E-5 3F.A ....|E-2 2A.F ....
....|..|--- .... ....|--- .... ....|R-- .... ....
....|..|--- .... ....|--- .... ....|E-2 2F.7 ....
....|..|R-- .... ....|--- .... ....|R-- .... ....
 A-3|..|E-4 UF.F ....|E-5 3F.F ....|A-1 2A.F ....
....|..|--- .... ....|--- .... ....|R-- .... ....
....|..|--- .... ....|--- .... ....|E-2 2F.A ....
....|..|--- .... ....|--- .... ....|R-- .... ....
 A-3|..|--- .... ....|F#5 3F.F ....|A-1 2A.F ....
....|..|--- .... ....|--- .... ....|R-- .... ....
 A-3|..|--- .... ....|--- .... ....|A-1 2A.F ....
....|..|--- .... ....|--- .... ....|R-- .... ....
 A-3|..|--- .... ....|E-5 3F.7 ....|A-1 2A.F ....
....|..|--- .... ....|--- .... ....|--- .... ....
....|..|--- .... ....|--- .... ....|E-2 2F.7 ....
....|..|R-- .... ....|--- .... ....|R-- .... ....
 A-3|..|E-4 UF.A ....|F#5 3F.7 ....|A-1 2A.F ....
....|..|--- .... ....|--- .... ....|R-- .... ....
 A-3|..|--- .... ....|--- .... ....|A-1 2A.F ....
....|..|--- .... ....|--- .... ....|R-- .... ....
....|..|--- .... ....|F#5 3F.A ....|E-2 2F.7 ....
....|..|--- .... ....|--- .... ....|R-- .... ....
 A-3|..|--- .... ....|--- .... ....|A-1 2A.F ....
....|..|--- .... ....|--- .... ....|R-- .... ....
 A-3|..|--- .... ....|--- .... ....|A-1 2A.F ....
....|..|--- .... ....|--- .... ....|R-- .... ....
 A-3|..|--- .... ....|--- .... ....|A-1 2A.F ....
....|..|R-- .... ....|--- .... ....|R-- .... ....
 A-3|..|E-4 UF.7 ....|E-5 3F.7 ....|A-1 2A.F ....
....|..|--- .... ....|--- .... ....|--- .... ....
....|..|--- .... ....|--- .... ....|A-1 2F.A ....
....|..|--- .... ....|--- .... ....|R-- .... ....
 A-3|..|--- .... ....|F#5 3F.7 ....|A-1 2A.F ....
....|..|--- .... ....|--- .... ....|R-- .... ....
....|..|--- .... ....|--- .... ....|A-1 2F.7 ....
....|..|--- .... ....|R-- .... ....|R-- .... ....

[Pattern18]
 G#3|..|--- .... ....|E-5 3F.F ....|G#1 2A.F ....
....|..|--- .... ....|--- .... ....|R-- .... ....
....|..|--- .... ....|--- .... ....|A-1 2F.A ....
....|..|--- .... ....|R-- .... ....|R-- .... ....
 G#3|..|--- .... ....|R-- .... ....|G#1 2A.F ....
....|..|--- .... ....|--- .... ....|R-- .... ....
 G#3|..|--- .... ....|--- .... ....|G#1 2A.F ....
....|..|--- .... ....|--- .... ....|R-- .... ....
 G#3|..|--- .... ....|E-5 3F.F ....|G#1 2A.F ....
....|..|--- .... ....|--- .... ....|--- .... ....
....|..|--- .... ....|--- .... ....|A-1 2F.7 ....
....|..|--- .... ....|R-- .... ....|R-- .... ....
 G#3|..|--- .... ....|D#5 3F.F ....|G#1 2A.F ....
....|..|--- .... ....|--- .... ....|R-- .... ....
 G#3|..|--- .... ....|--- .... ....|G#1 2A.F ....
....|..|--- .... ....|R-- .... ....|R-- .... ....
....|..|--- .... ....|E-5 3F.F ....|A-1 2F.7 ....
....|..|--- .... ....|--- .... ....|R-- .... ....
 G#3|..|--- .... ....|--- .... ....|G#1 2A.F ....
....|..|--- .... ....|--- .... ....|R-- .... ....
 G#3|..|--- .... ....|C#5 3F.F ....|G#1 2A.F ....
....|..|--- .... ....|--- .... ....|R-- .... ....
 G#3|..|--- .... ....|--- .... ....|G#1 2A.F ....
....|..|--- .... ....|R-- .... ....|R-- .... ....
 G#3|..|--- .... ....|E-5 3F.7 ....|G#1 2A.F ....
....|..|--- .... ....|--- .... ....|--- .... ....
....|..|--- .... ....|--- .... ....|G#1 2F.A ....
....|..|--- .... ....|R-- .... ....|R-- .... ....
 E-4|..|--- .... ....|E-5 3F.A ....|E-2 2A.F ....
....|..|--- .... ....|--- .... ....|R-- .... ....
....|..|--- .... ....|--- .... ....|G#1 2F.7 ....
....|..|--- .... ....|--- .... ....|R-- .... ....
 C#4|..|--- .... ....|E-5 3F.7 ....|C#2 2A.F ....
....|..|--- .... ....|--- .... ....|R-- .... ....
....|..|--- .... ....|--- .... ....|G#1 2F.A ....
....|..|--- .... ....|R-- .... ....|R-- .... ....
 C#4|..|--- .... ....|D#5 3F.7 ....|C#2 2A.F ....
....|..|--- .... ....|--- .... ....|R-- .... ....
 C#4|..|--- .... ....|--- .... ....|C#2 2A.F ....
....|..|--- .... ....|--- .... ....|R-- .... ....
 C#4|..|--- .... ....|E-5 3F.7 ....|C#2 2A.F ....
....|..|--- .... ....|--- .... ....|--- .... ....
....|..|--- .... ....|--- .... ....|G#1 2F.7 ....
....|..|--- .... ....|--- .... ....|R-- .... ....
 C#4|..|--- .... ....|C#5 3F.7 ....|C#2 2A.F ....
....|..|--- .... ....|--- .... ....|R-- .... ....
 C#4|..|--- .... ....|--- .... ....|C#2 2A.F ....
....|..|--- .... ....|--- .... ....|R-- .... ....
....|..|--- .... ....|R-- .... ....|G#1 2F.7 ....
....|..|--- .... ....|--- .... ....|R-- .... ....
 C#4|..|--- .... ....|--- .... ....|C#2 2A.F ....
....|..|--- .... ....|--- .... ....|R-- .... ....
 C#4|..|--- .... ....|--- .... ....|C#2 2A.F ....
....|..|--- .... ....|--- .... ....|R-- .... ....
 C#4|..|--- .... ....|--- .... ....|C#2 2A.F ....
....|..|--- .... ....|--- .... ....|R-- .... ....
 C#4|..|--- .... ....|--- .... ....|C#2 2A.F ....
....|..|--- .... ....|--- .... ....|--- .... ....
....|..|--- .... ....|--- .... ....|C#2 2F.A ....
....|..|--- .... ....|--- .... ....|R-- .... ....
 B-3|..|--- .... ....|--- .... ....|B-1 2A.F ....
....|..|--- .... ....|--- .... ....|R-- .... ....
....|..|--- .... ....|--- .... ....|C#2 2F.7 ....
....|..|--- .... ....|--- .... ....|R-- .... ....
 G#4|..|--- .... ....|--- .... ....|G#2 2A.F ....
....|..|--- .... ....|--- .... ....|R-- .... ....
 G#4|..|--- .... ....|--- .... ....|G#2 2A.F ....
....|..|--- .... ....|--- .... ....|R-- .... ....
 E-4|..|--- .... ....|--- .... ....|E-3 2C.F ....
....|..|--- .... ....|--- .... ....|R-- .... ....
 G#4|..|--- .... ....|--- .... ....|G#2 2A.F ....
....|..|--- .... ....|--- .... ....|R-- .... ....
 D#4|..|--- .... ....|--- .... ....|D#3 2C.F ....
....|..|--- .... ....|--- .... ....|R-- .... ....
 G#4|..|--- .... ....|--- .... ....|G#2 2A.F ....
....|..|--- .... ....|--- .... ....|R-- .... ....
 F#4|..|--- .... ....|--- .... ....|F#3 2C.F ....
....|..|--- .... ....|--- .... ....|R-- .... ....
 G#4|..|--- .... ....|--- .... ....|G#2 2A.F ....
....|..|--- .... ....|--- .... ....|R-- .... ....
 G#4|..|--- .... ....|--- .... ....|G#2 2A.F ....
....|..|--- .... ....|--- .... ....|R-- .... ....
 G#4|..|--- .... ....|--- .... ....|G#2 2A.F ....
....|..|--- .... ....|--- .... ....|R-- .... ....
 E-4|..|--- .... ....|--- .... ....|E-3 2C.F ....
....|..|--- .... ....|--- .... ....|R-- .... ....
 E-4|..|--- .... ....|--- .... ....|E-3 2C.F ....
....|..|--- .... ....|--- .... ....|R-- .... ....
 D#4|..|--- .... ....|--- .... ....|D#3 2C.F ....
....|..|--- .... ....|--- .... ....|R-- .... ....
 D#4|..|--- .... ....|--- .... ....|D#3 2C.F ....
....|..|--- .... ....|--- .... ....|R-- .... ....
 F#4|..|--- .... ....|--- .... ....|F#3 2C.F ....
....|..|--- .... ....|--- .... ....|R-- .... ....
 D#4|..|--- .... ....|--- .... ....|D#3 2C.F ....
....|..|R-- .... ....|--- .... ....|R-- .... ....
 A-3|..|A-3 UF1F ....|A-4 3F.F ....|A-1 2A.F ....
....|..|--- .... ....|--- .... ....|R-- .... ....
....|..|--- .... ....|--- .... ....|G#2 2F.7 ....
....|..|--- .... ....|--- .... ....|R-- .... ....
 A-3|..|--- .... ....|--- .... ....|A-1 2A.F ....
....|..|--- .... ....|--- .... ....|R-- .... ....
 A-3|..|--- .... ....|R-- .... ....|A-1 2A.F ....
....|..|--- .... ....|--- .... ....|R-- .... ....
 A-3|..|--- .... ....|A-4 3F.F ....|A-1 2A.F ....
....|..|--- .... ....|--- .... ....|R-- .... ....
....|..|--- .... ....|--- .... ....|G#2 2F.7 ....
....|..|R-- .... ....|--- .... ....|R-- .... ....
 A-3|..|A-3 UF1A ....|G#4 3F.F ....|A-1 2A.F ....
....|..|--- .... ....|--- .... ....|R-- .... ....
 A-3|..|--- .... ....|--- .... ....|A-1 2A.F ....
....|..|--- .... ....|--- .... ....|R-- .... ....
....|..|--- .... ....|A-4 3F.F ....|D#3 2F.7 ....
....|..|--- .... ....|--- .... ....|R-- .... ....
 A-3|..|--- .... ....|R-- .... ....|A-1 2A.F ....
....|..|--- .... ....|--- .... ....|R-- .... ....
 A-3|..|--- .... ....|A-4 3F.A ....|A-1 2A.F ....
....|..|--- .... ....|--- .... ....|R-- .... ....
 A-3|..|--- .... ....|--- .... ....|A-1 2A.F ....
....|..|R-- .... ....|R-- .... ....|R-- .... ....
 A-3|..|A-3 UF17 ....|A-4 3F.7 ....|A-1 2A.F ....
....|..|--- .... ....|--- .... ....|--- .... ....
....|..|--- .... ....|--- .... ....|A-1 2F.A ....
....|..|--- .... ....|--- .... ....|R-- .... ....
 A-3|..|--- .... ....|A-4 3F.A ....|A-1 2A.F ....
....|..|--- .... ....|--- .... ....|R-- .... ....
....|..|--- .... ....|R-- .... ....|A-1 2F.7 ....
....|..|--- .... ....|--- .... ....|R-- .... ....

[Pattern19]
 G#3|..|G#3 UFBF ....|A-4 3F.F ....|G#1 2A.F ....
....|..|--- .... ....|R-- .... ....|R-- .... ....
....|..|--- .... ....|--- .... ....|A-1 2F.A ....
....|..|--- .... ....|R-- .... ....|R-- .... ....
 G#3|..|--- .... ....|A-4 3F.F ....|G#1 2A.F ....
....|..|--- .... ....|--- .... ....|R-- .... ....
 G#3|..|--- .... ....|--- .... ....|G#1 2A.F ....
....|..|--- .... ....|R-- .... ....|R-- .... ....
 G#3|..|--- .... ....|G#4 3F.F ....|G#1 2A.F ....
....|..|--- .... ....|--- .... ....|--- .... ....
....|..|--- .... ....|R-- .... ....|A-1 2F.7 ....
....|..|--- .... ....|--- .... ....|R-- .... ....
 G#3|..|G#3 UFBA ....|A-4 3F.F ....|G#1 2A.F ....
....|..|--- .... ....|R-- .... ....|R-- .... ....
 G#3|..|--- .... ....|--- .... ....|G#1 2A.F ....
....|..|--- .... ....|R-- .... ....|R-- .... ....
....|..|--- .... ....|D#5 3F.F ....|A-1 2F.7 ....
....|..|--- .... ....|--- .... ....|R-- .... ....
 G#3|..|--- .... ....|--- .... ....|G#1 2A.F ....
....|..|--- .... ....|R-- .... ....|R-- .... ....
 G#3|..|--- .... ....|G#4 3F.A ....|G#1 2A.F ....
....|..|--- .... ....|--- .... ....|R-- .... ....
 G#3|..|--- .... ....|R-- .... ....|G#1 2A.F ....
....|..|--- .... ....|R-- .... ....|R-- .... ....
 G#3|..|G#3 UFB7 ....|A-4 3F.7 ....|G#1 2A.F ....
....|..|--- .... ....|R-- .... ....|--- .... ....
....|..|--- .... ....|--- .... ....|G#1 2F.A ....
....|..|--- .... ....|R-- .... ....|R-- .... ....
 E-4|..|--- .... ....|A-4 3F.7 ....|E-2 2A.F ....
....|..|--- .... ....|--- .... ....|R-- .... ....
....|..|--- .... ....|--- .... ....|G#1 2F.7 ....
....|..|--- .... ....|R-- .... ....|R-- .... ....
 C#4|..|E-4 UF5F ....|G#4 3F.F ....|C#2 2A.F ....
....|..|--- .... ....|--- .... ....|R-- .... ....
....|..|--- .... ....|R-- .... ....|G#1 2F.A ....
....|..|--- .... ....|R-- .... ....|R-- .... ....
 C#4|..|--- .... ....|A-4 3F.7 ....|C#2 2A.F ....
....|..|--- .... ....|--- .... ....|R-- .... ....
 C#4|..|--- .... ....|R-- .... ....|C#2 2A.F ....
....|..|--- .... ....|R-- .... ....|R-- .... ....
 C#4|..|--- .... ....|G#4 3F.F ....|C#2 2A.F ....
....|..|--- .... ....|--- .... ....|--- .... ....
....|..|--- .... ....|R-- .... ....|G#1 2F.7 ....
....|..|--- .... ....|--- .... ....|R-- .... ....
 C#4|..|E-4 UF5A ....|F#4 3F.F ....|C#2 2A.F ....
....|..|--- .... ....|--- .... ....|R-- .... ....
 C#4|..|--- .... ....|--- .... ....|C#2 2A.F ....
....|..|--- .... ....|R-- .... ....|R-- .... ....
....|..|--- .... ....|G#4 3F.F ....|G#1 2F.7 ....
....|..|--- .... ....|--- .... ....|R-- .... ....
 C#4|..|--- .... ....|R-- .... ....|C#2 2A.F ....
....|..|--- .... ....|--- .... ....|R-- .... ....
 C#4|..|--- .... ....|G#4 3F.A ....|C#2 2A.F ....
....|..|--- .... ....|--- .... ....|R-- .... ....
 C#4|..|--- .... ....|R-- .... ....|C#2 2A.F ....
....|..|--- .... ....|--- .... ....|R-- .... ....
 C#4|..|E-4 UF57 ....|G#4 3F.7 ....|C#2 2A.F ....
....|..|--- .... ....|--- .... ....|--- .... ....
....|..|--- .... ....|--- .... ....|C#2 2F.A ....
....|..|--- .... ....|R-- .... ....|R-- .... ....
 B-3|..|--- .... ....|G#4 3F.F ....|B-1 2A.F ....
....|..|--- .... ....|--- .... ....|R-- .... ....
....|..|--- .... ....|R-- .... ....|C#2 2F.7 ....
....|..|--- .... ....|--- .... ....|R-- .... ....
 E-4|..|C#4 UFCF ....|G#4 3F.7 ....|E-2 2A.F ....
....|..|--- .... ....|--- .... ....|R-- .... ....
....|..|--- .... ....|R-- .... ....|C#2 2F.A ....
....|..|--- .... ....|--- .... ....|R-- .... ....
 E-4|..|--- .... ....|F#4 3F.7 ....|E-2 2A.F ....
....|..|--- .... ....|--- .... ....|R-- .... ....
 E-4|..|--- .... ....|--- .... ....|E-2 2A.F ....
....|..|--- .... ....|R-- .... ....|R-- .... ....
 E-4|..|--- .... ....|G#4 3F.F ....|E-2 2A.F ....
....|..|--- .... ....|--- .... ....|--- .... ....
....|..|--- .... ....|--- .... ....|C#2 2F.7 ....
....|..|--- .... ....|R-- .... ....|R-- .... ....
 E-4|..|C#4 UFCA ....|F#4 3F.F ....|E-2 2A.F ....
....|..|--- .... ....|--- .... ....|R-- .... ....
 E-4|..|--- .... ....|R-- .... ....|E-2 2A.F ....
....|..|--- .... ....|--- .... ....|R-- .... ....
....|..|--- .... ....|G#4 3F.F ....|C#2 2F.7 ....
....|..|--- .... ....|--- .... ....|R-- .... ....
 E-4|..|--- .... ....|--- .... ....|E-2 2A.F ....
....|..|--- .... ....|--- .... ....|R-- .... ....
 E-4|..|--- .... ....|E-5 3F.F ....|E-2 2A.F ....
....|..|--- .... ....|--- .... ....|R-- .... ....
 E-4|..|--- .... ....|--- .... ....|E-2 2A.F ....
....|..|--- .... ....|R-- .... ....|R-- .... ....
 E-4|..|C#4 UFC7 ....|F#4 3F.A ....|E-2 2A.F ....
....|..|--- .... ....|R-- .... ....|--- .... ....
....|..|--- .... ....|R-- .... ....|E-2 2F.A ....
....|..|--- .... ....|--- .... ....|R-- .... ....
 E-4|..|--- .... ....|G#4 3F.A ....|E-2 2A.F ....
....|..|--- .... ....|--- .... ....|R-- .... ....
....|..|--- .... ....|--- .... ....|E-2 2F.7 ....
....|..|--- .... ....|--- .... ....|R-- .... ....
 A-3|..|A-3 UF1F ....|A-4 3F.F ....|A-1 2A.F ....
....|..|--- .... ....|--- .... ....|R-- .... ....
....|..|--- .... ....|--- .... ....|E-2 2F.A ....
....|..|--- .... ....|R-- .... ....|R-- .... ....
 A-3|..|--- .... ....|F#4 3F.7 ....|A-1 2A.F ....
....|..|--- .... ....|R-- .... ....|R-- .... ....
 A-3|..|--- .... ....|R-- .... ....|A-1 2A.F ....
....|..|--- .... ....|--- .... ....|R-- .... ....
 A-3|..|--- .... ....|A-4 3F.F ....|A-1 2A.F ....
....|..|--- .... ....|--- .... ....|--- .... ....
....|..|--- .... ....|--- .... ....|E-2 2F.7 ....
....|..|--- .... ....|--- .... ....|R-- .... ....
 A-3|..|A-3 UF1A ....|G#4 3F.F ....|A-1 2A.F ....
....|..|--- .... ....|--- .... ....|R-- .... ....
 A-3|..|--- .... ....|--- .... ....|A-1 2A.F ....
....|..|--- .... ....|--- .... ....|R-- .... ....
....|..|--- .... ....|A-4 3F.F ....|E-2 2F.7 ....
....|..|--- .... ....|R-- .... ....|R-- .... ....
 A-3|..|--- .... ....|R-- .... ....|A-1 2A.F ....
....|..|--- .... ....|--- .... ....|R-- .... ....
 A-3|..|--- .... ....|A-4 3F.A ....|A-1 2A.F ....
....|..|--- .... ....|--- .... ....|R-- .... ....
 A-3|..|--- .... ....|--- .... ....|A-1 2A.F ....
....|..|--- .... ....|R-- .... ....|R-- .... ....
 A-3|..|A-3 UF17 ....|A-4 3F.7 ....|A-1 2A.F ....
....|..|--- .... ....|--- .... ....|--- .... ....
....|..|--- .... ....|--- .... ....|A-1 2F.A ....
....|..|--- .... ....|--- .... ....|R-- .... ....
 A-3|..|--- .... ....|E-4 3F.F ....|A-1 2A.F ....
....|..|--- .... ....|--- .... ....|R-- .... ....
....|..|--- .... ....|R-- .... ....|A-1 2F.7 ....
....|..|--- .... ....|R-- .... ....|R-- .... ....

[Pattern20]
 G#3|..|G#3 UFBF ....|A-4 3F.F ....|G#1 2A.F ....
....|..|--- .... ....|--- .... ....|R-- .... ....
....|..|--- .... ....|--- .... ....|A-1 2F.A ....
....|..|--- .... ....|R-- .... ....|R-- .... ....
 G#3|..|--- .... ....|A-4 3F.F ....|G#1 2A.F ....
....|..|--- .... ....|--- .... ....|R-- .... ....
 G#3|..|--- .... ....|--- .... ....|G#1 2A.F ....
....|..|--- .... ....|R-- .... ....|R-- .... ....
 G#3|..|--- .... ....|G#4 3F.F ....|G#1 2A.F ....
....|..|--- .... ....|--- .... ....|--- .... ....
....|..|--- .... ....|R-- .... ....|A-1 2F.7 ....
....|..|--- .... ....|R-- .... ....|R-- .... ....
 G#3|..|G#3 UFBA ....|A-4 3F.F ....|G#1 2A.F ....
....|..|--- .... ....|--- .... ....|R-- .... ....
 G#3|..|--- .... ....|--- .... ....|G#1 2A.F ....
....|..|--- .... ....|R-- .... ....|R-- .... ....
....|..|--- .... ....|D#5 3F.F ....|A-1 2F.7 ....
....|..|--- .... ....|--- .... ....|R-- .... ....
 G#3|..|--- .... ....|--- .... ....|G#1 2A.F ....
....|..|--- .... ....|R-- .... ....|R-- .... ....
 G#3|..|--- .... ....|E-4 3F.7 ....|G#1 2A.F ....
....|..|--- .... ....|--- .... ....|R-- .... ....
 G#3|..|--- .... ....|R-- .... ....|G#1 2A.F ....
....|..|--- .... ....|R-- .... ....|R-- .... ....
 G#3|..|G#3 UFB7 ....|A-4 3F.7 ....|G#1 2A.F ....
....|..|--- .... ....|--- .... ....|--- .... ....
....|..|--- .... ....|--- .... ....|G#1 2F.A ....
....|..|--- .... ....|R-- .... ....|R-- .... ....
 E-4|..|--- .... ....|A-4 3F.7 ....|E-2 2A.F ....
....|..|--- .... ....|--- .... ....|R-- .... ....
....|..|--- .... ....|--- .... ....|G#1 2F.7 ....
....|..|--- .... ....|R-- .... ....|R-- .... ....
 C#4|..|E-4 UF5F ....|G#4 3F.F ....|C#2 2A.F ....
....|..|--- .... ....|--- .... ....|R-- .... ....
....|..|--- .... ....|R-- .... ....|G#1 2F.A ....
....|..|--- .... ....|R-- .... ....|R-- .... ....
 C#4|..|--- .... ....|A-4 3F.7 ....|C#2 2A.F ....
....|..|--- .... ....|--- .... ....|R-- .... ....
 C#4|..|--- .... ....|R-- .... ....|C#2 2A.F ....
....|..|--- .... ....|R-- .... ....|R-- .... ....
 C#4|..|--- .... ....|G#4 3F.F ....|C#2 2A.F ....
....|..|--- .... ....|--- .... ....|--- .... ....
....|..|--- .... ....|--- .... ....|G#1 2F.7 ....
....|..|--- .... ....|R-- .... ....|R-- .... ....
 C#4|..|E-4 UF5A ....|F#4 3F.F ....|C#2 2A.F ....
....|..|--- .... ....|--- .... ....|R-- .... ....
 C#4|..|--- .... ....|--- .... ....|C#2 2A.F ....
....|..|--- .... ....|R-- .... ....|R-- .... ....
....|..|--- .... ....|G#4 3F.F ....|G#1 2F.7 ....
....|..|--- .... ....|--- .... ....|R-- .... ....
 C#4|..|--- .... ....|R-- .... ....|C#2 2A.F ....
....|..|--- .... ....|--- .... ....|R-- .... ....
 C#4|..|--- .... ....|G#4 3F.A ....|C#2 2A.F ....
....|..|--- .... ....|R-- .... ....|R-- .... ....
 C#4|..|--- .... ....|--- .... ....|C#2 2A.F ....
....|..|--- .... ....|R-- .... ....|R-- .... ....
 C#4|..|E-4 UF57 ....|C#4 3F.F ....|C#2 2A.F ....
....|..|--- .... ....|--- .... ....|--- .... ....
....|..|--- .... ....|--- .... ....|C#2 2F.A ....
....|..|--- .... ....|R-- .... ....|R-- .... ....
 B-3|..|--- .... ....|G#4 3F.F ....|B-1 2A.F ....
....|..|--- .... ....|--- .... ....|R-- .... ....
 B-3|..|--- .... ....|R-- .... ....|B-1 2A.F ....
....|..|--- .... ....|--- .... ....|R-- .... ....
....|..|R-- .... ....|G#4 3F.7 ....|C#2 2F.7 ....
....|..|--- .... ....|R-- .... ....|R-- .... ....
....|..|--- .... ....|--- .... ....|C#2 2F.A ....
....|..|--- .... ....|R-- .... ....|R-- .... ....
....|..|--- .... ....|F#4 3F.7 ....|C#2 2F.7 ....
....|..|--- .... ....|--- .... ....|--- .... ....
....|..|--- .... ....|--- .... ....|C#2 2F.7 ....
....|..|--- .... ....|R-- .... ....|R-- .... ....
....|..|--- .... ....|G#4 3F.F ....|B-1 2F.A ....
....|..|--- .... ....|--- .... ....|R-- .... ....
....|..|--- .... ....|--- .... ....|C#2 2F.7 ....
....|..|--- .... ....|R-- .... ....|R-- .... ....
....|..|R-- .... ....|F#4 3F.F ....|C#2 2F.7 ....
....|..|--- .... ....|R-- .... ....|R-- .... ....
....|..|--- .... ....|--- .... ....|C#2 2F.7 ....
....|..|--- .... ....|--- .... ....|--- .... ....
....|..|--- .... ....|G#4 3F.F ....|C#2 2F.7 ....
....|..|--- .... ....|--- .... ....|--- .... ....
....|..|--- .... ....|--- .... ....|--- .... ....
....|..|--- .... ....|--- .... ....|R-- .... ....
....|..|--- .... ....|E-5 3F.F ....|B-1 2F.7 ....
....|..|--- .... ....|--- .... ....|R-- .... ....
....|..|--- .... ....|--- .... ....|B-1 2F.7 ....
....|..|--- .... ....|R-- .... ....|--- .... ....
....|..|R-- .... ....|F#4 3F.A ....|R-- .... ....
....|..|--- .... ....|R-- .... ....|--- .... ....
....|..|--- .... ....|--- .... ....|--- .... ....
....|..|--- .... ....|--- .... ....|--- .... ....
....|..|--- .... ....|G#4 3F.A ....|--- .... ....
....|..|--- .... ....|--- .... ....|--- .... ....
....|..|--- .... ....|--- .... ....|--- .... ....
....|..|--- .... ....|--- .... ....|--- .... ....
 A-3|..|A-3 UF1F ....|A-4 3F.F ....|A-1 2A.F ....
....|..|--- .... ....|--- .... ....|--- .... ....
....|..|--- .... ....|--- .... ....|--- .... ....
....|..|--- .... ....|R-- .... ....|R-- .... ....
 A-3|..|--- .... ....|F#4 3F.7 ....|A-1 2A.F ....
....|..|--- .... ....|R-- .... ....|R-- .... ....
 A-3|..|--- .... ....|R-- .... ....|A-1 2A.F ....
....|..|--- .... ....|--- .... ....|R-- .... ....
 A-3|..|--- .... ....|A-4 3F.F ....|A-1 2A.F ....
....|..|--- .... ....|--- .... ....|--- .... ....
....|..|--- .... ....|--- .... ....|--- .... ....
....|..|--- .... ....|--- .... ....|R-- .... ....
 A-3|..|A-3 UF1A ....|G#4 3F.F ....|A-1 2A.F ....
....|..|--- .... ....|--- .... ....|--- .... ....
 A-3|..|--- .... ....|--- .... ....|A-1 2A.F ....
....|..|--- .... ....|--- .... ....|R-- .... ....
....|..|--- .... ....|A-4 3F.F ....|A-1 2F.A ....
....|..|--- .... ....|R-- .... ....|R-- .... ....
 A-3|..|--- .... ....|R-- .... ....|A-1 2A.F ....
....|..|--- .... ....|--- .... ....|R-- .... ....
 A-3|..|--- .... ....|A-4 3F.A ....|A-1 2A.F ....
....|..|--- .... ....|--- .... ....|R-- .... ....
 A-3|..|--- .... ....|--- .... ....|A-1 2A.F ....
....|..|--- .... ....|R-- .... ....|R-- .... ....
 A-3|..|A-3 UF17 ....|A-4 3F.7 ....|A-1 2A.F ....
....|..|--- .... ....|--- .... ....|--- .... ....
....|..|--- .... ....|--- .... ....|A-1 2F.A ....
....|..|--- .... ....|--- .... ....|R-- .... ....
 A-3|..|--- .... ....|A-4 3F.A ....|A-1 2A.F ....
....|..|--- .... ....|--- .... ....|R-- .... ....
....|..|--- .... ....|R-- .... ....|A-1 2F.7 ....
....|..|--- .... ....|--- .... ....|R-- .... ....

[Pattern21]
 G#3|..|G#4 UFCF ....|A-4 3F.F ....|G#1 2A.F ....
....|..|--- .... ....|--- .... ....|R-- .... ....
....|..|--- .... ....|--- .... ....|A-1 2F.A ....
....|..|--- .... ....|R-- .... ....|R-- .... ....
 G#3|..|--- .... ....|A-4 3F.F ....|G#1 2A.F ....
....|..|--- .... ....|--- .... ....|R-- .... ....
 G#3|..|--- .... ....|--- .... ....|G#1 2A.F ....
....|..|--- .... ....|R-- .... ....|R-- .... ....
 G#3|..|--- .... ....|G#4 3F.F ....|G#1 2A.F ....
....|..|--- .... ....|--- .... ....|--- .... ....
....|..|--- .... ....|R-- .... ....|A-1 2F.7 ....
....|..|--- .... ....|--- .... ....|R-- .... ....
 G#3|..|G#4 UFCA ....|A-4 3F.F ....|G#1 2A.F ....
....|..|--- .... ....|--- .... ....|R-- .... ....
 G#3|..|--- .... ....|--- .... ....|G#1 2A.F ....
....|..|--- .... ....|R-- .... ....|R-- .... ....
....|..|--- .... ....|D#5 3F.F ....|A-1 2F.7 ....
....|..|--- .... ....|--- .... ....|R-- .... ....
 G#3|..|--- .... ....|--- .... ....|G#1 2A.F ....
....|..|--- .... ....|R-- .... ....|R-- .... ....
 G#3|..|--- .... ....|G#4 3F.A ....|G#1 2A.F ....
....|..|--- .... ....|--- .... ....|R-- .... ....
 G#3|..|--- .... ....|R-- .... ....|G#1 2A.F ....
....|..|--- .... ....|R-- .... ....|R-- .... ....
 G#3|..|G#4 UFC7 ....|A-4 3F.7 ....|G#1 2A.F ....
....|..|--- .... ....|--- .... ....|--- .... ....
....|..|--- .... ....|--- .... ....|G#1 2F.A ....
....|..|--- .... ....|R-- .... ....|R-- .... ....
 E-4|..|--- .... ....|A-4 3F.7 ....|E-2 2A.F ....
....|..|--- .... ....|--- .... ....|R-- .... ....
....|..|--- .... ....|--- .... ....|G#1 2F.7 ....
....|..|--- .... ....|R-- .... ....|R-- .... ....
 C#4|..|C#4 UF1F ....|G#4 3F.F ....|C#2 2A.F ....
....|..|--- .... ....|--- .... ....|R-- .... ....
....|..|--- .... ....|R-- .... ....|G#1 2F.A ....
....|..|--- .... ....|R-- .... ....|R-- .... ....
 C#4|..|--- .... ....|A-4 3F.7 ....|C#2 2A.F ....
....|..|--- .... ....|--- .... ....|R-- .... ....
 C#4|..|--- .... ....|R-- .... ....|C#2 2A.F ....
....|..|--- .... ....|R-- .... ....|R-- .... ....
 C#4|..|--- .... ....|G#4 3F.F ....|C#2 2A.F ....
....|..|--- .... ....|--- .... ....|--- .... ....
....|..|--- .... ....|R-- .... ....|G#1 2F.7 ....
....|..|--- .... ....|--- .... ....|R-- .... ....
 C#4|..|C#4 UF1A ....|F#4 3F.F ....|C#2 2A.F ....
....|..|--- .... ....|--- .... ....|R-- .... ....
 C#4|..|--- .... ....|--- .... ....|C#2 2A.F ....
....|..|--- .... ....|R-- .... ....|R-- .... ....
....|..|--- .... ....|G#4 3F.F ....|G#1 2F.7 ....
....|..|--- .... ....|--- .... ....|R-- .... ....
 C#4|..|--- .... ....|R-- .... ....|C#2 2A.F ....
....|..|--- .... ....|--- .... ....|R-- .... ....
 C#4|..|--- .... ....|G#4 3F.A ....|C#2 2A.F ....
....|..|--- .... ....|--- .... ....|R-- .... ....
 C#4|..|--- .... ....|R-- .... ....|C#2 2A.F ....
....|..|--- .... ....|--- .... ....|R-- .... ....
 C#4|..|C#4 UF17 ....|G#4 3F.7 ....|C#2 2A.F ....
....|..|--- .... ....|--- .... ....|--- .... ....
....|..|--- .... ....|--- .... ....|C#2 2F.A ....
....|..|--- .... ....|R-- .... ....|R-- .... ....
 B-3|..|--- .... ....|G#4 3F.F ....|B-1 2A.F ....
....|..|--- .... ....|--- .... ....|R-- .... ....
....|..|--- .... ....|R-- .... ....|C#2 2F.7 ....
....|..|--- .... ....|--- .... ....|R-- .... ....
 E-4|..|C#4 UF1F ....|G#4 3F.7 ....|E-2 2A.F ....
....|..|--- .... ....|--- .... ....|R-- .... ....
....|..|--- .... ....|R-- .... ....|C#2 2F.A ....
....|..|--- .... ....|--- .... ....|R-- .... ....
 E-4|..|--- .... ....|F#4 3F.7 ....|E-2 2A.F ....
....|..|--- .... ....|--- .... ....|R-- .... ....
 E-4|..|--- .... ....|--- .... ....|E-2 2A.F ....
....|..|--- .... ....|R-- .... ....|R-- .... ....
 E-4|..|--- .... ....|G#4 3F.F ....|E-2 2A.F ....
....|..|--- .... ....|--- .... ....|--- .... ....
....|..|--- .... ....|--- .... ....|C#2 2F.7 ....
....|..|--- .... ....|R-- .... ....|R-- .... ....
 E-4|..|C#4 UF1A ....|F#4 3F.F ....|E-2 2A.F ....
....|..|--- .... ....|--- .... ....|R-- .... ....
 E-4|..|--- .... ....|R-- .... ....|E-2 2A.F ....
....|..|--- .... ....|--- .... ....|R-- .... ....
....|..|--- .... ....|G#4 3F.F ....|C#2 2F.7 ....
....|..|--- .... ....|--- .... ....|R-- .... ....
 E-4|..|--- .... ....|--- .... ....|E-2 2A.F ....
....|..|--- .... ....|--- .... ....|R-- .... ....
 E-4|..|--- .... ....|E-5 3F.F ....|E-2 2A.F ....
....|..|--- .... ....|--- .... ....|R-- .... ....
 E-4|..|--- .... ....|--- .... ....|E-2 2A.F ....
....|..|--- .... ....|R-- .... ....|R-- .... ....
 E-4|..|C#4 UF17 ....|F#4 3F.A ....|E-2 2A.F ....
....|..|--- .... ....|R-- .... ....|--- .... ....
....|..|--- .... ....|R-- .... ....|E-2 2F.A ....
....|..|--- .... ....|--- .... ....|R-- .... ....
 E-4|..|--- .... ....|G#4 3F.A ....|E-2 2A.F ....
....|..|--- .... ....|--- .... ....|R-- .... ....
....|..|--- .... ....|--- .... ....|E-2 2F.7 ....
....|..|--- .... ....|--- .... ....|R-- .... ....
 A-3|..|A-4 UFDF ....|A-4 3F.F ....|A-1 2A.F ....
....|..|--- .... ....|--- .... ....|R-- .... ....
....|..|--- .... ....|--- .... ....|E-2 2F.A ....
....|..|--- .... ....|R-- .... ....|R-- .... ....
 A-3|..|--- .... ....|F#4 3F.7 ....|A-1 2A.F ....
....|..|--- .... ....|R-- .... ....|R-- .... ....
 A-3|..|--- .... ....|R-- .... ....|A-1 2A.F ....
....|..|--- .... ....|--- .... ....|R-- .... ....
 A-3|..|--- .... ....|A-4 3F.F ....|A-1 2A.F ....
....|..|--- .... ....|--- .... ....|--- .... ....
....|..|--- .... ....|--- .... ....|E-2 2F.7 ....
....|..|--- .... ....|--- .... ....|R-- .... ....
 A-3|..|A-4 UFDA ....|G#4 3F.F ....|A-1 2A.F ....
....|..|--- .... ....|--- .... ....|R-- .... ....
 A-3|..|--- .... ....|--- .... ....|A-1 2A.F ....
....|..|--- .... ....|--- .... ....|R-- .... ....
....|..|--- .... ....|A-4 3F.F ....|E-2 2F.7 ....
....|..|--- .... ....|R-- .... ....|R-- .... ....
 A-3|..|--- .... ....|--- .... ....|A-1 2A.F ....
....|..|--- .... ....|--- .... ....|R-- .... ....
 A-3|..|--- .... ....|A-4 3F.A ....|A-1 2A.F ....
....|..|--- .... ....|--- .... ....|R-- .... ....
 A-3|..|--- .... ....|--- .... ....|A-1 2A.F ....
....|..|--- .... ....|--- .... ....|R-- .... ....
 A-3|..|A-4 UFD7 ....|A-4 3F.7 ....|A-1 2A.F ....
....|..|--- .... ....|--- .... ....|--- .... ....
....|..|--- .... ....|--- .... ....|A-1 2F.A ....
....|..|--- .... ....|--- .... ....|R-- .... ....
 A-3|..|--- .... ....|A-4 3F.A ....|A-1 2A.F ....
....|..|--- .... ....|--- .... ....|R-- .... ....
....|..|--- .... ....|--- .... ....|A-1 2F.7 ....
....|..|--- .... ....|--- .... ....|R-- .... ....

[Pattern22]
 G#3|..|G#4 UFCF ....|A-4 3F.F ....|G#1 2A.F ....
....|..|--- .... ....|--- .... ....|R-- .... ....
....|..|--- .... ....|--- .... ....|A-1 2F.A ....
....|..|--- .... ....|--- .... ....|R-- .... ....
 G#3|..|--- .... ....|G#4 3F.7 ....|G#1 2A.F ....
....|..|--- .... ....|--- .... ....|R-- .... ....
 G#3|..|--- .... ....|--- .... ....|G#1 2A.F ....
....|..|--- .... ....|--- .... ....|R-- .... ....
 G#3|..|--- .... ....|A-4 3F.F ....|G#1 2A.F ....
....|..|--- .... ....|--- .... ....|--- .... ....
....|..|--- .... ....|--- .... ....|A-1 2F.7 ....
....|..|--- .... ....|--- .... ....|R-- .... ....
 G#3|..|G#4 UFCA ....|G#4 3F.F ....|G#1 2A.F ....
....|..|--- .... ....|--- .... ....|R-- .... ....
 G#3|..|--- .... ....|--- .... ....|G#1 2A.F ....
....|..|--- .... ....|--- .... ....|R-- .... ....
....|..|--- .... ....|A-4 3F.F ....|A-1 2F.7 ....
....|..|--- .... ....|--- .... ....|R-- .... ....
 G#3|..|--- .... ....|--- .... ....|G#1 2A.F ....
....|..|--- .... ....|--- .... ....|R-- .... ....
 G#3|..|--- .... ....|D#5 3F.F ....|G#1 2A.F ....
....|..|--- .... ....|--- .... ....|R-- .... ....
 G#3|..|--- .... ....|--- .... ....|G#1 2A.F ....
....|..|--- .... ....|R-- .... ....|R-- .... ....
 G#3|..|G#4 UFC7 ....|A-4 3F.7 ....|G#1 2A.F ....
....|..|--- .... ....|--- .... ....|--- .... ....
....|..|--- .... ....|--- .... ....|G#1 2F.A ....
....|..|--- .... ....|--- .... ....|R-- .... ....
 E-4|..|--- .... ....|D#5 3F.F ....|E-2 2A.F ....
....|..|--- .... ....|--- .... ....|R-- .... ....
....|..|--- .... ....|--- .... ....|G#1 2F.7 ....
....|..|--- .... ....|R-- .... ....|R-- .... ....
 C#4|..|E-4 UFEF ....|G#4 3F.F ....|C#2 2A.F ....
....|..|--- .... ....|--- .... ....|R-- .... ....
....|..|--- .... ....|--- .... ....|G#1 2F.A ....
....|..|--- .... ....|R-- .... ....|R-- .... ....
 C#4|..|--- .... ....|G#4 3F.7 ....|C#2 2A.F ....
....|..|--- .... ....|--- .... ....|R-- .... ....
 C#4|..|--- .... ....|R-- .... ....|C#2 2A.F ....
....|..|--- .... ....|--- .... ....|R-- .... ....
 C#4|..|--- .... ....|G#4 3F.F ....|C#2 2A.F ....
....|..|--- .... ....|--- .... ....|--- .... ....
....|..|--- .... ....|--- .... ....|G#1 2F.7 ....
....|..|--- .... ....|R-- .... ....|R-- .... ....
 C#4|..|E-4 UFEA ....|F#4 3F.F ....|C#2 2A.F ....
....|..|--- .... ....|--- .... ....|R-- .... ....
 C#4|..|--- .... ....|--- .... ....|C#2 2A.F ....
....|..|--- .... ....|R-- .... ....|R-- .... ....
....|..|--- .... ....|G#4 3F.F ....|G#1 2F.7 ....
....|..|--- .... ....|--- .... ....|R-- .... ....
 C#4|..|--- .... ....|R-- .... ....|C#2 2A.F ....
....|..|--- .... ....|--- .... ....|R-- .... ....
 C#4|..|--- .... ....|D#5 3F.7 ....|C#2 2A.F ....
....|..|--- .... ....|R-- .... ....|R-- .... ....
 C#4|..|--- .... ....|--- .... ....|C#2 2A.F ....
....|..|--- .... ....|R-- .... ....|R-- .... ....
 C#4|..|E-4 UFE7 ....|G#4 3F.7 ....|C#2 2A.F ....
....|..|--- .... ....|--- .... ....|--- .... ....
....|..|--- .... ....|--- .... ....|C#2 2F.A ....
....|..|--- .... ....|R-- .... ....|R-- .... ....
 B-3|..|--- .... ....|D#5 3F.F ....|B-1 2A.F ....
....|..|--- .... ....|--- .... ....|R-- .... ....
 B-3|..|--- .... ....|R-- .... ....|B-1 2A.F ....
....|..|--- .... ....|R-- .... ....|R-- .... ....
....|..|E-5 UF.F ....|E-5 3F.F ....|C#2 2F.7 ....
....|..|--- .... ....|R-- .... ....|R-- .... ....
....|..|--- .... ....|--- .... ....|C#2 2F.A ....
....|..|--- .... ....|R-- .... ....|R-- .... ....
....|..|--- .... ....|F#4 3F.7 ....|C#2 2F.7 ....
....|..|--- .... ....|R-- .... ....|--- .... ....
....|..|--- .... ....|--- .... ....|C#2 2F.7 ....
....|..|--- .... ....|R-- .... ....|R-- .... ....
....|..|--- .... ....|E-5 3F.F ....|B-1 2F.A ....
....|..|--- .... ....|--- .... ....|R-- .... ....
....|..|--- .... ....|--- .... ....|C#2 2F.7 ....
....|..|--- .... ....|R-- .... ....|R-- .... ....
....|..|D#4 UF2F ....|D#5 3F.F ....|C#2 2F.7 ....
....|..|--- .... ....|R-- .... ....|R-- .... ....
....|..|--- .... ....|--- .... ....|C#2 2F.7 ....
....|..|--- .... ....|R-- .... ....|--- .... ....
....|..|D#4 UFFF ....|F#5 3F.F ....|C#2 2F.7 ....
....|..|--- .... ....|R-- .... ....|--- .... ....
....|..|--- .... ....|--- .... ....|--- .... ....
....|..|--- .... ....|--- .... ....|R-- .... ....
....|..|--- .... ....|E-5 3F.F ....|B-1 2F.7 ....
....|..|--- .... ....|--- .... ....|R-- .... ....
....|..|--- .... ....|--- .... ....|B-1 2F.7 ....
....|..|--- .... ....|R-- .... ....|--- .... ....
....|..|E-5 UF.7 ....|E-5 3F.7 ....|R-- .... ....
....|..|--- .... ....|--- .... ....|--- .... ....
....|..|--- .... ....|--- .... ....|--- .... ....
....|..|--- .... ....|R-- .... ....|--- .... ....
....|..|D#4 UFFA ....|F#5 3F.A ....|--- .... ....
....|..|--- .... ....|R-- .... ....|--- .... ....
....|..|--- .... ....|--- .... ....|--- .... ....
....|..|--- .... ....|--- .... ....|--- .... ....
....|..|E-5 UF.F ....|E-5 3F.F ....|--- .... ....
....|..|--- .... ....|--- .... ....|--- .... ....
....|..|--- .... ....|--- .... ....|--- .... ....
....|..|--- .... ....|R-- .... ....|--- .... ....
....|..|D#4 UF27 ....|D#5 3F.7 ....|--- .... ....
....|..|--- .... ....|R-- .... ....|--- .... ....
....|..|--- .... ....|--- .... ....|--- .... ....
....|..|--- .... ....|R-- .... ....|--- .... ....
....|..|D#4 UFF7 ....|E-5 3F.F ....|--- .... ....
....|..|--- .... ....|--- .... ....|--- .... ....
....|..|--- .... ....|--- .... ....|--- .... ....
....|..|--- .... ....|R-- .... ....|--- .... ....
....|..|D#4 UF2F ....|D#5 3F.F ....|--- .... ....
....|..|--- .... ....|--- .... ....|--- .... ....
....|..|--- .... ....|--- .... ....|--- .... ....
....|..|--- .... ....|R-- .... ....|--- .... ....
....|..|D#4 UFFF ....|F#5 3F.F ....|--- .... ....
....|..|--- .... ....|R-- .... ....|--- .... ....
....|..|--- .... ....|--- .... ....|--- .... ....
....|..|--- .... ....|--- .... ....|--- .... ....
....|..|--- .... ....|E-5 3F.F ....|--- .... ....
....|..|--- .... ....|--- .... ....|--- .... ....
....|..|--- .... ....|--- .... ....|--- .... ....
....|..|--- .... ....|R-- .... ....|--- .... ....
....|..|E-5 UF.7 ....|E-5 3F.7 ....|--- .... ....
....|..|--- .... ....|--- .... ....|--- .... ....
....|..|--- .... ....|R-- .... ....|--- .... ....
....|..|--- .... ....|R-- .... ....|--- .... ....
....|..|D#4 UFFA ....|D#5 3F.F ....|--- .... ....
....|..|--- .... ....|R-- .... ....|--- .... ....
....|..|--- .... ....|--- .... ....|--- .... ....
....|..|--- .... ....|R-- .... ....|--- .... ....

[Pattern23]
....|..|--- .... ....|F#5 3F.F ....|--- .... ....
....|..|--- .... ....|--- .... ....|--- .... ....
....|..|--- .... ....|--- .... ....|--- .... ....
....|..|--- .... ....|R-- .... ....|--- .... ....
....|..|D#4 UF27 ....|E-5 3F.F ....|--- .... ....
....|..|--- .... ....|--- .... ....|--- .... ....
....|..|--- .... ....|R-- .... ....|--- .... ....
....|..|--- .... ....|R-- .... ....|--- .... ....
....|..|D#4 UFF7 ....|F#5 3F.7 ....|--- .... ....
....|..|--- .... ....|--- .... ....|--- .... ....
....|..|--- .... ....|R-- .... ....|--- .... ....
....|..|--- .... ....|R-- .... ....|--- .... ....
....|..|--- .... ....|D#5 3F.F ....|--- .... ....
....|..|--- .... ....|--- .... ....|--- .... ....
....|..|--- .... ....|--- .... ....|--- .... ....
....|..|--- .... ....|R-- .... ....|--- .... ....
....|..|--- .... ....|F#5 3F.F ....|--- .... ....
....|..|--- .... ....|--- .... ....|--- .... ....
....|..|--- .... ....|R-- .... ....|--- .... ....
....|..|--- .... ....|--- .... ....|--- .... ....
....|..|--- .... ....|E-5 3F.F ....|--- .... ....
....|..|--- .... ....|--- .... ....|--- .... ....
....|..|--- .... ....|R-- .... ....|--- .... ....
....|..|--- .... ....|R-- .... ....|--- .... ....
....|..|--- .... ....|F#5 3F.7 ....|--- .... ....
....|..|--- .... ....|--- .... ....|--- .... ....
....|..|--- .... ....|R-- .... ....|--- .... ....
....|..|--- .... ....|R-- .... ....|--- .... ....
....|..|--- .... ....|E-5 3F.7 ....|--- .... ....
....|..|--- .... ....|--- .... ....|--- .... ....
....|..|--- .... ....|--- .... ....|--- .... ....
....|..|--- .... ....|--- .... ....|--- .... ....
....|..|--- .... ....|E-5 3F.A ....|--- .... ....
....|..|--- .... ....|--- .... ....|--- .... ....
....|..|--- .... ....|R-- .... ....|--- .... ....
....|..|--- .... ....|--- .... ....|--- .... ....
....|..|--- .... ....|D#5 3F.7 ....|--- .... ....
....|..|--- .... ....|--- .... ....|--- .... ....
....|..|--- .... ....|R-- .... ....|--- .... ....
....|..|--- .... ....|R-- .... ....|--- .... ....
....|..|--- .... ....|F#5 3F.7 ....|--- .... ....
....|..|--- .... ....|--- .... ....|--- .... ....
....|..|--- .... ....|--- .... ....|--- .... ....
....|..|--- .... ....|--- .... ....|--- .... ....
....|..|--- .... ....|E-5 3F.7 ....|--- .... ....
....|..|--- .... ....|--- .... ....|--- .... ....
....|..|--- .... ....|--- .... ....|--- .... ....
....|..|--- .... ....|--- .... ....|--- .... ....
....|..|--- .... ....|--- .... ....|--- .... ....
....|..|--- .... ....|--- .... ....|--- .... ....
....|..|--- .... ....|R-- .... ....|--- .... ....
....|..|--- .... ....|--- .... ....|--- .... ....
....|..|--- .... ....|--- .... ....|--- .... ....
....|..|--- .... ....|--- .... ....|--- .... ....
....|..|--- .... ....|--- .... ....|--- .... ....
....|..|--- .... ....|--- .... ....|--- .... ....
....|..|--- .... ....|--- .... ....|--- .... ....
....|..|--- .... ....|--- .... ....|--- .... ....
....|..|--- .... ....|--- .... ....|--- .... ....
....|..|--- .... ....|--- .... ....|--- .... ....
....|..|--- .... ....|--- .... ....|--- .... ....
....|..|--- .... ....|--- .... ....|--- .... ....
....|..|--- .... ....|--- .... ....|--- .... ....
....|..|--- .... ....|--- .... ....|--- .... ....
....|..|R-- .... ....|--- .... ....|--- .... ....
....|..|--- .... ....|--- .... ....|--- .... ....
....|..|--- .... ....|--- .... ....|--- .... ....
....|..|--- .... ....|--- .... ....|--- .... ....
....|..|--- .... ....|--- .... ....|--- .... ....
....|..|--- .... ....|--- .... ....|--- .... ....
....|..|--- .... ....|--- .... ....|--- .... ....
....|..|--- .... ....|--- .... ....|--- .... ....
....|..|--- .... ....|--- .... ....|--- .... ....
....|..|--- .... ....|--- .... ....|--- .... ....
....|..|--- .... ....|--- .... ....|--- .... ....
....|..|--- .... ....|--- .... ....|--- .... ....
....|..|R-- .... ....|--- .... ....|--- .... ....
....|..|--- .... ....|--- .... ....|--- .... ....
....|..|--- .... ....|--- .... ....|--- .... ....
....|..|--- .... ....|--- .... ....|--- .... ....
....|..|--- .... ....|--- .... ....|--- .... ....
....|..|--- .... ....|--- .... ....|--- .... ....
....|..|--- .... ....|--- .... ....|--- .... ....
....|..|--- .... ....|--- .... ....|--- .... ....
....|..|--- .... ....|--- .... ....|--- .... ....
....|..|--- .... ....|--- .... ....|--- .... ....
....|..|--- .... ....|--- .... ....|--- .... ....
....|..|--- .... ....|--- .... ....|--- .... ....
....|..|R-- .... ....|--- .... ....|--- .... ....
....|..|--- .... ....|--- .... ....|--- .... ....
....|..|--- .... ....|--- .... ....|--- .... ....
....|..|--- .... ....|--- .... ....|--- .... ....
....|..|--- .... ....|--- .... ....|--- .... ....
....|..|--- .... ....|--- .... ....|--- .... ....
....|..|--- .... ....|--- .... ....|--- .... ....
....|..|--- .... ....|--- .... ....|--- .... ....
....|..|--- .... ....|E-5 3F.F ....|--- .... ....
....|..|--- .... ....|--- .... ....|--- .... ....
....|..|--- .... ....|--- .... ....|--- .... ....
....|..|--- .... ....|--- .... ....|--- .... ....
....|..|--- .... ....|R-- .... ....|--- .... ....
....|..|--- .... ....|--- .... ....|--- .... ....
....|..|--- .... ....|--- .... ....|--- .... ....
....|..|--- .... ....|--- .... ....|--- .... ....
....|..|--- .... ....|E-5 3F.F ....|--- .... ....
....|..|--- .... ....|--- .... ....|--- .... ....
....|..|--- .... ....|--- .... ....|--- .... ....
....|..|--- .... ....|R-- .... ....|--- .... ....
....|..|--- .... ....|D#5 3F.F ....|--- .... ....
....|..|--- .... ....|--- .... ....|--- .... ....
....|..|--- .... ....|--- .... ....|--- .... ....
....|..|--- .... ....|R-- .... ....|--- .... ....
....|..|--- .... ....|E-5 3F.F ....|--- .... ....
....|..|--- .... ....|--- .... ....|--- .... ....
....|..|--- .... ....|--- .... ....|--- .... ....
....|..|--- .... ....|R-- .... ....|--- .... ....
....|..|--- .... ....|C#5 3F.F ....|--- .... ....
....|..|--- .... ....|--- .... ....|--- .... ....
....|..|--- .... ....|--- .... ....|--- .... ....
....|..|--- .... ....|R-- .... ....|--- .... ....
....|..|--- .... ....|E-5 3F.F ....|--- .... ....
....|..|--- .... ....|E-5 3F.F ....|--- .... ....
....|..|--- .... ....|--- .... ....|--- .... ....
....|..|--- .... ....|R-- .... ....|--- .... ....
....|..|--- .... ....|D#5 3F.F ....|--- .... ....
....|..|--- .... ....|--- .... ....|--- .... ....
....|..|--- .... ....|--- .... ....|--- .... ....
....|..|--- .... ....|R-- .... ....|--- .... ....

[Pattern24]
....|..|--- .... ....|E-5 3F.F ....|--- .... ....
....|..|--- .... ....|--- .... ....|--- .... ....
....|..|--- .... ....|--- .... ....|--- .... ....
....|..|--- .... ....|R-- .... ....|--- .... ....
....|..|--- .... ....|C#5 3F.F ....|--- .... ....
....|..|--- .... ....|E-5 3F.A ....|--- .... ....
....|..|--- .... ....|--- .... ....|--- .... ....
....|..|--- .... ....|R-- .... ....|--- .... ....
....|..|--- .... ....|E-5 3F.F ....|--- .... ....
....|..|--- .... ....|E-5 3F.F ....|--- .... ....
....|..|--- .... ....|--- .... ....|--- .... ....
....|..|--- .... ....|R-- .... ....|--- .... ....
....|..|--- .... ....|D#5 3F.F ....|--- .... ....
....|..|--- .... ....|--- .... ....|--- .... ....
....|..|--- .... ....|--- .... ....|--- .... ....
....|..|--- .... ....|--- .... ....|--- .... ....
....|..|--- .... ....|E-5 3F.F ....|--- .... ....
....|..|--- .... ....|E-5 3F.7 ....|--- .... ....
....|..|--- .... ....|--- .... ....|--- .... ....
....|..|--- .... ....|--- .... ....|--- .... ....
....|..|--- .... ....|E-5 3F.F ....|--- .... ....
....|..|--- .... ....|C#5 3F.F ....|--- .... ....
....|..|--- .... ....|--- .... ....|--- .... ....
....|..|--- .... ....|R-- .... ....|--- .... ....
....|..|--- .... ....|E-5 3F.7 ....|--- .... ....
....|..|--- .... ....|--- .... ....|--- .... ....
....|..|--- .... ....|--- .... ....|--- .... ....
....|..|--- .... ....|--- .... ....|--- .... ....
....|..|--- .... ....|C#5 3F.7 ....|--- .... ....
....|..|--- .... ....|--- .... ....|--- .... ....
....|..|--- .... ....|--- .... ....|--- .... ....
....|..|--- .... ....|--- .... ....|--- .... ....
....|..|--- .... ....|E-5 3F.7 ....|--- .... ....
....|..|--- .... ....|E-5 3F.7 ....|--- .... ....
....|..|--- .... ....|--- .... ....|--- .... ....
....|..|--- .... ....|R-- .... ....|--- .... ....
....|..|--- .... ....|D#5 3F.7 ....|--- .... ....
....|..|--- .... ....|--- .... ....|--- .... ....
....|..|--- .... ....|--- .... ....|--- .... ....
....|..|--- .... ....|--- .... ....|--- .... ....
....|..|--- .... ....|E-5 3F.7 ....|--- .... ....
....|..|--- .... ....|--- .... ....|--- .... ....
....|..|--- .... ....|--- .... ....|--- .... ....
....|..|--- .... ....|--- .... ....|--- .... ....
....|..|--- .... ....|E-5 3F.7 ....|--- .... ....
....|..|--- .... ....|C#5 3F.7 ....|--- .... ....
....|..|--- .... ....|--- .... ....|--- .... ....
....|..|--- .... ....|--- .... ....|--- .... ....
....|..|--- .... ....|R-- .... ....|--- .... ....
....|..|--- .... ....|--- .... ....|--- .... ....
....|..|--- .... ....|--- .... ....|--- .... ....
....|..|--- .... ....|--- .... ....|--- .... ....
....|..|--- .... ....|--- .... ....|--- .... ....
....|..|--- .... ....|--- .... ....|--- .... ....
....|..|--- .... ....|--- .... ....|--- .... ....
....|..|--- .... ....|--- .... ....|--- .... ....
....|..|--- .... ....|--- .... ....|--- .... ....
....|..|--- .... ....|--- .... ....|--- .... ....
....|..|--- .... ....|--- .... ....|--- .... ....
....|..|--- .... ....|--- .... ....|--- .... ....
....|..|--- .... ....|--- .... ....|--- .... ....
....|..|--- .... ....|--- .... ....|--- .... ....
....|..|--- .... ....|--- .... ....|--- .... ....
....|..|--- .... ....|--- .... ....|--- .... ....
....|..|--- .... ....|--- .... ....|--- .... ....
....|..|--- .... ....|--- .... ....|--- .... ....
....|..|--- .... ....|--- .... ....|--- .... ....
....|..|--- .... ....|--- .... ....|--- .... ....
....|..|--- .... ....|--- .... ....|--- .... ....
....|..|--- .... ....|--- .... ....|--- .... ....
....|..|--- .... ....|--- .... ....|--- .... ....
....|..|--- .... ....|--- .... ....|--- .... ....
....|..|--- .... ....|--- .... ....|--- .... ....
....|..|--- .... ....|--- .... ....|--- .... ....
....|..|--- .... ....|--- .... ....|--- .... ....
....|..|--- .... ....|--- .... ....|--- .... ....
....|..|--- .... ....|--- .... ....|--- .... ....
....|..|--- .... ....|--- .... ....|--- .... ....
....|..|--- .... ....|--- .... ....|--- .... ....
....|..|--- .... ....|--- .... ....|--- .... ....
....|..|--- .... ....|--- .... ....|--- .... ....
....|..|--- .... ....|--- .... ....|--- .... ....
....|..|--- .... ....|--- .... ....|--- .... ....
....|..|--- .... ....|--- .... ....|--- .... ....
....|..|--- .... ....|--- .... ....|--- .... ....
....|..|--- .... ....|--- .... ....|--- .... ....
....|..|--- .... ....|--- .... ....|--- .... ....
....|..|--- .... ....|--- .... ....|--- .... ....
....|..|--- .... ....|--- .... ....|--- .... ....
....|..|--- .... ....|--- .... ....|--- .... ....
....|..|--- .... ....|--- .... ....|--- .... ....
....|..|--- .... ....|--- .... ....|--- .... ....
....|..|--- .... ....|--- .... ....|--- .... ....
....|..|--- .... ....|--- .... ....|--- .... ....
....|..|--- .... ....|--- .... ....|--- .... ....
....|..|--- .... ....|--- .... ....|--- .... ....
....|..|--- .... ....|E-5 3F.F ....|--- .... ....
....|..|--- .... ....|--- .... ....|--- .... ....
....|..|--- .... ....|--- .... ....|--- .... ....
....|..|--- .... ....|--- .... ....|--- .... ....
....|..|--- .... ....|R-- .... ....|--- .... ....
....|..|--- .... ....|--- .... ....|--- .... ....
....|..|--- .... ....|--- .... ....|--- .... ....
....|..|--- .... ....|--- .... ....|--- .... ....
....|..|--- .... ....|E-5 3F.F ....|--- .... ....
....|..|--- .... ....|--- .... ....|--- .... ....
....|..|--- .... ....|--- .... ....|--- .... ....
....|..|--- .... ....|R-- .... ....|--- .... ....
....|..|--- .... ....|D#5 3F.F ....|--- .... ....
....|..|--- .... ....|--- .... ....|--- .... ....
....|..|--- .... ....|--- .... ....|--- .... ....
....|..|--- .... ....|R-- .... ....|--- .... ....
....|..|--- .... ....|E-5 3F.F ....|--- .... ....
....|..|--- .... ....|--- .... ....|--- .... ....
....|..|--- .... ....|--- .... ....|--- .... ....
....|..|--- .... ....|R-- .... ....|--- .... ....
....|..|--- .... ....|C#5 3F.F ....|--- .... ....
....|..|--- .... ....|--- .... ....|--- .... ....
....|..|--- .... ....|--- .... ....|--- .... ....
....|..|--- .... ....|R-- .... ....|--- .... ....
....|..|--- .... ....|E-5 3F.F ....|--- .... ....
....|..|--- .... ....|E-5 3F.F ....|--- .... ....
....|..|--- .... ....|--- .... ....|--- .... ....
....|..|--- .... ....|R-- .... ....|--- .... ....
....|..|--- .... ....|D#5 3F.F ....|--- .... ....
....|..|--- .... ....|--- .... ....|--- .... ....
....|..|--- .... ....|--- .... ....|--- .... ....
....|..|--- .... ....|R-- .... ....|--- .... ....

[Pattern26]
....|..|--- .... ....|E-5 3F.F ....|--- .... ....
....|..|--- .... ....|--- .... ....|--- .... ....
....|..|--- .... ....|--- .... ....|--- .... ....
....|..|--- .... ....|R-- .... ....|--- .... ....
....|..|--- .... ....|C#5 3F.F ....|--- .... ....
....|..|--- .... ....|E-5 3F.A ....|--- .... ....
....|..|--- .... ....|--- .... ....|--- .... ....
....|..|--- .... ....|R-- .... ....|--- .... ....
....|..|--- .... ....|E-5 3F.F ....|--- .... ....
....|..|--- .... ....|E-5 3F.F ....|--- .... ....
....|..|--- .... ....|--- .... ....|--- .... ....
....|..|--- .... ....|R-- .... ....|--- .... ....
....|..|--- .... ....|D#5 3F.F ....|--- .... ....
....|..|--- .... ....|--- .... ....|--- .... ....
....|..|--- .... ....|--- .... ....|--- .... ....
....|..|--- .... ....|--- .... ....|--- .... ....
....|..|--- .... ....|E-5 3F.F ....|--- .... ....
....|..|--- .... ....|E-5 3F.7 ....|--- .... ....
....|..|--- .... ....|--- .... ....|--- .... ....
....|..|--- .... ....|--- .... ....|--- .... ....
....|..|--- .... ....|E-5 3F.F ....|--- .... ....
....|..|--- .... ....|C#5 3F.F ....|--- .... ....
....|..|--- .... ....|--- .... ....|--- .... ....
....|..|--- .... ....|R-- .... ....|--- .... ....
....|..|--- .... ....|E-5 3F.7 ....|--- .... ....
....|..|--- .... ....|--- .... ....|--- .... ....
....|..|--- .... ....|--- .... ....|--- .... ....
....|..|--- .... ....|--- .... ....|--- .... ....
....|..|--- .... ....|D#5 3F.F ....|--- .... ....
....|..|--- .... ....|--- .... ....|--- .... ....
....|..|--- .... ....|--- .... ....|--- .... ....
....|..|--- .... ....|R-- .... ....|--- .... ....
....|..|--- .... ....|E-5 3F.F ....|--- .... ....
....|..|--- .... ....|E-5 3F.7 ....|--- .... ....
....|..|--- .... ....|--- .... ....|--- .... ....
....|..|--- .... ....|R-- .... ....|--- .... ....
....|..|--- .... ....|D#5 3F.7 ....|--- .... ....
....|..|--- .... ....|--- .... ....|--- .... ....
....|..|--- .... ....|--- .... ....|--- .... ....
....|..|--- .... ....|--- .... ....|--- .... ....
....|..|--- .... ....|E-5 3F.F ....|--- .... ....
....|..|--- .... ....|--- .... ....|--- .... ....
....|..|--- .... ....|--- .... ....|--- .... ....
....|..|--- .... ....|R-- .... ....|--- .... ....
....|..|--- .... ....|D#5 3F.F ....|--- .... ....
....|..|--- .... ....|C#5 3F.7 ....|--- .... ....
....|..|--- .... ....|--- .... ....|--- .... ....
....|..|--- .... ....|R-- .... ....|--- .... ....
....|..|--- .... ....|E-5 3F.F ....|--- .... ....
....|..|--- .... ....|--- .... ....|--- .... ....
....|..|--- .... ....|--- .... ....|--- .... ....
....|..|--- .... ....|R-- .... ....|--- .... ....
....|..|--- .... ....|F#5 3F.F ....|--- .... ....
....|..|--- .... ....|--- .... ....|--- .... ....
....|..|--- .... ....|--- .... ....|--- .... ....
....|..|--- .... ....|R-- .... ....|--- .... ....
....|..|--- .... ....|E-5 3F.7 ....|--- .... ....
....|..|--- .... ....|--- .... ....|--- .... ....
....|..|--- .... ....|--- .... ....|--- .... ....
....|..|--- .... ....|R-- .... ....|--- .... ....
....|..|--- .... ....|D#5 3F.F ....|--- .... ....
....|..|--- .... ....|--- .... ....|--- .... ....
....|..|--- .... ....|--- .... ....|--- .... ....
....|..|--- .... ....|R-- .... ....|--- .... ....
....|..|--- .... ....|E-5 3F.F ....|--- .... ....
....|..|--- .... ....|--- .... ....|--- .... ....
....|..|--- .... ....|--- .... ....|--- .... ....
....|..|--- .... ....|--- .... ....|--- .... ....
....|..|--- .... ....|D#5 3F.7 ....|--- .... ....
....|..|--- .... ....|--- .... ....|--- .... ....
....|..|--- .... ....|--- .... ....|--- .... ....
....|..|--- .... ....|R-- .... ....|--- .... ....
....|..|--- .... ....|E-5 3F.F ....|--- .... ....
....|..|--- .... ....|--- .... ....|--- .... ....
....|..|--- .... ....|--- .... ....|--- .... ....
....|..|--- .... ....|R-- .... ....|--- .... ....
....|..|--- .... ....|D#5 3F.F ....|--- .... ....
....|..|--- .... ....|--- .... ....|--- .... ....
....|..|--- .... ....|--- .... ....|--- .... ....
....|..|--- .... ....|R-- .... ....|--- .... ....
....|..|--- .... ....|E-5 3F.F ....|--- .... ....
....|..|--- .... ....|--- .... ....|--- .... ....
....|..|--- .... ....|--- .... ....|--- .... ....
....|..|--- .... ....|R-- .... ....|--- .... ....
....|..|--- .... ....|F#5 3F.F ....|--- .... ....
....|..|--- .... ....|--- .... ....|--- .... ....
....|..|--- .... ....|--- .... ....|--- .... ....
....|..|--- .... ....|R-- .... ....|--- .... ....
....|..|--- .... ....|E-5 3F.7 ....|--- .... ....
....|..|--- .... ....|--- .... ....|--- .... ....
....|..|--- .... ....|--- .... ....|--- .... ....
....|..|--- .... ....|R-- .... ....|--- .... ....
....|..|--- .... ....|E-5 3F.A ....|--- .... ....
....|..|--- .... ....|--- .... ....|--- .... ....
....|..|--- .... ....|--- .... ....|--- .... ....
....|..|--- .... ....|R-- .... ....|--- .... ....
 A-3|..|A-3 UF1F ....|A-4 3F.F ....|A-1 2A.F ....
....|..|--- .... ....|--- .... ....|--- .... ....
....|..|--- .... ....|--- .... ....|--- .... ....
....|..|--- .... ....|--- .... ....|R-- .... ....
 A-3|..|--- .... ....|D#5 3F.7 ....|A-1 2A.F ....
....|..|--- .... ....|--- .... ....|R-- .... ....
 A-3|..|--- .... ....|--- .... ....|A-1 2A.F ....
....|..|--- .... ....|R-- .... ....|R-- .... ....
 A-3|..|--- .... ....|A-4 3F.F ....|A-1 2A.F ....
....|..|--- .... ....|--- .... ....|--- .... ....
....|..|--- .... ....|--- .... ....|--- .... ....
....|..|--- .... ....|R-- .... ....|R-- .... ....
 A-3|..|A-3 UF1A ....|G#4 3F.F ....|A-1 2A.F ....
....|..|--- .... ....|--- .... ....|--- .... ....
 A-3|..|--- .... ....|--- .... ....|A-1 2A.F ....
....|..|--- .... ....|--- .... ....|R-- .... ....
....|..|--- .... ....|A-4 3F.F ....|A-1 2F.A ....
....|..|--- .... ....|--- .... ....|R-- .... ....
 A-3|..|--- .... ....|--- .... ....|A-1 2A.F ....
....|..|--- .... ....|--- .... ....|R-- .... ....
 A-3|..|--- .... ....|F#4 3F.F ....|A-1 2A.F ....
....|..|--- .... ....|--- .... ....|R-- .... ....
 A-3|..|--- .... ....|--- .... ....|A-1 2A.F ....
....|..|--- .... ....|R-- .... ....|R-- .... ....
 A-3|..|A-3 UF17 ....|A-4 3F.7 ....|A-1 2A.F ....
....|..|--- .... ....|--- .... ....|--- .... ....
....|..|--- .... ....|--- .... ....|A-1 2F.A ....
....|..|--- .... ....|--- .... ....|R-- .... ....
 A-3|..|--- .... ....|A-4 3F.A ....|A-1 2A.F ....
....|..|--- .... ....|--- .... ....|R-- .... ....
....|..|--- .... ....|--- .... ....|A-1 2F.7 ....
....|..|--- .... ....|--- .... ....|R-- .... ....

[Pattern27]
 G#3|..|G#3 UFBF ....|A-4 3F.F ....|G#1 2A.F ....
....|..|--- .... ....|--- .... ....|R-- .... ....
....|..|--- .... ....|--- .... ....|A-1 2F.A ....
....|..|--- .... ....|--- .... ....|R-- .... ....
 G#3|..|--- .... ....|G#4 3F.7 ....|G#1 2A.F ....
....|..|--- .... ....|--- .... ....|R-- .... ....
 G#3|..|--- .... ....|R-- .... ....|G#1 2A.F ....
....|..|--- .... ....|--- .... ....|R-- .... ....
 G#3|..|--- .... ....|A-4 3F.F ....|G#1 2A.F ....
....|..|--- .... ....|--- .... ....|--- .... ....
....|..|--- .... ....|R-- .... ....|A-1 2F.7 ....
....|..|--- .... ....|--- .... ....|R-- .... ....
 G#3|..|G#3 UFBA ....|G#4 3F.F ....|G#1 2A.F ....
....|..|--- .... ....|--- .... ....|R-- .... ....
 G#3|..|--- .... ....|--- .... ....|G#1 2A.F ....
....|..|--- .... ....|R-- .... ....|R-- .... ....
....|..|--- .... ....|A-4 3F.F ....|A-1 2F.7 ....
....|..|--- .... ....|--- .... ....|R-- .... ....
 G#3|..|--- .... ....|R-- .... ....|G#1 2A.F ....
....|..|--- .... ....|--- .... ....|R-- .... ....
 G#3|..|--- .... ....|D#5 3F.F ....|G#1 2A.F ....
....|..|--- .... ....|--- .... ....|R-- .... ....
 G#3|..|--- .... ....|R-- .... ....|G#1 2A.F ....
....|..|--- .... ....|--- .... ....|R-- .... ....
 G#3|..|G#3 UFB7 ....|A-4 3F.7 ....|G#1 2A.F ....
....|..|--- .... ....|--- .... ....|--- .... ....
....|..|--- .... ....|--- .... ....|G#1 2F.A ....
....|..|--- .... ....|R-- .... ....|R-- .... ....
 E-4|..|--- .... ....|D#5 3F.F ....|E-2 2A.F ....
....|..|--- .... ....|--- .... ....|R-- .... ....
....|..|--- .... ....|R-- .... ....|G#1 2F.7 ....
....|..|--- .... ....|--- .... ....|R-- .... ....
 C#4|..|E-4 UF5F ....|E-5 3F.F ....|C#2 2A.F ....
....|..|--- .... ....|--- .... ....|R-- .... ....
....|..|--- .... ....|R-- .... ....|G#1 2F.A ....
....|..|--- .... ....|--- .... ....|R-- .... ....
 C#4|..|--- .... ....|G#4 3F.7 ....|C#2 2A.F ....
....|..|--- .... ....|R-- .... ....|R-- .... ....
 C#4|..|--- .... ....|--- .... ....|C#2 2A.F ....
....|..|--- .... ....|R-- .... ....|R-- .... ....
 C#4|..|--- .... ....|E-5 3F.F ....|C#2 2A.F ....
....|..|--- .... ....|--- .... ....|--- .... ....
....|..|--- .... ....|R-- .... ....|G#1 2F.7 ....
....|..|--- .... ....|R-- .... ....|R-- .... ....
 C#4|..|E-4 UF5A ....|D#5 3F.F ....|C#2 2A.F ....
....|..|--- .... ....|--- .... ....|R-- .... ....
 C#4|..|--- .... ....|--- .... ....|C#2 2A.F ....
....|..|--- .... ....|R-- .... ....|R-- .... ....
....|..|--- .... ....|E-5 3F.F ....|G#1 2F.7 ....
....|..|--- .... ....|R-- .... ....|R-- .... ....
 C#4|..|--- .... ....|--- .... ....|C#2 2A.F ....
....|..|--- .... ....|R-- .... ....|R-- .... ....
 C#4|..|--- .... ....|C#5 3F.F ....|C#2 2A.F ....
....|..|--- .... ....|--- .... ....|R-- .... ....
 C#4|..|--- .... ....|--- .... ....|C#2 2A.F ....
....|..|--- .... ....|R-- .... ....|R-- .... ....
 C#4|..|E-4 UF57 ....|E-5 3F.7 ....|C#2 2A.F ....
....|..|--- .... ....|--- .... ....|--- .... ....
....|..|--- .... ....|R-- .... ....|C#2 2F.A ....
....|..|--- .... ....|R-- .... ....|R-- .... ....
 B-3|..|--- .... ....|D#5 3F.F ....|B-1 2A.F ....
....|..|--- .... ....|R-- .... ....|R-- .... ....
....|..|--- .... ....|--- .... ....|C#2 2F.7 ....
....|..|--- .... ....|--- .... ....|R-- .... ....
 E-4|..|C#4 UFCF ....|E-5 3F.F ....|E-2 2A.F ....
....|..|--- .... ....|--- .... ....|R-- .... ....
....|..|--- .... ....|--- .... ....|C#2 2F.A ....
....|..|--- .... ....|R-- .... ....|R-- .... ....
 E-4|..|--- .... ....|D#5 3F.7 ....|E-2 2A.F ....
....|..|--- .... ....|R-- .... ....|R-- .... ....
 E-4|..|--- .... ....|R-- .... ....|E-2 2A.F ....
....|..|--- .... ....|R-- .... ....|R-- .... ....
 E-4|..|--- .... ....|E-5 3F.F ....|E-2 2A.F ....
....|..|--- .... ....|--- .... ....|--- .... ....
....|..|--- .... ....|--- .... ....|C#2 2F.7 ....
....|..|--- .... ....|R-- .... ....|R-- .... ....
 E-4|..|C#4 UFCA ....|D#5 3F.F ....|E-2 2A.F ....
....|..|--- .... ....|--- .... ....|R-- .... ....
 E-4|..|--- .... ....|--- .... ....|E-2 2A.F ....
....|..|--- .... ....|R-- .... ....|R-- .... ....
....|..|--- .... ....|E-5 3F.F ....|C#2 2F.7 ....
....|..|--- .... ....|R-- .... ....|R-- .... ....
 E-4|..|--- .... ....|R-- .... ....|E-2 2A.F ....
....|..|--- .... ....|--- .... ....|R-- .... ....
 E-4|..|--- .... ....|C#5 3F.F ....|E-2 2A.F ....
....|..|--- .... ....|--- .... ....|R-- .... ....
 E-4|..|--- .... ....|--- .... ....|E-2 2A.F ....
....|..|--- .... ....|R-- .... ....|R-- .... ....
 E-4|..|C#4 UFC7 ....|E-5 3F.7 ....|E-2 2A.F ....
....|..|--- .... ....|--- .... ....|--- .... ....
....|..|--- .... ....|R-- .... ....|E-2 2F.A ....
....|..|--- .... ....|R-- .... ....|R-- .... ....
 E-4|..|--- .... ....|E-5 3F.A ....|E-2 2A.F ....
....|..|--- .... ....|R-- .... ....|R-- .... ....
....|..|--- .... ....|--- .... ....|E-2 2F.7 ....
....|..|--- .... ....|--- .... ....|R-- .... ....
 A-3|..|A-3 UF1F ....|A-4 3F.F ....|A-1 2A.F ....
....|..|--- .... ....|--- .... ....|R-- .... ....
....|..|--- .... ....|--- .... ....|E-2 2F.A ....
....|..|--- .... ....|R-- .... ....|R-- .... ....
 A-3|..|--- .... ....|D#5 3F.7 ....|A-1 2A.F ....
....|..|--- .... ....|--- .... ....|R-- .... ....
 A-3|..|--- .... ....|R-- .... ....|A-1 2A.F ....
....|..|--- .... ....|R-- .... ....|R-- .... ....
 A-3|..|--- .... ....|A-4 3F.F ....|A-1 2A.F ....
....|..|--- .... ....|--- .... ....|--- .... ....
....|..|--- .... ....|--- .... ....|E-2 2F.7 ....
....|..|--- .... ....|--- .... ....|R-- .... ....
 A-3|..|A-3 UF1A ....|G#4 3F.F ....|A-1 2A.F ....
....|..|--- .... ....|--- .... ....|R-- .... ....
 A-3|..|--- .... ....|--- .... ....|A-1 2A.F ....
....|..|--- .... ....|--- .... ....|R-- .... ....
....|..|--- .... ....|A-4 3F.F ....|E-2 2F.7 ....
....|..|--- .... ....|--- .... ....|R-- .... ....
 A-3|..|--- .... ....|R-- .... ....|A-1 2A.F ....
....|..|--- .... ....|--- .... ....|R-- .... ....
 A-3|..|--- .... ....|F#4 3F.F ....|A-1 2A.F ....
....|..|--- .... ....|--- .... ....|R-- .... ....
 A-3|..|--- .... ....|--- .... ....|A-1 2A.F ....
....|..|--- .... ....|--- .... ....|R-- .... ....
 A-3|..|A-3 UF17 ....|A-4 3F.7 ....|A-1 2A.F ....
....|..|--- .... ....|--- .... ....|--- .... ....
....|..|--- .... ....|--- .... ....|A-1 2F.A ....
....|..|--- .... ....|--- .... ....|R-- .... ....
 A-3|..|--- .... ....|A-4 3F.A ....|A-1 2A.F ....
....|..|--- .... ....|--- .... ....|R-- .... ....
....|..|--- .... ....|--- .... ....|A-1 2F.7 ....
....|..|--- .... ....|--- .... ....|R-- .... ....

[Pattern28]
 G#3|..|G#3 UFBF ....|A-4 3F.F ....|G#1 2A.F ....
....|..|--- .... ....|--- .... ....|R-- .... ....
....|..|--- .... ....|--- .... ....|A-1 2F.A ....
....|..|--- .... ....|--- .... ....|R-- .... ....
 G#3|..|--- .... ....|G#4 3F.7 ....|G#1 2A.F ....
....|..|--- .... ....|--- .... ....|R-- .... ....
 G#3|..|--- .... ....|R-- .... ....|G#1 2A.F ....
....|..|--- .... ....|--- .... ....|R-- .... ....
 G#3|..|--- .... ....|A-4 3F.F ....|G#1 2A.F ....
....|..|--- .... ....|--- .... ....|--- .... ....
....|..|--- .... ....|R-- .... ....|A-1 2F.7 ....
....|..|--- .... ....|--- .... ....|R-- .... ....
 G#3|..|G#3 UFBA ....|G#4 3F.F ....|G#1 2A.F ....
....|..|--- .... ....|--- .... ....|R-- .... ....
 G#3|..|--- .... ....|--- .... ....|G#1 2A.F ....
....|..|--- .... ....|R-- .... ....|R-- .... ....
....|..|--- .... ....|A-4 3F.F ....|A-1 2F.7 ....
....|..|--- .... ....|--- .... ....|R-- .... ....
 G#3|..|--- .... ....|R-- .... ....|G#1 2A.F ....
....|..|--- .... ....|--- .... ....|R-- .... ....
 G#3|..|--- .... ....|D#5 3F.F ....|G#1 2A.F ....
....|..|--- .... ....|--- .... ....|R-- .... ....
 G#3|..|--- .... ....|R-- .... ....|G#1 2A.F ....
....|..|--- .... ....|--- .... ....|R-- .... ....
 G#3|..|G#3 UFB7 ....|A-4 3F.7 ....|G#1 2A.F ....
....|..|--- .... ....|--- .... ....|--- .... ....
....|..|--- .... ....|--- .... ....|G#1 2F.A ....
....|..|--- .... ....|R-- .... ....|R-- .... ....
 E-4|..|--- .... ....|D#5 3F.F ....|E-2 2A.F ....
....|..|--- .... ....|--- .... ....|R-- .... ....
....|..|--- .... ....|R-- .... ....|G#1 2F.7 ....
....|..|--- .... ....|--- .... ....|R-- .... ....
 C#4|..|E-4 UF5F ....|E-5 3F.F ....|C#2 2A.F ....
....|..|--- .... ....|--- .... ....|R-- .... ....
....|..|--- .... ....|R-- .... ....|G#1 2F.A ....
....|..|--- .... ....|--- .... ....|R-- .... ....
 C#4|..|--- .... ....|G#4 3F.7 ....|C#2 2A.F ....
....|..|--- .... ....|R-- .... ....|R-- .... ....
 C#4|..|--- .... ....|--- .... ....|C#2 2A.F ....
....|..|--- .... ....|R-- .... ....|R-- .... ....
 C#4|..|--- .... ....|E-5 3F.F ....|C#2 2A.F ....
....|..|--- .... ....|--- .... ....|--- .... ....
....|..|--- .... ....|R-- .... ....|G#1 2F.7 ....
....|..|--- .... ....|R-- .... ....|R-- .... ....
 C#4|..|E-4 UF5A ....|D#5 3F.F ....|C#2 2A.F ....
....|..|--- .... ....|--- .... ....|R-- .... ....
 C#4|..|--- .... ....|--- .... ....|C#2 2A.F ....
....|..|--- .... ....|R-- .... ....|R-- .... ....
....|..|--- .... ....|E-5 3F.F ....|G#1 2F.7 ....
....|..|--- .... ....|R-- .... ....|R-- .... ....
 C#4|..|--- .... ....|--- .... ....|C#2 2A.F ....
....|..|--- .... ....|R-- .... ....|R-- .... ....
 C#4|..|--- .... ....|C#5 3F.F ....|C#2 2A.F ....
....|..|--- .... ....|--- .... ....|R-- .... ....
 C#4|..|--- .... ....|--- .... ....|C#2 2A.F ....
....|..|--- .... ....|R-- .... ....|R-- .... ....
 C#4|..|E-4 UF57 ....|E-5 3F.7 ....|C#2 2A.F ....
....|..|--- .... ....|--- .... ....|--- .... ....
....|..|--- .... ....|R-- .... ....|C#2 2F.A ....
....|..|--- .... ....|R-- .... ....|R-- .... ....
 B-3|..|--- .... ....|D#5 3F.F ....|B-1 2A.F ....
....|..|--- .... ....|R-- .... ....|R-- .... ....
....|..|--- .... ....|--- .... ....|C#2 2F.7 ....
....|..|--- .... ....|--- .... ....|R-- .... ....
 E-4|..|R-- .... ....|E-5 3F.F ....|E-2 2A.F ....
....|..|--- .... ....|--- .... ....|R-- .... ....
....|..|--- .... ....|--- .... ....|C#2 2F.A ....
....|..|--- .... ....|R-- .... ....|R-- .... ....
 E-4|..|--- .... ....|D#5 3F.7 ....|E-2 2A.F ....
....|..|--- .... ....|R-- .... ....|R-- .... ....
 E-4|..|--- .... ....|R-- .... ....|E-2 2A.F ....
....|..|--- .... ....|R-- .... ....|R-- .... ....
 E-4|..|--- .... ....|E-5 3F.F ....|E-2 2A.F ....
....|..|--- .... ....|--- .... ....|--- .... ....
....|..|--- .... ....|--- .... ....|C#2 2F.7 ....
....|..|--- .... ....|R-- .... ....|R-- .... ....
 E-4|..|R-- .... ....|D#5 3F.F ....|E-2 2A.F ....
....|..|--- .... ....|--- .... ....|R-- .... ....
 E-4|..|--- .... ....|--- .... ....|E-2 2A.F ....
....|..|--- .... ....|R-- .... ....|R-- .... ....
....|..|--- .... ....|E-5 3F.F ....|C#2 2F.7 ....
....|..|--- .... ....|R-- .... ....|R-- .... ....
 E-4|..|--- .... ....|R-- .... ....|E-2 2A.F ....
....|..|--- .... ....|--- .... ....|R-- .... ....
 E-4|..|--- .... ....|C#5 3F.F ....|E-2 2A.F ....
....|..|--- .... ....|--- .... ....|R-- .... ....
 E-4|..|--- .... ....|--- .... ....|E-2 2A.F ....
....|..|--- .... ....|R-- .... ....|R-- .... ....
 E-4|..|R-- .... ....|E-5 3F.7 ....|E-2 2A.F ....
....|..|--- .... ....|--- .... ....|--- .... ....
....|..|--- .... ....|R-- .... ....|E-2 2F.A ....
....|..|--- .... ....|R-- .... ....|R-- .... ....
 E-4|..|--- .... ....|D#5 3F.F ....|E-2 2A.F ....
....|..|--- .... ....|R-- .... ....|R-- .... ....
....|..|--- .... ....|--- .... ....|E-2 2F.7 ....
....|..|--- .... ....|R-- .... ....|R-- .... ....
 A-3|..|A-3 UF1F ....|E-5 3F.F ....|A-1 2A.F ....
....|..|--- .... ....|--- .... ....|R-- .... ....
....|..|--- .... ....|--- .... ....|E-2 2F.A ....
....|..|--- .... ....|R-- .... ....|R-- .... ....
 A-3|..|--- .... ....|D#5 3F.7 ....|A-1 2A.F ....
....|..|--- .... ....|--- .... ....|R-- .... ....
 A-3|..|--- .... ....|R-- .... ....|A-1 2A.F ....
....|..|--- .... ....|R-- .... ....|R-- .... ....
 A-3|..|--- .... ....|E-5 3F.F ....|A-1 2A.F ....
....|..|--- .... ....|--- .... ....|--- .... ....
....|..|--- .... ....|--- .... ....|E-2 2F.7 ....
....|..|--- .... ....|R-- .... ....|R-- .... ....
 A-3|..|A-3 UF1A ....|D#5 3F.F ....|A-1 2A.F ....
....|..|--- .... ....|--- .... ....|R-- .... ....
 A-3|..|--- .... ....|--- .... ....|A-1 2A.F ....
....|..|--- .... ....|R-- .... ....|R-- .... ....
....|..|--- .... ....|E-5 3F.F ....|E-2 2F.7 ....
....|..|--- .... ....|--- .... ....|R-- .... ....
 A-3|..|--- .... ....|R-- .... ....|A-1 2A.F ....
....|..|--- .... ....|--- .... ....|R-- .... ....
 A-3|..|--- .... ....|F#5 3F.F ....|A-1 2A.F ....
....|..|--- .... ....|--- .... ....|R-- .... ....
 A-3|..|--- .... ....|--- .... ....|A-1 2A.F ....
....|..|--- .... ....|R-- .... ....|R-- .... ....
 A-3|..|A-3 UF17 ....|E-5 3F.7 ....|A-1 2A.F ....
....|..|--- .... ....|--- .... ....|--- .... ....
....|..|--- .... ....|--- .... ....|A-1 2F.A ....
....|..|--- .... ....|--- .... ....|R-- .... ....
 A-3|..|--- .... ....|E-5 3F.A ....|A-1 2A.F ....
....|..|--- .... ....|--- .... ....|R-- .... ....
....|..|--- .... ....|--- .... ....|A-1 2F.7 ....
....|..|--- .... ....|--- .... ....|R-- .... ....

[Pattern29]
 G#3|..|G#3 UFBF ....|F#5 3F.F ....|G#1 2A.F ....
....|..|--- .... ....|--- .... ....|R-- .... ....
....|..|--- .... ....|--- .... ....|A-1 2F.A ....
....|..|--- .... ....|R-- .... ....|R-- .... ....
 G#3|..|--- .... ....|F#5 3F.F ....|G#1 2A.F ....
....|..|--- .... ....|--- .... ....|R-- .... ....
 G#3|..|--- .... ....|--- .... ....|G#1 2A.F ....
....|..|--- .... ....|--- .... ....|R-- .... ....
 G#3|..|--- .... ....|F#5 3F.F ....|G#1 2A.F ....
....|..|--- .... ....|--- .... ....|--- .... ....
....|..|--- .... ....|--- .... ....|A-1 2F.7 ....
....|..|--- .... ....|--- .... ....|R-- .... ....
 G#3|..|G#3 UFBA ....|F#5 3F.F ....|G#1 2A.F ....
....|..|--- .... ....|--- .... ....|R-- .... ....
 G#3|..|--- .... ....|--- .... ....|G#1 2A.F ....
....|..|--- .... ....|--- .... ....|R-- .... ....
....|..|--- .... ....|F#5 3F.F ....|A-1 2F.7 ....
....|..|--- .... ....|--- .... ....|R-- .... ....
 G#3|..|--- .... ....|--- .... ....|G#1 2A.F ....
....|..|--- .... ....|--- .... ....|R-- .... ....
 G#3|..|--- .... ....|F#5 3F.F ....|G#1 2A.F ....
....|..|--- .... ....|--- .... ....|R-- .... ....
 G#3|..|--- .... ....|--- .... ....|G#1 2A.F ....
....|..|--- .... ....|--- .... ....|R-- .... ....
 G#3|..|G#3 UFB7 ....|F#5 3F.7 ....|G#1 2A.F ....
....|..|--- .... ....|--- .... ....|--- .... ....
....|..|--- .... ....|--- .... ....|G#1 2F.A ....
....|..|--- .... ....|--- .... ....|R-- .... ....
 E-4|..|--- .... ....|D#5 3F.F ....|E-2 2A.F ....
....|..|--- .... ....|--- .... ....|R-- .... ....
....|..|--- .... ....|--- .... ....|G#1 2F.7 ....
....|..|--- .... ....|--- .... ....|R-- .... ....
 C#4|..|E-4 UF5F ....|E-5 3F.F ....|C#2 2A.F ....
....|..|--- .... ....|--- .... ....|R-- .... ....
....|..|--- .... ....|--- .... ....|G#1 2F.A ....
....|..|--- .... ....|--- .... ....|R-- .... ....
 C#4|..|--- .... ....|F#5 3F.7 ....|C#2 2A.F ....
....|..|--- .... ....|--- .... ....|R-- .... ....
 C#4|..|--- .... ....|--- .... ....|C#2 2A.F ....
....|..|--- .... ....|--- .... ....|R-- .... ....
 C#4|..|--- .... ....|E-5 3F.F ....|C#2 2A.F ....
....|..|--- .... ....|--- .... ....|--- .... ....
....|..|--- .... ....|--- .... ....|G#1 2F.7 ....
....|..|--- .... ....|R-- .... ....|R-- .... ....
 C#4|..|E-4 UF5A ....|D#5 3F.F ....|C#2 2A.F ....
....|..|--- .... ....|--- .... ....|R-- .... ....
 C#4|..|--- .... ....|--- .... ....|C#2 2A.F ....
....|..|--- .... ....|--- .... ....|R-- .... ....
....|..|--- .... ....|E-5 3F.F ....|G#1 2F.7 ....
....|..|--- .... ....|--- .... ....|R-- .... ....
 C#4|..|--- .... ....|--- .... ....|C#2 2A.F ....
....|..|--- .... ....|--- .... ....|R-- .... ....
 C#4|..|--- .... ....|C#5 3F.F ....|C#2 2A.F ....
....|..|--- .... ....|--- .... ....|R-- .... ....
 C#4|..|--- .... ....|--- .... ....|C#2 2A.F ....
....|..|--- .... ....|R-- .... ....|R-- .... ....
 C#4|..|E-4 UF57 ....|E-5 3F.F ....|C#2 2A.F ....
....|..|--- .... ....|--- .... ....|--- .... ....
....|..|--- .... ....|--- .... ....|C#2 2F.A ....
....|..|--- .... ....|--- .... ....|R-- .... ....
 B-3|..|--- .... ....|D#5 3F.F ....|B-1 2A.F ....
....|..|--- .... ....|--- .... ....|R-- .... ....
....|..|--- .... ....|--- .... ....|C#2 2F.7 ....
....|..|--- .... ....|--- .... ....|R-- .... ....
 E-4|..|C#4 UFCF ....|E-5 3F.F ....|E-2 2A.F ....
....|..|--- .... ....|--- .... ....|R-- .... ....
....|..|--- .... ....|--- .... ....|C#2 2F.A ....
....|..|--- .... ....|R-- .... ....|R-- .... ....
 E-4|..|--- .... ....|C#5 3F.F ....|E-2 2A.F ....
....|..|--- .... ....|--- .... ....|R-- .... ....
 E-4|..|--- .... ....|--- .... ....|E-2 2A.F ....
....|..|--- .... ....|C#5 3F.F ....|R-- .... ....
 E-4|..|--- .... ....|E-5 3F.7 ....|E-2 2A.F ....
....|..|--- .... ....|--- .... ....|--- .... ....
....|..|--- .... ....|--- .... ....|C#2 2F.7 ....
....|..|--- .... ....|--- .... ....|R-- .... ....
 E-4|..|C#4 UFCA ....|C#5 3F.7 ....|E-2 2A.F ....
....|..|--- .... ....|--- .... ....|R-- .... ....
 E-4|..|--- .... ....|--- .... ....|E-2 2A.F ....
....|..|--- .... ....|--- .... ....|R-- .... ....
....|..|--- .... ....|E-5 3F.7 ....|C#2 2F.7 ....
....|..|--- .... ....|--- .... ....|R-- .... ....
 E-4|..|--- .... ....|--- .... ....|E-2 2A.F ....
....|..|--- .... ....|C#5 3F.A ....|R-- .... ....
 E-4|..|--- .... ....|D#5 3F.7 ....|E-2 2A.F ....
....|..|--- .... ....|--- .... ....|R-- .... ....
 E-4|..|--- .... ....|--- .... ....|E-2 2A.F ....
....|..|--- .... ....|--- .... ....|R-- .... ....
 E-4|..|C#4 UFC7 ....|E-5 3F.7 ....|E-2 2A.F ....
....|..|--- .... ....|--- .... ....|--- .... ....
....|..|--- .... ....|--- .... ....|E-2 2F.A ....
....|..|--- .... ....|--- .... ....|R-- .... ....
 E-4|..|--- .... ....|D#5 3F.F ....|E-2 2A.F ....
....|..|--- .... ....|--- .... ....|R-- .... ....
....|..|--- .... ....|--- .... ....|E-2 2F.7 ....
....|..|--- .... ....|C#5 3F.7 ....|R-- .... ....
 A-3|..|A-3 UF1F ....|E-5 3F.F ....|A-1 2A.F ....
....|..|--- .... ....|--- .... ....|R-- .... ....
....|..|--- .... ....|--- .... ....|E-2 2F.A ....
....|..|--- .... ....|--- .... ....|R-- .... ....
 A-3|..|--- .... ....|R-- .... ....|A-1 2A.F ....
....|..|--- .... ....|--- .... ....|R-- .... ....
 A-3|..|--- .... ....|--- .... ....|A-1 2A.F ....
....|..|--- .... ....|--- .... ....|R-- .... ....
 A-3|..|--- .... ....|E-5 3F.F ....|A-1 2A.F ....
....|..|--- .... ....|--- .... ....|--- .... ....
....|..|--- .... ....|--- .... ....|E-2 2F.7 ....
....|..|--- .... ....|R-- .... ....|R-- .... ....
 A-3|..|A-3 UF1A ....|D#5 3F.F ....|A-1 2A.F ....
....|..|--- .... ....|--- .... ....|R-- .... ....
 A-3|..|--- .... ....|--- .... ....|A-1 2A.F ....
....|..|--- .... ....|--- .... ....|R-- .... ....
....|..|--- .... ....|E-5 3F.F ....|E-2 2F.7 ....
....|..|--- .... ....|--- .... ....|R-- .... ....
 A-3|..|--- .... ....|--- .... ....|A-1 2A.F ....
....|..|--- .... ....|--- .... ....|R-- .... ....
 A-3|..|--- .... ....|F#5 3F.F ....|A-1 2A.F ....
....|..|--- .... ....|--- .... ....|R-- .... ....
 A-3|..|--- .... ....|--- .... ....|A-1 2A.F ....
....|..|--- .... ....|R-- .... ....|R-- .... ....
 A-3|..|A-3 UF17 ....|E-5 3F.7 ....|A-1 2A.F ....
....|..|--- .... ....|--- .... ....|--- .... ....
....|..|--- .... ....|--- .... ....|A-1 2F.A ....
....|..|--- .... ....|--- .... ....|R-- .... ....
 A-3|..|--- .... ....|E-5 3F.A ....|A-1 2A.F ....
....|..|--- .... ....|--- .... ....|R-- .... ....
....|..|--- .... ....|--- .... ....|A-1 2F.7 ....
....|..|--- .... ....|--- .... ....|R-- .... ....

[Pattern30]
 G#3|..|G#3 UFBF ....|F#5 3F.F ....|G#1 2A.F ....
....|..|--- .... ....|--- .... ....|R-- .... ....
....|..|--- .... ....|--- .... ....|A-1 2F.A ....
....|..|--- .... ....|R-- .... ....|R-- .... ....
 G#3|..|--- .... ....|F#5 3F.F ....|G#1 2A.F ....
....|..|--- .... ....|--- .... ....|R-- .... ....
 G#3|..|--- .... ....|--- .... ....|G#1 2A.F ....
....|..|--- .... ....|--- .... ....|R-- .... ....
 G#3|..|--- .... ....|F#5 3F.F ....|G#1 2A.F ....
....|..|--- .... ....|--- .... ....|--- .... ....
....|..|--- .... ....|--- .... ....|A-1 2F.7 ....
....|..|--- .... ....|--- .... ....|R-- .... ....
 G#3|..|G#3 UFBA ....|F#5 3F.F ....|G#1 2A.F ....
....|..|--- .... ....|--- .... ....|R-- .... ....
 G#3|..|--- .... ....|--- .... ....|G#1 2A.F ....
....|..|--- .... ....|--- .... ....|R-- .... ....
....|..|--- .... ....|F#5 3F.F ....|A-1 2F.7 ....
....|..|--- .... ....|--- .... ....|R-- .... ....
 G#3|..|--- .... ....|--- .... ....|G#1 2A.F ....
....|..|--- .... ....|--- .... ....|R-- .... ....
 G#3|..|--- .... ....|F#5 3F.F ....|G#1 2A.F ....
....|..|--- .... ....|--- .... ....|R-- .... ....
 G#3|..|--- .... ....|--- .... ....|G#1 2A.F ....
....|..|--- .... ....|--- .... ....|R-- .... ....
 G#3|..|G#3 UFB7 ....|F#5 3F.7 ....|G#1 2A.F ....
....|..|--- .... ....|--- .... ....|--- .... ....
....|..|--- .... ....|--- .... ....|G#1 2F.A ....
....|..|--- .... ....|--- .... ....|R-- .... ....
 E-4|..|--- .... ....|D#5 3F.F ....|E-2 2A.F ....
....|..|--- .... ....|--- .... ....|R-- .... ....
....|..|--- .... ....|--- .... ....|G#1 2F.7 ....
....|..|--- .... ....|--- .... ....|R-- .... ....
 C#4|..|E-4 UF5F ....|E-5 3F.F ....|C#2 2A.F ....
....|..|--- .... ....|--- .... ....|R-- .... ....
....|..|--- .... ....|--- .... ....|G#1 2F.A ....
....|..|--- .... ....|--- .... ....|R-- .... ....
 C#4|..|--- .... ....|F#5 3F.7 ....|C#2 2A.F ....
....|..|--- .... ....|--- .... ....|R-- .... ....
 C#4|..|--- .... ....|--- .... ....|C#2 2A.F ....
....|..|--- .... ....|--- .... ....|R-- .... ....
 C#4|..|--- .... ....|E-5 3F.F ....|C#2 2A.F ....
....|..|--- .... ....|--- .... ....|--- .... ....
....|..|--- .... ....|--- .... ....|G#1 2F.7 ....
....|..|--- .... ....|R-- .... ....|R-- .... ....
 C#4|..|E-4 UF5A ....|D#5 3F.F ....|C#2 2A.F ....
....|..|--- .... ....|--- .... ....|R-- .... ....
 C#4|..|--- .... ....|--- .... ....|C#2 2A.F ....
....|..|--- .... ....|--- .... ....|R-- .... ....
....|..|--- .... ....|E-5 3F.F ....|G#1 2F.7 ....
....|..|--- .... ....|--- .... ....|R-- .... ....
 C#4|..|--- .... ....|--- .... ....|C#2 2A.F ....
....|..|--- .... ....|--- .... ....|R-- .... ....
 C#4|..|--- .... ....|C#5 3F.F ....|C#2 2A.F ....
....|..|--- .... ....|--- .... ....|R-- .... ....
 C#4|..|--- .... ....|--- .... ....|C#2 2A.F ....
....|..|--- .... ....|R-- .... ....|R-- .... ....
 C#4|..|E-4 UF57 ....|E-5 3F.F ....|C#2 2A.F ....
....|..|--- .... ....|--- .... ....|--- .... ....
....|..|--- .... ....|--- .... ....|C#2 2F.A ....
....|..|--- .... ....|--- .... ....|R-- .... ....
 B-3|..|--- .... ....|D#5 3F.F ....|B-1 2A.F ....
....|..|--- .... ....|--- .... ....|R-- .... ....
....|..|--- .... ....|--- .... ....|C#2 2F.7 ....
....|..|--- .... ....|--- .... ....|R-- .... ....
....|..|R-- .... ....|E-5 3F.F ....|C#2 2F.7 ....
....|..|--- .... ....|--- .... ....|R-- .... ....
....|..|--- .... ....|--- .... ....|C#2 2F.A ....
....|..|--- .... ....|R-- .... ....|R-- .... ....
....|..|--- .... ....|C#5 3F.F ....|C#2 2F.7 ....
....|..|--- .... ....|--- .... ....|--- .... ....
....|..|--- .... ....|--- .... ....|C#2 2F.7 ....
....|..|--- .... ....|C#5 3F.F ....|R-- .... ....
....|..|--- .... ....|E-5 3F.7 ....|B-1 2F.A ....
....|..|--- .... ....|--- .... ....|--- .... ....
....|..|--- .... ....|--- .... ....|C#2 2F.7 ....
....|..|--- .... ....|--- .... ....|R-- .... ....
....|..|R-- .... ....|C#5 3F.7 ....|C#2 2F.7 ....
....|..|--- .... ....|--- .... ....|R-- .... ....
....|..|--- .... ....|--- .... ....|C#2 2F.7 ....
....|..|--- .... ....|--- .... ....|--- .... ....
....|..|--- .... ....|E-5 3F.7 ....|C#2 2F.7 ....
....|..|--- .... ....|--- .... ....|--- .... ....
....|..|--- .... ....|--- .... ....|--- .... ....
....|..|--- .... ....|C#5 3F.A ....|R-- .... ....
....|..|--- .... ....|D#5 3F.7 ....|B-1 2F.7 ....
....|..|--- .... ....|--- .... ....|--- .... ....
....|..|--- .... ....|--- .... ....|--- .... ....
....|..|--- .... ....|--- .... ....|--- .... ....
....|..|R-- .... ....|E-5 3F.7 ....|R-- .... ....
....|..|--- .... ....|--- .... ....|--- .... ....
....|..|--- .... ....|--- .... ....|--- .... ....
....|..|--- .... ....|--- .... ....|--- .... ....
....|..|--- .... ....|D#5 3F.F ....|--- .... ....
....|..|--- .... ....|--- .... ....|--- .... ....
....|..|--- .... ....|--- .... ....|--- .... ....
....|..|--- .... ....|C#5 3F.7 ....|--- .... ....
....|..|--- .... ....|E-5 3F.F ....|--- .... ....
....|..|--- .... ....|--- .... ....|--- .... ....
....|..|--- .... ....|--- .... ....|--- .... ....
....|..|--- .... ....|--- .... ....|--- .... ....
....|..|--- .... ....|R-- .... ....|--- .... ....
....|..|--- .... ....|--- .... ....|--- .... ....
....|..|--- .... ....|--- .... ....|--- .... ....
....|..|--- .... ....|--- .... ....|--- .... ....
....|..|--- .... ....|E-5 3F.F ....|--- .... ....
....|..|--- .... ....|--- .... ....|--- .... ....
....|..|--- .... ....|--- .... ....|--- .... ....
....|..|--- .... ....|R-- .... ....|--- .... ....
....|..|--- .... ....|D#5 3F.F ....|--- .... ....
....|..|--- .... ....|--- .... ....|--- .... ....
....|..|--- .... ....|--- .... ....|--- .... ....
....|..|--- .... ....|--- .... ....|--- .... ....
....|..|--- .... ....|E-5 3F.F ....|--- .... ....
....|..|--- .... ....|--- .... ....|--- .... ....
....|..|--- .... ....|--- .... ....|--- .... ....
....|..|--- .... ....|--- .... ....|--- .... ....
....|..|--- .... ....|C#5 3F.F ....|--- .... ....
....|..|--- .... ....|--- .... ....|--- .... ....
....|..|--- .... ....|--- .... ....|--- .... ....
....|..|--- .... ....|R-- .... ....|--- .... ....
....|..|--- .... ....|E-5 3F.F ....|--- .... ....
....|..|--- .... ....|--- .... ....|--- .... ....
....|..|--- .... ....|--- .... ....|--- .... ....
....|..|--- .... ....|--- .... ....|--- .... ....
....|..|--- .... ....|D#5 3F.F ....|--- .... ....
....|..|--- .... ....|--- .... ....|--- .... ....
....|..|--- .... ....|--- .... ....|--- .... ....
....|..|--- .... ....|--- .... ....|--- .... ....

[Pattern31]
....|..|--- .... ....|E-5 3F.F ....|--- .... ....
....|..|--- .... ....|--- .... ....|--- .... ....
....|..|--- .... ....|--- .... ....|--- .... ....
....|..|--- .... ....|--- .... ....|--- .... ....
....|..|--- .... ....|C#5 3F.F ....|--- .... ....
....|..|--- .... ....|--- .... ....|--- .... ....
....|..|--- .... ....|--- .... ....|--- .... ....
....|..|--- .... ....|R-- .... ....|--- .... ....
....|..|--- .... ....|E-5 3F.F ....|--- .... ....
....|..|--- .... ....|--- .... ....|--- .... ....
....|..|--- .... ....|--- .... ....|--- .... ....
....|..|--- .... ....|--- .... ....|--- .... ....
....|..|--- .... ....|D#5 3F.F ....|--- .... ....
....|..|--- .... ....|--- .... ....|--- .... ....
....|..|--- .... ....|--- .... ....|--- .... ....
....|..|--- .... ....|--- .... ....|--- .... ....
....|..|--- .... ....|E-5 3F.F ....|--- .... ....
....|..|--- .... ....|--- .... ....|--- .... ....
....|..|--- .... ....|--- .... ....|--- .... ....
....|..|--- .... ....|R-- .... ....|--- .... ....
....|..|--- .... ....|C#5 3F.F ....|--- .... ....
....|..|--- .... ....|--- .... ....|--- .... ....
....|..|--- .... ....|--- .... ....|--- .... ....
....|..|--- .... ....|R-- .... ....|--- .... ....
....|..|--- .... ....|E-5 3F.7 ....|--- .... ....
....|..|--- .... ....|--- .... ....|--- .... ....
....|..|--- .... ....|--- .... ....|--- .... ....
....|..|--- .... ....|--- .... ....|--- .... ....
....|..|--- .... ....|C#5 3F.7 ....|--- .... ....
....|..|--- .... ....|--- .... ....|--- .... ....
....|..|--- .... ....|--- .... ....|--- .... ....
....|..|--- .... ....|R-- .... ....|--- .... ....
....|..|--- .... ....|E-5 3F.7 ....|--- .... ....
....|..|--- .... ....|--- .... ....|--- .... ....
....|..|--- .... ....|--- .... ....|--- .... ....
....|..|--- .... ....|R-- .... ....|--- .... ....
....|..|--- .... ....|D#5 3F.7 ....|--- .... ....
....|..|--- .... ....|--- .... ....|--- .... ....
....|..|--- .... ....|--- .... ....|--- .... ....
....|..|--- .... ....|--- .... ....|--- .... ....
....|..|--- .... ....|E-5 3F.7 ....|--- .... ....
....|..|--- .... ....|--- .... ....|--- .... ....
....|..|--- .... ....|--- .... ....|--- .... ....
....|..|--- .... ....|--- .... ....|--- .... ....
....|..|--- .... ....|C#5 3F.7 ....|--- .... ....
....|..|--- .... ....|--- .... ....|--- .... ....
....|..|--- .... ....|--- .... ....|--- .... ....
....|..|--- .... ....|R-- .... ....|--- .... ....
....|..|--- .... ....|--- .... ....|--- .... ....
....|..|--- .... ....|--- .... ....|--- .... ....
....|..|--- .... ....|--- .... ....|--- .... ....
....|..|--- .... ....|--- .... ....|--- .... ....
....|..|--- .... ....|--- .... ....|--- .... ....
....|..|--- .... ....|--- .... ....|--- .... ....
....|..|--- .... ....|--- .... ....|--- .... ....
....|..|--- .... ....|--- .... ....|--- .... ....
....|..|--- .... ....|--- .... ....|--- .... ....
....|..|--- .... ....|--- .... ....|--- .... ....
....|..|--- .... ....|--- .... ....|--- .... ....
....|..|--- .... ....|--- .... ....|--- .... ....
....|..|--- .... ....|--- .... ....|--- .... ....
....|..|--- .... ....|--- .... ....|--- .... ....
....|..|--- .... ....|--- .... ....|--- .... ....
....|..|--- .... ....|--- .... ....|--- .... ....
....|..|--- .... ....|--- .... ....|--- .... ....
....|..|--- .... ....|--- .... ....|--- .... ....
....|..|--- .... ....|--- .... ....|--- .... ....
....|..|--- .... ....|--- .... ....|--- .... ....
....|..|--- .... ....|--- .... ....|--- .... ....
....|..|--- .... ....|--- .... ....|--- .... ....
....|..|--- .... ....|--- .... ....|--- .... ....
....|..|--- .... ....|--- .... ....|--- .... ....
....|..|--- .... ....|--- .... ....|--- .... ....
....|..|--- .... ....|--- .... ....|--- .... ....
....|..|--- .... ....|--- .... ....|--- .... ....
....|..|--- .... ....|--- .... ....|--- .... ....
....|..|--- .... ....|--- .... ....|--- .... ....
....|..|--- .... ....|--- .... ....|--- .... ....
....|..|--- .... ....|--- .... ....|--- .... ....
....|..|--- .... ....|--- .... ....|--- .... ....
....|..|--- .... ....|--- .... ....|--- .... ....
....|..|--- .... ....|--- .... ....|--- .... ....
....|..|--- .... ....|--- .... ....|--- .... ....
....|..|--- .... ....|--- .... ....|--- .... ....
....|..|--- .... ....|--- .... ....|--- .... ....
....|..|--- .... ....|--- .... ....|--- .... ....
....|..|--- .... ....|--- .... ....|--- .... ....
....|..|--- .... ....|--- .... ....|--- .... ....
....|..|--- .... ....|--- .... ....|--- .... ....
....|..|--- .... ....|--- .... ....|--- .... ....
....|..|--- .... ....|--- .... ....|--- .... ....
....|..|--- .... ....|--- .... ....|--- .... ....
....|..|--- .... ....|--- .... ....|--- .... ....
....|..|--- .... ....|--- .... ....|--- .... ....
....|..|--- .... ....|--- .... ....|--- .... ....
....|..|--- .... ....|--- .... ....|--- .... ....
....|..|--- .... ....|E-5 3F.F ....|--- .... ....
....|..|--- .... ....|--- .... ....|--- .... ....
....|..|--- .... ....|--- .... ....|--- .... ....
....|..|--- .... ....|--- .... ....|--- .... ....
....|..|--- .... ....|R-- .... ....|--- .... ....
....|..|--- .... ....|--- .... ....|--- .... ....
....|..|--- .... ....|--- .... ....|--- .... ....
....|..|--- .... ....|--- .... ....|--- .... ....
....|..|--- .... ....|E-5 3F.F ....|--- .... ....
....|..|--- .... ....|--- .... ....|--- .... ....
....|..|--- .... ....|--- .... ....|--- .... ....
....|..|--- .... ....|--- .... ....|--- .... ....
....|..|--- .... ....|D#5 3F.F ....|--- .... ....
....|..|--- .... ....|--- .... ....|--- .... ....
....|..|--- .... ....|--- .... ....|--- .... ....
....|..|--- .... ....|--- .... ....|--- .... ....
....|..|--- .... ....|E-5 3F.F ....|--- .... ....
....|..|--- .... ....|--- .... ....|--- .... ....
....|..|--- .... ....|--- .... ....|--- .... ....
....|..|--- .... ....|--- .... ....|--- .... ....
....|..|--- .... ....|C#5 3F.F ....|--- .... ....
....|..|--- .... ....|--- .... ....|--- .... ....
....|..|--- .... ....|--- .... ....|--- .... ....
....|..|--- .... ....|--- .... ....|--- .... ....
....|..|--- .... ....|E-5 3F.F ....|--- .... ....
....|..|--- .... ....|--- .... ....|--- .... ....
....|..|--- .... ....|--- .... ....|--- .... ....
....|..|--- .... ....|--- .... ....|--- .... ....
....|..|--- .... ....|D#5 3F.F ....|--- .... ....
....|..|--- .... ....|--- .... ....|--- .... ....
....|..|--- .... ....|--- .... ....|--- .... ....
....|..|--- .... ....|--- .... ....|--- .... ....

[Pattern32]
....|..|--- .... ....|E-5 3F.F ....|--- .... ....
....|..|--- .... ....|--- .... ....|--- .... ....
....|..|--- .... ....|--- .... ....|--- .... ....
....|..|--- .... ....|--- .... ....|--- .... ....
....|..|--- .... ....|C#5 3F.F ....|--- .... ....
....|..|--- .... ....|--- .... ....|--- .... ....
....|..|--- .... ....|--- .... ....|--- .... ....
....|..|--- .... ....|R-- .... ....|--- .... ....
....|..|--- .... ....|E-5 3F.F ....|--- .... ....
....|..|--- .... ....|--- .... ....|--- .... ....
....|..|--- .... ....|--- .... ....|--- .... ....
....|..|--- .... ....|--- .... ....|--- .... ....
....|..|--- .... ....|D#5 3F.F ....|--- .... ....
....|..|--- .... ....|--- .... ....|--- .... ....
....|..|--- .... ....|--- .... ....|--- .... ....
....|..|--- .... ....|--- .... ....|--- .... ....
....|..|--- .... ....|E-5 3F.F ....|--- .... ....
....|..|--- .... ....|--- .... ....|--- .... ....
....|..|--- .... ....|--- .... ....|--- .... ....
....|..|--- .... ....|R-- .... ....|--- .... ....
....|..|--- .... ....|C#5 3F.F ....|--- .... ....
....|..|--- .... ....|--- .... ....|--- .... ....
....|..|--- .... ....|--- .... ....|--- .... ....
....|..|--- .... ....|R-- .... ....|--- .... ....
....|..|--- .... ....|E-5 3F.7 ....|--- .... ....
....|..|--- .... ....|--- .... ....|--- .... ....
....|..|--- .... ....|--- .... ....|--- .... ....
....|..|--- .... ....|--- .... ....|--- .... ....
....|..|--- .... ....|C#5 3F.7 ....|--- .... ....
....|..|--- .... ....|--- .... ....|--- .... ....
....|..|--- .... ....|--- .... ....|--- .... ....
....|..|--- .... ....|R-- .... ....|--- .... ....
....|..|--- .... ....|E-5 3F.7 ....|--- .... ....
....|..|--- .... ....|--- .... ....|--- .... ....
....|..|--- .... ....|--- .... ....|--- .... ....
....|..|--- .... ....|R-- .... ....|--- .... ....
....|..|--- .... ....|D#5 3F.7 ....|--- .... ....
....|..|--- .... ....|--- .... ....|--- .... ....
....|..|--- .... ....|--- .... ....|--- .... ....
....|..|--- .... ....|--- .... ....|--- .... ....
....|..|--- .... ....|E-5 3F.7 ....|--- .... ....
....|..|--- .... ....|--- .... ....|--- .... ....
....|..|--- .... ....|--- .... ....|--- .... ....
....|..|--- .... ....|--- .... ....|--- .... ....
....|..|--- .... ....|C#5 3F.7 ....|--- .... ....
....|..|--- .... ....|--- .... ....|--- .... ....
....|..|--- .... ....|--- .... ....|--- .... ....
....|..|--- .... ....|R-- .... ....|--- .... ....
....|..|--- .... ....|--- .... ....|--- .... ....
....|..|--- .... ....|--- .... ....|--- .... ....
....|..|--- .... ....|--- .... ....|--- .... ....
....|..|--- .... ....|--- .... ....|--- .... ....
....|..|--- .... ....|--- .... ....|--- .... ....
....|..|--- .... ....|--- .... ....|--- .... ....
....|..|--- .... ....|--- .... ....|--- .... ....
....|..|--- .... ....|--- .... ....|--- .... ....
....|..|--- .... ....|--- .... ....|--- .... ....
....|..|--- .... ....|--- .... ....|--- .... ....
....|..|--- .... ....|--- .... ....|--- .... ....
....|..|--- .... ....|--- .... ....|--- .... ....
....|..|--- .... ....|--- .... ....|--- .... ....
....|..|--- .... ....|--- .... ....|--- .... ....
....|..|--- .... ....|--- .... ....|--- .... ....
....|..|--- .... ....|--- .... ....|--- .... ....
....|..|--- .... ....|--- .... ....|--- .... ....
....|..|--- .... ....|--- .... ....|--- .... ....
....|..|--- .... ....|--- .... ....|--- .... ....
....|..|--- .... ....|--- .... ....|--- .... ....
....|..|--- .... ....|--- .... ....|--- .... ....
....|..|--- .... ....|--- .... ....|--- .... ....
....|..|--- .... ....|--- .... ....|--- .... ....
....|..|--- .... ....|--- .... ....|--- .... ....
....|..|--- .... ....|--- .... ....|--- .... ....
....|..|--- .... ....|--- .... ....|--- .... ....
....|..|--- .... ....|--- .... ....|--- .... ....
....|..|--- .... ....|--- .... ....|--- .... ....
....|..|--- .... ....|--- .... ....|--- .... ....
....|..|--- .... ....|--- .... ....|--- .... ....
....|..|--- .... ....|--- .... ....|--- .... ....
....|..|--- .... ....|--- .... ....|--- .... ....
....|..|--- .... ....|--- .... ....|--- .... ....
....|..|--- .... ....|--- .... ....|--- .... ....
....|..|--- .... ....|--- .... ....|--- .... ....
....|..|--- .... ....|--- .... ....|--- .... ....
....|..|--- .... ....|--- .... ....|--- .... ....
....|..|--- .... ....|--- .... ....|--- .... ....
....|..|--- .... ....|--- .... ....|--- .... ....
....|..|--- .... ....|--- .... ....|--- .... ....
....|..|--- .... ....|--- .... ....|--- .... ....
....|..|--- .... ....|--- .... ....|--- .... ....
....|..|--- .... ....|--- .... ....|--- .... ....
....|..|--- .... ....|--- .... ....|--- .... ....
....|..|--- .... ....|--- .... ....|--- .... ....
....|..|--- .... ....|--- .... ....|--- .... ....
....|..|--- .... ....|--- .... ....|--- .... ....
....|..|--- .... ....|--- .... ....|--- .... ....
....|..|--- .... ....|--- .... ....|--- .... ....
....|..|--- .... ....|--- .... ....|--- .... ....
....|..|--- .... ....|--- .... ....|--- .... ....
....|..|--- .... ....|--- .... ....|--- .... ....
....|..|--- .... ....|--- .... ....|--- .... ....
....|..|--- .... ....|--- .... ....|--- .... ....
....|..|--- .... ....|--- .... ....|--- .... ....
....|..|--- .... ....|--- .... ....|--- .... ....
....|..|--- .... ....|--- .... ....|--- .... ....
....|..|--- .... ....|--- .... ....|--- .... ....
....|..|--- .... ....|--- .... ....|--- .... ....
....|..|--- .... ....|--- .... ....|--- .... ....
....|..|--- .... ....|--- .... ....|--- .... ....
....|..|--- .... ....|--- .... ....|--- .... ....
....|..|--- .... ....|--- .... ....|--- .... ....
....|..|--- .... ....|--- .... ....|--- .... ....
....|..|--- .... ....|--- .... ....|--- .... ....
....|..|--- .... ....|--- .... ....|--- .... ....
....|..|--- .... ....|--- .... ....|--- .... ....
....|..|--- .... ....|--- .... ....|--- .... ....
....|..|--- .... ....|--- .... ....|--- .... ....
....|..|--- .... ....|--- .... ....|--- .... ....
....|..|--- .... ....|--- .... ....|--- .... ....
....|..|--- .... ....|--- .... ....|--- .... ....
....|..|--- .... ....|--- .... ....|--- .... ....
....|..|--- .... ....|--- .... ....|--- .... ....
....|..|--- .... ....|--- .... ....|--- .... ....
....|..|--- .... ....|--- .... ....|--- .... ....
....|..|--- .... ....|--- .... ....|--- .... ....
....|..|--- .... ....|--- .... ....|--- .... ....
....|..|--- .... ....|--- .... ....|--- .... ....
....|..|--- .... ....|--- .... ....|--- .... ....

[Pattern33]
....|..|--- .... ....|--- .... ....|--- .... ....
....|..|--- .... ....|--- .... ....|--- .... ....
....|..|--- .... ....|--- .... ....|--- .... ....
....|..|--- .... ....|--- .... ....|--- .... ....
....|..|--- .... ....|--- .... ....|--- .... ....
....|..|--- .... ....|--- .... ....|--- .... ....
....|..|--- .... ....|--- .... ....|--- .... ....
....|..|--- .... ....|--- .... ....|--- .... ....
....|..|--- .... ....|--- .... ....|--- .... ....
....|..|--- .... ....|--- .... ....|--- .... ....
....|..|--- .... ....|--- .... ....|--- .... ....
....|..|--- .... ....|--- .... ....|--- .... ....
....|..|--- .... ....|--- .... ....|--- .... ....
....|..|--- .... ....|--- .... ....|--- .... ....
....|..|--- .... ....|--- .... ....|--- .... ....
....|..|--- .... ....|--- .... ....|--- .... ....
....|..|--- .... ....|--- .... ....|--- .... ....
....|..|--- .... ....|--- .... ....|--- .... ....
....|..|--- .... ....|--- .... ....|--- .... ....
....|..|--- .... ....|--- .... ....|--- .... ....
....|..|--- .... ....|--- .... ....|--- .... ....
....|..|--- .... ....|--- .... ....|--- .... ....
....|..|--- .... ....|--- .... ....|--- .... ....
