[Module]
VortexTrackerII=0
Version=3.5
Title=1d-2me-3p,4m[uf]-5m[3]+,5m[4]-6me[2]+-3p[4]+-2me+
Author=oisee ^ 4d 29.05.2010
NoteTable=4
ChipFreq=1750000
Speed=3
PlayOrder=L0,1,2,3,4,5,6,7,8,9,10,11,12,13,14,15,16,17,18,19,20,21,22,23,24,25,26,27,28,29,30,31,32,33,34,35,36,37,38,39,40,41,42,43,44,45,46,47,48,49,50,51,52,53,54,55,56,57

[Ornament1]
L0,0,4,4,7,7

[Ornament2]
L0,0,3,3,8,8

[Ornament3]
L0,0,3,3,6,6

[Ornament4]
L0,0,4,4,9,9

[Ornament5]
L0,0,5,5,9,9

[Ornament6]
L0,0,3,3,7,7

[Ornament7]
L0,0,3,3,9,9

[Ornament8]
L0,0,5,5,8,8

[Ornament9]
L0,0,3,3

[Ornament10]
L0,0,5,5

[Ornament11]
L0,0,2,2,6,6

[Ornament12]
L0,0,4,4

[Ornament13]
L0,0,2,2,5,5

[Ornament14]
L0,0,2,2,5,5,9,9

[Ornament15]
0,0,0,L0

[Sample1]
TnE +000_ +00_ F_
TnE +000_ +00_ F_
TnE +000_ +00_ F_
TnE +000_ +00_ D_
TnE +000_ +00_ B_
TnE +000_ +00_ B_ L

[Sample2]
TnE +000_ +00_ F_ L

[Sample3]
TnE +000_ +00_ E_ L

[Sample4]
TnE +001_ +00_ D_
TnE +001_ +00_ D_
TnE +001_ +00_ C_
TnE +001_ +00_ B_
TnE +001_ +00_ A_ L
TnE +001_ +00_ A_
TnE +001_ +00_ A_
TnE +001_ +00_ A_
TnE +001_ +00_ A_
TnE +001_ +00_ A_
TnE +001_ +00_ A_
TnE +001_ +00_ A_

[Sample5]
TnE +000_ +00_ F_
TnE +000_ +00_ F_
tne +000_ +00_ 0_ L

[Sample6]
TnE -001_ +00_ F_ L

[Sample7]
TnE +006_ +00_ F_ L

[Sample8]
tNe +000_ +00_ F_
tNe +000_ +00_ B_
tNe +000_ +00_ 7_
tNe +000_ +00_ 6- L

[Sample9]
TnE +080_ +00_ F_
TnE +100_ +00_ E_
TnE +180_ +00_ E_
TnE +200_ +00_ E_
TnE +240_ +00_ D_
TnE +280_ +00_ D_
TnE +2C0_ +00_ D_
TnE +300_ +00_ C_
TnE +300_ +00_ C_
TnE +340_ +00_ C_
TnE +340_ +00_ C_
TnE +380_ +00_ B_
TnE +380_ +00_ B_
TnE +400_ +00_ B_
TnE +400_ +00_ B_
TnE +480_ +00_ A_
TnE +500_ +00_ 9_
TnE +580_ +00_ 7_
TnE +600_ +00_ 4_
TnE +680_ +00_ 1_
TnE +000_ +00_ 0_ L

[Sample10]
Tne +1C0_ +00_ F_
Tne +280_ +00_ E_
Tne +380_ +00_ C_
Tne +440_ +00_ A_
Tne +480_ +00_ 8_
TnE +000_ +00_ 0_ L

[Sample11]
TNe +200_ -0A_ F_
tNe +000_ +0F_ A_
TNe +200_ -07_ E_
tNe +000_ +0E_ B- L

[Sample12]
TNE +0A0_ +05_ F_
TNE +140_ +02_ D_
TNE +140_ +02_ B_
TNE +100_ +00_ A_ L
TNE +140_ +00_ A_
TNE +200_ +00_ A-

[Sample13]
Tne +200_ +00_ F_
Tne +2C0_ +00_ F_
Tne +380_ +00_ E_
Tne +500_ +00_ C_
Tne +520_ +00_ 9_
tne +000_ +00_ 0_ L

[Sample14]
TNE -100_ +00_ F_
TNE -100_ +00_ D_
TNE -100_ +00_ A_
TNE -100_ +00_ 5_
tne +000_ +00_ 0_ L

[Sample15]
TNE -100_ +00_ 5_
TNE -100_ +00_ 8_
TNE -100_ +00_ B_
TNE -100_ +00_ F_
TNe -100_ +00_ 9- L

[Sample16]
TnE +000_ +00_ C_
TnE +000_ +00_ E_
TnE +000_ +00_ F_
TnE +000_ +00_ F_
TnE +000_ +00_ E_
TnE +000_ +00_ D_
TnE +000_ +00_ C_
TnE +000_ +00_ C_ L
TnE +001_ +00_ C_
TnE +002_ +00_ C_
TnE +003_ +00_ C_
TnE +001_ +00_ C_
TnE +000_ +00_ C_
TnE -001_ +00_ C_
TnE -002_ +00_ C_
TnE -003_ +00_ C_
TnE -001_ +00_ C_
TnE +000_ +00_ C_
TnE +000_ +00_ C_

[Sample17]
Tne +1C0_ +00_ F_
Tne +280_ +00_ D_
Tne +380_ +00_ 7_
TNE +000_ +00_ 0_ L

[Sample18]
TnE -00C_ +00_ 0_ L

[Sample19]
TNe +000_ +00_ F_
TNe +000_ +00_ C_
TNe +000_ +00_ 6_
TNe +000_ +01_ A- L

[Sample20]
TNE +140_ +00_ F_
tNE +000_ +00_ B- L

[Sample21]
tNE +000_ +00_ D_
tNE +000_ +00_ 8_
tNE +000_ +00_ 1_
TNE +000_ +00_ 0_ L

[Sample22]
TnE +000_ +00_ D_ L
TnE +000_ +00_ D_
tne +000_ +00_ 9_
tne +000_ +00_ 9_
TnE +000_ +00_ D_
TnE +000_ +00_ D_
tne +000_ +00_ 9_
tne +000_ +00_ 9_
TnE +000_ +00_ D_
TnE +000_ +00_ D_
TnE +000_ +00_ D_
TnE +000_ +00_ D_
TnE +000_ +00_ D_
TnE +000_ +00_ D_
tne +000_ +00_ 9_
tne +000_ +00_ 9_

[Sample23]
TnE +000_ +00_ F_ L
TnE +010_ +01_ F_
TnE +010_ +01_ F_
TnE +010_ +01_ F_
TnE +010_ +01_ F_
TnE +000_ +00_ F_
TnE +000_ +00_ F_
TnE -010_ -01_ F_
TnE -010_ -01_ F_
TnE -010_ -01_ F_
TnE -010_ -01_ F_
TnE +000_ +00_ F_

[Sample24]
TNe +000_ -01_ C_
TNe +000_ -01_ D_
TNe +000_ -01_ E_
TNe +000_ -01_ F_
TNe +000_ -01_ F_
TNe +000_ -01_ F_
TNe +000_ -01_ F_
TNe +000_ -01_ F_
TNe +000_ -01_ E_
TNe +000_ -01_ E_
TNe +000_ -01_ E_
TNe +000_ -01_ F_
TNe +000_ -01_ F_ L

[Sample25]
TNE +000_ +00_ F_
TNE +000_ +00_ F_ L
TNE +000_ +00_ F_
TNE +000_ +00_ F_
TNE +000_ +00_ F-

[Sample26]
tne +000_ +00_ 0_ L

[Sample27]
TnE +100_ +05_ F_
TnE +200_ +02_ A_
TnE +300_ +02_ 7_
TNE +400_ +00_ 3- L

[Sample28]
tne +000_ +00_ 0_ L

[Sample29]
tnE +000_ +00_ 0_ L

[Sample30]
TnE +000_ +00_ F_
TnE +001_ +00_ F_
TnE +001_ +00_ F_
TnE +001_ +00_ E_
TnE +001_ +00_ E_
TnE +000_ +00_ E_ L
TnE -001_ +00_ E_
TnE -001_ +00_ E_
TnE -001_ +00_ E_
TnE +000_ +00_ E_
TnE +001_ +00_ E_
TnE +001_ +00_ E_
TnE +001_ +00_ E_

[Sample31]
TNe +1C0_ +00_ F_
Tne +280_ +00_ E_
Tne +380_ +00_ C_
Tne +440_ +00_ A_
Tne +480_ +00_ 8_
TnE +000_ +00_ 0_ L

[Pattern0]
....|..|F-4 2F1F ....|C-6 UFFF ....|F-4 4F1F ....
....|..|--- .... ....|--- .... ....|--- .... ....
....|..|--- .... ....|--- .... ....|--- .... ....
....|..|--- .... ....|R-- .... ....|--- .... ....
....|..|--- .... ....|--- .... ....|--- .... ....
....|..|--- .... ....|--- .... ....|--- .... ....
....|..|--- .... ....|--- .... ....|--- .... ....
....|..|--- .... ....|--- .... ....|--- .... ....
....|..|--- .... ....|A-5 UFFF ....|--- .... ....
....|..|--- .... ....|--- .... ....|--- .... ....
....|..|--- .... ....|--- .... ....|--- .... ....
....|..|--- .... ....|R-- .... ....|--- .... ....
....|..|F-4 2F1A ....|F-5 UFFF ....|F-4 4F1A ....
....|..|--- .... ....|--- .... ....|--- .... ....
....|..|--- .... ....|--- .... ....|--- .... ....
....|..|--- .... ....|R-- .... ....|--- .... ....
....|..|--- .... ....|--- .... ....|--- .... ....
....|..|--- .... ....|--- .... ....|--- .... ....
....|..|--- .... ....|--- .... ....|--- .... ....
....|..|--- .... ....|--- .... ....|--- .... ....
....|..|--- .... ....|C-6 UFFF ....|--- .... ....
....|..|--- .... ....|--- .... ....|--- .... ....
....|..|--- .... ....|--- .... ....|--- .... ....
....|..|--- .... ....|R-- .... ....|--- .... ....
....|..|F-4 2F17 ....|C-6 UFF7 ....|F-4 4F17 ....
....|..|--- .... ....|--- .... ....|--- .... ....
....|..|--- .... ....|--- .... ....|--- .... ....
....|..|--- .... ....|R-- .... ....|--- .... ....
....|..|--- .... ....|A#5 UFFF ....|--- .... ....
....|..|--- .... ....|--- .... ....|--- .... ....
....|..|--- .... ....|--- .... ....|--- .... ....
....|..|--- .... ....|--- .... ....|--- .... ....
....|..|E-4 2F2F ....|A-5 UFF7 ....|E-4 4F2F ....
....|..|--- .... ....|--- .... ....|--- .... ....
....|..|--- .... ....|--- .... ....|--- .... ....
....|..|--- .... ....|R-- .... ....|--- .... ....
....|..|--- .... ....|G-5 UFFF ....|--- .... ....
....|..|--- .... ....|--- .... ....|--- .... ....
....|..|--- .... ....|--- .... ....|--- .... ....
....|..|--- .... ....|R-- .... ....|--- .... ....
....|..|--- .... ....|A#5 UFFA ....|--- .... ....
....|..|--- .... ....|--- .... ....|--- .... ....
....|..|--- .... ....|--- .... ....|--- .... ....
....|..|--- .... ....|--- .... ....|--- .... ....
....|..|E-4 2F2A ....|C-6 UFF7 ....|E-4 4F2A ....
....|..|--- .... ....|--- .... ....|--- .... ....
....|..|--- .... ....|--- .... ....|--- .... ....
....|..|--- .... ....|R-- .... ....|--- .... ....
....|..|--- .... ....|G-5 UFFA ....|--- .... ....
....|..|--- .... ....|--- .... ....|--- .... ....
....|..|--- .... ....|--- .... ....|--- .... ....
....|..|--- .... ....|R-- .... ....|--- .... ....
....|..|--- .... ....|A#5 UFF7 ....|--- .... ....
....|..|--- .... ....|--- .... ....|--- .... ....
....|..|--- .... ....|--- .... ....|--- .... ....
....|..|--- .... ....|--- .... ....|--- .... ....
....|..|E-4 2F27 ....|--- .... ....|E-4 4F27 ....
....|..|--- .... ....|--- .... ....|--- .... ....
....|..|--- .... ....|--- .... ....|--- .... ....
....|..|--- .... ....|R-- .... ....|--- .... ....
....|..|--- .... ....|G-5 UFF7 ....|--- .... ....
....|..|--- .... ....|--- .... ....|--- .... ....
....|..|--- .... ....|--- .... ....|--- .... ....
....|..|--- .... ....|R-- .... ....|--- .... ....

[Pattern1]
....|..|E-4 2F3F ....|A#5 UFFF ....|E-4 4F3F ....
....|..|--- .... ....|--- .... ....|--- .... ....
....|..|--- .... ....|--- .... ....|--- .... ....
....|..|--- .... ....|R-- .... ....|--- .... ....
....|..|--- .... ....|--- .... ....|--- .... ....
....|..|--- .... ....|--- .... ....|--- .... ....
....|..|--- .... ....|--- .... ....|--- .... ....
....|..|--- .... ....|--- .... ....|--- .... ....
....|..|--- .... ....|G-5 UFFF ....|--- .... ....
....|..|--- .... ....|--- .... ....|--- .... ....
....|..|--- .... ....|--- .... ....|--- .... ....
....|..|--- .... ....|R-- .... ....|--- .... ....
....|..|E-4 2F3A ....|E-5 UFFF ....|E-4 4F3A ....
....|..|--- .... ....|--- .... ....|--- .... ....
....|..|--- .... ....|R-- .... ....|--- .... ....
....|..|--- .... ....|R-- .... ....|--- .... ....
....|..|--- .... ....|--- .... ....|--- .... ....
....|..|--- .... ....|--- .... ....|--- .... ....
....|..|--- .... ....|--- .... ....|--- .... ....
....|..|--- .... ....|--- .... ....|--- .... ....
....|..|G-4 2F3F ....|A#5 UFFF ....|G-4 4F3F ....
....|..|--- .... ....|--- .... ....|--- .... ....
....|..|--- .... ....|--- .... ....|--- .... ....
....|..|--- .... ....|R-- .... ....|--- .... ....
....|..|E-4 2F37 ....|A#5 UFF7 ....|E-4 4F37 ....
....|..|--- .... ....|--- .... ....|--- .... ....
....|..|--- .... ....|R-- .... ....|--- .... ....
....|..|--- .... ....|R-- .... ....|--- .... ....
....|..|--- .... ....|A-5 UFFF ....|--- .... ....
....|..|--- .... ....|--- .... ....|--- .... ....
....|..|--- .... ....|--- .... ....|--- .... ....
....|..|--- .... ....|--- .... ....|--- .... ....
....|..|F-4 2F4F ....|G-5 UFF7 ....|F-4 4F4F ....
....|..|--- .... ....|--- .... ....|--- .... ....
....|..|--- .... ....|--- .... ....|--- .... ....
....|..|--- .... ....|R-- .... ....|--- .... ....
....|..|--- .... ....|F-5 UFFF ....|--- .... ....
....|..|--- .... ....|--- .... ....|--- .... ....
....|..|--- .... ....|R-- .... ....|--- .... ....
....|..|--- .... ....|R-- .... ....|--- .... ....
....|..|--- .... ....|A-5 UFFA ....|--- .... ....
....|..|--- .... ....|--- .... ....|--- .... ....
....|..|--- .... ....|--- .... ....|--- .... ....
....|..|--- .... ....|--- .... ....|--- .... ....
....|..|G-4 2F37 ....|A-4 3F.F ....|A-4 4F.F ....
....|..|--- .... ....|--- .... ....|--- .... ....
....|..|--- .... ....|C-5 3F.F ....|C-5 4F.F ....
....|..|--- .... ....|R-- .... ....|--- .... ....
....|..|--- .... ....|D-5 3F.F ....|D-5 4F.F ....
....|..|--- .... ....|--- .... ....|--- .... ....
....|..|--- .... ....|C-5 3F.F ....|C-5 4F.F ....
....|..|--- .... ....|R-- .... ....|--- .... ....
....|..|C-4 CF.F ....|D-5 3F.F ....|D-5 4F.F ....
....|..|--- .... ....|--- .... ....|--- .... ....
....|..|--- .... ....|F-5 3F.F ....|F-5 4F.F ....
....|..|--- .... ....|--- .... ....|--- .... ....
....|..|C-4 LF.F ....|A-5 3F.F ....|A-5 4F.F ....
....|..|--- .... ....|--- .... ....|--- .... ....
....|..|C-4 LF.F ....|G-5 3F.F ....|G-5 4F.F ....
....|..|--- .... ....|R-- .... ....|--- .... ....
....|..|D#4 9F.F ....|A-5 3F.F ....|A-5 4F.F ....
....|..|--- .... ....|--- .... ....|--- .... ....
....|..|--- .... ....|C-6 3F.F ....|C-6 4F.F ....
....|..|--- .... ....|R-- .... ....|--- .... ....

[Pattern2]
....|..|C-4 AF.F ....|D-6 3F.F ....|D-6 4F.F ....
 A#3|..|A#1 2A.F ....|--- .... ....|--- .... ....
....|..|A#3 2F1F ....|F-5 3F.A ....|F-5 4F.A ....
....|..|--- .... ....|--- .... ....|--- .... ....
 A#3|..|B-8 JF.F ....|A-4 3F.7 ....|A#4 2C.F ....
 A#3|..|A#1 2A.F ....|--- .... ....|--- .... ....
....|..|C-4 LF.A ....|C-5 3F.7 ....|C-5 4F.7 ....
....|..|--- .... ....|--- .... ....|R-- .... ....
 A#3|..|C-4 AF.F ....|D-5 3F.7 ....|A#1 2A.F ....
 A#3|..|A#1 2A.F ....|--- .... ....|--- .... ....
....|..|R-- .... ....|C-5 3F.7 ....|C-5 4F.7 ....
....|..|--- .... ....|--- .... ....|--- .... ....
 A#3|..|B-8 JF.F ....|D-5 3F.7 ....|A#4 2C.F ....
 A#3|..|A#1 2A.F ....|--- .... ....|--- .... ....
....|..|A#3 2F1A ....|F-5 3F.7 ....|F-5 4F.7 ....
....|..|--- .... ....|--- .... ....|R-- .... ....
....|..|C-4 AF.F ....|A-5 3F.7 ....|C-4 4F1F ....
 A#3|..|A#1 2A.F ....|--- .... ....|--- .... ....
....|..|C-4 2F1F ....|G-5 3F.7 ....|G-5 4F.7 ....
....|..|--- .... ....|--- .... ....|R-- .... ....
....|..|B-8 JF.F ....|E-6 3F.F ....|E-6 4F.F ....
 A#3|..|A#1 2A.F ....|--- .... ....|--- .... ....
....|..|R-- .... ....|C-6 3F.7 ....|C-6 4F.7 ....
....|..|--- .... ....|--- .... ....|--- .... ....
....|..|C-4 AF.F ....|C-6 3F.F ....|C-6 4F.F ....
 A#3|..|A#1 2A.F ....|--- .... ....|--- .... ....
....|..|A#3 2F17 ....|--- .... ....|R-- .... ....
....|..|--- .... ....|--- .... ....|R-- .... ....
....|..|B-8 JF.F ....|A#5 3F.F ....|A#5 4F.F ....
 A#3|..|A#1 2A.F ....|--- .... ....|--- .... ....
....|..|C-4 2F1A ....|--- .... ....|R-- .... ....
....|..|--- .... ....|--- .... ....|R-- .... ....
....|..|C-4 AF.F ....|C-6 3F.F ....|C-6 4F.F ....
 A-3|..|A-1 2A.F ....|--- .... ....|--- .... ....
....|..|C-4 2F1F ....|--- .... ....|R-- .... ....
....|..|--- .... ....|--- .... ....|--- .... ....
 C-3|..|B-8 JF.F ....|C-6 3F.A ....|C-5 2C.F ....
 A-3|..|A-1 2A.F ....|--- .... ....|--- .F.. ....
....|..|R-- .... ....|--- .... ....|R-- .... ....
....|..|--- .... ....|--- .... ....|R-- .... ....
 A-3|..|C-4 AF.F ....|A#5 3F.A ....|A-1 2A.F ....
 A-3|..|A-1 2A.F ....|--- .... ....|--- .... ....
....|..|C-4 2F17 ....|--- .... ....|R-- .... ....
....|..|--- .... ....|--- .... ....|--- .... ....
 C-3|..|B-8 JF.F ....|E-6 3F.7 ....|C-5 2C.F ....
 A-3|..|A-1 2A.F ....|--- .... ....|--- .F.. ....
....|..|C-4 2F1A ....|--- .... ....|R-- .... ....
....|..|--- .... ....|--- .... ....|--- .... ....
....|..|C-4 AF.F ....|C-6 3F.7 ....|C-4 4F5F ....
 D-4|..|D-2 2A.F ....|--- .... ....|--- .... ....
....|..|C-4 2F5F ....|--- .... ....|R-- .... ....
....|..|--- .... ....|--- .... ....|R-- .... ....
 D-4|..|B-8 JF.F ....|A#5 3F.7 ....|D-2 2A.F ....
 D-4|..|D-2 2A.F ....|--- .... ....|--- .... ....
....|..|R-- .... ....|--- .... ....|R-- .... ....
....|..|--- .... ....|--- .... ....|--- .... ....
 D-4|..|C-4 AF.F ....|C-6 3F.7 ....|D-2 2A.F ....
 D-4|..|D-2 2A.F ....|--- .... ....|--- .... ....
....|..|C-4 2F17 ....|--- .... ....|R-- .... ....
....|..|--- .... ....|--- .... ....|--- .... ....
 D-4|..|B-8 JF.F ....|--- .... ....|D-2 2A.F ....
 D-4|..|D-2 2A.F ....|--- .... ....|--- .... ....
....|..|C-4 2F5A ....|--- .... ....|R-- .... ....
....|..|--- .... ....|--- .... ....|R-- .... ....

[Pattern3]
....|..|C-4 AF.F ....|A#5 3F.F ....|A#5 4F.F ....
 G-3|..|G-1 2A.F ....|--- .... ....|--- .... ....
....|..|A#3 2F1F ....|--- .... ....|R-- .... ....
....|..|--- .... ....|--- .... ....|--- .... ....
 A#3|..|B-8 JF.F ....|--- .... ....|A#4 2C.F ....
 G-3|..|G-1 2A.F ....|--- .... ....|--- .F.. ....
....|..|R-- .... ....|--- .... ....|R-- .... ....
....|..|--- .... ....|--- .... ....|R-- .... ....
 G-3|..|C-4 AF.F ....|--- .... ....|G-1 2A.F ....
 G-3|..|G-1 2A.F ....|--- .... ....|--- .... ....
....|..|C-4 2F57 ....|--- .... ....|R-- .... ....
....|..|--- .... ....|--- .... ....|--- .... ....
 A#3|..|B-8 JF.F ....|A#5 3F.A ....|A#4 2C.F ....
 G-3|..|G-1 2A.F ....|--- .... ....|--- .F.. ....
....|..|A#3 2F1A ....|--- .... ....|R-- .... ....
....|..|--- .... ....|--- .... ....|R-- .... ....
 G-3|..|C-4 AF.F ....|--- .... ....|G-1 2A.F ....
 G-3|..|G-1 2A.F ....|--- .... ....|--- .... ....
....|..|R-- .... ....|--- .... ....|R-- .... ....
....|..|--- .... ....|--- .... ....|R-- .... ....
 G-3|..|B-8 JF.F ....|--- .... ....|G-1 2A.F ....
 G-3|..|G-1 2A.F ....|--- .... ....|--- .... ....
....|..|R-- .... ....|--- .... ....|R-- .... ....
....|..|--- .... ....|--- .... ....|--- .... ....
 G-3|..|C-4 AF.F ....|A#5 3F.7 ....|G-1 2A.F ....
 G-3|..|G-1 2A.F ....|--- .... ....|--- .... ....
....|..|A#3 2F17 ....|--- .... ....|R-- .... ....
....|..|--- .... ....|--- .... ....|R-- .... ....
 G-3|..|B-8 JF.F ....|--- .... ....|G-1 2A.F ....
 G-3|..|G-1 2A.F ....|--- .... ....|--- .... ....
....|..|R-- .... ....|--- .... ....|R-- .... ....
....|..|--- .... ....|--- .... ....|R-- .... ....
....|..|C-4 AF.F ....|A#5 3F.F ....|A#5 4F.F ....
 C-4|..|C-2 2A.F ....|--- .... ....|--- .... ....
....|..|A#3 2F1F ....|A-5 3F.F ....|A-5 4F.F ....
....|..|--- .... ....|--- .... ....|--- .... ....
....|..|B-8 JF.F ....|G-5 3F.F ....|G-5 4F.F ....
 C-4|..|C-2 2A.F ....|--- .... ....|--- .... ....
....|..|R-- .... ....|A-5 3F.F ....|A-5 4F.F ....
....|..|--- .... ....|--- .... ....|R-- .... ....
....|..|C-4 AF.F ....|G-5 3F.F ....|G-5 4F.F ....
 C-4|..|C-2 2A.F ....|--- .... ....|--- .... ....
....|..|R-- .... ....|F-5 3F.F ....|F-5 4F.F ....
....|..|--- .... ....|--- .... ....|--- .... ....
....|..|B-8 JF.F ....|E-5 3F.F ....|E-5 4F.F ....
 C-4|..|C-2 2A.F ....|--- .... ....|--- .... ....
....|..|A#3 2F1A ....|F-5 3F.F ....|F-5 4F.F ....
....|..|--- .... ....|--- .... ....|R-- .... ....
....|..|C-4 AF.F ....|E-5 3F.F ....|E-5 4F.F ....
 C-4|..|C-2 2A.F ....|--- .... ....|--- .... ....
....|..|R-- .... ....|D-5 3F.F ....|D-5 4F.F ....
....|..|--- .... ....|--- .... ....|R-- .... ....
....|..|B-8 JF.F ....|C-5 3F.F ....|C-5 4F.F ....
 C-4|..|C-2 2A.F ....|--- .... ....|--- .... ....
....|..|R-- .... ....|F-5 3F.A ....|F-5 4F.A ....
....|..|--- .... ....|--- .... ....|--- .... ....
 C-4|..|C-4 AF.F ....|A#5 3F.7 ....|C-2 2A.F ....
 C-4|..|C-2 2A.F ....|--- .... ....|--- .... ....
....|..|A#3 2F17 ....|A-5 3F.7 ....|A-5 4F.7 ....
....|..|--- .... ....|--- .... ....|R-- .... ....
 C-4|..|B-8 JF.F ....|G-5 3F.7 ....|C-2 2A.F ....
 C-4|..|C-2 2A.F ....|--- .... ....|--- .... ....
....|..|R-- .... ....|A-5 3F.7 ....|A-5 4F.7 ....
....|..|--- .... ....|--- .... ....|R-- .... ....

[Pattern4]
....|..|C-4 AF.F ....|G-5 3F.7 ....|C-4 4F5F ....
 F-4|..|F-2 2A.F ....|--- .... ....|--- .... ....
....|..|C-4 2F5F ....|F-5 3F.7 ....|F-5 4F.7 ....
....|..|--- .... ....|--- .... ....|--- .... ....
 A-3|..|B-8 JF.F ....|E-5 3F.7 ....|A-4 2C.F ....
 F-4|..|F-2 2A.F ....|--- .... ....|--- .F.. ....
....|..|R-- .... ....|F-5 3F.7 ....|F-5 4F.7 ....
....|..|--- .... ....|--- .... ....|R-- .... ....
 F-4|..|C-4 AF.F ....|F-5 UFFF ....|F-2 2A.F ....
 F-4|..|F-2 2A.F ....|--- .... ....|--- .... ....
....|..|R-- .... ....|D-5 3F.7 ....|D-5 4F.7 ....
....|..|--- .... ....|--- .... ....|--- .... ....
 A-3|..|B-8 JF.F ....|C-5 3F.7 ....|A-4 2C.F ....
 F-4|..|F-2 2A.F ....|--- .... ....|--- .F.. ....
....|..|C-4 2F5A ....|R-- .... ....|R-- .... ....
....|..|--- .... ....|R-- .... ....|R-- .... ....
 F-4|..|C-4 AF.F ....|E-5 UFFF ....|F-2 2A.F ....
 F-4|..|F-2 2A.F ....|--- .... ....|--- .... ....
....|..|R-- .... ....|--- .... ....|R-- .... ....
....|..|--- .... ....|--- .... ....|R-- .... ....
 F-4|..|B-8 JF.F ....|F-5 UFFA ....|F-2 2A.F ....
 F-4|..|F-2 2A.F ....|--- .... ....|--- .... ....
....|..|R-- .... ....|--- .... ....|R-- .... ....
....|..|--- .... ....|R-- .... ....|--- .... ....
 F-4|..|C-4 AF.F ....|F-5 UFFF ....|F-2 2A.F ....
 F-4|..|F-2 2A.F ....|--- .... ....|--- .... ....
....|..|C-4 2F57 ....|R-- .... ....|R-- .... ....
....|..|--- .... ....|R-- .... ....|R-- .... ....
 F-4|..|B-8 JF.F ....|C-5 UFFF ....|F-2 2A.F ....
 F-4|..|F-2 2A.F ....|--- .... ....|--- .... ....
....|..|R-- .... ....|--- .... ....|R-- .... ....
....|..|--- .... ....|--- .... ....|R-- .... ....
....|..|C-4 AF.F ....|F-5 UFF7 ....|C-4 4F1F ....
 E-4|..|E-2 2A.F ....|--- .... ....|--- .... ....
....|..|C-4 2F1F ....|--- .... ....|R-- .... ....
....|..|--- .... ....|R-- .... ....|--- .... ....
 C-3|..|B-8 JF.F ....|F-5 UFFA ....|C-5 2C.F ....
 E-4|..|E-2 2A.F ....|--- .... ....|--- .F.. ....
....|..|R-- .... ....|--- .... ....|R-- .... ....
....|..|--- .... ....|R-- .... ....|R-- .... ....
 E-4|..|C-4 AF.F ....|E-5 UFF7 ....|E-2 2A.F ....
 E-4|..|E-2 2A.F ....|--- .... ....|--- .... ....
....|..|R-- .... ....|--- .... ....|R-- .... ....
....|..|--- .... ....|--- .... ....|--- .... ....
 C-3|..|B-8 JF.F ....|--- .... ....|C-5 2C.F ....
 E-4|..|E-2 2A.F ....|--- .... ....|--- .F.. ....
....|..|C-4 2F1A ....|--- .... ....|R-- .... ....
....|..|--- .... ....|R-- .... ....|--- .... ....
 E-4|..|C-4 AF.F ....|F-5 UFF7 ....|E-2 2A.F ....
 E-4|..|E-2 2A.F ....|--- .... ....|--- .... ....
....|..|R-- .... ....|--- .... ....|R-- .... ....
....|..|--- .... ....|R-- .... ....|R-- .... ....
 E-4|..|B-8 JF.F ....|C-5 UFF7 ....|E-2 2A.F ....
 E-4|..|E-2 2A.F ....|--- .... ....|--- .... ....
....|..|R-- .... ....|--- .... ....|R-- .... ....
....|..|--- .... ....|--- .... ....|--- .... ....
 E-4|..|C-4 AF.F ....|--- .... ....|E-2 2A.F ....
 E-4|..|E-2 2A.F ....|--- .... ....|--- .... ....
....|..|C-4 2F17 ....|--- .... ....|R-- .... ....
....|..|--- .... ....|--- .... ....|--- .... ....
 E-4|..|B-8 JF.F ....|R-- .... ....|E-2 2A.F ....
 E-4|..|E-2 2A.F ....|--- .... ....|--- .... ....
....|..|R-- .... ....|--- .... ....|R-- .... ....
....|..|--- .... ....|--- .... ....|R-- .... ....

[Pattern5]
....|..|C-4 AF.F ....|--- .... ....|D-4 4F6F ....
 D-4|..|D-2 2A.F ....|--- .... ....|--- .... ....
....|..|D-4 2F6F ....|--- .... ....|R-- .... ....
....|..|--- .... ....|--- .... ....|--- .... ....
 A-3|..|B-8 JF.F ....|--- .... ....|A-4 2C.F ....
 D-4|..|D-2 2A.F ....|--- .... ....|--- .F.. ....
....|..|R-- .... ....|--- .... ....|R-- .... ....
....|..|--- .... ....|--- .... ....|R-- .... ....
 D-4|..|C-4 AF.F ....|F-5 UFFF ....|D-2 2A.F ....
 D-4|..|D-2 2A.F ....|--- .... ....|--- .... ....
....|..|R-- .... ....|--- .... ....|R-- .... ....
....|..|--- .... ....|--- .... ....|--- .... ....
 A-3|..|B-8 JF.F ....|--- .... ....|A-4 2C.F ....
 D-4|..|D-2 2A.F ....|--- .... ....|--- .F.. ....
....|..|D-4 2F6A ....|--- .... ....|R-- .... ....
....|..|--- .... ....|R-- .... ....|--- .... ....
 D-4|..|C-4 AF.F ....|E-5 UFFF ....|D-2 2A.F ....
 D-4|..|D-2 2A.F ....|--- .... ....|--- .... ....
....|..|R-- .... ....|--- .... ....|R-- .... ....
....|..|--- .... ....|--- .... ....|R-- .... ....
 D-4|..|B-8 JF.F ....|F-5 UFFA ....|D-2 2A.F ....
 D-4|..|D-2 2A.F ....|--- .... ....|--- .... ....
....|..|R-- .... ....|--- .... ....|R-- .... ....
....|..|--- .... ....|R-- .... ....|--- .... ....
 D-4|..|C-4 AF.F ....|F-5 UFFF ....|D-2 2A.F ....
 D-4|..|D-2 2A.F ....|--- .... ....|--- .... ....
....|..|D-4 2F67 ....|--- .... ....|R-- .... ....
....|..|--- .... ....|R-- .... ....|--- .... ....
 D-4|..|B-8 JF.F ....|A-5 UFFF ....|D-2 2A.F ....
 D-4|..|D-2 2A.F ....|--- .... ....|--- .... ....
....|..|R-- .... ....|--- .... ....|R-- .... ....
....|..|--- .... ....|--- .... ....|R-- .... ....
....|..|C-4 AF.F ....|F-5 UFF7 ....|C-4 4F4F ....
 C-4|..|C-2 2A.F ....|--- .... ....|--- .... ....
....|..|C-4 2F4F ....|--- .... ....|R-- .... ....
....|..|--- .... ....|R-- .... ....|--- .... ....
 A-3|..|B-8 JF.F ....|F-5 UFFA ....|A-4 2C.F ....
 C-4|..|C-2 2A.F ....|--- .... ....|--- .F.. ....
....|..|R-- .... ....|--- .... ....|R-- .... ....
....|..|--- .... ....|R-- .... ....|R-- .... ....
 C-4|..|C-4 AF.F ....|E-5 UFF7 ....|C-2 2A.F ....
 C-4|..|C-2 2A.F ....|--- .... ....|--- .... ....
....|..|R-- .... ....|--- .... ....|R-- .... ....
....|..|--- .... ....|--- .... ....|--- .... ....
 A-3|..|B-8 JF.F ....|--- .... ....|A-4 2C.F ....
 C-4|..|C-2 2A.F ....|--- .... ....|--- .F.. ....
....|..|C-4 2F4A ....|--- .... ....|R-- .... ....
 A-3|..|--- .... ....|R-- .... ....|A-4 2C.F ....
 C-4|..|C-4 AF.F ....|F-5 UFF7 ....|C-2 2A.F ....
 C-4|..|C-2 2A.F ....|--- .... ....|--- .... ....
....|..|R-- .... ....|--- .... ....|R-- .... ....
....|..|--- .... ....|--- .... ....|R-- .... ....
 C-4|..|B-8 JF.F ....|A-5 UFF7 ....|C-2 2A.F ....
 C-4|..|C-2 2A.F ....|--- .... ....|--- .... ....
....|..|R-- .... ....|--- .... ....|R-- .... ....
....|..|--- .... ....|--- .... ....|--- .... ....
 C-4|..|C-4 AF.F ....|--- .... ....|C-2 2A.F ....
 C-4|..|C-2 2A.F ....|--- .... ....|--- .... ....
....|..|C-4 2F47 ....|--- .... ....|R-- .... ....
....|..|--- .... ....|--- .... ....|A-4 2F.A ....
 C-4|..|B-8 JF.F ....|R-- .... ....|C-2 2A.F ....
 C-4|..|C-2 2A.F ....|--- .... ....|--- .... ....
....|..|R-- .... ....|--- .... ....|R-- .... ....
....|..|--- .... ....|--- .... ....|R-- .... ....

[Pattern6]
....|..|C-4 AF.F ....|A#5 UFFF ....|A#3 4F1F ....
 A#3|..|A#1 2A.F ....|--- .... ....|--- .... ....
....|..|A#3 2F1F ....|--- .... ....|R-- .... ....
....|..|--- .... ....|--- .... ....|--- .... ....
 A#3|..|B-8 JF.F ....|--- .... ....|A#4 2C.F ....
 A#3|..|A#1 2A.F ....|--- .... ....|--- .... ....
....|..|R-- .... ....|--- .... ....|R-- .... ....
....|..|--- .... ....|R-- .... ....|A-4 2F.7 ....
 A#3|..|C-4 AF.F ....|A-5 UFFF ....|A#1 2A.F ....
 A#3|..|A#1 2A.F ....|--- .... ....|--- .... ....
....|..|R-- .... ....|--- .... ....|R-- .... ....
....|..|--- .... ....|--- .... ....|--- .... ....
 A#3|..|B-8 JF.F ....|A#5 UFFA ....|A#4 2C.F ....
 A#3|..|A#1 2A.F ....|--- .... ....|--- .... ....
....|..|A#3 2F1A ....|--- .... ....|R-- .... ....
....|..|--- .... ....|--- .... ....|R-- .... ....
 A#3|..|C-4 AF.F ....|G-5 UFFF ....|A#1 2A.F ....
 A#3|..|A#1 2A.F ....|--- .... ....|--- .... ....
....|..|R-- .... ....|--- .... ....|R-- .... ....
....|..|--- .... ....|R-- .... ....|R-- .... ....
 A#3|..|B-8 JF.F ....|A-5 UFFA ....|A#1 2A.F ....
 A#3|..|A#1 2A.F ....|--- .... ....|--- .... ....
....|..|R-- .... ....|--- .... ....|R-- .... ....
....|..|--- .... ....|R-- .... ....|--- .... ....
 A#3|..|C-4 AF.F ....|F-5 UFFF ....|A#1 2A.F ....
 A#3|..|A#1 2A.F ....|--- .... ....|--- .... ....
....|..|A#3 2F17 ....|--- .... ....|R-- .... ....
....|..|--- .... ....|--- .... ....|R-- .... ....
 A#3|..|B-8 JF.F ....|A#5 UFFF ....|A#1 2A.F ....
 A#3|..|A#1 2A.F ....|--- .... ....|--- .... ....
....|..|R-- .... ....|--- .... ....|R-- .... ....
....|..|--- .... ....|R-- .... ....|R-- .... ....
....|..|C-4 AF.F ....|A-5 UFF7 ....|A#3 4F6F ....
 A#3|..|A#1 2A.F ....|--- .... ....|--- .... ....
....|..|A#3 2F6F ....|--- .... ....|R-- .... ....
....|..|--- .... ....|R-- .... ....|--- .... ....
 A#3|..|B-8 JF.F ....|F-5 UFFA ....|A#4 2C.F ....
 A#3|..|A#1 2A.F ....|--- .... ....|--- .... ....
....|..|R-- .... ....|--- .... ....|R-- .... ....
....|..|--- .... ....|R-- .... ....|R-- .... ....
 A#3|..|C-4 AF.F ....|A-5 UFFF ....|A#1 2A.F ....
 A#3|..|A#1 2A.F ....|--- .... ....|--- .... ....
....|..|R-- .... ....|--- .... ....|R-- .... ....
....|..|--- .... ....|--- .... ....|--- .... ....
 A#3|..|B-8 JF.F ....|--- .... ....|A#4 2C.F ....
 A#3|..|A#1 2A.F ....|--- .... ....|--- .... ....
....|..|A#3 2F6A ....|--- .... ....|R-- .... ....
....|..|--- .... ....|R-- .... ....|R-- .... ....
 A#3|..|C-4 AF.F ....|G-5 UFFF ....|A#1 2A.F ....
 A#3|..|A#1 2A.F ....|--- .... ....|--- .... ....
....|..|R-- .... ....|--- .... ....|R-- .... ....
....|..|--- .... ....|R-- .... ....|R-- .... ....
 A#3|..|B-8 JF.F ....|A#5 UFF7 ....|A#1 2A.F ....
 A#3|..|A#1 2A.F ....|--- .... ....|--- .... ....
....|..|R-- .... ....|--- .... ....|R-- .... ....
....|..|--- .... ....|R-- .... ....|--- .... ....
 A#3|..|C-4 AF.F ....|F-5 UFFF ....|A#1 2A.F ....
 A#3|..|A#1 2A.F ....|--- .... ....|--- .... ....
....|..|A#3 2F67 ....|--- .... ....|R-- .... ....
....|..|--- .... ....|R-- .... ....|R-- .... ....
 A#3|..|B-8 JF.F ....|G-5 UFFA ....|A#1 2A.F ....
 A#3|..|A#1 2A.F ....|--- .... ....|--- .... ....
....|..|R-- .... ....|--- .... ....|R-- .... ....
....|..|--- .... ....|R-- .... ....|R-- .... ....

[Pattern7]
....|..|C-4 AF.F ....|F-5 UFFF ....|D-4 4F2F ....
 C-4|..|C-2 2A.F ....|--- .... ....|--- .... ....
....|..|D-4 2F2F ....|--- .... ....|R-- .... ....
....|..|--- .... ....|R-- .... ....|--- .... ....
 A#3|..|B-8 JF.F ....|F-5 UFFA ....|A#4 2C.F ....
 C-4|..|C-2 2A.F ....|--- .... ....|--- .F.. ....
....|..|R-- .... ....|--- .... ....|R-- .... ....
....|..|--- .... ....|R-- .... ....|R-- .... ....
 C-4|..|C-4 AF.F ....|G-5 UFF7 ....|C-2 2A.F ....
 C-4|..|C-2 2A.F ....|--- .... ....|--- .... ....
....|..|R-- .... ....|--- .... ....|R-- .... ....
....|..|--- .... ....|R-- .... ....|--- .... ....
 A#3|..|B-8 JF.F ....|G-5 UFFF ....|A#4 2C.F ....
 C-4|..|C-2 2A.F ....|--- .... ....|--- .F.. ....
....|..|D-4 2F2A ....|R-- .... ....|R-- .... ....
....|..|--- .... ....|R-- .... ....|R-- .... ....
 C-4|..|C-4 AF.F ....|G-5 UFFF ....|C-2 2A.F ....
 C-4|..|C-2 2A.F ....|--- .... ....|--- .... ....
....|..|R-- .... ....|--- .... ....|R-- .... ....
....|..|--- .... ....|--- .... ....|R-- .... ....
 C-4|..|B-8 JF.F ....|--- .... ....|C-2 2A.F ....
 C-4|..|C-2 2A.F ....|--- .... ....|--- .... ....
....|..|R-- .... ....|--- .... ....|R-- .... ....
....|..|--- .... ....|R-- .... ....|--- .... ....
 C-4|..|C-4 AF.F ....|F-5 UFF7 ....|C-2 2A.F ....
 C-4|..|C-2 2A.F ....|--- .... ....|--- .... ....
....|..|D-4 2F27 ....|R-- .... ....|R-- .... ....
....|..|--- .... ....|--- .... ....|R-- .... ....
 C-4|..|B-8 JF.F ....|G-5 UFFA ....|C-2 2A.F ....
 C-4|..|C-2 2A.F ....|--- .... ....|--- .... ....
....|..|R-- .... ....|--- .... ....|R-- .... ....
....|..|--- .... ....|--- .... ....|R-- .... ....
....|..|C-4 AF.F ....|R-- .... ....|D-4 4F2F ....
 C-4|..|C-2 2A.F ....|--- .... ....|--- .... ....
....|..|D-4 2F2F ....|--- .... ....|R-- .... ....
....|..|--- .... ....|R-- .... ....|--- .... ....
 A#3|..|B-8 JF.F ....|G-5 UFF7 ....|A#4 2C.F ....
 C-4|..|C-2 2A.F ....|--- .... ....|--- .F.. ....
....|..|R-- .... ....|R-- .... ....|R-- .... ....
....|..|--- .... ....|--- .... ....|R-- .... ....
 C-4|..|C-4 AF.F ....|G-5 UFF7 ....|C-2 2A.F ....
 C-4|..|C-2 2A.F ....|--- .... ....|--- .... ....
....|..|R-- .... ....|--- .... ....|R-- .... ....
....|..|--- .... ....|--- .... ....|--- .... ....
 C-3|..|B-8 JF.F ....|R-- .... ....|C-5 2C.F ....
 C-4|..|C-2 2A.F ....|--- .... ....|--- .... ....
....|..|D-4 2F2A ....|--- .... ....|R-- .... ....
....|..|--- .... ....|--- .... ....|R-- .... ....
 C-4|..|C-4 AF.F ....|--- .... ....|C-2 2A.F ....
 C-4|..|C-2 2A.F ....|--- .... ....|--- .... ....
....|..|R-- .... ....|--- .... ....|R-- .... ....
....|..|--- .... ....|--- .... ....|R-- .... ....
 C-4|..|B-8 JF.F ....|--- .... ....|C-2 2A.F ....
 C-4|..|C-2 2A.F ....|--- .... ....|--- .... ....
....|..|R-- .... ....|--- .... ....|R-- .... ....
....|..|--- .... ....|--- .... ....|--- .... ....
 C-4|..|C-4 AF.F ....|R-- .... ....|C-2 2A.F ....
 C-4|..|C-2 2A.F ....|--- .... ....|--- .... ....
....|..|D-4 2F27 ....|--- .... ....|R-- .... ....
....|..|--- .... ....|--- .... ....|R-- .... ....
 C-4|..|B-8 JF.F ....|--- .... ....|C-2 2A.F ....
 C-4|..|C-2 2A.F ....|--- .... ....|--- .... ....
....|..|R-- .... ....|--- .... ....|R-- .... ....
....|..|--- .... ....|--- .... ....|R-- .... ....

[Pattern8]
....|..|C-4 AF.F ....|--- .... ....|C-4 4F5F ....
 F-4|..|F-2 2A.F ....|--- .... ....|--- .... ....
....|..|C-4 2F5F ....|--- .... ....|R-- .... ....
....|..|--- .... ....|--- .... ....|--- .... ....
 A-3|..|B-8 JF.F ....|--- .... ....|A-4 2C.F ....
 F-4|..|F-2 2A.F ....|--- .... ....|--- .F.. ....
....|..|R-- .... ....|--- .... ....|R-- .... ....
....|..|--- .... ....|--- .... ....|R-- .... ....
 F-4|..|C-4 AF.F ....|F-5 UFFF ....|F-2 2A.F ....
 F-4|..|F-2 2A.F ....|--- .... ....|--- .... ....
....|..|R-- .... ....|--- .... ....|R-- .... ....
....|..|--- .... ....|--- .... ....|--- .... ....
 A-3|..|B-8 JF.F ....|--- .... ....|A-4 2C.F ....
 F-4|..|F-2 2A.F ....|--- .... ....|--- .F.. ....
....|..|C-4 2F5A ....|--- .... ....|R-- .... ....
....|..|--- .... ....|R-- .... ....|R-- .... ....
 F-4|..|C-4 AF.F ....|E-5 UFFF ....|F-2 2A.F ....
 F-4|..|F-2 2A.F ....|--- .... ....|--- .... ....
....|..|R-- .... ....|--- .... ....|R-- .... ....
....|..|--- .... ....|--- .... ....|R-- .... ....
 F-4|..|B-8 JF.F ....|F-5 UFFA ....|F-2 2A.F ....
 F-4|..|F-2 2A.F ....|--- .... ....|--- .... ....
....|..|R-- .... ....|--- .... ....|R-- .... ....
....|..|--- .... ....|R-- .... ....|--- .... ....
 F-4|..|C-4 AF.F ....|F-5 UFFF ....|F-2 2A.F ....
 F-4|..|F-2 2A.F ....|--- .... ....|--- .... ....
....|..|C-4 2F57 ....|--- .... ....|R-- .... ....
....|..|--- .... ....|R-- .... ....|R-- .... ....
 F-4|..|B-8 JF.F ....|C-5 UFFF ....|F-2 2A.F ....
 F-4|..|F-2 2A.F ....|--- .... ....|--- .... ....
....|..|R-- .... ....|--- .... ....|R-- .... ....
....|..|--- .... ....|--- .... ....|R-- .... ....
....|..|C-4 AF.F ....|F-5 UFF7 ....|C-4 4F1F ....
 E-4|..|E-2 2A.F ....|--- .... ....|--- .... ....
....|..|C-4 2F1F ....|--- .... ....|R-- .... ....
....|..|--- .... ....|R-- .... ....|--- .... ....
 C-3|..|B-8 JF.F ....|F-5 UFFA ....|C-5 2C.F ....
 E-4|..|E-2 2A.F ....|--- .... ....|--- .F.. ....
....|..|R-- .... ....|--- .... ....|R-- .... ....
....|..|--- .... ....|R-- .... ....|R-- .... ....
 E-4|..|C-4 AF.F ....|E-5 UFF7 ....|E-2 2A.F ....
 E-4|..|E-2 2A.F ....|--- .... ....|--- .... ....
....|..|R-- .... ....|--- .... ....|R-- .... ....
....|..|--- .... ....|--- .... ....|--- .... ....
 C-3|..|B-8 JF.F ....|--- .... ....|C-5 2C.F ....
 E-4|..|E-2 2A.F ....|--- .... ....|--- .F.. ....
....|..|C-4 2F1A ....|--- .... ....|R-- .... ....
....|..|--- .... ....|R-- .... ....|--- .... ....
 E-4|..|C-4 AF.F ....|F-5 UFF7 ....|E-2 2A.F ....
 E-4|..|E-2 2A.F ....|--- .... ....|--- .... ....
....|..|R-- .... ....|--- .... ....|R-- .... ....
....|..|--- .... ....|--- .... ....|R-- .... ....
 E-4|..|B-8 JF.F ....|C-5 UFF7 ....|E-2 2A.F ....
 E-4|..|E-2 2A.F ....|--- .... ....|--- .... ....
....|..|R-- .... ....|--- .... ....|R-- .... ....
....|..|--- .... ....|--- .... ....|--- .... ....
 E-4|..|C-4 AF.F ....|--- .... ....|E-2 2A.F ....
 E-4|..|E-2 2A.F ....|--- .... ....|--- .... ....
....|..|C-4 2F17 ....|--- .... ....|R-- .... ....
....|..|--- .... ....|--- .... ....|--- .... ....
 E-4|..|B-8 JF.F ....|R-- .... ....|E-2 2A.F ....
 E-4|..|E-2 2A.F ....|--- .... ....|--- .... ....
....|..|R-- .... ....|--- .... ....|R-- .... ....
....|..|--- .... ....|--- .... ....|R-- .... ....

[Pattern9]
....|..|C-4 AF.F ....|--- .... ....|D-4 4F6F ....
 D-4|..|D-2 2A.F ....|--- .... ....|--- .... ....
....|..|D-4 2F6F ....|--- .... ....|R-- .... ....
....|..|--- .... ....|--- .... ....|--- .... ....
 A-3|..|B-8 JF.F ....|--- .... ....|A-4 2C.F ....
 D-4|..|D-2 2A.F ....|--- .... ....|--- .F.. ....
....|..|R-- .... ....|--- .... ....|R-- .... ....
....|..|--- .... ....|--- .... ....|R-- .... ....
 D-4|..|C-4 AF.F ....|F-5 UFFF ....|D-2 2A.F ....
 D-4|..|D-2 2A.F ....|--- .... ....|--- .... ....
....|..|R-- .... ....|--- .... ....|R-- .... ....
....|..|--- .... ....|--- .... ....|--- .... ....
 A-3|..|B-8 JF.F ....|--- .... ....|A-4 2C.F ....
 D-4|..|D-2 2A.F ....|--- .... ....|--- .F.. ....
....|..|D-4 2F6A ....|--- .... ....|R-- .... ....
....|..|--- .... ....|R-- .... ....|R-- .... ....
 D-4|..|C-4 AF.F ....|E-5 UFFF ....|D-2 2A.F ....
 D-4|..|D-2 2A.F ....|--- .... ....|--- .... ....
....|..|R-- .... ....|--- .... ....|R-- .... ....
....|..|--- .... ....|--- .... ....|R-- .... ....
 D-4|..|B-8 JF.F ....|F-5 UFFA ....|D-2 2A.F ....
 D-4|..|D-2 2A.F ....|--- .... ....|--- .... ....
....|..|R-- .... ....|--- .... ....|R-- .... ....
....|..|--- .... ....|R-- .... ....|--- .... ....
 D-4|..|C-4 AF.F ....|F-5 UFFF ....|D-2 2A.F ....
 D-4|..|D-2 2A.F ....|--- .... ....|--- .... ....
....|..|D-4 2F67 ....|--- .... ....|R-- .... ....
....|..|--- .... ....|R-- .... ....|R-- .... ....
 D-4|..|B-8 JF.F ....|C-6 UFFF ....|D-2 2A.F ....
 D-4|..|D-2 2A.F ....|--- .... ....|--- .... ....
....|..|R-- .... ....|--- .... ....|R-- .... ....
....|..|--- .... ....|--- .... ....|R-- .... ....
....|..|C-4 AF.F ....|F-5 UFF7 ....|C-4 4F7F ....
 C-4|..|C-2 2A.F ....|--- .... ....|--- .... ....
....|..|C-4 2F7F ....|--- .... ....|R-- .... ....
....|..|--- .... ....|R-- .... ....|--- .... ....
 C-3|..|B-8 JF.F ....|F-5 UFFA ....|C-5 2C.F ....
 C-4|..|C-2 2A.F ....|--- .... ....|--- .... ....
....|..|R-- .... ....|--- .... ....|R-- .... ....
 C-3|..|--- .... ....|R-- .... ....|C-5 2C.F ....
 C-4|..|C-4 AF.F ....|E-5 UFF7 ....|C-2 2A.F ....
 C-4|..|C-2 2A.F ....|--- .... ....|--- .... ....
....|..|R-- .... ....|--- .... ....|R-- .... ....
....|..|--- .... ....|--- .... ....|--- .... ....
 C-3|..|B-8 JF.F ....|--- .... ....|C-5 2C.F ....
 C-4|..|C-2 2A.F ....|--- .... ....|--- .... ....
....|..|C-4 2F7A ....|--- .... ....|R-- .... ....
....|..|--- .... ....|R-- .... ....|R-- .... ....
....|..|C-4 AF.F ....|F-5 UFF7 ....|D-4 4F1F ....
 D-4|..|D-2 2A.F ....|--- .... ....|--- .... ....
....|..|D-4 2F1F ....|--- .... ....|R-- .... ....
....|..|--- .... ....|--- .... ....|C-5 2F.A ....
 D-4|..|B-8 JF.F ....|C-6 UFF7 ....|D-2 2A.F ....
 D-4|..|D-2 2A.F ....|--- .... ....|--- .... ....
....|..|R-- .... ....|--- .... ....|R-- .... ....
....|..|--- .... ....|--- .... ....|--- .... ....
 D-4|..|C-4 AF.F ....|--- .... ....|D-2 2A.F ....
 D-4|..|D-2 2A.F ....|--- .... ....|--- .... ....
....|..|C-4 2F77 ....|--- .... ....|R-- .... ....
....|..|--- .... ....|--- .... ....|R-- .... ....
 D-4|..|B-8 JF.F ....|R-- .... ....|D-2 2A.F ....
 D-4|..|D-2 2A.F ....|--- .... ....|--- .... ....
....|..|D-4 2F1A ....|--- .... ....|R-- .... ....
....|..|--- .... ....|--- .... ....|C-5 2F.7 ....

[Pattern10]
....|..|C-4 AF.F ....|A#5 UFFF ....|D-4 4F8F ....
 G-4|..|G-2 2A.F ....|--- .... ....|--- .... ....
....|..|D-4 2F8F ....|--- .... ....|R-- .... ....
....|..|--- .... ....|R-- .... ....|--- .... ....
 A#3|..|B-8 JF.F ....|A#5 UFFF ....|A#4 2C.F ....
 G-4|..|G-2 2A.F ....|--- .... ....|--- .F.. ....
....|..|R-- .... ....|--- .... ....|R-- .... ....
....|..|--- .... ....|R-- .... ....|R-- .... ....
 G-4|..|C-4 AF.F ....|A#5 UFFF ....|G-2 2A.F ....
 G-4|..|G-2 2A.F ....|--- .... ....|--- .... ....
....|..|D-4 2F17 ....|--- .... ....|R-- .... ....
....|..|--- .... ....|R-- .... ....|--- .... ....
 A#3|..|B-8 JF.F ....|A#5 UFFF ....|A#4 2C.F ....
 G-4|..|G-2 2A.F ....|--- .... ....|--- .F.. ....
....|..|D-4 2F8A ....|R-- .... ....|R-- .... ....
....|..|--- .... ....|R-- .... ....|R-- .... ....
 G-4|..|C-4 AF.F ....|A#5 UFFF ....|G-2 2A.F ....
 G-4|..|G-2 2A.F ....|--- .... ....|--- .... ....
....|..|R-- .... ....|--- .... ....|R-- .... ....
....|..|--- .... ....|R-- .... ....|R-- .... ....
 G-4|..|B-8 JF.F ....|A-5 UFFF ....|G-2 2A.F ....
 G-4|..|G-2 2A.F ....|--- .... ....|--- .... ....
....|..|R-- .... ....|--- .... ....|R-- .... ....
....|..|--- .... ....|R-- .... ....|--- .... ....
....|..|C-4 AF.F ....|G-5 UFFF ....|F-4 4F.F ....
 G-4|..|G-2 2A.F ....|--- .... ....|--- .... ....
....|..|D-4 2F87 ....|R-- .... ....|R-- .... ....
....|..|--- .... ....|R-- .... ....|R-- .... ....
 G-4|..|B-8 JF.F ....|A#5 UFFF ....|G-2 2A.F ....
 G-4|..|G-2 2A.F ....|--- .... ....|--- .... ....
....|..|R-- .... ....|--- .... ....|R-- .... ....
....|..|--- .... ....|R-- .... ....|R-- .... ....
....|..|C-4 AF.F ....|G-4 3F.F ....|G-4 4F.F ....
 A#3|..|A#1 2A.F ....|--- .... ....|--- .... ....
....|..|C#4 2F4F ....|--- .... ....|R-- .... ....
....|..|--- .... ....|R-- .... ....|--- .... ....
 A#3|..|B-8 JF.F ....|A#5 UFF7 ....|A#4 2C.F ....
 A#3|..|A#1 2A.F ....|--- .... ....|--- .... ....
....|..|R-- .... ....|R-- .... ....|R-- .... ....
....|..|--- .... ....|--- .... ....|R-- .... ....
 A#3|..|C-4 AF.F ....|A#5 UFF7 ....|A#1 2A.F ....
 A#3|..|A#1 2A.F ....|--- .... ....|--- .... ....
....|..|R-- .... ....|--- .... ....|R-- .... ....
....|..|--- .... ....|--- .... ....|--- .... ....
 A#3|..|B-8 JF.F ....|A-5 UFF7 ....|A#4 2C.F ....
 A#3|..|A#1 2A.F ....|--- .... ....|--- .... ....
....|..|C#4 2F4A ....|--- .... ....|R-- .... ....
....|..|--- .... ....|--- .... ....|R-- .... ....
 A#3|..|C-4 AF.F ....|G-5 UFF7 ....|A#1 2A.F ....
 A#3|..|A#1 2A.F ....|--- .... ....|--- .... ....
....|..|R-- .... ....|--- .... ....|R-- .... ....
....|..|--- .... ....|--- .... ....|R-- .... ....
 A#3|..|B-8 JF.F ....|G-5 UFFF ....|A#1 2A.F ....
 A#3|..|A#1 2A.F ....|--- .... ....|--- .... ....
....|..|R-- .... ....|--- .... ....|R-- .... ....
....|..|--- .... ....|--- .... ....|--- .... ....
 A#3|..|C-4 AF.F ....|A-5 UFFF ....|A#1 2A.F ....
 A#3|..|A#1 2A.F ....|--- .... ....|--- .... ....
....|..|C#4 2F47 ....|--- .... ....|R-- .... ....
....|..|--- .... ....|R-- .... ....|R-- .... ....
 A#3|..|B-8 JF.F ....|A#5 UFFF ....|A#1 2A.F ....
 A#3|..|A#1 2A.F ....|--- .... ....|--- .... ....
....|..|R-- .... ....|--- .... ....|R-- .... ....
....|..|--- .... ....|R-- .... ....|R-- .... ....

[Pattern11]
....|..|C-4 AF.F ....|A-5 UFFF ....|A-4 4F.F ....
 F-4|..|F-2 2A.F ....|A-4 3F.F ....|A-4 4F.F ....
....|..|C-4 2F5F ....|--- .... ....|R-- .... ....
....|..|--- .... ....|--- .... ....|--- .... ....
 A-3|..|B-8 JF.F ....|A-5 UFFA ....|A-4 2C.F ....
 F-4|..|F-2 2A.F ....|--- .... ....|--- .F.. ....
....|..|R-- .... ....|R-- .... ....|R-- .... ....
....|..|--- .... ....|R-- .... ....|R-- .... ....
 F-4|..|C-4 AF.F ....|A-5 UFFF ....|F-2 2A.F ....
 F-4|..|F-2 2A.F ....|--- .... ....|--- .... ....
....|..|R-- .... ....|--- .... ....|R-- .... ....
....|..|--- .... ....|R-- .... ....|--- .... ....
 A-3|..|B-8 JF.F ....|G-5 UFF7 ....|A-4 2C.F ....
 F-4|..|F-2 2A.F ....|A-4 3F.A ....|A-4 4F.A ....
....|..|C-4 2F5A ....|--- .... ....|R-- .... ....
 F-4|..|--- .... ....|R-- .... ....|F-4 2C.F ....
 F-4|..|C-4 AF.F ....|A-5 UFFF ....|F-2 2A.F ....
 F-4|..|F-2 2A.F ....|--- .... ....|--- .... ....
....|..|R-- .... ....|R-- .... ....|R-- .... ....
....|..|--- .... ....|R-- .... ....|R-- .... ....
 F-4|..|B-8 JF.F ....|G-5 UFFF ....|F-2 2A.F ....
 F-4|..|F-2 2A.F ....|--- .... ....|--- .... ....
....|..|R-- .... ....|--- .... ....|R-- .... ....
....|..|--- .... ....|R-- .... ....|--- .... ....
 F-4|..|C-4 AF.F ....|F-5 UFFF ....|F-2 2A.F ....
 F-4|..|F-2 2A.F ....|A-4 3F.7 ....|A-4 4F.7 ....
....|..|C-4 2F57 ....|--- .... ....|R-- .... ....
....|..|--- .... ....|R-- .... ....|F-4 2F.A ....
 F-4|..|B-8 JF.F ....|A-5 UFFF ....|F-2 2A.F ....
 F-4|..|F-2 2A.F ....|--- .... ....|--- .... ....
....|..|R-- .... ....|R-- .... ....|R-- .... ....
....|..|--- .... ....|--- .... ....|R-- .... ....
....|..|C-4 AF.F ....|A-5 UFF7 ....|D-4 4F1F ....
 D-4|..|D-2 2A.F ....|--- .... ....|--- .... ....
....|..|D-4 2F1F ....|--- .... ....|R-- .... ....
....|..|--- .... ....|--- .... ....|--- .... ....
 A-3|..|B-8 JF.F ....|F-5 UFFA ....|A-4 2C.F ....
 D-4|..|D-2 2A.F ....|--- .... ....|--- .F.. ....
....|..|R-- .... ....|--- .... ....|R-- .... ....
....|..|--- .... ....|R-- .... ....|F-4 2F.7 ....
....|..|C-4 AF.F ....|A-4 3F.F ....|A-4 4F.F ....
 D-4|..|D-2 2A.F ....|--- .... ....|--- .... ....
....|..|R-- .... ....|--- .... ....|R-- .... ....
....|..|--- .... ....|--- .... ....|--- .... ....
....|..|B-8 JF.F ....|A#4 3F.F ....|A#4 4F.F ....
 D-4|..|D-2 2A.F ....|--- .... ....|--- .... ....
....|..|D-4 2F1A ....|--- .... ....|R-- .... ....
....|..|--- .... ....|--- .... ....|R-- .... ....
....|..|C-4 AF.F ....|C-5 3F.F ....|C-5 4F.F ....
 D-4|..|D-2 2A.F ....|R-- .... ....|--- .... ....
....|..|R-- .... ....|--- .... ....|R-- .... ....
....|..|--- .... ....|R-- .... ....|R-- .... ....
....|..|C-4 LF.F ....|D#5 3F.F ....|D#5 4F.F ....
 D-4|..|D-2 2A.F ....|--- .... ....|--- .... ....
....|..|R-- .... ....|--- .... ....|R-- .... ....
....|..|--- .... ....|--- .... ....|--- .... ....
....|..|C-4 AF.F ....|D-5 3F.F ....|D-5 4F.F ....
 D-4|..|D-2 2A.F ....|--- .... ....|--- .... ....
....|..|D-4 2F17 ....|E-5 3F.F ....|E-5 4F.F ....
....|..|--- .... ....|--- .... ....|R-- .... ....
....|..|C-3 RF.F ....|F#5 3F.F ....|F#5 4F.F ....
 D-4|..|D-2 2A.F ....|R-- .... ....|--- .... ....
....|..|R-- .... ....|A-5 3F.F ....|A-5 4F.F ....
....|..|--- .... ....|--- .... ....|R-- .... ....

[Pattern12]
....|..|C-4 AF.F ....|D-5 UFFF ....|A#5 4F.F ....
 A#3|..|A#1 2A.F ....|--- .... ....|--- .... ....
....|..|A#3 2F1F ....|--- .... ....|R-- .... ....
....|..|--- .... ....|--- .... ....|--- .... ....
 A#3|..|B-8 JF.F ....|A#4 3F.7 ....|A#4 2C.F ....
 A#3|..|A#1 2A.F ....|--- .... ....|--- .... ....
....|..|R-- .... ....|E-5 3F.A ....|E-5 4F.A ....
....|..|--- .... ....|--- .... ....|R-- .... ....
 A#3|..|C-4 AF.F ....|E-5 UFFF ....|A#1 2A.F ....
 A#3|..|A#1 2A.F ....|R-- .... ....|--- .... ....
....|..|R-- .... ....|A-5 3F.A ....|A-5 4F.A ....
....|..|--- .... ....|--- .... ....|--- .... ....
 A#3|..|B-8 JF.F ....|D#5 3F.7 ....|A#4 2C.F ....
 A#3|..|A#1 2A.F ....|--- .... ....|--- .... ....
....|..|A#3 2F1A ....|--- .... ....|R-- .... ....
....|..|--- .... ....|R-- .... ....|--- .... ....
 A#3|..|C-4 AF.F ....|F-5 UFFF ....|A#1 2A.F ....
 A#3|..|A#1 2A.F ....|--- .... ....|--- .... ....
....|..|R-- .... ....|E-5 3F.7 ....|E-5 4F.7 ....
....|..|--- .... ....|--- .... ....|R-- .... ....
 A#3|..|B-8 JF.F ....|F#5 3F.7 ....|A#1 2A.F ....
 A#3|..|A#1 2A.F ....|--- .... ....|--- .... ....
....|..|R-- .... ....|A-5 3F.7 ....|A-5 4F.7 ....
....|..|--- .... ....|R-- .... ....|--- .... ....
 A#3|..|C-4 AF.F ....|G-5 UFFF ....|A#1 2A.F ....
 A#3|..|A#1 2A.F ....|--- .... ....|--- .... ....
....|..|A#3 2F17 ....|--- .... ....|R-- .... ....
....|..|--- .... ....|R-- .... ....|--- .... ....
 A#3|..|B-8 JF.F ....|D-5 UFFF ....|A#1 2A.F ....
 A#3|..|A#1 2A.F ....|--- .... ....|D-4 4F9F ....
....|..|D-4 2F9F ....|--- .... ....|R-- .... ....
....|..|--- .... ....|--- .... ....|R-- .... ....
....|..|C-4 AF.F ....|E-5 UFF7 ....|A#3 4F1F ....
 A#3|..|A#1 2A.F ....|--- .... ....|--- .... ....
....|..|A#3 2F1F ....|--- .... ....|R-- .... ....
....|..|--- .... ....|R-- .... ....|--- .... ....
 A#3|..|B-8 JF.F ....|D-5 UFFF ....|A#4 2C.F ....
 A#3|..|A#1 2A.F ....|--- .... ....|--- .... ....
....|..|R-- .... ....|--- .... ....|R-- .... ....
....|..|--- .... ....|R-- .... ....|R-- .... ....
 A#3|..|C-4 AF.F ....|E-5 UFFF ....|A#1 2A.F ....
 A#3|..|A#1 2A.F ....|--- .... ....|D-4 4F9A ....
....|..|D-4 2F9A ....|--- .... ....|R-- .... ....
....|..|--- .... ....|--- .... ....|--- .... ....
 A#3|..|B-8 JF.F ....|--- .... ....|A#4 2C.F ....
 A#3|..|A#1 2A.F ....|--- .... ....|--- .... ....
....|..|A#3 2F1A ....|--- .... ....|R-- .... ....
....|..|--- .... ....|R-- .... ....|R-- .... ....
 A#3|..|C-4 AF.F ....|F-5 UFFF ....|A#1 2A.F ....
 A#3|..|A#1 2A.F ....|--- .... ....|--- .... ....
....|..|R-- .... ....|--- .... ....|R-- .... ....
....|..|--- .... ....|R-- .... ....|R-- .... ....
 A#3|..|B-8 JF.F ....|G-5 UFFF ....|A#1 2A.F ....
 A#3|..|A#1 2A.F ....|--- .... ....|D-4 4F97 ....
....|..|D-4 2F97 ....|--- .... ....|R-- .... ....
....|..|--- .... ....|R-- .... ....|--- .... ....
....|..|C-4 AF.F ....|F-5 UFFF ....|F-5 4F.F ....
 A#3|..|A#1 2A.F ....|--- .... ....|--- .... ....
....|..|A#3 2F17 ....|G-5 3F.F ....|G-5 4F.F ....
....|..|--- .... ....|R-- .... ....|R-- .... ....
....|..|C-4 CF.F ....|C-6 UFFF ....|A-5 4F.F ....
 A#3|..|A#1 2A.F ....|--- .... ....|--- .... ....
....|..|C-4 CF.F ....|A#5 3F.F ....|A#5 4F.F ....
....|..|R-- .... ....|R-- .... ....|R-- .... ....

[Pattern13]
....|..|C-4 AF.F ....|C-6 3F.F ....|C-6 4F.F ....
 C-4|..|C-2 2A.F ....|--- .... ....|R-- .... ....
....|..|C-4 LF.F ....|C-6 3F.F ....|C-6 4F.F ....
 F-4|..|C-2 2F.F ....|R-- .... ....|F-4 2C.F ....
....|..|C-4 LF.F ....|F-5 UFFA ....|A#4 2F.7 ....
....|..|A#3 2F1F ....|--- .... ....|--- .... ....
....|..|R-- .... ....|G-5 3F.A ....|G-5 4F.A ....
....|..|--- .... ....|R-- .... ....|R-- .... ....
....|..|C-4 AF.F ....|F-5 UFF7 ....|A#1 2F.7 ....
....|..|A#1 2F.7 ....|--- .... ....|--- .... ....
....|..|C-4 CF.A ....|A#5 3F.A ....|A#5 4F.A ....
....|..|R-- .... ....|--- .... ....|--- .... ....
....|..|C-4 LF.F ....|C-6 3F.F ....|C-6 4F.F ....
 C-4|..|C-2 2A.F ....|--- .... ....|R-- .... ....
....|..|C-4 LF.F ....|C-6 3F.F ....|C-6 4F.F ....
 C-4|..|C-2 2A.F ....|R-- .... ....|F-4 2F.A ....
....|..|C-4 AF.F ....|F-5 UFF7 ....|F-5 4F.7 ....
....|..|A#3 2F1F ....|--- .... ....|--- .... ....
....|..|R-- .... ....|G-5 3F.7 ....|G-5 4F.7 ....
....|..|--- .... ....|R-- .... ....|--- .... ....
....|..|C-4 9F.F ....|C-6 UFF7 ....|A-5 4F.7 ....
....|..|A#1 2F.7 ....|--- .... ....|--- .... ....
....|..|C-4 CF.7 ....|A#5 3F.7 ....|A#5 4F.7 ....
....|..|R-- .... ....|--- .... ....|--- .... ....
....|..|C-4 AF.F ....|C-6 3F.F ....|C-6 4F.F ....
 C-4|..|C-2 2A.F ....|--- .... ....|R-- .... ....
....|..|C-4 LF.F ....|C-6 3F.F ....|C-6 4F.F ....
 C-4|..|C-2 2A.F ....|--- .... ....|F-4 2F.7 ....
....|..|C-4 LF.F ....|R-- .... ....|R-- .... ....
....|..|A#3 2F1F ....|--- .... ....|--- .... ....
....|..|R-- .... ....|--- .... ....|--- .... ....
....|..|--- .... ....|--- .... ....|--- .... ....
....|..|C-4 9F.F ....|--- .... ....|--- .... ....
....|..|--- .... ....|--- .... ....|--- .... ....
....|..|--- .... ....|--- .... ....|--- .... ....
....|..|--- .... ....|--- .... ....|--- .... ....
....|..|C-4 AF.F ....|C-6 3F.F ....|C-6 4F.F ....
 C-4|..|C-2 2A.F ....|--- .... ....|R-- .... ....
....|..|A#3 2F1F ....|C-6 3F.7 ....|C-6 4F.7 ....
....|..|C-2 2F.7 ....|--- .... ....|R-- .... ....
....|..|C-4 AF.F ....|C-6 3F.F ....|C-6 4F.F ....
 C-4|..|C-2 2A.F ....|--- .... ....|--- .... ....
....|..|A#3 2F1F ....|--- .... ....|--- .... ....
....|..|--- .... ....|--- .... ....|--- .... ....
....|..|C-4 9F.7 ....|--- .... ....|--- .... ....
....|..|--- .... ....|--- .... ....|--- .... ....
....|..|--- .... ....|--- .... ....|--- .... ....
....|..|--- .... ....|--- .... ....|--- .... ....
....|..|C-4 AF.7 ....|F-5 UFFF ....|C-6 4F.7 ....
....|..|C-2 2F.7 ....|--- .... ....|R-- .... ....
....|..|C-4 LF.7 ....|C-6 3F.7 ....|C-6 4F.7 ....
....|..|C-2 2F.7 ....|--- .... ....|R-- .... ....
....|..|C-4 LF.7 ....|G-5 UFFF ....|C-6 4F.A ....
....|..|A#3 2F17 ....|--- .... ....|--- .... ....
....|..|A#3 2F1A ....|--- .... ....|--- .... ....
....|..|--- .... ....|--- .... ....|--- .... ....
....|..|C-4 9F.7 ....|A-5 UFFF ....|--- .... ....
....|..|--- .... ....|--- .... ....|--- .... ....
....|..|--- .... ....|--- .... ....|--- .... ....
....|..|R-- .... ....|--- .... ....|R-- .... ....
....|..|C-4 AF.7 ....|A#5 UFFF ....|C-6 4F.7 ....
....|..|C-2 2F.7 ....|--- .... ....|R-- .... ....
....|..|A#3 2F17 ....|R-- .... ....|R-- .... ....
....|..|R-- .... ....|--- .... ....|R-- .... ....

[Pattern14]
....|..|C-4 AF.F ....|C-6 UFFF ....|C-4 4F5F ....
 F-4|..|F-2 2A.F ....|--- .... ....|--- .... ....
....|..|C-4 2F5F ....|--- .... ....|R-- .... ....
....|..|--- .... ....|--- .... ....|--- .... ....
 F-4|..|B-8 JF.F ....|A-5 UFFA ....|F-4 2C.F ....
 F-4|..|F-2 2A.F ....|R-- .... ....|--- .... ....
....|..|R-- .... ....|--- .... ....|R-- .... ....
....|..|R-- .... ....|--- .... ....|R-- .... ....
....|..|C-4 AF.F ....|A-5 UFFF ....|F-5 4F.F ....
 F-4|..|F-2 2A.F ....|--- .... ....|--- .... ....
....|..|R-- .... ....|G-5 3F.F ....|G-5 4F.F ....
....|..|R-- .... ....|R-- .... ....|R-- .... ....
....|..|B-8 JF.F ....|F-5 UFFF ....|A-5 4F.F ....
 F-4|..|F-2 2A.F ....|--- .... ....|--- .... ....
....|..|C-4 2F5A ....|A#5 3F.F ....|A#5 4F.F ....
....|..|--- .... ....|--- .... ....|--- .... ....
....|..|C-4 AF.F ....|C-6 3F.F ....|C-6 4F.F ....
 F-4|..|F-2 2A.F ....|R-- .... ....|--- .... ....
....|..|R-- .... ....|--- .... ....|R-- .... ....
....|..|R-- .... ....|--- .... ....|R-- .... ....
 F-4|..|B-8 JF.F ....|C-6 UFFF ....|F-2 2A.F ....
 F-4|..|F-2 2A.F ....|--- .... ....|--- .... ....
....|..|R-- .... ....|G-5 3F.A ....|G-5 4F.A ....
....|..|R-- .... ....|R-- .... ....|R-- .... ....
 F-4|..|C-4 AF.F ....|C-6 UFF7 ....|F-2 2A.F ....
 F-4|..|F-2 2A.F ....|--- .... ....|--- .... ....
....|..|C-4 2F57 ....|A#5 3F.A ....|A#5 4F.A ....
....|..|--- .... ....|--- .... ....|--- .... ....
 F-4|..|B-8 JF.F ....|A#5 UFFF ....|F-2 2A.F ....
 F-4|..|F-2 2A.F ....|R-- .... ....|--- .... ....
....|..|R-- .... ....|--- .... ....|R-- .... ....
....|..|--- .... ....|--- .... ....|--- .... ....
....|..|C-4 AF.F ....|A-5 UFF7 ....|C-4 4F1F ....
 C-4|..|C-2 2A.F ....|--- .... ....|--- .... ....
....|..|C-4 2F1F ....|G-5 3F.7 ....|G-5 4F.7 ....
....|..|--- .... ....|R-- .... ....|--- .... ....
 E-4|..|B-8 JF.F ....|G-5 UFFF ....|E-4 2C.F ....
 C-4|..|C-2 2A.F ....|--- .... ....|--- .F.. ....
....|..|R-- .... ....|A#5 3F.7 ....|A#5 4F.7 ....
....|..|--- .... ....|R-- .... ....|--- .... ....
 G-4|..|C-4 AF.F ....|C-6 3F.7 ....|G-4 2C.F ....
 C-4|..|C-2 2A.F ....|--- .... ....|--- .F.. ....
....|..|R-- .... ....|--- .... ....|R-- .... ....
....|..|--- .... ....|--- .... ....|--- .... ....
 C-3|..|B-8 JF.F ....|C-6 UFF7 ....|C-5 2C.F ....
 C-4|..|C-2 2A.F ....|--- .... ....|--- .... ....
....|..|C-4 2F1A ....|--- .... ....|R-- .... ....
....|..|--- .... ....|R-- .... ....|--- .... ....
 C-4|..|C-4 AF.F ....|G-5 UFFA ....|C-2 2A.F ....
 C-4|..|C-2 2A.F ....|--- .... ....|--- .... ....
....|..|R-- .... ....|--- .... ....|R-- .... ....
....|..|--- .... ....|R-- .... ....|--- .... ....
 G-4|..|B-8 JF.F ....|A#5 UFF7 ....|G-4 2C.F ....
 C-4|..|C-2 2A.F ....|--- .... ....|--- .F.. ....
....|..|R-- .... ....|--- .... ....|R-- .... ....
....|..|--- .... ....|--- .... ....|--- .... ....
 E-4|..|C-4 AF.F ....|--- .... ....|E-4 2C.F ....
 C-4|..|C-2 2A.F ....|--- .... ....|--- .F.. ....
....|..|C-4 2F17 ....|--- .... ....|R-- .... ....
....|..|--- .... ....|R-- .... ....|--- .... ....
 C-4|..|B-8 JF.F ....|G-5 UFF7 ....|C-2 2A.F ....
 C-4|..|C-2 2A.F ....|--- .... ....|--- .... ....
....|..|R-- .... ....|--- .... ....|R-- .... ....
....|..|--- .... ....|R-- .... ....|--- .... ....

[Pattern15]
....|..|C-4 AF.F ....|A#5 UFFF ....|C-4 4F1F ....
 C-4|..|C-2 2A.F ....|R-- .... ....|R-- .... ....
....|..|C-4 2F1F ....|--- .... ....|R-- .... ....
....|..|--- .... ....|--- .... ....|--- .... ....
 C-3|..|B-8 JF.F ....|R-- .... ....|C-4 2C.F ....
 C-4|..|C-2 2A.F ....|--- .... ....|--- .... ....
....|..|R-- .... ....|--- .... ....|R-- .... ....
....|..|--- .... ....|--- .... ....|--- .... ....
 E-4|..|C-4 AF.F ....|G-5 UFFF ....|E-4 2C.F ....
 C-4|..|C-2 2A.F ....|--- .... ....|--- .F.. ....
....|..|R-- .... ....|--- .... ....|R-- .... ....
....|..|--- .... ....|R-- .... ....|--- .... ....
....|..|B-8 JF.F ....|E-5 UFFF ....|C-5 4F.F ....
 C-4|..|C-2 2A.F ....|R-- .... ....|R-- .... ....
....|..|C-4 2F1A ....|--- .... ....|R-- .... ....
....|..|--- .... ....|--- .... ....|--- .... ....
....|..|C-4 AF.F ....|A#5 3F.F ....|A#5 4F.F ....
 C#4|..|C#2 2A.F ....|--- .... ....|--- .... ....
....|..|C#4 2F3F ....|--- .... ....|R-- .... ....
....|..|--- .... ....|--- .... ....|--- .... ....
 E-4|..|B-8 JF.F ....|A#5 UFFF ....|E-4 2C.F ....
 C#4|..|C#2 2A.F ....|--- .... ....|--- .F.. ....
....|..|R-- .... ....|--- .... ....|R-- .... ....
....|..|--- .... ....|R-- .... ....|--- .... ....
 G-4|..|C-4 AF.F ....|A#5 UFF7 ....|G-4 2C.F ....
 C#4|..|C#2 2A.F ....|R-- .... ....|R-- .... ....
....|..|C-4 2F17 ....|--- .... ....|R-- .... ....
....|..|--- .... ....|--- .... ....|--- .... ....
 C#4|..|B-8 JF.F ....|A-5 UFFF ....|C#5 2C.F ....
 C#4|..|C#2 2A.F ....|--- .... ....|--- .... ....
....|..|C#4 2F3A ....|--- .... ....|R-- .... ....
....|..|--- .... ....|--- .... ....|--- .... ....
....|..|C-4 AF.F ....|G-5 UFF7 ....|D-4 4F6F ....
 D-4|..|D-2 2A.F ....|R-- .... ....|R-- .... ....
....|..|D-4 2F6F ....|--- .... ....|R-- .... ....
....|..|--- .... ....|R-- .... ....|--- .... ....
 F-4|..|B-8 JF.F ....|F-5 UFFF ....|F-4 2C.F ....
 D-4|..|D-2 2A.F ....|R-- .... ....|--- .F.. ....
....|..|R-- .... ....|--- .... ....|R-- .... ....
....|..|--- .... ....|R-- .... ....|--- .... ....
 A-3|..|C-4 AF.F ....|A#5 3F.7 ....|A-4 2C.F ....
 D-4|..|D-2 2A.F ....|--- .... ....|--- .F.. ....
....|..|C#4 2F37 ....|--- .... ....|R-- .... ....
....|..|--- .... ....|--- .... ....|--- .... ....
....|..|B-8 JF.F ....|D-5 3F.F ....|D-5 4F.F ....
 D-4|..|D-2 2A.F ....|R-- .... ....|R-- .... ....
....|..|D-4 2F6A ....|--- .... ....|R-- .... ....
....|..|--- .... ....|--- .... ....|--- .... ....
....|..|C-4 AF.F ....|D-6 3F.F ....|D-6 4F.F ....
 D-4|..|D-2 2A.F ....|R-- .... ....|--- .... ....
....|..|R-- .... ....|--- .... ....|R-- .... ....
....|..|--- .... ....|R-- .... ....|--- .... ....
....|..|B-8 JF.F ....|C-6 3F.F ....|C-6 4F.F ....
 D-4|..|D-2 2A.F ....|--- .... ....|--- .... ....
....|..|R-- .... ....|--- .... ....|R-- .... ....
....|..|--- .... ....|--- .... ....|--- .... ....
....|..|C-4 AF.F ....|A#5 3F.F ....|A#5 4F.F ....
 D-4|..|D-2 2A.F ....|R-- .... ....|R-- .... ....
....|..|D-4 2F67 ....|--- .... ....|R-- .... ....
....|..|--- .... ....|--- .... ....|--- .... ....
....|..|B-8 JF.F ....|A-5 3F.F ....|A-5 4F.F ....
 D-4|..|D-2 2A.F ....|--- .... ....|--- .... ....
....|..|R-- .... ....|--- .... ....|R-- .... ....
....|..|--- .... ....|R-- .... ....|--- .... ....

[Pattern16]
....|..|C-4 AF.F ....|A#5 3F.F ....|A#5 4F.F ....
 A#3|..|A#1 2A.F ....|--- .... ....|--- .... ....
....|..|A#3 2F6F ....|--- .... ....|R-- .... ....
....|..|--- .... ....|--- .... ....|--- .... ....
 C#4|..|B-8 JF.F ....|D-5 3F.7 ....|C#4 2C.F ....
 A#3|..|A#1 2A.F ....|--- .... ....|--- .F.. ....
....|..|R-- .... ....|--- .... ....|R-- .... ....
....|..|--- .... ....|--- .... ....|--- .... ....
 F-4|..|C-4 AF.F ....|C#5 UFFF ....|F-4 2C.F ....
 A#3|..|A#1 2A.F ....|--- .... ....|--- .F.. ....
....|..|R-- .... ....|--- .... ....|R-- .... ....
....|..|--- .... ....|--- .... ....|--- .... ....
 A#3|..|B-8 JF.F ....|C-6 3F.7 ....|A#4 2C.F ....
 A#3|..|A#1 2A.F ....|--- .... ....|--- .... ....
....|..|A#3 2F6A ....|--- .... ....|R-- .... ....
....|..|--- .... ....|R-- .... ....|--- .... ....
 A#3|..|C-4 AF.F ....|F-5 UFFF ....|A#1 2A.F ....
 A#3|..|A#1 2A.F ....|--- .... ....|--- .... ....
....|..|R-- .... ....|--- .... ....|R-- .... ....
....|..|--- .... ....|--- .... ....|--- .... ....
 F-4|..|B-8 JF.F ....|A-5 3F.7 ....|F-4 2C.F ....
 A#3|..|A#1 2A.F ....|--- .... ....|--- .F.. ....
....|..|R-- .... ....|--- .... ....|R-- .... ....
....|..|--- .... ....|--- .... ....|--- .... ....
 C#4|..|C-4 AF.F ....|A#5 UFFF ....|C#4 2C.F ....
 A#3|..|A#1 2A.F ....|--- .... ....|--- .F.. ....
....|..|A#3 2F67 ....|--- .... ....|R-- .... ....
....|..|--- .... ....|R-- .... ....|--- .... ....
 A#3|..|B-8 JF.F ....|F-5 UFFA ....|A#1 2A.F ....
 A#3|..|A#1 2A.F ....|--- .... ....|--- .... ....
....|..|R-- .... ....|--- .... ....|R-- .... ....
....|..|--- .... ....|R-- .... ....|R-- .... ....
....|..|C-4 AF.F ....|A-5 UFFF ....|A-5 4F.F ....
 A-3|..|A-1 2A.F ....|--- .... ....|--- .... ....
....|..|A-3 2F2F ....|--- .... ....|R-- .... ....
....|..|--- .... ....|--- .... ....|--- .... ....
 F-4|..|B-8 JF.F ....|A#5 UFFA ....|F-4 2C.F ....
 A-3|..|A-1 2A.F ....|--- .... ....|--- .F.. ....
....|..|R-- .... ....|--- .... ....|R-- .... ....
....|..|--- .... ....|R-- .... ....|--- .... ....
 A-3|..|C-4 AF.F ....|C-6 UFFF ....|A-4 2C.F ....
 A-3|..|A-1 2A.F ....|--- .... ....|--- .... ....
....|..|R-- .... ....|--- .... ....|R-- .... ....
....|..|--- .... ....|R-- .... ....|R-- .... ....
 C-3|..|B-8 JF.F ....|F-5 UFFF ....|C-5 2C.F ....
 A-3|..|A-1 2A.F ....|--- .... ....|--- .F.. ....
....|..|A-3 2F2A ....|--- .... ....|R-- .... ....
....|..|--- .... ....|--- .... ....|--- .... ....
....|..|C-4 AF.F ....|A#5 UFF7 ....|A-3 4F8F ....
 D-4|..|D-2 2A.F ....|R-- .... ....|--- .... ....
....|..|A-3 2F8F ....|--- .... ....|R-- .... ....
....|..|--- .... ....|--- .... ....|--- .... ....
 F-4|..|B-8 JF.F ....|C-6 UFFA ....|F-4 2C.F ....
 D-4|..|D-2 2A.F ....|--- .... ....|--- .F.. ....
....|..|R-- .... ....|--- .... ....|R-- .... ....
....|..|--- .... ....|R-- .... ....|R-- .... ....
 A-3|..|C-4 AF.F ....|A-5 UFF7 ....|A-4 2C.F ....
 D-4|..|D-2 2A.F ....|--- .... ....|--- .F.. ....
....|..|A-3 2F27 ....|--- .... ....|R-- .... ....
....|..|--- .... ....|--- .... ....|--- .... ....
 D-4|..|B-8 JF.F ....|A-5 UFFF ....|D-5 2C.F ....
 D-4|..|D-2 2A.F ....|R-- .... ....|--- .... ....
....|..|A-3 2F8A ....|--- .... ....|R-- .... ....
....|..|--- .... ....|R-- .... ....|--- .... ....

[Pattern17]
....|..|C-4 AF.F ....|A#5 UFFF ....|G-5 4F.F ....
 G-3|..|G-1 2A.F ....|--- .... ....|--- .... ....
....|..|A#3 2F1F ....|--- .... ....|R-- .... ....
....|..|--- .... ....|--- .... ....|--- .... ....
 G-4|..|B-8 JF.F ....|A-5 UFFF ....|G-4 2C.F ....
 G-3|..|G-1 2A.F ....|--- .... ....|--- .... ....
....|..|R-- .... ....|--- .... ....|R-- .... ....
....|..|--- .... ....|R-- .... ....|--- .... ....
 A#3|..|C-4 AF.F ....|A#5 UFFF ....|A#4 2C.F ....
 G-3|..|G-1 2A.F ....|R-- .... ....|--- .F.. ....
....|..|A-3 2F87 ....|--- .... ....|R-- .... ....
....|..|--- .... ....|R-- .... ....|--- .... ....
 D-4|..|B-8 JF.F ....|A-5 UFFF ....|D-5 2C.F ....
 G-3|..|G-1 2A.F ....|--- .... ....|--- .F.. ....
....|..|A#3 2F1A ....|--- .... ....|R-- .... ....
....|..|--- .... ....|R-- .... ....|--- .... ....
 G-3|..|C-4 AF.F ....|A#5 UFFF ....|G-1 2A.F ....
 G-3|..|G-1 2A.F ....|--- .... ....|--- .... ....
....|..|R-- .... ....|--- .... ....|R-- .... ....
....|..|--- .... ....|R-- .... ....|--- .... ....
 G-3|..|B-8 JF.F ....|A-5 UFFF ....|G-1 2A.F ....
 G-3|..|G-1 2A.F ....|--- .... ....|--- .... ....
....|..|R-- .... ....|--- .... ....|R-- .... ....
....|..|--- .... ....|R-- .... ....|--- .... ....
 G-3|..|C-4 AF.F ....|F-5 UFFF ....|G-1 2A.F ....
 G-3|..|G-1 2A.F ....|--- .... ....|--- .... ....
....|..|A#3 2F17 ....|--- .... ....|R-- .... ....
....|..|--- .... ....|R-- .... ....|--- .... ....
 G-3|..|B-8 JF.F ....|G-5 UFFF ....|G-1 2A.F ....
 G-3|..|G-1 2A.F ....|--- .... ....|--- .... ....
....|..|R-- .... ....|--- .... ....|R-- .... ....
....|..|--- .... ....|R-- .... ....|--- .... ....
....|..|C-4 AF.F ....|A#5 UFF7 ....|A#3 4F4F ....
 C-4|..|C-2 2A.F ....|--- .... ....|--- .... ....
....|..|A#3 2F4F ....|--- .... ....|R-- .... ....
....|..|--- .... ....|--- .... ....|--- .... ....
 D-4|..|B-8 JF.F ....|A-5 UFF7 ....|D-4 2C.F ....
 C-4|..|C-2 2A.F ....|--- .... ....|--- .F.. ....
....|..|R-- .... ....|--- .... ....|R-- .... ....
....|..|--- .... ....|R-- .... ....|--- .... ....
 F-4|..|C-4 AF.F ....|A#5 UFF7 ....|F-4 2C.F ....
 C-4|..|C-2 2A.F ....|--- .... ....|--- .F.. ....
....|..|R-- .... ....|--- .... ....|R-- .... ....
....|..|--- .... ....|--- .... ....|--- .... ....
 C-3|..|B-8 JF.F ....|A-5 UFF7 ....|C-5 2C.F ....
 C-4|..|C-2 2A.F ....|--- .... ....|--- .... ....
....|..|A#3 2F4A ....|--- .... ....|R-- .... ....
....|..|--- .... ....|--- .... ....|--- .... ....
 C-4|..|C-4 AF.F ....|F-5 UFFF ....|C-2 2A.F ....
 C-4|..|C-2 2A.F ....|--- .... ....|--- .... ....
....|..|C-4 LF.F ....|--- .... ....|R-- .... ....
....|..|R-- .... ....|R-- .... ....|--- .... ....
 C-4|..|B-8 JF.F ....|G-5 UFFF ....|C-2 2A.F ....
 C-4|..|C-2 2A.F ....|--- .... ....|--- .... ....
....|..|C-4 LF.F ....|--- .... ....|R-- .... ....
....|..|R-- .... ....|--- .... ....|--- .... ....
....|..|C-4 AF.F ....|A-5 UFFF ....|F-5 4F.F ....
 C-4|..|C-2 2A.F ....|--- .... ....|--- .... ....
....|..|C-4 9F.F ....|G-5 3F.F ....|G-5 4F.F ....
....|..|R-- .... ....|--- .... ....|--- .... ....
....|..|B-8 JF.F ....|A#5 UFFF ....|A-5 4F.F ....
 C-4|..|C-2 2A.F ....|--- .... ....|--- .... ....
....|..|C-4 9F.F ....|A#5 3F.F ....|A#5 4F.F ....
....|..|R-- .... ....|--- .... ....|--- .... ....

[Pattern18]
....|..|C-4 AF.F ....|C-6 UFFF ....|C-6 4F.F ....
 F-4|..|F-2 2A.F ....|--- .... ....|--- .... ....
....|..|A-3 2F2F ....|--- .... ....|R-- .... ....
....|..|R-- .... ....|--- .... ....|--- .... ....
 F-4|..|B-8 JF.F ....|A-5 UFFA ....|F-4 2C.F ....
 F-4|..|F-2 2A.F ....|R-- .... ....|--- .... ....
....|..|C-4 9F.A ....|G-5 3F.A ....|G-5 4F.A ....
....|..|R-- .... ....|--- .... ....|--- .... ....
 A-3|..|C-4 AF.F ....|A-5 UFFF ....|A-4 2C.F ....
 F-4|..|F-2 2A.F ....|--- .... ....|--- .F.. ....
....|..|C-4 LF.7 ....|A#5 3F.A ....|A#5 4F.A ....
....|..|R-- .... ....|--- .... ....|--- .... ....
 C-3|..|B-8 JF.F ....|F-5 UFFF ....|C-5 2C.F ....
 F-4|..|F-2 2A.F ....|--- .... ....|--- .F.. ....
....|..|C-4 LF.7 ....|--- .... ....|R-- .... ....
....|..|R-- .... ....|--- .... ....|--- .... ....
 F-4|..|C-4 AF.F ....|A-5 UFF7 ....|F-2 2A.F ....
 F-4|..|F-2 2A.F ....|R-- .... ....|--- .... ....
....|..|C-4 9F.7 ....|G-5 3F.7 ....|G-5 4F.7 ....
....|..|R-- .... ....|--- .... ....|--- .... ....
 F-4|..|B-8 JF.F ....|C-6 UFFF ....|F-2 2A.F ....
 F-4|..|F-2 2A.F ....|--- .... ....|--- .... ....
....|..|C-4 9F.7 ....|A#5 3F.7 ....|A#5 4F.7 ....
....|..|R-- .... ....|--- .... ....|--- .... ....
 F-4|..|C-4 AF.F ....|C-6 UFF7 ....|F-2 2A.F ....
 F-4|..|F-2 2A.F ....|R-- .... ....|--- .... ....
....|..|A-3 2F27 ....|--- .... ....|R-- .... ....
....|..|--- .... ....|--- .... ....|--- .... ....
 F-4|..|B-8 JF.F ....|A#5 UFFF ....|F-2 2A.F ....
 F-4|..|F-2 2A.F ....|R-- .... ....|--- .... ....
....|..|R-- .... ....|--- .... ....|R-- .... ....
....|..|--- .... ....|--- .... ....|--- .... ....
....|..|C-4 AF.F ....|A-5 UFF7 ....|C-4 4F1F ....
 C-4|..|C-2 2A.F ....|--- .... ....|--- .... ....
....|..|C-4 2F1F ....|--- .... ....|R-- .... ....
....|..|--- .... ....|--- .... ....|--- .... ....
 E-4|..|B-8 JF.F ....|G-5 UFFF ....|E-4 2C.F ....
 C-4|..|C-2 2A.F ....|R-- .... ....|--- .F.. ....
....|..|R-- .... ....|--- .... ....|R-- .... ....
....|..|--- .... ....|R-- .... ....|--- .... ....
 G-4|..|C-4 AF.F ....|A#5 UFFA ....|G-4 2C.F ....
 C-4|..|C-2 2A.F ....|--- .... ....|--- .F.. ....
....|..|R-- .... ....|--- .... ....|R-- .... ....
....|..|--- .... ....|--- .... ....|--- .... ....
 C-3|..|B-8 JF.F ....|C-6 UFF7 ....|C-5 2C.F ....
 C-4|..|C-2 2A.F ....|--- .... ....|--- .... ....
....|..|C-4 2F1A ....|--- .... ....|R-- .... ....
....|..|--- .... ....|--- .... ....|--- .... ....
 C-4|..|C-4 AF.F ....|G-5 UFFA ....|C-2 2A.F ....
 C-4|..|C-2 2A.F ....|R-- .... ....|--- .... ....
....|..|R-- .... ....|--- .... ....|R-- .... ....
....|..|--- .... ....|R-- .... ....|--- .... ....
 G-4|..|B-8 JF.F ....|A#5 UFF7 ....|G-4 2C.F ....
 C-4|..|C-2 2A.F ....|--- .... ....|--- .F.. ....
....|..|R-- .... ....|--- .... ....|R-- .... ....
....|..|--- .... ....|--- .... ....|--- .... ....
 E-4|..|C-4 AF.F ....|--- .... ....|E-4 2C.F ....
 C-4|..|C-2 2A.F ....|--- .... ....|--- .F.. ....
....|..|C-4 2F17 ....|--- .... ....|R-- .... ....
....|..|--- .... ....|--- .... ....|--- .... ....
 C-4|..|B-8 JF.F ....|G-5 UFF7 ....|C-2 2A.F ....
 C-4|..|C-2 2A.F ....|--- .... ....|--- .... ....
....|..|R-- .... ....|--- .... ....|R-- .... ....
....|..|--- .... ....|R-- .... ....|--- .... ....

[Pattern19]
....|..|C-4 AF.F ....|A#5 UFFF ....|C-4 4F1F ....
 C-4|..|C-2 2A.F ....|--- .... ....|--- .... ....
....|..|C-4 2F1F ....|--- .... ....|R-- .... ....
....|..|--- .... ....|--- .... ....|--- .... ....
 C-3|..|B-8 JF.F ....|R-- .... ....|C-4 2C.F ....
 C-4|..|C-2 2A.F ....|--- .... ....|--- .... ....
....|..|R-- .... ....|--- .... ....|R-- .... ....
....|..|--- .... ....|--- .... ....|--- .... ....
 E-4|..|C-4 AF.F ....|G-5 UFFF ....|E-4 2C.F ....
 C-4|..|C-2 2A.F ....|--- .... ....|--- .F.. ....
....|..|R-- .... ....|--- .... ....|R-- .... ....
....|..|--- .... ....|R-- .... ....|--- .... ....
 G-4|..|B-8 JF.F ....|E-5 UFFF ....|G-4 2C.F ....
 C-4|..|C-2 2A.F ....|--- .... ....|--- .F.. ....
....|..|C-4 2F1A ....|--- .... ....|R-- .... ....
....|..|--- .... ....|R-- .... ....|R-- .... ....
....|..|C-4 AF.F ....|A#5 3F.F ....|A#5 4F.F ....
 C#4|..|C#2 2A.F ....|--- .... ....|--- .... ....
....|..|C#4 2F3F ....|--- .... ....|R-- .... ....
....|..|--- .... ....|--- .... ....|--- .... ....
 E-4|..|B-8 JF.F ....|A#5 UFFF ....|E-4 2C.F ....
 C#4|..|C#2 2A.F ....|--- .... ....|--- .F.. ....
....|..|R-- .... ....|--- .... ....|R-- .... ....
....|..|--- .... ....|R-- .... ....|--- .... ....
 G-4|..|C-4 AF.F ....|A#5 UFF7 ....|G-4 2C.F ....
 C#4|..|C#2 2A.F ....|--- .... ....|--- .F.. ....
....|..|C-4 2F17 ....|--- .... ....|R-- .... ....
....|..|--- .... ....|R-- .... ....|R-- .... ....
 C#4|..|B-8 JF.F ....|A-5 UFFF ....|C#5 2C.F ....
 C#4|..|C#2 2A.F ....|--- .... ....|--- .... ....
....|..|C#4 2F3A ....|--- .... ....|R-- .... ....
....|..|--- .... ....|--- .... ....|--- .... ....
....|..|C-4 AF.F ....|A#5 3F.F ....|A#5 4F.F ....
 D-4|..|D-2 2A.F ....|A-5 3F.F ....|A-5 4F.F ....
....|..|D-4 2F6F ....|R-- .... ....|R-- .... ....
....|..|--- .... ....|R-- .... ....|--- .... ....
....|..|B-8 JF.F ....|F-5 UFFF ....|A-5 4F.F ....
 D-4|..|D-2 2A.F ....|--- .... ....|--- .... ....
....|..|R-- .... ....|G#5 3F.F ....|G#5 4F.F ....
....|..|--- .... ....|R-- .... ....|R-- .... ....
....|..|C-4 AF.F ....|A-5 3F.F ....|A-5 4F.F ....
 D-4|..|D-2 2A.F ....|--- .... ....|--- .... ....
....|..|C#4 2F37 ....|R-- .... ....|R-- .... ....
....|..|--- .... ....|--- .... ....|--- .... ....
....|..|B-8 JF.F ....|D-6 3F.F ....|D-6 4F.F ....
 D-4|..|D-2 2A.F ....|A-5 3F.A ....|A-5 4F.A ....
....|..|D-4 2F6A ....|C#6 3F.F ....|C#6 4F.F ....
....|..|--- .... ....|--- .... ....|--- .... ....
....|..|C-4 AF.F ....|D-6 3F.F ....|D-6 4F.F ....
 D-4|..|D-2 2A.F ....|--- .... ....|--- .... ....
....|..|R-- .... ....|G#5 3F.A ....|G#5 4F.A ....
....|..|--- .... ....|R-- .... ....|--- .... ....
....|..|B-8 JF.F ....|F-6 3F.F ....|F-6 4F.F ....
 D-4|..|D-2 2A.F ....|--- .... ....|--- .... ....
....|..|R-- .... ....|E-6 3F.F ....|E-6 4F.F ....
....|..|--- .... ....|--- .... ....|--- .... ....
....|..|C-4 AF.F ....|F-6 3F.F ....|F-6 4F.F ....
 D-4|..|D-2 2A.F ....|A-5 3F.7 ....|A-5 4F.7 ....
....|..|D-4 2F67 ....|C#6 3F.A ....|C#6 4F.A ....
....|..|--- .... ....|--- .... ....|--- .... ....
....|..|B-8 JF.F ....|A-5 3F.F ....|A-5 4F.F ....
 D-4|..|D-2 2A.F ....|--- .... ....|--- .... ....
....|..|R-- .... ....|G#5 3F.7 ....|G#5 4F.7 ....
....|..|--- .... ....|R-- .... ....|--- .... ....

[Pattern20]
....|..|C-4 AF.F ....|D-5 UFFF ....|A#5 4F.F ....
 A#3|..|A#1 2A.F ....|--- .... ....|--- .... ....
....|..|A#3 2F1F ....|E-6 3F.A ....|E-6 4F.A ....
....|..|--- .... ....|--- .... ....|--- .... ....
 F-4|..|B-8 JF.F ....|D-6 3F.7 ....|F-4 2C.F ....
 A#3|..|A#1 2A.F ....|--- .... ....|--- .F.. ....
....|..|R-- .... ....|C#6 3F.7 ....|C#6 4F.7 ....
....|..|--- .... ....|R-- .... ....|--- .... ....
 A#3|..|C-4 AF.F ....|D-6 UFFF ....|A#4 2C.F ....
 A#3|..|A#1 2A.F ....|--- .... ....|--- .... ....
....|..|R-- .... ....|R-- .... ....|R-- .... ....
....|..|--- .... ....|--- .... ....|--- .... ....
 A#3|..|B-8 JF.F ....|F-6 3F.7 ....|A#1 2A.F ....
 A#3|..|A#1 2A.F ....|--- .... ....|--- .... ....
....|..|A#3 2F1A ....|E-6 3F.7 ....|E-6 4F.7 ....
....|..|--- .... ....|--- .... ....|--- .... ....
....|..|C-4 AF.F ....|C-6 UFFF ....|C-6 4F.F ....
 A#3|..|A#1 2A.F ....|--- .... ....|--- .... ....
....|..|C-4 2F1F ....|R-- .... ....|R-- .... ....
....|..|--- .... ....|R-- .... ....|--- .... ....
 G-4|..|B-8 JF.F ....|A#5 UFFF ....|G-4 2C.F ....
 A#3|..|A#1 2A.F ....|--- .... ....|--- .F.. ....
....|..|R-- .... ....|R-- .... ....|R-- .... ....
....|..|--- .... ....|--- .... ....|--- .... ....
 C-3|..|C-4 AF.F ....|A-5 UFFF ....|C-5 2C.F ....
 A#3|..|A#1 2A.F ....|--- .... ....|--- .F.. ....
....|..|A#3 2F17 ....|--- .... ....|R-- .... ....
....|..|--- .... ....|--- .... ....|--- .... ....
 A#3|..|B-8 JF.F ....|A#5 UFFF ....|A#1 2A.F ....
 A#3|..|A#1 2A.F ....|--- .... ....|--- .... ....
....|..|C-4 2F1A ....|--- .... ....|R-- .... ....
....|..|--- .... ....|R-- .... ....|--- .... ....
....|..|C-4 AF.F ....|C-6 UFFF ....|C-4 4F1F ....
 A-3|..|A-1 2A.F ....|--- .... ....|--- .... ....
....|..|C-4 2F1F ....|--- .... ....|R-- .... ....
....|..|--- .... ....|--- .... ....|--- .... ....
 E-4|..|B-8 JF.F ....|A-5 UFFA ....|E-4 2C.F ....
 A-3|..|A-1 2A.F ....|--- .... ....|--- .F.. ....
....|..|R-- .... ....|--- .... ....|R-- .... ....
....|..|--- .... ....|--- .... ....|--- .... ....
 A-3|..|C-4 AF.F ....|C-6 UFF7 ....|A-4 2C.F ....
 A-3|..|A-1 2A.F ....|--- .... ....|--- .... ....
....|..|C-4 2F17 ....|--- .... ....|R-- .... ....
....|..|--- .... ....|R-- .... ....|--- .... ....
 C-3|..|B-8 JF.F ....|F-5 UFFF ....|C-5 2C.F ....
 A-3|..|A-1 2A.F ....|--- .... ....|--- .F.. ....
....|..|C-4 2F1A ....|--- .... ....|R-- .... ....
....|..|--- .... ....|R-- .... ....|--- .... ....
....|..|C-4 AF.F ....|F-5 UFFF ....|D-6 4F.F ....
 D-4|..|D-2 2A.F ....|--- .... ....|--- .... ....
....|..|C-4 2F5F ....|--- .... ....|R-- .... ....
....|..|--- .... ....|--- .... ....|--- .... ....
 F-4|..|B-8 JF.F ....|A#5 UFF7 ....|F-4 2C.F ....
 D-4|..|D-2 2A.F ....|--- .... ....|--- .F.. ....
....|..|R-- .... ....|--- .... ....|R-- .... ....
....|..|--- .... ....|R-- .... ....|--- .... ....
 A-3|..|C-4 AF.F ....|C-6 UFF7 ....|A-4 2C.F ....
 D-4|..|D-2 2A.F ....|--- .... ....|--- .F.. ....
....|..|C-4 2F17 ....|--- .... ....|R-- .... ....
....|..|--- .... ....|R-- .... ....|--- .... ....
 D-4|..|B-8 JF.F ....|A-5 UFFF ....|D-5 2C.F ....
 D-4|..|D-2 2A.F ....|R-- .... ....|R-- .... ....
....|..|C-4 2F5A ....|R-- .... ....|R-- .... ....
....|..|--- .... ....|--- .... ....|--- .... ....

[Pattern21]
....|..|C-4 AF.F ....|A#5 UFFF ....|A#5 4F.F ....
 A#3|..|A#1 2A.F ....|--- .... ....|--- .... ....
....|..|A#3 2F1F ....|--- .... ....|R-- .... ....
....|..|D-4 2F9F ....|R-- .... ....|D-4 4F9F ....
....|..|B-8 JF.7 ....|A-5 UFFF ....|C-5 2F.7 ....
....|..|A-1 2F.7 ....|--- .... ....|--- .... ....
....|..|R-- .... ....|--- .... ....|R-- .... ....
....|..|--- .... ....|R-- .... ....|--- .... ....
....|..|C-4 AF.7 ....|F-5 UFFF ....|D-6 4F.7 ....
....|..|D-2 2F.7 ....|R-- .... ....|R-- .... ....
....|..|C-4 2F57 ....|R-- .... ....|R-- .... ....
....|..|--- .... ....|R-- .... ....|--- .... ....
....|..|C-4 AF.F ....|A#5 UFFF ....|A#5 4F.F ....
 A#3|..|A#1 2A.F ....|--- .... ....|--- .... ....
....|..|A#3 2F1F ....|--- .... ....|R-- .... ....
....|..|D-4 2F9A ....|R-- .... ....|D-4 4F9A ....
....|..|C-4 AF.7 ....|A-5 UFFF ....|A-4 2F.7 ....
....|..|D-2 2F.7 ....|--- .... ....|--- .... ....
....|..|R-- .... ....|--- .... ....|R-- .... ....
....|..|--- .... ....|R-- .... ....|--- .... ....
....|..|B-8 JF.7 ....|F-5 UFFF ....|D-5 2F.7 ....
....|..|D-2 2F.7 ....|R-- .... ....|R-- .... ....
....|..|R-- .... ....|R-- .... ....|R-- .... ....
....|..|--- .... ....|R-- .... ....|--- .... ....
....|..|C-4 AF.F ....|D-6 UFFF ....|A#5 4F.F ....
 A#3|..|A#2 2C.F ....|--- .... ....|A#4 2C.F ....
....|..|A#3 2F1F ....|--- .... ....|R-- .... ....
....|..|D-4 2F97 ....|R-- .... ....|D-4 4F97 ....
....|..|C-4 AF.F ....|C-6 UFFF ....|C-6 4F.F ....
 C-4|..|C-2 2A.F ....|--- .... ....|--- .... ....
....|..|C-4 9F.F ....|--- .... ....|--- .... ....
....|..|A#3 2F1F ....|R-- .... ....|--- .... ....
....|..|--- .... ....|F-5 UFF7 ....|--- .... ....
....|..|--- .... ....|--- .... ....|--- .... ....
....|..|--- .... ....|--- .... ....|--- .... ....
....|..|--- .... ....|R-- .... ....|--- .... ....
....|..|C-4 AF.F ....|A#5 UFF7 ....|A#5 4F.7 ....
....|..|A#1 2F.7 ....|--- .... ....|A#4 2F.A ....
....|..|A#3 2F17 ....|--- .... ....|R-- .... ....
....|..|R-- .... ....|R-- .... ....|R-- .... ....
....|..|C-4 AF.F ....|A-5 UFF7 ....|C-6 4F.A ....
....|..|C-2 2F.A ....|--- .... ....|--- .... ....
....|..|C-4 9F.A ....|--- .... ....|--- .... ....
....|..|A#3 2F1A ....|R-- .... ....|--- .... ....
....|..|C-4 AF.F ....|F-5 UFF7 ....|R-- .... ....
....|..|--- .... ....|--- .... ....|--- .... ....
....|..|--- .... ....|--- .... ....|--- .... ....
....|..|--- .... ....|R-- .... ....|--- .... ....
....|..|C-4 AF.F ....|F-5 3F.F ....|F-5 4F.F ....
....|..|A#1 2F.7 ....|--- .... ....|A#4 2F.7 ....
....|..|A#3 2F17 ....|E-5 3F.F ....|E-5 4F.F ....
....|..|R-- .... ....|R-- .... ....|R-- .... ....
....|..|C-4 AF.7 ....|F-5 3F.F ....|F-5 4F.F ....
....|..|C-2 2F.7 ....|--- .... ....|--- .... ....
....|..|C-4 AF.F ....|G-5 3F.F ....|G-5 4F.F ....
....|..|A#3 2F17 ....|--- .... ....|--- .... ....
....|..|C-4 AF.A ....|F-5 3F.F ....|F-5 4F.F ....
....|..|--- .... ....|--- .... ....|--- .... ....
....|..|--- .... ....|G-5 3F.F ....|G-5 4F.F ....
....|..|--- .... ....|--- .... ....|--- .... ....
....|..|C-4 AF.F ....|A-5 3F.F ....|A-5 4F.F ....
....|..|--- .... ....|--- .... ....|--- .... ....
....|..|--- .... ....|A#5 3F.F ....|A#5 4F.F ....
 A#3|..|R-- .... ....|R-- .... ....|A#4 2C.F ....

[Pattern22]
....|..|C-4 AF.F ....|C-6 3F.F ....|C-6 4F.F ....
 C-4|..|C-2 2A.F ....|--- .... ....|--- .... ....
....|..|A#3 2F1F ....|G-5 3F.A ....|D-4 4F9F ....
....|..|D-4 2F9F ....|--- .... ....|R-- .... ....
....|..|C-4 AF.7 ....|F-5 3F.A ....|F-5 4F.A ....
....|..|--- .... ....|--- .... ....|--- .... ....
....|..|--- .... ....|G-5 3F.A ....|G-5 4F.A ....
....|..|--- .... ....|--- .... ....|--- .... ....
....|..|C-4 AF.7 ....|C-5 UFFF ....|F-5 4F.7 ....
....|..|--- .... ....|--- .... ....|--- .... ....
....|..|--- .... ....|E-5 3F.7 ....|E-5 4F.7 ....
....|..|R-- .... ....|R-- .... ....|A#4 2F.A ....
....|..|C-4 AF.A ....|C-5 UFFF ....|F-5 4F.7 ....
....|..|C-2 2F.A ....|--- .... ....|--- .... ....
....|..|C-4 AF.7 ....|G-5 3F.7 ....|G-5 4F.7 ....
....|..|D-4 2F9A ....|--- .... ....|R-- .... ....
 F-4|..|C-4 AF.F ....|A#5 UFFF ....|F-4 2C.F ....
 A#3|..|C-2 2F.F ....|--- .... ....|A#4 2C.F ....
....|..|A#3 2F1F ....|G-5 3F.7 ....|G-5 4F.7 ....
....|..|--- .... ....|--- .... ....|--- .... ....
....|..|C-4 AF.7 ....|A#5 UFFF ....|A-5 4F.7 ....
....|..|--- .... ....|A-5 UFFF ....|--- .... ....
....|..|--- .... ....|A#5 3F.7 ....|A#5 4F.7 ....
....|..|R-- .... ....|R-- .... ....|A#4 2F.7 ....
....|..|C-4 9F.F ....|G-5 UFFF ....|C-6 4F.7 ....
....|..|C-2 2F.7 ....|--- .... ....|--- .... ....
....|..|A#3 2F17 ....|--- .... ....|D-4 4F97 ....
....|..|D-4 2F97 ....|--- .... ....|R-- .... ....
....|..|C-4 AF.A ....|A-5 UFFF ....|F-4 2F.A ....
....|..|C-2 2F.A ....|--- .... ....|A#4 2F.A ....
....|..|A#3 2F1A ....|--- .... ....|R-- .... ....
....|..|--- .... ....|--- .... ....|--- .... ....
....|..|C-4 AF.F ....|F-5 UFFF ....|F-6 4F.F ....
 F-4|..|F-2 2A.F ....|A-5 UFFA ....|--- .... ....
....|..|A-3 2F2F ....|--- .... ....|R-- .... ....
....|..|--- .... ....|R-- .... ....|--- .... ....
 G-4|..|B-8 JF.F ....|C-5 UFF7 ....|G-4 2C.F ....
 F-4|..|F-2 2A.F ....|--- .... ....|--- .F.. ....
....|..|R-- .... ....|--- .... ....|R-- .... ....
....|..|--- .... ....|--- .... ....|--- .... ....
 F-4|..|C-4 AF.F ....|A#5 UFF7 ....|F-4 2C.F ....
 F-4|..|F-2 2A.F ....|--- .... ....|A#4 2F.7 ....
....|..|A#3 2F17 ....|--- .... ....|R-- .... ....
....|..|--- .... ....|--- .... ....|--- .... ....
 F-4|..|B-8 JF.F ....|A#5 UFF7 ....|F-2 2A.F ....
 F-4|..|F-2 2A.F ....|A-5 UFF7 ....|--- .... ....
....|..|A-3 2F2A ....|--- .... ....|R-- .... ....
....|..|--- .... ....|--- .... ....|--- .... ....
 G-4|..|C-4 AF.F ....|G-5 UFF7 ....|G-4 2C.F ....
 F-4|..|F-2 2A.F ....|--- .... ....|--- .F.. ....
....|..|R-- .... ....|--- .... ....|R-- .... ....
....|..|--- .... ....|--- .... ....|--- .... ....
 F-4|..|B-8 JF.F ....|A-5 UFF7 ....|F-4 2C.F ....
 F-4|..|F-2 2A.F ....|--- .... ....|R-- .... ....
....|..|R-- .... ....|--- .... ....|R-- .... ....
....|..|--- .... ....|--- .... ....|--- .... ....
 F-4|..|C-4 AF.F ....|F-5 UFF7 ....|F-2 2A.F ....
 F-4|..|F-2 2A.F ....|--- .... ....|--- .... ....
....|..|A-3 2F27 ....|--- .... ....|R-- .... ....
....|..|--- .... ....|--- .... ....|--- .... ....
 A#3|..|C-4 AF.F ....|--- .... ....|A#4 2C.F ....
 F-4|..|F-2 2A.F ....|--- .... ....|--- .F.. ....
....|..|A#3 2F1F ....|--- .... ....|R-- .... ....
....|..|--- .... ....|--- .... ....|--- .... ....

[Pattern23]
 C-4|..|B-8 JF.F ....|--- .... ....|C-2 2A.F ....
 C-4|..|C-2 2A.F ....|R-- .... ....|R-- .... ....
....|..|R-- .... ....|--- .... ....|R-- .... ....
....|..|--- .... ....|--- .... ....|--- .... ....
 A-3|..|C-4 AF.F ....|--- .... ....|A-4 2C.F ....
 C-4|..|C-2 2A.F ....|--- .... ....|R-- .... ....
....|..|R-- .... ....|--- .... ....|R-- .... ....
....|..|--- .... ....|--- .... ....|--- .... ....
 F-4|..|C-4 AF.F ....|--- .... ....|F-4 2C.F ....
....|..|C-4 CF.F ....|--- .... ....|R-- .... ....
 C-4|..|C-2 2A.F ....|--- .... ....|R-- .... ....
....|..|R-- .... ....|--- .... ....|--- .... ....
 C-3|..|B-8 JF.F ....|--- .... ....|C-4 2C.F ....
 C-4|..|C-2 2A.F ....|R-- .... ....|R-- .... ....
....|..|R-- .... ....|--- .... ....|R-- .... ....
....|..|--- .... ....|--- .... ....|--- .... ....
 C-4|..|C-4 AF.F ....|--- .... ....|C-2 2A.F ....
 C-4|..|C-2 2A.F ....|--- .... ....|R-- .... ....
....|..|R-- .... ....|--- .... ....|R-- .... ....
....|..|--- .... ....|--- .... ....|--- .... ....
 C-4|..|C-4 LF.F ....|--- .... ....|C-2 2A.F ....
 C-4|..|C-2 2A.F ....|--- .... ....|R-- .... ....
....|..|A#3 2F17 ....|--- .... ....|R-- .... ....
....|..|R-- .... ....|--- .... ....|--- .... ....
 C-4|..|C-4 AF.F ....|--- .... ....|C-2 2A.F ....
 C-4|..|C-2 2A.F ....|R-- .... ....|R-- .... ....
....|..|C-4 LF.F ....|--- .... ....|R-- .... ....
....|..|R-- .... ....|--- .... ....|--- .... ....
 C-4|..|B-8 JF.F ....|--- .... ....|C-2 2A.F ....
 C-4|..|C-2 2A.F ....|--- .... ....|R-- .... ....
....|..|R-- .... ....|--- .... ....|R-- .... ....
....|..|D-4 2F9F ....|--- .... ....|D-4 4F9F ....
....|..|C-4 AF.F ....|R-- .... ....|A-3 4F2F ....
 F-4|..|F-2 2A.F ....|--- .... ....|R-- .... ....
....|..|A-3 2F2F ....|--- .... ....|R-- .... ....
....|..|R-- .... ....|--- .... ....|--- .... ....
 A-3|..|C-4 LF.F ....|--- .... ....|A-4 2C.F ....
 A-3|..|F-2 2F.F ....|--- .... ....|A-4 2C.F ....
....|..|C-4 LF.A ....|--- .... ....|R-- .... ....
....|..|R-- .... ....|--- .... ....|--- .... ....
 A-3|..|C-4 AF.F ....|F-5 UFFF ....|A-4 2C.F ....
 F-4|..|F-2 2A.F ....|--- .... ....|--- .F.. ....
....|..|R-- .... ....|--- .... ....|R-- .... ....
....|..|D-4 2F9A ....|--- .... ....|D-4 4F9A ....
 F-4|..|C-4 LF.F ....|R-- .... ....|F-2 2A.F ....
 F-4|..|F-2 2A.F ....|--- .... ....|--- .... ....
....|..|A-3 2F2A ....|--- .... ....|R-- .... ....
....|..|--- .... ....|--- .... ....|--- .... ....
 A-3|..|C-4 AF.F ....|E-5 UFFF ....|A-4 2C.F ....
 F-4|..|F-2 2A.F ....|--- .... ....|A-4 2F.A ....
....|..|C-4 LF.7 ....|--- .... ....|R-- .... ....
....|..|R-- .... ....|--- .... ....|--- .... ....
 A-3|..|C-4 LF.F ....|F-5 UFFA ....|A-4 2C.F ....
 F-4|..|F-2 2A.F ....|--- .... ....|--- .F.. ....
....|..|R-- .... ....|--- .... ....|R-- .... ....
....|..|D-4 2F97 ....|--- .... ....|D-4 4F97 ....
 F-4|..|C-4 AF.F ....|F-5 UFFF ....|F-2 2A.F ....
 F-4|..|F-2 2A.F ....|--- .... ....|--- .... ....
....|..|A-3 2F27 ....|--- .... ....|R-- .... ....
....|..|C-4 2FAF ....|--- .... ....|C-4 4FAF ....
 F-4|..|C-4 LF.F ....|C-5 UFFF ....|F-2 2A.F ....
 F-4|..|F-2 2A.F ....|--- .... ....|A-4 2F.7 ....
....|..|R-- .... ....|--- .... ....|R-- .... ....
....|..|--- .... ....|--- .... ....|--- .... ....

[Pattern24]
....|..|C-4 AF.F ....|F-5 UFF7 ....|C-4 4F1F ....
 E-4|..|E-2 2A.F ....|--- .... ....|--- .... ....
....|..|C-4 2F1F ....|--- .... ....|R-- .... ....
....|..|--- .... ....|--- .... ....|--- .... ....
 C-3|..|C-4 LF.F ....|F-5 UFFA ....|C-5 2C.F ....
 E-4|..|E-2 2A.F ....|--- .... ....|R-- .... ....
....|..|R-- .... ....|--- .... ....|R-- .... ....
....|..|C-4 2FAA ....|--- .... ....|C-4 4FAA ....
 C-3|..|C-4 AF.F ....|E-5 UFF7 ....|C-5 2C.F ....
 E-4|..|E-2 2A.F ....|--- .... ....|--- .F.. ....
....|..|R-- .... ....|--- .... ....|R-- .... ....
....|..|--- .... ....|--- .... ....|--- .... ....
 E-4|..|C-4 LF.F ....|--- .... ....|E-2 2A.F ....
 E-4|..|E-2 2A.F ....|--- .... ....|--- .... ....
....|..|C-4 2F1A ....|--- .... ....|R-- .... ....
....|..|--- .... ....|--- .... ....|--- .... ....
 C-3|..|C-4 AF.F ....|F-5 UFF7 ....|C-5 2C.F ....
 E-4|..|E-2 2A.F ....|--- .... ....|R-- .... ....
....|..|R-- .... ....|--- .... ....|R-- .... ....
....|..|C-4 2FA7 ....|--- .... ....|C-4 4FA7 ....
 C-3|..|C-4 LF.F ....|C-5 UFF7 ....|C-5 2C.F ....
 E-4|..|E-2 2A.F ....|--- .... ....|--- .F.. ....
....|..|R-- .... ....|--- .... ....|R-- .... ....
....|..|--- .... ....|--- .... ....|--- .... ....
 E-4|..|C-4 AF.F ....|--- .... ....|E-2 2A.F ....
 E-4|..|E-2 2A.F ....|--- .... ....|--- .... ....
....|..|C-4 2F17 ....|--- .... ....|R-- .... ....
....|..|E-4 2F9F ....|--- .... ....|E-4 4F9F ....
 E-4|..|C-4 LF.F ....|--- .... ....|E-2 2A.F ....
 E-4|..|E-2 2A.F ....|--- .... ....|R-- .... ....
....|..|R-- .... ....|--- .... ....|R-- .... ....
....|..|--- .... ....|--- .... ....|--- .... ....
....|..|C-4 AF.F ....|--- .... ....|C-4 4F5F ....
 D-4|..|D-2 2A.F ....|--- .... ....|--- .... ....
....|..|C-4 2F5F ....|--- .... ....|R-- .... ....
....|..|--- .... ....|--- .... ....|--- .... ....
 A-3|..|C-4 LF.F ....|R-- .... ....|A-4 2C.F ....
 D-4|..|D-2 2A.F ....|--- .... ....|R-- .... ....
....|..|R-- .... ....|--- .... ....|R-- .... ....
....|..|E-4 2F9A ....|--- .... ....|E-4 4F9A ....
 A-3|..|C-4 AF.F ....|F-5 UFFF ....|A-4 2C.F ....
 D-4|..|D-2 2A.F ....|--- .... ....|--- .F.. ....
....|..|R-- .... ....|--- .... ....|R-- .... ....
....|..|--- .... ....|--- .... ....|--- .... ....
 D-4|..|C-4 LF.F ....|--- .... ....|D-2 2A.F ....
 D-4|..|D-2 2A.F ....|--- .... ....|--- .... ....
....|..|C-4 2F5A ....|--- .... ....|R-- .... ....
....|..|--- .... ....|--- .... ....|--- .... ....
 A-3|..|C-4 AF.F ....|E-5 UFFF ....|A-4 2C.F ....
 A-3|..|D-2 2F.F ....|--- .... ....|A-4 2C.F ....
....|..|R-- .... ....|--- .... ....|R-- .... ....
....|..|E-4 2F97 ....|--- .... ....|E-4 4F97 ....
 A-3|..|C-4 LF.F ....|F-5 UFFA ....|A-4 2C.F ....
 D-4|..|D-2 2A.F ....|--- .... ....|--- .F.. ....
....|..|R-- .... ....|--- .... ....|R-- .... ....
....|..|C-4 2F5F ....|--- .... ....|C-4 4F5F ....
 D-4|..|C-4 AF.F ....|F-5 UFFF ....|D-2 2A.F ....
 D-4|..|D-2 2A.F ....|--- .... ....|--- .... ....
....|..|C-4 2F57 ....|--- .... ....|R-- .... ....
....|..|--- .... ....|--- .... ....|--- .... ....
....|..|C-4 LF.F ....|A-5 UFFF ....|C-4 4FAF ....
 D-4|..|D-2 2A.F ....|--- .... ....|A-4 2F.A ....
....|..|C-4 2FAF ....|--- .... ....|R-- .... ....
....|..|R-- .... ....|--- .... ....|--- .... ....

[Pattern25]
....|..|C-4 AF.F ....|F-5 UFF7 ....|C-4 4F4F ....
 C-4|..|C-2 2A.F ....|--- .... ....|--- .... ....
....|..|C-4 2F4F ....|--- .... ....|R-- .... ....
....|..|C-4 2F5A ....|--- .... ....|C-4 4F5A ....
 A-3|..|C-4 LF.F ....|F-5 UFFA ....|A-4 2C.F ....
 C-4|..|C-2 2A.F ....|--- .... ....|R-- .... ....
....|..|R-- .... ....|--- .... ....|R-- .... ....
....|..|--- .... ....|--- .... ....|--- .... ....
 A-3|..|C-4 AF.F ....|E-5 UFF7 ....|A-4 2C.F ....
 C-4|..|C-2 2A.F ....|--- .... ....|A-4 2F.7 ....
....|..|C-4 2FAA ....|--- .... ....|R-- .... ....
....|..|R-- .... ....|--- .... ....|--- .... ....
 C-4|..|C-4 LF.F ....|--- .... ....|C-2 2A.F ....
 C-4|..|C-2 2A.F ....|--- .... ....|--- .... ....
....|..|C-4 2F4A ....|--- .... ....|R-- .... ....
....|..|C-4 2F57 ....|--- .... ....|C-4 4F57 ....
 A-3|..|C-4 AF.F ....|F-5 UFF7 ....|A-4 2C.F ....
 A-3|..|C-2 2F.F ....|--- .... ....|A-4 2C.F ....
....|..|R-- .... ....|--- .... ....|R-- .... ....
....|..|--- .... ....|--- .... ....|--- .... ....
 A-3|..|C-4 CF.F ....|A-5 UFF7 ....|A-4 2C.F ....
 A-3|..|C-2 2F.F ....|--- .... ....|A-4 2C.F ....
....|..|C-4 2FA7 ....|--- .... ....|R-- .... ....
....|..|R-- .... ....|--- .... ....|--- .... ....
 C-4|..|C-4 AF.F ....|--- .... ....|C-2 2A.F ....
 C-4|..|C-2 2A.F ....|--- .... ....|--- .... ....
....|..|C-4 2F47 ....|--- .... ....|R-- .... ....
....|..|--- .... ....|--- .... ....|--- .... ....
 C-4|..|C-4 9F.F ....|--- .... ....|C-2 2A.F ....
 C-4|..|C-2 2A.F ....|--- .... ....|A-4 2F.A ....
....|..|R-- .... ....|--- .... ....|R-- .... ....
....|..|--- .... ....|--- .... ....|--- .... ....
....|..|C-4 AF.F ....|A#6 3F.F ....|A#6 4F.F ....
 A#3|..|A#1 2A.F ....|--- .... ....|A-4 2F.A ....
....|..|A#3 2F1F ....|--- .... ....|R-- .... ....
....|..|--- .... ....|--- .... ....|--- .... ....
....|..|C-4 LF.F ....|A#6 3F.F ....|A#6 4F.F ....
 A#3|..|A#1 2A.F ....|--- .... ....|R-- .... ....
....|..|R-- .... ....|--- .... ....|R-- .... ....
....|..|--- .... ....|--- .... ....|--- .... ....
....|..|C-4 AF.F ....|A#6 3F.F ....|A#6 4F.F ....
 A#3|..|A#2 2C.F ....|--- .... ....|A#4 2C.F ....
....|..|R-- .... ....|--- .... ....|R-- .... ....
....|..|--- .... ....|--- .... ....|--- .... ....
....|..|C-4 LF.F ....|A#6 3F.F ....|A#6 4F.F ....
 A#3|..|A#1 2A.F ....|--- .... ....|A-4 2F.7 ....
....|..|A#3 2F1A ....|--- .... ....|R-- .... ....
....|..|--- .... ....|--- .... ....|--- .... ....
....|..|C-4 AF.F ....|A#6 3F.F ....|A#6 4F.F ....
 A#3|..|A#1 2A.F ....|--- .... ....|R-- .... ....
....|..|C-4 2F1F ....|--- .... ....|R-- .... ....
....|..|--- .... ....|--- .... ....|--- .... ....
 A#3|..|C-4 LF.F ....|A#6 3F.A ....|A#4 2C.F ....
 A#3|..|A#1 2A.F ....|--- .... ....|A#4 2F.A ....
....|..|R-- .... ....|--- .... ....|R-- .... ....
....|..|--- .... ....|--- .... ....|--- .... ....
 A#3|..|C-4 AF.F ....|A#6 3F.7 ....|A#1 2A.F ....
 A#3|..|A#1 2A.F ....|--- .... ....|--- .... ....
....|..|A#3 2F17 ....|--- .... ....|R-- .... ....
....|..|--- .... ....|--- .... ....|--- .... ....
 A#3|..|C-4 LF.F ....|A#6 3F.7 ....|A#1 2A.F ....
 A#3|..|A#1 2A.F ....|--- .... ....|R-- .... ....
....|..|C-4 2F1A ....|A#6 3F.F ....|A#6 4F.F ....
....|..|--- .... ....|--- .... ....|--- .... ....

[Pattern26]
....|..|C-4 AF.F ....|A-6 3F.F ....|A-6 4F.F ....
 A-3|..|A-1 2A.F ....|--- .... ....|A#4 2F.7 ....
....|..|C-4 2F1F ....|--- .... ....|R-- .... ....
....|..|--- .... ....|--- .... ....|--- .... ....
....|..|C-4 LF.F ....|A-6 3F.F ....|A-6 4F.F ....
 A-3|..|A-1 2A.F ....|--- .... ....|R-- .... ....
....|..|R-- .... ....|--- .... ....|R-- .... ....
....|..|--- .... ....|--- .... ....|--- .... ....
....|..|C-4 AF.F ....|A-6 3F.F ....|A-6 4F.F ....
 A-3|..|A-1 2A.F ....|--- .... ....|R-- .... ....
....|..|C-4 2F17 ....|A#6 3F.A ....|A#6 4F.A ....
....|..|--- .... ....|--- .... ....|--- .... ....
....|..|C-4 LF.F ....|A-6 3F.F ....|A-6 4F.F ....
 A-3|..|A-1 2A.F ....|--- .... ....|R-- .... ....
....|..|C-4 2F1A ....|--- .... ....|R-- .... ....
....|..|--- .... ....|--- .... ....|--- .... ....
....|..|C-4 AF.F ....|A-6 3F.F ....|A-6 4F.F ....
 A-3|..|D-2 2F.F ....|--- .... ....|A-4 2C.F ....
....|..|C-4 2F5F ....|--- .... ....|R-- .... ....
....|..|--- .... ....|--- .... ....|--- .... ....
 A-3|..|C-4 LF.F ....|A-6 3F.A ....|A-4 2C.F ....
 D-4|..|D-2 2A.F ....|--- .... ....|--- .F.. ....
....|..|R-- .... ....|A#6 3F.7 ....|A#6 4F.7 ....
....|..|--- .... ....|--- .... ....|--- .... ....
 D-4|..|C-4 AF.F ....|A-6 3F.7 ....|D-2 2A.F ....
 D-4|..|D-2 2A.F ....|--- .... ....|--- .... ....
....|..|C-4 2F17 ....|--- .... ....|R-- .... ....
....|..|--- .... ....|--- .... ....|--- .... ....
....|..|C-4 LF.F ....|A-6 3F.F ....|A-6 4F.F ....
 D-4|..|D-2 2A.F ....|--- .... ....|A-4 2F.A ....
....|..|C-4 2F5A ....|--- .... ....|R-- .... ....
....|..|--- .... ....|--- .... ....|--- .... ....
....|..|C-4 AF.F ....|A#5 3F.F ....|A#5 4F.F ....
 G-3|..|G-1 2A.F ....|--- .... ....|--- .... ....
....|..|A#3 2F1F ....|--- .... ....|R-- .... ....
....|..|--- .... ....|--- .... ....|--- .... ....
 A#3|..|C-4 LF.F ....|A-6 3F.7 ....|A#4 2C.F ....
 G-3|..|G-1 2A.F ....|--- .... ....|R-- .... ....
....|..|R-- .... ....|--- .... ....|R-- .... ....
....|..|--- .... ....|--- .... ....|--- .... ....
 A#3|..|C-4 AF.F ....|A-6 3F.7 ....|A#4 2C.F ....
 G-3|..|G-1 2A.F ....|--- .... ....|A-4 2F.7 ....
....|..|C-4 2F57 ....|--- .... ....|R-- .... ....
....|..|--- .... ....|--- .... ....|--- .... ....
 G-3|..|C-4 LF.F ....|A#5 3F.A ....|G-1 2A.F ....
 G-3|..|G-1 2A.F ....|--- .... ....|--- .... ....
....|..|A#3 2F1A ....|--- .... ....|R-- .... ....
....|..|--- .... ....|--- .... ....|--- .... ....
 A#3|..|C-4 AF.F ....|--- .... ....|A#4 2C.F ....
 G-3|..|G-1 2A.F ....|--- .... ....|R-- .... ....
....|..|R-- .... ....|--- .... ....|R-- .... ....
....|..|--- .... ....|--- .... ....|--- .... ....
 A#3|..|C-4 LF.F ....|A-6 3F.7 ....|A#4 2C.F ....
 G-3|..|G-1 2A.F ....|--- .... ....|--- .F.. ....
....|..|R-- .... ....|--- .... ....|R-- .... ....
....|..|--- .... ....|--- .... ....|--- .... ....
 G-3|..|C-4 AF.F ....|A#5 3F.7 ....|G-1 2A.F ....
 G-3|..|G-1 2A.F ....|--- .... ....|--- .... ....
....|..|A#3 2F17 ....|--- .... ....|R-- .... ....
....|..|D-4 2F9F ....|--- .... ....|D-4 4F9F ....
 G-3|..|C-4 LF.F ....|--- .... ....|G-1 2A.F ....
 G-3|..|G-1 2A.F ....|--- .... ....|R-- .... ....
....|..|R-- .... ....|--- .... ....|R-- .... ....
....|..|--- .... ....|--- .... ....|--- .... ....

[Pattern27]
....|..|C-4 AF.F ....|D-6 3F.F ....|D-6 4F.F ....
 C-4|..|C-2 2A.F ....|--- .... ....|--- .... ....
....|..|G-3 2F9F ....|--- .... ....|R-- .... ....
....|..|--- .... ....|--- .... ....|--- .... ....
 A#3|..|C-4 LF.F ....|--- .... ....|A#4 2C.F ....
 A#3|..|C-2 2F.F ....|--- .... ....|A#4 2C.F ....
....|..|R-- .... ....|--- .... ....|R-- .... ....
....|..|D-4 2F9A ....|--- .... ....|D-4 4F9A ....
 A#3|..|C-4 AF.F ....|--- .... ....|A#4 2C.F ....
 C-4|..|C-2 2A.F ....|--- .... ....|--- .F.. ....
....|..|R-- .... ....|--- .... ....|R-- .... ....
....|..|--- .... ....|--- .... ....|--- .... ....
 C-4|..|C-4 LF.F ....|D-6 3F.A ....|C-2 2A.F ....
....|..|C-4 LF.F ....|--- .... ....|--- .... ....
 C-4|..|C-2 2A.F ....|--- .... ....|R-- .... ....
....|..|C-4 LF.F ....|--- .... ....|--- .... ....
 A#3|..|C-4 AF.F ....|--- .... ....|A#4 2C.F ....
 C-4|..|C-2 2A.F ....|--- .... ....|A#4 2F.A ....
....|..|R-- .... ....|--- .... ....|R-- .... ....
....|..|D-4 2F97 ....|--- .... ....|D-4 4F97 ....
 A#3|..|C-4 LF.F ....|--- .... ....|A#4 2C.F ....
 C-4|..|C-2 2A.F ....|--- .... ....|--- .F.. ....
....|..|R-- .... ....|--- .... ....|R-- .... ....
....|..|--- .... ....|--- .... ....|--- .... ....
 C-4|..|C-4 AF.F ....|D-6 3F.7 ....|C-2 2A.F ....
 C-4|..|C-2 2A.F ....|--- .... ....|--- .... ....
....|..|G-3 2F97 ....|--- .... ....|R-- .... ....
....|..|C-4 LF.A ....|--- .... ....|--- .... ....
 C-4|..|C-4 CF.F ....|--- .... ....|C-2 2A.F ....
 C-4|..|C-2 2A.F ....|--- .... ....|A#4 2F.7 ....
....|..|R-- .... ....|--- .... ....|R-- .... ....
....|..|--- .... ....|R-- .... ....|R-- .... ....
....|..|C-4 AF.F ....|--- .... ....|C-4 4F5F ....
 F-4|..|F-2 2A.F ....|--- .... ....|--- .... ....
....|..|C-4 2F5F ....|--- .... ....|R-- .... ....
....|..|--- .... ....|--- .... ....|--- .... ....
 A-3|..|B-8 JF.F ....|--- .... ....|A-4 2C.F ....
 F-4|..|F-2 2A.F ....|--- .... ....|--- .F.. ....
....|..|C-2 2F.7 ....|--- .... ....|R-- .... ....
....|..|C-4 LF.7 ....|--- .... ....|R-- .... ....
 F-4|..|C-4 AF.F ....|F-5 UFFF ....|F-2 2A.F ....
 F-4|..|F-2 2A.F ....|--- .... ....|R-- .... ....
....|..|R-- .... ....|--- .... ....|R-- .... ....
....|..|--- .... ....|R-- .... ....|R-- .... ....
 A-3|..|B-8 JF.F ....|--- .... ....|A-4 2C.F ....
 F-4|..|F-2 2A.F ....|--- .... ....|--- .F.. ....
....|..|C-4 2F5A ....|--- .... ....|R-- .... ....
....|..|--- .... ....|R-- .... ....|R-- .... ....
 F-4|..|C-4 AF.F ....|E-5 UFFF ....|F-2 2A.F ....
 F-4|..|F-2 2A.F ....|--- .... ....|--- .... ....
....|..|R-- .... ....|--- .... ....|R-- .... ....
....|..|--- .... ....|--- .... ....|R-- .... ....
 F-4|..|B-8 JF.F ....|F-5 UFFA ....|F-2 2A.F ....
 F-4|..|F-2 2A.F ....|--- .... ....|--- .... ....
....|..|R-- .... ....|--- .... ....|R-- .... ....
....|..|--- .... ....|R-- .... ....|R-- .... ....
 F-4|..|C-4 AF.F ....|F-5 UFFF ....|F-2 2A.F ....
 F-4|..|F-2 2A.F ....|--- .... ....|--- .... ....
....|..|C-4 2F57 ....|--- .... ....|R-- .... ....
....|..|--- .... ....|R-- .... ....|R-- .... ....
 F-4|..|B-8 JF.F ....|C-5 UFFF ....|F-2 2A.F ....
 F-4|..|F-2 2A.F ....|--- .... ....|--- .... ....
....|..|R-- .... ....|--- .... ....|R-- .... ....
....|..|--- .... ....|--- .... ....|R-- .... ....

[Pattern28]
....|..|C-4 AF.F ....|F-5 UFF7 ....|C-4 4F1F ....
 E-4|..|E-2 2A.F ....|--- .... ....|--- .... ....
....|..|C-4 2F1F ....|--- .... ....|R-- .... ....
....|..|--- .... ....|R-- .... ....|--- .... ....
 C-3|..|B-8 JF.F ....|F-5 UFFA ....|C-5 2C.F ....
 E-4|..|E-2 2A.F ....|--- .... ....|--- .F.. ....
....|..|R-- .... ....|--- .... ....|R-- .... ....
....|..|--- .... ....|R-- .... ....|R-- .... ....
 E-4|..|C-4 AF.F ....|E-5 UFF7 ....|E-2 2A.F ....
 E-4|..|E-2 2A.F ....|--- .... ....|--- .... ....
....|..|R-- .... ....|--- .... ....|R-- .... ....
....|..|--- .... ....|--- .... ....|--- .... ....
 C-3|..|B-8 JF.F ....|--- .... ....|C-5 2C.F ....
 E-4|..|E-2 2A.F ....|--- .... ....|--- .F.. ....
....|..|C-4 2F1A ....|--- .... ....|R-- .... ....
....|..|--- .... ....|R-- .... ....|--- .... ....
 E-4|..|C-4 AF.F ....|F-5 UFF7 ....|E-2 2A.F ....
 E-4|..|E-2 2A.F ....|--- .... ....|--- .... ....
....|..|R-- .... ....|--- .... ....|R-- .... ....
....|..|--- .... ....|R-- .... ....|R-- .... ....
 E-4|..|B-8 JF.F ....|C-5 UFF7 ....|E-2 2A.F ....
 E-4|..|E-2 2A.F ....|--- .... ....|--- .... ....
....|..|R-- .... ....|--- .... ....|R-- .... ....
....|..|--- .... ....|--- .... ....|--- .... ....
 E-4|..|C-4 AF.F ....|--- .... ....|E-2 2A.F ....
 E-4|..|E-2 2A.F ....|--- .... ....|--- .... ....
....|..|C-4 2F17 ....|--- .... ....|R-- .... ....
....|..|--- .... ....|--- .... ....|--- .... ....
 E-4|..|B-8 JF.F ....|R-- .... ....|E-2 2A.F ....
 E-4|..|E-2 2A.F ....|--- .... ....|--- .... ....
....|..|R-- .... ....|--- .... ....|R-- .... ....
....|..|--- .... ....|--- .... ....|R-- .... ....
....|..|C-4 AF.F ....|--- .... ....|D-4 4F6F ....
 D-4|..|D-2 2A.F ....|--- .... ....|--- .... ....
....|..|D-4 2F6F ....|--- .... ....|R-- .... ....
....|..|--- .... ....|--- .... ....|--- .... ....
 A-3|..|B-8 JF.F ....|--- .... ....|A-4 2C.F ....
 D-4|..|D-2 2A.F ....|--- .... ....|--- .F.. ....
....|..|R-- .... ....|--- .... ....|R-- .... ....
....|..|--- .... ....|--- .... ....|R-- .... ....
 D-4|..|C-4 AF.F ....|F-5 UFFF ....|D-2 2A.F ....
 D-4|..|D-2 2A.F ....|--- .... ....|--- .... ....
....|..|R-- .... ....|--- .... ....|R-- .... ....
....|..|--- .... ....|--- .... ....|--- .... ....
 A-3|..|B-8 JF.F ....|--- .... ....|A-4 2C.F ....
 D-4|..|D-2 2A.F ....|--- .... ....|--- .F.. ....
....|..|D-4 2F6A ....|--- .... ....|R-- .... ....
....|..|--- .... ....|R-- .... ....|--- .... ....
 D-4|..|C-4 AF.F ....|E-5 UFFF ....|D-2 2A.F ....
 D-4|..|D-2 2A.F ....|--- .... ....|--- .... ....
....|..|R-- .... ....|--- .... ....|R-- .... ....
....|..|--- .... ....|--- .... ....|R-- .... ....
 D-4|..|B-8 JF.F ....|F-5 UFFA ....|D-2 2A.F ....
 D-4|..|D-2 2A.F ....|--- .... ....|--- .... ....
....|..|R-- .... ....|--- .... ....|R-- .... ....
....|..|--- .... ....|R-- .... ....|--- .... ....
 D-4|..|C-4 AF.F ....|F-5 UFFF ....|D-2 2A.F ....
 D-4|..|D-2 2A.F ....|--- .... ....|--- .... ....
....|..|D-4 2F67 ....|--- .... ....|R-- .... ....
....|..|--- .... ....|R-- .... ....|--- .... ....
 D-4|..|B-8 JF.F ....|A-5 UFFF ....|D-2 2A.F ....
 D-4|..|D-2 2A.F ....|--- .... ....|--- .... ....
....|..|R-- .... ....|--- .... ....|R-- .... ....
....|..|--- .... ....|--- .... ....|R-- .... ....

[Pattern29]
....|..|C-4 AF.F ....|F-5 UFF7 ....|C-4 4F4F ....
 C-4|..|C-2 2A.F ....|--- .... ....|--- .... ....
....|..|C-4 2F4F ....|--- .... ....|R-- .... ....
....|..|--- .... ....|R-- .... ....|--- .... ....
 A-3|..|B-8 JF.F ....|F-5 UFFA ....|A-4 2C.F ....
 C-4|..|C-2 2A.F ....|--- .... ....|--- .F.. ....
....|..|R-- .... ....|--- .... ....|R-- .... ....
....|..|--- .... ....|R-- .... ....|R-- .... ....
 C-4|..|C-4 AF.F ....|E-5 UFF7 ....|C-2 2A.F ....
 C-4|..|C-2 2A.F ....|--- .... ....|--- .... ....
....|..|R-- .... ....|--- .... ....|R-- .... ....
....|..|--- .... ....|--- .... ....|--- .... ....
 A-3|..|B-8 JF.F ....|--- .... ....|A-4 2C.F ....
 C-4|..|C-2 2A.F ....|--- .... ....|--- .F.. ....
....|..|C-4 2F4A ....|--- .... ....|R-- .... ....
 A-3|..|--- .... ....|R-- .... ....|A-4 2C.F ....
 C-4|..|C-4 AF.F ....|F-5 UFF7 ....|C-2 2A.F ....
 C-4|..|C-2 2A.F ....|--- .... ....|--- .... ....
....|..|R-- .... ....|--- .... ....|R-- .... ....
....|..|--- .... ....|--- .... ....|R-- .... ....
 C-4|..|B-8 JF.F ....|A-5 UFF7 ....|C-2 2A.F ....
 C-4|..|C-2 2A.F ....|--- .... ....|--- .... ....
....|..|R-- .... ....|--- .... ....|R-- .... ....
....|..|--- .... ....|--- .... ....|--- .... ....
 C-4|..|C-4 AF.F ....|--- .... ....|C-2 2A.F ....
 C-4|..|C-2 2A.F ....|--- .... ....|--- .... ....
....|..|C-4 2F47 ....|--- .... ....|R-- .... ....
....|..|--- .... ....|--- .... ....|A-4 2F.A ....
 C-4|..|B-8 JF.F ....|R-- .... ....|C-2 2A.F ....
 C-4|..|C-2 2A.F ....|--- .... ....|--- .... ....
....|..|R-- .... ....|--- .... ....|R-- .... ....
....|..|--- .... ....|--- .... ....|R-- .... ....
....|..|C-4 AF.F ....|A#5 UFFF ....|A#3 4F1F ....
 A#3|..|A#1 2A.F ....|--- .... ....|--- .... ....
....|..|A#3 2F1F ....|--- .... ....|R-- .... ....
....|..|--- .... ....|--- .... ....|--- .... ....
 A#3|..|B-8 JF.F ....|--- .... ....|A#4 2C.F ....
 A#3|..|A#1 2A.F ....|--- .... ....|--- .... ....
....|..|R-- .... ....|--- .... ....|R-- .... ....
....|..|--- .... ....|R-- .... ....|A-4 2F.7 ....
 A#3|..|C-4 AF.F ....|A-5 UFFF ....|A#1 2A.F ....
 A#3|..|A#1 2A.F ....|--- .... ....|--- .... ....
....|..|R-- .... ....|--- .... ....|R-- .... ....
....|..|--- .... ....|--- .... ....|--- .... ....
 A#3|..|B-8 JF.F ....|A#5 UFFA ....|A#4 2C.F ....
 A#3|..|A#1 2A.F ....|--- .... ....|--- .... ....
....|..|A#3 2F1A ....|--- .... ....|R-- .... ....
....|..|--- .... ....|--- .... ....|R-- .... ....
 A#3|..|C-4 AF.F ....|G-5 UFFF ....|A#1 2A.F ....
 A#3|..|A#1 2A.F ....|--- .... ....|--- .... ....
....|..|R-- .... ....|--- .... ....|R-- .... ....
....|..|--- .... ....|R-- .... ....|R-- .... ....
 A#3|..|B-8 JF.F ....|A-5 UFFA ....|A#1 2A.F ....
 A#3|..|A#1 2A.F ....|--- .... ....|--- .... ....
....|..|R-- .... ....|--- .... ....|R-- .... ....
....|..|--- .... ....|R-- .... ....|--- .... ....
 A#3|..|C-4 AF.F ....|F-5 UFFF ....|A#1 2A.F ....
 A#3|..|A#1 2A.F ....|--- .... ....|--- .... ....
....|..|A#3 2F17 ....|--- .... ....|R-- .... ....
....|..|--- .... ....|--- .... ....|R-- .... ....
 A#3|..|B-8 JF.F ....|A#5 UFFF ....|A#1 2A.F ....
 A#3|..|A#1 2A.F ....|--- .... ....|--- .... ....
....|..|R-- .... ....|--- .... ....|R-- .... ....
....|..|--- .... ....|R-- .... ....|R-- .... ....

[Pattern30]
....|..|C-4 AF.F ....|A-5 UFF7 ....|A#3 4F6F ....
 A#3|..|A#1 2A.F ....|--- .... ....|--- .... ....
....|..|A#3 2F6F ....|--- .... ....|R-- .... ....
....|..|--- .... ....|R-- .... ....|--- .... ....
 A#3|..|B-8 JF.F ....|F-5 UFFA ....|A#4 2C.F ....
 A#3|..|A#1 2A.F ....|--- .... ....|--- .... ....
....|..|R-- .... ....|--- .... ....|R-- .... ....
....|..|--- .... ....|R-- .... ....|R-- .... ....
 A#3|..|C-4 AF.F ....|A-5 UFFF ....|A#1 2A.F ....
 A#3|..|A#1 2A.F ....|--- .... ....|--- .... ....
....|..|R-- .... ....|--- .... ....|R-- .... ....
....|..|--- .... ....|--- .... ....|--- .... ....
 A#3|..|B-8 JF.F ....|--- .... ....|A#4 2C.F ....
 A#3|..|A#1 2A.F ....|--- .... ....|--- .... ....
....|..|A#3 2F6A ....|--- .... ....|R-- .... ....
....|..|--- .... ....|R-- .... ....|R-- .... ....
 A#3|..|C-4 AF.F ....|G-5 UFFF ....|A#1 2A.F ....
 A#3|..|A#1 2A.F ....|--- .... ....|--- .... ....
....|..|R-- .... ....|--- .... ....|R-- .... ....
....|..|--- .... ....|R-- .... ....|R-- .... ....
 A#3|..|B-8 JF.F ....|A#5 UFF7 ....|A#1 2A.F ....
 A#3|..|A#1 2A.F ....|--- .... ....|--- .... ....
....|..|R-- .... ....|--- .... ....|R-- .... ....
....|..|--- .... ....|R-- .... ....|--- .... ....
 A#3|..|C-4 AF.F ....|F-5 UFFF ....|A#1 2A.F ....
 A#3|..|A#1 2A.F ....|--- .... ....|--- .... ....
....|..|A#3 2F67 ....|--- .... ....|R-- .... ....
....|..|--- .... ....|R-- .... ....|R-- .... ....
 A#3|..|B-8 JF.F ....|G-5 UFFA ....|A#1 2A.F ....
 A#3|..|A#1 2A.F ....|--- .... ....|--- .... ....
....|..|R-- .... ....|R-- .... ....|R-- .... ....
....|..|--- .... ....|R-- .... ....|R-- .... ....
....|..|C-4 AF.F ....|F-5 UFFF ....|D-4 4F2F ....
 C-4|..|C-2 2A.F ....|--- .... ....|--- .... ....
....|..|D-4 2F2F ....|--- .... ....|R-- .... ....
....|..|--- .... ....|R-- .... ....|--- .... ....
 A#3|..|B-8 JF.F ....|F-5 UFFA ....|A#4 2C.F ....
 C-4|..|C-2 2A.F ....|--- .... ....|--- .F.. ....
....|..|R-- .... ....|--- .... ....|R-- .... ....
....|..|--- .... ....|R-- .... ....|R-- .... ....
 C-4|..|C-4 AF.F ....|G-5 UFF7 ....|C-2 2A.F ....
 C-4|..|C-2 2A.F ....|--- .... ....|--- .... ....
....|..|R-- .... ....|R-- .... ....|R-- .... ....
....|..|--- .... ....|R-- .... ....|--- .... ....
 A#3|..|B-8 JF.F ....|G-5 UFFF ....|A#4 2C.F ....
 C-4|..|C-2 2A.F ....|--- .... ....|--- .F.. ....
....|..|D-4 2F2A ....|R-- .... ....|R-- .... ....
....|..|--- .... ....|R-- .... ....|R-- .... ....
 C-4|..|C-4 AF.F ....|G-5 UFFF ....|C-2 2A.F ....
 C-4|..|C-2 2A.F ....|--- .... ....|--- .... ....
....|..|R-- .... ....|--- .... ....|R-- .... ....
....|..|--- .... ....|--- .... ....|R-- .... ....
 C-4|..|B-8 JF.F ....|--- .... ....|C-2 2A.F ....
 C-4|..|C-2 2A.F ....|--- .... ....|--- .... ....
....|..|R-- .... ....|R-- .... ....|R-- .... ....
....|..|--- .... ....|R-- .... ....|--- .... ....
 C-4|..|C-4 AF.F ....|F-5 UFF7 ....|C-2 2A.F ....
 C-4|..|C-2 2A.F ....|--- .... ....|--- .... ....
....|..|D-4 2F27 ....|R-- .... ....|R-- .... ....
....|..|--- .... ....|--- .... ....|R-- .... ....
 C-4|..|B-8 JF.F ....|G-5 UFFA ....|C-2 2A.F ....
 C-4|..|C-2 2A.F ....|--- .... ....|--- .... ....
....|..|R-- .... ....|--- .... ....|R-- .... ....
....|..|--- .... ....|--- .... ....|R-- .... ....

[Pattern31]
....|..|C-4 AF.F ....|R-- .... ....|D-4 4F2F ....
 C-4|..|C-2 2A.F ....|--- .... ....|--- .... ....
....|..|D-4 2F2F ....|--- .... ....|R-- .... ....
....|..|--- .... ....|R-- .... ....|--- .... ....
 A#3|..|B-8 JF.F ....|G-5 UFF7 ....|A#4 2C.F ....
 C-4|..|C-2 2A.F ....|--- .... ....|--- .F.. ....
....|..|R-- .... ....|R-- .... ....|R-- .... ....
....|..|--- .... ....|--- .... ....|R-- .... ....
 C-4|..|C-4 AF.F ....|G-5 UFF7 ....|C-2 2A.F ....
 C-4|..|C-2 2A.F ....|--- .... ....|--- .... ....
....|..|R-- .... ....|--- .... ....|R-- .... ....
....|..|--- .... ....|--- .... ....|--- .... ....
 C-3|..|B-8 JF.F ....|R-- .... ....|C-5 2C.F ....
 C-4|..|C-2 2A.F ....|--- .... ....|--- .... ....
....|..|D-4 2F2A ....|--- .... ....|R-- .... ....
....|..|--- .... ....|--- .... ....|R-- .... ....
 C-4|..|C-4 AF.F ....|--- .... ....|C-2 2A.F ....
 C-4|..|C-2 2A.F ....|--- .... ....|--- .... ....
....|..|R-- .... ....|--- .... ....|R-- .... ....
....|..|--- .... ....|--- .... ....|R-- .... ....
 C-4|..|B-8 JF.F ....|--- .... ....|C-2 2A.F ....
 C-4|..|C-2 2A.F ....|--- .... ....|--- .... ....
....|..|R-- .... ....|--- .... ....|R-- .... ....
....|..|--- .... ....|--- .... ....|--- .... ....
 C-4|..|C-4 AF.F ....|R-- .... ....|C-2 2A.F ....
 C-4|..|C-2 2A.F ....|--- .... ....|--- .... ....
....|..|D-4 2F27 ....|--- .... ....|R-- .... ....
....|..|--- .... ....|--- .... ....|R-- .... ....
 C-4|..|C-4 9F.F ....|--- .... ....|C-2 2A.F ....
 C-4|..|C-2 2A.F ....|--- .... ....|--- .... ....
....|..|R-- .... ....|--- .... ....|R-- .... ....
....|..|--- .... ....|--- .... ....|R-- .... ....
....|..|C-4 AF.F ....|--- .... ....|C-4 4F5F ....
 F-4|..|F-2 2A.F ....|--- .... ....|--- .... ....
....|..|C-4 2F5F ....|--- .... ....|R-- .... ....
....|..|--- .... ....|--- .... ....|--- .... ....
 A-3|..|B-8 JF.F ....|--- .... ....|A-4 2C.F ....
 F-4|..|F-2 2A.F ....|--- .... ....|--- .F.. ....
....|..|R-- .... ....|--- .... ....|R-- .... ....
....|..|--- .... ....|--- .... ....|R-- .... ....
 F-4|..|C-4 AF.F ....|F-5 UFFF ....|F-2 2A.F ....
 F-4|..|F-2 2A.F ....|--- .... ....|--- .... ....
....|..|R-- .... ....|--- .... ....|R-- .... ....
....|..|--- .... ....|--- .... ....|--- .... ....
 A-3|..|B-8 JF.F ....|--- .... ....|A-4 2C.F ....
 F-4|..|F-2 2A.F ....|--- .... ....|--- .F.. ....
....|..|C-4 2F5A ....|--- .... ....|R-- .... ....
....|..|--- .... ....|R-- .... ....|R-- .... ....
 F-4|..|C-4 AF.F ....|E-5 UFFF ....|F-2 2A.F ....
 F-4|..|F-2 2A.F ....|--- .... ....|--- .... ....
....|..|R-- .... ....|--- .... ....|R-- .... ....
....|..|--- .... ....|--- .... ....|R-- .... ....
 F-4|..|B-8 JF.F ....|F-5 UFFA ....|F-2 2A.F ....
 F-4|..|F-2 2A.F ....|--- .... ....|--- .... ....
....|..|R-- .... ....|--- .... ....|R-- .... ....
....|..|--- .... ....|R-- .... ....|--- .... ....
 F-4|..|C-4 AF.F ....|F-5 UFFF ....|F-2 2A.F ....
 F-4|..|F-2 2A.F ....|--- .... ....|--- .... ....
....|..|C-4 2F57 ....|--- .... ....|R-- .... ....
....|..|--- .... ....|R-- .... ....|R-- .... ....
 F-4|..|B-8 JF.F ....|C-5 UFFF ....|F-2 2A.F ....
 F-4|..|F-2 2A.F ....|--- .... ....|--- .... ....
....|..|R-- .... ....|--- .... ....|R-- .... ....
....|..|--- .... ....|--- .... ....|R-- .... ....

[Pattern32]
....|..|C-4 AF.F ....|F-5 UFF7 ....|C-4 4F1F ....
 E-4|..|E-2 2A.F ....|--- .... ....|--- .... ....
....|..|C-4 2F1F ....|--- .... ....|R-- .... ....
....|..|--- .... ....|R-- .... ....|--- .... ....
 C-3|..|B-8 JF.F ....|F-5 UFFA ....|C-5 2C.F ....
 E-4|..|E-2 2A.F ....|--- .... ....|--- .F.. ....
....|..|R-- .... ....|--- .... ....|R-- .... ....
....|..|--- .... ....|R-- .... ....|R-- .... ....
 E-4|..|C-4 AF.F ....|E-5 UFF7 ....|E-2 2A.F ....
 E-4|..|E-2 2A.F ....|--- .... ....|--- .... ....
....|..|R-- .... ....|--- .... ....|R-- .... ....
....|..|--- .... ....|--- .... ....|--- .... ....
 C-3|..|B-8 JF.F ....|--- .... ....|C-5 2C.F ....
 E-4|..|E-2 2A.F ....|--- .... ....|--- .F.. ....
....|..|C-4 2F1A ....|--- .... ....|R-- .... ....
....|..|--- .... ....|R-- .... ....|--- .... ....
 E-4|..|C-4 AF.F ....|F-5 UFF7 ....|E-2 2A.F ....
 E-4|..|E-2 2A.F ....|--- .... ....|--- .... ....
....|..|R-- .... ....|--- .... ....|R-- .... ....
....|..|--- .... ....|--- .... ....|R-- .... ....
 E-4|..|B-8 JF.F ....|C-5 UFF7 ....|E-2 2A.F ....
 E-4|..|E-2 2A.F ....|--- .... ....|--- .... ....
....|..|R-- .... ....|--- .... ....|R-- .... ....
....|..|--- .... ....|--- .... ....|--- .... ....
 E-4|..|C-4 AF.F ....|--- .... ....|E-2 2A.F ....
 E-4|..|E-2 2A.F ....|--- .... ....|--- .... ....
....|..|C-4 2F17 ....|--- .... ....|R-- .... ....
....|..|--- .... ....|--- .... ....|--- .... ....
 E-4|..|B-8 JF.F ....|R-- .... ....|E-2 2A.F ....
 E-4|..|E-2 2A.F ....|--- .... ....|--- .... ....
....|..|R-- .... ....|--- .... ....|R-- .... ....
....|..|--- .... ....|--- .... ....|R-- .... ....
....|..|C-4 AF.F ....|--- .... ....|D-4 4F6F ....
 D-4|..|D-2 2A.F ....|--- .... ....|--- .... ....
....|..|D-4 2F6F ....|--- .... ....|R-- .... ....
....|..|--- .... ....|--- .... ....|--- .... ....
 A-3|..|B-8 JF.F ....|--- .... ....|A-4 2C.F ....
 D-4|..|D-2 2A.F ....|--- .... ....|--- .F.. ....
....|..|R-- .... ....|--- .... ....|R-- .... ....
....|..|--- .... ....|--- .... ....|R-- .... ....
 D-4|..|C-4 AF.F ....|F-5 UFFF ....|D-2 2A.F ....
 D-4|..|D-2 2A.F ....|--- .... ....|--- .... ....
....|..|R-- .... ....|--- .... ....|R-- .... ....
....|..|--- .... ....|--- .... ....|--- .... ....
 A-3|..|B-8 JF.F ....|--- .... ....|A-4 2C.F ....
 D-4|..|D-2 2A.F ....|--- .... ....|--- .F.. ....
....|..|D-4 2F6A ....|--- .... ....|R-- .... ....
....|..|--- .... ....|R-- .... ....|R-- .... ....
 D-4|..|C-4 AF.F ....|E-5 UFFF ....|D-2 2A.F ....
 D-4|..|D-2 2A.F ....|--- .... ....|--- .... ....
....|..|R-- .... ....|--- .... ....|R-- .... ....
....|..|--- .... ....|--- .... ....|R-- .... ....
 D-4|..|B-8 JF.F ....|F-5 UFFA ....|D-2 2A.F ....
 D-4|..|D-2 2A.F ....|--- .... ....|--- .... ....
....|..|R-- .... ....|--- .... ....|R-- .... ....
....|..|--- .... ....|R-- .... ....|--- .... ....
 D-4|..|C-4 AF.F ....|F-5 UFFF ....|D-2 2A.F ....
 D-4|..|D-2 2A.F ....|--- .... ....|--- .... ....
....|..|D-4 2F67 ....|--- .... ....|R-- .... ....
....|..|--- .... ....|R-- .... ....|R-- .... ....
 D-4|..|B-8 JF.F ....|C-6 UFFF ....|D-2 2A.F ....
 D-4|..|D-2 2A.F ....|--- .... ....|--- .... ....
....|..|R-- .... ....|--- .... ....|R-- .... ....
....|..|--- .... ....|--- .... ....|R-- .... ....

[Pattern33]
....|..|C-4 AF.F ....|F-5 UFF7 ....|C-4 4F7F ....
 C-4|..|C-2 2A.F ....|--- .... ....|--- .... ....
....|..|C-4 2F7F ....|--- .... ....|R-- .... ....
....|..|--- .... ....|R-- .... ....|--- .... ....
 C-3|..|B-8 JF.F ....|F-5 UFFA ....|C-5 2C.F ....
 C-4|..|C-2 2A.F ....|--- .... ....|--- .... ....
....|..|R-- .... ....|--- .... ....|R-- .... ....
 C-3|..|--- .... ....|R-- .... ....|C-5 2C.F ....
 C-4|..|C-4 AF.F ....|E-5 UFF7 ....|C-2 2A.F ....
 C-4|..|C-2 2A.F ....|--- .... ....|--- .... ....
....|..|R-- .... ....|--- .... ....|R-- .... ....
....|..|--- .... ....|--- .... ....|--- .... ....
 C-3|..|B-8 JF.F ....|--- .... ....|C-5 2C.F ....
 C-4|..|C-2 2A.F ....|--- .... ....|--- .... ....
....|..|C-4 2F7A ....|--- .... ....|R-- .... ....
....|..|--- .... ....|R-- .... ....|R-- .... ....
....|..|C-4 AF.F ....|F-5 UFF7 ....|D-4 4F1F ....
 D-4|..|D-2 2A.F ....|--- .... ....|--- .... ....
....|..|D-4 2F1F ....|--- .... ....|R-- .... ....
....|..|--- .... ....|--- .... ....|C-5 2F.A ....
 D-4|..|B-8 JF.F ....|C-6 UFF7 ....|D-2 2A.F ....
 D-4|..|D-2 2A.F ....|--- .... ....|--- .... ....
....|..|R-- .... ....|--- .... ....|R-- .... ....
....|..|--- .... ....|--- .... ....|--- .... ....
 D-4|..|C-4 AF.F ....|--- .... ....|D-2 2A.F ....
 D-4|..|D-2 2A.F ....|--- .... ....|--- .... ....
....|..|C-4 2F77 ....|--- .... ....|R-- .... ....
....|..|--- .... ....|--- .... ....|R-- .... ....
 D-4|..|B-8 JF.F ....|R-- .... ....|D-2 2A.F ....
 D-4|..|D-2 2A.F ....|--- .... ....|--- .... ....
....|..|D-4 2F1A ....|--- .... ....|R-- .... ....
....|..|--- .... ....|--- .... ....|C-5 2F.7 ....
....|..|C-4 AF.F ....|A#5 UFFF ....|D-4 4F8F ....
 G-4|..|G-2 2A.F ....|--- .... ....|--- .... ....
....|..|D-4 2F8F ....|--- .... ....|R-- .... ....
....|..|--- .... ....|R-- .... ....|--- .... ....
 A#3|..|B-8 JF.F ....|A#5 UFFF ....|A#4 2C.F ....
 G-4|..|G-2 2A.F ....|--- .... ....|--- .F.. ....
....|..|R-- .... ....|--- .... ....|R-- .... ....
....|..|--- .... ....|R-- .... ....|R-- .... ....
 G-4|..|C-4 AF.F ....|A#5 UFFF ....|G-2 2A.F ....
 G-4|..|G-2 2A.F ....|--- .... ....|--- .... ....
....|..|D-4 2F17 ....|--- .... ....|R-- .... ....
....|..|--- .... ....|R-- .... ....|--- .... ....
 A#3|..|B-8 JF.F ....|A#5 UFFF ....|A#4 2C.F ....
 G-4|..|G-2 2A.F ....|--- .... ....|--- .F.. ....
....|..|D-4 2F8A ....|R-- .... ....|R-- .... ....
....|..|--- .... ....|R-- .... ....|R-- .... ....
 G-4|..|C-4 AF.F ....|A#5 UFFF ....|G-2 2A.F ....
 G-4|..|G-2 2A.F ....|--- .... ....|--- .... ....
....|..|R-- .... ....|--- .... ....|R-- .... ....
....|..|--- .... ....|R-- .... ....|R-- .... ....
 G-4|..|B-8 JF.F ....|A-5 UFFF ....|G-2 2A.F ....
 G-4|..|G-2 2A.F ....|--- .... ....|--- .... ....
....|..|R-- .... ....|--- .... ....|R-- .... ....
....|..|--- .... ....|R-- .... ....|--- .... ....
....|..|C-4 AF.F ....|G-5 UFFF ....|F-4 4F.F ....
 G-4|..|G-2 2A.F ....|--- .... ....|--- .... ....
....|..|D-4 2F87 ....|R-- .... ....|R-- .... ....
....|..|--- .... ....|R-- .... ....|R-- .... ....
 G-4|..|B-8 JF.F ....|A#5 UFFF ....|G-2 2A.F ....
 G-4|..|G-2 2A.F ....|--- .... ....|--- .... ....
....|..|R-- .... ....|--- .... ....|R-- .... ....
....|..|--- .... ....|R-- .... ....|R-- .... ....

[Pattern34]
....|..|C-4 AF.F ....|G-4 3F.F ....|G-4 4F.F ....
 A#3|..|A#1 2A.F ....|--- .... ....|--- .... ....
....|..|C#4 2F4F ....|--- .... ....|R-- .... ....
....|..|--- .... ....|R-- .... ....|--- .... ....
 A#3|..|B-8 JF.F ....|A#5 UFF7 ....|A#4 2C.F ....
 A#3|..|A#1 2A.F ....|--- .... ....|--- .... ....
....|..|R-- .... ....|R-- .... ....|R-- .... ....
....|..|--- .... ....|--- .... ....|R-- .... ....
 A#3|..|C-4 AF.F ....|A#5 UFF7 ....|A#1 2A.F ....
 A#3|..|A#1 2A.F ....|--- .... ....|--- .... ....
....|..|R-- .... ....|--- .... ....|R-- .... ....
....|..|--- .... ....|--- .... ....|--- .... ....
 A#3|..|B-8 JF.F ....|A-5 UFF7 ....|A#4 2C.F ....
 A#3|..|A#1 2A.F ....|--- .... ....|--- .... ....
....|..|C#4 2F4A ....|--- .... ....|R-- .... ....
....|..|--- .... ....|--- .... ....|R-- .... ....
 A#3|..|C-4 AF.F ....|G-5 UFF7 ....|A#1 2A.F ....
 A#3|..|A#1 2A.F ....|--- .... ....|--- .... ....
....|..|R-- .... ....|--- .... ....|R-- .... ....
....|..|--- .... ....|--- .... ....|R-- .... ....
 A#3|..|B-8 JF.F ....|G-5 UFFF ....|A#1 2A.F ....
 A#3|..|A#1 2A.F ....|--- .... ....|--- .... ....
....|..|R-- .... ....|--- .... ....|R-- .... ....
....|..|--- .... ....|--- .... ....|--- .... ....
 A#3|..|C-4 AF.F ....|A-5 UFFF ....|A#1 2A.F ....
 A#3|..|A#1 2A.F ....|--- .... ....|--- .... ....
....|..|C#4 2F47 ....|--- .... ....|R-- .... ....
....|..|--- .... ....|R-- .... ....|R-- .... ....
 A#3|..|B-8 JF.F ....|A#5 UFFF ....|A#1 2A.F ....
 A#3|..|A#1 2A.F ....|--- .... ....|--- .... ....
....|..|R-- .... ....|--- .... ....|R-- .... ....
....|..|--- .... ....|R-- .... ....|R-- .... ....
....|..|C-4 AF.F ....|A-5 UFFF ....|A-4 4F.F ....
 F-4|..|F-2 2A.F ....|A-4 3F.F ....|A-4 4F.F ....
....|..|C-4 2F5F ....|--- .... ....|R-- .... ....
....|..|--- .... ....|--- .... ....|--- .... ....
 A-3|..|B-8 JF.F ....|A-5 UFFA ....|A-4 2C.F ....
 F-4|..|F-2 2A.F ....|--- .... ....|--- .F.. ....
....|..|R-- .... ....|R-- .... ....|R-- .... ....
....|..|--- .... ....|R-- .... ....|R-- .... ....
 F-4|..|C-4 AF.F ....|A-5 UFFF ....|F-2 2A.F ....
 F-4|..|F-2 2A.F ....|--- .... ....|--- .... ....
....|..|R-- .... ....|--- .... ....|R-- .... ....
....|..|--- .... ....|R-- .... ....|--- .... ....
 A-3|..|B-8 JF.F ....|G-5 UFF7 ....|A-4 2C.F ....
 F-4|..|F-2 2A.F ....|A-4 3F.A ....|A-4 4F.A ....
....|..|C-4 2F5A ....|R-- .... ....|R-- .... ....
 F-4|..|--- .... ....|--- .... ....|F-4 2C.F ....
 F-4|..|C-4 AF.F ....|A-5 UFFF ....|F-2 2A.F ....
 F-4|..|F-2 2A.F ....|--- .... ....|--- .... ....
....|..|R-- .... ....|R-- .... ....|R-- .... ....
....|..|--- .... ....|R-- .... ....|R-- .... ....
 F-4|..|B-8 JF.F ....|G-5 UFFF ....|F-2 2A.F ....
 F-4|..|F-2 2A.F ....|--- .... ....|--- .... ....
....|..|R-- .... ....|--- .... ....|R-- .... ....
....|..|--- .... ....|R-- .... ....|--- .... ....
 F-4|..|C-4 AF.F ....|F-5 UFFF ....|F-2 2A.F ....
 F-4|..|F-2 2A.F ....|A-4 3F.7 ....|A-4 4F.7 ....
....|..|C-4 2F57 ....|R-- .... ....|R-- .... ....
....|..|--- .... ....|R-- .... ....|F-4 2F.A ....
 F-4|..|B-8 JF.F ....|A-5 UFFF ....|F-2 2A.F ....
 F-4|..|F-2 2A.F ....|--- .... ....|--- .... ....
....|..|R-- .... ....|R-- .... ....|R-- .... ....
....|..|--- .... ....|--- .... ....|R-- .... ....

[Pattern35]
....|..|C-4 AF.F ....|A-5 UFF7 ....|D-4 4F1F ....
 D-4|..|D-2 2A.F ....|--- .... ....|--- .... ....
....|..|D-4 2F1F ....|--- .... ....|R-- .... ....
....|..|--- .... ....|--- .... ....|--- .... ....
 A-3|..|B-8 JF.F ....|F-5 UFFA ....|A-4 2C.F ....
 D-4|..|D-2 2A.F ....|--- .... ....|--- .F.. ....
....|..|R-- .... ....|R-- .... ....|R-- .... ....
....|..|--- .... ....|R-- .... ....|F-4 2F.7 ....
....|..|C-4 AF.F ....|A-4 3F.F ....|A-4 4F.F ....
 D-4|..|D-2 2A.F ....|--- .... ....|--- .... ....
....|..|R-- .... ....|--- .... ....|R-- .... ....
....|..|--- .... ....|--- .... ....|--- .... ....
....|..|B-8 JF.F ....|A#4 3F.F ....|A#4 4F.F ....
 D-4|..|D-2 2A.F ....|--- .... ....|--- .... ....
....|..|D-4 2F1A ....|--- .... ....|R-- .... ....
....|..|--- .... ....|--- .... ....|R-- .... ....
....|..|C-4 AF.F ....|C-5 3F.F ....|C-5 4F.F ....
 D-4|..|D-2 2A.F ....|R-- .... ....|--- .... ....
....|..|R-- .... ....|--- .... ....|R-- .... ....
....|..|--- .... ....|R-- .... ....|R-- .... ....
....|..|C-4 LF.F ....|D#5 3F.F ....|D#5 4F.F ....
 D-4|..|D-2 2A.F ....|--- .... ....|--- .... ....
....|..|R-- .... ....|--- .... ....|R-- .... ....
....|..|--- .... ....|--- .... ....|--- .... ....
....|..|C-4 AF.F ....|D-5 3F.F ....|D-5 4F.F ....
 D-4|..|D-2 2A.F ....|--- .... ....|--- .... ....
....|..|D-4 2F17 ....|E-5 3F.F ....|E-5 4F.F ....
....|..|--- .... ....|--- .... ....|R-- .... ....
....|..|C-3 RF.F ....|F#5 3F.F ....|F#5 4F.F ....
 D-4|..|D-2 2A.F ....|R-- .... ....|--- .... ....
....|..|R-- .... ....|A-5 3F.F ....|A-5 4F.F ....
....|..|--- .... ....|--- .... ....|R-- .... ....
....|..|C-4 AF.F ....|D-5 UFFF ....|A#5 4F.F ....
 A#3|..|A#1 2A.F ....|--- .... ....|--- .... ....
....|..|A#3 2F1F ....|--- .... ....|R-- .... ....
....|..|--- .... ....|--- .... ....|--- .... ....
 A#3|..|B-8 JF.F ....|A#4 3F.7 ....|A#4 2C.F ....
 A#3|..|A#1 2A.F ....|--- .... ....|--- .... ....
....|..|R-- .... ....|E-5 3F.A ....|E-5 4F.A ....
....|..|--- .... ....|--- .... ....|R-- .... ....
 A#3|..|C-4 AF.F ....|E-5 UFFF ....|A#1 2A.F ....
 A#3|..|A#1 2A.F ....|R-- .... ....|--- .... ....
....|..|R-- .... ....|A-5 3F.A ....|A-5 4F.A ....
....|..|--- .... ....|--- .... ....|--- .... ....
 A#3|..|B-8 JF.F ....|D#5 3F.7 ....|A#4 2C.F ....
 A#3|..|A#1 2A.F ....|--- .... ....|--- .... ....
....|..|A#3 2F1A ....|--- .... ....|R-- .... ....
....|..|--- .... ....|R-- .... ....|--- .... ....
 A#3|..|C-4 AF.F ....|F-5 UFFF ....|A#1 2A.F ....
 A#3|..|A#1 2A.F ....|--- .... ....|--- .... ....
....|..|R-- .... ....|E-5 3F.7 ....|E-5 4F.7 ....
....|..|--- .... ....|--- .... ....|R-- .... ....
 A#3|..|B-8 JF.F ....|F#5 3F.7 ....|A#1 2A.F ....
 A#3|..|A#1 2A.F ....|--- .... ....|--- .... ....
....|..|R-- .... ....|A-5 3F.7 ....|A-5 4F.7 ....
....|..|--- .... ....|R-- .... ....|--- .... ....
 A#3|..|C-4 AF.F ....|G-5 UFFF ....|A#1 2A.F ....
 A#3|..|A#1 2A.F ....|--- .... ....|--- .... ....
....|..|A#3 2F17 ....|--- .... ....|R-- .... ....
....|..|--- .... ....|R-- .... ....|--- .... ....
 A#3|..|B-8 JF.F ....|D-5 UFFF ....|A#1 2A.F ....
 A#3|..|A#1 2A.F ....|--- .... ....|D-4 4F9F ....
....|..|D-4 2F9F ....|--- .... ....|R-- .... ....
....|..|--- .... ....|--- .... ....|R-- .... ....

[Pattern36]
....|..|C-4 AF.F ....|E-5 UFF7 ....|A#3 4F1F ....
 A#3|..|A#1 2A.F ....|--- .... ....|--- .... ....
....|..|A#3 2F1F ....|--- .... ....|R-- .... ....
....|..|--- .... ....|R-- .... ....|--- .... ....
 A#3|..|B-8 JF.F ....|D-5 UFFF ....|A#4 2C.F ....
 A#3|..|A#1 2A.F ....|--- .... ....|--- .... ....
....|..|R-- .... ....|--- .... ....|R-- .... ....
....|..|--- .... ....|R-- .... ....|R-- .... ....
 A#3|..|C-4 AF.F ....|E-5 UFFF ....|A#1 2A.F ....
 A#3|..|A#1 2A.F ....|--- .... ....|D-4 4F9A ....
....|..|D-4 2F9A ....|--- .... ....|R-- .... ....
....|..|--- .... ....|--- .... ....|--- .... ....
 A#3|..|B-8 JF.F ....|--- .... ....|A#4 2C.F ....
 A#3|..|A#1 2A.F ....|--- .... ....|--- .... ....
....|..|A#3 2F1A ....|--- .... ....|R-- .... ....
....|..|--- .... ....|R-- .... ....|R-- .... ....
 A#3|..|C-4 AF.F ....|F-5 UFFF ....|A#1 2A.F ....
 A#3|..|A#1 2A.F ....|--- .... ....|--- .... ....
....|..|R-- .... ....|--- .... ....|R-- .... ....
....|..|--- .... ....|R-- .... ....|R-- .... ....
 A#3|..|B-8 JF.F ....|G-5 UFFF ....|A#1 2A.F ....
 A#3|..|A#1 2A.F ....|--- .... ....|D-4 4F97 ....
....|..|D-4 2F97 ....|--- .... ....|R-- .... ....
....|..|--- .... ....|R-- .... ....|--- .... ....
....|..|C-4 AF.F ....|F-5 UFFF ....|F-5 4F.F ....
 A#3|..|A#1 2A.F ....|--- .... ....|--- .... ....
....|..|C-4 LF.F ....|G-5 3F.F ....|G-5 4F.F ....
....|..|R-- .... ....|R-- .... ....|R-- .... ....
....|..|B-8 JF.F ....|C-6 UFFF ....|A-5 4F.F ....
 A#3|..|A#1 2A.F ....|--- .... ....|--- .... ....
....|..|C-4 9F.F ....|A#5 3F.F ....|A#5 4F.F ....
....|..|R-- .... ....|R-- .... ....|R-- .... ....
....|..|C-4 AF.F ....|C-6 3F.F ....|C-6 4F.F ....
 C-4|..|C-2 2A.F ....|--- .... ....|R-- .... ....
....|..|C-4 LF.F ....|C-6 3F.F ....|C-6 4F.F ....
 F-4|..|C-2 2F.F ....|R-- .... ....|F-4 2C.F ....
....|..|C-4 LF.F ....|F-5 UFFA ....|A#4 2F.7 ....
....|..|A#1 2F.7 ....|--- .... ....|--- .... ....
....|..|C-4 LF.A ....|G-5 3F.A ....|G-5 4F.A ....
....|..|R-- .... ....|R-- .... ....|R-- .... ....
....|..|C-4 AF.F ....|F-5 UFF7 ....|A#1 2F.7 ....
....|..|A#1 2F.7 ....|--- .... ....|--- .... ....
....|..|C-4 9F.A ....|A#5 3F.A ....|A#5 4F.A ....
....|..|R-- .... ....|--- .... ....|--- .... ....
....|..|C-4 LF.F ....|C-6 3F.F ....|C-6 4F.F ....
 C-4|..|C-2 2A.F ....|--- .... ....|R-- .... ....
....|..|C-4 LF.F ....|C-6 3F.F ....|C-6 4F.F ....
 C-4|..|C-2 2A.F ....|R-- .... ....|F-4 2F.A ....
....|..|C-4 AF.F ....|F-5 UFF7 ....|F-5 4F.7 ....
....|..|A#1 2F.7 ....|--- .... ....|--- .... ....
....|..|C-4 LF.7 ....|G-5 3F.7 ....|G-5 4F.7 ....
....|..|R-- .... ....|R-- .... ....|--- .... ....
....|..|C-4 9F.F ....|C-6 UFF7 ....|A-5 4F.7 ....
....|..|A#1 2F.7 ....|--- .... ....|--- .... ....
....|..|C-4 9F.7 ....|A#5 3F.7 ....|A#5 4F.7 ....
....|..|R-- .... ....|--- .... ....|--- .... ....
....|..|C-4 AF.F ....|C-6 3F.F ....|C-6 4F.F ....
 C-4|..|C-2 2A.F ....|--- .... ....|R-- .... ....
....|..|C-4 LF.F ....|C-6 3F.F ....|C-6 4F.F ....
 C-4|..|C-2 2A.F ....|--- .... ....|F-4 2F.7 ....
....|..|C-4 LF.F ....|R-- .... ....|R-- .... ....
....|..|R-- .... ....|--- .... ....|--- .... ....
....|..|--- .... ....|--- .... ....|--- .... ....
....|..|--- .... ....|--- .... ....|--- .... ....

[Pattern37]
....|..|C-4 9F.F ....|--- .... ....|--- .... ....
....|..|--- .... ....|--- .... ....|--- .... ....
....|..|--- .... ....|--- .... ....|--- .... ....
....|..|--- .... ....|--- .... ....|--- .... ....
....|..|C-4 AF.F ....|C-6 3F.F ....|C-6 4F.F ....
 C-4|..|C-2 2A.F ....|R-- .... ....|R-- .... ....
....|..|C-4 LF.7 ....|C-6 3F.7 ....|C-6 4F.7 ....
....|..|C-2 2F.7 ....|--- .... ....|R-- .... ....
....|..|C-4 AF.F ....|C-6 3F.F ....|C-6 4F.F ....
 C-4|..|C-2 2A.F ....|--- .... ....|--- .... ....
....|..|--- .... ....|--- .... ....|--- .... ....
....|..|--- .... ....|--- .... ....|--- .... ....
....|..|C-4 9F.7 ....|--- .... ....|--- .... ....
....|..|--- .... ....|--- .... ....|--- .... ....
....|..|--- .... ....|--- .... ....|--- .... ....
....|..|--- .... ....|--- .... ....|--- .... ....
....|..|C-4 AF.7 ....|F-5 UFFF ....|C-6 4F.7 ....
....|..|C-2 2F.7 ....|R-- .... ....|R-- .... ....
....|..|C-4 LF.7 ....|C-6 3F.7 ....|C-6 4F.7 ....
....|..|C-2 2F.7 ....|--- .... ....|R-- .... ....
....|..|C-4 9F.F ....|G-5 UFFF ....|C-6 4F.A ....
....|..|C-2 2F.A ....|--- .... ....|--- .... ....
....|..|--- .... ....|--- .... ....|--- .... ....
....|..|--- .... ....|--- .... ....|--- .... ....
....|..|C-4 CF.F ....|A-5 UFFF ....|--- .... ....
....|..|--- .... ....|--- .... ....|--- .... ....
....|..|C-4 CF.F ....|--- .... ....|--- .... ....
....|..|R-- .... ....|--- .... ....|R-- .... ....
....|..|C-4 9F.F ....|A#5 UFFF ....|C-6 4F.7 ....
....|..|C-2 2F.7 ....|R-- .... ....|R-- .... ....
....|..|R-- .... ....|R-- .... ....|R-- .... ....
....|..|--- .... ....|--- .... ....|--- .... ....
....|..|C-4 AF.F ....|C-6 UFFF ....|C-4 4F5F ....
 F-4|..|F-2 2A.F ....|--- .... ....|--- .... ....
....|..|C-4 2F5F ....|--- .... ....|R-- .... ....
....|..|--- .... ....|--- .... ....|--- .... ....
 F-4|..|B-8 JF.F ....|A-5 UFFA ....|F-4 2C.F ....
 F-4|..|F-2 2A.F ....|R-- .... ....|--- .... ....
....|..|C-4 CF.A ....|--- .... ....|R-- .... ....
....|..|R-- .... ....|--- .... ....|R-- .... ....
....|..|C-4 AF.F ....|A-5 UFFF ....|F-5 4F.F ....
 F-4|..|F-2 2A.F ....|--- .... ....|--- .... ....
....|..|R-- .... ....|G-5 3F.F ....|G-5 4F.F ....
....|..|--- .... ....|R-- .... ....|--- .... ....
....|..|B-8 JF.F ....|F-5 UFFF ....|A-5 4F.F ....
 F-4|..|F-2 2A.F ....|--- .... ....|--- .... ....
....|..|C-4 2F5A ....|A#5 3F.F ....|A#5 4F.F ....
....|..|--- .... ....|--- .... ....|--- .... ....
....|..|C-4 AF.F ....|C-6 3F.F ....|C-6 4F.F ....
 F-4|..|F-2 2A.F ....|R-- .... ....|--- .... ....
....|..|C-4 CF.7 ....|--- .... ....|R-- .... ....
....|..|R-- .... ....|--- .... ....|R-- .... ....
 F-4|..|B-8 JF.F ....|C-6 UFFF ....|F-2 2A.F ....
 F-4|..|F-2 2A.F ....|--- .... ....|--- .... ....
....|..|R-- .... ....|G-5 3F.A ....|G-5 4F.A ....
....|..|--- .... ....|R-- .... ....|--- .... ....
 F-4|..|C-4 AF.F ....|C-6 UFF7 ....|F-2 2A.F ....
 F-4|..|F-2 2A.F ....|--- .... ....|--- .... ....
....|..|C-4 2F57 ....|A#5 3F.A ....|A#5 4F.A ....
....|..|--- .... ....|--- .... ....|--- .... ....
 F-4|..|B-8 JF.F ....|A#5 UFFF ....|F-2 2A.F ....
 F-4|..|F-2 2A.F ....|R-- .... ....|--- .... ....
....|..|R-- .... ....|--- .... ....|R-- .... ....
....|..|--- .... ....|--- .... ....|--- .... ....

[Pattern38]
....|..|C-4 AF.F ....|A-5 UFF7 ....|C-4 4F1F ....
 C-4|..|C-2 2A.F ....|--- .... ....|--- .... ....
....|..|C-4 2F1F ....|G-5 3F.7 ....|G-5 4F.7 ....
....|..|--- .... ....|R-- .... ....|--- .... ....
 E-4|..|B-8 JF.F ....|G-5 UFFF ....|E-4 2C.F ....
 C-4|..|C-2 2A.F ....|--- .... ....|--- .F.. ....
....|..|R-- .... ....|A#5 3F.7 ....|A#5 4F.7 ....
....|..|--- .... ....|R-- .... ....|--- .... ....
 G-4|..|C-4 AF.F ....|C-6 3F.7 ....|G-4 2C.F ....
 C-4|..|C-2 2A.F ....|--- .... ....|--- .F.. ....
....|..|R-- .... ....|--- .... ....|R-- .... ....
....|..|--- .... ....|--- .... ....|--- .... ....
 C-3|..|B-8 JF.F ....|C-6 UFF7 ....|C-5 2C.F ....
 C-4|..|C-2 2A.F ....|--- .... ....|--- .... ....
....|..|C-4 2F1A ....|--- .... ....|R-- .... ....
....|..|--- .... ....|R-- .... ....|--- .... ....
 C-4|..|C-4 AF.F ....|G-5 UFFA ....|C-2 2A.F ....
 C-4|..|C-2 2A.F ....|--- .... ....|--- .... ....
....|..|R-- .... ....|--- .... ....|R-- .... ....
....|..|--- .... ....|R-- .... ....|--- .... ....
 G-4|..|B-8 JF.F ....|A#5 UFF7 ....|G-4 2C.F ....
 C-4|..|C-2 2A.F ....|--- .... ....|--- .F.. ....
....|..|R-- .... ....|--- .... ....|R-- .... ....
....|..|--- .... ....|--- .... ....|--- .... ....
 E-4|..|C-4 AF.F ....|--- .... ....|E-4 2C.F ....
 C-4|..|C-2 2A.F ....|--- .... ....|--- .F.. ....
....|..|C-4 2F17 ....|--- .... ....|R-- .... ....
....|..|--- .... ....|R-- .... ....|--- .... ....
 C-4|..|B-8 JF.F ....|G-5 UFF7 ....|C-2 2A.F ....
 C-4|..|C-2 2A.F ....|--- .... ....|--- .... ....
....|..|R-- .... ....|--- .... ....|R-- .... ....
....|..|--- .... ....|R-- .... ....|--- .... ....
....|..|C-4 AF.F ....|A#5 UFFF ....|C-4 4F1F ....
 C-4|..|C-2 2A.F ....|R-- .... ....|R-- .... ....
....|..|C-4 2F1F ....|--- .... ....|R-- .... ....
....|..|--- .... ....|--- .... ....|--- .... ....
 C-3|..|B-8 JF.F ....|R-- .... ....|C-4 2C.F ....
 C-4|..|C-2 2A.F ....|--- .... ....|--- .... ....
....|..|R-- .... ....|--- .... ....|R-- .... ....
....|..|--- .... ....|--- .... ....|--- .... ....
 E-4|..|C-4 AF.F ....|G-5 UFFF ....|E-4 2C.F ....
 C-4|..|C-2 2A.F ....|--- .... ....|--- .F.. ....
....|..|R-- .... ....|--- .... ....|R-- .... ....
....|..|--- .... ....|R-- .... ....|--- .... ....
....|..|B-8 JF.F ....|E-5 UFFF ....|C-5 4F.F ....
 C-4|..|C-2 2A.F ....|R-- .... ....|R-- .... ....
....|..|C-4 2F1A ....|--- .... ....|R-- .... ....
....|..|--- .... ....|--- .... ....|--- .... ....
....|..|C-4 AF.F ....|A#5 3F.F ....|A#5 4F.F ....
 C#4|..|C#2 2A.F ....|--- .... ....|--- .... ....
....|..|C#4 2F3F ....|--- .... ....|R-- .... ....
....|..|--- .... ....|--- .... ....|--- .... ....
 E-4|..|B-8 JF.F ....|A#5 UFFF ....|E-4 2C.F ....
 C#4|..|C#2 2A.F ....|--- .... ....|--- .F.. ....
....|..|R-- .... ....|--- .... ....|R-- .... ....
....|..|--- .... ....|R-- .... ....|--- .... ....
 G-4|..|C-4 AF.F ....|A#5 UFF7 ....|G-4 2C.F ....
 C#4|..|C#2 2A.F ....|R-- .... ....|R-- .... ....
....|..|C-4 2F17 ....|--- .... ....|R-- .... ....
....|..|--- .... ....|--- .... ....|--- .... ....
 C#4|..|B-8 JF.F ....|A-5 UFFF ....|C#5 2C.F ....
 C#4|..|C#2 2A.F ....|--- .... ....|--- .... ....
....|..|C#4 2F3A ....|--- .... ....|R-- .... ....
....|..|--- .... ....|--- .... ....|--- .... ....

[Pattern39]
....|..|C-4 AF.F ....|G-5 UFF7 ....|D-4 4F6F ....
 D-4|..|D-2 2A.F ....|R-- .... ....|R-- .... ....
....|..|D-4 2F6F ....|--- .... ....|R-- .... ....
....|..|--- .... ....|R-- .... ....|--- .... ....
 F-4|..|B-8 JF.F ....|F-5 UFFF ....|F-4 2C.F ....
 D-4|..|D-2 2A.F ....|R-- .... ....|--- .F.. ....
....|..|R-- .... ....|--- .... ....|R-- .... ....
....|..|--- .... ....|R-- .... ....|--- .... ....
 A-3|..|C-4 AF.F ....|A#5 3F.7 ....|A-4 2C.F ....
 D-4|..|D-2 2A.F ....|--- .... ....|--- .F.. ....
....|..|C#4 2F37 ....|--- .... ....|R-- .... ....
....|..|--- .... ....|--- .... ....|--- .... ....
....|..|B-8 JF.F ....|D-5 3F.F ....|D-5 4F.F ....
 D-4|..|D-2 2A.F ....|R-- .... ....|R-- .... ....
....|..|D-4 2F6A ....|--- .... ....|R-- .... ....
....|..|--- .... ....|--- .... ....|--- .... ....
....|..|C-4 AF.F ....|D-6 3F.F ....|D-6 4F.F ....
 D-4|..|D-2 2A.F ....|R-- .... ....|--- .... ....
....|..|R-- .... ....|--- .... ....|R-- .... ....
....|..|--- .... ....|R-- .... ....|--- .... ....
....|..|C-4 CF.F ....|C-6 3F.F ....|C-6 4F.F ....
 D-4|..|D-2 2A.F ....|--- .... ....|--- .... ....
....|..|R-- .... ....|--- .... ....|R-- .... ....
....|..|--- .... ....|--- .... ....|--- .... ....
....|..|C-4 AF.F ....|A#5 3F.F ....|A#5 4F.F ....
 D-4|..|D-2 2A.F ....|R-- .... ....|R-- .... ....
....|..|D-4 2F67 ....|--- .... ....|R-- .... ....
....|..|--- .... ....|--- .... ....|--- .... ....
....|..|B-8 JF.F ....|A-5 3F.F ....|A-5 4F.F ....
 D-4|..|D-2 2A.F ....|--- .... ....|--- .... ....
....|..|R-- .... ....|--- .... ....|R-- .... ....
....|..|--- .... ....|R-- .... ....|--- .... ....
....|..|C-4 AF.F ....|A#5 3F.F ....|A#5 4F.F ....
 A#3|..|A#1 2A.F ....|--- .... ....|--- .... ....
....|..|A#3 2F6F ....|--- .... ....|R-- .... ....
....|..|--- .... ....|--- .... ....|--- .... ....
 C#4|..|B-8 JF.F ....|D-5 3F.7 ....|C#4 2C.F ....
 A#3|..|A#1 2A.F ....|--- .... ....|--- .F.. ....
....|..|R-- .... ....|--- .... ....|R-- .... ....
....|..|--- .... ....|--- .... ....|--- .... ....
 F-4|..|C-4 AF.F ....|C#5 UFFF ....|F-4 2C.F ....
 A#3|..|A#1 2A.F ....|--- .... ....|--- .F.. ....
....|..|R-- .... ....|--- .... ....|R-- .... ....
....|..|--- .... ....|--- .... ....|--- .... ....
 A#3|..|B-8 JF.F ....|C-6 3F.7 ....|A#4 2C.F ....
 A#3|..|A#1 2A.F ....|--- .... ....|--- .... ....
....|..|A#3 2F6A ....|--- .... ....|R-- .... ....
....|..|--- .... ....|R-- .... ....|--- .... ....
 A#3|..|C-4 AF.F ....|F-5 UFFF ....|A#1 2A.F ....
 A#3|..|A#1 2A.F ....|--- .... ....|--- .... ....
....|..|R-- .... ....|--- .... ....|R-- .... ....
....|..|--- .... ....|--- .... ....|--- .... ....
 F-4|..|B-8 JF.F ....|A-5 3F.7 ....|F-4 2C.F ....
 A#3|..|A#1 2A.F ....|--- .... ....|--- .F.. ....
....|..|R-- .... ....|--- .... ....|R-- .... ....
....|..|--- .... ....|--- .... ....|--- .... ....
 C#4|..|C-4 AF.F ....|A#5 UFFF ....|C#4 2C.F ....
 A#3|..|A#1 2A.F ....|--- .... ....|--- .F.. ....
....|..|A#3 2F67 ....|--- .... ....|R-- .... ....
....|..|--- .... ....|R-- .... ....|--- .... ....
 A#3|..|B-8 JF.F ....|F-5 UFFA ....|A#1 2A.F ....
 A#3|..|A#1 2A.F ....|--- .... ....|--- .... ....
....|..|R-- .... ....|--- .... ....|R-- .... ....
....|..|--- .... ....|R-- .... ....|R-- .... ....

[Pattern40]
....|..|C-4 AF.F ....|A-5 UFFF ....|A-5 4F.F ....
 A-3|..|A-1 2A.F ....|--- .... ....|--- .... ....
....|..|A-3 2F2F ....|--- .... ....|R-- .... ....
....|..|--- .... ....|--- .... ....|--- .... ....
 F-4|..|B-8 JF.F ....|A#5 UFFA ....|F-4 2C.F ....
 A-3|..|A-1 2A.F ....|--- .... ....|--- .F.. ....
....|..|R-- .... ....|--- .... ....|R-- .... ....
....|..|--- .... ....|R-- .... ....|--- .... ....
 A-3|..|C-4 AF.F ....|C-6 UFFF ....|A-4 2C.F ....
 A-3|..|A-1 2A.F ....|--- .... ....|--- .... ....
....|..|R-- .... ....|--- .... ....|R-- .... ....
....|..|--- .... ....|R-- .... ....|R-- .... ....
 C-3|..|B-8 JF.F ....|F-5 UFFF ....|C-5 2C.F ....
 A-3|..|A-1 2A.F ....|--- .... ....|--- .F.. ....
....|..|A-3 2F2A ....|--- .... ....|R-- .... ....
....|..|--- .... ....|--- .... ....|--- .... ....
....|..|C-4 AF.F ....|A#5 UFF7 ....|A-3 4F8F ....
 D-4|..|D-2 2A.F ....|R-- .... ....|--- .... ....
....|..|A-3 2F8F ....|--- .... ....|R-- .... ....
....|..|--- .... ....|--- .... ....|--- .... ....
....|..|B-8 JF.F ....|F-5 3F.F ....|F-5 4F.F ....
 D-4|..|D-2 2A.F ....|--- .... ....|--- .... ....
....|..|R-- .... ....|G-5 3F.F ....|G-5 4F.F ....
....|..|--- .... ....|R-- .... ....|R-- .... ....
....|..|C-4 AF.F ....|A-5 3F.F ....|A-5 4F.F ....
 D-4|..|D-2 2A.F ....|--- .... ....|--- .... ....
....|..|A-3 2F27 ....|R-- .... ....|R-- .... ....
....|..|--- .... ....|--- .... ....|--- .... ....
....|..|B-8 JF.F ....|A-5 UFFF ....|F-5 4F.F ....
 D-4|..|D-2 2A.F ....|R-- .... ....|--- .... ....
....|..|A-3 2F8A ....|R-- .... ....|R-- .... ....
....|..|--- .... ....|R-- .... ....|--- .... ....
....|..|C-4 AF.F ....|A#5 UFFF ....|G-5 4F.F ....
 G-3|..|G-1 2A.F ....|--- .... ....|--- .... ....
....|..|A#3 2F1F ....|G-5 3F.A ....|G-5 4F.A ....
....|..|--- .... ....|--- .... ....|--- .... ....
 G-4|..|B-8 JF.F ....|A-5 UFFF ....|G-4 2C.F ....
 G-3|..|G-1 2A.F ....|--- .... ....|--- .... ....
....|..|R-- .... ....|R-- .... ....|R-- .... ....
....|..|--- .... ....|R-- .... ....|--- .... ....
 A#3|..|C-4 AF.F ....|A#5 UFFF ....|A#4 2C.F ....
 G-3|..|G-1 2A.F ....|R-- .... ....|--- .F.. ....
....|..|A-3 2F87 ....|R-- .... ....|R-- .... ....
....|..|--- .... ....|R-- .... ....|--- .... ....
 D-4|..|B-8 JF.F ....|A-5 UFFF ....|D-5 2C.F ....
 G-3|..|G-1 2A.F ....|--- .... ....|--- .F.. ....
....|..|A#3 2F1A ....|G-5 3F.7 ....|G-5 4F.7 ....
....|..|--- .... ....|R-- .... ....|--- .... ....
 G-3|..|C-4 AF.F ....|A#5 UFFF ....|G-1 2A.F ....
 G-3|..|G-1 2A.F ....|--- .... ....|--- .... ....
....|..|R-- .... ....|R-- .... ....|R-- .... ....
....|..|--- .... ....|R-- .... ....|--- .... ....
 G-3|..|B-8 JF.F ....|A-5 UFFF ....|G-1 2A.F ....
 G-3|..|G-1 2A.F ....|--- .... ....|--- .... ....
....|..|R-- .... ....|R-- .... ....|R-- .... ....
....|..|--- .... ....|R-- .... ....|--- .... ....
 G-3|..|C-4 AF.F ....|F-5 UFFF ....|G-1 2A.F ....
 G-3|..|G-1 2A.F ....|--- .... ....|--- .... ....
....|..|A#3 2F17 ....|--- .... ....|R-- .... ....
....|..|--- .... ....|R-- .... ....|--- .... ....
 G-3|..|B-8 JF.F ....|G-5 UFFF ....|G-1 2A.F ....
 G-3|..|G-1 2A.F ....|--- .... ....|--- .... ....
....|..|R-- .... ....|--- .... ....|R-- .... ....
....|..|--- .... ....|R-- .... ....|--- .... ....

[Pattern41]
....|..|C-4 AF.F ....|A#5 UFF7 ....|A#3 4F4F ....
 C-4|..|C-2 2A.F ....|--- .... ....|--- .... ....
....|..|A#3 2F4F ....|--- .... ....|R-- .... ....
....|..|--- .... ....|--- .... ....|--- .... ....
 D-4|..|C-4 CF.F ....|A-5 UFF7 ....|D-4 2C.F ....
 C-4|..|C-2 2A.F ....|--- .... ....|--- .F.. ....
....|..|R-- .... ....|--- .... ....|R-- .... ....
....|..|--- .... ....|R-- .... ....|--- .... ....
 F-4|..|C-4 AF.F ....|A#5 UFF7 ....|F-4 2C.F ....
 C-4|..|C-2 2A.F ....|--- .... ....|--- .F.. ....
....|..|R-- .... ....|--- .... ....|R-- .... ....
....|..|--- .... ....|--- .... ....|--- .... ....
 C-3|..|C-4 CF.F ....|A-5 UFF7 ....|C-5 2C.F ....
 C-4|..|C-2 2A.F ....|--- .... ....|--- .... ....
....|..|A#3 2F4A ....|--- .... ....|R-- .... ....
....|..|--- .... ....|--- .... ....|--- .... ....
 C-4|..|C-4 AF.F ....|F-5 UFFF ....|C-2 2A.F ....
 C-4|..|C-2 2A.F ....|--- .... ....|--- .... ....
....|..|C-4 LF.F ....|--- .... ....|R-- .... ....
....|..|R-- .... ....|R-- .... ....|--- .... ....
 C-4|..|B-8 JF.F ....|G-5 UFFF ....|C-2 2A.F ....
 C-4|..|C-2 2A.F ....|--- .... ....|--- .... ....
....|..|C-4 LF.F ....|--- .... ....|R-- .... ....
....|..|R-- .... ....|--- .... ....|--- .... ....
....|..|C-4 AF.F ....|A-5 UFFF ....|F-5 4F.F ....
 C-4|..|C-2 2A.F ....|--- .... ....|--- .... ....
....|..|C-4 9F.F ....|G-5 3F.F ....|G-5 4F.F ....
....|..|R-- .... ....|--- .... ....|--- .... ....
....|..|B-8 JF.F ....|A#5 UFFF ....|A-5 4F.F ....
 C-4|..|C-2 2A.F ....|--- .... ....|--- .... ....
....|..|C-4 9F.F ....|A#5 3F.F ....|A#5 4F.F ....
....|..|R-- .... ....|--- .... ....|--- .... ....
....|..|C-4 AF.F ....|C-6 UFFF ....|C-6 4F.F ....
 F-4|..|F-2 2A.F ....|--- .... ....|--- .... ....
....|..|A-3 2F2F ....|--- .... ....|R-- .... ....
....|..|R-- .... ....|--- .... ....|--- .... ....
 F-4|..|B-8 JF.F ....|A-5 UFFA ....|F-4 2C.F ....
 F-4|..|F-2 2A.F ....|R-- .... ....|--- .... ....
....|..|C-4 9F.A ....|G-5 3F.A ....|G-5 4F.A ....
....|..|R-- .... ....|--- .... ....|--- .... ....
 A-3|..|C-4 AF.F ....|A-5 UFFF ....|A-4 2C.F ....
 F-4|..|F-2 2A.F ....|--- .... ....|--- .F.. ....
....|..|C-4 LF.7 ....|A#5 3F.A ....|A#5 4F.A ....
....|..|R-- .... ....|--- .... ....|--- .... ....
 C-3|..|B-8 JF.F ....|F-5 UFFF ....|C-5 2C.F ....
 F-4|..|F-2 2A.F ....|--- .... ....|--- .F.. ....
....|..|C-4 LF.7 ....|--- .... ....|R-- .... ....
....|..|R-- .... ....|--- .... ....|--- .... ....
 F-4|..|C-4 AF.F ....|A-5 UFF7 ....|F-2 2A.F ....
 F-4|..|F-2 2A.F ....|R-- .... ....|--- .... ....
....|..|C-4 9F.7 ....|G-5 3F.7 ....|G-5 4F.7 ....
....|..|R-- .... ....|--- .... ....|--- .... ....
 F-4|..|B-8 JF.F ....|C-6 UFFF ....|F-2 2A.F ....
 F-4|..|F-2 2A.F ....|--- .... ....|--- .... ....
....|..|C-4 9F.7 ....|A#5 3F.7 ....|A#5 4F.7 ....
....|..|R-- .... ....|--- .... ....|--- .... ....
 F-4|..|C-4 AF.F ....|C-6 UFF7 ....|F-2 2A.F ....
 F-4|..|F-2 2A.F ....|R-- .... ....|--- .... ....
....|..|A-3 2F27 ....|--- .... ....|R-- .... ....
....|..|--- .... ....|--- .... ....|--- .... ....
 F-4|..|B-8 JF.F ....|A#5 UFFF ....|F-2 2A.F ....
 F-4|..|F-2 2A.F ....|R-- .... ....|--- .... ....
....|..|R-- .... ....|--- .... ....|R-- .... ....
....|..|--- .... ....|--- .... ....|--- .... ....

[Pattern42]
....|..|C-4 AF.F ....|A-5 UFF7 ....|C-4 4F1F ....
 C-4|..|C-2 2A.F ....|--- .... ....|--- .... ....
....|..|C-4 2F1F ....|--- .... ....|R-- .... ....
....|..|--- .... ....|--- .... ....|--- .... ....
....|..|B-8 JF.F ....|G-5 UFFF ....|C-5 4F.F ....
 C-4|..|C-2 2A.F ....|R-- .... ....|--- .... ....
....|..|R-- .... ....|D-5 3F.F ....|D-5 4F.F ....
....|..|--- .... ....|R-- .... ....|--- .... ....
....|..|C-4 AF.F ....|E-5 3F.F ....|E-5 4F.F ....
 C-4|..|C-2 2A.F ....|--- .... ....|--- .... ....
....|..|R-- .... ....|R-- .... ....|R-- .... ....
....|..|--- .... ....|--- .... ....|--- .... ....
....|..|B-8 JF.F ....|C-5 3F.F ....|C-5 4F.F ....
 C-4|..|C-2 2A.F ....|--- .... ....|--- .... ....
....|..|C-4 2F1A ....|--- .... ....|R-- .... ....
....|..|--- .... ....|--- .... ....|--- .... ....
....|..|C-4 AF.F ....|C-6 3F.F ....|C-6 4F.F ....
 C-4|..|C-2 2A.F ....|R-- .... ....|--- .... ....
....|..|R-- .... ....|D-5 3F.A ....|D-5 4F.A ....
....|..|--- .... ....|R-- .... ....|--- .... ....
 G-4|..|B-8 JF.F ....|A#5 UFF7 ....|G-4 2C.F ....
 C-4|..|C-2 2A.F ....|--- .... ....|--- .F.. ....
....|..|R-- .... ....|R-- .... ....|R-- .... ....
....|..|--- .... ....|--- .... ....|--- .... ....
 E-4|..|C-4 AF.F ....|C-5 3F.A ....|E-4 2C.F ....
 C-4|..|C-2 2A.F ....|--- .... ....|--- .F.. ....
....|..|C-4 2F17 ....|--- .... ....|R-- .... ....
....|..|--- .... ....|--- .... ....|--- .... ....
 C-4|..|B-8 JF.F ....|G-5 UFF7 ....|C-2 2A.F ....
 C-4|..|C-2 2A.F ....|--- .... ....|--- .... ....
....|..|R-- .... ....|D-5 3F.7 ....|D-5 4F.7 ....
....|..|--- .... ....|R-- .... ....|--- .... ....
....|..|C-4 AF.F ....|A#5 UFFF ....|C-4 4F1F ....
 C-4|..|C-2 2A.F ....|--- .... ....|--- .... ....
....|..|C-4 2F1F ....|R-- .... ....|R-- .... ....
....|..|--- .... ....|--- .... ....|--- .... ....
 C-3|..|B-8 JF.F ....|C-5 3F.7 ....|C-4 2C.F ....
 C-4|..|C-2 2A.F ....|--- .... ....|--- .... ....
....|..|R-- .... ....|--- .... ....|R-- .... ....
....|..|--- .... ....|--- .... ....|--- .... ....
 E-4|..|C-4 AF.F ....|G-5 UFFF ....|E-4 2C.F ....
 C-4|..|C-2 2A.F ....|--- .... ....|--- .F.. ....
....|..|R-- .... ....|--- .... ....|R-- .... ....
....|..|--- .... ....|R-- .... ....|--- .... ....
 G-4|..|B-8 JF.F ....|E-5 UFFF ....|G-4 2C.F ....
 C-4|..|C-2 2A.F ....|--- .... ....|--- .F.. ....
....|..|C-4 2F1A ....|--- .... ....|R-- .... ....
....|..|--- .... ....|--- .... ....|--- .... ....
....|..|C-4 AF.F ....|A#5 3F.F ....|A#5 4F.F ....
 C#4|..|C#2 2A.F ....|--- .... ....|--- .... ....
....|..|C#4 2F3F ....|--- .... ....|R-- .... ....
....|..|--- .... ....|--- .... ....|--- .... ....
 E-4|..|B-8 JF.F ....|A#5 UFFF ....|E-4 2C.F ....
 C#4|..|C#2 2A.F ....|--- .... ....|--- .F.. ....
....|..|R-- .... ....|--- .... ....|R-- .... ....
....|..|--- .... ....|R-- .... ....|--- .... ....
 G-4|..|C-4 AF.F ....|A#5 UFF7 ....|G-4 2C.F ....
 C#4|..|C#2 2A.F ....|--- .... ....|--- .F.. ....
....|..|C-4 2F17 ....|--- .... ....|R-- .... ....
....|..|--- .... ....|--- .... ....|--- .... ....
 C#4|..|B-8 JF.F ....|A-5 UFFF ....|C#5 2C.F ....
 C#4|..|C#2 2A.F ....|--- .... ....|--- .... ....
....|..|C#4 2F3A ....|--- .... ....|R-- .... ....
....|..|--- .... ....|--- .... ....|--- .... ....

[Pattern43]
....|..|C-4 AF.F ....|A#5 3F.F ....|A#5 4F.F ....
 D-4|..|D-2 2A.F ....|A-5 3F.F ....|A-5 4F.F ....
....|..|D-4 2F6F ....|R-- .... ....|R-- .... ....
....|..|--- .... ....|R-- .... ....|--- .... ....
....|..|B-8 JF.F ....|F-5 UFFF ....|A-5 4F.F ....
 D-4|..|D-2 2A.F ....|--- .... ....|--- .... ....
....|..|R-- .... ....|G#5 3F.F ....|G#5 4F.F ....
....|..|--- .... ....|R-- .... ....|--- .... ....
....|..|C-4 AF.F ....|A-5 3F.F ....|A-5 4F.F ....
 D-4|..|D-2 2A.F ....|--- .... ....|--- .... ....
....|..|C#4 2F37 ....|R-- .... ....|R-- .... ....
....|..|--- .... ....|--- .... ....|--- .... ....
....|..|B-8 JF.F ....|D-6 3F.F ....|D-6 4F.F ....
 D-4|..|D-2 2A.F ....|A-5 3F.A ....|A-5 4F.A ....
....|..|D-4 2F6A ....|C#6 3F.F ....|C#6 4F.F ....
....|..|--- .... ....|--- .... ....|--- .... ....
....|..|C-4 AF.F ....|D-6 3F.F ....|D-6 4F.F ....
 D-4|..|D-2 2A.F ....|--- .... ....|--- .... ....
....|..|R-- .... ....|G#5 3F.A ....|G#5 4F.A ....
....|..|--- .... ....|R-- .... ....|--- .... ....
....|..|B-8 JF.F ....|F-6 3F.F ....|F-6 4F.F ....
 D-4|..|D-2 2A.F ....|--- .... ....|--- .... ....
....|..|R-- .... ....|E-6 3F.F ....|E-6 4F.F ....
....|..|--- .... ....|--- .... ....|--- .... ....
....|..|C-4 AF.F ....|F-6 3F.F ....|F-6 4F.F ....
 D-4|..|D-2 2A.F ....|A-5 3F.7 ....|A-5 4F.7 ....
....|..|D-4 2F67 ....|C#6 3F.A ....|C#6 4F.A ....
....|..|--- .... ....|--- .... ....|--- .... ....
....|..|B-8 JF.F ....|A-5 3F.F ....|A-5 4F.F ....
 D-4|..|D-2 2A.F ....|--- .... ....|--- .... ....
....|..|R-- .... ....|G#5 3F.7 ....|G#5 4F.7 ....
....|..|--- .... ....|R-- .... ....|--- .... ....
....|..|C-4 AF.F ....|D-5 UFFF ....|A#5 4F.F ....
 A#3|..|A#1 2A.F ....|--- .... ....|--- .... ....
....|..|A#3 2F1F ....|E-6 3F.A ....|E-6 4F.A ....
....|..|--- .... ....|--- .... ....|--- .... ....
 F-4|..|B-8 JF.F ....|D-6 3F.7 ....|F-4 2C.F ....
 A#3|..|A#1 2A.F ....|--- .... ....|R-- .... ....
....|..|R-- .... ....|C#6 3F.7 ....|C#6 4F.7 ....
....|..|--- .... ....|R-- .... ....|--- .... ....
 A#3|..|C-4 AF.F ....|D-6 UFFF ....|A#4 2C.F ....
 A#3|..|A#1 2A.F ....|--- .... ....|--- .... ....
....|..|R-- .... ....|R-- .... ....|R-- .... ....
....|..|--- .... ....|--- .... ....|--- .... ....
 A#3|..|B-8 JF.F ....|F-6 3F.7 ....|A#1 2A.F ....
 A#3|..|A#1 2A.F ....|--- .... ....|--- .... ....
....|..|A#3 2F1A ....|E-6 3F.7 ....|E-6 4F.7 ....
....|..|--- .... ....|--- .... ....|--- .... ....
....|..|C-4 AF.F ....|C-6 UFFF ....|C-6 4F.F ....
 A#3|..|A#1 2A.F ....|--- .... ....|R-- .... ....
....|..|C-4 2F1F ....|R-- .... ....|R-- .... ....
....|..|--- .... ....|R-- .... ....|--- .... ....
 G-4|..|B-8 JF.F ....|A#5 UFFF ....|G-4 2C.F ....
 A#3|..|A#1 2A.F ....|--- .... ....|--- .F.. ....
....|..|R-- .... ....|R-- .... ....|R-- .... ....
....|..|--- .... ....|--- .... ....|--- .... ....
 C-3|..|C-4 AF.F ....|A-5 UFFF ....|C-5 2C.F ....
 A#3|..|A#1 2A.F ....|--- .... ....|--- .F.. ....
....|..|A#3 2F17 ....|--- .... ....|R-- .... ....
....|..|--- .... ....|--- .... ....|--- .... ....
 A#3|..|B-8 JF.F ....|A#5 UFFF ....|A#1 2A.F ....
 A#3|..|A#1 2A.F ....|--- .... ....|--- .... ....
....|..|C-4 2F1A ....|--- .... ....|R-- .... ....
....|..|--- .... ....|R-- .... ....|--- .... ....

[Pattern44]
....|..|C-4 AF.F ....|C-6 UFFF ....|C-4 4F1F ....
 A-3|..|A-1 2A.F ....|--- .... ....|--- .... ....
....|..|C-4 2F1F ....|--- .... ....|R-- .... ....
....|..|--- .... ....|--- .... ....|--- .... ....
 E-4|..|B-8 JF.F ....|A-5 UFFA ....|E-4 2C.F ....
 A-3|..|A-1 2A.F ....|--- .... ....|--- .F.. ....
....|..|R-- .... ....|--- .... ....|R-- .... ....
....|..|--- .... ....|--- .... ....|--- .... ....
 A-3|..|C-4 AF.F ....|C-6 UFF7 ....|A-4 2C.F ....
 A-3|..|A-1 2A.F ....|--- .... ....|--- .... ....
....|..|C-4 2F17 ....|--- .... ....|R-- .... ....
....|..|--- .... ....|R-- .... ....|--- .... ....
 C-3|..|B-8 JF.F ....|F-5 UFFF ....|C-5 2C.F ....
 A-3|..|A-1 2A.F ....|--- .... ....|--- .F.. ....
....|..|C-4 2F1A ....|--- .... ....|R-- .... ....
....|..|--- .... ....|R-- .... ....|--- .... ....
....|..|C-4 AF.F ....|F-5 UFFF ....|D-6 4F.F ....
 D-4|..|D-2 2A.F ....|--- .... ....|--- .... ....
....|..|C-4 2F5F ....|--- .... ....|R-- .... ....
....|..|--- .... ....|--- .... ....|--- .... ....
 F-4|..|B-8 JF.F ....|A#5 UFF7 ....|F-4 2C.F ....
 D-4|..|D-2 2A.F ....|--- .... ....|--- .F.. ....
....|..|R-- .... ....|--- .... ....|R-- .... ....
....|..|--- .... ....|R-- .... ....|--- .... ....
 A-3|..|C-4 AF.F ....|C-6 UFF7 ....|A-4 2C.F ....
 D-4|..|D-2 2A.F ....|--- .... ....|--- .F.. ....
....|..|C-4 2F17 ....|--- .... ....|R-- .... ....
....|..|--- .... ....|R-- .... ....|--- .... ....
 D-4|..|B-8 JF.F ....|A-5 UFFF ....|D-5 2C.F ....
 D-4|..|D-2 2A.F ....|R-- .... ....|R-- .... ....
....|..|C-4 2F5A ....|R-- .... ....|R-- .... ....
....|..|--- .... ....|--- .... ....|--- .... ....
....|..|C-4 AF.F ....|A#5 UFFF ....|A#5 4F.F ....
 A#3|..|A#1 2A.F ....|--- .... ....|--- .... ....
....|..|A#3 2F1F ....|--- .... ....|R-- .... ....
....|..|D-4 2F9F ....|R-- .... ....|D-4 4F9F ....
....|..|B-8 JF.7 ....|A-5 UFFF ....|C-5 2F.7 ....
....|..|A-1 2F.7 ....|--- .... ....|--- .... ....
....|..|R-- .... ....|--- .... ....|R-- .... ....
....|..|--- .... ....|R-- .... ....|--- .... ....
....|..|C-4 AF.7 ....|F-5 UFFF ....|D-6 4F.7 ....
....|..|D-2 2F.7 ....|R-- .... ....|R-- .... ....
....|..|C-4 2F57 ....|R-- .... ....|R-- .... ....
....|..|--- .... ....|R-- .... ....|--- .... ....
....|..|C-4 AF.F ....|A#5 UFFF ....|A#5 4F.F ....
 A#3|..|A#1 2A.F ....|--- .... ....|--- .... ....
....|..|A#3 2F1F ....|--- .... ....|R-- .... ....
....|..|D-4 2F9A ....|R-- .... ....|D-4 4F9A ....
....|..|C-4 AF.7 ....|A-5 UFFF ....|A-4 2F.7 ....
....|..|D-2 2F.7 ....|--- .... ....|--- .... ....
....|..|R-- .... ....|--- .... ....|R-- .... ....
....|..|--- .... ....|R-- .... ....|--- .... ....
....|..|B-8 JF.7 ....|F-5 UFFF ....|D-5 2F.7 ....
....|..|D-2 2F.7 ....|R-- .... ....|R-- .... ....
....|..|R-- .... ....|R-- .... ....|R-- .... ....
....|..|--- .... ....|R-- .... ....|--- .... ....
....|..|C-4 AF.F ....|D-6 UFFF ....|A#5 4F.F ....
 A#3|..|A#2 2C.F ....|--- .... ....|A#4 2C.F ....
....|..|A#3 2F1F ....|--- .... ....|R-- .... ....
....|..|D-4 2F97 ....|R-- .... ....|D-4 4F97 ....
....|..|C-4 AF.F ....|C-6 UFFF ....|C-6 4F.F ....
 C-4|..|C-2 2A.F ....|--- .... ....|--- .... ....
....|..|C-4 9F.F ....|--- .... ....|--- .... ....
....|..|A#3 2F1F ....|R-- .... ....|--- .... ....

[Pattern45]
....|..|--- .... ....|F-5 UFF7 ....|--- .... ....
....|..|--- .... ....|--- .... ....|--- .... ....
....|..|--- .... ....|--- .... ....|--- .... ....
....|..|--- .... ....|R-- .... ....|--- .... ....
....|..|C-4 AF.F ....|A#5 UFF7 ....|A#5 4F.7 ....
....|..|A#1 2F.7 ....|--- .... ....|A#4 2F.A ....
....|..|A#3 2F17 ....|--- .... ....|R-- .... ....
....|..|R-- .... ....|R-- .... ....|R-- .... ....
....|..|C-4 AF.F ....|A-5 UFF7 ....|C-6 4F.A ....
....|..|C-2 2F.A ....|--- .... ....|--- .... ....
....|..|C-4 9F.A ....|--- .... ....|--- .... ....
....|..|A#3 2F1A ....|R-- .... ....|--- .... ....
....|..|C-4 AF.F ....|F-5 UFF7 ....|R-- .... ....
....|..|--- .... ....|--- .... ....|--- .... ....
....|..|--- .... ....|--- .... ....|--- .... ....
....|..|--- .... ....|R-- .... ....|--- .... ....
....|..|C-4 AF.F ....|F-5 3F.F ....|F-5 4F.F ....
....|..|A#1 2F.7 ....|--- .... ....|A#4 2F.7 ....
....|..|A#3 2F17 ....|E-5 3F.F ....|E-5 4F.F ....
....|..|R-- .... ....|R-- .... ....|R-- .... ....
....|..|C-4 AF.7 ....|F-5 3F.F ....|F-5 4F.F ....
....|..|C-2 2F.7 ....|--- .... ....|--- .... ....
....|..|C-4 AF.F ....|G-5 3F.F ....|G-5 4F.F ....
....|..|A#3 2F17 ....|--- .... ....|--- .... ....
....|..|C-4 AF.A ....|F-5 3F.F ....|F-5 4F.F ....
....|..|--- .... ....|--- .... ....|--- .... ....
....|..|--- .... ....|G-5 3F.F ....|G-5 4F.F ....
....|..|--- .... ....|--- .... ....|--- .... ....
....|..|C-4 AF.F ....|A-5 3F.F ....|A-5 4F.F ....
....|..|--- .... ....|--- .... ....|--- .... ....
....|..|--- .... ....|A#5 3F.F ....|A#5 4F.F ....
....|..|--- .... ....|--- .... ....|--- .... ....
....|..|C-4 AF.F ....|C-6 3F.F ....|C-6 4F.F ....
 C-4|..|C-2 2A.F ....|--- .... ....|--- .... ....
....|..|C-4 AF.A ....|G-5 3F.A ....|G-5 4F.A ....
....|..|R-- .... ....|--- .... ....|R-- .... ....
....|..|C-4 AF.7 ....|F-5 3F.A ....|F-5 4F.A ....
....|..|--- .... ....|--- .... ....|--- .... ....
....|..|--- .... ....|G-5 3F.A ....|G-5 4F.A ....
....|..|--- .... ....|--- .... ....|--- .... ....
....|..|C-4 AF.7 ....|C-5 UFFF ....|F-5 4F.7 ....
....|..|--- .... ....|--- .... ....|--- .... ....
....|..|--- .... ....|E-5 3F.7 ....|E-5 4F.7 ....
....|..|--- .... ....|R-- .... ....|--- .... ....
....|..|C-4 AF.A ....|C-5 UFFF ....|F-5 4F.7 ....
....|..|C-2 2F.A ....|--- .... ....|--- .... ....
....|..|C-4 AF.7 ....|G-5 3F.7 ....|G-5 4F.7 ....
....|..|R-- .... ....|--- .... ....|R-- .... ....
 F-4|..|C-4 AF.F ....|A#5 UFFF ....|F-4 2C.F ....
 A#3|..|C-2 2F.F ....|--- .... ....|A#4 2C.F ....
....|..|A#3 2F1F ....|G-5 3F.7 ....|G-5 4F.7 ....
....|..|--- .... ....|--- .... ....|--- .... ....
....|..|C-4 AF.7 ....|A#5 UFFF ....|A-5 4F.7 ....
....|..|--- .... ....|A-5 UFFF ....|--- .... ....
....|..|--- .... ....|A#5 3F.7 ....|A#5 4F.7 ....
....|..|--- .... ....|R-- .... ....|--- .... ....
....|..|C-4 9F.F ....|G-5 UFFF ....|C-6 4F.7 ....
....|..|C-2 2F.7 ....|--- .... ....|--- .... ....
....|..|--- .... ....|--- .... ....|--- .... ....
....|..|R-- .... ....|--- .... ....|R-- .... ....
....|..|C-4 AF.A ....|A-5 UFFF ....|F-4 2F.A ....
....|..|C-2 2F.A ....|--- .... ....|A#4 2F.A ....
....|..|A#3 2F1A ....|--- .... ....|R-- .... ....
....|..|--- .... ....|--- .... ....|--- .... ....

[Pattern46]
....|..|C-4 AF.F ....|F-5 UFFF ....|F-6 4F.F ....
 F-4|..|F-2 2A.F ....|A-5 UFFA ....|--- .... ....
....|..|A-3 2F2F ....|--- .... ....|R-- .... ....
....|..|--- .... ....|R-- .... ....|--- .... ....
 C-3|..|B-8 JF.F ....|C-5 UFF7 ....|C-4 2C.F ....
 F-4|..|F-2 2A.F ....|--- .... ....|--- .F.. ....
....|..|R-- .... ....|--- .... ....|R-- .... ....
....|..|--- .... ....|--- .... ....|--- .... ....
 F-4|..|C-4 AF.F ....|A#5 UFF7 ....|F-4 2C.F ....
 F-4|..|F-2 2A.F ....|--- .... ....|A#4 2F.7 ....
....|..|A#3 2F17 ....|--- .... ....|R-- .... ....
....|..|--- .... ....|--- .... ....|--- .... ....
 C-3|..|B-8 JF.F ....|A#5 UFF7 ....|C-5 2C.F ....
 F-4|..|F-2 2A.F ....|A-5 UFF7 ....|--- .F.. ....
....|..|A-3 2F2A ....|--- .... ....|R-- .... ....
....|..|--- .... ....|R-- .... ....|--- .... ....
 F-4|..|C-4 AF.F ....|G-5 UFF7 ....|F-2 2A.F ....
 F-4|..|F-2 2A.F ....|--- .... ....|--- .... ....
....|..|R-- .... ....|--- .... ....|R-- .... ....
....|..|--- .... ....|--- .... ....|--- .... ....
 A-3|..|B-8 JF.F ....|A-5 UFF7 ....|A-4 2C.F ....
 F-4|..|F-2 2A.F ....|--- .... ....|--- .F.. ....
....|..|R-- .... ....|--- .... ....|R-- .... ....
....|..|--- .... ....|--- .... ....|--- .... ....
 F-4|..|C-4 AF.F ....|F-5 UFF7 ....|F-2 2A.F ....
 F-4|..|F-2 2A.F ....|--- .... ....|F-4 4F.F ....
....|..|F-4 2F.F ....|--- .... ....|R-- .... ....
....|..|R-- .... ....|--- .... ....|--- .... ....
 F-4|..|C-4 CF.F ....|--- .... ....|F-2 2A.F ....
 F-4|..|F-2 2A.F ....|--- .... ....|--- .... ....
....|..|R-- .... ....|--- .... ....|R-- .... ....
....|..|--- .... ....|--- .... ....|--- .... ....
....|..|C-4 AF.F ....|R-- .... ....|B-3 4FBF ....
 C#4|..|C#2 2A.F ....|--- .... ....|--- .... ....
....|..|B-3 2FBF ....|--- .... ....|R-- .... ....
....|..|--- .... ....|--- .... ....|--- .... ....
....|..|B-8 JF.F ....|C#5 3F.F ....|C#5 4F.F ....
 C#4|..|C#2 2A.F ....|--- .... ....|F-4 4F.A ....
....|..|F-4 2F.A ....|C#5 3F.F ....|C#5 4F.F ....
....|..|R-- .... ....|--- .... ....|--- .... ....
....|..|C-4 AF.F ....|D#5 3F.F ....|D#5 4F.F ....
 C#4|..|C#2 2A.F ....|--- .... ....|--- .... ....
....|..|R-- .... ....|D#5 3F.F ....|D#5 4F.F ....
....|..|--- .... ....|--- .... ....|--- .... ....
....|..|B-8 JF.F ....|F-5 3F.F ....|F-5 4F.F ....
 C#4|..|C#2 2A.F ....|--- .... ....|--- .... ....
....|..|B-3 2FBA ....|F-5 3F.F ....|F-5 4F.F ....
....|..|--- .... ....|--- .... ....|--- .... ....
....|..|C-4 AF.F ....|F#5 3F.F ....|F#5 4F.F ....
 C#4|..|C#2 2A.F ....|--- .... ....|F-4 4F.7 ....
....|..|C-4 LF.F ....|F#5 3F.F ....|F#5 4F.F ....
....|..|R-- .... ....|--- .... ....|--- .... ....
....|..|B-8 JF.F ....|G#5 3F.F ....|G#5 4F.F ....
 C#4|..|C#2 2A.F ....|--- .... ....|--- .... ....
....|..|R-- .... ....|G#5 3F.F ....|G#5 4F.F ....
....|..|--- .... ....|--- .... ....|--- .... ....
....|..|C-4 AF.F ....|A#5 3F.F ....|A#5 4F.F ....
 C#4|..|C#2 2A.F ....|--- .... ....|R-- .... ....
....|..|D#4 9F.F ....|A#5 3F.F ....|A#5 4F.F ....
....|..|C#4 2FCF ....|--- .... ....|--- .... ....
....|..|B-8 JF.F ....|B-5 3F.F ....|B-5 4F.F ....
 C#4|..|C#2 2A.F ....|--- .... ....|--- .... ....
....|..|C-4 9F.F ....|B-5 3F.F ....|B-5 4F.F ....
....|..|R-- .... ....|--- .... ....|--- .... ....

[Pattern47]
....|..|C-4 AF.F ....|C#6 UFFF ....|C#6 4F.F ....
 F#4|..|F#2 2A.F ....|--- .... ....|--- .... ....
....|..|C#4 2F5F ....|D#5 3F.7 ....|D#5 4F.7 ....
....|..|--- .... ....|--- .... ....|--- .... ....
 F#3|..|B-8 JF.F ....|F-5 3F.7 ....|F#4 2C.F ....
 F#4|..|F#2 2A.F ....|R-- .... ....|R-- .... ....
....|..|D#4 9F.A ....|F-5 3F.7 ....|F-5 4F.7 ....
....|..|C#4 2FCA ....|--- .... ....|--- .... ....
 A#3|..|C-4 AF.F ....|A#5 UFFF ....|A#4 2C.F ....
 F#4|..|F#2 2A.F ....|--- .... ....|--- .F.. ....
....|..|C-4 LF.7 ....|F#5 3F.7 ....|F#5 4F.7 ....
....|..|R-- .... ....|R-- .... ....|--- .... ....
 C#4|..|B-8 JF.F ....|F#5 UFFF ....|C#5 2C.F ....
 F#4|..|F#2 2A.F ....|--- .... ....|--- .F.. ....
....|..|C#4 2F5A ....|G#5 3F.7 ....|G#5 4F.7 ....
....|..|--- .... ....|--- .... ....|--- .... ....
 F#4|..|C-4 AF.F ....|A#5 3F.7 ....|F#2 2A.F ....
 F#4|..|F#2 2A.F ....|R-- .... ....|R-- .... ....
....|..|D#4 9F.7 ....|A#5 3F.7 ....|A#5 4F.7 ....
....|..|C#4 2FC7 ....|--- .... ....|--- .... ....
 F#4|..|B-8 JF.F ....|C#6 UFFF ....|F#2 2A.F ....
 F#4|..|F#2 2A.F ....|--- .... ....|--- .... ....
....|..|C-4 9F.7 ....|B-5 3F.7 ....|B-5 4F.7 ....
....|..|R-- .... ....|R-- .... ....|--- .... ....
 F#4|..|C-4 AF.F ....|C#6 UFF7 ....|F#2 2A.F ....
 F#4|..|F#2 2A.F ....|--- .... ....|--- .... ....
....|..|C#4 2F57 ....|--- .... ....|R-- .... ....
....|..|--- .... ....|--- .... ....|--- .... ....
 F#4|..|B-8 JF.F ....|B-5 UFFF ....|F#2 2A.F ....
 F#4|..|F#2 2A.F ....|R-- .... ....|R-- .... ....
....|..|R-- .... ....|--- .... ....|R-- .... ....
....|..|--- .... ....|--- .... ....|--- .... ....
....|..|C-4 AF.F ....|A#5 UFF7 ....|C#4 4F1F ....
 C#4|..|C#2 2A.F ....|--- .... ....|--- .... ....
....|..|C#4 2F1F ....|--- .... ....|R-- .... ....
....|..|--- .... ....|R-- .... ....|--- .... ....
....|..|B-8 JF.F ....|G#5 UFFF ....|C#5 4F.F ....
 C#4|..|C#2 2A.F ....|--- .... ....|--- .... ....
....|..|R-- .... ....|D#5 3F.F ....|D#5 4F.F ....
....|..|--- .... ....|R-- .... ....|--- .... ....
....|..|C-4 AF.F ....|F-5 3F.F ....|F-5 4F.F ....
 C#4|..|C#2 2A.F ....|--- .... ....|R-- .... ....
....|..|R-- .... ....|R-- .... ....|R-- .... ....
....|..|--- .... ....|--- .... ....|--- .... ....
....|..|B-8 JF.F ....|C#5 3F.F ....|C#5 4F.F ....
 C#4|..|C#2 2A.F ....|--- .... ....|--- .... ....
....|..|C#4 2F1A ....|--- .... ....|R-- .... ....
....|..|--- .... ....|R-- .... ....|--- .... ....
....|..|C-4 AF.F ....|C#6 3F.F ....|C#6 4F.F ....
 C#4|..|C#2 2A.F ....|--- .... ....|--- .... ....
....|..|R-- .... ....|D#5 3F.A ....|D#5 4F.A ....
....|..|--- .... ....|R-- .... ....|--- .... ....
 G#4|..|B-8 JF.F ....|B-5 UFF7 ....|G#4 2C.F ....
 C#4|..|C#2 2A.F ....|--- .... ....|R-- .... ....
....|..|R-- .... ....|R-- .... ....|R-- .... ....
....|..|--- .... ....|--- .... ....|--- .... ....
 F-4|..|C-4 AF.F ....|C#5 3F.A ....|F-4 2C.F ....
 C#4|..|C#2 2A.F ....|--- .... ....|--- .F.. ....
....|..|C#4 2F17 ....|--- .... ....|R-- .... ....
....|..|--- .... ....|R-- .... ....|--- .... ....
....|..|B-8 JF.F ....|G#5 UFF7 ....|F-4 4F.F ....
 C#4|..|C#2 2A.F ....|--- .... ....|R-- .... ....
....|..|F-4 2F.F ....|D#5 3F.7 ....|D#5 4F.7 ....
....|..|R-- .... ....|R-- .... ....|--- .... ....

[Pattern48]
....|..|C-4 AF.F ....|B-5 UFFF ....|C#4 4F1F ....
 C#4|..|C#2 2A.F ....|--- .... ....|R-- .... ....
....|..|C#4 2F1F ....|R-- .... ....|R-- .... ....
....|..|--- .... ....|--- .... ....|--- .... ....
 C#4|..|B-8 JF.F ....|C#5 3F.7 ....|C#4 2C.F ....
 C#4|..|C#2 2A.F ....|--- .... ....|--- .... ....
....|..|R-- .... ....|--- .... ....|R-- .... ....
....|..|--- .... ....|--- .... ....|--- .... ....
 F-4|..|C-4 AF.F ....|G#5 UFFF ....|F-4 2C.F ....
 C#4|..|C#2 2A.F ....|--- .... ....|R-- .... ....
....|..|F-4 2F.A ....|--- .... ....|R-- .... ....
....|..|R-- .... ....|R-- .... ....|--- .... ....
 G#4|..|B-8 JF.F ....|F-5 UFFF ....|G#4 2C.F ....
 C#4|..|C#2 2A.F ....|--- .... ....|--- .F.. ....
....|..|C#4 2F1A ....|--- .... ....|R-- .... ....
....|..|--- .... ....|--- .... ....|--- .... ....
....|..|C-4 AF.F ....|B-5 3F.F ....|B-5 4F.F ....
 D-4|..|D-2 2A.F ....|--- .... ....|--- .... ....
....|..|D-4 2F3F ....|--- .... ....|R-- .... ....
....|..|--- .... ....|--- .... ....|--- .... ....
 F-4|..|B-8 JF.F ....|B-5 UFFF ....|F-4 2C.F ....
 D-4|..|D-2 2A.F ....|--- .... ....|R-- .... ....
....|..|F-4 2F.7 ....|--- .... ....|R-- .... ....
....|..|R-- .... ....|R-- .... ....|--- .... ....
 G#4|..|C-4 AF.F ....|B-5 UFF7 ....|G#4 2C.F ....
 D-4|..|D-2 2A.F ....|R-- .... ....|--- .F.. ....
....|..|C#4 2F17 ....|--- .... ....|R-- .... ....
....|..|--- .... ....|--- .... ....|--- .... ....
 D-4|..|B-8 JF.F ....|A#5 UFFF ....|D-5 2C.F ....
 D-4|..|D-2 2A.F ....|--- .... ....|F-4 4F9F ....
....|..|F-4 2F9F ....|--- .... ....|R-- .... ....
....|..|R-- .... ....|--- .... ....|--- .... ....
....|..|C-4 AF.F ....|A#5 3F.F ....|A#5 4F.F ....
 D#4|..|D#2 2A.F ....|--- .... ....|--- .... ....
....|..|D#4 2F6F ....|--- .... ....|R-- .... ....
....|..|--- .... ....|R-- .... ....|R-- .... ....
....|..|B-8 JF.F ....|F#5 UFFF ....|D#5 4F.F ....
 D#4|..|D#2 2A.F ....|R-- .... ....|--- .... ....
....|..|R-- .... ....|--- .... ....|R-- .... ....
....|..|--- .... ....|R-- .... ....|--- .... ....
....|..|C-4 AF.F ....|D#6 3F.F ....|D#6 4F.F ....
 D#4|..|D#2 2A.F ....|--- .... ....|F-4 4F9A ....
....|..|D-4 2F37 ....|--- .... ....|R-- .... ....
....|..|R-- .... ....|R-- .... ....|R-- .... ....
....|..|B-8 JF.F ....|D#5 3F.F ....|D#5 4F.F ....
 D#4|..|D#2 2A.F ....|--- .... ....|--- .... ....
....|..|D#4 2F6A ....|--- .... ....|R-- .... ....
....|..|--- .... ....|R-- .... ....|R-- .... ....
 D#4|..|C-4 AF.F ....|F#5 UFFA ....|D#2 2A.F ....
 D#4|..|D#2 2A.F ....|R-- .... ....|--- .... ....
....|..|R-- .... ....|--- .... ....|R-- .... ....
....|..|--- .... ....|R-- .... ....|R-- .... ....
....|..|B-8 JF.F ....|A#5 3F.F ....|A#5 4F.F ....
 D#4|..|D#2 2A.F ....|--- .... ....|F-4 4F97 ....
....|..|F-4 2F97 ....|A-5 3F.F ....|A-5 4F.F ....
....|..|R-- .... ....|R-- .... ....|R-- .... ....
....|..|C-4 AF.F ....|A#5 3F.F ....|A#5 4F.F ....
 D#4|..|D#2 2A.F ....|--- .... ....|--- .... ....
....|..|D#4 2F67 ....|R-- .... ....|R-- .... ....
....|..|--- .... ....|R-- .... ....|R-- .... ....
....|..|B-8 JF.F ....|D#6 3F.F ....|D#6 4F.F ....
 D#4|..|D#2 2A.F ....|--- .... ....|--- .... ....
....|..|R-- .... ....|C#6 3F.F ....|C#6 4F.F ....
....|..|--- .... ....|R-- .... ....|R-- .... ....

[Pattern49]
....|..|C-4 AF.F ....|B-5 3F.F ....|B-5 4F.F ....
 B-3|..|B-1 2A.F ....|--- .... ....|--- .... ....
....|..|B-3 2F6F ....|A-5 3F.A ....|A-5 4F.A ....
....|..|--- .... ....|R-- .... ....|R-- .... ....
 D-4|..|B-8 JF.F ....|D#5 3F.7 ....|D-4 2C.F ....
 B-3|..|B-1 2A.F ....|--- .... ....|--- .F.. ....
....|..|R-- .... ....|R-- .... ....|R-- .... ....
....|..|--- .... ....|--- .... ....|--- .... ....
 F#3|..|C-4 AF.F ....|D-5 UFFF ....|F#4 2C.F ....
 B-3|..|B-1 2A.F ....|--- .... ....|--- .F.. ....
....|..|R-- .... ....|C#6 3F.A ....|C#6 4F.A ....
....|..|--- .... ....|R-- .... ....|R-- .... ....
 B-4|..|B-8 JF.F ....|A#5 3F.7 ....|B-4 2C.F ....
 B-3|..|B-1 2A.F ....|--- .... ....|--- .... ....
....|..|B-3 2F6A ....|A-5 3F.7 ....|A-5 4F.7 ....
....|..|--- .... ....|R-- .... ....|--- .... ....
 B-3|..|C-4 AF.F ....|F#5 UFFF ....|B-1 2A.F ....
 B-3|..|B-1 2A.F ....|--- .... ....|--- .... ....
....|..|R-- .... ....|R-- .... ....|R-- .... ....
....|..|--- .... ....|--- .... ....|--- .... ....
 F#3|..|B-8 JF.F ....|D#6 3F.7 ....|F#4 2C.F ....
 B-3|..|B-1 2A.F ....|--- .... ....|--- .F.. ....
....|..|R-- .... ....|C#6 3F.7 ....|C#6 4F.7 ....
....|..|--- .... ....|--- .... ....|--- .... ....
 D-4|..|C-4 AF.F ....|B-5 UFFF ....|D-4 2C.F ....
 B-3|..|B-1 2A.F ....|--- .... ....|--- .F.. ....
....|..|B-3 2F67 ....|--- .... ....|R-- .... ....
....|..|--- .... ....|R-- .... ....|--- .... ....
 B-3|..|B-8 JF.F ....|F#5 UFFA ....|B-1 2A.F ....
 B-3|..|B-1 2A.F ....|--- .... ....|--- .... ....
....|..|R-- .... ....|--- .... ....|R-- .... ....
....|..|--- .... ....|R-- .... ....|R-- .... ....
....|..|C-4 AF.F ....|A#5 UFFF ....|A#5 4F.F ....
 A#3|..|A#1 2A.F ....|--- .... ....|--- .... ....
....|..|A#3 2F2F ....|--- .... ....|R-- .... ....
....|..|--- .... ....|--- .... ....|--- .... ....
 F#3|..|B-8 JF.F ....|B-5 UFFA ....|F#4 2C.F ....
 A#3|..|A#1 2A.F ....|--- .... ....|--- .F.. ....
....|..|R-- .... ....|--- .... ....|R-- .... ....
....|..|--- .... ....|R-- .... ....|--- .... ....
 A#3|..|C-4 AF.F ....|C#6 UFFF ....|A#4 2C.F ....
 A#3|..|A#1 2A.F ....|--- .... ....|--- .... ....
....|..|R-- .... ....|--- .... ....|R-- .... ....
....|..|--- .... ....|R-- .... ....|R-- .... ....
 C#4|..|B-8 JF.F ....|F#5 UFFF ....|C#5 2C.F ....
 A#3|..|A#1 2A.F ....|--- .... ....|--- .F.. ....
....|..|C#4 2F.F ....|--- .... ....|C#4 4F.F ....
....|..|R-- .... ....|--- .... ....|R-- .... ....
....|..|C-4 AF.F ....|D#6 3F.F ....|D#6 4F.F ....
 D#4|..|D#2 2A.F ....|R-- .... ....|--- .... ....
....|..|A#3 2F8F ....|--- .... ....|R-- .... ....
....|..|--- .... ....|--- .... ....|--- .... ....
....|..|B-8 JF.F ....|C#6 3F.F ....|C#6 4F.F ....
 D#4|..|D#2 2A.F ....|--- .... ....|--- .... ....
....|..|R-- .... ....|--- .... ....|R-- .... ....
....|..|--- .... ....|R-- .... ....|R-- .... ....
....|..|C-4 AF.F ....|B-5 3F.F ....|B-5 4F.F ....
 D#4|..|D#2 2A.F ....|--- .... ....|--- .... ....
....|..|A#3 2F27 ....|--- .... ....|C#4 4F.A ....
....|..|R-- .... ....|--- .... ....|R-- .... ....
....|..|B-8 JF.F ....|A#5 UFFF ....|A#5 4F.F ....
 D#4|..|D#2 2A.F ....|R-- .... ....|F#4 4F.F ....
....|..|F#4 2F.F ....|--- .... ....|R-- .... ....
....|..|R-- .... ....|R-- .... ....|--- .... ....

[Pattern50]
....|..|C-4 AF.F ....|B-5 UFFF ....|G#5 4F.F ....
 G#3|..|G#1 2A.F ....|--- .... ....|--- .... ....
....|..|B-3 2F1F ....|--- .... ....|R-- .... ....
....|..|--- .... ....|--- .... ....|--- .... ....
 G#4|..|B-8 JF.F ....|A#5 UFFF ....|G#4 2C.F ....
 G#3|..|G#1 2A.F ....|--- .... ....|--- .... ....
....|..|C#4 2F.7 ....|--- .... ....|C#4 4F.7 ....
....|..|R-- .... ....|R-- .... ....|R-- .... ....
 B-4|..|C-4 AF.F ....|B-5 UFFF ....|B-4 2C.F ....
 G#3|..|G#1 2A.F ....|R-- .... ....|F#4 4F.A ....
....|..|A#3 2F87 ....|--- .... ....|R-- .... ....
....|..|R-- .... ....|R-- .... ....|--- .... ....
 D#4|..|B-8 JF.F ....|A#5 UFFF ....|D#5 2C.F ....
 G#3|..|G#1 2A.F ....|--- .... ....|--- .F.. ....
....|..|B-3 2F1A ....|--- .... ....|R-- .... ....
....|..|--- .... ....|R-- .... ....|--- .... ....
 G#3|..|C-4 AF.F ....|B-5 UFFF ....|G#1 2A.F ....
 G#3|..|G#1 2A.F ....|--- .... ....|--- .... ....
....|..|R-- .... ....|--- .... ....|R-- .... ....
....|..|--- .... ....|R-- .... ....|--- .... ....
 G#3|..|B-8 JF.F ....|A#5 UFFF ....|G#1 2A.F ....
 G#3|..|G#1 2A.F ....|--- .... ....|F#4 4F.7 ....
....|..|F#4 2F.7 ....|--- .... ....|R-- .... ....
....|..|R-- .... ....|R-- .... ....|--- .... ....
 G#3|..|C-4 AF.F ....|F#5 UFFF ....|G#1 2A.F ....
 G#3|..|G#1 2A.F ....|--- .... ....|--- .... ....
....|..|B-3 2F17 ....|--- .... ....|R-- .... ....
....|..|--- .... ....|R-- .... ....|--- .... ....
 G#3|..|B-8 JF.F ....|G#5 UFFF ....|G#1 2A.F ....
 G#3|..|G#1 2A.F ....|--- .... ....|--- .... ....
....|..|R-- .... ....|--- .... ....|R-- .... ....
....|..|--- .... ....|R-- .... ....|--- .... ....
....|..|C-4 AF.F ....|B-5 UFF7 ....|B-3 4F4F ....
 C#4|..|C#2 2A.F ....|--- .... ....|--- .... ....
....|..|B-3 2F4F ....|--- .... ....|R-- .... ....
....|..|--- .... ....|--- .... ....|--- .... ....
 D#4|..|C-4 CF.F ....|A#5 UFF7 ....|D#4 2C.F ....
 C#4|..|C#2 2A.F ....|--- .... ....|--- .F.. ....
....|..|R-- .... ....|--- .... ....|R-- .... ....
....|..|--- .... ....|R-- .... ....|--- .... ....
 F#3|..|C-4 AF.F ....|B-5 UFF7 ....|F#4 2C.F ....
 C#4|..|C#2 2A.F ....|--- .... ....|--- .F.. ....
....|..|R-- .... ....|--- .... ....|R-- .... ....
....|..|--- .... ....|--- .... ....|--- .... ....
 C#4|..|C-4 9F.F ....|A#5 UFF7 ....|C#5 2C.F ....
 C#4|..|C#2 2A.F ....|--- .... ....|--- .... ....
....|..|B-3 2F4A ....|--- .... ....|R-- .... ....
....|..|--- .... ....|--- .... ....|--- .... ....
 C#4|..|C-4 AF.F ....|F#5 UFFF ....|C#2 2A.F ....
 C#4|..|C#2 2A.F ....|--- .... ....|--- .... ....
....|..|C-4 LF.F ....|--- .... ....|R-- .... ....
....|..|R-- .... ....|R-- .... ....|--- .... ....
 C#4|..|C#2 2A.F ....|G#5 UFFF ....|C#2 2A.F ....
....|..|G#1 2F.7 ....|--- .... ....|--- .... ....
....|..|C-4 LF.F ....|--- .... ....|R-- .... ....
....|..|R-- .... ....|--- .... ....|--- .... ....
....|..|C-4 AF.F ....|A#5 UFFF ....|C#6 4F.F ....
 C#4|..|C#2 2A.F ....|--- .... ....|--- .... ....
....|..|C-4 9F.F ....|B-5 3F.F ....|B-5 4F.F ....
....|..|D#4 2FAF ....|--- .... ....|G#4 4F.F ....
....|..|C-4 9F.F ....|B-5 UFFF ....|A#5 4F.F ....
 C#4|..|C#2 2A.F ....|--- .... ....|--- .... ....
....|..|C-4 9F.F ....|G#5 3F.F ....|G#5 4F.F ....
....|..|R-- .... ....|--- .... ....|--- .... ....

[Pattern51]
....|..|C-4 AF.F ....|C#6 UFFF ....|A#3 4F2F ....
 F#4|..|F#2 2A.F ....|--- .... ....|--- .... ....
....|..|A#3 2F2F ....|--- .... ....|R-- .... ....
....|..|R-- .... ....|--- .... ....|--- .... ....
....|..|B-8 JF.F ....|F#5 3F.F ....|F#5 4F.F ....
 F#4|..|F#2 2A.F ....|R-- .... ....|--- .... ....
....|..|C-4 9F.A ....|G#5 3F.F ....|G#5 4F.F ....
....|..|D#4 2FAA ....|--- .... ....|G#4 4F.A ....
....|..|C-4 AF.F ....|A#5 UFFF ....|A#5 4F.F ....
 F#4|..|F#2 2A.F ....|--- .... ....|--- .... ....
....|..|C-4 LF.7 ....|G#5 3F.A ....|G#5 4F.A ....
....|..|R-- .... ....|--- .... ....|--- .... ....
....|..|B-8 JF.F ....|F#5 UFFF ....|F#5 4F.F ....
 F#4|..|F#2 2A.F ....|--- .... ....|--- .... ....
....|..|C-4 LF.7 ....|R-- .... ....|R-- .... ....
....|..|R-- .... ....|--- .... ....|--- .... ....
....|..|C-4 AF.F ....|C#6 3F.F ....|C#6 4F.F ....
 F#4|..|F#2 2A.F ....|R-- .... ....|--- .... ....
....|..|C-4 9F.7 ....|B-5 3F.7 ....|B-5 4F.7 ....
....|..|D#4 2FA7 ....|--- .... ....|G#4 4F.7 ....
 F#4|..|B-8 JF.F ....|C#6 UFFF ....|F#2 2A.F ....
 F#4|..|F#2 2A.F ....|--- .... ....|--- .... ....
....|..|C-4 9F.7 ....|G#5 3F.7 ....|G#5 4F.7 ....
....|..|R-- .... ....|--- .... ....|--- .... ....
 F#4|..|C-4 AF.F ....|C#6 UFF7 ....|F#2 2A.F ....
 F#4|..|F#2 2A.F ....|R-- .... ....|--- .... ....
....|..|A#3 2F27 ....|R-- .... ....|R-- .... ....
....|..|--- .... ....|--- .... ....|--- .... ....
 F#4|..|B-8 JF.F ....|B-5 UFFF ....|F#2 2A.F ....
 F#4|..|F#2 2A.F ....|R-- .... ....|--- .... ....
....|..|F#4 2F.F ....|G#5 3F.7 ....|F#4 4F.F ....
....|..|R-- .... ....|--- .... ....|R-- .... ....
....|..|C-4 AF.F ....|A#5 UFF7 ....|C#4 4F1F ....
 C#4|..|C#2 2A.F ....|--- .... ....|--- .... ....
....|..|C#4 2F1F ....|R-- .... ....|R-- .... ....
....|..|--- .... ....|--- .... ....|--- .... ....
 F-4|..|B-8 JF.F ....|G#5 UFFF ....|F-4 2C.F ....
 C#4|..|C#2 2A.F ....|R-- .... ....|--- .F.. ....
....|..|R-- .... ....|R-- .... ....|R-- .... ....
....|..|--- .... ....|R-- .... ....|--- .... ....
 G#4|..|C-4 AF.F ....|C#6 3F.7 ....|G#4 2C.F ....
 C#4|..|C#2 2A.F ....|--- .... ....|--- .F.. ....
....|..|F#4 2F.A ....|--- .... ....|F#4 4F.A ....
....|..|R-- .... ....|--- .... ....|R-- .... ....
 C#4|..|B-8 JF.F ....|C#6 UFF7 ....|C#5 2C.F ....
 C#4|..|C#2 2A.F ....|--- .... ....|--- .... ....
....|..|C#4 2F1A ....|--- .... ....|R-- .... ....
....|..|--- .... ....|--- .... ....|--- .... ....
 C#4|..|C-4 AF.F ....|G#5 UFFA ....|C#2 2A.F ....
 C#4|..|C#2 2A.F ....|R-- .... ....|--- .... ....
....|..|R-- .... ....|--- .... ....|R-- .... ....
....|..|--- .... ....|R-- .... ....|--- .... ....
 G#4|..|B-8 JF.F ....|B-5 UFF7 ....|G#4 2C.F ....
 C#4|..|C#2 2A.F ....|--- .... ....|--- .F.. ....
....|..|F#4 2F.7 ....|--- .... ....|F#4 4F.7 ....
....|..|R-- .... ....|--- .... ....|R-- .... ....
 F-4|..|C-4 AF.F ....|--- .... ....|F-4 2C.F ....
 C#4|..|C#2 2A.F ....|--- .... ....|--- .F.. ....
....|..|C#4 2F17 ....|--- .... ....|R-- .... ....
....|..|--- .... ....|--- .... ....|--- .... ....
 C#4|..|B-8 JF.F ....|G#5 UFF7 ....|C#2 2A.F ....
 C#4|..|C#2 2A.F ....|--- .... ....|R-- .... ....
....|..|R-- .... ....|--- .... ....|R-- .... ....
....|..|--- .... ....|R-- .... ....|--- .... ....

[Pattern52]
....|..|C-4 AF.F ....|B-5 UFFF ....|C#4 4F1F ....
 C#4|..|C#2 2A.F ....|--- .... ....|--- .... ....
....|..|C#4 2F1F ....|--- .... ....|R-- .... ....
....|..|--- .... ....|--- .... ....|--- .... ....
 C#4|..|B-8 JF.F ....|R-- .... ....|C#4 2C.F ....
 C#4|..|C#2 2A.F ....|R-- .... ....|R-- .... ....
....|..|R-- .... ....|--- .... ....|R-- .... ....
....|..|--- .... ....|--- .... ....|--- .... ....
....|..|C-4 AF.F ....|G#5 UFFF ....|B-5 4F.F ....
 C#4|..|C#2 2A.F ....|--- .... ....|R-- .... ....
....|..|R-- .... ....|A#5 3F.F ....|A#5 4F.F ....
....|..|--- .... ....|R-- .... ....|--- .... ....
....|..|B-8 JF.F ....|F-5 UFFF ....|B-5 4F.F ....
 C#4|..|C#2 2A.F ....|--- .... ....|--- .... ....
....|..|C#4 2F1A ....|C#6 3F.F ....|C#6 4F.F ....
....|..|R-- .... ....|--- .... ....|R-- .... ....
....|..|C-4 AF.F ....|D-6 3F.F ....|D-6 4F.F ....
 D-4|..|D-2 2A.F ....|R-- .... ....|R-- .... ....
....|..|D-4 2F3F ....|--- .... ....|R-- .... ....
....|..|--- .... ....|--- .... ....|--- .... ....
 F-4|..|B-8 JF.F ....|B-5 UFFF ....|F-4 2C.F ....
 D-4|..|D-2 2A.F ....|--- .... ....|R-- .... ....
....|..|R-- .... ....|A#5 3F.A ....|A#5 4F.A ....
....|..|--- .... ....|R-- .... ....|--- .... ....
 G#4|..|C-4 AF.F ....|B-5 UFF7 ....|G#4 2C.F ....
 D-4|..|D-2 2A.F ....|--- .... ....|--- .F.. ....
....|..|C#4 2F17 ....|C#6 3F.A ....|C#6 4F.A ....
....|..|R-- .... ....|--- .... ....|R-- .... ....
 D-4|..|B-8 JF.F ....|A#5 UFFF ....|D-5 2C.F ....
 D-4|..|D-2 2A.F ....|R-- .... ....|F-4 4F9F ....
....|..|F-4 2F9F ....|--- .... ....|R-- .... ....
....|..|R-- .... ....|--- .... ....|--- .... ....
....|..|C-4 AF.F ....|G#5 UFF7 ....|D#4 4F6F ....
 D#4|..|D#2 2A.F ....|--- .... ....|--- .... ....
....|..|D#4 2F6F ....|A#5 3F.7 ....|A#5 4F.7 ....
....|..|--- .... ....|R-- .... ....|--- .... ....
....|..|B-8 JF.F ....|F#5 UFFF ....|A#5 4F.F ....
 D#4|..|D#2 2A.F ....|--- .... ....|--- .... ....
....|..|R-- .... ....|C#6 3F.7 ....|C#6 4F.7 ....
....|..|R-- .... ....|R-- .... ....|R-- .... ....
....|..|C-4 AF.F ....|A-5 3F.F ....|A-5 4F.F ....
 D#4|..|D#2 2A.F ....|--- .... ....|F-4 4F9A ....
....|..|D-4 2F37 ....|--- .... ....|R-- .... ....
....|..|R-- .... ....|--- .... ....|--- .... ....
....|..|B-8 JF.F ....|A#5 3F.F ....|A#5 4F.F ....
 D#4|..|D#2 2A.F ....|--- .... ....|--- .... ....
....|..|D#4 2F6A ....|--- .... ....|R-- .... ....
....|..|--- .... ....|--- .... ....|--- .... ....
....|..|C-4 AF.F ....|D#6 3F.F ....|D#6 4F.F ....
 D#4|..|D#2 2A.F ....|--- .... ....|--- .... ....
....|..|R-- .... ....|--- .... ....|R-- .... ....
....|..|--- .... ....|R-- .... ....|--- .... ....
....|..|B-8 JF.F ....|C#6 3F.F ....|C#6 4F.F ....
 D#4|..|D#2 2A.F ....|--- .... ....|F-4 4F97 ....
....|..|F-4 2F97 ....|--- .... ....|R-- .... ....
....|..|R-- .... ....|--- .... ....|--- .... ....
....|..|C-4 AF.F ....|B-5 3F.F ....|B-5 4F.F ....
 D#4|..|D#2 2A.F ....|--- .... ....|--- .... ....
....|..|D#4 2F67 ....|--- .... ....|R-- .... ....
....|..|--- .... ....|--- .... ....|--- .... ....
....|..|B-8 JF.F ....|A#5 3F.F ....|A#5 4F.F ....
 D#4|..|D#2 2A.F ....|--- .... ....|D#4 4F.F ....
....|..|A#4 2F.F ....|--- .... ....|R-- .... ....
....|..|D#4 2F.F ....|R-- .... ....|--- .... ....

[Pattern53]
....|..|C-4 AF.F ....|D#5 UFFF ....|B-5 4F.F ....
 B-3|..|B-1 2A.F ....|--- .... ....|--- .... ....
....|..|B-3 2F1F ....|--- .... ....|R-- .... ....
....|..|--- .... ....|--- .... ....|--- .... ....
 F#3|..|B-8 JF.F ....|A#5 3F.7 ....|F#4 2C.F ....
 B-3|..|B-1 2A.F ....|--- .... ....|--- .F.. ....
....|..|R-- .... ....|--- .... ....|R-- .... ....
....|..|--- .... ....|R-- .... ....|--- .... ....
 B-4|..|C-4 AF.F ....|D#6 UFFF ....|B-4 2C.F ....
 B-3|..|B-1 2A.F ....|--- .... ....|D#4 4F.A ....
....|..|A#4 2F.A ....|--- .... ....|R-- .... ....
....|..|D#4 2F.A ....|--- .... ....|--- .... ....
 B-3|..|B-8 JF.F ....|C#6 3F.7 ....|B-1 2A.F ....
 B-3|..|B-1 2A.F ....|--- .... ....|--- .... ....
....|..|D#4 2F9F ....|--- .... ....|D#4 4F9F ....
....|..|R-- .... ....|--- .... ....|R-- .... ....
....|..|C-4 AF.F ....|C#6 UFFF ....|C#6 4F.F ....
 B-3|..|B-1 2A.F ....|--- .... ....|--- .... ....
....|..|C#4 2F1F ....|--- .... ....|R-- .... ....
....|..|--- .... ....|R-- .... ....|--- .... ....
 G#4|..|B-8 JF.F ....|B-5 UFFF ....|G#4 2C.F ....
 B-3|..|B-1 2A.F ....|--- .... ....|D#4 4F.7 ....
....|..|A#4 2F.7 ....|--- .... ....|R-- .... ....
....|..|D#4 2F.7 ....|--- .... ....|--- .... ....
 C#4|..|C-4 AF.F ....|A#5 UFFF ....|C#5 2C.F ....
 B-3|..|B-1 2A.F ....|--- .... ....|--- .F.. ....
....|..|B-3 2F17 ....|--- .... ....|D#4 4F9A ....
....|..|R-- .... ....|--- .... ....|R-- .... ....
 B-3|..|B-8 JF.F ....|B-5 UFFF ....|B-1 2A.F ....
 B-3|..|B-1 2A.F ....|--- .... ....|--- .... ....
....|..|G#4 2F.F ....|--- .... ....|G#4 4F.F ....
....|..|R-- .... ....|R-- .... ....|R-- .... ....
....|..|C-4 AF.F ....|C#6 UFFF ....|C#6 4F.F ....
 A#3|..|A#1 2A.F ....|--- .... ....|--- .... ....
....|..|C#4 2F1F ....|--- .... ....|R-- .... ....
....|..|--- .... ....|--- .... ....|--- .... ....
 F-4|..|B-8 JF.F ....|A#5 UFFA ....|F-4 2C.F ....
 A#3|..|A#1 2A.F ....|--- .... ....|--- .F.. ....
....|..|D#4 2F97 ....|--- .... ....|D#4 4F97 ....
....|..|R-- .... ....|--- .... ....|R-- .... ....
 A#3|..|C-4 AF.F ....|C#6 UFF7 ....|A#4 2C.F ....
 A#3|..|A#1 2A.F ....|--- .... ....|--- .... ....
....|..|C#4 2F17 ....|--- .... ....|G#4 4F.A ....
....|..|R-- .... ....|R-- .... ....|R-- .... ....
 C#4|..|B-8 JF.F ....|F#5 UFFF ....|C#5 2C.F ....
 A#3|..|A#1 2A.F ....|--- .... ....|--- .F.. ....
....|..|G#4 2F.F ....|--- .... ....|G#4 4F.F ....
....|..|R-- .... ....|R-- .... ....|R-- .... ....
....|..|C-4 AF.F ....|F#5 UFFF ....|D#6 4F.F ....
 D#4|..|D#2 2A.F ....|--- .... ....|--- .... ....
....|..|C#4 2F5F ....|--- .... ....|R-- .... ....
....|..|--- .... ....|--- .... ....|--- .... ....
 F#3|..|B-8 JF.F ....|B-5 UFF7 ....|F#4 2C.F ....
 D#4|..|D#2 2A.F ....|--- .... ....|--- .F.. ....
....|..|C-4 CF.F ....|--- .... ....|G#4 4F.7 ....
....|..|R-- .... ....|R-- .... ....|R-- .... ....
 A#3|..|C-4 AF.F ....|C#6 UFF7 ....|A#4 2C.F ....
 D#4|..|D#2 2A.F ....|--- .... ....|--- .F.. ....
....|..|C-4 CF.F ....|--- .... ....|G#4 4F.A ....
....|..|R-- .... ....|R-- .... ....|R-- .... ....
 D#4|..|B-8 JF.F ....|A#5 UFFF ....|D#5 2C.F ....
 D#4|..|D#2 2A.F ....|--- .... ....|R-- .... ....
....|..|A#4 2F.F ....|R-- .... ....|R-- .... ....
....|..|R-- .... ....|--- .... ....|--- .... ....

[Pattern54]
....|..|C-4 AF.F ....|B-5 UFFF ....|B-5 4F.F ....
 B-3|..|B-1 2A.F ....|--- .... ....|--- .... ....
....|..|D#4 2F2F ....|R-- .... ....|R-- .... ....
....|..|F#4 2FAF ....|R-- .... ....|F#4 4FAF ....
....|..|B-8 JF.7 ....|A#5 UFFF ....|C#5 2F.7 ....
....|..|A#1 2F.7 ....|--- .... ....|--- .... ....
....|..|G#4 2F.7 ....|--- .... ....|G#4 4F.7 ....
....|..|R-- .... ....|R-- .... ....|R-- .... ....
....|..|C-4 9F.F ....|F#5 UFFF ....|D#6 4F.7 ....
....|..|D#2 2F.7 ....|--- .... ....|R-- .... ....
....|..|C#4 2F57 ....|R-- .... ....|R-- .... ....
....|..|R-- .... ....|R-- .... ....|--- .... ....
....|..|C-4 AF.F ....|B-5 UFFF ....|B-5 4F.F ....
 B-3|..|B-1 2A.F ....|--- .... ....|--- .... ....
....|..|D#4 2F2F ....|R-- .... ....|R-- .... ....
....|..|B-4 2F.F ....|--- .... ....|B-4 4F.F ....
....|..|D#4 9F.F ....|A#5 UFFF ....|A#4 2F.7 ....
....|..|D#2 2F.7 ....|--- .... ....|--- .... ....
....|..|C-4 CF.7 ....|--- .... ....|R-- .... ....
....|..|R-- .... ....|R-- .... ....|--- .... ....
....|..|C-4 9F.F ....|F#5 UFFF ....|D#5 2F.7 ....
....|..|D#2 2F.7 ....|--- .... ....|R-- .... ....
....|..|A#4 2F.7 ....|R-- .... ....|R-- .... ....
....|..|R-- .... ....|R-- .... ....|--- .... ....
....|..|C-4 AF.F ....|D#6 UFFF ....|B-5 4F.F ....
 B-4|..|B-2 2A.F ....|R-- .... ....|B-4 2C.F ....
....|..|D#4 2F2F ....|R-- .... ....|R-- .... ....
....|..|F#4 2FA7 ....|R-- .... ....|F#4 4FA7 ....
....|..|C-4 AF.F ....|C#6 UFFF ....|C#6 4F.F ....
 C#4|..|C#2 2A.F ....|--- .... ....|--- .... ....
....|..|C-4 9F.F ....|--- .... ....|--- .... ....
....|..|D#4 2F2F ....|R-- .... ....|--- .... ....
....|..|C-4 9F.7 ....|F#5 UFF7 ....|--- .... ....
....|..|--- .... ....|--- .... ....|--- .... ....
....|..|--- .... ....|--- .... ....|--- .... ....
....|..|--- .... ....|R-- .... ....|--- .... ....
....|..|C-4 AF.F ....|B-5 UFF7 ....|B-5 4F.7 ....
....|..|B-1 2F.7 ....|R-- .... ....|B-4 2F.A ....
....|..|D#4 2F27 ....|R-- .... ....|R-- .... ....
....|..|B-4 2F.7 ....|R-- .... ....|B-4 4F.7 ....
....|..|C-4 AF.F ....|A#5 UFF7 ....|C#6 4F.A ....
....|..|C#2 2F.A ....|--- .... ....|--- .... ....
....|..|C-4 9F.A ....|--- .... ....|--- .... ....
....|..|D#4 2F2A ....|R-- .... ....|--- .... ....
....|..|C-4 AF.F ....|F#5 UFF7 ....|--- .... ....
....|..|--- .... ....|--- .... ....|--- .... ....
....|..|--- .... ....|--- .... ....|--- .... ....
....|..|--- .... ....|R-- .... ....|--- .... ....
....|..|C-4 AF.F ....|F#5 3F.F ....|F#5 4F.F ....
....|..|B-1 2F.7 ....|R-- .... ....|B-4 2F.7 ....
....|..|D#4 2F27 ....|F-5 3F.F ....|F-5 4F.F ....
....|..|R-- .... ....|R-- .... ....|--- .... ....
....|..|C-4 AF.7 ....|F#5 3F.F ....|F#5 4F.F ....
....|..|C#2 2F.7 ....|--- .... ....|--- .... ....
....|..|C-4 AF.F ....|G#5 3F.F ....|G#5 4F.F ....
....|..|D#4 2F27 ....|--- .... ....|--- .... ....
....|..|C-4 AF.A ....|F#5 3F.F ....|F#5 4F.F ....
....|..|--- .... ....|--- .... ....|--- .... ....
....|..|--- .... ....|G#5 3F.F ....|G#5 4F.F ....
....|..|--- .... ....|--- .... ....|--- .... ....
....|..|C-4 AF.F ....|A#5 3F.F ....|A#5 4F.F ....
....|..|--- .... ....|--- .... ....|--- .... ....
....|..|--- .... ....|B-5 3F.F ....|B-5 4F.F ....
....|..|B-4 2F.F ....|--- .... ....|B-4 4F.F ....

[Pattern55]
....|..|C-4 AF.F ....|C#6 3F.F ....|C#6 4F.F ....
....|..|R-- .... ....|--- .... ....|--- .... ....
....|..|C-4 AF.A ....|G#5 3F.A ....|G#5 4F.A ....
....|..|--- .... ....|--- .... ....|--- .... ....
....|..|C-4 AF.7 ....|F#5 3F.A ....|F#5 4F.A ....
....|..|--- .... ....|--- .... ....|--- .... ....
....|..|R-- .... ....|G#5 3F.A ....|G#5 4F.A ....
....|..|--- .... ....|--- .... ....|--- .... ....
....|..|C-4 AF.7 ....|C#5 UFFF ....|F#5 4F.7 ....
....|..|--- .... ....|--- .... ....|--- .... ....
....|..|--- .... ....|F-5 3F.7 ....|F-5 4F.7 ....
....|..|B-4 2F.A ....|R-- .... ....|B-4 4F.A ....
....|..|C-4 AF.A ....|C#5 UFFF ....|F#5 4F.7 ....
....|..|R-- .... ....|--- .... ....|--- .... ....
....|..|C-4 AF.7 ....|G#5 3F.7 ....|G#5 4F.7 ....
....|..|--- .... ....|--- .... ....|--- .... ....
 F#3|..|C-4 AF.F ....|B-5 UFFF ....|F#4 2C.F ....
 B-4|..|C#2 2F.F ....|--- .... ....|B-4 2C.F ....
....|..|R-- .... ....|G#5 3F.7 ....|G#5 4F.7 ....
....|..|--- .... ....|--- .... ....|--- .... ....
....|..|C-4 AF.7 ....|B-5 UFFF ....|A#5 4F.7 ....
....|..|--- .... ....|A#5 UFFF ....|--- .... ....
....|..|--- .... ....|B-5 3F.7 ....|B-5 4F.7 ....
....|..|B-4 2F.7 ....|R-- .... ....|B-4 4F.7 ....
....|..|C-4 CF.F ....|G#5 UFFF ....|A#5 4F.F ....
....|..|R-- .... ....|--- .... ....|--- .... ....
....|..|C-4 CF.F ....|C-6 3F.F ....|C-6 4F.F ....
....|..|R-- .... ....|C#6 3F.F ....|C#6 4F.F ....
....|..|C-4 9F.F ....|A#5 UFFF ....|F#4 2F.A ....
....|..|C#2 2F.A ....|D#6 3F.F ....|D#6 4F.F ....
....|..|R-- .... ....|F-6 3F.F ....|F-6 4F.F ....
....|..|--- .... ....|--- .... ....|--- .... ....
....|..|C-4 AF.F ....|F#5 UFFF ....|F#6 4F.F ....
 G-3|..|G-1 2A.F ....|A#5 UFFA ....|--- .... ....
....|..|D-4 2F1F ....|--- .... ....|--- .... ....
....|..|--- .... ....|R-- .... ....|--- .... ....
....|..|B-8 JF.F ....|C#5 UFF7 ....|A#5 4F.A ....
....|..|R-- .... ....|--- .... ....|--- .... ....
....|..|C-4 CF.A ....|C-6 3F.A ....|C-6 4F.A ....
....|..|R-- .... ....|C#6 3F.A ....|C#6 4F.A ....
 G-3|..|C-4 AF.F ....|B-5 UFF7 ....|G-1 2A.F ....
 G-3|..|G-1 2A.F ....|D#6 3F.A ....|B-4 2F.7 ....
....|..|--- .... ....|F-6 3F.A ....|F-6 4F.A ....
....|..|--- .... ....|--- .... ....|--- .... ....
....|..|B-8 JF.F ....|B-5 UFF7 ....|F#6 4F.A ....
....|..|G-1 2F.A ....|A#5 UFF7 ....|--- .... ....
....|..|D-4 2F1A ....|--- .... ....|R-- .... ....
....|..|--- .... ....|R-- .... ....|--- .... ....
 G-3|..|C-4 AF.F ....|G#5 UFF7 ....|G-1 2A.F ....
 G-3|..|G-1 2A.F ....|--- .... ....|--- .... ....
....|..|C-4 CF.7 ....|C-6 3F.7 ....|C-6 4F.7 ....
....|..|R-- .... ....|C#6 3F.7 ....|C#6 4F.7 ....
....|..|B-8 JF.F ....|A#5 UFF7 ....|G-1 2F.A ....
....|..|G-1 2F.A ....|D#6 3F.7 ....|D#6 4F.7 ....
....|..|R-- .... ....|F-6 3F.7 ....|F-6 4F.7 ....
....|..|--- .... ....|--- .... ....|--- .... ....
 G-3|..|C-4 AF.F ....|F#5 UFF7 ....|G-1 2A.F ....
 G-3|..|G-1 2A.F ....|--- .... ....|--- .... ....
....|..|D-4 2F17 ....|--- .... ....|R-- .... ....
....|..|--- .... ....|--- .... ....|--- .... ....
....|..|B-8 JF.F ....|--- .... ....|G-1 2F.A ....
....|..|D-4 2F1F ....|--- .... ....|D-4 4F1F ....
....|..|F#4 2F9F ....|--- .... ....|F#4 4F9F ....
....|..|F#4 2F9F ....|--- .... ....|F#4 4F9F ....

[Pattern56]
 D-4|..|C-4 AF.F ....|--- .... ....|D-4 2C.F ....
 G-3|..|G-1 2A.F ....|--- .... ....|A-4 4FDF ....
....|..|A-4 2FDF ....|--- .... ....|R-- .... ....
....|..|--- .... ....|--- .... ....|--- .... ....
....|..|B-8 JF.F ....|--- .... ....|G-1 2F.A ....
....|..|G-1 2F.A ....|--- .... ....|--- .... ....
....|..|R-- .... ....|--- .... ....|R-- .... ....
....|..|--- .... ....|--- .... ....|--- .... ....
 G-3|..|C-4 AF.F ....|--- .... ....|G-1 2A.F ....
 G-3|..|G-1 2A.F ....|--- .... ....|D-4 4F1A ....
....|..|F#4 2F9A ....|--- .... ....|F#4 4F9A ....
....|..|F#4 2F9A ....|--- .... ....|F#4 4F9A ....
....|..|B-8 JF.F ....|--- .... ....|D-4 2F.A ....
....|..|G-1 2F.A ....|--- .... ....|A-4 4FDA ....
....|..|A-4 2FDA ....|R-- .... ....|R-- .... ....
....|..|--- .... ....|--- .... ....|--- .... ....
 E-4|..|C-4 AF.F ....|--- .... ....|E-4 2C.F ....
 G-3|..|G-1 2A.F ....|--- .... ....|--- .F.. ....
....|..|R-- .... ....|--- .... ....|R-- .... ....
....|..|--- .... ....|--- .... ....|--- .... ....
....|..|B-8 JF.F ....|--- .... ....|G-1 2F.A ....
....|..|D-4 2F17 ....|--- .... ....|D-4 4F17 ....
....|..|F#4 2F97 ....|--- .... ....|F#4 4F97 ....
....|..|F#4 2F97 ....|--- .... ....|F#4 4F97 ....
 G-3|..|C-4 AF.F ....|--- .... ....|G-1 2A.F ....
 G-3|..|G-1 2A.F ....|--- .... ....|A-4 4FD7 ....
....|..|C-4 9F.F ....|R-- .... ....|R-- .... ....
....|..|R-- .... ....|--- .... ....|--- .... ....
....|..|B-8 JF.F ....|--- .... ....|E-4 2F.A ....
....|..|A-4 2FEF ....|--- .... ....|A-4 4FEF ....
....|..|R-- .... ....|--- .... ....|R-- .... ....
....|..|R-- .... ....|--- .... ....|R-- .... ....
 C#4|..|C-4 AF.F ....|--- .... ....|C#4 2C.F ....
 F#3|..|F#1 2A.F ....|--- .... ....|--- .F.. ....
....|..|G#3 2FDF ....|--- .... ....|R-- .... ....
....|..|--- .... ....|--- .... ....|--- .... ....
....|..|B-8 JF.7 ....|--- .... ....|G-1 2F.A ....
....|..|G-1 2F.A ....|--- .... ....|--- .... ....
....|..|C-4 9F.A ....|R-- .... ....|R-- .... ....
....|..|R-- .... ....|--- .... ....|--- .... ....
 F#3|..|F#1 2A.F ....|--- .... ....|F#1 2A.F ....
....|..|G-1 2F.7 ....|--- .... ....|A-4 4FEA ....
....|..|R-- .... ....|--- .... ....|R-- .... ....
....|..|R-- .... ....|--- .... ....|R-- .... ....
....|..|B-8 JF.7 ....|--- .... ....|C#4 2F.A ....
....|..|F#1 2F.A ....|--- .... ....|--- .... ....
....|..|G#3 2FDA ....|--- .... ....|R-- .... ....
....|..|R-- .... ....|--- .... ....|R-- .... ....
 F#3|..|F#1 2A.F ....|--- .... ....|F#1 2A.F ....
....|..|G-1 2F.7 ....|--- .... ....|--- .... ....
....|..|C-4 9F.7 ....|--- .... ....|R-- .... ....
....|..|R-- .... ....|--- .... ....|--- .... ....
....|..|B-8 JF.7 ....|--- .... ....|F#1 2F.A ....
....|..|A-4 2FE7 ....|--- .... ....|A-4 4FE7 ....
....|..|R-- .... ....|--- .... ....|R-- .... ....
....|..|R-- .... ....|--- .... ....|R-- .... ....
 F#3|..|F#1 2A.F ....|--- .... ....|F#1 2A.F ....
....|..|F#1 2F.7 ....|--- .... ....|--- .... ....
....|..|G#3 2FD7 ....|--- .... ....|--- .... ....
....|..|R-- .... ....|--- .... ....|R-- .... ....
....|..|F#1 2F.A ....|--- .... ....|F#1 2F.A ....
....|..|--- .... ....|--- .... ....|--- .... ....
....|..|R-- .... ....|--- .... ....|R-- .... ....
....|..|--- .... ....|--- .... ....|--- .... ....

[Pattern57]
....|..|C-4 AF.F ....|R-- .... ....|A#3 4F2F ....
....|..|C-4 AF.F ....|--- .... ....|--- .... ....
 F#3|..|F#1 2A.F ....|--- .... ....|R-- .... ....
....|..|A#3 2F2F ....|--- .... ....|--- .... ....
....|..|F#1 2F.A ....|--- .... ....|F#1 2F.A ....
....|..|--- .... ....|--- .... ....|--- .... ....
....|..|--- .... ....|--- .... ....|--- .... ....
....|..|R-- .... ....|--- .... ....|R-- .... ....
....|..|F#1 2F.7 ....|--- .... ....|F#1 2F.7 ....
....|..|--- .... ....|--- .... ....|--- .... ....
....|..|R-- .... ....|--- .... ....|R-- .... ....
....|..|--- .... ....|--- .... ....|--- .... ....
....|..|C-4 9F.F ....|F#4 3F.F ....|F#4 4F.F ....
 F#3|..|F#1 2A.F ....|R-- .... ....|R-- .... ....
....|..|C-4 9F.F ....|F#4 3F.F ....|F#4 4F.F ....
....|..|A#3 2F2A ....|R-- .... ....|R-- .... ....
....|..|C-4 AF.F ....|F#4 3F.F ....|F#4 4F.F ....
....|..|C-4 AF.F ....|--- .... ....|--- .... ....
 F#3|..|F#1 2A.F ....|R-- .... ....|R-- .... ....
....|..|--- .... ....|--- .... ....|--- .... ....
....|..|R-- .... ....|--- .... ....|R-- .... ....
....|..|--- .... ....|--- .... ....|--- .... ....
....|..|R-- .... ....|--- .... ....|R-- .... ....
....|..|--- .... ....|--- .... ....|--- .... ....
....|..|C-4 AF.7 ....|F#4 3F.A ....|A#3 4F27 ....
....|..|C-4 AF.7 ....|R-- .... ....|R-- .... ....
....|..|F#1 2F.7 ....|F#4 3F.A ....|F#4 4F.A ....
....|..|A#3 2F27 ....|R-- .... ....|R-- .... ....
....|..|C-4 AF.A ....|F#4 3F.A ....|F#4 4F.A ....
....|..|C-4 AF.A ....|--- .... ....|--- .... ....
....|..|F#1 2F.A ....|R-- .... ....|R-- .... ....
....|..|--- .... ....|--- .... ....|--- .... ....
....|..|R-- .... ....|--- .... ....|R-- .... ....
....|..|--- .... ....|--- .... ....|--- .... ....
....|..|--- .... ....|--- .... ....|--- .... ....
....|..|--- .... ....|--- .... ....|--- .... ....
....|..|C-4 9F.7 ....|F#4 3F.7 ....|F#4 4F.7 ....
....|..|F#1 2F.7 ....|R-- .... ....|R-- .... ....
....|..|C-4 9F.7 ....|F#4 3F.7 ....|F#4 4F.7 ....
....|..|R-- .... ....|R-- .... ....|R-- .... ....
....|..|C-4 AF.7 ....|F#4 3F.7 ....|F#4 4F.7 ....
....|..|C-4 AF.7 ....|--- .... ....|--- .... ....
....|..|F#1 2F.7 ....|R-- .... ....|R-- .... ....
....|..|--- .... ....|--- .... ....|--- .... ....

