[Module]
VortexTrackerII=0
Version=3.5
Title=1d-2me,4m[uf]-5m[3]+,3p-6m[2f]+
Author=oisee ^ 4d 29.05.2010
NoteTable=4
ChipFreq=1750000
Speed=3
PlayOrder=L0,1,2,3,4,5,6,7,8,9,10,11,12,13,14,15,16,17,18,19,20,21,22,23,24,25,26,27,28,29,30,31,32,33,34,35,36,37,38,39,40,41,42,43,44,45,46,47,48,49,50,51,52,53,54,55,56,57,58,59

[Ornament1]
L0,0,4,4,7,7

[Ornament2]
L0,0,3,3,8,8

[Ornament3]
L0,0,3,3,6,6

[Ornament4]
L0,0,4,4,9,9

[Ornament5]
L0,0,5,5,9,9

[Ornament6]
L0,0,3,3,7,7

[Ornament7]
L0,0,3,3,9,9

[Ornament8]
L0,0,5,5,8,8

[Ornament9]
L0,0,3,3

[Ornament10]
L0,0,5,5

[Ornament11]
L0,0,2,2,6,6

[Ornament12]
L0,0,4,4

[Ornament13]
L0,0,2,2,5,5

[Ornament14]
L0,0,2,2,5,5,9,9

[Ornament15]
L0

[Sample1]
TnE +000_ +00_ F_
TnE +000_ +00_ F_
TnE +000_ +00_ F_
TnE +000_ +00_ D_
TnE +000_ +00_ B_
TnE +000_ +00_ B_ L

[Sample2]
TnE +000_ +00_ F_ L

[Sample3]
TnE +001_ +00_ F_
TnE +002_ +00_ F_
TnE +001_ +00_ E_
TnE +002_ +00_ E_
TnE +000_ +00_ E_ L
TnE -001_ +00_ E_
TnE -002_ +00_ E_
TnE -001_ +00_ E_
TnE +000_ +00_ E_
TnE +001_ +00_ E_
TnE +002_ +00_ E_
TnE +001_ +00_ E_

[Sample4]
TnE +002_ +00_ D_
TnE +002_ +00_ D_
TnE +002_ +00_ C_
TnE +002_ +00_ B_
TnE +002_ +00_ A_ L
TnE +002_ +00_ A_
TnE +002_ +00_ A_
TnE +002_ +00_ A_
TnE +002_ +00_ A_
TnE +002_ +00_ A_
TnE +002_ +00_ A_
TnE +002_ +00_ A_

[Sample5]
TnE +000_ +00_ F_
TnE +000_ +00_ F_
tne +000_ +00_ 0_ L

[Sample6]
TnE -001_ +00_ F_ L

[Sample7]
TnE +006_ +00_ F_ L

[Sample8]
tNe +000_ +00_ F_
tNe +000_ +00_ B_
tNe +000_ +00_ 7_
tNe +000_ +00_ 6- L

[Sample9]
TnE +080_ +00_ F_
TnE +100_ +00_ E_
TnE +180_ +00_ E_
TnE +200_ +00_ E_
TnE +240_ +00_ D_
TnE +280_ +00_ D_
TnE +2C0_ +00_ D_
TnE +300_ +00_ C_
TnE +300_ +00_ C_
TnE +340_ +00_ C_
TnE +340_ +00_ C_
TnE +380_ +00_ B_
TnE +380_ +00_ B_
TnE +400_ +00_ B_
TnE +400_ +00_ B_
TnE +480_ +00_ A_
TnE +500_ +00_ 9_
TnE +580_ +00_ 7_
TnE +600_ +00_ 4_
TnE +680_ +00_ 1_
TnE +000_ +00_ 0_ L

[Sample10]
Tne +1C0_ +00_ F_
Tne +280_ +00_ E_
Tne +380_ +00_ C_
Tne +440_ +00_ A_
Tne +480_ +00_ 8_
TnE +000_ +00_ 0_ L

[Sample11]
TNe +200_ -0A_ F_
tNe +000_ +0F_ A_
TNe +200_ -07_ E_
tNe +000_ +0E_ B- L

[Sample12]
TNE +0A0_ +05_ F_
TNE +140_ +02_ D_
TNE +140_ +02_ B_
TNE +100_ +00_ A_ L
TNE +140_ +00_ A_
TNE +200_ +00_ A-

[Sample13]
Tne +200_ +00_ F_
Tne +2C0_ +00_ F_
Tne +380_ +00_ E_
Tne +500_ +00_ C_
Tne +520_ +00_ 9_
tne +000_ +00_ 0_ L

[Sample14]
TNE -100_ +00_ F_
TNE -100_ +00_ D_
TNE -100_ +00_ A_
TNE -100_ +00_ 5_
tne +000_ +00_ 0_ L

[Sample15]
TNE -100_ +00_ 5_
TNE -100_ +00_ 8_
TNE -100_ +00_ B_
TNE -100_ +00_ F_
TNe -100_ +00_ 9- L

[Sample16]
TnE +000_ +00_ C_
TnE +000_ +00_ E_
TnE +000_ +00_ F_
TnE +000_ +00_ F_
TnE +000_ +00_ E_
TnE +000_ +00_ D_
TnE +000_ +00_ C_
TnE +000_ +00_ C_ L
TnE +001_ +00_ C_
TnE +002_ +00_ C_
TnE +003_ +00_ C_
TnE +001_ +00_ C_
TnE +000_ +00_ C_
TnE -001_ +00_ C_
TnE -002_ +00_ C_
TnE -003_ +00_ C_
TnE -001_ +00_ C_
TnE +000_ +00_ C_
TnE +000_ +00_ C_

[Sample17]
Tne +1C0_ +00_ F_
Tne +280_ +00_ D_
Tne +380_ +00_ 7_
TNE +000_ +00_ 0_ L

[Sample18]
TnE -00C_ +00_ 0_ L

[Sample19]
TNe +000_ +00_ F_
TNe +000_ +00_ C_
TNe +000_ +00_ 6_
TNe +000_ +01_ A- L

[Sample20]
TNE +140_ +00_ F_
tNE +000_ +00_ B- L

[Sample21]
tNE +000_ +00_ D_
tNE +000_ +00_ 8_
tNE +000_ +00_ 1_
TNE +000_ +00_ 0_ L

[Sample22]
TnE +000_ +00_ D_ L
TnE +000_ +00_ D_
tne +000_ +00_ 9_
tne +000_ +00_ 9_
TnE +000_ +00_ D_
TnE +000_ +00_ D_
tne +000_ +00_ 9_
tne +000_ +00_ 9_
TnE +000_ +00_ D_
TnE +000_ +00_ D_
TnE +000_ +00_ D_
TnE +000_ +00_ D_
TnE +000_ +00_ D_
TnE +000_ +00_ D_
tne +000_ +00_ 9_
tne +000_ +00_ 9_

[Sample23]
TnE +000_ +00_ F_ L
TnE +010_ +01_ F_
TnE +010_ +01_ F_
TnE +010_ +01_ F_
TnE +010_ +01_ F_
TnE +000_ +00_ F_
TnE +000_ +00_ F_
TnE -010_ -01_ F_
TnE -010_ -01_ F_
TnE -010_ -01_ F_
TnE -010_ -01_ F_
TnE +000_ +00_ F_

[Sample24]
TNe +000_ -01_ C_
TNe +000_ -01_ D_
TNe +000_ -01_ E_
TNe +000_ -01_ F_
TNe +000_ -01_ F_
TNe +000_ -01_ F_
TNe +000_ -01_ F_
TNe +000_ -01_ F_
TNe +000_ -01_ E_
TNe +000_ -01_ E_
TNe +000_ -01_ E_
TNe +000_ -01_ F_
TNe +000_ -01_ F_ L

[Sample25]
TNE +000_ +00_ F_
TNE +000_ +00_ F_ L
TNE +000_ +00_ F_
TNE +000_ +00_ F_
TNE +000_ +00_ F-

[Sample26]
tne +000_ +00_ 0_ L

[Sample27]
TnE +100_ +05_ F_
TnE +200_ +02_ A_
TnE +300_ +02_ 7_
TNE +400_ +00_ 3- L

[Sample28]
tne +000_ +00_ 0_ L

[Sample29]
tnE +000_ +00_ 0_ L

[Sample30]
TNE +000_ +00_ C+ L

[Sample31]
TNe +1C0_ +00_ F_
Tne +280_ +00_ E_
Tne +380_ +00_ C_
Tne +440_ +00_ A_
Tne +480_ +00_ 8_
TnE +000_ +00_ 0_ L

[Pattern0]
....|..|--- .... ....|--- .... ....|--- .... ....
....|..|--- .... ....|--- .... ....|--- .... ....
....|..|--- .... ....|--- .... ....|--- .... ....
....|..|--- .... ....|--- .... ....|--- .... ....
....|..|--- .... ....|--- .... ....|--- .... ....
....|..|--- .... ....|--- .... ....|--- .... ....
....|..|--- .... ....|--- .... ....|--- .... ....
....|..|--- .... ....|--- .... ....|--- .... ....
....|..|--- .... ....|--- .... ....|--- .... ....
....|..|--- .... ....|--- .... ....|--- .... ....
....|..|--- .... ....|--- .... ....|--- .... ....
....|..|--- .... ....|--- .... ....|--- .... ....
....|..|--- .... ....|--- .... ....|--- .... ....
....|..|--- .... ....|--- .... ....|--- .... ....
....|..|--- .... ....|--- .... ....|--- .... ....
....|..|--- .... ....|--- .... ....|--- .... ....
....|..|--- .... ....|--- .... ....|--- .... ....
....|..|--- .... ....|--- .... ....|--- .... ....
....|..|--- .... ....|--- .... ....|--- .... ....
....|..|--- .... ....|--- .... ....|--- .... ....
....|..|--- .... ....|--- .... ....|--- .... ....
....|..|--- .... ....|--- .... ....|--- .... ....
....|..|--- .... ....|--- .... ....|--- .... ....
....|..|--- .... ....|--- .... ....|--- .... ....
....|..|--- .... ....|--- .... ....|--- .... ....
....|..|--- .... ....|--- .... ....|--- .... ....
....|..|--- .... ....|--- .... ....|--- .... ....
....|..|--- .... ....|--- .... ....|--- .... ....
....|..|--- .... ....|--- .... ....|--- .... ....
....|..|--- .... ....|--- .... ....|--- .... ....
....|..|--- .... ....|--- .... ....|--- .... ....
....|..|--- .... ....|--- .... ....|--- .... ....
....|..|--- .... ....|--- .... ....|--- .... ....
....|..|--- .... ....|--- .... ....|--- .... ....
....|..|--- .... ....|--- .... ....|--- .... ....
....|..|--- .... ....|--- .... ....|--- .... ....
....|..|--- .... ....|--- .... ....|--- .... ....
....|..|--- .... ....|--- .... ....|--- .... ....
....|..|--- .... ....|--- .... ....|--- .... ....
....|..|--- .... ....|--- .... ....|--- .... ....
....|..|--- .... ....|--- .... ....|--- .... ....
....|..|--- .... ....|--- .... ....|--- .... ....
....|..|--- .... ....|--- .... ....|--- .... ....
....|..|--- .... ....|--- .... ....|--- .... ....
....|..|--- .... ....|--- .... ....|--- .... ....
....|..|--- .... ....|--- .... ....|--- .... ....
....|..|--- .... ....|--- .... ....|--- .... ....
....|..|--- .... ....|--- .... ....|--- .... ....
....|..|--- .... ....|--- .... ....|--- .... ....
....|..|--- .... ....|--- .... ....|--- .... ....
....|..|--- .... ....|--- .... ....|--- .... ....
....|..|--- .... ....|--- .... ....|--- .... ....
....|..|--- .... ....|--- .... ....|--- .... ....
....|..|--- .... ....|--- .... ....|--- .... ....
....|..|--- .... ....|--- .... ....|--- .... ....
....|..|--- .... ....|--- .... ....|--- .... ....
....|..|--- .... ....|--- .... ....|--- .... ....
....|..|--- .... ....|--- .... ....|--- .... ....
....|..|--- .... ....|--- .... ....|--- .... ....
....|..|--- .... ....|--- .... ....|--- .... ....
....|..|--- .... ....|--- .... ....|--- .... ....
....|..|--- .... ....|--- .... ....|--- .... ....
....|..|--- .... ....|--- .... ....|--- .... ....
....|..|--- .... ....|--- .... ....|--- .... ....

[Pattern1]
....|..|--- .... ....|--- .... ....|--- .... ....
....|..|--- .... ....|--- .... ....|--- .... ....
....|..|--- .... ....|--- .... ....|--- .... ....
....|..|--- .... ....|--- .... ....|--- .... ....
....|..|--- .... ....|--- .... ....|--- .... ....
....|..|--- .... ....|--- .... ....|--- .... ....
....|..|--- .... ....|--- .... ....|--- .... ....
....|..|--- .... ....|--- .... ....|--- .... ....
....|..|--- .... ....|--- .... ....|--- .... ....
....|..|--- .... ....|--- .... ....|--- .... ....
....|..|--- .... ....|--- .... ....|--- .... ....
....|..|--- .... ....|--- .... ....|--- .... ....
....|..|--- .... ....|--- .... ....|--- .... ....
....|..|--- .... ....|--- .... ....|--- .... ....
....|..|--- .... ....|--- .... ....|--- .... ....
....|..|--- .... ....|--- .... ....|--- .... ....
....|..|--- .... ....|--- .... ....|--- .... ....
....|..|--- .... ....|--- .... ....|--- .... ....
....|..|--- .... ....|--- .... ....|--- .... ....
....|..|--- .... ....|--- .... ....|--- .... ....
....|..|--- .... ....|--- .... ....|--- .... ....
....|..|--- .... ....|--- .... ....|--- .... ....
....|..|--- .... ....|--- .... ....|--- .... ....
....|..|--- .... ....|--- .... ....|--- .... ....
....|..|--- .... ....|--- .... ....|--- .... ....
....|..|--- .... ....|--- .... ....|--- .... ....
....|..|--- .... ....|--- .... ....|--- .... ....
....|..|--- .... ....|--- .... ....|--- .... ....
....|..|--- .... ....|--- .... ....|--- .... ....
....|..|--- .... ....|--- .... ....|--- .... ....
....|..|--- .... ....|--- .... ....|--- .... ....
....|..|--- .... ....|--- .... ....|--- .... ....
....|..|--- .... ....|C-6 UFFF ....|F-4 2F1F ....
....|..|--- .... ....|--- .... ....|--- .... ....
....|..|--- .... ....|--- .... ....|--- .... ....
....|..|--- .... ....|R-- .... ....|--- .... ....
....|..|--- .... ....|--- .... ....|--- .... ....
....|..|--- .... ....|--- .... ....|--- .... ....
....|..|--- .... ....|--- .... ....|--- .... ....
....|..|--- .... ....|--- .... ....|--- .... ....
....|..|--- .... ....|A-5 UFFF ....|--- .... ....
....|..|--- .... ....|--- .... ....|--- .... ....
....|..|--- .... ....|--- .... ....|--- .... ....
....|..|--- .... ....|R-- .... ....|--- .... ....
....|..|--- .... ....|F-5 UFFF ....|F-4 2F1A ....
....|..|--- .... ....|--- .... ....|--- .... ....
....|..|--- .... ....|--- .... ....|--- .... ....
....|..|--- .... ....|R-- .... ....|--- .... ....
....|..|--- .... ....|--- .... ....|--- .... ....
....|..|--- .... ....|--- .... ....|--- .... ....
....|..|--- .... ....|--- .... ....|--- .... ....
....|..|--- .... ....|--- .... ....|--- .... ....
....|..|--- .... ....|C-6 UFFF ....|--- .... ....
....|..|--- .... ....|--- .... ....|--- .... ....
....|..|--- .... ....|--- .... ....|--- .... ....
....|..|--- .... ....|R-- .... ....|--- .... ....
....|..|--- .... ....|C-6 UFF7 ....|F-4 2F17 ....
....|..|--- .... ....|--- .... ....|--- .... ....
....|..|--- .... ....|--- .... ....|--- .... ....
....|..|--- .... ....|R-- .... ....|--- .... ....
....|..|--- .... ....|A#5 UFFF ....|--- .... ....
....|..|--- .... ....|--- .... ....|--- .... ....
....|..|--- .... ....|--- .... ....|--- .... ....
....|..|--- .... ....|--- .... ....|--- .... ....

[Pattern2]
....|..|--- .... ....|A-5 UFF7 ....|E-4 2F2F ....
....|..|--- .... ....|--- .... ....|--- .... ....
....|..|--- .... ....|--- .... ....|--- .... ....
....|..|--- .... ....|R-- .... ....|--- .... ....
....|..|--- .... ....|G-5 UFFF ....|--- .... ....
....|..|--- .... ....|--- .... ....|--- .... ....
....|..|--- .... ....|--- .... ....|--- .... ....
....|..|--- .... ....|R-- .... ....|--- .... ....
....|..|--- .... ....|A#5 UFFA ....|--- .... ....
....|..|--- .... ....|--- .... ....|--- .... ....
....|..|--- .... ....|--- .... ....|--- .... ....
....|..|--- .... ....|--- .... ....|--- .... ....
....|..|--- .... ....|C-6 UFF7 ....|E-4 2F2A ....
....|..|--- .... ....|--- .... ....|--- .... ....
....|..|--- .... ....|--- .... ....|--- .... ....
....|..|--- .... ....|R-- .... ....|--- .... ....
....|..|--- .... ....|G-5 UFFA ....|--- .... ....
....|..|--- .... ....|--- .... ....|--- .... ....
....|..|--- .... ....|--- .... ....|--- .... ....
....|..|--- .... ....|R-- .... ....|--- .... ....
....|..|--- .... ....|A#5 UFF7 ....|--- .... ....
....|..|--- .... ....|--- .... ....|--- .... ....
....|..|--- .... ....|--- .... ....|--- .... ....
....|..|--- .... ....|--- .... ....|--- .... ....
....|..|--- .... ....|--- .... ....|E-4 2F27 ....
....|..|--- .... ....|--- .... ....|--- .... ....
....|..|--- .... ....|--- .... ....|--- .... ....
....|..|--- .... ....|R-- .... ....|--- .... ....
....|..|--- .... ....|G-5 UFF7 ....|--- .... ....
....|..|--- .... ....|--- .... ....|--- .... ....
....|..|--- .... ....|--- .... ....|--- .... ....
....|..|--- .... ....|R-- .... ....|--- .... ....
....|..|--- .... ....|A#5 UFFF ....|E-4 2F3F ....
....|..|--- .... ....|--- .... ....|--- .... ....
....|..|--- .... ....|--- .... ....|--- .... ....
....|..|--- .... ....|R-- .... ....|--- .... ....
....|..|--- .... ....|--- .... ....|--- .... ....
....|..|--- .... ....|--- .... ....|--- .... ....
....|..|--- .... ....|--- .... ....|--- .... ....
....|..|--- .... ....|--- .... ....|--- .... ....
....|..|--- .... ....|G-5 UFFF ....|--- .... ....
....|..|--- .... ....|--- .... ....|--- .... ....
....|..|--- .... ....|--- .... ....|--- .... ....
....|..|--- .... ....|R-- .... ....|--- .... ....
....|..|--- .... ....|E-5 UFFF ....|E-4 2F3A ....
....|..|--- .... ....|--- .... ....|--- .... ....
....|..|--- .... ....|R-- .... ....|--- .... ....
....|..|--- .... ....|R-- .... ....|--- .... ....
....|..|--- .... ....|--- .... ....|--- .... ....
....|..|--- .... ....|--- .... ....|--- .... ....
....|..|--- .... ....|--- .... ....|--- .... ....
....|..|--- .... ....|--- .... ....|--- .... ....
....|..|--- .... ....|A#5 UFFF ....|G-4 2F3F ....
....|..|--- .... ....|--- .... ....|--- .... ....
....|..|--- .... ....|--- .... ....|--- .... ....
....|..|--- .... ....|R-- .... ....|--- .... ....
....|..|--- .... ....|A#5 UFF7 ....|E-4 2F37 ....
....|..|--- .... ....|--- .... ....|--- .... ....
....|..|--- .... ....|R-- .... ....|--- .... ....
....|..|--- .... ....|R-- .... ....|--- .... ....
....|..|--- .... ....|A-5 UFFF ....|--- .... ....
....|..|--- .... ....|--- .... ....|--- .... ....
....|..|--- .... ....|--- .... ....|--- .... ....
....|..|--- .... ....|--- .... ....|--- .... ....

[Pattern3]
....|..|--- .... ....|G-5 UFF7 ....|F-4 2F4F ....
....|..|--- .... ....|--- .... ....|--- .... ....
....|..|--- .... ....|--- .... ....|--- .... ....
....|..|--- .... ....|R-- .... ....|--- .... ....
....|..|--- .... ....|F-5 UFFF ....|--- .... ....
....|..|--- .... ....|--- .... ....|--- .... ....
....|..|--- .... ....|R-- .... ....|--- .... ....
....|..|--- .... ....|R-- .... ....|--- .... ....
....|..|--- .... ....|A-5 UFFA ....|--- .... ....
....|..|--- .... ....|--- .... ....|--- .... ....
....|..|--- .... ....|--- .... ....|--- .... ....
....|..|--- .... ....|--- .... ....|--- .... ....
....|..|--- .... ....|A-4 3F.F ....|G-4 2F37 ....
....|..|--- .... ....|--- .... ....|--- .... ....
....|..|--- .... ....|C-5 3F.F ....|--- .... ....
....|..|--- .... ....|R-- .... ....|--- .... ....
....|..|--- .... ....|D-5 3F.F ....|--- .... ....
....|..|--- .... ....|--- .... ....|--- .... ....
....|..|--- .... ....|C-5 3F.F ....|--- .... ....
....|..|--- .... ....|R-- .... ....|--- .... ....
....|..|C-4 CF.F ....|D-5 3F.F ....|--- .... ....
....|..|--- .... ....|--- .... ....|--- .... ....
....|..|--- .... ....|F-5 3F.F ....|--- .... ....
....|..|--- .... ....|--- .... ....|--- .... ....
....|..|C-4 LF.F ....|A-5 3F.F ....|F-4 2F47 ....
....|..|--- .... ....|--- .... ....|--- .... ....
....|..|C-4 LF.F ....|G-5 3F.F ....|--- .... ....
....|..|--- .... ....|R-- .... ....|--- .... ....
....|..|D#4 9F.F ....|A-5 3F.F ....|--- .... ....
....|..|--- .... ....|--- .... ....|--- .... ....
....|..|--- .... ....|C-6 3F.F ....|--- .... ....
....|..|--- .... ....|R-- .... ....|--- .... ....
....|..|C-4 AF.F ....|D-6 3F.F ....|A#3 2F1F ....
 A#3|..|A#1 2A.F ....|--- .... ....|--- .... ....
....|..|R-- .... ....|F-5 3F.A ....|--- .... ....
....|..|--- .... ....|--- .... ....|--- .... ....
....|..|B-8 JF.F ....|A-4 3F.7 ....|A#4 2FFF ....
 A#3|..|A#1 2A.F ....|--- .... ....|--- .... ....
....|..|C-4 LF.A ....|C-5 3F.7 ....|--- .... ....
....|..|--- .... ....|--- .... ....|R-- .... ....
....|..|C-4 AF.F ....|D-5 3F.7 ....|--- .... ....
 A#3|..|A#1 2A.F ....|--- .... ....|--- .... ....
....|..|R-- .... ....|C-5 3F.7 ....|--- .... ....
....|..|--- .... ....|--- .... ....|--- .... ....
....|..|B-8 JF.F ....|D-5 3F.7 ....|A#4 2FFF ....
 A#3|..|A#1 2A.F ....|--- .... ....|--- .... ....
....|..|R-- .... ....|F-5 3F.7 ....|--- .... ....
....|..|--- .... ....|--- .... ....|R-- .... ....
....|..|C-4 AF.F ....|A-5 3F.7 ....|C-4 2F1F ....
 A#3|..|A#1 2A.F ....|--- .... ....|--- .... ....
....|..|C-4 LF.7 ....|G-5 3F.7 ....|--- .... ....
....|..|--- .... ....|--- .... ....|R-- .... ....
....|..|B-8 JF.F ....|E-6 3F.F ....|--- .... ....
 A#3|..|A#1 2A.F ....|--- .... ....|--- .... ....
....|..|R-- .... ....|C-6 3F.7 ....|--- .... ....
....|..|--- .... ....|--- .... ....|--- .... ....
....|..|C-4 AF.F ....|C-6 3F.F ....|A#3 2F17 ....
 A#3|..|A#1 2A.F ....|--- .... ....|--- .... ....
....|..|R-- .... ....|--- .... ....|--- .... ....
....|..|--- .... ....|--- .... ....|R-- .... ....
....|..|B-8 JF.F ....|A#5 3F.F ....|A#4 2FF7 ....
 A#3|..|A#1 2A.F ....|--- .... ....|--- .... ....
....|..|R-- .... ....|--- .... ....|--- .... ....
....|..|--- .... ....|--- .... ....|R-- .... ....

[Pattern4]
....|..|C-4 AF.F ....|C-6 3F.F ....|C-4 2F1F ....
 A-3|..|A-1 2A.F ....|--- .... ....|--- .... ....
....|..|R-- .... ....|--- .... ....|--- .... ....
....|..|--- .... ....|--- .... ....|--- .... ....
....|..|B-8 JF.F ....|C-6 3F.A ....|C-5 2FFF ....
 A-3|..|A-1 2A.F ....|--- .... ....|--- .... ....
....|..|R-- .... ....|--- .... ....|--- .... ....
....|..|--- .... ....|--- .... ....|R-- .... ....
....|..|C-4 AF.F ....|A#5 3F.A ....|C-4 2F17 ....
 A-3|..|A-1 2A.F ....|--- .... ....|--- .... ....
....|..|R-- .... ....|--- .... ....|--- .... ....
....|..|--- .... ....|--- .... ....|--- .... ....
....|..|B-8 JF.F ....|E-6 3F.7 ....|C-5 2FFF ....
 A-3|..|A-1 2A.F ....|--- .... ....|--- .... ....
....|..|R-- .... ....|--- .... ....|--- .... ....
....|..|--- .... ....|--- .... ....|--- .... ....
....|..|C-4 AF.F ....|C-6 3F.7 ....|C-4 2F5F ....
 D-4|..|D-2 2A.F ....|--- .... ....|--- .... ....
....|..|R-- .... ....|--- .... ....|--- .... ....
....|..|--- .... ....|--- .... ....|R-- .... ....
....|..|B-8 JF.F ....|A#5 3F.7 ....|--- .... ....
 D-4|..|D-2 2A.F ....|--- .... ....|--- .... ....
....|..|R-- .... ....|--- .... ....|--- .... ....
....|..|--- .... ....|--- .... ....|--- .... ....
....|..|C-4 AF.F ....|C-6 3F.7 ....|C-4 2F17 ....
 D-4|..|D-2 2A.F ....|--- .... ....|--- .... ....
....|..|R-- .... ....|--- .... ....|--- .... ....
....|..|--- .... ....|--- .... ....|--- .... ....
....|..|B-8 JF.F ....|--- .... ....|C-5 2FF7 ....
 D-4|..|D-2 2A.F ....|--- .... ....|--- .... ....
....|..|R-- .... ....|--- .... ....|--- .... ....
....|..|--- .... ....|--- .... ....|R-- .... ....
....|..|C-4 AF.F ....|A#5 3F.F ....|A#3 2F1F ....
 G-3|..|G-1 2A.F ....|--- .... ....|--- .... ....
....|..|R-- .... ....|--- .... ....|--- .... ....
....|..|--- .... ....|--- .... ....|--- .... ....
....|..|B-8 JF.F ....|--- .... ....|A#4 2FFF ....
 G-3|..|G-1 2A.F ....|--- .... ....|--- .... ....
....|..|R-- .... ....|--- .... ....|--- .... ....
....|..|--- .... ....|--- .... ....|R-- .... ....
....|..|C-4 AF.F ....|--- .... ....|C-4 2F57 ....
 G-3|..|G-1 2A.F ....|--- .... ....|--- .... ....
....|..|R-- .... ....|--- .... ....|--- .... ....
....|..|--- .... ....|--- .... ....|--- .... ....
....|..|B-8 JF.F ....|A#5 3F.A ....|A#4 2FFF ....
 G-3|..|G-1 2A.F ....|--- .... ....|--- .... ....
....|..|R-- .... ....|--- .... ....|--- .... ....
....|..|--- .... ....|--- .... ....|R-- .... ....
....|..|C-4 AF.F ....|--- .... ....|A#4 2FFA ....
 G-3|..|G-1 2A.F ....|--- .... ....|--- .... ....
....|..|R-- .... ....|--- .... ....|--- .... ....
....|..|--- .... ....|--- .... ....|R-- .... ....
....|..|B-8 JF.F ....|--- .... ....|--- .... ....
 G-3|..|G-1 2A.F ....|--- .... ....|--- .... ....
....|..|R-- .... ....|--- .... ....|--- .... ....
....|..|--- .... ....|--- .... ....|--- .... ....
....|..|C-4 AF.F ....|A#5 3F.7 ....|A#3 2F17 ....
 G-3|..|G-1 2A.F ....|--- .... ....|--- .... ....
....|..|R-- .... ....|--- .... ....|--- .... ....
....|..|--- .... ....|--- .... ....|R-- .... ....
....|..|B-8 JF.F ....|--- .... ....|A#4 2FF7 ....
 G-3|..|G-1 2A.F ....|--- .... ....|--- .... ....
....|..|R-- .... ....|--- .... ....|--- .... ....
....|..|--- .... ....|--- .... ....|R-- .... ....

[Pattern5]
....|..|C-4 AF.F ....|A#5 3F.F ....|A#3 2F1F ....
 C-4|..|C-2 2A.F ....|--- .... ....|--- .... ....
....|..|R-- .... ....|A-5 3F.F ....|--- .... ....
....|..|--- .... ....|--- .... ....|--- .... ....
....|..|B-8 JF.F ....|G-5 3F.F ....|C-5 2FFF ....
 C-4|..|C-2 2A.F ....|--- .... ....|--- .... ....
....|..|R-- .... ....|A-5 3F.F ....|--- .... ....
....|..|--- .... ....|--- .... ....|R-- .... ....
....|..|C-4 AF.F ....|G-5 3F.F ....|--- .... ....
 C-4|..|C-2 2A.F ....|--- .... ....|--- .... ....
....|..|R-- .... ....|F-5 3F.F ....|--- .... ....
....|..|--- .... ....|--- .... ....|--- .... ....
....|..|B-8 JF.F ....|E-5 3F.F ....|C-5 2FFF ....
 C-4|..|C-2 2A.F ....|--- .... ....|--- .... ....
....|..|R-- .... ....|F-5 3F.F ....|--- .... ....
....|..|--- .... ....|--- .... ....|R-- .... ....
....|..|C-4 AF.F ....|E-5 3F.F ....|C-5 2FFA ....
 C-4|..|C-2 2A.F ....|--- .... ....|--- .... ....
....|..|R-- .... ....|D-5 3F.F ....|--- .... ....
....|..|--- .... ....|--- .... ....|R-- .... ....
....|..|B-8 JF.F ....|C-5 3F.F ....|--- .... ....
 C-4|..|C-2 2A.F ....|--- .... ....|--- .... ....
....|..|R-- .... ....|F-5 3F.A ....|--- .... ....
....|..|--- .... ....|--- .... ....|--- .... ....
....|..|C-4 AF.F ....|A#5 3F.7 ....|A#3 2F17 ....
 C-4|..|C-2 2A.F ....|--- .... ....|--- .... ....
....|..|R-- .... ....|A-5 3F.7 ....|--- .... ....
....|..|--- .... ....|--- .... ....|R-- .... ....
....|..|B-8 JF.F ....|G-5 3F.7 ....|C-5 2FF7 ....
 C-4|..|C-2 2A.F ....|--- .... ....|--- .... ....
....|..|R-- .... ....|A-5 3F.7 ....|--- .... ....
....|..|--- .... ....|--- .... ....|R-- .... ....
....|..|C-4 AF.F ....|G-5 3F.7 ....|C-4 2F5F ....
 F-4|..|F-2 2A.F ....|--- .... ....|--- .... ....
....|..|R-- .... ....|F-5 3F.7 ....|--- .... ....
....|..|--- .... ....|--- .... ....|--- .... ....
....|..|B-8 JF.F ....|E-5 3F.7 ....|A-4 2FFF ....
 F-4|..|F-2 2A.F ....|--- .... ....|--- .... ....
....|..|R-- .... ....|F-5 3F.7 ....|--- .... ....
....|..|--- .... ....|--- .... ....|R-- .... ....
....|..|C-4 AF.F ....|F-5 UFFF ....|--- .... ....
 F-4|..|F-2 2A.F ....|--- .... ....|--- .... ....
....|..|R-- .... ....|D-5 3F.7 ....|--- .... ....
....|..|--- .... ....|--- .... ....|--- .... ....
....|..|B-8 JF.F ....|C-5 3F.7 ....|A-4 2FFF ....
 F-4|..|F-2 2A.F ....|--- .... ....|--- .... ....
....|..|R-- .... ....|R-- .... ....|--- .... ....
....|..|--- .... ....|R-- .... ....|R-- .... ....
....|..|C-4 AF.F ....|E-5 UFFF ....|A-4 2FFA ....
 F-4|..|F-2 2A.F ....|--- .... ....|--- .... ....
....|..|R-- .... ....|--- .... ....|--- .... ....
....|..|--- .... ....|--- .... ....|R-- .... ....
....|..|B-8 JF.F ....|F-5 UFFA ....|--- .... ....
 F-4|..|F-2 2A.F ....|--- .... ....|--- .... ....
....|..|R-- .... ....|--- .... ....|--- .... ....
....|..|--- .... ....|R-- .... ....|--- .... ....
....|..|C-4 AF.F ....|F-5 UFFF ....|C-4 2F57 ....
 F-4|..|F-2 2A.F ....|--- .... ....|--- .... ....
....|..|R-- .... ....|R-- .... ....|--- .... ....
....|..|--- .... ....|R-- .... ....|R-- .... ....
....|..|B-8 JF.F ....|C-5 UFFF ....|A-4 2FF7 ....
 F-4|..|F-2 2A.F ....|--- .... ....|--- .... ....
....|..|R-- .... ....|--- .... ....|--- .... ....
....|..|--- .... ....|--- .... ....|R-- .... ....

[Pattern6]
....|..|C-4 AF.F ....|F-5 UFF7 ....|C-4 2F1F ....
 E-4|..|E-2 2A.F ....|--- .... ....|--- .... ....
....|..|R-- .... ....|--- .... ....|--- .... ....
....|..|--- .... ....|R-- .... ....|--- .... ....
....|..|B-8 JF.F ....|F-5 UFFA ....|C-5 2FFF ....
 E-4|..|E-2 2A.F ....|--- .... ....|--- .... ....
....|..|R-- .... ....|--- .... ....|--- .... ....
....|..|--- .... ....|R-- .... ....|R-- .... ....
....|..|C-4 AF.F ....|E-5 UFF7 ....|--- .... ....
 E-4|..|E-2 2A.F ....|--- .... ....|--- .... ....
....|..|R-- .... ....|--- .... ....|--- .... ....
....|..|--- .... ....|--- .... ....|--- .... ....
....|..|B-8 JF.F ....|--- .... ....|C-5 2FFF ....
 E-4|..|E-2 2A.F ....|--- .... ....|--- .... ....
....|..|R-- .... ....|--- .... ....|--- .... ....
....|..|--- .... ....|R-- .... ....|--- .... ....
....|..|C-4 AF.F ....|F-5 UFF7 ....|C-5 2FFA ....
 E-4|..|E-2 2A.F ....|--- .... ....|--- .... ....
....|..|R-- .... ....|--- .... ....|--- .... ....
....|..|--- .... ....|R-- .... ....|R-- .... ....
....|..|B-8 JF.F ....|C-5 UFF7 ....|--- .... ....
 E-4|..|E-2 2A.F ....|--- .... ....|--- .... ....
....|..|R-- .... ....|--- .... ....|--- .... ....
....|..|--- .... ....|--- .... ....|--- .... ....
....|..|C-4 AF.F ....|--- .... ....|C-4 2F17 ....
 E-4|..|E-2 2A.F ....|--- .... ....|--- .... ....
....|..|R-- .... ....|--- .... ....|--- .... ....
....|..|--- .... ....|--- .... ....|--- .... ....
....|..|B-8 JF.F ....|R-- .... ....|C-5 2FF7 ....
 E-4|..|E-2 2A.F ....|--- .... ....|--- .... ....
....|..|R-- .... ....|--- .... ....|--- .... ....
....|..|--- .... ....|--- .... ....|R-- .... ....
....|..|C-4 AF.F ....|--- .... ....|D-4 2F6F ....
 D-4|..|D-2 2A.F ....|--- .... ....|--- .... ....
....|..|R-- .... ....|--- .... ....|--- .... ....
....|..|--- .... ....|--- .... ....|--- .... ....
....|..|B-8 JF.F ....|--- .... ....|A-4 2FFF ....
 D-4|..|D-2 2A.F ....|--- .... ....|--- .... ....
....|..|R-- .... ....|--- .... ....|--- .... ....
....|..|--- .... ....|--- .... ....|R-- .... ....
....|..|C-4 AF.F ....|F-5 UFFF ....|R-- .... ....
 D-4|..|D-2 2A.F ....|--- .... ....|--- .... ....
....|..|R-- .... ....|--- .... ....|--- .... ....
....|..|--- .... ....|--- .... ....|--- .... ....
....|..|B-8 JF.F ....|--- .... ....|A-4 2FFF ....
 D-4|..|D-2 2A.F ....|--- .... ....|--- .... ....
....|..|R-- .... ....|--- .... ....|--- .... ....
....|..|--- .... ....|R-- .... ....|--- .... ....
....|..|C-4 AF.F ....|E-5 UFFF ....|A-4 2FFA ....
 D-4|..|D-2 2A.F ....|--- .... ....|--- .... ....
....|..|R-- .... ....|--- .... ....|--- .... ....
....|..|--- .... ....|--- .... ....|R-- .... ....
....|..|B-8 JF.F ....|F-5 UFFA ....|--- .... ....
 D-4|..|D-2 2A.F ....|--- .... ....|--- .... ....
....|..|R-- .... ....|--- .... ....|--- .... ....
....|..|--- .... ....|R-- .... ....|--- .... ....
....|..|C-4 AF.F ....|F-5 UFFF ....|D-4 2F67 ....
 D-4|..|D-2 2A.F ....|--- .... ....|--- .... ....
....|..|R-- .... ....|--- .... ....|--- .... ....
....|..|--- .... ....|R-- .... ....|--- .... ....
....|..|B-8 JF.F ....|A-5 UFFF ....|A-4 2FF7 ....
 D-4|..|D-2 2A.F ....|--- .... ....|--- .... ....
....|..|R-- .... ....|--- .... ....|--- .... ....
....|..|--- .... ....|--- .... ....|R-- .... ....

[Pattern7]
....|..|C-4 AF.F ....|F-5 UFF7 ....|C-4 2F4F ....
 C-4|..|C-2 2A.F ....|--- .... ....|--- .... ....
....|..|R-- .... ....|--- .... ....|--- .... ....
....|..|--- .... ....|R-- .... ....|--- .... ....
....|..|B-8 JF.F ....|F-5 UFFA ....|A-4 2FFF ....
 C-4|..|C-2 2A.F ....|--- .... ....|--- .... ....
....|..|R-- .... ....|--- .... ....|--- .... ....
....|..|--- .... ....|R-- .... ....|R-- .... ....
....|..|C-4 AF.F ....|E-5 UFF7 ....|R-- .... ....
 C-4|..|C-2 2A.F ....|--- .... ....|--- .... ....
....|..|R-- .... ....|--- .... ....|--- .... ....
....|..|--- .... ....|--- .... ....|--- .... ....
....|..|B-8 JF.F ....|--- .... ....|A-4 2FFF ....
 C-4|..|C-2 2A.F ....|--- .... ....|--- .... ....
....|..|R-- .... ....|--- .... ....|--- .... ....
....|..|--- .... ....|R-- .... ....|A-4 2FFF ....
....|..|C-4 AF.F ....|F-5 UFF7 ....|A-4 2FFA ....
 C-4|..|C-2 2A.F ....|--- .... ....|--- .... ....
....|..|R-- .... ....|--- .... ....|--- .... ....
....|..|--- .... ....|--- .... ....|R-- .... ....
....|..|B-8 JF.F ....|A-5 UFF7 ....|--- .... ....
 C-4|..|C-2 2A.F ....|--- .... ....|--- .... ....
....|..|R-- .... ....|--- .... ....|--- .... ....
....|..|--- .... ....|--- .... ....|--- .... ....
....|..|C-4 AF.F ....|--- .... ....|C-4 2F47 ....
 C-4|..|C-2 2A.F ....|--- .... ....|--- .... ....
....|..|R-- .... ....|--- .... ....|--- .... ....
....|..|--- .... ....|--- .... ....|A-4 2FFA ....
....|..|B-8 JF.F ....|R-- .... ....|A-4 2FF7 ....
 C-4|..|C-2 2A.F ....|--- .... ....|--- .... ....
....|..|R-- .... ....|--- .... ....|--- .... ....
....|..|--- .... ....|--- .... ....|R-- .... ....
....|..|C-4 AF.F ....|A#5 UFFF ....|A#3 2F1F ....
 A#3|..|A#1 2A.F ....|--- .... ....|--- .... ....
....|..|R-- .... ....|--- .... ....|--- .... ....
....|..|--- .... ....|--- .... ....|--- .... ....
....|..|B-8 JF.F ....|--- .... ....|A#4 2FFF ....
 A#3|..|A#1 2A.F ....|--- .... ....|--- .... ....
....|..|R-- .... ....|--- .... ....|--- .... ....
....|..|--- .... ....|R-- .... ....|A-4 2FF7 ....
....|..|C-4 AF.F ....|A-5 UFFF ....|R-- .... ....
 A#3|..|A#1 2A.F ....|--- .... ....|--- .... ....
....|..|R-- .... ....|--- .... ....|--- .... ....
....|..|--- .... ....|--- .... ....|--- .... ....
....|..|B-8 JF.F ....|A#5 UFFA ....|A#4 2FFF ....
 A#3|..|A#1 2A.F ....|--- .... ....|--- .... ....
....|..|R-- .... ....|--- .... ....|--- .... ....
....|..|--- .... ....|--- .... ....|R-- .... ....
....|..|C-4 AF.F ....|G-5 UFFF ....|A#4 2FFA ....
 A#3|..|A#1 2A.F ....|--- .... ....|--- .... ....
....|..|R-- .... ....|--- .... ....|--- .... ....
....|..|--- .... ....|R-- .... ....|R-- .... ....
....|..|B-8 JF.F ....|A-5 UFFA ....|--- .... ....
 A#3|..|A#1 2A.F ....|--- .... ....|--- .... ....
....|..|R-- .... ....|--- .... ....|--- .... ....
....|..|--- .... ....|R-- .... ....|--- .... ....
....|..|C-4 AF.F ....|F-5 UFFF ....|A#3 2F17 ....
 A#3|..|A#1 2A.F ....|--- .... ....|--- .... ....
....|..|R-- .... ....|--- .... ....|--- .... ....
....|..|--- .... ....|--- .... ....|R-- .... ....
....|..|B-8 JF.F ....|A#5 UFFF ....|A#4 2FF7 ....
 A#3|..|A#1 2A.F ....|--- .... ....|--- .... ....
....|..|R-- .... ....|--- .... ....|--- .... ....
....|..|--- .... ....|R-- .... ....|R-- .... ....

[Pattern8]
....|..|C-4 AF.F ....|A-5 UFF7 ....|A#3 2F6F ....
 A#3|..|A#1 2A.F ....|--- .... ....|--- .... ....
....|..|R-- .... ....|--- .... ....|--- .... ....
....|..|--- .... ....|R-- .... ....|--- .... ....
....|..|B-8 JF.F ....|F-5 UFFA ....|A#4 2FFF ....
 A#3|..|A#1 2A.F ....|--- .... ....|--- .... ....
....|..|R-- .... ....|--- .... ....|--- .... ....
....|..|--- .... ....|R-- .... ....|R-- .... ....
....|..|C-4 AF.F ....|A-5 UFFF ....|--- .... ....
 A#3|..|A#1 2A.F ....|--- .... ....|--- .... ....
....|..|R-- .... ....|--- .... ....|--- .... ....
....|..|--- .... ....|--- .... ....|--- .... ....
....|..|B-8 JF.F ....|--- .... ....|A#4 2FFF ....
 A#3|..|A#1 2A.F ....|--- .... ....|--- .... ....
....|..|R-- .... ....|--- .... ....|--- .... ....
....|..|--- .... ....|R-- .... ....|R-- .... ....
....|..|C-4 AF.F ....|G-5 UFFF ....|A#4 2FFA ....
 A#3|..|A#1 2A.F ....|--- .... ....|--- .... ....
....|..|R-- .... ....|--- .... ....|--- .... ....
....|..|--- .... ....|R-- .... ....|R-- .... ....
....|..|B-8 JF.F ....|A#5 UFF7 ....|--- .... ....
 A#3|..|A#1 2A.F ....|--- .... ....|--- .... ....
....|..|R-- .... ....|--- .... ....|--- .... ....
....|..|--- .... ....|R-- .... ....|--- .... ....
....|..|C-4 AF.F ....|F-5 UFFF ....|A#3 2F67 ....
 A#3|..|A#1 2A.F ....|--- .... ....|--- .... ....
....|..|R-- .... ....|--- .... ....|--- .... ....
....|..|--- .... ....|R-- .... ....|R-- .... ....
....|..|B-8 JF.F ....|G-5 UFFA ....|A#4 2FF7 ....
 A#3|..|A#1 2A.F ....|--- .... ....|--- .... ....
....|..|R-- .... ....|--- .... ....|--- .... ....
....|..|--- .... ....|R-- .... ....|R-- .... ....
....|..|C-4 AF.F ....|F-5 UFFF ....|D-4 2F2F ....
 C-4|..|C-2 2A.F ....|--- .... ....|--- .... ....
....|..|R-- .... ....|--- .... ....|--- .... ....
....|..|--- .... ....|R-- .... ....|--- .... ....
....|..|B-8 JF.F ....|F-5 UFFA ....|A#4 2FFF ....
 C-4|..|C-2 2A.F ....|--- .... ....|--- .... ....
....|..|R-- .... ....|--- .... ....|--- .... ....
....|..|--- .... ....|R-- .... ....|R-- .... ....
....|..|C-4 AF.F ....|G-5 UFF7 ....|--- .... ....
 C-4|..|C-2 2A.F ....|--- .... ....|--- .... ....
....|..|R-- .... ....|--- .... ....|--- .... ....
....|..|--- .... ....|R-- .... ....|--- .... ....
....|..|B-8 JF.F ....|G-5 UFFF ....|A#4 2FFF ....
 C-4|..|C-2 2A.F ....|--- .... ....|--- .... ....
....|..|R-- .... ....|R-- .... ....|--- .... ....
....|..|--- .... ....|R-- .... ....|R-- .... ....
....|..|C-4 AF.F ....|G-5 UFFF ....|A#4 2FFA ....
 C-4|..|C-2 2A.F ....|--- .... ....|--- .... ....
....|..|R-- .... ....|--- .... ....|--- .... ....
....|..|--- .... ....|--- .... ....|R-- .... ....
....|..|B-8 JF.F ....|--- .... ....|--- .... ....
 C-4|..|C-2 2A.F ....|--- .... ....|--- .... ....
....|..|R-- .... ....|--- .... ....|--- .... ....
....|..|--- .... ....|R-- .... ....|--- .... ....
....|..|C-4 AF.F ....|F-5 UFF7 ....|D-4 2F27 ....
 C-4|..|C-2 2A.F ....|--- .... ....|--- .... ....
....|..|R-- .... ....|R-- .... ....|--- .... ....
....|..|--- .... ....|--- .... ....|R-- .... ....
....|..|B-8 JF.F ....|G-5 UFFA ....|A#4 2FF7 ....
 C-4|..|C-2 2A.F ....|--- .... ....|--- .... ....
....|..|R-- .... ....|--- .... ....|--- .... ....
....|..|--- .... ....|--- .... ....|R-- .... ....

[Pattern9]
....|..|C-4 AF.F ....|R-- .... ....|D-4 2F2F ....
 C-4|..|C-2 2A.F ....|--- .... ....|--- .... ....
....|..|R-- .... ....|--- .... ....|--- .... ....
....|..|--- .... ....|R-- .... ....|--- .... ....
....|..|B-8 JF.F ....|G-5 UFF7 ....|A#4 2FFF ....
 C-4|..|C-2 2A.F ....|--- .... ....|--- .... ....
....|..|R-- .... ....|R-- .... ....|--- .... ....
....|..|--- .... ....|--- .... ....|R-- .... ....
....|..|C-4 AF.F ....|G-5 UFF7 ....|--- .... ....
 C-4|..|C-2 2A.F ....|--- .... ....|--- .... ....
....|..|R-- .... ....|--- .... ....|--- .... ....
....|..|--- .... ....|--- .... ....|--- .... ....
....|..|B-8 JF.F ....|R-- .... ....|C-5 2FFF ....
 C-4|..|C-2 2A.F ....|--- .... ....|--- .... ....
....|..|R-- .... ....|--- .... ....|--- .... ....
....|..|--- .... ....|--- .... ....|R-- .... ....
....|..|C-4 AF.F ....|--- .... ....|A#4 2FFA ....
 C-4|..|C-2 2A.F ....|--- .... ....|--- .... ....
....|..|R-- .... ....|--- .... ....|--- .... ....
....|..|--- .... ....|--- .... ....|R-- .... ....
....|..|B-8 JF.F ....|--- .... ....|--- .... ....
 C-4|..|C-2 2A.F ....|--- .... ....|--- .... ....
....|..|R-- .... ....|--- .... ....|--- .... ....
....|..|--- .... ....|--- .... ....|--- .... ....
....|..|C-4 AF.F ....|R-- .... ....|D-4 2F27 ....
 C-4|..|C-2 2A.F ....|--- .... ....|--- .... ....
....|..|R-- .... ....|--- .... ....|--- .... ....
....|..|--- .... ....|--- .... ....|R-- .... ....
....|..|B-8 JF.F ....|--- .... ....|A#4 2FF7 ....
 C-4|..|C-2 2A.F ....|--- .... ....|--- .... ....
....|..|R-- .... ....|--- .... ....|--- .... ....
....|..|--- .... ....|--- .... ....|R-- .... ....
....|..|C-4 AF.F ....|--- .... ....|C-4 2F5F ....
 F-4|..|F-2 2A.F ....|--- .... ....|--- .... ....
....|..|R-- .... ....|--- .... ....|--- .... ....
....|..|--- .... ....|--- .... ....|--- .... ....
....|..|B-8 JF.F ....|--- .... ....|A-4 2FFF ....
 F-4|..|F-2 2A.F ....|--- .... ....|--- .... ....
....|..|R-- .... ....|--- .... ....|--- .... ....
....|..|--- .... ....|--- .... ....|R-- .... ....
....|..|C-4 AF.F ....|F-5 UFFF ....|--- .... ....
 F-4|..|F-2 2A.F ....|--- .... ....|--- .... ....
....|..|R-- .... ....|--- .... ....|--- .... ....
....|..|--- .... ....|--- .... ....|--- .... ....
....|..|B-8 JF.F ....|--- .... ....|A-4 2FFF ....
 F-4|..|F-2 2A.F ....|--- .... ....|--- .... ....
....|..|R-- .... ....|--- .... ....|--- .... ....
....|..|--- .... ....|R-- .... ....|R-- .... ....
....|..|C-4 AF.F ....|E-5 UFFF ....|A-4 2FFA ....
 F-4|..|F-2 2A.F ....|--- .... ....|--- .... ....
....|..|R-- .... ....|--- .... ....|--- .... ....
....|..|--- .... ....|--- .... ....|R-- .... ....
....|..|B-8 JF.F ....|F-5 UFFA ....|--- .... ....
 F-4|..|F-2 2A.F ....|--- .... ....|--- .... ....
....|..|R-- .... ....|--- .... ....|--- .... ....
....|..|--- .... ....|R-- .... ....|--- .... ....
....|..|C-4 AF.F ....|F-5 UFFF ....|C-4 2F57 ....
 F-4|..|F-2 2A.F ....|--- .... ....|--- .... ....
....|..|R-- .... ....|--- .... ....|--- .... ....
....|..|--- .... ....|R-- .... ....|R-- .... ....
....|..|B-8 JF.F ....|C-5 UFFF ....|A-4 2FF7 ....
 F-4|..|F-2 2A.F ....|--- .... ....|--- .... ....
....|..|R-- .... ....|--- .... ....|--- .... ....
....|..|--- .... ....|--- .... ....|R-- .... ....

[Pattern10]
....|..|C-4 AF.F ....|F-5 UFF7 ....|C-4 2F1F ....
 E-4|..|E-2 2A.F ....|--- .... ....|--- .... ....
....|..|R-- .... ....|--- .... ....|--- .... ....
....|..|--- .... ....|R-- .... ....|--- .... ....
....|..|B-8 JF.F ....|F-5 UFFA ....|C-5 2FFF ....
 E-4|..|E-2 2A.F ....|--- .... ....|--- .... ....
....|..|R-- .... ....|--- .... ....|--- .... ....
....|..|--- .... ....|R-- .... ....|R-- .... ....
....|..|C-4 AF.F ....|E-5 UFF7 ....|--- .... ....
 E-4|..|E-2 2A.F ....|--- .... ....|--- .... ....
....|..|R-- .... ....|--- .... ....|--- .... ....
....|..|--- .... ....|--- .... ....|--- .... ....
....|..|B-8 JF.F ....|--- .... ....|C-5 2FFF ....
 E-4|..|E-2 2A.F ....|--- .... ....|--- .... ....
....|..|R-- .... ....|--- .... ....|--- .... ....
....|..|--- .... ....|R-- .... ....|--- .... ....
....|..|C-4 AF.F ....|F-5 UFF7 ....|C-5 2FFA ....
 E-4|..|E-2 2A.F ....|--- .... ....|--- .... ....
....|..|R-- .... ....|--- .... ....|--- .... ....
....|..|--- .... ....|--- .... ....|R-- .... ....
....|..|B-8 JF.F ....|C-5 UFF7 ....|--- .... ....
 E-4|..|E-2 2A.F ....|--- .... ....|--- .... ....
....|..|R-- .... ....|--- .... ....|--- .... ....
....|..|--- .... ....|--- .... ....|--- .... ....
....|..|C-4 AF.F ....|--- .... ....|C-4 2F17 ....
 E-4|..|E-2 2A.F ....|--- .... ....|--- .... ....
....|..|R-- .... ....|--- .... ....|--- .... ....
....|..|--- .... ....|--- .... ....|--- .... ....
....|..|B-8 JF.F ....|R-- .... ....|C-5 2FF7 ....
 E-4|..|E-2 2A.F ....|--- .... ....|--- .... ....
....|..|R-- .... ....|--- .... ....|--- .... ....
....|..|--- .... ....|--- .... ....|R-- .... ....
....|..|C-4 AF.F ....|--- .... ....|D-4 2F6F ....
 D-4|..|D-2 2A.F ....|--- .... ....|--- .... ....
....|..|R-- .... ....|--- .... ....|--- .... ....
....|..|--- .... ....|--- .... ....|--- .... ....
....|..|B-8 JF.F ....|--- .... ....|A-4 2FFF ....
 D-4|..|D-2 2A.F ....|--- .... ....|--- .... ....
....|..|R-- .... ....|--- .... ....|--- .... ....
....|..|--- .... ....|--- .... ....|R-- .... ....
....|..|C-4 AF.F ....|F-5 UFFF ....|R-- .... ....
 D-4|..|D-2 2A.F ....|--- .... ....|--- .... ....
....|..|R-- .... ....|--- .... ....|--- .... ....
....|..|--- .... ....|--- .... ....|--- .... ....
....|..|B-8 JF.F ....|--- .... ....|A-4 2FFF ....
 D-4|..|D-2 2A.F ....|--- .... ....|--- .... ....
....|..|R-- .... ....|--- .... ....|--- .... ....
....|..|--- .... ....|R-- .... ....|R-- .... ....
....|..|C-4 AF.F ....|E-5 UFFF ....|A-4 2FFA ....
 D-4|..|D-2 2A.F ....|--- .... ....|--- .... ....
....|..|R-- .... ....|--- .... ....|--- .... ....
....|..|--- .... ....|--- .... ....|R-- .... ....
....|..|B-8 JF.F ....|F-5 UFFA ....|--- .... ....
 D-4|..|D-2 2A.F ....|--- .... ....|--- .... ....
....|..|R-- .... ....|--- .... ....|--- .... ....
....|..|--- .... ....|R-- .... ....|--- .... ....
....|..|C-4 AF.F ....|F-5 UFFF ....|D-4 2F67 ....
 D-4|..|D-2 2A.F ....|--- .... ....|--- .... ....
....|..|R-- .... ....|--- .... ....|--- .... ....
....|..|--- .... ....|R-- .... ....|R-- .... ....
....|..|B-8 JF.F ....|C-6 UFFF ....|A-4 2FF7 ....
 D-4|..|D-2 2A.F ....|--- .... ....|--- .... ....
....|..|R-- .... ....|--- .... ....|--- .... ....
....|..|--- .... ....|--- .... ....|R-- .... ....

[Pattern11]
....|..|C-4 AF.F ....|F-5 UFF7 ....|C-4 2F7F ....
 C-4|..|C-2 2A.F ....|--- .... ....|--- .... ....
....|..|R-- .... ....|--- .... ....|--- .... ....
....|..|--- .... ....|R-- .... ....|--- .... ....
....|..|B-8 JF.F ....|F-5 UFFA ....|C-5 2FFF ....
 C-4|..|C-2 2A.F ....|--- .... ....|--- .... ....
....|..|R-- .... ....|--- .... ....|--- .... ....
....|..|--- .... ....|R-- .... ....|C-5 2FFF ....
....|..|C-4 AF.F ....|E-5 UFF7 ....|R-- .... ....
 C-4|..|C-2 2A.F ....|--- .... ....|--- .... ....
....|..|R-- .... ....|--- .... ....|--- .... ....
....|..|--- .... ....|--- .... ....|--- .... ....
....|..|B-8 JF.F ....|--- .... ....|C-5 2FFF ....
 C-4|..|C-2 2A.F ....|--- .... ....|--- .... ....
....|..|R-- .... ....|--- .... ....|--- .... ....
....|..|--- .... ....|R-- .... ....|R-- .... ....
....|..|C-4 AF.F ....|F-5 UFF7 ....|D-4 2F1F ....
 D-4|..|D-2 2A.F ....|--- .... ....|--- .... ....
....|..|R-- .... ....|--- .... ....|--- .... ....
....|..|--- .... ....|--- .... ....|C-5 2FFA ....
....|..|B-8 JF.F ....|C-6 UFF7 ....|R-- .... ....
 D-4|..|D-2 2A.F ....|--- .... ....|--- .... ....
....|..|R-- .... ....|--- .... ....|--- .... ....
....|..|--- .... ....|--- .... ....|--- .... ....
....|..|C-4 AF.F ....|--- .... ....|C-4 2F77 ....
 D-4|..|D-2 2A.F ....|--- .... ....|--- .... ....
....|..|R-- .... ....|--- .... ....|--- .... ....
....|..|--- .... ....|--- .... ....|R-- .... ....
....|..|B-8 JF.F ....|R-- .... ....|C-5 2FF7 ....
 D-4|..|D-2 2A.F ....|--- .... ....|--- .... ....
....|..|R-- .... ....|--- .... ....|--- .... ....
....|..|--- .... ....|--- .... ....|C-5 2FF7 ....
....|..|C-4 AF.F ....|A#5 UFFF ....|D-4 2F8F ....
 G-4|..|G-2 2A.F ....|--- .... ....|--- .... ....
....|..|R-- .... ....|--- .... ....|--- .... ....
....|..|--- .... ....|R-- .... ....|--- .... ....
....|..|B-8 JF.F ....|A#5 UFFF ....|A#4 2FFF ....
 G-4|..|G-2 2A.F ....|--- .... ....|--- .... ....
....|..|R-- .... ....|--- .... ....|--- .... ....
....|..|--- .... ....|R-- .... ....|R-- .... ....
....|..|C-4 AF.F ....|A#5 UFFF ....|D-4 2F17 ....
 G-4|..|G-2 2A.F ....|--- .... ....|--- .... ....
....|..|R-- .... ....|--- .... ....|--- .... ....
....|..|--- .... ....|R-- .... ....|--- .... ....
....|..|B-8 JF.F ....|A#5 UFFF ....|A#4 2FFF ....
 G-4|..|G-2 2A.F ....|--- .... ....|--- .... ....
....|..|R-- .... ....|R-- .... ....|--- .... ....
....|..|--- .... ....|R-- .... ....|R-- .... ....
....|..|C-4 AF.F ....|A#5 UFFF ....|A#4 2FFA ....
 G-4|..|G-2 2A.F ....|--- .... ....|--- .... ....
....|..|R-- .... ....|--- .... ....|--- .... ....
....|..|--- .... ....|R-- .... ....|R-- .... ....
....|..|B-8 JF.F ....|A-5 UFFF ....|--- .... ....
 G-4|..|G-2 2A.F ....|--- .... ....|--- .... ....
....|..|R-- .... ....|--- .... ....|--- .... ....
....|..|--- .... ....|R-- .... ....|--- .... ....
....|..|C-4 AF.F ....|G-5 UFFF ....|D-4 2F87 ....
 G-4|..|G-2 2A.F ....|--- .... ....|--- .... ....
....|..|R-- .... ....|R-- .... ....|--- .... ....
....|..|--- .... ....|R-- .... ....|R-- .... ....
....|..|B-8 JF.F ....|A#5 UFFF ....|A#4 2FF7 ....
 G-4|..|G-2 2A.F ....|--- .... ....|--- .... ....
....|..|R-- .... ....|--- .... ....|--- .... ....
....|..|--- .... ....|R-- .... ....|R-- .... ....

[Pattern12]
....|..|C-4 AF.F ....|G-4 3F.F ....|C#4 2F4F ....
 A#3|..|A#1 2A.F ....|--- .... ....|--- .... ....
....|..|R-- .... ....|--- .... ....|--- .... ....
....|..|--- .... ....|R-- .... ....|--- .... ....
....|..|B-8 JF.F ....|A#5 UFF7 ....|A#4 2FFF ....
 A#3|..|A#1 2A.F ....|--- .... ....|--- .... ....
....|..|R-- .... ....|R-- .... ....|--- .... ....
....|..|--- .... ....|--- .... ....|R-- .... ....
....|..|C-4 AF.F ....|A#5 UFF7 ....|--- .... ....
 A#3|..|A#1 2A.F ....|--- .... ....|--- .... ....
....|..|R-- .... ....|--- .... ....|--- .... ....
....|..|--- .... ....|--- .... ....|--- .... ....
....|..|B-8 JF.F ....|A-5 UFF7 ....|A#4 2FFF ....
 A#3|..|A#1 2A.F ....|--- .... ....|--- .... ....
....|..|R-- .... ....|--- .... ....|--- .... ....
....|..|--- .... ....|--- .... ....|R-- .... ....
....|..|C-4 AF.F ....|G-5 UFF7 ....|A#4 2FFA ....
 A#3|..|A#1 2A.F ....|--- .... ....|--- .... ....
....|..|R-- .... ....|--- .... ....|--- .... ....
....|..|--- .... ....|--- .... ....|R-- .... ....
....|..|B-8 JF.F ....|G-5 UFFF ....|--- .... ....
 A#3|..|A#1 2A.F ....|--- .... ....|--- .... ....
....|..|R-- .... ....|--- .... ....|--- .... ....
....|..|--- .... ....|--- .... ....|--- .... ....
....|..|C-4 AF.F ....|A-5 UFFF ....|C#4 2F47 ....
 A#3|..|A#1 2A.F ....|--- .... ....|--- .... ....
....|..|R-- .... ....|--- .... ....|--- .... ....
....|..|--- .... ....|R-- .... ....|R-- .... ....
....|..|B-8 JF.F ....|A#5 UFFF ....|A#4 2FF7 ....
 A#3|..|A#1 2A.F ....|--- .... ....|--- .... ....
....|..|R-- .... ....|--- .... ....|--- .... ....
....|..|--- .... ....|R-- .... ....|R-- .... ....
....|..|C-4 AF.F ....|A-5 UFFF ....|C-4 2F5F ....
 F-4|..|F-2 2A.F ....|A-4 3F.F ....|--- .... ....
....|..|R-- .... ....|--- .... ....|--- .... ....
....|..|--- .... ....|--- .... ....|--- .... ....
....|..|B-8 JF.F ....|A-5 UFFA ....|A-4 2FFF ....
 F-4|..|F-2 2A.F ....|--- .... ....|--- .... ....
....|..|R-- .... ....|R-- .... ....|--- .... ....
....|..|--- .... ....|R-- .... ....|R-- .... ....
....|..|C-4 AF.F ....|A-5 UFFF ....|--- .... ....
 F-4|..|F-2 2A.F ....|--- .... ....|--- .... ....
....|..|R-- .... ....|--- .... ....|--- .... ....
....|..|--- .... ....|R-- .... ....|--- .... ....
....|..|B-8 JF.F ....|G-5 UFF7 ....|A-4 2FFF ....
 F-4|..|F-2 2A.F ....|A-4 3F.A ....|--- .... ....
....|..|R-- .... ....|--- .... ....|--- .... ....
....|..|--- .... ....|R-- .... ....|F-4 2FFF ....
....|..|C-4 AF.F ....|A-5 UFFF ....|A-4 2FFA ....
 F-4|..|F-2 2A.F ....|--- .... ....|--- .... ....
....|..|R-- .... ....|R-- .... ....|--- .... ....
....|..|--- .... ....|R-- .... ....|R-- .... ....
....|..|B-8 JF.F ....|G-5 UFFF ....|--- .... ....
 F-4|..|F-2 2A.F ....|--- .... ....|--- .... ....
....|..|R-- .... ....|--- .... ....|--- .... ....
....|..|--- .... ....|R-- .... ....|--- .... ....
....|..|C-4 AF.F ....|F-5 UFFF ....|C-4 2F57 ....
 F-4|..|F-2 2A.F ....|A-4 3F.7 ....|--- .... ....
....|..|R-- .... ....|--- .... ....|--- .... ....
....|..|--- .... ....|R-- .... ....|F-4 2FFA ....
....|..|B-8 JF.F ....|A-5 UFFF ....|A-4 2FF7 ....
 F-4|..|F-2 2A.F ....|--- .... ....|--- .... ....
....|..|R-- .... ....|R-- .... ....|--- .... ....
....|..|--- .... ....|--- .... ....|R-- .... ....

[Pattern13]
....|..|C-4 AF.F ....|A-5 UFF7 ....|D-4 2F1F ....
 D-4|..|D-2 2A.F ....|--- .... ....|--- .... ....
....|..|R-- .... ....|--- .... ....|--- .... ....
....|..|--- .... ....|--- .... ....|--- .... ....
....|..|B-8 JF.F ....|F-5 UFFA ....|A-4 2FFF ....
 D-4|..|D-2 2A.F ....|--- .... ....|--- .... ....
....|..|R-- .... ....|--- .... ....|--- .... ....
....|..|--- .... ....|R-- .... ....|F-4 2FF7 ....
....|..|C-4 AF.F ....|A-4 3F.F ....|R-- .... ....
 D-4|..|D-2 2A.F ....|--- .... ....|--- .... ....
....|..|R-- .... ....|--- .... ....|--- .... ....
....|..|--- .... ....|--- .... ....|--- .... ....
....|..|B-8 JF.F ....|A#4 3F.F ....|A-4 2FFF ....
 D-4|..|D-2 2A.F ....|--- .... ....|--- .... ....
....|..|R-- .... ....|--- .... ....|--- .... ....
....|..|--- .... ....|--- .... ....|R-- .... ....
....|..|C-4 AF.F ....|C-5 3F.F ....|A-4 2FFA ....
 D-4|..|D-2 2A.F ....|R-- .... ....|--- .... ....
....|..|R-- .... ....|--- .... ....|--- .... ....
....|..|--- .... ....|R-- .... ....|R-- .... ....
....|..|C-4 LF.F ....|D#5 3F.F ....|--- .... ....
 D-4|..|D-2 2A.F ....|--- .... ....|--- .... ....
....|..|R-- .... ....|--- .... ....|--- .... ....
....|..|--- .... ....|--- .... ....|--- .... ....
....|..|C-4 AF.F ....|D-5 3F.F ....|D-4 2F17 ....
 D-4|..|D-2 2A.F ....|--- .... ....|--- .... ....
....|..|R-- .... ....|E-5 3F.F ....|--- .... ....
....|..|--- .... ....|--- .... ....|R-- .... ....
....|..|C-3 RF.F ....|F#5 3F.F ....|A-4 2FF7 ....
 D-4|..|D-2 2A.F ....|R-- .... ....|--- .... ....
....|..|R-- .... ....|A-5 3F.F ....|--- .... ....
....|..|--- .... ....|--- .... ....|R-- .... ....
....|..|C-4 AF.F ....|D-5 UFFF ....|A#3 2F1F ....
 A#3|..|A#1 2A.F ....|--- .... ....|--- .... ....
....|..|R-- .... ....|--- .... ....|--- .... ....
....|..|--- .... ....|--- .... ....|--- .... ....
....|..|B-8 JF.F ....|A#4 3F.7 ....|A#4 2FFF ....
 A#3|..|A#1 2A.F ....|--- .... ....|--- .... ....
....|..|R-- .... ....|E-5 3F.A ....|--- .... ....
....|..|--- .... ....|--- .... ....|R-- .... ....
....|..|C-4 AF.F ....|E-5 UFFF ....|--- .... ....
 A#3|..|A#1 2A.F ....|R-- .... ....|--- .... ....
....|..|R-- .... ....|A-5 3F.A ....|--- .... ....
....|..|--- .... ....|--- .... ....|--- .... ....
....|..|B-8 JF.F ....|D#5 3F.7 ....|A#4 2FFF ....
 A#3|..|A#1 2A.F ....|--- .... ....|--- .... ....
....|..|R-- .... ....|--- .... ....|--- .... ....
....|..|--- .... ....|R-- .... ....|--- .... ....
....|..|C-4 AF.F ....|F-5 UFFF ....|A#4 2FFA ....
 A#3|..|A#1 2A.F ....|--- .... ....|--- .... ....
....|..|R-- .... ....|E-5 3F.7 ....|--- .... ....
....|..|--- .... ....|--- .... ....|R-- .... ....
....|..|B-8 JF.F ....|F#5 3F.7 ....|--- .... ....
 A#3|..|A#1 2A.F ....|--- .... ....|--- .... ....
....|..|R-- .... ....|A-5 3F.7 ....|--- .... ....
....|..|--- .... ....|R-- .... ....|--- .... ....
....|..|C-4 AF.F ....|G-5 UFFF ....|A#3 2F17 ....
 A#3|..|A#1 2A.F ....|--- .... ....|--- .... ....
....|..|R-- .... ....|--- .... ....|--- .... ....
....|..|--- .... ....|R-- .... ....|--- .... ....
....|..|B-8 JF.F ....|D-5 UFFF ....|A#4 2FF7 ....
 A#3|..|A#1 2A.F ....|--- .... ....|D-4 2F9F ....
....|..|R-- .... ....|--- .... ....|--- .... ....
....|..|--- .... ....|--- .... ....|R-- .... ....

[Pattern14]
....|..|C-4 AF.F ....|E-5 UFF7 ....|A#3 2F1F ....
 A#3|..|A#1 2A.F ....|--- .... ....|--- .... ....
....|..|R-- .... ....|--- .... ....|--- .... ....
....|..|--- .... ....|R-- .... ....|--- .... ....
....|..|B-8 JF.F ....|D-5 UFFF ....|A#4 2FFF ....
 A#3|..|A#1 2A.F ....|--- .... ....|--- .... ....
....|..|R-- .... ....|--- .... ....|--- .... ....
....|..|--- .... ....|R-- .... ....|R-- .... ....
....|..|C-4 AF.F ....|E-5 UFFF ....|R-- .... ....
 A#3|..|A#1 2A.F ....|--- .... ....|D-4 2F9A ....
....|..|R-- .... ....|--- .... ....|--- .... ....
....|..|--- .... ....|--- .... ....|--- .... ....
....|..|B-8 JF.F ....|--- .... ....|A#4 2FFF ....
 A#3|..|A#1 2A.F ....|--- .... ....|--- .... ....
....|..|R-- .... ....|--- .... ....|--- .... ....
....|..|--- .... ....|R-- .... ....|R-- .... ....
....|..|C-4 AF.F ....|F-5 UFFF ....|A#4 2FFA ....
 A#3|..|A#1 2A.F ....|--- .... ....|--- .... ....
....|..|R-- .... ....|--- .... ....|--- .... ....
....|..|--- .... ....|R-- .... ....|R-- .... ....
....|..|B-8 JF.F ....|G-5 UFFF ....|--- .... ....
 A#3|..|A#1 2A.F ....|--- .... ....|D-4 2F97 ....
....|..|R-- .... ....|--- .... ....|--- .... ....
....|..|--- .... ....|R-- .... ....|--- .... ....
....|..|C-4 AF.F ....|F-5 UFFF ....|A#3 2F17 ....
 A#3|..|A#1 2A.F ....|--- .... ....|--- .... ....
....|..|R-- .... ....|G-5 3F.F ....|--- .... ....
....|..|--- .... ....|R-- .... ....|R-- .... ....
....|..|C-4 CF.F ....|C-6 UFFF ....|A#4 2FF7 ....
 A#3|..|A#1 2A.F ....|--- .... ....|--- .... ....
....|..|C-4 CF.F ....|A#5 3F.F ....|--- .... ....
....|..|R-- .... ....|R-- .... ....|R-- .... ....
....|..|C-4 AF.F ....|C-6 3F.F ....|A#3 2F1F ....
 C-4|..|C-2 2A.F ....|--- .... ....|--- .... ....
....|..|C-4 LF.F ....|C-6 3F.F ....|A#3 2F1F ....
 C-4|..|C-2 2A.F ....|R-- .... ....|F-4 2FFF ....
....|..|C-4 LF.F ....|F-5 UFFA ....|A#4 2FF7 ....
....|..|A#1 2F.7 ....|--- .... ....|--- .... ....
....|..|R-- .... ....|G-5 3F.A ....|--- .... ....
....|..|--- .... ....|R-- .... ....|R-- .... ....
....|..|C-4 AF.F ....|F-5 UFF7 ....|--- .... ....
....|..|A#1 2F.7 ....|--- .... ....|--- .... ....
....|..|C-4 CF.A ....|A#5 3F.A ....|--- .... ....
....|..|R-- .... ....|--- .... ....|--- .... ....
....|..|C-4 LF.F ....|C-6 3F.F ....|A#3 2F1F ....
 C-4|..|C-2 2A.F ....|--- .... ....|--- .... ....
....|..|C-4 LF.F ....|C-6 3F.F ....|A#3 2F1F ....
 C-4|..|C-2 2A.F ....|R-- .... ....|F-4 2FFA ....
....|..|C-4 AF.F ....|F-5 UFF7 ....|R-- .... ....
....|..|A#1 2F.7 ....|--- .... ....|--- .... ....
....|..|R-- .... ....|G-5 3F.7 ....|--- .... ....
....|..|--- .... ....|R-- .... ....|--- .... ....
....|..|C-4 9F.F ....|C-6 UFF7 ....|--- .... ....
....|..|A#1 2F.7 ....|--- .... ....|--- .... ....
....|..|C-4 CF.7 ....|A#5 3F.7 ....|--- .... ....
....|..|R-- .... ....|--- .... ....|--- .... ....
....|..|C-4 AF.F ....|C-6 3F.F ....|A#3 2F1F ....
 C-4|..|C-2 2A.F ....|--- .... ....|--- .... ....
....|..|C-4 LF.F ....|C-6 3F.F ....|A#3 2F1F ....
 C-4|..|C-2 2A.F ....|--- .... ....|F-4 2FF7 ....
....|..|C-4 LF.F ....|R-- .... ....|R-- .... ....
....|..|R-- .... ....|--- .... ....|--- .... ....
....|..|--- .... ....|--- .... ....|--- .... ....
....|..|--- .... ....|--- .... ....|--- .... ....

[Pattern15]
....|..|C-4 9F.F ....|--- .... ....|--- .... ....
....|..|--- .... ....|--- .... ....|--- .... ....
....|..|--- .... ....|--- .... ....|--- .... ....
....|..|--- .... ....|--- .... ....|--- .... ....
....|..|C-4 AF.F ....|C-6 3F.F ....|A#3 2F1F ....
 C-4|..|C-2 2A.F ....|--- .... ....|R-- .... ....
....|..|C-4 LF.7 ....|C-6 3F.7 ....|A#3 2F17 ....
....|..|C-2 2F.7 ....|--- .... ....|R-- .... ....
....|..|C-4 AF.F ....|C-6 3F.F ....|A#3 2F1F ....
 C-4|..|C-2 2A.F ....|--- .... ....|--- .... ....
....|..|--- .... ....|--- .... ....|--- .... ....
....|..|--- .... ....|--- .... ....|--- .... ....
....|..|C-4 9F.7 ....|--- .... ....|--- .... ....
....|..|--- .... ....|--- .... ....|--- .... ....
....|..|--- .... ....|--- .... ....|--- .... ....
....|..|--- .... ....|--- .... ....|--- .... ....
....|..|C-4 AF.7 ....|F-5 UFFF ....|A#3 2F17 ....
....|..|C-2 2F.7 ....|--- .... ....|R-- .... ....
....|..|C-4 LF.7 ....|C-6 3F.7 ....|A#3 2F17 ....
....|..|C-2 2F.7 ....|--- .... ....|R-- .... ....
....|..|C-4 LF.7 ....|G-5 UFFF ....|A#3 2F1A ....
....|..|C-2 2F.A ....|--- .... ....|--- .... ....
....|..|--- .... ....|--- .... ....|--- .... ....
....|..|--- .... ....|--- .... ....|--- .... ....
....|..|C-4 9F.7 ....|A-5 UFFF ....|--- .... ....
....|..|--- .... ....|--- .... ....|--- .... ....
....|..|--- .... ....|--- .... ....|--- .... ....
....|..|R-- .... ....|--- .... ....|--- .... ....
....|..|C-4 AF.7 ....|A#5 UFFF ....|A#3 2F17 ....
....|..|C-2 2F.7 ....|--- .... ....|R-- .... ....
....|..|R-- .... ....|R-- .... ....|R-- .... ....
....|..|--- .... ....|--- .... ....|R-- .... ....
....|..|C-4 AF.F ....|C-6 UFFF ....|C-4 2F5F ....
 F-4|..|F-2 2A.F ....|--- .... ....|--- .... ....
....|..|R-- .... ....|--- .... ....|--- .... ....
....|..|--- .... ....|--- .... ....|--- .... ....
....|..|B-8 JF.F ....|A-5 UFFA ....|F-4 2FFF ....
 F-4|..|F-2 2A.F ....|R-- .... ....|--- .... ....
....|..|R-- .... ....|--- .... ....|R-- .... ....
....|..|R-- .... ....|--- .... ....|--- .... ....
....|..|C-4 AF.F ....|A-5 UFFF ....|A-4 2FFF ....
 F-4|..|F-2 2A.F ....|--- .... ....|--- .... ....
....|..|R-- .... ....|G-5 3F.F ....|R-- .... ....
....|..|--- .... ....|R-- .... ....|R-- .... ....
....|..|B-8 JF.F ....|F-5 UFFF ....|C-5 2FFF ....
 F-4|..|F-2 2A.F ....|--- .... ....|--- .... ....
....|..|R-- .... ....|A#5 3F.F ....|R-- .... ....
....|..|--- .... ....|--- .... ....|--- .... ....
....|..|C-4 AF.F ....|C-6 3F.F ....|F-4 2FFA ....
 F-4|..|F-2 2A.F ....|R-- .... ....|--- .... ....
....|..|R-- .... ....|--- .... ....|R-- .... ....
....|..|R-- .... ....|--- .... ....|--- .... ....
....|..|B-8 JF.F ....|C-6 UFFF ....|A-4 2FFA ....
 F-4|..|F-2 2A.F ....|--- .... ....|--- .... ....
....|..|R-- .... ....|G-5 3F.A ....|R-- .... ....
....|..|--- .... ....|R-- .... ....|R-- .... ....
....|..|C-4 AF.F ....|C-6 UFF7 ....|C-4 2F57 ....
 F-4|..|F-2 2A.F ....|--- .... ....|--- .... ....
....|..|R-- .... ....|A#5 3F.A ....|R-- .... ....
....|..|--- .... ....|--- .... ....|--- .... ....
....|..|B-8 JF.F ....|A#5 UFFF ....|F-4 2FF7 ....
 F-4|..|F-2 2A.F ....|R-- .... ....|--- .... ....
....|..|R-- .... ....|--- .... ....|R-- .... ....
....|..|--- .... ....|--- .... ....|--- .... ....

[Pattern16]
....|..|C-4 AF.F ....|A-5 UFF7 ....|C-4 2F1F ....
 C-4|..|C-2 2A.F ....|--- .... ....|--- .... ....
....|..|R-- .... ....|G-5 3F.7 ....|R-- .... ....
....|..|--- .... ....|R-- .... ....|--- .... ....
....|..|B-8 JF.F ....|G-5 UFFF ....|E-4 2FFF ....
 C-4|..|C-2 2A.F ....|--- .... ....|--- .... ....
....|..|R-- .... ....|A#5 3F.7 ....|R-- .... ....
....|..|--- .... ....|R-- .... ....|--- .... ....
....|..|C-4 AF.F ....|C-6 3F.7 ....|G-4 2FFF ....
 C-4|..|C-2 2A.F ....|--- .... ....|--- .... ....
....|..|R-- .... ....|--- .... ....|R-- .... ....
....|..|--- .... ....|--- .... ....|--- .... ....
....|..|B-8 JF.F ....|C-6 UFF7 ....|C-5 2FFF ....
 C-4|..|C-2 2A.F ....|--- .... ....|--- .... ....
....|..|R-- .... ....|--- .... ....|R-- .... ....
....|..|--- .... ....|R-- .... ....|--- .... ....
....|..|C-4 AF.F ....|G-5 UFFA ....|E-4 2FFA ....
 C-4|..|C-2 2A.F ....|--- .... ....|--- .... ....
....|..|R-- .... ....|--- .... ....|R-- .... ....
....|..|--- .... ....|R-- .... ....|--- .... ....
....|..|B-8 JF.F ....|A#5 UFF7 ....|G-4 2FFF ....
 C-4|..|C-2 2A.F ....|--- .... ....|--- .... ....
....|..|R-- .... ....|--- .... ....|R-- .... ....
....|..|--- .... ....|--- .... ....|--- .... ....
....|..|C-4 AF.F ....|--- .... ....|E-4 2FFF ....
 C-4|..|C-2 2A.F ....|--- .... ....|--- .... ....
....|..|R-- .... ....|--- .... ....|R-- .... ....
....|..|--- .... ....|R-- .... ....|--- .... ....
....|..|B-8 JF.F ....|G-5 UFF7 ....|E-4 2FF7 ....
 C-4|..|C-2 2A.F ....|--- .... ....|--- .... ....
....|..|R-- .... ....|--- .... ....|R-- .... ....
....|..|--- .... ....|R-- .... ....|--- .... ....
....|..|C-4 AF.F ....|A#5 UFFF ....|C-4 2F1F ....
 C-4|..|C-2 2A.F ....|R-- .... ....|--- .... ....
....|..|R-- .... ....|--- .... ....|R-- .... ....
....|..|--- .... ....|--- .... ....|--- .... ....
....|..|B-8 JF.F ....|R-- .... ....|C-4 2FFF ....
 C-4|..|C-2 2A.F ....|--- .... ....|--- .... ....
....|..|R-- .... ....|--- .... ....|R-- .... ....
....|..|--- .... ....|--- .... ....|--- .... ....
....|..|C-4 AF.F ....|G-5 UFFF ....|E-4 2FFF ....
 C-4|..|C-2 2A.F ....|--- .... ....|--- .... ....
....|..|R-- .... ....|--- .... ....|R-- .... ....
....|..|--- .... ....|R-- .... ....|--- .... ....
....|..|B-8 JF.F ....|E-5 UFFF ....|G-4 2FFF ....
 C-4|..|C-2 2A.F ....|R-- .... ....|--- .... ....
....|..|R-- .... ....|--- .... ....|R-- .... ....
....|..|--- .... ....|--- .... ....|--- .... ....
....|..|C-4 AF.F ....|A#5 3F.F ....|C#4 2F3F ....
 C#4|..|C#2 2A.F ....|--- .... ....|--- .... ....
....|..|R-- .... ....|--- .... ....|R-- .... ....
....|..|--- .... ....|--- .... ....|--- .... ....
....|..|B-8 JF.F ....|A#5 UFFF ....|E-4 2FFF ....
 C#4|..|C#2 2A.F ....|--- .... ....|--- .... ....
....|..|R-- .... ....|--- .... ....|R-- .... ....
....|..|--- .... ....|R-- .... ....|--- .... ....
....|..|C-4 AF.F ....|A#5 UFF7 ....|G-4 2FFF ....
 C#4|..|C#2 2A.F ....|R-- .... ....|--- .... ....
....|..|R-- .... ....|--- .... ....|R-- .... ....
....|..|--- .... ....|--- .... ....|--- .... ....
....|..|B-8 JF.F ....|A-5 UFFF ....|C#5 2FFF ....
 C#4|..|C#2 2A.F ....|--- .... ....|--- .... ....
....|..|R-- .... ....|--- .... ....|R-- .... ....
....|..|--- .... ....|--- .... ....|--- .... ....

[Pattern17]
....|..|C-4 AF.F ....|G-5 UFF7 ....|D-4 2F6F ....
 D-4|..|D-2 2A.F ....|R-- .... ....|--- .... ....
....|..|R-- .... ....|--- .... ....|R-- .... ....
....|..|--- .... ....|R-- .... ....|--- .... ....
....|..|B-8 JF.F ....|F-5 UFFF ....|F-4 2FFF ....
 D-4|..|D-2 2A.F ....|R-- .... ....|--- .... ....
....|..|R-- .... ....|--- .... ....|R-- .... ....
....|..|--- .... ....|R-- .... ....|--- .... ....
....|..|C-4 AF.F ....|A#5 3F.7 ....|A-4 2FFF ....
 D-4|..|D-2 2A.F ....|--- .... ....|--- .... ....
....|..|R-- .... ....|--- .... ....|R-- .... ....
....|..|--- .... ....|--- .... ....|--- .... ....
....|..|B-8 JF.F ....|D-5 3F.F ....|D-5 2FFF ....
 D-4|..|D-2 2A.F ....|R-- .... ....|--- .... ....
....|..|R-- .... ....|--- .... ....|R-- .... ....
....|..|--- .... ....|--- .... ....|--- .... ....
....|..|C-4 AF.F ....|D-6 3F.F ....|G-4 2FF7 ....
 D-4|..|D-2 2A.F ....|R-- .... ....|--- .... ....
....|..|R-- .... ....|--- .... ....|R-- .... ....
....|..|--- .... ....|R-- .... ....|--- .... ....
....|..|B-8 JF.F ....|C-6 3F.F ....|A-4 2FFF ....
 D-4|..|D-2 2A.F ....|--- .... ....|--- .... ....
....|..|R-- .... ....|--- .... ....|R-- .... ....
....|..|--- .... ....|--- .... ....|--- .... ....
....|..|C-4 AF.F ....|A#5 3F.F ....|F-4 2FFF ....
 D-4|..|D-2 2A.F ....|R-- .... ....|--- .... ....
....|..|R-- .... ....|--- .... ....|R-- .... ....
....|..|--- .... ....|--- .... ....|--- .... ....
....|..|B-8 JF.F ....|A-5 3F.F ....|F-4 2FF7 ....
 D-4|..|D-2 2A.F ....|--- .... ....|--- .... ....
....|..|R-- .... ....|--- .... ....|R-- .... ....
....|..|--- .... ....|R-- .... ....|--- .... ....
....|..|C-4 AF.F ....|A#5 3F.F ....|A#3 2F6F ....
 A#3|..|A#1 2A.F ....|--- .... ....|--- .... ....
....|..|R-- .... ....|--- .... ....|R-- .... ....
....|..|--- .... ....|--- .... ....|--- .... ....
....|..|B-8 JF.F ....|D-5 3F.7 ....|C#4 2FFF ....
 A#3|..|A#1 2A.F ....|--- .... ....|--- .... ....
....|..|R-- .... ....|--- .... ....|R-- .... ....
....|..|--- .... ....|--- .... ....|--- .... ....
....|..|C-4 AF.F ....|C#5 UFFF ....|F-4 2FFF ....
 A#3|..|A#1 2A.F ....|--- .... ....|--- .... ....
....|..|R-- .... ....|--- .... ....|R-- .... ....
....|..|--- .... ....|--- .... ....|--- .... ....
....|..|B-8 JF.F ....|C-6 3F.7 ....|A#4 2FFF ....
 A#3|..|A#1 2A.F ....|--- .... ....|--- .... ....
....|..|R-- .... ....|--- .... ....|R-- .... ....
....|..|--- .... ....|R-- .... ....|--- .... ....
....|..|C-4 AF.F ....|F-5 UFFF ....|F-4 2FF7 ....
 A#3|..|A#1 2A.F ....|--- .... ....|--- .... ....
....|..|R-- .... ....|--- .... ....|R-- .... ....
....|..|--- .... ....|--- .... ....|--- .... ....
....|..|B-8 JF.F ....|A-5 3F.7 ....|F-4 2FFF ....
 A#3|..|A#1 2A.F ....|--- .... ....|--- .... ....
....|..|R-- .... ....|--- .... ....|R-- .... ....
....|..|--- .... ....|--- .... ....|--- .... ....
....|..|C-4 AF.F ....|A#5 UFFF ....|C#4 2FFF ....
 A#3|..|A#1 2A.F ....|--- .... ....|--- .... ....
....|..|R-- .... ....|--- .... ....|R-- .... ....
....|..|--- .... ....|R-- .... ....|--- .... ....
....|..|B-8 JF.F ....|F-5 UFFA ....|C#4 2FF7 ....
 A#3|..|A#1 2A.F ....|--- .... ....|--- .... ....
....|..|R-- .... ....|--- .... ....|R-- .... ....
....|..|--- .... ....|R-- .... ....|--- .... ....

[Pattern18]
....|..|C-4 AF.F ....|A-5 UFFF ....|A-3 2F2F ....
 A-3|..|A-1 2A.F ....|--- .... ....|--- .... ....
....|..|R-- .... ....|--- .... ....|R-- .... ....
....|..|--- .... ....|--- .... ....|--- .... ....
....|..|B-8 JF.F ....|A#5 UFFA ....|F-4 2FFF ....
 A-3|..|A-1 2A.F ....|--- .... ....|--- .... ....
....|..|R-- .... ....|--- .... ....|R-- .... ....
....|..|--- .... ....|R-- .... ....|--- .... ....
....|..|C-4 AF.F ....|C-6 UFFF ....|A-4 2FFF ....
 A-3|..|A-1 2A.F ....|--- .... ....|--- .... ....
....|..|R-- .... ....|--- .... ....|R-- .... ....
....|..|--- .... ....|R-- .... ....|--- .... ....
....|..|B-8 JF.F ....|F-5 UFFF ....|C-5 2FFF ....
 A-3|..|A-1 2A.F ....|--- .... ....|--- .... ....
....|..|R-- .... ....|--- .... ....|R-- .... ....
....|..|--- .... ....|--- .... ....|--- .... ....
....|..|C-4 AF.F ....|A#5 UFF7 ....|A-3 2F8F ....
 D-4|..|D-2 2A.F ....|R-- .... ....|--- .... ....
....|..|R-- .... ....|--- .... ....|R-- .... ....
....|..|--- .... ....|--- .... ....|--- .... ....
....|..|B-8 JF.F ....|C-6 UFFA ....|F-4 2FFF ....
 D-4|..|D-2 2A.F ....|--- .... ....|--- .... ....
....|..|R-- .... ....|--- .... ....|R-- .... ....
....|..|--- .... ....|R-- .... ....|--- .... ....
....|..|C-4 AF.F ....|A-5 UFF7 ....|A-4 2FFF ....
 D-4|..|D-2 2A.F ....|--- .... ....|--- .... ....
....|..|R-- .... ....|--- .... ....|R-- .... ....
....|..|--- .... ....|--- .... ....|--- .... ....
....|..|B-8 JF.F ....|A-5 UFFF ....|D-5 2FFF ....
 D-4|..|D-2 2A.F ....|R-- .... ....|--- .... ....
....|..|R-- .... ....|--- .... ....|R-- .... ....
....|..|--- .... ....|R-- .... ....|--- .... ....
....|..|C-4 AF.F ....|A#5 UFFF ....|A#3 2F1F ....
 G-3|..|G-1 2A.F ....|--- .... ....|--- .... ....
....|..|R-- .... ....|--- .... ....|R-- .... ....
....|..|--- .... ....|--- .... ....|--- .... ....
....|..|B-8 JF.F ....|A-5 UFFF ....|G-4 2FFF ....
 G-3|..|G-1 2A.F ....|--- .... ....|--- .... ....
....|..|R-- .... ....|--- .... ....|R-- .... ....
....|..|--- .... ....|R-- .... ....|--- .... ....
....|..|C-4 AF.F ....|A#5 UFFF ....|A#4 2FFF ....
 G-3|..|G-1 2A.F ....|R-- .... ....|--- .... ....
....|..|R-- .... ....|--- .... ....|R-- .... ....
....|..|--- .... ....|R-- .... ....|--- .... ....
....|..|B-8 JF.F ....|A-5 UFFF ....|D-5 2FFF ....
 G-3|..|G-1 2A.F ....|--- .... ....|--- .... ....
....|..|R-- .... ....|--- .... ....|R-- .... ....
....|..|--- .... ....|R-- .... ....|--- .... ....
....|..|C-4 AF.F ....|A#5 UFFF ....|A-4 2FF7 ....
 G-3|..|G-1 2A.F ....|--- .... ....|--- .... ....
....|..|R-- .... ....|--- .... ....|R-- .... ....
....|..|--- .... ....|R-- .... ....|--- .... ....
....|..|B-8 JF.F ....|A-5 UFFF ....|D-5 2FF7 ....
 G-3|..|G-1 2A.F ....|--- .... ....|--- .... ....
....|..|R-- .... ....|--- .... ....|R-- .... ....
....|..|--- .... ....|R-- .... ....|--- .... ....
....|..|C-4 AF.F ....|F-5 UFFF ....|A#3 2F17 ....
 G-3|..|G-1 2A.F ....|--- .... ....|--- .... ....
....|..|R-- .... ....|--- .... ....|R-- .... ....
....|..|--- .... ....|R-- .... ....|--- .... ....
....|..|B-8 JF.F ....|G-5 UFFF ....|G-4 2FF7 ....
 G-3|..|G-1 2A.F ....|--- .... ....|--- .... ....
....|..|R-- .... ....|--- .... ....|R-- .... ....
....|..|--- .... ....|R-- .... ....|--- .... ....

[Pattern19]
....|..|C-4 AF.F ....|A#5 UFF7 ....|A#3 2F4F ....
 C-4|..|C-2 2A.F ....|--- .... ....|--- .... ....
....|..|R-- .... ....|--- .... ....|R-- .... ....
....|..|--- .... ....|--- .... ....|--- .... ....
....|..|B-8 JF.F ....|A-5 UFF7 ....|D-4 2FFF ....
 C-4|..|C-2 2A.F ....|--- .... ....|--- .... ....
....|..|R-- .... ....|--- .... ....|R-- .... ....
....|..|--- .... ....|R-- .... ....|--- .... ....
....|..|C-4 AF.F ....|A#5 UFF7 ....|F-4 2FFF ....
 C-4|..|C-2 2A.F ....|--- .... ....|--- .... ....
....|..|R-- .... ....|--- .... ....|R-- .... ....
....|..|--- .... ....|--- .... ....|--- .... ....
....|..|B-8 JF.F ....|A-5 UFF7 ....|C-5 2FFF ....
 C-4|..|C-2 2A.F ....|--- .... ....|--- .... ....
....|..|R-- .... ....|--- .... ....|R-- .... ....
....|..|--- .... ....|--- .... ....|--- .... ....
....|..|C-4 AF.F ....|F-5 UFFF ....|D-4 2FFA ....
 C-4|..|C-2 2A.F ....|--- .... ....|--- .... ....
....|..|C-4 LF.F ....|--- .... ....|R-- .... ....
....|..|R-- .... ....|R-- .... ....|--- .... ....
....|..|B-8 JF.F ....|G-5 UFFF ....|F-4 2FFA ....
 C-4|..|C-2 2A.F ....|--- .... ....|--- .... ....
....|..|C-4 LF.F ....|--- .... ....|R-- .... ....
....|..|R-- .... ....|--- .... ....|--- .... ....
....|..|C-4 AF.F ....|A-5 UFFF ....|A#3 2F47 ....
 C-4|..|C-2 2A.F ....|--- .... ....|--- .... ....
....|..|C-4 9F.F ....|G-5 3F.F ....|R-- .... ....
....|..|R-- .... ....|--- .... ....|--- .... ....
....|..|B-8 JF.F ....|A#5 UFFF ....|D-4 2FF7 ....
 C-4|..|C-2 2A.F ....|--- .... ....|--- .... ....
....|..|C-4 9F.F ....|A#5 3F.F ....|R-- .... ....
....|..|R-- .... ....|--- .... ....|--- .... ....
....|..|C-4 AF.F ....|C-6 UFFF ....|A-3 2F2F ....
 F-4|..|F-2 2A.F ....|--- .... ....|--- .... ....
....|..|C-4 LF.A ....|--- .... ....|R-- .... ....
....|..|R-- .... ....|--- .... ....|--- .... ....
....|..|B-8 JF.F ....|A-5 UFFA ....|F-4 2FFF ....
 F-4|..|F-2 2A.F ....|R-- .... ....|--- .... ....
....|..|C-4 9F.A ....|G-5 3F.A ....|R-- .... ....
....|..|R-- .... ....|--- .... ....|--- .... ....
....|..|C-4 AF.F ....|A-5 UFFF ....|A-4 2FFF ....
 F-4|..|F-2 2A.F ....|--- .... ....|--- .... ....
....|..|C-4 LF.7 ....|A#5 3F.A ....|R-- .... ....
....|..|R-- .... ....|--- .... ....|--- .... ....
....|..|B-8 JF.F ....|F-5 UFFF ....|C-5 2FFF ....
 F-4|..|F-2 2A.F ....|--- .... ....|--- .... ....
....|..|C-4 LF.7 ....|--- .... ....|R-- .... ....
....|..|R-- .... ....|--- .... ....|--- .... ....
....|..|C-4 AF.F ....|A-5 UFF7 ....|F-4 2FFA ....
 F-4|..|F-2 2A.F ....|R-- .... ....|--- .... ....
....|..|C-4 9F.7 ....|G-5 3F.7 ....|R-- .... ....
....|..|R-- .... ....|--- .... ....|--- .... ....
....|..|B-8 JF.F ....|C-6 UFFF ....|A-4 2FFA ....
 F-4|..|F-2 2A.F ....|--- .... ....|--- .... ....
....|..|C-4 9F.7 ....|A#5 3F.7 ....|R-- .... ....
....|..|R-- .... ....|--- .... ....|--- .... ....
....|..|C-4 AF.F ....|C-6 UFF7 ....|A-3 2F27 ....
 F-4|..|F-2 2A.F ....|R-- .... ....|--- .... ....
....|..|R-- .... ....|--- .... ....|R-- .... ....
....|..|--- .... ....|--- .... ....|--- .... ....
....|..|B-8 JF.F ....|A#5 UFFF ....|F-4 2FF7 ....
 F-4|..|F-2 2A.F ....|R-- .... ....|--- .... ....
....|..|R-- .... ....|--- .... ....|R-- .... ....
....|..|--- .... ....|--- .... ....|--- .... ....

[Pattern20]
....|..|C-4 AF.F ....|A-5 UFF7 ....|C-4 2F1F ....
 C-4|..|C-2 2A.F ....|--- .... ....|--- .... ....
....|..|R-- .... ....|--- .... ....|R-- .... ....
....|..|--- .... ....|--- .... ....|--- .... ....
....|..|B-8 JF.F ....|G-5 UFFF ....|E-4 2FFF ....
 C-4|..|C-2 2A.F ....|R-- .... ....|--- .... ....
....|..|R-- .... ....|--- .... ....|R-- .... ....
....|..|--- .... ....|R-- .... ....|--- .... ....
....|..|C-4 AF.F ....|A#5 UFFA ....|G-4 2FFF ....
 C-4|..|C-2 2A.F ....|--- .... ....|--- .... ....
....|..|R-- .... ....|--- .... ....|R-- .... ....
....|..|--- .... ....|--- .... ....|--- .... ....
....|..|B-8 JF.F ....|C-6 UFF7 ....|C-5 2FFF ....
 C-4|..|C-2 2A.F ....|--- .... ....|--- .... ....
....|..|R-- .... ....|--- .... ....|R-- .... ....
....|..|--- .... ....|--- .... ....|--- .... ....
....|..|C-4 AF.F ....|G-5 UFFA ....|E-4 2FFA ....
 C-4|..|C-2 2A.F ....|R-- .... ....|--- .... ....
....|..|R-- .... ....|--- .... ....|R-- .... ....
....|..|--- .... ....|R-- .... ....|--- .... ....
....|..|B-8 JF.F ....|A#5 UFF7 ....|G-4 2FFF ....
 C-4|..|C-2 2A.F ....|--- .... ....|--- .... ....
....|..|R-- .... ....|--- .... ....|R-- .... ....
....|..|--- .... ....|--- .... ....|--- .... ....
....|..|C-4 AF.F ....|--- .... ....|E-4 2FFF ....
 C-4|..|C-2 2A.F ....|--- .... ....|--- .... ....
....|..|R-- .... ....|--- .... ....|R-- .... ....
....|..|--- .... ....|--- .... ....|--- .... ....
....|..|B-8 JF.F ....|G-5 UFF7 ....|E-4 2FF7 ....
 C-4|..|C-2 2A.F ....|--- .... ....|--- .... ....
....|..|R-- .... ....|--- .... ....|R-- .... ....
....|..|--- .... ....|R-- .... ....|--- .... ....
....|..|C-4 AF.F ....|A#5 UFFF ....|C-4 2F1F ....
 C-4|..|C-2 2A.F ....|--- .... ....|--- .... ....
....|..|R-- .... ....|--- .... ....|R-- .... ....
....|..|--- .... ....|--- .... ....|--- .... ....
....|..|B-8 JF.F ....|R-- .... ....|C-4 2FFF ....
 C-4|..|C-2 2A.F ....|--- .... ....|--- .... ....
....|..|R-- .... ....|--- .... ....|R-- .... ....
....|..|--- .... ....|--- .... ....|--- .... ....
....|..|C-4 AF.F ....|G-5 UFFF ....|E-4 2FFF ....
 C-4|..|C-2 2A.F ....|--- .... ....|--- .... ....
....|..|R-- .... ....|--- .... ....|R-- .... ....
....|..|--- .... ....|R-- .... ....|--- .... ....
....|..|B-8 JF.F ....|E-5 UFFF ....|G-4 2FFF ....
 C-4|..|C-2 2A.F ....|--- .... ....|--- .... ....
....|..|R-- .... ....|--- .... ....|R-- .... ....
....|..|--- .... ....|R-- .... ....|--- .... ....
....|..|C-4 AF.F ....|A#5 3F.F ....|C#4 2F3F ....
 C#4|..|C#2 2A.F ....|--- .... ....|--- .... ....
....|..|R-- .... ....|--- .... ....|R-- .... ....
....|..|--- .... ....|--- .... ....|--- .... ....
....|..|B-8 JF.F ....|A#5 UFFF ....|E-4 2FFF ....
 C#4|..|C#2 2A.F ....|--- .... ....|--- .... ....
....|..|R-- .... ....|--- .... ....|R-- .... ....
....|..|--- .... ....|R-- .... ....|--- .... ....
....|..|C-4 AF.F ....|A#5 UFF7 ....|G-4 2FFF ....
 C#4|..|C#2 2A.F ....|--- .... ....|--- .... ....
....|..|R-- .... ....|--- .... ....|R-- .... ....
....|..|--- .... ....|R-- .... ....|--- .... ....
....|..|B-8 JF.F ....|A-5 UFFF ....|C#5 2FFF ....
 C#4|..|C#2 2A.F ....|--- .... ....|--- .... ....
....|..|R-- .... ....|--- .... ....|R-- .... ....
....|..|--- .... ....|--- .... ....|--- .... ....

[Pattern21]
....|..|C-4 AF.F ....|A#5 3F.F ....|D-4 2F6F ....
 D-4|..|D-2 2A.F ....|A-5 3F.F ....|--- .... ....
....|..|R-- .... ....|R-- .... ....|R-- .... ....
....|..|--- .... ....|R-- .... ....|--- .... ....
....|..|B-8 JF.F ....|F-5 UFFF ....|F-4 2FFF ....
 D-4|..|D-2 2A.F ....|--- .... ....|--- .... ....
....|..|R-- .... ....|G#5 3F.F ....|R-- .... ....
....|..|--- .... ....|R-- .... ....|--- .... ....
....|..|C-4 AF.F ....|A-5 3F.F ....|A-4 2FFF ....
 D-4|..|D-2 2A.F ....|--- .... ....|--- .... ....
....|..|R-- .... ....|R-- .... ....|R-- .... ....
....|..|--- .... ....|--- .... ....|--- .... ....
....|..|B-8 JF.F ....|D-6 3F.F ....|D-5 2FFF ....
 D-4|..|D-2 2A.F ....|A-5 3F.A ....|--- .... ....
....|..|R-- .... ....|C#6 3F.F ....|R-- .... ....
....|..|--- .... ....|--- .... ....|--- .... ....
....|..|C-4 AF.F ....|D-6 3F.F ....|G-4 2FF7 ....
 D-4|..|D-2 2A.F ....|--- .... ....|--- .... ....
....|..|R-- .... ....|G#5 3F.A ....|R-- .... ....
....|..|--- .... ....|R-- .... ....|--- .... ....
....|..|B-8 JF.F ....|F-6 3F.F ....|A-4 2FFF ....
 D-4|..|D-2 2A.F ....|--- .... ....|--- .... ....
....|..|R-- .... ....|E-6 3F.F ....|R-- .... ....
....|..|--- .... ....|--- .... ....|--- .... ....
....|..|C-4 AF.F ....|F-6 3F.F ....|F-4 2FFF ....
 D-4|..|D-2 2A.F ....|A-5 3F.7 ....|--- .... ....
....|..|R-- .... ....|C#6 3F.A ....|R-- .... ....
....|..|--- .... ....|--- .... ....|--- .... ....
....|..|B-8 JF.F ....|A-5 3F.F ....|F-4 2FF7 ....
 D-4|..|D-2 2A.F ....|--- .... ....|--- .... ....
....|..|R-- .... ....|G#5 3F.7 ....|R-- .... ....
....|..|--- .... ....|R-- .... ....|--- .... ....
....|..|C-4 AF.F ....|D-5 UFFF ....|A#3 2F1F ....
 A#3|..|A#1 2A.F ....|--- .... ....|--- .... ....
....|..|R-- .... ....|E-6 3F.A ....|R-- .... ....
....|..|--- .... ....|--- .... ....|--- .... ....
....|..|B-8 JF.F ....|D-6 3F.7 ....|F-4 2FFF ....
 A#3|..|A#1 2A.F ....|--- .... ....|--- .... ....
....|..|R-- .... ....|C#6 3F.7 ....|R-- .... ....
....|..|--- .... ....|R-- .... ....|--- .... ....
....|..|C-4 AF.F ....|D-6 UFFF ....|A#4 2FFF ....
 A#3|..|A#1 2A.F ....|--- .... ....|--- .... ....
....|..|R-- .... ....|R-- .... ....|R-- .... ....
....|..|--- .... ....|--- .... ....|--- .... ....
....|..|B-8 JF.F ....|F-6 3F.7 ....|A-4 2FF7 ....
 A#3|..|A#1 2A.F ....|--- .... ....|--- .... ....
....|..|R-- .... ....|E-6 3F.7 ....|R-- .... ....
....|..|--- .... ....|--- .... ....|--- .... ....
....|..|C-4 AF.F ....|C-6 UFFF ....|C-4 2F1F ....
 A#3|..|A#1 2A.F ....|--- .... ....|--- .... ....
....|..|R-- .... ....|R-- .... ....|R-- .... ....
....|..|--- .... ....|R-- .... ....|--- .... ....
....|..|B-8 JF.F ....|A#5 UFFF ....|G-4 2FFF ....
 A#3|..|A#1 2A.F ....|--- .... ....|--- .... ....
....|..|R-- .... ....|R-- .... ....|R-- .... ....
....|..|--- .... ....|--- .... ....|--- .... ....
....|..|C-4 AF.F ....|A-5 UFFF ....|C-5 2FFF ....
 A#3|..|A#1 2A.F ....|--- .... ....|--- .... ....
....|..|R-- .... ....|--- .... ....|R-- .... ....
....|..|--- .... ....|--- .... ....|--- .... ....
....|..|B-8 JF.F ....|A#5 UFFF ....|F-4 2FF7 ....
 A#3|..|A#1 2A.F ....|--- .... ....|--- .... ....
....|..|R-- .... ....|--- .... ....|R-- .... ....
....|..|--- .... ....|R-- .... ....|--- .... ....

[Pattern22]
....|..|C-4 AF.F ....|C-6 UFFF ....|C-4 2F1F ....
 A-3|..|A-1 2A.F ....|--- .... ....|--- .... ....
....|..|R-- .... ....|--- .... ....|R-- .... ....
....|..|--- .... ....|--- .... ....|--- .... ....
....|..|B-8 JF.F ....|A-5 UFFA ....|E-4 2FFF ....
 A-3|..|A-1 2A.F ....|--- .... ....|--- .... ....
....|..|R-- .... ....|--- .... ....|R-- .... ....
....|..|--- .... ....|--- .... ....|--- .... ....
....|..|C-4 AF.F ....|C-6 UFF7 ....|A-4 2FFF ....
 A-3|..|A-1 2A.F ....|--- .... ....|--- .... ....
....|..|R-- .... ....|--- .... ....|R-- .... ....
....|..|--- .... ....|R-- .... ....|--- .... ....
....|..|B-8 JF.F ....|F-5 UFFF ....|C-5 2FFF ....
 A-3|..|A-1 2A.F ....|--- .... ....|--- .... ....
....|..|R-- .... ....|--- .... ....|R-- .... ....
....|..|--- .... ....|R-- .... ....|--- .... ....
....|..|C-4 AF.F ....|F-5 UFFF ....|C-4 2F5F ....
 D-4|..|D-2 2A.F ....|--- .... ....|--- .... ....
....|..|R-- .... ....|--- .... ....|R-- .... ....
....|..|--- .... ....|--- .... ....|--- .... ....
....|..|B-8 JF.F ....|A#5 UFF7 ....|F-4 2FFF ....
 D-4|..|D-2 2A.F ....|--- .... ....|--- .... ....
....|..|R-- .... ....|--- .... ....|R-- .... ....
....|..|--- .... ....|R-- .... ....|--- .... ....
....|..|C-4 AF.F ....|C-6 UFF7 ....|A-4 2FFF ....
 D-4|..|D-2 2A.F ....|--- .... ....|--- .... ....
....|..|R-- .... ....|--- .... ....|R-- .... ....
....|..|--- .... ....|R-- .... ....|--- .... ....
....|..|B-8 JF.F ....|A-5 UFFF ....|D-5 2FFF ....
 D-4|..|D-2 2A.F ....|R-- .... ....|--- .... ....
....|..|R-- .... ....|R-- .... ....|R-- .... ....
....|..|--- .... ....|--- .... ....|--- .... ....
....|..|C-4 AF.F ....|A#5 UFFF ....|A#3 2F1F ....
 A#3|..|A#1 2A.F ....|--- .... ....|--- .... ....
....|..|R-- .... ....|--- .... ....|R-- .... ....
....|..|--- .... ....|R-- .... ....|D-4 2F9F ....
....|..|B-8 JF.7 ....|A-5 UFFF ....|C-5 2FF7 ....
....|..|A-1 2F.7 ....|--- .... ....|--- .... ....
....|..|R-- .... ....|--- .... ....|R-- .... ....
....|..|--- .... ....|R-- .... ....|--- .... ....
....|..|C-4 AF.7 ....|F-5 UFFF ....|C-4 2F57 ....
....|..|D-2 2F.7 ....|R-- .... ....|--- .... ....
....|..|R-- .... ....|R-- .... ....|R-- .... ....
....|..|--- .... ....|R-- .... ....|--- .... ....
....|..|C-4 AF.F ....|A#5 UFFF ....|A#3 2F1F ....
 A#3|..|A#1 2A.F ....|--- .... ....|--- .... ....
....|..|R-- .... ....|--- .... ....|R-- .... ....
....|..|--- .... ....|R-- .... ....|D-4 2F9A ....
....|..|C-4 AF.7 ....|A-5 UFFF ....|A-4 2FF7 ....
....|..|D-2 2F.7 ....|--- .... ....|--- .... ....
....|..|R-- .... ....|--- .... ....|R-- .... ....
....|..|--- .... ....|R-- .... ....|--- .... ....
....|..|B-8 JF.7 ....|F-5 UFFF ....|D-5 2FF7 ....
....|..|D-2 2F.7 ....|R-- .... ....|--- .... ....
....|..|R-- .... ....|R-- .... ....|R-- .... ....
....|..|--- .... ....|R-- .... ....|--- .... ....
....|..|C-4 AF.F ....|D-6 UFFF ....|A#3 2F1F ....
 A#3|..|A#1 2A.F ....|--- .... ....|A#4 2FFF ....
....|..|R-- .... ....|--- .... ....|R-- .... ....
....|..|--- .... ....|R-- .... ....|D-4 2F97 ....
....|..|C-4 AF.F ....|C-6 UFFF ....|A#3 2F1F ....
 C-4|..|C-2 2A.F ....|--- .... ....|--- .... ....
....|..|C-4 9F.F ....|--- .... ....|--- .... ....
....|..|--- .... ....|R-- .... ....|--- .... ....

[Pattern23]
....|..|--- .... ....|F-5 UFF7 ....|--- .... ....
....|..|--- .... ....|--- .... ....|--- .... ....
....|..|--- .... ....|--- .... ....|--- .... ....
....|..|--- .... ....|R-- .... ....|--- .... ....
....|..|C-4 AF.F ....|A#5 UFF7 ....|A#3 2F17 ....
....|..|A#1 2F.7 ....|--- .... ....|A#4 2FFA ....
....|..|R-- .... ....|--- .... ....|R-- .... ....
....|..|--- .... ....|R-- .... ....|R-- .... ....
....|..|C-4 AF.F ....|A-5 UFF7 ....|A#3 2F1A ....
....|..|C-2 2F.A ....|--- .... ....|--- .... ....
....|..|C-4 9F.A ....|--- .... ....|--- .... ....
....|..|--- .... ....|R-- .... ....|--- .... ....
....|..|C-4 AF.F ....|F-5 UFF7 ....|--- .... ....
....|..|--- .... ....|--- .... ....|--- .... ....
....|..|--- .... ....|--- .... ....|--- .... ....
....|..|--- .... ....|R-- .... ....|--- .... ....
....|..|C-4 AF.F ....|F-5 3F.F ....|A#3 2F17 ....
....|..|A#1 2F.7 ....|--- .... ....|A#4 2FF7 ....
....|..|R-- .... ....|E-5 3F.F ....|R-- .... ....
....|..|--- .... ....|R-- .... ....|--- .... ....
....|..|C-4 AF.7 ....|F-5 3F.F ....|A#3 2F17 ....
....|..|C-2 2F.7 ....|--- .... ....|--- .... ....
....|..|C-4 AF.F ....|G-5 3F.F ....|--- .... ....
....|..|--- .... ....|--- .... ....|--- .... ....
....|..|C-4 AF.A ....|F-5 3F.F ....|--- .... ....
....|..|--- .... ....|--- .... ....|--- .... ....
....|..|--- .... ....|G-5 3F.F ....|--- .... ....
....|..|--- .... ....|--- .... ....|--- .... ....
....|..|C-4 AF.F ....|A-5 3F.F ....|--- .... ....
....|..|--- .... ....|--- .... ....|--- .... ....
....|..|--- .... ....|A#5 3F.F ....|--- .... ....
....|..|R-- .... ....|R-- .... ....|A#4 2FFF ....
....|..|C-4 AF.F ....|C-6 3F.F ....|A#3 2F1F ....
 C-4|..|C-2 2A.F ....|--- .... ....|--- .... ....
....|..|C-4 AF.A ....|G-5 3F.A ....|D-4 2F9F ....
....|..|R-- .... ....|--- .... ....|R-- .... ....
....|..|C-4 AF.7 ....|F-5 3F.A ....|--- .... ....
....|..|--- .... ....|--- .... ....|--- .... ....
....|..|--- .... ....|G-5 3F.A ....|--- .... ....
....|..|--- .... ....|--- .... ....|--- .... ....
....|..|C-4 AF.7 ....|C-5 UFFF ....|--- .... ....
....|..|--- .... ....|--- .... ....|--- .... ....
....|..|--- .... ....|E-5 3F.7 ....|--- .... ....
....|..|R-- .... ....|R-- .... ....|A#4 2FFA ....
....|..|C-4 AF.A ....|C-5 UFFF ....|A#3 2F1A ....
....|..|C-2 2F.A ....|--- .... ....|--- .... ....
....|..|C-4 AF.7 ....|G-5 3F.7 ....|D-4 2F9A ....
....|..|R-- .... ....|--- .... ....|R-- .... ....
....|..|C-4 AF.F ....|A#5 UFFF ....|A#3 2F1F ....
 C-4|..|C-2 2A.F ....|--- .... ....|A#4 2FFF ....
....|..|--- .... ....|G-5 3F.7 ....|--- .... ....
....|..|--- .... ....|--- .... ....|--- .... ....
....|..|C-4 AF.7 ....|A#5 UFFF ....|--- .... ....
....|..|--- .... ....|A-5 UFFF ....|--- .... ....
....|..|--- .... ....|A#5 3F.7 ....|--- .... ....
....|..|R-- .... ....|R-- .... ....|A#4 2FF7 ....
....|..|C-4 9F.F ....|G-5 UFFF ....|A#3 2F17 ....
....|..|C-2 2F.7 ....|--- .... ....|--- .... ....
....|..|--- .... ....|--- .... ....|D-4 2F97 ....
....|..|R-- .... ....|--- .... ....|R-- .... ....
....|..|C-4 AF.A ....|A-5 UFFF ....|A#3 2F1A ....
....|..|C-2 2F.A ....|--- .... ....|A#4 2FFA ....
....|..|R-- .... ....|--- .... ....|--- .... ....
....|..|--- .... ....|--- .... ....|--- .... ....

[Pattern24]
....|..|C-4 AF.F ....|F-5 UFFF ....|A-3 2F2F ....
 F-4|..|F-2 2A.F ....|A-5 UFFA ....|--- .... ....
....|..|R-- .... ....|--- .... ....|R-- .... ....
....|..|--- .... ....|R-- .... ....|--- .... ....
....|..|B-8 JF.F ....|C-5 UFF7 ....|G-4 2FFF ....
 F-4|..|F-2 2A.F ....|--- .... ....|--- .... ....
....|..|R-- .... ....|--- .... ....|R-- .... ....
....|..|--- .... ....|--- .... ....|--- .... ....
....|..|C-4 AF.F ....|A#5 UFF7 ....|F-4 2FFF ....
 F-4|..|F-2 2A.F ....|--- .... ....|A#4 2FF7 ....
....|..|R-- .... ....|--- .... ....|--- .... ....
....|..|--- .... ....|--- .... ....|--- .... ....
....|..|B-8 JF.F ....|A#5 UFF7 ....|A-3 2F2A ....
 F-4|..|F-2 2A.F ....|A-5 UFF7 ....|--- .... ....
....|..|R-- .... ....|--- .... ....|R-- .... ....
....|..|--- .... ....|--- .... ....|--- .... ....
....|..|C-4 AF.F ....|G-5 UFF7 ....|G-4 2FFF ....
 F-4|..|F-2 2A.F ....|--- .... ....|--- .... ....
....|..|R-- .... ....|--- .... ....|R-- .... ....
....|..|--- .... ....|--- .... ....|--- .... ....
....|..|B-8 JF.F ....|A-5 UFF7 ....|F-4 2FFF ....
 F-4|..|F-2 2A.F ....|--- .... ....|R-- .... ....
....|..|R-- .... ....|--- .... ....|--- .... ....
....|..|--- .... ....|--- .... ....|--- .... ....
....|..|C-4 AF.F ....|F-5 UFF7 ....|A-3 2F27 ....
 F-4|..|F-2 2A.F ....|--- .... ....|--- .... ....
....|..|R-- .... ....|--- .... ....|R-- .... ....
....|..|--- .... ....|--- .... ....|--- .... ....
....|..|C-4 AF.F ....|--- .... ....|A#3 2F1F ....
 F-4|..|F-2 2A.F ....|--- .... ....|--- .... ....
....|..|R-- .... ....|--- .... ....|R-- .... ....
....|..|--- .... ....|--- .... ....|--- .... ....
....|..|B-8 JF.F ....|--- .... ....|F-4 2FF7 ....
 C-4|..|C-2 2A.F ....|R-- .... ....|R-- .... ....
....|..|R-- .... ....|--- .... ....|--- .... ....
....|..|--- .... ....|--- .... ....|--- .... ....
....|..|C-4 AF.F ....|--- .... ....|A-4 2FFF ....
 C-4|..|C-2 2A.F ....|--- .... ....|R-- .... ....
....|..|R-- .... ....|--- .... ....|--- .... ....
....|..|--- .... ....|--- .... ....|--- .... ....
....|..|C-4 AF.F ....|--- .... ....|F-4 2FFF ....
....|..|C-4 CF.F ....|--- .... ....|R-- .... ....
 C-4|..|C-2 2A.F ....|--- .... ....|R-- .... ....
....|..|R-- .... ....|--- .... ....|--- .... ....
....|..|B-8 JF.F ....|--- .... ....|C-4 2FFF ....
 C-4|..|C-2 2A.F ....|R-- .... ....|R-- .... ....
....|..|R-- .... ....|--- .... ....|--- .... ....
....|..|--- .... ....|--- .... ....|--- .... ....
....|..|C-4 AF.F ....|--- .... ....|A-4 2FFA ....
 C-4|..|C-2 2A.F ....|--- .... ....|R-- .... ....
....|..|R-- .... ....|--- .... ....|--- .... ....
....|..|--- .... ....|--- .... ....|--- .... ....
....|..|C-4 LF.F ....|--- .... ....|A#3 2F17 ....
 C-4|..|C-2 2A.F ....|--- .... ....|R-- .... ....
....|..|C-2 2F.A ....|--- .... ....|--- .... ....
....|..|R-- .... ....|--- .... ....|--- .... ....
....|..|C-4 AF.F ....|--- .... ....|C-4 2FFA ....
 C-4|..|C-2 2A.F ....|R-- .... ....|R-- .... ....
....|..|C-4 LF.F ....|--- .... ....|--- .... ....
....|..|R-- .... ....|--- .... ....|--- .... ....
....|..|B-8 JF.F ....|--- .... ....|A-4 2FF7 ....
 C-4|..|C-2 2A.F ....|--- .... ....|R-- .... ....
....|..|R-- .... ....|--- .... ....|--- .... ....
....|..|--- .... ....|--- .... ....|D-4 2F9F ....

[Pattern25]
....|..|C-4 AF.F ....|R-- .... ....|A-3 2F2F ....
 F-4|..|F-2 2A.F ....|--- .... ....|R-- .... ....
....|..|C-2 2F.7 ....|--- .... ....|--- .... ....
....|..|R-- .... ....|--- .... ....|--- .... ....
....|..|C-4 LF.F ....|--- .... ....|A-4 2FFF ....
 F-4|..|F-2 2A.F ....|--- .... ....|A-4 2FFF ....
....|..|C-4 LF.A ....|--- .... ....|R-- .... ....
....|..|R-- .... ....|--- .... ....|--- .... ....
....|..|C-4 AF.F ....|F-5 UFFF ....|A-4 2FFF ....
 F-4|..|F-2 2A.F ....|--- .... ....|--- .... ....
....|..|R-- .... ....|--- .... ....|R-- .... ....
....|..|--- .... ....|--- .... ....|D-4 2F9A ....
....|..|C-4 LF.F ....|R-- .... ....|A-3 2F2A ....
 F-4|..|F-2 2A.F ....|--- .... ....|--- .... ....
....|..|R-- .... ....|--- .... ....|--- .... ....
....|..|--- .... ....|--- .... ....|--- .... ....
....|..|C-4 AF.F ....|E-5 UFFF ....|A-4 2FFF ....
 F-4|..|F-2 2A.F ....|--- .... ....|A-4 2FFA ....
....|..|C-4 LF.7 ....|--- .... ....|R-- .... ....
....|..|R-- .... ....|--- .... ....|--- .... ....
....|..|C-4 LF.F ....|F-5 UFFA ....|A-4 2FFF ....
 F-4|..|F-2 2A.F ....|--- .... ....|--- .... ....
....|..|R-- .... ....|--- .... ....|R-- .... ....
....|..|--- .... ....|--- .... ....|D-4 2F97 ....
....|..|C-4 AF.F ....|F-5 UFFF ....|A-3 2F27 ....
 F-4|..|F-2 2A.F ....|--- .... ....|--- .... ....
....|..|R-- .... ....|--- .... ....|--- .... ....
....|..|--- .... ....|--- .... ....|C-4 2FAF ....
....|..|C-4 LF.F ....|C-5 UFFF ....|A-4 2FF7 ....
 F-4|..|F-2 2A.F ....|--- .... ....|A-4 2FF7 ....
....|..|R-- .... ....|--- .... ....|R-- .... ....
....|..|--- .... ....|--- .... ....|--- .... ....
....|..|C-4 AF.F ....|F-5 UFF7 ....|C-4 2F1F ....
 E-4|..|E-2 2A.F ....|--- .... ....|--- .... ....
....|..|R-- .... ....|--- .... ....|R-- .... ....
....|..|--- .... ....|--- .... ....|--- .... ....
....|..|C-4 LF.F ....|F-5 UFFA ....|C-5 2FFF ....
 E-4|..|E-2 2A.F ....|--- .... ....|R-- .... ....
....|..|R-- .... ....|--- .... ....|--- .... ....
....|..|--- .... ....|--- .... ....|C-4 2FAA ....
....|..|C-4 AF.F ....|E-5 UFF7 ....|C-5 2FFF ....
 E-4|..|E-2 2A.F ....|--- .... ....|--- .... ....
....|..|R-- .... ....|--- .... ....|R-- .... ....
....|..|--- .... ....|--- .... ....|--- .... ....
....|..|C-4 LF.F ....|--- .... ....|A-4 2FF7 ....
 E-4|..|E-2 2A.F ....|--- .... ....|--- .... ....
....|..|R-- .... ....|--- .... ....|R-- .... ....
....|..|--- .... ....|--- .... ....|--- .... ....
....|..|C-4 AF.F ....|F-5 UFF7 ....|C-5 2FFF ....
 E-4|..|E-2 2A.F ....|--- .... ....|R-- .... ....
....|..|R-- .... ....|--- .... ....|R-- .... ....
....|..|--- .... ....|--- .... ....|C-4 2FA7 ....
....|..|C-4 LF.F ....|C-5 UFF7 ....|C-5 2FFF ....
 E-4|..|E-2 2A.F ....|--- .... ....|--- .... ....
....|..|R-- .... ....|--- .... ....|R-- .... ....
....|..|--- .... ....|--- .... ....|--- .... ....
....|..|C-4 AF.F ....|--- .... ....|C-4 2F17 ....
 E-4|..|E-2 2A.F ....|--- .... ....|--- .... ....
....|..|R-- .... ....|--- .... ....|--- .... ....
....|..|--- .... ....|--- .... ....|E-4 2F9F ....
....|..|C-4 LF.F ....|--- .... ....|C-5 2FF7 ....
 E-4|..|E-2 2A.F ....|--- .... ....|R-- .... ....
....|..|R-- .... ....|--- .... ....|R-- .... ....
....|..|--- .... ....|--- .... ....|--- .... ....

[Pattern26]
....|..|C-4 AF.F ....|--- .... ....|C-4 2F5F ....
 D-4|..|D-2 2A.F ....|--- .... ....|--- .... ....
....|..|R-- .... ....|--- .... ....|R-- .... ....
....|..|--- .... ....|--- .... ....|--- .... ....
....|..|C-4 LF.F ....|R-- .... ....|A-4 2FFF ....
 D-4|..|D-2 2A.F ....|--- .... ....|R-- .... ....
....|..|R-- .... ....|--- .... ....|--- .... ....
....|..|--- .... ....|--- .... ....|E-4 2F9A ....
....|..|C-4 AF.F ....|F-5 UFFF ....|A-4 2FFF ....
 D-4|..|D-2 2A.F ....|--- .... ....|--- .... ....
....|..|R-- .... ....|--- .... ....|R-- .... ....
....|..|--- .... ....|--- .... ....|--- .... ....
....|..|C-4 LF.F ....|--- .... ....|C-5 2FF7 ....
 D-4|..|D-2 2A.F ....|--- .... ....|--- .... ....
....|..|R-- .... ....|--- .... ....|R-- .... ....
....|..|--- .... ....|--- .... ....|--- .... ....
....|..|C-4 AF.F ....|E-5 UFFF ....|A-4 2FFF ....
 D-4|..|D-2 2A.F ....|--- .... ....|A-4 2FFF ....
....|..|R-- .... ....|--- .... ....|R-- .... ....
....|..|--- .... ....|--- .... ....|E-4 2F97 ....
....|..|C-4 LF.F ....|F-5 UFFA ....|A-4 2FFF ....
 D-4|..|D-2 2A.F ....|--- .... ....|--- .... ....
....|..|R-- .... ....|--- .... ....|R-- .... ....
....|..|--- .... ....|--- .... ....|C-4 2F5F ....
....|..|C-4 AF.F ....|F-5 UFFF ....|C-4 2F57 ....
 D-4|..|D-2 2A.F ....|--- .... ....|--- .... ....
....|..|R-- .... ....|--- .... ....|--- .... ....
....|..|--- .... ....|--- .... ....|--- .... ....
....|..|C-4 LF.F ....|A-5 UFFF ....|C-4 2FAF ....
 D-4|..|D-2 2A.F ....|--- .... ....|A-4 2FFA ....
....|..|R-- .... ....|--- .... ....|R-- .... ....
....|..|--- .... ....|--- .... ....|--- .... ....
....|..|C-4 AF.F ....|F-5 UFF7 ....|C-4 2F4F ....
 C-4|..|C-2 2A.F ....|--- .... ....|--- .... ....
....|..|R-- .... ....|--- .... ....|R-- .... ....
....|..|--- .... ....|--- .... ....|C-4 2F5A ....
....|..|C-4 LF.F ....|F-5 UFFA ....|A-4 2FFF ....
 C-4|..|C-2 2A.F ....|--- .... ....|R-- .... ....
....|..|R-- .... ....|--- .... ....|--- .... ....
....|..|--- .... ....|--- .... ....|--- .... ....
....|..|C-4 AF.F ....|E-5 UFF7 ....|A-4 2FFF ....
 C-4|..|C-2 2A.F ....|--- .... ....|A-4 2FF7 ....
....|..|R-- .... ....|--- .... ....|R-- .... ....
....|..|--- .... ....|--- .... ....|--- .... ....
....|..|C-4 LF.F ....|--- .... ....|A-4 2FF7 ....
 C-4|..|C-2 2A.F ....|--- .... ....|--- .... ....
....|..|R-- .... ....|--- .... ....|R-- .... ....
....|..|--- .... ....|--- .... ....|C-4 2F57 ....
....|..|C-4 AF.F ....|F-5 UFF7 ....|A-4 2FFF ....
 C-4|..|C-2 2A.F ....|--- .... ....|A-4 2FFF ....
....|..|R-- .... ....|--- .... ....|R-- .... ....
....|..|--- .... ....|--- .... ....|--- .... ....
....|..|C-4 CF.F ....|A-5 UFF7 ....|A-4 2FFF ....
 C-4|..|C-2 2A.F ....|--- .... ....|A-4 2FFF ....
....|..|R-- .... ....|--- .... ....|R-- .... ....
....|..|--- .... ....|--- .... ....|--- .... ....
....|..|C-4 AF.F ....|--- .... ....|C-4 2F47 ....
 C-4|..|C-2 2A.F ....|--- .... ....|--- .... ....
....|..|R-- .... ....|--- .... ....|R-- .... ....
....|..|--- .... ....|--- .... ....|--- .... ....
....|..|C-4 9F.F ....|--- .... ....|A-4 2FF7 ....
 C-4|..|C-2 2A.F ....|--- .... ....|A-4 2FFA ....
....|..|R-- .... ....|--- .... ....|R-- .... ....
....|..|--- .... ....|--- .... ....|--- .... ....

[Pattern27]
....|..|C-4 AF.F ....|A#6 3F.F ....|A#3 2F1F ....
 A#3|..|A#1 2A.F ....|--- .... ....|A-4 2FFA ....
....|..|R-- .... ....|--- .... ....|R-- .... ....
....|..|--- .... ....|--- .... ....|--- .... ....
....|..|C-4 LF.F ....|A#6 3F.F ....|A#4 2FFF ....
 A#3|..|A#1 2A.F ....|--- .... ....|R-- .... ....
....|..|R-- .... ....|--- .... ....|R-- .... ....
....|..|--- .... ....|--- .... ....|--- .... ....
....|..|C-4 AF.F ....|A#6 3F.F ....|A#4 2FFF ....
 A#3|..|A#1 2A.F ....|--- .... ....|A#4 2FFF ....
....|..|R-- .... ....|--- .... ....|R-- .... ....
....|..|--- .... ....|--- .... ....|--- .... ....
....|..|C-4 LF.F ....|A#6 3F.F ....|A-4 2FF7 ....
 A#3|..|A#1 2A.F ....|--- .... ....|A-4 2FF7 ....
....|..|R-- .... ....|--- .... ....|R-- .... ....
....|..|--- .... ....|--- .... ....|--- .... ....
....|..|C-4 AF.F ....|A#6 3F.F ....|C-4 2F1F ....
 A#3|..|A#1 2A.F ....|--- .... ....|R-- .... ....
....|..|R-- .... ....|--- .... ....|R-- .... ....
....|..|--- .... ....|--- .... ....|--- .... ....
....|..|C-4 LF.F ....|A#6 3F.A ....|A#4 2FFF ....
 A#3|..|A#1 2A.F ....|--- .... ....|A#4 2FFA ....
....|..|R-- .... ....|--- .... ....|R-- .... ....
....|..|--- .... ....|--- .... ....|--- .... ....
....|..|C-4 AF.F ....|A#6 3F.7 ....|A#3 2F17 ....
 A#3|..|A#1 2A.F ....|--- .... ....|--- .... ....
....|..|R-- .... ....|--- .... ....|--- .... ....
....|..|--- .... ....|--- .... ....|--- .... ....
....|..|C-4 LF.F ....|A#6 3F.7 ....|A#4 2FF7 ....
 A#3|..|A#1 2A.F ....|--- .... ....|R-- .... ....
....|..|R-- .... ....|A#6 3F.F ....|--- .... ....
....|..|--- .... ....|--- .... ....|--- .... ....
....|..|C-4 AF.F ....|A-6 3F.F ....|C-4 2F1F ....
 A-3|..|A-1 2A.F ....|--- .... ....|A#4 2FF7 ....
....|..|R-- .... ....|--- .... ....|R-- .... ....
....|..|--- .... ....|--- .... ....|--- .... ....
....|..|C-4 LF.F ....|A-6 3F.F ....|A-4 2FFF ....
 A-3|..|A-1 2A.F ....|--- .... ....|R-- .... ....
....|..|R-- .... ....|--- .... ....|--- .... ....
....|..|--- .... ....|--- .... ....|--- .... ....
....|..|C-4 AF.F ....|A-6 3F.F ....|A-4 2FFF ....
 A-3|..|A-1 2A.F ....|--- .... ....|R-- .... ....
....|..|R-- .... ....|A#6 3F.A ....|R-- .... ....
....|..|--- .... ....|--- .... ....|--- .... ....
....|..|C-4 LF.F ....|A-6 3F.F ....|A#4 2FF7 ....
 A-3|..|A-1 2A.F ....|--- .... ....|R-- .... ....
....|..|R-- .... ....|--- .... ....|--- .... ....
....|..|--- .... ....|--- .... ....|--- .... ....
....|..|C-4 AF.F ....|A-6 3F.F ....|C-4 2F5F ....
 D-4|..|D-2 2A.F ....|--- .... ....|A-4 2FFF ....
....|..|R-- .... ....|--- .... ....|R-- .... ....
....|..|--- .... ....|--- .... ....|--- .... ....
....|..|C-4 LF.F ....|A-6 3F.A ....|A-4 2FFF ....
 D-4|..|D-2 2A.F ....|--- .... ....|--- .... ....
....|..|R-- .... ....|A#6 3F.7 ....|R-- .... ....
....|..|--- .... ....|--- .... ....|--- .... ....
....|..|C-4 AF.F ....|A-6 3F.7 ....|C-4 2F17 ....
 D-4|..|D-2 2A.F ....|--- .... ....|--- .... ....
....|..|R-- .... ....|--- .... ....|--- .... ....
....|..|--- .... ....|--- .... ....|--- .... ....
....|..|C-4 LF.F ....|A-6 3F.F ....|A-4 2FF7 ....
 D-4|..|D-2 2A.F ....|--- .... ....|A-4 2FFA ....
....|..|R-- .... ....|--- .... ....|R-- .... ....
....|..|--- .... ....|--- .... ....|--- .... ....

[Pattern28]
....|..|C-4 AF.F ....|A#5 3F.F ....|A#3 2F1F ....
 G-3|..|G-1 2A.F ....|--- .... ....|--- .... ....
....|..|R-- .... ....|--- .... ....|R-- .... ....
....|..|--- .... ....|--- .... ....|--- .... ....
....|..|C-4 LF.F ....|A-6 3F.7 ....|A#4 2FFF ....
 G-3|..|G-1 2A.F ....|--- .... ....|R-- .... ....
....|..|R-- .... ....|--- .... ....|--- .... ....
....|..|--- .... ....|--- .... ....|--- .... ....
....|..|C-4 AF.F ....|A-6 3F.7 ....|A#4 2FFF ....
 G-3|..|G-1 2A.F ....|--- .... ....|A-4 2FF7 ....
....|..|R-- .... ....|--- .... ....|R-- .... ....
....|..|--- .... ....|--- .... ....|--- .... ....
....|..|C-4 LF.F ....|A#5 3F.A ....|A-4 2FF7 ....
 G-3|..|G-1 2A.F ....|--- .... ....|--- .... ....
....|..|R-- .... ....|--- .... ....|R-- .... ....
....|..|--- .... ....|--- .... ....|--- .... ....
....|..|C-4 AF.F ....|--- .... ....|A#4 2FFF ....
 G-3|..|G-1 2A.F ....|--- .... ....|R-- .... ....
....|..|R-- .... ....|--- .... ....|R-- .... ....
....|..|--- .... ....|--- .... ....|--- .... ....
....|..|C-4 LF.F ....|A-6 3F.7 ....|A#4 2FFF ....
 G-3|..|G-1 2A.F ....|--- .... ....|--- .... ....
....|..|R-- .... ....|--- .... ....|R-- .... ....
....|..|--- .... ....|--- .... ....|--- .... ....
....|..|C-4 AF.F ....|A#5 3F.7 ....|A#3 2F17 ....
 G-3|..|G-1 2A.F ....|--- .... ....|--- .... ....
....|..|R-- .... ....|--- .... ....|--- .... ....
....|..|--- .... ....|--- .... ....|D-4 2F9F ....
....|..|C-4 LF.F ....|--- .... ....|A#4 2FF7 ....
 G-3|..|G-1 2A.F ....|--- .... ....|R-- .... ....
....|..|R-- .... ....|--- .... ....|R-- .... ....
....|..|--- .... ....|--- .... ....|--- .... ....
....|..|C-4 AF.F ....|D-6 3F.F ....|G-3 2F9F ....
 C-4|..|C-2 2A.F ....|--- .... ....|--- .... ....
....|..|R-- .... ....|--- .... ....|R-- .... ....
....|..|--- .... ....|--- .... ....|--- .... ....
....|..|C-4 LF.F ....|--- .... ....|A#4 2FFF ....
 C-4|..|C-2 2A.F ....|--- .... ....|A#4 2FFF ....
....|..|R-- .... ....|--- .... ....|R-- .... ....
....|..|--- .... ....|--- .... ....|D-4 2F9A ....
....|..|C-4 AF.F ....|--- .... ....|A#4 2FFF ....
 C-4|..|C-2 2A.F ....|--- .... ....|--- .... ....
....|..|R-- .... ....|--- .... ....|R-- .... ....
....|..|--- .... ....|--- .... ....|--- .... ....
....|..|C-4 LF.F ....|D-6 3F.A ....|A#4 2FF7 ....
....|..|C-4 LF.F ....|--- .... ....|--- .... ....
 C-4|..|C-2 2A.F ....|--- .... ....|R-- .... ....
....|..|C-4 LF.F ....|--- .... ....|--- .... ....
....|..|C-4 AF.F ....|--- .... ....|A#4 2FFF ....
 C-4|..|C-2 2A.F ....|--- .... ....|A#4 2FFA ....
....|..|R-- .... ....|--- .... ....|R-- .... ....
....|..|--- .... ....|--- .... ....|D-4 2F97 ....
....|..|C-4 LF.F ....|--- .... ....|A#4 2FFF ....
 C-4|..|C-2 2A.F ....|--- .... ....|--- .... ....
....|..|R-- .... ....|--- .... ....|R-- .... ....
....|..|--- .... ....|--- .... ....|--- .... ....
....|..|C-4 AF.F ....|D-6 3F.7 ....|G-3 2F97 ....
 C-4|..|C-2 2A.F ....|--- .... ....|--- .... ....
....|..|C-2 2F.A ....|--- .... ....|--- .... ....
....|..|C-4 LF.A ....|--- .... ....|--- .... ....
....|..|C-4 CF.F ....|--- .... ....|A#4 2FF7 ....
 C-4|..|C-2 2A.F ....|--- .... ....|A#4 2FF7 ....
....|..|R-- .... ....|--- .... ....|R-- .... ....
....|..|--- .... ....|R-- .... ....|--- .... ....

[Pattern29]
....|..|C-4 AF.F ....|--- .... ....|C-4 2F5F ....
 F-4|..|F-2 2A.F ....|--- .... ....|--- .... ....
....|..|R-- .... ....|--- .... ....|R-- .... ....
....|..|--- .... ....|--- .... ....|--- .... ....
....|..|B-8 JF.F ....|--- .... ....|A-4 2FFF ....
 F-4|..|F-2 2A.F ....|--- .... ....|--- .... ....
....|..|C-2 2F.7 ....|--- .... ....|--- .... ....
....|..|C-4 LF.7 ....|--- .... ....|R-- .... ....
....|..|C-4 AF.F ....|F-5 UFFF ....|A#4 2FF7 ....
 F-4|..|F-2 2A.F ....|--- .... ....|R-- .... ....
....|..|R-- .... ....|--- .... ....|--- .... ....
....|..|--- .... ....|R-- .... ....|--- .... ....
....|..|B-8 JF.F ....|--- .... ....|A-4 2FFF ....
 F-4|..|F-2 2A.F ....|--- .... ....|--- .... ....
....|..|R-- .... ....|--- .... ....|R-- .... ....
....|..|--- .... ....|R-- .... ....|R-- .... ....
....|..|C-4 AF.F ....|E-5 UFFF ....|A-4 2FFA ....
 F-4|..|F-2 2A.F ....|--- .... ....|--- .... ....
....|..|R-- .... ....|--- .... ....|--- .... ....
....|..|--- .... ....|--- .... ....|R-- .... ....
....|..|B-8 JF.F ....|F-5 UFFA ....|--- .... ....
 F-4|..|F-2 2A.F ....|--- .... ....|--- .... ....
....|..|R-- .... ....|--- .... ....|--- .... ....
....|..|--- .... ....|R-- .... ....|--- .... ....
....|..|C-4 AF.F ....|F-5 UFFF ....|C-4 2F57 ....
 F-4|..|F-2 2A.F ....|--- .... ....|--- .... ....
....|..|R-- .... ....|--- .... ....|--- .... ....
....|..|--- .... ....|R-- .... ....|R-- .... ....
....|..|B-8 JF.F ....|C-5 UFFF ....|A-4 2FF7 ....
 F-4|..|F-2 2A.F ....|--- .... ....|--- .... ....
....|..|R-- .... ....|--- .... ....|--- .... ....
....|..|--- .... ....|--- .... ....|R-- .... ....
....|..|C-4 AF.F ....|F-5 UFF7 ....|C-4 2F1F ....
 E-4|..|E-2 2A.F ....|--- .... ....|--- .... ....
....|..|R-- .... ....|--- .... ....|--- .... ....
....|..|--- .... ....|R-- .... ....|--- .... ....
....|..|B-8 JF.F ....|F-5 UFFA ....|C-5 2FFF ....
 E-4|..|E-2 2A.F ....|--- .... ....|--- .... ....
....|..|R-- .... ....|--- .... ....|--- .... ....
....|..|--- .... ....|R-- .... ....|R-- .... ....
....|..|C-4 AF.F ....|E-5 UFF7 ....|--- .... ....
 E-4|..|E-2 2A.F ....|--- .... ....|--- .... ....
....|..|R-- .... ....|--- .... ....|--- .... ....
....|..|--- .... ....|--- .... ....|--- .... ....
....|..|B-8 JF.F ....|--- .... ....|C-5 2FFF ....
 E-4|..|E-2 2A.F ....|--- .... ....|--- .... ....
....|..|R-- .... ....|--- .... ....|--- .... ....
....|..|--- .... ....|R-- .... ....|--- .... ....
....|..|C-4 AF.F ....|F-5 UFF7 ....|C-5 2FFA ....
 E-4|..|E-2 2A.F ....|--- .... ....|--- .... ....
....|..|R-- .... ....|--- .... ....|--- .... ....
....|..|--- .... ....|R-- .... ....|R-- .... ....
....|..|B-8 JF.F ....|C-5 UFF7 ....|--- .... ....
 E-4|..|E-2 2A.F ....|--- .... ....|--- .... ....
....|..|R-- .... ....|--- .... ....|--- .... ....
....|..|--- .... ....|--- .... ....|--- .... ....
....|..|C-4 AF.F ....|--- .... ....|C-4 2F17 ....
 E-4|..|E-2 2A.F ....|--- .... ....|--- .... ....
....|..|R-- .... ....|--- .... ....|--- .... ....
....|..|--- .... ....|--- .... ....|--- .... ....
....|..|B-8 JF.F ....|R-- .... ....|C-5 2FF7 ....
 E-4|..|E-2 2A.F ....|--- .... ....|--- .... ....
....|..|R-- .... ....|--- .... ....|--- .... ....
....|..|--- .... ....|--- .... ....|R-- .... ....

[Pattern30]
....|..|C-4 AF.F ....|--- .... ....|D-4 2F6F ....
 D-4|..|D-2 2A.F ....|--- .... ....|--- .... ....
....|..|R-- .... ....|--- .... ....|--- .... ....
....|..|--- .... ....|--- .... ....|--- .... ....
....|..|B-8 JF.F ....|--- .... ....|A-4 2FFF ....
 D-4|..|D-2 2A.F ....|--- .... ....|--- .... ....
....|..|R-- .... ....|--- .... ....|--- .... ....
....|..|--- .... ....|--- .... ....|R-- .... ....
....|..|C-4 AF.F ....|F-5 UFFF ....|R-- .... ....
 D-4|..|D-2 2A.F ....|--- .... ....|--- .... ....
....|..|R-- .... ....|--- .... ....|--- .... ....
....|..|--- .... ....|--- .... ....|--- .... ....
....|..|B-8 JF.F ....|--- .... ....|A-4 2FFF ....
 D-4|..|D-2 2A.F ....|--- .... ....|--- .... ....
....|..|R-- .... ....|--- .... ....|--- .... ....
....|..|--- .... ....|R-- .... ....|--- .... ....
....|..|C-4 AF.F ....|E-5 UFFF ....|A-4 2FFA ....
 D-4|..|D-2 2A.F ....|--- .... ....|--- .... ....
....|..|R-- .... ....|--- .... ....|--- .... ....
....|..|--- .... ....|--- .... ....|R-- .... ....
....|..|B-8 JF.F ....|F-5 UFFA ....|--- .... ....
 D-4|..|D-2 2A.F ....|--- .... ....|--- .... ....
....|..|R-- .... ....|--- .... ....|--- .... ....
....|..|--- .... ....|R-- .... ....|--- .... ....
....|..|C-4 AF.F ....|F-5 UFFF ....|D-4 2F67 ....
 D-4|..|D-2 2A.F ....|--- .... ....|--- .... ....
....|..|R-- .... ....|--- .... ....|--- .... ....
....|..|--- .... ....|R-- .... ....|--- .... ....
....|..|B-8 JF.F ....|A-5 UFFF ....|A-4 2FF7 ....
 D-4|..|D-2 2A.F ....|--- .... ....|--- .... ....
....|..|R-- .... ....|--- .... ....|--- .... ....
....|..|--- .... ....|--- .... ....|R-- .... ....
....|..|C-4 AF.F ....|F-5 UFF7 ....|C-4 2F4F ....
 C-4|..|C-2 2A.F ....|--- .... ....|--- .... ....
....|..|R-- .... ....|--- .... ....|--- .... ....
....|..|--- .... ....|R-- .... ....|--- .... ....
....|..|B-8 JF.F ....|F-5 UFFA ....|A-4 2FFF ....
 C-4|..|C-2 2A.F ....|--- .... ....|--- .... ....
....|..|R-- .... ....|--- .... ....|--- .... ....
....|..|--- .... ....|R-- .... ....|R-- .... ....
....|..|C-4 AF.F ....|E-5 UFF7 ....|R-- .... ....
 C-4|..|C-2 2A.F ....|--- .... ....|--- .... ....
....|..|R-- .... ....|--- .... ....|--- .... ....
....|..|--- .... ....|--- .... ....|--- .... ....
....|..|B-8 JF.F ....|--- .... ....|A-4 2FFF ....
 C-4|..|C-2 2A.F ....|--- .... ....|--- .... ....
....|..|R-- .... ....|--- .... ....|--- .... ....
....|..|--- .... ....|R-- .... ....|A-4 2FFF ....
....|..|C-4 AF.F ....|F-5 UFF7 ....|A-4 2FFA ....
 C-4|..|C-2 2A.F ....|--- .... ....|--- .... ....
....|..|R-- .... ....|--- .... ....|--- .... ....
....|..|--- .... ....|--- .... ....|R-- .... ....
....|..|B-8 JF.F ....|A-5 UFF7 ....|--- .... ....
 C-4|..|C-2 2A.F ....|--- .... ....|--- .... ....
....|..|R-- .... ....|--- .... ....|--- .... ....
....|..|--- .... ....|--- .... ....|--- .... ....
....|..|C-4 AF.F ....|--- .... ....|C-4 2F47 ....
 C-4|..|C-2 2A.F ....|--- .... ....|--- .... ....
....|..|R-- .... ....|--- .... ....|--- .... ....
....|..|--- .... ....|--- .... ....|A-4 2FFA ....
....|..|B-8 JF.F ....|R-- .... ....|A-4 2FF7 ....
 C-4|..|C-2 2A.F ....|--- .... ....|--- .... ....
....|..|R-- .... ....|--- .... ....|--- .... ....
....|..|--- .... ....|--- .... ....|R-- .... ....

[Pattern31]
....|..|C-4 AF.F ....|A#5 UFFF ....|A#3 2F1F ....
 A#3|..|A#1 2A.F ....|--- .... ....|--- .... ....
....|..|R-- .... ....|--- .... ....|--- .... ....
....|..|--- .... ....|--- .... ....|--- .... ....
....|..|B-8 JF.F ....|--- .... ....|A#4 2FFF ....
 A#3|..|A#1 2A.F ....|--- .... ....|--- .... ....
....|..|R-- .... ....|--- .... ....|--- .... ....
....|..|--- .... ....|R-- .... ....|A-4 2FF7 ....
....|..|C-4 AF.F ....|A-5 UFFF ....|R-- .... ....
 A#3|..|A#1 2A.F ....|--- .... ....|--- .... ....
....|..|R-- .... ....|--- .... ....|--- .... ....
....|..|--- .... ....|--- .... ....|--- .... ....
....|..|B-8 JF.F ....|A#5 UFFA ....|A#4 2FFF ....
 A#3|..|A#1 2A.F ....|--- .... ....|--- .... ....
....|..|R-- .... ....|--- .... ....|--- .... ....
....|..|--- .... ....|--- .... ....|R-- .... ....
....|..|C-4 AF.F ....|G-5 UFFF ....|A#4 2FFA ....
 A#3|..|A#1 2A.F ....|--- .... ....|--- .... ....
....|..|R-- .... ....|--- .... ....|--- .... ....
....|..|--- .... ....|R-- .... ....|R-- .... ....
....|..|B-8 JF.F ....|A-5 UFFA ....|--- .... ....
 A#3|..|A#1 2A.F ....|--- .... ....|--- .... ....
....|..|R-- .... ....|--- .... ....|--- .... ....
....|..|--- .... ....|R-- .... ....|--- .... ....
....|..|C-4 AF.F ....|F-5 UFFF ....|A#3 2F17 ....
 A#3|..|A#1 2A.F ....|--- .... ....|--- .... ....
....|..|R-- .... ....|--- .... ....|--- .... ....
....|..|--- .... ....|--- .... ....|R-- .... ....
....|..|B-8 JF.F ....|A#5 UFFF ....|A#4 2FF7 ....
 A#3|..|A#1 2A.F ....|--- .... ....|--- .... ....
....|..|R-- .... ....|--- .... ....|--- .... ....
....|..|--- .... ....|R-- .... ....|R-- .... ....
....|..|C-4 AF.F ....|A-5 UFF7 ....|A#3 2F6F ....
 A#3|..|A#1 2A.F ....|--- .... ....|--- .... ....
....|..|R-- .... ....|--- .... ....|--- .... ....
....|..|--- .... ....|R-- .... ....|--- .... ....
....|..|B-8 JF.F ....|F-5 UFFA ....|A#4 2FFF ....
 A#3|..|A#1 2A.F ....|--- .... ....|--- .... ....
....|..|R-- .... ....|--- .... ....|--- .... ....
....|..|--- .... ....|R-- .... ....|R-- .... ....
....|..|C-4 AF.F ....|A-5 UFFF ....|--- .... ....
 A#3|..|A#1 2A.F ....|--- .... ....|--- .... ....
....|..|R-- .... ....|--- .... ....|--- .... ....
....|..|--- .... ....|--- .... ....|--- .... ....
....|..|B-8 JF.F ....|--- .... ....|A#4 2FFF ....
 A#3|..|A#1 2A.F ....|--- .... ....|--- .... ....
....|..|R-- .... ....|--- .... ....|--- .... ....
....|..|--- .... ....|R-- .... ....|R-- .... ....
....|..|C-4 AF.F ....|G-5 UFFF ....|A#4 2FFA ....
 A#3|..|A#1 2A.F ....|--- .... ....|--- .... ....
....|..|R-- .... ....|--- .... ....|--- .... ....
....|..|--- .... ....|R-- .... ....|R-- .... ....
....|..|B-8 JF.F ....|A#5 UFF7 ....|--- .... ....
 A#3|..|A#1 2A.F ....|--- .... ....|--- .... ....
....|..|R-- .... ....|--- .... ....|--- .... ....
....|..|--- .... ....|R-- .... ....|--- .... ....
....|..|C-4 AF.F ....|F-5 UFFF ....|A#3 2F67 ....
 A#3|..|A#1 2A.F ....|--- .... ....|--- .... ....
....|..|R-- .... ....|--- .... ....|--- .... ....
....|..|--- .... ....|R-- .... ....|R-- .... ....
....|..|B-8 JF.F ....|G-5 UFFA ....|A#4 2FF7 ....
 A#3|..|A#1 2A.F ....|--- .... ....|--- .... ....
....|..|R-- .... ....|R-- .... ....|--- .... ....
....|..|--- .... ....|R-- .... ....|R-- .... ....

[Pattern32]
....|..|C-4 AF.F ....|F-5 UFFF ....|D-4 2F2F ....
 C-4|..|C-2 2A.F ....|--- .... ....|--- .... ....
....|..|R-- .... ....|--- .... ....|--- .... ....
....|..|--- .... ....|R-- .... ....|--- .... ....
....|..|B-8 JF.F ....|F-5 UFFA ....|A#4 2FFF ....
 C-4|..|C-2 2A.F ....|--- .... ....|--- .... ....
....|..|R-- .... ....|--- .... ....|--- .... ....
....|..|--- .... ....|R-- .... ....|R-- .... ....
....|..|C-4 AF.F ....|G-5 UFF7 ....|--- .... ....
 C-4|..|C-2 2A.F ....|--- .... ....|--- .... ....
....|..|R-- .... ....|R-- .... ....|--- .... ....
....|..|--- .... ....|R-- .... ....|--- .... ....
....|..|B-8 JF.F ....|G-5 UFFF ....|A#4 2FFF ....
 C-4|..|C-2 2A.F ....|--- .... ....|--- .... ....
....|..|R-- .... ....|R-- .... ....|--- .... ....
....|..|--- .... ....|R-- .... ....|R-- .... ....
....|..|C-4 AF.F ....|G-5 UFFF ....|A#4 2FFA ....
 C-4|..|C-2 2A.F ....|--- .... ....|--- .... ....
....|..|R-- .... ....|--- .... ....|--- .... ....
....|..|--- .... ....|--- .... ....|R-- .... ....
....|..|B-8 JF.F ....|--- .... ....|--- .... ....
 C-4|..|C-2 2A.F ....|--- .... ....|--- .... ....
....|..|R-- .... ....|R-- .... ....|--- .... ....
....|..|--- .... ....|R-- .... ....|--- .... ....
....|..|C-4 AF.F ....|F-5 UFF7 ....|D-4 2F27 ....
 C-4|..|C-2 2A.F ....|--- .... ....|--- .... ....
....|..|R-- .... ....|R-- .... ....|--- .... ....
....|..|--- .... ....|--- .... ....|R-- .... ....
....|..|B-8 JF.F ....|G-5 UFFA ....|A#4 2FF7 ....
 C-4|..|C-2 2A.F ....|--- .... ....|--- .... ....
....|..|R-- .... ....|--- .... ....|--- .... ....
....|..|--- .... ....|--- .... ....|R-- .... ....
....|..|C-4 AF.F ....|R-- .... ....|D-4 2F2F ....
 C-4|..|C-2 2A.F ....|--- .... ....|--- .... ....
....|..|R-- .... ....|--- .... ....|--- .... ....
....|..|--- .... ....|R-- .... ....|--- .... ....
....|..|B-8 JF.F ....|G-5 UFF7 ....|A#4 2FFF ....
 C-4|..|C-2 2A.F ....|--- .... ....|--- .... ....
....|..|R-- .... ....|R-- .... ....|--- .... ....
....|..|--- .... ....|--- .... ....|R-- .... ....
....|..|C-4 AF.F ....|G-5 UFF7 ....|--- .... ....
 C-4|..|C-2 2A.F ....|--- .... ....|--- .... ....
....|..|R-- .... ....|--- .... ....|--- .... ....
....|..|--- .... ....|--- .... ....|--- .... ....
....|..|B-8 JF.F ....|R-- .... ....|C-5 2FFF ....
 C-4|..|C-2 2A.F ....|--- .... ....|--- .... ....
....|..|R-- .... ....|--- .... ....|--- .... ....
....|..|--- .... ....|--- .... ....|R-- .... ....
....|..|C-4 AF.F ....|--- .... ....|A#4 2FFA ....
 C-4|..|C-2 2A.F ....|--- .... ....|--- .... ....
....|..|R-- .... ....|--- .... ....|--- .... ....
....|..|--- .... ....|--- .... ....|R-- .... ....
....|..|B-8 JF.F ....|--- .... ....|--- .... ....
 C-4|..|C-2 2A.F ....|--- .... ....|--- .... ....
....|..|R-- .... ....|--- .... ....|--- .... ....
....|..|--- .... ....|--- .... ....|--- .... ....
....|..|C-4 AF.F ....|R-- .... ....|D-4 2F27 ....
 C-4|..|C-2 2A.F ....|--- .... ....|--- .... ....
....|..|R-- .... ....|--- .... ....|--- .... ....
....|..|--- .... ....|--- .... ....|R-- .... ....
....|..|C-4 9F.F ....|--- .... ....|A#4 2FF7 ....
 C-4|..|C-2 2A.F ....|--- .... ....|--- .... ....
....|..|R-- .... ....|--- .... ....|--- .... ....
....|..|--- .... ....|--- .... ....|R-- .... ....

[Pattern33]
....|..|C-4 AF.F ....|--- .... ....|C-4 2F5F ....
 F-4|..|F-2 2A.F ....|--- .... ....|--- .... ....
....|..|R-- .... ....|--- .... ....|--- .... ....
....|..|--- .... ....|--- .... ....|--- .... ....
....|..|B-8 JF.F ....|--- .... ....|A-4 2FFF ....
 F-4|..|F-2 2A.F ....|--- .... ....|--- .... ....
....|..|R-- .... ....|--- .... ....|--- .... ....
....|..|--- .... ....|--- .... ....|R-- .... ....
....|..|C-4 AF.F ....|F-5 UFFF ....|--- .... ....
 F-4|..|F-2 2A.F ....|--- .... ....|--- .... ....
....|..|R-- .... ....|--- .... ....|--- .... ....
....|..|--- .... ....|--- .... ....|--- .... ....
....|..|B-8 JF.F ....|--- .... ....|A-4 2FFF ....
 F-4|..|F-2 2A.F ....|--- .... ....|--- .... ....
....|..|R-- .... ....|--- .... ....|--- .... ....
....|..|--- .... ....|R-- .... ....|R-- .... ....
....|..|C-4 AF.F ....|E-5 UFFF ....|A-4 2FFA ....
 F-4|..|F-2 2A.F ....|--- .... ....|--- .... ....
....|..|R-- .... ....|--- .... ....|--- .... ....
....|..|--- .... ....|--- .... ....|R-- .... ....
....|..|B-8 JF.F ....|F-5 UFFA ....|--- .... ....
 F-4|..|F-2 2A.F ....|--- .... ....|--- .... ....
....|..|R-- .... ....|--- .... ....|--- .... ....
....|..|--- .... ....|R-- .... ....|--- .... ....
....|..|C-4 AF.F ....|F-5 UFFF ....|C-4 2F57 ....
 F-4|..|F-2 2A.F ....|--- .... ....|--- .... ....
....|..|R-- .... ....|--- .... ....|--- .... ....
....|..|--- .... ....|R-- .... ....|R-- .... ....
....|..|B-8 JF.F ....|C-5 UFFF ....|A-4 2FF7 ....
 F-4|..|F-2 2A.F ....|--- .... ....|--- .... ....
....|..|R-- .... ....|--- .... ....|--- .... ....
....|..|--- .... ....|--- .... ....|R-- .... ....
....|..|C-4 AF.F ....|F-5 UFF7 ....|C-4 2F1F ....
 E-4|..|E-2 2A.F ....|--- .... ....|--- .... ....
....|..|R-- .... ....|--- .... ....|--- .... ....
....|..|--- .... ....|R-- .... ....|--- .... ....
....|..|B-8 JF.F ....|F-5 UFFA ....|C-5 2FFF ....
 E-4|..|E-2 2A.F ....|--- .... ....|--- .... ....
....|..|R-- .... ....|--- .... ....|--- .... ....
....|..|--- .... ....|R-- .... ....|R-- .... ....
....|..|C-4 AF.F ....|E-5 UFF7 ....|--- .... ....
 E-4|..|E-2 2A.F ....|--- .... ....|--- .... ....
....|..|R-- .... ....|--- .... ....|--- .... ....
....|..|--- .... ....|--- .... ....|--- .... ....
....|..|B-8 JF.F ....|--- .... ....|C-5 2FFF ....
 E-4|..|E-2 2A.F ....|--- .... ....|--- .... ....
....|..|R-- .... ....|--- .... ....|--- .... ....
....|..|--- .... ....|R-- .... ....|--- .... ....
....|..|C-4 AF.F ....|F-5 UFF7 ....|C-5 2FFA ....
 E-4|..|E-2 2A.F ....|--- .... ....|--- .... ....
....|..|R-- .... ....|--- .... ....|--- .... ....
....|..|--- .... ....|--- .... ....|R-- .... ....
....|..|B-8 JF.F ....|C-5 UFF7 ....|--- .... ....
 E-4|..|E-2 2A.F ....|--- .... ....|--- .... ....
....|..|R-- .... ....|--- .... ....|--- .... ....
....|..|--- .... ....|--- .... ....|--- .... ....
....|..|C-4 AF.F ....|--- .... ....|C-4 2F17 ....
 E-4|..|E-2 2A.F ....|--- .... ....|--- .... ....
....|..|R-- .... ....|--- .... ....|--- .... ....
....|..|--- .... ....|--- .... ....|--- .... ....
....|..|B-8 JF.F ....|R-- .... ....|C-5 2FF7 ....
 E-4|..|E-2 2A.F ....|--- .... ....|--- .... ....
....|..|R-- .... ....|--- .... ....|--- .... ....
....|..|--- .... ....|--- .... ....|R-- .... ....

[Pattern34]
....|..|C-4 AF.F ....|--- .... ....|D-4 2F6F ....
 D-4|..|D-2 2A.F ....|--- .... ....|--- .... ....
....|..|R-- .... ....|--- .... ....|--- .... ....
....|..|--- .... ....|--- .... ....|--- .... ....
....|..|B-8 JF.F ....|--- .... ....|A-4 2FFF ....
 D-4|..|D-2 2A.F ....|--- .... ....|--- .... ....
....|..|R-- .... ....|--- .... ....|--- .... ....
....|..|--- .... ....|--- .... ....|R-- .... ....
....|..|C-4 AF.F ....|F-5 UFFF ....|R-- .... ....
 D-4|..|D-2 2A.F ....|--- .... ....|--- .... ....
....|..|R-- .... ....|--- .... ....|--- .... ....
....|..|--- .... ....|--- .... ....|--- .... ....
....|..|B-8 JF.F ....|--- .... ....|A-4 2FFF ....
 D-4|..|D-2 2A.F ....|--- .... ....|--- .... ....
....|..|R-- .... ....|--- .... ....|--- .... ....
....|..|--- .... ....|R-- .... ....|R-- .... ....
....|..|C-4 AF.F ....|E-5 UFFF ....|A-4 2FFA ....
 D-4|..|D-2 2A.F ....|--- .... ....|--- .... ....
....|..|R-- .... ....|--- .... ....|--- .... ....
....|..|--- .... ....|--- .... ....|R-- .... ....
....|..|B-8 JF.F ....|F-5 UFFA ....|--- .... ....
 D-4|..|D-2 2A.F ....|--- .... ....|--- .... ....
....|..|R-- .... ....|--- .... ....|--- .... ....
....|..|--- .... ....|R-- .... ....|--- .... ....
....|..|C-4 AF.F ....|F-5 UFFF ....|D-4 2F67 ....
 D-4|..|D-2 2A.F ....|--- .... ....|--- .... ....
....|..|R-- .... ....|--- .... ....|--- .... ....
....|..|--- .... ....|R-- .... ....|R-- .... ....
....|..|B-8 JF.F ....|C-6 UFFF ....|A-4 2FF7 ....
 D-4|..|D-2 2A.F ....|--- .... ....|--- .... ....
....|..|R-- .... ....|--- .... ....|--- .... ....
....|..|--- .... ....|--- .... ....|R-- .... ....
....|..|C-4 AF.F ....|F-5 UFF7 ....|C-4 2F7F ....
 C-4|..|C-2 2A.F ....|--- .... ....|--- .... ....
....|..|R-- .... ....|--- .... ....|--- .... ....
....|..|--- .... ....|R-- .... ....|--- .... ....
....|..|B-8 JF.F ....|F-5 UFFA ....|C-5 2FFF ....
 C-4|..|C-2 2A.F ....|--- .... ....|--- .... ....
....|..|R-- .... ....|--- .... ....|--- .... ....
....|..|--- .... ....|R-- .... ....|C-5 2FFF ....
....|..|C-4 AF.F ....|E-5 UFF7 ....|R-- .... ....
 C-4|..|C-2 2A.F ....|--- .... ....|--- .... ....
....|..|R-- .... ....|--- .... ....|--- .... ....
....|..|--- .... ....|--- .... ....|--- .... ....
....|..|B-8 JF.F ....|--- .... ....|C-5 2FFF ....
 C-4|..|C-2 2A.F ....|--- .... ....|--- .... ....
....|..|R-- .... ....|--- .... ....|--- .... ....
....|..|--- .... ....|R-- .... ....|R-- .... ....
....|..|C-4 AF.F ....|F-5 UFF7 ....|D-4 2F1F ....
 D-4|..|D-2 2A.F ....|--- .... ....|--- .... ....
....|..|R-- .... ....|--- .... ....|--- .... ....
....|..|--- .... ....|--- .... ....|C-5 2FFA ....
....|..|B-8 JF.F ....|C-6 UFF7 ....|R-- .... ....
 D-4|..|D-2 2A.F ....|--- .... ....|--- .... ....
....|..|R-- .... ....|--- .... ....|--- .... ....
....|..|--- .... ....|--- .... ....|--- .... ....
....|..|C-4 AF.F ....|--- .... ....|C-4 2F77 ....
 D-4|..|D-2 2A.F ....|--- .... ....|--- .... ....
....|..|R-- .... ....|--- .... ....|--- .... ....
....|..|--- .... ....|--- .... ....|R-- .... ....
....|..|B-8 JF.F ....|R-- .... ....|C-5 2FF7 ....
 D-4|..|D-2 2A.F ....|--- .... ....|--- .... ....
....|..|R-- .... ....|--- .... ....|--- .... ....
....|..|--- .... ....|--- .... ....|C-5 2FF7 ....

[Pattern35]
....|..|C-4 AF.F ....|A#5 UFFF ....|D-4 2F8F ....
 G-4|..|G-2 2A.F ....|--- .... ....|--- .... ....
....|..|R-- .... ....|--- .... ....|--- .... ....
....|..|--- .... ....|R-- .... ....|--- .... ....
....|..|B-8 JF.F ....|A#5 UFFF ....|A#4 2FFF ....
 G-4|..|G-2 2A.F ....|--- .... ....|--- .... ....
....|..|R-- .... ....|--- .... ....|--- .... ....
....|..|--- .... ....|R-- .... ....|R-- .... ....
....|..|C-4 AF.F ....|A#5 UFFF ....|D-4 2F17 ....
 G-4|..|G-2 2A.F ....|--- .... ....|--- .... ....
....|..|R-- .... ....|--- .... ....|--- .... ....
....|..|--- .... ....|R-- .... ....|--- .... ....
....|..|B-8 JF.F ....|A#5 UFFF ....|A#4 2FFF ....
 G-4|..|G-2 2A.F ....|--- .... ....|--- .... ....
....|..|R-- .... ....|R-- .... ....|--- .... ....
....|..|--- .... ....|R-- .... ....|R-- .... ....
....|..|C-4 AF.F ....|A#5 UFFF ....|A#4 2FFA ....
 G-4|..|G-2 2A.F ....|--- .... ....|--- .... ....
....|..|R-- .... ....|--- .... ....|--- .... ....
....|..|--- .... ....|R-- .... ....|R-- .... ....
....|..|B-8 JF.F ....|A-5 UFFF ....|--- .... ....
 G-4|..|G-2 2A.F ....|--- .... ....|--- .... ....
....|..|R-- .... ....|--- .... ....|--- .... ....
....|..|--- .... ....|R-- .... ....|--- .... ....
....|..|C-4 AF.F ....|G-5 UFFF ....|D-4 2F87 ....
 G-4|..|G-2 2A.F ....|--- .... ....|--- .... ....
....|..|R-- .... ....|R-- .... ....|--- .... ....
....|..|--- .... ....|R-- .... ....|R-- .... ....
....|..|B-8 JF.F ....|A#5 UFFF ....|A#4 2FF7 ....
 G-4|..|G-2 2A.F ....|--- .... ....|--- .... ....
....|..|R-- .... ....|--- .... ....|--- .... ....
....|..|--- .... ....|R-- .... ....|R-- .... ....
....|..|C-4 AF.F ....|G-4 3F.F ....|C#4 2F4F ....
 A#3|..|A#1 2A.F ....|--- .... ....|--- .... ....
....|..|R-- .... ....|--- .... ....|--- .... ....
....|..|--- .... ....|R-- .... ....|--- .... ....
....|..|B-8 JF.F ....|A#5 UFF7 ....|A#4 2FFF ....
 A#3|..|A#1 2A.F ....|--- .... ....|--- .... ....
....|..|R-- .... ....|R-- .... ....|--- .... ....
....|..|--- .... ....|--- .... ....|R-- .... ....
....|..|C-4 AF.F ....|A#5 UFF7 ....|--- .... ....
 A#3|..|A#1 2A.F ....|--- .... ....|--- .... ....
....|..|R-- .... ....|--- .... ....|--- .... ....
....|..|--- .... ....|--- .... ....|--- .... ....
....|..|B-8 JF.F ....|A-5 UFF7 ....|A#4 2FFF ....
 A#3|..|A#1 2A.F ....|--- .... ....|--- .... ....
....|..|R-- .... ....|--- .... ....|--- .... ....
....|..|--- .... ....|--- .... ....|R-- .... ....
....|..|C-4 AF.F ....|G-5 UFF7 ....|A#4 2FFA ....
 A#3|..|A#1 2A.F ....|--- .... ....|--- .... ....
....|..|R-- .... ....|--- .... ....|--- .... ....
....|..|--- .... ....|--- .... ....|R-- .... ....
....|..|B-8 JF.F ....|G-5 UFFF ....|--- .... ....
 A#3|..|A#1 2A.F ....|--- .... ....|--- .... ....
....|..|R-- .... ....|--- .... ....|--- .... ....
....|..|--- .... ....|--- .... ....|--- .... ....
....|..|C-4 AF.F ....|A-5 UFFF ....|C#4 2F47 ....
 A#3|..|A#1 2A.F ....|--- .... ....|--- .... ....
....|..|R-- .... ....|--- .... ....|--- .... ....
....|..|--- .... ....|R-- .... ....|R-- .... ....
....|..|B-8 JF.F ....|A#5 UFFF ....|A#4 2FF7 ....
 A#3|..|A#1 2A.F ....|--- .... ....|--- .... ....
....|..|R-- .... ....|--- .... ....|--- .... ....
....|..|--- .... ....|R-- .... ....|R-- .... ....

[Pattern36]
....|..|C-4 AF.F ....|A-5 UFFF ....|C-4 2F5F ....
 F-4|..|F-2 2A.F ....|A-4 3F.F ....|--- .... ....
....|..|R-- .... ....|--- .... ....|--- .... ....
....|..|--- .... ....|--- .... ....|--- .... ....
....|..|B-8 JF.F ....|A-5 UFFA ....|A-4 2FFF ....
 F-4|..|F-2 2A.F ....|--- .... ....|--- .... ....
....|..|R-- .... ....|R-- .... ....|--- .... ....
....|..|--- .... ....|R-- .... ....|R-- .... ....
....|..|C-4 AF.F ....|A-5 UFFF ....|--- .... ....
 F-4|..|F-2 2A.F ....|--- .... ....|--- .... ....
....|..|R-- .... ....|--- .... ....|--- .... ....
....|..|--- .... ....|R-- .... ....|--- .... ....
....|..|B-8 JF.F ....|G-5 UFF7 ....|A-4 2FFF ....
 F-4|..|F-2 2A.F ....|A-4 3F.A ....|--- .... ....
....|..|R-- .... ....|R-- .... ....|--- .... ....
....|..|--- .... ....|--- .... ....|F-4 2FFF ....
....|..|C-4 AF.F ....|A-5 UFFF ....|A-4 2FFA ....
 F-4|..|F-2 2A.F ....|--- .... ....|--- .... ....
....|..|R-- .... ....|R-- .... ....|--- .... ....
....|..|--- .... ....|R-- .... ....|R-- .... ....
....|..|B-8 JF.F ....|G-5 UFFF ....|--- .... ....
 F-4|..|F-2 2A.F ....|--- .... ....|--- .... ....
....|..|R-- .... ....|--- .... ....|--- .... ....
....|..|--- .... ....|R-- .... ....|--- .... ....
....|..|C-4 AF.F ....|F-5 UFFF ....|C-4 2F57 ....
 F-4|..|F-2 2A.F ....|A-4 3F.7 ....|--- .... ....
....|..|R-- .... ....|R-- .... ....|--- .... ....
....|..|--- .... ....|R-- .... ....|F-4 2FFA ....
....|..|B-8 JF.F ....|A-5 UFFF ....|A-4 2FF7 ....
 F-4|..|F-2 2A.F ....|--- .... ....|--- .... ....
....|..|R-- .... ....|R-- .... ....|--- .... ....
....|..|--- .... ....|--- .... ....|R-- .... ....
....|..|C-4 AF.F ....|A-5 UFF7 ....|D-4 2F1F ....
 D-4|..|D-2 2A.F ....|--- .... ....|--- .... ....
....|..|R-- .... ....|--- .... ....|--- .... ....
....|..|--- .... ....|--- .... ....|--- .... ....
....|..|B-8 JF.F ....|F-5 UFFA ....|A-4 2FFF ....
 D-4|..|D-2 2A.F ....|--- .... ....|--- .... ....
....|..|R-- .... ....|R-- .... ....|--- .... ....
....|..|--- .... ....|R-- .... ....|F-4 2FF7 ....
....|..|C-4 AF.F ....|A-4 3F.F ....|R-- .... ....
 D-4|..|D-2 2A.F ....|--- .... ....|--- .... ....
....|..|R-- .... ....|--- .... ....|--- .... ....
....|..|--- .... ....|--- .... ....|--- .... ....
....|..|B-8 JF.F ....|A#4 3F.F ....|A-4 2FFF ....
 D-4|..|D-2 2A.F ....|--- .... ....|--- .... ....
....|..|R-- .... ....|--- .... ....|--- .... ....
....|..|--- .... ....|--- .... ....|R-- .... ....
....|..|C-4 AF.F ....|C-5 3F.F ....|A-4 2FFA ....
 D-4|..|D-2 2A.F ....|R-- .... ....|--- .... ....
....|..|R-- .... ....|--- .... ....|--- .... ....
....|..|--- .... ....|R-- .... ....|R-- .... ....
....|..|C-4 LF.F ....|D#5 3F.F ....|--- .... ....
 D-4|..|D-2 2A.F ....|--- .... ....|--- .... ....
....|..|R-- .... ....|--- .... ....|--- .... ....
....|..|--- .... ....|--- .... ....|--- .... ....
....|..|C-4 AF.F ....|D-5 3F.F ....|D-4 2F17 ....
 D-4|..|D-2 2A.F ....|--- .... ....|--- .... ....
....|..|R-- .... ....|E-5 3F.F ....|--- .... ....
....|..|--- .... ....|--- .... ....|R-- .... ....
....|..|C-3 RF.F ....|F#5 3F.F ....|A-4 2FF7 ....
 D-4|..|D-2 2A.F ....|R-- .... ....|--- .... ....
....|..|R-- .... ....|A-5 3F.F ....|--- .... ....
....|..|--- .... ....|--- .... ....|R-- .... ....

[Pattern37]
....|..|C-4 AF.F ....|D-5 UFFF ....|A#3 2F1F ....
 A#3|..|A#1 2A.F ....|--- .... ....|--- .... ....
....|..|R-- .... ....|--- .... ....|--- .... ....
....|..|--- .... ....|--- .... ....|--- .... ....
....|..|B-8 JF.F ....|A#4 3F.7 ....|A#4 2FFF ....
 A#3|..|A#1 2A.F ....|--- .... ....|--- .... ....
....|..|R-- .... ....|E-5 3F.A ....|--- .... ....
....|..|--- .... ....|--- .... ....|R-- .... ....
....|..|C-4 AF.F ....|E-5 UFFF ....|--- .... ....
 A#3|..|A#1 2A.F ....|R-- .... ....|--- .... ....
....|..|R-- .... ....|A-5 3F.A ....|--- .... ....
....|..|--- .... ....|--- .... ....|--- .... ....
....|..|B-8 JF.F ....|D#5 3F.7 ....|A#4 2FFF ....
 A#3|..|A#1 2A.F ....|--- .... ....|--- .... ....
....|..|R-- .... ....|--- .... ....|--- .... ....
....|..|--- .... ....|R-- .... ....|--- .... ....
....|..|C-4 AF.F ....|F-5 UFFF ....|A#4 2FFA ....
 A#3|..|A#1 2A.F ....|--- .... ....|--- .... ....
....|..|R-- .... ....|E-5 3F.7 ....|--- .... ....
....|..|--- .... ....|--- .... ....|R-- .... ....
....|..|B-8 JF.F ....|F#5 3F.7 ....|--- .... ....
 A#3|..|A#1 2A.F ....|--- .... ....|--- .... ....
....|..|R-- .... ....|A-5 3F.7 ....|--- .... ....
....|..|--- .... ....|R-- .... ....|--- .... ....
....|..|C-4 AF.F ....|G-5 UFFF ....|A#3 2F17 ....
 A#3|..|A#1 2A.F ....|--- .... ....|--- .... ....
....|..|R-- .... ....|--- .... ....|--- .... ....
....|..|--- .... ....|R-- .... ....|--- .... ....
....|..|B-8 JF.F ....|D-5 UFFF ....|A#4 2FF7 ....
 A#3|..|A#1 2A.F ....|--- .... ....|D-4 2F9F ....
....|..|R-- .... ....|--- .... ....|--- .... ....
....|..|--- .... ....|--- .... ....|R-- .... ....
....|..|C-4 AF.F ....|E-5 UFF7 ....|A#3 2F1F ....
 A#3|..|A#1 2A.F ....|--- .... ....|--- .... ....
....|..|R-- .... ....|--- .... ....|--- .... ....
....|..|--- .... ....|R-- .... ....|--- .... ....
....|..|B-8 JF.F ....|D-5 UFFF ....|A#4 2FFF ....
 A#3|..|A#1 2A.F ....|--- .... ....|--- .... ....
....|..|R-- .... ....|--- .... ....|--- .... ....
....|..|--- .... ....|R-- .... ....|R-- .... ....
....|..|C-4 AF.F ....|E-5 UFFF ....|R-- .... ....
 A#3|..|A#1 2A.F ....|--- .... ....|D-4 2F9A ....
....|..|R-- .... ....|--- .... ....|--- .... ....
....|..|--- .... ....|--- .... ....|--- .... ....
....|..|B-8 JF.F ....|--- .... ....|A#4 2FFF ....
 A#3|..|A#1 2A.F ....|--- .... ....|--- .... ....
....|..|R-- .... ....|--- .... ....|--- .... ....
....|..|--- .... ....|R-- .... ....|R-- .... ....
....|..|C-4 AF.F ....|F-5 UFFF ....|A#4 2FFA ....
 A#3|..|A#1 2A.F ....|--- .... ....|--- .... ....
....|..|R-- .... ....|--- .... ....|--- .... ....
....|..|--- .... ....|R-- .... ....|R-- .... ....
....|..|B-8 JF.F ....|G-5 UFFF ....|--- .... ....
 A#3|..|A#1 2A.F ....|--- .... ....|D-4 2F97 ....
....|..|R-- .... ....|--- .... ....|--- .... ....
....|..|--- .... ....|R-- .... ....|--- .... ....
....|..|C-4 AF.F ....|F-5 UFFF ....|A#3 2F17 ....
 A#3|..|A#1 2A.F ....|--- .... ....|--- .... ....
....|..|C-4 LF.F ....|G-5 3F.F ....|--- .... ....
....|..|R-- .... ....|R-- .... ....|R-- .... ....
....|..|B-8 JF.F ....|C-6 UFFF ....|A#4 2FF7 ....
 A#3|..|A#1 2A.F ....|--- .... ....|--- .... ....
....|..|C-4 9F.F ....|A#5 3F.F ....|--- .... ....
....|..|R-- .... ....|R-- .... ....|R-- .... ....

[Pattern38]
....|..|C-4 AF.F ....|C-6 3F.F ....|F-4 2FFF ....
 C-4|..|C-2 2A.F ....|--- .... ....|--- .... ....
....|..|C-4 LF.F ....|C-6 3F.F ....|F-4 2FFF ....
 C-4|..|C-2 2A.F ....|R-- .... ....|F-4 2FFF ....
....|..|C-4 LF.F ....|F-5 UFFA ....|A#4 2FF7 ....
....|..|A#1 2F.7 ....|--- .... ....|--- .... ....
....|..|C-4 LF.A ....|G-5 3F.A ....|--- .... ....
....|..|R-- .... ....|R-- .... ....|R-- .... ....
....|..|C-4 AF.F ....|F-5 UFF7 ....|--- .... ....
....|..|A#1 2F.7 ....|--- .... ....|--- .... ....
....|..|C-4 9F.A ....|A#5 3F.A ....|--- .... ....
....|..|R-- .... ....|--- .... ....|--- .... ....
....|..|C-4 LF.F ....|C-6 3F.F ....|F-4 2FFF ....
 C-4|..|C-2 2A.F ....|--- .... ....|--- .... ....
....|..|C-4 LF.F ....|C-6 3F.F ....|F-4 2FFF ....
 C-4|..|C-2 2A.F ....|R-- .... ....|F-4 2FFA ....
....|..|C-4 AF.F ....|F-5 UFF7 ....|R-- .... ....
....|..|A#1 2F.7 ....|--- .... ....|--- .... ....
....|..|C-4 LF.7 ....|G-5 3F.7 ....|--- .... ....
....|..|R-- .... ....|R-- .... ....|--- .... ....
....|..|C-4 9F.F ....|C-6 UFF7 ....|--- .... ....
....|..|A#1 2F.7 ....|--- .... ....|--- .... ....
....|..|C-4 9F.7 ....|A#5 3F.7 ....|--- .... ....
....|..|R-- .... ....|--- .... ....|--- .... ....
....|..|C-4 AF.F ....|C-6 3F.F ....|F-4 2FFF ....
 C-4|..|C-2 2A.F ....|--- .... ....|--- .... ....
....|..|C-4 LF.F ....|C-6 3F.F ....|F-4 2FFF ....
 C-4|..|C-2 2A.F ....|--- .... ....|F-4 2FF7 ....
....|..|C-4 LF.F ....|R-- .... ....|R-- .... ....
....|..|R-- .... ....|--- .... ....|--- .... ....
....|..|--- .... ....|--- .... ....|--- .... ....
....|..|--- .... ....|--- .... ....|--- .... ....
....|..|C-4 9F.F ....|--- .... ....|--- .... ....
....|..|--- .... ....|--- .... ....|--- .... ....
....|..|--- .... ....|--- .... ....|--- .... ....
....|..|--- .... ....|--- .... ....|--- .... ....
....|..|C-4 AF.F ....|C-6 3F.F ....|F-4 2FFF ....
 C-4|..|C-2 2A.F ....|R-- .... ....|R-- .... ....
....|..|C-4 LF.7 ....|C-6 3F.7 ....|F-4 2FF7 ....
....|..|C-2 2F.7 ....|--- .... ....|R-- .... ....
....|..|C-4 AF.F ....|C-6 3F.F ....|F-4 2FFF ....
 C-4|..|C-2 2A.F ....|--- .... ....|--- .... ....
....|..|--- .... ....|--- .... ....|--- .... ....
....|..|--- .... ....|--- .... ....|--- .... ....
....|..|C-4 9F.7 ....|--- .... ....|--- .... ....
....|..|--- .... ....|--- .... ....|--- .... ....
....|..|--- .... ....|--- .... ....|--- .... ....
....|..|--- .... ....|--- .... ....|--- .... ....
....|..|C-4 AF.7 ....|F-5 UFFF ....|F-4 2FF7 ....
....|..|C-2 2F.7 ....|R-- .... ....|R-- .... ....
....|..|C-4 LF.7 ....|C-6 3F.7 ....|F-4 2FF7 ....
....|..|C-2 2F.7 ....|--- .... ....|R-- .... ....
....|..|C-4 9F.F ....|G-5 UFFF ....|F-4 2FFA ....
....|..|C-2 2F.A ....|--- .... ....|--- .... ....
....|..|--- .... ....|--- .... ....|--- .... ....
....|..|--- .... ....|--- .... ....|--- .... ....
....|..|C-4 CF.F ....|A-5 UFFF ....|--- .... ....
....|..|--- .... ....|--- .... ....|--- .... ....
....|..|C-4 CF.F ....|--- .... ....|--- .... ....
....|..|R-- .... ....|--- .... ....|--- .... ....
....|..|C-4 9F.F ....|A#5 UFFF ....|F-4 2FF7 ....
....|..|C-2 2F.7 ....|R-- .... ....|R-- .... ....
....|..|R-- .... ....|R-- .... ....|R-- .... ....
....|..|--- .... ....|--- .... ....|--- .... ....

[Pattern39]
....|..|C-4 AF.F ....|C-6 UFFF ....|C-4 2F5F ....
 F-4|..|F-2 2A.F ....|--- .... ....|--- .... ....
....|..|R-- .... ....|--- .... ....|--- .... ....
....|..|--- .... ....|--- .... ....|--- .... ....
....|..|B-8 JF.F ....|A-5 UFFA ....|F-4 2FFF ....
 F-4|..|F-2 2A.F ....|R-- .... ....|--- .... ....
....|..|C-4 CF.A ....|--- .... ....|R-- .... ....
....|..|R-- .... ....|--- .... ....|--- .... ....
....|..|C-4 AF.F ....|A-5 UFFF ....|A-4 2FFF ....
 F-4|..|F-2 2A.F ....|--- .... ....|--- .... ....
....|..|R-- .... ....|G-5 3F.F ....|R-- .... ....
....|..|--- .... ....|R-- .... ....|--- .... ....
....|..|B-8 JF.F ....|F-5 UFFF ....|C-5 2FFF ....
 F-4|..|F-2 2A.F ....|--- .... ....|--- .... ....
....|..|R-- .... ....|A#5 3F.F ....|R-- .... ....
....|..|--- .... ....|--- .... ....|--- .... ....
....|..|C-4 AF.F ....|C-6 3F.F ....|F-4 2FFA ....
 F-4|..|F-2 2A.F ....|R-- .... ....|--- .... ....
....|..|C-4 CF.7 ....|--- .... ....|R-- .... ....
....|..|R-- .... ....|--- .... ....|--- .... ....
....|..|B-8 JF.F ....|C-6 UFFF ....|A-4 2FFA ....
 F-4|..|F-2 2A.F ....|--- .... ....|--- .... ....
....|..|R-- .... ....|G-5 3F.A ....|R-- .... ....
....|..|--- .... ....|R-- .... ....|--- .... ....
....|..|C-4 AF.F ....|C-6 UFF7 ....|C-4 2F57 ....
 F-4|..|F-2 2A.F ....|--- .... ....|--- .... ....
....|..|R-- .... ....|A#5 3F.A ....|R-- .... ....
....|..|--- .... ....|--- .... ....|--- .... ....
....|..|B-8 JF.F ....|A#5 UFFF ....|F-4 2FF7 ....
 F-4|..|F-2 2A.F ....|R-- .... ....|--- .... ....
....|..|R-- .... ....|--- .... ....|R-- .... ....
....|..|--- .... ....|--- .... ....|--- .... ....
....|..|C-4 AF.F ....|A-5 UFF7 ....|C-4 2F1F ....
 C-4|..|C-2 2A.F ....|--- .... ....|--- .... ....
....|..|R-- .... ....|G-5 3F.7 ....|R-- .... ....
....|..|--- .... ....|R-- .... ....|--- .... ....
....|..|B-8 JF.F ....|G-5 UFFF ....|E-4 2FFF ....
 C-4|..|C-2 2A.F ....|--- .... ....|--- .... ....
....|..|R-- .... ....|A#5 3F.7 ....|R-- .... ....
....|..|--- .... ....|R-- .... ....|--- .... ....
....|..|C-4 AF.F ....|C-6 3F.7 ....|G-4 2FFF ....
 C-4|..|C-2 2A.F ....|--- .... ....|--- .... ....
....|..|R-- .... ....|--- .... ....|R-- .... ....
....|..|--- .... ....|--- .... ....|--- .... ....
....|..|B-8 JF.F ....|C-6 UFF7 ....|C-5 2FFF ....
 C-4|..|C-2 2A.F ....|--- .... ....|--- .... ....
....|..|R-- .... ....|--- .... ....|R-- .... ....
....|..|--- .... ....|R-- .... ....|--- .... ....
....|..|C-4 AF.F ....|G-5 UFFA ....|E-4 2FFA ....
 C-4|..|C-2 2A.F ....|--- .... ....|--- .... ....
....|..|R-- .... ....|--- .... ....|R-- .... ....
....|..|--- .... ....|R-- .... ....|--- .... ....
....|..|B-8 JF.F ....|A#5 UFF7 ....|G-4 2FFF ....
 C-4|..|C-2 2A.F ....|--- .... ....|--- .... ....
....|..|R-- .... ....|--- .... ....|R-- .... ....
....|..|--- .... ....|--- .... ....|--- .... ....
....|..|C-4 AF.F ....|--- .... ....|E-4 2FFF ....
 C-4|..|C-2 2A.F ....|--- .... ....|--- .... ....
....|..|R-- .... ....|--- .... ....|R-- .... ....
....|..|--- .... ....|R-- .... ....|--- .... ....
....|..|B-8 JF.F ....|G-5 UFF7 ....|E-4 2FF7 ....
 C-4|..|C-2 2A.F ....|--- .... ....|--- .... ....
....|..|R-- .... ....|--- .... ....|R-- .... ....
....|..|--- .... ....|R-- .... ....|--- .... ....

[Pattern40]
....|..|C-4 AF.F ....|A#5 UFFF ....|C-4 2F1F ....
 C-4|..|C-2 2A.F ....|R-- .... ....|--- .... ....
....|..|R-- .... ....|--- .... ....|R-- .... ....
....|..|--- .... ....|--- .... ....|--- .... ....
....|..|B-8 JF.F ....|R-- .... ....|C-4 2FFF ....
 C-4|..|C-2 2A.F ....|--- .... ....|--- .... ....
....|..|R-- .... ....|--- .... ....|R-- .... ....
....|..|--- .... ....|--- .... ....|--- .... ....
....|..|C-4 AF.F ....|G-5 UFFF ....|E-4 2FFF ....
 C-4|..|C-2 2A.F ....|--- .... ....|--- .... ....
....|..|R-- .... ....|--- .... ....|R-- .... ....
....|..|--- .... ....|R-- .... ....|--- .... ....
....|..|B-8 JF.F ....|E-5 UFFF ....|G-4 2FFF ....
 C-4|..|C-2 2A.F ....|R-- .... ....|--- .... ....
....|..|R-- .... ....|--- .... ....|R-- .... ....
....|..|--- .... ....|--- .... ....|--- .... ....
....|..|C-4 AF.F ....|A#5 3F.F ....|C#4 2F3F ....
 C#4|..|C#2 2A.F ....|--- .... ....|--- .... ....
....|..|R-- .... ....|--- .... ....|R-- .... ....
....|..|--- .... ....|--- .... ....|--- .... ....
....|..|B-8 JF.F ....|A#5 UFFF ....|E-4 2FFF ....
 C#4|..|C#2 2A.F ....|--- .... ....|--- .... ....
....|..|R-- .... ....|--- .... ....|R-- .... ....
....|..|--- .... ....|R-- .... ....|--- .... ....
....|..|C-4 AF.F ....|A#5 UFF7 ....|G-4 2FFF ....
 C#4|..|C#2 2A.F ....|R-- .... ....|--- .... ....
....|..|R-- .... ....|--- .... ....|R-- .... ....
....|..|--- .... ....|--- .... ....|--- .... ....
....|..|B-8 JF.F ....|A-5 UFFF ....|C#5 2FFF ....
 C#4|..|C#2 2A.F ....|--- .... ....|--- .... ....
....|..|R-- .... ....|--- .... ....|R-- .... ....
....|..|--- .... ....|--- .... ....|--- .... ....
....|..|C-4 AF.F ....|G-5 UFF7 ....|D-4 2F6F ....
 D-4|..|D-2 2A.F ....|R-- .... ....|--- .... ....
....|..|R-- .... ....|--- .... ....|R-- .... ....
....|..|--- .... ....|R-- .... ....|--- .... ....
....|..|B-8 JF.F ....|F-5 UFFF ....|F-4 2FFF ....
 D-4|..|D-2 2A.F ....|R-- .... ....|--- .... ....
....|..|R-- .... ....|--- .... ....|R-- .... ....
....|..|--- .... ....|R-- .... ....|--- .... ....
....|..|C-4 AF.F ....|A#5 3F.7 ....|A-4 2FFF ....
 D-4|..|D-2 2A.F ....|--- .... ....|--- .... ....
....|..|R-- .... ....|--- .... ....|R-- .... ....
....|..|--- .... ....|--- .... ....|--- .... ....
....|..|B-8 JF.F ....|D-5 3F.F ....|D-5 2FFF ....
 D-4|..|D-2 2A.F ....|R-- .... ....|--- .... ....
....|..|R-- .... ....|--- .... ....|R-- .... ....
....|..|--- .... ....|--- .... ....|--- .... ....
....|..|C-4 AF.F ....|D-6 3F.F ....|G-4 2FF7 ....
 D-4|..|D-2 2A.F ....|R-- .... ....|--- .... ....
....|..|R-- .... ....|--- .... ....|R-- .... ....
....|..|--- .... ....|R-- .... ....|--- .... ....
....|..|C-4 CF.F ....|C-6 3F.F ....|A-4 2FFF ....
 D-4|..|D-2 2A.F ....|--- .... ....|--- .... ....
....|..|R-- .... ....|--- .... ....|R-- .... ....
....|..|--- .... ....|--- .... ....|--- .... ....
....|..|C-4 AF.F ....|A#5 3F.F ....|F-4 2FFF ....
 D-4|..|D-2 2A.F ....|R-- .... ....|--- .... ....
....|..|R-- .... ....|--- .... ....|R-- .... ....
....|..|--- .... ....|--- .... ....|--- .... ....
....|..|B-8 JF.F ....|A-5 3F.F ....|F-4 2FF7 ....
 D-4|..|D-2 2A.F ....|--- .... ....|--- .... ....
....|..|R-- .... ....|--- .... ....|R-- .... ....
....|..|--- .... ....|R-- .... ....|--- .... ....

[Pattern41]
....|..|C-4 AF.F ....|A#5 3F.F ....|A#3 2F6F ....
 A#3|..|A#1 2A.F ....|--- .... ....|--- .... ....
....|..|R-- .... ....|--- .... ....|R-- .... ....
....|..|--- .... ....|--- .... ....|--- .... ....
....|..|B-8 JF.F ....|D-5 3F.7 ....|C#4 2FFF ....
 A#3|..|A#1 2A.F ....|--- .... ....|--- .... ....
....|..|R-- .... ....|--- .... ....|R-- .... ....
....|..|--- .... ....|--- .... ....|--- .... ....
....|..|C-4 AF.F ....|C#5 UFFF ....|F-4 2FFF ....
 A#3|..|A#1 2A.F ....|--- .... ....|--- .... ....
....|..|R-- .... ....|--- .... ....|R-- .... ....
....|..|--- .... ....|--- .... ....|--- .... ....
....|..|B-8 JF.F ....|C-6 3F.7 ....|A#4 2FFF ....
 A#3|..|A#1 2A.F ....|--- .... ....|--- .... ....
....|..|R-- .... ....|--- .... ....|R-- .... ....
....|..|--- .... ....|R-- .... ....|--- .... ....
....|..|C-4 AF.F ....|F-5 UFFF ....|F-4 2FF7 ....
 A#3|..|A#1 2A.F ....|--- .... ....|--- .... ....
....|..|R-- .... ....|--- .... ....|R-- .... ....
....|..|--- .... ....|--- .... ....|--- .... ....
....|..|B-8 JF.F ....|A-5 3F.7 ....|F-4 2FFF ....
 A#3|..|A#1 2A.F ....|--- .... ....|--- .... ....
....|..|R-- .... ....|--- .... ....|R-- .... ....
....|..|--- .... ....|--- .... ....|--- .... ....
....|..|C-4 AF.F ....|A#5 UFFF ....|C#4 2FFF ....
 A#3|..|A#1 2A.F ....|--- .... ....|--- .... ....
....|..|R-- .... ....|--- .... ....|R-- .... ....
....|..|--- .... ....|R-- .... ....|--- .... ....
....|..|B-8 JF.F ....|F-5 UFFA ....|C#4 2FF7 ....
 A#3|..|A#1 2A.F ....|--- .... ....|--- .... ....
....|..|R-- .... ....|--- .... ....|R-- .... ....
....|..|--- .... ....|R-- .... ....|--- .... ....
....|..|C-4 AF.F ....|A-5 UFFF ....|A-3 2F2F ....
 A-3|..|A-1 2A.F ....|--- .... ....|--- .... ....
....|..|R-- .... ....|--- .... ....|R-- .... ....
....|..|--- .... ....|--- .... ....|--- .... ....
....|..|B-8 JF.F ....|A#5 UFFA ....|F-4 2FFF ....
 A-3|..|A-1 2A.F ....|--- .... ....|--- .... ....
....|..|R-- .... ....|--- .... ....|R-- .... ....
....|..|--- .... ....|R-- .... ....|--- .... ....
....|..|C-4 AF.F ....|C-6 UFFF ....|A-4 2FFF ....
 A-3|..|A-1 2A.F ....|--- .... ....|--- .... ....
....|..|R-- .... ....|--- .... ....|R-- .... ....
....|..|--- .... ....|R-- .... ....|--- .... ....
....|..|B-8 JF.F ....|F-5 UFFF ....|C-5 2FFF ....
 A-3|..|A-1 2A.F ....|--- .... ....|--- .... ....
....|..|R-- .... ....|--- .... ....|R-- .... ....
....|..|--- .... ....|--- .... ....|--- .... ....
....|..|C-4 AF.F ....|A#5 UFF7 ....|A-3 2F8F ....
 D-4|..|D-2 2A.F ....|R-- .... ....|--- .... ....
....|..|R-- .... ....|--- .... ....|R-- .... ....
....|..|--- .... ....|--- .... ....|--- .... ....
....|..|B-8 JF.F ....|F-5 3F.F ....|F-4 2FFF ....
 D-4|..|D-2 2A.F ....|--- .... ....|--- .... ....
....|..|R-- .... ....|G-5 3F.F ....|R-- .... ....
....|..|--- .... ....|R-- .... ....|--- .... ....
....|..|C-4 AF.F ....|A-5 3F.F ....|A-4 2FFF ....
 D-4|..|D-2 2A.F ....|--- .... ....|--- .... ....
....|..|R-- .... ....|R-- .... ....|R-- .... ....
....|..|--- .... ....|--- .... ....|--- .... ....
....|..|B-8 JF.F ....|A-5 UFFF ....|D-5 2FFF ....
 D-4|..|D-2 2A.F ....|R-- .... ....|--- .... ....
....|..|R-- .... ....|R-- .... ....|R-- .... ....
....|..|--- .... ....|R-- .... ....|--- .... ....

[Pattern42]
....|..|C-4 AF.F ....|A#5 UFFF ....|A#3 2F1F ....
 G-3|..|G-1 2A.F ....|--- .... ....|--- .... ....
....|..|R-- .... ....|G-5 3F.A ....|R-- .... ....
....|..|--- .... ....|--- .... ....|--- .... ....
....|..|B-8 JF.F ....|A-5 UFFF ....|G-4 2FFF ....
 G-3|..|G-1 2A.F ....|--- .... ....|--- .... ....
....|..|R-- .... ....|R-- .... ....|R-- .... ....
....|..|--- .... ....|R-- .... ....|--- .... ....
....|..|C-4 AF.F ....|A#5 UFFF ....|A#4 2FFF ....
 G-3|..|G-1 2A.F ....|R-- .... ....|--- .... ....
....|..|R-- .... ....|R-- .... ....|R-- .... ....
....|..|--- .... ....|R-- .... ....|--- .... ....
....|..|B-8 JF.F ....|A-5 UFFF ....|D-5 2FFF ....
 G-3|..|G-1 2A.F ....|--- .... ....|--- .... ....
....|..|R-- .... ....|G-5 3F.7 ....|R-- .... ....
....|..|--- .... ....|R-- .... ....|--- .... ....
....|..|C-4 AF.F ....|A#5 UFFF ....|A-4 2FF7 ....
 G-3|..|G-1 2A.F ....|--- .... ....|--- .... ....
....|..|R-- .... ....|R-- .... ....|R-- .... ....
....|..|--- .... ....|R-- .... ....|--- .... ....
....|..|B-8 JF.F ....|A-5 UFFF ....|D-5 2FF7 ....
 G-3|..|G-1 2A.F ....|--- .... ....|--- .... ....
....|..|R-- .... ....|R-- .... ....|R-- .... ....
....|..|--- .... ....|R-- .... ....|--- .... ....
....|..|C-4 AF.F ....|F-5 UFFF ....|A#3 2F17 ....
 G-3|..|G-1 2A.F ....|--- .... ....|--- .... ....
....|..|R-- .... ....|--- .... ....|R-- .... ....
....|..|--- .... ....|R-- .... ....|--- .... ....
....|..|B-8 JF.F ....|G-5 UFFF ....|G-4 2FF7 ....
 G-3|..|G-1 2A.F ....|--- .... ....|--- .... ....
....|..|R-- .... ....|--- .... ....|R-- .... ....
....|..|--- .... ....|R-- .... ....|--- .... ....
....|..|C-4 AF.F ....|A#5 UFF7 ....|A#3 2F4F ....
 C-4|..|C-2 2A.F ....|--- .... ....|--- .... ....
....|..|R-- .... ....|--- .... ....|R-- .... ....
....|..|--- .... ....|--- .... ....|--- .... ....
....|..|C-4 CF.F ....|A-5 UFF7 ....|D-4 2FFF ....
 C-4|..|C-2 2A.F ....|--- .... ....|--- .... ....
....|..|R-- .... ....|--- .... ....|R-- .... ....
....|..|--- .... ....|R-- .... ....|--- .... ....
....|..|C-4 AF.F ....|A#5 UFF7 ....|F-4 2FFF ....
 C-4|..|C-2 2A.F ....|--- .... ....|--- .... ....
....|..|R-- .... ....|--- .... ....|R-- .... ....
....|..|--- .... ....|--- .... ....|--- .... ....
....|..|C-4 CF.F ....|A-5 UFF7 ....|C-5 2FFF ....
 C-4|..|C-2 2A.F ....|--- .... ....|--- .... ....
....|..|R-- .... ....|--- .... ....|R-- .... ....
....|..|--- .... ....|--- .... ....|--- .... ....
....|..|C-4 AF.F ....|F-5 UFFF ....|D-4 2FFA ....
 C-4|..|C-2 2A.F ....|--- .... ....|--- .... ....
....|..|C-4 LF.F ....|--- .... ....|R-- .... ....
....|..|R-- .... ....|R-- .... ....|--- .... ....
....|..|B-8 JF.F ....|G-5 UFFF ....|F-4 2FFA ....
 C-4|..|C-2 2A.F ....|--- .... ....|--- .... ....
....|..|C-4 LF.F ....|--- .... ....|R-- .... ....
....|..|R-- .... ....|--- .... ....|--- .... ....
....|..|C-4 AF.F ....|A-5 UFFF ....|A#3 2F47 ....
 C-4|..|C-2 2A.F ....|--- .... ....|--- .... ....
....|..|C-4 9F.F ....|G-5 3F.F ....|R-- .... ....
....|..|R-- .... ....|--- .... ....|--- .... ....
....|..|B-8 JF.F ....|A#5 UFFF ....|D-4 2FF7 ....
 C-4|..|C-2 2A.F ....|--- .... ....|--- .... ....
....|..|C-4 9F.F ....|A#5 3F.F ....|R-- .... ....
....|..|R-- .... ....|--- .... ....|--- .... ....

[Pattern43]
....|..|C-4 AF.F ....|C-6 UFFF ....|A-3 2F2F ....
 F-4|..|F-2 2A.F ....|--- .... ....|--- .... ....
....|..|C-4 LF.A ....|--- .... ....|R-- .... ....
....|..|R-- .... ....|--- .... ....|--- .... ....
....|..|B-8 JF.F ....|A-5 UFFA ....|F-4 2FFF ....
 F-4|..|F-2 2A.F ....|R-- .... ....|--- .... ....
....|..|C-4 9F.A ....|G-5 3F.A ....|R-- .... ....
....|..|R-- .... ....|--- .... ....|--- .... ....
....|..|C-4 AF.F ....|A-5 UFFF ....|A-4 2FFF ....
 F-4|..|F-2 2A.F ....|--- .... ....|--- .... ....
....|..|C-4 LF.7 ....|A#5 3F.A ....|R-- .... ....
....|..|R-- .... ....|--- .... ....|--- .... ....
....|..|B-8 JF.F ....|F-5 UFFF ....|C-5 2FFF ....
 F-4|..|F-2 2A.F ....|--- .... ....|--- .... ....
....|..|C-4 LF.7 ....|--- .... ....|R-- .... ....
....|..|R-- .... ....|--- .... ....|--- .... ....
....|..|C-4 AF.F ....|A-5 UFF7 ....|F-4 2FFA ....
 F-4|..|F-2 2A.F ....|R-- .... ....|--- .... ....
....|..|C-4 9F.7 ....|G-5 3F.7 ....|R-- .... ....
....|..|R-- .... ....|--- .... ....|--- .... ....
....|..|B-8 JF.F ....|C-6 UFFF ....|A-4 2FFA ....
 F-4|..|F-2 2A.F ....|--- .... ....|--- .... ....
....|..|C-4 9F.7 ....|A#5 3F.7 ....|R-- .... ....
....|..|R-- .... ....|--- .... ....|--- .... ....
....|..|C-4 AF.F ....|C-6 UFF7 ....|A-3 2F27 ....
 F-4|..|F-2 2A.F ....|R-- .... ....|--- .... ....
....|..|R-- .... ....|--- .... ....|R-- .... ....
....|..|--- .... ....|--- .... ....|--- .... ....
....|..|B-8 JF.F ....|A#5 UFFF ....|F-4 2FF7 ....
 F-4|..|F-2 2A.F ....|R-- .... ....|--- .... ....
....|..|R-- .... ....|--- .... ....|R-- .... ....
....|..|--- .... ....|--- .... ....|--- .... ....
....|..|C-4 AF.F ....|A-5 UFF7 ....|C-4 2F1F ....
 C-4|..|C-2 2A.F ....|--- .... ....|--- .... ....
....|..|R-- .... ....|--- .... ....|R-- .... ....
....|..|--- .... ....|--- .... ....|--- .... ....
....|..|B-8 JF.F ....|G-5 UFFF ....|E-4 2FFF ....
 C-4|..|C-2 2A.F ....|R-- .... ....|--- .... ....
....|..|R-- .... ....|D-5 3F.F ....|R-- .... ....
....|..|--- .... ....|R-- .... ....|--- .... ....
....|..|C-4 AF.F ....|E-5 3F.F ....|G-4 2FFF ....
 C-4|..|C-2 2A.F ....|--- .... ....|--- .... ....
....|..|R-- .... ....|R-- .... ....|R-- .... ....
....|..|--- .... ....|--- .... ....|--- .... ....
....|..|B-8 JF.F ....|C-5 3F.F ....|C-5 2FFF ....
 C-4|..|C-2 2A.F ....|--- .... ....|--- .... ....
....|..|R-- .... ....|--- .... ....|R-- .... ....
....|..|--- .... ....|--- .... ....|--- .... ....
....|..|C-4 AF.F ....|C-6 3F.F ....|E-4 2FFA ....
 C-4|..|C-2 2A.F ....|R-- .... ....|--- .... ....
....|..|R-- .... ....|D-5 3F.A ....|R-- .... ....
....|..|--- .... ....|R-- .... ....|--- .... ....
....|..|B-8 JF.F ....|A#5 UFF7 ....|G-4 2FFF ....
 C-4|..|C-2 2A.F ....|--- .... ....|--- .... ....
....|..|R-- .... ....|R-- .... ....|R-- .... ....
....|..|--- .... ....|--- .... ....|--- .... ....
....|..|C-4 AF.F ....|C-5 3F.A ....|E-4 2FFF ....
 C-4|..|C-2 2A.F ....|--- .... ....|--- .... ....
....|..|R-- .... ....|--- .... ....|R-- .... ....
....|..|--- .... ....|--- .... ....|--- .... ....
....|..|B-8 JF.F ....|G-5 UFF7 ....|E-4 2FF7 ....
 C-4|..|C-2 2A.F ....|--- .... ....|--- .... ....
....|..|R-- .... ....|D-5 3F.7 ....|R-- .... ....
....|..|--- .... ....|R-- .... ....|--- .... ....

[Pattern44]
....|..|C-4 AF.F ....|A#5 UFFF ....|C-4 2F1F ....
 C-4|..|C-2 2A.F ....|--- .... ....|--- .... ....
....|..|R-- .... ....|R-- .... ....|R-- .... ....
....|..|--- .... ....|--- .... ....|--- .... ....
....|..|B-8 JF.F ....|C-5 3F.7 ....|C-4 2FFF ....
 C-4|..|C-2 2A.F ....|--- .... ....|--- .... ....
....|..|R-- .... ....|--- .... ....|R-- .... ....
....|..|--- .... ....|--- .... ....|--- .... ....
....|..|C-4 AF.F ....|G-5 UFFF ....|E-4 2FFF ....
 C-4|..|C-2 2A.F ....|--- .... ....|--- .... ....
....|..|R-- .... ....|--- .... ....|R-- .... ....
....|..|--- .... ....|R-- .... ....|--- .... ....
....|..|B-8 JF.F ....|E-5 UFFF ....|G-4 2FFF ....
 C-4|..|C-2 2A.F ....|--- .... ....|--- .... ....
....|..|R-- .... ....|--- .... ....|R-- .... ....
....|..|--- .... ....|--- .... ....|--- .... ....
....|..|C-4 AF.F ....|A#5 3F.F ....|C#4 2F3F ....
 C#4|..|C#2 2A.F ....|--- .... ....|--- .... ....
....|..|R-- .... ....|--- .... ....|R-- .... ....
....|..|--- .... ....|--- .... ....|--- .... ....
....|..|B-8 JF.F ....|A#5 UFFF ....|E-4 2FFF ....
 C#4|..|C#2 2A.F ....|--- .... ....|--- .... ....
....|..|R-- .... ....|--- .... ....|R-- .... ....
....|..|--- .... ....|R-- .... ....|--- .... ....
....|..|C-4 AF.F ....|A#5 UFF7 ....|G-4 2FFF ....
 C#4|..|C#2 2A.F ....|--- .... ....|--- .... ....
....|..|R-- .... ....|--- .... ....|R-- .... ....
....|..|--- .... ....|--- .... ....|--- .... ....
....|..|B-8 JF.F ....|A-5 UFFF ....|C#5 2FFF ....
 C#4|..|C#2 2A.F ....|--- .... ....|--- .... ....
....|..|R-- .... ....|--- .... ....|R-- .... ....
....|..|--- .... ....|--- .... ....|--- .... ....
....|..|C-4 AF.F ....|A#5 3F.F ....|D-4 2F6F ....
 D-4|..|D-2 2A.F ....|A-5 3F.F ....|--- .... ....
....|..|R-- .... ....|R-- .... ....|R-- .... ....
....|..|--- .... ....|R-- .... ....|--- .... ....
....|..|B-8 JF.F ....|F-5 UFFF ....|F-4 2FFF ....
 D-4|..|D-2 2A.F ....|--- .... ....|--- .... ....
....|..|R-- .... ....|G#5 3F.F ....|R-- .... ....
....|..|--- .... ....|R-- .... ....|--- .... ....
....|..|C-4 AF.F ....|A-5 3F.F ....|A-4 2FFF ....
 D-4|..|D-2 2A.F ....|--- .... ....|--- .... ....
....|..|R-- .... ....|R-- .... ....|R-- .... ....
....|..|--- .... ....|--- .... ....|--- .... ....
....|..|B-8 JF.F ....|D-6 3F.F ....|D-5 2FFF ....
 D-4|..|D-2 2A.F ....|A-5 3F.A ....|--- .... ....
....|..|R-- .... ....|C#6 3F.F ....|R-- .... ....
....|..|--- .... ....|--- .... ....|--- .... ....
....|..|C-4 AF.F ....|D-6 3F.F ....|G-4 2FF7 ....
 D-4|..|D-2 2A.F ....|--- .... ....|--- .... ....
....|..|R-- .... ....|G#5 3F.A ....|R-- .... ....
....|..|--- .... ....|R-- .... ....|--- .... ....
....|..|B-8 JF.F ....|F-6 3F.F ....|A-4 2FFF ....
 D-4|..|D-2 2A.F ....|--- .... ....|--- .... ....
....|..|R-- .... ....|E-6 3F.F ....|R-- .... ....
....|..|--- .... ....|--- .... ....|--- .... ....
....|..|C-4 AF.F ....|F-6 3F.F ....|F-4 2FFF ....
 D-4|..|D-2 2A.F ....|A-5 3F.7 ....|--- .... ....
....|..|R-- .... ....|C#6 3F.A ....|R-- .... ....
....|..|--- .... ....|--- .... ....|--- .... ....
....|..|B-8 JF.F ....|A-5 3F.F ....|F-4 2FF7 ....
 D-4|..|D-2 2A.F ....|--- .... ....|--- .... ....
....|..|R-- .... ....|G#5 3F.7 ....|R-- .... ....
....|..|--- .... ....|R-- .... ....|--- .... ....

[Pattern45]
....|..|C-4 AF.F ....|D-5 UFFF ....|A#3 2F1F ....
 A#3|..|A#1 2A.F ....|--- .... ....|--- .... ....
....|..|R-- .... ....|E-6 3F.A ....|R-- .... ....
....|..|--- .... ....|--- .... ....|--- .... ....
....|..|B-8 JF.F ....|D-6 3F.7 ....|F-4 2FFF ....
 A#3|..|A#1 2A.F ....|--- .... ....|--- .... ....
....|..|R-- .... ....|C#6 3F.7 ....|R-- .... ....
....|..|--- .... ....|R-- .... ....|--- .... ....
....|..|C-4 AF.F ....|D-6 UFFF ....|A#4 2FFF ....
 A#3|..|A#1 2A.F ....|--- .... ....|--- .... ....
....|..|R-- .... ....|R-- .... ....|R-- .... ....
....|..|--- .... ....|--- .... ....|--- .... ....
....|..|B-8 JF.F ....|F-6 3F.7 ....|A-4 2FF7 ....
 A#3|..|A#1 2A.F ....|--- .... ....|--- .... ....
....|..|R-- .... ....|E-6 3F.7 ....|R-- .... ....
....|..|--- .... ....|--- .... ....|--- .... ....
....|..|C-4 AF.F ....|C-6 UFFF ....|C-4 2F1F ....
 A#3|..|A#1 2A.F ....|--- .... ....|--- .... ....
....|..|R-- .... ....|R-- .... ....|R-- .... ....
....|..|--- .... ....|R-- .... ....|--- .... ....
....|..|B-8 JF.F ....|A#5 UFFF ....|G-4 2FFF ....
 A#3|..|A#1 2A.F ....|--- .... ....|--- .... ....
....|..|R-- .... ....|R-- .... ....|R-- .... ....
....|..|--- .... ....|--- .... ....|--- .... ....
....|..|C-4 AF.F ....|A-5 UFFF ....|C-5 2FFF ....
 A#3|..|A#1 2A.F ....|--- .... ....|--- .... ....
....|..|R-- .... ....|--- .... ....|R-- .... ....
....|..|--- .... ....|--- .... ....|--- .... ....
....|..|B-8 JF.F ....|A#5 UFFF ....|F-4 2FF7 ....
 A#3|..|A#1 2A.F ....|--- .... ....|--- .... ....
....|..|R-- .... ....|--- .... ....|R-- .... ....
....|..|--- .... ....|R-- .... ....|--- .... ....
....|..|C-4 AF.F ....|C-6 UFFF ....|C-4 2F1F ....
 A-3|..|A-1 2A.F ....|--- .... ....|--- .... ....
....|..|R-- .... ....|--- .... ....|R-- .... ....
....|..|--- .... ....|--- .... ....|--- .... ....
....|..|B-8 JF.F ....|A-5 UFFA ....|E-4 2FFF ....
 A-3|..|A-1 2A.F ....|--- .... ....|--- .... ....
....|..|R-- .... ....|--- .... ....|R-- .... ....
....|..|--- .... ....|--- .... ....|--- .... ....
....|..|C-4 AF.F ....|C-6 UFF7 ....|A-4 2FFF ....
 A-3|..|A-1 2A.F ....|--- .... ....|--- .... ....
....|..|R-- .... ....|--- .... ....|R-- .... ....
....|..|--- .... ....|R-- .... ....|--- .... ....
....|..|B-8 JF.F ....|F-5 UFFF ....|C-5 2FFF ....
 A-3|..|A-1 2A.F ....|--- .... ....|--- .... ....
....|..|R-- .... ....|--- .... ....|R-- .... ....
....|..|--- .... ....|R-- .... ....|--- .... ....
....|..|C-4 AF.F ....|F-5 UFFF ....|C-4 2F5F ....
 D-4|..|D-2 2A.F ....|--- .... ....|--- .... ....
....|..|R-- .... ....|--- .... ....|R-- .... ....
....|..|--- .... ....|--- .... ....|--- .... ....
....|..|B-8 JF.F ....|A#5 UFF7 ....|F-4 2FFF ....
 D-4|..|D-2 2A.F ....|--- .... ....|--- .... ....
....|..|R-- .... ....|--- .... ....|R-- .... ....
....|..|--- .... ....|R-- .... ....|--- .... ....
....|..|C-4 AF.F ....|C-6 UFF7 ....|A-4 2FFF ....
 D-4|..|D-2 2A.F ....|--- .... ....|--- .... ....
....|..|R-- .... ....|--- .... ....|R-- .... ....
....|..|--- .... ....|R-- .... ....|--- .... ....
....|..|B-8 JF.F ....|A-5 UFFF ....|D-5 2FFF ....
 D-4|..|D-2 2A.F ....|R-- .... ....|--- .... ....
....|..|R-- .... ....|R-- .... ....|R-- .... ....
....|..|--- .... ....|--- .... ....|--- .... ....

[Pattern46]
....|..|C-4 AF.F ....|A#5 UFFF ....|A#3 2F1F ....
 A#3|..|A#1 2A.F ....|--- .... ....|--- .... ....
....|..|R-- .... ....|--- .... ....|R-- .... ....
....|..|--- .... ....|R-- .... ....|D-4 2F9F ....
....|..|B-8 JF.7 ....|A-5 UFFF ....|C-5 2FF7 ....
....|..|A-1 2F.7 ....|--- .... ....|--- .... ....
....|..|R-- .... ....|--- .... ....|R-- .... ....
....|..|--- .... ....|R-- .... ....|--- .... ....
....|..|C-4 AF.7 ....|F-5 UFFF ....|C-4 2F57 ....
....|..|D-2 2F.7 ....|R-- .... ....|--- .... ....
....|..|R-- .... ....|R-- .... ....|R-- .... ....
....|..|--- .... ....|R-- .... ....|--- .... ....
....|..|C-4 AF.F ....|A#5 UFFF ....|A#3 2F1F ....
 A#3|..|A#1 2A.F ....|--- .... ....|--- .... ....
....|..|R-- .... ....|--- .... ....|R-- .... ....
....|..|--- .... ....|R-- .... ....|D-4 2F9A ....
....|..|C-4 AF.7 ....|A-5 UFFF ....|A-4 2FF7 ....
....|..|D-2 2F.7 ....|--- .... ....|--- .... ....
....|..|R-- .... ....|--- .... ....|R-- .... ....
....|..|--- .... ....|R-- .... ....|--- .... ....
....|..|B-8 JF.7 ....|F-5 UFFF ....|D-5 2FF7 ....
....|..|D-2 2F.7 ....|R-- .... ....|--- .... ....
....|..|R-- .... ....|R-- .... ....|R-- .... ....
....|..|--- .... ....|R-- .... ....|--- .... ....
....|..|C-4 AF.F ....|D-6 UFFF ....|A#3 2F1F ....
 A#3|..|A#1 2A.F ....|--- .... ....|A#4 2FFF ....
....|..|R-- .... ....|--- .... ....|R-- .... ....
....|..|--- .... ....|R-- .... ....|D-4 2F97 ....
....|..|C-4 AF.F ....|C-6 UFFF ....|A#3 2F1F ....
 C-4|..|C-2 2A.F ....|--- .... ....|--- .... ....
....|..|C-4 9F.F ....|--- .... ....|--- .... ....
....|..|--- .... ....|R-- .... ....|--- .... ....
....|..|--- .... ....|F-5 UFF7 ....|--- .... ....
....|..|--- .... ....|--- .... ....|--- .... ....
....|..|--- .... ....|--- .... ....|--- .... ....
....|..|--- .... ....|R-- .... ....|--- .... ....
....|..|C-4 AF.F ....|A#5 UFF7 ....|A#3 2F17 ....
....|..|A#1 2F.7 ....|--- .... ....|A#4 2FFA ....
....|..|R-- .... ....|--- .... ....|R-- .... ....
....|..|--- .... ....|R-- .... ....|R-- .... ....
....|..|C-4 AF.F ....|A-5 UFF7 ....|A#3 2F1A ....
....|..|C-2 2F.A ....|--- .... ....|--- .... ....
....|..|C-4 9F.A ....|--- .... ....|--- .... ....
....|..|--- .... ....|R-- .... ....|--- .... ....
....|..|C-4 AF.F ....|F-5 UFF7 ....|--- .... ....
....|..|--- .... ....|--- .... ....|--- .... ....
....|..|--- .... ....|--- .... ....|--- .... ....
....|..|--- .... ....|R-- .... ....|--- .... ....
....|..|C-4 AF.F ....|F-5 3F.F ....|A#3 2F17 ....
....|..|A#1 2F.7 ....|--- .... ....|A#4 2FF7 ....
....|..|R-- .... ....|E-5 3F.F ....|R-- .... ....
....|..|--- .... ....|R-- .... ....|--- .... ....
....|..|C-4 AF.7 ....|F-5 3F.F ....|A#3 2F17 ....
....|..|C-2 2F.7 ....|--- .... ....|--- .... ....
....|..|C-4 AF.F ....|G-5 3F.F ....|--- .... ....
....|..|--- .... ....|--- .... ....|--- .... ....
....|..|C-4 AF.A ....|F-5 3F.F ....|--- .... ....
....|..|--- .... ....|--- .... ....|--- .... ....
....|..|--- .... ....|G-5 3F.F ....|--- .... ....
....|..|--- .... ....|--- .... ....|--- .... ....
....|..|C-4 AF.F ....|A-5 3F.F ....|--- .... ....
....|..|--- .... ....|--- .... ....|--- .... ....
....|..|--- .... ....|A#5 3F.F ....|--- .... ....
....|..|--- .... ....|--- .... ....|--- .... ....

[Pattern47]
....|..|C-4 AF.F ....|C-6 3F.F ....|R-- .... ....
 C-4|..|C-2 2A.F ....|--- .... ....|--- .... ....
....|..|C-4 AF.A ....|G-5 3F.A ....|--- .... ....
....|..|R-- .... ....|--- .... ....|R-- .... ....
....|..|C-4 AF.7 ....|F-5 3F.A ....|--- .... ....
....|..|--- .... ....|--- .... ....|--- .... ....
....|..|--- .... ....|G-5 3F.A ....|--- .... ....
....|..|--- .... ....|--- .... ....|--- .... ....
....|..|C-4 AF.7 ....|C-5 UFFF ....|--- .... ....
....|..|--- .... ....|--- .... ....|--- .... ....
....|..|--- .... ....|E-5 3F.7 ....|--- .... ....
....|..|--- .... ....|R-- .... ....|--- .... ....
....|..|C-4 AF.A ....|C-5 UFFF ....|R-- .... ....
....|..|C-2 2F.A ....|--- .... ....|--- .... ....
....|..|C-4 AF.7 ....|G-5 3F.7 ....|--- .... ....
....|..|R-- .... ....|--- .... ....|R-- .... ....
....|..|C-4 AF.F ....|A#5 UFFF ....|A#3 2F1F ....
 C-4|..|C-2 2A.F ....|--- .... ....|A#4 2FFF ....
....|..|--- .... ....|G-5 3F.7 ....|--- .... ....
....|..|--- .... ....|--- .... ....|--- .... ....
....|..|C-4 AF.7 ....|A#5 UFFF ....|--- .... ....
....|..|--- .... ....|A-5 UFFF ....|--- .... ....
....|..|--- .... ....|A#5 3F.7 ....|--- .... ....
....|..|--- .... ....|R-- .... ....|--- .... ....
....|..|C-4 9F.F ....|G-5 UFFF ....|R-- .... ....
....|..|C-2 2F.7 ....|--- .... ....|--- .... ....
....|..|--- .... ....|--- .... ....|--- .... ....
....|..|R-- .... ....|--- .... ....|R-- .... ....
....|..|C-4 AF.A ....|A-5 UFFF ....|A#3 2F1A ....
....|..|C-2 2F.A ....|--- .... ....|A#4 2FFA ....
....|..|R-- .... ....|--- .... ....|--- .... ....
....|..|--- .... ....|--- .... ....|--- .... ....
....|..|C-4 AF.F ....|F-5 UFFF ....|A-3 2F2F ....
 F-4|..|F-2 2A.F ....|A-5 UFFA ....|--- .... ....
....|..|R-- .... ....|--- .... ....|--- .... ....
....|..|--- .... ....|R-- .... ....|--- .... ....
....|..|B-8 JF.F ....|C-5 UFF7 ....|C-4 2FFF ....
 F-4|..|F-2 2A.F ....|--- .... ....|--- .... ....
....|..|R-- .... ....|--- .... ....|R-- .... ....
....|..|--- .... ....|--- .... ....|--- .... ....
....|..|C-4 AF.F ....|A#5 UFF7 ....|F-4 2FFF ....
 F-4|..|F-2 2A.F ....|--- .... ....|A#4 2FF7 ....
....|..|R-- .... ....|--- .... ....|R-- .... ....
....|..|--- .... ....|--- .... ....|--- .... ....
....|..|B-8 JF.F ....|A#5 UFF7 ....|C-5 2FFF ....
 F-4|..|F-2 2A.F ....|A-5 UFF7 ....|--- .... ....
....|..|R-- .... ....|--- .... ....|R-- .... ....
....|..|--- .... ....|R-- .... ....|--- .... ....
....|..|C-4 AF.F ....|G-5 UFF7 ....|C-4 2FFA ....
 F-4|..|F-2 2A.F ....|--- .... ....|--- .... ....
....|..|R-- .... ....|--- .... ....|R-- .... ....
....|..|--- .... ....|--- .... ....|--- .... ....
....|..|B-8 JF.F ....|A-5 UFF7 ....|A-4 2FFF ....
 F-4|..|F-2 2A.F ....|--- .... ....|--- .... ....
....|..|R-- .... ....|--- .... ....|R-- .... ....
....|..|--- .... ....|--- .... ....|--- .... ....
....|..|C-4 AF.F ....|F-5 UFF7 ....|A-3 2F27 ....
 F-4|..|F-2 2A.F ....|--- .... ....|F-4 2F.F ....
....|..|R-- .... ....|--- .... ....|R-- .... ....
....|..|--- .... ....|--- .... ....|--- .... ....
....|..|C-4 CF.F ....|--- .... ....|C-4 2FF7 ....
 F-4|..|F-2 2A.F ....|--- .... ....|--- .... ....
....|..|R-- .... ....|--- .... ....|R-- .... ....
....|..|--- .... ....|--- .... ....|--- .... ....

[Pattern48]
....|..|C-4 AF.F ....|R-- .... ....|B-3 2FBF ....
 C#4|..|C#2 2A.F ....|--- .... ....|--- .... ....
....|..|R-- .... ....|--- .... ....|R-- .... ....
....|..|--- .... ....|--- .... ....|--- .... ....
....|..|B-8 JF.F ....|C#5 3F.F ....|F-4 2FFF ....
 C#4|..|C#2 2A.F ....|--- .... ....|F-4 2F.A ....
....|..|R-- .... ....|C#5 3F.F ....|R-- .... ....
....|..|--- .... ....|--- .... ....|--- .... ....
....|..|C-4 AF.F ....|D#5 3F.F ....|G#4 2FFF ....
 C#4|..|C#2 2A.F ....|--- .... ....|--- .... ....
....|..|R-- .... ....|D#5 3F.F ....|R-- .... ....
....|..|--- .... ....|--- .... ....|--- .... ....
....|..|B-8 JF.F ....|F-5 3F.F ....|C#5 2FFF ....
 C#4|..|C#2 2A.F ....|--- .... ....|--- .... ....
....|..|R-- .... ....|F-5 3F.F ....|R-- .... ....
....|..|--- .... ....|--- .... ....|--- .... ....
....|..|C-4 AF.F ....|F#5 3F.F ....|F-4 2FFA ....
 C#4|..|C#2 2A.F ....|--- .... ....|F-4 2F.7 ....
....|..|C-4 LF.F ....|F#5 3F.F ....|R-- .... ....
....|..|R-- .... ....|--- .... ....|--- .... ....
....|..|B-8 JF.F ....|G#5 3F.F ....|G#4 2FFA ....
 C#4|..|C#2 2A.F ....|--- .... ....|--- .... ....
....|..|R-- .... ....|G#5 3F.F ....|R-- .... ....
....|..|--- .... ....|--- .... ....|--- .... ....
....|..|C-4 AF.F ....|A#5 3F.F ....|C#4 2FCF ....
 C#4|..|C#2 2A.F ....|--- .... ....|R-- .... ....
....|..|D#4 9F.F ....|A#5 3F.F ....|R-- .... ....
....|..|R-- .... ....|--- .... ....|--- .... ....
....|..|B-8 JF.F ....|B-5 3F.F ....|F-4 2FF7 ....
 C#4|..|C#2 2A.F ....|--- .... ....|--- .... ....
....|..|C-4 9F.F ....|B-5 3F.F ....|R-- .... ....
....|..|R-- .... ....|--- .... ....|--- .... ....
....|..|C-4 AF.F ....|C#6 UFFF ....|C#4 2F5F ....
 F#4|..|F#2 2A.F ....|--- .... ....|--- .... ....
....|..|R-- .... ....|D#5 3F.7 ....|R-- .... ....
....|..|--- .... ....|--- .... ....|--- .... ....
....|..|B-8 JF.F ....|F-5 3F.7 ....|F#4 2FFF ....
 F#4|..|F#2 2A.F ....|R-- .... ....|R-- .... ....
....|..|D#4 9F.A ....|F-5 3F.7 ....|R-- .... ....
....|..|R-- .... ....|--- .... ....|--- .... ....
....|..|C-4 AF.F ....|A#5 UFFF ....|A#4 2FFF ....
 F#4|..|F#2 2A.F ....|--- .... ....|--- .... ....
....|..|C-4 LF.7 ....|F#5 3F.7 ....|R-- .... ....
....|..|R-- .... ....|R-- .... ....|--- .... ....
....|..|B-8 JF.F ....|F#5 UFFF ....|C#5 2FFF ....
 F#4|..|F#2 2A.F ....|--- .... ....|--- .... ....
....|..|R-- .... ....|G#5 3F.7 ....|R-- .... ....
....|..|--- .... ....|--- .... ....|--- .... ....
....|..|C-4 AF.F ....|A#5 3F.7 ....|C#4 2FC7 ....
 F#4|..|F#2 2A.F ....|R-- .... ....|R-- .... ....
....|..|D#4 9F.7 ....|A#5 3F.7 ....|R-- .... ....
....|..|R-- .... ....|--- .... ....|--- .... ....
....|..|B-8 JF.F ....|C#6 UFFF ....|A#4 2FFA ....
 F#4|..|F#2 2A.F ....|--- .... ....|--- .... ....
....|..|C-4 9F.7 ....|B-5 3F.7 ....|R-- .... ....
....|..|R-- .... ....|R-- .... ....|--- .... ....
....|..|C-4 AF.F ....|C#6 UFF7 ....|C#4 2F57 ....
 F#4|..|F#2 2A.F ....|--- .... ....|--- .... ....
....|..|R-- .... ....|--- .... ....|R-- .... ....
....|..|--- .... ....|--- .... ....|--- .... ....
....|..|B-8 JF.F ....|B-5 UFFF ....|F#4 2FF7 ....
 F#4|..|F#2 2A.F ....|R-- .... ....|R-- .... ....
....|..|R-- .... ....|--- .... ....|R-- .... ....
....|..|--- .... ....|--- .... ....|--- .... ....

[Pattern49]
....|..|C-4 AF.F ....|A#5 UFF7 ....|C#4 2F1F ....
 C#4|..|C#2 2A.F ....|--- .... ....|--- .... ....
....|..|R-- .... ....|--- .... ....|R-- .... ....
....|..|--- .... ....|R-- .... ....|--- .... ....
....|..|B-8 JF.F ....|G#5 UFFF ....|F-4 2FFF ....
 C#4|..|C#2 2A.F ....|--- .... ....|--- .... ....
....|..|R-- .... ....|D#5 3F.F ....|R-- .... ....
....|..|--- .... ....|R-- .... ....|--- .... ....
....|..|C-4 AF.F ....|F-5 3F.F ....|G#4 2FFF ....
 C#4|..|C#2 2A.F ....|--- .... ....|R-- .... ....
....|..|R-- .... ....|R-- .... ....|--- .... ....
....|..|--- .... ....|--- .... ....|--- .... ....
....|..|B-8 JF.F ....|C#5 3F.F ....|C#5 2FFF ....
 C#4|..|C#2 2A.F ....|--- .... ....|--- .... ....
....|..|R-- .... ....|--- .... ....|R-- .... ....
....|..|--- .... ....|R-- .... ....|--- .... ....
....|..|C-4 AF.F ....|C#6 3F.F ....|F-4 2FFA ....
 C#4|..|C#2 2A.F ....|--- .... ....|--- .... ....
....|..|R-- .... ....|D#5 3F.A ....|R-- .... ....
....|..|--- .... ....|R-- .... ....|--- .... ....
....|..|B-8 JF.F ....|B-5 UFF7 ....|G#4 2FFF ....
 C#4|..|C#2 2A.F ....|--- .... ....|R-- .... ....
....|..|R-- .... ....|R-- .... ....|R-- .... ....
....|..|--- .... ....|--- .... ....|--- .... ....
....|..|C-4 AF.F ....|C#5 3F.A ....|F-4 2FFF ....
 C#4|..|C#2 2A.F ....|--- .... ....|--- .... ....
....|..|R-- .... ....|--- .... ....|R-- .... ....
....|..|--- .... ....|R-- .... ....|--- .... ....
....|..|B-8 JF.F ....|G#5 UFF7 ....|F-4 2F.F ....
 C#4|..|C#2 2A.F ....|--- .... ....|R-- .... ....
....|..|R-- .... ....|D#5 3F.7 ....|R-- .... ....
....|..|--- .... ....|R-- .... ....|--- .... ....
....|..|C-4 AF.F ....|B-5 UFFF ....|C#4 2F1F ....
 C#4|..|C#2 2A.F ....|--- .... ....|R-- .... ....
....|..|R-- .... ....|R-- .... ....|R-- .... ....
....|..|--- .... ....|--- .... ....|--- .... ....
....|..|B-8 JF.F ....|C#5 3F.7 ....|C#4 2FFF ....
 C#4|..|C#2 2A.F ....|--- .... ....|--- .... ....
....|..|R-- .... ....|--- .... ....|R-- .... ....
....|..|--- .... ....|--- .... ....|--- .... ....
....|..|C-4 AF.F ....|G#5 UFFF ....|F-4 2FFF ....
 C#4|..|C#2 2A.F ....|--- .... ....|R-- .... ....
....|..|R-- .... ....|--- .... ....|R-- .... ....
....|..|--- .... ....|R-- .... ....|--- .... ....
....|..|B-8 JF.F ....|F-5 UFFF ....|G#4 2FFF ....
 C#4|..|C#2 2A.F ....|--- .... ....|--- .... ....
....|..|R-- .... ....|--- .... ....|R-- .... ....
....|..|--- .... ....|--- .... ....|--- .... ....
....|..|C-4 AF.F ....|B-5 3F.F ....|D-4 2F3F ....
 D-4|..|D-2 2A.F ....|--- .... ....|--- .... ....
....|..|R-- .... ....|--- .... ....|R-- .... ....
....|..|--- .... ....|--- .... ....|--- .... ....
....|..|B-8 JF.F ....|B-5 UFFF ....|F-4 2FFF ....
 D-4|..|D-2 2A.F ....|--- .... ....|R-- .... ....
....|..|R-- .... ....|--- .... ....|R-- .... ....
....|..|--- .... ....|R-- .... ....|--- .... ....
....|..|C-4 AF.F ....|B-5 UFF7 ....|G#4 2FFF ....
 D-4|..|D-2 2A.F ....|R-- .... ....|--- .... ....
....|..|R-- .... ....|--- .... ....|R-- .... ....
....|..|--- .... ....|--- .... ....|--- .... ....
....|..|B-8 JF.F ....|A#5 UFFF ....|D-5 2FFF ....
 D-4|..|D-2 2A.F ....|--- .... ....|F-4 2F9F ....
....|..|R-- .... ....|--- .... ....|R-- .... ....
....|..|--- .... ....|--- .... ....|--- .... ....

[Pattern50]
....|..|C-4 AF.F ....|A#5 3F.F ....|D#4 2F6F ....
 D#4|..|D#2 2A.F ....|--- .... ....|--- .... ....
....|..|R-- .... ....|--- .... ....|R-- .... ....
....|..|--- .... ....|R-- .... ....|--- .... ....
....|..|B-8 JF.F ....|F#5 UFFF ....|F#4 2FFF ....
 D#4|..|D#2 2A.F ....|R-- .... ....|--- .... ....
....|..|R-- .... ....|--- .... ....|R-- .... ....
....|..|--- .... ....|R-- .... ....|--- .... ....
....|..|C-4 AF.F ....|D#6 3F.F ....|A#4 2FFF ....
 D#4|..|D#2 2A.F ....|--- .... ....|F-4 2F9A ....
....|..|R-- .... ....|--- .... ....|R-- .... ....
....|..|--- .... ....|R-- .... ....|--- .... ....
....|..|B-8 JF.F ....|D#5 3F.F ....|D#5 2FFF ....
 D#4|..|D#2 2A.F ....|--- .... ....|--- .... ....
....|..|R-- .... ....|--- .... ....|R-- .... ....
....|..|--- .... ....|R-- .... ....|--- .... ....
....|..|C-4 AF.F ....|F#5 UFFA ....|G#4 2FF7 ....
 D#4|..|D#2 2A.F ....|R-- .... ....|--- .... ....
....|..|R-- .... ....|--- .... ....|R-- .... ....
....|..|--- .... ....|R-- .... ....|--- .... ....
....|..|B-8 JF.F ....|A#5 3F.F ....|A#4 2FFF ....
 D#4|..|D#2 2A.F ....|--- .... ....|F-4 2F97 ....
....|..|R-- .... ....|A-5 3F.F ....|R-- .... ....
....|..|--- .... ....|R-- .... ....|--- .... ....
....|..|C-4 AF.F ....|A#5 3F.F ....|F#4 2FFF ....
 D#4|..|D#2 2A.F ....|--- .... ....|--- .... ....
....|..|R-- .... ....|R-- .... ....|R-- .... ....
....|..|--- .... ....|R-- .... ....|--- .... ....
....|..|B-8 JF.F ....|D#6 3F.F ....|F#4 2FF7 ....
 D#4|..|D#2 2A.F ....|--- .... ....|--- .... ....
....|..|R-- .... ....|C#6 3F.F ....|R-- .... ....
....|..|--- .... ....|R-- .... ....|--- .... ....
....|..|C-4 AF.F ....|B-5 3F.F ....|B-3 2F6F ....
 B-3|..|B-1 2A.F ....|--- .... ....|--- .... ....
....|..|R-- .... ....|A-5 3F.A ....|R-- .... ....
....|..|--- .... ....|R-- .... ....|--- .... ....
....|..|B-8 JF.F ....|D#5 3F.7 ....|D-4 2FFF ....
 B-3|..|B-1 2A.F ....|--- .... ....|--- .... ....
....|..|R-- .... ....|R-- .... ....|R-- .... ....
....|..|--- .... ....|--- .... ....|--- .... ....
....|..|C-4 AF.F ....|D-5 UFFF ....|F#4 2FFF ....
 B-3|..|B-1 2A.F ....|--- .... ....|--- .... ....
....|..|R-- .... ....|C#6 3F.A ....|R-- .... ....
....|..|--- .... ....|R-- .... ....|--- .... ....
....|..|B-8 JF.F ....|A#5 3F.7 ....|B-4 2FFF ....
 B-3|..|B-1 2A.F ....|--- .... ....|--- .... ....
....|..|R-- .... ....|A-5 3F.7 ....|R-- .... ....
....|..|--- .... ....|R-- .... ....|--- .... ....
....|..|C-4 AF.F ....|F#5 UFFF ....|F#4 2FF7 ....
 B-3|..|B-1 2A.F ....|--- .... ....|--- .... ....
....|..|R-- .... ....|R-- .... ....|R-- .... ....
....|..|--- .... ....|--- .... ....|--- .... ....
....|..|B-8 JF.F ....|D#6 3F.7 ....|F#4 2FFF ....
 B-3|..|B-1 2A.F ....|--- .... ....|--- .... ....
....|..|R-- .... ....|C#6 3F.7 ....|R-- .... ....
....|..|--- .... ....|--- .... ....|--- .... ....
....|..|C-4 AF.F ....|B-5 UFFF ....|D-4 2FFF ....
 B-3|..|B-1 2A.F ....|--- .... ....|--- .... ....
....|..|R-- .... ....|--- .... ....|R-- .... ....
....|..|--- .... ....|R-- .... ....|--- .... ....
....|..|B-8 JF.F ....|F#5 UFFA ....|D-4 2FF7 ....
 B-3|..|B-1 2A.F ....|--- .... ....|--- .... ....
....|..|R-- .... ....|--- .... ....|R-- .... ....
....|..|--- .... ....|R-- .... ....|--- .... ....

[Pattern51]
....|..|C-4 AF.F ....|A#5 UFFF ....|A#3 2F2F ....
 A#3|..|A#1 2A.F ....|--- .... ....|--- .... ....
....|..|R-- .... ....|--- .... ....|R-- .... ....
....|..|--- .... ....|--- .... ....|--- .... ....
....|..|B-8 JF.F ....|B-5 UFFA ....|F#4 2FFF ....
 A#3|..|A#1 2A.F ....|--- .... ....|--- .... ....
....|..|R-- .... ....|--- .... ....|R-- .... ....
....|..|--- .... ....|R-- .... ....|--- .... ....
....|..|C-4 AF.F ....|C#6 UFFF ....|A#4 2FFF ....
 A#3|..|A#1 2A.F ....|--- .... ....|--- .... ....
....|..|R-- .... ....|--- .... ....|R-- .... ....
....|..|--- .... ....|R-- .... ....|--- .... ....
....|..|B-8 JF.F ....|F#5 UFFF ....|C#5 2FFF ....
 A#3|..|A#1 2A.F ....|--- .... ....|--- .... ....
....|..|R-- .... ....|--- .... ....|C#4 2F.F ....
....|..|--- .... ....|--- .... ....|R-- .... ....
....|..|C-4 AF.F ....|D#6 3F.F ....|A#3 2F8F ....
 D#4|..|D#2 2A.F ....|R-- .... ....|--- .... ....
....|..|R-- .... ....|--- .... ....|R-- .... ....
....|..|--- .... ....|--- .... ....|--- .... ....
....|..|B-8 JF.F ....|C#6 3F.F ....|F#4 2FFF ....
 D#4|..|D#2 2A.F ....|--- .... ....|--- .... ....
....|..|R-- .... ....|--- .... ....|R-- .... ....
....|..|--- .... ....|R-- .... ....|--- .... ....
....|..|C-4 AF.F ....|B-5 3F.F ....|A#4 2FFF ....
 D#4|..|D#2 2A.F ....|--- .... ....|--- .... ....
....|..|R-- .... ....|--- .... ....|C#4 2F.A ....
....|..|--- .... ....|--- .... ....|R-- .... ....
....|..|B-8 JF.F ....|A#5 UFFF ....|D#5 2FFF ....
 D#4|..|D#2 2A.F ....|R-- .... ....|F#4 2F.F ....
....|..|R-- .... ....|--- .... ....|R-- .... ....
....|..|--- .... ....|R-- .... ....|--- .... ....
....|..|C-4 AF.F ....|B-5 UFFF ....|B-3 2F1F ....
 G#3|..|G#1 2A.F ....|--- .... ....|--- .... ....
....|..|R-- .... ....|--- .... ....|R-- .... ....
....|..|--- .... ....|--- .... ....|--- .... ....
....|..|B-8 JF.F ....|A#5 UFFF ....|G#4 2FFF ....
 G#3|..|G#1 2A.F ....|--- .... ....|--- .... ....
....|..|R-- .... ....|--- .... ....|C#4 2F.7 ....
....|..|--- .... ....|R-- .... ....|R-- .... ....
....|..|C-4 AF.F ....|B-5 UFFF ....|B-4 2FFF ....
 G#3|..|G#1 2A.F ....|R-- .... ....|F#4 2F.A ....
....|..|R-- .... ....|--- .... ....|R-- .... ....
....|..|--- .... ....|R-- .... ....|--- .... ....
....|..|B-8 JF.F ....|A#5 UFFF ....|D#5 2FFF ....
 G#3|..|G#1 2A.F ....|--- .... ....|--- .... ....
....|..|R-- .... ....|--- .... ....|R-- .... ....
....|..|--- .... ....|R-- .... ....|--- .... ....
....|..|C-4 AF.F ....|B-5 UFFF ....|A#4 2FF7 ....
 G#3|..|G#1 2A.F ....|--- .... ....|--- .... ....
....|..|R-- .... ....|--- .... ....|R-- .... ....
....|..|--- .... ....|R-- .... ....|--- .... ....
....|..|B-8 JF.F ....|A#5 UFFF ....|D#5 2FF7 ....
 G#3|..|G#1 2A.F ....|--- .... ....|F#4 2F.7 ....
....|..|R-- .... ....|--- .... ....|R-- .... ....
....|..|--- .... ....|R-- .... ....|--- .... ....
....|..|C-4 AF.F ....|F#5 UFFF ....|B-3 2F17 ....
 G#3|..|G#1 2A.F ....|--- .... ....|--- .... ....
....|..|R-- .... ....|--- .... ....|R-- .... ....
....|..|--- .... ....|R-- .... ....|--- .... ....
....|..|B-8 JF.F ....|G#5 UFFF ....|G#4 2FF7 ....
 G#3|..|G#1 2A.F ....|--- .... ....|--- .... ....
....|..|R-- .... ....|--- .... ....|R-- .... ....
....|..|--- .... ....|R-- .... ....|--- .... ....

[Pattern52]
....|..|C-4 AF.F ....|B-5 UFF7 ....|B-3 2F4F ....
 C#4|..|C#2 2A.F ....|--- .... ....|--- .... ....
....|..|R-- .... ....|--- .... ....|R-- .... ....
....|..|--- .... ....|--- .... ....|--- .... ....
....|..|C-4 CF.F ....|A#5 UFF7 ....|D#4 2FFF ....
 C#4|..|C#2 2A.F ....|--- .... ....|--- .... ....
....|..|R-- .... ....|--- .... ....|R-- .... ....
....|..|--- .... ....|R-- .... ....|--- .... ....
....|..|C-4 AF.F ....|B-5 UFF7 ....|F#4 2FFF ....
 C#4|..|C#2 2A.F ....|--- .... ....|--- .... ....
....|..|R-- .... ....|--- .... ....|R-- .... ....
....|..|--- .... ....|--- .... ....|--- .... ....
....|..|C-4 9F.F ....|A#5 UFF7 ....|C#5 2FFF ....
 C#4|..|C#2 2A.F ....|--- .... ....|--- .... ....
....|..|R-- .... ....|--- .... ....|R-- .... ....
....|..|--- .... ....|--- .... ....|--- .... ....
....|..|C-4 AF.F ....|F#5 UFFF ....|D#4 2FFA ....
 C#4|..|C#2 2A.F ....|--- .... ....|--- .... ....
....|..|C-4 LF.F ....|--- .... ....|R-- .... ....
....|..|R-- .... ....|R-- .... ....|--- .... ....
 C#4|..|C#2 2A.F ....|G#5 UFFF ....|F#4 2FFA ....
....|..|G#1 2F.7 ....|--- .... ....|--- .... ....
....|..|C-4 LF.F ....|--- .... ....|R-- .... ....
....|..|R-- .... ....|--- .... ....|--- .... ....
....|..|C-4 AF.F ....|A#5 UFFF ....|B-3 2F47 ....
 C#4|..|C#2 2A.F ....|--- .... ....|--- .... ....
....|..|C-4 9F.F ....|B-5 3F.F ....|D#4 2FAF ....
....|..|R-- .... ....|--- .... ....|G#4 2F.F ....
....|..|C-4 9F.F ....|B-5 UFFF ....|D#4 2FF7 ....
 C#4|..|C#2 2A.F ....|--- .... ....|--- .... ....
....|..|C-4 9F.F ....|G#5 3F.F ....|R-- .... ....
....|..|R-- .... ....|--- .... ....|--- .... ....
....|..|C-4 AF.F ....|C#6 UFFF ....|A#3 2F2F ....
 F#4|..|F#2 2A.F ....|--- .... ....|--- .... ....
....|..|C-4 LF.A ....|--- .... ....|R-- .... ....
....|..|R-- .... ....|--- .... ....|--- .... ....
....|..|B-8 JF.F ....|F#5 3F.F ....|F#4 2FFF ....
 F#4|..|F#2 2A.F ....|R-- .... ....|--- .... ....
....|..|C-4 9F.A ....|G#5 3F.F ....|D#4 2FAA ....
....|..|R-- .... ....|--- .... ....|G#4 2F.A ....
....|..|C-4 AF.F ....|A#5 UFFF ....|A#4 2FFF ....
 F#4|..|F#2 2A.F ....|--- .... ....|--- .... ....
....|..|C-4 LF.7 ....|G#5 3F.A ....|R-- .... ....
....|..|R-- .... ....|--- .... ....|--- .... ....
....|..|B-8 JF.F ....|F#5 UFFF ....|C#5 2FFF ....
 F#4|..|F#2 2A.F ....|--- .... ....|--- .... ....
....|..|C-4 LF.7 ....|R-- .... ....|R-- .... ....
....|..|R-- .... ....|--- .... ....|--- .... ....
....|..|C-4 AF.F ....|C#6 3F.F ....|F#4 2FFA ....
 F#4|..|F#2 2A.F ....|R-- .... ....|--- .... ....
....|..|C-4 9F.7 ....|B-5 3F.7 ....|D#4 2FA7 ....
....|..|R-- .... ....|--- .... ....|G#4 2F.7 ....
....|..|B-8 JF.F ....|C#6 UFFF ....|A#4 2FFA ....
 F#4|..|F#2 2A.F ....|--- .... ....|--- .... ....
....|..|C-4 9F.7 ....|G#5 3F.7 ....|R-- .... ....
....|..|R-- .... ....|--- .... ....|--- .... ....
....|..|C-4 AF.F ....|C#6 UFF7 ....|A#3 2F27 ....
 F#4|..|F#2 2A.F ....|R-- .... ....|--- .... ....
....|..|R-- .... ....|R-- .... ....|R-- .... ....
....|..|--- .... ....|--- .... ....|--- .... ....
....|..|B-8 JF.F ....|B-5 UFFF ....|F#4 2FF7 ....
 F#4|..|F#2 2A.F ....|R-- .... ....|--- .... ....
....|..|R-- .... ....|G#5 3F.7 ....|F#4 2F.F ....
....|..|--- .... ....|--- .... ....|R-- .... ....

[Pattern53]
....|..|C-4 AF.F ....|A#5 UFF7 ....|C#4 2F1F ....
 C#4|..|C#2 2A.F ....|--- .... ....|--- .... ....
....|..|R-- .... ....|R-- .... ....|R-- .... ....
....|..|--- .... ....|--- .... ....|--- .... ....
....|..|B-8 JF.F ....|G#5 UFFF ....|F-4 2FFF ....
 C#4|..|C#2 2A.F ....|R-- .... ....|--- .... ....
....|..|R-- .... ....|R-- .... ....|R-- .... ....
....|..|--- .... ....|R-- .... ....|--- .... ....
....|..|C-4 AF.F ....|C#6 3F.7 ....|G#4 2FFF ....
 C#4|..|C#2 2A.F ....|--- .... ....|--- .... ....
....|..|R-- .... ....|--- .... ....|F#4 2F.A ....
....|..|--- .... ....|--- .... ....|R-- .... ....
....|..|B-8 JF.F ....|C#6 UFF7 ....|C#5 2FFF ....
 C#4|..|C#2 2A.F ....|--- .... ....|--- .... ....
....|..|R-- .... ....|--- .... ....|R-- .... ....
....|..|--- .... ....|--- .... ....|--- .... ....
....|..|C-4 AF.F ....|G#5 UFFA ....|F-4 2FFA ....
 C#4|..|C#2 2A.F ....|R-- .... ....|--- .... ....
....|..|R-- .... ....|--- .... ....|R-- .... ....
....|..|--- .... ....|R-- .... ....|--- .... ....
....|..|B-8 JF.F ....|B-5 UFF7 ....|G#4 2FFF ....
 C#4|..|C#2 2A.F ....|--- .... ....|--- .... ....
....|..|R-- .... ....|--- .... ....|F#4 2F.7 ....
....|..|--- .... ....|--- .... ....|R-- .... ....
....|..|C-4 AF.F ....|--- .... ....|F-4 2FFF ....
 C#4|..|C#2 2A.F ....|--- .... ....|--- .... ....
....|..|R-- .... ....|--- .... ....|R-- .... ....
....|..|--- .... ....|--- .... ....|--- .... ....
....|..|B-8 JF.F ....|G#5 UFF7 ....|F-4 2FF7 ....
 C#4|..|C#2 2A.F ....|--- .... ....|R-- .... ....
....|..|R-- .... ....|--- .... ....|R-- .... ....
....|..|--- .... ....|R-- .... ....|--- .... ....
....|..|C-4 AF.F ....|B-5 UFFF ....|C#4 2F1F ....
 C#4|..|C#2 2A.F ....|--- .... ....|--- .... ....
....|..|R-- .... ....|--- .... ....|R-- .... ....
....|..|--- .... ....|--- .... ....|--- .... ....
....|..|B-8 JF.F ....|R-- .... ....|C#4 2FFF ....
 C#4|..|C#2 2A.F ....|R-- .... ....|--- .... ....
....|..|R-- .... ....|--- .... ....|R-- .... ....
....|..|--- .... ....|--- .... ....|--- .... ....
....|..|C-4 AF.F ....|G#5 UFFF ....|F-4 2FFF ....
 C#4|..|C#2 2A.F ....|--- .... ....|R-- .... ....
....|..|R-- .... ....|A#5 3F.F ....|R-- .... ....
....|..|--- .... ....|R-- .... ....|--- .... ....
....|..|B-8 JF.F ....|F-5 UFFF ....|G#4 2FFF ....
 C#4|..|C#2 2A.F ....|--- .... ....|--- .... ....
....|..|R-- .... ....|C#6 3F.F ....|R-- .... ....
....|..|--- .... ....|--- .... ....|R-- .... ....
....|..|C-4 AF.F ....|D-6 3F.F ....|D-4 2F3F ....
 D-4|..|D-2 2A.F ....|R-- .... ....|--- .... ....
....|..|R-- .... ....|--- .... ....|R-- .... ....
....|..|--- .... ....|--- .... ....|--- .... ....
....|..|B-8 JF.F ....|B-5 UFFF ....|F-4 2FFF ....
 D-4|..|D-2 2A.F ....|--- .... ....|R-- .... ....
....|..|R-- .... ....|A#5 3F.A ....|R-- .... ....
....|..|--- .... ....|R-- .... ....|--- .... ....
....|..|C-4 AF.F ....|B-5 UFF7 ....|G#4 2FFF ....
 D-4|..|D-2 2A.F ....|--- .... ....|--- .... ....
....|..|R-- .... ....|C#6 3F.A ....|R-- .... ....
....|..|--- .... ....|--- .... ....|R-- .... ....
....|..|B-8 JF.F ....|A#5 UFFF ....|D-5 2FFF ....
 D-4|..|D-2 2A.F ....|R-- .... ....|F-4 2F9F ....
....|..|R-- .... ....|--- .... ....|R-- .... ....
....|..|--- .... ....|--- .... ....|--- .... ....

[Pattern54]
....|..|C-4 AF.F ....|G#5 UFF7 ....|D#4 2F6F ....
 D#4|..|D#2 2A.F ....|--- .... ....|--- .... ....
....|..|R-- .... ....|A#5 3F.7 ....|R-- .... ....
....|..|--- .... ....|R-- .... ....|--- .... ....
....|..|B-8 JF.F ....|F#5 UFFF ....|F#4 2FFF ....
 D#4|..|D#2 2A.F ....|--- .... ....|--- .... ....
....|..|R-- .... ....|C#6 3F.7 ....|R-- .... ....
....|..|--- .... ....|R-- .... ....|R-- .... ....
....|..|C-4 AF.F ....|A-5 3F.F ....|A#4 2FFF ....
 D#4|..|D#2 2A.F ....|--- .... ....|F-4 2F9A ....
....|..|R-- .... ....|--- .... ....|R-- .... ....
....|..|--- .... ....|--- .... ....|--- .... ....
....|..|B-8 JF.F ....|A#5 3F.F ....|D#5 2FFF ....
 D#4|..|D#2 2A.F ....|--- .... ....|--- .... ....
....|..|R-- .... ....|--- .... ....|R-- .... ....
....|..|--- .... ....|--- .... ....|--- .... ....
....|..|C-4 AF.F ....|D#6 3F.F ....|G#4 2FF7 ....
 D#4|..|D#2 2A.F ....|--- .... ....|--- .... ....
....|..|R-- .... ....|--- .... ....|R-- .... ....
....|..|--- .... ....|R-- .... ....|--- .... ....
....|..|B-8 JF.F ....|C#6 3F.F ....|A#4 2FFF ....
 D#4|..|D#2 2A.F ....|--- .... ....|F-4 2F97 ....
....|..|R-- .... ....|--- .... ....|R-- .... ....
....|..|--- .... ....|--- .... ....|--- .... ....
....|..|C-4 AF.F ....|B-5 3F.F ....|F#4 2FFF ....
 D#4|..|D#2 2A.F ....|--- .... ....|--- .... ....
....|..|R-- .... ....|--- .... ....|R-- .... ....
....|..|--- .... ....|--- .... ....|--- .... ....
....|..|B-8 JF.F ....|A#5 3F.F ....|A#4 2F.F ....
 D#4|..|D#2 2A.F ....|--- .... ....|D#4 2F.F ....
....|..|R-- .... ....|--- .... ....|R-- .... ....
....|..|--- .... ....|R-- .... ....|--- .... ....
....|..|C-4 AF.F ....|D#5 UFFF ....|B-3 2F1F ....
 B-3|..|B-1 2A.F ....|--- .... ....|--- .... ....
....|..|R-- .... ....|--- .... ....|R-- .... ....
....|..|--- .... ....|--- .... ....|--- .... ....
....|..|B-8 JF.F ....|A#5 3F.7 ....|F#4 2FFF ....
 B-3|..|B-1 2A.F ....|--- .... ....|--- .... ....
....|..|R-- .... ....|--- .... ....|R-- .... ....
....|..|--- .... ....|R-- .... ....|--- .... ....
....|..|C-4 AF.F ....|D#6 UFFF ....|B-4 2FFF ....
 B-3|..|B-1 2A.F ....|--- .... ....|D#4 2F.A ....
....|..|R-- .... ....|--- .... ....|R-- .... ....
....|..|--- .... ....|--- .... ....|--- .... ....
....|..|B-8 JF.F ....|C#6 3F.7 ....|A#4 2FF7 ....
 B-3|..|B-1 2A.F ....|--- .... ....|--- .... ....
....|..|R-- .... ....|--- .... ....|D#4 2F9F ....
....|..|--- .... ....|--- .... ....|R-- .... ....
....|..|C-4 AF.F ....|C#6 UFFF ....|C#4 2F1F ....
 B-3|..|B-1 2A.F ....|--- .... ....|--- .... ....
....|..|R-- .... ....|--- .... ....|R-- .... ....
....|..|--- .... ....|R-- .... ....|--- .... ....
....|..|B-8 JF.F ....|B-5 UFFF ....|G#4 2FFF ....
 B-3|..|B-1 2A.F ....|--- .... ....|D#4 2F.7 ....
....|..|R-- .... ....|--- .... ....|R-- .... ....
....|..|--- .... ....|--- .... ....|--- .... ....
....|..|C-4 AF.F ....|A#5 UFFF ....|C#5 2FFF ....
 B-3|..|B-1 2A.F ....|--- .... ....|--- .... ....
....|..|R-- .... ....|--- .... ....|D#4 2F9A ....
....|..|--- .... ....|--- .... ....|R-- .... ....
....|..|B-8 JF.F ....|B-5 UFFF ....|F#4 2FF7 ....
 B-3|..|B-1 2A.F ....|--- .... ....|--- .... ....
....|..|R-- .... ....|--- .... ....|G#4 2F.F ....
....|..|--- .... ....|R-- .... ....|R-- .... ....

[Pattern55]
....|..|C-4 AF.F ....|C#6 UFFF ....|C#4 2F1F ....
 A#3|..|A#1 2A.F ....|--- .... ....|--- .... ....
....|..|R-- .... ....|--- .... ....|R-- .... ....
....|..|--- .... ....|--- .... ....|--- .... ....
....|..|B-8 JF.F ....|A#5 UFFA ....|F-4 2FFF ....
 A#3|..|A#1 2A.F ....|--- .... ....|--- .... ....
....|..|R-- .... ....|--- .... ....|D#4 2F97 ....
....|..|--- .... ....|--- .... ....|R-- .... ....
....|..|C-4 AF.F ....|C#6 UFF7 ....|A#4 2FFF ....
 A#3|..|A#1 2A.F ....|--- .... ....|--- .... ....
....|..|R-- .... ....|--- .... ....|G#4 2F.A ....
....|..|--- .... ....|R-- .... ....|R-- .... ....
....|..|B-8 JF.F ....|F#5 UFFF ....|C#5 2FFF ....
 A#3|..|A#1 2A.F ....|--- .... ....|--- .... ....
....|..|R-- .... ....|--- .... ....|G#4 2F.F ....
....|..|--- .... ....|R-- .... ....|R-- .... ....
....|..|C-4 AF.F ....|F#5 UFFF ....|C#4 2F5F ....
 D#4|..|D#2 2A.F ....|--- .... ....|--- .... ....
....|..|R-- .... ....|--- .... ....|R-- .... ....
....|..|--- .... ....|--- .... ....|--- .... ....
....|..|B-8 JF.F ....|B-5 UFF7 ....|F#4 2FFF ....
 D#4|..|D#2 2A.F ....|--- .... ....|--- .... ....
....|..|C-4 CF.F ....|--- .... ....|G#4 2F.7 ....
....|..|R-- .... ....|R-- .... ....|R-- .... ....
....|..|C-4 AF.F ....|C#6 UFF7 ....|A#4 2FFF ....
 D#4|..|D#2 2A.F ....|--- .... ....|--- .... ....
....|..|C-4 CF.F ....|--- .... ....|G#4 2F.A ....
....|..|R-- .... ....|R-- .... ....|R-- .... ....
....|..|B-8 JF.F ....|A#5 UFFF ....|A#4 2F.F ....
 D#4|..|D#2 2A.F ....|--- .... ....|R-- .... ....
....|..|R-- .... ....|R-- .... ....|R-- .... ....
....|..|--- .... ....|--- .... ....|--- .... ....
....|..|C-4 AF.F ....|B-5 UFFF ....|D#4 2F2F ....
 B-3|..|B-1 2A.F ....|--- .... ....|--- .... ....
....|..|C-4 CF.A ....|R-- .... ....|R-- .... ....
....|..|R-- .... ....|R-- .... ....|F#4 2FAF ....
....|..|B-8 JF.7 ....|A#5 UFFF ....|C#5 2FF7 ....
....|..|A#1 2F.7 ....|--- .... ....|--- .... ....
....|..|C-4 CF.A ....|--- .... ....|G#4 2F.7 ....
....|..|R-- .... ....|R-- .... ....|R-- .... ....
....|..|C-4 9F.F ....|F#5 UFFF ....|C#4 2F57 ....
....|..|D#2 2F.7 ....|--- .... ....|R-- .... ....
....|..|R-- .... ....|R-- .... ....|R-- .... ....
....|..|--- .... ....|R-- .... ....|--- .... ....
....|..|C-4 AF.F ....|B-5 UFFF ....|D#4 2F2F ....
 B-3|..|B-1 2A.F ....|--- .... ....|--- .... ....
....|..|C-4 CF.7 ....|R-- .... ....|R-- .... ....
....|..|R-- .... ....|--- .... ....|B-4 2F.F ....
....|..|D#4 9F.F ....|A#5 UFFF ....|A#4 2FF7 ....
....|..|D#2 2F.7 ....|--- .... ....|--- .... ....
....|..|C-4 CF.7 ....|--- .... ....|R-- .... ....
....|..|R-- .... ....|R-- .... ....|--- .... ....
....|..|C-4 9F.F ....|F#5 UFFF ....|A#4 2F.7 ....
....|..|D#2 2F.7 ....|--- .... ....|R-- .... ....
....|..|R-- .... ....|R-- .... ....|R-- .... ....
....|..|--- .... ....|R-- .... ....|--- .... ....
....|..|C-4 AF.F ....|D#6 UFFF ....|D#4 2F2F ....
 B-3|..|B-1 2A.F ....|R-- .... ....|B-4 2FFF ....
....|..|R-- .... ....|R-- .... ....|R-- .... ....
....|..|--- .... ....|R-- .... ....|F#4 2FA7 ....
....|..|C-4 AF.F ....|C#6 UFFF ....|D#4 2F2F ....
 C#4|..|C#2 2A.F ....|--- .... ....|--- .... ....
....|..|C-4 9F.F ....|--- .... ....|--- .... ....
....|..|--- .... ....|R-- .... ....|--- .... ....

[Pattern56]
....|..|C-4 9F.7 ....|F#5 UFF7 ....|--- .... ....
....|..|--- .... ....|--- .... ....|--- .... ....
....|..|--- .... ....|--- .... ....|--- .... ....
....|..|--- .... ....|R-- .... ....|--- .... ....
....|..|C-4 AF.F ....|B-5 UFF7 ....|D#4 2F27 ....
....|..|B-1 2F.7 ....|R-- .... ....|B-4 2FFA ....
....|..|R-- .... ....|R-- .... ....|R-- .... ....
....|..|--- .... ....|R-- .... ....|B-4 2F.7 ....
....|..|C-4 AF.F ....|A#5 UFF7 ....|D#4 2F2A ....
....|..|C#2 2F.A ....|--- .... ....|--- .... ....
....|..|C-4 9F.A ....|--- .... ....|--- .... ....
....|..|--- .... ....|R-- .... ....|--- .... ....
....|..|C-4 AF.F ....|F#5 UFF7 ....|--- .... ....
....|..|--- .... ....|--- .... ....|--- .... ....
....|..|--- .... ....|--- .... ....|--- .... ....
....|..|--- .... ....|R-- .... ....|--- .... ....
....|..|C-4 AF.F ....|F#5 3F.F ....|D#4 2F27 ....
....|..|B-1 2F.7 ....|R-- .... ....|B-4 2FF7 ....
....|..|R-- .... ....|F-5 3F.F ....|R-- .... ....
....|..|--- .... ....|R-- .... ....|--- .... ....
....|..|C-4 AF.7 ....|F#5 3F.F ....|D#4 2F27 ....
....|..|C#2 2F.7 ....|--- .... ....|--- .... ....
....|..|C-4 AF.F ....|G#5 3F.F ....|--- .... ....
....|..|--- .... ....|--- .... ....|--- .... ....
....|..|C-4 AF.A ....|F#5 3F.F ....|--- .... ....
....|..|--- .... ....|--- .... ....|--- .... ....
....|..|--- .... ....|G#5 3F.F ....|--- .... ....
....|..|--- .... ....|--- .... ....|--- .... ....
....|..|C-4 AF.F ....|A#5 3F.F ....|--- .... ....
....|..|--- .... ....|--- .... ....|--- .... ....
....|..|--- .... ....|B-5 3F.F ....|--- .... ....
....|..|--- .... ....|--- .... ....|B-4 2F.F ....
....|..|C-4 AF.F ....|C#6 3F.F ....|R-- .... ....
....|..|R-- .... ....|--- .... ....|--- .... ....
....|..|C-4 AF.A ....|G#5 3F.A ....|--- .... ....
....|..|--- .... ....|--- .... ....|--- .... ....
....|..|C-4 AF.7 ....|F#5 3F.A ....|--- .... ....
....|..|--- .... ....|--- .... ....|--- .... ....
....|..|R-- .... ....|G#5 3F.A ....|--- .... ....
....|..|--- .... ....|--- .... ....|--- .... ....
....|..|C-4 AF.7 ....|C#5 UFFF ....|--- .... ....
....|..|--- .... ....|--- .... ....|--- .... ....
....|..|--- .... ....|F-5 3F.7 ....|--- .... ....
....|..|--- .... ....|R-- .... ....|B-4 2F.A ....
....|..|C-4 AF.A ....|C#5 UFFF ....|R-- .... ....
....|..|R-- .... ....|--- .... ....|--- .... ....
....|..|C-4 AF.7 ....|G#5 3F.7 ....|--- .... ....
....|..|--- .... ....|--- .... ....|--- .... ....
....|..|C-4 AF.F ....|B-5 UFFF ....|F#4 2FFF ....
 C#4|..|C#2 2A.F ....|--- .... ....|B-4 2FFF ....
....|..|R-- .... ....|G#5 3F.7 ....|--- .... ....
....|..|--- .... ....|--- .... ....|--- .... ....
....|..|C-4 AF.7 ....|B-5 UFFF ....|--- .... ....
....|..|--- .... ....|A#5 UFFF ....|--- .... ....
....|..|--- .... ....|B-5 3F.7 ....|--- .... ....
....|..|--- .... ....|R-- .... ....|B-4 2F.7 ....
....|..|C-4 CF.F ....|G#5 UFFF ....|R-- .... ....
....|..|R-- .... ....|--- .... ....|--- .... ....
....|..|C-4 CF.F ....|C-6 3F.F ....|--- .... ....
....|..|R-- .... ....|C#6 3F.F ....|R-- .... ....
....|..|C-4 9F.F ....|A#5 UFFF ....|F#4 2FFA ....
....|..|C#2 2F.A ....|D#6 3F.F ....|B-4 2FFA ....
....|..|R-- .... ....|F-6 3F.F ....|--- .... ....
....|..|--- .... ....|--- .... ....|--- .... ....

[Pattern57]
....|..|C-4 AF.F ....|F#5 UFFF ....|D-4 2F1F ....
 G-3|..|G-1 2A.F ....|A#5 UFFA ....|--- .... ....
....|..|--- .... ....|--- .... ....|--- .... ....
....|..|--- .... ....|R-- .... ....|--- .... ....
....|..|B-8 JF.F ....|C#5 UFF7 ....|--- .... ....
....|..|R-- .... ....|--- .... ....|--- .... ....
....|..|C-4 CF.A ....|C-6 3F.A ....|--- .... ....
....|..|R-- .... ....|C#6 3F.A ....|R-- .... ....
....|..|C-4 AF.F ....|B-5 UFF7 ....|F#4 2FF7 ....
 G-3|..|G-1 2A.F ....|D#6 3F.A ....|B-4 2FF7 ....
....|..|--- .... ....|F-6 3F.A ....|--- .... ....
....|..|--- .... ....|--- .... ....|--- .... ....
....|..|B-8 JF.F ....|B-5 UFF7 ....|D-4 2F1A ....
....|..|G-1 2F.A ....|A#5 UFF7 ....|--- .... ....
....|..|R-- .... ....|--- .... ....|--- .... ....
....|..|--- .... ....|R-- .... ....|--- .... ....
....|..|C-4 AF.F ....|G#5 UFF7 ....|--- .... ....
 G-3|..|G-1 2A.F ....|--- .... ....|--- .... ....
....|..|C-4 CF.7 ....|C-6 3F.7 ....|--- .... ....
....|..|R-- .... ....|C#6 3F.7 ....|R-- .... ....
....|..|B-8 JF.F ....|A#5 UFF7 ....|--- .... ....
....|..|G-1 2F.A ....|D#6 3F.7 ....|--- .... ....
....|..|R-- .... ....|F-6 3F.7 ....|--- .... ....
....|..|--- .... ....|--- .... ....|--- .... ....
....|..|C-4 AF.F ....|F#5 UFF7 ....|D-4 2F17 ....
 G-3|..|G-1 2A.F ....|--- .... ....|--- .... ....
....|..|R-- .... ....|--- .... ....|--- .... ....
....|..|--- .... ....|--- .... ....|--- .... ....
....|..|B-8 JF.F ....|--- .... ....|--- .... ....
....|..|G-1 2F.A ....|--- .... ....|D-4 2F1F ....
....|..|R-- .... ....|--- .... ....|F#4 2F9F ....
....|..|--- .... ....|--- .... ....|F#4 2F9F ....
....|..|C-4 AF.F ....|--- .... ....|D-4 2FFF ....
 G-3|..|G-1 2A.F ....|--- .... ....|A-4 2FDF ....
....|..|R-- .... ....|--- .... ....|--- .... ....
....|..|--- .... ....|--- .... ....|--- .... ....
....|..|B-8 JF.F ....|--- .... ....|--- .... ....
....|..|G-1 2F.A ....|--- .... ....|--- .... ....
....|..|R-- .... ....|--- .... ....|--- .... ....
....|..|--- .... ....|--- .... ....|--- .... ....
....|..|C-4 AF.F ....|--- .... ....|--- .... ....
 G-3|..|G-1 2A.F ....|--- .... ....|D-4 2F1A ....
....|..|R-- .... ....|--- .... ....|F#4 2F9A ....
....|..|--- .... ....|--- .... ....|F#4 2F9A ....
....|..|B-8 JF.F ....|--- .... ....|D-4 2FFA ....
....|..|G-1 2F.A ....|--- .... ....|A-4 2FDA ....
....|..|R-- .... ....|R-- .... ....|--- .... ....
....|..|--- .... ....|--- .... ....|--- .... ....
....|..|C-4 AF.F ....|--- .... ....|E-4 2FFF ....
 G-3|..|G-1 2A.F ....|--- .... ....|--- .... ....
....|..|R-- .... ....|--- .... ....|--- .... ....
....|..|--- .... ....|--- .... ....|--- .... ....
....|..|B-8 JF.F ....|--- .... ....|--- .... ....
....|..|G-1 2F.A ....|--- .... ....|D-4 2F17 ....
....|..|R-- .... ....|--- .... ....|F#4 2F97 ....
....|..|--- .... ....|--- .... ....|F#4 2F97 ....
....|..|C-4 AF.F ....|--- .... ....|D-4 2FF7 ....
 G-3|..|G-1 2A.F ....|--- .... ....|A-4 2FD7 ....
....|..|C-4 9F.F ....|R-- .... ....|--- .... ....
....|..|R-- .... ....|--- .... ....|--- .... ....
....|..|B-8 JF.F ....|--- .... ....|E-4 2FFA ....
....|..|G-1 2F.A ....|--- .... ....|A-4 2FEF ....
....|..|R-- .... ....|--- .... ....|--- .... ....
....|..|--- .... ....|--- .... ....|R-- .... ....

[Pattern58]
....|..|C-4 AF.F ....|--- .... ....|G#3 2FDF ....
 F#3|..|F#1 2A.F ....|--- .... ....|--- .... ....
....|..|R-- .... ....|--- .... ....|--- .... ....
....|..|--- .... ....|--- .... ....|--- .... ....
....|..|B-8 JF.7 ....|--- .... ....|--- .... ....
....|..|G-1 2F.A ....|--- .... ....|--- .... ....
....|..|C-4 9F.A ....|R-- .... ....|--- .... ....
....|..|R-- .... ....|--- .... ....|--- .... ....
 F#3|..|F#1 2A.F ....|--- .... ....|E-4 2FF7 ....
....|..|G-1 2F.7 ....|--- .... ....|A-4 2FEA ....
....|..|R-- .... ....|--- .... ....|--- .... ....
....|..|--- .... ....|--- .... ....|R-- .... ....
....|..|B-8 JF.7 ....|--- .... ....|G#3 2FDA ....
....|..|F#1 2F.A ....|--- .... ....|--- .... ....
....|..|R-- .... ....|--- .... ....|--- .... ....
....|..|R-- .... ....|--- .... ....|--- .... ....
 F#3|..|F#1 2A.F ....|--- .... ....|--- .... ....
....|..|G-1 2F.7 ....|--- .... ....|--- .... ....
....|..|C-4 9F.7 ....|--- .... ....|--- .... ....
....|..|R-- .... ....|--- .... ....|--- .... ....
....|..|B-8 JF.7 ....|--- .... ....|--- .... ....
....|..|--- .... ....|--- .... ....|A-4 2FE7 ....
....|..|R-- .... ....|--- .... ....|--- .... ....
....|..|--- .... ....|--- .... ....|R-- .... ....
 F#3|..|F#1 2A.F ....|--- .... ....|G#3 2FD7 ....
....|..|F#1 2F.7 ....|--- .... ....|--- .... ....
....|..|--- .... ....|--- .... ....|--- .... ....
....|..|R-- .... ....|--- .... ....|--- .... ....
....|..|F#1 2F.A ....|--- .... ....|--- .... ....
....|..|--- .... ....|--- .... ....|--- .... ....
....|..|R-- .... ....|--- .... ....|--- .... ....
....|..|--- .... ....|--- .... ....|--- .... ....
....|..|C-4 AF.F ....|R-- .... ....|A#3 2F2F ....
....|..|C-4 AF.F ....|--- .... ....|--- .... ....
 F#3|..|F#1 2A.F ....|--- .... ....|R-- .... ....
....|..|--- .... ....|--- .... ....|--- .... ....
....|..|F#1 2F.A ....|--- .... ....|R-- .... ....
....|..|--- .... ....|--- .... ....|--- .... ....
....|..|--- .... ....|--- .... ....|--- .... ....
....|..|R-- .... ....|--- .... ....|--- .... ....
....|..|F#1 2F.7 ....|--- .... ....|--- .... ....
....|..|--- .... ....|--- .... ....|--- .... ....
....|..|R-- .... ....|--- .... ....|--- .... ....
....|..|--- .... ....|--- .... ....|--- .... ....
....|..|C-4 9F.F ....|F#4 3F.F ....|A#3 2F2A ....
 F#3|..|F#1 2A.F ....|R-- .... ....|--- .... ....
....|..|C-4 9F.F ....|F#4 3F.F ....|R-- .... ....
....|..|R-- .... ....|R-- .... ....|--- .... ....
....|..|C-4 AF.F ....|F#4 3F.F ....|R-- .... ....
....|..|C-4 AF.F ....|--- .... ....|--- .... ....
 F#3|..|F#1 2A.F ....|R-- .... ....|--- .... ....
....|..|--- .... ....|--- .... ....|--- .... ....
....|..|R-- .... ....|--- .... ....|--- .... ....
....|..|--- .... ....|--- .... ....|--- .... ....
....|..|R-- .... ....|--- .... ....|--- .... ....
....|..|--- .... ....|--- .... ....|--- .... ....
....|..|C-4 AF.7 ....|F#4 3F.A ....|A#3 2F27 ....
....|..|C-4 AF.7 ....|R-- .... ....|--- .... ....
....|..|F#1 2F.7 ....|F#4 3F.A ....|R-- .... ....
....|..|R-- .... ....|R-- .... ....|--- .... ....
....|..|C-4 AF.A ....|F#4 3F.A ....|R-- .... ....
....|..|C-4 AF.A ....|--- .... ....|--- .... ....
....|..|F#1 2F.A ....|R-- .... ....|--- .... ....
....|..|--- .... ....|--- .... ....|--- .... ....

[Pattern59]
....|..|R-- .... ....|--- .... ....|--- .... ....
....|..|--- .... ....|--- .... ....|--- .... ....
....|..|--- .... ....|--- .... ....|--- .... ....
....|..|--- .... ....|--- .... ....|--- .... ....
....|..|C-4 9F.7 ....|F#4 3F.7 ....|--- .... ....
....|..|F#1 2F.7 ....|R-- .... ....|--- .... ....
....|..|C-4 9F.7 ....|F#4 3F.7 ....|--- .... ....
....|..|R-- .... ....|R-- .... ....|--- .... ....
....|..|C-4 AF.7 ....|F#4 3F.7 ....|--- .... ....
....|..|C-4 AF.7 ....|--- .... ....|--- .... ....
....|..|F#1 2F.7 ....|R-- .... ....|--- .... ....
....|..|--- .... ....|--- .... ....|--- .... ....

