[Module]
VortexTrackerII=0
Version=3.5
Title=3d-2meu,1m[3f],2mew-1m[4e]+
Author=oisee ^ 4d 29.05.2010
NoteTable=4
ChipFreq=1750000
Speed=4
PlayOrder=L0,1,2,3,4,5,6,7,8,9,10,11,12,13,14,15,16,17,18,19,20,21,22,23,24,25,26,27,28,29,30,31,32



[Sample1]
TnE +000_ +00_ F_
TnE +000_ +00_ F_
TnE +000_ +00_ F_
TnE +000_ +00_ D_
TnE +000_ +00_ B_
TnE +000_ +00_ B_ L

[Sample2]
TnE +000_ +00_ F_ L

[Sample3]
TnE +001_ +00_ F_
TnE +002_ +00_ F_
TnE +001_ +00_ E_
TnE +002_ +00_ E_
TnE +000_ +00_ E_ L
TnE -001_ +00_ E_
TnE -002_ +00_ E_
TnE -001_ +00_ E_
TnE +000_ +00_ E_
TnE +001_ +00_ E_
TnE +002_ +00_ E_
TnE +001_ +00_ E_

[Sample4]
TnE +002_ +00_ D_
TnE +002_ +00_ D_
TnE +002_ +00_ C_
TnE +002_ +00_ B_
TnE +002_ +00_ A_ L
TnE +002_ +00_ A_
TnE +002_ +00_ A_
TnE +002_ +00_ A_
TnE +002_ +00_ A_
TnE +002_ +00_ A_
TnE +002_ +00_ A_
TnE +002_ +00_ A_

[Sample5]
TnE +000_ +00_ F_
TnE +000_ +00_ F_
tne +000_ +00_ 0_ L

[Sample6]
TnE -001_ +00_ F_ L

[Sample7]
TnE +006_ +00_ F_ L

[Sample8]
tNe +000_ +00_ F_
tNe +000_ +00_ B_
tNe +000_ +00_ 7_
tNe +000_ +00_ 6- L

[Sample9]
TnE +080_ +00_ F_
TnE +100_ +00_ E_
TnE +180_ +00_ E_
TnE +200_ +00_ E_
TnE +240_ +00_ D_
TnE +280_ +00_ D_
TnE +2C0_ +00_ D_
TnE +300_ +00_ C_
TnE +300_ +00_ C_
TnE +340_ +00_ C_
TnE +340_ +00_ C_
TnE +380_ +00_ B_
TnE +380_ +00_ B_
TnE +400_ +00_ B_
TnE +400_ +00_ B_
TnE +480_ +00_ A_
TnE +500_ +00_ 9_
TnE +580_ +00_ 7_
TnE +600_ +00_ 4_
TnE +680_ +00_ 1_
TnE +000_ +00_ 0_ L

[Sample10]
Tne +1C0_ +00_ F_
Tne +280_ +00_ E_
Tne +380_ +00_ C_
Tne +440_ +00_ A_
Tne +480_ +00_ 8_
TnE +000_ +00_ 0_ L

[Sample11]
TNe +200_ -0A_ F_
tNe +000_ +0F_ A_
TNe +200_ -07_ E_
tNe +000_ +0E_ B- L

[Sample12]
TNE +0A0_ +05_ F_
TNE +140_ +02_ D_
TNE +140_ +02_ B_
TNE +100_ +00_ A_ L
TNE +140_ +00_ A_
TNE +200_ +00_ A-

[Sample13]
Tne +200_ +00_ F_
Tne +2C0_ +00_ F_
Tne +380_ +00_ E_
Tne +500_ +00_ C_
Tne +520_ +00_ 9_
tne +000_ +00_ 0_ L

[Sample14]
TNE -100_ +00_ F_
TNE -100_ +00_ D_
TNE -100_ +00_ A_
TNE -100_ +00_ 5_
tne +000_ +00_ 0_ L

[Sample15]
TNE -100_ +00_ 5_
TNE -100_ +00_ 8_
TNE -100_ +00_ B_
TNE -100_ +00_ F_
TNe -100_ +00_ 9- L

[Sample16]
TnE +000_ +00_ C_
TnE +000_ +00_ E_
TnE +000_ +00_ F_
TnE +000_ +00_ F_
TnE +000_ +00_ E_
TnE +000_ +00_ D_
TnE +000_ +00_ C_
TnE +000_ +00_ C_ L
TnE +001_ +00_ C_
TnE +002_ +00_ C_
TnE +003_ +00_ C_
TnE +001_ +00_ C_
TnE +000_ +00_ C_
TnE -001_ +00_ C_
TnE -002_ +00_ C_
TnE -003_ +00_ C_
TnE -001_ +00_ C_
TnE +000_ +00_ C_
TnE +000_ +00_ C_

[Sample17]
Tne +1C0_ +00_ F_
Tne +280_ +00_ D_
Tne +380_ +00_ 7_
TNE +000_ +00_ 0_ L

[Sample18]
TnE -00C_ +00_ 0_ L

[Sample19]
TNe +000_ +00_ F_
TNe +000_ +00_ C_
TNe +000_ +00_ 6_
TNe +000_ +01_ A- L

[Sample20]
TNE +140_ +00_ F_
tNE +000_ +00_ B- L

[Sample21]
tNE +000_ +00_ D_
tNE +000_ +00_ 8_
tNE +000_ +00_ 1_
TNE +000_ +00_ 0_ L

[Sample22]
TnE +000_ +00_ D_ L
TnE +000_ +00_ D_
tne +000_ +00_ 9_
tne +000_ +00_ 9_
TnE +000_ +00_ D_
TnE +000_ +00_ D_
tne +000_ +00_ 9_
tne +000_ +00_ 9_
TnE +000_ +00_ D_
TnE +000_ +00_ D_
TnE +000_ +00_ D_
TnE +000_ +00_ D_
TnE +000_ +00_ D_
TnE +000_ +00_ D_
tne +000_ +00_ 9_
tne +000_ +00_ 9_

[Sample23]
TnE +000_ +00_ F_ L
TnE +010_ +01_ F_
TnE +010_ +01_ F_
TnE +010_ +01_ F_
TnE +010_ +01_ F_
TnE +000_ +00_ F_
TnE +000_ +00_ F_
TnE -010_ -01_ F_
TnE -010_ -01_ F_
TnE -010_ -01_ F_
TnE -010_ -01_ F_
TnE +000_ +00_ F_

[Sample24]
TNe +000_ -01_ C_
TNe +000_ -01_ D_
TNe +000_ -01_ E_
TNe +000_ -01_ F_
TNe +000_ -01_ F_
TNe +000_ -01_ F_
TNe +000_ -01_ F_
TNe +000_ -01_ F_
TNe +000_ -01_ E_
TNe +000_ -01_ E_
TNe +000_ -01_ E_
TNe +000_ -01_ F_
TNe +000_ -01_ F_ L

[Sample25]
TNE +000_ +00_ F_
TNE +000_ +00_ F_ L
TNE +000_ +00_ F_
TNE +000_ +00_ F_
TNE +000_ +00_ F-

[Sample26]
tne +000_ +00_ 0_ L

[Sample27]
TnE +100_ +05_ F_
TnE +200_ +02_ A_
TnE +300_ +02_ 7_
TNE +400_ +00_ 3- L

[Sample28]
tne +000_ +00_ 0_ L

[Sample29]
tnE +000_ +00_ 0_ L

[Sample30]
TNE +000_ +00_ C+ L

[Sample31]
TNe +1C0_ +00_ F_
Tne +280_ +00_ E_
Tne +380_ +00_ C_
Tne +440_ +00_ A_
Tne +480_ +00_ 8_
TnE +000_ +00_ 0_ L

[Pattern0]
 C-4|..|B-8 JF.F ....|--- .... ....|C-2 2A.F ....
 C-4|..|C-2 2A.F ....|--- .... ....|--- .... ....
....|..|--- .... ....|--- .... ....|--- .... ....
....|..|--- .... ....|--- .... ....|--- .... ....
 C-4|..|C-4 LF.F ....|--- .... ....|C-2 2A.F ....
 C-4|..|C-2 2A.F ....|--- .... ....|--- .... ....
 C-4|..|C-4 LF.F ....|--- .... ....|C-2 2A.F ....
 C-4|..|C-2 2A.F ....|--- .... ....|--- .... ....
 G-3|..|C-4 LF.F ....|--- .... ....|G-1 2A.F ....
 G-3|..|G-1 2A.F ....|--- .... ....|--- .... ....
....|..|C-4 LF.A ....|--- .... ....|--- .... ....
....|..|--- .... ....|--- .... ....|--- .... ....
 G-3|..|C-4 LF.F ....|--- .... ....|G-1 2A.F ....
 G-3|..|G-1 2A.F ....|--- .... ....|--- .... ....
....|..|C-4 LF.A ....|--- .... ....|--- .... ....
....|..|--- .... ....|--- .... ....|--- .... ....
 C-4|..|C-4 LF.F ....|--- .... ....|C-2 2A.F ....
 C-4|..|C-2 2A.F ....|--- .... ....|--- .... ....
....|..|C-4 LF.F ....|--- .... ....|C-2 2F.A ....
....|..|--- .... ....|--- .... ....|--- .... ....
 C-4|..|C-4 LF.F ....|--- .... ....|C-2 2A.F ....
 C-4|..|C-2 2A.F ....|--- .... ....|--- .... ....
 C-4|..|C-4 LF.F ....|--- .... ....|C-2 2A.F ....
 C-4|..|C-2 2A.F ....|--- .... ....|--- .... ....
 G-3|..|C-4 LF.F ....|--- .... ....|G-1 2A.F ....
 G-3|..|G-1 2A.F ....|--- .... ....|--- .... ....
....|..|C-4 LF.A ....|--- .... ....|--- .... ....
....|..|--- .... ....|--- .... ....|--- .... ....
 G-3|..|C-4 LF.F ....|--- .... ....|G-1 2A.F ....
 G-3|..|G-1 2A.F ....|--- .... ....|--- .... ....
....|..|C-4 LF.7 ....|--- .... ....|C-2 2F.7 ....
....|..|--- .... ....|--- .... ....|--- .... ....
 C-4|..|B-8 JF.F ....|--- .... ....|C-2 2A.F ....
 C-4|..|C-2 2A.F ....|--- .... ....|--- .... ....
....|..|C-4 LF.7 ....|--- .... ....|C-2 2F.A ....
....|..|--- .... ....|--- .... ....|--- .... ....
 C-4|..|C-4 LF.F ....|--- .... ....|C-2 2A.F ....
 C-4|..|C-2 2A.F ....|--- .... ....|--- .... ....
 C-4|..|C-4 LF.F ....|--- .... ....|C-2 2A.F ....
 C-4|..|C-2 2A.F ....|--- .... ....|--- .... ....
 G-3|..|C-4 LF.F ....|--- .... ....|G-1 2A.F ....
 G-3|..|G-1 2A.F ....|--- .... ....|--- .... ....
....|..|C-4 LF.A ....|--- .... ....|--- .... ....
....|..|--- .... ....|--- .... ....|--- .... ....
 G-3|..|C-4 LF.F ....|--- .... ....|G-1 2A.F ....
 G-3|..|G-1 2A.F ....|--- .... ....|--- .... ....
....|..|C-4 LF.A ....|--- .... ....|C-2 2F.7 ....
....|..|--- .... ....|--- .... ....|--- .... ....
 C-4|..|C-4 LF.F ....|--- .... ....|C-2 2A.F ....
 C-4|..|C-2 2A.F ....|--- .... ....|--- .... ....
....|..|C-4 LF.7 ....|--- .... ....|C-2 2F.A ....
....|..|--- .... ....|--- .... ....|--- .... ....
....|..|C-4 LF.F ....|--- .... ....|G-1 2F.7 ....
....|..|--- .... ....|--- .... ....|--- .... ....
....|..|C-4 LF.A ....|--- .... ....|--- .... ....
....|..|--- .... ....|--- .... ....|--- .... ....
....|..|C-4 LF.F ....|--- .... ....|C-2 2F.7 ....
....|..|R-- .... ....|--- .... ....|--- .... ....
....|..|C-4 LF.A ....|--- .... ....|--- .... ....
....|..|--- .... ....|--- .... ....|--- .... ....
....|..|C-4 LF.7 ....|--- .... ....|C-2 2F.7 ....
....|..|--- .... ....|--- .... ....|--- .... ....
....|..|C-4 LF.A ....|--- .... ....|C-2 2F.7 ....
....|..|--- .... ....|--- .... ....|--- .... ....

[Pattern1]
 C-4|..|B-8 JF.F ....|C-4 3FFF ....|C-2 2A.F ....
 C-4|..|C-2 2A.F ....|--- .... ....|--- .... ....
....|..|R-- .... ....|--- .... ....|--- .... ....
....|..|--- .... ....|--- .... ....|--- .... ....
 C-4|..|C-4 LF.F ....|--- .... ....|C-2 2A.F ....
 C-4|..|C-2 2A.F ....|--- .... ....|--- .... ....
 C-4|..|C-4 LF.F ....|C-4 3FFA ....|C-2 2A.F ....
 C-4|..|C-2 2A.F ....|--- .... ....|--- .... ....
 G-3|..|C-4 LF.F ....|--- .... ....|G-1 2A.F ....
 G-3|..|G-1 2A.F ....|--- .... ....|--- .... ....
....|..|C-4 LF.A ....|--- .... ....|--- .... ....
....|..|--- .... ....|--- .... ....|--- .... ....
 G-3|..|C-4 LF.F ....|C-4 3FF7 ....|G-1 2A.F ....
 G-3|..|G-1 2A.F ....|--- .... ....|--- .... ....
....|..|C-4 LF.A ....|--- .... ....|--- .... ....
....|..|--- .... ....|--- .... ....|--- .... ....
 C-4|..|C-4 LF.F ....|--- .... ....|C-2 2A.F ....
 C-4|..|C-2 2A.F ....|--- .... ....|--- .... ....
....|..|C-4 LF.F ....|--- .... ....|C-2 2F.A ....
....|..|--- .... ....|--- .... ....|--- .... ....
 C-4|..|C-4 LF.F ....|--- .... ....|C-2 2A.F ....
 C-4|..|C-2 2A.F ....|--- .... ....|--- .... ....
 C-4|..|C-4 LF.F ....|--- .... ....|C-2 2A.F ....
 C-4|..|C-2 2A.F ....|--- .... ....|--- .... ....
 G-3|..|C-4 LF.F ....|G-3 3FFF ....|G-1 2A.F ....
 G-3|..|G-1 2A.F ....|--- .... ....|--- .... ....
....|..|C-4 LF.A ....|--- .... ....|--- .... ....
....|..|--- .... ....|--- .... ....|--- .... ....
 G-3|..|C-4 LF.F ....|F-3 3FFF ....|G-1 2A.F ....
 G-3|..|G-1 2A.F ....|--- .... ....|--- .... ....
....|..|C-4 LF.7 ....|G-3 3FFA ....|G-3 4FEA ....
....|..|--- .... ....|--- .... ....|--- .... ....
 C-4|..|B-8 JF.F ....|G-3 3FFF ....|C-2 2A.F ....
 C-4|..|C-2 2A.F ....|--- .... ....|--- .... ....
....|..|C-4 LF.7 ....|F-3 3FFA ....|C-2 2F.A ....
....|..|--- .... ....|--- .... ....|--- .... ....
 C-4|..|C-4 LF.F ....|G-3 3FF7 ....|C-2 2A.F ....
 C-4|..|C-2 2A.F ....|--- .... ....|--- .... ....
 C-4|..|C-4 LF.F ....|G-3 3FFA ....|C-2 2A.F ....
 C-4|..|C-2 2A.F ....|--- .... ....|--- .... ....
 G-3|..|C-4 LF.F ....|F-3 3FF7 ....|G-1 2A.F ....
 G-3|..|G-1 2A.F ....|--- .... ....|--- .... ....
....|..|C-4 LF.A ....|--- .... ....|--- .... ....
....|..|--- .... ....|--- .... ....|--- .... ....
 G-3|..|C-4 LF.F ....|G-3 3FF7 ....|G-1 2A.F ....
 G-3|..|G-1 2A.F ....|--- .... ....|--- .... ....
....|..|C-4 LF.A ....|--- .... ....|C-2 2F.7 ....
....|..|--- .... ....|--- .... ....|--- .... ....
 C-4|..|C-4 LF.F ....|--- .... ....|C-2 2A.F ....
 C-4|..|C-2 2A.F ....|--- .... ....|--- .... ....
....|..|C-4 LF.F ....|--- .... ....|C-2 2F.A ....
....|..|--- .... ....|--- .... ....|--- .... ....
 C-4|..|C-4 LF.F ....|--- .... ....|C-2 2A.F ....
 C-4|..|C-2 2A.F ....|--- .... ....|--- .... ....
 C-4|..|C-4 LF.F ....|--- .... ....|C-2 2A.F ....
 C-4|..|C-2 2A.F ....|--- .... ....|--- .... ....
 G-3|..|C-4 LF.F ....|C-3 3FFF ....|G-1 2A.F ....
 G-3|..|G-1 2A.F ....|--- .... ....|--- .... ....
....|..|C-4 LF.A ....|--- .... ....|--- .... ....
....|..|--- .... ....|--- .... ....|--- .... ....
 F#3|..|C-4 LF.F ....|D-3 3FFF ....|F#1 2A.F ....
 F#3|..|F#1 2A.F ....|--- .... ....|--- .... ....
....|..|C-4 LF.7 ....|C-3 3FFA ....|C-3 4FEA ....
....|..|--- .... ....|--- .... ....|--- .... ....

[Pattern2]
 E-3|..|B-8 JF.F ....|E-3 3FFF ....|E-1 2A.F ....
 E-3|..|E-1 2A.F ....|--- .... ....|--- .... ....
....|..|C-4 LF.7 ....|D-3 3FFA ....|C-2 2F.A ....
....|..|--- .... ....|--- .... ....|--- .... ....
 E-3|..|C-4 LF.F ....|C-3 3FF7 ....|E-1 2A.F ....
 E-3|..|E-1 2A.F ....|--- .... ....|--- .... ....
 E-3|..|C-4 LF.F ....|E-3 3FFA ....|E-1 2A.F ....
 E-3|..|E-1 2A.F ....|--- .... ....|--- .... ....
 B-3|..|C-4 LF.F ....|D-3 3FF7 ....|B-1 2A.F ....
 B-3|..|B-1 2A.F ....|--- .... ....|--- .... ....
....|..|C-4 LF.A ....|--- .... ....|--- .... ....
....|..|--- .... ....|--- .... ....|--- .... ....
 B-3|..|C-4 LF.F ....|E-3 3FF7 ....|B-1 2A.F ....
 B-3|..|B-1 2A.F ....|--- .... ....|--- .... ....
....|..|C-4 LF.A ....|--- .... ....|C-2 2F.7 ....
....|..|--- .... ....|--- .... ....|--- .... ....
 G-3|..|C-4 LF.F ....|G-3 3FFF ....|G-1 2A.F ....
 G-3|..|G-1 2A.F ....|--- .... ....|--- .... ....
....|..|C-4 LF.F ....|--- .... ....|E-1 2F.A ....
....|..|--- .... ....|--- .... ....|--- .... ....
 G-3|..|C-4 LF.F ....|--- .... ....|G-1 2A.F ....
 G-3|..|G-1 2A.F ....|--- .... ....|--- .... ....
 G-3|..|C-4 LF.F ....|G-3 3FFA ....|G-1 2A.F ....
 G-3|..|G-1 2A.F ....|--- .... ....|--- .... ....
 D-4|..|C-4 LF.F ....|--- .... ....|D-2 2A.F ....
 D-4|..|D-2 2A.F ....|--- .... ....|--- .... ....
....|..|C-4 LF.A ....|--- .... ....|--- .... ....
....|..|--- .... ....|--- .... ....|--- .... ....
 D-4|..|C-4 LF.F ....|G-3 3FF7 ....|D-2 2A.F ....
 D-4|..|D-2 2A.F ....|--- .... ....|--- .... ....
....|..|C-4 LF.7 ....|--- .... ....|E-1 2F.7 ....
....|..|--- .... ....|--- .... ....|--- .... ....
 C-4|..|B-8 JF.F ....|E-3 3FFF ....|C-2 2A.F ....
 C-4|..|C-2 2A.F ....|--- .... ....|--- .... ....
....|..|C-4 LF.7 ....|--- .... ....|G-1 2F.A ....
....|..|--- .... ....|--- .... ....|--- .... ....
 C-4|..|C-4 LF.F ....|--- .... ....|C-2 2A.F ....
 C-4|..|C-2 2A.F ....|--- .... ....|--- .... ....
 C-4|..|C-4 LF.F ....|E-3 3FFA ....|C-2 2A.F ....
 C-4|..|C-2 2A.F ....|--- .... ....|--- .... ....
 G-3|..|C-4 LF.F ....|D-3 3FFF ....|G-1 2A.F ....
 G-3|..|G-1 2A.F ....|--- .... ....|--- .... ....
....|..|C-4 LF.A ....|--- .... ....|--- .... ....
....|..|--- .... ....|--- .... ....|--- .... ....
 G-3|..|C-4 LF.F ....|E-3 3FF7 ....|G-1 2A.F ....
 G-3|..|G-1 2A.F ....|--- .... ....|--- .... ....
....|..|C-4 LF.A ....|D-3 3FFA ....|D-3 4FEA ....
....|..|--- .... ....|--- .... ....|--- .... ....
 C-4|..|C-4 LF.F ....|--- .... ....|C-2 2A.F ....
 C-4|..|C-2 2A.F ....|--- .... ....|--- .... ....
....|..|C-4 LF.F ....|--- .... ....|C-2 2F.A ....
....|..|--- .... ....|--- .... ....|--- .... ....
 F-4|..|C-4 LF.F ....|D-3 3FF7 ....|F-2 2A.F ....
 F-4|..|F-2 2A.F ....|--- .... ....|--- .... ....
....|..|C-4 LF.F ....|--- .... ....|--- .... ....
....|..|--- .... ....|--- .... ....|--- .... ....
 E-4|..|C-4 LF.F ....|E-3 3FFF ....|E-2 2A.F ....
 E-4|..|E-2 2A.F ....|--- .... ....|--- .... ....
....|..|C-4 LF.A ....|G-3 3FFF ....|G-3 4FEF ....
....|..|--- .... ....|--- .... ....|--- .... ....
 D-4|..|C-4 LF.F ....|A-3 3FFF ....|D-2 2A.F ....
 D-4|..|D-2 2A.F ....|--- .... ....|--- .... ....
....|..|C-4 LF.7 ....|B-3 3FFF ....|B-3 4FEF ....
....|..|--- .... ....|--- .... ....|--- .... ....

[Pattern3]
 C-4|..|B-8 JF.F ....|C-4 3FFF ....|C-2 2A.F ....
 C-4|..|C-2 2A.F ....|--- .... ....|--- .... ....
....|..|C-4 LF.7 ....|A-3 3FFA ....|A-3 4FEA ....
....|..|--- .... ....|--- .... ....|--- .... ....
 C-4|..|C-4 LF.F ....|E-3 3FF7 ....|C-2 2A.F ....
 C-4|..|C-2 2A.F ....|--- .... ....|--- .... ....
 C-4|..|C-4 LF.F ....|G-3 3FF7 ....|C-2 2A.F ....
 C-4|..|C-2 2A.F ....|--- .... ....|--- .... ....
 G-3|..|C-4 LF.F ....|A-3 3FF7 ....|G-1 2A.F ....
 G-3|..|G-1 2A.F ....|--- .... ....|--- .... ....
....|..|C-4 LF.A ....|B-3 3FF7 ....|B-3 4FE7 ....
....|..|--- .... ....|--- .... ....|--- .... ....
 G-3|..|C-4 LF.F ....|C-4 3FF7 ....|G-1 2A.F ....
 G-3|..|G-1 2A.F ....|--- .... ....|--- .... ....
....|..|C-4 LF.A ....|--- .... ....|--- .... ....
....|..|--- .... ....|--- .... ....|--- .... ....
 C-4|..|C-4 LF.F ....|--- .... ....|C-2 2A.F ....
 C-4|..|C-2 2A.F ....|--- .... ....|--- .... ....
....|..|C-4 LF.F ....|--- .... ....|C-2 2F.A ....
....|..|--- .... ....|--- .... ....|--- .... ....
 C-4|..|C-4 LF.F ....|--- .... ....|C-2 2A.F ....
 C-4|..|C-2 2A.F ....|--- .... ....|--- .... ....
 C-4|..|C-4 LF.F ....|--- .... ....|C-2 2A.F ....
 C-4|..|C-2 2A.F ....|--- .... ....|--- .... ....
 G-3|..|C-4 LF.F ....|G-3 3FFF ....|G-1 2A.F ....
 G-3|..|G-1 2A.F ....|--- .... ....|--- .... ....
....|..|C-4 LF.A ....|--- .... ....|--- .... ....
....|..|--- .... ....|--- .... ....|--- .... ....
 G-3|..|C-4 LF.F ....|F-3 3FFF ....|G-1 2A.F ....
 G-3|..|G-1 2A.F ....|--- .... ....|--- .... ....
....|..|C-4 LF.7 ....|G-3 3FFA ....|G-3 4FEA ....
....|..|--- .... ....|--- .... ....|--- .... ....
 C-4|..|B-8 JF.F ....|G-3 3FFF ....|C-2 2A.F ....
 C-4|..|C-2 2A.F ....|--- .... ....|--- .... ....
....|..|C-4 LF.7 ....|F-3 3FFA ....|C-2 2F.A ....
....|..|--- .... ....|--- .... ....|--- .... ....
 C-4|..|C-4 LF.F ....|G-3 3FF7 ....|C-2 2A.F ....
 C-4|..|C-2 2A.F ....|--- .... ....|--- .... ....
 C-4|..|C-4 LF.F ....|G-3 3FFA ....|C-2 2A.F ....
 C-4|..|C-2 2A.F ....|--- .... ....|--- .... ....
 G-3|..|C-4 LF.F ....|F-3 3FF7 ....|G-1 2A.F ....
 G-3|..|G-1 2A.F ....|--- .... ....|--- .... ....
....|..|C-4 LF.A ....|--- .... ....|--- .... ....
....|..|--- .... ....|--- .... ....|--- .... ....
 G-3|..|C-4 LF.F ....|G-3 3FF7 ....|G-1 2A.F ....
 G-3|..|G-1 2A.F ....|--- .... ....|--- .... ....
....|..|C-4 LF.A ....|--- .... ....|C-2 2F.7 ....
....|..|--- .... ....|--- .... ....|--- .... ....
 C-4|..|C-4 LF.F ....|--- .... ....|C-2 2A.F ....
 C-4|..|C-2 2A.F ....|--- .... ....|--- .... ....
....|..|C-4 LF.F ....|--- .... ....|C-2 2F.A ....
....|..|--- .... ....|--- .... ....|--- .... ....
 C-4|..|C-4 LF.F ....|--- .... ....|C-2 2A.F ....
 C-4|..|C-2 2A.F ....|--- .... ....|--- .... ....
 C-4|..|C-4 LF.F ....|--- .... ....|C-2 2A.F ....
 C-4|..|C-2 2A.F ....|--- .... ....|--- .... ....
 G-3|..|C-4 LF.F ....|C-3 3FFF ....|G-1 2A.F ....
 G-3|..|G-1 2A.F ....|--- .... ....|--- .... ....
....|..|C-4 LF.A ....|--- .... ....|--- .... ....
....|..|--- .... ....|--- .... ....|--- .... ....
 G-3|..|C-4 LF.F ....|D-3 3FFF ....|G-1 2A.F ....
 G-3|..|G-1 2A.F ....|--- .... ....|--- .... ....
....|..|C-4 LF.7 ....|C-3 3FFA ....|C-3 4FEA ....
....|..|--- .... ....|--- .... ....|--- .... ....

[Pattern4]
 E-3|..|B-8 JF.F ....|E-3 3FFF ....|E-1 2A.F ....
 E-3|..|E-1 2A.F ....|--- .... ....|--- .... ....
....|..|C-4 LF.7 ....|D-3 3FFA ....|C-2 2F.A ....
....|..|--- .... ....|--- .... ....|--- .... ....
 E-3|..|C-4 LF.F ....|C-3 3FF7 ....|E-1 2A.F ....
 E-3|..|E-1 2A.F ....|--- .... ....|--- .... ....
 E-3|..|C-4 LF.F ....|E-3 3FFA ....|E-1 2A.F ....
 E-3|..|E-1 2A.F ....|--- .... ....|--- .... ....
 B-3|..|C-4 LF.F ....|D-3 3FF7 ....|B-1 2A.F ....
 B-3|..|B-1 2A.F ....|--- .... ....|--- .... ....
....|..|C-4 LF.A ....|--- .... ....|--- .... ....
....|..|--- .... ....|--- .... ....|--- .... ....
 B-3|..|C-4 LF.F ....|E-3 3FF7 ....|B-1 2A.F ....
 B-3|..|B-1 2A.F ....|--- .... ....|--- .... ....
....|..|C-4 LF.A ....|--- .... ....|C-2 2F.7 ....
....|..|--- .... ....|--- .... ....|--- .... ....
 G-3|..|C-4 LF.F ....|D-3 3FFF ....|G-1 2A.F ....
 G-3|..|G-1 2A.F ....|--- .... ....|--- .... ....
....|..|C-4 LF.F ....|--- .... ....|E-1 2F.A ....
....|..|--- .... ....|--- .... ....|--- .... ....
 G-3|..|C-4 LF.F ....|--- .... ....|G-1 2A.F ....
 G-3|..|G-1 2A.F ....|--- .... ....|--- .... ....
 G-3|..|C-4 LF.F ....|D-3 3FFA ....|G-1 2A.F ....
 G-3|..|G-1 2A.F ....|--- .... ....|--- .... ....
 D-4|..|C-4 LF.F ....|--- .... ....|D-2 2A.F ....
 D-4|..|D-2 2A.F ....|--- .... ....|--- .... ....
....|..|C-4 LF.A ....|--- .... ....|--- .... ....
....|..|--- .... ....|--- .... ....|--- .... ....
 D-4|..|C-4 LF.F ....|D-3 3FF7 ....|D-2 2A.F ....
 D-4|..|D-2 2A.F ....|--- .... ....|--- .... ....
....|..|C-4 LF.7 ....|--- .... ....|E-1 2F.7 ....
....|..|--- .... ....|--- .... ....|--- .... ....
 C-4|..|B-8 JF.F ....|D-3 3FFF ....|C-2 2A.F ....
 C-4|..|C-2 2A.F ....|--- .... ....|--- .... ....
....|..|C-4 LF.7 ....|--- .... ....|G-1 2F.A ....
....|..|--- .... ....|--- .... ....|--- .... ....
 C-4|..|C-4 LF.F ....|--- .... ....|C-2 2A.F ....
 C-4|..|C-2 2A.F ....|--- .... ....|--- .... ....
 C-4|..|C-4 LF.F ....|D-3 3FFA ....|C-2 2A.F ....
 C-4|..|C-2 2A.F ....|--- .... ....|--- .... ....
 G-3|..|C-4 LF.F ....|C-3 3FFF ....|G-1 2A.F ....
 G-3|..|G-1 2A.F ....|--- .... ....|--- .... ....
....|..|C-4 LF.A ....|--- .... ....|--- .... ....
....|..|--- .... ....|--- .... ....|--- .... ....
 G-3|..|C-4 LF.F ....|D-3 3FF7 ....|G-1 2A.F ....
 G-3|..|G-1 2A.F ....|--- .... ....|--- .... ....
....|..|C-4 LF.A ....|C-3 3FFA ....|C-3 4FEA ....
....|..|--- .... ....|--- .... ....|--- .... ....
 C-4|..|C-4 LF.F ....|--- .... ....|C-2 2A.F ....
 C-4|..|C-2 2A.F ....|--- .... ....|--- .... ....
....|..|C-4 LF.7 ....|--- .... ....|C-2 2F.A ....
....|..|--- .... ....|--- .... ....|--- .... ....
....|..|C-4 LF.F ....|C-3 3FF7 ....|D-2 2F.7 ....
....|..|R-- .... ....|--- .... ....|--- .... ....
....|..|C-4 LF.A ....|--- .... ....|--- .... ....
....|..|--- .... ....|--- .... ....|--- .... ....
....|..|C-4 LF.F ....|E-3 3FFF ....|E-3 4FEF ....
....|..|--- .... ....|--- .... ....|--- .... ....
....|..|C-4 LF.A ....|G-3 3FFF ....|G-3 4FEF ....
....|..|--- .... ....|--- .... ....|--- .... ....
....|..|C-4 LF.7 ....|A-3 3FFF ....|A-3 4FEF ....
....|..|--- .... ....|--- .... ....|--- .... ....
....|..|C-4 LF.A ....|C-4 3FFF ....|C-4 4FEF ....
....|..|--- .... ....|--- .... ....|--- .... ....

[Pattern5]
 G-3|..|B-8 JF.F ....|B-3 3FFF ....|G-1 2A.F ....
 G-3|..|G-1 2A.F ....|--- .... ....|--- .... ....
....|..|R-- .... ....|A-3 3FFA ....|A-3 4FEA ....
....|..|--- .... ....|--- .... ....|--- .... ....
 G-3|..|C-4 LF.F ....|B-3 3FFF ....|G-1 2A.F ....
 G-3|..|G-1 2A.F ....|--- .... ....|--- .... ....
 G-3|..|C-4 LF.F ....|G-3 3FFF ....|G-1 2A.F ....
 G-3|..|G-1 2A.F ....|--- .... ....|--- .... ....
 D-4|..|C-4 LF.F ....|A-3 3FFF ....|D-2 2A.F ....
 D-4|..|D-2 2A.F ....|--- .... ....|--- .... ....
....|..|C-4 LF.A ....|C-4 3FF7 ....|C-4 4FE7 ....
....|..|--- .... ....|--- .... ....|--- .... ....
 D-4|..|C-4 LF.F ....|A-3 3FFF ....|D-2 2A.F ....
 D-4|..|D-2 2A.F ....|--- .... ....|--- .... ....
....|..|C-4 LF.A ....|E-3 3FFF ....|E-3 4FEF ....
....|..|--- .... ....|--- .... ....|--- .... ....
 G-3|..|C-4 LF.F ....|G-3 3FFF ....|G-1 2A.F ....
 G-3|..|G-1 2A.F ....|--- .... ....|--- .... ....
....|..|C-4 LF.F ....|G-3 3FF7 ....|G-1 2F.A ....
....|..|--- .... ....|--- .... ....|--- .... ....
 G-3|..|C-4 LF.F ....|A-3 3FF7 ....|G-1 2A.F ....
 G-3|..|G-1 2A.F ....|--- .... ....|--- .... ....
 G-3|..|C-4 LF.F ....|G-3 3FFA ....|G-1 2A.F ....
 G-3|..|G-1 2A.F ....|--- .... ....|--- .... ....
 D-4|..|C-4 LF.F ....|C-3 3FFF ....|D-2 2A.F ....
 D-4|..|D-2 2A.F ....|--- .... ....|--- .... ....
....|..|C-4 LF.A ....|D-3 3FFF ....|D-3 4FEF ....
....|..|--- .... ....|--- .... ....|--- .... ....
 D-4|..|C-4 LF.F ....|E-3 3FFF ....|D-2 2A.F ....
 D-4|..|D-2 2A.F ....|--- .... ....|--- .... ....
....|..|C-4 LF.7 ....|F-3 3FFF ....|F-3 4FEF ....
....|..|--- .... ....|--- .... ....|--- .... ....
 C-4|..|B-8 JF.F ....|E-3 3FFF ....|C-2 2A.F ....
 C-4|..|C-2 2A.F ....|--- .... ....|--- .... ....
....|..|C-4 LF.7 ....|E-3 3FFA ....|G-1 2F.A ....
....|..|--- .... ....|--- .... ....|--- .... ....
 C-4|..|C-4 LF.F ....|C-3 3FF7 ....|C-2 2A.F ....
 C-4|..|C-2 2A.F ....|--- .... ....|--- .... ....
 C-4|..|C-4 LF.F ....|D-3 3FF7 ....|C-2 2A.F ....
 C-4|..|C-2 2A.F ....|--- .... ....|--- .... ....
 G-4|..|C-4 LF.F ....|E-3 3FF7 ....|G-2 2A.F ....
 G-4|..|G-2 2A.F ....|--- .... ....|--- .... ....
....|..|C-4 LF.A ....|F-3 3FF7 ....|F-3 4FE7 ....
....|..|--- .... ....|--- .... ....|--- .... ....
 G-4|..|C-4 LF.F ....|E-3 3FF7 ....|G-2 2A.F ....
 G-4|..|G-2 2A.F ....|--- .... ....|--- .... ....
....|..|C-4 LF.A ....|--- .... ....|G-1 2F.7 ....
....|..|--- .... ....|--- .... ....|--- .... ....
 C-4|..|C-4 LF.F ....|--- .... ....|C-2 2A.F ....
 C-4|..|C-2 2A.F ....|--- .... ....|--- .... ....
....|..|C-4 LF.F ....|--- .... ....|C-2 2F.A ....
....|..|--- .... ....|--- .... ....|--- .... ....
 C-4|..|C-4 LF.F ....|--- .... ....|C-2 2A.F ....
 C-4|..|C-2 2A.F ....|--- .... ....|--- .... ....
 C-4|..|C-4 LF.F ....|--- .... ....|C-2 2A.F ....
 C-4|..|C-2 2A.F ....|--- .... ....|--- .... ....
 G-4|..|C-4 LF.F ....|E-3 3FFF ....|G-2 2A.F ....
 G-4|..|G-2 2A.F ....|--- .... ....|--- .... ....
....|..|C-4 LF.A ....|G-3 3FFF ....|G-3 4FEF ....
....|..|--- .... ....|--- .... ....|--- .... ....
 G-4|..|C-4 LF.F ....|A-3 3FFF ....|G-2 2A.F ....
 G-4|..|G-2 2A.F ....|--- .... ....|--- .... ....
....|..|C-4 LF.7 ....|C-4 3FFF ....|C-4 4FEF ....
....|..|--- .... ....|--- .... ....|--- .... ....

[Pattern6]
 G-3|..|B-8 JF.F ....|B-3 3FFF ....|G-1 2A.F ....
 G-3|..|G-1 2A.F ....|--- .... ....|--- .... ....
....|..|C-4 LF.7 ....|A-3 3FFA ....|C-2 2F.A ....
....|..|--- .... ....|--- .... ....|--- .... ....
 G-3|..|C-4 LF.F ....|B-3 3FFF ....|G-1 2A.F ....
 G-3|..|G-1 2A.F ....|--- .... ....|--- .... ....
 G-3|..|C-4 LF.F ....|G-3 3FFF ....|G-1 2A.F ....
 G-3|..|G-1 2A.F ....|--- .... ....|--- .... ....
 D-4|..|C-4 LF.F ....|A-3 3FFF ....|D-2 2A.F ....
 D-4|..|D-2 2A.F ....|--- .... ....|--- .... ....
....|..|C-4 LF.A ....|C-4 3FF7 ....|C-4 4FE7 ....
....|..|--- .... ....|--- .... ....|--- .... ....
 D-4|..|C-4 LF.F ....|A-3 3FFF ....|D-2 2A.F ....
 D-4|..|D-2 2A.F ....|--- .... ....|--- .... ....
....|..|C-4 LF.A ....|E-3 3FFF ....|E-3 4FEF ....
....|..|--- .... ....|--- .... ....|--- .... ....
 G-3|..|C-4 LF.F ....|G-3 3FFF ....|G-1 2A.F ....
 G-3|..|G-1 2A.F ....|--- .... ....|--- .... ....
....|..|C-4 LF.F ....|G-3 3FF7 ....|G-1 2F.A ....
....|..|--- .... ....|--- .... ....|--- .... ....
 G-3|..|C-4 LF.F ....|A-3 3FF7 ....|G-1 2A.F ....
 G-3|..|G-1 2A.F ....|--- .... ....|--- .... ....
 G-3|..|C-4 LF.F ....|G-3 3FFA ....|G-1 2A.F ....
 G-3|..|G-1 2A.F ....|--- .... ....|--- .... ....
 D-4|..|C-4 LF.F ....|E-3 3FFF ....|D-2 2A.F ....
 D-4|..|D-2 2A.F ....|--- .... ....|--- .... ....
....|..|C-4 LF.A ....|G-3 3FFF ....|G-3 4FEF ....
....|..|--- .... ....|--- .... ....|--- .... ....
 C#4|..|C-4 LF.F ....|A-3 3FFF ....|C#2 2A.F ....
 C#4|..|C#2 2A.F ....|--- .... ....|--- .... ....
....|..|C-4 LF.7 ....|B-3 3FFF ....|B-3 4FEF ....
....|..|--- .... ....|--- .... ....|--- .... ....
 C-4|..|B-8 JF.F ....|C-4 3FFF ....|C-2 2A.F ....
 C-4|..|C-2 2A.F ....|--- .... ....|--- .... ....
....|..|C-4 LF.7 ....|A-3 3FFA ....|G-1 2F.A ....
....|..|--- .... ....|--- .... ....|--- .... ....
 C-4|..|C-4 LF.F ....|E-3 3FF7 ....|C-2 2A.F ....
 C-4|..|C-2 2A.F ....|--- .... ....|--- .... ....
 C-4|..|C-4 LF.F ....|G-3 3FF7 ....|C-2 2A.F ....
 C-4|..|C-2 2A.F ....|--- .... ....|--- .... ....
 G-3|..|C-4 LF.F ....|A-3 3FF7 ....|G-1 2A.F ....
 G-3|..|G-1 2A.F ....|--- .... ....|--- .... ....
....|..|C-4 LF.A ....|B-3 3FF7 ....|B-3 4FE7 ....
....|..|--- .... ....|--- .... ....|--- .... ....
 G-3|..|C-4 LF.F ....|C-4 3FF7 ....|G-1 2A.F ....
 G-3|..|G-1 2A.F ....|--- .... ....|--- .... ....
....|..|C-4 LF.A ....|--- .... ....|G-1 2F.7 ....
....|..|--- .... ....|--- .... ....|--- .... ....
 C-4|..|C-4 LF.F ....|--- .... ....|C-2 2A.F ....
 C-4|..|C-2 2A.F ....|--- .... ....|--- .... ....
....|..|C-4 LF.F ....|--- .... ....|C-2 2F.A ....
....|..|--- .... ....|--- .... ....|--- .... ....
 C-4|..|C-4 LF.F ....|--- .... ....|C-2 2A.F ....
 C-4|..|C-2 2A.F ....|--- .... ....|--- .... ....
 C-4|..|C-4 LF.F ....|--- .... ....|C-2 2A.F ....
 C-4|..|C-2 2A.F ....|--- .... ....|--- .... ....
 G-3|..|C-4 LF.F ....|G-3 3FFF ....|G-1 2A.F ....
 G-3|..|G-1 2A.F ....|--- .... ....|--- .... ....
....|..|C-4 LF.A ....|--- .... ....|--- .... ....
....|..|--- .... ....|--- .... ....|--- .... ....
 G-3|..|C-4 LF.F ....|F-3 3FFF ....|G-1 2A.F ....
 G-3|..|G-1 2A.F ....|--- .... ....|--- .... ....
....|..|C-4 LF.7 ....|G-3 3FFA ....|G-3 4FEA ....
....|..|--- .... ....|--- .... ....|--- .... ....

[Pattern7]
 C-4|..|B-8 JF.F ....|G-3 3FFF ....|C-2 2A.F ....
 C-4|..|C-2 2A.F ....|--- .... ....|--- .... ....
....|..|C-4 LF.7 ....|F-3 3FFA ....|C-2 2F.A ....
....|..|--- .... ....|--- .... ....|--- .... ....
 C-4|..|C-4 LF.F ....|G-3 3FF7 ....|C-2 2A.F ....
 C-4|..|C-2 2A.F ....|--- .... ....|--- .... ....
 C-4|..|C-4 LF.F ....|G-3 3FFA ....|C-2 2A.F ....
 C-4|..|C-2 2A.F ....|--- .... ....|--- .... ....
 G-3|..|C-4 LF.F ....|F-3 3FF7 ....|G-1 2A.F ....
 G-3|..|G-1 2A.F ....|--- .... ....|--- .... ....
....|..|C-4 LF.A ....|--- .... ....|--- .... ....
....|..|--- .... ....|--- .... ....|--- .... ....
 G-3|..|C-4 LF.F ....|G-3 3FF7 ....|G-1 2A.F ....
 G-3|..|G-1 2A.F ....|--- .... ....|--- .... ....
....|..|C-4 LF.A ....|--- .... ....|C-2 2F.7 ....
....|..|--- .... ....|--- .... ....|--- .... ....
 C-4|..|C-4 LF.F ....|--- .... ....|C-2 2A.F ....
 C-4|..|C-2 2A.F ....|--- .... ....|--- .... ....
....|..|C-4 LF.F ....|--- .... ....|C-2 2F.A ....
....|..|--- .... ....|--- .... ....|--- .... ....
 C-4|..|C-4 LF.F ....|--- .... ....|C-2 2A.F ....
 C-4|..|C-2 2A.F ....|--- .... ....|--- .... ....
 C-4|..|C-4 LF.F ....|--- .... ....|C-2 2A.F ....
 C-4|..|C-2 2A.F ....|--- .... ....|--- .... ....
 G-3|..|C-4 LF.F ....|C-3 3FFF ....|G-1 2A.F ....
 G-3|..|G-1 2A.F ....|--- .... ....|--- .... ....
....|..|C-4 LF.A ....|--- .... ....|--- .... ....
....|..|--- .... ....|--- .... ....|--- .... ....
 F#3|..|C-4 LF.F ....|D-3 3FFF ....|F#1 2A.F ....
 F#3|..|F#1 2A.F ....|--- .... ....|--- .... ....
....|..|C-4 LF.7 ....|C-3 3FFA ....|C-3 4FEA ....
....|..|--- .... ....|--- .... ....|--- .... ....
 E-3|..|B-8 JF.F ....|E-3 3FFF ....|E-1 2A.F ....
 E-3|..|E-1 2A.F ....|--- .... ....|--- .... ....
....|..|C-4 LF.7 ....|D-3 3FFA ....|C-2 2F.A ....
....|..|--- .... ....|--- .... ....|--- .... ....
 E-3|..|C-4 LF.F ....|C-3 3FF7 ....|E-1 2A.F ....
 E-3|..|E-1 2A.F ....|--- .... ....|--- .... ....
 E-3|..|C-4 LF.F ....|E-3 3FFA ....|E-1 2A.F ....
 E-3|..|E-1 2A.F ....|--- .... ....|--- .... ....
 B-3|..|C-4 LF.F ....|D-3 3FF7 ....|B-1 2A.F ....
 B-3|..|B-1 2A.F ....|--- .... ....|--- .... ....
....|..|C-4 LF.A ....|--- .... ....|--- .... ....
....|..|--- .... ....|--- .... ....|--- .... ....
 B-3|..|C-4 LF.F ....|E-3 3FF7 ....|B-1 2A.F ....
 B-3|..|B-1 2A.F ....|--- .... ....|--- .... ....
....|..|C-4 LF.A ....|--- .... ....|C-2 2F.7 ....
....|..|--- .... ....|--- .... ....|--- .... ....
 G-3|..|C-4 LF.F ....|D-3 3FFF ....|G-1 2A.F ....
 G-3|..|G-1 2A.F ....|--- .... ....|--- .... ....
....|..|C-4 LF.F ....|--- .... ....|E-1 2F.A ....
....|..|--- .... ....|--- .... ....|--- .... ....
 G-3|..|C-4 LF.F ....|--- .... ....|G-1 2A.F ....
 G-3|..|G-1 2A.F ....|--- .... ....|--- .... ....
 G-3|..|C-4 LF.F ....|D-3 3FFA ....|G-1 2A.F ....
 G-3|..|G-1 2A.F ....|--- .... ....|--- .... ....
 D-4|..|C-4 LF.F ....|--- .... ....|D-2 2A.F ....
 D-4|..|D-2 2A.F ....|--- .... ....|--- .... ....
....|..|C-4 LF.A ....|--- .... ....|--- .... ....
....|..|--- .... ....|--- .... ....|--- .... ....
 D-4|..|C-4 LF.F ....|D-3 3FF7 ....|D-2 2A.F ....
 D-4|..|D-2 2A.F ....|--- .... ....|--- .... ....
....|..|C-4 LF.7 ....|--- .... ....|E-1 2F.7 ....
....|..|--- .... ....|--- .... ....|--- .... ....

[Pattern8]
 C-4|..|B-8 JF.F ....|D-3 3FFF ....|C-2 2A.F ....
 C-4|..|C-2 2A.F ....|--- .... ....|--- .... ....
....|..|C-4 LF.7 ....|--- .... ....|G-1 2F.A ....
....|..|--- .... ....|--- .... ....|--- .... ....
 C-4|..|C-4 LF.F ....|--- .... ....|C-2 2A.F ....
 C-4|..|C-2 2A.F ....|--- .... ....|--- .... ....
 C-4|..|C-4 LF.F ....|D-3 3FFA ....|C-2 2A.F ....
 C-4|..|C-2 2A.F ....|--- .... ....|--- .... ....
 G-3|..|C-4 LF.F ....|C-3 3FFF ....|G-1 2A.F ....
 G-3|..|G-1 2A.F ....|--- .... ....|--- .... ....
....|..|C-4 LF.A ....|--- .... ....|--- .... ....
....|..|--- .... ....|--- .... ....|--- .... ....
 G-3|..|C-4 LF.F ....|D-3 3FF7 ....|G-1 2A.F ....
 G-3|..|G-1 2A.F ....|--- .... ....|--- .... ....
....|..|C-4 LF.A ....|C-3 3FFA ....|C-3 4FEA ....
....|..|--- .... ....|--- .... ....|--- .... ....
 C-4|..|C-4 LF.F ....|--- .... ....|C-2 2A.F ....
 C-4|..|C-2 2A.F ....|--- .... ....|--- .... ....
....|..|C-4 LF.F ....|--- .... ....|C-2 2F.A ....
....|..|--- .... ....|--- .... ....|--- .... ....
 F-4|..|C-4 LF.F ....|C-3 3FF7 ....|F-2 2A.F ....
 F-4|..|F-2 2A.F ....|--- .... ....|--- .... ....
....|..|C-4 LF.F ....|--- .... ....|--- .... ....
....|..|--- .... ....|--- .... ....|--- .... ....
 E-4|..|C-4 LF.F ....|E-3 3FFF ....|E-2 2A.F ....
 E-4|..|E-2 2A.F ....|--- .... ....|--- .... ....
....|..|C-4 LF.A ....|G-3 3FFF ....|G-3 4FEF ....
....|..|--- .... ....|--- .... ....|--- .... ....
 D-4|..|C-4 LF.F ....|A-3 3FFF ....|D-2 2A.F ....
 D-4|..|D-2 2A.F ....|--- .... ....|--- .... ....
....|..|C-4 LF.7 ....|C-4 3FFF ....|C-4 4FEF ....
....|..|--- .... ....|--- .... ....|--- .... ....
 G-3|..|B-8 JF.F ....|B-3 3FFF ....|G-1 2A.F ....
 G-3|..|G-1 2A.F ....|--- .... ....|--- .... ....
....|..|C-4 LF.7 ....|A-3 3FFA ....|A-3 4FEA ....
....|..|--- .... ....|D-4 3FFF ....|D-4 4FEF ....
 G-3|..|C-4 LF.F ....|E-3 3FF7 ....|G-1 2A.F ....
 G-3|..|G-1 2A.F ....|B-3 3FFF ....|B-3 4FEF ....
 G-3|..|C-4 LF.F ....|G-3 3FF7 ....|G-1 2A.F ....
 G-3|..|G-1 2A.F ....|--- .... ....|--- .... ....
 D-4|..|C-4 LF.F ....|A-3 3FFF ....|D-2 2A.F ....
 D-4|..|D-2 2A.F ....|D-4 3FFA ....|D-4 4FEA ....
....|..|C-4 LF.A ....|C-4 3FF7 ....|C-4 4FE7 ....
....|..|--- .... ....|C-4 3FFF ....|C-4 4FEF ....
 D-4|..|C-4 LF.F ....|B-3 3FF7 ....|D-2 2A.F ....
 D-4|..|D-2 2A.F ....|A-3 3FFF ....|A-3 4FEF ....
....|..|C-4 LF.A ....|A-3 3FFA ....|A-3 4FEA ....
....|..|--- .... ....|D-4 3FF7 ....|D-4 4FE7 ....
 G-3|..|C-4 LF.F ....|G-3 3FFF ....|G-1 2A.F ....
 G-3|..|G-1 2A.F ....|B-3 3FF7 ....|B-3 4FE7 ....
....|..|C-4 LF.F ....|--- .... ....|G-1 2F.A ....
....|..|--- .... ....|B-3 3FFF ....|B-3 4FEF ....
 G-3|..|C-4 LF.F ....|A-3 3FF7 ....|G-1 2A.F ....
 G-3|..|G-1 2A.F ....|G-3 3FFF ....|G-3 4FEF ....
 G-3|..|C-4 LF.F ....|G-3 3FFA ....|G-1 2A.F ....
 G-3|..|G-1 2A.F ....|C-4 3FF7 ....|C-4 4FE7 ....
 D-4|..|C-4 LF.F ....|F-3 3FFF ....|D-2 2A.F ....
 D-4|..|D-2 2A.F ....|A-3 3FF7 ....|A-3 4FE7 ....
....|..|C-4 LF.A ....|--- .... ....|--- .... ....
....|..|--- .... ....|A-3 3FFF ....|A-3 4FEF ....
 D-4|..|C-4 LF.F ....|G-3 3FF7 ....|D-2 2A.F ....
 D-4|..|D-2 2A.F ....|F-3 3FFF ....|F-3 4FEF ....
....|..|C-4 LF.7 ....|F-3 3FFA ....|F-3 4FEA ....
....|..|--- .... ....|B-3 3FF7 ....|B-3 4FE7 ....

[Pattern9]
 C-4|..|B-8 JF.F ....|E-3 3FFF ....|C-2 2A.F ....
 C-4|..|C-2 2A.F ....|G-3 3FF7 ....|G-3 4FE7 ....
....|..|C-4 LF.7 ....|--- .... ....|G-1 2F.A ....
....|..|--- .... ....|F-3 3FFA ....|F-3 4FEA ....
 C-4|..|C-4 LF.F ....|F-3 3FF7 ....|C-2 2A.F ....
 C-4|..|C-2 2A.F ....|--- .... ....|--- .... ....
 C-4|..|C-4 LF.F ....|E-3 3FFA ....|C-2 2A.F ....
 C-4|..|C-2 2A.F ....|A-3 3FF7 ....|A-3 4FE7 ....
 G-4|..|C-4 LF.F ....|--- .... ....|G-2 2A.F ....
 G-4|..|G-2 2A.F ....|F-3 3FF7 ....|F-3 4FE7 ....
....|..|C-4 LF.A ....|--- .... ....|--- .... ....
....|..|--- .... ....|--- .... ....|--- .... ....
 G-4|..|C-4 LF.F ....|E-3 3FF7 ....|G-2 2A.F ....
 G-4|..|G-2 2A.F ....|--- .... ....|--- .... ....
....|..|C-4 LF.A ....|--- .... ....|G-1 2F.7 ....
....|..|--- .... ....|--- .... ....|--- .... ....
 C-4|..|C-4 LF.F ....|--- .... ....|C-2 2A.F ....
 C-4|..|C-2 2A.F ....|--- .... ....|--- .... ....
....|..|C-4 LF.F ....|--- .... ....|C-2 2F.A ....
....|..|--- .... ....|--- .... ....|--- .... ....
 C-4|..|C-4 LF.F ....|--- .... ....|C-2 2A.F ....
 C-4|..|C-2 2A.F ....|--- .... ....|--- .... ....
 C-4|..|C-4 LF.F ....|--- .... ....|C-2 2A.F ....
 C-4|..|C-2 2A.F ....|--- .... ....|--- .... ....
 G-4|..|C-4 LF.F ....|E-3 3FFF ....|G-2 2A.F ....
 G-4|..|G-2 2A.F ....|--- .... ....|--- .... ....
....|..|C-4 LF.A ....|G-3 3FFF ....|G-3 4FEF ....
....|..|--- .... ....|--- .... ....|--- .... ....
 G-4|..|C-4 LF.F ....|A-3 3FFF ....|G-2 2A.F ....
 G-4|..|G-2 2A.F ....|--- .... ....|--- .... ....
....|..|C-4 LF.7 ....|C-4 3FFF ....|C-4 4FEF ....
....|..|--- .... ....|--- .... ....|--- .... ....
 G-3|..|B-8 JF.F ....|B-3 3FFF ....|G-1 2A.F ....
 G-3|..|G-1 2A.F ....|--- .... ....|--- .... ....
....|..|C-4 LF.7 ....|A-3 3FFA ....|C-2 2F.A ....
....|..|--- .... ....|--- .... ....|--- .... ....
 G-3|..|C-4 LF.F ....|B-3 3FFF ....|G-1 2A.F ....
 G-3|..|G-1 2A.F ....|--- .... ....|--- .... ....
 G-3|..|C-4 LF.F ....|G-3 3FFF ....|G-1 2A.F ....
 G-3|..|G-1 2A.F ....|--- .... ....|--- .... ....
 D-4|..|C-4 LF.F ....|A-3 3FFF ....|D-2 2A.F ....
 D-4|..|D-2 2A.F ....|--- .... ....|--- .... ....
....|..|C-4 LF.A ....|C-4 3FF7 ....|C-4 4FE7 ....
....|..|--- .... ....|--- .... ....|--- .... ....
 D-4|..|C-4 LF.F ....|A-3 3FFF ....|D-2 2A.F ....
 D-4|..|D-2 2A.F ....|--- .... ....|--- .... ....
....|..|C-4 LF.A ....|E-3 3FFF ....|E-3 4FEF ....
....|..|--- .... ....|--- .... ....|--- .... ....
 G-3|..|C-4 LF.F ....|G-3 3FFF ....|G-1 2A.F ....
 G-3|..|G-1 2A.F ....|--- .... ....|--- .... ....
....|..|C-4 LF.F ....|G-3 3FF7 ....|G-1 2F.A ....
....|..|--- .... ....|--- .... ....|--- .... ....
 G-3|..|C-4 LF.F ....|A-3 3FF7 ....|G-1 2A.F ....
 G-3|..|G-1 2A.F ....|--- .... ....|--- .... ....
 G-3|..|C-4 LF.F ....|G-3 3FFA ....|G-1 2A.F ....
 G-3|..|G-1 2A.F ....|--- .... ....|--- .... ....
 D-4|..|C-4 LF.F ....|E-3 3FFF ....|D-2 2A.F ....
 D-4|..|D-2 2A.F ....|--- .... ....|--- .... ....
....|..|C-4 LF.A ....|G-3 3FFF ....|G-3 4FEF ....
....|..|--- .... ....|--- .... ....|--- .... ....
 C#4|..|C-4 LF.F ....|A-3 3FFF ....|C#2 2A.F ....
 C#4|..|C#2 2A.F ....|--- .... ....|--- .... ....
....|..|C-4 LF.7 ....|B-3 3FFF ....|B-3 4FEF ....
....|..|--- .... ....|--- .... ....|--- .... ....

[Pattern10]
 C-4|..|C-4 LF.F ....|C-4 3FFF ....|C-2 2A.F ....
 C-4|..|C-2 2A.F ....|--- .... ....|--- .... ....
....|..|C-4 LF.7 ....|A-3 3FFA ....|G-1 2F.A ....
....|..|--- .... ....|--- .... ....|--- .... ....
....|..|C-4 LF.F ....|E-3 3FF7 ....|D-2 2F.7 ....
....|..|R-- .... ....|--- .... ....|--- .... ....
....|..|C-4 LF.A ....|G-3 3FF7 ....|G-3 4FE7 ....
....|..|--- .... ....|--- .... ....|--- .... ....
 D#4|..|C-4 LF.F ....|F-3 3FFF ....|D#2 2A.F ....
 D#4|..|D#2 2A.F ....|--- .... ....|--- .... ....
....|..|C-4 LF.A ....|G#3 3FFF ....|G#3 4FEF ....
....|..|--- .... ....|--- .... ....|--- .... ....
 D-4|..|C-4 LF.F ....|A#3 3FFF ....|D-2 2A.F ....
 D-4|..|D-2 2A.F ....|--- .... ....|--- .... ....
....|..|C-4 LF.A ....|C-4 3FFF ....|C-4 4FEF ....
....|..|--- .... ....|--- .... ....|--- .... ....
 C#4|..|B-8 JF.F ....|C#4 3FFF ....|C#2 2A.F ....
 C#4|..|C#2 2A.F ....|--- .... ....|--- .... ....
....|..|C-4 LF.A ....|A#3 3FFA ....|A#3 4FEA ....
....|..|--- .... ....|--- .... ....|--- .... ....
 C#4|..|C-4 LF.F ....|F-3 3FF7 ....|C#2 2A.F ....
 C#4|..|C#2 2A.F ....|--- .... ....|--- .... ....
 C#4|..|C-4 LF.F ....|G#3 3FF7 ....|C#2 2A.F ....
 C#4|..|C#2 2A.F ....|--- .... ....|--- .... ....
 G#3|..|C-4 LF.F ....|A#3 3FF7 ....|G#1 2A.F ....
 G#3|..|G#1 2A.F ....|--- .... ....|--- .... ....
....|..|C-4 LF.A ....|C-4 3FF7 ....|C-4 4FE7 ....
....|..|--- .... ....|--- .... ....|--- .... ....
 G#3|..|C-4 LF.F ....|C#4 3FF7 ....|G#1 2A.F ....
 G#3|..|G#1 2A.F ....|--- .... ....|--- .... ....
....|..|C-4 LF.A ....|--- .... ....|--- .... ....
....|..|--- .... ....|--- .... ....|--- .... ....
 C#4|..|C-4 LF.F ....|--- .... ....|C#2 2A.F ....
 C#4|..|C#2 2A.F ....|--- .... ....|--- .... ....
....|..|C-4 LF.F ....|--- .... ....|C#2 2F.A ....
....|..|--- .... ....|--- .... ....|--- .... ....
 C#4|..|C-4 LF.F ....|--- .... ....|C#2 2A.F ....
 C#4|..|C#2 2A.F ....|--- .... ....|--- .... ....
 C#4|..|C-4 LF.F ....|--- .... ....|C#2 2A.F ....
 C#4|..|C#2 2A.F ....|--- .... ....|--- .... ....
 G#3|..|C-4 LF.F ....|--- .... ....|G#1 2A.F ....
 G#3|..|G#1 2A.F ....|--- .... ....|--- .... ....
....|..|C-4 LF.A ....|--- .... ....|--- .... ....
....|..|--- .... ....|--- .... ....|--- .... ....
 G#3|..|C-4 LF.F ....|--- .... ....|G#1 2A.F ....
 G#3|..|G#1 2A.F ....|--- .... ....|--- .... ....
....|..|C-4 LF.7 ....|--- .... ....|C#2 2F.7 ....
....|..|--- .... ....|--- .... ....|--- .... ....
 C#4|..|B-8 JF.F ....|--- .... ....|C#2 2A.F ....
 C#4|..|C#2 2A.F ....|--- .... ....|--- .... ....
....|..|C-4 LF.7 ....|--- .... ....|C#2 2F.A ....
....|..|--- .... ....|--- .... ....|--- .... ....
 C#4|..|C-4 LF.F ....|--- .... ....|C#2 2A.F ....
 C#4|..|C#2 2A.F ....|--- .... ....|--- .... ....
 C#4|..|C-4 LF.F ....|--- .... ....|C#2 2A.F ....
 C#4|..|C#2 2A.F ....|--- .... ....|--- .... ....
 G#3|..|C-4 LF.F ....|--- .... ....|G#1 2A.F ....
 G#3|..|G#1 2A.F ....|--- .... ....|--- .... ....
....|..|C-4 LF.A ....|--- .... ....|--- .... ....
....|..|--- .... ....|--- .... ....|--- .... ....
 G#3|..|C-4 LF.F ....|--- .... ....|G#1 2A.F ....
 G#3|..|G#1 2A.F ....|--- .... ....|--- .... ....
....|..|C-4 LF.A ....|--- .... ....|C#2 2F.7 ....
....|..|--- .... ....|--- .... ....|--- .... ....

[Pattern11]
 C#4|..|C-4 LF.F ....|--- .... ....|C#2 2A.F ....
 C#4|..|C#2 2A.F ....|--- .... ....|--- .... ....
....|..|C-4 LF.F ....|--- .... ....|C#2 2F.A ....
....|..|--- .... ....|--- .... ....|--- .... ....
 C#4|..|C-4 LF.F ....|--- .... ....|C#2 2A.F ....
 C#4|..|C#2 2A.F ....|--- .... ....|--- .... ....
 C#4|..|C-4 LF.F ....|--- .... ....|C#2 2A.F ....
 C#4|..|C#2 2A.F ....|--- .... ....|--- .... ....
 G#3|..|C-4 LF.F ....|G#3 3FFF ....|G#1 2A.F ....
 G#3|..|G#1 2A.F ....|--- .... ....|--- .... ....
....|..|C-4 LF.A ....|--- .... ....|--- .... ....
....|..|--- .... ....|--- .... ....|--- .... ....
 G#3|..|C-4 LF.F ....|F#3 3FFF ....|G#1 2A.F ....
 G#3|..|G#1 2A.F ....|--- .... ....|--- .... ....
....|..|C-4 LF.7 ....|G#3 3FFA ....|G#3 4FEA ....
....|..|--- .... ....|--- .... ....|--- .... ....
 C#4|..|B-8 JF.F ....|G#3 3FFF ....|C#2 2A.F ....
 C#4|..|C#2 2A.F ....|--- .... ....|--- .... ....
....|..|C-4 LF.7 ....|F#3 3FFA ....|C#2 2F.A ....
....|..|--- .... ....|--- .... ....|--- .... ....
 C#4|..|C-4 LF.F ....|G#3 3FF7 ....|C#2 2A.F ....
 C#4|..|C#2 2A.F ....|--- .... ....|--- .... ....
 C#4|..|C-4 LF.F ....|G#3 3FFA ....|C#2 2A.F ....
 C#4|..|C#2 2A.F ....|--- .... ....|--- .... ....
 G#3|..|C-4 LF.F ....|F#3 3FF7 ....|G#1 2A.F ....
 G#3|..|G#1 2A.F ....|--- .... ....|--- .... ....
....|..|C-4 LF.A ....|--- .... ....|--- .... ....
....|..|--- .... ....|--- .... ....|--- .... ....
 G#3|..|C-4 LF.F ....|G#3 3FF7 ....|G#1 2A.F ....
 G#3|..|G#1 2A.F ....|--- .... ....|--- .... ....
....|..|C-4 LF.A ....|--- .... ....|C#2 2F.7 ....
....|..|--- .... ....|--- .... ....|--- .... ....
 C#4|..|C-4 LF.F ....|--- .... ....|C#2 2A.F ....
 C#4|..|C#2 2A.F ....|--- .... ....|--- .... ....
....|..|C-4 LF.F ....|--- .... ....|C#2 2F.A ....
....|..|--- .... ....|--- .... ....|--- .... ....
 C#4|..|C-4 LF.F ....|--- .... ....|C#2 2A.F ....
 C#4|..|C#2 2A.F ....|--- .... ....|--- .... ....
 C#4|..|C-4 LF.F ....|--- .... ....|C#2 2A.F ....
 C#4|..|C#2 2A.F ....|--- .... ....|--- .... ....
 G#3|..|C-4 LF.F ....|--- .... ....|G#1 2A.F ....
 G#3|..|G#1 2A.F ....|--- .... ....|--- .... ....
....|..|C-4 LF.A ....|--- .... ....|--- .... ....
....|..|--- .... ....|--- .... ....|--- .... ....
 G#3|..|C-4 LF.F ....|--- .... ....|G#1 2A.F ....
 G#3|..|G#1 2A.F ....|--- .... ....|--- .... ....
....|..|C-4 LF.7 ....|--- .... ....|C#2 2F.7 ....
....|..|--- .... ....|--- .... ....|--- .... ....
 C#4|..|B-8 JF.F ....|--- .... ....|C#2 2A.F ....
 C#4|..|C#2 2A.F ....|--- .... ....|--- .... ....
....|..|C-4 LF.7 ....|--- .... ....|C#2 2F.A ....
....|..|--- .... ....|--- .... ....|--- .... ....
 C#4|..|C-4 LF.F ....|--- .... ....|C#2 2A.F ....
 C#4|..|C#2 2A.F ....|--- .... ....|--- .... ....
 C#4|..|C-4 LF.F ....|--- .... ....|C#2 2A.F ....
 C#4|..|C#2 2A.F ....|--- .... ....|--- .... ....
 G#3|..|C-4 LF.F ....|--- .... ....|G#1 2A.F ....
 G#3|..|G#1 2A.F ....|--- .... ....|--- .... ....
....|..|C-4 LF.A ....|--- .... ....|--- .... ....
....|..|--- .... ....|--- .... ....|--- .... ....
 G#3|..|C-4 LF.F ....|--- .... ....|G#1 2A.F ....
 G#3|..|G#1 2A.F ....|--- .... ....|--- .... ....
....|..|C-4 LF.A ....|--- .... ....|C#2 2F.7 ....
....|..|--- .... ....|--- .... ....|--- .... ....

[Pattern12]
 C#4|..|C-4 LF.F ....|--- .... ....|C#2 2A.F ....
 C#4|..|C#2 2A.F ....|--- .... ....|--- .... ....
....|..|C-4 LF.F ....|--- .... ....|C#2 2F.A ....
....|..|--- .... ....|--- .... ....|--- .... ....
 C#4|..|C-4 LF.F ....|--- .... ....|C#2 2A.F ....
 C#4|..|C#2 2A.F ....|--- .... ....|--- .... ....
 C#4|..|C-4 LF.F ....|--- .... ....|C#2 2A.F ....
 C#4|..|C#2 2A.F ....|--- .... ....|--- .... ....
 G#3|..|C-4 LF.F ....|C#3 3FFF ....|G#1 2A.F ....
 G#3|..|G#1 2A.F ....|--- .... ....|--- .... ....
....|..|C-4 LF.A ....|--- .... ....|--- .... ....
....|..|--- .... ....|--- .... ....|--- .... ....
 G-3|..|C-4 LF.F ....|D#3 3FFF ....|G-1 2A.F ....
 G-3|..|G-1 2A.F ....|--- .... ....|--- .... ....
....|..|C-4 LF.7 ....|C#3 3FFA ....|C#3 4FEA ....
....|..|--- .... ....|--- .... ....|--- .... ....
 F-3|..|B-8 JF.F ....|F-3 3FFF ....|F-1 2A.F ....
 F-3|..|F-1 2A.F ....|--- .... ....|--- .... ....
....|..|C-4 LF.7 ....|D#3 3FFA ....|C#2 2F.A ....
....|..|--- .... ....|--- .... ....|--- .... ....
 F-3|..|C-4 LF.F ....|C#3 3FF7 ....|F-1 2A.F ....
 F-3|..|F-1 2A.F ....|--- .... ....|--- .... ....
 F-3|..|C-4 LF.F ....|F-3 3FFA ....|F-1 2A.F ....
 F-3|..|F-1 2A.F ....|--- .... ....|--- .... ....
 C-4|..|C-4 LF.F ....|D#3 3FF7 ....|C-2 2A.F ....
 C-4|..|C-2 2A.F ....|--- .... ....|--- .... ....
....|..|C-4 LF.A ....|--- .... ....|--- .... ....
....|..|--- .... ....|--- .... ....|--- .... ....
 C-4|..|C-4 LF.F ....|F-3 3FF7 ....|C-2 2A.F ....
 C-4|..|C-2 2A.F ....|--- .... ....|--- .... ....
....|..|C-4 LF.A ....|--- .... ....|C#2 2F.7 ....
....|..|--- .... ....|--- .... ....|--- .... ....
 G#3|..|C-4 LF.F ....|G#3 3FFF ....|G#1 2A.F ....
 G#3|..|G#1 2A.F ....|--- .... ....|--- .... ....
....|..|C-4 LF.F ....|--- .... ....|F-1 2F.A ....
....|..|--- .... ....|--- .... ....|--- .... ....
 G#3|..|C-4 LF.F ....|--- .... ....|G#1 2A.F ....
 G#3|..|G#1 2A.F ....|--- .... ....|--- .... ....
 G#3|..|C-4 LF.F ....|G#3 3FFA ....|G#1 2A.F ....
 G#3|..|G#1 2A.F ....|--- .... ....|--- .... ....
 D#4|..|C-4 LF.F ....|--- .... ....|D#2 2A.F ....
 D#4|..|D#2 2A.F ....|--- .... ....|--- .... ....
....|..|C-4 LF.A ....|--- .... ....|--- .... ....
....|..|--- .... ....|--- .... ....|--- .... ....
 D#4|..|C-4 LF.F ....|G#3 3FF7 ....|D#2 2A.F ....
 D#4|..|D#2 2A.F ....|--- .... ....|--- .... ....
....|..|C-4 LF.7 ....|--- .... ....|F-1 2F.7 ....
....|..|--- .... ....|--- .... ....|--- .... ....
 C#4|..|B-8 JF.F ....|F-3 3FFF ....|C#2 2A.F ....
 C#4|..|C#2 2A.F ....|--- .... ....|--- .... ....
....|..|C-4 LF.7 ....|--- .... ....|G#1 2F.A ....
....|..|--- .... ....|--- .... ....|--- .... ....
 C#4|..|C-4 LF.F ....|--- .... ....|C#2 2A.F ....
 C#4|..|C#2 2A.F ....|--- .... ....|--- .... ....
 C#4|..|C-4 LF.F ....|F-3 3FFA ....|C#2 2A.F ....
 C#4|..|C#2 2A.F ....|--- .... ....|--- .... ....
 G#3|..|C-4 LF.F ....|D#3 3FFF ....|G#1 2A.F ....
 G#3|..|G#1 2A.F ....|--- .... ....|--- .... ....
....|..|C-4 LF.A ....|--- .... ....|--- .... ....
....|..|--- .... ....|--- .... ....|--- .... ....
 G#3|..|C-4 LF.F ....|F-3 3FF7 ....|G#1 2A.F ....
 G#3|..|G#1 2A.F ....|--- .... ....|--- .... ....
....|..|C-4 LF.A ....|D#3 3FFA ....|D#3 4FEA ....
....|..|--- .... ....|--- .... ....|--- .... ....

[Pattern13]
 C#4|..|C-4 LF.F ....|--- .... ....|C#2 2A.F ....
 C#4|..|C#2 2A.F ....|--- .... ....|--- .... ....
....|..|C-4 LF.F ....|--- .... ....|C#2 2F.A ....
....|..|--- .... ....|--- .... ....|--- .... ....
 F#4|..|C-4 LF.F ....|D#3 3FF7 ....|F#2 2A.F ....
 F#4|..|F#2 2A.F ....|--- .... ....|--- .... ....
....|..|C-4 LF.F ....|--- .... ....|--- .... ....
....|..|--- .... ....|--- .... ....|--- .... ....
 F-4|..|C-4 LF.F ....|F-3 3FFF ....|F-2 2A.F ....
 F-4|..|F-2 2A.F ....|--- .... ....|--- .... ....
....|..|C-4 LF.A ....|G#3 3FFF ....|G#3 4FEF ....
....|..|--- .... ....|--- .... ....|--- .... ....
 D#4|..|C-4 LF.F ....|A#3 3FFF ....|D#2 2A.F ....
 D#4|..|D#2 2A.F ....|--- .... ....|--- .... ....
....|..|C-4 LF.7 ....|C-4 3FFF ....|C-4 4FEF ....
....|..|--- .... ....|--- .... ....|--- .... ....
 C#4|..|B-8 JF.F ....|C#4 3FFF ....|C#2 2A.F ....
 C#4|..|C#2 2A.F ....|--- .... ....|--- .... ....
....|..|C-4 LF.7 ....|A#3 3FFA ....|A#3 4FEA ....
....|..|--- .... ....|--- .... ....|--- .... ....
 C#4|..|C-4 LF.F ....|F-3 3FF7 ....|C#2 2A.F ....
 C#4|..|C#2 2A.F ....|--- .... ....|--- .... ....
 C#4|..|C-4 LF.F ....|G#3 3FF7 ....|C#2 2A.F ....
 C#4|..|C#2 2A.F ....|--- .... ....|--- .... ....
 G#3|..|C-4 LF.F ....|A#3 3FF7 ....|G#1 2A.F ....
 G#3|..|G#1 2A.F ....|--- .... ....|--- .... ....
....|..|C-4 LF.A ....|C-4 3FF7 ....|C-4 4FE7 ....
....|..|--- .... ....|--- .... ....|--- .... ....
 G#3|..|C-4 LF.F ....|C#4 3FF7 ....|G#1 2A.F ....
 G#3|..|G#1 2A.F ....|--- .... ....|--- .... ....
....|..|C-4 LF.A ....|--- .... ....|--- .... ....
....|..|--- .... ....|--- .... ....|--- .... ....
 C#4|..|C-4 LF.F ....|--- .... ....|C#2 2A.F ....
 C#4|..|C#2 2A.F ....|--- .... ....|--- .... ....
....|..|C-4 LF.F ....|--- .... ....|C#2 2F.A ....
....|..|--- .... ....|--- .... ....|--- .... ....
 C#4|..|C-4 LF.F ....|--- .... ....|C#2 2A.F ....
 C#4|..|C#2 2A.F ....|--- .... ....|--- .... ....
 C#4|..|C-4 LF.F ....|--- .... ....|C#2 2A.F ....
 C#4|..|C#2 2A.F ....|--- .... ....|--- .... ....
 G#3|..|C-4 LF.F ....|G#3 3FFF ....|G#1 2A.F ....
 G#3|..|G#1 2A.F ....|--- .... ....|--- .... ....
....|..|C-4 LF.A ....|--- .... ....|--- .... ....
....|..|--- .... ....|--- .... ....|--- .... ....
 G#3|..|C-4 LF.F ....|F#3 3FFF ....|G#1 2A.F ....
 G#3|..|G#1 2A.F ....|--- .... ....|--- .... ....
....|..|C-4 LF.7 ....|G#3 3FFA ....|G#3 4FEA ....
....|..|--- .... ....|--- .... ....|--- .... ....
 C#4|..|B-8 JF.F ....|G#3 3FFF ....|C#2 2A.F ....
 C#4|..|C#2 2A.F ....|--- .... ....|--- .... ....
....|..|C-4 LF.7 ....|F#3 3FFA ....|C#2 2F.A ....
....|..|--- .... ....|--- .... ....|--- .... ....
 C#4|..|C-4 LF.F ....|G#3 3FF7 ....|C#2 2A.F ....
 C#4|..|C#2 2A.F ....|--- .... ....|--- .... ....
 C#4|..|C-4 LF.F ....|G#3 3FFA ....|C#2 2A.F ....
 C#4|..|C#2 2A.F ....|--- .... ....|--- .... ....
 G#3|..|C-4 LF.F ....|F#3 3FF7 ....|G#1 2A.F ....
 G#3|..|G#1 2A.F ....|--- .... ....|--- .... ....
....|..|C-4 LF.A ....|--- .... ....|--- .... ....
....|..|--- .... ....|--- .... ....|--- .... ....
 G#3|..|C-4 LF.F ....|G#3 3FF7 ....|G#1 2A.F ....
 G#3|..|G#1 2A.F ....|--- .... ....|--- .... ....
....|..|C-4 LF.A ....|--- .... ....|C#2 2F.7 ....
....|..|--- .... ....|--- .... ....|--- .... ....

[Pattern14]
 C#4|..|C-4 LF.F ....|--- .... ....|C#2 2A.F ....
 C#4|..|C#2 2A.F ....|--- .... ....|--- .... ....
....|..|C-4 LF.F ....|--- .... ....|C#2 2F.A ....
....|..|--- .... ....|--- .... ....|--- .... ....
 C#4|..|C-4 LF.F ....|--- .... ....|C#2 2A.F ....
 C#4|..|C#2 2A.F ....|--- .... ....|--- .... ....
 C#4|..|C-4 LF.F ....|--- .... ....|C#2 2A.F ....
 C#4|..|C#2 2A.F ....|--- .... ....|--- .... ....
 G#3|..|C-4 LF.F ....|C#3 3FFF ....|G#1 2A.F ....
 G#3|..|G#1 2A.F ....|--- .... ....|--- .... ....
....|..|C-4 LF.A ....|--- .... ....|--- .... ....
....|..|--- .... ....|--- .... ....|--- .... ....
 G-3|..|C-4 LF.F ....|D#3 3FFF ....|G-1 2A.F ....
 G-3|..|G-1 2A.F ....|--- .... ....|--- .... ....
....|..|C-4 LF.7 ....|C#3 3FFA ....|C#3 4FEA ....
....|..|--- .... ....|--- .... ....|--- .... ....
 F-3|..|B-8 JF.F ....|F-3 3FFF ....|F-1 2A.F ....
 F-3|..|F-1 2A.F ....|--- .... ....|--- .... ....
....|..|C-4 LF.7 ....|D#3 3FFA ....|C#2 2F.A ....
....|..|--- .... ....|--- .... ....|--- .... ....
 F-3|..|C-4 LF.F ....|C#3 3FF7 ....|F-1 2A.F ....
 F-3|..|F-1 2A.F ....|--- .... ....|--- .... ....
 F-3|..|C-4 LF.F ....|F-3 3FFA ....|F-1 2A.F ....
 F-3|..|F-1 2A.F ....|--- .... ....|--- .... ....
 C-4|..|C-4 LF.F ....|D#3 3FF7 ....|C-2 2A.F ....
 C-4|..|C-2 2A.F ....|--- .... ....|--- .... ....
....|..|C-4 LF.A ....|--- .... ....|--- .... ....
....|..|--- .... ....|--- .... ....|--- .... ....
 C-4|..|C-4 LF.F ....|F-3 3FF7 ....|C-2 2A.F ....
 C-4|..|C-2 2A.F ....|--- .... ....|--- .... ....
....|..|C-4 LF.A ....|--- .... ....|C#2 2F.7 ....
....|..|--- .... ....|--- .... ....|--- .... ....
 G#3|..|C-4 LF.F ....|D#3 3FFF ....|G#1 2A.F ....
 G#3|..|G#1 2A.F ....|--- .... ....|--- .... ....
....|..|C-4 LF.F ....|--- .... ....|F-1 2F.A ....
....|..|--- .... ....|--- .... ....|--- .... ....
 G#3|..|C-4 LF.F ....|--- .... ....|G#1 2A.F ....
 G#3|..|G#1 2A.F ....|--- .... ....|--- .... ....
 G#3|..|C-4 LF.F ....|D#3 3FFA ....|G#1 2A.F ....
 G#3|..|G#1 2A.F ....|--- .... ....|--- .... ....
 D#4|..|C-4 LF.F ....|--- .... ....|D#2 2A.F ....
 D#4|..|D#2 2A.F ....|--- .... ....|--- .... ....
....|..|C-4 LF.A ....|--- .... ....|--- .... ....
....|..|--- .... ....|--- .... ....|--- .... ....
 D#4|..|C-4 LF.F ....|D#3 3FF7 ....|D#2 2A.F ....
 D#4|..|D#2 2A.F ....|--- .... ....|--- .... ....
....|..|C-4 LF.7 ....|--- .... ....|F-1 2F.7 ....
....|..|--- .... ....|--- .... ....|--- .... ....
 C#4|..|B-8 JF.F ....|D#3 3FFF ....|C#2 2A.F ....
 C#4|..|C#2 2A.F ....|--- .... ....|--- .... ....
....|..|C-4 LF.7 ....|--- .... ....|G#1 2F.A ....
....|..|--- .... ....|--- .... ....|--- .... ....
 C#4|..|C-4 LF.F ....|--- .... ....|C#2 2A.F ....
 C#4|..|C#2 2A.F ....|--- .... ....|--- .... ....
 C#4|..|C-4 LF.F ....|D#3 3FFA ....|C#2 2A.F ....
 C#4|..|C#2 2A.F ....|--- .... ....|--- .... ....
 G#3|..|C-4 LF.F ....|C#3 3FFF ....|G#1 2A.F ....
 G#3|..|G#1 2A.F ....|--- .... ....|--- .... ....
....|..|C-4 LF.A ....|--- .... ....|--- .... ....
....|..|--- .... ....|--- .... ....|--- .... ....
 G#3|..|C-4 LF.F ....|D#3 3FF7 ....|G#1 2A.F ....
 G#3|..|G#1 2A.F ....|--- .... ....|--- .... ....
....|..|C-4 LF.A ....|C#3 3FFA ....|C#3 4FEA ....
....|..|--- .... ....|--- .... ....|--- .... ....

[Pattern15]
 C#4|..|C-4 LF.F ....|--- .... ....|C#2 2A.F ....
 C#4|..|C#2 2A.F ....|--- .... ....|--- .... ....
....|..|C-4 LF.7 ....|--- .... ....|C#2 2F.A ....
....|..|--- .... ....|--- .... ....|--- .... ....
....|..|C-4 LF.F ....|C#3 3FF7 ....|D#2 2F.7 ....
....|..|R-- .... ....|--- .... ....|--- .... ....
....|..|C-4 LF.A ....|--- .... ....|--- .... ....
....|..|--- .... ....|--- .... ....|--- .... ....
....|..|C-4 LF.F ....|F-3 3FFF ....|F-3 4FEF ....
....|..|--- .... ....|--- .... ....|--- .... ....
....|..|C-4 LF.A ....|G#3 3FFF ....|G#3 4FEF ....
....|..|--- .... ....|--- .... ....|--- .... ....
....|..|C-4 LF.7 ....|A#3 3FFF ....|A#3 4FEF ....
....|..|--- .... ....|--- .... ....|--- .... ....
....|..|C-4 LF.A ....|C#4 3FFF ....|C#4 4FEF ....
....|..|--- .... ....|--- .... ....|--- .... ....
 G#3|..|B-8 JF.F ....|C-4 3FFF ....|G#1 2A.F ....
 G#3|..|G#1 2A.F ....|--- .... ....|--- .... ....
....|..|R-- .... ....|A#3 3FFA ....|A#3 4FEA ....
....|..|--- .... ....|--- .... ....|--- .... ....
 G#3|..|C-4 LF.F ....|C-4 3FFF ....|G#1 2A.F ....
 G#3|..|G#1 2A.F ....|--- .... ....|--- .... ....
 G#3|..|C-4 LF.F ....|G#3 3FFF ....|G#1 2A.F ....
 G#3|..|G#1 2A.F ....|--- .... ....|--- .... ....
 D#4|..|C-4 LF.F ....|A#3 3FFF ....|D#2 2A.F ....
 D#4|..|D#2 2A.F ....|--- .... ....|--- .... ....
....|..|C-4 LF.A ....|C#4 3FF7 ....|C#4 4FE7 ....
....|..|--- .... ....|--- .... ....|--- .... ....
 D#4|..|C-4 LF.F ....|A#3 3FFF ....|D#2 2A.F ....
 D#4|..|D#2 2A.F ....|--- .... ....|--- .... ....
....|..|C-4 LF.A ....|F-3 3FFF ....|F-3 4FEF ....
....|..|--- .... ....|--- .... ....|--- .... ....
 G#3|..|C-4 LF.F ....|G#3 3FFF ....|G#1 2A.F ....
 G#3|..|G#1 2A.F ....|--- .... ....|--- .... ....
....|..|C-4 LF.F ....|G#3 3FF7 ....|G#1 2F.A ....
....|..|--- .... ....|--- .... ....|--- .... ....
 G#3|..|C-4 LF.F ....|A#3 3FF7 ....|G#1 2A.F ....
 G#3|..|G#1 2A.F ....|--- .... ....|--- .... ....
 G#3|..|C-4 LF.F ....|G#3 3FFA ....|G#1 2A.F ....
 G#3|..|G#1 2A.F ....|--- .... ....|--- .... ....
 D#4|..|C-4 LF.F ....|C#3 3FFF ....|D#2 2A.F ....
 D#4|..|D#2 2A.F ....|--- .... ....|--- .... ....
....|..|C-4 LF.A ....|D#3 3FFF ....|D#3 4FEF ....
....|..|--- .... ....|--- .... ....|--- .... ....
 D#4|..|C-4 LF.F ....|F-3 3FFF ....|D#2 2A.F ....
 D#4|..|D#2 2A.F ....|--- .... ....|--- .... ....
....|..|C-4 LF.7 ....|F#3 3FFF ....|F#3 4FEF ....
....|..|--- .... ....|--- .... ....|--- .... ....
 C#4|..|B-8 JF.F ....|F-3 3FFF ....|C#2 2A.F ....
 C#4|..|C#2 2A.F ....|--- .... ....|--- .... ....
....|..|C-4 LF.7 ....|F-3 3FFA ....|G#1 2F.A ....
....|..|--- .... ....|--- .... ....|--- .... ....
 C#4|..|C-4 LF.F ....|C#3 3FF7 ....|C#2 2A.F ....
 C#4|..|C#2 2A.F ....|--- .... ....|--- .... ....
 C#4|..|C-4 LF.F ....|D#3 3FF7 ....|C#2 2A.F ....
 C#4|..|C#2 2A.F ....|--- .... ....|--- .... ....
 G#4|..|C-4 LF.F ....|F-3 3FF7 ....|G#2 2A.F ....
 G#4|..|G#2 2A.F ....|--- .... ....|--- .... ....
....|..|C-4 LF.A ....|F#3 3FF7 ....|F#3 4FE7 ....
....|..|--- .... ....|--- .... ....|--- .... ....
 G#4|..|C-4 LF.F ....|F-3 3FF7 ....|G#2 2A.F ....
 G#4|..|G#2 2A.F ....|--- .... ....|--- .... ....
....|..|C-4 LF.A ....|--- .... ....|G#1 2F.7 ....
....|..|--- .... ....|--- .... ....|--- .... ....

[Pattern16]
 C#4|..|C-4 LF.F ....|--- .... ....|C#2 2A.F ....
 C#4|..|C#2 2A.F ....|--- .... ....|--- .... ....
....|..|C-4 LF.F ....|--- .... ....|C#2 2F.A ....
....|..|--- .... ....|--- .... ....|--- .... ....
 C#4|..|C-4 LF.F ....|--- .... ....|C#2 2A.F ....
 C#4|..|C#2 2A.F ....|--- .... ....|--- .... ....
 C#4|..|C-4 LF.F ....|--- .... ....|C#2 2A.F ....
 C#4|..|C#2 2A.F ....|--- .... ....|--- .... ....
 G#4|..|C-4 LF.F ....|F-3 3FFF ....|G#2 2A.F ....
 G#4|..|G#2 2A.F ....|--- .... ....|--- .... ....
....|..|C-4 LF.A ....|G#3 3FFF ....|G#3 4FEF ....
....|..|--- .... ....|--- .... ....|--- .... ....
 G#4|..|C-4 LF.F ....|A#3 3FFF ....|G#2 2A.F ....
 G#4|..|G#2 2A.F ....|--- .... ....|--- .... ....
....|..|C-4 LF.7 ....|C#4 3FFF ....|C#4 4FEF ....
....|..|--- .... ....|--- .... ....|--- .... ....
 G#3|..|B-8 JF.F ....|C-4 3FFF ....|G#1 2A.F ....
 G#3|..|G#1 2A.F ....|--- .... ....|--- .... ....
....|..|C-4 LF.7 ....|A#3 3FFA ....|C#2 2F.A ....
....|..|--- .... ....|--- .... ....|--- .... ....
 G#3|..|C-4 LF.F ....|C-4 3FFF ....|G#1 2A.F ....
 G#3|..|G#1 2A.F ....|--- .... ....|--- .... ....
 G#3|..|C-4 LF.F ....|G#3 3FFF ....|G#1 2A.F ....
 G#3|..|G#1 2A.F ....|--- .... ....|--- .... ....
 D#4|..|C-4 LF.F ....|A#3 3FFF ....|D#2 2A.F ....
 D#4|..|D#2 2A.F ....|--- .... ....|--- .... ....
....|..|C-4 LF.A ....|C#4 3FF7 ....|C#4 4FE7 ....
....|..|--- .... ....|--- .... ....|--- .... ....
 D#4|..|C-4 LF.F ....|A#3 3FFF ....|D#2 2A.F ....
 D#4|..|D#2 2A.F ....|--- .... ....|--- .... ....
....|..|C-4 LF.A ....|F-3 3FFF ....|F-3 4FEF ....
....|..|--- .... ....|--- .... ....|--- .... ....
 G#3|..|C-4 LF.F ....|G#3 3FFF ....|G#1 2A.F ....
 G#3|..|G#1 2A.F ....|--- .... ....|--- .... ....
....|..|C-4 LF.F ....|G#3 3FF7 ....|G#1 2F.A ....
....|..|--- .... ....|--- .... ....|--- .... ....
 G#3|..|C-4 LF.F ....|A#3 3FF7 ....|G#1 2A.F ....
 G#3|..|G#1 2A.F ....|--- .... ....|--- .... ....
 G#3|..|C-4 LF.F ....|G#3 3FFA ....|G#1 2A.F ....
 G#3|..|G#1 2A.F ....|--- .... ....|--- .... ....
 D#4|..|C-4 LF.F ....|F-3 3FFF ....|D#2 2A.F ....
 D#4|..|D#2 2A.F ....|--- .... ....|--- .... ....
....|..|C-4 LF.A ....|G#3 3FFF ....|G#3 4FEF ....
....|..|--- .... ....|--- .... ....|--- .... ....
 D-4|..|C-4 LF.F ....|A#3 3FFF ....|D-2 2A.F ....
 D-4|..|D-2 2A.F ....|--- .... ....|--- .... ....
....|..|C-4 LF.7 ....|C-4 3FFF ....|C-4 4FEF ....
....|..|--- .... ....|--- .... ....|--- .... ....
 C#4|..|C-4 LF.F ....|C#4 3FFF ....|C#2 2A.F ....
 C#4|..|C#2 2A.F ....|--- .... ....|--- .... ....
....|..|C-4 LF.7 ....|A#3 3FFA ....|G#1 2F.A ....
....|..|--- .... ....|--- .... ....|--- .... ....
....|..|C-4 LF.F ....|F-3 3FF7 ....|D#2 2F.7 ....
....|..|R-- .... ....|--- .... ....|--- .... ....
....|..|C-4 LF.A ....|G#3 3FF7 ....|G#3 4FE7 ....
....|..|--- .... ....|--- .... ....|--- .... ....
 E-4|..|C-5 VF.F ....|A#3 3FF7 ....|E-2 2A.F ....
 E-4|..|E-2 2A.F ....|--- .... ....|--- .... ....
....|..|C-4 AF.F ....|C-4 3FF7 ....|C-4 4FE7 ....
....|..|--- .... ....|--- .... ....|--- .... ....
 D#4|..|C-5 VF.F ....|C#4 3FF7 ....|D#2 2A.F ....
 D#4|..|D#2 2A.F ....|--- .... ....|--- .... ....
....|..|C-4 AF.F ....|--- .... ....|G#1 2F.7 ....
....|..|--- .... ....|--- .... ....|--- .... ....

[Pattern17]
 D-4|..|C-4 AF.F ....|D-4 3FFF ....|D-2 2A.F ....
 D-4|..|D-2 2A.F ....|--- .... ....|--- .... ....
 D-4|..|C-4 AF.F ....|--- .... ....|D-2 2A.F ....
 D-4|..|D-2 2A.F ....|--- .... ....|--- .... ....
 D-4|..|C-4 AF.F ....|--- .... ....|D-2 2A.F ....
 D-4|..|D-2 2A.F ....|--- .... ....|--- .... ....
 D-4|..|C-4 AF.F ....|D-4 3FFA ....|D-2 2A.F ....
 D-4|..|D-2 2A.F ....|--- .... ....|--- .... ....
 A-3|..|C-4 AF.F ....|--- .... ....|A-1 2A.F ....
 A-3|..|A-1 2A.F ....|--- .... ....|--- .... ....
 A-3|..|C-4 AF.F ....|--- .... ....|A-1 2A.F ....
 A-3|..|A-1 2A.F ....|--- .... ....|--- .... ....
 A-3|..|C-4 AF.F ....|D-4 3FF7 ....|A-1 2A.F ....
 A-3|..|A-1 2A.F ....|--- .... ....|--- .... ....
 A-3|..|C-4 AF.F ....|--- .... ....|A-1 2A.F ....
 A-3|..|A-1 2A.F ....|--- .... ....|--- .... ....
 D-4|..|C-4 AF.F ....|--- .... ....|D-2 2A.F ....
 D-4|..|D-2 2A.F ....|--- .... ....|--- .... ....
 D-4|..|C-4 AF.F ....|--- .... ....|D-2 2A.F ....
 D-4|..|D-2 2A.F ....|--- .... ....|--- .... ....
 D-4|..|C-4 AF.F ....|--- .... ....|D-2 2A.F ....
 D-4|..|D-2 2A.F ....|--- .... ....|--- .... ....
 D-4|..|C-4 AF.F ....|--- .... ....|D-2 2A.F ....
 D-4|..|D-2 2A.F ....|--- .... ....|--- .... ....
 A-3|..|C-4 AF.F ....|--- .... ....|A-1 2A.F ....
 A-3|..|A-1 2A.F ....|--- .... ....|--- .... ....
 A-3|..|C-4 AF.F ....|--- .... ....|A-1 2A.F ....
 A-3|..|A-1 2A.F ....|--- .... ....|--- .... ....
 A-3|..|C-4 AF.F ....|--- .... ....|A-1 2A.F ....
 A-3|..|A-1 2A.F ....|--- .... ....|--- .... ....
 A-3|..|C-4 AF.F ....|--- .... ....|A-1 2A.F ....
 A-3|..|A-1 2A.F ....|--- .... ....|--- .... ....
 D-4|..|C-4 AF.F ....|--- .... ....|D-2 2A.F ....
 D-4|..|D-2 2A.F ....|--- .... ....|--- .... ....
 D-4|..|C-4 AF.F ....|--- .... ....|D-2 2A.F ....
 D-4|..|D-2 2A.F ....|--- .... ....|--- .... ....
 D-4|..|C-4 AF.F ....|--- .... ....|D-2 2A.F ....
 D-4|..|D-2 2A.F ....|--- .... ....|--- .... ....
 D-4|..|C-4 AF.F ....|--- .... ....|D-2 2A.F ....
 D-4|..|D-2 2A.F ....|--- .... ....|--- .... ....
 A-3|..|C-4 AF.F ....|--- .... ....|A-1 2A.F ....
 A-3|..|A-1 2A.F ....|--- .... ....|--- .... ....
 A-3|..|C-4 AF.F ....|--- .... ....|A-1 2A.F ....
 A-3|..|A-1 2A.F ....|--- .... ....|--- .... ....
 A-3|..|C-4 AF.F ....|--- .... ....|A-1 2A.F ....
 A-3|..|A-1 2A.F ....|--- .... ....|--- .... ....
 A-3|..|C-4 AF.F ....|--- .... ....|A-1 2A.F ....
 A-3|..|A-1 2A.F ....|--- .... ....|--- .... ....
 D-4|..|D#4 9F.F ....|--- .... ....|D-2 2A.F ....
....|..|D#4 9F.F ....|--- .... ....|--- .... ....
 D-4|..|D#4 9F.F ....|--- .... ....|D-2 2A.F ....
....|..|D#4 9F.F ....|--- .... ....|--- .... ....
 D-4|..|C-4 9F.F ....|--- .... ....|D-2 2A.F ....
....|..|C-4 9F.F ....|--- .... ....|--- .... ....
 D-4|..|C-4 9F.F ....|--- .... ....|D-2 2A.F ....
....|..|C-4 9F.F ....|--- .... ....|--- .... ....
 A-3|..|C-4 AF.F ....|--- .... ....|A-1 2A.F ....
....|..|D#4 9F.A ....|--- .... ....|--- .... ....
 A-3|..|A-1 2A.F ....|--- .... ....|A-1 2A.F ....
....|..|C-4 9F.A ....|--- .... ....|--- .... ....
 A-3|..|D#4 9F.F ....|--- .... ....|A-1 2A.F ....
....|..|D#4 9F.7 ....|--- .... ....|--- .... ....
 A-3|..|C-4 9F.F ....|--- .... ....|A-1 2A.F ....
....|..|D#4 9F.7 ....|--- .... ....|--- .... ....

[Pattern18]
 D-4|..|B-8 JF.F ....|A-4 3FFF ....|D-2 2A.F ....
....|..|C-4 9F.7 ....|--- .... ....|--- .... ....
....|..|C-4 9F.7 ....|--- .... ....|A-1 2F.7 ....
....|..|C-4 9F.7 ....|--- .... ....|--- .... ....
 D-4|..|C-4 LF.F ....|--- .... ....|D-2 2A.F ....
 D-4|..|D-2 2A.F ....|--- .... ....|--- .... ....
 D-4|..|C-4 LF.F ....|A-4 3FFA ....|D-2 2A.F ....
 D-4|..|D-2 2A.F ....|--- .... ....|--- .... ....
 A-3|..|C-4 LF.F ....|--- .... ....|A-1 2A.F ....
 A-3|..|A-1 2A.F ....|--- .... ....|--- .... ....
....|..|C-4 9F.7 ....|--- .... ....|D-2 2F.7 ....
....|..|--- .... ....|--- .... ....|--- .... ....
 A-3|..|C-4 LF.F ....|A-4 3FF7 ....|A-1 2A.F ....
 A-3|..|A-1 2A.F ....|--- .... ....|--- .... ....
....|..|C-4 LF.A ....|--- .... ....|D-2 2F.7 ....
....|..|--- .... ....|--- .... ....|--- .... ....
 D-4|..|C-4 LF.F ....|--- .... ....|D-2 2A.F ....
 D-4|..|D-2 2A.F ....|--- .... ....|--- .... ....
....|..|C-4 LF.F ....|--- .... ....|A-1 2F.7 ....
....|..|--- .... ....|--- .... ....|--- .... ....
 D-4|..|C-4 LF.F ....|--- .... ....|D-2 2A.F ....
 D-4|..|D-2 2A.F ....|--- .... ....|--- .... ....
 D-4|..|C-4 LF.F ....|--- .... ....|D-2 2A.F ....
 D-4|..|D-2 2A.F ....|--- .... ....|--- .... ....
 A-3|..|C-4 LF.F ....|--- .... ....|A-1 2A.F ....
 A-3|..|A-1 2A.F ....|--- .... ....|--- .... ....
....|..|C-4 LF.A ....|--- .... ....|--- .... ....
....|..|--- .... ....|--- .... ....|--- .... ....
 A-3|..|C-4 LF.F ....|--- .... ....|A-1 2A.F ....
 A-3|..|A-1 2A.F ....|--- .... ....|--- .... ....
....|..|C-4 LF.7 ....|--- .... ....|D-2 2F.7 ....
....|..|--- .... ....|--- .... ....|--- .... ....
 D-4|..|B-8 JF.F ....|--- .... ....|D-2 2A.F ....
 D-4|..|D-2 2A.F ....|--- .... ....|--- .... ....
....|..|C-4 LF.7 ....|--- .... ....|D-2 2F.A ....
....|..|--- .... ....|--- .... ....|--- .... ....
 D-4|..|C-4 LF.F ....|--- .... ....|D-2 2A.F ....
 D-4|..|D-2 2A.F ....|--- .... ....|--- .... ....
 D-4|..|C-4 LF.F ....|--- .... ....|D-2 2A.F ....
 D-4|..|D-2 2A.F ....|--- .... ....|--- .... ....
 A-3|..|C-4 LF.F ....|--- .... ....|A-1 2A.F ....
 A-3|..|A-1 2A.F ....|--- .... ....|--- .... ....
....|..|C-4 LF.A ....|--- .... ....|--- .... ....
....|..|--- .... ....|--- .... ....|--- .... ....
 A-3|..|C-4 LF.F ....|--- .... ....|A-1 2A.F ....
 A-3|..|A-1 2A.F ....|--- .... ....|--- .... ....
....|..|C-4 LF.A ....|--- .... ....|D-2 2F.7 ....
....|..|--- .... ....|--- .... ....|--- .... ....
 D-4|..|C-4 LF.F ....|--- .... ....|D-2 2A.F ....
 D-4|..|D-2 2A.F ....|--- .... ....|--- .... ....
....|..|C-4 LF.F ....|--- .... ....|D-2 2F.A ....
....|..|--- .... ....|--- .... ....|--- .... ....
 D-4|..|C-4 LF.F ....|--- .... ....|D-2 2A.F ....
 D-4|..|D-2 2A.F ....|--- .... ....|--- .... ....
 D-4|..|C-4 LF.F ....|--- .... ....|D-2 2A.F ....
 D-4|..|D-2 2A.F ....|--- .... ....|--- .... ....
 A-3|..|C-4 LF.F ....|D-2 3FFF ....|A-1 2A.F ....
 A-3|..|A-1 2A.F ....|--- .... ....|--- .... ....
....|..|C-4 LF.A ....|--- .... ....|--- .... ....
....|..|--- .... ....|--- .... ....|--- .... ....
 G#3|..|C-4 LF.F ....|E-2 3FFF ....|G#1 2A.F ....
 G#3|..|G#1 2A.F ....|--- .... ....|--- .... ....
....|..|C-4 LF.7 ....|D-2 3FFA ....|D-2 4FEA ....
....|..|--- .... ....|--- .... ....|--- .... ....

[Pattern19]
 F#3|..|B-8 JF.F ....|F#2 3FFF ....|F#1 2A.F ....
 F#3|..|F#1 2A.F ....|--- .... ....|--- .... ....
....|..|C-4 LF.7 ....|E-2 3FFA ....|D-2 2F.A ....
....|..|--- .... ....|--- .... ....|--- .... ....
 F#3|..|C-4 LF.F ....|D-2 3FF7 ....|F#1 2A.F ....
 F#3|..|F#1 2A.F ....|--- .... ....|--- .... ....
 F#3|..|C-4 LF.F ....|F#2 3FFA ....|F#1 2A.F ....
 F#3|..|F#1 2A.F ....|--- .... ....|--- .... ....
 C#4|..|C-4 LF.F ....|E-2 3FF7 ....|C#2 2A.F ....
 C#4|..|C#2 2A.F ....|--- .... ....|--- .... ....
....|..|C-4 LF.A ....|--- .... ....|--- .... ....
....|..|--- .... ....|--- .... ....|--- .... ....
 C#4|..|C-4 LF.F ....|F#2 3FF7 ....|C#2 2A.F ....
 C#4|..|C#2 2A.F ....|--- .... ....|--- .... ....
....|..|C-4 LF.A ....|--- .... ....|D-2 2F.7 ....
....|..|--- .... ....|--- .... ....|--- .... ....
 A-3|..|C-4 LF.F ....|A-2 3FFF ....|A-1 2A.F ....
 A-3|..|A-1 2A.F ....|--- .... ....|--- .... ....
....|..|C-4 LF.F ....|--- .... ....|F#1 2F.A ....
....|..|--- .... ....|--- .... ....|--- .... ....
 A-3|..|C-4 LF.F ....|--- .... ....|A-1 2A.F ....
 A-3|..|A-1 2A.F ....|--- .... ....|--- .... ....
 A-3|..|C-4 LF.F ....|A-2 3FFA ....|A-1 2A.F ....
 A-3|..|A-1 2A.F ....|--- .... ....|--- .... ....
 E-4|..|C-4 LF.F ....|--- .... ....|E-2 2A.F ....
 E-4|..|E-2 2A.F ....|--- .... ....|--- .... ....
....|..|C-4 LF.A ....|--- .... ....|--- .... ....
....|..|--- .... ....|--- .... ....|--- .... ....
 E-4|..|C-4 LF.F ....|A-2 3FF7 ....|E-2 2A.F ....
 E-4|..|E-2 2A.F ....|--- .... ....|--- .... ....
....|..|C-4 LF.7 ....|--- .... ....|F#1 2F.7 ....
....|..|--- .... ....|--- .... ....|--- .... ....
 D-4|..|B-8 JF.F ....|F#2 3FFF ....|D-2 2A.F ....
 D-4|..|D-2 2A.F ....|--- .... ....|--- .... ....
....|..|C-4 LF.7 ....|--- .... ....|A-1 2F.A ....
....|..|--- .... ....|--- .... ....|--- .... ....
 D-4|..|C-4 LF.F ....|--- .... ....|D-2 2A.F ....
 D-4|..|D-2 2A.F ....|--- .... ....|--- .... ....
 D-4|..|C-4 LF.F ....|F#2 3FFA ....|D-2 2A.F ....
 D-4|..|D-2 2A.F ....|--- .... ....|--- .... ....
 A-3|..|C-4 LF.F ....|E-2 3FFF ....|A-1 2A.F ....
 A-3|..|A-1 2A.F ....|--- .... ....|--- .... ....
....|..|C-4 LF.A ....|--- .... ....|--- .... ....
....|..|--- .... ....|--- .... ....|--- .... ....
 A-3|..|C-4 LF.F ....|F#2 3FF7 ....|A-1 2A.F ....
 A-3|..|A-1 2A.F ....|--- .... ....|--- .... ....
....|..|C-4 LF.A ....|E-2 3FFA ....|E-2 4FEA ....
....|..|--- .... ....|--- .... ....|--- .... ....
 D-4|..|C-4 LF.F ....|--- .... ....|D-2 2A.F ....
 D-4|..|D-2 2A.F ....|--- .... ....|--- .... ....
....|..|C-4 LF.F ....|--- .... ....|D-2 2F.A ....
....|..|--- .... ....|--- .... ....|--- .... ....
 G-4|..|C-4 LF.F ....|E-2 3FF7 ....|G-2 2A.F ....
 G-4|..|G-2 2A.F ....|--- .... ....|--- .... ....
....|..|C-4 LF.F ....|--- .... ....|--- .... ....
....|..|--- .... ....|--- .... ....|--- .... ....
 F#4|..|C-4 LF.F ....|F#3 3FFF ....|F#2 2A.F ....
 F#4|..|F#2 2A.F ....|--- .... ....|--- .... ....
....|..|C-4 LF.A ....|A-3 3FFF ....|A-3 4FEF ....
....|..|--- .... ....|--- .... ....|--- .... ....
 E-4|..|C-4 LF.F ....|B-3 3FFF ....|E-2 2A.F ....
 E-4|..|E-2 2A.F ....|--- .... ....|--- .... ....
....|..|C-4 LF.7 ....|C#4 3FFF ....|C#4 4FEF ....
....|..|--- .... ....|--- .... ....|--- .... ....

[Pattern20]
 D-4|..|B-8 JF.F ....|D-4 3FFF ....|D-2 2A.F ....
 D-4|..|D-2 2A.F ....|--- .... ....|--- .... ....
....|..|C-4 LF.7 ....|B-3 3FFA ....|B-3 4FEA ....
....|..|--- .... ....|--- .... ....|--- .... ....
 D-4|..|C-4 LF.F ....|F#3 3FF7 ....|D-2 2A.F ....
 D-4|..|D-2 2A.F ....|--- .... ....|--- .... ....
 D-4|..|C-4 LF.F ....|A-3 3FF7 ....|D-2 2A.F ....
 D-4|..|D-2 2A.F ....|--- .... ....|--- .... ....
 A-3|..|C-4 LF.F ....|B-3 3FF7 ....|A-1 2A.F ....
 A-3|..|A-1 2A.F ....|--- .... ....|--- .... ....
....|..|C-4 LF.A ....|C#4 3FF7 ....|C#4 4FE7 ....
....|..|--- .... ....|--- .... ....|--- .... ....
 A-3|..|C-4 LF.F ....|D-4 3FF7 ....|A-1 2A.F ....
 A-3|..|A-1 2A.F ....|--- .... ....|--- .... ....
....|..|C-4 LF.A ....|--- .... ....|--- .... ....
....|..|--- .... ....|--- .... ....|--- .... ....
 D-4|..|C-4 LF.F ....|--- .... ....|D-2 2A.F ....
 D-4|..|D-2 2A.F ....|--- .... ....|--- .... ....
....|..|C-4 LF.F ....|--- .... ....|D-2 2F.A ....
....|..|--- .... ....|F#4 3FFF ....|F#4 4FEF ....
 D-4|..|C-4 LF.F ....|--- .... ....|D-2 2A.F ....
 D-4|..|D-2 2A.F ....|E-4 3FFF ....|E-4 4FEF ....
 D-4|..|C-4 LF.F ....|--- .... ....|D-2 2A.F ....
 D-4|..|D-2 2A.F ....|--- .... ....|--- .... ....
 A-3|..|C-4 LF.F ....|D-4 3FFF ....|A-1 2A.F ....
 A-3|..|A-1 2A.F ....|F#4 3FFA ....|F#4 4FEA ....
....|..|C-4 LF.A ....|--- .... ....|--- .... ....
....|..|--- .... ....|C#4 3FFF ....|C#4 4FEF ....
 A-3|..|C-4 LF.F ....|--- .... ....|A-1 2A.F ....
 A-3|..|A-1 2A.F ....|B-3 3FFF ....|B-3 4FEF ....
....|..|C-4 LF.7 ....|D-4 3FFA ....|D-4 4FEA ....
....|..|--- .... ....|F#4 3FF7 ....|F#4 4FE7 ....
 D-4|..|B-8 JF.F ....|C#4 3FFF ....|D-2 2A.F ....
 D-4|..|D-2 2A.F ....|E-4 3FF7 ....|E-4 4FE7 ....
....|..|C-4 LF.7 ....|--- .... ....|D-2 2F.A ....
....|..|--- .... ....|A-3 3FFF ....|A-3 4FEF ....
 D-4|..|C-4 LF.F ....|D-4 3FF7 ....|D-2 2A.F ....
 D-4|..|D-2 2A.F ....|F#3 3FFF ....|F#3 4FEF ....
 D-4|..|C-4 LF.F ....|C#4 3FFA ....|D-2 2A.F ....
 D-4|..|D-2 2A.F ....|C#4 3FF7 ....|C#4 4FE7 ....
 A-3|..|C-4 LF.F ....|A-3 3FFF ....|A-1 2A.F ....
 A-3|..|A-1 2A.F ....|B-3 3FF7 ....|B-3 4FE7 ....
....|..|C-4 LF.A ....|--- .... ....|--- .... ....
....|..|--- .... ....|F#3 3FFA ....|F#3 4FEA ....
 A-3|..|C-4 LF.F ....|C#4 3FF7 ....|A-1 2A.F ....
 A-3|..|A-1 2A.F ....|--- .... ....|--- .... ....
....|..|C-4 LF.A ....|A-3 3FFA ....|A-3 4FEA ....
....|..|--- .... ....|A-3 3FF7 ....|A-3 4FE7 ....
 D-4|..|C-4 LF.F ....|--- .... ....|D-2 2A.F ....
 D-4|..|D-2 2A.F ....|F#3 3FF7 ....|F#3 4FE7 ....
....|..|C-4 LF.F ....|--- .... ....|D-2 2F.A ....
....|..|--- .... ....|--- .... ....|--- .... ....
 D-4|..|C-4 LF.F ....|A-3 3FF7 ....|D-2 2A.F ....
 D-4|..|D-2 2A.F ....|--- .... ....|--- .... ....
 D-4|..|C-4 LF.F ....|--- .... ....|D-2 2A.F ....
 D-4|..|D-2 2A.F ....|--- .... ....|--- .... ....
 A-3|..|C-4 LF.F ....|D-3 3FFF ....|A-1 2A.F ....
 A-3|..|A-1 2A.F ....|--- .... ....|--- .... ....
....|..|C-4 LF.A ....|--- .... ....|--- .... ....
....|..|--- .... ....|--- .... ....|--- .... ....
 G#3|..|C-4 LF.F ....|E-3 3FFF ....|G#1 2A.F ....
 G#3|..|G#1 2A.F ....|--- .... ....|--- .... ....
....|..|C-4 LF.7 ....|D-3 3FFA ....|D-3 4FEA ....
....|..|--- .... ....|--- .... ....|--- .... ....

[Pattern21]
 F#3|..|B-8 JF.F ....|F#3 3FFF ....|F#1 2A.F ....
 F#3|..|F#1 2A.F ....|--- .... ....|--- .... ....
....|..|C-4 LF.7 ....|E-3 3FFA ....|D-2 2F.A ....
....|..|--- .... ....|--- .... ....|--- .... ....
 F#3|..|C-4 LF.F ....|D-3 3FF7 ....|F#1 2A.F ....
 F#3|..|F#1 2A.F ....|--- .... ....|--- .... ....
 F#3|..|C-4 LF.F ....|F#3 3FFA ....|F#1 2A.F ....
 F#3|..|F#1 2A.F ....|--- .... ....|--- .... ....
 C#4|..|C-4 LF.F ....|E-3 3FF7 ....|C#2 2A.F ....
 C#4|..|C#2 2A.F ....|--- .... ....|--- .... ....
....|..|C-4 LF.A ....|--- .... ....|--- .... ....
....|..|--- .... ....|--- .... ....|--- .... ....
 C#4|..|C-4 LF.F ....|F#3 3FF7 ....|C#2 2A.F ....
 C#4|..|C#2 2A.F ....|--- .... ....|--- .... ....
....|..|C-4 LF.A ....|--- .... ....|D-2 2F.7 ....
....|..|--- .... ....|--- .... ....|--- .... ....
 A-3|..|C-4 LF.F ....|E-3 3FFF ....|A-1 2A.F ....
 A-3|..|A-1 2A.F ....|--- .... ....|--- .... ....
....|..|C-4 LF.F ....|--- .... ....|F#1 2F.A ....
....|..|--- .... ....|--- .... ....|--- .... ....
 A-3|..|C-4 LF.F ....|--- .... ....|A-1 2A.F ....
 A-3|..|A-1 2A.F ....|--- .... ....|--- .... ....
 A-3|..|C-4 LF.F ....|E-3 3FFA ....|A-1 2A.F ....
 A-3|..|A-1 2A.F ....|--- .... ....|--- .... ....
 E-4|..|C-4 LF.F ....|--- .... ....|E-2 2A.F ....
 E-4|..|E-2 2A.F ....|--- .... ....|--- .... ....
....|..|C-4 LF.A ....|--- .... ....|--- .... ....
....|..|--- .... ....|--- .... ....|--- .... ....
 E-4|..|C-4 LF.F ....|E-3 3FF7 ....|E-2 2A.F ....
 E-4|..|E-2 2A.F ....|--- .... ....|--- .... ....
....|..|C-4 LF.7 ....|--- .... ....|F#1 2F.7 ....
....|..|--- .... ....|--- .... ....|--- .... ....
 D-4|..|B-8 JF.F ....|E-3 3FFF ....|D-2 2A.F ....
 D-4|..|D-2 2A.F ....|--- .... ....|--- .... ....
....|..|C-4 LF.7 ....|--- .... ....|A-1 2F.A ....
....|..|--- .... ....|--- .... ....|--- .... ....
 D-4|..|C-4 LF.F ....|--- .... ....|D-2 2A.F ....
 D-4|..|D-2 2A.F ....|--- .... ....|--- .... ....
 D-4|..|C-4 LF.F ....|E-3 3FFA ....|D-2 2A.F ....
 D-4|..|D-2 2A.F ....|--- .... ....|--- .... ....
 A-3|..|C-4 LF.F ....|D-3 3FFF ....|A-1 2A.F ....
 A-3|..|A-1 2A.F ....|--- .... ....|--- .... ....
....|..|C-4 LF.A ....|--- .... ....|--- .... ....
....|..|--- .... ....|--- .... ....|--- .... ....
 A-3|..|C-4 LF.F ....|E-3 3FF7 ....|A-1 2A.F ....
 A-3|..|A-1 2A.F ....|--- .... ....|--- .... ....
....|..|C-4 LF.A ....|D-3 3FFA ....|D-3 4FEA ....
....|..|--- .... ....|--- .... ....|--- .... ....
 D-4|..|C-4 LF.F ....|--- .... ....|D-2 2A.F ....
 D-4|..|D-2 2A.F ....|--- .... ....|--- .... ....
....|..|C-4 LF.7 ....|--- .... ....|D-2 2F.A ....
....|..|--- .... ....|--- .... ....|--- .... ....
....|..|C-4 LF.F ....|D-3 3FF7 ....|E-2 2F.7 ....
....|..|R-- .... ....|--- .... ....|--- .... ....
....|..|C-4 LF.A ....|--- .... ....|--- .... ....
....|..|--- .... ....|--- .... ....|--- .... ....
....|..|C-4 LF.F ....|F#3 3FFF ....|F#3 4FEF ....
....|..|--- .... ....|--- .... ....|--- .... ....
....|..|C-4 LF.A ....|A-3 3FFF ....|A-3 4FEF ....
....|..|--- .... ....|--- .... ....|--- .... ....
....|..|C-4 LF.7 ....|B-3 3FFF ....|B-3 4FEF ....
....|..|--- .... ....|--- .... ....|--- .... ....
....|..|C-4 LF.A ....|D-4 3FFF ....|D-4 4FEF ....
....|..|--- .... ....|--- .... ....|--- .... ....

[Pattern22]
 A-3|..|B-8 JF.F ....|C#4 3FFF ....|A-1 2A.F ....
 A-3|..|A-1 2A.F ....|--- .... ....|--- .... ....
....|..|R-- .... ....|B-3 3FFA ....|B-3 4FEA ....
....|..|--- .... ....|--- .... ....|--- .... ....
 A-3|..|C-4 LF.F ....|C#4 3FFF ....|A-1 2A.F ....
 A-3|..|A-1 2A.F ....|--- .... ....|--- .... ....
 A-3|..|C-4 LF.F ....|A-3 3FFF ....|A-1 2A.F ....
 A-3|..|A-1 2A.F ....|--- .... ....|--- .... ....
 E-4|..|C-4 LF.F ....|B-3 3FFF ....|E-2 2A.F ....
 E-4|..|E-2 2A.F ....|--- .... ....|--- .... ....
....|..|C-4 LF.A ....|D-4 3FF7 ....|D-4 4FE7 ....
....|..|--- .... ....|--- .... ....|--- .... ....
 E-4|..|C-4 LF.F ....|B-3 3FFF ....|E-2 2A.F ....
 E-4|..|E-2 2A.F ....|--- .... ....|--- .... ....
....|..|C-4 LF.A ....|F#3 3FFF ....|F#3 4FEF ....
....|..|--- .... ....|--- .... ....|--- .... ....
 A-3|..|C-4 LF.F ....|A-3 3FFF ....|A-1 2A.F ....
 A-3|..|A-1 2A.F ....|--- .... ....|--- .... ....
....|..|C-4 LF.F ....|A-3 3FF7 ....|A-1 2F.A ....
....|..|--- .... ....|--- .... ....|--- .... ....
 A-3|..|C-4 LF.F ....|B-3 3FF7 ....|A-1 2A.F ....
 A-3|..|A-1 2A.F ....|--- .... ....|--- .... ....
 A-3|..|C-4 LF.F ....|A-3 3FFA ....|A-1 2A.F ....
 A-3|..|A-1 2A.F ....|--- .... ....|--- .... ....
 E-4|..|C-4 LF.F ....|D-3 3FFF ....|E-2 2A.F ....
 E-4|..|E-2 2A.F ....|--- .... ....|--- .... ....
....|..|C-4 LF.A ....|E-3 3FFF ....|E-3 4FEF ....
....|..|--- .... ....|--- .... ....|--- .... ....
 E-4|..|C-4 LF.F ....|F#3 3FFF ....|E-2 2A.F ....
 E-4|..|E-2 2A.F ....|--- .... ....|--- .... ....
....|..|C-4 LF.7 ....|G-3 3FFF ....|G-3 4FEF ....
....|..|--- .... ....|--- .... ....|--- .... ....
 D-4|..|B-8 JF.F ....|F#3 3FFF ....|D-2 2A.F ....
 D-4|..|D-2 2A.F ....|--- .... ....|--- .... ....
....|..|C-4 LF.7 ....|F#3 3FFA ....|A-1 2F.A ....
....|..|--- .... ....|--- .... ....|--- .... ....
 D-4|..|C-4 LF.F ....|D-3 3FF7 ....|D-2 2A.F ....
 D-4|..|D-2 2A.F ....|--- .... ....|--- .... ....
 D-4|..|C-4 LF.F ....|E-3 3FF7 ....|D-2 2A.F ....
 D-4|..|D-2 2A.F ....|--- .... ....|--- .... ....
 A-3|..|C-4 LF.F ....|F#3 3FF7 ....|A-2 2C.F ....
 A-3|..|A-2 2C.F ....|--- .... ....|--- .... ....
....|..|C-4 LF.A ....|G-3 3FF7 ....|G-3 4FE7 ....
....|..|--- .... ....|--- .... ....|--- .... ....
 A-3|..|C-4 LF.F ....|F#3 3FF7 ....|A-2 2C.F ....
 A-3|..|A-2 2C.F ....|--- .... ....|--- .... ....
....|..|C-4 LF.A ....|--- .... ....|A-1 2F.7 ....
....|..|--- .... ....|--- .... ....|--- .... ....
 D-4|..|C-4 LF.F ....|--- .... ....|D-2 2A.F ....
 D-4|..|D-2 2A.F ....|--- .... ....|--- .... ....
....|..|C-4 LF.F ....|--- .... ....|D-2 2F.A ....
....|..|--- .... ....|--- .... ....|--- .... ....
 D-4|..|C-4 LF.F ....|--- .... ....|D-2 2A.F ....
 D-4|..|D-2 2A.F ....|--- .... ....|--- .... ....
 D-4|..|C-4 LF.F ....|--- .... ....|D-2 2A.F ....
 D-4|..|D-2 2A.F ....|--- .... ....|--- .... ....
 A-3|..|C-4 LF.F ....|F#3 3FFF ....|A-2 2C.F ....
 A-3|..|A-2 2C.F ....|--- .... ....|--- .... ....
....|..|C-4 LF.A ....|A-3 3FFF ....|A-3 4FEF ....
....|..|--- .... ....|--- .... ....|--- .... ....
 A-3|..|C-4 LF.F ....|B-3 3FFF ....|A-2 2C.F ....
 A-3|..|A-2 2C.F ....|--- .... ....|--- .... ....
....|..|C-4 LF.7 ....|D-4 3FFF ....|D-4 4FEF ....
....|..|--- .... ....|--- .... ....|--- .... ....

[Pattern23]
 A-3|..|B-8 JF.F ....|C#4 3FFF ....|A-1 2A.F ....
 A-3|..|A-1 2A.F ....|--- .... ....|--- .... ....
....|..|C-4 LF.7 ....|B-3 3FFA ....|D-2 2F.A ....
....|..|--- .... ....|--- .... ....|--- .... ....
 A-3|..|C-4 LF.F ....|C#4 3FFF ....|A-1 2A.F ....
 A-3|..|A-1 2A.F ....|--- .... ....|--- .... ....
 A-3|..|C-4 LF.F ....|A-3 3FFF ....|A-1 2A.F ....
 A-3|..|A-1 2A.F ....|--- .... ....|--- .... ....
 E-4|..|C-4 LF.F ....|B-3 3FFF ....|E-2 2A.F ....
 E-4|..|E-2 2A.F ....|--- .... ....|--- .... ....
....|..|C-4 LF.A ....|D-4 3FF7 ....|D-4 4FE7 ....
....|..|--- .... ....|--- .... ....|--- .... ....
 E-4|..|C-4 LF.F ....|B-3 3FFF ....|E-2 2A.F ....
 E-4|..|E-2 2A.F ....|--- .... ....|--- .... ....
....|..|C-4 LF.A ....|F#3 3FFF ....|F#3 4FEF ....
....|..|--- .... ....|--- .... ....|--- .... ....
 A-3|..|C-4 LF.F ....|A-3 3FFF ....|A-1 2A.F ....
 A-3|..|A-1 2A.F ....|--- .... ....|--- .... ....
....|..|C-4 LF.F ....|A-3 3FF7 ....|A-1 2F.A ....
....|..|--- .... ....|--- .... ....|--- .... ....
 A-3|..|C-4 LF.F ....|B-3 3FF7 ....|A-1 2A.F ....
 A-3|..|A-1 2A.F ....|--- .... ....|--- .... ....
 A-3|..|C-4 LF.F ....|A-3 3FFA ....|A-1 2A.F ....
 A-3|..|A-1 2A.F ....|--- .... ....|--- .... ....
 E-4|..|C-4 LF.F ....|F#3 3FFF ....|E-2 2A.F ....
 E-4|..|E-2 2A.F ....|--- .... ....|--- .... ....
....|..|C-4 LF.A ....|A-3 3FFF ....|A-3 4FEF ....
....|..|--- .... ....|--- .... ....|--- .... ....
 E-4|..|C-4 LF.F ....|B-3 3FFF ....|E-2 2A.F ....
 E-4|..|E-2 2A.F ....|--- .... ....|--- .... ....
....|..|C-4 LF.7 ....|C#4 3FFF ....|C#4 4FEF ....
....|..|--- .... ....|--- .... ....|--- .... ....
 D-4|..|C-4 LF.F ....|D-4 3FFF ....|D-2 2A.F ....
 D-4|..|D-2 2A.F ....|--- .... ....|--- .... ....
....|..|C-4 LF.7 ....|B-3 3FFA ....|A-1 2F.A ....
....|..|--- .... ....|--- .... ....|--- .... ....
....|..|C-4 LF.F ....|F#3 3FF7 ....|E-2 2F.7 ....
....|..|R-- .... ....|--- .... ....|--- .... ....
....|..|C-4 LF.A ....|A-3 3FF7 ....|A-3 4FE7 ....
....|..|--- .... ....|--- .... ....|--- .... ....
....|..|C-4 LF.F ....|G-3 3FFF ....|G-3 4FEF ....
....|..|--- .... ....|--- .... ....|--- .... ....
....|..|C-4 LF.A ....|A#3 3FFF ....|A#3 4FEF ....
....|..|--- .... ....|--- .... ....|--- .... ....
....|..|C-4 LF.F ....|C-4 3FFF ....|C-4 4FEF ....
....|..|--- .... ....|--- .... ....|--- .... ....
....|..|C-4 LF.A ....|D-4 3FFF ....|D-4 4FEF ....
....|..|--- .... ....|--- .... ....|--- .... ....
 D#4|..|C-4 LF.F ....|D#4 3FFF ....|D#2 2A.F ....
 D#4|..|D#2 2A.F ....|--- .... ....|--- .... ....
....|..|C-4 LF.F ....|C-4 3FFA ....|C-4 4FEA ....
....|..|--- .... ....|--- .... ....|--- .... ....
....|..|C-4 LF.F ....|G-3 3FF7 ....|E-2 2F.7 ....
....|..|R-- .... ....|--- .... ....|--- .... ....
....|..|C-4 LF.F ....|A#3 3FF7 ....|A#3 4FE7 ....
....|..|--- .... ....|--- .... ....|--- .... ....
....|..|C-4 LF.F ....|F#3 3FFF ....|F#3 4FEF ....
....|..|--- .... ....|--- .... ....|--- .... ....
....|..|C-4 LF.A ....|A-3 3FFF ....|A-3 4FEF ....
....|..|--- .... ....|--- .... ....|--- .... ....
....|..|C-4 LF.F ....|B-3 3FFF ....|B-3 4FEF ....
....|..|--- .... ....|--- .... ....|--- .... ....
....|..|C-4 LF.7 ....|C#4 3FFF ....|C#4 4FEF ....
....|..|--- .... ....|--- .... ....|--- .... ....

[Pattern24]
 D-4|..|C-4 LF.F ....|D-4 3FFF ....|D-2 2A.F ....
 D-4|..|D-2 2A.F ....|--- .... ....|--- .... ....
....|..|C-4 LF.7 ....|B-3 3FFA ....|B-3 4FEA ....
....|..|--- .... ....|--- .... ....|--- .... ....
....|..|C-4 LF.F ....|F#3 3FF7 ....|F#3 4FE7 ....
....|..|R-- .... ....|--- .... ....|--- .... ....
....|..|C-4 LF.A ....|A-3 3FF7 ....|A-3 4FE7 ....
....|..|--- .... ....|--- .... ....|--- .... ....
....|..|C-4 LF.F ....|G-3 3FFF ....|G-3 4FEF ....
....|..|--- .... ....|--- .... ....|--- .... ....
....|..|C-4 LF.A ....|A#3 3FFF ....|A#3 4FEF ....
....|..|--- .... ....|--- .... ....|--- .... ....
....|..|C-4 LF.F ....|C-4 3FFF ....|C-4 4FEF ....
....|..|--- .... ....|--- .... ....|--- .... ....
....|..|C-4 LF.A ....|D-4 3FFF ....|D-4 4FEF ....
....|..|--- .... ....|--- .... ....|--- .... ....
 D#4|..|C-4 LF.F ....|D#4 3FFF ....|D#2 2A.F ....
 D#4|..|D#2 2A.F ....|--- .... ....|--- .... ....
....|..|C-4 LF.A ....|C-4 3FFA ....|C-4 4FEA ....
....|..|--- .... ....|--- .... ....|--- .... ....
....|..|R-- .... ....|G-3 3FF7 ....|G-3 4FE7 ....
....|..|--- .... ....|--- .... ....|--- .... ....
....|..|C-4 LF.A ....|A#3 3FF7 ....|A#3 4FE7 ....
....|..|--- .... ....|--- .... ....|--- .... ....
....|..|C-4 LF.7 ....|A-3 3FFF ....|A-3 4FEF ....
....|..|--- .... ....|--- .... ....|--- .... ....
....|..|R-- .... ....|D-4 3FF7 ....|D-4 4FE7 ....
....|..|--- .... ....|B-3 3FFF ....|B-3 4FEF ....
....|..|C-4 LF.7 ....|D#4 3FF7 ....|D#2 2F.A ....
....|..|--- .... ....|C#4 3FFF ....|C#4 4FEF ....
....|..|--- .... ....|A-3 3FFA ....|A-3 4FEA ....
....|..|--- .... ....|--- .... ....|--- .... ....
 D-4|..|B-8 JF.F ....|D-4 3FFF ....|D-2 2A.F ....
 D-4|..|D-2 2A.F ....|B-3 3FFA ....|B-3 4FEA ....
....|..|--- .... ....|--- .... ....|--- .... ....
 D-4|..|D-2 2A.F ....|C#4 3FFF ....|D-2 2A.F ....
....|..|C-4 LF.F ....|A-3 3FF7 ....|A-3 4FE7 ....
 D-4|..|D-2 2A.F ....|B-3 3FFF ....|D-2 2A.F ....
....|..|C-4 LF.F ....|D-4 3FFA ....|D-4 4FEA ....
....|..|--- .... ....|B-3 3FF7 ....|B-3 4FE7 ....
 A-3|..|B-8 JF.F ....|A-3 3FFF ....|A-1 2A.F ....
 A-3|..|A-1 2A.F ....|C#4 3FF7 ....|C#4 4FE7 ....
....|..|C-4 LF.A ....|--- .... ....|--- .... ....
 A-3|..|A-1 2A.F ....|B-3 3FFF ....|A-1 2A.F ....
....|..|C-4 LF.F ....|D-4 3FF7 ....|D-2 2F.A ....
 A-3|..|A-1 2A.F ....|C#4 3FFF ....|A-1 2A.F ....
....|..|C-4 LF.F ....|A-3 3FFA ....|A-3 4FEA ....
....|..|--- .... ....|C#4 3FF7 ....|D-2 2F.A ....
 D-4|..|B-8 JF.F ....|D-4 3FFF ....|D-2 2A.F ....
 D-4|..|D-2 2A.F ....|B-3 3FF7 ....|D-2 2F.A ....
....|..|C-4 LF.7 ....|--- .... ....|--- .... ....
 D-4|..|D-2 2A.F ....|C#4 3FFF ....|D-2 2A.F ....
....|..|C-4 LF.F ....|A-3 3FF7 ....|A-1 2F.A ....
 D-4|..|D-2 2A.F ....|B-3 3FFF ....|D-2 2A.F ....
....|..|C-4 LF.F ....|D-4 3FFA ....|D-4 4FEA ....
....|..|--- .... ....|B-3 3FF7 ....|A-1 2F.A ....
 A-3|..|B-8 JF.F ....|A-3 3FFF ....|A-1 2A.F ....
 A-3|..|A-1 2A.F ....|C#4 3FF7 ....|A-1 2F.A ....
....|..|C-4 LF.7 ....|--- .... ....|--- .... ....
 A-3|..|A-1 2A.F ....|B-3 3FFF ....|A-1 2A.F ....
....|..|C-4 LF.F ....|D-4 3FF7 ....|D-2 2F.A ....
 A-3|..|A-1 2A.F ....|C#4 3FFF ....|A-1 2A.F ....
....|..|C-4 LF.F ....|A-3 3FFA ....|A-3 4FEA ....
....|..|--- .... ....|C#4 3FF7 ....|D-2 2F.A ....

[Pattern25]
 D-4|..|B-8 JF.F ....|D-4 3FFF ....|D-2 2A.F ....
 D-4|..|D-2 2A.F ....|B-3 3FF7 ....|D-2 2F.A ....
....|..|C-4 LF.7 ....|--- .... ....|--- .... ....
 D-4|..|D-2 2A.F ....|C#4 3FFF ....|D-2 2A.F ....
....|..|C-4 LF.F ....|A-3 3FF7 ....|A-1 2F.A ....
 D-4|..|D-2 2A.F ....|B-3 3FFF ....|D-2 2A.F ....
....|..|C-4 LF.F ....|D-4 3FFA ....|D-4 4FEA ....
....|..|--- .... ....|B-3 3FF7 ....|A-1 2F.A ....
 A-3|..|B-8 JF.F ....|A-3 3FFF ....|A-1 2A.F ....
 A-3|..|A-1 2A.F ....|C#4 3FF7 ....|A-1 2F.A ....
....|..|C-4 LF.7 ....|--- .... ....|--- .... ....
 A-3|..|A-1 2A.F ....|B-3 3FFF ....|A-1 2A.F ....
....|..|C-4 LF.F ....|D-4 3FF7 ....|D-2 2F.A ....
 A-3|..|A-1 2A.F ....|C#4 3FFF ....|A-1 2A.F ....
....|..|C-4 LF.F ....|A-3 3FFA ....|A-3 4FEA ....
....|..|--- .... ....|C#4 3FF7 ....|D-2 2F.A ....
 D-4|..|B-8 JF.F ....|D-4 3FFF ....|D-2 2A.F ....
 D-4|..|D-2 2A.F ....|B-3 3FF7 ....|D-2 2F.A ....
....|..|C-4 LF.7 ....|--- .... ....|--- .... ....
....|..|--- .... ....|C#4 3FFA ....|C#4 4FEA ....
....|..|B-8 JF.7 ....|A-3 3FF7 ....|A-1 2F.A ....
....|..|--- .... ....|--- .... ....|A-1 2F.7 ....
....|..|B-8 JF.A ....|D-4 3FFA ....|D-4 4FEA ....
....|..|--- .... ....|B-3 3FF7 ....|A-1 2F.A ....
....|..|C-4 AF.F ....|R-- .... ....|R-- .... ....
....|..|R-- .... ....|C#4 3FF7 ....|A-1 2F.A ....
....|..|C-4 LF.7 ....|--- .... ....|--- .... ....
....|..|--- .... ....|--- .... ....|D-2 2F.7 ....
....|..|C-4 AF.F ....|D-4 3FF7 ....|D-2 2F.A ....
....|..|--- .... ....|--- .... ....|D-2 2F.7 ....
....|..|C-4 AF.F ....|R-- .... ....|R-- .... ....
....|..|--- .... ....|--- .... ....|--- .... ....
 D#4|..|C-4 AF.F ....|D#4 3FFF ....|D#2 2A.F ....
 D#4|..|D#2 2A.F ....|--- .... ....|--- .... ....
....|..|C-4 AF.A ....|--- .... ....|--- .... ....
....|..|--- .... ....|--- .... ....|A-1 2F.7 ....
 D#4|..|C-4 LF.F ....|R-- .... ....|D#2 2A.F ....
 D#4|..|D#2 2A.F ....|--- .... ....|A-1 2F.7 ....
 D#4|..|C-4 LF.F ....|D#4 3FFA ....|D#2 2A.F ....
 D#4|..|D#2 2A.F ....|--- .... ....|--- .... ....
 A#3|..|C-4 AF.F ....|--- .... ....|A#1 2A.F ....
 A#3|..|A#1 2A.F ....|--- .... ....|--- .... ....
....|..|C-4 AF.7 ....|--- .... ....|--- .... ....
....|..|--- .... ....|--- .... ....|--- .... ....
 A#3|..|C-4 AF.F ....|D#4 3FF7 ....|A#1 2A.F ....
 A#3|..|A#1 2A.F ....|--- .... ....|--- .... ....
....|..|C-4 AF.A ....|--- .... ....|--- .... ....
....|..|--- .... ....|--- .... ....|--- .... ....
 D#4|..|C-4 LF.F ....|--- .... ....|D#2 2A.F ....
 D#4|..|D#2 2A.F ....|--- .... ....|--- .... ....
....|..|C-4 LF.F ....|--- .... ....|D#2 2F.A ....
....|..|--- .... ....|--- .... ....|--- .... ....
 D#4|..|C-4 AF.F ....|--- .... ....|D#2 2A.F ....
 D#4|..|D#2 2A.F ....|--- .... ....|--- .... ....
 D#4|..|C-4 AF.F ....|--- .... ....|D#2 2A.F ....
 D#4|..|D#2 2A.F ....|--- .... ....|--- .... ....
 A#3|..|C-4 LF.F ....|A#3 3FFF ....|A#1 2A.F ....
 A#3|..|A#1 2A.F ....|--- .... ....|--- .... ....
....|..|C-4 AF.A ....|--- .... ....|--- .... ....
....|..|--- .... ....|--- .... ....|--- .... ....
 A#3|..|C-4 AF.F ....|--- .... ....|A#1 2A.F ....
 A#3|..|A#1 2A.F ....|G#3 3FFF ....|G#3 4FEF ....
....|..|C-4 LF.7 ....|A#3 3FFA ....|A#3 4FEA ....
....|..|--- .... ....|--- .... ....|--- .... ....

[Pattern26]
 D#4|..|C-4 AF.F ....|A#3 3FFF ....|D#2 2A.F ....
 D#4|..|D#2 2A.F ....|--- .... ....|--- .... ....
....|..|C-4 AF.7 ....|--- .... ....|D#2 2F.A ....
....|..|--- .... ....|G#3 3FFA ....|G#3 4FEA ....
 D#4|..|C-4 AF.F ....|A#3 3FF7 ....|D#2 2A.F ....
 D#4|..|D#2 2A.F ....|--- .... ....|--- .... ....
 D#4|..|C-4 AF.F ....|A#3 3FFA ....|D#2 2A.F ....
 D#4|..|D#2 2A.F ....|--- .... ....|--- .... ....
 A#3|..|C-4 AF.F ....|--- .... ....|A#1 2A.F ....
 A#3|..|A#1 2A.F ....|G#3 3FF7 ....|G#3 4FE7 ....
....|..|C-4 AF.A ....|--- .... ....|--- .... ....
....|..|--- .... ....|--- .... ....|--- .... ....
 A#3|..|C-4 LF.F ....|A#3 3FF7 ....|A#1 2A.F ....
 A#3|..|A#1 2A.F ....|--- .... ....|--- .... ....
....|..|C-4 AF.A ....|--- .... ....|D#2 2F.7 ....
....|..|--- .... ....|--- .... ....|--- .... ....
 D#4|..|C-4 LF.F ....|--- .... ....|D#2 2A.F ....
 D#4|..|D#2 2A.F ....|--- .... ....|--- .... ....
....|..|C-4 AF.F ....|--- .... ....|D#2 2F.A ....
....|..|--- .... ....|--- .... ....|--- .... ....
 D#4|..|C-4 AF.F ....|--- .... ....|D#2 2A.F ....
 D#4|..|D#2 2A.F ....|--- .... ....|--- .... ....
 D#4|..|C-4 LF.F ....|--- .... ....|D#2 2A.F ....
 D#4|..|D#2 2A.F ....|--- .... ....|--- .... ....
 A#3|..|C-4 LF.F ....|D#3 3FFF ....|A#1 2A.F ....
 A#3|..|A#1 2A.F ....|--- .... ....|--- .... ....
....|..|C-4 AF.A ....|--- .... ....|--- .... ....
....|..|--- .... ....|--- .... ....|--- .... ....
 A-3|..|C-4 AF.F ....|F-3 3FFF ....|A-1 2A.F ....
 A-3|..|A-1 2A.F ....|--- .... ....|--- .... ....
....|..|C-4 AF.7 ....|D#3 3FFA ....|D#3 4FEA ....
....|..|--- .... ....|--- .... ....|--- .... ....
 G-3|..|C-4 AF.F ....|G-3 3FFF ....|G-1 2A.F ....
 G-3|..|G-1 2A.F ....|--- .... ....|--- .... ....
....|..|C-4 LF.7 ....|F-3 3FFA ....|D#2 2F.A ....
....|..|--- .... ....|--- .... ....|--- .... ....
 G-3|..|C-4 LF.F ....|D#3 3FF7 ....|G-1 2A.F ....
 G-3|..|G-1 2A.F ....|--- .... ....|--- .... ....
 G-3|..|C-4 LF.F ....|G-3 3FFA ....|G-1 2A.F ....
 G-3|..|G-1 2A.F ....|--- .... ....|--- .... ....
 D-4|..|C-4 AF.F ....|F-3 3FF7 ....|D-2 2A.F ....
 D-4|..|D-2 2A.F ....|--- .... ....|--- .... ....
....|..|C-4 LF.A ....|--- .... ....|--- .... ....
....|..|--- .... ....|--- .... ....|--- .... ....
 D-4|..|C-4 AF.F ....|G-3 3FF7 ....|D-2 2A.F ....
 D-4|..|D-2 2A.F ....|--- .... ....|--- .... ....
....|..|C-4 AF.A ....|--- .... ....|D#2 2F.7 ....
....|..|--- .... ....|--- .... ....|--- .... ....
 A#3|..|C-4 LF.F ....|A#3 3FFF ....|A#1 2A.F ....
 A#3|..|A#1 2A.F ....|--- .... ....|--- .... ....
....|..|C-4 LF.F ....|--- .... ....|G-1 2F.A ....
....|..|--- .... ....|--- .... ....|--- .... ....
 A#3|..|C-4 AF.F ....|--- .... ....|A#1 2A.F ....
 A#3|..|A#1 2A.F ....|--- .... ....|--- .... ....
 A#3|..|C-4 AF.F ....|A#3 3FFA ....|A#1 2A.F ....
 A#3|..|A#1 2A.F ....|--- .... ....|--- .... ....
 F-4|..|C-4 LF.F ....|--- .... ....|F-2 2A.F ....
 F-4|..|F-2 2A.F ....|--- .... ....|--- .... ....
....|..|C-4 AF.A ....|--- .... ....|--- .... ....
....|..|--- .... ....|--- .... ....|--- .... ....
 F-4|..|C-4 AF.F ....|A#3 3FF7 ....|F-2 2A.F ....
 F-4|..|F-2 2A.F ....|--- .... ....|--- .... ....
....|..|C-4 LF.7 ....|--- .... ....|G-1 2F.7 ....
....|..|--- .... ....|--- .... ....|--- .... ....

[Pattern27]
 D#4|..|B-8 JF.F ....|G-3 3FFF ....|D#2 2A.F ....
 D#4|..|D#2 2A.F ....|--- .... ....|--- .... ....
....|..|C-4 AF.7 ....|--- .... ....|A#1 2F.A ....
....|..|--- .... ....|--- .... ....|--- .... ....
 D#4|..|C-4 AF.F ....|--- .... ....|D#2 2A.F ....
 D#4|..|D#2 2A.F ....|--- .... ....|--- .... ....
 D#4|..|C-4 AF.F ....|G-3 3FFA ....|D#2 2A.F ....
 D#4|..|D#2 2A.F ....|--- .... ....|--- .... ....
 A#3|..|C-4 AF.F ....|F-3 3FFF ....|A#1 2A.F ....
 A#3|..|A#1 2A.F ....|--- .... ....|--- .... ....
....|..|C-4 AF.A ....|--- .... ....|--- .... ....
....|..|--- .... ....|--- .... ....|--- .... ....
 A#3|..|C-4 LF.F ....|G-3 3FF7 ....|A#1 2A.F ....
 A#3|..|A#1 2A.F ....|--- .... ....|--- .... ....
....|..|C-4 AF.A ....|F-3 3FFA ....|F-3 4FEA ....
....|..|--- .... ....|--- .... ....|--- .... ....
 D#4|..|C-4 LF.F ....|--- .... ....|D#2 2A.F ....
 D#4|..|D#2 2A.F ....|--- .... ....|--- .... ....
....|..|C-4 AF.F ....|--- .... ....|D#2 2F.A ....
....|..|--- .... ....|--- .... ....|--- .... ....
 G#4|..|C-4 AF.F ....|F-3 3FF7 ....|G#2 2A.F ....
 G#4|..|G#2 2A.F ....|--- .... ....|--- .... ....
....|..|C-4 AF.F ....|--- .... ....|--- .... ....
....|..|--- .... ....|--- .... ....|--- .... ....
 G-4|..|C-4 LF.F ....|G-3 3FFF ....|G-2 2A.F ....
 G-4|..|G-2 2A.F ....|--- .... ....|--- .... ....
....|..|C-4 AF.A ....|A#3 3FFF ....|A#3 4FEF ....
....|..|--- .... ....|--- .... ....|--- .... ....
 F-4|..|C-4 AF.F ....|C-4 3FFF ....|F-2 2A.F ....
 F-4|..|F-2 2A.F ....|--- .... ....|--- .... ....
....|..|C-4 AF.7 ....|D-4 3FFF ....|D-4 4FEF ....
....|..|--- .... ....|--- .... ....|--- .... ....
 D#4|..|C-4 AF.F ....|D#4 3FFF ....|D#2 2A.F ....
 D#4|..|D#2 2A.F ....|--- .... ....|--- .... ....
....|..|C-4 AF.7 ....|C-4 3FFA ....|C-4 4FEA ....
....|..|--- .... ....|--- .... ....|--- .... ....
 D#4|..|C-4 LF.F ....|G-3 3FF7 ....|D#2 2A.F ....
 D#4|..|D#2 2A.F ....|--- .... ....|--- .... ....
 D#4|..|C-4 LF.F ....|A#3 3FF7 ....|D#2 2A.F ....
 D#4|..|D#2 2A.F ....|--- .... ....|--- .... ....
 A#3|..|C-4 AF.F ....|C-4 3FF7 ....|A#1 2A.F ....
 A#3|..|A#1 2A.F ....|--- .... ....|--- .... ....
....|..|C-4 LF.A ....|D-4 3FF7 ....|D-4 4FE7 ....
....|..|--- .... ....|--- .... ....|--- .... ....
 A#3|..|C-4 AF.F ....|D#4 3FF7 ....|A#1 2A.F ....
 A#3|..|A#1 2A.F ....|--- .... ....|--- .... ....
....|..|C-4 AF.A ....|--- .... ....|--- .... ....
....|..|--- .... ....|--- .... ....|--- .... ....
 D#4|..|C-4 LF.F ....|--- .... ....|D#2 2A.F ....
 D#4|..|D#2 2A.F ....|--- .... ....|--- .... ....
....|..|C-4 LF.F ....|--- .... ....|D#2 2F.A ....
....|..|--- .... ....|--- .... ....|--- .... ....
 D#4|..|C-4 AF.F ....|--- .... ....|D#2 2A.F ....
 D#4|..|D#2 2A.F ....|--- .... ....|--- .... ....
 D#4|..|C-4 AF.F ....|--- .... ....|D#2 2A.F ....
 D#4|..|D#2 2A.F ....|--- .... ....|--- .... ....
 A#3|..|C-4 LF.F ....|A#3 3FFF ....|A#1 2A.F ....
 A#3|..|A#1 2A.F ....|--- .... ....|--- .... ....
....|..|C-4 AF.A ....|--- .... ....|--- .... ....
....|..|--- .... ....|--- .... ....|--- .... ....
 A#3|..|C-4 AF.F ....|G#3 3FFF ....|A#1 2A.F ....
 A#3|..|A#1 2A.F ....|--- .... ....|--- .... ....
....|..|C-4 LF.7 ....|A#3 3FFA ....|A#3 4FEA ....
....|..|--- .... ....|--- .... ....|--- .... ....

[Pattern28]
 D#4|..|C-4 AF.F ....|A#3 3FFF ....|D#2 2A.F ....
 D#4|..|D#2 2A.F ....|--- .... ....|--- .... ....
....|..|C-4 AF.7 ....|G#3 3FFA ....|D#2 2F.A ....
....|..|--- .... ....|--- .... ....|--- .... ....
 D#4|..|C-4 AF.F ....|A#3 3FF7 ....|D#2 2A.F ....
 D#4|..|D#2 2A.F ....|--- .... ....|--- .... ....
 D#4|..|C-4 AF.F ....|A#3 3FFA ....|D#2 2A.F ....
 D#4|..|D#2 2A.F ....|--- .... ....|--- .... ....
 A#3|..|C-4 AF.F ....|G#3 3FF7 ....|A#1 2A.F ....
 A#3|..|A#1 2A.F ....|--- .... ....|--- .... ....
....|..|C-4 AF.A ....|--- .... ....|--- .... ....
....|..|--- .... ....|--- .... ....|--- .... ....
 A#3|..|C-4 LF.F ....|A#3 3FF7 ....|A#1 2A.F ....
 A#3|..|A#1 2A.F ....|--- .... ....|--- .... ....
....|..|C-4 AF.A ....|--- .... ....|D#2 2F.7 ....
....|..|--- .... ....|--- .... ....|--- .... ....
 D#4|..|C-4 LF.F ....|--- .... ....|D#2 2A.F ....
 D#4|..|D#2 2A.F ....|--- .... ....|--- .... ....
....|..|C-4 AF.F ....|--- .... ....|D#2 2F.A ....
....|..|--- .... ....|--- .... ....|--- .... ....
 D#4|..|C-4 AF.F ....|--- .... ....|D#2 2A.F ....
 D#4|..|D#2 2A.F ....|--- .... ....|--- .... ....
 D#4|..|C-4 LF.F ....|--- .... ....|D#2 2A.F ....
 D#4|..|D#2 2A.F ....|--- .... ....|--- .... ....
 A#3|..|C-4 LF.F ....|D#3 3FFF ....|A#1 2A.F ....
 A#3|..|A#1 2A.F ....|--- .... ....|--- .... ....
....|..|C-4 AF.A ....|--- .... ....|--- .... ....
....|..|--- .... ....|--- .... ....|--- .... ....
 A-3|..|C-4 AF.F ....|F-3 3FFF ....|A-1 2A.F ....
 A-3|..|A-1 2A.F ....|--- .... ....|--- .... ....
....|..|C-4 AF.7 ....|D#3 3FFA ....|D#3 4FEA ....
....|..|--- .... ....|--- .... ....|--- .... ....
 G-3|..|C-4 AF.F ....|G-3 3FFF ....|G-1 2A.F ....
 G-3|..|G-1 2A.F ....|--- .... ....|--- .... ....
....|..|C-4 LF.7 ....|F-3 3FFA ....|D#2 2F.A ....
....|..|--- .... ....|--- .... ....|--- .... ....
 G-3|..|C-4 LF.F ....|D#3 3FF7 ....|G-1 2A.F ....
 G-3|..|G-1 2A.F ....|--- .... ....|--- .... ....
 G-3|..|C-4 LF.F ....|G-3 3FFA ....|G-1 2A.F ....
 G-3|..|G-1 2A.F ....|--- .... ....|--- .... ....
 D-4|..|C-4 AF.F ....|F-3 3FF7 ....|D-2 2A.F ....
 D-4|..|D-2 2A.F ....|--- .... ....|--- .... ....
....|..|C-4 LF.A ....|--- .... ....|--- .... ....
....|..|--- .... ....|--- .... ....|--- .... ....
 D-4|..|C-4 AF.F ....|G-3 3FF7 ....|D-2 2A.F ....
 D-4|..|D-2 2A.F ....|--- .... ....|--- .... ....
....|..|C-4 AF.A ....|--- .... ....|D#2 2F.7 ....
....|..|--- .... ....|--- .... ....|--- .... ....
 A#3|..|C-4 LF.F ....|F-3 3FFF ....|A#1 2A.F ....
 A#3|..|A#1 2A.F ....|--- .... ....|--- .... ....
....|..|C-4 LF.F ....|--- .... ....|G-1 2F.A ....
....|..|--- .... ....|--- .... ....|--- .... ....
 A#3|..|C-4 AF.F ....|--- .... ....|A#1 2A.F ....
 A#3|..|A#1 2A.F ....|--- .... ....|--- .... ....
 A#3|..|C-4 AF.F ....|F-3 3FFA ....|A#1 2A.F ....
 A#3|..|A#1 2A.F ....|--- .... ....|--- .... ....
 F-4|..|C-4 LF.F ....|--- .... ....|F-2 2A.F ....
 F-4|..|F-2 2A.F ....|--- .... ....|--- .... ....
....|..|C-4 AF.A ....|--- .... ....|--- .... ....
....|..|--- .... ....|--- .... ....|--- .... ....
 F-4|..|C-4 AF.F ....|F-3 3FF7 ....|F-2 2A.F ....
 F-4|..|F-2 2A.F ....|--- .... ....|--- .... ....
....|..|C-4 LF.7 ....|--- .... ....|G-1 2F.7 ....
....|..|--- .... ....|--- .... ....|--- .... ....

[Pattern29]
 D#4|..|C-4 AF.F ....|F-3 3FFF ....|D#2 2A.F ....
 D#4|..|D#2 2A.F ....|--- .... ....|--- .... ....
....|..|C-4 AF.7 ....|--- .... ....|A#1 2F.A ....
....|..|--- .... ....|--- .... ....|--- .... ....
 D#4|..|C-4 LF.F ....|--- .... ....|D#2 2A.F ....
 D#4|..|D#2 2A.F ....|--- .... ....|--- .... ....
 D#4|..|C-4 LF.F ....|F-3 3FFA ....|D#2 2A.F ....
 D#4|..|D#2 2A.F ....|--- .... ....|--- .... ....
 A#3|..|C-4 LF.F ....|D#3 3FFF ....|A#1 2A.F ....
 A#3|..|A#1 2A.F ....|--- .... ....|--- .... ....
....|..|C-4 LF.A ....|--- .... ....|--- .... ....
....|..|--- .... ....|--- .... ....|--- .... ....
 A#3|..|C-4 AF.F ....|F-3 3FF7 ....|A#1 2A.F ....
 A#3|..|A#1 2A.F ....|--- .... ....|--- .... ....
....|..|C-4 LF.A ....|D#3 3FFA ....|D#3 4FEA ....
....|..|--- .... ....|--- .... ....|--- .... ....
 D#4|..|C-4 AF.F ....|--- .... ....|D#2 2A.F ....
 D#4|..|D#2 2A.F ....|--- .... ....|--- .... ....
....|..|C-4 LF.7 ....|--- .... ....|D#2 2F.A ....
....|..|--- .... ....|--- .... ....|--- .... ....
....|..|C-4 LF.F ....|D#3 3FF7 ....|F-2 2F.7 ....
....|..|R-- .... ....|--- .... ....|--- .... ....
....|..|C-4 AF.A ....|--- .... ....|--- .... ....
....|..|--- .... ....|--- .... ....|--- .... ....
....|..|C-4 LF.F ....|E-3 3FFF ....|E-3 4FEF ....
....|..|--- .... ....|--- .... ....|--- .... ....
....|..|C-4 LF.A ....|G-3 3FFF ....|G-3 4FEF ....
....|..|--- .... ....|--- .... ....|--- .... ....
....|..|C-4 AF.7 ....|A-3 3FFF ....|A-3 4FEF ....
....|..|--- .... ....|--- .... ....|--- .... ....
....|..|C-4 LF.A ....|C-4 3FFF ....|C-4 4FEF ....
....|..|--- .... ....|--- .... ....|--- .... ....
 G-3|..|B-8 JF.F ....|B-3 3FFF ....|G-1 2A.F ....
 G-3|..|G-1 2A.F ....|--- .... ....|--- .... ....
....|..|R-- .... ....|A-3 3FFA ....|A-3 4FEA ....
....|..|--- .... ....|--- .... ....|--- .... ....
 G-3|..|C-4 LF.F ....|B-3 3FFF ....|G-1 2A.F ....
 G-3|..|G-1 2A.F ....|--- .... ....|--- .... ....
 G-3|..|C-4 LF.F ....|G-3 3FFF ....|G-1 2A.F ....
 G-3|..|G-1 2A.F ....|--- .... ....|--- .... ....
 D-4|..|C-4 LF.F ....|A-3 3FFF ....|D-2 2A.F ....
 D-4|..|D-2 2A.F ....|--- .... ....|--- .... ....
....|..|C-4 LF.A ....|C-4 3FF7 ....|C-4 4FE7 ....
....|..|--- .... ....|--- .... ....|--- .... ....
 D-4|..|C-4 LF.F ....|A-3 3FFF ....|D-2 2A.F ....
 D-4|..|D-2 2A.F ....|--- .... ....|--- .... ....
....|..|C-4 LF.A ....|E-3 3FFF ....|E-3 4FEF ....
....|..|--- .... ....|--- .... ....|--- .... ....
 G-3|..|C-4 LF.F ....|G-3 3FFF ....|G-1 2A.F ....
 G-3|..|G-1 2A.F ....|--- .... ....|--- .... ....
....|..|C-4 LF.F ....|G-3 3FF7 ....|G-1 2F.A ....
....|..|--- .... ....|--- .... ....|--- .... ....
 G-3|..|C-4 LF.F ....|A-3 3FF7 ....|G-1 2A.F ....
 G-3|..|G-1 2A.F ....|--- .... ....|--- .... ....
 G-3|..|C-4 LF.F ....|G-3 3FFA ....|G-1 2A.F ....
 G-3|..|G-1 2A.F ....|--- .... ....|--- .... ....
 D-4|..|C-4 LF.F ....|C-3 3FFF ....|D-2 2A.F ....
 D-4|..|D-2 2A.F ....|--- .... ....|--- .... ....
....|..|C-4 LF.A ....|D-3 3FFF ....|D-3 4FEF ....
....|..|--- .... ....|--- .... ....|--- .... ....
 D-4|..|C-4 LF.F ....|E-3 3FFF ....|D-2 2A.F ....
 D-4|..|D-2 2A.F ....|--- .... ....|--- .... ....
....|..|C-4 LF.7 ....|F-3 3FFF ....|F-3 4FEF ....
....|..|--- .... ....|--- .... ....|--- .... ....

[Pattern30]
 C-4|..|B-8 JF.F ....|E-3 3FFF ....|C-2 2A.F ....
 C-4|..|C-2 2A.F ....|--- .... ....|--- .... ....
....|..|C-4 LF.7 ....|E-3 3FFA ....|G-1 2F.A ....
....|..|--- .... ....|--- .... ....|--- .... ....
 C-4|..|C-4 LF.F ....|C-3 3FF7 ....|C-2 2A.F ....
 C-4|..|C-2 2A.F ....|--- .... ....|--- .... ....
 C-4|..|C-4 LF.F ....|D-3 3FF7 ....|C-2 2A.F ....
 C-4|..|C-2 2A.F ....|--- .... ....|--- .... ....
 G-4|..|C-4 LF.F ....|E-3 3FF7 ....|G-2 2A.F ....
 G-4|..|G-2 2A.F ....|--- .... ....|--- .... ....
....|..|C-4 LF.A ....|F-3 3FF7 ....|F-3 4FE7 ....
....|..|--- .... ....|--- .... ....|--- .... ....
 G-4|..|C-4 LF.F ....|E-3 3FF7 ....|G-2 2A.F ....
 G-4|..|G-2 2A.F ....|--- .... ....|--- .... ....
....|..|C-4 LF.A ....|--- .... ....|G-1 2F.7 ....
....|..|--- .... ....|--- .... ....|--- .... ....
 C-4|..|C-4 LF.F ....|--- .... ....|C-2 2A.F ....
 C-4|..|C-2 2A.F ....|--- .... ....|--- .... ....
....|..|C-4 LF.F ....|--- .... ....|C-2 2F.A ....
....|..|--- .... ....|--- .... ....|--- .... ....
 C-4|..|C-4 LF.F ....|--- .... ....|C-2 2A.F ....
 C-4|..|C-2 2A.F ....|--- .... ....|--- .... ....
 C-4|..|C-4 LF.F ....|--- .... ....|C-2 2A.F ....
 C-4|..|C-2 2A.F ....|--- .... ....|--- .... ....
 G-4|..|C-4 LF.F ....|E-3 3FFF ....|G-2 2A.F ....
 G-4|..|G-2 2A.F ....|--- .... ....|--- .... ....
....|..|C-4 LF.A ....|G-3 3FFF ....|G-3 4FEF ....
....|..|--- .... ....|--- .... ....|--- .... ....
 G-4|..|C-4 LF.F ....|A-3 3FFF ....|G-2 2A.F ....
 G-4|..|G-2 2A.F ....|--- .... ....|--- .... ....
....|..|C-4 LF.7 ....|C-4 3FFF ....|C-4 4FEF ....
....|..|--- .... ....|--- .... ....|--- .... ....
 G-3|..|B-8 JF.F ....|B-3 3FFF ....|G-1 2A.F ....
 G-3|..|G-1 2A.F ....|--- .... ....|--- .... ....
....|..|C-4 LF.7 ....|A-3 3FFA ....|C-2 2F.A ....
....|..|--- .... ....|--- .... ....|--- .... ....
 G-3|..|C-4 LF.F ....|B-3 3FFF ....|G-1 2A.F ....
 G-3|..|G-1 2A.F ....|--- .... ....|--- .... ....
 G-3|..|C-4 LF.F ....|G-3 3FFF ....|G-1 2A.F ....
 G-3|..|G-1 2A.F ....|--- .... ....|--- .... ....
 D-4|..|C-4 LF.F ....|A-3 3FFF ....|D-2 2A.F ....
 D-4|..|D-2 2A.F ....|--- .... ....|--- .... ....
....|..|C-4 LF.A ....|C-4 3FF7 ....|C-4 4FE7 ....
....|..|--- .... ....|--- .... ....|--- .... ....
 D-4|..|C-4 LF.F ....|A-3 3FFF ....|D-2 2A.F ....
 D-4|..|D-2 2A.F ....|--- .... ....|--- .... ....
....|..|C-4 LF.A ....|E-3 3FFF ....|E-3 4FEF ....
....|..|--- .... ....|--- .... ....|--- .... ....
 G-3|..|C-4 LF.F ....|G-3 3FFF ....|G-1 2A.F ....
 G-3|..|G-1 2A.F ....|--- .... ....|--- .... ....
....|..|C-4 LF.F ....|G-3 3FF7 ....|G-1 2F.A ....
....|..|--- .... ....|--- .... ....|--- .... ....
 G-3|..|C-4 LF.F ....|A-3 3FF7 ....|G-1 2A.F ....
 G-3|..|G-1 2A.F ....|--- .... ....|--- .... ....
 G-3|..|C-4 LF.F ....|G-3 3FFA ....|G-1 2A.F ....
 G-3|..|G-1 2A.F ....|--- .... ....|--- .... ....
 D-4|..|C-4 LF.F ....|E-3 3FFF ....|D-2 2A.F ....
 D-4|..|D-2 2A.F ....|--- .... ....|--- .... ....
....|..|C-4 LF.A ....|G-3 3FFF ....|G-3 4FEF ....
....|..|--- .... ....|--- .... ....|--- .... ....
 C#4|..|C-4 LF.F ....|A-3 3FFF ....|C#2 2A.F ....
 C#4|..|C#2 2A.F ....|--- .... ....|--- .... ....
....|..|C-4 LF.7 ....|B-3 3FFF ....|B-3 4FEF ....
....|..|--- .... ....|--- .... ....|--- .... ....

[Pattern31]
 C-4|..|C-4 LF.F ....|C-4 3FFF ....|C-2 2A.F ....
 C-4|..|C-2 2A.F ....|--- .... ....|--- .... ....
....|..|C-4 LF.7 ....|A-3 3FFA ....|G-1 2F.A ....
....|..|--- .... ....|--- .... ....|--- .... ....
....|..|C-4 LF.7 ....|E-3 3FF7 ....|D-2 2F.7 ....
....|..|--- .... ....|--- .... ....|--- .... ....
....|..|C-4 LF.A ....|G-3 3FF7 ....|G-3 4FE7 ....
....|..|--- .... ....|--- .... ....|--- .... ....
....|..|C-4 LF.7 ....|A-3 3FF7 ....|G-1 2F.7 ....
....|..|--- .... ....|--- .... ....|--- .... ....
....|..|--- .... ....|B-3 3FF7 ....|B-3 4FE7 ....
....|..|--- .... ....|--- .... ....|--- .... ....
....|..|C-4 LF.7 ....|C-4 3FF7 ....|G-1 2F.7 ....
....|..|--- .... ....|--- .... ....|--- .... ....
....|..|--- .... ....|--- .... ....|G-1 2F.7 ....
....|..|--- .... ....|--- .... ....|--- .... ....
 G-3|..|G-1 2A.F ....|--- .... ....|G-1 2A.F ....
....|..|--- .... ....|--- .... ....|--- .... ....
....|..|--- .... ....|--- .... ....|--- .... ....
....|..|--- .... ....|--- .... ....|--- .... ....
....|..|--- .... ....|--- .... ....|C#2 2F.7 ....
....|..|--- .... ....|--- .... ....|--- .... ....
....|..|--- .... ....|--- .... ....|--- .... ....
....|..|--- .... ....|--- .... ....|--- .... ....
....|..|--- .... ....|--- .... ....|C-2 2F.7 ....
....|..|--- .... ....|--- .... ....|--- .... ....
....|..|--- .... ....|--- .... ....|--- .... ....
....|..|--- .... ....|--- .... ....|--- .... ....
....|..|--- .... ....|--- .... ....|G-1 2F.A ....
....|..|--- .... ....|--- .... ....|--- .... ....
....|..|--- .... ....|--- .... ....|--- .... ....
....|..|--- .... ....|--- .... ....|--- .... ....
 C-3|..|C-1 2A.F ....|--- .... ....|C-1 2A.F ....
....|..|--- .... ....|--- .... ....|--- .... ....
....|..|--- .... ....|--- .... ....|--- .... ....
....|..|--- .... ....|--- .... ....|--- .... ....
....|..|--- .... ....|--- .... ....|--- .... ....
....|..|--- .... ....|--- .... ....|--- .... ....
....|..|R-- .... ....|--- .... ....|--- .... ....
....|..|--- .... ....|--- .... ....|--- .... ....
....|..|--- .... ....|--- .... ....|G-1 2F.7 ....
....|..|--- .... ....|--- .... ....|--- .... ....
....|..|--- .... ....|--- .... ....|--- .... ....
....|..|--- .... ....|--- .... ....|--- .... ....
....|..|R-- .... ....|--- .... ....|C-1 2F.A ....
....|..|--- .... ....|--- .... ....|--- .... ....
....|..|--- .... ....|--- .... ....|--- .... ....
....|..|--- .... ....|--- .... ....|--- .... ....
....|..|--- .... ....|--- .... ....|--- .... ....
....|..|--- .... ....|--- .... ....|--- .... ....
....|..|--- .... ....|--- .... ....|--- .... ....
....|..|--- .... ....|--- .... ....|--- .... ....
....|..|--- .... ....|--- .... ....|--- .... ....
....|..|--- .... ....|--- .... ....|--- .... ....
....|..|--- .... ....|--- .... ....|--- .... ....
....|..|--- .... ....|--- .... ....|--- .... ....
....|..|--- .... ....|--- .... ....|C-1 2F.7 ....
....|..|--- .... ....|--- .... ....|--- .... ....
....|..|--- .... ....|--- .... ....|--- .... ....
....|..|--- .... ....|--- .... ....|--- .... ....
....|..|--- .... ....|--- .... ....|--- .... ....
....|..|--- .... ....|--- .... ....|--- .... ....
....|..|--- .... ....|--- .... ....|--- .... ....
....|..|--- .... ....|--- .... ....|--- .... ....

[Pattern32]
....|..|R-- .... ....|R-- .... ....|R-- .... ....
....|..|--- .... ....|--- .... ....|--- .... ....
....|..|--- .... ....|--- .... ....|--- .... ....
....|..|--- .... ....|--- .... ....|--- .... ....
....|..|--- .... ....|--- .... ....|--- .... ....
....|..|--- .... ....|--- .... ....|--- .... ....
....|..|--- .... ....|R-- .... ....|R-- .... ....
....|..|--- .... ....|--- .... ....|--- .... ....
....|..|--- .... ....|--- .... ....|--- .... ....
....|..|--- .... ....|--- .... ....|--- .... ....
....|..|--- .... ....|--- .... ....|--- .... ....
....|..|--- .... ....|--- .... ....|--- .... ....
