[Module]
VortexTrackerII=0
Version=3.5
Title=6me-10m+,0d+-1d+-7p+-8p+-9p+-6me+,11m+-10m+-9p+
Author=oisee ^ 4d 29.05.2010
NoteTable=4
ChipFreq=1750000
Speed=4
PlayOrder=L0,1,1,3,4,5,6,7,8,9,10,11,12,13,14,15,16,17,18,19,20,21,22,23,24,25,26,27,28,29,30,31,32,33,34,35,36,37,38,39,40,41,42,43,44,45,46,47,48,49,50,1,52,53,54,55,55,55,58


[Ornament1]
L0,3,8

[Ornament2]
L0,4,7

[Ornament3]
L0,5,12

[Ornament4]
L0,7

[Ornament5]
L0,4

[Ornament6]
L0,5,9

[Ornament7]
L0,4,7,12

[Ornament8]
L0,5

[Ornament9]
L0,4,10

[Ornament10]
L0,3,5,9

[Ornament11]
L0,3

[Ornament12]
L0,3,6,8

[Ornament13]
L0,4,9

[Ornament14]
L0,6,9

[Ornament15]
L0,7,11

[Sample1]
TnE +000_ +00_ F_
TnE +000_ +00_ F_
TnE +000_ +00_ F_
TnE +000_ +00_ D_
TnE +000_ +00_ B_
TnE +000_ +00_ B_ L

[Sample2]
TnE +000_ +00_ F_ L

[Sample3]
TnE +001_ +00_ F_
TnE +002_ +00_ F_
TnE +001_ +00_ E_
TnE +002_ +00_ E_
TnE +000_ +00_ E_ L
TnE -001_ +00_ E_
TnE -002_ +00_ E_
TnE -001_ +00_ E_
TnE +000_ +00_ E_
TnE +001_ +00_ E_
TnE +002_ +00_ E_
TnE +001_ +00_ E_

[Sample4]
TnE +002_ +00_ D_
TnE +002_ +00_ D_
TnE +002_ +00_ C_
TnE +002_ +00_ B_
TnE +002_ +00_ A_ L
TnE +002_ +00_ A_
TnE +002_ +00_ A_
TnE +002_ +00_ A_
TnE +002_ +00_ A_
TnE +002_ +00_ A_
TnE +002_ +00_ A_
TnE +002_ +00_ A_

[Sample5]
TnE +000_ +00_ F_
TnE +000_ +00_ F_
tne +000_ +00_ 0_ L

[Sample6]
TnE -001_ +00_ F_ L

[Sample7]
TnE +006_ +00_ F_ L

[Sample8]
tNe +000_ +00_ F_
tNe +000_ +00_ B_
tNe +000_ +00_ 7_
tNe +000_ +00_ 6- L

[Sample9]
TnE +080_ +00_ F_
TnE +100_ +00_ E_
TnE +180_ +00_ E_
TnE +200_ +00_ E_
TnE +240_ +00_ D_
TnE +280_ +00_ D_
TnE +2C0_ +00_ D_
TnE +300_ +00_ C_
TnE +300_ +00_ C_
TnE +340_ +00_ C_
TnE +340_ +00_ C_
TnE +380_ +00_ B_
TnE +380_ +00_ B_
TnE +400_ +00_ B_
TnE +400_ +00_ B_
TnE +480_ +00_ A_
TnE +500_ +00_ 9_
TnE +580_ +00_ 7_
TnE +600_ +00_ 4_
TnE +680_ +00_ 1_
TnE +000_ +00_ 0_ L

[Sample10]
Tne +1C0_ +00_ F_
Tne +280_ +00_ E_
Tne +380_ +00_ C_
Tne +440_ +00_ A_
Tne +480_ +00_ 8_
TnE +000_ +00_ 0_ L

[Sample11]
TNe +200_ -0A_ F_
tNe +000_ +0F_ A_
TNe +200_ -07_ E_
tNe +000_ +0E_ B- L

[Sample12]
TNE +0A0_ +05_ F_
TNE +140_ +02_ D_
TNE +140_ +02_ B_
TNE +100_ +00_ A_ L
TNE +140_ +00_ A_
TNE +200_ +00_ A-

[Sample13]
Tne +200_ +00_ F_
Tne +2C0_ +00_ F_
Tne +380_ +00_ E_
Tne +500_ +00_ C_
Tne +520_ +00_ 9_
tne +000_ +00_ 0_ L

[Sample14]
TNE -100_ +00_ F_
TNE -100_ +00_ D_
TNE -100_ +00_ A_
TNE -100_ +00_ 5_
tne +000_ +00_ 0_ L

[Sample15]
TNE -100_ +00_ 5_
TNE -100_ +00_ 8_
TNE -100_ +00_ B_
TNE -100_ +00_ F_
TNe -100_ +00_ 9- L

[Sample16]
TnE +000_ +00_ C_
TnE +000_ +00_ E_
TnE +000_ +00_ F_
TnE +000_ +00_ F_
TnE +000_ +00_ E_
TnE +000_ +00_ D_
TnE +000_ +00_ C_
TnE +000_ +00_ C_ L
TnE +001_ +00_ C_
TnE +002_ +00_ C_
TnE +003_ +00_ C_
TnE +001_ +00_ C_
TnE +000_ +00_ C_
TnE -001_ +00_ C_
TnE -002_ +00_ C_
TnE -003_ +00_ C_
TnE -001_ +00_ C_
TnE +000_ +00_ C_
TnE +000_ +00_ C_

[Sample17]
Tne +1C0_ +00_ F_
Tne +280_ +00_ D_
Tne +380_ +00_ 7_
TNE +000_ +00_ 0_ L

[Sample18]
TnE -00C_ +00_ 0_ L

[Sample19]
TNe +000_ +00_ F_
TNe +000_ +00_ C_
TNe +000_ +00_ 6_
TNe +000_ +01_ A- L

[Sample20]
TNE +140_ +00_ F_
tNE +000_ +00_ B- L

[Sample21]
tNE +000_ +00_ D_
tNE +000_ +00_ 8_
tNE +000_ +00_ 1_
TNE +000_ +00_ 0_ L

[Sample22]
TnE +000_ +00_ D_ L
TnE +000_ +00_ D_
tne +000_ +00_ 9_
tne +000_ +00_ 9_
TnE +000_ +00_ D_
TnE +000_ +00_ D_
tne +000_ +00_ 9_
tne +000_ +00_ 9_
TnE +000_ +00_ D_
TnE +000_ +00_ D_
TnE +000_ +00_ D_
TnE +000_ +00_ D_
TnE +000_ +00_ D_
TnE +000_ +00_ D_
tne +000_ +00_ 9_
tne +000_ +00_ 9_

[Sample23]
TnE +000_ +00_ F_ L
TnE +010_ +01_ F_
TnE +010_ +01_ F_
TnE +010_ +01_ F_
TnE +010_ +01_ F_
TnE +000_ +00_ F_
TnE +000_ +00_ F_
TnE -010_ -01_ F_
TnE -010_ -01_ F_
TnE -010_ -01_ F_
TnE -010_ -01_ F_
TnE +000_ +00_ F_

[Sample24]
TNe +000_ -01_ C_
TNe +000_ -01_ D_
TNe +000_ -01_ E_
TNe +000_ -01_ F_
TNe +000_ -01_ F_
TNe +000_ -01_ F_
TNe +000_ -01_ F_
TNe +000_ -01_ F_
TNe +000_ -01_ E_
TNe +000_ -01_ E_
TNe +000_ -01_ E_
TNe +000_ -01_ F_
TNe +000_ -01_ F_ L

[Sample25]
TNE +000_ +00_ F_
TNE +000_ +00_ F_ L
TNE +000_ +00_ F_
TNE +000_ +00_ F_
TNE +000_ +00_ F-

[Sample26]
tne +000_ +00_ 0_ L

[Sample27]
TnE +100_ +05_ F_
TnE +200_ +02_ A_
TnE +300_ +02_ 7_
TNE +400_ +00_ 3- L

[Sample28]
tne +000_ +00_ 0_ L

[Sample29]
tnE +000_ +00_ 0_ L

[Sample30]
TNE +000_ +00_ C+ L

[Sample31]
TNe +1C0_ +00_ F_
Tne +280_ +00_ E_
Tne +380_ +00_ C_
Tne +440_ +00_ A_
Tne +480_ +00_ 8_
TnE +000_ +00_ 0_ L

[Pattern0]
....|..|--- .... ....|--- .... ....|--- .... ....
....|..|--- .... ....|--- .... ....|--- .... ....
....|..|--- .... ....|--- .... ....|--- .... ....
....|..|--- .... ....|--- .... ....|--- .... ....
....|..|--- .... ....|--- .... ....|--- .... ....
....|..|--- .... ....|--- .... ....|--- .... ....
....|..|--- .... ....|--- .... ....|--- .... ....
....|..|--- .... ....|--- .... ....|--- .... ....
....|..|--- .... ....|--- .... ....|--- .... ....
....|..|--- .... ....|--- .... ....|--- .... ....
....|..|--- .... ....|--- .... ....|--- .... ....
....|..|--- .... ....|--- .... ....|--- .... ....
....|..|--- .... ....|--- .... ....|--- .... ....
....|..|--- .... ....|--- .... ....|--- .... ....
....|..|--- .... ....|--- .... ....|--- .... ....
....|..|--- .... ....|--- .... ....|--- .... ....
....|..|--- .... ....|--- .... ....|--- .... ....
....|..|--- .... ....|--- .... ....|--- .... ....
....|..|--- .... ....|--- .... ....|--- .... ....
....|..|--- .... ....|--- .... ....|--- .... ....
....|..|--- .... ....|--- .... ....|--- .... ....
....|..|--- .... ....|--- .... ....|--- .... ....
....|..|--- .... ....|--- .... ....|--- .... ....
....|..|--- .... ....|--- .... ....|--- .... ....
....|..|--- .... ....|--- .... ....|--- .... ....
....|..|--- .... ....|--- .... ....|--- .... ....
....|..|--- .... ....|--- .... ....|--- .... ....
....|..|--- .... ....|--- .... ....|--- .... ....
....|..|--- .... ....|--- .... ....|--- .... ....
....|..|--- .... ....|--- .... ....|--- .... ....
....|..|--- .... ....|--- .... ....|--- .... ....
....|..|--- .... ....|--- .... ....|--- .... ....
 D-4|..|D-3 2C.F ....|D-3 2C.F ....|--- .... ....
....|..|--- .... ....|--- .... ....|--- .... ....
....|..|--- .... ....|--- .... ....|--- .... ....
....|..|R-- .... ....|R-- .... ....|--- .... ....
 D-4|..|D-3 2C.F ....|D-3 2C.F ....|--- .... ....
....|..|--- .... ....|--- .... ....|--- .... ....
....|..|--- .... ....|--- .... ....|--- .... ....
....|..|R-- .... ....|R-- .... ....|--- .... ....
 D-4|..|D-3 2C.F ....|D-3 2C.F ....|--- .... ....
....|..|--- .... ....|--- .... ....|--- .... ....
....|..|--- .... ....|--- .... ....|--- .... ....
....|..|R-- .... ....|R-- .... ....|--- .... ....
 D-4|..|D-3 2C.F ....|D-3 2C.F ....|--- .... ....
....|..|R-- .... ....|R-- .... ....|--- .... ....
 D-4|..|D-3 2C.F ....|D-3 2C.F ....|--- .... ....
....|..|R-- .... ....|R-- .... ....|--- .... ....
 D-4|..|D-3 2C.F ....|D-3 2C.F ....|--- .... ....
....|..|--- .... ....|--- .... ....|--- .... ....
....|..|--- .... ....|--- .... ....|--- .... ....
....|..|R-- .... ....|R-- .... ....|--- .... ....
 A-3|..|A-2 2C.F ....|A-2 2C.F ....|--- .... ....
....|..|--- .... ....|--- .... ....|--- .... ....
....|..|R-- .... ....|R-- .... ....|--- .... ....
....|..|R-- .... ....|R-- .... ....|--- .... ....
 D-4|..|D-3 2F.7 ....|D-3 2F.7 ....|--- .... ....
....|..|R-- .... ....|R-- .... ....|--- .... ....
 D-4|..|D-3 2F.A ....|D-3 2F.A ....|--- .... ....
....|..|R-- .... ....|R-- .... ....|--- .... ....
 D-4|..|D-3 2F.7 ....|D-3 2F.7 ....|--- .... ....
....|..|--- .... ....|--- .... ....|--- .... ....
....|..|--- .... ....|--- .... ....|--- .... ....
....|..|R-- .... ....|R-- .... ....|--- .... ....

[Pattern1]
 D-4|..|D-3 2C.F ....|D-3 2C.F ....|--- .... ....
....|..|--- .... ....|--- .... ....|--- .... ....
....|..|R-- .... ....|R-- .... ....|--- .... ....
....|..|R-- .... ....|R-- .... ....|--- .... ....
 D-4|..|D-3 2C.F ....|D-3 2C.F ....|--- .... ....
....|..|R-- .... ....|R-- .... ....|--- .... ....
 D-4|..|D-3 2F.7 ....|D-3 2F.7 ....|--- .... ....
....|..|R-- .... ....|R-- .... ....|--- .... ....
 D-4|..|D-3 2C.F ....|D-3 2C.F ....|--- .... ....
....|..|--- .... ....|--- .... ....|--- .... ....
....|..|--- .... ....|--- .... ....|--- .... ....
....|..|R-- .... ....|R-- .... ....|--- .... ....
 D-4|..|D-3 2C.F ....|D-3 2C.F ....|--- .... ....
....|..|R-- .... ....|R-- .... ....|--- .... ....
 D-4|..|D-3 2C.F ....|D-3 2C.F ....|--- .... ....
....|..|R-- .... ....|R-- .... ....|--- .... ....
 D-4|..|D-3 2C.F ....|D-3 2C.F ....|--- .... ....
....|..|--- .... ....|--- .... ....|--- .... ....
....|..|--- .... ....|--- .... ....|--- .... ....
....|..|R-- .... ....|R-- .... ....|--- .... ....
 A-3|..|A-2 2C.F ....|A-2 2C.F ....|--- .... ....
....|..|--- .... ....|--- .... ....|--- .... ....
....|..|R-- .... ....|R-- .... ....|--- .... ....
....|..|R-- .... ....|R-- .... ....|--- .... ....
 D-4|..|D-3 2F.7 ....|D-5 2F3F ....|D-5 2F3F ....
....|..|R-- .... ....|R-- .... ....|--- .... ....
 D-4|..|D-3 2F.A ....|R-- .... ....|R-- .... ....
....|..|R-- .... ....|R-- .... ....|--- .... ....
 D-4|..|D-3 2F.7 ....|D-3 2F.7 ....|--- .... ....
....|..|--- .... ....|--- .... ....|--- .... ....
....|..|--- .... ....|--- .... ....|--- .... ....
....|..|R-- .... ....|R-- .... ....|--- .... ....
 D-4|..|D-3 2C.F ....|D-5 2F4F ....|D-5 2F4F ....
....|..|--- .... ....|--- .... ....|--- .... ....
....|..|R-- .... ....|R-- .... ....|--- .... ....
....|..|R-- .... ....|R-- .... ....|--- .... ....
 D-4|..|D-3 2C.F ....|D-3 2C.F ....|D-5 2F3A ....
....|..|R-- .... ....|R-- .... ....|--- .... ....
 D-4|..|D-3 2F.7 ....|D-3 2F.7 ....|R-- .... ....
....|..|R-- .... ....|R-- .... ....|--- .... ....
 D-4|..|D-3 2C.F ....|D-3 2C.F ....|--- .... ....
....|..|--- .... ....|--- .... ....|--- .... ....
....|..|--- .... ....|--- .... ....|--- .... ....
....|..|R-- .... ....|R-- .... ....|--- .... ....
 D-4|..|D-3 2C.F ....|D-3 2C.F ....|D-5 2F4A ....
....|..|R-- .... ....|R-- .... ....|--- .... ....
 D-4|..|D-3 2C.F ....|D-3 2C.F ....|--- .... ....
....|..|R-- .... ....|R-- .... ....|--- .... ....
 D-4|..|D-3 2C.F ....|D-3 2C.F ....|D-5 2F37 ....
....|..|--- .... ....|--- .... ....|--- .... ....
....|..|--- .... ....|R-- .... ....|R-- .... ....
....|..|R-- .... ....|R-- .... ....|--- .... ....
 A-3|..|A-2 2C.F ....|A-2 2C.F ....|--- .... ....
....|..|--- .... ....|--- .... ....|--- .... ....
....|..|R-- .... ....|R-- .... ....|--- .... ....
....|..|R-- .... ....|R-- .... ....|--- .... ....
 D-4|..|D-3 2F.7 ....|D-5 2F47 ....|D-5 2F47 ....
....|..|R-- .... ....|R-- .... ....|--- .... ....
 D-4|..|D-3 2F.A ....|D-3 2F.A ....|--- .... ....
....|..|R-- .... ....|R-- .... ....|--- .... ....
 D-4|..|D-3 2F.7 ....|D-3 2F.7 ....|--- .... ....
....|..|--- .... ....|--- .... ....|--- .... ....
....|..|--- .... ....|--- .... ....|--- .... ....
....|..|R-- .... ....|R-- .... ....|--- .... ....

[Pattern3]
 D-4|..|D-3 2C.F ....|D-3 2C.F ....|--- .... ....
....|..|--- .... ....|--- .... ....|--- .... ....
....|..|R-- .... ....|R-- .... ....|--- .... ....
....|..|R-- .... ....|R-- .... ....|--- .... ....
 D-4|..|D-3 2C.F ....|D-3 2C.F ....|--- .... ....
....|..|R-- .... ....|R-- .... ....|--- .... ....
 D-4|..|D-3 2F.7 ....|D-3 2F.7 ....|--- .... ....
....|..|R-- .... ....|R-- .... ....|--- .... ....
 D-4|..|D-3 2C.F ....|D-3 2C.F ....|--- .... ....
....|..|--- .... ....|--- .... ....|--- .... ....
....|..|--- .... ....|--- .... ....|--- .... ....
....|..|R-- .... ....|R-- .... ....|--- .... ....
 D-4|..|D-3 2C.F ....|D-3 2C.F ....|--- .... ....
....|..|R-- .... ....|R-- .... ....|--- .... ....
 D-4|..|D-3 2C.F ....|D-3 2C.F ....|--- .... ....
....|..|R-- .... ....|R-- .... ....|--- .... ....
 D-4|..|D-3 2C.F ....|D-3 2C.F ....|--- .... ....
....|..|--- .... ....|--- .... ....|--- .... ....
....|..|--- .... ....|--- .... ....|--- .... ....
....|..|R-- .... ....|R-- .... ....|--- .... ....
 A-3|..|A-2 2C.F ....|A-2 2C.F ....|--- .... ....
....|..|--- .... ....|--- .... ....|--- .... ....
....|..|R-- .... ....|R-- .... ....|--- .... ....
....|..|R-- .... ....|R-- .... ....|--- .... ....
 D-4|..|D-3 2F.7 ....|G-5 2F4F ....|G-5 2F4F ....
....|..|R-- .... ....|R-- .... ....|--- .... ....
 D-4|..|D-3 2F.A ....|R-- .... ....|R-- .... ....
....|..|R-- .... ....|R-- .... ....|--- .... ....
 D-4|..|D-3 2F.7 ....|D-3 2F.7 ....|--- .... ....
....|..|--- .... ....|--- .... ....|--- .... ....
....|..|--- .... ....|--- .... ....|--- .... ....
....|..|R-- .... ....|R-- .... ....|--- .... ....
 D-4|..|D-3 2C.F ....|D-5 2F4F ....|D-4 2F.F ....
....|..|--- .... ....|--- .... ....|--- .... ....
....|..|R-- .... ....|R-- .... ....|--- .... ....
....|..|R-- .... ....|R-- .... ....|--- .... ....
 D-4|..|D-3 2C.F ....|D-3 2C.F ....|G-5 2F4A ....
....|..|R-- .... ....|R-- .... ....|--- .... ....
 D-4|..|D-3 2F.7 ....|D-3 2F.7 ....|R-- .... ....
....|..|R-- .... ....|R-- .... ....|--- .... ....
 D-4|..|D-3 2C.F ....|D-3 2C.F ....|--- .... ....
....|..|--- .... ....|--- .... ....|--- .... ....
....|..|--- .... ....|--- .... ....|--- .... ....
....|..|R-- .... ....|R-- .... ....|--- .... ....
 D-4|..|D-3 2C.F ....|D-3 2C.F ....|A-4 2F.F ....
....|..|R-- .... ....|R-- .... ....|--- .... ....
 D-4|..|D-3 2C.F ....|D-3 2C.F ....|--- .... ....
....|..|R-- .... ....|R-- .... ....|--- .... ....
 D-4|..|D-3 2C.F ....|D-3 2C.F ....|G-5 2F47 ....
....|..|--- .... ....|--- .... ....|--- .... ....
....|..|--- .... ....|R-- .... ....|R-- .... ....
....|..|R-- .... ....|R-- .... ....|A-4 2F.F ....
 A-3|..|A-2 2C.F ....|A-2 2C.F ....|A-4 2F.F ....
....|..|--- .... ....|--- .... ....|--- .... ....
....|..|R-- .... ....|R-- .... ....|--- .... ....
....|..|R-- .... ....|R-- .... ....|--- .... ....
 D-4|..|D-3 2F.7 ....|D-5 2F47 ....|F#4 2F.F ....
....|..|R-- .... ....|R-- .... ....|--- .... ....
 D-4|..|D-3 2F.A ....|D-3 2F.A ....|--- .... ....
....|..|R-- .... ....|R-- .... ....|F#4 2F.F ....
 D-4|..|D-3 2F.7 ....|D-3 2F.7 ....|F#4 2F.F ....
....|..|--- .... ....|--- .... ....|--- .... ....
....|..|--- .... ....|--- .... ....|--- .... ....
....|..|R-- .... ....|R-- .... ....|A-4 2F.A ....

[Pattern4]
 D-4|..|D-3 2C.F ....|D-3 2C.F ....|E-4 2F.F ....
....|..|--- .... ....|--- .... ....|--- .... ....
....|..|R-- .... ....|R-- .... ....|--- .... ....
....|..|R-- .... ....|R-- .... ....|--- .... ....
 D-4|..|D-3 2C.F ....|D-3 2C.F ....|C#5 2F.F ....
....|..|R-- .... ....|R-- .... ....|--- .... ....
 D-4|..|D-3 2F.7 ....|D-3 2F.7 ....|--- .... ....
....|..|R-- .... ....|R-- .... ....|C#5 2F.F ....
 D-4|..|D-3 2C.F ....|D-3 2C.F ....|C#5 2F.F ....
....|..|--- .... ....|--- .... ....|--- .... ....
....|..|--- .... ....|--- .... ....|--- .... ....
....|..|R-- .... ....|R-- .... ....|A-4 2F.7 ....
 D-4|..|D-3 2C.F ....|D-3 2C.F ....|A-4 2F.F ....
....|..|R-- .... ....|R-- .... ....|--- .... ....
 D-4|..|D-3 2C.F ....|D-3 2C.F ....|--- .... ....
....|..|R-- .... ....|R-- .... ....|--- .... ....
 D-4|..|D-3 2C.F ....|D-3 2C.F ....|F#4 2F.7 ....
....|..|--- .... ....|--- .... ....|--- .... ....
....|..|--- .... ....|--- .... ....|--- .... ....
....|..|R-- .... ....|R-- .... ....|A-4 2F.F ....
 A-3|..|A-2 2C.F ....|A-2 2C.F ....|A-4 2F.F ....
....|..|--- .... ....|--- .... ....|--- .... ....
....|..|R-- .... ....|R-- .... ....|--- .... ....
....|..|R-- .... ....|R-- .... ....|--- .... ....
 D-4|..|D-3 2F.7 ....|D-3 2F.7 ....|E-4 2F.F ....
....|..|R-- .... ....|R-- .... ....|--- .... ....
 D-4|..|D-3 2F.A ....|D-3 2F.A ....|--- .... ....
....|..|R-- .... ....|R-- .... ....|E-4 2F.F ....
 D-4|..|D-3 2F.7 ....|D-3 2F.7 ....|E-4 2F.F ....
....|..|--- .... ....|--- .... ....|--- .... ....
....|..|--- .... ....|--- .... ....|--- .... ....
....|..|R-- .... ....|R-- .... ....|C#5 2F.7 ....
 D-4|..|D-3 2C.F ....|D-3 2C.F ....|E-4 2F.F ....
....|..|--- .... ....|--- .... ....|--- .... ....
....|..|R-- .... ....|R-- .... ....|--- .... ....
....|..|R-- .... ....|R-- .... ....|--- .... ....
 D-4|..|D-3 2C.F ....|D-3 2C.F ....|B-4 2F.F ....
....|..|R-- .... ....|R-- .... ....|--- .... ....
 D-4|..|D-3 2F.7 ....|D-3 2F.7 ....|--- .... ....
....|..|R-- .... ....|R-- .... ....|B-4 2F.F ....
 D-4|..|D-3 2C.F ....|D-3 2C.F ....|B-4 2F.F ....
....|..|--- .... ....|--- .... ....|--- .... ....
....|..|--- .... ....|--- .... ....|--- .... ....
....|..|R-- .... ....|R-- .... ....|A-4 2F.7 ....
 D-4|..|D-3 2C.F ....|D-3 2C.F ....|G-4 2F.F ....
....|..|R-- .... ....|R-- .... ....|--- .... ....
 D-4|..|D-3 2C.F ....|D-3 2C.F ....|--- .... ....
....|..|R-- .... ....|R-- .... ....|G-4 2F.F ....
 D-4|..|D-3 2C.F ....|D-3 2C.F ....|G-4 2F.F ....
....|..|--- .... ....|--- .... ....|--- .... ....
....|..|--- .... ....|--- .... ....|--- .... ....
....|..|R-- .... ....|R-- .... ....|G-4 2F.F ....
 A-3|..|A-2 2C.F ....|A-2 2C.F ....|G-4 2F.F ....
....|..|--- .... ....|--- .... ....|--- .... ....
....|..|R-- .... ....|R-- .... ....|--- .... ....
....|..|R-- .... ....|R-- .... ....|G-4 2F.F ....
 D-4|..|D-3 2F.7 ....|D-3 2F.7 ....|G-4 2F.F ....
....|..|R-- .... ....|R-- .... ....|--- .... ....
 D-4|..|D-3 2F.A ....|D-3 2F.A ....|--- .... ....
....|..|R-- .... ....|R-- .... ....|G-4 2F.F ....
 D-4|..|D-3 2F.7 ....|D-3 2F.7 ....|G-4 2F.F ....
....|..|--- .... ....|--- .... ....|--- .... ....
....|..|--- .... ....|--- .... ....|--- .... ....
....|..|R-- .... ....|R-- .... ....|G-4 2F.F ....

[Pattern5]
 D-4|..|D-3 2C.F ....|D-3 2C.F ....|C#4 2F.F ....
....|..|--- .... ....|--- .... ....|--- .... ....
....|..|R-- .... ....|R-- .... ....|--- .... ....
....|..|R-- .... ....|R-- .... ....|G-4 2F.A ....
 D-4|..|D-3 2C.F ....|D-3 2C.F ....|A-4 2F.F ....
....|..|R-- .... ....|R-- .... ....|--- .... ....
 D-4|..|D-3 2F.7 ....|D-3 2F.7 ....|--- .... ....
....|..|R-- .... ....|R-- .... ....|A-4 2F.F ....
 D-4|..|D-3 2C.F ....|D-3 2C.F ....|A-4 2F.F ....
....|..|--- .... ....|--- .... ....|--- .... ....
....|..|--- .... ....|--- .... ....|--- .... ....
....|..|R-- .... ....|R-- .... ....|G-4 2F.7 ....
 D-4|..|D-3 2C.F ....|D-3 2C.F ....|E-4 2F.F ....
....|..|R-- .... ....|R-- .... ....|--- .... ....
 D-4|..|D-3 2C.F ....|D-3 2C.F ....|--- .... ....
....|..|R-- .... ....|R-- .... ....|E-4 2F.F ....
 D-4|..|D-3 2C.F ....|D-3 2C.F ....|E-4 2F.F ....
....|..|--- .... ....|--- .... ....|--- .... ....
....|..|--- .... ....|--- .... ....|--- .... ....
....|..|R-- .... ....|R-- .... ....|G-4 2F.7 ....
 A-3|..|A-2 2C.F ....|A-2 2C.F ....|E-4 2F.F ....
....|..|--- .... ....|--- .... ....|--- .... ....
....|..|R-- .... ....|R-- .... ....|--- .... ....
....|..|R-- .... ....|R-- .... ....|G-4 2F.7 ....
 D-4|..|D-3 2F.7 ....|G-5 2F4F ....|E-4 2F.F ....
....|..|R-- .... ....|R-- .... ....|--- .... ....
 D-4|..|D-3 2F.A ....|R-- .... ....|R-- .... ....
....|..|R-- .... ....|R-- .... ....|E-4 2F.A ....
 D-4|..|D-3 2F.7 ....|D-3 2F.7 ....|A-4 2F.F ....
....|..|--- .... ....|--- .... ....|--- .... ....
....|..|--- .... ....|--- .... ....|--- .... ....
....|..|R-- .... ....|R-- .... ....|A-4 2F.7 ....
 D-4|..|D-3 2C.F ....|D-5 2F4F ....|A-4 2F.F ....
....|..|--- .... ....|--- .... ....|--- .... ....
....|..|R-- .... ....|R-- .... ....|--- .... ....
....|..|R-- .... ....|R-- .... ....|A-4 2F.F ....
 D-4|..|D-3 2C.F ....|D-3 2C.F ....|A-4 2F.F ....
....|..|R-- .... ....|R-- .... ....|--- .... ....
 D-4|..|D-3 2F.7 ....|D-3 2F.7 ....|R-- .... ....
....|..|D-3 2F.F ....|R-- .... ....|A-4 2F.F ....
 D-4|..|D-3 2C.F ....|D-3 2C.F ....|A-4 2F.F ....
....|..|--- .... ....|--- .... ....|--- .... ....
....|..|--- .... ....|--- .... ....|--- .... ....
....|..|R-- .... ....|R-- .... ....|F#4 2F.F ....
 D-4|..|D-3 2C.F ....|D-3 2C.F ....|A-4 2F.F ....
....|..|R-- .... ....|R-- .... ....|--- .... ....
 D-4|..|D-3 2C.F ....|D-3 2C.F ....|--- .... ....
....|..|R-- .... ....|R-- .... ....|A-4 2F.A ....
 D-4|..|D-3 2C.F ....|D-3 2C.F ....|E-4 2F.7 ....
....|..|--- .... ....|--- .... ....|--- .... ....
....|..|--- .... ....|R-- .... ....|R-- .... ....
....|..|R-- .... ....|R-- .... ....|A-4 2F.F ....
 A-3|..|A-2 2C.F ....|A-2 2C.F ....|A-4 2F.F ....
....|..|--- .... ....|--- .... ....|--- .... ....
....|..|R-- .... ....|R-- .... ....|--- .... ....
....|..|A-4 2F.F ....|R-- .... ....|A-4 2F.F ....
....|..|F#4 2F.F ....|D-5 2F47 ....|F#4 2F.F ....
....|..|R-- .... ....|R-- .... ....|--- .... ....
 D-4|..|D-3 2F.A ....|D-3 2F.A ....|--- .... ....
....|..|F#4 2F.F ....|R-- .... ....|F#4 2F.F ....
 D-4|..|F#4 2F.F ....|D-3 2F.7 ....|F#4 2F.F ....
....|..|--- .... ....|--- .... ....|--- .... ....
....|..|--- .... ....|--- .... ....|--- .... ....
....|..|D-4 2F.F ....|R-- .... ....|D-4 2F.F ....

[Pattern6]
 D-4|..|D-3 2C.F ....|D-3 2C.F ....|E-4 2F.F ....
....|..|--- .... ....|--- .... ....|--- .... ....
....|..|R-- .... ....|R-- .... ....|--- .... ....
....|..|R-- .... ....|R-- .... ....|F#4 2F.7 ....
 D-4|..|D-3 2C.F ....|D-3 2C.F ....|C#5 2F.F ....
....|..|R-- .... ....|R-- .... ....|--- .... ....
 D-4|..|D-3 2F.7 ....|D-3 2F.7 ....|--- .... ....
....|..|C#5 2F.F ....|R-- .... ....|C#5 2F.F ....
 D-4|..|D-3 2C.F ....|D-3 2C.F ....|C#5 2F.F ....
....|..|--- .... ....|--- .... ....|--- .... ....
....|..|--- .... ....|--- .... ....|--- .... ....
....|..|R-- .... ....|R-- .... ....|A-4 2F.7 ....
 D-4|..|D-3 2C.F ....|D-3 2C.F ....|A-4 2F.F ....
....|..|R-- .... ....|R-- .... ....|--- .... ....
 D-4|..|D-3 2C.F ....|D-3 2C.F ....|--- .... ....
....|..|A-4 2F.7 ....|R-- .... ....|A-4 2F.7 ....
 D-4|..|D-3 2C.F ....|D-3 2C.F ....|F#4 2F.7 ....
....|..|--- .... ....|--- .... ....|--- .... ....
....|..|--- .... ....|--- .... ....|--- .... ....
....|..|A-4 2F.F ....|R-- .... ....|A-4 2F.F ....
 A-3|..|A-2 2C.F ....|A-2 2C.F ....|A-4 2F.F ....
....|..|--- .... ....|--- .... ....|--- .... ....
....|..|R-- .... ....|R-- .... ....|--- .... ....
....|..|D-4 2F.7 ....|R-- .... ....|D-4 2F.7 ....
 D-4|..|E-4 2F.F ....|D-3 2F.7 ....|E-4 2F.F ....
....|..|R-- .... ....|R-- .... ....|--- .... ....
 D-4|..|D-3 2F.A ....|D-3 2F.A ....|--- .... ....
....|..|E-4 2F.F ....|R-- .... ....|E-4 2F.F ....
 D-4|..|E-4 2F.F ....|D-3 2F.7 ....|E-4 2F.F ....
....|..|--- .... ....|--- .... ....|--- .... ....
....|..|--- .... ....|--- .... ....|--- .... ....
....|..|C#5 2F.7 ....|R-- .... ....|E-4 2F.F ....
 D-4|..|D-3 2C.F ....|D-3 2C.F ....|E-4 2F.F ....
....|..|--- .... ....|--- .... ....|--- .... ....
....|..|R-- .... ....|R-- .... ....|--- .... ....
....|..|R-- .... ....|R-- .... ....|--- .... ....
 D-4|..|D-3 2C.F ....|D-3 2C.F ....|B-4 2F.F ....
....|..|R-- .... ....|R-- .... ....|--- .... ....
 D-4|..|D-3 2F.7 ....|D-3 2F.7 ....|--- .... ....
....|..|B-4 2F.F ....|R-- .... ....|B-4 2F.F ....
 D-4|..|D-3 2C.F ....|D-3 2C.F ....|B-4 2F.F ....
....|..|--- .... ....|--- .... ....|--- .... ....
....|..|--- .... ....|--- .... ....|--- .... ....
....|..|A-4 2F.7 ....|R-- .... ....|A-4 2F.7 ....
 D-4|..|D-3 2C.F ....|D-3 2C.F ....|G-4 2F.F ....
....|..|R-- .... ....|R-- .... ....|--- .... ....
 D-4|..|D-3 2C.F ....|D-3 2C.F ....|--- .... ....
....|..|R-- .... ....|R-- .... ....|G-4 2F.F ....
 D-4|..|D-3 2C.F ....|D-3 2C.F ....|G-4 2F.F ....
....|..|--- .... ....|--- .... ....|--- .... ....
....|..|--- .... ....|--- .... ....|--- .... ....
....|..|G-4 2F.F ....|R-- .... ....|G-4 2F.F ....
 A-3|..|A-2 2C.F ....|A-2 2C.F ....|G-4 2F.F ....
....|..|--- .... ....|--- .... ....|--- .... ....
....|..|R-- .... ....|R-- .... ....|--- .... ....
....|..|R-- .... ....|R-- .... ....|G-4 2F.F ....
 D-4|..|D-4 2F.F ....|D-3 2F.7 ....|G-4 2F.F ....
....|..|R-- .... ....|R-- .... ....|--- .... ....
 D-4|..|D-3 2F.A ....|D-3 2F.A ....|--- .... ....
....|..|D-4 2F.F ....|R-- .... ....|G-4 2F.F ....
 D-4|..|D-4 2F.F ....|D-3 2F.7 ....|G-4 2F.F ....
....|..|--- .... ....|--- .... ....|--- .... ....
....|..|--- .... ....|--- .... ....|--- .... ....
....|..|B-4 2F.7 ....|R-- .... ....|G-4 2F.F ....

[Pattern7]
 D-4|..|D-3 2C.F ....|D-3 2C.F ....|C#4 2F.F ....
....|..|--- .... ....|--- .... ....|--- .... ....
....|..|R-- .... ....|R-- .... ....|--- .... ....
....|..|R-- .... ....|R-- .... ....|G-4 2F.A ....
 D-4|..|D-3 2C.F ....|D-3 2C.F ....|A-4 2F.F ....
....|..|R-- .... ....|R-- .... ....|--- .... ....
 D-4|..|D-3 2F.7 ....|D-3 2F.7 ....|--- .... ....
....|..|R-- .... ....|R-- .... ....|A-4 2F.F ....
 D-4|..|D-3 2C.F ....|D-3 2C.F ....|A-4 2F.F ....
....|..|--- .... ....|--- .... ....|--- .... ....
....|..|--- .... ....|--- .... ....|--- .... ....
....|..|G-4 2F.7 ....|R-- .... ....|G-4 2F.7 ....
 D-4|..|D-3 2C.F ....|D-3 2C.F ....|E-4 2F.F ....
....|..|R-- .... ....|R-- .... ....|--- .... ....
 D-4|..|D-3 2C.F ....|D-3 2C.F ....|--- .... ....
....|..|R-- .... ....|R-- .... ....|E-4 2F.F ....
 D-4|..|D-3 2C.F ....|D-3 2C.F ....|E-4 2F.F ....
....|..|--- .... ....|--- .... ....|--- .... ....
....|..|--- .... ....|--- .... ....|--- .... ....
....|..|D-4 2F.7 ....|R-- .... ....|G-4 2F.7 ....
 A-3|..|A-2 2C.F ....|A-2 2C.F ....|E-4 2F.F ....
....|..|--- .... ....|--- .... ....|--- .... ....
....|..|R-- .... ....|R-- .... ....|--- .... ....
....|..|R-- .... ....|R-- .... ....|G-4 2F.7 ....
....|..|B-3 2F.F ....|C-4 CF.F ....|E-4 2F.F ....
....|..|R-- .... ....|R-- .... ....|--- .... ....
 D-4|..|D-3 2F.A ....|R-- .... ....|R-- .... ....
....|..|R-- .... ....|R-- .... ....|E-4 2F.A ....
 D-4|..|A-3 2F.F ....|D-3 2F.7 ....|A-4 2F.F ....
....|..|--- .... ....|--- .... ....|--- .... ....
....|..|--- .... ....|--- .... ....|--- .... ....
....|..|R-- .... ....|R-- .... ....|A-4 2F.7 ....
 D-4|..|D-3 2C.F ....|C-4 AF.F ....|A-4 2F.F ....
....|..|--- .... ....|--- .... ....|--- .... ....
....|..|R-- .... ....|D-5 2F4F ....|D-5 2F4F ....
....|..|R-- .... ....|R-- .... ....|A-4 2F.F ....
 D-4|..|D-3 2C.F ....|D-4 2F5F ....|A-4 2F.F ....
....|..|R-- .... ....|R-- .... ....|--- .... ....
 D-4|..|D-3 2F.7 ....|D-5 2F4F ....|D-5 2F4F ....
....|..|D-3 2F.F ....|R-- .... ....|A-4 2F.F ....
 D-4|..|D-3 2C.F ....|C-4 CF.F ....|A-4 2F.F ....
....|..|--- .... ....|--- .... ....|--- .... ....
....|..|--- .... ....|D-5 2F4F ....|D-5 2F4F ....
....|..|R-- .... ....|R-- .... ....|F#4 2F.F ....
 D-4|..|D-3 2C.F ....|D-4 2F5F ....|A-4 2F.F ....
....|..|R-- .... ....|R-- .... ....|--- .... ....
 D-4|..|D-3 2C.F ....|D-5 2F4F ....|D-5 2F4F ....
....|..|R-- .... ....|R-- .... ....|A-4 2F.A ....
 D-4|..|D-3 2C.F ....|D-4 2F5F ....|D-4 2F5F ....
....|..|--- .... ....|--- .... ....|--- .... ....
....|..|--- .... ....|R-- .... ....|R-- .... ....
....|..|R-- .... ....|D-5 2F4F ....|A-4 2F.F ....
 A-3|..|A-2 2C.F ....|C-4 AF.F ....|A-4 2F.F ....
....|..|--- .... ....|--- .... ....|--- .... ....
....|..|R-- .... ....|R-- .... ....|D-5 2F4A ....
....|..|A-4 2F.F ....|D-5 2F4F ....|A-4 2F.F ....
....|..|F#4 2F.F ....|C-4 CF.F ....|F#4 2F.F ....
....|..|R-- .... ....|R-- .... ....|--- .... ....
 D-4|..|D-3 2F.A ....|D-5 2F47 ....|D-5 2F47 ....
....|..|F#4 2F.F ....|R-- .... ....|F#4 2F.F ....
....|..|F#4 2F.F ....|A-3 2F6F ....|F#4 2F.F ....
....|..|--- .... ....|--- .... ....|--- .... ....
....|..|--- .... ....|D-5 2F47 ....|D-5 2F47 ....
....|..|D-4 2F.F ....|R-- .... ....|D-4 2F.F ....

[Pattern8]
 D-4|..|D-3 2C.F ....|C-4 AF.F ....|E-4 2F.F ....
....|..|--- .... ....|--- .... ....|--- .... ....
....|..|R-- .... ....|D-5 2F47 ....|D-5 2F47 ....
....|..|R-- .... ....|R-- .... ....|F#4 2F.7 ....
 D-4|..|D-3 2C.F ....|A-3 2F2F ....|C#5 2F.F ....
....|..|R-- .... ....|R-- .... ....|--- .... ....
 D-4|..|D-3 2F.7 ....|D-5 2F47 ....|D-5 2F47 ....
....|..|C#5 2F.F ....|R-- .... ....|C#5 2F.F ....
 D-4|..|D-3 2C.F ....|C-4 CF.F ....|C#5 2F.F ....
....|..|--- .... ....|--- .... ....|--- .... ....
....|..|--- .... ....|--- .... ....|--- .... ....
....|..|R-- .... ....|D-5 2F47 ....|A-4 2F.7 ....
 D-4|..|D-3 2C.F ....|A-3 2F2F ....|A-4 2F.F ....
....|..|R-- .... ....|R-- .... ....|--- .... ....
 D-4|..|D-3 2C.F ....|D-3 2C.F ....|--- .... ....
....|..|A-4 2F.7 ....|D-5 2F47 ....|A-4 2F.7 ....
 D-4|..|D-3 2C.F ....|A-3 2F2F ....|A-3 2F2F ....
....|..|--- .... ....|--- .... ....|--- .... ....
....|..|--- .... ....|--- .... ....|--- .... ....
....|..|A-4 2F.F ....|R-- .... ....|A-4 2F.F ....
 A-3|..|A-2 2C.F ....|C-4 AF.F ....|A-4 2F.F ....
....|..|--- .... ....|--- .... ....|--- .... ....
....|..|R-- .... ....|R-- .... ....|--- .... ....
....|..|D-4 2F.7 ....|R-- .... ....|D-4 2F.7 ....
....|..|E-4 2F.F ....|C-4 CF.F ....|E-4 2F.F ....
....|..|R-- .... ....|R-- .... ....|--- .... ....
 D-4|..|D-3 2F.A ....|D-3 2F.A ....|--- .... ....
....|..|E-4 2F.F ....|R-- .... ....|E-4 2F.F ....
....|..|E-4 2F.F ....|C-4 AF.F ....|E-4 2F.F ....
....|..|--- .... ....|--- .... ....|--- .... ....
....|..|--- .... ....|--- .... ....|--- .... ....
....|..|C#5 2F.7 ....|R-- .... ....|E-4 2F.F ....
 D-4|..|D-3 2C.F ....|C-4 AF.F ....|E-4 2F.F ....
....|..|--- .... ....|--- .... ....|--- .... ....
....|..|R-- .... ....|R-- .... ....|--- .... ....
....|..|R-- .... ....|R-- .... ....|R-- .... ....
 D-4|..|D-3 2C.F ....|G-3 2F2F ....|B-4 2F.F ....
....|..|R-- .... ....|R-- .... ....|--- .... ....
 D-4|..|D-3 2F.7 ....|D-3 2F.7 ....|--- .... ....
....|..|B-4 2F.F ....|R-- .... ....|B-4 2F.F ....
 D-4|..|D-3 2C.F ....|C-4 CF.F ....|B-4 2F.F ....
....|..|--- .... ....|--- .... ....|--- .... ....
....|..|--- .... ....|--- .... ....|--- .... ....
....|..|A-4 2F.7 ....|R-- .... ....|A-4 2F.7 ....
 D-4|..|D-3 2C.F ....|G-3 2F2F ....|G-4 2F.F ....
....|..|R-- .... ....|R-- .... ....|--- .... ....
 D-4|..|D-3 2C.F ....|D-3 2C.F ....|--- .... ....
....|..|R-- .... ....|R-- .... ....|G-4 2F.F ....
 D-4|..|D-3 2C.F ....|G-3 2F2F ....|G-4 2F.F ....
....|..|--- .... ....|--- .... ....|--- .... ....
....|..|--- .... ....|--- .... ....|--- .... ....
....|..|G-4 2F.F ....|R-- .... ....|G-4 2F.F ....
 A-3|..|A-2 2C.F ....|C-4 AF.F ....|G-4 2F.F ....
....|..|--- .... ....|--- .... ....|--- .... ....
....|..|R-- .... ....|R-- .... ....|--- .... ....
....|..|R-- .... ....|R-- .... ....|G-4 2F.F ....
....|..|D-4 2F.F ....|C-4 CF.F ....|G-4 2F.F ....
....|..|R-- .... ....|R-- .... ....|--- .... ....
 D-4|..|D-3 2F.A ....|D-3 2F.A ....|--- .... ....
....|..|D-4 2F.F ....|R-- .... ....|G-4 2F.F ....
....|..|D-4 2F.F ....|G-3 2F2F ....|G-4 2F.F ....
....|..|--- .... ....|--- .... ....|--- .... ....
....|..|--- .... ....|--- .... ....|--- .... ....
....|..|B-4 2F.7 ....|R-- .... ....|G-4 2F.F ....

[Pattern9]
 D-4|..|D-3 2C.F ....|C-4 AF.F ....|C#4 2F.F ....
....|..|--- .... ....|--- .... ....|--- .... ....
....|..|R-- .... ....|R-- .... ....|--- .... ....
....|..|R-- .... ....|R-- .... ....|R-- .... ....
 D-4|..|D-3 2C.F ....|A-3 2F2F ....|A-4 2F.F ....
....|..|R-- .... ....|R-- .... ....|--- .... ....
 D-4|..|D-3 2F.7 ....|D-3 2F.7 ....|--- .... ....
....|..|R-- .... ....|R-- .... ....|A-4 2F.F ....
 D-4|..|D-3 2C.F ....|C-4 CF.F ....|A-4 2F.F ....
....|..|--- .... ....|--- .... ....|--- .... ....
....|..|--- .... ....|--- .... ....|--- .... ....
....|..|G-4 2F.7 ....|R-- .... ....|G-4 2F.7 ....
 D-4|..|D-3 2C.F ....|A-3 2F2F ....|E-4 2F.F ....
....|..|R-- .... ....|R-- .... ....|--- .... ....
 D-4|..|D-3 2C.F ....|D-3 2C.F ....|--- .... ....
....|..|R-- .... ....|R-- .... ....|E-4 2F.F ....
 D-4|..|D-3 2C.F ....|A-3 2F2F ....|E-4 2F.F ....
....|..|--- .... ....|--- .... ....|--- .... ....
....|..|--- .... ....|--- .... ....|--- .... ....
....|..|D-4 2F.7 ....|R-- .... ....|G-4 2F.7 ....
....|..|C#4 2F.F ....|C-4 AF.F ....|E-4 2F.F ....
....|..|--- .... ....|--- .... ....|--- .... ....
....|..|--- .... ....|--- .... ....|--- .... ....
....|..|R-- .... ....|R-- .... ....|G-4 2F.7 ....
 A-3|..|A-2 2C.F ....|C-4 CF.F ....|E-4 2F.F ....
....|..|R-- .... ....|R-- .... ....|--- .... ....
 D-4|..|D-3 2F.A ....|A-3 2F2F ....|A-3 2F2F ....
....|..|R-- .... ....|R-- .... ....|R-- .... ....
....|..|A-3 2F.F ....|C-4 AF.F ....|A-4 2F.F ....
....|..|--- .... ....|--- .... ....|--- .... ....
....|..|--- .... ....|--- .... ....|--- .... ....
....|..|R-- .... ....|R-- .... ....|A-4 2F.7 ....
 D-4|..|D-2 2A.F ....|C-4 AF.F ....|A-4 2F.F ....
....|..|--- .... ....|--- .... ....|--- .... ....
....|..|--- .... ....|--- .... ....|--- .... ....
....|..|R-- .... ....|D-5 2F4F ....|A-4 2F.F ....
 D-4|..|D-2 2A.F ....|D-4 2F5F ....|A-4 2F.F ....
....|..|R-- .... ....|R-- .... ....|--- .... ....
 D-4|..|D-3 2F.7 ....|D-3 2F.7 ....|A-3 2F2A ....
....|..|D-3 2F.F ....|D-5 2F4F ....|A-4 2F.F ....
 D-4|..|D-2 2A.F ....|C-4 CF.F ....|A-4 2F.F ....
....|..|--- .... ....|--- .... ....|--- .... ....
....|..|--- .... ....|--- .... ....|--- .... ....
....|..|R-- .... ....|D-5 2F4F ....|F#4 2F.F ....
 D-4|..|D-2 2A.F ....|D-4 2F5F ....|A-4 2F.F ....
....|..|R-- .... ....|R-- .... ....|--- .... ....
 D-4|..|D-2 2A.F ....|D-2 2A.F ....|--- .... ....
....|..|R-- .... ....|D-5 2F4F ....|D-5 2F4F ....
 D-4|..|D-2 2A.F ....|D-4 2F5F ....|D-4 2F5F ....
....|..|--- .... ....|--- .... ....|--- .... ....
....|..|--- .... ....|A-3 2F27 ....|A-3 2F27 ....
....|..|R-- .... ....|D-5 2F4F ....|A-4 2F.F ....
 A-3|..|A-1 2A.F ....|C-4 AF.F ....|A-4 2F.F ....
....|..|--- .... ....|--- .... ....|--- .... ....
....|..|--- .... ....|--- .... ....|--- .... ....
....|..|A-4 2F.F ....|D-5 2F4F ....|A-4 2F.F ....
....|..|F#4 2F.F ....|C-4 CF.F ....|F#4 2F.F ....
....|..|R-- .... ....|R-- .... ....|--- .... ....
 D-4|..|D-2 2F.A ....|D-2 2F.A ....|--- .... ....
....|..|F#4 2F.F ....|D-5 2F4F ....|F#4 2F.F ....
....|..|F#4 2F.F ....|D-4 2F5F ....|F#4 2F.F ....
....|..|--- .... ....|--- .... ....|--- .... ....
....|..|--- .... ....|--- .... ....|--- .... ....
....|..|D-4 2F.F ....|D-5 2F4F ....|D-4 2F.F ....

[Pattern10]
 C#4|..|C#2 2A.F ....|C-4 AF.F ....|A-4 2F.F ....
....|..|--- .... ....|--- .... ....|--- .... ....
....|..|--- .... ....|--- .... ....|--- .... ....
....|..|R-- .... ....|D-5 2F47 ....|F#4 2F.7 ....
 C#4|..|C#2 2A.F ....|A-3 2F2F ....|A-4 2F.F ....
....|..|R-- .... ....|R-- .... ....|--- .... ....
 D-4|..|D-2 2F.7 ....|D-2 2F.7 ....|--- .... ....
....|..|C#5 2F.F ....|D-5 2F47 ....|E-4 2F.F ....
 C#4|..|C#2 2A.F ....|C-4 CF.F ....|C#5 2F.F ....
....|..|--- .... ....|--- .... ....|--- .... ....
....|..|--- .... ....|--- .... ....|--- .... ....
....|..|R-- .... ....|D-5 2F47 ....|A-4 2F.7 ....
 C#4|..|C#2 2A.F ....|A-3 2F2F ....|B-4 2F.F ....
....|..|R-- .... ....|R-- .... ....|--- .... ....
 C#4|..|C#2 2A.F ....|C#2 2A.F ....|--- .... ....
....|..|A-4 2F.7 ....|D-5 2F47 ....|B-4 2F.F ....
 C#4|..|C#2 2A.F ....|A-3 2F2F ....|B-4 2F.F ....
....|..|--- .... ....|--- .... ....|--- .... ....
....|..|--- .... ....|--- .... ....|--- .... ....
....|..|F#4 2F.7 ....|D-5 2F47 ....|F#4 2F.7 ....
 A-3|..|A-1 2A.F ....|C-4 AF.F ....|B-4 2F.F ....
....|..|--- .... ....|--- .... ....|--- .... ....
....|..|--- .... ....|--- .... ....|--- .... ....
....|..|D-4 2F.7 ....|D-5 2F47 ....|D-4 2F.7 ....
....|..|A-4 2F.F ....|C-4 CF.F ....|C#5 2F.F ....
....|..|R-- .... ....|R-- .... ....|--- .... ....
 C#4|..|C#2 2F.A ....|C#2 2F.A ....|--- .... ....
....|..|A-4 2F.F ....|R-- .... ....|C#5 2F.F ....
 C#4|..|C#2 2F.7 ....|A-3 2F2F ....|C#5 2F.F ....
....|..|--- .... ....|--- .... ....|--- .... ....
....|..|--- .... ....|--- .... ....|--- .... ....
....|..|C#5 2F.7 ....|R-- .... ....|E-4 2F.7 ....
 B-3|..|B-1 2A.F ....|C-4 AF.F ....|G-4 2F.F ....
....|..|--- .... ....|--- .... ....|--- .... ....
....|..|--- .... ....|--- .... ....|--- .... ....
....|..|R-- .... ....|R-- .... ....|G-4 2F.F ....
 B-3|..|B-1 2A.F ....|G-3 2F2F ....|G-4 2F.F ....
....|..|R-- .... ....|R-- .... ....|--- .... ....
 C#4|..|C#2 2F.7 ....|C#2 2F.7 ....|--- .... ....
....|..|R-- .... ....|R-- .... ....|B-4 2F.7 ....
 B-3|..|B-1 2A.F ....|C-4 CF.F ....|B-4 2F.F ....
....|..|--- .... ....|--- .... ....|--- .... ....
....|..|--- .... ....|--- .... ....|--- .... ....
....|..|R-- .... ....|R-- .... ....|R-- .... ....
 B-3|..|B-1 2A.F ....|G-3 2F2F ....|F#4 2F.F ....
....|..|R-- .... ....|R-- .... ....|--- .... ....
 B-3|..|B-1 2A.F ....|B-1 2A.F ....|--- .... ....
....|..|R-- .... ....|R-- .... ....|R-- .... ....
 B-3|..|B-1 2A.F ....|G-3 2F2F ....|G-4 2F.F ....
....|..|--- .... ....|--- .... ....|--- .... ....
....|..|--- .... ....|--- .... ....|--- .... ....
....|..|A-4 2F.7 ....|R-- .... ....|G-4 2F.F ....
 A-3|..|A-1 2A.F ....|C-4 AF.F ....|G-4 2F.F ....
....|..|--- .... ....|--- .... ....|--- .... ....
....|..|--- .... ....|--- .... ....|--- .... ....
....|..|R-- .... ....|R-- .... ....|R-- .... ....
....|..|E-4 2F.F ....|C-4 CF.F ....|B-4 2F.F ....
....|..|R-- .... ....|R-- .... ....|--- .... ....
 B-3|..|B-1 2F.A ....|B-1 2F.A ....|--- .... ....
....|..|E-4 2F.F ....|R-- .... ....|E-4 2F.F ....
....|..|E-4 2F.F ....|G-3 2F2F ....|E-4 2F.F ....
....|..|--- .... ....|--- .... ....|--- .... ....
....|..|--- .... ....|--- .... ....|--- .... ....
....|..|R-- .... ....|R-- .... ....|R-- .... ....

[Pattern11]
 A-3|..|A-1 2A.F ....|C-4 AF.F ....|C#4 2F.F ....
....|..|--- .... ....|--- .... ....|--- .... ....
....|..|--- .... ....|--- .... ....|--- .... ....
....|..|R-- .... ....|R-- .... ....|R-- .... ....
 A-3|..|A-1 2A.F ....|A-3 2F2F ....|C#4 2F.F ....
....|..|R-- .... ....|R-- .... ....|--- .... ....
 B-3|..|B-1 2F.7 ....|B-1 2F.7 ....|--- .... ....
....|..|E-3 2F.F ....|R-- .... ....|E-3 2F.F ....
 A-3|..|A-1 2A.F ....|C-4 CF.F ....|A-4 2F.F ....
....|..|--- .... ....|--- .... ....|--- .... ....
....|..|--- .... ....|--- .... ....|--- .... ....
....|..|R-- .... ....|R-- .... ....|G-4 2F.7 ....
 A-3|..|A-1 2A.F ....|A-3 2F2F ....|F#4 2F.F ....
....|..|R-- .... ....|R-- .... ....|--- .... ....
 A-3|..|A-1 2A.F ....|A-1 2A.F ....|--- .... ....
....|..|R-- .... ....|R-- .... ....|R-- .... ....
 B-3|..|B-1 2A.F ....|A-3 2F2F ....|D-4 2F.F ....
....|..|--- .... ....|--- .... ....|--- .... ....
....|..|--- .... ....|--- .... ....|--- .... ....
....|..|E-4 2F.7 ....|R-- .... ....|E-4 2F.7 ....
 A-3|..|A-1 2A.F ....|C-4 AF.F ....|C#4 2F.F ....
....|..|--- .... ....|--- .... ....|--- .... ....
....|..|--- .... ....|--- .... ....|--- .... ....
....|..|R-- .... ....|R-- .... ....|R-- .... ....
 C#4|..|C#2 2A.F ....|C-4 CF.F ....|E-4 2F.F ....
....|..|R-- .... ....|R-- .... ....|--- .... ....
 A-3|..|A-1 2F.A ....|A-3 2F2F ....|A-3 2F2F ....
....|..|R-- .... ....|R-- .... ....|R-- .... ....
 A-3|..|A-1 2A.F ....|C-4 AF.F ....|E-4 2F.F ....
....|..|--- .... ....|--- .... ....|--- .... ....
....|..|--- .... ....|--- .... ....|--- .... ....
....|..|E-3 2F.7 ....|R-- .... ....|E-3 2F.7 ....
 D-4|..|D-2 2A.F ....|C-4 AF.F ....|D-4 2F.F ....
....|..|--- .... ....|--- .... ....|--- .... ....
....|..|--- .... ....|--- .... ....|--- .... ....
....|..|R-- .... ....|D-5 2F4F ....|D-5 2F4F ....
 D-4|..|D-2 2A.F ....|D-4 2F7F ....|D-4 2F7F ....
....|..|R-- .... ....|R-- .... ....|--- .... ....
 A-3|..|A-1 2F.7 ....|A-1 2F.7 ....|A-3 2F2A ....
....|..|D-3 2F.F ....|D-5 2F4F ....|D-3 2F.F ....
 D-4|..|D-2 2A.F ....|C-4 CF.F ....|D-5 2F.F ....
....|..|--- .... ....|--- .... ....|--- .... ....
....|..|--- .... ....|--- .... ....|--- .... ....
....|..|R-- .... ....|D-5 2F4F ....|D-5 2F.F ....
 D-4|..|D-2 2A.F ....|D-4 2F7F ....|D-5 2F.F ....
....|..|R-- .... ....|R-- .... ....|--- .... ....
 D-4|..|D-2 2A.F ....|D-2 2A.F ....|--- .... ....
....|..|R-- .... ....|D-5 2F4F ....|D-5 2F4F ....
 D-4|..|D-2 2A.F ....|D-4 2F7F ....|A-4 2F.F ....
....|..|--- .... ....|--- .... ....|--- .... ....
....|..|--- .... ....|A-3 2F27 ....|A-3 2F27 ....
....|..|R-- .... ....|D-5 2F4F ....|D-5 2F4F ....
 A-3|..|A-1 2A.F ....|C-4 AF.F ....|A-4 2F.F ....
....|..|--- .... ....|--- .... ....|--- .... ....
....|..|--- .... ....|--- .... ....|--- .... ....
....|..|A-4 2F.F ....|D-5 2F4F ....|A-4 2F.F ....
....|..|F#4 2F.F ....|C-4 CF.F ....|F#4 2F.F ....
....|..|R-- .... ....|R-- .... ....|--- .... ....
 D-4|..|D-2 2F.A ....|D-2 2F.A ....|--- .... ....
....|..|F#4 2F.F ....|D-5 2F4F ....|F#4 2F.F ....
....|..|F#4 2F.F ....|D-4 2F7F ....|F#4 2F.F ....
....|..|--- .... ....|--- .... ....|--- .... ....
....|..|--- .... ....|--- .... ....|--- .... ....
....|..|D-4 2F.F ....|D-5 2F4F ....|D-4 2F.F ....

[Pattern12]
 C#4|..|C#2 2A.F ....|C-4 AF.F ....|E-4 2F.F ....
....|..|R-- .... ....|R-- .... ....|--- .... ....
 C#4|..|C#2 2A.F ....|C#2 2A.F ....|--- .... ....
....|..|R-- .... ....|D-5 2F47 ....|D-5 2F.7 ....
 C#4|..|C#2 2A.F ....|C#4 2F1F ....|C#5 2F.F ....
....|..|R-- .... ....|R-- .... ....|--- .... ....
 D-4|..|D-2 2F.7 ....|D-2 2F.7 ....|--- .... ....
....|..|C#5 2F.F ....|D-5 2F47 ....|C#5 2F.F ....
 C#4|..|C#2 2A.F ....|C-4 CF.F ....|C#5 2F.F ....
....|..|--- .... ....|--- .... ....|--- .... ....
....|..|--- .... ....|--- .... ....|--- .... ....
....|..|R-- .... ....|D-5 2F47 ....|D-5 2F47 ....
 C#4|..|C#2 2A.F ....|C#4 2F1F ....|A-4 2F.F ....
....|..|R-- .... ....|R-- .... ....|--- .... ....
 C#4|..|C#2 2A.F ....|C#2 2A.F ....|--- .... ....
....|..|A-4 2F.7 ....|D-5 2F47 ....|A-4 2F.7 ....
 C#4|..|C#2 2A.F ....|C#4 2F1F ....|C#4 2F1F ....
....|..|--- .... ....|--- .... ....|--- .... ....
....|..|--- .... ....|--- .... ....|--- .... ....
....|..|A-4 2F.F ....|D-5 2F47 ....|A-4 2F.F ....
 A-3|..|A-1 2A.F ....|C-4 AF.F ....|A-4 2F.F ....
....|..|--- .... ....|--- .... ....|--- .... ....
....|..|--- .... ....|--- .... ....|--- .... ....
....|..|D-4 2F.7 ....|D-5 2F47 ....|D-4 2F.7 ....
....|..|E-4 2F.F ....|C-4 CF.F ....|E-4 2F.F ....
....|..|R-- .... ....|R-- .... ....|--- .... ....
 C#4|..|C#2 2F.7 ....|C#2 2F.7 ....|--- .... ....
....|..|E-4 2F.F ....|R-- .... ....|E-4 2F.F ....
....|..|E-4 2F.F ....|C#4 2F1F ....|E-4 2F.F ....
....|..|--- .... ....|--- .... ....|--- .... ....
....|..|--- .... ....|--- .... ....|--- .... ....
....|..|C#5 2F.7 ....|R-- .... ....|C#5 2F.7 ....
 B-3|..|B-1 2A.F ....|C-4 AF.F ....|D-4 2F.F ....
....|..|--- .... ....|--- .... ....|--- .... ....
....|..|--- .... ....|--- .... ....|--- .... ....
....|..|R-- .... ....|R-- .... ....|R-- .... ....
 B-3|..|B-1 2A.F ....|B-3 2F1F ....|B-4 2F.F ....
....|..|R-- .... ....|R-- .... ....|--- .... ....
 C#4|..|C#2 2F.7 ....|C#2 2F.7 ....|--- .... ....
....|..|B-4 2F.F ....|R-- .... ....|B-4 2F.F ....
 B-3|..|B-1 2A.F ....|C-4 CF.F ....|B-4 2F.F ....
....|..|--- .... ....|--- .... ....|--- .... ....
....|..|--- .... ....|--- .... ....|--- .... ....
....|..|A-4 2F.7 ....|R-- .... ....|A-4 2F.7 ....
 B-3|..|B-1 2A.F ....|B-3 2F1F ....|G-4 2F.F ....
....|..|R-- .... ....|R-- .... ....|--- .... ....
 B-3|..|B-1 2A.F ....|B-1 2A.F ....|--- .... ....
....|..|R-- .... ....|R-- .... ....|R-- .... ....
 B-3|..|B-1 2A.F ....|B-3 2F1F ....|B-3 2F1F ....
....|..|--- .... ....|--- .... ....|--- .... ....
....|..|--- .... ....|--- .... ....|--- .... ....
....|..|G-4 2F.F ....|R-- .... ....|G-4 2F.F ....
....|..|G-4 2F.F ....|C-4 AF.F ....|G-4 2F.F ....
....|..|--- .... ....|--- .... ....|--- .... ....
....|..|--- .... ....|--- .... ....|--- .... ....
....|..|R-- .... ....|R-- .... ....|R-- .... ....
 D-4|..|D-2 2A.F ....|C-4 CF.F ....|D-4 2F.F ....
....|..|R-- .... ....|R-- .... ....|--- .... ....
 B-3|..|B-1 2F.A ....|B-1 2F.A ....|--- .... ....
....|..|D-4 2F.F ....|R-- .... ....|D-4 2F.F ....
....|..|D-4 2F.F ....|B-3 2F1F ....|D-4 2F.F ....
....|..|--- .... ....|--- .... ....|--- .... ....
....|..|--- .... ....|--- .... ....|--- .... ....
....|..|B-4 2F.7 ....|R-- .... ....|B-4 2F.7 ....

[Pattern13]
 A-3|..|A-1 2A.F ....|C-4 AF.F ....|E-4 2F.F ....
....|..|--- .... ....|--- .... ....|--- .... ....
....|..|--- .... ....|--- .... ....|--- .... ....
....|..|R-- .... ....|R-- .... ....|R-- .... ....
 A-3|..|A-1 2A.F ....|C#4 2F1F ....|C#4 2F1F ....
....|..|R-- .... ....|R-- .... ....|--- .... ....
 B-3|..|B-1 2F.7 ....|B-1 2F.7 ....|--- .... ....
....|..|R-- .... ....|R-- .... ....|R-- .... ....
 A-3|..|A-1 2A.F ....|C-4 CF.F ....|C#4 2F1F ....
....|..|--- .... ....|--- .... ....|--- .... ....
....|..|--- .... ....|--- .... ....|--- .... ....
....|..|G-4 2F.7 ....|R-- .... ....|G-4 2F.7 ....
 A-3|..|A-1 2A.F ....|C#4 2F1F ....|D-4 2F.F ....
....|..|--- .... ....|--- .... ....|--- .... ....
....|..|--- .... ....|--- .... ....|--- .... ....
....|..|R-- .... ....|R-- .... ....|R-- .... ....
 B-3|..|B-1 2A.F ....|C#4 2F1F ....|C#4 2F.F ....
....|..|--- .... ....|--- .... ....|--- .... ....
....|..|--- .... ....|--- .... ....|--- .... ....
....|..|D-4 2F.7 ....|R-- .... ....|D-4 2F.7 ....
 A-3|..|A-1 2A.F ....|C-4 AF.F ....|B-3 2F.F ....
....|..|--- .... ....|--- .... ....|--- .... ....
....|..|--- .... ....|--- .... ....|--- .... ....
....|..|R-- .... ....|R-- .... ....|R-- .... ....
 C#4|..|C#2 2A.F ....|C-4 CF.F ....|A-3 2F.F ....
....|..|--- .... ....|--- .... ....|--- .... ....
....|..|--- .... ....|C#4 2F1F ....|C#4 2F1F ....
....|..|R-- .... ....|R-- .... ....|R-- .... ....
 A-3|..|A-1 2A.F ....|C-4 AF.F ....|G-3 2F.F ....
....|..|--- .... ....|--- .... ....|--- .... ....
....|..|--- .... ....|--- .... ....|--- .... ....
....|..|R-- .... ....|R-- .... ....|R-- .... ....
 G-4|..|G-2 2A.F ....|C-4 AF.F ....|G-4 2F.F ....
....|..|--- .... ....|--- .... ....|--- .... ....
....|..|--- .... ....|R-- .... ....|--- .... ....
....|..|R-- .... ....|R-- .... ....|R-- .... ....
 G-4|..|G-2 2A.F ....|C-4 AF.F ....|D-4 2F6F ....
....|..|--- .... ....|--- .... ....|--- .... ....
....|..|--- .... ....|R-- .... ....|C#4 2F1A ....
....|..|R-- .... ....|R-- .... ....|R-- .... ....
 G-4|..|G-2 2A.F ....|C-4 CF.F ....|D-4 2F6F ....
....|..|--- .... ....|--- .... ....|--- .... ....
....|..|--- .... ....|R-- .... ....|--- .... ....
....|..|D-3 2F.F ....|R-- .... ....|D-3 2F.F ....
 G-4|..|G-2 2A.F ....|C-4 AF.F ....|G-4 2F.F ....
....|..|--- .... ....|--- .... ....|--- .... ....
....|..|--- .... ....|R-- .... ....|--- .... ....
....|..|R-- .... ....|R-- .... ....|R-- .... ....
 G-4|..|G-2 2A.F ....|C-4 CF.F ....|F#4 2F.F ....
....|..|--- .... ....|--- .... ....|--- .... ....
....|..|--- .... ....|C#4 2F17 ....|C#4 2F17 ....
....|..|R-- .... ....|R-- .... ....|R-- .... ....
 G-4|..|G-2 2A.F ....|C-4 AF.F ....|D-4 2F.F ....
....|..|--- .... ....|--- .... ....|--- .... ....
....|..|--- .... ....|R-- .... ....|--- .... ....
....|..|R-- .... ....|R-- .... ....|R-- .... ....
 G-4|..|G-2 2A.F ....|C-4 CF.F ....|B-3 2F.F ....
....|..|--- .... ....|--- .... ....|--- .... ....
....|..|--- .... ....|R-- .... ....|--- .... ....
....|..|R-- .... ....|R-- .... ....|R-- .... ....
 G-4|..|G-2 2A.F ....|C-4 AF.F ....|D-4 2F6F ....
....|..|--- .... ....|--- .... ....|--- .... ....
....|..|--- .... ....|R-- .... ....|--- .... ....
....|..|R-- .... ....|R-- .... ....|R-- .... ....

[Pattern14]
 G-4|..|G-2 2A.F ....|C-4 CF.F ....|E-4 2F.F ....
....|..|--- .... ....|--- .... ....|--- .... ....
....|..|--- .... ....|R-- .... ....|--- .... ....
....|..|D-3 2F.7 ....|R-- .... ....|D-3 2F.7 ....
 G-4|..|G-2 2A.F ....|C-4 AF.F ....|G-4 2F.7 ....
....|..|--- .... ....|--- .... ....|--- .... ....
....|..|--- .... ....|R-- .... ....|--- .... ....
....|..|R-- .... ....|R-- .... ....|R-- .... ....
 G-4|..|G-2 2A.F ....|C-4 CF.F ....|F#4 2F.7 ....
....|..|--- .... ....|--- .... ....|--- .... ....
....|..|--- .... ....|R-- .... ....|--- .... ....
....|..|R-- .... ....|R-- .... ....|R-- .... ....
 G-4|..|G-2 2A.F ....|C-4 AF.F ....|C#4 2F.F ....
....|..|--- .... ....|--- .... ....|--- .... ....
....|..|--- .... ....|R-- .... ....|--- .... ....
....|..|R-- .... ....|R-- .... ....|R-- .... ....
 G-4|..|G-2 2A.F ....|C-4 CF.F ....|E-4 2F.F ....
....|..|--- .... ....|--- .... ....|--- .... ....
....|..|--- .... ....|R-- .... ....|--- .... ....
....|..|R-- .... ....|R-- .... ....|R-- .... ....
 G-4|..|G-2 2A.F ....|C-4 AF.F ....|A-4 2F.F ....
....|..|--- .... ....|--- .... ....|--- .... ....
....|..|--- .... ....|R-- .... ....|--- .... ....
....|..|A-4 2F.F ....|R-- .... ....|A-4 2F.F ....
 G-4|..|G-2 2A.F ....|C-4 CF.F ....|A-4 2F.F ....
....|..|--- .... ....|--- .... ....|--- .... ....
....|..|--- .... ....|E-4 2F6F ....|E-4 2F6F ....
....|..|R-- .... ....|R-- .... ....|--- .... ....
 G-4|..|G-2 2A.F ....|C-4 AF.F ....|E-4 2F.A ....
....|..|--- .... ....|--- .... ....|--- .... ....
....|..|--- .... ....|R-- .... ....|--- .... ....
....|..|R-- .... ....|R-- .... ....|--- .... ....
 G-4|..|G-2 2A.F ....|C-4 CF.F ....|G-4 2F.F ....
....|..|--- .... ....|--- .... ....|--- .... ....
....|..|--- .... ....|R-- .... ....|--- .... ....
....|..|R-- .... ....|R-- .... ....|R-- .... ....
 G-4|..|G-2 2A.F ....|C-4 AF.F ....|C#4 2F.7 ....
....|..|--- .... ....|--- .... ....|--- .... ....
....|..|--- .... ....|R-- .... ....|E-4 2F6A ....
....|..|R-- .... ....|R-- .... ....|--- .... ....
 G-4|..|G-2 2A.F ....|C-4 CF.F ....|E-4 2F.7 ....
....|..|--- .... ....|--- .... ....|--- .... ....
....|..|--- .... ....|R-- .... ....|--- .... ....
....|..|D-3 2F.F ....|R-- .... ....|D-3 2F.F ....
 G-4|..|G-2 2A.F ....|C-4 AF.F ....|G-4 2F.F ....
....|..|--- .... ....|--- .... ....|--- .... ....
....|..|--- .... ....|R-- .... ....|--- .... ....
....|..|A-4 2F.7 ....|R-- .... ....|A-4 2F.7 ....
 G-4|..|G-2 2A.F ....|C-4 CF.F ....|F#4 2F.F ....
....|..|--- .... ....|--- .... ....|--- .... ....
....|..|--- .... ....|E-4 2F67 ....|E-4 2F67 ....
....|..|R-- .... ....|D-5 2F4F ....|D-5 2F4F ....
 G-4|..|G-2 2A.F ....|C-4 AF.F ....|D-4 2F.F ....
....|..|--- .... ....|--- .... ....|--- .... ....
....|..|--- .... ....|R-- .... ....|--- .... ....
....|..|R-- .... ....|R-- .... ....|D-3 2F.A ....
 G-4|..|G-2 2A.F ....|C-4 CF.F ....|B-3 2F.F ....
....|..|--- .... ....|--- .... ....|--- .... ....
....|..|--- .... ....|R-- .... ....|--- .... ....
....|..|R-- .... ....|R-- .... ....|--- .... ....
 G-4|..|G-2 2A.F ....|C-4 AF.F ....|F#4 2F.A ....
....|..|--- .... ....|--- .... ....|--- .... ....
....|..|--- .... ....|R-- .... ....|--- .... ....
....|..|R-- .... ....|D-5 2F4F ....|D-5 2F4F ....

[Pattern15]
 G-4|..|G-2 2A.F ....|C-4 CF.F ....|E-4 2F.F ....
....|..|--- .... ....|--- .... ....|--- .... ....
....|..|--- .... ....|R-- .... ....|--- .... ....
....|..|D-3 2F.7 ....|R-- .... ....|D-3 2F.7 ....
 G-4|..|G-2 2A.F ....|C-4 AF.F ....|G-4 2F.7 ....
....|..|--- .... ....|--- .... ....|--- .... ....
....|..|--- .... ....|R-- .... ....|--- .... ....
....|..|R-- .... ....|R-- .... ....|--- .... ....
 G-4|..|G-2 2A.F ....|C-4 CF.F ....|F#4 2F.7 ....
....|..|--- .... ....|--- .... ....|--- .... ....
....|..|--- .... ....|R-- .... ....|--- .... ....
....|..|R-- .... ....|D-5 2F47 ....|D-5 2F47 ....
 G-4|..|G-2 2A.F ....|C-4 AF.F ....|C#4 2F.F ....
....|..|--- .... ....|--- .... ....|--- .... ....
....|..|--- .... ....|R-- .... ....|--- .... ....
....|..|R-- .... ....|R-- .... ....|--- .... ....
 G-4|..|G-2 2A.F ....|C-4 CF.F ....|E-4 2F.F ....
....|..|--- .... ....|--- .... ....|--- .... ....
....|..|--- .... ....|R-- .... ....|--- .... ....
....|..|R-- .... ....|R-- .... ....|--- .... ....
 G-4|..|G-2 2A.F ....|C-4 AF.F ....|A-4 2F.F ....
....|..|--- .... ....|--- .... ....|--- .... ....
....|..|--- .... ....|R-- .... ....|--- .... ....
....|..|A-4 2F.F ....|D-5 2F47 ....|A-4 2F.F ....
 G-4|..|G-2 2A.F ....|C-4 CF.F ....|A-4 2F.F ....
....|..|--- .... ....|--- .... ....|--- .... ....
....|..|--- .... ....|R-- .... ....|--- .... ....
....|..|R-- .... ....|R-- .... ....|--- .... ....
 G-4|..|G-2 2A.F ....|C-4 AF.F ....|E-4 2F.A ....
....|..|--- .... ....|--- .... ....|--- .... ....
....|..|--- .... ....|R-- .... ....|--- .... ....
....|..|R-- .... ....|R-- .... ....|R-- .... ....
 G-4|..|G-2 2A.F ....|C-4 CF.F ....|G-4 2F.F ....
....|..|--- .... ....|--- .... ....|--- .... ....
....|..|--- .... ....|R-- .... ....|--- .... ....
....|..|R-- .... ....|R-- .... ....|R-- .... ....
 G-4|..|G-2 2A.F ....|C-4 AF.F ....|C#4 2F.7 ....
....|..|--- .... ....|--- .... ....|--- .... ....
....|..|--- .... ....|R-- .... ....|--- .... ....
....|..|R-- .... ....|R-- .... ....|--- .... ....
 G-4|..|G-2 2A.F ....|C-4 CF.F ....|E-4 2F.7 ....
....|..|--- .... ....|--- .... ....|--- .... ....
....|..|--- .... ....|R-- .... ....|--- .... ....
....|..|D-3 2F.F ....|R-- .... ....|D-3 2F.F ....
 G-4|..|G-2 2A.F ....|C-4 AF.F ....|G-4 2F.F ....
....|..|--- .... ....|--- .... ....|--- .... ....
....|..|--- .... ....|R-- .... ....|--- .... ....
....|..|A-4 2F.7 ....|R-- .... ....|A-4 2F.7 ....
 G-4|..|G-2 2A.F ....|C-4 CF.F ....|F#4 2F.F ....
....|..|--- .... ....|--- .... ....|--- .... ....
....|..|--- .... ....|R-- .... ....|--- .... ....
....|..|R-- .... ....|R-- .... ....|--- .... ....
 G-4|..|G-2 2A.F ....|C-4 AF.F ....|D-4 2F.F ....
....|..|--- .... ....|--- .... ....|--- .... ....
....|..|--- .... ....|R-- .... ....|--- .... ....
....|..|R-- .... ....|R-- .... ....|R-- .... ....
 G-4|..|G-2 2A.F ....|C-4 CF.F ....|B-3 2F.F ....
....|..|--- .... ....|--- .... ....|--- .... ....
....|..|--- .... ....|R-- .... ....|--- .... ....
....|..|R-- .... ....|R-- .... ....|--- .... ....
 G-4|..|G-2 2A.F ....|C-4 AF.F ....|F#4 2F.A ....
....|..|--- .... ....|--- .... ....|--- .... ....
....|..|--- .... ....|R-- .... ....|--- .... ....
....|..|R-- .... ....|R-- .... ....|R-- .... ....

[Pattern16]
 G-4|..|G-2 2A.F ....|C-4 CF.F ....|E-4 2F.F ....
....|..|--- .... ....|--- .... ....|--- .... ....
....|..|--- .... ....|R-- .... ....|--- .... ....
....|..|D-3 2F.7 ....|R-- .... ....|D-3 2F.7 ....
 G-4|..|G-2 2A.F ....|C-4 AF.F ....|G-4 2F.7 ....
....|..|--- .... ....|--- .... ....|--- .... ....
....|..|--- .... ....|R-- .... ....|--- .... ....
....|..|R-- .... ....|R-- .... ....|--- .... ....
 G-4|..|G-2 2A.F ....|C-4 CF.F ....|F#4 2F.7 ....
....|..|--- .... ....|--- .... ....|--- .... ....
....|..|--- .... ....|R-- .... ....|--- .... ....
....|..|R-- .... ....|R-- .... ....|R-- .... ....
 G-4|..|G-2 2A.F ....|C-4 AF.F ....|C#4 2F.F ....
....|..|--- .... ....|--- .... ....|--- .... ....
....|..|--- .... ....|R-- .... ....|--- .... ....
....|..|R-- .... ....|R-- .... ....|R-- .... ....
 G-4|..|G-2 2A.F ....|C-4 CF.F ....|E-4 2F.F ....
....|..|--- .... ....|--- .... ....|--- .... ....
....|..|--- .... ....|R-- .... ....|--- .... ....
....|..|R-- .... ....|R-- .... ....|--- .... ....
 G-4|..|G-2 2A.F ....|C-4 AF.F ....|A-4 2F.F ....
....|..|--- .... ....|--- .... ....|--- .... ....
....|..|--- .... ....|R-- .... ....|--- .... ....
....|..|A-4 2F.F ....|R-- .... ....|A-4 2F.F ....
 G-4|..|G-2 2A.F ....|C-4 CF.F ....|A-4 2F.F ....
....|..|--- .... ....|C-4 CF.F ....|--- .... ....
....|..|--- .... ....|E-4 2F6F ....|E-4 2F6F ....
....|..|R-- .... ....|R-- .... ....|--- .... ....
 G-4|..|G-2 2A.F ....|C-4 AF.F ....|E-4 2F.A ....
....|..|--- .... ....|--- .... ....|--- .... ....
....|..|--- .... ....|R-- .... ....|--- .... ....
....|..|R-- .... ....|R-- .... ....|--- .... ....
 F#3|..|F#1 2A.F ....|C-4 AF.F ....|D-3 2F.F ....
....|..|--- .... ....|--- .... ....|--- .... ....
....|..|--- .... ....|R-- .... ....|--- .... ....
....|..|R-- .... ....|R-- .... ....|R-- .... ....
....|..|D-4 2F.F ....|C-4 AF.7 ....|A-3 2F.F ....
....|..|--- .... ....|C-4 CF.A ....|--- .... ....
....|..|--- .... ....|R-- .... ....|E-4 2F6A ....
....|..|R-- .... ....|R-- .... ....|--- .... ....
....|..|E-4 2F.F ....|C-4 CF.7 ....|D-3 2F.F ....
....|..|--- .... ....|--- .... ....|--- .... ....
....|..|--- .... ....|R-- .... ....|--- .... ....
....|..|R-- .... ....|R-- .... ....|--- .... ....
....|..|D-4 2F.F ....|C-4 CF.F ....|D-4 2F.F ....
....|..|--- .... ....|--- .... ....|--- .... ....
....|..|--- .... ....|R-- .... ....|--- .... ....
....|..|A-4 2F.7 ....|R-- .... ....|A-4 2F.7 ....
 G-4|..|G-2 2F.7 ....|C-4 CF.7 ....|A-4 2F.7 ....
....|..|--- .... ....|C-4 CF.7 ....|--- .... ....
....|..|--- .... ....|E-4 2F67 ....|E-4 2F67 ....
....|..|R-- .... ....|R-- .... ....|--- .... ....
....|..|C#4 2F.F ....|C-4 AF.7 ....|C#4 2F.F ....
....|..|--- .... ....|--- .... ....|--- .... ....
....|..|--- .... ....|R-- .... ....|--- .... ....
....|..|R-- .... ....|R-- .... ....|--- .... ....
 F#3|..|F#1 2F.7 ....|C-4 CF.F ....|D-5 2F4F ....
....|..|--- .... ....|--- .... ....|--- .... ....
....|..|--- .... ....|--- .... ....|--- .... ....
....|..|--- .... ....|--- .... ....|--- .... ....
....|..|D-4 2F.7 ....|R-- .... ....|A-3 2F.7 ....
....|..|--- .... ....|--- .... ....|--- .... ....
....|..|--- .... ....|--- .... ....|--- .... ....
....|..|--- .... ....|R-- .... ....|--- .... ....

[Pattern17]
 G-3|..|G-1 2A.F ....|C-4 AF.F ....|G-4 2F.F ....
....|..|--- .... ....|--- .... ....|--- .... ....
....|..|--- .... ....|--- .... ....|--- .... ....
....|..|--- .... ....|--- .... ....|--- .... ....
....|..|D-4 2F.7 ....|C-4 CF.7 ....|D-4 2F.7 ....
....|..|--- .... ....|--- .... ....|--- .... ....
....|..|--- .... ....|--- .... ....|--- .... ....
....|..|--- .... ....|--- .... ....|--- .... ....
....|..|--- .... ....|R-- .... ....|--- .... ....
....|..|--- .... ....|--- .... ....|--- .... ....
....|..|--- .... ....|--- .... ....|--- .... ....
....|..|--- .... ....|B-4 2F.F ....|B-4 2F.F ....
 A-3|..|A-1 2A.F ....|C-4 AF.F ....|G-4 2F.F ....
....|..|--- .... ....|--- .... ....|--- .... ....
....|..|--- .... ....|--- .... ....|--- .... ....
....|..|--- .... ....|--- .... ....|--- .... ....
....|..|R-- .... ....|C-4 CF.7 ....|D-5 2F47 ....
....|..|--- .... ....|--- .... ....|--- .... ....
....|..|--- .... ....|--- .... ....|--- .... ....
....|..|--- .... ....|--- .... ....|--- .... ....
....|..|--- .... ....|R-- .... ....|--- .... ....
....|..|--- .... ....|--- .... ....|--- .... ....
....|..|--- .... ....|--- .... ....|--- .... ....
....|..|--- .... ....|R-- .... ....|B-4 2F.A ....
 G-3|..|G-1 2F.7 ....|C-4 AF.7 ....|G-4 2F.7 ....
....|..|--- .... ....|--- .... ....|--- .... ....
....|..|--- .... ....|--- .... ....|--- .... ....
....|..|--- .... ....|--- .... ....|--- .... ....
....|..|--- .... ....|R-- .... ....|--- .... ....
....|..|--- .... ....|--- .... ....|--- .... ....
....|..|--- .... ....|--- .... ....|--- .... ....
....|..|--- .... ....|--- .... ....|--- .... ....
 D-4|..|D-3 2C.F ....|D-3 2C.F ....|R-- .... ....
....|..|--- .... ....|--- .... ....|--- .... ....
....|..|--- .... ....|--- .... ....|--- .... ....
....|..|R-- .... ....|B-4 2F.7 ....|B-4 2F.7 ....
 D-4|..|D-3 2C.F ....|D-3 2C.F ....|G-4 2F.7 ....
....|..|--- .... ....|--- .... ....|--- .... ....
....|..|--- .... ....|--- .... ....|--- .... ....
....|..|R-- .... ....|R-- .... ....|--- .... ....
 D-4|..|D-3 2C.F ....|D-3 2C.F ....|--- .... ....
....|..|--- .... ....|--- .... ....|--- .... ....
....|..|--- .... ....|--- .... ....|--- .... ....
....|..|R-- .... ....|R-- .... ....|--- .... ....
 D-4|..|D-3 2C.F ....|D-3 2C.F ....|R-- .... ....
....|..|R-- .... ....|R-- .... ....|--- .... ....
 D-4|..|D-3 2C.F ....|D-3 2C.F ....|--- .... ....
....|..|R-- .... ....|R-- .... ....|--- .... ....
 D-4|..|D-3 2C.F ....|D-3 2C.F ....|--- .... ....
....|..|--- .... ....|--- .... ....|--- .... ....
....|..|--- .... ....|--- .... ....|--- .... ....
....|..|R-- .... ....|R-- .... ....|--- .... ....
 A-3|..|A-2 2C.F ....|A-2 2C.F ....|--- .... ....
....|..|--- .... ....|--- .... ....|--- .... ....
....|..|R-- .... ....|R-- .... ....|--- .... ....
....|..|R-- .... ....|R-- .... ....|--- .... ....
 D-4|..|D-3 2F.7 ....|D-3 2F.7 ....|R-- .... ....
....|..|R-- .... ....|R-- .... ....|--- .... ....
 D-4|..|D-3 2F.A ....|D-3 2F.A ....|--- .... ....
....|..|R-- .... ....|R-- .... ....|--- .... ....
 D-4|..|D-3 2F.7 ....|D-3 2F.7 ....|--- .... ....
....|..|--- .... ....|--- .... ....|--- .... ....
....|..|--- .... ....|--- .... ....|--- .... ....
....|..|R-- .... ....|R-- .... ....|--- .... ....

[Pattern18]
 D-4|..|D-3 2C.F ....|D-3 2C.F ....|--- .... ....
....|..|--- .... ....|--- .... ....|--- .... ....
....|..|R-- .... ....|R-- .... ....|--- .... ....
....|..|R-- .... ....|R-- .... ....|--- .... ....
 D-4|..|D-3 2C.F ....|D-3 2C.F ....|--- .... ....
....|..|R-- .... ....|R-- .... ....|--- .... ....
 D-4|..|D-3 2F.7 ....|D-3 2F.7 ....|--- .... ....
....|..|R-- .... ....|R-- .... ....|--- .... ....
 D-4|..|D-3 2C.F ....|D-3 2C.F ....|--- .... ....
....|..|--- .... ....|--- .... ....|--- .... ....
....|..|--- .... ....|--- .... ....|--- .... ....
....|..|R-- .... ....|R-- .... ....|--- .... ....
 D-4|..|D-3 2C.F ....|D-3 2C.F ....|--- .... ....
....|..|R-- .... ....|R-- .... ....|--- .... ....
 D-4|..|D-3 2C.F ....|D-3 2C.F ....|--- .... ....
....|..|R-- .... ....|R-- .... ....|--- .... ....
 D-4|..|D-3 2C.F ....|D-3 2C.F ....|--- .... ....
....|..|--- .... ....|--- .... ....|--- .... ....
....|..|--- .... ....|--- .... ....|--- .... ....
....|..|R-- .... ....|R-- .... ....|--- .... ....
 A-3|..|A-2 2C.F ....|A-2 2C.F ....|--- .... ....
....|..|--- .... ....|--- .... ....|--- .... ....
....|..|R-- .... ....|R-- .... ....|--- .... ....
....|..|R-- .... ....|R-- .... ....|--- .... ....
 D-4|..|D-3 2F.7 ....|D-3 2F.7 ....|--- .... ....
....|..|R-- .... ....|R-- .... ....|--- .... ....
 D-4|..|D-3 2F.A ....|D-3 2F.A ....|--- .... ....
....|..|R-- .... ....|R-- .... ....|--- .... ....
 D-4|..|D-3 2F.7 ....|D-3 2F.7 ....|--- .... ....
....|..|--- .... ....|--- .... ....|--- .... ....
....|..|--- .... ....|--- .... ....|--- .... ....
....|..|R-- .... ....|R-- .... ....|--- .... ....
 D-4|..|D-3 2C.F ....|D-3 2C.F ....|D-3 2F.F ....
....|..|D-4 2F.F ....|--- .... ....|D-4 2F.F ....
....|..|R-- .... ....|R-- .... ....|--- .... ....
....|..|R-- .... ....|R-- .... ....|--- .... ....
 D-4|..|D-3 2C.F ....|D-3 2C.F ....|--- .... ....
....|..|R-- .... ....|R-- .... ....|--- .... ....
 D-4|..|D-3 2F.7 ....|D-3 2F.7 ....|--- .... ....
....|..|R-- .... ....|R-- .... ....|--- .... ....
 D-4|..|D-3 2C.F ....|D-3 2C.F ....|--- .... ....
....|..|--- .... ....|--- .... ....|--- .... ....
....|..|--- .... ....|--- .... ....|--- .... ....
....|..|R-- .... ....|R-- .... ....|--- .... ....
 D-4|..|D-3 2C.F ....|D-3 2C.F ....|D-3 2F.A ....
....|..|R-- .... ....|R-- .... ....|D-4 2F.A ....
 D-4|..|D-3 2C.F ....|D-3 2C.F ....|--- .... ....
....|..|R-- .... ....|R-- .... ....|--- .... ....
 D-4|..|D-3 2C.F ....|D-3 2C.F ....|--- .... ....
....|..|--- .... ....|--- .... ....|--- .... ....
....|..|--- .... ....|--- .... ....|--- .... ....
....|..|R-- .... ....|R-- .... ....|--- .... ....
 A-3|..|A-2 2C.F ....|A-2 2C.F ....|--- .... ....
....|..|--- .... ....|--- .... ....|--- .... ....
....|..|R-- .... ....|R-- .... ....|--- .... ....
....|..|R-- .... ....|R-- .... ....|--- .... ....
 D-4|..|D-3 2F.7 ....|D-3 2F.7 ....|D-3 2F.7 ....
....|..|D-4 2F.7 ....|R-- .... ....|D-4 2F.7 ....
 D-4|..|D-3 2F.A ....|D-3 2F.A ....|--- .... ....
....|..|R-- .... ....|R-- .... ....|--- .... ....
 D-4|..|D-3 2F.7 ....|D-3 2F.7 ....|--- .... ....
....|..|--- .... ....|--- .... ....|--- .... ....
....|..|--- .... ....|--- .... ....|--- .... ....
....|..|R-- .... ....|R-- .... ....|--- .... ....

[Pattern19]
 D-4|..|D-3 2C.F ....|D-3 2C.F ....|R-- .... ....
....|..|--- .... ....|--- .... ....|--- .... ....
....|..|R-- .... ....|R-- .... ....|--- .... ....
....|..|R-- .... ....|R-- .... ....|--- .... ....
 D-4|..|D-3 2C.F ....|D-3 2C.F ....|--- .... ....
....|..|R-- .... ....|R-- .... ....|--- .... ....
 D-4|..|D-3 2F.7 ....|D-3 2F.7 ....|--- .... ....
....|..|R-- .... ....|R-- .... ....|--- .... ....
 D-4|..|D-3 2C.F ....|D-3 2C.F ....|--- .... ....
....|..|--- .... ....|--- .... ....|--- .... ....
....|..|--- .... ....|--- .... ....|--- .... ....
....|..|R-- .... ....|R-- .... ....|--- .... ....
 D-4|..|D-3 2C.F ....|D-3 2C.F ....|R-- .... ....
....|..|R-- .... ....|R-- .... ....|--- .... ....
 D-4|..|D-3 2C.F ....|D-3 2C.F ....|--- .... ....
....|..|R-- .... ....|R-- .... ....|--- .... ....
 D-4|..|D-3 2C.F ....|D-3 2C.F ....|--- .... ....
....|..|--- .... ....|--- .... ....|--- .... ....
....|..|--- .... ....|--- .... ....|--- .... ....
....|..|R-- .... ....|R-- .... ....|--- .... ....
 A-3|..|A-2 2C.F ....|A-2 2C.F ....|--- .... ....
....|..|--- .... ....|--- .... ....|--- .... ....
....|..|R-- .... ....|R-- .... ....|--- .... ....
....|..|R-- .... ....|R-- .... ....|--- .... ....
 D-4|..|D-3 2F.7 ....|G-5 2F4F ....|G-5 2F4F ....
....|..|R-- .... ....|R-- .... ....|--- .... ....
 D-4|..|D-3 2F.A ....|R-- .... ....|R-- .... ....
....|..|R-- .... ....|R-- .... ....|--- .... ....
 D-4|..|D-3 2F.7 ....|D-3 2F.7 ....|--- .... ....
....|..|--- .... ....|--- .... ....|--- .... ....
....|..|--- .... ....|--- .... ....|--- .... ....
....|..|R-- .... ....|R-- .... ....|--- .... ....
 D-4|..|D-3 2C.F ....|C-4 AF.F ....|D-4 2F.F ....
....|..|--- .... ....|--- .... ....|--- .... ....
....|..|R-- .... ....|D-5 2F4F ....|D-5 2F4F ....
....|..|R-- .... ....|R-- .... ....|R-- .... ....
 D-4|..|D-3 2C.F ....|D-4 2F5F ....|D-4 2F.F ....
....|..|R-- .... ....|R-- .... ....|--- .... ....
 D-4|..|D-3 2F.7 ....|D-5 2F4F ....|D-5 2F4F ....
....|..|R-- .... ....|R-- .... ....|--- .... ....
 D-4|..|D-3 2C.F ....|C-4 CF.F ....|F#4 2F.F ....
....|..|--- .... ....|--- .... ....|--- .... ....
....|..|--- .... ....|D-5 2F4F ....|D-5 2F4F ....
....|..|R-- .... ....|R-- .... ....|--- .... ....
 D-4|..|D-3 2C.F ....|G-3 2F.F ....|A-4 2F.F ....
....|..|R-- .... ....|R-- .... ....|--- .... ....
 D-4|..|D-3 2C.F ....|D-5 2F4F ....|D-5 2F4F ....
....|..|R-- .... ....|R-- .... ....|A-4 2F.F ....
 D-4|..|D-3 2C.F ....|D-4 2F5F ....|A-4 2F.F ....
....|..|--- .... ....|--- .... ....|--- .... ....
....|..|--- .... ....|R-- .... ....|R-- .... ....
....|..|R-- .... ....|D-5 2F4F ....|D-5 2F4F ....
 A-3|..|A-2 2C.F ....|C-4 AF.F ....|A-4 2F.F ....
....|..|--- .... ....|--- .... ....|--- .... ....
....|..|R-- .... ....|R-- .... ....|D-5 2F4A ....
....|..|R-- .... ....|D-5 2F4F ....|D-5 2F4F ....
 D-4|..|D-3 2F.7 ....|C-4 CF.F ....|F#4 2F.F ....
....|..|R-- .... ....|R-- .... ....|--- .... ....
 D-4|..|D-3 2F.A ....|D-5 2F47 ....|D-5 2F47 ....
....|..|R-- .... ....|R-- .... ....|F#4 2F.F ....
 D-4|..|D-3 2F.7 ....|A-3 2F6F ....|F#4 2F.F ....
....|..|--- .... ....|--- .... ....|--- .... ....
....|..|--- .... ....|D-5 2F47 ....|D-5 2F47 ....
....|..|R-- .... ....|R-- .... ....|D-4 2F.F ....

[Pattern20]
 D-4|..|D-3 2C.F ....|C-4 AF.F ....|E-4 2F.F ....
....|..|--- .... ....|--- .... ....|--- .... ....
....|..|R-- .... ....|D-5 2F47 ....|D-5 2F47 ....
....|..|R-- .... ....|R-- .... ....|R-- .... ....
 D-4|..|D-3 2C.F ....|A-3 2F2F ....|C#5 2F.F ....
....|..|R-- .... ....|R-- .... ....|--- .... ....
 D-4|..|D-3 2F.7 ....|D-5 2F47 ....|D-5 2F47 ....
....|..|R-- .... ....|R-- .... ....|C#5 2F.F ....
 D-4|..|D-3 2C.F ....|C-4 CF.F ....|C#5 2F.F ....
....|..|--- .... ....|--- .... ....|--- .... ....
....|..|--- .... ....|--- .... ....|--- .... ....
....|..|R-- .... ....|D-5 2F47 ....|D-5 2F47 ....
 D-4|..|D-3 2C.F ....|B-3 2F.F ....|A-4 2F.F ....
....|..|R-- .... ....|R-- .... ....|--- .... ....
 D-4|..|D-3 2C.F ....|D-3 2C.F ....|--- .... ....
....|..|R-- .... ....|D-5 2F47 ....|D-5 2F47 ....
 D-4|..|D-3 2C.F ....|A-3 2F2F ....|A-3 2F2F ....
....|..|--- .... ....|--- .... ....|--- .... ....
....|..|--- .... ....|--- .... ....|--- .... ....
....|..|R-- .... ....|R-- .... ....|A-4 2F.F ....
 A-3|..|A-2 2C.F ....|C-4 AF.F ....|A-4 2F.F ....
....|..|--- .... ....|--- .... ....|--- .... ....
....|..|R-- .... ....|R-- .... ....|--- .... ....
....|..|R-- .... ....|R-- .... ....|D-4 2F.7 ....
 D-4|..|D-3 2F.7 ....|C-4 CF.F ....|E-4 2F.F ....
....|..|R-- .... ....|R-- .... ....|--- .... ....
 D-4|..|D-3 2F.A ....|D-3 2F.A ....|--- .... ....
....|..|R-- .... ....|R-- .... ....|E-4 2F.F ....
 D-4|..|D-3 2F.7 ....|C-4 AF.F ....|E-4 2F.F ....
....|..|--- .... ....|--- .... ....|--- .... ....
....|..|--- .... ....|--- .... ....|--- .... ....
....|..|R-- .... ....|R-- .... ....|E-4 2F.F ....
 D-4|..|D-3 2C.F ....|C-4 AF.F ....|E-4 2F.F ....
....|..|--- .... ....|--- .... ....|--- .... ....
....|..|R-- .... ....|R-- .... ....|--- .... ....
....|..|R-- .... ....|R-- .... ....|R-- .... ....
 D-4|..|D-3 2C.F ....|G-3 2F2F ....|B-4 2F.F ....
....|..|R-- .... ....|R-- .... ....|--- .... ....
 D-4|..|D-3 2F.7 ....|D-3 2F.7 ....|--- .... ....
....|..|R-- .... ....|R-- .... ....|B-4 2F.F ....
 D-4|..|D-3 2C.F ....|C-4 CF.F ....|B-4 2F.F ....
....|..|--- .... ....|--- .... ....|--- .... ....
....|..|--- .... ....|--- .... ....|--- .... ....
....|..|R-- .... ....|R-- .... ....|A-4 2F.7 ....
 D-4|..|D-3 2C.F ....|G-3 2F2F ....|G-4 2F.F ....
....|..|R-- .... ....|R-- .... ....|--- .... ....
 D-4|..|D-3 2C.F ....|D-3 2C.F ....|--- .... ....
....|..|R-- .... ....|R-- .... ....|G-4 2F.F ....
 D-4|..|D-3 2C.F ....|G-3 2F2F ....|G-4 2F.F ....
....|..|--- .... ....|--- .... ....|--- .... ....
....|..|--- .... ....|--- .... ....|--- .... ....
....|..|R-- .... ....|R-- .... ....|G-4 2F.F ....
 A-3|..|A-2 2C.F ....|C-4 AF.F ....|G-4 2F.F ....
....|..|--- .... ....|--- .... ....|--- .... ....
....|..|R-- .... ....|R-- .... ....|--- .... ....
....|..|R-- .... ....|R-- .... ....|G-4 2F.F ....
 D-4|..|D-3 2F.7 ....|C-4 CF.F ....|G-4 2F.F ....
....|..|R-- .... ....|R-- .... ....|--- .... ....
 D-4|..|D-3 2F.A ....|D-3 2F.A ....|--- .... ....
....|..|R-- .... ....|R-- .... ....|G-4 2F.F ....
 D-4|..|D-3 2F.7 ....|G-3 2F2F ....|G-4 2F.F ....
....|..|--- .... ....|--- .... ....|--- .... ....
....|..|--- .... ....|--- .... ....|--- .... ....
....|..|R-- .... ....|R-- .... ....|G-4 2F.F ....

[Pattern21]
 D-4|..|D-3 2C.F ....|C-4 AF.F ....|E-4 2F.F ....
....|..|--- .... ....|--- .... ....|--- .... ....
....|..|R-- .... ....|R-- .... ....|--- .... ....
....|..|R-- .... ....|R-- .... ....|R-- .... ....
 D-4|..|D-3 2C.F ....|A-3 2F2F ....|A-4 2F.F ....
....|..|R-- .... ....|R-- .... ....|--- .... ....
 D-4|..|D-3 2F.7 ....|D-3 2F.7 ....|--- .... ....
....|..|R-- .... ....|R-- .... ....|G-4 2F.7 ....
 D-4|..|D-3 2C.F ....|C-4 CF.F ....|A-3 2F2F ....
....|..|--- .... ....|--- .... ....|--- .... ....
....|..|--- .... ....|--- .... ....|--- .... ....
....|..|R-- .... ....|R-- .... ....|A-4 2F.F ....
 D-4|..|D-3 2C.F ....|A-3 2F2F ....|D-4 2F.F ....
....|..|R-- .... ....|R-- .... ....|--- .... ....
 D-4|..|D-3 2C.F ....|D-3 2C.F ....|--- .... ....
....|..|R-- .... ....|R-- .... ....|G-4 2F.7 ....
 D-4|..|D-3 2C.F ....|A-3 2F2F ....|C#4 2F.F ....
....|..|--- .... ....|--- .... ....|--- .... ....
....|..|--- .... ....|--- .... ....|--- .... ....
....|..|R-- .... ....|R-- .... ....|G-4 2F.7 ....
....|..|D-4 2F.F ....|C-4 AF.F ....|B-3 2F.F ....
....|..|--- .... ....|--- .... ....|--- .... ....
....|..|--- .... ....|--- .... ....|--- .... ....
....|..|R-- .... ....|R-- .... ....|G-4 2F.7 ....
 A-3|..|A-2 2C.F ....|C-4 CF.F ....|A-4 2F.F ....
....|..|R-- .... ....|R-- .... ....|--- .... ....
 D-4|..|D-3 2F.A ....|A-3 2F2F ....|A-3 2F2F ....
....|..|R-- .... ....|R-- .... ....|R-- .... ....
 D-4|..|D-3 2F.7 ....|C-4 AF.F ....|C#4 2F.F ....
....|..|--- .... ....|--- .... ....|--- .... ....
....|..|--- .... ....|--- .... ....|--- .... ....
....|..|R-- .... ....|R-- .... ....|R-- .... ....
 D-4|..|D-2 2A.F ....|C-4 AF.F ....|D-4 2F.F ....
....|..|--- .... ....|--- .... ....|--- .... ....
....|..|--- .... ....|--- .... ....|--- .... ....
....|..|R-- .... ....|D-5 2F4F ....|D-5 2F4F ....
 D-4|..|D-2 2A.F ....|D-4 2F5F ....|D-4 2F.F ....
....|..|R-- .... ....|R-- .... ....|--- .... ....
 D-4|..|D-3 2F.7 ....|D-3 2F.7 ....|A-3 2F2A ....
....|..|D-3 2F.F ....|D-5 2F4F ....|D-3 2F.F ....
 D-4|..|D-2 2A.F ....|C-4 CF.F ....|F#4 2F.F ....
....|..|--- .... ....|--- .... ....|--- .... ....
....|..|--- .... ....|--- .... ....|--- .... ....
....|..|R-- .... ....|D-5 2F4F ....|D-5 2F4F ....
 D-4|..|D-2 2A.F ....|G-3 2F.F ....|A-4 2F.F ....
....|..|R-- .... ....|R-- .... ....|--- .... ....
 D-4|..|D-2 2A.F ....|D-2 2A.F ....|--- .... ....
....|..|R-- .... ....|D-5 2F4F ....|D-5 2F4F ....
 D-4|..|D-2 2A.F ....|D-4 2F5F ....|D-4 2F5F ....
....|..|--- .... ....|--- .... ....|--- .... ....
....|..|--- .... ....|A-3 2F27 ....|A-3 2F27 ....
....|..|R-- .... ....|D-5 2F4F ....|A-4 2F.F ....
 D-4|..|D-2 2A.F ....|C-4 AF.F ....|A-4 2F.F ....
....|..|--- .... ....|--- .... ....|--- .... ....
....|..|--- .... ....|--- .... ....|--- .... ....
....|..|A-4 2F.F ....|D-5 2F4F ....|A-4 2F.F ....
 D-4|..|D-2 2A.F ....|C-4 CF.F ....|F#4 2F.F ....
....|..|R-- .... ....|R-- .... ....|--- .... ....
 D-4|..|D-2 2F.A ....|D-2 2F.A ....|--- .... ....
....|..|F#4 2F.F ....|D-5 2F4F ....|F#4 2F.F ....
 E-4|..|E-2 2A.F ....|D-4 2F5F ....|F#4 2F.F ....
....|..|--- .... ....|--- .... ....|--- .... ....
....|..|--- .... ....|--- .... ....|--- .... ....
....|..|D-4 2F.F ....|D-5 2F4F ....|D-4 2F.F ....

[Pattern22]
 C#4|..|C#2 2A.F ....|C-4 AF.F ....|E-4 2F.F ....
....|..|--- .... ....|--- .... ....|--- .... ....
....|..|--- .... ....|--- .... ....|--- .... ....
....|..|R-- .... ....|D-5 2F47 ....|D-5 2F47 ....
 C#4|..|C#2 2A.F ....|A-3 2F2F ....|C#5 2F.F ....
....|..|R-- .... ....|R-- .... ....|--- .... ....
 D-4|..|D-2 2F.7 ....|D-2 2F.7 ....|--- .... ....
....|..|C#5 2F.F ....|D-5 2F47 ....|C#5 2F.F ....
 C#4|..|C#2 2A.F ....|C-4 CF.F ....|C#5 2F.F ....
....|..|--- .... ....|--- .... ....|--- .... ....
....|..|--- .... ....|--- .... ....|--- .... ....
....|..|R-- .... ....|D-5 2F47 ....|D-4 2F.F ....
 C#4|..|C#2 2A.F ....|B-3 2F.F ....|B-4 2F.F ....
....|..|R-- .... ....|R-- .... ....|--- .... ....
 C#4|..|C#2 2A.F ....|C#2 2A.F ....|--- .... ....
....|..|A-4 2F.7 ....|D-5 2F47 ....|A-4 2F.7 ....
 C#4|..|C#2 2A.F ....|A-3 2F2F ....|A-3 2F2F ....
....|..|--- .... ....|--- .... ....|--- .... ....
....|..|--- .... ....|--- .... ....|--- .... ....
....|..|A-4 2F.F ....|D-5 2F47 ....|B-4 2F.F ....
 A-3|..|A-1 2A.F ....|C-4 AF.F ....|B-4 2F.F ....
....|..|--- .... ....|--- .... ....|--- .... ....
....|..|--- .... ....|--- .... ....|--- .... ....
....|..|D-4 2F.7 ....|D-5 2F47 ....|D-4 2F.F ....
....|..|E-4 2F.F ....|C-4 CF.F ....|B-4 2F.F ....
....|..|R-- .... ....|R-- .... ....|--- .... ....
 C#4|..|C#2 2F.A ....|C#2 2F.A ....|--- .... ....
....|..|E-4 2F.F ....|R-- .... ....|B-4 2F.F ....
....|..|E-4 2F.F ....|A-3 2F2F ....|B-4 2F.F ....
....|..|--- .... ....|--- .... ....|--- .... ....
....|..|--- .... ....|--- .... ....|--- .... ....
....|..|C#5 2F.7 ....|R-- .... ....|C#5 2F.7 ....
 B-3|..|B-1 2A.F ....|C-4 AF.F ....|G-4 2F.F ....
....|..|--- .... ....|--- .... ....|--- .... ....
....|..|--- .... ....|--- .... ....|--- .... ....
....|..|R-- .... ....|R-- .... ....|D-4 2F.7 ....
 B-3|..|B-1 2A.F ....|G-3 2F2F ....|G-4 2F.F ....
....|..|R-- .... ....|R-- .... ....|--- .... ....
 C#4|..|C#2 2F.7 ....|C#2 2F.7 ....|--- .... ....
....|..|R-- .... ....|R-- .... ....|R-- .... ....
 B-3|..|B-1 2A.F ....|C-4 CF.F ....|G-4 2F.F ....
....|..|--- .... ....|--- .... ....|--- .... ....
....|..|--- .... ....|--- .... ....|--- .... ....
....|..|A-4 2F.7 ....|R-- .... ....|B-3 2F.F ....
 B-3|..|B-1 2A.F ....|G-3 2F2F ....|A-4 2F.F ....
....|..|R-- .... ....|R-- .... ....|--- .... ....
 B-3|..|B-1 2A.F ....|B-1 2A.F ....|--- .... ....
....|..|R-- .... ....|R-- .... ....|D-4 2F.7 ....
 B-3|..|B-1 2A.F ....|G-3 2F2F ....|G-3 2F2F ....
....|..|--- .... ....|--- .... ....|--- .... ....
....|..|--- .... ....|--- .... ....|--- .... ....
....|..|E-4 2F.7 ....|R-- .... ....|D-4 2F.F ....
 A-3|..|A-1 2A.F ....|C-4 AF.F ....|G-4 2F.F ....
....|..|--- .... ....|--- .... ....|--- .... ....
....|..|--- .... ....|--- .... ....|--- .... ....
....|..|R-- .... ....|R-- .... ....|R-- .... ....
 B-3|..|B-1 2F.7 ....|C-4 CF.F ....|G-3 2F2F ....
....|..|R-- .... ....|R-- .... ....|--- .... ....
 B-3|..|B-1 2F.A ....|B-1 2F.A ....|--- .... ....
....|..|R-- .... ....|R-- .... ....|R-- .... ....
 B-3|..|B-1 2A.F ....|G-3 2F2F ....|F#4 2F.F ....
....|..|--- .... ....|--- .... ....|--- .... ....
....|..|--- .... ....|--- .... ....|--- .... ....
....|..|R-- .... ....|R-- .... ....|R-- .... ....

[Pattern23]
 A-3|..|A-1 2A.F ....|C-4 AF.F ....|E-4 2F.F ....
....|..|--- .... ....|--- .... ....|--- .... ....
....|..|--- .... ....|--- .... ....|--- .... ....
....|..|R-- .... ....|R-- .... ....|B-3 2F.7 ....
 A-3|..|A-1 2A.F ....|A-3 2F2F ....|C#5 2F.F ....
....|..|R-- .... ....|R-- .... ....|--- .... ....
 B-3|..|B-1 2F.7 ....|B-1 2F.7 ....|--- .... ....
....|..|R-- .... ....|R-- .... ....|R-- .... ....
 A-3|..|A-1 2A.F ....|C-4 CF.F ....|E-4 2F.F ....
....|..|--- .... ....|--- .... ....|--- .... ....
....|..|--- .... ....|--- .... ....|--- .... ....
....|..|R-- .... ....|R-- .... ....|D-4 2F.7 ....
 A-3|..|A-1 2A.F ....|A-3 2F2F ....|D-4 2F.F ....
....|..|--- .... ....|--- .... ....|--- .... ....
....|..|--- .... ....|--- .... ....|--- .... ....
....|..|R-- .... ....|R-- .... ....|R-- .... ....
 B-3|..|B-1 2A.F ....|A-3 2F2F ....|C#4 2F.F ....
....|..|--- .... ....|--- .... ....|--- .... ....
....|..|--- .... ....|--- .... ....|--- .... ....
....|..|R-- .... ....|R-- .... ....|R-- .... ....
 A-3|..|A-1 2A.F ....|C-4 AF.F ....|B-3 2F.F ....
....|..|--- .... ....|--- .... ....|--- .... ....
....|..|--- .... ....|--- .... ....|--- .... ....
....|..|R-- .... ....|R-- .... ....|R-- .... ....
 C#4|..|C#2 2A.F ....|C-4 CF.F ....|A-4 2F.F ....
....|..|--- .... ....|--- .... ....|--- .... ....
....|..|--- .... ....|A-3 2F2F ....|A-3 2F2F ....
....|..|R-- .... ....|R-- .... ....|R-- .... ....
 A-3|..|A-1 2A.F ....|C-4 AF.F ....|B-3 2F.F ....
....|..|--- .... ....|--- .... ....|--- .... ....
....|..|--- .... ....|--- .... ....|--- .... ....
....|..|R-- .... ....|R-- .... ....|R-- .... ....
 D-4|..|D-2 2A.F ....|C-4 AF.F ....|D-4 2F.F ....
....|..|--- .... ....|--- .... ....|--- .... ....
....|..|--- .... ....|--- .... ....|--- .... ....
....|..|R-- .... ....|D-5 2F4F ....|D-5 2F4F ....
 D-4|..|D-2 2A.F ....|D-4 2F7F ....|D-4 2F7F ....
....|..|--- .... ....|--- .... ....|--- .... ....
....|..|--- .... ....|A-3 2F2A ....|A-3 2F2A ....
....|..|D-3 2F.F ....|D-5 2F4F ....|D-3 2F.F ....
 D-4|..|D-2 2A.F ....|C-4 CF.F ....|D-5 2F.F ....
....|..|--- .... ....|--- .... ....|--- .... ....
....|..|--- .... ....|--- .... ....|--- .... ....
....|..|R-- .... ....|D-5 2F4F ....|D-5 2F4F ....
 D-4|..|D-2 2A.F ....|G-3 2F.F ....|A-4 2F.F ....
....|..|R-- .... ....|R-- .... ....|--- .... ....
 D-4|..|D-2 2A.F ....|D-2 2A.F ....|--- .... ....
....|..|R-- .... ....|D-5 2F4F ....|D-5 2F4F ....
 D-4|..|D-2 2A.F ....|D-4 2F7F ....|D-4 2F7F ....
....|..|--- .... ....|--- .... ....|--- .... ....
....|..|--- .... ....|A-3 2F27 ....|A-3 2F27 ....
....|..|R-- .... ....|D-5 2F4F ....|A-4 2F.F ....
 D-4|..|D-2 2A.F ....|C-4 AF.F ....|A-4 2F.F ....
....|..|--- .... ....|--- .... ....|--- .... ....
....|..|--- .... ....|--- .... ....|--- .... ....
....|..|A-4 2F.F ....|D-5 2F4F ....|A-4 2F.F ....
 D-4|..|D-2 2A.F ....|C-4 CF.F ....|F#4 2F.F ....
....|..|R-- .... ....|R-- .... ....|--- .... ....
....|..|R-- .... ....|R-- .... ....|--- .... ....
....|..|F#4 2F.F ....|D-5 2F4F ....|F#4 2F.F ....
 D-4|..|D-2 2A.F ....|C-4 AF.F ....|F#4 2F.F ....
....|..|--- .... ....|--- .... ....|--- .... ....
....|..|R-- .... ....|R-- .... ....|--- .... ....
....|..|D-4 2F.F ....|D-5 2F4F ....|D-4 2F.F ....

[Pattern24]
 C#4|..|C#2 2A.F ....|C-4 AF.F ....|A-4 2F.F ....
....|..|--- .... ....|--- .... ....|--- .... ....
....|..|--- .... ....|--- .... ....|--- .... ....
....|..|R-- .... ....|D-5 2F47 ....|D-5 2F47 ....
 C#4|..|C#2 2A.F ....|C#4 2F1F ....|A-4 2F.F ....
....|..|R-- .... ....|R-- .... ....|--- .... ....
 D-4|..|D-2 2F.7 ....|D-2 2F.7 ....|--- .... ....
....|..|C#5 2F.F ....|D-5 2F47 ....|C#5 2F.F ....
 C#4|..|C#2 2A.F ....|C-4 CF.F ....|A-4 2F.F ....
....|..|--- .... ....|--- .... ....|--- .... ....
....|..|R-- .... ....|R-- .... ....|--- .... ....
....|..|R-- .... ....|D-5 2F47 ....|D-4 2F.F ....
 C#4|..|C#2 2A.F ....|B-3 2F.F ....|B-4 2F.F ....
....|..|R-- .... ....|R-- .... ....|--- .... ....
 C#4|..|C#2 2A.F ....|C#2 2A.F ....|--- .... ....
....|..|A-4 2F.7 ....|D-5 2F47 ....|A-4 2F.7 ....
 C#4|..|C#2 2A.F ....|C#4 2F1F ....|C#4 2F1F ....
....|..|--- .... ....|--- .... ....|--- .... ....
....|..|R-- .... ....|R-- .... ....|--- .... ....
....|..|A-4 2F.F ....|D-5 2F47 ....|B-4 2F.F ....
 C#4|..|C#2 2A.F ....|C-4 AF.F ....|B-4 2F.F ....
....|..|--- .... ....|--- .... ....|--- .... ....
....|..|R-- .... ....|R-- .... ....|--- .... ....
....|..|D-4 2F.7 ....|D-5 2F47 ....|D-4 2F.7 ....
....|..|E-4 2F.F ....|C-4 CF.F ....|A-4 2F.F ....
....|..|R-- .... ....|R-- .... ....|--- .... ....
 C#4|..|C#2 2F.A ....|C#2 2F.A ....|--- .... ....
....|..|E-4 2F.F ....|R-- .... ....|A-4 2F.F ....
....|..|E-4 2F.F ....|C#4 2F1F ....|A-4 2F.F ....
....|..|--- .... ....|--- .... ....|--- .... ....
....|..|--- .... ....|--- .... ....|--- .... ....
....|..|C#5 2F.7 ....|R-- .... ....|C#5 2F.7 ....
 B-3|..|B-1 2A.F ....|C-4 AF.F ....|G-4 2F.F ....
....|..|--- .... ....|--- .... ....|--- .... ....
....|..|--- .... ....|--- .... ....|--- .... ....
....|..|R-- .... ....|R-- .... ....|D-4 2F.7 ....
 B-3|..|B-1 2A.F ....|B-3 2F1F ....|G-4 2F.F ....
....|..|R-- .... ....|R-- .... ....|--- .... ....
 C#4|..|C#2 2F.7 ....|C#2 2F.7 ....|--- .... ....
....|..|B-4 2F.F ....|R-- .... ....|B-4 2F.F ....
 B-3|..|B-1 2A.F ....|C-4 CF.F ....|G-4 2F.F ....
....|..|--- .... ....|--- .... ....|--- .... ....
....|..|--- .... ....|--- .... ....|--- .... ....
....|..|A-4 2F.7 ....|R-- .... ....|B-3 2F.F ....
 B-3|..|B-1 2A.F ....|B-3 2F1F ....|A-4 2F.F ....
....|..|--- .... ....|--- .... ....|--- .... ....
....|..|--- .... ....|--- .... ....|--- .... ....
....|..|R-- .... ....|R-- .... ....|R-- .... ....
 B-3|..|B-1 2A.F ....|B-3 2F1F ....|A-4 2F.F ....
....|..|--- .... ....|--- .... ....|--- .... ....
....|..|--- .... ....|--- .... ....|--- .... ....
....|..|G-4 2F.F ....|R-- .... ....|G-4 2F.F ....
 G-4|..|G-2 2A.F ....|C-4 AF.F ....|B-4 2F.F ....
....|..|--- .... ....|--- .... ....|--- .... ....
....|..|--- .... ....|--- .... ....|--- .... ....
....|..|R-- .... ....|R-- .... ....|B-4 2F.F ....
....|..|D-4 2F.F ....|C-4 CF.F ....|B-4 2F.F ....
....|..|--- .... ....|--- .... ....|--- .... ....
....|..|--- .... ....|--- .... ....|--- .... ....
....|..|D-4 2F.F ....|R-- .... ....|D-4 2F.F ....
 B-3|..|B-1 2A.F ....|B-3 2F1F ....|B-4 2F.F ....
....|..|--- .... ....|--- .... ....|--- .... ....
....|..|--- .... ....|--- .... ....|--- .... ....
....|..|B-4 2F.7 ....|R-- .... ....|B-4 2F.7 ....

[Pattern25]
 A-3|..|A-1 2A.F ....|C-4 AF.F ....|F#4 2F.F ....
....|..|--- .... ....|--- .... ....|--- .... ....
....|..|--- .... ....|--- .... ....|--- .... ....
....|..|R-- .... ....|R-- .... ....|B-3 2F.7 ....
 A-3|..|A-1 2A.F ....|C#4 2F1F ....|F#4 2F.F ....
....|..|--- .... ....|--- .... ....|--- .... ....
....|..|--- .... ....|--- .... ....|--- .... ....
....|..|R-- .... ....|R-- .... ....|E-4 2F.F ....
 A-3|..|A-1 2A.F ....|C-4 CF.F ....|F#4 2F.F ....
....|..|--- .... ....|--- .... ....|--- .... ....
....|..|--- .... ....|--- .... ....|--- .... ....
....|..|G-4 2F.7 ....|R-- .... ....|G-4 2F.7 ....
 A-3|..|A-1 2A.F ....|C#4 2F1F ....|D-4 2F.F ....
....|..|--- .... ....|--- .... ....|--- .... ....
....|..|--- .... ....|--- .... ....|--- .... ....
....|..|R-- .... ....|R-- .... ....|B-4 2F.7 ....
 B-3|..|B-1 2A.F ....|C#4 2F1F ....|C#4 2F.F ....
....|..|--- .... ....|--- .... ....|--- .... ....
....|..|--- .... ....|--- .... ....|--- .... ....
....|..|D-4 2F.7 ....|R-- .... ....|D-4 2F.7 ....
 A-3|..|A-1 2A.F ....|C#4 2F1F ....|B-3 2F.F ....
....|..|--- .... ....|--- .... ....|--- .... ....
....|..|--- .... ....|--- .... ....|--- .... ....
....|..|R-- .... ....|R-- .... ....|R-- .... ....
 C#4|..|C#2 2A.F ....|C-4 CF.F ....|A-3 2F.F ....
....|..|--- .... ....|C-4 CF.F ....|--- .... ....
....|..|--- .... ....|C#4 2F1F ....|C#4 2F1F ....
....|..|R-- .... ....|R-- .... ....|R-- .... ....
 A-3|..|A-1 2A.F ....|C-4 AF.F ....|G-3 2F.F ....
....|..|--- .... ....|--- .... ....|--- .... ....
....|..|--- .... ....|--- .... ....|--- .... ....
....|..|R-- .... ....|R-- .... ....|E-4 2F.7 ....
 G-4|..|G-2 2A.F ....|C-4 AF.F ....|G-4 2F.F ....
....|..|--- .... ....|--- .... ....|--- .... ....
....|..|--- .... ....|R-- .... ....|--- .... ....
....|..|R-- .... ....|R-- .... ....|R-- .... ....
 G-4|..|G-2 2A.F ....|C-4 AF.F ....|D-4 2F6F ....
....|..|--- .... ....|C-4 CF.A ....|--- .... ....
....|..|--- .... ....|R-- .... ....|C#4 2F1A ....
....|..|R-- .... ....|R-- .... ....|R-- .... ....
 G-4|..|G-2 2A.F ....|C-4 CF.F ....|D-4 2F6F ....
....|..|--- .... ....|--- .... ....|--- .... ....
....|..|--- .... ....|R-- .... ....|--- .... ....
....|..|R-- .... ....|R-- .... ....|R-- .... ....
 G-4|..|G-2 2A.F ....|C-4 AF.F ....|G-4 2F.F ....
....|..|--- .... ....|--- .... ....|--- .... ....
....|..|--- .... ....|R-- .... ....|--- .... ....
....|..|R-- .... ....|R-- .... ....|R-- .... ....
 G-4|..|G-2 2A.F ....|C-4 CF.F ....|D-4 2F6F ....
....|..|--- .... ....|C-4 CF.7 ....|--- .... ....
....|..|--- .... ....|C#4 2F17 ....|C#4 2F17 ....
....|..|R-- .... ....|R-- .... ....|R-- .... ....
 G-4|..|G-2 2A.F ....|C-4 AF.F ....|D-4 2F6F ....
....|..|--- .... ....|--- .... ....|--- .... ....
....|..|--- .... ....|R-- .... ....|--- .... ....
....|..|R-- .... ....|R-- .... ....|R-- .... ....
 G-4|..|G-2 2A.F ....|C-4 CF.F ....|D-4 2F6F ....
....|..|--- .... ....|--- .... ....|--- .... ....
....|..|--- .... ....|R-- .... ....|--- .... ....
....|..|R-- .... ....|R-- .... ....|R-- .... ....
 G-4|..|G-2 2A.F ....|C-4 AF.F ....|D-4 2F6F ....
....|..|--- .... ....|--- .... ....|--- .... ....
....|..|--- .... ....|R-- .... ....|--- .... ....
....|..|R-- .... ....|R-- .... ....|R-- .... ....

[Pattern26]
 G-4|..|G-2 2A.F ....|C-4 CF.F ....|E-4 2F.F ....
....|..|--- .... ....|--- .... ....|--- .... ....
....|..|--- .... ....|R-- .... ....|--- .... ....
....|..|R-- .... ....|R-- .... ....|R-- .... ....
 G-4|..|G-2 2A.F ....|C-4 AF.F ....|G-4 2F.7 ....
....|..|--- .... ....|--- .... ....|--- .... ....
....|..|--- .... ....|R-- .... ....|--- .... ....
....|..|R-- .... ....|R-- .... ....|R-- .... ....
 G-4|..|G-2 2A.F ....|C-4 CF.F ....|D-4 2F67 ....
....|..|--- .... ....|--- .... ....|--- .... ....
....|..|--- .... ....|R-- .... ....|--- .... ....
....|..|R-- .... ....|R-- .... ....|R-- .... ....
 G-4|..|G-2 2A.F ....|C-4 AF.F ....|G-4 2F.F ....
....|..|--- .... ....|--- .... ....|--- .... ....
....|..|--- .... ....|R-- .... ....|--- .... ....
....|..|R-- .... ....|R-- .... ....|R-- .... ....
 G-4|..|G-2 2A.F ....|C-4 CF.F ....|D-4 2F67 ....
....|..|--- .... ....|--- .... ....|--- .... ....
....|..|--- .... ....|R-- .... ....|--- .... ....
....|..|R-- .... ....|R-- .... ....|R-- .... ....
 G-4|..|G-2 2A.F ....|C-4 AF.F ....|A-4 2F.F ....
....|..|R-- .... ....|R-- .... ....|--- .... ....
 G-4|..|G-2 2A.F ....|G-2 2A.F ....|--- .... ....
....|..|R-- .... ....|R-- .... ....|R-- .... ....
 G-4|..|G-2 2A.F ....|C-4 CF.F ....|A-4 2F9F ....
....|..|--- .... ....|--- .... ....|--- .... ....
....|..|--- .... ....|E-4 2F6F ....|E-4 2F6F ....
....|..|R-- .... ....|R-- .... ....|--- .... ....
 G-4|..|G-2 2A.F ....|C-4 AF.F ....|--- .... ....
....|..|--- .... ....|--- .... ....|--- .... ....
....|..|--- .... ....|R-- .... ....|--- .... ....
....|..|R-- .... ....|R-- .... ....|--- .... ....
 G-4|..|G-2 2A.F ....|C-4 CF.F ....|G-4 2F.F ....
....|..|R-- .... ....|R-- .... ....|--- .... ....
 G-4|..|G-2 2F.A ....|R-- .... ....|--- .... ....
....|..|R-- .... ....|R-- .... ....|R-- .... ....
 G-4|..|G-2 2A.F ....|C-4 AF.F ....|G-4 2F.7 ....
....|..|--- .... ....|--- .... ....|--- .... ....
....|..|--- .... ....|R-- .... ....|E-4 2F6A ....
....|..|R-- .... ....|R-- .... ....|--- .... ....
 G-4|..|G-2 2A.F ....|C-4 CF.F ....|--- .... ....
....|..|--- .... ....|--- .... ....|--- .... ....
....|..|--- .... ....|R-- .... ....|--- .... ....
....|..|D-3 2F.F ....|R-- .... ....|D-3 2F.F ....
 G-4|..|G-2 2A.F ....|C-4 AF.F ....|G-4 2F.F ....
....|..|R-- .... ....|R-- .... ....|--- .... ....
 G-4|..|G-2 2F.7 ....|G-2 2F.7 ....|--- .... ....
....|..|R-- .... ....|R-- .... ....|--- .... ....
 G-4|..|G-2 2A.F ....|C-4 CF.F ....|F#4 2F.F ....
....|..|--- .... ....|--- .... ....|--- .... ....
....|..|--- .... ....|E-4 2F67 ....|E-4 2F67 ....
....|..|R-- .... ....|D-5 2F4F ....|D-5 2F4F ....
 G-4|..|G-2 2A.F ....|C-4 AF.F ....|D-4 2F.F ....
....|..|--- .... ....|--- .... ....|--- .... ....
....|..|--- .... ....|R-- .... ....|--- .... ....
....|..|R-- .... ....|R-- .... ....|D-3 2F.A ....
 D-4|..|D-2 2A.F ....|C-4 CF.F ....|B-3 2F.F ....
....|..|--- .... ....|--- .... ....|--- .... ....
....|..|--- .... ....|R-- .... ....|--- .... ....
....|..|R-- .... ....|R-- .... ....|--- .... ....
 G-4|..|G-2 2F.7 ....|C-4 AF.F ....|F#4 2F.A ....
....|..|--- .... ....|--- .... ....|--- .... ....
....|..|--- .... ....|R-- .... ....|--- .... ....
....|..|R-- .... ....|D-5 2F4F ....|D-5 2F4F ....

[Pattern27]
 G-4|..|G-2 2A.F ....|C-4 CF.F ....|E-4 2F.F ....
....|..|--- .... ....|--- .... ....|--- .... ....
....|..|--- .... ....|R-- .... ....|--- .... ....
....|..|D-3 2F.7 ....|R-- .... ....|D-3 2F.7 ....
 G-4|..|G-2 2A.F ....|C-4 AF.F ....|G-4 2F.7 ....
....|..|--- .... ....|--- .... ....|--- .... ....
....|..|--- .... ....|R-- .... ....|--- .... ....
....|..|R-- .... ....|R-- .... ....|--- .... ....
 G-4|..|G-2 2A.F ....|C-4 CF.F ....|F#4 2F.7 ....
....|..|--- .... ....|--- .... ....|--- .... ....
....|..|--- .... ....|R-- .... ....|--- .... ....
....|..|R-- .... ....|D-5 2F47 ....|D-5 2F47 ....
 G-4|..|G-2 2A.F ....|C-4 AF.F ....|C#4 2F.F ....
....|..|--- .... ....|--- .... ....|--- .... ....
....|..|--- .... ....|R-- .... ....|--- .... ....
....|..|R-- .... ....|R-- .... ....|--- .... ....
 G-4|..|G-2 2A.F ....|C-4 CF.F ....|E-4 2F.F ....
....|..|--- .... ....|--- .... ....|--- .... ....
....|..|--- .... ....|R-- .... ....|--- .... ....
....|..|R-- .... ....|R-- .... ....|--- .... ....
 G-4|..|G-2 2A.F ....|C-4 AF.F ....|A-4 2F.F ....
....|..|R-- .... ....|R-- .... ....|--- .... ....
 G-4|..|G-2 2A.F ....|G-2 2A.F ....|--- .... ....
....|..|A-4 2F.F ....|D-5 2F47 ....|A-4 2F.F ....
 G-4|..|G-2 2A.F ....|C-4 CF.F ....|A-4 2F.F ....
....|..|--- .... ....|--- .... ....|--- .... ....
....|..|--- .... ....|R-- .... ....|--- .... ....
....|..|R-- .... ....|R-- .... ....|--- .... ....
 G-4|..|G-2 2A.F ....|C-4 AF.F ....|E-4 2F.A ....
....|..|--- .... ....|--- .... ....|--- .... ....
....|..|--- .... ....|R-- .... ....|--- .... ....
....|..|R-- .... ....|R-- .... ....|R-- .... ....
 G-4|..|G-2 2A.F ....|C-4 CF.F ....|G-4 2F.F ....
....|..|R-- .... ....|R-- .... ....|--- .... ....
 G-4|..|G-2 2F.A ....|R-- .... ....|--- .... ....
....|..|R-- .... ....|R-- .... ....|R-- .... ....
 G-4|..|G-2 2A.F ....|C-4 AF.F ....|C#4 2F.7 ....
....|..|--- .... ....|--- .... ....|--- .... ....
....|..|--- .... ....|R-- .... ....|--- .... ....
....|..|R-- .... ....|R-- .... ....|--- .... ....
 G-4|..|G-2 2A.F ....|C-4 CF.F ....|E-4 2F.7 ....
....|..|--- .... ....|--- .... ....|--- .... ....
....|..|--- .... ....|R-- .... ....|--- .... ....
....|..|D-3 2F.F ....|R-- .... ....|D-3 2F.F ....
 G-4|..|G-2 2A.F ....|C-4 AF.F ....|G-4 2F.F ....
....|..|R-- .... ....|R-- .... ....|--- .... ....
 G-4|..|G-2 2F.7 ....|G-2 2F.7 ....|--- .... ....
....|..|A-4 2F.7 ....|R-- .... ....|A-4 2F.7 ....
 G-4|..|G-2 2A.F ....|C-4 CF.F ....|F#4 2F.F ....
....|..|--- .... ....|--- .... ....|--- .... ....
....|..|--- .... ....|R-- .... ....|--- .... ....
....|..|R-- .... ....|R-- .... ....|--- .... ....
 G-4|..|G-2 2A.F ....|C-4 AF.F ....|D-4 2F.F ....
....|..|--- .... ....|--- .... ....|--- .... ....
....|..|--- .... ....|R-- .... ....|--- .... ....
....|..|R-- .... ....|R-- .... ....|R-- .... ....
 G-4|..|G-2 2A.F ....|C-4 CF.F ....|B-3 2F.F ....
....|..|--- .... ....|--- .... ....|--- .... ....
....|..|--- .... ....|R-- .... ....|--- .... ....
....|..|R-- .... ....|R-- .... ....|--- .... ....
 G-4|..|G-2 2A.F ....|C-4 AF.F ....|F#4 2F.A ....
....|..|--- .... ....|--- .... ....|--- .... ....
....|..|--- .... ....|R-- .... ....|--- .... ....
....|..|R-- .... ....|R-- .... ....|R-- .... ....

[Pattern28]
 G-4|..|G-2 2A.F ....|C-4 CF.F ....|E-4 2F.F ....
....|..|--- .... ....|--- .... ....|--- .... ....
....|..|--- .... ....|R-- .... ....|--- .... ....
....|..|D-3 2F.7 ....|R-- .... ....|D-3 2F.7 ....
 G-4|..|G-2 2A.F ....|C-4 AF.F ....|G-4 2F.7 ....
....|..|--- .... ....|--- .... ....|--- .... ....
....|..|--- .... ....|R-- .... ....|--- .... ....
....|..|R-- .... ....|R-- .... ....|--- .... ....
 G-4|..|G-2 2A.F ....|C-4 CF.F ....|F#4 2F.7 ....
....|..|--- .... ....|--- .... ....|--- .... ....
....|..|--- .... ....|R-- .... ....|--- .... ....
....|..|R-- .... ....|R-- .... ....|R-- .... ....
 G-4|..|G-2 2A.F ....|C-4 AF.F ....|C#4 2F.F ....
....|..|--- .... ....|--- .... ....|--- .... ....
....|..|--- .... ....|R-- .... ....|--- .... ....
....|..|R-- .... ....|R-- .... ....|R-- .... ....
 G-4|..|G-2 2A.F ....|C-4 CF.F ....|E-4 2F.F ....
....|..|--- .... ....|--- .... ....|--- .... ....
....|..|--- .... ....|R-- .... ....|--- .... ....
....|..|R-- .... ....|R-- .... ....|--- .... ....
 G-4|..|G-2 2A.F ....|C-4 AF.F ....|A-4 2F.F ....
....|..|--- .... ....|--- .... ....|--- .... ....
....|..|--- .... ....|R-- .... ....|--- .... ....
....|..|A-4 2F.F ....|R-- .... ....|A-4 2F.F ....
 D-4|..|D-2 2A.F ....|C-4 CF.F ....|A-4 2F.F ....
....|..|--- .... ....|C-4 CF.F ....|--- .... ....
....|..|--- .... ....|E-4 2F6F ....|E-4 2F6F ....
....|..|R-- .... ....|R-- .... ....|--- .... ....
 G-4|..|G-2 2F.7 ....|C-4 AF.F ....|E-4 2F.A ....
....|..|--- .... ....|--- .... ....|--- .... ....
....|..|--- .... ....|R-- .... ....|--- .... ....
....|..|R-- .... ....|R-- .... ....|--- .... ....
 F#3|..|F#1 2A.F ....|C-4 AF.F ....|D-3 2F.F ....
....|..|--- .... ....|--- .... ....|--- .... ....
....|..|--- .... ....|R-- .... ....|--- .... ....
....|..|R-- .... ....|R-- .... ....|R-- .... ....
....|..|D-4 2F.F ....|C-4 AF.7 ....|A-3 2F.F ....
....|..|--- .... ....|C-4 CF.A ....|--- .... ....
....|..|--- .... ....|R-- .... ....|E-4 2F6A ....
....|..|R-- .... ....|R-- .... ....|--- .... ....
....|..|E-4 2F.F ....|C-4 CF.7 ....|D-3 2F.F ....
....|..|--- .... ....|--- .... ....|--- .... ....
....|..|--- .... ....|R-- .... ....|--- .... ....
....|..|R-- .... ....|R-- .... ....|--- .... ....
....|..|D-4 2F.F ....|C-4 CF.F ....|D-4 2F.F ....
....|..|--- .... ....|--- .... ....|--- .... ....
....|..|--- .... ....|R-- .... ....|--- .... ....
....|..|A-4 2F.7 ....|R-- .... ....|A-4 2F.7 ....
 D-4|..|D-2 2F.7 ....|C-4 CF.7 ....|A-4 2F.7 ....
....|..|--- .... ....|C-4 CF.7 ....|--- .... ....
....|..|--- .... ....|E-4 2F67 ....|E-4 2F67 ....
....|..|--- .... ....|--- .... ....|--- .... ....
....|..|C#4 2F.F ....|C-4 AF.7 ....|C#4 2F.F ....
....|..|--- .... ....|--- .... ....|--- .... ....
....|..|--- .... ....|R-- .... ....|--- .... ....
....|..|--- .... ....|--- .... ....|--- .... ....
 F#3|..|F#1 2F.7 ....|C-4 CF.F ....|D-5 2F4F ....
....|..|--- .... ....|--- .... ....|--- .... ....
....|..|--- .... ....|--- .... ....|--- .... ....
....|..|--- .... ....|--- .... ....|--- .... ....
....|..|D-4 2F.7 ....|R-- .... ....|A-3 2F.7 ....
....|..|--- .... ....|--- .... ....|--- .... ....
....|..|--- .... ....|--- .... ....|--- .... ....
....|..|--- .... ....|R-- .... ....|--- .... ....

[Pattern29]
 G-3|..|G-1 2A.F ....|C-4 AF.F ....|G-4 2F.F ....
....|..|--- .... ....|--- .... ....|--- .... ....
....|..|--- .... ....|--- .... ....|--- .... ....
....|..|--- .... ....|--- .... ....|--- .... ....
....|..|D-4 2F.7 ....|C-4 CF.7 ....|D-4 2F.7 ....
....|..|--- .... ....|--- .... ....|--- .... ....
....|..|--- .... ....|--- .... ....|--- .... ....
....|..|--- .... ....|--- .... ....|--- .... ....
....|..|--- .... ....|R-- .... ....|--- .... ....
....|..|--- .... ....|--- .... ....|--- .... ....
....|..|--- .... ....|--- .... ....|--- .... ....
....|..|--- .... ....|B-3 2FBF ....|B-3 2F.F ....
 A-3|..|A-1 2A.F ....|C-4 AF.F ....|G-4 2F.F ....
....|..|--- .... ....|--- .... ....|--- .... ....
....|..|--- .... ....|--- .... ....|--- .... ....
....|..|--- .... ....|--- .... ....|--- .... ....
....|..|R-- .... ....|C-4 CF.7 ....|D-5 2F47 ....
....|..|--- .... ....|--- .... ....|--- .... ....
....|..|--- .... ....|--- .... ....|--- .... ....
....|..|--- .... ....|--- .... ....|--- .... ....
....|..|--- .... ....|R-- .... ....|--- .... ....
....|..|--- .... ....|--- .... ....|--- .... ....
....|..|--- .... ....|--- .... ....|--- .... ....
....|..|--- .... ....|R-- .... ....|B-3 2F.A ....
 G-3|..|G-1 2F.7 ....|C-4 AF.7 ....|G-4 2F.7 ....
....|..|--- .... ....|--- .... ....|--- .... ....
....|..|--- .... ....|--- .... ....|--- .... ....
....|..|--- .... ....|--- .... ....|--- .... ....
....|..|--- .... ....|R-- .... ....|--- .... ....
....|..|--- .... ....|--- .... ....|--- .... ....
....|..|--- .... ....|--- .... ....|--- .... ....
....|..|--- .... ....|--- .... ....|--- .... ....
....|..|R-- .... ....|R-- .... ....|R-- .... ....
....|..|--- .... ....|--- .... ....|--- .... ....
....|..|--- .... ....|--- .... ....|--- .... ....
....|..|--- .... ....|B-3 2FB7 ....|B-3 2F.7 ....
 A-3|..|A-1 2F.7 ....|C-4 AF.7 ....|G-4 2F.7 ....
....|..|--- .... ....|--- .... ....|--- .... ....
....|..|--- .... ....|--- .... ....|--- .... ....
....|..|--- .... ....|--- .... ....|--- .... ....
....|..|--- .... ....|R-- .... ....|--- .... ....
....|..|--- .... ....|--- .... ....|--- .... ....
....|..|--- .... ....|--- .... ....|--- .... ....
....|..|--- .... ....|--- .... ....|--- .... ....
....|..|R-- .... ....|--- .... ....|R-- .... ....
....|..|--- .... ....|--- .... ....|--- .... ....
....|..|--- .... ....|--- .... ....|--- .... ....
....|..|--- .... ....|--- .... ....|--- .... ....
....|..|--- .... ....|--- .... ....|--- .... ....
....|..|--- .... ....|--- .... ....|--- .... ....
....|..|--- .... ....|--- .... ....|--- .... ....
....|..|--- .... ....|--- .... ....|--- .... ....
....|..|R-- .... ....|R-- .... ....|--- .... ....
....|..|--- .... ....|--- .... ....|--- .... ....
....|..|--- .... ....|--- .... ....|--- .... ....
....|..|--- .... ....|--- .... ....|--- .... ....
....|..|R-- .... ....|--- .... ....|R-- .... ....
....|..|--- .... ....|--- .... ....|--- .... ....
....|..|--- .... ....|--- .... ....|--- .... ....
....|..|--- .... ....|--- .... ....|--- .... ....
....|..|--- .... ....|--- .... ....|--- .... ....
....|..|--- .... ....|--- .... ....|--- .... ....
....|..|--- .... ....|--- .... ....|--- .... ....
....|..|--- .... ....|--- .... ....|--- .... ....

[Pattern30]
 G-4|..|G-2 2A.F ....|B-3 2F1F ....|B-3 2F1F ....
....|..|--- .... ....|--- .... ....|--- .... ....
....|..|--- .... ....|--- .... ....|--- .... ....
....|..|--- .... ....|--- .... ....|--- .... ....
....|..|--- .... ....|--- .... ....|--- .... ....
....|..|--- .... ....|--- .... ....|--- .... ....
....|..|--- .... ....|--- .... ....|--- .... ....
....|..|--- .... ....|--- .... ....|--- .... ....
....|..|--- .... ....|--- .... ....|--- .... ....
....|..|--- .... ....|--- .... ....|--- .... ....
....|..|--- .... ....|--- .... ....|--- .... ....
....|..|--- .... ....|--- .... ....|--- .... ....
....|..|R-- .... ....|R-- .... ....|B-3 2F1A ....
....|..|--- .... ....|--- .... ....|--- .... ....
....|..|--- .... ....|--- .... ....|--- .... ....
....|..|--- .... ....|--- .... ....|--- .... ....
....|..|--- .... ....|B-3 2F1F ....|--- .... ....
....|..|--- .... ....|--- .... ....|--- .... ....
....|..|--- .... ....|--- .... ....|--- .... ....
....|..|--- .... ....|--- .... ....|--- .... ....
....|..|--- .... ....|--- .... ....|--- .... ....
....|..|--- .... ....|--- .... ....|--- .... ....
....|..|--- .... ....|--- .... ....|--- .... ....
....|..|--- .... ....|--- .... ....|--- .... ....
 G-4|..|G-2 2F.7 ....|B-3 2F17 ....|B-3 2F17 ....
....|..|--- .... ....|--- .... ....|--- .... ....
....|..|--- .... ....|--- .... ....|--- .... ....
....|..|--- .... ....|--- .... ....|--- .... ....
....|..|--- .... ....|B-3 2F1A ....|--- .... ....
....|..|--- .... ....|--- .... ....|--- .... ....
....|..|--- .... ....|--- .... ....|--- .... ....
....|..|--- .... ....|--- .... ....|--- .... ....
....|..|--- .... ....|C-4 2F2F ....|C-4 2F2F ....
....|..|--- .... ....|--- .... ....|--- .... ....
....|..|--- .... ....|--- .... ....|--- .... ....
....|..|--- .... ....|--- .... ....|--- .... ....
....|..|R-- .... ....|R-- .... ....|--- .... ....
....|..|--- .... ....|--- .... ....|--- .... ....
....|..|--- .... ....|--- .... ....|--- .... ....
....|..|--- .... ....|--- .... ....|--- .... ....
....|..|--- .... ....|B-3 2F17 ....|--- .... ....
....|..|--- .... ....|--- .... ....|--- .... ....
....|..|--- .... ....|--- .... ....|--- .... ....
....|..|--- .... ....|--- .... ....|--- .... ....
....|..|--- .... ....|C-4 2F2A ....|G-4 2F.F ....
....|..|--- .... ....|--- .... ....|--- .... ....
....|..|--- .... ....|--- .... ....|--- .... ....
....|..|--- .... ....|--- .... ....|--- .... ....
....|..|R-- .... ....|R-- .... ....|G-4 2F.F ....
....|..|--- .... ....|--- .... ....|--- .... ....
....|..|--- .... ....|--- .... ....|--- .... ....
....|..|--- .... ....|--- .... ....|--- .... ....
....|..|--- .... ....|--- .... ....|G-4 2F.F ....
....|..|--- .... ....|--- .... ....|--- .... ....
....|..|--- .... ....|--- .... ....|--- .... ....
....|..|--- .... ....|--- .... ....|--- .... ....
....|..|--- .... ....|C-4 2F27 ....|G-4 2F.F ....
....|..|--- .... ....|--- .... ....|--- .... ....
....|..|--- .... ....|--- .... ....|--- .... ....
....|..|--- .... ....|--- .... ....|--- .... ....
....|..|--- .... ....|--- .... ....|G-4 2F.F ....
....|..|--- .... ....|--- .... ....|--- .... ....
....|..|--- .... ....|--- .... ....|--- .... ....
....|..|--- .... ....|--- .... ....|--- .... ....

[Pattern31]
....|..|--- .... ....|B-3 2F1F ....|B-3 2F1F ....
....|..|--- .... ....|--- .... ....|--- .... ....
....|..|--- .... ....|--- .... ....|--- .... ....
....|..|--- .... ....|--- .... ....|--- .... ....
....|..|--- .... ....|--- .... ....|G-4 2F.7 ....
....|..|--- .... ....|--- .... ....|--- .... ....
....|..|--- .... ....|--- .... ....|--- .... ....
....|..|--- .... ....|--- .... ....|--- .... ....
....|..|--- .... ....|--- .... ....|B-4 2F.F ....
....|..|--- .... ....|--- .... ....|--- .... ....
....|..|--- .... ....|--- .... ....|--- .... ....
....|..|--- .... ....|--- .... ....|--- .... ....
....|..|--- .... ....|B-3 2F1A ....|G-4 2F.7 ....
....|..|--- .... ....|--- .... ....|--- .... ....
....|..|--- .... ....|--- .... ....|--- .... ....
....|..|--- .... ....|--- .... ....|--- .... ....
....|..|--- .... ....|--- .... ....|G-4 2F.7 ....
....|..|--- .... ....|--- .... ....|--- .... ....
....|..|--- .... ....|--- .... ....|--- .... ....
....|..|--- .... ....|--- .... ....|--- .... ....
....|..|--- .... ....|--- .... ....|G-4 2F.7 ....
....|..|--- .... ....|--- .... ....|--- .... ....
....|..|--- .... ....|--- .... ....|--- .... ....
....|..|--- .... ....|--- .... ....|R-- .... ....
....|..|--- .... ....|B-3 2F17 ....|B-4 2F.F ....
....|..|--- .... ....|--- .... ....|--- .... ....
....|..|--- .... ....|--- .... ....|--- .... ....
....|..|--- .... ....|--- .... ....|--- .... ....
....|..|--- .... ....|--- .... ....|--- .... ....
....|..|--- .... ....|--- .... ....|--- .... ....
....|..|--- .... ....|--- .... ....|--- .... ....
....|..|--- .... ....|--- .... ....|--- .... ....
....|..|--- .... ....|C-4 2F2F ....|C-4 2F2F ....
....|..|--- .... ....|--- .... ....|--- .... ....
....|..|--- .... ....|--- .... ....|--- .... ....
....|..|--- .... ....|--- .... ....|R-- .... ....
....|..|--- .... ....|--- .... ....|B-4 2F.A ....
....|..|--- .... ....|--- .... ....|--- .... ....
....|..|--- .... ....|--- .... ....|--- .... ....
....|..|--- .... ....|--- .... ....|R-- .... ....
....|..|--- .... ....|--- .... ....|B-4 2F.F ....
....|..|--- .... ....|--- .... ....|--- .... ....
....|..|--- .... ....|--- .... ....|--- .... ....
....|..|--- .... ....|--- .... ....|--- .... ....
....|..|--- .... ....|C-4 2F2A ....|C-4 2F2A ....
....|..|--- .... ....|--- .... ....|--- .... ....
....|..|--- .... ....|--- .... ....|--- .... ....
....|..|--- .... ....|--- .... ....|R-- .... ....
....|..|--- .... ....|--- .... ....|B-4 2F.7 ....
....|..|--- .... ....|--- .... ....|--- .... ....
....|..|--- .... ....|--- .... ....|--- .... ....
....|..|--- .... ....|--- .... ....|R-- .... ....
....|..|--- .... ....|--- .... ....|B-4 2F.A ....
....|..|--- .... ....|--- .... ....|--- .... ....
....|..|--- .... ....|--- .... ....|--- .... ....
....|..|--- .... ....|--- .... ....|R-- .... ....
....|..|--- .... ....|C-4 2F27 ....|B-4 2F.F ....
....|..|--- .... ....|--- .... ....|--- .... ....
....|..|--- .... ....|--- .... ....|--- .... ....
....|..|--- .... ....|--- .... ....|--- .... ....
....|..|--- .... ....|--- .... ....|--- .... ....
....|..|--- .... ....|--- .... ....|--- .... ....
....|..|--- .... ....|--- .... ....|--- .... ....
....|..|--- .... ....|--- .... ....|R-- .... ....

[Pattern32]
 G-4|..|G-3 2C.F ....|B-3 2F1F ....|B-3 2F1F ....
....|..|--- .... ....|--- .... ....|--- .... ....
....|..|--- .... ....|--- .... ....|--- .... ....
....|..|--- .... ....|--- .... ....|R-- .... ....
....|..|--- .... ....|--- .... ....|B-4 2F.A ....
....|..|--- .... ....|--- .... ....|--- .... ....
....|..|--- .... ....|--- .... ....|--- .... ....
....|..|--- .... ....|--- .... ....|R-- .... ....
....|..|--- .... ....|--- .... ....|B-4 2F.F ....
....|..|--- .... ....|--- .... ....|--- .... ....
....|..|--- .... ....|--- .... ....|--- .... ....
....|..|--- .... ....|--- .... ....|--- .... ....
....|..|G-4 2F.F ....|B-3 2F1A ....|G-4 2F.F ....
....|..|--- .... ....|--- .... ....|--- .... ....
....|..|--- .... ....|--- .... ....|--- .... ....
....|..|--- .... ....|--- .... ....|R-- .... ....
....|..|G-4 2F.F ....|--- .... ....|G-4 2F.F ....
....|..|--- .... ....|--- .... ....|--- .... ....
....|..|--- .... ....|--- .... ....|--- .... ....
....|..|--- .... ....|--- .... ....|R-- .... ....
....|..|G-4 2F.F ....|--- .... ....|G-4 2F.F ....
....|..|--- .... ....|--- .... ....|--- .... ....
....|..|--- .... ....|--- .... ....|--- .... ....
....|..|--- .... ....|--- .... ....|R-- .... ....
....|..|G-4 2F.F ....|B-3 2F17 ....|B-4 2F.F ....
....|..|--- .... ....|--- .... ....|--- .... ....
....|..|--- .... ....|--- .... ....|--- .... ....
....|..|--- .... ....|--- .... ....|--- .... ....
....|..|G-4 2F.F ....|--- .... ....|G-4 2F.F ....
....|..|--- .... ....|--- .... ....|--- .... ....
....|..|--- .... ....|--- .... ....|--- .... ....
....|..|--- .... ....|--- .... ....|R-- .... ....
....|..|R-- .... ....|C-4 2F2F ....|C-4 2F2F ....
....|..|--- .... ....|--- .... ....|--- .... ....
....|..|--- .... ....|--- .... ....|--- .... ....
....|..|--- .... ....|--- .... ....|R-- .... ....
....|..|G-4 2F.7 ....|--- .... ....|G-4 2F.7 ....
....|..|--- .... ....|--- .... ....|--- .... ....
....|..|--- .... ....|--- .... ....|--- .... ....
....|..|--- .... ....|--- .... ....|R-- .... ....
....|..|G-4 2F.7 ....|--- .... ....|B-4 2F.F ....
....|..|--- .... ....|--- .... ....|--- .... ....
....|..|--- .... ....|--- .... ....|--- .... ....
....|..|--- .... ....|--- .... ....|--- .... ....
....|..|C-4 2F.F ....|C-4 2F2A ....|C-4 2F.F ....
....|..|--- .... ....|--- .... ....|--- .... ....
....|..|--- .... ....|--- .... ....|--- .... ....
....|..|--- .... ....|--- .... ....|R-- .... ....
....|..|G-4 2F.7 ....|--- .... ....|B-4 2F.7 ....
....|..|--- .... ....|--- .... ....|--- .... ....
....|..|--- .... ....|--- .... ....|--- .... ....
....|..|--- .... ....|--- .... ....|R-- .... ....
....|..|A-3 2F.F ....|--- .... ....|A-3 2F.F ....
....|..|--- .... ....|--- .... ....|--- .... ....
....|..|--- .... ....|--- .... ....|--- .... ....
....|..|--- .... ....|--- .... ....|--- .... ....
 A-3|..|A-3 2C.F ....|A-3 2C.F ....|G-3 2F.F ....
....|..|--- .... ....|--- .... ....|--- .... ....
....|..|--- .... ....|--- .... ....|--- .... ....
....|..|--- .... ....|--- .... ....|--- .... ....
....|..|D-3 2F.F ....|--- .... ....|D-3 2F.F ....
....|..|--- .... ....|--- .... ....|--- .... ....
....|..|--- .... ....|--- .... ....|--- .... ....
....|..|--- .... ....|--- .... ....|R-- .... ....

[Pattern33]
 A-3|..|A-1 2A.F ....|C-4 2FDF ....|A-2 2F.F ....
....|..|--- .... ....|--- .... ....|--- .... ....
....|..|--- .... ....|--- .... ....|--- .... ....
....|..|--- .... ....|--- .... ....|--- .... ....
 A-3|..|E-3 2F.F ....|A-3 2F.A ....|E-3 2F.F ....
....|..|--- .... ....|--- .... ....|--- .... ....
....|..|--- .... ....|--- .... ....|--- .... ....
....|..|A-2 2F.F ....|--- .... ....|A-2 2F.F ....
....|..|E-4 2F.F ....|--- .... ....|E-4 2F.F ....
....|..|--- .... ....|--- .... ....|--- .... ....
....|..|--- .... ....|--- .... ....|--- .... ....
....|..|R-- .... ....|R-- .... ....|R-- .... ....
 A-3|..|A-1 2A.F ....|C-4 2FDF ....|E-4 2F.F ....
....|..|--- .... ....|--- .... ....|--- .... ....
....|..|--- .... ....|--- .... ....|--- .... ....
....|..|R-- .... ....|R-- .... ....|--- .... ....
 A-3|..|A-1 2A.F ....|A-1 2A.F ....|G-3 2F.7 ....
....|..|--- .... ....|--- .... ....|--- .... ....
....|..|--- .... ....|--- .... ....|--- .... ....
....|..|A-2 2F.F ....|R-- .... ....|A-2 2F.F ....
 A-3|..|A-1 2A.F ....|A-1 2A.F ....|E-4 2F.F ....
....|..|--- .... ....|--- .... ....|--- .... ....
....|..|--- .... ....|--- .... ....|--- .... ....
....|..|A-2 2F.F ....|R-- .... ....|A-2 2F.F ....
 A-3|..|A-1 2A.F ....|A-1 2A.F ....|E-4 2F.F ....
....|..|--- .... ....|--- .... ....|--- .... ....
....|..|--- .... ....|--- .... ....|--- .... ....
....|..|R-- .... ....|R-- .... ....|R-- .... ....
 G-3|..|G-1 2A.F ....|G-1 2A.F ....|D-4 2F.F ....
....|..|--- .... ....|--- .... ....|--- .... ....
....|..|--- .... ....|--- .... ....|--- .... ....
....|..|A-2 2F.7 ....|R-- .... ....|A-2 2F.7 ....
 F-3|..|F-1 2A.F ....|C-4 AF.F ....|A-3 2F.F ....
....|..|--- .... ....|--- .... ....|--- .... ....
....|..|--- .... ....|--- .... ....|--- .... ....
....|..|R-- .... ....|R-- .... ....|R-- .... ....
 F-3|..|F-1 2A.F ....|F-4 2F2F ....|A-3 2F.F ....
....|..|--- .... ....|--- .... ....|--- .... ....
....|..|--- .... ....|--- .... ....|--- .... ....
....|..|R-- .... ....|R-- .... ....|R-- .... ....
 F-3|..|F-1 2A.F ....|F-4 2F2F ....|A-3 2F.F ....
....|..|--- .... ....|--- .... ....|--- .... ....
....|..|--- .... ....|--- .... ....|--- .... ....
....|..|A-2 2F.7 ....|R-- .... ....|A-2 2F.7 ....
 F-3|..|F-1 2A.F ....|F-4 2F2F ....|C-4 2F.F ....
....|..|--- .... ....|--- .... ....|--- .... ....
....|..|--- .... ....|--- .... ....|--- .... ....
....|..|A-2 2F.7 ....|R-- .... ....|A-2 2F.7 ....
 F-3|..|F-1 2A.F ....|F-4 2F2F ....|C-4 2F.F ....
....|..|--- .... ....|--- .... ....|--- .... ....
....|..|--- .... ....|--- .... ....|--- .... ....
....|..|R-- .... ....|R-- .... ....|R-- .... ....
 F-3|..|F-1 2A.F ....|F-4 2F2F ....|C-4 2F.F ....
....|..|--- .... ....|--- .... ....|--- .... ....
....|..|--- .... ....|--- .... ....|--- .... ....
....|..|R-- .... ....|R-- .... ....|R-- .... ....
 F-3|..|F-1 2A.F ....|F-4 2F2F ....|A-3 2F.F ....
....|..|--- .... ....|--- .... ....|--- .... ....
....|..|--- .... ....|--- .... ....|--- .... ....
....|..|R-- .... ....|R-- .... ....|R-- .... ....
 F-3|..|F-1 2A.F ....|F-4 2F2F ....|F-4 2F2F ....
....|..|--- .... ....|--- .... ....|--- .... ....
....|..|--- .... ....|--- .... ....|--- .... ....
....|..|R-- .... ....|R-- .... ....|R-- .... ....

[Pattern34]
 F-3|..|F-1 2A.F ....|C-4 AF.F ....|B-3 2F.F ....
....|..|--- .... ....|--- .... ....|--- .... ....
....|..|--- .... ....|--- .... ....|--- .... ....
....|..|R-- .... ....|R-- .... ....|R-- .... ....
 F-3|..|F-1 2A.F ....|F-4 2FEF ....|B-3 2F.F ....
....|..|--- .... ....|--- .... ....|--- .... ....
....|..|--- .... ....|--- .... ....|--- .... ....
....|..|R-- .... ....|R-- .... ....|R-- .... ....
 F-3|..|F-1 2A.F ....|F-4 2FEF ....|B-3 2F.F ....
....|..|--- .... ....|--- .... ....|--- .... ....
....|..|--- .... ....|--- .... ....|--- .... ....
....|..|G-3 2F.F ....|R-- .... ....|G-3 2F.F ....
 F-3|..|F-1 2A.F ....|F-4 2FEF ....|B-3 2F.F ....
....|..|--- .... ....|--- .... ....|--- .... ....
....|..|--- .... ....|--- .... ....|--- .... ....
....|..|R-- .... ....|R-- .... ....|R-- .... ....
 F-3|..|F-1 2A.F ....|F-4 2FEF ....|B-3 2F.F ....
....|..|--- .... ....|--- .... ....|--- .... ....
....|..|--- .... ....|--- .... ....|--- .... ....
....|..|R-- .... ....|R-- .... ....|R-- .... ....
 F-3|..|F-1 2A.F ....|F-4 2FEF ....|B-3 2F.F ....
....|..|--- .... ....|--- .... ....|--- .... ....
....|..|--- .... ....|--- .... ....|--- .... ....
....|..|G-3 2F.F ....|R-- .... ....|G-3 2F.F ....
 F-3|..|F-1 2A.F ....|F-4 2FEF ....|B-3 2F.F ....
....|..|--- .... ....|--- .... ....|--- .... ....
....|..|--- .... ....|--- .... ....|--- .... ....
....|..|R-- .... ....|R-- .... ....|R-- .... ....
 F-3|..|F-1 2A.F ....|F-4 2FEF ....|F-4 2FEF ....
....|..|--- .... ....|--- .... ....|--- .... ....
....|..|--- .... ....|--- .... ....|--- .... ....
....|..|R-- .... ....|R-- .... ....|R-- .... ....
 F-3|..|F-1 2A.F ....|C-4 AF.F ....|A-3 2F.F ....
....|..|--- .... ....|--- .... ....|--- .... ....
....|..|--- .... ....|--- .... ....|--- .... ....
....|..|G-3 2F.7 ....|R-- .... ....|G-3 2F.7 ....
 F-3|..|F-1 2A.F ....|F-4 2FFF ....|A-3 2F.F ....
....|..|--- .... ....|--- .... ....|--- .... ....
....|..|--- .... ....|--- .... ....|--- .... ....
....|..|R-- .... ....|R-- .... ....|R-- .... ....
 F-3|..|F-1 2A.F ....|F-4 2FFF ....|A-3 2F.F ....
....|..|--- .... ....|--- .... ....|--- .... ....
....|..|--- .... ....|--- .... ....|--- .... ....
....|..|R-- .... ....|R-- .... ....|R-- .... ....
 F-3|..|F-1 2A.F ....|F-4 2FFF ....|C-4 2F.F ....
....|..|--- .... ....|--- .... ....|--- .... ....
....|..|--- .... ....|--- .... ....|--- .... ....
....|..|G-3 2F.7 ....|R-- .... ....|G-3 2F.7 ....
 F-3|..|F-1 2A.F ....|F-4 2FFF ....|C-4 2F.F ....
....|..|--- .... ....|--- .... ....|--- .... ....
....|..|--- .... ....|--- .... ....|--- .... ....
....|..|R-- .... ....|R-- .... ....|R-- .... ....
 F-3|..|F-1 2A.F ....|F-4 2FFF ....|C-4 2F.F ....
....|..|--- .... ....|--- .... ....|--- .... ....
....|..|--- .... ....|--- .... ....|--- .... ....
....|..|R-- .... ....|R-- .... ....|R-- .... ....
 F-3|..|F-1 2A.F ....|F-4 2FFF ....|A-3 2F.F ....
....|..|--- .... ....|--- .... ....|--- .... ....
....|..|--- .... ....|--- .... ....|--- .... ....
....|..|R-- .... ....|R-- .... ....|R-- .... ....
 F-3|..|F-1 2A.F ....|F-4 2FFF ....|F-4 2FFF ....
....|..|--- .... ....|--- .... ....|--- .... ....
....|..|--- .... ....|--- .... ....|--- .... ....
....|..|R-- .... ....|R-- .... ....|R-- .... ....

[Pattern35]
 F-3|..|F-1 2A.F ....|C-4 AF.F ....|B-3 2F.F ....
....|..|--- .... ....|--- .... ....|--- .... ....
....|..|--- .... ....|--- .... ....|--- .... ....
....|..|R-- .... ....|R-- .... ....|R-- .... ....
 F-3|..|F-1 2A.F ....|B-4 2FBF ....|B-3 2F.F ....
....|..|--- .... ....|--- .... ....|--- .... ....
....|..|--- .... ....|--- .... ....|--- .... ....
....|..|R-- .... ....|R-- .... ....|R-- .... ....
 F-3|..|F-1 2A.F ....|C-5 2F5F ....|B-3 2F.F ....
....|..|--- .... ....|--- .... ....|--- .... ....
....|..|--- .... ....|--- .... ....|--- .... ....
....|..|G-3 2F.F ....|R-- .... ....|G-3 2F.F ....
 F-3|..|F-1 2A.F ....|B-4 2FBF ....|B-3 2F.F ....
....|..|--- .... ....|--- .... ....|--- .... ....
....|..|--- .... ....|--- .... ....|--- .... ....
....|..|R-- .... ....|R-- .... ....|R-- .... ....
 F-3|..|F-1 2A.F ....|C-5 2F5F ....|B-3 2F.F ....
....|..|--- .... ....|--- .... ....|--- .... ....
....|..|--- .... ....|--- .... ....|--- .... ....
....|..|R-- .... ....|R-- .... ....|R-- .... ....
 F-3|..|F-1 2A.F ....|B-4 2FBF ....|B-3 2F.F ....
....|..|--- .... ....|--- .... ....|--- .... ....
....|..|--- .... ....|--- .... ....|--- .... ....
....|..|G-3 2F.F ....|R-- .... ....|G-3 2F.F ....
 F-3|..|F-1 2A.F ....|A-4 2FBF ....|B-3 2F.F ....
....|..|--- .... ....|--- .... ....|--- .... ....
....|..|--- .... ....|--- .... ....|--- .... ....
....|..|R-- .... ....|R-- .... ....|R-- .... ....
 F-3|..|F-1 2A.F ....|B-4 2FBF ....|B-4 2FBF ....
....|..|--- .... ....|--- .... ....|--- .... ....
....|..|--- .... ....|--- .... ....|--- .... ....
....|..|R-- .... ....|R-- .... ....|R-- .... ....
 A-3|..|A-1 2A.F ....|C-4 AF.F ....|E-4 2F.F ....
....|..|--- .... ....|--- .... ....|--- .... ....
....|..|--- .... ....|--- .... ....|--- .... ....
....|..|G-3 2F.7 ....|R-- .... ....|G-3 2F.7 ....
 A-3|..|A-1 2A.F ....|A-1 2A.F ....|B-3 2F.7 ....
....|..|--- .... ....|--- .... ....|--- .... ....
....|..|--- .... ....|--- .... ....|--- .... ....
....|..|R-- .... ....|R-- .... ....|R-- .... ....
 A-3|..|A-1 2A.F ....|A-1 2A.F ....|B-3 2F.7 ....
....|..|--- .... ....|--- .... ....|--- .... ....
....|..|--- .... ....|--- .... ....|--- .... ....
....|..|R-- .... ....|R-- .... ....|R-- .... ....
 A-3|..|A-1 2A.F ....|A-1 2A.F ....|B-3 2F.7 ....
....|..|--- .... ....|--- .... ....|--- .... ....
....|..|--- .... ....|--- .... ....|--- .... ....
....|..|G-3 2F.7 ....|R-- .... ....|G-3 2F.7 ....
 A-3|..|A-1 2A.F ....|A-1 2A.F ....|B-3 2F.7 ....
....|..|--- .... ....|--- .... ....|--- .... ....
....|..|--- .... ....|--- .... ....|--- .... ....
....|..|R-- .... ....|R-- .... ....|R-- .... ....
 A-3|..|A-1 2A.F ....|A-1 2A.F ....|B-4 2FB7 ....
....|..|--- .... ....|--- .... ....|--- .... ....
....|..|--- .... ....|--- .... ....|--- .... ....
....|..|R-- .... ....|R-- .... ....|R-- .... ....
 A-3|..|A-1 2A.F ....|C-4 AF.F ....|A-4 2F.F ....
....|..|--- .... ....|--- .... ....|--- .... ....
....|..|--- .... ....|--- .... ....|--- .... ....
....|..|R-- .... ....|R-- .... ....|--- .... ....
 A-3|..|A-1 2A.F ....|C-4 AF.F ....|--- .... ....
....|..|--- .... ....|--- .... ....|--- .... ....
....|..|--- .... ....|--- .... ....|--- .... ....
....|..|R-- .... ....|R-- .... ....|R-- .... ....

[Pattern36]
 A-3|..|A-1 2A.F ....|C-4 AF.F ....|G-4 2F.F ....
....|..|--- .... ....|--- .... ....|--- .... ....
....|..|--- .... ....|--- .... ....|--- .... ....
....|..|R-- .... ....|R-- .... ....|R-- .... ....
 A-3|..|A-1 2A.F ....|A-1 2A.F ....|A-4 2F.A ....
....|..|--- .... ....|--- .... ....|--- .... ....
....|..|--- .... ....|--- .... ....|--- .... ....
....|..|R-- .... ....|R-- .... ....|R-- .... ....
 A-3|..|A-1 2A.F ....|A-4 2F.F ....|A-4 2F.F ....
....|..|--- .... ....|--- .... ....|--- .... ....
....|..|--- .... ....|--- .... ....|--- .... ....
....|..|R-- .... ....|R-- .... ....|R-- .... ....
 A-3|..|A-1 2A.F ....|A-1 2A.F ....|G-4 2F.A ....
....|..|--- .... ....|--- .... ....|--- .... ....
....|..|--- .... ....|--- .... ....|--- .... ....
....|..|R-- .... ....|R-- .... ....|R-- .... ....
 A-3|..|A-1 2A.F ....|A-4 2F.F ....|A-4 2F.F ....
....|..|--- .... ....|--- .... ....|--- .... ....
....|..|--- .... ....|--- .... ....|--- .... ....
....|..|R-- .... ....|R-- .... ....|R-- .... ....
 A-3|..|A-1 2A.F ....|A-1 2A.F ....|A-4 2F.A ....
....|..|--- .... ....|--- .... ....|--- .... ....
....|..|--- .... ....|--- .... ....|--- .... ....
....|..|R-- .... ....|R-- .... ....|R-- .... ....
 A-3|..|A-1 2A.F ....|C-4 AF.F ....|G-4 2F.7 ....
....|..|--- .... ....|--- .... ....|--- .... ....
....|..|--- .... ....|--- .... ....|--- .... ....
....|..|R-- .... ....|R-- .... ....|R-- .... ....
 A-3|..|A-1 2A.F ....|C-4 AF.F ....|A-4 2F.A ....
....|..|--- .... ....|--- .... ....|--- .... ....
....|..|--- .... ....|--- .... ....|--- .... ....
....|..|R-- .... ....|R-- .... ....|R-- .... ....
 A-3|..|A-1 2A.F ....|C-4 AF.F ....|E-4 2F.F ....
....|..|--- .... ....|--- .... ....|--- .... ....
....|..|--- .... ....|--- .... ....|--- .... ....
....|..|R-- .... ....|R-- .... ....|R-- .... ....
 A-3|..|A-1 2A.F ....|C-4 AF.F ....|--- .... ....
....|..|--- .... ....|--- .... ....|--- .... ....
....|..|--- .... ....|--- .... ....|--- .... ....
....|..|R-- .... ....|R-- .... ....|R-- .... ....
 A-3|..|A-1 2A.F ....|C-4 AF.F ....|A-4 2F.7 ....
....|..|--- .... ....|--- .... ....|--- .... ....
....|..|--- .... ....|--- .... ....|--- .... ....
....|..|R-- .... ....|R-- .... ....|R-- .... ....
 A-3|..|A-1 2A.F ....|C-4 AF.F ....|E-4 2F.A ....
....|..|--- .... ....|--- .... ....|--- .... ....
....|..|--- .... ....|--- .... ....|--- .... ....
....|..|R-- .... ....|R-- .... ....|R-- .... ....
 A-3|..|A-1 2A.F ....|C-4 AF.F ....|--- .... ....
....|..|--- .... ....|--- .... ....|--- .... ....
....|..|--- .... ....|--- .... ....|--- .... ....
....|..|R-- .... ....|R-- .... ....|--- .... ....
 A-3|..|A-1 2A.F ....|C-4 AF.F ....|--- .... ....
....|..|--- .... ....|--- .... ....|--- .... ....
....|..|--- .... ....|--- .... ....|--- .... ....
....|..|R-- .... ....|R-- .... ....|R-- .... ....
 A-3|..|A-1 2A.F ....|C-4 AF.F ....|E-4 2F.7 ....
....|..|--- .... ....|--- .... ....|--- .... ....
....|..|--- .... ....|--- .... ....|--- .... ....
....|..|R-- .... ....|R-- .... ....|--- .... ....
 A-3|..|A-1 2A.F ....|C-4 AF.F ....|--- .... ....
....|..|--- .... ....|--- .... ....|--- .... ....
....|..|--- .... ....|--- .... ....|--- .... ....
....|..|R-- .... ....|R-- .... ....|--- .... ....

[Pattern37]
 A-3|..|A-1 2A.F ....|C-4 AF.F ....|--- .... ....
....|..|--- .... ....|--- .... ....|--- .... ....
....|..|--- .... ....|--- .... ....|--- .... ....
....|..|R-- .... ....|R-- .... ....|--- .... ....
 A-3|..|A-1 2A.F ....|C-4 AF.F ....|--- .... ....
....|..|--- .... ....|--- .... ....|--- .... ....
....|..|--- .... ....|--- .... ....|--- .... ....
....|..|R-- .... ....|R-- .... ....|--- .... ....
 A-3|..|A-1 2A.F ....|C-4 AF.F ....|--- .... ....
....|..|--- .... ....|--- .... ....|--- .... ....
....|..|--- .... ....|--- .... ....|--- .... ....
....|..|R-- .... ....|R-- .... ....|--- .... ....
 A-3|..|A-1 2A.F ....|C-4 AF.F ....|--- .... ....
....|..|--- .... ....|--- .... ....|--- .... ....
....|..|--- .... ....|--- .... ....|--- .... ....
....|..|R-- .... ....|R-- .... ....|--- .... ....
 A-3|..|A-1 2A.F ....|C-4 AF.F ....|--- .... ....
....|..|--- .... ....|--- .... ....|--- .... ....
....|..|--- .... ....|--- .... ....|--- .... ....
....|..|R-- .... ....|R-- .... ....|--- .... ....
 A-3|..|A-1 2F.7 ....|C-4 AF.F ....|--- .... ....
....|..|--- .... ....|--- .... ....|--- .... ....
....|..|--- .... ....|--- .... ....|--- .... ....
....|..|R-- .... ....|R-- .... ....|R-- .... ....
 G-4|..|G-2 2A.F ....|C-4 AF.F ....|G-4 2F.F ....
....|..|--- .... ....|--- .... ....|--- .... ....
....|..|--- .... ....|--- .... ....|--- .... ....
....|..|R-- .... ....|R-- .... ....|--- .... ....
 A-3|..|A-1 2F.7 ....|C-4 AF.7 ....|--- .... ....
....|..|--- .... ....|--- .... ....|--- .... ....
....|..|--- .... ....|--- .... ....|--- .... ....
....|..|R-- .... ....|R-- .... ....|R-- .... ....
 D-4|..|D-2 2A.F ....|C-4 AF.F ....|F#4 2F.F ....
....|..|--- .... ....|--- .... ....|--- .... ....
....|..|--- .... ....|--- .... ....|--- .... ....
....|..|R-- .... ....|R-- .... ....|R-- .... ....
 A-3|..|A-1 2F.7 ....|C-4 AF.7 ....|G-4 2F.A ....
....|..|--- .... ....|--- .... ....|--- .... ....
....|..|--- .... ....|--- .... ....|--- .... ....
....|..|R-- .... ....|R-- .... ....|--- .... ....
 D-4|..|D-2 2A.F ....|C-4 CF.F ....|--- .... ....
....|..|--- .... ....|--- .... ....|--- .... ....
....|..|--- .... ....|--- .... ....|--- .... ....
....|..|R-- .... ....|R-- .... ....|R-- .... ....
....|..|F#4 2F.F ....|C-4 AF.7 ....|F#4 2F.F ....
....|..|--- .... ....|R-- .... ....|--- .... ....
....|..|--- .... ....|C-4 CF.F ....|--- .... ....
....|..|R-- .... ....|R-- .... ....|R-- .... ....
 D-4|..|D-2 2A.F ....|C-4 AF.F ....|G-4 2F.7 ....
....|..|--- .... ....|--- .... ....|--- .... ....
....|..|--- .... ....|--- .... ....|--- .... ....
....|..|R-- .... ....|R-- .... ....|--- .... ....
 D-4|..|D-2 2A.F ....|C-4 AF.F ....|--- .... ....
....|..|--- .... ....|--- .... ....|--- .... ....
....|..|--- .... ....|--- .... ....|--- .... ....
....|..|R-- .... ....|R-- .... ....|R-- .... ....
 D-4|..|D-2 2A.F ....|C-4 CF.F ....|F#4 2F.7 ....
....|..|--- .... ....|R-- .... ....|--- .... ....
....|..|--- .... ....|C-4 CF.A ....|--- .... ....
....|..|R-- .... ....|R-- .... ....|--- .... ....
 D-4|..|D-2 2A.F ....|C-4 AF.F ....|--- .... ....
....|..|--- .... ....|--- .... ....|--- .... ....
....|..|--- .... ....|C-4 CF.F ....|--- .... ....
....|..|R-- .... ....|R-- .... ....|R-- .... ....

[Pattern38]
 G-3|..|G-1 2A.F ....|C-4 AF.F ....|G-4 2F.F ....
....|..|--- .... ....|--- .... ....|--- .... ....
....|..|--- .... ....|--- .... ....|--- .... ....
....|..|R-- .... ....|R-- .... ....|R-- .... ....
....|..|F#4 2F.7 ....|C-4 CF.A ....|F#4 2F.7 ....
....|..|--- .... ....|R-- .... ....|--- .... ....
....|..|--- .... ....|C-4 CF.7 ....|--- .... ....
....|..|R-- .... ....|R-- .... ....|--- .... ....
 G-3|..|G-1 2A.F ....|C-4 CF.F ....|--- .... ....
....|..|--- .... ....|--- .... ....|--- .... ....
....|..|--- .... ....|C-4 CF.A ....|--- .... ....
....|..|R-- .... ....|R-- .... ....|R-- .... ....
 A-3|..|A-1 2A.F ....|A-1 2A.F ....|E-4 2F.F ....
....|..|--- .... ....|--- .... ....|--- .... ....
....|..|--- .... ....|--- .... ....|--- .... ....
....|..|R-- .... ....|R-- .... ....|--- .... ....
 D-4|..|D-2 2F.7 ....|C-4 AF.F ....|--- .... ....
....|..|--- .... ....|--- .... ....|--- .... ....
....|..|--- .... ....|--- .... ....|--- .... ....
....|..|R-- .... ....|R-- .... ....|--- .... ....
 D-4|..|D-2 2F.7 ....|C-4 AF.F ....|R-- .... ....
....|..|--- .... ....|--- .... ....|--- .... ....
....|..|--- .... ....|C-4 CF.7 ....|--- .... ....
....|..|R-- .... ....|R-- .... ....|R-- .... ....
 G-4|..|G-2 2A.F ....|C-4 AF.F ....|G-4 2F.F ....
....|..|--- .... ....|--- .... ....|--- .... ....
....|..|--- .... ....|--- .... ....|--- .... ....
....|..|--- .... ....|R-- .... ....|--- .... ....
....|..|--- .... ....|C-4 AF.A ....|--- .... ....
....|..|--- .... ....|--- .... ....|--- .... ....
....|..|--- .... ....|--- .... ....|--- .... ....
....|..|R-- .... ....|R-- .... ....|R-- .... ....
 D-4|..|D-2 2A.F ....|C-4 AF.F ....|F#4 2F.F ....
....|..|--- .... ....|--- .... ....|--- .... ....
....|..|--- .... ....|--- .... ....|--- .... ....
....|..|R-- .... ....|R-- .... ....|R-- .... ....
 A-3|..|A-1 2F.7 ....|A-1 2F.7 ....|E-4 2F.7 ....
....|..|--- .... ....|--- .... ....|--- .... ....
....|..|--- .... ....|--- .... ....|--- .... ....
....|..|R-- .... ....|R-- .... ....|--- .... ....
 D-4|..|D-2 2A.F ....|C-4 CF.F ....|--- .... ....
....|..|--- .... ....|--- .... ....|--- .... ....
....|..|--- .... ....|--- .... ....|--- .... ....
....|..|R-- .... ....|R-- .... ....|R-- .... ....
....|..|F#4 2F.F ....|C-4 AF.7 ....|F#4 2F.F ....
....|..|--- .... ....|R-- .... ....|--- .... ....
....|..|--- .... ....|C-4 CF.F ....|--- .... ....
....|..|R-- .... ....|R-- .... ....|--- .... ....
 D-4|..|D-2 2A.F ....|C-4 AF.F ....|G-4 2F.7 ....
....|..|--- .... ....|--- .... ....|--- .... ....
....|..|--- .... ....|--- .... ....|--- .... ....
....|..|R-- .... ....|R-- .... ....|--- .... ....
 D-4|..|D-2 2A.F ....|C-4 AF.F ....|--- .... ....
....|..|--- .... ....|--- .... ....|--- .... ....
....|..|--- .... ....|--- .... ....|--- .... ....
....|..|R-- .... ....|R-- .... ....|R-- .... ....
 D-4|..|D-2 2A.F ....|C-4 CF.F ....|F#4 2F.7 ....
....|..|--- .... ....|R-- .... ....|--- .... ....
....|..|--- .... ....|C-4 CF.A ....|--- .... ....
....|..|R-- .... ....|R-- .... ....|--- .... ....
 B-3|..|B-1 2A.F ....|B-1 2A.F ....|--- .... ....
....|..|R-- .... ....|R-- .... ....|--- .... ....
 A-3|..|A-1 2A.F ....|A-1 2A.F ....|--- .... ....
....|..|R-- .... ....|R-- .... ....|R-- .... ....

[Pattern39]
 G-3|..|G-1 2A.F ....|C-4 AF.F ....|G-4 2F.F ....
....|..|--- .... ....|--- .... ....|--- .... ....
....|..|--- .... ....|--- .... ....|--- .... ....
....|..|R-- .... ....|R-- .... ....|R-- .... ....
....|..|F#4 2F.7 ....|C-4 CF.A ....|F#4 2F.7 ....
....|..|--- .... ....|R-- .... ....|--- .... ....
....|..|--- .... ....|C-4 CF.7 ....|--- .... ....
....|..|R-- .... ....|R-- .... ....|--- .... ....
 G-3|..|G-1 2A.F ....|C-4 CF.F ....|--- .... ....
....|..|R-- .... ....|R-- .... ....|--- .... ....
 A-3|..|A-1 2F.A ....|A-1 2F.A ....|--- .... ....
....|..|R-- .... ....|R-- .... ....|R-- .... ....
 A-3|..|A-1 2A.F ....|A-1 2A.F ....|E-4 2F.F ....
....|..|--- .... ....|--- .... ....|--- .... ....
....|..|--- .... ....|--- .... ....|--- .... ....
....|..|R-- .... ....|R-- .... ....|--- .... ....
 D-4|..|D-2 2F.7 ....|C-4 AF.F ....|--- .... ....
....|..|--- .... ....|--- .... ....|--- .... ....
....|..|--- .... ....|--- .... ....|--- .... ....
....|..|R-- .... ....|R-- .... ....|--- .... ....
 B-3|..|B-1 2F.7 ....|C-4 AF.F ....|R-- .... ....
....|..|R-- .... ....|R-- .... ....|--- .... ....
 A-3|..|A-1 2F.7 ....|A-1 2F.7 ....|--- .... ....
....|..|R-- .... ....|R-- .... ....|R-- .... ....
 G-4|..|G-2 2A.F ....|C-4 AF.F ....|G-4 2F.F ....
....|..|--- .... ....|--- .... ....|--- .... ....
....|..|--- .... ....|--- .... ....|--- .... ....
....|..|--- .... ....|R-- .... ....|--- .... ....
....|..|--- .... ....|C-4 AF.A ....|--- .... ....
....|..|--- .... ....|--- .... ....|--- .... ....
....|..|--- .... ....|--- .... ....|--- .... ....
....|..|R-- .... ....|R-- .... ....|R-- .... ....
 D-4|..|D-2 2A.F ....|C-4 AF.F ....|F#4 2F.F ....
....|..|--- .... ....|--- .... ....|--- .... ....
....|..|--- .... ....|--- .... ....|--- .... ....
....|..|R-- .... ....|R-- .... ....|R-- .... ....
 A-3|..|A-1 2F.7 ....|A-1 2F.7 ....|E-4 2F.7 ....
....|..|--- .... ....|--- .... ....|--- .... ....
....|..|--- .... ....|--- .... ....|--- .... ....
....|..|R-- .... ....|R-- .... ....|--- .... ....
 D-4|..|D-2 2A.F ....|C-4 CF.F ....|--- .... ....
....|..|--- .... ....|--- .... ....|--- .... ....
....|..|--- .... ....|--- .... ....|--- .... ....
....|..|R-- .... ....|R-- .... ....|R-- .... ....
....|..|F#4 2F.F ....|C-4 AF.7 ....|F#4 2F.F ....
....|..|--- .... ....|--- .... ....|--- .... ....
....|..|--- .... ....|--- .... ....|--- .... ....
....|..|R-- .... ....|R-- .... ....|--- .... ....
 D-4|..|D-2 2A.F ....|C-4 AF.F ....|G-4 2F.7 ....
....|..|--- .... ....|--- .... ....|--- .... ....
....|..|--- .... ....|--- .... ....|--- .... ....
....|..|R-- .... ....|R-- .... ....|--- .... ....
 D-4|..|D-2 2A.F ....|C-4 AF.F ....|--- .... ....
....|..|--- .... ....|--- .... ....|--- .... ....
....|..|--- .... ....|--- .... ....|--- .... ....
....|..|R-- .... ....|R-- .... ....|R-- .... ....
 D-4|..|D-2 2A.F ....|C-4 CF.F ....|F#4 2F.7 ....
....|..|--- .... ....|--- .... ....|--- .... ....
....|..|--- .... ....|--- .... ....|--- .... ....
....|..|R-- .... ....|R-- .... ....|--- .... ....
 B-3|..|B-1 2A.F ....|B-1 2A.F ....|--- .... ....
....|..|R-- .... ....|R-- .... ....|--- .... ....
 A-3|..|A-1 2A.F ....|A-1 2A.F ....|--- .... ....
....|..|R-- .... ....|R-- .... ....|R-- .... ....

[Pattern40]
 G-3|..|G-1 2A.F ....|C-4 AF.F ....|G-4 2F.F ....
....|..|--- .... ....|--- .... ....|--- .... ....
....|..|--- .... ....|--- .... ....|--- .... ....
....|..|R-- .... ....|R-- .... ....|R-- .... ....
....|..|F#4 2F.7 ....|C-4 CF.A ....|F#4 2F.7 ....
....|..|--- .... ....|--- .... ....|--- .... ....
....|..|--- .... ....|--- .... ....|--- .... ....
....|..|R-- .... ....|R-- .... ....|--- .... ....
 G-3|..|G-1 2A.F ....|C-4 CF.F ....|--- .... ....
....|..|R-- .... ....|R-- .... ....|--- .... ....
 A-3|..|A-1 2F.A ....|A-1 2F.A ....|--- .... ....
....|..|R-- .... ....|R-- .... ....|R-- .... ....
 A-3|..|A-1 2A.F ....|A-1 2A.F ....|E-4 2F.F ....
....|..|--- .... ....|--- .... ....|--- .... ....
....|..|--- .... ....|--- .... ....|--- .... ....
....|..|R-- .... ....|R-- .... ....|--- .... ....
 D-4|..|D-2 2F.7 ....|C-4 AF.F ....|--- .... ....
....|..|--- .... ....|--- .... ....|--- .... ....
....|..|--- .... ....|--- .... ....|--- .... ....
....|..|R-- .... ....|R-- .... ....|--- .... ....
 B-3|..|B-1 2F.7 ....|C-4 AF.F ....|R-- .... ....
....|..|R-- .... ....|R-- .... ....|--- .... ....
 A-3|..|A-1 2F.7 ....|A-1 2F.7 ....|--- .... ....
....|..|R-- .... ....|R-- .... ....|R-- .... ....
 G-4|..|G-2 2A.F ....|C-4 CF.F ....|G-4 2F.F ....
....|..|--- .... ....|--- .... ....|--- .... ....
....|..|--- .... ....|--- .... ....|--- .... ....
....|..|--- .... ....|R-- .... ....|--- .... ....
....|..|--- .... ....|C-4 AF.A ....|--- .... ....
....|..|--- .... ....|--- .... ....|--- .... ....
....|..|--- .... ....|--- .... ....|--- .... ....
....|..|R-- .... ....|R-- .... ....|R-- .... ....
 D-4|..|D-2 2A.F ....|C-4 AF.F ....|D-4 2F.F ....
....|..|--- .... ....|--- .... ....|--- .... ....
....|..|--- .... ....|--- .... ....|--- .... ....
....|..|R-- .... ....|R-- .... ....|R-- .... ....
 A-3|..|A-1 2F.7 ....|A-1 2F.7 ....|E-4 2F.7 ....
....|..|--- .... ....|--- .... ....|--- .... ....
....|..|--- .... ....|--- .... ....|--- .... ....
....|..|R-- .... ....|R-- .... ....|R-- .... ....
 D-4|..|D-2 2A.F ....|C-4 CF.F ....|D-4 2F2F ....
....|..|--- .... ....|--- .... ....|--- .... ....
....|..|--- .... ....|--- .... ....|--- .... ....
....|..|R-- .... ....|R-- .... ....|R-- .... ....
....|..|F#4 2F.F ....|D-4 2F2F ....|A-4 2F.F ....
....|..|--- .... ....|--- .... ....|--- .... ....
....|..|--- .... ....|--- .... ....|--- .... ....
....|..|R-- .... ....|R-- .... ....|R-- .... ....
 D-4|..|D-2 2A.F ....|C-4 AF.F ....|D-4 2F2F ....
....|..|--- .... ....|--- .... ....|--- .... ....
....|..|--- .... ....|--- .... ....|--- .... ....
....|..|R-- .... ....|R-- .... ....|A-4 2F.F ....
 D-4|..|D-2 2A.F ....|C-4 AF.F ....|A-4 2F.F ....
....|..|--- .... ....|--- .... ....|--- .... ....
....|..|--- .... ....|--- .... ....|--- .... ....
....|..|R-- .... ....|R-- .... ....|R-- .... ....
 D-4|..|D-2 2A.F ....|C-4 CF.F ....|F#4 2F.F ....
....|..|--- .... ....|--- .... ....|--- .... ....
....|..|--- .... ....|--- .... ....|--- .... ....
....|..|R-- .... ....|R-- .... ....|F#4 2F.F ....
 D-4|..|D-2 2A.F ....|D-4 2F2F ....|F#4 2F.F ....
....|..|--- .... ....|--- .... ....|--- .... ....
....|..|--- .... ....|--- .... ....|--- .... ....
....|..|R-- .... ....|R-- .... ....|R-- .... ....

[Pattern41]
 C#4|..|C#2 2A.F ....|C-4 AF.F ....|E-4 2F.F ....
....|..|--- .... ....|--- .... ....|--- .... ....
....|..|--- .... ....|--- .... ....|--- .... ....
....|..|R-- .... ....|R-- .... ....|R-- .... ....
....|..|F#4 2F.7 ....|C#4 2F1F ....|C#5 2F.F ....
....|..|--- .... ....|--- .... ....|--- .... ....
....|..|--- .... ....|--- .... ....|--- .... ....
....|..|R-- .... ....|R-- .... ....|C#5 2F.F ....
 C#4|..|C#2 2A.F ....|C-4 CF.F ....|C#5 2F.F ....
....|..|--- .... ....|--- .... ....|--- .... ....
....|..|--- .... ....|--- .... ....|--- .... ....
....|..|R-- .... ....|R-- .... ....|A-4 2F.7 ....
 C#4|..|C#2 2A.F ....|C#4 2F1F ....|A-4 2F.F ....
....|..|--- .... ....|--- .... ....|--- .... ....
....|..|--- .... ....|--- .... ....|--- .... ....
....|..|R-- .... ....|R-- .... ....|R-- .... ....
 C#4|..|C#2 2A.F ....|C-4 AF.F ....|C#4 2F1F ....
....|..|--- .... ....|--- .... ....|--- .... ....
....|..|--- .... ....|--- .... ....|--- .... ....
....|..|R-- .... ....|R-- .... ....|A-4 2F.F ....
 C#4|..|C#2 2A.F ....|C-4 AF.F ....|A-4 2F.F ....
....|..|--- .... ....|--- .... ....|--- .... ....
....|..|--- .... ....|--- .... ....|--- .... ....
....|..|R-- .... ....|R-- .... ....|R-- .... ....
 C#4|..|C#2 2A.F ....|C-4 CF.F ....|E-4 2F.F ....
....|..|--- .... ....|--- .... ....|--- .... ....
....|..|--- .... ....|--- .... ....|--- .... ....
....|..|R-- .... ....|R-- .... ....|E-4 2F.F ....
 C#4|..|C#2 2A.F ....|C#4 2F1F ....|E-4 2F.F ....
....|..|--- .... ....|--- .... ....|--- .... ....
....|..|--- .... ....|--- .... ....|--- .... ....
....|..|R-- .... ....|R-- .... ....|C#5 2F.7 ....
 B-3|..|B-1 2A.F ....|C-4 AF.F ....|E-4 2F.F ....
....|..|--- .... ....|--- .... ....|--- .... ....
....|..|--- .... ....|--- .... ....|--- .... ....
....|..|R-- .... ....|R-- .... ....|R-- .... ....
 B-3|..|B-1 2A.F ....|B-3 2F1F ....|B-4 2F.F ....
....|..|--- .... ....|--- .... ....|--- .... ....
....|..|--- .... ....|--- .... ....|--- .... ....
....|..|R-- .... ....|R-- .... ....|B-4 2F.F ....
 B-3|..|B-1 2A.F ....|C-4 CF.F ....|B-4 2F.F ....
....|..|--- .... ....|--- .... ....|--- .... ....
....|..|--- .... ....|--- .... ....|--- .... ....
....|..|R-- .... ....|R-- .... ....|A-4 2F.7 ....
 B-3|..|B-1 2A.F ....|B-3 2F1F ....|G-4 2F.F ....
....|..|--- .... ....|--- .... ....|--- .... ....
....|..|--- .... ....|--- .... ....|--- .... ....
....|..|R-- .... ....|R-- .... ....|G-4 2F.F ....
 B-3|..|B-1 2A.F ....|C-4 AF.F ....|G-4 2F.F ....
....|..|--- .... ....|--- .... ....|--- .... ....
....|..|--- .... ....|--- .... ....|--- .... ....
....|..|R-- .... ....|R-- .... ....|G-4 2F.F ....
 B-3|..|B-1 2A.F ....|C-4 AF.F ....|G-4 2F.F ....
....|..|--- .... ....|--- .... ....|--- .... ....
....|..|--- .... ....|--- .... ....|--- .... ....
....|..|R-- .... ....|R-- .... ....|G-4 2F.F ....
 B-3|..|B-1 2A.F ....|C-4 CF.F ....|G-4 2F.F ....
....|..|--- .... ....|--- .... ....|--- .... ....
....|..|--- .... ....|--- .... ....|--- .... ....
....|..|R-- .... ....|R-- .... ....|G-4 2F.F ....
 B-3|..|B-1 2A.F ....|B-3 2F1F ....|G-4 2F.F ....
....|..|--- .... ....|--- .... ....|--- .... ....
....|..|--- .... ....|--- .... ....|--- .... ....
....|..|R-- .... ....|R-- .... ....|G-4 2F.F ....

[Pattern42]
 A-3|..|A-1 2A.F ....|C-4 AF.F ....|C#4 2F.F ....
....|..|--- .... ....|--- .... ....|--- .... ....
....|..|--- .... ....|--- .... ....|--- .... ....
....|..|R-- .... ....|R-- .... ....|R-- .... ....
 A-3|..|A-1 2A.F ....|C#4 2F1F ....|A-4 2F.F ....
....|..|--- .... ....|--- .... ....|--- .... ....
....|..|--- .... ....|--- .... ....|--- .... ....
....|..|R-- .... ....|R-- .... ....|A-4 2F.F ....
 A-3|..|A-1 2A.F ....|C-4 CF.F ....|A-4 2F.F ....
....|..|--- .... ....|--- .... ....|--- .... ....
....|..|--- .... ....|--- .... ....|--- .... ....
....|..|R-- .... ....|R-- .... ....|G-4 2F.7 ....
 A-3|..|A-1 2A.F ....|C#4 2F1F ....|E-4 2F.F ....
....|..|--- .... ....|--- .... ....|--- .... ....
....|..|--- .... ....|--- .... ....|--- .... ....
....|..|R-- .... ....|R-- .... ....|E-4 2F.F ....
 B-3|..|B-1 2A.F ....|C#4 2F1F ....|E-4 2F.F ....
....|..|--- .... ....|--- .... ....|--- .... ....
....|..|--- .... ....|--- .... ....|--- .... ....
....|..|R-- .... ....|R-- .... ....|G-4 2F.7 ....
 A-3|..|A-1 2A.F ....|C-4 AF.F ....|E-4 2F.F ....
....|..|--- .... ....|--- .... ....|--- .... ....
....|..|--- .... ....|--- .... ....|--- .... ....
....|..|R-- .... ....|R-- .... ....|G-4 2F.7 ....
 C#4|..|C#2 2A.F ....|C-4 CF.F ....|E-4 2F.F ....
....|..|--- .... ....|C-4 CF.F ....|--- .... ....
....|..|--- .... ....|--- .... ....|--- .... ....
....|..|R-- .... ....|R-- .... ....|R-- .... ....
 A-3|..|A-1 2A.F ....|C-4 AF.F ....|A-4 2F.F ....
....|..|--- .... ....|--- .... ....|--- .... ....
....|..|--- .... ....|--- .... ....|--- .... ....
....|..|R-- .... ....|R-- .... ....|A-4 2F.7 ....
 D-4|..|D-2 2A.F ....|C-4 AF.F ....|D-4 2F.F ....
....|..|--- .... ....|--- .... ....|--- .... ....
....|..|--- .... ....|--- .... ....|--- .... ....
....|..|R-- .... ....|R-- .... ....|R-- .... ....
 A-3|..|A-1 2F.7 ....|C#4 2F17 ....|E-4 2F.7 ....
....|..|--- .... ....|C-4 CF.A ....|--- .... ....
....|..|--- .... ....|--- .... ....|--- .... ....
....|..|D-3 2F.F ....|R-- .... ....|D-3 2F.F ....
....|..|D-4 2F.F ....|C-4 CF.F ....|D-4 2F.F ....
....|..|--- .... ....|--- .... ....|--- .... ....
....|..|--- .... ....|--- .... ....|--- .... ....
....|..|R-- .... ....|R-- .... ....|R-- .... ....
 D-4|..|D-2 2A.F ....|D-4 2F2F ....|A-4 2F.F ....
....|..|--- .... ....|--- .... ....|--- .... ....
....|..|--- .... ....|--- .... ....|--- .... ....
....|..|R-- .... ....|R-- .... ....|R-- .... ....
 D-4|..|D-2 2A.F ....|C-4 AF.F ....|D-4 2F2F ....
....|..|--- .... ....|C-4 CF.7 ....|--- .... ....
....|..|--- .... ....|--- .... ....|--- .... ....
....|..|R-- .... ....|R-- .... ....|A-4 2F.F ....
 A-3|..|A-2 2C.F ....|C-4 AF.F ....|A-4 2F.F ....
....|..|--- .... ....|--- .... ....|--- .... ....
....|..|--- .... ....|--- .... ....|--- .... ....
....|..|A-4 2F.F ....|R-- .... ....|A-4 2F.F ....
 D-4|..|D-2 2A.F ....|C-4 CF.F ....|F#4 2F.F ....
....|..|--- .... ....|--- .... ....|--- .... ....
....|..|--- .... ....|--- .... ....|--- .... ....
....|..|F#4 2F.F ....|R-- .... ....|F#4 2F.F ....
 A-3|..|A-2 2C.F ....|D-4 2F2F ....|F#4 2F.F ....
....|..|--- .... ....|--- .... ....|--- .... ....
....|..|--- .... ....|--- .... ....|--- .... ....
....|..|D-4 2F.F ....|R-- .... ....|D-4 2F.F ....

[Pattern43]
 C#4|..|C#2 2A.F ....|C-4 AF.F ....|E-4 2F.F ....
....|..|--- .... ....|--- .... ....|--- .... ....
....|..|--- .... ....|--- .... ....|--- .... ....
....|..|R-- .... ....|R-- .... ....|R-- .... ....
....|..|C#5 2F.F ....|C#4 2F1F ....|C#5 2F.F ....
....|..|--- .... ....|--- .... ....|--- .... ....
....|..|--- .... ....|--- .... ....|--- .... ....
....|..|C#5 2F.F ....|R-- .... ....|C#5 2F.F ....
....|..|C#5 2F.F ....|C-4 CF.F ....|C#5 2F.F ....
....|..|--- .... ....|--- .... ....|--- .... ....
....|..|--- .... ....|--- .... ....|--- .... ....
....|..|R-- .... ....|R-- .... ....|A-4 2F.7 ....
 A-3|..|A-2 2C.F ....|C#4 2F1F ....|A-4 2F.F ....
....|..|--- .... ....|--- .... ....|--- .... ....
....|..|--- .... ....|--- .... ....|--- .... ....
....|..|A-4 2F.7 ....|R-- .... ....|A-4 2F.7 ....
 D-4|..|D-2 2F.7 ....|C-4 AF.F ....|C#4 2F1F ....
....|..|--- .... ....|--- .... ....|--- .... ....
....|..|--- .... ....|--- .... ....|--- .... ....
....|..|A-4 2F.F ....|R-- .... ....|A-4 2F.F ....
 C#4|..|C#3 2C.F ....|C-4 AF.F ....|A-4 2F.F ....
....|..|--- .... ....|--- .... ....|--- .... ....
....|..|--- .... ....|--- .... ....|--- .... ....
....|..|D-4 2F.7 ....|R-- .... ....|D-4 2F.7 ....
 A-3|..|A-2 2C.F ....|C-4 CF.F ....|E-4 2F.F ....
....|..|--- .... ....|--- .... ....|--- .... ....
....|..|--- .... ....|--- .... ....|--- .... ....
....|..|E-4 2F.F ....|R-- .... ....|E-4 2F.F ....
 C#4|..|C#2 2A.F ....|C#4 2F1F ....|E-4 2F.F ....
....|..|--- .... ....|--- .... ....|--- .... ....
....|..|--- .... ....|--- .... ....|--- .... ....
....|..|C#5 2F.7 ....|R-- .... ....|C#5 2F.7 ....
 B-3|..|B-1 2A.F ....|C-4 AF.F ....|E-4 2F.F ....
....|..|--- .... ....|--- .... ....|--- .... ....
....|..|--- .... ....|--- .... ....|--- .... ....
....|..|R-- .... ....|R-- .... ....|R-- .... ....
....|..|B-4 2F.F ....|B-3 2F1F ....|B-4 2F.F ....
....|..|--- .... ....|--- .... ....|--- .... ....
....|..|--- .... ....|--- .... ....|--- .... ....
....|..|B-4 2F.F ....|R-- .... ....|B-4 2F.F ....
....|..|B-4 2F.F ....|C-4 CF.F ....|B-4 2F.F ....
....|..|--- .... ....|--- .... ....|--- .... ....
....|..|--- .... ....|--- .... ....|--- .... ....
....|..|A-4 2F.7 ....|R-- .... ....|A-4 2F.7 ....
 B-3|..|B-1 2A.F ....|B-3 2F1F ....|G-4 2F.F ....
....|..|--- .... ....|--- .... ....|--- .... ....
....|..|--- .... ....|--- .... ....|--- .... ....
....|..|R-- .... ....|R-- .... ....|G-4 2F.F ....
 C#4|..|C#2 2A.F ....|C-4 AF.F ....|G-4 2F.F ....
....|..|--- .... ....|--- .... ....|--- .... ....
....|..|--- .... ....|--- .... ....|--- .... ....
....|..|G-4 2F.F ....|R-- .... ....|G-4 2F.F ....
 D-4|..|D-2 2A.F ....|C-4 AF.F ....|G-4 2F.F ....
....|..|--- .... ....|--- .... ....|--- .... ....
....|..|--- .... ....|--- .... ....|--- .... ....
....|..|R-- .... ....|R-- .... ....|G-4 2F.F ....
 A-3|..|A-1 2A.F ....|C-4 CF.F ....|G-4 2F.F ....
....|..|--- .... ....|--- .... ....|--- .... ....
....|..|--- .... ....|--- .... ....|--- .... ....
....|..|D-4 2F.F ....|R-- .... ....|G-4 2F.F ....
....|..|D-4 2F.F ....|B-3 2F1F ....|G-4 2F.F ....
....|..|--- .... ....|--- .... ....|--- .... ....
....|..|--- .... ....|--- .... ....|--- .... ....
....|..|B-4 2F.7 ....|R-- .... ....|G-4 2F.F ....

[Pattern44]
 A-3|..|A-1 2A.F ....|C-4 AF.F ....|C#4 2F.F ....
....|..|--- .... ....|--- .... ....|--- .... ....
....|..|--- .... ....|--- .... ....|--- .... ....
....|..|R-- .... ....|R-- .... ....|R-- .... ....
....|..|A-4 2F.F ....|C#4 2F1F ....|A-4 2F.F ....
....|..|--- .... ....|--- .... ....|--- .... ....
....|..|--- .... ....|--- .... ....|--- .... ....
....|..|R-- .... ....|R-- .... ....|A-4 2F.F ....
 C#4|..|C#2 2F.7 ....|C-4 CF.F ....|A-4 2F.F ....
....|..|--- .... ....|--- .... ....|--- .... ....
....|..|--- .... ....|--- .... ....|--- .... ....
....|..|G-4 2F.7 ....|R-- .... ....|G-4 2F.7 ....
 A-3|..|A-1 2A.F ....|C#4 2F1F ....|E-4 2F.F ....
....|..|--- .... ....|--- .... ....|--- .... ....
....|..|--- .... ....|--- .... ....|--- .... ....
....|..|R-- .... ....|R-- .... ....|E-4 2F.F ....
 B-3|..|B-1 2A.F ....|C-4 AF.F ....|E-4 2F.F ....
....|..|--- .... ....|--- .... ....|--- .... ....
....|..|--- .... ....|--- .... ....|--- .... ....
....|..|D-4 2F.7 ....|R-- .... ....|G-4 2F.7 ....
 A-3|..|A-1 2A.F ....|C-4 AF.F ....|E-4 2F.F ....
....|..|--- .... ....|--- .... ....|--- .... ....
....|..|--- .... ....|--- .... ....|--- .... ....
....|..|R-- .... ....|R-- .... ....|G-4 2F.7 ....
 C#4|..|C#2 2A.F ....|C-4 CF.F ....|E-4 2F.F ....
....|..|--- .... ....|--- .... ....|--- .... ....
....|..|--- .... ....|--- .... ....|--- .... ....
....|..|R-- .... ....|R-- .... ....|R-- .... ....
 A-3|..|A-1 2A.F ....|C-4 AF.F ....|A-4 2F.F ....
....|..|--- .... ....|--- .... ....|--- .... ....
....|..|--- .... ....|--- .... ....|--- .... ....
....|..|R-- .... ....|R-- .... ....|A-4 2F.7 ....
 D-4|..|D-2 2A.F ....|C-4 AF.F ....|D-4 2F.F ....
....|..|--- .... ....|--- .... ....|--- .... ....
....|..|--- .... ....|--- .... ....|--- .... ....
....|..|R-- .... ....|R-- .... ....|R-- .... ....
 A-3|..|A-1 2F.7 ....|C#4 2F17 ....|E-4 2F.7 ....
....|..|--- .... ....|--- .... ....|--- .... ....
....|..|--- .... ....|--- .... ....|--- .... ....
....|..|D-3 2F.F ....|R-- .... ....|D-3 2F.F ....
....|..|D-4 2F.F ....|C-4 CF.F ....|D-4 2F.F ....
....|..|--- .... ....|--- .... ....|--- .... ....
....|..|--- .... ....|--- .... ....|--- .... ....
....|..|R-- .... ....|R-- .... ....|R-- .... ....
 D-4|..|D-2 2A.F ....|D-4 2F2F ....|A-4 2F.F ....
....|..|--- .... ....|--- .... ....|--- .... ....
....|..|--- .... ....|--- .... ....|--- .... ....
....|..|R-- .... ....|R-- .... ....|R-- .... ....
 D-4|..|D-2 2A.F ....|C-4 AF.F ....|D-4 2F2F ....
....|..|--- .... ....|--- .... ....|--- .... ....
....|..|--- .... ....|--- .... ....|--- .... ....
....|..|R-- .... ....|R-- .... ....|A-4 2F.F ....
 D-4|..|D-2 2A.F ....|C-4 AF.F ....|A-4 2F.F ....
....|..|--- .... ....|--- .... ....|--- .... ....
....|..|--- .... ....|--- .... ....|--- .... ....
....|..|A-4 2F.F ....|R-- .... ....|A-4 2F.F ....
 D-4|..|D-2 2A.F ....|C-4 CF.F ....|F#4 2F.F ....
....|..|--- .... ....|--- .... ....|--- .... ....
....|..|--- .... ....|--- .... ....|--- .... ....
....|..|F#4 2F.F ....|R-- .... ....|F#4 2F.F ....
 D-4|..|D-2 2A.F ....|D-4 2F2F ....|F#4 2F.F ....
....|..|--- .... ....|--- .... ....|--- .... ....
....|..|--- .... ....|--- .... ....|--- .... ....
....|..|D-4 2F.F ....|R-- .... ....|D-4 2F.F ....

[Pattern45]
 C#4|..|C#2 2A.F ....|C-4 AF.F ....|E-4 2F.F ....
....|..|--- .... ....|--- .... ....|--- .... ....
....|..|--- .... ....|--- .... ....|--- .... ....
....|..|R-- .... ....|R-- .... ....|R-- .... ....
 C#4|..|C#2 2A.F ....|C#4 2F1F ....|C#5 2F.F ....
....|..|--- .... ....|--- .... ....|--- .... ....
....|..|--- .... ....|--- .... ....|--- .... ....
....|..|C#5 2F.F ....|R-- .... ....|C#5 2F.F ....
 C#4|..|C#2 2A.F ....|C-4 CF.F ....|C#5 2F.F ....
....|..|--- .... ....|--- .... ....|--- .... ....
....|..|--- .... ....|--- .... ....|--- .... ....
....|..|R-- .... ....|R-- .... ....|A-4 2F.7 ....
 C#4|..|C#2 2A.F ....|C#4 2F1F ....|A-4 2F.F ....
....|..|--- .... ....|--- .... ....|--- .... ....
....|..|--- .... ....|--- .... ....|--- .... ....
....|..|A-4 2F.7 ....|R-- .... ....|A-4 2F.7 ....
 C#4|..|C#2 2A.F ....|C-4 AF.F ....|C#4 2F1F ....
....|..|--- .... ....|--- .... ....|--- .... ....
....|..|--- .... ....|--- .... ....|--- .... ....
....|..|A-4 2F.F ....|R-- .... ....|A-4 2F.F ....
 C#4|..|C#2 2A.F ....|C-4 AF.F ....|A-4 2F.F ....
....|..|--- .... ....|--- .... ....|--- .... ....
....|..|--- .... ....|--- .... ....|--- .... ....
....|..|D-4 2F.7 ....|R-- .... ....|D-4 2F.7 ....
 C#4|..|C#2 2A.F ....|C-4 CF.F ....|E-4 2F.F ....
....|..|--- .... ....|--- .... ....|--- .... ....
....|..|--- .... ....|--- .... ....|--- .... ....
....|..|E-4 2F.F ....|R-- .... ....|E-4 2F.F ....
 C#4|..|C#2 2A.F ....|C#4 2F1F ....|E-4 2F.F ....
....|..|--- .... ....|--- .... ....|--- .... ....
....|..|--- .... ....|--- .... ....|--- .... ....
....|..|C#5 2F.7 ....|R-- .... ....|C#5 2F.7 ....
 B-3|..|B-1 2A.F ....|C-4 AF.F ....|E-4 2F.F ....
....|..|--- .... ....|--- .... ....|--- .... ....
....|..|--- .... ....|--- .... ....|--- .... ....
....|..|R-- .... ....|R-- .... ....|R-- .... ....
 B-3|..|B-1 2A.F ....|B-3 2F1F ....|B-4 2F.F ....
....|..|--- .... ....|--- .... ....|--- .... ....
....|..|--- .... ....|--- .... ....|--- .... ....
....|..|B-4 2F.F ....|R-- .... ....|B-4 2F.F ....
 B-3|..|B-1 2A.F ....|C-4 CF.F ....|B-4 2F.F ....
....|..|--- .... ....|--- .... ....|--- .... ....
....|..|--- .... ....|--- .... ....|--- .... ....
....|..|A-4 2F.7 ....|R-- .... ....|A-4 2F.7 ....
 B-3|..|B-1 2A.F ....|B-3 2F1F ....|G-4 2F.F ....
....|..|--- .... ....|--- .... ....|--- .... ....
....|..|--- .... ....|--- .... ....|--- .... ....
....|..|R-- .... ....|R-- .... ....|G-4 2F.F ....
 B-3|..|B-1 2A.F ....|C-4 AF.F ....|G-4 2F.F ....
....|..|--- .... ....|--- .... ....|--- .... ....
....|..|--- .... ....|--- .... ....|--- .... ....
....|..|G-4 2F.F ....|R-- .... ....|G-4 2F.F ....
 B-3|..|B-1 2A.F ....|C-4 AF.F ....|G-4 2F.F ....
....|..|--- .... ....|--- .... ....|--- .... ....
....|..|--- .... ....|--- .... ....|--- .... ....
....|..|R-- .... ....|R-- .... ....|G-4 2F.F ....
 B-3|..|B-1 2A.F ....|C-4 CF.F ....|G-4 2F.F ....
....|..|--- .... ....|--- .... ....|--- .... ....
....|..|--- .... ....|--- .... ....|--- .... ....
....|..|D-4 2F.F ....|R-- .... ....|G-4 2F.F ....
....|..|D-4 2F.F ....|B-3 2F1F ....|G-4 2F.F ....
....|..|--- .... ....|--- .... ....|--- .... ....
....|..|--- .... ....|--- .... ....|--- .... ....
....|..|B-4 2F.7 ....|R-- .... ....|G-4 2F.F ....

[Pattern46]
 A-3|..|A-1 2A.F ....|C-4 AF.F ....|C#4 2F.F ....
....|..|--- .... ....|--- .... ....|--- .... ....
....|..|--- .... ....|R-- .... ....|--- .... ....
....|..|R-- .... ....|R-- .... ....|R-- .... ....
 A-3|..|A-1 2A.F ....|C-4 AF.F ....|A-4 2F.F ....
....|..|--- .... ....|--- .... ....|--- .... ....
....|..|--- .... ....|R-- .... ....|--- .... ....
....|..|R-- .... ....|R-- .... ....|A-4 2F.F ....
 A-3|..|A-1 2A.F ....|C-4 CF.F ....|A-4 2F.F ....
....|..|--- .... ....|--- .... ....|--- .... ....
....|..|--- .... ....|R-- .... ....|--- .... ....
....|..|G-4 2F.7 ....|R-- .... ....|G-4 2F.7 ....
 A-3|..|A-1 2A.F ....|C-4 AF.F ....|E-4 2F.F ....
....|..|--- .... ....|--- .... ....|--- .... ....
....|..|--- .... ....|R-- .... ....|--- .... ....
....|..|R-- .... ....|R-- .... ....|E-4 2F.F ....
 A-3|..|A-1 2A.F ....|C-4 CF.F ....|E-4 2F.F ....
....|..|--- .... ....|--- .... ....|--- .... ....
....|..|--- .... ....|R-- .... ....|--- .... ....
....|..|D-4 2F.7 ....|R-- .... ....|G-4 2F.7 ....
 A-3|..|A-1 2A.F ....|C-4 AF.F ....|E-4 2F.F ....
....|..|--- .... ....|--- .... ....|--- .... ....
....|..|--- .... ....|R-- .... ....|--- .... ....
....|..|R-- .... ....|R-- .... ....|G-4 2F.7 ....
 A-3|..|A-1 2A.F ....|C-4 CF.F ....|E-4 2F.F ....
....|..|--- .... ....|--- .... ....|--- .... ....
....|..|--- .... ....|R-- .... ....|--- .... ....
....|..|R-- .... ....|R-- .... ....|R-- .... ....
....|..|A-3 2F.F ....|C-4 AF.F ....|A-4 2F.F ....
....|..|--- .... ....|--- .... ....|--- .... ....
....|..|--- .... ....|R-- .... ....|--- .... ....
....|..|R-- .... ....|R-- .... ....|A-4 2F.7 ....
 G-3|..|G-1 2A.F ....|C-4 CF.F ....|G-4 2F.F ....
....|..|--- .... ....|--- .... ....|--- .... ....
....|..|--- .... ....|R-- .... ....|--- .... ....
....|..|R-- .... ....|R-- .... ....|R-- .... ....
 G-3|..|G-1 2A.F ....|C-4 AF.F ....|D-4 2F6F ....
....|..|--- .... ....|--- .... ....|--- .... ....
....|..|--- .... ....|R-- .... ....|--- .... ....
....|..|R-- .... ....|R-- .... ....|E-4 2F.7 ....
 G-3|..|G-1 2A.F ....|C-4 CF.F ....|D-4 2F6F ....
....|..|--- .... ....|--- .... ....|--- .... ....
....|..|--- .... ....|R-- .... ....|--- .... ....
....|..|R-- .... ....|R-- .... ....|R-- .... ....
 G-3|..|G-1 2A.F ....|C-4 AF.F ....|G-4 2F.F ....
....|..|--- .... ....|--- .... ....|--- .... ....
....|..|--- .... ....|R-- .... ....|--- .... ....
....|..|R-- .... ....|R-- .... ....|R-- .... ....
 G-3|..|G-1 2A.F ....|C-4 CF.F ....|D-4 2F6F ....
....|..|--- .... ....|--- .... ....|--- .... ....
....|..|--- .... ....|R-- .... ....|--- .... ....
....|..|R-- .... ....|R-- .... ....|R-- .... ....
 D-4|..|D-2 2A.F ....|C-4 AF.F ....|D-4 2F6F ....
....|..|--- .... ....|--- .... ....|--- .... ....
....|..|--- .... ....|R-- .... ....|--- .... ....
....|..|R-- .... ....|R-- .... ....|R-- .... ....
 D-4|..|D-2 2A.F ....|C-4 CF.F ....|D-4 2F6F ....
....|..|--- .... ....|--- .... ....|--- .... ....
....|..|--- .... ....|R-- .... ....|--- .... ....
....|..|R-- .... ....|R-- .... ....|R-- .... ....
 G-3|..|G-1 2F.7 ....|C-4 AF.F ....|D-4 2F6F ....
....|..|--- .... ....|--- .... ....|--- .... ....
....|..|--- .... ....|R-- .... ....|--- .... ....
....|..|R-- .... ....|R-- .... ....|R-- .... ....

[Pattern47]
 G-3|..|G-1 2A.F ....|C-4 CF.F ....|E-4 2F.F ....
....|..|--- .... ....|--- .... ....|--- .... ....
....|..|--- .... ....|R-- .... ....|--- .... ....
....|..|R-- .... ....|R-- .... ....|R-- .... ....
 G-3|..|G-1 2A.F ....|C-4 AF.F ....|E-4 2F6F ....
....|..|--- .... ....|--- .... ....|--- .... ....
....|..|--- .... ....|R-- .... ....|--- .... ....
....|..|R-- .... ....|R-- .... ....|R-- .... ....
 G-3|..|G-1 2A.F ....|C-4 CF.F ....|E-4 2F6F ....
....|..|--- .... ....|--- .... ....|--- .... ....
....|..|--- .... ....|R-- .... ....|--- .... ....
....|..|R-- .... ....|R-- .... ....|R-- .... ....
 G-3|..|G-1 2A.F ....|C-4 AF.F ....|E-4 2F.F ....
....|..|--- .... ....|--- .... ....|--- .... ....
....|..|--- .... ....|R-- .... ....|--- .... ....
....|..|R-- .... ....|R-- .... ....|R-- .... ....
 G-3|..|G-1 2A.F ....|C-4 CF.F ....|E-4 2F6F ....
....|..|--- .... ....|--- .... ....|--- .... ....
....|..|--- .... ....|R-- .... ....|--- .... ....
....|..|R-- .... ....|R-- .... ....|R-- .... ....
 G-3|..|G-1 2A.F ....|C-4 AF.F ....|E-4 2F6F ....
....|..|--- .... ....|--- .... ....|--- .... ....
....|..|--- .... ....|R-- .... ....|--- .... ....
....|..|R-- .... ....|R-- .... ....|R-- .... ....
 D-4|..|D-2 2A.F ....|C-4 CF.F ....|E-4 2F6F ....
....|..|--- .... ....|--- .... ....|--- .... ....
....|..|--- .... ....|R-- .... ....|--- .... ....
....|..|R-- .... ....|R-- .... ....|R-- .... ....
 G-3|..|G-1 2F.7 ....|C-4 AF.F ....|E-4 2F6F ....
....|..|--- .... ....|--- .... ....|--- .... ....
....|..|--- .... ....|R-- .... ....|--- .... ....
....|..|R-- .... ....|R-- .... ....|R-- .... ....
 G-3|..|G-1 2A.F ....|C-4 CF.F ....|G-4 2F.F ....
....|..|--- .... ....|--- .... ....|--- .... ....
....|..|--- .... ....|R-- .... ....|--- .... ....
....|..|R-- .... ....|R-- .... ....|R-- .... ....
 G-3|..|G-1 2A.F ....|C-4 AF.F ....|D-4 2F6F ....
....|..|--- .... ....|--- .... ....|--- .... ....
....|..|--- .... ....|R-- .... ....|--- .... ....
....|..|R-- .... ....|R-- .... ....|R-- .... ....
 G-3|..|G-1 2A.F ....|C-4 CF.F ....|D-4 2F6F ....
....|..|--- .... ....|--- .... ....|--- .... ....
....|..|--- .... ....|R-- .... ....|--- .... ....
....|..|R-- .... ....|R-- .... ....|R-- .... ....
 G-3|..|G-1 2A.F ....|C-4 AF.F ....|G-4 2F.F ....
....|..|--- .... ....|--- .... ....|--- .... ....
....|..|--- .... ....|R-- .... ....|--- .... ....
....|..|R-- .... ....|R-- .... ....|R-- .... ....
 G-3|..|G-1 2A.F ....|C-4 CF.F ....|D-4 2F6F ....
....|..|--- .... ....|--- .... ....|--- .... ....
....|..|--- .... ....|R-- .... ....|--- .... ....
....|..|R-- .... ....|R-- .... ....|R-- .... ....
 G-3|..|G-1 2A.F ....|C-4 AF.F ....|D-4 2F6F ....
....|..|--- .... ....|--- .... ....|--- .... ....
....|..|--- .... ....|R-- .... ....|--- .... ....
....|..|R-- .... ....|R-- .... ....|R-- .... ....
 G-3|..|G-1 2A.F ....|C-4 CF.F ....|D-4 2F6F ....
....|..|--- .... ....|--- .... ....|--- .... ....
....|..|--- .... ....|R-- .... ....|--- .... ....
....|..|R-- .... ....|R-- .... ....|R-- .... ....
 D-4|..|D-2 2A.F ....|C-4 AF.F ....|D-4 2F6F ....
....|..|--- .... ....|--- .... ....|--- .... ....
....|..|--- .... ....|R-- .... ....|--- .... ....
....|..|R-- .... ....|R-- .... ....|R-- .... ....

[Pattern48]
 G-3|..|G-1 2A.F ....|C-4 CF.F ....|E-4 2F.F ....
....|..|--- .... ....|--- .... ....|--- .... ....
....|..|--- .... ....|R-- .... ....|--- .... ....
....|..|R-- .... ....|R-- .... ....|R-- .... ....
 G-3|..|G-1 2A.F ....|C-4 AF.F ....|E-4 2F6F ....
....|..|--- .... ....|--- .... ....|--- .... ....
....|..|--- .... ....|R-- .... ....|--- .... ....
....|..|R-- .... ....|R-- .... ....|R-- .... ....
 G-3|..|G-1 2A.F ....|C-4 CF.F ....|E-4 2F6F ....
....|..|--- .... ....|--- .... ....|--- .... ....
....|..|--- .... ....|R-- .... ....|--- .... ....
....|..|R-- .... ....|R-- .... ....|R-- .... ....
 G-3|..|G-1 2A.F ....|C-4 AF.F ....|C#4 2F.F ....
....|..|--- .... ....|--- .... ....|--- .... ....
....|..|--- .... ....|R-- .... ....|--- .... ....
....|..|R-- .... ....|R-- .... ....|R-- .... ....
 G-3|..|G-1 2A.F ....|C-4 CF.F ....|E-4 2F6F ....
....|..|--- .... ....|--- .... ....|--- .... ....
....|..|--- .... ....|R-- .... ....|--- .... ....
....|..|R-- .... ....|R-- .... ....|R-- .... ....
 G-3|..|G-1 2A.F ....|C-4 AF.F ....|E-4 2F6F ....
....|..|R-- .... ....|R-- .... ....|--- .... ....
 G-3|..|G-1 2A.F ....|G-1 2A.F ....|--- .... ....
....|..|R-- .... ....|R-- .... ....|R-- .... ....
 G-3|..|G-1 2A.F ....|C-4 CF.F ....|E-4 2F6F ....
....|..|--- .... ....|--- .... ....|--- .... ....
....|..|--- .... ....|R-- .... ....|--- .... ....
....|..|R-- .... ....|R-- .... ....|R-- .... ....
 G-3|..|G-1 2A.F ....|C-4 AF.F ....|E-4 2F6F ....
....|..|--- .... ....|--- .... ....|--- .... ....
....|..|--- .... ....|R-- .... ....|--- .... ....
....|..|R-- .... ....|R-- .... ....|R-- .... ....
 G-3|..|G-1 2A.F ....|C-4 CF.F ....|G-4 2F.F ....
....|..|R-- .... ....|R-- .... ....|--- .... ....
 G-3|..|G-1 2F.A ....|R-- .... ....|--- .... ....
....|..|R-- .... ....|R-- .... ....|R-- .... ....
 G-3|..|G-1 2A.F ....|C-4 AF.F ....|D-4 2F6F ....
....|..|--- .... ....|--- .... ....|--- .... ....
....|..|--- .... ....|R-- .... ....|--- .... ....
....|..|R-- .... ....|R-- .... ....|R-- .... ....
 G-3|..|G-1 2A.F ....|C-4 CF.F ....|D-4 2F6F ....
....|..|--- .... ....|--- .... ....|--- .... ....
....|..|--- .... ....|R-- .... ....|--- .... ....
....|..|R-- .... ....|R-- .... ....|R-- .... ....
 G-3|..|G-1 2A.F ....|C-4 AF.F ....|G-4 2F.F ....
....|..|R-- .... ....|R-- .... ....|--- .... ....
 G-3|..|G-1 2F.7 ....|G-1 2F.7 ....|--- .... ....
....|..|R-- .... ....|R-- .... ....|R-- .... ....
 G-3|..|G-1 2A.F ....|C-4 CF.F ....|D-4 2F6F ....
....|..|--- .... ....|--- .... ....|--- .... ....
....|..|--- .... ....|R-- .... ....|--- .... ....
....|..|R-- .... ....|R-- .... ....|R-- .... ....
 G-3|..|G-1 2A.F ....|C-4 AF.F ....|D-4 2F6F ....
....|..|--- .... ....|--- .... ....|--- .... ....
....|..|--- .... ....|R-- .... ....|--- .... ....
....|..|R-- .... ....|R-- .... ....|R-- .... ....
 G-3|..|G-1 2A.F ....|C-4 CF.F ....|D-4 2F6F ....
....|..|--- .... ....|--- .... ....|--- .... ....
....|..|--- .... ....|R-- .... ....|--- .... ....
....|..|R-- .... ....|R-- .... ....|R-- .... ....
 G-3|..|G-1 2A.F ....|C-4 AF.F ....|D-4 2F6F ....
....|..|--- .... ....|--- .... ....|--- .... ....
....|..|--- .... ....|R-- .... ....|--- .... ....
....|..|R-- .... ....|R-- .... ....|R-- .... ....

[Pattern49]
 G-3|..|G-1 2A.F ....|C-4 CF.F ....|E-4 2F.F ....
....|..|--- .... ....|--- .... ....|--- .... ....
....|..|--- .... ....|R-- .... ....|--- .... ....
....|..|R-- .... ....|R-- .... ....|R-- .... ....
 G-3|..|G-1 2A.F ....|C-4 AF.F ....|E-4 2F6F ....
....|..|--- .... ....|--- .... ....|--- .... ....
....|..|--- .... ....|R-- .... ....|--- .... ....
....|..|R-- .... ....|R-- .... ....|R-- .... ....
 G-3|..|G-1 2A.F ....|C-4 CF.F ....|E-4 2F6F ....
....|..|--- .... ....|--- .... ....|--- .... ....
....|..|--- .... ....|R-- .... ....|--- .... ....
....|..|R-- .... ....|R-- .... ....|R-- .... ....
 G-3|..|G-1 2A.F ....|C-4 AF.F ....|C#4 2F.F ....
....|..|--- .... ....|--- .... ....|--- .... ....
....|..|--- .... ....|R-- .... ....|--- .... ....
....|..|R-- .... ....|R-- .... ....|R-- .... ....
 G-3|..|G-1 2A.F ....|C-4 CF.F ....|E-4 2F6F ....
....|..|--- .... ....|--- .... ....|--- .... ....
....|..|--- .... ....|R-- .... ....|--- .... ....
....|..|R-- .... ....|R-- .... ....|R-- .... ....
 G-3|..|G-1 2A.F ....|C-4 AF.F ....|E-4 2F6F ....
....|..|--- .... ....|--- .... ....|--- .... ....
....|..|--- .... ....|R-- .... ....|--- .... ....
....|..|R-- .... ....|R-- .... ....|R-- .... ....
 G-3|..|G-1 2A.F ....|C-4 CF.F ....|E-4 2F6F ....
....|..|--- .... ....|C-4 CF.F ....|--- .... ....
....|..|--- .... ....|R-- .... ....|--- .... ....
....|..|R-- .... ....|R-- .... ....|R-- .... ....
 G-3|..|G-1 2A.F ....|C-4 AF.F ....|E-4 2F6F ....
....|..|--- .... ....|--- .... ....|--- .... ....
....|..|--- .... ....|R-- .... ....|--- .... ....
....|..|R-- .... ....|R-- .... ....|R-- .... ....
 F#3|..|F#1 2A.F ....|C-4 AF.F ....|D-3 2F.F ....
....|..|--- .... ....|--- .... ....|--- .... ....
....|..|--- .... ....|R-- .... ....|--- .... ....
....|..|R-- .... ....|R-- .... ....|R-- .... ....
....|..|D-4 2F.F ....|C-4 AF.7 ....|A-3 2F.F ....
....|..|--- .... ....|C-4 CF.A ....|--- .... ....
....|..|--- .... ....|R-- .... ....|--- .... ....
....|..|A-3 2F.F ....|R-- .... ....|A-3 2F.F ....
....|..|E-4 2F.F ....|C-4 CF.7 ....|D-3 2F.F ....
....|..|--- .... ....|--- .... ....|--- .... ....
....|..|--- .... ....|R-- .... ....|--- .... ....
....|..|A-3 2F.F ....|R-- .... ....|A-3 2F.F ....
....|..|D-4 2F.F ....|C-4 CF.F ....|D-4 2F.F ....
....|..|--- .... ....|--- .... ....|--- .... ....
....|..|--- .... ....|R-- .... ....|--- .... ....
....|..|R-- .... ....|R-- .... ....|R-- .... ....
 G-3|..|G-1 2F.7 ....|C-4 CF.7 ....|E-4 2F67 ....
....|..|--- .... ....|C-4 CF.7 ....|--- .... ....
....|..|--- .... ....|--- .... ....|--- .... ....
....|..|R-- .... ....|R-- .... ....|R-- .... ....
....|..|C#4 2F.F ....|C-4 AF.7 ....|C#4 2F.F ....
....|..|--- .... ....|--- .... ....|--- .... ....
....|..|--- .... ....|R-- .... ....|--- .... ....
....|..|A-3 2F.F ....|R-- .... ....|A-3 2F.F ....
....|..|E-4 2F.F ....|C-4 CF.F ....|E-4 2F.F ....
....|..|--- .... ....|--- .... ....|--- .... ....
....|..|--- .... ....|--- .... ....|--- .... ....
....|..|--- .... ....|--- .... ....|R-- .... ....
 F#3|..|F#1 2A.F ....|F#1 2A.F ....|A-3 2F.7 ....
....|..|--- .... ....|--- .... ....|--- .... ....
....|..|--- .... ....|--- .... ....|--- .... ....
....|..|A-3 2F.7 ....|R-- .... ....|A-3 2F.7 ....

[Pattern50]
 G-3|..|G-1 2A.F ....|C-4 AF.F ....|B-3 2F.F ....
....|..|--- .... ....|--- .... ....|--- .... ....
....|..|--- .... ....|--- .... ....|--- .... ....
....|..|A-3 2F.7 ....|R-- .... ....|A-3 2F.7 ....
....|..|D-4 2F.7 ....|C-4 CF.7 ....|D-4 2F.7 ....
....|..|--- .... ....|--- .... ....|--- .... ....
....|..|--- .... ....|--- .... ....|--- .... ....
....|..|--- .... ....|--- .... ....|--- .... ....
 F#3|..|F#1 2F.A ....|R-- .... ....|--- .... ....
....|..|--- .... ....|--- .... ....|--- .... ....
....|..|--- .... ....|--- .... ....|--- .... ....
....|..|R-- .... ....|R-- .... ....|R-- .... ....
 A-3|..|A-1 2A.F ....|C-4 AF.F ....|C#4 2F.F ....
....|..|--- .... ....|--- .... ....|--- .... ....
....|..|--- .... ....|--- .... ....|--- .... ....
....|..|A-3 2F.7 ....|R-- .... ....|A-3 2F.7 ....
....|..|E-4 2F.7 ....|C-4 CF.7 ....|E-4 2F.7 ....
....|..|--- .... ....|--- .... ....|--- .... ....
....|..|--- .... ....|--- .... ....|--- .... ....
....|..|--- .... ....|--- .... ....|--- .... ....
 F#3|..|F#1 2F.7 ....|F#1 2F.7 ....|--- .... ....
....|..|--- .... ....|--- .... ....|--- .... ....
....|..|--- .... ....|--- .... ....|--- .... ....
....|..|R-- .... ....|R-- .... ....|R-- .... ....
 G-3|..|G-1 2F.7 ....|C-4 AF.7 ....|B-3 2F.7 ....
....|..|--- .... ....|--- .... ....|--- .... ....
....|..|--- .... ....|--- .... ....|--- .... ....
....|..|--- .... ....|R-- .... ....|--- .... ....
....|..|--- .... ....|--- .... ....|--- .... ....
....|..|--- .... ....|--- .... ....|--- .... ....
....|..|--- .... ....|--- .... ....|--- .... ....
....|..|R-- .... ....|--- .... ....|R-- .... ....
 D-4|..|D-3 2C.F ....|D-3 2C.F ....|--- .... ....
....|..|--- .... ....|--- .... ....|--- .... ....
....|..|--- .... ....|--- .... ....|--- .... ....
....|..|R-- .... ....|R-- .... ....|R-- .... ....
 D-4|..|D-3 2C.F ....|D-3 2C.F ....|C#4 2F.7 ....
....|..|--- .... ....|--- .... ....|--- .... ....
....|..|--- .... ....|--- .... ....|--- .... ....
....|..|R-- .... ....|R-- .... ....|--- .... ....
 D-4|..|D-3 2C.F ....|D-3 2C.F ....|--- .... ....
....|..|--- .... ....|--- .... ....|--- .... ....
....|..|--- .... ....|--- .... ....|--- .... ....
....|..|R-- .... ....|R-- .... ....|R-- .... ....
 D-4|..|D-3 2C.F ....|D-3 2C.F ....|--- .... ....
....|..|R-- .... ....|R-- .... ....|--- .... ....
 D-4|..|D-3 2C.F ....|D-3 2C.F ....|--- .... ....
....|..|R-- .... ....|R-- .... ....|--- .... ....
 D-4|..|D-3 2C.F ....|D-3 2C.F ....|R-- .... ....
....|..|--- .... ....|--- .... ....|--- .... ....
....|..|--- .... ....|--- .... ....|--- .... ....
....|..|R-- .... ....|R-- .... ....|--- .... ....
 A-3|..|A-2 2C.F ....|A-2 2C.F ....|--- .... ....
....|..|--- .... ....|--- .... ....|--- .... ....
....|..|R-- .... ....|R-- .... ....|--- .... ....
....|..|R-- .... ....|R-- .... ....|R-- .... ....
 D-4|..|D-3 2F.7 ....|D-3 2F.7 ....|--- .... ....
....|..|R-- .... ....|R-- .... ....|--- .... ....
 D-4|..|D-3 2F.A ....|D-3 2F.A ....|--- .... ....
....|..|R-- .... ....|R-- .... ....|--- .... ....
 D-4|..|D-3 2F.7 ....|D-3 2F.7 ....|--- .... ....
....|..|--- .... ....|--- .... ....|--- .... ....
....|..|--- .... ....|--- .... ....|--- .... ....
....|..|R-- .... ....|R-- .... ....|--- .... ....

[Pattern52]
 D-4|..|D-3 2C.F ....|B-4 2F.F ....|B-4 2F.F ....
....|..|--- .... ....|--- .... ....|--- .... ....
....|..|R-- .... ....|R-- .... ....|--- .... ....
....|..|R-- .... ....|D-4 2F.F ....|D-4 2F.F ....
 D-4|..|D-3 2C.F ....|D-4 2F8F ....|D-4 2F8F ....
....|..|R-- .... ....|R-- .... ....|--- .... ....
 D-4|..|D-3 2F.7 ....|D-3 2F.7 ....|--- .... ....
....|..|R-- .... ....|R-- .... ....|R-- .... ....
 D-4|..|D-3 2C.F ....|D-4 2F.F ....|D-4 2F.F ....
....|..|--- .... ....|--- .... ....|--- .... ....
....|..|--- .... ....|--- .... ....|--- .... ....
....|..|R-- .... ....|R-- .... ....|R-- .... ....
 D-4|..|D-3 2C.F ....|C#4 2FBF ....|C#4 2FBF ....
....|..|R-- .... ....|R-- .... ....|--- .... ....
 D-4|..|D-3 2C.F ....|D-3 2C.F ....|--- .... ....
....|..|R-- .... ....|R-- .... ....|D-4 2F.A ....
 D-4|..|D-3 2C.F ....|D-3 2C.F ....|D-4 2F8A ....
....|..|--- .... ....|--- .... ....|--- .... ....
....|..|--- .... ....|--- .... ....|--- .... ....
....|..|R-- .... ....|R-- .... ....|R-- .... ....
 A-3|..|A-2 2C.F ....|A-2 2C.F ....|D-4 2F.A ....
....|..|--- .... ....|--- .... ....|--- .... ....
....|..|R-- .... ....|R-- .... ....|--- .... ....
....|..|R-- .... ....|R-- .... ....|R-- .... ....
 D-4|..|D-3 2F.7 ....|B-4 2F.7 ....|B-4 2F.7 ....
....|..|R-- .... ....|R-- .... ....|--- .... ....
 D-4|..|D-3 2F.A ....|D-3 2F.A ....|--- .... ....
....|..|R-- .... ....|D-4 2F.7 ....|D-4 2F.7 ....
 D-4|..|D-3 2F.7 ....|D-4 2F87 ....|D-4 2F87 ....
....|..|--- .... ....|--- .... ....|--- .... ....
....|..|--- .... ....|--- .... ....|--- .... ....
....|..|R-- .... ....|R-- .... ....|R-- .... ....
 D-4|..|D-3 2C.F ....|D-3 2C.F ....|D-4 2F.7 ....
....|..|--- .... ....|--- .... ....|--- .... ....
....|..|R-- .... ....|R-- .... ....|--- .... ....
....|..|R-- .... ....|R-- .... ....|R-- .... ....
 D-4|..|D-3 2C.F ....|D-3 2C.F ....|C#4 2FB7 ....
....|..|R-- .... ....|R-- .... ....|--- .... ....
 D-4|..|D-3 2F.7 ....|D-3 2F.7 ....|--- .... ....
....|..|R-- .... ....|R-- .... ....|--- .... ....
 D-4|..|D-3 2C.F ....|D-3 2C.F ....|--- .... ....
....|..|--- .... ....|--- .... ....|--- .... ....
....|..|--- .... ....|--- .... ....|--- .... ....
....|..|R-- .... ....|R-- .... ....|--- .... ....
 D-4|..|D-3 2C.F ....|D-3 2C.F ....|R-- .... ....
....|..|R-- .... ....|R-- .... ....|--- .... ....
 D-4|..|D-3 2C.F ....|D-3 2C.F ....|--- .... ....
....|..|R-- .... ....|R-- .... ....|--- .... ....
 D-4|..|D-3 2C.F ....|D-3 2C.F ....|--- .... ....
....|..|--- .... ....|--- .... ....|--- .... ....
....|..|--- .... ....|--- .... ....|--- .... ....
....|..|R-- .... ....|R-- .... ....|--- .... ....
 A-3|..|A-2 2C.F ....|A-2 2C.F ....|--- .... ....
....|..|--- .... ....|--- .... ....|--- .... ....
....|..|R-- .... ....|R-- .... ....|--- .... ....
....|..|R-- .... ....|R-- .... ....|--- .... ....
 D-4|..|D-3 2F.7 ....|D-3 2F.7 ....|R-- .... ....
....|..|R-- .... ....|R-- .... ....|--- .... ....
 D-4|..|D-3 2F.A ....|D-3 2F.A ....|--- .... ....
....|..|R-- .... ....|R-- .... ....|--- .... ....
 D-4|..|D-3 2F.7 ....|D-3 2F.7 ....|--- .... ....
....|..|--- .... ....|--- .... ....|--- .... ....
....|..|--- .... ....|--- .... ....|--- .... ....
....|..|R-- .... ....|R-- .... ....|--- .... ....

[Pattern53]
 D-4|..|D-3 2C.F ....|D-3 2C.F ....|--- .... ....
....|..|--- .... ....|--- .... ....|--- .... ....
....|..|R-- .... ....|R-- .... ....|--- .... ....
....|..|R-- .... ....|R-- .... ....|--- .... ....
 D-4|..|D-3 2C.F ....|D-3 2C.F ....|--- .... ....
....|..|R-- .... ....|R-- .... ....|--- .... ....
 D-4|..|D-3 2F.7 ....|D-3 2F.7 ....|--- .... ....
....|..|R-- .... ....|R-- .... ....|--- .... ....
 D-4|..|D-3 2C.F ....|D-3 2C.F ....|--- .... ....
....|..|--- .... ....|--- .... ....|--- .... ....
....|..|--- .... ....|--- .... ....|--- .... ....
....|..|R-- .... ....|R-- .... ....|--- .... ....
 D-4|..|D-3 2C.F ....|D-3 2C.F ....|--- .... ....
....|..|R-- .... ....|R-- .... ....|--- .... ....
 D-4|..|D-3 2C.F ....|D-3 2C.F ....|--- .... ....
....|..|R-- .... ....|R-- .... ....|--- .... ....
 D-4|..|D-3 2C.F ....|D-3 2C.F ....|--- .... ....
....|..|--- .... ....|--- .... ....|--- .... ....
....|..|--- .... ....|--- .... ....|--- .... ....
....|..|R-- .... ....|R-- .... ....|--- .... ....
 A-3|..|A-2 2C.F ....|A-2 2C.F ....|--- .... ....
....|..|--- .... ....|--- .... ....|--- .... ....
....|..|R-- .... ....|R-- .... ....|--- .... ....
....|..|R-- .... ....|R-- .... ....|--- .... ....
 D-4|..|D-3 2F.7 ....|D-3 2F.7 ....|--- .... ....
....|..|R-- .... ....|R-- .... ....|--- .... ....
 D-4|..|D-3 2F.A ....|D-3 2F.A ....|--- .... ....
....|..|R-- .... ....|R-- .... ....|--- .... ....
 D-4|..|D-3 2F.7 ....|D-3 2F.7 ....|--- .... ....
....|..|--- .... ....|--- .... ....|--- .... ....
....|..|--- .... ....|--- .... ....|--- .... ....
....|..|R-- .... ....|R-- .... ....|--- .... ....
 G-3|..|G-1 2A.F ....|B-4 2F.F ....|B-4 2F.F ....
....|..|--- .... ....|--- .... ....|--- .... ....
....|..|R-- .... ....|R-- .... ....|--- .... ....
....|..|R-- .... ....|D-4 2F.F ....|D-4 2F.F ....
 D-4|..|D-3 2F.7 ....|D-4 2F8F ....|D-4 2F8F ....
....|..|R-- .... ....|R-- .... ....|--- .... ....
 D-4|..|D-3 2F.7 ....|D-3 2F.7 ....|--- .... ....
....|..|R-- .... ....|R-- .... ....|R-- .... ....
 D-4|..|D-3 2F.7 ....|D-4 2F.F ....|D-4 2F.F ....
....|..|--- .... ....|--- .... ....|--- .... ....
....|..|--- .... ....|--- .... ....|--- .... ....
....|..|R-- .... ....|R-- .... ....|R-- .... ....
 A-3|..|A-1 2A.F ....|C#4 2FBF ....|C#4 2FBF ....
....|..|--- .... ....|--- .... ....|--- .... ....
....|..|R-- .... ....|R-- .... ....|--- .... ....
....|..|--- .... ....|D-4 2F.A ....|D-4 2F.A ....
....|..|--- .... ....|D-4 2F8A ....|D-4 2F8A ....
....|..|--- .... ....|--- .... ....|--- .... ....
....|..|--- .... ....|--- .... ....|--- .... ....
....|..|--- .... ....|R-- .... ....|R-- .... ....
....|..|--- .... ....|D-4 2F.A ....|D-4 2F.A ....
....|..|--- .... ....|--- .... ....|--- .... ....
....|..|--- .... ....|--- .... ....|--- .... ....
....|..|--- .... ....|R-- .... ....|R-- .... ....
 G-3|..|G-1 2F.7 ....|B-4 2F.7 ....|B-4 2F.7 ....
....|..|--- .... ....|--- .... ....|--- .... ....
....|..|--- .... ....|--- .... ....|--- .... ....
....|..|--- .... ....|D-4 2F.7 ....|D-4 2F.7 ....
....|..|--- .... ....|D-4 2F87 ....|D-4 2F87 ....
....|..|--- .... ....|--- .... ....|--- .... ....
....|..|--- .... ....|--- .... ....|--- .... ....
....|..|--- .... ....|R-- .... ....|R-- .... ....

[Pattern54]
....|..|--- .... ....|D-4 2F.7 ....|D-4 2F.7 ....
....|..|--- .... ....|--- .... ....|--- .... ....
....|..|--- .... ....|--- .... ....|--- .... ....
....|..|--- .... ....|R-- .... ....|R-- .... ....
 A-3|..|A-1 2F.7 ....|C#4 2FB7 ....|C#4 2FB7 ....
....|..|--- .... ....|--- .... ....|--- .... ....
....|..|--- .... ....|--- .... ....|--- .... ....
....|..|--- .... ....|--- .... ....|--- .... ....
....|..|--- .... ....|--- .... ....|--- .... ....
....|..|--- .... ....|--- .... ....|--- .... ....
....|..|--- .... ....|--- .... ....|--- .... ....
....|..|--- .... ....|--- .... ....|--- .... ....
....|..|--- .... ....|--- .... ....|--- .... ....
....|..|--- .... ....|--- .... ....|--- .... ....
....|..|--- .... ....|--- .... ....|--- .... ....
....|..|--- .... ....|--- .... ....|--- .... ....
....|..|--- .... ....|--- .... ....|--- .... ....
....|..|--- .... ....|--- .... ....|--- .... ....
....|..|--- .... ....|--- .... ....|--- .... ....
....|..|--- .... ....|--- .... ....|--- .... ....
....|..|--- .... ....|--- .... ....|--- .... ....
....|..|--- .... ....|--- .... ....|--- .... ....
....|..|--- .... ....|--- .... ....|--- .... ....
....|..|--- .... ....|--- .... ....|--- .... ....
....|..|--- .... ....|--- .... ....|--- .... ....
....|..|--- .... ....|--- .... ....|--- .... ....
....|..|--- .... ....|--- .... ....|--- .... ....
....|..|--- .... ....|--- .... ....|--- .... ....
....|..|--- .... ....|--- .... ....|--- .... ....
....|..|--- .... ....|--- .... ....|--- .... ....
....|..|--- .... ....|--- .... ....|--- .... ....
....|..|--- .... ....|--- .... ....|--- .... ....
....|..|--- .... ....|--- .... ....|--- .... ....
....|..|--- .... ....|--- .... ....|--- .... ....
....|..|--- .... ....|--- .... ....|--- .... ....
....|..|--- .... ....|--- .... ....|--- .... ....
....|..|--- .... ....|--- .... ....|--- .... ....
....|..|--- .... ....|--- .... ....|--- .... ....
....|..|--- .... ....|--- .... ....|--- .... ....
....|..|--- .... ....|--- .... ....|--- .... ....
....|..|--- .... ....|--- .... ....|--- .... ....
....|..|--- .... ....|--- .... ....|--- .... ....
....|..|--- .... ....|--- .... ....|--- .... ....
....|..|--- .... ....|--- .... ....|--- .... ....
....|..|--- .... ....|--- .... ....|--- .... ....
....|..|--- .... ....|--- .... ....|--- .... ....
....|..|--- .... ....|--- .... ....|--- .... ....
....|..|--- .... ....|--- .... ....|--- .... ....
....|..|--- .... ....|--- .... ....|--- .... ....
....|..|--- .... ....|--- .... ....|--- .... ....
....|..|--- .... ....|--- .... ....|--- .... ....
....|..|--- .... ....|--- .... ....|--- .... ....
....|..|--- .... ....|--- .... ....|--- .... ....
....|..|--- .... ....|--- .... ....|--- .... ....
....|..|--- .... ....|--- .... ....|--- .... ....
....|..|--- .... ....|--- .... ....|--- .... ....
....|..|--- .... ....|--- .... ....|--- .... ....
....|..|--- .... ....|--- .... ....|--- .... ....
....|..|--- .... ....|--- .... ....|--- .... ....
....|..|--- .... ....|--- .... ....|--- .... ....
....|..|--- .... ....|--- .... ....|--- .... ....
....|..|--- .... ....|--- .... ....|--- .... ....
....|..|--- .... ....|--- .... ....|--- .... ....
....|..|--- .... ....|--- .... ....|--- .... ....

[Pattern55]
....|..|--- .... ....|--- .... ....|--- .... ....
....|..|--- .... ....|--- .... ....|--- .... ....
....|..|--- .... ....|--- .... ....|--- .... ....
....|..|--- .... ....|--- .... ....|--- .... ....
....|..|--- .... ....|--- .... ....|--- .... ....
....|..|--- .... ....|--- .... ....|--- .... ....
....|..|--- .... ....|--- .... ....|--- .... ....
....|..|--- .... ....|--- .... ....|--- .... ....
....|..|--- .... ....|--- .... ....|--- .... ....
....|..|--- .... ....|--- .... ....|--- .... ....
....|..|--- .... ....|--- .... ....|--- .... ....
....|..|--- .... ....|--- .... ....|--- .... ....
....|..|--- .... ....|--- .... ....|--- .... ....
....|..|--- .... ....|--- .... ....|--- .... ....
....|..|--- .... ....|--- .... ....|--- .... ....
....|..|--- .... ....|--- .... ....|--- .... ....
....|..|--- .... ....|--- .... ....|--- .... ....
....|..|--- .... ....|--- .... ....|--- .... ....
....|..|--- .... ....|--- .... ....|--- .... ....
....|..|--- .... ....|--- .... ....|--- .... ....
....|..|--- .... ....|--- .... ....|--- .... ....
....|..|--- .... ....|--- .... ....|--- .... ....
....|..|--- .... ....|--- .... ....|--- .... ....
....|..|--- .... ....|--- .... ....|--- .... ....
....|..|--- .... ....|--- .... ....|--- .... ....
....|..|--- .... ....|--- .... ....|--- .... ....
....|..|--- .... ....|--- .... ....|--- .... ....
....|..|--- .... ....|--- .... ....|--- .... ....
....|..|--- .... ....|--- .... ....|--- .... ....
....|..|--- .... ....|--- .... ....|--- .... ....
....|..|--- .... ....|--- .... ....|--- .... ....
....|..|--- .... ....|--- .... ....|--- .... ....
....|..|--- .... ....|--- .... ....|--- .... ....
....|..|--- .... ....|--- .... ....|--- .... ....
....|..|--- .... ....|--- .... ....|--- .... ....
....|..|--- .... ....|--- .... ....|--- .... ....
....|..|--- .... ....|--- .... ....|--- .... ....
....|..|--- .... ....|--- .... ....|--- .... ....
....|..|--- .... ....|--- .... ....|--- .... ....
....|..|--- .... ....|--- .... ....|--- .... ....
....|..|--- .... ....|--- .... ....|--- .... ....
....|..|--- .... ....|--- .... ....|--- .... ....
....|..|--- .... ....|--- .... ....|--- .... ....
....|..|--- .... ....|--- .... ....|--- .... ....
....|..|--- .... ....|--- .... ....|--- .... ....
....|..|--- .... ....|--- .... ....|--- .... ....
....|..|--- .... ....|--- .... ....|--- .... ....
....|..|--- .... ....|--- .... ....|--- .... ....
....|..|--- .... ....|--- .... ....|--- .... ....
....|..|--- .... ....|--- .... ....|--- .... ....
....|..|--- .... ....|--- .... ....|--- .... ....
....|..|--- .... ....|--- .... ....|--- .... ....
....|..|--- .... ....|--- .... ....|--- .... ....
....|..|--- .... ....|--- .... ....|--- .... ....
....|..|--- .... ....|--- .... ....|--- .... ....
....|..|--- .... ....|--- .... ....|--- .... ....
....|..|--- .... ....|--- .... ....|--- .... ....
....|..|--- .... ....|--- .... ....|--- .... ....
....|..|--- .... ....|--- .... ....|--- .... ....
....|..|--- .... ....|--- .... ....|--- .... ....
....|..|--- .... ....|--- .... ....|--- .... ....
....|..|--- .... ....|--- .... ....|--- .... ....
....|..|--- .... ....|--- .... ....|--- .... ....
....|..|--- .... ....|--- .... ....|--- .... ....

[Pattern58]
....|..|R-- .... ....|R-- .... ....|R-- .... ....
....|..|--- .... ....|--- .... ....|--- .... ....
....|..|--- .... ....|--- .... ....|--- .... ....
....|..|--- .... ....|--- .... ....|--- .... ....
....|..|--- .... ....|--- .... ....|--- .... ....
....|..|--- .... ....|--- .... ....|--- .... ....
....|..|--- .... ....|--- .... ....|--- .... ....
....|..|--- .... ....|--- .... ....|--- .... ....
....|..|--- .... ....|--- .... ....|--- .... ....
....|..|--- .... ....|--- .... ....|--- .... ....
....|..|--- .... ....|--- .... ....|--- .... ....
....|..|--- .... ....|--- .... ....|--- .... ....
....|..|R-- .... ....|R-- .... ....|R-- .... ....
....|..|--- .... ....|--- .... ....|--- .... ....
....|..|--- .... ....|--- .... ....|--- .... ....
....|..|--- .... ....|--- .... ....|--- .... ....
....|..|--- .... ....|--- .... ....|--- .... ....
....|..|--- .... ....|--- .... ....|--- .... ....
....|..|--- .... ....|--- .... ....|--- .... ....
....|..|--- .... ....|--- .... ....|--- .... ....
....|..|--- .... ....|--- .... ....|--- .... ....
....|..|--- .... ....|--- .... ....|--- .... ....
....|..|--- .... ....|--- .... ....|--- .... ....
....|..|--- .... ....|--- .... ....|--- .... ....
