[Module]
VortexTrackerII=0
Version=3.5
Title=wind.mid
Author=oisee ^ 4d 29.05.2010
NoteTable=4
ChipFreq=1750000
Speed=4
PlayOrder=L0,1,2,3,4,5,6,7,8,9,10,11,12,13,14,10,11,17,18,19,20,21,22,23,24,25,26,27,28,29,30,31,32,33,34,35,36,37,38,39,40,41,42,43,44,45,46,47,48,49,50,51,52


[Ornament1]
L0,5,8

[Ornament2]
L0,3,7

[Ornament3]
L0,5,9

[Ornament4]
L0,4,7

[Ornament5]
L0,3

[Ornament6]
L0,5

[Ornament7]
L0,5,7

[Ornament8]
L0,4


[Sample1]
TnE +000_ +00_ F_
TnE +000_ +00_ F_
TnE +000_ +00_ F_
TnE +000_ +00_ D_
TnE +000_ +00_ B_
TnE +000_ +00_ B_ L

[Sample2]
TnE +000_ +00_ F_ L

[Sample3]
TnE +001_ +00_ F_
TnE +002_ +00_ F_
TnE +001_ +00_ E_
TnE +002_ +00_ E_
TnE +000_ +00_ E_ L
TnE -001_ +00_ E_
TnE -002_ +00_ E_
TnE -001_ +00_ E_
TnE +000_ +00_ E_
TnE +001_ +00_ E_
TnE +002_ +00_ E_
TnE +001_ +00_ E_

[Sample4]
TnE +002_ +00_ D_
TnE +002_ +00_ D_
TnE +002_ +00_ C_
TnE +002_ +00_ B_
TnE +002_ +00_ A_ L
TnE +002_ +00_ A_
TnE +002_ +00_ A_
TnE +002_ +00_ A_
TnE +002_ +00_ A_
TnE +002_ +00_ A_
TnE +002_ +00_ A_
TnE +002_ +00_ A_

[Sample5]
TnE +000_ +00_ F_
TnE +000_ +00_ F_
tne +000_ +00_ 0_ L

[Sample6]
TnE -001_ +00_ F_ L

[Sample7]
TnE +006_ +00_ F_ L

[Sample8]
tNe +000_ +00_ F_
tNe +000_ +00_ B_
tNe +000_ +00_ 7_
tNe +000_ +00_ 6- L

[Sample9]
TnE +080_ +00_ F_
TnE +100_ +00_ E_
TnE +180_ +00_ E_
TnE +200_ +00_ E_
TnE +240_ +00_ D_
TnE +280_ +00_ D_
TnE +2C0_ +00_ D_
TnE +300_ +00_ C_
TnE +300_ +00_ C_
TnE +340_ +00_ C_
TnE +340_ +00_ C_
TnE +380_ +00_ B_
TnE +380_ +00_ B_
TnE +400_ +00_ B_
TnE +400_ +00_ B_
TnE +480_ +00_ A_
TnE +500_ +00_ 9_
TnE +580_ +00_ 7_
TnE +600_ +00_ 4_
TnE +680_ +00_ 1_
TnE +000_ +00_ 0_ L

[Sample10]
Tne +1C0_ +00_ F_
Tne +280_ +00_ E_
Tne +380_ +00_ C_
Tne +440_ +00_ A_
Tne +480_ +00_ 8_
TnE +000_ +00_ 0_ L

[Sample11]
TNe +200_ -0A_ F_
tNe +000_ +0F_ A_
TNe +200_ -07_ E_
tNe +000_ +0E_ B- L

[Sample12]
TNE +0A0_ +05_ F_
TNE +140_ +02_ D_
TNE +140_ +02_ B_
TNE +100_ +00_ A_ L
TNE +140_ +00_ A_
TNE +200_ +00_ A-

[Sample13]
Tne +200_ +00_ F_
Tne +2C0_ +00_ F_
Tne +380_ +00_ E_
Tne +500_ +00_ C_
Tne +520_ +00_ 9_
tne +000_ +00_ 0_ L

[Sample14]
TNE -100_ +00_ F_
TNE -100_ +00_ D_
TNE -100_ +00_ A_
TNE -100_ +00_ 5_
tne +000_ +00_ 0_ L

[Sample15]
TNE -100_ +00_ 5_
TNE -100_ +00_ 8_
TNE -100_ +00_ B_
TNE -100_ +00_ F_
TNe -100_ +00_ 9- L

[Sample16]
TnE +000_ +00_ C_
TnE +000_ +00_ E_
TnE +000_ +00_ F_
TnE +000_ +00_ F_
TnE +000_ +00_ E_
TnE +000_ +00_ D_
TnE +000_ +00_ C_
TnE +000_ +00_ C_ L
TnE +001_ +00_ C_
TnE +002_ +00_ C_
TnE +003_ +00_ C_
TnE +001_ +00_ C_
TnE +000_ +00_ C_
TnE -001_ +00_ C_
TnE -002_ +00_ C_
TnE -003_ +00_ C_
TnE -001_ +00_ C_
TnE +000_ +00_ C_
TnE +000_ +00_ C_

[Sample17]
Tne +1C0_ +00_ F_
Tne +280_ +00_ D_
Tne +380_ +00_ 7_
TNE +000_ +00_ 0_ L

[Sample18]
tnE +000_ +00_ 0_ L

[Sample19]
TNe +000_ +00_ F_
TNe +000_ +00_ C_
TNe +000_ +00_ 6_
TNe +000_ +01_ A- L

[Sample20]
TNE +140_ +00_ F_
tNE +000_ +00_ B- L

[Sample21]
tNE +000_ +00_ D_
tNE +000_ +00_ 8_
tNE +000_ +00_ 1_
TNE +000_ +00_ 0_ L

[Sample22]
TnE +000_ +00_ D_ L
TnE +000_ +00_ D_
tne +000_ +00_ 9_
tne +000_ +00_ 9_
TnE +000_ +00_ D_
TnE +000_ +00_ D_
tne +000_ +00_ 9_
tne +000_ +00_ 9_
TnE +000_ +00_ D_
TnE +000_ +00_ D_
TnE +000_ +00_ D_
TnE +000_ +00_ D_
TnE +000_ +00_ D_
TnE +000_ +00_ D_
tne +000_ +00_ 9_
tne +000_ +00_ 9_

[Sample23]
TnE +000_ +00_ F_ L
TnE +010_ +01_ F_
TnE +010_ +01_ F_
TnE +010_ +01_ F_
TnE +010_ +01_ F_
TnE +000_ +00_ F_
TnE +000_ +00_ F_
TnE -010_ -01_ F_
TnE -010_ -01_ F_
TnE -010_ -01_ F_
TnE -010_ -01_ F_
TnE +000_ +00_ F_

[Sample24]
TNe +000_ -01_ C_
TNe +000_ -01_ D_
TNe +000_ -01_ E_
TNe +000_ -01_ F_
TNe +000_ -01_ F_
TNe +000_ -01_ F_
TNe +000_ -01_ F_
TNe +000_ -01_ F_
TNe +000_ -01_ E_
TNe +000_ -01_ E_
TNe +000_ -01_ E_
TNe +000_ -01_ F_
TNe +000_ -01_ F_ L

[Sample25]
TNE +000_ +00_ F_
TNE +000_ +00_ F_ L
TNE +000_ +00_ F_
TNE +000_ +00_ F_
TNE +000_ +00_ F-

[Sample26]
tne +000_ +00_ 0_ L

[Sample27]
tne +000_ +00_ 0_ L

[Sample28]
tne +000_ +00_ 0_ L

[Sample29]
tne +000_ +00_ 0_ L

[Sample30]
TNE +000_ +00_ C+ L

[Sample31]
TNe +1C0_ +00_ F_
Tne +280_ +00_ E_
Tne +380_ +00_ C_
Tne +440_ +00_ A_
Tne +480_ +00_ 8_
TnE +000_ +00_ 0_ L

[Pattern0]
....|..|--- .... ....|--- .... ....|--- .... ....
....|..|--- .... ....|--- .... ....|--- .... ....
....|..|--- .... ....|--- .... ....|--- .... ....
....|..|--- .... ....|--- .... ....|--- .... ....
....|..|--- .... ....|--- .... ....|--- .... ....
....|..|--- .... ....|--- .... ....|--- .... ....
....|..|--- .... ....|--- .... ....|--- .... ....
....|..|--- .... ....|--- .... ....|--- .... ....
....|..|--- .... ....|--- .... ....|--- .... ....
....|..|--- .... ....|--- .... ....|--- .... ....
....|..|--- .... ....|--- .... ....|--- .... ....
....|..|--- .... ....|--- .... ....|--- .... ....
....|..|--- .... ....|--- .... ....|--- .... ....
....|..|--- .... ....|--- .... ....|--- .... ....
....|..|--- .... ....|--- .... ....|--- .... ....
....|..|--- .... ....|--- .... ....|--- .... ....
....|..|--- .... ....|--- .... ....|--- .... ....
....|..|--- .... ....|--- .... ....|--- .... ....
....|..|--- .... ....|--- .... ....|--- .... ....
....|..|--- .... ....|--- .... ....|--- .... ....
....|..|--- .... ....|--- .... ....|--- .... ....
....|..|--- .... ....|--- .... ....|--- .... ....
....|..|--- .... ....|--- .... ....|--- .... ....
....|..|--- .... ....|--- .... ....|--- .... ....
....|..|--- .... ....|--- .... ....|--- .... ....
....|..|--- .... ....|--- .... ....|--- .... ....
....|..|--- .... ....|--- .... ....|--- .... ....
....|..|--- .... ....|--- .... ....|--- .... ....
....|..|--- .... ....|--- .... ....|--- .... ....
....|..|--- .... ....|--- .... ....|--- .... ....
....|..|--- .... ....|--- .... ....|--- .... ....
....|..|--- .... ....|--- .... ....|--- .... ....
....|..|--- .... ....|--- .... ....|--- .... ....
....|..|--- .... ....|--- .... ....|--- .... ....
....|..|--- .... ....|--- .... ....|--- .... ....
....|..|--- .... ....|--- .... ....|--- .... ....
....|..|--- .... ....|--- .... ....|--- .... ....
....|..|--- .... ....|--- .... ....|--- .... ....
....|..|--- .... ....|--- .... ....|--- .... ....
....|..|--- .... ....|--- .... ....|--- .... ....
....|..|--- .... ....|--- .... ....|--- .... ....
....|..|--- .... ....|--- .... ....|--- .... ....
....|..|--- .... ....|--- .... ....|--- .... ....
....|..|--- .... ....|--- .... ....|--- .... ....
....|..|--- .... ....|--- .... ....|--- .... ....
....|..|--- .... ....|--- .... ....|--- .... ....
....|..|--- .... ....|--- .... ....|--- .... ....
....|..|--- .... ....|--- .... ....|--- .... ....

[Pattern1]
....|..|--- .... ....|--- .... ....|--- .... ....
....|..|--- .... ....|--- .... ....|--- .... ....
....|..|--- .... ....|--- .... ....|--- .... ....
....|..|--- .... ....|--- .... ....|--- .... ....
....|..|--- .... ....|--- .... ....|--- .... ....
....|..|--- .... ....|--- .... ....|--- .... ....
....|..|--- .... ....|--- .... ....|--- .... ....
....|..|--- .... ....|--- .... ....|--- .... ....
....|..|--- .... ....|--- .... ....|--- .... ....
....|..|--- .... ....|--- .... ....|--- .... ....
....|..|--- .... ....|--- .... ....|--- .... ....
....|..|--- .... ....|--- .... ....|--- .... ....
....|..|--- .... ....|G-5 .F.F ....|--- .... ....
....|..|--- .... ....|--- .... ....|--- .... ....
....|..|--- .... ....|--- .... ....|--- .... ....
....|..|--- .... ....|--- .... ....|--- .... ....
....|..|--- .... ....|--- .... ....|--- .... ....
....|..|--- .... ....|--- .... ....|--- .... ....
....|..|--- .... ....|--- .... ....|--- .... ....
....|..|--- .... ....|R-- .... ....|--- .... ....
....|..|--- .... ....|F-5 .F.F ....|--- .... ....
....|..|--- .... ....|--- .... ....|--- .... ....
....|..|--- .... ....|G-5 .F.F ....|--- .... ....
....|..|--- .... ....|--- .... ....|--- .... ....
....|..|--- .... ....|A#5 .F.F ....|--- .... ....
....|..|--- .... ....|--- .... ....|--- .... ....
....|..|--- .... ....|--- .... ....|--- .... ....
....|..|--- .... ....|--- .... ....|--- .... ....
....|..|--- .... ....|--- .... ....|--- .... ....
....|..|--- .... ....|--- .... ....|--- .... ....
....|..|--- .... ....|--- .... ....|--- .... ....
....|..|--- .... ....|R-- .... ....|--- .... ....
....|..|--- .... ....|D-5 .F.F ....|--- .... ....
....|..|--- .... ....|--- .... ....|--- .... ....
....|..|--- .... ....|G-5 .F.A ....|--- .... ....
....|..|--- .... ....|--- .... ....|--- .... ....
....|..|--- .... ....|G-5 .F.7 ....|--- .... ....
....|..|--- .... ....|--- .... ....|--- .... ....
....|..|--- .... ....|--- .... ....|--- .... ....
....|..|--- .... ....|R-- .... ....|--- .... ....
....|..|--- .... ....|C-5 .F.F ....|--- .... ....
....|..|--- .... ....|--- .... ....|--- .... ....
....|..|--- .... ....|D-5 .F.F ....|--- .... ....
....|..|--- .... ....|R-- .... ....|--- .... ....
....|..|--- .... ....|F-5 .F.F ....|--- .... ....
....|..|--- .... ....|--- .... ....|--- .... ....
....|..|--- .... ....|G-5 .F.7 ....|--- .... ....
....|..|--- .... ....|--- .... ....|--- .... ....

[Pattern2]
....|..|--- .... ....|A#5 .F.7 ....|--- .... ....
....|..|--- .... ....|--- .... ....|--- .... ....
....|..|--- .... ....|--- .... ....|--- .... ....
....|..|--- .... ....|R-- .... ....|--- .... ....
....|..|--- .... ....|G-5 .F.F ....|--- .... ....
....|..|--- .... ....|--- .... ....|--- .... ....
....|..|--- .... ....|D-5 .F.A ....|--- .... ....
....|..|--- .... ....|R-- .... ....|--- .... ....
....|..|--- .... ....|D-5 .F.7 ....|--- .... ....
....|..|--- .... ....|--- .... ....|--- .... ....
....|..|--- .... ....|--- .... ....|--- .... ....
....|..|--- .... ....|R-- .... ....|--- .... ....
....|..|--- .... ....|F-5 .F.F ....|--- .... ....
....|..|--- .... ....|--- .... ....|--- .... ....
....|..|--- .... ....|G-5 .F.F ....|--- .... ....
....|..|--- .... ....|R-- .... ....|--- .... ....
....|..|--- .... ....|A#5 .F.F ....|--- .... ....
....|..|--- .... ....|--- .... ....|--- .... ....
....|..|--- .... ....|D-5 .F.7 ....|--- .... ....
....|..|--- .... ....|--- .... ....|--- .... ....
....|..|--- .... ....|F-5 .F.7 ....|--- .... ....
....|..|--- .... ....|--- .... ....|--- .... ....
....|..|--- .... ....|--- .... ....|--- .... ....
....|..|--- .... ....|R-- .... ....|--- .... ....
....|..|--- .... ....|D-5 .F.F ....|--- .... ....
....|..|--- .... ....|--- .... ....|--- .... ....
....|..|--- .... ....|G-5 .F.A ....|--- .... ....
....|..|--- .... ....|R-- .... ....|--- .... ....
....|..|--- .... ....|G-5 .F.7 ....|--- .... ....
....|..|--- .... ....|--- .... ....|--- .... ....
....|..|--- .... ....|--- .... ....|--- .... ....
....|..|--- .... ....|R-- .... ....|--- .... ....
....|..|--- .... ....|C-5 .F.F ....|--- .... ....
....|..|--- .... ....|--- .... ....|--- .... ....
....|..|--- .... ....|--- .... ....|--- .... ....
....|..|--- .... ....|R-- .... ....|--- .... ....
....|..|--- .... ....|D-5 .F.F ....|--- .... ....
....|..|--- .... ....|--- .... ....|--- .... ....
....|..|--- .... ....|G-5 .F.7 ....|--- .... ....
....|..|--- .... ....|--- .... ....|--- .... ....
....|..|--- .... ....|A#5 .F.7 ....|--- .... ....
....|..|--- .... ....|--- .... ....|--- .... ....
....|..|--- .... ....|--- .... ....|--- .... ....
....|..|--- .... ....|R-- .... ....|--- .... ....
....|..|--- .... ....|G-5 .F.F ....|--- .... ....
....|..|--- .... ....|--- .... ....|--- .... ....
....|..|--- .... ....|--- .... ....|--- .... ....
....|..|--- .... ....|R-- .... ....|--- .... ....

[Pattern3]
....|..|--- .... ....|D-5 .F.7 ....|--- .... ....
....|..|--- .... ....|--- .... ....|--- .... ....
....|..|--- .... ....|--- .... ....|--- .... ....
....|..|--- .... ....|R-- .... ....|--- .... ....
....|..|--- .... ....|F-5 .F.F ....|--- .... ....
....|..|--- .... ....|--- .... ....|--- .... ....
....|..|--- .... ....|G-5 .F.F ....|--- .... ....
....|..|--- .... ....|R-- .... ....|--- .... ....
....|..|--- .... ....|A#5 .F.F ....|--- .... ....
....|..|--- .... ....|--- .... ....|--- .... ....
....|..|--- .... ....|--- .... ....|--- .... ....
....|..|--- .... ....|--- .... ....|--- .... ....
....|..|--- .... ....|D-5 .F.7 ....|--- .... ....
....|..|--- .... ....|--- .... ....|--- .... ....
....|..|--- .... ....|--- .... ....|--- .... ....
....|..|--- .... ....|R-- .... ....|--- .... ....
....|..|--- .... ....|D-5 .F.F ....|--- .... ....
....|..|--- .... ....|--- .... ....|--- .... ....
....|..|--- .... ....|G-5 .F.A ....|--- .... ....
....|..|--- .... ....|R-- .... ....|--- .... ....
....|..|--- .... ....|G-5 .F.7 ....|--- .... ....
....|..|--- .... ....|--- .... ....|--- .... ....
....|..|--- .... ....|--- .... ....|--- .... ....
....|..|--- .... ....|R-- .... ....|--- .... ....
....|..|--- .... ....|C-5 .F.F ....|--- .... ....
....|..|--- .... ....|--- .... ....|--- .... ....
....|..|--- .... ....|D-5 .F.F ....|--- .... ....
....|..|--- .... ....|R-- .... ....|--- .... ....
....|..|--- .... ....|F-5 .F.F ....|--- .... ....
....|..|--- .... ....|--- .... ....|--- .... ....
....|..|--- .... ....|G-5 .F.7 ....|--- .... ....
....|..|--- .... ....|--- .... ....|--- .... ....
....|..|--- .... ....|A#5 .F.7 ....|--- .... ....
....|..|--- .... ....|--- .... ....|--- .... ....
....|..|--- .... ....|--- .... ....|--- .... ....
....|..|--- .... ....|R-- .... ....|--- .... ....
....|..|--- .... ....|G-5 .F.F ....|--- .... ....
....|..|--- .... ....|--- .... ....|--- .... ....
....|..|--- .... ....|D-5 .F.A ....|--- .... ....
....|..|--- .... ....|R-- .... ....|--- .... ....
....|..|--- .... ....|D-5 .F.7 ....|--- .... ....
....|..|--- .... ....|--- .... ....|--- .... ....
....|..|--- .... ....|--- .... ....|--- .... ....
....|..|--- .... ....|R-- .... ....|--- .... ....
....|..|--- .... ....|F-5 .F.F ....|--- .... ....
....|..|--- .... ....|--- .... ....|--- .... ....
....|..|--- .... ....|G-5 .F.F ....|--- .... ....
....|..|--- .... ....|R-- .... ....|--- .... ....

[Pattern4]
....|..|--- .... ....|A#5 .F.F ....|--- .... ....
....|..|--- .... ....|--- .... ....|--- .... ....
....|..|--- .... ....|D-5 .F.7 ....|--- .... ....
....|..|--- .... ....|--- .... ....|--- .... ....
....|..|--- .... ....|F-5 .F.7 ....|--- .... ....
....|..|--- .... ....|--- .... ....|--- .... ....
....|..|--- .... ....|--- .... ....|--- .... ....
....|..|--- .... ....|R-- .... ....|--- .... ....
....|..|--- .... ....|D-5 .F.F ....|--- .... ....
....|..|--- .... ....|--- .... ....|--- .... ....
....|..|--- .... ....|G-5 .F.A ....|--- .... ....
....|..|--- .... ....|R-- .... ....|--- .... ....
....|..|--- .... ....|G-5 .F.7 ....|--- .... ....
....|..|--- .... ....|--- .... ....|--- .... ....
....|..|--- .... ....|--- .... ....|--- .... ....
....|..|--- .... ....|R-- .... ....|--- .... ....
....|..|--- .... ....|C-5 .F.F ....|--- .... ....
....|..|--- .... ....|--- .... ....|--- .... ....
....|..|--- .... ....|--- .... ....|--- .... ....
....|..|--- .... ....|R-- .... ....|--- .... ....
....|..|--- .... ....|D-5 .F.F ....|--- .... ....
....|..|--- .... ....|--- .... ....|--- .... ....
....|..|--- .... ....|G-5 .F.7 ....|--- .... ....
....|..|--- .... ....|--- .... ....|--- .... ....
....|..|--- .... ....|A#5 .F.7 ....|--- .... ....
....|..|--- .... ....|--- .... ....|--- .... ....
....|..|--- .... ....|--- .... ....|--- .... ....
....|..|--- .... ....|R-- .... ....|--- .... ....
....|..|--- .... ....|C-5 .F.A ....|--- .... ....
....|..|--- .... ....|--- .... ....|--- .... ....
....|..|--- .... ....|--- .... ....|--- .... ....
....|..|--- .... ....|R-- .... ....|--- .... ....
....|..|--- .... ....|D-5 .F.7 ....|--- .... ....
....|..|--- .... ....|--- .... ....|--- .... ....
....|..|--- .... ....|--- .... ....|--- .... ....
....|..|--- .... ....|--- .... ....|--- .... ....
....|..|--- .... ....|--- .... ....|--- .... ....
....|..|--- .... ....|--- .... ....|--- .... ....
....|..|--- .... ....|--- .... ....|--- .... ....
....|..|--- .... ....|R-- .... ....|--- .... ....
....|..|--- .... ....|C-5 .F.7 ....|--- .... ....
....|..|--- .... ....|--- .... ....|--- .... ....
....|..|--- .... ....|--- .... ....|--- .... ....
....|..|--- .... ....|--- .... ....|--- .... ....
....|..|--- .... ....|D-5 .F.7 ....|--- .... ....
....|..|--- .... ....|--- .... ....|--- .... ....
....|..|--- .... ....|--- .... ....|--- .... ....
....|..|--- .... ....|--- .... ....|--- .... ....

[Pattern5]
....|..|--- .... ....|--- .... ....|--- .... ....
....|..|--- .... ....|--- .... ....|--- .... ....
....|..|--- .... ....|--- .... ....|--- .... ....
....|..|--- .... ....|R-- .... ....|--- .... ....
....|..|--- .... ....|--- .... ....|--- .... ....
....|..|--- .... ....|--- .... ....|--- .... ....
....|..|--- .... ....|--- .... ....|--- .... ....
....|..|--- .... ....|--- .... ....|--- .... ....
....|..|--- .... ....|--- .... ....|--- .... ....
....|..|--- .... ....|--- .... ....|--- .... ....
....|..|--- .... ....|--- .... ....|--- .... ....
....|..|--- .... ....|--- .... ....|--- .... ....
....|..|--- .... ....|--- .... ....|--- .... ....
....|..|--- .... ....|--- .... ....|--- .... ....
....|..|--- .... ....|--- .... ....|--- .... ....
....|..|--- .... ....|--- .... ....|--- .... ....
....|..|--- .... ....|--- .... ....|--- .... ....
....|..|--- .... ....|--- .... ....|--- .... ....
....|..|--- .... ....|--- .... ....|--- .... ....
....|..|--- .... ....|--- .... ....|--- .... ....
....|..|--- .... ....|--- .... ....|--- .... ....
....|..|--- .... ....|--- .... ....|--- .... ....
....|..|--- .... ....|--- .... ....|--- .... ....
....|..|--- .... ....|--- .... ....|--- .... ....
....|..|--- .... ....|--- .... ....|--- .... ....
....|..|--- .... ....|--- .... ....|--- .... ....
....|..|--- .... ....|--- .... ....|--- .... ....
....|..|--- .... ....|--- .... ....|--- .... ....
....|..|--- .... ....|--- .... ....|--- .... ....
....|..|--- .... ....|--- .... ....|--- .... ....
....|..|--- .... ....|--- .... ....|--- .... ....
....|..|--- .... ....|--- .... ....|--- .... ....
....|..|--- .... ....|--- .... ....|--- .... ....
....|..|--- .... ....|--- .... ....|--- .... ....
....|..|--- .... ....|--- .... ....|--- .... ....
....|..|--- .... ....|--- .... ....|--- .... ....
....|..|--- .... ....|--- .... ....|--- .... ....
....|..|--- .... ....|--- .... ....|--- .... ....
....|..|--- .... ....|--- .... ....|--- .... ....
....|..|--- .... ....|--- .... ....|--- .... ....
....|..|G-6 ...F ....|--- .... ....|--- .... ....
....|..|--- .... ....|--- .... ....|--- .... ....
....|..|--- .... ....|--- .... ....|--- .... ....
....|..|--- .... ....|--- .... ....|--- .... ....
....|..|--- .... ....|G-3 .F1F ....|--- .... ....
....|..|--- .... ....|--- .... ....|--- .... ....
....|..|G#6 ...F ....|--- .... ....|--- .... ....
....|..|G-6 ...F ....|--- .... ....|--- .... ....

[Pattern6]
....|..|F-6 ...F ....|--- .... ....|--- .... ....
....|..|--- .... ....|--- .... ....|--- .... ....
....|..|G-6 ...F ....|--- .... ....|--- .... ....
....|..|--- .... ....|R-- .... ....|--- .... ....
....|..|A#6 ...F ....|--- .... ....|--- .... ....
....|..|--- .... ....|--- .... ....|--- .... ....
....|..|--- .... ....|--- .... ....|--- .... ....
....|..|--- .... ....|--- .... ....|--- .... ....
....|..|--- .... ....|G-3 .F2F ....|--- .... ....
....|..|--- .... ....|--- .... ....|--- .... ....
....|..|G#6 ...A ....|--- .... ....|--- .... ....
....|..|G-6 ...A ....|--- .... ....|--- .... ....
....|..|D-6 ...F ....|R-- .... ....|--- .... ....
....|..|--- .... ....|--- .... ....|--- .... ....
....|..|G-6 ...A ....|--- .... ....|--- .... ....
....|..|--- .... ....|R-- .... ....|--- .... ....
....|..|G-6 ...7 ....|D#3 .F3F ....|--- .... ....
....|..|--- .... ....|--- .... ....|--- .... ....
....|..|--- .... ....|--- .... ....|--- .... ....
....|..|--- .... ....|--- .... ....|--- .... ....
....|..|C-6 ...F ....|G-3 .F17 ....|--- .... ....
....|..|--- .... ....|--- .... ....|--- .... ....
....|..|D-6 ...F ....|--- .... ....|--- .... ....
....|..|G-6 ...7 ....|R-- .... ....|--- .... ....
....|..|F-6 ...F ....|R-- .... ....|--- .... ....
....|..|--- .... ....|--- .... ....|--- .... ....
....|..|G-6 ...7 ....|--- .... ....|--- .... ....
....|..|--- .... ....|R-- .... ....|--- .... ....
....|..|A#6 ...7 ....|D#3 .F4F ....|--- .... ....
....|..|--- .... ....|--- .... ....|--- .... ....
....|..|--- .... ....|--- .... ....|--- .... ....
....|..|R-- .... ....|--- .... ....|--- .... ....
....|..|G-6 ...F ....|G-3 .F27 ....|--- .... ....
....|..|--- .... ....|--- .... ....|--- .... ....
....|..|D-6 ...A ....|--- .... ....|--- .... ....
....|..|--- .... ....|R-- .... ....|--- .... ....
....|..|D-6 ...7 ....|G-3 .F1F ....|--- .... ....
....|..|--- .... ....|--- .... ....|--- .... ....
....|..|G#6 ...F ....|--- .... ....|--- .... ....
....|..|G-6 ...F ....|--- .... ....|--- .... ....
....|..|F-6 ...F ....|D#3 .F37 ....|--- .... ....
....|..|--- .... ....|--- .... ....|--- .... ....
....|..|G-6 ...F ....|--- .... ....|--- .... ....
....|..|R-- .... ....|R-- .... ....|--- .... ....
....|..|A#6 ...F ....|R-- .... ....|--- .... ....
....|..|--- .... ....|--- .... ....|--- .... ....
....|..|D-6 ...7 ....|--- .... ....|--- .... ....
....|..|--- .... ....|R-- .... ....|--- .... ....

[Pattern7]
....|..|F-6 ...7 ....|G-3 .F2F ....|--- .... ....
....|..|--- .... ....|--- .... ....|--- .... ....
....|..|G#6 ...A ....|--- .... ....|--- .... ....
....|..|G-6 ...A ....|--- .... ....|--- .... ....
....|..|D-6 ...F ....|D#3 .F47 ....|--- .... ....
....|..|--- .... ....|--- .... ....|--- .... ....
....|..|G-6 ...A ....|--- .... ....|--- .... ....
....|..|R-- .... ....|R-- .... ....|--- .... ....
....|..|G-6 ...7 ....|D#3 .F3F ....|--- .... ....
....|..|--- .... ....|--- .... ....|--- .... ....
....|..|--- .... ....|--- .... ....|--- .... ....
....|..|--- .... ....|--- .... ....|--- .... ....
....|..|C-6 ...F ....|G-3 .F17 ....|--- .... ....
....|..|--- .... ....|--- .... ....|--- .... ....
....|..|G#6 ...7 ....|--- .... ....|--- .... ....
....|..|G-6 ...7 ....|R-- .... ....|--- .... ....
....|..|D-6 ...F ....|R-- .... ....|--- .... ....
....|..|--- .... ....|--- .... ....|--- .... ....
....|..|G-6 ...7 ....|--- .... ....|--- .... ....
....|..|--- .... ....|R-- .... ....|--- .... ....
....|..|A#6 ...7 ....|D#3 .F4F ....|--- .... ....
....|..|--- .... ....|--- .... ....|--- .... ....
....|..|--- .... ....|--- .... ....|--- .... ....
....|..|R-- .... ....|--- .... ....|--- .... ....
....|..|G-6 ...F ....|G-3 .F27 ....|--- .... ....
....|..|--- .... ....|--- .... ....|--- .... ....
....|..|--- .... ....|--- .... ....|--- .... ....
....|..|--- .... ....|R-- .... ....|--- .... ....
....|..|D-6 ...7 ....|G-3 .F1F ....|--- .... ....
....|..|--- .... ....|--- .... ....|--- .... ....
....|..|G#6 ...F ....|--- .... ....|--- .... ....
....|..|G-6 ...F ....|--- .... ....|--- .... ....
....|..|F-6 ...F ....|D#3 .F37 ....|--- .... ....
....|..|--- .... ....|--- .... ....|--- .... ....
....|..|G-6 ...F ....|--- .... ....|--- .... ....
....|..|R-- .... ....|R-- .... ....|--- .... ....
....|..|A#6 ...F ....|R-- .... ....|--- .... ....
....|..|--- .... ....|--- .... ....|--- .... ....
....|..|--- .... ....|--- .... ....|--- .... ....
....|..|--- .... ....|R-- .... ....|--- .... ....
....|..|D-6 ...7 ....|G-3 .F2F ....|--- .... ....
....|..|--- .... ....|--- .... ....|--- .... ....
....|..|G#6 ...A ....|--- .... ....|--- .... ....
....|..|G-6 ...A ....|--- .... ....|--- .... ....
....|..|D-6 ...F ....|D#3 .F47 ....|--- .... ....
....|..|--- .... ....|--- .... ....|--- .... ....
....|..|G-6 ...A ....|--- .... ....|--- .... ....
....|..|R-- .... ....|R-- .... ....|--- .... ....

[Pattern8]
....|..|G-6 ...7 ....|D#3 .F3F ....|--- .... ....
....|..|--- .... ....|--- .... ....|--- .... ....
....|..|--- .... ....|--- .... ....|--- .... ....
....|..|--- .... ....|--- .... ....|--- .... ....
....|..|C-6 ...F ....|G-3 .F17 ....|--- .... ....
....|..|--- .... ....|--- .... ....|--- .... ....
....|..|D-6 ...F ....|--- .... ....|--- .... ....
....|..|G-6 ...7 ....|R-- .... ....|--- .... ....
....|..|F-6 ...F ....|R-- .... ....|--- .... ....
....|..|--- .... ....|--- .... ....|--- .... ....
....|..|G-6 ...7 ....|--- .... ....|--- .... ....
....|..|--- .... ....|R-- .... ....|--- .... ....
....|..|A#6 ...7 ....|D#3 .F4F ....|--- .... ....
....|..|--- .... ....|--- .... ....|--- .... ....
....|..|--- .... ....|--- .... ....|--- .... ....
....|..|R-- .... ....|--- .... ....|--- .... ....
....|..|G-6 ...F ....|G-3 .F27 ....|--- .... ....
....|..|--- .... ....|--- .... ....|--- .... ....
....|..|D-6 ...A ....|--- .... ....|--- .... ....
....|..|--- .... ....|R-- .... ....|--- .... ....
....|..|D-6 ...7 ....|G-3 .F1F ....|--- .... ....
....|..|--- .... ....|--- .... ....|--- .... ....
....|..|G#6 ...F ....|--- .... ....|--- .... ....
....|..|G-6 ...F ....|--- .... ....|--- .... ....
....|..|F-6 ...F ....|D#3 .F37 ....|--- .... ....
....|..|--- .... ....|--- .... ....|--- .... ....
....|..|G-6 ...F ....|--- .... ....|--- .... ....
....|..|R-- .... ....|R-- .... ....|--- .... ....
....|..|A#6 ...F ....|R-- .... ....|--- .... ....
....|..|--- .... ....|--- .... ....|--- .... ....
....|..|D-6 ...7 ....|--- .... ....|--- .... ....
....|..|--- .... ....|R-- .... ....|--- .... ....
....|..|F-6 ...7 ....|G-3 .F2F ....|--- .... ....
....|..|--- .... ....|--- .... ....|--- .... ....
....|..|G#6 ...A ....|--- .... ....|--- .... ....
....|..|G-6 ...A ....|--- .... ....|--- .... ....
....|..|D-6 ...F ....|D#3 .F47 ....|--- .... ....
....|..|--- .... ....|--- .... ....|--- .... ....
....|..|G-6 ...A ....|--- .... ....|--- .... ....
....|..|R-- .... ....|R-- .... ....|--- .... ....
....|..|G-6 ...7 ....|D#3 .F3F ....|--- .... ....
....|..|--- .... ....|--- .... ....|--- .... ....
....|..|--- .... ....|--- .... ....|--- .... ....
....|..|--- .... ....|--- .... ....|--- .... ....
....|..|C-6 ...F ....|G-3 .F17 ....|--- .... ....
....|..|--- .... ....|--- .... ....|--- .... ....
....|..|G#6 ...7 ....|--- .... ....|--- .... ....
....|..|G-6 ...7 ....|R-- .... ....|--- .... ....

[Pattern9]
....|..|D-6 ...F ....|R-- .... ....|--- .... ....
....|..|--- .... ....|--- .... ....|--- .... ....
....|..|G-6 ...7 ....|--- .... ....|--- .... ....
....|..|--- .... ....|R-- .... ....|--- .... ....
....|..|A#6 ...7 ....|D#3 .F4F ....|--- .... ....
....|..|--- .... ....|--- .... ....|--- .... ....
....|..|--- .... ....|--- .... ....|--- .... ....
....|..|--- .... ....|--- .... ....|--- .... ....
....|..|R-- .... ....|G-3 .F27 ....|--- .... ....
....|..|--- .... ....|--- .... ....|--- .... ....
....|..|--- .... ....|--- .... ....|--- .... ....
....|..|--- .... ....|R-- .... ....|--- .... ....
....|..|D-6 ...7 ....|G-3 .F1F ....|--- .... ....
....|..|--- .... ....|--- .... ....|--- .... ....
....|..|--- .... ....|R-- .... ....|--- .... ....
....|..|--- .... ....|--- .... ....|--- .... ....
....|..|--- .... ....|D#3 .F37 ....|--- .... ....
....|..|--- .... ....|--- .... ....|--- .... ....
....|..|--- .... ....|--- .... ....|--- .... ....
....|..|--- .... ....|--- .... ....|--- .... ....
....|..|C-6 ...7 ....|R-- .... ....|--- .... ....
....|..|--- .... ....|--- .... ....|--- .... ....
....|..|--- .... ....|--- .... ....|--- .... ....
....|..|--- .... ....|R-- .... ....|--- .... ....
....|..|D-6 ...7 ....|G-3 .F2F ....|--- .... ....
....|..|--- .... ....|R-- .... ....|--- .... ....
....|..|--- .... ....|R-- .... ....|--- .... ....
....|..|--- .... ....|--- .... ....|--- .... ....
....|..|--- .... ....|D#3 .F47 ....|--- .... ....
....|..|--- .... ....|--- .... ....|--- .... ....
....|..|--- .... ....|--- .... ....|--- .... ....
....|..|--- .... ....|--- .... ....|--- .... ....
....|..|R-- .... ....|D#3 .F3F ....|--- .... ....
....|..|--- .... ....|--- .... ....|--- .... ....
....|..|--- .... ....|R-- .... ....|--- .... ....
....|..|--- .... ....|--- .... ....|--- .... ....
....|..|--- .... ....|G-3 .F17 ....|--- .... ....
....|..|--- .... ....|R-- .... ....|--- .... ....
....|..|--- .... ....|R-- .... ....|--- .... ....
....|..|--- .... ....|--- .... ....|--- .... ....
....|..|--- .... ....|--- .... ....|--- .... ....
....|..|--- .... ....|--- .... ....|--- .... ....
....|..|--- .... ....|--- .... ....|--- .... ....
....|..|--- .... ....|--- .... ....|--- .... ....
....|..|--- .... ....|D#3 .F4F ....|--- .... ....
....|..|--- .... ....|R-- .... ....|--- .... ....
....|..|--- .... ....|R-- .... ....|--- .... ....
....|..|--- .... ....|--- .... ....|--- .... ....

[Pattern10]
....|..|--- .... ....|G-3 .F27 ....|--- .... ....
....|..|--- .... ....|R-- .... ....|--- .... ....
....|..|--- .... ....|--- .... ....|--- .... ....
....|..|--- .... ....|--- .... ....|--- .... ....
....|..|--- .... ....|G-3 .F1F ....|--- .... ....
....|..|--- .... ....|--- .... ....|--- .... ....
....|..|--- .... ....|R-- .... ....|--- .... ....
....|..|--- .... ....|--- .... ....|--- .... ....
....|..|--- .... ....|D#3 .F37 ....|--- .... ....
....|..|--- .... ....|R-- .... ....|--- .... ....
....|..|--- .... ....|R-- .... ....|--- .... ....
....|..|--- .... ....|--- .... ....|--- .... ....
....|..|--- .... ....|--- .... ....|--- .... ....
....|..|--- .... ....|--- .... ....|--- .... ....
....|..|--- .... ....|--- .... ....|--- .... ....
....|..|--- .... ....|--- .... ....|--- .... ....
....|..|--- .... ....|G-3 .F2F ....|--- .... ....
....|..|--- .... ....|R-- .... ....|--- .... ....
....|..|--- .... ....|R-- .... ....|--- .... ....
....|..|--- .... ....|--- .... ....|--- .... ....
....|..|--- .... ....|D#3 .F47 ....|--- .... ....
....|..|--- .... ....|R-- .... ....|--- .... ....
....|..|--- .... ....|--- .... ....|--- .... ....
....|..|--- .... ....|--- .... ....|--- .... ....
....|..|--- .... ....|D#3 .F3F ....|--- .... ....
....|..|--- .... ....|--- .... ....|--- .... ....
....|..|--- .... ....|R-- .... ....|--- .... ....
....|..|--- .... ....|--- .... ....|--- .... ....
....|..|--- .... ....|G-3 .F17 ....|--- .... ....
....|..|--- .... ....|R-- .... ....|--- .... ....
....|..|--- .... ....|R-- .... ....|--- .... ....
....|..|--- .... ....|--- .... ....|--- .... ....
....|..|--- .... ....|--- .... ....|--- .... ....
....|..|--- .... ....|--- .... ....|--- .... ....
....|..|--- .... ....|--- .... ....|--- .... ....
....|..|--- .... ....|--- .... ....|--- .... ....
....|..|--- .... ....|D#3 .F4F ....|--- .... ....
....|..|--- .... ....|R-- .... ....|--- .... ....
....|..|--- .... ....|R-- .... ....|--- .... ....
....|..|--- .... ....|--- .... ....|--- .... ....
....|..|--- .... ....|G-3 .F27 ....|--- .... ....
....|..|--- .... ....|R-- .... ....|--- .... ....
....|..|--- .... ....|--- .... ....|--- .... ....
....|..|--- .... ....|--- .... ....|--- .... ....
....|..|--- .... ....|G-3 .F1F ....|--- .... ....
....|..|--- .... ....|--- .... ....|--- .... ....
....|..|--- .... ....|R-- .... ....|--- .... ....
....|..|--- .... ....|--- .... ....|--- .... ....

[Pattern11]
....|..|--- .... ....|D#3 .F37 ....|--- .... ....
....|..|--- .... ....|R-- .... ....|--- .... ....
....|..|--- .... ....|R-- .... ....|--- .... ....
....|..|--- .... ....|--- .... ....|--- .... ....
....|..|--- .... ....|--- .... ....|--- .... ....
....|..|--- .... ....|--- .... ....|--- .... ....
....|..|--- .... ....|--- .... ....|--- .... ....
....|..|--- .... ....|--- .... ....|--- .... ....
....|..|--- .... ....|G-3 .F2F ....|--- .... ....
....|..|--- .... ....|R-- .... ....|--- .... ....
....|..|--- .... ....|R-- .... ....|--- .... ....
....|..|--- .... ....|--- .... ....|--- .... ....
....|..|--- .... ....|D#3 .F47 ....|--- .... ....
....|..|--- .... ....|R-- .... ....|--- .... ....
....|..|--- .... ....|--- .... ....|--- .... ....
....|..|--- .... ....|--- .... ....|--- .... ....
....|..|--- .... ....|D#3 .F3F ....|--- .... ....
....|..|--- .... ....|--- .... ....|--- .... ....
....|..|--- .... ....|R-- .... ....|--- .... ....
....|..|--- .... ....|--- .... ....|--- .... ....
....|..|--- .... ....|G-3 .F17 ....|--- .... ....
....|..|--- .... ....|R-- .... ....|--- .... ....
....|..|--- .... ....|R-- .... ....|--- .... ....
....|..|--- .... ....|--- .... ....|--- .... ....
....|..|--- .... ....|--- .... ....|--- .... ....
....|..|--- .... ....|--- .... ....|--- .... ....
....|..|--- .... ....|--- .... ....|--- .... ....
....|..|--- .... ....|--- .... ....|--- .... ....
....|..|--- .... ....|D#3 .F4F ....|--- .... ....
....|..|--- .... ....|R-- .... ....|--- .... ....
....|..|--- .... ....|R-- .... ....|--- .... ....
....|..|--- .... ....|--- .... ....|--- .... ....
....|..|--- .... ....|G-3 .F27 ....|--- .... ....
....|..|--- .... ....|R-- .... ....|--- .... ....
....|..|--- .... ....|--- .... ....|--- .... ....
....|..|--- .... ....|--- .... ....|--- .... ....
....|..|--- .... ....|G-3 .F1F ....|--- .... ....
....|..|--- .... ....|--- .... ....|--- .... ....
....|..|--- .... ....|R-- .... ....|--- .... ....
....|..|--- .... ....|--- .... ....|--- .... ....
....|..|--- .... ....|D#3 .F37 ....|--- .... ....
....|..|--- .... ....|R-- .... ....|--- .... ....
....|..|--- .... ....|R-- .... ....|--- .... ....
....|..|--- .... ....|--- .... ....|--- .... ....
....|..|--- .... ....|--- .... ....|--- .... ....
....|..|--- .... ....|--- .... ....|--- .... ....
....|..|--- .... ....|--- .... ....|--- .... ....
....|..|--- .... ....|--- .... ....|--- .... ....

[Pattern12]
....|..|--- .... ....|G-3 .F2F ....|--- .... ....
....|..|--- .... ....|R-- .... ....|--- .... ....
....|..|--- .... ....|R-- .... ....|--- .... ....
....|..|--- .... ....|--- .... ....|--- .... ....
....|..|--- .... ....|D#3 .F47 ....|--- .... ....
....|..|--- .... ....|R-- .... ....|--- .... ....
....|..|--- .... ....|--- .... ....|--- .... ....
....|..|--- .... ....|--- .... ....|--- .... ....
....|..|--- .... ....|D#3 .F3F ....|--- .... ....
....|..|--- .... ....|--- .... ....|--- .... ....
....|..|--- .... ....|R-- .... ....|--- .... ....
....|..|--- .... ....|--- .... ....|--- .... ....
....|..|--- .... ....|G-3 .F17 ....|--- .... ....
....|..|--- .... ....|R-- .... ....|--- .... ....
....|..|--- .... ....|R-- .... ....|--- .... ....
....|..|--- .... ....|--- .... ....|--- .... ....
....|..|--- .... ....|--- .... ....|--- .... ....
....|..|--- .... ....|--- .... ....|--- .... ....
....|..|--- .... ....|--- .... ....|--- .... ....
....|..|--- .... ....|--- .... ....|--- .... ....
....|..|--- .... ....|D#3 .F4F ....|--- .... ....
....|..|--- .... ....|--- .... ....|--- .... ....
....|..|--- .... ....|R-- .... ....|--- .... ....
....|..|--- .... ....|--- .... ....|--- .... ....
....|..|G-6 ...F ....|G-3 .F27 ....|--- .... ....
....|..|--- .... ....|R-- .... ....|--- .... ....
....|..|--- .... ....|--- .... ....|--- .... ....
....|..|--- .... ....|--- .... ....|--- .... ....
....|..|--- .... ....|G-3 .F1F ....|D#5 .F.F ....
....|..|--- .... ....|--- .... ....|--- .... ....
....|..|G#6 ...F ....|--- .... ....|--- .... ....
....|..|G-6 ...F ....|--- .... ....|--- .... ....
....|..|F-6 ...F ....|D#3 .F37 ....|D-5 .F.F ....
....|..|--- .... ....|--- .... ....|--- .... ....
....|..|G-6 ...F ....|R-- .... ....|--- .... ....
....|..|--- .... ....|R-- .... ....|--- .... ....
....|..|A#6 ...F ....|R-- .... ....|R-- .... ....
....|..|--- .... ....|--- .... ....|--- .... ....
....|..|--- .... ....|--- .... ....|--- .... ....
....|..|--- .... ....|--- .... ....|--- .... ....
....|..|--- .... ....|G-3 .F2F ....|D-5 .F.F ....
....|..|--- .... ....|--- .... ....|--- .... ....
....|..|G#6 ...A ....|--- .... ....|--- .... ....
....|..|G-6 ...A ....|--- .... ....|--- .... ....
....|..|D-6 ...F ....|D#3 .F47 ....|C-5 .F.F ....
....|..|--- .... ....|--- .... ....|--- .... ....
....|..|G-6 ...A ....|--- .... ....|--- .... ....
....|..|--- .... ....|R-- .... ....|--- .... ....

[Pattern13]
....|..|G-6 ...7 ....|D#3 .F3F ....|R-- .... ....
....|..|--- .... ....|--- .... ....|--- .... ....
....|..|--- .... ....|--- .... ....|--- .... ....
....|..|--- .... ....|--- .... ....|--- .... ....
....|..|C-6 ...F ....|G-3 .F17 ....|A#4 .F.F ....
....|..|--- .... ....|--- .... ....|--- .... ....
....|..|D-6 ...F ....|--- .... ....|--- .... ....
....|..|G-6 ...7 ....|R-- .... ....|--- .... ....
....|..|F-6 ...F ....|R-- .... ....|A#4 .F.F ....
....|..|--- .... ....|--- .... ....|--- .... ....
....|..|G-6 ...7 ....|--- .... ....|--- .... ....
....|..|--- .... ....|R-- .... ....|--- .... ....
....|..|A#6 ...7 ....|D#3 .F4F ....|R-- .... ....
....|..|--- .... ....|--- .... ....|--- .... ....
....|..|--- .... ....|--- .... ....|--- .... ....
....|..|R-- .... ....|--- .... ....|--- .... ....
....|..|G-6 ...F ....|G-3 .F27 ....|D-5 .F.7 ....
....|..|--- .... ....|--- .... ....|--- .... ....
....|..|D-6 ...A ....|--- .... ....|--- .... ....
....|..|--- .... ....|R-- .... ....|--- .... ....
....|..|D-6 ...7 ....|G-3 .F1F ....|D#5 .F.F ....
....|..|--- .... ....|--- .... ....|--- .... ....
....|..|G#6 ...F ....|--- .... ....|--- .... ....
....|..|G-6 ...F ....|--- .... ....|--- .... ....
....|..|F-6 ...F ....|D#3 .F37 ....|D-5 .F.F ....
....|..|--- .... ....|--- .... ....|--- .... ....
....|..|G-6 ...F ....|--- .... ....|--- .... ....
....|..|R-- .... ....|R-- .... ....|--- .... ....
....|..|A#6 ...F ....|R-- .... ....|A#4 .F.7 ....
....|..|--- .... ....|--- .... ....|--- .... ....
....|..|D-6 ...7 ....|--- .... ....|--- .... ....
....|..|--- .... ....|R-- .... ....|--- .... ....
....|..|F-6 ...7 ....|G-3 .F2F ....|D-5 .F.F ....
....|..|--- .... ....|--- .... ....|--- .... ....
....|..|G#6 ...A ....|--- .... ....|--- .... ....
....|..|G-6 ...A ....|--- .... ....|--- .... ....
....|..|D-6 ...F ....|D#3 .F47 ....|C-5 .F.F ....
....|..|--- .... ....|--- .... ....|--- .... ....
....|..|G-6 ...A ....|--- .... ....|--- .... ....
....|..|R-- .... ....|R-- .... ....|--- .... ....
....|..|G-6 ...7 ....|D#3 .F3F ....|R-- .... ....
....|..|--- .... ....|--- .... ....|--- .... ....
....|..|--- .... ....|--- .... ....|--- .... ....
....|..|--- .... ....|--- .... ....|--- .... ....
....|..|C-6 ...F ....|G-3 .F17 ....|A#4 .F.F ....
....|..|--- .... ....|--- .... ....|--- .... ....
....|..|G#6 ...7 ....|--- .... ....|C-5 .F.F ....
....|..|G-6 ...7 ....|R-- .... ....|--- .... ....

[Pattern14]
....|..|D-6 ...F ....|R-- .... ....|A#4 .F.F ....
....|..|--- .... ....|--- .... ....|--- .... ....
....|..|G-6 ...7 ....|--- .... ....|--- .... ....
....|..|--- .... ....|R-- .... ....|--- .... ....
....|..|A#6 ...7 ....|D#3 .F4F ....|R-- .... ....
....|..|--- .... ....|--- .... ....|--- .... ....
....|..|--- .... ....|--- .... ....|--- .... ....
....|..|R-- .... ....|--- .... ....|--- .... ....
....|..|C-6 ...A ....|G-3 .F27 ....|D-5 .F.7 ....
....|..|--- .... ....|--- .... ....|--- .... ....
....|..|--- .... ....|--- .... ....|C-5 .F.A ....
....|..|--- .... ....|R-- .... ....|--- .... ....
....|..|D-6 ...7 ....|G-3 .F1F ....|C-5 .F.7 ....
....|..|--- .... ....|--- .... ....|--- .... ....
....|..|--- .... ....|R-- .... ....|--- .... ....
....|..|--- .... ....|--- .... ....|--- .... ....
....|..|--- .... ....|D#3 .F37 ....|--- .... ....
....|..|--- .... ....|--- .... ....|--- .... ....
....|..|--- .... ....|--- .... ....|--- .... ....
....|..|R-- .... ....|--- .... ....|--- .... ....
....|..|C-6 ...7 ....|R-- .... ....|A#4 .F.7 ....
....|..|--- .... ....|--- .... ....|--- .... ....
....|..|--- .... ....|--- .... ....|C-5 .F.7 ....
....|..|--- .... ....|R-- .... ....|--- .... ....
....|..|D-6 ...7 ....|G-3 .F2F ....|A#4 .F.7 ....
....|..|--- .... ....|R-- .... ....|--- .... ....
....|..|--- .... ....|R-- .... ....|--- .... ....
....|..|--- .... ....|--- .... ....|--- .... ....
....|..|--- .... ....|D#3 .F47 ....|--- .... ....
....|..|--- .... ....|--- .... ....|--- .... ....
....|..|--- .... ....|--- .... ....|--- .... ....
....|..|R-- .... ....|--- .... ....|--- .... ....
....|..|--- .... ....|D#3 .F3F ....|R-- .... ....
....|..|--- .... ....|--- .... ....|--- .... ....
....|..|--- .... ....|R-- .... ....|--- .... ....
....|..|--- .... ....|--- .... ....|--- .... ....
....|..|--- .... ....|G-3 .F17 ....|--- .... ....
....|..|--- .... ....|R-- .... ....|--- .... ....
....|..|--- .... ....|R-- .... ....|--- .... ....
....|..|--- .... ....|--- .... ....|--- .... ....
....|..|--- .... ....|--- .... ....|--- .... ....
....|..|--- .... ....|--- .... ....|--- .... ....
....|..|--- .... ....|--- .... ....|--- .... ....
....|..|--- .... ....|--- .... ....|--- .... ....
....|..|--- .... ....|D#3 .F4F ....|--- .... ....
....|..|--- .... ....|R-- .... ....|--- .... ....
....|..|--- .... ....|R-- .... ....|--- .... ....
....|..|--- .... ....|--- .... ....|--- .... ....

[Pattern17]
....|..|--- .... ....|G-3 .F2F ....|--- .... ....
....|..|--- .... ....|R-- .... ....|--- .... ....
....|..|--- .... ....|R-- .... ....|--- .... ....
....|..|--- .... ....|--- .... ....|--- .... ....
....|..|--- .... ....|D#3 .F47 ....|--- .... ....
....|..|--- .... ....|R-- .... ....|--- .... ....
....|..|--- .... ....|--- .... ....|--- .... ....
....|..|--- .... ....|--- .... ....|--- .... ....
....|..|--- .... ....|D#3 .F3F ....|--- .... ....
....|..|--- .... ....|--- .... ....|--- .... ....
....|..|--- .... ....|R-- .... ....|--- .... ....
....|..|--- .... ....|--- .... ....|--- .... ....
....|..|--- .... ....|G-3 .F17 ....|--- .... ....
....|..|--- .... ....|R-- .... ....|--- .... ....
....|..|--- .... ....|R-- .... ....|--- .... ....
....|..|--- .... ....|--- .... ....|--- .... ....
....|..|--- .... ....|--- .... ....|--- .... ....
....|..|--- .... ....|--- .... ....|--- .... ....
....|..|--- .... ....|--- .... ....|--- .... ....
....|..|--- .... ....|--- .... ....|--- .... ....
....|..|--- .... ....|D#3 .F4F ....|--- .... ....
....|..|--- .... ....|--- .... ....|--- .... ....
....|..|--- .... ....|R-- .... ....|--- .... ....
....|..|--- .... ....|--- .... ....|--- .... ....
....|..|--- .... ....|G-3 .F27 ....|--- .... ....
....|..|--- .... ....|R-- .... ....|--- .... ....
....|..|--- .... ....|--- .... ....|--- .... ....
....|..|--- .... ....|--- .... ....|--- .... ....
....|..|--- .... ....|G-3 .F1F ....|D#5 .F.F ....
....|..|--- .... ....|--- .... ....|--- .... ....
....|..|--- .... ....|--- .... ....|--- .... ....
....|..|--- .... ....|--- .... ....|--- .... ....
....|..|--- .... ....|D#3 .F37 ....|D-5 .F.F ....
....|..|--- .... ....|--- .... ....|--- .... ....
....|..|--- .... ....|R-- .... ....|--- .... ....
....|..|--- .... ....|R-- .... ....|--- .... ....
....|..|--- .... ....|R-- .... ....|R-- .... ....
....|..|--- .... ....|--- .... ....|--- .... ....
....|..|--- .... ....|--- .... ....|--- .... ....
....|..|--- .... ....|--- .... ....|--- .... ....
....|..|--- .... ....|G-3 .F2F ....|D-5 .F.F ....
....|..|--- .... ....|--- .... ....|--- .... ....
....|..|--- .... ....|--- .... ....|--- .... ....
....|..|--- .... ....|--- .... ....|--- .... ....
....|..|--- .... ....|D#3 .F47 ....|C-5 .F.F ....
....|..|--- .... ....|--- .... ....|--- .... ....
....|..|--- .... ....|--- .... ....|--- .... ....
....|..|--- .... ....|R-- .... ....|--- .... ....

[Pattern18]
....|..|--- .... ....|D#3 .F3F ....|R-- .... ....
....|..|--- .... ....|--- .... ....|--- .... ....
....|..|--- .... ....|--- .... ....|--- .... ....
....|..|--- .... ....|--- .... ....|--- .... ....
....|..|--- .... ....|G-3 .F17 ....|A#4 .F.F ....
....|..|--- .... ....|--- .... ....|--- .... ....
....|..|--- .... ....|--- .... ....|--- .... ....
....|..|--- .... ....|R-- .... ....|--- .... ....
....|..|--- .... ....|R-- .... ....|A#4 .F.F ....
....|..|--- .... ....|--- .... ....|--- .... ....
....|..|--- .... ....|--- .... ....|--- .... ....
....|..|--- .... ....|R-- .... ....|--- .... ....
....|..|--- .... ....|D#3 .F4F ....|R-- .... ....
....|..|--- .... ....|--- .... ....|--- .... ....
....|..|--- .... ....|--- .... ....|--- .... ....
....|..|--- .... ....|--- .... ....|--- .... ....
....|..|--- .... ....|G-3 .F27 ....|D-5 .F.7 ....
....|..|--- .... ....|--- .... ....|--- .... ....
....|..|--- .... ....|--- .... ....|--- .... ....
....|..|--- .... ....|R-- .... ....|--- .... ....
....|..|--- .... ....|G-3 .F1F ....|D#5 .F.F ....
....|..|--- .... ....|--- .... ....|--- .... ....
....|..|--- .... ....|--- .... ....|--- .... ....
....|..|--- .... ....|--- .... ....|--- .... ....
....|..|--- .... ....|D#3 .F37 ....|D-5 .F.F ....
....|..|--- .... ....|--- .... ....|--- .... ....
....|..|--- .... ....|--- .... ....|--- .... ....
....|..|--- .... ....|R-- .... ....|--- .... ....
....|..|--- .... ....|R-- .... ....|A#4 .F.7 ....
....|..|--- .... ....|--- .... ....|--- .... ....
....|..|--- .... ....|--- .... ....|--- .... ....
....|..|--- .... ....|R-- .... ....|--- .... ....
....|..|--- .... ....|G-3 .F2F ....|D-5 .F.F ....
....|..|--- .... ....|--- .... ....|--- .... ....
....|..|--- .... ....|--- .... ....|--- .... ....
....|..|--- .... ....|--- .... ....|--- .... ....
....|..|--- .... ....|D#3 .F47 ....|C-5 .F.F ....
....|..|--- .... ....|--- .... ....|--- .... ....
....|..|--- .... ....|--- .... ....|--- .... ....
....|..|--- .... ....|R-- .... ....|--- .... ....
....|..|--- .... ....|D#3 .F3F ....|R-- .... ....
....|..|--- .... ....|--- .... ....|--- .... ....
....|..|--- .... ....|--- .... ....|--- .... ....
....|..|--- .... ....|--- .... ....|--- .... ....
....|..|--- .... ....|G-3 .F17 ....|A#4 .F.F ....
....|..|--- .... ....|--- .... ....|--- .... ....
....|..|--- .... ....|--- .... ....|C-5 .F.F ....
....|..|--- .... ....|R-- .... ....|--- .... ....

[Pattern19]
....|..|--- .... ....|R-- .... ....|A#4 .F.F ....
....|..|--- .... ....|--- .... ....|--- .... ....
....|..|--- .... ....|--- .... ....|--- .... ....
....|..|--- .... ....|R-- .... ....|--- .... ....
....|..|--- .... ....|D#3 .F4F ....|R-- .... ....
....|..|--- .... ....|--- .... ....|--- .... ....
....|..|--- .... ....|--- .... ....|--- .... ....
....|..|--- .... ....|--- .... ....|--- .... ....
....|..|--- .... ....|G-3 .F27 ....|D-5 .F.7 ....
....|..|--- .... ....|--- .... ....|--- .... ....
....|..|--- .... ....|--- .... ....|C-5 .F.A ....
....|..|--- .... ....|R-- .... ....|--- .... ....
....|..|--- .... ....|G-3 .F1F ....|D#5 .F.F ....
....|..|--- .... ....|--- .... ....|--- .... ....
....|..|--- .... ....|--- .... ....|--- .... ....
....|..|--- .... ....|--- .... ....|--- .... ....
....|..|--- .... ....|D#3 .F37 ....|D-5 .F.F ....
....|..|--- .... ....|--- .... ....|--- .... ....
....|..|--- .... ....|--- .... ....|--- .... ....
....|..|--- .... ....|R-- .... ....|--- .... ....
....|..|--- .... ....|R-- .... ....|A#4 .F.7 ....
....|..|--- .... ....|--- .... ....|--- .... ....
....|..|--- .... ....|--- .... ....|C-5 .F.7 ....
....|..|--- .... ....|R-- .... ....|--- .... ....
....|..|--- .... ....|G-3 .F2F ....|D-5 .F.F ....
....|..|--- .... ....|--- .... ....|--- .... ....
....|..|--- .... ....|--- .... ....|--- .... ....
....|..|--- .... ....|--- .... ....|--- .... ....
....|..|--- .... ....|D#3 .F47 ....|C-5 .F.F ....
....|..|--- .... ....|--- .... ....|--- .... ....
....|..|--- .... ....|--- .... ....|--- .... ....
....|..|--- .... ....|R-- .... ....|--- .... ....
....|..|--- .... ....|D#3 .F3F ....|R-- .... ....
....|..|--- .... ....|--- .... ....|--- .... ....
....|..|--- .... ....|--- .... ....|--- .... ....
....|..|--- .... ....|--- .... ....|--- .... ....
....|..|--- .... ....|G-3 .F17 ....|D#5 .F.7 ....
....|..|--- .... ....|--- .... ....|--- .... ....
....|..|--- .... ....|--- .... ....|A#4 .F.F ....
....|..|--- .... ....|R-- .... ....|--- .... ....
....|..|--- .... ....|R-- .... ....|D-5 .F.7 ....
....|..|--- .... ....|--- .... ....|--- .... ....
....|..|--- .... ....|--- .... ....|--- .... ....
....|..|--- .... ....|R-- .... ....|--- .... ....
....|..|--- .... ....|D#3 .F4F ....|R-- .... ....
....|..|--- .... ....|--- .... ....|--- .... ....
....|..|--- .... ....|--- .... ....|--- .... ....
....|..|--- .... ....|--- .... ....|--- .... ....

[Pattern20]
....|..|--- .... ....|G-3 .F27 ....|G-4 .F.F ....
....|..|--- .... ....|--- .... ....|--- .... ....
....|..|--- .... ....|--- .... ....|A#4 .F.A ....
....|..|--- .... ....|R-- .... ....|--- .... ....
....|..|--- .... ....|G-3 .F1F ....|C-5 .F.7 ....
....|..|--- .... ....|--- .... ....|--- .... ....
....|..|--- .... ....|--- .... ....|--- .... ....
....|..|--- .... ....|--- .... ....|R-- .... ....
....|..|--- .... ....|D#3 .F37 ....|F-4 .F.F ....
....|..|--- .... ....|--- .... ....|--- .... ....
....|..|--- .... ....|--- .... ....|G-4 .F.F ....
....|..|--- .... ....|R-- .... ....|--- .... ....
....|..|--- .... ....|R-- .... ....|A#4 .F.F ....
....|..|--- .... ....|--- .... ....|--- .... ....
....|..|--- .... ....|--- .... ....|A#4 .F.7 ....
....|..|--- .... ....|R-- .... ....|--- .... ....
....|..|--- .... ....|G-3 .F2F ....|--- .... ....
....|..|--- .... ....|--- .... ....|--- .... ....
....|..|--- .... ....|--- .... ....|--- .... ....
....|..|--- .... ....|--- .... ....|R-- .... ....
....|..|--- .... ....|D#3 .F47 ....|D#4 .F.F ....
....|..|--- .... ....|--- .... ....|--- .... ....
....|..|--- .... ....|--- .... ....|G-4 .F.A ....
....|..|--- .... ....|R-- .... ....|--- .... ....
....|..|--- .... ....|D#3 .F3F ....|G-4 .F.7 ....
....|..|--- .... ....|--- .... ....|--- .... ....
....|..|--- .... ....|--- .... ....|--- .... ....
....|..|--- .... ....|--- .... ....|R-- .... ....
....|..|--- .... ....|G-3 .F17 ....|D-4 .F.F ....
....|..|--- .... ....|--- .... ....|--- .... ....
....|..|--- .... ....|--- .... ....|D#4 .F.F ....
....|..|--- .... ....|R-- .... ....|R-- .... ....
....|..|--- .... ....|R-- .... ....|G-4 .F.F ....
....|..|--- .... ....|--- .... ....|--- .... ....
....|..|--- .... ....|--- .... ....|G-4 .F.7 ....
....|..|--- .... ....|R-- .... ....|--- .... ....
....|..|--- .... ....|D#3 .F4F ....|A#4 .F.7 ....
....|..|--- .... ....|--- .... ....|--- .... ....
....|..|--- .... ....|--- .... ....|--- .... ....
....|..|--- .... ....|--- .... ....|R-- .... ....
....|..|--- .... ....|G-3 .F27 ....|D-4 .F.A ....
....|..|--- .... ....|--- .... ....|--- .... ....
....|..|--- .... ....|--- .... ....|D#4 .F.A ....
....|..|--- .... ....|R-- .... ....|R-- .... ....
....|..|--- .... ....|G-3 .F1F ....|D#5 .F.F ....
....|..|--- .... ....|--- .... ....|--- .... ....
....|..|--- .... ....|--- .... ....|--- .... ....
....|..|--- .... ....|--- .... ....|--- .... ....

[Pattern21]
....|..|--- .... ....|D#3 .F37 ....|D-5 .F.F ....
....|..|--- .... ....|--- .... ....|--- .... ....
....|..|--- .... ....|--- .... ....|--- .... ....
....|..|--- .... ....|R-- .... ....|R-- .... ....
....|..|--- .... ....|R-- .... ....|D-4 .F.7 ....
....|..|--- .... ....|--- .... ....|--- .... ....
....|..|--- .... ....|--- .... ....|D#4 .F.7 ....
....|..|--- .... ....|R-- .... ....|--- .... ....
....|..|--- .... ....|G-3 .F2F ....|D-5 .F.F ....
....|..|--- .... ....|--- .... ....|--- .... ....
....|..|--- .... ....|--- .... ....|--- .... ....
....|..|--- .... ....|--- .... ....|--- .... ....
....|..|--- .... ....|D#3 .F47 ....|C-5 .F.F ....
....|..|--- .... ....|--- .... ....|--- .... ....
....|..|--- .... ....|--- .... ....|--- .... ....
....|..|--- .... ....|R-- .... ....|R-- .... ....
....|..|--- .... ....|D#3 .F3F ....|R-- .... ....
....|..|--- .... ....|--- .... ....|--- .... ....
....|..|--- .... ....|--- .... ....|--- .... ....
....|..|--- .... ....|--- .... ....|--- .... ....
....|..|--- .... ....|G-3 .F17 ....|A#4 .F.F ....
....|..|--- .... ....|--- .... ....|--- .... ....
....|..|--- .... ....|--- .... ....|--- .... ....
....|..|--- .... ....|R-- .... ....|--- .... ....
....|..|--- .... ....|R-- .... ....|A#4 .F.F ....
....|..|--- .... ....|--- .... ....|--- .... ....
....|..|--- .... ....|--- .... ....|--- .... ....
....|..|--- .... ....|R-- .... ....|--- .... ....
....|..|--- .... ....|D#3 .F4F ....|R-- .... ....
....|..|--- .... ....|--- .... ....|--- .... ....
....|..|--- .... ....|--- .... ....|--- .... ....
....|..|--- .... ....|--- .... ....|--- .... ....
....|..|--- .... ....|G-3 .F27 ....|D-5 .F.7 ....
....|..|--- .... ....|--- .... ....|--- .... ....
....|..|--- .... ....|--- .... ....|--- .... ....
....|..|--- .... ....|R-- .... ....|--- .... ....
....|..|--- .... ....|G-3 .F1F ....|D#5 .F.F ....
....|..|--- .... ....|--- .... ....|--- .... ....
....|..|--- .... ....|--- .... ....|--- .... ....
....|..|--- .... ....|--- .... ....|--- .... ....
....|..|--- .... ....|D#3 .F37 ....|D-5 .F.F ....
....|..|--- .... ....|--- .... ....|--- .... ....
....|..|--- .... ....|--- .... ....|--- .... ....
....|..|--- .... ....|R-- .... ....|--- .... ....
....|..|--- .... ....|R-- .... ....|A#4 .F.7 ....
....|..|--- .... ....|--- .... ....|--- .... ....
....|..|--- .... ....|--- .... ....|--- .... ....
....|..|--- .... ....|R-- .... ....|--- .... ....

[Pattern22]
....|..|--- .... ....|G-3 .F2F ....|D-5 .F.F ....
....|..|--- .... ....|--- .... ....|--- .... ....
....|..|--- .... ....|--- .... ....|--- .... ....
....|..|--- .... ....|--- .... ....|--- .... ....
....|..|--- .... ....|D#3 .F47 ....|C-5 .F.F ....
....|..|--- .... ....|--- .... ....|--- .... ....
....|..|--- .... ....|--- .... ....|--- .... ....
....|..|--- .... ....|R-- .... ....|--- .... ....
....|..|--- .... ....|D#3 .F3F ....|R-- .... ....
....|..|--- .... ....|--- .... ....|--- .... ....
....|..|--- .... ....|--- .... ....|--- .... ....
....|..|--- .... ....|--- .... ....|--- .... ....
....|..|--- .... ....|G-3 .F17 ....|A#4 .F.F ....
....|..|--- .... ....|--- .... ....|--- .... ....
....|..|--- .... ....|--- .... ....|C-5 .F.F ....
....|..|--- .... ....|R-- .... ....|--- .... ....
....|..|--- .... ....|R-- .... ....|A#4 .F.F ....
....|..|--- .... ....|--- .... ....|--- .... ....
....|..|--- .... ....|--- .... ....|--- .... ....
....|..|--- .... ....|R-- .... ....|--- .... ....
....|..|--- .... ....|D#3 .F4F ....|R-- .... ....
....|..|--- .... ....|--- .... ....|--- .... ....
....|..|--- .... ....|--- .... ....|--- .... ....
....|..|--- .... ....|--- .... ....|--- .... ....
....|..|--- .... ....|G-3 .F27 ....|D-5 .F.7 ....
....|..|--- .... ....|--- .... ....|--- .... ....
....|..|--- .... ....|--- .... ....|C-5 .F.A ....
....|..|--- .... ....|R-- .... ....|--- .... ....
....|..|--- .... ....|G-3 .F1F ....|D#5 .F.F ....
....|..|--- .... ....|--- .... ....|--- .... ....
....|..|--- .... ....|--- .... ....|--- .... ....
....|..|--- .... ....|--- .... ....|--- .... ....
....|..|--- .... ....|D#3 .F37 ....|D-5 .F.F ....
....|..|--- .... ....|--- .... ....|--- .... ....
....|..|--- .... ....|--- .... ....|--- .... ....
....|..|--- .... ....|R-- .... ....|--- .... ....
....|..|--- .... ....|R-- .... ....|A#4 .F.7 ....
....|..|--- .... ....|--- .... ....|--- .... ....
....|..|--- .... ....|--- .... ....|C-5 .F.7 ....
....|..|--- .... ....|R-- .... ....|--- .... ....
....|..|--- .... ....|G-3 .F2F ....|D-5 .F.F ....
....|..|--- .... ....|--- .... ....|--- .... ....
....|..|--- .... ....|--- .... ....|--- .... ....
....|..|--- .... ....|--- .... ....|--- .... ....
....|..|--- .... ....|D#3 .F47 ....|C-5 .F.F ....
....|..|--- .... ....|--- .... ....|--- .... ....
....|..|--- .... ....|--- .... ....|--- .... ....
....|..|--- .... ....|R-- .... ....|--- .... ....

[Pattern23]
....|..|--- .... ....|D#3 .F3F ....|R-- .... ....
....|..|--- .... ....|--- .... ....|--- .... ....
....|..|--- .... ....|--- .... ....|--- .... ....
....|..|--- .... ....|--- .... ....|--- .... ....
....|..|--- .... ....|G-3 .F17 ....|D#5 .F.7 ....
....|..|--- .... ....|--- .... ....|--- .... ....
....|..|--- .... ....|--- .... ....|A#4 .F.F ....
....|..|--- .... ....|R-- .... ....|--- .... ....
....|..|--- .... ....|R-- .... ....|D-5 .F.7 ....
....|..|--- .... ....|--- .... ....|--- .... ....
....|..|--- .... ....|--- .... ....|--- .... ....
....|..|--- .... ....|R-- .... ....|--- .... ....
....|..|--- .... ....|D#3 .F4F ....|R-- .... ....
....|..|--- .... ....|--- .... ....|--- .... ....
....|..|--- .... ....|--- .... ....|--- .... ....
....|..|--- .... ....|--- .... ....|--- .... ....
....|..|--- .... ....|G-3 .F27 ....|G-4 .F.F ....
....|..|--- .... ....|--- .... ....|--- .... ....
....|..|--- .... ....|--- .... ....|A#4 .F.A ....
....|..|--- .... ....|R-- .... ....|--- .... ....
....|..|--- .... ....|G-3 .F1F ....|C-5 .F.7 ....
....|..|--- .... ....|--- .... ....|--- .... ....
....|..|--- .... ....|--- .... ....|--- .... ....
....|..|--- .... ....|--- .... ....|R-- .... ....
....|..|--- .... ....|D#3 .F37 ....|F-4 .F.F ....
....|..|--- .... ....|--- .... ....|--- .... ....
....|..|--- .... ....|--- .... ....|G-4 .F.F ....
....|..|--- .... ....|R-- .... ....|--- .... ....
....|..|--- .... ....|R-- .... ....|A#4 .F.F ....
....|..|--- .... ....|--- .... ....|--- .... ....
....|..|--- .... ....|--- .... ....|A#4 .F.7 ....
....|..|--- .... ....|R-- .... ....|--- .... ....
....|..|--- .... ....|G-3 .F2F ....|--- .... ....
....|..|--- .... ....|--- .... ....|--- .... ....
....|..|--- .... ....|--- .... ....|--- .... ....
....|..|--- .... ....|--- .... ....|R-- .... ....
....|..|--- .... ....|D#3 .F47 ....|D#4 .F.F ....
....|..|--- .... ....|--- .... ....|--- .... ....
....|..|--- .... ....|--- .... ....|G-4 .F.A ....
....|..|--- .... ....|R-- .... ....|--- .... ....
....|..|--- .... ....|D#3 .F3F ....|G-4 .F.7 ....
....|..|--- .... ....|--- .... ....|--- .... ....
....|..|--- .... ....|--- .... ....|--- .... ....
....|..|--- .... ....|--- .... ....|R-- .... ....
....|..|--- .... ....|G-3 .F17 ....|D-4 .F.F ....
....|..|--- .... ....|--- .... ....|--- .... ....
....|..|--- .... ....|--- .... ....|D#4 .F.F ....
....|..|--- .... ....|R-- .... ....|R-- .... ....

[Pattern24]
....|..|--- .... ....|R-- .... ....|G-4 .F.F ....
....|..|--- .... ....|--- .... ....|--- .... ....
....|..|--- .... ....|--- .... ....|G-4 .F.7 ....
....|..|--- .... ....|R-- .... ....|--- .... ....
....|..|--- .... ....|D#3 .F4F ....|A#4 .F.7 ....
....|..|--- .... ....|--- .... ....|--- .... ....
....|..|--- .... ....|--- .... ....|--- .... ....
....|..|--- .... ....|--- .... ....|R-- .... ....
....|..|--- .... ....|D-3 .F1F ....|D-4 .F.A ....
....|..|--- .... ....|--- .... ....|--- .... ....
....|..|--- .... ....|--- .... ....|D#4 .F.A ....
....|..|--- .... ....|R-- .... ....|R-- .... ....
....|..|--- .... ....|R-- .... ....|F-5 .F.F ....
....|..|--- .... ....|--- .... ....|--- .... ....
....|..|--- .... ....|--- .... ....|--- .... ....
....|..|--- .... ....|--- .... ....|--- .... ....
....|..|--- .... ....|F-3 .F2F ....|--- .... ....
....|..|--- .... ....|--- .... ....|--- .... ....
....|..|--- .... ....|--- .... ....|--- .... ....
....|..|--- .... ....|--- .... ....|R-- .... ....
....|..|--- .... ....|D-3 .F1A ....|D#5 .F.F ....
....|..|--- .... ....|--- .... ....|--- .... ....
....|..|--- .... ....|--- .... ....|F-5 .F.F ....
....|..|--- .... ....|R-- .... ....|--- .... ....
....|..|--- .... ....|R-- .... ....|G-5 .F.F ....
....|..|--- .... ....|--- .... ....|--- .... ....
....|..|--- .... ....|--- .... ....|--- .... ....
....|..|--- .... ....|--- .... ....|--- .... ....
....|..|--- .... ....|G-3 .F2F ....|--- .... ....
....|..|--- .... ....|--- .... ....|--- .... ....
....|..|--- .... ....|--- .... ....|--- .... ....
....|..|--- .... ....|--- .... ....|R-- .... ....
....|..|--- .... ....|D-3 .F17 ....|C-6 .F.F ....
....|..|--- .... ....|--- .... ....|--- .... ....
....|..|--- .... ....|--- .... ....|F-5 .F.A ....
....|..|--- .... ....|R-- .... ....|--- .... ....
....|..|--- .... ....|G-3 .F1F ....|F-5 .F.7 ....
....|..|--- .... ....|--- .... ....|--- .... ....
....|..|--- .... ....|--- .... ....|--- .... ....
....|..|--- .... ....|--- .... ....|R-- .... ....
....|..|--- .... ....|F-3 .F27 ....|D-6 .F.F ....
....|..|--- .... ....|--- .... ....|--- .... ....
....|..|--- .... ....|--- .... ....|--- .... ....
....|..|--- .... ....|R-- .... ....|R-- .... ....
....|..|--- .... ....|R-- .... ....|A#5 .F.F ....
....|..|--- .... ....|--- .... ....|--- .... ....
....|..|--- .... ....|--- .... ....|F-5 .F.7 ....
....|..|--- .... ....|R-- .... ....|--- .... ....

[Pattern25]
....|..|--- .... ....|F-3 .F3F ....|G-5 .F.7 ....
....|..|--- .... ....|--- .... ....|--- .... ....
....|..|--- .... ....|--- .... ....|--- .... ....
....|..|--- .... ....|--- .... ....|R-- .... ....
....|..|--- .... ....|G-3 .F27 ....|F-5 .F.F ....
....|..|--- .... ....|--- .... ....|--- .... ....
....|..|--- .... ....|--- .... ....|--- .... ....
....|..|--- .... ....|R-- .... ....|R-- .... ....
....|..|--- .... ....|F-3 .F2F ....|C-6 .F.7 ....
....|..|--- .... ....|--- .... ....|--- .... ....
....|..|--- .... ....|--- .... ....|--- .... ....
....|..|--- .... ....|--- .... ....|R-- .... ....
....|..|--- .... ....|G-3 .F17 ....|D#5 .F.F ....
....|..|--- .... ....|--- .... ....|--- .... ....
....|..|--- .... ....|--- .... ....|F-5 .F.F ....
....|..|--- .... ....|R-- .... ....|R-- .... ....
....|..|--- .... ....|R-- .... ....|G-5 .F.F ....
....|..|--- .... ....|--- .... ....|--- .... ....
....|..|--- .... ....|--- .... ....|--- .... ....
....|..|--- .... ....|R-- .... ....|--- .... ....
....|..|--- .... ....|G-3 .F2F ....|A#5 .F.7 ....
....|..|--- .... ....|--- .... ....|--- .... ....
....|..|--- .... ....|--- .... ....|--- .... ....
....|..|--- .... ....|--- .... ....|R-- .... ....
....|..|--- .... ....|F-3 .F37 ....|C-6 .F.F ....
....|..|--- .... ....|--- .... ....|--- .... ....
....|..|--- .... ....|--- .... ....|F-5 .F.A ....
....|..|--- .... ....|R-- .... ....|R-- .... ....
....|..|--- .... ....|G-3 .F1F ....|F-5 .F.7 ....
....|..|--- .... ....|--- .... ....|--- .... ....
....|..|--- .... ....|--- .... ....|--- .... ....
....|..|--- .... ....|--- .... ....|--- .... ....
....|..|--- .... ....|F-3 .F27 ....|--- .... ....
....|..|--- .... ....|--- .... ....|--- .... ....
....|..|--- .... ....|--- .... ....|--- .... ....
....|..|--- .... ....|R-- .... ....|R-- .... ....
....|..|--- .... ....|R-- .... ....|A#5 .F.F ....
....|..|--- .... ....|--- .... ....|--- .... ....
....|..|--- .... ....|--- .... ....|F-5 .F.7 ....
....|..|--- .... ....|R-- .... ....|--- .... ....
....|..|--- .... ....|F-3 .F3F ....|G-5 .F.7 ....
....|..|--- .... ....|--- .... ....|--- .... ....
....|..|--- .... ....|--- .... ....|--- .... ....
....|..|--- .... ....|--- .... ....|R-- .... ....
....|..|--- .... ....|G-3 .F27 ....|F-5 .F.F ....
....|..|--- .... ....|--- .... ....|--- .... ....
....|..|--- .... ....|--- .... ....|--- .... ....
....|..|--- .... ....|R-- .... ....|R-- .... ....

[Pattern26]
....|..|--- .... ....|F-3 .F2F ....|C-6 .F.7 ....
....|..|--- .... ....|--- .... ....|--- .... ....
....|..|--- .... ....|--- .... ....|--- .... ....
....|..|--- .... ....|--- .... ....|R-- .... ....
....|..|--- .... ....|G-3 .F17 ....|D#5 .F.F ....
....|..|--- .... ....|--- .... ....|--- .... ....
....|..|--- .... ....|--- .... ....|F-5 .F.F ....
....|..|--- .... ....|R-- .... ....|R-- .... ....
....|..|--- .... ....|R-- .... ....|G-5 .F.F ....
....|..|--- .... ....|--- .... ....|--- .... ....
....|..|--- .... ....|--- .... ....|--- .... ....
....|..|--- .... ....|R-- .... ....|R-- .... ....
....|..|--- .... ....|G-3 .F2F ....|A#5 .F.7 ....
....|..|--- .... ....|--- .... ....|--- .... ....
....|..|--- .... ....|--- .... ....|--- .... ....
....|..|--- .... ....|--- .... ....|R-- .... ....
....|..|--- .... ....|F-3 .F37 ....|C-6 .F.F ....
....|..|--- .... ....|--- .... ....|--- .... ....
....|..|--- .... ....|--- .... ....|F-5 .F.A ....
....|..|--- .... ....|R-- .... ....|R-- .... ....
....|..|--- .... ....|G-3 .F1F ....|F-5 .F.7 ....
....|..|--- .... ....|--- .... ....|--- .... ....
....|..|--- .... ....|--- .... ....|--- .... ....
....|..|--- .... ....|--- .... ....|R-- .... ....
....|..|--- .... ....|F-3 .F27 ....|D-6 .F.F ....
....|..|--- .... ....|--- .... ....|--- .... ....
....|..|--- .... ....|--- .... ....|--- .... ....
....|..|--- .... ....|R-- .... ....|R-- .... ....
....|..|--- .... ....|R-- .... ....|A#5 .F.F ....
....|..|--- .... ....|--- .... ....|--- .... ....
....|..|--- .... ....|--- .... ....|F-5 .F.7 ....
....|..|--- .... ....|R-- .... ....|--- .... ....
....|..|--- .... ....|F-3 .F3F ....|G-5 .F.7 ....
....|..|--- .... ....|--- .... ....|--- .... ....
....|..|--- .... ....|--- .... ....|--- .... ....
....|..|--- .... ....|--- .... ....|R-- .... ....
....|..|--- .... ....|G-3 .F27 ....|F-5 .F.F ....
....|..|--- .... ....|--- .... ....|--- .... ....
....|..|--- .... ....|--- .... ....|--- .... ....
....|..|--- .... ....|R-- .... ....|R-- .... ....
....|..|--- .... ....|F-3 .F2F ....|C-6 .F.7 ....
....|..|--- .... ....|--- .... ....|--- .... ....
....|..|--- .... ....|--- .... ....|--- .... ....
....|..|--- .... ....|--- .... ....|R-- .... ....
....|..|--- .... ....|G-3 .F17 ....|D#5 .F.F ....
....|..|--- .... ....|--- .... ....|--- .... ....
....|..|--- .... ....|--- .... ....|F-5 .F.F ....
....|..|--- .... ....|R-- .... ....|R-- .... ....

[Pattern27]
....|..|--- .... ....|R-- .... ....|G-5 .F.F ....
....|..|--- .... ....|--- .... ....|--- .... ....
....|..|--- .... ....|--- .... ....|--- .... ....
....|..|--- .... ....|R-- .... ....|--- .... ....
....|..|--- .... ....|G-3 .F2F ....|A#5 .F.7 ....
....|..|--- .... ....|--- .... ....|--- .... ....
....|..|--- .... ....|--- .... ....|--- .... ....
....|..|--- .... ....|--- .... ....|R-- .... ....
....|..|--- .... ....|F-3 .F37 ....|A#5 .F.F ....
....|..|--- .... ....|--- .... ....|--- .... ....
....|..|--- .... ....|--- .... ....|F-5 .F.A ....
....|..|--- .... ....|R-- .... ....|R-- .... ....
....|..|--- .... ....|F-3 .F3F ....|F-5 .F.7 ....
....|..|--- .... ....|--- .... ....|--- .... ....
....|..|--- .... ....|--- .... ....|--- .... ....
....|..|--- .... ....|--- .... ....|--- .... ....
....|..|--- .... ....|F-3 .F27 ....|--- .... ....
....|..|--- .... ....|--- .... ....|--- .... ....
....|..|--- .... ....|--- .... ....|--- .... ....
....|..|--- .... ....|--- .... ....|R-- .... ....
....|..|--- .... ....|R-- .... ....|D#5 .F.7 ....
....|..|--- .... ....|--- .... ....|--- .... ....
....|..|--- .... ....|--- .... ....|F-5 .F.7 ....
....|..|--- .... ....|R-- .... ....|--- .... ....
....|..|--- .... ....|F-3 .F3A ....|G-5 .F.7 ....
....|..|--- .... ....|--- .... ....|--- .... ....
....|..|--- .... ....|R-- .... ....|--- .... ....
....|..|--- .... ....|--- .... ....|R-- .... ....
....|..|--- .... ....|G-3 .F27 ....|--- .... ....
....|..|--- .... ....|--- .... ....|--- .... ....
....|..|--- .... ....|--- .... ....|--- .... ....
....|..|--- .... ....|--- .... ....|R-- .... ....
....|..|--- .... ....|G-3 .F1F ....|A#5 .F.7 ....
....|..|--- .... ....|--- .... ....|--- .... ....
....|..|--- .... ....|--- .... ....|--- .... ....
....|..|--- .... ....|--- .... ....|--- .... ....
....|..|--- .... ....|F-3 .F37 ....|--- .... ....
....|..|--- .... ....|--- .... ....|--- .... ....
....|..|--- .... ....|R-- .... ....|--- .... ....
....|..|--- .... ....|R-- .... ....|R-- .... ....
....|..|--- .... ....|--- .... ....|--- .... ....
....|..|--- .... ....|--- .... ....|--- .... ....
....|..|--- .... ....|--- .... ....|--- .... ....
....|..|--- .... ....|--- .... ....|--- .... ....
....|..|--- .... ....|G-3 .F2F ....|--- .... ....
....|..|--- .... ....|--- .... ....|--- .... ....
....|..|--- .... ....|--- .... ....|--- .... ....
....|..|--- .... ....|--- .... ....|--- .... ....

[Pattern28]
....|..|--- .... ....|R-- .... ....|--- .... ....
....|..|--- .... ....|--- .... ....|--- .... ....
....|..|--- .... ....|R-- .... ....|--- .... ....
....|..|--- .... ....|R-- .... ....|R-- .... ....
....|..|--- .... ....|D#3 .F3F ....|--- .... ....
....|..|--- .... ....|--- .... ....|--- .... ....
....|..|--- .... ....|--- .... ....|--- .... ....
....|..|--- .... ....|--- .... ....|--- .... ....
....|..|--- .... ....|G-3 .F17 ....|--- .... ....
....|..|--- .... ....|--- .... ....|--- .... ....
....|..|--- .... ....|--- .... ....|--- .... ....
....|..|--- .... ....|R-- .... ....|--- .... ....
....|..|--- .... ....|R-- .... ....|--- .... ....
....|..|--- .... ....|--- .... ....|--- .... ....
....|..|--- .... ....|--- .... ....|--- .... ....
....|..|--- .... ....|R-- .... ....|--- .... ....
....|..|--- .... ....|D#3 .F4F ....|--- .... ....
....|..|--- .... ....|--- .... ....|--- .... ....
....|..|--- .... ....|--- .... ....|--- .... ....
....|..|--- .... ....|--- .... ....|--- .... ....
....|..|--- .... ....|G-3 .F27 ....|--- .... ....
....|..|--- .... ....|--- .... ....|--- .... ....
....|..|--- .... ....|--- .... ....|--- .... ....
....|..|--- .... ....|R-- .... ....|--- .... ....
....|..|--- .... ....|G-3 .F1F ....|--- .... ....
....|..|--- .... ....|--- .... ....|--- .... ....
....|..|--- .... ....|--- .... ....|--- .... ....
....|..|--- .... ....|--- .... ....|--- .... ....
....|..|--- .... ....|D#3 .F37 ....|--- .... ....
....|..|--- .... ....|--- .... ....|--- .... ....
....|..|--- .... ....|--- .... ....|--- .... ....
....|..|--- .... ....|R-- .... ....|--- .... ....
....|..|--- .... ....|R-- .... ....|--- .... ....
....|..|--- .... ....|--- .... ....|--- .... ....
....|..|--- .... ....|--- .... ....|--- .... ....
....|..|--- .... ....|R-- .... ....|--- .... ....
....|..|--- .... ....|G-3 .F2F ....|--- .... ....
....|..|--- .... ....|--- .... ....|--- .... ....
....|..|--- .... ....|--- .... ....|--- .... ....
....|..|--- .... ....|--- .... ....|--- .... ....
....|..|--- .... ....|D#3 .F47 ....|--- .... ....
....|..|--- .... ....|--- .... ....|--- .... ....
....|..|--- .... ....|--- .... ....|--- .... ....
....|..|--- .... ....|R-- .... ....|--- .... ....
....|..|--- .... ....|D#3 .F3F ....|--- .... ....
....|..|--- .... ....|--- .... ....|--- .... ....
....|..|--- .... ....|--- .... ....|--- .... ....
....|..|--- .... ....|--- .... ....|--- .... ....

[Pattern29]
....|..|--- .... ....|G-3 .F17 ....|--- .... ....
....|..|--- .... ....|--- .... ....|--- .... ....
....|..|--- .... ....|--- .... ....|--- .... ....
....|..|--- .... ....|R-- .... ....|--- .... ....
....|..|--- .... ....|R-- .... ....|--- .... ....
....|..|--- .... ....|--- .... ....|--- .... ....
....|..|--- .... ....|--- .... ....|--- .... ....
....|..|--- .... ....|R-- .... ....|--- .... ....
....|..|--- .... ....|D#3 .F4F ....|--- .... ....
....|..|--- .... ....|--- .... ....|--- .... ....
....|..|--- .... ....|--- .... ....|--- .... ....
....|..|--- .... ....|--- .... ....|--- .... ....
....|..|--- .... ....|G-3 .F27 ....|--- .... ....
....|..|--- .... ....|--- .... ....|--- .... ....
....|..|--- .... ....|--- .... ....|--- .... ....
....|..|--- .... ....|R-- .... ....|--- .... ....
....|..|--- .... ....|G-3 .F1F ....|--- .... ....
....|..|--- .... ....|--- .... ....|--- .... ....
....|..|--- .... ....|--- .... ....|--- .... ....
....|..|--- .... ....|--- .... ....|--- .... ....
....|..|--- .... ....|D#3 .F37 ....|--- .... ....
....|..|--- .... ....|--- .... ....|--- .... ....
....|..|--- .... ....|--- .... ....|--- .... ....
....|..|--- .... ....|R-- .... ....|--- .... ....
....|..|--- .... ....|R-- .... ....|--- .... ....
....|..|--- .... ....|--- .... ....|--- .... ....
....|..|--- .... ....|--- .... ....|--- .... ....
....|..|--- .... ....|R-- .... ....|--- .... ....
....|..|--- .... ....|G-3 .F2F ....|--- .... ....
....|..|--- .... ....|--- .... ....|--- .... ....
....|..|--- .... ....|--- .... ....|--- .... ....
....|..|--- .... ....|--- .... ....|--- .... ....
....|..|--- .... ....|D#3 .F47 ....|--- .... ....
....|..|--- .... ....|--- .... ....|--- .... ....
....|..|--- .... ....|--- .... ....|--- .... ....
....|..|--- .... ....|R-- .... ....|--- .... ....
....|..|--- .... ....|D#3 .F3F ....|--- .... ....
....|..|--- .... ....|--- .... ....|--- .... ....
....|..|--- .... ....|--- .... ....|--- .... ....
....|..|--- .... ....|--- .... ....|--- .... ....
....|..|--- .... ....|G-3 .F17 ....|--- .... ....
....|..|--- .... ....|--- .... ....|--- .... ....
....|..|--- .... ....|--- .... ....|--- .... ....
....|..|--- .... ....|R-- .... ....|--- .... ....
....|..|--- .... ....|R-- .... ....|--- .... ....
....|..|--- .... ....|--- .... ....|--- .... ....
....|..|--- .... ....|--- .... ....|--- .... ....
....|..|--- .... ....|R-- .... ....|--- .... ....

[Pattern30]
....|..|--- .... ....|D#3 .F4F ....|--- .... ....
....|..|--- .... ....|--- .... ....|--- .... ....
....|..|--- .... ....|--- .... ....|--- .... ....
....|..|--- .... ....|--- .... ....|--- .... ....
....|..|--- .... ....|G-3 .F27 ....|--- .... ....
....|..|--- .... ....|--- .... ....|--- .... ....
....|..|--- .... ....|--- .... ....|--- .... ....
....|..|--- .... ....|R-- .... ....|--- .... ....
....|..|--- .... ....|G-3 .F1F ....|--- .... ....
....|..|--- .... ....|--- .... ....|--- .... ....
....|..|--- .... ....|--- .... ....|--- .... ....
....|..|--- .... ....|--- .... ....|--- .... ....
....|..|--- .... ....|D#3 .F37 ....|--- .... ....
....|..|--- .... ....|--- .... ....|--- .... ....
....|..|--- .... ....|--- .... ....|--- .... ....
....|..|--- .... ....|R-- .... ....|--- .... ....
....|..|--- .... ....|R-- .... ....|--- .... ....
....|..|--- .... ....|--- .... ....|--- .... ....
....|..|--- .... ....|--- .... ....|--- .... ....
....|..|--- .... ....|R-- .... ....|--- .... ....
....|..|--- .... ....|G-3 .F2F ....|--- .... ....
....|..|--- .... ....|--- .... ....|--- .... ....
....|..|--- .... ....|--- .... ....|--- .... ....
....|..|--- .... ....|--- .... ....|--- .... ....
....|..|--- .... ....|D#3 .F47 ....|--- .... ....
....|..|--- .... ....|--- .... ....|--- .... ....
....|..|--- .... ....|--- .... ....|--- .... ....
....|..|--- .... ....|R-- .... ....|--- .... ....
....|..|--- .... ....|D#3 .F3F ....|--- .... ....
....|..|--- .... ....|--- .... ....|--- .... ....
....|..|--- .... ....|--- .... ....|--- .... ....
....|..|--- .... ....|--- .... ....|--- .... ....
....|..|--- .... ....|G-3 .F17 ....|--- .... ....
....|..|--- .... ....|--- .... ....|--- .... ....
....|..|--- .... ....|--- .... ....|--- .... ....
....|..|--- .... ....|R-- .... ....|--- .... ....
....|..|--- .... ....|R-- .... ....|--- .... ....
....|..|--- .... ....|--- .... ....|--- .... ....
....|..|--- .... ....|--- .... ....|--- .... ....
....|..|--- .... ....|R-- .... ....|--- .... ....
....|..|--- .... ....|D#3 .F4F ....|--- .... ....
....|..|--- .... ....|--- .... ....|--- .... ....
....|..|--- .... ....|--- .... ....|--- .... ....
....|..|--- .... ....|--- .... ....|--- .... ....
....|..|--- .... ....|G-3 .F27 ....|--- .... ....
....|..|--- .... ....|--- .... ....|--- .... ....
....|..|--- .... ....|--- .... ....|--- .... ....
....|..|--- .... ....|R-- .... ....|--- .... ....

[Pattern31]
....|..|--- .... ....|G-3 .F1F ....|D#5 .F.F ....
....|..|--- .... ....|--- .... ....|--- .... ....
....|..|--- .... ....|--- .... ....|--- .... ....
....|..|--- .... ....|--- .... ....|--- .... ....
....|..|--- .... ....|D#3 .F37 ....|D-5 .F.F ....
....|..|--- .... ....|--- .... ....|--- .... ....
....|..|--- .... ....|--- .... ....|--- .... ....
....|..|--- .... ....|R-- .... ....|--- .... ....
....|..|--- .... ....|R-- .... ....|R-- .... ....
....|..|--- .... ....|--- .... ....|--- .... ....
....|..|--- .... ....|--- .... ....|--- .... ....
....|..|--- .... ....|R-- .... ....|--- .... ....
....|..|--- .... ....|G-3 .F2F ....|D-5 .F.F ....
....|..|--- .... ....|--- .... ....|--- .... ....
....|..|--- .... ....|--- .... ....|--- .... ....
....|..|--- .... ....|--- .... ....|--- .... ....
....|..|--- .... ....|D#3 .F47 ....|C-5 .F.F ....
....|..|--- .... ....|--- .... ....|--- .... ....
....|..|--- .... ....|--- .... ....|--- .... ....
....|..|--- .... ....|R-- .... ....|--- .... ....
....|..|--- .... ....|D#3 .F3F ....|A#4 .F.F ....
....|..|--- .... ....|--- .... ....|C-5 .F.F ....
....|..|--- .... ....|--- .... ....|A#4 .F.F ....
....|..|--- .... ....|--- .... ....|--- .... ....
....|..|--- .... ....|G-3 .F17 ....|F-4 .F.F ....
....|..|--- .... ....|--- .... ....|--- .... ....
....|..|--- .... ....|--- .... ....|G-4 .F.F ....
....|..|--- .... ....|R-- .... ....|--- .... ....
....|..|--- .... ....|R-- .... ....|D-5 .F.7 ....
....|..|--- .... ....|--- .... ....|--- .... ....
....|..|--- .... ....|--- .... ....|--- .... ....
....|..|--- .... ....|R-- .... ....|--- .... ....
....|..|--- .... ....|D#3 .F4F ....|R-- .... ....
....|..|--- .... ....|--- .... ....|C-5 .F.A ....
....|..|--- .... ....|--- .... ....|A#4 .F.A ....
....|..|--- .... ....|--- .... ....|R-- .... ....
....|..|--- .... ....|G-3 .F27 ....|D-5 .F.7 ....
....|..|--- .... ....|--- .... ....|--- .... ....
....|..|--- .... ....|--- .... ....|G-4 .F.A ....
....|..|--- .... ....|R-- .... ....|--- .... ....
....|..|--- .... ....|G-3 .F1F ....|D#5 .F.F ....
....|..|--- .... ....|--- .... ....|--- .... ....
....|..|--- .... ....|--- .... ....|--- .... ....
....|..|--- .... ....|--- .... ....|--- .... ....
....|..|--- .... ....|D#3 .F37 ....|D-5 .F.F ....
....|..|--- .... ....|--- .... ....|C-5 .F.7 ....
....|..|--- .... ....|--- .... ....|A#4 .F.7 ....
....|..|--- .... ....|R-- .... ....|R-- .... ....

[Pattern32]
....|..|--- .... ....|R-- .... ....|F-4 .F.7 ....
....|..|--- .... ....|--- .... ....|--- .... ....
....|..|--- .... ....|--- .... ....|G-4 .F.7 ....
....|..|--- .... ....|R-- .... ....|--- .... ....
....|..|--- .... ....|G-3 .F2F ....|D-5 .F.F ....
....|..|--- .... ....|--- .... ....|--- .... ....
....|..|--- .... ....|--- .... ....|--- .... ....
....|..|--- .... ....|--- .... ....|--- .... ....
....|..|--- .... ....|D#3 .F47 ....|C-5 .F.F ....
....|..|--- .... ....|--- .... ....|--- .... ....
....|..|--- .... ....|--- .... ....|--- .... ....
....|..|--- .... ....|R-- .... ....|R-- .... ....
....|..|--- .... ....|D#3 .F3F ....|A#4 .F.F ....
....|..|--- .... ....|--- .... ....|C-5 .F.F ....
....|..|--- .... ....|--- .... ....|A#4 .F.F ....
....|..|--- .... ....|--- .... ....|--- .... ....
....|..|--- .... ....|G-3 .F17 ....|G-4 .F.F ....
....|..|--- .... ....|--- .... ....|--- .... ....
....|..|--- .... ....|--- .... ....|D-4 .F.F ....
....|..|--- .... ....|R-- .... ....|--- .... ....
....|..|--- .... ....|R-- .... ....|D-5 .F.7 ....
....|..|--- .... ....|--- .... ....|--- .... ....
....|..|--- .... ....|--- .... ....|--- .... ....
....|..|--- .... ....|R-- .... ....|--- .... ....
....|..|--- .... ....|D#3 .F4F ....|R-- .... ....
....|..|--- .... ....|--- .... ....|C-5 .F.A ....
....|..|--- .... ....|--- .... ....|A#4 .F.A ....
....|..|--- .... ....|--- .... ....|R-- .... ....
....|..|--- .... ....|G-3 .F27 ....|D-5 .F.7 ....
....|..|--- .... ....|--- .... ....|--- .... ....
....|..|--- .... ....|--- .... ....|D-4 .F.A ....
....|..|--- .... ....|R-- .... ....|--- .... ....
....|..|--- .... ....|R-- .... ....|C-5 .F.7 ....
....|..|--- .... ....|--- .... ....|--- .... ....
....|..|--- .... ....|--- .... ....|--- .... ....
....|..|--- .... ....|--- .... ....|--- .... ....
....|..|--- .... ....|D#3 .F37 ....|A#4 .F.7 ....
....|..|--- .... ....|--- .... ....|C-5 .F.7 ....
....|..|--- .... ....|--- .... ....|A#4 .F.7 ....
....|..|--- .... ....|--- .... ....|R-- .... ....
....|..|--- .... ....|R-- .... ....|G-4 .F.7 ....
....|..|--- .... ....|--- .... ....|--- .... ....
....|..|--- .... ....|--- .... ....|D-4 .F.7 ....
....|..|--- .... ....|R-- .... ....|--- .... ....
....|..|--- .... ....|--- .... ....|--- .... ....
....|..|--- .... ....|--- .... ....|--- .... ....
....|..|--- .... ....|--- .... ....|--- .... ....
....|..|--- .... ....|--- .... ....|--- .... ....

[Pattern33]
....|..|--- .... ....|D#3 .F47 ....|--- .... ....
....|..|--- .... ....|--- .... ....|--- .... ....
....|..|--- .... ....|--- .... ....|--- .... ....
....|..|--- .... ....|--- .... ....|R-- .... ....
....|..|--- .... ....|R-- .... ....|--- .... ....
....|..|--- .... ....|--- .... ....|--- .... ....
....|..|--- .... ....|--- .... ....|--- .... ....
....|..|--- .... ....|--- .... ....|--- .... ....
....|..|--- .... ....|--- .... ....|--- .... ....
....|..|--- .... ....|--- .... ....|--- .... ....
....|..|--- .... ....|--- .... ....|--- .... ....
....|..|--- .... ....|--- .... ....|--- .... ....
....|..|--- .... ....|--- .... ....|--- .... ....
....|..|--- .... ....|--- .... ....|--- .... ....
....|..|--- .... ....|--- .... ....|--- .... ....
....|..|--- .... ....|--- .... ....|--- .... ....
....|..|--- .... ....|--- .... ....|--- .... ....
....|..|--- .... ....|--- .... ....|--- .... ....
....|..|--- .... ....|--- .... ....|--- .... ....
....|..|--- .... ....|--- .... ....|--- .... ....
....|..|--- .... ....|--- .... ....|--- .... ....
....|..|--- .... ....|--- .... ....|--- .... ....
....|..|--- .... ....|--- .... ....|--- .... ....
....|..|--- .... ....|--- .... ....|--- .... ....
....|..|--- .... ....|--- .... ....|--- .... ....
....|..|--- .... ....|--- .... ....|--- .... ....
....|..|--- .... ....|--- .... ....|--- .... ....
....|..|--- .... ....|--- .... ....|--- .... ....
....|..|--- .... ....|--- .... ....|--- .... ....
....|..|--- .... ....|--- .... ....|--- .... ....
....|..|--- .... ....|--- .... ....|--- .... ....
....|..|--- .... ....|--- .... ....|--- .... ....
....|..|--- .... ....|--- .... ....|--- .... ....
....|..|--- .... ....|--- .... ....|--- .... ....
....|..|--- .... ....|--- .... ....|--- .... ....
....|..|--- .... ....|--- .... ....|--- .... ....
....|..|--- .... ....|--- .... ....|--- .... ....
....|..|--- .... ....|--- .... ....|--- .... ....
....|..|--- .... ....|--- .... ....|--- .... ....
....|..|--- .... ....|--- .... ....|--- .... ....
....|..|--- .... ....|--- .... ....|--- .... ....
....|..|--- .... ....|--- .... ....|--- .... ....
....|..|--- .... ....|--- .... ....|--- .... ....
....|..|--- .... ....|--- .... ....|--- .... ....
....|..|--- .... ....|D#3 .F3F ....|--- .... ....
....|..|--- .... ....|--- .... ....|--- .... ....
....|..|--- .... ....|--- .... ....|--- .... ....
....|..|--- .... ....|--- .... ....|--- .... ....

[Pattern34]
....|..|--- .... ....|--- .... ....|--- .... ....
....|..|--- .... ....|--- .... ....|--- .... ....
....|..|--- .... ....|--- .... ....|--- .... ....
....|..|--- .... ....|R-- .... ....|--- .... ....
....|..|--- .... ....|--- .... ....|--- .... ....
....|..|--- .... ....|--- .... ....|--- .... ....
....|..|--- .... ....|--- .... ....|--- .... ....
....|..|--- .... ....|--- .... ....|--- .... ....
....|..|--- .... ....|D#3 .F4F ....|--- .... ....
....|..|--- .... ....|--- .... ....|--- .... ....
....|..|--- .... ....|--- .... ....|--- .... ....
....|..|--- .... ....|--- .... ....|--- .... ....
....|..|G-6 ...F ....|R-- .... ....|--- .... ....
....|..|--- .... ....|--- .... ....|--- .... ....
....|..|--- .... ....|--- .... ....|--- .... ....
....|..|--- .... ....|R-- .... ....|--- .... ....
....|..|--- .... ....|G-3 .F1F ....|D#5 .F.F ....
....|..|--- .... ....|--- .... ....|--- .... ....
....|..|G#6 ...F ....|--- .... ....|--- .... ....
....|..|G-6 ...F ....|--- .... ....|--- .... ....
....|..|F-6 ...F ....|D#3 .F37 ....|D-5 .F.F ....
....|..|--- .... ....|--- .... ....|--- .... ....
....|..|G-6 ...F ....|--- .... ....|--- .... ....
....|..|--- .... ....|R-- .... ....|--- .... ....
....|..|A#6 ...F ....|R-- .... ....|R-- .... ....
....|..|--- .... ....|--- .... ....|--- .... ....
....|..|--- .... ....|--- .... ....|--- .... ....
....|..|--- .... ....|R-- .... ....|--- .... ....
....|..|--- .... ....|G-3 .F2F ....|D-5 .F.F ....
....|..|--- .... ....|--- .... ....|--- .... ....
....|..|G#6 ...A ....|--- .... ....|--- .... ....
....|..|R-- .... ....|--- .... ....|--- .... ....
....|..|D-6 ...F ....|D#3 .F47 ....|C-5 .F.F ....
....|..|--- .... ....|--- .... ....|--- .... ....
....|..|G-6 ...A ....|--- .... ....|--- .... ....
....|..|--- .... ....|R-- .... ....|--- .... ....
....|..|G-6 ...7 ....|D#3 .F3F ....|R-- .... ....
....|..|--- .... ....|--- .... ....|--- .... ....
....|..|--- .... ....|--- .... ....|--- .... ....
....|..|R-- .... ....|--- .... ....|--- .... ....
....|..|C-6 ...F ....|G-3 .F17 ....|D#5 .F.7 ....
....|..|--- .... ....|--- .... ....|--- .... ....
....|..|D-6 ...F ....|--- .... ....|--- .... ....
....|..|G-6 ...7 ....|R-- .... ....|R-- .... ....
....|..|F-6 ...F ....|R-- .... ....|A#4 .F.F ....
....|..|--- .... ....|--- .... ....|--- .... ....
....|..|G-6 ...7 ....|--- .... ....|--- .... ....
....|..|--- .... ....|R-- .... ....|--- .... ....

[Pattern35]
....|..|A#6 ...7 ....|D#3 .F4F ....|R-- .... ....
....|..|--- .... ....|--- .... ....|--- .... ....
....|..|--- .... ....|--- .... ....|--- .... ....
....|..|R-- .... ....|--- .... ....|R-- .... ....
....|..|G-6 ...F ....|G-3 .F27 ....|D-5 .F.7 ....
....|..|--- .... ....|--- .... ....|--- .... ....
....|..|D-6 ...A ....|--- .... ....|--- .... ....
....|..|R-- .... ....|R-- .... ....|R-- .... ....
....|..|D-6 ...7 ....|G-3 .F1F ....|D#5 .F.F ....
....|..|--- .... ....|--- .... ....|--- .... ....
....|..|G#6 ...F ....|--- .... ....|--- .... ....
....|..|G-6 ...F ....|--- .... ....|--- .... ....
....|..|F-6 ...F ....|D#3 .F37 ....|D-5 .F.F ....
....|..|--- .... ....|--- .... ....|--- .... ....
....|..|G-6 ...F ....|--- .... ....|--- .... ....
....|..|R-- .... ....|R-- .... ....|R-- .... ....
....|..|A#6 ...F ....|R-- .... ....|R-- .... ....
....|..|--- .... ....|--- .... ....|--- .... ....
....|..|D-6 ...7 ....|--- .... ....|--- .... ....
....|..|--- .... ....|R-- .... ....|R-- .... ....
....|..|F-6 ...7 ....|G-3 .F2F ....|D-5 .F.F ....
....|..|--- .... ....|--- .... ....|--- .... ....
....|..|G#6 ...A ....|--- .... ....|--- .... ....
....|..|R-- .... ....|--- .... ....|--- .... ....
....|..|D-6 ...F ....|D#3 .F47 ....|C-5 .F.F ....
....|..|--- .... ....|--- .... ....|--- .... ....
....|..|G-6 ...A ....|--- .... ....|--- .... ....
....|..|R-- .... ....|R-- .... ....|R-- .... ....
....|..|G-6 ...7 ....|D#3 .F3F ....|A#4 .F.F ....
....|..|--- .... ....|--- .... ....|--- .... ....
....|..|--- .... ....|--- .... ....|G-4 .F.F ....
....|..|R-- .... ....|--- .... ....|--- .... ....
....|..|C-6 ...F ....|G-3 .F17 ....|F-4 .F.F ....
....|..|--- .... ....|--- .... ....|--- .... ....
....|..|G#6 ...7 ....|--- .... ....|A#4 .F.F ....
....|..|G-6 ...7 ....|R-- .... ....|--- .... ....
....|..|D-6 ...F ....|R-- .... ....|D-5 .F.7 ....
....|..|--- .... ....|--- .... ....|--- .... ....
....|..|G-6 ...7 ....|--- .... ....|--- .... ....
....|..|--- .... ....|R-- .... ....|--- .... ....
....|..|A#6 ...7 ....|D#3 .F4F ....|R-- .... ....
....|..|--- .... ....|--- .... ....|--- .... ....
....|..|--- .... ....|--- .... ....|G-4 .F.A ....
....|..|R-- .... ....|--- .... ....|R-- .... ....
....|..|G-6 ...F ....|G-3 .F27 ....|D-5 .F.7 ....
....|..|--- .... ....|--- .... ....|--- .... ....
....|..|--- .... ....|--- .... ....|A#4 .F.A ....
....|..|R-- .... ....|R-- .... ....|--- .... ....

[Pattern36]
....|..|D-6 ...7 ....|G-3 .F1F ....|D#5 .F.F ....
....|..|--- .... ....|--- .... ....|--- .... ....
....|..|G#6 ...F ....|--- .... ....|--- .... ....
....|..|G-6 ...F ....|--- .... ....|--- .... ....
....|..|F-6 ...F ....|D#3 .F37 ....|D-5 .F.F ....
....|..|--- .... ....|--- .... ....|--- .... ....
....|..|G-6 ...F ....|--- .... ....|G-4 .F.7 ....
....|..|R-- .... ....|R-- .... ....|R-- .... ....
....|..|A#6 ...F ....|R-- .... ....|F-4 .F.7 ....
....|..|--- .... ....|--- .... ....|--- .... ....
....|..|--- .... ....|--- .... ....|A#4 .F.7 ....
....|..|--- .... ....|R-- .... ....|--- .... ....
....|..|D-6 ...7 ....|G-3 .F2F ....|D-5 .F.F ....
....|..|--- .... ....|--- .... ....|--- .... ....
....|..|G#6 ...A ....|--- .... ....|--- .... ....
....|..|R-- .... ....|--- .... ....|--- .... ....
....|..|D-6 ...F ....|D#3 .F47 ....|C-5 .F.F ....
....|..|--- .... ....|--- .... ....|--- .... ....
....|..|G-6 ...A ....|--- .... ....|--- .... ....
....|..|R-- .... ....|R-- .... ....|R-- .... ....
....|..|G-6 ...7 ....|D#3 .F3F ....|R-- .... ....
....|..|--- .... ....|--- .... ....|--- .... ....
....|..|--- .... ....|--- .... ....|--- .... ....
....|..|R-- .... ....|--- .... ....|--- .... ....
....|..|C-6 ...F ....|G-3 .F17 ....|D#5 .F.7 ....
....|..|--- .... ....|--- .... ....|--- .... ....
....|..|D-6 ...F ....|--- .... ....|--- .... ....
....|..|G-6 ...7 ....|R-- .... ....|R-- .... ....
....|..|F-6 ...F ....|R-- .... ....|A#4 .F.F ....
....|..|--- .... ....|--- .... ....|--- .... ....
....|..|G-6 ...7 ....|--- .... ....|--- .... ....
....|..|--- .... ....|R-- .... ....|--- .... ....
....|..|A#6 ...7 ....|D#3 .F4F ....|R-- .... ....
....|..|--- .... ....|--- .... ....|--- .... ....
....|..|--- .... ....|--- .... ....|--- .... ....
....|..|R-- .... ....|--- .... ....|R-- .... ....
....|..|G-6 ...F ....|G-3 .F27 ....|G-4 .F.F ....
....|..|--- .... ....|--- .... ....|--- .... ....
....|..|D-6 ...A ....|--- .... ....|--- .... ....
....|..|R-- .... ....|R-- .... ....|R-- .... ....
....|..|D-6 ...7 ....|G-3 .F1F ....|C-5 .F.7 ....
....|..|--- .... ....|--- .... ....|--- .... ....
....|..|G#6 ...F ....|--- .... ....|--- .... ....
....|..|G-6 ...F ....|--- .... ....|R-- .... ....
....|..|F-6 ...F ....|D#3 .F37 ....|F-4 .F.F ....
....|..|--- .... ....|--- .... ....|--- .... ....
....|..|G-6 ...F ....|--- .... ....|G-4 .F.F ....
....|..|R-- .... ....|R-- .... ....|R-- .... ....

[Pattern37]
....|..|A#6 ...F ....|R-- .... ....|A#4 .F.F ....
....|..|--- .... ....|--- .... ....|--- .... ....
....|..|D-6 ...7 ....|--- .... ....|--- .... ....
....|..|--- .... ....|R-- .... ....|R-- .... ....
....|..|F-6 ...7 ....|G-3 .F2F ....|A#4 .F.7 ....
....|..|--- .... ....|--- .... ....|--- .... ....
....|..|G#6 ...A ....|--- .... ....|--- .... ....
....|..|R-- .... ....|--- .... ....|R-- .... ....
....|..|D-6 ...F ....|D#3 .F47 ....|D#4 .F.F ....
....|..|--- .... ....|--- .... ....|--- .... ....
....|..|G-6 ...A ....|--- .... ....|G-4 .F.A ....
....|..|R-- .... ....|R-- .... ....|R-- .... ....
....|..|G-6 ...7 ....|D#3 .F3F ....|G-4 .F.7 ....
....|..|--- .... ....|--- .... ....|--- .... ....
....|..|--- .... ....|--- .... ....|--- .... ....
....|..|R-- .... ....|--- .... ....|R-- .... ....
....|..|C-6 ...F ....|G-3 .F17 ....|D-4 .F.F ....
....|..|--- .... ....|--- .... ....|--- .... ....
....|..|G#6 ...7 ....|--- .... ....|D#4 .F.F ....
....|..|G-6 ...7 ....|R-- .... ....|R-- .... ....
....|..|D-6 ...F ....|R-- .... ....|G-4 .F.F ....
....|..|--- .... ....|--- .... ....|--- .... ....
....|..|G-6 ...7 ....|--- .... ....|G-4 .F.7 ....
....|..|--- .... ....|R-- .... ....|--- .... ....
....|..|A#6 ...7 ....|D#3 .F4F ....|A#4 .F.7 ....
....|..|--- .... ....|--- .... ....|--- .... ....
....|..|--- .... ....|--- .... ....|--- .... ....
....|..|R-- .... ....|--- .... ....|R-- .... ....
....|..|C-6 ...A ....|C-4 .F5F ....|G-4 .F.F ....
....|..|--- .... ....|--- .... ....|--- .... ....
....|..|--- .... ....|--- .... ....|D#4 .F.A ....
....|..|R-- .... ....|R-- .... ....|R-- .... ....
....|..|D-6 ...7 ....|G-3 .F.F ....|D#4 .F.7 ....
....|..|--- .... ....|--- .... ....|--- .... ....
....|..|--- .... ....|--- .... ....|--- .... ....
....|..|--- .... ....|--- .... ....|--- .... ....
....|..|--- .... ....|D-4 .F.F ....|--- .... ....
....|..|--- .... ....|--- .... ....|--- .... ....
....|..|--- .... ....|D#4 .F.F ....|--- .... ....
....|..|R-- .... ....|--- .... ....|R-- .... ....
....|..|C-6 ...7 ....|C-4 .F5F ....|D-4 .F.7 ....
....|..|--- .... ....|--- .... ....|--- .... ....
....|..|--- .... ....|--- .... ....|D#4 .F.7 ....
....|..|--- .... ....|R-- .... ....|--- .... ....
....|..|D-6 ...7 ....|G-3 .F6F ....|G-4 .F.7 ....
....|..|--- .... ....|--- .... ....|--- .... ....
....|..|--- .... ....|--- .... ....|--- .... ....
....|..|--- .... ....|--- .... ....|--- .... ....

[Pattern38]
....|..|--- .... ....|G-3 .F1F ....|--- .... ....
....|..|--- .... ....|--- .... ....|--- .... ....
....|..|--- .... ....|D#4 .F.A ....|--- .... ....
....|..|R-- .... ....|--- .... ....|R-- .... ....
....|..|--- .... ....|G-3 .F.F ....|G-4 .F.7 ....
....|..|--- .... ....|--- .... ....|--- .... ....
....|..|--- .... ....|--- .... ....|--- .... ....
....|..|--- .... ....|--- .... ....|--- .... ....
....|..|--- .... ....|D-4 .F.F ....|--- .... ....
....|..|--- .... ....|--- .... ....|--- .... ....
....|..|--- .... ....|D#4 .F.F ....|--- .... ....
....|..|--- .... ....|--- .... ....|--- .... ....
....|..|--- .... ....|G-3 .F1F ....|--- .... ....
....|..|--- .... ....|--- .... ....|--- .... ....
....|..|--- .... ....|D#4 .F.7 ....|--- .... ....
....|..|--- .... ....|--- .... ....|--- .... ....
....|..|--- .... ....|G-3 .F7F ....|--- .... ....
....|..|--- .... ....|--- .... ....|--- .... ....
....|..|--- .... ....|--- .... ....|--- .... ....
....|..|--- .... ....|--- .... ....|--- .... ....
....|..|--- .... ....|C-4 .F5F ....|--- .... ....
....|..|--- .... ....|--- .... ....|--- .... ....
....|..|--- .... ....|D#4 .F.A ....|--- .... ....
....|..|--- .... ....|--- .... ....|--- .... ....
....|..|--- .... ....|G-3 .F.F ....|--- .... ....
....|..|--- .... ....|--- .... ....|--- .... ....
....|..|--- .... ....|--- .... ....|--- .... ....
....|..|--- .... ....|--- .... ....|--- .... ....
....|..|--- .... ....|C-4 .F5F ....|--- .... ....
....|..|--- .... ....|--- .... ....|--- .... ....
....|..|--- .... ....|--- .... ....|--- .... ....
....|..|--- .... ....|--- .... ....|--- .... ....
....|..|--- .... ....|G-3 .F7F ....|--- .... ....
....|..|--- .... ....|--- .... ....|--- .... ....
....|..|--- .... ....|D#4 .F.7 ....|--- .... ....
....|..|--- .... ....|--- .... ....|--- .... ....
....|..|--- .... ....|G-3 .F1F ....|--- .... ....
....|..|--- .... ....|--- .... ....|--- .... ....
....|..|--- .... ....|--- .... ....|--- .... ....
....|..|--- .... ....|--- .... ....|--- .... ....
....|..|--- .... ....|G-3 .F1F ....|--- .... ....
....|..|--- .... ....|--- .... ....|--- .... ....
....|..|--- .... ....|--- .... ....|--- .... ....
....|..|--- .... ....|--- .... ....|--- .... ....
....|..|--- .... ....|G-3 .F.F ....|--- .... ....
....|..|--- .... ....|--- .... ....|--- .... ....
....|..|--- .... ....|--- .... ....|--- .... ....
....|..|--- .... ....|--- .... ....|--- .... ....

[Pattern39]
....|..|--- .... ....|D#4 .F.F ....|--- .... ....
....|..|--- .... ....|--- .... ....|--- .... ....
....|..|--- .... ....|D-4 .F.F ....|--- .... ....
....|..|--- .... ....|--- .... ....|--- .... ....
....|..|--- .... ....|G-3 .F6F ....|--- .... ....
....|..|--- .... ....|--- .... ....|--- .... ....
....|..|--- .... ....|--- .... ....|--- .... ....
....|..|--- .... ....|--- .... ....|--- .... ....
....|..|--- .... ....|C-4 .F5F ....|--- .... ....
....|..|--- .... ....|--- .... ....|--- .... ....
....|..|--- .... ....|--- .... ....|--- .... ....
....|..|--- .... ....|--- .... ....|--- .... ....
....|..|--- .... ....|C-4 .F5F ....|--- .... ....
....|..|--- .... ....|--- .... ....|--- .... ....
....|..|--- .... ....|D-4 .F.A ....|--- .... ....
....|..|--- .... ....|--- .... ....|--- .... ....
....|..|--- .... ....|G-3 .F.F ....|--- .... ....
....|..|--- .... ....|--- .... ....|--- .... ....
....|..|--- .... ....|--- .... ....|--- .... ....
....|..|--- .... ....|--- .... ....|--- .... ....
....|..|--- .... ....|D-4 .F.F ....|--- .... ....
....|..|--- .... ....|--- .... ....|--- .... ....
....|..|--- .... ....|D#4 .F.F ....|--- .... ....
....|..|--- .... ....|--- .... ....|--- .... ....
....|..|--- .... ....|C-4 .F5F ....|--- .... ....
....|..|--- .... ....|--- .... ....|--- .... ....
....|..|--- .... ....|D-4 .F.7 ....|--- .... ....
....|..|--- .... ....|--- .... ....|--- .... ....
....|..|--- .... ....|G-3 .F6F ....|--- .... ....
....|..|--- .... ....|--- .... ....|--- .... ....
....|..|--- .... ....|--- .... ....|--- .... ....
....|..|--- .... ....|--- .... ....|--- .... ....
....|..|--- .... ....|G-3 .F1F ....|--- .... ....
....|..|--- .... ....|--- .... ....|--- .... ....
....|..|--- .... ....|D#4 .F.A ....|--- .... ....
....|..|--- .... ....|--- .... ....|--- .... ....
....|..|--- .... ....|G-3 .F.F ....|--- .... ....
....|..|--- .... ....|--- .... ....|--- .... ....
....|..|--- .... ....|--- .... ....|--- .... ....
....|..|--- .... ....|--- .... ....|--- .... ....
....|..|--- .... ....|D-4 .F.F ....|--- .... ....
....|..|--- .... ....|--- .... ....|--- .... ....
....|..|--- .... ....|D#4 .F.F ....|--- .... ....
....|..|--- .... ....|--- .... ....|--- .... ....
....|..|--- .... ....|G-3 .F1F ....|--- .... ....
....|..|--- .... ....|--- .... ....|--- .... ....
....|..|--- .... ....|D#4 .F.7 ....|--- .... ....
....|..|--- .... ....|--- .... ....|--- .... ....

[Pattern40]
....|..|--- .... ....|G-3 .F7F ....|--- .... ....
....|..|--- .... ....|--- .... ....|--- .... ....
....|..|--- .... ....|--- .... ....|--- .... ....
....|..|--- .... ....|--- .... ....|--- .... ....
....|..|--- .... ....|C-4 .F5F ....|--- .... ....
....|..|--- .... ....|--- .... ....|--- .... ....
....|..|--- .... ....|D#4 .F.A ....|--- .... ....
....|..|--- .... ....|--- .... ....|--- .... ....
....|..|--- .... ....|G-3 .F.F ....|--- .... ....
....|..|--- .... ....|--- .... ....|--- .... ....
....|..|--- .... ....|--- .... ....|--- .... ....
....|..|--- .... ....|--- .... ....|--- .... ....
....|..|--- .... ....|C-4 .F5F ....|--- .... ....
....|..|--- .... ....|--- .... ....|--- .... ....
....|..|--- .... ....|--- .... ....|--- .... ....
....|..|--- .... ....|--- .... ....|--- .... ....
....|..|--- .... ....|G-3 .F7F ....|--- .... ....
....|..|--- .... ....|--- .... ....|--- .... ....
....|..|--- .... ....|D#4 .F.7 ....|--- .... ....
....|..|--- .... ....|--- .... ....|--- .... ....
....|..|--- .... ....|G-3 .F1F ....|--- .... ....
....|..|--- .... ....|--- .... ....|--- .... ....
....|..|--- .... ....|--- .... ....|--- .... ....
....|..|--- .... ....|--- .... ....|--- .... ....
....|..|--- .... ....|G-3 .F1F ....|--- .... ....
....|..|--- .... ....|--- .... ....|--- .... ....
....|..|--- .... ....|--- .... ....|--- .... ....
....|..|--- .... ....|--- .... ....|--- .... ....
....|..|--- .... ....|C-4 .F57 ....|--- .... ....
....|..|--- .... ....|--- .... ....|--- .... ....
....|..|--- .... ....|--- .... ....|--- .... ....
....|..|--- .... ....|--- .... ....|--- .... ....
....|..|--- .... ....|G-3 .F.7 ....|--- .... ....
....|..|--- .... ....|--- .... ....|--- .... ....
....|..|--- .... ....|--- .... ....|--- .... ....
....|..|--- .... ....|--- .... ....|--- .... ....
....|..|--- .... ....|C-4 .F57 ....|--- .... ....
....|..|--- .... ....|--- .... ....|--- .... ....
....|..|--- .... ....|--- .... ....|--- .... ....
....|..|--- .... ....|--- .... ....|--- .... ....
....|..|--- .... ....|G-3 .F77 ....|--- .... ....
....|..|--- .... ....|--- .... ....|--- .... ....
....|..|--- .... ....|--- .... ....|--- .... ....
....|..|--- .... ....|--- .... ....|--- .... ....
....|..|--- .... ....|G-3 .F17 ....|R-- .... ....
....|..|--- .... ....|--- .... ....|--- .... ....
....|..|--- .... ....|--- .... ....|--- .... ....
....|..|--- .... ....|--- .... ....|--- .... ....

[Pattern41]
....|..|--- .... ....|G-3 .F17 ....|--- .... ....
....|..|--- .... ....|--- .... ....|--- .... ....
....|..|--- .... ....|--- .... ....|--- .... ....
....|..|--- .... ....|--- .... ....|--- .... ....
....|..|--- .... ....|--- .... ....|--- .... ....
....|..|--- .... ....|--- .... ....|--- .... ....
....|..|--- .... ....|--- .... ....|--- .... ....
....|..|--- .... ....|--- .... ....|--- .... ....
....|..|--- .... ....|R-- .... ....|R-- .... ....
....|..|--- .... ....|--- .... ....|--- .... ....
....|..|--- .... ....|--- .... ....|--- .... ....
....|..|--- .... ....|--- .... ....|--- .... ....
....|..|--- .... ....|--- .... ....|--- .... ....
....|..|--- .... ....|--- .... ....|--- .... ....
....|..|--- .... ....|--- .... ....|--- .... ....
....|..|--- .... ....|--- .... ....|--- .... ....
....|..|--- .... ....|--- .... ....|--- .... ....
....|..|--- .... ....|--- .... ....|--- .... ....
....|..|--- .... ....|--- .... ....|--- .... ....
....|..|--- .... ....|--- .... ....|--- .... ....
....|..|--- .... ....|R-- .... ....|R-- .... ....
....|..|--- .... ....|--- .... ....|--- .... ....
....|..|--- .... ....|--- .... ....|--- .... ....
....|..|--- .... ....|--- .... ....|--- .... ....
....|..|--- .... ....|--- .... ....|--- .... ....
....|..|--- .... ....|--- .... ....|--- .... ....
....|..|--- .... ....|--- .... ....|--- .... ....
....|..|--- .... ....|--- .... ....|--- .... ....
....|..|--- .... ....|--- .... ....|--- .... ....
....|..|--- .... ....|--- .... ....|--- .... ....
....|..|--- .... ....|--- .... ....|--- .... ....
....|..|--- .... ....|--- .... ....|--- .... ....
....|..|--- .... ....|--- .... ....|--- .... ....
....|..|--- .... ....|--- .... ....|--- .... ....
....|..|--- .... ....|--- .... ....|--- .... ....
....|..|--- .... ....|--- .... ....|--- .... ....
....|..|--- .... ....|--- .... ....|--- .... ....
....|..|--- .... ....|--- .... ....|--- .... ....
....|..|--- .... ....|--- .... ....|--- .... ....
....|..|--- .... ....|--- .... ....|--- .... ....
....|..|--- .... ....|--- .... ....|--- .... ....
....|..|--- .... ....|--- .... ....|--- .... ....
....|..|--- .... ....|--- .... ....|--- .... ....
....|..|--- .... ....|--- .... ....|--- .... ....
....|..|--- .... ....|--- .... ....|--- .... ....
....|..|--- .... ....|--- .... ....|--- .... ....
....|..|--- .... ....|--- .... ....|--- .... ....
....|..|--- .... ....|--- .... ....|--- .... ....

[Pattern42]
....|..|--- .... ....|--- .... ....|--- .... ....
....|..|--- .... ....|--- .... ....|--- .... ....
....|..|--- .... ....|--- .... ....|--- .... ....
....|..|--- .... ....|--- .... ....|--- .... ....
....|..|--- .... ....|--- .... ....|--- .... ....
....|..|--- .... ....|--- .... ....|--- .... ....
....|..|--- .... ....|--- .... ....|--- .... ....
....|..|--- .... ....|--- .... ....|--- .... ....
....|..|--- .... ....|--- .... ....|--- .... ....
....|..|--- .... ....|--- .... ....|--- .... ....
....|..|--- .... ....|--- .... ....|--- .... ....
....|..|--- .... ....|--- .... ....|--- .... ....
....|..|--- .... ....|--- .... ....|--- .... ....
....|..|--- .... ....|--- .... ....|--- .... ....
....|..|--- .... ....|--- .... ....|--- .... ....
....|..|--- .... ....|--- .... ....|--- .... ....
....|..|A#6 ...F ....|--- .... ....|--- .... ....
....|..|--- .... ....|--- .... ....|--- .... ....
....|..|--- .... ....|--- .... ....|--- .... ....
....|..|--- .... ....|--- .... ....|--- .... ....
....|..|G-6 ...F ....|--- .... ....|--- .... ....
....|..|--- .... ....|--- .... ....|--- .... ....
....|..|F-6 ...F ....|--- .... ....|--- .... ....
....|..|--- .... ....|--- .... ....|--- .... ....
....|..|G-6 ...F ....|--- .... ....|--- .... ....
....|..|--- .... ....|--- .... ....|--- .... ....
....|..|--- .... ....|--- .... ....|--- .... ....
....|..|--- .... ....|--- .... ....|--- .... ....
....|..|A#6 ...A ....|--- .... ....|--- .... ....
....|..|--- .... ....|--- .... ....|--- .... ....
....|..|--- .... ....|--- .... ....|--- .... ....
....|..|--- .... ....|--- .... ....|--- .... ....
....|..|G-6 ...A ....|--- .... ....|--- .... ....
....|..|--- .... ....|--- .... ....|--- .... ....
....|..|F-6 ...A ....|--- .... ....|--- .... ....
....|..|--- .... ....|--- .... ....|--- .... ....
....|..|G-6 ...A ....|--- .... ....|--- .... ....
....|..|--- .... ....|--- .... ....|--- .... ....
....|..|--- .... ....|--- .... ....|--- .... ....
....|..|--- .... ....|--- .... ....|--- .... ....
....|..|A#6 ...7 ....|--- .... ....|--- .... ....
....|..|--- .... ....|--- .... ....|--- .... ....
....|..|--- .... ....|--- .... ....|--- .... ....
....|..|--- .... ....|--- .... ....|--- .... ....
....|..|G-6 ...7 ....|--- .... ....|--- .... ....
....|..|--- .... ....|--- .... ....|--- .... ....
....|..|F-6 ...7 ....|--- .... ....|--- .... ....
....|..|R-- .... ....|--- .... ....|--- .... ....

[Pattern43]
....|..|G-6 ...7 ....|--- .... ....|--- .... ....
....|..|--- .... ....|--- .... ....|--- .... ....
....|..|--- .... ....|--- .... ....|--- .... ....
....|..|--- .... ....|--- .... ....|--- .... ....
....|..|--- .... ....|--- .... ....|--- .... ....
....|..|--- .... ....|--- .... ....|--- .... ....
....|..|--- .... ....|--- .... ....|--- .... ....
....|..|--- .... ....|--- .... ....|--- .... ....
....|..|D#6 ...F ....|--- .... ....|--- .... ....
....|..|--- .... ....|--- .... ....|--- .... ....
....|..|D-6 ...F ....|--- .... ....|--- .... ....
....|..|R-- .... ....|--- .... ....|--- .... ....
....|..|A#5 ...F ....|--- .... ....|--- .... ....
....|..|--- .... ....|--- .... ....|--- .... ....
....|..|--- .... ....|--- .... ....|--- .... ....
....|..|--- .... ....|--- .... ....|--- .... ....
....|..|--- .... ....|--- .... ....|--- .... ....
....|..|--- .... ....|--- .... ....|--- .... ....
....|..|--- .... ....|--- .... ....|--- .... ....
....|..|R-- .... ....|--- .... ....|--- .... ....
....|..|C-6 ...F ....|--- .... ....|--- .... ....
....|..|--- .... ....|--- .... ....|--- .... ....
....|..|D-6 ...A ....|--- .... ....|--- .... ....
....|..|R-- .... ....|--- .... ....|--- .... ....
....|..|A#5 ...A ....|--- .... ....|--- .... ....
....|..|--- .... ....|--- .... ....|--- .... ....
....|..|--- .... ....|--- .... ....|--- .... ....
....|..|--- .... ....|--- .... ....|--- .... ....
....|..|--- .... ....|--- .... ....|--- .... ....
....|..|--- .... ....|--- .... ....|--- .... ....
....|..|--- .... ....|--- .... ....|--- .... ....
....|..|R-- .... ....|--- .... ....|--- .... ....
....|..|D#6 ...7 ....|--- .... ....|--- .... ....
....|..|--- .... ....|--- .... ....|--- .... ....
....|..|D-6 ...7 ....|--- .... ....|--- .... ....
....|..|--- .... ....|--- .... ....|--- .... ....
....|..|A#5 ...7 ....|--- .... ....|--- .... ....
....|..|--- .... ....|--- .... ....|--- .... ....
....|..|--- .... ....|--- .... ....|--- .... ....
....|..|--- .... ....|--- .... ....|--- .... ....
....|..|--- .... ....|--- .... ....|--- .... ....
....|..|--- .... ....|--- .... ....|--- .... ....
....|..|--- .... ....|--- .... ....|--- .... ....
....|..|R-- .... ....|--- .... ....|--- .... ....
....|..|C-6 ...7 ....|--- .... ....|--- .... ....
....|..|--- .... ....|--- .... ....|--- .... ....
....|..|--- .... ....|--- .... ....|--- .... ....
....|..|--- .... ....|--- .... ....|--- .... ....

[Pattern44]
....|..|--- .... ....|--- .... ....|--- .... ....
....|..|--- .... ....|--- .... ....|--- .... ....
....|..|--- .... ....|--- .... ....|--- .... ....
....|..|R-- .... ....|--- .... ....|--- .... ....
....|..|--- .... ....|--- .... ....|D#4 .F.F ....
....|..|--- .... ....|--- .... ....|--- .... ....
....|..|--- .... ....|--- .... ....|--- .... ....
....|..|--- .... ....|--- .... ....|--- .... ....
....|..|--- .... ....|--- .... ....|F-4 .F.F ....
....|..|--- .... ....|--- .... ....|--- .... ....
....|..|--- .... ....|--- .... ....|--- .... ....
....|..|--- .... ....|--- .... ....|--- .... ....
....|..|--- .... ....|--- .... ....|G-4 .F.F ....
....|..|--- .... ....|--- .... ....|--- .... ....
....|..|--- .... ....|--- .... ....|--- .... ....
....|..|R-- .... ....|--- .... ....|--- .... ....
....|..|--- .... ....|--- .... ....|D#4 .F.A ....
....|..|--- .... ....|--- .... ....|--- .... ....
....|..|--- .... ....|--- .... ....|--- .... ....
....|..|--- .... ....|--- .... ....|R-- .... ....
....|..|--- .... ....|--- .... ....|F-4 .F.F ....
....|..|--- .... ....|--- .... ....|--- .... ....
....|..|--- .... ....|--- .... ....|G-4 .F.F ....
....|..|--- .... ....|--- .... ....|--- .... ....
....|..|--- .... ....|--- .... ....|A#4 .F.F ....
....|..|--- .... ....|--- .... ....|--- .... ....
....|..|--- .... ....|--- .... ....|--- .... ....
....|..|R-- .... ....|--- .... ....|--- .... ....
....|..|--- .... ....|--- .... ....|D#4 .F.7 ....
....|..|--- .... ....|--- .... ....|--- .... ....
....|..|--- .... ....|--- .... ....|--- .... ....
....|..|--- .... ....|--- .... ....|R-- .... ....
....|..|--- .... ....|--- .... ....|G-4 .F.F ....
....|..|--- .... ....|--- .... ....|--- .... ....
....|..|--- .... ....|--- .... ....|G-4 .F.A ....
....|..|--- .... ....|--- .... ....|--- .... ....
....|..|--- .... ....|--- .... ....|G-4 .F.7 ....
....|..|--- .... ....|--- .... ....|--- .... ....
....|..|--- .... ....|--- .... ....|--- .... ....
....|..|--- .... ....|--- .... ....|R-- .... ....
....|..|--- .... ....|--- .... ....|F-4 .F.F ....
....|..|--- .... ....|--- .... ....|--- .... ....
....|..|--- .... ....|--- .... ....|--- .... ....
....|..|--- .... ....|--- .... ....|R-- .... ....
....|..|--- .... ....|--- .... ....|G-4 .F.F ....
....|..|--- .... ....|--- .... ....|--- .... ....
....|..|--- .... ....|--- .... ....|G-4 .F.7 ....
....|..|--- .... ....|--- .... ....|--- .... ....

[Pattern45]
....|..|--- .... ....|--- .... ....|A#4 .F.7 ....
....|..|--- .... ....|--- .... ....|--- .... ....
....|..|--- .... ....|--- .... ....|--- .... ....
....|..|--- .... ....|--- .... ....|R-- .... ....
....|..|--- .... ....|--- .... ....|F-4 .F.A ....
....|..|--- .... ....|--- .... ....|--- .... ....
....|..|--- .... ....|--- .... ....|--- .... ....
....|..|--- .... ....|--- .... ....|R-- .... ....
....|..|--- .... ....|G-3 .F1F ....|D#5 .F.F ....
....|..|--- .... ....|--- .... ....|--- .... ....
....|..|--- .... ....|--- .... ....|--- .... ....
....|..|--- .... ....|--- .... ....|--- .... ....
....|..|--- .... ....|--- .... ....|D-5 .F.F ....
....|..|--- .... ....|--- .... ....|--- .... ....
....|..|--- .... ....|--- .... ....|--- .... ....
....|..|--- .... ....|R-- .... ....|R-- .... ....
....|..|--- .... ....|--- .... ....|F-4 .F.7 ....
....|..|--- .... ....|--- .... ....|--- .... ....
....|..|--- .... ....|--- .... ....|--- .... ....
....|..|--- .... ....|--- .... ....|--- .... ....
....|..|--- .... ....|G-3 .F2F ....|D-5 .F.F ....
....|..|--- .... ....|--- .... ....|--- .... ....
....|..|--- .... ....|--- .... ....|--- .... ....
....|..|--- .... ....|--- .... ....|--- .... ....
....|..|--- .... ....|R-- .... ....|C-5 .F.F ....
....|..|--- .... ....|--- .... ....|--- .... ....
....|..|--- .... ....|--- .... ....|--- .... ....
....|..|--- .... ....|R-- .... ....|R-- .... ....
....|..|--- .... ....|D#3 .F3F ....|R-- .... ....
....|..|--- .... ....|--- .... ....|--- .... ....
....|..|--- .... ....|--- .... ....|--- .... ....
....|..|--- .... ....|--- .... ....|--- .... ....
....|..|A#6 ...F ....|G-3 .F17 ....|D#5 .F.7 ....
....|..|--- .... ....|--- .... ....|--- .... ....
....|..|--- .... ....|--- .... ....|--- .... ....
....|..|--- .... ....|R-- .... ....|R-- .... ....
....|..|G-6 ...F ....|R-- .... ....|A#4 .F.F ....
....|..|--- .... ....|--- .... ....|--- .... ....
....|..|F-6 ...F ....|--- .... ....|--- .... ....
....|..|--- .... ....|R-- .... ....|--- .... ....
....|..|G-6 ...F ....|D#3 .F4F ....|R-- .... ....
....|..|--- .... ....|--- .... ....|--- .... ....
....|..|--- .... ....|--- .... ....|--- .... ....
....|..|--- .... ....|--- .... ....|R-- .... ....
....|..|A#6 ...A ....|G-3 .F27 ....|D-5 .F.7 ....
....|..|--- .... ....|--- .... ....|--- .... ....
....|..|--- .... ....|--- .... ....|--- .... ....
....|..|--- .... ....|R-- .... ....|R-- .... ....

[Pattern46]
....|..|G-6 ...A ....|G-3 .F1F ....|D#5 .F.F ....
....|..|--- .... ....|--- .... ....|--- .... ....
....|..|F-6 ...A ....|--- .... ....|--- .... ....
....|..|--- .... ....|--- .... ....|--- .... ....
....|..|G-6 ...A ....|D#3 .F37 ....|D-5 .F.F ....
....|..|--- .... ....|--- .... ....|--- .... ....
....|..|--- .... ....|--- .... ....|--- .... ....
....|..|--- .... ....|R-- .... ....|R-- .... ....
....|..|A#6 ...7 ....|R-- .... ....|R-- .... ....
....|..|--- .... ....|--- .... ....|--- .... ....
....|..|--- .... ....|--- .... ....|--- .... ....
....|..|--- .... ....|R-- .... ....|R-- .... ....
....|..|G-6 ...7 ....|G-3 .F2F ....|D-5 .F.F ....
....|..|--- .... ....|--- .... ....|--- .... ....
....|..|F-6 ...7 ....|--- .... ....|--- .... ....
....|..|R-- .... ....|--- .... ....|--- .... ....
....|..|G-6 ...7 ....|D#3 .F47 ....|C-5 .F.F ....
....|..|--- .... ....|--- .... ....|--- .... ....
....|..|--- .... ....|--- .... ....|--- .... ....
....|..|--- .... ....|R-- .... ....|R-- .... ....
....|..|--- .... ....|D#3 .F3F ....|A#4 .F.F ....
....|..|--- .... ....|--- .... ....|--- .... ....
....|..|--- .... ....|--- .... ....|G-4 .F.F ....
....|..|--- .... ....|--- .... ....|--- .... ....
....|..|--- .... ....|G-3 .F17 ....|F-4 .F.F ....
....|..|--- .... ....|--- .... ....|--- .... ....
....|..|--- .... ....|--- .... ....|A#4 .F.F ....
....|..|R-- .... ....|R-- .... ....|--- .... ....
....|..|D#6 ...F ....|R-- .... ....|D-5 .F.7 ....
....|..|--- .... ....|--- .... ....|--- .... ....
....|..|D-6 ...F ....|--- .... ....|--- .... ....
....|..|--- .... ....|R-- .... ....|--- .... ....
....|..|D#6 ...F ....|D#3 .F4F ....|R-- .... ....
....|..|--- .... ....|--- .... ....|--- .... ....
....|..|F-6 ...F ....|--- .... ....|G-4 .F.A ....
....|..|--- .... ....|--- .... ....|R-- .... ....
....|..|A#6 ...F ....|G-3 .F27 ....|D-5 .F.7 ....
....|..|--- .... ....|--- .... ....|--- .... ....
....|..|--- .... ....|--- .... ....|A#4 .F.A ....
....|..|R-- .... ....|R-- .... ....|--- .... ....
....|..|D#6 ...A ....|G-3 .F1F ....|D#5 .F.F ....
....|..|--- .... ....|--- .... ....|--- .... ....
....|..|D-6 ...A ....|--- .... ....|--- .... ....
....|..|--- .... ....|--- .... ....|--- .... ....
....|..|D#6 ...A ....|D#3 .F37 ....|D-5 .F.F ....
....|..|--- .... ....|--- .... ....|--- .... ....
....|..|F-6 ...A ....|--- .... ....|G-4 .F.7 ....
....|..|--- .... ....|R-- .... ....|R-- .... ....

[Pattern47]
....|..|A#6 ...A ....|R-- .... ....|F-4 .F.7 ....
....|..|--- .... ....|--- .... ....|--- .... ....
....|..|--- .... ....|--- .... ....|A#4 .F.7 ....
....|..|--- .... ....|R-- .... ....|--- .... ....
....|..|D#6 ...7 ....|G-3 .F2F ....|D-5 .F.F ....
....|..|--- .... ....|--- .... ....|--- .... ....
....|..|D-6 ...7 ....|--- .... ....|--- .... ....
....|..|--- .... ....|--- .... ....|--- .... ....
....|..|D#6 ...7 ....|D#3 .F47 ....|C-5 .F.F ....
....|..|--- .... ....|--- .... ....|--- .... ....
....|..|F-6 ...7 ....|--- .... ....|--- .... ....
....|..|--- .... ....|R-- .... ....|R-- .... ....
....|..|A#6 ...7 ....|D#3 .F3F ....|R-- .... ....
....|..|--- .... ....|--- .... ....|--- .... ....
....|..|--- .... ....|--- .... ....|--- .... ....
....|..|--- .... ....|--- .... ....|--- .... ....
....|..|--- .... ....|G-3 .F17 ....|D#5 .F.7 ....
....|..|--- .... ....|--- .... ....|--- .... ....
....|..|--- .... ....|--- .... ....|--- .... ....
....|..|R-- .... ....|R-- .... ....|R-- .... ....
....|..|--- .... ....|R-- .... ....|A#4 .F.F ....
....|..|--- .... ....|--- .... ....|--- .... ....
....|..|--- .... ....|--- .... ....|--- .... ....
....|..|--- .... ....|R-- .... ....|--- .... ....
....|..|--- .... ....|D#3 .F4F ....|R-- .... ....
....|..|--- .... ....|--- .... ....|--- .... ....
....|..|--- .... ....|--- .... ....|--- .... ....
....|..|--- .... ....|--- .... ....|R-- .... ....
....|..|--- .... ....|G-3 .F27 ....|G-4 .F.F ....
....|..|--- .... ....|--- .... ....|--- .... ....
....|..|--- .... ....|--- .... ....|--- .... ....
....|..|R-- .... ....|R-- .... ....|R-- .... ....
....|..|--- .... ....|G-3 .F1F ....|C-5 .F.7 ....
....|..|--- .... ....|--- .... ....|--- .... ....
....|..|--- .... ....|--- .... ....|--- .... ....
....|..|--- .... ....|--- .... ....|R-- .... ....
....|..|--- .... ....|D#3 .F37 ....|F-4 .F.F ....
....|..|--- .... ....|--- .... ....|--- .... ....
....|..|--- .... ....|--- .... ....|G-4 .F.F ....
....|..|--- .... ....|R-- .... ....|R-- .... ....
....|..|--- .... ....|R-- .... ....|A#4 .F.F ....
....|..|--- .... ....|--- .... ....|--- .... ....
....|..|--- .... ....|--- .... ....|--- .... ....
....|..|R-- .... ....|R-- .... ....|R-- .... ....
....|..|--- .... ....|G-3 .F2F ....|A#4 .F.7 ....
....|..|--- .... ....|--- .... ....|--- .... ....
....|..|--- .... ....|--- .... ....|--- .... ....
....|..|--- .... ....|--- .... ....|R-- .... ....

[Pattern48]
....|..|--- .... ....|D#3 .F47 ....|D#4 .F.F ....
....|..|--- .... ....|--- .... ....|--- .... ....
....|..|--- .... ....|--- .... ....|G-4 .F.A ....
....|..|--- .... ....|R-- .... ....|R-- .... ....
....|..|--- .... ....|D#3 .F3F ....|G-4 .F.7 ....
....|..|--- .... ....|--- .... ....|--- .... ....
....|..|--- .... ....|--- .... ....|--- .... ....
....|..|--- .... ....|--- .... ....|R-- .... ....
....|..|--- .... ....|G-3 .F17 ....|D-4 .F.F ....
....|..|--- .... ....|--- .... ....|--- .... ....
....|..|--- .... ....|--- .... ....|D#4 .F.F ....
....|..|--- .... ....|R-- .... ....|R-- .... ....
....|..|--- .... ....|R-- .... ....|G-4 .F.F ....
....|..|--- .... ....|--- .... ....|--- .... ....
....|..|--- .... ....|--- .... ....|G-4 .F.7 ....
....|..|--- .... ....|R-- .... ....|--- .... ....
....|..|--- .... ....|D#3 .F4F ....|A#4 .F.7 ....
....|..|--- .... ....|--- .... ....|--- .... ....
....|..|--- .... ....|--- .... ....|--- .... ....
....|..|--- .... ....|--- .... ....|R-- .... ....
....|..|--- .... ....|G-3 .F27 ....|G-4 .F.F ....
....|..|--- .... ....|--- .... ....|--- .... ....
....|..|--- .... ....|--- .... ....|D#4 .F.A ....
....|..|--- .... ....|R-- .... ....|R-- .... ....
....|..|--- .... ....|G-3 .F1F ....|D#4 .F.7 ....
....|..|--- .... ....|--- .... ....|--- .... ....
....|..|--- .... ....|--- .... ....|--- .... ....
....|..|--- .... ....|--- .... ....|R-- .... ....
....|..|--- .... ....|D#3 .F37 ....|F-4 .F.F ....
....|..|--- .... ....|--- .... ....|--- .... ....
....|..|--- .... ....|--- .... ....|G-4 .F.F ....
....|..|--- .... ....|R-- .... ....|R-- .... ....
....|..|--- .... ....|R-- .... ....|A#4 .F.F ....
....|..|--- .... ....|--- .... ....|--- .... ....
....|..|--- .... ....|--- .... ....|D#4 .F.7 ....
....|..|--- .... ....|R-- .... ....|--- .... ....
....|..|--- .... ....|G-3 .F2F ....|G-4 .F.7 ....
....|..|--- .... ....|--- .... ....|--- .... ....
....|..|--- .... ....|--- .... ....|--- .... ....
....|..|--- .... ....|--- .... ....|R-- .... ....
....|..|--- .... ....|D#3 .F47 ....|D#4 .F.F ....
....|..|--- .... ....|--- .... ....|--- .... ....
....|..|--- .... ....|--- .... ....|G-4 .F.A ....
....|..|--- .... ....|R-- .... ....|R-- .... ....
....|..|--- .... ....|D#3 .F3F ....|G-4 .F.7 ....
....|..|--- .... ....|--- .... ....|--- .... ....
....|..|--- .... ....|--- .... ....|--- .... ....
....|..|--- .... ....|--- .... ....|R-- .... ....

[Pattern49]
....|..|--- .... ....|G-3 .F17 ....|D-4 .F.F ....
....|..|--- .... ....|--- .... ....|--- .... ....
....|..|--- .... ....|--- .... ....|D#4 .F.F ....
....|..|--- .... ....|R-- .... ....|R-- .... ....
....|..|--- .... ....|R-- .... ....|G-4 .F.F ....
....|..|--- .... ....|--- .... ....|--- .... ....
....|..|--- .... ....|--- .... ....|G-4 .F.7 ....
....|..|--- .... ....|R-- .... ....|--- .... ....
....|..|--- .... ....|D#3 .F4F ....|A#4 .F.7 ....
....|..|--- .... ....|--- .... ....|--- .... ....
....|..|--- .... ....|--- .... ....|--- .... ....
....|..|--- .... ....|--- .... ....|R-- .... ....
....|..|--- .... ....|G-3 .F27 ....|G-4 .F.F ....
....|..|--- .... ....|--- .... ....|--- .... ....
....|..|--- .... ....|--- .... ....|D#4 .F.A ....
....|..|--- .... ....|R-- .... ....|R-- .... ....
....|..|--- .... ....|G-3 .F1F ....|D#4 .F.7 ....
....|..|--- .... ....|--- .... ....|--- .... ....
....|..|--- .... ....|--- .... ....|--- .... ....
....|..|--- .... ....|--- .... ....|R-- .... ....
....|..|--- .... ....|D#3 .F37 ....|F-4 .F.F ....
....|..|--- .... ....|--- .... ....|--- .... ....
....|..|--- .... ....|--- .... ....|G-4 .F.F ....
....|..|--- .... ....|R-- .... ....|R-- .... ....
....|..|--- .... ....|R-- .... ....|A#4 .F.F ....
....|..|--- .... ....|--- .... ....|--- .... ....
....|..|--- .... ....|--- .... ....|D#4 .F.7 ....
....|..|--- .... ....|R-- .... ....|--- .... ....
....|..|--- .... ....|G-3 .F2F ....|G-4 .F.7 ....
....|..|--- .... ....|--- .... ....|--- .... ....
....|..|--- .... ....|--- .... ....|--- .... ....
....|..|--- .... ....|--- .... ....|R-- .... ....
....|..|--- .... ....|D#3 .F47 ....|D#4 .F.F ....
....|..|--- .... ....|--- .... ....|--- .... ....
....|..|--- .... ....|--- .... ....|G-4 .F.A ....
....|..|--- .... ....|R-- .... ....|R-- .... ....
....|..|--- .... ....|D#3 .F3F ....|G-4 .F.7 ....
....|..|--- .... ....|--- .... ....|--- .... ....
....|..|--- .... ....|--- .... ....|--- .... ....
....|..|--- .... ....|--- .... ....|R-- .... ....
....|..|--- .... ....|G-3 .F17 ....|D-4 .F.F ....
....|..|--- .... ....|--- .... ....|--- .... ....
....|..|--- .... ....|--- .... ....|--- .... ....
....|..|--- .... ....|R-- .... ....|R-- .... ....
....|..|--- .... ....|R-- .... ....|D#4 .F.F ....
....|..|--- .... ....|--- .... ....|--- .... ....
....|..|--- .... ....|--- .... ....|G-4 .F.7 ....
....|..|--- .... ....|R-- .... ....|--- .... ....

[Pattern50]
....|..|--- .... ....|D#3 .F4F ....|A#4 .F.7 ....
....|..|--- .... ....|--- .... ....|--- .... ....
....|..|--- .... ....|--- .... ....|--- .... ....
....|..|--- .... ....|--- .... ....|R-- .... ....
....|..|--- .... ....|G-3 .F27 ....|D-4 .F.A ....
....|..|--- .... ....|--- .... ....|--- .... ....
....|..|--- .... ....|--- .... ....|--- .... ....
....|..|--- .... ....|R-- .... ....|R-- .... ....
....|..|--- .... ....|G-3 .F1F ....|D#4 .F.7 ....
....|..|--- .... ....|--- .... ....|--- .... ....
....|..|--- .... ....|--- .... ....|--- .... ....
....|..|--- .... ....|--- .... ....|--- .... ....
....|..|--- .... ....|D#3 .F37 ....|--- .... ....
....|..|--- .... ....|--- .... ....|--- .... ....
....|..|--- .... ....|--- .... ....|--- .... ....
....|..|--- .... ....|R-- .... ....|R-- .... ....
....|..|--- .... ....|R-- .... ....|D-4 .F.7 ....
....|..|--- .... ....|--- .... ....|--- .... ....
....|..|--- .... ....|--- .... ....|--- .... ....
....|..|--- .... ....|R-- .... ....|--- .... ....
....|..|--- .... ....|G-3 .F2F ....|D#4 .F.7 ....
....|..|--- .... ....|--- .... ....|--- .... ....
....|..|--- .... ....|--- .... ....|--- .... ....
....|..|--- .... ....|--- .... ....|--- .... ....
....|..|--- .... ....|D#3 .F47 ....|--- .... ....
....|..|--- .... ....|--- .... ....|--- .... ....
....|..|--- .... ....|--- .... ....|--- .... ....
....|..|--- .... ....|R-- .... ....|R-- .... ....
....|..|--- .... ....|D#3 .F3F ....|--- .... ....
....|..|--- .... ....|--- .... ....|--- .... ....
....|..|--- .... ....|--- .... ....|--- .... ....
....|..|--- .... ....|--- .... ....|--- .... ....
....|..|--- .... ....|G-3 .F17 ....|--- .... ....
....|..|--- .... ....|--- .... ....|--- .... ....
....|..|--- .... ....|--- .... ....|--- .... ....
....|..|--- .... ....|R-- .... ....|--- .... ....
....|..|--- .... ....|R-- .... ....|--- .... ....
....|..|--- .... ....|--- .... ....|--- .... ....
....|..|--- .... ....|--- .... ....|--- .... ....
....|..|--- .... ....|R-- .... ....|--- .... ....
....|..|--- .... ....|D#3 .F4F ....|--- .... ....
....|..|--- .... ....|--- .... ....|--- .... ....
....|..|--- .... ....|--- .... ....|--- .... ....
....|..|--- .... ....|--- .... ....|--- .... ....
....|..|--- .... ....|G-3 .F27 ....|--- .... ....
....|..|--- .... ....|--- .... ....|--- .... ....
....|..|--- .... ....|--- .... ....|--- .... ....
....|..|--- .... ....|R-- .... ....|--- .... ....

[Pattern51]
....|..|--- .... ....|G-3 .F1F ....|--- .... ....
....|..|--- .... ....|--- .... ....|--- .... ....
....|..|--- .... ....|--- .... ....|--- .... ....
....|..|--- .... ....|--- .... ....|--- .... ....
....|..|--- .... ....|D#3 .F37 ....|--- .... ....
....|..|--- .... ....|--- .... ....|--- .... ....
....|..|--- .... ....|--- .... ....|--- .... ....
....|..|--- .... ....|R-- .... ....|--- .... ....
....|..|--- .... ....|R-- .... ....|--- .... ....
....|..|--- .... ....|--- .... ....|--- .... ....
....|..|--- .... ....|--- .... ....|--- .... ....
....|..|--- .... ....|R-- .... ....|--- .... ....
....|..|--- .... ....|G-3 .F2F ....|--- .... ....
....|..|--- .... ....|--- .... ....|--- .... ....
....|..|--- .... ....|--- .... ....|--- .... ....
....|..|--- .... ....|--- .... ....|--- .... ....
....|..|--- .... ....|D#3 .F47 ....|--- .... ....
....|..|--- .... ....|--- .... ....|--- .... ....
....|..|--- .... ....|--- .... ....|--- .... ....
....|..|--- .... ....|R-- .... ....|--- .... ....
....|..|--- .... ....|D#3 .F3F ....|--- .... ....
....|..|--- .... ....|--- .... ....|--- .... ....
....|..|--- .... ....|--- .... ....|--- .... ....
....|..|--- .... ....|--- .... ....|--- .... ....
....|..|--- .... ....|G-3 .F17 ....|--- .... ....
....|..|--- .... ....|--- .... ....|--- .... ....
....|..|--- .... ....|--- .... ....|--- .... ....
....|..|--- .... ....|R-- .... ....|--- .... ....
....|..|--- .... ....|R-- .... ....|--- .... ....
....|..|--- .... ....|--- .... ....|--- .... ....
....|..|--- .... ....|--- .... ....|--- .... ....
....|..|--- .... ....|R-- .... ....|--- .... ....
....|..|--- .... ....|D#3 .F.F ....|--- .... ....
....|..|--- .... ....|D#3 .F8F ....|--- .... ....
....|..|--- .... ....|D#3 .F4F ....|--- .... ....
....|..|--- .... ....|--- .... ....|--- .... ....
....|..|--- .... ....|G-3 .F27 ....|--- .... ....
....|..|--- .... ....|--- .... ....|--- .... ....
....|..|--- .... ....|--- .... ....|--- .... ....
....|..|--- .... ....|R-- .... ....|--- .... ....
....|..|--- .... ....|R-- .... ....|--- .... ....
....|..|--- .... ....|--- .... ....|--- .... ....
....|..|--- .... ....|--- .... ....|--- .... ....
....|..|--- .... ....|--- .... ....|--- .... ....
....|..|--- .... ....|D#3 .F37 ....|--- .... ....
....|..|--- .... ....|D#3 .F8A ....|--- .... ....
....|..|--- .... ....|D#3 .F4A ....|--- .... ....
....|..|--- .... ....|--- .... ....|--- .... ....

[Pattern52]
....|..|--- .... ....|R-- .... ....|--- .... ....
....|..|--- .... ....|--- .... ....|--- .... ....
....|..|--- .... ....|--- .... ....|--- .... ....
....|..|--- .... ....|R-- .... ....|--- .... ....
....|..|--- .... ....|--- .... ....|--- .... ....
....|..|--- .... ....|--- .... ....|--- .... ....
....|..|--- .... ....|--- .... ....|--- .... ....
....|..|--- .... ....|--- .... ....|--- .... ....
....|..|--- .... ....|D#3 .F.7 ....|--- .... ....
....|..|--- .... ....|D#3 .F87 ....|--- .... ....
....|..|--- .... ....|D#3 .F47 ....|--- .... ....
....|..|--- .... ....|--- .... ....|--- .... ....
....|..|--- .... ....|R-- .... ....|--- .... ....
....|..|--- .... ....|--- .... ....|--- .... ....
....|..|--- .... ....|--- .... ....|--- .... ....
....|..|--- .... ....|--- .... ....|--- .... ....
....|..|--- .... ....|--- .... ....|--- .... ....
....|..|--- .... ....|--- .... ....|--- .... ....
....|..|--- .... ....|--- .... ....|--- .... ....
....|..|--- .... ....|--- .... ....|--- .... ....
....|..|--- .... ....|--- .... ....|--- .... ....
....|..|--- .... ....|--- .... ....|--- .... ....
....|..|--- .... ....|--- .... ....|--- .... ....
....|..|--- .... ....|--- .... ....|--- .... ....
