[Module]
VortexTrackerII=0
Version=3.5
Title=ya soshla s uma.mid
Author=oisee ^ 4d 29.05.2010
NoteTable=4
ChipFreq=1750000
Speed=4
PlayOrder=L0,1,2,3,4,5,6,7,8,9,10,11,12,13,14,15,0,0,18,19,20,21,22,23,12,25,26,27,28,29,30,31,32,33,34,35,12,25,38,39,40


[Ornament1]
L0,0,2,2

[Ornament2]
L0,0,4,4

[Ornament3]
L0,0,5,5

[Ornament4]
L0,0,8,8

[Ornament5]
L0,0,4,4,7,7

[Ornament6]
L0,0,7,7

[Ornament7]
L0,0,5,5,8,8

[Ornament8]
L0,0,4,4,9,9

[Ornament9]
L0,0,3,3

[Ornament10]
L0,0,3,3,7,7


[Sample1]
TnE +000_ +00_ F_
TnE +000_ +00_ F_
TnE +000_ +00_ F_
TnE +000_ +00_ D_
TnE +000_ +00_ B_
TnE +000_ +00_ B_ L

[Sample2]
TnE +000_ +00_ F_ L

[Sample3]
TnE +001_ +00_ F_
TnE +002_ +00_ F_
TnE +001_ +00_ E_
TnE +002_ +00_ E_
TnE +000_ +00_ E_ L
TnE -001_ +00_ E_
TnE -002_ +00_ E_
TnE -001_ +00_ E_
TnE +000_ +00_ E_
TnE +001_ +00_ E_
TnE +002_ +00_ E_
TnE +001_ +00_ E_

[Sample4]
TnE +002_ +00_ D_
TnE +002_ +00_ D_
TnE +002_ +00_ C_
TnE +002_ +00_ B_
TnE +002_ +00_ A_ L
TnE +002_ +00_ A_
TnE +002_ +00_ A_
TnE +002_ +00_ A_
TnE +002_ +00_ A_
TnE +002_ +00_ A_
TnE +002_ +00_ A_
TnE +002_ +00_ A_

[Sample5]
TnE +000_ +00_ F_
TnE +000_ +00_ F_
tne +000_ +00_ 0_ L

[Sample6]
TnE -001_ +00_ F_ L

[Sample7]
TnE +006_ +00_ F_ L

[Sample8]
tNe +000_ +00_ F_
tNe +000_ +00_ B_
tNe +000_ +00_ 7_
tNe +000_ +00_ 6- L

[Sample9]
TnE +080_ +00_ F_
TnE +100_ +00_ E_
TnE +180_ +00_ E_
TnE +200_ +00_ E_
TnE +240_ +00_ D_
TnE +280_ +00_ D_
TnE +2C0_ +00_ D_
TnE +300_ +00_ C_
TnE +300_ +00_ C_
TnE +340_ +00_ C_
TnE +340_ +00_ C_
TnE +380_ +00_ B_
TnE +380_ +00_ B_
TnE +400_ +00_ B_
TnE +400_ +00_ B_
TnE +480_ +00_ A_
TnE +500_ +00_ 9_
TnE +580_ +00_ 7_
TnE +600_ +00_ 4_
TnE +680_ +00_ 1_
TnE +000_ +00_ 0_ L

[Sample10]
Tne +1C0_ +00_ F_
Tne +280_ +00_ E_
Tne +380_ +00_ C_
Tne +440_ +00_ A_
Tne +480_ +00_ 8_
TnE +000_ +00_ 0_ L

[Sample11]
TNe +200_ -0A_ F_
tNe +000_ +0F_ A_
TNe +200_ -07_ E_
tNe +000_ +0E_ B- L

[Sample12]
TNE +0A0_ +05_ F_
TNE +140_ +02_ D_
TNE +140_ +02_ B_
TNE +100_ +00_ A_ L
TNE +140_ +00_ A_
TNE +200_ +00_ A-

[Sample13]
Tne +200_ +00_ F_
Tne +2C0_ +00_ F_
Tne +380_ +00_ E_
Tne +500_ +00_ C_
Tne +520_ +00_ 9_
tne +000_ +00_ 0_ L

[Sample14]
TNE -100_ +00_ F_
TNE -100_ +00_ D_
TNE -100_ +00_ A_
TNE -100_ +00_ 5_
tne +000_ +00_ 0_ L

[Sample15]
TNE -100_ +00_ 5_
TNE -100_ +00_ 8_
TNE -100_ +00_ B_
TNE -100_ +00_ F_
TNe -100_ +00_ 9- L

[Sample16]
TnE +000_ +00_ C_
TnE +000_ +00_ E_
TnE +000_ +00_ F_
TnE +000_ +00_ F_
TnE +000_ +00_ E_
TnE +000_ +00_ D_
TnE +000_ +00_ C_
TnE +000_ +00_ C_ L
TnE +001_ +00_ C_
TnE +002_ +00_ C_
TnE +003_ +00_ C_
TnE +001_ +00_ C_
TnE +000_ +00_ C_
TnE -001_ +00_ C_
TnE -002_ +00_ C_
TnE -003_ +00_ C_
TnE -001_ +00_ C_
TnE +000_ +00_ C_
TnE +000_ +00_ C_

[Sample17]
Tne +1C0_ +00_ F_
Tne +280_ +00_ D_
Tne +380_ +00_ 7_
TNE +000_ +00_ 0_ L

[Sample18]
tnE +000_ +00_ 0_ L

[Sample19]
TNe +000_ +00_ F_
TNe +000_ +00_ C_
TNe +000_ +00_ 6_
TNe +000_ +01_ A- L

[Sample20]
TNE +140_ +00_ F_
tNE +000_ +00_ B- L

[Sample21]
tNE +000_ +00_ D_
tNE +000_ +00_ 8_
tNE +000_ +00_ 1_
TNE +000_ +00_ 0_ L

[Sample22]
TnE +000_ +00_ D_ L
TnE +000_ +00_ D_
tne +000_ +00_ 9_
tne +000_ +00_ 9_
TnE +000_ +00_ D_
TnE +000_ +00_ D_
tne +000_ +00_ 9_
tne +000_ +00_ 9_
TnE +000_ +00_ D_
TnE +000_ +00_ D_
TnE +000_ +00_ D_
TnE +000_ +00_ D_
TnE +000_ +00_ D_
TnE +000_ +00_ D_
tne +000_ +00_ 9_
tne +000_ +00_ 9_

[Sample23]
TnE +000_ +00_ F_ L
TnE +010_ +01_ F_
TnE +010_ +01_ F_
TnE +010_ +01_ F_
TnE +010_ +01_ F_
TnE +000_ +00_ F_
TnE +000_ +00_ F_
TnE -010_ -01_ F_
TnE -010_ -01_ F_
TnE -010_ -01_ F_
TnE -010_ -01_ F_
TnE +000_ +00_ F_

[Sample24]
TNe +000_ -01_ C_
TNe +000_ -01_ D_
TNe +000_ -01_ E_
TNe +000_ -01_ F_
TNe +000_ -01_ F_
TNe +000_ -01_ F_
TNe +000_ -01_ F_
TNe +000_ -01_ F_
TNe +000_ -01_ E_
TNe +000_ -01_ E_
TNe +000_ -01_ E_
TNe +000_ -01_ F_
TNe +000_ -01_ F_ L

[Sample25]
TNE +000_ +00_ F_
TNE +000_ +00_ F_ L
TNE +000_ +00_ F_
TNE +000_ +00_ F_
TNE +000_ +00_ F-

[Sample26]
tne +000_ +00_ 0_ L

[Sample27]
tne +000_ +00_ 0_ L

[Sample28]
tne +000_ +00_ 0_ L

[Sample29]
tne +000_ +00_ 0_ L

[Sample30]
TNE +000_ +00_ C+ L

[Sample31]
TNe +1C0_ +00_ F_
Tne +280_ +00_ E_
Tne +380_ +00_ C_
Tne +440_ +00_ A_
Tne +480_ +00_ 8_
TnE +000_ +00_ 0_ L

[Pattern0]
....|..|--- .... ....|--- .... ....|--- .... ....
....|..|--- .... ....|--- .... ....|--- .... ....
....|..|--- .... ....|--- .... ....|--- .... ....
....|..|--- .... ....|--- .... ....|--- .... ....
....|..|--- .... ....|--- .... ....|--- .... ....
....|..|--- .... ....|--- .... ....|--- .... ....
....|..|--- .... ....|--- .... ....|--- .... ....
....|..|--- .... ....|--- .... ....|--- .... ....
....|..|--- .... ....|--- .... ....|--- .... ....
....|..|--- .... ....|--- .... ....|--- .... ....
....|..|--- .... ....|--- .... ....|--- .... ....
....|..|--- .... ....|--- .... ....|--- .... ....
....|..|--- .... ....|--- .... ....|--- .... ....
....|..|--- .... ....|--- .... ....|--- .... ....
....|..|--- .... ....|--- .... ....|--- .... ....
....|..|--- .... ....|--- .... ....|--- .... ....
....|..|--- .... ....|--- .... ....|--- .... ....
....|..|--- .... ....|--- .... ....|--- .... ....
....|..|--- .... ....|--- .... ....|--- .... ....
....|..|--- .... ....|--- .... ....|--- .... ....
....|..|--- .... ....|--- .... ....|--- .... ....
....|..|--- .... ....|--- .... ....|--- .... ....
....|..|--- .... ....|--- .... ....|--- .... ....
....|..|--- .... ....|--- .... ....|--- .... ....
....|..|--- .... ....|--- .... ....|--- .... ....
....|..|--- .... ....|--- .... ....|--- .... ....
....|..|--- .... ....|--- .... ....|--- .... ....
....|..|--- .... ....|--- .... ....|--- .... ....
....|..|--- .... ....|--- .... ....|--- .... ....
....|..|--- .... ....|--- .... ....|--- .... ....
....|..|--- .... ....|--- .... ....|--- .... ....
....|..|--- .... ....|--- .... ....|--- .... ....
....|..|--- .... ....|--- .... ....|--- .... ....
....|..|--- .... ....|--- .... ....|--- .... ....
....|..|--- .... ....|--- .... ....|--- .... ....
....|..|--- .... ....|--- .... ....|--- .... ....
....|..|--- .... ....|--- .... ....|--- .... ....
....|..|--- .... ....|--- .... ....|--- .... ....
....|..|--- .... ....|--- .... ....|--- .... ....
....|..|--- .... ....|--- .... ....|--- .... ....
....|..|--- .... ....|--- .... ....|--- .... ....
....|..|--- .... ....|--- .... ....|--- .... ....
....|..|--- .... ....|--- .... ....|--- .... ....
....|..|--- .... ....|--- .... ....|--- .... ....
....|..|--- .... ....|--- .... ....|--- .... ....
....|..|--- .... ....|--- .... ....|--- .... ....
....|..|--- .... ....|--- .... ....|--- .... ....
....|..|--- .... ....|--- .... ....|--- .... ....
....|..|--- .... ....|--- .... ....|--- .... ....
....|..|--- .... ....|--- .... ....|--- .... ....
....|..|--- .... ....|--- .... ....|--- .... ....
....|..|--- .... ....|--- .... ....|--- .... ....
....|..|--- .... ....|--- .... ....|--- .... ....
....|..|--- .... ....|--- .... ....|--- .... ....
....|..|--- .... ....|--- .... ....|--- .... ....
....|..|--- .... ....|--- .... ....|--- .... ....
....|..|--- .... ....|--- .... ....|--- .... ....
....|..|--- .... ....|--- .... ....|--- .... ....
....|..|--- .... ....|--- .... ....|--- .... ....
....|..|--- .... ....|--- .... ....|--- .... ....
....|..|--- .... ....|--- .... ....|--- .... ....
....|..|--- .... ....|--- .... ....|--- .... ....
....|..|--- .... ....|--- .... ....|--- .... ....
....|..|--- .... ....|--- .... ....|--- .... ....

[Pattern1]
....|..|--- .... ....|--- .... ....|G-3 .F7F ....
....|..|--- .... ....|--- .... ....|--- .... ....
....|..|--- .... ....|--- .... ....|--- .... ....
....|..|--- .... ....|--- .... ....|--- .... ....
....|..|--- .... ....|--- .... ....|--- .... ....
....|..|--- .... ....|--- .... ....|--- .... ....
....|..|--- .... ....|--- .... ....|--- .... ....
....|..|--- .... ....|--- .... ....|--- .... ....
....|..|--- .... ....|--- .... ....|--- .... ....
....|..|--- .... ....|--- .... ....|--- .... ....
....|..|--- .... ....|--- .... ....|--- .... ....
....|..|--- .... ....|--- .... ....|--- .... ....
....|..|--- .... ....|--- .... ....|G-3 .F7A ....
....|..|--- .... ....|--- .... ....|--- .... ....
....|..|--- .... ....|--- .... ....|--- .... ....
....|..|--- .... ....|--- .... ....|--- .... ....
....|..|--- .... ....|--- .... ....|D-3 .F5F ....
....|..|--- .... ....|--- .... ....|--- .... ....
....|..|--- .... ....|--- .... ....|--- .... ....
....|..|--- .... ....|--- .... ....|--- .... ....
....|..|--- .... ....|--- .... ....|--- .... ....
....|..|--- .... ....|--- .... ....|--- .... ....
....|..|--- .... ....|--- .... ....|--- .... ....
....|..|--- .... ....|--- .... ....|--- .... ....
....|..|--- .... ....|--- .... ....|G-3 .F77 ....
....|..|--- .... ....|--- .... ....|--- .... ....
....|..|--- .... ....|--- .... ....|--- .... ....
....|..|--- .... ....|--- .... ....|--- .... ....
....|..|--- .... ....|--- .... ....|D-3 .F5A ....
....|..|--- .... ....|--- .... ....|--- .... ....
....|..|--- .... ....|--- .... ....|--- .... ....
....|..|--- .... ....|--- .... ....|--- .... ....
....|..|--- .... ....|--- .... ....|D-3 .F7F ....
....|..|--- .... ....|--- .... ....|--- .... ....
....|..|--- .... ....|--- .... ....|--- .... ....
....|..|--- .... ....|--- .... ....|--- .... ....
....|..|--- .... ....|--- .... ....|--- .... ....
....|..|--- .... ....|--- .... ....|--- .... ....
....|..|--- .... ....|--- .... ....|--- .... ....
....|..|--- .... ....|--- .... ....|--- .... ....
....|..|--- .... ....|--- .... ....|D-3 .F57 ....
....|..|--- .... ....|--- .... ....|--- .... ....
....|..|--- .... ....|--- .... ....|--- .... ....
....|..|--- .... ....|--- .... ....|--- .... ....
....|..|--- .... ....|--- .... ....|D-3 .F7A ....
....|..|--- .... ....|--- .... ....|--- .... ....
....|..|--- .... ....|--- .... ....|--- .... ....
....|..|--- .... ....|--- .... ....|--- .... ....
....|..|--- .... ....|--- .... ....|D#3 .F5F ....
....|..|--- .... ....|--- .... ....|--- .... ....
....|..|--- .... ....|--- .... ....|--- .... ....
....|..|--- .... ....|--- .... ....|--- .... ....
....|..|--- .... ....|--- .... ....|--- .... ....
....|..|--- .... ....|--- .... ....|--- .... ....
....|..|--- .... ....|--- .... ....|--- .... ....
....|..|--- .... ....|--- .... ....|--- .... ....
....|..|--- .... ....|--- .... ....|D-3 .F77 ....
....|..|--- .... ....|--- .... ....|--- .... ....
....|..|--- .... ....|--- .... ....|--- .... ....
....|..|--- .... ....|--- .... ....|--- .... ....
....|..|--- .... ....|--- .... ....|D#3 .F5A ....
....|..|--- .... ....|--- .... ....|--- .... ....
....|..|--- .... ....|--- .... ....|--- .... ....
....|..|--- .... ....|--- .... ....|--- .... ....

[Pattern2]
....|..|--- .... ....|--- .... ....|--- .... ....
....|..|--- .... ....|--- .... ....|--- .... ....
....|..|--- .... ....|--- .... ....|--- .... ....
....|..|--- .... ....|--- .... ....|--- .... ....
....|..|--- .... ....|--- .... ....|--- .... ....
....|..|--- .... ....|--- .... ....|--- .... ....
....|..|--- .... ....|--- .... ....|--- .... ....
....|..|--- .... ....|--- .... ....|--- .... ....
....|..|--- .... ....|--- .... ....|D#3 .F57 ....
....|..|--- .... ....|--- .... ....|--- .... ....
....|..|--- .... ....|--- .... ....|--- .... ....
....|..|--- .... ....|--- .... ....|--- .... ....
....|..|--- .... ....|--- .... ....|--- .... ....
....|..|--- .... ....|--- .... ....|--- .... ....
....|..|--- .... ....|--- .... ....|--- .... ....
....|..|--- .... ....|--- .... ....|--- .... ....
....|..|A#4 .F.F ....|--- .... ....|D#3 .F8F ....
....|..|--- .... ....|--- .... ....|--- .... ....
....|..|A#4 .F.F ....|--- .... ....|--- .... ....
....|..|--- .... ....|--- .... ....|--- .... ....
....|..|A#4 .F.F ....|--- .... ....|--- .... ....
....|..|--- .... ....|--- .... ....|--- .... ....
....|..|A#4 .F.F ....|--- .... ....|--- .... ....
....|..|--- .... ....|--- .... ....|--- .... ....
....|..|A#4 .F.F ....|--- .... ....|--- .... ....
....|..|--- .... ....|--- .... ....|--- .... ....
....|..|R-- .... ....|--- .... ....|--- .... ....
....|..|--- .... ....|--- .... ....|--- .... ....
....|..|A#4 .F.F ....|--- .... ....|D#3 .F8A ....
....|..|--- .... ....|--- .... ....|--- .... ....
....|..|A#4 .F.F ....|--- .... ....|--- .... ....
....|..|--- .... ....|--- .... ....|--- .... ....
....|..|A-4 .F.F ....|--- .... ....|D-3 .F5F ....
....|..|--- .... ....|--- .... ....|--- .... ....
....|..|A-4 .F.F ....|--- .... ....|--- .... ....
....|..|--- .... ....|--- .... ....|--- .... ....
....|..|A-4 .F.F ....|--- .... ....|--- .... ....
....|..|--- .... ....|--- .... ....|--- .... ....
....|..|R-- .... ....|--- .... ....|--- .... ....
....|..|--- .... ....|--- .... ....|--- .... ....
....|..|A-4 .F.F ....|--- .... ....|D#3 .F87 ....
....|..|--- .... ....|--- .... ....|--- .... ....
....|..|G-4 .F.F ....|--- .... ....|--- .... ....
....|..|--- .... ....|--- .... ....|--- .... ....
....|..|A-4 .F.F ....|--- .... ....|D-3 .F5A ....
....|..|--- .... ....|--- .... ....|--- .... ....
....|..|G-4 .F.F ....|--- .... ....|--- .... ....
....|..|--- .... ....|--- .... ....|--- .... ....
....|..|A#4 .F.F ....|--- .... ....|D-3 .F7F ....
....|..|--- .... ....|--- .... ....|--- .... ....
....|..|R-- .... ....|--- .... ....|--- .... ....
....|..|--- .... ....|--- .... ....|--- .... ....
....|..|A#4 .F.F ....|--- .... ....|--- .... ....
....|..|--- .... ....|--- .... ....|--- .... ....
....|..|A#4 .F.F ....|--- .... ....|--- .... ....
....|..|--- .... ....|--- .... ....|--- .... ....
....|..|A#4 .F.F ....|--- .... ....|D-3 .F57 ....
....|..|--- .... ....|--- .... ....|--- .... ....
....|..|A-4 .F.F ....|--- .... ....|--- .... ....
....|..|--- .... ....|--- .... ....|--- .... ....
....|..|A#4 .F.F ....|--- .... ....|D-3 .F7A ....
....|..|--- .... ....|--- .... ....|--- .... ....
....|..|R-- .... ....|--- .... ....|--- .... ....
....|..|--- .... ....|--- .... ....|--- .... ....

[Pattern3]
....|..|D-5 .F.F ....|--- .... ....|D#3 .F5F ....
....|..|--- .... ....|--- .... ....|--- .... ....
....|..|D-5 .F.F ....|--- .... ....|--- .... ....
....|..|--- .... ....|--- .... ....|--- .... ....
....|..|D-5 .F.F ....|--- .... ....|--- .... ....
....|..|--- .... ....|--- .... ....|--- .... ....
....|..|C-5 .F.F ....|--- .... ....|--- .... ....
....|..|--- .... ....|--- .... ....|--- .... ....
....|..|D-5 .F.F ....|--- .... ....|D-3 .F77 ....
....|..|--- .... ....|--- .... ....|--- .... ....
....|..|R-- .... ....|--- .... ....|--- .... ....
....|..|--- .... ....|--- .... ....|--- .... ....
....|..|A#4 .F.7 ....|--- .... ....|D#3 .F5A ....
....|..|--- .... ....|--- .... ....|--- .... ....
....|..|A#4 .F.7 ....|--- .... ....|--- .... ....
....|..|--- .... ....|--- .... ....|--- .... ....
....|..|A#4 .F.F ....|--- .... ....|D#3 .F8F ....
....|..|--- .... ....|--- .... ....|--- .... ....
....|..|A#4 .F.F ....|--- .... ....|--- .... ....
....|..|--- .... ....|--- .... ....|--- .... ....
....|..|A#4 .F.F ....|--- .... ....|--- .... ....
....|..|--- .... ....|--- .... ....|--- .... ....
....|..|A#4 .F.F ....|--- .... ....|--- .... ....
....|..|--- .... ....|--- .... ....|--- .... ....
....|..|A#4 .F.F ....|--- .... ....|D#3 .F57 ....
....|..|--- .... ....|--- .... ....|--- .... ....
....|..|D-5 .F.7 ....|--- .... ....|--- .... ....
....|..|--- .... ....|--- .... ....|--- .... ....
....|..|A#4 .F.F ....|--- .... ....|D#3 .F8A ....
....|..|--- .... ....|--- .... ....|--- .... ....
....|..|A#4 .F.F ....|--- .... ....|--- .... ....
....|..|--- .... ....|--- .... ....|--- .... ....
....|..|A-4 .F.F ....|--- .... ....|D-3 .F5F ....
....|..|--- .... ....|--- .... ....|--- .... ....
....|..|A-4 .F.F ....|--- .... ....|--- .... ....
....|..|--- .... ....|--- .... ....|--- .... ....
....|..|A-4 .F.F ....|--- .... ....|--- .... ....
....|..|--- .... ....|--- .... ....|--- .... ....
....|..|R-- .... ....|--- .... ....|--- .... ....
....|..|--- .... ....|--- .... ....|--- .... ....
....|..|A-4 .F.F ....|--- .... ....|D#3 .F87 ....
....|..|--- .... ....|--- .... ....|--- .... ....
....|..|G-4 .F.F ....|--- .... ....|--- .... ....
....|..|--- .... ....|--- .... ....|--- .... ....
....|..|A-4 .F.F ....|--- .... ....|D-3 .F5A ....
....|..|--- .... ....|--- .... ....|--- .... ....
....|..|G-4 .F.F ....|--- .... ....|--- .... ....
....|..|--- .... ....|--- .... ....|--- .... ....
....|..|A#4 .F.F ....|--- .... ....|D-3 .F7F ....
....|..|--- .... ....|--- .... ....|--- .... ....
....|..|R-- .... ....|--- .... ....|--- .... ....
....|..|--- .... ....|--- .... ....|--- .... ....
....|..|A#4 .F.F ....|--- .... ....|--- .... ....
....|..|--- .... ....|--- .... ....|--- .... ....
....|..|A#4 .F.F ....|--- .... ....|--- .... ....
....|..|--- .... ....|--- .... ....|--- .... ....
....|..|A#4 .F.F ....|--- .... ....|D-3 .F57 ....
....|..|--- .... ....|--- .... ....|--- .... ....
....|..|A-4 .F.F ....|--- .... ....|--- .... ....
....|..|--- .... ....|--- .... ....|--- .... ....
....|..|A#4 .F.F ....|--- .... ....|D-3 .F7A ....
....|..|--- .... ....|--- .... ....|--- .... ....
....|..|R-- .... ....|--- .... ....|--- .... ....
....|..|--- .... ....|--- .... ....|--- .... ....

[Pattern4]
....|..|D-5 .F.F ....|--- .... ....|D#3 .F5F ....
....|..|--- .... ....|--- .... ....|--- .... ....
....|..|D-5 .F.F ....|--- .... ....|--- .... ....
....|..|--- .... ....|--- .... ....|--- .... ....
....|..|D-5 .F.F ....|--- .... ....|--- .... ....
....|..|--- .... ....|--- .... ....|--- .... ....
....|..|C-5 .F.F ....|--- .... ....|--- .... ....
....|..|--- .... ....|--- .... ....|--- .... ....
....|..|D-5 .F.F ....|--- .... ....|D-3 .F77 ....
....|..|--- .... ....|--- .... ....|--- .... ....
....|..|R-- .... ....|--- .... ....|--- .... ....
....|..|--- .... ....|--- .... ....|--- .... ....
....|..|A#4 .F.7 ....|--- .... ....|D#3 .F5A ....
....|..|--- .... ....|--- .... ....|--- .... ....
....|..|A#4 .F.7 ....|--- .... ....|--- .... ....
....|..|--- .... ....|--- .... ....|--- .... ....
....|..|A#4 .F.F ....|--- .... ....|D#3 .F8F ....
....|..|--- .... ....|--- .... ....|--- .... ....
....|..|A-4 .F.7 ....|G-3 .F.F ....|--- .... ....
....|..|--- .... ....|--- .... ....|--- .... ....
....|..|A#4 .F.7 ....|G-3 .F3F ....|--- .... ....
....|..|--- .... ....|--- .... ....|--- .... ....
....|..|R-- .... ....|D#4 .F.F ....|--- .... ....
....|..|--- .... ....|--- .... ....|--- .... ....
....|..|A#4 .F.F ....|--- .... ....|D#3 .F57 ....
....|..|--- .... ....|--- .... ....|--- .... ....
....|..|D-5 .F.7 ....|G-3 .F.F ....|--- .... ....
....|..|--- .... ....|--- .... ....|--- .... ....
....|..|D-5 .F.7 ....|G-3 .F3F ....|D#3 .F8A ....
....|..|--- .... ....|--- .... ....|--- .... ....
....|..|C-5 .F.7 ....|D#4 .F.F ....|--- .... ....
....|..|--- .... ....|--- .... ....|--- .... ....
....|..|C-5 .F.F ....|R-- .... ....|D-3 .F5F ....
....|..|--- .... ....|--- .... ....|--- .... ....
....|..|R-- .... ....|D-3 .F.F ....|--- .... ....
....|..|--- .... ....|--- .... ....|--- .... ....
....|..|R-- .... ....|D-3 .F2F ....|--- .... ....
....|..|--- .... ....|--- .... ....|--- .... ....
....|..|R-- .... ....|A-3 .F.F ....|--- .... ....
....|..|--- .... ....|--- .... ....|--- .... ....
....|..|C-5 .F.F ....|G-3 .F3A ....|D#3 .F87 ....
....|..|--- .... ....|--- .... ....|--- .... ....
....|..|R-- .... ....|D-3 .F.F ....|--- .... ....
....|..|--- .... ....|--- .... ....|--- .... ....
....|..|C-5 .F.F ....|D-3 .F2F ....|D-3 .F5A ....
....|..|--- .... ....|--- .... ....|--- .... ....
....|..|R-- .... ....|A-3 .F.F ....|--- .... ....
....|..|--- .... ....|--- .... ....|--- .... ....
....|..|A#4 .F.7 ....|R-- .... ....|D-3 .F7F ....
....|..|--- .... ....|--- .... ....|--- .... ....
....|..|R-- .... ....|D-3 .F.F ....|--- .... ....
....|..|--- .... ....|--- .... ....|--- .... ....
....|..|A#4 .F.F ....|G-3 .F.F ....|--- .... ....
....|..|--- .... ....|--- .... ....|--- .... ....
....|..|R-- .... ....|A#3 .F.F ....|--- .... ....
....|..|--- .... ....|--- .... ....|--- .... ....
....|..|C-5 .F.7 ....|R-- .... ....|D-3 .F57 ....
....|..|--- .... ....|--- .... ....|--- .... ....
....|..|--- .... ....|D-3 .F.F ....|--- .... ....
....|..|--- .... ....|--- .... ....|--- .... ....
....|..|A#4 .F.F ....|D-3 .F3F ....|D-3 .F7A ....
....|..|--- .... ....|--- .... ....|--- .... ....
....|..|R-- .... ....|A#3 .F.F ....|--- .... ....
....|..|--- .... ....|--- .... ....|--- .... ....

[Pattern5]
....|..|C-5 .F.F ....|R-- .... ....|D#3 .F5F ....
....|..|--- .... ....|--- .... ....|--- .... ....
....|..|R-- .... ....|D#3 .F.F ....|--- .... ....
....|..|--- .... ....|--- .... ....|--- .... ....
....|..|A#4 .F1F ....|G-3 .F.F ....|--- .... ....
....|..|--- .... ....|--- .... ....|--- .... ....
....|..|A#4 .F.F ....|A#3 .F.F ....|--- .... ....
....|..|--- .... ....|--- .... ....|--- .... ....
....|..|A#4 .F.A ....|R-- .... ....|D-3 .F77 ....
....|..|--- .... ....|--- .... ....|--- .... ....
....|..|R-- .... ....|D#3 .F.F ....|--- .... ....
....|..|--- .... ....|--- .... ....|--- .... ....
....|..|A#4 .F.F ....|G-3 .F.F ....|D#3 .F5A ....
....|..|--- .... ....|--- .... ....|--- .... ....
....|..|--- .... ....|A#3 .F.F ....|--- .... ....
....|..|--- .... ....|--- .... ....|--- .... ....
....|..|C-5 .F.F ....|R-- .... ....|D#3 .F8F ....
....|..|--- .... ....|--- .... ....|--- .... ....
....|..|A#4 .F.A ....|G-3 .F.F ....|--- .... ....
....|..|--- .... ....|--- .... ....|--- .... ....
....|..|A#4 .F.F ....|C-4 .F.F ....|--- .... ....
....|..|--- .... ....|--- .... ....|--- .... ....
....|..|R-- .... ....|D#4 .F.F ....|--- .... ....
....|..|--- .... ....|--- .... ....|--- .... ....
....|..|C-5 .F.7 ....|R-- .... ....|D#3 .F57 ....
....|..|--- .... ....|--- .... ....|--- .... ....
....|..|R-- .... ....|C-4 .F.F ....|--- .... ....
....|..|--- .... ....|--- .... ....|--- .... ....
....|..|A#4 .F.F ....|G-3 .F.F ....|D#3 .F8A ....
....|..|--- .... ....|--- .... ....|--- .... ....
....|..|A#4 .F.7 ....|C-4 .F.F ....|--- .... ....
....|..|--- .... ....|--- .... ....|--- .... ....
....|..|C-5 .F.F ....|D-3 .F.F ....|D-3 .F5F ....
....|..|--- .... ....|--- .... ....|--- .... ....
....|..|R-- .... ....|D-3 .F2F ....|--- .... ....
....|..|--- .... ....|--- .... ....|--- .... ....
....|..|A#4 .F1F ....|A-3 .F.F ....|--- .... ....
....|..|--- .... ....|--- .... ....|--- .... ....
....|..|A#4 .F.F ....|D-4 .F.F ....|--- .... ....
....|..|--- .... ....|--- .... ....|--- .... ....
....|..|C-5 .F.7 ....|R-- .... ....|D#3 .F87 ....
....|..|--- .... ....|--- .... ....|--- .... ....
....|..|R-- .... ....|A-3 .F.F ....|--- .... ....
....|..|--- .... ....|--- .... ....|--- .... ....
....|..|A#4 .F.F ....|F#3 .F.F ....|D-3 .F5A ....
....|..|--- .... ....|--- .... ....|--- .... ....
....|..|--- .... ....|A-3 .F.F ....|--- .... ....
....|..|--- .... ....|--- .... ....|--- .... ....
....|..|A#4 .F1F ....|R-- .... ....|F#3 .F9F ....
....|..|--- .... ....|--- .... ....|--- .... ....
....|..|C-5 .F.F ....|G-3 .F.F ....|--- .... ....
....|..|--- .... ....|--- .... ....|--- .... ....
....|..|A#4 .F.F ....|A#3 .F.F ....|--- .... ....
....|..|--- .... ....|--- .... ....|--- .... ....
....|..|R-- .... ....|G-3 .F.F ....|--- .... ....
....|..|--- .... ....|--- .... ....|--- .... ....
....|..|C-5 .F.7 ....|D-3 .F.F ....|D-3 .F57 ....
....|..|--- .... ....|--- .... ....|--- .... ....
....|..|R-- .... ....|D-3 .F3F ....|--- .... ....
....|..|--- .... ....|--- .... ....|--- .... ....
....|..|A#4 .F.F ....|A#3 .F.F ....|F#3 .F9A ....
....|..|--- .... ....|--- .... ....|--- .... ....
....|..|A#4 .F.7 ....|G-3 .F.F ....|--- .... ....
....|..|--- .... ....|--- .... ....|--- .... ....

[Pattern6]
....|..|C-5 .F.F ....|D#3 .F.F ....|--- .... ....
....|..|--- .... ....|--- .... ....|--- .... ....
....|..|R-- .... ....|G-3 .F.F ....|--- .... ....
....|..|--- .... ....|--- .... ....|--- .... ....
....|..|A#4 .F.F ....|A#3 .F.F ....|--- .... ....
....|..|--- .... ....|--- .... ....|--- .... ....
....|..|R-- .... ....|G-3 .F.F ....|--- .... ....
....|..|--- .... ....|--- .... ....|--- .... ....
....|..|A#4 .F17 ....|D#3 .F.F ....|F#3 .F97 ....
....|..|--- .... ....|--- .... ....|--- .... ....
....|..|C-5 .F.7 ....|G-3 .F.F ....|--- .... ....
....|..|--- .... ....|--- .... ....|--- .... ....
....|..|A#4 .F.F ....|A#3 .F.F ....|--- .... ....
....|..|--- .... ....|--- .... ....|--- .... ....
....|..|A#4 .F.F ....|G-3 .F.F ....|--- .... ....
....|..|--- .... ....|--- .... ....|--- .... ....
....|..|G-4 .F.F ....|D-3 .F.7 ....|R-- .... ....
....|..|--- .... ....|--- .... ....|--- .... ....
....|..|G-4 .F.F ....|D-3 .F37 ....|--- .... ....
....|..|--- .... ....|--- .... ....|--- .... ....
....|..|G-4 .F.F ....|A#3 .F.7 ....|--- .... ....
....|..|--- .... ....|--- .... ....|--- .... ....
....|..|R-- .... ....|G-3 .F.7 ....|--- .... ....
....|..|--- .... ....|--- .... ....|--- .... ....
....|..|A-4 .F.F ....|D#3 .F.7 ....|--- .... ....
....|..|--- .... ....|--- .... ....|--- .... ....
....|..|R-- .... ....|G-3 .F.7 ....|--- .... ....
....|..|--- .... ....|--- .... ....|--- .... ....
....|..|A-4 .F.F ....|A#3 .F.7 ....|R-- .... ....
....|..|--- .... ....|--- .... ....|--- .... ....
....|..|A-4 .F.F ....|G-3 .F.7 ....|--- .... ....
....|..|--- .... ....|--- .... ....|--- .... ....
....|..|G-4 .F.F ....|D#3 .F.7 ....|--- .... ....
....|..|--- .... ....|--- .... ....|--- .... ....
....|..|G-4 .F.F ....|G-3 .F.7 ....|--- .... ....
....|..|--- .... ....|--- .... ....|--- .... ....
....|..|G-4 .F.F ....|A#3 .F.7 ....|--- .... ....
....|..|--- .... ....|--- .... ....|--- .... ....
....|..|A-4 .F.F ....|G-3 .F.7 ....|--- .... ....
....|..|--- .... ....|--- .... ....|--- .... ....
....|..|G-4 .F.7 ....|R-- .... ....|R-- .... ....
....|..|--- .... ....|--- .... ....|--- .... ....
....|..|G-4 .F.7 ....|--- .... ....|--- .... ....
....|..|--- .... ....|--- .... ....|--- .... ....
....|..|A-4 .F.F ....|--- .... ....|--- .... ....
....|..|--- .... ....|--- .... ....|--- .... ....
....|..|A-4 .F.F ....|--- .... ....|--- .... ....
....|..|--- .... ....|--- .... ....|--- .... ....
....|..|G-4 .F.F ....|--- .... ....|--- .... ....
....|..|--- .... ....|--- .... ....|--- .... ....
....|..|G-4 .F.F ....|--- .... ....|--- .... ....
....|..|--- .... ....|--- .... ....|--- .... ....
....|..|G-4 .F.F ....|--- .... ....|--- .... ....
....|..|--- .... ....|--- .... ....|--- .... ....
....|..|A-4 .F.7 ....|--- .... ....|--- .... ....
....|..|--- .... ....|--- .... ....|--- .... ....
....|..|A-4 .F.F ....|--- .... ....|--- .... ....
....|..|--- .... ....|--- .... ....|--- .... ....
....|..|G-4 .F.7 ....|--- .... ....|--- .... ....
....|..|--- .... ....|--- .... ....|--- .... ....
....|..|A-4 .F.F ....|--- .... ....|--- .... ....
....|..|--- .... ....|--- .... ....|--- .... ....
....|..|A-4 .F.F ....|--- .... ....|--- .... ....
....|..|--- .... ....|--- .... ....|--- .... ....

[Pattern7]
....|..|G-4 .F.F ....|--- .... ....|--- .... ....
....|..|--- .... ....|--- .... ....|--- .... ....
....|..|G-4 .F.F ....|--- .... ....|--- .... ....
....|..|--- .... ....|--- .... ....|--- .... ....
....|..|G-4 .F.F ....|--- .... ....|--- .... ....
....|..|--- .... ....|--- .... ....|--- .... ....
....|..|A-4 .F.7 ....|--- .... ....|--- .... ....
....|..|--- .... ....|--- .... ....|--- .... ....
....|..|A-4 .F.F ....|--- .... ....|--- .... ....
....|..|--- .... ....|--- .... ....|--- .... ....
....|..|G-4 .F.7 ....|--- .... ....|--- .... ....
....|..|--- .... ....|--- .... ....|--- .... ....
....|..|A-4 .F.F ....|--- .... ....|--- .... ....
....|..|--- .... ....|--- .... ....|--- .... ....
....|..|A-4 .F.F ....|--- .... ....|--- .... ....
....|..|--- .... ....|--- .... ....|--- .... ....
....|..|A#4 .F.F ....|--- .... ....|--- .... ....
....|..|--- .... ....|--- .... ....|--- .... ....
....|..|A#4 .F.F ....|--- .... ....|--- .... ....
....|..|--- .... ....|--- .... ....|--- .... ....
....|..|A#4 .F.F ....|--- .... ....|--- .... ....
....|..|--- .... ....|--- .... ....|--- .... ....
....|..|A-4 .F.7 ....|--- .... ....|--- .... ....
....|..|--- .... ....|--- .... ....|--- .... ....
....|..|C-5 .F.F ....|--- .... ....|--- .... ....
....|..|--- .... ....|--- .... ....|--- .... ....
....|..|G-4 .F.7 ....|--- .... ....|--- .... ....
....|..|--- .... ....|--- .... ....|--- .... ....
....|..|C-5 .F.F ....|--- .... ....|--- .... ....
....|..|--- .... ....|--- .... ....|--- .... ....
....|..|C-5 .F.F ....|--- .... ....|--- .... ....
....|..|--- .... ....|--- .... ....|--- .... ....
....|..|A#4 .F.F ....|--- .... ....|--- .... ....
....|..|--- .... ....|--- .... ....|--- .... ....
....|..|A#4 .F.F ....|--- .... ....|--- .... ....
....|..|--- .... ....|--- .... ....|--- .... ....
....|..|A#4 .F.F ....|--- .... ....|--- .... ....
....|..|--- .... ....|--- .... ....|--- .... ....
....|..|A-4 .F.7 ....|--- .... ....|--- .... ....
....|..|--- .... ....|--- .... ....|--- .... ....
....|..|C-5 .F.F ....|--- .... ....|--- .... ....
....|..|--- .... ....|--- .... ....|--- .... ....
....|..|A#4 .F.7 ....|--- .... ....|--- .... ....
....|..|--- .... ....|--- .... ....|--- .... ....
....|..|C-5 .F.F ....|--- .... ....|--- .... ....
....|..|--- .... ....|--- .... ....|--- .... ....
....|..|C-5 .F.F ....|--- .... ....|--- .... ....
....|..|--- .... ....|--- .... ....|--- .... ....
....|..|A#4 .F.F ....|--- .... ....|--- .... ....
....|..|--- .... ....|--- .... ....|--- .... ....
....|..|A#4 .F.F ....|--- .... ....|--- .... ....
....|..|--- .... ....|--- .... ....|--- .... ....
....|..|A#4 .F.F ....|--- .... ....|--- .... ....
....|..|--- .... ....|--- .... ....|--- .... ....
....|..|C-5 .F.7 ....|--- .... ....|--- .... ....
....|..|--- .... ....|--- .... ....|--- .... ....
....|..|C-5 .F.F ....|--- .... ....|--- .... ....
....|..|--- .... ....|--- .... ....|--- .... ....
....|..|A#4 .F.7 ....|--- .... ....|--- .... ....
....|..|--- .... ....|--- .... ....|--- .... ....
....|..|C-5 .F.F ....|--- .... ....|--- .... ....
....|..|--- .... ....|--- .... ....|--- .... ....
....|..|C-5 .F.F ....|--- .... ....|--- .... ....
....|..|--- .... ....|--- .... ....|--- .... ....

[Pattern8]
....|..|A#4 .F.F ....|--- .... ....|--- .... ....
....|..|--- .... ....|--- .... ....|--- .... ....
....|..|A#4 .F.F ....|--- .... ....|--- .... ....
....|..|--- .... ....|--- .... ....|--- .... ....
....|..|A#4 .F.F ....|--- .... ....|--- .... ....
....|..|--- .... ....|--- .... ....|--- .... ....
....|..|C-5 .F.7 ....|--- .... ....|--- .... ....
....|..|--- .... ....|--- .... ....|--- .... ....
....|..|C-5 .F.F ....|--- .... ....|--- .... ....
....|..|--- .... ....|--- .... ....|--- .... ....
....|..|A#4 .F.7 ....|--- .... ....|--- .... ....
....|..|--- .... ....|--- .... ....|--- .... ....
....|..|A#4 .F.F ....|--- .... ....|--- .... ....
....|..|--- .... ....|--- .... ....|--- .... ....
....|..|A#4 .F.F ....|--- .... ....|--- .... ....
....|..|--- .... ....|--- .... ....|--- .... ....
....|..|G-4 .F.F ....|--- .... ....|C-4 .F.F ....
....|..|--- .... ....|--- .... ....|--- .... ....
....|..|G-4 .F.F ....|--- .... ....|--- .... ....
....|..|--- .... ....|--- .... ....|--- .... ....
....|..|G-4 .F.F ....|--- .... ....|--- .... ....
....|..|--- .... ....|--- .... ....|--- .... ....
....|..|C-5 .F.7 ....|--- .... ....|--- .... ....
....|..|--- .... ....|--- .... ....|--- .... ....
....|..|A-4 .F.F ....|--- .... ....|--- .... ....
....|..|--- .... ....|--- .... ....|--- .... ....
....|..|A#4 .F.7 ....|--- .... ....|--- .... ....
....|..|--- .... ....|--- .... ....|--- .... ....
....|..|A-4 .F.F ....|--- .... ....|C-4 .F.A ....
....|..|--- .... ....|--- .... ....|--- .... ....
....|..|A-4 .F.F ....|--- .... ....|--- .... ....
....|..|--- .... ....|--- .... ....|--- .... ....
....|..|G-4 .F.F ....|--- .... ....|D-3 .F.F ....
....|..|--- .... ....|--- .... ....|--- .... ....
....|..|G-4 .F.F ....|--- .... ....|--- .... ....
....|..|--- .... ....|--- .... ....|--- .... ....
....|..|G-4 .F.F ....|--- .... ....|--- .... ....
....|..|--- .... ....|--- .... ....|--- .... ....
....|..|A-4 .F.F ....|--- .... ....|--- .... ....
....|..|--- .... ....|--- .... ....|--- .... ....
....|..|G-4 .F.7 ....|--- .... ....|C-4 .F.7 ....
....|..|--- .... ....|--- .... ....|--- .... ....
....|..|G-4 .F.7 ....|--- .... ....|--- .... ....
....|..|--- .... ....|--- .... ....|--- .... ....
....|..|A-4 .F.F ....|--- .... ....|D-3 .F.A ....
....|..|--- .... ....|--- .... ....|--- .... ....
....|..|A-4 .F.F ....|--- .... ....|--- .... ....
....|..|--- .... ....|--- .... ....|--- .... ....
....|..|G-4 .F.F ....|--- .... ....|G-3 .F.F ....
....|..|--- .... ....|--- .... ....|--- .... ....
....|..|G-4 .F.F ....|--- .... ....|--- .... ....
....|..|--- .... ....|--- .... ....|--- .... ....
....|..|G-4 .F.F ....|--- .... ....|--- .... ....
....|..|--- .... ....|--- .... ....|--- .... ....
....|..|A-4 .F.7 ....|--- .... ....|--- .... ....
....|..|--- .... ....|--- .... ....|--- .... ....
....|..|A-4 .F.F ....|--- .... ....|D-3 .F.7 ....
....|..|--- .... ....|--- .... ....|--- .... ....
....|..|G-4 .F.7 ....|--- .... ....|--- .... ....
....|..|--- .... ....|--- .... ....|--- .... ....
....|..|A-4 .F.F ....|--- .... ....|G-3 .F.A ....
....|..|--- .... ....|--- .... ....|--- .... ....
....|..|A-4 .F.F ....|--- .... ....|--- .... ....
....|..|--- .... ....|--- .... ....|R-- .... ....

[Pattern9]
....|..|G-4 .F.F ....|--- .... ....|D#3 .F.F ....
....|..|--- .... ....|--- .... ....|--- .... ....
....|..|G-4 .F.F ....|--- .... ....|--- .... ....
....|..|--- .... ....|--- .... ....|--- .... ....
....|..|G-4 .F.F ....|--- .... ....|--- .... ....
....|..|--- .... ....|--- .... ....|--- .... ....
....|..|A-4 .F.F ....|--- .... ....|--- .... ....
....|..|--- .... ....|--- .... ....|--- .... ....
....|..|G-4 .F.7 ....|--- .... ....|G-3 .F.7 ....
....|..|--- .... ....|--- .... ....|--- .... ....
....|..|G-4 .F.7 ....|--- .... ....|--- .... ....
....|..|--- .... ....|--- .... ....|R-- .... ....
....|..|A-4 .F.F ....|--- .... ....|D#3 .F.A ....
....|..|--- .... ....|--- .... ....|--- .... ....
....|..|A-4 .F.F ....|--- .... ....|--- .... ....
....|..|--- .... ....|--- .... ....|--- .... ....
....|..|A#4 .F.F ....|--- .... ....|A#3 .F.F ....
....|..|--- .... ....|--- .... ....|--- .... ....
....|..|A#4 .F.F ....|--- .... ....|--- .... ....
....|..|--- .... ....|--- .... ....|--- .... ....
....|..|A#4 .F.F ....|--- .... ....|--- .... ....
....|..|--- .... ....|--- .... ....|--- .... ....
....|..|A-4 .F.7 ....|--- .... ....|--- .... ....
....|..|--- .... ....|--- .... ....|R-- .... ....
....|..|C-5 .F.F ....|--- .... ....|D#3 .F.7 ....
....|..|--- .... ....|--- .... ....|--- .... ....
....|..|G-4 .F.7 ....|--- .... ....|--- .... ....
....|..|--- .... ....|--- .... ....|--- .... ....
....|..|C-5 .F.F ....|--- .... ....|A#3 .F.A ....
....|..|--- .... ....|--- .... ....|--- .... ....
....|..|C-5 .F.F ....|--- .... ....|--- .... ....
....|..|--- .... ....|--- .... ....|D-3 .F.F ....
....|..|A#4 .F.F ....|--- .... ....|--- .... ....
....|..|--- .... ....|--- .... ....|--- .... ....
....|..|A#4 .F.F ....|--- .... ....|--- .... ....
....|..|--- .... ....|--- .... ....|--- .... ....
....|..|A#4 .F.F ....|--- .... ....|--- .... ....
....|..|--- .... ....|--- .... ....|--- .... ....
....|..|A-4 .F.7 ....|--- .... ....|--- .... ....
....|..|--- .... ....|--- .... ....|--- .... ....
....|..|C-5 .F.F ....|--- .... ....|A#3 .F.7 ....
....|..|--- .... ....|--- .... ....|--- .... ....
....|..|A#4 .F.7 ....|--- .... ....|--- .... ....
....|..|--- .... ....|--- .... ....|D-3 .F.A ....
....|..|C-5 .F.F ....|--- .... ....|--- .... ....
....|..|--- .... ....|--- .... ....|--- .... ....
....|..|C-5 .F.F ....|--- .... ....|--- .... ....
....|..|--- .... ....|--- .... ....|--- .... ....
....|..|A#4 .F.F ....|--- .... ....|G-3 .F.F ....
....|..|--- .... ....|--- .... ....|--- .... ....
....|..|A#4 .F.F ....|--- .... ....|--- .... ....
....|..|--- .... ....|--- .... ....|--- .... ....
....|..|A#4 .F.F ....|--- .... ....|--- .... ....
....|..|--- .... ....|--- .... ....|--- .... ....
....|..|C-5 .F.7 ....|--- .... ....|--- .... ....
....|..|--- .... ....|--- .... ....|D-3 .F.7 ....
....|..|C-5 .F.F ....|--- .... ....|--- .... ....
....|..|--- .... ....|--- .... ....|--- .... ....
....|..|A#4 .F.7 ....|--- .... ....|--- .... ....
....|..|--- .... ....|--- .... ....|--- .... ....
....|..|C-5 .F.F ....|--- .... ....|G-3 .F.A ....
....|..|--- .... ....|--- .... ....|--- .... ....
....|..|C-5 .F.F ....|--- .... ....|--- .... ....
....|..|--- .... ....|--- .... ....|--- .... ....

[Pattern10]
....|..|A#4 .F.F ....|--- .... ....|D#3 .F.F ....
....|..|--- .... ....|--- .... ....|--- .... ....
....|..|A#4 .F.F ....|--- .... ....|--- .... ....
....|..|--- .... ....|--- .... ....|--- .... ....
....|..|A#4 .F.F ....|--- .... ....|--- .... ....
....|..|--- .... ....|--- .... ....|--- .... ....
....|..|C-5 .F.F ....|--- .... ....|--- .... ....
....|..|--- .... ....|--- .... ....|--- .... ....
....|..|A#4 .F.7 ....|--- .... ....|G-3 .F.7 ....
....|..|--- .... ....|--- .... ....|--- .... ....
....|..|A#4 .F.7 ....|--- .... ....|--- .... ....
....|..|--- .... ....|--- .... ....|--- .... ....
....|..|C-5 .F.F ....|--- .... ....|D#3 .F.A ....
....|..|--- .... ....|--- .... ....|--- .... ....
....|..|C-5 .F.F ....|--- .... ....|--- .... ....
....|..|--- .... ....|--- .... ....|--- .... ....
....|..|A#4 .F.F ....|--- .... ....|C-4 .F.F ....
....|..|--- .... ....|--- .... ....|--- .... ....
....|..|A#4 .F.F ....|--- .... ....|--- .... ....
....|..|--- .... ....|--- .... ....|--- .... ....
....|..|A#4 .F.F ....|--- .... ....|--- .... ....
....|..|--- .... ....|--- .... ....|--- .... ....
....|..|C-5 .F.7 ....|--- .... ....|--- .... ....
....|..|--- .... ....|--- .... ....|--- .... ....
....|..|C-5 .F.F ....|--- .... ....|D#3 .F.7 ....
....|..|--- .... ....|--- .... ....|--- .... ....
....|..|A#4 .F.7 ....|--- .... ....|--- .... ....
....|..|--- .... ....|--- .... ....|--- .... ....
....|..|C-5 .F.F ....|--- .... ....|C-4 .F.A ....
....|..|--- .... ....|--- .... ....|--- .... ....
....|..|C-5 .F.F ....|--- .... ....|--- .... ....
....|..|--- .... ....|--- .... ....|R-- .... ....
....|..|A#4 .F.F ....|--- .... ....|D-3 .F.F ....
....|..|--- .... ....|--- .... ....|--- .... ....
....|..|A#4 .F.F ....|--- .... ....|--- .... ....
....|..|--- .... ....|--- .... ....|--- .... ....
....|..|A#4 .F.F ....|--- .... ....|--- .... ....
....|..|--- .... ....|--- .... ....|--- .... ....
....|..|C-5 .F.F ....|--- .... ....|--- .... ....
....|..|--- .... ....|--- .... ....|--- .... ....
....|..|A#4 .F.7 ....|--- .... ....|C-4 .F.7 ....
....|..|--- .... ....|--- .... ....|--- .... ....
....|..|A#4 .F.7 ....|--- .... ....|--- .... ....
....|..|--- .... ....|--- .... ....|R-- .... ....
....|..|A#4 .F.7 ....|--- .... ....|D-3 .F.A ....
....|..|--- .... ....|--- .... ....|--- .... ....
....|..|R-- .... ....|--- .... ....|--- .... ....
....|..|--- .... ....|--- .... ....|--- .... ....
....|..|A#4 .F.F ....|--- .... ....|C-4 .F.F ....
....|..|--- .... ....|--- .... ....|--- .... ....
....|..|A#4 .F.F ....|--- .... ....|--- .... ....
....|..|--- .... ....|--- .... ....|--- .... ....
....|..|A#4 .F.F ....|--- .... ....|--- .... ....
....|..|--- .... ....|--- .... ....|--- .... ....
....|..|A#4 .F.F ....|--- .... ....|--- .... ....
....|..|--- .... ....|--- .... ....|R-- .... ....
....|..|A#4 .F.F ....|--- .... ....|D-3 .F.7 ....
....|..|--- .... ....|--- .... ....|--- .... ....
....|..|A#4 .F.7 ....|--- .... ....|--- .... ....
....|..|--- .... ....|--- .... ....|--- .... ....
....|..|A#4 .F.F ....|--- .... ....|C-4 .F.A ....
....|..|--- .... ....|--- .... ....|--- .... ....
....|..|A#4 .F.F ....|--- .... ....|--- .... ....
....|..|--- .... ....|--- .... ....|--- .... ....

[Pattern11]
....|..|A-4 .F.F ....|--- .... ....|D-3 .F5F ....
....|..|--- .... ....|--- .... ....|--- .... ....
....|..|A-4 .F.F ....|--- .... ....|--- .... ....
....|..|--- .... ....|--- .... ....|R-- .... ....
....|..|A-4 .F.F ....|--- .... ....|--- .... ....
....|..|--- .... ....|--- .... ....|--- .... ....
....|..|R-- .... ....|--- .... ....|--- .... ....
....|..|--- .... ....|--- .... ....|--- .... ....
....|..|A-4 .F.F ....|--- .... ....|C-4 .F.7 ....
....|..|--- .... ....|--- .... ....|--- .... ....
....|..|G-4 .F.F ....|--- .... ....|--- .... ....
....|..|--- .... ....|--- .... ....|--- .... ....
....|..|A-4 .F.F ....|--- .... ....|D-3 .F5A ....
....|..|--- .... ....|--- .... ....|--- .... ....
....|..|G-4 .F.F ....|--- .... ....|--- .... ....
....|..|--- .... ....|--- .... ....|--- .... ....
....|..|A#4 .F.F ....|--- .... ....|D-3 .F7F ....
....|..|--- .... ....|--- .... ....|--- .... ....
....|..|R-- .... ....|--- .... ....|--- .... ....
....|..|--- .... ....|--- .... ....|--- .... ....
....|..|A#4 .F.F ....|--- .... ....|--- .... ....
....|..|--- .... ....|--- .... ....|--- .... ....
....|..|A#4 .F.F ....|--- .... ....|--- .... ....
....|..|--- .... ....|--- .... ....|--- .... ....
....|..|A#4 .F.F ....|--- .... ....|D-3 .F57 ....
....|..|--- .... ....|--- .... ....|--- .... ....
....|..|A-4 .F.F ....|--- .... ....|--- .... ....
....|..|--- .... ....|--- .... ....|--- .... ....
....|..|A#4 .F.F ....|--- .... ....|D-3 .F7A ....
....|..|--- .... ....|--- .... ....|--- .... ....
....|..|R-- .... ....|--- .... ....|--- .... ....
....|..|--- .... ....|--- .... ....|--- .... ....
....|..|D-5 .F.F ....|--- .... ....|D#3 .F5F ....
....|..|--- .... ....|--- .... ....|--- .... ....
....|..|D-5 .F.F ....|--- .... ....|--- .... ....
....|..|--- .... ....|--- .... ....|--- .... ....
....|..|D-5 .F.F ....|--- .... ....|--- .... ....
....|..|--- .... ....|--- .... ....|--- .... ....
....|..|C-5 .F.F ....|--- .... ....|--- .... ....
....|..|--- .... ....|--- .... ....|--- .... ....
....|..|D-5 .F.F ....|--- .... ....|D-3 .F77 ....
....|..|--- .... ....|--- .... ....|--- .... ....
....|..|R-- .... ....|--- .... ....|--- .... ....
....|..|--- .... ....|--- .... ....|--- .... ....
....|..|A#4 .F.7 ....|--- .... ....|D#3 .F5A ....
....|..|--- .... ....|--- .... ....|--- .... ....
....|..|A#4 .F.7 ....|--- .... ....|--- .... ....
....|..|--- .... ....|--- .... ....|--- .... ....
....|..|A#4 .F.F ....|--- .... ....|D#3 .F8F ....
....|..|--- .... ....|--- .... ....|--- .... ....
....|..|A#4 .F.F ....|--- .... ....|--- .... ....
....|..|--- .... ....|--- .... ....|--- .... ....
....|..|A#4 .F.F ....|--- .... ....|--- .... ....
....|..|--- .... ....|--- .... ....|--- .... ....
....|..|A#4 .F.F ....|--- .... ....|--- .... ....
....|..|--- .... ....|--- .... ....|--- .... ....
....|..|A#4 .F.F ....|--- .... ....|D#3 .F57 ....
....|..|--- .... ....|--- .... ....|--- .... ....
....|..|D-5 .F.7 ....|--- .... ....|--- .... ....
....|..|--- .... ....|--- .... ....|--- .... ....
....|..|A#4 .F.F ....|--- .... ....|D#3 .F8A ....
....|..|--- .... ....|--- .... ....|--- .... ....
....|..|A#4 .F.F ....|--- .... ....|--- .... ....
....|..|--- .... ....|--- .... ....|--- .... ....

[Pattern12]
....|..|A-4 .F.F ....|--- .... ....|D-3 .F5F ....
....|..|--- .... ....|--- .... ....|--- .... ....
....|..|A-4 .F.F ....|--- .... ....|--- .... ....
....|..|--- .... ....|--- .... ....|--- .... ....
....|..|A-4 .F.F ....|--- .... ....|--- .... ....
....|..|--- .... ....|--- .... ....|--- .... ....
....|..|R-- .... ....|--- .... ....|--- .... ....
....|..|--- .... ....|--- .... ....|--- .... ....
....|..|A-4 .F.F ....|--- .... ....|D#3 .F87 ....
....|..|--- .... ....|--- .... ....|--- .... ....
....|..|G-4 .F.F ....|--- .... ....|--- .... ....
....|..|--- .... ....|--- .... ....|--- .... ....
....|..|A-4 .F.F ....|--- .... ....|D-3 .F5A ....
....|..|--- .... ....|--- .... ....|--- .... ....
....|..|G-4 .F.F ....|--- .... ....|--- .... ....
....|..|--- .... ....|--- .... ....|--- .... ....
....|..|A#4 .F.F ....|--- .... ....|D-3 .F7F ....
....|..|--- .... ....|--- .... ....|--- .... ....
....|..|R-- .... ....|--- .... ....|--- .... ....
....|..|--- .... ....|--- .... ....|--- .... ....
....|..|A#4 .F.F ....|--- .... ....|--- .... ....
....|..|--- .... ....|--- .... ....|--- .... ....
....|..|A#4 .F.F ....|--- .... ....|--- .... ....
....|..|--- .... ....|--- .... ....|--- .... ....
....|..|A#4 .F.F ....|--- .... ....|D-3 .F57 ....
....|..|--- .... ....|--- .... ....|--- .... ....
....|..|A-4 .F.F ....|--- .... ....|--- .... ....
....|..|--- .... ....|--- .... ....|--- .... ....
....|..|A#4 .F.F ....|--- .... ....|D-3 .F7A ....
....|..|--- .... ....|--- .... ....|--- .... ....
....|..|R-- .... ....|--- .... ....|--- .... ....
....|..|--- .... ....|--- .... ....|--- .... ....
....|..|D-5 .F.F ....|--- .... ....|D#3 .F5F ....
....|..|--- .... ....|--- .... ....|--- .... ....
....|..|D-5 .F.F ....|--- .... ....|--- .... ....
....|..|--- .... ....|--- .... ....|--- .... ....
....|..|D-5 .F.F ....|--- .... ....|--- .... ....
....|..|--- .... ....|--- .... ....|--- .... ....
....|..|C-5 .F.F ....|--- .... ....|--- .... ....
....|..|--- .... ....|--- .... ....|--- .... ....
....|..|D-5 .F.F ....|--- .... ....|D-3 .F77 ....
....|..|--- .... ....|--- .... ....|--- .... ....
....|..|R-- .... ....|--- .... ....|--- .... ....
....|..|--- .... ....|--- .... ....|--- .... ....
....|..|A#4 .F.7 ....|--- .... ....|D#3 .F5A ....
....|..|--- .... ....|--- .... ....|--- .... ....
....|..|A#4 .F.7 ....|--- .... ....|--- .... ....
....|..|--- .... ....|--- .... ....|--- .... ....
....|..|A#4 .F.F ....|--- .... ....|D#3 .F8F ....
....|..|--- .... ....|--- .... ....|--- .... ....
....|..|A-4 .F.7 ....|--- .... ....|--- .... ....
....|..|--- .... ....|--- .... ....|--- .... ....
....|..|A#4 .F.7 ....|--- .... ....|--- .... ....
....|..|--- .... ....|--- .... ....|--- .... ....
....|..|R-- .... ....|--- .... ....|--- .... ....
....|..|R-- .... ....|--- .... ....|--- .... ....
....|..|A#4 .F.F ....|--- .... ....|D#3 .F57 ....
....|..|--- .... ....|--- .... ....|--- .... ....
....|..|D-5 .F.7 ....|--- .... ....|--- .... ....
....|..|--- .... ....|--- .... ....|--- .... ....
....|..|D-5 .F.7 ....|--- .... ....|D#3 .F8A ....
....|..|--- .... ....|--- .... ....|--- .... ....
....|..|C-5 .F.7 ....|--- .... ....|--- .... ....
....|..|R-- .... ....|--- .... ....|--- .... ....

[Pattern13]
....|..|C-5 .F.F ....|--- .... ....|D-3 .F5F ....
....|..|--- .... ....|--- .... ....|--- .... ....
....|..|--- .... ....|--- .... ....|--- .... ....
....|..|R-- .... ....|--- .... ....|--- .... ....
....|..|R-- .... ....|--- .... ....|--- .... ....
....|..|--- .... ....|--- .... ....|--- .... ....
....|..|R-- .... ....|--- .... ....|--- .... ....
....|..|--- .... ....|--- .... ....|--- .... ....
....|..|C-5 .F.F ....|--- .... ....|D#3 .F87 ....
....|..|--- .... ....|--- .... ....|--- .... ....
....|..|--- .... ....|--- .... ....|--- .... ....
....|..|R-- .... ....|--- .... ....|--- .... ....
....|..|C-5 .F.F ....|--- .... ....|D-3 .F5A ....
....|..|--- .... ....|--- .... ....|--- .... ....
....|..|--- .... ....|--- .... ....|--- .... ....
....|..|R-- .... ....|--- .... ....|--- .... ....
....|..|A#4 .F.7 ....|--- .... ....|D-3 .F7F ....
....|..|--- .... ....|--- .... ....|--- .... ....
....|..|R-- .... ....|--- .... ....|--- .... ....
....|..|--- .... ....|--- .... ....|--- .... ....
....|..|A#4 .F.F ....|--- .... ....|--- .... ....
....|..|--- .... ....|--- .... ....|--- .... ....
....|..|--- .... ....|--- .... ....|--- .... ....
....|..|R-- .... ....|--- .... ....|--- .... ....
....|..|C-5 .F.7 ....|--- .... ....|D-3 .F57 ....
....|..|--- .... ....|--- .... ....|--- .... ....
....|..|--- .... ....|--- .... ....|--- .... ....
....|..|R-- .... ....|--- .... ....|--- .... ....
....|..|C-5 .F.F ....|--- .... ....|D-3 .F7A ....
....|..|--- .... ....|--- .... ....|--- .... ....
....|..|R-- .... ....|--- .... ....|--- .... ....
....|..|--- .... ....|--- .... ....|--- .... ....
....|..|C-5 .F.7 ....|--- .... ....|D#3 .F5F ....
....|..|--- .... ....|--- .... ....|--- .... ....
....|..|--- .... ....|--- .... ....|--- .... ....
....|..|R-- .... ....|--- .... ....|--- .... ....
....|..|A#4 .F.F ....|--- .... ....|--- .... ....
....|..|--- .... ....|--- .... ....|--- .... ....
....|..|--- .... ....|--- .... ....|--- .... ....
....|..|R-- .... ....|--- .... ....|--- .... ....
....|..|C-5 .F.A ....|--- .... ....|D-3 .F77 ....
....|..|--- .... ....|--- .... ....|--- .... ....
....|..|--- .... ....|--- .... ....|--- .... ....
....|..|R-- .... ....|--- .... ....|--- .... ....
....|..|A#4 .F.7 ....|--- .... ....|D#3 .F5A ....
....|..|--- .... ....|--- .... ....|--- .... ....
....|..|--- .... ....|--- .... ....|--- .... ....
....|..|--- .... ....|--- .... ....|--- .... ....
....|..|D-6 .F.F ....|--- .... ....|D#3 .F8F ....
....|..|--- .... ....|--- .... ....|--- .... ....
....|..|--- .... ....|--- .... ....|--- .... ....
....|..|R-- .... ....|--- .... ....|--- .... ....
....|..|C-5 .F.7 ....|--- .... ....|--- .... ....
....|..|R-- .... ....|--- .... ....|--- .... ....
....|..|--- .... ....|--- .... ....|--- .... ....
....|..|R-- .... ....|--- .... ....|--- .... ....
....|..|D-6 .F.F ....|--- .... ....|D#3 .F57 ....
....|..|--- .... ....|--- .... ....|--- .... ....
....|..|--- .... ....|--- .... ....|--- .... ....
....|..|--- .... ....|--- .... ....|--- .... ....
....|..|A#4 .F.7 ....|--- .... ....|D#3 .F8A ....
....|..|--- .... ....|--- .... ....|--- .... ....
....|..|R-- .... ....|--- .... ....|--- .... ....
....|..|--- .... ....|--- .... ....|--- .... ....

[Pattern14]
....|..|D#6 .F.F ....|--- .... ....|D-3 .F5F ....
....|..|R-- .... ....|--- .... ....|--- .... ....
....|..|--- .... ....|--- .... ....|--- .... ....
....|..|R-- .... ....|--- .... ....|--- .... ....
....|..|D-6 .F.A ....|--- .... ....|--- .... ....
....|..|--- .... ....|--- .... ....|--- .... ....
....|..|--- .... ....|--- .... ....|--- .... ....
....|..|R-- .... ....|--- .... ....|--- .... ....
....|..|D#6 .F.F ....|--- .... ....|D#3 .F87 ....
....|..|--- .... ....|--- .... ....|--- .... ....
....|..|R-- .... ....|--- .... ....|--- .... ....
....|..|R-- .... ....|--- .... ....|--- .... ....
....|..|D#6 .F.F ....|--- .... ....|D-3 .F5A ....
....|..|R-- .... ....|--- .... ....|--- .... ....
....|..|--- .... ....|--- .... ....|--- .... ....
....|..|--- .... ....|--- .... ....|--- .... ....
....|..|D-6 .F.7 ....|--- .... ....|D-3 .F7F ....
....|..|--- .... ....|--- .... ....|--- .... ....
....|..|--- .... ....|--- .... ....|--- .... ....
....|..|R-- .... ....|--- .... ....|--- .... ....
....|..|D-6 .F.F ....|--- .... ....|--- .... ....
....|..|--- .... ....|--- .... ....|--- .... ....
....|..|R-- .... ....|--- .... ....|--- .... ....
....|..|R-- .... ....|--- .... ....|--- .... ....
....|..|D#6 .F.7 ....|--- .... ....|D-3 .F57 ....
....|..|--- .... ....|--- .... ....|--- .... ....
....|..|--- .... ....|--- .... ....|--- .... ....
....|..|--- .... ....|--- .... ....|--- .... ....
....|..|--- .... ....|--- .... ....|D-3 .F7A ....
....|..|--- .... ....|--- .... ....|--- .... ....
....|..|--- .... ....|--- .... ....|--- .... ....
....|..|R-- .... ....|--- .... ....|--- .... ....
....|..|D#6 .F.7 ....|--- .... ....|G-3 .F9F ....
....|..|--- .... ....|--- .... ....|--- .... ....
....|..|--- .... ....|--- .... ....|--- .... ....
....|..|R-- .... ....|--- .... ....|--- .... ....
....|..|D#6 .F.7 ....|--- .... ....|--- .... ....
....|..|--- .... ....|--- .... ....|--- .... ....
....|..|R-- .... ....|--- .... ....|--- .... ....
....|..|--- .... ....|--- .... ....|--- .... ....
....|..|--- .... ....|--- .... ....|D-3 .F77 ....
....|..|--- .... ....|--- .... ....|--- .... ....
....|..|--- .... ....|--- .... ....|--- .... ....
....|..|--- .... ....|--- .... ....|--- .... ....
....|..|D-6 .F.7 ....|--- .... ....|G-3 .F9A ....
....|..|--- .... ....|--- .... ....|--- .... ....
....|..|--- .... ....|--- .... ....|--- .... ....
....|..|--- .... ....|--- .... ....|--- .... ....
....|..|--- .... ....|--- .... ....|R-- .... ....
....|..|--- .... ....|--- .... ....|--- .... ....
....|..|R-- .... ....|--- .... ....|--- .... ....
....|..|--- .... ....|--- .... ....|--- .... ....
....|..|--- .... ....|--- .... ....|--- .... ....
....|..|--- .... ....|--- .... ....|--- .... ....
....|..|--- .... ....|--- .... ....|--- .... ....
....|..|--- .... ....|--- .... ....|--- .... ....
....|..|--- .... ....|--- .... ....|G-3 .F97 ....
....|..|--- .... ....|--- .... ....|--- .... ....
....|..|--- .... ....|--- .... ....|--- .... ....
....|..|--- .... ....|--- .... ....|--- .... ....
....|..|--- .... ....|--- .... ....|R-- .... ....
....|..|--- .... ....|--- .... ....|--- .... ....
....|..|R-- .... ....|--- .... ....|--- .... ....
....|..|--- .... ....|--- .... ....|--- .... ....

[Pattern15]
....|..|--- .... ....|--- .... ....|--- .... ....
....|..|--- .... ....|--- .... ....|--- .... ....
....|..|--- .... ....|--- .... ....|--- .... ....
....|..|--- .... ....|--- .... ....|--- .... ....
....|..|--- .... ....|--- .... ....|--- .... ....
....|..|--- .... ....|--- .... ....|--- .... ....
....|..|--- .... ....|--- .... ....|--- .... ....
....|..|--- .... ....|--- .... ....|--- .... ....
....|..|--- .... ....|--- .... ....|R-- .... ....
....|..|--- .... ....|--- .... ....|--- .... ....
....|..|--- .... ....|--- .... ....|--- .... ....
....|..|--- .... ....|--- .... ....|--- .... ....
....|..|--- .... ....|--- .... ....|--- .... ....
....|..|--- .... ....|--- .... ....|--- .... ....
....|..|--- .... ....|--- .... ....|--- .... ....
....|..|--- .... ....|--- .... ....|--- .... ....
....|..|--- .... ....|--- .... ....|--- .... ....
....|..|--- .... ....|--- .... ....|--- .... ....
....|..|--- .... ....|--- .... ....|--- .... ....
....|..|--- .... ....|--- .... ....|--- .... ....
....|..|--- .... ....|--- .... ....|--- .... ....
....|..|--- .... ....|--- .... ....|--- .... ....
....|..|--- .... ....|--- .... ....|--- .... ....
....|..|--- .... ....|--- .... ....|--- .... ....
....|..|--- .... ....|--- .... ....|--- .... ....
....|..|--- .... ....|--- .... ....|--- .... ....
....|..|--- .... ....|--- .... ....|--- .... ....
....|..|--- .... ....|--- .... ....|--- .... ....
....|..|--- .... ....|--- .... ....|--- .... ....
....|..|--- .... ....|--- .... ....|--- .... ....
....|..|--- .... ....|--- .... ....|--- .... ....
....|..|--- .... ....|--- .... ....|--- .... ....
....|..|--- .... ....|--- .... ....|--- .... ....
....|..|--- .... ....|--- .... ....|--- .... ....
....|..|--- .... ....|--- .... ....|--- .... ....
....|..|--- .... ....|--- .... ....|--- .... ....
....|..|--- .... ....|--- .... ....|--- .... ....
....|..|--- .... ....|--- .... ....|--- .... ....
....|..|--- .... ....|--- .... ....|--- .... ....
....|..|--- .... ....|--- .... ....|--- .... ....
....|..|--- .... ....|--- .... ....|--- .... ....
....|..|--- .... ....|--- .... ....|--- .... ....
....|..|--- .... ....|--- .... ....|--- .... ....
....|..|--- .... ....|--- .... ....|--- .... ....
....|..|--- .... ....|--- .... ....|--- .... ....
....|..|--- .... ....|--- .... ....|--- .... ....
....|..|--- .... ....|--- .... ....|--- .... ....
....|..|--- .... ....|--- .... ....|--- .... ....
....|..|--- .... ....|--- .... ....|--- .... ....
....|..|--- .... ....|--- .... ....|--- .... ....
....|..|--- .... ....|--- .... ....|--- .... ....
....|..|--- .... ....|--- .... ....|--- .... ....
....|..|--- .... ....|--- .... ....|--- .... ....
....|..|--- .... ....|--- .... ....|--- .... ....
....|..|--- .... ....|--- .... ....|--- .... ....
....|..|--- .... ....|--- .... ....|--- .... ....
....|..|--- .... ....|--- .... ....|--- .... ....
....|..|--- .... ....|--- .... ....|--- .... ....
....|..|--- .... ....|--- .... ....|--- .... ....
....|..|--- .... ....|--- .... ....|--- .... ....
....|..|--- .... ....|--- .... ....|--- .... ....
....|..|--- .... ....|--- .... ....|--- .... ....
....|..|--- .... ....|--- .... ....|--- .... ....
....|..|--- .... ....|--- .... ....|--- .... ....

[Pattern18]
....|..|--- .... ....|--- .... ....|--- .... ....
....|..|--- .... ....|--- .... ....|--- .... ....
....|..|--- .... ....|--- .... ....|--- .... ....
....|..|--- .... ....|--- .... ....|--- .... ....
....|..|--- .... ....|--- .... ....|--- .... ....
....|..|--- .... ....|--- .... ....|--- .... ....
....|..|--- .... ....|--- .... ....|--- .... ....
....|..|--- .... ....|--- .... ....|--- .... ....
....|..|--- .... ....|--- .... ....|--- .... ....
....|..|--- .... ....|--- .... ....|--- .... ....
....|..|--- .... ....|--- .... ....|--- .... ....
....|..|--- .... ....|--- .... ....|--- .... ....
....|..|--- .... ....|--- .... ....|--- .... ....
....|..|--- .... ....|--- .... ....|--- .... ....
....|..|--- .... ....|--- .... ....|--- .... ....
....|..|--- .... ....|--- .... ....|--- .... ....
....|..|--- .... ....|--- .... ....|--- .... ....
....|..|--- .... ....|--- .... ....|--- .... ....
....|..|--- .... ....|--- .... ....|--- .... ....
....|..|--- .... ....|--- .... ....|--- .... ....
....|..|--- .... ....|--- .... ....|--- .... ....
....|..|--- .... ....|--- .... ....|--- .... ....
....|..|--- .... ....|--- .... ....|--- .... ....
....|..|--- .... ....|--- .... ....|--- .... ....
....|..|--- .... ....|--- .... ....|--- .... ....
....|..|--- .... ....|--- .... ....|--- .... ....
....|..|--- .... ....|--- .... ....|--- .... ....
....|..|--- .... ....|--- .... ....|--- .... ....
....|..|--- .... ....|--- .... ....|--- .... ....
....|..|--- .... ....|--- .... ....|--- .... ....
....|..|--- .... ....|--- .... ....|--- .... ....
....|..|--- .... ....|--- .... ....|--- .... ....
....|..|--- .... ....|--- .... ....|--- .... ....
....|..|--- .... ....|--- .... ....|--- .... ....
....|..|--- .... ....|--- .... ....|--- .... ....
....|..|--- .... ....|--- .... ....|--- .... ....
....|..|--- .... ....|--- .... ....|--- .... ....
....|..|--- .... ....|--- .... ....|--- .... ....
....|..|--- .... ....|--- .... ....|--- .... ....
....|..|--- .... ....|--- .... ....|--- .... ....
....|..|--- .... ....|--- .... ....|--- .... ....
....|..|--- .... ....|--- .... ....|--- .... ....
....|..|--- .... ....|--- .... ....|--- .... ....
....|..|--- .... ....|--- .... ....|--- .... ....
....|..|G-4 .F.F ....|--- .... ....|--- .... ....
....|..|--- .... ....|--- .... ....|--- .... ....
....|..|A-4 .F.F ....|--- .... ....|--- .... ....
....|..|--- .... ....|--- .... ....|--- .... ....
....|..|A#4 .F.F ....|--- .... ....|--- .... ....
....|..|--- .... ....|--- .... ....|--- .... ....
....|..|A#4 .F.F ....|G-3 .F.F ....|--- .... ....
....|..|--- .... ....|--- .... ....|--- .... ....
....|..|A#4 .F.F ....|G-3 .F3F ....|--- .... ....
....|..|--- .... ....|--- .... ....|--- .... ....
....|..|A#4 .F.F ....|G-3 .F4F ....|--- .... ....
....|..|--- .... ....|--- .... ....|--- .... ....
....|..|G-4 .F.A ....|D#4 .F.F ....|--- .... ....
....|..|--- .... ....|--- .... ....|--- .... ....
....|..|R-- .... ....|G-3 .F.F ....|--- .... ....
....|..|--- .... ....|--- .... ....|--- .... ....
....|..|A-4 .F.F ....|G-3 .F3F ....|--- .... ....
....|..|--- .... ....|--- .... ....|--- .... ....
....|..|A#4 .F.F ....|D#4 .F.F ....|--- .... ....
....|..|--- .... ....|--- .... ....|--- .... ....

[Pattern19]
....|..|C-5 .F.F ....|D-3 .F.F ....|--- .... ....
....|..|--- .... ....|--- .... ....|--- .... ....
....|..|C-5 .F.F ....|D-3 .F2F ....|--- .... ....
....|..|--- .... ....|--- .... ....|--- .... ....
....|..|C-5 .F.F ....|D-3 .F5F ....|--- .... ....
....|..|--- .... ....|--- .... ....|--- .... ....
....|..|C-5 .F.F ....|F#3 .F.F ....|--- .... ....
....|..|--- .... ....|--- .... ....|--- .... ....
....|..|A#4 .F.7 ....|G-3 .F3A ....|--- .... ....
....|..|--- .... ....|--- .... ....|--- .... ....
....|..|A#4 .F.7 ....|D-3 .F.F ....|--- .... ....
....|..|--- .... ....|--- .... ....|--- .... ....
....|..|A#4 .F.F ....|D-3 .F2F ....|--- .... ....
....|..|--- .... ....|--- .... ....|--- .... ....
....|..|C-5 .F.F ....|D-3 .F6F ....|--- .... ....
....|..|--- .... ....|--- .... ....|--- .... ....
....|..|A#4 .F.F ....|G-3 .F.F ....|--- .... ....
....|..|--- .... ....|--- .... ....|--- .... ....
....|..|A#4 .F.F ....|D-3 .F.F ....|--- .... ....
....|..|--- .... ....|--- .... ....|--- .... ....
....|..|A#4 .F.F ....|D-3 .F3F ....|--- .... ....
....|..|--- .... ....|--- .... ....|--- .... ....
....|..|A#4 .F.F ....|A#3 .F.F ....|--- .... ....
....|..|--- .... ....|--- .... ....|--- .... ....
....|..|C-5 .F.7 ....|D-3 .F.7 ....|--- .... ....
....|..|--- .... ....|--- .... ....|--- .... ....
....|..|C-5 .F.7 ....|D-3 .F.F ....|--- .... ....
....|..|--- .... ....|--- .... ....|--- .... ....
....|..|A#4 .F.F ....|D-3 .F3F ....|--- .... ....
....|..|--- .... ....|--- .... ....|--- .... ....
....|..|A#4 .F.F ....|A#3 .F.F ....|--- .... ....
....|..|--- .... ....|--- .... ....|--- .... ....
....|..|A#4 .F.F ....|G-3 .F.F ....|--- .... ....
....|..|--- .... ....|--- .... ....|--- .... ....
....|..|A#4 .F.F ....|D#3 .F.F ....|--- .... ....
....|..|--- .... ....|--- .... ....|--- .... ....
....|..|A#4 .F.F ....|D#3 .F2F ....|--- .... ....
....|..|--- .... ....|--- .... ....|--- .... ....
....|..|A#4 .F.F ....|D#3 .F6F ....|--- .... ....
....|..|--- .... ....|--- .... ....|--- .... ....
....|..|A#4 .F.7 ....|A#3 .F.F ....|--- .... ....
....|..|--- .... ....|--- .... ....|--- .... ....
....|..|A#4 .F.7 ....|D#3 .F.F ....|--- .... ....
....|..|--- .... ....|--- .... ....|--- .... ....
....|..|G-4 .F.F ....|D#3 .F2F ....|--- .... ....
....|..|--- .... ....|--- .... ....|--- .... ....
....|..|A-4 .F.F ....|A#3 .F.F ....|--- .... ....
....|..|--- .... ....|--- .... ....|--- .... ....
....|..|A#4 .F.F ....|G-3 .F.F ....|--- .... ....
....|..|--- .... ....|--- .... ....|--- .... ....
....|..|A#4 .F.F ....|G-3 .F3F ....|--- .... ....
....|..|--- .... ....|--- .... ....|--- .... ....
....|..|A#4 .F.F ....|G-3 .F4F ....|--- .... ....
....|..|--- .... ....|--- .... ....|--- .... ....
....|..|A#4 .F.F ....|C-4 .F.F ....|--- .... ....
....|..|--- .... ....|--- .... ....|--- .... ....
....|..|A#4 .F.7 ....|G-3 .F.7 ....|--- .... ....
....|..|--- .... ....|--- .... ....|--- .... ....
....|..|A#4 .F.7 ....|G-3 .F.F ....|--- .... ....
....|..|--- .... ....|--- .... ....|--- .... ....
....|..|A#4 .F.F ....|G-3 .F3F ....|--- .... ....
....|..|--- .... ....|--- .... ....|--- .... ....
....|..|A#4 .F.F ....|D#4 .F.F ....|--- .... ....
....|..|--- .... ....|--- .... ....|--- .... ....

[Pattern20]
....|..|C-5 .F.F ....|D-3 .F.F ....|--- .... ....
....|..|--- .... ....|--- .... ....|--- .... ....
....|..|C-5 .F.F ....|D-3 .F2F ....|--- .... ....
....|..|--- .... ....|--- .... ....|--- .... ....
....|..|C-5 .F.F ....|A-3 .F.F ....|--- .... ....
....|..|--- .... ....|--- .... ....|--- .... ....
....|..|C-5 .F.F ....|D-3 .F2F ....|--- .... ....
....|..|--- .... ....|--- .... ....|--- .... ....
....|..|A#4 .F.7 ....|F#3 .F.F ....|--- .... ....
....|..|--- .... ....|--- .... ....|--- .... ....
....|..|A#4 .F.7 ....|D-3 .F.F ....|--- .... ....
....|..|--- .... ....|--- .... ....|--- .... ....
....|..|C-5 .F.F ....|D-3 .F2F ....|--- .... ....
....|..|--- .... ....|--- .... ....|--- .... ....
....|..|A#4 .F.F ....|D-3 .F6F ....|--- .... ....
....|..|--- .... ....|--- .... ....|--- .... ....
....|..|A#4 .F.F ....|G-3 .F.F ....|--- .... ....
....|..|--- .... ....|--- .... ....|--- .... ....
....|..|A#4 .F.F ....|D-3 .F.F ....|--- .... ....
....|..|--- .... ....|--- .... ....|--- .... ....
....|..|A#4 .F.F ....|D-3 .F3F ....|--- .... ....
....|..|--- .... ....|--- .... ....|--- .... ....
....|..|A#4 .F.F ....|D-3 .F4F ....|--- .... ....
....|..|--- .... ....|--- .... ....|--- .... ....
....|..|C-5 .F.7 ....|A#3 .F.F ....|--- .... ....
....|..|--- .... ....|--- .... ....|--- .... ....
....|..|C-5 .F.7 ....|D-3 .F.F ....|--- .... ....
....|..|--- .... ....|--- .... ....|--- .... ....
....|..|A#4 .F.F ....|D-3 .F3F ....|--- .... ....
....|..|--- .... ....|--- .... ....|--- .... ....
....|..|C-5 .F.F ....|A#3 .F.F ....|--- .... ....
....|..|--- .... ....|--- .... ....|--- .... ....
....|..|A#4 .F.F ....|G-3 .F.F ....|--- .... ....
....|..|--- .... ....|--- .... ....|--- .... ....
....|..|A-4 .F.F ....|D#3 .F.F ....|--- .... ....
....|..|--- .... ....|--- .... ....|--- .... ....
....|..|A-4 .F.F ....|D#3 .F2F ....|--- .... ....
....|..|--- .... ....|--- .... ....|--- .... ....
....|..|G-4 .F.F ....|D#3 .F6F ....|--- .... ....
....|..|--- .... ....|--- .... ....|--- .... ....
....|..|A#4 .F.7 ....|A#3 .F.F ....|--- .... ....
....|..|--- .... ....|--- .... ....|--- .... ....
....|..|A#4 .F.7 ....|D#3 .F.F ....|--- .... ....
....|..|--- .... ....|--- .... ....|--- .... ....
....|..|G-4 .F.F ....|G-3 .F.F ....|--- .... ....
....|..|--- .... ....|--- .... ....|--- .... ....
....|..|A-4 .F.F ....|A#3 .F.F ....|--- .... ....
....|..|--- .... ....|--- .... ....|--- .... ....
....|..|A#4 .F.F ....|A#3 .F.7 ....|--- .... ....
....|..|--- .... ....|--- .... ....|--- .... ....
....|..|A#4 .F.F ....|G-3 .F.F ....|--- .... ....
....|..|--- .... ....|--- .... ....|--- .... ....
....|..|A#4 .F.F ....|G-3 .F3F ....|--- .... ....
....|..|--- .... ....|--- .... ....|--- .... ....
....|..|A#4 .F.F ....|G-3 .F4F ....|--- .... ....
....|..|--- .... ....|--- .... ....|--- .... ....
....|..|A#4 .F.7 ....|D#4 .F.F ....|--- .... ....
....|..|--- .... ....|--- .... ....|--- .... ....
....|..|A-4 .F.7 ....|G-3 .F.F ....|--- .... ....
....|..|--- .... ....|--- .... ....|--- .... ....
....|..|A#4 .F.F ....|G-3 .F3F ....|--- .... ....
....|..|--- .... ....|--- .... ....|--- .... ....
....|..|A#4 .F.F ....|D#4 .F.F ....|--- .... ....
....|..|--- .... ....|--- .... ....|--- .... ....

[Pattern21]
....|..|C-5 .F.F ....|D-3 .F.F ....|--- .... ....
....|..|--- .... ....|--- .... ....|--- .... ....
....|..|C-5 .F.F ....|D-3 .F2F ....|--- .... ....
....|..|--- .... ....|--- .... ....|--- .... ....
....|..|C-5 .F.F ....|D-3 .F5F ....|--- .... ....
....|..|--- .... ....|--- .... ....|--- .... ....
....|..|C-5 .F.F ....|F#3 .F.F ....|--- .... ....
....|..|--- .... ....|--- .... ....|--- .... ....
....|..|A#4 .F.7 ....|R-- .... ....|--- .... ....
....|..|--- .... ....|--- .... ....|--- .... ....
....|..|A#4 .F.7 ....|D-3 .F.F ....|--- .... ....
....|..|--- .... ....|--- .... ....|--- .... ....
....|..|A#4 .F.F ....|D-3 .F2F ....|--- .... ....
....|..|--- .... ....|--- .... ....|--- .... ....
....|..|C-5 .F.F ....|D-3 .F6F ....|--- .... ....
....|..|--- .... ....|--- .... ....|--- .... ....
....|..|A#4 .F.F ....|G-3 .F.F ....|--- .... ....
....|..|--- .... ....|--- .... ....|--- .... ....
....|..|A#4 .F.F ....|D-3 .F.F ....|--- .... ....
....|..|--- .... ....|--- .... ....|--- .... ....
....|..|A#4 .F.F ....|D-3 .F3F ....|--- .... ....
....|..|--- .... ....|--- .... ....|--- .... ....
....|..|A#4 .F.F ....|A#3 .F.F ....|--- .... ....
....|..|--- .... ....|--- .... ....|--- .... ....
....|..|C-5 .F.7 ....|D-3 .F.7 ....|--- .... ....
....|..|--- .... ....|--- .... ....|--- .... ....
....|..|C-5 .F.7 ....|D-3 .F.F ....|--- .... ....
....|..|--- .... ....|--- .... ....|--- .... ....
....|..|A#4 .F.F ....|D-3 .F3F ....|--- .... ....
....|..|--- .... ....|--- .... ....|--- .... ....
....|..|C-5 .F.F ....|A#3 .F.F ....|--- .... ....
....|..|--- .... ....|--- .... ....|--- .... ....
....|..|A#4 .F.F ....|G-3 .F.F ....|--- .... ....
....|..|--- .... ....|--- .... ....|--- .... ....
....|..|A-4 .F.F ....|D#3 .F.F ....|--- .... ....
....|..|--- .... ....|--- .... ....|--- .... ....
....|..|A-4 .F.F ....|D#3 .F2F ....|--- .... ....
....|..|--- .... ....|--- .... ....|--- .... ....
....|..|G-4 .F.F ....|D#3 .F6F ....|--- .... ....
....|..|--- .... ....|--- .... ....|--- .... ....
....|..|A#4 .F.7 ....|A#3 .F.F ....|--- .... ....
....|..|--- .... ....|--- .... ....|--- .... ....
....|..|A#4 .F.7 ....|D#3 .F.F ....|--- .... ....
....|..|--- .... ....|--- .... ....|--- .... ....
....|..|G-4 .F.F ....|D#3 .F2F ....|--- .... ....
....|..|--- .... ....|--- .... ....|--- .... ....
....|..|A-4 .F.F ....|A#3 .F.F ....|--- .... ....
....|..|--- .... ....|--- .... ....|--- .... ....
....|..|A#4 .F.F ....|G-3 .F.F ....|--- .... ....
....|..|--- .... ....|--- .... ....|--- .... ....
....|..|A#4 .F.F ....|G-3 .F3F ....|--- .... ....
....|..|--- .... ....|--- .... ....|--- .... ....
....|..|A#4 .F.F ....|G-3 .F4F ....|--- .... ....
....|..|--- .... ....|--- .... ....|--- .... ....
....|..|A#4 .F.F ....|C-4 .F.F ....|--- .... ....
....|..|--- .... ....|--- .... ....|--- .... ....
....|..|A#4 .F.7 ....|G-3 .F.7 ....|--- .... ....
....|..|--- .... ....|--- .... ....|--- .... ....
....|..|A-4 .F.7 ....|G-3 .F.F ....|--- .... ....
....|..|--- .... ....|--- .... ....|--- .... ....
....|..|A#4 .F.F ....|G-3 .F3F ....|--- .... ....
....|..|--- .... ....|--- .... ....|--- .... ....
....|..|A#4 .F.F ....|D#4 .F.F ....|--- .... ....
....|..|--- .... ....|--- .... ....|--- .... ....

[Pattern22]
....|..|C-5 .F.F ....|D-3 .F.F ....|--- .... ....
....|..|--- .... ....|--- .... ....|--- .... ....
....|..|C-5 .F.F ....|D-3 .F2F ....|--- .... ....
....|..|--- .... ....|--- .... ....|--- .... ....
....|..|C-5 .F.F ....|A-3 .F.F ....|--- .... ....
....|..|--- .... ....|--- .... ....|--- .... ....
....|..|C-5 .F.F ....|D-3 .F2F ....|--- .... ....
....|..|--- .... ....|--- .... ....|--- .... ....
....|..|A#4 .F.7 ....|F#3 .F.F ....|--- .... ....
....|..|--- .... ....|--- .... ....|--- .... ....
....|..|A#4 .F.7 ....|D-3 .F.F ....|--- .... ....
....|..|--- .... ....|--- .... ....|--- .... ....
....|..|A#4 .F.F ....|D-3 .F2F ....|--- .... ....
....|..|--- .... ....|--- .... ....|--- .... ....
....|..|C-5 .F.F ....|D-3 .F6F ....|--- .... ....
....|..|--- .... ....|--- .... ....|--- .... ....
....|..|A#4 .F.F ....|G-3 .F.F ....|--- .... ....
....|..|--- .... ....|--- .... ....|--- .... ....
....|..|A#4 .F.F ....|D-3 .F.F ....|--- .... ....
....|..|--- .... ....|--- .... ....|--- .... ....
....|..|A#4 .F.F ....|D-3 .F3F ....|--- .... ....
....|..|--- .... ....|--- .... ....|--- .... ....
....|..|A#4 .F.F ....|D-3 .F4F ....|--- .... ....
....|..|--- .... ....|--- .... ....|--- .... ....
....|..|C-5 .F.7 ....|A#3 .F.F ....|--- .... ....
....|..|--- .... ....|--- .... ....|--- .... ....
....|..|C-5 .F.7 ....|D-3 .F.F ....|--- .... ....
....|..|--- .... ....|--- .... ....|--- .... ....
....|..|D-5 .F.F ....|D-3 .F3F ....|--- .... ....
....|..|--- .... ....|--- .... ....|--- .... ....
....|..|D-5 .F.F ....|A#3 .F.F ....|--- .... ....
....|..|--- .... ....|--- .... ....|--- .... ....
....|..|D-5 .F.F ....|G-3 .F.F ....|--- .... ....
....|..|--- .... ....|--- .... ....|--- .... ....
....|..|D-5 .F.F ....|D#3 .F.F ....|--- .... ....
....|..|--- .... ....|--- .... ....|--- .... ....
....|..|C-5 .F.F ....|D#3 .F2F ....|--- .... ....
....|..|--- .... ....|--- .... ....|--- .... ....
....|..|D-5 .F.F ....|D#3 .F6F ....|--- .... ....
....|..|--- .... ....|--- .... ....|--- .... ....
....|..|A#4 .F.7 ....|A#3 .F.F ....|--- .... ....
....|..|--- .... ....|--- .... ....|--- .... ....
....|..|A#4 .F.7 ....|D#3 .F.F ....|--- .... ....
....|..|--- .... ....|--- .... ....|--- .... ....
....|..|A#4 .F.7 ....|G-3 .F.F ....|--- .... ....
....|..|--- .... ....|--- .... ....|--- .... ....
....|..|A#4 .F.7 ....|A#3 .F.F ....|--- .... ....
....|..|--- .... ....|--- .... ....|--- .... ....
....|..|A#4 .F.F ....|A#3 .F.7 ....|C-4 .F.F ....
....|..|--- .... ....|--- .... ....|--- .... ....
....|..|A#4 .F.F ....|D-3 .F.7 ....|--- .... ....
....|..|--- .... ....|--- .... ....|--- .... ....
....|..|A#4 .F.F ....|D-3 .F37 ....|--- .... ....
....|..|--- .... ....|--- .... ....|--- .... ....
....|..|A#4 .F.F ....|A#3 .F.7 ....|--- .... ....
....|..|--- .... ....|--- .... ....|--- .... ....
....|..|A#4 .F.F ....|G-3 .F.7 ....|--- .... ....
....|..|--- .... ....|--- .... ....|--- .... ....
....|..|D-5 .F.7 ....|D#3 .F.7 ....|--- .... ....
....|..|--- .... ....|--- .... ....|--- .... ....
....|..|A#4 .F.F ....|D#3 .F27 ....|C-4 .F.A ....
....|..|--- .... ....|--- .... ....|--- .... ....
....|..|A#4 .F.F ....|D#3 .F67 ....|--- .... ....
....|..|--- .... ....|--- .... ....|--- .... ....

[Pattern23]
....|..|A-4 .F.F ....|A#3 .F.7 ....|D-3 .F5F ....
....|..|--- .... ....|--- .... ....|--- .... ....
....|..|A-4 .F.F ....|D#3 .F.7 ....|--- .... ....
....|..|--- .... ....|--- .... ....|--- .... ....
....|..|A-4 .F.F ....|G-3 .F.7 ....|--- .... ....
....|..|--- .... ....|--- .... ....|--- .... ....
....|..|R-- .... ....|A#3 .F.7 ....|--- .... ....
....|..|--- .... ....|--- .... ....|--- .... ....
....|..|A-4 .F.F ....|R-- .... ....|C-4 .F.7 ....
....|..|--- .... ....|--- .... ....|--- .... ....
....|..|G-4 .F.F ....|--- .... ....|--- .... ....
....|..|--- .... ....|--- .... ....|--- .... ....
....|..|A-4 .F.F ....|--- .... ....|D-3 .F5A ....
....|..|--- .... ....|--- .... ....|--- .... ....
....|..|G-4 .F.F ....|--- .... ....|--- .... ....
....|..|--- .... ....|--- .... ....|--- .... ....
....|..|A#4 .F.F ....|--- .... ....|D-3 .F7F ....
....|..|--- .... ....|--- .... ....|--- .... ....
....|..|R-- .... ....|--- .... ....|--- .... ....
....|..|--- .... ....|--- .... ....|--- .... ....
....|..|A#4 .F.F ....|--- .... ....|--- .... ....
....|..|--- .... ....|--- .... ....|--- .... ....
....|..|A#4 .F.F ....|--- .... ....|--- .... ....
....|..|--- .... ....|--- .... ....|--- .... ....
....|..|A#4 .F.F ....|--- .... ....|D-3 .F57 ....
....|..|--- .... ....|--- .... ....|--- .... ....
....|..|A-4 .F.F ....|--- .... ....|--- .... ....
....|..|--- .... ....|--- .... ....|--- .... ....
....|..|A#4 .F.F ....|--- .... ....|D-3 .F7A ....
....|..|--- .... ....|--- .... ....|--- .... ....
....|..|R-- .... ....|--- .... ....|--- .... ....
....|..|--- .... ....|--- .... ....|--- .... ....
....|..|D-5 .F.F ....|--- .... ....|D#3 .F5F ....
....|..|--- .... ....|--- .... ....|--- .... ....
....|..|D-5 .F.F ....|--- .... ....|--- .... ....
....|..|--- .... ....|--- .... ....|--- .... ....
....|..|D-5 .F.F ....|--- .... ....|--- .... ....
....|..|--- .... ....|--- .... ....|--- .... ....
....|..|C-5 .F.F ....|--- .... ....|--- .... ....
....|..|--- .... ....|--- .... ....|--- .... ....
....|..|D-5 .F.F ....|--- .... ....|D-3 .F77 ....
....|..|--- .... ....|--- .... ....|--- .... ....
....|..|R-- .... ....|--- .... ....|--- .... ....
....|..|--- .... ....|--- .... ....|--- .... ....
....|..|A#4 .F.7 ....|--- .... ....|D#3 .F5A ....
....|..|--- .... ....|--- .... ....|--- .... ....
....|..|A#4 .F.7 ....|--- .... ....|--- .... ....
....|..|--- .... ....|--- .... ....|--- .... ....
....|..|A#4 .F.F ....|--- .... ....|D#3 .F8F ....
....|..|--- .... ....|--- .... ....|--- .... ....
....|..|A#4 .F.F ....|--- .... ....|--- .... ....
....|..|--- .... ....|--- .... ....|--- .... ....
....|..|A#4 .F.F ....|--- .... ....|--- .... ....
....|..|--- .... ....|--- .... ....|--- .... ....
....|..|A#4 .F.F ....|--- .... ....|--- .... ....
....|..|--- .... ....|--- .... ....|--- .... ....
....|..|A#4 .F.F ....|--- .... ....|D#3 .F57 ....
....|..|--- .... ....|--- .... ....|--- .... ....
....|..|D-5 .F.7 ....|--- .... ....|--- .... ....
....|..|--- .... ....|--- .... ....|--- .... ....
....|..|A#4 .F.F ....|--- .... ....|D#3 .F8A ....
....|..|--- .... ....|--- .... ....|--- .... ....
....|..|A#4 .F.F ....|--- .... ....|--- .... ....
....|..|--- .... ....|--- .... ....|--- .... ....

[Pattern25]
....|..|C-5 .F.F ....|--- .... ....|D-3 .F5F ....
....|..|--- .... ....|--- .... ....|--- .... ....
....|..|--- .... ....|--- .... ....|--- .... ....
....|..|R-- .... ....|--- .... ....|--- .... ....
....|..|R-- .... ....|--- .... ....|--- .... ....
....|..|--- .... ....|--- .... ....|--- .... ....
....|..|R-- .... ....|--- .... ....|--- .... ....
....|..|--- .... ....|--- .... ....|--- .... ....
....|..|C-5 .F.F ....|--- .... ....|D#3 .F87 ....
....|..|--- .... ....|--- .... ....|--- .... ....
....|..|--- .... ....|--- .... ....|--- .... ....
....|..|R-- .... ....|--- .... ....|--- .... ....
....|..|C-5 .F.F ....|--- .... ....|D-3 .F5A ....
....|..|--- .... ....|--- .... ....|--- .... ....
....|..|--- .... ....|--- .... ....|--- .... ....
....|..|R-- .... ....|--- .... ....|--- .... ....
....|..|A#4 .F.7 ....|--- .... ....|D-3 .F7F ....
....|..|--- .... ....|--- .... ....|--- .... ....
....|..|R-- .... ....|--- .... ....|--- .... ....
....|..|--- .... ....|--- .... ....|--- .... ....
....|..|A#4 .F.F ....|--- .... ....|--- .... ....
....|..|--- .... ....|--- .... ....|--- .... ....
....|..|--- .... ....|--- .... ....|--- .... ....
....|..|R-- .... ....|--- .... ....|--- .... ....
....|..|C-5 .F.7 ....|--- .... ....|D-3 .F57 ....
....|..|--- .... ....|--- .... ....|--- .... ....
....|..|--- .... ....|--- .... ....|--- .... ....
....|..|R-- .... ....|--- .... ....|--- .... ....
....|..|C-5 .F.F ....|--- .... ....|D-3 .F7A ....
....|..|--- .... ....|--- .... ....|--- .... ....
....|..|R-- .... ....|--- .... ....|--- .... ....
....|..|--- .... ....|--- .... ....|--- .... ....
....|..|C-5 .F.7 ....|--- .... ....|D#3 .F5F ....
....|..|--- .... ....|--- .... ....|--- .... ....
....|..|--- .... ....|--- .... ....|--- .... ....
....|..|R-- .... ....|--- .... ....|--- .... ....
....|..|A#4 .F.F ....|--- .... ....|--- .... ....
....|..|--- .... ....|--- .... ....|--- .... ....
....|..|--- .... ....|--- .... ....|--- .... ....
....|..|R-- .... ....|--- .... ....|--- .... ....
....|..|C-5 .F.A ....|--- .... ....|D-3 .F77 ....
....|..|--- .... ....|--- .... ....|--- .... ....
....|..|--- .... ....|--- .... ....|--- .... ....
....|..|R-- .... ....|--- .... ....|--- .... ....
....|..|A#4 .F.7 ....|--- .... ....|D#3 .F5A ....
....|..|--- .... ....|--- .... ....|--- .... ....
....|..|--- .... ....|--- .... ....|--- .... ....
....|..|--- .... ....|--- .... ....|--- .... ....
....|..|D-5 .F.F ....|--- .... ....|D#3 .F8F ....
....|..|--- .... ....|--- .... ....|--- .... ....
....|..|--- .... ....|--- .... ....|--- .... ....
....|..|R-- .... ....|--- .... ....|--- .... ....
....|..|C-5 .F.7 ....|--- .... ....|--- .... ....
....|..|R-- .... ....|--- .... ....|--- .... ....
....|..|--- .... ....|--- .... ....|--- .... ....
....|..|R-- .... ....|--- .... ....|--- .... ....
....|..|D-5 .F.F ....|--- .... ....|D#3 .F57 ....
....|..|--- .... ....|--- .... ....|--- .... ....
....|..|--- .... ....|--- .... ....|--- .... ....
....|..|--- .... ....|--- .... ....|--- .... ....
....|..|A#4 .F.7 ....|--- .... ....|D#3 .F8A ....
....|..|--- .... ....|--- .... ....|--- .... ....
....|..|R-- .... ....|--- .... ....|--- .... ....
....|..|--- .... ....|--- .... ....|--- .... ....

[Pattern26]
....|..|D#5 .F.F ....|--- .... ....|D-3 .F5F ....
....|..|R-- .... ....|--- .... ....|--- .... ....
....|..|--- .... ....|--- .... ....|--- .... ....
....|..|R-- .... ....|--- .... ....|--- .... ....
....|..|D-5 .F.A ....|--- .... ....|--- .... ....
....|..|--- .... ....|--- .... ....|--- .... ....
....|..|--- .... ....|--- .... ....|--- .... ....
....|..|R-- .... ....|--- .... ....|--- .... ....
....|..|D#5 .F.F ....|--- .... ....|D#3 .F87 ....
....|..|--- .... ....|--- .... ....|--- .... ....
....|..|R-- .... ....|--- .... ....|--- .... ....
....|..|R-- .... ....|--- .... ....|--- .... ....
....|..|D#5 .F.F ....|--- .... ....|D-3 .F5A ....
....|..|R-- .... ....|--- .... ....|--- .... ....
....|..|--- .... ....|--- .... ....|--- .... ....
....|..|--- .... ....|--- .... ....|--- .... ....
....|..|D-5 .F.7 ....|--- .... ....|D-3 .F7F ....
....|..|--- .... ....|--- .... ....|--- .... ....
....|..|--- .... ....|--- .... ....|--- .... ....
....|..|R-- .... ....|--- .... ....|--- .... ....
....|..|D-5 .F.F ....|--- .... ....|--- .... ....
....|..|--- .... ....|--- .... ....|--- .... ....
....|..|R-- .... ....|--- .... ....|--- .... ....
....|..|R-- .... ....|--- .... ....|--- .... ....
....|..|D#5 .F.7 ....|--- .... ....|D-3 .F57 ....
....|..|--- .... ....|--- .... ....|--- .... ....
....|..|--- .... ....|--- .... ....|--- .... ....
....|..|--- .... ....|--- .... ....|--- .... ....
....|..|D-5 .F.F ....|--- .... ....|D-3 .F7A ....
....|..|--- .... ....|--- .... ....|--- .... ....
....|..|C-4 .F1F ....|--- .... ....|--- .... ....
....|..|R-- .... ....|--- .... ....|--- .... ....
....|..|D-5 .F.F ....|--- .... ....|G-3 .F9F ....
....|..|--- .... ....|--- .... ....|--- .... ....
....|..|C-4 .F1F ....|--- .... ....|--- .... ....
....|..|C-4 .F1F ....|--- .... ....|--- .... ....
....|..|A#4 .F2F ....|--- .... ....|--- .... ....
....|..|--- .... ....|--- .... ....|--- .... ....
....|..|A#4 .F.F ....|--- .... ....|--- .... ....
....|..|R-- .... ....|--- .... ....|--- .... ....
....|..|D-5 .F.A ....|--- .... ....|D-3 .F77 ....
....|..|--- .... ....|--- .... ....|--- .... ....
....|..|C-4 .F1A ....|--- .... ....|--- .... ....
....|..|--- .... ....|--- .... ....|--- .... ....
....|..|D-5 .F.7 ....|--- .... ....|G-3 .F9A ....
....|..|--- .... ....|--- .... ....|--- .... ....
....|..|C-4 .F1A ....|--- .... ....|--- .... ....
....|..|C-4 .F1A ....|--- .... ....|--- .... ....
....|..|A#4 .F2A ....|--- .... ....|C-4 .F.F ....
....|..|--- .... ....|--- .... ....|--- .... ....
....|..|A#4 .F.A ....|--- .... ....|--- .... ....
....|..|R-- .... ....|--- .... ....|--- .... ....
....|..|D-5 .F.7 ....|--- .... ....|--- .... ....
....|..|--- .... ....|--- .... ....|--- .... ....
....|..|C-4 .F17 ....|--- .... ....|--- .... ....
....|..|--- .... ....|--- .... ....|--- .... ....
....|..|D-5 .F.7 ....|--- .... ....|G-3 .F97 ....
....|..|--- .... ....|--- .... ....|--- .... ....
....|..|C-4 .F17 ....|--- .... ....|--- .... ....
....|..|C-4 .F17 ....|--- .... ....|--- .... ....
....|..|A#4 .F27 ....|--- .... ....|C-4 .F.A ....
....|..|--- .... ....|--- .... ....|--- .... ....
....|..|A#4 .F.7 ....|--- .... ....|--- .... ....
....|..|R-- .... ....|--- .... ....|--- .... ....

[Pattern27]
....|..|--- .... ....|--- .... ....|D-3 .F5F ....
....|..|--- .... ....|--- .... ....|--- .... ....
....|..|--- .... ....|--- .... ....|--- .... ....
....|..|--- .... ....|--- .... ....|--- .... ....
....|..|--- .... ....|--- .... ....|--- .... ....
....|..|--- .... ....|--- .... ....|--- .... ....
....|..|--- .... ....|--- .... ....|--- .... ....
....|..|--- .... ....|--- .... ....|--- .... ....
....|..|--- .... ....|--- .... ....|C-4 .F.7 ....
....|..|--- .... ....|--- .... ....|--- .... ....
....|..|--- .... ....|--- .... ....|--- .... ....
....|..|--- .... ....|--- .... ....|--- .... ....
....|..|--- .... ....|--- .... ....|D-3 .F5A ....
....|..|--- .... ....|--- .... ....|--- .... ....
....|..|--- .... ....|--- .... ....|--- .... ....
....|..|--- .... ....|--- .... ....|--- .... ....
....|..|--- .... ....|--- .... ....|D-3 .F7F ....
....|..|--- .... ....|--- .... ....|--- .... ....
....|..|--- .... ....|--- .... ....|--- .... ....
....|..|--- .... ....|--- .... ....|--- .... ....
....|..|--- .... ....|--- .... ....|--- .... ....
....|..|--- .... ....|--- .... ....|--- .... ....
....|..|--- .... ....|--- .... ....|--- .... ....
....|..|--- .... ....|--- .... ....|--- .... ....
....|..|--- .... ....|--- .... ....|D-3 .F57 ....
....|..|--- .... ....|--- .... ....|--- .... ....
....|..|--- .... ....|--- .... ....|--- .... ....
....|..|--- .... ....|--- .... ....|--- .... ....
....|..|--- .... ....|--- .... ....|D-3 .F7A ....
....|..|--- .... ....|--- .... ....|--- .... ....
....|..|--- .... ....|--- .... ....|--- .... ....
....|..|--- .... ....|--- .... ....|--- .... ....
....|..|--- .... ....|--- .... ....|D#3 .F5F ....
....|..|--- .... ....|--- .... ....|--- .... ....
....|..|--- .... ....|--- .... ....|--- .... ....
....|..|--- .... ....|--- .... ....|--- .... ....
....|..|--- .... ....|--- .... ....|--- .... ....
....|..|--- .... ....|--- .... ....|--- .... ....
....|..|--- .... ....|--- .... ....|--- .... ....
....|..|--- .... ....|--- .... ....|--- .... ....
....|..|--- .... ....|--- .... ....|D-3 .F77 ....
....|..|--- .... ....|--- .... ....|--- .... ....
....|..|--- .... ....|--- .... ....|--- .... ....
....|..|--- .... ....|--- .... ....|--- .... ....
....|..|--- .... ....|--- .... ....|D#3 .F5A ....
....|..|--- .... ....|--- .... ....|--- .... ....
....|..|--- .... ....|--- .... ....|--- .... ....
....|..|--- .... ....|--- .... ....|--- .... ....
....|..|--- .... ....|--- .... ....|D#3 .F8F ....
....|..|--- .... ....|--- .... ....|--- .... ....
....|..|--- .... ....|--- .... ....|--- .... ....
....|..|--- .... ....|--- .... ....|--- .... ....
....|..|--- .... ....|--- .... ....|--- .... ....
....|..|--- .... ....|--- .... ....|--- .... ....
....|..|--- .... ....|--- .... ....|--- .... ....
....|..|--- .... ....|--- .... ....|--- .... ....
....|..|--- .... ....|--- .... ....|D#3 .F57 ....
....|..|--- .... ....|--- .... ....|--- .... ....
....|..|--- .... ....|--- .... ....|--- .... ....
....|..|--- .... ....|--- .... ....|--- .... ....
....|..|--- .... ....|--- .... ....|D#3 .F8A ....
....|..|--- .... ....|--- .... ....|--- .... ....
....|..|--- .... ....|--- .... ....|--- .... ....
....|..|--- .... ....|--- .... ....|--- .... ....

[Pattern28]
....|..|--- .... ....|--- .... ....|D-3 .F5F ....
....|..|--- .... ....|--- .... ....|--- .... ....
....|..|--- .... ....|--- .... ....|--- .... ....
....|..|--- .... ....|--- .... ....|--- .... ....
....|..|--- .... ....|--- .... ....|--- .... ....
....|..|--- .... ....|--- .... ....|--- .... ....
....|..|--- .... ....|--- .... ....|--- .... ....
....|..|--- .... ....|--- .... ....|--- .... ....
....|..|--- .... ....|--- .... ....|D#3 .F87 ....
....|..|--- .... ....|--- .... ....|--- .... ....
....|..|--- .... ....|--- .... ....|--- .... ....
....|..|--- .... ....|--- .... ....|--- .... ....
....|..|--- .... ....|--- .... ....|D-3 .F5A ....
....|..|--- .... ....|--- .... ....|--- .... ....
....|..|--- .... ....|--- .... ....|--- .... ....
....|..|--- .... ....|--- .... ....|--- .... ....
....|..|--- .... ....|--- .... ....|D-3 .F7F ....
....|..|--- .... ....|--- .... ....|--- .... ....
....|..|--- .... ....|--- .... ....|--- .... ....
....|..|--- .... ....|--- .... ....|--- .... ....
....|..|--- .... ....|--- .... ....|--- .... ....
....|..|--- .... ....|--- .... ....|--- .... ....
....|..|--- .... ....|--- .... ....|--- .... ....
....|..|--- .... ....|--- .... ....|--- .... ....
....|..|--- .... ....|--- .... ....|D-3 .F57 ....
....|..|--- .... ....|--- .... ....|--- .... ....
....|..|--- .... ....|--- .... ....|--- .... ....
....|..|--- .... ....|--- .... ....|--- .... ....
....|..|--- .... ....|--- .... ....|D-3 .F7A ....
....|..|--- .... ....|--- .... ....|--- .... ....
....|..|--- .... ....|--- .... ....|--- .... ....
....|..|--- .... ....|--- .... ....|--- .... ....
....|..|--- .... ....|--- .... ....|D#3 .F5F ....
....|..|--- .... ....|--- .... ....|--- .... ....
....|..|--- .... ....|--- .... ....|--- .... ....
....|..|--- .... ....|--- .... ....|--- .... ....
....|..|--- .... ....|--- .... ....|--- .... ....
....|..|--- .... ....|--- .... ....|--- .... ....
....|..|--- .... ....|--- .... ....|--- .... ....
....|..|--- .... ....|--- .... ....|--- .... ....
....|..|--- .... ....|--- .... ....|D-3 .F77 ....
....|..|--- .... ....|--- .... ....|--- .... ....
....|..|--- .... ....|--- .... ....|--- .... ....
....|..|--- .... ....|--- .... ....|--- .... ....
....|..|--- .... ....|--- .... ....|D#3 .F5A ....
....|..|--- .... ....|--- .... ....|--- .... ....
....|..|--- .... ....|--- .... ....|--- .... ....
....|..|--- .... ....|--- .... ....|--- .... ....
....|..|--- .... ....|--- .... ....|D#3 .F8F ....
....|..|--- .... ....|--- .... ....|--- .... ....
....|..|--- .... ....|G-3 .F.F ....|--- .... ....
....|..|--- .... ....|--- .... ....|--- .... ....
....|..|--- .... ....|G-3 .F3F ....|--- .... ....
....|..|--- .... ....|--- .... ....|--- .... ....
....|..|--- .... ....|D#4 .F.F ....|--- .... ....
....|..|--- .... ....|--- .... ....|--- .... ....
....|..|--- .... ....|--- .... ....|D#3 .F57 ....
....|..|--- .... ....|--- .... ....|--- .... ....
....|..|--- .... ....|G-3 .F.F ....|--- .... ....
....|..|--- .... ....|--- .... ....|--- .... ....
....|..|--- .... ....|G-3 .F3F ....|D#3 .F8A ....
....|..|--- .... ....|--- .... ....|--- .... ....
....|..|--- .... ....|D#4 .F.F ....|--- .... ....
....|..|--- .... ....|--- .... ....|--- .... ....

[Pattern29]
....|..|--- .... ....|R-- .... ....|D-3 .F5F ....
....|..|--- .... ....|--- .... ....|--- .... ....
....|..|--- .... ....|D-3 .F.F ....|--- .... ....
....|..|--- .... ....|--- .... ....|--- .... ....
....|..|--- .... ....|D-3 .F2F ....|--- .... ....
....|..|--- .... ....|--- .... ....|--- .... ....
....|..|--- .... ....|A-3 .F.F ....|--- .... ....
....|..|--- .... ....|--- .... ....|--- .... ....
....|..|--- .... ....|G-3 .F3A ....|D#3 .F87 ....
....|..|--- .... ....|--- .... ....|--- .... ....
....|..|--- .... ....|D-3 .F.F ....|--- .... ....
....|..|--- .... ....|--- .... ....|--- .... ....
....|..|--- .... ....|D-3 .F2F ....|D-3 .F5A ....
....|..|--- .... ....|--- .... ....|--- .... ....
....|..|--- .... ....|A-3 .F.F ....|--- .... ....
....|..|--- .... ....|--- .... ....|--- .... ....
....|..|--- .... ....|R-- .... ....|D-3 .F7F ....
....|..|--- .... ....|--- .... ....|--- .... ....
....|..|--- .... ....|D-3 .F.F ....|--- .... ....
....|..|--- .... ....|--- .... ....|--- .... ....
....|..|--- .... ....|G-3 .F.F ....|--- .... ....
....|..|--- .... ....|--- .... ....|--- .... ....
....|..|--- .... ....|A#3 .F.F ....|--- .... ....
....|..|--- .... ....|--- .... ....|--- .... ....
....|..|--- .... ....|R-- .... ....|D-3 .F57 ....
....|..|--- .... ....|--- .... ....|--- .... ....
....|..|--- .... ....|D-3 .F.F ....|--- .... ....
....|..|--- .... ....|--- .... ....|--- .... ....
....|..|--- .... ....|D-3 .F3F ....|D-3 .F7A ....
....|..|--- .... ....|--- .... ....|--- .... ....
....|..|--- .... ....|A#3 .F.F ....|--- .... ....
....|..|--- .... ....|--- .... ....|--- .... ....
....|..|--- .... ....|R-- .... ....|D#3 .F5F ....
....|..|--- .... ....|--- .... ....|--- .... ....
....|..|--- .... ....|D#3 .F.F ....|--- .... ....
....|..|--- .... ....|--- .... ....|--- .... ....
....|..|--- .... ....|G-3 .F.F ....|--- .... ....
....|..|--- .... ....|--- .... ....|--- .... ....
....|..|--- .... ....|A#3 .F.F ....|--- .... ....
....|..|--- .... ....|--- .... ....|--- .... ....
....|..|--- .... ....|R-- .... ....|D-3 .F77 ....
....|..|--- .... ....|--- .... ....|--- .... ....
....|..|--- .... ....|D#3 .F.F ....|--- .... ....
....|..|--- .... ....|--- .... ....|--- .... ....
....|..|--- .... ....|G-3 .F.F ....|D#3 .F5A ....
....|..|--- .... ....|--- .... ....|--- .... ....
....|..|--- .... ....|A#3 .F.F ....|--- .... ....
....|..|--- .... ....|--- .... ....|--- .... ....
....|..|--- .... ....|R-- .... ....|D#3 .F8F ....
....|..|--- .... ....|--- .... ....|--- .... ....
....|..|--- .... ....|G-3 .F.F ....|--- .... ....
....|..|--- .... ....|--- .... ....|--- .... ....
....|..|--- .... ....|C-4 .F.F ....|--- .... ....
....|..|--- .... ....|--- .... ....|--- .... ....
....|..|--- .... ....|D#4 .F.F ....|--- .... ....
....|..|--- .... ....|--- .... ....|--- .... ....
....|..|--- .... ....|R-- .... ....|D#3 .F57 ....
....|..|--- .... ....|--- .... ....|--- .... ....
....|..|--- .... ....|C-4 .F.F ....|--- .... ....
....|..|--- .... ....|--- .... ....|--- .... ....
....|..|--- .... ....|G-3 .F.F ....|D#3 .F8A ....
....|..|--- .... ....|--- .... ....|--- .... ....
....|..|--- .... ....|C-4 .F.F ....|--- .... ....
....|..|--- .... ....|--- .... ....|--- .... ....

[Pattern30]
....|..|--- .... ....|D-3 .F.F ....|D-3 .F5F ....
....|..|--- .... ....|--- .... ....|--- .... ....
....|..|--- .... ....|D-3 .F2F ....|--- .... ....
....|..|--- .... ....|--- .... ....|--- .... ....
....|..|--- .... ....|A-3 .F.F ....|--- .... ....
....|..|--- .... ....|--- .... ....|--- .... ....
....|..|--- .... ....|D-4 .F.F ....|--- .... ....
....|..|--- .... ....|--- .... ....|--- .... ....
....|..|--- .... ....|R-- .... ....|D#3 .F87 ....
....|..|--- .... ....|--- .... ....|--- .... ....
....|..|--- .... ....|A-3 .F.F ....|--- .... ....
....|..|--- .... ....|--- .... ....|--- .... ....
....|..|--- .... ....|F#3 .F.F ....|D-3 .F5A ....
....|..|--- .... ....|--- .... ....|--- .... ....
....|..|--- .... ....|A-3 .F.F ....|--- .... ....
....|..|--- .... ....|--- .... ....|--- .... ....
....|..|--- .... ....|R-- .... ....|F#3 .F9F ....
....|..|--- .... ....|--- .... ....|--- .... ....
....|..|--- .... ....|G-3 .F.F ....|--- .... ....
....|..|--- .... ....|--- .... ....|--- .... ....
....|..|--- .... ....|A#3 .F.F ....|--- .... ....
....|..|--- .... ....|--- .... ....|--- .... ....
....|..|--- .... ....|G-3 .F.F ....|--- .... ....
....|..|--- .... ....|--- .... ....|--- .... ....
....|..|--- .... ....|D-3 .F.F ....|D-3 .F57 ....
....|..|--- .... ....|--- .... ....|--- .... ....
....|..|--- .... ....|D-3 .F3F ....|--- .... ....
....|..|--- .... ....|--- .... ....|--- .... ....
....|..|--- .... ....|A#3 .F.F ....|F#3 .F9A ....
....|..|--- .... ....|--- .... ....|--- .... ....
....|..|--- .... ....|G-3 .F.F ....|--- .... ....
....|..|--- .... ....|--- .... ....|--- .... ....
....|..|--- .... ....|D#3 .F.F ....|--- .... ....
....|..|--- .... ....|--- .... ....|--- .... ....
....|..|--- .... ....|G-3 .F.F ....|--- .... ....
....|..|--- .... ....|--- .... ....|--- .... ....
....|..|--- .... ....|A#3 .F.F ....|--- .... ....
....|..|--- .... ....|--- .... ....|--- .... ....
....|..|--- .... ....|G-3 .F.F ....|--- .... ....
....|..|--- .... ....|--- .... ....|--- .... ....
....|..|--- .... ....|D#3 .F.F ....|F#3 .F97 ....
....|..|--- .... ....|--- .... ....|--- .... ....
....|..|--- .... ....|G-3 .F.F ....|--- .... ....
....|..|--- .... ....|--- .... ....|--- .... ....
....|..|--- .... ....|A#3 .F.F ....|--- .... ....
....|..|--- .... ....|--- .... ....|--- .... ....
....|..|--- .... ....|G-3 .F.F ....|--- .... ....
....|..|--- .... ....|--- .... ....|--- .... ....
....|..|G-4 .F.F ....|D-3 .F.7 ....|C-3 .F.F ....
....|..|--- .... ....|--- .... ....|--- .... ....
....|..|--- .... ....|D-3 .F37 ....|--- .... ....
....|..|--- .... ....|--- .... ....|--- .... ....
....|..|--- .... ....|A#3 .F.7 ....|--- .... ....
....|..|R-- .... ....|--- .... ....|--- .... ....
....|..|--- .... ....|G-3 .F.7 ....|--- .... ....
....|..|--- .... ....|--- .... ....|--- .... ....
....|..|G-4 .F.F ....|D#3 .F.7 ....|--- .... ....
....|..|--- .... ....|--- .... ....|--- .... ....
....|..|--- .... ....|G-3 .F.7 ....|--- .... ....
....|..|--- .... ....|--- .... ....|--- .... ....
....|..|G-4 .F.A ....|A#3 .F.7 ....|C-3 .F.A ....
....|..|R-- .... ....|--- .... ....|--- .... ....
....|..|--- .... ....|G-3 .F.7 ....|--- .... ....
....|..|--- .... ....|--- .... ....|--- .... ....

[Pattern31]
....|..|A-4 .F.F ....|D#3 .F.7 ....|F#3 .F.F ....
....|..|R-- .... ....|--- .... ....|--- .... ....
....|..|A-4 .F.F ....|G-3 .F.7 ....|--- .... ....
....|..|R-- .... ....|--- .... ....|--- .... ....
....|..|A-4 .F.F ....|A#3 .F.7 ....|--- .... ....
....|..|R-- .... ....|--- .... ....|--- .... ....
....|..|A-4 .F.F ....|G-3 .F.7 ....|--- .... ....
....|..|--- .... ....|--- .... ....|--- .... ....
....|..|G-4 .F.7 ....|R-- .... ....|C-3 .F.7 ....
....|..|R-- .... ....|--- .... ....|--- .... ....
....|..|R-- .... ....|--- .... ....|--- .... ....
....|..|--- .... ....|--- .... ....|--- .... ....
....|..|A-4 .F.A ....|--- .... ....|F#3 .F.A ....
....|..|R-- .... ....|--- .... ....|--- .... ....
....|..|A-4 .F.A ....|--- .... ....|--- .... ....
....|..|R-- .... ....|--- .... ....|--- .... ....
....|..|D-5 .F.F ....|--- .... ....|G-3 .F.F ....
....|..|R-- .... ....|--- .... ....|--- .... ....
....|..|A-4 .F.A ....|--- .... ....|--- .... ....
....|..|--- .... ....|--- .... ....|--- .... ....
....|..|--- .... ....|--- .... ....|--- .... ....
....|..|R-- .... ....|--- .... ....|--- .... ....
....|..|R-- .... ....|--- .... ....|--- .... ....
....|..|--- .... ....|--- .... ....|--- .... ....
....|..|D-5 .F.F ....|--- .... ....|F#3 .F.7 ....
....|..|R-- .... ....|--- .... ....|--- .... ....
....|..|A-4 .F.7 ....|--- .... ....|--- .... ....
....|..|R-- .... ....|--- .... ....|--- .... ....
....|..|A-4 .F.7 ....|--- .... ....|G-3 .F.A ....
....|..|R-- .... ....|--- .... ....|--- .... ....
....|..|A-4 .F.7 ....|--- .... ....|--- .... ....
....|..|--- .... ....|--- .... ....|D#3 .F2F ....
....|..|C-5 .F.F ....|--- .... ....|D#3 .F.F ....
....|..|--- .... ....|--- .... ....|--- .... ....
....|..|A#4 .F.F ....|--- .... ....|--- .... ....
....|..|R-- .... ....|--- .... ....|--- .... ....
....|..|A#4 .F.F ....|--- .... ....|--- .... ....
....|..|R-- .... ....|--- .... ....|--- .... ....
....|..|A#4 .F.F ....|--- .... ....|--- .... ....
....|..|--- .... ....|--- .... ....|--- .... ....
....|..|D-5 .F.7 ....|--- .... ....|G-3 .F.7 ....
....|..|--- .... ....|--- .... ....|--- .... ....
....|..|R-- .... ....|--- .... ....|--- .... ....
....|..|--- .... ....|--- .... ....|D#3 .F2A ....
....|..|R-- .... ....|--- .... ....|D#3 .F.A ....
....|..|--- .... ....|--- .... ....|--- .... ....
....|..|R-- .... ....|--- .... ....|--- .... ....
....|..|R-- .... ....|--- .... ....|--- .... ....
....|..|D-5 .F.F ....|--- .... ....|G-3 .F.F ....
....|..|R-- .... ....|--- .... ....|--- .... ....
....|..|A#4 .F.A ....|--- .... ....|--- .... ....
....|..|--- .... ....|--- .... ....|--- .... ....
....|..|--- .... ....|--- .... ....|--- .... ....
....|..|--- .... ....|--- .... ....|--- .... ....
....|..|R-- .... ....|--- .... ....|--- .... ....
....|..|--- .... ....|--- .... ....|D#3 .F27 ....
....|..|D-5 .F.F ....|--- .... ....|D#3 .F.7 ....
....|..|--- .... ....|--- .... ....|--- .... ....
....|..|A#4 .F.7 ....|--- .... ....|--- .... ....
....|..|R-- .... ....|--- .... ....|--- .... ....
....|..|A#4 .F.7 ....|--- .... ....|G-3 .F.A ....
....|..|R-- .... ....|--- .... ....|--- .... ....
....|..|A#4 .F.7 ....|--- .... ....|--- .... ....
....|..|--- .... ....|--- .... ....|--- .... ....

[Pattern32]
....|..|D#5 .F.F ....|--- .... ....|F#3 .F.F ....
....|..|--- .... ....|--- .... ....|--- .... ....
....|..|R-- .... ....|--- .... ....|--- .... ....
....|..|--- .... ....|--- .... ....|--- .... ....
....|..|R-- .... ....|--- .... ....|--- .... ....
....|..|--- .... ....|--- .... ....|--- .... ....
....|..|R-- .... ....|--- .... ....|--- .... ....
....|..|--- .... ....|--- .... ....|--- .... ....
....|..|D#5 .F.F ....|--- .... ....|G-3 .F.7 ....
....|..|--- .... ....|--- .... ....|--- .... ....
....|..|R-- .... ....|--- .... ....|--- .... ....
....|..|--- .... ....|--- .... ....|--- .... ....
....|..|D#5 .F.F ....|--- .... ....|F#3 .F.A ....
....|..|--- .... ....|--- .... ....|--- .... ....
....|..|R-- .... ....|--- .... ....|--- .... ....
....|..|--- .... ....|--- .... ....|G-3 .F.F ....
....|..|D-5 .F.7 ....|--- .... ....|--- .... ....
....|..|--- .... ....|--- .... ....|--- .... ....
....|..|R-- .... ....|--- .... ....|--- .... ....
....|..|--- .... ....|--- .... ....|--- .... ....
....|..|D-5 .F.F ....|--- .... ....|--- .... ....
....|..|--- .... ....|--- .... ....|--- .... ....
....|..|R-- .... ....|--- .... ....|--- .... ....
....|..|--- .... ....|--- .... ....|--- .... ....
....|..|D#5 .F.7 ....|--- .... ....|F#3 .F.7 ....
....|..|--- .... ....|--- .... ....|--- .... ....
....|..|--- .... ....|--- .... ....|--- .... ....
....|..|--- .... ....|--- .... ....|G-3 .F.A ....
....|..|--- .... ....|--- .... ....|--- .... ....
....|..|--- .... ....|--- .... ....|--- .... ....
....|..|R-- .... ....|--- .... ....|--- .... ....
....|..|--- .... ....|--- .... ....|--- .... ....
....|..|D#5 .F.7 ....|--- .... ....|--- .... ....
....|..|--- .... ....|--- .... ....|--- .... ....
....|..|R-- .... ....|--- .... ....|--- .... ....
....|..|--- .... ....|--- .... ....|--- .... ....
....|..|D#5 .F.7 ....|--- .... ....|--- .... ....
....|..|R-- .... ....|--- .... ....|--- .... ....
....|..|--- .... ....|--- .... ....|--- .... ....
....|..|--- .... ....|--- .... ....|G-3 .F.7 ....
....|..|--- .... ....|--- .... ....|C-3 .F6F ....
....|..|--- .... ....|--- .... ....|--- .... ....
....|..|--- .... ....|--- .... ....|--- .... ....
....|..|--- .... ....|--- .... ....|--- .... ....
....|..|D-5 .F.7 ....|--- .... ....|--- .... ....
....|..|--- .... ....|--- .... ....|--- .... ....
....|..|--- .... ....|--- .... ....|--- .... ....
....|..|--- .... ....|--- .... ....|C-3 .FAF ....
....|..|A#4 .F.F ....|--- .... ....|--- .... ....
....|..|R-- .... ....|--- .... ....|--- .... ....
....|..|--- .... ....|--- .... ....|--- .... ....
....|..|--- .... ....|--- .... ....|--- .... ....
....|..|R-- .... ....|--- .... ....|C-3 .F6A ....
....|..|--- .... ....|--- .... ....|--- .... ....
....|..|--- .... ....|--- .... ....|--- .... ....
....|..|--- .... ....|--- .... ....|--- .... ....
....|..|A#4 .F.F ....|--- .... ....|--- .... ....
....|..|--- .... ....|--- .... ....|--- .... ....
....|..|--- .... ....|--- .... ....|--- .... ....
....|..|--- .... ....|--- .... ....|C-3 .FAA ....
....|..|A#4 .F.A ....|--- .... ....|C-3 .F6F ....
....|..|R-- .... ....|--- .... ....|--- .... ....
....|..|--- .... ....|--- .... ....|G-3 .F.F ....
....|..|--- .... ....|--- .... ....|R-- .... ....

[Pattern33]
....|..|C-5 .F.F ....|--- .... ....|D-3 .F5F ....
....|..|R-- .... ....|--- .... ....|--- .... ....
....|..|C-5 .F.F ....|--- .... ....|--- .... ....
....|..|R-- .... ....|--- .... ....|--- .... ....
....|..|C-5 .F.F ....|--- .... ....|--- .... ....
....|..|R-- .... ....|--- .... ....|--- .... ....
....|..|C-5 .F.F ....|--- .... ....|--- .... ....
....|..|--- .... ....|--- .... ....|C-3 .FA7 ....
....|..|A#4 .F.7 ....|--- .... ....|C-3 .F6A ....
....|..|R-- .... ....|--- .... ....|--- .... ....
....|..|--- .... ....|--- .... ....|G-3 .F.A ....
....|..|--- .... ....|--- .... ....|R-- .... ....
....|..|R-- .... ....|--- .... ....|D-3 .F5A ....
....|..|R-- .... ....|--- .... ....|--- .... ....
....|..|C-5 .F.A ....|--- .... ....|--- .... ....
....|..|R-- .... ....|--- .... ....|D-3 .F3F ....
....|..|D-5 .F.F ....|--- .... ....|D-3 .F7F ....
....|..|R-- .... ....|--- .... ....|--- .... ....
....|..|C-5 .F.A ....|--- .... ....|--- .... ....
....|..|--- .... ....|--- .... ....|--- .... ....
....|..|--- .... ....|--- .... ....|C-3 .F67 ....
....|..|R-- .... ....|--- .... ....|--- .... ....
....|..|R-- .... ....|--- .... ....|G-3 .F.7 ....
....|..|--- .... ....|--- .... ....|R-- .... ....
....|..|D-5 .F.F ....|--- .... ....|D-3 .F57 ....
....|..|R-- .... ....|--- .... ....|--- .... ....
....|..|C-5 .F.7 ....|--- .... ....|--- .... ....
....|..|R-- .... ....|--- .... ....|D-3 .F3A ....
....|..|C-5 .F.7 ....|--- .... ....|D-3 .F7A ....
....|..|R-- .... ....|--- .... ....|G-3 .F9F ....
....|..|C-5 .F.7 ....|--- .... ....|--- .... ....
....|..|--- .... ....|--- .... ....|D#3 .F5F ....
....|..|C-5 .F.F ....|--- .... ....|--- .... ....
....|..|--- .... ....|--- .... ....|--- .... ....
....|..|A#4 .F.F ....|--- .... ....|--- .... ....
....|..|R-- .... ....|--- .... ....|--- .... ....
....|..|A#4 .F.F ....|--- .... ....|--- .... ....
....|..|R-- .... ....|--- .... ....|--- .... ....
....|..|A#4 .F.F ....|--- .... ....|--- .... ....
....|..|--- .... ....|--- .... ....|D-3 .F37 ....
....|..|D-5 .F.7 ....|--- .... ....|D-3 .F77 ....
....|..|--- .... ....|--- .... ....|G-3 .F9A ....
....|..|R-- .... ....|--- .... ....|--- .... ....
....|..|--- .... ....|--- .... ....|D#3 .F5A ....
....|..|C-5 .F.A ....|--- .... ....|--- .... ....
....|..|--- .... ....|--- .... ....|--- .... ....
....|..|R-- .... ....|--- .... ....|--- .... ....
....|..|R-- .... ....|--- .... ....|D#3 .F2F ....
....|..|D-5 .F.F ....|--- .... ....|C-3 .FAF ....
....|..|R-- .... ....|--- .... ....|--- .... ....
....|..|A#4 .F.A ....|--- .... ....|--- .... ....
....|..|--- .... ....|--- .... ....|--- .... ....
....|..|--- .... ....|--- .... ....|--- .... ....
....|..|--- .... ....|--- .... ....|G-3 .F97 ....
....|..|R-- .... ....|--- .... ....|--- .... ....
....|..|R-- .... ....|--- .... ....|D#3 .F57 ....
....|..|D-5 .F.F ....|--- .... ....|--- .... ....
....|..|--- .... ....|--- .... ....|--- .... ....
....|..|A#4 .F.7 ....|--- .... ....|--- .... ....
....|..|R-- .... ....|--- .... ....|D#3 .F2A ....
....|..|A#4 .F.7 ....|--- .... ....|C-3 .FAA ....
....|..|R-- .... ....|--- .... ....|G-3 .F.F ....
....|..|A#4 .F.7 ....|--- .... ....|--- .... ....
....|..|--- .... ....|--- .... ....|D-3 .F2F ....

[Pattern34]
....|..|D#5 .F.F ....|--- .... ....|D-3 .F5F ....
....|..|--- .... ....|--- .... ....|--- .... ....
....|..|--- .... ....|--- .... ....|--- .... ....
....|..|R-- .... ....|--- .... ....|--- .... ....
....|..|D-5 .F.A ....|--- .... ....|--- .... ....
....|..|--- .... ....|--- .... ....|--- .... ....
....|..|--- .... ....|--- .... ....|--- .... ....
....|..|R-- .... ....|--- .... ....|D#3 .F27 ....
....|..|D#5 .F.F ....|--- .... ....|C-3 .FA7 ....
....|..|--- .... ....|--- .... ....|G-3 .F.A ....
....|..|R-- .... ....|--- .... ....|--- .... ....
....|..|--- .... ....|--- .... ....|D-3 .F2A ....
....|..|D#5 .F.F ....|--- .... ....|D-3 .F5A ....
....|..|--- .... ....|--- .... ....|D-3 .F6F ....
....|..|--- .... ....|--- .... ....|D-3 .F.F ....
....|..|R-- .... ....|--- .... ....|--- .... ....
....|..|D-5 .F.7 ....|--- .... ....|D-3 .F7F ....
....|..|--- .... ....|--- .... ....|--- .... ....
....|..|--- .... ....|--- .... ....|--- .... ....
....|..|R-- .... ....|--- .... ....|--- .... ....
....|..|D-5 .F.F ....|--- .... ....|--- .... ....
....|..|--- .... ....|--- .... ....|G-3 .F.7 ....
....|..|R-- .... ....|--- .... ....|--- .... ....
....|..|--- .... ....|--- .... ....|D-3 .F27 ....
....|..|D#5 .F.7 ....|--- .... ....|D-3 .F57 ....
....|..|--- .... ....|--- .... ....|D-3 .F6A ....
....|..|--- .... ....|--- .... ....|D-3 .F.A ....
....|..|--- .... ....|--- .... ....|--- .... ....
....|..|C-5 .F.F ....|--- .... ....|D-3 .F7A ....
....|..|--- .... ....|--- .... ....|--- .... ....
....|..|A#4 .F1F ....|--- .... ....|--- .... ....
....|..|A#4 .F.F ....|--- .... ....|--- .... ....
....|..|C-5 .F.F ....|--- .... ....|--- .... ....
....|..|--- .... ....|--- .... ....|--- .... ....
....|..|R-- .... ....|--- .... ....|--- .... ....
....|..|A#4 .F.F ....|--- .... ....|--- .... ....
....|..|D#5 .F.7 ....|--- .... ....|--- .... ....
....|..|A-4 .F.F ....|--- .... ....|D-3 .F67 ....
....|..|--- .... ....|--- .... ....|D-3 .F.7 ....
....|..|R-- .... ....|--- .... ....|--- .... ....
....|..|C-5 .F.A ....|--- .... ....|D-3 .F77 ....
....|..|--- .... ....|--- .... ....|--- .... ....
....|..|A#4 .F1A ....|--- .... ....|--- .... ....
....|..|A#4 .F.A ....|--- .... ....|--- .... ....
....|..|D-5 .F.7 ....|--- .... ....|G-3 .F9F ....
....|..|--- .... ....|--- .... ....|R-- .... ....
....|..|--- .... ....|--- .... ....|--- .... ....
....|..|A#4 .F.A ....|--- .... ....|--- .... ....
....|..|A#4 .F.F ....|--- .... ....|C-4 .F.F ....
....|..|A-4 .F.A ....|--- .... ....|--- .... ....
....|..|A#4 .F.F ....|--- .... ....|--- .... ....
....|..|R-- .... ....|--- .... ....|--- .... ....
....|..|A#4 .F.F ....|--- .... ....|--- .... ....
....|..|--- .... ....|--- .... ....|--- .... ....
....|..|A#4 .F.F ....|--- .... ....|--- .... ....
....|..|A#4 .F.7 ....|--- .... ....|--- .... ....
....|..|A#4 .F.F ....|--- .... ....|G-3 .F9A ....
....|..|--- .... ....|--- .... ....|R-- .... ....
....|..|R-- .... ....|--- .... ....|--- .... ....
....|..|A#4 .F.7 ....|--- .... ....|--- .... ....
....|..|A#4 .F.F ....|--- .... ....|C-4 .F.A ....
....|..|A-4 .F.7 ....|--- .... ....|--- .... ....
....|..|A#4 .F.F ....|--- .... ....|--- .... ....
....|..|R-- .... ....|--- .... ....|--- .... ....

[Pattern35]
....|..|A-4 .F.F ....|--- .... ....|D-3 .F5F ....
....|..|--- .... ....|--- .... ....|--- .... ....
....|..|A-4 .F.F ....|--- .... ....|--- .... ....
....|..|--- .... ....|--- .... ....|--- .... ....
....|..|A-4 .F.F ....|--- .... ....|G-3 .F97 ....
....|..|--- .... ....|--- .... ....|R-- .... ....
....|..|R-- .... ....|--- .... ....|--- .... ....
....|..|--- .... ....|--- .... ....|--- .... ....
....|..|A-4 .F.F ....|--- .... ....|C-4 .F.7 ....
....|..|--- .... ....|--- .... ....|--- .... ....
....|..|G-4 .F.F ....|--- .... ....|--- .... ....
....|..|--- .... ....|--- .... ....|--- .... ....
....|..|A-4 .F.F ....|--- .... ....|D-3 .F5A ....
....|..|--- .... ....|--- .... ....|--- .... ....
....|..|G-4 .F.F ....|--- .... ....|--- .... ....
....|..|--- .... ....|--- .... ....|--- .... ....
....|..|A#4 .F.F ....|--- .... ....|D-3 .F7F ....
....|..|--- .... ....|--- .... ....|--- .... ....
....|..|R-- .... ....|--- .... ....|--- .... ....
....|..|--- .... ....|--- .... ....|--- .... ....
....|..|A#4 .F.F ....|--- .... ....|--- .... ....
....|..|--- .... ....|--- .... ....|--- .... ....
....|..|A#4 .F.F ....|--- .... ....|--- .... ....
....|..|--- .... ....|--- .... ....|--- .... ....
....|..|A#4 .F.F ....|--- .... ....|D-3 .F57 ....
....|..|--- .... ....|--- .... ....|--- .... ....
....|..|A-4 .F.F ....|--- .... ....|--- .... ....
....|..|--- .... ....|--- .... ....|--- .... ....
....|..|A#4 .F.F ....|--- .... ....|D-3 .F7A ....
....|..|--- .... ....|--- .... ....|--- .... ....
....|..|R-- .... ....|--- .... ....|--- .... ....
....|..|--- .... ....|--- .... ....|--- .... ....
....|..|D-5 .F.F ....|--- .... ....|D#3 .F5F ....
....|..|--- .... ....|--- .... ....|--- .... ....
....|..|D-5 .F.F ....|--- .... ....|--- .... ....
....|..|--- .... ....|--- .... ....|--- .... ....
....|..|D-5 .F.F ....|--- .... ....|--- .... ....
....|..|--- .... ....|--- .... ....|--- .... ....
....|..|C-5 .F.F ....|--- .... ....|--- .... ....
....|..|--- .... ....|--- .... ....|--- .... ....
....|..|D-5 .F.F ....|--- .... ....|D-3 .F77 ....
....|..|--- .... ....|--- .... ....|--- .... ....
....|..|R-- .... ....|--- .... ....|--- .... ....
....|..|--- .... ....|--- .... ....|--- .... ....
....|..|A#4 .F.7 ....|--- .... ....|D#3 .F5A ....
....|..|--- .... ....|--- .... ....|--- .... ....
....|..|A#4 .F.7 ....|--- .... ....|--- .... ....
....|..|--- .... ....|--- .... ....|--- .... ....
....|..|A#4 .F.F ....|--- .... ....|D#3 .F8F ....
....|..|--- .... ....|--- .... ....|--- .... ....
....|..|A#4 .F.F ....|--- .... ....|--- .... ....
....|..|--- .... ....|--- .... ....|--- .... ....
....|..|A#4 .F.F ....|--- .... ....|--- .... ....
....|..|--- .... ....|--- .... ....|--- .... ....
....|..|A#4 .F.F ....|--- .... ....|--- .... ....
....|..|--- .... ....|--- .... ....|--- .... ....
....|..|A#4 .F.F ....|--- .... ....|D#3 .F57 ....
....|..|--- .... ....|--- .... ....|--- .... ....
....|..|D-5 .F.7 ....|--- .... ....|--- .... ....
....|..|--- .... ....|--- .... ....|--- .... ....
....|..|A#4 .F.F ....|--- .... ....|D#3 .F8A ....
....|..|--- .... ....|--- .... ....|--- .... ....
....|..|A#4 .F.F ....|--- .... ....|--- .... ....
....|..|--- .... ....|--- .... ....|--- .... ....

[Pattern38]
....|..|D#5 .F.F ....|--- .... ....|D-3 .F5F ....
....|..|R-- .... ....|--- .... ....|--- .... ....
....|..|--- .... ....|--- .... ....|--- .... ....
....|..|R-- .... ....|--- .... ....|--- .... ....
....|..|D-5 .F.A ....|--- .... ....|--- .... ....
....|..|--- .... ....|--- .... ....|--- .... ....
....|..|--- .... ....|--- .... ....|--- .... ....
....|..|R-- .... ....|--- .... ....|--- .... ....
....|..|D#5 .F.F ....|--- .... ....|D#3 .F87 ....
....|..|--- .... ....|--- .... ....|--- .... ....
....|..|R-- .... ....|--- .... ....|--- .... ....
....|..|R-- .... ....|--- .... ....|--- .... ....
....|..|D#5 .F.F ....|--- .... ....|D-3 .F5A ....
....|..|R-- .... ....|--- .... ....|--- .... ....
....|..|--- .... ....|--- .... ....|--- .... ....
....|..|--- .... ....|--- .... ....|--- .... ....
....|..|D-5 .F.7 ....|--- .... ....|D-3 .F7F ....
....|..|--- .... ....|--- .... ....|--- .... ....
....|..|--- .... ....|--- .... ....|--- .... ....
....|..|R-- .... ....|--- .... ....|--- .... ....
....|..|D-5 .F.F ....|--- .... ....|--- .... ....
....|..|--- .... ....|--- .... ....|--- .... ....
....|..|R-- .... ....|--- .... ....|--- .... ....
....|..|R-- .... ....|--- .... ....|--- .... ....
....|..|D#5 .F.7 ....|--- .... ....|D-3 .F57 ....
....|..|--- .... ....|--- .... ....|--- .... ....
....|..|--- .... ....|--- .... ....|--- .... ....
....|..|--- .... ....|--- .... ....|--- .... ....
....|..|D-5 .F.F ....|--- .... ....|D-3 .F7A ....
....|..|--- .... ....|--- .... ....|--- .... ....
....|..|C-4 .F1F ....|--- .... ....|--- .... ....
....|..|R-- .... ....|--- .... ....|--- .... ....
....|..|D-5 .F.F ....|--- .... ....|G-3 .F9F ....
....|..|--- .... ....|--- .... ....|--- .... ....
....|..|C-4 .F1F ....|--- .... ....|--- .... ....
....|..|C-4 .F1F ....|--- .... ....|--- .... ....
....|..|A#4 .F2F ....|--- .... ....|--- .... ....
....|..|--- .... ....|--- .... ....|--- .... ....
....|..|A#4 .F.F ....|--- .... ....|--- .... ....
....|..|R-- .... ....|--- .... ....|--- .... ....
....|..|D-5 .F.A ....|--- .... ....|D-3 .F77 ....
....|..|--- .... ....|--- .... ....|--- .... ....
....|..|C-4 .F1A ....|--- .... ....|--- .... ....
....|..|--- .... ....|--- .... ....|--- .... ....
....|..|D-5 .F.7 ....|--- .... ....|G-3 .F9A ....
....|..|--- .... ....|--- .... ....|--- .... ....
....|..|C-4 .F1A ....|--- .... ....|--- .... ....
....|..|C-4 .F1A ....|--- .... ....|--- .... ....
....|..|A#3 .F.F ....|--- .... ....|D-3 .F7F ....
....|..|R-- .... ....|--- .... ....|--- .... ....
....|..|A#4 .F.F ....|--- .... ....|--- .... ....
....|..|R-- .... ....|--- .... ....|--- .... ....
....|..|A#4 .F.F ....|--- .... ....|--- .... ....
....|..|R-- .... ....|--- .... ....|--- .... ....
....|..|A#4 .F.F ....|--- .... ....|--- .... ....
....|..|R-- .... ....|--- .... ....|--- .... ....
....|..|A#4 .F.F ....|--- .... ....|G-3 .F97 ....
....|..|--- .... ....|--- .... ....|--- .... ....
....|..|C-4 .F17 ....|--- .... ....|--- .... ....
....|..|C-4 .F17 ....|--- .... ....|--- .... ....
....|..|A#4 .F.F ....|--- .... ....|D-3 .F7A ....
....|..|R-- .... ....|--- .... ....|--- .... ....
....|..|A#4 .F.F ....|--- .... ....|--- .... ....
....|..|R-- .... ....|--- .... ....|--- .... ....

[Pattern39]
....|..|A#4 .F.F ....|--- .... ....|--- .... ....
....|..|R-- .... ....|--- .... ....|--- .... ....
....|..|A#4 .F.F ....|--- .... ....|--- .... ....
....|..|R-- .... ....|--- .... ....|--- .... ....
....|..|A#4 .F.F ....|--- .... ....|--- .... ....
....|..|--- .... ....|--- .... ....|--- .... ....
....|..|R-- .... ....|--- .... ....|--- .... ....
....|..|--- .... ....|--- .... ....|--- .... ....
....|..|A#4 .F.F ....|--- .... ....|D-3 .F77 ....
....|..|R-- .... ....|--- .... ....|--- .... ....
....|..|A#4 .F.F ....|--- .... ....|--- .... ....
....|..|R-- .... ....|--- .... ....|--- .... ....
....|..|A#4 .F.F ....|--- .... ....|--- .... ....
....|..|R-- .... ....|--- .... ....|--- .... ....
....|..|A#4 .F.F ....|--- .... ....|--- .... ....
....|..|R-- .... ....|--- .... ....|--- .... ....
....|..|A#4 .F.F ....|--- .... ....|--- .... ....
....|..|--- .... ....|--- .... ....|--- .... ....
....|..|R-- .... ....|--- .... ....|--- .... ....
....|..|--- .... ....|--- .... ....|--- .... ....
....|..|A#4 .F.F ....|--- .... ....|--- .... ....
....|..|R-- .... ....|--- .... ....|--- .... ....
....|..|A#4 .F.F ....|--- .... ....|--- .... ....
....|..|R-- .... ....|--- .... ....|--- .... ....
....|..|A#4 .F.F ....|--- .... ....|--- .... ....
....|..|R-- .... ....|--- .... ....|--- .... ....
....|..|A#4 .F.F ....|--- .... ....|--- .... ....
....|..|R-- .... ....|--- .... ....|--- .... ....
....|..|A#4 .F.F ....|--- .... ....|--- .... ....
....|..|R-- .... ....|--- .... ....|--- .... ....
....|..|R-- .... ....|--- .... ....|--- .... ....
....|..|--- .... ....|--- .... ....|--- .... ....
....|..|A#4 .F.F ....|--- .... ....|--- .... ....
....|..|R-- .... ....|--- .... ....|--- .... ....
....|..|A#4 .F.F ....|--- .... ....|--- .... ....
....|..|R-- .... ....|--- .... ....|--- .... ....
....|..|A#4 .F.F ....|--- .... ....|--- .... ....
....|..|R-- .... ....|--- .... ....|--- .... ....
....|..|A#4 .F.F ....|--- .... ....|--- .... ....
....|..|R-- .... ....|--- .... ....|--- .... ....
....|..|A#4 .F.F ....|--- .... ....|--- .... ....
....|..|R-- .... ....|--- .... ....|--- .... ....
....|..|R-- .... ....|--- .... ....|--- .... ....
....|..|--- .... ....|--- .... ....|--- .... ....
....|..|A#4 .F.F ....|--- .... ....|--- .... ....
....|..|R-- .... ....|--- .... ....|--- .... ....
....|..|A#4 .F.F ....|--- .... ....|--- .... ....
....|..|R-- .... ....|--- .... ....|--- .... ....
....|..|A#4 .F.7 ....|--- .... ....|--- .... ....
....|..|A#4 .F.F ....|--- .... ....|--- .... ....
....|..|A#4 .F.7 ....|--- .... ....|--- .... ....
....|..|A#4 .F.F ....|--- .... ....|--- .... ....
....|..|A#4 .F.7 ....|--- .... ....|--- .... ....
....|..|A#4 .F.F ....|--- .... ....|--- .... ....
....|..|R-- .... ....|--- .... ....|--- .... ....
....|..|--- .... ....|--- .... ....|--- .... ....
....|..|A#4 .F.7 ....|--- .... ....|--- .... ....
....|..|R-- .... ....|--- .... ....|--- .... ....
....|..|A#4 .F.7 ....|--- .... ....|--- .... ....
....|..|R-- .... ....|--- .... ....|--- .... ....
....|..|A#4 .F.7 ....|--- .... ....|--- .... ....
....|..|R-- .... ....|--- .... ....|--- .... ....
....|..|A#4 .F.7 ....|--- .... ....|--- .... ....
....|..|R-- .... ....|--- .... ....|--- .... ....

[Pattern40]
....|..|A#4 .F.7 ....|--- .... ....|--- .... ....
....|..|A#4 .F.A ....|--- .... ....|--- .... ....
....|..|R-- .... ....|--- .... ....|--- .... ....
....|..|--- .... ....|--- .... ....|--- .... ....
....|..|A#4 .F.7 ....|--- .... ....|--- .... ....
....|..|R-- .... ....|--- .... ....|D-3 .F4F ....
....|..|A#4 .F.7 ....|--- .... ....|R-- .... ....
....|..|--- .... ....|--- .... ....|--- .... ....
....|..|R-- .... ....|--- .... ....|--- .... ....
....|..|A#4 .F.7 ....|--- .... ....|--- .... ....
....|..|R-- .... ....|--- .... ....|--- .... ....
....|..|A#4 .F.7 ....|--- .... ....|--- .... ....
....|..|--- .... ....|--- .... ....|--- .... ....
....|..|A#4 .F.7 ....|--- .... ....|--- .... ....
....|..|R-- .... ....|--- .... ....|--- .... ....
....|..|--- .... ....|--- .... ....|--- .... ....
....|..|--- .... ....|--- .... ....|--- .... ....
....|..|--- .... ....|--- .... ....|D-3 .F4A ....
....|..|--- .... ....|--- .... ....|R-- .... ....
....|..|--- .... ....|--- .... ....|--- .... ....
....|..|--- .... ....|--- .... ....|--- .... ....
....|..|--- .... ....|--- .... ....|--- .... ....
....|..|--- .... ....|--- .... ....|--- .... ....
....|..|--- .... ....|--- .... ....|--- .... ....
....|..|--- .... ....|--- .... ....|--- .... ....
....|..|--- .... ....|--- .... ....|--- .... ....
....|..|--- .... ....|--- .... ....|--- .... ....
....|..|--- .... ....|--- .... ....|--- .... ....
....|..|--- .... ....|--- .... ....|--- .... ....
....|..|--- .... ....|--- .... ....|D-3 .F47 ....
