[Module]
VortexTrackerII=0
Version=3.5
Title=1d+-2me,4m[uf],3m-6p+-5p+
Author=oisee ^ 4d 29.05.2010
NoteTable=4
ChipFreq=1750000
Speed=4
PlayOrder=L0,1,2,3,4,5,6,7,8,9,10,11,12,13,14,15,16,17,18,19,20,21,22,23,24,25,26,27,28,29,30,31,32,33,34,35,36,37,38,39,40,21,22,23,44,45,46,47,48,49,50,51,52,53,54,55,56,57,58,59,60,61,62,63,64,65,66,67,68,69,70


[Ornament1]
L0,0,5,5,8,8

[Ornament2]
L0,0,5,5,7,7

[Ornament3]
L0,0,4,4,7,7

[Ornament4]
L0,0,4,4,9,9

[Ornament5]
L0,0,3,3,7,7

[Ornament6]
L0,0,2,2,7,7


[Sample1]
TnE +000_ +00_ F_
TnE +000_ +00_ F_
TnE +000_ +00_ F_
TnE +000_ +00_ D_
TnE +000_ +00_ B_
TnE +000_ +00_ B_ L

[Sample2]
TnE +000_ +00_ F_ L

[Sample3]
TnE +001_ +00_ F_
TnE +002_ +00_ F_
TnE +001_ +00_ E_
TnE +002_ +00_ E_
TnE +000_ +00_ E_ L
TnE -001_ +00_ E_
TnE -002_ +00_ E_
TnE -001_ +00_ E_
TnE +000_ +00_ E_
TnE +001_ +00_ E_
TnE +002_ +00_ E_
TnE +001_ +00_ E_

[Sample4]
TnE +002_ +00_ D_
TnE +002_ +00_ D_
TnE +002_ +00_ C_
TnE +002_ +00_ B_
TnE +002_ +00_ A_ L
TnE +002_ +00_ A_
TnE +002_ +00_ A_
TnE +002_ +00_ A_
TnE +002_ +00_ A_
TnE +002_ +00_ A_
TnE +002_ +00_ A_
TnE +002_ +00_ A_

[Sample5]
TnE +000_ +00_ F_
TnE +000_ +00_ F_
tne +000_ +00_ 0_ L

[Sample6]
TnE -001_ +00_ F_ L

[Sample7]
TnE +006_ +00_ F_ L

[Sample8]
tNe +000_ +00_ F_
tNe +000_ +00_ B_
tNe +000_ +00_ 7_
tNe +000_ +00_ 6- L

[Sample9]
TnE +080_ +00_ F_
TnE +100_ +00_ E_
TnE +180_ +00_ E_
TnE +200_ +00_ E_
TnE +240_ +00_ D_
TnE +280_ +00_ D_
TnE +2C0_ +00_ D_
TnE +300_ +00_ C_
TnE +300_ +00_ C_
TnE +340_ +00_ C_
TnE +340_ +00_ C_
TnE +380_ +00_ B_
TnE +380_ +00_ B_
TnE +400_ +00_ B_
TnE +400_ +00_ B_
TnE +480_ +00_ A_
TnE +500_ +00_ 9_
TnE +580_ +00_ 7_
TnE +600_ +00_ 4_
TnE +680_ +00_ 1_
TnE +000_ +00_ 0_ L

[Sample10]
Tne +1C0_ +00_ F_
Tne +280_ +00_ E_
Tne +380_ +00_ C_
Tne +440_ +00_ A_
Tne +480_ +00_ 8_
TnE +000_ +00_ 0_ L

[Sample11]
TNe +200_ -0A_ F_
tNe +000_ +0F_ A_
TNe +200_ -07_ E_
tNe +000_ +0E_ B- L

[Sample12]
TNE +0A0_ +05_ F_
TNE +140_ +02_ D_
TNE +140_ +02_ B_
TNE +100_ +00_ A_ L
TNE +140_ +00_ A_
TNE +200_ +00_ A-

[Sample13]
Tne +200_ +00_ F_
Tne +2C0_ +00_ F_
Tne +380_ +00_ E_
Tne +500_ +00_ C_
Tne +520_ +00_ 9_
tne +000_ +00_ 0_ L

[Sample14]
TNE -100_ +00_ F_
TNE -100_ +00_ D_
TNE -100_ +00_ A_
TNE -100_ +00_ 5_
tne +000_ +00_ 0_ L

[Sample15]
TNE -100_ +00_ 5_
TNE -100_ +00_ 8_
TNE -100_ +00_ B_
TNE -100_ +00_ F_
TNe -100_ +00_ 9- L

[Sample16]
TnE +000_ +00_ C_
TnE +000_ +00_ E_
TnE +000_ +00_ F_
TnE +000_ +00_ F_
TnE +000_ +00_ E_
TnE +000_ +00_ D_
TnE +000_ +00_ C_
TnE +000_ +00_ C_ L
TnE +001_ +00_ C_
TnE +002_ +00_ C_
TnE +003_ +00_ C_
TnE +001_ +00_ C_
TnE +000_ +00_ C_
TnE -001_ +00_ C_
TnE -002_ +00_ C_
TnE -003_ +00_ C_
TnE -001_ +00_ C_
TnE +000_ +00_ C_
TnE +000_ +00_ C_

[Sample17]
Tne +1C0_ +00_ F_
Tne +280_ +00_ D_
Tne +380_ +00_ 7_
TNE +000_ +00_ 0_ L

[Sample18]
TnE -00C_ +00_ 0_ L

[Sample19]
TNe +000_ +00_ F_
TNe +000_ +00_ C_
TNe +000_ +00_ 6_
TNe +000_ +01_ A- L

[Sample20]
TNE +140_ +00_ F_
tNE +000_ +00_ B- L

[Sample21]
tNE +000_ +00_ D_
tNE +000_ +00_ 8_
tNE +000_ +00_ 1_
TNE +000_ +00_ 0_ L

[Sample22]
TnE +000_ +00_ D_ L
TnE +000_ +00_ D_
tne +000_ +00_ 9_
tne +000_ +00_ 9_
TnE +000_ +00_ D_
TnE +000_ +00_ D_
tne +000_ +00_ 9_
tne +000_ +00_ 9_
TnE +000_ +00_ D_
TnE +000_ +00_ D_
TnE +000_ +00_ D_
TnE +000_ +00_ D_
TnE +000_ +00_ D_
TnE +000_ +00_ D_
tne +000_ +00_ 9_
tne +000_ +00_ 9_

[Sample23]
TnE +000_ +00_ F_ L
TnE +010_ +01_ F_
TnE +010_ +01_ F_
TnE +010_ +01_ F_
TnE +010_ +01_ F_
TnE +000_ +00_ F_
TnE +000_ +00_ F_
TnE -010_ -01_ F_
TnE -010_ -01_ F_
TnE -010_ -01_ F_
TnE -010_ -01_ F_
TnE +000_ +00_ F_

[Sample24]
TNe +000_ -01_ C_
TNe +000_ -01_ D_
TNe +000_ -01_ E_
TNe +000_ -01_ F_
TNe +000_ -01_ F_
TNe +000_ -01_ F_
TNe +000_ -01_ F_
TNe +000_ -01_ F_
TNe +000_ -01_ E_
TNe +000_ -01_ E_
TNe +000_ -01_ E_
TNe +000_ -01_ F_
TNe +000_ -01_ F_ L

[Sample25]
TNE +000_ +00_ F_
TNE +000_ +00_ F_ L
TNE +000_ +00_ F_
TNE +000_ +00_ F_
TNE +000_ +00_ F-

[Sample26]
tne +000_ +00_ 0_ L

[Sample27]
TnE +100_ +05_ F_
TnE +200_ +02_ A_
TnE +300_ +02_ 7_
TNE +400_ +00_ 3- L

[Sample28]
tne +000_ +00_ 0_ L

[Sample29]
tnE +000_ +00_ 0_ L

[Sample30]
TNE +000_ +00_ C+ L

[Sample31]
TNe +1C0_ +00_ F_
Tne +280_ +00_ E_
Tne +380_ +00_ C_
Tne +440_ +00_ A_
Tne +480_ +00_ 8_
TnE +000_ +00_ 0_ L

[Pattern0]
....|..|--- .... ....|--- .... ....|--- .... ....
....|..|--- .... ....|--- .... ....|--- .... ....
....|..|--- .... ....|--- .... ....|--- .... ....
....|..|--- .... ....|--- .... ....|--- .... ....
....|..|--- .... ....|--- .... ....|--- .... ....
....|..|--- .... ....|--- .... ....|--- .... ....
....|..|--- .... ....|--- .... ....|--- .... ....
....|..|--- .... ....|--- .... ....|--- .... ....
....|..|--- .... ....|--- .... ....|--- .... ....
....|..|--- .... ....|--- .... ....|--- .... ....
....|..|--- .... ....|--- .... ....|--- .... ....
....|..|--- .... ....|--- .... ....|--- .... ....
....|..|--- .... ....|--- .... ....|--- .... ....
....|..|--- .... ....|--- .... ....|--- .... ....
....|..|--- .... ....|--- .... ....|--- .... ....
....|..|--- .... ....|--- .... ....|--- .... ....
....|..|--- .... ....|--- .... ....|--- .... ....
....|..|--- .... ....|--- .... ....|--- .... ....
....|..|--- .... ....|--- .... ....|--- .... ....
....|..|--- .... ....|--- .... ....|--- .... ....
....|..|--- .... ....|--- .... ....|--- .... ....
....|..|--- .... ....|--- .... ....|--- .... ....
....|..|--- .... ....|--- .... ....|--- .... ....
....|..|--- .... ....|--- .... ....|--- .... ....
....|..|--- .... ....|--- .... ....|--- .... ....
....|..|--- .... ....|--- .... ....|--- .... ....
....|..|--- .... ....|--- .... ....|--- .... ....
....|..|--- .... ....|--- .... ....|--- .... ....
....|..|--- .... ....|--- .... ....|--- .... ....
....|..|--- .... ....|--- .... ....|--- .... ....
....|..|--- .... ....|--- .... ....|--- .... ....
....|..|--- .... ....|--- .... ....|--- .... ....
....|..|B-8 JF.F ....|--- .... ....|--- .... ....
....|..|--- .... ....|--- .... ....|--- .... ....
....|..|--- .... ....|--- .... ....|--- .... ....
....|..|--- .... ....|--- .... ....|--- .... ....
....|..|--- .... ....|--- .... ....|--- .... ....
....|..|--- .... ....|--- .... ....|--- .... ....
....|..|--- .... ....|--- .... ....|--- .... ....
....|..|--- .... ....|--- .... ....|--- .... ....
....|..|--- .... ....|--- .... ....|--- .... ....
....|..|--- .... ....|--- .... ....|--- .... ....
....|..|--- .... ....|--- .... ....|--- .... ....
....|..|--- .... ....|--- .... ....|--- .... ....
....|..|B-8 JF.A ....|--- .... ....|--- .... ....
....|..|--- .... ....|--- .... ....|--- .... ....
....|..|--- .... ....|--- .... ....|--- .... ....
....|..|--- .... ....|--- .... ....|--- .... ....
....|..|B-8 JF.F ....|--- .... ....|--- .... ....
....|..|--- .... ....|--- .... ....|--- .... ....
....|..|--- .... ....|--- .... ....|--- .... ....
....|..|--- .... ....|--- .... ....|--- .... ....
....|..|--- .... ....|--- .... ....|--- .... ....
....|..|--- .... ....|--- .... ....|--- .... ....
....|..|--- .... ....|--- .... ....|--- .... ....
....|..|--- .... ....|--- .... ....|--- .... ....
....|..|B-8 JF.7 ....|--- .... ....|--- .... ....
....|..|--- .... ....|--- .... ....|--- .... ....
....|..|--- .... ....|--- .... ....|--- .... ....
....|..|--- .... ....|--- .... ....|--- .... ....
....|..|B-8 JF.A ....|--- .... ....|--- .... ....
....|..|--- .... ....|--- .... ....|--- .... ....
....|..|--- .... ....|--- .... ....|--- .... ....
....|..|--- .... ....|--- .... ....|--- .... ....

[Pattern1]
....|..|B-8 JF.F ....|--- .... ....|--- .... ....
....|..|--- .... ....|--- .... ....|--- .... ....
....|..|--- .... ....|--- .... ....|--- .... ....
....|..|--- .... ....|--- .... ....|--- .... ....
....|..|--- .... ....|--- .... ....|--- .... ....
....|..|--- .... ....|--- .... ....|--- .... ....
....|..|--- .... ....|--- .... ....|--- .... ....
....|..|--- .... ....|--- .... ....|--- .... ....
....|..|B-8 JF.F ....|--- .... ....|--- .... ....
....|..|--- .... ....|--- .... ....|--- .... ....
....|..|--- .... ....|--- .... ....|--- .... ....
....|..|--- .... ....|--- .... ....|--- .... ....
....|..|B-8 JF.A ....|--- .... ....|--- .... ....
....|..|--- .... ....|--- .... ....|--- .... ....
....|..|--- .... ....|--- .... ....|--- .... ....
....|..|--- .... ....|--- .... ....|--- .... ....
....|..|B-8 JF.F ....|--- .... ....|--- .... ....
....|..|--- .... ....|--- .... ....|--- .... ....
....|..|--- .... ....|--- .... ....|--- .... ....
....|..|--- .... ....|--- .... ....|--- .... ....
....|..|B-8 JF.A ....|--- .... ....|--- .... ....
....|..|--- .... ....|--- .... ....|--- .... ....
....|..|--- .... ....|--- .... ....|--- .... ....
....|..|--- .... ....|--- .... ....|--- .... ....
....|..|B-8 JF.7 ....|--- .... ....|D#5 2F.F ....
....|..|--- .... ....|--- .... ....|--- .... ....
....|..|--- .... ....|--- .... ....|E-5 2F.F ....
....|..|--- .... ....|--- .... ....|--- .... ....
....|..|B-8 JF.A ....|--- .... ....|F#5 2F.F ....
....|..|--- .... ....|--- .... ....|--- .... ....
....|..|--- .... ....|--- .... ....|G#5 2F.F ....
....|..|--- .... ....|--- .... ....|G#3 2F1F ....
....|..|B-8 JF.7 ....|--- .... ....|E-5 2F.F ....
....|..|--- .... ....|--- .... ....|--- .... ....
....|..|--- .... ....|--- .... ....|E-5 2F.F ....
....|..|--- .... ....|--- .... ....|--- .... ....
....|..|--- .... ....|--- .... ....|F#5 2F.F ....
....|..|--- .... ....|--- .... ....|--- .... ....
....|..|--- .... ....|--- .... ....|G#5 2F.F ....
....|..|--- .... ....|--- .... ....|--- .... ....
....|..|B-8 JF.7 ....|--- .... ....|E-5 2F.F ....
....|..|--- .... ....|--- .... ....|--- .... ....
....|..|--- .... ....|--- .... ....|E-5 2F.F ....
....|..|--- .... ....|--- .... ....|G#3 2F1A ....
....|..|--- .... ....|--- .... ....|F#5 2F.F ....
....|..|--- .... ....|--- .... ....|--- .... ....
....|..|--- .... ....|--- .... ....|G#5 2F.F ....
....|..|--- .... ....|--- .... ....|--- .... ....
....|..|--- .... ....|--- .... ....|E-5 2F.F ....
....|..|--- .... ....|--- .... ....|--- .... ....
....|..|--- .... ....|--- .... ....|E-5 2F.F ....
....|..|--- .... ....|--- .... ....|--- .... ....
....|..|--- .... ....|--- .... ....|F#5 2F.F ....
....|..|--- .... ....|--- .... ....|--- .... ....
....|..|--- .... ....|--- .... ....|G#5 2F.F ....
....|..|--- .... ....|--- .... ....|G#3 2F17 ....
....|..|--- .... ....|--- .... ....|E-5 2F.F ....
....|..|--- .... ....|--- .... ....|--- .... ....
....|..|--- .... ....|--- .... ....|E-5 2F.F ....
....|..|--- .... ....|--- .... ....|--- .... ....
....|..|--- .... ....|--- .... ....|F#5 2F.F ....
....|..|--- .... ....|--- .... ....|--- .... ....
....|..|--- .... ....|--- .... ....|G#5 2F.F ....
....|..|--- .... ....|--- .... ....|G#3 2F2F ....

[Pattern2]
....|..|--- .... ....|--- .... ....|E-5 2F.F ....
....|..|--- .... ....|--- .... ....|--- .... ....
....|..|--- .... ....|--- .... ....|E-5 2F.F ....
....|..|--- .... ....|--- .... ....|--- .... ....
....|..|--- .... ....|--- .... ....|F#5 2F.F ....
....|..|--- .... ....|--- .... ....|--- .... ....
....|..|--- .... ....|--- .... ....|G#5 2F.F ....
....|..|--- .... ....|--- .... ....|--- .... ....
....|..|--- .... ....|--- .... ....|D#5 2F.F ....
....|..|--- .... ....|--- .... ....|--- .... ....
....|..|--- .... ....|--- .... ....|E-5 2F.F ....
....|..|--- .... ....|--- .... ....|G#3 2F2A ....
....|..|--- .... ....|--- .... ....|G#4 2F.F ....
....|..|--- .... ....|--- .... ....|F#5 2F.F ....
....|..|--- .... ....|--- .... ....|G#5 2F.F ....
....|..|--- .... ....|--- .... ....|--- .... ....
....|..|--- .... ....|--- .... ....|E-5 2F.F ....
....|..|--- .... ....|--- .... ....|--- .... ....
....|..|--- .... ....|--- .... ....|E-5 2F.7 ....
....|..|--- .... ....|--- .... ....|--- .... ....
....|..|--- .... ....|--- .... ....|G#4 2F.F ....
....|..|--- .... ....|--- .... ....|--- .... ....
....|..|--- .... ....|--- .... ....|G#5 2F.7 ....
....|..|--- .... ....|--- .... ....|G#3 2F27 ....
....|..|--- .... ....|--- .... ....|D#5 2F.F ....
....|..|--- .... ....|--- .... ....|F#5 2F.A ....
....|..|--- .... ....|--- .... ....|E-5 2F.F ....
....|..|--- .... ....|--- .... ....|--- .... ....
....|..|--- .... ....|--- .... ....|F#5 2F.F ....
....|..|--- .... ....|--- .... ....|--- .... ....
....|..|--- .... ....|--- .... ....|G#5 2F.F ....
....|..|--- .... ....|--- .... ....|G#5 2F.F ....
....|..|--- .... ....|--- .... ....|D#5 2F.F ....
....|..|--- .... ....|--- .... ....|--- .... ....
....|..|--- .... ....|--- .... ....|E-5 2F.F ....
....|..|--- .... ....|--- .... ....|--- .... ....
....|..|--- .... ....|--- .... ....|F#5 2F.F ....
....|..|--- .... ....|--- .... ....|F#5 2F.7 ....
....|..|--- .... ....|--- .... ....|G#5 2F.F ....
....|..|--- .... ....|--- .... ....|G#5 2F.F ....
....|..|--- .... ....|--- .... ....|D#5 2F.F ....
....|..|--- .... ....|--- .... ....|--- .... ....
....|..|--- .... ....|--- .... ....|E-5 2F.F ....
....|..|--- .... ....|--- .... ....|G#5 2F.A ....
....|..|--- .... ....|--- .... ....|F#5 2F.F ....
....|..|--- .... ....|--- .... ....|F#5 2F.F ....
....|..|--- .... ....|--- .... ....|G#5 2F.F ....
....|..|--- .... ....|--- .... ....|G#5 2F.F ....
....|..|--- .... ....|--- .... ....|D#5 2F.F ....
....|..|--- .... ....|--- .... ....|--- .... ....
....|..|--- .... ....|--- .... ....|E-5 2F.F ....
....|..|--- .... ....|--- .... ....|G#5 2F.A ....
....|..|--- .... ....|--- .... ....|F#5 2F.F ....
....|..|--- .... ....|--- .... ....|--- .... ....
....|..|--- .... ....|--- .... ....|G#5 2F.F ....
....|..|--- .... ....|--- .... ....|G#5 2F.7 ....
....|..|--- .... ....|--- .... ....|D#5 2F.F ....
....|..|--- .... ....|--- .... ....|F#5 2F.A ....
....|..|--- .... ....|--- .... ....|E-5 2F.F ....
....|..|--- .... ....|--- .... ....|G#5 2F.A ....
....|..|--- .... ....|--- .... ....|F#5 2F.F ....
....|..|--- .... ....|--- .... ....|--- .... ....
....|..|--- .... ....|--- .... ....|G#5 2F.F ....
....|..|--- .... ....|--- .... ....|A-3 2F4F ....

[Pattern3]
....|..|--- .... ....|--- .... ....|D#5 2F.F ....
....|..|--- .... ....|--- .... ....|--- .... ....
....|..|--- .... ....|--- .... ....|E-5 2F.F ....
....|..|--- .... ....|--- .... ....|--- .... ....
....|..|--- .... ....|--- .... ....|F#5 2F.F ....
....|..|--- .... ....|--- .... ....|F#5 2F.7 ....
....|..|--- .... ....|--- .... ....|G#5 2F.F ....
....|..|--- .... ....|--- .... ....|G#5 2F.7 ....
....|..|--- .... ....|--- .... ....|D#5 2F.F ....
....|..|--- .... ....|--- .... ....|--- .... ....
....|..|--- .... ....|--- .... ....|E-5 2F.F ....
....|..|--- .... ....|--- .... ....|A-3 2F4A ....
....|..|--- .... ....|--- .... ....|F#5 2F.F ....
....|..|--- .... ....|--- .... ....|--- .... ....
....|..|--- .... ....|--- .... ....|G#5 2F.F ....
....|..|--- .... ....|--- .... ....|--- .... ....
....|..|--- .... ....|--- .... ....|C#5 2F.F ....
....|..|--- .... ....|--- .... ....|--- .... ....
....|..|--- .... ....|--- .... ....|E-5 2F.7 ....
....|..|--- .... ....|--- .... ....|--- .... ....
....|..|--- .... ....|--- .... ....|F#5 2F.7 ....
....|..|--- .... ....|--- .... ....|--- .... ....
....|..|--- .... ....|--- .... ....|G#5 2F.7 ....
....|..|--- .... ....|--- .... ....|A-3 2F47 ....
....|..|--- .... ....|--- .... ....|D#5 2F.F ....
....|..|--- .... ....|--- .... ....|--- .... ....
....|..|--- .... ....|--- .... ....|E-5 2F.F ....
....|..|--- .... ....|--- .... ....|--- .... ....
....|..|--- .... ....|--- .... ....|F#5 2F.F ....
....|..|--- .... ....|--- .... ....|--- .... ....
....|..|--- .... ....|--- .... ....|G#5 2F.F ....
....|..|--- .... ....|--- .... ....|G#3 2F1F ....
....|..|--- .... ....|--- .... ....|E-5 2F.F ....
....|..|--- .... ....|--- .... ....|--- .... ....
....|..|--- .... ....|--- .... ....|E-5 2F.F ....
....|..|--- .... ....|--- .... ....|--- .... ....
....|..|--- .... ....|--- .... ....|F#5 2F.F ....
....|..|--- .... ....|--- .... ....|--- .... ....
....|..|--- .... ....|--- .... ....|G#5 2F.F ....
....|..|--- .... ....|--- .... ....|--- .... ....
....|..|--- .... ....|--- .... ....|E-5 2F.F ....
....|..|--- .... ....|--- .... ....|--- .... ....
....|..|--- .... ....|--- .... ....|E-5 2F.F ....
....|..|--- .... ....|--- .... ....|G#3 2F1A ....
....|..|--- .... ....|--- .... ....|F#5 2F.F ....
....|..|--- .... ....|--- .... ....|--- .... ....
....|..|--- .... ....|--- .... ....|G#5 2F.F ....
....|..|--- .... ....|--- .... ....|--- .... ....
....|..|--- .... ....|--- .... ....|E-5 2F.F ....
....|..|--- .... ....|--- .... ....|--- .... ....
....|..|--- .... ....|--- .... ....|E-5 2F.F ....
....|..|--- .... ....|--- .... ....|--- .... ....
....|..|--- .... ....|--- .... ....|F#5 2F.F ....
....|..|--- .... ....|--- .... ....|--- .... ....
....|..|--- .... ....|--- .... ....|G#5 2F.F ....
....|..|--- .... ....|--- .... ....|G#3 2F17 ....
....|..|--- .... ....|--- .... ....|E-5 2F.F ....
....|..|--- .... ....|--- .... ....|--- .... ....
....|..|--- .... ....|--- .... ....|E-5 2F.F ....
....|..|--- .... ....|--- .... ....|--- .... ....
....|..|--- .... ....|--- .... ....|F#5 2F.F ....
....|..|--- .... ....|--- .... ....|--- .... ....
....|..|--- .... ....|--- .... ....|G#5 2F.F ....
....|..|--- .... ....|--- .... ....|G#3 2F2F ....

[Pattern4]
....|..|--- .... ....|--- .... ....|E-5 2F.F ....
....|..|--- .... ....|--- .... ....|--- .... ....
....|..|--- .... ....|--- .... ....|E-5 2F.F ....
....|..|--- .... ....|--- .... ....|--- .... ....
....|..|--- .... ....|--- .... ....|F#5 2F.F ....
....|..|--- .... ....|--- .... ....|--- .... ....
....|..|--- .... ....|--- .... ....|G#5 2F.F ....
....|..|--- .... ....|--- .... ....|--- .... ....
....|..|--- .... ....|--- .... ....|D#5 2F.F ....
....|..|--- .... ....|--- .... ....|--- .... ....
....|..|--- .... ....|--- .... ....|E-5 2F.F ....
....|..|--- .... ....|--- .... ....|G#3 2F2A ....
....|..|--- .... ....|--- .... ....|G#4 2F.F ....
....|..|--- .... ....|--- .... ....|F#5 2F.F ....
....|..|--- .... ....|--- .... ....|G#5 2F.F ....
....|..|--- .... ....|--- .... ....|--- .... ....
....|..|--- .... ....|--- .... ....|E-5 2F.F ....
....|..|--- .... ....|--- .... ....|--- .... ....
....|..|--- .... ....|--- .... ....|E-5 2F.7 ....
....|..|--- .... ....|--- .... ....|--- .... ....
....|..|--- .... ....|--- .... ....|G#4 2F.F ....
....|..|--- .... ....|--- .... ....|--- .... ....
....|..|--- .... ....|--- .... ....|G#5 2F.7 ....
....|..|--- .... ....|--- .... ....|G#3 2F27 ....
....|..|--- .... ....|--- .... ....|D#5 2F.F ....
....|..|--- .... ....|--- .... ....|F#5 2F.A ....
....|..|--- .... ....|--- .... ....|E-5 2F.F ....
....|..|--- .... ....|--- .... ....|--- .... ....
....|..|--- .... ....|--- .... ....|F#5 2F.F ....
....|..|--- .... ....|--- .... ....|--- .... ....
....|..|--- .... ....|--- .... ....|G#5 2F.F ....
....|..|--- .... ....|--- .... ....|G#5 2F.F ....
....|..|--- .... ....|--- .... ....|D#5 2F.F ....
....|..|--- .... ....|--- .... ....|--- .... ....
....|..|--- .... ....|--- .... ....|E-5 2F.F ....
....|..|--- .... ....|--- .... ....|--- .... ....
....|..|--- .... ....|--- .... ....|F#5 2F.F ....
....|..|--- .... ....|--- .... ....|F#5 2F.7 ....
....|..|--- .... ....|--- .... ....|G#5 2F.F ....
....|..|--- .... ....|--- .... ....|G#5 2F.F ....
....|..|--- .... ....|--- .... ....|D#5 2F.F ....
....|..|--- .... ....|--- .... ....|--- .... ....
....|..|--- .... ....|--- .... ....|E-5 2F.F ....
....|..|--- .... ....|--- .... ....|G#5 2F.A ....
....|..|--- .... ....|--- .... ....|F#5 2F.F ....
....|..|--- .... ....|--- .... ....|F#5 2F.F ....
....|..|--- .... ....|--- .... ....|G#5 2F.F ....
....|..|--- .... ....|--- .... ....|G#5 2F.F ....
....|..|--- .... ....|--- .... ....|D#5 2F.F ....
....|..|--- .... ....|--- .... ....|--- .... ....
....|..|--- .... ....|--- .... ....|E-5 2F.F ....
....|..|--- .... ....|--- .... ....|G#5 2F.A ....
....|..|--- .... ....|--- .... ....|F#5 2F.F ....
....|..|--- .... ....|--- .... ....|--- .... ....
....|..|--- .... ....|--- .... ....|G#5 2F.F ....
....|..|--- .... ....|--- .... ....|G#5 2F.7 ....
....|..|--- .... ....|--- .... ....|D#5 2F.F ....
....|..|--- .... ....|--- .... ....|F#5 2F.A ....
....|..|--- .... ....|--- .... ....|E-5 2F.F ....
....|..|--- .... ....|--- .... ....|G#5 2F.A ....
....|..|--- .... ....|--- .... ....|F#5 2F.F ....
....|..|--- .... ....|--- .... ....|--- .... ....
....|..|--- .... ....|--- .... ....|G#5 2F.F ....
....|..|--- .... ....|--- .... ....|F#3 2F5F ....

[Pattern5]
....|..|--- .... ....|--- .... ....|D#5 2F.F ....
....|..|--- .... ....|--- .... ....|--- .... ....
....|..|--- .... ....|--- .... ....|E-5 2F.F ....
....|..|--- .... ....|--- .... ....|--- .... ....
....|..|--- .... ....|--- .... ....|F#5 2F.F ....
....|..|--- .... ....|--- .... ....|F#5 2F.7 ....
....|..|--- .... ....|--- .... ....|G#5 2F.F ....
....|..|--- .... ....|--- .... ....|G#5 2F.7 ....
....|..|--- .... ....|--- .... ....|D#5 2F.F ....
....|..|--- .... ....|--- .... ....|--- .... ....
....|..|--- .... ....|--- .... ....|E-5 2F.F ....
....|..|--- .... ....|--- .... ....|F#3 2F5A ....
....|..|--- .... ....|--- .... ....|F#5 2F.F ....
....|..|--- .... ....|--- .... ....|--- .... ....
....|..|--- .... ....|--- .... ....|G#5 2F.F ....
....|..|--- .... ....|--- .... ....|--- .... ....
....|..|--- .... ....|--- .... ....|C#5 2F.F ....
....|..|--- .... ....|--- .... ....|--- .... ....
....|..|--- .... ....|--- .... ....|E-5 2F.7 ....
....|..|--- .... ....|--- .... ....|--- .... ....
....|..|--- .... ....|--- .... ....|F#5 2F.7 ....
....|..|--- .... ....|--- .... ....|--- .... ....
....|..|--- .... ....|--- .... ....|G#5 2F.7 ....
....|..|--- .... ....|--- .... ....|F#3 2F57 ....
....|..|--- .... ....|--- .... ....|D#5 2F.F ....
....|..|--- .... ....|--- .... ....|--- .... ....
....|..|--- .... ....|--- .... ....|E-5 2F.F ....
....|..|--- .... ....|--- .... ....|--- .... ....
....|..|--- .... ....|--- .... ....|F#5 2F.F ....
....|..|--- .... ....|--- .... ....|--- .... ....
....|..|--- .... ....|--- .... ....|G#5 2F.F ....
....|..|--- .... ....|--- .... ....|G#3 2F1F ....
....|..|--- .... ....|--- .... ....|E-5 2F.F ....
....|..|--- .... ....|--- .... ....|--- .... ....
....|..|--- .... ....|--- .... ....|E-5 2F.F ....
....|..|--- .... ....|--- .... ....|--- .... ....
....|..|--- .... ....|--- .... ....|F#5 2F.F ....
....|..|--- .... ....|--- .... ....|--- .... ....
....|..|--- .... ....|--- .... ....|G#5 2F.F ....
....|..|--- .... ....|--- .... ....|--- .... ....
....|..|--- .... ....|--- .... ....|E-5 2F.F ....
....|..|--- .... ....|--- .... ....|--- .... ....
....|..|--- .... ....|--- .... ....|E-5 2F.F ....
....|..|--- .... ....|--- .... ....|G#3 2F1A ....
....|..|--- .... ....|--- .... ....|F#5 2F.F ....
....|..|--- .... ....|--- .... ....|--- .... ....
....|..|--- .... ....|--- .... ....|G#5 2F.F ....
....|..|--- .... ....|--- .... ....|--- .... ....
....|..|--- .... ....|--- .... ....|E-5 2F.F ....
....|..|--- .... ....|--- .... ....|--- .... ....
....|..|--- .... ....|--- .... ....|E-5 2F.F ....
....|..|--- .... ....|--- .... ....|--- .... ....
....|..|--- .... ....|--- .... ....|F#5 2F.F ....
....|..|--- .... ....|--- .... ....|--- .... ....
....|..|--- .... ....|--- .... ....|G#5 2F.F ....
....|..|--- .... ....|--- .... ....|G#3 2F17 ....
....|..|--- .... ....|--- .... ....|E-5 2F.F ....
....|..|--- .... ....|--- .... ....|--- .... ....
....|..|--- .... ....|--- .... ....|E-5 2F.F ....
....|..|--- .... ....|--- .... ....|--- .... ....
....|..|--- .... ....|--- .... ....|F#5 2F.F ....
....|..|--- .... ....|--- .... ....|--- .... ....
....|..|--- .... ....|--- .... ....|G#5 2F.F ....
....|..|--- .... ....|--- .... ....|G#3 2F2F ....

[Pattern6]
....|..|--- .... ....|--- .... ....|E-5 2F.F ....
....|..|--- .... ....|--- .... ....|--- .... ....
....|..|--- .... ....|--- .... ....|E-5 2F.F ....
....|..|--- .... ....|--- .... ....|--- .... ....
....|..|--- .... ....|--- .... ....|F#5 2F.F ....
....|..|--- .... ....|--- .... ....|--- .... ....
....|..|--- .... ....|--- .... ....|G#5 2F.F ....
....|..|--- .... ....|--- .... ....|--- .... ....
....|..|--- .... ....|--- .... ....|D#5 2F.F ....
....|..|--- .... ....|--- .... ....|--- .... ....
....|..|--- .... ....|--- .... ....|E-5 2F.F ....
....|..|--- .... ....|--- .... ....|G#3 2F2A ....
....|..|--- .... ....|--- .... ....|G#4 2F.F ....
....|..|--- .... ....|--- .... ....|F#5 2F.F ....
....|..|--- .... ....|--- .... ....|G#5 2F.F ....
....|..|--- .... ....|--- .... ....|--- .... ....
....|..|--- .... ....|--- .... ....|E-5 2F.F ....
....|..|--- .... ....|--- .... ....|--- .... ....
....|..|--- .... ....|--- .... ....|E-5 2F.7 ....
....|..|--- .... ....|--- .... ....|--- .... ....
....|..|--- .... ....|--- .... ....|G#4 2F.F ....
....|..|--- .... ....|--- .... ....|--- .... ....
....|..|--- .... ....|--- .... ....|G#5 2F.7 ....
....|..|--- .... ....|--- .... ....|G#3 2F27 ....
....|..|--- .... ....|--- .... ....|D#5 2F.F ....
....|..|--- .... ....|--- .... ....|F#5 2F.A ....
....|..|--- .... ....|--- .... ....|E-5 2F.F ....
....|..|--- .... ....|--- .... ....|--- .... ....
....|..|--- .... ....|--- .... ....|F#5 2F.F ....
....|..|--- .... ....|--- .... ....|--- .... ....
....|..|--- .... ....|--- .... ....|G#5 2F.F ....
....|..|--- .... ....|--- .... ....|G#5 2F.F ....
....|..|C-4 AF.F ....|--- .... ....|D#5 2F.F ....
....|..|--- .... ....|--- .... ....|--- .... ....
....|..|C-4 AF.F ....|--- .... ....|E-5 2F.F ....
....|..|--- .... ....|--- .... ....|--- .... ....
....|..|C-4 AF.F ....|--- .... ....|F#5 2F.F ....
....|..|--- .... ....|--- .... ....|F#5 2F.7 ....
....|..|C-4 AF.F ....|--- .... ....|G#5 2F.F ....
....|..|--- .... ....|--- .... ....|G#5 2F.F ....
....|..|C-4 AF.F ....|--- .... ....|D#5 2F.F ....
....|..|--- .... ....|--- .... ....|--- .... ....
....|..|C-4 AF.F ....|--- .... ....|E-5 2F.F ....
....|..|--- .... ....|--- .... ....|G#5 2F.A ....
....|..|C-4 AF.F ....|--- .... ....|F#5 2F.F ....
....|..|--- .... ....|--- .... ....|F#5 2F.F ....
....|..|C-4 AF.F ....|--- .... ....|G#5 2F.F ....
....|..|--- .... ....|--- .... ....|G#5 2F.F ....
....|..|C-4 AF.F ....|--- .... ....|D#5 2F.F ....
....|..|--- .... ....|--- .... ....|--- .... ....
....|..|C-4 AF.F ....|--- .... ....|E-5 2F.F ....
....|..|--- .... ....|--- .... ....|G#5 2F.A ....
....|..|C-4 AF.F ....|--- .... ....|F#5 2F.F ....
....|..|--- .... ....|--- .... ....|--- .... ....
....|..|C-4 AF.F ....|--- .... ....|G#5 2F.F ....
....|..|--- .... ....|--- .... ....|G#5 2F.7 ....
....|..|C-4 AF.F ....|--- .... ....|D#5 2F.F ....
....|..|--- .... ....|--- .... ....|F#5 2F.A ....
....|..|C-4 AF.F ....|--- .... ....|E-5 2F.F ....
....|..|--- .... ....|--- .... ....|G#5 2F.A ....
....|..|C-4 AF.F ....|--- .... ....|F#5 2F.F ....
....|..|--- .... ....|--- .... ....|--- .... ....
....|..|C-4 AF.F ....|--- .... ....|G#5 2F.F ....
....|..|--- .... ....|--- .... ....|A-3 2F4F ....

[Pattern7]
....|..|C-4 AF.F ....|F#4 UFFF ....|D#5 2F.F ....
....|..|--- .... ....|--- .... ....|--- .... ....
....|..|C-4 AF.F ....|--- .... ....|E-5 2F.F ....
....|..|--- .... ....|--- .... ....|--- .... ....
....|..|C-4 AF.F ....|F#4 UFFF ....|F#5 2F.F ....
....|..|--- .... ....|--- .... ....|F#5 2F.7 ....
....|..|C-4 AF.F ....|--- .... ....|G#5 2F.F ....
....|..|--- .... ....|--- .... ....|G#5 2F.7 ....
....|..|C-4 AF.F ....|--- .... ....|D#5 2F.F ....
....|..|--- .... ....|R-- .... ....|--- .... ....
....|..|C-4 AF.F ....|--- .... ....|E-5 2F.F ....
....|..|--- .... ....|--- .... ....|A-3 2F4A ....
....|..|C-4 AF.F ....|F#4 UFFF ....|F#5 2F.F ....
....|..|--- .... ....|--- .... ....|--- .... ....
....|..|C-4 AF.F ....|--- .... ....|G#5 2F.F ....
....|..|--- .... ....|--- .... ....|--- .... ....
....|..|C-4 AF.F ....|F#4 UFFA ....|C#5 2F.F ....
....|..|--- .... ....|--- .... ....|--- .... ....
....|..|C-4 AF.F ....|--- .... ....|E-5 2F.7 ....
....|..|--- .... ....|--- .... ....|--- .... ....
....|..|C-4 AF.F ....|C#4 UFFF ....|F#5 2F.7 ....
....|..|--- .... ....|R-- .... ....|--- .... ....
....|..|C-4 AF.F ....|--- .... ....|G#5 2F.7 ....
....|..|--- .... ....|--- .... ....|A-3 2F47 ....
....|..|C-4 AF.F ....|F#4 UFF7 ....|D#5 2F.F ....
....|..|--- .... ....|--- .... ....|--- .... ....
....|..|C-4 AF.F ....|--- .... ....|E-5 2F.F ....
....|..|--- .... ....|--- .... ....|--- .... ....
....|..|C-4 AF.F ....|C#4 UFFF ....|F#5 2F.F ....
....|..|--- .... ....|--- .... ....|--- .... ....
....|..|C-4 AF.F ....|--- .... ....|G#5 2F.F ....
....|..|--- .... ....|--- .... ....|G#3 2F1F ....
....|..|C-4 AF.F ....|C#4 UFFA ....|E-5 2F.F ....
....|..|--- .... ....|R-- .... ....|--- .... ....
....|..|C-4 AF.F ....|--- .... ....|E-5 2F.F ....
....|..|--- .... ....|--- .... ....|--- .... ....
....|..|C-4 AF.F ....|F#4 UFF7 ....|F#5 2F.F ....
....|..|--- .... ....|--- .... ....|--- .... ....
....|..|C-4 AF.F ....|--- .... ....|G#5 2F.F ....
....|..|--- .... ....|--- .... ....|--- .... ....
....|..|C-4 AF.F ....|C#4 UFFA ....|E-5 2F.F ....
....|..|--- .... ....|--- .... ....|--- .... ....
....|..|C-4 AF.F ....|--- .... ....|E-5 2F.F ....
....|..|--- .... ....|R-- .... ....|G#3 2F1A ....
....|..|C-4 AF.F ....|C#4 UFF7 ....|F#5 2F.F ....
....|..|--- .... ....|--- .... ....|--- .... ....
....|..|C-4 AF.F ....|--- .... ....|G#5 2F.F ....
....|..|--- .... ....|--- .... ....|--- .... ....
....|..|C-4 AF.F ....|--- .... ....|E-5 2F.F ....
....|..|--- .... ....|--- .... ....|--- .... ....
....|..|C-4 AF.F ....|--- .... ....|E-5 2F.F ....
....|..|--- .... ....|--- .... ....|--- .... ....
....|..|C-4 AF.F ....|C#4 UFF7 ....|F#5 2F.F ....
....|..|--- .... ....|--- .... ....|--- .... ....
....|..|C-4 AF.F ....|--- .... ....|G#5 2F.F ....
....|..|--- .... ....|R-- .... ....|G#3 2F17 ....
....|..|C-4 AF.F ....|--- .... ....|E-5 2F.F ....
....|..|--- .... ....|--- .... ....|--- .... ....
....|..|C-4 AF.F ....|--- .... ....|E-5 2F.F ....
....|..|--- .... ....|--- .... ....|--- .... ....
....|..|C-4 AF.F ....|--- .... ....|F#5 2F.F ....
....|..|--- .... ....|--- .... ....|--- .... ....
....|..|C-4 AF.F ....|--- .... ....|G#5 2F.F ....
....|..|--- .... ....|--- .... ....|G#3 2F2F ....

[Pattern8]
....|..|C-4 AF.F ....|--- .... ....|E-5 2F.F ....
....|..|--- .... ....|--- .... ....|--- .... ....
....|..|C-4 AF.F ....|--- .... ....|E-5 2F.F ....
....|..|--- .... ....|R-- .... ....|--- .... ....
....|..|C-4 AF.F ....|--- .... ....|F#5 2F.F ....
....|..|--- .... ....|--- .... ....|--- .... ....
....|..|C-4 AF.F ....|--- .... ....|G#5 2F.F ....
....|..|--- .... ....|--- .... ....|--- .... ....
....|..|C-4 AF.F ....|--- .... ....|D#5 2F.F ....
....|..|--- .... ....|--- .... ....|--- .... ....
....|..|C-4 AF.F ....|--- .... ....|E-5 2F.F ....
....|..|--- .... ....|--- .... ....|G#3 2F2A ....
....|..|C-4 AF.F ....|--- .... ....|G#4 2F.F ....
....|..|--- .... ....|--- .... ....|F#5 2F.F ....
....|..|C-4 AF.F ....|--- .... ....|G#5 2F.F ....
....|..|--- .... ....|--- .... ....|--- .... ....
....|..|C-4 AF.F ....|--- .... ....|E-5 2F.F ....
....|..|--- .... ....|--- .... ....|--- .... ....
....|..|C-4 AF.F ....|--- .... ....|E-5 2F.7 ....
....|..|--- .... ....|--- .... ....|--- .... ....
....|..|C-4 AF.F ....|--- .... ....|G#4 2F.F ....
....|..|--- .... ....|--- .... ....|--- .... ....
....|..|C-4 AF.F ....|--- .... ....|G#5 2F.7 ....
....|..|--- .... ....|--- .... ....|G#3 2F27 ....
....|..|C-4 AF.F ....|--- .... ....|D#5 2F.F ....
....|..|--- .... ....|--- .... ....|F#5 2F.A ....
....|..|C-4 AF.F ....|--- .... ....|A-4 2F.F ....
....|..|--- .... ....|--- .... ....|--- .... ....
....|..|C-4 AF.F ....|--- .... ....|B-4 2F.F ....
....|..|--- .... ....|--- .... ....|--- .... ....
....|..|C-4 AF.F ....|--- .... ....|G#4 2F.F ....
....|..|--- .... ....|--- .... ....|E-3 2F2F ....
....|..|C-4 AF.F ....|--- .... ....|D#5 2F.F ....
....|..|--- .... ....|--- .... ....|--- .... ....
....|..|C-4 AF.F ....|--- .... ....|C#5 2F.F ....
....|..|--- .... ....|--- .... ....|A-4 2F.F ....
....|..|C-4 AF.F ....|--- .... ....|B-4 2F.F ....
....|..|--- .... ....|--- .... ....|F#5 2F.7 ....
....|..|C-4 AF.F ....|--- .... ....|G#4 2F.F ....
....|..|--- .... ....|--- .... ....|R-- .... ....
....|..|C-4 AF.F ....|--- .... ....|D#5 2F.F ....
....|..|--- .... ....|--- .... ....|--- .... ....
....|..|C-4 AF.F ....|--- .... ....|C#5 2F.F ....
....|..|--- .... ....|--- .... ....|A-4 2F.F ....
....|..|C-4 AF.F ....|--- .... ....|B-4 2F.F ....
....|..|--- .... ....|--- .... ....|B-4 2F.F ....
....|..|C-4 AF.F ....|--- .... ....|G#4 2F.F ....
....|..|--- .... ....|--- .... ....|R-- .... ....
....|..|C-4 AF.F ....|--- .... ....|C#5 2F.F ....
....|..|--- .... ....|--- .... ....|--- .... ....
....|..|C-4 AF.F ....|--- .... ....|C#5 2F.F ....
....|..|--- .... ....|--- .... ....|A-4 2F.F ....
....|..|C-4 AF.F ....|--- .... ....|B-4 2F.F ....
....|..|--- .... ....|--- .... ....|--- .... ....
....|..|C-4 AF.F ....|--- .... ....|G#4 2F.7 ....
....|..|--- .... ....|--- .... ....|E-3 2F27 ....
....|..|C-4 AF.F ....|--- .... ....|C#5 2F.F ....
....|..|--- .... ....|--- .... ....|B-4 2F.A ....
....|..|C-4 AF.F ....|--- .... ....|C#5 2F.F ....
....|..|--- .... ....|--- .... ....|A-4 2F.F ....
....|..|C-4 AF.F ....|--- .... ....|B-4 2F.F ....
....|..|--- .... ....|--- .... ....|--- .... ....
....|..|C-4 AF.F ....|--- .... ....|G#4 2F.7 ....
....|..|--- .... ....|--- .... ....|F#3 2F5F ....

[Pattern9]
....|..|C-4 AF.F ....|F#4 UFFF ....|C#5 2F.F ....
....|..|--- .... ....|--- .... ....|--- .... ....
....|..|C-4 AF.F ....|--- .... ....|C#5 2F.7 ....
....|..|--- .... ....|--- .... ....|A-4 2F.7 ....
....|..|C-4 AF.F ....|F#4 UFFF ....|B-4 2F.7 ....
....|..|--- .... ....|--- .... ....|B-4 2F.7 ....
....|..|C-4 AF.F ....|--- .... ....|G#4 2F.7 ....
....|..|--- .... ....|--- .... ....|R-- .... ....
....|..|C-4 AF.F ....|--- .... ....|C#5 2F.7 ....
....|..|--- .... ....|R-- .... ....|--- .... ....
....|..|C-4 AF.F ....|--- .... ....|C#5 2F.7 ....
....|..|--- .... ....|--- .... ....|A-4 2F.7 ....
....|..|C-4 AF.F ....|F#4 UFFF ....|B-4 2F.7 ....
....|..|--- .... ....|--- .... ....|--- .... ....
....|..|C-4 AF.F ....|--- .... ....|R-- .... ....
....|..|--- .... ....|--- .... ....|R-- .... ....
....|..|C-4 AF.F ....|F#4 UFFA ....|C#5 2F.7 ....
....|..|--- .... ....|--- .... ....|--- .... ....
....|..|C-4 AF.F ....|--- .... ....|C#5 2F.7 ....
....|..|--- .... ....|--- .... ....|A-4 2F.7 ....
....|..|C-4 AF.F ....|C#4 UFFF ....|B-4 2F.7 ....
....|..|--- .... ....|R-- .... ....|--- .... ....
....|..|C-4 AF.F ....|--- .... ....|R-- .... ....
....|..|--- .... ....|--- .... ....|F#3 2F57 ....
....|..|C-4 AF.F ....|F#4 UFF7 ....|C#5 2F.7 ....
....|..|--- .... ....|--- .... ....|--- .... ....
....|..|C-4 AF.F ....|--- .... ....|--- .... ....
....|..|--- .... ....|--- .... ....|R-- .... ....
....|..|C-4 AF.F ....|C#4 UFFF ....|--- .... ....
....|..|--- .... ....|--- .... ....|--- .... ....
....|..|C-4 AF.F ....|--- .... ....|--- .... ....
....|..|--- .... ....|--- .... ....|R-- .... ....
....|..|C-4 AF.F ....|C#4 UFFA ....|--- .... ....
....|..|--- .... ....|R-- .... ....|--- .... ....
....|..|C-4 AF.7 ....|--- .... ....|--- .... ....
....|..|--- .... ....|--- .... ....|--- .... ....
....|..|C-4 AF.F ....|F#4 UFF7 ....|--- .... ....
 C#4|..|C#3 2C.F ....|--- .... ....|--- .... ....
....|..|C-4 AF.7 ....|--- .... ....|--- .... ....
....|..|R-- .... ....|--- .... ....|--- .... ....
....|..|C-4 AF.F ....|C#4 UFFA ....|--- .... ....
....|..|--- .... ....|--- .... ....|--- .... ....
....|..|C-4 AF.7 ....|--- .... ....|--- .... ....
....|..|--- .... ....|R-- .... ....|R-- .... ....
....|..|C-4 AF.F ....|C#4 UFF7 ....|--- .... ....
 C#4|..|C#3 2C.F ....|--- .... ....|--- .... ....
....|..|C-4 AF.7 ....|--- .... ....|--- .... ....
....|..|R-- .... ....|--- .... ....|--- .... ....
....|..|C-4 AF.F ....|--- .... ....|--- .... ....
....|..|C#3 2F.A ....|--- .... ....|--- .... ....
....|..|C-4 AF.7 ....|--- .... ....|--- .... ....
....|..|R-- .... ....|--- .... ....|--- .... ....
....|..|C-4 AF.F ....|C#4 UFF7 ....|--- .... ....
 C#4|..|C#3 2C.F ....|--- .... ....|--- .... ....
....|..|C-4 AF.7 ....|--- .... ....|--- .... ....
....|..|R-- .... ....|R-- .... ....|R-- .... ....
....|..|C-4 AF.F ....|--- .... ....|--- .... ....
....|..|C#3 2F.A ....|--- .... ....|--- .... ....
....|..|--- .... ....|--- .... ....|--- .... ....
....|..|R-- .... ....|--- .... ....|--- .... ....
....|..|C-4 AF.F ....|--- .... ....|--- .... ....
 C#4|..|C#3 2C.F ....|--- .... ....|--- .... ....
....|..|--- .... ....|--- .... ....|--- .... ....
....|..|R-- .... ....|--- .... ....|--- .... ....

[Pattern10]
....|..|C-4 AF.F ....|--- .... ....|--- .... ....
....|..|C#3 2F.A ....|--- .... ....|--- .... ....
....|..|--- .... ....|--- .... ....|--- .... ....
....|..|R-- .... ....|R-- .... ....|--- .... ....
....|..|C-4 AF.F ....|--- .... ....|--- .... ....
 C#4|..|C#3 2C.F ....|--- .... ....|--- .... ....
....|..|--- .... ....|--- .... ....|--- .... ....
....|..|R-- .... ....|--- .... ....|--- .... ....
....|..|C-4 AF.F ....|--- .... ....|--- .... ....
....|..|C#3 2F.A ....|--- .... ....|--- .... ....
....|..|--- .... ....|--- .... ....|--- .... ....
....|..|R-- .... ....|--- .... ....|--- .... ....
....|..|C-4 AF.F ....|--- .... ....|--- .... ....
 C#4|..|C#3 2C.F ....|--- .... ....|--- .... ....
....|..|--- .... ....|--- .... ....|--- .... ....
....|..|R-- .... ....|--- .... ....|--- .... ....
....|..|C-4 AF.F ....|--- .... ....|--- .... ....
....|..|C#3 2F.A ....|--- .... ....|--- .... ....
....|..|--- .... ....|--- .... ....|--- .... ....
....|..|R-- .... ....|--- .... ....|--- .... ....
....|..|C-4 AF.F ....|--- .... ....|--- .... ....
 C#4|..|C#3 2C.F ....|--- .... ....|--- .... ....
....|..|--- .... ....|--- .... ....|--- .... ....
....|..|R-- .... ....|--- .... ....|--- .... ....
....|..|C-4 AF.F ....|--- .... ....|--- .... ....
....|..|C#3 2F.A ....|--- .... ....|--- .... ....
....|..|--- .... ....|--- .... ....|--- .... ....
....|..|R-- .... ....|--- .... ....|--- .... ....
....|..|C-4 AF.F ....|--- .... ....|--- .... ....
 C#4|..|C#3 2C.F ....|--- .... ....|--- .... ....
....|..|--- .... ....|--- .... ....|--- .... ....
....|..|R-- .... ....|--- .... ....|--- .... ....
....|..|C-4 AF.F ....|--- .... ....|--- .... ....
 C#4|..|C#3 2C.F ....|--- .... ....|--- .... ....
....|..|--- .... ....|--- .... ....|--- .... ....
....|..|R-- .... ....|--- .... ....|--- .... ....
....|..|C-4 AF.F ....|--- .... ....|--- .... ....
 C#4|..|C#3 2C.F ....|--- .... ....|--- .... ....
....|..|--- .... ....|--- .... ....|--- .... ....
....|..|R-- .... ....|--- .... ....|--- .... ....
....|..|C-4 AF.F ....|--- .... ....|--- .... ....
....|..|C#3 2F.A ....|--- .... ....|--- .... ....
....|..|--- .... ....|--- .... ....|--- .... ....
....|..|R-- .... ....|--- .... ....|--- .... ....
....|..|C-4 AF.F ....|--- .... ....|--- .... ....
 C#4|..|C#3 2C.F ....|--- .... ....|--- .... ....
....|..|--- .... ....|--- .... ....|--- .... ....
....|..|R-- .... ....|--- .... ....|--- .... ....
....|..|C-4 AF.F ....|--- .... ....|--- .... ....
....|..|C#3 2F.A ....|--- .... ....|--- .... ....
....|..|--- .... ....|--- .... ....|--- .... ....
....|..|R-- .... ....|--- .... ....|--- .... ....
....|..|C-4 AF.F ....|--- .... ....|--- .... ....
 C#4|..|C#3 2C.F ....|--- .... ....|--- .... ....
....|..|--- .... ....|--- .... ....|--- .... ....
....|..|R-- .... ....|--- .... ....|--- .... ....
....|..|C-4 AF.F ....|--- .... ....|--- .... ....
....|..|C#3 2F.7 ....|--- .... ....|--- .... ....
....|..|--- .... ....|--- .... ....|--- .... ....
....|..|R-- .... ....|--- .... ....|--- .... ....
....|..|C-4 AF.F ....|--- .... ....|--- .... ....
 C#4|..|C#3 2C.F ....|--- .... ....|--- .... ....
....|..|--- .... ....|--- .... ....|--- .... ....
....|..|R-- .... ....|--- .... ....|--- .... ....

[Pattern11]
....|..|C-4 AF.F ....|--- .... ....|--- .... ....
....|..|C#3 2F.A ....|--- .... ....|--- .... ....
....|..|--- .... ....|--- .... ....|--- .... ....
....|..|R-- .... ....|--- .... ....|--- .... ....
....|..|C-4 AF.F ....|--- .... ....|--- .... ....
 C#4|..|C#3 2C.F ....|--- .... ....|--- .... ....
....|..|--- .... ....|--- .... ....|--- .... ....
....|..|R-- .... ....|--- .... ....|--- .... ....
....|..|C-4 AF.F ....|G#3 UFFF ....|--- .... ....
....|..|C#3 2F.A ....|--- .... ....|--- .... ....
....|..|--- .... ....|--- .... ....|--- .... ....
....|..|R-- .... ....|--- .... ....|--- .... ....
....|..|C-4 AF.F ....|G#3 UFFF ....|--- .... ....
 C#4|..|C#3 2C.F ....|--- .... ....|--- .... ....
....|..|--- .... ....|--- .... ....|--- .... ....
....|..|R-- .... ....|--- .... ....|--- .... ....
....|..|C-4 AF.F ....|D#4 UFFF ....|--- .... ....
....|..|C#3 2F.A ....|--- .... ....|--- .... ....
....|..|--- .... ....|--- .... ....|--- .... ....
....|..|R-- .... ....|--- .... ....|--- .... ....
....|..|C-4 AF.F ....|E-4 UFFF ....|--- .... ....
 C#4|..|C#3 2C.F ....|--- .... ....|--- .... ....
....|..|--- .... ....|--- .... ....|--- .... ....
....|..|R-- .... ....|--- .... ....|--- .... ....
....|..|C-4 AF.F ....|D#4 UFFF ....|--- .... ....
....|..|C#3 2F.A ....|--- .... ....|--- .... ....
....|..|--- .... ....|--- .... ....|--- .... ....
....|..|R-- .... ....|--- .... ....|--- .... ....
....|..|C-4 AF.F ....|C#4 UFFF ....|--- .... ....
 C#4|..|C#3 2C.F ....|--- .... ....|--- .... ....
....|..|--- .... ....|--- .... ....|--- .... ....
....|..|R-- .... ....|R-- .... ....|--- .... ....
....|..|C-4 AF.F ....|G#3 UFFF ....|E-5 2F.F ....
....|..|C#3 2F.A ....|--- .... ....|--- .... ....
....|..|--- .... ....|--- .... ....|--- .... ....
....|..|R-- .... ....|--- .... ....|--- .... ....
....|..|C-4 AF.F ....|G#3 UFF7 ....|--- .... ....
 C#4|..|C#3 2C.F ....|--- .... ....|--- .... ....
....|..|--- .... ....|--- .... ....|--- .... ....
....|..|R-- .... ....|--- .... ....|--- .... ....
....|..|C-4 AF.F ....|D#4 UFF7 ....|--- .... ....
....|..|C#3 2F.A ....|--- .... ....|--- .... ....
....|..|--- .... ....|R-- .... ....|--- .... ....
....|..|R-- .... ....|R-- .... ....|--- .... ....
....|..|C-4 AF.F ....|E-4 UFF7 ....|E-5 2F.A ....
 C#4|..|C#3 2C.F ....|--- .... ....|--- .... ....
....|..|--- .... ....|--- .... ....|--- .... ....
....|..|R-- .... ....|--- .... ....|--- .... ....
....|..|C-4 AF.F ....|D#4 UFF7 ....|--- .... ....
....|..|C#3 2F.A ....|--- .... ....|--- .... ....
....|..|--- .... ....|--- .... ....|--- .... ....
....|..|R-- .... ....|--- .... ....|--- .... ....
....|..|C-4 AF.F ....|C#4 UFF7 ....|--- .... ....
 C#4|..|C#3 2C.F ....|--- .... ....|--- .... ....
....|..|--- .... ....|R-- .... ....|--- .... ....
....|..|R-- .... ....|R-- .... ....|--- .... ....
....|..|C-4 AF.F ....|G#3 UFF7 ....|E-5 2F.7 ....
....|..|C#3 2F.A ....|--- .... ....|--- .... ....
....|..|--- .... ....|--- .... ....|--- .... ....
....|..|R-- .... ....|--- .... ....|--- .... ....
....|..|C-4 AF.F ....|--- .... ....|--- .... ....
 C#4|..|C#3 2C.F ....|--- .... ....|--- .... ....
....|..|--- .... ....|--- .... ....|--- .... ....
....|..|R-- .... ....|--- .... ....|--- .... ....

[Pattern12]
....|..|C-4 AF.F ....|--- .... ....|--- .... ....
....|..|C#3 2F.A ....|--- .... ....|--- .... ....
....|..|--- .... ....|R-- .... ....|--- .... ....
....|..|R-- .... ....|--- .... ....|--- .... ....
....|..|C-4 AF.F ....|--- .... ....|--- .... ....
 C#4|..|C#3 2C.F ....|--- .... ....|--- .... ....
....|..|--- .... ....|--- .... ....|--- .... ....
....|..|R-- .... ....|--- .... ....|--- .... ....
....|..|C-4 AF.F ....|G#3 UFFF ....|--- .... ....
....|..|C#3 2F.A ....|--- .... ....|--- .... ....
....|..|--- .... ....|--- .... ....|--- .... ....
....|..|R-- .... ....|--- .... ....|--- .... ....
....|..|C-4 AF.F ....|G#3 UFFF ....|--- .... ....
 C#4|..|C#3 2C.F ....|--- .... ....|--- .... ....
....|..|--- .... ....|--- .... ....|--- .... ....
....|..|R-- .... ....|R-- .... ....|--- .... ....
....|..|C-4 AF.F ....|D#4 UFFF ....|--- .... ....
....|..|C#3 2F.A ....|--- .... ....|--- .... ....
....|..|--- .... ....|--- .... ....|--- .... ....
....|..|R-- .... ....|--- .... ....|--- .... ....
....|..|C-4 AF.F ....|E-4 UFFF ....|--- .... ....
 C#4|..|C#3 2C.F ....|--- .... ....|--- .... ....
....|..|--- .... ....|--- .... ....|--- .... ....
....|..|R-- .... ....|--- .... ....|--- .... ....
....|..|C-4 AF.F ....|D#4 UFFF ....|--- .... ....
....|..|C#3 2F.A ....|--- .... ....|--- .... ....
....|..|--- .... ....|--- .... ....|--- .... ....
....|..|R-- .... ....|R-- .... ....|--- .... ....
....|..|C-4 AF.F ....|C#4 UFFF ....|--- .... ....
 C#4|..|C#3 2C.F ....|--- .... ....|R-- .... ....
....|..|C-4 LF.F ....|--- .... ....|--- .... ....
....|..|R-- .... ....|R-- .... ....|--- .... ....
....|..|C-4 AF.F ....|A-3 UFFF ....|--- .... ....
....|..|C#3 2F.A ....|--- .... ....|--- .... ....
....|..|--- .... ....|--- .... ....|--- .... ....
....|..|R-- .... ....|--- .... ....|--- .... ....
....|..|C-4 AF.F ....|G#3 UFF7 ....|--- .... ....
 A-3|..|A-2 2C.F ....|--- .... ....|--- .... ....
....|..|--- .... ....|--- .... ....|--- .... ....
....|..|R-- .... ....|R-- .... ....|--- .... ....
....|..|C-4 AF.F ....|D#4 UFF7 ....|--- .... ....
....|..|C#3 2F.A ....|--- .... ....|R-- .... ....
....|..|C-4 LF.A ....|--- .... ....|--- .... ....
....|..|R-- .... ....|R-- .... ....|--- .... ....
....|..|C-4 AF.F ....|E-4 UFF7 ....|--- .... ....
 A-3|..|A-2 2C.F ....|--- .... ....|--- .... ....
....|..|--- .... ....|--- .... ....|--- .... ....
....|..|R-- .... ....|--- .... ....|--- .... ....
....|..|C-4 AF.F ....|D#4 UFF7 ....|--- .... ....
....|..|A-2 2F.A ....|--- .... ....|--- .... ....
....|..|--- .... ....|--- .... ....|--- .... ....
....|..|R-- .... ....|--- .... ....|--- .... ....
....|..|C-4 AF.F ....|C#4 UFF7 ....|--- .... ....
 A-3|..|A-2 2C.F ....|--- .... ....|R-- .... ....
....|..|C-4 LF.7 ....|--- .... ....|--- .... ....
....|..|R-- .... ....|R-- .... ....|--- .... ....
....|..|C-4 AF.F ....|B-3 UFFF ....|--- .... ....
....|..|A-2 2F.A ....|--- .... ....|--- .... ....
....|..|--- .... ....|--- .... ....|--- .... ....
....|..|R-- .... ....|--- .... ....|--- .... ....
....|..|C-4 AF.F ....|G#3 UFFF ....|--- .... ....
 A-3|..|A-2 2C.F ....|--- .... ....|--- .... ....
....|..|--- .... ....|--- .... ....|--- .... ....
....|..|R-- .... ....|--- .... ....|--- .... ....

[Pattern13]
....|..|C-4 AF.F ....|R-- .... ....|--- .... ....
....|..|A-2 2F.A ....|R-- .... ....|--- .... ....
....|..|--- .... ....|--- .... ....|--- .... ....
....|..|R-- .... ....|--- .... ....|--- .... ....
....|..|C-4 AF.F ....|G#3 UFFF ....|--- .... ....
 F#4|..|F#2 2A.F ....|--- .... ....|--- .... ....
....|..|--- .... ....|--- .... ....|--- .... ....
....|..|R-- .... ....|R-- .... ....|--- .... ....
....|..|C-4 AF.F ....|G#3 UFFF ....|--- .... ....
....|..|A-2 2F.A ....|--- .... ....|--- .... ....
....|..|--- .... ....|--- .... ....|--- .... ....
....|..|R-- .... ....|R-- .... ....|--- .... ....
....|..|C-4 AF.F ....|G#3 UFFF ....|--- .... ....
 F#4|..|F#2 2A.F ....|R-- .... ....|--- .... ....
....|..|--- .... ....|--- .... ....|--- .... ....
....|..|R-- .... ....|R-- .... ....|--- .... ....
....|..|C-4 AF.F ....|D#4 UFFF ....|--- .... ....
....|..|F#2 2F.A ....|--- .... ....|--- .... ....
....|..|--- .... ....|--- .... ....|--- .... ....
....|..|R-- .... ....|R-- .... ....|--- .... ....
....|..|C-4 AF.F ....|E-4 UFFF ....|--- .... ....
 F#4|..|F#2 2A.F ....|--- .... ....|--- .... ....
....|..|--- .... ....|--- .... ....|--- .... ....
....|..|R-- .... ....|R-- .... ....|--- .... ....
....|..|C-4 AF.F ....|D#4 UFFF ....|--- .... ....
....|..|F#2 2F.A ....|R-- .... ....|--- .... ....
....|..|--- .... ....|--- .... ....|--- .... ....
....|..|R-- .... ....|R-- .... ....|--- .... ....
....|..|C-4 AF.F ....|C#4 UFFF ....|--- .... ....
 F#4|..|F#2 2A.F ....|--- .... ....|--- .... ....
....|..|--- .... ....|--- .... ....|--- .... ....
....|..|R-- .... ....|R-- .... ....|--- .... ....
....|..|C-4 AF.F ....|G#3 UFFF ....|C#2 2F.F ....
....|..|F#2 2F.A ....|--- .... ....|--- .... ....
....|..|--- .... ....|--- .... ....|--- .... ....
....|..|R-- .... ....|R-- .... ....|--- .... ....
....|..|C-4 AF.F ....|G#3 UFF7 ....|--- .... ....
 C#4|..|C#3 2C.F ....|--- .... ....|--- .... ....
....|..|--- .... ....|--- .... ....|--- .... ....
....|..|R-- .... ....|R-- .... ....|--- .... ....
....|..|C-4 AF.F ....|D#4 UFF7 ....|--- .... ....
....|..|F#2 2F.A ....|--- .... ....|--- .... ....
....|..|--- .... ....|R-- .... ....|--- .... ....
....|..|R-- .... ....|R-- .... ....|--- .... ....
....|..|C-4 AF.F ....|E-4 UFF7 ....|C#2 2F.A ....
 C#4|..|C#3 2C.F ....|--- .... ....|--- .... ....
....|..|--- .... ....|--- .... ....|--- .... ....
....|..|R-- .... ....|--- .... ....|--- .... ....
....|..|C-4 AF.F ....|D#4 UFF7 ....|--- .... ....
....|..|C#3 2F.A ....|--- .... ....|--- .... ....
....|..|--- .... ....|--- .... ....|--- .... ....
....|..|R-- .... ....|--- .... ....|--- .... ....
....|..|C-4 AF.F ....|C#4 UFF7 ....|--- .... ....
 C#4|..|C#3 2C.F ....|--- .... ....|--- .... ....
....|..|--- .... ....|R-- .... ....|--- .... ....
....|..|R-- .... ....|R-- .... ....|--- .... ....
....|..|C-4 AF.F ....|G#3 UFF7 ....|C#2 2F.7 ....
....|..|C#3 2F.A ....|--- .... ....|--- .... ....
....|..|--- .... ....|--- .... ....|--- .... ....
....|..|R-- .... ....|--- .... ....|--- .... ....
....|..|C-4 AF.F ....|--- .... ....|--- .... ....
 C#4|..|C#3 2C.F ....|--- .... ....|--- .... ....
....|..|--- .... ....|--- .... ....|--- .... ....
....|..|R-- .... ....|--- .... ....|--- .... ....

[Pattern14]
....|..|C-4 AF.F ....|--- .... ....|--- .... ....
....|..|C#3 2F.A ....|--- .... ....|--- .... ....
....|..|--- .... ....|R-- .... ....|--- .... ....
....|..|R-- .... ....|--- .... ....|--- .... ....
....|..|C-4 AF.F ....|--- .... ....|--- .... ....
 C#4|..|C#3 2C.F ....|--- .... ....|--- .... ....
....|..|--- .... ....|--- .... ....|--- .... ....
....|..|R-- .... ....|--- .... ....|--- .... ....
....|..|C-4 AF.F ....|G#3 UFFF ....|--- .... ....
....|..|C#3 2F.A ....|--- .... ....|--- .... ....
....|..|--- .... ....|--- .... ....|--- .... ....
....|..|R-- .... ....|R-- .... ....|--- .... ....
....|..|C-4 AF.F ....|G#3 UFFF ....|--- .... ....
 C#4|..|C#3 2C.F ....|--- .... ....|--- .... ....
....|..|--- .... ....|--- .... ....|--- .... ....
....|..|R-- .... ....|R-- .... ....|--- .... ....
....|..|C-4 AF.F ....|D#4 UFFF ....|--- .... ....
....|..|C#3 2F.A ....|--- .... ....|--- .... ....
....|..|--- .... ....|--- .... ....|--- .... ....
....|..|R-- .... ....|--- .... ....|--- .... ....
....|..|C-4 AF.F ....|E-4 UFFF ....|--- .... ....
 C#4|..|C#3 2C.F ....|--- .... ....|--- .... ....
....|..|--- .... ....|--- .... ....|--- .... ....
....|..|R-- .... ....|R-- .... ....|--- .... ....
....|..|C-4 AF.F ....|D#4 UFFF ....|--- .... ....
....|..|C#3 2F.A ....|--- .... ....|--- .... ....
....|..|--- .... ....|--- .... ....|--- .... ....
....|..|R-- .... ....|R-- .... ....|--- .... ....
....|..|C-4 AF.F ....|C#4 UFFF ....|R-- .... ....
 C#4|..|C#3 2C.F ....|--- .... ....|--- .... ....
....|..|C-4 LF.F ....|--- .... ....|--- .... ....
....|..|R-- .... ....|R-- .... ....|--- .... ....
....|..|C-4 AF.F ....|E-4 UFFF ....|--- .... ....
....|..|C#3 2F.A ....|--- .... ....|--- .... ....
....|..|--- .... ....|--- .... ....|--- .... ....
....|..|R-- .... ....|R-- .... ....|--- .... ....
....|..|C-4 AF.F ....|G#3 UFF7 ....|--- .... ....
 A-3|..|A-2 2C.F ....|--- .... ....|--- .... ....
....|..|--- .... ....|--- .... ....|--- .... ....
....|..|R-- .... ....|R-- .... ....|--- .... ....
....|..|C-4 AF.F ....|D#4 UFF7 ....|R-- .... ....
....|..|C#3 2F.A ....|--- .... ....|--- .... ....
....|..|C-4 LF.A ....|--- .... ....|--- .... ....
....|..|R-- .... ....|R-- .... ....|--- .... ....
....|..|C-4 AF.F ....|C#4 UFFF ....|--- .... ....
 A-3|..|A-2 2C.F ....|--- .... ....|--- .... ....
....|..|--- .... ....|--- .... ....|--- .... ....
....|..|R-- .... ....|--- .... ....|--- .... ....
....|..|C-4 AF.F ....|D#4 UFF7 ....|--- .... ....
....|..|A-2 2F.A ....|--- .... ....|--- .... ....
....|..|--- .... ....|--- .... ....|--- .... ....
....|..|R-- .... ....|--- .... ....|--- .... ....
....|..|C-4 AF.F ....|C#4 UFF7 ....|R-- .... ....
 A-3|..|A-2 2C.F ....|--- .... ....|--- .... ....
....|..|C-4 LF.7 ....|R-- .... ....|--- .... ....
....|..|R-- .... ....|R-- .... ....|--- .... ....
....|..|C-4 AF.F ....|E-4 UFF7 ....|--- .... ....
....|..|A-2 2F.A ....|--- .... ....|--- .... ....
....|..|--- .... ....|--- .... ....|--- .... ....
....|..|R-- .... ....|--- .... ....|--- .... ....
....|..|C-4 AF.F ....|--- .... ....|--- .... ....
 A-3|..|A-2 2C.F ....|--- .... ....|--- .... ....
....|..|--- .... ....|--- .... ....|--- .... ....
....|..|R-- .... ....|--- .... ....|--- .... ....

[Pattern15]
....|..|C-4 AF.F ....|--- .... ....|--- .... ....
....|..|A-2 2F.A ....|--- .... ....|--- .... ....
....|..|--- .... ....|R-- .... ....|--- .... ....
....|..|R-- .... ....|--- .... ....|--- .... ....
....|..|C-4 AF.F ....|C#4 UFF7 ....|--- .... ....
 F#4|..|F#2 2A.F ....|--- .... ....|--- .... ....
....|..|--- .... ....|--- .... ....|--- .... ....
....|..|R-- .... ....|--- .... ....|--- .... ....
....|..|C-4 AF.F ....|G#3 UFFF ....|--- .... ....
....|..|A-2 2F.A ....|--- .... ....|--- .... ....
....|..|--- .... ....|--- .... ....|--- .... ....
....|..|R-- .... ....|--- .... ....|--- .... ....
....|..|C-4 AF.F ....|G#3 UFFF ....|--- .... ....
 F#4|..|F#2 2A.F ....|--- .... ....|--- .... ....
....|..|--- .... ....|R-- .... ....|--- .... ....
....|..|R-- .... ....|R-- .... ....|--- .... ....
....|..|C-4 AF.F ....|D#4 UFFF ....|--- .... ....
....|..|F#2 2F.A ....|--- .... ....|--- .... ....
....|..|--- .... ....|--- .... ....|--- .... ....
....|..|R-- .... ....|--- .... ....|--- .... ....
....|..|C-4 AF.F ....|E-4 UFFF ....|--- .... ....
 F#4|..|F#2 2A.F ....|--- .... ....|--- .... ....
....|..|--- .... ....|--- .... ....|--- .... ....
....|..|R-- .... ....|--- .... ....|--- .... ....
....|..|C-4 AF.F ....|D#4 UFFF ....|--- .... ....
....|..|F#2 2F.A ....|--- .... ....|--- .... ....
....|..|C-4 LF.F ....|--- .... ....|--- .... ....
....|..|R-- .... ....|R-- .... ....|--- .... ....
....|..|C-4 AF.F ....|C#4 UFFF ....|--- .... ....
 F#4|..|F#2 2A.F ....|--- .... ....|--- .... ....
....|..|--- .... ....|--- .... ....|--- .... ....
....|..|R-- .... ....|--- .... ....|G#3 2F1F ....
....|..|C-4 AF.F ....|G#3 UFFF ....|--- .... ....
....|..|F#2 2F.A ....|--- .... ....|--- .... ....
....|..|--- .... ....|--- .... ....|--- .... ....
....|..|R-- .... ....|--- .... ....|--- .... ....
....|..|C-4 AF.F ....|G#3 UFF7 ....|--- .... ....
 C#4|..|C#3 2C.F ....|--- .... ....|--- .... ....
....|..|C-4 LF.A ....|--- .... ....|--- .... ....
....|..|R-- .... ....|R-- .... ....|--- .... ....
....|..|C-4 AF.F ....|D#4 UFF7 ....|--- .... ....
....|..|F#2 2F.A ....|--- .... ....|--- .... ....
....|..|--- .... ....|R-- .... ....|--- .... ....
....|..|R-- .... ....|--- .... ....|G#3 2F1A ....
....|..|C-4 AF.F ....|E-4 UFF7 ....|--- .... ....
 C#4|..|C#3 2C.F ....|--- .... ....|--- .... ....
....|..|--- .... ....|--- .... ....|--- .... ....
....|..|R-- .... ....|--- .... ....|--- .... ....
....|..|C-4 AF.F ....|D#4 UFF7 ....|--- .... ....
....|..|C#3 2F.A ....|--- .... ....|--- .... ....
....|..|C-4 LF.7 ....|--- .... ....|--- .... ....
....|..|R-- .... ....|--- .... ....|--- .... ....
....|..|C-4 AF.F ....|C#4 UFF7 ....|--- .... ....
 C#4|..|C#3 2C.F ....|--- .... ....|--- .... ....
....|..|--- .... ....|R-- .... ....|--- .... ....
....|..|R-- .... ....|--- .... ....|G#3 2F17 ....
....|..|C-4 AF.F ....|G#3 UFF7 ....|--- .... ....
....|..|C#3 2F.A ....|--- .... ....|--- .... ....
....|..|--- .... ....|--- .... ....|--- .... ....
....|..|R-- .... ....|--- .... ....|--- .... ....
....|..|C-4 AF.F ....|--- .... ....|--- .... ....
 C#4|..|C#3 2C.F ....|--- .... ....|--- .... ....
....|..|--- .... ....|--- .... ....|--- .... ....
....|..|R-- .... ....|--- .... ....|G#3 2F2F ....

[Pattern16]
....|..|C-4 AF.F ....|--- .... ....|--- .... ....
....|..|C#3 2F.A ....|--- .... ....|--- .... ....
....|..|--- .... ....|R-- .... ....|--- .... ....
....|..|R-- .... ....|--- .... ....|--- .... ....
....|..|C-4 AF.F ....|--- .... ....|--- .... ....
 C#4|..|C#3 2C.F ....|--- .... ....|--- .... ....
....|..|--- .... ....|--- .... ....|--- .... ....
....|..|R-- .... ....|--- .... ....|--- .... ....
....|..|C-4 AF.F ....|G#3 UFFF ....|--- .... ....
....|..|C#3 2F.A ....|--- .... ....|--- .... ....
....|..|--- .... ....|--- .... ....|--- .... ....
....|..|R-- .... ....|R-- .... ....|G#3 2F2A ....
....|..|C-4 AF.F ....|G#3 UFFF ....|--- .... ....
 C#4|..|C#3 2C.F ....|--- .... ....|--- .... ....
....|..|--- .... ....|--- .... ....|--- .... ....
....|..|R-- .... ....|R-- .... ....|--- .... ....
....|..|C-4 AF.F ....|D#4 UFFF ....|--- .... ....
....|..|C#3 2F.A ....|--- .... ....|--- .... ....
....|..|--- .... ....|--- .... ....|--- .... ....
....|..|R-- .... ....|--- .... ....|--- .... ....
....|..|C-4 AF.F ....|E-4 UFFF ....|--- .... ....
 C#4|..|C#3 2C.F ....|--- .... ....|--- .... ....
....|..|--- .... ....|--- .... ....|--- .... ....
....|..|R-- .... ....|R-- .... ....|G#3 2F27 ....
....|..|C-4 AF.F ....|D#4 UFFF ....|--- .... ....
....|..|C#3 2F.A ....|--- .... ....|--- .... ....
....|..|--- .... ....|--- .... ....|--- .... ....
....|..|R-- .... ....|R-- .... ....|--- .... ....
....|..|C-4 AF.F ....|C#4 UFFF ....|--- .... ....
 C#4|..|C#3 2C.F ....|--- .... ....|--- .... ....
....|..|C-4 LF.F ....|--- .... ....|--- .... ....
....|..|R-- .... ....|R-- .... ....|A-3 2F6F ....
....|..|C-4 AF.F ....|A-3 UFFF ....|--- .... ....
....|..|C#3 2F.A ....|--- .... ....|--- .... ....
....|..|--- .... ....|--- .... ....|--- .... ....
....|..|R-- .... ....|R-- .... ....|--- .... ....
....|..|C-4 AF.F ....|G#3 UFF7 ....|--- .... ....
 A-3|..|A-2 2C.F ....|--- .... ....|--- .... ....
....|..|--- .... ....|--- .... ....|--- .... ....
....|..|R-- .... ....|R-- .... ....|--- .... ....
....|..|C-4 AF.F ....|D#4 UFF7 ....|--- .... ....
....|..|C#3 2F.A ....|--- .... ....|--- .... ....
....|..|C-4 LF.A ....|--- .... ....|--- .... ....
....|..|R-- .... ....|R-- .... ....|A-3 2F6A ....
....|..|C-4 AF.F ....|E-4 UFF7 ....|--- .... ....
 A-3|..|A-2 2C.F ....|--- .... ....|--- .... ....
....|..|--- .... ....|--- .... ....|--- .... ....
....|..|R-- .... ....|--- .... ....|--- .... ....
....|..|C-4 AF.F ....|D#4 UFF7 ....|--- .... ....
....|..|A-2 2F.A ....|--- .... ....|--- .... ....
....|..|--- .... ....|--- .... ....|--- .... ....
....|..|R-- .... ....|--- .... ....|--- .... ....
....|..|C-4 AF.F ....|C#4 UFF7 ....|--- .... ....
 A-3|..|A-2 2C.F ....|--- .... ....|--- .... ....
....|..|C-4 LF.7 ....|--- .... ....|--- .... ....
....|..|R-- .... ....|R-- .... ....|A-3 2F67 ....
....|..|C-4 AF.F ....|B-3 UFFF ....|--- .... ....
....|..|A-2 2F.A ....|--- .... ....|--- .... ....
....|..|--- .... ....|--- .... ....|--- .... ....
....|..|R-- .... ....|--- .... ....|--- .... ....
....|..|C-4 AF.F ....|G#3 UFFF ....|--- .... ....
 A-3|..|A-2 2C.F ....|--- .... ....|--- .... ....
....|..|--- .... ....|--- .... ....|--- .... ....
....|..|R-- .... ....|--- .... ....|A-3 2F4F ....

[Pattern17]
....|..|C-4 AF.F ....|R-- .... ....|--- .... ....
....|..|A-2 2F.A ....|--- .... ....|--- .... ....
....|..|--- .... ....|--- .... ....|--- .... ....
....|..|R-- .... ....|R-- .... ....|--- .... ....
....|..|C-4 AF.F ....|B-3 UFFA ....|--- .... ....
 F#4|..|F#2 2A.F ....|--- .... ....|--- .... ....
....|..|--- .... ....|--- .... ....|--- .... ....
....|..|R-- .... ....|--- .... ....|--- .... ....
....|..|C-4 AF.F ....|G#3 UFFF ....|--- .... ....
....|..|A-2 2F.A ....|--- .... ....|--- .... ....
....|..|--- .... ....|--- .... ....|--- .... ....
....|..|R-- .... ....|--- .... ....|A-3 2F4A ....
....|..|C-4 AF.F ....|G#3 UFFF ....|--- .... ....
 F#4|..|F#2 2A.F ....|--- .... ....|--- .... ....
....|..|--- .... ....|--- .... ....|--- .... ....
....|..|R-- .... ....|R-- .... ....|--- .... ....
....|..|C-4 AF.F ....|D#4 UFFF ....|--- .... ....
....|..|F#2 2F.A ....|--- .... ....|--- .... ....
....|..|--- .... ....|--- .... ....|--- .... ....
....|..|R-- .... ....|--- .... ....|--- .... ....
....|..|C-4 AF.F ....|E-4 UFFF ....|--- .... ....
 F#4|..|F#2 2A.F ....|--- .... ....|--- .... ....
....|..|--- .... ....|--- .... ....|--- .... ....
....|..|R-- .... ....|--- .... ....|A-3 2F47 ....
....|..|C-4 AF.F ....|D#4 UFFF ....|--- .... ....
....|..|F#2 2F.A ....|--- .... ....|--- .... ....
....|..|--- .... ....|--- .... ....|--- .... ....
....|..|R-- .... ....|R-- .... ....|--- .... ....
....|..|C-4 AF.F ....|C#4 UFFF ....|--- .... ....
 F#4|..|F#2 2A.F ....|--- .... ....|--- .... ....
....|..|--- .... ....|--- .... ....|--- .... ....
....|..|R-- .... ....|--- .... ....|G#3 2F1F ....
....|..|C-4 AF.F ....|G#3 UFFF ....|--- .... ....
....|..|F#2 2F.A ....|--- .... ....|--- .... ....
....|..|C-5 VF.F ....|--- .... ....|--- .... ....
....|..|R-- .... ....|--- .... ....|--- .... ....
....|..|C-4 AF.F ....|G#3 UFF7 ....|--- .... ....
 C#4|..|C#3 2C.F ....|--- .... ....|--- .... ....
....|..|C-5 VF.F ....|--- .... ....|--- .... ....
....|..|R-- .... ....|R-- .... ....|--- .... ....
....|..|C-4 AF.F ....|D#4 UFF7 ....|--- .... ....
....|..|F#2 2F.A ....|--- .... ....|--- .... ....
....|..|C-5 VF.F ....|--- .... ....|--- .... ....
....|..|R-- .... ....|R-- .... ....|G#3 2F1A ....
....|..|C-4 AF.F ....|E-4 UFF7 ....|--- .... ....
 C#4|..|C#3 2C.F ....|--- .... ....|--- .... ....
....|..|C-5 VF.F ....|--- .... ....|--- .... ....
....|..|R-- .... ....|--- .... ....|--- .... ....
....|..|C-4 AF.F ....|D#4 UFF7 ....|--- .... ....
....|..|C#3 2F.A ....|--- .... ....|--- .... ....
....|..|C-5 VF.F ....|--- .... ....|--- .... ....
....|..|R-- .... ....|--- .... ....|--- .... ....
....|..|C-4 AF.F ....|C#4 UFF7 ....|--- .... ....
 C#4|..|C#3 2C.F ....|--- .... ....|--- .... ....
....|..|C-5 VF.F ....|--- .... ....|--- .... ....
....|..|R-- .... ....|R-- .... ....|G#3 2F17 ....
....|..|C-4 AF.F ....|G#3 UFF7 ....|--- .... ....
....|..|C#3 2F.A ....|--- .... ....|--- .... ....
....|..|C-5 VF.F ....|--- .... ....|--- .... ....
....|..|R-- .... ....|--- .... ....|--- .... ....
....|..|C-4 AF.F ....|--- .... ....|--- .... ....
 C#4|..|C#3 2C.F ....|--- .... ....|--- .... ....
....|..|C-5 VF.F ....|--- .... ....|--- .... ....
....|..|R-- .... ....|--- .... ....|G#3 2F2F ....

[Pattern18]
....|..|C-4 AF.F ....|--- .... ....|--- .... ....
....|..|C#3 2F.A ....|--- .... ....|--- .... ....
....|..|C-5 VF.F ....|--- .... ....|--- .... ....
....|..|R-- .... ....|R-- .... ....|--- .... ....
....|..|C-4 AF.F ....|--- .... ....|--- .... ....
 C#4|..|C#3 2C.F ....|--- .... ....|--- .... ....
....|..|C-5 VF.F ....|--- .... ....|--- .... ....
....|..|R-- .... ....|--- .... ....|--- .... ....
....|..|C-4 AF.F ....|--- .... ....|--- .... ....
....|..|C#3 2F.A ....|--- .... ....|--- .... ....
....|..|C-5 VF.F ....|--- .... ....|--- .... ....
....|..|R-- .... ....|--- .... ....|G#3 2F2A ....
....|..|C-4 AF.F ....|G#3 UFFF ....|--- .... ....
 C#4|..|C#3 2C.F ....|--- .... ....|--- .... ....
....|..|C-5 VF.F ....|--- .... ....|--- .... ....
....|..|R-- .... ....|R-- .... ....|--- .... ....
....|..|C-4 AF.F ....|D#4 UFFF ....|--- .... ....
....|..|C#3 2F.A ....|--- .... ....|--- .... ....
....|..|C-5 VF.F ....|--- .... ....|--- .... ....
....|..|R-- .... ....|--- .... ....|--- .... ....
....|..|C-4 AF.F ....|E-4 UFFF ....|--- .... ....
 C#4|..|C#3 2C.F ....|--- .... ....|--- .... ....
....|..|C-5 VF.F ....|--- .... ....|--- .... ....
....|..|R-- .... ....|--- .... ....|G#3 2F27 ....
....|..|C-4 AF.F ....|D#4 UFFF ....|--- .... ....
....|..|C#3 2F.A ....|--- .... ....|--- .... ....
....|..|C-5 VF.F ....|--- .... ....|--- .... ....
....|..|R-- .... ....|R-- .... ....|--- .... ....
....|..|C-4 AF.F ....|C#4 UFFF ....|--- .... ....
 C#4|..|C#3 2C.F ....|--- .... ....|--- .... ....
....|..|C-5 VF.F ....|--- .... ....|--- .... ....
....|..|R-- .... ....|--- .... ....|E-3 2F2F ....
....|..|C-4 AF.F ....|E-4 UFFF ....|--- .... ....
....|..|C#3 2F.A ....|--- .... ....|--- .... ....
....|..|C-5 VF.F ....|--- .... ....|--- .... ....
....|..|R-- .... ....|--- .... ....|--- .... ....
....|..|C-4 AF.F ....|G#3 UFF7 ....|--- .... ....
 A-3|..|A-2 2C.F ....|--- .... ....|--- .... ....
....|..|C-5 VF.F ....|--- .... ....|--- .... ....
....|..|R-- .... ....|R-- .... ....|--- .... ....
....|..|C-4 AF.F ....|D#4 UFF7 ....|--- .... ....
....|..|C#3 2F.A ....|--- .... ....|--- .... ....
....|..|C-5 VF.F ....|--- .... ....|--- .... ....
....|..|R-- .... ....|--- .... ....|E-3 2F2A ....
....|..|C-4 AF.F ....|E-4 UFF7 ....|--- .... ....
 A-3|..|A-2 2C.F ....|--- .... ....|--- .... ....
....|..|C-5 VF.F ....|--- .... ....|--- .... ....
....|..|R-- .... ....|--- .... ....|--- .... ....
....|..|C-4 AF.F ....|D#4 UFF7 ....|--- .... ....
....|..|A-2 2F.A ....|--- .... ....|--- .... ....
....|..|C-5 VF.F ....|--- .... ....|--- .... ....
....|..|R-- .... ....|--- .... ....|--- .... ....
....|..|C-4 AF.F ....|C#4 UFF7 ....|--- .... ....
 A-3|..|A-2 2C.F ....|--- .... ....|--- .... ....
....|..|C-5 VF.F ....|--- .... ....|--- .... ....
....|..|R-- .... ....|--- .... ....|E-3 2F27 ....
....|..|C-4 AF.F ....|E-4 UFF7 ....|--- .... ....
....|..|A-2 2F.A ....|--- .... ....|--- .... ....
....|..|C-5 VF.F ....|--- .... ....|--- .... ....
....|..|R-- .... ....|--- .... ....|--- .... ....
....|..|C-4 AF.F ....|D#4 UFFF ....|--- .... ....
 A-3|..|A-2 2C.F ....|--- .... ....|--- .... ....
....|..|C-5 VF.F ....|--- .... ....|--- .... ....
....|..|R-- .... ....|--- .... ....|F#3 2F5F ....

[Pattern19]
....|..|C-4 AF.F ....|--- .... ....|--- .... ....
....|..|A-2 2F.A ....|--- .... ....|--- .... ....
....|..|C-5 VF.F ....|--- .... ....|--- .... ....
....|..|R-- .... ....|--- .... ....|--- .... ....
....|..|C-4 AF.F ....|--- .... ....|--- .... ....
 F#4|..|F#2 2A.F ....|--- .... ....|--- .... ....
....|..|C-5 VF.F ....|--- .... ....|--- .... ....
....|..|R-- .... ....|--- .... ....|--- .... ....
....|..|C-4 AF.F ....|D#4 UFFA ....|--- .... ....
....|..|A-2 2F.A ....|R-- .... ....|--- .... ....
....|..|C-5 VF.F ....|--- .... ....|--- .... ....
....|..|R-- .... ....|--- .... ....|F#3 2F5A ....
....|..|C-4 AF.F ....|--- .... ....|--- .... ....
 F#4|..|F#2 2A.F ....|--- .... ....|--- .... ....
....|..|C-5 VF.F ....|--- .... ....|--- .... ....
....|..|R-- .... ....|--- .... ....|--- .... ....
....|..|C-4 AF.F ....|--- .... ....|--- .... ....
....|..|F#2 2F.A ....|--- .... ....|--- .... ....
....|..|C-5 VF.F ....|--- .... ....|--- .... ....
....|..|R-- .... ....|--- .... ....|--- .... ....
....|..|C-4 AF.F ....|D#4 UFF7 ....|--- .... ....
 F#4|..|F#2 2A.F ....|R-- .... ....|--- .... ....
....|..|C-5 VF.F ....|--- .... ....|--- .... ....
....|..|R-- .... ....|--- .... ....|F#3 2F57 ....
....|..|C-4 AF.F ....|--- .... ....|--- .... ....
....|..|F#2 2F.A ....|--- .... ....|--- .... ....
....|..|C-5 VF.F ....|--- .... ....|--- .... ....
....|..|R-- .... ....|--- .... ....|--- .... ....
....|..|C-4 AF.F ....|--- .... ....|--- .... ....
 F#4|..|F#2 2A.F ....|--- .... ....|--- .... ....
....|..|C-5 VF.F ....|--- .... ....|--- .... ....
....|..|R-- .... ....|--- .... ....|R-- .... ....
....|..|C-5 VF.F ....|--- .... ....|--- .... ....
....|..|F#2 2F.A ....|R-- .... ....|--- .... ....
....|..|C-5 VF.F ....|--- .... ....|--- .... ....
....|..|R-- .... ....|--- .... ....|--- .... ....
....|..|C-5 VF.F ....|--- .... ....|--- .... ....
....|..|F#2 2F.7 ....|--- .... ....|--- .... ....
....|..|C-5 VF.F ....|--- .... ....|--- .... ....
....|..|R-- .... ....|--- .... ....|--- .... ....
....|..|C-5 VF.F ....|--- .... ....|--- .... ....
....|..|F#2 2F.A ....|--- .... ....|--- .... ....
....|..|C-5 VF.F ....|--- .... ....|--- .... ....
....|..|R-- .... ....|--- .... ....|R-- .... ....
....|..|C-5 VF.F ....|--- .... ....|--- .... ....
....|..|F#2 2F.7 ....|--- .... ....|--- .... ....
....|..|C-5 VF.F ....|--- .... ....|--- .... ....
....|..|R-- .... ....|--- .... ....|--- .... ....
....|..|C-5 VF.F ....|--- .... ....|--- .... ....
....|..|--- .... ....|--- .... ....|--- .... ....
....|..|C-5 VF.F ....|--- .... ....|--- .... ....
....|..|--- .... ....|--- .... ....|--- .... ....
....|..|C-5 VF.F ....|--- .... ....|--- .... ....
....|..|F#2 2F.7 ....|--- .... ....|--- .... ....
....|..|C-5 VF.F ....|--- .... ....|--- .... ....
....|..|R-- .... ....|--- .... ....|R-- .... ....
....|..|C-5 VF.F ....|--- .... ....|D#5 2F.F ....
....|..|--- .... ....|--- .... ....|--- .... ....
....|..|C-5 VF.F ....|--- .... ....|E-5 2F.F ....
....|..|--- .... ....|--- .... ....|--- .... ....
....|..|C-4 AF.F ....|--- .... ....|F#5 2F.F ....
....|..|C-5 VF.F ....|--- .... ....|--- .... ....
....|..|C-5 VF.F ....|--- .... ....|G#5 2F.F ....
....|..|C-5 VF.F ....|--- .... ....|G#3 2F1F ....

[Pattern20]
....|..|C-4 AF.F ....|--- .... ....|E-5 2F.F ....
....|..|--- .... ....|--- .... ....|--- .... ....
....|..|C-5 VF.7 ....|--- .... ....|E-5 2F.F ....
....|..|--- .... ....|--- .... ....|--- .... ....
....|..|C-3 RF.F ....|--- .... ....|F#5 2F.F ....
 C#4|..|C#3 2C.F ....|--- .... ....|--- .... ....
....|..|C-5 VF.7 ....|--- .... ....|G#5 2F.F ....
....|..|R-- .... ....|--- .... ....|--- .... ....
....|..|C-4 AF.F ....|--- .... ....|E-5 2F.F ....
....|..|C-5 VF.A ....|--- .... ....|--- .... ....
....|..|C-5 VF.7 ....|--- .... ....|E-5 2F.F ....
....|..|C-5 VF.A ....|--- .... ....|G#3 2F1A ....
....|..|C-3 RF.F ....|--- .... ....|F#5 2F.F ....
 C#4|..|C#3 2C.F ....|--- .... ....|--- .... ....
....|..|C-5 VF.7 ....|--- .... ....|G#5 2F.F ....
....|..|R-- .... ....|--- .... ....|--- .... ....
....|..|C-4 AF.F ....|--- .... ....|E-5 2F.F ....
....|..|C#3 2F.A ....|--- .... ....|--- .... ....
....|..|C-5 VF.7 ....|--- .... ....|E-5 2F.F ....
....|..|R-- .... ....|--- .... ....|--- .... ....
....|..|C-3 RF.F ....|--- .... ....|F#5 2F.F ....
 C#4|..|C#3 2C.F ....|--- .... ....|--- .... ....
....|..|C-5 VF.7 ....|--- .... ....|G#5 2F.F ....
....|..|C-5 VF.7 ....|--- .... ....|G#3 2F17 ....
....|..|C-4 AF.F ....|--- .... ....|E-5 2F.F ....
....|..|C#3 2F.A ....|--- .... ....|--- .... ....
....|..|--- .... ....|--- .... ....|E-5 2F.F ....
....|..|R-- .... ....|--- .... ....|--- .... ....
....|..|C-3 RF.F ....|--- .... ....|F#5 2F.F ....
 C#4|..|C#3 2C.F ....|--- .... ....|--- .... ....
....|..|--- .... ....|--- .... ....|G#5 2F.F ....
....|..|R-- .... ....|--- .... ....|G#3 2F2F ....
....|..|C-4 AF.F ....|--- .... ....|E-5 2F.F ....
....|..|C#3 2F.A ....|--- .... ....|--- .... ....
....|..|--- .... ....|--- .... ....|E-5 2F.F ....
....|..|R-- .... ....|--- .... ....|--- .... ....
....|..|C-3 RF.F ....|--- .... ....|F#5 2F.F ....
 C#4|..|C#3 2C.F ....|--- .... ....|--- .... ....
....|..|--- .... ....|--- .... ....|G#5 2F.F ....
....|..|R-- .... ....|--- .... ....|--- .... ....
....|..|C-4 AF.F ....|--- .... ....|D#5 2F.F ....
....|..|C#3 2F.A ....|--- .... ....|--- .... ....
....|..|--- .... ....|--- .... ....|E-5 2F.F ....
....|..|R-- .... ....|--- .... ....|G#3 2F2A ....
....|..|C-3 RF.F ....|--- .... ....|G#4 2F.F ....
 C#4|..|C#3 2C.F ....|--- .... ....|F#5 2F.F ....
....|..|--- .... ....|--- .... ....|G#5 2F.F ....
....|..|R-- .... ....|--- .... ....|--- .... ....
....|..|C-4 AF.F ....|--- .... ....|E-5 2F.F ....
....|..|C#3 2F.A ....|--- .... ....|--- .... ....
....|..|--- .... ....|--- .... ....|E-5 2F.7 ....
....|..|R-- .... ....|--- .... ....|--- .... ....
....|..|C-3 RF.F ....|--- .... ....|G#4 2F.F ....
 C#4|..|C#3 2C.F ....|--- .... ....|--- .... ....
....|..|--- .... ....|--- .... ....|G#5 2F.7 ....
....|..|R-- .... ....|--- .... ....|G#3 2F27 ....
....|..|C-4 AF.F ....|--- .... ....|D#5 2F.F ....
....|..|C#3 2F.A ....|--- .... ....|F#5 2F.A ....
....|..|--- .... ....|--- .... ....|E-5 2F.F ....
....|..|R-- .... ....|--- .... ....|--- .... ....
....|..|C-3 RF.F ....|--- .... ....|F#5 2F.F ....
 C#4|..|C#3 2C.F ....|--- .... ....|--- .... ....
....|..|C-4 LF.F ....|--- .... ....|G#5 2F.F ....
....|..|R-- .... ....|--- .... ....|G#5 2F.F ....

[Pattern21]
....|..|C-4 AF.F ....|--- .... ....|D#5 2F.F ....
....|..|C#3 2F.A ....|--- .... ....|--- .... ....
....|..|--- .... ....|--- .... ....|E-5 2F.F ....
....|..|R-- .... ....|--- .... ....|--- .... ....
....|..|C-3 RF.F ....|--- .... ....|F#5 2F.F ....
 A-3|..|A-2 2C.F ....|--- .... ....|F#5 2F.7 ....
....|..|--- .... ....|--- .... ....|G#5 2F.F ....
....|..|R-- .... ....|--- .... ....|G#5 2F.F ....
....|..|C-4 AF.F ....|--- .... ....|D#5 2F.F ....
....|..|C#3 2F.A ....|--- .... ....|--- .... ....
....|..|C-4 LF.A ....|--- .... ....|E-5 2F.F ....
....|..|R-- .... ....|--- .... ....|G#5 2F.A ....
....|..|C-3 RF.F ....|--- .... ....|F#5 2F.F ....
 A-3|..|A-2 2C.F ....|--- .... ....|F#5 2F.F ....
....|..|--- .... ....|--- .... ....|G#5 2F.F ....
....|..|R-- .... ....|--- .... ....|G#5 2F.F ....
....|..|C-4 AF.F ....|--- .... ....|D#5 2F.F ....
....|..|A-2 2F.A ....|--- .... ....|--- .... ....
....|..|--- .... ....|--- .... ....|E-5 2F.F ....
....|..|R-- .... ....|--- .... ....|G#5 2F.A ....
....|..|C-3 RF.F ....|--- .... ....|F#5 2F.F ....
 A-3|..|A-2 2C.F ....|--- .... ....|--- .... ....
....|..|C-4 LF.7 ....|--- .... ....|G#5 2F.F ....
....|..|R-- .... ....|--- .... ....|G#5 2F.7 ....
....|..|C-4 AF.F ....|--- .... ....|D#5 2F.F ....
....|..|A-2 2F.A ....|--- .... ....|F#5 2F.A ....
....|..|--- .... ....|--- .... ....|E-5 2F.F ....
....|..|R-- .... ....|--- .... ....|G#5 2F.A ....
....|..|C-3 RF.F ....|--- .... ....|F#5 2F.F ....
 A-3|..|A-2 2C.F ....|--- .... ....|--- .... ....
....|..|--- .... ....|--- .... ....|G#5 2F.F ....
....|..|R-- .... ....|--- .... ....|A-3 2F4F ....
....|..|C-4 AF.F ....|F#4 UFFF ....|D#5 2F.F ....
....|..|A-2 2F.A ....|--- .... ....|--- .... ....
....|..|--- .... ....|--- .... ....|E-5 2F.F ....
....|..|R-- .... ....|--- .... ....|--- .... ....
....|..|C-3 RF.F ....|F#4 UFFF ....|F#5 2F.F ....
 F#4|..|F#2 2A.F ....|--- .... ....|F#5 2F.7 ....
....|..|--- .... ....|--- .... ....|G#5 2F.F ....
....|..|R-- .... ....|--- .... ....|G#5 2F.7 ....
....|..|C-4 AF.F ....|--- .... ....|D#5 2F.F ....
....|..|A-2 2F.A ....|R-- .... ....|--- .... ....
....|..|--- .... ....|--- .... ....|E-5 2F.F ....
....|..|R-- .... ....|--- .... ....|A-3 2F4A ....
....|..|C-3 RF.F ....|F#4 UFFF ....|F#5 2F.F ....
 F#4|..|F#2 2A.F ....|--- .... ....|--- .... ....
....|..|--- .... ....|--- .... ....|G#5 2F.F ....
....|..|R-- .... ....|--- .... ....|--- .... ....
....|..|C-4 AF.F ....|F#4 UFFA ....|C#5 2F.F ....
....|..|F#2 2F.A ....|--- .... ....|--- .... ....
....|..|--- .... ....|--- .... ....|E-5 2F.7 ....
....|..|R-- .... ....|--- .... ....|--- .... ....
....|..|C-3 RF.F ....|C#4 UFFF ....|F#5 2F.7 ....
 F#4|..|F#2 2A.F ....|R-- .... ....|--- .... ....
....|..|--- .... ....|--- .... ....|G#5 2F.7 ....
....|..|R-- .... ....|--- .... ....|A-3 2F47 ....
....|..|C-4 AF.F ....|F#4 UFF7 ....|D#5 2F.F ....
....|..|F#2 2F.A ....|--- .... ....|--- .... ....
....|..|--- .... ....|--- .... ....|E-5 2F.F ....
....|..|R-- .... ....|--- .... ....|--- .... ....
....|..|C-3 RF.F ....|C#4 UFFF ....|F#5 2F.F ....
 F#4|..|F#2 2A.F ....|--- .... ....|--- .... ....
....|..|--- .... ....|--- .... ....|G#5 2F.F ....
....|..|R-- .... ....|--- .... ....|G#3 2F1F ....

[Pattern22]
....|..|C-4 AF.F ....|C#4 UFFA ....|E-5 2F.F ....
....|..|F#2 2F.A ....|R-- .... ....|--- .... ....
....|..|--- .... ....|--- .... ....|E-5 2F.F ....
....|..|R-- .... ....|--- .... ....|--- .... ....
....|..|C-3 RF.F ....|F#4 UFF7 ....|F#5 2F.F ....
 C#4|..|C#3 2C.F ....|--- .... ....|--- .... ....
....|..|--- .... ....|--- .... ....|G#5 2F.F ....
....|..|R-- .... ....|--- .... ....|--- .... ....
....|..|C-4 AF.F ....|C#4 UFFA ....|E-5 2F.F ....
....|..|F#2 2F.A ....|--- .... ....|--- .... ....
....|..|--- .... ....|--- .... ....|E-5 2F.F ....
....|..|R-- .... ....|R-- .... ....|G#3 2F1A ....
....|..|C-3 RF.F ....|C#4 UFF7 ....|F#5 2F.F ....
 C#4|..|C#3 2C.F ....|--- .... ....|--- .... ....
....|..|--- .... ....|--- .... ....|G#5 2F.F ....
....|..|R-- .... ....|--- .... ....|--- .... ....
....|..|C-4 AF.F ....|--- .... ....|E-5 2F.F ....
....|..|C#3 2F.A ....|--- .... ....|--- .... ....
....|..|--- .... ....|--- .... ....|E-5 2F.F ....
....|..|R-- .... ....|--- .... ....|--- .... ....
....|..|C-3 RF.F ....|C#4 UFF7 ....|F#5 2F.F ....
 C#4|..|C#3 2C.F ....|--- .... ....|--- .... ....
....|..|--- .... ....|--- .... ....|G#5 2F.F ....
....|..|R-- .... ....|R-- .... ....|G#3 2F17 ....
....|..|C-4 AF.F ....|--- .... ....|E-5 2F.F ....
....|..|C#3 2F.A ....|--- .... ....|--- .... ....
....|..|--- .... ....|--- .... ....|E-5 2F.F ....
....|..|R-- .... ....|--- .... ....|--- .... ....
....|..|C-3 RF.F ....|--- .... ....|F#5 2F.F ....
 C#4|..|C#3 2C.F ....|--- .... ....|--- .... ....
....|..|--- .... ....|--- .... ....|G#5 2F.F ....
....|..|R-- .... ....|--- .... ....|G#3 2F2F ....
....|..|C-4 AF.F ....|--- .... ....|E-5 2F.F ....
....|..|C#3 2F.A ....|--- .... ....|--- .... ....
....|..|--- .... ....|--- .... ....|E-5 2F.F ....
....|..|R-- .... ....|R-- .... ....|--- .... ....
....|..|C-3 RF.F ....|--- .... ....|F#5 2F.F ....
 C#4|..|C#3 2C.F ....|--- .... ....|--- .... ....
....|..|--- .... ....|--- .... ....|G#5 2F.F ....
....|..|R-- .... ....|--- .... ....|--- .... ....
....|..|C-4 AF.F ....|--- .... ....|D#5 2F.F ....
....|..|C#3 2F.A ....|--- .... ....|--- .... ....
....|..|--- .... ....|--- .... ....|E-5 2F.F ....
....|..|R-- .... ....|--- .... ....|G#3 2F2A ....
....|..|C-3 RF.F ....|--- .... ....|G#4 2F.F ....
 C#4|..|C#3 2C.F ....|--- .... ....|F#5 2F.F ....
....|..|--- .... ....|--- .... ....|G#5 2F.F ....
....|..|R-- .... ....|--- .... ....|--- .... ....
....|..|C-4 AF.F ....|--- .... ....|E-5 2F.F ....
....|..|C#3 2F.A ....|--- .... ....|--- .... ....
....|..|--- .... ....|--- .... ....|E-5 2F.7 ....
....|..|R-- .... ....|--- .... ....|--- .... ....
....|..|C-3 RF.F ....|--- .... ....|G#4 2F.F ....
 C#4|..|C#3 2C.F ....|--- .... ....|--- .... ....
....|..|--- .... ....|--- .... ....|G#5 2F.7 ....
....|..|R-- .... ....|--- .... ....|G#3 2F27 ....
....|..|C-4 AF.F ....|--- .... ....|D#5 2F.F ....
....|..|C#3 2F.A ....|--- .... ....|F#5 2F.A ....
....|..|--- .... ....|--- .... ....|E-5 2F.F ....
....|..|R-- .... ....|--- .... ....|--- .... ....
....|..|C-3 RF.F ....|--- .... ....|F#5 2F.F ....
 C#4|..|C#3 2C.F ....|--- .... ....|--- .... ....
....|..|C-4 LF.F ....|--- .... ....|G#5 2F.F ....
....|..|R-- .... ....|--- .... ....|G#5 2F.F ....

[Pattern23]
....|..|C-4 AF.F ....|--- .... ....|D#5 2F.F ....
....|..|C#3 2F.A ....|--- .... ....|--- .... ....
....|..|--- .... ....|--- .... ....|E-5 2F.F ....
....|..|R-- .... ....|--- .... ....|--- .... ....
....|..|C-3 RF.F ....|--- .... ....|F#5 2F.F ....
 A-3|..|A-2 2C.F ....|--- .... ....|F#5 2F.7 ....
....|..|--- .... ....|--- .... ....|G#5 2F.F ....
....|..|R-- .... ....|--- .... ....|G#5 2F.F ....
....|..|C-4 AF.F ....|--- .... ....|D#5 2F.F ....
....|..|C#3 2F.A ....|--- .... ....|--- .... ....
....|..|C-4 LF.A ....|--- .... ....|E-5 2F.F ....
....|..|R-- .... ....|--- .... ....|G#5 2F.A ....
....|..|C-3 RF.F ....|--- .... ....|F#5 2F.F ....
 A-3|..|A-2 2C.F ....|--- .... ....|F#5 2F.F ....
....|..|--- .... ....|--- .... ....|G#5 2F.F ....
....|..|R-- .... ....|--- .... ....|G#5 2F.F ....
....|..|C-4 AF.F ....|--- .... ....|D#5 2F.F ....
....|..|A-2 2F.A ....|--- .... ....|--- .... ....
....|..|--- .... ....|--- .... ....|E-5 2F.F ....
....|..|R-- .... ....|--- .... ....|G#5 2F.A ....
....|..|C-3 RF.F ....|--- .... ....|F#5 2F.F ....
 A-3|..|A-2 2C.F ....|--- .... ....|--- .... ....
....|..|C-4 LF.7 ....|--- .... ....|G#5 2F.F ....
....|..|R-- .... ....|--- .... ....|G#5 2F.7 ....
....|..|C-4 AF.F ....|--- .... ....|D#5 2F.F ....
....|..|A-2 2F.A ....|--- .... ....|F#5 2F.A ....
....|..|--- .... ....|--- .... ....|E-5 2F.F ....
....|..|R-- .... ....|--- .... ....|G#5 2F.A ....
....|..|C-3 RF.F ....|--- .... ....|F#5 2F.F ....
 A-3|..|A-2 2C.F ....|--- .... ....|--- .... ....
....|..|--- .... ....|--- .... ....|G#5 2F.F ....
....|..|R-- .... ....|--- .... ....|F#3 2F5F ....
....|..|C-4 AF.F ....|F#4 UFFF ....|D#5 2F.F ....
....|..|A-2 2F.A ....|--- .... ....|--- .... ....
....|..|--- .... ....|--- .... ....|E-5 2F.F ....
....|..|R-- .... ....|--- .... ....|--- .... ....
....|..|C-3 RF.F ....|F#4 UFFF ....|F#5 2F.F ....
 F#4|..|F#2 2A.F ....|--- .... ....|F#5 2F.7 ....
....|..|--- .... ....|--- .... ....|G#5 2F.F ....
....|..|R-- .... ....|--- .... ....|G#5 2F.7 ....
....|..|C-4 AF.F ....|--- .... ....|D#5 2F.F ....
....|..|A-2 2F.A ....|R-- .... ....|--- .... ....
....|..|--- .... ....|--- .... ....|E-5 2F.F ....
....|..|R-- .... ....|--- .... ....|F#3 2F5A ....
....|..|C-3 RF.F ....|F#4 UFFF ....|F#5 2F.F ....
 F#4|..|F#2 2A.F ....|--- .... ....|--- .... ....
....|..|--- .... ....|--- .... ....|G#5 2F.F ....
....|..|R-- .... ....|--- .... ....|--- .... ....
....|..|C-4 AF.F ....|F#4 UFFA ....|C#5 2F.F ....
....|..|F#2 2F.A ....|--- .... ....|--- .... ....
....|..|--- .... ....|--- .... ....|E-5 2F.7 ....
....|..|R-- .... ....|--- .... ....|--- .... ....
....|..|C-3 RF.F ....|C#4 UFFF ....|F#5 2F.7 ....
 F#4|..|F#2 2A.F ....|R-- .... ....|--- .... ....
....|..|--- .... ....|--- .... ....|G#5 2F.7 ....
....|..|R-- .... ....|--- .... ....|F#3 2F57 ....
....|..|C-4 AF.F ....|F#4 UFF7 ....|D#5 2F.F ....
....|..|F#2 2F.A ....|--- .... ....|--- .... ....
....|..|C-4 LF.F ....|--- .... ....|E-5 2F.F ....
....|..|R-- .... ....|--- .... ....|--- .... ....
....|..|C-3 RF.F ....|C#4 UFFF ....|F#5 2F.F ....
 F#4|..|F#2 2A.F ....|--- .... ....|--- .... ....
....|..|--- .... ....|--- .... ....|G#5 2F.F ....
....|..|R-- .... ....|--- .... ....|G#3 2F1F ....

[Pattern24]
....|..|C-4 AF.F ....|C#4 UFFA ....|E-5 2F.F ....
....|..|F#2 2F.A ....|R-- .... ....|--- .... ....
....|..|--- .... ....|--- .... ....|E-5 2F.F ....
....|..|R-- .... ....|--- .... ....|--- .... ....
....|..|C-3 RF.F ....|F#4 UFF7 ....|F#5 2F.F ....
 C#4|..|C#3 2C.F ....|--- .... ....|--- .... ....
....|..|C-4 LF.A ....|--- .... ....|G#5 2F.F ....
....|..|R-- .... ....|--- .... ....|R-- .... ....
....|..|C-4 AF.F ....|C#4 UFFA ....|E-5 2F.F ....
....|..|F#2 2F.A ....|--- .... ....|--- .... ....
....|..|--- .... ....|--- .... ....|E-5 2F.F ....
....|..|R-- .... ....|R-- .... ....|G#3 2F1A ....
....|..|C-3 RF.F ....|C#4 UFF7 ....|F#5 2F.F ....
 C#4|..|C#3 2C.F ....|--- .... ....|--- .... ....
....|..|--- .... ....|--- .... ....|G#5 2F.F ....
....|..|R-- .... ....|--- .... ....|R-- .... ....
....|..|C-4 AF.F ....|--- .... ....|E-5 2F.F ....
....|..|C#3 2F.A ....|--- .... ....|--- .... ....
....|..|C-4 LF.7 ....|--- .... ....|E-5 2F.F ....
....|..|R-- .... ....|--- .... ....|R-- .... ....
....|..|C-3 RF.F ....|C#4 UFF7 ....|F#5 2F.F ....
 C#4|..|C#3 2C.F ....|--- .... ....|--- .... ....
....|..|C-5 VF.F ....|--- .... ....|G#5 2F.F ....
....|..|R-- .... ....|R-- .... ....|G#3 2F17 ....
....|..|C-4 AF.F ....|--- .... ....|E-5 2F.F ....
....|..|C#3 2F.A ....|--- .... ....|--- .... ....
....|..|--- .... ....|--- .... ....|E-5 2F.F ....
....|..|R-- .... ....|--- .... ....|R-- .... ....
....|..|C-3 RF.F ....|--- .... ....|F#5 2F.F ....
 C#4|..|C#3 2C.F ....|--- .... ....|--- .... ....
....|..|--- .... ....|--- .... ....|G#5 2F.F ....
....|..|R-- .... ....|--- .... ....|G#3 2F2F ....
....|..|C-4 AF.F ....|--- .... ....|E-5 2F.F ....
....|..|C#3 2F.A ....|--- .... ....|--- .... ....
....|..|C-5 VF.A ....|--- .... ....|E-5 2F.F ....
....|..|R-- .... ....|R-- .... ....|R-- .... ....
....|..|C-3 RF.F ....|--- .... ....|F#5 2F.F ....
 C#4|..|C#3 2C.F ....|--- .... ....|--- .... ....
....|..|--- .... ....|--- .... ....|G#5 2F.F ....
....|..|R-- .... ....|--- .... ....|R-- .... ....
....|..|C-4 AF.F ....|--- .... ....|D#5 2F.F ....
....|..|C#3 2F.A ....|--- .... ....|--- .... ....
....|..|--- .... ....|--- .... ....|E-5 2F.F ....
....|..|R-- .... ....|--- .... ....|G#3 2F2A ....
....|..|C-3 RF.F ....|--- .... ....|G#4 2F.F ....
 C#4|..|C#3 2C.F ....|--- .... ....|F#5 2F.F ....
....|..|C-5 VF.7 ....|--- .... ....|G#5 2F.F ....
....|..|R-- .... ....|--- .... ....|R-- .... ....
....|..|C-4 AF.F ....|--- .... ....|E-5 2F.F ....
....|..|C#3 2F.A ....|--- .... ....|--- .... ....
....|..|--- .... ....|--- .... ....|E-5 2F.7 ....
....|..|R-- .... ....|--- .... ....|R-- .... ....
....|..|C-3 RF.F ....|--- .... ....|G#4 2F.F ....
 C#4|..|C#3 2C.F ....|--- .... ....|--- .... ....
....|..|C-5 VF.F ....|--- .... ....|G#5 2F.7 ....
....|..|R-- .... ....|--- .... ....|G#3 2F27 ....
....|..|C-4 AF.F ....|--- .... ....|D#5 2F.F ....
....|..|C#3 2F.A ....|--- .... ....|F#5 2F.A ....
....|..|--- .... ....|--- .... ....|E-5 2F.F ....
....|..|R-- .... ....|--- .... ....|R-- .... ....
....|..|C-4 AF.F ....|--- .... ....|F#5 2F.F ....
 C#4|..|C#3 2C.F ....|--- .... ....|--- .... ....
....|..|C-4 LF.F ....|--- .... ....|G#5 2F.F ....
....|..|R-- .... ....|--- .... ....|G#5 2F.F ....

[Pattern25]
....|..|C-4 AF.F ....|--- .... ....|D#5 2F.F ....
....|..|C#3 2F.A ....|--- .... ....|--- .... ....
....|..|C-5 VF.A ....|--- .... ....|E-5 2F.F ....
....|..|R-- .... ....|--- .... ....|R-- .... ....
....|..|C-3 RF.F ....|--- .... ....|F#5 2F.F ....
 A-3|..|A-2 2C.F ....|--- .... ....|F#5 2F.7 ....
....|..|--- .... ....|--- .... ....|G#5 2F.F ....
....|..|R-- .... ....|--- .... ....|G#5 2F.F ....
....|..|C-4 AF.F ....|--- .... ....|D#5 2F.F ....
....|..|C#3 2F.A ....|--- .... ....|--- .... ....
....|..|C-4 LF.A ....|--- .... ....|E-5 2F.F ....
....|..|R-- .... ....|--- .... ....|G#5 2F.A ....
....|..|C-3 RF.F ....|--- .... ....|F#5 2F.F ....
 A-3|..|A-2 2C.F ....|--- .... ....|F#5 2F.F ....
....|..|C-5 VF.7 ....|--- .... ....|G#5 2F.F ....
....|..|R-- .... ....|--- .... ....|G#5 2F.F ....
....|..|C-4 AF.F ....|--- .... ....|D#5 2F.F ....
....|..|A-2 2F.A ....|--- .... ....|--- .... ....
....|..|--- .... ....|--- .... ....|E-5 2F.F ....
....|..|R-- .... ....|--- .... ....|G#5 2F.A ....
....|..|C-3 RF.F ....|--- .... ....|F#5 2F.F ....
 A-3|..|A-2 2C.F ....|--- .... ....|--- .... ....
....|..|C-5 VF.F ....|--- .... ....|G#5 2F.F ....
....|..|R-- .... ....|--- .... ....|G#5 2F.7 ....
....|..|C-4 AF.F ....|--- .... ....|D#5 2F.F ....
....|..|A-2 2F.A ....|--- .... ....|F#5 2F.A ....
....|..|--- .... ....|--- .... ....|E-5 2F.F ....
....|..|R-- .... ....|--- .... ....|G#5 2F.A ....
....|..|C-3 RF.F ....|--- .... ....|F#5 2F.F ....
 A-3|..|A-2 2C.F ....|--- .... ....|--- .... ....
....|..|--- .... ....|--- .... ....|G#5 2F.F ....
....|..|R-- .... ....|--- .... ....|A-3 2F4F ....
....|..|C-4 AF.F ....|F#4 UFFF ....|D#5 2F.F ....
....|..|A-2 2F.A ....|--- .... ....|--- .... ....
....|..|C-5 VF.A ....|--- .... ....|E-5 2F.F ....
....|..|R-- .... ....|--- .... ....|R-- .... ....
....|..|C-3 RF.F ....|F#4 UFFF ....|F#5 2F.F ....
 F#4|..|F#2 2A.F ....|--- .... ....|F#5 2F.7 ....
....|..|--- .... ....|--- .... ....|G#5 2F.F ....
....|..|R-- .... ....|--- .... ....|G#5 2F.7 ....
....|..|C-4 AF.F ....|--- .... ....|D#5 2F.F ....
....|..|A-2 2F.A ....|R-- .... ....|--- .... ....
....|..|--- .... ....|--- .... ....|E-5 2F.F ....
....|..|R-- .... ....|--- .... ....|A-3 2F4A ....
....|..|C-3 RF.F ....|F#4 UFFF ....|F#5 2F.F ....
 F#4|..|F#2 2A.F ....|--- .... ....|--- .... ....
....|..|C-5 VF.7 ....|--- .... ....|G#5 2F.F ....
....|..|R-- .... ....|--- .... ....|R-- .... ....
....|..|C-4 AF.F ....|F#4 UFFA ....|C#5 2F.F ....
....|..|F#2 2F.A ....|--- .... ....|--- .... ....
....|..|--- .... ....|--- .... ....|E-5 2F.7 ....
....|..|R-- .... ....|--- .... ....|R-- .... ....
....|..|C-3 RF.F ....|C#4 UFFF ....|A-3 2F4F ....
 F#4|..|F#2 2A.F ....|R-- .... ....|--- .... ....
....|..|C-5 VF.F ....|--- .... ....|G#5 2F.7 ....
....|..|R-- .... ....|--- .... ....|A-3 2F47 ....
....|..|C-4 AF.F ....|F#4 UFF7 ....|D#5 2F.F ....
....|..|F#2 2F.A ....|--- .... ....|--- .... ....
....|..|--- .... ....|--- .... ....|E-5 2F.F ....
....|..|R-- .... ....|--- .... ....|R-- .... ....
....|..|C-3 RF.F ....|C#4 UFFF ....|F#5 2F.F ....
 F#4|..|F#2 2A.F ....|--- .... ....|--- .... ....
....|..|C-4 LF.F ....|--- .... ....|G#5 2F.F ....
....|..|R-- .... ....|--- .... ....|G#3 2F1F ....

[Pattern26]
....|..|C-4 AF.F ....|C#4 UFFA ....|E-5 2F.F ....
....|..|F#2 2F.A ....|R-- .... ....|--- .... ....
....|..|C-5 VF.A ....|--- .... ....|E-5 2F.F ....
....|..|R-- .... ....|--- .... ....|R-- .... ....
....|..|C-3 RF.F ....|F#4 UFF7 ....|F#5 2F.F ....
 C#4|..|C#3 2C.F ....|--- .... ....|--- .... ....
....|..|--- .... ....|--- .... ....|G#5 2F.F ....
....|..|R-- .... ....|--- .... ....|R-- .... ....
....|..|C-4 AF.F ....|C#4 UFFA ....|E-5 2F.F ....
....|..|F#2 2F.A ....|--- .... ....|--- .... ....
....|..|C-4 LF.A ....|--- .... ....|E-5 2F.F ....
....|..|R-- .... ....|R-- .... ....|G#3 2F1A ....
....|..|C-3 RF.F ....|C#4 UFF7 ....|F#5 2F.F ....
 C#4|..|C#3 2C.F ....|--- .... ....|--- .... ....
....|..|C-5 VF.7 ....|--- .... ....|G#5 2F.F ....
....|..|R-- .... ....|--- .... ....|R-- .... ....
....|..|C-4 AF.F ....|--- .... ....|E-5 2F.F ....
....|..|C#3 2F.A ....|--- .... ....|--- .... ....
....|..|--- .... ....|--- .... ....|E-5 2F.F ....
....|..|R-- .... ....|--- .... ....|R-- .... ....
....|..|C-3 RF.F ....|C#4 UFF7 ....|F#5 2F.F ....
 C#4|..|C#3 2C.F ....|--- .... ....|--- .... ....
....|..|C-5 VF.F ....|--- .... ....|G#5 2F.F ....
....|..|R-- .... ....|R-- .... ....|G#3 2F17 ....
....|..|C-4 AF.F ....|--- .... ....|E-5 2F.F ....
....|..|C#3 2F.A ....|--- .... ....|--- .... ....
....|..|--- .... ....|--- .... ....|E-5 2F.F ....
....|..|R-- .... ....|--- .... ....|R-- .... ....
....|..|C-3 RF.F ....|--- .... ....|F#5 2F.F ....
 C#4|..|C#3 2C.F ....|--- .... ....|--- .... ....
....|..|--- .... ....|--- .... ....|G#5 2F.F ....
....|..|R-- .... ....|--- .... ....|G#3 2F2F ....
....|..|C-4 AF.F ....|--- .... ....|E-5 2F.F ....
....|..|C#3 2F.A ....|--- .... ....|--- .... ....
....|..|C-5 VF.A ....|--- .... ....|E-5 2F.F ....
....|..|R-- .... ....|R-- .... ....|R-- .... ....
....|..|C-3 RF.F ....|--- .... ....|F#5 2F.F ....
 C#4|..|C#3 2C.F ....|--- .... ....|--- .... ....
....|..|--- .... ....|--- .... ....|G#5 2F.F ....
....|..|R-- .... ....|--- .... ....|R-- .... ....
....|..|C-4 AF.F ....|--- .... ....|D#5 2F.F ....
....|..|C#3 2F.A ....|--- .... ....|--- .... ....
....|..|--- .... ....|--- .... ....|E-5 2F.F ....
....|..|R-- .... ....|--- .... ....|G#3 2F2A ....
....|..|C-3 RF.F ....|--- .... ....|G#4 2F.F ....
 C#4|..|C#3 2C.F ....|--- .... ....|F#5 2F.F ....
....|..|C-5 VF.7 ....|--- .... ....|G#5 2F.F ....
....|..|R-- .... ....|--- .... ....|R-- .... ....
....|..|C-4 AF.F ....|--- .... ....|E-5 2F.F ....
....|..|C#3 2F.A ....|--- .... ....|--- .... ....
....|..|--- .... ....|--- .... ....|E-5 2F.7 ....
....|..|R-- .... ....|--- .... ....|R-- .... ....
....|..|C-3 RF.F ....|--- .... ....|G#4 2F.F ....
 C#4|..|C#3 2C.F ....|--- .... ....|--- .... ....
....|..|C-5 VF.F ....|--- .... ....|G#5 2F.7 ....
....|..|R-- .... ....|--- .... ....|G#3 2F27 ....
....|..|C-4 AF.F ....|--- .... ....|D#5 2F.F ....
....|..|C#3 2F.A ....|--- .... ....|F#5 2F.A ....
....|..|--- .... ....|--- .... ....|A-4 2F.F ....
....|..|R-- .... ....|--- .... ....|R-- .... ....
....|..|C-3 RF.F ....|--- .... ....|B-4 2F.F ....
 C#4|..|C#3 2C.F ....|--- .... ....|--- .... ....
....|..|C-4 LF.F ....|--- .... ....|G#4 2F.F ....
....|..|R-- .... ....|--- .... ....|E-3 2F2F ....

[Pattern27]
....|..|C-4 AF.F ....|--- .... ....|D#5 2F.F ....
....|..|C#3 2F.A ....|--- .... ....|--- .... ....
....|..|C-5 VF.A ....|--- .... ....|C#5 2F.F ....
....|..|R-- .... ....|--- .... ....|A-4 2F.F ....
....|..|C-3 RF.F ....|--- .... ....|B-4 2F.F ....
 A-3|..|A-2 2C.F ....|--- .... ....|F#5 2F.7 ....
....|..|--- .... ....|--- .... ....|G#4 2F.F ....
....|..|R-- .... ....|--- .... ....|R-- .... ....
....|..|C-4 AF.F ....|--- .... ....|D#5 2F.F ....
....|..|C#3 2F.A ....|--- .... ....|--- .... ....
....|..|C-4 LF.A ....|--- .... ....|C#5 2F.F ....
....|..|R-- .... ....|--- .... ....|A-4 2F.F ....
....|..|C-3 RF.F ....|--- .... ....|B-4 2F.F ....
 A-3|..|A-2 2C.F ....|--- .... ....|B-4 2F.F ....
....|..|C-5 VF.7 ....|--- .... ....|G#4 2F.F ....
....|..|R-- .... ....|--- .... ....|R-- .... ....
....|..|C-4 AF.F ....|--- .... ....|C#5 2F.F ....
....|..|A-2 2F.A ....|--- .... ....|--- .... ....
....|..|--- .... ....|--- .... ....|C#5 2F.F ....
....|..|R-- .... ....|--- .... ....|A-4 2F.F ....
....|..|C-3 RF.F ....|--- .... ....|B-4 2F.F ....
 A-3|..|A-2 2C.F ....|--- .... ....|--- .... ....
....|..|C-5 VF.F ....|--- .... ....|G#4 2F.7 ....
....|..|R-- .... ....|--- .... ....|E-3 2F27 ....
....|..|C-4 AF.F ....|--- .... ....|C#5 2F.F ....
....|..|A-2 2F.A ....|--- .... ....|B-4 2F.A ....
....|..|--- .... ....|--- .... ....|C#5 2F.F ....
....|..|R-- .... ....|--- .... ....|A-4 2F.F ....
....|..|C-3 RF.F ....|--- .... ....|B-4 2F.F ....
 A-3|..|A-2 2C.F ....|--- .... ....|--- .... ....
....|..|--- .... ....|--- .... ....|G#4 2F.7 ....
....|..|R-- .... ....|--- .... ....|F#3 2F5F ....
....|..|C-4 AF.F ....|F#4 UFFF ....|C#5 2F.F ....
....|..|A-2 2F.A ....|--- .... ....|--- .... ....
....|..|C-5 VF.A ....|--- .... ....|C#5 2F.7 ....
....|..|R-- .... ....|--- .... ....|A-4 2F.7 ....
....|..|C-3 RF.F ....|F#4 UFFF ....|F#3 2F5F ....
 F#4|..|F#2 2A.F ....|--- .... ....|B-4 2F.7 ....
....|..|--- .... ....|--- .... ....|G#4 2F.7 ....
....|..|R-- .... ....|--- .... ....|R-- .... ....
....|..|C-4 AF.F ....|--- .... ....|C#5 2F.7 ....
....|..|A-2 2F.A ....|R-- .... ....|--- .... ....
....|..|--- .... ....|--- .... ....|C#5 2F.7 ....
....|..|R-- .... ....|--- .... ....|A-4 2F.7 ....
....|..|C-3 RF.F ....|F#4 UFFF ....|F#3 2F5F ....
 F#4|..|F#2 2A.F ....|--- .... ....|--- .... ....
....|..|C-5 VF.7 ....|--- .... ....|R-- .... ....
....|..|R-- .... ....|--- .... ....|R-- .... ....
....|..|C-4 AF.F ....|F#4 UFFA ....|C#5 2F.7 ....
....|..|F#2 2F.A ....|--- .... ....|--- .... ....
....|..|--- .... ....|--- .... ....|C#5 2F.7 ....
....|..|R-- .... ....|--- .... ....|A-4 2F.7 ....
....|..|C-3 RF.F ....|C#4 UFFF ....|F#3 2F5F ....
 F#4|..|F#2 2A.F ....|R-- .... ....|--- .... ....
....|..|C-5 VF.F ....|--- .... ....|R-- .... ....
....|..|R-- .... ....|--- .... ....|F#3 2F57 ....
....|..|C-4 AF.F ....|F#4 UFF7 ....|D#5 2F.F ....
....|..|F#2 2F.A ....|--- .... ....|--- .... ....
....|..|C-4 LF.F ....|--- .... ....|E-5 2F.F ....
....|..|R-- .... ....|--- .... ....|R-- .... ....
....|..|C-4 AF.F ....|C#4 UFFF ....|F#5 2F.F ....
 F#4|..|F#2 2A.F ....|--- .... ....|--- .... ....
....|..|--- .... ....|--- .... ....|G#5 2F.F ....
....|..|R-- .... ....|--- .... ....|G#3 2F1F ....

[Pattern28]
....|..|C-4 AF.F ....|C#4 UFFA ....|E-5 2F.F ....
....|..|F#2 2F.A ....|R-- .... ....|--- .... ....
....|..|C-5 VF.A ....|--- .... ....|E-5 2F.F ....
....|..|R-- .... ....|--- .... ....|R-- .... ....
....|..|C-3 RF.F ....|F#4 UFF7 ....|F#5 2F.F ....
 C#4|..|C#3 2C.F ....|--- .... ....|--- .... ....
....|..|C-4 LF.A ....|--- .... ....|G#5 2F.F ....
....|..|R-- .... ....|--- .... ....|R-- .... ....
....|..|C-4 AF.F ....|C#4 UFFA ....|E-5 2F.F ....
....|..|F#2 2F.A ....|--- .... ....|--- .... ....
....|..|--- .... ....|--- .... ....|E-5 2F.F ....
....|..|R-- .... ....|R-- .... ....|G#3 2F1A ....
....|..|C-3 RF.F ....|C#4 UFF7 ....|F#5 2F.F ....
 C#4|..|C#3 2C.F ....|--- .... ....|--- .... ....
....|..|C-5 VF.7 ....|--- .... ....|G#5 2F.F ....
....|..|R-- .... ....|--- .... ....|R-- .... ....
....|..|C-4 AF.F ....|--- .... ....|E-5 2F.F ....
....|..|C#3 2F.A ....|--- .... ....|--- .... ....
....|..|C-4 LF.7 ....|--- .... ....|E-5 2F.F ....
....|..|R-- .... ....|--- .... ....|R-- .... ....
....|..|C-3 RF.F ....|C#4 UFF7 ....|F#5 2F.F ....
 C#4|..|C#3 2C.F ....|--- .... ....|--- .... ....
....|..|C-5 VF.F ....|--- .... ....|G#5 2F.F ....
....|..|R-- .... ....|R-- .... ....|G#3 2F17 ....
....|..|C-4 AF.F ....|--- .... ....|E-5 2F.F ....
....|..|C#3 2F.A ....|--- .... ....|--- .... ....
....|..|--- .... ....|--- .... ....|E-5 2F.F ....
....|..|R-- .... ....|--- .... ....|R-- .... ....
....|..|C-3 RF.F ....|--- .... ....|F#5 2F.F ....
 C#4|..|C#3 2C.F ....|--- .... ....|--- .... ....
....|..|--- .... ....|--- .... ....|G#5 2F.F ....
....|..|R-- .... ....|--- .... ....|G#3 2F2F ....
....|..|C-4 AF.F ....|--- .... ....|E-5 2F.F ....
....|..|C#3 2F.A ....|--- .... ....|--- .... ....
....|..|C-5 VF.A ....|--- .... ....|E-5 2F.F ....
....|..|R-- .... ....|R-- .... ....|R-- .... ....
....|..|C-3 RF.F ....|--- .... ....|F#5 2F.F ....
 C#4|..|C#3 2C.F ....|--- .... ....|--- .... ....
....|..|--- .... ....|--- .... ....|G#5 2F.F ....
....|..|R-- .... ....|--- .... ....|R-- .... ....
....|..|C-4 AF.F ....|--- .... ....|D#5 2F.F ....
....|..|C#3 2F.A ....|--- .... ....|--- .... ....
....|..|--- .... ....|--- .... ....|E-5 2F.F ....
....|..|R-- .... ....|--- .... ....|G#3 2F2A ....
....|..|C-3 RF.F ....|--- .... ....|G#4 2F.F ....
 C#4|..|C#3 2C.F ....|--- .... ....|F#5 2F.F ....
....|..|C-5 VF.7 ....|--- .... ....|G#5 2F.F ....
....|..|R-- .... ....|--- .... ....|R-- .... ....
....|..|C-4 AF.F ....|--- .... ....|E-5 2F.F ....
....|..|C#3 2F.A ....|--- .... ....|--- .... ....
....|..|--- .... ....|--- .... ....|E-5 2F.7 ....
....|..|R-- .... ....|--- .... ....|R-- .... ....
....|..|C-3 RF.F ....|--- .... ....|G#4 2F.F ....
 C#4|..|C#3 2C.F ....|--- .... ....|--- .... ....
....|..|C-5 VF.F ....|--- .... ....|G#5 2F.7 ....
....|..|R-- .... ....|--- .... ....|G#3 2F27 ....
....|..|C-4 AF.F ....|--- .... ....|D#5 2F.F ....
....|..|C#3 2F.A ....|--- .... ....|F#5 2F.A ....
....|..|--- .... ....|--- .... ....|E-5 2F.F ....
....|..|R-- .... ....|--- .... ....|R-- .... ....
....|..|C-3 RF.F ....|--- .... ....|F#5 2F.F ....
 C#4|..|C#3 2C.F ....|--- .... ....|--- .... ....
....|..|C-4 LF.F ....|--- .... ....|G#5 2F.F ....
....|..|R-- .... ....|--- .... ....|G#5 2F.F ....

[Pattern29]
....|..|C-4 AF.F ....|--- .... ....|D#5 2F.F ....
....|..|C#3 2F.A ....|--- .... ....|--- .... ....
....|..|C-5 VF.A ....|--- .... ....|E-5 2F.F ....
....|..|R-- .... ....|--- .... ....|R-- .... ....
....|..|C-3 RF.F ....|--- .... ....|F#5 2F.F ....
 A-3|..|A-2 2C.F ....|--- .... ....|F#5 2F.7 ....
....|..|--- .... ....|--- .... ....|G#5 2F.F ....
....|..|R-- .... ....|--- .... ....|G#5 2F.F ....
....|..|C-4 AF.F ....|--- .... ....|D#5 2F.F ....
....|..|C#3 2F.A ....|--- .... ....|--- .... ....
....|..|C-4 LF.A ....|--- .... ....|E-5 2F.F ....
....|..|R-- .... ....|--- .... ....|G#5 2F.A ....
....|..|C-3 RF.F ....|--- .... ....|F#5 2F.F ....
 A-3|..|A-2 2C.F ....|--- .... ....|F#5 2F.F ....
....|..|C-5 VF.7 ....|--- .... ....|G#5 2F.F ....
....|..|R-- .... ....|--- .... ....|G#5 2F.F ....
....|..|C-4 AF.F ....|--- .... ....|D#5 2F.F ....
....|..|A-2 2F.A ....|--- .... ....|--- .... ....
....|..|--- .... ....|--- .... ....|E-5 2F.F ....
....|..|R-- .... ....|--- .... ....|G#5 2F.A ....
....|..|C-3 RF.F ....|--- .... ....|F#5 2F.F ....
 A-3|..|A-2 2C.F ....|--- .... ....|--- .... ....
....|..|C-5 VF.F ....|--- .... ....|G#5 2F.F ....
....|..|R-- .... ....|--- .... ....|G#5 2F.7 ....
....|..|C-4 AF.F ....|--- .... ....|D#5 2F.F ....
....|..|A-2 2F.A ....|--- .... ....|F#5 2F.A ....
....|..|--- .... ....|--- .... ....|E-5 2F.F ....
....|..|R-- .... ....|--- .... ....|G#5 2F.A ....
....|..|C-3 RF.F ....|--- .... ....|F#5 2F.F ....
 A-3|..|A-2 2C.F ....|--- .... ....|--- .... ....
....|..|--- .... ....|--- .... ....|G#5 2F.F ....
....|..|R-- .... ....|--- .... ....|A-3 2F4F ....
....|..|C-4 AF.F ....|--- .... ....|D#5 2F.F ....
....|..|A-2 2F.A ....|--- .... ....|--- .... ....
....|..|C-5 VF.F ....|--- .... ....|E-5 2F.F ....
....|..|R-- .... ....|--- .... ....|R-- .... ....
....|..|C-5 VF.F ....|--- .... ....|F#5 2F.F ....
 F#4|..|F#2 2A.F ....|--- .... ....|F#5 2F.7 ....
....|..|C-5 VF.F ....|--- .... ....|G#5 2F.F ....
....|..|R-- .... ....|--- .... ....|G#5 2F.7 ....
....|..|C-4 AF.F ....|--- .... ....|D#5 2F.F ....
....|..|A-2 2F.A ....|--- .... ....|--- .... ....
....|..|C-5 VF.F ....|--- .... ....|E-5 2F.F ....
....|..|R-- .... ....|--- .... ....|A-3 2F4A ....
....|..|C-5 VF.F ....|--- .... ....|F#5 2F.F ....
 F#4|..|F#2 2A.F ....|--- .... ....|--- .... ....
....|..|C-5 VF.F ....|--- .... ....|G#5 2F.F ....
....|..|R-- .... ....|--- .... ....|R-- .... ....
....|..|C-4 AF.F ....|--- .... ....|C#5 2F.F ....
....|..|F#2 2F.A ....|--- .... ....|--- .... ....
....|..|C-5 VF.F ....|--- .... ....|E-5 2F.7 ....
....|..|R-- .... ....|--- .... ....|R-- .... ....
....|..|C-5 VF.F ....|--- .... ....|A-3 2F4F ....
 F#4|..|F#2 2A.F ....|--- .... ....|--- .... ....
....|..|C-5 VF.F ....|--- .... ....|G#5 2F.7 ....
....|..|R-- .... ....|--- .... ....|A-3 2F47 ....
....|..|C-4 AF.F ....|--- .... ....|D#5 2F.F ....
....|..|F#2 2F.A ....|--- .... ....|--- .... ....
....|..|C-5 VF.F ....|--- .... ....|E-5 2F.F ....
....|..|R-- .... ....|--- .... ....|R-- .... ....
....|..|C-5 VF.F ....|--- .... ....|F#5 2F.F ....
 F#4|..|F#2 2A.F ....|--- .... ....|--- .... ....
....|..|C-5 VF.F ....|--- .... ....|G#5 2F.F ....
....|..|R-- .... ....|--- .... ....|G#3 2F1F ....

[Pattern30]
....|..|C-4 AF.F ....|--- .... ....|E-5 2F.F ....
....|..|F#2 2F.A ....|--- .... ....|--- .... ....
....|..|C-5 VF.F ....|--- .... ....|E-5 2F.F ....
....|..|R-- .... ....|--- .... ....|R-- .... ....
....|..|C-5 VF.F ....|--- .... ....|F#5 2F.F ....
 C#4|..|C#3 2C.F ....|--- .... ....|--- .... ....
....|..|C-5 VF.F ....|--- .... ....|G#5 2F.F ....
....|..|R-- .... ....|--- .... ....|R-- .... ....
....|..|C-4 AF.F ....|--- .... ....|E-5 2F.F ....
....|..|F#2 2F.A ....|--- .... ....|--- .... ....
....|..|C-5 VF.F ....|--- .... ....|E-5 2F.F ....
....|..|R-- .... ....|--- .... ....|G#3 2F1A ....
....|..|C-5 VF.F ....|--- .... ....|F#5 2F.F ....
 C#4|..|C#3 2C.F ....|--- .... ....|--- .... ....
....|..|C-5 VF.F ....|--- .... ....|G#5 2F.F ....
....|..|R-- .... ....|--- .... ....|R-- .... ....
....|..|C-4 AF.F ....|--- .... ....|E-5 2F.F ....
....|..|C#3 2F.A ....|--- .... ....|--- .... ....
....|..|C-5 VF.F ....|--- .... ....|E-5 2F.F ....
....|..|R-- .... ....|--- .... ....|R-- .... ....
....|..|C-5 VF.F ....|--- .... ....|F#5 2F.F ....
 C#4|..|C#3 2C.F ....|--- .... ....|--- .... ....
....|..|C-5 VF.F ....|--- .... ....|G#5 2F.F ....
....|..|R-- .... ....|--- .... ....|G#3 2F17 ....
....|..|C-4 AF.F ....|--- .... ....|E-5 2F.F ....
....|..|C#3 2F.A ....|--- .... ....|--- .... ....
....|..|C-5 VF.F ....|--- .... ....|E-5 2F.F ....
....|..|R-- .... ....|--- .... ....|R-- .... ....
....|..|C-5 VF.F ....|--- .... ....|F#5 2F.F ....
 C#4|..|C#3 2C.F ....|--- .... ....|--- .... ....
....|..|C-5 VF.F ....|--- .... ....|G#5 2F.F ....
....|..|R-- .... ....|--- .... ....|G#3 2F2F ....
....|..|C-4 AF.F ....|--- .... ....|E-5 2F.F ....
....|..|C#3 2F.A ....|--- .... ....|--- .... ....
....|..|C-5 VF.F ....|--- .... ....|E-5 2F.F ....
....|..|R-- .... ....|--- .... ....|R-- .... ....
....|..|C-5 VF.F ....|--- .... ....|F#5 2F.F ....
 C#4|..|C#3 2C.F ....|--- .... ....|--- .... ....
....|..|C-5 VF.F ....|--- .... ....|G#5 2F.F ....
....|..|R-- .... ....|--- .... ....|R-- .... ....
....|..|C-4 AF.F ....|--- .... ....|D#5 2F.F ....
....|..|C#3 2F.A ....|--- .... ....|--- .... ....
....|..|C-5 VF.F ....|--- .... ....|E-5 2F.F ....
....|..|R-- .... ....|--- .... ....|G#3 2F2A ....
....|..|C-5 VF.F ....|--- .... ....|G#4 2F.F ....
 C#4|..|C#3 2C.F ....|--- .... ....|F#5 2F.F ....
....|..|C-5 VF.F ....|--- .... ....|G#5 2F.F ....
....|..|R-- .... ....|--- .... ....|R-- .... ....
....|..|C-4 AF.F ....|--- .... ....|E-5 2F.F ....
....|..|C#3 2F.A ....|--- .... ....|--- .... ....
....|..|C-5 VF.F ....|--- .... ....|E-5 2F.7 ....
....|..|R-- .... ....|--- .... ....|R-- .... ....
....|..|C-5 VF.F ....|--- .... ....|G#4 2F.F ....
 C#4|..|C#3 2C.F ....|--- .... ....|--- .... ....
....|..|C-5 VF.F ....|--- .... ....|G#5 2F.7 ....
....|..|R-- .... ....|--- .... ....|G#3 2F27 ....
....|..|C-4 AF.F ....|--- .... ....|D#5 2F.F ....
....|..|C#3 2F.A ....|--- .... ....|F#5 2F.A ....
....|..|C-5 VF.F ....|--- .... ....|A-4 2F.F ....
....|..|R-- .... ....|--- .... ....|R-- .... ....
....|..|C-5 VF.F ....|--- .... ....|B-4 2F.F ....
 C#4|..|C#3 2C.F ....|--- .... ....|--- .... ....
....|..|C-5 VF.F ....|--- .... ....|G#4 2F.F ....
....|..|R-- .... ....|--- .... ....|E-3 2F2F ....

[Pattern31]
....|..|C-4 AF.F ....|--- .... ....|D#5 2F.F ....
....|..|C#3 2F.A ....|--- .... ....|--- .... ....
....|..|C-5 VF.F ....|--- .... ....|C#5 2F.F ....
....|..|R-- .... ....|--- .... ....|A-4 2F.F ....
....|..|C-5 VF.F ....|--- .... ....|B-4 2F.F ....
 A-3|..|A-2 2C.F ....|--- .... ....|F#5 2F.7 ....
....|..|C-5 VF.F ....|--- .... ....|G#4 2F.F ....
....|..|R-- .... ....|--- .... ....|R-- .... ....
....|..|C-4 AF.F ....|--- .... ....|D#5 2F.F ....
....|..|C#3 2F.A ....|--- .... ....|--- .... ....
....|..|C-5 VF.F ....|--- .... ....|C#5 2F.F ....
....|..|R-- .... ....|--- .... ....|A-4 2F.F ....
....|..|C-5 VF.F ....|--- .... ....|B-4 2F.F ....
 A-3|..|A-2 2C.F ....|--- .... ....|B-4 2F.F ....
....|..|C-5 VF.F ....|--- .... ....|G#4 2F.F ....
....|..|R-- .... ....|--- .... ....|R-- .... ....
....|..|C-4 AF.F ....|--- .... ....|C#5 2F.F ....
....|..|A-2 2F.A ....|--- .... ....|--- .... ....
....|..|C-5 VF.F ....|--- .... ....|C#5 2F.F ....
....|..|R-- .... ....|--- .... ....|A-4 2F.F ....
....|..|C-5 VF.F ....|--- .... ....|B-4 2F.F ....
 A-3|..|A-2 2C.F ....|--- .... ....|--- .... ....
....|..|C-5 VF.F ....|--- .... ....|G#4 2F.7 ....
....|..|R-- .... ....|--- .... ....|E-3 2F27 ....
....|..|C-4 AF.F ....|--- .... ....|C#5 2F.F ....
....|..|A-2 2F.A ....|--- .... ....|B-4 2F.A ....
....|..|C-5 VF.F ....|--- .... ....|C#5 2F.F ....
....|..|R-- .... ....|--- .... ....|A-4 2F.F ....
....|..|C-5 VF.F ....|--- .... ....|B-4 2F.F ....
 A-3|..|A-2 2C.F ....|--- .... ....|--- .... ....
....|..|C-5 VF.F ....|--- .... ....|G#4 2F.7 ....
....|..|R-- .... ....|--- .... ....|F#3 2F5F ....
....|..|C-4 AF.F ....|--- .... ....|C#5 2F.F ....
....|..|A-2 2F.A ....|--- .... ....|--- .... ....
....|..|C-5 VF.F ....|--- .... ....|C#5 2F.7 ....
....|..|R-- .... ....|--- .... ....|A-4 2F.7 ....
....|..|C-5 VF.F ....|--- .... ....|F#3 2F5F ....
 F#4|..|F#2 2A.F ....|--- .... ....|B-4 2F.7 ....
....|..|C-5 VF.F ....|--- .... ....|G#4 2F.7 ....
....|..|R-- .... ....|--- .... ....|R-- .... ....
....|..|C-4 AF.F ....|--- .... ....|C#5 2F.7 ....
....|..|A-2 2F.A ....|--- .... ....|--- .... ....
....|..|C-5 VF.F ....|--- .... ....|C#5 2F.7 ....
....|..|R-- .... ....|--- .... ....|A-4 2F.7 ....
....|..|C-5 VF.F ....|--- .... ....|F#3 2F5F ....
 F#4|..|F#2 2A.F ....|--- .... ....|--- .... ....
....|..|C-5 VF.F ....|--- .... ....|R-- .... ....
....|..|R-- .... ....|--- .... ....|R-- .... ....
....|..|C-4 AF.F ....|--- .... ....|C#5 2F.7 ....
....|..|C-5 VF.F ....|--- .... ....|--- .... ....
....|..|C-5 VF.F ....|--- .... ....|C#5 2F.7 ....
....|..|C-5 VF.F ....|--- .... ....|A-4 2F.7 ....
....|..|C-5 VF.F ....|--- .... ....|F#3 2F5F ....
....|..|C-5 VF.F ....|--- .... ....|--- .... ....
....|..|C-5 VF.F ....|--- .... ....|R-- .... ....
....|..|C-5 VF.F ....|--- .... ....|F#3 2F57 ....
....|..|C-4 AF.F ....|--- .... ....|C#5 2F.7 ....
....|..|C-5 VF.F ....|--- .... ....|--- .... ....
....|..|C-5 VF.F ....|--- .... ....|--- .... ....
....|..|C-5 VF.F ....|--- .... ....|R-- .... ....
....|..|C-4 AF.F ....|--- .... ....|F#3 2F5F ....
....|..|C-5 VF.F ....|--- .... ....|--- .... ....
....|..|C-5 VF.F ....|--- .... ....|--- .... ....
....|..|C-5 VF.F ....|--- .... ....|R-- .... ....

[Pattern32]
....|..|C-4 AF.F ....|--- .... ....|F#3 2F5A ....
....|..|R-- .... ....|--- .... ....|--- .... ....
....|..|C-4 AF.F ....|--- .... ....|--- .... ....
....|..|C-5 VF.A ....|--- .... ....|R-- .... ....
....|..|C-4 AF.F ....|--- .... ....|F#3 2F57 ....
 C#4|..|C#3 2C.F ....|--- .... ....|--- .... ....
....|..|C-5 VF.7 ....|--- .... ....|--- .... ....
....|..|R-- .... ....|--- .... ....|R-- .... ....
....|..|C-4 AF.F ....|--- .... ....|F#3 2F5A ....
....|..|C-5 VF.7 ....|--- .... ....|--- .... ....
....|..|C-5 VF.7 ....|--- .... ....|--- .... ....
....|..|C-5 VF.7 ....|--- .... ....|R-- .... ....
....|..|C-3 RF.F ....|--- .... ....|F#3 2F57 ....
 C#4|..|C#3 2C.F ....|--- .... ....|--- .... ....
....|..|C-4 AF.F ....|--- .... ....|--- .... ....
....|..|C-5 VF.7 ....|--- .... ....|R-- .... ....
....|..|C-4 AF.F ....|--- .... ....|--- .... ....
....|..|C-5 VF.7 ....|--- .... ....|--- .... ....
....|..|C-5 VF.7 ....|--- .... ....|--- .... ....
....|..|C-5 VF.7 ....|--- .... ....|--- .... ....
....|..|C-4 AF.F ....|--- .... ....|F#3 2F57 ....
 C#4|..|C#3 2C.F ....|--- .... ....|--- .... ....
....|..|C-4 AF.F ....|--- .... ....|--- .... ....
....|..|C-5 VF.7 ....|--- .... ....|R-- .... ....
....|..|C-4 AF.F ....|--- .... ....|--- .... ....
....|..|R-- .... ....|--- .... ....|--- .... ....
....|..|C-4 AF.7 ....|--- .... ....|--- .... ....
....|..|R-- .... ....|--- .... ....|--- .... ....
....|..|C-3 RF.F ....|--- .... ....|--- .... ....
 C#4|..|C#3 2C.F ....|--- .... ....|--- .... ....
....|..|--- .... ....|--- .... ....|--- .... ....
....|..|R-- .... ....|--- .... ....|--- .... ....
....|..|C-4 AF.F ....|--- .... ....|--- .... ....
....|..|C#3 2F.A ....|--- .... ....|--- .... ....
....|..|C-4 AF.F ....|--- .... ....|--- .... ....
....|..|R-- .... ....|--- .... ....|--- .... ....
....|..|C-4 AF.F ....|--- .... ....|--- .... ....
 C#4|..|C#3 2C.F ....|--- .... ....|--- .... ....
....|..|C-4 AF.7 ....|--- .... ....|--- .... ....
....|..|R-- .... ....|--- .... ....|--- .... ....
....|..|C-4 AF.F ....|--- .... ....|--- .... ....
....|..|C#3 2F.A ....|--- .... ....|--- .... ....
....|..|--- .... ....|--- .... ....|--- .... ....
....|..|R-- .... ....|--- .... ....|--- .... ....
....|..|C-3 RF.F ....|--- .... ....|--- .... ....
 C#4|..|C#3 2C.F ....|--- .... ....|--- .... ....
....|..|C-4 AF.F ....|--- .... ....|--- .... ....
....|..|R-- .... ....|--- .... ....|--- .... ....
....|..|C-4 AF.F ....|--- .... ....|--- .... ....
....|..|C#3 2F.A ....|G#3 UFFF ....|--- .... ....
....|..|--- .... ....|--- .... ....|--- .... ....
....|..|R-- .... ....|--- .... ....|--- .... ....
....|..|C-4 AF.F ....|R-- .... ....|--- .... ....
 C#4|..|C#3 2C.F ....|G#3 UFFF ....|--- .... ....
....|..|C-4 AF.F ....|--- .... ....|--- .... ....
....|..|R-- .... ....|--- .... ....|--- .... ....
....|..|C-4 AF.F ....|R-- .... ....|--- .... ....
....|..|C#3 2F.A ....|G#3 UFFF ....|--- .... ....
....|..|C-4 AF.7 ....|--- .... ....|--- .... ....
....|..|R-- .... ....|--- .... ....|--- .... ....
....|..|C-4 AF.F ....|--- .... ....|--- .... ....
 C#4|..|C#3 2C.F ....|R-- .... ....|--- .... ....
....|..|C-4 LF.F ....|G#3 UFFF ....|--- .... ....
....|..|R-- .... ....|--- .... ....|--- .... ....

[Pattern33]
....|..|C-4 AF.F ....|R-- .... ....|--- .... ....
 C#4|..|C#3 2C.F ....|R-- .... ....|--- .... ....
....|..|C-4 AF.F ....|--- .... ....|--- .... ....
....|..|R-- .... ....|G#3 UFFF ....|--- .... ....
....|..|C-4 AF.F ....|R-- .... ....|--- .... ....
 C#4|..|C#3 2C.F ....|G#3 UFFA ....|--- .... ....
....|..|C-4 AF.7 ....|--- .... ....|--- .... ....
....|..|R-- .... ....|--- .... ....|--- .... ....
....|..|C-4 AF.F ....|R-- .... ....|--- .... ....
....|..|C#3 2F.A ....|G#3 UFF7 ....|--- .... ....
....|..|C-4 LF.A ....|G#3 UFFF ....|--- .... ....
....|..|R-- .... ....|--- .... ....|--- .... ....
....|..|C-3 RF.F ....|R-- .... ....|--- .... ....
 C#4|..|C#3 2C.F ....|G#3 UFF7 ....|--- .... ....
....|..|C-4 AF.F ....|--- .... ....|--- .... ....
....|..|R-- .... ....|G#3 UFFA ....|--- .... ....
....|..|C-4 AF.F ....|R-- .... ....|--- .... ....
....|..|C#3 2F.A ....|G#3 UFF7 ....|--- .... ....
....|..|--- .... ....|--- .... ....|--- .... ....
....|..|R-- .... ....|--- .... ....|--- .... ....
....|..|C-4 AF.F ....|R-- .... ....|--- .... ....
 C#4|..|C#3 2C.F ....|R-- .... ....|--- .... ....
....|..|C-4 AF.F ....|G#3 UFF7 ....|--- .... ....
....|..|R-- .... ....|--- .... ....|--- .... ....
....|..|C-4 AF.F ....|--- .... ....|--- .... ....
....|..|C#3 2F.7 ....|R-- .... ....|--- .... ....
....|..|C-4 AF.7 ....|--- .... ....|--- .... ....
....|..|R-- .... ....|G#3 UFF7 ....|--- .... ....
....|..|C-3 RF.F ....|--- .... ....|--- .... ....
 C#4|..|C#3 2C.F ....|--- .... ....|--- .... ....
....|..|--- .... ....|--- .... ....|--- .... ....
....|..|R-- .... ....|--- .... ....|--- .... ....
....|..|C-4 AF.F ....|R-- .... ....|--- .... ....
....|..|C#3 2F.A ....|R-- .... ....|--- .... ....
....|..|C-4 AF.F ....|G#3 UFF7 ....|--- .... ....
....|..|R-- .... ....|--- .... ....|--- .... ....
....|..|C-4 AF.F ....|--- .... ....|--- .... ....
 C#4|..|C#3 2C.F ....|--- .... ....|--- .... ....
....|..|C-4 AF.7 ....|--- .... ....|--- .... ....
....|..|R-- .... ....|--- .... ....|--- .... ....
....|..|C-4 AF.F ....|--- .... ....|--- .... ....
....|..|C#3 2F.A ....|--- .... ....|--- .... ....
....|..|--- .... ....|--- .... ....|--- .... ....
....|..|R-- .... ....|--- .... ....|--- .... ....
....|..|C-3 RF.F ....|--- .... ....|--- .... ....
 C#4|..|C#3 2C.F ....|R-- .... ....|--- .... ....
....|..|C-4 AF.F ....|--- .... ....|--- .... ....
....|..|R-- .... ....|--- .... ....|--- .... ....
....|..|C-4 AF.F ....|--- .... ....|--- .... ....
....|..|C#3 2F.A ....|--- .... ....|--- .... ....
....|..|--- .... ....|--- .... ....|--- .... ....
....|..|R-- .... ....|--- .... ....|--- .... ....
....|..|C-4 AF.F ....|--- .... ....|--- .... ....
 C#4|..|C#3 2C.F ....|--- .... ....|--- .... ....
....|..|C-4 AF.F ....|--- .... ....|--- .... ....
....|..|R-- .... ....|--- .... ....|--- .... ....
....|..|C-4 AF.F ....|--- .... ....|--- .... ....
....|..|C#3 2F.A ....|--- .... ....|--- .... ....
....|..|C-4 AF.7 ....|--- .... ....|--- .... ....
....|..|R-- .... ....|--- .... ....|--- .... ....
....|..|C-3 RF.F ....|--- .... ....|--- .... ....
 C#4|..|C#3 2C.F ....|--- .... ....|--- .... ....
....|..|--- .... ....|--- .... ....|--- .... ....
....|..|R-- .... ....|--- .... ....|--- .... ....

[Pattern34]
....|..|C-4 AF.F ....|--- .... ....|--- .... ....
....|..|C#3 2F.A ....|--- .... ....|--- .... ....
....|..|C-4 AF.F ....|--- .... ....|--- .... ....
....|..|R-- .... ....|--- .... ....|--- .... ....
....|..|C-4 AF.F ....|--- .... ....|--- .... ....
 C#4|..|C#3 2C.F ....|--- .... ....|--- .... ....
....|..|C-4 AF.7 ....|--- .... ....|--- .... ....
....|..|R-- .... ....|--- .... ....|--- .... ....
....|..|C-4 AF.F ....|--- .... ....|--- .... ....
....|..|C#3 2F.A ....|--- .... ....|--- .... ....
....|..|--- .... ....|--- .... ....|--- .... ....
....|..|R-- .... ....|--- .... ....|--- .... ....
....|..|C-3 RF.F ....|--- .... ....|--- .... ....
 C#4|..|C#3 2C.F ....|--- .... ....|--- .... ....
....|..|C-4 AF.F ....|--- .... ....|--- .... ....
....|..|R-- .... ....|--- .... ....|--- .... ....
....|..|C-4 AF.F ....|--- .... ....|--- .... ....
....|..|C#3 2F.A ....|--- .... ....|--- .... ....
....|..|--- .... ....|--- .... ....|--- .... ....
....|..|R-- .... ....|--- .... ....|--- .... ....
....|..|C-4 AF.F ....|--- .... ....|--- .... ....
 C#4|..|C#3 2C.F ....|--- .... ....|--- .... ....
....|..|C-4 AF.F ....|--- .... ....|--- .... ....
....|..|R-- .... ....|--- .... ....|--- .... ....
....|..|C-4 AF.F ....|--- .... ....|--- .... ....
....|..|C#3 2F.A ....|--- .... ....|--- .... ....
....|..|C-4 AF.7 ....|--- .... ....|--- .... ....
....|..|R-- .... ....|--- .... ....|--- .... ....
....|..|C-3 RF.F ....|--- .... ....|--- .... ....
 C#4|..|C#3 2C.F ....|--- .... ....|--- .... ....
....|..|--- .... ....|--- .... ....|--- .... ....
....|..|R-- .... ....|--- .... ....|--- .... ....
....|..|C-4 AF.F ....|--- .... ....|--- .... ....
....|..|C#3 2F.A ....|--- .... ....|--- .... ....
....|..|C-4 AF.F ....|--- .... ....|--- .... ....
....|..|R-- .... ....|--- .... ....|--- .... ....
....|..|C-4 AF.F ....|--- .... ....|--- .... ....
 C#4|..|C#3 2C.F ....|--- .... ....|--- .... ....
....|..|C-4 AF.7 ....|--- .... ....|--- .... ....
....|..|R-- .... ....|--- .... ....|--- .... ....
....|..|C-4 AF.F ....|--- .... ....|--- .... ....
....|..|C#3 2F.A ....|--- .... ....|--- .... ....
....|..|--- .... ....|--- .... ....|--- .... ....
....|..|R-- .... ....|--- .... ....|--- .... ....
....|..|C-3 RF.F ....|--- .... ....|--- .... ....
 C#4|..|C#3 2C.F ....|--- .... ....|--- .... ....
....|..|C-4 AF.F ....|--- .... ....|--- .... ....
....|..|R-- .... ....|--- .... ....|--- .... ....
....|..|C-4 AF.F ....|--- .... ....|--- .... ....
....|..|C#3 2F.A ....|--- .... ....|--- .... ....
....|..|--- .... ....|--- .... ....|--- .... ....
....|..|R-- .... ....|--- .... ....|--- .... ....
....|..|C-4 AF.F ....|--- .... ....|--- .... ....
 C#4|..|C#3 2C.F ....|--- .... ....|--- .... ....
....|..|C-4 AF.F ....|--- .... ....|--- .... ....
....|..|R-- .... ....|--- .... ....|--- .... ....
....|..|C-4 AF.F ....|--- .... ....|--- .... ....
....|..|C#3 2F.A ....|--- .... ....|--- .... ....
....|..|C-4 AF.7 ....|--- .... ....|--- .... ....
....|..|R-- .... ....|--- .... ....|--- .... ....
....|..|C-3 RF.F ....|--- .... ....|--- .... ....
 C#4|..|C#3 2C.F ....|--- .... ....|--- .... ....
....|..|C-4 LF.F ....|--- .... ....|--- .... ....
....|..|R-- .... ....|--- .... ....|--- .... ....

[Pattern35]
....|..|C-4 AF.F ....|--- .... ....|--- .... ....
 C#4|..|C#3 2C.F ....|--- .... ....|--- .... ....
....|..|C-4 AF.F ....|--- .... ....|--- .... ....
....|..|R-- .... ....|--- .... ....|--- .... ....
....|..|C-4 AF.F ....|--- .... ....|--- .... ....
 C#4|..|C#3 2C.F ....|--- .... ....|--- .... ....
....|..|C-4 AF.7 ....|--- .... ....|--- .... ....
....|..|R-- .... ....|--- .... ....|--- .... ....
....|..|C-4 AF.F ....|--- .... ....|--- .... ....
....|..|C#3 2F.A ....|--- .... ....|--- .... ....
....|..|C-4 LF.A ....|--- .... ....|--- .... ....
....|..|R-- .... ....|--- .... ....|--- .... ....
....|..|C-3 RF.F ....|--- .... ....|--- .... ....
 C#4|..|C#3 2C.F ....|--- .... ....|--- .... ....
....|..|C-4 AF.F ....|--- .... ....|--- .... ....
....|..|R-- .... ....|--- .... ....|--- .... ....
....|..|C-4 AF.F ....|--- .... ....|--- .... ....
....|..|C#3 2F.A ....|--- .... ....|--- .... ....
....|..|--- .... ....|--- .... ....|--- .... ....
....|..|R-- .... ....|--- .... ....|--- .... ....
....|..|C-4 AF.F ....|--- .... ....|--- .... ....
 C#4|..|C#3 2C.F ....|--- .... ....|--- .... ....
....|..|C-4 AF.F ....|--- .... ....|--- .... ....
....|..|R-- .... ....|--- .... ....|--- .... ....
....|..|C-4 AF.F ....|--- .... ....|--- .... ....
....|..|C#3 2F.7 ....|--- .... ....|--- .... ....
....|..|C-4 AF.7 ....|--- .... ....|--- .... ....
....|..|R-- .... ....|--- .... ....|--- .... ....
....|..|C-3 RF.F ....|--- .... ....|--- .... ....
 C#4|..|C#3 2C.F ....|--- .... ....|--- .... ....
....|..|--- .... ....|--- .... ....|--- .... ....
....|..|R-- .... ....|--- .... ....|--- .... ....
....|..|C-4 AF.F ....|G#3 UFFF ....|--- .... ....
....|..|C#3 2F.A ....|--- .... ....|--- .... ....
....|..|C-4 AF.F ....|--- .... ....|--- .... ....
....|..|R-- .... ....|--- .... ....|--- .... ....
....|..|C-4 AF.F ....|G#3 UFFF ....|--- .... ....
 C#4|..|C#3 2C.F ....|--- .... ....|--- .... ....
....|..|C-4 AF.7 ....|--- .... ....|--- .... ....
....|..|R-- .... ....|--- .... ....|--- .... ....
....|..|C-4 AF.F ....|G#3 UFFF ....|--- .... ....
....|..|C#3 2F.A ....|--- .... ....|--- .... ....
....|..|--- .... ....|--- .... ....|--- .... ....
....|..|R-- .... ....|R-- .... ....|--- .... ....
....|..|C-3 RF.F ....|G#3 UFFF ....|--- .... ....
 C#4|..|C#3 2C.F ....|--- .... ....|--- .... ....
....|..|C-4 AF.F ....|--- .... ....|--- .... ....
....|..|R-- .... ....|R-- .... ....|--- .... ....
....|..|C-4 AF.F ....|A-3 UFFF ....|--- .... ....
....|..|C#3 2F.A ....|--- .... ....|--- .... ....
....|..|--- .... ....|--- .... ....|--- .... ....
....|..|R-- .... ....|--- .... ....|--- .... ....
....|..|C-4 AF.F ....|G#3 UFFA ....|--- .... ....
 C#4|..|C#3 2C.F ....|--- .... ....|--- .... ....
....|..|C-4 AF.F ....|--- .... ....|--- .... ....
....|..|R-- .... ....|R-- .... ....|--- .... ....
....|..|C-4 AF.F ....|G#3 UFF7 ....|--- .... ....
....|..|C#3 2F.A ....|F#3 UFFF ....|--- .... ....
....|..|C-4 LF.F ....|--- .... ....|--- .... ....
....|..|R-- .... ....|R-- .... ....|--- .... ....
....|..|C-4 AF.F ....|G#3 UFF7 ....|--- .... ....
 C#4|..|C#3 2C.F ....|--- .... ....|--- .... ....
....|..|--- .... ....|--- .... ....|--- .... ....
....|..|R-- .... ....|--- .... ....|--- .... ....

[Pattern36]
....|..|C-4 AF.F ....|G#3 UFF7 ....|--- .... ....
....|..|C#3 2F.A ....|--- .... ....|--- .... ....
....|..|C-4 AF.F ....|--- .... ....|--- .... ....
....|..|R-- .... ....|R-- .... ....|--- .... ....
....|..|C-4 AF.F ....|C#5 UFFF ....|--- .... ....
 C#4|..|C#3 2C.F ....|F#3 UFFA ....|--- .... ....
....|..|C-4 AF.7 ....|--- .... ....|--- .... ....
....|..|R-- .... ....|R-- .... ....|--- .... ....
....|..|C-4 AF.F ....|A-3 UFF7 ....|--- .... ....
....|..|C#3 2F.A ....|--- .... ....|--- .... ....
....|..|--- .... ....|--- .... ....|--- .... ....
....|..|R-- .... ....|--- .... ....|--- .... ....
....|..|C-3 RF.F ....|C#5 UFFF ....|--- .... ....
 C#4|..|C#3 2C.F ....|--- .... ....|--- .... ....
....|..|C-4 AF.F ....|--- .... ....|--- .... ....
....|..|R-- .... ....|R-- .... ....|--- .... ....
....|..|C-4 AF.F ....|R-- .... ....|--- .... ....
....|..|C#3 2F.A ....|F#3 UFF7 ....|--- .... ....
....|..|C-4 LF.7 ....|--- .... ....|--- .... ....
....|..|R-- .... ....|R-- .... ....|--- .... ....
....|..|C-4 AF.F ....|C#5 UFFF ....|--- .... ....
 C#4|..|C#3 2C.F ....|--- .... ....|--- .... ....
....|..|C-4 AF.F ....|--- .... ....|--- .... ....
....|..|R-- .... ....|R-- .... ....|--- .... ....
....|..|C-4 AF.F ....|C#5 UFFA ....|--- .... ....
....|..|C#3 2F.A ....|--- .... ....|--- .... ....
....|..|C-4 AF.7 ....|--- .... ....|--- .... ....
....|..|R-- .... ....|R-- .... ....|--- .... ....
....|..|C-3 RF.F ....|C#5 UFFF ....|--- .... ....
 C#4|..|C#3 2C.F ....|--- .... ....|--- .... ....
....|..|--- .... ....|--- .... ....|--- .... ....
....|..|R-- .... ....|R-- .... ....|--- .... ....
....|..|C-4 AF.F ....|C#5 UFFA ....|--- .... ....
....|..|C#3 2F.A ....|--- .... ....|--- .... ....
....|..|C-4 AF.F ....|--- .... ....|--- .... ....
....|..|R-- .... ....|R-- .... ....|--- .... ....
....|..|C-4 AF.F ....|C#5 UFFF ....|--- .... ....
 C#4|..|C#3 2C.F ....|--- .... ....|--- .... ....
....|..|C-4 AF.7 ....|--- .... ....|--- .... ....
....|..|R-- .... ....|R-- .... ....|--- .... ....
....|..|C-4 AF.F ....|C#5 UFFA ....|--- .... ....
....|..|C#3 2F.A ....|--- .... ....|--- .... ....
....|..|--- .... ....|--- .... ....|--- .... ....
....|..|R-- .... ....|R-- .... ....|--- .... ....
....|..|C-3 RF.F ....|C#5 UFFF ....|--- .... ....
 C#4|..|C#3 2C.F ....|--- .... ....|--- .... ....
....|..|C-4 AF.F ....|--- .... ....|--- .... ....
....|..|R-- .... ....|R-- .... ....|--- .... ....
....|..|C-4 AF.F ....|C#5 UFFA ....|--- .... ....
....|..|C#3 2F.A ....|--- .... ....|--- .... ....
....|..|--- .... ....|--- .... ....|--- .... ....
....|..|R-- .... ....|R-- .... ....|--- .... ....
....|..|C-4 AF.F ....|C#5 UFFF ....|--- .... ....
 C#4|..|C#3 2C.F ....|--- .... ....|--- .... ....
....|..|C-4 AF.F ....|--- .... ....|--- .... ....
....|..|R-- .... ....|R-- .... ....|--- .... ....
....|..|C-4 AF.F ....|C#5 UFFA ....|--- .... ....
....|..|C#3 2F.A ....|--- .... ....|--- .... ....
....|..|C-4 AF.7 ....|--- .... ....|--- .... ....
....|..|R-- .... ....|R-- .... ....|--- .... ....
....|..|C-3 RF.F ....|C#5 UFFF ....|--- .... ....
 C#4|..|C#3 2C.F ....|--- .... ....|--- .... ....
....|..|C-4 LF.F ....|--- .... ....|--- .... ....
....|..|R-- .... ....|R-- .... ....|--- .... ....

[Pattern37]
....|..|C-4 AF.F ....|C#5 UFFA ....|--- .... ....
 C#4|..|C#3 2C.F ....|--- .... ....|--- .... ....
....|..|C-4 AF.F ....|--- .... ....|--- .... ....
....|..|R-- .... ....|R-- .... ....|--- .... ....
....|..|C-4 AF.F ....|C#5 UFFF ....|--- .... ....
 C#4|..|C#3 2C.F ....|--- .... ....|--- .... ....
....|..|C-4 AF.7 ....|--- .... ....|--- .... ....
....|..|R-- .... ....|R-- .... ....|--- .... ....
....|..|C-4 AF.F ....|C#5 UFFA ....|--- .... ....
....|..|C#3 2F.A ....|--- .... ....|--- .... ....
....|..|C-4 LF.A ....|--- .... ....|--- .... ....
....|..|R-- .... ....|R-- .... ....|--- .... ....
....|..|C-3 RF.F ....|C#5 UFFF ....|--- .... ....
 C#4|..|C#3 2C.F ....|--- .... ....|--- .... ....
....|..|C-4 AF.F ....|--- .... ....|--- .... ....
....|..|R-- .... ....|R-- .... ....|--- .... ....
....|..|C-4 AF.F ....|C#5 UFFA ....|--- .... ....
....|..|C#3 2F.A ....|--- .... ....|--- .... ....
....|..|--- .... ....|--- .... ....|--- .... ....
....|..|R-- .... ....|R-- .... ....|--- .... ....
....|..|C-4 AF.F ....|C#5 UFFF ....|--- .... ....
 C#4|..|C#3 2C.F ....|--- .... ....|--- .... ....
....|..|C-4 AF.F ....|--- .... ....|--- .... ....
....|..|R-- .... ....|R-- .... ....|--- .... ....
....|..|C-4 AF.F ....|C#5 UFFA ....|--- .... ....
....|..|C#3 2F.7 ....|--- .... ....|--- .... ....
....|..|C-4 AF.7 ....|--- .... ....|--- .... ....
....|..|R-- .... ....|R-- .... ....|--- .... ....
....|..|C-3 RF.F ....|C#5 UFFF ....|--- .... ....
 C#4|..|C#3 2C.F ....|--- .... ....|--- .... ....
....|..|--- .... ....|--- .... ....|--- .... ....
....|..|R-- .... ....|R-- .... ....|--- .... ....
....|..|C-4 AF.F ....|C#5 UFFA ....|--- .... ....
....|..|C#3 2F.A ....|--- .... ....|--- .... ....
....|..|C-4 AF.F ....|--- .... ....|--- .... ....
....|..|R-- .... ....|R-- .... ....|--- .... ....
....|..|C-4 AF.F ....|C#5 UFFF ....|--- .... ....
 C#4|..|C#3 2C.F ....|--- .... ....|--- .... ....
....|..|C-5 VF.F ....|--- .... ....|--- .... ....
....|..|R-- .... ....|R-- .... ....|--- .... ....
....|..|C-4 AF.F ....|C#5 UFFA ....|--- .... ....
....|..|C#3 2F.A ....|--- .... ....|--- .... ....
....|..|C-5 VF.F ....|--- .... ....|--- .... ....
....|..|R-- .... ....|R-- .... ....|--- .... ....
....|..|C-5 VF.F ....|C#5 UFFF ....|--- .... ....
 C#4|..|C#3 2C.F ....|--- .... ....|--- .... ....
....|..|C-4 AF.F ....|--- .... ....|--- .... ....
....|..|R-- .... ....|R-- .... ....|--- .... ....
....|..|C-4 AF.F ....|C#5 UFFA ....|--- .... ....
....|..|C#3 2F.A ....|--- .... ....|--- .... ....
....|..|C-5 VF.F ....|--- .... ....|--- .... ....
....|..|R-- .... ....|R-- .... ....|--- .... ....
....|..|C-4 AF.F ....|C#5 UFFF ....|--- .... ....
 C#4|..|C#3 2C.F ....|--- .... ....|--- .... ....
....|..|C-4 AF.F ....|--- .... ....|--- .... ....
....|..|R-- .... ....|R-- .... ....|--- .... ....
....|..|C-4 AF.F ....|C#5 UFFA ....|--- .... ....
....|..|C#3 2F.A ....|--- .... ....|--- .... ....
....|..|C-5 VF.F ....|--- .... ....|--- .... ....
....|..|R-- .... ....|R-- .... ....|--- .... ....
....|..|C-5 VF.F ....|C#5 UFFF ....|--- .... ....
 C#4|..|C#3 2C.F ....|--- .... ....|--- .... ....
....|..|C-5 VF.F ....|--- .... ....|--- .... ....
....|..|R-- .... ....|R-- .... ....|--- .... ....

[Pattern38]
....|..|C-4 AF.F ....|C#5 UFFA ....|--- .... ....
....|..|C#3 2F.A ....|--- .... ....|--- .... ....
....|..|C-4 AF.F ....|--- .... ....|--- .... ....
....|..|R-- .... ....|R-- .... ....|--- .... ....
....|..|C-4 AF.F ....|C#5 UFFF ....|--- .... ....
 C#4|..|C#3 2C.F ....|--- .... ....|--- .... ....
....|..|C-5 VF.F ....|--- .... ....|--- .... ....
....|..|R-- .... ....|R-- .... ....|--- .... ....
....|..|C-4 AF.F ....|C#5 UFFA ....|--- .... ....
....|..|C#3 2F.A ....|--- .... ....|--- .... ....
....|..|C-5 VF.F ....|--- .... ....|--- .... ....
....|..|R-- .... ....|R-- .... ....|--- .... ....
....|..|C-5 VF.F ....|C#5 UFFF ....|--- .... ....
 C#4|..|C#3 2C.F ....|--- .... ....|--- .... ....
....|..|C-4 AF.F ....|--- .... ....|--- .... ....
....|..|R-- .... ....|R-- .... ....|--- .... ....
....|..|C-4 AF.F ....|C#5 UFFA ....|--- .... ....
....|..|C#3 2F.A ....|--- .... ....|--- .... ....
....|..|C-5 VF.F ....|--- .... ....|--- .... ....
....|..|R-- .... ....|R-- .... ....|--- .... ....
....|..|C-4 AF.F ....|C#5 UFFF ....|--- .... ....
 C#4|..|C#3 2C.F ....|--- .... ....|--- .... ....
....|..|C-4 AF.F ....|--- .... ....|--- .... ....
....|..|R-- .... ....|R-- .... ....|--- .... ....
....|..|C-4 AF.F ....|C#5 UFFA ....|--- .... ....
....|..|C#3 2F.A ....|--- .... ....|--- .... ....
....|..|C-5 VF.F ....|--- .... ....|--- .... ....
....|..|R-- .... ....|R-- .... ....|--- .... ....
....|..|C-5 VF.F ....|C#5 UFFF ....|--- .... ....
 C#4|..|C#3 2C.F ....|--- .... ....|--- .... ....
....|..|C-5 VF.F ....|--- .... ....|--- .... ....
....|..|R-- .... ....|R-- .... ....|--- .... ....
....|..|C-4 AF.F ....|C#5 UFFA ....|--- .... ....
....|..|C#3 2F.A ....|--- .... ....|--- .... ....
....|..|C-4 AF.F ....|--- .... ....|--- .... ....
....|..|R-- .... ....|R-- .... ....|--- .... ....
....|..|C-4 AF.F ....|C#5 UFFF ....|--- .... ....
 C#4|..|C#3 2C.F ....|--- .... ....|--- .... ....
....|..|C-5 VF.F ....|--- .... ....|--- .... ....
....|..|R-- .... ....|R-- .... ....|--- .... ....
....|..|C-4 AF.F ....|C#5 UFFA ....|--- .... ....
....|..|C#3 2F.A ....|--- .... ....|--- .... ....
....|..|C-5 VF.F ....|--- .... ....|--- .... ....
....|..|R-- .... ....|R-- .... ....|--- .... ....
....|..|C-5 VF.F ....|C#5 UFFF ....|--- .... ....
 C#4|..|C#3 2C.F ....|--- .... ....|--- .... ....
....|..|C-4 AF.F ....|--- .... ....|--- .... ....
....|..|R-- .... ....|R-- .... ....|--- .... ....
....|..|C-4 AF.F ....|C#5 UFFA ....|--- .... ....
....|..|C#3 2F.A ....|--- .... ....|--- .... ....
....|..|C-5 VF.F ....|--- .... ....|--- .... ....
....|..|R-- .... ....|R-- .... ....|--- .... ....
....|..|C-4 AF.F ....|C#5 UFFF ....|--- .... ....
 C#4|..|C#3 2C.F ....|--- .... ....|--- .... ....
....|..|C-4 AF.F ....|--- .... ....|--- .... ....
....|..|R-- .... ....|R-- .... ....|--- .... ....
....|..|C-4 AF.F ....|C#5 UFFA ....|--- .... ....
....|..|C#3 2F.A ....|--- .... ....|--- .... ....
....|..|C-5 VF.F ....|--- .... ....|--- .... ....
....|..|R-- .... ....|R-- .... ....|--- .... ....
....|..|C-5 VF.F ....|C#5 UFFF ....|--- .... ....
 C#4|..|C#3 2C.F ....|--- .... ....|--- .... ....
....|..|C-5 VF.F ....|--- .... ....|--- .... ....
....|..|R-- .... ....|R-- .... ....|--- .... ....

[Pattern39]
....|..|C-4 AF.F ....|C#5 UFFA ....|--- .... ....
 C#4|..|C#3 2C.F ....|--- .... ....|--- .... ....
....|..|C-4 AF.F ....|--- .... ....|--- .... ....
....|..|R-- .... ....|R-- .... ....|--- .... ....
....|..|C-4 AF.F ....|C#5 UFFF ....|--- .... ....
 C#4|..|C#3 2C.F ....|--- .... ....|--- .... ....
....|..|C-5 VF.F ....|--- .... ....|--- .... ....
....|..|R-- .... ....|R-- .... ....|--- .... ....
....|..|C-4 AF.F ....|C#5 UFFA ....|--- .... ....
....|..|C#3 2F.A ....|--- .... ....|--- .... ....
....|..|C-5 VF.F ....|--- .... ....|--- .... ....
....|..|R-- .... ....|R-- .... ....|--- .... ....
....|..|C-5 VF.F ....|C#5 UFFF ....|--- .... ....
 C#4|..|C#3 2C.F ....|--- .... ....|--- .... ....
....|..|C-4 AF.F ....|--- .... ....|--- .... ....
....|..|R-- .... ....|R-- .... ....|--- .... ....
....|..|C-4 AF.F ....|C#5 UFFA ....|--- .... ....
....|..|C#3 2F.A ....|--- .... ....|--- .... ....
....|..|C-5 VF.F ....|--- .... ....|--- .... ....
....|..|R-- .... ....|R-- .... ....|--- .... ....
....|..|C-4 AF.F ....|C#5 UFFF ....|--- .... ....
 C#4|..|C#3 2C.F ....|--- .... ....|--- .... ....
....|..|C-4 AF.F ....|--- .... ....|--- .... ....
....|..|R-- .... ....|R-- .... ....|--- .... ....
....|..|C-4 AF.F ....|C#5 UFFA ....|--- .... ....
....|..|C#3 2F.7 ....|--- .... ....|--- .... ....
....|..|C-5 VF.F ....|--- .... ....|--- .... ....
....|..|R-- .... ....|R-- .... ....|--- .... ....
....|..|C-4 AF.F ....|C#5 UFFF ....|--- .... ....
 C#4|..|C#3 2C.F ....|--- .... ....|--- .... ....
....|..|C-5 VF.F ....|--- .... ....|--- .... ....
....|..|R-- .... ....|R-- .... ....|--- .... ....
....|..|C-4 AF.F ....|C#5 UFFA ....|--- .... ....
....|..|C#3 2F.A ....|--- .... ....|--- .... ....
....|..|C-4 AF.F ....|--- .... ....|--- .... ....
....|..|R-- .... ....|R-- .... ....|--- .... ....
....|..|C-4 AF.F ....|C#5 UFFF ....|--- .... ....
 C#4|..|C#3 2C.F ....|--- .... ....|--- .... ....
....|..|C-5 VF.F ....|--- .... ....|--- .... ....
....|..|R-- .... ....|R-- .... ....|--- .... ....
....|..|C-4 AF.F ....|C#5 UFFA ....|--- .... ....
....|..|C#3 2F.A ....|--- .... ....|--- .... ....
....|..|C-5 VF.F ....|--- .... ....|--- .... ....
....|..|R-- .... ....|R-- .... ....|--- .... ....
....|..|C-5 VF.F ....|C#5 UFFF ....|--- .... ....
 C#4|..|C#3 2C.F ....|--- .... ....|--- .... ....
....|..|C-4 AF.F ....|--- .... ....|--- .... ....
....|..|R-- .... ....|R-- .... ....|--- .... ....
....|..|C-4 AF.F ....|C#5 UFFA ....|--- .... ....
....|..|C#3 2F.A ....|--- .... ....|--- .... ....
....|..|C-5 VF.F ....|--- .... ....|--- .... ....
....|..|R-- .... ....|R-- .... ....|--- .... ....
....|..|C-4 AF.F ....|C#5 UFFF ....|--- .... ....
 C#4|..|C#3 2C.F ....|--- .... ....|--- .... ....
....|..|C-4 AF.F ....|--- .... ....|--- .... ....
....|..|R-- .... ....|R-- .... ....|--- .... ....
....|..|C-4 AF.F ....|C#5 UFFA ....|D#5 2F.F ....
....|..|C#3 2F.A ....|--- .... ....|--- .... ....
....|..|C-5 VF.F ....|--- .... ....|E-5 2F.F ....
....|..|R-- .... ....|R-- .... ....|--- .... ....
....|..|C-4 AF.F ....|C#5 UFFF ....|F#5 2F.F ....
....|..|C-5 VF.F ....|--- .... ....|--- .... ....
....|..|C-5 VF.F ....|--- .... ....|G#5 2F.F ....
....|..|C-5 VF.F ....|R-- .... ....|G#3 2F1F ....

[Pattern40]
....|..|C-4 AF.F ....|C#5 UFFA ....|E-5 2F.F ....
....|..|R-- .... ....|--- .... ....|--- .... ....
....|..|C-5 VF.7 ....|--- .... ....|E-5 2F.F ....
....|..|R-- .... ....|R-- .... ....|--- .... ....
....|..|C-3 RF.F ....|C#5 UFF7 ....|F#5 2F.F ....
 C#4|..|C#3 2C.F ....|--- .... ....|--- .... ....
....|..|C-4 AF.7 ....|--- .... ....|G#5 2F.F ....
....|..|R-- .... ....|R-- .... ....|--- .... ....
....|..|C-4 AF.F ....|C#5 UFFA ....|E-5 2F.F ....
....|..|C-5 VF.A ....|--- .... ....|--- .... ....
....|..|C-5 VF.7 ....|--- .... ....|E-5 2F.F ....
....|..|C-5 VF.A ....|R-- .... ....|G#3 2F1A ....
....|..|C-3 RF.F ....|C#5 UFF7 ....|F#5 2F.F ....
 C#4|..|C#3 2C.F ....|--- .... ....|--- .... ....
....|..|C-4 AF.7 ....|--- .... ....|G#5 2F.F ....
....|..|R-- .... ....|R-- .... ....|--- .... ....
....|..|C-4 AF.F ....|--- .... ....|E-5 2F.F ....
....|..|C#3 2F.A ....|--- .... ....|--- .... ....
....|..|C-5 VF.7 ....|--- .... ....|E-5 2F.F ....
....|..|R-- .... ....|--- .... ....|--- .... ....
....|..|C-3 RF.F ....|C#5 UFF7 ....|F#5 2F.F ....
 C#4|..|C#3 2C.F ....|--- .... ....|--- .... ....
....|..|C-5 VF.7 ....|--- .... ....|G#5 2F.F ....
....|..|C-5 VF.7 ....|R-- .... ....|G#3 2F17 ....
....|..|C-4 AF.F ....|--- .... ....|E-5 2F.F ....
....|..|R-- .... ....|--- .... ....|--- .... ....
....|..|--- .... ....|--- .... ....|E-5 2F.F ....
....|..|R-- .... ....|--- .... ....|--- .... ....
....|..|C-3 RF.F ....|--- .... ....|F#5 2F.F ....
 C#4|..|C#3 2C.F ....|--- .... ....|--- .... ....
....|..|--- .... ....|--- .... ....|G#5 2F.F ....
....|..|R-- .... ....|--- .... ....|G#3 2F2F ....
....|..|C-4 AF.F ....|--- .... ....|E-5 2F.F ....
....|..|C#3 2F.A ....|--- .... ....|--- .... ....
....|..|--- .... ....|--- .... ....|E-5 2F.F ....
....|..|R-- .... ....|--- .... ....|--- .... ....
....|..|C-3 RF.F ....|--- .... ....|F#5 2F.F ....
 C#4|..|C#3 2C.F ....|--- .... ....|--- .... ....
....|..|--- .... ....|--- .... ....|G#5 2F.F ....
....|..|R-- .... ....|--- .... ....|--- .... ....
....|..|C-4 AF.F ....|--- .... ....|D#5 2F.F ....
....|..|C#3 2F.A ....|--- .... ....|--- .... ....
....|..|--- .... ....|--- .... ....|E-5 2F.F ....
....|..|R-- .... ....|--- .... ....|G#3 2F2A ....
....|..|C-3 RF.F ....|--- .... ....|G#4 2F.F ....
 C#4|..|C#3 2C.F ....|--- .... ....|F#5 2F.F ....
....|..|--- .... ....|--- .... ....|G#5 2F.F ....
....|..|R-- .... ....|--- .... ....|--- .... ....
....|..|C-4 AF.F ....|--- .... ....|E-5 2F.F ....
....|..|C#3 2F.A ....|--- .... ....|--- .... ....
....|..|--- .... ....|--- .... ....|E-5 2F.7 ....
....|..|R-- .... ....|--- .... ....|--- .... ....
....|..|C-3 RF.F ....|--- .... ....|G#4 2F.F ....
 C#4|..|C#3 2C.F ....|--- .... ....|--- .... ....
....|..|--- .... ....|--- .... ....|G#5 2F.7 ....
....|..|R-- .... ....|--- .... ....|G#3 2F27 ....
....|..|C-4 AF.F ....|--- .... ....|D#5 2F.F ....
....|..|C#3 2F.A ....|--- .... ....|F#5 2F.A ....
....|..|--- .... ....|--- .... ....|E-5 2F.F ....
....|..|R-- .... ....|--- .... ....|--- .... ....
....|..|C-3 RF.F ....|--- .... ....|F#5 2F.F ....
 C#4|..|C#3 2C.F ....|--- .... ....|--- .... ....
....|..|C-4 LF.F ....|--- .... ....|G#5 2F.F ....
....|..|R-- .... ....|--- .... ....|G#5 2F.F ....

[Pattern44]
....|..|C-4 AF.F ....|C#4 UFFA ....|E-5 2F.F ....
....|..|F#2 2F.A ....|R-- .... ....|--- .... ....
....|..|--- .... ....|--- .... ....|E-5 2F.F ....
....|..|R-- .... ....|--- .... ....|--- .... ....
....|..|C-3 RF.F ....|F#4 UFF7 ....|F#5 2F.F ....
 C#4|..|C#3 2C.F ....|--- .... ....|--- .... ....
....|..|C-4 LF.A ....|--- .... ....|G#5 2F.F ....
....|..|R-- .... ....|--- .... ....|R-- .... ....
....|..|C-4 AF.F ....|C#4 UFFA ....|E-5 2F.F ....
....|..|F#2 2F.A ....|--- .... ....|--- .... ....
....|..|--- .... ....|--- .... ....|E-5 2F.F ....
....|..|R-- .... ....|R-- .... ....|G#3 2F1A ....
....|..|C-3 RF.F ....|C#4 UFF7 ....|F#5 2F.F ....
 C#4|..|C#3 2C.F ....|--- .... ....|--- .... ....
....|..|--- .... ....|--- .... ....|G#5 2F.F ....
....|..|R-- .... ....|--- .... ....|R-- .... ....
....|..|C-4 AF.F ....|--- .... ....|E-5 2F.F ....
....|..|C#3 2F.A ....|--- .... ....|--- .... ....
....|..|C-4 LF.7 ....|--- .... ....|E-5 2F.F ....
....|..|R-- .... ....|--- .... ....|R-- .... ....
....|..|C-3 RF.F ....|C#4 UFF7 ....|F#5 2F.F ....
 C#4|..|C#3 2C.F ....|--- .... ....|--- .... ....
....|..|C-5 VF.F ....|--- .... ....|G#5 2F.F ....
....|..|R-- .... ....|R-- .... ....|G#3 2F17 ....
....|..|C-4 AF.F ....|--- .... ....|E-5 2F.F ....
....|..|C#3 2F.A ....|--- .... ....|--- .... ....
....|..|--- .... ....|--- .... ....|E-5 2F.F ....
....|..|R-- .... ....|--- .... ....|R-- .... ....
....|..|C-3 RF.F ....|--- .... ....|F#5 2F.F ....
 C#4|..|C#3 2C.F ....|--- .... ....|--- .... ....
....|..|--- .... ....|--- .... ....|G#5 2F.F ....
....|..|R-- .... ....|--- .... ....|G#3 2F2F ....
....|..|C-4 AF.F ....|--- .... ....|E-5 2F.F ....
....|..|C#3 2F.A ....|--- .... ....|--- .... ....
....|..|C-5 VF.A ....|--- .... ....|E-5 2F.F ....
....|..|R-- .... ....|R-- .... ....|R-- .... ....
....|..|C-3 RF.F ....|--- .... ....|F#5 2F.F ....
 C#4|..|C#3 2C.F ....|--- .... ....|--- .... ....
....|..|--- .... ....|--- .... ....|G#5 2F.F ....
....|..|R-- .... ....|--- .... ....|R-- .... ....
....|..|C-4 AF.F ....|--- .... ....|D#5 2F.F ....
....|..|C#3 2F.A ....|--- .... ....|--- .... ....
....|..|--- .... ....|--- .... ....|E-5 2F.F ....
....|..|R-- .... ....|--- .... ....|G#3 2F2A ....
....|..|C-3 RF.F ....|--- .... ....|G#4 2F.F ....
 C#4|..|C#3 2C.F ....|--- .... ....|F#5 2F.F ....
....|..|C-5 VF.7 ....|--- .... ....|G#5 2F.F ....
....|..|R-- .... ....|--- .... ....|R-- .... ....
....|..|C-4 AF.F ....|--- .... ....|E-5 2F.F ....
....|..|C#3 2F.A ....|--- .... ....|--- .... ....
....|..|--- .... ....|--- .... ....|E-5 2F.7 ....
....|..|R-- .... ....|--- .... ....|R-- .... ....
....|..|C-3 RF.F ....|--- .... ....|G#4 2F.F ....
 C#4|..|C#3 2C.F ....|--- .... ....|--- .... ....
....|..|C-5 VF.F ....|--- .... ....|G#5 2F.7 ....
....|..|R-- .... ....|--- .... ....|G#3 2F27 ....
....|..|C-4 AF.F ....|--- .... ....|D#5 2F.F ....
....|..|C#3 2F.A ....|--- .... ....|F#5 2F.A ....
....|..|--- .... ....|--- .... ....|E-5 2F.F ....
....|..|R-- .... ....|--- .... ....|R-- .... ....
....|..|C-3 RF.F ....|--- .... ....|F#5 2F.F ....
 C#4|..|C#3 2C.F ....|--- .... ....|--- .... ....
....|..|C-4 LF.F ....|--- .... ....|G#5 2F.F ....
....|..|R-- .... ....|--- .... ....|G#5 2F.F ....

[Pattern45]
....|..|C-4 AF.F ....|--- .... ....|D#5 2F.F ....
....|..|C#3 2F.A ....|--- .... ....|--- .... ....
....|..|C-5 VF.A ....|--- .... ....|E-5 2F.F ....
....|..|R-- .... ....|--- .... ....|R-- .... ....
....|..|C-3 RF.F ....|--- .... ....|F#5 2F.F ....
 A-3|..|A-2 2C.F ....|--- .... ....|F#5 2F.7 ....
....|..|--- .... ....|--- .... ....|G#5 2F.F ....
....|..|R-- .... ....|--- .... ....|G#5 2F.F ....
....|..|C-4 AF.F ....|--- .... ....|D#5 2F.F ....
....|..|C#3 2F.A ....|--- .... ....|--- .... ....
....|..|C-4 LF.A ....|--- .... ....|E-5 2F.F ....
....|..|R-- .... ....|--- .... ....|G#5 2F.A ....
....|..|C-3 RF.F ....|--- .... ....|F#5 2F.F ....
 A-3|..|A-2 2C.F ....|--- .... ....|F#5 2F.F ....
....|..|C-5 VF.7 ....|--- .... ....|G#5 2F.F ....
....|..|R-- .... ....|--- .... ....|G#5 2F.F ....
....|..|C-4 AF.F ....|--- .... ....|D#5 2F.F ....
....|..|A-2 2F.A ....|--- .... ....|--- .... ....
....|..|--- .... ....|--- .... ....|E-5 2F.F ....
....|..|R-- .... ....|--- .... ....|G#5 2F.A ....
....|..|C-3 RF.F ....|--- .... ....|F#5 2F.F ....
 A-3|..|A-2 2C.F ....|--- .... ....|--- .... ....
....|..|C-5 VF.F ....|--- .... ....|G#5 2F.F ....
....|..|R-- .... ....|--- .... ....|G#5 2F.7 ....
....|..|C-4 AF.F ....|--- .... ....|D#5 2F.F ....
....|..|A-2 2F.A ....|--- .... ....|F#5 2F.A ....
....|..|--- .... ....|--- .... ....|E-5 2F.F ....
....|..|R-- .... ....|--- .... ....|G#5 2F.A ....
....|..|C-3 RF.F ....|--- .... ....|F#5 2F.F ....
 A-3|..|A-2 2C.F ....|--- .... ....|--- .... ....
....|..|--- .... ....|--- .... ....|G#5 2F.F ....
....|..|R-- .... ....|--- .... ....|A-3 2F4F ....
....|..|C-4 AF.F ....|--- .... ....|D#5 2F.F ....
....|..|A-2 2F.A ....|--- .... ....|--- .... ....
....|..|C-5 VF.A ....|--- .... ....|E-5 2F.F ....
....|..|R-- .... ....|--- .... ....|R-- .... ....
....|..|C-3 RF.F ....|--- .... ....|F#5 2F.F ....
 F#4|..|F#2 2A.F ....|--- .... ....|F#5 2F.7 ....
....|..|--- .... ....|--- .... ....|G#5 2F.F ....
....|..|R-- .... ....|--- .... ....|G#5 2F.7 ....
....|..|C-4 AF.F ....|--- .... ....|D#5 2F.F ....
....|..|A-2 2F.A ....|--- .... ....|--- .... ....
....|..|--- .... ....|--- .... ....|E-5 2F.F ....
....|..|R-- .... ....|--- .... ....|A-3 2F4A ....
....|..|C-3 RF.F ....|--- .... ....|F#5 2F.F ....
 F#4|..|F#2 2A.F ....|--- .... ....|--- .... ....
....|..|C-5 VF.7 ....|--- .... ....|G#5 2F.F ....
....|..|R-- .... ....|--- .... ....|R-- .... ....
....|..|C-4 AF.F ....|--- .... ....|C#5 2F.F ....
....|..|F#2 2F.A ....|--- .... ....|--- .... ....
....|..|--- .... ....|--- .... ....|E-5 2F.7 ....
....|..|R-- .... ....|--- .... ....|R-- .... ....
....|..|C-3 RF.F ....|--- .... ....|A-3 2F4F ....
 F#4|..|F#2 2A.F ....|--- .... ....|--- .... ....
....|..|C-5 VF.F ....|--- .... ....|G#5 2F.7 ....
....|..|R-- .... ....|--- .... ....|A-3 2F47 ....
....|..|C-4 AF.F ....|--- .... ....|D#5 2F.F ....
....|..|F#2 2F.A ....|--- .... ....|--- .... ....
....|..|--- .... ....|--- .... ....|E-5 2F.F ....
....|..|R-- .... ....|--- .... ....|R-- .... ....
....|..|C-3 RF.F ....|--- .... ....|F#5 2F.F ....
 F#4|..|F#2 2A.F ....|--- .... ....|--- .... ....
....|..|--- .... ....|--- .... ....|G#5 2F.F ....
....|..|R-- .... ....|--- .... ....|G#3 2F1F ....

[Pattern46]
....|..|C-4 AF.F ....|--- .... ....|E-5 2F.F ....
....|..|F#2 2F.A ....|--- .... ....|--- .... ....
....|..|C-5 VF.A ....|--- .... ....|E-5 2F.F ....
....|..|R-- .... ....|--- .... ....|R-- .... ....
....|..|C-3 RF.F ....|--- .... ....|F#5 2F.F ....
 C#4|..|C#3 2C.F ....|--- .... ....|--- .... ....
....|..|--- .... ....|--- .... ....|G#5 2F.F ....
....|..|R-- .... ....|--- .... ....|R-- .... ....
....|..|C-4 AF.F ....|--- .... ....|E-5 2F.F ....
....|..|F#2 2F.A ....|--- .... ....|--- .... ....
....|..|--- .... ....|--- .... ....|E-5 2F.F ....
....|..|R-- .... ....|--- .... ....|G#3 2F1A ....
....|..|C-3 RF.F ....|--- .... ....|F#5 2F.F ....
 C#4|..|C#3 2C.F ....|--- .... ....|--- .... ....
....|..|C-5 VF.7 ....|--- .... ....|G#5 2F.F ....
....|..|R-- .... ....|--- .... ....|R-- .... ....
....|..|C-4 AF.F ....|--- .... ....|E-5 2F.F ....
....|..|C#3 2F.A ....|--- .... ....|--- .... ....
....|..|--- .... ....|--- .... ....|E-5 2F.F ....
....|..|R-- .... ....|--- .... ....|R-- .... ....
....|..|C-3 RF.F ....|--- .... ....|F#5 2F.F ....
 C#4|..|C#3 2C.F ....|--- .... ....|--- .... ....
....|..|C-5 VF.F ....|--- .... ....|G#5 2F.F ....
....|..|R-- .... ....|--- .... ....|G#3 2F17 ....
....|..|C-4 AF.F ....|--- .... ....|E-5 2F.F ....
....|..|C#3 2F.A ....|--- .... ....|--- .... ....
....|..|--- .... ....|--- .... ....|E-5 2F.F ....
....|..|R-- .... ....|--- .... ....|R-- .... ....
....|..|C-3 RF.F ....|--- .... ....|F#5 2F.F ....
 C#4|..|C#3 2C.F ....|--- .... ....|--- .... ....
....|..|--- .... ....|--- .... ....|G#5 2F.F ....
....|..|R-- .... ....|--- .... ....|G#3 2F2F ....
....|..|C-4 AF.F ....|--- .... ....|E-5 2F.F ....
....|..|C#3 2F.A ....|--- .... ....|--- .... ....
....|..|C-5 VF.A ....|--- .... ....|E-5 2F.F ....
....|..|R-- .... ....|--- .... ....|R-- .... ....
....|..|C-3 RF.F ....|--- .... ....|F#5 2F.F ....
 C#4|..|C#3 2C.F ....|--- .... ....|--- .... ....
....|..|--- .... ....|--- .... ....|G#5 2F.F ....
....|..|R-- .... ....|--- .... ....|R-- .... ....
....|..|C-4 AF.F ....|--- .... ....|D#5 2F.F ....
....|..|C#3 2F.A ....|--- .... ....|--- .... ....
....|..|--- .... ....|--- .... ....|E-5 2F.F ....
....|..|R-- .... ....|--- .... ....|G#3 2F2A ....
....|..|C-3 RF.F ....|--- .... ....|G#4 2F.F ....
 C#4|..|C#3 2C.F ....|--- .... ....|F#5 2F.F ....
....|..|C-5 VF.7 ....|--- .... ....|G#5 2F.F ....
....|..|R-- .... ....|--- .... ....|R-- .... ....
....|..|C-4 AF.F ....|--- .... ....|E-5 2F.F ....
....|..|C#3 2F.A ....|--- .... ....|--- .... ....
....|..|--- .... ....|--- .... ....|E-5 2F.7 ....
....|..|R-- .... ....|--- .... ....|R-- .... ....
....|..|C-3 RF.F ....|--- .... ....|G#4 2F.F ....
 C#4|..|C#3 2C.F ....|--- .... ....|--- .... ....
....|..|C-5 VF.F ....|--- .... ....|G#5 2F.7 ....
....|..|R-- .... ....|--- .... ....|G#3 2F27 ....
....|..|C-4 AF.F ....|--- .... ....|D#5 2F.F ....
....|..|C#3 2F.A ....|--- .... ....|F#5 2F.A ....
....|..|--- .... ....|--- .... ....|A-4 2F.F ....
....|..|R-- .... ....|--- .... ....|R-- .... ....
....|..|C-3 RF.F ....|--- .... ....|B-4 2F.F ....
 C#4|..|C#3 2C.F ....|--- .... ....|--- .... ....
....|..|--- .... ....|--- .... ....|G#4 2F.F ....
....|..|R-- .... ....|--- .... ....|E-3 2F2F ....

[Pattern47]
....|..|C-4 AF.F ....|--- .... ....|D#5 2F.F ....
....|..|C#3 2F.A ....|--- .... ....|--- .... ....
....|..|C-5 VF.A ....|--- .... ....|C#5 2F.F ....
....|..|R-- .... ....|--- .... ....|A-4 2F.F ....
....|..|C-3 RF.F ....|--- .... ....|B-4 2F.F ....
 A-3|..|A-2 2C.F ....|--- .... ....|F#5 2F.7 ....
....|..|--- .... ....|--- .... ....|G#4 2F.F ....
....|..|R-- .... ....|--- .... ....|R-- .... ....
....|..|C-4 AF.F ....|--- .... ....|D#5 2F.F ....
....|..|C#3 2F.A ....|--- .... ....|--- .... ....
....|..|--- .... ....|--- .... ....|C#5 2F.F ....
....|..|R-- .... ....|--- .... ....|A-4 2F.F ....
....|..|C-3 RF.F ....|--- .... ....|B-4 2F.F ....
 A-3|..|A-2 2C.F ....|--- .... ....|B-4 2F.F ....
....|..|C-5 VF.7 ....|--- .... ....|G#4 2F.F ....
....|..|R-- .... ....|--- .... ....|R-- .... ....
....|..|C-4 AF.F ....|--- .... ....|C#5 2F.F ....
....|..|A-2 2F.A ....|--- .... ....|--- .... ....
....|..|--- .... ....|--- .... ....|C#5 2F.F ....
....|..|R-- .... ....|--- .... ....|A-4 2F.F ....
....|..|C-3 RF.F ....|--- .... ....|B-4 2F.F ....
 A-3|..|A-2 2C.F ....|--- .... ....|--- .... ....
....|..|C-5 VF.F ....|--- .... ....|G#4 2F.7 ....
....|..|R-- .... ....|--- .... ....|E-3 2F27 ....
....|..|C-4 AF.F ....|--- .... ....|C#5 2F.F ....
....|..|A-2 2F.A ....|--- .... ....|B-4 2F.A ....
....|..|--- .... ....|--- .... ....|C#5 2F.F ....
....|..|R-- .... ....|--- .... ....|A-4 2F.F ....
....|..|C-3 RF.F ....|--- .... ....|B-4 2F.F ....
 A-3|..|A-2 2C.F ....|--- .... ....|--- .... ....
....|..|--- .... ....|--- .... ....|G#4 2F.7 ....
....|..|R-- .... ....|--- .... ....|F#3 2F5F ....
....|..|C-4 AF.F ....|--- .... ....|C#5 2F.F ....
....|..|A-2 2F.A ....|--- .... ....|--- .... ....
....|..|C-5 VF.A ....|--- .... ....|C#5 2F.7 ....
....|..|R-- .... ....|--- .... ....|A-4 2F.7 ....
....|..|C-3 RF.F ....|--- .... ....|F#3 2F5F ....
 F#4|..|F#2 2A.F ....|--- .... ....|B-4 2F.7 ....
....|..|--- .... ....|--- .... ....|G#4 2F.7 ....
....|..|R-- .... ....|--- .... ....|R-- .... ....
....|..|C-4 AF.F ....|--- .... ....|C#5 2F.7 ....
....|..|A-2 2F.A ....|--- .... ....|--- .... ....
....|..|--- .... ....|--- .... ....|C#5 2F.7 ....
....|..|R-- .... ....|--- .... ....|A-4 2F.7 ....
....|..|C-3 RF.F ....|--- .... ....|F#3 2F5F ....
 F#4|..|F#2 2A.F ....|--- .... ....|--- .... ....
....|..|C-5 VF.7 ....|--- .... ....|R-- .... ....
....|..|R-- .... ....|--- .... ....|R-- .... ....
....|..|C-4 AF.F ....|--- .... ....|C#5 2F.7 ....
....|..|F#2 2F.A ....|--- .... ....|--- .... ....
....|..|--- .... ....|--- .... ....|C#5 2F.7 ....
....|..|R-- .... ....|--- .... ....|A-4 2F.7 ....
....|..|C-3 RF.F ....|--- .... ....|F#3 2F5F ....
 F#4|..|F#2 2A.F ....|--- .... ....|--- .... ....
....|..|C-5 VF.F ....|--- .... ....|R-- .... ....
....|..|R-- .... ....|--- .... ....|F#3 2F57 ....
....|..|C-4 AF.F ....|--- .... ....|C#5 2F.7 ....
....|..|F#2 2F.A ....|--- .... ....|--- .... ....
....|..|--- .... ....|--- .... ....|--- .... ....
....|..|R-- .... ....|--- .... ....|R-- .... ....
....|..|C-4 AF.F ....|--- .... ....|F#3 2F5F ....
 F#4|..|F#2 2A.F ....|--- .... ....|--- .... ....
....|..|--- .... ....|--- .... ....|--- .... ....
....|..|R-- .... ....|--- .... ....|R-- .... ....

[Pattern48]
....|..|B-8 JF.F ....|--- .... ....|F#3 2F5A ....
....|..|F#2 2F.A ....|--- .... ....|--- .... ....
....|..|C-5 VF.A ....|--- .... ....|--- .... ....
....|..|R-- .... ....|--- .... ....|R-- .... ....
....|..|C-3 RF.7 ....|--- .... ....|F#3 2F57 ....
....|..|F#2 2F.7 ....|--- .... ....|--- .... ....
....|..|--- .... ....|--- .... ....|--- .... ....
....|..|R-- .... ....|--- .... ....|R-- .... ....
....|..|C-4 AF.7 ....|--- .... ....|F#3 2F5A ....
....|..|F#2 2F.A ....|--- .... ....|--- .... ....
....|..|--- .... ....|--- .... ....|--- .... ....
....|..|R-- .... ....|--- .... ....|R-- .... ....
....|..|C-3 RF.7 ....|--- .... ....|F#3 2F57 ....
....|..|F#2 2F.7 ....|--- .... ....|--- .... ....
....|..|C-5 VF.7 ....|--- .... ....|--- .... ....
....|..|R-- .... ....|--- .... ....|R-- .... ....
....|..|C-4 AF.7 ....|--- .... ....|--- .... ....
....|..|--- .... ....|--- .... ....|--- .... ....
....|..|--- .... ....|--- .... ....|--- .... ....
....|..|--- .... ....|--- .... ....|--- .... ....
....|..|C-4 AF.7 ....|--- .... ....|F#3 2F57 ....
....|..|F#2 2F.7 ....|--- .... ....|--- .... ....
....|..|--- .... ....|--- .... ....|--- .... ....
....|..|R-- .... ....|--- .... ....|R-- .... ....
....|..|B-8 JF.7 ....|--- .... ....|--- .... ....
....|..|--- .... ....|--- .... ....|--- .... ....
....|..|--- .... ....|--- .... ....|--- .... ....
....|..|--- .... ....|--- .... ....|--- .... ....
....|..|--- .... ....|--- .... ....|--- .... ....
....|..|--- .... ....|--- .... ....|--- .... ....
....|..|--- .... ....|--- .... ....|--- .... ....
....|..|--- .... ....|--- .... ....|--- .... ....
....|..|--- .... ....|--- .... ....|--- .... ....
....|..|--- .... ....|--- .... ....|--- .... ....
....|..|--- .... ....|--- .... ....|--- .... ....
....|..|--- .... ....|--- .... ....|--- .... ....
....|..|--- .... ....|--- .... ....|--- .... ....
....|..|--- .... ....|--- .... ....|--- .... ....
....|..|--- .... ....|--- .... ....|--- .... ....
....|..|--- .... ....|--- .... ....|--- .... ....
....|..|--- .... ....|G#3 UFFF ....|--- .... ....
....|..|--- .... ....|--- .... ....|--- .... ....
....|..|--- .... ....|--- .... ....|--- .... ....
....|..|--- .... ....|--- .... ....|--- .... ....
....|..|--- .... ....|G#3 UFFF ....|--- .... ....
....|..|--- .... ....|--- .... ....|--- .... ....
....|..|--- .... ....|--- .... ....|--- .... ....
....|..|--- .... ....|--- .... ....|--- .... ....
....|..|--- .... ....|D#4 UFFF ....|--- .... ....
....|..|--- .... ....|--- .... ....|--- .... ....
....|..|--- .... ....|--- .... ....|--- .... ....
....|..|--- .... ....|--- .... ....|--- .... ....
....|..|--- .... ....|E-4 UFFF ....|--- .... ....
....|..|--- .... ....|--- .... ....|--- .... ....
....|..|--- .... ....|--- .... ....|--- .... ....
....|..|--- .... ....|--- .... ....|--- .... ....
....|..|--- .... ....|D#4 UFFF ....|--- .... ....
....|..|--- .... ....|--- .... ....|--- .... ....
....|..|--- .... ....|--- .... ....|--- .... ....
....|..|--- .... ....|--- .... ....|--- .... ....
....|..|--- .... ....|C#4 UFFF ....|--- .... ....
....|..|--- .... ....|--- .... ....|--- .... ....
....|..|--- .... ....|--- .... ....|--- .... ....
....|..|--- .... ....|R-- .... ....|G#3 2F1F ....

[Pattern49]
....|..|--- .... ....|G#3 UFFF ....|--- .... ....
....|..|--- .... ....|--- .... ....|--- .... ....
....|..|--- .... ....|--- .... ....|--- .... ....
....|..|--- .... ....|--- .... ....|--- .... ....
....|..|--- .... ....|G#3 UFF7 ....|--- .... ....
....|..|--- .... ....|--- .... ....|--- .... ....
....|..|--- .... ....|--- .... ....|--- .... ....
....|..|--- .... ....|--- .... ....|--- .... ....
....|..|--- .... ....|D#4 UFF7 ....|--- .... ....
....|..|--- .... ....|--- .... ....|--- .... ....
....|..|--- .... ....|R-- .... ....|--- .... ....
....|..|--- .... ....|R-- .... ....|G#3 2F1A ....
....|..|--- .... ....|E-4 UFF7 ....|--- .... ....
....|..|--- .... ....|--- .... ....|--- .... ....
....|..|--- .... ....|--- .... ....|--- .... ....
....|..|--- .... ....|--- .... ....|--- .... ....
....|..|--- .... ....|D#4 UFF7 ....|--- .... ....
....|..|--- .... ....|--- .... ....|--- .... ....
....|..|--- .... ....|--- .... ....|--- .... ....
....|..|--- .... ....|--- .... ....|--- .... ....
....|..|--- .... ....|C#4 UFF7 ....|--- .... ....
....|..|--- .... ....|--- .... ....|--- .... ....
....|..|--- .... ....|R-- .... ....|--- .... ....
....|..|--- .... ....|R-- .... ....|G#3 2F17 ....
....|..|--- .... ....|G#3 UFF7 ....|--- .... ....
....|..|--- .... ....|--- .... ....|--- .... ....
....|..|--- .... ....|--- .... ....|--- .... ....
....|..|--- .... ....|--- .... ....|--- .... ....
....|..|--- .... ....|--- .... ....|--- .... ....
....|..|--- .... ....|--- .... ....|--- .... ....
....|..|--- .... ....|--- .... ....|--- .... ....
....|..|--- .... ....|--- .... ....|G#3 2F2F ....
....|..|--- .... ....|--- .... ....|--- .... ....
....|..|--- .... ....|--- .... ....|--- .... ....
....|..|--- .... ....|R-- .... ....|--- .... ....
....|..|--- .... ....|--- .... ....|--- .... ....
....|..|--- .... ....|--- .... ....|--- .... ....
....|..|--- .... ....|--- .... ....|--- .... ....
....|..|--- .... ....|--- .... ....|--- .... ....
....|..|--- .... ....|--- .... ....|--- .... ....
....|..|--- .... ....|G#3 UFFF ....|--- .... ....
....|..|--- .... ....|--- .... ....|--- .... ....
....|..|--- .... ....|--- .... ....|--- .... ....
....|..|--- .... ....|--- .... ....|G#3 2F2A ....
....|..|--- .... ....|G#3 UFFF ....|--- .... ....
....|..|--- .... ....|--- .... ....|--- .... ....
....|..|--- .... ....|--- .... ....|--- .... ....
....|..|--- .... ....|R-- .... ....|--- .... ....
....|..|--- .... ....|D#4 UFFF ....|--- .... ....
....|..|--- .... ....|--- .... ....|--- .... ....
....|..|--- .... ....|--- .... ....|--- .... ....
....|..|--- .... ....|--- .... ....|--- .... ....
....|..|--- .... ....|E-4 UFFF ....|--- .... ....
....|..|--- .... ....|--- .... ....|--- .... ....
....|..|--- .... ....|--- .... ....|--- .... ....
....|..|--- .... ....|--- .... ....|G#3 2F27 ....
....|..|--- .... ....|D#4 UFFF ....|--- .... ....
....|..|--- .... ....|--- .... ....|--- .... ....
....|..|--- .... ....|--- .... ....|--- .... ....
....|..|--- .... ....|R-- .... ....|--- .... ....
....|..|--- .... ....|C#4 UFFF ....|--- .... ....
....|..|--- .... ....|--- .... ....|R-- .... ....
....|..|--- .... ....|--- .... ....|--- .... ....
....|..|--- .... ....|R-- .... ....|A-3 2F6F ....

[Pattern50]
....|..|--- .... ....|A-3 UFFF ....|--- .... ....
....|..|--- .... ....|--- .... ....|--- .... ....
....|..|--- .... ....|--- .... ....|--- .... ....
....|..|--- .... ....|--- .... ....|--- .... ....
....|..|--- .... ....|G#3 UFF7 ....|--- .... ....
....|..|--- .... ....|--- .... ....|--- .... ....
....|..|--- .... ....|--- .... ....|--- .... ....
....|..|--- .... ....|R-- .... ....|--- .... ....
....|..|--- .... ....|D#4 UFF7 ....|--- .... ....
....|..|--- .... ....|--- .... ....|R-- .... ....
....|..|--- .... ....|--- .... ....|--- .... ....
....|..|--- .... ....|R-- .... ....|A-3 2F6A ....
....|..|--- .... ....|E-4 UFF7 ....|--- .... ....
....|..|--- .... ....|--- .... ....|--- .... ....
....|..|--- .... ....|--- .... ....|--- .... ....
....|..|--- .... ....|--- .... ....|--- .... ....
....|..|--- .... ....|D#4 UFF7 ....|--- .... ....
....|..|--- .... ....|--- .... ....|--- .... ....
....|..|--- .... ....|--- .... ....|--- .... ....
....|..|--- .... ....|--- .... ....|--- .... ....
....|..|--- .... ....|C#4 UFF7 ....|--- .... ....
....|..|--- .... ....|--- .... ....|R-- .... ....
....|..|--- .... ....|--- .... ....|--- .... ....
....|..|--- .... ....|R-- .... ....|A-3 2F67 ....
....|..|--- .... ....|B-3 UFFF ....|--- .... ....
....|..|--- .... ....|--- .... ....|--- .... ....
....|..|--- .... ....|--- .... ....|--- .... ....
....|..|--- .... ....|--- .... ....|--- .... ....
....|..|--- .... ....|G#3 UFFF ....|--- .... ....
....|..|--- .... ....|--- .... ....|--- .... ....
....|..|--- .... ....|--- .... ....|--- .... ....
....|..|--- .... ....|--- .... ....|A-3 2F4F ....
....|..|--- .... ....|R-- .... ....|--- .... ....
....|..|--- .... ....|R-- .... ....|--- .... ....
....|..|--- .... ....|--- .... ....|--- .... ....
....|..|--- .... ....|--- .... ....|--- .... ....
....|..|--- .... ....|G#3 UFFF ....|--- .... ....
....|..|--- .... ....|--- .... ....|--- .... ....
....|..|--- .... ....|--- .... ....|--- .... ....
....|..|--- .... ....|R-- .... ....|--- .... ....
....|..|--- .... ....|G#3 UFFF ....|--- .... ....
....|..|--- .... ....|--- .... ....|--- .... ....
....|..|--- .... ....|--- .... ....|--- .... ....
....|..|--- .... ....|R-- .... ....|A-3 2F4A ....
....|..|--- .... ....|G#3 UFFF ....|--- .... ....
....|..|--- .... ....|R-- .... ....|--- .... ....
....|..|--- .... ....|--- .... ....|--- .... ....
....|..|--- .... ....|R-- .... ....|--- .... ....
....|..|--- .... ....|D#4 UFFF ....|--- .... ....
....|..|--- .... ....|--- .... ....|--- .... ....
....|..|--- .... ....|--- .... ....|--- .... ....
....|..|--- .... ....|R-- .... ....|--- .... ....
....|..|--- .... ....|E-4 UFFF ....|--- .... ....
....|..|--- .... ....|--- .... ....|--- .... ....
....|..|--- .... ....|--- .... ....|--- .... ....
....|..|--- .... ....|R-- .... ....|A-3 2F47 ....
....|..|--- .... ....|D#4 UFFF ....|--- .... ....
....|..|--- .... ....|R-- .... ....|--- .... ....
....|..|--- .... ....|--- .... ....|--- .... ....
....|..|--- .... ....|R-- .... ....|--- .... ....
....|..|--- .... ....|C#4 UFFF ....|--- .... ....
....|..|--- .... ....|--- .... ....|--- .... ....
....|..|--- .... ....|--- .... ....|--- .... ....
....|..|--- .... ....|R-- .... ....|G#3 2F1F ....

[Pattern51]
....|..|C-4 AF.F ....|G#3 UFFF ....|--- .... ....
....|..|--- .... ....|--- .... ....|--- .... ....
....|..|--- .... ....|--- .... ....|--- .... ....
....|..|--- .... ....|R-- .... ....|--- .... ....
....|..|--- .... ....|G#3 UFF7 ....|--- .... ....
....|..|--- .... ....|--- .... ....|--- .... ....
....|..|--- .... ....|--- .... ....|--- .... ....
....|..|--- .... ....|R-- .... ....|--- .... ....
....|..|C-4 AF.F ....|D#4 UFF7 ....|--- .... ....
....|..|--- .... ....|--- .... ....|--- .... ....
....|..|--- .... ....|R-- .... ....|--- .... ....
....|..|--- .... ....|R-- .... ....|G#3 2F1A ....
....|..|C-4 AF.A ....|E-4 UFF7 ....|--- .... ....
....|..|--- .... ....|--- .... ....|--- .... ....
....|..|--- .... ....|--- .... ....|--- .... ....
....|..|--- .... ....|--- .... ....|--- .... ....
....|..|C-4 AF.F ....|D#4 UFF7 ....|--- .... ....
....|..|--- .... ....|--- .... ....|--- .... ....
....|..|--- .... ....|--- .... ....|--- .... ....
....|..|--- .... ....|--- .... ....|--- .... ....
....|..|C-4 AF.A ....|C#4 UFF7 ....|--- .... ....
....|..|--- .... ....|--- .... ....|--- .... ....
....|..|--- .... ....|R-- .... ....|--- .... ....
....|..|--- .... ....|R-- .... ....|G#3 2F17 ....
....|..|C-4 AF.F ....|G#3 UFF7 ....|--- .... ....
....|..|--- .... ....|--- .... ....|--- .... ....
....|..|--- .... ....|--- .... ....|--- .... ....
....|..|--- .... ....|--- .... ....|--- .... ....
....|..|C-4 AF.A ....|--- .... ....|--- .... ....
....|..|--- .... ....|--- .... ....|--- .... ....
....|..|--- .... ....|--- .... ....|--- .... ....
....|..|--- .... ....|--- .... ....|G#3 2F2F ....
....|..|C-4 AF.F ....|--- .... ....|--- .... ....
....|..|--- .... ....|--- .... ....|--- .... ....
....|..|--- .... ....|R-- .... ....|--- .... ....
....|..|--- .... ....|--- .... ....|--- .... ....
....|..|C-4 AF.A ....|--- .... ....|--- .... ....
....|..|--- .... ....|--- .... ....|--- .... ....
....|..|--- .... ....|--- .... ....|--- .... ....
....|..|--- .... ....|--- .... ....|--- .... ....
....|..|C-4 AF.F ....|G#3 UFFF ....|--- .... ....
....|..|--- .... ....|--- .... ....|--- .... ....
....|..|--- .... ....|--- .... ....|--- .... ....
....|..|--- .... ....|R-- .... ....|G#3 2F2A ....
....|..|C-4 AF.A ....|G#3 UFFF ....|--- .... ....
....|..|--- .... ....|--- .... ....|--- .... ....
....|..|--- .... ....|--- .... ....|--- .... ....
....|..|--- .... ....|R-- .... ....|--- .... ....
....|..|C-4 AF.F ....|D#4 UFFF ....|--- .... ....
....|..|--- .... ....|--- .... ....|--- .... ....
....|..|--- .... ....|--- .... ....|--- .... ....
....|..|--- .... ....|--- .... ....|--- .... ....
....|..|C-4 AF.A ....|E-4 UFFF ....|--- .... ....
....|..|--- .... ....|--- .... ....|--- .... ....
....|..|--- .... ....|--- .... ....|--- .... ....
....|..|--- .... ....|R-- .... ....|G#3 2F27 ....
....|..|C-4 AF.F ....|D#4 UFFF ....|--- .... ....
....|..|--- .... ....|--- .... ....|--- .... ....
....|..|--- .... ....|--- .... ....|--- .... ....
....|..|--- .... ....|R-- .... ....|--- .... ....
....|..|C-4 AF.A ....|C#4 UFFF ....|--- .... ....
....|..|--- .... ....|--- .... ....|--- .... ....
....|..|--- .... ....|--- .... ....|--- .... ....
....|..|--- .... ....|R-- .... ....|E-3 2F2F ....

[Pattern52]
....|..|C-4 AF.F ....|E-4 UFFF ....|--- .... ....
....|..|--- .... ....|--- .... ....|--- .... ....
....|..|--- .... ....|--- .... ....|--- .... ....
....|..|--- .... ....|R-- .... ....|--- .... ....
....|..|C-4 AF.A ....|G#3 UFF7 ....|--- .... ....
....|..|--- .... ....|--- .... ....|--- .... ....
....|..|--- .... ....|--- .... ....|--- .... ....
....|..|--- .... ....|R-- .... ....|--- .... ....
....|..|C-4 AF.F ....|D#4 UFF7 ....|--- .... ....
....|..|--- .... ....|--- .... ....|--- .... ....
....|..|--- .... ....|--- .... ....|--- .... ....
....|..|--- .... ....|R-- .... ....|E-3 2F2A ....
....|..|C-4 AF.A ....|C#4 UFFF ....|--- .... ....
....|..|--- .... ....|--- .... ....|--- .... ....
....|..|--- .... ....|--- .... ....|--- .... ....
....|..|--- .... ....|--- .... ....|--- .... ....
....|..|C-4 AF.F ....|D#4 UFF7 ....|--- .... ....
....|..|--- .... ....|--- .... ....|--- .... ....
....|..|--- .... ....|--- .... ....|--- .... ....
....|..|--- .... ....|--- .... ....|--- .... ....
....|..|C-4 AF.A ....|C#4 UFF7 ....|--- .... ....
....|..|--- .... ....|--- .... ....|--- .... ....
....|..|--- .... ....|R-- .... ....|--- .... ....
....|..|--- .... ....|R-- .... ....|E-3 2F27 ....
....|..|C-4 AF.F ....|E-4 UFF7 ....|--- .... ....
....|..|--- .... ....|--- .... ....|--- .... ....
....|..|--- .... ....|--- .... ....|--- .... ....
....|..|--- .... ....|--- .... ....|--- .... ....
....|..|C-4 AF.A ....|--- .... ....|--- .... ....
....|..|--- .... ....|--- .... ....|--- .... ....
....|..|--- .... ....|--- .... ....|--- .... ....
....|..|--- .... ....|--- .... ....|F#3 2F5F ....
....|..|C-4 AF.F ....|--- .... ....|--- .... ....
....|..|--- .... ....|--- .... ....|--- .... ....
....|..|--- .... ....|R-- .... ....|--- .... ....
....|..|--- .... ....|--- .... ....|--- .... ....
....|..|C-4 AF.A ....|C#4 UFF7 ....|--- .... ....
....|..|--- .... ....|--- .... ....|--- .... ....
....|..|--- .... ....|--- .... ....|--- .... ....
....|..|--- .... ....|--- .... ....|--- .... ....
....|..|C-4 AF.F ....|G#3 UFFF ....|--- .... ....
....|..|--- .... ....|--- .... ....|--- .... ....
....|..|--- .... ....|--- .... ....|--- .... ....
....|..|--- .... ....|--- .... ....|F#3 2F5A ....
....|..|C-4 AF.A ....|G#3 UFFF ....|--- .... ....
....|..|--- .... ....|--- .... ....|--- .... ....
....|..|--- .... ....|R-- .... ....|--- .... ....
....|..|--- .... ....|R-- .... ....|--- .... ....
....|..|C-4 AF.F ....|D#4 UFFF ....|--- .... ....
....|..|--- .... ....|--- .... ....|--- .... ....
....|..|--- .... ....|--- .... ....|--- .... ....
....|..|--- .... ....|--- .... ....|--- .... ....
....|..|C-4 AF.A ....|E-4 UFFF ....|--- .... ....
....|..|--- .... ....|--- .... ....|--- .... ....
....|..|--- .... ....|--- .... ....|--- .... ....
....|..|--- .... ....|--- .... ....|F#3 2F57 ....
....|..|C-4 AF.F ....|D#4 UFFF ....|--- .... ....
....|..|--- .... ....|--- .... ....|--- .... ....
....|..|--- .... ....|--- .... ....|--- .... ....
....|..|--- .... ....|R-- .... ....|--- .... ....
....|..|C-4 AF.A ....|C#4 UFFF ....|--- .... ....
....|..|--- .... ....|--- .... ....|--- .... ....
....|..|C-4 AF.F ....|--- .... ....|--- .... ....
....|..|--- .... ....|--- .... ....|G#3 2F1F ....

[Pattern53]
....|..|C-4 AF.F ....|G#3 UFFF ....|--- .... ....
....|..|--- .... ....|--- .... ....|--- .... ....
....|..|--- .... ....|--- .... ....|--- .... ....
....|..|--- .... ....|--- .... ....|--- .... ....
....|..|C-3 RF.F ....|G#3 UFF7 ....|G#3 2F1F ....
....|..|--- .... ....|--- .... ....|--- .... ....
....|..|--- .... ....|--- .... ....|--- .... ....
....|..|--- .... ....|R-- .... ....|R-- .... ....
....|..|C-4 AF.F ....|D#4 UFF7 ....|--- .... ....
....|..|--- .... ....|--- .... ....|--- .... ....
....|..|C-4 AF.A ....|R-- .... ....|--- .... ....
....|..|--- .... ....|--- .... ....|G#3 2F1A ....
....|..|C-3 RF.F ....|E-4 UFF7 ....|G#3 2F1F ....
....|..|--- .... ....|--- .... ....|--- .... ....
....|..|--- .... ....|--- .... ....|--- .... ....
....|..|--- .... ....|--- .... ....|R-- .... ....
....|..|C-4 AF.F ....|D#4 UFF7 ....|G#3 2F1A ....
....|..|--- .... ....|--- .... ....|--- .... ....
....|..|--- .... ....|--- .... ....|--- .... ....
....|..|--- .... ....|--- .... ....|R-- .... ....
....|..|C-3 RF.F ....|C#4 UFF7 ....|G#3 2F1F ....
....|..|--- .... ....|--- .... ....|--- .... ....
....|..|C-4 AF.7 ....|R-- .... ....|--- .... ....
....|..|--- .... ....|--- .... ....|G#3 2F17 ....
....|..|C-4 AF.F ....|G#3 UFF7 ....|G#3 2F1A ....
....|..|--- .... ....|--- .... ....|--- .... ....
....|..|--- .... ....|--- .... ....|--- .... ....
....|..|--- .... ....|--- .... ....|R-- .... ....
....|..|C-3 RF.F ....|--- .... ....|G#3 2F1F ....
....|..|--- .... ....|--- .... ....|--- .... ....
....|..|--- .... ....|--- .... ....|--- .... ....
....|..|--- .... ....|--- .... ....|G#3 2F2F ....
....|..|C-4 AF.F ....|--- .... ....|G#3 2F1A ....
....|..|--- .... ....|--- .... ....|--- .... ....
....|..|--- .... ....|R-- .... ....|--- .... ....
....|..|--- .... ....|--- .... ....|R-- .... ....
....|..|C-3 RF.F ....|--- .... ....|G#3 2F2F ....
....|..|--- .... ....|--- .... ....|--- .... ....
....|..|--- .... ....|--- .... ....|--- .... ....
....|..|--- .... ....|--- .... ....|R-- .... ....
....|..|C-4 AF.F ....|G#3 UFFF ....|G#3 2F1A ....
....|..|--- .... ....|--- .... ....|--- .... ....
....|..|--- .... ....|--- .... ....|--- .... ....
....|..|--- .... ....|R-- .... ....|G#3 2F2A ....
....|..|C-3 RF.F ....|G#3 UFFF ....|G#3 2F2F ....
....|..|--- .... ....|--- .... ....|--- .... ....
....|..|--- .... ....|--- .... ....|--- .... ....
....|..|--- .... ....|R-- .... ....|R-- .... ....
....|..|C-4 AF.F ....|D#4 UFFF ....|G#3 2F2A ....
....|..|--- .... ....|--- .... ....|--- .... ....
....|..|--- .... ....|--- .... ....|--- .... ....
....|..|--- .... ....|--- .... ....|R-- .... ....
....|..|C-3 RF.F ....|E-4 UFFF ....|G#3 2F2F ....
....|..|--- .... ....|--- .... ....|--- .... ....
....|..|--- .... ....|--- .... ....|--- .... ....
....|..|--- .... ....|R-- .... ....|G#3 2F27 ....
....|..|C-4 AF.F ....|D#4 UFFF ....|G#3 2F2A ....
....|..|--- .... ....|--- .... ....|--- .... ....
....|..|--- .... ....|--- .... ....|--- .... ....
....|..|--- .... ....|R-- .... ....|R-- .... ....
....|..|C-3 RF.F ....|C#4 UFFF ....|G#3 2F2F ....
....|..|--- .... ....|--- .... ....|--- .... ....
....|..|--- .... ....|--- .... ....|--- .... ....
....|..|--- .... ....|R-- .... ....|A-3 2F6F ....

[Pattern54]
....|..|C-4 AF.F ....|A-3 UFFF ....|G#3 2F2A ....
....|..|--- .... ....|--- .... ....|--- .... ....
....|..|--- .... ....|--- .... ....|--- .... ....
....|..|--- .... ....|R-- .... ....|R-- .... ....
....|..|C-3 RF.F ....|G#3 UFF7 ....|A-3 2F3F ....
....|..|--- .... ....|--- .... ....|--- .... ....
....|..|--- .... ....|--- .... ....|--- .... ....
....|..|--- .... ....|R-- .... ....|R-- .... ....
....|..|C-4 AF.F ....|D#4 UFF7 ....|G#3 2F2A ....
....|..|--- .... ....|--- .... ....|--- .... ....
....|..|--- .... ....|--- .... ....|--- .... ....
....|..|--- .... ....|R-- .... ....|A-3 2F6A ....
....|..|C-3 RF.F ....|E-4 UFF7 ....|A-3 2F3F ....
....|..|--- .... ....|--- .... ....|--- .... ....
....|..|--- .... ....|--- .... ....|--- .... ....
....|..|--- .... ....|--- .... ....|R-- .... ....
....|..|C-4 AF.F ....|D#4 UFF7 ....|A-3 2F3A ....
....|..|--- .... ....|--- .... ....|--- .... ....
....|..|--- .... ....|--- .... ....|--- .... ....
....|..|--- .... ....|--- .... ....|R-- .... ....
....|..|C-3 RF.F ....|C#4 UFF7 ....|A-3 2F3F ....
....|..|--- .... ....|--- .... ....|--- .... ....
....|..|--- .... ....|--- .... ....|--- .... ....
....|..|--- .... ....|R-- .... ....|A-3 2F67 ....
....|..|C-4 AF.F ....|B-3 UFFF ....|A-3 2F3A ....
....|..|--- .... ....|--- .... ....|--- .... ....
....|..|--- .... ....|--- .... ....|--- .... ....
....|..|--- .... ....|--- .... ....|R-- .... ....
....|..|C-3 RF.F ....|G#3 UFFF ....|A-3 2F3F ....
....|..|--- .... ....|--- .... ....|--- .... ....
....|..|--- .... ....|--- .... ....|--- .... ....
....|..|--- .... ....|--- .... ....|A-3 2F4F ....
....|..|C-4 AF.F ....|R-- .... ....|A-3 2F3A ....
....|..|--- .... ....|--- .... ....|--- .... ....
....|..|--- .... ....|--- .... ....|--- .... ....
....|..|--- .... ....|R-- .... ....|R-- .... ....
....|..|C-3 RF.F ....|B-3 UFFA ....|A-3 2F4F ....
....|..|--- .... ....|--- .... ....|--- .... ....
....|..|--- .... ....|--- .... ....|--- .... ....
....|..|--- .... ....|--- .... ....|R-- .... ....
....|..|C-4 AF.F ....|G#3 UFFF ....|A-3 2F3A ....
....|..|--- .... ....|--- .... ....|--- .... ....
....|..|--- .... ....|--- .... ....|--- .... ....
....|..|--- .... ....|--- .... ....|A-3 2F4A ....
....|..|C-3 RF.F ....|G#3 UFFF ....|A-3 2F4F ....
....|..|--- .... ....|--- .... ....|--- .... ....
....|..|--- .... ....|--- .... ....|--- .... ....
....|..|--- .... ....|R-- .... ....|R-- .... ....
....|..|C-4 AF.F ....|D#4 UFFF ....|A-3 2F4A ....
....|..|--- .... ....|--- .... ....|--- .... ....
....|..|--- .... ....|--- .... ....|--- .... ....
....|..|--- .... ....|--- .... ....|R-- .... ....
....|..|C-3 RF.F ....|E-4 UFFF ....|A-3 2F4F ....
....|..|--- .... ....|--- .... ....|--- .... ....
....|..|--- .... ....|--- .... ....|--- .... ....
....|..|--- .... ....|--- .... ....|A-3 2F47 ....
....|..|C-4 AF.F ....|D#4 UFFF ....|A-3 2F4A ....
....|..|--- .... ....|--- .... ....|--- .... ....
....|..|--- .... ....|--- .... ....|--- .... ....
....|..|--- .... ....|R-- .... ....|R-- .... ....
....|..|C-3 RF.F ....|C#4 UFFF ....|A-3 2F4F ....
....|..|--- .... ....|--- .... ....|--- .... ....
....|..|--- .... ....|--- .... ....|--- .... ....
....|..|--- .... ....|--- .... ....|G#3 2F1F ....

[Pattern55]
....|..|C-4 AF.F ....|G#3 UFFF ....|A-3 2F4A ....
....|..|--- .... ....|--- .... ....|--- .... ....
....|..|C-5 VF.F ....|--- .... ....|--- .... ....
....|..|--- .... ....|--- .... ....|R-- .... ....
....|..|C-5 VF.F ....|G#3 UFF7 ....|G#3 2F1F ....
....|..|--- .... ....|--- .... ....|--- .... ....
....|..|C-5 VF.F ....|--- .... ....|--- .... ....
....|..|--- .... ....|R-- .... ....|R-- .... ....
....|..|C-4 AF.F ....|D#4 UFF7 ....|A-3 2F4A ....
....|..|--- .... ....|--- .... ....|--- .... ....
....|..|C-5 VF.F ....|--- .... ....|--- .... ....
....|..|--- .... ....|R-- .... ....|G#3 2F1A ....
....|..|C-5 VF.F ....|E-4 UFF7 ....|G#3 2F1F ....
....|..|--- .... ....|--- .... ....|--- .... ....
....|..|C-5 VF.F ....|--- .... ....|--- .... ....
....|..|--- .... ....|--- .... ....|R-- .... ....
....|..|C-4 AF.F ....|D#4 UFF7 ....|G#3 2F1A ....
....|..|--- .... ....|--- .... ....|--- .... ....
....|..|C-5 VF.F ....|--- .... ....|--- .... ....
....|..|--- .... ....|--- .... ....|R-- .... ....
....|..|C-5 VF.F ....|C#4 UFF7 ....|G#3 2F1F ....
....|..|--- .... ....|--- .... ....|--- .... ....
....|..|C-5 VF.F ....|--- .... ....|--- .... ....
....|..|--- .... ....|R-- .... ....|G#3 2F17 ....
....|..|C-4 AF.F ....|G#3 UFF7 ....|G#3 2F1A ....
....|..|--- .... ....|--- .... ....|--- .... ....
....|..|C-5 VF.F ....|--- .... ....|--- .... ....
....|..|--- .... ....|--- .... ....|R-- .... ....
....|..|C-5 VF.F ....|--- .... ....|G#3 2F1F ....
....|..|--- .... ....|--- .... ....|--- .... ....
....|..|C-5 VF.F ....|--- .... ....|--- .... ....
....|..|--- .... ....|--- .... ....|G#3 2F2F ....
....|..|C-4 AF.F ....|--- .... ....|G#3 2F1A ....
....|..|--- .... ....|--- .... ....|--- .... ....
....|..|C-5 VF.F ....|--- .... ....|--- .... ....
....|..|--- .... ....|R-- .... ....|R-- .... ....
....|..|C-5 VF.F ....|--- .... ....|G#3 2F2F ....
....|..|--- .... ....|--- .... ....|--- .... ....
....|..|C-5 VF.F ....|--- .... ....|--- .... ....
....|..|--- .... ....|--- .... ....|R-- .... ....
....|..|C-4 AF.F ....|--- .... ....|G#3 2F1A ....
....|..|--- .... ....|--- .... ....|--- .... ....
....|..|C-5 VF.F ....|--- .... ....|--- .... ....
....|..|--- .... ....|--- .... ....|G#3 2F2A ....
....|..|C-5 VF.F ....|G#3 UFFF ....|G#3 2F2F ....
....|..|--- .... ....|--- .... ....|--- .... ....
....|..|C-5 VF.F ....|--- .... ....|--- .... ....
....|..|--- .... ....|R-- .... ....|R-- .... ....
....|..|C-4 AF.F ....|D#4 UFFF ....|G#3 2F2A ....
....|..|--- .... ....|--- .... ....|--- .... ....
....|..|C-5 VF.F ....|--- .... ....|--- .... ....
....|..|--- .... ....|--- .... ....|R-- .... ....
....|..|C-5 VF.F ....|E-4 UFFF ....|G#3 2F2F ....
....|..|--- .... ....|--- .... ....|--- .... ....
....|..|C-5 VF.F ....|--- .... ....|--- .... ....
....|..|--- .... ....|--- .... ....|G#3 2F27 ....
....|..|C-4 AF.F ....|D#4 UFFF ....|G#3 2F2A ....
....|..|--- .... ....|--- .... ....|--- .... ....
....|..|C-5 VF.F ....|--- .... ....|--- .... ....
....|..|--- .... ....|R-- .... ....|R-- .... ....
....|..|C-5 VF.F ....|C#4 UFFF ....|G#3 2F2F ....
....|..|--- .... ....|--- .... ....|--- .... ....
....|..|C-5 VF.F ....|--- .... ....|--- .... ....
....|..|--- .... ....|--- .... ....|E-3 2F2F ....

[Pattern56]
....|..|C-4 AF.F ....|E-4 UFFF ....|G#3 2F2A ....
....|..|--- .... ....|--- .... ....|--- .... ....
....|..|C-5 VF.F ....|--- .... ....|--- .... ....
....|..|--- .... ....|--- .... ....|R-- .... ....
....|..|C-5 VF.F ....|G#3 UFF7 ....|E-3 2F2F ....
....|..|--- .... ....|--- .... ....|--- .... ....
....|..|C-5 VF.F ....|--- .... ....|--- .... ....
....|..|--- .... ....|R-- .... ....|R-- .... ....
....|..|C-4 AF.F ....|D#4 UFF7 ....|G#3 2F2A ....
....|..|--- .... ....|--- .... ....|--- .... ....
....|..|C-5 VF.F ....|--- .... ....|--- .... ....
....|..|--- .... ....|--- .... ....|E-3 2F2A ....
....|..|C-5 VF.F ....|E-4 UFF7 ....|E-3 2F2F ....
....|..|--- .... ....|--- .... ....|--- .... ....
....|..|C-5 VF.F ....|--- .... ....|--- .... ....
....|..|--- .... ....|--- .... ....|R-- .... ....
....|..|C-4 AF.F ....|D#4 UFF7 ....|E-3 2F2A ....
....|..|--- .... ....|--- .... ....|--- .... ....
....|..|C-5 VF.F ....|--- .... ....|--- .... ....
....|..|--- .... ....|--- .... ....|R-- .... ....
....|..|C-5 VF.F ....|C#4 UFF7 ....|E-3 2F2F ....
....|..|--- .... ....|--- .... ....|--- .... ....
....|..|C-5 VF.F ....|--- .... ....|--- .... ....
....|..|--- .... ....|--- .... ....|E-3 2F27 ....
....|..|C-4 AF.F ....|E-4 UFF7 ....|E-3 2F2A ....
....|..|--- .... ....|--- .... ....|--- .... ....
....|..|C-5 VF.F ....|--- .... ....|--- .... ....
....|..|--- .... ....|--- .... ....|R-- .... ....
....|..|C-5 VF.F ....|D#4 UFFF ....|E-3 2F2F ....
....|..|--- .... ....|--- .... ....|--- .... ....
....|..|C-5 VF.F ....|--- .... ....|--- .... ....
....|..|--- .... ....|--- .... ....|F#3 2F5F ....
....|..|C-4 AF.F ....|--- .... ....|E-3 2F2A ....
....|..|--- .... ....|--- .... ....|--- .... ....
....|..|C-5 VF.F ....|--- .... ....|--- .... ....
....|..|--- .... ....|--- .... ....|R-- .... ....
....|..|C-5 VF.F ....|--- .... ....|F#3 2F5F ....
....|..|--- .... ....|--- .... ....|--- .... ....
....|..|C-5 VF.F ....|--- .... ....|--- .... ....
....|..|--- .... ....|--- .... ....|R-- .... ....
....|..|C-4 AF.F ....|D#4 UFFA ....|E-3 2F2A ....
....|..|--- .... ....|R-- .... ....|--- .... ....
....|..|C-5 VF.F ....|--- .... ....|--- .... ....
....|..|--- .... ....|--- .... ....|F#3 2F5A ....
....|..|C-5 VF.F ....|--- .... ....|F#3 2F5F ....
....|..|--- .... ....|--- .... ....|--- .... ....
....|..|C-5 VF.F ....|--- .... ....|--- .... ....
....|..|--- .... ....|--- .... ....|R-- .... ....
....|..|C-4 AF.F ....|--- .... ....|F#3 2F5A ....
....|..|--- .... ....|--- .... ....|--- .... ....
....|..|C-5 VF.F ....|--- .... ....|--- .... ....
....|..|--- .... ....|--- .... ....|R-- .... ....
....|..|C-5 VF.F ....|D#4 UFF7 ....|F#3 2F5F ....
....|..|--- .... ....|R-- .... ....|--- .... ....
....|..|C-5 VF.F ....|--- .... ....|--- .... ....
....|..|--- .... ....|--- .... ....|F#3 2F57 ....
....|..|C-4 AF.F ....|--- .... ....|F#3 2F5A ....
....|..|--- .... ....|--- .... ....|--- .... ....
....|..|C-5 VF.F ....|--- .... ....|--- .... ....
....|..|--- .... ....|--- .... ....|R-- .... ....
....|..|C-4 AF.F ....|--- .... ....|F#3 2F5F ....
....|..|--- .... ....|--- .... ....|--- .... ....
....|..|C-5 VF.F ....|--- .... ....|--- .... ....
....|..|--- .... ....|--- .... ....|R-- .... ....

[Pattern57]
....|..|C-5 VF.F ....|--- .... ....|F#3 2F5A ....
....|..|--- .... ....|R-- .... ....|--- .... ....
....|..|C-5 VF.F ....|--- .... ....|--- .... ....
....|..|--- .... ....|--- .... ....|R-- .... ....
....|..|C-5 VF.F ....|--- .... ....|F#3 2F57 ....
....|..|--- .... ....|--- .... ....|--- .... ....
....|..|C-5 VF.F ....|--- .... ....|--- .... ....
....|..|--- .... ....|--- .... ....|R-- .... ....
....|..|C-5 VF.F ....|--- .... ....|F#3 2F5A ....
....|..|--- .... ....|--- .... ....|--- .... ....
....|..|C-5 VF.F ....|--- .... ....|--- .... ....
....|..|--- .... ....|--- .... ....|R-- .... ....
....|..|C-5 VF.F ....|--- .... ....|F#3 2F57 ....
....|..|--- .... ....|--- .... ....|--- .... ....
....|..|C-5 VF.F ....|--- .... ....|--- .... ....
....|..|--- .... ....|--- .... ....|R-- .... ....
....|..|C-5 VF.F ....|--- .... ....|--- .... ....
....|..|--- .... ....|--- .... ....|--- .... ....
....|..|C-5 VF.F ....|--- .... ....|--- .... ....
....|..|--- .... ....|--- .... ....|--- .... ....
....|..|C-5 VF.F ....|--- .... ....|F#3 2F57 ....
....|..|--- .... ....|--- .... ....|--- .... ....
....|..|C-5 VF.F ....|--- .... ....|--- .... ....
....|..|--- .... ....|--- .... ....|R-- .... ....
....|..|C-5 VF.F ....|--- .... ....|D#5 2F.F ....
....|..|--- .... ....|--- .... ....|--- .... ....
....|..|C-5 VF.F ....|--- .... ....|E-5 2F.F ....
....|..|--- .... ....|--- .... ....|--- .... ....
....|..|C-4 AF.F ....|--- .... ....|F#5 2F.F ....
....|..|C-5 VF.F ....|--- .... ....|--- .... ....
....|..|C-5 VF.F ....|--- .... ....|G#5 2F.F ....
....|..|C-5 VF.F ....|--- .... ....|G#3 2F1F ....
....|..|C-4 AF.F ....|--- .... ....|E-5 2F.F ....
....|..|--- .... ....|--- .... ....|R-- .... ....
....|..|C-5 VF.7 ....|--- .... ....|E-5 2F.F ....
....|..|C-3 RF.F ....|--- .... ....|--- .... ....
 C#4|..|C#3 2C.F ....|--- .... ....|F#5 2F.F ....
....|..|--- .... ....|--- .... ....|R-- .... ....
....|..|C-5 VF.7 ....|--- .... ....|G#5 2F.F ....
....|..|C-4 AF.F ....|--- .... ....|R-- .... ....
....|..|C-5 VF.7 ....|--- .... ....|E-5 2F.F ....
....|..|C-5 VF.A ....|--- .... ....|R-- .... ....
....|..|C-5 VF.7 ....|--- .... ....|E-5 2F.F ....
....|..|C-3 RF.F ....|--- .... ....|G#3 2F1A ....
 C#4|..|C#3 2C.F ....|--- .... ....|F#5 2F.F ....
....|..|--- .... ....|--- .... ....|R-- .... ....
....|..|C-5 VF.7 ....|--- .... ....|G#5 2F.F ....
....|..|C-4 AF.F ....|--- .... ....|--- .... ....
....|..|C-5 VF.7 ....|--- .... ....|E-5 2F.F ....
....|..|--- .... ....|--- .... ....|R-- .... ....
....|..|C-5 VF.7 ....|--- .... ....|E-5 2F.F ....
....|..|C-3 RF.F ....|--- .... ....|R-- .... ....
 C#4|..|C#3 2C.F ....|--- .... ....|F#5 2F.F ....
....|..|C-5 VF.7 ....|--- .... ....|R-- .... ....
....|..|C-5 VF.7 ....|--- .... ....|G#5 2F.F ....
....|..|C-4 AF.F ....|--- .... ....|G#3 2F17 ....
....|..|C-4 AF.7 ....|--- .... ....|E-5 2F.F ....
....|..|--- .... ....|--- .... ....|R-- .... ....
....|..|R-- .... ....|--- .... ....|E-5 2F.F ....
....|..|C-3 RF.F ....|--- .... ....|--- .... ....
 C#4|..|C#3 2C.F ....|--- .... ....|F#5 2F.F ....
....|..|--- .... ....|--- .... ....|R-- .... ....
....|..|R-- .... ....|--- .... ....|G#5 2F.F ....
....|..|C-4 AF.F ....|--- .... ....|G#5 2F.F ....

[Pattern58]
....|..|R-- .... ....|--- .... ....|E-5 2F.F ....
....|..|--- .... ....|--- .... ....|R-- .... ....
....|..|R-- .... ....|--- .... ....|E-5 2F.F ....
....|..|C-3 RF.F ....|--- .... ....|--- .... ....
 C#4|..|C#3 2C.F ....|--- .... ....|F#5 2F.F ....
....|..|--- .... ....|--- .... ....|R-- .... ....
....|..|R-- .... ....|--- .... ....|G#5 2F.F ....
....|..|C-4 AF.F ....|--- .... ....|--- .... ....
....|..|R-- .... ....|--- .... ....|D#5 2F.F ....
....|..|--- .... ....|--- .... ....|R-- .... ....
....|..|R-- .... ....|--- .... ....|E-5 2F.F ....
....|..|C-3 RF.F ....|--- .... ....|G#5 2F.A ....
 C#4|..|C#3 2C.F ....|--- .... ....|F#5 2F.F ....
....|..|--- .... ....|--- .... ....|--- .... ....
....|..|R-- .... ....|--- .... ....|G#5 2F.F ....
....|..|C-4 AF.F ....|--- .... ....|--- .... ....
....|..|R-- .... ....|--- .... ....|E-5 2F.F ....
....|..|--- .... ....|--- .... ....|R-- .... ....
....|..|R-- .... ....|--- .... ....|E-5 2F.7 ....
....|..|C-3 RF.F ....|--- .... ....|--- .... ....
 C#4|..|C#3 2C.F ....|--- .... ....|G#4 2F.F ....
....|..|--- .... ....|--- .... ....|--- .... ....
....|..|R-- .... ....|--- .... ....|G#5 2F.7 ....
....|..|C-4 AF.F ....|--- .... ....|G#5 2F.7 ....
....|..|R-- .... ....|--- .... ....|D#5 2F.F ....
....|..|--- .... ....|--- .... ....|E-5 2F.F ....
....|..|R-- .... ....|--- .... ....|E-5 2F.7 ....
....|..|C-3 RF.F ....|--- .... ....|F#5 2F.F ....
 C#4|..|C#3 2C.F ....|--- .... ....|F#5 2F.F ....
....|..|C-4 LF.F ....|--- .... ....|G#5 2F.F ....
....|..|R-- .... ....|--- .... ....|G#5 2F.F ....
....|..|C-4 AF.F ....|--- .... ....|C#5 2F.F ....
....|..|R-- .... ....|--- .... ....|D#5 2F.F ....
....|..|--- .... ....|--- .... ....|C#5 2F.F ....
....|..|R-- .... ....|--- .... ....|E-5 2F.F ....
....|..|C-3 RF.F ....|--- .... ....|E-5 2F.F ....
 A-3|..|A-2 2C.F ....|--- .... ....|F#5 2F.F ....
....|..|--- .... ....|--- .... ....|G#4 2F.F ....
....|..|R-- .... ....|--- .... ....|G#5 2F.F ....
....|..|C-4 AF.F ....|--- .... ....|R-- .... ....
....|..|R-- .... ....|--- .... ....|D#5 2F.F ....
....|..|C-4 LF.A ....|--- .... ....|C#5 2F.F ....
....|..|R-- .... ....|--- .... ....|E-5 2F.F ....
....|..|C-3 RF.F ....|--- .... ....|E-5 2F.F ....
 A-3|..|A-2 2C.F ....|--- .... ....|F#5 2F.F ....
....|..|--- .... ....|--- .... ....|C#5 2F.A ....
....|..|R-- .... ....|--- .... ....|G#5 2F.F ....
....|..|C-4 AF.F ....|--- .... ....|R-- .... ....
....|..|R-- .... ....|--- .... ....|D#5 2F.F ....
....|..|--- .... ....|--- .... ....|C#5 2F.F ....
....|..|R-- .... ....|--- .... ....|E-5 2F.F ....
....|..|C-3 RF.F ....|--- .... ....|E-5 2F.F ....
 A-3|..|A-2 2C.F ....|--- .... ....|F#5 2F.F ....
....|..|C-4 LF.7 ....|--- .... ....|G#5 2F.7 ....
....|..|R-- .... ....|--- .... ....|G#5 2F.F ....
....|..|C-4 AF.F ....|--- .... ....|C#5 2F.7 ....
....|..|R-- .... ....|--- .... ....|D#5 2F.F ....
....|..|--- .... ....|--- .... ....|C#5 2F.F ....
....|..|R-- .... ....|--- .... ....|E-5 2F.F ....
....|..|C-3 RF.F ....|--- .... ....|E-5 2F.7 ....
 A-3|..|A-2 2C.F ....|--- .... ....|F#5 2F.F ....
....|..|--- .... ....|--- .... ....|G#4 2F.7 ....
....|..|R-- .... ....|--- .... ....|G#5 2F.F ....
....|..|C-4 AF.F ....|F#4 UFFF ....|A-3 2F4F ....

[Pattern59]
....|..|R-- .... ....|--- .... ....|D#5 2F.F ....
....|..|--- .... ....|--- .... ....|C#5 2F.7 ....
....|..|R-- .... ....|--- .... ....|E-5 2F.F ....
....|..|C-3 RF.F ....|F#4 UFFF ....|E-5 2F.7 ....
 F#4|..|F#2 2A.F ....|--- .... ....|F#5 2F.F ....
....|..|--- .... ....|--- .... ....|C#5 2F.A ....
....|..|R-- .... ....|--- .... ....|G#5 2F.F ....
....|..|C-4 AF.F ....|--- .... ....|R-- .... ....
....|..|R-- .... ....|--- .... ....|D#5 2F.F ....
....|..|--- .... ....|R-- .... ....|C#5 2F.7 ....
....|..|R-- .... ....|--- .... ....|E-5 2F.F ....
....|..|C-3 RF.F ....|F#4 UFFF ....|E-5 2F.7 ....
 F#4|..|F#2 2A.F ....|--- .... ....|F#5 2F.F ....
....|..|--- .... ....|--- .... ....|--- .... ....
....|..|R-- .... ....|--- .... ....|G#5 2F.F ....
....|..|C-4 AF.F ....|F#4 UFFA ....|--- .... ....
....|..|R-- .... ....|--- .... ....|C#5 2F.F ....
....|..|--- .... ....|--- .... ....|C#5 2F.7 ....
....|..|R-- .... ....|--- .... ....|E-5 2F.7 ....
....|..|C-3 RF.F ....|F#4 UFFF ....|--- .... ....
 F#4|..|F#2 2A.F ....|C#4 UFFF ....|F#5 2F.7 ....
....|..|--- .... ....|R-- .... ....|--- .... ....
....|..|R-- .... ....|--- .... ....|G#5 2F.7 ....
....|..|C-4 AF.F ....|F#4 UFF7 ....|D#5 2F.F ....
....|..|R-- .... ....|--- .... ....|D#5 2F.7 ....
....|..|--- .... ....|--- .... ....|E-5 2F.F ....
....|..|R-- .... ....|--- .... ....|E-5 2F.7 ....
....|..|C-3 RF.F ....|C#4 UFFF ....|F#5 2F.F ....
 F#4|..|F#2 2A.F ....|--- .... ....|F#5 2F.7 ....
....|..|--- .... ....|--- .... ....|G#5 2F.F ....
....|..|R-- .... ....|--- .... ....|G#5 2F.7 ....
....|..|C-4 AF.F ....|F#4 UFFA ....|E-5 2F.F ....
....|..|R-- .... ....|C#4 UFFA ....|E-5 2F.F ....
....|..|--- .... ....|R-- .... ....|R-- .... ....
....|..|R-- .... ....|--- .... ....|E-5 2F.F ....
....|..|C-3 RF.F ....|F#4 UFF7 ....|D#5 2F.A ....
 C#4|..|C#3 2C.F ....|--- .... ....|F#5 2F.F ....
....|..|--- .... ....|--- .... ....|R-- .... ....
....|..|R-- .... ....|--- .... ....|G#5 2F.F ....
....|..|C-4 AF.F ....|C#4 UFFA ....|R-- .... ....
....|..|R-- .... ....|--- .... ....|E-5 2F.F ....
....|..|--- .... ....|--- .... ....|R-- .... ....
....|..|R-- .... ....|R-- .... ....|E-5 2F.F ....
....|..|C-3 RF.F ....|F#4 UFF7 ....|E-5 2F.A ....
 C#4|..|C#3 2C.F ....|C#4 UFF7 ....|F#5 2F.F ....
....|..|--- .... ....|--- .... ....|R-- .... ....
....|..|R-- .... ....|--- .... ....|G#5 2F.F ....
....|..|C-4 AF.F ....|--- .... ....|D#5 2F.7 ....
....|..|R-- .... ....|--- .... ....|E-5 2F.F ....
....|..|--- .... ....|--- .... ....|E-5 2F.7 ....
....|..|R-- .... ....|--- .... ....|E-5 2F.F ....
....|..|C-3 RF.F ....|C#4 UFF7 ....|F#5 2F.7 ....
 C#4|..|C#3 2C.F ....|--- .... ....|F#5 2F.F ....
....|..|--- .... ....|--- .... ....|G#5 2F.7 ....
....|..|R-- .... ....|R-- .... ....|G#5 2F.F ....
....|..|C-4 AF.F ....|--- .... ....|E-5 2F.7 ....
....|..|R-- .... ....|--- .... ....|E-5 2F.F ....
....|..|--- .... ....|--- .... ....|R-- .... ....
....|..|R-- .... ....|--- .... ....|E-5 2F.F ....
....|..|C-3 RF.F ....|--- .... ....|--- .... ....
 C#4|..|C#3 2C.F ....|--- .... ....|F#5 2F.F ....
....|..|--- .... ....|--- .... ....|R-- .... ....
....|..|R-- .... ....|--- .... ....|G#5 2F.F ....
....|..|C-4 AF.F ....|--- .... ....|G#5 2F.F ....

[Pattern60]
....|..|R-- .... ....|--- .... ....|E-5 2F.F ....
....|..|--- .... ....|--- .... ....|R-- .... ....
....|..|R-- .... ....|R-- .... ....|E-5 2F.F ....
....|..|C-3 RF.F ....|--- .... ....|--- .... ....
 C#4|..|C#3 2C.F ....|--- .... ....|F#5 2F.F ....
....|..|--- .... ....|--- .... ....|R-- .... ....
....|..|R-- .... ....|--- .... ....|G#5 2F.F ....
....|..|C-4 AF.F ....|--- .... ....|--- .... ....
....|..|R-- .... ....|--- .... ....|D#5 2F.F ....
....|..|--- .... ....|--- .... ....|R-- .... ....
....|..|R-- .... ....|--- .... ....|E-5 2F.F ....
....|..|C-3 RF.F ....|--- .... ....|G#5 2F.A ....
 C#4|..|C#3 2C.F ....|--- .... ....|F#5 2F.F ....
....|..|--- .... ....|--- .... ....|--- .... ....
....|..|R-- .... ....|--- .... ....|G#5 2F.F ....
....|..|C-4 AF.F ....|--- .... ....|--- .... ....
....|..|R-- .... ....|--- .... ....|E-5 2F.F ....
....|..|--- .... ....|--- .... ....|R-- .... ....
....|..|R-- .... ....|--- .... ....|E-5 2F.7 ....
....|..|C-3 RF.F ....|--- .... ....|--- .... ....
 C#4|..|C#3 2C.F ....|--- .... ....|G#4 2F.F ....
....|..|--- .... ....|--- .... ....|--- .... ....
....|..|R-- .... ....|--- .... ....|G#5 2F.7 ....
....|..|C-4 AF.F ....|--- .... ....|G#5 2F.7 ....
....|..|R-- .... ....|--- .... ....|D#5 2F.F ....
....|..|--- .... ....|--- .... ....|E-5 2F.F ....
....|..|R-- .... ....|--- .... ....|E-5 2F.7 ....
....|..|C-3 RF.F ....|--- .... ....|F#5 2F.F ....
 C#4|..|C#3 2C.F ....|--- .... ....|F#5 2F.F ....
....|..|C-4 LF.F ....|--- .... ....|G#5 2F.F ....
....|..|R-- .... ....|--- .... ....|G#5 2F.F ....
....|..|C-4 AF.F ....|--- .... ....|C#5 2F.F ....
....|..|R-- .... ....|--- .... ....|D#5 2F.F ....
....|..|--- .... ....|--- .... ....|C#5 2F.F ....
....|..|R-- .... ....|--- .... ....|E-5 2F.F ....
....|..|C-3 RF.F ....|--- .... ....|E-5 2F.F ....
 A-3|..|A-2 2C.F ....|--- .... ....|F#5 2F.F ....
....|..|--- .... ....|--- .... ....|G#4 2F.F ....
....|..|R-- .... ....|--- .... ....|G#5 2F.F ....
....|..|C-4 AF.F ....|--- .... ....|R-- .... ....
....|..|R-- .... ....|--- .... ....|D#5 2F.F ....
....|..|C-4 LF.A ....|--- .... ....|C#5 2F.F ....
....|..|R-- .... ....|--- .... ....|E-5 2F.F ....
....|..|C-3 RF.F ....|--- .... ....|E-5 2F.F ....
 A-3|..|A-2 2C.F ....|--- .... ....|F#5 2F.F ....
....|..|--- .... ....|--- .... ....|C#5 2F.A ....
....|..|R-- .... ....|--- .... ....|G#5 2F.F ....
....|..|C-4 AF.F ....|--- .... ....|R-- .... ....
....|..|R-- .... ....|--- .... ....|D#5 2F.F ....
....|..|--- .... ....|--- .... ....|C#5 2F.F ....
....|..|R-- .... ....|--- .... ....|E-5 2F.F ....
....|..|C-3 RF.F ....|--- .... ....|E-5 2F.F ....
 A-3|..|A-2 2C.F ....|--- .... ....|F#5 2F.F ....
....|..|C-4 LF.7 ....|--- .... ....|G#5 2F.7 ....
....|..|R-- .... ....|--- .... ....|G#5 2F.F ....
....|..|C-4 AF.F ....|--- .... ....|C#5 2F.7 ....
....|..|R-- .... ....|--- .... ....|D#5 2F.F ....
....|..|--- .... ....|--- .... ....|C#5 2F.F ....
....|..|R-- .... ....|--- .... ....|E-5 2F.F ....
....|..|C-3 RF.F ....|--- .... ....|E-5 2F.7 ....
 A-3|..|A-2 2C.F ....|--- .... ....|F#5 2F.F ....
....|..|--- .... ....|--- .... ....|G#4 2F.7 ....
....|..|R-- .... ....|--- .... ....|G#5 2F.F ....
....|..|C-4 AF.F ....|F#4 UFFF ....|F#3 2F5F ....

[Pattern61]
....|..|R-- .... ....|--- .... ....|D#5 2F.F ....
....|..|--- .... ....|--- .... ....|C#5 2F.7 ....
....|..|R-- .... ....|--- .... ....|E-5 2F.F ....
....|..|C-3 RF.F ....|F#4 UFFF ....|E-5 2F.7 ....
 F#4|..|F#2 2A.F ....|--- .... ....|F#5 2F.F ....
....|..|--- .... ....|--- .... ....|C#5 2F.A ....
....|..|R-- .... ....|--- .... ....|G#5 2F.F ....
....|..|C-4 AF.F ....|--- .... ....|R-- .... ....
....|..|R-- .... ....|--- .... ....|D#5 2F.F ....
....|..|--- .... ....|R-- .... ....|C#5 2F.7 ....
....|..|R-- .... ....|--- .... ....|E-5 2F.F ....
....|..|C-3 RF.F ....|F#4 UFFF ....|E-5 2F.7 ....
 F#4|..|F#2 2A.F ....|--- .... ....|F#5 2F.F ....
....|..|--- .... ....|--- .... ....|--- .... ....
....|..|R-- .... ....|--- .... ....|G#5 2F.F ....
....|..|C-4 AF.F ....|F#4 UFFA ....|--- .... ....
....|..|R-- .... ....|--- .... ....|C#5 2F.F ....
....|..|--- .... ....|--- .... ....|C#5 2F.7 ....
....|..|R-- .... ....|--- .... ....|E-5 2F.7 ....
....|..|C-3 RF.F ....|F#4 UFFF ....|--- .... ....
 F#4|..|F#2 2A.F ....|C#4 UFFF ....|F#5 2F.7 ....
....|..|--- .... ....|R-- .... ....|--- .... ....
....|..|R-- .... ....|--- .... ....|G#5 2F.7 ....
....|..|C-4 AF.F ....|F#4 UFF7 ....|D#5 2F.F ....
....|..|R-- .... ....|--- .... ....|D#5 2F.7 ....
....|..|C-4 LF.F ....|--- .... ....|E-5 2F.F ....
....|..|R-- .... ....|--- .... ....|E-5 2F.7 ....
....|..|C-3 RF.F ....|C#4 UFFF ....|F#5 2F.F ....
 F#4|..|F#2 2A.F ....|--- .... ....|F#5 2F.7 ....
....|..|--- .... ....|--- .... ....|G#5 2F.F ....
....|..|R-- .... ....|--- .... ....|G#5 2F.7 ....
....|..|C-4 AF.F ....|F#4 UFFA ....|E-5 2F.F ....
....|..|R-- .... ....|C#4 UFFA ....|E-5 2F.F ....
....|..|--- .... ....|R-- .... ....|R-- .... ....
....|..|R-- .... ....|--- .... ....|E-5 2F.F ....
....|..|C-3 RF.F ....|F#4 UFF7 ....|G#3 2F1F ....
 C#4|..|C#3 2C.F ....|--- .... ....|F#5 2F.F ....
....|..|C-4 LF.A ....|--- .... ....|R-- .... ....
....|..|R-- .... ....|--- .... ....|G#5 2F.F ....
....|..|C-4 AF.F ....|C#4 UFFA ....|R-- .... ....
....|..|R-- .... ....|--- .... ....|E-5 2F.F ....
....|..|--- .... ....|--- .... ....|R-- .... ....
....|..|R-- .... ....|R-- .... ....|E-5 2F.F ....
....|..|C-3 RF.F ....|F#4 UFF7 ....|G#3 2F1F ....
 C#4|..|C#3 2C.F ....|C#4 UFF7 ....|F#5 2F.F ....
....|..|--- .... ....|--- .... ....|R-- .... ....
....|..|R-- .... ....|--- .... ....|G#5 2F.F ....
....|..|C-4 AF.F ....|--- .... ....|D#5 2F.7 ....
....|..|R-- .... ....|--- .... ....|E-5 2F.F ....
....|..|C-4 LF.7 ....|--- .... ....|E-5 2F.7 ....
....|..|R-- .... ....|--- .... ....|E-5 2F.F ....
....|..|C-3 RF.F ....|C#4 UFF7 ....|G#3 2F1F ....
 C#4|..|C#3 2C.F ....|--- .... ....|F#5 2F.F ....
....|..|C-5 VF.F ....|--- .... ....|G#5 2F.7 ....
....|..|R-- .... ....|R-- .... ....|G#5 2F.F ....
....|..|C-4 AF.F ....|--- .... ....|E-5 2F.7 ....
....|..|R-- .... ....|--- .... ....|E-5 2F.F ....
....|..|--- .... ....|--- .... ....|R-- .... ....
....|..|R-- .... ....|--- .... ....|E-5 2F.F ....
....|..|C-3 RF.F ....|--- .... ....|G#3 2F1F ....
 C#4|..|C#3 2C.F ....|--- .... ....|F#5 2F.F ....
....|..|--- .... ....|--- .... ....|R-- .... ....
....|..|R-- .... ....|--- .... ....|G#5 2F.F ....
....|..|C-4 AF.F ....|--- .... ....|G#5 2F.F ....

[Pattern62]
....|..|R-- .... ....|--- .... ....|E-5 2F.F ....
....|..|C-5 VF.A ....|--- .... ....|R-- .... ....
....|..|R-- .... ....|R-- .... ....|E-5 2F.F ....
....|..|C-3 RF.F ....|--- .... ....|G#3 2F2F ....
 C#4|..|C#3 2C.F ....|--- .... ....|F#5 2F.F ....
....|..|--- .... ....|--- .... ....|R-- .... ....
....|..|R-- .... ....|--- .... ....|G#5 2F.F ....
....|..|C-4 AF.F ....|--- .... ....|G#3 2F1A ....
....|..|R-- .... ....|--- .... ....|D#5 2F.F ....
....|..|--- .... ....|--- .... ....|R-- .... ....
....|..|R-- .... ....|--- .... ....|E-5 2F.F ....
....|..|C-3 RF.F ....|--- .... ....|G#3 2F2F ....
 C#4|..|C#3 2C.F ....|--- .... ....|F#5 2F.F ....
....|..|C-5 VF.7 ....|--- .... ....|--- .... ....
....|..|R-- .... ....|--- .... ....|G#5 2F.F ....
....|..|C-4 AF.F ....|--- .... ....|G#3 2F2A ....
....|..|R-- .... ....|--- .... ....|E-5 2F.F ....
....|..|--- .... ....|--- .... ....|R-- .... ....
....|..|R-- .... ....|--- .... ....|E-5 2F.7 ....
....|..|C-3 RF.F ....|--- .... ....|G#3 2F2F ....
 C#4|..|C#3 2C.F ....|--- .... ....|G#4 2F.F ....
....|..|C-5 VF.F ....|--- .... ....|--- .... ....
....|..|R-- .... ....|--- .... ....|G#5 2F.7 ....
....|..|C-4 AF.F ....|--- .... ....|G#5 2F.7 ....
....|..|R-- .... ....|--- .... ....|D#5 2F.F ....
....|..|--- .... ....|--- .... ....|E-5 2F.F ....
....|..|R-- .... ....|--- .... ....|E-5 2F.7 ....
....|..|C-3 RF.F ....|--- .... ....|F#5 2F.F ....
 C#4|..|C#3 2C.F ....|--- .... ....|F#5 2F.F ....
....|..|C-4 LF.F ....|--- .... ....|G#5 2F.F ....
....|..|R-- .... ....|--- .... ....|G#5 2F.F ....
....|..|C-4 AF.F ....|--- .... ....|C#5 2F.F ....
....|..|R-- .... ....|--- .... ....|D#5 2F.F ....
....|..|C-5 VF.A ....|--- .... ....|C#5 2F.F ....
....|..|R-- .... ....|--- .... ....|E-5 2F.F ....
....|..|C-3 RF.F ....|--- .... ....|E-5 2F.F ....
 A-3|..|A-2 2C.F ....|--- .... ....|F#5 2F.F ....
....|..|--- .... ....|--- .... ....|G#4 2F.F ....
....|..|R-- .... ....|--- .... ....|G#5 2F.F ....
....|..|C-4 AF.F ....|--- .... ....|R-- .... ....
....|..|R-- .... ....|--- .... ....|D#5 2F.F ....
....|..|C-4 LF.A ....|--- .... ....|C#5 2F.F ....
....|..|R-- .... ....|--- .... ....|E-5 2F.F ....
....|..|C-3 RF.F ....|--- .... ....|E-5 2F.F ....
 A-3|..|A-2 2C.F ....|--- .... ....|F#5 2F.F ....
....|..|C-5 VF.7 ....|--- .... ....|C#5 2F.A ....
....|..|R-- .... ....|--- .... ....|G#5 2F.F ....
....|..|C-4 AF.F ....|--- .... ....|R-- .... ....
....|..|R-- .... ....|--- .... ....|D#5 2F.F ....
....|..|--- .... ....|--- .... ....|C#5 2F.F ....
....|..|R-- .... ....|--- .... ....|E-5 2F.F ....
....|..|C-3 RF.F ....|--- .... ....|E-5 2F.F ....
 A-3|..|A-2 2C.F ....|--- .... ....|F#5 2F.F ....
....|..|C-5 VF.F ....|--- .... ....|G#5 2F.7 ....
....|..|R-- .... ....|--- .... ....|G#5 2F.F ....
....|..|C-4 AF.F ....|--- .... ....|C#5 2F.7 ....
....|..|R-- .... ....|--- .... ....|D#5 2F.F ....
....|..|--- .... ....|--- .... ....|C#5 2F.F ....
....|..|R-- .... ....|--- .... ....|E-5 2F.F ....
....|..|C-3 RF.F ....|--- .... ....|A-3 2F3F ....
 A-3|..|A-2 2C.F ....|--- .... ....|F#5 2F.F ....
....|..|--- .... ....|--- .... ....|G#4 2F.7 ....
....|..|R-- .... ....|--- .... ....|G#5 2F.F ....
....|..|C-4 AF.F ....|F#4 UFFF ....|A-3 2F4F ....

[Pattern63]
....|..|R-- .... ....|--- .... ....|D#5 2F.F ....
....|..|C-5 VF.A ....|--- .... ....|C#5 2F.7 ....
....|..|R-- .... ....|--- .... ....|E-5 2F.F ....
....|..|C-3 RF.F ....|F#4 UFFF ....|A-3 2F4F ....
 F#4|..|F#2 2A.F ....|--- .... ....|F#5 2F.F ....
....|..|--- .... ....|--- .... ....|C#5 2F.A ....
....|..|R-- .... ....|--- .... ....|G#5 2F.F ....
....|..|C-4 AF.F ....|--- .... ....|R-- .... ....
....|..|R-- .... ....|--- .... ....|D#5 2F.F ....
....|..|--- .... ....|R-- .... ....|C#5 2F.7 ....
....|..|R-- .... ....|--- .... ....|E-5 2F.F ....
....|..|C-3 RF.F ....|F#4 UFFF ....|A-3 2F4F ....
 F#4|..|F#2 2A.F ....|--- .... ....|F#5 2F.F ....
....|..|C-5 VF.7 ....|--- .... ....|--- .... ....
....|..|R-- .... ....|--- .... ....|G#5 2F.F ....
....|..|C-4 AF.F ....|F#4 UFFA ....|A-3 2F4A ....
....|..|R-- .... ....|--- .... ....|C#5 2F.F ....
....|..|--- .... ....|--- .... ....|C#5 2F.7 ....
....|..|R-- .... ....|--- .... ....|E-5 2F.7 ....
....|..|C-3 RF.F ....|F#4 UFFF ....|A-3 2F4F ....
 F#4|..|F#2 2A.F ....|C#4 UFFF ....|F#5 2F.7 ....
....|..|C-5 VF.F ....|R-- .... ....|--- .... ....
....|..|R-- .... ....|--- .... ....|G#5 2F.7 ....
....|..|C-4 AF.F ....|F#4 UFF7 ....|D#5 2F.F ....
....|..|R-- .... ....|--- .... ....|D#5 2F.7 ....
....|..|--- .... ....|--- .... ....|E-5 2F.F ....
....|..|R-- .... ....|--- .... ....|E-5 2F.7 ....
....|..|C-3 RF.F ....|C#4 UFFF ....|F#5 2F.F ....
 F#4|..|F#2 2A.F ....|--- .... ....|F#5 2F.7 ....
....|..|C-4 LF.F ....|--- .... ....|G#5 2F.F ....
....|..|R-- .... ....|--- .... ....|G#5 2F.7 ....
....|..|C-4 AF.F ....|F#4 UFFA ....|E-5 2F.F ....
....|..|R-- .... ....|C#4 UFFA ....|E-5 2F.F ....
....|..|C-5 VF.A ....|R-- .... ....|R-- .... ....
....|..|R-- .... ....|--- .... ....|E-5 2F.F ....
....|..|C-3 RF.F ....|F#4 UFF7 ....|G#3 2F1F ....
 C#4|..|C#3 2C.F ....|--- .... ....|F#5 2F.F ....
....|..|--- .... ....|--- .... ....|R-- .... ....
....|..|R-- .... ....|--- .... ....|G#5 2F.F ....
....|..|C-4 AF.F ....|C#4 UFFA ....|R-- .... ....
....|..|R-- .... ....|--- .... ....|E-5 2F.F ....
....|..|C-4 LF.A ....|--- .... ....|R-- .... ....
....|..|R-- .... ....|R-- .... ....|E-5 2F.F ....
....|..|C-3 RF.F ....|F#4 UFF7 ....|G#3 2F1F ....
 C#4|..|C#3 2C.F ....|C#4 UFF7 ....|F#5 2F.F ....
....|..|C-5 VF.7 ....|--- .... ....|R-- .... ....
....|..|R-- .... ....|--- .... ....|G#5 2F.F ....
....|..|C-4 AF.F ....|--- .... ....|D#5 2F.7 ....
....|..|R-- .... ....|--- .... ....|E-5 2F.F ....
....|..|--- .... ....|--- .... ....|E-5 2F.7 ....
....|..|R-- .... ....|--- .... ....|E-5 2F.F ....
....|..|C-3 RF.F ....|C#4 UFF7 ....|G#3 2F1F ....
 C#4|..|C#3 2C.F ....|--- .... ....|F#5 2F.F ....
....|..|C-5 VF.F ....|--- .... ....|G#5 2F.7 ....
....|..|R-- .... ....|R-- .... ....|G#5 2F.F ....
....|..|C-4 AF.F ....|--- .... ....|E-5 2F.7 ....
....|..|R-- .... ....|--- .... ....|E-5 2F.F ....
....|..|--- .... ....|--- .... ....|R-- .... ....
....|..|R-- .... ....|--- .... ....|E-5 2F.F ....
....|..|C-3 RF.F ....|--- .... ....|G#3 2F1F ....
 C#4|..|C#3 2C.F ....|--- .... ....|F#5 2F.F ....
....|..|--- .... ....|--- .... ....|R-- .... ....
....|..|R-- .... ....|--- .... ....|G#5 2F.F ....
....|..|C-4 AF.F ....|--- .... ....|G#5 2F.F ....

[Pattern64]
....|..|R-- .... ....|--- .... ....|E-5 2F.F ....
....|..|C-5 VF.A ....|--- .... ....|R-- .... ....
....|..|R-- .... ....|R-- .... ....|E-5 2F.F ....
....|..|C-3 RF.F ....|--- .... ....|G#3 2F2F ....
 C#4|..|C#3 2C.F ....|--- .... ....|F#5 2F.F ....
....|..|--- .... ....|--- .... ....|R-- .... ....
....|..|R-- .... ....|--- .... ....|G#5 2F.F ....
....|..|C-4 AF.F ....|--- .... ....|G#3 2F1A ....
....|..|R-- .... ....|--- .... ....|D#5 2F.F ....
....|..|--- .... ....|--- .... ....|R-- .... ....
....|..|R-- .... ....|--- .... ....|E-5 2F.F ....
....|..|C-3 RF.F ....|--- .... ....|G#3 2F2F ....
 C#4|..|C#3 2C.F ....|--- .... ....|F#5 2F.F ....
....|..|C-5 VF.7 ....|--- .... ....|--- .... ....
....|..|R-- .... ....|--- .... ....|G#5 2F.F ....
....|..|C-4 AF.F ....|--- .... ....|G#3 2F2A ....
....|..|R-- .... ....|--- .... ....|E-5 2F.F ....
....|..|--- .... ....|--- .... ....|R-- .... ....
....|..|R-- .... ....|--- .... ....|E-5 2F.7 ....
....|..|C-3 RF.F ....|--- .... ....|G#4 2F.F ....
 C#4|..|C#3 2C.F ....|--- .... ....|G#4 2F.F ....
....|..|C-5 VF.F ....|--- .... ....|--- .... ....
....|..|R-- .... ....|--- .... ....|G#5 2F.7 ....
....|..|C-4 AF.F ....|--- .... ....|G#4 2F.F ....
....|..|R-- .... ....|--- .... ....|D#5 2F.F ....
....|..|--- .... ....|--- .... ....|R-- .... ....
....|..|R-- .... ....|--- .... ....|A-4 2F.F ....
....|..|C-3 RF.F ....|--- .... ....|B-4 2F.F ....
 C#4|..|C#3 2C.F ....|--- .... ....|B-4 2F.F ....
....|..|C-4 LF.F ....|--- .... ....|--- .... ....
....|..|R-- .... ....|--- .... ....|G#5 2F.7 ....
....|..|C-4 AF.F ....|--- .... ....|C#5 2F.F ....
....|..|R-- .... ....|--- .... ....|D#5 2F.F ....
....|..|C-5 VF.A ....|--- .... ....|C#5 2F.F ....
....|..|R-- .... ....|--- .... ....|A-4 2F.F ....
....|..|C-3 RF.F ....|--- .... ....|E-3 2F2F ....
 A-3|..|A-2 2C.F ....|--- .... ....|B-4 2F.F ....
....|..|--- .... ....|--- .... ....|R-- .... ....
....|..|R-- .... ....|--- .... ....|G#5 2F.7 ....
....|..|C-4 AF.F ....|--- .... ....|B-4 2F.A ....
....|..|R-- .... ....|--- .... ....|D#5 2F.F ....
....|..|C-4 LF.A ....|--- .... ....|C#5 2F.F ....
....|..|R-- .... ....|--- .... ....|A-4 2F.F ....
....|..|C-3 RF.F ....|--- .... ....|E-3 2F2F ....
 A-3|..|A-2 2C.F ....|--- .... ....|B-4 2F.F ....
....|..|C-5 VF.7 ....|--- .... ....|C#5 2F.A ....
....|..|R-- .... ....|--- .... ....|R-- .... ....
....|..|C-4 AF.F ....|--- .... ....|G#4 2F.7 ....
....|..|R-- .... ....|--- .... ....|C#5 2F.F ....
....|..|--- .... ....|--- .... ....|R-- .... ....
....|..|R-- .... ....|--- .... ....|A-4 2F.F ....
....|..|C-3 RF.F ....|--- .... ....|E-3 2F2F ....
 A-3|..|A-2 2C.F ....|--- .... ....|B-4 2F.F ....
....|..|C-5 VF.F ....|--- .... ....|C#5 2F.A ....
....|..|R-- .... ....|--- .... ....|R-- .... ....
....|..|C-4 AF.F ....|--- .... ....|C#5 2F.7 ....
....|..|R-- .... ....|--- .... ....|C#5 2F.F ....
....|..|--- .... ....|--- .... ....|C#5 2F.7 ....
....|..|R-- .... ....|--- .... ....|C#5 2F.F ....
....|..|C-3 RF.F ....|--- .... ....|A-4 2F.F ....
 A-3|..|A-2 2C.F ....|--- .... ....|B-4 2F.F ....
....|..|--- .... ....|--- .... ....|--- .... ....
....|..|R-- .... ....|--- .... ....|R-- .... ....
....|..|C-4 AF.F ....|F#4 UFFF ....|F#3 2F5F ....

[Pattern65]
....|..|R-- .... ....|--- .... ....|C#5 2F.F ....
....|..|C-5 VF.A ....|--- .... ....|C#5 2F.7 ....
....|..|R-- .... ....|--- .... ....|A-4 2F.7 ....
....|..|C-3 RF.F ....|F#4 UFFF ....|F#3 2F5F ....
 F#4|..|F#2 2A.F ....|--- .... ....|B-4 2F.7 ....
....|..|--- .... ....|--- .... ....|--- .... ....
....|..|R-- .... ....|--- .... ....|R-- .... ....
....|..|C-4 AF.F ....|--- .... ....|A-4 2F.A ....
....|..|R-- .... ....|--- .... ....|C#5 2F.7 ....
....|..|--- .... ....|R-- .... ....|--- .... ....
....|..|R-- .... ....|--- .... ....|A-4 2F.7 ....
....|..|C-3 RF.F ....|F#4 UFFF ....|F#3 2F5F ....
 F#4|..|F#2 2A.F ....|--- .... ....|B-4 2F.7 ....
....|..|C-5 VF.7 ....|--- .... ....|--- .... ....
....|..|R-- .... ....|--- .... ....|R-- .... ....
....|..|C-4 AF.F ....|F#4 UFFA ....|F#3 2F5A ....
....|..|R-- .... ....|--- .... ....|C#5 2F.7 ....
....|..|--- .... ....|--- .... ....|--- .... ....
....|..|R-- .... ....|--- .... ....|C#5 2F.7 ....
....|..|C-3 RF.F ....|F#4 UFFF ....|F#3 2F5F ....
 F#4|..|F#2 2A.F ....|C#4 UFFF ....|B-4 2F.7 ....
....|..|C-5 VF.F ....|R-- .... ....|--- .... ....
....|..|R-- .... ....|--- .... ....|R-- .... ....
....|..|C-4 AF.F ....|F#4 UFF7 ....|D#5 2F.F ....
....|..|R-- .... ....|--- .... ....|C#5 2F.7 ....
....|..|C-4 LF.F ....|--- .... ....|E-5 2F.F ....
....|..|R-- .... ....|--- .... ....|R-- .... ....
....|..|C-3 RF.F ....|C#4 UFFF ....|F#5 2F.F ....
 F#4|..|F#2 2A.F ....|--- .... ....|--- .... ....
....|..|--- .... ....|--- .... ....|G#5 2F.F ....
....|..|R-- .... ....|--- .... ....|R-- .... ....
....|..|C-4 AF.F ....|F#4 UFFA ....|E-5 2F.F ....
....|..|R-- .... ....|C#4 UFFA ....|E-5 2F.F ....
....|..|C-5 VF.A ....|R-- .... ....|R-- .... ....
....|..|R-- .... ....|--- .... ....|E-5 2F.F ....
....|..|C-3 RF.F ....|F#4 UFF7 ....|G#3 2F1F ....
 C#4|..|C#3 2C.F ....|--- .... ....|F#5 2F.F ....
....|..|C-4 LF.A ....|--- .... ....|R-- .... ....
....|..|R-- .... ....|--- .... ....|G#5 2F.F ....
....|..|C-4 AF.F ....|C#4 UFFA ....|R-- .... ....
....|..|R-- .... ....|--- .... ....|E-5 2F.F ....
....|..|--- .... ....|--- .... ....|R-- .... ....
....|..|R-- .... ....|R-- .... ....|E-5 2F.F ....
....|..|C-3 RF.F ....|F#4 UFF7 ....|G#3 2F1F ....
 C#4|..|C#3 2C.F ....|C#4 UFF7 ....|F#5 2F.F ....
....|..|C-5 VF.7 ....|--- .... ....|R-- .... ....
....|..|R-- .... ....|--- .... ....|G#5 2F.F ....
....|..|C-4 AF.F ....|--- .... ....|D#5 2F.7 ....
....|..|R-- .... ....|--- .... ....|E-5 2F.F ....
....|..|C-4 LF.7 ....|--- .... ....|E-5 2F.7 ....
....|..|R-- .... ....|--- .... ....|E-5 2F.F ....
....|..|C-3 RF.F ....|C#4 UFF7 ....|G#3 2F1F ....
 C#4|..|C#3 2C.F ....|--- .... ....|F#5 2F.F ....
....|..|C-5 VF.F ....|--- .... ....|G#5 2F.7 ....
....|..|R-- .... ....|R-- .... ....|G#5 2F.F ....
....|..|C-4 AF.F ....|--- .... ....|E-5 2F.7 ....
....|..|R-- .... ....|--- .... ....|E-5 2F.F ....
....|..|--- .... ....|--- .... ....|R-- .... ....
....|..|R-- .... ....|--- .... ....|E-5 2F.F ....
....|..|C-3 RF.F ....|--- .... ....|G#3 2F1F ....
 C#4|..|C#3 2C.F ....|--- .... ....|F#5 2F.F ....
....|..|--- .... ....|--- .... ....|R-- .... ....
....|..|R-- .... ....|--- .... ....|G#5 2F.F ....
....|..|C-4 AF.F ....|--- .... ....|G#5 2F.F ....

[Pattern66]
....|..|R-- .... ....|--- .... ....|E-5 2F.F ....
....|..|C-5 VF.A ....|--- .... ....|R-- .... ....
....|..|R-- .... ....|R-- .... ....|E-5 2F.F ....
....|..|C-3 RF.F ....|--- .... ....|G#3 2F2F ....
 C#4|..|C#3 2C.F ....|--- .... ....|F#5 2F.F ....
....|..|--- .... ....|--- .... ....|R-- .... ....
....|..|R-- .... ....|--- .... ....|G#5 2F.F ....
....|..|C-4 AF.F ....|--- .... ....|G#3 2F1A ....
....|..|R-- .... ....|--- .... ....|D#5 2F.F ....
....|..|--- .... ....|--- .... ....|R-- .... ....
....|..|R-- .... ....|--- .... ....|E-5 2F.F ....
....|..|C-3 RF.F ....|--- .... ....|G#3 2F2F ....
 C#4|..|C#3 2C.F ....|--- .... ....|F#5 2F.F ....
....|..|C-5 VF.7 ....|--- .... ....|--- .... ....
....|..|R-- .... ....|--- .... ....|G#5 2F.F ....
....|..|C-4 AF.F ....|--- .... ....|G#3 2F2A ....
....|..|R-- .... ....|--- .... ....|E-5 2F.F ....
....|..|--- .... ....|--- .... ....|R-- .... ....
....|..|R-- .... ....|--- .... ....|E-5 2F.7 ....
....|..|C-3 RF.F ....|--- .... ....|G#3 2F2F ....
 C#4|..|C#3 2C.F ....|--- .... ....|G#4 2F.F ....
....|..|C-5 VF.F ....|--- .... ....|--- .... ....
....|..|R-- .... ....|--- .... ....|G#5 2F.7 ....
....|..|C-4 AF.F ....|--- .... ....|G#5 2F.7 ....
....|..|R-- .... ....|--- .... ....|D#5 2F.F ....
....|..|--- .... ....|--- .... ....|E-5 2F.F ....
....|..|R-- .... ....|--- .... ....|E-5 2F.7 ....
....|..|C-3 RF.F ....|--- .... ....|F#5 2F.F ....
 C#4|..|C#3 2C.F ....|--- .... ....|F#5 2F.F ....
....|..|C-4 LF.F ....|--- .... ....|G#5 2F.F ....
....|..|R-- .... ....|--- .... ....|G#5 2F.F ....
....|..|C-4 AF.F ....|--- .... ....|C#5 2F.F ....
....|..|R-- .... ....|--- .... ....|D#5 2F.F ....
....|..|C-5 VF.A ....|--- .... ....|C#5 2F.F ....
....|..|R-- .... ....|--- .... ....|E-5 2F.F ....
....|..|C-3 RF.F ....|--- .... ....|E-5 2F.F ....
 A-3|..|A-2 2C.F ....|--- .... ....|F#5 2F.F ....
....|..|--- .... ....|--- .... ....|G#4 2F.F ....
....|..|R-- .... ....|--- .... ....|G#5 2F.F ....
....|..|C-4 AF.F ....|--- .... ....|R-- .... ....
....|..|R-- .... ....|--- .... ....|D#5 2F.F ....
....|..|C-4 LF.A ....|--- .... ....|C#5 2F.F ....
....|..|R-- .... ....|--- .... ....|E-5 2F.F ....
....|..|C-3 RF.F ....|--- .... ....|E-5 2F.F ....
 A-3|..|A-2 2C.F ....|--- .... ....|F#5 2F.F ....
....|..|C-5 VF.7 ....|--- .... ....|C#5 2F.A ....
....|..|R-- .... ....|--- .... ....|G#5 2F.F ....
....|..|C-4 AF.F ....|--- .... ....|R-- .... ....
....|..|R-- .... ....|--- .... ....|D#5 2F.F ....
....|..|--- .... ....|--- .... ....|C#5 2F.F ....
....|..|R-- .... ....|--- .... ....|E-5 2F.F ....
....|..|C-3 RF.F ....|--- .... ....|E-5 2F.F ....
 A-3|..|A-2 2C.F ....|--- .... ....|F#5 2F.F ....
....|..|C-5 VF.F ....|--- .... ....|G#5 2F.7 ....
....|..|R-- .... ....|--- .... ....|G#5 2F.F ....
....|..|C-4 AF.F ....|--- .... ....|C#5 2F.7 ....
....|..|R-- .... ....|--- .... ....|D#5 2F.F ....
....|..|--- .... ....|--- .... ....|C#5 2F.F ....
....|..|R-- .... ....|--- .... ....|E-5 2F.F ....
....|..|C-3 RF.F ....|--- .... ....|A-3 2F3F ....
 A-3|..|A-2 2C.F ....|--- .... ....|F#5 2F.F ....
....|..|--- .... ....|--- .... ....|G#4 2F.7 ....
....|..|R-- .... ....|--- .... ....|G#5 2F.F ....
....|..|C-4 AF.F ....|--- .... ....|A-3 2F4F ....

[Pattern67]
....|..|R-- .... ....|--- .... ....|D#5 2F.F ....
....|..|C-5 VF.F ....|--- .... ....|C#5 2F.7 ....
....|..|R-- .... ....|--- .... ....|E-5 2F.F ....
....|..|C-5 VF.F ....|--- .... ....|A-3 2F4F ....
 F#4|..|F#2 2A.F ....|--- .... ....|F#5 2F.F ....
....|..|C-5 VF.F ....|--- .... ....|C#5 2F.A ....
....|..|R-- .... ....|--- .... ....|G#5 2F.F ....
....|..|C-4 AF.F ....|--- .... ....|R-- .... ....
....|..|R-- .... ....|--- .... ....|D#5 2F.F ....
....|..|C-5 VF.F ....|--- .... ....|C#5 2F.7 ....
....|..|R-- .... ....|--- .... ....|E-5 2F.F ....
....|..|C-5 VF.F ....|--- .... ....|A-3 2F4F ....
 F#4|..|F#2 2A.F ....|--- .... ....|F#5 2F.F ....
....|..|C-5 VF.F ....|--- .... ....|--- .... ....
....|..|R-- .... ....|--- .... ....|G#5 2F.F ....
....|..|C-4 AF.F ....|--- .... ....|A-3 2F4A ....
....|..|R-- .... ....|--- .... ....|C#5 2F.F ....
....|..|C-5 VF.F ....|--- .... ....|C#5 2F.7 ....
....|..|R-- .... ....|--- .... ....|E-5 2F.7 ....
....|..|C-5 VF.F ....|--- .... ....|A-3 2F4F ....
 F#4|..|F#2 2A.F ....|--- .... ....|F#5 2F.7 ....
....|..|C-5 VF.F ....|--- .... ....|--- .... ....
....|..|R-- .... ....|--- .... ....|G#5 2F.7 ....
....|..|C-4 AF.F ....|--- .... ....|D#5 2F.F ....
....|..|R-- .... ....|--- .... ....|D#5 2F.7 ....
....|..|C-5 VF.F ....|--- .... ....|E-5 2F.F ....
....|..|R-- .... ....|--- .... ....|E-5 2F.7 ....
....|..|C-5 VF.F ....|--- .... ....|F#5 2F.F ....
 F#4|..|F#2 2A.F ....|--- .... ....|F#5 2F.7 ....
....|..|C-5 VF.F ....|--- .... ....|G#5 2F.F ....
....|..|R-- .... ....|--- .... ....|G#5 2F.7 ....
....|..|C-4 AF.F ....|--- .... ....|E-5 2F.F ....
....|..|R-- .... ....|--- .... ....|E-5 2F.F ....
....|..|C-5 VF.F ....|--- .... ....|R-- .... ....
....|..|R-- .... ....|--- .... ....|E-5 2F.F ....
....|..|C-5 VF.F ....|--- .... ....|G#3 2F1F ....
 C#4|..|C#3 2C.F ....|--- .... ....|F#5 2F.F ....
....|..|C-5 VF.F ....|--- .... ....|R-- .... ....
....|..|R-- .... ....|--- .... ....|G#5 2F.F ....
....|..|C-4 AF.F ....|--- .... ....|R-- .... ....
....|..|R-- .... ....|--- .... ....|E-5 2F.F ....
....|..|C-5 VF.F ....|--- .... ....|R-- .... ....
....|..|R-- .... ....|--- .... ....|E-5 2F.F ....
....|..|C-5 VF.F ....|--- .... ....|G#3 2F1F ....
 C#4|..|C#3 2C.F ....|--- .... ....|F#5 2F.F ....
....|..|C-5 VF.F ....|--- .... ....|R-- .... ....
....|..|R-- .... ....|--- .... ....|G#5 2F.F ....
....|..|C-4 AF.F ....|--- .... ....|D#5 2F.7 ....
....|..|R-- .... ....|--- .... ....|E-5 2F.F ....
....|..|C-5 VF.F ....|--- .... ....|E-5 2F.7 ....
....|..|R-- .... ....|--- .... ....|E-5 2F.F ....
....|..|C-5 VF.F ....|--- .... ....|G#3 2F1F ....
 C#4|..|C#3 2C.F ....|--- .... ....|F#5 2F.F ....
....|..|C-5 VF.F ....|--- .... ....|G#5 2F.7 ....
....|..|R-- .... ....|--- .... ....|G#5 2F.F ....
....|..|C-4 AF.F ....|--- .... ....|E-5 2F.7 ....
....|..|R-- .... ....|--- .... ....|E-5 2F.F ....
....|..|C-5 VF.F ....|--- .... ....|R-- .... ....
....|..|R-- .... ....|--- .... ....|E-5 2F.F ....
....|..|C-5 VF.F ....|--- .... ....|G#3 2F1F ....
 C#4|..|C#3 2C.F ....|--- .... ....|F#5 2F.F ....
....|..|C-5 VF.F ....|--- .... ....|R-- .... ....
....|..|R-- .... ....|--- .... ....|G#5 2F.F ....
....|..|C-4 AF.F ....|--- .... ....|G#5 2F.F ....

[Pattern68]
....|..|R-- .... ....|--- .... ....|E-5 2F.F ....
....|..|C-5 VF.F ....|--- .... ....|R-- .... ....
....|..|R-- .... ....|--- .... ....|E-5 2F.F ....
....|..|C-5 VF.F ....|--- .... ....|G#3 2F2F ....
 C#4|..|C#3 2C.F ....|--- .... ....|F#5 2F.F ....
....|..|C-5 VF.F ....|--- .... ....|R-- .... ....
....|..|R-- .... ....|--- .... ....|G#5 2F.F ....
....|..|C-4 AF.F ....|--- .... ....|G#3 2F1A ....
....|..|R-- .... ....|--- .... ....|D#5 2F.F ....
....|..|C-5 VF.F ....|--- .... ....|R-- .... ....
....|..|R-- .... ....|--- .... ....|E-5 2F.F ....
....|..|C-5 VF.F ....|--- .... ....|G#3 2F2F ....
 C#4|..|C#3 2C.F ....|--- .... ....|F#5 2F.F ....
....|..|C-5 VF.F ....|--- .... ....|--- .... ....
....|..|R-- .... ....|--- .... ....|G#5 2F.F ....
....|..|C-4 AF.F ....|--- .... ....|G#3 2F2A ....
....|..|R-- .... ....|--- .... ....|E-5 2F.F ....
....|..|C-5 VF.F ....|--- .... ....|R-- .... ....
....|..|R-- .... ....|--- .... ....|E-5 2F.7 ....
....|..|C-5 VF.F ....|--- .... ....|G#4 2F.F ....
 C#4|..|C#3 2C.F ....|--- .... ....|G#4 2F.F ....
....|..|C-5 VF.F ....|--- .... ....|--- .... ....
....|..|R-- .... ....|--- .... ....|G#5 2F.7 ....
....|..|C-4 AF.F ....|--- .... ....|G#4 2F.F ....
....|..|R-- .... ....|--- .... ....|D#5 2F.F ....
....|..|C-5 VF.F ....|--- .... ....|R-- .... ....
....|..|R-- .... ....|--- .... ....|A-4 2F.F ....
....|..|C-5 VF.F ....|--- .... ....|B-4 2F.F ....
 C#4|..|C#3 2C.F ....|--- .... ....|B-4 2F.F ....
....|..|C-5 VF.F ....|--- .... ....|--- .... ....
....|..|R-- .... ....|--- .... ....|G#5 2F.7 ....
....|..|C-4 AF.F ....|--- .... ....|C#5 2F.F ....
....|..|R-- .... ....|--- .... ....|D#5 2F.F ....
....|..|C-5 VF.F ....|--- .... ....|C#5 2F.F ....
....|..|R-- .... ....|--- .... ....|A-4 2F.F ....
....|..|C-5 VF.F ....|--- .... ....|E-3 2F2F ....
 A-3|..|A-2 2C.F ....|--- .... ....|B-4 2F.F ....
....|..|C-5 VF.F ....|--- .... ....|R-- .... ....
....|..|R-- .... ....|--- .... ....|G#5 2F.7 ....
....|..|C-4 AF.F ....|--- .... ....|B-4 2F.A ....
....|..|R-- .... ....|--- .... ....|D#5 2F.F ....
....|..|C-5 VF.F ....|--- .... ....|C#5 2F.F ....
....|..|R-- .... ....|--- .... ....|A-4 2F.F ....
....|..|C-5 VF.F ....|--- .... ....|E-3 2F2F ....
 A-3|..|A-2 2C.F ....|--- .... ....|B-4 2F.F ....
....|..|C-5 VF.F ....|--- .... ....|C#5 2F.A ....
....|..|R-- .... ....|--- .... ....|R-- .... ....
....|..|C-4 AF.F ....|--- .... ....|G#4 2F.7 ....
....|..|R-- .... ....|--- .... ....|C#5 2F.F ....
....|..|C-5 VF.F ....|--- .... ....|R-- .... ....
....|..|R-- .... ....|--- .... ....|A-4 2F.F ....
....|..|C-5 VF.F ....|--- .... ....|E-3 2F2F ....
 A-3|..|A-2 2C.F ....|--- .... ....|B-4 2F.F ....
....|..|C-5 VF.F ....|--- .... ....|C#5 2F.A ....
....|..|R-- .... ....|--- .... ....|R-- .... ....
....|..|C-4 AF.F ....|--- .... ....|C#5 2F.7 ....
....|..|R-- .... ....|--- .... ....|C#5 2F.F ....
....|..|C-5 VF.F ....|--- .... ....|C#5 2F.7 ....
....|..|R-- .... ....|--- .... ....|C#5 2F.F ....
....|..|C-5 VF.F ....|--- .... ....|A-4 2F.F ....
 A-3|..|A-2 2C.F ....|--- .... ....|B-4 2F.F ....
....|..|C-5 VF.F ....|--- .... ....|--- .... ....
....|..|R-- .... ....|--- .... ....|R-- .... ....
....|..|C-4 AF.F ....|--- .... ....|F#3 2F5F ....

[Pattern69]
....|..|R-- .... ....|--- .... ....|C#5 2F.F ....
....|..|C-5 VF.F ....|--- .... ....|C#5 2F.7 ....
....|..|R-- .... ....|--- .... ....|A-4 2F.7 ....
....|..|C-5 VF.F ....|--- .... ....|F#3 2F5F ....
 F#4|..|F#2 2A.F ....|--- .... ....|B-4 2F.7 ....
....|..|C-5 VF.F ....|--- .... ....|--- .... ....
....|..|R-- .... ....|--- .... ....|R-- .... ....
....|..|C-4 AF.F ....|--- .... ....|A-4 2F.A ....
....|..|R-- .... ....|--- .... ....|C#5 2F.7 ....
....|..|C-5 VF.F ....|--- .... ....|--- .... ....
....|..|R-- .... ....|--- .... ....|A-4 2F.7 ....
....|..|C-5 VF.F ....|--- .... ....|F#3 2F5F ....
 F#4|..|F#2 2A.F ....|--- .... ....|B-4 2F.7 ....
....|..|C-5 VF.F ....|--- .... ....|--- .... ....
....|..|R-- .... ....|--- .... ....|R-- .... ....
....|..|C-4 AF.F ....|--- .... ....|F#3 2F5A ....
....|..|C-5 VF.F ....|--- .... ....|C#5 2F.7 ....
....|..|C-5 VF.F ....|--- .... ....|--- .... ....
....|..|C-5 VF.F ....|--- .... ....|C#5 2F.7 ....
....|..|C-5 VF.F ....|--- .... ....|F#3 2F5F ....
....|..|C-5 VF.F ....|--- .... ....|B-4 2F.7 ....
....|..|C-5 VF.F ....|--- .... ....|--- .... ....
....|..|C-5 VF.F ....|--- .... ....|R-- .... ....
....|..|C-4 AF.F ....|--- .... ....|F#3 2F57 ....
....|..|C-5 VF.F ....|--- .... ....|C#5 2F.7 ....
....|..|C-5 VF.F ....|--- .... ....|--- .... ....
....|..|C-5 VF.F ....|--- .... ....|R-- .... ....
....|..|C-5 VF.F ....|--- .... ....|F#3 2F5F ....
....|..|C-5 VF.F ....|--- .... ....|--- .... ....
....|..|C-5 VF.F ....|--- .... ....|--- .... ....
....|..|C-5 VF.F ....|--- .... ....|R-- .... ....
....|..|C-5 VF.F ....|--- .... ....|F#3 2F5A ....
....|..|R-- .... ....|--- .... ....|--- .... ....
....|..|C-5 VF.7 ....|--- .... ....|--- .... ....
....|..|R-- .... ....|--- .... ....|R-- .... ....
....|..|C-5 VF.7 ....|--- .... ....|F#3 2F57 ....
....|..|F#2 2F.7 ....|--- .... ....|--- .... ....
....|..|C-5 VF.7 ....|--- .... ....|--- .... ....
....|..|R-- .... ....|--- .... ....|R-- .... ....
....|..|C-4 AF.7 ....|--- .... ....|F#3 2F5A ....
....|..|C-5 VF.7 ....|--- .... ....|--- .... ....
....|..|C-5 VF.7 ....|--- .... ....|--- .... ....
....|..|C-5 VF.7 ....|--- .... ....|R-- .... ....
....|..|C-5 VF.7 ....|--- .... ....|F#3 2F57 ....
....|..|C-5 VF.7 ....|--- .... ....|--- .... ....
....|..|C-5 VF.7 ....|--- .... ....|--- .... ....
....|..|C-5 VF.7 ....|--- .... ....|R-- .... ....
....|..|C-4 AF.7 ....|--- .... ....|--- .... ....
....|..|C-5 VF.7 ....|--- .... ....|--- .... ....
....|..|C-5 VF.7 ....|--- .... ....|--- .... ....
....|..|C-5 VF.7 ....|--- .... ....|--- .... ....
....|..|C-5 VF.7 ....|--- .... ....|F#3 2F57 ....
....|..|C-5 VF.7 ....|--- .... ....|--- .... ....
....|..|C-5 VF.7 ....|--- .... ....|--- .... ....
....|..|C-5 VF.7 ....|--- .... ....|R-- .... ....
....|..|C-5 VF.7 ....|--- .... ....|--- .... ....
....|..|R-- .... ....|--- .... ....|--- .... ....
....|..|--- .... ....|--- .... ....|--- .... ....
....|..|--- .... ....|--- .... ....|--- .... ....
....|..|--- .... ....|--- .... ....|--- .... ....
....|..|--- .... ....|--- .... ....|--- .... ....
....|..|--- .... ....|--- .... ....|--- .... ....
....|..|--- .... ....|--- .... ....|--- .... ....
....|..|--- .... ....|--- .... ....|--- .... ....

[Pattern70]
....|..|--- .... ....|--- .... ....|--- .... ....
....|..|--- .... ....|--- .... ....|--- .... ....
....|..|--- .... ....|--- .... ....|--- .... ....
....|..|--- .... ....|--- .... ....|--- .... ....
....|..|--- .... ....|--- .... ....|--- .... ....
....|..|--- .... ....|--- .... ....|--- .... ....
....|..|--- .... ....|--- .... ....|--- .... ....
....|..|--- .... ....|--- .... ....|--- .... ....
....|..|--- .... ....|--- .... ....|--- .... ....
....|..|--- .... ....|--- .... ....|--- .... ....
....|..|--- .... ....|--- .... ....|--- .... ....
....|..|--- .... ....|--- .... ....|--- .... ....
....|..|--- .... ....|--- .... ....|--- .... ....
....|..|--- .... ....|--- .... ....|--- .... ....
....|..|--- .... ....|--- .... ....|--- .... ....
....|..|--- .... ....|--- .... ....|--- .... ....
....|..|--- .... ....|--- .... ....|--- .... ....
....|..|--- .... ....|--- .... ....|--- .... ....
....|..|--- .... ....|--- .... ....|--- .... ....
....|..|--- .... ....|--- .... ....|--- .... ....
....|..|--- .... ....|--- .... ....|--- .... ....
....|..|--- .... ....|--- .... ....|--- .... ....
....|..|--- .... ....|--- .... ....|--- .... ....
....|..|--- .... ....|--- .... ....|--- .... ....
....|..|--- .... ....|--- .... ....|--- .... ....
....|..|--- .... ....|--- .... ....|--- .... ....
....|..|--- .... ....|--- .... ....|--- .... ....
....|..|--- .... ....|--- .... ....|--- .... ....
....|..|--- .... ....|--- .... ....|--- .... ....
....|..|--- .... ....|--- .... ....|--- .... ....
....|..|--- .... ....|--- .... ....|--- .... ....
....|..|--- .... ....|--- .... ....|--- .... ....
....|..|--- .... ....|--- .... ....|--- .... ....
....|..|--- .... ....|--- .... ....|--- .... ....
....|..|--- .... ....|--- .... ....|--- .... ....
....|..|--- .... ....|--- .... ....|--- .... ....
....|..|--- .... ....|--- .... ....|--- .... ....
....|..|--- .... ....|--- .... ....|--- .... ....
....|..|--- .... ....|--- .... ....|--- .... ....
....|..|--- .... ....|--- .... ....|--- .... ....
....|..|--- .... ....|--- .... ....|--- .... ....
....|..|--- .... ....|--- .... ....|--- .... ....
....|..|--- .... ....|--- .... ....|--- .... ....
....|..|--- .... ....|--- .... ....|--- .... ....
....|..|--- .... ....|--- .... ....|--- .... ....
....|..|--- .... ....|--- .... ....|--- .... ....
....|..|--- .... ....|--- .... ....|--- .... ....
....|..|--- .... ....|--- .... ....|--- .... ....
....|..|--- .... ....|--- .... ....|--- .... ....
....|..|--- .... ....|--- .... ....|--- .... ....
....|..|--- .... ....|--- .... ....|--- .... ....
....|..|--- .... ....|--- .... ....|--- .... ....
....|..|--- .... ....|--- .... ....|--- .... ....
....|..|--- .... ....|--- .... ....|--- .... ....
