[Module]
VortexTrackerII=1
Version=3.6
Title=
Author=
NoteTable=4
ChipFreq=2000000
Speed=4
PlayOrder=L0

[Ornament1]
L0,0,4,4,7,7

[Ornament2]
L0,0,3,3,7,7

[Ornament3]
L4,4,4,4,4,4,4,4,4,4,4,7,7,7,7,7,7,7,7,7,7,7,11,11,11,11,11,11,11,11,11,11

[Ornament4]
L0

[Ornament5]
L0

[Ornament6]
L0

[Ornament7]
L0

[Ornament8]
L0

[Ornament9]
L0

[Ornament10]
L0

[Ornament11]
L0

[Ornament12]
L0

[Ornament13]
L0

[Ornament14]
L0

[Ornament15]
L0

[Sample1]
tne +000_ +00_ 0_ L

[Sample2]
Tne +000_ +00_ F_ L

[Sample3]
Tne +000_ +00_ F_ L
Tne +000_ +00_ E_
Tne +000_ +00_ D_
Tne +000_ +00_ B_
Tne +000_ +00_ A_
Tne +000_ +00_ 8_
Tne +000_ +00_ 6_
Tne +000_ +00_ 5_
Tne +000_ +00_ 3_
Tne +000_ +00_ 2_
Tne +000_ +00_ 1_
Tne +000_ +00_ F_
Tne +000_ +00_ F_
Tne +000_ +00_ E_
Tne +000_ +00_ E_
Tne +000_ +00_ D_
Tne +000_ +00_ B_
Tne +000_ +00_ A_
Tne +000_ +00_ 8_
Tne +000_ +00_ 6_
Tne +000_ +00_ 2_
Tne +000_ +00_ E_
Tne +000_ +00_ C_
Tne +000_ +00_ A_
Tne +000_ +00_ 9_
Tne +000_ +00_ 8_
Tne +000_ +00_ 7_
Tne +000_ +00_ 5_
Tne +000_ +00_ 3_
Tne +000_ +00_ 3_
Tne +000_ +00_ 2_
Tne +000_ +00_ 1_

[Sample4]
tne +000_ +00_ F_
tne +000_ +00_ F_
Tne +000_ +00_ E_
Tne +000_ +00_ D_
Tne +000_ +00_ C_
Tne +000_ +00_ B_
Tne +000_ +00_ A_
Tne +000_ +00_ 9_
Tne +000_ +00_ 8_
Tne +000_ +00_ 7_
Tne +000_ +00_ 5_
Tne +000_ +00_ 4_
Tne +000_ +00_ 3_
Tne +000_ +00_ 3_
Tne +000_ +00_ 1_
Tne +000_ +00_ 1_
Tne +000_ +00_ 1_ L

[Sample5]
Tne +000_ +00_ F_
Tne +06C_ +00_ D_
Tne +0E6_ +00_ C_
Tne +16F_ +00_ B_
Tne +1B9_ +00_ B_
Tne +25C_ +00_ 6_
Tne +312_ +00_ 2_
Tne +312_ +00_ 0_
tne +000_ +00_ 0_ L

[Sample6]
tnE +000_ +00_ 0_ L

[Sample7]
tne +000_ +00_ 0_ L

[Sample8]
tne +000_ +00_ 0_ L

[Sample9]
tne +000_ +00_ 0_ L

[Sample10]
tne +000_ +00_ 0_ L

[Sample11]
tne +000_ +00_ 0_ L

[Sample12]
tne +000_ +00_ 0_ L

[Sample13]
tne +000_ +00_ 0_ L

[Sample14]
tne +000_ +00_ 0_ L

[Sample15]
tne +000_ +00_ 0_ L

[Sample16]
tne +000_ +00_ 0_ L

[Sample17]
tne +000_ +00_ 0_ L

[Sample18]
tne +000_ +00_ 0_ L

[Sample19]
tne +000_ +00_ 0_ L

[Sample20]
tne +000_ +00_ 0_ L

[Sample21]
tne +000_ +00_ 0_ L

[Sample22]
tne +000_ +00_ 0_ L

[Sample23]
tne +000_ +00_ 0_ L

[Sample24]
tne +000_ +00_ 0_ L

[Sample25]
tne +000_ +00_ 0_ L

[Sample26]
tne +000_ +00_ 0_ L

[Sample27]
tne +000_ +00_ 0_ L

[Sample28]
tne +000_ +00_ 0_ L

[Sample29]
tne +000_ +00_ 0_ L

[Sample30]
tne +000_ +00_ 0_ L

[Sample31]
tne +000_ +00_ 0_ L

[Pattern0]
....|..|F-4 313F ....|C-2 5F.. ....|--- .... ....
....|..|--- .... ....|--- .... ....|--- .... ....
 D-2|..|--- .... ....|D-1 6E.. ....|--- .... ....
....|..|--- .... ....|--- .... ....|--- .... ....
....|..|--- .... ....|C-2 5F.. ....|--- .... ....
....|..|--- .... ....|--- .... ....|--- .... ....
 D-3|..|--- .... ....|D-2 6E.. ....|--- .... ....
....|..|--- .... ....|--- .... ....|--- .... ....
....|..|--- .... ....|C-2 5F.. ....|--- .... ....
....|..|--- .... ....|--- .... ....|--- .... ....
 D-2|..|--- .... ....|D-1 6E.. ....|--- .... ....
....|..|--- .... ....|--- .... ....|--- .... ....
 D-2|..|--- .... ....|C-2 5F.. ....|--- .... ....
....|..|--- .... ....|--- .... ....|--- .... ....
 D-3|..|--- .... ....|D-2 6E.. ....|--- .... ....
....|..|--- .... ....|--- .... ....|--- .... ....
....|..|C-4 .... ....|C-2 5F.. ....|--- .... ....
....|..|--- .... ....|--- .... ....|--- .... ....
 E-2|..|--- .... ....|E-1 6E.. ....|--- .... ....
....|..|--- .... ....|--- .... ....|--- .... ....
....|..|--- .... ....|C-2 5F.. ....|--- .... ....
....|..|--- .... ....|--- .... ....|--- .... ....
 E-3|..|--- .... ....|E-2 6E.. ....|--- .... ....
....|..|--- .... ....|--- .... ....|--- .... ....
....|..|--- .... ....|C-2 5F.. ....|--- .... ....
....|..|--- .... ....|--- .... ....|--- .... ....
 E-2|..|--- .... ....|E-1 6E.. ....|--- .... ....
....|..|--- .... ....|--- .... ....|--- .... ....
....|..|--- .... ....|C-2 5F.. ....|--- .... ....
....|..|--- .... ....|--- .... ....|--- .... ....
 E-3|..|--- .... ....|E-2 6E.. ....|--- .... ....
....|..|--- .... ....|--- .... ....|--- .... ....
....|..|G-3 313. ....|C-2 5F.. ....|--- .... ....
....|..|--- .... ....|--- .... ....|--- .... ....
 F-2|..|--- .... ....|F-1 6E.. ....|--- .... ....
....|..|--- .... ....|--- .... ....|--- .... ....
....|..|--- .... ....|C-2 5F.. ....|--- .... ....
....|..|--- .... ....|--- .... ....|--- .... ....
 F-3|..|--- .... ....|F-2 6E.. ....|--- .... ....
....|..|--- .... ....|--- .... ....|--- .... ....
....|..|--- .... ....|C-2 5F.. ....|--- .... ....
....|..|--- .... ....|--- .... ....|--- .... ....
 F-2|..|--- .... ....|F-1 6E.. ....|--- .... ....
....|..|--- .... ....|--- .... ....|--- .... ....
....|..|--- .... ....|C-2 5F.. ....|--- .... ....
....|..|--- .... ....|--- .... ....|--- .... ....
 F-3|..|--- .... ....|F-2 6E.. ....|--- .... ....
....|..|--- .... ....|--- .... ....|--- .... ....
....|..|F-3 .... ....|C-2 5F.. ....|--- .... ....
....|..|--- .... ....|--- .... ....|--- .... ....
 G-2|..|--- .... ....|G-1 6E.. ....|--- .... ....
....|..|--- .... ....|--- .... ....|--- .... ....
....|..|--- .... ....|C-2 5F.. ....|--- .... ....
....|..|--- .... ....|--- .... ....|--- .... ....
 G-3|..|--- .... ....|G-2 6E.. ....|--- .... ....
....|..|--- .... ....|--- .... ....|--- .... ....
....|..|--- .... ....|C-2 5F.. ....|--- .... ....
....|..|--- .... ....|--- .... ....|--- .... ....
 G-2|..|--- .... ....|G-1 6E.. ....|--- .... ....
....|..|--- .... ....|--- .... ....|--- .... ....
....|..|--- .... ....|C-2 5F.. ....|--- .... ....
....|..|--- .... ....|--- .... ....|--- .... ....
 G-3|..|--- .... ....|G-2 6E.. ....|--- .... ....
....|..|--- .... ....|--- .... ....|--- .... ....

