[Module]
VortexTrackerII=0
Version=3.5
Title=swoon by chemical brothers
Author=oisee ^ 4d 29.05.2010
NoteTable=4
ChipFreq=1750000
Speed=4
PlayOrder=L6

[Ornament1]
L0

[Ornament2]
L7,7,2,2,0,0

[Ornament3]
L0,0,3,3,7,7,12,12

[Ornament4]
L0,0,4,4,7,7,12,12

[Ornament5]
L0,0,5,5,8,8,12,12

[Ornament6]
L0,0,3,3,6,6,12,12

[Ornament7]
L0,3,7

[Ornament8]
L0,0,3,3,8,8,12,12

[Ornament9]
0,-12,-12,-24,L-24

[Ornament10]
L0,0,12,12,0,0,12,12

[Ornament11]
24,12,0,-12,-24,-36,L-36

[Ornament12]
L0

[Ornament13]
1,L0

[Ornament14]
L0,24,0,0,0

[Ornament15]
L0,36,0,0

[Sample1]
TnE +000_ +00_ F_
TnE +000_ +00_ F_
TnE +000_ +00_ F_
TnE +000_ +00_ D_
TnE +000_ +00_ B_
TnE +000_ +00_ B_ L

[Sample2]
TnE +000_ +00_ F_ L

[Sample3]
TnE +001_ +00_ F_
TnE +002_ +00_ F_
TnE +001_ +00_ E_
TnE +002_ +00_ E_
TnE +000_ +00_ E_ L
TnE -001_ +00_ E_
TnE -002_ +00_ E_
TnE -001_ +00_ E_
TnE +000_ +00_ E_
TnE +001_ +00_ E_
TnE +002_ +00_ E_
TnE +001_ +00_ E_

[Sample4]
TnE +002_ +00_ D_
TnE +002_ +00_ D_
TnE +002_ +00_ C_
TnE +002_ +00_ B_
TnE +002_ +00_ A_ L
TnE +002_ +00_ A_
TnE +002_ +00_ A_
TnE +002_ +00_ A_
TnE +002_ +00_ A_
TnE +002_ +00_ A_
TnE +002_ +00_ A_
TnE +002_ +00_ A_

[Sample5]
TnE +000_ +00_ F_
TnE +000_ +00_ F_
tne +000_ +00_ 0_ L

[Sample6]
TnE -001_ +00_ F_ L

[Sample7]
TnE +006_ +00_ F_ L

[Sample8]
tNe +000_ +00_ F_
tNe +000_ +00_ B_
tNe +000_ +00_ 7_
tNe +000_ +00_ 6- L

[Sample9]
TnE +080_ +00_ F_
TnE +100_ +00_ E_
TnE +180_ +00_ E_
TnE +200_ +00_ E_
TnE +240_ +00_ D_
TnE +280_ +00_ D_
TnE +2C0_ +00_ D_
TnE +300_ +00_ C_
TnE +300_ +00_ C_
TnE +340_ +00_ C_
TnE +340_ +00_ C_
TnE +380_ +00_ B_
TnE +380_ +00_ B_
TnE +400_ +00_ B_
TnE +400_ +00_ B_
TnE +480_ +00_ A_
TnE +500_ +00_ 9_
TnE +580_ +00_ 7_
TnE +600_ +00_ 4_
TnE +680_ +00_ 1_
TnE +000_ +00_ 0_ L

[Sample10]
Tne +1C0_ +00_ F_
Tne +280_ +00_ E_
Tne +380_ +00_ C_
Tne +440_ +00_ A_
Tne +480_ +00_ 8_
TnE +000_ +00_ 0_ L

[Sample11]
TNe +200_ -0A_ F_
tNe +000_ +0F_ A_
TNe +200_ -07_ E_
tNe +000_ +0E_ B- L

[Sample12]
TNE +0A0_ +05_ F_
TNE +140_ +02_ D_
TNE +140_ +02_ B_
TNE +100_ +00_ A_ L
TNE +140_ +00_ A_
TNE +200_ +00_ A-

[Sample13]
Tne +200_ +00_ F_
Tne +2C0_ +00_ F_
Tne +380_ +00_ E_
Tne +500_ +00_ C_
Tne +520_ +00_ 9_
tne +000_ +00_ 0_ L

[Sample14]
TNE -100_ +00_ F_
TNE -100_ +00_ D_
TNE -100_ +00_ A_
TNE -100_ +00_ 5_
tne +000_ +00_ 0_ L

[Sample15]
TNE -100_ +00_ 5_
TNE -100_ +00_ 8_
TNE -100_ +00_ B_
TNE -100_ +00_ F_
TNe -100_ +00_ 9- L

[Sample16]
TnE +000_ +00_ C_
TnE +000_ +00_ E_
TnE +000_ +00_ F_
TnE +000_ +00_ F_
TnE +000_ +00_ E_
TnE +000_ +00_ D_
TnE +000_ +00_ C_
TnE +000_ +00_ C_ L
TnE +001_ +00_ C_
TnE +002_ +00_ C_
TnE +003_ +00_ C_
TnE +001_ +00_ C_
TnE +000_ +00_ C_
TnE -001_ +00_ C_
TnE -002_ +00_ C_
TnE -003_ +00_ C_
TnE -001_ +00_ C_
TnE +000_ +00_ C_
TnE +000_ +00_ C_

[Sample17]
Tne +1C0_ +00_ F_
Tne +280_ +00_ D_
Tne +380_ +00_ 7_
TNE +000_ +00_ 0_ L

[Sample18]
tnE +000_ +00_ 0_ L

[Sample19]
TNe +000_ +00_ F_
TNe +000_ +00_ C_
TNe +000_ +00_ 6_
TNe +000_ +01_ A- L

[Sample20]
TNE +140_ +00_ F_
tNE +000_ +00_ B- L

[Sample21]
tNE +000_ +00_ D_
tNE +000_ +00_ 8_
tNE +000_ +00_ 1_
TNE +000_ +00_ 0_ L

[Sample22]
TnE +000_ +00_ D_ L
TnE +000_ +00_ D_
tne +000_ +00_ 9_
tne +000_ +00_ 9_
TnE +000_ +00_ D_
TnE +000_ +00_ D_
tne +000_ +00_ 9_
tne +000_ +00_ 9_
TnE +000_ +00_ D_
TnE +000_ +00_ D_
TnE +000_ +00_ D_
TnE +000_ +00_ D_
TnE +000_ +00_ D_
TnE +000_ +00_ D_
tne +000_ +00_ 9_
tne +000_ +00_ 9_

[Sample23]
TnE +000_ +00_ F_ L
TnE +010_ +01_ F_
TnE +010_ +01_ F_
TnE +010_ +01_ F_
TnE +010_ +01_ F_
TnE +000_ +00_ F_
TnE +000_ +00_ F_
TnE -010_ -01_ F_
TnE -010_ -01_ F_
TnE -010_ -01_ F_
TnE -010_ -01_ F_
TnE +000_ +00_ F_

[Sample24]
TNe +000_ -01_ C_
TNe +000_ -01_ D_
TNe +000_ -01_ E_
TNe +000_ -01_ F_
TNe +000_ -01_ F_
TNe +000_ -01_ F_
TNe +000_ -01_ F_
TNe +000_ -01_ F_
TNe +000_ -01_ E_
TNe +000_ -01_ E_
TNe +000_ -01_ E_
TNe +000_ -01_ F_
TNe +000_ -01_ F_ L

[Sample25]
TNE +000_ +00_ F_
TNE +000_ +00_ F_ L
TNE +000_ +00_ F_
TNE +000_ +00_ F_
TNE +000_ +00_ F-

[Sample26]
TnE +000_ +00_ F_
TnE +000_ +00_ F_ L
TnE -060_ -06_ F_
TnE -060_ -06_ F_
TnE -0C0_ -0C_ F_
TnE -0C0_ -0C_ F_

[Sample27]
TnE +000_ +00_ F_
TnE +000_ +00_ F_ L
TnE -090_ -09_ F_
TnE -090_ -09_ F_
TnE -0E0_ -0E_ F_
TnE -0E0_ -0E_ F_

[Sample28]
TnE +000_ +00_ F_
TnE +000_ +00_ F_ L
TnE -060_ -06_ F_
TnE -060_ -06_ F_
TnE -0E0_ -0E_ F_
TnE -0E0_ -0E_ F_

[Sample29]
tne +000_ +00_ 0_ L

[Sample30]
TNE +000_ +00_ C+ L

[Sample31]
TNe +1C0_ +00_ F_
Tne +280_ +00_ E_
Tne +380_ +00_ C_
Tne +440_ +00_ A_
Tne +480_ +00_ 8_
TnE +000_ +00_ 0_ L

[Pattern0]
..16|..|C-4 DF.F ....|C-4 DF.F ....|C-4 DF.F ....
....|..|--- .... ....|--- .... ....|--- .... ....
..16|..|--- .... ....|--- .... ....|--- .... ....
....|..|--- .... ....|--- .... ....|--- .... ....
..16|..|C-4 L..B ....|C-4 L..B ....|C-4 L..F ....
....|..|--- .... ....|--- .... ....|--- .... ....
..16|..|--- .... ....|--- .... ....|--- .... ....
....|..|--- .... ....|--- .... ....|--- .... ....
..16|..|C-4 K..B ....|C-4 K..B ....|C-4 C..B ....
....|..|--- .... ....|--- .... ....|--- .... ....
..16|..|--- .... ....|--- .... ....|--- .... ....
....|..|--- .... ....|--- .... ....|--- .... ....
..16|..|C-4 D..F ....|C-4 D..F ....|C-4 K..B ....
....|..|--- .... ....|--- .... ....|--- .... ....
..16|..|--- .... ....|--- .... ....|C-4 L... ....
....|..|--- .... ....|--- .... ....|--- .... ....
..16|..|C-4 L..B ....|C-4 L..B ....|C-4 K..B ....
....|..|--- .... ....|--- .... ....|--- .... ....
..16|..|--- .... ....|--- .... ....|C-4 L... ....
....|..|--- .... ....|--- .... ....|--- .... ....
..16|..|--- ...F ....|--- ...F ....|C-4 L..F ....
....|..|--- .... ....|--- .... ....|--- .... ....
..16|..|--- .... ....|--- .... ....|--- .... ....
....|..|--- .... ....|--- .... ....|--- .... ....
..16|..|C-4 K..F ....|C-4 K..F ....|C-4 C..F ....
....|..|--- .... ....|--- .... ....|--- .... ....
....|..|C-4 L... ....|C-4 L... ....|--- .... ....
....|..|--- .... ....|--- .... ....|--- .... ....
..16|..|C-4 K..B ....|C-4 K..B ....|C-4 K..B ....
....|..|--- .... ....|--- .... ....|--- .... ....
..16|..|C-4 L... ....|C-4 L... ....|C-4 L... ....
....|..|--- .... ....|--- .... ....|--- .... ....
..16|..|C-4 D..B ....|C-4 D..B ....|C-4 D..B ....
....|..|--- .... ....|--- .... ....|--- .... ....
..16|..|--- .... ....|--- .... ....|--- .... ....
....|..|--- .... ....|--- .... ....|--- .... ....
..16|..|E-4 E..F ....|E-4 E..F ....|E-4 E..F ....
....|..|--- .... ....|--- .... ....|--- .... ....
..16|..|--- .... ....|--- .... ....|--- .... ....
....|..|--- .... ....|--- .... ....|--- .... ....
..16|..|C-4 A..B ....|C-4 A..B ....|C-4 A..B ....
....|..|--- .... ....|--- .... ....|--- .... ....
..16|..|--- .... ....|--- .... ....|--- .... ....
....|..|--- .... ....|--- .... ....|--- .... ....
..16|..|C-4 L..F ....|C-4 L..F ....|C-4 L..F ....
....|..|--- .... ....|--- .... ....|--- .... ....
..16|..|--- .... ....|--- .... ....|--- .... ....
....|..|--- .... ....|--- .... ....|--- .... ....
..16|..|E-4 E..F ....|E-4 E..F ....|E-4 E..F ....
....|..|--- .... ....|--- .... ....|--- .... ....
..16|..|--- .... ....|--- .... ....|--- .... ....
....|..|--- .... ....|--- .... ....|--- .... ....
..16|..|--- ...B ....|--- ...B ....|--- ...B ....
....|..|--- .... ....|--- .... ....|--- .... ....
..16|..|--- .... ....|--- .... ....|--- .... ....
....|..|--- .... ....|--- .... ....|--- .... ....
..16|..|C-4 K..B ....|C-4 K..B ....|C-4 K..B ....
....|..|--- .... ....|--- .... ....|--- .... ....
....|..|--- .... ....|--- .... ....|--- .... ....
....|..|--- .... ....|--- .... ....|--- .... ....
..16|..|C-4 L..F ....|C-4 L..F ....|C-4 L..F ....
....|..|--- .... ....|--- .... ....|--- .... ....
..16|..|--- .... ....|--- .... ....|--- .... ....
....|..|--- .... ....|--- .... ....|--- .... ....
..16|..|C-4 DF.F ....|C-4 DF.F ....|C-4 DF.F ....
....|..|--- .... ....|--- .... ....|--- .... ....
..16|..|--- .... ....|--- .... ....|--- .... ....
....|..|--- .... ....|--- .... ....|--- .... ....
..16|..|C-4 L..B ....|C-4 L..B ....|C-4 K..F ....
....|..|--- .... ....|--- .... ....|--- .... ....
..16|..|--- .... ....|--- .... ....|C-4 L... ....
....|..|--- .... ....|--- .... ....|--- .... ....
..16|..|C-4 K..B ....|C-4 K..B ....|C-4 K..B ....
....|..|--- .... ....|--- .... ....|--- .... ....
..16|..|--- .... ....|--- .... ....|C-4 L... ....
....|..|--- .... ....|--- .... ....|--- .... ....
..16|..|C-4 D..F ....|C-4 D..F ....|C-4 D..B ....
....|..|--- .... ....|--- .... ....|--- .... ....
..16|..|--- .... ....|--- .... ....|--- .... ....
....|..|--- .... ....|--- .... ....|--- .... ....
..16|..|C-4 L..B ....|C-4 L..B ....|C-4 L..B ....
....|..|--- .... ....|--- .... ....|--- .... ....
..16|..|--- .... ....|--- .... ....|--- .... ....
....|..|--- .... ....|--- .... ....|--- .... ....
..16|..|--- ...F ....|--- ...F ....|--- ...F ....
....|..|--- .... ....|--- .... ....|--- .... ....
..16|..|--- .... ....|--- .... ....|--- .... ....
....|..|--- .... ....|--- .... ....|--- .... ....
..16|..|C-4 K..F ....|C-4 K..F ....|C-4 K..F ....
....|..|--- .... ....|--- .... ....|--- .... ....
..16|..|C-4 L... ....|C-4 L... ....|C-4 L... ....
....|..|--- .... ....|--- .... ....|--- .... ....
..16|..|C-4 K..B ....|C-4 K..B ....|C-4 K..B ....
....|..|--- .... ....|--- .... ....|--- .... ....
..16|..|C-4 L... ....|C-4 L... ....|C-4 L... ....
....|..|--- .... ....|--- .... ....|--- .... ....
..16|..|C-4 D..B ....|C-4 D..B ....|C-4 D..B ....
....|..|--- .... ....|--- .... ....|--- .... ....
....|..|--- .... ....|--- .... ....|--- .... ....
....|..|--- .... ....|--- .... ....|--- .... ....
....|..|E-4 E..F ....|E-4 E..F ....|E-4 E..F ....
....|..|--- .... ....|--- .... ....|--- .... ....
....|..|--- .... ....|--- .... ....|--- .... ....
....|..|--- .... ....|--- .... ....|--- .... ....
....|..|C-4 A..B ....|C-4 A..B ....|C-4 A..B ....
....|..|--- .... ....|--- .... ....|--- .... ....
....|..|--- .... ....|--- .... ....|--- .... ....
....|..|--- .... ....|--- .... ....|--- .... ....
....|..|C-4 L..F ....|C-4 L..F ....|C-4 L..F ....
....|..|--- .... ....|--- .... ....|--- .... ....
....|..|--- .... ....|--- .... ....|--- .... ....
....|..|--- .... ....|--- .... ....|--- .... ....
....|..|E-4 E..F ....|E-4 E..F ....|E-4 E..F ....
....|..|--- .... ....|--- .... ....|--- .... ....
....|..|--- .... ....|--- .... ....|--- .... ....
....|..|--- .... ....|--- .... ....|--- .... ....
....|..|--- ...B ....|--- ...B ....|--- ...B ....
....|..|--- .... ....|--- .... ....|--- .... ....
....|..|--- .... ....|--- .... ....|--- .... ....
....|..|--- .... ....|--- .... ....|--- .... ....
....|..|C-4 K..B ....|C-4 K..B 11.4|C-4 K..B ....
....|..|--- .... ....|--- .... ....|--- .... ....
....|..|--- .... ....|--- .... ....|--- .... ....
....|..|--- .... ....|--- .... ....|--- .... ....
....|..|C-4 L..F ....|C-4 L..F ....|C-4 L..F ....
....|..|--- .... ....|--- .... ....|--- .... ....
....|..|--- .... ....|--- .... ....|--- .... ....
....|..|--- .... ....|--- .... ....|--- .... ....

[Pattern1]
....|..|E-4 2F9C ....|E-2 7F.C ....|C-4 DF.F ....
....|..|--- .... ....|--- .... ....|--- .... ....
....|..|--- ...B ....|--- ...B ....|C-4 L..B ....
....|..|--- .... ....|--- .... ....|--- .... ....
....|..|--- ...B ....|--- ...B ....|C-4 K..B ....
....|..|--- .... ....|--- .... ....|--- .... ....
....|..|--- ...C ....|--- ...C ....|C-4 D..F ....
....|..|--- .... ....|--- .... ....|--- .... ....
....|..|--- ...B ....|--- ...B ....|C-4 L..B ....
....|..|--- .... ....|--- .... ....|--- .... ....
....|..|--- ...B ....|--- ...B ....|--- ...F ....
....|..|--- .... ....|--- .... ....|--- .... ....
....|..|--- ...C ....|--- ...C ....|C-4 K..F ....
....|..|--- .... ....|--- .... ....|C-4 L... ....
..48|..|E-1 .C.B ....|E-1 7C.B ....|C-4 K..B ....
....|..|R-- .... ....|R-- .... ....|C-4 L... ....
..48|..|E-1 .C.B ....|E-1 .C.B ....|C-4 D..B ....
....|..|R-- .... ....|R-- .... ....|--- .... ....
....|..|--- ...C ....|--- ...C ....|E-4 E..F ....
....|..|--- .... ....|--- .... ....|--- .... ....
..24|..|E-2 .C.B ....|E-2 .C.B ....|C-4 A..B ....
....|..|R-- .... ....|R-- .... ....|--- .... ....
..12|..|E-2 .A.B ....|E-2 .A.B ....|C-4 L..F ....
....|..|R-- .... ....|R-- .... ....|--- .... ....
....|..|--- ...C ....|--- ...C ....|E-4 E..F ....
....|..|--- .... ....|--- .... ....|--- .... ....
....|..|--- ...B ....|--- ...B ....|--- ...B ....
....|..|--- .... ....|--- .... ....|--- .... ....
....|..|E-4 .F9C ....|E-2 MF.C ....|C-4 K..B ....
....|..|--- .... ....|--- .... ....|--- .... ....
....|..|--- ...B ....|--- ...B ....|C-4 L..F ....
....|..|--- .... ....|C-2 ...8 ....|--- .... ....
....|..|--- ...C ....|E-2 7F.C 3140|C-4 DF.F ....
....|..|--- .... ....|--- .... ....|--- .... ....
....|..|--- ...B ....|--- ...B ....|C-4 L..B ....
....|..|--- .... ....|--- .... ....|--- .... ....
....|..|--- ...B ....|--- ...B ....|C-4 K..B ....
....|..|--- .... ....|--- .... ....|--- .... ....
....|..|--- ...C ....|--- ...C ....|C-4 D..F ....
....|..|--- .... ....|--- .... ....|--- .... ....
....|..|--- ...B ....|--- ...B ....|C-4 L..B ....
....|..|--- .... ....|--- .... ....|--- .... ....
....|..|--- ...B ....|--- ...C ....|--- ...F ....
....|..|--- .... ....|--- .... ....|--- .... ....
....|..|--- ...C ....|--- ...C ....|C-4 K..F ....
....|..|--- .... ....|--- .... ....|C-4 L... ....
....|..|--- ...B ....|--- ...B ....|C-4 K..B ....
....|..|--- .... ....|--- .... ....|C-4 L... ....
....|..|--- ...B ....|--- ...B ....|C-4 D..B ....
....|..|--- .... ....|--- .... ....|--- .... ....
....|..|--- ...C ....|--- ...C ....|E-4 E..F ....
....|..|--- .... ....|--- .... ....|--- .... ....
....|..|--- ...B ....|--- ...B ....|C-4 A..B ....
....|..|--- .... ....|--- .... ....|--- .... ....
....|..|--- ...B ....|--- ...B ....|C-4 L..F ....
....|..|--- .... ....|--- .... ....|--- .... ....
....|..|--- ...C ....|--- ...C ....|E-4 E..F ....
....|..|--- .... ....|--- .... ....|--- .... ....
....|..|--- ...B ....|--- ...B ....|--- ...B ....
....|..|--- .... ....|--- .... ....|--- .... ....
....|..|--- ...C ....|--- ...C ....|C-4 K..B ....
....|..|--- .... ....|--- .... ....|--- .... ....
....|..|--- ...B ....|--- ...B ....|C-4 L..F ....
....|..|--- .... ....|--- .... ....|--- .... ....

[Pattern2]
....|..|E-2 2F.C ....|E-2 7F.C ....|C-4 DF.F ....
....|..|--- .... ....|--- .... ....|--- .... ....
....|..|--- ...B ....|--- ...B ....|C-4 L..B ....
....|..|--- .... ....|--- .... ....|--- .... ....
....|..|--- ...B ....|--- ...B ....|C-4 K..B ....
....|..|--- .... ....|--- .... ....|--- .... ....
....|..|--- ...C ....|--- ...C ....|C-4 D..F ....
....|..|--- .... ....|--- .... ....|--- .... ....
....|..|--- ...B ....|--- ...B ....|C-4 L..B ....
....|..|--- .... ....|--- .... ....|--- .... ....
....|..|--- ...B ....|--- ...B ....|--- ...F ....
....|..|--- .... ....|--- .... ....|--- .... ....
....|..|--- ...C ....|--- ...C ....|C-4 K..F ....
....|..|--- .... ....|--- .... ....|C-4 L... ....
..48|..|E-1 .C.B ....|E-1 7C.B ....|C-4 K..B ....
....|..|R-- .... ....|R-- .... ....|C-4 L... ....
..48|..|E-1 .C.B ....|E-1 .C.B ....|C-4 D..B ....
....|..|R-- .... ....|R-- .... ....|--- .... ....
....|..|--- ...C ....|--- ...C ....|E-4 E..F ....
....|..|--- .... ....|--- .... ....|--- .... ....
..24|..|E-2 .C.B ....|E-2 .C.B ....|C-4 A..B ....
....|..|R-- .... ....|R-- .... ....|--- .... ....
..12|..|E-2 .A.B ....|E-2 .A.B ....|C-4 L..F ....
....|..|R-- .... ....|R-- .... ....|--- .... ....
....|..|--- ...C ....|--- ...C ....|E-4 E..F ....
....|..|--- .... ....|--- .... ....|--- .... ....
....|..|--- ...B ....|--- ...B ....|--- ...B ....
....|..|--- .... ....|--- .... ....|--- .... ....
....|1F|R-- .F.C ....|E-3 PFFC ....|C-4 K..B ....
....|1F|--- .... ....|--- .... ....|--- .... ....
....|1F|--- ...B ....|--- ...B ....|C-4 L..F ....
....|..|--- .... ....|C-2 ...8 ....|--- .... ....
....|..|E-2 ...C ....|E-2 7F.C 3140|C-4 DF.F ....
....|..|--- .... ....|--- .... ....|--- .... ....
....|1F|--- ...B ....|E-3 PFFC ....|C-4 L..B ....
....|1F|--- .... ....|--- .... ....|--- .... ....
....|1F|--- ...B ....|--- ...B ....|C-4 K..B ....
....|..|--- .... ....|G-2 ...8 ....|--- .... ....
....|..|--- ...C ....|E-2 7F.C 3140|C-4 D..F ....
....|..|--- .... ....|--- .... ....|--- .... ....
....|1F|--- ...B ....|E-3 PFFC ....|C-4 L..B ....
....|1F|--- .... ....|--- .... ....|--- .... ....
....|1F|--- ...B ....|--- ...B ....|--- ...F ....
....|..|--- .... ....|C-2 ...8 ....|--- .... ....
....|..|--- ...C ....|E-2 7F.C 3140|C-4 K..F ....
....|..|--- .... ....|--- .... ....|C-4 L... ....
....|1F|--- ...B ....|E-3 PFFC ....|C-4 K..B ....
....|1F|--- .... ....|--- .... ....|C-4 L... ....
....|1F|--- ...B ....|--- ...B ....|C-4 D..B ....
....|..|--- .... ....|G-2 ...8 ....|--- .... ....
....|..|--- ...C ....|E-2 7F.C 3140|E-4 E..F ....
....|..|--- .... ....|--- .... ....|--- .... ....
....|1F|--- ...B ....|E-3 PFFC ....|C-4 A..B ....
....|1F|--- .... ....|--- .... ....|--- .... ....
....|1F|--- ...B ....|--- ...B ....|C-4 L..F ....
....|..|--- .... ....|C-2 ...8 ....|--- .... ....
....|..|--- ...C ....|E-2 7F.C 3140|E-4 E..F ....
....|..|--- .... ....|--- .... ....|--- .... ....
....|1F|--- ...B ....|E-3 PFFC ....|--- ...B ....
....|1F|--- .... ....|--- .... ....|--- .... ....
....|1F|--- ...C ....|--- ...B ....|C-4 K..B ....
....|..|--- .... ....|G-2 ...8 ....|--- .... ....
....|..|--- ...B ....|E-2 7F.C 3140|C-4 L..F ....
....|..|--- .... ....|--- .... ....|--- .... ....

[Pattern3]
....|..|E-2 2F.C ....|E-5 2F9C ....|C-4 DF.F ....
....|..|--- .... ....|--- .... ....|--- .... ....
....|..|--- ...B ....|E-4 ...B ....|C-4 L..B ....
....|..|--- .... ....|--- .... ....|--- .... ....
....|..|--- ...B ....|E-4 ...B ....|C-4 K..B ....
....|..|--- .... ....|--- .... ....|--- .... ....
....|..|--- ...C ....|E-5 ...C ....|C-4 D..F ....
....|..|--- .... ....|--- .... ....|--- .... ....
....|..|--- ...B ....|E-4 ...B ....|C-4 L..B ....
....|..|--- .... ....|--- .... ....|--- .... ....
....|..|--- ...B ....|E-4 ...B ....|--- ...F ....
....|..|--- .... ....|--- .... ....|--- .... ....
....|..|--- ...C ....|E-5 ...C ....|C-4 K..F ....
....|..|--- .... ....|--- .... ....|C-4 L... ....
..48|..|E-1 .C.B ....|E-1 7C.B ....|C-4 K..B ....
....|..|R-- .... ....|R-- .... ....|C-4 L... ....
..48|..|E-1 .C.B ....|E-1 .C.B ....|C-4 D..B ....
....|..|R-- .... ....|R-- .... ....|--- .... ....
....|..|--- ...C ....|--- ...C ....|E-4 E..F ....
....|..|--- .... ....|--- .... ....|--- .... ....
..24|..|E-2 .C.B ....|E-2 .C.B ....|C-4 A..B ....
....|..|R-- .... ....|R-- .... ....|--- .... ....
..12|..|E-2 .A.B ....|E-2 .A.B ....|C-4 L..F ....
....|..|R-- .... ....|R-- .... ....|--- .... ....
....|..|--- ...C ....|--- ...C ....|E-4 E..F ....
....|..|--- .... ....|--- .... ....|--- .... ....
....|..|--- ...B ....|--- ...B ....|--- ...B ....
....|..|--- .... ....|--- .... ....|--- .... ....
....|..|E-2 .F.C ....|E-2 ...C ....|C-4 K..B ....
....|..|--- .... ....|--- .... ....|--- .... ....
....|..|--- ...B ....|--- ...B ....|C-4 L..F ....
....|..|--- .... ....|--- .... ....|--- .... ....
....|..|--- ...C ....|E-2 .F.C 3140|C-4 DF.F ....
....|..|--- .... ....|--- .... ....|--- .... ....
....|..|--- ...B ....|--- ...B ....|C-4 L..B ....
....|..|--- .... ....|--- .... ....|--- .... ....
....|..|--- ...B ....|--- ...B ....|C-4 K..B ....
....|..|--- .... ....|--- .... ....|--- .... ....
....|..|--- ...C ....|--- ...C ....|C-4 D..F ....
....|..|--- .... ....|--- .... ....|--- .... ....
....|..|--- ...B ....|--- ...B ....|C-4 L..B ....
....|..|--- .... ....|--- .... ....|--- .... ....
....|..|--- ...B ....|--- ...C ....|--- ...F ....
....|..|--- .... ....|--- .... ....|--- .... ....
....|..|--- ...C ....|--- ...C ....|C-4 K..F ....
....|..|--- .... ....|--- .... ....|C-4 L... ....
....|..|--- ...B ....|--- ...B ....|C-4 K..B ....
....|..|--- .... ....|--- .... ....|C-4 L... ....
....|..|--- ...B ....|--- ...B ....|C-4 D..B ....
....|..|--- .... ....|--- .... ....|--- .... ....
....|..|--- ...C ....|--- ...C ....|E-4 E..F ....
....|..|--- .... ....|--- .... ....|--- .... ....
....|..|--- ...B ....|--- ...B ....|C-4 A..B ....
....|..|--- .... ....|--- .... ....|--- .... ....
....|..|--- ...B ....|--- ...B ....|C-4 L..F ....
....|..|--- .... ....|--- .... ....|--- .... ....
....|..|--- ...C ....|--- ...C ....|E-4 E..F ....
....|..|--- .... ....|--- .... ....|--- .... ....
....|..|--- ...B ....|--- ...B ....|--- ...B ....
....|..|--- .... ....|--- .... ....|--- .... ....
....|..|--- ...C ....|--- ...C ....|C-4 K..B ....
....|..|--- .... ....|--- .... ....|--- .... ....
....|..|--- ...B ....|--- ...B ....|C-4 L..F ....
....|..|--- .... ....|--- .... ....|--- .... ....

[Pattern4]
....|..|E-4 1FA8 ....|E-2 7F.C ....|C-4 DF.F ....
....|..|--- .... ....|--- .... ....|--- .... ....
....|..|A-4 ...6 ....|--- ...B ....|C-4 L..B ....
....|..|F-4 ...8 ....|--- .... ....|--- .... ....
....|..|--- .... ....|--- ...B ....|C-4 K..B ....
....|..|E-4 ...6 ....|--- .... ....|--- .... ....
....|..|A-4 ...8 ....|--- ...C ....|C-4 D..F ....
....|..|--- .... ....|--- .... ....|--- .... ....
....|..|F-4 ...6 ....|--- ...B ....|C-4 L..B ....
....|..|E-4 ...8 ....|--- .... ....|--- .... ....
....|..|--- .... ....|--- ...B ....|--- ...F ....
....|..|A-4 ...6 ....|--- .... ....|--- .... ....
....|..|F-4 ...8 ....|--- ...C ....|C-4 K..F ....
....|..|--- .... ....|--- .... ....|C-4 L... ....
..48|..|E-1 .C.B ....|E-1 7C.B ....|C-4 K..B ....
....|..|R-- .... ....|R-- .... ....|C-4 L... ....
..48|..|E-1 .C.B ....|E-1 .C.B ....|C-4 D..B ....
....|..|R-- .... ....|R-- .... ....|--- .... ....
....|..|--- ...C ....|--- ...C ....|E-4 E..F ....
....|..|--- .... ....|--- .... ....|--- .... ....
..24|..|E-2 .C.B ....|E-2 .C.B ....|C-4 A..B ....
....|..|R-- .... ....|R-- .... ....|--- .... ....
..12|..|E-2 .A.B ....|E-2 .A.B ....|C-4 L..F ....
....|..|R-- .... ....|R-- .... ....|--- .... ....
....|..|--- ...C ....|--- ...C ....|E-4 E..F ....
....|..|--- .... ....|--- .... ....|--- .... ....
....|..|--- ...B ....|--- ...B ....|--- ...B ....
....|..|--- .... ....|--- .... ....|--- .... ....
....|..|E-2 .F.C ....|E-2 ...C ....|C-4 K..B ....
....|..|--- .... ....|--- .... ....|--- .... ....
....|..|--- ...B ....|--- ...B ....|C-4 L..F ....
....|..|--- .... ....|--- .... ....|--- .... ....
....|..|E-4 1FA8 ....|E-2 .F.C 3140|C-4 DF.F ....
....|..|--- .... ....|--- .... ....|--- .... ....
....|..|--- ...6 ....|--- ...B ....|C-4 L..B ....
....|..|F-4 ...8 ....|--- .... ....|--- .... ....
....|..|--- .... ....|--- ...B ....|C-4 K..B ....
....|..|E-4 ...6 ....|--- .... ....|--- .... ....
....|..|A-4 ...8 ....|--- ...C ....|C-4 D..F ....
....|..|--- .... ....|--- .... ....|--- .... ....
....|..|F-4 ...6 ....|--- ...B ....|C-4 L..B ....
....|..|E-4 ...8 ....|--- .... ....|--- .... ....
....|..|--- .... ....|--- ...C ....|--- ...F ....
....|..|A-4 ...6 ....|--- .... ....|--- .... ....
....|..|F-4 ...8 ....|--- ...C ....|C-4 K..F ....
....|..|--- .... ....|--- .... ....|C-4 L... ....
....|..|E-4 ...6 ....|--- ...B ....|C-4 K..B ....
....|..|B-4 ...8 ....|--- .... ....|C-4 L... ....
....|..|--- .... ....|--- ...B ....|C-4 D..B ....
....|..|F-4 ...6 ....|--- .... ....|--- .... ....
....|..|E-4 ...8 ....|--- ...C ....|E-4 E..F ....
....|..|--- .... ....|--- .... ....|--- .... ....
....|..|B-4 ...6 ....|--- ...B ....|C-4 A..B ....
....|..|F-4 ...8 ....|--- .... ....|--- .... ....
....|..|--- .... ....|--- ...B ....|C-4 L..F ....
....|..|E-4 ...6 ....|--- .... ....|--- .... ....
....|..|A-4 ...8 ....|--- ...C ....|E-4 E..F ....
....|..|--- .... ....|--- .... ....|--- .... ....
....|..|F-4 ...6 ....|--- ...B ....|--- ...B ....
....|..|E-4 ...8 ....|--- .... ....|--- .... ....
....|..|--- .... ....|--- ...C ....|C-4 K..B ....
....|..|A-4 ...6 ....|--- .... ....|--- .... ....
....|..|F-4 ...8 ....|--- ...B ....|C-4 L..F ....
....|..|--- .... ....|--- .... ....|--- .... ....

[Pattern5]
....|..|E-4 1FA8 ....|E-2 7F.C ....|C-4 DF.F ....
....|..|--- .... ....|--- .... ....|--- .... ....
....|..|A-4 ...6 ....|--- ...B ....|C-4 L..B ....
....|..|F-4 ...8 ....|--- .... ....|--- .... ....
....|..|--- .... ....|--- ...B ....|C-4 K..B ....
....|..|E-4 ...6 ....|--- .... ....|--- .... ....
....|..|A-4 ...8 ....|--- ...C ....|C-4 D..F ....
....|..|--- .... ....|--- .... ....|--- .... ....
....|..|F-4 ...6 ....|--- ...B ....|C-4 L..B ....
....|..|E-4 ...8 ....|--- .... ....|--- .... ....
....|..|--- .... ....|--- ...B ....|--- ...F ....
....|..|A-4 ...6 ....|--- .... ....|--- .... ....
....|..|F-4 ...8 ....|--- ...C ....|C-4 K..F ....
....|..|--- .... ....|--- .... ....|C-4 L... ....
..48|..|E-1 .C.B ....|E-1 7C.B ....|C-4 K..B ....
....|..|R-- .... ....|R-- .... ....|C-4 L... ....
..48|..|E-1 .C.B ....|E-1 .C.B ....|C-4 D..B ....
....|..|R-- .... ....|R-- .... ....|--- .... ....
....|..|--- ...C ....|--- ...C ....|E-4 E..F ....
....|..|--- .... ....|--- .... ....|--- .... ....
..24|..|E-2 .C.B ....|E-2 .C.B ....|C-4 A..B ....
....|..|R-- .... ....|R-- .... ....|--- .... ....
..12|..|E-2 .A.B ....|E-2 .A.B ....|C-4 L..F ....
....|..|R-- .... ....|R-- .... ....|--- .... ....
....|..|--- ...C ....|--- ...C ....|E-4 E..F ....
....|..|--- .... ....|--- .... ....|--- .... ....
....|..|--- ...B ....|--- ...B ....|--- ...B ....
....|..|--- .... ....|--- .... ....|--- .... ....
....|..|E-2 .F.C ....|E-2 ...C ....|C-4 K..B ....
....|..|--- .... ....|--- .... ....|--- .... ....
....|..|--- ...B ....|--- ...B ....|C-4 L..F ....
....|..|--- .... ....|--- .... ....|--- .... ....
....|..|E-4 1FA8 ....|E-2 .F.C 3140|C-4 DF.F ....
....|..|--- .... ....|--- .... ....|--- .... ....
....|..|--- ...6 ....|--- ...B ....|C-4 L..B ....
....|..|F-4 ...8 ....|--- .... ....|--- .... ....
....|..|--- .... ....|--- ...B ....|C-4 K..B ....
....|..|E-4 ...6 ....|--- .... ....|--- .... ....
....|..|A-4 ...8 ....|--- ...C ....|C-4 D..F ....
....|..|--- .... ....|--- .... ....|--- .... ....
....|..|F-4 ...6 ....|--- ...B ....|C-4 L..B ....
....|..|E-4 ...8 ....|--- .... ....|--- .... ....
....|..|--- .... ....|--- ...C ....|--- ...F ....
....|..|A-4 ...6 ....|--- .... ....|--- .... ....
....|..|F-4 ...8 ....|--- ...C ....|C-4 K..F ....
....|..|--- .... ....|--- .... ....|C-4 L... ....
....|..|E-4 ...6 ....|--- ...B ....|C-4 K..B ....
....|..|A-4 OFA8 ....|--- .... ....|C-4 L... ....
....|..|--- .... ....|--- ...B ....|C-4 D..B ....
....|..|--- .... ....|--- .... ....|--- .... ....
....|..|--- ...8 ....|--- ...C ....|E-4 E..F ....
....|..|--- ...4 ....|A-4 OFA6 ....|--- .... ....
....|..|--- ...A ....|--- .... ....|C-4 A..B ....
....|..|--- ...6 ....|--- ...8 ....|--- .... ....
....|..|E-2 2F.7 ....|--- ...4 ....|C-4 L..F ....
....|..|--- ...8 ....|--- ...A ....|--- .... ....
....|..|--- ...9 ....|--- ...6 ....|E-4 E..F ....
....|..|--- ...5 ....|E-2 7F.. ....|--- .... ....
....|..|--- ...B ....|--- ...B ....|--- ...B ....
....|..|--- ...7 ....|--- .... ....|--- .... ....
....|..|--- ...8 ....|--- ...C ....|C-4 K..B ....
....|..|--- ...9 ....|--- .... ....|--- .... ....
....|..|--- ...B ....|--- ...B ....|C-4 L..F ....
....|..|--- ...6 ....|--- .... ....|--- .... ....

[Pattern6]
..24|..|E-3 QC.C ....|E-2 7F.C ....|C-4 AF.F ....
....|..|--- .... ....|--- .... ....|--- .... ....
....|..|--- ...B ....|--- ...B ....|C-4 K..F ....
....|..|--- .... ....|--- .... ....|C-4 L... ....
....|..|--- ...B ....|--- ...B ....|C-4 K..B ....
....|..|--- .... ....|--- .... ....|C-4 L... ....
....|..|--- ...C ....|--- ...C ....|C-4 D..B ....
....|..|--- .... ....|--- .... ....|--- .... ....
....|..|--- ...B ....|--- ...B ....|C-4 L..B ....
....|..|--- .... ....|--- .... ....|--- .... ....
....|..|--- ...B ....|--- ...B ....|C-4 A..F ....
....|..|--- .... ....|--- .... ....|--- .... ....
....|..|--- ...C ....|--- ...C ....|B-8 8..F ....
....|..|--- .... ....|--- .... ....|--- .... ....
..48|..|E-1 2C.B ....|E-1 7C.B ....|B-8 8..B ....
....|..|R-- .... ....|R-- .... ....|--- .... ....
..48|..|E-1 .C.B ....|E-1 .C.B ....|B-8 B..F ....
....|..|R-- .... ....|R-- .... ....|--- .... ....
....|..|--- ...C ....|--- ...C ....|B-8 8..B ....
....|..|--- .... ....|--- .... ....|--- .... ....
..24|..|E-2 .C.B ....|E-2 .C.B ....|B-8 J..F ....
....|..|R-- .... ....|R-- .... ....|--- .... ....
..12|..|E-2 .A.B ....|E-2 .A.B ....|B-8 B..B ....
....|..|R-- .... ....|R-- .... ....|--- .... ....
..24|..|E-3 QC.C ....|--- ...C ....|B-8 J..F ....
....|..|--- .... ....|--- .... ....|--- .... ....
....|..|--- ...B ....|--- ...B ....|B-8 J..B ....
....|..|--- .... ....|--- .... ....|--- .... ....
..24|..|E-3 QC.C ....|E-3 1F.C ....|B-8 4..F ....
....|..|--- .... ....|--- .... ....|--- .... ....
....|..|--- ...B ....|--- ...B ....|B-8 J..B ....
....|..|--- .... ....|--- .... ....|--- .... ....
..24|..|E-3 RC.C ....|E-2 7F.C 3140|C-4 DF.F ....
....|..|--- .... ....|--- .... ....|--- .... ....
....|..|--- ...B ....|--- ...B ....|C-4 K..F ....
....|..|--- .... ....|--- .... ....|C-4 L... ....
....|..|--- ...B ....|--- ...B ....|C-4 K..B ....
....|..|--- .... ....|--- .... ....|C-4 L... ....
....|..|--- ...C ....|--- ...C ....|C-4 D..B ....
....|..|--- .... ....|--- .... ....|--- .... ....
....|..|--- ...B ....|--- ...B ....|C-4 L..B ....
....|..|--- .... ....|--- .... ....|--- .... ....
....|..|--- ...B ....|--- ...C ....|B-8 J..B ....
....|..|--- .... ....|--- .... ....|--- .... ....
....|..|--- ...C ....|--- ...C ....|A-3 A..F ....
....|..|--- .... ....|--- .... ....|--- .... ....
....|..|--- ...B ....|--- ...B ....|B-8 8..B ....
....|..|--- .... ....|--- .... ....|--- .... ....
....|..|B-8 UFAA ....|--- ...B ....|B-8 B..F ....
....|..|--- .... ....|--- .... ....|--- .... ....
....|..|R-- .... ....|--- ...C ....|A-3 A..B ....
....|..|B-8 ...8 ....|--- .... ....|--- .... ....
....|..|--- .... ....|--- ...B ....|B-8 J..F ....
....|..|R-- .... ....|--- .... ....|--- .... ....
....|..|B-8 ...6 ....|--- ...B ....|B-8 B..B ....
....|..|--- .... ....|--- .... ....|--- .... ....
..24|..|E-3 RC.B ....|--- ...C ....|B-8 8..F ....
....|..|--- .... ....|--- .... ....|--- .... ....
....|..|--- .... ....|--- ...B ....|B-8 J..B ....
....|..|--- .... ....|--- .... ....|--- .... ....
....|..|--- .... ....|--- ...C ....|B-8 B..F ....
....|..|--- .... ....|--- .... ....|--- .... ....
....|..|--- .... ....|--- ...B ....|B-8 8..B ....
....|..|--- .... ....|--- .... ....|--- .... ....

[Pattern7]
..24|..|E-3 SC.C ....|E-2 7F.C ....|C-4 AF.F ....
....|..|--- .... ....|--- .... ....|--- .... ....
....|..|--- ...B ....|--- ...B ....|C-4 K..F ....
....|..|--- .... ....|--- .... ....|C-4 L... ....
....|..|--- ...B ....|--- ...B ....|C-4 K..B ....
....|..|--- .... ....|--- .... ....|C-4 L... ....
....|..|--- ...C ....|--- ...C ....|C-4 D..B ....
....|..|--- .... ....|--- .... ....|--- .... ....
....|..|--- ...B ....|--- ...B ....|C-4 L..B ....
....|..|--- .... ....|--- .... ....|--- .... ....
....|..|--- ...B ....|--- ...B ....|C-4 A..F ....
....|..|--- .... ....|--- .... ....|--- .... ....
....|..|--- ...C ....|--- ...C ....|B-8 8..F ....
....|..|--- .... ....|--- .... ....|--- .... ....
..48|..|E-1 .C.B ....|E-1 7C.B ....|B-8 8..B ....
....|..|R-- .... ....|R-- .... ....|--- .... ....
..48|..|E-1 .C.B ....|E-1 .C.B ....|B-8 B..F ....
....|..|R-- .... ....|R-- .... ....|--- .... ....
....|..|--- ...C ....|--- ...C ....|B-8 8..B ....
....|..|--- .... ....|--- .... ....|--- .... ....
..24|..|E-2 .C.B ....|E-2 .C.B ....|B-8 J..F ....
....|..|R-- .... ....|R-- .... ....|--- .... ....
..12|..|E-2 .A.B ....|E-2 .A.B ....|B-8 B..B ....
....|..|R-- .... ....|R-- .... ....|--- .... ....
....|..|C-4 2F4C ....|--- ...C ....|B-8 J..F ....
....|..|--- .... ....|--- .... ....|--- .... ....
....|..|--- ...B ....|--- ...B ....|B-8 J..B ....
....|..|--- .... ....|--- .... ....|--- .... ....
....|..|E-2 .F.C ....|E-2 ...C ....|B-8 U..F ....
....|..|--- .... ....|--- .... ....|--- .... ....
....|..|--- ...B ....|--- ...B ....|B-8 J..B ....
....|..|--- .... ....|--- .... ....|--- .... ....
....|..|G-4 2F4C ....|E-2 .F.C 3140|C-4 DF.F ....
....|..|--- .... ....|--- .... ....|--- .... ....
....|..|--- ...B ....|--- ...B ....|C-4 K..F ....
....|..|--- .... ....|--- .... ....|C-4 L... ....
....|..|--- ...B ....|--- ...B ....|C-4 K..B ....
....|..|--- .... ....|--- .... ....|C-4 L... ....
....|..|--- ...C ....|--- ...C ....|C-4 D..B ....
....|..|--- .... ....|--- .... ....|--- .... ....
....|..|--- ...B ....|--- ...B ....|C-4 L..B ....
....|..|--- .... ....|--- .... ....|--- .... ....
....|..|--- ...B ....|--- ...C ....|B-8 J..B ....
....|..|--- .... ....|--- .... ....|--- .... ....
....|..|--- ...C ....|--- ...C ....|A-3 A..F ....
....|..|--- .... ....|--- .... ....|--- .... ....
....|..|--- ...B ....|--- ...B ....|B-8 8..B ....
....|..|--- .... ....|--- .... ....|--- .... ....
....|..|B-8 UFAA ....|--- ...B ....|B-8 B..F ....
....|..|--- .... ....|--- .... ....|--- .... ....
....|..|R-- .... ....|--- ...C ....|A-3 A..B ....
....|..|B-8 ...8 ....|--- .... ....|--- .... ....
....|..|--- .... ....|--- ...B ....|B-8 J..F ....
....|..|R-- .... ....|--- .... ....|--- .... ....
....|..|B-8 ...6 ....|--- ...B ....|B-8 B..B ....
....|..|--- .... ....|--- .... ....|--- .... ....
....|..|F-4 2F4B ....|--- ...C ....|B-8 8..F ....
....|..|--- .... ....|--- .... ....|--- .... ....
....|..|--- .... ....|--- ...B ....|B-8 J..B ....
....|..|--- .... ....|--- .... ....|--- .... ....
....|..|--- .... ....|--- ...C ....|B-8 B..F ....
....|..|--- .... ....|--- .... ....|--- .... ....
....|..|--- .... ....|--- ...B ....|B-8 8..B ....
....|..|--- .... ....|--- .... ....|--- .... ....

[Pattern8]
....|..|E-4 GF3B ....|G-3 9F.F ....|C-4 DF.F ....
..1E|..|--- .... ....|G-1 2A.. ....|--- .... ....
....|..|--- .... ....|--- .... ....|C-4 K..F ....
....|..|--- .... ....|--- .... ....|C-4 L... ....
....|..|--- .... 31.A|G-2 .... ....|C-4 K..B ....
....|..|--- .... ....|--- .... ....|C-4 L... ....
....|..|--- .... ....|E-4 2F3D ....|C-4 D..B ....
....|..|--- .... ....|--- .... ....|--- .... ....
....|..|--- .... ....|G-3 9F.F ....|C-4 L..B ....
..1E|..|--- .... ....|G-1 2A.. ....|--- .... ....
....|..|--- .... ....|--- .... ....|B-8 J..B ....
....|..|--- .... ....|--- .... ....|--- .... ....
....|..|--- .... 31.A|G-2 .... ....|B-8 8..F ....
....|..|--- .... ....|--- .... ....|--- .... ....
....|..|--- .... ....|E-4 2F5D ....|B-8 8..B ....
....|..|--- .... ....|--- .... ....|--- .... ....
....|..|--- .... ....|C-3 9F.F ....|B-8 B..F ....
..2D|..|--- .... ....|C-1 2A.. ....|--- .... ....
....|..|--- .... ....|C-2 .... ....|B-8 8..B ....
....|..|--- .... ....|--- .... ....|--- .... ....
....|..|--- .... ....|C-1 .... ....|B-8 J..F ....
....|..|--- .... ....|--- .... ....|--- .... ....
....|..|--- .... ....|C-2 .... ....|B-8 B..B ....
....|..|--- .... ....|--- .... ....|--- .... ....
....|..|--- .... ....|G-4 2F4D ....|B-8 J..F ....
....|..|--- .... ....|--- .... ....|--- .... ....
....|..|--- .... ....|--- .... ....|B-8 J..B ....
....|..|--- .... ....|--- .... ....|--- .... ....
....|..|--- .... 11.1|E-3 9F.F ....|B-8 U..F ....
..24|..|--- .... ....|E-1 2A.. ....|--- .... ....
....|..|--- .... ....|--- .... ....|C-4 DF.F ....
....|..|--- .... ....|--- .... ....|--- .... ....
....|..|E-4 .F5. ....|F-3 9F.. ....|C-4 K..F ....
..22|..|--- .... ....|F-1 2A.. ....|C-4 L... ....
....|..|--- .... ....|--- .... ....|C-4 K..B ....
....|..|--- .... ....|--- .... ....|C-4 L... ....
....|..|--- .... 31.A|F-4 2F4D ....|C-4 D..B ....
....|..|--- .... ....|--- .... ....|--- .... ....
....|..|--- .... ....|F-3 9F.F ....|C-4 L..B ....
..22|..|--- .... ....|F-1 2A.. ....|--- .... ....
....|..|--- .... ....|F-2 .... ....|B-8 8..F ....
....|..|--- .... ....|F-2 .... ....|--- .... ....
....|..|--- .... ....|F-3 2F4D ....|B-8 1..B ....
....|..|--- .... ....|--- .... ....|--- .... ....
....|..|--- .... 31.A|F-3 9F.F ....|A-3 A..F ....
..22|..|--- .... ....|F-1 2A.. ....|--- .... ....
....|..|--- .... ....|--- .... ....|B-8 8..B ....
....|..|--- .... ....|--- .... ....|--- .... ....
....|..|--- .... ....|A-3 9F.. ....|B-8 B..F ....
..36|..|--- .... ....|A-2 28.. ....|--- .... ....
....|..|--- .... ....|--- .... ....|A-3 A..B ....
....|..|--- .... ....|--- .... ....|--- .... ....
....|..|--- .... 31.A|F-4 2F4D ....|B-8 J..F ....
....|..|--- .... ....|--- .... ....|--- .... ....
....|..|--- .... ....|A-3 9F.F ....|B-8 B..B ....
..36|..|--- .... ....|A-1 2A.. ....|--- .... ....
....|..|--- .... ....|--- .... ....|B-8 8..F ....
....|..|--- .... ....|--- .... ....|--- .... ....
....|..|--- .... ....|F-4 2F4D ....|B-8 J..B ....
....|..|--- .... ....|--- .... ....|--- .... ....
....|..|--- .... 31.A|A-3 9F.F ....|B-8 B..F ....
..1B|..|--- .... ....|A-1 2A.. ....|--- .... ....
....|..|--- .... ....|--- .... ....|B-8 8..B ....
....|..|--- .... ....|--- .... ....|--- .... ....

[Pattern9]
....|..|E-4 GF8B ....|G-3 9F.F ....|C-4 DF.F ....
..1E|..|--- .... ....|G-1 2A.. ....|--- .... ....
....|..|--- .... ....|--- .... ....|C-4 K..F ....
....|..|--- .... ....|--- .... ....|C-4 L... ....
....|..|--- .... 31.A|G-2 .... ....|C-4 K..B ....
....|..|--- .... ....|--- .... ....|C-4 L... ....
....|..|--- .... ....|E-4 2F3D ....|C-4 D..B ....
....|..|--- .... ....|--- .... ....|--- .... ....
....|..|--- .... ....|G-3 9F.F ....|C-4 L..B ....
..1E|..|--- .... ....|G-1 2A.. ....|--- .... ....
....|..|--- .... ....|--- .... ....|B-8 J..B ....
....|..|--- .... ....|--- .... ....|--- .... ....
....|..|--- .... 31.A|G-2 .... ....|B-8 8..F ....
....|..|--- .... ....|--- .... ....|--- .... ....
....|..|--- .... ....|E-4 2F5D ....|B-8 8..B ....
....|..|--- .... ....|--- .... ....|--- .... ....
....|..|--- .... ....|C-3 9F.F ....|B-8 B..F ....
..2D|..|--- .... ....|C-1 2A.. ....|--- .... ....
....|..|--- .... ....|C-2 .... ....|B-8 8..B ....
....|..|--- .... ....|--- .... ....|--- .... ....
....|..|--- .... ....|C-1 .... ....|B-8 J..F ....
....|..|--- .... ....|--- .... ....|--- .... ....
....|..|--- .... ....|C-2 .... ....|B-8 B..B ....
....|..|--- .... ....|--- .... ....|--- .... ....
....|..|--- .... ....|G-4 2F4D ....|B-8 J..F ....
....|..|--- .... ....|--- .... ....|--- .... ....
....|..|--- .... ....|--- .... ....|B-8 J..B ....
....|..|--- .... ....|--- .... ....|--- .... ....
....|..|--- .... 11.1|E-3 9F.F ....|B-8 U..F ....
..24|..|--- .... ....|E-1 2A.. ....|--- .... ....
....|..|--- .... ....|--- .... ....|C-4 DF.F ....
....|..|--- .... ....|--- .... ....|--- .... ....
....|..|E-4 .F5. ....|F-3 9F.. ....|C-4 K..F ....
..22|..|--- .... ....|F-1 2A.. ....|C-4 L... ....
....|..|--- .... ....|--- .... ....|C-4 K..B ....
....|..|--- .... ....|--- .... ....|C-4 L... ....
....|..|--- .... 31.A|F-4 2F4D ....|C-4 D..B ....
....|..|--- .... ....|--- .... ....|--- .... ....
....|..|--- .... ....|F-3 9F.F ....|C-4 L..B ....
..22|..|--- .... ....|F-1 2A.. ....|--- .... ....
....|..|--- .... ....|F-2 .... ....|B-8 8..F ....
....|..|--- .... ....|F-2 .... ....|--- .... ....
....|..|--- .... ....|F-3 2F4D ....|B-8 1..B ....
....|..|--- .... ....|--- .... ....|--- .... ....
....|..|--- .... 31.A|F-3 9F.F ....|A-3 A..F ....
..22|..|--- .... ....|F-1 2A.. ....|--- .... ....
....|..|--- .... ....|--- .... ....|B-8 8..B ....
....|..|--- .... ....|--- .... ....|--- .... ....
....|..|--- .... ....|A-3 9F.. ....|B-8 B..F ....
..36|..|--- .... ....|A-2 28.. ....|--- .... ....
....|..|--- .... ....|--- .... ....|A-3 A..B ....
....|..|--- .... ....|--- .... ....|--- .... ....
....|..|--- .... 31.A|F-4 2F4D ....|B-8 J..F ....
....|..|--- .... ....|--- .... ....|--- .... ....
....|..|--- .... ....|A-3 9F.F ....|B-8 B..B ....
..36|..|--- .... ....|A-1 2A.. ....|--- .... ....
....|..|--- .... ....|--- .... ....|B-8 8..F ....
....|..|--- .... ....|--- .... ....|--- .... ....
....|..|--- .... ....|F-4 2F4D ....|B-8 J..B ....
....|..|--- .... ....|--- .... ....|--- .... ....
....|..|--- .... 31.A|A-3 9F.F ....|B-8 B..F ....
..1B|..|--- .... ....|A-1 2A.. ....|--- .... ....
....|..|--- .... ....|--- .... ....|B-8 8..B ....
....|..|--- .... ....|--- .... ....|--- .... ....

[Pattern10]
....|..|A-4 MFAF ....|C-4 9F.F ....|A-3 AF.F ....
..2D|..|E-5 ...B ....|C-2 2A.. ....|--- .... ....
....|..|C-5 ...F ....|--- .... ....|B-8 B..B ....
....|..|A-4 ...B ....|--- .... ....|--- .... ....
....|..|E-5 ...F ....|--- .... ....|B-8 J..F ....
....|..|C-5 ...B ....|--- .... ....|--- .... ....
....|..|G-5 ...F ....|C-5 2F4C ....|A-3 A..B ....
....|..|E-5 ...B ....|--- .... ....|--- .... ....
....|..|B-5 ...F ....|C-4 9F.F ....|B-8 8..F ....
..2D|..|G-5 ...B ....|C-2 2A.. ....|--- .... ....
....|..|G-5 ...F ....|--- .... ....|B-8 J..B ....
....|..|B-5 ...B ....|--- .... ....|--- .... ....
....|..|E-5 ...F ....|--- .... ....|B-8 8..F ....
....|..|G-5 ...B ....|--- .... ....|--- .... ....
....|..|C-5 ...F ....|C-5 2F4C ....|B-8 8..B ....
....|..|E-5 ...B ....|--- .... ....|--- .... ....
....|..|A-4 ...F ....|C-3 9F.F ....|B-8 B..F ....
..2D|..|C-5 ...B ....|C-2 2A.. ....|--- .... ....
....|..|C-5 ...F ....|--- .... ....|B-8 8..B ....
....|..|A-4 ...B ....|--- .... ....|--- .... ....
....|..|E-5 ...F ....|--- .... ....|B-8 J..F ....
....|..|C-5 ...B ....|--- .... ....|--- .... ....
....|..|G-5 ...F ....|--- .... ....|B-8 B..B ....
....|..|E-5 ...B ....|--- .... ....|--- .... ....
....|..|B-5 ...F ....|C-5 2F4C ....|B-8 J..F ....
....|..|G-5 ...B ....|--- .... ....|--- .... ....
....|..|G-5 ...F ....|--- .... ....|B-8 J..B ....
....|..|B-5 ...B ....|--- .... ....|--- .... ....
....|..|E-5 ...F ....|C-4 9F.F ....|B-8 U..F ....
..2D|..|G-5 ...B ....|C-2 2A.. ....|--- .... ....
....|..|C-5 ...F ....|--- .... ....|B-8 J..B ....
....|..|E-5 ...B ....|--- .... ....|--- .... ....
....|..|B-4 ...F ....|B-4 9F.. ....|A-3 AF.F ....
..30|..|C-5 ...B ....|B-1 2A.. ....|--- .... ....
....|..|E-5 ...F ....|--- .... ....|B-8 8..B ....
....|..|B-4 ...B ....|--- .... ....|--- .... ....
....|..|G-5 ...F ....|B-4 2F5C ....|B-8 J..F ....
....|..|E-5 ...B ....|--- .... ....|--- .... ....
....|..|B-5 ...F ....|F-3 9F.F ....|A-3 A..B ....
..30|..|G-5 ...B ....|B-1 2A.. ....|--- .... ....
....|..|C-6 ...F ....|--- .... ....|B-8 8..F ....
....|..|B-5 ...B ....|--- .... ....|--- .... ....
....|..|B-5 ...F ....|B-4 2F5C ....|B-8 J..B ....
....|..|C-6 ...B ....|--- .... ....|--- .... ....
....|..|G-5 ...F ....|F-3 9F.F ....|A-3 A..F ....
..18|..|B-5 ...B ....|B-2 2A.. ....|--- .... ....
....|..|E-5 ...F ....|--- .... ....|B-8 8..B ....
....|..|G-5 ...B ....|--- .... ....|--- .... ....
....|..|B-4 ...F ....|A-3 9F.. ....|B-8 B..F ....
..30|..|E-5 ...B ....|B-1 2A.. ....|--- .... ....
....|..|E-5 ...F ....|--- .... ....|A-3 A..B ....
....|..|B-4 ...B ....|--- .... ....|--- .... ....
....|..|G-5 ...F ....|B-4 2F5C ....|B-8 J..F ....
....|..|E-5 ...B ....|--- .... ....|--- .... ....
....|..|B-5 ...F ....|B-3 9F.F ....|B-8 B..B ....
..18|..|G-5 ...B ....|B-2 2A.. ....|--- .... ....
....|..|C-6 ...F ....|--- .... ....|B-8 8..F ....
....|..|B-5 ...B ....|--- .... ....|--- .... ....
....|..|B-5 ...F ....|B-4 2F5C ....|B-8 J..B ....
....|..|C-6 ...B ....|--- .... ....|--- .... ....
....|..|G-5 ...F ....|B-3 9F.F ....|B-8 B..F ....
..30|..|B-5 ...B ....|B-1 2A.. ....|--- .... ....
....|..|E-5 ...F ....|--- .... ....|B-8 8..B ....
....|..|G-5 ...B ....|--- .... ....|--- .... ....

[Pattern11]
....|..|A#4 MFAF ....|A#3 9F.F ....|A-3 AF.F ....
..19|..|C-6 ...B ....|A#1 2A.. ....|--- .... ....
....|..|D-5 ...F ....|--- .... ....|B-8 B..B ....
....|..|A#4 ...B ....|--- .... ....|--- .... ....
....|..|F-5 ...F ....|--- .... ....|B-8 J..F ....
....|..|D-5 ...B ....|--- .... ....|--- .... ....
....|..|A-5 ...F ....|A#4 2F4D ....|A-3 A..B ....
....|..|F-5 ...B ....|--- .... ....|--- .... ....
....|..|A#5 ...F ....|A-3 9F.F ....|B-8 8..F ....
..1B|..|A-5 ...B ....|A-1 2A.. ....|--- .... ....
....|..|A-5 ...F ....|--- .... ....|B-8 J..B ....
....|..|A#5 ...B ....|--- .... ....|--- .... ....
....|..|F-5 ...F ....|--- .... ....|B-8 8..F ....
....|..|A-5 ...B ....|--- .... ....|--- .... ....
....|..|D-5 ...F ....|A#4 2F4D ....|B-8 8..B ....
....|..|F-5 ...B ....|--- .... ....|--- .... ....
....|..|A#4 ...F ....|A#3 9F.F ....|B-8 B..F ....
..19|..|D-5 ...B ....|A#1 2A.. ....|--- .... ....
....|..|D-5 ...F ....|--- .... ....|B-8 8..B ....
....|..|A#4 ...B ....|--- .... ....|--- .... ....
....|..|F-5 ...F ....|--- .... ....|B-8 J..F ....
....|..|D-5 ...B ....|--- .... ....|--- .... ....
....|..|A-5 ...F ....|--- .... ....|B-8 B..B ....
....|..|F-5 ...B ....|--- .... ....|--- .... ....
....|..|A#5 ...F ....|A#4 2F4D ....|B-8 J..F ....
....|..|A-5 ...B ....|--- .... ....|--- .... ....
....|..|A-5 ...F ....|--- .... ....|B-8 J..B ....
....|..|A#5 ...B ....|--- .... ....|--- .... ....
....|..|F-5 ...F ....|A#3 9F.F ....|B-8 U..F ....
..19|..|A-5 ...B ....|A#1 2A.. ....|--- .... ....
....|..|D-5 ...F ....|--- .... ....|B-8 J..B ....
....|..|F-5 ...B ....|--- .... ....|--- .... ....
....|..|A-4 ...F ....|A-3 9F.. ....|A-3 AF.F ....
..1B|..|D-5 ...B ....|A-1 2A.. ....|--- .... ....
....|..|E-5 ...F ....|--- .... ....|B-8 8..B ....
....|..|A-4 ...B ....|--- .... ....|--- .... ....
....|..|G-5 ...F ....|A-4 2F5D ....|B-8 J..F ....
....|..|E-5 ...B ....|--- .... ....|--- .... ....
....|..|A#5 ...F ....|A-3 9F.F ....|A-3 A..B ....
..1B|..|G-5 ...B ....|A-1 2A.. ....|--- .... ....
....|..|A-4 ...F ....|--- .... ....|B-8 8..F ....
....|..|A#5 ...B ....|--- .... ....|--- .... ....
....|..|E-5 ...F ....|A-4 2F5D ....|B-8 J..B ....
....|..|A-4 ...B ....|--- .... ....|--- .... ....
....|..|G-5 ...F ....|A-3 9F.F ....|A-3 A..F ....
..1B|..|E-5 ...B ....|A-1 2A.. ....|--- .... ....
....|..|C-6 ...F ....|--- .... ....|B-8 8..B ....
....|..|G-5 ...B ....|--- .... ....|--- .... ....
....|..|A-4 ...F ....|A-3 9F.. ....|B-8 B..F ....
..1B|..|C-6 ...B ....|A-1 2A.. ....|--- .... ....
....|..|E-5 ...F ....|--- .... ....|A-3 A..B ....
....|..|A-4 ...B ....|--- .... ....|--- .... ....
....|..|G-5 ...F ....|A-4 2F5D ....|B-8 J..F ....
....|..|E-5 ...B ....|--- .... ....|--- .... ....
....|..|A#5 ...F ....|A-3 9F.F ....|B-8 B..B ....
..1B|..|G-5 ...B ....|A-1 2A.. ....|--- .... ....
....|..|A-4 ...F ....|--- .... ....|B-8 8..F ....
....|..|A#5 ...B ....|--- .... ....|--- .... ....
....|..|E-5 ...F ....|A-4 2F5D ....|B-8 J..B ....
....|..|A-4 ...B ....|--- .... ....|--- .... ....
....|..|G-5 ...F ....|A-3 9F.F ....|B-8 B..F ....
..1B|..|E-5 ...B ....|A-1 2A.. ....|--- .... ....
....|..|C-6 ...F ....|--- .... ....|B-8 8..B ....
....|..|G-5 ...B ....|--- .... ....|--- .... ....

[Pattern12]
....|..|G-4 MFAF ....|G-3 9F.F ....|A-3 AF.F ....
..1E|..|A-4 ...B ....|G-1 2A.. ....|--- .... ....
....|..|B-4 ...F ....|--- .... ....|B-8 U..B ....
....|..|G-4 ...B ....|--- .... ....|--- .... ....
....|..|D-5 ...F ....|G-2 .... ....|B-8 J..F ....
....|..|B-4 ...B ....|--- .... ....|--- .... ....
....|..|E-5 ...F ....|G-4 2F4D ....|A-3 A..B ....
....|..|D-5 ...B ....|--- .... ....|--- .... ....
....|..|G-5 ...F ....|G-3 9F.F ....|G-4 2FAF ....
..1E|..|E-5 ...B ....|G-1 2A.. ....|--- .... ....
....|..|E-5 ...F ....|--- .... ....|B-8 J..B ....
....|..|G-5 ...B ....|--- .... ....|--- .... ....
....|..|D-5 ...F ....|G-2 .... ....|B-8 8..F ....
....|..|E-5 ...B ....|--- .... ....|--- .... ....
....|..|B-4 ...F ....|G-4 2F4D ....|A-3 B..B ....
....|..|D-5 ...B ....|--- .... ....|--- .... ....
....|..|G-4 ...F ....|C-3 9F.F ....|A-3 A..F ....
..2D|..|B-4 ...B ....|C-1 2A.. ....|--- .... ....
....|..|B-4 ...F ....|C-2 .... ....|B-8 8..B ....
....|..|G-4 ...B ....|--- .... ....|--- .... ....
....|..|D-5 ...F ....|C-1 .... ....|B-8 J..F ....
....|..|B-4 ...B ....|--- .... ....|--- .... ....
....|..|E-5 ...F ....|C-2 .... ....|A-3 A..B ....
....|..|D-5 ...B ....|--- .... ....|--- .... ....
....|..|G-5 ...F ....|G-4 2F4D ....|B-8 J..F ....
....|..|E-5 ...B ....|--- .... ....|--- .... ....
....|..|E-5 ...F ....|--- .... ....|B-8 J..B ....
....|..|G-5 ...B ....|--- .... ....|--- .... ....
....|..|D-5 ...F ....|E-3 9F.F ....|B-8 U..F ....
..24|..|E-5 ...B ....|E-1 2A.. ....|B-8 J..C ....
....|..|B-4 ...F ....|--- .... ....|B-8 J..B ....
....|..|D-5 ...B ....|--- .... ....|B-8 J..D ....
....|..|F-4 ...F ....|F-3 9F.. ....|A-3 AF.F ....
..22|..|B-4 ...B ....|F-1 2A.. ....|--- .... ....
....|..|A-4 ...F ....|--- .... ....|B-8 U..B ....
....|..|F-4 ...B ....|--- .... ....|--- .... ....
....|..|C-5 ...F ....|F-4 2F4D ....|B-8 J..F ....
....|..|A-4 ...B ....|--- .... ....|--- .... ....
....|..|E-5 ...F ....|F-3 9F.F ....|A-3 A..B ....
..22|..|C-5 ...B ....|F-1 2A.. ....|--- .... ....
....|..|F-5 ...F ....|F-2 .... ....|F-4 2FAF ....
....|..|E-5 ...B ....|F-2 .... ....|--- .... ....
....|..|E-5 ...F ....|F-3 2F4D ....|B-8 J..B ....
....|..|F-5 ...B ....|--- .... ....|--- .... ....
....|..|C-5 ...F ....|F-3 9F.F ....|A-4 2FAF ....
..22|..|E-5 ...B ....|F-1 2A.. ....|--- .... ....
....|..|A-4 ...F ....|--- .... ....|A-3 B..B ....
....|..|C-5 ...B ....|--- .... ....|--- .... ....
....|..|F-4 ...F ....|A-3 9F.. ....|A-3 A..F ....
..36|..|A-4 ...B ....|A-2 28.. ....|--- .... ....
....|..|A-4 ...F ....|--- .... ....|B-8 8..B ....
....|..|F-4 ...B ....|--- .... ....|--- .... ....
....|..|C-5 ...F ....|F-4 2F4D ....|B-8 J..F ....
....|..|A-4 ...B ....|--- .... ....|--- .... ....
....|..|E-5 ...F ....|A-3 9F.F ....|A-3 A..B ....
..36|..|C-5 ...B ....|A-1 2A.. ....|--- .... ....
....|..|F-5 ...F ....|--- .... ....|B-8 J..F ....
....|..|E-5 ...B ....|--- .... ....|--- .... ....
....|..|E-5 ...F ....|F-4 2F4D ....|B-8 J..B ....
....|..|F-5 ...B ....|--- .... ....|--- .... ....
....|..|C-5 ...F ....|A-3 9F.F ....|B-8 U..F ....
..1B|..|E-5 ...B ....|A-1 2A.. ....|--- .... ....
....|..|A-4 ...F ....|--- .... ....|B-8 J..B ....
....|..|C-5 ...B ....|--- .... ....|--- .... ....

[Pattern13]
....|..|C-1 2F1E ....|C-4 9F.F ....|A-3 AF.F ....
..16|..|--- .... ....|C-2 2A.. ....|--- .... ....
..16|..|C-2 .... ....|--- .... ....|C-3 2A.B ....
....|..|--- .... ....|--- .... ....|--- .... ....
...F|..|G-4 5A.. ....|G-2 .A.. ....|A-3 AF.F ....
....|..|G-4 .... ....|--- .... ....|--- .... ....
..3C|..|G-1 NC.. ....|C-4 2F4D ....|G-1 2C.B ....
....|..|--- .... ....|--- .... ....|--- .... ....
....|..|--- .... ....|C-4 9F.F ....|A-3 AF.F ....
..12|..|B-3 MA.. ....|E-2 2A.. ....|--- .... ....
..12|..|--- .... ....|--- .... ....|E-2 2A.B ....
....|..|--- .... ....|--- .... ....|--- .... ....
...F|..|G-5 .A.. ....|G-2 .A.. ....|A-3 AF.F ....
....|..|--- .... ....|--- .... ....|--- .... ....
...F|..|C-2 .F.. ....|C-4 2F4D ....|G-2 2A.B ....
....|..|--- .... ....|--- .... ....|--- .... ....
....|..|C-1 .... ....|C-4 9F.F ....|A-3 AF.F ....
..16|..|C-2 2A.. ....|C-2 2A.. ....|--- .... ....
..16|..|--- .... ....|C-3 .... ....|C-2 2A.B ....
....|..|--- .... ....|--- .... ....|--- .... ....
....|..|--- .... ....|C-1 .... ....|A-3 AF.F ....
....|..|--- .... ....|--- .... ....|--- .... ....
..16|..|--- .... ....|C-2 .... ....|C-2 2A.B ....
....|..|--- .... ....|--- .... ....|--- .... ....
....|..|--- .... ....|C-4 2F4D ....|A-3 AF.F ....
....|..|--- .... ....|--- .... ....|--- .... ....
..16|..|--- .... ....|--- .... ....|C-2 2A.B ....
....|..|--- .... ....|--- .... ....|--- .... ....
....|..|G-1 .... ....|C-4 9F.F ....|A-3 AF.F ....
..3C|..|D-3 MC.. ....|G-1 2C.. ....|B-8 J..C ....
..3C|..|--- .... ....|--- .... ....|G-1 2C.B ....
....|..|--- .... ....|--- .... ....|B-8 J..D ....
..19|..|D#4 MC.. ....|G-3 9F.. ....|A-3 AF.F ....
..19|..|F-3 .A.. ....|A#1 2A.. ....|--- .... ....
...D|..|--- .... ....|--- .... ....|A#2 2A.B ....
....|..|--- .... ....|--- .... ....|--- .... ....
....|..|--- .... ....|G-4 2F3D ....|A-3 AF.F ....
....|..|--- .... ....|--- .... ....|--- .... ....
..28|..|D-2 2A.. ....|G-3 9F.F ....|D-1 2A.B ....
..14|..|D-3 .... ....|D-2 2A.. ....|--- .... ....
....|..|--- .... ....|D-4 .... ....|A-3 AF.F ....
....|..|--- .... ....|D-3 .... ....|--- .... ....
..28|..|--- .... ....|G-4 2F3D ....|D-1 2A.B ....
....|..|--- .... ....|--- .... ....|--- .... ....
..11|..|F-2 2A.. ....|G-3 9F.F ....|A-3 AF.F ....
..11|..|F-2 .... ....|F-2 2A.. ....|--- .... ....
..22|..|--- .... ....|--- .... ....|F-1 2A.B ....
....|..|--- .... ....|--- .... ....|--- .... ....
....|..|--- .... ....|G-3 9F.. ....|A-3 AF.F ....
..24|..|E-4 M8.. ....|E-2 28.. ....|--- .... ....
..48|..|B-6 .... ....|--- .... ....|E-1 28.B ....
....|..|--- .... ....|--- .... ....|--- .... ....
....|..|--- .... ....|G-4 2F3D ....|A-3 AF.F ....
....|..|E-3 2... ....|--- .... ....|--- .... ....
..48|..|--- .... ....|G-3 9F.F ....|E-1 28.B ....
..33|..|A#1 .... ....|A#1 28.. ....|--- .... ....
....|..|--- .... ....|--- .... ....|A-3 AF.F ....
....|..|--- .... ....|--- .... ....|--- .... ....
..33|..|--- .... ....|G-4 2F3D ....|A#1 28.B ....
....|..|--- .... ....|--- .... ....|--- .... ....
..1E|..|G-1 .A.. ....|G-3 9F.F ....|A-3 AF.F ....
..1E|..|G-1 .... ....|G-1 2A.. ....|--- .... ....
..1E|..|--- .... ....|--- .... ....|G-1 2A.B ....
....|..|--- .... ....|--- .... ....|--- .... ....

[Pattern14]
....|..|A-4 MFAF ....|C-4 9F.F ....|A-3 AF.F ....
..2D|..|E-5 ...B ....|C-2 2A.. ....|--- .... ....
....|..|C-5 ...F ....|--- .... ....|B-8 B..B ....
....|..|A-4 ...B ....|--- .... ....|--- .... ....
....|..|E-5 ...F ....|--- .... ....|B-8 J..F ....
....|..|C-5 ...B ....|--- .... ....|--- .... ....
....|..|G-5 ...F ....|C-5 2F4C ....|A-3 A..B ....
....|..|E-5 ...B ....|--- .... ....|--- .... ....
....|..|B-5 ...F ....|C-4 9F.F ....|B-8 8..F ....
..2D|..|G-5 ...B ....|C-2 2A.. ....|--- .... ....
....|..|G-5 ...F ....|--- .... ....|B-8 J..B ....
....|..|B-5 ...B ....|--- .... ....|--- .... ....
....|..|E-5 ...F ....|--- .... ....|B-8 8..F ....
....|..|G-5 ...B ....|--- .... ....|--- .... ....
....|..|C-5 ...F ....|C-5 2F4C ....|B-8 8..B ....
....|..|E-5 ...B ....|--- .... ....|--- .... ....
....|..|A-4 ...F ....|C-3 9F.F ....|B-8 B..F ....
..2D|..|C-5 ...B ....|C-2 2A.. ....|--- .... ....
....|..|C-5 ...F ....|--- .... ....|B-8 8..B ....
....|..|A-4 ...B ....|--- .... ....|--- .... ....
....|..|E-5 ...F ....|--- .... ....|B-8 J..F ....
....|..|C-5 ...B ....|--- .... ....|--- .... ....
....|..|G-5 ...F ....|--- .... ....|B-8 B..B ....
....|..|E-5 ...B ....|--- .... ....|--- .... ....
....|..|B-5 ...F ....|C-5 2F4C ....|B-8 J..F ....
....|..|G-5 ...B ....|--- .... ....|--- .... ....
....|..|G-5 ...F ....|--- .... ....|B-8 J..B ....
....|..|B-5 ...B ....|--- .... ....|--- .... ....
....|..|E-5 ...F ....|C-4 9F.F ....|B-8 U..F ....
..2D|..|G-5 ...B ....|C-2 2A.. ....|--- .... ....
....|..|C-5 ...F ....|--- .... ....|B-8 J..B ....
....|..|E-5 ...B ....|--- .... ....|--- .... ....
....|..|B-4 ...F ....|B-4 9F.. ....|A-3 AF.F ....
..30|..|C-5 ...B ....|B-1 2A.. ....|--- .... ....
....|..|E-5 ...F ....|--- .... ....|B-8 8..B ....
....|..|B-4 ...B ....|--- .... ....|--- .... ....
....|..|G-5 ...F ....|B-4 2F5C ....|B-8 J..F ....
....|..|E-5 ...B ....|--- .... ....|--- .... ....
....|..|B-5 ...F ....|F-3 9F.F ....|A-3 A..B ....
..30|..|G-5 ...B ....|B-1 2A.. ....|--- .... ....
....|..|C-6 ...F ....|--- .... ....|B-8 8..F ....
....|..|B-5 ...B ....|--- .... ....|--- .... ....
....|..|B-5 ...F ....|B-4 2F5C ....|B-8 J..B ....
....|..|C-6 ...B ....|--- .... ....|--- .... ....
....|..|G-5 ...F ....|F-3 9F.F ....|A-3 A..F ....
..18|..|B-5 ...B ....|B-2 2A.. ....|--- .... ....
....|..|E-5 ...F ....|--- .... ....|B-8 8..B ....
....|..|G-5 ...B ....|--- .... ....|--- .... ....
....|..|B-4 ...F ....|A-3 9F.. ....|B-8 B..F ....
..30|..|E-5 ...B ....|B-1 2A.. ....|--- .... ....
....|..|E-5 ...F ....|--- .... ....|A-3 A..B ....
....|..|B-4 ...B ....|--- .... ....|--- .... ....
....|..|G-5 ...F ....|B-4 2F5C ....|B-8 J..F ....
....|..|E-5 ...B ....|--- .... ....|--- .... ....
....|..|B-5 ...F ....|B-3 9F.F ....|B-8 B..B ....
..18|..|G-5 ...B ....|B-2 2A.. ....|--- .... ....
....|..|C-6 ...F ....|--- .... ....|B-8 8..F ....
....|..|B-5 ...B ....|--- .... ....|--- .... ....
....|..|B-5 ...F ....|B-4 2F5C ....|B-8 J..B ....
....|..|C-6 ...B ....|--- .... ....|--- .... ....
....|..|G-5 ...F ....|B-3 9F.F ....|B-8 B..F ....
..30|..|B-5 ...B ....|B-1 2A.. ....|--- .... ....
....|..|E-5 ...F ....|--- .... ....|B-8 8..B ....
....|..|G-5 ...B ....|--- .... ....|--- .... ....

[Pattern15]
....|..|A#4 OFAF ....|A#3 9F.F ....|A-3 AF.F ....
..19|..|C-6 ...B ....|A#1 2A.. ....|--- .... ....
....|..|D-5 ...F ....|--- .... ....|B-8 B..B ....
....|..|A#4 ...B ....|--- .... ....|--- .... ....
....|..|F-5 ...F ....|--- .... ....|B-8 J..F ....
....|..|D-5 ...B ....|--- .... ....|--- .... ....
....|..|A-5 ...F ....|A#4 2F4D ....|A-3 A..B ....
....|..|F-5 ...B ....|--- .... ....|--- .... ....
....|..|R-- .... ....|A-3 9F.F ....|B-8 8..F ....
..14|..|--- .... ....|D-2 2A.. ....|--- .... ....
....|..|D-5 ...A ....|--- .... ....|B-8 J..B ....
....|..|A#4 ...8 ....|--- .... ....|--- .... ....
....|..|F-5 ...A ....|--- .... ....|B-8 8..F ....
....|..|D-5 ...8 ....|--- .... ....|--- .... ....
....|..|A-5 ...A ....|A#4 2F4D ....|B-8 8..B ....
....|..|F-5 ...8 ....|--- .... ....|--- .... ....
....|..|D-5 ...9 ....|A#3 9F.F ....|B-8 B..F ....
..11|..|A#4 ...6 ....|F-2 2A.. ....|--- .... ....
....|..|F-5 ...9 ....|--- .... ....|B-8 8..B ....
....|..|D-5 ...6 ....|--- .... ....|--- .... ....
....|..|A#5 MFAF 21.2|--- .... ....|B-8 J..F ....
....|..|--- ...D ....|--- .... ....|--- .... ....
....|..|--- ...B 21.1|--- .... ....|B-8 B..B ....
....|..|--- ...F ....|--- .... ....|--- .... ....
....|..|A#5 .FAD 21.2|A#4 2F4D ....|B-8 J..F ....
....|..|--- ...B ....|--- .... ....|--- .... ....
....|..|--- ...F 21.1|--- .... ....|B-8 J..B ....
....|..|--- ...D ....|--- .... ....|--- .... ....
....|..|A#5 MFA9 21.2|A#3 9F.F ....|B-8 U..F ....
..19|..|--- ...8 ....|A#1 2A.. ....|--- .... ....
....|..|--- ...7 21.1|--- .... ....|B-8 J..B ....
....|..|--- ...9 ....|--- .... ....|--- .... ....
....|..|A-4 OF.F ....|A-3 9F.. ....|A-3 AF.F ....
..1B|..|D-5 ...B ....|A-1 2A.. ....|--- .... ....
....|..|E-5 ...F ....|--- .... ....|B-8 8..B ....
....|..|A-4 ...B ....|--- .... ....|--- .... ....
....|..|G-5 ...F ....|A-4 2F5D ....|B-8 J..F ....
....|..|E-5 ...B ....|--- .... ....|--- .... ....
....|..|A#5 ...F ....|A-3 9F.F ....|A-3 A..B ....
..19|..|G-5 ...B ....|A#1 2A.. ....|--- .... ....
....|..|A-4 ...F ....|--- .... ....|B-8 8..F ....
....|..|A#5 ...B ....|--- .... ....|--- .... ....
....|..|E-5 ...F ....|A-4 2F5D ....|B-8 J..B ....
....|..|A-4 ...B ....|--- .... ....|--- .... ....
....|..|E-5 MFAF 11.2|A-3 9F.F ....|A-3 A..F ....
..12|..|--- ...D ....|E-2 2A.. ....|--- .... ....
....|..|--- ...B 11.1|--- .... ....|B-8 8..B ....
....|..|--- ...F ....|--- .... ....|--- .... ....
....|..|A-4 OFAF ....|A-3 9F.. ....|B-8 B..F ....
...F|..|C-6 ...B ....|G-2 2A.. ....|--- .... ....
....|..|E-5 ...F ....|--- .... ....|A-3 A..B ....
....|..|A-4 ...B ....|--- .... ....|--- .... ....
....|..|E-5 MFAF 11.2|A-4 2F5D ....|B-8 J..F ....
....|..|--- ...D ....|--- .... ....|--- .... ....
....|..|--- ...B 11.1|A-3 9F.F ....|B-8 B..B ....
..1B|..|--- ...F ....|A-1 2A.. ....|--- .... ....
....|..|A-4 O..F ....|--- .... ....|B-8 8..F ....
....|..|A#5 ...B ....|--- .... ....|--- .... ....
....|..|E-5 ...F ....|A-4 2F5D ....|B-8 J..B ....
....|..|A-4 ...B ....|--- .... ....|--- .... ....
....|..|G-5 ...F ....|A-3 9F.F ....|B-8 B..F ....
..22|..|E-5 ...B ....|F-1 2A.. ....|--- .... ....
....|..|C-6 ...F ....|--- .... ....|B-8 8..B ....
....|..|G-5 ...B ....|--- .... ....|--- .... ....

[Pattern16]
....|..|G-4 MFAF ....|G-3 9F.F ....|A-3 AF.F ....
..1E|..|A-4 ...B ....|G-1 2A.. ....|--- .... ....
....|..|B-4 ...F ....|--- .... ....|B-8 U..B ....
....|..|G-4 ...B ....|--- .... ....|--- .... ....
....|..|D-5 ...F ....|G-2 .... ....|B-8 J..F ....
....|..|B-4 ...B ....|--- .... ....|--- .... ....
....|..|E-5 ...F ....|G-4 2F4D ....|A-3 A..B ....
....|..|D-5 ...B ....|--- .... ....|--- .... ....
....|..|G-5 ...F ....|G-3 9F.F ....|G-4 2FAF ....
..1E|..|E-5 ...B ....|G-1 2A.. ....|--- .... ....
....|..|E-5 ...F ....|--- .... ....|B-8 J..B ....
....|..|G-5 ...B ....|--- .... ....|--- .... ....
....|..|D-5 ...F ....|G-2 .... ....|B-8 8..F ....
....|..|E-5 ...B ....|--- .... ....|--- .... ....
....|..|B-4 ...F ....|G-4 2F4D ....|A-3 B..B ....
....|..|D-5 ...B ....|--- .... ....|--- .... ....
....|..|G-4 ...F ....|C-3 9F.F ....|A-3 A..F ....
..2D|..|B-4 ...B ....|C-1 2A.. ....|--- .... ....
....|..|B-4 ...F ....|C-2 .... ....|B-8 8..B ....
....|..|G-4 ...B ....|--- .... ....|--- .... ....
....|..|D-5 ...F ....|C-1 .... ....|B-8 J..F ....
....|..|B-4 ...B ....|--- .... ....|--- .... ....
....|..|E-5 ...F ....|C-2 .... ....|A-3 A..B ....
....|..|D-5 ...B ....|--- .... ....|--- .... ....
....|..|G-5 ...F ....|G-4 2F4D ....|B-8 J..F ....
....|..|E-5 ...B ....|--- .... ....|--- .... ....
....|..|E-5 ...F ....|--- .... ....|B-8 J..B ....
....|..|G-5 ...B ....|--- .... ....|--- .... ....
....|..|D-5 ...F ....|E-3 9F.F ....|B-8 U..F ....
..24|..|E-5 ...B ....|E-1 2A.. ....|B-8 J..C ....
....|..|B-4 ...F ....|--- .... ....|B-8 J..B ....
....|..|D-5 ...B ....|--- .... ....|B-8 J..D ....
....|..|F-4 ...F ....|F-3 9F.. ....|A-3 AF.F ....
..22|..|B-4 ...B ....|F-1 2A.. ....|--- .... ....
....|..|A-4 ...F ....|--- .... ....|B-8 U..B ....
....|..|F-4 ...B ....|--- .... ....|--- .... ....
....|..|C-5 ...F ....|F-4 2F4D ....|B-8 J..F ....
....|..|A-4 ...B ....|--- .... ....|--- .... ....
....|..|E-5 ...F ....|F-3 9F.F ....|A-3 A..B ....
..22|..|C-5 ...B ....|F-1 2A.. ....|--- .... ....
....|..|F-5 ...F ....|F-2 .... ....|F-4 2FAF ....
....|..|E-5 ...B ....|F-2 .... ....|--- .... ....
....|..|E-5 ...F ....|F-3 2F4D ....|B-8 J..B ....
....|..|F-5 ...B ....|--- .... ....|--- .... ....
....|..|C-5 ...F ....|F-3 9F.F ....|A-4 2FAF ....
..22|..|E-5 ...B ....|F-1 2A.. ....|--- .... ....
....|..|A-4 ...F ....|--- .... ....|A-3 B..B ....
....|..|C-5 ...B ....|--- .... ....|--- .... ....
....|..|F-4 ...F ....|A-3 9F.. ....|A-3 A..F ....
..36|..|A-4 ...B ....|A-2 28.. ....|--- .... ....
....|..|A-4 ...F ....|--- .... ....|B-8 8..B ....
....|..|F-4 ...B ....|--- .... ....|--- .... ....
....|..|C-5 ...F ....|F-4 2F4D ....|B-8 J..F ....
....|..|A-4 ...B ....|--- .... ....|--- .... ....
....|..|E-5 ...F ....|A-3 9F.F ....|A-3 A..B ....
..36|..|C-5 ...B ....|A-1 2A.. ....|--- .... ....
....|..|F-5 ...F ....|--- .... ....|B-8 J..F ....
....|..|E-5 ...B ....|--- .... ....|--- .... ....
....|..|E-5 ...F ....|F-4 2F4D ....|B-8 J..B ....
....|..|F-5 ...B ....|--- .... ....|--- .... ....
....|..|C-5 ...F ....|A-3 9F.F ....|B-8 U..F ....
..1B|..|E-5 ...B ....|A-1 2A.. ....|--- .... ....
....|..|A-4 ...F ....|--- .... ....|B-8 J..B ....
....|..|C-5 ...B ....|--- .... ....|--- .... ....

[Pattern17]
....|..|C-4 2F.F ....|A-3 9F.F ....|A-3 AF.F ....
..1B|..|--- .... ....|A-1 2A.. ....|--- .... ....
....|..|--- .... ....|--- .... ....|B-8 B..B ....
....|..|--- .... ....|--- .... ....|--- .... ....
....|..|D-4 ...F 31.A|A-2 .... ....|B-8 J..F ....
....|..|--- .... ....|--- .... ....|--- .... ....
....|..|--- .... ....|A-3 2F3D ....|A-3 A..B ....
....|..|--- .... ....|--- .... ....|--- .... ....
....|..|C-4 ...F ....|A-3 9F.F ....|B-8 8..F ....
..1B|..|--- .... ....|A-1 2A.. ....|--- .... ....
....|..|--- .... ....|--- .... ....|B-8 J..B ....
....|..|--- .... ....|--- .... ....|--- .... ....
....|..|D-4 ...B 31.A|A-2 .... ....|B-8 8..F ....
....|..|--- .... ....|--- .... ....|--- .... ....
....|..|--- .... ....|A-3 2F3D ....|B-8 8..B ....
....|..|--- .... ....|--- .... ....|--- .... ....
....|..|C-3 ...F ....|C-3 9F.F ....|B-8 B..F ....
..2D|..|--- .... ....|C-1 2A.. ....|--- .... ....
....|..|--- .... ....|C-2 .... ....|B-8 8..B ....
....|..|--- .... ....|--- .... ....|--- .... ....
....|..|C-6 MFAF 21.2|--- .... ....|B-8 J..F ....
....|..|--- ...D ....|--- .... ....|--- .... ....
....|..|--- ...B 21.1|--- .... ....|B-8 B..B ....
....|..|--- ...F ....|--- .... ....|--- .... ....
....|..|A-3 .F3D 21..|C-6 MFAB 21.2|B-8 J..F ....
....|..|--- ...B ....|--- ...A ....|--- .... ....
....|..|--- ...F ....|--- ...9 21.1|B-8 J..B ....
....|..|--- ...D ....|--- ...B ....|--- .... ....
....|..|C-6 MFA9 21.2|E-3 9F.F ....|B-8 U..F ....
..24|..|--- ...8 ....|E-1 2A.. ....|--- .... ....
....|..|--- ...7 21.1|--- .... ....|B-8 J..B ....
....|..|--- ...9 ....|--- .... ....|--- .... ....
....|..|A-3 2F.F 2...|F-3 9F.. ....|A-3 AF.F ....
..22|..|--- .... ....|F-1 2A.. ....|--- .... ....
....|..|--- .... ....|--- .... ....|B-8 8..B ....
....|..|--- .... ....|--- .... ....|--- .... ....
....|..|B-3 ...F 31.A|F-3 2F4D ....|B-8 1F.F ....
....|..|--- .... ....|--- .... ....|--- .... ....
....|..|--- .... ....|F-3 9F.F ....|A-3 A..B ....
..22|..|--- .... ....|F-1 2A.. ....|--- .... ....
....|..|A-3 ...F ....|F-2 .... ....|B-8 8..F ....
....|..|--- .... ....|F-2 .... ....|--- .... ....
....|..|--- .... ....|F-3 2F4D ....|B-8 1..B ....
....|..|--- .... ....|--- .... ....|--- .... ....
....|..|E-5 MFAF 11.2|F-3 9F.F ....|A-3 A..F ....
..22|..|--- ...D ....|F-1 2A.. ....|--- .... ....
....|..|--- ...B 11.1|--- .... ....|B-8 8..B ....
....|..|--- ...F ....|--- .... ....|--- .... ....
....|..|A-3 .F3D 21..|E-5 MFAB 11.2|B-8 B..F ....
..36|..|--- ...B ....|--- ...A ....|--- .... ....
....|..|--- ...F ....|--- ...9 11.1|A-3 A..B ....
....|..|--- ...D ....|--- ...B ....|--- .... ....
....|..|E-5 MFAF 11.2|G-3 2F4D ....|B-8 J..F ....
....|..|--- ...D ....|--- .... ....|--- .... ....
....|..|--- ...B 11.1|A-3 9F.F ....|B-8 B..B ....
..36|..|--- ...F ....|A-1 2A.. ....|--- .... ....
....|..|B-3 2F.F 2...|--- .... ....|B-8 8..F ....
....|..|--- .... ....|--- .... ....|--- .... ....
....|..|--- .... ....|G-3 2F4D ....|B-8 J..B ....
....|..|--- .... ....|--- .... ....|--- .... ....
....|..|A-3 ...B 31.A|A-3 9F.F ....|B-8 B..F ....
..1B|..|--- .... ....|A-1 2A.. ....|--- .... ....
....|..|--- .... ....|--- .... ....|B-8 8..B ....
....|..|--- .... ....|--- .... ....|--- .... ....

[Pattern18]
....|..|C-4 2F.F ....|A-3 9F.F ....|A-3 AF.F ....
..1B|..|--- .... ....|A-1 2A.. ....|--- .... ....
....|..|A-3 2F3D ....|--- .... ....|B-8 B..B ....
....|..|--- .... ....|--- .... ....|--- .... ....
....|..|D-4 2F.F 31.A|--- .... ....|B-8 J..F ....
....|..|--- .... ....|--- .... ....|--- .... ....
....|..|A-3 2F7D ....|A-3 2F3D ....|A-3 A..B ....
....|..|--- .... ....|--- .... ....|--- .... ....
....|..|C-4 2F.F ....|A-3 9F.F ....|B-8 8..F ....
..1B|..|--- .... ....|A-1 2A.. ....|--- .... ....
....|..|A-3 2F7. ....|--- .... ....|B-8 J..B ....
....|..|--- .... ....|--- .... ....|--- .... ....
....|..|D-4 2F.B 31.A|--- .... ....|B-8 8..F ....
....|..|--- .... ....|--- .... ....|--- .... ....
....|..|--- .... ....|A-3 2F3D ....|B-8 8..B ....
....|..|--- .... ....|--- .... ....|--- .... ....
....|..|C-4 2F.F ....|C-3 9F.F ....|B-8 B..F ....
..2D|..|--- .... ....|C-1 2A.. ....|--- .... ....
....|..|A-3 2F3D ....|--- .... ....|B-8 8..B ....
....|..|--- .... ....|--- .... ....|--- .... ....
....|..|D-4 2F.F 31.A|--- .... ....|B-8 J..F ....
....|..|--- .... ....|--- .... ....|--- .... ....
....|..|A-3 2F7D ....|--- .... ....|B-8 B..B ....
....|..|--- .... ....|--- .... ....|--- .... ....
....|..|C-4 2F.F ....|A-3 2F3D ....|B-8 J..F ....
....|..|--- .... ....|--- .... ....|--- .... ....
....|..|A-3 2F7. ....|--- .... ....|B-8 J..B ....
....|..|--- .... ....|--- .... ....|--- .... ....
....|..|D-4 2F.B 31.A|E-3 9F.F ....|B-8 U..F ....
..24|..|--- .... ....|E-1 2A.. ....|--- .... ....
....|..|--- .... ....|--- .... ....|B-8 J..B ....
....|..|--- .... ....|--- .... ....|--- .... ....
....|..|A-3 2F.F ....|F-3 9F.. ....|A-3 AF.F ....
..22|..|--- .... ....|F-1 2A.. ....|--- .... ....
....|..|F-3 2F8D ....|--- .... ....|B-8 8..B ....
....|..|A-3 .F.D ....|--- .... ....|--- .... ....
....|..|B-3 2F.F 31.A|F-3 2F4D ....|B-8 J..F ....
....|..|--- .... ....|--- .... ....|--- .... ....
....|..|F-3 2F4D ....|F-3 9F.F ....|A-3 A..B ....
..22|..|--- .... ....|F-1 2A.. ....|--- .... ....
....|..|A-3 2F.F ....|--- .... ....|B-8 8..F ....
....|..|--- .... ....|--- .... ....|--- .... ....
....|..|F-3 2F4D ....|F-3 2F4D ....|B-8 J..B ....
....|..|A-3 .F.D ....|--- .... ....|--- .... ....
....|..|B-3 2F.B 31.A|F-3 9F.F ....|A-3 A..F ....
..22|..|--- .... ....|F-1 2A.. ....|--- .... ....
....|..|--- .... ....|--- .... ....|B-8 8..B ....
....|..|--- .... ....|--- .... ....|--- .... ....
....|..|B-3 2F.F ....|A-3 9F.. ....|B-8 B..F ....
..1B|..|--- .... ....|A-1 2A.. ....|--- .... ....
....|..|G-3 .F8D ....|--- .... ....|A-3 A..B ....
....|..|B-3 .F.D ....|--- .... ....|--- .... ....
....|..|A-3 2F.F 31.A|G-3 2F4D ....|B-8 J..F ....
....|..|--- .... ....|--- .... ....|--- .... ....
....|..|G-3 .F8D ....|A-3 9F.F ....|B-8 B..B ....
..1B|..|--- .... ....|A-1 2A.. ....|--- .... ....
....|..|B-3 2F.F ....|--- .... ....|B-8 8..F ....
....|..|--- .... ....|--- .... ....|--- .... ....
....|..|G-3 .F8D ....|G-3 2F4D ....|B-8 J..B ....
....|..|--- .... ....|--- .... ....|--- .... ....
....|..|A-3 2F.B 31.A|A-3 9F.F ....|B-8 B..F ....
..1B|..|--- .... ....|A-1 2A.. ....|--- .... ....
....|..|--- .... ....|--- .... ....|B-8 8..B ....
....|..|--- .... ....|--- .... ....|--- .... ....

[Pattern19]
..1B|..|C-4 2F.F ....|A-1 2A.. ....|A-3 AF.F ....
....|..|--- .... ....|--- .... ....|--- .... ....
....|..|--- .... ....|--- .... ....|B-8 U..B ....
....|..|--- .... ....|--- ...1 ....|--- .... ....
....|..|D-4 ...F 31.A|--- .... ....|B-8 J..F ....
....|..|--- .... ....|A-3 2F31 ....|--- .... ....
....|..|--- .... ....|--- .... ....|A-3 A..B ....
....|..|--- .... ....|A-3 9F.1 ....|--- .... ....
..1B|..|E-4 2FAF ....|A-1 2A.. ....|C-4 2F.F ....
....|..|R-- .... ....|--- .... ....|--- .... ....
....|..|E-4 ...F ....|--- .... ....|B-8 J..B ....
....|..|R-- .... ....|--- .... ....|--- .... ....
....|..|F-4 ...F ....|--- .... ....|B-8 8..F ....
....|..|--- .... ....|A-3 2F31 ....|--- .... ....
....|..|E-4 .F.B ....|--- .... ....|A-3 B..B ....
....|..|--- .... ....|C-3 9F.1 ....|--- .... ....
..2D|..|F-4 .FAC ....|C-1 2A.. ....|A-3 A..C ....
....|..|--- .... ....|--- .... ....|--- .... ....
....|..|--- .... ....|--- .... ....|B-8 8..9 ....
....|..|--- .... ....|--- .... ....|--- .... ....
....|..|--- ...9 ....|--- .... ....|B-8 J..C ....
....|..|--- .... ....|--- .... ....|--- .... ....
....|..|R-- .... ....|--- .... ....|A-3 A..9 ....
....|..|--- .... ....|A-3 2F71 ....|--- .... ....
....|..|F-4 ...9 ....|--- .... ....|B-8 J..C ....
....|..|--- .... ....|--- .... ....|--- .... ....
....|..|--- .... ....|--- .... ....|B-8 J..9 ....
....|..|--- .... ....|E-3 9F.1 ....|--- .... ....
..24|..|--- ...9 11.1|E-1 2A.. ....|B-8 U..C ....
....|..|--- .... ....|--- .... ....|B-8 J..C ....
....|..|--- .... ....|--- .... ....|B-8 J..9 ....
....|..|--- .... ....|F-3 9F.. ....|B-8 J..D ....
..22|..|A-3 2F.A ....|F-1 2A.. ....|A-3 AF.A ....
....|..|--- .... ....|--- .... ....|--- .... ....
....|..|--- .... ....|--- .... ....|B-8 U..7 ....
....|..|--- .... ....|F-3 2F41 ....|--- .... ....
....|..|B-3 ...A 31.A|--- .... ....|B-8 J..A ....
....|..|--- .... ....|F-3 9F.1 ....|--- .... ....
..22|..|--- .... ....|F-1 2A.. ....|A-3 A..7 ....
....|..|--- .... ....|--- .... ....|--- .... ....
....|..|A-3 2FA7 ....|--- .... ....|A-3 2F.A ....
....|..|--- .... ....|F-3 2F41 ....|--- .... ....
....|..|--- .... ....|--- .... ....|B-8 J..7 ....
....|..|--- .... ....|F-3 9F.1 ....|--- .... ....
..22|..|B-3 .FA7 31.A|F-1 2A.. ....|B-3 2F.A ....
....|..|--- .... ....|--- .... ....|--- .... ....
....|..|--- .... ....|--- .... ....|A-3 B..7 ....
....|..|--- .... ....|A-3 9F.. ....|--- .... ....
..1B|..|--- .... ....|A-1 2A.. ....|A-3 A..9 ....
....|..|--- .... ....|--- .... ....|--- .... ....
....|..|A-3 .... ....|--- .... ....|B-8 8..6 ....
....|..|--- .... ....|G-3 2F41 ....|--- .... ....
....|..|A-3 ...9 31.A|--- .... ....|B-8 J..9 ....
....|..|--- .... ....|A-3 9F.1 ....|--- .... ....
..1B|..|--- ...6 ....|A-1 2A.. ....|A-3 A..6 ....
....|..|--- .... ....|--- .... ....|--- .... ....
....|..|E-3 ...9 ....|--- .... ....|B-8 J..9 ....
....|..|--- .... ....|G-3 2F41 ....|--- .... ....
....|..|A-3 .F.6 ....|--- .... ....|B-8 J..6 ....
....|..|--- .... ....|A-3 9F.1 ....|--- .... ....
..1B|..|A-3 .F.9 31.A|A-1 2A.. ....|B-8 U..9 ....
....|..|--- .... ....|--- .... ....|--- .... ....
....|..|E-3 .FA6 ....|--- .... ....|B-8 J..6 ....
....|..|--- .... ....|--- .... ....|--- .... ....

[Pattern20]
..1B|..|C-4 2F.7 ....|A-1 2A.. ....|A-3 AF.7 ....
....|..|--- .... ....|--- .... ....|--- .... ....
....|..|--- .... ....|--- .... ....|B-8 B..5 ....
....|..|--- .... ....|--- ...1 ....|--- .... ....
....|..|D-4 ...7 31.A|--- .... ....|B-8 J..7 ....
....|..|--- .... ....|A-3 2F31 ....|--- .... ....
....|..|--- .... ....|--- .... ....|A-3 A..5 ....
....|..|--- .... ....|A-3 9F.1 ....|--- .... ....
..1B|..|C-4 ...7 ....|A-1 2A.. ....|C-4 2F.7 ....
....|..|--- .... ....|--- .... ....|--- .... ....
....|..|--- .... ....|--- .... ....|B-8 J..5 ....
....|..|--- .... ....|--- .... ....|--- .... ....
....|..|E-3 2FA7 ....|--- .... ....|B-8 8..7 ....
....|..|--- .... ....|A-3 2F31 ....|--- .... ....
....|..|--- .... 11.1|--- .... ....|B-8 8..5 ....
....|..|--- .... ....|C-3 9F.1 ....|--- .... ....
..2D|..|E-3 ...6 ....|C-1 2A.. ....|B-8 B..6 ....
....|..|--- .... ....|--- .... ....|--- .... ....
....|..|E-3 ...4 ....|--- .... ....|B-8 8..4 ....
....|..|--- .... ....|--- .... ....|--- .... ....
....|..|F-3 ...6 ....|--- .... ....|B-8 J..6 ....
....|..|--- .... ....|--- .... ....|--- .... ....
....|..|E-3 ...4 ....|--- .... ....|B-8 B..4 ....
....|..|--- .... ....|A-3 2F71 ....|--- .... ....
....|..|E-3 ...6 ....|--- .... ....|B-8 J..6 ....
....|..|--- .... ....|--- .... ....|--- .... ....
....|..|--- .... ....|--- .... ....|B-8 J..4 ....
....|..|--- .... ....|E-3 9F.1 ....|--- .... ....
..24|..|--- ...4 11.1|E-1 2A.. ....|B-8 U..6 ....
....|..|--- .... ....|--- .... ....|--- .... ....
....|..|--- .... ....|--- .... ....|B-8 J..4 ....
....|..|--- .... ....|F-3 9F.. ....|--- .... ....
..22|..|A-3 ...5 ....|F-1 2A.. ....|A-3 AF.5 ....
....|..|--- .... ....|--- .... ....|--- .... ....
....|..|--- .... ....|--- .... ....|B-8 8..3 ....
....|..|--- .... ....|F-3 2F41 ....|--- .... ....
....|..|B-3 ...5 31.A|--- .... ....|B-8 1F.5 ....
....|..|--- .... ....|F-3 9F.1 ....|--- .... ....
..22|..|--- .... ....|F-1 2A.. ....|A-3 A..3 ....
....|..|--- .... ....|--- .... ....|--- .... ....
....|..|A-3 ...5 ....|--- .... ....|A-3 2F.5 ....
....|..|--- .... ....|F-3 2F41 ....|--- .... ....
....|..|--- .... ....|--- .... ....|B-8 1..3 ....
....|..|--- .... ....|F-3 9F.1 ....|--- .... ....
..22|..|E-3 2FA5 ....|F-1 2A.. ....|B-3 2F.5 ....
....|..|--- .... ....|--- .... ....|--- .... ....
....|..|--- .... 11.1|--- .... ....|B-8 8..3 ....
....|..|--- .... ....|A-3 9F.. ....|--- .... ....
..1B|..|E-3 ...3 ....|A-1 2A.. ....|B-8 B..3 ....
....|..|--- .... ....|--- .... ....|--- .... ....
....|..|E-3 ...1 ....|--- .... ....|A-3 A..1 ....
....|..|--- .... ....|G-3 2F41 ....|--- .... ....
....|..|F-3 ...3 ....|--- .... ....|B-8 J..3 ....
....|..|--- .... ....|A-3 9F.1 ....|--- .... ....
..1B|..|E-3 ...1 ....|A-1 2A.. ....|B-8 B..1 ....
....|..|--- .... ....|--- .... ....|--- .... ....
....|..|E-3 ...3 ....|--- .... ....|B-8 8..3 ....
....|..|--- .... ....|G-3 2F41 ....|--- .... ....
....|..|--- .... ....|--- .... ....|B-8 J..1 ....
....|..|--- .... ....|A-3 9F.1 ....|--- .... ....
..1B|..|A-3 ...1 31.A|A-1 2A.. ....|B-8 B..3 ....
....|..|--- .... ....|--- .... ....|--- .... ....
....|..|--- .... ....|--- .... ....|B-8 8..1 ....
....|..|--- .... ....|--- .... ....|--- .... ....

[Pattern21]
..1B|..|A-1 2A.. ....|R-- .... ....|R-- .... ....
....|..|--- .... ....|--- .... ....|--- .... ....
....|..|--- .... ....|--- .... ....|--- .... ....
....|..|--- ...1 ....|--- .... ....|--- .... ....
....|..|--- .... ....|--- .... ....|--- .... ....
....|..|A-3 2F31 ....|--- .... ....|--- .... ....
....|..|--- .... ....|--- .... ....|--- .... ....
....|..|A-3 9F.1 ....|--- .... ....|--- .... ....
..1B|..|A-1 2A.. ....|--- .... ....|--- .... ....
....|..|--- .... ....|--- .... ....|--- .... ....
....|..|--- .... ....|--- .... ....|--- .... ....
....|..|--- .... ....|--- .... ....|--- .... ....
....|..|--- .... ....|--- .... ....|--- .... ....
....|..|A-3 2F31 ....|--- .... ....|--- .... ....
....|..|--- .... ....|--- .... ....|--- .... ....
....|..|C-3 9F.1 ....|--- .... ....|--- .... ....
..2D|..|C-1 2A.. ....|--- .... ....|--- .... ....
....|..|--- .... ....|--- .... ....|--- .... ....
....|..|--- .... ....|--- .... ....|--- .... ....
....|..|--- .... ....|--- .... ....|--- .... ....
....|..|--- .... ....|--- .... ....|--- .... ....
....|..|--- .... ....|--- .... ....|--- .... ....
....|..|--- .... ....|--- .... ....|--- .... ....
....|..|A-3 2F71 ....|--- .... ....|--- .... ....
....|..|--- .... ....|--- .... ....|--- .... ....
....|..|--- .... ....|--- .... ....|--- .... ....
....|..|--- .... ....|--- .... ....|--- .... ....
....|..|E-3 9F.1 ....|--- .... ....|--- .... ....
..24|..|E-1 2A.. ....|--- .... ....|--- .... ....
....|..|--- .... ....|--- .... ....|--- .... ....
....|..|--- .... ....|--- .... ....|--- .... ....
....|..|F-3 9F.. ....|--- .... ....|--- .... ....
..22|..|F-1 2A.. ....|--- .... ....|--- .... ....
....|..|--- .... ....|--- .... ....|--- .... ....
....|..|--- .... ....|--- .... ....|--- .... ....
....|..|F-3 2F41 ....|--- .... ....|--- .... ....
....|..|--- .... ....|--- .... ....|--- .... ....
....|..|F-3 9F.1 ....|--- .... ....|--- .... ....
..22|..|F-1 2A.. ....|--- .... ....|--- .... ....
....|..|--- .... ....|--- .... ....|--- .... ....
....|..|--- .... ....|--- .... ....|--- .... ....
....|..|F-3 2F41 ....|--- .... ....|--- .... ....
....|..|--- .... ....|--- .... ....|--- .... ....
....|..|F-3 9F.1 ....|--- .... ....|--- .... ....
..22|..|F-1 2A.. ....|--- .... ....|--- .... ....
....|..|--- .... ....|--- .... ....|--- .... ....
....|..|--- .... ....|--- .... ....|--- .... ....
....|..|A-3 9F.. ....|--- .... ....|--- .... ....
..1B|..|A-1 2A.. ....|--- .... ....|--- .... ....
....|..|--- .... ....|--- .... ....|--- .... ....
....|..|--- .... ....|--- .... ....|--- .... ....
....|..|G-3 2F41 ....|--- .... ....|--- .... ....
....|..|--- .... ....|--- .... ....|--- .... ....
....|..|A-3 9F.1 ....|--- .... ....|--- .... ....
..1B|..|A-1 2A.. ....|--- .... ....|--- .... ....
....|..|--- .... ....|--- .... ....|--- .... ....
....|..|--- .... ....|--- .... ....|--- .... ....
....|..|G-3 2F41 ....|--- .... ....|--- .... ....
....|..|--- .... ....|--- .... ....|--- .... ....
....|..|A-3 9F.1 ....|--- .... ....|--- .... ....
..1B|..|A-1 2A.. ....|--- .... ....|--- .... ....
....|..|--- .... ....|--- .... ....|--- .... ....
....|..|--- .... ....|--- .... ....|--- .... ....
....|..|--- .... ....|--- .... ....|--- .... ....

[Pattern22]
....|..|A-3 NF.F ....|A-3 MFAF ....|B-8 8F.F ....
....|..|E-3 .F.B ....|E-3 .F.B ....|--- .... ....
....|..|G-3 .F.F ....|G-3 .FAF ....|B-8 B..B ....
....|..|A-3 .F.B ....|A-3 .F.B ....|--- .... ....
....|..|F-3 .F.F ....|F-3 .FAF ....|B-8 J..F ....
....|..|G-3 .F.B ....|G-3 .F.B ....|--- .... ....
....|..|E-3 .F.F ....|E-3 .FAF ....|B-8 8..B ....
....|..|F-3 .F.B ....|F-3 .F.B ....|--- .... ....
....|..|A-3 .F.F ....|A-3 .FAF ....|B-8 8..F ....
....|..|E-3 .F.B ....|E-3 .F.B ....|--- .... ....
....|..|G-3 .F.F ....|G-3 .FAF ....|B-8 J..B ....
....|..|A-3 .F.B ....|A-3 .F.B ....|--- .... ....
....|..|F-3 .F.F ....|F-3 .FAF ....|B-8 8..F ....
....|..|G-3 .F.B ....|G-3 .F.B ....|--- .... ....
....|..|E-3 .F.F ....|E-3 .FAF ....|B-8 8..B ....
....|..|F-3 .F.B ....|F-3 .F.B ....|--- .... ....
....|..|A-3 .F.F ....|A-3 .FAF ....|B-8 U..F ....
....|..|E-3 .F.B ....|E-3 .F.B ....|--- .... ....
....|..|G-3 .F.F ....|G-3 .FAF ....|B-8 8..B ....
....|..|A-3 .F.B ....|A-3 .F.B ....|--- .... ....
....|..|F-3 .F.F ....|F-3 .FAF ....|B-8 J..F ....
....|..|G-3 .F.B ....|G-3 .F.B ....|--- .... ....
....|..|E-3 .F.F ....|E-3 .FAF ....|B-8 U..B ....
....|..|F-3 .F.B ....|F-3 .F.B ....|--- .... ....
....|..|A-3 .F.F ....|A-3 .FAF ....|B-8 8..F ....
....|..|E-3 .F.B ....|E-3 .F.B ....|--- .... ....
....|..|G-3 .F.F ....|G-3 .FAF ....|B-8 J..B ....
....|..|A-3 .F.B ....|A-3 .F.B ....|--- .... ....
....|..|F-3 .F.F ....|F-3 .FAF ....|B-8 U..F ....
....|..|G-3 .F.B ....|G-3 .F.B ....|--- .... ....
....|..|E-3 .F.F ....|E-3 .FAF ....|B-8 8..B ....
....|..|F-3 .F.B ....|F-3 .F.B ....|--- .... ....
....|..|A-3 .F.F ....|A-3 .FAF ....|B-8 8F.F ....
....|..|E-3 .F.B ....|E-3 .F.B ....|--- .... ....
....|..|G-3 .F.F ....|G-3 .FAF ....|B-8 8..B ....
....|..|A-3 .F.B ....|A-3 .F.B ....|--- .... ....
....|..|F-3 .F.F ....|F-3 .FAF ....|B-8 J..F ....
....|..|G-3 .F.B ....|G-3 .F.B ....|--- .... ....
....|..|E-3 .F.F ....|E-3 .FAF ....|B-8 8..B ....
....|..|F-3 .F.B ....|F-3 .F.B ....|--- .... ....
....|..|A-3 .F.F ....|A-3 .FAF ....|B-8 8..F ....
....|..|E-3 .F.B ....|E-3 .F.B ....|--- .... ....
....|..|G-3 .F.F ....|G-3 .FAF ....|B-8 J..B ....
....|..|A-3 .F.B ....|A-3 .F.B ....|--- .... ....
....|..|F-3 .F.F ....|F-3 .FAF ....|B-8 8..F ....
....|..|G-3 .F.B ....|G-3 .F.B ....|--- .... ....
....|..|E-3 .F.F ....|E-3 .FAF ....|B-8 8..B ....
....|..|F-3 .F.B ....|F-3 .F.B ....|--- .... ....
....|..|A-3 .F.F ....|A-3 .FAF ....|B-8 B..F ....
....|..|E-3 .F.B ....|E-3 .F.B ....|--- .... ....
....|..|G-3 .F.F ....|G-3 .FAF ....|B-8 8..B ....
....|..|A-3 .F.B ....|A-3 .F.B ....|--- .... ....
....|..|F-3 .F.F ....|F-3 .FAF ....|B-8 J..F ....
....|..|G-3 .F.B ....|G-3 .F.B ....|--- .... ....
....|..|E-3 .F.F ....|E-3 .FAF ....|B-8 B..B ....
....|..|F-3 .F.B ....|F-3 .F.B ....|--- .... ....
....|..|A-3 .F.F ....|A-3 .FAF ....|B-8 8..F ....
....|..|E-3 .F.B ....|E-3 .F.B ....|--- .... ....
....|..|G-3 .F.F ....|G-3 .FAF ....|B-8 J..B ....
....|..|A-3 .F.B ....|A-3 .F.B ....|--- .... ....
....|..|F-3 .F.F ....|F-3 .FAF ....|B-8 B..F ....
....|..|G-3 .F.B ....|G-3 .F.B ....|--- .... ....
....|..|E-3 .F.F ....|E-3 .FAF ....|B-8 8..B ....
....|..|F-3 .F.B ....|F-3 .F.B ....|--- .... ....

[Pattern23]
....|..|R-- .... ....|R-- .... ....|R-- .... ....
....|..|--- .... ....|--- .... ....|--- .... ....
....|..|--- .... ....|--- .... ....|--- .... ....
....|..|--- .... ....|--- .... ....|--- .... ....
....|..|--- .... ....|--- .... ....|--- .... ....
....|..|--- .... ....|--- .... ....|--- .... ....
....|..|--- .... ....|--- .... ....|--- .... ....
....|..|--- .... ....|--- .... ....|--- .... ....
....|..|--- .... ....|--- .... ....|--- .... ....
....|..|--- .... ....|--- .... ....|--- .... ....
....|..|--- .... ....|--- .... ....|--- .... ....
....|..|--- .... ....|--- .... ....|--- .... ....
....|..|--- .... ....|--- .... ....|--- .... ....
....|..|--- .... ....|--- .... ....|--- .... ....
....|..|--- .... ....|--- .... ....|--- .... ....
....|..|--- .... ....|--- .... ....|--- .... ....
....|..|--- .... ....|--- .... ....|--- .... ....
....|..|--- .... ....|--- .... ....|--- .... ....
....|..|--- .... ....|--- .... ....|--- .... ....
....|..|--- .... ....|--- .... ....|--- .... ....
....|..|--- .... ....|--- .... ....|--- .... ....
....|..|--- .... ....|--- .... ....|--- .... ....
....|..|--- .... ....|--- .... ....|--- .... ....
....|..|--- .... ....|--- .... ....|--- .... ....
....|..|--- .... ....|--- .... ....|--- .... ....
....|..|--- .... ....|--- .... ....|--- .... ....
....|..|--- .... ....|--- .... ....|--- .... ....
....|..|--- .... ....|--- .... ....|--- .... ....
....|..|--- .... ....|--- .... ....|--- .... ....
....|..|--- .... ....|--- .... ....|--- .... ....
....|..|--- .... ....|--- .... ....|--- .... ....
....|..|--- .... ....|--- .... ....|--- .... ....
....|..|--- .... ....|--- .... ....|--- .... ....
....|..|--- .... ....|--- .... ....|--- .... ....
....|..|--- .... ....|--- .... ....|--- .... ....
....|..|--- .... ....|--- .... ....|--- .... ....
....|..|--- .... ....|--- .... ....|--- .... ....
....|..|--- .... ....|--- .... ....|--- .... ....
....|..|--- .... ....|--- .... ....|--- .... ....
....|..|--- .... ....|--- .... ....|--- .... ....
....|..|--- .... ....|--- .... ....|--- .... ....
....|..|--- .... ....|--- .... ....|--- .... ....
....|..|--- .... ....|--- .... ....|--- .... ....
....|..|--- .... ....|--- .... ....|--- .... ....
....|..|--- .... ....|--- .... ....|--- .... ....
....|..|--- .... ....|--- .... ....|--- .... ....
....|..|--- .... ....|--- .... ....|--- .... ....
....|..|--- .... ....|--- .... ....|--- .... ....
....|..|--- .... ....|--- .... ....|--- .... ....
....|..|--- .... ....|--- .... ....|--- .... ....
....|..|--- .... ....|--- .... ....|--- .... ....
....|..|--- .... ....|--- .... ....|--- .... ....
....|..|--- .... ....|--- .... ....|--- .... ....
....|..|--- .... ....|--- .... ....|--- .... ....
....|..|--- .... ....|--- .... ....|--- .... ....
....|..|--- .... ....|--- .... ....|--- .... ....
....|..|--- .... ....|--- .... ....|--- .... ....
....|..|--- .... ....|--- .... ....|--- .... ....
....|..|--- .... ....|--- .... ....|--- .... ....
....|..|--- .... ....|--- .... ....|--- .... ....
....|..|--- .... ....|--- .... ....|--- .... ....
....|..|--- .... ....|--- .... ....|--- .... ....
....|..|--- .... ....|--- .... ....|--- .... ....
....|..|--- .... ....|--- .... ....|--- .... ....

[Pattern24]
...E|..|A#2 9F.F ....|C-4 DF.F ....|D-5 1F3. ....
..28|..|D-1 NA.. ....|--- ...B ....|--- .... ....
....|..|--- .... ....|C-4 L... ....|--- .... ....
....|..|--- .... ....|C-4 K... ....|--- .... ....
..14|..|D-2 2E.. ....|C-4 ...F ....|--- .... ....
....|..|--- .... ....|--- .... ....|--- .... ....
..50|..|D-1 NA.. ....|C-4 L..B ....|--- .... ....
....|..|--- .... ....|C-4 K... ....|--- .... ....
..14|..|D-2 MA.. ....|C-4 L... ....|--- .... ....
....|..|--- .... ....|C-4 K... ....|--- .... ....
..11|..|A#1 1A.. ....|C-4 ...F ....|--- .... ....
....|..|--- .... ....|--- .... ....|--- .... ....
....|..|--- .... ....|C-4 A..F ....|--- .... ....
....|..|--- .... ....|--- ...B ....|--- .... ....
....|..|--- .... ....|C-4 L... ....|--- .... ....
....|..|--- .... ....|C-4 K... ....|--- .... ....
...E|..|A#2 9F.F ....|C-4 .... ....|--- .... ....
..28|..|D-1 NA.. ....|--- .... ....|--- .... ....
....|..|--- .... ....|C-4 H..F ....|--- .... ....
....|..|--- .... ....|--- .... ....|--- .... ....
..14|..|D-2 2E.. ....|F-4 F..F ....|--- .... ....
....|..|--- .... ....|--- .... ....|--- .... ....
..50|..|D-1 NA.. ....|C-4 L..B ....|--- .... ....
....|..|--- .... ....|C-4 K... ....|--- .... ....
..14|..|D-2 MA.. ....|C-4 L... ....|--- .... ....
....|..|--- .... ....|C-4 K... ....|--- .... ....
..11|..|A#1 1A.. ....|C-4 ...F ....|--- .... ....
....|..|--- .... ....|--- .... ....|--- .... ....
....|..|--- .... ....|C-4 D..F ....|--- .... ....
....|..|--- .... ....|--- .... ....|--- .... ....
....|..|--- .... ....|C-4 B..B ....|--- .... ....
....|..|--- .... ....|--- .... ....|--- .... ....
...E|..|A#2 9F.F ....|E-4 E... ....|--- .... ....
..28|..|D-1 NA.. ....|--- ...B ....|--- .... ....
....|..|--- .... ....|F-4 ...F ....|--- .... ....
....|..|--- .... ....|--- .... ....|--- .... ....
..14|..|D-2 2E.. ....|C-4 H... ....|--- .... ....
....|..|--- .... ....|--- ...B ....|--- .... ....
..50|..|D-1 NA.. ....|C-4 L... ....|--- .... ....
....|..|--- .... ....|C-4 K... ....|--- .... ....
..14|..|D-2 MA.. ....|C-4 L... ....|--- .... ....
....|..|--- .... ....|C-4 K... ....|--- .... ....
....|..|--- .... ....|C-4 ...F ....|--- .... ....
....|..|--- .... ....|--- .... ....|--- .... ....
....|..|--- .... ....|C-4 H... ....|--- .... ....
....|..|--- .... ....|--- ...B ....|--- .... ....
....|..|--- .... ....|C-4 L... ....|--- .... ....
....|..|--- .... ....|C-4 K... ....|--- .... ....
..11|..|A#1 1A.. ....|F-4 E..F ....|--- .... ....
....|..|--- .... ....|--- ...B ....|--- .... ....
....|..|--- .... ....|C-4 L... ....|--- .... ....
....|..|--- .... ....|C-4 K... ....|--- .... ....
....|..|--- .... ....|F-4 E..F ....|--- .... ....
....|..|--- .... ....|--- .... ....|--- .... ....
....|..|--- .... ....|C-4 D... ....|--- .... ....
....|..|--- .... ....|--- .... ....|--- .... ....
....|..|--- .... ....|F-4 F... ....|--- .... ....
....|..|--- .... ....|--- ...B ....|--- .... ....
....|..|--- .... ....|C-4 K..F ....|--- .... ....
....|..|--- .... ....|C-4 L... ....|--- .... ....
..11|..|--- .... ....|C-4 K... ....|--- .... ....
....|..|--- .... ....|--- ...B ....|--- .... ....
..11|..|--- .... ....|C-4 ...F ....|--- .... ....
....|..|--- .... ....|C-4 L... ....|--- .... ....

[Pattern25]
....|..|C-4 2F.F ....|A-3 9F.F ....|C-4 DF.F ....
..1B|..|--- .... ....|A-1 2A.. ....|--- ...B ....
....|..|D-4 ...F 31.A|--- .... ....|C-4 L... ....
....|..|--- .... ....|--- .... ....|C-4 K... ....
....|..|C-4 ...F ....|--- .... ....|C-4 ...F ....
....|..|--- .... ....|--- .... ....|--- .... ....
....|..|E-3 2FAF ....|A-3 2F3D ....|A#4 E... ....
....|..|--- .... 11.1|--- .... ....|--- .... ....
....|..|E-3 ...F ....|A-3 9F.F ....|A#4 F... ....
..1B|..|E-3 ...B ....|A-1 2A.. ....|--- ...B ....
....|..|F-3 ...F ....|--- .... ....|A#4 C..F ....
....|..|E-3 ...B ....|--- .... ....|--- .... ....
....|..|E-3 ...F ....|--- .... ....|C-4 D... ....
....|..|--- .... ....|--- .... ....|--- ...B ....
....|..|--- ...B 11.1|A-3 2F3D ....|C-4 L... ....
....|..|--- .... ....|--- .... ....|C-4 K... ....
....|..|A-3 ...F ....|C-3 9F.F ....|C-4 .... ....
..2D|..|--- .... ....|C-1 2A.. ....|--- .... ....
....|..|B-3 ...F 31.A|--- .... ....|C-4 H..F ....
....|..|--- .... ....|--- .... ....|--- ...B ....
....|..|A-3 ...F ....|--- .... ....|C-4 L... ....
....|..|--- .... ....|--- .... ....|C-4 K... ....
....|..|E-3 2FAF ....|--- .... ....|C-4 ...F ....
....|..|--- .... 11.1|--- .... ....|--- .... ....
....|..|E-3 ...F ....|A-3 2F7D ....|C-4 D... ....
....|..|E-3 ...B ....|--- .... ....|--- ...B ....
....|..|F-3 ...F ....|--- .... ....|C-4 L... ....
....|..|E-3 ...B ....|--- .... ....|C-4 K... ....
....|..|E-3 ...F ....|E-3 9F.F ....|C-4 ...F ....
..24|..|--- .... ....|E-1 2A.. ....|--- .... ....
....|..|A-3 ...B 31.A|--- .... ....|C-4 D... ....
....|..|--- .... ....|--- .... ....|--- .... ....
....|..|A-3 ...F ....|F-3 9F.. ....|C-4 C... ....
..22|..|--- .... ....|F-1 2A.. ....|--- ...B ....
....|..|--- .... ....|--- .... ....|--- ...F ....
....|..|--- .... ....|--- .... ....|--- .... ....
....|..|B-3 ...F 31.A|F-3 2F4D ....|C-4 H... ....
....|..|--- .... ....|--- .... ....|--- ...B ....
....|..|--- .... ....|F-3 9F.F ....|C-4 L... ....
..22|..|--- .... ....|F-1 2A.. ....|C-4 K... ....
....|..|A-3 ...F ....|--- .... ....|A#4 F... ....
....|..|--- .... ....|--- .... ....|--- .... ....
....|..|--- .... ....|F-3 2F4D ....|C-4 D..F ....
....|..|--- .... ....|--- .... ....|--- ...B ....
....|..|E-3 2FAF ....|F-3 9F.F ....|C-4 L... ....
..22|..|--- .... ....|F-1 2A.. ....|C-4 K... ....
....|..|--- .... 11.1|--- .... ....|C-4 ...F ....
....|..|--- .... ....|--- .... ....|--- .... ....
....|..|E-3 ...F ....|A-3 9F.. ....|C-4 H... ....
..1B|..|--- .... ....|A-1 2A.. ....|--- ...B ....
....|..|E-3 ...B ....|--- .... ....|C-4 L... ....
....|..|--- .... ....|--- .... ....|C-4 K... ....
....|..|F-3 ...F ....|G-3 2F4D ....|A#4 E..F ....
....|..|--- .... ....|--- .... ....|--- .... ....
....|..|E-3 ...B ....|A-3 9F.F ....|C-4 D... ....
..1B|..|--- .... ....|A-1 2A.. ....|--- .... ....
....|..|E-3 ...F ....|--- .... ....|A#4 F... ....
....|..|--- .... ....|--- .... ....|--- ...B ....
....|..|--- .... ....|G-3 2F4D ....|C-4 K..F ....
....|..|--- .... ....|--- .... ....|C-4 L... ....
....|..|A-3 ...B 31.A|A-3 9F.F ....|C-4 K... ....
..1B|..|--- .... ....|A-1 2A.. ....|--- ...B ....
....|..|--- .... ....|--- .... ....|C-4 ...F ....
....|..|--- .... ....|--- .... ....|C-4 L... ....

[Pattern26]
..36|..|A-1 9F.F ....|C-4 DF.F ....|A-4 1F3D ....
....|..|--- .... ....|--- .... ....|C-4 ...A ....
..1B|..|A-1 NA.. ....|C-4 ...B ....|A-3 ...D ....
....|..|--- .... ....|--- .... ....|A-4 ...A ....
....|..|--- .... ....|C-4 L... ....|A-2 ...D ....
....|..|--- .... ....|C-4 K... ....|A-3 ...A ....
....|..|--- .... ....|C-4 L... ....|A-4 ...D ....
....|..|--- .... ....|C-4 K... ....|A-2 ...A ....
..36|..|A-1 2E.. ....|C-4 ...F ....|A-3 ...D ....
....|..|--- .... ....|--- .... ....|A-4 ...A ....
....|..|--- .... ....|--- .... ....|A-2 ...D ....
....|..|--- .... ....|--- .... ....|A-3 ...A ....
..1B|..|A-2 NA.. ....|C-4 L..B ....|A-4 ...D ....
....|..|--- .... ....|--- .... ....|A-2 ...A ....
....|..|--- .... ....|C-4 K... ....|A-3 ...D ....
....|..|--- .... ....|--- .... ....|A-4 ...A ....
..36|..|A-1 MA.. ....|C-4 L... ....|A-2 ...D ....
....|..|--- .... ....|--- .... ....|A-3 ...A ....
....|..|--- .... ....|C-4 K... ....|A-4 ...D ....
....|..|--- .... ....|--- .... ....|A-2 ...A ....
..36|..|A-1 1A.. ....|C-2 9..F ....|A-3 ...D ....
....|..|--- .... ....|--- .... ....|A-4 ...A ....
....|..|--- .... ....|R-- .... ....|A-2 ...D ....
....|..|--- .... ....|--- .... ....|A-3 ...A ....
....|..|--- .... ....|C-4 A..F ....|A-4 ...D ....
....|..|--- .... ....|--- .... ....|A-2 ...A ....
....|..|--- .... ....|--- ...B ....|A-3 ...D ....
....|..|--- .... ....|--- .... ....|A-4 ...A ....
....|..|--- .... ....|C-4 L... ....|A-4 ...D ....
....|..|--- .... ....|--- .... ....|A-3 ...A ....
....|..|--- .... ....|C-4 K... ....|A-3 ...D ....
....|..|--- .... ....|--- .... ....|A-4 ...A ....
...E|..|E-2 9F.F ....|C-4 DF.F ....|E-4 ...D ....
....|..|--- .... ....|--- .... ....|A-3 ...A ....
..24|..|E-1 NA.. ....|C-4 ...B ....|E-3 ...D ....
....|..|--- .... ....|--- .... ....|E-4 ...A ....
....|..|--- .... ....|C-4 L... ....|E-2 ...D ....
....|..|--- .... ....|C-4 K... ....|E-3 ...A ....
....|..|--- .... ....|C-4 L... ....|E-4 ...D ....
....|..|--- .... ....|C-4 K... ....|E-2 ...A ....
..24|..|E-1 2E.. ....|C-4 ...F ....|E-3 ...D ....
....|..|--- .... ....|--- .... ....|E-4 ...A ....
....|..|--- .... ....|--- .... ....|E-2 ...D ....
....|..|--- .... ....|--- .... ....|E-3 ...A ....
..24|..|E-1 NA.. ....|E-4 E..B ....|E-4 ...D ....
....|..|--- .... ....|--- .... ....|E-2 ...A ....
....|..|--- .... ....|E-4 C... ....|E-3 ...D ....
....|..|--- .... ....|--- .... ....|E-4 ...A ....
..12|..|E-2 MA.. ....|C-4 B... ....|E-2 ...D ....
....|..|--- .... ....|--- .... ....|E-3 ...A ....
....|..|--- .... ....|C-4 B... ....|E-4 ...D ....
....|..|--- .... ....|--- .... ....|E-2 ...A ....
..24|..|E-1 1A.. ....|C-2 9..F ....|E-3 ...D ....
....|..|--- .... ....|--- .... ....|E-4 ...A ....
....|..|--- .... ....|R-- .... ....|E-2 ...D ....
....|..|--- .... ....|--- .... ....|E-3 ...A ....
....|..|--- .... ....|C-4 A..F ....|E-4 ...D ....
....|..|--- .... ....|--- .... ....|E-2 ...A ....
....|..|--- .... ....|--- ...B ....|E-3 ...D ....
....|..|--- .... ....|--- .... ....|E-4 ...A ....
....|..|--- .... ....|C-4 L... ....|E-4 ...D ....
....|..|--- .... ....|--- .... ....|E-3 ...A ....
....|..|--- .... ....|C-4 K... ....|E-3 ...D ....
....|..|--- .... ....|--- .... ....|E-4 ...A ....
...E|..|F-2 9F.F ....|C-4 DF.F ....|F-4 .F4D ....
....|..|--- .... ....|--- .... ....|E-3 ...A ....
..22|..|F-1 NA.. ....|C-4 ...B ....|F-3 ...D ....
....|..|--- .... ....|--- .... ....|F-4 ...A ....
....|..|--- .... ....|C-4 L... ....|F-2 ...D ....
....|..|--- .... ....|C-4 K... ....|F-3 ...A ....
....|..|--- .... ....|C-4 L... ....|F-4 ...D ....
....|..|--- .... ....|C-4 K... ....|F-2 ...A ....
..22|..|F-1 2E.. ....|C-4 ...F ....|F-3 ...D ....
....|..|--- .... ....|--- .... ....|F-4 ...A ....
....|..|--- .... ....|--- .... ....|F-2 ...D ....
....|..|--- .... ....|--- .... ....|F-3 ...A ....
..11|..|F-2 NA.. ....|C-4 L..B ....|F-4 ...D ....
....|..|--- .... ....|--- .... ....|F-2 ...A ....
....|..|--- .... ....|C-4 K... ....|F-3 ...D ....
....|..|--- .... ....|--- .... ....|F-4 ...A ....
..11|..|F-2 MA.. ....|C-4 L... ....|F-2 ...D ....
....|..|--- .... ....|--- .... ....|F-3 ...A ....
....|..|--- .... ....|C-4 K... ....|F-4 ...D ....
....|..|--- .... ....|--- .... ....|F-2 ...A ....
....|..|--- .... ....|C-2 9..F ....|F-3 ...D ....
....|..|--- .... ....|--- .... ....|F-4 ...A ....
....|..|--- .... ....|R-- .... ....|F-2 ...D ....
....|..|--- .... ....|--- .... ....|F-3 ...A ....
....|..|--- .... ....|C-4 A..F ....|F-4 ...D ....
....|..|--- .... ....|--- .... ....|F-2 ...A ....
....|..|--- .... ....|--- ...B ....|F-3 ...D ....
....|..|--- .... ....|--- .... ....|F-4 ...A ....
....|..|--- .... ....|C-4 L... ....|F-4 ...D ....
....|..|--- .... ....|--- .... ....|F-3 ...A ....
....|..|--- .... ....|C-4 K... ....|F-3 ...D ....
....|..|--- .... ....|--- .... ....|F-4 ...A ....
..2D|..|C-1 NA.. ....|C-4 DF.F ....|C-5 .F4D ....
....|..|--- .... ....|--- .... ....|F-3 ...A ....
....|..|--- .... ....|C-4 ...B ....|C-4 ...D ....
....|..|--- .... ....|--- .... ....|C-4 ...A ....
....|..|--- .... ....|C-4 L... ....|C-3 ...D ....
....|..|--- .... ....|C-4 K... ....|C-3 ...A ....
....|..|--- .... ....|C-4 L... ....|C-5 ...D ....
....|..|--- .... ....|C-4 K... ....|C-2 ...A ....
....|..|--- .... ....|C-4 ...F ....|C-4 ...D ....
....|..|--- .... ....|--- .... ....|C-4 ...A ....
....|..|--- .... ....|--- .... ....|C-3 ...D ....
....|..|--- .... ....|--- .... ....|C-3 ...A ....
....|..|--- .... ....|E-4 E..B ....|C-5 ...D ....
....|..|--- .... ....|--- .... ....|C-2 ...A ....
....|..|--- .... ....|E-4 C... ....|C-4 ...D ....
....|..|--- .... ....|--- .... ....|C-4 ...A ....
....|..|--- .... ....|C-4 B... ....|C-3 ...D ....
....|..|--- .... ....|--- .... ....|C-3 ...A ....
....|..|--- .... ....|C-4 B... ....|C-5 ...D ....
....|..|--- .... ....|--- .... ....|C-2 ...A ....
....|..|--- .... ....|C-2 9..F ....|C-4 ...D ....
....|..|--- .... ....|--- .... ....|C-4 ...A ....
....|..|--- .... ....|R-- .... ....|C-3 ...D ....
....|..|--- .... ....|--- .... ....|C-3 ...A ....
..11|..|--- .... ....|C-4 A..F ....|C-5 ...D ....
....|..|--- .... ....|--- .... ....|C-2 ...A ....
....|..|--- .... ....|--- ...B ....|C-4 ...D ....
....|..|--- .... ....|--- .... ....|C-4 ...A ....
..11|..|--- .... ....|C-4 L... ....|C-5 ...D ....
....|..|--- .... ....|--- .... ....|C-3 ...A ....
....|..|--- .... ....|C-4 K... ....|C-4 ...D ....
....|..|--- .... ....|--- .... ....|C-4 ...A ....

[Pattern27]
....|..|--- .... ....|--- .... ....|--- .... ....
....|..|--- .... ....|--- .... ....|--- .... ....
....|..|--- .... ....|--- .... ....|--- .... ....
....|..|--- .... ....|--- .... ....|--- .... ....
....|..|--- .... ....|--- .... ....|--- .... ....
....|..|--- .... ....|--- .... ....|--- .... ....
....|..|--- .... ....|--- .... ....|--- .... ....
....|..|--- .... ....|--- .... ....|--- .... ....
....|..|--- .... ....|--- .... ....|--- .... ....
....|..|--- .... ....|--- .... ....|--- .... ....
....|..|--- .... ....|--- .... ....|--- .... ....
....|..|--- .... ....|--- .... ....|--- .... ....
....|..|--- .... ....|--- .... ....|--- .... ....
....|..|--- .... ....|--- .... ....|--- .... ....
....|..|--- .... ....|--- .... ....|--- .... ....
....|..|--- .... ....|--- .... ....|--- .... ....
....|..|--- .... ....|--- .... ....|--- .... ....
....|..|--- .... ....|--- .... ....|--- .... ....
....|..|--- .... ....|--- .... ....|--- .... ....
....|..|--- .... ....|--- .... ....|--- .... ....
....|..|--- .... ....|--- .... ....|--- .... ....
....|..|--- .... ....|--- .... ....|--- .... ....
....|..|--- .... ....|--- .... ....|--- .... ....
....|..|--- .... ....|--- .... ....|--- .... ....
....|..|--- .... ....|--- .... ....|--- .... ....
....|..|--- .... ....|--- .... ....|--- .... ....
....|..|--- .... ....|--- .... ....|--- .... ....
....|..|--- .... ....|--- .... ....|--- .... ....
....|..|--- .... ....|--- .... ....|--- .... ....
....|..|--- .... ....|--- .... ....|--- .... ....
....|..|--- .... ....|--- .... ....|--- .... ....
....|..|--- .... ....|--- .... ....|--- .... ....
....|..|--- .... ....|--- .... ....|--- .... ....
....|..|--- .... ....|--- .... ....|--- .... ....
....|..|--- .... ....|--- .... ....|--- .... ....
....|..|--- .... ....|--- .... ....|--- .... ....
....|..|--- .... ....|--- .... ....|--- .... ....
....|..|--- .... ....|--- .... ....|--- .... ....
....|..|--- .... ....|--- .... ....|--- .... ....
....|..|--- .... ....|--- .... ....|--- .... ....
....|..|--- .... ....|--- .... ....|--- .... ....
....|..|--- .... ....|--- .... ....|--- .... ....
....|..|--- .... ....|--- .... ....|--- .... ....
....|..|--- .... ....|--- .... ....|--- .... ....
....|..|--- .... ....|--- .... ....|--- .... ....
....|..|--- .... ....|--- .... ....|--- .... ....
....|..|--- .... ....|--- .... ....|--- .... ....
....|..|--- .... ....|--- .... ....|--- .... ....
....|..|--- .... ....|--- .... ....|--- .... ....
....|..|--- .... ....|--- .... ....|--- .... ....
....|..|--- .... ....|--- .... ....|--- .... ....
....|..|--- .... ....|--- .... ....|--- .... ....
....|..|--- .... ....|--- .... ....|--- .... ....
....|..|--- .... ....|--- .... ....|--- .... ....
....|..|--- .... ....|--- .... ....|--- .... ....
....|..|--- .... ....|--- .... ....|--- .... ....
....|..|--- .... ....|--- .... ....|--- .... ....
....|..|--- .... ....|--- .... ....|--- .... ....
....|..|--- .... ....|--- .... ....|--- .... ....
....|..|--- .... ....|--- .... ....|--- .... ....
....|..|--- .... ....|--- .... ....|--- .... ....
....|..|--- .... ....|--- .... ....|--- .... ....
....|..|--- .... ....|--- .... ....|--- .... ....
....|..|--- .... ....|--- .... ....|--- .... ....
....|..|--- .... ....|--- .... ....|--- .... ....
....|..|--- .... ....|--- .... ....|--- .... ....
....|..|--- .... ....|--- .... ....|--- .... ....
....|..|--- .... ....|--- .... ....|--- .... ....
....|..|--- .... ....|--- .... ....|--- .... ....
....|..|--- .... ....|--- .... ....|--- .... ....
....|..|--- .... ....|--- .... ....|--- .... ....
....|..|--- .... ....|--- .... ....|--- .... ....
....|..|--- .... ....|--- .... ....|--- .... ....
....|..|--- .... ....|--- .... ....|--- .... ....
....|..|--- .... ....|--- .... ....|--- .... ....
....|..|--- .... ....|--- .... ....|--- .... ....
....|..|--- .... ....|--- .... ....|--- .... ....
....|..|--- .... ....|--- .... ....|--- .... ....
....|..|--- .... ....|--- .... ....|--- .... ....
....|..|--- .... ....|--- .... ....|--- .... ....
....|..|--- .... ....|--- .... ....|--- .... ....
....|..|--- .... ....|--- .... ....|--- .... ....
....|..|--- .... ....|--- .... ....|--- .... ....
....|..|--- .... ....|--- .... ....|--- .... ....
....|..|--- .... ....|--- .... ....|--- .... ....
....|..|--- .... ....|--- .... ....|--- .... ....
....|..|--- .... ....|--- .... ....|--- .... ....
....|..|--- .... ....|--- .... ....|--- .... ....
....|..|--- .... ....|--- .... ....|--- .... ....
....|..|--- .... ....|--- .... ....|--- .... ....
....|..|--- .... ....|--- .... ....|--- .... ....
....|..|--- .... ....|--- .... ....|--- .... ....
....|..|--- .... ....|--- .... ....|--- .... ....
....|..|--- .... ....|--- .... ....|--- .... ....
....|..|--- .... ....|--- .... ....|--- .... ....
....|..|--- .... ....|--- .... ....|--- .... ....
....|..|--- .... ....|--- .... ....|--- .... ....
....|..|--- .... ....|--- .... ....|--- .... ....
....|..|--- .... ....|--- .... ....|--- .... ....
....|..|--- .... ....|--- .... ....|--- .... ....
....|..|--- .... ....|--- .... ....|--- .... ....
....|..|--- .... ....|--- .... ....|--- .... ....
....|..|--- .... ....|--- .... ....|--- .... ....
....|..|--- .... ....|--- .... ....|--- .... ....
....|..|--- .... ....|--- .... ....|--- .... ....
....|..|--- .... ....|--- .... ....|--- .... ....
....|..|--- .... ....|--- .... ....|--- .... ....
....|..|--- .... ....|--- .... ....|--- .... ....
....|..|--- .... ....|--- .... ....|--- .... ....
....|..|--- .... ....|--- .... ....|--- .... ....
....|..|--- .... ....|--- .... ....|--- .... ....
....|..|--- .... ....|--- .... ....|--- .... ....
....|..|--- .... ....|--- .... ....|--- .... ....
....|..|--- .... ....|--- .... ....|--- .... ....
....|..|--- .... ....|--- .... ....|--- .... ....
....|..|--- .... ....|--- .... ....|--- .... ....
....|..|--- .... ....|--- .... ....|--- .... ....
....|..|--- .... ....|--- .... ....|--- .... ....
....|..|--- .... ....|--- .... ....|--- .... ....
....|..|--- .... ....|--- .... ....|--- .... ....
....|..|--- .... ....|--- .... ....|--- .... ....
....|..|--- .... ....|--- .... ....|--- .... ....
....|..|--- .... ....|--- .... ....|--- .... ....
....|..|--- .... ....|--- .... ....|--- .... ....
....|..|--- .... ....|--- .... ....|--- .... ....
....|..|--- .... ....|--- .... ....|--- .... ....
....|..|--- .... ....|--- .... ....|--- .... ....
....|..|--- .... ....|--- .... ....|--- .... ....

[Pattern30]
....|..|D-4 GF3B ....|D-5 7F9C ....|F-4 1FA8 ....
....|..|--- .... ....|--- .... ....|--- .... ....
....|..|--- .... ....|D-4 ...B ....|D-4 ...6 ....
....|..|--- .... ....|--- .... ....|E-4 ...8 ....
....|..|--- .... ....|D-4 ...B ....|--- .... ....
....|..|--- .... ....|--- .... ....|F-4 ...6 ....
....|..|--- .... ....|D-5 ...C ....|D-4 ...8 ....
....|..|--- .... ....|--- .... ....|--- .... ....
....|..|--- .... ....|D-4 ...B ....|E-4 ...6 ....
....|..|--- .... ....|--- .... ....|F-4 ...8 ....
....|..|--- .... ....|D-4 ...B ....|--- .... ....
....|..|--- .... ....|--- .... ....|D-4 ...6 ....
....|..|--- .... ....|D-5 ...C ....|E-4 ...8 ....
....|..|--- .... ....|--- .... ....|--- .... ....
..28|..|--- .... ....|D-2 .A.B ....|D-2 .A.B ....
....|..|--- .... ....|R-- .... ....|R-- .... ....
..28|..|--- .... ....|D-2 .A.B ....|D-2 .A.B ....
....|..|--- .... ....|R-- .... ....|R-- .... ....
....|..|--- .... ....|--- ...C ....|--- ...C ....
....|..|--- .... ....|--- .... ....|--- .... ....
..28|..|--- .... ....|D-3 .C.B ....|D-2 .C.B ....
....|..|--- .... ....|R-- .... ....|R-- .... ....
..14|..|--- .... ....|D-3 .A.B ....|D-2 .A.B ....
....|..|--- .... ....|R-- .... ....|R-- .... ....
....|..|--- .... ....|--- ...C ....|--- ...C ....
....|..|--- .... ....|--- .... ....|--- .... ....
....|..|--- .... ....|--- ...B ....|--- ...B ....
....|..|--- .... ....|--- .... ....|--- .... ....
....|..|--- .... ....|D-4 9F.C ....|D-4 .F9C ....
....|..|--- .... ....|--- .... ....|--- .... ....
....|..|--- .... ....|--- ...B ....|--- ...B ....
....|..|--- .... ....|--- .... ....|--- .... ....
....|..|--- .... ....|D-2 MF.C ....|F-4 1FA8 ....
....|..|--- .... ....|--- .... ....|--- .... ....
....|..|--- .... ....|--- ...B ....|D-4 ...6 ....
....|..|--- .... ....|--- .... ....|E-4 ...8 ....
....|..|--- .... ....|--- ...B ....|--- .... ....
....|..|--- .... ....|--- .... ....|F-4 ...6 ....
....|..|--- .... ....|--- ...C ....|D-4 ...8 ....
....|..|--- .... ....|--- .... ....|--- .... ....
....|..|--- .... ....|--- ...B ....|E-4 ...6 ....
....|..|--- .... ....|--- .... ....|F-4 ...8 ....
....|..|--- .... ....|--- ...C ....|--- .... ....
....|..|--- .... ....|--- .... ....|D-4 ...6 ....
....|..|--- .... ....|--- ...C ....|E-4 ...8 ....
....|..|--- .... ....|--- .... ....|--- .... ....
....|..|--- .... ....|--- ...B ....|F-4 ...6 ....
....|..|--- .... ....|--- .... ....|D-4 ...8 ....
....|..|--- .... ....|--- ...B ....|--- .... ....
....|..|--- .... ....|--- .... ....|E-4 ...6 ....
....|..|--- .... ....|--- ...C ....|F-4 ...8 ....
....|..|--- .... ....|--- .... ....|--- .... ....
....|..|--- .... ....|--- ...B ....|D-4 ...6 ....
....|..|--- .... ....|--- .... ....|E-4 ...8 ....
....|..|--- .... ....|--- ...B ....|--- .... ....
....|..|--- .... ....|--- .... ....|F-4 ...6 ....
....|..|--- .... ....|--- ...C ....|D-4 ...8 ....
....|..|--- .... ....|--- .... ....|--- .... ....
....|..|--- .... ....|--- ...B ....|E-4 ...6 ....
....|..|--- .... ....|--- .... ....|F-4 ...8 ....
....|..|--- .... ....|--- ...C ....|--- .... ....
....|..|--- .... ....|--- .... ....|D-4 ...6 ....
....|..|--- .... ....|--- ...B ....|E-4 ...8 ....
....|..|--- .... ....|--- .... ....|--- .... ....

[Pattern31]
....|..|D-4 GF8B ....|A#4 7F9C ....|F-4 1FA8 ....
....|..|--- .... ....|--- .... ....|--- .... ....
....|..|--- .... ....|A#3 ...B ....|C-4 ...6 ....
....|..|--- .... ....|--- .... ....|E-4 ...8 ....
....|..|--- .... ....|A#3 ...B ....|--- .... ....
....|..|--- .... ....|--- .... ....|F-4 ...6 ....
....|..|--- .... ....|A#4 ...C ....|C-4 ...8 ....
....|..|--- .... ....|--- .... ....|--- .... ....
....|..|--- .... ....|A#3 ...B ....|E-4 ...6 ....
....|..|--- .... ....|--- .... ....|F-4 ...8 ....
....|..|--- .... ....|A#3 ...B ....|--- .... ....
....|..|--- .... ....|--- .... ....|C-4 ...6 ....
....|..|--- .... ....|A#4 ...C ....|E-4 ...8 ....
....|..|--- .... ....|--- .... ....|--- .... ....
..19|..|--- .... ....|A#2 .A.B ....|A#2 .A.B ....
....|..|--- .... ....|R-- .... ....|R-- .... ....
..19|..|--- .... ....|A#2 .A.B ....|A#2 .A.B ....
....|..|--- .... ....|R-- .... ....|R-- .... ....
....|..|--- .... ....|--- ...C ....|--- ...C ....
....|..|--- .... ....|--- .... ....|--- .... ....
..33|..|--- .... ....|A#2 .C.B ....|A#2 .C.B ....
....|..|--- .... ....|R-- .... ....|R-- .... ....
..19|..|--- .... ....|A#2 .A.B ....|A#2 .A.B ....
....|..|--- .... ....|R-- .... ....|R-- .... ....
....|..|--- .... ....|--- ...C ....|--- ...C ....
....|..|--- .... ....|--- .... ....|--- .... ....
....|..|--- .... ....|--- ...B ....|--- ...B ....
....|..|--- .... ....|--- .... ....|--- .... ....
....|..|--- .... ....|A#1 .F.C ....|A#4 .F9C ....
....|..|--- .... ....|--- .... ....|--- .... ....
....|..|--- .... ....|--- ...B ....|--- ...B ....
....|..|--- .... ....|--- .... ....|--- .... ....
....|..|--- .... ....|A#1 MF.C ....|F-4 1FA8 ....
....|..|--- .... ....|--- .... ....|--- .... ....
....|..|--- .... ....|--- ...B ....|C-4 ...6 ....
....|..|--- .... ....|--- .... ....|E-4 ...8 ....
....|..|--- .... ....|--- ...B ....|--- .... ....
....|..|--- .... ....|--- .... ....|F-4 ...6 ....
....|..|--- .... ....|--- ...C ....|C-4 ...8 ....
....|..|--- .... ....|--- .... ....|--- .... ....
....|..|--- .... ....|--- ...B ....|E-4 ...6 ....
....|..|--- .... ....|--- .... ....|F-4 ...8 ....
....|..|--- .... ....|--- ...C ....|--- .... ....
....|..|--- .... ....|--- .... ....|C-4 ...6 ....
....|..|--- .... ....|--- ...C ....|E-4 ...8 ....
....|..|--- .... ....|--- .... ....|--- .... ....
....|..|--- .... ....|--- ...B ....|F-4 ...6 ....
....|..|--- .... ....|--- .... ....|C-4 ...8 ....
....|..|--- .... ....|--- ...B ....|--- .... ....
....|..|--- .... ....|--- .... ....|E-4 ...6 ....
....|..|--- .... ....|--- ...C ....|F-4 ...8 ....
....|..|--- .... ....|--- .... ....|--- .... ....
....|..|--- .... ....|--- ...B ....|C-4 ...6 ....
....|..|--- .... ....|--- .... ....|E-4 ...8 ....
....|..|--- .... ....|--- ...B ....|--- .... ....
....|..|--- .... ....|--- .... ....|F-4 ...6 ....
....|..|--- .... ....|--- ...C ....|C-4 ...8 ....
....|..|--- .... ....|--- .... ....|--- .... ....
....|..|--- .... ....|--- ...B ....|E-4 ...6 ....
....|..|--- .... ....|--- .... ....|F-4 ...8 ....
....|..|--- .... ....|--- ...C ....|--- .... ....
....|..|--- .... ....|--- .... ....|C-4 ...6 ....
....|..|--- .... ....|--- ...B ....|E-4 ...8 ....
....|..|--- .... ....|--- .... ....|--- .... ....

[Pattern32]
....|..|A#3 GF4B ....|G-3 2F.C ....|F-4 1FA8 ....
....|..|--- .... ....|--- .... ....|--- .... ....
....|..|--- .... ....|G-2 ...B ....|A#3 ...6 ....
....|..|--- .... ....|--- .... ....|E-4 ...8 ....
....|..|--- .... ....|G-1 ...B ....|--- .... ....
....|..|--- .... ....|--- .... ....|F-4 ...6 ....
....|..|--- .... ....|G-3 ...C ....|A#3 ...8 ....
....|..|--- .... ....|--- .... ....|--- .... ....
....|..|--- .... ....|G-2 ...B ....|E-4 ...6 ....
....|..|--- .... ....|--- .... ....|F-4 ...8 ....
....|..|--- .... ....|G-1 ...B ....|--- .... ....
....|..|--- .... ....|--- .... ....|A#3 ...6 ....
....|..|--- .... ....|G-3 ...C ....|E-4 ...8 ....
....|..|--- .... ....|--- .... ....|--- .... ....
..1E|..|--- .... ....|G-2 .A.B ....|G-2 .A.B ....
....|..|--- .... ....|R-- .... ....|R-- .... ....
..1E|..|--- .... ....|G-2 .A.B ....|G-2 .A.B ....
....|..|--- .... ....|R-- .... ....|R-- .... ....
....|..|--- .... ....|--- ...C ....|--- ...C ....
....|..|--- .... ....|--- .... ....|--- .... ....
..78|..|--- .... ....|G-1 .C.B ....|G-1 .C.B ....
....|..|--- .... ....|R-- .... ....|R-- .... ....
..1E|..|--- .... ....|G-2 .A.B ....|G-2 .A.B ....
....|..|--- .... ....|R-- .... ....|R-- .... ....
....|..|--- .... ....|--- ...C ....|--- ...C ....
....|..|--- .... ....|--- .... ....|--- .... ....
....|..|--- .... ....|--- ...B ....|--- ...B ....
....|..|--- .... ....|--- .... ....|--- .... ....
....|..|--- .... ....|G-2 .F.C ....|G-4 .F9C ....
....|..|--- .... ....|--- .... ....|--- .... ....
....|..|--- .... ....|--- ...B ....|--- ...B ....
....|..|--- .... ....|--- .... ....|--- .... ....
....|..|--- .... ....|G-2 MF.C ....|F-4 1FA8 ....
....|..|--- .... ....|--- .... ....|--- .... ....
....|..|--- .... ....|--- ...B ....|A#3 ...6 ....
....|..|--- .... ....|--- .... ....|E-4 ...8 ....
....|..|--- .... ....|--- ...B ....|--- .... ....
....|..|--- .... ....|--- .... ....|F-4 ...6 ....
....|..|--- .... ....|--- ...C ....|A#3 ...8 ....
....|..|--- .... ....|--- .... ....|--- .... ....
....|..|--- .... ....|--- ...B ....|E-4 ...6 ....
....|..|--- .... ....|--- .... ....|F-4 ...8 ....
....|..|--- .... ....|--- ...C ....|--- .... ....
....|..|--- .... ....|--- .... ....|A#3 ...6 ....
....|..|--- .... ....|--- ...C ....|E-4 ...8 ....
....|..|--- .... ....|--- .... ....|--- .... ....
....|..|--- .... ....|--- ...B ....|F-4 ...6 ....
....|..|--- .... ....|--- .... ....|A#3 ...8 ....
....|..|--- .... ....|--- ...B ....|--- .... ....
....|..|--- .... ....|--- .... ....|E-4 ...6 ....
....|..|--- .... ....|--- ...C ....|F-4 ...8 ....
....|..|--- .... ....|--- .... ....|--- .... ....
....|..|--- .... ....|--- ...B ....|A#3 ...6 ....
....|..|--- .... ....|--- .... ....|E-4 ...8 ....
....|..|--- .... ....|--- ...B ....|--- .... ....
....|..|--- .... ....|--- .... ....|F-4 ...6 ....
....|..|--- .... ....|--- ...C ....|A#3 ...8 ....
....|..|--- .... ....|--- .... ....|--- .... ....
....|..|--- .... ....|--- ...B ....|E-4 ...6 ....
....|..|--- .... ....|--- .... ....|F-4 ...8 ....
....|..|--- .... ....|--- ...C ....|--- .... ....
....|..|--- .... ....|--- .... ....|A#3 ...6 ....
....|..|--- .... ....|--- ...B ....|E-4 ...8 ....
....|..|--- .... ....|--- .... ....|--- .... ....

[Pattern33]
....|..|A-3 GF5B ....|F-3 7F.C ....|F-4 1FA8 ....
....|..|--- .... ....|--- .... ....|--- .... ....
....|..|--- .... ....|F-2 ...B ....|A-3 ...6 ....
....|..|--- .... ....|--- .... ....|E-4 ...8 ....
....|..|--- .... ....|F-1 ...B ....|--- .... ....
....|..|--- .... ....|--- .... ....|F-4 ...6 ....
....|..|--- .... ....|F-3 ...C ....|A-3 ...8 ....
....|..|--- .... ....|--- .... ....|--- .... ....
....|..|--- .... ....|F-2 ...B ....|E-4 ...6 ....
....|..|--- .... ....|--- .... ....|F-4 ...8 ....
....|..|--- .... ....|F-1 ...B ....|--- .... ....
....|..|--- .... ....|--- .... ....|A-3 ...6 ....
....|..|--- .... ....|F-3 ...C ....|E-4 ...8 ....
....|..|--- .... ....|--- .... ....|--- .... ....
..11|..|--- .... ....|F-2 7A.B ....|F-3 .A.B ....
....|..|--- .... ....|R-- .... ....|R-- .... ....
..11|..|--- .... ....|F-3 .A.B ....|F-3 .A.B ....
....|..|--- .... ....|R-- .... ....|R-- .... ....
....|..|--- .... ....|--- ...C ....|--- ...C ....
....|..|--- .... ....|--- .... ....|--- .... ....
..87|..|--- .... ....|F-2 .C.B ....|F-1 .C.B ....
....|..|--- .... ....|R-- .... ....|R-- .... ....
..22|..|--- .... ....|F-2 .A.B ....|F-2 .A.B ....
....|..|--- .... ....|R-- .... ....|R-- .... ....
....|..|--- .... ....|--- ...C ....|--- ...C ....
....|..|--- .... ....|--- .... ....|--- .... ....
....|..|--- .... ....|--- ...B ....|--- ...B ....
....|..|--- .... ....|--- .... ....|--- .... ....
....|..|--- .... ....|F-2 ...C ....|F-4 .F9C ....
....|..|--- .... ....|--- .... ....|--- .... ....
....|..|--- .... ....|--- ...B ....|--- ...B ....
....|..|--- .... ....|--- .... ....|--- .... ....
....|..|--- .... ....|F-2 MF.C ....|F-4 1FA8 ....
....|..|--- .... ....|--- .... ....|--- .... ....
....|..|--- .... ....|--- ...B ....|A-3 ...6 ....
....|..|--- .... ....|--- .... ....|E-4 ...8 ....
....|..|--- .... ....|--- ...B ....|--- .... ....
....|..|--- .... ....|--- .... ....|F-4 ...6 ....
....|..|--- .... ....|--- ...C ....|A-3 ...8 ....
....|..|--- .... ....|--- .... ....|--- .... ....
....|..|--- .... ....|--- ...B ....|E-4 ...6 ....
....|..|--- .... ....|--- .... ....|F-4 ...8 ....
....|..|--- .... ....|--- ...C ....|--- .... ....
....|..|--- .... ....|--- .... ....|A-3 ...6 ....
....|..|--- .... ....|--- ...C ....|E-4 ...8 ....
....|..|--- .... ....|--- .... ....|--- .... ....
....|..|--- .... ....|--- ...B ....|F-4 ...6 ....
....|..|--- .... ....|--- .... ....|A-3 ...8 ....
....|..|--- .... ....|--- ...B ....|--- .... ....
....|..|--- .... ....|--- .... ....|E-4 ...6 ....
....|..|--- .... ....|--- ...C ....|F-4 ...8 ....
....|..|--- .... ....|--- .... ....|--- .... ....
....|..|--- .... ....|--- ...B ....|A-3 ...6 ....
....|..|--- .... ....|--- .... ....|E-4 ...8 ....
....|..|--- .... ....|--- ...B ....|--- .... ....
....|..|--- .... ....|--- .... ....|F-4 ...6 ....
....|..|--- .... ....|--- ...C ....|A-3 ...8 ....
....|..|--- .... ....|--- .... ....|--- .... ....
....|..|--- .... ....|--- ...B ....|E-4 ...6 ....
....|..|--- .... ....|--- .... ....|F-4 ...8 ....
....|..|--- .... ....|--- ...C ....|--- .... ....
....|..|--- .... ....|--- .... ....|A-3 ...6 ....
....|..|--- .... ....|--- ...B ....|E-4 ...8 ....
....|..|--- .... ....|--- .... ....|--- .... ....

[Pattern34]
....|..|D-4 2F3C ....|D-2 7F.C ....|C-4 AF.F ....
....|..|--- .... ....|--- .... ....|--- .... ....
....|..|--- ...B ....|--- ...B ....|C-4 K..F ....
....|..|--- .... ....|--- .... ....|C-4 L... ....
....|..|--- ...B ....|--- ...B ....|C-4 K..B ....
....|..|--- .... ....|--- .... ....|C-4 L... ....
....|..|--- ...C ....|--- ...C ....|C-4 D..B ....
....|..|--- .... ....|--- .... ....|--- .... ....
....|..|--- ...B ....|--- ...B ....|C-4 L..B ....
....|..|--- .... ....|--- .... ....|--- .... ....
....|..|--- ...B ....|--- ...B ....|C-4 A..F ....
....|..|--- .... ....|--- .... ....|--- .... ....
....|..|--- ...C ....|--- ...C ....|B-8 8..F ....
....|..|--- .... ....|--- .... ....|--- .... ....
..28|..|D-2 .A.B ....|D-2 7A.B ....|B-8 8..B ....
....|..|R-- .... ....|R-- .... ....|--- .... ....
..28|..|D-2 .A.B ....|D-2 .A.B ....|B-8 B..F ....
....|..|R-- .... ....|R-- .... ....|--- .... ....
....|..|--- ...C ....|--- ...C ....|B-8 8..B ....
....|..|--- .... ....|--- .... ....|--- .... ....
..28|..|D-2 .A.B ....|D-2 .A.B ....|B-8 J..F ....
....|..|R-- .... ....|R-- .... ....|--- .... ....
..14|..|D-2 .A.B ....|D-2 .A.B ....|B-8 B..B ....
....|..|R-- .... ....|R-- .... ....|--- .... ....
....|..|D-4 2F3C ....|--- ...C ....|B-8 J..F ....
....|..|--- .... ....|--- .... ....|--- .... ....
....|..|--- ...B ....|--- ...B ....|B-8 J..B ....
....|..|--- .... ....|--- .... ....|--- .... ....
....|..|D-2 .F.C ....|D-4 9F.C ....|B-8 U..F ....
....|..|--- .... ....|--- .... ....|--- .... ....
....|..|--- ...B ....|--- ...B ....|B-8 J..B ....
....|..|--- .... ....|--- .... ....|--- .... ....
....|..|D-4 2F8C ....|D-4 .F9C 3140|C-4 DF.F ....
....|..|--- .... ....|--- .... ....|--- .... ....
....|..|--- ...B ....|--- ...B ....|C-4 K..F ....
....|..|--- .... ....|--- .... ....|C-4 L... ....
....|..|--- ...B ....|--- ...B ....|C-4 K..B ....
....|..|--- .... ....|--- .... ....|C-4 L... ....
....|..|--- ...C ....|--- ...C ....|C-4 D..B ....
....|..|--- .... ....|--- .... ....|--- .... ....
....|..|--- ...B ....|--- ...B ....|C-4 L..B ....
....|..|--- .... ....|--- .... ....|--- .... ....
....|..|--- ...B ....|--- ...C ....|B-8 J..B ....
....|..|--- .... ....|--- .... ....|--- .... ....
....|..|--- ...C ....|--- ...C ....|A-3 A..F ....
....|..|--- .... ....|--- .... ....|--- .... ....
....|..|--- ...B ....|--- ...B ....|B-8 8..B ....
....|..|--- .... ....|--- .... ....|--- .... ....
....|..|B-8 UFAA ....|--- ...B ....|B-8 B..F ....
....|..|--- .... ....|--- .... ....|--- .... ....
....|..|R-- .... ....|--- ...C ....|A-3 A..B ....
....|..|B-8 ...8 ....|--- .... ....|--- .... ....
....|..|--- .... ....|--- ...B ....|B-8 J..F ....
....|..|R-- .... ....|--- .... ....|--- .... ....
....|..|B-8 ...6 ....|--- ...B ....|B-8 B..B ....
....|..|--- .... ....|--- .... ....|--- .... ....
....|..|E-4 2F5B ....|--- ...C ....|B-8 8..F ....
....|..|--- .... ....|--- .... ....|--- .... ....
....|..|--- .... ....|--- ...B ....|B-8 J..B ....
....|..|--- .... ....|--- .... ....|--- .... ....
....|..|--- .... ....|--- ...C ....|B-8 B..F ....
....|..|--- .... ....|--- .... ....|--- .... ....
....|..|--- .... ....|--- ...B ....|B-8 8..B ....
....|..|--- .... ....|--- .... ....|--- .... ....

[Pattern35]
....|..|A#3 2F4C ....|A#2 7F.C ....|C-4 AF.F ....
....|..|--- .... ....|--- .... ....|--- .... ....
....|..|--- ...B ....|--- ...B ....|C-4 K..F ....
....|..|--- .... ....|--- .... ....|C-4 L... ....
....|..|--- ...B ....|--- ...B ....|C-4 K..B ....
....|..|--- .... ....|--- .... ....|C-4 L... ....
....|..|--- ...C ....|--- ...C ....|C-4 D..B ....
....|..|--- .... ....|--- .... ....|--- .... ....
....|..|--- ...B ....|--- ...B ....|C-4 L..B ....
....|..|--- .... ....|--- .... ....|--- .... ....
....|..|--- ...B ....|--- ...B ....|C-4 A..F ....
....|..|--- .... ....|--- .... ....|--- .... ....
....|..|--- ...C ....|--- ...C ....|B-8 8..F ....
....|..|--- .... ....|--- .... ....|--- .... ....
..19|..|A#2 .A.B ....|A#2 7A.B ....|B-8 8..B ....
....|..|R-- .... ....|R-- .... ....|--- .... ....
..19|..|A#2 .A.B ....|A#2 .A.B ....|B-8 B..F ....
....|..|R-- .... ....|R-- .... ....|--- .... ....
....|..|--- ...C ....|--- ...C ....|B-8 8..B ....
....|..|--- .... ....|--- .... ....|--- .... ....
..19|..|A#2 .A.B ....|A#2 .A.B ....|B-8 J..F ....
....|..|R-- .... ....|R-- .... ....|--- .... ....
..19|..|A#2 .A.B ....|A#2 .A.B ....|B-8 B..B ....
....|..|R-- .... ....|R-- .... ....|--- .... ....
....|..|A#3 2F4C ....|--- ...C ....|B-8 J..F ....
....|..|--- .... ....|--- .... ....|--- .... ....
....|..|--- ...B ....|--- ...B ....|B-8 J..B ....
....|..|--- .... ....|--- .... ....|--- .... ....
....|..|A#2 .F.C ....|A#2 ...C ....|B-8 U..F ....
....|..|--- .... ....|--- .... ....|--- .... ....
....|..|--- ...B ....|--- ...B ....|B-8 J..B ....
....|..|--- .... ....|--- .... ....|--- .... ....
....|..|A-3 2F5C ....|A-3 .F9C 3140|C-4 DF.F ....
....|..|--- .... ....|--- .... ....|--- .... ....
....|..|--- ...B ....|--- ...B ....|C-4 K..F ....
....|..|--- .... ....|--- .... ....|C-4 L... ....
....|..|--- ...B ....|--- ...B ....|C-4 K..B ....
....|..|--- .... ....|--- .... ....|C-4 L... ....
....|..|--- ...C ....|--- ...C ....|C-4 D..B ....
....|..|--- .... ....|--- .... ....|--- .... ....
....|..|--- ...B ....|--- ...B ....|C-4 L..B ....
....|..|--- .... ....|--- .... ....|--- .... ....
....|..|--- ...B ....|--- ...C ....|B-8 J..B ....
....|..|--- .... ....|--- .... ....|--- .... ....
....|..|--- ...C ....|--- ...C ....|A-3 A..F ....
....|..|--- .... ....|--- .... ....|--- .... ....
....|..|--- ...B ....|--- ...B ....|B-8 8..B ....
....|..|--- .... ....|--- .... ....|--- .... ....
....|..|B-8 UFAA ....|--- ...B ....|B-8 B..F ....
....|..|--- .... ....|--- .... ....|--- .... ....
....|..|R-- .... ....|--- ...C ....|A-3 A..B ....
....|..|B-8 ...8 ....|--- .... ....|--- .... ....
....|..|--- .... ....|--- ...B ....|B-8 J..F ....
....|..|R-- .... ....|--- .... ....|--- .... ....
....|..|B-8 ...6 ....|--- ...B ....|B-8 B..B ....
....|..|--- .... ....|--- .... ....|--- .... ....
....|..|E-4 2F5B ....|--- ...C ....|B-8 8..F ....
....|..|--- .... ....|--- .... ....|--- .... ....
....|..|--- .... ....|--- ...B ....|B-8 J..B ....
....|..|--- .... ....|--- .... ....|--- .... ....
....|..|--- .... ....|--- ...C ....|B-8 B..F ....
....|..|--- .... ....|--- .... ....|--- .... ....
....|..|--- .... ....|--- ...B ....|B-8 8..B ....
....|..|--- .... ....|--- .... ....|--- .... ....

[Pattern36]
..14|..|D-4 2F3C ....|D-2 NA.C ....|C-4 AF.F ....
....|..|--- .... ....|--- .... ....|--- .... ....
....|..|--- ...B ....|--- ...B ....|C-4 K..F ....
....|..|--- .... ....|--- .... ....|C-4 L... ....
....|..|--- ...B ....|--- ...B ....|C-4 K..B ....
....|..|--- .... ....|--- .... ....|C-4 L... ....
..28|..|--- ...C ....|D-2 .C.C ....|C-4 D..B ....
....|..|--- .... ....|--- .... ....|--- .... ....
..33|..|--- ...B ....|A#1 .C.B ....|C-4 L..B ....
....|..|--- .... ....|--- .... ....|--- .... ....
..14|..|--- ...B ....|D-3 7C.B ....|C-4 A..F ....
....|..|--- .... ....|--- .... ....|--- .... ....
....|..|--- ...C ....|R-- ...C ....|B-8 8..F ....
....|..|--- .... ....|--- .... ....|--- .... ....
..28|..|D-2 .A.B ....|D-1 7A.B ....|B-8 8..B ....
....|..|R-- .... ....|R-- .... ....|--- .... ....
..14|..|D-2 .A.B ....|D-2 .A.B ....|B-8 B..F ....
....|..|R-- .... ....|R-- .... ....|--- .... ....
....|..|--- ...C ....|D-2 ...C ....|B-8 8..B ....
....|..|--- .... ....|--- .... ....|--- .... ....
..28|..|D-2 .A.B ....|D-2 .A.B ....|B-8 J..F ....
....|..|R-- .... ....|R-- .... ....|--- .... ....
..14|..|D-2 .A.B ....|D-2 .A.B ....|B-8 B..B ....
....|..|R-- .... ....|R-- .... ....|--- .... ....
....|..|D-4 2F3C ....|D-2 ...C ....|B-8 J..F ....
....|..|--- .... ....|--- .... ....|--- .... ....
....|..|--- ...B ....|G-1 ...B ....|B-8 J..B ....
....|..|--- .... ....|--- .... ....|--- .... ....
....|..|D-2 .F.C ....|D-2 ...C ....|B-8 U..F ....
....|..|--- .... ....|--- .... ....|--- .... ....
....|..|--- ...B ....|--- ...B ....|B-8 J..B ....
....|..|--- .... ....|--- .... ....|--- .... ....
..19|..|D-4 2F8C ....|A#1 NE.C 3140|C-4 DF.F ....
....|..|--- .... ....|--- .... ....|--- .... ....
....|..|--- ...B ....|A#2 ...B ....|C-4 K..F ....
....|..|--- .... ....|--- .... ....|C-4 L... ....
....|..|--- ...B ....|A#1 ...B ....|C-4 K..B ....
....|..|--- .... ....|--- .... ....|C-4 L... ....
..1E|..|--- ...C ....|G-1 .A.C ....|C-4 D..B ....
....|..|--- .... ....|--- .... ....|--- .... ....
....|..|--- ...B ....|G-2 ...B ....|C-4 L..B ....
....|..|--- .... ....|--- .... ....|--- .... ....
....|..|--- ...B ....|--- ...C ....|B-8 J..B ....
....|..|--- .... ....|--- .... ....|--- .... ....
....|..|--- ...C ....|--- ...C ....|A-3 A..F ....
....|..|--- .... ....|--- .... ....|--- .... ....
....|..|--- ...B ....|--- ...B ....|B-8 8..B ....
....|..|--- .... ....|--- .... ....|--- .... ....
..1B|..|B-8 UFAA ....|A-1 7A.B ....|B-8 B..F ....
....|..|--- .... ....|--- .... ....|--- .... ....
....|..|R-- .... ....|--- ...C ....|A-3 A..B ....
....|..|B-8 ...8 ....|--- .... ....|--- .... ....
....|..|--- .... ....|--- ...B ....|B-8 J..F ....
....|..|R-- .... ....|--- .... ....|--- .... ....
....|..|B-8 ...6 ....|--- ...B ....|B-8 B..B ....
....|..|--- .... ....|--- .... ....|--- .... ....
....|..|E-4 2F5B ....|--- ...C ....|B-8 8..F ....
....|..|--- .... ....|--- .... ....|--- .... ....
....|..|--- .... ....|--- ...B ....|B-8 J..B ....
....|..|--- .... ....|--- .... ....|--- .... ....
....|..|--- .... ....|--- ...C ....|B-8 B..F ....
....|..|--- .... ....|--- .... ....|--- .... ....
....|..|--- .... ....|--- ...B ....|B-8 8..B ....
....|..|--- .... ....|--- .... ....|--- .... ....

[Pattern37]
..1E|..|A#3 2F4C ....|G-1 NA.C ....|C-4 AF.F ....
....|..|--- .... ....|--- .... ....|--- .... ....
....|..|--- ...B ....|G-2 ...B ....|C-4 K..F ....
....|..|--- .... ....|--- .... ....|C-4 L... ....
..19|..|--- ...B ....|A#1 .A.B ....|C-4 K..B ....
....|..|--- .... ....|--- .... ....|C-4 L... ....
....|..|--- ...C ....|--- ...C ....|C-4 D..B ....
....|..|--- .... ....|--- .... ....|--- .... ....
..1E|..|--- ...B ....|G-1 .A.B ....|C-4 L..B ....
....|..|--- .... ....|--- .... ....|--- .... ....
....|..|--- ...B ....|--- ...B ....|C-4 A..F ....
....|..|--- .... ....|--- .... ....|--- .... ....
..24|..|--- ...C ....|E-1 .A.C ....|B-8 8..F ....
....|..|--- .... ....|--- .... ....|--- .... ....
..19|..|A#2 .A.B ....|A#2 7A.B ....|B-8 8..B ....
....|..|R-- .... ....|R-- .... ....|--- .... ....
..19|..|A#2 .A.B ....|A#2 .A.B ....|B-8 B..F ....
....|..|R-- .... ....|R-- .... ....|--- .... ....
....|..|--- ...C ....|A#1 ...C ....|B-8 8..B ....
....|..|--- .... ....|--- .... ....|--- .... ....
..19|..|A#2 .A.B ....|A#2 .A.B ....|B-8 J..F ....
....|..|R-- .... ....|R-- .... ....|--- .... ....
..19|..|A#2 .A.B ....|A#2 .A.B ....|B-8 B..B ....
....|..|R-- .... ....|R-- .... ....|--- .... ....
....|..|A#3 2F4C ....|A#1 ...C ....|B-8 J..F ....
....|..|--- .... ....|--- .... ....|--- .... ....
....|..|--- ...B ....|--- ...B ....|B-8 J..B ....
....|..|--- .... ....|--- .... ....|--- .... ....
....|..|A#2 .F.C ....|A#2 ...C ....|B-8 U..F ....
....|..|--- .... ....|--- .... ....|--- .... ....
....|..|--- ...B ....|--- ...B ....|B-8 J..B ....
....|..|--- .... ....|--- .... ....|--- .... ....
....|..|A-3 2F5C ....|A-3 9F.C 3140|C-4 DF.F ....
..1B|..|--- .... ....|A-1 NA.. ....|--- .... ....
....|..|--- ...B ....|--- ...B ....|C-4 K..F ....
....|..|--- .... ....|--- .... ....|C-4 L... ....
....|..|--- ...B ....|--- ...B ....|C-4 K..B ....
....|..|--- .... ....|--- .... ....|C-4 L... ....
....|..|--- ...C ....|--- ...C ....|C-4 D..B ....
....|..|--- .... ....|--- .... ....|--- .... ....
....|..|--- ...B ....|--- ...B ....|C-4 L..B ....
....|..|--- .... ....|--- .... ....|--- .... ....
....|..|--- ...B ....|--- ...C ....|B-8 J..B ....
....|..|--- .... ....|--- .... ....|--- .... ....
....|..|--- ...C ....|--- ...C ....|A-3 A..F ....
....|..|--- .... ....|--- .... ....|--- .... ....
....|..|--- ...B ....|--- ...B ....|B-8 8..B ....
....|..|--- .... ....|--- .... ....|--- .... ....
..1E|..|B-8 UFAA ....|F-4 9F.B ....|B-8 B..F ....
..22|..|--- .... ....|F-1 NA.. ....|--- .... ....
....|..|R-- .... ....|--- ...C ....|A-3 A..B ....
....|..|B-8 ...8 ....|--- .... ....|--- .... ....
....|..|--- .... ....|--- ...B ....|B-8 J..F ....
....|..|R-- .... ....|--- .... ....|--- .... ....
....|..|B-8 ...6 ....|--- ...B ....|B-8 B..B ....
....|..|--- .... ....|--- .... ....|--- .... ....
..12|..|E-4 2F5B ....|E-2 7A.C ....|B-8 8..F ....
....|..|--- .... ....|--- .... ....|--- .... ....
....|..|--- .... ....|--- ...B ....|B-8 J..B ....
....|..|--- .... ....|--- .... ....|--- .... ....
....|..|--- .... ....|--- ...C ....|B-8 B..F ....
....|..|--- .... ....|--- .... ....|--- .... ....
....|..|--- .... ....|--- ...B ....|B-8 8..B ....
....|..|--- .... ....|--- .... ....|--- .... ....

[Pattern38]
....|..|D-4 GF3B ....|C-4 AF.F ....|F-4 1FA8 ....
....|..|--- .... ....|--- .... ....|--- .... ....
....|..|--- .... ....|--- .... ....|D-4 ...6 ....
....|..|--- .... ....|--- .... ....|E-4 ...8 ....
..28|..|--- .... ....|D-2 7A.. ....|--- .... ....
....|..|--- .... ....|--- .... ....|F-4 ...6 ....
....|..|--- .... ....|--- .... ....|D-4 ...8 ....
....|..|--- .... ....|--- .... ....|--- .... ....
....|..|--- .... ....|C-4 AF.F ....|E-4 ...6 ....
....|..|--- .... ....|--- .... ....|F-4 ...8 ....
....|..|--- .... ....|--- .... ....|--- .... ....
....|..|--- .... ....|--- .... ....|D-4 ...6 ....
..28|..|--- .... ....|D-2 7A.. ....|E-4 ...8 ....
....|..|--- .... ....|--- .... ....|--- .... ....
..28|..|--- .... ....|--- .... ....|D-2 .A.B ....
....|..|--- .... ....|--- .... ....|R-- .... ....
..28|..|--- .... ....|C-4 AF.F ....|D-2 .A.B ....
....|..|--- .... ....|--- .... ....|R-- .... ....
....|..|--- .... ....|--- .... ....|--- ...C ....
....|..|--- .... ....|--- .... ....|--- .... ....
..28|..|--- .... ....|D-2 7A.. ....|D-2 .C.B ....
....|..|--- .... ....|--- .... ....|R-- .... ....
..14|..|--- .... ....|--- .... ....|D-2 .A.B ....
....|..|--- .... ....|--- .... ....|R-- .... ....
....|..|--- .... ....|C-4 AF.F ....|--- ...C ....
....|..|--- .... ....|--- .... ....|--- .... ....
....|..|--- .... ....|--- .... ....|--- ...B ....
....|..|--- .... ....|--- .... ....|--- .... ....
..28|..|--- .... 11.1|D-2 7A.. ....|D-4 .F9C ....
....|..|--- .... ....|--- .... ....|--- .... ....
....|..|--- .... ....|--- .... ....|--- ...B ....
....|..|--- .... ....|--- .... ....|--- .... ....
....|..|D-4 .... ....|C-4 AF.F ....|F-4 1FA8 ....
....|..|--- .... ....|--- .... ....|--- .... ....
....|..|--- .... ....|--- .... ....|D-4 ...6 ....
....|..|--- .... ....|--- .... ....|E-4 ...8 ....
..28|..|--- .... ....|D-2 7A.. ....|--- .... ....
....|..|--- .... ....|--- .... ....|F-4 ...6 ....
....|..|--- .... ....|--- .... ....|D-4 ...8 ....
....|..|--- .... ....|--- .... ....|--- .... ....
....|..|--- .... ....|C-4 AF.F ....|E-4 ...6 ....
....|..|--- .... ....|--- .... ....|F-4 ...8 ....
....|..|--- .... ....|--- .... ....|--- .... ....
....|..|--- .... ....|--- .... ....|D-4 ...6 ....
..28|..|--- .... ....|D-2 7A.. ....|E-4 ...8 ....
....|..|--- .... ....|--- .... ....|--- .... ....
....|..|--- .... ....|--- .... ....|F-4 ...6 ....
....|..|--- .... ....|--- .... ....|D-4 ...8 ....
....|..|--- .... ....|C-4 AF.F ....|--- .... ....
....|..|--- .... ....|--- .... ....|E-4 ...6 ....
....|..|--- .... ....|--- .... ....|F-4 ...8 ....
....|..|--- .... ....|--- .... ....|--- .... ....
..28|..|--- .... ....|D-2 7A.. ....|D-4 ...6 ....
....|..|--- .... ....|--- .... ....|E-4 ...8 ....
....|..|--- .... ....|--- .... ....|--- .... ....
....|..|--- .... ....|--- .... ....|F-4 ...6 ....
....|..|--- .... ....|C-4 AF.F ....|D-4 ...8 ....
....|..|--- .... ....|--- .... ....|--- .... ....
....|..|--- .... ....|--- .... ....|E-4 ...6 ....
....|..|--- .... ....|--- .... ....|F-4 ...8 ....
..28|..|--- .... 21.1|D-2 7A.. ....|--- .... ....
....|..|--- .... ....|--- .... ....|D-4 ...6 ....
....|..|--- .... ....|--- .... ....|E-4 ...8 ....
....|..|--- .... ....|--- .... ....|--- .... ....

[Pattern39]
....|..|D-4 GF8B ....|C-4 AF.F ....|F-4 1FA8 ....
....|..|--- .... ....|--- .... ....|--- .... ....
....|..|--- .... ....|--- .... ....|A#3 ...6 ....
....|..|--- .... ....|--- .... ....|E-4 ...8 ....
..33|..|--- .... ....|A#1 7A.. ....|--- .... ....
....|..|--- .... ....|--- .... ....|F-4 ...6 ....
....|..|--- .... ....|E-4 EF.. ....|A#3 ...8 ....
....|..|--- .... ....|--- .... ....|--- .... ....
....|..|--- .... ....|C-4 AF.F ....|E-4 ...6 ....
....|..|--- .... ....|--- .... ....|F-4 ...8 ....
....|..|--- .... ....|--- .... ....|--- .... ....
....|..|--- .... ....|--- .... ....|A#3 ...6 ....
..33|..|--- .... ....|A#1 7A.. ....|E-4 ...8 ....
....|..|--- .... ....|--- .... ....|--- .... ....
..19|..|--- .... ....|--- .... ....|A#2 .A.B ....
....|..|--- .... ....|--- .... ....|R-- .... ....
..19|..|--- .... ....|C-4 AF.F ....|A#2 .A.B ....
....|..|--- .... ....|--- .... ....|R-- .... ....
....|..|--- .... ....|--- .... ....|--- ...C ....
....|..|--- .... ....|--- .... ....|--- .... ....
..65|..|--- .... ....|A#1 7A.. ....|A#1 .C.B ....
....|..|--- .... ....|--- .... ....|R-- .... ....
..33|..|--- .... ....|--- .... ....|A#1 .A.B ....
....|..|--- .... ....|--- .... ....|R-- .... ....
....|..|--- .... ....|C-4 AF.F ....|--- ...C ....
....|..|--- .... ....|--- .... ....|--- .... ....
....|..|--- .... ....|--- .... ....|--- ...B ....
....|..|--- .... ....|--- .... ....|--- .... ....
..33|..|--- .... ....|A#1 7A.. ....|A#3 .F9C ....
....|..|--- .... ....|--- .... ....|--- .... ....
....|..|--- .... 11.1|--- .... ....|--- ...B ....
....|..|--- .... ....|--- .... ....|--- .... ....
....|..|D-4 .... ....|C-4 AF.F ....|F-4 1FA8 ....
....|..|--- .... ....|--- .... ....|--- .... ....
....|..|--- .... ....|--- .... ....|A#3 ...6 ....
....|..|--- .... ....|--- .... ....|E-4 ...8 ....
..33|..|--- .... ....|A#1 7A.. ....|--- .... ....
....|..|--- .... ....|--- .... ....|F-4 ...6 ....
....|..|--- .... ....|E-4 EF.. ....|A#3 ...8 ....
....|..|--- .... ....|--- .... ....|--- .... ....
....|..|--- .... ....|C-4 AF.F ....|E-4 ...6 ....
....|..|--- .... ....|--- .... ....|F-4 ...8 ....
....|..|--- .... ....|--- .... ....|--- .... ....
....|..|--- .... ....|--- .... ....|A#3 ...6 ....
..33|..|--- .... ....|A#1 7A.. ....|E-4 ...8 ....
....|..|--- .... ....|--- .... ....|--- .... ....
....|..|--- .... ....|--- .... ....|F-4 ...6 ....
....|..|--- .... ....|--- .... ....|A#3 ...8 ....
....|..|--- .... ....|C-4 AF.F ....|--- .... ....
....|..|--- .... ....|--- .... ....|E-4 ...6 ....
....|..|--- .... ....|--- .... ....|F-4 ...8 ....
....|..|--- .... ....|--- .... ....|--- .... ....
..33|..|--- .... ....|A#1 7A.. ....|A#3 ...6 ....
....|..|--- .... ....|--- .... ....|E-4 ...8 ....
....|..|--- .... ....|--- .... ....|--- .... ....
....|..|--- .... ....|--- .... ....|F-4 ...6 ....
....|..|--- .... ....|C-4 AF.F ....|A#3 ...8 ....
....|..|--- .... ....|--- .... ....|--- .... ....
....|..|--- .... ....|--- .... ....|E-4 ...6 ....
....|..|--- .... ....|--- .... ....|F-4 ...8 ....
..33|..|--- .... ....|A#1 7A.. ....|--- .... ....
....|..|--- .... ....|--- .... ....|A#3 ...6 ....
....|..|--- .... 21.1|--- .... ....|E-4 ...8 ....
....|..|--- .... ....|--- .... ....|--- .... ....

[Pattern40]
....|..|A#3 GF4B ....|C-4 AF.F ....|F-4 1FA8 ....
....|..|--- .... ....|--- .... ....|--- .... ....
....|..|--- .... ....|--- .... ....|A#3 ...6 ....
....|..|--- .... ....|--- .... ....|E-4 ...8 ....
..3C|..|--- .... ....|G-1 7A.. ....|--- .... ....
....|..|--- .... ....|--- .... ....|F-4 ...6 ....
....|..|--- .... ....|E-4 EF.. ....|A#3 ...8 ....
....|..|--- .... ....|--- .... ....|--- .... ....
....|..|--- .... ....|C-4 AF.F ....|E-4 ...6 ....
....|..|--- .... ....|--- .... ....|F-4 ...8 ....
....|..|--- .... ....|--- .... ....|--- .... ....
....|..|--- .... ....|--- .... ....|A#3 ...6 ....
..3C|..|--- .... ....|G-1 7A.. ....|E-4 ...8 ....
....|..|--- .... ....|--- .... ....|--- .... ....
..3C|..|--- .... ....|--- .... ....|G-1 .A.B ....
....|..|--- .... ....|--- .... ....|R-- .... ....
..3C|..|--- .... ....|C-4 AF.F ....|G-1 .A.B ....
....|..|--- .... ....|--- .... ....|R-- .... ....
....|..|--- .... ....|--- .... ....|--- ...C ....
....|..|--- .... ....|--- .... ....|--- .... ....
..78|..|--- .... ....|G-1 7A.. ....|G-1 .C.B ....
....|..|--- .... ....|--- .... ....|R-- .... ....
..3C|..|--- .... ....|--- .... ....|G-1 .A.B ....
....|..|--- .... ....|--- .... ....|R-- .... ....
....|..|--- .... ....|C-4 AF.F ....|--- ...C ....
....|..|--- .... ....|--- .... ....|--- .... ....
....|..|--- .... ....|--- .... ....|--- ...B ....
....|..|--- .... ....|--- .... ....|--- .... ....
..3C|..|--- .... ....|G-1 7A.. ....|G-4 .F9C ....
....|..|--- .... ....|--- .... ....|--- .... ....
....|..|--- .... 11.1|--- .... ....|--- ...B ....
....|..|--- .... ....|--- .... ....|--- .... ....
....|..|A#3 .... ....|C-4 AF.F ....|F-4 1FA8 ....
....|..|--- .... ....|--- .... ....|--- .... ....
....|..|--- .... ....|--- .... ....|A#3 ...6 ....
....|..|--- .... ....|--- .... ....|E-4 ...8 ....
..3C|..|--- .... ....|G-1 7A.. ....|--- .... ....
....|..|--- .... ....|--- .... ....|F-4 ...6 ....
....|..|--- .... ....|E-4 EF.. ....|A#3 ...8 ....
....|..|--- .... ....|--- .... ....|--- .... ....
....|..|--- .... ....|C-4 AF.F ....|E-4 ...6 ....
....|..|--- .... ....|--- .... ....|F-4 ...8 ....
....|..|--- .... ....|--- .... ....|--- .... ....
....|..|--- .... ....|--- .... ....|A#3 ...6 ....
..3C|..|--- .... ....|G-1 7A.. ....|E-4 ...8 ....
....|..|--- .... ....|--- .... ....|--- .... ....
....|..|--- .... ....|--- .... ....|F-4 ...6 ....
....|..|--- .... ....|--- .... ....|A#3 ...8 ....
....|..|--- .... ....|C-4 AF.F ....|--- .... ....
....|..|--- .... ....|--- .... ....|E-4 ...6 ....
....|..|--- .... ....|--- .... ....|F-4 ...8 ....
....|..|--- .... ....|--- .... ....|--- .... ....
..3C|..|--- .... ....|G-1 7A.. ....|A#3 ...6 ....
....|..|--- .... ....|--- .... ....|E-4 ...8 ....
....|..|--- .... ....|--- .... ....|--- .... ....
....|..|--- .... ....|--- .... ....|F-4 ...6 ....
....|..|--- .... ....|C-4 AF.F ....|A#3 ...8 ....
....|..|--- .... ....|--- .... ....|--- .... ....
....|..|--- .... ....|--- .... ....|E-4 ...6 ....
....|..|--- .... ....|--- .... ....|F-4 ...8 ....
..3C|..|--- .... 11.1|G-1 7A.. ....|--- .... ....
....|..|--- .... ....|--- .... ....|A#3 ...6 ....
....|..|--- .... ....|--- .... ....|E-4 ...8 ....
....|..|--- .... ....|--- .... ....|--- .... ....

[Pattern41]
....|..|A-3 GF5B ....|C-4 AF.F ....|F-4 1FA8 ....
....|..|--- .... ....|--- .... ....|--- .... ....
....|..|--- .... ....|--- .... ....|A-3 ...6 ....
....|..|--- .... ....|--- .... ....|E-4 ...8 ....
..22|..|--- .... ....|F-2 7A.. ....|--- .... ....
....|..|--- .... ....|--- .... ....|F-4 ...6 ....
....|..|--- .... ....|E-4 EF.. ....|A-3 ...8 ....
....|..|--- .... ....|--- .... ....|--- .... ....
....|..|--- .... ....|C-4 AF.F ....|E-4 ...6 ....
....|..|--- .... ....|--- .... ....|F-4 ...8 ....
....|..|--- .... ....|C-3 L... ....|--- .... ....
....|..|--- .... ....|--- .... ....|A-3 ...6 ....
..22|..|--- .... ....|F-2 7A.. ....|E-4 ...8 ....
....|..|--- .... ....|--- .... ....|--- .... ....
..22|..|--- .... ....|--- .... ....|F-2 .A.B ....
....|..|--- .... ....|--- .... ....|R-- .... ....
..22|..|--- .... ....|C-4 AF.F ....|F-2 .A.B ....
....|..|--- .... ....|--- .... ....|R-- .... ....
....|..|--- .... ....|C-4 V... ....|--- ...C ....
....|..|--- .... ....|--- .... ....|--- .... ....
..87|..|--- .... ....|F-2 7A.. ....|F-1 .C.B ....
....|..|--- .... ....|--- .... ....|R-- .... ....
..22|..|--- .... ....|--- .... ....|F-2 .A.B ....
....|..|--- .... ....|--- .... ....|R-- .... ....
....|..|--- .... ....|C-4 AF.F ....|--- ...C ....
....|..|--- .... ....|--- .... ....|--- .... ....
....|..|--- .... ....|--- .... ....|--- ...B ....
....|..|--- .... ....|--- .... ....|--- .... ....
..22|..|--- .... ....|F-2 7A.. ....|F-4 .F9C ....
....|..|--- .... ....|--- .... ....|--- .... ....
....|..|--- .... ....|--- .... ....|--- ...B ....
....|..|--- .... ....|--- .... ....|--- .... ....
....|..|--- .... ....|C-4 AF.F ....|F-4 1FA8 ....
....|..|--- .... ....|--- .... ....|--- .... ....
....|..|--- .... ....|--- .... ....|A-3 ...6 ....
....|..|--- .... ....|--- .... ....|E-4 ...8 ....
..22|..|--- .... ....|F-2 7A.. ....|--- .... ....
....|..|--- .... ....|--- .... ....|F-4 ...6 ....
....|..|--- .... ....|E-4 EF.. ....|A-3 ...8 ....
....|..|--- .... ....|--- .... ....|--- .... ....
....|..|--- .... ....|C-4 AF.F ....|E-4 ...6 ....
....|..|--- .... ....|--- .... ....|F-4 ...8 ....
....|..|--- .... ....|--- .... ....|--- .... ....
....|..|--- .... ....|--- .... ....|A-3 ...6 ....
..22|..|--- .... ....|F-2 7A.. ....|E-4 ...8 ....
....|..|--- .... ....|--- .... ....|--- .... ....
....|..|--- .... ....|--- .... ....|F-4 ...6 ....
....|..|--- .... ....|--- .... ....|A-3 ...8 ....
....|..|--- .... ....|C-4 AF.F ....|--- .... ....
....|..|--- .... ....|--- .... ....|E-4 ...6 ....
....|..|--- .... ....|B-8 J... ....|F-4 ...8 ....
....|..|--- .... ....|--- .... ....|--- .... ....
..22|..|--- .... ....|F-2 7A.. ....|A-3 ...6 ....
....|..|--- .... ....|--- .... ....|E-4 ...8 ....
....|..|--- .... ....|--- .... ....|--- .... ....
....|..|--- .... ....|--- .... ....|F-4 ...6 ....
....|..|--- .... ....|C-4 AF.F ....|A-3 ...8 ....
....|..|--- .... ....|--- .... ....|--- .... ....
....|..|--- .... ....|--- .... ....|E-4 ...6 ....
....|..|--- .... ....|--- .... ....|F-4 ...8 ....
..22|..|--- .... 21.1|F-2 7A.. ....|--- .... ....
....|..|--- .... ....|--- .... ....|A-3 ...6 ....
....|..|--- .... ....|--- .... ....|E-4 ...8 ....
....|..|--- .... ....|--- .... ....|--- .... ....

[Pattern42]
....|..|C-4 DF.F ....|C-4 AF.F ....|F-4 1FA8 ....
....|..|--- .... ....|--- .... ....|--- .... ....
....|..|C-4 L..B ....|D-4 GF3B ....|D-4 ...6 ....
....|..|--- .... ....|--- .... ....|E-4 ...8 ....
..28|..|C-4 K..B ....|D-2 7A.F ....|--- .... ....
....|..|--- .... ....|--- .... ....|F-4 ...6 ....
....|..|C-4 D..F ....|D-4 GF3B ....|D-4 ...8 ....
....|..|--- .... ....|--- .... ....|--- .... ....
....|..|C-4 L..B ....|C-4 AF.F ....|E-4 ...6 ....
....|..|--- .... ....|--- .... ....|F-4 ...8 ....
....|..|--- ...F ....|D-4 GF3B ....|--- .... ....
....|..|--- .... ....|--- .... ....|D-4 ...6 ....
..28|..|C-4 K..F ....|D-2 7A.F ....|E-4 ...8 ....
....|..|C-4 L... ....|--- .... ....|--- .... ....
..28|..|C-4 K..B ....|D-4 GF3B ....|D-2 .A.B ....
....|..|C-4 L... ....|--- .... ....|R-- .... ....
..28|..|C-4 D..B ....|C-4 AF.F ....|D-2 .A.B ....
....|..|--- .... ....|--- .... ....|R-- .... ....
....|..|E-4 E..F ....|D-4 GF3B ....|--- ...C ....
....|..|--- .... ....|--- .... ....|--- .... ....
..28|..|C-4 A..B ....|D-2 7A.F ....|D-2 .C.B ....
....|..|--- .... ....|--- .... ....|R-- .... ....
..14|..|C-4 L..F ....|D-4 GF3B ....|D-2 .A.B ....
....|..|--- .... ....|--- .... ....|R-- .... ....
....|..|E-4 E..F ....|C-4 AF.F ....|--- ...C ....
....|..|--- .... ....|--- .... ....|--- .... ....
....|..|--- ...B ....|D-4 GF3B ....|--- ...B ....
....|..|--- .... ....|--- .... ....|--- .... ....
..28|..|C-4 K..B ....|D-2 7A.F ....|D-4 .F9C ....
....|..|--- .... ....|--- .... ....|--- .... ....
....|..|C-4 L..F ....|D-4 GF3B ....|--- ...B ....
....|..|--- .... ....|--- .... ....|--- .... ....
....|..|C-4 DF.F ....|C-4 AF.F ....|F-4 1FA8 ....
....|..|--- .... ....|--- .... ....|--- .... ....
....|..|C-4 L..B ....|D-4 GF3B ....|D-4 ...6 ....
....|..|--- .... ....|--- .... ....|E-4 ...8 ....
..28|..|C-4 K..B ....|D-2 7A.F ....|--- .... ....
....|..|--- .... ....|--- .... ....|F-4 ...6 ....
....|..|C-4 D..F ....|D-4 GF3B ....|D-4 ...8 ....
....|..|--- .... ....|--- .... ....|--- .... ....
....|..|C-4 L..B ....|C-4 AF.F ....|E-4 ...6 ....
....|..|--- .... ....|--- .... ....|F-4 ...8 ....
....|..|--- ...F ....|D-4 GF3B ....|--- .... ....
....|..|--- .... ....|--- .... ....|D-4 ...6 ....
..28|..|C-4 K..F ....|D-2 7A.F ....|E-4 ...8 ....
....|..|C-4 L... ....|--- .... ....|--- .... ....
....|..|C-4 K..B ....|D-4 GF3B ....|F-4 ...6 ....
....|..|C-4 L... ....|--- .... ....|D-4 ...8 ....
....|..|C-4 D..B ....|C-4 AF.F ....|--- .... ....
....|..|--- .... ....|--- .... ....|E-4 ...6 ....
....|..|E-4 E..F ....|D-4 GF3B ....|F-4 ...8 ....
....|..|--- .... ....|--- .... ....|--- .... ....
..28|..|C-4 A..B ....|D-2 7A.F ....|D-4 ...6 ....
....|..|--- .... ....|--- .... ....|E-4 ...8 ....
....|..|C-4 L..F ....|D-4 GF3B ....|--- .... ....
....|..|--- .... ....|--- .... ....|F-4 ...6 ....
....|..|E-4 E..F ....|C-4 AF.F ....|D-4 ...8 ....
....|..|--- .... ....|--- .... ....|--- .... ....
....|..|--- ...B ....|D-4 GF3B ....|E-4 ...6 ....
....|..|--- .... ....|--- .... ....|F-4 ...8 ....
..28|..|C-4 K..B ....|D-2 7A.F ....|--- .... ....
....|..|--- .... ....|--- .... ....|D-4 ...6 ....
....|..|C-4 L..F ....|D-4 GF3B ....|E-4 ...8 ....
....|..|--- .... ....|--- .... ....|--- .... ....

[Pattern43]
....|..|C-4 DF.F ....|C-4 AF.F ....|F-4 1FA8 ....
....|..|--- .... ....|--- .... ....|--- .... ....
....|..|C-4 L..B ....|D-4 GF8B ....|A#3 ...6 ....
....|..|--- .... ....|--- .... ....|E-4 ...8 ....
..33|..|C-4 K..B ....|A#1 7A.F ....|--- .... ....
....|..|--- .... ....|--- .... ....|F-4 ...6 ....
....|..|C-4 D..F ....|D-4 GF8B ....|A#3 ...8 ....
....|..|--- .... ....|--- .... ....|--- .... ....
....|..|C-4 L..B ....|C-4 AF.F ....|E-4 ...6 ....
....|..|--- .... ....|--- .... ....|F-4 ...8 ....
....|..|--- ...F ....|D-4 GF8B ....|--- .... ....
....|..|--- .... ....|--- .... ....|A#3 ...6 ....
..33|..|C-4 K..F ....|A#1 7A.F ....|E-4 ...8 ....
....|..|C-4 L... ....|--- .... ....|--- .... ....
..19|..|C-4 K..B ....|D-4 GF8B ....|A#2 .A.B ....
....|..|C-4 L... ....|--- .... ....|R-- .... ....
..19|..|C-4 D..B ....|C-4 AF.F ....|A#2 .A.B ....
....|..|--- .... ....|--- .... ....|R-- .... ....
....|..|E-4 E..F ....|D-4 GF8B ....|--- ...C ....
....|..|--- .... ....|--- .... ....|--- .... ....
..65|..|C-4 A..B ....|A#1 7A.F ....|A#1 .C.B ....
....|..|--- .... ....|--- .... ....|R-- .... ....
..33|..|C-4 L..F ....|D-4 GF8B ....|A#1 .A.B ....
....|..|--- .... ....|--- .... ....|R-- .... ....
....|..|E-4 E..F ....|C-4 AF.F ....|--- ...C ....
....|..|--- .... ....|--- .... ....|--- .... ....
....|..|--- ...B ....|D-4 GF8B ....|--- ...B ....
....|..|--- .... ....|--- .... ....|--- .... ....
..33|..|C-4 K..B ....|A#1 7A.F ....|A#3 .F9C ....
....|..|--- .... ....|--- .... ....|--- .... ....
....|..|C-4 L..F ....|D-4 GF8B ....|--- ...B ....
....|..|--- .... ....|--- .... ....|--- .... ....
....|..|C-4 DF.F ....|C-4 AF.F ....|F-4 1FA8 ....
....|..|--- .... ....|--- .... ....|--- .... ....
....|..|C-4 L..B ....|D-4 GF8B ....|A#3 ...6 ....
....|..|--- .... ....|--- .... ....|E-4 ...8 ....
..33|..|C-4 K..B ....|A#1 7A.F ....|--- .... ....
....|..|--- .... ....|--- .... ....|F-4 ...6 ....
....|..|C-4 D..F ....|D-4 GF8B ....|A#3 ...8 ....
....|..|--- .... ....|--- .... ....|--- .... ....
....|..|C-4 L..B ....|C-4 AF.F ....|E-4 ...6 ....
....|..|--- .... ....|--- .... ....|F-4 ...8 ....
....|..|--- ...F ....|D-4 GF8B ....|--- .... ....
....|..|--- .... ....|--- .... ....|A#3 ...6 ....
..33|..|C-4 K..F ....|A#1 7A.F ....|E-4 ...8 ....
....|..|C-4 L... ....|--- .... ....|--- .... ....
....|..|C-4 K..B ....|D-4 GF8B ....|F-4 ...6 ....
....|..|C-4 L... ....|--- .... ....|A#3 ...8 ....
....|..|C-4 D..B ....|C-4 AF.F ....|--- .... ....
....|..|--- .... ....|--- .... ....|E-4 ...6 ....
....|..|E-4 E..F ....|D-4 GF8B ....|F-4 ...8 ....
....|..|--- .... ....|--- .... ....|--- .... ....
..33|..|C-4 A..B ....|A#1 7A.F ....|A#3 ...6 ....
....|..|--- .... ....|--- .... ....|E-4 ...8 ....
....|..|C-4 L..F ....|D-4 GF8B ....|--- .... ....
....|..|--- .... ....|--- .... ....|F-4 ...6 ....
....|..|E-4 E..F ....|C-4 AF.F ....|A#3 ...8 ....
....|..|--- .... ....|--- .... ....|--- .... ....
....|..|--- ...B ....|D-4 GF8B ....|E-4 ...6 ....
....|..|--- .... ....|--- .... ....|F-4 ...8 ....
..33|..|C-4 K..B ....|A#1 7A.F ....|--- .... ....
....|..|--- .... ....|--- .... ....|A#3 ...6 ....
....|..|C-4 L..F ....|D-4 GF8B ....|E-4 ...8 ....
....|..|--- .... ....|--- .... ....|--- .... ....

[Pattern44]
....|..|C-4 DF.F ....|C-4 AF.F ....|F-4 1FA8 ....
....|..|--- .... ....|--- .... ....|--- .... ....
....|..|C-4 L..B ....|A#3 GF4B ....|A#3 ...6 ....
....|..|--- .... ....|--- .... ....|E-4 ...8 ....
..3C|..|C-4 K..B ....|G-1 7A.F ....|--- .... ....
....|..|--- .... ....|--- .... ....|F-4 ...6 ....
....|..|C-4 D..F ....|A#3 GF4B ....|A#3 ...8 ....
....|..|--- .... ....|--- .... ....|--- .... ....
....|..|C-4 L..B ....|C-4 AF.F ....|E-4 ...6 ....
....|..|--- .... ....|--- .... ....|F-4 ...8 ....
....|..|--- ...F ....|A#3 GF4B ....|--- .... ....
....|..|--- .... ....|--- .... ....|A#3 ...6 ....
..3C|..|C-4 K..F ....|G-1 7A.F ....|E-4 ...8 ....
....|..|C-4 L... ....|--- .... ....|--- .... ....
..3C|..|C-4 K..B ....|A#3 GF4B ....|G-1 .A.B ....
....|..|C-4 L... ....|--- .... ....|R-- .... ....
..3C|..|C-4 D..B ....|C-4 AF.F ....|G-1 .A.B ....
....|..|--- .... ....|--- .... ....|R-- .... ....
....|..|E-4 E..F ....|A#3 GF4B ....|--- ...C ....
....|..|--- .... ....|--- .... ....|--- .... ....
..78|..|C-4 A..B ....|G-1 7A.F ....|G-1 .C.B ....
....|..|--- .... ....|--- .... ....|R-- .... ....
..3C|..|C-4 L..F ....|A#3 GF4B ....|G-1 .A.B ....
....|..|--- .... ....|--- .... ....|R-- .... ....
....|..|E-4 E..F ....|C-4 AF.F ....|--- ...C ....
....|..|--- .... ....|--- .... ....|--- .... ....
....|..|--- ...B ....|A#3 GF4B ....|--- ...B ....
....|..|--- .... ....|--- .... ....|--- .... ....
..3C|..|C-4 K..B ....|G-1 7A.F ....|G-4 .F9C ....
....|..|--- .... ....|--- .... ....|--- .... ....
....|..|C-4 L..F ....|A#3 GF4B ....|--- ...B ....
....|..|--- .... ....|--- .... ....|--- .... ....
....|..|C-4 DF.F ....|C-4 AF.F ....|F-4 1FA8 ....
....|..|--- .... ....|--- .... ....|--- .... ....
....|..|C-4 L..B ....|A#3 GF4B ....|A#3 ...6 ....
....|..|--- .... ....|--- .... ....|E-4 ...8 ....
..3C|..|C-4 K..B ....|G-1 7A.F ....|--- .... ....
....|..|--- .... ....|--- .... ....|F-4 ...6 ....
....|..|C-4 D..F ....|A#3 GF4B ....|A#3 ...8 ....
....|..|--- .... ....|--- .... ....|--- .... ....
....|..|C-4 L..B ....|C-4 AF.F ....|E-4 ...6 ....
....|..|--- .... ....|--- .... ....|F-4 ...8 ....
....|..|--- ...F ....|A#3 GF4B ....|--- .... ....
....|..|--- .... ....|--- .... ....|A#3 ...6 ....
..3C|..|C-4 K..F ....|G-1 7A.F ....|E-4 ...8 ....
....|..|C-4 L... ....|--- .... ....|--- .... ....
....|..|C-4 K..B ....|A#3 GF4B ....|F-4 ...6 ....
....|..|C-4 L... ....|--- .... ....|A#3 ...8 ....
....|..|C-4 D..B ....|C-4 AF.F ....|--- .... ....
....|..|--- .... ....|--- .... ....|E-4 ...6 ....
....|..|E-4 E..F ....|A#3 GF4B ....|F-4 ...8 ....
....|..|--- .... ....|--- .... ....|--- .... ....
..3C|..|C-4 A..B ....|G-1 7A.F ....|A#3 ...6 ....
....|..|--- .... ....|--- .... ....|E-4 ...8 ....
....|..|C-4 L..F ....|A#3 GF4B ....|--- .... ....
....|..|--- .... ....|--- .... ....|F-4 ...6 ....
....|..|E-4 E..F ....|C-4 AF.F ....|A#3 ...8 ....
....|..|--- .... ....|--- .... ....|--- .... ....
....|..|--- ...B ....|A#3 GF4B ....|E-4 ...6 ....
....|..|--- .... ....|--- .... ....|F-4 ...8 ....
..3C|..|C-4 K..B ....|G-1 7A.F ....|--- .... ....
....|..|--- .... ....|--- .... ....|A#3 ...6 ....
....|..|C-4 L..F ....|A#3 GF4B ....|E-4 ...8 ....
....|..|--- .... ....|--- .... ....|--- .... ....

[Pattern45]
....|..|C-4 DF.F ....|C-4 AF.F ....|F-4 1FA8 ....
....|..|--- .... ....|--- .... ....|--- .... ....
....|..|C-4 L..B ....|A-3 GF5B ....|A-3 ...6 ....
....|..|--- .... ....|--- .... ....|E-4 ...8 ....
..22|..|C-4 K..B ....|F-2 7A.F ....|--- .... ....
....|..|--- .... ....|--- .... ....|F-4 ...6 ....
....|..|C-4 D..F ....|A-3 GF5B ....|A-3 ...8 ....
....|..|--- .... ....|--- .... ....|--- .... ....
....|..|C-4 L..B ....|C-4 AF.F ....|E-4 ...6 ....
....|..|--- .... ....|--- .... ....|F-4 ...8 ....
....|..|--- ...F ....|A-3 GF5B ....|--- .... ....
....|..|--- .... ....|--- .... ....|A-3 ...6 ....
..22|..|C-4 K..F ....|F-2 7A.F ....|E-4 ...8 ....
....|..|C-4 L... ....|--- .... ....|--- .... ....
..22|..|C-4 K..B ....|A-3 GF5B ....|F-2 .A.B ....
....|..|C-4 L... ....|--- .... ....|R-- .... ....
..22|..|C-4 D..B ....|C-4 AF.F ....|F-2 .A.B ....
....|..|--- .... ....|--- .... ....|R-- .... ....
....|..|E-4 E..F ....|A-3 GF5B ....|--- ...C ....
....|..|--- .... ....|--- .... ....|--- .... ....
..87|..|C-4 A..B ....|F-2 7A.F ....|F-1 .C.B ....
....|..|--- .... ....|--- .... ....|R-- .... ....
..22|..|C-4 L..F ....|A-3 GF5B ....|F-2 .A.B ....
....|..|--- .... ....|--- .... ....|R-- .... ....
....|..|E-4 E..F ....|C-4 AF.F ....|--- ...C ....
....|..|--- .... ....|--- .... ....|--- .... ....
....|..|--- ...B ....|A-3 GF5B ....|--- ...B ....
....|..|--- .... ....|--- .... ....|--- .... ....
..22|..|C-4 K..B ....|F-2 7A.F ....|F-4 .F9C ....
....|..|--- .... ....|--- .... ....|--- .... ....
....|..|C-4 L..F ....|A-3 GF5B ....|--- ...B ....
....|..|--- .... ....|--- .... ....|--- .... ....
....|..|C-4 DF.F ....|C-4 AF.F ....|F-4 1FA8 ....
....|..|--- .... ....|--- .... ....|--- .... ....
....|..|C-4 L..B ....|A-3 GF5B ....|A-3 ...6 ....
....|..|--- .... ....|--- .... ....|E-4 ...8 ....
..22|..|C-4 K..B ....|F-2 7A.F ....|--- .... ....
....|..|--- .... ....|--- .... ....|F-4 ...6 ....
....|..|C-4 D..F ....|A-3 GF5B ....|A-3 ...8 ....
....|..|--- .... ....|--- .... ....|--- .... ....
....|..|C-4 L..B ....|C-4 AF.F ....|E-4 ...6 ....
....|..|--- .... ....|--- .... ....|F-4 ...8 ....
....|..|--- ...F ....|A-3 GF5B ....|--- .... ....
....|..|--- .... ....|--- .... ....|A-3 ...6 ....
..22|..|C-4 K..F ....|F-2 7A.F ....|E-4 ...8 ....
....|..|C-4 L... ....|--- .... ....|--- .... ....
....|..|C-4 K..B ....|A-3 GF5B ....|F-4 ...6 ....
....|..|C-4 L... ....|--- .... ....|A-3 ...8 ....
....|..|C-4 D..B ....|C-4 AF.F ....|--- .... ....
....|..|--- .... ....|--- .... ....|E-4 ...6 ....
....|..|E-4 E..F ....|A-3 GF5B ....|F-4 ...8 ....
....|..|--- .... ....|--- .... ....|--- .... ....
..22|..|C-4 A..B ....|F-2 7A.F ....|A-3 ...6 ....
....|..|--- .... ....|--- .... ....|E-4 ...8 ....
....|..|C-4 L..F ....|A-3 GF5B ....|--- .... ....
....|..|--- .... ....|--- .... ....|F-4 ...6 ....
....|..|E-4 E..F ....|C-4 AF.F ....|A-3 ...8 ....
....|..|--- .... ....|--- .... ....|--- .... ....
....|..|--- ...B ....|A-3 GF5B ....|E-4 ...6 ....
....|..|--- .... ....|--- .... ....|F-4 ...8 ....
..22|..|C-4 K..B ....|F-2 7A.F ....|--- .... ....
....|..|--- .... ....|--- .... ....|A-3 ...6 ....
....|..|C-4 L..F ....|A-3 GF5B ....|E-4 ...8 ....
....|..|--- .... ....|--- .... ....|--- .... ....

[Pattern46]
..14|..|D-4 DF.F ....|D-3 7A.. ....|C-4 DF.F ....
..28|..|D-2 7A.. ....|D-2 .... ....|--- .... ....
..14|..|D-3 9F.. ....|D-3 .A.. ....|C-4 D..F ....
..28|..|D-2 7A.. ....|D-2 .... ....|--- .... ....
..14|..|D-3 9F.. ....|D-3 .A.. ....|C-4 L..F ....
..28|..|D-2 7A.. ....|D-2 .... ....|--- .... ....
..14|..|D-3 9F.. ....|D-3 .A.. ....|C-4 D..F ....
..28|..|D-2 7A.. ....|D-2 .... ....|--- .... ....
..14|..|D-3 9F.. ....|D-3 .A.. ....|C-4 C..F ....
..28|..|D-2 7A.. ....|--- .... ....|--- .... ....
....|..|--- .... ....|--- .... ....|--- ...B ....
....|..|R-- .... ....|R-- .... ....|--- .... ....
....|..|--- .... ....|--- .... ....|C-4 K..F ....
....|..|--- .... ....|--- .... ....|--- .... ....
....|..|--- .... ....|--- .... ....|C-4 L..F ....
....|..|--- .... ....|--- .... ....|--- .... ....
....|..|D-4 2FBF ....|--- .... ....|C-4 K..F ....
....|..|--- .... ....|--- .... ....|--- .... ....
....|..|--- .... ....|--- .... ....|C-4 L..F ....
....|..|--- .... ....|--- .... ....|--- .... ....
....|..|--- .... ....|--- .... ....|C-4 L..F ....
....|..|--- .... ....|--- .... ....|--- .... ....
....|..|D-4 2FBB ....|--- .... ....|--- ...B ....
....|..|--- .... ....|--- .... ....|--- .... ....
....|..|--- .... ....|--- .... ....|C-4 C..F ....
....|..|--- .... ....|--- .... ....|--- .... ....
....|..|--- .... ....|--- .... ....|--- ...B ....
....|..|--- .... ....|--- .... ....|--- .... ....
....|..|D-4 ...C ....|--- .... ....|C-4 K..F ....
....|..|--- .... ....|--- .... ....|--- .... ....
....|..|--- .... ....|--- .... ....|C-4 L..F ....
....|..|--- .... ....|--- .... ....|--- .... ....
..14|..|D-4 DF.F ....|D-3 7A.F ....|C-4 DF.F ....
..28|..|D-2 7A.. ....|D-2 .... ....|--- .... ....
..14|..|D-3 9F.. ....|D-3 .A.. ....|C-4 D..F ....
..28|..|D-2 7A.. ....|D-2 .... ....|--- .... ....
..14|..|D-3 9F.. ....|D-3 .A.. ....|C-4 L..F ....
..28|..|D-2 7A.. ....|D-2 .... ....|--- .... ....
..14|..|D-3 9F.. ....|D-3 .A.. ....|C-4 D..F ....
..28|..|D-2 7A.. ....|D-2 .... ....|--- .... ....
..14|..|D-3 9F.. ....|D-3 .A.. ....|C-4 C..F ....
..28|..|D-2 7A.. ....|--- .... ....|--- .... ....
....|..|--- .... ....|--- .... ....|--- ...B ....
....|..|--- .... ....|R-- .... ....|--- .... ....
....|..|R-- .... ....|--- .... ....|C-4 K..F ....
....|..|--- .... ....|--- .... ....|--- .... ....
....|..|--- .... ....|--- .... ....|C-4 L..F ....
....|..|--- .... ....|--- .... ....|--- .... ....
....|..|D-4 2FB. ....|--- .... ....|C-4 K..F ....
....|..|--- .... ....|--- .... ....|--- .... ....
....|..|--- .... ....|--- .... ....|C-4 L..F ....
....|..|--- .... ....|--- .... ....|--- .... ....
....|..|--- .... ....|--- .... ....|C-4 L..F ....
....|..|--- .... ....|--- .... ....|--- .... ....
....|..|D-4 .... ....|--- .... ....|--- ...B ....
....|..|--- .... ....|--- .... ....|--- .... ....
....|..|--- .... ....|--- .... ....|C-4 C..F ....
....|..|--- .... ....|--- .... ....|--- .... ....
....|..|--- .... ....|--- .... ....|--- ...B ....
....|..|--- .... ....|--- .... ....|--- .... ....
....|..|D-4 .... ....|--- .... ....|C-4 K..F ....
....|..|--- .... ....|--- .... ....|--- .... ....
....|..|--- .... ....|--- .... ....|C-4 L..F ....
....|..|--- .... ....|--- .... ....|--- .... ....

[Pattern47]
..14|..|D-4 DF.F ....|D-3 7A.F ....|D-4 DF.F ....
..28|..|D-2 7A.. ....|D-2 .... ....|--- .... ....
..14|..|D-3 9F.. ....|D-3 .A.. ....|D-4 D..F ....
..28|..|D-2 7A.. ....|D-2 .... ....|--- .... ....
..14|..|D-3 9F.. ....|D-3 .A.. ....|D-4 L..F ....
..28|..|D-2 7A.. ....|D-2 .... ....|--- .... ....
..14|..|D-3 9F.. ....|D-3 .A.. ....|D-4 D..B ....
..28|..|D-2 7A.. ....|D-2 .... ....|--- .... ....
..14|..|D-3 9F.. ....|D-3 .A.. ....|E-4 E..F ....
..28|..|D-2 7A.. ....|--- .... ....|--- .... ....
....|..|--- .... ....|--- .... ....|D-4 L..B ....
....|..|R-- .... ....|R-- .... ....|--- .... ....
....|..|--- .... ....|D-4 GF3A ....|D-4 K..F ....
....|..|--- .... ....|--- .... ....|D-4 L..B ....
....|..|--- .... ....|--- .... ....|D-4 L..F ....
....|..|--- .... ....|--- .... ....|D-4 K..B ....
....|..|D-4 2FBF ....|--- .... ....|D-4 K..F ....
....|..|--- .... ....|--- .... ....|D-4 L..B ....
....|..|--- .... ....|--- .... ....|D-4 L..F ....
....|..|--- .... ....|--- .... ....|D-4 K..B ....
....|..|--- .... ....|--- .... ....|D-4 L..F ....
....|..|--- .... ....|--- .... ....|--- .... ....
....|..|D-4 2FBB ....|--- .... ....|D-4 L..B ....
....|..|--- .... ....|--- .... ....|--- .... ....
..11|..|F-3 7A.. ....|--- .... ....|D-4 C..F ....
....|..|--- .... ....|--- .... ....|--- .... ....
..12|..|E-3 .A.. ....|--- .... ....|D-4 L..B ....
....|..|--- .... ....|--- .... ....|--- .... ....
..14|..|D-3 .A.. ....|--- .... ....|D-4 K..F ....
....|..|--- .... ....|--- .... ....|D-4 C..B ....
....|..|--- .... ....|--- .... ....|D-4 L..F ....
....|..|--- .... ....|--- .... ....|D-4 K..B ....
..14|..|D-4 DF.F ....|D-3 7A.F ....|D-4 DF.F ....
..28|..|D-2 7A.. ....|D-2 .... ....|--- .... ....
..14|..|D-3 9F.. ....|D-3 .A.. ....|D-4 D..F ....
..28|..|D-2 7A.. ....|D-2 .... ....|--- .... ....
..14|..|D-3 9F.. ....|D-3 .A.. ....|D-4 L..F ....
..28|..|D-2 7A.. ....|D-2 .... ....|--- .... ....
..14|..|D-3 9F.. ....|D-3 .A.. ....|D-4 D..B ....
..28|..|D-2 7A.. ....|D-2 .... ....|--- .... ....
..14|..|D-3 9F.. ....|D-3 .A.. ....|D-4 E..F ....
..28|..|D-2 7A.. ....|--- .... ....|--- .... ....
....|..|--- .... ....|--- .... ....|D-4 L..B ....
....|..|--- .... ....|R-- .... ....|--- .... ....
....|..|R-- .... ....|D-4 GF8A ....|D-4 K..F ....
....|..|--- .... ....|--- .... ....|D-4 C..B ....
....|..|--- .... ....|--- .... ....|D-4 L..F ....
....|..|--- .... ....|--- .... ....|D-4 K..B ....
....|..|D-4 2FB. ....|--- .... ....|D-4 K..F ....
....|..|--- .... ....|--- .... ....|D-4 L..B ....
....|..|--- .... ....|--- .... ....|D-4 L..F ....
....|..|--- .... ....|--- .... ....|D-4 K..B ....
....|..|--- .... ....|--- .... ....|D-4 L..F ....
....|..|--- .... ....|--- .... ....|--- .... ....
....|..|D-4 .... ....|--- .... ....|D-4 L..B ....
....|..|--- .... ....|--- .... ....|--- .... ....
..11|..|F-3 7A.. ....|--- .... ....|D-4 B..F ....
....|..|--- .... ....|--- .... ....|--- .... ....
..12|..|E-3 .A.. ....|--- .... ....|D-4 L..B ....
....|..|--- .... ....|--- .... ....|--- .... ....
..19|..|A#2 .A.. ....|--- .... ....|D-4 K..F ....
....|..|--- .... ....|--- .... ....|D-4 B..B ....
....|..|--- .... ....|--- .... ....|D-4 L..F ....
....|..|--- .... ....|--- .... ....|D-4 K..B ....

[Pattern48]
..19|..|A#3 DF.F ....|A#2 7A.F ....|D-4 DF.F ....
..33|..|A#1 7A.. ....|A#1 .... ....|--- .... ....
..19|..|A#3 9F.. ....|A#2 .A.. ....|D-4 D..F ....
..33|..|A#1 7A.. ....|A#1 .... ....|--- .... ....
..19|..|A#3 9F.. ....|A#2 .A.. ....|D-4 L..F ....
..33|..|A#1 7A.. ....|A#1 .... ....|--- .... ....
..19|..|A#3 9F.. ....|A#2 .A.. ....|D-4 D..B ....
..33|..|A#1 7A.. ....|A#1 .... ....|--- .... ....
..19|..|A#3 9F.. ....|A#2 .A.. ....|E-4 E..F ....
..33|..|A#1 7A.. ....|--- .... ....|--- .... ....
....|..|--- .... ....|--- .... ....|D-4 L..B ....
....|..|R-- .... ....|R-- .... ....|--- .... ....
....|..|--- .... ....|A#3 GF4A ....|D-4 K..F ....
....|..|--- .... ....|--- .... ....|D-4 L..B ....
....|..|--- .... ....|--- .... ....|D-4 L..F ....
....|..|--- .... ....|--- .... ....|D-4 K..B ....
....|..|A#3 2FBF ....|--- .... ....|D-4 K..F ....
....|..|--- .... ....|--- .... ....|D-4 L..B ....
....|..|--- .... ....|--- .... ....|D-4 L..F ....
....|..|--- .... ....|--- .... ....|D-4 K..B ....
....|..|--- .... ....|--- .... ....|D-4 L..F ....
....|..|--- .... ....|--- .... ....|--- .... ....
....|..|A#3 2FBB ....|--- .... ....|D-4 L..B ....
....|..|--- .... ....|--- .... ....|--- .... ....
..12|..|E-3 7A.. ....|--- .... ....|D-4 C..F ....
....|..|--- .... ....|--- .... ....|--- .... ....
..14|..|D-3 .A.. ....|--- .... ....|D-4 L..B ....
....|..|--- .... ....|--- .... ....|--- .... ....
..19|..|A#2 .A.. ....|--- .... ....|D-4 K..F ....
....|..|--- .... ....|--- .... ....|D-4 C..B ....
....|..|--- .... ....|--- .... ....|D-4 L..F ....
....|..|--- .... ....|--- .... ....|D-4 K..B ....
...F|..|G-3 DF.F ....|G-3 7A.F ....|D-4 DF.F ....
..1E|..|G-2 7A.. ....|G-2 .... ....|--- .... ....
...F|..|G-3 9F.. ....|G-3 .A.. ....|D-4 D..F ....
..1E|..|G-2 7A.. ....|G-2 .... ....|--- .... ....
...F|..|G-3 9F.. ....|G-3 .A.. ....|D-4 L..F ....
..1E|..|G-2 7A.. ....|G-2 .... ....|--- .... ....
...F|..|G-3 9F.. ....|G-3 .A.. ....|D-4 D..B ....
..1E|..|G-2 7A.. ....|G-2 .... ....|--- .... ....
...F|..|G-3 9F.. ....|G-3 .A.. ....|D-4 E..F ....
..1E|..|G-2 7A.. ....|--- .... ....|--- .... ....
....|..|--- .... ....|--- .... ....|D-4 L..B ....
....|..|--- .... ....|R-- .... ....|--- .... ....
....|..|R-- .... ....|A-3 GF5A ....|D-4 K..F ....
....|..|--- .... ....|--- .... ....|D-4 C..B ....
....|..|--- .... ....|--- .... ....|D-4 L..F ....
....|..|--- .... ....|--- .... ....|D-4 K..B ....
....|..|G-4 2FB. ....|--- .... ....|D-4 K..F ....
....|..|--- .... ....|--- .... ....|D-4 L..B ....
....|..|--- .... ....|--- .... ....|D-4 L..F ....
....|..|--- .... ....|--- .... ....|D-4 K..B ....
....|..|--- .... ....|--- .... ....|D-4 L..F ....
....|..|--- .... ....|--- .... ....|--- .... ....
....|..|G-4 .... ....|--- .... ....|D-4 L..B ....
....|..|--- .... ....|--- .... ....|--- .... ....
...D|..|A#3 7A.. ....|--- .... ....|D-4 B..F ....
....|..|--- .... ....|--- .... ....|--- .... ....
...E|..|A-3 .A.. ....|--- .... ....|D-4 L..B ....
....|..|--- .... ....|--- .... ....|--- .... ....
...F|..|G-3 .A.. ....|--- .... ....|D-4 K..F ....
....|..|--- .... ....|--- .... ....|D-4 B..B ....
....|..|--- .... ....|--- .... ....|D-4 L..F ....
....|..|--- .... ....|--- .... ....|D-4 K..B ....

[Pattern49]
...F|..|G-3 DF.F ....|G-3 7A.F ....|D-4 DF.F ....
..1E|..|G-2 7A.. ....|G-2 .... ....|--- .... ....
...F|..|G-3 9F.. ....|G-3 .A.. ....|D-4 D..F ....
..1E|..|G-2 7A.. ....|G-2 .... ....|--- .... ....
...F|..|G-3 9F.. ....|G-3 .A.. ....|D-4 L..F ....
..1E|..|G-2 7A.. ....|G-2 .... ....|--- .... ....
...F|..|G-3 9F.. ....|G-3 .A.. ....|D-4 D..B ....
..1E|..|G-2 7A.. ....|G-2 .... ....|--- .... ....
...F|..|G-3 9F.. ....|G-3 .A.. ....|E-4 E..F ....
..1E|..|G-2 7A.. ....|--- .... ....|--- .... ....
....|..|--- .... ....|--- .... ....|D-4 L..B ....
....|..|R-- .... ....|R-- .... ....|--- .... ....
....|..|--- .... ....|G-4 GF3A ....|D-4 K..F ....
....|..|--- .... ....|--- .... ....|D-4 L..B ....
....|..|--- .... ....|--- .... ....|D-4 L..F ....
....|..|--- .... ....|--- .... ....|D-4 K..B ....
....|..|G-5 2FBF ....|--- .... ....|D-4 K..F ....
....|..|--- .... ....|--- .... ....|D-4 L..B ....
....|..|--- .... ....|--- .... ....|D-4 L..F ....
....|..|--- .... ....|--- .... ....|D-4 K..B ....
....|..|--- .... ....|--- .... ....|D-4 L..F ....
....|..|--- .... ....|--- .... ....|--- .... ....
....|..|G-5 2FBB ....|--- .... ....|D-4 L..B ....
....|..|--- .... ....|--- .... ....|--- .... ....
..12|..|E-3 7A.. ....|--- .... ....|D-4 C..F ....
....|..|--- .... ....|--- .... ....|--- .... ....
..11|..|F-3 .A.. ....|--- .... ....|D-4 L..B ....
....|..|--- .... ....|--- .... ....|--- .... ....
...F|..|G-3 .A.. ....|--- .... ....|D-4 K..F ....
....|..|--- .... ....|--- .... ....|D-4 C..B ....
....|..|--- .... ....|--- .... ....|D-4 L..F ....
....|..|--- .... ....|--- .... ....|D-4 K..B ....
..11|..|F-3 DF.F ....|F-3 7A.F ....|D-4 DF.F ....
..22|..|F-2 7A.. ....|F-2 .... ....|--- .... ....
..11|..|F-3 9F.. ....|F-3 .A.. ....|D-4 D..F ....
..22|..|F-2 7A.. ....|F-2 .... ....|--- .... ....
..11|..|F-3 9F.. ....|F-3 .A.. ....|D-4 L..F ....
..22|..|F-2 7A.. ....|F-2 .... ....|--- .... ....
..11|..|F-3 9F.. ....|F-3 .A.. ....|D-4 D..B ....
..22|..|F-2 7A.. ....|F-2 .... ....|--- .... ....
..11|..|F-3 9F.. ....|F-3 .A.. ....|D-4 E..F ....
..22|..|F-2 7A.. ....|--- .... ....|--- .... ....
....|..|--- .... ....|--- .... ....|D-4 L..B ....
....|..|--- .... ....|R-- .... ....|--- .... ....
....|..|R-- .... ....|D-4 GF3A ....|D-4 K..F ....
....|..|--- .... ....|--- .... ....|D-4 C..B ....
....|..|--- .... ....|--- .... ....|D-4 L..F ....
....|..|--- .... ....|--- .... ....|D-4 K..B ....
....|..|F-4 2FB. ....|--- .... ....|D-4 K..F ....
....|..|--- .... ....|--- .... ....|D-4 L..B ....
....|..|--- .... ....|--- .... ....|D-4 L..F ....
....|..|--- .... ....|--- .... ....|D-4 K..B ....
....|..|--- .... ....|--- .... ....|D-4 L..F ....
....|..|--- .... ....|--- .... ....|--- .... ....
....|..|F-4 .... ....|--- .... ....|D-4 L..B ....
....|..|--- .... ....|--- .... ....|--- .... ....
..19|..|A#2 7A.. ....|--- .... ....|D-4 B..F ....
....|..|--- .... ....|--- .... ....|--- .... ....
..12|..|E-3 .A.. ....|--- .... ....|D-4 L..B ....
....|..|--- .... ....|--- .... ....|--- .... ....
..11|..|F-3 .A.. ....|--- .... ....|D-4 K..F ....
....|..|--- .... ....|--- .... ....|D-4 B..B ....
....|..|--- .... ....|--- .... ....|D-4 L..F ....
....|..|--- .... ....|--- .... ....|D-4 K..B ....

[Pattern50]
..14|..|D-4 GF3B ....|D-4 DF.F ....|C-4 DF.F ....
....|..|--- .... ....|D-2 7F.. ....|D-2 2F.B ....
....|..|--- .... ....|D-3 9F.. ....|C-4 D..F ....
....|..|--- .... ....|D-2 7F.. ....|D-2 2F.B ....
....|..|--- .... ....|D-3 9F.. ....|C-4 L..F ....
....|..|--- .... ....|D-2 7F.. ....|D-2 2F.B ....
....|..|--- .... ....|D-3 9F.. ....|C-4 D..F ....
....|..|--- .... ....|D-2 7F.. ....|D-2 2F.B ....
..11|..|F-3 7A.. ....|D-3 9F.. ....|C-4 C..F ....
....|..|--- .... ....|D-2 7F.. ....|--- .... ....
....|..|--- .... ....|--- .... ....|--- ...B ....
....|..|--- .... ....|R-- .... ....|--- .... ....
....|..|--- .... ....|D-4 GF3A ....|C-4 9..F ....
....|..|--- .... ....|--- .... ....|--- .... ....
....|..|--- .... ....|--- .... ....|C-4 H..F ....
....|..|--- .... ....|--- .... ....|--- .... ....
....|..|--- .... ....|D-5 2FBB ....|C-4 K..F ....
....|..|--- .... ....|--- .... ....|--- .... ....
....|..|--- .... ....|D-4 .... ....|C-4 H..F ....
....|..|--- .... ....|--- .... ....|--- .... ....
..12|..|E-3 2A.. ....|D-3 .... ....|C-4 A..F ....
....|..|--- .... ....|--- .... ....|--- .... ....
....|..|--- .... ....|D-5 2FBB ....|--- ...B ....
....|..|--- .... ....|--- .... ....|--- .... ....
....|..|--- .... ....|D-4 .... ....|C-4 9..F ....
....|..|--- .... ....|--- .... ....|--- .... ....
....|..|--- .... ....|D-3 .... ....|--- ...B ....
....|..|--- .... ....|--- .... ....|--- .... ....
....|..|--- .... ....|D-5 ...C ....|C-4 K..F ....
....|..|--- .... ....|--- .... ....|--- .... ....
....|..|--- .... ....|--- .... ....|C-4 L..F ....
....|..|--- .... ....|--- .... ....|--- .... ....
..1B|..|A-2 7A.. ....|A-4 DF.F ....|C-4 DF.F ....
....|..|--- .... ....|A-1 7F.. ....|A-2 2F.B ....
....|..|--- .... ....|A-3 9F.. ....|C-4 D..F ....
....|..|--- .... ....|A-1 7F.. ....|A-2 2F.B ....
....|..|--- .... ....|A-3 9F.. ....|C-4 L..F ....
....|..|--- .... ....|A-1 7F.. ....|A-2 2F.B ....
....|..|--- .... ....|A-3 9F.. ....|C-4 D..F ....
....|..|--- .... ....|A-1 7F.. ....|A-2 2F.B ....
....|..|--- .... ....|A-3 9F.. ....|C-4 C..F ....
....|..|--- .... ....|A-1 7F.. ....|--- .... ....
....|..|--- .... ....|--- .... ....|--- ...B ....
....|..|--- .... ....|R-- .... ....|--- .... ....
....|..|--- .... ....|D-4 GF3A ....|C-4 9..F ....
....|..|--- .... ....|--- .... ....|--- .... ....
....|..|--- .... ....|--- .... ....|C-4 H..F ....
....|..|--- .... ....|--- .... ....|--- .... ....
....|..|--- .... ....|A#4 2FBB ....|C-4 K..F ....
....|..|--- .... ....|--- .... ....|--- .... ....
....|..|--- .... ....|A#3 .... ....|C-4 H..F ....
....|..|--- .... ....|--- .... ....|--- .... ....
....|..|--- .... ....|A#2 .... ....|C-4 A..F ....
....|..|--- .... ....|--- .... ....|--- .... ....
....|..|--- .... ....|A#4 2FBB ....|--- ...B ....
....|..|--- .... ....|--- .... ....|--- .... ....
....|..|--- .... ....|A#3 .... ....|C-4 9..F ....
....|..|--- .... ....|--- .... ....|--- .... ....
....|..|--- .... ....|A#2 .... ....|--- ...B ....
....|..|--- .... ....|--- .... ....|--- .... ....
..11|..|F-3 .A.. ....|A#4 ...C ....|C-4 K..F ....
....|..|--- .... ....|--- .... ....|--- .... ....
...F|..|G-3 .A.. ....|--- .... ....|C-4 L..F ....
....|..|--- .... ....|--- .... ....|--- .... ....

[Pattern51]
..14|..|D-4 GF3B ....|D-4 DF.F ....|C-4 DF.F ....
....|..|--- .... ....|D-2 7F.. ....|D-2 2F.B ....
....|..|--- .... ....|D-3 9F.. ....|C-4 D..F ....
....|..|--- .... ....|D-2 7F.. ....|D-2 2F.B ....
....|..|--- .... ....|D-3 9F.. ....|C-4 L..F ....
....|..|--- .... ....|D-2 7F.. ....|D-2 2F.B ....
....|..|--- .... ....|D-3 9F.. ....|C-4 D..F ....
....|..|--- .... ....|D-2 7F.. ....|D-2 2F.B ....
..11|..|F-3 7A.. ....|D-3 9F.. ....|C-4 C..F ....
....|..|--- .... ....|D-2 7F.. ....|--- .... ....
....|..|--- .... ....|--- .... ....|--- ...B ....
....|..|--- .... ....|R-- .... ....|--- .... ....
....|..|--- .... ....|D-4 GF3A ....|C-4 9..F ....
....|..|--- .... ....|--- .... ....|--- .... ....
....|..|--- .... ....|--- .... ....|C-4 H..F ....
....|..|--- .... ....|--- .... ....|--- .... ....
....|..|--- .... ....|D-5 2FBB ....|C-4 K..F ....
....|..|--- .... ....|--- .... ....|--- .... ....
....|..|--- .... ....|D-4 .... ....|C-4 H..F ....
....|..|--- .... ....|--- .... ....|--- .... ....
..12|..|E-3 2A.. ....|D-3 .... ....|C-4 A..F ....
....|..|--- .... ....|--- .... ....|--- .... ....
....|..|--- .... ....|D-5 2FBB ....|--- ...B ....
....|..|--- .... ....|--- .... ....|--- .... ....
....|..|--- .... ....|D-4 .... ....|C-4 9..F ....
....|..|--- .... ....|--- .... ....|--- .... ....
....|..|--- .... ....|D-3 .... ....|--- ...B ....
....|..|--- .... ....|--- .... ....|--- .... ....
....|..|--- .... ....|D-5 ...C ....|C-4 K..F ....
....|..|--- .... ....|--- .... ....|--- .... ....
....|..|--- .... ....|--- .... ....|C-4 L..F ....
....|..|--- .... ....|--- .... ....|--- .... ....
..1E|..|G-3 68.. ....|A-4 DF.F ....|C-4 DF.F ....
....|..|--- .... ....|A-1 7F.. ....|A-2 2F.B ....
....|..|--- .... ....|A-3 9F.. ....|C-4 D..F ....
....|..|--- .... ....|A-1 7F.. ....|A-2 2F.B ....
....|..|--- .... ....|A-3 9F.. ....|C-4 L..F ....
....|..|--- .... ....|A-1 7F.. ....|A-2 2F.B ....
....|..|--- .... ....|A-3 9F.. ....|C-4 D..F ....
....|..|--- .... ....|A-1 7F.. ....|A-2 2F.B ....
....|..|--- .... ....|A-3 9F.. ....|C-4 C..F ....
....|..|--- .... ....|A-1 7F.. ....|--- .... ....
....|..|--- .... ....|--- .... ....|--- ...B ....
....|..|--- .... ....|R-- .... ....|--- .... ....
....|..|--- .... ....|D-4 GF3A ....|C-4 9..F ....
....|..|--- .... ....|--- .... ....|--- .... ....
....|..|--- .... ....|--- .... ....|C-4 H..F ....
....|..|--- .... ....|--- .... ....|--- .... ....
....|..|G-2 5... ....|A#4 2FBB ....|C-4 K..F ....
....|..|--- .... ....|--- .... ....|--- .... ....
....|..|G-2 2... ....|A#3 .... ....|C-4 H..F ....
....|..|--- .... ....|--- .... ....|--- .... ....
....|..|G-3 M... ....|A#2 .... ....|C-4 A..F ....
....|..|--- .... ....|--- .... ....|--- .... ....
....|..|G-2 5... ....|A#4 2FBB ....|--- ...B ....
....|..|--- .... ....|--- .... ....|--- .... ....
....|..|G-3 4... ....|A#3 .... ....|C-4 9..F ....
....|..|--- .... ....|--- .... ....|--- .... ....
....|..|G-2 M... ....|A#2 .... ....|--- ...B ....
....|..|--- .... ....|--- .... ....|--- .... ....
..19|..|A#2 2A.. ....|A#4 ...C ....|C-4 K..F ....
....|..|--- .... ....|--- .... ....|--- .... ....
..18|..|B-2 4A.. ....|--- .... ....|C-4 L..F ....
....|..|--- .... ....|--- .... ....|--- .... ....

[Pattern52]
..14|..|D-4 GF3B ....|D-4 DF.F ....|C-4 DF.F ....
....|..|--- .... ....|D-2 7F.. ....|D-2 2F.B ....
....|..|--- .... ....|D-3 9F.. ....|C-4 D..F ....
....|..|--- .... ....|D-2 7F.. ....|D-2 2F.B ....
....|..|--- .... ....|D-3 9F.. ....|C-4 L..F ....
....|..|--- .... ....|D-2 7F.. ....|D-2 2F.B ....
....|..|--- .... ....|D-3 9F.. ....|C-4 D..F ....
....|..|--- .... ....|D-2 7F.. ....|D-2 2F.B ....
..11|..|F-3 7A.. ....|D-3 9F.. ....|C-4 C..F ....
....|..|--- .... ....|D-2 7F.. ....|--- .... ....
....|..|--- .... ....|--- .... ....|--- ...B ....
....|..|--- .... ....|R-- .... ....|--- .... ....
....|..|--- .... ....|D-4 GF3A ....|C-4 9..F ....
....|..|--- .... ....|--- .... ....|--- .... ....
....|..|--- .... ....|--- .... ....|C-4 H..F ....
....|..|--- .... ....|--- .... ....|--- .... ....
....|..|--- .... ....|D-5 2FBB ....|C-4 K..F ....
....|..|--- .... ....|--- .... ....|--- .... ....
....|..|--- .... ....|D-4 .... ....|C-4 H..F ....
....|..|--- .... ....|--- .... ....|--- .... ....
..12|..|E-3 2A.. ....|D-3 .... ....|C-4 A..F ....
....|..|--- .... ....|--- .... ....|--- .... ....
....|..|--- .... ....|D-5 2FBB ....|--- ...B ....
....|..|--- .... ....|--- .... ....|--- .... ....
....|..|--- .... ....|D-4 .... ....|C-4 9..F ....
....|..|--- .... ....|--- .... ....|--- .... ....
....|..|--- .... ....|D-3 .... ....|--- ...B ....
....|..|--- .... ....|--- .... ....|--- .... ....
....|..|--- .... ....|D-5 ...C ....|C-4 K..F ....
....|..|--- .... ....|--- .... ....|--- .... ....
....|..|--- .... ....|--- .... ....|C-4 L..F ....
....|..|--- .... ....|--- .... ....|--- .... ....
..2D|..|C-3 2C.. ....|A-4 DF.F ....|C-4 DF.F ....
....|..|--- .... ....|A-1 7F.. ....|A-2 2F.B ....
....|..|--- .... ....|A-3 9F.. ....|C-4 D..F ....
....|..|--- .... ....|A-1 7F.. ....|A-2 2F.B ....
....|..|--- .... ....|A-3 9F.. ....|C-4 L..F ....
....|..|--- .... ....|A-1 7F.. ....|A-2 2F.B ....
....|..|--- .... ....|A-3 9F.. ....|C-4 D..F ....
....|..|--- .... ....|A-1 7F.. ....|A-2 2F.B ....
....|..|--- .... ....|A-3 9F.. ....|C-4 C..F ....
....|..|--- .... ....|A-1 7F.. ....|--- .... ....
....|..|--- .... ....|--- .... ....|--- ...B ....
....|..|--- .... ....|R-- .... ....|--- .... ....
....|..|--- .... ....|D-4 GF3A ....|C-4 9..F ....
....|..|--- .... ....|--- .... ....|--- .... ....
....|..|--- .... ....|--- .... ....|C-4 H..F ....
....|..|--- .... ....|--- .... ....|--- .... ....
....|..|--- .... ....|A#4 2FBB ....|C-4 K..F ....
....|..|--- .... ....|--- .... ....|--- .... ....
....|..|--- .... ....|A#3 .... ....|C-4 H..F ....
....|..|--- .... ....|--- .... ....|--- .... ....
....|..|--- .... ....|A#2 .... ....|C-4 A..F ....
....|..|--- .... ....|--- .... ....|--- .... ....
....|..|--- .... ....|A#4 2FBB ....|--- ...B ....
....|..|--- .... ....|--- .... ....|--- .... ....
....|..|--- .... ....|A#3 .... ....|C-4 9..F ....
....|..|--- .... ....|--- .... ....|--- .... ....
....|..|--- .... ....|A#2 .... ....|--- ...B ....
....|..|--- .... ....|--- .... ....|--- .... ....
..28|..|D-3 48.. ....|A#4 ...C ....|C-4 K..F ....
....|..|--- .... ....|--- .... ....|--- .... ....
..24|..|E-3 .8.. ....|--- .... ....|C-4 L..F ....
....|..|--- .... ....|--- .... ....|--- .... ....

[Pattern53]
...F|..|G-3 6A.F ....|G-3 DF.F ....|C-4 DF.F ....
....|..|--- .... ....|G-2 7F.. ....|G-2 2F.B ....
....|..|--- .... ....|G-3 9F.. ....|C-4 D..F ....
....|..|--- .... ....|G-2 7F.. ....|G-2 2F.B ....
....|..|--- .... ....|G-3 9F.. ....|C-4 L..F ....
....|..|--- .... ....|G-2 7F.. ....|G-2 2F.B ....
....|..|--- .... ....|G-3 9F.. ....|C-4 D..F ....
....|..|--- .... ....|G-2 7F.. ....|G-2 2F.B ....
..11|..|F-4 G8.. ....|G-3 9F.. ....|C-4 C..F ....
....|..|--- .... ....|G-2 7F.. ....|--- .... ....
....|..|--- .... ....|--- .... ....|--- ...B ....
....|..|--- .... ....|R-- .... ....|--- .... ....
....|..|--- .... ....|D-4 GF3A ....|C-4 9..F ....
....|..|--- .... ....|--- .... ....|--- .... ....
....|..|--- .... ....|--- .... ....|C-4 H..F ....
....|..|--- .... ....|--- .... ....|--- .... ....
....|..|--- .... ....|D-5 2FBB ....|C-4 V..F ....
....|..|--- .... ....|--- .... ....|--- .... ....
....|..|--- .... ....|D-4 .... ....|C-4 H..F ....
....|..|--- .... ....|--- .... ....|--- .... ....
..12|..|E-4 2C.. ....|D-3 .... ....|C-4 A..F ....
....|..|--- .... ....|--- .... ....|--- .... ....
....|..|--- .... ....|D-5 2FBB ....|--- ...B ....
....|..|--- .... ....|--- .... ....|--- .... ....
....|..|--- .... ....|D-4 .... ....|C-4 9..F ....
....|..|--- .... ....|--- .... ....|--- .... ....
....|..|--- .... ....|D-3 .... ....|--- ...B ....
....|..|--- .... ....|--- .... ....|--- .... ....
....|..|--- .... ....|D-5 ...C ....|C-4 K..F ....
....|..|--- .... ....|--- .... ....|--- .... ....
....|..|--- .... ....|--- .... ....|C-4 L..F ....
....|..|--- .... ....|--- .... ....|--- .... ....
...F|..|G-5 GF.C 3110|D-4 DF.F ....|C-4 DF.F ....
....|..|--- .... ....|D-2 7F.. ....|D-2 2F.B ....
....|..|--- .... ....|D-4 9F.. ....|C-4 D..F ....
....|..|--- .... ....|D-2 7F.. ....|D-2 2F.B ....
....|..|--- .... ....|D-4 9F.. ....|C-4 L..F ....
....|..|--- .... ....|D-2 7F.. ....|D-2 2F.B ....
....|..|--- .... ....|D-4 9F.. ....|C-4 D..F ....
....|..|--- .... ....|D-2 7F.. ....|D-2 2F.B ....
....|..|--- .... ....|D-4 9F.. ....|C-4 C..F ....
....|..|--- .... ....|D-2 7F.. ....|--- .... ....
....|..|--- .... ....|--- .... ....|--- ...B ....
....|..|--- .... ....|R-- .... ....|--- .... ....
....|..|--- .... ....|D-4 GF3A ....|C-4 9..F ....
....|..|--- .... ....|--- .... ....|A#1 2F.B ....
....|..|--- .... ....|--- .... ....|C-4 H..F ....
....|..|--- .... ....|--- .... ....|A#1 2F.B ....
....|..|A#5 .FAA ....|A#4 2FBB ....|C-4 V..F ....
....|..|--- .... ....|--- .... ....|A#1 2F.B ....
....|..|D-6 .... ....|A#3 .... ....|C-4 H..F ....
....|..|--- .... ....|--- .... ....|A#1 2F.B ....
....|..|E-6 .... ....|A#2 .... ....|C-4 A..F ....
....|..|--- .... ....|--- .... ....|--- .... ....
....|..|A#5 ...8 ....|A#4 2FBB ....|--- ...B ....
....|..|--- .... ....|--- .... ....|--- .... ....
....|..|D-6 .... ....|A#3 .... ....|A#2 9..F ....
....|..|--- .... ....|--- .... ....|--- .... ....
....|..|E-6 ...6 ....|A#2 .... ....|--- ...B ....
....|..|--- .... ....|--- .... ....|--- .... ....
....|..|A#5 .... ....|A#4 ...C ....|C-4 K..F ....
....|..|--- .... ....|--- .... ....|--- .... ....
....|..|D-6 .... ....|--- .... ....|C-4 L..F ....
....|..|--- .... ....|--- .... ....|--- .... ....

[Pattern54]
..14|..|D-4 DF.F ....|D-3 7A.F ....|C-4 DF.F ....
..28|..|D-2 7A.. ....|D-2 .... ....|G-2 2F.B ....
..14|..|D-3 9F.. ....|D-3 .A.. ....|C-4 D..F ....
..28|..|D-2 7A.. ....|D-2 .... ....|G-2 2F.B ....
..14|..|D-3 9F.. ....|D-3 .A.. ....|C-4 L..F ....
..28|..|D-2 7A.. ....|D-2 .... ....|G-2 2F.B ....
..14|..|D-3 9F.. ....|D-3 .A.. ....|C-4 D..F ....
..28|..|D-2 7A.. ....|D-2 .... ....|G-2 2F.B ....
..14|..|D-3 9F.. ....|D-3 .A.. ....|C-4 C..F ....
..28|..|D-2 7A.. ....|--- .... ....|--- .... ....
....|..|--- .... ....|--- .... ....|--- ...B ....
....|..|R-- .... ....|R-- .... ....|--- .... ....
....|..|--- .... ....|D-4 GF3A ....|C-4 9..F ....
....|..|--- .... ....|--- .... ....|--- .... ....
....|..|--- .... ....|E-4 EF.F ....|C-4 H..F ....
....|..|--- .... ....|--- .... ....|--- .... ....
....|..|D-4 2FBF ....|C-4 H..B ....|C-4 V..F ....
....|..|--- .... ....|--- .... ....|--- .... ....
....|..|--- .... ....|C-4 C..F ....|C-4 H..F ....
....|..|--- .... ....|--- .... ....|--- .... ....
....|..|--- .... ....|E-4 E..B ....|C-4 A..F ....
....|..|--- .... ....|--- .... ....|--- .... ....
....|..|D-4 2FBB ....|C-4 A..F ....|--- ...B ....
....|..|--- .... ....|--- .... ....|--- .... ....
..28|..|D-2 7A.. ....|D-2 .A.. ....|C-4 9..F ....
....|..|R-- .... ....|--- .... ....|--- .... ....
..28|..|D-2 .A.. ....|--- .... ....|--- ...B ....
....|..|--- .... ....|--- .... ....|--- .... ....
..28|..|D-2 .A.. ....|--- .... ....|C-4 K..F ....
....|..|--- .... ....|--- .... ....|--- .... ....
....|..|--- .... ....|--- .... ....|C-4 L..F ....
....|..|--- .... ....|--- .... ....|--- .... ....
..14|..|D-4 DF.F ....|D-3 7A.F ....|C-4 DF.F ....
..28|..|D-2 7A.. ....|D-2 .... ....|D-2 2F.B ....
..14|..|D-3 9F.. ....|D-3 .A.. ....|C-4 D..F ....
..28|..|D-2 7A.. ....|D-2 .... ....|D-2 2F.B ....
..14|..|D-3 9F.. ....|D-3 .A.. ....|C-4 L..F ....
..28|..|D-2 7A.. ....|D-2 .... ....|D-2 2F.B ....
..14|..|D-3 9F.. ....|D-3 .A.. ....|C-4 D..F ....
..28|..|D-2 7A.. ....|D-2 .... ....|D-2 2F.B ....
..14|..|D-3 9F.. ....|D-3 .A.. ....|C-4 C..F ....
..28|..|D-2 7A.. ....|--- .... ....|--- .... ....
....|..|--- .... ....|--- .... ....|--- ...B ....
....|..|--- .... ....|R-- .... ....|--- .... ....
....|..|R-- .... ....|D-4 GF8A ....|C-4 9..F ....
....|..|--- .... ....|--- .... ....|A#1 2F.B ....
....|..|--- .... ....|E-4 EF.F ....|C-4 H..F ....
....|..|--- .... ....|--- .... ....|A#1 2F.B ....
....|..|A#3 2FB. ....|C-4 H..B ....|C-4 V..F ....
....|..|--- .... ....|--- .... ....|A#1 2F.B ....
....|..|--- .... ....|C-4 C..F ....|C-4 H..F ....
....|..|--- .... ....|--- .... ....|A#1 2F.B ....
....|..|--- .... ....|E-4 E..B ....|C-4 A..F ....
....|..|--- .... ....|--- .... ....|--- .... ....
....|..|A#3 .... ....|C-4 A..F ....|--- ...B ....
....|..|--- .... ....|--- .... ....|--- .... ....
..19|..|A#2 7A.. ....|A#2 .A.. ....|A#2 9..F ....
....|..|R-- .... ....|--- .... ....|--- .... ....
..33|..|A#1 .A.. ....|--- .... ....|--- ...B ....
....|..|--- .... ....|--- .... ....|--- .... ....
..33|..|A#1 .A.. ....|--- .... ....|C-4 K..F ....
....|..|--- .... ....|--- .... ....|--- .... ....
....|..|--- .... ....|--- .... ....|C-4 L..F ....
....|..|--- .... ....|--- .... ....|--- .... ....

[Pattern55]
....|..|F-5 2F.A ....|D-4 DF.F ....|C-4 DF.F ....
..28|..|D-5 ...7 ....|D-2 7A.. ....|D-2 2F.B ....
....|..|E-5 ...A ....|D-3 9F.. ....|C-4 D..F ....
..28|..|F-5 ...7 ....|D-2 7A.. ....|D-2 2F.B ....
..28|..|D-5 ...A ....|D-3 9F.. ....|D-2 2A.F ....
..28|..|--- .... ....|D-2 7A.. ....|D-2 2F.B ....
....|..|--- .... ....|D-3 9F.. ....|C-4 D..F ....
..28|..|--- .... ....|D-2 7A.. ....|D-2 2F.B ....
....|..|F-5 2F.A 3110|D-3 9F.. ....|C-4 C..F ....
..28|..|D-5 ...7 ....|D-2 7A.. ....|--- .... ....
....|..|E-5 ...A ....|--- .... ....|--- ...B ....
....|..|F-5 ...7 ....|R-- .... ....|--- .... ....
..28|..|D-5 ...A ....|D-4 GF3A ....|D-2 2A.F ....
....|..|--- .... ....|--- .... ....|--- .... ....
..28|..|--- .... 11.1|E-4 EF.F ....|C-4 HF.F ....
....|..|--- .... ....|--- .... ....|--- .... ....
..28|..|F-5 2F.A 3110|C-4 H..B ....|C-4 V..F ....
....|..|D-5 ...7 ....|--- .... ....|--- .... ....
....|..|E-5 ...A ....|C-4 C..F ....|C-4 H..F ....
....|..|F-5 ...7 ....|--- .... ....|--- .... ....
..28|..|D-5 ...A ....|E-4 E..B ....|D-2 2A.F ....
....|..|--- .... ....|--- .... ....|--- .... ....
..14|..|--- .... 21.1|D-4 2FBB ....|--- ...B ....
....|..|--- .... ....|--- .... ....|--- .... ....
..28|..|F-5 2FAA 3110|D-2 7A.. ....|C-4 9F.F ....
....|..|D-5 ...7 ....|R-- .... ....|--- .... ....
..28|..|E-5 ...A ....|D-2 .A.. ....|--- ...B ....
....|..|F-5 ...7 ....|--- .... ....|--- .... ....
..28|..|D-5 ...A ....|D-2 .A.. 11.1|D-2 KA.F ....
....|..|--- .... ....|--- .... ....|--- .... ....
....|..|--- .... 21.1|--- .... ....|C-4 LF.F ....
....|..|--- .... ....|--- .... ....|--- .... ....
....|..|F-5 2F.A 3110|D-4 DF.F ....|C-4 DF.F ....
..28|..|D-5 ...7 ....|D-2 7A.. ....|D-2 2F.B ....
....|..|E-5 ...A ....|D-3 9F.. ....|C-4 D..F ....
..28|..|F-5 ...7 ....|D-2 7A.. ....|D-2 2F.B ....
..28|..|D-5 ...A ....|D-3 9F.. ....|D-2 2A.F ....
..28|..|--- .... ....|D-2 7A.. ....|D-2 2F.B ....
....|..|--- .... 21.2|D-3 9F.. ....|C-4 D..F ....
..28|..|--- .... ....|D-2 7A.. ....|D-2 2F.B ....
....|..|F-5 2F.A 3110|D-3 9F.. ....|C-4 C..F ....
..28|..|D-5 ...7 ....|D-2 7A.. ....|--- .... ....
....|..|E-5 ...A ....|--- .... ....|--- ...B ....
....|..|F-5 ...7 ....|R-- .... ....|--- .... ....
..28|..|D-5 ...A ....|D-4 GF3B ....|D-2 2A.F ....
....|..|--- .... ....|--- .... ....|--- .... ....
....|..|--- .... 11.1|--- .... ....|C-4 HF.F ....
....|..|--- .... ....|--- .... ....|--- .... ....
....|..|F-5 2F.A 3110|D-4 2FBF ....|C-4 V..F ....
....|..|D-5 ...7 ....|--- .... ....|--- .... ....
....|..|E-5 ...A ....|--- .... ....|C-4 H..F ....
....|..|F-5 ...7 ....|--- .... ....|--- .... ....
..28|..|D-5 ...A ....|--- .... ....|D-2 2A.F ....
....|..|--- .... ....|--- .... ....|--- .... ....
....|..|--- .... 11.2|D-4 2FBB ....|--- ...B ....
....|..|--- .... ....|--- .... ....|--- .... ....
..28|..|F-5 2F.A 3110|D-2 7A.. ....|C-4 9F.F ....
....|..|D-5 ...7 ....|R-- .... ....|--- .... ....
..28|..|E-5 ...A ....|D-2 .A.. ....|--- ...B ....
....|..|F-5 ...7 ....|--- .... ....|--- .... ....
..28|..|D-5 ...A ....|D-2 .A.. 21.1|D-2 KA.F ....
....|..|--- .... ....|--- .... ....|--- .... ....
....|..|--- .... 21.1|--- .... ....|C-4 LF.F ....
....|..|--- .... ....|--- .... ....|--- .... ....

[Pattern56]
....|..|F-5 2F.A ....|A#4 DF.F ....|C-4 DF.F ....
..33|..|C-5 ...7 ....|A#1 7A.. ....|A#1 2F.B ....
....|..|E-5 ...A ....|A#4 9F.. ....|C-4 D..F ....
..33|..|F-5 ...7 ....|A#1 7A.. ....|A#1 2F.B ....
..28|..|C-5 ...A ....|A#4 9F.. ....|D-2 2A.F ....
..33|..|--- .... ....|A#1 7A.. ....|A#1 2F.B ....
....|..|--- .... ....|A#4 9F.. ....|C-4 D..F ....
..33|..|--- .... ....|A#1 7A.. ....|A#1 2F.B ....
....|..|F-5 2FAA 3110|A#4 9F.. ....|C-4 C..F ....
..33|..|C-5 ...7 ....|A#1 7A.. ....|--- .... ....
....|..|E-5 ...A ....|--- .... ....|--- ...B ....
....|..|F-5 ...7 ....|R-- .... ....|--- .... ....
..33|..|C-5 ...A ....|D-4 GF8A ....|A#1 2A.F ....
....|..|--- .... ....|--- .... ....|--- .... ....
..28|..|--- .... 11.1|E-4 EF.F ....|C-4 HF.F ....
....|..|--- .... ....|--- .... ....|--- .... ....
..65|..|F-5 2F.A 3110|C-4 H..B ....|C-4 V..F ....
....|..|C-5 ...7 ....|--- .... ....|--- .... ....
....|..|E-5 ...A ....|C-4 C..F ....|C-4 H..F ....
....|..|F-5 ...7 ....|--- .... ....|--- .... ....
..33|..|C-5 ...A ....|E-4 E..B ....|A#1 2A.F ....
....|..|--- .... ....|--- .... ....|--- .... ....
..65|..|--- .... 21.1|A#3 2FBB ....|--- ...B ....
....|..|--- .... ....|--- .... ....|--- .... ....
..19|..|F-5 2F.A 3110|A#2 7A.. ....|C-4 9F.F ....
....|..|C-5 ...7 ....|R-- .... ....|--- .... ....
..19|..|E-5 ...A ....|A#2 .A.. ....|--- ...B ....
....|..|F-5 ...7 ....|--- .... ....|--- .... ....
..19|..|C-5 ...A ....|A#2 .A.. 11.1|A#1 KA.F ....
....|..|--- .... ....|--- .... ....|--- .... ....
....|..|--- .... 21.1|--- .... ....|C-4 LF.F ....
....|..|--- .... ....|--- .... ....|--- .... ....
....|..|F-5 2FAA 3110|A#3 DF.F ....|C-4 DF.F ....
..19|..|C-5 ...7 ....|A#2 7A.. ....|A#2 2F.B ....
....|..|E-5 ...A ....|A#3 9F.. ....|C-4 D..F ....
..19|..|F-5 ...7 ....|A#2 7A.. ....|A#2 2F.B ....
..33|..|C-5 ...A ....|A#3 9F.. ....|A#1 2A.F ....
..19|..|--- .... ....|A#2 7A.. ....|A#2 2F.B ....
....|..|--- .... 21.2|A#3 9F.. ....|C-4 D..F ....
..19|..|--- .... ....|A#2 7A.. ....|A#2 2F.B ....
....|..|F-5 2F.A 3110|A#3 9F.. ....|C-4 C..F ....
..33|..|C-5 ...7 ....|A#1 7A.. ....|--- .... ....
....|..|E-5 ...A ....|--- .... ....|--- ...B ....
....|..|F-5 ...7 ....|R-- .... ....|--- .... ....
..33|..|C-5 ...A ....|D-4 GF8B ....|A#1 2A.F ....
....|..|--- .... ....|--- .... ....|--- .... ....
....|..|--- .... 11.1|--- .... ....|C-4 HF.F ....
....|..|--- .... ....|--- .... ....|--- .... ....
....|..|F-5 2F.A 3110|A#4 2FBF ....|C-4 V..F ....
....|..|C-5 ...7 ....|--- .... ....|--- .... ....
....|..|E-5 ...A ....|--- .... ....|C-4 H..F ....
....|..|F-5 ...7 ....|--- .... ....|--- .... ....
..33|..|C-5 ...A ....|--- .... ....|A#1 2A.F ....
....|..|--- .... ....|--- .... ....|--- .... ....
....|..|--- .... 11.2|A#4 2FBB ....|--- ...B ....
....|..|--- .... ....|--- .... ....|--- .... ....
..19|..|F-5 2F.A 3110|A#2 7A.. ....|C-4 9F.F ....
....|..|C-5 ...7 ....|R-- .... ....|--- .... ....
..19|..|E-5 ...A ....|A#2 .A.. ....|--- ...B ....
....|..|F-5 ...7 ....|--- .... ....|--- .... ....
..19|..|C-5 ...A ....|A#2 .A.. 21.1|A#1 KA.F ....
....|..|--- .... ....|--- .... ....|--- .... ....
....|..|--- .... 21.1|--- .... ....|C-4 LF.F ....
....|..|--- .... ....|--- .... ....|--- .... ....

[Pattern57]
....|..|F-5 2F.A ....|B-4 DF.F ....|C-4 DF.F ....
..30|..|B-4 ...7 ....|B-1 7A.. ....|B-1 2F.B ....
....|..|E-5 ...A ....|B-3 9F.. ....|C-4 D..F ....
..30|..|F-5 ...7 ....|B-1 7A.. ....|B-1 2F.B ....
..30|..|B-4 ...A ....|B-3 9F.. ....|B-1 2A.F ....
..30|..|--- .... ....|B-1 7A.. ....|B-1 2F.B ....
....|..|--- .... ....|B-3 9F.. ....|C-4 D..F ....
..30|..|--- .... ....|B-1 7A.. ....|B-1 2F.B ....
....|..|F-5 2F.A 3110|B-3 9F.. ....|C-4 C..F ....
..30|..|B-4 ...7 ....|B-1 7A.. ....|--- .... ....
....|..|E-5 ...A ....|--- .... ....|--- ...B ....
....|..|F-5 ...7 ....|R-- .... ....|--- .... ....
..30|..|B-4 ...A ....|B-4 GF6A ....|B-1 2A.F ....
....|..|--- .... ....|--- .... ....|--- .... ....
..28|..|--- .... 11.1|E-4 EF.F ....|C-4 HF.F ....
....|..|--- .... ....|--- .... ....|--- .... ....
..28|..|F-5 2F.A 3110|C-4 H..B ....|C-4 V..F ....
....|..|B-4 ...7 ....|--- .... ....|--- .... ....
....|..|E-5 ...A ....|C-4 C..F ....|C-4 H..F ....
....|..|F-5 ...7 ....|--- .... ....|--- .... ....
..30|..|B-4 ...A ....|E-4 E..B ....|B-1 2A.F ....
....|..|--- .... ....|--- .... ....|--- .... ....
..14|..|--- .... 21.1|D-4 2FBB ....|--- ...B ....
....|..|--- .... ....|--- .... ....|--- .... ....
..18|..|F-5 2FAA 3110|B-2 7A.. ....|C-4 9F.F ....
....|..|B-4 ...7 ....|R-- .... ....|--- .... ....
..18|..|E-5 ...A ....|B-2 .A.. ....|--- ...B ....
....|..|F-5 ...7 ....|--- .... ....|--- .... ....
..18|..|B-4 ...A ....|B-2 .A.. 11.1|B-1 KA.F ....
....|..|--- .... ....|--- .... ....|--- .... ....
....|..|--- .... 21.1|--- .... ....|C-4 LF.F ....
....|..|--- .... ....|--- .... ....|--- .... ....
....|..|F-5 2F.A 3110|B-4 DF.F ....|C-4 DF.F ....
..30|..|B-4 ...7 ....|B-1 7A.. ....|B-1 2F.B ....
....|..|E-5 ...A ....|B-3 9F.. ....|C-4 D..F ....
..30|..|F-5 ...7 ....|B-1 7A.. ....|B-1 2F.B ....
..30|..|B-4 ...A ....|B-3 9F.. ....|B-1 2A.F ....
..30|..|--- .... ....|B-1 7A.. ....|B-1 2F.B ....
....|..|--- .... 21.2|B-3 9F.. ....|C-4 D..F ....
..30|..|--- .... ....|B-1 7A.. ....|B-1 2F.B ....
....|..|F-5 2F.A 3110|B-3 9F.. ....|C-4 C..F ....
..30|..|B-4 ...7 ....|B-1 7A.. ....|--- .... ....
....|..|E-5 ...A ....|--- .... ....|--- ...B ....
....|..|F-5 ...7 ....|R-- .... ....|--- .... ....
..30|..|B-4 ...A ....|B-3 GF6B ....|B-1 2A.F ....
....|..|--- .... ....|--- .... ....|--- .... ....
....|..|--- .... 11.1|--- .... ....|C-4 HF.F ....
....|..|--- .... ....|--- .... ....|--- .... ....
....|..|F-5 2F.A 3110|B-4 2FBF ....|C-4 V..F ....
....|..|B-4 ...7 ....|--- .... ....|--- .... ....
....|..|E-5 ...A ....|--- .... ....|C-4 H..F ....
....|..|F-5 ...7 ....|--- .... ....|--- .... ....
..30|..|B-4 ...A ....|--- .... ....|B-1 2A.F ....
....|..|--- .... ....|--- .... ....|--- .... ....
....|..|--- .... 11.2|B-4 2FBB ....|--- ...B ....
....|..|--- .... ....|--- .... ....|--- .... ....
..18|..|F-5 2F.A 3110|B-2 7A.. ....|C-4 9F.F ....
....|..|B-4 ...7 ....|R-- .... ....|--- .... ....
..18|..|E-5 ...A ....|B-2 .A.. ....|--- ...B ....
....|..|F-5 ...7 ....|--- .... ....|--- .... ....
..18|..|B-4 ...A ....|B-2 .A.. 21.1|B-1 KA.F ....
....|..|--- .... ....|--- .... ....|--- .... ....
....|..|--- .... 21.1|--- .... ....|C-4 LF.F ....
....|..|--- .... ....|--- .... ....|--- .... ....

[Pattern58]
....|..|F-5 2F.A ....|A#4 DF.F ....|C-4 DF.F ....
..33|..|A#4 ...7 ....|A#1 7A.. ....|A#2 2F.B ....
....|..|E-5 ...A ....|A#4 9F.. ....|C-4 D..F ....
..33|..|F-5 ...7 ....|A#1 7A.. ....|A#1 2F.B ....
..33|..|A#4 ...A ....|A#4 9F.. ....|A#1 2A.F ....
..33|..|--- .... ....|A#1 7A.. ....|A#1 2F.B ....
....|..|--- .... ....|A#4 9F.. ....|C-4 D..F ....
..33|..|--- .... ....|A#1 7A.. ....|A#1 2F.B ....
....|..|F-5 2F.A 3110|A#4 9F.. ....|C-4 C..F ....
..33|..|A#4 ...7 ....|A#1 7A.. ....|--- .... ....
....|..|E-5 ...A ....|--- .... ....|--- ...B ....
....|..|F-5 ...7 ....|R-- .... ....|--- .... ....
..33|..|A#4 ...A ....|A#4 GF4A ....|A#1 2A.F ....
....|..|--- .... ....|--- .... ....|--- .... ....
..28|..|--- .... 11.1|E-4 EF.F ....|C-4 HF.F ....
....|..|--- .... ....|--- .... ....|--- .... ....
..28|..|F-5 2F.A 3110|C-4 H..B ....|C-4 V..F ....
....|..|A#4 ...7 ....|--- .... ....|--- .... ....
....|..|E-5 ...A ....|C-4 C..F ....|C-4 H..F ....
....|..|F-5 ...7 ....|--- .... ....|--- .... ....
..33|..|A#4 ...A ....|E-4 E..B ....|A#1 2A.F ....
....|..|--- .... ....|--- .... ....|--- .... ....
..14|..|--- .... 21.1|A#4 2FBB ....|--- ...B ....
....|..|--- .... ....|--- .... ....|--- .... ....
..19|..|F-5 2F.A 3110|A#2 7A.. ....|C-4 9F.F ....
....|..|A#4 ...7 ....|R-- .... ....|--- .... ....
...D|..|E-5 ...A ....|A#3 .A.. ....|--- ...B ....
....|..|F-5 ...7 ....|--- .... ....|--- .... ....
..33|..|A#4 ...A ....|A#2 .A.. 11.1|A#1 KA.F ....
....|..|--- .... ....|--- .... ....|--- .... ....
....|..|--- .... 21.1|--- .... ....|C-4 LF.F ....
....|..|--- .... ....|--- .... ....|--- .... ....
....|..|F-5 2F.A 3110|D-4 DF.F ....|C-4 DF.F ....
..19|..|A#4 ...7 ....|A#2 7A.. ....|A#2 2F.B ....
....|..|E-5 ...A ....|D-3 9F.. ....|C-4 D..F ....
..19|..|F-5 ...7 ....|A#2 7A.. ....|A#1 2F.B ....
..33|..|A#4 ...A ....|D-3 9F.. ....|A#1 2A.F ....
..19|..|--- .... ....|A#2 7A.. ....|A#1 2F.B ....
....|..|--- .... 21.2|D-3 9F.. ....|C-4 D..F ....
..19|..|--- .... ....|A#2 7A.. ....|A#1 2F.B ....
....|..|F-5 2F.A 3110|D-3 9F.. ....|C-4 C..F ....
..19|..|A#4 ...7 ....|A#2 7A.. ....|--- .... ....
....|..|E-5 ...A ....|--- .... ....|--- ...B ....
....|..|F-5 ...7 ....|R-- .... ....|--- .... ....
..33|..|A#4 ...A ....|A#4 GF4B ....|A#1 2A.F ....
....|..|--- .... ....|--- .... ....|--- .... ....
....|..|--- .... 11.1|--- .... ....|C-4 HF.F ....
....|..|--- .... ....|--- .... ....|--- .... ....
....|..|F-5 2F.A 3110|A#4 2FBF ....|C-4 V..F ....
....|..|A#4 ...7 ....|--- .... ....|--- .... ....
....|..|E-5 ...A ....|--- .... ....|C-4 H..F ....
....|..|F-5 ...7 ....|--- .... ....|--- .... ....
..33|..|A#4 ...A ....|--- .... ....|A#1 2A.F ....
....|..|--- .... ....|--- .... ....|--- .... ....
....|..|--- .... 11.2|A#4 2FBB ....|--- ...B ....
....|..|--- .... ....|--- .... ....|--- .... ....
..33|..|F-5 2F.A 3110|A#1 7A.. ....|C-4 9F.F ....
....|..|A#4 ...7 ....|R-- .... ....|--- .... ....
..19|..|E-5 ...A ....|A#2 .A.. ....|--- ...B ....
....|..|F-5 ...7 ....|--- .... ....|--- .... ....
..33|..|A#4 ...A ....|A#1 .A.. 21.1|A#1 KA.F ....
....|..|--- .... ....|--- .... ....|--- .... ....
....|..|--- .... 21.1|--- .... ....|C-4 LF.F ....
....|..|--- .... ....|--- .... ....|--- .... ....

[Pattern59]
....|..|--- .... ....|--- .... ....|--- .... ....
....|..|--- .... ....|--- .... ....|--- .... ....
....|..|--- .... ....|--- .... ....|--- .... ....
....|..|--- .... ....|--- .... ....|--- .... ....
....|..|--- .... ....|--- .... ....|--- .... ....
....|..|--- .... ....|--- .... ....|--- .... ....
....|..|--- .... ....|--- .... ....|--- .... ....
....|..|--- .... ....|--- .... ....|--- .... ....
....|..|--- .... ....|--- .... ....|--- .... ....
....|..|--- .... ....|--- .... ....|--- .... ....
....|..|--- .... ....|--- .... ....|--- .... ....
....|..|--- .... ....|--- .... ....|--- .... ....
....|..|--- .... ....|--- .... ....|--- .... ....
....|..|--- .... ....|--- .... ....|--- .... ....
....|..|--- .... ....|--- .... ....|--- .... ....
....|..|--- .... ....|--- .... ....|--- .... ....

[Pattern60]
....|..|F-5 2F.A ....|A-4 DF.F ....|C-4 DF.F ....
..1B|..|D-5 ...7 ....|A-2 7A.. ....|A-1 2F.B ....
....|..|E-5 ...A ....|A-4 9F.. ....|C-4 D..F ....
..1B|..|F-5 ...7 ....|A-2 7A.. ....|A-1 2F.B ....
..1B|..|D-5 ...A ....|A-4 9F.. ....|A-2 2A.F ....
..1B|..|--- .... ....|A-2 7A.. ....|A-1 2F.B ....
....|..|--- .... ....|A-4 9F.. ....|C-4 D..F ....
..1B|..|--- .... ....|A-2 7A.. ....|A-1 2F.B ....
....|..|F-5 2F.A 3110|A-4 9F.. ....|C-4 C..F ....
..1B|..|D-5 ...7 ....|A-2 7A.. ....|--- .... ....
....|..|E-5 ...A ....|--- .... ....|--- ...B ....
....|..|F-5 ...7 ....|R-- .... ....|--- .... ....
..1B|..|D-5 ...A ....|A-4 GF5A ....|A-2 2A.F ....
....|..|--- .... ....|--- .... ....|--- .... ....
..28|..|--- .... 11.1|E-4 EF.F ....|C-4 HF.F ....
....|..|--- .... ....|--- .... ....|--- .... ....
..28|..|F-5 2F.A 3110|C-4 H..B ....|C-4 V..F ....
....|..|D-5 ...7 ....|--- .... ....|--- .... ....
....|..|E-5 ...A ....|C-4 C..F ....|C-4 H..F ....
....|..|F-5 ...7 ....|--- .... ....|--- .... ....
..1B|..|D-5 ...A ....|E-4 E..B ....|A-2 2A.F ....
....|..|--- .... ....|--- .... ....|--- .... ....
..14|..|--- .... 21.1|A-4 2FBB ....|--- ...B ....
....|..|--- .... ....|--- .... ....|--- .... ....
..36|..|F-5 2FAA 3110|A-2 7C.. ....|C-4 9F.F ....
....|..|D-5 ...7 ....|R-- .... ....|--- .... ....
..36|..|E-5 ...A ....|A-2 .C.. ....|--- ...B ....
....|..|F-5 ...7 ....|--- .... ....|--- .... ....
..1B|..|D-5 ...A ....|A-2 .A.. ....|A-2 KA.F ....
....|..|--- .... ....|--- .... ....|--- .... ....
....|..|--- .... 21.1|--- .... ....|C-4 LF.F ....
....|..|--- .... ....|--- .... ....|--- .... ....
....|..|F-5 2F.A 3110|A-4 DF.F ....|C-4 DF.F ....
..1B|..|D-5 ...7 ....|A-2 7A.. ....|A-2 2F.B ....
....|..|E-5 ...A ....|A-4 9F.. ....|C-4 D..F ....
..1B|..|F-5 ...7 ....|A-2 7A.. ....|A-2 2F.B ....
..1B|..|D-5 ...A ....|A-4 9F.. ....|A-2 2A.F ....
..1B|..|--- .... ....|A-2 7A.. ....|A-2 2F.B ....
....|..|--- .... 21.2|A-4 9F.. ....|C-4 D..F ....
..1B|..|--- .... ....|A-2 7A.. ....|A-2 2F.B ....
....|..|F-5 2F.A 3110|A-4 9F.. ....|C-4 C..F ....
..1B|..|D-5 ...7 ....|A-2 7A.. ....|--- .... ....
....|..|E-5 ...A ....|--- .... ....|--- ...B ....
....|..|F-5 ...7 ....|R-- .... ....|--- .... ....
..1B|..|D-5 ...A ....|A-4 GF5B ....|A-2 2A.F ....
....|..|--- .... ....|--- .... ....|--- .... ....
....|..|--- .... 11.1|--- .... ....|C-4 HF.F ....
....|..|--- .... ....|--- .... ....|--- .... ....
....|..|F-5 2F.A 3110|A-4 2FBF ....|C-4 V..F ....
....|..|D-5 ...7 ....|--- .... ....|--- .... ....
....|..|E-5 ...A ....|--- .... ....|C-4 H..F ....
....|..|F-5 ...7 ....|--- .... ....|--- .... ....
..1B|..|D-5 ...A ....|--- .... ....|A-2 2A.F ....
....|..|--- .... ....|--- .... ....|--- .... ....
....|..|--- .... 11.2|A-4 2FBB ....|--- ...B ....
....|..|--- .... ....|--- .... ....|--- .... ....
..1B|..|F-5 2F.A 3110|A-2 7A.. ....|C-4 9F.F ....
....|..|D-5 ...7 ....|R-- .... ....|--- .... ....
..1B|..|E-5 ...A ....|A-2 .A.. ....|--- ...B ....
....|..|F-5 ...7 ....|--- .... ....|--- .... ....
..1B|..|D-5 ...A ....|A-1 .A.. 21.1|A-2 KA.F ....
....|..|--- .... ....|--- .... ....|--- .... ....
....|..|--- .... 21.1|--- .... ....|C-4 LF.F ....
....|..|--- .... ....|--- .... ....|--- .... ....

