[Module]
VortexTrackerII=0
Version=3.5
Title=1d-2me,3me-4p,5m[3]
Author=oisee ^ 4d 29.05.2010
NoteTable=4
ChipFreq=1750000
Speed=4
PlayOrder=L0,1,2,1,4,5,6,5,8,9,10,11,12,13,14,15,16,17,18,19,20,13,14,15,24,25,26,27,28,17,18,19,32,33,34,35,36,17,18,19,40,25,26,27,44,13,14,15,48


[Ornament1]
L0,0,5,5,8,8

[Ornament2]
L0,0,5,5,7,7

[Ornament3]
L0,0,5,5,9,9

[Ornament4]
L0,0,3,3,7,7

[Ornament5]
L0,0,4,4,9,9

[Ornament6]
L0,0,4,4,7,7


[Sample1]
TnE +000_ +00_ F_
TnE +000_ +00_ F_
TnE +000_ +00_ F_
TnE +000_ +00_ D_
TnE +000_ +00_ B_
TnE +000_ +00_ B_ L

[Sample2]
TnE +000_ +00_ F_ L

[Sample3]
TnE +001_ +00_ F_
TnE +002_ +00_ F_
TnE +001_ +00_ E_
TnE +002_ +00_ E_
TnE +000_ +00_ E_ L
TnE -001_ +00_ E_
TnE -002_ +00_ E_
TnE -001_ +00_ E_
TnE +000_ +00_ E_
TnE +001_ +00_ E_
TnE +002_ +00_ E_
TnE +001_ +00_ E_

[Sample4]
TnE +002_ +00_ D_
TnE +002_ +00_ D_
TnE +002_ +00_ C_
TnE +002_ +00_ B_
TnE +002_ +00_ A_ L
TnE +002_ +00_ A_
TnE +002_ +00_ A_
TnE +002_ +00_ A_
TnE +002_ +00_ A_
TnE +002_ +00_ A_
TnE +002_ +00_ A_
TnE +002_ +00_ A_

[Sample5]
TnE +000_ +00_ F_
TnE +000_ +00_ F_
tne +000_ +00_ 0_ L

[Sample6]
TnE -001_ +00_ F_ L

[Sample7]
TnE +006_ +00_ F_ L

[Sample8]
tNe +000_ +00_ F_
tNe +000_ +00_ B_
tNe +000_ +00_ 7_
tNe +000_ +00_ 6- L

[Sample9]
TnE +080_ +00_ F_
TnE +100_ +00_ E_
TnE +180_ +00_ E_
TnE +200_ +00_ E_
TnE +240_ +00_ D_
TnE +280_ +00_ D_
TnE +2C0_ +00_ D_
TnE +300_ +00_ C_
TnE +300_ +00_ C_
TnE +340_ +00_ C_
TnE +340_ +00_ C_
TnE +380_ +00_ B_
TnE +380_ +00_ B_
TnE +400_ +00_ B_
TnE +400_ +00_ B_
TnE +480_ +00_ A_
TnE +500_ +00_ 9_
TnE +580_ +00_ 7_
TnE +600_ +00_ 4_
TnE +680_ +00_ 1_
TnE +000_ +00_ 0_ L

[Sample10]
Tne +1C0_ +00_ F_
Tne +280_ +00_ E_
Tne +380_ +00_ C_
Tne +440_ +00_ A_
Tne +480_ +00_ 8_
TnE +000_ +00_ 0_ L

[Sample11]
TNe +200_ -0A_ F_
tNe +000_ +0F_ A_
TNe +200_ -07_ E_
tNe +000_ +0E_ B- L

[Sample12]
TNE +0A0_ +05_ F_
TNE +140_ +02_ D_
TNE +140_ +02_ B_
TNE +100_ +00_ A_ L
TNE +140_ +00_ A_
TNE +200_ +00_ A-

[Sample13]
Tne +200_ +00_ F_
Tne +2C0_ +00_ F_
Tne +380_ +00_ E_
Tne +500_ +00_ C_
Tne +520_ +00_ 9_
tne +000_ +00_ 0_ L

[Sample14]
TNE -100_ +00_ F_
TNE -100_ +00_ D_
TNE -100_ +00_ A_
TNE -100_ +00_ 5_
tne +000_ +00_ 0_ L

[Sample15]
TNE -100_ +00_ 5_
TNE -100_ +00_ 8_
TNE -100_ +00_ B_
TNE -100_ +00_ F_
TNe -100_ +00_ 9- L

[Sample16]
TnE +000_ +00_ C_
TnE +000_ +00_ E_
TnE +000_ +00_ F_
TnE +000_ +00_ F_
TnE +000_ +00_ E_
TnE +000_ +00_ D_
TnE +000_ +00_ C_
TnE +000_ +00_ C_ L
TnE +001_ +00_ C_
TnE +002_ +00_ C_
TnE +003_ +00_ C_
TnE +001_ +00_ C_
TnE +000_ +00_ C_
TnE -001_ +00_ C_
TnE -002_ +00_ C_
TnE -003_ +00_ C_
TnE -001_ +00_ C_
TnE +000_ +00_ C_
TnE +000_ +00_ C_

[Sample17]
Tne +1C0_ +00_ F_
Tne +280_ +00_ D_
Tne +380_ +00_ 7_
TNE +000_ +00_ 0_ L

[Sample18]
TnE -00C_ +00_ 0_ L

[Sample19]
TNe +000_ +00_ F_
TNe +000_ +00_ C_
TNe +000_ +00_ 6_
TNe +000_ +01_ A- L

[Sample20]
TNE +140_ +00_ F_
tNE +000_ +00_ B- L

[Sample21]
tNE +000_ +00_ D_
tNE +000_ +00_ 8_
tNE +000_ +00_ 1_
TNE +000_ +00_ 0_ L

[Sample22]
TnE +000_ +00_ D_ L
TnE +000_ +00_ D_
tne +000_ +00_ 9_
tne +000_ +00_ 9_
TnE +000_ +00_ D_
TnE +000_ +00_ D_
tne +000_ +00_ 9_
tne +000_ +00_ 9_
TnE +000_ +00_ D_
TnE +000_ +00_ D_
TnE +000_ +00_ D_
TnE +000_ +00_ D_
TnE +000_ +00_ D_
TnE +000_ +00_ D_
tne +000_ +00_ 9_
tne +000_ +00_ 9_

[Sample23]
TnE +000_ +00_ F_ L
TnE +010_ +01_ F_
TnE +010_ +01_ F_
TnE +010_ +01_ F_
TnE +010_ +01_ F_
TnE +000_ +00_ F_
TnE +000_ +00_ F_
TnE -010_ -01_ F_
TnE -010_ -01_ F_
TnE -010_ -01_ F_
TnE -010_ -01_ F_
TnE +000_ +00_ F_

[Sample24]
TNe +000_ -01_ C_
TNe +000_ -01_ D_
TNe +000_ -01_ E_
TNe +000_ -01_ F_
TNe +000_ -01_ F_
TNe +000_ -01_ F_
TNe +000_ -01_ F_
TNe +000_ -01_ F_
TNe +000_ -01_ E_
TNe +000_ -01_ E_
TNe +000_ -01_ E_
TNe +000_ -01_ F_
TNe +000_ -01_ F_ L

[Sample25]
TNE +000_ +00_ F_
TNE +000_ +00_ F_ L
TNE +000_ +00_ F_
TNE +000_ +00_ F_
TNE +000_ +00_ F-

[Sample26]
tne +000_ +00_ 0_ L

[Sample27]
TnE +100_ +05_ F_
TnE +200_ +02_ A_
TnE +300_ +02_ 7_
TNE +400_ +00_ 3- L

[Sample28]
tne +000_ +00_ 0_ L

[Sample29]
tnE +000_ +00_ 0_ L

[Sample30]
TNE +000_ +00_ C+ L

[Sample31]
TNe +1C0_ +00_ F_
Tne +280_ +00_ E_
Tne +380_ +00_ C_
Tne +440_ +00_ A_
Tne +480_ +00_ 8_
TnE +000_ +00_ 0_ L

[Pattern0]
....|..|--- .... ....|A-4 2F1F ....|--- .... ....
....|..|--- .... ....|--- .... ....|--- .... ....
....|..|--- .... ....|R-- .... ....|--- .... ....
....|..|--- .... ....|--- .... ....|--- .... ....
....|..|--- .... ....|A-4 2F1F ....|--- .... ....
....|..|--- .... ....|--- .... ....|--- .... ....
....|..|--- .... ....|R-- .... ....|--- .... ....
....|..|--- .... ....|--- .... ....|--- .... ....
....|..|--- .... ....|--- .... ....|--- .... ....
....|..|--- .... ....|--- .... ....|--- .... ....
....|..|--- .... ....|A-4 2F1F ....|--- .... ....
....|..|--- .... ....|--- .... ....|--- .... ....
....|..|--- .... ....|A-4 2F1A ....|--- .... ....
....|..|--- .... ....|--- .... ....|--- .... ....
....|..|--- .... ....|R-- .... ....|--- .... ....
....|..|--- .... ....|--- .... ....|--- .... ....
....|..|--- .... ....|A-4 2F1F ....|--- .... ....
....|..|--- .... ....|--- .... ....|--- .... ....
....|..|--- .... ....|R-- .... ....|--- .... ....
....|..|--- .... ....|--- .... ....|--- .... ....
....|..|--- .... ....|--- .... ....|--- .... ....
....|..|--- .... ....|--- .... ....|--- .... ....
....|..|--- .... ....|A-4 2F1F ....|--- .... ....
....|..|--- .... ....|--- .... ....|--- .... ....
....|..|--- .... ....|A-4 2F17 ....|--- .... ....
....|..|--- .... ....|--- .... ....|--- .... ....
....|..|--- .... ....|A-4 2F1F ....|--- .... ....
....|..|--- .... ....|--- .... ....|--- .... ....
....|..|--- .... ....|A-4 2F17 ....|--- .... ....
....|..|--- .... ....|--- .... ....|--- .... ....
....|..|--- .... ....|A-4 2F1F ....|--- .... ....
....|..|--- .... ....|--- .... ....|--- .... ....
....|..|--- .... ....|A-4 2F2F ....|--- .... ....
....|..|--- .... ....|--- .... ....|--- .... ....
....|..|--- .... ....|A-4 2F17 ....|--- .... ....
....|..|--- .... ....|--- .... ....|--- .... ....
....|..|--- .... ....|A-4 2F2F ....|--- .... ....
....|..|--- .... ....|--- .... ....|--- .... ....
....|..|--- .... ....|A-4 2F1A ....|--- .... ....
....|..|--- .... ....|--- .... ....|--- .... ....
....|..|--- .... ....|A-4 2F17 ....|--- .... ....
....|..|--- .... ....|--- .... ....|--- .... ....
....|..|--- .... ....|A-4 2F2F ....|--- .... ....
....|..|--- .... ....|--- .... ....|--- .... ....
....|..|--- .... ....|A-4 2F2A ....|--- .... ....
....|..|--- .... ....|--- .... ....|--- .... ....
....|..|--- .... ....|A-4 2F17 ....|--- .... ....
....|..|--- .... ....|--- .... ....|--- .... ....
....|..|--- .... ....|A-4 2F2F ....|--- .... ....
....|..|--- .... ....|--- .... ....|--- .... ....
....|..|--- .... ....|A-4 2F17 ....|--- .... ....
....|..|--- .... ....|--- .... ....|--- .... ....
....|..|--- .... ....|R-- .... ....|--- .... ....
....|..|--- .... ....|--- .... ....|--- .... ....
....|..|--- .... ....|A-4 2F2F ....|--- .... ....
....|..|--- .... ....|--- .... ....|--- .... ....
....|..|--- .... ....|A-4 2F27 ....|--- .... ....
....|..|--- .... ....|--- .... ....|--- .... ....
....|..|--- .... ....|A-4 2F2F ....|--- .... ....
....|..|--- .... ....|--- .... ....|--- .... ....
....|..|--- .... ....|A-4 2F27 ....|--- .... ....
....|..|--- .... ....|--- .... ....|--- .... ....
....|..|--- .... ....|A-4 2F2F ....|--- .... ....
....|..|--- .... ....|--- .... ....|--- .... ....

[Pattern1]
....|..|--- .... ....|G-4 2F3F ....|--- .... ....
....|..|--- .... ....|--- .... ....|--- .... ....
....|..|--- .... ....|A-4 2F27 ....|--- .... ....
....|..|--- .... ....|--- .... ....|--- .... ....
....|..|--- .... ....|G-4 2F3F ....|--- .... ....
....|..|--- .... ....|--- .... ....|--- .... ....
....|..|--- .... ....|A-4 2F2A ....|--- .... ....
....|..|--- .... ....|--- .... ....|--- .... ....
....|..|--- .... ....|A-4 2F27 ....|--- .... ....
....|..|--- .... ....|--- .... ....|--- .... ....
....|..|--- .... ....|G-4 2F3F ....|--- .... ....
....|..|--- .... ....|--- .... ....|--- .... ....
....|..|--- .... ....|G-4 2F3A ....|--- .... ....
....|..|--- .... ....|--- .... ....|--- .... ....
....|..|--- .... ....|A-4 2F27 ....|--- .... ....
....|..|--- .... ....|--- .... ....|--- .... ....
....|..|--- .... ....|G-4 2F3F ....|--- .... ....
....|..|--- .... ....|--- .... ....|--- .... ....
....|..|--- .... ....|A-4 2F27 ....|--- .... ....
....|..|--- .... ....|--- .... ....|--- .... ....
....|..|--- .... ....|R-- .... ....|--- .... ....
....|..|--- .... ....|--- .... ....|--- .... ....
....|..|--- .... ....|G-4 2F3F ....|--- .... ....
....|..|--- .... ....|--- .... ....|--- .... ....
....|..|--- .... ....|G-4 2F37 ....|--- .... ....
....|..|--- .... ....|--- .... ....|--- .... ....
....|..|--- .... ....|G-4 2F3F ....|--- .... ....
....|..|--- .... ....|--- .... ....|--- .... ....
....|..|--- .... ....|G-4 2F37 ....|--- .... ....
....|..|--- .... ....|--- .... ....|--- .... ....
....|..|--- .... ....|G-4 2F3F ....|--- .... ....
....|..|--- .... ....|--- .... ....|--- .... ....
....|..|--- .... ....|G-4 2F4F ....|--- .... ....
....|..|--- .... ....|--- .... ....|--- .... ....
....|..|--- .... ....|G-4 2F37 ....|--- .... ....
....|..|--- .... ....|--- .... ....|--- .... ....
....|..|--- .... ....|G-4 2F4F ....|--- .... ....
....|..|--- .... ....|--- .... ....|--- .... ....
....|..|--- .... ....|G-4 2F3A ....|--- .... ....
....|..|--- .... ....|--- .... ....|--- .... ....
....|..|--- .... ....|G-4 2F37 ....|--- .... ....
....|..|--- .... ....|--- .... ....|--- .... ....
....|..|--- .... ....|G-4 2F4F ....|--- .... ....
....|..|--- .... ....|--- .... ....|--- .... ....
....|..|--- .... ....|G-4 2F4A ....|--- .... ....
....|..|--- .... ....|--- .... ....|--- .... ....
....|..|--- .... ....|G-4 2F37 ....|--- .... ....
....|..|--- .... ....|--- .... ....|--- .... ....
....|..|--- .... ....|G-4 2F4F ....|--- .... ....
....|..|--- .... ....|--- .... ....|--- .... ....
....|..|--- .... ....|G-4 2F37 ....|--- .... ....
....|..|--- .... ....|--- .... ....|--- .... ....
....|..|--- .... ....|R-- .... ....|--- .... ....
....|..|--- .... ....|--- .... ....|--- .... ....
....|..|--- .... ....|G-4 2F4F ....|--- .... ....
....|..|--- .... ....|--- .... ....|--- .... ....
....|..|--- .... ....|G-4 2F47 ....|--- .... ....
....|..|--- .... ....|--- .... ....|--- .... ....
....|..|--- .... ....|G-4 2F4F ....|--- .... ....
....|..|--- .... ....|--- .... ....|--- .... ....
....|..|--- .... ....|G-4 2F47 ....|--- .... ....
....|..|--- .... ....|--- .... ....|--- .... ....
....|..|--- .... ....|G-4 2F4F ....|--- .... ....
....|..|--- .... ....|--- .... ....|--- .... ....

[Pattern2]
....|..|--- .... ....|A-4 2F1F ....|--- .... ....
....|..|--- .... ....|--- .... ....|--- .... ....
....|..|--- .... ....|G-4 2F47 ....|--- .... ....
....|..|--- .... ....|--- .... ....|--- .... ....
....|..|--- .... ....|A-4 2F1F ....|--- .... ....
....|..|--- .... ....|--- .... ....|--- .... ....
....|..|--- .... ....|G-4 2F4A ....|--- .... ....
....|..|--- .... ....|--- .... ....|--- .... ....
....|..|--- .... ....|G-4 2F47 ....|--- .... ....
....|..|--- .... ....|--- .... ....|--- .... ....
....|..|--- .... ....|A-4 2F1F ....|--- .... ....
....|..|--- .... ....|--- .... ....|--- .... ....
....|..|--- .... ....|A-4 2F1A ....|--- .... ....
....|..|--- .... ....|--- .... ....|--- .... ....
....|..|--- .... ....|G-4 2F47 ....|--- .... ....
....|..|--- .... ....|--- .... ....|--- .... ....
....|..|--- .... ....|A-4 2F1F ....|--- .... ....
....|..|--- .... ....|--- .... ....|--- .... ....
....|..|--- .... ....|G-4 2F47 ....|--- .... ....
....|..|--- .... ....|--- .... ....|--- .... ....
....|..|--- .... ....|R-- .... ....|--- .... ....
....|..|--- .... ....|--- .... ....|--- .... ....
....|..|--- .... ....|A-4 2F1F ....|--- .... ....
....|..|--- .... ....|--- .... ....|--- .... ....
....|..|--- .... ....|A-4 2F17 ....|--- .... ....
....|..|--- .... ....|--- .... ....|--- .... ....
....|..|--- .... ....|A-4 2F1F ....|--- .... ....
....|..|--- .... ....|--- .... ....|--- .... ....
....|..|--- .... ....|A-4 2F17 ....|--- .... ....
....|..|--- .... ....|--- .... ....|--- .... ....
....|..|--- .... ....|A-4 2F1F ....|--- .... ....
....|..|--- .... ....|--- .... ....|--- .... ....
....|..|--- .... ....|A-4 2F2F ....|--- .... ....
....|..|--- .... ....|--- .... ....|--- .... ....
....|..|--- .... ....|A-4 2F17 ....|--- .... ....
....|..|--- .... ....|--- .... ....|--- .... ....
....|..|--- .... ....|A-4 2F2F ....|--- .... ....
....|..|--- .... ....|--- .... ....|--- .... ....
....|..|--- .... ....|A-4 2F1A ....|--- .... ....
....|..|--- .... ....|--- .... ....|--- .... ....
....|..|--- .... ....|A-4 2F17 ....|--- .... ....
....|..|--- .... ....|--- .... ....|--- .... ....
....|..|--- .... ....|A-4 2F2F ....|--- .... ....
....|..|--- .... ....|--- .... ....|--- .... ....
....|..|--- .... ....|A-4 2F2A ....|--- .... ....
....|..|--- .... ....|--- .... ....|--- .... ....
....|..|--- .... ....|A-4 2F17 ....|--- .... ....
....|..|--- .... ....|--- .... ....|--- .... ....
....|..|--- .... ....|A-4 2F2F ....|--- .... ....
....|..|--- .... ....|--- .... ....|--- .... ....
....|..|--- .... ....|A-4 2F17 ....|--- .... ....
....|..|--- .... ....|--- .... ....|--- .... ....
....|..|--- .... ....|R-- .... ....|--- .... ....
....|..|--- .... ....|--- .... ....|--- .... ....
....|..|--- .... ....|A-4 2F2F ....|--- .... ....
....|..|--- .... ....|--- .... ....|--- .... ....
....|..|--- .... ....|A-4 2F27 ....|--- .... ....
....|..|--- .... ....|--- .... ....|--- .... ....
....|..|--- .... ....|A-4 2F2F ....|--- .... ....
....|..|--- .... ....|--- .... ....|--- .... ....
....|..|--- .... ....|A-4 2F27 ....|--- .... ....
....|..|--- .... ....|--- .... ....|--- .... ....
....|..|--- .... ....|A-4 2F2F ....|--- .... ....
....|..|--- .... ....|--- .... ....|--- .... ....

[Pattern4]
 D-4|..|--- .... ....|D-3 2C.F ....|--- .... ....
....|..|--- .... ....|A-4 2F1F ....|--- .... ....
 C-3|..|--- .... ....|C-3 2C.F ....|--- .... ....
....|..|--- .... ....|R-- .... ....|--- .... ....
 D-4|..|--- .... ....|D-3 2C.F ....|--- .... ....
....|..|--- .... ....|A-4 2F1F ....|--- .... ....
 C-3|..|--- .... ....|C-3 2C.F ....|--- .... ....
....|..|--- .... ....|R-- .... ....|--- .... ....
 D-4|..|--- .... ....|D-3 2C.F ....|--- .... ....
....|..|--- .... ....|--- .... ....|--- .... ....
 C-3|..|--- .... ....|C-3 2C.F ....|--- .... ....
....|..|--- .... ....|A-4 2F1F ....|--- .... ....
 D-4|..|--- .... ....|D-3 2C.F ....|--- .... ....
....|..|--- .... ....|A-4 2F1A ....|--- .... ....
 C-3|..|--- .... ....|C-3 2C.F ....|--- .... ....
....|..|--- .... ....|R-- .... ....|--- .... ....
 D-4|..|--- .... ....|D-3 2C.F ....|--- .... ....
....|..|--- .... ....|A-4 2F1F ....|--- .... ....
 C-3|..|--- .... ....|C-3 2C.F ....|--- .... ....
....|..|--- .... ....|R-- .... ....|--- .... ....
 D-4|..|--- .... ....|D-3 2C.F ....|--- .... ....
....|..|--- .... ....|--- .... ....|--- .... ....
 C-3|..|--- .... ....|C-3 2C.F ....|--- .... ....
....|..|--- .... ....|A-4 2F1F ....|--- .... ....
 D-4|..|--- .... ....|D-3 2C.F ....|--- .... ....
....|..|--- .... ....|A-4 2F17 ....|--- .... ....
 C-3|..|--- .... ....|C-3 2C.F ....|--- .... ....
....|..|--- .... ....|A-4 2F1F ....|--- .... ....
 D-4|..|--- .... ....|D-3 2C.F ....|--- .... ....
....|..|--- .... ....|A-4 2F17 ....|--- .... ....
 C-3|..|--- .... ....|C-3 2C.F ....|--- .... ....
....|..|--- .... ....|A-4 2F1F ....|--- .... ....
 D-4|..|--- .... ....|D-3 2C.F ....|--- .... ....
....|..|--- .... ....|A-4 2F2F ....|--- .... ....
 C-3|..|--- .... ....|C-3 2C.F ....|--- .... ....
....|..|--- .... ....|A-4 2F17 ....|--- .... ....
 D-4|..|--- .... ....|D-3 2C.F ....|--- .... ....
....|..|--- .... ....|A-4 2F2F ....|--- .... ....
 A-3|..|--- .... ....|A-3 2C.F ....|--- .... ....
....|..|--- .... ....|A-4 2F1A ....|--- .... ....
 D-4|..|--- .... ....|D-3 2C.F ....|--- .... ....
....|..|--- .... ....|A-4 2F17 ....|--- .... ....
 C-3|..|--- .... ....|C-3 2C.F ....|--- .... ....
....|..|--- .... ....|A-4 2F2F ....|--- .... ....
 D-4|..|--- .... ....|D-3 2C.F ....|--- .... ....
....|..|--- .... ....|A-4 2F2A ....|--- .... ....
 A-3|..|--- .... ....|A-3 2C.F ....|--- .... ....
....|..|--- .... ....|A-4 2F17 ....|--- .... ....
 D-4|..|--- .... ....|D-3 2C.F ....|--- .... ....
....|..|--- .... ....|A-4 2F2F ....|--- .... ....
 C-3|..|--- .... ....|C-3 2C.F ....|--- .... ....
....|..|--- .... ....|A-4 2F17 ....|--- .... ....
 D-4|..|--- .... ....|D-3 2C.F ....|--- .... ....
....|..|--- .... ....|R-- .... ....|--- .... ....
 A-3|..|--- .... ....|A-3 2C.F ....|--- .... ....
....|..|--- .... ....|A-4 2F2F ....|--- .... ....
 D-4|..|--- .... ....|D-3 2C.F ....|--- .... ....
....|..|--- .... ....|A-4 2F27 ....|--- .... ....
 C-3|..|--- .... ....|C-3 2C.F ....|--- .... ....
....|..|--- .... ....|A-4 2F2F ....|--- .... ....
 D-4|..|--- .... ....|D-3 2C.F ....|--- .... ....
....|..|--- .... ....|A-4 2F27 ....|--- .... ....
 A-3|..|--- .... ....|A-3 2C.F ....|--- .... ....
....|..|--- .... ....|A-4 2F2F ....|--- .... ....

[Pattern5]
 D-4|..|--- .... ....|D-3 2C.F ....|--- .... ....
....|..|--- .... ....|G-4 2F3F ....|--- .... ....
 C-3|..|--- .... ....|C-3 2C.F ....|--- .... ....
....|..|--- .... ....|A-4 2F27 ....|--- .... ....
 D-4|..|--- .... ....|D-3 2C.F ....|--- .... ....
....|..|--- .... ....|G-4 2F3F ....|--- .... ....
 G-4|..|--- .... ....|G-3 2C.F ....|--- .... ....
....|..|--- .... ....|A-4 2F2A ....|--- .... ....
 D-4|..|--- .... ....|D-3 2C.F ....|--- .... ....
....|..|--- .... ....|A-4 2F27 ....|--- .... ....
 C-3|..|--- .... ....|C-3 2C.F ....|--- .... ....
....|..|--- .... ....|G-4 2F3F ....|--- .... ....
 D-4|..|--- .... ....|D-3 2C.F ....|--- .... ....
....|..|--- .... ....|G-4 2F3A ....|--- .... ....
 G-4|..|--- .... ....|G-3 2C.F ....|--- .... ....
....|..|--- .... ....|A-4 2F27 ....|--- .... ....
 D-4|..|--- .... ....|D-3 2C.F ....|--- .... ....
....|..|--- .... ....|G-4 2F3F ....|--- .... ....
 C-3|..|--- .... ....|C-3 2C.F ....|--- .... ....
....|..|--- .... ....|A-4 2F27 ....|--- .... ....
 D-4|..|--- .... ....|D-3 2C.F ....|--- .... ....
....|..|--- .... ....|R-- .... ....|--- .... ....
 G-4|..|--- .... ....|G-3 2C.F ....|--- .... ....
....|..|--- .... ....|G-4 2F3F ....|--- .... ....
 D-4|..|--- .... ....|D-3 2C.F ....|--- .... ....
....|..|--- .... ....|G-4 2F37 ....|--- .... ....
 C-3|..|--- .... ....|C-3 2C.F ....|--- .... ....
....|..|--- .... ....|G-4 2F3F ....|--- .... ....
 D-4|..|--- .... ....|D-3 2C.F ....|--- .... ....
....|..|--- .... ....|G-4 2F37 ....|--- .... ....
 G-4|..|--- .... ....|G-3 2C.F ....|--- .... ....
....|..|--- .... ....|G-4 2F3F ....|--- .... ....
 D-4|..|--- .... ....|D-3 2C.F ....|--- .... ....
....|..|--- .... ....|G-4 2F4F ....|--- .... ....
 C-3|..|--- .... ....|C-3 2C.F ....|--- .... ....
....|..|--- .... ....|G-4 2F37 ....|--- .... ....
 D-4|..|--- .... ....|D-3 2C.F ....|--- .... ....
....|..|--- .... ....|G-4 2F4F ....|--- .... ....
 G-4|..|--- .... ....|G-3 2C.F ....|--- .... ....
....|..|--- .... ....|G-4 2F3A ....|--- .... ....
 D-4|..|--- .... ....|D-3 2C.F ....|--- .... ....
....|..|--- .... ....|G-4 2F37 ....|--- .... ....
 C-3|..|--- .... ....|C-3 2C.F ....|--- .... ....
....|..|--- .... ....|G-4 2F4F ....|--- .... ....
 D-4|..|--- .... ....|D-3 2C.F ....|--- .... ....
....|..|--- .... ....|G-4 2F4A ....|--- .... ....
 G-4|..|--- .... ....|G-3 2C.F ....|--- .... ....
....|..|--- .... ....|G-4 2F37 ....|--- .... ....
 D-4|..|--- .... ....|D-3 2C.F ....|--- .... ....
....|..|--- .... ....|G-4 2F4F ....|--- .... ....
 C-3|..|--- .... ....|C-3 2C.F ....|--- .... ....
....|..|--- .... ....|G-4 2F37 ....|--- .... ....
 D-4|..|--- .... ....|D-3 2C.F ....|--- .... ....
....|..|--- .... ....|R-- .... ....|--- .... ....
 G-4|..|--- .... ....|G-3 2C.F ....|--- .... ....
....|..|--- .... ....|G-4 2F4F ....|--- .... ....
 D-4|..|--- .... ....|D-3 2C.F ....|--- .... ....
....|..|--- .... ....|G-4 2F47 ....|--- .... ....
 C-3|..|--- .... ....|C-3 2C.F ....|--- .... ....
....|..|--- .... ....|G-4 2F4F ....|--- .... ....
 D-4|..|--- .... ....|D-3 2C.F ....|--- .... ....
....|..|--- .... ....|G-4 2F47 ....|--- .... ....
 G-4|..|--- .... ....|G-3 2C.F ....|--- .... ....
....|..|--- .... ....|G-4 2F4F ....|--- .... ....

[Pattern6]
 D-4|..|--- .... ....|D-3 2C.F ....|--- .... ....
....|..|--- .... ....|A-4 2F1F ....|--- .... ....
 C-3|..|--- .... ....|C-3 2C.F ....|--- .... ....
....|..|--- .... ....|G-4 2F47 ....|--- .... ....
 D-4|..|--- .... ....|D-3 2C.F ....|--- .... ....
....|..|--- .... ....|A-4 2F1F ....|--- .... ....
 C-3|..|--- .... ....|C-3 2C.F ....|--- .... ....
....|..|--- .... ....|G-4 2F4A ....|--- .... ....
 D-4|..|--- .... ....|D-3 2C.F ....|--- .... ....
....|..|--- .... ....|G-4 2F47 ....|--- .... ....
 C-3|..|--- .... ....|C-3 2C.F ....|--- .... ....
....|..|--- .... ....|A-4 2F1F ....|--- .... ....
 D-4|..|--- .... ....|D-3 2C.F ....|--- .... ....
....|..|--- .... ....|A-4 2F1A ....|--- .... ....
 C-3|..|--- .... ....|C-3 2C.F ....|--- .... ....
....|..|--- .... ....|G-4 2F47 ....|--- .... ....
 D-4|..|--- .... ....|D-3 2C.F ....|--- .... ....
....|..|--- .... ....|A-4 2F1F ....|--- .... ....
 C-3|..|--- .... ....|C-3 2C.F ....|--- .... ....
....|..|--- .... ....|G-4 2F47 ....|--- .... ....
 D-4|..|--- .... ....|D-3 2C.F ....|--- .... ....
....|..|--- .... ....|R-- .... ....|--- .... ....
 C-3|..|--- .... ....|C-3 2C.F ....|--- .... ....
....|..|--- .... ....|A-4 2F1F ....|--- .... ....
 D-4|..|--- .... ....|D-3 2C.F ....|--- .... ....
....|..|--- .... ....|A-4 2F17 ....|--- .... ....
 C-3|..|--- .... ....|C-3 2C.F ....|--- .... ....
....|..|--- .... ....|A-4 2F1F ....|--- .... ....
 D-4|..|--- .... ....|D-3 2C.F ....|--- .... ....
....|..|--- .... ....|A-4 2F17 ....|--- .... ....
 C-3|..|--- .... ....|C-3 2C.F ....|--- .... ....
....|..|--- .... ....|A-4 2F1F ....|--- .... ....
 D-4|..|--- .... ....|D-3 2C.F ....|--- .... ....
....|..|--- .... ....|A-4 2F2F ....|--- .... ....
 C-3|..|--- .... ....|C-3 2C.F ....|--- .... ....
....|..|--- .... ....|A-4 2F17 ....|--- .... ....
 D-4|..|--- .... ....|D-3 2C.F ....|--- .... ....
....|..|--- .... ....|A-4 2F2F ....|--- .... ....
 A-3|..|--- .... ....|A-3 2C.F ....|--- .... ....
....|..|--- .... ....|A-4 2F1A ....|--- .... ....
 D-4|..|--- .... ....|D-3 2C.F ....|--- .... ....
....|..|--- .... ....|A-4 2F17 ....|--- .... ....
 C-3|..|--- .... ....|C-3 2C.F ....|--- .... ....
....|..|--- .... ....|A-4 2F2F ....|--- .... ....
 D-4|..|--- .... ....|D-3 2C.F ....|--- .... ....
....|..|--- .... ....|A-4 2F2A ....|--- .... ....
 A-3|..|--- .... ....|A-3 2C.F ....|--- .... ....
....|..|--- .... ....|A-4 2F17 ....|--- .... ....
 D-4|..|--- .... ....|D-3 2C.F ....|--- .... ....
....|..|--- .... ....|A-4 2F2F ....|--- .... ....
 C-3|..|--- .... ....|C-3 2C.F ....|--- .... ....
....|..|--- .... ....|A-4 2F17 ....|--- .... ....
 D-4|..|--- .... ....|D-3 2C.F ....|--- .... ....
....|..|--- .... ....|R-- .... ....|--- .... ....
 A-3|..|--- .... ....|A-3 2C.F ....|--- .... ....
....|..|--- .... ....|A-4 2F2F ....|--- .... ....
 D-4|..|--- .... ....|D-3 2C.F ....|--- .... ....
....|..|--- .... ....|A-4 2F27 ....|--- .... ....
 C-3|..|--- .... ....|C-3 2C.F ....|--- .... ....
....|..|--- .... ....|A-4 2F2F ....|--- .... ....
 D-4|..|--- .... ....|D-3 2C.F ....|--- .... ....
....|..|--- .... ....|A-4 2F27 ....|--- .... ....
 A-3|..|--- .... ....|A-3 2C.F ....|--- .... ....
....|..|--- .... ....|A-4 2F2F ....|--- .... ....

[Pattern8]
 D-4|..|D-3 2C.F ....|D-3 2C.F ....|--- .... ....
....|..|--- .... ....|A-4 2F1F ....|--- .... ....
 C-3|..|R-- .... ....|C-3 2C.F ....|--- .... ....
....|..|--- .... ....|G-4 2F47 ....|--- .... ....
 D-4|..|D-3 2C.F ....|D-3 2C.F ....|--- .... ....
....|..|--- .... ....|A-4 2F1F ....|--- .... ....
 C-3|..|D-2 2F.F ....|C-3 2C.F ....|--- .... ....
....|..|--- .... ....|G-4 2F4A ....|--- .... ....
 D-4|..|D-3 2C.F ....|D-3 2C.F ....|--- .... ....
....|..|--- .... ....|G-4 2F47 ....|--- .... ....
 D-4|..|D-3 2C.F ....|C-3 2F.F ....|--- .... ....
....|..|--- .... ....|A-4 2F1F ....|--- .... ....
 D-4|..|D-3 2C.F ....|D-3 2C.F ....|--- .... ....
....|..|--- .... ....|A-4 2F1A ....|--- .... ....
 C-3|..|D-2 2F.F ....|C-3 2C.F ....|--- .... ....
....|..|--- .... ....|G-4 2F47 ....|--- .... ....
 D-4|..|D-3 2C.F ....|D-3 2C.F ....|--- .... ....
....|..|--- .... ....|A-4 2F1F ....|--- .... ....
 D-4|..|D-3 2C.F ....|C-3 2F.F ....|--- .... ....
....|..|--- .... ....|G-4 2F47 ....|--- .... ....
 D-4|..|D-3 2C.F ....|D-3 2C.F ....|--- .... ....
....|..|--- .... ....|R-- .... ....|--- .... ....
 D-4|..|D-3 2C.F ....|C-3 2F.F ....|--- .... ....
....|..|--- .... ....|A-4 2F1F ....|--- .... ....
 D-4|..|D-2 2F.7 ....|D-3 2C.F ....|--- .... ....
....|..|--- .... ....|A-4 2F17 ....|--- .... ....
 C-3|..|D-2 2F.A ....|C-3 2C.F ....|--- .... ....
....|..|--- .... ....|A-4 2F1F ....|--- .... ....
 D-4|..|D-2 2F.7 ....|D-3 2C.F ....|--- .... ....
....|..|--- .... ....|A-4 2F17 ....|--- .... ....
 C-3|..|D-2 2F.7 ....|C-3 2C.F ....|--- .... ....
....|..|--- .... ....|A-4 2F1F ....|--- .... ....
 D-4|..|C-2 2F.F ....|D-3 2C.F ....|--- .... ....
....|..|--- .... ....|A-4 2F2F ....|--- .... ....
 C-3|..|D-3 2F.7 ....|C-3 2C.F ....|--- .... ....
....|..|--- .... ....|A-4 2F17 ....|--- .... ....
 D-4|..|C-2 2F.F ....|D-3 2C.F ....|--- .... ....
....|..|--- .... ....|A-4 2F2F ....|--- .... ....
 A-3|..|C-2 2F.F ....|A-3 2C.F ....|--- .... ....
....|..|--- .... ....|A-4 2F1A ....|--- .... ....
 D-4|..|C-3 2F.F ....|D-3 2C.F ....|--- .... ....
....|..|--- .... ....|A-4 2F17 ....|--- .... ....
 C-3|..|C-3 2C.F ....|C-3 2C.F ....|--- .... ....
....|..|--- .... ....|A-4 2F2F ....|--- .... ....
 D-4|..|C-2 2F.F ....|D-3 2C.F ....|--- .... ....
....|..|--- .... ....|A-4 2F2A ....|--- .... ....
 A-3|..|C-2 2F.F ....|A-3 2C.F ....|--- .... ....
....|..|--- .... ....|A-4 2F17 ....|--- .... ....
 D-4|..|C-3 2F.F ....|D-3 2C.F ....|--- .... ....
....|..|--- .... ....|A-4 2F2F ....|--- .... ....
 C-3|..|C-3 2C.F ....|C-3 2C.F ....|--- .... ....
....|..|--- .... ....|A-4 2F17 ....|--- .... ....
 D-4|..|C-2 2F.F ....|D-3 2C.F ....|--- .... ....
....|..|--- .... ....|R-- .... ....|--- .... ....
 A-3|..|C-3 2F.F ....|A-3 2C.F ....|--- .... ....
....|..|--- .... ....|A-4 2F2F ....|--- .... ....
 D-4|..|C-2 2F.7 ....|D-3 2C.F ....|--- .... ....
....|..|--- .... ....|A-4 2F27 ....|--- .... ....
 C-3|..|C-2 2F.A ....|C-3 2C.F ....|--- .... ....
....|..|--- .... ....|A-4 2F2F ....|--- .... ....
 D-4|..|C-2 2F.7 ....|D-3 2C.F ....|--- .... ....
....|..|--- .... ....|A-4 2F27 ....|--- .... ....
 A-3|..|C-2 2F.7 ....|A-3 2C.F ....|--- .... ....
....|..|--- .... ....|A-4 2F2F ....|--- .... ....

[Pattern9]
 D-4|..|C-2 2F.F ....|D-3 2C.F ....|--- .... ....
....|..|--- .... ....|G-4 2F3F ....|--- .... ....
 C-3|..|C-3 2F.7 ....|C-3 2C.F ....|--- .... ....
....|..|--- .... ....|A-4 2F27 ....|--- .... ....
 D-4|..|C-2 2F.F ....|D-3 2C.F ....|--- .... ....
....|..|--- .... ....|G-4 2F3F ....|--- .... ....
 G-4|..|C-2 2F.F ....|G-3 2C.F ....|--- .... ....
....|..|--- .... ....|A-4 2F2A ....|--- .... ....
 D-4|..|C-3 2F.F ....|D-3 2C.F ....|--- .... ....
....|..|--- .... ....|A-4 2F27 ....|--- .... ....
 C-3|..|C-3 2C.F ....|C-3 2C.F ....|--- .... ....
....|..|--- .... ....|G-4 2F3F ....|--- .... ....
 D-4|..|C-2 2F.F ....|D-3 2C.F ....|--- .... ....
....|..|--- .... ....|G-4 2F3A ....|--- .... ....
 G-4|..|C-2 2F.F ....|G-3 2C.F ....|--- .... ....
....|..|--- .... ....|A-4 2F27 ....|--- .... ....
 D-4|..|C-3 2F.F ....|D-3 2C.F ....|--- .... ....
....|..|--- .... ....|G-4 2F3F ....|--- .... ....
 C-3|..|C-3 2C.F ....|C-3 2C.F ....|--- .... ....
....|..|--- .... ....|A-4 2F27 ....|--- .... ....
 D-4|..|C-2 2F.F ....|D-3 2C.F ....|--- .... ....
....|..|--- .... ....|R-- .... ....|--- .... ....
 G-4|..|C-3 2F.F ....|G-3 2C.F ....|--- .... ....
....|..|--- .... ....|G-4 2F3F ....|--- .... ....
 D-4|..|C-2 2F.7 ....|D-3 2C.F ....|--- .... ....
....|..|--- .... ....|G-4 2F37 ....|--- .... ....
 C-3|..|C-2 2F.A ....|C-3 2C.F ....|--- .... ....
....|..|--- .... ....|G-4 2F3F ....|--- .... ....
 D-4|..|C-2 2F.7 ....|D-3 2C.F ....|--- .... ....
....|..|--- .... ....|G-4 2F37 ....|--- .... ....
 G-4|..|C-2 2F.7 ....|G-3 2C.F ....|--- .... ....
....|..|--- .... ....|G-4 2F3F ....|--- .... ....
 D-4|..|G-1 2F.F ....|D-3 2C.F ....|--- .... ....
....|..|--- .... ....|G-4 2F4F ....|--- .... ....
 C-3|..|C-3 2F.7 ....|C-3 2C.F ....|--- .... ....
....|..|--- .... ....|G-4 2F37 ....|--- .... ....
 D-4|..|G-1 2F.F ....|D-3 2C.F ....|--- .... ....
....|..|--- .... ....|G-4 2F4F ....|--- .... ....
 G-4|..|G-2 2A.F ....|G-3 2C.F ....|--- .... ....
....|..|--- .... ....|G-4 2F3A ....|--- .... ....
 D-4|..|G-2 2F.F ....|D-3 2C.F ....|--- .... ....
....|..|--- .... ....|G-4 2F37 ....|--- .... ....
 C-3|..|G-2 2F.F ....|C-3 2C.F ....|--- .... ....
....|..|--- .... ....|G-4 2F4F ....|--- .... ....
 D-4|..|G-1 2F.F ....|D-3 2C.F ....|--- .... ....
....|..|--- .... ....|G-4 2F4A ....|--- .... ....
 G-4|..|G-2 2A.F ....|G-3 2C.F ....|--- .... ....
....|..|--- .... ....|G-4 2F37 ....|--- .... ....
 D-4|..|G-2 2F.F ....|D-3 2C.F ....|--- .... ....
....|..|--- .... ....|G-4 2F4F ....|--- .... ....
 C-3|..|G-2 2F.F ....|C-3 2C.F ....|--- .... ....
....|..|--- .... ....|G-4 2F37 ....|--- .... ....
 D-4|..|G-1 2F.F ....|D-3 2C.F ....|--- .... ....
....|..|--- .... ....|R-- .... ....|--- .... ....
 G-4|..|G-3 2C.F ....|G-3 2C.F ....|--- .... ....
....|..|--- .... ....|G-4 2F4F ....|--- .... ....
 D-4|..|G-1 2F.7 ....|D-3 2C.F ....|--- .... ....
....|..|--- .... ....|G-4 2F47 ....|--- .... ....
 C-3|..|G-1 2F.A ....|C-3 2C.F ....|--- .... ....
....|..|--- .... ....|G-4 2F4F ....|--- .... ....
 D-4|..|G-1 2F.7 ....|D-3 2C.F ....|--- .... ....
....|..|--- .... ....|G-4 2F47 ....|--- .... ....
 G-4|..|G-1 2F.7 ....|G-3 2C.F ....|--- .... ....
....|..|--- .... ....|G-4 2F4F ....|--- .... ....

[Pattern10]
 D-4|..|D-3 2C.F ....|D-3 2C.F ....|--- .... ....
....|..|--- .... ....|A-4 2F1F ....|--- .... ....
 C-3|..|G-2 2F.7 ....|C-3 2C.F ....|--- .... ....
....|..|--- .... ....|G-4 2F47 ....|--- .... ....
 D-4|..|D-3 2C.F ....|D-3 2C.F ....|--- .... ....
....|..|--- .... ....|A-4 2F1F ....|--- .... ....
 C-3|..|D-2 2F.F ....|C-3 2C.F ....|--- .... ....
....|..|--- .... ....|G-4 2F4A ....|--- .... ....
 D-4|..|D-3 2C.F ....|D-3 2C.F ....|--- .... ....
....|..|--- .... ....|G-4 2F47 ....|--- .... ....
 D-4|..|D-3 2C.F ....|C-3 2F.F ....|--- .... ....
....|..|--- .... ....|A-4 2F1F ....|--- .... ....
 D-4|..|D-3 2C.F ....|D-3 2C.F ....|--- .... ....
....|..|--- .... ....|A-4 2F1A ....|--- .... ....
 C-3|..|D-2 2F.F ....|C-3 2C.F ....|--- .... ....
....|..|--- .... ....|G-4 2F47 ....|--- .... ....
 D-4|..|D-3 2C.F ....|D-3 2C.F ....|--- .... ....
....|..|--- .... ....|A-4 2F1F ....|--- .... ....
 D-4|..|D-3 2C.F ....|C-3 2F.F ....|--- .... ....
....|..|--- .... ....|G-4 2F47 ....|--- .... ....
 D-4|..|D-3 2C.F ....|D-3 2C.F ....|--- .... ....
....|..|--- .... ....|R-- .... ....|--- .... ....
 D-4|..|D-3 2C.F ....|C-3 2F.F ....|--- .... ....
....|..|--- .... ....|A-4 2F1F ....|--- .... ....
 D-4|..|D-2 2F.7 ....|D-3 2C.F ....|--- .... ....
....|..|--- .... ....|A-4 2F17 ....|--- .... ....
 C-3|..|D-2 2F.A ....|C-3 2C.F ....|--- .... ....
....|..|--- .... ....|A-4 2F1F ....|--- .... ....
 D-4|..|D-2 2F.7 ....|D-3 2C.F ....|--- .... ....
....|..|--- .... ....|A-4 2F17 ....|--- .... ....
 C-3|..|D-2 2F.7 ....|C-3 2C.F ....|--- .... ....
....|..|--- .... ....|A-4 2F1F ....|--- .... ....
 D-4|..|C-2 2F.F ....|D-3 2C.F ....|--- .... ....
....|..|--- .... ....|A-4 2F2F ....|--- .... ....
 C-3|..|D-3 2F.7 ....|C-3 2C.F ....|--- .... ....
....|..|--- .... ....|A-4 2F17 ....|--- .... ....
 D-4|..|C-2 2F.F ....|D-3 2C.F ....|--- .... ....
....|..|--- .... ....|A-4 2F2F ....|--- .... ....
 A-3|..|C-2 2F.F ....|A-3 2C.F ....|--- .... ....
....|..|--- .... ....|A-4 2F1A ....|--- .... ....
 D-4|..|C-3 2F.F ....|D-3 2C.F ....|--- .... ....
....|..|--- .... ....|A-4 2F17 ....|--- .... ....
 C-3|..|C-3 2C.F ....|C-3 2C.F ....|--- .... ....
....|..|--- .... ....|A-4 2F2F ....|--- .... ....
 D-4|..|C-2 2F.F ....|D-3 2C.F ....|--- .... ....
....|..|--- .... ....|A-4 2F2A ....|--- .... ....
 A-3|..|C-2 2F.F ....|A-3 2C.F ....|--- .... ....
....|..|--- .... ....|A-4 2F17 ....|--- .... ....
 D-4|..|C-3 2F.F ....|D-3 2C.F ....|--- .... ....
....|..|--- .... ....|A-4 2F2F ....|--- .... ....
 C-3|..|C-3 2C.F ....|C-3 2C.F ....|--- .... ....
....|..|--- .... ....|A-4 2F17 ....|--- .... ....
 D-4|..|C-2 2F.F ....|D-3 2C.F ....|--- .... ....
....|..|--- .... ....|R-- .... ....|--- .... ....
 A-3|..|C-3 2F.F ....|A-3 2C.F ....|--- .... ....
....|..|--- .... ....|A-4 2F2F ....|--- .... ....
 D-4|..|C-2 2F.7 ....|D-3 2C.F ....|--- .... ....
....|..|--- .... ....|A-4 2F27 ....|--- .... ....
 C-3|..|C-2 2F.A ....|C-3 2C.F ....|--- .... ....
....|..|--- .... ....|A-4 2F2F ....|--- .... ....
 D-4|..|C-2 2F.7 ....|D-3 2C.F ....|--- .... ....
....|..|--- .... ....|A-4 2F27 ....|--- .... ....
 A-3|..|C-2 2F.7 ....|A-3 2C.F ....|--- .... ....
....|..|--- .... ....|A-4 2F2F ....|--- .... ....

[Pattern11]
 D-4|..|C-2 2F.F ....|D-3 2C.F ....|--- .... ....
....|..|--- .... ....|G-4 2F3F ....|--- .... ....
 C-3|..|C-3 2F.7 ....|C-3 2C.F ....|--- .... ....
....|..|--- .... ....|A-4 2F27 ....|--- .... ....
 D-4|..|C-2 2F.F ....|D-3 2C.F ....|--- .... ....
....|..|--- .... ....|G-4 2F3F ....|--- .... ....
 G-4|..|C-2 2F.F ....|G-3 2C.F ....|--- .... ....
....|..|--- .... ....|A-4 2F2A ....|--- .... ....
 D-4|..|C-3 2F.F ....|D-3 2C.F ....|--- .... ....
....|..|--- .... ....|A-4 2F27 ....|--- .... ....
 C-3|..|C-3 2C.F ....|C-3 2C.F ....|--- .... ....
....|..|--- .... ....|G-4 2F3F ....|--- .... ....
 D-4|..|C-2 2F.F ....|D-3 2C.F ....|--- .... ....
....|..|--- .... ....|G-4 2F3A ....|--- .... ....
 G-4|..|C-2 2F.F ....|G-3 2C.F ....|--- .... ....
....|..|--- .... ....|A-4 2F27 ....|--- .... ....
 D-4|..|C-3 2F.F ....|D-3 2C.F ....|--- .... ....
....|..|--- .... ....|G-4 2F3F ....|--- .... ....
 C-3|..|C-3 2C.F ....|C-3 2C.F ....|--- .... ....
....|..|--- .... ....|A-4 2F27 ....|--- .... ....
 D-4|..|C-2 2F.F ....|D-3 2C.F ....|--- .... ....
....|..|--- .... ....|R-- .... ....|--- .... ....
 G-4|..|C-3 2F.F ....|G-3 2C.F ....|--- .... ....
....|..|--- .... ....|G-4 2F3F ....|--- .... ....
 D-4|..|C-2 2F.7 ....|D-3 2C.F ....|--- .... ....
....|..|--- .... ....|G-4 2F37 ....|--- .... ....
 C-3|..|C-2 2F.A ....|C-3 2C.F ....|--- .... ....
....|..|--- .... ....|G-4 2F3F ....|--- .... ....
 D-4|..|C-2 2F.7 ....|D-3 2C.F ....|--- .... ....
....|..|--- .... ....|G-4 2F37 ....|--- .... ....
 G-4|..|C-2 2F.7 ....|G-3 2C.F ....|--- .... ....
....|..|--- .... ....|G-4 2F3F ....|--- .... ....
 D-4|..|C-4 CF.F ....|D-3 2C.F ....|--- .... ....
 G-3|..|G-1 2A.F ....|G-4 2F4F ....|--- .... ....
 C-3|..|C-4 CF.F ....|C-3 2C.F ....|--- .... ....
....|..|R-- .... ....|G-4 2F37 ....|--- .... ....
 D-4|..|C-4 CF.F ....|D-3 2C.F ....|--- .... ....
 G-3|..|G-1 2A.F ....|G-4 2F4F ....|--- .... ....
 G-4|..|C-4 CF.F ....|G-3 2C.F ....|--- .... ....
 G-3|..|G-1 2A.F ....|G-4 2F3A ....|--- .... ....
 D-4|..|C-4 CF.F ....|D-3 2C.F ....|--- .... ....
 G-4|..|G-2 2A.F ....|G-4 2F37 ....|--- .... ....
 C-3|..|C-4 CF.F ....|C-3 2C.F ....|--- .... ....
 G-4|..|G-2 2A.F ....|G-4 2F4F ....|--- .... ....
 D-4|..|C-4 CF.F ....|D-3 2C.F ....|--- .... ....
 G-3|..|G-1 2A.F ....|G-4 2F4A ....|--- .... ....
 G-4|..|C-4 CF.F ....|G-3 2C.F ....|--- .... ....
 G-3|..|G-1 2A.F ....|G-4 2F37 ....|--- .... ....
 D-4|..|C-4 CF.F ....|D-3 2C.F ....|--- .... ....
 G-4|..|G-2 2A.F ....|G-4 2F4F ....|--- .... ....
 C-3|..|C-4 CF.F ....|C-3 2C.F ....|--- .... ....
 G-4|..|G-2 2A.F ....|G-4 2F37 ....|--- .... ....
 D-4|..|C-4 CF.F ....|D-3 2C.F ....|--- .... ....
 G-3|..|G-1 2A.F ....|R-- .... ....|--- .... ....
 G-4|..|C-4 CF.F ....|G-3 2C.F ....|--- .... ....
 G-4|..|G-2 2A.F ....|G-4 2F4F ....|--- .... ....
 D-4|..|C-4 CF.F ....|D-3 2C.F ....|--- .... ....
....|..|G-1 2F.7 ....|G-4 2F47 ....|--- .... ....
 C-3|..|C-4 CF.F ....|C-3 2C.F ....|--- .... ....
....|..|G-1 2F.A ....|G-4 2F4F ....|--- .... ....
 D-4|..|C-4 CF.F ....|D-3 2C.F ....|--- .... ....
....|..|G-1 2F.7 ....|G-4 2F47 ....|--- .... ....
 G-4|..|C-4 CF.F ....|G-3 2C.F ....|--- .... ....
....|..|G-1 2F.7 ....|G-4 2F4F ....|--- .... ....

[Pattern12]
....|..|C-4 AF.F ....|A-4 2F1F ....|A-4 3F.F ....
 D-4|..|D-2 2A.F ....|--- .... ....|--- .... ....
....|..|C-4 AF.F ....|C-3 2F.7 ....|--- .... ....
....|..|G-2 2F.7 ....|G-4 2F47 ....|--- .... ....
....|..|C-4 AF.F ....|A-4 2F1F ....|R-- .... ....
 D-4|..|D-2 2A.F ....|R-- .... ....|--- .... ....
....|..|C-4 AF.F ....|G-3 2F.7 ....|--- .... ....
 D-4|..|D-2 2A.F ....|G-4 2F4A ....|--- .... ....
....|..|C-4 AF.F ....|D-3 2F.7 ....|A-4 3F.F ....
 D-4|..|D-3 2C.F ....|G-4 2F47 ....|--- .... ....
....|..|C-4 AF.F ....|A-4 2F1F ....|--- .... ....
 D-4|..|D-3 2C.F ....|G-4 2F4A ....|--- .... ....
....|..|C-4 AF.F ....|D-3 2F.7 ....|A-4 3F.A ....
 D-4|..|D-2 2A.F ....|--- .... ....|--- .... ....
....|..|C-4 AF.F ....|G-3 2F.7 ....|--- .... ....
 D-4|..|D-2 2A.F ....|G-4 2F47 ....|--- .... ....
....|..|C-4 AF.F ....|A-4 2F1F ....|A-4 3F.F ....
 D-4|..|D-3 2C.F ....|R-- .... ....|--- .... ....
....|..|C-4 AF.F ....|C-3 2F.7 ....|--- .... ....
 D-4|..|D-3 2C.F ....|G-4 2F47 ....|--- .... ....
....|..|C-4 AF.F ....|D-3 2F.7 ....|A-4 3F.A ....
 D-4|..|D-2 2A.F ....|R-- .... ....|--- .... ....
....|..|C-4 AF.F ....|A-4 2F1F ....|--- .... ....
 D-4|..|D-3 2C.F ....|G-4 2F47 ....|--- .... ....
....|..|C-4 AF.F ....|A-4 2F17 ....|C-5 3F.F ....
....|..|D-2 2F.7 ....|--- .... ....|--- .... ....
....|..|C-4 AF.F ....|A-4 2F1F ....|D-4 3F.F ....
....|..|D-2 2F.A ....|--- .... ....|--- .... ....
....|..|C-4 AF.F ....|A-4 2F17 ....|A#4 3F.F ....
....|..|D-2 2F.7 ....|--- .... ....|--- .... ....
....|..|C-4 AF.F ....|A-4 2F1F ....|D-4 3F.F ....
....|..|D-2 2F.7 ....|--- .... ....|--- .... ....
....|..|C-4 AF.F ....|A-4 2F2F ....|A-4 3F.F ....
 C-4|..|C-2 2A.F ....|--- .... ....|--- .... ....
....|..|C-4 AF.F ....|A-4 2F17 ....|--- .... ....
....|..|D-3 2F.7 ....|--- .... ....|--- .... ....
....|..|C-4 AF.F ....|A-4 2F2F ....|A#4 3F.F ....
 C-4|..|C-2 2A.F ....|--- .... ....|--- .... ....
....|..|C-4 AF.F ....|A-4 2F1A ....|D-4 3F.F ....
 C-4|..|C-2 2A.F ....|--- .... ....|--- .... ....
....|..|C-4 AF.F ....|A-4 2F17 ....|A-4 3F.F ....
 C-3|..|C-3 2C.F ....|--- .... ....|--- .... ....
....|..|C-4 AF.F ....|A-4 2F2F ....|D-4 3F.A ....
 C-3|..|C-3 2C.F ....|--- .... ....|--- .... ....
....|..|C-4 AF.F ....|A-4 2F2A ....|A#4 3F.F ....
 C-4|..|C-2 2A.F ....|--- .... ....|--- .... ....
....|..|C-4 AF.F ....|A-4 2F17 ....|D-4 3F.F ....
 C-4|..|C-2 2A.F ....|--- .... ....|--- .... ....
....|..|C-4 AF.F ....|A-4 2F2F ....|A-4 3F.F ....
 C-3|..|C-3 2C.F ....|--- .... ....|--- .... ....
....|..|C-4 AF.F ....|A-4 2F17 ....|D-4 3F.7 ....
 C-3|..|C-3 2C.F ....|--- .... ....|--- .... ....
....|..|C-4 AF.F ....|R-- .... ....|A#4 3F.7 ....
 C-4|..|C-2 2A.F ....|--- .... ....|--- .... ....
....|..|C-4 AF.F ....|A-4 2F2F ....|D-4 3F.7 ....
 C-3|..|C-3 2C.F ....|--- .... ....|--- .... ....
....|..|C-4 AF.F ....|A-4 2F27 ....|C-5 3F.F ....
....|..|C-2 2F.7 ....|--- .... ....|--- .... ....
....|..|C-4 AF.F ....|A-4 2F2F ....|C-4 3F.F ....
....|..|C-2 2F.A ....|--- .... ....|--- .... ....
....|..|C-4 AF.F ....|A-4 2F27 ....|A#4 3F.F ....
....|..|C-2 2F.7 ....|--- .... ....|--- .... ....
....|..|C-4 AF.F ....|A-4 2F2F ....|C-4 3F.F ....
....|..|C-2 2F.7 ....|--- .... ....|--- .... ....

[Pattern13]
....|..|C-4 AF.F ....|G-4 2F3F ....|G-4 3F.F ....
 C-4|..|C-2 2A.F ....|--- .... ....|--- .... ....
....|..|C-4 AF.F ....|A-4 2F27 ....|--- .... ....
....|..|C-3 2F.7 ....|--- .... ....|--- .... ....
....|..|C-4 AF.F ....|G-4 2F3F ....|A#4 3F.F ....
 C-4|..|C-2 2A.F ....|--- .... ....|--- .... ....
....|..|C-4 AF.F ....|A-4 2F2A ....|C-4 3F.F ....
 C-4|..|C-2 2A.F ....|--- .... ....|--- .... ....
....|..|C-4 AF.F ....|A-4 2F27 ....|G-4 3F.F ....
 C-3|..|C-3 2C.F ....|--- .... ....|--- .... ....
....|..|C-4 AF.F ....|G-4 2F3F ....|C-4 3F.A ....
 C-3|..|C-3 2C.F ....|--- .... ....|--- .... ....
....|..|C-4 AF.F ....|G-4 2F3A ....|A#4 3F.F ....
 C-4|..|C-2 2A.F ....|--- .... ....|--- .... ....
....|..|C-4 AF.F ....|A-4 2F27 ....|C-4 3F.F ....
 C-4|..|C-2 2A.F ....|--- .... ....|--- .... ....
....|..|C-4 AF.F ....|G-4 2F3F ....|G-4 3F.F ....
 C-3|..|C-3 2C.F ....|--- .... ....|--- .... ....
....|..|C-4 AF.F ....|A-4 2F27 ....|C-4 3F.7 ....
 C-3|..|C-3 2C.F ....|--- .... ....|--- .... ....
....|..|C-4 AF.F ....|R-- .... ....|A#4 3F.7 ....
 C-4|..|C-2 2A.F ....|--- .... ....|--- .... ....
....|..|C-4 AF.F ....|G-4 2F3F ....|C-4 3F.7 ....
 C-3|..|C-3 2C.F ....|--- .... ....|--- .... ....
....|..|C-4 AF.F ....|G-4 2F37 ....|G-4 3F.F ....
....|..|C-2 2F.7 ....|--- .... ....|--- .... ....
....|..|C-4 AF.F ....|G-4 2F3F ....|C-4 3F.F ....
....|..|C-2 2F.A ....|--- .... ....|--- .... ....
....|..|C-4 AF.F ....|G-4 2F37 ....|A-4 3F.F ....
....|..|C-2 2F.7 ....|--- .... ....|--- .... ....
....|..|C-4 AF.F ....|G-4 2F3F ....|C-4 3F.F ....
....|..|C-2 2F.7 ....|--- .... ....|--- .... ....
....|..|C-4 AF.F ....|G-4 2F4F ....|A#4 3F.F ....
 G-3|..|G-1 2A.F ....|--- .... ....|--- .... ....
....|..|C-4 AF.F ....|G-4 2F37 ....|--- .... ....
....|..|C-3 2F.7 ....|--- .... ....|--- .... ....
....|..|C-4 AF.F ....|G-4 2F4F ....|A-4 3F.F ....
 G-3|..|G-1 2A.F ....|--- .... ....|--- .... ....
....|..|C-4 AF.F ....|G-4 2F3A ....|C-4 3F.F ....
 G-3|..|G-1 2A.F ....|--- .... ....|--- .... ....
....|..|C-4 AF.F ....|G-4 2F37 ....|A#4 3F.F ....
 G-4|..|G-2 2A.F ....|--- .... ....|--- .... ....
....|..|C-4 AF.F ....|G-4 2F4F ....|C-4 3F.A ....
 G-4|..|G-2 2A.F ....|--- .... ....|--- .... ....
....|..|C-4 AF.F ....|G-4 2F4A ....|A-4 3F.F ....
 G-3|..|G-1 2A.F ....|--- .... ....|--- .... ....
....|..|C-4 AF.F ....|G-4 2F37 ....|C-4 3F.F ....
 G-3|..|G-1 2A.F ....|--- .... ....|--- .... ....
....|..|C-4 AF.F ....|G-4 2F4F ....|A#4 3F.F ....
 G-4|..|G-2 2A.F ....|--- .... ....|--- .... ....
....|..|C-4 AF.F ....|G-4 2F37 ....|C-4 3F.7 ....
 G-4|..|G-2 2A.F ....|--- .... ....|--- .... ....
....|..|C-4 AF.F ....|R-- .... ....|A-4 3F.7 ....
 G-3|..|G-1 2A.F ....|--- .... ....|--- .... ....
....|..|C-4 AF.F ....|G-4 2F4F ....|C-4 3F.7 ....
 G-4|..|G-2 2A.F ....|--- .... ....|--- .... ....
....|..|C-4 AF.F ....|G-4 2F47 ....|A#4 3F.7 ....
....|..|G-1 2F.7 ....|--- .... ....|--- .... ....
....|..|C-4 AF.F ....|G-4 2F4F ....|C-4 3F.A ....
....|..|G-1 2F.A ....|--- .... ....|--- .... ....
....|..|C-4 AF.F ....|G-4 2F47 ....|A-4 3F.7 ....
....|..|G-1 2F.7 ....|--- .... ....|--- .... ....
....|..|C-4 AF.F ....|G-4 2F4F ....|C-4 3F.7 ....
....|..|G-1 2F.7 ....|--- .... ....|--- .... ....

[Pattern14]
....|..|C-4 AF.F ....|A-4 2F1F ....|A-4 3F.F ....
 D-4|..|D-2 2A.F ....|--- .... ....|--- .... ....
....|..|C-4 AF.F ....|G-4 2F47 ....|--- .... ....
....|..|G-2 2F.7 ....|--- .... ....|--- .... ....
....|..|C-4 AF.F ....|A-4 2F1F ....|A-4 3F.7 ....
 D-4|..|D-2 2A.F ....|--- .... ....|--- .... ....
....|..|C-4 AF.F ....|G-4 2F4A ....|C-4 3F.7 ....
 D-4|..|D-2 2A.F ....|--- .... ....|--- .... ....
....|..|C-4 AF.F ....|G-4 2F47 ....|A-4 3F.F ....
 D-4|..|D-3 2C.F ....|--- .... ....|--- .... ....
....|..|C-4 AF.F ....|A-4 2F1F ....|--- .... ....
 D-4|..|D-3 2C.F ....|--- .... ....|--- .... ....
....|..|C-4 AF.F ....|A-4 2F1A ....|A-4 3F.A ....
 D-4|..|D-2 2A.F ....|--- .... ....|--- .... ....
....|..|C-4 AF.F ....|G-4 2F47 ....|--- .... ....
 D-4|..|D-2 2A.F ....|--- .... ....|--- .... ....
....|..|C-4 AF.F ....|A-4 2F1F ....|A-4 3F.F ....
 D-4|..|D-3 2C.F ....|--- .... ....|--- .... ....
....|..|C-4 AF.F ....|G-4 2F47 ....|--- .... ....
 D-4|..|D-3 2C.F ....|--- .... ....|--- .... ....
....|..|C-4 AF.F ....|R-- .... ....|A-4 3F.A ....
 D-4|..|D-2 2A.F ....|--- .... ....|--- .... ....
....|..|C-4 AF.F ....|A-4 2F1F ....|--- .... ....
 D-4|..|D-3 2C.F ....|--- .... ....|--- .... ....
....|..|C-4 AF.F ....|A-4 2F17 ....|C-5 3F.F ....
....|..|D-2 2F.7 ....|--- .... ....|--- .... ....
....|..|C-4 AF.F ....|A-4 2F1F ....|D-4 3F.F ....
....|..|D-2 2F.A ....|--- .... ....|--- .... ....
....|..|C-4 AF.F ....|A-4 2F17 ....|A#4 3F.F ....
....|..|D-2 2F.7 ....|--- .... ....|--- .... ....
....|..|C-4 AF.F ....|A-4 2F1F ....|D-4 3F.F ....
....|..|D-2 2F.7 ....|--- .... ....|--- .... ....
....|..|C-4 AF.F ....|A-4 2F2F ....|A-4 3F.F ....
 C-4|..|C-2 2A.F ....|--- .... ....|--- .... ....
....|..|C-4 AF.F ....|A-4 2F17 ....|--- .... ....
....|..|D-3 2F.7 ....|--- .... ....|--- .... ....
....|..|C-4 AF.F ....|A-4 2F2F ....|A#4 3F.F ....
 C-4|..|C-2 2A.F ....|--- .... ....|--- .... ....
....|..|C-4 AF.F ....|A-4 2F1A ....|D-4 3F.F ....
 C-4|..|C-2 2A.F ....|--- .... ....|--- .... ....
....|..|C-4 AF.F ....|A-4 2F17 ....|A-4 3F.F ....
 C-3|..|C-3 2C.F ....|--- .... ....|--- .... ....
....|..|C-4 AF.F ....|A-4 2F2F ....|D-4 3F.A ....
 C-3|..|C-3 2C.F ....|--- .... ....|--- .... ....
....|..|C-4 AF.F ....|A-4 2F2A ....|A#4 3F.F ....
 C-4|..|C-2 2A.F ....|--- .... ....|--- .... ....
....|..|C-4 AF.F ....|A-4 2F17 ....|D-4 3F.F ....
 C-4|..|C-2 2A.F ....|--- .... ....|--- .... ....
....|..|C-4 AF.F ....|A-4 2F2F ....|A-4 3F.F ....
 C-3|..|C-3 2C.F ....|--- .... ....|--- .... ....
....|..|C-4 AF.F ....|A-4 2F17 ....|D-4 3F.7 ....
 C-3|..|C-3 2C.F ....|--- .... ....|--- .... ....
....|..|C-4 AF.F ....|R-- .... ....|A#4 3F.7 ....
 C-4|..|C-2 2A.F ....|--- .... ....|--- .... ....
....|..|C-4 AF.F ....|A-4 2F2F ....|D-4 3F.7 ....
 C-3|..|C-3 2C.F ....|--- .... ....|--- .... ....
....|..|C-4 AF.F ....|A-4 2F27 ....|C-5 3F.F ....
....|..|C-2 2F.7 ....|--- .... ....|--- .... ....
....|..|C-4 AF.F ....|A-4 2F2F ....|C-4 3F.F ....
....|..|C-2 2F.A ....|--- .... ....|--- .... ....
....|..|C-4 AF.F ....|A-4 2F27 ....|A#4 3F.F ....
....|..|C-2 2F.7 ....|--- .... ....|--- .... ....
....|..|C-4 AF.F ....|A-4 2F2F ....|C-4 3F.F ....
....|..|C-2 2F.7 ....|--- .... ....|--- .... ....

[Pattern15]
....|..|C-4 AF.F ....|G-4 2F3F ....|G-4 3F.F ....
 C-4|..|C-2 2A.F ....|--- .... ....|--- .... ....
....|..|C-4 AF.F ....|A-4 2F27 ....|--- .... ....
....|..|C-3 2F.7 ....|--- .... ....|--- .... ....
....|..|C-4 AF.F ....|G-4 2F3F ....|A#4 3F.F ....
 C-4|..|C-2 2A.F ....|--- .... ....|--- .... ....
....|..|C-4 AF.F ....|A-4 2F2A ....|C-4 3F.F ....
 C-4|..|C-2 2A.F ....|--- .... ....|--- .... ....
....|..|C-4 AF.F ....|A-4 2F27 ....|G-4 3F.F ....
 C-3|..|C-3 2C.F ....|--- .... ....|--- .... ....
....|..|C-4 AF.F ....|G-4 2F3F ....|C-4 3F.A ....
 C-3|..|C-3 2C.F ....|--- .... ....|--- .... ....
....|..|C-4 AF.F ....|G-4 2F3A ....|A#4 3F.F ....
 C-4|..|C-2 2A.F ....|--- .... ....|--- .... ....
....|..|C-4 AF.F ....|A-4 2F27 ....|C-4 3F.F ....
 C-4|..|C-2 2A.F ....|--- .... ....|--- .... ....
....|..|C-4 AF.F ....|G-4 2F3F ....|G-4 3F.F ....
 C-3|..|C-3 2C.F ....|--- .... ....|--- .... ....
....|..|C-4 AF.F ....|A-4 2F27 ....|C-4 3F.7 ....
 C-3|..|C-3 2C.F ....|--- .... ....|--- .... ....
....|..|C-4 AF.F ....|R-- .... ....|A#4 3F.7 ....
 C-4|..|C-2 2A.F ....|--- .... ....|--- .... ....
....|..|C-4 AF.F ....|G-4 2F3F ....|C-4 3F.7 ....
 C-3|..|C-3 2C.F ....|--- .... ....|--- .... ....
....|..|C-4 AF.F ....|G-4 2F37 ....|A-4 3F.F ....
....|..|C-2 2F.7 ....|--- .... ....|--- .... ....
....|..|C-4 AF.F ....|G-4 2F3F ....|D-4 3F.F ....
....|..|C-2 2F.A ....|--- .... ....|--- .... ....
....|..|C-4 AF.F ....|G-4 2F37 ....|G-4 3F.F ....
....|..|C-2 2F.7 ....|--- .... ....|--- .... ....
....|..|C-4 AF.F ....|G-4 2F3F ....|C-4 3F.F ....
....|..|C-2 2F.7 ....|--- .... ....|--- .... ....
....|..|C-4 AF.F ....|G-4 2F4F ....|D-4 3F.F ....
 G-3|..|G-1 2A.F ....|--- .... ....|--- .... ....
....|..|C-4 AF.F ....|G-4 2F37 ....|--- .... ....
....|..|C-3 2F.7 ....|--- .... ....|--- .... ....
....|..|C-4 AF.F ....|G-4 2F4F ....|G-4 3F.F ....
 G-3|..|G-1 2A.F ....|--- .... ....|--- .... ....
....|..|C-4 AF.F ....|G-4 2F3A ....|C-4 3F.F ....
 G-3|..|G-1 2A.F ....|--- .... ....|--- .... ....
....|..|C-4 AF.F ....|G-4 2F37 ....|D-4 3F.F ....
 G-4|..|G-2 2A.F ....|--- .... ....|--- .... ....
....|..|C-4 AF.F ....|G-4 2F4F ....|C-4 3F.A ....
 G-4|..|G-2 2A.F ....|--- .... ....|--- .... ....
....|..|C-4 AF.F ....|G-4 2F4A ....|G-4 3F.F ....
 G-3|..|G-1 2A.F ....|--- .... ....|--- .... ....
....|..|C-4 AF.F ....|G-4 2F37 ....|C-4 3F.F ....
 G-3|..|G-1 2A.F ....|--- .... ....|--- .... ....
....|..|C-4 AF.F ....|G-4 2F4F ....|D-4 3F.F ....
 G-4|..|G-2 2A.F ....|--- .... ....|--- .... ....
....|..|C-4 AF.F ....|G-4 2F37 ....|D-4 3F.7 ....
 G-4|..|G-2 2A.F ....|--- .... ....|--- .... ....
....|..|C-3 RF.F ....|R-- .... ....|G-4 3F.7 ....
 G-3|..|G-1 2A.F ....|--- .... ....|--- .... ....
....|..|C-4 AF.F ....|G-4 2F4F ....|C-4 3F.7 ....
 G-4|..|G-2 2A.F ....|--- .... ....|--- .... ....
....|..|C-4 AF.F ....|G-4 2F47 ....|D-4 3F.7 ....
....|..|G-1 2F.7 ....|--- .... ....|--- .... ....
....|..|C-4 AF.F ....|G-4 2F4F ....|C-4 3F.A ....
....|..|G-1 2F.A ....|--- .... ....|--- .... ....
....|..|C-4 AF.F ....|G-4 2F47 ....|G-4 3F.7 ....
....|..|G-1 2F.7 ....|--- .... ....|--- .... ....
....|..|C-4 AF.F ....|G-4 2F4F ....|C-4 3F.7 ....
....|..|G-1 2F.7 ....|--- .... ....|--- .... ....

[Pattern16]
....|..|C-4 AF.F ....|C-4 2F1F ....|C-4 3F.F ....
 F-3|..|F-1 2A.F ....|--- .... ....|--- .... ....
....|..|C-4 AF.F ....|G-4 2F47 ....|--- .... ....
....|..|G-2 2F.7 ....|--- .... ....|--- .... ....
....|..|C-4 AF.F ....|C-4 2F1F ....|F-4 3F.F ....
 F-3|..|F-1 2A.F ....|--- .... ....|--- .... ....
....|..|C-4 AF.F ....|G-4 2F4A ....|C-4 3F.F ....
 F-3|..|F-1 2A.F ....|--- .... ....|--- .... ....
....|..|C-4 AF.F ....|G-4 2F47 ....|G-4 3F.F ....
 F-4|..|F-2 2A.F ....|--- .... ....|--- .... ....
....|..|C-4 AF.F ....|C-4 2F1F ....|F-4 3F.F ....
 F-4|..|F-2 2A.F ....|--- .... ....|--- .... ....
....|..|C-4 AF.F ....|C-4 2F1A ....|G#4 3F.F ....
 F-3|..|F-1 2A.F ....|--- .... ....|--- .... ....
....|..|C-4 AF.F ....|G-4 2F47 ....|G-4 3F.F ....
 F-3|..|F-1 2A.F ....|--- .... ....|--- .... ....
....|..|C-4 AF.F ....|C-4 2F1F ....|C-4 3F.F ....
 F-4|..|F-2 2A.F ....|--- .... ....|--- .... ....
....|..|C-4 AF.F ....|G-4 2F47 ....|G#4 3F.F ....
 F-4|..|F-2 2A.F ....|--- .... ....|--- .... ....
....|..|C-4 AF.F ....|R-- .... ....|G#4 3F.F ....
 F-3|..|F-1 2A.F ....|--- .... ....|--- .... ....
....|..|C-4 AF.F ....|C-4 2F1F ....|C-4 3F.F ....
 F-4|..|F-2 2A.F ....|--- .... ....|--- .... ....
....|..|C-4 AF.F ....|C-4 2F17 ....|G-4 3F.F ....
....|..|F-1 2F.7 ....|--- .... ....|--- .... ....
....|..|C-4 AF.F ....|C-4 2F1F ....|G#4 3F.F ....
....|..|F-1 2F.A ....|--- .... ....|--- .... ....
....|..|C-4 AF.F ....|C-4 2F17 ....|C-5 3F.F ....
....|..|F-1 2F.7 ....|--- .... ....|--- .... ....
....|..|C-4 AF.F ....|C-4 2F1F ....|G-4 3F.F ....
....|..|F-1 2F.7 ....|--- .... ....|--- .... ....
....|..|C-4 AF.F ....|D-4 2F1F ....|D-4 3F.F ....
 G-3|..|G-1 2A.F ....|--- .... ....|--- .... ....
....|..|C-4 AF.F ....|C-4 2F17 ....|C-5 3F.F ....
....|..|F-2 2F.7 ....|--- .... ....|--- .... ....
....|..|C-4 AF.F ....|D-4 2F1F ....|G-4 3F.F ....
 G-3|..|G-1 2A.F ....|--- .... ....|--- .... ....
....|..|C-4 AF.F ....|C-4 2F1A ....|D-4 3F.F ....
 G-3|..|G-1 2A.F ....|--- .... ....|--- .... ....
....|..|C-4 AF.F ....|C-4 2F17 ....|A-4 3F.F ....
 G-4|..|G-2 2A.F ....|--- .... ....|--- .... ....
....|..|C-4 AF.F ....|D-4 2F1F ....|G-4 3F.F ....
 G-4|..|G-2 2A.F ....|--- .... ....|--- .... ....
....|..|C-4 AF.F ....|D-4 2F1A ....|A#4 3F.F ....
 G-3|..|G-1 2A.F ....|--- .... ....|--- .... ....
....|..|C-4 AF.F ....|C-4 2F17 ....|A-4 3F.F ....
 G-3|..|G-1 2A.F ....|--- .... ....|--- .... ....
....|..|C-4 AF.F ....|D-4 2F1F ....|D-4 3F.F ....
 G-4|..|G-2 2A.F ....|--- .... ....|--- .... ....
....|..|C-4 AF.F ....|C-4 2F17 ....|A#4 3F.F ....
 G-4|..|G-2 2A.F ....|--- .... ....|--- .... ....
....|..|C-4 AF.F ....|R-- .... ....|A#4 3F.F ....
 G-3|..|G-1 2A.F ....|--- .... ....|--- .... ....
....|..|C-4 AF.F ....|D-4 2F1F ....|D-4 3F.F ....
 G-4|..|G-2 2A.F ....|--- .... ....|--- .... ....
....|..|C-4 AF.F ....|D-4 2F17 ....|A-4 3F.F ....
....|..|G-1 2F.7 ....|--- .... ....|--- .... ....
....|..|C-4 AF.F ....|D-4 2F1F ....|A#4 3F.F ....
....|..|G-1 2F.A ....|--- .... ....|--- .... ....
....|..|C-4 AF.F ....|D-4 2F17 ....|D-5 3F.F ....
....|..|G-1 2F.7 ....|--- .... ....|--- .... ....
....|..|C-4 AF.F ....|D-4 2F1F ....|A-4 3F.F ....
....|..|G-1 2F.7 ....|--- .... ....|--- .... ....

[Pattern17]
....|..|C-4 AF.F ....|D#4 2F3F ....|D#4 3F.F ....
 G#3|..|G#1 2A.F ....|--- .... ....|--- .... ....
....|..|C-4 AF.F ....|D-4 2F17 ....|D-5 3F.F ....
....|..|G-2 2F.7 ....|--- .... ....|--- .... ....
....|..|C-4 AF.F ....|D#4 2F3F ....|G#4 3F.F ....
 G#3|..|G#1 2A.F ....|--- .... ....|--- .... ....
....|..|C-4 AF.F ....|D-4 2F1A ....|D#4 3F.F ....
 G#3|..|G#1 2A.F ....|--- .... ....|--- .... ....
....|..|C-4 AF.F ....|D-4 2F17 ....|A#4 3F.F ....
 G#4|..|G#2 2A.F ....|--- .... ....|--- .... ....
....|..|C-4 AF.F ....|D#4 2F3F ....|G#4 3F.F ....
 G#4|..|G#2 2A.F ....|--- .... ....|--- .... ....
....|..|C-4 AF.F ....|D#4 2F3A ....|C-5 3F.F ....
 G#3|..|G#1 2A.F ....|--- .... ....|--- .... ....
....|..|C-4 AF.F ....|D-4 2F17 ....|A#4 3F.F ....
 G#3|..|G#1 2A.F ....|--- .... ....|--- .... ....
....|..|C-4 AF.F ....|D#4 2F3F ....|D#4 3F.F ....
 G#4|..|G#2 2A.F ....|--- .... ....|--- .... ....
....|..|C-4 AF.F ....|D-4 2F17 ....|C-5 3F.F ....
 G#4|..|G#2 2A.F ....|--- .... ....|--- .... ....
....|..|C-4 AF.F ....|R-- .... ....|C-5 3F.F ....
 G#3|..|G#1 2A.F ....|--- .... ....|--- .... ....
....|..|C-4 AF.F ....|D#4 2F3F ....|D#4 3F.F ....
 G#4|..|G#2 2A.F ....|--- .... ....|--- .... ....
....|..|C-4 AF.F ....|D#4 2F37 ....|A#4 3F.F ....
....|..|G#1 2F.7 ....|--- .... ....|--- .... ....
....|..|C-4 AF.F ....|D#4 2F3F ....|C-5 3F.F ....
....|..|G#1 2F.A ....|--- .... ....|--- .... ....
....|..|C-4 AF.F ....|D#4 2F37 ....|D#5 3F.F ....
....|..|G#1 2F.7 ....|--- .... ....|--- .... ....
....|..|C-4 AF.F ....|D#4 2F3F ....|A#4 3F.F ....
....|..|G#1 2F.7 ....|--- .... ....|--- .... ....
....|..|C-4 AF.F ....|C#4 2F5F ....|F-4 3F.F ....
 C#3|..|C#1 2A.F ....|--- .... ....|--- .... ....
....|..|C-4 AF.F ....|D#4 2F37 ....|D#5 3F.F ....
....|..|G#2 2F.7 ....|--- .... ....|--- .... ....
....|..|C-4 AF.F ....|C#4 2F5F ....|A#4 3F.F ....
 C#3|..|C#1 2A.F ....|--- .... ....|--- .... ....
....|..|C-4 AF.F ....|D#4 2F3A ....|F-4 3F.F ....
 C#3|..|C#1 2A.F ....|--- .... ....|--- .... ....
....|..|C-4 AF.F ....|D#4 2F37 ....|C-5 3F.F ....
 C#4|..|C#2 2A.F ....|--- .... ....|--- .... ....
....|..|C-4 AF.F ....|C#4 2F5F ....|A#4 3F.F ....
 C#4|..|C#2 2A.F ....|--- .... ....|--- .... ....
....|..|C-4 AF.F ....|C#4 2F5A ....|C#5 3F.F ....
 C#3|..|C#1 2A.F ....|--- .... ....|--- .... ....
....|..|C-4 AF.F ....|D#4 2F37 ....|C-5 3F.F ....
 C#3|..|C#1 2A.F ....|--- .... ....|--- .... ....
....|..|C-4 AF.F ....|C#4 2F5F ....|F-4 3F.F ....
 C#4|..|C#2 2A.F ....|--- .... ....|--- .... ....
....|..|C-4 AF.F ....|D#4 2F37 ....|C#5 3F.F ....
 C#4|..|C#2 2A.F ....|--- .... ....|--- .... ....
....|..|C-4 AF.F ....|R-- .... ....|C#5 3F.F ....
 C#3|..|C#1 2A.F ....|--- .... ....|--- .... ....
....|..|C-4 AF.F ....|C#4 2F5F ....|F-4 3F.F ....
 C#4|..|C#2 2A.F ....|--- .... ....|--- .... ....
....|..|C-4 AF.F ....|C#4 2F57 ....|C-5 3F.F ....
....|..|C#1 2F.7 ....|--- .... ....|--- .... ....
....|..|C-4 AF.F ....|C#4 2F5F ....|C#5 3F.F ....
....|..|C#1 2F.A ....|--- .... ....|--- .... ....
....|..|C-4 AF.F ....|C#4 2F57 ....|F-5 3F.F ....
....|..|C#1 2F.7 ....|--- .... ....|--- .... ....
....|..|C-4 AF.F ....|C#4 2F5F ....|C-5 3F.F ....
....|..|C#1 2F.7 ....|--- .... ....|--- .... ....

[Pattern18]
....|..|C-4 AF.F ....|C-4 2F1F ....|C-4 3F.F ....
 F-3|..|F-1 2A.F ....|--- .... ....|--- .... ....
....|..|C-4 AF.F ....|C#4 2F57 ....|F-5 3F.F ....
....|..|C#2 2F.7 ....|--- .... ....|--- .... ....
....|..|C-4 AF.F ....|C-4 2F1F ....|F-4 3F.F ....
 F-3|..|F-1 2A.F ....|--- .... ....|--- .... ....
....|..|C-4 AF.F ....|C#4 2F5A ....|C-4 3F.F ....
 F-3|..|F-1 2A.F ....|--- .... ....|--- .... ....
....|..|C-4 AF.F ....|C#4 2F57 ....|G-4 3F.F ....
 F-4|..|F-2 2A.F ....|--- .... ....|--- .... ....
....|..|C-4 AF.F ....|C-4 2F1F ....|F-4 3F.F ....
 F-4|..|F-2 2A.F ....|--- .... ....|--- .... ....
....|..|C-4 AF.F ....|C-4 2F1A ....|G#4 3F.F ....
 F-3|..|F-1 2A.F ....|--- .... ....|--- .... ....
....|..|C-4 AF.F ....|C#4 2F57 ....|G-4 3F.F ....
 F-3|..|F-1 2A.F ....|--- .... ....|--- .... ....
....|..|C-4 AF.F ....|C-4 2F1F ....|C-4 3F.F ....
 F-4|..|F-2 2A.F ....|--- .... ....|--- .... ....
....|..|C-4 AF.F ....|C#4 2F57 ....|G#4 3F.F ....
 F-4|..|F-2 2A.F ....|--- .... ....|--- .... ....
....|..|C-4 AF.F ....|R-- .... ....|G#4 3F.F ....
 F-3|..|F-1 2A.F ....|--- .... ....|--- .... ....
....|..|C-4 AF.F ....|C-4 2F1F ....|C-4 3F.F ....
 F-4|..|F-2 2A.F ....|--- .... ....|--- .... ....
....|..|C-4 AF.F ....|C-4 2F17 ....|G-4 3F.F ....
....|..|F-1 2F.7 ....|--- .... ....|--- .... ....
....|..|C-4 AF.F ....|C-4 2F1F ....|G#4 3F.F ....
....|..|F-1 2F.A ....|--- .... ....|--- .... ....
....|..|C-4 AF.F ....|C-4 2F17 ....|C-5 3F.F ....
....|..|F-1 2F.7 ....|--- .... ....|--- .... ....
....|..|C-4 AF.F ....|C-4 2F1F ....|G-4 3F.F ....
....|..|F-1 2F.7 ....|--- .... ....|--- .... ....
....|..|C-4 AF.F ....|D-4 2F1F ....|D-4 3F.F ....
 G-3|..|G-1 2A.F ....|--- .... ....|--- .... ....
....|..|C-4 AF.F ....|C-4 2F17 ....|C-5 3F.F ....
....|..|F-2 2F.7 ....|--- .... ....|--- .... ....
....|..|C-4 AF.F ....|D-4 2F1F ....|G-4 3F.F ....
 G-3|..|G-1 2A.F ....|--- .... ....|--- .... ....
....|..|C-4 AF.F ....|C-4 2F1A ....|D-4 3F.F ....
 G-3|..|G-1 2A.F ....|--- .... ....|--- .... ....
....|..|C-4 AF.F ....|C-4 2F17 ....|A-4 3F.F ....
 G-4|..|G-2 2A.F ....|--- .... ....|--- .... ....
....|..|C-4 AF.F ....|D-4 2F1F ....|G-4 3F.F ....
 G-4|..|G-2 2A.F ....|--- .... ....|--- .... ....
....|..|C-4 AF.F ....|D-4 2F1A ....|A#4 3F.F ....
 G-3|..|G-1 2A.F ....|--- .... ....|--- .... ....
....|..|C-4 AF.F ....|C-4 2F17 ....|A-4 3F.F ....
 G-3|..|G-1 2A.F ....|--- .... ....|--- .... ....
....|..|C-4 AF.F ....|D-4 2F1F ....|D-4 3F.F ....
 G-4|..|G-2 2A.F ....|--- .... ....|--- .... ....
....|..|C-4 AF.F ....|C-4 2F17 ....|A#4 3F.F ....
 G-4|..|G-2 2A.F ....|--- .... ....|--- .... ....
....|..|C-4 AF.F ....|R-- .... ....|A#4 3F.F ....
 G-3|..|G-1 2A.F ....|--- .... ....|--- .... ....
....|..|C-4 AF.F ....|D-4 2F1F ....|D-4 3F.F ....
 G-4|..|G-2 2A.F ....|--- .... ....|--- .... ....
....|..|C-4 AF.F ....|D-4 2F17 ....|A-4 3F.F ....
....|..|G-1 2F.7 ....|--- .... ....|--- .... ....
....|..|C-4 AF.F ....|D-4 2F1F ....|A#4 3F.F ....
....|..|G-1 2F.A ....|--- .... ....|--- .... ....
....|..|C-4 AF.F ....|D-4 2F17 ....|D-5 3F.F ....
....|..|G-1 2F.7 ....|--- .... ....|--- .... ....
....|..|C-4 AF.F ....|D-4 2F1F ....|A-4 3F.F ....
....|..|G-1 2F.7 ....|--- .... ....|--- .... ....

[Pattern19]
....|..|C-4 AF.F ....|D#4 2F3F ....|D#4 3F.F ....
 G#3|..|G#1 2A.F ....|--- .... ....|--- .... ....
....|..|C-4 AF.F ....|D-4 2F17 ....|D-5 3F.F ....
....|..|G-2 2F.7 ....|--- .... ....|--- .... ....
....|..|C-4 AF.F ....|D#4 2F3F ....|G#4 3F.F ....
 G#3|..|G#1 2A.F ....|--- .... ....|--- .... ....
....|..|C-4 AF.F ....|D-4 2F1A ....|D#4 3F.F ....
 G#3|..|G#1 2A.F ....|--- .... ....|--- .... ....
....|..|C-4 AF.F ....|D-4 2F17 ....|A#4 3F.F ....
 G#4|..|G#2 2A.F ....|--- .... ....|--- .... ....
....|..|C-4 AF.F ....|D#4 2F3F ....|G#4 3F.F ....
 G#4|..|G#2 2A.F ....|--- .... ....|--- .... ....
....|..|C-4 AF.F ....|D#4 2F3A ....|C-5 3F.F ....
 G#3|..|G#1 2A.F ....|--- .... ....|--- .... ....
....|..|C-4 AF.F ....|D-4 2F17 ....|A#4 3F.F ....
 G#3|..|G#1 2A.F ....|--- .... ....|--- .... ....
....|..|C-4 AF.F ....|D#4 2F3F ....|D#4 3F.F ....
 G#4|..|G#2 2A.F ....|--- .... ....|--- .... ....
....|..|C-4 AF.F ....|D-4 2F17 ....|C-5 3F.F ....
 G#4|..|G#2 2A.F ....|--- .... ....|--- .... ....
....|..|C-4 AF.F ....|R-- .... ....|C-5 3F.F ....
 G#3|..|G#1 2A.F ....|--- .... ....|--- .... ....
....|..|C-4 AF.F ....|D#4 2F3F ....|D#4 3F.F ....
 G#4|..|G#2 2A.F ....|--- .... ....|--- .... ....
....|..|C-4 AF.F ....|D#4 2F37 ....|A#4 3F.F ....
....|..|G#1 2F.7 ....|--- .... ....|--- .... ....
....|..|C-4 AF.F ....|D#4 2F3F ....|C-5 3F.F ....
....|..|G#1 2F.A ....|--- .... ....|--- .... ....
....|..|C-4 AF.F ....|D#4 2F37 ....|D#5 3F.F ....
....|..|G#1 2F.7 ....|--- .... ....|--- .... ....
....|..|C-4 AF.F ....|D#4 2F3F ....|A#4 3F.F ....
....|..|G#1 2F.7 ....|--- .... ....|--- .... ....
....|..|C-4 AF.F ....|C#4 2F5F ....|F-4 3F.F ....
 C#3|..|C#1 2A.F ....|--- .... ....|--- .... ....
....|..|C-4 AF.F ....|D#4 2F37 ....|D#5 3F.F ....
....|..|G#2 2F.7 ....|--- .... ....|--- .... ....
....|..|C-4 AF.F ....|C#4 2F5F ....|A#4 3F.F ....
 C#3|..|C#1 2A.F ....|--- .... ....|--- .... ....
....|..|C-4 AF.F ....|D#4 2F3A ....|F-4 3F.F ....
 C#3|..|C#1 2A.F ....|--- .... ....|--- .... ....
....|..|C-4 AF.F ....|D#4 2F37 ....|C-5 3F.F ....
 C#4|..|C#2 2A.F ....|--- .... ....|--- .... ....
....|..|C-4 AF.F ....|C#4 2F5F ....|A#4 3F.F ....
 C#4|..|C#2 2A.F ....|--- .... ....|--- .... ....
....|..|C-4 AF.F ....|C#4 2F5A ....|C#5 3F.F ....
 C#3|..|C#1 2A.F ....|--- .... ....|--- .... ....
....|..|C-4 AF.F ....|D#4 2F37 ....|C-5 3F.F ....
 C#3|..|C#1 2A.F ....|--- .... ....|--- .... ....
....|..|C-4 AF.F ....|C#4 2F5F ....|F-4 3F.F ....
 C#4|..|C#2 2A.F ....|--- .... ....|--- .... ....
....|..|C-4 AF.F ....|D#4 2F37 ....|C#5 3F.F ....
 C#4|..|C#2 2A.F ....|--- .... ....|--- .... ....
....|..|C-3 RF.F ....|R-- .... ....|C#5 3F.F ....
 C#3|..|C#1 2A.F ....|--- .... ....|--- .... ....
....|..|C-4 AF.F ....|C#4 2F5F ....|F-4 3F.F ....
 C#4|..|C#2 2A.F ....|--- .... ....|--- .... ....
....|..|C-4 AF.F ....|C#4 2F57 ....|C-5 3F.F ....
....|..|C#1 2F.7 ....|--- .... ....|--- .... ....
....|..|C-4 AF.F ....|C#4 2F5F ....|C#5 3F.F ....
....|..|C#1 2F.A ....|--- .... ....|--- .... ....
....|..|C-4 AF.F ....|C#4 2F57 ....|F-5 3F.F ....
....|..|C#1 2F.7 ....|--- .... ....|--- .... ....
....|..|C-4 AF.F ....|C#4 2F5F ....|C-5 3F.F ....
....|..|C#1 2F.7 ....|--- .... ....|--- .... ....

[Pattern20]
....|..|C-4 AF.F ....|A-4 2F1F ....|A-4 3F.F ....
 D-4|..|D-2 2A.F ....|--- .... ....|--- .... ....
....|..|C-4 AF.F ....|C#4 2F57 ....|A#4 3F.7 ....
....|..|C#2 2F.7 ....|--- .... ....|--- .... ....
....|..|C-4 AF.F ....|A-4 2F1F ....|C#5 3F.7 ....
 D-4|..|D-2 2A.F ....|--- .... ....|--- .... ....
....|..|C-4 AF.F ....|C#4 2F5A ....|C-5 3F.7 ....
 D-4|..|D-2 2A.F ....|--- .... ....|--- .... ....
....|..|C-4 AF.F ....|C#4 2F57 ....|A-4 3F.F ....
 D-4|..|D-3 2C.F ....|--- .... ....|--- .... ....
....|..|C-4 AF.F ....|A-4 2F1F ....|C#5 3F.7 ....
 D-4|..|D-3 2C.F ....|--- .... ....|--- .... ....
....|..|C-4 AF.F ....|A-4 2F1A ....|C#5 3F.7 ....
 D-4|..|D-2 2A.F ....|--- .... ....|--- .... ....
....|..|C-4 AF.F ....|C#4 2F57 ....|F-4 3F.7 ....
 D-4|..|D-2 2A.F ....|--- .... ....|--- .... ....
....|..|C-4 AF.F ....|A-4 2F1F ....|A-4 3F.F ....
 D-4|..|D-3 2C.F ....|--- .... ....|--- .... ....
....|..|C-4 AF.F ....|C#4 2F57 ....|C#5 3F.7 ....
 D-4|..|D-3 2C.F ....|--- .... ....|--- .... ....
....|..|C-4 AF.F ....|R-- .... ....|F-5 3F.7 ....
 D-4|..|D-2 2A.F ....|--- .... ....|--- .... ....
....|..|C-4 AF.F ....|A-4 2F1F ....|C-5 3F.7 ....
 D-4|..|D-3 2C.F ....|--- .... ....|--- .... ....
....|..|C-4 AF.F ....|A-4 2F17 ....|C-5 3F.F ....
....|..|D-2 2F.7 ....|--- .... ....|--- .... ....
....|..|C-4 AF.F ....|A-4 2F1F ....|D-4 3F.F ....
....|..|D-2 2F.A ....|--- .... ....|--- .... ....
....|..|C-4 AF.F ....|A-4 2F17 ....|A#4 3F.F ....
....|..|D-2 2F.7 ....|--- .... ....|--- .... ....
....|..|C-4 AF.F ....|A-4 2F1F ....|D-4 3F.F ....
....|..|D-2 2F.7 ....|--- .... ....|--- .... ....
....|..|C-4 AF.F ....|A-4 2F2F ....|A-4 3F.F ....
 C-4|..|C-2 2A.F ....|--- .... ....|--- .... ....
....|..|C-4 AF.F ....|A-4 2F17 ....|--- .... ....
....|..|D-3 2F.7 ....|--- .... ....|--- .... ....
....|..|C-4 AF.F ....|A-4 2F2F ....|A#4 3F.F ....
 C-4|..|C-2 2A.F ....|--- .... ....|--- .... ....
....|..|C-4 AF.F ....|A-4 2F1A ....|D-4 3F.F ....
 C-4|..|C-2 2A.F ....|--- .... ....|--- .... ....
....|..|C-4 AF.F ....|A-4 2F17 ....|A-4 3F.F ....
 C-3|..|C-3 2C.F ....|--- .... ....|--- .... ....
....|..|C-4 AF.F ....|A-4 2F2F ....|D-4 3F.A ....
 C-3|..|C-3 2C.F ....|--- .... ....|--- .... ....
....|..|C-4 AF.F ....|A-4 2F2A ....|A#4 3F.F ....
 C-4|..|C-2 2A.F ....|--- .... ....|--- .... ....
....|..|C-4 AF.F ....|A-4 2F17 ....|D-4 3F.F ....
 C-4|..|C-2 2A.F ....|--- .... ....|--- .... ....
....|..|C-4 AF.F ....|A-4 2F2F ....|A-4 3F.F ....
 C-3|..|C-3 2C.F ....|--- .... ....|--- .... ....
....|..|C-4 AF.F ....|A-4 2F17 ....|D-4 3F.7 ....
 C-3|..|C-3 2C.F ....|--- .... ....|--- .... ....
....|..|C-4 AF.F ....|R-- .... ....|A#4 3F.7 ....
 C-4|..|C-2 2A.F ....|--- .... ....|--- .... ....
....|..|C-4 AF.F ....|A-4 2F2F ....|D-4 3F.7 ....
 C-3|..|C-3 2C.F ....|--- .... ....|--- .... ....
....|..|C-4 AF.F ....|A-4 2F27 ....|C-5 3F.F ....
....|..|C-2 2F.7 ....|--- .... ....|--- .... ....
....|..|C-4 AF.F ....|A-4 2F2F ....|C-4 3F.F ....
....|..|C-2 2F.A ....|--- .... ....|--- .... ....
....|..|C-4 AF.F ....|A-4 2F27 ....|A#4 3F.F ....
....|..|C-2 2F.7 ....|--- .... ....|--- .... ....
....|..|C-4 AF.F ....|A-4 2F2F ....|C-4 3F.F ....
....|..|C-2 2F.7 ....|--- .... ....|--- .... ....

[Pattern24]
....|..|C-4 AF.F ....|C-4 2F1F ....|C-5 3F.F ....
 F-4|..|F-2 2A.F ....|--- .... ....|--- .... ....
....|..|C-4 AF.F ....|G-4 2F47 ....|--- .... ....
....|..|G-2 2F.7 ....|--- .... ....|--- .... ....
....|..|C-4 AF.F ....|C-4 2F1F ....|G-4 3F.7 ....
 F-4|..|F-2 2A.F ....|--- .... ....|--- .... ....
....|..|C-4 AF.F ....|G-4 2F4A ....|C-4 3F.7 ....
 F-4|..|F-2 2A.F ....|--- .... ....|--- .... ....
....|..|C-4 AF.F ....|G-4 2F47 ....|C-5 3F.F ....
 F-4|..|F-3 2C.F ....|--- .... ....|--- .... ....
....|..|C-4 AF.F ....|C-4 2F1F ....|--- .... ....
 F-4|..|F-3 2C.F ....|--- .... ....|--- .... ....
....|..|C-4 AF.F ....|C-4 2F1A ....|C-5 3F.A ....
 F-4|..|F-2 2A.F ....|--- .... ....|--- .... ....
....|..|C-4 AF.F ....|G-4 2F47 ....|--- .... ....
 F-4|..|F-2 2A.F ....|--- .... ....|--- .... ....
....|..|C-4 AF.F ....|C-4 2F1F ....|C-5 3F.F ....
 F-4|..|F-3 2C.F ....|--- .... ....|--- .... ....
....|..|C-4 AF.F ....|G-4 2F47 ....|--- .... ....
 F-4|..|F-3 2C.F ....|--- .... ....|--- .... ....
....|..|C-4 AF.F ....|R-- .... ....|C-5 3F.A ....
 F-4|..|F-2 2A.F ....|--- .... ....|--- .... ....
....|..|C-4 AF.F ....|C-4 2F1F ....|--- .... ....
 F-4|..|F-3 2C.F ....|--- .... ....|--- .... ....
....|..|C-4 AF.F ....|C-4 2F17 ....|F-5 3F.F ....
....|..|F-2 2F.7 ....|--- .... ....|--- .... ....
....|..|C-4 AF.F ....|C-4 2F1F ....|C-5 3F.F ....
....|..|F-2 2F.A ....|--- .... ....|--- .... ....
....|..|C-4 AF.F ....|C-4 2F17 ....|G-5 3F.F ....
....|..|F-2 2F.7 ....|--- .... ....|--- .... ....
....|..|C-4 AF.F ....|C-4 2F1F ....|C-5 3F.F ....
....|..|F-2 2F.7 ....|--- .... ....|--- .... ....
....|..|C-4 AF.F ....|C-4 2F4F ....|G#5 3F.F ....
 D#4|..|D#2 2A.F ....|--- .... ....|--- .... ....
....|..|C-4 AF.F ....|C-4 2F17 ....|--- .... ....
....|..|F-3 2F.7 ....|--- .... ....|--- .... ....
....|..|C-4 AF.F ....|C-4 2F4F ....|G-5 3F.F ....
 D#4|..|D#2 2A.F ....|--- .... ....|--- .... ....
....|..|C-4 AF.F ....|C-4 2F1A ....|C-5 3F.F ....
 D#4|..|D#2 2A.F ....|--- .... ....|--- .... ....
....|..|C-4 AF.F ....|C-4 2F17 ....|G#5 3F.F ....
 D#4|..|D#3 2C.F ....|--- .... ....|--- .... ....
....|..|C-4 AF.F ....|C-4 2F4F ....|C-5 3F.A ....
 D#4|..|D#3 2C.F ....|--- .... ....|--- .... ....
....|..|C-4 AF.F ....|C-4 2F4A ....|G-5 3F.F ....
 D#4|..|D#2 2A.F ....|--- .... ....|--- .... ....
....|..|C-4 AF.F ....|C-4 2F17 ....|C-5 3F.F ....
 D#4|..|D#2 2A.F ....|--- .... ....|--- .... ....
....|..|C-4 AF.F ....|C-4 2F4F ....|G#5 3F.F ....
 D#4|..|D#3 2C.F ....|--- .... ....|--- .... ....
....|..|C-4 AF.F ....|C-4 2F17 ....|C-5 3F.7 ....
 D#4|..|D#3 2C.F ....|--- .... ....|--- .... ....
....|..|C-4 AF.F ....|R-- .... ....|G-5 3F.7 ....
 D#4|..|D#2 2A.F ....|--- .... ....|--- .... ....
....|..|C-4 AF.F ....|C-4 2F4F ....|C-5 3F.7 ....
 D#4|..|D#3 2C.F ....|--- .... ....|--- .... ....
....|..|C-4 AF.F ....|C-4 2F47 ....|G-5 3F.F ....
....|..|D#2 2F.7 ....|--- .... ....|--- .... ....
....|..|C-4 AF.F ....|C-4 2F4F ....|C-5 3F.F ....
....|..|D#2 2F.A ....|--- .... ....|--- .... ....
....|..|C-4 AF.F ....|C-4 2F47 ....|G#5 3F.F ....
....|..|D#2 2F.7 ....|--- .... ....|--- .... ....
....|..|C-4 AF.F ....|C-4 2F4F ....|C-5 3F.F ....
....|..|D#2 2F.7 ....|--- .... ....|--- .... ....

[Pattern25]
....|..|C-4 AF.F ....|C#4 2F6F ....|A#5 3F.F ....
 C#4|..|C#2 2A.F ....|--- .... ....|--- .... ....
....|..|C-4 AF.F ....|C-4 2F47 ....|--- .... ....
....|..|D#3 2F.7 ....|--- .... ....|--- .... ....
....|..|C-4 AF.F ....|C#4 2F6F ....|G#5 3F.F ....
 C#4|..|C#2 2A.F ....|--- .... ....|--- .... ....
....|..|C-4 AF.F ....|C-4 2F4A ....|C-5 3F.F ....
 C#4|..|C#2 2A.F ....|--- .... ....|--- .... ....
....|..|C-4 AF.F ....|C-4 2F47 ....|A#5 3F.F ....
 C#4|..|C#3 2C.F ....|--- .... ....|--- .... ....
....|..|C-4 AF.F ....|C#4 2F6F ....|C-5 3F.A ....
 C#4|..|C#3 2C.F ....|--- .... ....|--- .... ....
....|..|C-4 AF.F ....|C#4 2F6A ....|G#5 3F.F ....
 C#4|..|C#2 2A.F ....|--- .... ....|--- .... ....
....|..|C-4 AF.F ....|C-4 2F47 ....|C-5 3F.F ....
 C#4|..|C#2 2A.F ....|--- .... ....|--- .... ....
....|..|C-4 AF.F ....|C#4 2F6F ....|A#5 3F.F ....
 C#4|..|C#3 2C.F ....|--- .... ....|--- .... ....
....|..|C-4 AF.F ....|C-4 2F47 ....|C-5 3F.7 ....
 C#4|..|C#3 2C.F ....|--- .... ....|--- .... ....
....|..|C-4 AF.F ....|R-- .... ....|G#5 3F.7 ....
 C#4|..|C#2 2A.F ....|--- .... ....|--- .... ....
....|..|C-4 AF.F ....|C#4 2F6F ....|C-5 3F.7 ....
 C#4|..|C#3 2C.F ....|--- .... ....|--- .... ....
....|..|C-4 AF.F ....|C#4 2F67 ....|A#5 3F.F ....
....|..|C#2 2F.7 ....|--- .... ....|--- .... ....
....|..|C-4 AF.F ....|C#4 2F6F ....|C#5 3F.F ....
....|..|C#2 2F.A ....|--- .... ....|--- .... ....
....|..|C-4 AF.F ....|C#4 2F67 ....|C-6 3F.F ....
....|..|C#2 2F.7 ....|--- .... ....|--- .... ....
....|..|C-4 AF.F ....|C#4 2F6F ....|C#5 3F.F ....
....|..|C#2 2F.7 ....|--- .... ....|--- .... ....
....|..|C-4 AF.F ....|C#4 2F5F ....|C#6 3F.F ....
 A#3|..|A#1 2A.F ....|--- .... ....|--- .... ....
....|..|C-4 AF.F ....|C#4 2F67 ....|--- .... ....
....|..|C#3 2F.7 ....|--- .... ....|--- .... ....
....|..|C-4 AF.F ....|C#4 2F5F ....|C-6 3F.F ....
 A#3|..|A#1 2A.F ....|--- .... ....|--- .... ....
....|..|C-4 AF.F ....|C#4 2F6A ....|C#5 3F.F ....
 A#3|..|A#1 2A.F ....|--- .... ....|--- .... ....
....|..|C-4 AF.F ....|C#4 2F67 ....|C#6 3F.F ....
 A#3|..|A#2 2C.F ....|--- .... ....|--- .... ....
....|..|C-4 AF.F ....|C#4 2F5F ....|C#5 3F.A ....
 A#3|..|A#2 2C.F ....|--- .... ....|--- .... ....
....|..|C-4 AF.F ....|C#4 2F5A ....|C-6 3F.F ....
 A#3|..|A#1 2A.F ....|--- .... ....|--- .... ....
....|..|C-4 AF.F ....|C#4 2F67 ....|--- .... ....
 A#3|..|A#1 2A.F ....|--- .... ....|--- .... ....
....|..|C-4 AF.F ....|C#4 2F5F ....|C#6 3F.F ....
 A#3|..|A#2 2C.F ....|--- .... ....|--- .... ....
....|..|C-4 AF.F ....|C#4 2F67 ....|C#5 3F.7 ....
 A#3|..|A#2 2C.F ....|--- .... ....|--- .... ....
....|..|C-4 AF.F ....|R-- .... ....|C-6 3F.F ....
 A#3|..|A#1 2A.F ....|--- .... ....|--- .... ....
....|..|C-4 AF.F ....|C#4 2F5F ....|C#5 3F.7 ....
 A#3|..|A#2 2C.F ....|--- .... ....|--- .... ....
....|..|C-4 AF.F ....|C#4 2F57 ....|A#5 3F.F ....
....|..|A#1 2F.7 ....|--- .... ....|--- .... ....
....|..|C-4 AF.F ....|C#4 2F5F ....|--- .... ....
....|..|A#1 2F.A ....|--- .... ....|--- .... ....
....|..|C-4 AF.F ....|C#4 2F57 ....|C-6 3F.F ....
....|..|A#1 2F.7 ....|--- .... ....|--- .... ....
....|..|C-4 AF.F ....|C#4 2F5F ....|C#5 3F.7 ....
....|..|A#1 2F.7 ....|--- .... ....|--- .... ....

[Pattern26]
....|..|C-4 AF.F ....|C-4 2F1F ....|C-5 3F.F ....
 F-4|..|F-2 2A.F ....|--- .... ....|--- .... ....
....|..|C-4 AF.F ....|C#4 2F57 ....|--- .... ....
....|..|A#2 2F.7 ....|--- .... ....|--- .... ....
....|..|C-4 AF.F ....|C-4 2F1F ....|C-6 3F.7 ....
 F-4|..|F-2 2A.F ....|--- .... ....|--- .... ....
....|..|C-4 AF.F ....|C#4 2F5A ....|--- .... ....
 F-4|..|F-2 2A.F ....|--- .... ....|--- .... ....
....|..|C-4 AF.F ....|C#4 2F57 ....|C-5 3F.F ....
 F-4|..|F-3 2C.F ....|--- .... ....|--- .... ....
....|..|C-4 AF.F ....|C-4 2F1F ....|--- .... ....
 F-4|..|F-3 2C.F ....|--- .... ....|--- .... ....
....|..|C-4 AF.F ....|C-4 2F1A ....|C-6 3F.7 ....
 F-4|..|F-2 2A.F ....|--- .... ....|--- .... ....
....|..|C-4 AF.F ....|C#4 2F57 ....|--- .... ....
 F-4|..|F-2 2A.F ....|--- .... ....|--- .... ....
....|..|C-4 AF.F ....|C-4 2F1F ....|C-5 3F.F ....
 F-4|..|F-3 2C.F ....|--- .... ....|--- .... ....
....|..|C-4 AF.F ....|C#4 2F57 ....|--- .... ....
 F-4|..|F-3 2C.F ....|--- .... ....|--- .... ....
....|..|C-4 AF.F ....|R-- .... ....|C-6 3F.7 ....
 F-4|..|F-2 2A.F ....|--- .... ....|--- .... ....
....|..|C-4 AF.F ....|C-4 2F1F ....|--- .... ....
 F-4|..|F-3 2C.F ....|--- .... ....|--- .... ....
....|..|C-4 AF.F ....|C-4 2F17 ....|F-5 3F.F ....
....|..|F-2 2F.7 ....|--- .... ....|--- .... ....
....|..|C-4 AF.F ....|C-4 2F1F ....|C-5 3F.F ....
....|..|F-2 2F.A ....|--- .... ....|--- .... ....
....|..|C-4 AF.F ....|C-4 2F17 ....|G-5 3F.F ....
....|..|F-2 2F.7 ....|--- .... ....|--- .... ....
....|..|C-4 AF.F ....|C-4 2F1F ....|C-5 3F.F ....
....|..|F-2 2F.7 ....|--- .... ....|--- .... ....
....|..|C-4 AF.F ....|C-4 2F4F ....|G#5 3F.F ....
 D#4|..|D#2 2A.F ....|--- .... ....|--- .... ....
....|..|C-4 AF.F ....|C-4 2F17 ....|--- .... ....
....|..|F-3 2F.7 ....|--- .... ....|--- .... ....
....|..|C-4 AF.F ....|C-4 2F4F ....|G-5 3F.F ....
 D#4|..|D#2 2A.F ....|--- .... ....|--- .... ....
....|..|C-4 AF.F ....|C-4 2F1A ....|C-5 3F.F ....
 D#4|..|D#2 2A.F ....|--- .... ....|--- .... ....
....|..|C-4 AF.F ....|C-4 2F17 ....|G#5 3F.F ....
 D#4|..|D#3 2C.F ....|--- .... ....|--- .... ....
....|..|C-4 AF.F ....|C-4 2F4F ....|C-5 3F.A ....
 D#4|..|D#3 2C.F ....|--- .... ....|--- .... ....
....|..|C-4 AF.F ....|C-4 2F4A ....|G-5 3F.F ....
 D#4|..|D#2 2A.F ....|--- .... ....|--- .... ....
....|..|C-4 AF.F ....|C-4 2F17 ....|C-5 3F.F ....
 D#4|..|D#2 2A.F ....|--- .... ....|--- .... ....
....|..|C-4 AF.F ....|C-4 2F4F ....|G#5 3F.F ....
 D#4|..|D#3 2C.F ....|--- .... ....|--- .... ....
....|..|C-4 AF.F ....|C-4 2F17 ....|C-5 3F.7 ....
 D#4|..|D#3 2C.F ....|--- .... ....|--- .... ....
....|..|C-4 AF.F ....|R-- .... ....|G-5 3F.7 ....
 D#4|..|D#2 2A.F ....|--- .... ....|--- .... ....
....|..|C-4 AF.F ....|C-4 2F4F ....|C-5 3F.7 ....
 D#4|..|D#3 2C.F ....|--- .... ....|--- .... ....
....|..|C-4 AF.F ....|C-4 2F47 ....|G-5 3F.F ....
....|..|D#2 2F.7 ....|--- .... ....|--- .... ....
....|..|C-4 AF.F ....|C-4 2F4F ....|C-5 3F.F ....
....|..|D#2 2F.A ....|--- .... ....|--- .... ....
....|..|C-4 AF.F ....|C-4 2F47 ....|G#5 3F.F ....
....|..|D#2 2F.7 ....|--- .... ....|--- .... ....
....|..|C-4 AF.F ....|C-4 2F4F ....|C-5 3F.F ....
....|..|D#2 2F.7 ....|--- .... ....|--- .... ....

[Pattern27]
....|..|C-4 AF.F ....|C#4 2F6F ....|A#5 3F.F ....
 C#4|..|C#2 2A.F ....|--- .... ....|--- .... ....
....|..|C-4 AF.F ....|C-4 2F47 ....|--- .... ....
....|..|D#3 2F.7 ....|--- .... ....|--- .... ....
....|..|C-4 AF.F ....|C#4 2F6F ....|G#5 3F.F ....
 C#4|..|C#2 2A.F ....|--- .... ....|--- .... ....
....|..|C-4 AF.F ....|C-4 2F4A ....|C-5 3F.F ....
 C#4|..|C#2 2A.F ....|--- .... ....|--- .... ....
....|..|C-4 AF.F ....|C-4 2F47 ....|A#5 3F.F ....
 C#4|..|C#3 2C.F ....|--- .... ....|--- .... ....
....|..|C-4 AF.F ....|C#4 2F6F ....|C-5 3F.A ....
 C#4|..|C#3 2C.F ....|--- .... ....|--- .... ....
....|..|C-4 AF.F ....|C#4 2F6A ....|G#5 3F.F ....
 C#4|..|C#2 2A.F ....|--- .... ....|--- .... ....
....|..|C-4 AF.F ....|C-4 2F47 ....|C-5 3F.F ....
 C#4|..|C#2 2A.F ....|--- .... ....|--- .... ....
....|..|C-4 AF.F ....|C#4 2F6F ....|A#5 3F.F ....
 C#4|..|C#3 2C.F ....|--- .... ....|--- .... ....
....|..|C-4 AF.F ....|C-4 2F47 ....|C-5 3F.7 ....
 C#4|..|C#3 2C.F ....|--- .... ....|--- .... ....
....|..|C-4 AF.F ....|R-- .... ....|G#5 3F.7 ....
 C#4|..|C#2 2A.F ....|--- .... ....|--- .... ....
....|..|C-4 AF.F ....|C#4 2F6F ....|C-5 3F.7 ....
 C#4|..|C#3 2C.F ....|--- .... ....|--- .... ....
....|..|C-4 AF.F ....|C#4 2F67 ....|A#5 3F.F ....
....|..|C#2 2F.7 ....|--- .... ....|--- .... ....
....|..|C-4 AF.F ....|C#4 2F6F ....|C#5 3F.F ....
....|..|C#2 2F.A ....|--- .... ....|--- .... ....
....|..|C-4 AF.F ....|C#4 2F67 ....|C-6 3F.F ....
....|..|C#2 2F.7 ....|--- .... ....|--- .... ....
....|..|C-4 AF.F ....|C#4 2F6F ....|C#5 3F.F ....
....|..|C#2 2F.7 ....|--- .... ....|--- .... ....
....|..|C-4 AF.F ....|C#4 2F5F ....|C#6 3F.F ....
 A#3|..|A#1 2A.F ....|--- .... ....|--- .... ....
....|..|C-4 AF.F ....|C#4 2F67 ....|--- .... ....
....|..|C#3 2F.7 ....|--- .... ....|--- .... ....
....|..|C-4 AF.F ....|C#4 2F5F ....|C-6 3F.F ....
 A#3|..|A#1 2A.F ....|--- .... ....|--- .... ....
....|..|C-4 AF.F ....|C#4 2F6A ....|C#5 3F.F ....
 A#3|..|A#1 2A.F ....|--- .... ....|--- .... ....
....|..|C-4 AF.F ....|C#4 2F67 ....|C#6 3F.F ....
 A#3|..|A#2 2C.F ....|--- .... ....|--- .... ....
....|..|C-4 AF.F ....|C#4 2F5F ....|C#5 3F.A ....
 A#3|..|A#2 2C.F ....|--- .... ....|--- .... ....
....|..|C-4 AF.F ....|C#4 2F5A ....|C-6 3F.F ....
 A#3|..|A#1 2A.F ....|--- .... ....|--- .... ....
....|..|C-4 AF.F ....|C#4 2F67 ....|--- .... ....
 A#3|..|A#1 2A.F ....|--- .... ....|--- .... ....
....|..|C-4 AF.F ....|C#4 2F5F ....|C#6 3F.F ....
 A#3|..|A#2 2C.F ....|--- .... ....|--- .... ....
....|..|C-4 AF.F ....|C#4 2F67 ....|C#5 3F.7 ....
 A#3|..|A#2 2C.F ....|--- .... ....|--- .... ....
....|..|C-3 RF.F ....|R-- .... ....|C-6 3F.F ....
 A#3|..|A#1 2A.F ....|--- .... ....|--- .... ....
....|..|C-4 AF.F ....|C#4 2F5F ....|C#5 3F.7 ....
 A#3|..|A#2 2C.F ....|--- .... ....|--- .... ....
....|..|C-4 AF.F ....|C#4 2F57 ....|A#5 3F.F ....
....|..|A#1 2F.7 ....|--- .... ....|--- .... ....
....|..|C-4 AF.F ....|C#4 2F5F ....|--- .... ....
....|..|A#1 2F.A ....|--- .... ....|--- .... ....
....|..|C-4 AF.F ....|C#4 2F57 ....|C-6 3F.F ....
....|..|A#1 2F.7 ....|--- .... ....|--- .... ....
....|..|C-4 AF.F ....|C#4 2F5F ....|C#5 3F.7 ....
....|..|A#1 2F.7 ....|--- .... ....|--- .... ....

[Pattern28]
....|..|C-4 AF.F ....|C-4 2F1F ....|C-4 3F.F ....
 F-3|..|F-1 2A.F ....|--- .... ....|--- .... ....
....|..|C-4 AF.F ....|C#4 2F57 ....|--- .... ....
....|..|A#2 2F.7 ....|--- .... ....|--- .... ....
....|..|C-4 AF.F ....|C-4 2F1F ....|F-4 3F.F ....
 F-3|..|F-1 2A.F ....|--- .... ....|--- .... ....
....|..|C-4 AF.F ....|C#4 2F5A ....|C-4 3F.F ....
 F-3|..|F-1 2A.F ....|--- .... ....|--- .... ....
....|..|C-4 AF.F ....|C#4 2F57 ....|G-4 3F.F ....
 F-4|..|F-2 2A.F ....|--- .... ....|--- .... ....
....|..|C-4 AF.F ....|C-4 2F1F ....|F-4 3F.F ....
 F-4|..|F-2 2A.F ....|--- .... ....|--- .... ....
....|..|C-4 AF.F ....|C-4 2F1A ....|G#4 3F.F ....
 F-3|..|F-1 2A.F ....|--- .... ....|--- .... ....
....|..|C-4 AF.F ....|C#4 2F57 ....|G-4 3F.F ....
 F-3|..|F-1 2A.F ....|--- .... ....|--- .... ....
....|..|C-4 AF.F ....|C-4 2F1F ....|C-4 3F.F ....
 F-4|..|F-2 2A.F ....|--- .... ....|--- .... ....
....|..|C-4 AF.F ....|C#4 2F57 ....|G#4 3F.F ....
 F-4|..|F-2 2A.F ....|--- .... ....|--- .... ....
....|..|C-4 AF.F ....|R-- .... ....|G#4 3F.F ....
 F-3|..|F-1 2A.F ....|--- .... ....|--- .... ....
....|..|C-4 AF.F ....|C-4 2F1F ....|C-4 3F.F ....
 F-4|..|F-2 2A.F ....|--- .... ....|--- .... ....
....|..|C-4 AF.F ....|C-4 2F17 ....|G-4 3F.F ....
....|..|F-1 2F.7 ....|--- .... ....|--- .... ....
....|..|C-4 AF.F ....|C-4 2F1F ....|G#4 3F.F ....
....|..|F-1 2F.A ....|--- .... ....|--- .... ....
....|..|C-4 AF.F ....|C-4 2F17 ....|C-5 3F.F ....
....|..|F-1 2F.7 ....|--- .... ....|--- .... ....
....|..|C-4 AF.F ....|C-4 2F1F ....|G-4 3F.F ....
....|..|F-1 2F.7 ....|--- .... ....|--- .... ....
....|..|C-4 AF.F ....|D-4 2F1F ....|D-4 3F.F ....
 G-3|..|G-1 2A.F ....|--- .... ....|--- .... ....
....|..|C-4 AF.F ....|C-4 2F17 ....|C-5 3F.F ....
....|..|F-2 2F.7 ....|--- .... ....|--- .... ....
....|..|C-4 AF.F ....|D-4 2F1F ....|G-4 3F.F ....
 G-3|..|G-1 2A.F ....|--- .... ....|--- .... ....
....|..|C-4 AF.F ....|C-4 2F1A ....|D-4 3F.F ....
 G-3|..|G-1 2A.F ....|--- .... ....|--- .... ....
....|..|C-4 AF.F ....|C-4 2F17 ....|A-4 3F.F ....
 G-4|..|G-2 2A.F ....|--- .... ....|--- .... ....
....|..|C-4 AF.F ....|D-4 2F1F ....|G-4 3F.F ....
 G-4|..|G-2 2A.F ....|--- .... ....|--- .... ....
....|..|C-4 AF.F ....|D-4 2F1A ....|A#4 3F.F ....
 G-3|..|G-1 2A.F ....|--- .... ....|--- .... ....
....|..|C-4 AF.F ....|C-4 2F17 ....|A-4 3F.F ....
 G-3|..|G-1 2A.F ....|--- .... ....|--- .... ....
....|..|C-4 AF.F ....|D-4 2F1F ....|D-4 3F.F ....
 G-4|..|G-2 2A.F ....|--- .... ....|--- .... ....
....|..|C-4 AF.F ....|C-4 2F17 ....|A#4 3F.F ....
 G-4|..|G-2 2A.F ....|--- .... ....|--- .... ....
....|..|C-4 AF.F ....|R-- .... ....|A#4 3F.F ....
 G-3|..|G-1 2A.F ....|--- .... ....|--- .... ....
....|..|C-4 AF.F ....|D-4 2F1F ....|D-4 3F.F ....
 G-4|..|G-2 2A.F ....|--- .... ....|--- .... ....
....|..|C-4 AF.F ....|D-4 2F17 ....|A-4 3F.F ....
....|..|G-1 2F.7 ....|--- .... ....|--- .... ....
....|..|C-4 AF.F ....|D-4 2F1F ....|A#4 3F.F ....
....|..|G-1 2F.A ....|--- .... ....|--- .... ....
....|..|C-4 AF.F ....|D-4 2F17 ....|D-5 3F.F ....
....|..|G-1 2F.7 ....|--- .... ....|--- .... ....
....|..|C-4 AF.F ....|D-4 2F1F ....|A-4 3F.F ....
....|..|G-1 2F.7 ....|--- .... ....|--- .... ....

[Pattern32]
 D-4|..|C-4 AF.F ....|D-3 2C.F ....|C-5 3F.7 ....
 D-4|..|D-2 2A.F ....|A-4 2F1F ....|--- .... ....
 C-3|..|C-4 AF.F ....|C-3 2C.F ....|A#4 3F.7 ....
....|..|C#2 2F.7 ....|R-- .... ....|--- .... ....
 D-4|..|C-4 AF.F ....|D-3 2C.F ....|C#5 3F.7 ....
 D-4|..|D-2 2A.F ....|A-4 2F1F ....|--- .... ....
 C-3|..|C-4 AF.F ....|C-3 2C.F ....|C-5 3F.7 ....
 D-4|..|D-2 2A.F ....|R-- .... ....|--- .... ....
 D-4|..|C-4 AF.F ....|D-3 2C.F ....|F-4 3F.7 ....
 D-4|..|D-3 2C.F ....|--- .... ....|--- .... ....
 C-3|..|C-4 AF.F ....|C-3 2C.F ....|C#5 3F.7 ....
 D-4|..|D-3 2C.F ....|A-4 2F1F ....|--- .... ....
 D-4|..|C-4 AF.F ....|D-3 2C.F ....|C#5 3F.7 ....
 D-4|..|D-2 2A.F ....|A-4 2F1A ....|--- .... ....
 C-3|..|C-4 AF.F ....|C-3 2C.F ....|F-4 3F.7 ....
 D-4|..|D-2 2A.F ....|R-- .... ....|--- .... ....
 D-4|..|C-4 AF.F ....|D-3 2C.F ....|C-5 3F.7 ....
 D-4|..|D-3 2C.F ....|A-4 2F1F ....|--- .... ....
 C-3|..|C-4 AF.F ....|C-3 2C.F ....|C#5 3F.7 ....
 D-4|..|D-3 2C.F ....|R-- .... ....|--- .... ....
 D-4|..|C-4 AF.F ....|D-3 2C.F ....|F-5 3F.7 ....
 D-4|..|D-2 2A.F ....|--- .... ....|--- .... ....
 C-3|..|C-4 AF.F ....|C-3 2C.F ....|C-5 3F.7 ....
 D-4|..|D-3 2C.F ....|A-4 2F1F ....|--- .... ....
 D-4|..|C-4 AF.F ....|D-3 2C.F ....|R-- .... ....
....|..|D-2 2F.7 ....|A-4 2F17 ....|--- .... ....
 C-3|..|C-4 AF.F ....|C-3 2C.F ....|--- .... ....
....|..|D-2 2F.A ....|A-4 2F1F ....|--- .... ....
 D-4|..|C-4 AF.F ....|D-3 2C.F ....|--- .... ....
....|..|D-2 2F.7 ....|A-4 2F17 ....|--- .... ....
 C-3|..|C-4 AF.F ....|C-3 2C.F ....|--- .... ....
....|..|D-2 2F.7 ....|A-4 2F1F ....|--- .... ....
 D-4|..|C-4 AF.F ....|D-3 2C.F ....|--- .... ....
 C-4|..|C-2 2A.F ....|A-4 2F2F ....|--- .... ....
 C-3|..|C-4 AF.F ....|C-3 2C.F ....|--- .... ....
....|..|D-3 2F.7 ....|A-4 2F17 ....|--- .... ....
 D-4|..|C-4 AF.F ....|D-3 2C.F ....|--- .... ....
 C-4|..|C-2 2A.F ....|A-4 2F2F ....|--- .... ....
 A-3|..|C-4 AF.F ....|A-3 2C.F ....|--- .... ....
 C-4|..|C-2 2A.F ....|A-4 2F1A ....|--- .... ....
 D-4|..|C-4 AF.F ....|D-3 2C.F ....|--- .... ....
 C-3|..|C-3 2C.F ....|A-4 2F17 ....|--- .... ....
 C-3|..|C-4 AF.F ....|C-3 2C.F ....|--- .... ....
 C-3|..|C-3 2C.F ....|A-4 2F2F ....|--- .... ....
 D-4|..|C-4 AF.F ....|D-3 2C.F ....|--- .... ....
 C-4|..|C-2 2A.F ....|A-4 2F2A ....|--- .... ....
 A-3|..|C-4 AF.F ....|A-3 2C.F ....|--- .... ....
 C-4|..|C-2 2A.F ....|A-4 2F17 ....|--- .... ....
 D-4|..|C-4 AF.F ....|D-3 2C.F ....|--- .... ....
 C-3|..|C-3 2C.F ....|A-4 2F2F ....|--- .... ....
 C-3|..|C-4 AF.F ....|C-3 2C.F ....|--- .... ....
 C-3|..|C-3 2C.F ....|A-4 2F17 ....|--- .... ....
 D-4|..|C-4 AF.F ....|D-3 2C.F ....|--- .... ....
 C-4|..|C-2 2A.F ....|R-- .... ....|--- .... ....
 A-3|..|C-4 AF.F ....|A-3 2C.F ....|--- .... ....
 C-3|..|C-3 2C.F ....|A-4 2F2F ....|--- .... ....
 D-4|..|C-4 AF.F ....|D-3 2C.F ....|--- .... ....
....|..|C-2 2F.7 ....|A-4 2F27 ....|--- .... ....
 C-3|..|C-4 AF.F ....|C-3 2C.F ....|--- .... ....
....|..|C-2 2F.A ....|A-4 2F2F ....|--- .... ....
 D-4|..|C-4 AF.F ....|D-3 2C.F ....|--- .... ....
....|..|C-2 2F.7 ....|A-4 2F27 ....|--- .... ....
 A-3|..|C-4 AF.F ....|A-3 2C.F ....|--- .... ....
....|..|C-2 2F.7 ....|A-4 2F2F ....|--- .... ....

[Pattern33]
 D-4|..|C-4 AF.F ....|D-3 2C.F ....|--- .... ....
 C-4|..|C-2 2A.F ....|G-4 2F3F ....|--- .... ....
 C-3|..|C-4 AF.F ....|C-3 2C.F ....|--- .... ....
....|..|C-3 2F.7 ....|A-4 2F27 ....|--- .... ....
 D-4|..|C-4 AF.F ....|D-3 2C.F ....|--- .... ....
 C-4|..|C-2 2A.F ....|G-4 2F3F ....|--- .... ....
 G-4|..|C-4 AF.F ....|G-3 2C.F ....|--- .... ....
 C-4|..|C-2 2A.F ....|A-4 2F2A ....|--- .... ....
 D-4|..|C-4 AF.F ....|D-3 2C.F ....|--- .... ....
 C-3|..|C-3 2C.F ....|A-4 2F27 ....|--- .... ....
 C-3|..|C-4 AF.F ....|C-3 2C.F ....|--- .... ....
 C-3|..|C-3 2C.F ....|G-4 2F3F ....|--- .... ....
 D-4|..|C-4 AF.F ....|D-3 2C.F ....|--- .... ....
 C-4|..|C-2 2A.F ....|G-4 2F3A ....|--- .... ....
 G-4|..|C-4 AF.F ....|G-3 2C.F ....|--- .... ....
 C-4|..|C-2 2A.F ....|A-4 2F27 ....|--- .... ....
 D-4|..|C-4 AF.F ....|D-3 2C.F ....|--- .... ....
 C-3|..|C-3 2C.F ....|G-4 2F3F ....|--- .... ....
 C-3|..|C-4 AF.F ....|C-3 2C.F ....|--- .... ....
 C-3|..|C-3 2C.F ....|A-4 2F27 ....|--- .... ....
 D-4|..|C-4 AF.F ....|D-3 2C.F ....|--- .... ....
 C-4|..|C-2 2A.F ....|R-- .... ....|--- .... ....
 G-4|..|C-4 AF.F ....|G-3 2C.F ....|--- .... ....
 C-3|..|C-3 2C.F ....|G-4 2F3F ....|--- .... ....
 D-4|..|C-4 AF.F ....|D-3 2C.F ....|--- .... ....
....|..|C-2 2F.7 ....|G-4 2F37 ....|--- .... ....
 C-3|..|C-4 AF.F ....|C-3 2C.F ....|--- .... ....
....|..|C-2 2F.A ....|G-4 2F3F ....|--- .... ....
 D-4|..|C-4 AF.F ....|D-3 2C.F ....|--- .... ....
....|..|C-2 2F.7 ....|G-4 2F37 ....|--- .... ....
 G-4|..|C-4 AF.F ....|G-3 2C.F ....|--- .... ....
....|..|C-2 2F.7 ....|G-4 2F3F ....|--- .... ....
 D-4|..|C-4 AF.F ....|D-3 2C.F ....|--- .... ....
 G-3|..|G-1 2A.F ....|G-4 2F4F ....|--- .... ....
 C-3|..|C-4 AF.F ....|C-3 2C.F ....|--- .... ....
....|..|C-3 2F.7 ....|G-4 2F37 ....|--- .... ....
 D-4|..|C-4 AF.F ....|D-3 2C.F ....|--- .... ....
 G-3|..|G-1 2A.F ....|G-4 2F4F ....|--- .... ....
 G-4|..|C-4 AF.F ....|G-3 2C.F ....|--- .... ....
 G-3|..|G-1 2A.F ....|G-4 2F3A ....|--- .... ....
 D-4|..|C-4 AF.F ....|D-3 2C.F ....|--- .... ....
 G-4|..|G-2 2A.F ....|G-4 2F37 ....|--- .... ....
 C-3|..|C-4 AF.F ....|C-3 2C.F ....|--- .... ....
 G-4|..|G-2 2A.F ....|G-4 2F4F ....|--- .... ....
 D-4|..|C-4 AF.F ....|D-3 2C.F ....|--- .... ....
 G-3|..|G-1 2A.F ....|G-4 2F4A ....|--- .... ....
 G-4|..|C-4 AF.F ....|G-3 2C.F ....|--- .... ....
 G-3|..|G-1 2A.F ....|G-4 2F37 ....|--- .... ....
 D-4|..|C-4 AF.F ....|D-3 2C.F ....|--- .... ....
 G-4|..|G-2 2A.F ....|G-4 2F4F ....|--- .... ....
 C-3|..|C-4 AF.F ....|C-3 2C.F ....|--- .... ....
 G-4|..|G-2 2A.F ....|G-4 2F37 ....|--- .... ....
 D-4|..|C-4 AF.F ....|D-3 2C.F ....|--- .... ....
 G-3|..|G-1 2A.F ....|R-- .... ....|--- .... ....
 G-4|..|C-4 AF.F ....|G-3 2C.F ....|--- .... ....
 G-4|..|G-2 2A.F ....|G-4 2F4F ....|--- .... ....
 D-4|..|C-4 AF.F ....|D-3 2C.F ....|--- .... ....
....|..|G-1 2F.7 ....|G-4 2F47 ....|--- .... ....
 C-3|..|C-4 AF.F ....|C-3 2C.F ....|--- .... ....
....|..|G-1 2F.A ....|G-4 2F4F ....|--- .... ....
 D-4|..|C-4 AF.F ....|D-3 2C.F ....|--- .... ....
....|..|G-1 2F.7 ....|G-4 2F47 ....|--- .... ....
 G-4|..|C-4 AF.F ....|G-3 2C.F ....|--- .... ....
....|..|G-1 2F.7 ....|G-4 2F4F ....|--- .... ....

[Pattern34]
 D-4|..|C-4 AF.F ....|D-3 2C.F ....|--- .... ....
 D-4|..|D-2 2A.F ....|A-4 2F1F ....|--- .... ....
 C-3|..|C-4 AF.F ....|C-3 2C.F ....|--- .... ....
....|..|G-2 2F.7 ....|G-4 2F47 ....|--- .... ....
 D-4|..|C-4 AF.F ....|D-3 2C.F ....|--- .... ....
 D-4|..|D-2 2A.F ....|A-4 2F1F ....|--- .... ....
 C-3|..|C-4 AF.F ....|C-3 2C.F ....|--- .... ....
 D-4|..|D-2 2A.F ....|G-4 2F4A ....|--- .... ....
 D-4|..|C-4 AF.F ....|D-3 2C.F ....|--- .... ....
 D-4|..|D-3 2C.F ....|G-4 2F47 ....|--- .... ....
 C-3|..|C-4 AF.F ....|C-3 2C.F ....|--- .... ....
 D-4|..|D-3 2C.F ....|A-4 2F1F ....|--- .... ....
 D-4|..|C-4 AF.F ....|D-3 2C.F ....|--- .... ....
 D-4|..|D-2 2A.F ....|A-4 2F1A ....|--- .... ....
 C-3|..|C-4 AF.F ....|C-3 2C.F ....|--- .... ....
 D-4|..|D-2 2A.F ....|G-4 2F47 ....|--- .... ....
 D-4|..|C-4 AF.F ....|D-3 2C.F ....|--- .... ....
 D-4|..|D-3 2C.F ....|A-4 2F1F ....|--- .... ....
 C-3|..|C-4 AF.F ....|C-3 2C.F ....|--- .... ....
 D-4|..|D-3 2C.F ....|G-4 2F47 ....|--- .... ....
 D-4|..|C-4 AF.F ....|D-3 2C.F ....|--- .... ....
 D-4|..|D-2 2A.F ....|R-- .... ....|--- .... ....
 C-3|..|C-4 AF.F ....|C-3 2C.F ....|--- .... ....
 D-4|..|D-3 2C.F ....|A-4 2F1F ....|--- .... ....
 D-4|..|C-4 AF.F ....|D-3 2C.F ....|--- .... ....
....|..|D-2 2F.7 ....|A-4 2F17 ....|--- .... ....
 C-3|..|C-4 AF.F ....|C-3 2C.F ....|--- .... ....
....|..|D-2 2F.A ....|A-4 2F1F ....|--- .... ....
 D-4|..|C-4 AF.F ....|D-3 2C.F ....|--- .... ....
....|..|D-2 2F.7 ....|A-4 2F17 ....|--- .... ....
 C-3|..|C-4 AF.F ....|C-3 2C.F ....|--- .... ....
....|..|D-2 2F.7 ....|A-4 2F1F ....|--- .... ....
 D-4|..|C-4 AF.F ....|D-3 2C.F ....|--- .... ....
 C-4|..|C-2 2A.F ....|A-4 2F2F ....|--- .... ....
 C-3|..|C-4 AF.F ....|C-3 2C.F ....|--- .... ....
....|..|D-3 2F.7 ....|A-4 2F17 ....|--- .... ....
 D-4|..|C-4 AF.F ....|D-3 2C.F ....|--- .... ....
 C-4|..|C-2 2A.F ....|A-4 2F2F ....|--- .... ....
 A-3|..|C-4 AF.F ....|A-3 2C.F ....|--- .... ....
 C-4|..|C-2 2A.F ....|A-4 2F1A ....|--- .... ....
 D-4|..|C-4 AF.F ....|D-3 2C.F ....|--- .... ....
 C-3|..|C-3 2C.F ....|A-4 2F17 ....|--- .... ....
 C-3|..|C-4 AF.F ....|C-3 2C.F ....|--- .... ....
 C-3|..|C-3 2C.F ....|A-4 2F2F ....|--- .... ....
 D-4|..|C-4 AF.F ....|D-3 2C.F ....|--- .... ....
 C-4|..|C-2 2A.F ....|A-4 2F2A ....|--- .... ....
 A-3|..|C-4 AF.F ....|A-3 2C.F ....|--- .... ....
 C-4|..|C-2 2A.F ....|A-4 2F17 ....|--- .... ....
 D-4|..|C-4 AF.F ....|D-3 2C.F ....|--- .... ....
 C-3|..|C-3 2C.F ....|A-4 2F2F ....|--- .... ....
 C-3|..|C-4 AF.F ....|C-3 2C.F ....|--- .... ....
 C-3|..|C-3 2C.F ....|A-4 2F17 ....|--- .... ....
 D-4|..|C-4 AF.F ....|D-3 2C.F ....|--- .... ....
 C-4|..|C-2 2A.F ....|R-- .... ....|--- .... ....
 A-3|..|C-4 AF.F ....|A-3 2C.F ....|--- .... ....
 C-3|..|C-3 2C.F ....|A-4 2F2F ....|--- .... ....
 D-4|..|C-4 AF.F ....|D-3 2C.F ....|--- .... ....
....|..|C-2 2F.7 ....|A-4 2F27 ....|--- .... ....
 C-3|..|C-4 AF.F ....|C-3 2C.F ....|--- .... ....
....|..|C-2 2F.A ....|A-4 2F2F ....|--- .... ....
 D-4|..|C-4 AF.F ....|D-3 2C.F ....|--- .... ....
....|..|C-2 2F.7 ....|A-4 2F27 ....|--- .... ....
 A-3|..|C-4 AF.F ....|A-3 2C.F ....|--- .... ....
....|..|C-2 2F.7 ....|A-4 2F2F ....|--- .... ....

[Pattern35]
 D-4|..|C-4 AF.F ....|D-3 2C.F ....|--- .... ....
 C-4|..|C-2 2A.F ....|G-4 2F3F ....|--- .... ....
 C-3|..|C-4 AF.F ....|C-3 2C.F ....|--- .... ....
....|..|C-3 2F.7 ....|A-4 2F27 ....|--- .... ....
 D-4|..|C-4 AF.F ....|D-3 2C.F ....|--- .... ....
 C-4|..|C-2 2A.F ....|G-4 2F3F ....|--- .... ....
 G-4|..|C-4 AF.F ....|G-3 2C.F ....|--- .... ....
 C-4|..|C-2 2A.F ....|A-4 2F2A ....|--- .... ....
 D-4|..|C-4 AF.F ....|D-3 2C.F ....|--- .... ....
 C-3|..|C-3 2C.F ....|A-4 2F27 ....|--- .... ....
 C-3|..|C-4 AF.F ....|C-3 2C.F ....|--- .... ....
 C-3|..|C-3 2C.F ....|G-4 2F3F ....|--- .... ....
 D-4|..|C-4 AF.F ....|D-3 2C.F ....|--- .... ....
 C-4|..|C-2 2A.F ....|G-4 2F3A ....|--- .... ....
 G-4|..|C-4 AF.F ....|G-3 2C.F ....|--- .... ....
 C-4|..|C-2 2A.F ....|A-4 2F27 ....|--- .... ....
 D-4|..|C-4 AF.F ....|D-3 2C.F ....|--- .... ....
 C-3|..|C-3 2C.F ....|G-4 2F3F ....|--- .... ....
 C-3|..|C-4 AF.F ....|C-3 2C.F ....|--- .... ....
 C-3|..|C-3 2C.F ....|A-4 2F27 ....|--- .... ....
 D-4|..|C-4 AF.F ....|D-3 2C.F ....|--- .... ....
 C-4|..|C-2 2A.F ....|R-- .... ....|--- .... ....
 G-4|..|C-4 AF.F ....|G-3 2C.F ....|--- .... ....
 C-3|..|C-3 2C.F ....|G-4 2F3F ....|--- .... ....
 D-4|..|C-4 AF.F ....|D-3 2C.F ....|--- .... ....
....|..|C-2 2F.7 ....|G-4 2F37 ....|--- .... ....
 C-3|..|C-4 AF.F ....|C-3 2C.F ....|--- .... ....
....|..|C-2 2F.A ....|G-4 2F3F ....|--- .... ....
 D-4|..|C-4 AF.F ....|D-3 2C.F ....|--- .... ....
....|..|C-2 2F.7 ....|G-4 2F37 ....|--- .... ....
 G-4|..|C-4 AF.F ....|G-3 2C.F ....|--- .... ....
....|..|C-2 2F.7 ....|G-4 2F3F ....|--- .... ....
 D-4|..|C-4 AF.F ....|D-3 2C.F ....|--- .... ....
 G-3|..|G-1 2A.F ....|G-4 2F4F ....|--- .... ....
 C-3|..|C-4 AF.F ....|C-3 2C.F ....|--- .... ....
....|..|C-3 2F.7 ....|G-4 2F37 ....|--- .... ....
 D-4|..|C-4 AF.F ....|D-3 2C.F ....|--- .... ....
 G-3|..|G-1 2A.F ....|G-4 2F4F ....|--- .... ....
 G-4|..|C-4 AF.F ....|G-3 2C.F ....|--- .... ....
 G-3|..|G-1 2A.F ....|G-4 2F3A ....|--- .... ....
 D-4|..|C-4 AF.F ....|D-3 2C.F ....|--- .... ....
 G-4|..|G-2 2A.F ....|G-4 2F37 ....|--- .... ....
 C-3|..|C-4 AF.F ....|C-3 2C.F ....|--- .... ....
 G-4|..|G-2 2A.F ....|G-4 2F4F ....|--- .... ....
 D-4|..|C-4 AF.F ....|D-3 2C.F ....|--- .... ....
 G-3|..|G-1 2A.F ....|G-4 2F4A ....|--- .... ....
 G-4|..|C-4 AF.F ....|G-3 2C.F ....|--- .... ....
 G-3|..|G-1 2A.F ....|G-4 2F37 ....|--- .... ....
 D-4|..|C-4 AF.F ....|D-3 2C.F ....|--- .... ....
 G-4|..|G-2 2A.F ....|G-4 2F4F ....|--- .... ....
 C-3|..|C-4 AF.F ....|C-3 2C.F ....|--- .... ....
 G-4|..|G-2 2A.F ....|G-4 2F37 ....|--- .... ....
 D-4|..|C-3 RF.F ....|D-3 2C.F ....|--- .... ....
 G-3|..|G-1 2A.F ....|R-- .... ....|--- .... ....
 G-4|..|C-4 AF.F ....|G-3 2C.F ....|--- .... ....
 G-4|..|G-2 2A.F ....|G-4 2F4F ....|--- .... ....
 D-4|..|C-4 AF.F ....|D-3 2C.F ....|--- .... ....
....|..|G-1 2F.7 ....|G-4 2F47 ....|--- .... ....
 C-3|..|C-4 AF.F ....|C-3 2C.F ....|--- .... ....
....|..|G-1 2F.A ....|G-4 2F4F ....|--- .... ....
 D-4|..|C-4 AF.F ....|D-3 2C.F ....|--- .... ....
....|..|G-1 2F.7 ....|G-4 2F47 ....|--- .... ....
 G-4|..|C-4 AF.F ....|G-3 2C.F ....|--- .... ....
....|..|G-1 2F.7 ....|G-4 2F4F ....|--- .... ....

[Pattern36]
....|..|C-4 AF.F ....|C-4 2F1F ....|C-4 3F.F ....
 F-3|..|F-1 2A.F ....|--- .... ....|--- .... ....
....|..|C-4 AF.F ....|C-3 2F.7 ....|--- .... ....
....|..|G-2 2F.7 ....|G-4 2F47 ....|--- .... ....
....|..|C-4 AF.F ....|C-4 2F1F ....|F-4 3F.F ....
 F-3|..|F-1 2A.F ....|R-- .... ....|--- .... ....
....|..|C-4 AF.F ....|G-3 2F.7 ....|C-4 3F.F ....
 F-3|..|F-1 2A.F ....|G-4 2F4A ....|--- .... ....
....|..|C-4 AF.F ....|D-3 2F.7 ....|G-4 3F.F ....
 F-4|..|F-2 2A.F ....|G-4 2F47 ....|--- .... ....
....|..|C-4 AF.F ....|C-4 2F1F ....|F-4 3F.F ....
 F-4|..|F-2 2A.F ....|G-4 2F4A ....|--- .... ....
....|..|C-4 AF.F ....|D-3 2F.7 ....|G#4 3F.F ....
 F-3|..|F-1 2A.F ....|--- .... ....|--- .... ....
....|..|C-4 AF.F ....|G-3 2F.7 ....|G-4 3F.F ....
 F-3|..|F-1 2A.F ....|G-4 2F47 ....|--- .... ....
....|..|C-4 AF.F ....|C-4 2F1F ....|C-4 3F.F ....
 F-4|..|F-2 2A.F ....|R-- .... ....|--- .... ....
....|..|C-4 AF.F ....|C-3 2F.7 ....|G#4 3F.F ....
 F-4|..|F-2 2A.F ....|G-4 2F47 ....|--- .... ....
....|..|C-4 AF.F ....|D-3 2F.7 ....|G#4 3F.F ....
 F-3|..|F-1 2A.F ....|R-- .... ....|--- .... ....
....|..|C-4 AF.F ....|C-4 2F1F ....|C-4 3F.F ....
 F-4|..|F-2 2A.F ....|G-4 2F47 ....|--- .... ....
....|..|C-4 AF.F ....|C-4 2F17 ....|G-4 3F.F ....
....|..|F-1 2F.7 ....|--- .... ....|--- .... ....
....|..|C-4 AF.F ....|C-4 2F1F ....|G#4 3F.F ....
....|..|F-1 2F.A ....|--- .... ....|--- .... ....
....|..|C-4 AF.F ....|C-4 2F17 ....|C-5 3F.F ....
....|..|F-1 2F.7 ....|--- .... ....|--- .... ....
....|..|C-4 AF.F ....|C-4 2F1F ....|G-4 3F.F ....
....|..|F-1 2F.7 ....|--- .... ....|--- .... ....
....|..|C-4 AF.F ....|D-4 2F1F ....|D-4 3F.F ....
 G-3|..|G-1 2A.F ....|--- .... ....|--- .... ....
....|..|C-4 AF.F ....|C-4 2F17 ....|C-5 3F.F ....
....|..|F-2 2F.7 ....|--- .... ....|--- .... ....
....|..|C-4 AF.F ....|D-4 2F1F ....|G-4 3F.F ....
 G-3|..|G-1 2A.F ....|--- .... ....|--- .... ....
....|..|C-4 AF.F ....|C-4 2F1A ....|D-4 3F.F ....
 G-3|..|G-1 2A.F ....|--- .... ....|--- .... ....
....|..|C-4 AF.F ....|C-4 2F17 ....|A-4 3F.F ....
 G-4|..|G-2 2A.F ....|--- .... ....|--- .... ....
....|..|C-4 AF.F ....|D-4 2F1F ....|G-4 3F.F ....
 G-4|..|G-2 2A.F ....|--- .... ....|--- .... ....
....|..|C-4 AF.F ....|D-4 2F1A ....|A#4 3F.F ....
 G-3|..|G-1 2A.F ....|--- .... ....|--- .... ....
....|..|C-4 AF.F ....|C-4 2F17 ....|A-4 3F.F ....
 G-3|..|G-1 2A.F ....|--- .... ....|--- .... ....
....|..|C-4 AF.F ....|D-4 2F1F ....|D-4 3F.F ....
 G-4|..|G-2 2A.F ....|--- .... ....|--- .... ....
....|..|C-4 AF.F ....|C-4 2F17 ....|A#4 3F.F ....
 G-4|..|G-2 2A.F ....|--- .... ....|--- .... ....
....|..|C-4 AF.F ....|R-- .... ....|A#4 3F.F ....
 G-3|..|G-1 2A.F ....|--- .... ....|--- .... ....
....|..|C-4 AF.F ....|D-4 2F1F ....|D-4 3F.F ....
 G-4|..|G-2 2A.F ....|--- .... ....|--- .... ....
....|..|C-4 AF.F ....|D-4 2F17 ....|A-4 3F.F ....
....|..|G-1 2F.7 ....|--- .... ....|--- .... ....
....|..|C-4 AF.F ....|D-4 2F1F ....|A#4 3F.F ....
....|..|G-1 2F.A ....|--- .... ....|--- .... ....
....|..|C-4 AF.F ....|D-4 2F17 ....|D-5 3F.F ....
....|..|G-1 2F.7 ....|--- .... ....|--- .... ....
....|..|C-4 AF.F ....|D-4 2F1F ....|A-4 3F.F ....
....|..|G-1 2F.7 ....|--- .... ....|--- .... ....

[Pattern40]
....|..|C-4 AF.F ....|C-4 2F1F ....|C-5 3F.F ....
 F-4|..|F-2 2A.F ....|--- .... ....|--- .... ....
....|..|C-4 AF.F ....|C#4 2F57 ....|A#4 3F.7 ....
....|..|C#2 2F.7 ....|--- .... ....|--- .... ....
....|..|C-4 AF.F ....|C-4 2F1F ....|C#5 3F.7 ....
 F-4|..|F-2 2A.F ....|--- .... ....|--- .... ....
....|..|C-4 AF.F ....|C#4 2F5A ....|C-5 3F.7 ....
 F-4|..|F-2 2A.F ....|--- .... ....|--- .... ....
....|..|C-4 AF.F ....|C#4 2F57 ....|C-5 3F.F ....
 F-4|..|F-3 2C.F ....|--- .... ....|--- .... ....
....|..|C-4 AF.F ....|C-4 2F1F ....|C#5 3F.7 ....
 F-4|..|F-3 2C.F ....|--- .... ....|--- .... ....
....|..|C-4 AF.F ....|C-4 2F1A ....|C#5 3F.7 ....
 F-4|..|F-2 2A.F ....|--- .... ....|--- .... ....
....|..|C-4 AF.F ....|C#4 2F57 ....|F-4 3F.7 ....
 F-4|..|F-2 2A.F ....|--- .... ....|--- .... ....
....|..|C-4 AF.F ....|C-4 2F1F ....|C-5 3F.F ....
 F-4|..|F-3 2C.F ....|--- .... ....|--- .... ....
....|..|C-4 AF.F ....|C#4 2F57 ....|C#5 3F.7 ....
 F-4|..|F-3 2C.F ....|--- .... ....|--- .... ....
....|..|C-4 AF.F ....|R-- .... ....|F-5 3F.7 ....
 F-4|..|F-2 2A.F ....|--- .... ....|--- .... ....
....|..|C-4 AF.F ....|C-4 2F1F ....|C-5 3F.7 ....
 F-4|..|F-3 2C.F ....|--- .... ....|--- .... ....
....|..|C-4 AF.F ....|C-4 2F17 ....|F-5 3F.F ....
....|..|F-2 2F.7 ....|--- .... ....|--- .... ....
....|..|C-4 AF.F ....|C-4 2F1F ....|C-5 3F.F ....
....|..|F-2 2F.A ....|--- .... ....|--- .... ....
....|..|C-4 AF.F ....|C-4 2F17 ....|G-5 3F.F ....
....|..|F-2 2F.7 ....|--- .... ....|--- .... ....
....|..|C-4 AF.F ....|C-4 2F1F ....|C-5 3F.F ....
....|..|F-2 2F.7 ....|--- .... ....|--- .... ....
....|..|C-4 AF.F ....|C-4 2F4F ....|G#5 3F.F ....
 D#4|..|D#2 2A.F ....|--- .... ....|--- .... ....
....|..|C-4 AF.F ....|C-4 2F17 ....|--- .... ....
....|..|F-3 2F.7 ....|--- .... ....|--- .... ....
....|..|C-4 AF.F ....|C-4 2F4F ....|G-5 3F.F ....
 D#4|..|D#2 2A.F ....|--- .... ....|--- .... ....
....|..|C-4 AF.F ....|C-4 2F1A ....|C-5 3F.F ....
 D#4|..|D#2 2A.F ....|--- .... ....|--- .... ....
....|..|C-4 AF.F ....|C-4 2F17 ....|G#5 3F.F ....
 D#4|..|D#3 2C.F ....|--- .... ....|--- .... ....
....|..|C-4 AF.F ....|C-4 2F4F ....|C-5 3F.A ....
 D#4|..|D#3 2C.F ....|--- .... ....|--- .... ....
....|..|C-4 AF.F ....|C-4 2F4A ....|G-5 3F.F ....
 D#4|..|D#2 2A.F ....|--- .... ....|--- .... ....
....|..|C-4 AF.F ....|C-4 2F17 ....|C-5 3F.F ....
 D#4|..|D#2 2A.F ....|--- .... ....|--- .... ....
....|..|C-4 AF.F ....|C-4 2F4F ....|G#5 3F.F ....
 D#4|..|D#3 2C.F ....|--- .... ....|--- .... ....
....|..|C-4 AF.F ....|C-4 2F17 ....|C-5 3F.7 ....
 D#4|..|D#3 2C.F ....|--- .... ....|--- .... ....
....|..|C-4 AF.F ....|R-- .... ....|G-5 3F.7 ....
 D#4|..|D#2 2A.F ....|--- .... ....|--- .... ....
....|..|C-4 AF.F ....|C-4 2F4F ....|C-5 3F.7 ....
 D#4|..|D#3 2C.F ....|--- .... ....|--- .... ....
....|..|C-4 AF.F ....|C-4 2F47 ....|G-5 3F.F ....
....|..|D#2 2F.7 ....|--- .... ....|--- .... ....
....|..|C-4 AF.F ....|C-4 2F4F ....|C-5 3F.F ....
....|..|D#2 2F.A ....|--- .... ....|--- .... ....
....|..|C-4 AF.F ....|C-4 2F47 ....|G#5 3F.F ....
....|..|D#2 2F.7 ....|--- .... ....|--- .... ....
....|..|C-4 AF.F ....|C-4 2F4F ....|C-5 3F.F ....
....|..|D#2 2F.7 ....|--- .... ....|--- .... ....

[Pattern44]
....|..|C-4 AF.F ....|A-4 2F1F ....|A-4 3F.F ....
 D-4|..|D-2 2A.F ....|--- .... ....|--- .... ....
....|..|C-4 AF.F ....|C#4 2F57 ....|--- .... ....
....|..|A#2 2F.7 ....|--- .... ....|--- .... ....
....|..|C-4 AF.F ....|A-4 2F1F ....|C-6 3F.7 ....
 D-4|..|D-2 2A.F ....|--- .... ....|--- .... ....
....|..|C-4 AF.F ....|C#4 2F5A ....|--- .... ....
 D-4|..|D-2 2A.F ....|--- .... ....|--- .... ....
....|..|C-4 AF.F ....|C#4 2F57 ....|A-4 3F.F ....
 D-4|..|D-3 2C.F ....|--- .... ....|--- .... ....
....|..|C-4 AF.F ....|A-4 2F1F ....|--- .... ....
 D-4|..|D-3 2C.F ....|--- .... ....|--- .... ....
....|..|C-4 AF.F ....|A-4 2F1A ....|C-6 3F.7 ....
 D-4|..|D-2 2A.F ....|--- .... ....|--- .... ....
....|..|C-4 AF.F ....|C#4 2F57 ....|--- .... ....
 D-4|..|D-2 2A.F ....|--- .... ....|--- .... ....
....|..|C-4 AF.F ....|A-4 2F1F ....|A-4 3F.F ....
 D-4|..|D-3 2C.F ....|--- .... ....|--- .... ....
....|..|C-4 AF.F ....|C#4 2F57 ....|--- .... ....
 D-4|..|D-3 2C.F ....|--- .... ....|--- .... ....
....|..|C-4 AF.F ....|R-- .... ....|C-6 3F.7 ....
 D-4|..|D-2 2A.F ....|--- .... ....|--- .... ....
....|..|C-4 AF.F ....|A-4 2F1F ....|--- .... ....
 D-4|..|D-3 2C.F ....|--- .... ....|--- .... ....
....|..|C-4 AF.F ....|A-4 2F17 ....|C-5 3F.F ....
....|..|D-2 2F.7 ....|--- .... ....|--- .... ....
....|..|C-4 AF.F ....|A-4 2F1F ....|D-4 3F.F ....
....|..|D-2 2F.A ....|--- .... ....|--- .... ....
....|..|C-4 AF.F ....|A-4 2F17 ....|A#4 3F.F ....
....|..|D-2 2F.7 ....|--- .... ....|--- .... ....
....|..|C-4 AF.F ....|A-4 2F1F ....|D-4 3F.F ....
....|..|D-2 2F.7 ....|--- .... ....|--- .... ....
....|..|C-4 AF.F ....|A-4 2F2F ....|A-4 3F.F ....
 C-4|..|C-2 2A.F ....|--- .... ....|--- .... ....
....|..|C-4 AF.F ....|A-4 2F17 ....|--- .... ....
....|..|D-3 2F.7 ....|--- .... ....|--- .... ....
....|..|C-4 AF.F ....|A-4 2F2F ....|A#4 3F.F ....
 C-4|..|C-2 2A.F ....|--- .... ....|--- .... ....
....|..|C-4 AF.F ....|A-4 2F1A ....|D-4 3F.F ....
 C-4|..|C-2 2A.F ....|--- .... ....|--- .... ....
....|..|C-4 AF.F ....|A-4 2F17 ....|A-4 3F.F ....
 C-3|..|C-3 2C.F ....|--- .... ....|--- .... ....
....|..|C-4 AF.F ....|A-4 2F2F ....|D-4 3F.A ....
 C-3|..|C-3 2C.F ....|--- .... ....|--- .... ....
....|..|C-4 AF.F ....|A-4 2F2A ....|A#4 3F.F ....
 C-4|..|C-2 2A.F ....|--- .... ....|--- .... ....
....|..|C-4 AF.F ....|A-4 2F17 ....|D-4 3F.F ....
 C-4|..|C-2 2A.F ....|--- .... ....|--- .... ....
....|..|C-4 AF.F ....|A-4 2F2F ....|A-4 3F.F ....
 C-3|..|C-3 2C.F ....|--- .... ....|--- .... ....
....|..|C-4 AF.F ....|A-4 2F17 ....|D-4 3F.7 ....
 C-3|..|C-3 2C.F ....|--- .... ....|--- .... ....
....|..|C-4 AF.F ....|R-- .... ....|A#4 3F.7 ....
 C-4|..|C-2 2A.F ....|--- .... ....|--- .... ....
....|..|C-4 AF.F ....|A-4 2F2F ....|D-4 3F.7 ....
 C-3|..|C-3 2C.F ....|--- .... ....|--- .... ....
....|..|C-4 AF.F ....|A-4 2F27 ....|C-5 3F.F ....
....|..|C-2 2F.7 ....|--- .... ....|--- .... ....
....|..|C-4 AF.F ....|A-4 2F2F ....|C-4 3F.F ....
....|..|C-2 2F.A ....|--- .... ....|--- .... ....
....|..|C-4 AF.F ....|A-4 2F27 ....|A#4 3F.F ....
....|..|C-2 2F.7 ....|--- .... ....|--- .... ....
....|..|C-4 AF.F ....|A-4 2F2F ....|C-4 3F.F ....
....|..|C-2 2F.7 ....|--- .... ....|--- .... ....

[Pattern48]
....|..|C-4 AF.F ....|R-- .... ....|D-4 3F.7 ....
....|..|G-2 2F.7 ....|--- .... ....|--- .... ....
....|..|C-4 AF.7 ....|G-4 2F47 ....|--- .... ....
....|..|G-2 2F.7 ....|--- .... ....|--- .... ....
....|..|C-4 AF.7 ....|R-- .... ....|G-4 3F.7 ....
....|..|G-1 2F.7 ....|--- .... ....|--- .... ....
....|..|C-4 AF.7 ....|G-4 2F4A ....|C-4 3F.7 ....
....|..|G-1 2F.7 ....|--- .... ....|--- .... ....
....|..|C-4 AF.7 ....|G-4 2F47 ....|D-4 3F.7 ....
....|..|G-2 2F.7 ....|--- .... ....|--- .... ....
....|..|C-4 AF.7 ....|G-4 2F4A ....|--- .... ....
....|..|G-2 2F.7 ....|--- .... ....|--- .... ....
....|..|C-3 RF.7 ....|R-- .... ....|R-- .... ....
....|..|G-1 2F.7 ....|--- .... ....|--- .... ....
....|..|C-4 AF.7 ....|G-4 2F47 ....|--- .... ....
....|..|G-2 2F.7 ....|--- .... ....|--- .... ....
....|..|C-4 AF.7 ....|R-- .... ....|--- .... ....
....|..|R-- .... ....|--- .... ....|--- .... ....
....|..|C-4 AF.7 ....|G-4 2F47 ....|--- .... ....
....|..|--- .... ....|--- .... ....|--- .... ....
....|..|C-4 AF.7 ....|R-- .... ....|--- .... ....
....|..|--- .... ....|--- .... ....|--- .... ....
....|..|C-4 AF.7 ....|G-4 2F47 ....|--- .... ....
....|..|--- .... ....|--- .... ....|--- .... ....
....|..|C-4 AF.7 ....|R-- .... ....|--- .... ....
....|..|--- .... ....|--- .... ....|--- .... ....
