[Module]
VortexTrackerII=0
Version=3.5
Title=1d-2me,7me-3p+,4m[3]-5m[3]+-6m[3]+
Author=oisee ^ 4d 29.05.2010
NoteTable=4
ChipFreq=1750000
Speed=4
PlayOrder=L0,1,2,3,4,5,6,7,8,9,10,11,12,13,14,15,16,17,18,19,20,21,22,23,24,25,26,27,28,29,30,31,32,33,34,35,36,37,38,39,40,41,42,41,44


[Ornament1]
L0,0,3,3,7,7

[Ornament2]
L0,0,4,4,9,9

[Ornament3]
L0,0,4,4,7,7


[Sample1]
TnE +000_ +00_ F_
TnE +000_ +00_ F_
TnE +000_ +00_ F_
TnE +000_ +00_ D_
TnE +000_ +00_ B_
TnE +000_ +00_ B_ L

[Sample2]
TnE +000_ +00_ F_ L

[Sample3]
TnE +001_ +00_ F_
TnE +002_ +00_ F_
TnE +001_ +00_ E_
TnE +002_ +00_ E_
TnE +000_ +00_ E_ L
TnE -001_ +00_ E_
TnE -002_ +00_ E_
TnE -001_ +00_ E_
TnE +000_ +00_ E_
TnE +001_ +00_ E_
TnE +002_ +00_ E_
TnE +001_ +00_ E_

[Sample4]
TnE +002_ +00_ D_
TnE +002_ +00_ D_
TnE +002_ +00_ C_
TnE +002_ +00_ B_
TnE +002_ +00_ A_ L
TnE +002_ +00_ A_
TnE +002_ +00_ A_
TnE +002_ +00_ A_
TnE +002_ +00_ A_
TnE +002_ +00_ A_
TnE +002_ +00_ A_
TnE +002_ +00_ A_

[Sample5]
TnE +000_ +00_ F_
TnE +000_ +00_ F_
tne +000_ +00_ 0_ L

[Sample6]
TnE -001_ +00_ F_ L

[Sample7]
TnE +006_ +00_ F_ L

[Sample8]
tNe +000_ +00_ F_
tNe +000_ +00_ B_
tNe +000_ +00_ 7_
tNe +000_ +00_ 6- L

[Sample9]
TnE +080_ +00_ F_
TnE +100_ +00_ E_
TnE +180_ +00_ E_
TnE +200_ +00_ E_
TnE +240_ +00_ D_
TnE +280_ +00_ D_
TnE +2C0_ +00_ D_
TnE +300_ +00_ C_
TnE +300_ +00_ C_
TnE +340_ +00_ C_
TnE +340_ +00_ C_
TnE +380_ +00_ B_
TnE +380_ +00_ B_
TnE +400_ +00_ B_
TnE +400_ +00_ B_
TnE +480_ +00_ A_
TnE +500_ +00_ 9_
TnE +580_ +00_ 7_
TnE +600_ +00_ 4_
TnE +680_ +00_ 1_
TnE +000_ +00_ 0_ L

[Sample10]
Tne +1C0_ +00_ F_
Tne +280_ +00_ E_
Tne +380_ +00_ C_
Tne +440_ +00_ A_
Tne +480_ +00_ 8_
TnE +000_ +00_ 0_ L

[Sample11]
TNe +200_ -0A_ F_
tNe +000_ +0F_ A_
TNe +200_ -07_ E_
tNe +000_ +0E_ B- L

[Sample12]
TNE +0A0_ +05_ F_
TNE +140_ +02_ D_
TNE +140_ +02_ B_
TNE +100_ +00_ A_ L
TNE +140_ +00_ A_
TNE +200_ +00_ A-

[Sample13]
Tne +200_ +00_ F_
Tne +2C0_ +00_ F_
Tne +380_ +00_ E_
Tne +500_ +00_ C_
Tne +520_ +00_ 9_
tne +000_ +00_ 0_ L

[Sample14]
TNE -100_ +00_ F_
TNE -100_ +00_ D_
TNE -100_ +00_ A_
TNE -100_ +00_ 5_
tne +000_ +00_ 0_ L

[Sample15]
TNE -100_ +00_ 5_
TNE -100_ +00_ 8_
TNE -100_ +00_ B_
TNE -100_ +00_ F_
TNe -100_ +00_ 9- L

[Sample16]
TnE +000_ +00_ C_
TnE +000_ +00_ E_
TnE +000_ +00_ F_
TnE +000_ +00_ F_
TnE +000_ +00_ E_
TnE +000_ +00_ D_
TnE +000_ +00_ C_
TnE +000_ +00_ C_ L
TnE +001_ +00_ C_
TnE +002_ +00_ C_
TnE +003_ +00_ C_
TnE +001_ +00_ C_
TnE +000_ +00_ C_
TnE -001_ +00_ C_
TnE -002_ +00_ C_
TnE -003_ +00_ C_
TnE -001_ +00_ C_
TnE +000_ +00_ C_
TnE +000_ +00_ C_

[Sample17]
Tne +1C0_ +00_ F_
Tne +280_ +00_ D_
Tne +380_ +00_ 7_
TNE +000_ +00_ 0_ L

[Sample18]
TnE -00C_ +00_ 0_ L

[Sample19]
TNe +000_ +00_ F_
TNe +000_ +00_ C_
TNe +000_ +00_ 6_
TNe +000_ +01_ A- L

[Sample20]
TNE +140_ +00_ F_
tNE +000_ +00_ B- L

[Sample21]
tNE +000_ +00_ D_
tNE +000_ +00_ 8_
tNE +000_ +00_ 1_
TNE +000_ +00_ 0_ L

[Sample22]
TnE +000_ +00_ D_ L
TnE +000_ +00_ D_
tne +000_ +00_ 9_
tne +000_ +00_ 9_
TnE +000_ +00_ D_
TnE +000_ +00_ D_
tne +000_ +00_ 9_
tne +000_ +00_ 9_
TnE +000_ +00_ D_
TnE +000_ +00_ D_
TnE +000_ +00_ D_
TnE +000_ +00_ D_
TnE +000_ +00_ D_
TnE +000_ +00_ D_
tne +000_ +00_ 9_
tne +000_ +00_ 9_

[Sample23]
TnE +000_ +00_ F_ L
TnE +010_ +01_ F_
TnE +010_ +01_ F_
TnE +010_ +01_ F_
TnE +010_ +01_ F_
TnE +000_ +00_ F_
TnE +000_ +00_ F_
TnE -010_ -01_ F_
TnE -010_ -01_ F_
TnE -010_ -01_ F_
TnE -010_ -01_ F_
TnE +000_ +00_ F_

[Sample24]
TNe +000_ -01_ C_
TNe +000_ -01_ D_
TNe +000_ -01_ E_
TNe +000_ -01_ F_
TNe +000_ -01_ F_
TNe +000_ -01_ F_
TNe +000_ -01_ F_
TNe +000_ -01_ F_
TNe +000_ -01_ E_
TNe +000_ -01_ E_
TNe +000_ -01_ E_
TNe +000_ -01_ F_
TNe +000_ -01_ F_ L

[Sample25]
TNE +000_ +00_ F_
TNE +000_ +00_ F_ L
TNE +000_ +00_ F_
TNE +000_ +00_ F_
TNE +000_ +00_ F-

[Sample26]
tne +000_ +00_ 0_ L

[Sample27]
TnE +100_ +05_ F_
TnE +200_ +02_ A_
TnE +300_ +02_ 7_
TNE +400_ +00_ 3- L

[Sample28]
tne +000_ +00_ 0_ L

[Sample29]
tnE +000_ +00_ 0_ L

[Sample30]
TNE +000_ +00_ C+ L

[Sample31]
TNe +1C0_ +00_ F_
Tne +280_ +00_ E_
Tne +380_ +00_ C_
Tne +440_ +00_ A_
Tne +480_ +00_ 8_
TnE +000_ +00_ 0_ L

[Pattern0]
....|..|--- .... ....|D-4 2F1F ....|--- .... ....
....|..|--- .... ....|--- .... ....|--- .... ....
....|..|--- .... ....|R-- .... ....|--- .... ....
....|..|--- .... ....|--- .... ....|--- .... ....
....|..|--- .... ....|D-4 2F1F ....|--- .... ....
....|..|--- .... ....|--- .... ....|--- .... ....
....|..|--- .... ....|R-- .... ....|--- .... ....
....|..|--- .... ....|--- .... ....|--- .... ....
....|..|--- .... ....|D-4 2F1F ....|--- .... ....
....|..|--- .... ....|--- .... ....|--- .... ....
....|..|--- .... ....|R-- .... ....|--- .... ....
....|..|--- .... ....|--- .... ....|--- .... ....
....|..|--- .... ....|D-4 2F1F ....|--- .... ....
....|..|--- .... ....|--- .... ....|--- .... ....
....|..|--- .... ....|D-4 2F1F ....|--- .... ....
....|..|--- .... ....|--- .... ....|--- .... ....
....|..|--- .... ....|C-4 2F2F ....|--- .... ....
....|..|--- .... ....|--- .... ....|--- .... ....
....|..|--- .... ....|C-4 2F2F ....|--- .... ....
....|..|--- .... ....|--- .... ....|--- .... ....
....|..|--- .... ....|D-4 2F1A ....|--- .... ....
....|..|--- .... ....|--- .... ....|--- .... ....
....|..|--- .... ....|C-4 2F2F ....|--- .... ....
....|..|--- .... ....|--- .... ....|--- .... ....
....|..|--- .... ....|C-4 2F2F ....|--- .... ....
....|..|--- .... ....|--- .... ....|--- .... ....
....|..|--- .... ....|D-4 2F1A ....|--- .... ....
....|..|--- .... ....|--- .... ....|--- .... ....
....|..|--- .... ....|C-4 2F2F ....|--- .... ....
....|..|--- .... ....|--- .... ....|--- .... ....
....|..|--- .... ....|C-4 2F2F ....|--- .... ....
....|..|--- .... ....|--- .... ....|--- .... ....
....|..|--- .... ....|A#4 2F3F ....|--- .... ....
....|..|--- .... ....|--- .... ....|--- .... ....
....|..|--- .... ....|C-4 2F2A ....|--- .... ....
....|..|--- .... ....|--- .... ....|--- .... ....
....|..|--- .... ....|A#4 2F3F ....|--- .... ....
....|..|--- .... ....|--- .... ....|--- .... ....
....|..|--- .... ....|D-4 2F17 ....|--- .... ....
....|..|--- .... ....|--- .... ....|--- .... ....
....|..|--- .... ....|A#4 2F3F ....|--- .... ....
....|..|--- .... ....|--- .... ....|--- .... ....
....|..|--- .... ....|C-4 2F27 ....|--- .... ....
....|..|--- .... ....|--- .... ....|--- .... ....
....|..|--- .... ....|A#4 2F3F ....|--- .... ....
....|..|--- .... ....|--- .... ....|--- .... ....
....|..|--- .... ....|A#4 2F3F ....|--- .... ....
....|..|--- .... ....|--- .... ....|--- .... ....
....|..|--- .... ....|C-4 2F3F ....|--- .... ....
....|..|--- .... ....|--- .... ....|--- .... ....
....|..|--- .... ....|C-4 2F3F ....|--- .... ....
....|..|--- .... ....|--- .... ....|--- .... ....
....|..|--- .... ....|C-4 2F27 ....|--- .... ....
....|..|--- .... ....|--- .... ....|--- .... ....
....|..|--- .... ....|C-4 2F3F ....|--- .... ....
....|..|--- .... ....|--- .... ....|--- .... ....
....|..|--- .... ....|C-4 2F3F ....|--- .... ....
....|..|--- .... ....|--- .... ....|--- .... ....
....|..|--- .... ....|A#4 2F3A ....|--- .... ....
....|..|--- .... ....|--- .... ....|--- .... ....
....|..|--- .... ....|C-4 2F3F ....|--- .... ....
....|..|--- .... ....|--- .... ....|--- .... ....
....|..|--- .... ....|C-4 2F3F ....|--- .... ....
....|..|--- .... ....|--- .... ....|--- .... ....

[Pattern1]
....|..|--- .... ....|D-4 2F1F ....|--- .... ....
....|..|--- .... ....|--- .... ....|--- .... ....
....|..|--- .... ....|C-4 2F3A ....|--- .... ....
....|..|--- .... ....|--- .... ....|--- .... ....
....|..|--- .... ....|D-4 2F1F ....|--- .... ....
....|..|--- .... ....|--- .... ....|--- .... ....
....|..|--- .... ....|A#4 2F37 ....|--- .... ....
....|..|--- .... ....|--- .... ....|--- .... ....
....|..|--- .... ....|D-4 2F1F ....|--- .... ....
....|..|--- .... ....|--- .... ....|--- .... ....
....|..|--- .... ....|C-4 2F37 ....|--- .... ....
....|..|--- .... ....|--- .... ....|--- .... ....
....|..|--- .... ....|D-4 2F1F ....|--- .... ....
....|..|--- .... ....|--- .... ....|--- .... ....
....|..|--- .... ....|D-4 2F1F ....|--- .... ....
....|..|--- .... ....|--- .... ....|--- .... ....
....|..|--- .... ....|C-4 2F3F ....|--- .... ....
....|..|--- .... ....|--- .... ....|--- .... ....
....|..|--- .... ....|C-4 2F3F ....|--- .... ....
....|..|--- .... ....|--- .... ....|--- .... ....
....|..|--- .... ....|C-4 2F37 ....|--- .... ....
....|..|--- .... ....|--- .... ....|--- .... ....
....|..|--- .... ....|C-4 2F3F ....|--- .... ....
....|..|--- .... ....|--- .... ....|--- .... ....
....|..|--- .... ....|C-4 2F3F ....|--- .... ....
....|..|--- .... ....|--- .... ....|--- .... ....
....|..|--- .... ....|D-4 2F1A ....|--- .... ....
....|..|--- .... ....|--- .... ....|--- .... ....
....|..|--- .... ....|C-4 2F3F ....|--- .... ....
....|..|--- .... ....|--- .... ....|--- .... ....
....|..|--- .... ....|C-4 2F3F ....|--- .... ....
....|..|--- .... ....|--- .... ....|--- .... ....
....|..|--- .... ....|A-4 2F1F ....|--- .... ....
....|..|--- .... ....|--- .... ....|--- .... ....
....|..|--- .... ....|C-4 2F3A ....|--- .... ....
....|..|--- .... ....|--- .... ....|--- .... ....
....|..|--- .... ....|A-4 2F1F ....|--- .... ....
....|..|--- .... ....|--- .... ....|--- .... ....
....|..|--- .... ....|D-4 2F17 ....|--- .... ....
....|..|--- .... ....|--- .... ....|--- .... ....
....|..|--- .... ....|A-4 2F1F ....|--- .... ....
....|..|--- .... ....|--- .... ....|--- .... ....
....|..|--- .... ....|C-4 2F37 ....|--- .... ....
....|..|--- .... ....|--- .... ....|--- .... ....
....|..|--- .... ....|A-4 2F1F ....|--- .... ....
....|..|--- .... ....|--- .... ....|--- .... ....
....|..|--- .... ....|A-4 2F1F ....|--- .... ....
....|..|--- .... ....|--- .... ....|--- .... ....
....|..|--- .... ....|A#4 2F3F ....|--- .... ....
....|..|--- .... ....|--- .... ....|--- .... ....
....|..|--- .... ....|A#4 2F3F ....|--- .... ....
....|..|--- .... ....|--- .... ....|--- .... ....
....|..|--- .... ....|C-4 2F37 ....|--- .... ....
....|..|--- .... ....|--- .... ....|--- .... ....
....|..|--- .... ....|A#4 2F3F ....|--- .... ....
....|..|--- .... ....|--- .... ....|--- .... ....
....|..|--- .... ....|A#4 2F3F ....|--- .... ....
....|..|--- .... ....|--- .... ....|--- .... ....
....|..|--- .... ....|A-4 2F1A ....|--- .... ....
....|..|--- .... ....|--- .... ....|--- .... ....
....|..|--- .... ....|A#4 2F3F ....|--- .... ....
....|..|--- .... ....|--- .... ....|--- .... ....
....|..|--- .... ....|A#4 2F3F ....|--- .... ....
....|..|--- .... ....|--- .... ....|--- .... ....

[Pattern2]
 D-3|..|D-1 2A.F ....|D-4 2F1F ....|--- .... ....
....|..|--- .... ....|--- .... ....|--- .... ....
....|..|--- .... ....|A#4 2F3A ....|--- .... ....
....|..|--- .... ....|--- .... ....|--- .... ....
 D-4|..|D-2 2A.F ....|D-4 2F1F ....|--- .... ....
....|..|--- .... ....|--- .... ....|--- .... ....
....|..|--- .... ....|A-4 2F17 ....|--- .... ....
....|..|--- .... ....|--- .... ....|--- .... ....
 D-3|..|D-1 2A.F ....|D-4 2F1F ....|--- .... ....
....|..|--- .... ....|--- .... ....|--- .... ....
....|..|--- .... ....|A#4 2F37 ....|--- .... ....
....|..|--- .... ....|--- .... ....|--- .... ....
 D-4|..|D-2 2A.F ....|D-4 2F1F ....|--- .... ....
....|..|--- .... ....|--- .... ....|--- .... ....
....|..|--- .... ....|D-4 2F1F ....|--- .... ....
....|..|--- .... ....|--- .... ....|--- .... ....
 F-3|..|F-1 2A.F ....|C-4 2F2F ....|--- .... ....
....|..|--- .... ....|--- .... ....|--- .... ....
....|..|--- .... ....|C-4 2F2F ....|--- .... ....
....|..|--- .... ....|--- .... ....|--- .... ....
 F-4|..|F-2 2A.F ....|A#4 2F37 ....|--- .... ....
....|..|--- .... ....|--- .... ....|--- .... ....
....|..|--- .... ....|C-4 2F2F ....|--- .... ....
....|..|--- .... ....|--- .... ....|--- .... ....
 F-3|..|F-1 2A.F ....|C-4 2F2F ....|--- .... ....
....|..|--- .... ....|--- .... ....|--- .... ....
....|..|--- .... ....|D-4 2F1A ....|--- .... ....
....|..|--- .... ....|--- .... ....|--- .... ....
 F-4|..|F-2 2A.F ....|C-4 2F2F ....|--- .... ....
....|..|--- .... ....|--- .... ....|--- .... ....
....|..|--- .... ....|C-4 2F2F ....|--- .... ....
....|..|--- .... ....|--- .... ....|--- .... ....
 A#2|..|A#1 2A.F ....|A#4 2F3F ....|--- .... ....
....|..|--- .... ....|--- .... ....|--- .... ....
....|..|--- .... ....|C-4 2F2A ....|--- .... ....
....|..|--- .... ....|--- .... ....|--- .... ....
 A#3|..|A#1 2A.F ....|A#4 2F3F ....|--- .... ....
....|..|--- .... ....|--- .... ....|--- .... ....
....|..|--- .... ....|D-4 2F17 ....|--- .... ....
....|..|--- .... ....|--- .... ....|--- .... ....
 A#2|..|A#1 2A.F ....|A#4 2F3F ....|--- .... ....
....|..|--- .... ....|--- .... ....|--- .... ....
....|..|--- .... ....|C-4 2F27 ....|--- .... ....
....|..|--- .... ....|--- .... ....|--- .... ....
 A#3|..|A#1 2A.F ....|A#4 2F3F ....|--- .... ....
....|..|--- .... ....|--- .... ....|--- .... ....
....|..|--- .... ....|A#4 2F3F ....|--- .... ....
....|..|--- .... ....|--- .... ....|--- .... ....
 C-3|..|C-1 2A.F ....|C-4 2F3F ....|--- .... ....
....|..|--- .... ....|--- .... ....|--- .... ....
....|..|--- .... ....|C-4 2F3F ....|--- .... ....
....|..|--- .... ....|--- .... ....|--- .... ....
 C-4|..|C-2 2A.F ....|C-4 2F27 ....|--- .... ....
....|..|--- .... ....|--- .... ....|--- .... ....
....|..|--- .... ....|C-4 2F3F ....|--- .... ....
....|..|--- .... ....|--- .... ....|--- .... ....
 C-3|..|C-1 2A.F ....|C-4 2F3F ....|--- .... ....
....|..|--- .... ....|--- .... ....|--- .... ....
....|..|--- .... ....|A#4 2F3A ....|--- .... ....
....|..|--- .... ....|--- .... ....|--- .... ....
 C-4|..|C-2 2A.F ....|C-4 2F3F ....|--- .... ....
....|..|--- .... ....|--- .... ....|--- .... ....
....|..|--- .... ....|C-4 2F3F ....|--- .... ....
....|..|--- .... ....|--- .... ....|--- .... ....

[Pattern3]
 D-3|..|D-1 2A.F ....|D-4 2F1F ....|--- .... ....
....|..|--- .... ....|--- .... ....|--- .... ....
....|..|--- .... ....|C-4 2F3A ....|--- .... ....
....|..|--- .... ....|--- .... ....|--- .... ....
 D-4|..|D-2 2A.F ....|D-4 2F1F ....|--- .... ....
....|..|--- .... ....|--- .... ....|--- .... ....
....|..|--- .... ....|A#4 2F37 ....|--- .... ....
....|..|--- .... ....|--- .... ....|--- .... ....
 D-3|..|D-1 2A.F ....|D-4 2F1F ....|--- .... ....
....|..|--- .... ....|--- .... ....|--- .... ....
....|..|--- .... ....|C-4 2F37 ....|--- .... ....
....|..|--- .... ....|--- .... ....|--- .... ....
 D-4|..|D-2 2A.F ....|D-4 2F1F ....|--- .... ....
....|..|--- .... ....|--- .... ....|--- .... ....
....|..|--- .... ....|D-4 2F1F ....|--- .... ....
....|..|--- .... ....|--- .... ....|--- .... ....
 C-3|..|C-1 2A.F ....|C-4 2F3F ....|--- .... ....
....|..|--- .... ....|--- .... ....|--- .... ....
....|..|--- .... ....|C-4 2F3F ....|--- .... ....
....|..|--- .... ....|--- .... ....|--- .... ....
 C-4|..|C-2 2A.F ....|C-4 2F37 ....|--- .... ....
....|..|--- .... ....|--- .... ....|--- .... ....
....|..|--- .... ....|C-4 2F3F ....|--- .... ....
....|..|--- .... ....|--- .... ....|--- .... ....
 C-3|..|C-1 2A.F ....|C-4 2F3F ....|--- .... ....
....|..|--- .... ....|--- .... ....|--- .... ....
....|..|--- .... ....|D-4 2F1A ....|--- .... ....
....|..|--- .... ....|--- .... ....|--- .... ....
 C-4|..|C-2 2A.F ....|C-4 2F3F ....|--- .... ....
....|..|--- .... ....|--- .... ....|--- .... ....
....|..|--- .... ....|C-4 2F3F ....|--- .... ....
....|..|--- .... ....|--- .... ....|--- .... ....
 A-2|..|A-1 2A.F ....|A-4 2F1F ....|--- .... ....
....|..|--- .... ....|--- .... ....|--- .... ....
....|..|--- .... ....|C-4 2F3A ....|--- .... ....
....|..|--- .... ....|--- .... ....|--- .... ....
 A-3|..|A-1 2A.F ....|A-4 2F1F ....|--- .... ....
....|..|--- .... ....|--- .... ....|--- .... ....
....|..|--- .... ....|D-4 2F17 ....|--- .... ....
....|..|--- .... ....|--- .... ....|--- .... ....
 A-2|..|A-1 2A.F ....|A-4 2F1F ....|--- .... ....
....|..|--- .... ....|--- .... ....|--- .... ....
....|..|--- .... ....|C-4 2F37 ....|--- .... ....
....|..|--- .... ....|--- .... ....|--- .... ....
 A-3|..|A-1 2A.F ....|A-4 2F1F ....|--- .... ....
....|..|--- .... ....|--- .... ....|--- .... ....
....|..|--- .... ....|A-4 2F1F ....|--- .... ....
....|..|--- .... ....|--- .... ....|--- .... ....
 A#2|..|A#1 2A.F ....|A#4 2F3F ....|--- .... ....
....|..|--- .... ....|--- .... ....|--- .... ....
....|..|--- .... ....|A#4 2F3F ....|--- .... ....
....|..|--- .... ....|--- .... ....|--- .... ....
 A#3|..|A#1 2A.F ....|C-4 2F37 ....|--- .... ....
....|..|--- .... ....|--- .... ....|--- .... ....
....|..|--- .... ....|A#4 2F3F ....|--- .... ....
....|..|--- .... ....|--- .... ....|--- .... ....
 A#2|..|A#1 2A.F ....|A#4 2F3F ....|--- .... ....
....|..|--- .... ....|--- .... ....|--- .... ....
....|..|--- .... ....|A-4 2F1A ....|--- .... ....
....|..|--- .... ....|--- .... ....|--- .... ....
 A#3|..|A#1 2A.F ....|A#4 2F3F ....|--- .... ....
....|..|--- .... ....|--- .... ....|--- .... ....
....|..|--- .... ....|A#4 2F3F ....|--- .... ....
....|..|--- .... ....|--- .... ....|--- .... ....

[Pattern4]
....|..|C-4 AF.F ....|D-4 2F1F ....|F-5 3F.F ....
 D-3|..|D-1 2A.F ....|--- .... ....|--- .... ....
....|..|R-- .... ....|A#4 2F3A ....|--- .... ....
....|..|--- .... ....|--- .... ....|--- .... ....
....|..|B-8 JF.F ....|D-4 2F1F ....|--- .... ....
 D-4|..|D-2 2A.F ....|--- .... ....|--- .... ....
....|..|R-- .... ....|A-4 2F17 ....|--- .... ....
....|..|--- .... ....|--- .... ....|--- .... ....
....|..|C-4 CF.F ....|D-4 2F1F ....|--- .... ....
 D-3|..|D-1 2A.F ....|--- .... ....|--- .... ....
....|..|R-- .... ....|A#4 2F37 ....|--- .... ....
....|..|--- .... ....|--- .... ....|--- .... ....
....|..|B-8 JF.F ....|D-4 2F1F ....|F-5 3F.A ....
 D-4|..|D-2 2A.F ....|--- .... ....|--- .... ....
....|..|R-- .... ....|D-4 2F1F ....|--- .... ....
....|..|--- .... ....|--- .... ....|--- .... ....
....|..|C-4 AF.F ....|C-4 2F2F ....|--- .... ....
 F-3|..|F-1 2A.F ....|--- .... ....|--- .... ....
....|..|R-- .... ....|C-4 2F2F ....|--- .... ....
....|..|--- .... ....|--- .... ....|--- .... ....
....|..|B-8 JF.F ....|A#4 2F37 ....|A-4 3F.F ....
 F-4|..|F-2 2A.F ....|--- .... ....|--- .... ....
....|..|R-- .... ....|C-4 2F2F ....|--- .... ....
....|..|--- .... ....|--- .... ....|--- .... ....
....|..|C-4 CF.F ....|C-4 2F2F ....|D-5 3F.F ....
 F-3|..|F-1 2A.F ....|--- .... ....|--- .... ....
....|..|R-- .... ....|D-4 2F1A ....|--- .... ....
....|..|--- .... ....|--- .... ....|--- .... ....
....|..|B-8 JF.F ....|C-4 2F2F ....|E-5 3F.F ....
 F-4|..|F-2 2A.F ....|--- .... ....|--- .... ....
....|..|R-- .... ....|C-4 2F2F ....|F-5 3F.F ....
....|..|--- .... ....|--- .... ....|--- .... ....
....|..|C-4 AF.F ....|A#4 2F3F ....|A-4 3F.A ....
 A#2|..|A#1 2A.F ....|--- .... ....|--- .... ....
....|..|R-- .... ....|C-4 2F2A ....|--- .... ....
....|..|--- .... ....|--- .... ....|--- .... ....
....|..|B-8 JF.F ....|A#4 2F3F ....|E-5 3F.F ....
 A#3|..|A#1 2A.F ....|--- .... ....|--- .... ....
....|..|R-- .... ....|D-4 2F17 ....|--- .... ....
....|..|--- .... ....|--- .... ....|--- .... ....
....|..|C-4 CF.F ....|A#4 2F3F ....|D-5 3F.F ....
 A#2|..|A#1 2A.F ....|--- .... ....|--- .... ....
....|..|R-- .... ....|C-4 2F27 ....|F-5 3F.A ....
....|..|--- .... ....|--- .... ....|--- .... ....
....|..|B-8 JF.F ....|A#4 2F3F ....|C-5 3F.F ....
 A#3|..|A#1 2A.F ....|--- .... ....|--- .... ....
....|..|R-- .... ....|A#4 2F3F ....|G-4 3F.F ....
....|..|--- .... ....|--- .... ....|--- .... ....
....|..|C-4 AF.F ....|C-4 2F3F ....|D-5 3F.7 ....
 C-3|..|C-1 2A.F ....|--- .... ....|--- .... ....
....|..|R-- .... ....|C-4 2F3F ....|--- .... ....
....|..|--- .... ....|--- .... ....|--- .... ....
....|..|B-8 JF.F ....|C-4 2F27 ....|E-5 3F.7 ....
 C-4|..|C-2 2A.F ....|--- .... ....|--- .... ....
....|..|R-- .... ....|C-4 2F3F ....|F-5 3F.7 ....
....|..|--- .... ....|--- .... ....|--- .... ....
....|..|C-4 CF.F ....|C-4 2F3F ....|C-5 3F.A ....
 C-3|..|C-1 2A.F ....|--- .... ....|--- .... ....
....|..|R-- .... ....|A#4 2F3A ....|G-4 3F.A ....
....|..|--- .... ....|--- .... ....|--- .... ....
....|..|B-8 JF.F ....|C-4 2F3F ....|E-5 3F.7 ....
 C-4|..|C-2 2A.F ....|--- .... ....|--- .... ....
....|..|R-- .... ....|C-4 2F3F ....|--- .... ....
....|..|--- .... ....|--- .... ....|--- .... ....

[Pattern5]
....|..|C-4 AF.F ....|D-4 2F1F ....|A-4 3F.F ....
 D-3|..|D-1 2A.F ....|--- .... ....|--- .... ....
....|..|R-- .... ....|C-4 2F3A ....|--- .... ....
....|..|--- .... ....|--- .... ....|--- .... ....
....|..|B-8 JF.F ....|D-4 2F1F ....|C-5 3F.7 ....
 D-4|..|D-2 2A.F ....|--- .... ....|--- .... ....
....|..|R-- .... ....|A#4 2F37 ....|G-4 3F.7 ....
....|..|--- .... ....|--- .... ....|--- .... ....
....|..|C-4 CF.F ....|D-4 2F1F ....|G-4 3F.F ....
 D-3|..|D-1 2A.F ....|--- .... ....|--- .... ....
....|..|R-- .... ....|C-4 2F37 ....|--- .... ....
....|..|--- .... ....|--- .... ....|--- .... ....
....|..|B-8 JF.F ....|D-4 2F1F ....|A-4 3F.F ....
 D-4|..|D-2 2A.F ....|--- .... ....|--- .... ....
....|..|R-- .... ....|D-4 2F1F ....|--- .... ....
....|..|--- .... ....|--- .... ....|--- .... ....
....|..|C-4 AF.F ....|C-4 2F3F ....|--- .... ....
 C-3|..|C-1 2A.F ....|--- .... ....|--- .... ....
....|..|R-- .... ....|C-4 2F3F ....|--- .... ....
....|..|--- .... ....|--- .... ....|--- .... ....
....|..|B-8 JF.F ....|C-4 2F37 ....|C-5 3F.F ....
 C-4|..|C-2 2A.F ....|--- .... ....|--- .... ....
....|..|R-- .... ....|C-4 2F3F ....|--- .... ....
....|..|--- .... ....|--- .... ....|--- .... ....
....|..|C-4 CF.F ....|C-4 2F3F ....|D-5 3F.F ....
 C-3|..|C-1 2A.F ....|--- .... ....|--- .... ....
....|..|R-- .... ....|D-4 2F1A ....|--- .... ....
....|..|--- .... ....|--- .... ....|--- .... ....
....|..|B-8 JF.F ....|C-4 2F3F ....|C-5 3F.F ....
 C-4|..|C-2 2A.F ....|--- .... ....|--- .... ....
....|..|R-- .... ....|C-4 2F3F ....|A-4 3F.F ....
....|..|--- .... ....|--- .... ....|--- .... ....
....|..|C-4 AF.F ....|A-4 2F1F ....|G-4 3F.7 ....
 A-2|..|A-1 2A.F ....|--- .... ....|--- .... ....
....|..|R-- .... ....|C-4 2F3A ....|--- .... ....
....|..|--- .... ....|--- .... ....|--- .... ....
....|..|B-8 JF.F ....|A-4 2F1F ....|D-5 3F.F ....
 A-3|..|A-1 2A.F ....|--- .... ....|--- .... ....
....|..|R-- .... ....|D-4 2F17 ....|--- .... ....
....|..|--- .... ....|--- .... ....|--- .... ....
....|..|C-4 CF.F ....|A-4 2F1F ....|D-5 3F.F ....
 A-2|..|A-1 2A.F ....|--- .... ....|--- .... ....
....|..|R-- .... ....|C-4 2F37 ....|A-4 3F.A ....
....|..|--- .... ....|--- .... ....|--- .... ....
....|..|B-8 JF.F ....|A-4 2F1F ....|E-5 3F.F ....
 A-3|..|A-1 2A.F ....|--- .... ....|--- .... ....
....|..|R-- .... ....|A-4 2F1F ....|D-5 3F.F ....
....|..|--- .... ....|--- .... ....|--- .... ....
....|..|C-4 AF.F ....|A#4 2F3F ....|D-5 3F.7 ....
 A#2|..|A#1 2A.F ....|--- .... ....|--- .... ....
....|..|R-- .... ....|A#4 2F3F ....|--- .... ....
....|..|--- .... ....|--- .... ....|--- .... ....
....|..|B-8 JF.F ....|C-4 2F37 ....|C-5 3F.7 ....
 A#3|..|A#1 2A.F ....|--- .... ....|--- .... ....
....|..|R-- .... ....|A#4 2F3F ....|A-4 3F.7 ....
....|..|--- .... ....|--- .... ....|--- .... ....
....|..|C-4 CF.F ....|A#4 2F3F ....|E-5 3F.F ....
 A#2|..|A#1 2A.F ....|--- .... ....|--- .... ....
....|..|C-4 AF.F ....|A-4 2F1A ....|D-5 3F.A ....
....|..|--- .... ....|--- .... ....|--- .... ....
....|..|C-4 CF.F ....|A#4 2F3F ....|D-5 3F.7 ....
 A#3|..|A#1 2A.F ....|--- .... ....|--- .... ....
....|..|C-4 CF.F ....|A#4 2F3F ....|--- .... ....
....|..|--- .... ....|--- .... ....|--- .... ....

[Pattern6]
....|..|C-4 AF.F ....|D-4 2F1F ....|F-5 3F.F ....
 D-3|..|D-1 2A.F ....|--- .... ....|--- .... ....
....|..|R-- .... ....|A#4 2F3A ....|--- .... ....
....|..|--- .... ....|--- .... ....|--- .... ....
....|..|B-8 JF.F ....|D-4 2F1F ....|E-5 3F.7 ....
 D-4|..|D-2 2A.F ....|--- .... ....|--- .... ....
....|..|C-4 AF.A ....|A-4 2F17 ....|D-5 3F.7 ....
....|..|--- .... ....|--- .... ....|--- .... ....
....|..|C-4 CF.F ....|D-4 2F1F ....|--- .... ....
 D-3|..|D-1 2A.F ....|--- .... ....|--- .... ....
....|..|C-4 CF.A ....|A#4 2F37 ....|--- .... ....
....|..|--- .... ....|--- .... ....|--- .... ....
....|..|B-8 JF.F ....|D-4 2F1F ....|F-5 3F.A ....
 D-4|..|D-2 2A.F ....|--- .... ....|--- .... ....
....|..|R-- .... ....|D-4 2F1F ....|--- .... ....
....|..|--- .... ....|--- .... ....|--- .... ....
....|..|C-4 AF.F ....|C-4 2F2F ....|E-5 3F.7 ....
 F-3|..|F-1 2A.F ....|--- .... ....|--- .... ....
....|..|C-4 AF.7 ....|C-4 2F2F ....|--- .... ....
....|..|--- .... ....|--- .... ....|--- .... ....
....|..|B-8 JF.F ....|A#4 2F37 ....|C-5 3F.F ....
 F-4|..|F-2 2A.F ....|--- .... ....|--- .... ....
....|..|C-4 CF.7 ....|C-4 2F2F ....|--- .... ....
....|..|--- .... ....|--- .... ....|--- .... ....
....|..|C-4 CF.F ....|C-4 2F2F ....|D-5 3F.F ....
 F-3|..|F-1 2A.F ....|--- .... ....|--- .... ....
....|..|R-- .... ....|D-4 2F1A ....|--- .... ....
....|..|--- .... ....|--- .... ....|--- .... ....
....|..|B-8 JF.F ....|C-4 2F2F ....|E-5 3F.F ....
 F-4|..|F-2 2A.F ....|--- .... ....|--- .... ....
....|..|R-- .... ....|C-4 2F2F ....|F-5 3F.F ....
....|..|--- .... ....|--- .... ....|--- .... ....
....|..|C-4 AF.F ....|A#4 2F3F ....|C-5 3F.A ....
 A#2|..|A#1 2A.F ....|--- .... ....|--- .... ....
....|..|R-- .... ....|C-4 2F2A ....|--- .... ....
....|..|--- .... ....|--- .... ....|--- .... ....
....|..|B-8 JF.F ....|A#4 2F3F ....|E-5 3F.F ....
 A#3|..|A#1 2A.F ....|--- .... ....|--- .... ....
....|..|R-- .... ....|D-4 2F17 ....|--- .... ....
....|..|--- .... ....|--- .... ....|--- .... ....
....|..|C-4 CF.F ....|A#4 2F3F ....|D-5 3F.F ....
 A#2|..|A#1 2A.F ....|--- .... ....|--- .... ....
....|..|R-- .... ....|C-4 2F27 ....|F-5 3F.A ....
....|..|--- .... ....|--- .... ....|--- .... ....
....|..|B-8 JF.F ....|A#4 2F3F ....|C-5 3F.F ....
 A#3|..|A#1 2A.F ....|--- .... ....|--- .... ....
....|..|R-- .... ....|A#4 2F3F ....|A-4 3F.F ....
....|..|--- .... ....|--- .... ....|--- .... ....
....|..|C-4 AF.F ....|C-4 2F3F ....|D-5 3F.7 ....
 C-3|..|C-1 2A.F ....|--- .... ....|--- .... ....
....|..|R-- .... ....|C-4 2F3F ....|--- .... ....
....|..|--- .... ....|--- .... ....|--- .... ....
....|..|B-8 JF.F ....|C-4 2F27 ....|E-5 3F.7 ....
 C-4|..|C-2 2A.F ....|--- .... ....|--- .... ....
....|..|R-- .... ....|C-4 2F3F ....|F-5 3F.7 ....
....|..|--- .... ....|--- .... ....|--- .... ....
....|..|C-4 CF.F ....|C-4 2F3F ....|C-5 3F.A ....
 C-3|..|C-1 2A.F ....|--- .... ....|--- .... ....
....|..|R-- .... ....|A#4 2F3A ....|A-4 3F.A ....
....|..|--- .... ....|--- .... ....|--- .... ....
....|..|B-8 JF.F ....|C-4 2F3F ....|E-5 3F.7 ....
 C-4|..|C-2 2A.F ....|--- .... ....|--- .... ....
....|..|R-- .... ....|C-4 2F3F ....|--- .... ....
....|..|--- .... ....|--- .... ....|--- .... ....

[Pattern7]
....|..|C-4 AF.F ....|D-4 2F1F ....|A-4 3F.F ....
 D-3|..|D-1 2A.F ....|--- .... ....|--- .... ....
....|..|R-- .... ....|C-4 2F3A ....|--- .... ....
....|..|--- .... ....|--- .... ....|--- .... ....
....|..|B-8 JF.F ....|D-4 2F1F ....|C-5 3F.7 ....
 D-4|..|D-2 2A.F ....|--- .... ....|--- .... ....
....|..|R-- .... ....|A#4 2F37 ....|A-4 3F.7 ....
....|..|--- .... ....|--- .... ....|--- .... ....
....|..|C-4 CF.F ....|D-4 2F1F ....|G-4 3F.F ....
 D-3|..|D-1 2A.F ....|--- .... ....|--- .... ....
....|..|R-- .... ....|C-4 2F37 ....|--- .... ....
....|..|--- .... ....|--- .... ....|--- .... ....
....|..|B-8 JF.F ....|D-4 2F1F ....|C-5 3F.F ....
 D-4|..|D-2 2A.F ....|--- .... ....|--- .... ....
....|..|R-- .... ....|D-4 2F1F ....|--- .... ....
....|..|--- .... ....|--- .... ....|--- .... ....
....|..|C-4 AF.F ....|C-4 2F3F ....|--- .... ....
 C-3|..|C-1 2A.F ....|--- .... ....|--- .... ....
....|..|R-- .... ....|C-4 2F3F ....|--- .... ....
....|..|--- .... ....|--- .... ....|--- .... ....
....|..|B-8 JF.F ....|C-4 2F37 ....|D-5 3F.F ....
 C-4|..|C-2 2A.F ....|--- .... ....|--- .... ....
....|..|R-- .... ....|C-4 2F3F ....|--- .... ....
....|..|--- .... ....|--- .... ....|--- .... ....
....|..|C-4 CF.F ....|C-4 2F3F ....|C-5 3F.F ....
 C-3|..|C-1 2A.F ....|--- .... ....|--- .... ....
....|..|R-- .... ....|D-4 2F1A ....|--- .... ....
....|..|--- .... ....|--- .... ....|--- .... ....
....|..|B-8 JF.F ....|C-4 2F3F ....|A-4 3F.F ....
 C-4|..|C-2 2A.F ....|--- .... ....|--- .... ....
....|..|R-- .... ....|C-4 2F3F ....|F-4 3F.F ....
....|..|--- .... ....|--- .... ....|--- .... ....
....|..|C-4 AF.F ....|A-4 2F1F ....|G-4 3F.7 ....
 A-2|..|A-1 2A.F ....|--- .... ....|--- .... ....
....|..|R-- .... ....|C-4 2F3A ....|--- .... ....
....|..|--- .... ....|--- .... ....|--- .... ....
....|..|B-8 JF.F ....|A-4 2F1F ....|D-5 3F.F ....
 A-3|..|A-1 2A.F ....|--- .... ....|--- .... ....
....|..|R-- .... ....|D-4 2F17 ....|--- .... ....
....|..|--- .... ....|--- .... ....|--- .... ....
....|..|C-4 CF.F ....|A-4 2F1F ....|D-5 3F.F ....
 A-2|..|A-1 2A.F ....|--- .... ....|--- .... ....
....|..|R-- .... ....|C-4 2F37 ....|F-4 3F.A ....
....|..|--- .... ....|--- .... ....|--- .... ....
....|..|B-8 JF.F ....|A-4 2F1F ....|D-5 3F.F ....
 A-3|..|A-1 2A.F ....|--- .... ....|--- .... ....
....|..|R-- .... ....|A-4 2F1F ....|--- .... ....
....|..|--- .... ....|--- .... ....|--- .... ....
....|..|C-4 AF.F ....|A#4 2F3F ....|F-5 3F.F ....
 A#2|..|A#1 2A.F ....|--- .... ....|--- .... ....
....|..|R-- .... ....|A#4 2F3F ....|--- .... ....
....|..|--- .... ....|--- .... ....|--- .... ....
....|..|B-8 JF.F ....|C-4 2F37 ....|E-5 3F.F ....
 A#3|..|A#1 2A.F ....|--- .... ....|--- .... ....
....|..|R-- .... ....|A#4 2F3F ....|F-4 3F.7 ....
....|..|--- .... ....|--- .... ....|--- .... ....
....|..|C-4 CF.F ....|A#4 2F3F ....|D-5 3F.F ....
 A#2|..|A#1 2A.F ....|--- .... ....|--- .... ....
....|..|C-4 AF.F ....|A-4 2F1A ....|--- .... ....
....|..|--- .... ....|--- .... ....|--- .... ....
....|..|C-4 CF.F ....|A#4 2F3F ....|C-5 3F.F ....
 A#3|..|A#1 2A.F ....|--- .... ....|--- .... ....
....|..|C-4 CF.F ....|A#4 2F3F ....|--- .... ....
....|..|--- .... ....|--- .... ....|--- .... ....

[Pattern8]
....|..|C-4 AF.F ....|D-4 2F1F ....|F-5 3F.F ....
 D-3|..|D-1 2A.F ....|--- .... ....|--- .... ....
....|..|R-- .... ....|A#4 2F3A ....|--- .... ....
....|..|--- .... ....|--- .... ....|--- .... ....
....|..|B-8 JF.F ....|D-4 2F1F ....|D-5 3F.F ....
 D-4|..|D-2 2A.F ....|--- .... ....|--- .... ....
....|..|C-4 AF.A ....|A-4 2F17 ....|--- .... ....
....|..|--- .... ....|--- .... ....|--- .... ....
....|..|C-4 CF.F ....|D-4 2F1F ....|F-5 3F.F ....
 D-3|..|D-1 2A.F ....|--- .... ....|--- .... ....
....|..|C-4 CF.A ....|A#4 2F37 ....|--- .... ....
....|..|--- .... ....|--- .... ....|--- .... ....
....|..|B-8 JF.F ....|D-4 2F1F ....|G-5 3F.F ....
 D-4|..|D-2 2A.F ....|--- .... ....|--- .... ....
....|..|R-- .... ....|D-4 2F1F ....|F-5 3F.F ....
....|..|--- .... ....|--- .... ....|--- .... ....
....|..|C-4 AF.F ....|C-4 2F2F ....|D-5 3F.7 ....
 F-3|..|F-1 2A.F ....|--- .... ....|--- .... ....
....|..|C-4 AF.7 ....|C-4 2F2F ....|--- .... ....
....|..|--- .... ....|--- .... ....|--- .... ....
....|..|B-8 JF.F ....|A#4 2F37 ....|E-5 3F.F ....
 F-4|..|F-2 2A.F ....|--- .... ....|--- .... ....
....|..|C-4 CF.7 ....|C-4 2F2F ....|--- .... ....
....|..|--- .... ....|--- .... ....|--- .... ....
....|..|C-4 CF.F ....|C-4 2F2F ....|D-5 3F.F ....
 F-3|..|F-1 2A.F ....|--- .... ....|--- .... ....
....|..|R-- .... ....|D-4 2F1A ....|C-5 3F.F ....
....|..|--- .... ....|--- .... ....|--- .... ....
....|..|B-8 JF.F ....|C-4 2F2F ....|D-5 3F.7 ....
 F-4|..|F-2 2A.F ....|--- .... ....|--- .... ....
....|..|R-- .... ....|C-4 2F2F ....|--- .... ....
....|..|--- .... ....|--- .... ....|--- .... ....
....|..|C-4 AF.F ....|A#4 2F3F ....|C-5 3F.F ....
 A#2|..|A#1 2A.F ....|--- .... ....|--- .... ....
....|..|R-- .... ....|C-4 2F2A ....|--- .... ....
....|..|--- .... ....|--- .... ....|--- .... ....
....|..|B-8 JF.F ....|A#4 2F3F ....|D-5 3F.F ....
 A#3|..|A#1 2A.F ....|--- .... ....|--- .... ....
....|..|R-- .... ....|D-4 2F17 ....|F-5 3F.7 ....
....|..|--- .... ....|--- .... ....|--- .... ....
....|..|C-4 CF.F ....|A#4 2F3F ....|D-5 3F.F ....
 A#2|..|A#1 2A.F ....|--- .... ....|--- .... ....
....|..|R-- .... ....|C-4 2F27 ....|--- .... ....
....|..|--- .... ....|--- .... ....|--- .... ....
....|..|B-8 JF.F ....|A#4 2F3F ....|C-5 3F.F ....
 A#3|..|A#1 2A.F ....|--- .... ....|--- .... ....
....|..|R-- .... ....|A#4 2F3F ....|F-5 3F.F ....
....|..|--- .... ....|--- .... ....|--- .... ....
....|..|C-4 AF.F ....|C-4 2F3F ....|D-5 3F.7 ....
 C-3|..|C-1 2A.F ....|--- .... ....|--- .... ....
....|..|R-- .... ....|C-4 2F3F ....|C-5 3F.7 ....
....|..|--- .... ....|--- .... ....|--- .... ....
....|..|B-8 JF.F ....|C-4 2F27 ....|E-5 3F.F ....
 C-4|..|C-2 2A.F ....|--- .... ....|--- .... ....
....|..|R-- .... ....|C-4 2F3F ....|--- .... ....
....|..|--- .... ....|--- .... ....|--- .... ....
....|..|C-4 CF.F ....|C-4 2F3F ....|D-5 3F.F ....
 C-3|..|C-1 2A.F ....|--- .... ....|--- .... ....
....|..|R-- .... ....|A#4 2F3A ....|C-5 3F.F ....
....|..|--- .... ....|--- .... ....|--- .... ....
....|..|B-8 JF.F ....|C-4 2F3F ....|D-5 3F.7 ....
 C-4|..|C-2 2A.F ....|--- .... ....|--- .... ....
....|..|R-- .... ....|C-4 2F3F ....|--- .... ....
....|..|--- .... ....|--- .... ....|--- .... ....

[Pattern9]
....|..|C-4 AF.F ....|D-4 2F1F ....|F-5 3F.F ....
 D-3|..|D-1 2A.F ....|--- .... ....|--- .... ....
....|..|R-- .... ....|C-4 2F3A ....|--- .... ....
....|..|--- .... ....|--- .... ....|--- .... ....
....|..|B-8 JF.F ....|D-4 2F1F ....|D-5 3F.F ....
 D-4|..|D-2 2A.F ....|--- .... ....|--- .... ....
....|..|R-- .... ....|A#4 2F37 ....|F-5 3F.7 ....
....|..|--- .... ....|--- .... ....|--- .... ....
....|..|C-4 CF.F ....|D-4 2F1F ....|F-5 3F.F ....
 D-3|..|D-1 2A.F ....|--- .... ....|--- .... ....
....|..|R-- .... ....|C-4 2F37 ....|--- .... ....
....|..|--- .... ....|--- .... ....|--- .... ....
....|..|B-8 JF.F ....|D-4 2F1F ....|G-5 3F.F ....
 D-4|..|D-2 2A.F ....|--- .... ....|--- .... ....
....|..|R-- .... ....|D-4 2F1F ....|F-5 3F.F ....
....|..|--- .... ....|--- .... ....|--- .... ....
....|..|C-4 AF.F ....|C-4 2F3F ....|D-5 3F.7 ....
 C-3|..|C-1 2A.F ....|--- .... ....|--- .... ....
....|..|R-- .... ....|C-4 2F3F ....|C-5 3F.7 ....
....|..|--- .... ....|--- .... ....|--- .... ....
....|..|B-8 JF.F ....|C-4 2F37 ....|E-5 3F.F ....
 C-4|..|C-2 2A.F ....|--- .... ....|--- .... ....
....|..|R-- .... ....|C-4 2F3F ....|--- .... ....
....|..|--- .... ....|--- .... ....|--- .... ....
....|..|C-4 CF.F ....|C-4 2F3F ....|D-5 3F.F ....
 C-3|..|C-1 2A.F ....|--- .... ....|--- .... ....
....|..|R-- .... ....|D-4 2F1A ....|C-5 3F.F ....
....|..|--- .... ....|--- .... ....|--- .... ....
....|..|B-8 JF.F ....|C-4 2F3F ....|D-5 3F.7 ....
 C-4|..|C-2 2A.F ....|--- .... ....|--- .... ....
....|..|R-- .... ....|C-4 2F3F ....|--- .... ....
....|..|--- .... ....|--- .... ....|--- .... ....
....|..|C-4 AF.F ....|A-4 2F1F ....|A-4 3F.F ....
 A-2|..|A-1 2A.F ....|--- .... ....|--- .... ....
....|..|R-- .... ....|C-4 2F3A ....|--- .... ....
....|..|--- .... ....|--- .... ....|--- .... ....
....|..|B-8 JF.F ....|A-4 2F1F ....|C-5 3F.F ....
 A-3|..|A-1 2A.F ....|--- .... ....|--- .... ....
....|..|R-- .... ....|D-4 2F17 ....|F-5 3F.7 ....
....|..|--- .... ....|--- .... ....|--- .... ....
....|..|C-4 CF.F ....|A-4 2F1F ....|D-5 3F.F ....
 A-2|..|A-1 2A.F ....|--- .... ....|--- .... ....
....|..|R-- .... ....|C-4 2F37 ....|--- .... ....
....|..|--- .... ....|--- .... ....|--- .... ....
....|..|B-8 JF.F ....|A-4 2F1F ....|C-5 3F.F ....
 A-3|..|A-1 2A.F ....|--- .... ....|--- .... ....
....|..|R-- .... ....|A-4 2F1F ....|A-4 3F.F ....
....|..|--- .... ....|--- .... ....|--- .... ....
....|..|C-4 AF.F ....|A#4 2F3F ....|D-5 3F.7 ....
 A#2|..|A#1 2A.F ....|--- .... ....|--- .... ....
....|..|R-- .... ....|A#4 2F3F ....|C-5 3F.7 ....
....|..|--- .... ....|--- .... ....|--- .... ....
....|..|B-8 JF.F ....|C-4 2F37 ....|D-5 3F.A ....
 A#3|..|A#1 2A.F ....|--- .... ....|--- .... ....
....|..|R-- .... ....|A#4 2F3F ....|--- .... ....
....|..|--- .... ....|--- .... ....|--- .... ....
....|..|C-4 CF.F ....|A#4 2F3F ....|A-4 3F.7 ....
 A#2|..|A#1 2A.F ....|--- .... ....|--- .... ....
....|..|C-4 AF.F ....|A-4 2F1A ....|A-4 3F.A ....
....|..|--- .... ....|--- .... ....|--- .... ....
....|..|C-4 CF.F ....|A#4 2F3F ....|C-5 3F.7 ....
 A#3|..|A#1 2A.F ....|--- .... ....|--- .... ....
....|..|C-4 CF.F ....|A#4 2F3F ....|--- .... ....
....|..|--- .... ....|--- .... ....|--- .... ....

[Pattern10]
....|..|C-4 AF.F ....|D-4 2F1F ....|F-5 3F.F ....
 D-3|..|D-1 2A.F ....|--- .... ....|--- .... ....
....|..|R-- .... ....|A#4 2F3A ....|--- .... ....
....|..|--- .... ....|--- .... ....|--- .... ....
....|..|B-8 JF.F ....|D-4 2F1F ....|D-5 3F.F ....
 D-4|..|D-2 2A.F ....|--- .... ....|--- .... ....
....|..|C-4 AF.A ....|A-4 2F17 ....|A-4 3F.7 ....
....|..|--- .... ....|--- .... ....|--- .... ....
....|..|C-4 CF.F ....|D-4 2F1F ....|F-5 3F.F ....
 D-3|..|D-1 2A.F ....|--- .... ....|--- .... ....
....|..|C-4 CF.A ....|A#4 2F37 ....|--- .... ....
....|..|--- .... ....|--- .... ....|--- .... ....
....|..|B-8 JF.F ....|D-4 2F1F ....|G-5 3F.F ....
 D-4|..|D-2 2A.F ....|--- .... ....|--- .... ....
....|..|R-- .... ....|D-4 2F1F ....|F-5 3F.F ....
....|..|--- .... ....|--- .... ....|--- .... ....
....|..|C-4 AF.F ....|C-4 2F2F ....|D-5 3F.A ....
 F-3|..|F-1 2A.F ....|--- .... ....|--- .... ....
....|..|C-4 AF.7 ....|C-4 2F2F ....|--- .... ....
....|..|--- .... ....|--- .... ....|--- .... ....
....|..|B-8 JF.F ....|A#4 2F37 ....|E-5 3F.F ....
 F-4|..|F-2 2A.F ....|--- .... ....|--- .... ....
....|..|C-4 CF.7 ....|C-4 2F2F ....|--- .... ....
....|..|--- .... ....|--- .... ....|--- .... ....
....|..|C-4 CF.F ....|C-4 2F2F ....|D-5 3F.F ....
 F-3|..|F-1 2A.F ....|--- .... ....|--- .... ....
....|..|R-- .... ....|D-4 2F1A ....|C-5 3F.F ....
....|..|--- .... ....|--- .... ....|--- .... ....
....|..|B-8 JF.F ....|C-4 2F2F ....|D-5 3F.7 ....
 F-4|..|F-2 2A.F ....|--- .... ....|--- .... ....
....|..|R-- .... ....|C-4 2F2F ....|--- .... ....
....|..|--- .... ....|--- .... ....|--- .... ....
....|..|C-4 AF.F ....|A#4 2F3F ....|C-5 3F.F ....
 A#2|..|A#1 2A.F ....|--- .... ....|--- .... ....
....|..|R-- .... ....|C-4 2F2A ....|--- .... ....
....|..|--- .... ....|--- .... ....|--- .... ....
....|..|B-8 JF.F ....|A#4 2F3F ....|D-5 3F.F ....
 A#3|..|A#1 2A.F ....|--- .... ....|--- .... ....
....|..|R-- .... ....|D-4 2F17 ....|F-5 3F.7 ....
....|..|--- .... ....|--- .... ....|--- .... ....
....|..|C-4 CF.F ....|A#4 2F3F ....|D-5 3F.F ....
 A#2|..|A#1 2A.F ....|--- .... ....|--- .... ....
....|..|R-- .... ....|C-4 2F27 ....|--- .... ....
....|..|--- .... ....|--- .... ....|--- .... ....
....|..|B-8 JF.F ....|A#4 2F3F ....|C-5 3F.F ....
 A#3|..|A#1 2A.F ....|--- .... ....|--- .... ....
....|..|R-- .... ....|A#4 2F3F ....|F-5 3F.F ....
....|..|--- .... ....|--- .... ....|--- .... ....
....|..|C-4 AF.F ....|C-4 2F3F ....|D-5 3F.7 ....
 C-3|..|C-1 2A.F ....|--- .... ....|--- .... ....
....|..|R-- .... ....|C-4 2F3F ....|C-5 3F.7 ....
....|..|--- .... ....|--- .... ....|--- .... ....
....|..|B-8 JF.F ....|C-4 2F27 ....|E-5 3F.F ....
 C-4|..|C-2 2A.F ....|--- .... ....|--- .... ....
....|..|R-- .... ....|C-4 2F3F ....|--- .... ....
....|..|--- .... ....|--- .... ....|--- .... ....
....|..|C-4 CF.F ....|C-4 2F3F ....|D-5 3F.F ....
 C-3|..|C-1 2A.F ....|--- .... ....|--- .... ....
....|..|R-- .... ....|A#4 2F3A ....|C-5 3F.F ....
....|..|--- .... ....|--- .... ....|--- .... ....
....|..|B-8 JF.F ....|C-4 2F3F ....|D-5 3F.7 ....
 C-4|..|C-2 2A.F ....|--- .... ....|--- .... ....
....|..|R-- .... ....|C-4 2F3F ....|--- .... ....
....|..|--- .... ....|--- .... ....|--- .... ....

[Pattern11]
....|..|C-4 AF.F ....|D-4 2F1F ....|F-5 3F.F ....
 D-3|..|D-1 2A.F ....|--- .... ....|--- .... ....
....|..|R-- .... ....|C-4 2F3A ....|--- .... ....
....|..|--- .... ....|--- .... ....|--- .... ....
....|..|B-8 JF.F ....|D-4 2F1F ....|D-5 3F.F ....
 D-4|..|D-2 2A.F ....|--- .... ....|--- .... ....
....|..|R-- .... ....|A#4 2F37 ....|F-5 3F.7 ....
....|..|--- .... ....|--- .... ....|--- .... ....
....|..|C-4 CF.F ....|D-4 2F1F ....|F-5 3F.F ....
 D-3|..|D-1 2A.F ....|--- .... ....|--- .... ....
....|..|R-- .... ....|C-4 2F37 ....|--- .... ....
....|..|--- .... ....|--- .... ....|--- .... ....
....|..|B-8 JF.F ....|D-4 2F1F ....|G-5 3F.F ....
 D-4|..|D-2 2A.F ....|--- .... ....|--- .... ....
....|..|R-- .... ....|D-4 2F1F ....|A-5 3F.F ....
....|..|--- .... ....|--- .... ....|--- .... ....
....|..|C-4 AF.F ....|C-4 2F3F ....|D-5 3F.7 ....
 C-3|..|C-1 2A.F ....|--- .... ....|--- .... ....
....|..|R-- .... ....|C-4 2F3F ....|C-5 3F.7 ....
....|..|--- .... ....|--- .... ....|--- .... ....
....|..|B-8 JF.F ....|C-4 2F37 ....|G-5 3F.F ....
 C-4|..|C-2 2A.F ....|--- .... ....|--- .... ....
....|..|R-- .... ....|C-4 2F3F ....|--- .... ....
....|..|--- .... ....|--- .... ....|--- .... ....
....|..|C-4 CF.F ....|C-4 2F3F ....|F-5 3F.F ....
 C-3|..|C-1 2A.F ....|--- .... ....|--- .... ....
....|..|R-- .... ....|D-4 2F1A ....|E-5 3F.F ....
....|..|--- .... ....|--- .... ....|--- .... ....
....|..|B-8 JF.F ....|C-4 2F3F ....|D-5 3F.7 ....
 C-4|..|C-2 2A.F ....|--- .... ....|--- .... ....
....|..|R-- .... ....|C-4 2F3F ....|--- .... ....
....|..|--- .... ....|--- .... ....|--- .... ....
....|..|C-4 AF.F ....|A-4 2F1F ....|A-5 3F.F ....
 A-2|..|A-1 2A.F ....|--- .... ....|--- .... ....
....|..|R-- .... ....|C-4 2F3A ....|--- .... ....
....|..|--- .... ....|--- .... ....|--- .... ....
....|..|B-8 JF.F ....|A-4 2F1F ....|G-5 3F.F ....
 A-3|..|A-1 2A.F ....|--- .... ....|--- .... ....
....|..|R-- .... ....|D-4 2F17 ....|A-5 3F.7 ....
....|..|--- .... ....|--- .... ....|--- .... ....
....|..|C-4 CF.F ....|A-4 2F1F ....|F-5 3F.F ....
 A-2|..|A-1 2A.F ....|--- .... ....|--- .... ....
....|..|R-- .... ....|C-4 2F37 ....|E-5 3F.F ....
....|..|--- .... ....|--- .... ....|--- .... ....
....|..|B-8 JF.F ....|A-4 2F1F ....|G-5 3F.7 ....
 A-3|..|A-1 2A.F ....|--- .... ....|--- .... ....
....|..|R-- .... ....|A-4 2F1F ....|--- .... ....
....|..|--- .... ....|--- .... ....|--- .... ....
....|..|C-4 AF.F ....|A#4 2F3F ....|F-5 3F.F ....
 A#2|..|A#1 2A.F ....|--- .... ....|--- .... ....
....|..|R-- .... ....|A#4 2F3F ....|E-5 3F.7 ....
....|..|--- .... ....|--- .... ....|--- .... ....
....|..|B-8 JF.F ....|C-4 2F37 ....|F-5 3F.A ....
 A#3|..|A#1 2A.F ....|--- .... ....|--- .... ....
....|..|R-- .... ....|A#4 2F3F ....|E-5 3F.A ....
....|..|--- .... ....|--- .... ....|--- .... ....
....|..|C-4 CF.F ....|A#4 2F3F ....|E-5 3F.F ....
 A#2|..|A#1 2A.F ....|--- .... ....|--- .... ....
....|..|C-4 AF.F ....|A-4 2F1A ....|--- .... ....
....|..|--- .... ....|--- .... ....|--- .... ....
....|..|C-4 CF.F ....|A#4 2F3F ....|G-5 3F.7 ....
 A#3|..|A#1 2A.F ....|--- .... ....|--- .... ....
....|..|C-4 CF.F ....|A#4 2F3F ....|--- .... ....
....|..|--- .... ....|--- .... ....|--- .... ....

[Pattern12]
....|..|C-4 AF.F ....|D-4 2F1F ....|D-5 3F.F ....
 D-3|..|D-1 2A.F ....|--- .... ....|--- .... ....
....|..|R-- .... ....|A#4 2F3A ....|C-5 3F.F ....
....|..|--- .... ....|--- .... ....|--- .... ....
....|..|B-8 JF.F ....|D-4 2F1F ....|D-5 3F.F ....
 D-4|..|D-2 2A.F ....|--- .... ....|--- .... ....
....|..|C-4 AF.A ....|A-4 2F17 ....|E-5 3F.F ....
....|..|--- .... ....|--- .... ....|--- .... ....
....|..|C-4 CF.F ....|D-4 2F1F ....|F-5 3F.F ....
 D-3|..|D-1 2A.F ....|--- .... ....|--- .... ....
....|..|C-4 CF.A ....|A#4 2F37 ....|--- .... ....
....|..|--- .... ....|--- .... ....|--- .... ....
....|..|B-8 JF.F ....|D-4 2F1F ....|D-5 3F.A ....
 D-4|..|D-2 2A.F ....|--- .... ....|--- .... ....
....|..|R-- .... ....|D-4 2F1F ....|C-5 3F.A ....
....|..|--- .... ....|--- .... ....|--- .... ....
....|..|C-4 AF.F ....|C-4 2F2F ....|E-5 3F.7 ....
 F-3|..|F-1 2A.F ....|--- .... ....|--- .... ....
....|..|C-4 AF.7 ....|C-4 2F2F ....|E-5 3F.A ....
....|..|--- .... ....|--- .... ....|--- .... ....
....|..|B-8 JF.F ....|A#4 2F37 ....|F-5 3F.F ....
 F-4|..|F-2 2A.F ....|--- .... ....|--- .... ....
....|..|C-4 CF.7 ....|C-4 2F2F ....|--- .... ....
....|..|--- .... ....|--- .... ....|--- .... ....
....|..|C-4 CF.F ....|C-4 2F2F ....|E-5 3F.F ....
 F-3|..|F-1 2A.F ....|--- .... ....|--- .... ....
....|..|R-- .... ....|D-4 2F1A ....|C-5 3F.7 ....
....|..|--- .... ....|--- .... ....|--- .... ....
....|..|B-8 JF.F ....|C-4 2F2F ....|F-5 3F.F ....
 F-4|..|F-2 2A.F ....|--- .... ....|--- .... ....
....|..|R-- .... ....|C-4 2F2F ....|E-5 3F.7 ....
....|..|--- .... ....|--- .... ....|--- .... ....
....|..|C-4 AF.F ....|A#4 2F3F ....|E-5 3F.F ....
 A#2|..|A#1 2A.F ....|--- .... ....|--- .... ....
....|..|R-- .... ....|C-4 2F2A ....|C-5 3F.F ....
....|..|--- .... ....|--- .... ....|--- .... ....
....|..|B-8 JF.F ....|A#4 2F3F ....|C-5 3F.F ....
 A#3|..|A#1 2A.F ....|--- .... ....|--- .... ....
....|..|R-- .... ....|D-4 2F17 ....|A-4 3F.F ....
....|..|--- .... ....|--- .... ....|--- .... ....
....|..|C-4 CF.F ....|A#4 2F3F ....|C-5 3F.F ....
 A#2|..|A#1 2A.F ....|--- .... ....|--- .... ....
....|..|R-- .... ....|C-4 2F27 ....|--- .... ....
....|..|--- .... ....|--- .... ....|--- .... ....
....|..|B-8 JF.F ....|A#4 2F3F ....|D-5 3F.F ....
 A#3|..|A#1 2A.F ....|--- .... ....|--- .... ....
....|..|R-- .... ....|A#4 2F3F ....|C-5 3F.F ....
....|..|--- .... ....|--- .... ....|--- .... ....
....|..|C-4 AF.F ....|C-4 2F3F ....|E-5 3F.7 ....
 C-3|..|C-1 2A.F ....|--- .... ....|--- .... ....
....|..|R-- .... ....|C-4 2F3F ....|A-4 3F.A ....
....|..|--- .... ....|--- .... ....|--- .... ....
....|..|B-8 JF.F ....|C-4 2F27 ....|F-5 3F.7 ....
 C-4|..|C-2 2A.F ....|--- .... ....|--- .... ....
....|..|R-- .... ....|C-4 2F3F ....|--- .... ....
....|..|--- .... ....|--- .... ....|--- .... ....
....|..|C-4 CF.F ....|C-4 2F3F ....|E-5 3F.7 ....
 C-3|..|C-1 2A.F ....|--- .... ....|--- .... ....
....|..|R-- .... ....|A#4 2F3A ....|C-5 3F.7 ....
....|..|--- .... ....|--- .... ....|--- .... ....
....|..|B-8 JF.F ....|C-4 2F3F ....|C-5 3F.7 ....
 C-4|..|C-2 2A.F ....|--- .... ....|--- .... ....
....|..|R-- .... ....|C-4 2F3F ....|A-4 3F.7 ....
....|..|--- .... ....|--- .... ....|--- .... ....

[Pattern13]
....|..|C-4 AF.F ....|D-4 2F1F ....|D-5 3F.F ....
 D-3|..|D-1 2A.F ....|--- .... ....|--- .... ....
....|..|R-- .... ....|C-4 2F3A ....|A-4 3F.F ....
....|..|--- .... ....|--- .... ....|--- .... ....
....|..|B-8 JF.F ....|D-4 2F1F ....|A-4 3F.F ....
 D-4|..|D-2 2A.F ....|--- .... ....|--- .... ....
....|..|R-- .... ....|A#4 2F37 ....|F-4 3F.F ....
....|..|--- .... ....|--- .... ....|--- .... ....
....|..|C-4 CF.F ....|D-4 2F1F ....|A-4 3F.F ....
 D-3|..|D-1 2A.F ....|--- .... ....|--- .... ....
....|..|R-- .... ....|C-4 2F37 ....|--- .... ....
....|..|--- .... ....|--- .... ....|--- .... ....
....|..|B-8 JF.F ....|D-4 2F1F ....|D-5 3F.A ....
 D-4|..|D-2 2A.F ....|--- .... ....|--- .... ....
....|..|R-- .... ....|D-4 2F1F ....|A-4 3F.A ....
....|..|--- .... ....|--- .... ....|--- .... ....
....|..|C-4 AF.F ....|C-4 2F3F ....|A-4 3F.A ....
 C-3|..|C-1 2A.F ....|--- .... ....|--- .... ....
....|..|R-- .... ....|C-4 2F3F ....|F-4 3F.A ....
....|..|--- .... ....|--- .... ....|--- .... ....
....|..|B-8 JF.F ....|C-4 2F37 ....|A-4 3F.F ....
 C-4|..|C-2 2A.F ....|--- .... ....|--- .... ....
....|..|R-- .... ....|C-4 2F3F ....|--- .... ....
....|..|--- .... ....|--- .... ....|--- .... ....
....|..|C-4 CF.F ....|C-4 2F3F ....|G-4 3F.F ....
 C-3|..|C-1 2A.F ....|--- .... ....|--- .... ....
....|..|R-- .... ....|D-4 2F1A ....|A-4 3F.7 ....
....|..|--- .... ....|--- .... ....|--- .... ....
....|..|B-8 JF.F ....|C-4 2F3F ....|A-4 3F.F ....
 C-4|..|C-2 2A.F ....|--- .... ....|--- .... ....
....|..|R-- .... ....|C-4 2F3F ....|F-4 3F.7 ....
....|..|--- .... ....|--- .... ....|--- .... ....
....|..|C-4 AF.F ....|A-4 2F1F ....|C-5 3F.F ....
 A-2|..|A-1 2A.F ....|--- .... ....|--- .... ....
....|..|R-- .... ....|C-4 2F3A ....|A-4 3F.F ....
....|..|--- .... ....|--- .... ....|--- .... ....
....|..|B-8 JF.F ....|A-4 2F1F ....|A-4 3F.F ....
 A-3|..|A-1 2A.F ....|--- .... ....|--- .... ....
....|..|R-- .... ....|D-4 2F17 ....|C-5 3F.F ....
....|..|--- .... ....|--- .... ....|--- .... ....
....|..|C-4 CF.F ....|A-4 2F1F ....|D-5 3F.F ....
 A-2|..|A-1 2A.F ....|--- .... ....|--- .... ....
....|..|R-- .... ....|C-4 2F37 ....|--- .... ....
....|..|--- .... ....|--- .... ....|--- .... ....
....|..|B-8 JF.F ....|A-4 2F1F ....|C-5 3F.F ....
 A-3|..|A-1 2A.F ....|--- .... ....|--- .... ....
....|..|R-- .... ....|A-4 2F1F ....|G-4 3F.F ....
....|..|--- .... ....|--- .... ....|--- .... ....
....|..|C-4 AF.F ....|A#4 2F3F ....|G-4 3F.7 ....
 A#2|..|A#1 2A.F ....|--- .... ....|--- .... ....
....|..|R-- .... ....|A#4 2F3F ....|C-5 3F.A ....
....|..|--- .... ....|--- .... ....|--- .... ....
....|..|B-8 JF.F ....|C-4 2F37 ....|A-4 3F.7 ....
 A#3|..|A#1 2A.F ....|--- .... ....|--- .... ....
....|..|R-- .... ....|A#4 2F3F ....|--- .... ....
....|..|--- .... ....|--- .... ....|--- .... ....
....|..|C-4 CF.F ....|A#4 2F3F ....|C-5 3F.7 ....
 A#2|..|A#1 2A.F ....|--- .... ....|--- .... ....
....|..|C-4 AF.F ....|A-4 2F1A ....|A-4 3F.7 ....
....|..|--- .... ....|--- .... ....|--- .... ....
....|..|C-4 CF.F ....|A#4 2F3F ....|A-4 3F.7 ....
 A#3|..|A#1 2A.F ....|--- .... ....|--- .... ....
....|..|C-4 CF.F ....|A#4 2F3F ....|C-5 3F.7 ....
....|..|--- .... ....|--- .... ....|--- .... ....

[Pattern14]
....|..|C-4 AF.F ....|D-4 2F1F ....|D-5 3F.F ....
 D-3|..|D-1 2A.F ....|--- .... ....|--- .... ....
....|..|R-- .... ....|A#4 2F3A ....|C-5 3F.F ....
....|..|--- .... ....|--- .... ....|--- .... ....
....|..|B-8 JF.F ....|D-4 2F1F ....|D-5 3F.F ....
 D-4|..|D-2 2A.F ....|--- .... ....|--- .... ....
....|..|C-4 AF.A ....|A-4 2F17 ....|E-5 3F.F ....
....|..|--- .... ....|--- .... ....|--- .... ....
....|..|C-4 CF.F ....|D-4 2F1F ....|F-5 3F.F ....
 D-3|..|D-1 2A.F ....|--- .... ....|--- .... ....
....|..|C-4 CF.A ....|A#4 2F37 ....|--- .... ....
....|..|--- .... ....|--- .... ....|--- .... ....
....|..|B-8 JF.F ....|D-4 2F1F ....|D-5 3F.A ....
 D-4|..|D-2 2A.F ....|--- .... ....|--- .... ....
....|..|R-- .... ....|D-4 2F1F ....|C-5 3F.A ....
....|..|--- .... ....|--- .... ....|--- .... ....
....|..|C-4 AF.F ....|C-4 2F2F ....|D-5 3F.A ....
 F-3|..|F-1 2A.F ....|--- .... ....|--- .... ....
....|..|C-4 AF.7 ....|C-4 2F2F ....|E-5 3F.A ....
....|..|--- .... ....|--- .... ....|--- .... ....
....|..|B-8 JF.F ....|A#4 2F37 ....|F-5 3F.F ....
 F-4|..|F-2 2A.F ....|--- .... ....|--- .... ....
....|..|C-4 CF.7 ....|C-4 2F2F ....|--- .... ....
....|..|--- .... ....|--- .... ....|--- .... ....
....|..|C-4 CF.F ....|C-4 2F2F ....|E-5 3F.F ....
 F-3|..|F-1 2A.F ....|--- .... ....|--- .... ....
....|..|R-- .... ....|D-4 2F1A ....|C-5 3F.7 ....
....|..|--- .... ....|--- .... ....|--- .... ....
....|..|B-8 JF.F ....|C-4 2F2F ....|F-5 3F.F ....
 F-4|..|F-2 2A.F ....|--- .... ....|--- .... ....
....|..|R-- .... ....|C-4 2F2F ....|E-5 3F.7 ....
....|..|--- .... ....|--- .... ....|--- .... ....
....|..|C-4 AF.F ....|A#4 2F3F ....|E-5 3F.F ....
 A#2|..|A#1 2A.F ....|--- .... ....|--- .... ....
....|..|R-- .... ....|C-4 2F2A ....|C-5 3F.F ....
....|..|--- .... ....|--- .... ....|--- .... ....
....|..|B-8 JF.F ....|A#4 2F3F ....|C-5 3F.F ....
 A#3|..|A#1 2A.F ....|--- .... ....|--- .... ....
....|..|R-- .... ....|D-4 2F17 ....|A-4 3F.F ....
....|..|--- .... ....|--- .... ....|--- .... ....
....|..|C-4 CF.F ....|A#4 2F3F ....|C-5 3F.F ....
 A#2|..|A#1 2A.F ....|--- .... ....|--- .... ....
....|..|R-- .... ....|C-4 2F27 ....|--- .... ....
....|..|--- .... ....|--- .... ....|--- .... ....
....|..|B-8 JF.F ....|A#4 2F3F ....|D-5 3F.F ....
 A#3|..|A#1 2A.F ....|--- .... ....|--- .... ....
....|..|R-- .... ....|A#4 2F3F ....|C-5 3F.F ....
....|..|--- .... ....|--- .... ....|--- .... ....
....|..|C-4 AF.F ....|C-4 2F3F ....|E-5 3F.7 ....
 C-3|..|C-1 2A.F ....|--- .... ....|--- .... ....
....|..|R-- .... ....|C-4 2F3F ....|A-4 3F.A ....
....|..|--- .... ....|--- .... ....|--- .... ....
....|..|B-8 JF.F ....|C-4 2F27 ....|F-5 3F.7 ....
 C-4|..|C-2 2A.F ....|--- .... ....|--- .... ....
....|..|R-- .... ....|C-4 2F3F ....|--- .... ....
....|..|--- .... ....|--- .... ....|--- .... ....
....|..|C-4 CF.F ....|C-4 2F3F ....|E-5 3F.7 ....
 C-3|..|C-1 2A.F ....|--- .... ....|--- .... ....
....|..|R-- .... ....|A#4 2F3A ....|C-5 3F.7 ....
....|..|--- .... ....|--- .... ....|--- .... ....
....|..|B-8 JF.F ....|C-4 2F3F ....|C-5 3F.7 ....
 C-4|..|C-2 2A.F ....|--- .... ....|--- .... ....
....|..|R-- .... ....|C-4 2F3F ....|A-4 3F.7 ....
....|..|--- .... ....|--- .... ....|--- .... ....

[Pattern15]
....|..|C-4 AF.F ....|D-4 2F1F ....|D-5 3F.F ....
 D-3|..|D-1 2A.F ....|--- .... ....|--- .... ....
....|..|R-- .... ....|C-4 2F3A ....|A-4 3F.F ....
....|..|--- .... ....|--- .... ....|--- .... ....
....|..|B-8 JF.F ....|D-4 2F1F ....|A-4 3F.F ....
 D-4|..|D-2 2A.F ....|--- .... ....|--- .... ....
....|..|R-- .... ....|A#4 2F37 ....|F-4 3F.F ....
....|..|--- .... ....|--- .... ....|--- .... ....
....|..|C-4 CF.F ....|D-4 2F1F ....|A-4 3F.F ....
 D-3|..|D-1 2A.F ....|--- .... ....|--- .... ....
....|..|R-- .... ....|C-4 2F37 ....|--- .... ....
....|..|--- .... ....|--- .... ....|--- .... ....
....|..|B-8 JF.F ....|D-4 2F1F ....|D-5 3F.A ....
 D-4|..|D-2 2A.F ....|--- .... ....|--- .... ....
....|..|R-- .... ....|D-4 2F1F ....|A-4 3F.A ....
....|..|--- .... ....|--- .... ....|--- .... ....
....|..|C-4 AF.F ....|C-4 2F3F ....|A-4 3F.A ....
 C-3|..|C-1 2A.F ....|--- .... ....|--- .... ....
....|..|R-- .... ....|C-4 2F3F ....|F-4 3F.A ....
....|..|--- .... ....|--- .... ....|--- .... ....
....|..|B-8 JF.F ....|C-4 2F37 ....|A-4 3F.F ....
 C-4|..|C-2 2A.F ....|--- .... ....|--- .... ....
....|..|R-- .... ....|C-4 2F3F ....|--- .... ....
....|..|--- .... ....|--- .... ....|--- .... ....
....|..|C-4 CF.F ....|C-4 2F3F ....|G-4 3F.F ....
 C-3|..|C-1 2A.F ....|--- .... ....|--- .... ....
....|..|R-- .... ....|D-4 2F1A ....|A-4 3F.7 ....
....|..|--- .... ....|--- .... ....|--- .... ....
....|..|B-8 JF.F ....|C-4 2F3F ....|A-4 3F.F ....
 C-4|..|C-2 2A.F ....|--- .... ....|--- .... ....
....|..|R-- .... ....|C-4 2F3F ....|F-4 3F.7 ....
....|..|--- .... ....|--- .... ....|--- .... ....
....|..|C-4 AF.F ....|A-4 2F1F ....|C-5 3F.F ....
 A-2|..|A-1 2A.F ....|--- .... ....|--- .... ....
....|..|R-- .... ....|C-4 2F3A ....|A-4 3F.F ....
....|..|--- .... ....|--- .... ....|--- .... ....
....|..|B-8 JF.F ....|A-4 2F1F ....|A-4 3F.F ....
 A-3|..|A-1 2A.F ....|--- .... ....|--- .... ....
....|..|R-- .... ....|D-4 2F17 ....|C-5 3F.F ....
....|..|--- .... ....|--- .... ....|--- .... ....
....|..|C-4 CF.F ....|A-4 2F1F ....|D-5 3F.F ....
 A-2|..|A-1 2A.F ....|--- .... ....|--- .... ....
....|..|R-- .... ....|C-4 2F37 ....|--- .... ....
....|..|--- .... ....|--- .... ....|--- .... ....
....|..|B-8 JF.F ....|A-4 2F1F ....|C-5 3F.F ....
 A-3|..|A-1 2A.F ....|--- .... ....|--- .... ....
....|..|R-- .... ....|A-4 2F1F ....|F-5 3F.F ....
....|..|--- .... ....|--- .... ....|--- .... ....
....|..|C-4 AF.F ....|A#4 2F3F ....|G-4 3F.7 ....
 A#2|..|A#1 2A.F ....|--- .... ....|--- .... ....
....|..|R-- .... ....|A#4 2F3F ....|F-5 3F.F ....
....|..|--- .... ....|--- .... ....|--- .... ....
....|..|B-8 JF.F ....|C-4 2F37 ....|E-5 3F.F ....
 A#3|..|A#1 2A.F ....|--- .... ....|--- .... ....
....|..|R-- .... ....|A#4 2F3F ....|--- .... ....
....|..|--- .... ....|--- .... ....|--- .... ....
....|..|C-4 CF.F ....|A#4 2F3F ....|D-5 3F.F ....
 A#2|..|A#1 2A.F ....|--- .... ....|--- .... ....
....|..|C-4 AF.F ....|A-4 2F1A ....|C-5 3F.F ....
....|..|--- .... ....|--- .... ....|--- .... ....
....|..|C-4 CF.F ....|A#4 2F3F ....|A-4 3F.7 ....
 A#3|..|A#1 2A.F ....|--- .... ....|--- .... ....
....|..|C-4 CF.F ....|A#4 2F3F ....|C-5 3F.7 ....
....|..|--- .... ....|--- .... ....|--- .... ....

[Pattern16]
....|..|C-4 AF.F ....|D-4 2F1F ....|G-5 3F.F ....
 D-3|..|D-1 2A.F ....|--- .... ....|--- .... ....
....|..|R-- .... ....|A#4 2F3A ....|--- .... ....
....|..|--- .... ....|--- .... ....|--- .... ....
....|..|B-8 JF.F ....|D-4 2F1F ....|F-5 3F.F ....
 D-4|..|D-2 2A.F ....|--- .... ....|--- .... ....
....|..|C-4 AF.A ....|A-4 2F17 ....|D-5 3F.F ....
....|..|--- .... ....|--- .... ....|--- .... ....
....|..|C-4 CF.F ....|D-4 2F1F ....|--- .... ....
 D-3|..|D-1 2A.F ....|--- .... ....|--- .... ....
....|..|C-4 CF.A ....|A#4 2F37 ....|F-5 3F.7 ....
....|..|--- .... ....|--- .... ....|--- .... ....
....|..|B-8 JF.F ....|D-4 2F1F ....|E-5 3F.7 ....
 D-4|..|D-2 2A.F ....|--- .... ....|--- .... ....
....|..|R-- .... ....|D-4 2F1F ....|--- .... ....
....|..|--- .... ....|--- .... ....|--- .... ....
....|..|C-4 AF.F ....|C-4 2F2F ....|D-5 3F.7 ....
 F-3|..|F-1 2A.F ....|--- .... ....|--- .... ....
....|..|C-4 AF.7 ....|C-4 2F2F ....|C-5 3F.7 ....
....|..|--- .... ....|--- .... ....|--- .... ....
....|..|B-8 JF.F ....|A#4 2F37 ....|G-5 3F.F ....
 F-4|..|F-2 2A.F ....|--- .... ....|--- .... ....
....|..|C-4 CF.7 ....|C-4 2F2F ....|F-5 3F.F ....
....|..|--- .... ....|--- .... ....|--- .... ....
....|..|C-4 CF.F ....|C-4 2F2F ....|G-5 3F.F ....
 F-3|..|F-1 2A.F ....|--- .... ....|--- .... ....
....|..|R-- .... ....|D-4 2F1A ....|F-5 3F.F ....
....|..|--- .... ....|--- .... ....|--- .... ....
....|..|B-8 JF.F ....|C-4 2F2F ....|G-5 3F.F ....
 F-4|..|F-2 2A.F ....|--- .... ....|--- .... ....
....|..|R-- .... ....|C-4 2F2F ....|A-5 3F.F ....
....|..|--- .... ....|--- .... ....|--- .... ....
....|..|C-4 AF.F ....|A#4 2F3F ....|G-5 3F.F ....
 A#2|..|A#1 2A.F ....|--- .... ....|--- .... ....
....|..|R-- .... ....|C-4 2F2A ....|F-5 3F.A ....
....|..|--- .... ....|--- .... ....|--- .... ....
....|..|B-8 JF.F ....|A#4 2F3F ....|F-5 3F.F ....
 A#3|..|A#1 2A.F ....|--- .... ....|--- .... ....
....|..|R-- .... ....|D-4 2F17 ....|D-5 3F.F ....
....|..|--- .... ....|--- .... ....|--- .... ....
....|..|C-4 CF.F ....|A#4 2F3F ....|G-5 3F.A ....
 A#2|..|A#1 2A.F ....|--- .... ....|--- .... ....
....|..|R-- .... ....|C-4 2F27 ....|A-5 3F.A ....
....|..|--- .... ....|--- .... ....|--- .... ....
....|..|B-8 JF.F ....|A#4 2F3F ....|F-5 3F.F ....
 A#3|..|A#1 2A.F ....|--- .... ....|--- .... ....
....|..|R-- .... ....|A#4 2F3F ....|C-5 3F.F ....
....|..|--- .... ....|--- .... ....|--- .... ....
....|..|C-4 AF.F ....|C-4 2F3F ....|G-5 3F.7 ....
 C-3|..|C-1 2A.F ....|--- .... ....|--- .... ....
....|..|R-- .... ....|C-4 2F3F ....|F-5 3F.7 ....
....|..|--- .... ....|--- .... ....|--- .... ....
....|..|B-8 JF.F ....|C-4 2F27 ....|G-5 3F.7 ....
 C-4|..|C-2 2A.F ....|--- .... ....|--- .... ....
....|..|R-- .... ....|C-4 2F3F ....|A-5 3F.7 ....
....|..|--- .... ....|--- .... ....|--- .... ....
....|..|C-4 CF.F ....|C-4 2F3F ....|G-5 3F.7 ....
 C-3|..|C-1 2A.F ....|--- .... ....|--- .... ....
....|..|R-- .... ....|A#4 2F3A ....|C-5 3F.A ....
....|..|--- .... ....|--- .... ....|--- .... ....
....|..|B-8 JF.F ....|C-4 2F3F ....|A-4 3F.F ....
 C-4|..|C-2 2A.F ....|--- .... ....|--- .... ....
....|..|R-- .... ....|C-4 2F3F ....|C-5 3F.F ....
....|..|--- .... ....|--- .... ....|--- .... ....

[Pattern17]
....|..|C-4 AF.F ....|D-4 2F1F ....|D-5 3F.F ....
 D-3|..|D-1 2A.F ....|--- .... ....|--- .... ....
....|..|R-- .... ....|C-4 2F3A ....|--- .... ....
....|..|--- .... ....|--- .... ....|--- .... ....
....|..|B-8 JF.F ....|D-4 2F1F ....|C-5 3F.F ....
 D-4|..|D-2 2A.F ....|--- .... ....|--- .... ....
....|..|R-- .... ....|A#4 2F37 ....|A-4 3F.F ....
....|..|--- .... ....|--- .... ....|--- .... ....
....|..|C-4 CF.F ....|D-4 2F1F ....|A-4 3F.A ....
 D-3|..|D-1 2A.F ....|--- .... ....|--- .... ....
....|..|R-- .... ....|C-4 2F37 ....|C-5 3F.A ....
....|..|--- .... ....|--- .... ....|--- .... ....
....|..|B-8 JF.F ....|D-4 2F1F ....|D-5 3F.A ....
 D-4|..|D-2 2A.F ....|--- .... ....|--- .... ....
....|..|R-- .... ....|D-4 2F1F ....|--- .... ....
....|..|--- .... ....|--- .... ....|--- .... ....
....|..|C-4 AF.F ....|C-4 2F3F ....|C-5 3F.A ....
 C-3|..|C-1 2A.F ....|--- .... ....|--- .... ....
....|..|R-- .... ....|C-4 2F3F ....|A-4 3F.A ....
....|..|--- .... ....|--- .... ....|--- .... ....
....|..|B-8 JF.F ....|C-4 2F37 ....|C-5 3F.F ....
 C-4|..|C-2 2A.F ....|--- .... ....|--- .... ....
....|..|R-- .... ....|C-4 2F3F ....|C-5 3F.7 ....
....|..|--- .... ....|--- .... ....|--- .... ....
....|..|C-4 CF.F ....|C-4 2F3F ....|D-5 3F.F ....
 C-3|..|C-1 2A.F ....|--- .... ....|--- .... ....
....|..|R-- .... ....|D-4 2F1A ....|C-5 3F.F ....
....|..|--- .... ....|--- .... ....|--- .... ....
....|..|B-8 JF.F ....|C-4 2F3F ....|D-5 3F.F ....
 C-4|..|C-2 2A.F ....|--- .... ....|--- .... ....
....|..|R-- .... ....|C-4 2F3F ....|C-5 3F.F ....
....|..|--- .... ....|--- .... ....|--- .... ....
....|..|C-4 AF.F ....|A-4 2F1F ....|A-4 3F.F ....
 A-2|..|A-1 2A.F ....|--- .... ....|--- .... ....
....|..|R-- .... ....|C-4 2F3A ....|--- .... ....
....|..|--- .... ....|--- .... ....|--- .... ....
....|..|B-8 JF.F ....|A-4 2F1F ....|C-5 3F.F ....
 A-3|..|A-1 2A.F ....|--- .... ....|--- .... ....
....|..|R-- .... ....|D-4 2F17 ....|D-5 3F.F ....
....|..|--- .... ....|--- .... ....|--- .... ....
....|..|C-4 CF.F ....|A-4 2F1F ....|D-5 3F.A ....
 A-2|..|A-1 2A.F ....|--- .... ....|--- .... ....
....|..|R-- .... ....|C-4 2F37 ....|E-5 3F.F ....
....|..|--- .... ....|--- .... ....|--- .... ....
....|..|B-8 JF.F ....|A-4 2F1F ....|C-5 3F.7 ....
 A-3|..|A-1 2A.F ....|--- .... ....|--- .... ....
....|..|R-- .... ....|A-4 2F1F ....|--- .... ....
....|..|--- .... ....|--- .... ....|--- .... ....
....|..|C-4 AF.F ....|A#4 2F3F ....|F-5 3F.F ....
 A#2|..|A#1 2A.F ....|--- .... ....|--- .... ....
....|..|R-- .... ....|A#4 2F3F ....|C-5 3F.7 ....
....|..|--- .... ....|--- .... ....|--- .... ....
....|..|B-8 JF.F ....|C-4 2F37 ....|D-5 3F.7 ....
 A#3|..|A#1 2A.F ....|--- .... ....|--- .... ....
....|..|R-- .... ....|A#4 2F3F ....|C-5 3F.7 ....
....|..|--- .... ....|--- .... ....|--- .... ....
....|..|C-4 CF.F ....|A#4 2F3F ....|E-5 3F.F ....
 A#2|..|A#1 2A.F ....|--- .... ....|--- .... ....
....|..|C-4 AF.F ....|A-4 2F1A ....|--- .... ....
....|..|--- .... ....|--- .... ....|--- .... ....
....|..|C-4 CF.F ....|A#4 2F3F ....|C-5 3F.7 ....
 A#3|..|A#1 2A.F ....|--- .... ....|--- .... ....
....|..|C-4 CF.F ....|A#4 2F3F ....|D-5 3F.7 ....
....|..|--- .... ....|--- .... ....|--- .... ....

[Pattern18]
....|..|C-4 AF.F ....|D-4 2F1F ....|G-5 3F.F ....
 D-3|..|D-1 2A.F ....|--- .... ....|--- .... ....
....|..|R-- .... ....|A#4 2F3A ....|E-5 3F.7 ....
....|..|--- .... ....|--- .... ....|--- .... ....
....|..|B-8 JF.F ....|D-4 2F1F ....|F-5 3F.F ....
 D-4|..|D-2 2A.F ....|--- .... ....|--- .... ....
....|..|C-4 AF.A ....|A-4 2F17 ....|D-5 3F.F ....
....|..|--- .... ....|--- .... ....|--- .... ....
....|..|C-4 CF.F ....|D-4 2F1F ....|F-5 3F.7 ....
 D-3|..|D-1 2A.F ....|--- .... ....|--- .... ....
....|..|C-4 CF.A ....|A#4 2F37 ....|--- .... ....
....|..|--- .... ....|--- .... ....|--- .... ....
....|..|B-8 JF.F ....|D-4 2F1F ....|G-5 3F.A ....
 D-4|..|D-2 2A.F ....|--- .... ....|--- .... ....
....|..|R-- .... ....|D-4 2F1F ....|--- .... ....
....|..|--- .... ....|--- .... ....|--- .... ....
....|..|C-4 AF.F ....|C-4 2F2F ....|E-5 3F.7 ....
 F-3|..|F-1 2A.F ....|--- .... ....|--- .... ....
....|..|C-4 AF.7 ....|C-4 2F2F ....|D-5 3F.A ....
....|..|--- .... ....|--- .... ....|--- .... ....
....|..|B-8 JF.F ....|A#4 2F37 ....|G-5 3F.F ....
 F-4|..|F-2 2A.F ....|--- .... ....|--- .... ....
....|..|C-4 CF.7 ....|C-4 2F2F ....|F-5 3F.F ....
....|..|--- .... ....|--- .... ....|--- .... ....
....|..|C-4 CF.F ....|C-4 2F2F ....|G-5 3F.F ....
 F-3|..|F-1 2A.F ....|--- .... ....|--- .... ....
....|..|R-- .... ....|D-4 2F1A ....|F-5 3F.F ....
....|..|--- .... ....|--- .... ....|--- .... ....
....|..|B-8 JF.F ....|C-4 2F2F ....|G-5 3F.F ....
 F-4|..|F-2 2A.F ....|--- .... ....|--- .... ....
....|..|R-- .... ....|C-4 2F2F ....|A-5 3F.F ....
....|..|--- .... ....|--- .... ....|--- .... ....
....|..|C-4 AF.F ....|A#4 2F3F ....|G-5 3F.F ....
 A#2|..|A#1 2A.F ....|--- .... ....|--- .... ....
....|..|R-- .... ....|C-4 2F2A ....|F-5 3F.A ....
....|..|--- .... ....|--- .... ....|--- .... ....
....|..|B-8 JF.F ....|A#4 2F3F ....|F-5 3F.F ....
 A#3|..|A#1 2A.F ....|--- .... ....|--- .... ....
....|..|R-- .... ....|D-4 2F17 ....|D-5 3F.F ....
....|..|--- .... ....|--- .... ....|--- .... ....
....|..|C-4 CF.F ....|A#4 2F3F ....|G-5 3F.A ....
 A#2|..|A#1 2A.F ....|--- .... ....|--- .... ....
....|..|R-- .... ....|C-4 2F27 ....|A-5 3F.A ....
....|..|--- .... ....|--- .... ....|--- .... ....
....|..|B-8 JF.F ....|A#4 2F3F ....|F-5 3F.F ....
 A#3|..|A#1 2A.F ....|--- .... ....|--- .... ....
....|..|R-- .... ....|A#4 2F3F ....|C-5 3F.F ....
....|..|--- .... ....|--- .... ....|--- .... ....
....|..|C-4 AF.F ....|C-4 2F3F ....|G-5 3F.7 ....
 C-3|..|C-1 2A.F ....|--- .... ....|--- .... ....
....|..|R-- .... ....|C-4 2F3F ....|F-5 3F.7 ....
....|..|--- .... ....|--- .... ....|--- .... ....
....|..|B-8 JF.F ....|C-4 2F27 ....|G-5 3F.7 ....
 C-4|..|C-2 2A.F ....|--- .... ....|--- .... ....
....|..|R-- .... ....|C-4 2F3F ....|A-5 3F.7 ....
....|..|--- .... ....|--- .... ....|--- .... ....
....|..|C-4 CF.F ....|C-4 2F3F ....|G-5 3F.7 ....
 C-3|..|C-1 2A.F ....|--- .... ....|--- .... ....
....|..|R-- .... ....|A#4 2F3A ....|C-5 3F.A ....
....|..|--- .... ....|--- .... ....|--- .... ....
....|..|B-8 JF.F ....|C-4 2F3F ....|A-4 3F.F ....
 C-4|..|C-2 2A.F ....|--- .... ....|--- .... ....
....|..|R-- .... ....|C-4 2F3F ....|C-5 3F.F ....
....|..|--- .... ....|--- .... ....|--- .... ....

[Pattern19]
....|..|C-4 AF.F ....|D-4 2F1F ....|D-5 3F.F ....
 D-3|..|D-1 2A.F ....|--- .... ....|--- .... ....
....|..|R-- .... ....|C-4 2F3A ....|--- .... ....
....|..|--- .... ....|--- .... ....|--- .... ....
....|..|B-8 JF.F ....|D-4 2F1F ....|C-5 3F.F ....
 D-4|..|D-2 2A.F ....|--- .... ....|--- .... ....
....|..|R-- .... ....|A#4 2F37 ....|A-4 3F.F ....
....|..|--- .... ....|--- .... ....|--- .... ....
....|..|C-4 CF.F ....|D-4 2F1F ....|A-4 3F.A ....
 D-3|..|D-1 2A.F ....|--- .... ....|--- .... ....
....|..|R-- .... ....|C-4 2F37 ....|C-5 3F.A ....
....|..|--- .... ....|--- .... ....|--- .... ....
....|..|B-8 JF.F ....|D-4 2F1F ....|D-5 3F.A ....
 D-4|..|D-2 2A.F ....|--- .... ....|--- .... ....
....|..|R-- .... ....|D-4 2F1F ....|--- .... ....
....|..|--- .... ....|--- .... ....|--- .... ....
....|..|C-4 AF.F ....|C-4 2F3F ....|C-5 3F.A ....
 C-3|..|C-1 2A.F ....|--- .... ....|--- .... ....
....|..|R-- .... ....|C-4 2F3F ....|A-4 3F.A ....
....|..|--- .... ....|--- .... ....|--- .... ....
....|..|B-8 JF.F ....|C-4 2F37 ....|C-5 3F.F ....
 C-4|..|C-2 2A.F ....|--- .... ....|--- .... ....
....|..|R-- .... ....|C-4 2F3F ....|C-5 3F.7 ....
....|..|--- .... ....|--- .... ....|--- .... ....
....|..|C-4 CF.F ....|C-4 2F3F ....|D-5 3F.F ....
 C-3|..|C-1 2A.F ....|--- .... ....|--- .... ....
....|..|R-- .... ....|D-4 2F1A ....|C-5 3F.F ....
....|..|--- .... ....|--- .... ....|--- .... ....
....|..|B-8 JF.F ....|C-4 2F3F ....|D-5 3F.F ....
 C-4|..|C-2 2A.F ....|--- .... ....|--- .... ....
....|..|R-- .... ....|C-4 2F3F ....|C-5 3F.F ....
....|..|--- .... ....|--- .... ....|--- .... ....
....|..|C-4 AF.F ....|A-4 2F1F ....|A-4 3F.F ....
 A-2|..|A-1 2A.F ....|--- .... ....|--- .... ....
....|..|R-- .... ....|C-4 2F3A ....|--- .... ....
....|..|--- .... ....|--- .... ....|--- .... ....
....|..|B-8 JF.F ....|A-4 2F1F ....|D-5 3F.A ....
 A-3|..|A-1 2A.F ....|--- .... ....|--- .... ....
....|..|R-- .... ....|D-4 2F17 ....|C-5 3F.F ....
....|..|--- .... ....|--- .... ....|--- .... ....
....|..|C-4 CF.F ....|A-4 2F1F ....|D-5 3F.F ....
 A-2|..|A-1 2A.F ....|--- .... ....|--- .... ....
....|..|R-- .... ....|C-4 2F37 ....|C-5 3F.F ....
....|..|--- .... ....|--- .... ....|--- .... ....
....|..|B-8 JF.F ....|A-4 2F1F ....|D-5 3F.F ....
 A-3|..|A-1 2A.F ....|--- .... ....|--- .... ....
....|..|R-- .... ....|A-4 2F1F ....|E-5 3F.F ....
....|..|--- .... ....|--- .... ....|--- .... ....
....|..|C-4 AF.F ....|A#4 2F3F ....|F-5 3F.F ....
 A#2|..|A#1 2A.F ....|--- .... ....|--- .... ....
....|..|R-- .... ....|A#4 2F3F ....|E-5 3F.F ....
....|..|--- .... ....|--- .... ....|--- .... ....
....|..|B-8 JF.F ....|C-4 2F37 ....|D-5 3F.F ....
 A#3|..|A#1 2A.F ....|--- .... ....|--- .... ....
....|..|R-- .... ....|A#4 2F3F ....|C-5 3F.F ....
....|..|--- .... ....|--- .... ....|--- .... ....
....|..|C-4 CF.F ....|A#4 2F3F ....|F-5 3F.F ....
 A#2|..|A#1 2A.F ....|--- .... ....|--- .... ....
....|..|C-4 AF.F ....|A-4 2F1A ....|E-5 3F.F ....
....|..|--- .... ....|--- .... ....|--- .... ....
....|..|C-4 CF.F ....|A#4 2F3F ....|D-5 3F.F ....
 A#3|..|A#1 2A.F ....|--- .... ....|--- .... ....
....|..|C-4 CF.F ....|A#4 2F3F ....|C-5 3F.F ....
....|..|--- .... ....|--- .... ....|--- .... ....

[Pattern20]
....|..|C-4 AF.F ....|D-4 2F1F ....|D-5 3F.F ....
 D-3|..|D-1 2A.F ....|--- .... ....|--- .... ....
....|..|R-- .... ....|A#4 2F3A ....|C-5 3F.7 ....
....|..|--- .... ....|--- .... ....|--- .... ....
....|..|B-8 JF.F ....|D-4 2F1F ....|D-5 3F.7 ....
 D-4|..|D-2 2A.F ....|--- .... ....|--- .... ....
....|..|C-4 AF.A ....|A-4 2F17 ....|E-5 3F.7 ....
....|..|--- .... ....|--- .... ....|--- .... ....
....|..|C-4 CF.F ....|D-4 2F1F ....|C-5 3F.F ....
 D-3|..|D-1 2A.F ....|--- .... ....|--- .... ....
....|..|C-4 CF.A ....|A#4 2F37 ....|E-5 3F.7 ....
....|..|--- .... ....|--- .... ....|--- .... ....
....|..|B-8 JF.F ....|D-4 2F1F ....|D-5 3F.F ....
 D-4|..|D-2 2A.F ....|--- .... ....|--- .... ....
....|..|R-- .... ....|D-4 2F1F ....|C-5 3F.7 ....
....|..|--- .... ....|--- .... ....|--- .... ....
....|..|C-4 AF.F ....|C-4 2F2F ....|F-5 3F.7 ....
 F-3|..|F-1 2A.F ....|--- .... ....|--- .... ....
....|..|C-4 AF.7 ....|C-4 2F2F ....|E-5 3F.7 ....
....|..|--- .... ....|--- .... ....|--- .... ....
....|..|B-8 JF.F ....|A#4 2F37 ....|C-5 3F.F ....
 F-4|..|F-2 2A.F ....|--- .... ....|--- .... ....
....|..|C-4 CF.7 ....|C-4 2F2F ....|C-5 3F.7 ....
....|..|--- .... ....|--- .... ....|--- .... ....
....|..|C-4 CF.F ....|C-4 2F2F ....|A-4 3F.F ....
 F-3|..|F-1 2A.F ....|--- .... ....|--- .... ....
....|..|R-- .... ....|D-4 2F1A ....|--- .... ....
....|..|--- .... ....|--- .... ....|--- .... ....
....|..|B-8 JF.F ....|C-4 2F2F ....|F-4 3F.F ....
 F-4|..|F-2 2A.F ....|--- .... ....|--- .... ....
....|..|R-- .... ....|C-4 2F2F ....|--- .... ....
....|..|--- .... ....|--- .... ....|--- .... ....
....|..|C-4 AF.F ....|A#4 2F3F ....|G-4 3F.F ....
 A#2|..|A#1 2A.F ....|--- .... ....|--- .... ....
....|..|R-- .... ....|C-4 2F2A ....|--- .... ....
....|..|--- .... ....|--- .... ....|--- .... ....
....|..|B-8 JF.F ....|A#4 2F3F ....|D-5 3F.7 ....
 A#3|..|A#1 2A.F ....|--- .... ....|--- .... ....
....|..|R-- .... ....|D-4 2F17 ....|--- .... ....
....|..|--- .... ....|--- .... ....|--- .... ....
....|..|C-4 CF.F ....|A#4 2F3F ....|A-4 3F.F ....
 A#2|..|A#1 2A.F ....|--- .... ....|--- .... ....
....|..|R-- .... ....|C-4 2F27 ....|--- .... ....
....|..|--- .... ....|--- .... ....|--- .... ....
....|..|B-8 JF.F ....|A#4 2F3F ....|G-4 3F.F ....
 A#3|..|A#1 2A.F ....|--- .... ....|--- .... ....
....|..|R-- .... ....|A#4 2F3F ....|--- .... ....
....|..|--- .... ....|--- .... ....|--- .... ....
....|..|C-4 AF.F ....|C-4 2F3F ....|A-4 3F.7 ....
 C-3|..|C-1 2A.F ....|--- .... ....|--- .... ....
....|..|R-- .... ....|C-4 2F3F ....|--- .... ....
....|..|--- .... ....|--- .... ....|--- .... ....
....|..|B-8 JF.F ....|C-4 2F27 ....|A-4 3F.F ....
 C-4|..|C-2 2A.F ....|--- .... ....|--- .... ....
....|..|R-- .... ....|C-4 2F3F ....|--- .... ....
....|..|--- .... ....|--- .... ....|--- .... ....
....|..|C-4 CF.F ....|C-4 2F3F ....|G-4 3F.F ....
 C-3|..|C-1 2A.F ....|--- .... ....|--- .... ....
....|..|R-- .... ....|A#4 2F3A ....|F-4 3F.F ....
....|..|--- .... ....|--- .... ....|--- .... ....
....|..|B-8 JF.F ....|C-4 2F3F ....|C-4 3F.F ....
 C-4|..|C-2 2A.F ....|--- .... ....|--- .... ....
....|..|R-- .... ....|C-4 2F3F ....|--- .... ....
....|..|--- .... ....|--- .... ....|--- .... ....

[Pattern21]
....|..|C-4 AF.F ....|D-4 2F1F ....|D-4 3F.F ....
 D-3|..|D-1 2A.F ....|--- .... ....|--- .... ....
....|..|R-- .... ....|C-4 2F3A ....|--- .... ....
....|..|--- .... ....|--- .... ....|--- .... ....
....|..|B-8 JF.F ....|D-4 2F1F ....|G-4 3F.7 ....
 D-4|..|D-2 2A.F ....|--- .... ....|--- .... ....
....|..|R-- .... ....|A#4 2F37 ....|F-4 3F.A ....
....|..|--- .... ....|--- .... ....|--- .... ....
....|..|C-4 CF.F ....|D-4 2F1F ....|F-4 3F.F ....
 D-3|..|D-1 2A.F ....|--- .... ....|--- .... ....
....|..|R-- .... ....|C-4 2F37 ....|--- .... ....
....|..|--- .... ....|--- .... ....|--- .... ....
....|..|B-8 JF.F ....|D-4 2F1F ....|G-4 3F.F ....
 D-4|..|D-2 2A.F ....|--- .... ....|--- .... ....
....|..|R-- .... ....|D-4 2F1F ....|--- .... ....
....|..|--- .... ....|--- .... ....|--- .... ....
....|..|C-4 AF.F ....|C-4 2F3F ....|G-4 3F.7 ....
 C-3|..|C-1 2A.F ....|--- .... ....|--- .... ....
....|..|R-- .... ....|C-4 2F3F ....|F-4 3F.7 ....
....|..|--- .... ....|--- .... ....|--- .... ....
....|..|B-8 JF.F ....|C-4 2F37 ....|F-4 3F.F ....
 C-4|..|C-2 2A.F ....|--- .... ....|--- .... ....
....|..|R-- .... ....|C-4 2F3F ....|--- .... ....
....|..|--- .... ....|--- .... ....|--- .... ....
....|..|C-4 CF.F ....|C-4 2F3F ....|G-4 3F.F ....
 C-3|..|C-1 2A.F ....|--- .... ....|--- .... ....
....|..|R-- .... ....|D-4 2F1A ....|--- .... ....
....|..|--- .... ....|--- .... ....|--- .... ....
....|..|B-8 JF.F ....|C-4 2F3F ....|A-4 3F.F ....
 C-4|..|C-2 2A.F ....|--- .... ....|--- .... ....
....|..|R-- .... ....|C-4 2F3F ....|--- .... ....
....|..|--- .... ....|--- .... ....|--- .... ....
....|..|C-4 AF.F ....|A-4 2F1F ....|C-5 3F.F ....
 A-2|..|A-1 2A.F ....|--- .... ....|--- .... ....
....|..|R-- .... ....|C-4 2F3A ....|--- .... ....
....|..|--- .... ....|--- .... ....|--- .... ....
....|..|B-8 JF.F ....|A-4 2F1F ....|G-4 3F.7 ....
 A-3|..|A-1 2A.F ....|--- .... ....|--- .... ....
....|..|R-- .... ....|D-4 2F17 ....|--- .... ....
....|..|--- .... ....|--- .... ....|--- .... ....
....|..|C-4 CF.F ....|A-4 2F1F ....|A-4 3F.F ....
 A-2|..|A-1 2A.F ....|--- .... ....|--- .... ....
....|..|R-- .... ....|C-4 2F37 ....|--- .... ....
....|..|--- .... ....|--- .... ....|--- .... ....
....|..|B-8 JF.F ....|A-4 2F1F ....|G-4 3F.F ....
 A-3|..|A-1 2A.F ....|--- .... ....|--- .... ....
....|..|R-- .... ....|A-4 2F1F ....|--- .... ....
....|..|--- .... ....|--- .... ....|--- .... ....
....|..|C-4 AF.F ....|A#4 2F3F ....|G-4 3F.7 ....
 A#2|..|A#1 2A.F ....|--- .... ....|--- .... ....
....|..|R-- .... ....|A#4 2F3F ....|--- .... ....
....|..|--- .... ....|--- .... ....|--- .... ....
 C-3|..|B-8 JF.F ....|C-4 2C.F ....|A-4 3F.7 ....
 A#3|..|A#1 2A.F ....|--- .F.. ....|--- .... ....
....|..|R-- .... ....|A#4 2F3F ....|--- .... ....
....|..|--- .... ....|--- .... ....|--- .... ....
 C-3|..|C-4 CF.F ....|C-4 2C.F ....|C-5 3F.7 ....
 A#2|..|A#1 2A.F ....|--- .F.. ....|--- .... ....
 C-3|..|C-4 AF.F ....|C-3 2C.F ....|--- .... ....
....|..|--- .... ....|--- .... ....|--- .... ....
 C-3|..|C-4 CF.F ....|C-3 2C.F ....|R-- .... ....
 A#3|..|A#1 2A.F ....|--- .F.. ....|--- .... ....
 C-3|..|C-4 CF.F ....|C-3 2C.F ....|--- .... ....
....|..|--- .... ....|--- .... ....|--- .... ....

[Pattern22]
....|..|C-4 AF.F ....|D-4 2F1F ....|D-5 3F.F ....
 D-3|..|D-1 2A.F ....|--- .... ....|--- .... ....
....|..|R-- .... ....|A#4 2F3A ....|--- .... ....
....|..|--- .... ....|--- .... ....|--- .... ....
....|..|B-8 JF.F ....|D-4 2F1F ....|G-4 3F.7 ....
 D-4|..|D-2 2A.F ....|--- .... ....|--- .... ....
....|..|C-4 AF.A ....|A-4 2F17 ....|--- .... ....
....|..|--- .... ....|--- .... ....|--- .... ....
....|..|C-4 CF.F ....|D-4 2F1F ....|C-5 3F.F ....
 D-3|..|D-1 2A.F ....|--- .... ....|--- .... ....
....|..|C-4 CF.A ....|A#4 2F37 ....|--- .... ....
....|..|--- .... ....|--- .... ....|--- .... ....
....|..|B-8 JF.F ....|D-4 2F1F ....|D-5 3F.F ....
 D-4|..|D-2 2A.F ....|--- .... ....|--- .... ....
....|..|R-- .... ....|D-4 2F1F ....|--- .... ....
....|..|--- .... ....|--- .... ....|--- .... ....
....|..|C-4 AF.F ....|C-4 2F2F ....|R-- .... ....
 F-3|..|F-1 2A.F ....|--- .... ....|--- .... ....
....|..|C-4 AF.7 ....|C-4 2F2F ....|--- .... ....
....|..|--- .... ....|--- .... ....|--- .... ....
....|..|B-8 JF.F ....|C-3 2F.7 ....|C-5 3F.F ....
 F-4|..|F-2 2A.F ....|--- .... ....|--- .... ....
....|..|C-4 CF.7 ....|C-4 2F2F ....|--- .... ....
....|..|--- .... ....|--- .... ....|--- .... ....
....|..|C-4 CF.F ....|C-4 2F2F ....|A-4 3F.F ....
 F-3|..|F-1 2A.F ....|--- .... ....|--- .... ....
....|..|R-- .... ....|D-4 2F1A ....|--- .... ....
....|..|--- .... ....|--- .... ....|--- .... ....
....|..|B-8 JF.F ....|C-4 2F2F ....|F-4 3F.F ....
 F-4|..|F-2 2A.F ....|--- .... ....|--- .... ....
....|..|R-- .... ....|C-4 2F2F ....|--- .... ....
....|..|--- .... ....|--- .... ....|--- .... ....
....|..|C-4 AF.F ....|A#4 2F3F ....|G-4 3F.F ....
 A#2|..|A#1 2A.F ....|--- .... ....|--- .... ....
....|..|R-- .... ....|C-4 2F2A ....|--- .... ....
....|..|--- .... ....|--- .... ....|--- .... ....
....|..|B-8 JF.F ....|A#4 2F3F ....|D-5 3F.7 ....
 A#3|..|A#1 2A.F ....|--- .... ....|--- .... ....
....|..|R-- .... ....|D-4 2F17 ....|--- .... ....
....|..|--- .... ....|--- .... ....|--- .... ....
....|..|C-4 CF.F ....|A#4 2F3F ....|A-4 3F.F ....
 A#2|..|A#1 2A.F ....|--- .... ....|--- .... ....
....|..|R-- .... ....|C-4 2F27 ....|--- .... ....
....|..|--- .... ....|--- .... ....|--- .... ....
....|..|B-8 JF.F ....|A#4 2F3F ....|G-4 3F.F ....
 A#3|..|A#1 2A.F ....|--- .... ....|--- .... ....
....|..|R-- .... ....|A#4 2F3F ....|--- .... ....
....|..|--- .... ....|--- .... ....|--- .... ....
....|..|C-4 AF.F ....|C-4 2F3F ....|A-4 3F.7 ....
 C-3|..|C-1 2A.F ....|--- .... ....|--- .... ....
....|..|R-- .... ....|C-4 2F3F ....|--- .... ....
....|..|--- .... ....|--- .... ....|--- .... ....
....|..|B-8 JF.F ....|C-4 2F27 ....|A-4 3F.F ....
 C-4|..|C-2 2A.F ....|--- .... ....|--- .... ....
....|..|R-- .... ....|C-4 2F3F ....|--- .... ....
....|..|--- .... ....|--- .... ....|--- .... ....
....|..|C-4 CF.F ....|C-4 2F3F ....|G-4 3F.F ....
 C-3|..|C-1 2A.F ....|--- .... ....|--- .... ....
....|..|R-- .... ....|A#4 2F3A ....|F-4 3F.F ....
....|..|--- .... ....|--- .... ....|--- .... ....
....|..|B-8 JF.F ....|C-4 2F3F ....|C-4 3F.F ....
 C-4|..|C-2 2A.F ....|--- .... ....|--- .... ....
....|..|R-- .... ....|C-4 2F3F ....|--- .... ....
....|..|--- .... ....|--- .... ....|--- .... ....

[Pattern23]
....|..|C-4 AF.F ....|D-4 2F1F ....|D-4 3F.F ....
 D-3|..|D-1 2A.F ....|--- .... ....|--- .... ....
....|..|R-- .... ....|C-4 2F3A ....|--- .... ....
....|..|--- .... ....|--- .... ....|--- .... ....
....|..|B-8 JF.F ....|D-4 2F1F ....|G-4 3F.7 ....
 D-4|..|D-2 2A.F ....|--- .... ....|--- .... ....
....|..|R-- .... ....|A#4 2F37 ....|F-4 3F.A ....
....|..|--- .... ....|--- .... ....|--- .... ....
....|..|C-4 CF.F ....|D-4 2F1F ....|F-4 3F.F ....
 D-3|..|D-1 2A.F ....|--- .... ....|--- .... ....
....|..|R-- .... ....|C-4 2F37 ....|--- .... ....
....|..|--- .... ....|--- .... ....|--- .... ....
....|..|B-8 JF.F ....|D-4 2F1F ....|G-4 3F.F ....
 D-4|..|D-2 2A.F ....|--- .... ....|--- .... ....
....|..|R-- .... ....|D-4 2F1F ....|--- .... ....
....|..|--- .... ....|--- .... ....|--- .... ....
....|..|C-4 AF.F ....|C-4 2F3F ....|G-4 3F.7 ....
 C-3|..|C-1 2A.F ....|--- .... ....|--- .... ....
....|..|R-- .... ....|C-4 2F3F ....|F-4 3F.7 ....
....|..|--- .... ....|--- .... ....|--- .... ....
....|..|B-8 JF.F ....|C-4 2F37 ....|F-4 3F.F ....
 C-4|..|C-2 2A.F ....|--- .... ....|--- .... ....
....|..|R-- .... ....|C-4 2F3F ....|--- .... ....
....|..|--- .... ....|--- .... ....|--- .... ....
....|..|C-4 CF.F ....|C-4 2F3F ....|G-4 3F.F ....
 C-3|..|C-1 2A.F ....|--- .... ....|--- .... ....
....|..|R-- .... ....|D-4 2F1A ....|--- .... ....
....|..|--- .... ....|--- .... ....|--- .... ....
....|..|B-8 JF.F ....|C-4 2F3F ....|A-4 3F.F ....
 C-4|..|C-2 2A.F ....|--- .... ....|--- .... ....
....|..|R-- .... ....|C-4 2F3F ....|--- .... ....
....|..|--- .... ....|--- .... ....|--- .... ....
....|..|C-4 AF.F ....|A-4 2F1F ....|C-5 3F.F ....
 A-2|..|A-1 2A.F ....|--- .... ....|--- .... ....
....|..|R-- .... ....|C-4 2F3A ....|--- .... ....
....|..|--- .... ....|--- .... ....|--- .... ....
....|..|B-8 JF.F ....|A-4 2F1F ....|A-4 3F.F ....
 A-3|..|A-1 2A.F ....|--- .... ....|--- .... ....
....|..|R-- .... ....|D-4 2F17 ....|--- .... ....
....|..|--- .... ....|--- .... ....|--- .... ....
....|..|C-4 CF.F ....|A-4 2F1F ....|C-5 3F.F ....
 A-2|..|A-1 2A.F ....|--- .... ....|--- .... ....
....|..|R-- .... ....|C-4 2F37 ....|--- .... ....
....|..|--- .... ....|--- .... ....|--- .... ....
....|..|B-8 JF.F ....|A-4 2F1F ....|A-4 3F.F ....
 A-3|..|A-1 2A.F ....|--- .... ....|--- .... ....
....|..|R-- .... ....|A-4 2F1F ....|--- .... ....
....|..|--- .... ....|--- .... ....|--- .... ....
....|..|C-4 AF.F ....|A#4 2F3F ....|F-5 3F.F ....
 A#2|..|A#1 2A.F ....|--- .... ....|--- .... ....
....|..|R-- .... ....|A#4 2F3F ....|--- .... ....
....|..|--- .... ....|--- .... ....|--- .... ....
....|..|B-8 JF.F ....|C-4 2F37 ....|E-5 3F.F ....
 A#3|..|A#1 2A.F ....|--- .... ....|--- .... ....
....|..|R-- .... ....|A#4 2F3F ....|--- .... ....
....|..|--- .... ....|--- .... ....|--- .... ....
....|..|C-4 CF.F ....|A#4 2F3F ....|D-5 3F.F ....
 A#2|..|A#1 2A.F ....|--- .... ....|--- .... ....
....|..|C-4 AF.F ....|A-4 2F1A ....|--- .... ....
....|..|--- .... ....|--- .... ....|--- .... ....
....|..|C-4 CF.F ....|A#4 2F3F ....|C-5 3F.F ....
 A#3|..|A#1 2A.F ....|--- .... ....|--- .... ....
....|..|C-4 CF.F ....|A#4 2F3F ....|--- .... ....
....|..|--- .... ....|--- .... ....|--- .... ....

[Pattern24]
....|..|C-4 AF.F ....|D-4 2F1F ....|D-6 3F.F ....
 D-3|..|D-1 2A.F ....|--- .... ....|--- .... ....
....|..|R-- .... ....|A#4 2F3A ....|R-- .... ....
....|..|--- .... ....|--- .... ....|--- .... ....
....|..|B-8 JF.F ....|D-4 2F1F ....|C-6 3F.F ....
 D-4|..|D-2 2A.F ....|--- .... ....|--- .... ....
....|..|C-4 AF.A ....|A-4 2F17 ....|R-- .... ....
....|..|--- .... ....|--- .... ....|--- .... ....
....|..|C-4 CF.F ....|D-4 2F1F ....|A-5 3F.F ....
 D-3|..|D-1 2A.F ....|--- .... ....|--- .... ....
....|..|C-4 CF.A ....|A#4 2F37 ....|R-- .... ....
....|..|--- .... ....|--- .... ....|--- .... ....
....|..|B-8 JF.F ....|D-4 2F1F ....|F-5 3F.F ....
 D-4|..|D-2 2A.F ....|--- .... ....|--- .... ....
....|..|R-- .... ....|D-4 2F1F ....|G-5 3F.F ....
....|..|--- .... ....|--- .... ....|--- .... ....
....|..|C-4 AF.F ....|C-4 2F2F ....|D-5 3F.7 ....
 F-3|..|F-1 2A.F ....|--- .... ....|--- .... ....
....|..|C-4 AF.7 ....|C-4 2F2F ....|F-5 3F.F ....
....|..|--- .... ....|--- .... ....|--- .... ....
....|..|B-8 JF.F ....|A#4 2F37 ....|G-5 3F.F ....
 F-4|..|F-2 2A.F ....|--- .... ....|--- .... ....
....|..|C-4 CF.7 ....|C-4 2F2F ....|R-- .... ....
....|..|--- .... ....|--- .... ....|--- .... ....
....|..|C-4 CF.F ....|C-4 2F2F ....|F-5 3F.F ....
 F-3|..|F-1 2A.F ....|--- .... ....|--- .... ....
....|..|R-- .... ....|D-4 2F1A ....|G-5 3F.F ....
....|..|--- .... ....|--- .... ....|--- .... ....
....|..|B-8 JF.F ....|C-4 2F2F ....|F-5 3F.F ....
 F-4|..|F-2 2A.F ....|--- .... ....|--- .... ....
....|..|R-- .... ....|C-4 2F2F ....|C-5 3F.F ....
....|..|--- .... ....|--- .... ....|--- .... ....
....|..|C-4 AF.F ....|A#4 2F3F ....|D-5 3F.F ....
 A#2|..|A#1 2A.F ....|--- .... ....|--- .... ....
....|..|R-- .... ....|C-4 2F2A ....|R-- .... ....
....|..|--- .... ....|--- .... ....|--- .... ....
....|..|B-8 JF.F ....|A#4 2F3F ....|C-5 3F.F ....
 A#3|..|A#1 2A.F ....|--- .... ....|--- .... ....
....|..|R-- .... ....|D-4 2F17 ....|G-5 3F.7 ....
....|..|--- .... ....|--- .... ....|--- .... ....
....|..|C-4 CF.F ....|A#4 2F3F ....|D-5 3F.F ....
 A#2|..|A#1 2A.F ....|--- .... ....|--- .... ....
....|..|R-- .... ....|C-4 2F27 ....|F-5 3F.7 ....
....|..|--- .... ....|--- .... ....|--- .... ....
....|..|B-8 JF.F ....|A#4 2F3F ....|F-5 3F.F ....
 A#3|..|A#1 2A.F ....|--- .... ....|--- .... ....
....|..|R-- .... ....|A#4 2F3F ....|G-5 3F.F ....
....|..|--- .... ....|--- .... ....|--- .... ....
....|..|C-4 AF.F ....|C-4 2F3F ....|F-5 3F.7 ....
 C-3|..|C-1 2A.F ....|--- .... ....|--- .... ....
....|..|R-- .... ....|C-4 2F3F ....|F-5 3F.F ....
....|..|--- .... ....|--- .... ....|--- .... ....
....|..|B-8 JF.F ....|C-4 2F27 ....|G-5 3F.F ....
 C-4|..|C-2 2A.F ....|--- .... ....|--- .... ....
....|..|R-- .... ....|C-4 2F3F ....|C-5 3F.7 ....
....|..|--- .... ....|--- .... ....|--- .... ....
....|..|C-4 CF.F ....|C-4 2F3F ....|A-5 3F.F ....
 C-3|..|C-1 2A.F ....|--- .... ....|--- .... ....
....|..|R-- .... ....|A#4 2F3A ....|G-5 3F.F ....
....|..|--- .... ....|--- .... ....|--- .... ....
....|..|B-8 JF.F ....|C-4 2F3F ....|F-5 3F.F ....
 C-4|..|C-2 2A.F ....|--- .... ....|--- .... ....
....|..|R-- .... ....|C-4 2F3F ....|E-5 3F.F ....
....|..|--- .... ....|--- .... ....|--- .... ....

[Pattern25]
....|..|C-4 AF.F ....|D-4 2F1F ....|D-6 3F.F ....
 D-3|..|D-1 2A.F ....|--- .... ....|--- .... ....
....|..|R-- .... ....|C-4 2F3A ....|R-- .... ....
....|..|--- .... ....|--- .... ....|--- .... ....
....|..|B-8 JF.F ....|D-4 2F1F ....|C-6 3F.F ....
 D-4|..|D-2 2A.F ....|--- .... ....|--- .... ....
....|..|R-- .... ....|A#4 2F37 ....|G-5 3F.7 ....
....|..|--- .... ....|--- .... ....|--- .... ....
....|..|C-4 CF.F ....|D-4 2F1F ....|A-5 3F.F ....
 D-3|..|D-1 2A.F ....|--- .... ....|--- .... ....
....|..|R-- .... ....|C-4 2F37 ....|F-5 3F.7 ....
....|..|--- .... ....|--- .... ....|--- .... ....
....|..|B-8 JF.F ....|D-4 2F1F ....|F-5 3F.F ....
 D-4|..|D-2 2A.F ....|--- .... ....|--- .... ....
....|..|R-- .... ....|D-4 2F1F ....|G-5 3F.F ....
....|..|--- .... ....|--- .... ....|--- .... ....
....|..|C-4 AF.F ....|C-4 2F3F ....|A-5 3F.7 ....
 C-3|..|C-1 2A.F ....|--- .... ....|--- .... ....
....|..|R-- .... ....|C-4 2F3F ....|F-5 3F.F ....
....|..|--- .... ....|--- .... ....|--- .... ....
....|..|B-8 JF.F ....|C-4 2F37 ....|G-5 3F.F ....
 C-4|..|C-2 2A.F ....|--- .... ....|--- .... ....
....|..|R-- .... ....|C-4 2F3F ....|E-5 3F.7 ....
....|..|--- .... ....|--- .... ....|--- .... ....
....|..|C-4 CF.F ....|C-4 2F3F ....|F-5 3F.F ....
 C-3|..|C-1 2A.F ....|--- .... ....|--- .... ....
....|..|R-- .... ....|D-4 2F1A ....|G-5 3F.F ....
....|..|--- .... ....|--- .... ....|--- .... ....
....|..|B-8 JF.F ....|C-4 2F3F ....|F-5 3F.F ....
 C-4|..|C-2 2A.F ....|--- .... ....|--- .... ....
....|..|R-- .... ....|C-4 2F3F ....|C-5 3F.F ....
....|..|--- .... ....|--- .... ....|--- .... ....
....|..|C-4 AF.F ....|A-4 2F1F ....|A-5 3F.F ....
 A-2|..|A-1 2A.F ....|--- .... ....|--- .... ....
....|..|R-- .... ....|C-4 2F3A ....|R-- .... ....
....|..|--- .... ....|--- .... ....|--- .... ....
....|..|B-8 JF.F ....|A-4 2F1F ....|A-5 3F.F ....
 A-3|..|A-1 2A.F ....|--- .... ....|--- .... ....
....|..|R-- .... ....|D-4 2F17 ....|G-5 3F.7 ....
....|..|--- .... ....|--- .... ....|--- .... ....
....|..|C-4 CF.F ....|A-4 2F1F ....|C-6 3F.F ....
 A-2|..|A-1 2A.F ....|--- .... ....|--- .... ....
....|..|R-- .... ....|C-4 2F37 ....|F-5 3F.7 ....
....|..|--- .... ....|--- .... ....|--- .... ....
....|..|B-8 JF.F ....|A-4 2F1F ....|A-5 3F.F ....
 A-3|..|A-1 2A.F ....|--- .... ....|--- .... ....
....|..|R-- .... ....|A-4 2F1F ....|G-5 3F.F ....
....|..|--- .... ....|--- .... ....|--- .... ....
....|..|C-4 AF.F ....|A#4 2F3F ....|F-5 3F.7 ....
 A#2|..|A#1 2A.F ....|--- .... ....|--- .... ....
....|..|R-- .... ....|A#4 2F3F ....|F-5 3F.F ....
....|..|--- .... ....|--- .... ....|--- .... ....
....|..|B-8 JF.F ....|C-4 2F37 ....|G-5 3F.F ....
 A#3|..|A#1 2A.F ....|--- .... ....|--- .... ....
....|..|R-- .... ....|A#4 2F3F ....|C-5 3F.7 ....
....|..|--- .... ....|--- .... ....|--- .... ....
....|..|C-4 CF.F ....|A#4 2F3F ....|G-5 3F.F ....
 A#2|..|A#1 2A.F ....|--- .... ....|--- .... ....
....|..|C-4 AF.F ....|A-4 2F1A ....|G-5 3F.A ....
....|..|--- .... ....|--- .... ....|--- .... ....
....|..|C-4 CF.F ....|A#4 2F3F ....|F-5 3F.F ....
 A#3|..|A#1 2A.F ....|--- .... ....|--- .... ....
....|..|C-4 CF.F ....|A#4 2F3F ....|F-5 3F.A ....
....|..|--- .... ....|--- .... ....|--- .... ....

[Pattern26]
....|..|C-4 AF.F ....|D-4 2F1F ....|D-6 3F.F ....
 D-3|..|D-1 2A.F ....|--- .... ....|--- .... ....
....|..|R-- .... ....|A#4 2F3A ....|R-- .... ....
....|..|--- .... ....|--- .... ....|--- .... ....
....|..|B-8 JF.F ....|D-4 2F1F ....|C-6 3F.F ....
 D-4|..|D-2 2A.F ....|--- .... ....|--- .... ....
....|..|C-4 AF.A ....|A-4 2F17 ....|G-5 3F.7 ....
....|..|--- .... ....|--- .... ....|--- .... ....
....|..|C-4 CF.F ....|D-4 2F1F ....|A-5 3F.F ....
 D-3|..|D-1 2A.F ....|--- .... ....|--- .... ....
....|..|C-4 CF.A ....|A#4 2F37 ....|F-5 3F.7 ....
....|..|--- .... ....|--- .... ....|--- .... ....
....|..|B-8 JF.F ....|D-4 2F1F ....|F-5 3F.F ....
 D-4|..|D-2 2A.F ....|--- .... ....|--- .... ....
....|..|R-- .... ....|D-4 2F1F ....|G-5 3F.F ....
....|..|--- .... ....|--- .... ....|--- .... ....
....|..|C-4 AF.F ....|C-4 2F2F ....|G-5 3F.7 ....
 F-3|..|F-1 2A.F ....|--- .... ....|--- .... ....
....|..|C-4 AF.7 ....|C-4 2F2F ....|F-5 3F.F ....
....|..|--- .... ....|--- .... ....|--- .... ....
....|..|B-8 JF.F ....|A#4 2F37 ....|G-5 3F.F ....
 F-4|..|F-2 2A.F ....|--- .... ....|--- .... ....
....|..|C-4 CF.7 ....|C-4 2F2F ....|R-- .... ....
....|..|--- .... ....|--- .... ....|--- .... ....
....|..|C-4 CF.F ....|C-4 2F2F ....|F-5 3F.F ....
 F-3|..|F-1 2A.F ....|--- .... ....|--- .... ....
....|..|R-- .... ....|D-4 2F1A ....|G-5 3F.F ....
....|..|--- .... ....|--- .... ....|--- .... ....
....|..|B-8 JF.F ....|C-4 2F2F ....|F-5 3F.F ....
 F-4|..|F-2 2A.F ....|--- .... ....|--- .... ....
....|..|R-- .... ....|C-4 2F2F ....|C-5 3F.F ....
....|..|--- .... ....|--- .... ....|--- .... ....
....|..|C-4 AF.F ....|A#4 2F3F ....|D-5 3F.F ....
 A#2|..|A#1 2A.F ....|--- .... ....|--- .... ....
....|..|R-- .... ....|C-4 2F2A ....|R-- .... ....
....|..|--- .... ....|--- .... ....|--- .... ....
....|..|B-8 JF.F ....|A#4 2F3F ....|C-5 3F.F ....
 A#3|..|A#1 2A.F ....|--- .... ....|--- .... ....
....|..|R-- .... ....|D-4 2F17 ....|G-5 3F.7 ....
....|..|--- .... ....|--- .... ....|--- .... ....
....|..|C-4 CF.F ....|A#4 2F3F ....|D-5 3F.F ....
 A#2|..|A#1 2A.F ....|--- .... ....|--- .... ....
....|..|R-- .... ....|C-4 2F27 ....|F-5 3F.7 ....
....|..|--- .... ....|--- .... ....|--- .... ....
....|..|B-8 JF.F ....|A#4 2F3F ....|F-5 3F.F ....
 A#3|..|A#1 2A.F ....|--- .... ....|--- .... ....
....|..|R-- .... ....|A#4 2F3F ....|G-5 3F.F ....
....|..|--- .... ....|--- .... ....|--- .... ....
....|..|C-4 AF.F ....|C-4 2F3F ....|F-5 3F.7 ....
 C-3|..|C-1 2A.F ....|--- .... ....|--- .... ....
....|..|R-- .... ....|C-4 2F3F ....|F-5 3F.F ....
....|..|--- .... ....|--- .... ....|--- .... ....
....|..|B-8 JF.F ....|C-4 2F27 ....|G-5 3F.F ....
 C-4|..|C-2 2A.F ....|--- .... ....|--- .... ....
....|..|R-- .... ....|C-4 2F3F ....|C-5 3F.7 ....
....|..|--- .... ....|--- .... ....|--- .... ....
....|..|C-4 CF.F ....|C-4 2F3F ....|A-5 3F.F ....
 C-3|..|C-1 2A.F ....|--- .... ....|--- .... ....
....|..|R-- .... ....|A#4 2F3A ....|G-5 3F.F ....
....|..|--- .... ....|--- .... ....|--- .... ....
....|..|B-8 JF.F ....|C-4 2F3F ....|F-5 3F.F ....
 C-4|..|C-2 2A.F ....|--- .... ....|--- .... ....
....|..|R-- .... ....|C-4 2F3F ....|E-5 3F.F ....
....|..|--- .... ....|--- .... ....|--- .... ....

[Pattern27]
....|..|C-4 AF.F ....|D-4 2F1F ....|D-6 3F.F ....
 D-3|..|D-1 2A.F ....|--- .... ....|--- .... ....
....|..|R-- .... ....|C-4 2F3A ....|R-- .... ....
....|..|--- .... ....|--- .... ....|--- .... ....
....|..|B-8 JF.F ....|D-4 2F1F ....|C-6 3F.F ....
 D-4|..|D-2 2A.F ....|--- .... ....|--- .... ....
....|..|R-- .... ....|A#4 2F37 ....|G-5 3F.7 ....
....|..|--- .... ....|--- .... ....|--- .... ....
....|..|C-4 CF.F ....|D-4 2F1F ....|A-5 3F.F ....
 D-3|..|D-1 2A.F ....|--- .... ....|--- .... ....
....|..|R-- .... ....|C-4 2F37 ....|F-5 3F.7 ....
....|..|--- .... ....|--- .... ....|--- .... ....
....|..|B-8 JF.F ....|D-4 2F1F ....|F-5 3F.F ....
 D-4|..|D-2 2A.F ....|--- .... ....|--- .... ....
....|..|R-- .... ....|D-4 2F1F ....|G-5 3F.F ....
....|..|--- .... ....|--- .... ....|--- .... ....
....|..|C-4 AF.F ....|C-4 2F3F ....|A-5 3F.7 ....
 C-3|..|C-1 2A.F ....|--- .... ....|--- .... ....
....|..|R-- .... ....|C-4 2F3F ....|F-5 3F.F ....
....|..|--- .... ....|--- .... ....|--- .... ....
....|..|B-8 JF.F ....|C-4 2F37 ....|G-5 3F.F ....
 C-4|..|C-2 2A.F ....|--- .... ....|--- .... ....
....|..|R-- .... ....|C-4 2F3F ....|E-5 3F.7 ....
....|..|--- .... ....|--- .... ....|--- .... ....
....|..|C-4 CF.F ....|C-4 2F3F ....|F-5 3F.F ....
 C-3|..|C-1 2A.F ....|--- .... ....|--- .... ....
....|..|R-- .... ....|D-4 2F1A ....|G-5 3F.F ....
....|..|--- .... ....|--- .... ....|--- .... ....
....|..|B-8 JF.F ....|C-4 2F3F ....|F-5 3F.F ....
 C-4|..|C-2 2A.F ....|--- .... ....|--- .... ....
....|..|R-- .... ....|C-4 2F3F ....|C-5 3F.F ....
....|..|--- .... ....|--- .... ....|--- .... ....
....|..|C-4 AF.F ....|A-4 2F1F ....|A-5 3F.F ....
 A-2|..|A-1 2A.F ....|--- .... ....|--- .... ....
....|..|R-- .... ....|C-4 2F3A ....|R-- .... ....
....|..|--- .... ....|--- .... ....|--- .... ....
....|..|B-8 JF.F ....|A-4 2F1F ....|A-5 3F.F ....
 A-3|..|A-1 2A.F ....|--- .... ....|--- .... ....
....|..|R-- .... ....|D-4 2F17 ....|G-5 3F.7 ....
....|..|--- .... ....|--- .... ....|--- .... ....
....|..|C-4 CF.F ....|A-4 2F1F ....|C-6 3F.F ....
 A-2|..|A-1 2A.F ....|--- .... ....|--- .... ....
....|..|R-- .... ....|C-4 2F37 ....|F-5 3F.7 ....
....|..|--- .... ....|--- .... ....|--- .... ....
....|..|B-8 JF.F ....|A-4 2F1F ....|A-5 3F.F ....
 A-3|..|A-1 2A.F ....|--- .... ....|--- .... ....
....|..|R-- .... ....|A-4 2F1F ....|R-- .... ....
....|..|--- .... ....|--- .... ....|--- .... ....
....|..|C-4 AF.F ....|A#4 2F3F ....|D-6 3F.F ....
 A#2|..|A#1 2A.F ....|--- .... ....|--- .... ....
....|..|R-- .... ....|A#4 2F3F ....|G-5 3F.7 ....
....|..|--- .... ....|--- .... ....|--- .... ....
....|..|B-8 JF.F ....|C-4 2F37 ....|D-6 3F.F ....
 A#3|..|A#1 2A.F ....|--- .... ....|--- .... ....
....|..|R-- .... ....|A#4 2F3F ....|C-5 3F.7 ....
....|..|--- .... ....|--- .... ....|--- .... ....
....|..|C-4 CF.F ....|A#4 2F3F ....|F-6 3F.F ....
 A#2|..|A#1 2A.F ....|--- .... ....|--- .... ....
....|..|C-4 AF.F ....|A-4 2F1A ....|E-6 3F.F ....
....|..|--- .... ....|--- .... ....|--- .... ....
....|..|C-4 CF.F ....|A#4 2F3F ....|D-6 3F.F ....
 A#3|..|A#1 2A.F ....|--- .... ....|--- .... ....
....|..|C-4 CF.F ....|A#4 2F3F ....|C-6 3F.F ....
....|..|--- .... ....|--- .... ....|--- .... ....

[Pattern28]
....|..|C-4 AF.F ....|D-4 2F1F ....|C-6 3F.7 ....
 D-3|..|D-1 2A.F ....|--- .... ....|--- .... ....
....|..|R-- .... ....|A#4 2F3A ....|R-- .... ....
....|..|--- .... ....|--- .... ....|--- .... ....
....|..|B-8 JF.F ....|D-4 2F1F ....|A-5 3F.7 ....
 D-4|..|D-2 2A.F ....|--- .... ....|--- .... ....
....|..|C-4 AF.A ....|A-4 2F17 ....|E-6 3F.A ....
....|..|--- .... ....|--- .... ....|--- .... ....
....|..|C-4 CF.F ....|D-4 2F1F ....|D-6 3F.7 ....
 D-3|..|D-1 2A.F ....|--- .... ....|--- .... ....
....|..|C-4 CF.A ....|A#4 2F37 ....|C-6 3F.A ....
....|..|--- .... ....|--- .... ....|--- .... ....
....|..|B-8 JF.F ....|D-4 2F1F ....|D-6 3F.7 ....
 D-4|..|D-2 2A.F ....|--- .... ....|--- .... ....
....|..|R-- .... ....|D-4 2F1F ....|R-- .... ....
....|..|--- .... ....|--- .... ....|--- .... ....
....|..|C-4 AF.F ....|C-4 2F2F ....|F-6 3F.7 ....
 F-3|..|F-1 2A.F ....|--- .... ....|--- .... ....
....|..|C-4 AF.7 ....|C-4 2F2F ....|E-6 3F.7 ....
....|..|--- .... ....|--- .... ....|--- .... ....
....|..|B-8 JF.F ....|A#4 2F37 ....|D-6 3F.7 ....
 F-4|..|F-2 2A.F ....|--- .... ....|--- .... ....
....|..|C-4 CF.7 ....|C-4 2F2F ....|C-6 3F.7 ....
....|..|--- .... ....|--- .... ....|--- .... ....
....|..|C-4 CF.F ....|C-4 2F2F ....|R-- .... ....
 F-3|..|F-1 2A.F ....|--- .... ....|--- .... ....
....|..|R-- .... ....|D-4 2F1A ....|--- .... ....
....|..|--- .... ....|--- .... ....|--- .... ....
....|..|B-8 JF.F ....|C-4 2F2F ....|--- .... ....
 F-4|..|F-2 2A.F ....|--- .... ....|--- .... ....
....|..|R-- .... ....|C-4 2F2F ....|--- .... ....
....|..|--- .... ....|--- .... ....|--- .... ....
....|..|C-4 AF.F ....|A#4 2F3F ....|--- .... ....
 A#2|..|A#1 2A.F ....|--- .... ....|--- .... ....
....|..|R-- .... ....|C-4 2F2A ....|--- .... ....
....|..|--- .... ....|--- .... ....|--- .... ....
....|..|B-8 JF.F ....|A#4 2F3F ....|--- .... ....
 A#3|..|A#1 2A.F ....|--- .... ....|--- .... ....
....|..|R-- .... ....|D-4 2F17 ....|--- .... ....
....|..|--- .... ....|--- .... ....|--- .... ....
....|..|C-4 CF.F ....|A#4 2F3F ....|--- .... ....
 A#2|..|A#1 2A.F ....|--- .... ....|--- .... ....
....|..|R-- .... ....|C-4 2F27 ....|--- .... ....
....|..|--- .... ....|--- .... ....|--- .... ....
....|..|B-8 JF.F ....|A#4 2F3F ....|--- .... ....
 A#3|..|A#1 2A.F ....|--- .... ....|--- .... ....
....|..|R-- .... ....|A#4 2F3F ....|--- .... ....
....|..|--- .... ....|--- .... ....|--- .... ....
....|..|C-4 AF.F ....|C-4 2F3F ....|--- .... ....
 C-3|..|C-1 2A.F ....|--- .... ....|--- .... ....
....|..|R-- .... ....|C-4 2F3F ....|--- .... ....
....|..|--- .... ....|--- .... ....|--- .... ....
....|..|B-8 JF.F ....|C-4 2F27 ....|--- .... ....
 C-4|..|C-2 2A.F ....|--- .... ....|--- .... ....
....|..|R-- .... ....|C-4 2F3F ....|--- .... ....
....|..|--- .... ....|--- .... ....|--- .... ....
 C-3|..|C-4 CF.F ....|C-4 2C.F ....|--- .... ....
 C-3|..|C-1 2A.F ....|--- .... ....|--- .... ....
....|..|R-- .... ....|A#4 2F3A ....|--- .... ....
....|..|--- .... ....|--- .... ....|--- .... ....
 C-3|..|B-8 JF.F ....|C-3 2C.F ....|--- .... ....
 C-4|..|C-2 2A.F ....|--- .... ....|--- .... ....
 C-3|..|R-- .... ....|C-3 2C.F ....|--- .... ....
....|..|--- .... ....|--- .... ....|--- .... ....

[Pattern29]
....|..|C-4 AF.F ....|D-4 2F1F ....|--- .... ....
 D-3|..|D-1 2A.F ....|--- .... ....|--- .... ....
....|..|R-- .... ....|C-4 2F3A ....|--- .... ....
....|..|--- .... ....|--- .... ....|--- .... ....
....|..|B-8 JF.F ....|D-4 2F1F ....|--- .... ....
 D-4|..|D-2 2A.F ....|--- .... ....|--- .... ....
....|..|R-- .... ....|A#4 2F37 ....|--- .... ....
....|..|--- .... ....|--- .... ....|--- .... ....
....|..|C-4 CF.F ....|D-4 2F1F ....|--- .... ....
 D-3|..|D-1 2A.F ....|--- .... ....|--- .... ....
....|..|R-- .... ....|C-4 2F37 ....|--- .... ....
....|..|--- .... ....|--- .... ....|--- .... ....
....|..|B-8 JF.F ....|D-4 2F1F ....|--- .... ....
 D-4|..|D-2 2A.F ....|--- .... ....|--- .... ....
....|..|R-- .... ....|D-4 2F1F ....|--- .... ....
....|..|--- .... ....|--- .... ....|--- .... ....
....|..|C-4 AF.F ....|C-4 2F3F ....|--- .... ....
 C-3|..|C-1 2A.F ....|--- .... ....|--- .... ....
....|..|R-- .... ....|C-4 2F3F ....|--- .... ....
....|..|--- .... ....|--- .... ....|--- .... ....
....|..|B-8 JF.F ....|C-3 2F.7 ....|--- .... ....
 C-4|..|C-2 2A.F ....|--- .... ....|--- .... ....
....|..|R-- .... ....|C-4 2F3F ....|--- .... ....
....|..|--- .... ....|--- .... ....|--- .... ....
....|..|C-4 CF.F ....|C-4 2F3F ....|--- .... ....
 C-3|..|C-1 2A.F ....|--- .... ....|--- .... ....
....|..|R-- .... ....|D-4 2F1A ....|--- .... ....
....|..|--- .... ....|--- .... ....|--- .... ....
....|..|B-8 JF.F ....|C-4 2F3F ....|--- .... ....
 C-4|..|C-2 2A.F ....|--- .... ....|--- .... ....
....|..|R-- .... ....|C-4 2F3F ....|--- .... ....
....|..|--- .... ....|--- .... ....|--- .... ....
....|..|C-4 AF.F ....|A-4 2F1F ....|--- .... ....
 A-2|..|A-1 2A.F ....|--- .... ....|--- .... ....
....|..|R-- .... ....|C-4 2F3A ....|--- .... ....
....|..|--- .... ....|--- .... ....|--- .... ....
....|..|B-8 JF.F ....|A-4 2F1F ....|--- .... ....
 A-3|..|A-1 2A.F ....|--- .... ....|--- .... ....
....|..|R-- .... ....|D-4 2F17 ....|--- .... ....
....|..|--- .... ....|--- .... ....|--- .... ....
....|..|C-4 CF.F ....|A-4 2F1F ....|--- .... ....
 A-2|..|A-1 2A.F ....|--- .... ....|--- .... ....
....|..|R-- .... ....|C-4 2F37 ....|--- .... ....
....|..|--- .... ....|--- .... ....|--- .... ....
....|..|B-8 JF.F ....|A-4 2F1F ....|--- .... ....
 A-3|..|A-1 2A.F ....|--- .... ....|--- .... ....
....|..|R-- .... ....|A-4 2F1F ....|--- .... ....
....|..|--- .... ....|--- .... ....|--- .... ....
 C-3|..|C-4 AF.F ....|C-4 2C.F ....|--- .... ....
 A#2|..|A#1 2A.F ....|--- .F.. ....|--- .... ....
 C-3|..|R-- .... ....|C-3 2C.F ....|--- .... ....
....|..|--- .... ....|--- .... ....|--- .... ....
....|..|B-8 JF.F ....|C-4 2F37 ....|--- .... ....
 A#3|..|A#1 2A.F ....|--- .... ....|--- .... ....
 C-3|..|R-- .... ....|C-3 2C.F ....|--- .... ....
....|..|--- .... ....|--- .... ....|--- .... ....
 C-4|..|C-4 CF.F ....|C-2 2A.F ....|--- .... ....
 A#2|..|A#1 2A.F ....|--- .F.. ....|--- .... ....
 C-4|..|C-4 AF.F ....|C-2 2A.F ....|--- .... ....
....|..|--- .... ....|--- .... ....|--- .... ....
 C-4|..|C-4 CF.F ....|C-2 2A.F ....|--- .... ....
 A#3|..|A#1 2A.F ....|--- .F.. ....|--- .... ....
 C-4|..|C-4 CF.F ....|C-2 2A.F ....|--- .... ....
....|..|--- .... ....|--- .... ....|--- .... ....

[Pattern30]
....|..|C-4 AF.F ....|D-4 2F1F ....|--- .... ....
 D-3|..|D-1 2A.F ....|--- .... ....|--- .... ....
....|..|R-- .... ....|C-3 2F.A ....|--- .... ....
....|..|--- .... ....|--- .... ....|--- .... ....
....|..|B-8 JF.F ....|D-4 2F1F ....|--- .... ....
 D-4|..|D-2 2A.F ....|--- .... ....|--- .... ....
....|..|C-4 AF.A ....|A-4 2F17 ....|--- .... ....
....|..|--- .... ....|--- .... ....|--- .... ....
....|..|C-4 CF.F ....|D-4 2F1F ....|--- .... ....
 D-3|..|D-1 2A.F ....|--- .... ....|--- .... ....
....|..|C-4 CF.A ....|C-3 2F.7 ....|--- .... ....
....|..|--- .... ....|--- .... ....|--- .... ....
....|..|B-8 JF.F ....|D-4 2F1F ....|--- .... ....
 D-4|..|D-2 2A.F ....|--- .... ....|--- .... ....
....|..|R-- .... ....|D-4 2F1F ....|--- .... ....
....|..|--- .... ....|--- .... ....|--- .... ....
....|..|C-4 AF.F ....|C-4 2F2F ....|--- .... ....
 F-3|..|F-1 2A.F ....|--- .... ....|--- .... ....
....|..|C-4 AF.7 ....|C-4 2F2F ....|--- .... ....
....|..|--- .... ....|--- .... ....|--- .... ....
....|..|B-8 JF.F ....|C-2 2F.7 ....|--- .... ....
 F-4|..|F-2 2A.F ....|--- .... ....|--- .... ....
....|..|C-4 CF.7 ....|C-4 2F2F ....|--- .... ....
....|..|--- .... ....|--- .... ....|--- .... ....
....|..|C-4 CF.F ....|C-4 2F2F ....|--- .... ....
 F-3|..|F-1 2A.F ....|--- .... ....|--- .... ....
....|..|R-- .... ....|D-4 2F1A ....|--- .... ....
....|..|--- .... ....|--- .... ....|--- .... ....
....|..|B-8 JF.F ....|C-4 2F2F ....|--- .... ....
 F-4|..|F-2 2A.F ....|--- .... ....|--- .... ....
....|..|R-- .... ....|C-4 2F2F ....|--- .... ....
....|..|--- .... ....|--- .... ....|--- .... ....
....|..|C-4 AF.F ....|A#4 2F3F ....|--- .... ....
 A#2|..|A#1 2A.F ....|--- .... ....|--- .... ....
....|..|R-- .... ....|C-4 2F2A ....|--- .... ....
....|..|--- .... ....|--- .... ....|--- .... ....
....|..|B-8 JF.F ....|A#4 2F3F ....|--- .... ....
 A#3|..|A#1 2A.F ....|--- .... ....|--- .... ....
....|..|R-- .... ....|D-4 2F17 ....|--- .... ....
....|..|--- .... ....|--- .... ....|--- .... ....
....|..|C-4 CF.F ....|A#4 2F3F ....|--- .... ....
 A#2|..|A#1 2A.F ....|--- .... ....|--- .... ....
....|..|R-- .... ....|C-4 2F27 ....|--- .... ....
....|..|--- .... ....|--- .... ....|--- .... ....
....|..|B-8 JF.F ....|A#4 2F3F ....|--- .... ....
 A#3|..|A#1 2A.F ....|--- .... ....|--- .... ....
....|..|R-- .... ....|A#4 2F3F ....|--- .... ....
....|..|--- .... ....|--- .... ....|--- .... ....
....|..|C-4 AF.F ....|C-4 2F3F ....|--- .... ....
 C-3|..|C-1 2A.F ....|--- .... ....|--- .... ....
....|..|R-- .... ....|C-4 2F3F ....|--- .... ....
....|..|--- .... ....|--- .... ....|--- .... ....
 C-3|..|B-8 JF.F ....|C-4 2C.F ....|--- .... ....
 C-4|..|C-2 2A.F ....|--- .... ....|--- .... ....
....|..|R-- .... ....|C-4 2F3F ....|--- .... ....
....|..|--- .... ....|--- .... ....|--- .... ....
 C-3|..|C-4 CF.F ....|C-4 2C.F ....|--- .... ....
 C-3|..|C-1 2A.F ....|--- .... ....|--- .... ....
....|..|R-- .... ....|A#4 2F3A ....|--- .... ....
....|..|--- .... ....|--- .... ....|--- .... ....
 C-3|..|B-8 JF.F ....|C-3 2C.F ....|--- .... ....
 C-4|..|C-2 2A.F ....|--- .... ....|--- .... ....
 C-3|..|R-- .... ....|C-3 2C.F ....|--- .... ....
....|..|--- .... ....|--- .... ....|--- .... ....

[Pattern31]
....|..|C-4 AF.F ....|D-4 2F1F ....|--- .... ....
 D-3|..|D-1 2A.F ....|--- .... ....|--- .... ....
....|..|R-- .... ....|C-4 2F3A ....|--- .... ....
....|..|--- .... ....|--- .... ....|--- .... ....
....|..|B-8 JF.F ....|D-4 2F1F ....|--- .... ....
 D-4|..|D-2 2A.F ....|--- .... ....|--- .... ....
....|..|R-- .... ....|A#4 2F37 ....|--- .... ....
....|..|--- .... ....|--- .... ....|--- .... ....
....|..|C-4 CF.F ....|D-4 2F1F ....|--- .... ....
 D-3|..|D-1 2A.F ....|--- .... ....|--- .... ....
....|..|R-- .... ....|C-4 2F37 ....|--- .... ....
....|..|--- .... ....|--- .... ....|--- .... ....
....|..|B-8 JF.F ....|D-4 2F1F ....|--- .... ....
 D-4|..|D-2 2A.F ....|--- .... ....|--- .... ....
....|..|R-- .... ....|D-4 2F1F ....|--- .... ....
....|..|--- .... ....|--- .... ....|--- .... ....
....|..|C-4 AF.F ....|C-4 2F3F ....|--- .... ....
 C-3|..|C-1 2A.F ....|--- .... ....|--- .... ....
....|..|R-- .... ....|C-4 2F3F ....|--- .... ....
....|..|--- .... ....|--- .... ....|--- .... ....
....|..|B-8 JF.F ....|C-3 2F.7 ....|--- .... ....
 C-4|..|C-2 2A.F ....|--- .... ....|--- .... ....
....|..|R-- .... ....|C-4 2F3F ....|--- .... ....
....|..|--- .... ....|--- .... ....|--- .... ....
....|..|C-4 CF.F ....|C-4 2F3F ....|--- .... ....
 C-3|..|C-1 2A.F ....|--- .... ....|--- .... ....
....|..|R-- .... ....|D-4 2F1A ....|--- .... ....
....|..|--- .... ....|--- .... ....|--- .... ....
....|..|B-8 JF.F ....|C-4 2F3F ....|--- .... ....
 C-4|..|C-2 2A.F ....|--- .... ....|--- .... ....
....|..|R-- .... ....|C-4 2F3F ....|--- .... ....
....|..|--- .... ....|--- .... ....|--- .... ....
 C-3|..|C-4 AF.F ....|C-4 2C.F ....|--- .... ....
 A-2|..|A-1 2A.F ....|--- .F.. ....|--- .... ....
 C-3|..|R-- .... ....|C-4 2C.F ....|--- .... ....
....|..|--- .... ....|--- .... ....|--- .... ....
....|..|B-8 JF.F ....|A-4 2F1F ....|--- .... ....
 A-3|..|A-1 2A.F ....|--- .... ....|--- .... ....
 C-3|..|R-- .... ....|C-4 2C.F ....|--- .... ....
....|..|--- .... ....|--- .... ....|--- .... ....
 C-3|..|C-4 CF.F ....|C-3 2C.F ....|--- .... ....
 A-2|..|A-1 2A.F ....|--- .F.. ....|--- .... ....
 C-3|..|R-- .... ....|C-3 2C.F ....|--- .... ....
....|..|--- .... ....|--- .... ....|--- .... ....
....|..|B-8 JF.F ....|A-4 2F1F ....|--- .... ....
 A-3|..|A-1 2A.F ....|--- .... ....|--- .... ....
 C-3|..|R-- .... ....|C-3 2C.F ....|--- .... ....
....|..|--- .... ....|--- .... ....|--- .... ....
 C-4|..|C-4 AF.F ....|C-2 2A.F ....|--- .... ....
 A#2|..|A#1 2A.F ....|--- .F.. ....|--- .... ....
 C-4|..|R-- .... ....|C-2 2A.F ....|--- .... ....
....|..|--- .... ....|--- .... ....|--- .... ....
....|..|B-8 JF.F ....|C-4 2F37 ....|--- .... ....
 A#3|..|A#1 2A.F ....|--- .... ....|--- .... ....
 C-4|..|R-- .... ....|C-2 2A.F ....|--- .... ....
....|..|--- .... ....|--- .... ....|--- .... ....
 C-3|..|C-4 CF.F ....|C-1 2A.F ....|--- .... ....
 A#2|..|A#1 2A.F ....|--- .F.. ....|--- .... ....
 C-3|..|C-4 AF.F ....|C-1 2A.F ....|--- .... ....
....|..|--- .... ....|--- .... ....|--- .... ....
 C-3|..|C-4 CF.F ....|C-1 2A.F ....|--- .... ....
 A#3|..|A#1 2A.F ....|--- .F.. ....|--- .... ....
 C-3|..|C-4 CF.F ....|C-1 2A.F ....|--- .... ....
....|..|--- .... ....|--- .... ....|--- .... ....

[Pattern32]
....|..|C-4 AF.F ....|D-4 2F1F ....|D-5 3F.F ....
 D-3|..|D-1 2A.F ....|--- .... ....|--- .... ....
....|..|R-- .... ....|C-3 2F.7 ....|--- .... ....
....|..|--- .... ....|--- .... ....|--- .... ....
....|..|B-8 JF.F ....|D-4 2F1F ....|C-5 3F.F ....
 D-4|..|D-2 2A.F ....|--- .... ....|--- .... ....
....|..|C-4 AF.A ....|C-3 2F.7 ....|--- .... ....
....|..|--- .... ....|--- .... ....|--- .... ....
....|..|C-4 CF.F ....|D-4 2F1F ....|D-5 3F.F ....
 D-3|..|D-1 2A.F ....|--- .... ....|--- .... ....
....|..|C-4 CF.A ....|C-2 2F.7 ....|--- .... ....
....|..|--- .... ....|--- .... ....|--- .... ....
....|..|B-8 JF.F ....|D-4 2F1F ....|F-5 3F.F ....
 D-4|..|D-2 2A.F ....|--- .... ....|--- .... ....
....|..|R-- .... ....|D-4 2F1F ....|D-5 3F.F ....
....|..|--- .... ....|--- .... ....|--- .... ....
....|..|C-4 AF.F ....|C-4 2F2F ....|C-5 3F.A ....
 F-3|..|F-1 2A.F ....|--- .... ....|--- .... ....
....|..|C-4 AF.7 ....|C-4 2F2F ....|--- .... ....
....|..|--- .... ....|--- .... ....|--- .... ....
....|..|B-8 JF.F ....|C-1 2F.7 ....|D-5 3F.A ....
 F-4|..|F-2 2A.F ....|--- .... ....|--- .... ....
....|..|C-4 CF.7 ....|C-4 2F2F ....|--- .... ....
....|..|--- .... ....|--- .... ....|--- .... ....
....|..|C-4 CF.F ....|C-4 2F2F ....|D-5 3F.7 ....
 F-3|..|F-1 2A.F ....|--- .... ....|--- .... ....
....|..|R-- .... ....|D-4 2F1A ....|D-5 3F.A ....
....|..|--- .... ....|--- .... ....|--- .... ....
....|..|B-8 JF.F ....|C-4 2F2F ....|C-5 3F.7 ....
 F-4|..|F-2 2A.F ....|--- .... ....|--- .... ....
....|..|R-- .... ....|C-4 2F2F ....|--- .... ....
....|..|--- .... ....|--- .... ....|--- .... ....
....|..|C-4 AF.F ....|A#4 2F3F ....|D-5 3F.7 ....
 A#2|..|A#1 2A.F ....|--- .... ....|--- .... ....
....|..|R-- .... ....|C-4 2F2A ....|--- .... ....
....|..|--- .... ....|--- .... ....|--- .... ....
....|..|B-8 JF.F ....|A#4 2F3F ....|D-5 3F.F ....
 A#3|..|A#1 2A.F ....|--- .... ....|--- .... ....
....|..|R-- .... ....|D-4 2F17 ....|D-5 3F.7 ....
....|..|--- .... ....|--- .... ....|--- .... ....
....|..|C-4 CF.F ....|A#4 2F3F ....|D-5 3F.F ....
 A#2|..|A#1 2A.F ....|--- .... ....|--- .... ....
....|..|R-- .... ....|C-4 2F27 ....|--- .... ....
....|..|--- .... ....|--- .... ....|--- .... ....
....|..|B-8 JF.F ....|A#4 2F3F ....|D-5 3F.F ....
 A#3|..|A#1 2A.F ....|--- .... ....|--- .... ....
....|..|R-- .... ....|A#4 2F3F ....|--- .... ....
....|..|--- .... ....|--- .... ....|--- .... ....
....|..|C-4 AF.F ....|C-4 2F3F ....|C-5 3F.F ....
 C-3|..|C-1 2A.F ....|--- .... ....|--- .... ....
....|..|R-- .... ....|C-4 2F3F ....|--- .... ....
....|..|--- .... ....|--- .... ....|--- .... ....
....|..|B-8 JF.F ....|C-4 2F27 ....|A#4 3F.F ....
 C-4|..|C-2 2A.F ....|--- .... ....|--- .... ....
....|..|R-- .... ....|C-4 2F3F ....|--- .... ....
....|..|--- .... ....|--- .... ....|--- .... ....
....|..|C-4 CF.F ....|C-4 2F3F ....|A-4 3F.F ....
 C-3|..|C-1 2A.F ....|--- .... ....|--- .... ....
....|..|R-- .... ....|A#4 2F3A ....|--- .... ....
....|..|--- .... ....|--- .... ....|--- .... ....
....|..|B-8 JF.F ....|C-4 2F3F ....|G-4 3F.F ....
 C-4|..|C-2 2A.F ....|--- .... ....|--- .... ....
....|..|R-- .... ....|C-4 2F3F ....|A-4 3F.F ....
....|..|--- .... ....|--- .... ....|--- .... ....

[Pattern33]
....|..|C-4 AF.F ....|D-4 2F1F ....|D-5 3F.7 ....
 D-3|..|D-1 2A.F ....|--- .... ....|--- .... ....
....|..|R-- .... ....|C-4 2F3A ....|--- .... ....
....|..|--- .... ....|--- .... ....|--- .... ....
....|..|B-8 JF.F ....|D-4 2F1F ....|D-5 3F.7 ....
 D-4|..|D-2 2A.F ....|--- .... ....|--- .... ....
....|..|R-- .... ....|A#4 2F37 ....|--- .... ....
....|..|--- .... ....|--- .... ....|--- .... ....
....|..|C-4 CF.F ....|D-4 2F1F ....|C-5 3F.7 ....
 D-3|..|D-1 2A.F ....|--- .... ....|--- .... ....
....|..|R-- .... ....|C-4 2F37 ....|A-4 3F.A ....
....|..|--- .... ....|--- .... ....|--- .... ....
....|..|B-8 JF.F ....|D-4 2F1F ....|A#4 3F.7 ....
 D-4|..|D-2 2A.F ....|--- .... ....|--- .... ....
....|..|R-- .... ....|D-4 2F1F ....|A-4 3F.F ....
....|..|--- .... ....|--- .... ....|--- .... ....
....|..|C-4 AF.F ....|C-4 2F3F ....|C-5 3F.F ....
 C-3|..|C-1 2A.F ....|--- .... ....|--- .... ....
....|..|R-- .... ....|C-4 2F3F ....|--- .... ....
....|..|--- .... ....|--- .... ....|--- .... ....
....|..|B-8 JF.F ....|C-4 2F37 ....|A#4 3F.F ....
 C-4|..|C-2 2A.F ....|--- .... ....|--- .... ....
....|..|R-- .... ....|C-4 2F3F ....|A-4 3F.7 ....
....|..|--- .... ....|--- .... ....|--- .... ....
....|..|C-4 CF.F ....|C-4 2F3F ....|A-4 3F.F ....
 C-3|..|C-1 2A.F ....|--- .... ....|--- .... ....
....|..|R-- .... ....|D-4 2F1A ....|A-4 3F.A ....
....|..|--- .... ....|--- .... ....|--- .... ....
....|..|B-8 JF.F ....|C-4 2F3F ....|G-4 3F.F ....
 C-4|..|C-2 2A.F ....|--- .... ....|--- .... ....
....|..|R-- .... ....|C-4 2F3F ....|F-4 3F.F ....
....|..|--- .... ....|--- .... ....|--- .... ....
....|..|C-4 AF.F ....|A-4 2F1F ....|A#4 3F.A ....
 A-2|..|A-1 2A.F ....|--- .... ....|--- .... ....
....|..|R-- .... ....|C-4 2F3A ....|--- .... ....
....|..|--- .... ....|--- .... ....|--- .... ....
....|..|B-8 JF.F ....|A-4 2F1F ....|A-4 3F.A ....
 A-3|..|A-1 2A.F ....|--- .... ....|--- .... ....
....|..|R-- .... ....|D-4 2F17 ....|A-4 3F.7 ....
....|..|--- .... ....|--- .... ....|--- .... ....
....|..|C-4 CF.F ....|A-4 2F1F ....|C-5 3F.7 ....
 A-2|..|A-1 2A.F ....|--- .... ....|--- .... ....
....|..|R-- .... ....|C-4 2F37 ....|F-4 3F.A ....
....|..|--- .... ....|--- .... ....|--- .... ....
....|..|B-8 JF.F ....|A-4 2F1F ....|A#4 3F.7 ....
 A-3|..|A-1 2A.F ....|--- .... ....|--- .... ....
....|..|R-- .... ....|A-4 2F1F ....|G-4 3F.F ....
....|..|--- .... ....|--- .... ....|--- .... ....
....|..|C-4 AF.F ....|A#4 2F3F ....|A-4 3F.F ....
 A#2|..|A#1 2A.F ....|--- .... ....|--- .... ....
....|..|R-- .... ....|A#4 2F3F ....|--- .... ....
....|..|--- .... ....|--- .... ....|--- .... ....
....|..|B-8 JF.F ....|C-4 2F37 ....|C-5 3F.F ....
 A#3|..|A#1 2A.F ....|--- .... ....|--- .... ....
....|..|R-- .... ....|A#4 2F3F ....|F-4 3F.7 ....
....|..|--- .... ....|--- .... ....|--- .... ....
....|..|C-4 CF.F ....|A#4 2F3F ....|D-5 3F.F ....
 A#2|..|A#1 2A.F ....|--- .... ....|--- .... ....
....|..|C-4 AF.F ....|A-4 2F1A ....|G-4 3F.A ....
....|..|--- .... ....|--- .... ....|--- .... ....
....|..|C-4 CF.F ....|A#4 2F3F ....|F-5 3F.F ....
 A#3|..|A#1 2A.F ....|--- .... ....|--- .... ....
....|..|C-4 CF.F ....|A#4 2F3F ....|--- .... ....
....|..|--- .... ....|--- .... ....|--- .... ....

[Pattern34]
....|..|C-4 AF.F ....|D-4 2F1F ....|D-5 3F.F ....
 D-3|..|D-1 2A.F ....|--- .... ....|--- .... ....
....|..|R-- .... ....|A#4 2F3A ....|--- .... ....
....|..|--- .... ....|--- .... ....|--- .... ....
....|..|B-8 JF.F ....|D-4 2F1F ....|C-5 3F.F ....
 D-4|..|D-2 2A.F ....|--- .... ....|--- .... ....
....|..|C-4 AF.A ....|A-4 2F17 ....|G-4 3F.7 ....
....|..|--- .... ....|--- .... ....|--- .... ....
....|..|C-4 CF.F ....|D-4 2F1F ....|D-5 3F.F ....
 D-3|..|D-1 2A.F ....|--- .... ....|--- .... ....
....|..|C-4 CF.A ....|A#4 2F37 ....|--- .... ....
....|..|--- .... ....|--- .... ....|--- .... ....
....|..|B-8 JF.F ....|D-4 2F1F ....|F-5 3F.F ....
 D-4|..|D-2 2A.F ....|--- .... ....|--- .... ....
....|..|R-- .... ....|D-4 2F1F ....|D-5 3F.F ....
....|..|--- .... ....|--- .... ....|--- .... ....
....|..|C-4 AF.F ....|C-4 2F2F ....|D-5 3F.7 ....
 F-3|..|F-1 2A.F ....|--- .... ....|--- .... ....
....|..|C-4 AF.7 ....|C-4 2F2F ....|--- .... ....
....|..|--- .... ....|--- .... ....|--- .... ....
....|..|B-8 JF.F ....|A#4 2F37 ....|F-5 3F.7 ....
 F-4|..|F-2 2A.F ....|--- .... ....|--- .... ....
....|..|C-4 CF.7 ....|C-4 2F2F ....|--- .... ....
....|..|--- .... ....|--- .... ....|--- .... ....
....|..|C-4 CF.F ....|C-4 2F2F ....|D-5 3F.7 ....
 F-3|..|F-1 2A.F ....|--- .... ....|--- .... ....
....|..|R-- .... ....|D-4 2F1A ....|D-5 3F.A ....
....|..|--- .... ....|--- .... ....|--- .... ....
....|..|B-8 JF.F ....|C-4 2F2F ....|C-5 3F.7 ....
 F-4|..|F-2 2A.F ....|--- .... ....|--- .... ....
....|..|R-- .... ....|C-4 2F2F ....|--- .... ....
....|..|--- .... ....|--- .... ....|--- .... ....
....|..|C-4 AF.F ....|A#4 2F3F ....|D-5 3F.7 ....
 A#2|..|A#1 2A.F ....|--- .... ....|--- .... ....
....|..|R-- .... ....|C-4 2F2A ....|--- .... ....
....|..|--- .... ....|--- .... ....|--- .... ....
....|..|B-8 JF.F ....|A#4 2F3F ....|D-5 3F.F ....
 A#3|..|A#1 2A.F ....|--- .... ....|--- .... ....
....|..|R-- .... ....|D-4 2F17 ....|D-5 3F.7 ....
....|..|--- .... ....|--- .... ....|--- .... ....
....|..|C-4 CF.F ....|A#4 2F3F ....|D-5 3F.F ....
 A#2|..|A#1 2A.F ....|--- .... ....|--- .... ....
....|..|R-- .... ....|C-4 2F27 ....|--- .... ....
....|..|--- .... ....|--- .... ....|--- .... ....
....|..|B-8 JF.F ....|A#4 2F3F ....|D-5 3F.F ....
 A#3|..|A#1 2A.F ....|--- .... ....|--- .... ....
....|..|R-- .... ....|A#4 2F3F ....|--- .... ....
....|..|--- .... ....|--- .... ....|--- .... ....
....|..|C-4 AF.F ....|C-4 2F3F ....|F-5 3F.F ....
 C-3|..|C-1 2A.F ....|--- .... ....|--- .... ....
....|..|R-- .... ....|C-4 2F3F ....|--- .... ....
....|..|--- .... ....|--- .... ....|--- .... ....
....|..|B-8 JF.F ....|C-4 2F27 ....|E-5 3F.F ....
 C-4|..|C-2 2A.F ....|--- .... ....|--- .... ....
....|..|R-- .... ....|C-4 2F3F ....|--- .... ....
....|..|--- .... ....|--- .... ....|--- .... ....
....|..|C-4 CF.F ....|C-4 2F3F ....|E-5 3F.F ....
 C-3|..|C-1 2A.F ....|--- .... ....|--- .... ....
....|..|R-- .... ....|A#4 2F3A ....|--- .... ....
....|..|--- .... ....|--- .... ....|--- .... ....
....|..|B-8 JF.F ....|C-4 2F3F ....|C-5 3F.F ....
 C-4|..|C-2 2A.F ....|--- .... ....|--- .... ....
....|..|R-- .... ....|C-4 2F3F ....|A-4 3F.F ....
....|..|--- .... ....|--- .... ....|--- .... ....

[Pattern35]
....|..|C-4 AF.F ....|D-4 2F1F ....|D-5 3F.7 ....
 D-3|..|D-1 2A.F ....|--- .... ....|--- .... ....
....|..|R-- .... ....|C-4 2F3A ....|--- .... ....
....|..|--- .... ....|--- .... ....|--- .... ....
....|..|B-8 JF.F ....|D-4 2F1F ....|D-5 3F.7 ....
 D-4|..|D-2 2A.F ....|--- .... ....|--- .... ....
....|..|R-- .... ....|A#4 2F37 ....|--- .... ....
....|..|--- .... ....|--- .... ....|--- .... ....
....|..|C-4 CF.F ....|D-4 2F1F ....|F-5 3F.7 ....
 D-3|..|D-1 2A.F ....|--- .... ....|--- .... ....
....|..|R-- .... ....|C-4 2F37 ....|A-4 3F.A ....
....|..|--- .... ....|--- .... ....|--- .... ....
....|..|B-8 JF.F ....|D-4 2F1F ....|E-5 3F.7 ....
 D-4|..|D-2 2A.F ....|--- .... ....|--- .... ....
....|..|R-- .... ....|D-4 2F1F ....|A-4 3F.F ....
....|..|--- .... ....|--- .... ....|--- .... ....
....|..|C-4 AF.F ....|C-4 2F3F ....|C-5 3F.F ....
 C-3|..|C-1 2A.F ....|--- .... ....|--- .... ....
....|..|R-- .... ....|C-4 2F3F ....|--- .... ....
....|..|--- .... ....|--- .... ....|--- .... ....
....|..|B-8 JF.F ....|C-4 2F37 ....|A#4 3F.F ....
 C-4|..|C-2 2A.F ....|--- .... ....|--- .... ....
....|..|R-- .... ....|C-4 2F3F ....|A-4 3F.7 ....
....|..|--- .... ....|--- .... ....|--- .... ....
....|..|C-4 CF.F ....|C-4 2F3F ....|A-4 3F.F ....
 C-3|..|C-1 2A.F ....|--- .... ....|--- .... ....
....|..|R-- .... ....|D-4 2F1A ....|A-4 3F.A ....
....|..|--- .... ....|--- .... ....|--- .... ....
....|..|B-8 JF.F ....|C-4 2F3F ....|G-4 3F.F ....
 C-4|..|C-2 2A.F ....|--- .... ....|--- .... ....
....|..|R-- .... ....|C-4 2F3F ....|F-4 3F.F ....
....|..|--- .... ....|--- .... ....|--- .... ....
....|..|C-4 AF.F ....|A-4 2F1F ....|A#4 3F.A ....
 A-2|..|A-1 2A.F ....|--- .... ....|--- .... ....
....|..|R-- .... ....|C-4 2F3A ....|--- .... ....
....|..|--- .... ....|--- .... ....|--- .... ....
....|..|B-8 JF.F ....|A-4 2F1F ....|A-4 3F.A ....
 A-3|..|A-1 2A.F ....|--- .... ....|--- .... ....
....|..|R-- .... ....|D-4 2F17 ....|A-4 3F.7 ....
....|..|--- .... ....|--- .... ....|--- .... ....
....|..|C-4 CF.F ....|A-4 2F1F ....|C-5 3F.7 ....
 A-2|..|A-1 2A.F ....|--- .... ....|--- .... ....
....|..|R-- .... ....|C-4 2F37 ....|F-4 3F.A ....
....|..|--- .... ....|--- .... ....|--- .... ....
....|..|B-8 JF.F ....|A-4 2F1F ....|A#4 3F.7 ....
 A-3|..|A-1 2A.F ....|--- .... ....|--- .... ....
....|..|R-- .... ....|A-4 2F1F ....|G-4 3F.F ....
....|..|--- .... ....|--- .... ....|--- .... ....
....|..|C-4 AF.F ....|A#4 2F3F ....|A-4 3F.F ....
 A#2|..|A#1 2A.F ....|--- .... ....|--- .... ....
....|..|R-- .... ....|A#4 2F3F ....|--- .... ....
....|..|--- .... ....|--- .... ....|--- .... ....
....|..|B-8 JF.F ....|C-4 2F37 ....|C-5 3F.F ....
 A#3|..|A#1 2A.F ....|--- .... ....|--- .... ....
....|..|R-- .... ....|A#4 2F3F ....|F-4 3F.7 ....
....|..|--- .... ....|--- .... ....|--- .... ....
....|..|C-4 CF.F ....|A#4 2F3F ....|A-4 3F.F ....
 A#2|..|A#1 2A.F ....|--- .... ....|--- .... ....
....|..|C-4 AF.F ....|A-4 2F1A ....|G-4 3F.A ....
....|..|--- .... ....|--- .... ....|--- .... ....
....|..|C-4 CF.F ....|A#4 2F3F ....|G-4 3F.F ....
 A#3|..|A#1 2A.F ....|--- .... ....|--- .... ....
....|..|C-4 CF.F ....|A#4 2F3F ....|--- .... ....
....|..|--- .... ....|--- .... ....|--- .... ....

[Pattern36]
....|..|C-4 AF.F ....|D-4 2F1F ....|D-5 3F.F ....
 D-3|..|D-1 2A.F ....|--- .... ....|--- .... ....
....|..|R-- .... ....|A#4 2F3A ....|--- .... ....
....|..|--- .... ....|--- .... ....|--- .... ....
....|..|B-8 JF.F ....|D-4 2F1F ....|C-5 3F.F ....
 D-4|..|D-2 2A.F ....|--- .... ....|--- .... ....
....|..|C-4 AF.A ....|A-4 2F17 ....|G-4 3F.7 ....
....|..|--- .... ....|--- .... ....|--- .... ....
....|..|C-4 CF.F ....|D-4 2F1F ....|D-5 3F.F ....
 D-3|..|D-1 2A.F ....|--- .... ....|--- .... ....
....|..|C-4 CF.A ....|A#4 2F37 ....|R-- .... ....
....|..|--- .... ....|--- .... ....|--- .... ....
....|..|B-8 JF.F ....|D-4 2F1F ....|F-5 3F.F ....
 D-4|..|D-2 2A.F ....|--- .... ....|--- .... ....
....|..|R-- .... ....|D-4 2F1F ....|D-5 3F.F ....
....|..|--- .... ....|--- .... ....|--- .... ....
....|..|C-4 AF.F ....|C-4 2F2F ....|A-4 3F.7 ....
 F-3|..|F-1 2A.F ....|--- .... ....|--- .... ....
....|..|C-4 AF.7 ....|C-4 2F2F ....|R-- .... ....
....|..|--- .... ....|--- .... ....|--- .... ....
....|..|B-8 JF.F ....|A#4 2F37 ....|G-4 3F.7 ....
 F-4|..|F-2 2A.F ....|--- .... ....|--- .... ....
....|..|C-4 CF.7 ....|C-4 2F2F ....|R-- .... ....
....|..|--- .... ....|--- .... ....|--- .... ....
....|..|C-4 CF.F ....|C-4 2F2F ....|D-5 3F.7 ....
 F-3|..|F-1 2A.F ....|--- .... ....|--- .... ....
....|..|R-- .... ....|D-4 2F1A ....|D-5 3F.A ....
....|..|--- .... ....|--- .... ....|--- .... ....
....|..|B-8 JF.F ....|C-4 2F2F ....|C-5 3F.7 ....
 F-4|..|F-2 2A.F ....|--- .... ....|--- .... ....
....|..|R-- .... ....|C-4 2F2F ....|R-- .... ....
....|..|--- .... ....|--- .... ....|--- .... ....
....|..|C-4 AF.F ....|A#4 2F3F ....|F-5 3F.F ....
 A#2|..|A#1 2A.F ....|--- .... ....|--- .... ....
....|..|R-- .... ....|C-4 2F2A ....|R-- .... ....
....|..|--- .... ....|--- .... ....|--- .... ....
....|..|B-8 JF.F ....|A#4 2F3F ....|F-5 3F.F ....
 A#3|..|A#1 2A.F ....|--- .... ....|--- .... ....
....|..|R-- .... ....|D-4 2F17 ....|D-5 3F.7 ....
....|..|--- .... ....|--- .... ....|--- .... ....
....|..|C-4 CF.F ....|A#4 2F3F ....|G-5 3F.F ....
 A#2|..|A#1 2A.F ....|--- .... ....|--- .... ....
....|..|R-- .... ....|C-4 2F27 ....|R-- .... ....
....|..|--- .... ....|--- .... ....|--- .... ....
....|..|B-8 JF.F ....|A#4 2F3F ....|F-5 3F.F ....
 A#3|..|A#1 2A.F ....|--- .... ....|--- .... ....
....|..|R-- .... ....|A#4 2F3F ....|R-- .... ....
....|..|--- .... ....|--- .... ....|--- .... ....
....|..|C-4 AF.F ....|C-4 2F3F ....|E-5 3F.F ....
 C-3|..|C-1 2A.F ....|--- .... ....|--- .... ....
....|..|R-- .... ....|C-4 2F3F ....|R-- .... ....
....|..|--- .... ....|--- .... ....|--- .... ....
....|..|B-8 JF.F ....|C-4 2F27 ....|D-5 3F.F ....
 C-4|..|C-2 2A.F ....|--- .... ....|--- .... ....
....|..|R-- .... ....|C-4 2F3F ....|R-- .... ....
....|..|--- .... ....|--- .... ....|--- .... ....
....|..|C-4 CF.F ....|C-4 2F3F ....|A-4 3F.F ....
 C-3|..|C-1 2A.F ....|--- .... ....|--- .... ....
....|..|R-- .... ....|A#4 2F3A ....|R-- .... ....
....|..|--- .... ....|--- .... ....|--- .... ....
....|..|B-8 JF.F ....|C-4 2F3F ....|C-5 3F.F ....
 C-4|..|C-2 2A.F ....|--- .... ....|--- .... ....
....|..|R-- .... ....|C-4 2F3F ....|R-- .... ....
....|..|--- .... ....|--- .... ....|--- .... ....

[Pattern37]
....|..|C-4 AF.F ....|D-4 2F1F ....|D-5 3F.F ....
 D-3|..|D-1 2A.F ....|--- .... ....|--- .... ....
....|..|R-- .... ....|C-4 2F3A ....|R-- .... ....
....|..|--- .... ....|--- .... ....|--- .... ....
....|..|B-8 JF.F ....|D-4 2F1F ....|C-5 3F.F ....
 D-4|..|D-2 2A.F ....|--- .... ....|--- .... ....
....|..|R-- .... ....|A#4 2F37 ....|R-- .... ....
....|..|--- .... ....|--- .... ....|--- .... ....
....|..|C-4 CF.F ....|D-4 2F1F ....|D-5 3F.F ....
 D-3|..|D-1 2A.F ....|--- .... ....|--- .... ....
....|..|R-- .... ....|C-4 2F37 ....|R-- .... ....
....|..|--- .... ....|--- .... ....|--- .... ....
....|..|B-8 JF.F ....|D-4 2F1F ....|F-5 3F.F ....
 D-4|..|D-2 2A.F ....|--- .... ....|--- .... ....
....|..|R-- .... ....|D-4 2F1F ....|D-5 3F.F ....
....|..|--- .... ....|--- .... ....|--- .... ....
....|..|C-4 AF.F ....|C-4 2F3F ....|A-4 3F.7 ....
 C-3|..|C-1 2A.F ....|--- .... ....|--- .... ....
....|..|R-- .... ....|C-4 2F3F ....|R-- .... ....
....|..|--- .... ....|--- .... ....|--- .... ....
....|..|B-8 JF.F ....|C-4 2F37 ....|C-5 3F.7 ....
 C-4|..|C-2 2A.F ....|--- .... ....|--- .... ....
....|..|R-- .... ....|C-4 2F3F ....|R-- .... ....
....|..|--- .... ....|--- .... ....|--- .... ....
....|..|C-4 CF.F ....|C-4 2F3F ....|D-5 3F.7 ....
 C-3|..|C-1 2A.F ....|--- .... ....|--- .... ....
....|..|R-- .... ....|D-4 2F1A ....|D-5 3F.A ....
....|..|--- .... ....|--- .... ....|--- .... ....
....|..|B-8 JF.F ....|C-4 2F3F ....|C-5 3F.7 ....
 C-4|..|C-2 2A.F ....|--- .... ....|--- .... ....
....|..|R-- .... ....|C-4 2F3F ....|R-- .... ....
....|..|--- .... ....|--- .... ....|--- .... ....
....|..|C-4 AF.F ....|A-4 2F1F ....|C-5 3F.F ....
 A-2|..|A-1 2A.F ....|--- .... ....|--- .... ....
....|..|R-- .... ....|C-4 2F3A ....|R-- .... ....
....|..|--- .... ....|--- .... ....|--- .... ....
....|..|B-8 JF.F ....|A-4 2F1F ....|C-5 3F.F ....
 A-3|..|A-1 2A.F ....|--- .... ....|--- .... ....
....|..|R-- .... ....|D-4 2F17 ....|D-5 3F.7 ....
....|..|--- .... ....|--- .... ....|--- .... ....
....|..|C-4 CF.F ....|A-4 2F1F ....|D-5 3F.F ....
 A-2|..|A-1 2A.F ....|--- .... ....|--- .... ....
....|..|R-- .... ....|C-4 2F37 ....|R-- .... ....
....|..|--- .... ....|--- .... ....|--- .... ....
....|..|B-8 JF.F ....|A-4 2F1F ....|C-5 3F.F ....
 A-3|..|A-1 2A.F ....|--- .... ....|--- .... ....
....|..|R-- .... ....|A-4 2F1F ....|R-- .... ....
....|..|--- .... ....|--- .... ....|--- .... ....
....|..|C-4 AF.F ....|A#4 2F3F ....|A-4 3F.F ....
 A#2|..|A#1 2A.F ....|--- .... ....|--- .... ....
....|..|R-- .... ....|A#4 2F3F ....|R-- .... ....
....|..|--- .... ....|--- .... ....|--- .... ....
 C-3|..|B-8 JF.F ....|C-4 2C.F ....|D-5 3F.A ....
 A#3|..|A#1 2A.F ....|--- .F.. ....|--- .... ....
 C-3|..|R-- .... ....|C-4 2C.F ....|R-- .... ....
....|..|--- .... ....|--- .... ....|--- .... ....
....|..|C-4 CF.F ....|A#4 2F3F ....|C-5 3F.7 ....
 A#2|..|A#1 2A.F ....|--- .... ....|--- .... ....
 C-3|..|C-4 AF.F ....|C-3 2C.F ....|R-- .... ....
....|..|--- .... ....|--- .... ....|--- .... ....
 C-3|..|C-4 CF.F ....|C-3 2C.F ....|C-5 3F.7 ....
 A#3|..|A#1 2A.F ....|--- .F.. ....|--- .... ....
....|..|C-4 CF.F ....|A#4 2F3F ....|R-- .... ....
....|..|--- .... ....|--- .... ....|--- .... ....

[Pattern38]
....|..|C-4 AF.F ....|D-4 2F1F ....|D-5 3F.F ....
 D-3|..|D-1 2A.F ....|--- .... ....|--- .... ....
....|..|R-- .... ....|C-4 2F.A ....|R-- .... ....
....|..|--- .... ....|--- .... ....|--- .... ....
....|..|B-8 JF.F ....|D-4 2F1F ....|C-5 3F.F ....
 D-4|..|D-2 2A.F ....|--- .... ....|--- .... ....
....|..|C-4 AF.A ....|A-4 2F17 ....|R-- .... ....
....|..|--- .... ....|--- .... ....|--- .... ....
....|..|C-4 CF.F ....|D-4 2F1F ....|D-5 3F.F ....
 D-3|..|D-1 2A.F ....|--- .... ....|--- .... ....
....|..|C-4 CF.A ....|A#4 2F37 ....|R-- .... ....
....|..|--- .... ....|--- .... ....|--- .... ....
....|..|B-8 JF.F ....|D-4 2F1F ....|F-5 3F.F ....
 D-4|..|D-2 2A.F ....|--- .... ....|--- .... ....
....|..|R-- .... ....|D-4 2F1F ....|D-5 3F.F ....
....|..|--- .... ....|--- .... ....|--- .... ....
....|..|C-4 AF.F ....|C-4 2F2F ....|C-5 3F.A ....
 F-3|..|F-1 2A.F ....|--- .... ....|--- .... ....
....|..|C-4 AF.7 ....|C-4 2F2F ....|R-- .... ....
....|..|--- .... ....|--- .... ....|--- .... ....
....|..|B-8 JF.F ....|C-3 2F.7 ....|D-5 3F.A ....
 F-4|..|F-2 2A.F ....|--- .... ....|--- .... ....
....|..|C-4 CF.7 ....|C-4 2F2F ....|R-- .... ....
....|..|--- .... ....|--- .... ....|--- .... ....
....|..|C-4 CF.F ....|C-4 2F2F ....|D-5 3F.7 ....
 F-3|..|F-1 2A.F ....|--- .... ....|--- .... ....
....|..|R-- .... ....|D-4 2F1A ....|D-5 3F.A ....
....|..|--- .... ....|--- .... ....|--- .... ....
....|..|B-8 JF.F ....|C-4 2F2F ....|C-5 3F.7 ....
 F-4|..|F-2 2A.F ....|--- .... ....|--- .... ....
....|..|R-- .... ....|C-4 2F2F ....|R-- .... ....
....|..|--- .... ....|--- .... ....|--- .... ....
....|..|C-4 AF.F ....|A#4 2F3F ....|F-5 3F.F ....
 A#2|..|A#1 2A.F ....|--- .... ....|--- .... ....
....|..|R-- .... ....|C-4 2F2A ....|R-- .... ....
....|..|--- .... ....|--- .... ....|--- .... ....
....|..|B-8 JF.F ....|A#4 2F3F ....|F-5 3F.F ....
 A#3|..|A#1 2A.F ....|--- .... ....|--- .... ....
....|..|R-- .... ....|D-4 2F17 ....|D-5 3F.7 ....
....|..|--- .... ....|--- .... ....|--- .... ....
....|..|C-4 CF.F ....|A#4 2F3F ....|G-5 3F.F ....
 A#2|..|A#1 2A.F ....|--- .... ....|--- .... ....
....|..|R-- .... ....|C-4 2F27 ....|R-- .... ....
....|..|--- .... ....|--- .... ....|--- .... ....
....|..|B-8 JF.F ....|A#4 2F3F ....|F-5 3F.F ....
 A#3|..|A#1 2A.F ....|--- .... ....|--- .... ....
....|..|R-- .... ....|A#4 2F3F ....|R-- .... ....
....|..|--- .... ....|--- .... ....|--- .... ....
....|..|C-4 AF.F ....|C-4 2F3F ....|E-5 3F.F ....
 C-3|..|C-1 2A.F ....|--- .... ....|--- .... ....
....|..|R-- .... ....|C-4 2F3F ....|R-- .... ....
....|..|--- .... ....|--- .... ....|--- .... ....
....|..|B-8 JF.F ....|C-4 2F27 ....|D-5 3F.F ....
 C-4|..|C-2 2A.F ....|--- .... ....|--- .... ....
....|..|R-- .... ....|C-4 2F3F ....|R-- .... ....
....|..|--- .... ....|--- .... ....|--- .... ....
....|..|C-4 CF.F ....|C-4 2F3F ....|A-4 3F.F ....
 C-3|..|C-1 2A.F ....|--- .... ....|--- .... ....
....|..|R-- .... ....|A#4 2F3A ....|R-- .... ....
....|..|--- .... ....|--- .... ....|--- .... ....
....|..|B-8 JF.F ....|C-4 2F3F ....|C-5 3F.F ....
 C-4|..|C-2 2A.F ....|--- .... ....|--- .... ....
....|..|R-- .... ....|C-4 2F3F ....|R-- .... ....
....|..|--- .... ....|--- .... ....|--- .... ....

[Pattern39]
....|..|C-4 AF.F ....|D-4 2F1F ....|D-5 3F.F ....
 D-3|..|D-1 2A.F ....|--- .... ....|--- .... ....
....|..|R-- .... ....|C-4 2F3A ....|R-- .... ....
....|..|--- .... ....|--- .... ....|--- .... ....
....|..|B-8 JF.F ....|D-4 2F1F ....|C-5 3F.F ....
 D-4|..|D-2 2A.F ....|--- .... ....|--- .... ....
....|..|R-- .... ....|A#4 2F37 ....|R-- .... ....
....|..|--- .... ....|--- .... ....|--- .... ....
....|..|C-4 CF.F ....|D-4 2F1F ....|D-5 3F.F ....
 D-3|..|D-1 2A.F ....|--- .... ....|--- .... ....
....|..|R-- .... ....|C-4 2F37 ....|R-- .... ....
....|..|--- .... ....|--- .... ....|--- .... ....
....|..|B-8 JF.F ....|D-4 2F1F ....|F-5 3F.F ....
 D-4|..|D-2 2A.F ....|--- .... ....|--- .... ....
....|..|R-- .... ....|D-4 2F1F ....|D-5 3F.F ....
....|..|--- .... ....|--- .... ....|--- .... ....
....|..|C-4 AF.F ....|C-4 2F3F ....|A-4 3F.7 ....
 C-3|..|C-1 2A.F ....|--- .... ....|--- .... ....
....|..|R-- .... ....|C-4 2F3F ....|R-- .... ....
....|..|--- .... ....|--- .... ....|--- .... ....
....|..|B-8 JF.F ....|C-4 2F37 ....|C-5 3F.7 ....
 C-4|..|C-2 2A.F ....|--- .... ....|--- .... ....
....|..|R-- .... ....|C-4 2F3F ....|R-- .... ....
....|..|--- .... ....|--- .... ....|--- .... ....
....|..|C-4 CF.F ....|C-4 2F3F ....|D-5 3F.7 ....
 C-3|..|C-1 2A.F ....|--- .... ....|--- .... ....
....|..|R-- .... ....|D-4 2F1A ....|D-5 3F.A ....
....|..|--- .... ....|--- .... ....|--- .... ....
....|..|B-8 JF.F ....|C-4 2F3F ....|C-5 3F.7 ....
 C-4|..|C-2 2A.F ....|--- .... ....|--- .... ....
....|..|R-- .... ....|C-4 2F3F ....|R-- .... ....
....|..|--- .... ....|--- .... ....|--- .... ....
....|..|C-4 AF.F ....|A-4 2F1F ....|C-5 3F.F ....
 A-2|..|A-1 2A.F ....|--- .... ....|--- .... ....
....|..|R-- .... ....|C-4 2F3A ....|R-- .... ....
....|..|--- .... ....|--- .... ....|--- .... ....
....|..|B-8 JF.F ....|A-4 2F1F ....|C-5 3F.F ....
 A-3|..|A-1 2A.F ....|--- .... ....|--- .... ....
....|..|R-- .... ....|D-4 2F17 ....|D-5 3F.7 ....
....|..|--- .... ....|--- .... ....|--- .... ....
....|..|C-4 CF.F ....|A-4 2F1F ....|D-5 3F.F ....
 A-2|..|A-1 2A.F ....|--- .... ....|--- .... ....
....|..|R-- .... ....|C-4 2F37 ....|R-- .... ....
....|..|--- .... ....|--- .... ....|--- .... ....
....|..|B-8 JF.F ....|A-4 2F1F ....|C-5 3F.F ....
 A-3|..|A-1 2A.F ....|--- .... ....|--- .... ....
....|..|R-- .... ....|A-4 2F1F ....|R-- .... ....
....|..|--- .... ....|--- .... ....|--- .... ....
....|..|C-4 AF.F ....|A#4 2F3F ....|G-5 3F.F ....
 A#2|..|A#1 2A.F ....|--- .... ....|--- .... ....
....|..|R-- .... ....|A#4 2F3F ....|R-- .... ....
....|..|--- .... ....|--- .... ....|--- .... ....
....|..|B-8 JF.F ....|C-4 2F37 ....|F-5 3F.F ....
 A#3|..|A#1 2A.F ....|--- .... ....|--- .... ....
....|..|R-- .... ....|A#4 2F3F ....|R-- .... ....
....|..|--- .... ....|--- .... ....|--- .... ....
....|..|C-4 CF.F ....|A#4 2F3F ....|E-5 3F.F ....
 A#2|..|A#1 2A.F ....|--- .... ....|--- .... ....
....|..|C-4 AF.F ....|A-4 2F1A ....|R-- .... ....
....|..|--- .... ....|--- .... ....|--- .... ....
....|..|C-4 CF.F ....|A#4 2F3F ....|F-5 3F.F ....
 A#3|..|A#1 2A.F ....|--- .... ....|--- .... ....
....|..|C-4 CF.F ....|A#4 2F3F ....|R-- .... ....
....|..|--- .... ....|--- .... ....|--- .... ....

[Pattern40]
....|..|C-4 AF.F ....|D-4 2F1F ....|D-5 3F.7 ....
 D-3|..|D-1 2A.F ....|--- .... ....|--- .... ....
....|..|C-4 BF.F ....|A#4 2F3A ....|R-- .... ....
....|..|--- .... ....|--- .... ....|--- .... ....
....|..|C-4 BF.F ....|D-4 2F1F ....|C-5 3F.7 ....
 D-4|..|D-2 2A.F ....|--- .... ....|--- .... ....
....|..|C-4 BF.F ....|A-4 2F17 ....|R-- .... ....
....|..|--- .... ....|--- .... ....|--- .... ....
....|..|C-4 CF.F ....|D-4 2F1F ....|G-5 3F.7 ....
 D-3|..|D-1 2A.F ....|--- .... ....|--- .... ....
....|..|C-4 BF.F ....|A#4 2F37 ....|R-- .... ....
....|..|--- .... ....|--- .... ....|--- .... ....
....|..|C-4 BF.F ....|D-4 2F1F ....|F-5 3F.7 ....
 D-4|..|D-2 2A.F ....|--- .... ....|--- .... ....
....|..|C-4 BF.A ....|D-4 2F1F ....|R-- .... ....
....|..|--- .... ....|--- .... ....|--- .... ....
....|..|C-4 AF.F ....|C-4 2F2F ....|E-5 3F.7 ....
 F-3|..|F-1 2A.F ....|--- .... ....|--- .... ....
....|..|C-4 AF.7 ....|C-4 2F2F ....|R-- .... ....
....|..|--- .... ....|--- .... ....|--- .... ....
....|..|B-8 JF.F ....|A#4 2F37 ....|F-5 3F.7 ....
 F-4|..|F-2 2A.F ....|--- .... ....|--- .... ....
....|..|C-4 CF.7 ....|C-4 2F2F ....|R-- .... ....
....|..|--- .... ....|--- .... ....|--- .... ....
....|..|C-4 CF.F ....|C-4 2F2F ....|--- .... ....
 F-3|..|F-1 2A.F ....|--- .... ....|--- .... ....
....|..|C-4 BF.7 ....|D-4 2F1A ....|--- .... ....
....|..|--- .... ....|--- .... ....|--- .... ....
....|..|B-8 JF.F ....|C-4 2F2F ....|--- .... ....
 F-4|..|F-2 2A.F ....|--- .... ....|--- .... ....
....|..|C-4 BF.7 ....|C-4 2F2F ....|--- .... ....
....|..|--- .... ....|--- .... ....|--- .... ....
....|..|C-4 AF.F ....|A#4 2F3F ....|--- .... ....
 A#2|..|A#1 2A.F ....|--- .... ....|--- .... ....
....|..|C-4 BF.7 ....|C-4 2F2A ....|--- .... ....
....|..|--- .... ....|--- .... ....|--- .... ....
....|..|C-4 BF.F ....|A#4 2F3F ....|--- .... ....
 A#3|..|A#1 2A.F ....|--- .... ....|--- .... ....
....|..|R-- .... ....|D-4 2F17 ....|--- .... ....
....|..|--- .... ....|--- .... ....|--- .... ....
....|..|C-4 CF.F ....|A#4 2F3F ....|--- .... ....
 A#2|..|A#1 2A.F ....|--- .... ....|--- .... ....
....|..|C-4 BF.F ....|C-4 2F27 ....|--- .... ....
....|..|--- .... ....|--- .... ....|--- .... ....
....|..|B-8 JF.F ....|A#4 2F3F ....|--- .... ....
 A#3|..|A#1 2A.F ....|--- .... ....|--- .... ....
....|..|R-- .... ....|A#4 2F3F ....|--- .... ....
....|..|--- .... ....|--- .... ....|--- .... ....
....|..|C-4 AF.F ....|C-4 2F3F ....|--- .... ....
 C-3|..|C-1 2A.F ....|--- .... ....|--- .... ....
....|..|R-- .... ....|C-4 2F3F ....|--- .... ....
....|..|--- .... ....|--- .... ....|--- .... ....
....|..|B-8 JF.F ....|C-4 2F27 ....|--- .... ....
 C-4|..|C-2 2A.F ....|--- .... ....|--- .... ....
....|..|C-4 BF.A ....|C-4 2F3F ....|--- .... ....
....|..|--- .... ....|--- .... ....|--- .... ....
....|..|C-4 CF.F ....|C-4 2F3F ....|--- .... ....
 C-3|..|C-1 2A.F ....|--- .... ....|--- .... ....
....|..|R-- .... ....|A#4 2F3A ....|--- .... ....
....|..|--- .... ....|--- .... ....|--- .... ....
....|..|B-8 JF.F ....|C-4 2F3F ....|--- .... ....
 C-4|..|C-2 2A.F ....|--- .... ....|--- .... ....
....|..|R-- .... ....|C-4 2F3F ....|--- .... ....
....|..|--- .... ....|--- .... ....|--- .... ....

[Pattern41]
....|..|C-4 AF.F ....|D-4 2F1F ....|--- .... ....
 D-3|..|D-1 2A.F ....|--- .... ....|--- .... ....
....|..|C-4 BF.F ....|C-4 2F3A ....|--- .... ....
....|..|--- .... ....|--- .... ....|--- .... ....
....|..|C-4 BF.F ....|D-4 2F1F ....|--- .... ....
 D-4|..|D-2 2A.F ....|--- .... ....|--- .... ....
....|..|C-4 BF.F ....|A#4 2F37 ....|--- .... ....
....|..|--- .... ....|--- .... ....|--- .... ....
....|..|C-4 CF.F ....|D-4 2F1F ....|--- .... ....
 D-3|..|D-1 2A.F ....|--- .... ....|--- .... ....
....|..|C-4 BF.F ....|C-4 2F37 ....|--- .... ....
....|..|--- .... ....|--- .... ....|--- .... ....
....|..|C-4 BF.F ....|D-4 2F1F ....|--- .... ....
 D-4|..|D-2 2A.F ....|--- .... ....|--- .... ....
....|..|C-4 BF.A ....|D-4 2F1F ....|--- .... ....
....|..|--- .... ....|--- .... ....|--- .... ....
....|..|C-4 AF.F ....|C-4 2F3F ....|--- .... ....
 C-3|..|C-1 2A.F ....|--- .... ....|--- .... ....
....|..|C-4 BF.A ....|C-4 2F3F ....|--- .... ....
....|..|--- .... ....|--- .... ....|--- .... ....
....|..|B-8 JF.F ....|C-4 2F37 ....|--- .... ....
 C-4|..|C-2 2A.F ....|--- .... ....|--- .... ....
....|..|C-4 BF.A ....|C-4 2F3F ....|--- .... ....
....|..|--- .... ....|--- .... ....|--- .... ....
....|..|C-4 CF.F ....|C-4 2F3F ....|--- .... ....
 C-3|..|C-1 2A.F ....|--- .... ....|--- .... ....
....|..|C-4 BF.7 ....|D-4 2F1A ....|--- .... ....
....|..|--- .... ....|--- .... ....|--- .... ....
....|..|B-8 JF.F ....|C-4 2F3F ....|--- .... ....
 C-4|..|C-2 2A.F ....|--- .... ....|--- .... ....
....|..|C-4 BF.7 ....|C-4 2F3F ....|--- .... ....
....|..|--- .... ....|--- .... ....|--- .... ....
....|..|C-4 AF.F ....|A-4 2F1F ....|--- .... ....
 A-2|..|A-1 2A.F ....|--- .... ....|--- .... ....
....|..|C-4 BF.F ....|C-4 2F3A ....|--- .... ....
....|..|--- .... ....|--- .... ....|--- .... ....
....|..|B-8 JF.F ....|A-4 2F1F ....|--- .... ....
 A-3|..|A-1 2A.F ....|--- .... ....|--- .... ....
....|..|C-4 BF.F ....|D-4 2F17 ....|--- .... ....
....|..|--- .... ....|--- .... ....|--- .... ....
....|..|C-4 CF.F ....|A-4 2F1F ....|--- .... ....
 A-2|..|A-1 2A.F ....|--- .... ....|--- .... ....
....|..|R-- .... ....|C-4 2F37 ....|--- .... ....
....|..|--- .... ....|--- .... ....|--- .... ....
....|..|C-4 BF.F ....|A-4 2F1F ....|--- .... ....
 A-3|..|A-1 2A.F ....|--- .... ....|--- .... ....
....|..|C-4 BF.F ....|A-4 2F1F ....|--- .... ....
....|..|--- .... ....|--- .... ....|--- .... ....
 C-3|..|C-4 AF.F ....|C-4 2C.F ....|--- .... ....
 A#2|..|A#1 2A.F ....|--- .F.. ....|--- .... ....
 C-3|..|C-4 BF.A ....|C-4 2C.F ....|--- .... ....
....|..|--- .... ....|--- .... ....|--- .... ....
 C-3|..|B-8 JF.F ....|C-4 2C.F ....|--- .... ....
 A#3|..|A#1 2A.F ....|--- .F.. ....|--- .... ....
 C-3|..|R-- .... ....|C-4 2C.F ....|--- .... ....
....|..|--- .... ....|--- .... ....|--- .... ....
 C-3|..|C-4 CF.F ....|C-3 2C.F ....|--- .... ....
 A#2|..|A#1 2A.F ....|--- .F.. ....|--- .... ....
 C-3|..|C-4 AF.F ....|C-3 2C.F ....|--- .... ....
....|..|--- .... ....|--- .... ....|--- .... ....
 C-3|..|C-4 CF.F ....|C-3 2C.F ....|--- .... ....
 A#3|..|A#1 2A.F ....|--- .F.. ....|--- .... ....
 C-3|..|C-4 CF.F ....|C-3 2C.F ....|--- .... ....
....|..|--- .... ....|--- .... ....|--- .... ....

[Pattern42]
....|..|C-4 AF.F ....|D-4 2F1F ....|--- .... ....
 D-3|..|D-1 2A.F ....|--- .... ....|--- .... ....
....|..|C-4 BF.F ....|C-4 2F.A ....|--- .... ....
....|..|--- .... ....|--- .... ....|--- .... ....
....|..|C-4 BF.F ....|D-4 2F1F ....|--- .... ....
 D-4|..|D-2 2A.F ....|--- .... ....|--- .... ....
....|..|C-4 BF.F ....|A-4 2F17 ....|--- .... ....
....|..|--- .... ....|--- .... ....|--- .... ....
....|..|C-4 CF.F ....|D-4 2F1F ....|--- .... ....
 D-3|..|D-1 2A.F ....|--- .... ....|--- .... ....
....|..|C-4 BF.F ....|C-4 2F.7 ....|--- .... ....
....|..|--- .... ....|--- .... ....|--- .... ....
....|..|C-4 BF.F ....|D-4 2F1F ....|--- .... ....
 D-4|..|D-2 2A.F ....|--- .... ....|--- .... ....
....|..|C-4 BF.A ....|D-4 2F1F ....|--- .... ....
....|..|--- .... ....|--- .... ....|--- .... ....
....|..|C-4 AF.F ....|C-4 2F2F ....|--- .... ....
 F-3|..|F-1 2A.F ....|--- .... ....|--- .... ....
....|..|C-4 AF.7 ....|C-4 2F2F ....|--- .... ....
....|..|--- .... ....|--- .... ....|--- .... ....
....|..|B-8 JF.F ....|C-3 2F.7 ....|--- .... ....
 F-4|..|F-2 2A.F ....|--- .... ....|--- .... ....
....|..|C-4 CF.7 ....|C-4 2F2F ....|--- .... ....
....|..|--- .... ....|--- .... ....|--- .... ....
....|..|C-4 CF.F ....|C-4 2F2F ....|--- .... ....
 F-3|..|F-1 2A.F ....|--- .... ....|--- .... ....
....|..|C-4 BF.7 ....|D-4 2F1A ....|--- .... ....
....|..|--- .... ....|--- .... ....|--- .... ....
....|..|B-8 JF.F ....|C-4 2F2F ....|--- .... ....
 F-4|..|F-2 2A.F ....|--- .... ....|--- .... ....
....|..|C-4 BF.7 ....|C-4 2F2F ....|--- .... ....
....|..|--- .... ....|--- .... ....|--- .... ....
....|..|C-4 AF.F ....|A#4 2F3F ....|--- .... ....
 A#2|..|A#1 2A.F ....|--- .... ....|--- .... ....
....|..|C-4 BF.7 ....|C-4 2F2A ....|--- .... ....
....|..|--- .... ....|--- .... ....|--- .... ....
....|..|C-4 BF.F ....|A#4 2F3F ....|--- .... ....
 A#3|..|A#1 2A.F ....|--- .... ....|--- .... ....
....|..|R-- .... ....|D-4 2F17 ....|--- .... ....
....|..|--- .... ....|--- .... ....|--- .... ....
....|..|C-4 CF.F ....|A#4 2F3F ....|--- .... ....
 A#2|..|A#1 2A.F ....|--- .... ....|--- .... ....
....|..|C-4 BF.F ....|C-4 2F27 ....|--- .... ....
....|..|--- .... ....|--- .... ....|--- .... ....
....|..|B-8 JF.F ....|A#4 2F3F ....|--- .... ....
 A#3|..|A#1 2A.F ....|--- .... ....|--- .... ....
....|..|R-- .... ....|A#4 2F3F ....|--- .... ....
....|..|--- .... ....|--- .... ....|--- .... ....
....|..|C-4 AF.F ....|C-4 2F3F ....|--- .... ....
 C-3|..|C-1 2A.F ....|--- .... ....|--- .... ....
....|..|R-- .... ....|C-4 2F3F ....|--- .... ....
....|..|--- .... ....|--- .... ....|--- .... ....
....|..|B-8 JF.F ....|C-4 2F27 ....|--- .... ....
 C-4|..|C-2 2A.F ....|--- .... ....|--- .... ....
....|..|C-4 BF.A ....|C-4 2F3F ....|--- .... ....
....|..|--- .... ....|--- .... ....|--- .... ....
....|..|C-4 CF.F ....|C-4 2F3F ....|--- .... ....
 C-3|..|C-1 2A.F ....|--- .... ....|--- .... ....
....|..|R-- .... ....|A#4 2F3A ....|--- .... ....
....|..|--- .... ....|--- .... ....|--- .... ....
....|..|B-8 JF.F ....|C-4 2F3F ....|--- .... ....
 C-4|..|C-2 2A.F ....|--- .... ....|--- .... ....
....|..|R-- .... ....|C-4 2F3F ....|--- .... ....
....|..|--- .... ....|--- .... ....|--- .... ....

[Pattern44]
 C-3|..|C-4 AF.F ....|C-3 2C.F ....|--- .... ....
 D-3|..|D-1 2A.F ....|--- .F.. ....|--- .... ....
 C-3|..|R-- .... ....|C-3 2C.F ....|--- .... ....
....|..|--- .... ....|--- .... ....|--- .... ....
 D-4|..|D-2 2A.F ....|D-4 2F1F ....|--- .... ....
....|..|A-1 2F.7 ....|--- .... ....|--- .... ....
 C-3|..|C-4 BF.7 ....|C-3 2C.F ....|--- .... ....
....|..|--- .... ....|--- .... ....|--- .... ....
 C-4|..|D-1 2F.F ....|C-2 2A.F ....|--- .... ....
....|..|A#1 2F.7 ....|--- .... ....|--- .... ....
 C-4|..|C-4 CF.A ....|C-2 2A.F ....|--- .... ....
....|..|--- .... ....|--- .... ....|--- .... ....
 D-4|..|D-2 2A.F ....|D-4 2F1F ....|--- .... ....
....|..|A#1 2F.7 ....|--- .... ....|--- .... ....
 C-4|..|R-- .... ....|C-2 2A.F ....|--- .... ....
....|..|--- .... ....|--- .... ....|--- .... ....
 D-3|..|D-1 2A.F ....|C-1 2F.F ....|--- .... ....
....|..|A#1 2F.7 ....|--- .... ....|--- .... ....
....|..|C-4 AF.7 ....|C-3 2F.7 ....|--- .... ....
....|..|--- .... ....|--- .... ....|--- .... ....
....|..|C-4 CF.7 ....|C-3 2F.7 ....|--- .... ....
....|..|A#1 2F.7 ....|--- .... ....|--- .... ....
....|..|C-4 CF.7 ....|C-3 2F.7 ....|--- .... ....
....|..|--- .... ....|--- .... ....|--- .... ....
....|..|C-4 AF.7 ....|C-3 2F.7 ....|--- .... ....
....|..|D-1 2F.7 ....|--- .... ....|--- .... ....
....|..|R-- .... ....|C-3 2F.7 ....|--- .... ....
....|..|--- .... ....|--- .... ....|--- .... ....
....|..|D-2 2F.7 ....|D-4 2F17 ....|--- .... ....
....|..|--- .... ....|--- .... ....|--- .... ....
....|..|--- .... ....|C-3 2F.7 ....|--- .... ....
....|..|--- .... ....|--- .... ....|--- .... ....
....|..|D-1 2F.7 ....|C-2 2F.7 ....|--- .... ....
....|..|--- .... ....|--- .... ....|--- .... ....
....|..|--- .... ....|C-2 2F.7 ....|--- .... ....
....|..|--- .... ....|--- .... ....|--- .... ....
....|..|D-2 2F.7 ....|D-4 2F17 ....|--- .... ....
....|..|--- .... ....|--- .... ....|--- .... ....
....|..|--- .... ....|C-2 2F.7 ....|--- .... ....
....|..|--- .... ....|--- .... ....|--- .... ....
....|..|D-1 2F.7 ....|C-1 2F.7 ....|--- .... ....
....|..|--- .... ....|--- .... ....|--- .... ....
....|..|--- .... ....|R-- .... ....|--- .... ....
....|..|--- .... ....|--- .... ....|--- .... ....
....|..|R-- .... ....|--- .... ....|--- .... ....
....|..|--- .... ....|--- .... ....|--- .... ....
....|..|--- .... ....|--- .... ....|--- .... ....
....|..|--- .... ....|--- .... ....|--- .... ....
....|..|--- .... ....|--- .... ....|--- .... ....
....|..|--- .... ....|--- .... ....|--- .... ....
....|..|--- .... ....|--- .... ....|--- .... ....
....|..|--- .... ....|--- .... ....|--- .... ....
....|..|--- .... ....|--- .... ....|--- .... ....
....|..|--- .... ....|--- .... ....|--- .... ....
....|..|--- .... ....|--- .... ....|--- .... ....
....|..|--- .... ....|--- .... ....|--- .... ....
