[Module]
VortexTrackerII=0
Version=3.5
Title= fioletto (flying 3000)
Author= .jahh//gbg::lomastamix->siril.
NoteTable=2
Speed=3
PlayOrder=5,5,0,4,3,4,9,2,10,11,13,17,17,19,19,19,19,12,12,12,18,18,19,19,19,19,18,12,18,20,21,18,19,22,22,24,25,20,20,21,22,19,26,24,24,25,25,L28

[Ornament1]
L3,7,0

[Ornament2]
L12,3,7,0

[Ornament3]
L12,4,7,0

[Ornament4]
L4,7,0

[Ornament6]
L36,0

[Ornament14]
12,L0

[Ornament15]
1,0,2,L0

[Sample1]
TnE +002^ +00_ F_ L
TnE +000_ +00_ F_
TnE -002^ +00_ F_
TnE +000_ +00_ F_

[Sample2]
TnE +000_ +00_ F_ L

[Sample3]
TnE +000_ +00_ F_ L

[Sample4]
Tne +0A0^ +00_ F_
Tne +200^ +00_ F_
Tne +300^ +00_ C_
tnE +000_ +00_ 0_ L

[Sample6]
TnE +000_ +00_ C_ L

[Sample8]
TNe -06F^ -0C^ E_
TNe +01A^ -08^ E_
TNe +01C^ +00_ E_
tNe +06E^ +00_ C_
TNe -01D^ +00_ A_
tNe +035^ +00_ A_
TNe -005^ +00_ A_
tNe +076^ +00_ A_
TNe -015^ +00_ 8_
tNe +03E^ +00_ 6_
TNe +004^ +00_ 6_
tNe +07F^ +00_ 6_
TNe -00A^ +00_ 6_
tNe +049^ +00_ 6_
TNe +00F^ +00_ 6_
tNe +08B^ +00_ 6_
TNe +003^ +00_ 6_
tNe +056^ +00_ 6_
TNe +01F^ +00_ 6_
tNe +09A^ +00_ 6_
TNe +013^ +00_ 6_
tNe +068^ +00_ 6_
TNe +030^ +00_ 6_
tNe +0AE^ +00_ 4_
tne +000_ +00_ 0_ L

[Sample21]
TnE +000_ +00_ 3_ L

[Sample22]
TnE +000_ +00_ 8_ L

[Sample23]
tnE +000_ +00_ 0_ L

[Sample24]
TnE +000_ +00_ 5_ L

[Sample28]
TNe +000_ +00_ D_ L

[Sample31]
tNe +000_ +00_ D_
tnE +000_ +00_ F_ L

[Pattern0]
..1F|..|A-3 4A.F ....|A-5 6FEC ....|A-4 3F11 ....
..1F|..|A-1 1A.. ....|--- .... ....|--- .... ....
....|..|--- .... ....|--- .... ....|--- .... ....
..1F|..|A-1 3A.. ....|--- ...A ....|--- ...2 ....
....|..|--- .... ....|--- .... ....|--- .... ....
..3E|..|A-3 NA.. ....|C-6 ...C 312.|--- ...3 ....
....|..|--- .... ....|--- .... ....|--- .... ....
....|..|--- .... 6.1.|--- .... ....|--- .... ....
..1F|..|A-3 4C.. ....|A-5 ...A 312.|--- ...4 ....
..1F|..|A-1 1A.. ....|--- .... ....|--- .... ....
..1F|..|A-4 38.. ....|D-6 ...C 312.|--- ...5 ....
....|..|--- .... ....|--- .... ....|--- .... ....
....|..|--- .... 11.1|--- .... ....|--- .... ....
..3E|..|A-3 48.. ....|C-6 ...8 312.|--- ...6 ....
....|..|--- .... ....|--- .... ....|--- .... ....
....|..|D-3 8F.. ....|E-6 ...C 312.|--- ...7 ....
....|..|--- .... ....|--- .... ....|--- .... ....
....|..|--- .... ....|--- .... 11.2|--- .... ....
..1F|..|A-5 3C.. ....|--- .... ....|--- ...8 ....
....|..|R-- .... ....|--- .... 21.2|--- .... ....
..1F|..|A-3 4A.. ....|A-5 .F.. ....|--- .... ....
..1F|..|A-1 1A.. ....|--- .... ....|--- .... ....
....|..|--- .... ....|--- .... ....|--- .... ....
..1F|..|A-1 3A.. ....|--- ...A ....|--- ...4 ....
....|..|--- .... ....|--- .... ....|--- .... ....
..3E|..|A-3 NA.. ....|C-6 ...C 312.|--- ...8 ....
....|..|--- .... ....|--- .... ....|--- .... ....
....|..|--- .... 6.1.|--- .... ....|--- .... ....
..1F|..|A-3 4C.. ....|A-5 ...A 312.|--- .... ....
..1F|..|A-1 1A.. ....|--- .... ....|--- .... ....
..1F|..|A-6 38.. ....|D-6 ...C 312.|--- ...4 ....
....|..|--- .... ....|--- .... ....|--- .... ....
....|..|--- .... ....|--- .... ....|--- .... ....
..1F|..|A-3 4C.. ....|C-6 ...8 312.|--- ...8 ....
..1F|..|A-1 1A.. ....|--- .... ....|--- .... ....
....|..|D-3 8F.. ....|A-6 ...C 312.|--- .... ....
....|..|--- .... ....|--- .... 11.2|--- .... ....
....|..|--- .... ....|--- .... ....|--- .... ....
..3E|..|A-5 3C.. ....|--- .... 21.1|--- ...4 ....
....|..|--- .... ....|--- .... ....|--- .... ....

[Pattern2]
..1F|..|A-3 4A.F ....|A-5 6FEC ....|A-4 3F18 ....
..1F|..|A-1 1A.. ....|--- .... ....|--- .... ....
....|..|--- .... ....|--- .... ....|--- .... ....
..1F|..|A-1 3A.. ....|--- ...A ....|--- .... ....
....|..|--- .... ....|--- .... ....|--- .... ....
..3E|..|A-3 NA.. ....|C-6 ...C 312.|--- ...4 ....
....|..|--- .... ....|--- .... ....|--- .... ....
....|..|--- .... 6.1.|--- .... ....|--- .... ....
..1F|..|A-3 4C.. ....|A-5 ...A 312.|--- ...8 ....
..1F|..|A-1 1A.. ....|--- .... ....|--- .... ....
..1F|..|A-4 38.. ....|A-5 ...C ....|--- .... ....
....|..|--- .... ....|--- .... ....|--- .... ....
....|..|--- .... 11.1|--- .... ....|--- .... ....
..3E|..|A-3 48.. ....|--- ...A ....|--- ...4 ....
....|..|--- .... ....|--- .... ....|--- .... ....
....|..|D-3 8F.. ....|C-6 ...C 312.|--- ...8 ....
....|..|--- .... ....|--- .... ....|--- .... ....
....|..|--- .... ....|--- .... ....|--- .... ....
..1F|..|A-5 3C.. ....|A-5 ...A 312.|--- ...4 ....
....|..|R-- .... ....|--- .... ....|--- .... ....
..1F|..|A-3 4A.. ....|D-6 ...C 312.|--- ...8 ....
..1F|..|A-1 1A.. ....|--- .... ....|--- .... ....
....|..|--- .... ....|--- .... ....|--- .... ....
..1F|..|A-1 3A.. ....|C-6 ...8 312.|--- .... ....
....|..|--- .... ....|--- .... ....|--- .... ....
..3E|..|A-3 NA.. ....|E-6 ...C 312.|--- ...4 ....
....|..|--- .... ....|--- .... ....|--- .... ....
....|..|--- .... 6.1.|--- .... ....|--- .... ....
..1F|..|A-3 4C.. ....|G-6 .... 312.|--- ...8 ....
..1F|..|A-1 1A.. ....|--- .... ....|--- .... ....
..1F|..|A-6 38.. ....|A-5 .... ....|--- .... ....
....|..|--- .... ....|--- .... ....|--- .... ....
....|..|--- .... ....|--- .... ....|--- .... ....
..1F|..|A-3 4C.. ....|--- ...A ....|--- ...4 ....
..1F|..|A-1 1A.. ....|--- .... ....|--- .... ....
....|..|D-3 8F.. ....|C-6 ...C 312.|--- ...8 ....
....|..|--- .... ....|--- .... ....|--- .... ....
....|..|--- .... ....|--- .... ....|--- .... ....
..3E|..|A-5 3C.. ....|A-5 ...A 312.|--- ...4 ....
....|..|--- .... ....|--- .... ....|--- .... ....

[Pattern3]
..1F|..|A-3 4A.F ....|G-5 6F.C ....|A-4 3F18 ....
..1F|..|A-1 1A.. ....|--- .... ....|--- .... ....
....|..|--- .... ....|--- .... ....|--- .... ....
..1F|..|A-1 3A.. ....|D-5 ...A 312.|--- .... ....
....|..|--- .... ....|--- .... ....|--- .... ....
..3E|..|A-3 NA.. ....|E-5 ...6 312.|--- ...3 ....
....|..|--- .... ....|--- .... ....|--- .... ....
....|..|--- .... 6.1.|--- .... ....|--- .... ....
....|..|--- .... ....|G-5 ...8 312.|--- ...6 ....
....|..|--- .... ....|--- .... ....|--- .... ....
..1F|..|A-5 .C.. ....|E-5 ...4 312.|--- .... ....
....|..|--- .... ....|--- .... ....|--- .... ....
....|..|--- .... 11.1|--- .... ....|--- .... ....
..3E|..|A-3 48.. ....|E-5 ...C 312.|--- ...2 ....
....|..|--- .... ....|--- .... ....|--- .... ....
....|..|D-3 8F.. ....|D-5 .... 312.|--- ...5 ....
....|..|--- .... ....|--- .... ....|--- .... ....
....|..|--- .... ....|E-5 ...8 312.|--- .... ....
..1F|..|A-5 3C.. ....|C-5 ...C 312.|--- ...1 ....
....|..|R-- .... ....|--- .... ....|--- .... ....
..1F|..|A-3 4A.. ....|D-5 .... 312.|--- ...4 ....
..1F|..|A-1 1A.. ....|--- .... ....|--- .... ....
....|..|--- .... ....|--- .... ....|--- .... ....
..1F|..|A-1 3A.. ....|E-5 ...8 312.|--- .... ....
....|..|--- .... ....|--- .... ....|--- .... ....
..3E|..|A-3 NA.. ....|C-5 ...C 312.|--- ...1 ....
....|..|--- .... ....|--- .... ....|--- .... ....
....|..|--- .... 6.1.|--- .... ....|--- .... ....
..1F|..|A-3 4C.. ....|G-5 .... 312.|--- ...2 ....
..1F|..|A-1 1A.. ....|--- .... ....|--- .... ....
..1F|..|A-6 38.. ....|E-5 ...6 312.|E-5 MF.3 ....
....|..|--- .... ....|--- .... ....|--- .... ....
....|..|--- .... ....|--- .... ....|--- .... ....
....|..|--- .... ....|C-5 ...A 312.|--- ...5 ....
....|..|--- .... ....|--- .... ....|--- .... ....
....|..|--- .... ....|G-5 .... 312.|--- ...7 ....
....|..|--- .... ....|--- .... ....|--- .... ....
....|..|--- .... ....|--- .... ....|--- .... ....
..3E|..|A-5 .C.. ....|D-5 ...8 312.|--- ...B ....
....|..|--- .... ....|--- .... ....|--- .... ....

[Pattern4]
..1F|..|A-3 4A.F ....|A-5 6FEC ....|E-6 ...8 ....
..1F|..|A-1 1A.. ....|--- .... ....|--- .... ....
....|..|--- .... ....|--- .... ....|--- .... ....
..1F|..|A-1 3A.. ....|--- ...A ....|--- .... ....
....|..|--- .... ....|--- .... ....|A-5 MF.C ....
..3E|..|A-3 NA.. ....|C-6 ...C 312.|--- .... ....
....|..|--- .... ....|--- .... ....|--- .... ....
....|..|--- .... 6.1.|--- .... ....|--- ...A ....
..1F|..|A-3 4C.. ....|A-5 ...A 312.|--- .... ....
..1F|..|A-1 1A.. ....|--- .... ....|C-6 ...C ....
....|..|--- .... ....|A-5 ...C ....|--- .... ....
....|..|--- .... ....|--- .... ....|--- .... ....
....|..|--- .... 11.1|--- .... ....|A-5 ...A ....
..3E|..|A-3 48.. ....|--- ...A ....|--- .... ....
....|..|--- .... ....|--- .... ....|D-6 ...C ....
....|..|D-3 8F.. ....|C-6 ...C 312.|--- .... ....
....|..|--- .... ....|--- .... ....|--- .... ....
....|..|--- .... ....|--- .... ....|C-6 ...8 ....
..1F|..|A-5 3C.. ....|A-5 ...A 312.|--- .... ....
....|..|R-- .... ....|--- .... ....|E-6 ...C ....
..1F|..|A-3 4A.. ....|D-6 ...C 312.|--- .... ....
..1F|..|A-1 1A.. ....|--- .... ....|--- .... ....
....|..|--- .... ....|--- .... ....|G-6 .... ....
..1F|..|A-1 3A.. ....|C-6 ...8 312.|--- .... ....
....|..|--- .... ....|--- .... ....|C-6 ...8 ....
..3E|..|A-3 NA.. ....|E-6 ...C 312.|--- .... ....
....|..|--- .... ....|--- .... ....|--- .... ....
....|..|--- .... 6.1.|--- .... ....|G-6 .... ....
..1F|..|A-3 4C.. ....|G-6 .... 312.|--- .... ....
..1F|..|A-1 1A.. ....|--- .... ....|E-6 ...C ....
..1F|..|A-6 38.. ....|A-5 .... ....|--- .... ....
....|..|--- .... ....|--- .... ....|--- .... ....
....|..|--- .... ....|--- .... ....|G-6 ...8 ....
....|..|--- .... ....|--- ...A ....|--- .... ....
....|..|--- .... ....|--- .... ....|D-6 ...C ....
....|..|--- .... ....|C-6 ...C 312.|--- .... ....
....|..|--- .... ....|--- .... ....|--- .... ....
....|..|--- .... ....|--- .... ....|E-6 ...8 ....
..3E|..|A-5 .C.. ....|A-5 ...A 312.|--- .... ....
....|..|--- .... ....|--- .... ....|C-6 ...C ....

[Pattern5]
....|..|A-5 MF.6 B..3|R-- .... ....|A-5 MF.B 11.1
....|..|--- .... ....|--- .... ....|--- .... 1...
....|..|--- .... ....|--- .... ....|--- ...8 21.1
....|..|G-5 ...1 ....|--- .... ....|--- .... ....
....|..|--- .... ....|A-5 LF.6 ....|G-5 ...B ....
....|..|G-5 ...7 ....|--- .... ....|--- .... ....
....|..|--- .... ....|--- .... ....|A-5 ...8 ....
....|..|--- .... ....|G-5 ...1 ....|--- .... 11.1
....|..|A-5 ...2 ....|--- .... ....|G-5 .... ....
....|..|--- .... ....|G-5 ...7 ....|--- .... ....
....|..|E-5 ...8 ....|--- .... ....|D-5 ...B ....
....|..|--- .... ....|--- .... ....|--- .... ....
....|..|--- .... ....|A-5 ...2 ....|--- .... ....
....|..|A-5 .... ....|--- .... ....|--- .... ....
....|..|--- .... ....|E-5 ...8 ....|C-5 .... ....
....|..|E-5 ...4 ....|--- .... ....|--- .... ....
....|..|--- .... ....|--- .... ....|D-5 .... ....
....|..|--- .... ....|A-5 .... ....|--- .... ....
....|..|D-5 ...7 ....|--- .... ....|C-5 ...8 ....
....|..|--- .... ....|E-5 ...4 ....|--- .... ....
....|..|E-5 ...6 ....|--- .... ....|D-5 .... ....
....|..|--- .... ....|--- .... ....|--- .... ....
....|..|--- .... ....|D-5 ...7 ....|C-5 .... 21.2
....|..|C-5 ...9 ....|--- .... ....|--- .... ....
....|..|--- .... ....|E-5 ...6 ....|E-5 ...B ....
....|..|A-4 ...4 ....|--- .... ....|--- .... ....
....|..|--- .... ....|--- .... ....|C-5 ...8 ....
....|..|--- .... ....|C-5 ...9 ....|--- .... ....
....|..|E-5 ...7 ....|--- .... ....|D-5 .... ....
....|..|--- .... ....|A-4 ...4 ....|--- .... ....
....|..|G-5 ...A ....|--- .... ....|C-5 ...B ....
....|..|--- .... ....|--- .... ....|--- .... ....
....|..|--- .... ....|E-5 ...7 ....|C-5 3..7 ....
....|..|A-5 .... ....|--- .... ....|--- .... ....
....|..|--- .... ....|G-5 ...A ....|--- .... ....
....|..|G-5 ...8 ....|--- .... ....|R-- .... ....
....|..|--- .... ....|--- .... ....|C-5 .... ....
....|..|--- .... ....|A-5 .... ....|R-- .... ....
....|..|A-5 .... ....|--- .... ....|C-5 .... ....
....|..|--- .... ....|G-5 ...8 ....|R-- .... ....
....|..|A-5 ...F ....|--- .... ....|C-5 .... ....
....|..|--- .... ....|--- .... ....|--- .... ....
....|..|--- .... ....|A-5 .... ....|C-6 .... ....
....|..|G-5 ...A ....|--- .... ....|--- .... ....
....|..|--- .... ....|A-5 ...F ....|B-5 .... ....
....|..|G-5 ...D ....|--- .... ....|--- .... ....
....|..|--- .... ....|--- .... ....|G-5 .... ....
....|..|--- .... ....|G-5 ...A ....|--- .... ....
....|..|A-5 ...8 ....|--- .... ....|--- .... ....
....|..|--- .... ....|G-5 ...D ....|--- .... ....

[Pattern9]
....|10|A-4 MF.A ....|A-4 MF.C ....|A-4 SF2F ....
....|.F|G-4 .... ....|--- .... ....|--- .... ....
....|.A|A-4 .... ....|--- .... ....|--- .... ....
....|.8|G-5 ...5 ....|--- ...A ....|E-5 1F.9 ....
....|.6|--- .... ....|A-6 .... ....|--- .... ....
....|.3|E-5 ...C ....|C-6 ...C ....|A-5 ...C ....
....|..|G-5 .... ....|--- .... ....|--- .... ....
....|..|E-5 .... ....|--- .... ....|A-5 .... ....
....|..|A-4 ...8 ....|A-4 ...A ....|G-5 .... ....
....|..|--- .... ....|--- .... ....|--- .... ....
....|..|A-5 ...C ....|D-6 ...C ....|A-5 ...A ....
....|..|--- .... 11.1|--- .... ....|--- .... 21.1
....|..|--- .... ....|--- .... ....|--- .... ....
....|..|E-5 ...8 ....|C-5 ...8 ....|E-5 ...C ....
....|..|--- .... ....|--- .... ....|--- .... ....
....|..|D-5 ...C ....|E-6 ...C ....|--- .... ....
....|..|D#5 .... 21.3|--- .... ....|--- .... ....
....|..|D-5 .... ....|--- .... ....|--- .... ....
....|..|E-5 .... ....|G-5 .... ....|E-5 ...8 ....
....|..|--- .... ....|--- .... ....|F-5 .... ....
....|..|A-5 ...8 ....|C-5 ...8 ....|D-5 ...C ....
....|..|--- .... ....|--- .... ....|--- .... ....
....|..|--- .... ....|--- .... ....|--- .... ....
....|..|D-5 .... ....|G-5 .... ....|C-5 .... ....
....|..|--- .... ....|--- .... ....|--- .... ....
....|..|G-5 ...C ....|E-6 ...C ....|D-5 ...8 ....
....|..|--- .... ....|--- .... ....|--- .... ....
....|..|--- .... ....|--- .... ....|--- .... ....
....|..|D-5 .... ....|G-6 ...8 ....|G-5 ...C ....
....|..|C-5 .... ....|A-6 .... ....|E-5 .... ....
....|..|A-5 ...8 ....|G-6 ...C ....|D-5 .... ....
....|..|--- .... ....|A-6 .... ....|--- .... 21.3
....|..|--- .... ....|G-6 .... ....|--- .... ....
....|..|C-5 ...C ....|E-5 ...8 ....|E-5 .... ....
....|..|--- .... 21.3|--- .... ....|--- .... ....
....|..|D-5 .... ....|C-5 ...C ....|G-5 ...8 ....
....|..|--- .... ....|--- .... ....|--- .... ....
....|..|--- .... ....|--- .... ....|--- .... ....
....|..|A-5 ...8 ....|E-5 .... ....|A-5 ...C ....
....|..|--- .... ....|--- .... ....|--- .... ....

[Pattern10]
....|..|A-3 2F.C ....|E-6 MF.C ....|A-4 2F.A ....
....|..|--- .... ....|--- .... ....|G-4 .... ....
....|..|--- .... ....|C-6 .... ....|A-4 .... ....
....|..|--- .... ....|D-6 ...A ....|G-5 ...5 ....
....|..|A-4 M..A ....|--- .... ....|--- .... ....
....|..|G-4 .... ....|E-5 ...6 ....|E-5 ...C ....
....|..|A-4 .... ....|--- .... ....|G-5 .... ....
....|..|G-5 ...5 ....|--- .... ....|E-5 .... ....
....|..|--- .... ....|A-5 ...F ....|A-4 ...8 ....
....|..|E-5 ...C ....|--- .... ....|--- .... ....
....|..|E-4 2... ....|A-4 3F2A ....|A-5 ...C ....
....|..|--- .... ....|--- .... ....|--- .... 11.1
....|..|--- .... ....|--- .... ....|--- .... ....
....|..|--- .... ....|E-5 MF.C ....|E-5 ...8 ....
....|..|A-5 M... ....|--- .... ....|--- .... ....
....|..|--- .... 11.1|A-4 3F28 ....|D-5 ...C ....
....|..|--- .... ....|--- .... ....|D#5 .... 21.3
....|..|E-5 ...8 ....|--- .... ....|D-5 .... ....
....|..|--- .... ....|C-5 MF.C ....|E-5 .... ....
....|..|D-5 ...C ....|--- .... ....|--- .... ....
....|..|D-4 2..B ....|G-4 3F3A ....|A-5 ...8 ....
....|..|--- .... ....|--- .... ....|--- .... ....
....|..|--- .... ....|--- .... ....|--- .... ....
....|..|--- .... ....|A-4 .F2. ....|D-5 .... ....
....|..|A-5 M..8 ....|--- .... ....|--- .... ....
....|..|--- .... ....|G-4 .F36 ....|G-5 ...C ....
....|..|--- .... ....|--- .... ....|--- .... ....
....|..|D-5 .... ....|--- .... ....|--- .... ....
....|..|--- .... ....|A-4 .F2A ....|D-5 .... ....
....|..|G-5 ...C ....|--- .... ....|C-5 .... ....
....|..|--- .... ....|E-5 MF.6 ....|A-5 ...8 ....
....|..|--- .... ....|--- .... ....|--- .... ....
....|..|D-5 .... ....|--- .... ....|--- .... ....
....|..|C-5 .... ....|C-5 ...A ....|C-5 ...C ....
....|..|A-5 ...8 ....|--- .... ....|--- .... 21.3
....|..|--- .... ....|A-4 3F28 ....|D-5 .... ....
....|..|--- .... ....|--- .... ....|--- .... ....
....|..|C-5 ...C ....|--- .... ....|--- .... ....
....|..|--- .... 21.3|D-5 MF.. ....|A-5 ...8 ....
....|..|D-5 .... ....|--- .... ....|--- .... ....

[Pattern11]
....|10|A-3 2F.C ....|E-5 MF.C ....|A-4 2F.F ....
....|.F|--- .... ....|--- .... ....|C-5 .... ....
....|.A|--- .... ....|--- .... ....|A-4 .... ....
....|.8|--- .... ....|D-5 ...A ....|C-5 ...A ....
....|.6|--- .... ....|--- .... ....|D-5 .... ....
....|.3|E-5 M... ....|A-4 3F2. ....|E-5 1..C ....
....|..|G-5 .... ....|--- .... ....|--- .... ....
....|..|E-5 .... ....|--- .... ....|--- .... ....
....|..|A-4 ...8 ....|A-5 MF.F ....|G-5 2FE8 311.
....|..|--- .... ....|--- .... ....|--- .... ....
....|..|A-5 ...C ....|A-4 3F2A ....|G-5 ...C ....
....|..|--- .... 11.1|--- .... ....|--- .... ....
....|..|--- .... ....|--- .... ....|--- .... 11.1
....|..|E-5 ...8 ....|E-5 MF.C ....|E-5 ...8 ....
....|..|--- .... ....|--- .... ....|--- .... ....
....|..|D-5 ...C ....|A-4 3F28 ....|E-5 ...C ....
....|..|D#5 .... 21.3|--- .... ....|--- .... ....
....|..|D-5 .... ....|--- .... ....|--- .... ....
....|..|E-5 .... ....|C-5 MF.C ....|G-5 .... ....
....|..|--- .... ....|--- .... ....|A-5 .... ....
....|..|A-5 ...8 ....|G-4 3F3A ....|E-5 ...8 ....
....|..|--- .... ....|--- .... ....|--- .... ....
....|..|--- .... ....|--- .... ....|--- .... ....
....|..|D-5 .... ....|A-4 .F2. ....|A-5 ...C ....
....|..|--- .... ....|--- .... ....|--- .... ....
....|..|G-5 ...C ....|G-4 .F36 ....|G-5 ...8 ....
....|..|--- .... ....|--- .... ....|--- .... ....
....|..|--- .... ....|--- .... ....|--- .... ....
....|..|D-5 .... ....|A-4 .F2A ....|E-6 ...C ....
....|..|C-5 .... ....|--- .... ....|--- .... ....
....|..|A-3 2... ....|E-5 MF.6 ....|A-5 ...8 ....
....|..|--- .... ....|--- .... ....|--- .... ....
....|..|--- .... ....|--- .... ....|--- .... ....
....|..|C-5 M... ....|C-5 ...A ....|G-5 ...6 ....
....|..|--- .... 21.3|--- .... ....|--- .... ....
....|..|D-5 .... ....|A-4 3F28 ....|E-6 ...A ....
....|..|--- .... ....|--- .... ....|--- .... ....
....|..|--- .... ....|--- .... ....|--- .... ....
....|..|A-5 ...8 ....|D-5 MF.. ....|A-5 ...8 ....
....|..|--- .... ....|--- .... ....|--- .... ....

[Pattern12]
..3E|..|A-3 4C.F ....|A-4 MF.A ....|G-4 2F.F ....
....|..|--- .... ....|--- .... ....|--- .... ....
....|..|--- .... ....|--- .... ....|--- .... 21.3
....|..|A-5 SF.. ....|G-5 ...5 ....|A-4 .... ....
....|..|--- .... ....|--- .... ....|--- .... ....
..3E|..|A-4 NC.. ....|E-5 ...C ....|G-4 ...8 ....
....|..|--- .... ....|--- .... ....|--- .... ....
....|..|--- .... ....|--- .... ....|--- .... ....
..7C|..|A-3 4C.. ....|A-4 ...8 ....|C-5 ...C ....
....|..|--- .... ....|--- .... ....|--- .... ....
..1F|..|D-3 8C.. ....|A-5 ...C ....|A-4 ...8 ....
....|..|--- .... ....|--- .... ....|--- .... ....
....|..|--- .... ....|--- .... ....|--- .... ....
..7C|..|A-5 SC2A ....|E-5 ...8 ....|D-5 ...C ....
....|..|--- .... ....|--- .... ....|--- .... ....
..46|..|A-3 VA.F ....|D-5 ...C ....|C-5 ...8 ....
....|..|--- .... ....|--- .... 21.3|--- .... ....
....|..|--- .... ....|--- .... ....|--- .... ....
....|..|A-5 SF.. ....|E-5 .... ....|G-5 ...C ....
....|..|--- .... ....|--- .... ....|--- .... ....

[Pattern13]
....|10|A-5 MFEC ....|A-4 SF1F ....|A-4 SF2F ....
....|.F|--- .... ....|--- .... ....|--- .... ....
....|.A|--- .... ....|--- .... ....|--- .... ....
....|.8|G-5 .... ....|A-4 3..D ....|--- ...A ....
....|.6|--- .... ....|--- .... ....|--- .... ....
....|.3|E-5 ...8 ....|A-4 .F2B ....|A-5 1F.C ....
....|..|--- .... ....|--- .... ....|--- .... ....
....|..|--- .... ....|--- .... ....|--- .... ....
....|..|D-5 ...C ....|A-4 SF1. ....|G-5 .F6. ....
....|..|--- .... ....|--- .... ....|--- .... ....
....|..|E-5 ...8 ....|A-4 3F2. ....|A-5 .F.8 ....
....|..|--- .... ....|--- .... ....|--- .... ....
....|..|--- .... ....|--- .... ....|--- .... ....
....|..|D-5 ...C ....|A-4 SF.F ....|E-5 ...C ....
....|..|--- .... 21.4|--- .... ....|--- .... ....
....|..|E-4 2F.D ....|A-4 3F19 ....|--- .... ....
....|..|--- .... ....|--- .... ....|--- .... ....
....|..|--- .... ....|--- .... ....|--- .... ....
....|..|C-5 M..8 ....|A-4 SF.B ....|--- ...8 ....
....|..|--- .... ....|--- .... ....|--- .... ....
....|..|D-5 ...C ....|G-4 3F3. ....|D-5 ...C ....
....|..|--- .... ....|--- .... ....|--- .... ....
....|..|--- .... 11.3|--- .... ....|--- .... ....
....|..|A-4 .... ....|A-4 .F2. ....|C-5 .... ....
....|..|--- .... ....|--- .... ....|--- .... ....
....|..|G-4 ...8 ....|G-4 .F37 ....|D-5 ...8 ....
....|..|--- .... ....|--- .... ....|--- .... ....
....|..|--- .... ....|--- .... ....|--- .... ....
....|..|E-4 ...C ....|A-4 .F2B ....|G-5 .F6C ....
....|..|--- .... ....|--- .... ....|--- .... ....
....|..|A-4 ...8 ....|A-4 .F19 ....|D-5 .F.. ....
....|..|--- .... ....|--- .... ....|--- .... 21.3
....|..|--- .... ....|--- .... ....|--- .... ....
....|..|D-4 ...C ....|A-4 SF2D ....|E-5 .... ....
....|..|--- .... ....|--- .... ....|--- .... ....
....|..|A-3 .... ....|A-4 3..9 ....|G-5 .F68 ....
....|..|--- .... ....|--- .... ....|--- .... ....
....|..|--- .... ....|--- .... ....|--- .... ....
....|..|C-3 ...8 ....|A-4 SF.B ....|A-5 .F.C ....
....|..|--- .... ....|--- .... ....|--- .... ....

[Pattern17]
....|..|D-3 8F.F ....|A-4 MF.F ....|R-- .... ....
....|..|--- .... ....|--- .... ....|--- .... ....
....|..|--- .... ....|--- .... ....|--- .... ....
....|..|D-3 ...A ....|G-4 ...A ....|--- .... ....
....|..|--- .... ....|--- .... ....|--- .... ....
....|..|D-3 ...C ....|G-4 ...F ....|A-4 3F.C ....
....|..|--- .... ....|--- .... ....|--- .... ....
....|..|--- .... ....|--- .... 21.3|--- .... ....
....|..|D-3 ...8 ....|A-4 .... ....|C-5 .... ....
....|..|--- .... ....|--- .... ....|--- .... ....
....|..|D-3 ...A ....|G-4 ...A ....|A-4 ...8 ....
....|..|--- .... ....|--- .... ....|--- .... ....
....|..|--- .... ....|--- .... ....|--- .... ....
....|..|D-3 ...6 ....|E-5 ...F ....|E-5 1..C ....
....|..|--- .... ....|--- .... ....|--- .... ....
....|..|D-3 ...8 ....|A-4 ...A ....|C-5 3..8 ....
....|..|--- .... ....|--- .... ....|--- .... ....
....|..|--- .... ....|--- .... ....|--- .... ....
....|..|D-3 ...4 ....|A-5 ...F ....|A-5 ...C ....
....|..|--- .... ....|--- .... ....|--- .... ....
....|..|D-3 ...6 ....|E-5 ...A ....|C-5 ...8 ....
....|..|--- .... ....|--- .... ....|--- .... ....
....|..|--- .... ....|--- .... ....|--- .... ....
....|..|D-3 ...2 ....|G-5 ...F ....|E-5 ...C ....
....|..|--- .... ....|--- .... ....|--- .... ....
....|..|D-3 ...3 ....|A-5 ...A ....|A-5 ...8 ....
....|..|--- .... ....|--- .... ....|--- .... ....
....|..|--- .... ....|--- .... ....|--- .... ....
....|..|D-3 ...2 ....|E-5 ...F ....|G-5 ...C ....
....|..|--- .... ....|--- .... ....|--- .... ....
....|..|D-3 ...1 ....|G-5 ...6 ....|E-5 ...8 ....
....|..|--- .... ....|--- .... ....|--- .... ....
....|..|--- .... ....|--- .... ....|--- .... ....
....|..|R-- .... ....|E-5 .... ....|A-5 ...C ....
....|..|--- .... ....|--- .... ....|--- .... ....
..46|..|A-3 4C.F ....|A-5 ...C ....|G-5 ...8 ....
....|..|--- .... ....|--- .... ....|--- .... ....
....|..|--- .... ....|--- .... ....|--- .... ....
..42|..|G#3 NE.. ....|E-5 ...6 ....|G-5 ...C ....
....|..|--- .... ....|--- .... ....|--- .... ....

[Pattern18]
..7C|..|A-3 4C.F ....|A-4 SF1F ....|G-4 2F.F ....
....|..|--- .... ....|--- .... ....|--- .... ....
....|..|--- .... ....|--- .... ....|--- .... 21.3
....|..|A-5 SF.. ....|A-4 3..D ....|A-4 .... ....
....|..|--- .... ....|--- .... ....|--- .... ....
..3E|..|A-4 NC.. ....|A-5 .F2B ....|G-4 ...8 ....
....|..|--- .... ....|--- .... ....|--- .... ....
....|..|--- .... ....|--- .... ....|--- .... ....
..7C|..|A-3 4C.. ....|A-4 SF1. ....|C-5 ...C ....
....|..|--- .... ....|--- .... ....|--- .... ....
....|..|D-3 8C.. ....|A-4 3F2. ....|A-4 ...8 ....
....|..|--- .... ....|--- .... ....|--- .... ....
....|..|--- .... ....|--- .... ....|--- .... ....
..7C|..|A-5 SC2A ....|A-5 S..F ....|D-5 ...C ....
....|..|--- .... ....|--- .... ....|--- .... ....
..46|..|A-3 VA.F ....|A-4 3F19 ....|C-5 ...8 ....
....|..|--- .... ....|--- .... ....|--- .... ....
....|..|--- .... ....|--- .... ....|--- .... ....
....|..|A-5 SF.. ....|A-4 SF.B ....|G-5 ...C ....
....|..|--- .... ....|--- .... ....|--- .... ....
..8C|..|A-3 4C.. ....|G-4 3F3. ....|--- .... ....
....|..|--- .... ....|--- .... ....|--- .... ....
....|..|--- .... ....|--- .... ....|--- .... 21.1
....|..|A-5 SF2. ....|A-4 .F2. ....|--- .... ....
....|..|--- .... ....|--- .... ....|--- .... ....
..8C|..|G-2 NC.. ....|G-4 .F37 ....|G-6 .... ....
....|..|--- .... ....|--- .... ....|--- .... ....
....|..|--- .... ....|--- .... ....|--- .... ....
..8C|..|A-3 4C.. ....|G-4 ...B ....|R-- .... ....
....|..|--- .... ....|--- .... ....|--- .... ....
....|..|D-3 8C.. ....|G-4 .F49 ....|G-6 .... ....
....|..|--- .... ....|--- .... ....|--- .... ....
....|..|--- .... ....|--- .... ....|R-- .... ....
....|..|G-4 SC.A ....|G-5 SF3D ....|--- .... ....
....|..|--- .... ....|--- .... ....|--- .... ....
..46|..|A-3 4C.F ....|G-4 3..9 ....|C-5 .... ....
....|..|--- .... ....|--- .... ....|--- .... ....
....|..|--- .... ....|--- .... ....|--- .... ....
....|..|A-5 SF2. ....|G-4 SF.C ....|--- .... ....
....|..|--- .... ....|--- .... ....|--- .... ....

[Pattern19]
..7C|..|A-3 4C.F ....|A-4 SF1F ....|C-6 1F.C ....
....|..|--- .... ....|--- .... ....|--- .... ....
....|..|--- .... ....|--- .... ....|--- .... ....
....|..|A-5 SF.. ....|A-4 3..D ....|B-5 3..8 ....
....|..|--- .... ....|--- .... ....|--- .... ....
..3E|..|A-4 NC.. ....|A-5 .F2B ....|B-5 ...C ....
....|..|--- .... ....|--- .... ....|--- .... ....
....|..|--- .... ....|--- .... ....|--- .... ....
..7C|..|A-3 4C.. ....|A-4 SF1. ....|G-5 .... ....
....|..|--- .... ....|--- .... ....|--- .... ....
....|..|C-6 1F.D ....|A-4 3F2. ....|B-5 ...8 ....
....|..|--- .... ....|--- .... ....|--- .... ....
....|..|--- .... ....|--- .... ....|--- .... ....
..7C|..|A-5 SC2A ....|A-5 S..F ....|B-5 ...A ....
....|..|--- .... ....|--- .... ....|--- .... ....
....|..|G-5 2F.C ....|A-4 3F19 ....|G-5 ...8 ....
....|..|--- .... ....|--- .... ....|--- .... ....
....|..|--- .... ....|--- .... ....|--- .... ....
....|..|A-5 S... ....|A-4 SF.B ....|A-4 ...C ....
....|..|--- .... ....|--- .... ....|--- .... ....

[Pattern20]
..7C|..|A-3 4C.F ....|A-4 SF1F ....|D-4 3FFC ....
....|..|--- .... ....|--- .... ....|--- .... ....
....|..|--- .... ....|--- .... ....|--- .... ....
....|..|A-5 SF.. ....|A-4 3..D ....|E-4 .... ....
....|..|--- .... ....|--- .... ....|--- .... ....
..3E|..|A-4 NC.. ....|A-5 .F2B ....|D-4 ...8 ....
....|..|--- .... ....|--- .... ....|--- .... ....
....|..|--- .... ....|--- .... ....|--- .... ....
..7C|..|A-3 4C.. ....|A-4 SF1. ....|E-4 ...C ....
....|..|--- .... ....|--- .... ....|--- .... ....
....|..|D-3 8C.. ....|A-4 3F2. ....|C-4 .... ....
....|..|--- .... ....|--- .... ....|--- .... ....
....|..|--- .... ....|--- .... ....|--- .... ....
..7C|..|A-5 SC2A ....|A-5 S..F ....|E-5 .FE8 312.
....|..|--- .... ....|--- .... ....|--- .... ....
..46|..|A-3 VA.F ....|A-5 3F19 ....|A-5 ...C 312.
....|..|--- .... ....|--- .... ....|--- .... ....
....|..|--- .... ....|--- .... ....|--- .... ....
....|..|A-5 SF.. ....|A-4 SF.B ....|E-5 ...8 312.
....|..|--- .... ....|--- .... ....|--- .... ....
..8C|..|A-3 4C.. ....|G-4 3F3. ....|G-5 ...C 312.
....|..|--- .... ....|--- .... ....|--- .... ....
....|..|--- .... ....|--- .... ....|--- .... ....
....|..|A-5 SF2. ....|A-4 .F2. ....|A-5 ...8 312.
....|..|--- .... ....|--- .... ....|--- .... ....
..8C|..|G-2 NC.. ....|G-4 .F37 ....|G-4 ...C 313.
....|..|--- .... ....|--- .... ....|--- .... ....
....|..|--- .... ....|--- .... ....|--- .... ....
..8C|..|A-3 4C.. ....|G-4 ...B ....|A-5 ...8 313.
....|..|--- .... ....|--- .... ....|--- .... ....
....|..|D-3 8C.. ....|G-4 .F49 ....|E-4 ...C 313.
....|..|--- .... ....|--- .... ....|--- .... ....
....|..|--- .... ....|--- .... ....|--- .... ....
....|..|G-4 SC.A ....|G-5 SF3D ....|G-4 ...8 313.
....|..|--- .... ....|--- .... ....|--- .... ....
..46|..|A-3 4C.F ....|G-5 3..9 ....|D-4 ...C 313.
....|..|--- .... ....|--- .... ....|--- .... ....
....|..|--- .... ....|--- .... ....|--- .... ....
....|..|A-5 SF2. ....|G-4 SF.C ....|E-4 ...8 313.
....|..|--- .... ....|--- .... ....|--- .... ....

[Pattern21]
..7C|..|A-3 4C.F ....|A-4 SF1F ....|C-4 3F.C ....
....|..|--- .... ....|--- .... ....|--- .... ....
....|..|--- .... ....|--- .... ....|--- .... ....
....|..|A-5 SF.. ....|A-4 3..D ....|D-4 .... ....
....|..|--- .... ....|--- .... ....|--- .... ....
..3E|..|A-4 NC.. ....|A-5 .F2B ....|E-4 .... ....
....|..|--- .... ....|--- .... ....|--- .... ....
....|..|--- .... ....|--- .... ....|--- .... ....
..7C|..|A-3 4C.. ....|A-4 SF1. ....|C-4 ...8 ....
....|..|--- .... ....|--- .... ....|--- .... ....
....|..|D-3 8C.. ....|A-4 3F2. ....|A-3 ...C ....
....|..|--- .... ....|--- .... ....|--- .... ....
....|..|--- .... ....|--- .... ....|--- .... ....
..7C|..|A-5 SC2A ....|A-5 S..F ....|E-4 ...8 ....
....|..|--- .... ....|--- .... ....|--- .... ....
..46|..|A-3 VA.F ....|A-4 3F19 ....|G-3 ...C ....
....|..|--- .... ....|--- .... ....|--- .... ....
....|..|--- .... ....|--- .... ....|--- .... ....
....|..|A-5 SF.. ....|A-4 SF.B ....|A-3 ...8 ....
....|..|--- .... ....|--- .... ....|--- .... ....
..8C|..|A-3 4C.. ....|G-4 3F3. ....|G-3 ...C ....
....|..|--- .... ....|--- .... ....|--- .... ....
....|..|--- .... ....|--- .... ....|--- .... ....
....|..|A-5 SF2. ....|A-4 .F2. ....|D-4 .... ....
....|..|--- .... ....|--- .... ....|--- .... ....
..8C|..|G-2 NC.. ....|G-4 .F37 ....|G-3 ...8 ....
....|..|--- .... ....|--- .... ....|--- .... ....
....|..|--- .... ....|--- .... ....|--- .... ....
..8C|..|A-3 4C.. ....|G-4 ...B ....|G-3 ...C ....
....|..|--- .... ....|--- .... ....|--- .... ....
....|..|D-3 8C.. ....|G-4 .F49 ....|D-4 .... ....
....|..|--- .... ....|--- .... ....|--- .... ....
....|..|--- .... ....|--- .... ....|--- .... ....
....|..|G-4 SC.A ....|G-5 SF3D ....|G-4 .... ....
....|..|--- .... ....|--- .... ....|--- .... ....
..46|..|A-3 4C.F ....|G-4 3..9 ....|G-3 ...8 ....
....|..|--- .... ....|--- .... ....|--- .... ....
....|..|--- .... ....|--- .... ....|--- .... ....
....|..|A-5 SF2. ....|G-4 SF.C ....|G-4 ...C ....
....|..|--- .... ....|--- .... ....|--- .... ....

[Pattern22]
..9D|..|A-3 4C.F ....|F-4 SF4F ....|G-4 1FEC ....
....|..|--- .... ....|--- .... ....|--- .... ....
....|..|--- .... ....|--- .... ....|--- .... ....
....|..|F-5 SF.. ....|F-4 3..D ....|F-4 ...8 ....
....|..|--- .... ....|--- .... ....|--- .... ....
..4E|..|F-3 NC.. ....|F-5 .F3B ....|F-4 ...C ....
....|..|--- .... ....|--- .... ....|--- .... ....
....|..|--- .... ....|--- .... ....|G-4 ...8 ....
..9D|..|A-3 4C.. ....|F-4 SF4. ....|F-4 ...C ....
....|..|--- .... ....|--- .... ....|--- .... ....
....|..|D-3 8C.. ....|F-4 3F3. ....|--- ...8 ....
....|..|--- .... ....|--- .... ....|--- .... ....
....|..|--- .... ....|--- .... ....|--- .... ....
..9D|..|F-5 SC3A ....|F-5 S..F ....|E-4 ...C ....
....|..|--- .... ....|--- .... ....|--- .... ....
..4E|..|F-3 VA.F ....|F-4 3F49 ....|F-4 ...8 ....
....|..|--- .... ....|--- .... ....|--- .... ....
....|..|--- .... ....|--- .... ....|--- .... ....
....|..|F-5 SF.. ....|F-4 SF.B ....|D-4 ...C ....
....|..|--- .... ....|--- .... ....|--- .... ....
..8C|..|A-3 4C.. ....|G-4 3F3. ....|D-4 ...8 ....
....|..|--- .... ....|--- .... ....|--- .... ....
....|..|--- .... ....|--- .... ....|--- .... ....
....|..|G-5 SF.. ....|A-4 .F2. ....|E-4 ...A ....
....|..|--- .... ....|--- .... ....|--- .... ....
..8C|..|G-2 NC.. ....|G-4 .F37 ....|D-4 ...6 ....
....|..|--- .... ....|--- .... ....|--- .... ....
....|..|--- .... ....|--- .... ....|--- .... ....
..8C|..|A-3 4C.. ....|G-4 ...B ....|C-4 ...C ....
....|..|--- .... ....|--- .... ....|--- .... ....
....|..|D-3 8C.. ....|G-4 .F49 ....|E-4 ...8 ....
....|..|--- .... ....|--- .... ....|--- .... ....
....|..|--- .... ....|--- .... ....|--- .... ....
....|..|G-4 SC.A ....|G-5 SF3D ....|D-4 ...C ....
....|..|--- .... ....|--- .... ....|--- .... ....
..46|..|A-3 4C.F ....|G-4 3..9 ....|C-4 ...8 ....
....|..|--- .... ....|--- .... ....|--- .... ....
....|..|--- .... ....|--- .... ....|--- .... ....
....|..|G-5 SF.. ....|G-4 SF.C ....|E-4 ...C ....
....|..|--- .... ....|--- .... ....|--- .... ....

[Pattern24]
..7C|..|A-3 4C.F ....|A-4 SF1F ....|E-4 1FEC ....
....|..|--- .... ....|--- .... ....|--- .... ....
....|..|--- .... ....|--- .... ....|--- .... ....
....|..|A-5 SF.. ....|A-4 3..D ....|--- ...8 ....
....|..|--- .... ....|--- .... ....|--- .... ....
..3E|..|A-4 NC.. ....|A-5 .F2B ....|D-4 ...C ....
....|..|--- .... ....|--- .... ....|--- .... ....
....|..|--- .... ....|--- .... ....|--- .... ....
..7C|..|A-3 4C.. ....|A-4 SF1. ....|E-4 .... ....
....|..|--- .... ....|--- .... ....|--- .... ....
....|..|D-3 8C.. ....|A-4 3F2. ....|D-4 ...8 ....
....|..|--- .... ....|--- .... ....|--- .... ....
....|..|--- .... ....|--- .... ....|--- .... ....
..7C|..|A-5 SC2A ....|A-5 S..F ....|G-4 .F3C ....
....|..|--- .... ....|--- .... ....|--- .... ....
..46|..|A-3 VA.F ....|A-4 3F19 ....|A-4 .FE8 ....
....|..|--- .... ....|--- .... ....|--- .... ....
....|..|--- .... ....|--- .... ....|--- .... ....
....|..|A-5 SF.. ....|A-4 SF.B ....|A-4 .F2C ....
....|..|--- .... ....|--- .... ....|--- .... ....
..7C|..|A-3 4C.. ....|A-4 .F1F ....|A-4 .FE8 ....
....|..|--- .... ....|--- .... ....|--- .... ....
....|..|--- .... ....|--- .... ....|--- .... ....
....|..|A-5 SF.. ....|A-4 3..D ....|G-4 .F3A ....
....|..|--- .... ....|--- .... ....|--- .... ....
..3E|..|A-4 NC.. ....|A-5 .F2B ....|E-4 .FE6 ....
....|..|--- .... ....|--- .... ....|--- .... ....
....|..|--- .... ....|--- .... ....|--- .... ....
..7C|..|A-3 4C.. ....|A-4 SF1. ....|A-4 .F2A ....
....|..|--- .... ....|--- .... ....|--- .... ....
....|..|D-3 8C.. ....|A-4 3F2. ....|A-4 .FE6 ....
....|..|--- .... ....|--- .... ....|--- .... ....
....|..|--- .... ....|--- .... ....|--- .... ....
..7C|..|A-5 SC2A ....|A-5 S..F ....|G-4 .F38 ....
....|..|--- .... ....|--- .... ....|--- .... ....
..46|..|A-3 VA.F ....|A-4 3F19 ....|E-4 .FE5 ....
....|..|--- .... ....|--- .... ....|--- .... ....
....|..|--- .... ....|--- .... ....|--- .... ....
....|..|A-5 SF.. ....|A-4 SF.B ....|A-4 .F28 ....
....|..|--- .... ....|--- .... ....|--- .... ....

[Pattern25]
....|..|A-5 MF.F ....|A-4 SF2F ....|A-5 LF.F ....
....|..|--- .... ....|--- .... ....|--- .... ....
....|..|--- .... ....|--- .... ....|--- .... ....
....|..|G-5 ...A ....|--- ...A ....|G-5 ...A ....
....|..|--- .... ....|--- .... ....|A-5 ...F ....
....|..|G-5 ...F ....|--- ...4 ....|--- .... ....
....|..|--- .... ....|--- .... ....|--- .... ....
....|..|--- .... ....|--- .... ....|G-5 ...A ....
....|..|A-5 ...A ....|A-4 ...8 ....|--- .... ....
....|..|--- .... ....|--- .... ....|G-5 ...F ....
....|..|E-5 ...F ....|R-- .... ....|--- .... ....
....|..|--- .... ....|--- .... ....|--- .... ....
....|..|--- .... ....|--- .... ....|A-5 ...A ....
....|..|A-5 .... ....|--- .... ....|--- .... ....
....|..|--- .... ....|--- .... ....|E-5 ...F ....
....|..|E-5 ...A ....|A-4 .F.A ....|--- .... ....
....|..|--- .... ....|--- .... ....|--- .... ....
....|..|--- .... ....|--- .... ....|A-5 .... ....
....|..|D-5 ...F ....|--- ...6 ....|--- .... ....
....|..|--- .... ....|--- .... ....|E-5 ...A ....
....|..|E-5 ...A ....|--- ...1 ....|--- .... ....
....|..|--- .... ....|--- .... ....|--- .... ....
....|..|--- .... ....|--- .... ....|D-5 ...F ....
....|..|C-5 ...F ....|A-4 ...3 ....|--- .... ....
....|..|--- .... ....|--- .... ....|E-5 ...A ....
....|..|A-4 .... ....|R-- .... ....|--- .... ....
....|..|--- .... ....|--- .... ....|--- .... ....
....|..|--- .... ....|--- .... ....|C-5 ...F ....
....|..|E-5 ...A ....|--- .... ....|--- .... ....
....|..|--- .... ....|--- .... ....|A-4 .... ....
....|..|G-5 ...F ....|--- .... ....|--- .... ....
....|..|--- .... ....|--- .... ....|--- .... ....
....|..|--- .... ....|--- .... ....|E-5 ...A ....
....|..|A-5 .... ....|--- .... ....|--- .... ....
....|..|--- .... ....|--- .... ....|G-5 ...F ....
....|..|G-5 ...A ....|--- .... ....|--- .... ....
....|..|--- .... ....|--- .... ....|--- .... ....
....|..|--- .... ....|--- .... ....|A-5 .... ....
....|..|A-5 .... ....|--- .... ....|--- .... ....
....|..|--- .... ....|--- .... ....|G-5 ...A ....

[Pattern26]
..7C|..|A-3 4C.F ....|E-4 1FEC ....|A-5 1F.C ....
....|..|--- .... ....|--- .... ....|--- .... ....
....|..|--- .... ....|--- .... ....|--- .... ....
....|..|A-5 SF.. ....|--- ...8 ....|G-5 .... ....
....|..|--- .... ....|--- .... ....|--- .... ....
..3E|..|A-4 NC.. ....|D-4 ...C ....|A-5 ...8 ....
....|..|--- .... ....|--- .... ....|--- .... ....
....|..|--- .... ....|--- .... ....|--- .... ....
..7C|..|A-3 4C.. ....|E-4 .... ....|E-5 ...C ....
....|..|--- .... ....|--- .... ....|--- .... ....
....|..|C-6 1F.D ....|D-4 ...8 ....|G-5 ...8 ....
....|..|--- .... ....|--- .... ....|--- .... ....
....|..|--- .... ....|--- .... ....|--- .... ....
..7C|..|A-5 SC2A ....|A-4 ...C ....|D-5 ...C ....
....|..|--- .... ....|--- .... ....|--- .... 21.4
....|..|G-5 2F.C ....|E-4 ...8 ....|E-5 .... ....
....|..|--- .... ....|--- .... ....|--- .... ....
....|..|--- .... ....|--- .... ....|--- .... ....
....|..|A-5 S... ....|G-4 ...C ....|G-5 ...8 ....
....|..|--- .... ....|--- .... ....|--- .... ....
..7C|..|A-3 4C.F ....|A-4 ...8 ....|A-5 3..C ....
....|..|--- .... ....|--- .... ....|--- .... ....
....|..|--- .... ....|--- .... ....|--- .... 11.3
....|..|A-5 SF.. ....|E-5 .F6C ....|G-5 .... ....
....|..|--- .... ....|--- .... ....|--- .... ....
..3E|..|A-4 NC.. ....|G-4 .FE8 ....|A-5 ...8 ....
....|..|--- .... ....|--- .... ....|--- .... ....
....|..|--- .... ....|--- .... ....|--- .... ....
..7C|..|A-3 4C.. ....|D-5 ...C ....|D-5 ...C ....
....|..|--- .... ....|--- .... ....|--- .... ....
..7C|..|A-3 .C.. ....|E-5 .F68 ....|A-5 ...8 ....
....|..|--- .... ....|--- .... ....|--- .... ....
....|..|--- .... ....|--- .... ....|--- .... ....
....|..|A-5 SF.. ....|C-5 .FEC ....|C-5 ...C ....
....|..|--- .... ....|--- .... ....|--- .... ....
..3E|..|A-4 NC.. ....|D-5 ...8 ....|D-5 .... ....
....|..|--- .... ....|--- .... ....|--- .... ....
....|..|--- .... ....|--- .... ....|--- .... ....
..7C|..|A-3 4C.. ....|C-5 .... ....|C-5 ...8 ....
....|..|--- .... ....|--- .... ....|--- .... ....

[Pattern28]
....|..|--- .... ....|--- .... ....|--- .... ....
....|..|--- .... ....|--- .... ....|--- .... ....
....|..|--- .... ....|--- .... ....|--- .... ....
....|..|--- .... ....|--- .... ....|--- .... ....
....|..|--- .... ....|--- .... ....|--- .... ....
....|..|R-- .... ....|R-- .... ....|R-- .... ....
....|..|--- .... ....|--- .... ....|--- .... ....
....|..|--- .... ....|--- .... ....|--- .... ....
....|..|--- .... ....|--- .... ....|--- .... ....
....|..|--- .... ....|--- .... ....|--- .... ....
....|..|--- .... ....|--- .... ....|--- .... ....
....|..|--- .... ....|--- .... ....|--- .... ....
....|..|--- .... ....|--- .... ....|--- .... ....
....|..|--- .... ....|--- .... ....|--- .... ....
....|..|--- .... ....|--- .... ....|--- .... ....
....|..|--- .... ....|--- .... ....|--- .... ....
....|..|--- .... ....|--- .... ....|--- .... ....
....|..|--- .... ....|--- .... ....|--- .... ....
....|..|--- .... ....|--- .... ....|--- .... ....
....|..|--- .... ....|--- .... ....|--- .... ....
....|..|--- .... ....|--- .... ....|--- .... ....
....|..|--- .... ....|--- .... ....|--- .... ....
....|..|--- .... ....|--- .... ....|--- .... ....
....|..|--- .... ....|--- .... ....|--- .... ....
....|..|--- .... ....|--- .... ....|--- .... ....
....|..|--- .... ....|--- .... ....|--- .... ....
....|..|--- .... ....|--- .... ....|--- .... ....
....|..|--- .... ....|--- .... ....|--- .... ....
....|..|--- .... ....|--- .... ....|--- .... ....
....|..|--- .... ....|--- .... ....|--- .... ....
....|..|--- .... ....|--- .... ....|--- .... ....
....|..|--- .... ....|--- .... ....|--- .... ....
....|..|--- .... ....|--- .... ....|--- .... ....
....|..|--- .... ....|--- .... ....|--- .... ....
....|..|--- .... ....|--- .... ....|--- .... ....
....|..|--- .... ....|--- .... ....|--- .... ....
....|..|--- .... ....|--- .... ....|--- .... ....
....|..|--- .... ....|--- .... ....|--- .... ....
....|..|--- .... ....|--- .... ....|--- .... ....
....|..|--- .... ....|--- .... ....|--- .... ....
....|..|--- .... ....|--- .... ....|--- .... ....
....|..|--- .... ....|--- .... ....|--- .... ....
....|..|--- .... ....|--- .... ....|--- .... ....
....|..|--- .... ....|--- .... ....|--- .... ....
....|..|--- .... ....|--- .... ....|--- .... ....
....|..|--- .... ....|--- .... ....|--- .... ....
....|..|--- .... ....|--- .... ....|--- .... ....
....|..|--- .... ....|--- .... ....|--- .... ....
....|..|--- .... ....|--- .... ....|--- .... ....
....|..|--- .... ....|--- .... ....|--- .... ....
....|..|--- .... ....|--- .... ....|--- .... ....
....|..|--- .... ....|--- .... ....|--- .... ....
....|..|--- .... ....|--- .... ....|--- .... ....
....|..|--- .... ....|--- .... ....|--- .... ....
....|..|--- .... ....|--- .... ....|--- .... ....
....|..|--- .... ....|--- .... ....|--- .... ....
....|..|--- .... ....|--- .... ....|--- .... ....
....|..|--- .... ....|--- .... ....|--- .... ....
....|..|--- .... ....|--- .... ....|--- .... ....
....|..|--- .... ....|--- .... ....|--- .... ....
....|..|--- .... ....|--- .... ....|--- .... ....
....|..|--- .... ....|--- .... ....|--- .... ....
....|..|--- .... ....|--- .... ....|--- .... ....
....|..|--- .... ....|--- .... ....|--- .... ....
