[Module]
VortexTrackerII=0
Version=3.5
Title=HBFS.mid
Author=oisee ^ 4d 29.05.2010
NoteTable=4
ChipFreq=1750000
Speed=4
PlayOrder=L0,1,2,3,4,1,6,3,4,1,10,11,12,3,14,3,16,17,18,19,20,21,22,23,22,25,26,27,28,29,30,31,32,33,34,35,36,37,38,39,36,37,42,43,44,45,46,47


[Ornament1]
L0,24

[Ornament2]
L0,17

[Ornament3]
L0

[Ornament4]
L0,41

[Ornament5]
L0,36

[Ornament6]
L0,31

[Ornament7]
L0,29

[Ornament8]
L0,34

[Ornament9]
L0,19

[Ornament10]
L0,27

[Ornament11]
L0,22

[Ornament12]
L0,30

[Ornament13]
L0,28

[Ornament14]
L0,53

[Ornament15]
L0,48


[Sample1]
TnE +000_ +00_ F_
TnE +000_ +00_ F_
TnE +000_ +00_ F_
TnE +000_ +00_ D_
TnE +000_ +00_ B_
TnE +000_ +00_ B_ L

[Sample2]
TnE +000_ +00_ F_ L

[Sample3]
TnE +001_ +00_ F_
TnE +002_ +00_ F_
TnE +001_ +00_ E_
TnE +002_ +00_ E_
TnE +000_ +00_ E_ L
TnE -001_ +00_ E_
TnE -002_ +00_ E_
TnE -001_ +00_ E_
TnE +000_ +00_ E_
TnE +001_ +00_ E_
TnE +002_ +00_ E_
TnE +001_ +00_ E_

[Sample4]
TnE +002_ +00_ D_
TnE +002_ +00_ D_
TnE +002_ +00_ C_
TnE +002_ +00_ B_
TnE +002_ +00_ A_ L
TnE +002_ +00_ A_
TnE +002_ +00_ A_
TnE +002_ +00_ A_
TnE +002_ +00_ A_
TnE +002_ +00_ A_
TnE +002_ +00_ A_
TnE +002_ +00_ A_

[Sample5]
TnE +000_ +00_ F_
TnE +000_ +00_ F_
tne +000_ +00_ 0_ L

[Sample6]
TnE -001_ +00_ F_ L

[Sample7]
TnE +006_ +00_ F_ L

[Sample8]
tNe +000_ +00_ F_
tNe +000_ +00_ B_
tNe +000_ +00_ 7_
tNe +000_ +00_ 6- L

[Sample9]
TnE +080_ +00_ F_
TnE +100_ +00_ E_
TnE +180_ +00_ E_
TnE +200_ +00_ E_
TnE +240_ +00_ D_
TnE +280_ +00_ D_
TnE +2C0_ +00_ D_
TnE +300_ +00_ C_
TnE +300_ +00_ C_
TnE +340_ +00_ C_
TnE +340_ +00_ C_
TnE +380_ +00_ B_
TnE +380_ +00_ B_
TnE +400_ +00_ B_
TnE +400_ +00_ B_
TnE +480_ +00_ A_
TnE +500_ +00_ 9_
TnE +580_ +00_ 7_
TnE +600_ +00_ 4_
TnE +680_ +00_ 1_
TnE +000_ +00_ 0_ L

[Sample10]
Tne +1C0_ +00_ F_
Tne +280_ +00_ E_
Tne +380_ +00_ C_
Tne +440_ +00_ A_
Tne +480_ +00_ 8_
TnE +000_ +00_ 0_ L

[Sample11]
TNe +200_ -0A_ F_
tNe +000_ +0F_ A_
TNe +200_ -07_ E_
tNe +000_ +0E_ B- L

[Sample12]
TNE +0A0_ +05_ F_
TNE +140_ +02_ D_
TNE +140_ +02_ B_
TNE +100_ +00_ A_ L
TNE +140_ +00_ A_
TNE +200_ +00_ A-

[Sample13]
Tne +200_ +00_ F_
Tne +2C0_ +00_ F_
Tne +380_ +00_ E_
Tne +500_ +00_ C_
Tne +520_ +00_ 9_
tne +000_ +00_ 0_ L

[Sample14]
TNE -100_ +00_ F_
TNE -100_ +00_ D_
TNE -100_ +00_ A_
TNE -100_ +00_ 5_
tne +000_ +00_ 0_ L

[Sample15]
TNE -100_ +00_ 5_
TNE -100_ +00_ 8_
TNE -100_ +00_ B_
TNE -100_ +00_ F_
TNe -100_ +00_ 9- L

[Sample16]
TnE +000_ +00_ C_
TnE +000_ +00_ E_
TnE +000_ +00_ F_
TnE +000_ +00_ F_
TnE +000_ +00_ E_
TnE +000_ +00_ D_
TnE +000_ +00_ C_
TnE +000_ +00_ C_ L
TnE +001_ +00_ C_
TnE +002_ +00_ C_
TnE +003_ +00_ C_
TnE +001_ +00_ C_
TnE +000_ +00_ C_
TnE -001_ +00_ C_
TnE -002_ +00_ C_
TnE -003_ +00_ C_
TnE -001_ +00_ C_
TnE +000_ +00_ C_
TnE +000_ +00_ C_

[Sample17]
Tne +1C0_ +00_ F_
Tne +280_ +00_ D_
Tne +380_ +00_ 7_
TNE +000_ +00_ 0_ L

[Sample18]
tnE +000_ +00_ 0_ L

[Sample19]
TNe +000_ +00_ F_
TNe +000_ +00_ C_
TNe +000_ +00_ 6_
TNe +000_ +01_ A- L

[Sample20]
TNE +140_ +00_ F_
tNE +000_ +00_ B- L

[Sample21]
tNE +000_ +00_ D_
tNE +000_ +00_ 8_
tNE +000_ +00_ 1_
TNE +000_ +00_ 0_ L

[Sample22]
TnE +000_ +00_ D_ L
TnE +000_ +00_ D_
tne +000_ +00_ 9_
tne +000_ +00_ 9_
TnE +000_ +00_ D_
TnE +000_ +00_ D_
tne +000_ +00_ 9_
tne +000_ +00_ 9_
TnE +000_ +00_ D_
TnE +000_ +00_ D_
TnE +000_ +00_ D_
TnE +000_ +00_ D_
TnE +000_ +00_ D_
TnE +000_ +00_ D_
tne +000_ +00_ 9_
tne +000_ +00_ 9_

[Sample23]
TnE +000_ +00_ F_ L
TnE +010_ +01_ F_
TnE +010_ +01_ F_
TnE +010_ +01_ F_
TnE +010_ +01_ F_
TnE +000_ +00_ F_
TnE +000_ +00_ F_
TnE -010_ -01_ F_
TnE -010_ -01_ F_
TnE -010_ -01_ F_
TnE -010_ -01_ F_
TnE +000_ +00_ F_

[Sample24]
TNe +000_ -01_ C_
TNe +000_ -01_ D_
TNe +000_ -01_ E_
TNe +000_ -01_ F_
TNe +000_ -01_ F_
TNe +000_ -01_ F_
TNe +000_ -01_ F_
TNe +000_ -01_ F_
TNe +000_ -01_ E_
TNe +000_ -01_ E_
TNe +000_ -01_ E_
TNe +000_ -01_ F_
TNe +000_ -01_ F_ L

[Sample25]
TNE +000_ +00_ F_
TNE +000_ +00_ F_ L
TNE +000_ +00_ F_
TNE +000_ +00_ F_
TNE +000_ +00_ F-

[Sample26]
tne +000_ +00_ 0_ L

[Sample27]
tne +000_ +00_ 0_ L

[Sample28]
tne +000_ +00_ 0_ L

[Sample29]
tne +000_ +00_ 0_ L

[Sample30]
TNE +000_ +00_ C+ L

[Sample31]
TNe +1C0_ +00_ F_
Tne +280_ +00_ E_
Tne +380_ +00_ C_
Tne +440_ +00_ A_
Tne +480_ +00_ 8_
TnE +000_ +00_ 0_ L

[Pattern0]
....|..|G-2 2.1F ....|G-2 2.1F ....|G-2 2.1F ....
....|..|G-2 2.1F ....|G-2 2.1F ....|G-2 2.1F ....
....|..|G-2 2.1F ....|G-2 2.1F ....|G-2 2.1F ....
....|..|R-- .... ....|R-- .... ....|R-- .... ....
....|..|D-3 2.2F ....|D-3 2.2F ....|D-3 2.2F ....
....|..|D-3 2.2F ....|D-3 2.2F ....|D-3 2.2F ....
....|..|D-3 2.2F ....|D-3 2.2F ....|D-3 2.2F ....
....|..|G-4 2.3F ....|G-4 2.3F ....|G-4 2.3F ....
....|..|G-3 2.3F ....|G-3 2.3F ....|G-3 2.3F ....
....|..|G-3 2.3F ....|G-3 2.3F ....|G-3 2.3F ....
....|..|G-3 2.3F ....|G-3 2.3F ....|G-3 2.3F ....
....|..|R-- .... ....|R-- .... ....|R-- .... ....
....|..|R-- .... ....|R-- .... ....|R-- .... ....
....|..|R-- .... ....|R-- .... ....|R-- .... ....
....|..|R-- .... ....|R-- .... ....|R-- .... ....
....|..|R-- .... ....|R-- .... ....|R-- .... ....
....|..|G-5 2.3F ....|G-5 2.3F ....|G-5 2.3F ....
....|..|G-5 2.3F ....|G-5 2.3F ....|G-5 2.3F ....
....|..|G-5 2.3F ....|G-5 2.3F ....|G-5 2.3F ....
....|..|R-- .... ....|R-- .... ....|R-- .... ....
....|..|G-5 2.3F ....|G-5 2.3F ....|G-5 2.3F ....
....|..|G-5 2.3F ....|G-5 2.3F ....|G-5 2.3F ....
....|..|G-5 2.3F ....|G-5 2.3F ....|G-5 2.3F ....
....|..|G-5 2.3F ....|G-5 2.3F ....|G-5 2.3F ....
....|..|R-- .... ....|R-- .... ....|R-- .... ....
....|..|R-- .... ....|R-- .... ....|R-- .... ....
....|..|R-- .... ....|R-- .... ....|R-- .... ....
....|..|R-- .... ....|R-- .... ....|R-- .... ....
....|..|R-- .... ....|R-- .... ....|R-- .... ....
....|..|R-- .... ....|R-- .... ....|R-- .... ....
....|..|R-- .... ....|R-- .... ....|R-- .... ....
....|..|R-- .... ....|R-- .... ....|R-- .... ....
....|..|A#2 2.1F ....|A#2 2.1F ....|A#2 2.1F ....
....|..|A#2 2.1F ....|A#2 2.1F ....|A#2 2.1F ....
....|..|A#2 2.1F ....|A#2 2.1F ....|A#2 2.1F ....
....|..|R-- .... ....|R-- .... ....|R-- .... ....
....|..|F-3 2.2F ....|F-3 2.2F ....|F-3 2.2F ....
....|..|F-3 2.2F ....|F-3 2.2F ....|F-3 2.2F ....
....|..|F-3 2.2F ....|F-3 2.2F ....|F-3 2.2F ....
....|..|A#4 2.3F ....|A#4 2.3F ....|A#4 2.3F ....
....|..|A#3 2.3F ....|A#3 2.3F ....|A#3 2.3F ....
....|..|A#3 2.3F ....|A#3 2.3F ....|A#3 2.3F ....
....|..|A#3 2.3F ....|A#3 2.3F ....|A#3 2.3F ....
....|..|R-- .... ....|R-- .... ....|R-- .... ....
....|..|R-- .... ....|R-- .... ....|R-- .... ....
....|..|R-- .... ....|R-- .... ....|R-- .... ....
....|..|R-- .... ....|R-- .... ....|R-- .... ....
....|..|R-- .... ....|R-- .... ....|R-- .... ....
....|..|A#5 2.3F ....|A#5 2.3F ....|A#5 2.3F ....
....|..|A#5 2.3F ....|A#5 2.3F ....|A#5 2.3F ....
....|..|A#5 2.3F ....|A#5 2.3F ....|A#5 2.3F ....
....|..|R-- .... ....|R-- .... ....|R-- .... ....
....|..|A#5 2.3F ....|A#5 2.3F ....|A#5 2.3F ....
....|..|A#5 2.3F ....|A#5 2.3F ....|A#5 2.3F ....
....|..|A#5 2.3F ....|A#5 2.3F ....|A#5 2.3F ....
....|..|A#5 2.3F ....|A#5 2.3F ....|A#5 2.3F ....
....|..|R-- .... ....|R-- .... ....|R-- .... ....
....|..|R-- .... ....|R-- .... ....|R-- .... ....
....|..|R-- .... ....|R-- .... ....|R-- .... ....
....|..|R-- .... ....|R-- .... ....|R-- .... ....
....|..|R-- .... ....|R-- .... ....|R-- .... ....
....|..|R-- .... ....|R-- .... ....|R-- .... ....
....|..|R-- .... ....|R-- .... ....|R-- .... ....
....|..|R-- .... ....|R-- .... ....|R-- .... ....

[Pattern1]
....|..|C-3 2.4F ....|C-3 2.4F ....|C-3 2.4F ....
....|..|C-3 2.4F ....|C-3 2.4F ....|C-3 2.4F ....
....|..|C-3 2.4F ....|C-3 2.4F ....|C-3 2.4F ....
....|..|C-3 2.3F ....|C-3 2.3F ....|C-3 2.3F ....
....|..|G-3 2.5F ....|G-3 2.5F ....|G-3 2.5F ....
....|..|G-3 2.5F ....|G-3 2.5F ....|G-3 2.5F ....
....|..|G-3 2.5F ....|G-3 2.5F ....|G-3 2.5F ....
....|..|G-3 2.3F ....|G-3 2.3F ....|G-3 2.3F ....
....|..|C-4 2.3F ....|C-4 2.3F ....|C-4 2.3F ....
....|..|C-4 2.3F ....|C-4 2.3F ....|C-4 2.3F ....
....|..|C-4 2.3F ....|C-4 2.3F ....|C-4 2.3F ....
....|..|C-4 2.3F ....|C-4 2.3F ....|C-4 2.3F ....
....|..|G-3 2.3F ....|G-3 2.3F ....|G-3 2.3F ....
....|..|G-3 2.3F ....|G-3 2.3F ....|G-3 2.3F ....
....|..|G-3 2.3F ....|G-3 2.3F ....|G-3 2.3F ....
....|..|G-3 2.3F ....|G-3 2.3F ....|G-3 2.3F ....
....|..|D#4 2.3F ....|D#4 2.3F ....|D#4 2.3F ....
....|..|D#4 2.3F ....|D#4 2.3F ....|D#4 2.3F ....
....|..|D#4 2.3F ....|D#4 2.3F ....|D#4 2.3F ....
....|..|D#4 2.3F ....|D#4 2.3F ....|D#4 2.3F ....
....|..|G-3 2.3F ....|G-3 2.3F ....|G-3 2.3F ....
....|..|G-3 2.3F ....|G-3 2.3F ....|G-3 2.3F ....
....|..|G-3 2.3F ....|G-3 2.3F ....|G-3 2.3F ....
....|..|G-3 2.3F ....|G-3 2.3F ....|G-3 2.3F ....
....|..|C-4 2.6F ....|C-4 2.6F ....|C-4 2.6F ....
....|..|C-4 2.6F ....|C-4 2.6F ....|C-4 2.6F ....
....|..|C-4 2.7F ....|C-4 2.7F ....|C-4 2.7F ....
....|..|C-4 2.3F ....|C-4 2.3F ....|C-4 2.3F ....
....|..|G-3 2.6F ....|G-3 2.6F ....|G-3 2.6F ....
....|..|G-3 2.6F ....|G-3 2.6F ....|G-3 2.6F ....
....|..|G-3 2.6F ....|G-3 2.6F ....|G-3 2.6F ....
....|..|G-3 2.3F ....|G-3 2.3F ....|G-3 2.3F ....
....|..|C-3 2.4F ....|C-3 2.4F ....|C-3 2.4F ....
....|..|C-3 2.4F ....|C-3 2.4F ....|C-3 2.4F ....
....|..|C-3 2.4F ....|C-3 2.4F ....|C-3 2.4F ....
....|..|C-3 2.4F ....|C-3 2.4F ....|C-3 2.4F ....
....|..|G-3 2.8F ....|G-3 2.8F ....|G-3 2.8F ....
....|..|G-3 2.8F ....|G-3 2.8F ....|G-3 2.8F ....
....|..|G-3 2.8F ....|G-3 2.8F ....|G-3 2.8F ....
....|..|G-3 2.8F ....|G-3 2.8F ....|G-3 2.8F ....
....|..|C-4 2.7F ....|C-4 2.7F ....|C-4 2.7F ....
....|..|C-4 2.7F ....|C-4 2.7F ....|C-4 2.7F ....
....|..|C-4 2.7F ....|C-4 2.7F ....|C-4 2.7F ....
....|..|C-4 2.7F ....|C-4 2.7F ....|C-4 2.7F ....
....|..|G-3 2.3F ....|G-3 2.3F ....|G-3 2.3F ....
....|..|G-3 2.3F ....|G-3 2.3F ....|G-3 2.3F ....
....|..|G-3 2.3F ....|G-3 2.3F ....|G-3 2.3F ....
....|..|G-3 2.3F ....|G-3 2.3F ....|G-3 2.3F ....
....|..|D#4 2.9F ....|D#4 2.9F ....|D#4 2.9F ....
....|..|D#4 2.9F ....|D#4 2.9F ....|D#4 2.9F ....
....|..|D#4 2.9F ....|D#4 2.9F ....|D#4 2.9F ....
....|..|D#4 2.9F ....|D#4 2.9F ....|D#4 2.9F ....
....|..|G-3 2.AF ....|G-3 2.AF ....|G-3 2.AF ....
....|..|G-3 2.AF ....|G-3 2.AF ....|G-3 2.AF ....
....|..|G-3 2.AF ....|G-3 2.AF ....|G-3 2.AF ....
....|..|G-3 2.AF ....|G-3 2.AF ....|G-3 2.AF ....
....|..|C-4 2.BF ....|C-4 2.BF ....|C-4 2.BF ....
....|..|C-4 2.BF ....|C-4 2.BF ....|C-4 2.BF ....
....|..|C-4 2.BF ....|C-4 2.BF ....|C-4 2.BF ....
....|..|C-4 2.BF ....|C-4 2.BF ....|C-4 2.BF ....
....|..|G-3 2.3F ....|G-3 2.3F ....|G-3 2.3F ....
....|..|G-3 2.3F ....|G-3 2.3F ....|G-3 2.3F ....
....|..|G-3 2.3F ....|G-3 2.3F ....|G-3 2.3F ....
....|..|G-3 2.3F ....|G-3 2.3F ....|G-3 2.3F ....

[Pattern2]
....|..|G-2 2.3F ....|G-2 2.3F ....|G-2 2.3F ....
....|..|G-2 2.3F ....|G-2 2.3F ....|G-2 2.3F ....
....|..|G-2 2.3F ....|G-2 2.3F ....|G-2 2.3F ....
....|..|G-2 2.3F ....|G-2 2.3F ....|G-2 2.3F ....
....|..|D-3 2.3F ....|D-3 2.3F ....|D-3 2.3F ....
....|..|D-3 2.3F ....|D-3 2.3F ....|D-3 2.3F ....
....|..|D-3 2.3F ....|D-3 2.3F ....|D-3 2.3F ....
....|..|D-3 2.3F ....|D-3 2.3F ....|D-3 2.3F ....
....|..|G-3 2.6F ....|G-3 2.6F ....|G-3 2.6F ....
....|..|G-3 2.6F ....|G-3 2.6F ....|G-3 2.6F ....
....|..|G-3 2.6F ....|G-3 2.6F ....|G-3 2.6F ....
....|..|G-3 2.3F ....|G-3 2.3F ....|G-3 2.3F ....
....|..|G-3 2.7F ....|G-3 2.7F ....|G-3 2.7F ....
....|..|G-3 2.7F ....|G-3 2.7F ....|G-3 2.7F ....
....|..|G-3 2.7F ....|G-3 2.7F ....|G-3 2.7F ....
....|..|F-2 2.3F ....|F-2 2.3F ....|F-2 2.3F ....
....|..|F-2 2.3F ....|F-2 2.3F ....|F-2 2.3F ....
....|..|F-2 2.3F ....|F-2 2.3F ....|F-2 2.3F ....
....|..|F-2 2.3F ....|F-2 2.3F ....|F-2 2.3F ....
....|..|R-- .... ....|R-- .... ....|R-- .... ....
....|..|C-3 2.3F ....|C-3 2.3F ....|C-3 2.3F ....
....|..|C-3 2.3F ....|C-3 2.3F ....|C-3 2.3F ....
....|..|C-3 2.3F ....|C-3 2.3F ....|C-3 2.3F ....
....|..|R-- .... ....|R-- .... ....|R-- .... ....
....|..|F-3 2.6F ....|F-3 2.6F ....|F-3 2.6F ....
....|..|F-3 2.6F ....|F-3 2.6F ....|F-3 2.6F ....
....|..|F-3 2.6F ....|F-3 2.6F ....|F-3 2.6F ....
....|..|F-3 2.3F ....|F-3 2.3F ....|F-3 2.3F ....
....|..|F-3 2.7F ....|F-3 2.7F ....|F-3 2.7F ....
....|..|F-3 2.7F ....|F-3 2.7F ....|F-3 2.7F ....
....|..|F-3 2.7F ....|F-3 2.7F ....|F-3 2.7F ....
....|..|D#2 2.3F ....|D#2 2.3F ....|D#2 2.3F ....
....|..|D#2 2.3F ....|D#2 2.3F ....|D#2 2.3F ....
....|..|D#2 2.3F ....|D#2 2.3F ....|D#2 2.3F ....
....|..|D#2 2.3F ....|D#2 2.3F ....|D#2 2.3F ....
....|..|R-- .... ....|R-- .... ....|R-- .... ....
....|..|A#2 2.3F ....|A#2 2.3F ....|A#2 2.3F ....
....|..|A#2 2.3F ....|A#2 2.3F ....|A#2 2.3F ....
....|..|A#2 2.3F ....|A#2 2.3F ....|A#2 2.3F ....
....|..|R-- .... ....|R-- .... ....|R-- .... ....
....|..|D#3 2.CF ....|D#3 2.CF ....|D#3 2.CF ....
....|..|D#3 2.CF ....|D#3 2.CF ....|D#3 2.CF ....
....|..|D#3 2.CF ....|D#3 2.CF ....|D#3 2.CF ....
....|..|D#3 2.3F ....|D#3 2.3F ....|D#3 2.3F ....
....|..|D#3 2.DF ....|D#3 2.DF ....|D#3 2.DF ....
....|..|D#3 2.DF ....|D#3 2.DF ....|D#3 2.DF ....
....|..|D#3 2.DF ....|D#3 2.DF ....|D#3 2.DF ....
....|..|D-2 2.3F ....|D-2 2.3F ....|D-2 2.3F ....
....|..|D-2 2.3F ....|D-2 2.3F ....|D-2 2.3F ....
....|..|D-2 2.3F ....|D-2 2.3F ....|D-2 2.3F ....
....|..|D-2 2.3F ....|D-2 2.3F ....|D-2 2.3F ....
....|..|R-- .... ....|R-- .... ....|R-- .... ....
....|..|A-2 2.3F ....|A-2 2.3F ....|A-2 2.3F ....
....|..|A-2 2.3F ....|A-2 2.3F ....|A-2 2.3F ....
....|..|A-2 2.3F ....|A-2 2.3F ....|A-2 2.3F ....
....|..|R-- .... ....|R-- .... ....|R-- .... ....
....|..|D-3 2.1F ....|D-3 2.1F ....|D-3 2.1F ....
....|..|D-3 2.1F ....|D-3 2.1F ....|D-3 2.1F ....
....|..|D-3 2.1F ....|D-3 2.1F ....|D-3 2.1F ....
....|..|D-3 2.3F ....|D-3 2.3F ....|D-3 2.3F ....
....|..|D-3 2.BF ....|D-3 2.BF ....|D-3 2.BF ....
....|..|D-3 2.BF ....|D-3 2.BF ....|D-3 2.BF ....
....|..|D-3 2.BF ....|D-3 2.BF ....|D-3 2.BF ....
....|..|C-2 2.EF ....|C-2 2.EF ....|C-2 2.EF ....

[Pattern3]
....|..|C-2 2.EF ....|C-2 2.EF ....|C-2 2.EF ....
....|..|C-2 2.EF ....|C-2 2.EF ....|C-2 2.EF ....
....|..|C-2 2.EF ....|C-2 2.EF ....|C-2 2.EF ....
....|..|C-2 2.3F ....|C-2 2.3F ....|C-2 2.3F ....
....|..|G-2 2.FF ....|G-2 2.FF ....|G-2 2.FF ....
....|..|G-2 2.FF ....|G-2 2.FF ....|G-2 2.FF ....
....|..|G-2 2.FF ....|G-2 2.FF ....|G-2 2.FF ....
....|..|G-2 2.3F ....|G-2 2.3F ....|G-2 2.3F ....
....|..|C-3 2.3F ....|C-3 2.3F ....|C-3 2.3F ....
....|..|C-3 2.3F ....|C-3 2.3F ....|C-3 2.3F ....
....|..|C-3 2.3F ....|C-3 2.3F ....|C-3 2.3F ....
....|..|C-3 2.3F ....|C-3 2.3F ....|C-3 2.3F ....
....|..|G-2 2.3F ....|G-2 2.3F ....|G-2 2.3F ....
....|..|G-2 2.3F ....|G-2 2.3F ....|G-2 2.3F ....
....|..|G-2 2.3F ....|G-2 2.3F ....|G-2 2.3F ....
....|..|G-2 2.3F ....|G-2 2.3F ....|G-2 2.3F ....
....|..|D#3 2.3F ....|D#3 2.3F ....|D#3 2.3F ....
....|..|D#3 2.3F ....|D#3 2.3F ....|D#3 2.3F ....
....|..|D#3 2.3F ....|D#3 2.3F ....|D#3 2.3F ....
....|..|D#3 2.3F ....|D#3 2.3F ....|D#3 2.3F ....
....|..|G-2 2.3F ....|G-2 2.3F ....|G-2 2.3F ....
....|..|G-2 2.3F ....|G-2 2.3F ....|G-2 2.3F ....
....|..|G-2 2.3F ....|G-2 2.3F ....|G-2 2.3F ....
....|..|G-2 2.3F ....|G-2 2.3F ....|G-2 2.3F ....
....|..|C-3 2..F ....|C-3 2..F ....|C-3 2..F ....
....|..|C-3 2..F ....|C-3 2..F ....|C-3 2..F ....
....|..|C-3 2.4F ....|C-3 2.4F ....|C-3 2.4F ....
....|..|C-3 2.3F ....|C-3 2.3F ....|C-3 2.3F ....
....|..|G-2 2..F ....|G-2 2..F ....|G-2 2..F ....
....|..|G-2 2..F ....|G-2 2..F ....|G-2 2..F ....
....|..|G-2 2..F ....|G-2 2..F ....|G-2 2..F ....
....|..|G-2 2.3F ....|G-2 2.3F ....|G-2 2.3F ....
....|..|C-2 2.EF ....|C-2 2.EF ....|C-2 2.EF ....
....|..|C-2 2.EF ....|C-2 2.EF ....|C-2 2.EF ....
....|..|C-2 2.EF ....|C-2 2.EF ....|C-2 2.EF ....
....|..|C-2 2.EF ....|C-2 2.EF ....|C-2 2.EF ....
....|..|G-2 2.1F ....|G-2 2.1F ....|G-2 2.1F ....
....|..|G-2 2.1F ....|G-2 2.1F ....|G-2 2.1F ....
....|..|G-2 2.1F ....|G-2 2.1F ....|G-2 2.1F ....
....|..|G-2 2.1F ....|G-2 2.1F ....|G-2 2.1F ....
....|..|C-3 2.4F ....|C-3 2.4F ....|C-3 2.4F ....
....|..|C-3 2.4F ....|C-3 2.4F ....|C-3 2.4F ....
....|..|C-3 2.4F ....|C-3 2.4F ....|C-3 2.4F ....
....|..|C-3 2.4F ....|C-3 2.4F ....|C-3 2.4F ....
....|..|G-2 2.3F ....|G-2 2.3F ....|G-2 2.3F ....
....|..|G-2 2.3F ....|G-2 2.3F ....|G-2 2.3F ....
....|..|G-2 2.3F ....|G-2 2.3F ....|G-2 2.3F ....
....|..|G-2 2.3F ....|G-2 2.3F ....|G-2 2.3F ....
....|..|D#3 2.6F ....|D#3 2.6F ....|D#3 2.6F ....
....|..|D#3 2.6F ....|D#3 2.6F ....|D#3 2.6F ....
....|..|D#3 2.6F ....|D#3 2.6F ....|D#3 2.6F ....
....|..|D#3 2.6F ....|D#3 2.6F ....|D#3 2.6F ....
....|..|G-2 2.2F ....|G-2 2.2F ....|G-2 2.2F ....
....|..|G-2 2.2F ....|G-2 2.2F ....|G-2 2.2F ....
....|..|G-2 2.2F ....|G-2 2.2F ....|G-2 2.2F ....
....|..|G-2 2.2F ....|G-2 2.2F ....|G-2 2.2F ....
....|..|C-3 2.8F ....|C-3 2.8F ....|C-3 2.8F ....
....|..|C-3 2.8F ....|C-3 2.8F ....|C-3 2.8F ....
....|..|C-3 2.8F ....|C-3 2.8F ....|C-3 2.8F ....
....|..|C-3 2.8F ....|C-3 2.8F ....|C-3 2.8F ....
....|..|G-2 2.3F ....|G-2 2.3F ....|G-2 2.3F ....
....|..|G-2 2.3F ....|G-2 2.3F ....|G-2 2.3F ....
....|..|G-2 2.3F ....|G-2 2.3F ....|G-2 2.3F ....
....|..|R-- .... ....|R-- .... ....|R-- .... ....

[Pattern4]
....|..|G-2 2.1F ....|G-2 2.1F ....|G-2 2.1F ....
....|..|G-2 2.1F ....|G-2 2.1F ....|G-2 2.1F ....
....|..|G-2 2.1F ....|G-2 2.1F ....|G-2 2.1F ....
....|..|G-2 2.3F ....|G-2 2.3F ....|G-2 2.3F ....
....|..|D-3 2.2F ....|D-3 2.2F ....|D-3 2.2F ....
....|..|D-3 2.2F ....|D-3 2.2F ....|D-3 2.2F ....
....|..|D-3 2.2F ....|D-3 2.2F ....|D-3 2.2F ....
....|..|D-3 2.2F ....|D-3 2.2F ....|D-3 2.2F ....
....|..|G-3 2.3F ....|G-3 2.3F ....|G-3 2.3F ....
....|..|G-3 2.3F ....|G-3 2.3F ....|G-3 2.3F ....
....|..|G-3 2.3F ....|G-3 2.3F ....|G-3 2.3F ....
....|..|G-3 2.3F ....|G-3 2.3F ....|G-3 2.3F ....
....|..|R-- .... ....|R-- .... ....|R-- .... ....
....|..|R-- .... ....|R-- .... ....|R-- .... ....
....|..|R-- .... ....|R-- .... ....|R-- .... ....
....|..|R-- .... ....|R-- .... ....|R-- .... ....
....|..|G-5 2.3F ....|G-5 2.3F ....|G-5 2.3F ....
....|..|G-5 2.3F ....|G-5 2.3F ....|G-5 2.3F ....
....|..|G-5 2.3F ....|G-5 2.3F ....|G-5 2.3F ....
....|..|R-- .... ....|R-- .... ....|R-- .... ....
....|..|G-5 2.3F ....|G-5 2.3F ....|G-5 2.3F ....
....|..|G-5 2.3F ....|G-5 2.3F ....|G-5 2.3F ....
....|..|G-5 2.3F ....|G-5 2.3F ....|G-5 2.3F ....
....|..|G-5 2.3F ....|G-5 2.3F ....|G-5 2.3F ....
....|..|R-- .... ....|R-- .... ....|R-- .... ....
....|..|R-- .... ....|R-- .... ....|R-- .... ....
....|..|R-- .... ....|R-- .... ....|R-- .... ....
....|..|R-- .... ....|R-- .... ....|R-- .... ....
....|..|R-- .... ....|R-- .... ....|R-- .... ....
....|..|R-- .... ....|R-- .... ....|R-- .... ....
....|..|R-- .... ....|R-- .... ....|R-- .... ....
....|..|R-- .... ....|R-- .... ....|R-- .... ....
....|..|A#2 2.1F ....|A#2 2.1F ....|A#2 2.1F ....
....|..|A#2 2.1F ....|A#2 2.1F ....|A#2 2.1F ....
....|..|A#2 2.1F ....|A#2 2.1F ....|A#2 2.1F ....
....|..|R-- .... ....|R-- .... ....|R-- .... ....
....|..|F-3 2.2F ....|F-3 2.2F ....|F-3 2.2F ....
....|..|F-3 2.2F ....|F-3 2.2F ....|F-3 2.2F ....
....|..|F-3 2.2F ....|F-3 2.2F ....|F-3 2.2F ....
....|..|A#4 2.3F ....|A#4 2.3F ....|A#4 2.3F ....
....|..|A#3 2.3F ....|A#3 2.3F ....|A#3 2.3F ....
....|..|A#3 2.3F ....|A#3 2.3F ....|A#3 2.3F ....
....|..|A#3 2.3F ....|A#3 2.3F ....|A#3 2.3F ....
....|..|R-- .... ....|R-- .... ....|R-- .... ....
....|..|R-- .... ....|R-- .... ....|R-- .... ....
....|..|R-- .... ....|R-- .... ....|R-- .... ....
....|..|R-- .... ....|R-- .... ....|R-- .... ....
....|..|R-- .... ....|R-- .... ....|R-- .... ....
....|..|A#5 2.3F ....|A#5 2.3F ....|A#5 2.3F ....
....|..|A#5 2.3F ....|A#5 2.3F ....|A#5 2.3F ....
....|..|A#5 2.3F ....|A#5 2.3F ....|A#5 2.3F ....
....|..|R-- .... ....|R-- .... ....|R-- .... ....
....|..|A#5 2.3F ....|A#5 2.3F ....|A#5 2.3F ....
....|..|A#5 2.3F ....|A#5 2.3F ....|A#5 2.3F ....
....|..|A#5 2.3F ....|A#5 2.3F ....|A#5 2.3F ....
....|..|A#5 2.3F ....|A#5 2.3F ....|A#5 2.3F ....
....|..|R-- .... ....|R-- .... ....|R-- .... ....
....|..|R-- .... ....|R-- .... ....|R-- .... ....
....|..|R-- .... ....|R-- .... ....|R-- .... ....
....|..|R-- .... ....|R-- .... ....|R-- .... ....
....|..|R-- .... ....|R-- .... ....|R-- .... ....
....|..|R-- .... ....|R-- .... ....|R-- .... ....
....|..|R-- .... ....|R-- .... ....|R-- .... ....
....|..|R-- .... ....|R-- .... ....|R-- .... ....

[Pattern6]
....|..|G-2 2.3F ....|G-2 2.3F ....|G-2 2.3F ....
....|..|G-2 2.3F ....|G-2 2.3F ....|G-2 2.3F ....
....|..|G-2 2.3F ....|G-2 2.3F ....|G-2 2.3F ....
....|..|G-2 2.3F ....|G-2 2.3F ....|G-2 2.3F ....
....|..|D-3 2.3F ....|D-3 2.3F ....|D-3 2.3F ....
....|..|D-3 2.3F ....|D-3 2.3F ....|D-3 2.3F ....
....|..|D-3 2.3F ....|D-3 2.3F ....|D-3 2.3F ....
....|..|D-3 2.3F ....|D-3 2.3F ....|D-3 2.3F ....
....|..|G-3 2.1F ....|G-3 2.1F ....|G-3 2.1F ....
....|..|G-3 2.1F ....|G-3 2.1F ....|G-3 2.1F ....
....|..|G-3 2.1F ....|G-3 2.1F ....|G-3 2.1F ....
....|..|G-3 2.3F ....|G-3 2.3F ....|G-3 2.3F ....
....|..|G-3 2.BF ....|G-3 2.BF ....|G-3 2.BF ....
....|..|G-3 2.BF ....|G-3 2.BF ....|G-3 2.BF ....
....|..|G-3 2.BF ....|G-3 2.BF ....|G-3 2.BF ....
....|..|F-2 2.3F ....|F-2 2.3F ....|F-2 2.3F ....
....|..|F-2 2.3F ....|F-2 2.3F ....|F-2 2.3F ....
....|..|F-2 2.3F ....|F-2 2.3F ....|F-2 2.3F ....
....|..|F-2 2.3F ....|F-2 2.3F ....|F-2 2.3F ....
....|..|R-- .... ....|R-- .... ....|R-- .... ....
....|..|C-3 2.3F ....|C-3 2.3F ....|C-3 2.3F ....
....|..|C-3 2.3F ....|C-3 2.3F ....|C-3 2.3F ....
....|..|C-3 2.3F ....|C-3 2.3F ....|C-3 2.3F ....
....|..|R-- .... ....|R-- .... ....|R-- .... ....
....|..|F-3 2.6F ....|F-3 2.6F ....|F-3 2.6F ....
....|..|F-3 2.6F ....|F-3 2.6F ....|F-3 2.6F ....
....|..|F-3 2.6F ....|F-3 2.6F ....|F-3 2.6F ....
....|..|F-3 2.3F ....|F-3 2.3F ....|F-3 2.3F ....
....|..|F-3 2.7F ....|F-3 2.7F ....|F-3 2.7F ....
....|..|F-3 2.7F ....|F-3 2.7F ....|F-3 2.7F ....
....|..|F-3 2.7F ....|F-3 2.7F ....|F-3 2.7F ....
....|..|D#2 2.3F ....|D#2 2.3F ....|D#2 2.3F ....
....|..|D#2 2.3F ....|D#2 2.3F ....|D#2 2.3F ....
....|..|D#2 2.3F ....|D#2 2.3F ....|D#2 2.3F ....
....|..|D#2 2.3F ....|D#2 2.3F ....|D#2 2.3F ....
....|..|R-- .... ....|R-- .... ....|R-- .... ....
....|..|A#2 2.3F ....|A#2 2.3F ....|A#2 2.3F ....
....|..|A#2 2.3F ....|A#2 2.3F ....|A#2 2.3F ....
....|..|A#2 2.3F ....|A#2 2.3F ....|A#2 2.3F ....
....|..|R-- .... ....|R-- .... ....|R-- .... ....
....|..|D#3 2.3F ....|D#3 2.3F ....|D#3 2.3F ....
....|..|D#3 2.3F ....|D#3 2.3F ....|D#3 2.3F ....
....|..|D#3 2.3F ....|D#3 2.3F ....|D#3 2.3F ....
....|..|D#3 2.3F ....|D#3 2.3F ....|D#3 2.3F ....
....|..|D#3 2.4F ....|D#3 2.4F ....|D#3 2.4F ....
....|..|D#3 2.4F ....|D#3 2.4F ....|D#3 2.4F ....
....|..|D#3 2.4F ....|D#3 2.4F ....|D#3 2.4F ....
....|..|D-2 2.3F ....|D-2 2.3F ....|D-2 2.3F ....
....|..|D-2 2.3F ....|D-2 2.3F ....|D-2 2.3F ....
....|..|D-2 2.3F ....|D-2 2.3F ....|D-2 2.3F ....
....|..|D-2 2.3F ....|D-2 2.3F ....|D-2 2.3F ....
....|..|R-- .... ....|R-- .... ....|R-- .... ....
....|..|A-2 2.3F ....|A-2 2.3F ....|A-2 2.3F ....
....|..|A-2 2.3F ....|A-2 2.3F ....|A-2 2.3F ....
....|..|A-2 2.3F ....|A-2 2.3F ....|A-2 2.3F ....
....|..|R-- .... ....|R-- .... ....|R-- .... ....
....|..|D-3 2.9F ....|D-3 2.9F ....|D-3 2.9F ....
....|..|D-3 2.9F ....|D-3 2.9F ....|D-3 2.9F ....
....|..|D-3 2.9F ....|D-3 2.9F ....|D-3 2.9F ....
....|..|D-3 2.3F ....|D-3 2.3F ....|D-3 2.3F ....
....|..|D-3 2.2F ....|D-3 2.2F ....|D-3 2.2F ....
....|..|D-3 2.2F ....|D-3 2.2F ....|D-3 2.2F ....
....|..|D-3 2.2F ....|D-3 2.2F ....|D-3 2.2F ....
....|..|C-2 2.EF ....|C-2 2.EF ....|C-2 2.EF ....

[Pattern10]
....|..|G-2 2.3F ....|G-2 2.3F ....|G-2 2.3F ....
....|..|G-2 2.3F ....|G-2 2.3F ....|G-2 2.3F ....
....|..|G-2 2.3F ....|G-2 2.3F ....|G-2 2.3F ....
....|..|G-2 2.3F ....|G-2 2.3F ....|G-2 2.3F ....
....|..|D-3 2.3F ....|D-3 2.3F ....|D-3 2.3F ....
....|..|D-3 2.3F ....|D-3 2.3F ....|D-3 2.3F ....
....|..|D-3 2.3F ....|D-3 2.3F ....|D-3 2.3F ....
....|..|D-3 2.3F ....|D-3 2.3F ....|D-3 2.3F ....
....|..|G-3 2.6F ....|G-3 2.6F ....|G-3 2.6F ....
....|..|G-3 2.6F ....|G-3 2.6F ....|G-3 2.6F ....
....|..|G-3 2.6F ....|G-3 2.6F ....|G-3 2.6F ....
....|..|G-3 2.3F ....|G-3 2.3F ....|G-3 2.3F ....
....|..|G-3 2.7F ....|G-3 2.7F ....|G-3 2.7F ....
....|..|G-3 2.7F ....|G-3 2.7F ....|G-3 2.7F ....
....|..|G-3 2.7F ....|G-3 2.7F ....|G-3 2.7F ....
....|..|F-2 2.3F ....|F-2 2.3F ....|F-2 2.3F ....
....|..|F-2 2.3F ....|F-2 2.3F ....|F-2 2.3F ....
....|..|F-2 2.3F ....|F-2 2.3F ....|F-2 2.3F ....
....|..|F-2 2.3F ....|F-2 2.3F ....|F-2 2.3F ....
....|..|R-- .... ....|R-- .... ....|R-- .... ....
....|..|C-3 2.3F ....|C-3 2.3F ....|C-3 2.3F ....
....|..|C-3 2.3F ....|C-3 2.3F ....|C-3 2.3F ....
....|..|C-3 2.3F ....|C-3 2.3F ....|C-3 2.3F ....
....|..|R-- .... ....|R-- .... ....|R-- .... ....
....|..|F-3 2.6F ....|F-3 2.6F ....|F-3 2.6F ....
....|..|F-3 2.6F ....|F-3 2.6F ....|F-3 2.6F ....
....|..|F-3 2.6F ....|F-3 2.6F ....|F-3 2.6F ....
....|..|F-3 2.3F ....|F-3 2.3F ....|F-3 2.3F ....
....|..|F-3 2.7F ....|F-3 2.7F ....|F-3 2.7F ....
....|..|F-3 2.7F ....|F-3 2.7F ....|F-3 2.7F ....
....|..|F-3 2.7F ....|F-3 2.7F ....|F-3 2.7F ....
....|..|D#2 2.3F ....|D#2 2.3F ....|D#2 2.3F ....
....|..|D#2 2.3F ....|D#2 2.3F ....|D#2 2.3F ....
....|..|D#2 2.3F ....|D#2 2.3F ....|D#2 2.3F ....
....|..|D#2 2.3F ....|D#2 2.3F ....|D#2 2.3F ....
....|..|R-- .... ....|R-- .... ....|R-- .... ....
....|..|A#2 2.3F ....|A#2 2.3F ....|A#2 2.3F ....
....|..|A#2 2.3F ....|A#2 2.3F ....|A#2 2.3F ....
....|..|A#2 2.3F ....|A#2 2.3F ....|A#2 2.3F ....
....|..|R-- .... ....|R-- .... ....|R-- .... ....
....|..|D#3 2.CF ....|D#3 2.CF ....|D#3 2.CF ....
....|..|D#3 2.CF ....|D#3 2.CF ....|D#3 2.CF ....
....|..|D#3 2.CF ....|D#3 2.CF ....|D#3 2.CF ....
....|..|D#3 2.3F ....|D#3 2.3F ....|D#3 2.3F ....
....|..|D#3 2.DF ....|D#3 2.DF ....|D#3 2.DF ....
....|..|D#3 2.DF ....|D#3 2.DF ....|D#3 2.DF ....
....|..|D#3 2.DF ....|D#3 2.DF ....|D#3 2.DF ....
....|..|D-2 2.3F ....|D-2 2.3F ....|D-2 2.3F ....
....|..|D-2 2.3F ....|D-2 2.3F ....|D-2 2.3F ....
....|..|D-2 2.3F ....|D-2 2.3F ....|D-2 2.3F ....
....|..|D-2 2.3F ....|D-2 2.3F ....|D-2 2.3F ....
....|..|R-- .... ....|R-- .... ....|R-- .... ....
....|..|A-2 2.3F ....|A-2 2.3F ....|A-2 2.3F ....
....|..|A-2 2.3F ....|A-2 2.3F ....|A-2 2.3F ....
....|..|A-2 2.3F ....|A-2 2.3F ....|A-2 2.3F ....
....|..|R-- .... ....|R-- .... ....|R-- .... ....
....|..|D-3 2.1F ....|D-3 2.1F ....|D-3 2.1F ....
....|..|D-3 2.1F ....|D-3 2.1F ....|D-3 2.1F ....
....|..|D-3 2.1F ....|D-3 2.1F ....|D-3 2.1F ....
....|..|D-3 2.3F ....|D-3 2.3F ....|D-3 2.3F ....
....|..|D-3 2.BF ....|D-3 2.BF ....|D-3 2.BF ....
....|..|D-3 2.BF ....|D-3 2.BF ....|D-3 2.BF ....
....|..|D-3 2.BF ....|D-3 2.BF ....|D-3 2.BF ....
....|..|C-2 2.5F ....|C-2 2.5F ....|C-2 2.5F ....

[Pattern11]
....|..|C-2 2.5F ....|C-2 2.5F ....|C-2 2.5F ....
....|..|C-2 2.5F ....|C-2 2.5F ....|C-2 2.5F ....
....|..|C-2 2.5F ....|C-2 2.5F ....|C-2 2.5F ....
....|..|C-2 2.6F ....|C-2 2.6F ....|C-2 2.6F ....
....|..|C-2 2.7F ....|C-2 2.7F ....|C-2 2.7F ....
....|..|C-2 2.7F ....|C-2 2.7F ....|C-2 2.7F ....
....|..|C-2 2.7F ....|C-2 2.7F ....|C-2 2.7F ....
....|..|C-2 2.6F ....|C-2 2.6F ....|C-2 2.6F ....
....|..|C-2 2.5F ....|C-2 2.5F ....|C-2 2.5F ....
....|..|C-2 2.5F ....|C-2 2.5F ....|C-2 2.5F ....
....|..|C-2 2.5F ....|C-2 2.5F ....|C-2 2.5F ....
....|..|C-2 2.6F ....|C-2 2.6F ....|C-2 2.6F ....
....|..|C-2 2.7F ....|C-2 2.7F ....|C-2 2.7F ....
....|..|C-2 2.7F ....|C-2 2.7F ....|C-2 2.7F ....
....|..|C-2 2.7F ....|C-2 2.7F ....|C-2 2.7F ....
....|..|C-2 2.5F ....|C-2 2.5F ....|C-2 2.5F ....
....|..|C-2 2.5F ....|C-2 2.5F ....|C-2 2.5F ....
....|..|C-2 2.5F ....|C-2 2.5F ....|C-2 2.5F ....
....|..|C-2 2.5F ....|C-2 2.5F ....|C-2 2.5F ....
....|..|C-2 2.6F ....|C-2 2.6F ....|C-2 2.6F ....
....|..|C-2 2.7F ....|C-2 2.7F ....|C-2 2.7F ....
....|..|C-2 2.7F ....|C-2 2.7F ....|C-2 2.7F ....
....|..|C-2 2.7F ....|C-2 2.7F ....|C-2 2.7F ....
....|..|C-2 2.6F ....|C-2 2.6F ....|C-2 2.6F ....
....|..|C-2 2.5F ....|C-2 2.5F ....|C-2 2.5F ....
....|..|C-2 2.5F ....|C-2 2.5F ....|C-2 2.5F ....
....|..|C-2 2.5F ....|C-2 2.5F ....|C-2 2.5F ....
....|..|C-2 2.6F ....|C-2 2.6F ....|C-2 2.6F ....
....|..|C-2 2.7F ....|C-2 2.7F ....|C-2 2.7F ....
....|..|C-2 2.7F ....|C-2 2.7F ....|C-2 2.7F ....
....|..|C-2 2.7F ....|C-2 2.7F ....|C-2 2.7F ....
....|..|C-2 2.5F ....|C-2 2.5F ....|C-2 2.5F ....
....|..|C-2 2.5F ....|C-2 2.5F ....|C-2 2.5F ....
....|..|C-2 2.5F ....|C-2 2.5F ....|C-2 2.5F ....
....|..|C-2 2.5F ....|C-2 2.5F ....|C-2 2.5F ....
....|..|C-2 2.6F ....|C-2 2.6F ....|C-2 2.6F ....
....|..|C-2 2.7F ....|C-2 2.7F ....|C-2 2.7F ....
....|..|C-2 2.7F ....|C-2 2.7F ....|C-2 2.7F ....
....|..|C-2 2.7F ....|C-2 2.7F ....|C-2 2.7F ....
....|..|C-2 2.6F ....|C-2 2.6F ....|C-2 2.6F ....
....|..|C-2 2.5F ....|C-2 2.5F ....|C-2 2.5F ....
....|..|C-2 2.5F ....|C-2 2.5F ....|C-2 2.5F ....
....|..|C-2 2.5F ....|C-2 2.5F ....|C-2 2.5F ....
....|..|C-2 2.6F ....|C-2 2.6F ....|C-2 2.6F ....
....|..|C-2 2.7F ....|C-2 2.7F ....|C-2 2.7F ....
....|..|C-2 2.7F ....|C-2 2.7F ....|C-2 2.7F ....
....|..|C-2 2.7F ....|C-2 2.7F ....|C-2 2.7F ....
....|..|F-2 2.3F ....|F-2 2.3F ....|F-2 2.3F ....
....|..|F-2 2.3F ....|F-2 2.3F ....|F-2 2.3F ....
....|..|F-2 2.3F ....|F-2 2.3F ....|F-2 2.3F ....
....|..|F-2 2.3F ....|F-2 2.3F ....|F-2 2.3F ....
....|..|R-- .... ....|R-- .... ....|R-- .... ....
....|..|G-2 2.3F ....|G-2 2.3F ....|G-2 2.3F ....
....|..|G-2 2.3F ....|G-2 2.3F ....|G-2 2.3F ....
....|..|G-2 2.3F ....|G-2 2.3F ....|G-2 2.3F ....
....|..|R-- .... ....|R-- .... ....|R-- .... ....
....|..|D-2 2.3F ....|D-2 2.3F ....|D-2 2.3F ....
....|..|D-2 2.3F ....|D-2 2.3F ....|D-2 2.3F ....
....|..|D-2 2.3F ....|D-2 2.3F ....|D-2 2.3F ....
....|..|R-- .... ....|R-- .... ....|R-- .... ....
....|..|F-2 2.3F ....|F-2 2.3F ....|F-2 2.3F ....
....|..|F-2 2.3F ....|F-2 2.3F ....|F-2 2.3F ....
....|..|F-2 2.3F ....|F-2 2.3F ....|F-2 2.3F ....
....|..|R-- .... ....|R-- .... ....|R-- .... ....

[Pattern12]
....|..|G-2 2.1F ....|G-2 2.1F ....|G-2 2.1F ....
....|..|G-2 2.1F ....|G-2 2.1F ....|G-2 2.1F ....
....|..|G-2 2.1F ....|G-2 2.1F ....|G-2 2.1F ....
....|..|R-- .... ....|R-- .... ....|R-- .... ....
....|..|D-3 2.2F ....|D-3 2.2F ....|D-3 2.2F ....
....|..|D-3 2.2F ....|D-3 2.2F ....|D-3 2.2F ....
....|..|D-3 2.2F ....|D-3 2.2F ....|D-3 2.2F ....
....|..|R-- .... ....|R-- .... ....|R-- .... ....
....|..|G-3 2.6F ....|G-3 2.6F ....|G-3 2.6F ....
....|..|G-3 2.6F ....|G-3 2.6F ....|G-3 2.6F ....
....|..|G-3 2.6F ....|G-3 2.6F ....|G-3 2.6F ....
....|..|G-3 2.3F ....|G-3 2.3F ....|G-3 2.3F ....
....|..|G-3 2.7F ....|G-3 2.7F ....|G-3 2.7F ....
....|..|G-3 2.7F ....|G-3 2.7F ....|G-3 2.7F ....
....|..|G-3 2.7F ....|G-3 2.7F ....|G-3 2.7F ....
....|..|F-2 2.8F ....|F-2 2.8F ....|F-2 2.8F ....
....|..|F-2 2.8F ....|F-2 2.8F ....|F-2 2.8F ....
....|..|F-2 2.8F ....|F-2 2.8F ....|F-2 2.8F ....
....|..|F-2 2.8F ....|F-2 2.8F ....|F-2 2.8F ....
....|..|R-- .... ....|R-- .... ....|R-- .... ....
....|..|C-3 2.6F ....|C-3 2.6F ....|C-3 2.6F ....
....|..|C-3 2.6F ....|C-3 2.6F ....|C-3 2.6F ....
....|..|C-3 2.6F ....|C-3 2.6F ....|C-3 2.6F ....
....|..|R-- .... ....|R-- .... ....|R-- .... ....
....|..|F-3 2.6F ....|F-3 2.6F ....|F-3 2.6F ....
....|..|F-3 2.6F ....|F-3 2.6F ....|F-3 2.6F ....
....|..|F-3 2.6F ....|F-3 2.6F ....|F-3 2.6F ....
....|..|F-3 2.3F ....|F-3 2.3F ....|F-3 2.3F ....
....|..|F-3 2.7F ....|F-3 2.7F ....|F-3 2.7F ....
....|..|F-3 2.7F ....|F-3 2.7F ....|F-3 2.7F ....
....|..|F-3 2.7F ....|F-3 2.7F ....|F-3 2.7F ....
....|..|D#2 2.6F ....|D#2 2.6F ....|D#2 2.6F ....
....|..|D#2 2.6F ....|D#2 2.6F ....|D#2 2.6F ....
....|..|D#2 2.6F ....|D#2 2.6F ....|D#2 2.6F ....
....|..|D#2 2.6F ....|D#2 2.6F ....|D#2 2.6F ....
....|..|R-- .... ....|R-- .... ....|R-- .... ....
....|..|A#2 2.1F ....|A#2 2.1F ....|A#2 2.1F ....
....|..|A#2 2.1F ....|A#2 2.1F ....|A#2 2.1F ....
....|..|A#2 2.1F ....|A#2 2.1F ....|A#2 2.1F ....
....|..|R-- .... ....|R-- .... ....|R-- .... ....
....|..|D#3 2.CF ....|D#3 2.CF ....|D#3 2.CF ....
....|..|D#3 2.CF ....|D#3 2.CF ....|D#3 2.CF ....
....|..|D#3 2.CF ....|D#3 2.CF ....|D#3 2.CF ....
....|..|D#3 2.3F ....|D#3 2.3F ....|D#3 2.3F ....
....|..|D#3 2.DF ....|D#3 2.DF ....|D#3 2.DF ....
....|..|D#3 2.DF ....|D#3 2.DF ....|D#3 2.DF ....
....|..|D#3 2.DF ....|D#3 2.DF ....|D#3 2.DF ....
....|..|D-2 2.9F ....|D-2 2.9F ....|D-2 2.9F ....
....|..|D-2 2.9F ....|D-2 2.9F ....|D-2 2.9F ....
....|..|D-2 2.9F ....|D-2 2.9F ....|D-2 2.9F ....
....|..|D-2 2.9F ....|D-2 2.9F ....|D-2 2.9F ....
....|..|R-- .... ....|R-- .... ....|R-- .... ....
....|..|A-2 2.AF ....|A-2 2.AF ....|A-2 2.AF ....
....|..|A-2 2.AF ....|A-2 2.AF ....|A-2 2.AF ....
....|..|A-2 2.AF ....|A-2 2.AF ....|A-2 2.AF ....
....|..|R-- .... ....|R-- .... ....|R-- .... ....
....|..|D-3 2.1F ....|D-3 2.1F ....|D-3 2.1F ....
....|..|D-3 2.1F ....|D-3 2.1F ....|D-3 2.1F ....
....|..|D-3 2.1F ....|D-3 2.1F ....|D-3 2.1F ....
....|..|D-3 2.3F ....|D-3 2.3F ....|D-3 2.3F ....
....|..|D-3 2.BF ....|D-3 2.BF ....|D-3 2.BF ....
....|..|D-3 2.BF ....|D-3 2.BF ....|D-3 2.BF ....
....|..|D-3 2.BF ....|D-3 2.BF ....|D-3 2.BF ....
....|..|C-2 2.EF ....|C-2 2.EF ....|C-2 2.EF ....

[Pattern14]
....|..|G-2 2.1F ....|G-2 2.1F ....|G-2 2.1F ....
....|..|G-2 2.1F ....|G-2 2.1F ....|G-2 2.1F ....
....|..|G-2 2.1F ....|G-2 2.1F ....|G-2 2.1F ....
....|..|G-2 2.3F ....|G-2 2.3F ....|G-2 2.3F ....
....|..|D-3 2.2F ....|D-3 2.2F ....|D-3 2.2F ....
....|..|D-3 2.2F ....|D-3 2.2F ....|D-3 2.2F ....
....|..|D-3 2.2F ....|D-3 2.2F ....|D-3 2.2F ....
....|..|D-3 2.3F ....|D-3 2.3F ....|D-3 2.3F ....
....|..|G-3 2.1F ....|G-3 2.1F ....|G-3 2.1F ....
....|..|G-3 2.1F ....|G-3 2.1F ....|G-3 2.1F ....
....|..|G-3 2.1F ....|G-3 2.1F ....|G-3 2.1F ....
....|..|G-3 2.3F ....|G-3 2.3F ....|G-3 2.3F ....
....|..|G-3 2.BF ....|G-3 2.BF ....|G-3 2.BF ....
....|..|G-3 2.BF ....|G-3 2.BF ....|G-3 2.BF ....
....|..|G-3 2.BF ....|G-3 2.BF ....|G-3 2.BF ....
....|..|F-2 2.8F ....|F-2 2.8F ....|F-2 2.8F ....
....|..|F-2 2.8F ....|F-2 2.8F ....|F-2 2.8F ....
....|..|F-2 2.8F ....|F-2 2.8F ....|F-2 2.8F ....
....|..|F-2 2.8F ....|F-2 2.8F ....|F-2 2.8F ....
....|..|R-- .... ....|R-- .... ....|R-- .... ....
....|..|C-3 2.6F ....|C-3 2.6F ....|C-3 2.6F ....
....|..|C-3 2.6F ....|C-3 2.6F ....|C-3 2.6F ....
....|..|C-3 2.6F ....|C-3 2.6F ....|C-3 2.6F ....
....|..|R-- .... ....|R-- .... ....|R-- .... ....
....|..|F-3 2.7F ....|F-3 2.7F ....|F-3 2.7F ....
....|..|F-3 2.7F ....|F-3 2.7F ....|F-3 2.7F ....
....|..|F-3 2.7F ....|F-3 2.7F ....|F-3 2.7F ....
....|..|F-3 2.3F ....|F-3 2.3F ....|F-3 2.3F ....
....|..|F-3 2.7F ....|F-3 2.7F ....|F-3 2.7F ....
....|..|F-3 2.7F ....|F-3 2.7F ....|F-3 2.7F ....
....|..|F-3 2.7F ....|F-3 2.7F ....|F-3 2.7F ....
....|..|D#2 2.6F ....|D#2 2.6F ....|D#2 2.6F ....
....|..|D#2 2.6F ....|D#2 2.6F ....|D#2 2.6F ....
....|..|D#2 2.6F ....|D#2 2.6F ....|D#2 2.6F ....
....|..|D#2 2.6F ....|D#2 2.6F ....|D#2 2.6F ....
....|..|R-- .... ....|R-- .... ....|R-- .... ....
....|..|A#2 2.1F ....|A#2 2.1F ....|A#2 2.1F ....
....|..|A#2 2.1F ....|A#2 2.1F ....|A#2 2.1F ....
....|..|A#2 2.1F ....|A#2 2.1F ....|A#2 2.1F ....
....|..|R-- .... ....|R-- .... ....|R-- .... ....
....|..|D#3 2.3F ....|D#3 2.3F ....|D#3 2.3F ....
....|..|D#3 2.3F ....|D#3 2.3F ....|D#3 2.3F ....
....|..|D#3 2.3F ....|D#3 2.3F ....|D#3 2.3F ....
....|..|D#3 2.3F ....|D#3 2.3F ....|D#3 2.3F ....
....|..|D#3 2.4F ....|D#3 2.4F ....|D#3 2.4F ....
....|..|D#3 2.4F ....|D#3 2.4F ....|D#3 2.4F ....
....|..|D#3 2.4F ....|D#3 2.4F ....|D#3 2.4F ....
....|..|D-2 2.9F ....|D-2 2.9F ....|D-2 2.9F ....
....|..|D-2 2.9F ....|D-2 2.9F ....|D-2 2.9F ....
....|..|D-2 2.9F ....|D-2 2.9F ....|D-2 2.9F ....
....|..|D-2 2.9F ....|D-2 2.9F ....|D-2 2.9F ....
....|..|R-- .... ....|R-- .... ....|R-- .... ....
....|..|A-2 2.AF ....|A-2 2.AF ....|A-2 2.AF ....
....|..|A-2 2.AF ....|A-2 2.AF ....|A-2 2.AF ....
....|..|A-2 2.AF ....|A-2 2.AF ....|A-2 2.AF ....
....|..|R-- .... ....|R-- .... ....|R-- .... ....
....|..|D-3 2.9F ....|D-3 2.9F ....|D-3 2.9F ....
....|..|D-3 2.9F ....|D-3 2.9F ....|D-3 2.9F ....
....|..|D-3 2.9F ....|D-3 2.9F ....|D-3 2.9F ....
....|..|D-3 2.3F ....|D-3 2.3F ....|D-3 2.3F ....
....|..|D-3 2.2F ....|D-3 2.2F ....|D-3 2.2F ....
....|..|D-3 2.2F ....|D-3 2.2F ....|D-3 2.2F ....
....|..|D-3 2.2F ....|D-3 2.2F ....|D-3 2.2F ....
....|..|C-2 2.EF ....|C-2 2.EF ....|C-2 2.EF ....

[Pattern16]
....|..|G-2 2.1F ....|G-2 2.1F ....|G-2 2.1F ....
....|..|G-2 2.1F ....|G-2 2.1F ....|G-2 2.1F ....
....|..|G-2 2.1F ....|G-2 2.1F ....|G-2 2.1F ....
....|..|G-2 2.3F ....|G-2 2.3F ....|G-2 2.3F ....
....|..|D-3 2.2F ....|D-3 2.2F ....|D-3 2.2F ....
....|..|D-3 2.2F ....|D-3 2.2F ....|D-3 2.2F ....
....|..|D-3 2.2F ....|D-3 2.2F ....|D-3 2.2F ....
....|..|D-3 2.3F ....|D-3 2.3F ....|D-3 2.3F ....
....|..|G-3 2.6F ....|G-3 2.6F ....|G-3 2.6F ....
....|..|G-3 2.6F ....|G-3 2.6F ....|G-3 2.6F ....
....|..|G-3 2.6F ....|G-3 2.6F ....|G-3 2.6F ....
....|..|G-3 2.3F ....|G-3 2.3F ....|G-3 2.3F ....
....|..|G-3 2.7F ....|G-3 2.7F ....|G-3 2.7F ....
....|..|G-3 2.7F ....|G-3 2.7F ....|G-3 2.7F ....
....|..|G-3 2.7F ....|G-3 2.7F ....|G-3 2.7F ....
....|..|F-2 2.8F ....|F-2 2.8F ....|F-2 2.8F ....
....|..|F-2 2.8F ....|F-2 2.8F ....|F-2 2.8F ....
....|..|F-2 2.8F ....|F-2 2.8F ....|F-2 2.8F ....
....|..|F-2 2.8F ....|F-2 2.8F ....|F-2 2.8F ....
....|..|R-- .... ....|R-- .... ....|R-- .... ....
....|..|C-3 2.6F ....|C-3 2.6F ....|C-3 2.6F ....
....|..|C-3 2.6F ....|C-3 2.6F ....|C-3 2.6F ....
....|..|C-3 2.6F ....|C-3 2.6F ....|C-3 2.6F ....
....|..|R-- .... ....|R-- .... ....|R-- .... ....
....|..|F-3 2.6F ....|F-3 2.6F ....|F-3 2.6F ....
....|..|F-3 2.6F ....|F-3 2.6F ....|F-3 2.6F ....
....|..|F-3 2.6F ....|F-3 2.6F ....|F-3 2.6F ....
....|..|F-3 2.3F ....|F-3 2.3F ....|F-3 2.3F ....
....|..|F-3 2.7F ....|F-3 2.7F ....|F-3 2.7F ....
....|..|F-3 2.7F ....|F-3 2.7F ....|F-3 2.7F ....
....|..|F-3 2.7F ....|F-3 2.7F ....|F-3 2.7F ....
....|..|D#2 2.6F ....|D#2 2.6F ....|D#2 2.6F ....
....|..|D#2 2.6F ....|D#2 2.6F ....|D#2 2.6F ....
....|..|D#2 2.6F ....|D#2 2.6F ....|D#2 2.6F ....
....|..|D#2 2.6F ....|D#2 2.6F ....|D#2 2.6F ....
....|..|R-- .... ....|R-- .... ....|R-- .... ....
....|..|A#2 2.1F ....|A#2 2.1F ....|A#2 2.1F ....
....|..|A#2 2.1F ....|A#2 2.1F ....|A#2 2.1F ....
....|..|A#2 2.1F ....|A#2 2.1F ....|A#2 2.1F ....
....|..|R-- .... ....|R-- .... ....|R-- .... ....
....|..|D#3 2.CF ....|D#3 2.CF ....|D#3 2.CF ....
....|..|D#3 2.CF ....|D#3 2.CF ....|D#3 2.CF ....
....|..|D#3 2.CF ....|D#3 2.CF ....|D#3 2.CF ....
....|..|D#3 2.3F ....|D#3 2.3F ....|D#3 2.3F ....
....|..|D#3 2.DF ....|D#3 2.DF ....|D#3 2.DF ....
....|..|D#3 2.DF ....|D#3 2.DF ....|D#3 2.DF ....
....|..|D#3 2.DF ....|D#3 2.DF ....|D#3 2.DF ....
....|..|D-2 2.9F ....|D-2 2.9F ....|D-2 2.9F ....
....|..|D-2 2.9F ....|D-2 2.9F ....|D-2 2.9F ....
....|..|D-2 2.9F ....|D-2 2.9F ....|D-2 2.9F ....
....|..|D-2 2.9F ....|D-2 2.9F ....|D-2 2.9F ....
....|..|R-- .... ....|R-- .... ....|R-- .... ....
....|..|A-2 2.AF ....|A-2 2.AF ....|A-2 2.AF ....
....|..|A-2 2.AF ....|A-2 2.AF ....|A-2 2.AF ....
....|..|A-2 2.AF ....|A-2 2.AF ....|A-2 2.AF ....
....|..|R-- .... ....|R-- .... ....|R-- .... ....
....|..|D-3 2.1F ....|D-3 2.1F ....|D-3 2.1F ....
....|..|D-3 2.1F ....|D-3 2.1F ....|D-3 2.1F ....
....|..|D-3 2.1F ....|D-3 2.1F ....|D-3 2.1F ....
....|..|D-3 2.3F ....|D-3 2.3F ....|D-3 2.3F ....
....|..|D-3 2.BF ....|D-3 2.BF ....|D-3 2.BF ....
....|..|D-3 2.BF ....|D-3 2.BF ....|D-3 2.BF ....
....|..|D-3 2.BF ....|D-3 2.BF ....|D-3 2.BF ....
....|..|C-2 2.BF ....|C-2 2.BF ....|C-2 2.BF ....

[Pattern17]
....|..|C-2 2.BF ....|C-2 2.BF ....|C-2 2.BF ....
....|..|C-2 2.BF ....|C-2 2.BF ....|C-2 2.BF ....
....|..|C-2 2.BF ....|C-2 2.BF ....|C-2 2.BF ....
....|..|C-2 2.6F ....|C-2 2.6F ....|C-2 2.6F ....
....|..|C-2 2.CF ....|C-2 2.CF ....|C-2 2.CF ....
....|..|C-2 2.CF ....|C-2 2.CF ....|C-2 2.CF ....
....|..|C-2 2.CF ....|C-2 2.CF ....|C-2 2.CF ....
....|..|C-2 2.6F ....|C-2 2.6F ....|C-2 2.6F ....
....|..|C-2 2.DF ....|C-2 2.DF ....|C-2 2.DF ....
....|..|C-2 2.DF ....|C-2 2.DF ....|C-2 2.DF ....
....|..|C-2 2.DF ....|C-2 2.DF ....|C-2 2.DF ....
....|..|C-2 2.6F ....|C-2 2.6F ....|C-2 2.6F ....
....|..|C-2 2.CF ....|C-2 2.CF ....|C-2 2.CF ....
....|..|C-2 2.CF ....|C-2 2.CF ....|C-2 2.CF ....
....|..|C-2 2.CF ....|C-2 2.CF ....|C-2 2.CF ....
....|..|C-2 2.EF ....|C-2 2.EF ....|C-2 2.EF ....
....|..|C-2 2.EF ....|C-2 2.EF ....|C-2 2.EF ....
....|..|C-2 2.EF ....|C-2 2.EF ....|C-2 2.EF ....
....|..|C-2 2.EF ....|C-2 2.EF ....|C-2 2.EF ....
....|..|C-2 2.6F ....|C-2 2.6F ....|C-2 2.6F ....
....|..|C-2 2.FF ....|C-2 2.FF ....|C-2 2.FF ....
....|..|C-2 2.FF ....|C-2 2.FF ....|C-2 2.FF ....
....|..|C-2 2.FF ....|C-2 2.FF ....|C-2 2.FF ....
....|..|C-2 2.6F ....|C-2 2.6F ....|C-2 2.6F ....
....|..|C-2 2..F ....|C-2 2..F ....|C-2 2..F ....
....|..|C-2 2..F ....|C-2 2..F ....|C-2 2..F ....
....|..|C-2 2..F ....|C-2 2..F ....|C-2 2..F ....
....|..|C-2 2.6F ....|C-2 2.6F ....|C-2 2.6F ....
....|..|C-2 2.FF ....|C-2 2.FF ....|C-2 2.FF ....
....|..|C-2 2.FF ....|C-2 2.FF ....|C-2 2.FF ....
....|..|C-2 2.FF ....|C-2 2.FF ....|C-2 2.FF ....
....|..|C-2 2.1F ....|C-2 2.1F ....|C-2 2.1F ....
....|..|C-2 2.1F ....|C-2 2.1F ....|C-2 2.1F ....
....|..|C-2 2.1F ....|C-2 2.1F ....|C-2 2.1F ....
....|..|C-2 2.1F ....|C-2 2.1F ....|C-2 2.1F ....
....|..|C-2 2.6F ....|C-2 2.6F ....|C-2 2.6F ....
....|..|C-2 2..F ....|C-2 2..F ....|C-2 2..F ....
....|..|C-2 2..F ....|C-2 2..F ....|C-2 2..F ....
....|..|C-2 2..F ....|C-2 2..F ....|C-2 2..F ....
....|..|C-2 2.6F ....|C-2 2.6F ....|C-2 2.6F ....
....|..|C-2 2.FF ....|C-2 2.FF ....|C-2 2.FF ....
....|..|C-2 2.FF ....|C-2 2.FF ....|C-2 2.FF ....
....|..|C-2 2.FF ....|C-2 2.FF ....|C-2 2.FF ....
....|..|C-2 2.6F ....|C-2 2.6F ....|C-2 2.6F ....
....|..|C-2 2.EF ....|C-2 2.EF ....|C-2 2.EF ....
....|..|C-2 2.EF ....|C-2 2.EF ....|C-2 2.EF ....
....|..|C-2 2.EF ....|C-2 2.EF ....|C-2 2.EF ....
....|..|C-2 2.2F ....|C-2 2.2F ....|C-2 2.2F ....
....|..|C-2 2.2F ....|C-2 2.2F ....|C-2 2.2F ....
....|..|C-2 2.2F ....|C-2 2.2F ....|C-2 2.2F ....
....|..|C-2 2.2F ....|C-2 2.2F ....|C-2 2.2F ....
....|..|C-2 2.6F ....|C-2 2.6F ....|C-2 2.6F ....
....|..|C-2 2.EF ....|C-2 2.EF ....|C-2 2.EF ....
....|..|C-2 2.EF ....|C-2 2.EF ....|C-2 2.EF ....
....|..|C-2 2.EF ....|C-2 2.EF ....|C-2 2.EF ....
....|..|C-2 2.6F ....|C-2 2.6F ....|C-2 2.6F ....
....|..|C-2 2.FF ....|C-2 2.FF ....|C-2 2.FF ....
....|..|C-2 2.FF ....|C-2 2.FF ....|C-2 2.FF ....
....|..|C-2 2.FF ....|C-2 2.FF ....|C-2 2.FF ....
....|..|C-2 2.6F ....|C-2 2.6F ....|C-2 2.6F ....
....|..|C-2 2.EF ....|C-2 2.EF ....|C-2 2.EF ....
....|..|C-2 2.EF ....|C-2 2.EF ....|C-2 2.EF ....
....|..|C-2 2.EF ....|C-2 2.EF ....|C-2 2.EF ....
....|..|G-2 2.3F ....|G-2 2.3F ....|G-2 2.3F ....

[Pattern18]
....|..|G-2 2.3F ....|G-2 2.3F ....|G-2 2.3F ....
....|..|G-2 2.3F ....|G-2 2.3F ....|G-2 2.3F ....
....|..|G-2 2.3F ....|G-2 2.3F ....|G-2 2.3F ....
....|..|R-- .... ....|R-- .... ....|R-- .... ....
....|..|A#4 2.3F ....|A#4 2.3F ....|A#4 2.3F ....
....|..|A#4 2.3F ....|A#4 2.3F ....|A#4 2.3F ....
....|..|A#4 2.3F ....|A#4 2.3F ....|A#4 2.3F ....
....|..|R-- .... ....|R-- .... ....|R-- .... ....
....|..|G-2 2.DF ....|G-2 2.DF ....|G-2 2.DF ....
....|..|G-2 2.DF ....|G-2 2.DF ....|G-2 2.DF ....
....|..|G-2 2.DF ....|G-2 2.DF ....|G-2 2.DF ....
....|..|R-- .... ....|R-- .... ....|R-- .... ....
....|..|A#5 2.3F ....|A#5 2.3F ....|A#5 2.3F ....
....|..|A#5 2.3F ....|A#5 2.3F ....|A#5 2.3F ....
....|..|A#5 2.3F ....|A#5 2.3F ....|A#5 2.3F ....
....|..|R-- .... ....|R-- .... ....|R-- .... ....
....|..|G-2 2.EF ....|G-2 2.EF ....|G-2 2.EF ....
....|..|G-2 2.EF ....|G-2 2.EF ....|G-2 2.EF ....
....|..|G-2 2.EF ....|G-2 2.EF ....|G-2 2.EF ....
....|..|R-- .... ....|R-- .... ....|R-- .... ....
....|..|A#5 2.3F ....|A#5 2.3F ....|A#5 2.3F ....
....|..|A#5 2.3F ....|A#5 2.3F ....|A#5 2.3F ....
....|..|A#5 2.3F ....|A#5 2.3F ....|A#5 2.3F ....
....|..|R-- .... ....|R-- .... ....|R-- .... ....
....|..|G-2 2.DF ....|G-2 2.DF ....|G-2 2.DF ....
....|..|G-2 2.DF ....|G-2 2.DF ....|G-2 2.DF ....
....|..|G-2 2.DF ....|G-2 2.DF ....|G-2 2.DF ....
....|..|R-- .... ....|R-- .... ....|R-- .... ....
....|..|A#5 2.3F ....|A#5 2.3F ....|A#5 2.3F ....
....|..|A#5 2.3F ....|A#5 2.3F ....|A#5 2.3F ....
....|..|A#5 2.3F ....|A#5 2.3F ....|A#5 2.3F ....
....|..|R-- .... ....|R-- .... ....|R-- .... ....
....|..|F-2 2.3F ....|F-2 2.3F ....|F-2 2.3F ....
....|..|F-2 2.3F ....|F-2 2.3F ....|F-2 2.3F ....
....|..|F-2 2.3F ....|F-2 2.3F ....|F-2 2.3F ....
....|..|R-- .... ....|R-- .... ....|R-- .... ....
....|..|F-5 2.3F ....|F-5 2.3F ....|F-5 2.3F ....
....|..|F-5 2.3F ....|F-5 2.3F ....|F-5 2.3F ....
....|..|F-5 2.3F ....|F-5 2.3F ....|F-5 2.3F ....
....|..|R-- .... ....|R-- .... ....|R-- .... ....
....|..|F-2 2.2F ....|F-2 2.2F ....|F-2 2.2F ....
....|..|F-2 2.2F ....|F-2 2.2F ....|F-2 2.2F ....
....|..|F-2 2.2F ....|F-2 2.2F ....|F-2 2.2F ....
....|..|R-- .... ....|R-- .... ....|R-- .... ....
....|..|F-5 2.3F ....|F-5 2.3F ....|F-5 2.3F ....
....|..|F-5 2.3F ....|F-5 2.3F ....|F-5 2.3F ....
....|..|F-5 2.3F ....|F-5 2.3F ....|F-5 2.3F ....
....|..|R-- .... ....|R-- .... ....|R-- .... ....
....|..|F-2 2.EF ....|F-2 2.EF ....|F-2 2.EF ....
....|..|F-2 2.EF ....|F-2 2.EF ....|F-2 2.EF ....
....|..|F-2 2.EF ....|F-2 2.EF ....|F-2 2.EF ....
....|..|R-- .... ....|R-- .... ....|R-- .... ....
....|..|A#5 2.3F ....|A#5 2.3F ....|A#5 2.3F ....
....|..|A#5 2.3F ....|A#5 2.3F ....|A#5 2.3F ....
....|..|A#5 2.3F ....|A#5 2.3F ....|A#5 2.3F ....
....|..|R-- .... ....|R-- .... ....|R-- .... ....
....|..|F-2 2.4F ....|F-2 2.4F ....|F-2 2.4F ....
....|..|F-2 2.4F ....|F-2 2.4F ....|F-2 2.4F ....
....|..|F-2 2.4F ....|F-2 2.4F ....|F-2 2.4F ....
....|..|R-- .... ....|R-- .... ....|R-- .... ....
....|..|A#5 2.3F ....|A#5 2.3F ....|A#5 2.3F ....
....|..|A#5 2.3F ....|A#5 2.3F ....|A#5 2.3F ....
....|..|A#5 2.3F ....|A#5 2.3F ....|A#5 2.3F ....
....|..|R-- .... ....|R-- .... ....|R-- .... ....

[Pattern19]
....|..|E-2 2.3F ....|E-2 2.3F ....|E-2 2.3F ....
....|..|E-2 2.3F ....|E-2 2.3F ....|E-2 2.3F ....
....|..|E-2 2.3F ....|E-2 2.3F ....|E-2 2.3F ....
....|..|R-- .... ....|R-- .... ....|R-- .... ....
....|..|E-5 2.3F ....|E-5 2.3F ....|E-5 2.3F ....
....|..|E-5 2.3F ....|E-5 2.3F ....|E-5 2.3F ....
....|..|E-5 2.3F ....|E-5 2.3F ....|E-5 2.3F ....
....|..|R-- .... ....|R-- .... ....|R-- .... ....
....|..|E-2 2.5F ....|E-2 2.5F ....|E-2 2.5F ....
....|..|E-2 2.5F ....|E-2 2.5F ....|E-2 2.5F ....
....|..|E-2 2.5F ....|E-2 2.5F ....|E-2 2.5F ....
....|..|R-- .... ....|R-- .... ....|R-- .... ....
....|..|E-5 2.3F ....|E-5 2.3F ....|E-5 2.3F ....
....|..|E-5 2.3F ....|E-5 2.3F ....|E-5 2.3F ....
....|..|E-5 2.3F ....|E-5 2.3F ....|E-5 2.3F ....
....|..|R-- .... ....|R-- .... ....|R-- .... ....
....|..|E-2 2.6F ....|E-2 2.6F ....|E-2 2.6F ....
....|..|E-2 2.6F ....|E-2 2.6F ....|E-2 2.6F ....
....|..|E-2 2.6F ....|E-2 2.6F ....|E-2 2.6F ....
....|..|E-2 2.6F ....|E-2 2.6F ....|E-2 2.6F ....
....|..|E-2 2.7F ....|E-2 2.7F ....|E-2 2.7F ....
....|..|E-2 2.7F ....|E-2 2.7F ....|E-2 2.7F ....
....|..|E-2 2.7F ....|E-2 2.7F ....|E-2 2.7F ....
....|..|E-2 2.6F ....|E-2 2.6F ....|E-2 2.6F ....
....|..|E-2 2.8F ....|E-2 2.8F ....|E-2 2.8F ....
....|..|E-2 2.8F ....|E-2 2.8F ....|E-2 2.8F ....
....|..|E-2 2.8F ....|E-2 2.8F ....|E-2 2.8F ....
....|..|E-2 2.6F ....|E-2 2.6F ....|E-2 2.6F ....
....|..|E-2 2.9F ....|E-2 2.9F ....|E-2 2.9F ....
....|..|E-2 2.9F ....|E-2 2.9F ....|E-2 2.9F ....
....|..|E-2 2.9F ....|E-2 2.9F ....|E-2 2.9F ....
....|..|D#2 2.9F ....|D#2 2.9F ....|D#2 2.9F ....
....|..|D#2 2.9F ....|D#2 2.9F ....|D#2 2.9F ....
....|..|D#2 2.9F ....|D#2 2.9F ....|D#2 2.9F ....
....|..|D#2 2.9F ....|D#2 2.9F ....|D#2 2.9F ....
....|..|D#2 2.6F ....|D#2 2.6F ....|D#2 2.6F ....
....|..|D#2 2.9F ....|D#2 2.9F ....|D#2 2.9F ....
....|..|D#2 2.9F ....|D#2 2.9F ....|D#2 2.9F ....
....|..|D#2 2.9F ....|D#2 2.9F ....|D#2 2.9F ....
....|..|D#2 2.6F ....|D#2 2.6F ....|D#2 2.6F ....
....|..|D#2 2.AF ....|D#2 2.AF ....|D#2 2.AF ....
....|..|D#2 2.AF ....|D#2 2.AF ....|D#2 2.AF ....
....|..|D#2 2.AF ....|D#2 2.AF ....|D#2 2.AF ....
....|..|D#2 2.6F ....|D#2 2.6F ....|D#2 2.6F ....
....|..|D#2 2.BF ....|D#2 2.BF ....|D#2 2.BF ....
....|..|D#2 2.BF ....|D#2 2.BF ....|D#2 2.BF ....
....|..|D#2 2.BF ....|D#2 2.BF ....|D#2 2.BF ....
....|..|D-2 2.CF ....|D-2 2.CF ....|D-2 2.CF ....
....|..|D-2 2.CF ....|D-2 2.CF ....|D-2 2.CF ....
....|..|D-2 2.CF ....|D-2 2.CF ....|D-2 2.CF ....
....|..|D-2 2.CF ....|D-2 2.CF ....|D-2 2.CF ....
....|..|D-2 2.6F ....|D-2 2.6F ....|D-2 2.6F ....
....|..|D-2 2.CF ....|D-2 2.CF ....|D-2 2.CF ....
....|..|D-2 2.CF ....|D-2 2.CF ....|D-2 2.CF ....
....|..|D-2 2.CF ....|D-2 2.CF ....|D-2 2.CF ....
....|..|D-2 2.6F ....|D-2 2.6F ....|D-2 2.6F ....
....|..|D-2 2.CF ....|D-2 2.CF ....|D-2 2.CF ....
....|..|D-2 2.CF ....|D-2 2.CF ....|D-2 2.CF ....
....|..|D-2 2.CF ....|D-2 2.CF ....|D-2 2.CF ....
....|..|D-2 2.6F ....|D-2 2.6F ....|D-2 2.6F ....
....|..|D-2 2.CF ....|D-2 2.CF ....|D-2 2.CF ....
....|..|D-2 2.CF ....|D-2 2.CF ....|D-2 2.CF ....
....|..|D-2 2.CF ....|D-2 2.CF ....|D-2 2.CF ....
....|..|G-2 2.3F ....|G-2 2.3F ....|G-2 2.3F ....

[Pattern20]
....|..|G-2 2.3F ....|G-2 2.3F ....|G-2 2.3F ....
....|..|G-2 2.3F ....|G-2 2.3F ....|G-2 2.3F ....
....|..|G-2 2.3F ....|G-2 2.3F ....|G-2 2.3F ....
....|..|G-2 2.6F ....|G-2 2.6F ....|G-2 2.6F ....
....|..|G-2 2.DF ....|G-2 2.DF ....|G-2 2.DF ....
....|..|G-2 2.DF ....|G-2 2.DF ....|G-2 2.DF ....
....|..|G-2 2.DF ....|G-2 2.DF ....|G-2 2.DF ....
....|..|G-2 2.6F ....|G-2 2.6F ....|G-2 2.6F ....
....|..|G-2 2.DF ....|G-2 2.DF ....|G-2 2.DF ....
....|..|G-2 2.DF ....|G-2 2.DF ....|G-2 2.DF ....
....|..|G-2 2.DF ....|G-2 2.DF ....|G-2 2.DF ....
....|..|G-2 2.6F ....|G-2 2.6F ....|G-2 2.6F ....
....|..|G-2 2.5F ....|G-2 2.5F ....|G-2 2.5F ....
....|..|G-2 2.5F ....|G-2 2.5F ....|G-2 2.5F ....
....|..|G-2 2.5F ....|G-2 2.5F ....|G-2 2.5F ....
....|..|G-2 2.EF ....|G-2 2.EF ....|G-2 2.EF ....
....|..|G-2 2.EF ....|G-2 2.EF ....|G-2 2.EF ....
....|..|G-2 2.EF ....|G-2 2.EF ....|G-2 2.EF ....
....|..|G-2 2.EF ....|G-2 2.EF ....|G-2 2.EF ....
....|..|G-2 2.6F ....|G-2 2.6F ....|G-2 2.6F ....
....|..|G-2 2.5F ....|G-2 2.5F ....|G-2 2.5F ....
....|..|G-2 2.5F ....|G-2 2.5F ....|G-2 2.5F ....
....|..|G-2 2.5F ....|G-2 2.5F ....|G-2 2.5F ....
....|..|G-2 2.6F ....|G-2 2.6F ....|G-2 2.6F ....
....|..|G-2 2.DF ....|G-2 2.DF ....|G-2 2.DF ....
....|..|G-2 2.DF ....|G-2 2.DF ....|G-2 2.DF ....
....|..|G-2 2.DF ....|G-2 2.DF ....|G-2 2.DF ....
....|..|G-2 2.6F ....|G-2 2.6F ....|G-2 2.6F ....
....|..|G-2 2.5F ....|G-2 2.5F ....|G-2 2.5F ....
....|..|G-2 2.5F ....|G-2 2.5F ....|G-2 2.5F ....
....|..|G-2 2.5F ....|G-2 2.5F ....|G-2 2.5F ....
....|..|F-2 2.3F ....|F-2 2.3F ....|F-2 2.3F ....
....|..|F-2 2.3F ....|F-2 2.3F ....|F-2 2.3F ....
....|..|F-2 2.3F ....|F-2 2.3F ....|F-2 2.3F ....
....|..|F-2 2.3F ....|F-2 2.3F ....|F-2 2.3F ....
....|..|F-2 2.6F ....|F-2 2.6F ....|F-2 2.6F ....
....|..|F-2 2.DF ....|F-2 2.DF ....|F-2 2.DF ....
....|..|F-2 2.DF ....|F-2 2.DF ....|F-2 2.DF ....
....|..|F-2 2.DF ....|F-2 2.DF ....|F-2 2.DF ....
....|..|F-2 2.6F ....|F-2 2.6F ....|F-2 2.6F ....
....|..|F-2 2.2F ....|F-2 2.2F ....|F-2 2.2F ....
....|..|F-2 2.2F ....|F-2 2.2F ....|F-2 2.2F ....
....|..|F-2 2.2F ....|F-2 2.2F ....|F-2 2.2F ....
....|..|F-2 2.6F ....|F-2 2.6F ....|F-2 2.6F ....
....|..|F-2 2.DF ....|F-2 2.DF ....|F-2 2.DF ....
....|..|F-2 2.DF ....|F-2 2.DF ....|F-2 2.DF ....
....|..|F-2 2.DF ....|F-2 2.DF ....|F-2 2.DF ....
....|..|F-2 2.EF ....|F-2 2.EF ....|F-2 2.EF ....
....|..|F-2 2.EF ....|F-2 2.EF ....|F-2 2.EF ....
....|..|F-2 2.EF ....|F-2 2.EF ....|F-2 2.EF ....
....|..|F-2 2.EF ....|F-2 2.EF ....|F-2 2.EF ....
....|..|F-2 2.6F ....|F-2 2.6F ....|F-2 2.6F ....
....|..|F-2 2.2F ....|F-2 2.2F ....|F-2 2.2F ....
....|..|F-2 2.2F ....|F-2 2.2F ....|F-2 2.2F ....
....|..|F-2 2.2F ....|F-2 2.2F ....|F-2 2.2F ....
....|..|F-2 2.6F ....|F-2 2.6F ....|F-2 2.6F ....
....|..|F-2 2.4F ....|F-2 2.4F ....|F-2 2.4F ....
....|..|F-2 2.4F ....|F-2 2.4F ....|F-2 2.4F ....
....|..|F-2 2.4F ....|F-2 2.4F ....|F-2 2.4F ....
....|..|F-2 2.6F ....|F-2 2.6F ....|F-2 2.6F ....
....|..|F-2 2.2F ....|F-2 2.2F ....|F-2 2.2F ....
....|..|F-2 2.2F ....|F-2 2.2F ....|F-2 2.2F ....
....|..|F-2 2.2F ....|F-2 2.2F ....|F-2 2.2F ....
....|..|E-2 2.7F ....|E-2 2.7F ....|E-2 2.7F ....

[Pattern21]
....|..|E-2 2.7F ....|E-2 2.7F ....|E-2 2.7F ....
....|..|E-2 2.7F ....|E-2 2.7F ....|E-2 2.7F ....
....|..|E-2 2.7F ....|E-2 2.7F ....|E-2 2.7F ....
....|..|E-2 2.6F ....|E-2 2.6F ....|E-2 2.6F ....
....|..|E-2 2.7F ....|E-2 2.7F ....|E-2 2.7F ....
....|..|E-2 2.7F ....|E-2 2.7F ....|E-2 2.7F ....
....|..|E-2 2.7F ....|E-2 2.7F ....|E-2 2.7F ....
....|..|E-2 2.6F ....|E-2 2.6F ....|E-2 2.6F ....
....|..|E-2 2.8F ....|E-2 2.8F ....|E-2 2.8F ....
....|..|E-2 2.8F ....|E-2 2.8F ....|E-2 2.8F ....
....|..|E-2 2.8F ....|E-2 2.8F ....|E-2 2.8F ....
....|..|E-2 2.6F ....|E-2 2.6F ....|E-2 2.6F ....
....|..|E-2 2.8F ....|E-2 2.8F ....|E-2 2.8F ....
....|..|E-2 2.8F ....|E-2 2.8F ....|E-2 2.8F ....
....|..|E-2 2.8F ....|E-2 2.8F ....|E-2 2.8F ....
....|..|E-2 2.EF ....|E-2 2.EF ....|E-2 2.EF ....
....|..|E-2 2.EF ....|E-2 2.EF ....|E-2 2.EF ....
....|..|E-2 2.EF ....|E-2 2.EF ....|E-2 2.EF ....
....|..|E-2 2.EF ....|E-2 2.EF ....|E-2 2.EF ....
....|..|E-2 2.6F ....|E-2 2.6F ....|E-2 2.6F ....
....|..|E-2 2.EF ....|E-2 2.EF ....|E-2 2.EF ....
....|..|E-2 2.EF ....|E-2 2.EF ....|E-2 2.EF ....
....|..|E-2 2.EF ....|E-2 2.EF ....|E-2 2.EF ....
....|..|E-2 2.6F ....|E-2 2.6F ....|E-2 2.6F ....
....|..|E-2 2.FF ....|E-2 2.FF ....|E-2 2.FF ....
....|..|E-2 2.FF ....|E-2 2.FF ....|E-2 2.FF ....
....|..|E-2 2.FF ....|E-2 2.FF ....|E-2 2.FF ....
....|..|E-2 2.6F ....|E-2 2.6F ....|E-2 2.6F ....
....|..|E-2 2.FF ....|E-2 2.FF ....|E-2 2.FF ....
....|..|E-2 2.FF ....|E-2 2.FF ....|E-2 2.FF ....
....|..|E-2 2.FF ....|E-2 2.FF ....|E-2 2.FF ....
....|..|D#2 2.BF ....|D#2 2.BF ....|D#2 2.BF ....
....|..|D#2 2.BF ....|D#2 2.BF ....|D#2 2.BF ....
....|..|D#2 2.BF ....|D#2 2.BF ....|D#2 2.BF ....
....|..|D#2 2.BF ....|D#2 2.BF ....|D#2 2.BF ....
....|..|D#2 2.6F ....|D#2 2.6F ....|D#2 2.6F ....
....|..|D#2 2.BF ....|D#2 2.BF ....|D#2 2.BF ....
....|..|D#2 2.BF ....|D#2 2.BF ....|D#2 2.BF ....
....|..|D#2 2.BF ....|D#2 2.BF ....|D#2 2.BF ....
....|..|D#2 2.6F ....|D#2 2.6F ....|D#2 2.6F ....
....|..|D#2 2.AF ....|D#2 2.AF ....|D#2 2.AF ....
....|..|D#2 2.AF ....|D#2 2.AF ....|D#2 2.AF ....
....|..|D#2 2.AF ....|D#2 2.AF ....|D#2 2.AF ....
....|..|D#2 2.6F ....|D#2 2.6F ....|D#2 2.6F ....
....|..|D#2 2.AF ....|D#2 2.AF ....|D#2 2.AF ....
....|..|D#2 2.AF ....|D#2 2.AF ....|D#2 2.AF ....
....|..|D#2 2.AF ....|D#2 2.AF ....|D#2 2.AF ....
....|..|D-2 2.6F ....|D-2 2.6F ....|D-2 2.6F ....
....|..|D-2 2.6F ....|D-2 2.6F ....|D-2 2.6F ....
....|..|D-2 2.6F ....|D-2 2.6F ....|D-2 2.6F ....
....|..|D-2 2.6F ....|D-2 2.6F ....|D-2 2.6F ....
....|..|D-2 2.6F ....|D-2 2.6F ....|D-2 2.6F ....
....|..|D-2 2.6F ....|D-2 2.6F ....|D-2 2.6F ....
....|..|D-2 2.6F ....|D-2 2.6F ....|D-2 2.6F ....
....|..|D-2 2.6F ....|D-2 2.6F ....|D-2 2.6F ....
....|..|D-2 2.6F ....|D-2 2.6F ....|D-2 2.6F ....
....|..|D-2 2..F ....|D-2 2..F ....|D-2 2..F ....
....|..|D-2 2..F ....|D-2 2..F ....|D-2 2..F ....
....|..|D-2 2..F ....|D-2 2..F ....|D-2 2..F ....
....|..|D-2 2.6F ....|D-2 2.6F ....|D-2 2.6F ....
....|..|D-2 2..F ....|D-2 2..F ....|D-2 2..F ....
....|..|D-2 2..F ....|D-2 2..F ....|D-2 2..F ....
....|..|D-2 2..F ....|D-2 2..F ....|D-2 2..F ....
....|..|G-2 2.1F ....|G-2 2.1F ....|G-2 2.1F ....

[Pattern22]
....|..|G-2 2.1F ....|G-2 2.1F ....|G-2 2.1F ....
....|..|G-2 2.1F ....|G-2 2.1F ....|G-2 2.1F ....
....|..|G-2 2.1F ....|G-2 2.1F ....|G-2 2.1F ....
....|..|G-2 2.3F ....|G-2 2.3F ....|G-2 2.3F ....
....|..|D-3 2.1F ....|D-3 2.1F ....|D-3 2.1F ....
....|..|D-3 2.1F ....|D-3 2.1F ....|D-3 2.1F ....
....|..|D-3 2.1F ....|D-3 2.1F ....|D-3 2.1F ....
....|..|D-3 2.3F ....|D-3 2.3F ....|D-3 2.3F ....
....|..|G-3 2.1F ....|G-3 2.1F ....|G-3 2.1F ....
....|..|G-3 2.1F ....|G-3 2.1F ....|G-3 2.1F ....
....|..|G-3 2.1F ....|G-3 2.1F ....|G-3 2.1F ....
....|..|G-3 2.3F ....|G-3 2.3F ....|G-3 2.3F ....
....|..|D-3 2.2F ....|D-3 2.2F ....|D-3 2.2F ....
....|..|D-3 2.2F ....|D-3 2.2F ....|D-3 2.2F ....
....|..|D-3 2.2F ....|D-3 2.2F ....|D-3 2.2F ....
....|..|D-3 2.3F ....|D-3 2.3F ....|D-3 2.3F ....
....|..|A#3 2.DF ....|A#3 2.DF ....|A#3 2.DF ....
....|..|A#3 2.DF ....|A#3 2.DF ....|A#3 2.DF ....
....|..|A#3 2.DF ....|A#3 2.DF ....|A#3 2.DF ....
....|..|A#3 2.3F ....|A#3 2.3F ....|A#3 2.3F ....
....|..|D-3 2.2F ....|D-3 2.2F ....|D-3 2.2F ....
....|..|D-3 2.2F ....|D-3 2.2F ....|D-3 2.2F ....
....|..|D-3 2.2F ....|D-3 2.2F ....|D-3 2.2F ....
....|..|D-3 2.3F ....|D-3 2.3F ....|D-3 2.3F ....
....|..|G-3 2.1F ....|G-3 2.1F ....|G-3 2.1F ....
....|..|G-3 2.1F ....|G-3 2.1F ....|G-3 2.1F ....
....|..|G-3 2.1F ....|G-3 2.1F ....|G-3 2.1F ....
....|..|G-3 2.3F ....|G-3 2.3F ....|G-3 2.3F ....
....|..|D-3 2.2F ....|D-3 2.2F ....|D-3 2.2F ....
....|..|D-3 2.2F ....|D-3 2.2F ....|D-3 2.2F ....
....|..|D-3 2.2F ....|D-3 2.2F ....|D-3 2.2F ....
....|..|D-3 2.3F ....|D-3 2.3F ....|D-3 2.3F ....
....|..|F-2 2.1F ....|F-2 2.1F ....|F-2 2.1F ....
....|..|F-2 2.1F ....|F-2 2.1F ....|F-2 2.1F ....
....|..|F-2 2.1F ....|F-2 2.1F ....|F-2 2.1F ....
....|..|F-2 2.3F ....|F-2 2.3F ....|F-2 2.3F ....
....|..|C-3 2.7F ....|C-3 2.7F ....|C-3 2.7F ....
....|..|C-3 2.7F ....|C-3 2.7F ....|C-3 2.7F ....
....|..|C-3 2.7F ....|C-3 2.7F ....|C-3 2.7F ....
....|..|C-3 2.3F ....|C-3 2.3F ....|C-3 2.3F ....
....|..|F-3 2.7F ....|F-3 2.7F ....|F-3 2.7F ....
....|..|F-3 2.7F ....|F-3 2.7F ....|F-3 2.7F ....
....|..|F-3 2.7F ....|F-3 2.7F ....|F-3 2.7F ....
....|..|F-3 2.3F ....|F-3 2.3F ....|F-3 2.3F ....
....|..|C-3 2.7F ....|C-3 2.7F ....|C-3 2.7F ....
....|..|C-3 2.7F ....|C-3 2.7F ....|C-3 2.7F ....
....|..|C-3 2.7F ....|C-3 2.7F ....|C-3 2.7F ....
....|..|C-3 2.3F ....|C-3 2.3F ....|C-3 2.3F ....
....|..|A-3 2.AF ....|A-3 2.AF ....|A-3 2.AF ....
....|..|A-3 2.AF ....|A-3 2.AF ....|A-3 2.AF ....
....|..|A-3 2.AF ....|A-3 2.AF ....|A-3 2.AF ....
....|..|A-3 2.3F ....|A-3 2.3F ....|A-3 2.3F ....
....|..|C-3 2.8F ....|C-3 2.8F ....|C-3 2.8F ....
....|..|C-3 2.8F ....|C-3 2.8F ....|C-3 2.8F ....
....|..|C-3 2.8F ....|C-3 2.8F ....|C-3 2.8F ....
....|..|C-3 2.3F ....|C-3 2.3F ....|C-3 2.3F ....
....|..|F-3 2.DF ....|F-3 2.DF ....|F-3 2.DF ....
....|..|F-3 2.DF ....|F-3 2.DF ....|F-3 2.DF ....
....|..|F-3 2.DF ....|F-3 2.DF ....|F-3 2.DF ....
....|..|F-3 2.3F ....|F-3 2.3F ....|F-3 2.3F ....
....|..|C-3 2.8F ....|C-3 2.8F ....|C-3 2.8F ....
....|..|C-3 2.8F ....|C-3 2.8F ....|C-3 2.8F ....
....|..|C-3 2.8F ....|C-3 2.8F ....|C-3 2.8F ....
....|..|C-3 2.3F ....|C-3 2.3F ....|C-3 2.3F ....

[Pattern23]
....|..|E-2 2.1F ....|E-2 2.1F ....|E-2 2.1F ....
....|..|E-2 2.1F ....|E-2 2.1F ....|E-2 2.1F ....
....|..|E-2 2.1F ....|E-2 2.1F ....|E-2 2.1F ....
....|..|E-2 2.3F ....|E-2 2.3F ....|E-2 2.3F ....
....|..|C-3 2.DF ....|C-3 2.DF ....|C-3 2.DF ....
....|..|C-3 2.DF ....|C-3 2.DF ....|C-3 2.DF ....
....|..|C-3 2.DF ....|C-3 2.DF ....|C-3 2.DF ....
....|..|C-3 2.3F ....|C-3 2.3F ....|C-3 2.3F ....
....|..|E-3 2.AF ....|E-3 2.AF ....|E-3 2.AF ....
....|..|E-3 2.AF ....|E-3 2.AF ....|E-3 2.AF ....
....|..|E-3 2.AF ....|E-3 2.AF ....|E-3 2.AF ....
....|..|E-3 2.3F ....|E-3 2.3F ....|E-3 2.3F ....
....|..|C-3 2.DF ....|C-3 2.DF ....|C-3 2.DF ....
....|..|C-3 2.DF ....|C-3 2.DF ....|C-3 2.DF ....
....|..|C-3 2.DF ....|C-3 2.DF ....|C-3 2.DF ....
....|..|C-3 2.3F ....|C-3 2.3F ....|C-3 2.3F ....
....|..|G-3 2.3F ....|G-3 2.3F ....|G-3 2.3F ....
....|..|G-3 2.3F ....|G-3 2.3F ....|G-3 2.3F ....
....|..|G-3 2.3F ....|G-3 2.3F ....|G-3 2.3F ....
....|..|G-3 2.3F ....|G-3 2.3F ....|G-3 2.3F ....
....|..|C-3 2.4F ....|C-3 2.4F ....|C-3 2.4F ....
....|..|C-3 2.4F ....|C-3 2.4F ....|C-3 2.4F ....
....|..|C-3 2.4F ....|C-3 2.4F ....|C-3 2.4F ....
....|..|C-3 2.3F ....|C-3 2.3F ....|C-3 2.3F ....
....|..|E-3 2.5F ....|E-3 2.5F ....|E-3 2.5F ....
....|..|E-3 2.5F ....|E-3 2.5F ....|E-3 2.5F ....
....|..|E-3 2.5F ....|E-3 2.5F ....|E-3 2.5F ....
....|..|E-3 2.3F ....|E-3 2.3F ....|E-3 2.3F ....
....|..|C-3 2.6F ....|C-3 2.6F ....|C-3 2.6F ....
....|..|C-3 2.6F ....|C-3 2.6F ....|C-3 2.6F ....
....|..|C-3 2.6F ....|C-3 2.6F ....|C-3 2.6F ....
....|..|C-3 2.3F ....|C-3 2.3F ....|C-3 2.3F ....
....|..|D#2 2.7F ....|D#2 2.7F ....|D#2 2.7F ....
....|..|D#2 2.7F ....|D#2 2.7F ....|D#2 2.7F ....
....|..|D#2 2.7F ....|D#2 2.7F ....|D#2 2.7F ....
....|..|D#2 2.3F ....|D#2 2.3F ....|D#2 2.3F ....
....|..|A#2 2.3F ....|A#2 2.3F ....|A#2 2.3F ....
....|..|A#2 2.3F ....|A#2 2.3F ....|A#2 2.3F ....
....|..|A#2 2.3F ....|A#2 2.3F ....|A#2 2.3F ....
....|..|A#2 2.3F ....|A#2 2.3F ....|A#2 2.3F ....
....|..|D#3 2.6F ....|D#3 2.6F ....|D#3 2.6F ....
....|..|D#3 2.6F ....|D#3 2.6F ....|D#3 2.6F ....
....|..|D#3 2.6F ....|D#3 2.6F ....|D#3 2.6F ....
....|..|D#3 2.3F ....|D#3 2.3F ....|D#3 2.3F ....
....|..|A#2 2.7F ....|A#2 2.7F ....|A#2 2.7F ....
....|..|A#2 2.7F ....|A#2 2.7F ....|A#2 2.7F ....
....|..|A#2 2.7F ....|A#2 2.7F ....|A#2 2.7F ....
....|..|A#2 2.3F ....|A#2 2.3F ....|A#2 2.3F ....
....|..|D-2 2.8F ....|D-2 2.8F ....|D-2 2.8F ....
....|..|D-2 2.8F ....|D-2 2.8F ....|D-2 2.8F ....
....|..|D-2 2.8F ....|D-2 2.8F ....|D-2 2.8F ....
....|..|D-2 2.3F ....|D-2 2.3F ....|D-2 2.3F ....
....|..|A-2 2.9F ....|A-2 2.9F ....|A-2 2.9F ....
....|..|A-2 2.9F ....|A-2 2.9F ....|A-2 2.9F ....
....|..|A-2 2.9F ....|A-2 2.9F ....|A-2 2.9F ....
....|..|A-2 2.3F ....|A-2 2.3F ....|A-2 2.3F ....
....|..|D-3 2.AF ....|D-3 2.AF ....|D-3 2.AF ....
....|..|D-3 2.AF ....|D-3 2.AF ....|D-3 2.AF ....
....|..|D-3 2.AF ....|D-3 2.AF ....|D-3 2.AF ....
....|..|D-3 2.3F ....|D-3 2.3F ....|D-3 2.3F ....
....|..|A-2 2.9F ....|A-2 2.9F ....|A-2 2.9F ....
....|..|A-2 2.9F ....|A-2 2.9F ....|A-2 2.9F ....
....|..|A-2 2.9F ....|A-2 2.9F ....|A-2 2.9F ....
....|..|A-2 2.3F ....|A-2 2.3F ....|A-2 2.3F ....

[Pattern25]
....|..|E-2 2.BF ....|E-2 2.BF ....|E-2 2.BF ....
....|..|E-2 2.BF ....|E-2 2.BF ....|E-2 2.BF ....
....|..|E-2 2.BF ....|E-2 2.BF ....|E-2 2.BF ....
....|..|E-2 2.3F ....|E-2 2.3F ....|E-2 2.3F ....
....|..|C-3 2.4F ....|C-3 2.4F ....|C-3 2.4F ....
....|..|C-3 2.4F ....|C-3 2.4F ....|C-3 2.4F ....
....|..|C-3 2.4F ....|C-3 2.4F ....|C-3 2.4F ....
....|..|C-3 2.3F ....|C-3 2.3F ....|C-3 2.3F ....
....|..|E-3 2.5F ....|E-3 2.5F ....|E-3 2.5F ....
....|..|E-3 2.5F ....|E-3 2.5F ....|E-3 2.5F ....
....|..|E-3 2.5F ....|E-3 2.5F ....|E-3 2.5F ....
....|..|E-3 2.3F ....|E-3 2.3F ....|E-3 2.3F ....
....|..|C-3 2.CF ....|C-3 2.CF ....|C-3 2.CF ....
....|..|C-3 2.CF ....|C-3 2.CF ....|C-3 2.CF ....
....|..|C-3 2.CF ....|C-3 2.CF ....|C-3 2.CF ....
....|..|C-3 2.3F ....|C-3 2.3F ....|C-3 2.3F ....
....|..|G-3 2.DF ....|G-3 2.DF ....|G-3 2.DF ....
....|..|G-3 2.DF ....|G-3 2.DF ....|G-3 2.DF ....
....|..|G-3 2.DF ....|G-3 2.DF ....|G-3 2.DF ....
....|..|G-3 2.3F ....|G-3 2.3F ....|G-3 2.3F ....
....|..|C-3 2.EF ....|C-3 2.EF ....|C-3 2.EF ....
....|..|C-3 2.EF ....|C-3 2.EF ....|C-3 2.EF ....
....|..|C-3 2.EF ....|C-3 2.EF ....|C-3 2.EF ....
....|..|C-3 2.3F ....|C-3 2.3F ....|C-3 2.3F ....
....|..|E-3 2.DF ....|E-3 2.DF ....|E-3 2.DF ....
....|..|E-3 2.DF ....|E-3 2.DF ....|E-3 2.DF ....
....|..|E-3 2.DF ....|E-3 2.DF ....|E-3 2.DF ....
....|..|E-3 2.3F ....|E-3 2.3F ....|E-3 2.3F ....
....|..|C-3 2.FF ....|C-3 2.FF ....|C-3 2.FF ....
....|..|C-3 2.FF ....|C-3 2.FF ....|C-3 2.FF ....
....|..|C-3 2.FF ....|C-3 2.FF ....|C-3 2.FF ....
....|..|C-3 2.3F ....|C-3 2.3F ....|C-3 2.3F ....
....|..|D#2 2..F ....|D#2 2..F ....|D#2 2..F ....
....|..|D#2 2..F ....|D#2 2..F ....|D#2 2..F ....
....|..|D#2 2..F ....|D#2 2..F ....|D#2 2..F ....
....|..|D#2 2.3F ....|D#2 2.3F ....|D#2 2.3F ....
....|..|A#2 2.7F ....|A#2 2.7F ....|A#2 2.7F ....
....|..|A#2 2.7F ....|A#2 2.7F ....|A#2 2.7F ....
....|..|A#2 2.7F ....|A#2 2.7F ....|A#2 2.7F ....
....|..|A#2 2.3F ....|A#2 2.3F ....|A#2 2.3F ....
....|..|D#3 2.6F ....|D#3 2.6F ....|D#3 2.6F ....
....|..|D#3 2.6F ....|D#3 2.6F ....|D#3 2.6F ....
....|..|D#3 2.6F ....|D#3 2.6F ....|D#3 2.6F ....
....|..|D#3 2.3F ....|D#3 2.3F ....|D#3 2.3F ....
....|..|A#2 2.1F ....|A#2 2.1F ....|A#2 2.1F ....
....|..|A#2 2.1F ....|A#2 2.1F ....|A#2 2.1F ....
....|..|A#2 2.1F ....|A#2 2.1F ....|A#2 2.1F ....
....|..|A#2 2.3F ....|A#2 2.3F ....|A#2 2.3F ....
....|..|D-2 2.2F ....|D-2 2.2F ....|D-2 2.2F ....
....|..|D-2 2.2F ....|D-2 2.2F ....|D-2 2.2F ....
....|..|D-2 2.2F ....|D-2 2.2F ....|D-2 2.2F ....
....|..|D-2 2.3F ....|D-2 2.3F ....|D-2 2.3F ....
....|..|A-2 2.3F ....|A-2 2.3F ....|A-2 2.3F ....
....|..|A-2 2.3F ....|A-2 2.3F ....|A-2 2.3F ....
....|..|A-2 2.3F ....|A-2 2.3F ....|A-2 2.3F ....
....|..|A-2 2.3F ....|A-2 2.3F ....|A-2 2.3F ....
....|..|D-3 2.3F ....|D-3 2.3F ....|D-3 2.3F ....
....|..|D-3 2.3F ....|D-3 2.3F ....|D-3 2.3F ....
....|..|D-3 2.3F ....|D-3 2.3F ....|D-3 2.3F ....
....|..|D-3 2.3F ....|D-3 2.3F ....|D-3 2.3F ....
....|..|A-2 2.4F ....|A-2 2.4F ....|A-2 2.4F ....
....|..|A-2 2.4F ....|A-2 2.4F ....|A-2 2.4F ....
....|..|A-2 2.4F ....|A-2 2.4F ....|A-2 2.4F ....
....|..|A-2 2.3F ....|A-2 2.3F ....|A-2 2.3F ....

[Pattern26]
....|..|G-2 2.8F ....|G-2 2.8F ....|G-2 2.8F ....
....|..|G-2 2.8F ....|G-2 2.8F ....|G-2 2.8F ....
....|..|G-2 2.8F ....|G-2 2.8F ....|G-2 2.8F ....
....|..|G-2 2.3F ....|G-2 2.3F ....|G-2 2.3F ....
....|..|D-3 2.7F ....|D-3 2.7F ....|D-3 2.7F ....
....|..|D-3 2.7F ....|D-3 2.7F ....|D-3 2.7F ....
....|..|D-3 2.7F ....|D-3 2.7F ....|D-3 2.7F ....
....|..|D-3 2.3F ....|D-3 2.3F ....|D-3 2.3F ....
....|..|G-3 2.AF ....|G-3 2.AF ....|G-3 2.AF ....
....|..|G-3 2.AF ....|G-3 2.AF ....|G-3 2.AF ....
....|..|G-3 2.AF ....|G-3 2.AF ....|G-3 2.AF ....
....|..|G-3 2.3F ....|G-3 2.3F ....|G-3 2.3F ....
....|..|D-3 2.7F ....|D-3 2.7F ....|D-3 2.7F ....
....|..|D-3 2.7F ....|D-3 2.7F ....|D-3 2.7F ....
....|..|D-3 2.7F ....|D-3 2.7F ....|D-3 2.7F ....
....|..|D-3 2.3F ....|D-3 2.3F ....|D-3 2.3F ....
....|..|A#3 2.DF ....|A#3 2.DF ....|A#3 2.DF ....
....|..|A#3 2.DF ....|A#3 2.DF ....|A#3 2.DF ....
....|..|A#3 2.DF ....|A#3 2.DF ....|A#3 2.DF ....
....|..|A#3 2.3F ....|A#3 2.3F ....|A#3 2.3F ....
....|..|D-3 2.8F ....|D-3 2.8F ....|D-3 2.8F ....
....|..|D-3 2.8F ....|D-3 2.8F ....|D-3 2.8F ....
....|..|D-3 2.8F ....|D-3 2.8F ....|D-3 2.8F ....
....|..|D-3 2.3F ....|D-3 2.3F ....|D-3 2.3F ....
....|..|G-3 2.AF ....|G-3 2.AF ....|G-3 2.AF ....
....|..|G-3 2.AF ....|G-3 2.AF ....|G-3 2.AF ....
....|..|G-3 2.AF ....|G-3 2.AF ....|G-3 2.AF ....
....|..|G-3 2.3F ....|G-3 2.3F ....|G-3 2.3F ....
....|..|D-3 2.7F ....|D-3 2.7F ....|D-3 2.7F ....
....|..|D-3 2.7F ....|D-3 2.7F ....|D-3 2.7F ....
....|..|D-3 2.7F ....|D-3 2.7F ....|D-3 2.7F ....
....|..|D-3 2.3F ....|D-3 2.3F ....|D-3 2.3F ....
....|..|F-2 2.5F ....|F-2 2.5F ....|F-2 2.5F ....
....|..|F-2 2.5F ....|F-2 2.5F ....|F-2 2.5F ....
....|..|F-2 2.5F ....|F-2 2.5F ....|F-2 2.5F ....
....|..|F-2 2.3F ....|F-2 2.3F ....|F-2 2.3F ....
....|..|C-3 2.6F ....|C-3 2.6F ....|C-3 2.6F ....
....|..|C-3 2.6F ....|C-3 2.6F ....|C-3 2.6F ....
....|..|C-3 2.6F ....|C-3 2.6F ....|C-3 2.6F ....
....|..|C-3 2.3F ....|C-3 2.3F ....|C-3 2.3F ....
....|..|F-3 2.7F ....|F-3 2.7F ....|F-3 2.7F ....
....|..|F-3 2.7F ....|F-3 2.7F ....|F-3 2.7F ....
....|..|F-3 2.7F ....|F-3 2.7F ....|F-3 2.7F ....
....|..|F-3 2.3F ....|F-3 2.3F ....|F-3 2.3F ....
....|..|C-3 2.6F ....|C-3 2.6F ....|C-3 2.6F ....
....|..|C-3 2.6F ....|C-3 2.6F ....|C-3 2.6F ....
....|..|C-3 2.6F ....|C-3 2.6F ....|C-3 2.6F ....
....|..|C-3 2.3F ....|C-3 2.3F ....|C-3 2.3F ....
....|..|A-3 2.7F ....|A-3 2.7F ....|A-3 2.7F ....
....|..|A-3 2.7F ....|A-3 2.7F ....|A-3 2.7F ....
....|..|A-3 2.7F ....|A-3 2.7F ....|A-3 2.7F ....
....|..|A-3 2.3F ....|A-3 2.3F ....|A-3 2.3F ....
....|..|C-3 2.5F ....|C-3 2.5F ....|C-3 2.5F ....
....|..|C-3 2.5F ....|C-3 2.5F ....|C-3 2.5F ....
....|..|C-3 2.5F ....|C-3 2.5F ....|C-3 2.5F ....
....|..|C-3 2.3F ....|C-3 2.3F ....|C-3 2.3F ....
....|..|F-3 2.7F ....|F-3 2.7F ....|F-3 2.7F ....
....|..|F-3 2.7F ....|F-3 2.7F ....|F-3 2.7F ....
....|..|F-3 2.7F ....|F-3 2.7F ....|F-3 2.7F ....
....|..|F-3 2.3F ....|F-3 2.3F ....|F-3 2.3F ....
....|..|C-3 2.6F ....|C-3 2.6F ....|C-3 2.6F ....
....|..|C-3 2.6F ....|C-3 2.6F ....|C-3 2.6F ....
....|..|C-3 2.6F ....|C-3 2.6F ....|C-3 2.6F ....
....|..|C-3 2.3F ....|C-3 2.3F ....|C-3 2.3F ....

[Pattern27]
....|..|E-2 2.4F ....|E-2 2.4F ....|E-2 2.4F ....
....|..|E-2 2.4F ....|E-2 2.4F ....|E-2 2.4F ....
....|..|E-2 2.4F ....|E-2 2.4F ....|E-2 2.4F ....
....|..|E-2 2.3F ....|E-2 2.3F ....|E-2 2.3F ....
....|..|C-3 2.8F ....|C-3 2.8F ....|C-3 2.8F ....
....|..|C-3 2.8F ....|C-3 2.8F ....|C-3 2.8F ....
....|..|C-3 2.8F ....|C-3 2.8F ....|C-3 2.8F ....
....|..|C-3 2.3F ....|C-3 2.3F ....|C-3 2.3F ....
....|..|E-3 2.AF ....|E-3 2.AF ....|E-3 2.AF ....
....|..|E-3 2.AF ....|E-3 2.AF ....|E-3 2.AF ....
....|..|E-3 2.AF ....|E-3 2.AF ....|E-3 2.AF ....
....|..|E-3 2.3F ....|E-3 2.3F ....|E-3 2.3F ....
....|..|C-3 2.6F ....|C-3 2.6F ....|C-3 2.6F ....
....|..|C-3 2.6F ....|C-3 2.6F ....|C-3 2.6F ....
....|..|C-3 2.6F ....|C-3 2.6F ....|C-3 2.6F ....
....|..|C-3 2.3F ....|C-3 2.3F ....|C-3 2.3F ....
....|..|G-3 2.5F ....|G-3 2.5F ....|G-3 2.5F ....
....|..|G-3 2.5F ....|G-3 2.5F ....|G-3 2.5F ....
....|..|G-3 2.5F ....|G-3 2.5F ....|G-3 2.5F ....
....|..|G-3 2.3F ....|G-3 2.3F ....|G-3 2.3F ....
....|..|C-3 2.BF ....|C-3 2.BF ....|C-3 2.BF ....
....|..|C-3 2.BF ....|C-3 2.BF ....|C-3 2.BF ....
....|..|C-3 2.BF ....|C-3 2.BF ....|C-3 2.BF ....
....|..|C-3 2.3F ....|C-3 2.3F ....|C-3 2.3F ....
....|..|E-3 2.5F ....|E-3 2.5F ....|E-3 2.5F ....
....|..|E-3 2.5F ....|E-3 2.5F ....|E-3 2.5F ....
....|..|E-3 2.5F ....|E-3 2.5F ....|E-3 2.5F ....
....|..|E-3 2.3F ....|E-3 2.3F ....|E-3 2.3F ....
....|..|C-3 2.9F ....|C-3 2.9F ....|C-3 2.9F ....
....|..|C-3 2.9F ....|C-3 2.9F ....|C-3 2.9F ....
....|..|C-3 2.9F ....|C-3 2.9F ....|C-3 2.9F ....
....|..|C-3 2.3F ....|C-3 2.3F ....|C-3 2.3F ....
....|..|D#2 2..F ....|D#2 2..F ....|D#2 2..F ....
....|..|D#2 2..F ....|D#2 2..F ....|D#2 2..F ....
....|..|D#2 2..F ....|D#2 2..F ....|D#2 2..F ....
....|..|D#2 2.3F ....|D#2 2.3F ....|D#2 2.3F ....
....|..|A#2 2.5F ....|A#2 2.5F ....|A#2 2.5F ....
....|..|A#2 2.5F ....|A#2 2.5F ....|A#2 2.5F ....
....|..|A#2 2.5F ....|A#2 2.5F ....|A#2 2.5F ....
....|..|A#2 2.3F ....|A#2 2.3F ....|A#2 2.3F ....
....|..|D#3 2.DF ....|D#3 2.DF ....|D#3 2.DF ....
....|..|D#3 2.DF ....|D#3 2.DF ....|D#3 2.DF ....
....|..|D#3 2.DF ....|D#3 2.DF ....|D#3 2.DF ....
....|..|D#3 2.3F ....|D#3 2.3F ....|D#3 2.3F ....
....|..|A#2 2.4F ....|A#2 2.4F ....|A#2 2.4F ....
....|..|A#2 2.4F ....|A#2 2.4F ....|A#2 2.4F ....
....|..|A#2 2.4F ....|A#2 2.4F ....|A#2 2.4F ....
....|..|A#2 2.3F ....|A#2 2.3F ....|A#2 2.3F ....
....|..|D-2 2.9F ....|D-2 2.9F ....|D-2 2.9F ....
....|..|D-2 2.9F ....|D-2 2.9F ....|D-2 2.9F ....
....|..|D-2 2.9F ....|D-2 2.9F ....|D-2 2.9F ....
....|..|D-2 2.3F ....|D-2 2.3F ....|D-2 2.3F ....
....|..|A-2 2.AF ....|A-2 2.AF ....|A-2 2.AF ....
....|..|A-2 2.AF ....|A-2 2.AF ....|A-2 2.AF ....
....|..|A-2 2.AF ....|A-2 2.AF ....|A-2 2.AF ....
....|..|A-2 2.3F ....|A-2 2.3F ....|A-2 2.3F ....
....|..|D-3 2.7F ....|D-3 2.7F ....|D-3 2.7F ....
....|..|D-3 2.7F ....|D-3 2.7F ....|D-3 2.7F ....
....|..|D-3 2.7F ....|D-3 2.7F ....|D-3 2.7F ....
....|..|D-3 2.3F ....|D-3 2.3F ....|D-3 2.3F ....
....|..|A-2 2.8F ....|A-2 2.8F ....|A-2 2.8F ....
....|..|A-2 2.8F ....|A-2 2.8F ....|A-2 2.8F ....
....|..|A-2 2.8F ....|A-2 2.8F ....|A-2 2.8F ....
....|..|A-2 2.3F ....|A-2 2.3F ....|A-2 2.3F ....

[Pattern28]
....|..|G-2 2.BF ....|G-2 2.BF ....|G-2 2.BF ....
....|..|G-2 2.BF ....|G-2 2.BF ....|G-2 2.BF ....
....|..|G-2 2.BF ....|G-2 2.BF ....|G-2 2.BF ....
....|..|G-2 2.3F ....|G-2 2.3F ....|G-2 2.3F ....
....|..|D-3 2.2F ....|D-3 2.2F ....|D-3 2.2F ....
....|..|D-3 2.2F ....|D-3 2.2F ....|D-3 2.2F ....
....|..|D-3 2.2F ....|D-3 2.2F ....|D-3 2.2F ....
....|..|D-3 2.3F ....|D-3 2.3F ....|D-3 2.3F ....
....|..|G-3 2.5F ....|G-3 2.5F ....|G-3 2.5F ....
....|..|G-3 2.5F ....|G-3 2.5F ....|G-3 2.5F ....
....|..|G-3 2.5F ....|G-3 2.5F ....|G-3 2.5F ....
....|..|G-3 2.3F ....|G-3 2.3F ....|G-3 2.3F ....
....|..|D-3 2.2F ....|D-3 2.2F ....|D-3 2.2F ....
....|..|D-3 2.2F ....|D-3 2.2F ....|D-3 2.2F ....
....|..|D-3 2.2F ....|D-3 2.2F ....|D-3 2.2F ....
....|..|D-3 2.3F ....|D-3 2.3F ....|D-3 2.3F ....
....|..|A#3 2.6F ....|A#3 2.6F ....|A#3 2.6F ....
....|..|A#3 2.6F ....|A#3 2.6F ....|A#3 2.6F ....
....|..|A#3 2.6F ....|A#3 2.6F ....|A#3 2.6F ....
....|..|A#3 2.3F ....|A#3 2.3F ....|A#3 2.3F ....
....|..|D-3 2.BF ....|D-3 2.BF ....|D-3 2.BF ....
....|..|D-3 2.BF ....|D-3 2.BF ....|D-3 2.BF ....
....|..|D-3 2.BF ....|D-3 2.BF ....|D-3 2.BF ....
....|..|D-3 2.3F ....|D-3 2.3F ....|D-3 2.3F ....
....|..|G-3 2.5F ....|G-3 2.5F ....|G-3 2.5F ....
....|..|G-3 2.5F ....|G-3 2.5F ....|G-3 2.5F ....
....|..|G-3 2.5F ....|G-3 2.5F ....|G-3 2.5F ....
....|..|G-3 2.3F ....|G-3 2.3F ....|G-3 2.3F ....
....|..|D-3 2.2F ....|D-3 2.2F ....|D-3 2.2F ....
....|..|D-3 2.2F ....|D-3 2.2F ....|D-3 2.2F ....
....|..|D-3 2.2F ....|D-3 2.2F ....|D-3 2.2F ....
....|..|D-3 2.3F ....|D-3 2.3F ....|D-3 2.3F ....
....|..|F-2 2.1F ....|F-2 2.1F ....|F-2 2.1F ....
....|..|F-2 2.1F ....|F-2 2.1F ....|F-2 2.1F ....
....|..|F-2 2.1F ....|F-2 2.1F ....|F-2 2.1F ....
....|..|F-2 2.3F ....|F-2 2.3F ....|F-2 2.3F ....
....|..|C-3 2.9F ....|C-3 2.9F ....|C-3 2.9F ....
....|..|C-3 2.9F ....|C-3 2.9F ....|C-3 2.9F ....
....|..|C-3 2.9F ....|C-3 2.9F ....|C-3 2.9F ....
....|..|C-3 2.3F ....|C-3 2.3F ....|C-3 2.3F ....
....|..|F-3 2.2F ....|F-3 2.2F ....|F-3 2.2F ....
....|..|F-3 2.2F ....|F-3 2.2F ....|F-3 2.2F ....
....|..|F-3 2.2F ....|F-3 2.2F ....|F-3 2.2F ....
....|..|F-3 2.3F ....|F-3 2.3F ....|F-3 2.3F ....
....|..|C-3 2.9F ....|C-3 2.9F ....|C-3 2.9F ....
....|..|C-3 2.9F ....|C-3 2.9F ....|C-3 2.9F ....
....|..|C-3 2.9F ....|C-3 2.9F ....|C-3 2.9F ....
....|..|C-3 2.3F ....|C-3 2.3F ....|C-3 2.3F ....
....|..|A-3 2.2F ....|A-3 2.2F ....|A-3 2.2F ....
....|..|A-3 2.2F ....|A-3 2.2F ....|A-3 2.2F ....
....|..|A-3 2.2F ....|A-3 2.2F ....|A-3 2.2F ....
....|..|A-3 2.3F ....|A-3 2.3F ....|A-3 2.3F ....
....|..|C-3 2.1F ....|C-3 2.1F ....|C-3 2.1F ....
....|..|C-3 2.1F ....|C-3 2.1F ....|C-3 2.1F ....
....|..|C-3 2.1F ....|C-3 2.1F ....|C-3 2.1F ....
....|..|C-3 2.3F ....|C-3 2.3F ....|C-3 2.3F ....
....|..|F-3 2.2F ....|F-3 2.2F ....|F-3 2.2F ....
....|..|F-3 2.2F ....|F-3 2.2F ....|F-3 2.2F ....
....|..|F-3 2.2F ....|F-3 2.2F ....|F-3 2.2F ....
....|..|F-3 2.3F ....|F-3 2.3F ....|F-3 2.3F ....
....|..|C-3 2.9F ....|C-3 2.9F ....|C-3 2.9F ....
....|..|C-3 2.9F ....|C-3 2.9F ....|C-3 2.9F ....
....|..|C-3 2.9F ....|C-3 2.9F ....|C-3 2.9F ....
....|..|C-3 2.3F ....|C-3 2.3F ....|C-3 2.3F ....

[Pattern29]
....|..|E-2 2.AF ....|E-2 2.AF ....|E-2 2.AF ....
....|..|E-2 2.AF ....|E-2 2.AF ....|E-2 2.AF ....
....|..|E-2 2.AF ....|E-2 2.AF ....|E-2 2.AF ....
....|..|E-2 2.3F ....|E-2 2.3F ....|E-2 2.3F ....
....|..|C-3 2.6F ....|C-3 2.6F ....|C-3 2.6F ....
....|..|C-3 2.6F ....|C-3 2.6F ....|C-3 2.6F ....
....|..|C-3 2.6F ....|C-3 2.6F ....|C-3 2.6F ....
....|..|C-3 2.3F ....|C-3 2.3F ....|C-3 2.3F ....
....|..|E-3 2.CF ....|E-3 2.CF ....|E-3 2.CF ....
....|..|E-3 2.CF ....|E-3 2.CF ....|E-3 2.CF ....
....|..|E-3 2.CF ....|E-3 2.CF ....|E-3 2.CF ....
....|..|E-3 2.3F ....|E-3 2.3F ....|E-3 2.3F ....
....|..|C-3 2.6F ....|C-3 2.6F ....|C-3 2.6F ....
....|..|C-3 2.6F ....|C-3 2.6F ....|C-3 2.6F ....
....|..|C-3 2.6F ....|C-3 2.6F ....|C-3 2.6F ....
....|..|C-3 2.3F ....|C-3 2.3F ....|C-3 2.3F ....
....|..|G-3 2.7F ....|G-3 2.7F ....|G-3 2.7F ....
....|..|G-3 2.6F ....|G-3 2.6F ....|G-3 2.6F ....
....|..|G-3 2.6F ....|G-3 2.6F ....|G-3 2.6F ....
....|..|G-3 2.6F ....|G-3 2.6F ....|G-3 2.6F ....
....|..|C-3 2.5F ....|C-3 2.5F ....|C-3 2.5F ....
....|..|C-3 2.5F ....|C-3 2.5F ....|C-3 2.5F ....
....|..|C-3 2.5F ....|C-3 2.5F ....|C-3 2.5F ....
....|..|C-3 2.3F ....|C-3 2.3F ....|C-3 2.3F ....
....|..|E-3 2.CF ....|E-3 2.CF ....|E-3 2.CF ....
....|..|E-3 2.CF ....|E-3 2.CF ....|E-3 2.CF ....
....|..|E-3 2.CF ....|E-3 2.CF ....|E-3 2.CF ....
....|..|E-3 2.3F ....|E-3 2.3F ....|E-3 2.3F ....
....|..|C-3 2.6F ....|C-3 2.6F ....|C-3 2.6F ....
....|..|C-3 2.6F ....|C-3 2.6F ....|C-3 2.6F ....
....|..|C-3 2.6F ....|C-3 2.6F ....|C-3 2.6F ....
....|..|C-3 2.3F ....|C-3 2.3F ....|C-3 2.3F ....
....|..|D#2 2.8F ....|D#2 2.8F ....|D#2 2.8F ....
....|..|D#2 2.8F ....|D#2 2.8F ....|D#2 2.8F ....
....|..|D#2 2.8F ....|D#2 2.8F ....|D#2 2.8F ....
....|..|D#2 2.3F ....|D#2 2.3F ....|D#2 2.3F ....
....|..|A#2 2.4F ....|A#2 2.4F ....|A#2 2.4F ....
....|..|A#2 2.4F ....|A#2 2.4F ....|A#2 2.4F ....
....|..|A#2 2.4F ....|A#2 2.4F ....|A#2 2.4F ....
....|..|A#2 2.3F ....|A#2 2.3F ....|A#2 2.3F ....
....|..|D#3 2.6F ....|D#3 2.6F ....|D#3 2.6F ....
....|..|D#3 2.6F ....|D#3 2.6F ....|D#3 2.6F ....
....|..|D#3 2.6F ....|D#3 2.6F ....|D#3 2.6F ....
....|..|D#3 2.3F ....|D#3 2.3F ....|D#3 2.3F ....
....|..|D#3 2.4F ....|D#3 2.4F ....|D#3 2.4F ....
....|..|D#3 2.4F ....|D#3 2.4F ....|D#3 2.4F ....
....|..|D#3 2.4F ....|D#3 2.4F ....|D#3 2.4F ....
....|..|G-3 2.6F ....|G-3 2.6F ....|G-3 2.6F ....
....|..|G-3 2.6F ....|G-3 2.6F ....|G-3 2.6F ....
....|..|G-3 2.6F ....|G-3 2.6F ....|G-3 2.6F ....
....|..|G-3 2.6F ....|G-3 2.6F ....|G-3 2.6F ....
....|..|R-- .... ....|R-- .... ....|R-- .... ....
....|..|G-3 2.6F ....|G-3 2.6F ....|G-3 2.6F ....
....|..|G-3 2.6F ....|G-3 2.6F ....|G-3 2.6F ....
....|..|G-3 2.6F ....|G-3 2.6F ....|G-3 2.6F ....
....|..|R-- .... ....|R-- .... ....|R-- .... ....
....|..|G-3 2.6F ....|G-3 2.6F ....|G-3 2.6F ....
....|..|G-3 2.6F ....|G-3 2.6F ....|G-3 2.6F ....
....|..|G-3 2.6F ....|G-3 2.6F ....|G-3 2.6F ....
....|..|R-- .... ....|R-- .... ....|R-- .... ....
....|..|G-3 2.6F ....|G-3 2.6F ....|G-3 2.6F ....
....|..|G-3 2.6F ....|G-3 2.6F ....|G-3 2.6F ....
....|..|G-3 2.6F ....|G-3 2.6F ....|G-3 2.6F ....
....|..|G-3 2.3F ....|G-3 2.3F ....|G-3 2.3F ....

[Pattern30]
....|..|G-2 2.8F ....|G-2 2.8F ....|G-2 2.8F ....
....|..|G-2 2.8F ....|G-2 2.8F ....|G-2 2.8F ....
....|..|G-2 2.8F ....|G-2 2.8F ....|G-2 2.8F ....
....|..|G-2 2.3F ....|G-2 2.3F ....|G-2 2.3F ....
....|..|D-3 2.7F ....|D-3 2.7F ....|D-3 2.7F ....
....|..|D-3 2.7F ....|D-3 2.7F ....|D-3 2.7F ....
....|..|D-3 2.7F ....|D-3 2.7F ....|D-3 2.7F ....
....|..|D-3 2.3F ....|D-3 2.3F ....|D-3 2.3F ....
....|..|G-3 2.AF ....|G-3 2.AF ....|G-3 2.AF ....
....|..|G-3 2.AF ....|G-3 2.AF ....|G-3 2.AF ....
....|..|G-3 2.AF ....|G-3 2.AF ....|G-3 2.AF ....
....|..|G-3 2.3F ....|G-3 2.3F ....|G-3 2.3F ....
....|..|D-3 2.7F ....|D-3 2.7F ....|D-3 2.7F ....
....|..|D-3 2.7F ....|D-3 2.7F ....|D-3 2.7F ....
....|..|D-3 2.7F ....|D-3 2.7F ....|D-3 2.7F ....
....|..|D-3 2.3F ....|D-3 2.3F ....|D-3 2.3F ....
....|..|A#3 2.DF ....|A#3 2.DF ....|A#3 2.DF ....
....|..|A#3 2.DF ....|A#3 2.DF ....|A#3 2.DF ....
....|..|A#3 2.DF ....|A#3 2.DF ....|A#3 2.DF ....
....|..|A#3 2.3F ....|A#3 2.3F ....|A#3 2.3F ....
....|..|D-3 2.7F ....|D-3 2.7F ....|D-3 2.7F ....
....|..|D-3 2.7F ....|D-3 2.7F ....|D-3 2.7F ....
....|..|D-3 2.2F ....|D-3 2.2F ....|D-3 2.2F ....
....|..|D-3 2.2F ....|D-3 2.2F ....|D-3 2.2F ....
....|..|G-3 2.AF ....|G-3 2.AF ....|G-3 2.AF ....
....|..|G-3 2.3F ....|G-3 2.3F ....|G-3 2.3F ....
....|..|G-3 2.1F ....|G-3 2.1F ....|G-3 2.1F ....
....|..|G-3 2.3F ....|G-3 2.3F ....|G-3 2.3F ....
....|..|D-3 2.AF ....|D-3 2.AF ....|D-3 2.AF ....
....|..|D-3 2.AF ....|D-3 2.AF ....|D-3 2.AF ....
....|..|D-3 2.AF ....|D-3 2.AF ....|D-3 2.AF ....
....|..|D-3 2.AF ....|D-3 2.AF ....|D-3 2.AF ....
....|..|F-2 2.5F ....|F-2 2.5F ....|F-2 2.5F ....
....|..|F-2 2.5F ....|F-2 2.5F ....|F-2 2.5F ....
....|..|F-2 2.5F ....|F-2 2.5F ....|F-2 2.5F ....
....|..|F-2 2.3F ....|F-2 2.3F ....|F-2 2.3F ....
....|..|C-3 2.6F ....|C-3 2.6F ....|C-3 2.6F ....
....|..|C-3 2.6F ....|C-3 2.6F ....|C-3 2.6F ....
....|..|C-3 2.6F ....|C-3 2.6F ....|C-3 2.6F ....
....|..|C-3 2.3F ....|C-3 2.3F ....|C-3 2.3F ....
....|..|F-3 2.7F ....|F-3 2.7F ....|F-3 2.7F ....
....|..|F-3 2.7F ....|F-3 2.7F ....|F-3 2.7F ....
....|..|F-3 2.7F ....|F-3 2.7F ....|F-3 2.7F ....
....|..|F-3 2.3F ....|F-3 2.3F ....|F-3 2.3F ....
....|..|C-3 2.6F ....|C-3 2.6F ....|C-3 2.6F ....
....|..|C-3 2.6F ....|C-3 2.6F ....|C-3 2.6F ....
....|..|C-3 2.6F ....|C-3 2.6F ....|C-3 2.6F ....
....|..|C-3 2.3F ....|C-3 2.3F ....|C-3 2.3F ....
....|..|A-3 2.7F ....|A-3 2.7F ....|A-3 2.7F ....
....|..|A-3 2.7F ....|A-3 2.7F ....|A-3 2.7F ....
....|..|A-3 2.7F ....|A-3 2.7F ....|A-3 2.7F ....
....|..|A-3 2.7F ....|A-3 2.7F ....|A-3 2.7F ....
....|..|C-3 2.8F ....|C-3 2.8F ....|C-3 2.8F ....
....|..|C-3 2.8F ....|C-3 2.8F ....|C-3 2.8F ....
....|..|C-3 2.8F ....|C-3 2.8F ....|C-3 2.8F ....
....|..|C-3 2.8F ....|C-3 2.8F ....|C-3 2.8F ....
....|..|F-3 2.7F ....|F-3 2.7F ....|F-3 2.7F ....
....|..|F-3 2.3F ....|F-3 2.3F ....|F-3 2.3F ....
....|..|F-3 2.3F ....|F-3 2.3F ....|F-3 2.3F ....
....|..|F-3 2.3F ....|F-3 2.3F ....|F-3 2.3F ....
....|..|C-3 2.3F ....|C-3 2.3F ....|C-3 2.3F ....
....|..|C-3 2.3F ....|C-3 2.3F ....|C-3 2.3F ....
....|..|C-3 2.3F ....|C-3 2.3F ....|C-3 2.3F ....
....|..|C-3 2.3F ....|C-3 2.3F ....|C-3 2.3F ....

[Pattern31]
....|..|E-2 2.AF ....|E-2 2.AF ....|E-2 2.AF ....
....|..|E-2 2.AF ....|E-2 2.AF ....|E-2 2.AF ....
....|..|E-2 2.AF ....|E-2 2.AF ....|E-2 2.AF ....
....|..|E-2 2.3F ....|E-2 2.3F ....|E-2 2.3F ....
....|..|C-3 2.6F ....|C-3 2.6F ....|C-3 2.6F ....
....|..|C-3 2.6F ....|C-3 2.6F ....|C-3 2.6F ....
....|..|C-3 2.6F ....|C-3 2.6F ....|C-3 2.6F ....
....|..|C-3 2.3F ....|C-3 2.3F ....|C-3 2.3F ....
....|..|E-3 2.CF ....|E-3 2.CF ....|E-3 2.CF ....
....|..|E-3 2.CF ....|E-3 2.CF ....|E-3 2.CF ....
....|..|E-3 2.AF ....|E-3 2.AF ....|E-3 2.AF ....
....|..|E-3 2.3F ....|E-3 2.3F ....|E-3 2.3F ....
....|..|C-3 2.8F ....|C-3 2.8F ....|C-3 2.8F ....
....|..|C-3 2.8F ....|C-3 2.8F ....|C-3 2.8F ....
....|..|C-3 2.8F ....|C-3 2.8F ....|C-3 2.8F ....
....|..|C-3 2.3F ....|C-3 2.3F ....|C-3 2.3F ....
....|..|G-3 2.AF ....|G-3 2.AF ....|G-3 2.AF ....
....|..|G-3 2.AF ....|G-3 2.AF ....|G-3 2.AF ....
....|..|G-3 2.AF ....|G-3 2.AF ....|G-3 2.AF ....
....|..|G-3 2.3F ....|G-3 2.3F ....|G-3 2.3F ....
....|..|C-3 2.6F ....|C-3 2.6F ....|C-3 2.6F ....
....|..|C-3 2.6F ....|C-3 2.6F ....|C-3 2.6F ....
....|..|C-3 2.6F ....|C-3 2.6F ....|C-3 2.6F ....
....|..|C-3 2.3F ....|C-3 2.3F ....|C-3 2.3F ....
....|..|E-3 2.7F ....|E-3 2.7F ....|E-3 2.7F ....
....|..|E-3 2.7F ....|E-3 2.7F ....|E-3 2.7F ....
....|..|E-3 2.7F ....|E-3 2.7F ....|E-3 2.7F ....
....|..|E-3 2.3F ....|E-3 2.3F ....|E-3 2.3F ....
....|..|C-3 2.6F ....|C-3 2.6F ....|C-3 2.6F ....
....|..|C-3 2.6F ....|C-3 2.6F ....|C-3 2.6F ....
....|..|C-3 2.6F ....|C-3 2.6F ....|C-3 2.6F ....
....|..|C-3 2.3F ....|C-3 2.3F ....|C-3 2.3F ....
....|..|D#2 2.6F ....|D#2 2.6F ....|D#2 2.6F ....
....|..|D#2 2.6F ....|D#2 2.6F ....|D#2 2.6F ....
....|..|D#2 2.6F ....|D#2 2.6F ....|D#2 2.6F ....
....|..|D#2 2.3F ....|D#2 2.3F ....|D#2 2.3F ....
....|..|A#2 2.8F ....|A#2 2.8F ....|A#2 2.8F ....
....|..|A#2 2.8F ....|A#2 2.8F ....|A#2 2.8F ....
....|..|A#2 2.9F ....|A#2 2.9F ....|A#2 2.9F ....
....|..|A#2 2.9F ....|A#2 2.9F ....|A#2 2.9F ....
....|..|D#3 2.6F ....|D#3 2.6F ....|D#3 2.6F ....
....|..|D#3 2.3F ....|D#3 2.3F ....|D#3 2.3F ....
....|..|D#3 2.AF ....|D#3 2.AF ....|D#3 2.AF ....
....|..|D#3 2.3F ....|D#3 2.3F ....|D#3 2.3F ....
....|..|A#2 2.1F ....|A#2 2.1F ....|A#2 2.1F ....
....|..|A#2 2.1F ....|A#2 2.1F ....|A#2 2.1F ....
....|..|A#2 2.1F ....|A#2 2.1F ....|A#2 2.1F ....
....|..|A#2 2.3F ....|A#2 2.3F ....|A#2 2.3F ....
....|..|D-2 2.7F ....|D-2 2.7F ....|D-2 2.7F ....
....|..|D-2 2.7F ....|D-2 2.7F ....|D-2 2.7F ....
....|..|D-2 2.7F ....|D-2 2.7F ....|D-2 2.7F ....
....|..|D-2 2.3F ....|D-2 2.3F ....|D-2 2.3F ....
....|..|A-2 2.1F ....|A-2 2.1F ....|A-2 2.1F ....
....|..|A-2 2.1F ....|A-2 2.1F ....|A-2 2.1F ....
....|..|A-2 2.1F ....|A-2 2.1F ....|A-2 2.1F ....
....|..|A-2 2.3F ....|A-2 2.3F ....|A-2 2.3F ....
....|..|D-3 2.BF ....|D-3 2.BF ....|D-3 2.BF ....
....|..|D-3 2.BF ....|D-3 2.BF ....|D-3 2.BF ....
....|..|D-3 2.BF ....|D-3 2.BF ....|D-3 2.BF ....
....|..|D-3 2.3F ....|D-3 2.3F ....|D-3 2.3F ....
....|..|A-2 2.CF ....|A-2 2.CF ....|A-2 2.CF ....
....|..|A-2 2.CF ....|A-2 2.CF ....|A-2 2.CF ....
....|..|A-2 2.CF ....|A-2 2.CF ....|A-2 2.CF ....
....|..|A-2 2.3F ....|A-2 2.3F ....|A-2 2.3F ....

[Pattern32]
....|..|G-2 2.4F ....|G-2 2.4F ....|G-2 2.4F ....
....|..|G-2 2..F ....|G-2 2..F ....|G-2 2..F ....
....|..|G-2 2..F ....|G-2 2..F ....|G-2 2..F ....
....|..|G-2 2..F ....|G-2 2..F ....|G-2 2..F ....
....|..|D-3 2.8F ....|D-3 2.8F ....|D-3 2.8F ....
....|..|D-3 2.8F ....|D-3 2.8F ....|D-3 2.8F ....
....|..|D-3 2.8F ....|D-3 2.8F ....|D-3 2.8F ....
....|..|D-3 2.3F ....|D-3 2.3F ....|D-3 2.3F ....
....|..|G-3 2.6F ....|G-3 2.6F ....|G-3 2.6F ....
....|..|G-3 2.6F ....|G-3 2.6F ....|G-3 2.6F ....
....|..|G-3 2.6F ....|G-3 2.6F ....|G-3 2.6F ....
....|..|G-3 2.3F ....|G-3 2.3F ....|G-3 2.3F ....
....|..|D-3 2.2F ....|D-3 2.2F ....|D-3 2.2F ....
....|..|D-3 2.2F ....|D-3 2.2F ....|D-3 2.2F ....
....|..|D-3 2.2F ....|D-3 2.2F ....|D-3 2.2F ....
....|..|D-3 2.3F ....|D-3 2.3F ....|D-3 2.3F ....
....|..|A#3 2.9F ....|A#3 2.9F ....|A#3 2.9F ....
....|..|A#3 2.9F ....|A#3 2.9F ....|A#3 2.9F ....
....|..|A#3 2.9F ....|A#3 2.9F ....|A#3 2.9F ....
....|..|A#3 2.3F ....|A#3 2.3F ....|A#3 2.3F ....
....|..|D-3 2.7F ....|D-3 2.7F ....|D-3 2.7F ....
....|..|D-3 2.7F ....|D-3 2.7F ....|D-3 2.7F ....
....|..|D-3 2.7F ....|D-3 2.7F ....|D-3 2.7F ....
....|..|D-3 2.3F ....|D-3 2.3F ....|D-3 2.3F ....
....|..|G-3 2.BF ....|G-3 2.BF ....|G-3 2.BF ....
....|..|G-3 2.BF ....|G-3 2.BF ....|G-3 2.BF ....
....|..|G-3 2.BF ....|G-3 2.BF ....|G-3 2.BF ....
....|..|G-3 2.3F ....|G-3 2.3F ....|G-3 2.3F ....
....|..|D-3 2.7F ....|D-3 2.7F ....|D-3 2.7F ....
....|..|D-3 2.7F ....|D-3 2.7F ....|D-3 2.7F ....
....|..|D-3 2.7F ....|D-3 2.7F ....|D-3 2.7F ....
....|..|D-3 2.3F ....|D-3 2.3F ....|D-3 2.3F ....
....|..|F-2 2..F ....|F-2 2..F ....|F-2 2..F ....
....|..|F-2 2..F ....|F-2 2..F ....|F-2 2..F ....
....|..|F-2 2..F ....|F-2 2..F ....|F-2 2..F ....
....|..|F-2 2.3F ....|F-2 2.3F ....|F-2 2.3F ....
....|..|C-3 2.8F ....|C-3 2.8F ....|C-3 2.8F ....
....|..|C-3 2.8F ....|C-3 2.8F ....|C-3 2.8F ....
....|..|C-3 2.8F ....|C-3 2.8F ....|C-3 2.8F ....
....|..|C-3 2.3F ....|C-3 2.3F ....|C-3 2.3F ....
....|..|F-3 2.1F ....|F-3 2.1F ....|F-3 2.1F ....
....|..|F-3 2.1F ....|F-3 2.1F ....|F-3 2.1F ....
....|..|F-3 2.1F ....|F-3 2.1F ....|F-3 2.1F ....
....|..|F-3 2.3F ....|F-3 2.3F ....|F-3 2.3F ....
....|..|C-3 2.6F ....|C-3 2.6F ....|C-3 2.6F ....
....|..|C-3 2.6F ....|C-3 2.6F ....|C-3 2.6F ....
....|..|C-3 2.6F ....|C-3 2.6F ....|C-3 2.6F ....
....|..|C-3 2.3F ....|C-3 2.3F ....|C-3 2.3F ....
....|..|A-3 2.7F ....|A-3 2.7F ....|A-3 2.7F ....
....|..|A-3 2.7F ....|A-3 2.7F ....|A-3 2.7F ....
....|..|A-3 2.7F ....|A-3 2.7F ....|A-3 2.7F ....
....|..|A-3 2.3F ....|A-3 2.3F ....|A-3 2.3F ....
....|..|C-3 2.6F ....|C-3 2.6F ....|C-3 2.6F ....
....|..|C-3 2.6F ....|C-3 2.6F ....|C-3 2.6F ....
....|..|C-3 2.6F ....|C-3 2.6F ....|C-3 2.6F ....
....|..|C-3 2.3F ....|C-3 2.3F ....|C-3 2.3F ....
....|..|F-3 2.4F ....|F-3 2.4F ....|F-3 2.4F ....
....|..|F-3 2.4F ....|F-3 2.4F ....|F-3 2.4F ....
....|..|F-3 2.4F ....|F-3 2.4F ....|F-3 2.4F ....
....|..|F-3 2.3F ....|F-3 2.3F ....|F-3 2.3F ....
....|..|C-3 2.5F ....|C-3 2.5F ....|C-3 2.5F ....
....|..|C-3 2.5F ....|C-3 2.5F ....|C-3 2.5F ....
....|..|C-3 2.5F ....|C-3 2.5F ....|C-3 2.5F ....
....|..|C-3 2.3F ....|C-3 2.3F ....|C-3 2.3F ....

[Pattern33]
....|..|E-2 2.9F ....|E-2 2.9F ....|E-2 2.9F ....
....|..|E-2 2.9F ....|E-2 2.9F ....|E-2 2.9F ....
....|..|E-2 2.2F ....|E-2 2.2F ....|E-2 2.2F ....
....|..|E-2 2.2F ....|E-2 2.2F ....|E-2 2.2F ....
....|..|C-3 2.8F ....|C-3 2.8F ....|C-3 2.8F ....
....|..|C-3 2.8F ....|C-3 2.8F ....|C-3 2.8F ....
....|..|C-3 2.6F ....|C-3 2.6F ....|C-3 2.6F ....
....|..|C-3 2.6F ....|C-3 2.6F ....|C-3 2.6F ....
....|..|E-3 2.2F ....|E-3 2.2F ....|E-3 2.2F ....
....|..|E-3 2.2F ....|E-3 2.2F ....|E-3 2.2F ....
....|..|E-3 2.AF ....|E-3 2.AF ....|E-3 2.AF ....
....|..|E-3 2.AF ....|E-3 2.AF ....|E-3 2.AF ....
....|..|C-3 2.8F ....|C-3 2.8F ....|C-3 2.8F ....
....|..|C-3 2.DF ....|C-3 2.DF ....|C-3 2.DF ....
....|..|C-3 2.6F ....|C-3 2.6F ....|C-3 2.6F ....
....|..|C-3 2.6F ....|C-3 2.6F ....|C-3 2.6F ....
....|..|G-3 2.7F ....|G-3 2.7F ....|G-3 2.7F ....
....|..|G-3 2.7F ....|G-3 2.7F ....|G-3 2.7F ....
....|..|G-3 2.1F ....|G-3 2.1F ....|G-3 2.1F ....
....|..|G-3 2.1F ....|G-3 2.1F ....|G-3 2.1F ....
....|..|C-3 2.8F ....|C-3 2.8F ....|C-3 2.8F ....
....|..|C-3 2.8F ....|C-3 2.8F ....|C-3 2.8F ....
....|..|C-3 2.6F ....|C-3 2.6F ....|C-3 2.6F ....
....|..|C-3 2.6F ....|C-3 2.6F ....|C-3 2.6F ....
....|..|E-3 2.2F ....|E-3 2.2F ....|E-3 2.2F ....
....|..|E-3 2.2F ....|E-3 2.2F ....|E-3 2.2F ....
....|..|E-3 2.AF ....|E-3 2.AF ....|E-3 2.AF ....
....|..|E-3 2.AF ....|E-3 2.AF ....|E-3 2.AF ....
....|..|C-3 2.8F ....|C-3 2.8F ....|C-3 2.8F ....
....|..|C-3 2.EF ....|C-3 2.EF ....|C-3 2.EF ....
....|..|C-3 2.8F ....|C-3 2.8F ....|C-3 2.8F ....
....|..|C-3 2.3F ....|C-3 2.3F ....|C-3 2.3F ....
....|..|D#2 2.FF ....|D#2 2.FF ....|D#2 2.FF ....
....|..|D#2 2.FF ....|D#2 2.FF ....|D#2 2.FF ....
....|..|D#2 2.FF ....|D#2 2.FF ....|D#2 2.FF ....
....|..|D#2 2.3F ....|D#2 2.3F ....|D#2 2.3F ....
....|..|A#2 2.8F ....|A#2 2.8F ....|A#2 2.8F ....
....|..|A#2 2.8F ....|A#2 2.8F ....|A#2 2.8F ....
....|..|A#2 2.8F ....|A#2 2.8F ....|A#2 2.8F ....
....|..|A#2 2.3F ....|A#2 2.3F ....|A#2 2.3F ....
....|..|D#3 2.6F ....|D#3 2.6F ....|D#3 2.6F ....
....|..|D#3 2.6F ....|D#3 2.6F ....|D#3 2.6F ....
....|..|D#3 2.6F ....|D#3 2.6F ....|D#3 2.6F ....
....|..|D#3 2.3F ....|D#3 2.3F ....|D#3 2.3F ....
....|..|A#2 2.8F ....|A#2 2.8F ....|A#2 2.8F ....
....|..|A#2 2.8F ....|A#2 2.8F ....|A#2 2.8F ....
....|..|A#2 2.8F ....|A#2 2.8F ....|A#2 2.8F ....
....|..|A#2 2.3F ....|A#2 2.3F ....|A#2 2.3F ....
....|..|G-2 2.6F ....|G-2 2.6F ....|G-2 2.6F ....
....|..|G-2 2.6F ....|G-2 2.6F ....|G-2 2.6F ....
....|..|G-2 2.6F ....|G-2 2.6F ....|G-2 2.6F ....
....|..|R-- .... ....|R-- .... ....|R-- .... ....
....|..|G-2 2.6F ....|G-2 2.6F ....|G-2 2.6F ....
....|..|G-2 2.6F ....|G-2 2.6F ....|G-2 2.6F ....
....|..|G-2 2.6F ....|G-2 2.6F ....|G-2 2.6F ....
....|..|R-- .... ....|R-- .... ....|R-- .... ....
....|..|G-2 2.6F ....|G-2 2.6F ....|G-2 2.6F ....
....|..|G-2 2.6F ....|G-2 2.6F ....|G-2 2.6F ....
....|..|G-2 2.6F ....|G-2 2.6F ....|G-2 2.6F ....
....|..|R-- .... ....|R-- .... ....|R-- .... ....
....|..|G-2 2.CF ....|G-2 2.CF ....|G-2 2.CF ....
....|..|G-2 2.DF ....|G-2 2.DF ....|G-2 2.DF ....
....|..|G-2 2.DF ....|G-2 2.DF ....|G-2 2.DF ....
....|..|R-- .... ....|R-- .... ....|R-- .... ....

[Pattern34]
....|..|G-2 2.2F ....|G-2 2.2F ....|G-2 2.2F ....
....|..|G-2 2.2F ....|G-2 2.2F ....|G-2 2.2F ....
....|..|G-2 2.2F ....|G-2 2.2F ....|G-2 2.2F ....
....|..|G-2 2.3F ....|G-2 2.3F ....|G-2 2.3F ....
....|..|D-3 2.2F ....|D-3 2.2F ....|D-3 2.2F ....
....|..|D-3 2.2F ....|D-3 2.2F ....|D-3 2.2F ....
....|..|D-3 2.2F ....|D-3 2.2F ....|D-3 2.2F ....
....|..|D-3 2.3F ....|D-3 2.3F ....|D-3 2.3F ....
....|..|G-3 2.AF ....|G-3 2.AF ....|G-3 2.AF ....
....|..|G-3 2.AF ....|G-3 2.AF ....|G-3 2.AF ....
....|..|G-3 2.AF ....|G-3 2.AF ....|G-3 2.AF ....
....|..|G-3 2.3F ....|G-3 2.3F ....|G-3 2.3F ....
....|..|D-3 2.7F ....|D-3 2.7F ....|D-3 2.7F ....
....|..|D-3 2.7F ....|D-3 2.7F ....|D-3 2.7F ....
....|..|D-3 2.7F ....|D-3 2.7F ....|D-3 2.7F ....
....|..|D-3 2.3F ....|D-3 2.3F ....|D-3 2.3F ....
....|..|A#3 2.DF ....|A#3 2.DF ....|A#3 2.DF ....
....|..|A#3 2.DF ....|A#3 2.DF ....|A#3 2.DF ....
....|..|A#3 2.DF ....|A#3 2.DF ....|A#3 2.DF ....
....|..|A#3 2.3F ....|A#3 2.3F ....|A#3 2.3F ....
....|..|D-3 2.7F ....|D-3 2.7F ....|D-3 2.7F ....
....|..|D-3 2.7F ....|D-3 2.7F ....|D-3 2.7F ....
....|..|D-3 2.2F ....|D-3 2.2F ....|D-3 2.2F ....
....|..|D-3 2.2F ....|D-3 2.2F ....|D-3 2.2F ....
....|..|G-3 2.AF ....|G-3 2.AF ....|G-3 2.AF ....
....|..|G-3 2.3F ....|G-3 2.3F ....|G-3 2.3F ....
....|..|G-3 2.1F ....|G-3 2.1F ....|G-3 2.1F ....
....|..|G-3 2.1F ....|G-3 2.1F ....|G-3 2.1F ....
....|..|D-3 2.7F ....|D-3 2.7F ....|D-3 2.7F ....
....|..|D-3 2.AF ....|D-3 2.AF ....|D-3 2.AF ....
....|..|D-3 2.AF ....|D-3 2.AF ....|D-3 2.AF ....
....|..|D-3 2.AF ....|D-3 2.AF ....|D-3 2.AF ....
....|..|F-2 2.5F ....|F-2 2.5F ....|F-2 2.5F ....
....|..|F-2 2.5F ....|F-2 2.5F ....|F-2 2.5F ....
....|..|F-2 2.5F ....|F-2 2.5F ....|F-2 2.5F ....
....|..|F-2 2.3F ....|F-2 2.3F ....|F-2 2.3F ....
....|..|C-3 2.6F ....|C-3 2.6F ....|C-3 2.6F ....
....|..|C-3 2.6F ....|C-3 2.6F ....|C-3 2.6F ....
....|..|C-3 2.6F ....|C-3 2.6F ....|C-3 2.6F ....
....|..|C-3 2.3F ....|C-3 2.3F ....|C-3 2.3F ....
....|..|F-3 2.7F ....|F-3 2.7F ....|F-3 2.7F ....
....|..|F-3 2.7F ....|F-3 2.7F ....|F-3 2.7F ....
....|..|F-3 2.7F ....|F-3 2.7F ....|F-3 2.7F ....
....|..|F-3 2.3F ....|F-3 2.3F ....|F-3 2.3F ....
....|..|C-3 2.6F ....|C-3 2.6F ....|C-3 2.6F ....
....|..|C-3 2.6F ....|C-3 2.6F ....|C-3 2.6F ....
....|..|C-3 2.6F ....|C-3 2.6F ....|C-3 2.6F ....
....|..|C-3 2.3F ....|C-3 2.3F ....|C-3 2.3F ....
....|..|A-3 2.7F ....|A-3 2.7F ....|A-3 2.7F ....
....|..|A-3 2.7F ....|A-3 2.7F ....|A-3 2.7F ....
....|..|A-3 2.7F ....|A-3 2.7F ....|A-3 2.7F ....
....|..|A-3 2.7F ....|A-3 2.7F ....|A-3 2.7F ....
....|..|C-3 2.8F ....|C-3 2.8F ....|C-3 2.8F ....
....|..|C-3 2.8F ....|C-3 2.8F ....|C-3 2.8F ....
....|..|C-3 2.8F ....|C-3 2.8F ....|C-3 2.8F ....
....|..|C-3 2.8F ....|C-3 2.8F ....|C-3 2.8F ....
....|..|F-3 2.7F ....|F-3 2.7F ....|F-3 2.7F ....
....|..|F-3 2.7F ....|F-3 2.7F ....|F-3 2.7F ....
....|..|F-3 2.7F ....|F-3 2.7F ....|F-3 2.7F ....
....|..|F-3 2.7F ....|F-3 2.7F ....|F-3 2.7F ....
....|..|C-3 2.3F ....|C-3 2.3F ....|C-3 2.3F ....
....|..|C-3 2.9F ....|C-3 2.9F ....|C-3 2.9F ....
....|..|C-3 2.9F ....|C-3 2.9F ....|C-3 2.9F ....
....|..|C-3 2.3F ....|C-3 2.3F ....|C-3 2.3F ....

[Pattern35]
....|..|E-2 2.CF ....|E-2 2.CF ....|E-2 2.CF ....
....|..|E-2 2.CF ....|E-2 2.CF ....|E-2 2.CF ....
....|..|E-2 2.CF ....|E-2 2.CF ....|E-2 2.CF ....
....|..|E-2 2.3F ....|E-2 2.3F ....|E-2 2.3F ....
....|..|C-3 2.BF ....|C-3 2.BF ....|C-3 2.BF ....
....|..|C-3 2.BF ....|C-3 2.BF ....|C-3 2.BF ....
....|..|C-3 2.BF ....|C-3 2.BF ....|C-3 2.BF ....
....|..|C-3 2.3F ....|C-3 2.3F ....|C-3 2.3F ....
....|..|E-3 2..F ....|E-3 2..F ....|E-3 2..F ....
....|..|E-3 2..F ....|E-3 2..F ....|E-3 2..F ....
....|..|E-3 2..F ....|E-3 2..F ....|E-3 2..F ....
....|..|E-3 2.3F ....|E-3 2.3F ....|E-3 2.3F ....
....|..|C-3 2.9F ....|C-3 2.9F ....|C-3 2.9F ....
....|..|C-3 2.9F ....|C-3 2.9F ....|C-3 2.9F ....
....|..|C-3 2.9F ....|C-3 2.9F ....|C-3 2.9F ....
....|..|C-3 2.3F ....|C-3 2.3F ....|C-3 2.3F ....
....|..|G-3 2.9F ....|G-3 2.9F ....|G-3 2.9F ....
....|..|G-3 2.9F ....|G-3 2.9F ....|G-3 2.9F ....
....|..|G-3 2.2F ....|G-3 2.2F ....|G-3 2.2F ....
....|..|G-3 2.2F ....|G-3 2.2F ....|G-3 2.2F ....
....|..|C-3 2.3F ....|C-3 2.3F ....|C-3 2.3F ....
....|..|C-3 2.3F ....|C-3 2.3F ....|C-3 2.3F ....
....|..|C-3 2.BF ....|C-3 2.BF ....|C-3 2.BF ....
....|..|C-3 2.BF ....|C-3 2.BF ....|C-3 2.BF ....
....|..|E-3 2..F ....|E-3 2..F ....|E-3 2..F ....
....|..|E-3 2..F ....|E-3 2..F ....|E-3 2..F ....
....|..|E-3 2..F ....|E-3 2..F ....|E-3 2..F ....
....|..|E-3 2..F ....|E-3 2..F ....|E-3 2..F ....
....|..|C-3 2.3F ....|C-3 2.3F ....|C-3 2.3F ....
....|..|C-3 2.9F ....|C-3 2.9F ....|C-3 2.9F ....
....|..|C-3 2.9F ....|C-3 2.9F ....|C-3 2.9F ....
....|..|C-3 2.3F ....|C-3 2.3F ....|C-3 2.3F ....
....|..|D#2 2.6F ....|D#2 2.6F ....|D#2 2.6F ....
....|..|D#2 2.6F ....|D#2 2.6F ....|D#2 2.6F ....
....|..|D#2 2.6F ....|D#2 2.6F ....|D#2 2.6F ....
....|..|D#2 2.3F ....|D#2 2.3F ....|D#2 2.3F ....
....|..|A#2 2.9F ....|A#2 2.9F ....|A#2 2.9F ....
....|..|A#2 2.9F ....|A#2 2.9F ....|A#2 2.9F ....
....|..|A#2 2.9F ....|A#2 2.9F ....|A#2 2.9F ....
....|..|A#2 2.3F ....|A#2 2.3F ....|A#2 2.3F ....
....|..|D#3 2.1F ....|D#3 2.1F ....|D#3 2.1F ....
....|..|D#3 2.1F ....|D#3 2.1F ....|D#3 2.1F ....
....|..|D#3 2.1F ....|D#3 2.1F ....|D#3 2.1F ....
....|..|D#3 2.3F ....|D#3 2.3F ....|D#3 2.3F ....
....|..|A#2 2.8F ....|A#2 2.8F ....|A#2 2.8F ....
....|..|A#2 2.8F ....|A#2 2.8F ....|A#2 2.8F ....
....|..|A#2 2.8F ....|A#2 2.8F ....|A#2 2.8F ....
....|..|A#2 2.3F ....|A#2 2.3F ....|A#2 2.3F ....
....|..|D-2 2.9F ....|D-2 2.9F ....|D-2 2.9F ....
....|..|D-2 2.9F ....|D-2 2.9F ....|D-2 2.9F ....
....|..|D-2 2.FF ....|D-2 2.FF ....|D-2 2.FF ....
....|..|D-2 2.FF ....|D-2 2.FF ....|D-2 2.FF ....
....|..|A-2 2.4F ....|A-2 2.4F ....|A-2 2.4F ....
....|..|A-2 2.3F ....|A-2 2.3F ....|A-2 2.3F ....
....|..|A-2 2.2F ....|A-2 2.2F ....|A-2 2.2F ....
....|..|A-2 2.2F ....|A-2 2.2F ....|A-2 2.2F ....
....|..|D-3 2.8F ....|D-3 2.8F ....|D-3 2.8F ....
....|..|D-3 2.3F ....|D-3 2.3F ....|D-3 2.3F ....
....|..|D-3 2.2F ....|D-3 2.2F ....|D-3 2.2F ....
....|..|D-3 2.3F ....|D-3 2.3F ....|D-3 2.3F ....
....|..|A-2 2.8F ....|A-2 2.8F ....|A-2 2.8F ....
....|..|A-2 2.8F ....|A-2 2.8F ....|A-2 2.8F ....
....|..|A-2 2.8F ....|A-2 2.8F ....|A-2 2.8F ....
....|..|A-2 2.3F ....|A-2 2.3F ....|A-2 2.3F ....

[Pattern36]
....|..|G-2 2.5F ....|G-2 2.5F ....|G-2 2.5F ....
....|..|G-2 2.5F ....|G-2 2.5F ....|G-2 2.5F ....
....|..|G-2 2.5F ....|G-2 2.5F ....|G-2 2.5F ....
....|..|G-2 2.3F ....|G-2 2.3F ....|G-2 2.3F ....
....|..|D-3 2.AF ....|D-3 2.AF ....|D-3 2.AF ....
....|..|D-3 2.AF ....|D-3 2.AF ....|D-3 2.AF ....
....|..|D-3 2.AF ....|D-3 2.AF ....|D-3 2.AF ....
....|..|D-3 2.3F ....|D-3 2.3F ....|D-3 2.3F ....
....|..|G-3 2.1F ....|G-3 2.1F ....|G-3 2.1F ....
....|..|G-3 2.1F ....|G-3 2.1F ....|G-3 2.1F ....
....|..|G-3 2.1F ....|G-3 2.1F ....|G-3 2.1F ....
....|..|G-3 2.3F ....|G-3 2.3F ....|G-3 2.3F ....
....|..|D-3 2.1F ....|D-3 2.1F ....|D-3 2.1F ....
....|..|D-3 2.1F ....|D-3 2.1F ....|D-3 2.1F ....
....|..|D-3 2.1F ....|D-3 2.1F ....|D-3 2.1F ....
....|..|D-3 2.3F ....|D-3 2.3F ....|D-3 2.3F ....
....|..|A#3 2.9F ....|A#3 2.9F ....|A#3 2.9F ....
....|..|A#3 2.9F ....|A#3 2.9F ....|A#3 2.9F ....
....|..|A#3 2.9F ....|A#3 2.9F ....|A#3 2.9F ....
....|..|A#3 2.9F ....|A#3 2.9F ....|A#3 2.9F ....
....|..|D-3 2.7F ....|D-3 2.7F ....|D-3 2.7F ....
....|..|D-3 2.3F ....|D-3 2.3F ....|D-3 2.3F ....
....|..|D-3 2.7F ....|D-3 2.7F ....|D-3 2.7F ....
....|..|D-3 2.7F ....|D-3 2.7F ....|D-3 2.7F ....
....|..|G-3 2.1F ....|G-3 2.1F ....|G-3 2.1F ....
....|..|G-3 2.3F ....|G-3 2.3F ....|G-3 2.3F ....
....|..|G-3 2.6F ....|G-3 2.6F ....|G-3 2.6F ....
....|..|G-3 2.6F ....|G-3 2.6F ....|G-3 2.6F ....
....|..|D-3 2.5F ....|D-3 2.5F ....|D-3 2.5F ....
....|..|D-3 2.8F ....|D-3 2.8F ....|D-3 2.8F ....
....|..|D-3 2.8F ....|D-3 2.8F ....|D-3 2.8F ....
....|..|D-3 2.8F ....|D-3 2.8F ....|D-3 2.8F ....
....|..|F-2 2..F ....|F-2 2..F ....|F-2 2..F ....
....|..|F-2 2..F ....|F-2 2..F ....|F-2 2..F ....
....|..|F-2 2..F ....|F-2 2..F ....|F-2 2..F ....
....|..|F-2 2.3F ....|F-2 2.3F ....|F-2 2.3F ....
....|..|C-3 2.6F ....|C-3 2.6F ....|C-3 2.6F ....
....|..|C-3 2.6F ....|C-3 2.6F ....|C-3 2.6F ....
....|..|C-3 2.6F ....|C-3 2.6F ....|C-3 2.6F ....
....|..|C-3 2.3F ....|C-3 2.3F ....|C-3 2.3F ....
....|..|F-3 2.8F ....|F-3 2.8F ....|F-3 2.8F ....
....|..|F-3 2.8F ....|F-3 2.8F ....|F-3 2.8F ....
....|..|F-3 2.8F ....|F-3 2.8F ....|F-3 2.8F ....
....|..|F-3 2.3F ....|F-3 2.3F ....|F-3 2.3F ....
....|..|C-3 2.7F ....|C-3 2.7F ....|C-3 2.7F ....
....|..|C-3 2.7F ....|C-3 2.7F ....|C-3 2.7F ....
....|..|C-3 2.7F ....|C-3 2.7F ....|C-3 2.7F ....
....|..|C-3 2.3F ....|C-3 2.3F ....|C-3 2.3F ....
....|..|A-3 2.BF ....|A-3 2.BF ....|A-3 2.BF ....
....|..|A-3 2.BF ....|A-3 2.BF ....|A-3 2.BF ....
....|..|A-3 2.1F ....|A-3 2.1F ....|A-3 2.1F ....
....|..|A-3 2.1F ....|A-3 2.1F ....|A-3 2.1F ....
....|..|C-3 2.7F ....|C-3 2.7F ....|C-3 2.7F ....
....|..|C-3 2.3F ....|C-3 2.3F ....|C-3 2.3F ....
....|..|C-3 2.6F ....|C-3 2.6F ....|C-3 2.6F ....
....|..|C-3 2.6F ....|C-3 2.6F ....|C-3 2.6F ....
....|..|F-3 2.8F ....|F-3 2.8F ....|F-3 2.8F ....
....|..|F-3 2.3F ....|F-3 2.3F ....|F-3 2.3F ....
....|..|F-3 2.6F ....|F-3 2.6F ....|F-3 2.6F ....
....|..|F-3 2.6F ....|F-3 2.6F ....|F-3 2.6F ....
....|..|C-3 2.3F ....|C-3 2.3F ....|C-3 2.3F ....
....|..|C-3 2.8F ....|C-3 2.8F ....|C-3 2.8F ....
....|..|C-3 2.8F ....|C-3 2.8F ....|C-3 2.8F ....
....|..|C-3 2.8F ....|C-3 2.8F ....|C-3 2.8F ....

[Pattern37]
....|..|E-2 2.4F ....|E-2 2.4F ....|E-2 2.4F ....
....|..|E-2 2.4F ....|E-2 2.4F ....|E-2 2.4F ....
....|..|E-2 2.4F ....|E-2 2.4F ....|E-2 2.4F ....
....|..|E-2 2.3F ....|E-2 2.3F ....|E-2 2.3F ....
....|..|C-3 2.7F ....|C-3 2.7F ....|C-3 2.7F ....
....|..|C-3 2.7F ....|C-3 2.7F ....|C-3 2.7F ....
....|..|C-3 2.7F ....|C-3 2.7F ....|C-3 2.7F ....
....|..|C-3 2.3F ....|C-3 2.3F ....|C-3 2.3F ....
....|..|E-3 2.AF ....|E-3 2.AF ....|E-3 2.AF ....
....|..|E-3 2.AF ....|E-3 2.AF ....|E-3 2.AF ....
....|..|E-3 2.AF ....|E-3 2.AF ....|E-3 2.AF ....
....|..|E-3 2.3F ....|E-3 2.3F ....|E-3 2.3F ....
....|..|C-3 2.8F ....|C-3 2.8F ....|C-3 2.8F ....
....|..|C-3 2.8F ....|C-3 2.8F ....|C-3 2.8F ....
....|..|C-3 2.3F ....|C-3 2.3F ....|C-3 2.3F ....
....|..|C-3 2.3F ....|C-3 2.3F ....|C-3 2.3F ....
....|..|G-3 2.BF ....|G-3 2.BF ....|G-3 2.BF ....
....|..|G-3 2.BF ....|G-3 2.BF ....|G-3 2.BF ....
....|..|G-3 2.1F ....|G-3 2.1F ....|G-3 2.1F ....
....|..|G-3 2.1F ....|G-3 2.1F ....|G-3 2.1F ....
....|..|C-3 2.6F ....|C-3 2.6F ....|C-3 2.6F ....
....|..|C-3 2.3F ....|C-3 2.3F ....|C-3 2.3F ....
....|..|C-3 2.6F ....|C-3 2.6F ....|C-3 2.6F ....
....|..|C-3 2.6F ....|C-3 2.6F ....|C-3 2.6F ....
....|..|E-3 2.AF ....|E-3 2.AF ....|E-3 2.AF ....
....|..|E-3 2.AF ....|E-3 2.AF ....|E-3 2.AF ....
....|..|E-3 2.3F ....|E-3 2.3F ....|E-3 2.3F ....
....|..|E-3 2.3F ....|E-3 2.3F ....|E-3 2.3F ....
....|..|C-3 2.3F ....|C-3 2.3F ....|C-3 2.3F ....
....|..|C-3 2.3F ....|C-3 2.3F ....|C-3 2.3F ....
....|..|C-3 2.3F ....|C-3 2.3F ....|C-3 2.3F ....
....|..|C-3 2.3F ....|C-3 2.3F ....|C-3 2.3F ....
....|..|D#2 2.2F ....|D#2 2.2F ....|D#2 2.2F ....
....|..|D#2 2.2F ....|D#2 2.2F ....|D#2 2.2F ....
....|..|D#2 2.2F ....|D#2 2.2F ....|D#2 2.2F ....
....|..|D#2 2.3F ....|D#2 2.3F ....|D#2 2.3F ....
....|..|G-6 2.3F ....|G-6 2.3F ....|G-6 2.3F ....
....|..|G-6 2.3F ....|G-6 2.3F ....|G-6 2.3F ....
....|..|G-6 2.3F ....|G-6 2.3F ....|G-6 2.3F ....
....|..|R-- .... ....|R-- .... ....|R-- .... ....
....|..|G-5 2.3F ....|G-5 2.3F ....|G-5 2.3F ....
....|..|G-5 2.3F ....|G-5 2.3F ....|G-5 2.3F ....
....|..|G-5 2.3F ....|G-5 2.3F ....|G-5 2.3F ....
....|..|R-- .... ....|R-- .... ....|R-- .... ....
....|..|G-5 2.3F ....|G-5 2.3F ....|G-5 2.3F ....
....|..|G-5 2.3F ....|G-5 2.3F ....|G-5 2.3F ....
....|..|G-5 2.3F ....|G-5 2.3F ....|G-5 2.3F ....
....|..|R-- .... ....|R-- .... ....|R-- .... ....
....|..|D-2 2.3F ....|D-2 2.3F ....|D-2 2.3F ....
....|..|D-2 2.3F ....|D-2 2.3F ....|D-2 2.3F ....
....|..|D-2 2.3F ....|D-2 2.3F ....|D-2 2.3F ....
....|..|D-2 2.7F ....|D-2 2.7F ....|D-2 2.7F ....
....|..|G-4 2.3F ....|G-4 2.3F ....|G-4 2.3F ....
....|..|R-- .... ....|R-- .... ....|R-- .... ....
....|..|G-4 2.3F ....|G-4 2.3F ....|G-4 2.3F ....
....|..|G-4 2.3F ....|G-4 2.3F ....|G-4 2.3F ....
....|..|G-3 2.3F ....|G-3 2.3F ....|G-3 2.3F ....
....|..|G-3 2.3F ....|G-3 2.3F ....|G-3 2.3F ....
....|..|G-3 2.3F ....|G-3 2.3F ....|G-3 2.3F ....
....|..|R-- .... ....|R-- .... ....|R-- .... ....
....|..|G-3 2.3F ....|G-3 2.3F ....|G-3 2.3F ....
....|..|G-3 2.3F ....|G-3 2.3F ....|G-3 2.3F ....
....|..|G-3 2.3F ....|G-3 2.3F ....|G-3 2.3F ....
....|..|G-3 2.3F ....|G-3 2.3F ....|G-3 2.3F ....

[Pattern38]
....|..|G-2 2.4F ....|G-2 2.4F ....|G-2 2.4F ....
....|..|G-2 2..F ....|G-2 2..F ....|G-2 2..F ....
....|..|G-2 2..F ....|G-2 2..F ....|G-2 2..F ....
....|..|G-2 2..F ....|G-2 2..F ....|G-2 2..F ....
....|..|D-3 2.8F ....|D-3 2.8F ....|D-3 2.8F ....
....|..|D-3 2.8F ....|D-3 2.8F ....|D-3 2.8F ....
....|..|D-3 2.8F ....|D-3 2.8F ....|D-3 2.8F ....
....|..|D-3 2.3F ....|D-3 2.3F ....|D-3 2.3F ....
....|..|G-3 2.6F ....|G-3 2.6F ....|G-3 2.6F ....
....|..|G-3 2.6F ....|G-3 2.6F ....|G-3 2.6F ....
....|..|G-3 2.6F ....|G-3 2.6F ....|G-3 2.6F ....
....|..|G-3 2.3F ....|G-3 2.3F ....|G-3 2.3F ....
....|..|D-3 2.2F ....|D-3 2.2F ....|D-3 2.2F ....
....|..|D-3 2.2F ....|D-3 2.2F ....|D-3 2.2F ....
....|..|D-3 2.2F ....|D-3 2.2F ....|D-3 2.2F ....
....|..|D-3 2.3F ....|D-3 2.3F ....|D-3 2.3F ....
....|..|A#3 2.9F ....|A#3 2.9F ....|A#3 2.9F ....
....|..|A#3 2.9F ....|A#3 2.9F ....|A#3 2.9F ....
....|..|A#3 2.9F ....|A#3 2.9F ....|A#3 2.9F ....
....|..|A#3 2.3F ....|A#3 2.3F ....|A#3 2.3F ....
....|..|D-3 2.7F ....|D-3 2.7F ....|D-3 2.7F ....
....|..|D-3 2.7F ....|D-3 2.7F ....|D-3 2.7F ....
....|..|D-3 2.7F ....|D-3 2.7F ....|D-3 2.7F ....
....|..|D-3 2.3F ....|D-3 2.3F ....|D-3 2.3F ....
....|..|G-3 2.BF ....|G-3 2.BF ....|G-3 2.BF ....
....|..|G-3 2.BF ....|G-3 2.BF ....|G-3 2.BF ....
....|..|G-3 2.BF ....|G-3 2.BF ....|G-3 2.BF ....
....|..|G-3 2.3F ....|G-3 2.3F ....|G-3 2.3F ....
....|..|D-3 2.7F ....|D-3 2.7F ....|D-3 2.7F ....
....|..|D-3 2.7F ....|D-3 2.7F ....|D-3 2.7F ....
....|..|D-3 2.7F ....|D-3 2.7F ....|D-3 2.7F ....
....|..|D-3 2.3F ....|D-3 2.3F ....|D-3 2.3F ....
....|..|F-2 2..F ....|F-2 2..F ....|F-2 2..F ....
....|..|F-2 2..F ....|F-2 2..F ....|F-2 2..F ....
....|..|F-2 2..F ....|F-2 2..F ....|F-2 2..F ....
....|..|F-2 2.3F ....|F-2 2.3F ....|F-2 2.3F ....
....|..|C-3 2.8F ....|C-3 2.8F ....|C-3 2.8F ....
....|..|C-3 2.8F ....|C-3 2.8F ....|C-3 2.8F ....
....|..|C-3 2.8F ....|C-3 2.8F ....|C-3 2.8F ....
....|..|C-3 2.3F ....|C-3 2.3F ....|C-3 2.3F ....
....|..|F-3 2.9F ....|F-3 2.9F ....|F-3 2.9F ....
....|..|F-3 2.9F ....|F-3 2.9F ....|F-3 2.9F ....
....|..|F-3 2.9F ....|F-3 2.9F ....|F-3 2.9F ....
....|..|F-3 2.3F ....|F-3 2.3F ....|F-3 2.3F ....
....|..|C-3 2.1F ....|C-3 2.1F ....|C-3 2.1F ....
....|..|C-3 2.1F ....|C-3 2.1F ....|C-3 2.1F ....
....|..|C-3 2.1F ....|C-3 2.1F ....|C-3 2.1F ....
....|..|C-3 2.3F ....|C-3 2.3F ....|C-3 2.3F ....
....|..|A-3 2.4F ....|A-3 2.4F ....|A-3 2.4F ....
....|..|A-3 2.4F ....|A-3 2.4F ....|A-3 2.4F ....
....|..|A-3 2.4F ....|A-3 2.4F ....|A-3 2.4F ....
....|..|A-3 2.3F ....|A-3 2.3F ....|A-3 2.3F ....
....|..|C-3 2.9F ....|C-3 2.9F ....|C-3 2.9F ....
....|..|C-3 2.9F ....|C-3 2.9F ....|C-3 2.9F ....
....|..|C-3 2.9F ....|C-3 2.9F ....|C-3 2.9F ....
....|..|C-3 2.3F ....|C-3 2.3F ....|C-3 2.3F ....
....|..|F-3 2.AF ....|F-3 2.AF ....|F-3 2.AF ....
....|..|F-3 2.AF ....|F-3 2.AF ....|F-3 2.AF ....
....|..|F-3 2.AF ....|F-3 2.AF ....|F-3 2.AF ....
....|..|F-3 2.3F ....|F-3 2.3F ....|F-3 2.3F ....
....|..|C-3 2.9F ....|C-3 2.9F ....|C-3 2.9F ....
....|..|C-3 2.9F ....|C-3 2.9F ....|C-3 2.9F ....
....|..|C-3 2.9F ....|C-3 2.9F ....|C-3 2.9F ....
....|..|C-3 2.3F ....|C-3 2.3F ....|C-3 2.3F ....

[Pattern39]
....|..|E-2 2.AF ....|E-2 2.AF ....|E-2 2.AF ....
....|..|E-2 2.AF ....|E-2 2.AF ....|E-2 2.AF ....
....|..|E-2 2.AF ....|E-2 2.AF ....|E-2 2.AF ....
....|..|E-2 2.3F ....|E-2 2.3F ....|E-2 2.3F ....
....|..|C-3 2.AF ....|C-3 2.AF ....|C-3 2.AF ....
....|..|C-3 2.AF ....|C-3 2.AF ....|C-3 2.AF ....
....|..|C-3 2.AF ....|C-3 2.AF ....|C-3 2.AF ....
....|..|C-3 2.3F ....|C-3 2.3F ....|C-3 2.3F ....
....|..|E-3 2.4F ....|E-3 2.4F ....|E-3 2.4F ....
....|..|E-3 2.4F ....|E-3 2.4F ....|E-3 2.4F ....
....|..|E-3 2.4F ....|E-3 2.4F ....|E-3 2.4F ....
....|..|E-3 2.3F ....|E-3 2.3F ....|E-3 2.3F ....
....|..|C-3 2.AF ....|C-3 2.AF ....|C-3 2.AF ....
....|..|C-3 2.AF ....|C-3 2.AF ....|C-3 2.AF ....
....|..|C-3 2.AF ....|C-3 2.AF ....|C-3 2.AF ....
....|..|C-3 2.3F ....|C-3 2.3F ....|C-3 2.3F ....
....|..|G-3 2.CF ....|G-3 2.CF ....|G-3 2.CF ....
....|..|G-3 2.CF ....|G-3 2.CF ....|G-3 2.CF ....
....|..|G-3 2.6F ....|G-3 2.6F ....|G-3 2.6F ....
....|..|G-3 2.6F ....|G-3 2.6F ....|G-3 2.6F ....
....|..|C-3 2.9F ....|C-3 2.9F ....|C-3 2.9F ....
....|..|C-3 2.3F ....|C-3 2.3F ....|C-3 2.3F ....
....|..|C-3 2.9F ....|C-3 2.9F ....|C-3 2.9F ....
....|..|C-3 2.9F ....|C-3 2.9F ....|C-3 2.9F ....
....|..|E-3 2.5F ....|E-3 2.5F ....|E-3 2.5F ....
....|..|E-3 2.5F ....|E-3 2.5F ....|E-3 2.5F ....
....|..|E-3 2.3F ....|E-3 2.3F ....|E-3 2.3F ....
....|..|E-3 2.3F ....|E-3 2.3F ....|E-3 2.3F ....
....|..|C-3 2.3F ....|C-3 2.3F ....|C-3 2.3F ....
....|..|C-3 2.3F ....|C-3 2.3F ....|C-3 2.3F ....
....|..|C-3 2.3F ....|C-3 2.3F ....|C-3 2.3F ....
....|..|C-3 2.3F ....|C-3 2.3F ....|C-3 2.3F ....
....|..|D#2 2.FF ....|D#2 2.FF ....|D#2 2.FF ....
....|..|D#2 2.FF ....|D#2 2.FF ....|D#2 2.FF ....
....|..|D#2 2.FF ....|D#2 2.FF ....|D#2 2.FF ....
....|..|D#2 2.FF ....|D#2 2.FF ....|D#2 2.FF ....
....|..|A#2 2.5F ....|A#2 2.5F ....|A#2 2.5F ....
....|..|A#2 2.5F ....|A#2 2.5F ....|A#2 2.5F ....
....|..|A#2 2.8F ....|A#2 2.8F ....|A#2 2.8F ....
....|..|A#2 2.8F ....|A#2 2.8F ....|A#2 2.8F ....
....|..|D#3 2.4F ....|D#3 2.4F ....|D#3 2.4F ....
....|..|D#3 2.4F ....|D#3 2.4F ....|D#3 2.4F ....
....|..|D#3 2.4F ....|D#3 2.4F ....|D#3 2.4F ....
....|..|D#3 2.4F ....|D#3 2.4F ....|D#3 2.4F ....
....|..|A#2 2.5F ....|A#2 2.5F ....|A#2 2.5F ....
....|..|A#2 2.5F ....|A#2 2.5F ....|A#2 2.5F ....
....|..|A#2 2.5F ....|A#2 2.5F ....|A#2 2.5F ....
....|..|A#2 2.3F ....|A#2 2.3F ....|A#2 2.3F ....
....|..|D-2 2.9F ....|D-2 2.9F ....|D-2 2.9F ....
....|..|D-2 2.9F ....|D-2 2.9F ....|D-2 2.9F ....
....|..|D-2 2.FF ....|D-2 2.FF ....|D-2 2.FF ....
....|..|D-2 2.FF ....|D-2 2.FF ....|D-2 2.FF ....
....|..|A-2 2.4F ....|A-2 2.4F ....|A-2 2.4F ....
....|..|A-2 2.3F ....|A-2 2.3F ....|A-2 2.3F ....
....|..|A-2 2.2F ....|A-2 2.2F ....|A-2 2.2F ....
....|..|A-2 2.2F ....|A-2 2.2F ....|A-2 2.2F ....
....|..|D-3 2.8F ....|D-3 2.8F ....|D-3 2.8F ....
....|..|D-3 2.3F ....|D-3 2.3F ....|D-3 2.3F ....
....|..|D-3 2.2F ....|D-3 2.2F ....|D-3 2.2F ....
....|..|D-3 2.3F ....|D-3 2.3F ....|D-3 2.3F ....
....|..|A-2 2.8F ....|A-2 2.8F ....|A-2 2.8F ....
....|..|A-2 2.8F ....|A-2 2.8F ....|A-2 2.8F ....
....|..|A-2 2.8F ....|A-2 2.8F ....|A-2 2.8F ....
....|..|A-2 2.3F ....|A-2 2.3F ....|A-2 2.3F ....

[Pattern42]
....|..|G-2 2..F ....|G-2 2..F ....|G-2 2..F ....
....|..|G-2 2..F ....|G-2 2..F ....|G-2 2..F ....
....|..|G-2 2..F ....|G-2 2..F ....|G-2 2..F ....
....|..|G-2 2.3F ....|G-2 2.3F ....|G-2 2.3F ....
....|..|D-3 2.8F ....|D-3 2.8F ....|D-3 2.8F ....
....|..|D-3 2.8F ....|D-3 2.8F ....|D-3 2.8F ....
....|..|D-3 2.8F ....|D-3 2.8F ....|D-3 2.8F ....
....|..|D-3 2.3F ....|D-3 2.3F ....|D-3 2.3F ....
....|..|G-3 2.AF ....|G-3 2.AF ....|G-3 2.AF ....
....|..|G-3 2.AF ....|G-3 2.AF ....|G-3 2.AF ....
....|..|G-3 2.AF ....|G-3 2.AF ....|G-3 2.AF ....
....|..|G-3 2.3F ....|G-3 2.3F ....|G-3 2.3F ....
....|..|D-3 2.7F ....|D-3 2.7F ....|D-3 2.7F ....
....|..|D-3 2.7F ....|D-3 2.7F ....|D-3 2.7F ....
....|..|D-3 2.7F ....|D-3 2.7F ....|D-3 2.7F ....
....|..|D-3 2.3F ....|D-3 2.3F ....|D-3 2.3F ....
....|..|A#3 2.3F ....|A#3 2.3F ....|A#3 2.3F ....
....|..|A#3 2.3F ....|A#3 2.3F ....|A#3 2.3F ....
....|..|A#3 2.3F ....|A#3 2.3F ....|A#3 2.3F ....
....|..|A#3 2.3F ....|A#3 2.3F ....|A#3 2.3F ....
....|..|D-3 2.3F ....|D-3 2.3F ....|D-3 2.3F ....
....|..|D-3 2.3F ....|D-3 2.3F ....|D-3 2.3F ....
....|..|D-3 2.3F ....|D-3 2.3F ....|D-3 2.3F ....
....|..|D-3 2.3F ....|D-3 2.3F ....|D-3 2.3F ....
....|..|G-3 2.3F ....|G-3 2.3F ....|G-3 2.3F ....
....|..|G-3 2.3F ....|G-3 2.3F ....|G-3 2.3F ....
....|..|G-3 2.3F ....|G-3 2.3F ....|G-3 2.3F ....
....|..|G-3 2.3F ....|G-3 2.3F ....|G-3 2.3F ....
....|..|D-3 2.3F ....|D-3 2.3F ....|D-3 2.3F ....
....|..|D-3 2.3F ....|D-3 2.3F ....|D-3 2.3F ....
....|..|D-3 2.3F ....|D-3 2.3F ....|D-3 2.3F ....
....|..|D-3 2.3F ....|D-3 2.3F ....|D-3 2.3F ....
....|..|F-2 2.5F ....|F-2 2.5F ....|F-2 2.5F ....
....|..|F-2 2.5F ....|F-2 2.5F ....|F-2 2.5F ....
....|..|F-2 2.5F ....|F-2 2.5F ....|F-2 2.5F ....
....|..|F-2 2.3F ....|F-2 2.3F ....|F-2 2.3F ....
....|..|C-3 2.6F ....|C-3 2.6F ....|C-3 2.6F ....
....|..|C-3 2.6F ....|C-3 2.6F ....|C-3 2.6F ....
....|..|C-3 2.6F ....|C-3 2.6F ....|C-3 2.6F ....
....|..|C-3 2.3F ....|C-3 2.3F ....|C-3 2.3F ....
....|..|F-3 2.7F ....|F-3 2.7F ....|F-3 2.7F ....
....|..|F-3 2.7F ....|F-3 2.7F ....|F-3 2.7F ....
....|..|F-3 2.7F ....|F-3 2.7F ....|F-3 2.7F ....
....|..|F-3 2.3F ....|F-3 2.3F ....|F-3 2.3F ....
....|..|C-3 2.6F ....|C-3 2.6F ....|C-3 2.6F ....
....|..|C-3 2.6F ....|C-3 2.6F ....|C-3 2.6F ....
....|..|C-3 2.6F ....|C-3 2.6F ....|C-3 2.6F ....
....|..|C-3 2.3F ....|C-3 2.3F ....|C-3 2.3F ....
....|..|A-3 2.3F ....|A-3 2.3F ....|A-3 2.3F ....
....|..|A-3 2.3F ....|A-3 2.3F ....|A-3 2.3F ....
....|..|A-3 2.3F ....|A-3 2.3F ....|A-3 2.3F ....
....|..|A-3 2.3F ....|A-3 2.3F ....|A-3 2.3F ....
....|..|C-3 2.3F ....|C-3 2.3F ....|C-3 2.3F ....
....|..|C-3 2.3F ....|C-3 2.3F ....|C-3 2.3F ....
....|..|C-3 2.3F ....|C-3 2.3F ....|C-3 2.3F ....
....|..|C-3 2.3F ....|C-3 2.3F ....|C-3 2.3F ....
....|..|F-3 2.3F ....|F-3 2.3F ....|F-3 2.3F ....
....|..|F-3 2.3F ....|F-3 2.3F ....|F-3 2.3F ....
....|..|F-3 2.3F ....|F-3 2.3F ....|F-3 2.3F ....
....|..|F-3 2.3F ....|F-3 2.3F ....|F-3 2.3F ....
....|..|C-3 2.3F ....|C-3 2.3F ....|C-3 2.3F ....
....|..|C-3 2.3F ....|C-3 2.3F ....|C-3 2.3F ....
....|..|C-3 2.3F ....|C-3 2.3F ....|C-3 2.3F ....
....|..|C-3 2.3F ....|C-3 2.3F ....|C-3 2.3F ....

[Pattern43]
....|..|E-2 2.8F ....|E-2 2.8F ....|E-2 2.8F ....
....|..|E-2 2.8F ....|E-2 2.8F ....|E-2 2.8F ....
....|..|E-2 2.8F ....|E-2 2.8F ....|E-2 2.8F ....
....|..|E-2 2.3F ....|E-2 2.3F ....|E-2 2.3F ....
....|..|C-3 2.1F ....|C-3 2.1F ....|C-3 2.1F ....
....|..|C-3 2.1F ....|C-3 2.1F ....|C-3 2.1F ....
....|..|C-3 2.1F ....|C-3 2.1F ....|C-3 2.1F ....
....|..|C-3 2.3F ....|C-3 2.3F ....|C-3 2.3F ....
....|..|E-3 2..F ....|E-3 2..F ....|E-3 2..F ....
....|..|E-3 2..F ....|E-3 2..F ....|E-3 2..F ....
....|..|E-3 2..F ....|E-3 2..F ....|E-3 2..F ....
....|..|E-3 2.3F ....|E-3 2.3F ....|E-3 2.3F ....
....|..|C-3 2.9F ....|C-3 2.9F ....|C-3 2.9F ....
....|..|C-3 2.9F ....|C-3 2.9F ....|C-3 2.9F ....
....|..|C-3 2.9F ....|C-3 2.9F ....|C-3 2.9F ....
....|..|C-3 2.3F ....|C-3 2.3F ....|C-3 2.3F ....
....|..|G-3 2.3F ....|G-3 2.3F ....|G-3 2.3F ....
....|..|G-3 2.3F ....|G-3 2.3F ....|G-3 2.3F ....
....|..|G-3 2.3F ....|G-3 2.3F ....|G-3 2.3F ....
....|..|G-3 2.3F ....|G-3 2.3F ....|G-3 2.3F ....
....|..|C-3 2.3F ....|C-3 2.3F ....|C-3 2.3F ....
....|..|C-3 2.3F ....|C-3 2.3F ....|C-3 2.3F ....
....|..|C-3 2.3F ....|C-3 2.3F ....|C-3 2.3F ....
....|..|C-3 2.3F ....|C-3 2.3F ....|C-3 2.3F ....
....|..|E-3 2.3F ....|E-3 2.3F ....|E-3 2.3F ....
....|..|E-3 2.3F ....|E-3 2.3F ....|E-3 2.3F ....
....|..|E-3 2.3F ....|E-3 2.3F ....|E-3 2.3F ....
....|..|E-3 2.3F ....|E-3 2.3F ....|E-3 2.3F ....
....|..|C-3 2.3F ....|C-3 2.3F ....|C-3 2.3F ....
....|..|C-3 2.3F ....|C-3 2.3F ....|C-3 2.3F ....
....|..|C-3 2.3F ....|C-3 2.3F ....|C-3 2.3F ....
....|..|C-3 2.3F ....|C-3 2.3F ....|C-3 2.3F ....
....|..|D#2 2.FF ....|D#2 2.FF ....|D#2 2.FF ....
....|..|D#2 2.FF ....|D#2 2.FF ....|D#2 2.FF ....
....|..|D#2 2.FF ....|D#2 2.FF ....|D#2 2.FF ....
....|..|D#2 2.3F ....|D#2 2.3F ....|D#2 2.3F ....
....|..|A#2 2.3F ....|A#2 2.3F ....|A#2 2.3F ....
....|..|A#2 2.3F ....|A#2 2.3F ....|A#2 2.3F ....
....|..|A#2 2.3F ....|A#2 2.3F ....|A#2 2.3F ....
....|..|A#2 2.3F ....|A#2 2.3F ....|A#2 2.3F ....
....|..|D#3 2.6F ....|D#3 2.6F ....|D#3 2.6F ....
....|..|D#3 2.6F ....|D#3 2.6F ....|D#3 2.6F ....
....|..|D#3 2.6F ....|D#3 2.6F ....|D#3 2.6F ....
....|..|D#3 2.3F ....|D#3 2.3F ....|D#3 2.3F ....
....|..|A#2 2.7F ....|A#2 2.7F ....|A#2 2.7F ....
....|..|A#2 2.7F ....|A#2 2.7F ....|A#2 2.7F ....
....|..|A#2 2.7F ....|A#2 2.7F ....|A#2 2.7F ....
....|..|A#2 2.3F ....|A#2 2.3F ....|A#2 2.3F ....
....|..|D-2 2.8F ....|D-2 2.8F ....|D-2 2.8F ....
....|..|D-2 2.8F ....|D-2 2.8F ....|D-2 2.8F ....
....|..|D-2 2.8F ....|D-2 2.8F ....|D-2 2.8F ....
....|..|D-2 2.3F ....|D-2 2.3F ....|D-2 2.3F ....
....|..|A-2 2.9F ....|A-2 2.9F ....|A-2 2.9F ....
....|..|A-2 2.9F ....|A-2 2.9F ....|A-2 2.9F ....
....|..|A-2 2.9F ....|A-2 2.9F ....|A-2 2.9F ....
....|..|A-2 2.3F ....|A-2 2.3F ....|A-2 2.3F ....
....|..|D-3 2.AF ....|D-3 2.AF ....|D-3 2.AF ....
....|..|D-3 2.AF ....|D-3 2.AF ....|D-3 2.AF ....
....|..|D-3 2.AF ....|D-3 2.AF ....|D-3 2.AF ....
....|..|D-3 2.3F ....|D-3 2.3F ....|D-3 2.3F ....
....|..|A-2 2.9F ....|A-2 2.9F ....|A-2 2.9F ....
....|..|A-2 2.9F ....|A-2 2.9F ....|A-2 2.9F ....
....|..|A-2 2.9F ....|A-2 2.9F ....|A-2 2.9F ....
....|..|A-2 2.3F ....|A-2 2.3F ....|A-2 2.3F ....

[Pattern44]
....|..|G-2 2..F ....|G-2 2..F ....|G-2 2..F ....
....|..|G-2 2..F ....|G-2 2..F ....|G-2 2..F ....
....|..|G-2 2..F ....|G-2 2..F ....|G-2 2..F ....
....|..|G-2 2.3F ....|G-2 2.3F ....|G-2 2.3F ....
....|..|D-3 2.8F ....|D-3 2.8F ....|D-3 2.8F ....
....|..|D-3 2.8F ....|D-3 2.8F ....|D-3 2.8F ....
....|..|D-3 2.8F ....|D-3 2.8F ....|D-3 2.8F ....
....|..|D-3 2.3F ....|D-3 2.3F ....|D-3 2.3F ....
....|..|G-3 2.AF ....|G-3 2.AF ....|G-3 2.AF ....
....|..|G-3 2.AF ....|G-3 2.AF ....|G-3 2.AF ....
....|..|G-3 2.AF ....|G-3 2.AF ....|G-3 2.AF ....
....|..|G-3 2.3F ....|G-3 2.3F ....|G-3 2.3F ....
....|..|D-3 2.7F ....|D-3 2.7F ....|D-3 2.7F ....
....|..|D-3 2.7F ....|D-3 2.7F ....|D-3 2.7F ....
....|..|D-3 2.7F ....|D-3 2.7F ....|D-3 2.7F ....
....|..|D-3 2.3F ....|D-3 2.3F ....|D-3 2.3F ....
....|..|A#3 2.6F ....|A#3 2.6F ....|A#3 2.6F ....
....|..|A#3 2.6F ....|A#3 2.6F ....|A#3 2.6F ....
....|..|A#3 2.6F ....|A#3 2.6F ....|A#3 2.6F ....
....|..|A#3 2.3F ....|A#3 2.3F ....|A#3 2.3F ....
....|..|D-3 2.BF ....|D-3 2.BF ....|D-3 2.BF ....
....|..|D-3 2.BF ....|D-3 2.BF ....|D-3 2.BF ....
....|..|D-3 2.BF ....|D-3 2.BF ....|D-3 2.BF ....
....|..|D-3 2.3F ....|D-3 2.3F ....|D-3 2.3F ....
....|..|G-3 2.5F ....|G-3 2.5F ....|G-3 2.5F ....
....|..|G-3 2.5F ....|G-3 2.5F ....|G-3 2.5F ....
....|..|G-3 2.5F ....|G-3 2.5F ....|G-3 2.5F ....
....|..|G-3 2.3F ....|G-3 2.3F ....|G-3 2.3F ....
....|..|D-3 2.2F ....|D-3 2.2F ....|D-3 2.2F ....
....|..|D-3 2.2F ....|D-3 2.2F ....|D-3 2.2F ....
....|..|D-3 2.2F ....|D-3 2.2F ....|D-3 2.2F ....
....|..|D-3 2.3F ....|D-3 2.3F ....|D-3 2.3F ....
....|..|F-2 2.5F ....|F-2 2.5F ....|F-2 2.5F ....
....|..|F-2 2.5F ....|F-2 2.5F ....|F-2 2.5F ....
....|..|F-2 2.5F ....|F-2 2.5F ....|F-2 2.5F ....
....|..|F-2 2.3F ....|F-2 2.3F ....|F-2 2.3F ....
....|..|C-3 2.6F ....|C-3 2.6F ....|C-3 2.6F ....
....|..|C-3 2.6F ....|C-3 2.6F ....|C-3 2.6F ....
....|..|C-3 2.6F ....|C-3 2.6F ....|C-3 2.6F ....
....|..|C-3 2.3F ....|C-3 2.3F ....|C-3 2.3F ....
....|..|F-3 2.7F ....|F-3 2.7F ....|F-3 2.7F ....
....|..|F-3 2.7F ....|F-3 2.7F ....|F-3 2.7F ....
....|..|F-3 2.7F ....|F-3 2.7F ....|F-3 2.7F ....
....|..|F-3 2.3F ....|F-3 2.3F ....|F-3 2.3F ....
....|..|C-3 2.6F ....|C-3 2.6F ....|C-3 2.6F ....
....|..|C-3 2.6F ....|C-3 2.6F ....|C-3 2.6F ....
....|..|C-3 2.6F ....|C-3 2.6F ....|C-3 2.6F ....
....|..|C-3 2.3F ....|C-3 2.3F ....|C-3 2.3F ....
....|..|A-3 2.8F ....|A-3 2.8F ....|A-3 2.8F ....
....|..|A-3 2.8F ....|A-3 2.8F ....|A-3 2.8F ....
....|..|A-3 2.8F ....|A-3 2.8F ....|A-3 2.8F ....
....|..|A-3 2.3F ....|A-3 2.3F ....|A-3 2.3F ....
....|..|C-3 2.9F ....|C-3 2.9F ....|C-3 2.9F ....
....|..|C-3 2.9F ....|C-3 2.9F ....|C-3 2.9F ....
....|..|C-3 2.9F ....|C-3 2.9F ....|C-3 2.9F ....
....|..|C-3 2.3F ....|C-3 2.3F ....|C-3 2.3F ....
....|..|F-3 2.2F ....|F-3 2.2F ....|F-3 2.2F ....
....|..|F-3 2.2F ....|F-3 2.2F ....|F-3 2.2F ....
....|..|F-3 2.2F ....|F-3 2.2F ....|F-3 2.2F ....
....|..|F-3 2.3F ....|F-3 2.3F ....|F-3 2.3F ....
....|..|C-3 2.9F ....|C-3 2.9F ....|C-3 2.9F ....
....|..|C-3 2.9F ....|C-3 2.9F ....|C-3 2.9F ....
....|..|C-3 2.9F ....|C-3 2.9F ....|C-3 2.9F ....
....|..|C-3 2.3F ....|C-3 2.3F ....|C-3 2.3F ....

[Pattern45]
....|..|E-2 2.8F ....|E-2 2.8F ....|E-2 2.8F ....
....|..|E-2 2.8F ....|E-2 2.8F ....|E-2 2.8F ....
....|..|E-2 2.8F ....|E-2 2.8F ....|E-2 2.8F ....
....|..|E-2 2.3F ....|E-2 2.3F ....|E-2 2.3F ....
....|..|C-3 2.1F ....|C-3 2.1F ....|C-3 2.1F ....
....|..|C-3 2.1F ....|C-3 2.1F ....|C-3 2.1F ....
....|..|C-3 2.1F ....|C-3 2.1F ....|C-3 2.1F ....
....|..|C-3 2.3F ....|C-3 2.3F ....|C-3 2.3F ....
....|..|E-3 2..F ....|E-3 2..F ....|E-3 2..F ....
....|..|E-3 2..F ....|E-3 2..F ....|E-3 2..F ....
....|..|E-3 2..F ....|E-3 2..F ....|E-3 2..F ....
....|..|E-3 2.3F ....|E-3 2.3F ....|E-3 2.3F ....
....|..|C-3 2.9F ....|C-3 2.9F ....|C-3 2.9F ....
....|..|C-3 2.9F ....|C-3 2.9F ....|C-3 2.9F ....
....|..|C-3 2.9F ....|C-3 2.9F ....|C-3 2.9F ....
....|..|C-3 2.3F ....|C-3 2.3F ....|C-3 2.3F ....
....|..|G-3 2.6F ....|G-3 2.6F ....|G-3 2.6F ....
....|..|G-3 2.6F ....|G-3 2.6F ....|G-3 2.6F ....
....|..|G-3 2.6F ....|G-3 2.6F ....|G-3 2.6F ....
....|..|G-3 2.3F ....|G-3 2.3F ....|G-3 2.3F ....
....|..|C-3 2.5F ....|C-3 2.5F ....|C-3 2.5F ....
....|..|C-3 2.5F ....|C-3 2.5F ....|C-3 2.5F ....
....|..|C-3 2.5F ....|C-3 2.5F ....|C-3 2.5F ....
....|..|C-3 2.3F ....|C-3 2.3F ....|C-3 2.3F ....
....|..|E-3 2.CF ....|E-3 2.CF ....|E-3 2.CF ....
....|..|E-3 2.CF ....|E-3 2.CF ....|E-3 2.CF ....
....|..|E-3 2.CF ....|E-3 2.CF ....|E-3 2.CF ....
....|..|E-3 2.3F ....|E-3 2.3F ....|E-3 2.3F ....
....|..|C-3 2.6F ....|C-3 2.6F ....|C-3 2.6F ....
....|..|C-3 2.6F ....|C-3 2.6F ....|C-3 2.6F ....
....|..|C-3 2.6F ....|C-3 2.6F ....|C-3 2.6F ....
....|..|C-3 2.3F ....|C-3 2.3F ....|C-3 2.3F ....
....|..|D#2 2.6F ....|D#2 2.6F ....|D#2 2.6F ....
....|..|D#2 2.6F ....|D#2 2.6F ....|D#2 2.6F ....
....|..|D#2 2.6F ....|D#2 2.6F ....|D#2 2.6F ....
....|..|D#2 2.3F ....|D#2 2.3F ....|D#2 2.3F ....
....|..|A#2 2.9F ....|A#2 2.9F ....|A#2 2.9F ....
....|..|A#2 2.9F ....|A#2 2.9F ....|A#2 2.9F ....
....|..|A#2 2.9F ....|A#2 2.9F ....|A#2 2.9F ....
....|..|A#2 2.3F ....|A#2 2.3F ....|A#2 2.3F ....
....|..|D#3 2.AF ....|D#3 2.AF ....|D#3 2.AF ....
....|..|D#3 2.AF ....|D#3 2.AF ....|D#3 2.AF ....
....|..|D#3 2.AF ....|D#3 2.AF ....|D#3 2.AF ....
....|..|D#3 2.3F ....|D#3 2.3F ....|D#3 2.3F ....
....|..|A#2 2.9F ....|A#2 2.9F ....|A#2 2.9F ....
....|..|A#2 2.9F ....|A#2 2.9F ....|A#2 2.9F ....
....|..|A#2 2.9F ....|A#2 2.9F ....|A#2 2.9F ....
....|..|A#2 2.3F ....|A#2 2.3F ....|A#2 2.3F ....
....|..|G-2 2.6F ....|G-2 2.6F ....|G-2 2.6F ....
....|..|G-2 2.6F ....|G-2 2.6F ....|G-2 2.6F ....
....|..|G-2 2.6F ....|G-2 2.6F ....|G-2 2.6F ....
....|..|R-- .... ....|R-- .... ....|R-- .... ....
....|..|G-2 2.6F ....|G-2 2.6F ....|G-2 2.6F ....
....|..|G-2 2.6F ....|G-2 2.6F ....|G-2 2.6F ....
....|..|G-2 2.6F ....|G-2 2.6F ....|G-2 2.6F ....
....|..|R-- .... ....|R-- .... ....|R-- .... ....
....|..|G-2 2.6F ....|G-2 2.6F ....|G-2 2.6F ....
....|..|G-2 2.6F ....|G-2 2.6F ....|G-2 2.6F ....
....|..|G-2 2.6F ....|G-2 2.6F ....|G-2 2.6F ....
....|..|R-- .... ....|R-- .... ....|R-- .... ....
....|..|G-2 2.6F ....|G-2 2.6F ....|G-2 2.6F ....
....|..|G-2 2.6F ....|G-2 2.6F ....|G-2 2.6F ....
....|..|G-2 2.6F ....|G-2 2.6F ....|G-2 2.6F ....
....|..|G-2 2.6F ....|G-2 2.6F ....|G-2 2.6F ....

[Pattern46]
....|..|R-- .... ....|R-- .... ....|R-- .... ....
....|..|R-- .... ....|R-- .... ....|R-- .... ....
....|..|R-- .... ....|R-- .... ....|R-- .... ....
....|..|R-- .... ....|R-- .... ....|R-- .... ....
....|..|R-- .... ....|R-- .... ....|R-- .... ....
....|..|R-- .... ....|R-- .... ....|R-- .... ....
....|..|R-- .... ....|R-- .... ....|R-- .... ....
....|..|R-- .... ....|R-- .... ....|R-- .... ....
....|..|R-- .... ....|R-- .... ....|R-- .... ....
....|..|R-- .... ....|R-- .... ....|R-- .... ....
....|..|R-- .... ....|R-- .... ....|R-- .... ....
....|..|R-- .... ....|R-- .... ....|R-- .... ....
....|..|R-- .... ....|R-- .... ....|R-- .... ....
....|..|R-- .... ....|R-- .... ....|R-- .... ....
....|..|R-- .... ....|R-- .... ....|R-- .... ....
....|..|R-- .... ....|R-- .... ....|R-- .... ....
....|..|R-- .... ....|R-- .... ....|R-- .... ....
....|..|R-- .... ....|R-- .... ....|R-- .... ....
....|..|R-- .... ....|R-- .... ....|R-- .... ....
....|..|R-- .... ....|R-- .... ....|R-- .... ....
....|..|R-- .... ....|R-- .... ....|R-- .... ....
....|..|R-- .... ....|R-- .... ....|R-- .... ....
....|..|R-- .... ....|R-- .... ....|R-- .... ....
....|..|R-- .... ....|R-- .... ....|R-- .... ....
....|..|R-- .... ....|R-- .... ....|R-- .... ....
....|..|R-- .... ....|R-- .... ....|R-- .... ....
....|..|R-- .... ....|R-- .... ....|R-- .... ....
....|..|R-- .... ....|R-- .... ....|R-- .... ....
....|..|R-- .... ....|R-- .... ....|R-- .... ....
....|..|R-- .... ....|R-- .... ....|R-- .... ....
....|..|R-- .... ....|R-- .... ....|R-- .... ....
....|..|R-- .... ....|R-- .... ....|R-- .... ....
....|..|R-- .... ....|R-- .... ....|R-- .... ....
....|..|R-- .... ....|R-- .... ....|R-- .... ....
....|..|R-- .... ....|R-- .... ....|R-- .... ....
....|..|R-- .... ....|R-- .... ....|R-- .... ....
....|..|R-- .... ....|R-- .... ....|R-- .... ....
....|..|R-- .... ....|R-- .... ....|R-- .... ....
....|..|R-- .... ....|R-- .... ....|R-- .... ....
....|..|R-- .... ....|R-- .... ....|R-- .... ....
....|..|R-- .... ....|R-- .... ....|R-- .... ....
....|..|R-- .... ....|R-- .... ....|R-- .... ....
....|..|R-- .... ....|R-- .... ....|R-- .... ....
....|..|R-- .... ....|R-- .... ....|R-- .... ....
....|..|R-- .... ....|R-- .... ....|R-- .... ....
....|..|R-- .... ....|R-- .... ....|R-- .... ....
....|..|R-- .... ....|R-- .... ....|R-- .... ....
....|..|R-- .... ....|R-- .... ....|R-- .... ....
....|..|R-- .... ....|R-- .... ....|R-- .... ....
....|..|R-- .... ....|R-- .... ....|R-- .... ....
....|..|R-- .... ....|R-- .... ....|R-- .... ....
....|..|R-- .... ....|R-- .... ....|R-- .... ....
....|..|R-- .... ....|R-- .... ....|R-- .... ....
....|..|R-- .... ....|R-- .... ....|R-- .... ....
....|..|R-- .... ....|R-- .... ....|R-- .... ....
....|..|R-- .... ....|R-- .... ....|R-- .... ....
....|..|R-- .... ....|R-- .... ....|R-- .... ....
....|..|R-- .... ....|R-- .... ....|R-- .... ....
....|..|R-- .... ....|R-- .... ....|R-- .... ....
....|..|R-- .... ....|R-- .... ....|R-- .... ....
....|..|R-- .... ....|R-- .... ....|R-- .... ....
....|..|R-- .... ....|R-- .... ....|R-- .... ....
....|..|R-- .... ....|R-- .... ....|R-- .... ....
....|..|R-- .... ....|R-- .... ....|R-- .... ....

[Pattern47]
....|..|R-- .... ....|R-- .... ....|R-- .... ....
....|..|R-- .... ....|R-- .... ....|R-- .... ....
....|..|R-- .... ....|R-- .... ....|R-- .... ....
....|..|R-- .... ....|R-- .... ....|R-- .... ....
....|..|R-- .... ....|R-- .... ....|R-- .... ....
....|..|R-- .... ....|R-- .... ....|R-- .... ....
....|..|R-- .... ....|R-- .... ....|R-- .... ....
....|..|R-- .... ....|R-- .... ....|R-- .... ....
....|..|R-- .... ....|R-- .... ....|R-- .... ....
....|..|R-- .... ....|R-- .... ....|R-- .... ....
....|..|R-- .... ....|R-- .... ....|R-- .... ....
....|..|R-- .... ....|R-- .... ....|R-- .... ....
