[Module]
VortexTrackerII=0
Version=3.5
Title=Infected_Mushroom_-_Suliman.mid
Author=oisee ^ 4d 29.05.2010
NoteTable=4
ChipFreq=1750000
Speed=4
PlayOrder=L0,0,2,3,4,3,6,7,8,9,10,11,12,13,13,13,13,13,18,0,20,21,20,23,24,25,26,27,28,29,30,31,32,33,34,35,36,37,38,39,40,41,40,43,40,45,46,47,13,49,50,51,52,53


[Ornament1]
L0,0,2,2


[Sample1]
TnE +000_ +00_ F_
TnE +000_ +00_ F_
TnE +000_ +00_ F_
TnE +000_ +00_ D_
TnE +000_ +00_ B_
TnE +000_ +00_ B_ L

[Sample2]
TnE +000_ +00_ F_ L

[Sample3]
TnE +001_ +00_ F_
TnE +002_ +00_ F_
TnE +001_ +00_ E_
TnE +002_ +00_ E_
TnE +000_ +00_ E_ L
TnE -001_ +00_ E_
TnE -002_ +00_ E_
TnE -001_ +00_ E_
TnE +000_ +00_ E_
TnE +001_ +00_ E_
TnE +002_ +00_ E_
TnE +001_ +00_ E_

[Sample4]
TnE +002_ +00_ D_
TnE +002_ +00_ D_
TnE +002_ +00_ C_
TnE +002_ +00_ B_
TnE +002_ +00_ A_ L
TnE +002_ +00_ A_
TnE +002_ +00_ A_
TnE +002_ +00_ A_
TnE +002_ +00_ A_
TnE +002_ +00_ A_
TnE +002_ +00_ A_
TnE +002_ +00_ A_

[Sample5]
TnE +000_ +00_ F_
TnE +000_ +00_ F_
tne +000_ +00_ 0_ L

[Sample6]
TnE -001_ +00_ F_ L

[Sample7]
TnE +006_ +00_ F_ L

[Sample8]
tNe +000_ +00_ F_
tNe +000_ +00_ B_
tNe +000_ +00_ 7_
tNe +000_ +00_ 6- L

[Sample9]
TnE +080_ +00_ F_
TnE +100_ +00_ E_
TnE +180_ +00_ E_
TnE +200_ +00_ E_
TnE +240_ +00_ D_
TnE +280_ +00_ D_
TnE +2C0_ +00_ D_
TnE +300_ +00_ C_
TnE +300_ +00_ C_
TnE +340_ +00_ C_
TnE +340_ +00_ C_
TnE +380_ +00_ B_
TnE +380_ +00_ B_
TnE +400_ +00_ B_
TnE +400_ +00_ B_
TnE +480_ +00_ A_
TnE +500_ +00_ 9_
TnE +580_ +00_ 7_
TnE +600_ +00_ 4_
TnE +680_ +00_ 1_
TnE +000_ +00_ 0_ L

[Sample10]
Tne +1C0_ +00_ F_
Tne +280_ +00_ E_
Tne +380_ +00_ C_
Tne +440_ +00_ A_
Tne +480_ +00_ 8_
TnE +000_ +00_ 0_ L

[Sample11]
TNe +200_ -0A_ F_
tNe +000_ +0F_ A_
TNe +200_ -07_ E_
tNe +000_ +0E_ B- L

[Sample12]
TNE +0A0_ +05_ F_
TNE +140_ +02_ D_
TNE +140_ +02_ B_
TNE +100_ +00_ A_ L
TNE +140_ +00_ A_
TNE +200_ +00_ A-

[Sample13]
Tne +200_ +00_ F_
Tne +2C0_ +00_ F_
Tne +380_ +00_ E_
Tne +500_ +00_ C_
Tne +520_ +00_ 9_
tne +000_ +00_ 0_ L

[Sample14]
TNE -100_ +00_ F_
TNE -100_ +00_ D_
TNE -100_ +00_ A_
TNE -100_ +00_ 5_
tne +000_ +00_ 0_ L

[Sample15]
TNE -100_ +00_ 5_
TNE -100_ +00_ 8_
TNE -100_ +00_ B_
TNE -100_ +00_ F_
TNe -100_ +00_ 9- L

[Sample16]
TnE +000_ +00_ C_
TnE +000_ +00_ E_
TnE +000_ +00_ F_
TnE +000_ +00_ F_
TnE +000_ +00_ E_
TnE +000_ +00_ D_
TnE +000_ +00_ C_
TnE +000_ +00_ C_ L
TnE +001_ +00_ C_
TnE +002_ +00_ C_
TnE +003_ +00_ C_
TnE +001_ +00_ C_
TnE +000_ +00_ C_
TnE -001_ +00_ C_
TnE -002_ +00_ C_
TnE -003_ +00_ C_
TnE -001_ +00_ C_
TnE +000_ +00_ C_
TnE +000_ +00_ C_

[Sample17]
Tne +1C0_ +00_ F_
Tne +280_ +00_ D_
Tne +380_ +00_ 7_
TNE +000_ +00_ 0_ L

[Sample18]
tnE +000_ +00_ 0_ L

[Sample19]
TNe +000_ +00_ F_
TNe +000_ +00_ C_
TNe +000_ +00_ 6_
TNe +000_ +01_ A- L

[Sample20]
TNE +140_ +00_ F_
tNE +000_ +00_ B- L

[Sample21]
tNE +000_ +00_ D_
tNE +000_ +00_ 8_
tNE +000_ +00_ 1_
TNE +000_ +00_ 0_ L

[Sample22]
TnE +000_ +00_ D_ L
TnE +000_ +00_ D_
tne +000_ +00_ 9_
tne +000_ +00_ 9_
TnE +000_ +00_ D_
TnE +000_ +00_ D_
tne +000_ +00_ 9_
tne +000_ +00_ 9_
TnE +000_ +00_ D_
TnE +000_ +00_ D_
TnE +000_ +00_ D_
TnE +000_ +00_ D_
TnE +000_ +00_ D_
TnE +000_ +00_ D_
tne +000_ +00_ 9_
tne +000_ +00_ 9_

[Sample23]
TnE +000_ +00_ F_ L
TnE +010_ +01_ F_
TnE +010_ +01_ F_
TnE +010_ +01_ F_
TnE +010_ +01_ F_
TnE +000_ +00_ F_
TnE +000_ +00_ F_
TnE -010_ -01_ F_
TnE -010_ -01_ F_
TnE -010_ -01_ F_
TnE -010_ -01_ F_
TnE +000_ +00_ F_

[Sample24]
TNe +000_ -01_ C_
TNe +000_ -01_ D_
TNe +000_ -01_ E_
TNe +000_ -01_ F_
TNe +000_ -01_ F_
TNe +000_ -01_ F_
TNe +000_ -01_ F_
TNe +000_ -01_ F_
TNe +000_ -01_ E_
TNe +000_ -01_ E_
TNe +000_ -01_ E_
TNe +000_ -01_ F_
TNe +000_ -01_ F_ L

[Sample25]
TNE +000_ +00_ F_
TNE +000_ +00_ F_ L
TNE +000_ +00_ F_
TNE +000_ +00_ F_
TNE +000_ +00_ F-

[Sample26]
tne +000_ +00_ 0_ L

[Sample27]
tne +000_ +00_ 0_ L

[Sample28]
tne +000_ +00_ 0_ L

[Sample29]
tne +000_ +00_ 0_ L

[Sample30]
TNE +000_ +00_ C+ L

[Sample31]
TNe +1C0_ +00_ F_
Tne +280_ +00_ E_
Tne +380_ +00_ C_
Tne +440_ +00_ A_
Tne +480_ +00_ 8_
TnE +000_ +00_ 0_ L

[Pattern0]
....|..|--- .... ....|--- .... ....|--- .... ....
....|..|--- .... ....|--- .... ....|--- .... ....
....|..|--- .... ....|--- .... ....|--- .... ....
....|..|--- .... ....|--- .... ....|--- .... ....
....|..|--- .... ....|--- .... ....|--- .... ....
....|..|--- .... ....|--- .... ....|--- .... ....
....|..|--- .... ....|--- .... ....|--- .... ....
....|..|--- .... ....|--- .... ....|--- .... ....
....|..|--- .... ....|--- .... ....|--- .... ....
....|..|--- .... ....|--- .... ....|--- .... ....
....|..|--- .... ....|--- .... ....|--- .... ....
....|..|--- .... ....|--- .... ....|--- .... ....
....|..|--- .... ....|--- .... ....|--- .... ....
....|..|--- .... ....|--- .... ....|--- .... ....
....|..|--- .... ....|--- .... ....|--- .... ....
....|..|--- .... ....|--- .... ....|--- .... ....
....|..|--- .... ....|--- .... ....|--- .... ....
....|..|--- .... ....|--- .... ....|--- .... ....
....|..|--- .... ....|--- .... ....|--- .... ....
....|..|--- .... ....|--- .... ....|--- .... ....
....|..|--- .... ....|--- .... ....|--- .... ....
....|..|--- .... ....|--- .... ....|--- .... ....
....|..|--- .... ....|--- .... ....|--- .... ....
....|..|--- .... ....|--- .... ....|--- .... ....
....|..|--- .... ....|--- .... ....|--- .... ....
....|..|--- .... ....|--- .... ....|--- .... ....
....|..|--- .... ....|--- .... ....|--- .... ....
....|..|--- .... ....|--- .... ....|--- .... ....
....|..|--- .... ....|--- .... ....|--- .... ....
....|..|--- .... ....|--- .... ....|--- .... ....
....|..|--- .... ....|--- .... ....|--- .... ....
....|..|--- .... ....|--- .... ....|--- .... ....
....|..|--- .... ....|--- .... ....|--- .... ....
....|..|--- .... ....|--- .... ....|--- .... ....
....|..|--- .... ....|--- .... ....|--- .... ....
....|..|--- .... ....|--- .... ....|--- .... ....
....|..|--- .... ....|--- .... ....|--- .... ....
....|..|--- .... ....|--- .... ....|--- .... ....
....|..|--- .... ....|--- .... ....|--- .... ....
....|..|--- .... ....|--- .... ....|--- .... ....
....|..|--- .... ....|--- .... ....|--- .... ....
....|..|--- .... ....|--- .... ....|--- .... ....
....|..|--- .... ....|--- .... ....|--- .... ....
....|..|--- .... ....|--- .... ....|--- .... ....
....|..|--- .... ....|--- .... ....|--- .... ....
....|..|--- .... ....|--- .... ....|--- .... ....
....|..|--- .... ....|--- .... ....|--- .... ....
....|..|--- .... ....|--- .... ....|--- .... ....
....|..|--- .... ....|--- .... ....|--- .... ....
....|..|--- .... ....|--- .... ....|--- .... ....
....|..|--- .... ....|--- .... ....|--- .... ....
....|..|--- .... ....|--- .... ....|--- .... ....
....|..|--- .... ....|--- .... ....|--- .... ....
....|..|--- .... ....|--- .... ....|--- .... ....
....|..|--- .... ....|--- .... ....|--- .... ....
....|..|--- .... ....|--- .... ....|--- .... ....
....|..|--- .... ....|--- .... ....|--- .... ....
....|..|--- .... ....|--- .... ....|--- .... ....
....|..|--- .... ....|--- .... ....|--- .... ....
....|..|--- .... ....|--- .... ....|--- .... ....
....|..|--- .... ....|--- .... ....|--- .... ....
....|..|--- .... ....|--- .... ....|--- .... ....
....|..|--- .... ....|--- .... ....|--- .... ....
....|..|--- .... ....|--- .... ....|--- .... ....

[Pattern2]
 F-5|..|F-3 .A.F ....|--- .... ....|--- .... ....
 G#5|..|G#3 .A.F ....|--- .... ....|--- .... ....
 A#5|..|A#3 .A.F ....|--- .... ....|--- .... ....
 C-6|..|C-4 .A.F ....|--- .... ....|--- .... ....
 D#6|..|D#4 .A.F ....|--- .... ....|--- .... ....
 F-6|..|F-4 .A.F ....|--- .... ....|--- .... ....
 G#6|..|G#4 .A.F ....|--- .... ....|--- .... ....
 F-6|..|F-4 .A.F ....|--- .... ....|--- .... ....
 A#5|..|A#3 .F.A ....|--- .... ....|--- .... ....
 C-6|..|C-4 .F.A ....|--- .... ....|--- .... ....
 D#6|..|D#4 .F.A ....|--- .... ....|--- .... ....
 F-6|..|F-4 .F.A ....|--- .... ....|--- .... ....
 F-5|..|F-3 .F.7 ....|--- .... ....|--- .... ....
 G#5|..|G#3 .F.7 ....|--- .... ....|--- .... ....
 A#5|..|A#3 .F.7 ....|--- .... ....|--- .... ....
 C-6|..|C-4 .F.7 ....|--- .... ....|--- .... ....
 F-5|..|F-3 .A.F ....|--- .... ....|--- .... ....
 G#5|..|G#3 .A.F ....|--- .... ....|--- .... ....
 A#5|..|A#3 .A.F ....|--- .... ....|--- .... ....
 C-6|..|C-4 .A.F ....|--- .... ....|--- .... ....
 D#6|..|D#4 .A.F ....|--- .... ....|--- .... ....
 F-6|..|F-4 .A.F ....|--- .... ....|--- .... ....
 G#6|..|G#4 .A.F ....|--- .... ....|--- .... ....
 F-6|..|F-4 .A.F ....|--- .... ....|--- .... ....
....|..|R-- .... ....|--- .... ....|--- .... ....
 C-6|..|C-4 .F.A ....|--- .... ....|--- .... ....
 G#6|..|G#4 .A.F ....|--- .... ....|--- .... ....
....|..|R-- .... ....|--- .... ....|--- .... ....
 F-5|..|F-3 .F.7 ....|--- .... ....|--- .... ....
 G#5|..|G#3 .F.7 ....|--- .... ....|--- .... ....
 A#5|..|A#3 .F.7 ....|--- .... ....|--- .... ....
 C-6|..|C-4 .F.7 ....|--- .... ....|--- .... ....
 F-5|..|F-3 .A.F ....|--- .... ....|--- .... ....
 G#5|..|G#3 .A.F ....|--- .... ....|--- .... ....
 A#5|..|A#3 .A.F ....|--- .... ....|--- .... ....
 C-6|..|C-4 .A.F ....|--- .... ....|--- .... ....
 D#6|..|D#4 .A.F ....|--- .... ....|--- .... ....
 F-6|..|F-4 .A.F ....|--- .... ....|--- .... ....
 G#6|..|G#4 .A.F ....|--- .... ....|--- .... ....
 F-6|..|F-4 .A.F ....|--- .... ....|--- .... ....
 A#5|..|A#3 .F.A ....|--- .... ....|--- .... ....
 C-6|..|C-4 .F.A ....|--- .... ....|--- .... ....
 D#6|..|D#4 .F.A ....|--- .... ....|--- .... ....
 F-6|..|F-4 .F.A ....|--- .... ....|--- .... ....
 F-5|..|F-3 .F.7 ....|--- .... ....|--- .... ....
 G#5|..|G#3 .F.7 ....|--- .... ....|--- .... ....
 A#5|..|A#3 .F.7 ....|--- .... ....|--- .... ....
 C-6|..|C-4 .F.7 ....|--- .... ....|--- .... ....
 F-5|..|F-3 .A.F ....|--- .... ....|--- .... ....
 G#5|..|G#3 .A.F ....|--- .... ....|--- .... ....
 A#5|..|A#3 .A.F ....|--- .... ....|--- .... ....
 C-6|..|C-4 .A.F ....|--- .... ....|--- .... ....
 D#6|..|D#4 .A.F ....|--- .... ....|--- .... ....
 F-6|..|F-4 .A.F ....|--- .... ....|--- .... ....
 G#6|..|G#4 .A.F ....|--- .... ....|--- .... ....
 A#5|..|A#3 .A.F ....|--- .... ....|--- .... ....
....|..|R-- .... ....|--- .... ....|--- .... ....
 C-6|..|C-4 .F.A ....|--- .... ....|--- .... ....
 C-6|..|C-4 .A.F ....|--- .... ....|--- .... ....
 F-6|..|F-4 .F.A ....|--- .... ....|--- .... ....
 F-5|..|F-3 .F.7 ....|--- .... ....|--- .... ....
 G#5|..|G#3 .F.7 ....|--- .... ....|--- .... ....
 A#5|..|A#3 .F.7 ....|--- .... ....|--- .... ....
 C-6|..|C-4 .F.7 ....|--- .... ....|--- .... ....

[Pattern3]
 F-5|..|F-3 .A.F ....|--- .... ....|--- .... ....
 G#5|..|G#3 .A.F ....|--- .... ....|--- .... ....
 A#5|..|A#3 .A.F ....|--- .... ....|--- .... ....
 C-6|..|C-4 .A.F ....|--- .... ....|--- .... ....
 D#6|..|D#4 .A.F ....|--- .... ....|--- .... ....
 F-6|..|F-4 .A.F ....|--- .... ....|--- .... ....
 G#6|..|G#4 .A.F ....|--- .... ....|--- .... ....
 A#6|..|A#4 .A.F ....|--- .... ....|--- .... ....
....|..|R-- .... ....|--- .... ....|--- .... ....
 C-6|..|C-4 .F.A ....|--- .... ....|--- .... ....
 D#6|..|D#4 .F.A ....|--- .... ....|--- .... ....
 F-6|..|F-4 .F.A ....|--- .... ....|--- .... ....
 F-5|..|F-3 .F.7 ....|--- .... ....|--- .... ....
 G#5|..|G#3 .F.7 ....|--- .... ....|--- .... ....
 A#5|..|A#3 .F.7 ....|--- .... ....|--- .... ....
 C-6|..|C-4 .F.7 ....|--- .... ....|--- .... ....
 F-5|..|F-3 .A.F ....|--- .... ....|--- .... ....
 G#5|..|G#3 .A.F ....|--- .... ....|--- .... ....
 A#5|..|A#3 .A.F ....|--- .... ....|--- .... ....
 C-6|..|C-4 .A.F ....|--- .... ....|--- .... ....
 D#6|..|D#4 .A.F ....|--- .... ....|--- .... ....
 F-6|..|F-4 .A.F ....|--- .... ....|--- .... ....
 G#6|..|G#4 .A.F ....|--- .... ....|--- .... ....
 B-6|..|B-4 .A.F ....|--- .... ....|--- .... ....
....|..|R-- .... ....|--- .... ....|--- .... ....
 C-6|..|C-4 .F.A ....|--- .... ....|--- .... ....
 A#6|..|A#4 .A.F ....|--- .... ....|--- .... ....
 F-6|..|F-4 .F.A ....|--- .... ....|--- .... ....
 F-5|..|F-3 .F.7 ....|--- .... ....|--- .... ....
 G#5|..|G#3 .F.7 ....|--- .... ....|--- .... ....
 A#5|..|A#3 .F.7 ....|--- .... ....|--- .... ....
 C-6|..|C-4 .F.7 ....|--- .... ....|--- .... ....
 F-5|..|F-3 .A.F ....|--- .... ....|--- .... ....
 G#5|..|G#3 .A.F ....|--- .... ....|--- .... ....
 A#5|..|A#3 .A.F ....|--- .... ....|--- .... ....
 C-6|..|C-4 .A.F ....|--- .... ....|--- .... ....
 D#6|..|D#4 .A.F ....|--- .... ....|--- .... ....
 F-6|..|F-4 .A.F ....|--- .... ....|--- .... ....
 G#6|..|G#4 .A.F ....|--- .... ....|--- .... ....
 F-6|..|F-4 .A.F ....|--- .... ....|--- .... ....
....|..|R-- .... ....|--- .... ....|--- .... ....
 C-6|..|C-4 .F.A ....|--- .... ....|--- .... ....
 D#6|..|D#4 .F.A ....|--- .... ....|--- .... ....
 F-6|..|F-4 .F.A ....|--- .... ....|--- .... ....
 F-5|..|F-3 .F.7 ....|--- .... ....|--- .... ....
 G#5|..|G#3 .F.7 ....|--- .... ....|--- .... ....
 A#5|..|A#3 .F.7 ....|--- .... ....|--- .... ....
 C-6|..|C-4 .F.7 ....|--- .... ....|--- .... ....
 F-5|..|F-3 .A.F ....|--- .... ....|--- .... ....
 G#5|..|G#3 .A.F ....|--- .... ....|--- .... ....
 A#5|..|A#3 .A.F ....|--- .... ....|--- .... ....
 C-6|..|C-4 .A.F ....|--- .... ....|--- .... ....
 D-6|..|D-4 .A.F ....|--- .... ....|--- .... ....
 D#6|..|D#4 .A.F ....|--- .... ....|--- .... ....
 F-6|..|F-4 .A.F ....|--- .... ....|--- .... ....
 G#6|..|G#4 .A.F ....|--- .... ....|--- .... ....
 C-7|..|C-5 .A.F ....|--- .... ....|--- .... ....
 G#6|..|G#4 .A.F ....|--- .... ....|--- .... ....
 F-6|..|F-4 .A.F ....|--- .... ....|--- .... ....
 C-6|..|C-4 .A.F ....|--- .... ....|--- .... ....
 A#5|..|A#3 .A.F ....|--- .... ....|--- .... ....
 G#5|..|G#3 .A.F ....|--- .... ....|--- .... ....
 F-5|..|F-3 .A.F ....|--- .... ....|--- .... ....
 G#5|..|G#3 .A.F ....|--- .... ....|--- .... ....

[Pattern4]
 F-5|..|F-3 .A.F ....|--- .... ....|--- .... ....
 G#5|..|G#3 .A.F ....|--- .... ....|--- .... ....
 A#5|..|A#3 .A.F ....|--- .... ....|--- .... ....
 C-6|..|C-4 .A.F ....|--- .... ....|--- .... ....
 D#6|..|D#4 .A.F ....|--- .... ....|--- .... ....
 F-6|..|F-4 .A.F ....|--- .... ....|--- .... ....
 G#6|..|G#4 .A.F ....|--- .... ....|--- .... ....
 F-6|..|F-4 .A.F ....|--- .... ....|--- .... ....
 A#5|..|A#3 .F.7 ....|--- .... ....|--- .... ....
 G#5|..|G#3 .F.7 ....|--- .... ....|--- .... ....
 F-5|..|F-3 .F.7 ....|--- .... ....|--- .... ....
 G#5|..|G#3 .F.7 ....|--- .... ....|--- .... ....
 F-5|..|F-3 .F.7 ....|--- .... ....|--- .... ....
 G#5|..|G#3 .F.7 ....|--- .... ....|--- .... ....
 A#5|..|A#3 .F.7 ....|--- .... ....|--- .... ....
 C-6|..|C-4 .F.7 ....|--- .... ....|--- .... ....
 F-5|..|F-3 .A.F ....|--- .... ....|--- .... ....
 G#5|..|G#3 .A.F ....|--- .... ....|--- .... ....
 A#5|..|A#3 .A.F ....|--- .... ....|--- .... ....
 C-6|..|C-4 .A.F ....|--- .... ....|--- .... ....
 D#6|..|D#4 .A.F ....|--- .... ....|--- .... ....
 F-6|..|F-4 .A.F ....|--- .... ....|--- .... ....
 G#6|..|G#4 .A.F ....|--- .... ....|--- .... ....
 F-6|..|F-4 .A.F ....|--- .... ....|--- .... ....
....|..|R-- .... ....|--- .... ....|--- .... ....
 C-6|..|C-4 .F.A ....|--- .... ....|--- .... ....
 G#6|..|G#4 .A.F ....|--- .... ....|--- .... ....
....|..|R-- .... ....|--- .... ....|--- .... ....
 F-5|..|F-3 .F.7 ....|--- .... ....|--- .... ....
 G#5|..|G#3 .F.7 ....|--- .... ....|--- .... ....
 A#5|..|A#3 .F.7 ....|--- .... ....|--- .... ....
 C-6|..|C-4 .F.7 ....|--- .... ....|--- .... ....
 F-5|..|F-3 .A.F ....|--- .... ....|--- .... ....
 G#5|..|G#3 .A.F ....|--- .... ....|--- .... ....
 A#5|..|A#3 .A.F ....|--- .... ....|--- .... ....
 C-6|..|C-4 .A.F ....|--- .... ....|--- .... ....
 D#6|..|D#4 .A.F ....|--- .... ....|--- .... ....
 F-6|..|F-4 .A.F ....|--- .... ....|--- .... ....
 G#6|..|G#4 .A.F ....|--- .... ....|--- .... ....
 F-6|..|F-4 .A.F ....|--- .... ....|--- .... ....
 A#5|..|A#3 .F.A ....|--- .... ....|--- .... ....
 C-6|..|C-4 .F.A ....|--- .... ....|--- .... ....
 D#6|..|D#4 .F.A ....|--- .... ....|--- .... ....
 F-6|..|F-4 .F.A ....|--- .... ....|--- .... ....
 F-5|..|F-3 .F.7 ....|--- .... ....|--- .... ....
 G#5|..|G#3 .F.7 ....|--- .... ....|--- .... ....
 A#5|..|A#3 .F.7 ....|--- .... ....|--- .... ....
 C-6|..|C-4 .F.7 ....|--- .... ....|--- .... ....
 F-5|..|F-3 .A.F ....|--- .... ....|--- .... ....
 G#5|..|G#3 .A.F ....|--- .... ....|--- .... ....
 A#5|..|A#3 .A.F ....|--- .... ....|--- .... ....
 C-6|..|C-4 .A.F ....|--- .... ....|--- .... ....
 D#6|..|D#4 .A.F ....|--- .... ....|--- .... ....
 F-6|..|F-4 .A.F ....|--- .... ....|--- .... ....
 G#6|..|G#4 .A.F ....|--- .... ....|--- .... ....
 A#5|..|A#3 .A.F ....|--- .... ....|--- .... ....
....|..|R-- .... ....|--- .... ....|--- .... ....
 C-6|..|C-4 .F.A ....|--- .... ....|--- .... ....
 C-6|..|C-4 .A.F ....|--- .... ....|--- .... ....
 F-6|..|F-4 .F.A ....|--- .... ....|--- .... ....
 F-5|..|F-3 .F.7 ....|--- .... ....|--- .... ....
 G#5|..|G#3 .F.7 ....|--- .... ....|--- .... ....
 A#5|..|A#3 .F.7 ....|--- .... ....|--- .... ....
 C-6|..|C-4 .F.7 ....|--- .... ....|--- .... ....

[Pattern6]
 D-6|..|D-4 .F.7 ....|--- .... ....|F-1 .A.F ....
 D#6|..|D#4 .F.7 ....|--- .... ....|--- .... ....
 F-6|..|F-4 .F.7 ....|--- .... ....|R-- .... ....
 G#6|..|G#4 .F.7 ....|--- .... ....|--- .... ....
 C-7|..|C-5 .F.7 ....|--- .... ....|F-1 .A.F ....
 G#6|..|G#4 .F.7 ....|--- .... ....|--- .... ....
 F-6|..|F-4 .F.7 ....|--- .... ....|R-- .... ....
 C-6|..|C-4 .F.7 ....|--- .... ....|--- .... ....
 A#5|..|A#3 .F.7 ....|--- .... ....|F-1 .A.F ....
 G#5|..|G#3 .F.7 ....|--- .... ....|--- .... ....
 F-5|..|F-3 .F.7 ....|--- .... ....|R-- .... ....
 G#5|..|G#3 .F.7 ....|--- .... ....|--- .... ....
 F-3|..|R-- .... ....|--- .... ....|F-1 .A.F ....
....|..|--- .... ....|--- .... ....|--- .... ....
....|..|--- .... ....|--- .... ....|R-- .... ....
....|..|--- .... ....|--- .... ....|--- .... ....
 F-3|..|--- .... ....|--- .... ....|F-1 .A.F ....
....|..|--- .... ....|--- .... ....|--- .... ....
....|..|--- .... ....|--- .... ....|R-- .... ....
....|..|--- .... ....|--- .... ....|--- .... ....
 F-3|..|--- .... ....|--- .... ....|F-1 .A.F ....
....|..|--- .... ....|--- .... ....|R-- .... ....
 F-3|..|--- .... ....|--- .... ....|F-1 .A.F ....
....|..|--- .... ....|--- .... ....|--- .... ....
 F-3|..|--- .... ....|--- .... ....|F-1 .F.7 ....
....|..|--- .... ....|--- .... ....|--- .... ....
 D#3|..|--- .... ....|--- .... ....|D#1 .A.F ....
....|..|--- .... ....|--- .... ....|R-- .... ....
 F-3|..|--- .... ....|--- .... ....|F-1 .A.F ....
....|..|--- .... ....|--- .... ....|--- .... ....
....|..|--- .... ....|--- .... ....|R-- .... ....
....|..|--- .... ....|--- .... ....|--- .... ....
 G#3|..|--- .... ....|--- .... ....|G#1 .A.F ....
....|..|--- .... ....|--- .... ....|R-- .... ....
 F-3|..|--- .... ....|--- .... ....|F-1 .F.7 ....
....|..|--- .... ....|--- .... ....|--- .... ....
 F-3|..|--- .... ....|--- .... ....|F-1 .A.F ....
....|..|--- .... ....|--- .... ....|--- .... ....
 D#3|..|--- .... ....|--- .... ....|D#1 .F.7 ....
....|..|--- .... ....|--- .... ....|--- .... ....
 F-3|..|--- .... ....|--- .... ....|F-1 .A.F ....
....|..|--- .... ....|--- .... ....|--- .... ....
....|..|--- .... ....|--- .... ....|R-- .... ....
....|..|--- .... ....|--- .... ....|--- .... ....
 F-3|..|--- .... ....|--- .... ....|F-1 .A.F ....
....|..|--- .... ....|--- .... ....|--- .... ....
....|..|--- .... ....|--- .... ....|R-- .... ....
....|..|--- .... ....|--- .... ....|--- .... ....
 F-3|..|--- .... ....|--- .... ....|F-1 .A.F ....
....|..|--- .... ....|--- .... ....|--- .... ....
....|..|--- .... ....|--- .... ....|R-- .... ....
....|..|--- .... ....|--- .... ....|--- .... ....
 D#3|..|--- .... ....|--- .... ....|D#1 .A.F ....
....|..|--- .... ....|--- .... ....|--- .... ....
 F-3|..|--- .... ....|--- .... ....|F-1 .A.F ....
....|..|--- .... ....|--- .... ....|--- .... ....
 F-3|..|--- .... ....|--- .... ....|F-1 .F.7 ....
....|..|--- .... ....|--- .... ....|--- .... ....
 D#3|..|--- .... ....|--- .... ....|D#1 .A.F ....
....|..|--- .... ....|--- .... ....|--- .... ....
 F-3|..|--- .... ....|--- .... ....|F-1 .A.F ....
....|..|--- .... ....|--- .... ....|--- .... ....
....|..|--- .... ....|--- .... ....|R-- .... ....
....|..|--- .... ....|--- .... ....|--- .... ....

[Pattern7]
 G-3|..|--- .... ....|--- .... ....|G-1 .A.F ....
....|..|--- .... ....|--- .... ....|--- .... ....
 F-3|..|--- .... ....|--- .... ....|F-1 .F.7 ....
....|..|--- .... ....|--- .... ....|--- .... ....
 F-3|..|--- .... ....|--- .... ....|F-1 .A.F ....
....|..|--- .... ....|--- .... ....|--- .... ....
 D#3|..|--- .... ....|--- .... ....|D#1 .F.7 ....
....|..|--- .... ....|--- .... ....|--- .... ....
 F-3|..|--- .... ....|--- .... ....|F-1 .A.F ....
....|..|--- .... ....|--- .... ....|--- .... ....
....|..|--- .... ....|--- .... ....|R-- .... ....
....|..|--- .... ....|--- .... ....|--- .... ....
 F-3|..|--- .... ....|--- .... ....|F-1 .A.F ....
....|..|--- .... ....|--- .... ....|--- .... ....
....|..|--- .... ....|--- .... ....|R-- .... ....
....|..|--- .... ....|--- .... ....|--- .... ....
 D#3|..|--- .... ....|--- .... ....|D#1 .A.F ....
....|..|--- .... ....|--- .... ....|--- .... ....
....|..|--- .... ....|--- .... ....|R-- .... ....
....|..|--- .... ....|--- .... ....|--- .... ....
 F-3|..|--- .... ....|--- .... ....|F-1 .A.F ....
....|..|--- .... ....|--- .... ....|--- .... ....
 F-3|..|--- .... ....|--- .... ....|F-1 .A.F ....
....|..|--- .... ....|--- .... ....|--- .... ....
 F-3|..|--- .... ....|--- .... ....|F-1 .F.7 ....
....|..|--- .... ....|--- .... ....|--- .... ....
 D#3|..|--- .... ....|--- .... ....|D#1 .A.F ....
....|..|--- .... ....|--- .... ....|--- .... ....
 F-3|..|--- .... ....|--- .... ....|F-1 .A.F ....
....|..|--- .... ....|--- .... ....|--- .... ....
 D#3|..|--- .... ....|--- .... ....|D#1 .A.F ....
....|..|--- .... ....|--- .... ....|--- .... ....
 G#3|..|--- .... ....|--- .... ....|G#1 .A.F ....
....|..|--- .... ....|--- .... ....|--- .... ....
 F-3|..|--- .... ....|--- .... ....|F-1 .F.7 ....
....|..|--- .... ....|--- .... ....|--- .... ....
 F-3|..|--- .... ....|--- .... ....|F-1 .A.F ....
....|..|--- .... ....|--- .... ....|--- .... ....
 D#3|..|--- .... ....|--- .... ....|D#1 .F.7 ....
....|..|--- .... ....|--- .... ....|--- .... ....
 F-3|..|--- .... ....|--- .... ....|F-1 .A.F ....
....|..|--- .... ....|--- .... ....|--- .... ....
 D#3|..|--- .... ....|--- .... ....|D#1 .F.7 ....
....|..|--- .... ....|--- .... ....|--- .... ....
 F-3|..|--- .... ....|--- .... ....|F-1 .A.F ....
....|..|--- .... ....|--- .... ....|--- .... ....
....|..|--- .... ....|--- .... ....|R-- .... ....
....|..|--- .... ....|--- .... ....|--- .... ....
 D#3|..|--- .... ....|--- .... ....|D#1 .A.F ....
....|..|--- .... ....|--- .... ....|--- .... ....
....|..|--- .... ....|--- .... ....|R-- .... ....
....|..|--- .... ....|--- .... ....|--- .... ....
 F-3|..|--- .... ....|--- .... ....|F-1 .A.F ....
....|..|--- .... ....|--- .... ....|--- .... ....
 F-3|..|--- .... ....|--- .... ....|F-1 .A.F ....
....|..|--- .... ....|--- .... ....|--- .... ....
 F-3|..|--- .... ....|--- .... ....|F-1 .F.7 ....
....|..|--- .... ....|--- .... ....|--- .... ....
 F-3|..|--- .... ....|--- .... ....|F-1 .A.F ....
....|..|--- .... ....|--- .... ....|--- .... ....
 C-4|..|--- .... ....|--- .... ....|C-2 .A.F ....
....|..|--- .... ....|--- .... ....|--- .... ....
....|..|--- .... ....|--- .... ....|R-- .... ....
....|..|--- .... ....|--- .... ....|--- .... ....

[Pattern8]
 F-3|..|F-3 .A.F ....|--- .... ....|F-1 .A.F ....
 G#5|..|G#3 .A.F ....|--- .... ....|--- .... ....
 A#5|..|A#3 .A.F ....|--- .... ....|F-1 .F.7 ....
 C-6|..|C-4 .A.F ....|--- .... ....|--- .... ....
 D#6|..|D#4 .A.F ....|--- .... ....|F-1 .A.F ....
 F-6|..|F-4 .A.F ....|--- .... ....|--- .... ....
 F-3|..|G#4 .A.F ....|--- .... ....|F-1 .F.7 ....
 F-6|..|F-4 .A.F ....|--- .... ....|--- .... ....
 A#5|..|A#3 .F.A ....|--- .... ....|F-1 .A.F ....
 C-6|..|C-4 .F.A ....|--- .... ....|--- .... ....
 D#6|..|D#4 .F.A ....|--- .... ....|R-- .... ....
 F-6|..|F-4 .F.A ....|--- .... ....|--- .... ....
 F-3|..|F-3 .F.7 ....|--- .... ....|F-1 .A.F ....
 G#5|..|G#3 .F.7 ....|--- .... ....|--- .... ....
 A#5|..|A#3 .F.7 ....|--- .... ....|R-- .... ....
 C-6|..|C-4 .F.7 ....|--- .... ....|--- .... ....
 F-3|..|F-3 .A.F ....|--- .... ....|F-1 .A.F ....
 G#5|..|G#3 .A.F ....|--- .... ....|--- .... ....
 A#5|..|A#3 .A.F ....|--- .... ....|R-- .... ....
 C-6|..|C-4 .A.F ....|--- .... ....|--- .... ....
 D#6|..|D#4 .A.F ....|--- .... ....|F-1 .A.F ....
 F-6|..|F-4 .A.F ....|--- .... ....|R-- .... ....
 F-3|..|G#4 .A.F ....|--- .... ....|F-1 .A.F ....
 F-6|..|F-4 .A.F ....|--- .... ....|--- .... ....
 F-3|..|R-- .... ....|--- .... ....|F-1 .F.7 ....
 C-6|..|C-4 .F.A ....|--- .... ....|--- .... ....
 D#3|..|G#4 .A.F ....|--- .... ....|D#1 .A.F ....
....|..|R-- .... ....|--- .... ....|R-- .... ....
 F-3|..|F-3 .F.7 ....|--- .... ....|F-1 .A.F ....
 G#5|..|G#3 .F.7 ....|--- .... ....|--- .... ....
 A#5|..|A#3 .F.7 ....|--- .... ....|R-- .... ....
 C-6|..|C-4 .F.7 ....|--- .... ....|--- .... ....
 F-5|..|F-3 .A.F ....|--- .... ....|G#1 .A.F ....
 G#5|..|G#3 .A.F ....|--- .... ....|R-- .... ....
 A#5|..|A#3 .A.F ....|--- .... ....|F-1 .F.7 ....
 C-6|..|C-4 .A.F ....|--- .... ....|--- .... ....
 D#6|..|D#4 .A.F ....|--- .... ....|F-1 .A.F ....
 F-6|..|F-4 .A.F ....|--- .... ....|--- .... ....
 D#3|..|G#4 .A.F ....|--- .... ....|D#1 .F.7 ....
 F-6|..|F-4 .A.F ....|--- .... ....|--- .... ....
 A#5|..|A#3 .F.A ....|--- .... ....|F-1 .A.F ....
 C-6|..|C-4 .F.A ....|--- .... ....|--- .... ....
 D#6|..|D#4 .F.A ....|--- .... ....|R-- .... ....
 F-6|..|F-4 .F.A ....|--- .... ....|--- .... ....
 F-3|..|F-3 .F.7 ....|--- .... ....|F-1 .A.F ....
 G#5|..|G#3 .F.7 ....|--- .... ....|--- .... ....
 A#5|..|A#3 .F.7 ....|--- .... ....|R-- .... ....
 C-6|..|C-4 .F.7 ....|--- .... ....|--- .... ....
 F-3|..|F-3 .A.F ....|--- .... ....|F-1 .A.F ....
 G#5|..|G#3 .A.F ....|--- .... ....|--- .... ....
 A#5|..|A#3 .A.F ....|--- .... ....|R-- .... ....
 C-6|..|C-4 .A.F ....|--- .... ....|--- .... ....
 D#3|..|D#4 .A.F ....|--- .... ....|D#1 .A.F ....
 F-6|..|F-4 .A.F ....|--- .... ....|--- .... ....
 F-3|..|G#4 .A.F ....|--- .... ....|F-1 .A.F ....
 A#5|..|A#3 .A.F ....|--- .... ....|--- .... ....
 F-3|..|R-- .... ....|--- .... ....|F-1 .F.7 ....
 C-6|..|C-4 .F.A ....|--- .... ....|--- .... ....
 C-6|..|C-4 .A.F ....|--- .... ....|D#1 .A.F ....
 F-6|..|F-4 .F.A ....|--- .... ....|--- .... ....
 F-3|..|F-3 .F.7 ....|--- .... ....|F-1 .A.F ....
 G#5|..|G#3 .F.7 ....|--- .... ....|--- .... ....
 A#5|..|A#3 .F.7 ....|--- .... ....|R-- .... ....
 C-6|..|C-4 .F.7 ....|--- .... ....|--- .... ....

[Pattern9]
 F-5|..|F-3 .A.F ....|--- .... ....|G-1 .A.F ....
 G#5|..|G#3 .A.F ....|--- .... ....|--- .... ....
 A#5|..|A#3 .A.F ....|--- .... ....|F-1 .F.7 ....
 C-6|..|C-4 .A.F ....|--- .... ....|--- .... ....
 D#6|..|D#4 .A.F ....|--- .... ....|F-1 .A.F ....
 F-6|..|F-4 .A.F ....|--- .... ....|--- .... ....
 D#3|..|G#4 .A.F ....|--- .... ....|D#1 .F.7 ....
 A#6|..|A#4 .A.F ....|--- .... ....|--- .... ....
 F-3|..|R-- .... ....|--- .... ....|F-1 .A.F ....
 C-6|..|C-4 .F.A ....|--- .... ....|--- .... ....
 D#6|..|D#4 .F.A ....|--- .... ....|R-- .... ....
 F-6|..|F-4 .F.A ....|--- .... ....|--- .... ....
 F-3|..|F-3 .F.7 ....|--- .... ....|F-1 .A.F ....
 G#5|..|G#3 .F.7 ....|--- .... ....|--- .... ....
 A#5|..|A#3 .F.7 ....|--- .... ....|R-- .... ....
 C-6|..|C-4 .F.7 ....|--- .... ....|--- .... ....
 D#3|..|F-3 .A.F ....|--- .... ....|D#1 .A.F ....
 G#5|..|G#3 .A.F ....|--- .... ....|--- .... ....
 A#5|..|A#3 .A.F ....|--- .... ....|R-- .... ....
 C-6|..|C-4 .A.F ....|--- .... ....|--- .... ....
 D#6|..|D#4 .A.F ....|--- .... ....|F-1 .A.F ....
 F-6|..|F-4 .A.F ....|--- .... ....|--- .... ....
 F-3|..|G#4 .A.F ....|--- .... ....|F-1 .A.F ....
 B-6|..|B-4 .A.F ....|--- .... ....|--- .... ....
 F-3|..|R-- .... ....|--- .... ....|F-1 .F.7 ....
 C-6|..|C-4 .F.A ....|--- .... ....|--- .... ....
 A#6|..|A#4 .A.F ....|--- .... ....|D#1 .A.F ....
 F-6|..|F-4 .F.A ....|--- .... ....|--- .... ....
 F-3|..|F-3 .F.7 ....|--- .... ....|F-1 .A.F ....
 G#5|..|G#3 .F.7 ....|--- .... ....|--- .... ....
 A#5|..|A#3 .F.7 ....|--- .... ....|D#1 .A.F ....
 C-6|..|C-4 .F.7 ....|--- .... ....|--- .... ....
 F-5|..|F-3 .A.F ....|--- .... ....|G#1 .A.F ....
 G#5|..|G#3 .A.F ....|--- .... ....|--- .... ....
 A#5|..|A#3 .A.F ....|--- .... ....|F-1 .F.7 ....
 C-6|..|C-4 .A.F ....|--- .... ....|--- .... ....
 D#6|..|D#4 .A.F ....|--- .... ....|F-1 .A.F ....
 F-6|..|F-4 .A.F ....|--- .... ....|--- .... ....
 D#3|..|G#4 .A.F ....|--- .... ....|D#1 .F.7 ....
 F-6|..|F-4 .A.F ....|--- .... ....|--- .... ....
 F-3|..|R-- .... ....|--- .... ....|F-1 .A.F ....
 C-6|..|C-4 .F.A ....|--- .... ....|--- .... ....
 D#3|..|D#4 .F.A ....|--- .... ....|D#1 .F.7 ....
 F-6|..|F-4 .F.A ....|--- .... ....|--- .... ....
 F-3|..|F-3 .F.7 ....|--- .... ....|F-1 .A.F ....
 G#5|..|G#3 .F.7 ....|--- .... ....|--- .... ....
 A#5|..|A#3 .F.7 ....|--- .... ....|R-- .... ....
 C-6|..|C-4 .F.7 ....|--- .... ....|--- .... ....
 D#3|..|F-3 .A.F ....|--- .... ....|D#1 .A.F ....
 G#5|..|G#3 .A.F ....|--- .... ....|--- .... ....
 A#5|..|A#3 .A.F ....|--- .... ....|R-- .... ....
 C-6|..|C-4 .A.F ....|--- .... ....|--- .... ....
 D-6|..|D-4 .A.F ....|--- .... ....|F-1 .A.F ....
 D#6|..|D#4 .A.F ....|--- .... ....|--- .... ....
 F-3|..|F-4 .A.F ....|--- .... ....|F-1 .A.F ....
 G#6|..|G#4 .A.F ....|--- .... ....|--- .... ....
 C-7|..|C-5 .A.F ....|--- .... ....|F-1 .F.7 ....
 G#6|..|G#4 .A.F ....|--- .... ....|--- .... ....
 F-3|..|F-4 .A.F ....|--- .... ....|F-1 .A.F ....
 C-6|..|C-4 .A.F ....|--- .... ....|--- .... ....
 A#5|..|A#3 .A.F ....|--- .... ....|C-2 .A.F ....
 G#5|..|G#3 .A.F ....|--- .... ....|--- .... ....
 F-5|..|F-3 .A.F ....|--- .... ....|R-- .... ....
 G#5|..|G#3 .A.F ....|--- .... ....|--- .... ....

[Pattern10]
 D-6|..|D-4 .F.7 ....|--- .... ....|F-1 .A.F ....
 D#6|..|D#4 .F.7 ....|--- .... ....|--- .... ....
 F-3|..|F-4 .F.7 ....|--- .... ....|F-1 .F.7 ....
 G#6|..|G#4 .F.7 ....|--- .... ....|--- .... ....
 C-7|..|C-5 .F.7 ....|--- .... ....|F-1 .A.F ....
 G#6|..|G#4 .F.7 ....|--- .... ....|--- .... ....
 F-3|..|F-4 .F.7 ....|--- .... ....|F-1 .F.7 ....
 C-6|..|C-4 .F.7 ....|--- .... ....|--- .... ....
 A#5|..|A#3 .F.7 ....|--- .... ....|F-1 .A.F ....
 G#5|..|G#3 .F.7 ....|--- .... ....|--- .... ....
 F-5|..|F-3 .F.7 ....|--- .... ....|R-- .... ....
 G#5|..|G#3 .F.7 ....|--- .... ....|--- .... ....
 F-3|..|R-- .... ....|--- .... ....|F-1 .A.F ....
....|..|--- .... ....|--- .... ....|--- .... ....
....|..|--- .... ....|--- .... ....|R-- .... ....
....|..|--- .... ....|--- .... ....|--- .... ....
 F-3|..|--- .... ....|--- .... ....|F-1 .A.F ....
....|..|--- .... ....|--- .... ....|--- .... ....
....|..|--- .... ....|--- .... ....|R-- .... ....
....|..|--- .... ....|--- .... ....|--- .... ....
 F-3|..|--- .... ....|--- .... ....|F-1 .A.F ....
....|..|--- .... ....|--- .... ....|R-- .... ....
 F-3|..|--- .... ....|--- .... ....|F-1 .A.F ....
....|..|--- .... ....|--- .... ....|--- .... ....
 F-3|..|--- .... ....|--- .... ....|F-1 .F.7 ....
....|..|--- .... ....|--- .... ....|--- .... ....
 D#3|..|--- .... ....|--- .... ....|D#1 .A.F ....
....|..|--- .... ....|--- .... ....|R-- .... ....
 F-3|..|--- .... ....|--- .... ....|F-1 .A.F ....
....|..|--- .... ....|--- .... ....|--- .... ....
....|..|--- .... ....|--- .... ....|R-- .... ....
....|..|--- .... ....|--- .... ....|--- .... ....
 G#3|..|--- .... ....|--- .... ....|G#1 .A.F ....
....|..|--- .... ....|--- .... ....|R-- .... ....
 F-3|..|--- .... ....|--- .... ....|F-1 .F.7 ....
....|..|--- .... ....|--- .... ....|--- .... ....
 F-3|..|--- .... ....|--- .... ....|F-1 .A.F ....
....|..|--- .... ....|--- .... ....|--- .... ....
 D#3|..|--- .... ....|--- .... ....|D#1 .F.7 ....
....|..|--- .... ....|--- .... ....|--- .... ....
 F-3|..|--- .... ....|--- .... ....|F-1 .A.F ....
....|..|--- .... ....|--- .... ....|--- .... ....
....|..|--- .... ....|--- .... ....|R-- .... ....
....|..|--- .... ....|--- .... ....|--- .... ....
 F-3|..|--- .... ....|--- .... ....|F-1 .A.F ....
....|..|--- .... ....|--- .... ....|--- .... ....
....|..|--- .... ....|--- .... ....|R-- .... ....
....|..|--- .... ....|--- .... ....|--- .... ....
 F-3|..|--- .... ....|--- .... ....|F-1 .A.F ....
....|..|--- .... ....|--- .... ....|--- .... ....
....|..|--- .... ....|--- .... ....|R-- .... ....
....|..|--- .... ....|--- .... ....|--- .... ....
 D#3|..|--- .... ....|--- .... ....|D#1 .A.F ....
....|..|--- .... ....|--- .... ....|--- .... ....
 F-3|..|--- .... ....|--- .... ....|F-1 .A.F ....
....|..|--- .... ....|--- .... ....|--- .... ....
 F-3|..|--- .... ....|--- .... ....|F-1 .F.7 ....
....|..|--- .... ....|--- .... ....|--- .... ....
 D#3|..|--- .... ....|--- .... ....|D#1 .A.F ....
....|..|--- .... ....|--- .... ....|--- .... ....
 F-3|..|--- .... ....|--- .... ....|F-1 .A.F ....
....|..|--- .... ....|--- .... ....|--- .... ....
....|..|--- .... ....|--- .... ....|R-- .... ....
....|..|--- .... ....|--- .... ....|--- .... ....

[Pattern11]
 G-3|..|--- .... ....|--- .... ....|G-1 .A.F ....
....|..|--- .... ....|--- .... ....|--- .... ....
 F-3|..|--- .... ....|--- .... ....|F-1 .F.7 ....
....|..|--- .... ....|--- .... ....|--- .... ....
 F-3|..|--- .... ....|--- .... ....|F-1 .A.F ....
....|..|--- .... ....|--- .... ....|--- .... ....
 D#3|..|--- .... ....|--- .... ....|D#1 .F.7 ....
....|..|--- .... ....|--- .... ....|--- .... ....
 F-3|..|--- .... ....|--- .... ....|F-1 .A.F ....
....|..|--- .... ....|--- .... ....|--- .... ....
....|..|--- .... ....|--- .... ....|R-- .... ....
....|..|--- .... ....|--- .... ....|--- .... ....
 F-3|..|--- .... ....|--- .... ....|F-1 .A.F ....
....|..|--- .... ....|--- .... ....|--- .... ....
....|..|--- .... ....|--- .... ....|R-- .... ....
....|..|--- .... ....|--- .... ....|--- .... ....
 D#3|..|--- .... ....|--- .... ....|D#1 .A.F ....
....|..|--- .... ....|--- .... ....|--- .... ....
....|..|--- .... ....|--- .... ....|R-- .... ....
....|..|--- .... ....|--- .... ....|--- .... ....
 F-3|..|--- .... ....|--- .... ....|F-1 .A.F ....
....|..|--- .... ....|--- .... ....|--- .... ....
 F-3|..|--- .... ....|--- .... ....|F-1 .A.F ....
....|..|--- .... ....|--- .... ....|--- .... ....
 F-3|..|--- .... ....|--- .... ....|F-1 .F.7 ....
....|..|--- .... ....|--- .... ....|--- .... ....
 D#3|..|--- .... ....|--- .... ....|D#1 .A.F ....
....|..|--- .... ....|--- .... ....|--- .... ....
 F-3|..|--- .... ....|--- .... ....|F-1 .A.F ....
....|..|--- .... ....|--- .... ....|--- .... ....
 D#3|..|--- .... ....|--- .... ....|D#1 .A.F ....
....|..|--- .... ....|--- .... ....|--- .... ....
 G#3|..|--- .... ....|--- .... ....|G#1 .A.F ....
....|..|--- .... ....|--- .... ....|--- .... ....
 F-3|..|--- .... ....|--- .... ....|F-1 .F.7 ....
....|..|--- .... ....|--- .... ....|--- .... ....
 F-3|..|--- .... ....|--- .... ....|F-1 .A.F ....
....|..|--- .... ....|--- .... ....|--- .... ....
 D#3|..|--- .... ....|--- .... ....|D#1 .F.7 ....
....|..|--- .... ....|--- .... ....|--- .... ....
 F-3|..|--- .... ....|--- .... ....|F-1 .A.F ....
....|..|--- .... ....|--- .... ....|--- .... ....
 D#3|..|--- .... ....|--- .... ....|D#1 .F.7 ....
....|..|--- .... ....|--- .... ....|--- .... ....
 F-3|..|--- .... ....|--- .... ....|F-1 .A.F ....
....|..|--- .... ....|--- .... ....|--- .... ....
....|..|--- .... ....|--- .... ....|R-- .... ....
....|..|--- .... ....|--- .... ....|--- .... ....
 D#3|..|--- .... ....|--- .... ....|D#1 .A.F ....
....|..|--- .... ....|--- .... ....|--- .... ....
....|..|--- .... ....|--- .... ....|R-- .... ....
....|..|--- .... ....|--- .... ....|--- .... ....
 F-3|..|--- .... ....|--- .... ....|F-1 .A.F ....
....|..|--- .... ....|--- .... ....|--- .... ....
 F-3|..|--- .... ....|--- .... ....|F-1 .A.F ....
....|..|--- .... ....|--- .... ....|--- .... ....
 F-3|..|--- .... ....|--- .... ....|F-1 .F.7 ....
....|..|--- .... ....|--- .... ....|--- .... ....
....|..|--- .... ....|--- .... ....|R-- .... ....
....|..|--- .... ....|--- .... ....|--- .... ....
 D#3|..|--- .... ....|--- .... ....|D#1 .F.7 ....
....|..|--- .... ....|--- .... ....|--- .... ....
....|..|--- .... ....|--- .... ....|R-- .... ....
....|..|--- .... ....|--- .... ....|--- .... ....

[Pattern12]
 F-3|..|--- .... ....|--- .... ....|F-1 .F.7 ....
....|..|--- .... ....|--- .... ....|--- .... ....
 F-3|..|--- .... ....|--- .... ....|F-1 .A.F ....
....|..|--- .... ....|--- .... ....|--- .... ....
....|..|--- .... ....|--- .... ....|R-- .... ....
....|..|--- .... ....|--- .... ....|--- .... ....
 F-3|..|--- .... ....|--- .... ....|F-1 .A.F ....
....|..|--- .... ....|--- .... ....|--- .... ....
....|..|--- .... ....|--- .... ....|R-- .... ....
....|..|--- .... ....|--- .... ....|--- .... ....
 F-3|..|--- .... ....|--- .... ....|F-1 .A.F ....
....|..|--- .... ....|--- .... ....|--- .... ....
....|..|--- .... ....|--- .... ....|R-- .... ....
....|..|--- .... ....|--- .... ....|--- .... ....
 F-3|..|--- .... ....|--- .... ....|F-1 .A.F ....
....|..|--- .... ....|--- .... ....|--- .... ....
....|..|--- .... ....|--- .... ....|R-- .... ....
....|..|--- .... ....|--- .... ....|--- .... ....
 F-3|..|--- .... ....|--- .... ....|F-1 .A.F ....
....|..|--- .... ....|--- .... ....|--- .... ....
....|..|--- .... ....|--- .... ....|R-- .... ....
....|..|--- .... ....|--- .... ....|--- .... ....
 F-3|..|--- .... ....|--- .... ....|F-1 .A.F ....
....|..|--- .... ....|--- .... ....|--- .... ....
....|..|--- .... ....|--- .... ....|R-- .... ....
....|..|--- .... ....|--- .... ....|--- .... ....
 F-3|..|--- .... ....|--- .... ....|F-1 .A.F ....
....|..|--- .... ....|--- .... ....|--- .... ....
....|..|--- .... ....|--- .... ....|R-- .... ....
....|..|--- .... ....|--- .... ....|--- .... ....
 F-3|..|--- .... ....|--- .... ....|F-1 .A.F ....
....|..|--- .... ....|--- .... ....|--- .... ....
....|..|--- .... ....|--- .... ....|R-- .... ....
....|..|--- .... ....|--- .... ....|--- .... ....
 F-3|..|--- .... ....|--- .... ....|F-1 .A.F ....
....|..|--- .... ....|--- .... ....|--- .... ....
....|..|--- .... ....|--- .... ....|R-- .... ....
....|..|--- .... ....|--- .... ....|--- .... ....
 F-3|..|--- .... ....|--- .... ....|F-1 .A.F ....
....|..|--- .... ....|--- .... ....|--- .... ....
....|..|--- .... ....|--- .... ....|R-- .... ....
....|..|--- .... ....|--- .... ....|--- .... ....
 F-3|..|--- .... ....|--- .... ....|F-1 .A.F ....
....|..|--- .... ....|--- .... ....|--- .... ....
....|..|--- .... ....|--- .... ....|R-- .... ....
....|..|--- .... ....|--- .... ....|--- .... ....
 F-3|..|--- .... ....|--- .... ....|F-1 .A.F ....
....|..|--- .... ....|--- .... ....|--- .... ....
....|..|--- .... ....|--- .... ....|R-- .... ....
....|..|--- .... ....|--- .... ....|--- .... ....
 F-3|..|--- .... ....|--- .... ....|F-1 .A.F ....
....|..|--- .... ....|--- .... ....|--- .... ....
....|..|--- .... ....|--- .... ....|R-- .... ....
....|..|--- .... ....|--- .... ....|--- .... ....
 F-3|..|--- .... ....|--- .... ....|F-1 .A.F ....
....|..|--- .... ....|--- .... ....|--- .... ....
....|..|--- .... ....|--- .... ....|R-- .... ....
....|..|--- .... ....|--- .... ....|--- .... ....
 F-3|..|--- .... ....|--- .... ....|F-1 .A.F ....
....|..|--- .... ....|--- .... ....|--- .... ....
....|..|--- .... ....|--- .... ....|R-- .... ....
....|..|--- .... ....|--- .... ....|--- .... ....
 F-3|..|--- .... ....|--- .... ....|F-1 .A.F ....
....|..|--- .... ....|--- .... ....|--- .... ....

[Pattern13]
....|..|--- .... ....|--- .... ....|R-- .... ....
....|..|--- .... ....|--- .... ....|--- .... ....
 F-3|..|--- .... ....|--- .... ....|F-1 .A.F ....
....|..|--- .... ....|--- .... ....|--- .... ....
....|..|--- .... ....|--- .... ....|R-- .... ....
....|..|--- .... ....|--- .... ....|--- .... ....
 F-3|..|--- .... ....|--- .... ....|F-1 .A.F ....
....|..|--- .... ....|--- .... ....|--- .... ....
....|..|--- .... ....|--- .... ....|R-- .... ....
....|..|--- .... ....|--- .... ....|--- .... ....
 F-3|..|--- .... ....|--- .... ....|F-1 .A.F ....
....|..|--- .... ....|--- .... ....|--- .... ....
....|..|--- .... ....|--- .... ....|R-- .... ....
....|..|--- .... ....|--- .... ....|--- .... ....
 F-3|..|--- .... ....|--- .... ....|F-1 .A.F ....
....|..|--- .... ....|--- .... ....|--- .... ....
....|..|--- .... ....|--- .... ....|R-- .... ....
....|..|--- .... ....|--- .... ....|--- .... ....
 F-3|..|--- .... ....|--- .... ....|F-1 .A.F ....
....|..|--- .... ....|--- .... ....|--- .... ....
....|..|--- .... ....|--- .... ....|R-- .... ....
....|..|--- .... ....|--- .... ....|--- .... ....
 F-3|..|--- .... ....|--- .... ....|F-1 .A.F ....
....|..|--- .... ....|--- .... ....|--- .... ....
....|..|--- .... ....|--- .... ....|R-- .... ....
....|..|--- .... ....|--- .... ....|--- .... ....
 F-3|..|--- .... ....|--- .... ....|F-1 .A.F ....
....|..|--- .... ....|--- .... ....|--- .... ....
....|..|--- .... ....|--- .... ....|R-- .... ....
....|..|--- .... ....|--- .... ....|--- .... ....
 F-3|..|--- .... ....|--- .... ....|F-1 .A.F ....
....|..|--- .... ....|--- .... ....|--- .... ....
....|..|--- .... ....|--- .... ....|R-- .... ....
....|..|--- .... ....|--- .... ....|--- .... ....
 F-3|..|--- .... ....|--- .... ....|F-1 .A.F ....
....|..|--- .... ....|--- .... ....|--- .... ....
....|..|--- .... ....|--- .... ....|R-- .... ....
....|..|--- .... ....|--- .... ....|--- .... ....
 F-3|..|--- .... ....|--- .... ....|F-1 .A.F ....
....|..|--- .... ....|--- .... ....|--- .... ....
....|..|--- .... ....|--- .... ....|R-- .... ....
....|..|--- .... ....|--- .... ....|--- .... ....
 F-3|..|--- .... ....|--- .... ....|F-1 .A.F ....
....|..|--- .... ....|--- .... ....|--- .... ....
....|..|--- .... ....|--- .... ....|R-- .... ....
....|..|--- .... ....|--- .... ....|--- .... ....
 F-3|..|--- .... ....|--- .... ....|F-1 .A.F ....
....|..|--- .... ....|--- .... ....|--- .... ....
....|..|--- .... ....|--- .... ....|R-- .... ....
....|..|--- .... ....|--- .... ....|--- .... ....
 F-3|..|--- .... ....|--- .... ....|F-1 .A.F ....
....|..|--- .... ....|--- .... ....|--- .... ....
....|..|--- .... ....|--- .... ....|R-- .... ....
....|..|--- .... ....|--- .... ....|--- .... ....
 F-3|..|--- .... ....|--- .... ....|F-1 .A.F ....
....|..|--- .... ....|--- .... ....|--- .... ....
....|..|--- .... ....|--- .... ....|R-- .... ....
....|..|--- .... ....|--- .... ....|--- .... ....
 F-3|..|--- .... ....|--- .... ....|F-1 .A.F ....
....|..|--- .... ....|--- .... ....|--- .... ....
....|..|--- .... ....|--- .... ....|R-- .... ....
....|..|--- .... ....|--- .... ....|--- .... ....
 F-3|..|--- .... ....|--- .... ....|F-1 .A.F ....
....|..|--- .... ....|--- .... ....|--- .... ....

[Pattern18]
....|..|--- .... ....|--- .... ....|R-- .... ....
....|..|--- .... ....|--- .... ....|--- .... ....
 F-3|..|--- .... ....|--- .... ....|F-1 .F.7 ....
....|..|--- .... ....|--- .... ....|--- .... ....
....|..|--- .... ....|--- .... ....|R-- .... ....
....|..|--- .... ....|--- .... ....|--- .... ....
 F-3|..|--- .... ....|--- .... ....|F-1 .F.7 ....
....|..|--- .... ....|--- .... ....|--- .... ....
....|..|--- .... ....|--- .... ....|R-- .... ....
....|..|--- .... ....|--- .... ....|--- .... ....
 F-3|..|--- .... ....|--- .... ....|F-1 .F.7 ....
....|..|--- .... ....|--- .... ....|--- .... ....
....|..|--- .... ....|--- .... ....|R-- .... ....
....|..|--- .... ....|--- .... ....|--- .... ....
....|..|--- .... ....|--- .... ....|--- .... ....
....|..|--- .... ....|--- .... ....|--- .... ....
....|..|--- .... ....|--- .... ....|--- .... ....
....|..|--- .... ....|--- .... ....|--- .... ....
....|..|--- .... ....|--- .... ....|--- .... ....
....|..|--- .... ....|--- .... ....|--- .... ....
....|..|--- .... ....|--- .... ....|--- .... ....
....|..|--- .... ....|--- .... ....|--- .... ....
....|..|--- .... ....|--- .... ....|--- .... ....
....|..|--- .... ....|--- .... ....|--- .... ....
....|..|--- .... ....|--- .... ....|--- .... ....
....|..|--- .... ....|--- .... ....|--- .... ....
....|..|--- .... ....|--- .... ....|--- .... ....
....|..|--- .... ....|--- .... ....|--- .... ....
....|..|--- .... ....|--- .... ....|--- .... ....
....|..|--- .... ....|--- .... ....|--- .... ....
....|..|--- .... ....|--- .... ....|--- .... ....
....|..|--- .... ....|--- .... ....|--- .... ....
....|..|--- .... ....|--- .... ....|--- .... ....
....|..|--- .... ....|--- .... ....|--- .... ....
....|..|--- .... ....|--- .... ....|--- .... ....
....|..|--- .... ....|--- .... ....|--- .... ....
....|..|--- .... ....|--- .... ....|--- .... ....
....|..|--- .... ....|--- .... ....|--- .... ....
....|..|--- .... ....|--- .... ....|--- .... ....
....|..|--- .... ....|--- .... ....|--- .... ....
....|..|--- .... ....|--- .... ....|--- .... ....
....|..|--- .... ....|--- .... ....|--- .... ....
....|..|--- .... ....|--- .... ....|--- .... ....
....|..|--- .... ....|--- .... ....|--- .... ....
....|..|--- .... ....|--- .... ....|--- .... ....
....|..|--- .... ....|--- .... ....|--- .... ....
....|..|--- .... ....|--- .... ....|--- .... ....
....|..|--- .... ....|--- .... ....|--- .... ....
....|..|--- .... ....|--- .... ....|--- .... ....
....|..|--- .... ....|--- .... ....|--- .... ....
....|..|--- .... ....|--- .... ....|--- .... ....
....|..|--- .... ....|--- .... ....|--- .... ....
....|..|--- .... ....|--- .... ....|--- .... ....
....|..|--- .... ....|--- .... ....|--- .... ....
....|..|--- .... ....|--- .... ....|--- .... ....
....|..|--- .... ....|--- .... ....|--- .... ....
....|..|--- .... ....|--- .... ....|--- .... ....
....|..|--- .... ....|--- .... ....|--- .... ....
....|..|--- .... ....|--- .... ....|--- .... ....
....|..|--- .... ....|--- .... ....|--- .... ....
....|..|--- .... ....|--- .... ....|--- .... ....
....|..|--- .... ....|--- .... ....|--- .... ....
....|..|--- .... ....|--- .... ....|--- .... ....
....|..|--- .... ....|--- .... ....|--- .... ....

[Pattern20]
 F-6|..|F-4 .A.F ....|--- .... ....|--- .... ....
....|..|--- .... ....|--- .... ....|--- .... ....
....|..|--- .... ....|--- .... ....|--- .... ....
....|..|--- .... ....|--- .... ....|--- .... ....
....|..|--- .... ....|--- .... ....|--- .... ....
....|..|--- .... ....|--- .... ....|--- .... ....
 F-6|..|F-4 .F.A ....|--- .... ....|--- .... ....
....|..|--- .... ....|--- .... ....|--- .... ....
....|..|--- .... ....|--- .... ....|--- .... ....
....|..|--- .... ....|--- .... ....|--- .... ....
....|..|--- .... ....|--- .... ....|--- .... ....
....|..|--- .... ....|--- .... ....|--- .... ....
 F-6|..|F-4 .F.7 ....|--- .... ....|--- .... ....
....|..|--- .... ....|--- .... ....|--- .... ....
....|..|--- .... ....|--- .... ....|--- .... ....
....|..|--- .... ....|--- .... ....|--- .... ....
....|..|--- .... ....|--- .... ....|--- .... ....
....|..|--- .... ....|--- .... ....|--- .... ....
....|..|--- .... ....|--- .... ....|--- .... ....
....|..|--- .... ....|--- .... ....|--- .... ....
....|..|--- .... ....|--- .... ....|--- .... ....
....|..|--- .... ....|--- .... ....|--- .... ....
....|..|--- .... ....|--- .... ....|--- .... ....
....|..|--- .... ....|--- .... ....|--- .... ....
 D#6|..|D#4 .A.F ....|--- .... ....|--- .... ....
....|..|--- .... ....|--- .... ....|--- .... ....
....|..|--- .... ....|--- .... ....|--- .... ....
....|..|--- .... ....|--- .... ....|--- .... ....
....|..|--- .... ....|--- .... ....|--- .... ....
....|..|--- .... ....|--- .... ....|--- .... ....
 D#6|..|D#4 .F.A ....|--- .... ....|--- .... ....
....|..|--- .... ....|--- .... ....|--- .... ....
 D#6|..|D#4 .A.F ....|--- .... ....|--- .... ....
....|..|--- .... ....|--- .... ....|--- .... ....
....|..|--- .... ....|--- .... ....|--- .... ....
....|..|--- .... ....|--- .... ....|--- .... ....
 D#6|..|D#4 .F.7 ....|--- .... ....|--- .... ....
....|..|--- .... ....|--- .... ....|--- .... ....
 D#6|..|D#4 .F.A ....|--- .... ....|--- .... ....
....|..|--- .... ....|--- .... ....|--- .... ....
 C-6|..|C-4 .A.F ....|--- .... ....|--- .... ....
....|..|--- .... ....|--- .... ....|--- .... ....
....|..|--- .... ....|--- .... ....|--- .... ....
....|..|--- .... ....|--- .... ....|--- .... ....
 D#6|..|D#4 .F.7 ....|--- .... ....|--- .... ....
....|..|--- .... ....|--- .... ....|--- .... ....
 C-6|..|C-4 .F.A ....|--- .... ....|--- .... ....
....|..|--- .... ....|--- .... ....|--- .... ....
....|..|--- .... ....|--- .... ....|--- .... ....
....|..|--- .... ....|--- .... ....|--- .... ....
....|..|--- .... ....|--- .... ....|--- .... ....
....|..|--- .... ....|--- .... ....|--- .... ....
 C-6|..|C-4 .F.7 ....|--- .... ....|--- .... ....
....|..|--- .... ....|--- .... ....|--- .... ....
....|..|--- .... ....|--- .... ....|--- .... ....
....|..|--- .... ....|--- .... ....|--- .... ....
....|..|--- .... ....|--- .... ....|--- .... ....
....|..|--- .... ....|--- .... ....|--- .... ....
....|..|--- .... ....|--- .... ....|--- .... ....
....|..|--- .... ....|--- .... ....|--- .... ....
....|..|--- .... ....|--- .... ....|--- .... ....
....|..|--- .... ....|--- .... ....|--- .... ....
....|..|--- .... ....|--- .... ....|--- .... ....
....|..|--- .... ....|--- .... ....|--- .... ....

[Pattern21]
 A#5|..|A#3 .A.F ....|--- .... ....|--- .... ....
....|..|--- .... ....|--- .... ....|--- .... ....
....|..|--- .... ....|--- .... ....|--- .... ....
....|..|--- .... ....|--- .... ....|--- .... ....
....|..|--- .... ....|--- .... ....|--- .... ....
....|..|--- .... ....|--- .... ....|--- .... ....
 A#5|..|A#3 .F.A ....|--- .... ....|--- .... ....
....|..|--- .... ....|--- .... ....|--- .... ....
....|..|--- .... ....|--- .... ....|--- .... ....
....|..|--- .... ....|--- .... ....|--- .... ....
....|..|--- .... ....|--- .... ....|--- .... ....
....|..|--- .... ....|--- .... ....|--- .... ....
 A#5|..|A#3 .F.7 ....|--- .... ....|--- .... ....
....|..|--- .... ....|--- .... ....|--- .... ....
....|..|--- .... ....|--- .... ....|--- .... ....
....|..|--- .... ....|--- .... ....|--- .... ....
....|..|--- .... ....|--- .... ....|--- .... ....
....|..|--- .... ....|--- .... ....|--- .... ....
....|..|--- .... ....|--- .... ....|--- .... ....
....|..|--- .... ....|--- .... ....|--- .... ....
....|..|--- .... ....|--- .... ....|--- .... ....
....|..|--- .... ....|--- .... ....|--- .... ....
....|..|--- .... ....|--- .... ....|--- .... ....
....|..|--- .... ....|--- .... ....|--- .... ....
....|..|--- .... ....|--- .... ....|--- .... ....
....|..|--- .... ....|--- .... ....|--- .... ....
....|..|--- .... ....|--- .... ....|--- .... ....
....|..|--- .... ....|--- .... ....|--- .... ....
....|..|--- .... ....|--- .... ....|--- .... ....
....|..|--- .... ....|--- .... ....|--- .... ....
....|..|--- .... ....|--- .... ....|--- .... ....
....|..|--- .... ....|--- .... ....|--- .... ....
 G#5|..|G#3 .A.F ....|--- .... ....|--- .... ....
....|..|--- .... ....|--- .... ....|--- .... ....
....|..|--- .... ....|--- .... ....|--- .... ....
....|..|--- .... ....|--- .... ....|--- .... ....
....|..|--- .... ....|--- .... ....|--- .... ....
....|..|--- .... ....|--- .... ....|--- .... ....
 G#5|..|G#3 .F.A ....|--- .... ....|--- .... ....
....|..|--- .... ....|--- .... ....|--- .... ....
....|..|--- .... ....|--- .... ....|--- .... ....
....|..|--- .... ....|--- .... ....|--- .... ....
....|..|--- .... ....|--- .... ....|--- .... ....
....|..|--- .... ....|--- .... ....|--- .... ....
 G#5|..|G#3 .F.7 ....|--- .... ....|--- .... ....
....|..|--- .... ....|--- .... ....|--- .... ....
....|..|--- .... ....|--- .... ....|--- .... ....
....|..|--- .... ....|--- .... ....|--- .... ....
....|..|--- .... ....|--- .... ....|--- .... ....
....|..|--- .... ....|--- .... ....|--- .... ....
....|..|--- .... ....|--- .... ....|--- .... ....
....|..|--- .... ....|--- .... ....|--- .... ....
....|..|--- .... ....|--- .... ....|--- .... ....
....|..|--- .... ....|--- .... ....|--- .... ....
....|..|--- .... ....|--- .... ....|--- .... ....
....|..|--- .... ....|--- .... ....|--- .... ....
....|..|--- .... ....|--- .... ....|--- .... ....
....|..|--- .... ....|--- .... ....|--- .... ....
....|..|--- .... ....|--- .... ....|--- .... ....
....|..|--- .... ....|--- .... ....|--- .... ....
....|..|--- .... ....|--- .... ....|--- .... ....
....|..|--- .... ....|--- .... ....|--- .... ....
....|..|--- .... ....|--- .... ....|--- .... ....
....|..|--- .... ....|--- .... ....|--- .... ....

[Pattern23]
 A#5|..|A#3 .A.F ....|--- .... ....|--- .... ....
....|..|--- .... ....|--- .... ....|--- .... ....
....|..|--- .... ....|--- .... ....|--- .... ....
....|..|--- .... ....|--- .... ....|--- .... ....
....|..|--- .... ....|--- .... ....|--- .... ....
....|..|--- .... ....|--- .... ....|--- .... ....
 A#5|..|A#3 .F.A ....|--- .... ....|--- .... ....
....|..|--- .... ....|--- .... ....|--- .... ....
....|..|--- .... ....|--- .... ....|--- .... ....
....|..|--- .... ....|--- .... ....|--- .... ....
....|..|--- .... ....|--- .... ....|--- .... ....
....|..|--- .... ....|--- .... ....|--- .... ....
 A#5|..|A#3 .F.7 ....|--- .... ....|--- .... ....
....|..|--- .... ....|--- .... ....|--- .... ....
....|..|--- .... ....|--- .... ....|--- .... ....
....|..|--- .... ....|--- .... ....|--- .... ....
....|..|--- .... ....|--- .... ....|--- .... ....
....|..|--- .... ....|--- .... ....|--- .... ....
....|..|--- .... ....|--- .... ....|--- .... ....
....|..|--- .... ....|--- .... ....|--- .... ....
....|..|--- .... ....|--- .... ....|--- .... ....
....|..|--- .... ....|--- .... ....|--- .... ....
....|..|--- .... ....|--- .... ....|--- .... ....
....|..|--- .... ....|--- .... ....|--- .... ....
....|..|--- .... ....|--- .... ....|--- .... ....
....|..|--- .... ....|--- .... ....|--- .... ....
....|..|--- .... ....|--- .... ....|--- .... ....
....|..|--- .... ....|--- .... ....|--- .... ....
....|..|--- .... ....|--- .... ....|--- .... ....
....|..|--- .... ....|--- .... ....|--- .... ....
....|..|--- .... ....|--- .... ....|--- .... ....
....|..|--- .... ....|--- .... ....|--- .... ....
 G#5|..|G#3 .A.F ....|--- .... ....|--- .... ....
....|..|--- .... ....|--- .... ....|--- .... ....
....|..|--- .... ....|--- .... ....|--- .... ....
....|..|--- .... ....|--- .... ....|--- .... ....
....|..|--- .... ....|--- .... ....|--- .... ....
....|..|--- .... ....|--- .... ....|--- .... ....
 G#5|..|G#3 .F.A ....|--- .... ....|--- .... ....
....|..|--- .... ....|--- .... ....|--- .... ....
....|..|--- .... ....|--- .... ....|--- .... ....
....|..|--- .... ....|--- .... ....|--- .... ....
....|..|--- .... ....|--- .... ....|--- .... ....
....|..|--- .... ....|--- .... ....|--- .... ....
 G#5|..|G#3 .F.7 ....|--- .... ....|--- .... ....
....|..|--- .... ....|--- .... ....|--- .... ....
....|..|--- .... ....|--- .... ....|--- .... ....
....|..|--- .... ....|--- .... ....|--- .... ....
....|..|R-- .... ....|--- .... ....|--- .... ....
....|..|--- .... ....|--- .... ....|--- .... ....
....|..|--- .... ....|--- .... ....|--- .... ....
....|..|--- .... ....|--- .... ....|--- .... ....
....|..|--- .... ....|--- .... ....|--- .... ....
....|..|--- .... ....|--- .... ....|--- .... ....
....|..|R-- .... ....|--- .... ....|--- .... ....
....|..|--- .... ....|--- .... ....|--- .... ....
....|..|--- .... ....|--- .... ....|--- .... ....
....|..|--- .... ....|--- .... ....|--- .... ....
....|..|--- .... ....|--- .... ....|--- .... ....
....|..|--- .... ....|--- .... ....|--- .... ....
....|..|R-- .... ....|--- .... ....|--- .... ....
....|..|--- .... ....|--- .... ....|--- .... ....
....|..|--- .... ....|--- .... ....|--- .... ....
....|..|--- .... ....|--- .... ....|--- .... ....

[Pattern24]
 D#3|..|D#1 .A.F ....|--- .... ....|--- .... ....
....|..|--- .... ....|--- .... ....|--- .... ....
 F-3|..|F-1 .A.F ....|--- .... ....|F-1 .A.F ....
....|..|--- .... ....|--- .... ....|--- .... ....
 F-4|..|F-2 .A.F ....|--- .... ....|R-- .... ....
....|..|--- .... ....|--- .... ....|--- .... ....
 F-3|..|G#2 .A.F ....|--- .... ....|F-1 .A.F ....
....|..|--- .... ....|--- .... ....|--- .... ....
 D#4|..|D#2 .A.F ....|--- .... ....|R-- .... ....
....|..|--- .... ....|--- .... ....|--- .... ....
 F-3|..|F-2 .A.F ....|--- .... ....|F-1 .A.F ....
....|..|--- .... ....|--- .... ....|--- .... ....
 D#4|..|D#2 .A.F ....|--- .... ....|R-- .... ....
....|..|--- .... ....|--- .... ....|--- .... ....
 F-3|..|F-2 .A.F ....|--- .... ....|F-1 .A.F ....
....|..|--- .... ....|--- .... ....|--- .... ....
 G#4|..|G#2 .A.F ....|--- .... ....|R-- .... ....
....|..|--- .... ....|--- .... ....|--- .... ....
 D#4|..|D#2 .A.F ....|--- .... ....|F-1 .A.F ....
....|..|--- .... ....|--- .... ....|--- .... ....
 G#4|..|G#2 .A.F ....|--- .... ....|R-- .... ....
....|..|--- .... ....|--- .... ....|--- .... ....
 D#4|..|D#2 .A.F ....|--- .... ....|F-1 .A.F ....
....|..|--- .... ....|--- .... ....|--- .... ....
 G-4|..|G-2 .A.F ....|--- .... ....|R-- .... ....
....|..|--- .... ....|--- .... ....|--- .... ....
 F-3|..|F-2 .A.F ....|--- .... ....|F-1 .A.F ....
....|..|--- .... ....|--- .... ....|--- .... ....
 G#4|..|G#2 .F.7 ....|--- .... ....|R-- .... ....
....|..|--- .... ....|--- .... ....|--- .... ....
 D#4|..|D#2 .F.7 ....|--- .... ....|F-1 .A.F ....
....|..|--- .... ....|--- .... ....|--- .... ....
 D#3|..|D#1 .A.F ....|--- .... ....|R-- .... ....
....|..|--- .... ....|--- .... ....|--- .... ....
 F-3|..|F-1 .A.F ....|--- .... ....|F-1 .A.F ....
....|..|--- .... ....|--- .... ....|--- .... ....
 F-4|..|F-2 .A.F ....|--- .... ....|R-- .... ....
....|..|--- .... ....|--- .... ....|--- .... ....
 F-3|..|G#2 .A.F ....|--- .... ....|F-1 .A.F ....
....|..|--- .... ....|--- .... ....|--- .... ....
 D#4|..|D#2 .A.F ....|--- .... ....|R-- .... ....
....|..|--- .... ....|--- .... ....|--- .... ....
 F-3|..|F-2 .A.F ....|--- .... ....|F-1 .A.F ....
....|..|--- .... ....|--- .... ....|--- .... ....
 D#4|..|D#2 .A.F ....|--- .... ....|R-- .... ....
....|..|--- .... ....|--- .... ....|--- .... ....
 F-3|..|F-2 .A.F ....|--- .... ....|F-1 .A.F ....
....|..|--- .... ....|--- .... ....|--- .... ....
 G#4|..|G#2 .A.F ....|--- .... ....|R-- .... ....
....|..|--- .... ....|--- .... ....|--- .... ....
 D#4|..|D#2 .A.F ....|--- .... ....|F-1 .A.F ....
....|..|--- .... ....|--- .... ....|--- .... ....
 G#4|..|G#2 .A.F ....|--- .... ....|R-- .... ....
....|..|--- .... ....|--- .... ....|--- .... ....
 D#4|..|D#2 .A.F ....|--- .... ....|F-1 .A.F ....
....|..|--- .... ....|--- .... ....|--- .... ....
 G-4|..|G-2 .A.F ....|--- .... ....|R-- .... ....
....|..|--- .... ....|--- .... ....|--- .... ....
 F-3|..|F-2 .F.7 ....|--- .... ....|F-1 .A.F ....
....|..|--- .... ....|--- .... ....|--- .... ....
 G#4|..|G#2 .F.7 ....|--- .... ....|R-- .... ....
....|..|--- .... ....|--- .... ....|--- .... ....
 D#4|..|D#2 .F.7 ....|--- .... ....|F-1 .A.F ....
....|..|--- .... ....|--- .... ....|--- .... ....

[Pattern25]
 D#3|..|D#1 .A.F ....|--- .... ....|R-- .... ....
....|..|--- .... ....|--- .... ....|--- .... ....
 F-3|..|F-1 .A.F ....|--- .... ....|F-1 .A.F ....
....|..|--- .... ....|--- .... ....|--- .... ....
 F-4|..|F-2 .A.F ....|--- .... ....|R-- .... ....
....|..|--- .... ....|--- .... ....|--- .... ....
 F-3|..|G#2 .A.F ....|--- .... ....|F-1 .A.F ....
....|..|--- .... ....|--- .... ....|--- .... ....
 D#4|..|D#2 .A.F ....|--- .... ....|R-- .... ....
....|..|--- .... ....|--- .... ....|--- .... ....
 F-3|..|F-2 .A.F ....|--- .... ....|F-1 .A.F ....
....|..|--- .... ....|--- .... ....|--- .... ....
 D#4|..|D#2 .A.F ....|--- .... ....|R-- .... ....
....|..|--- .... ....|--- .... ....|--- .... ....
 F-3|..|F-2 .A.F ....|--- .... ....|F-1 .A.F ....
....|..|--- .... ....|--- .... ....|--- .... ....
 G#4|..|G#2 .A.F ....|--- .... ....|R-- .... ....
....|..|--- .... ....|--- .... ....|--- .... ....
 D#4|..|D#2 .A.F ....|--- .... ....|F-1 .A.F ....
....|..|--- .... ....|--- .... ....|--- .... ....
 G#4|..|G#2 .A.F ....|--- .... ....|R-- .... ....
....|..|--- .... ....|--- .... ....|--- .... ....
 D#4|..|D#2 .A.F ....|--- .... ....|F-1 .A.F ....
....|..|--- .... ....|--- .... ....|--- .... ....
 G-4|..|G-2 .A.F ....|--- .... ....|R-- .... ....
....|..|--- .... ....|--- .... ....|--- .... ....
 F-3|..|F-2 .A.F ....|--- .... ....|F-1 .A.F ....
....|..|--- .... ....|--- .... ....|--- .... ....
 G#4|..|G#2 .F.7 ....|--- .... ....|R-- .... ....
....|..|--- .... ....|--- .... ....|--- .... ....
 D#4|..|D#2 .F.7 ....|--- .... ....|F-1 .A.F ....
....|..|--- .... ....|--- .... ....|--- .... ....
 D#3|..|D#1 .A.F ....|--- .... ....|R-- .... ....
....|..|--- .... ....|--- .... ....|--- .... ....
 F-3|..|F-1 .A.F ....|--- .... ....|F-1 .A.F ....
....|..|--- .... ....|--- .... ....|--- .... ....
 F-4|..|F-2 .A.F ....|--- .... ....|R-- .... ....
....|..|--- .... ....|--- .... ....|--- .... ....
 F-3|..|G#2 .A.F ....|--- .... ....|F-1 .A.F ....
....|..|--- .... ....|--- .... ....|--- .... ....
 D#4|..|D#2 .A.F ....|--- .... ....|R-- .... ....
....|..|--- .... ....|--- .... ....|--- .... ....
 F-3|..|F-2 .A.F ....|--- .... ....|F-1 .A.F ....
....|..|--- .... ....|--- .... ....|--- .... ....
 D#4|..|D#2 .A.F ....|--- .... ....|R-- .... ....
....|..|--- .... ....|--- .... ....|--- .... ....
 F-3|..|F-2 .A.F ....|--- .... ....|F-1 .A.F ....
....|..|--- .... ....|--- .... ....|--- .... ....
 G#4|..|G#2 .A.F ....|--- .... ....|R-- .... ....
....|..|--- .... ....|--- .... ....|--- .... ....
 D#4|..|D#2 .A.F ....|--- .... ....|F-1 .A.F ....
....|..|--- .... ....|--- .... ....|--- .... ....
 G#4|..|G#2 .A.F ....|--- .... ....|R-- .... ....
....|..|--- .... ....|--- .... ....|--- .... ....
 D#4|..|D#2 .A.F ....|--- .... ....|F-1 .A.F ....
....|..|--- .... ....|--- .... ....|--- .... ....
 G-4|..|G-2 .A.F ....|--- .... ....|R-- .... ....
....|..|--- .... ....|--- .... ....|--- .... ....
 F-3|..|F-2 .F.7 ....|--- .... ....|F-1 .A.F ....
....|..|--- .... ....|--- .... ....|--- .... ....
 G#4|..|G#2 .F.7 ....|--- .... ....|R-- .... ....
....|..|--- .... ....|--- .... ....|--- .... ....
 D#4|..|D#2 .F.7 ....|--- .... ....|F-1 .F.7 ....
....|..|--- .... ....|--- .... ....|--- .... ....

[Pattern26]
 D#3|..|D#1 .A.F ....|--- .... ....|R-- .... ....
....|..|--- .... ....|--- .... ....|--- .... ....
 F-3|..|F-1 .A.F ....|--- .... ....|F-1 .A.F ....
....|..|--- .... ....|--- .... ....|--- .... ....
 F-4|..|F-2 .A.F ....|--- .... ....|R-- .... ....
....|..|--- .... ....|--- .... ....|--- .... ....
 F-3|..|G#2 .A.F ....|--- .... ....|F-1 .A.F ....
....|..|--- .... ....|--- .... ....|--- .... ....
 D#4|..|D#2 .A.F ....|--- .... ....|R-- .... ....
....|..|--- .... ....|--- .... ....|--- .... ....
 F-3|..|F-2 .A.F ....|--- .... ....|F-1 .A.F ....
....|..|--- .... ....|--- .... ....|--- .... ....
 D#4|..|D#2 .A.F ....|--- .... ....|R-- .... ....
....|..|--- .... ....|--- .... ....|--- .... ....
 F-3|..|F-2 .A.F ....|--- .... ....|F-1 .A.F ....
....|..|--- .... ....|--- .... ....|--- .... ....
 G#4|..|G#2 .A.F ....|--- .... ....|R-- .... ....
....|..|--- .... ....|--- .... ....|--- .... ....
 D#4|..|D#2 .A.F ....|--- .... ....|F-1 .A.F ....
....|..|--- .... ....|--- .... ....|--- .... ....
 G#4|..|G#2 .A.F ....|--- .... ....|R-- .... ....
....|..|--- .... ....|--- .... ....|--- .... ....
 D#4|..|D#2 .A.F ....|--- .... ....|F-1 .A.F ....
....|..|--- .... ....|--- .... ....|--- .... ....
 G-4|..|G-2 .A.F ....|--- .... ....|R-- .... ....
....|..|--- .... ....|--- .... ....|--- .... ....
 F-3|..|F-2 .A.F ....|--- .... ....|F-1 .A.F ....
....|..|--- .... ....|--- .... ....|--- .... ....
 G#4|..|G#2 .F.7 ....|--- .... ....|R-- .... ....
....|..|--- .... ....|--- .... ....|--- .... ....
 D#4|..|D#2 .F.7 ....|--- .... ....|F-1 .A.F ....
....|..|--- .... ....|--- .... ....|--- .... ....
 D#3|..|D#1 .A.F ....|--- .... ....|R-- .... ....
....|..|--- .... ....|--- .... ....|--- .... ....
 F-3|..|F-1 .A.F ....|--- .... ....|F-1 .A.F ....
....|..|--- .... ....|--- .... ....|--- .... ....
 F-4|..|F-2 .A.F ....|--- .... ....|R-- .... ....
....|..|--- .... ....|--- .... ....|--- .... ....
 F-3|..|G#2 .A.F ....|--- .... ....|F-1 .A.F ....
....|..|--- .... ....|--- .... ....|--- .... ....
 D#4|..|D#2 .A.F ....|--- .... ....|R-- .... ....
....|..|--- .... ....|--- .... ....|--- .... ....
 F-3|..|F-2 .A.F ....|--- .... ....|F-1 .A.F ....
....|..|--- .... ....|--- .... ....|--- .... ....
 D#4|..|D#2 .A.F ....|--- .... ....|R-- .... ....
....|..|--- .... ....|--- .... ....|--- .... ....
 F-3|..|F-2 .A.F ....|--- .... ....|F-1 .A.F ....
....|..|--- .... ....|--- .... ....|--- .... ....
 G#4|..|G#2 .A.F ....|--- .... ....|R-- .... ....
....|..|--- .... ....|--- .... ....|--- .... ....
 D#4|..|D#2 .A.F ....|--- .... ....|F-1 .A.F ....
....|..|--- .... ....|--- .... ....|--- .... ....
 G#4|..|G#2 .A.F ....|--- .... ....|R-- .... ....
....|..|--- .... ....|--- .... ....|--- .... ....
 D#4|..|D#2 .A.F ....|--- .... ....|F-1 .A.F ....
....|..|--- .... ....|--- .... ....|--- .... ....
 G-4|..|G-2 .A.F ....|--- .... ....|R-- .... ....
....|..|--- .... ....|--- .... ....|--- .... ....
 F-3|..|F-2 .F.7 ....|--- .... ....|F-1 .A.F ....
....|..|--- .... ....|--- .... ....|--- .... ....
 G#4|..|G#2 .F.7 ....|--- .... ....|R-- .... ....
....|..|--- .... ....|--- .... ....|--- .... ....
 D#4|..|D#2 .F.7 ....|--- .... ....|F-1 .A.F ....
....|..|--- .... ....|--- .... ....|--- .... ....

[Pattern27]
 D#3|..|D#1 .A.F ....|--- .... ....|R-- .... ....
....|..|--- .... ....|--- .... ....|--- .... ....
 F-3|..|F-1 .A.F ....|--- .... ....|F-1 .A.F ....
....|..|--- .... ....|--- .... ....|--- .... ....
 F-4|..|F-2 .A.F ....|--- .... ....|R-- .... ....
....|..|--- .... ....|--- .... ....|--- .... ....
 F-3|..|G#2 .A.F ....|--- .... ....|F-1 .A.F ....
....|..|--- .... ....|--- .... ....|--- .... ....
 D#4|..|D#2 .A.F ....|--- .... ....|R-- .... ....
....|..|--- .... ....|--- .... ....|--- .... ....
 F-3|..|F-2 .A.F ....|--- .... ....|F-1 .A.F ....
....|..|--- .... ....|--- .... ....|--- .... ....
 D#4|..|D#2 .A.F ....|--- .... ....|R-- .... ....
....|..|--- .... ....|--- .... ....|--- .... ....
 F-3|..|F-2 .A.F ....|--- .... ....|F-1 .A.F ....
....|..|--- .... ....|--- .... ....|--- .... ....
 G#4|..|G#2 .A.F ....|--- .... ....|R-- .... ....
....|..|--- .... ....|--- .... ....|--- .... ....
 D#4|..|D#2 .A.F ....|--- .... ....|F-1 .A.F ....
....|..|--- .... ....|--- .... ....|--- .... ....
 G#4|..|G#2 .A.F ....|--- .... ....|R-- .... ....
....|..|--- .... ....|--- .... ....|--- .... ....
 D#4|..|D#2 .A.F ....|--- .... ....|F-1 .A.F ....
....|..|--- .... ....|--- .... ....|--- .... ....
 G-4|..|G-2 .A.F ....|--- .... ....|R-- .... ....
....|..|--- .... ....|--- .... ....|--- .... ....
 F-3|..|F-2 .A.F ....|--- .... ....|F-1 .A.F ....
....|..|--- .... ....|--- .... ....|--- .... ....
 G#4|..|G#2 .F.7 ....|--- .... ....|R-- .... ....
....|..|--- .... ....|--- .... ....|--- .... ....
 D#4|..|D#2 .F.7 ....|--- .... ....|F-1 .A.F ....
....|..|--- .... ....|--- .... ....|--- .... ....
 D#3|..|D#1 .A.F ....|--- .... ....|R-- .... ....
....|..|--- .... ....|--- .... ....|--- .... ....
 F-3|..|F-1 .A.F ....|--- .... ....|G#1 .A.F ....
....|..|--- .... ....|--- .... ....|--- .... ....
 F-4|..|F-2 .A.F ....|--- .... ....|R-- .... ....
....|..|--- .... ....|--- .... ....|--- .... ....
 G#3|..|G#2 .A.F ....|--- .... ....|G#1 .A.F ....
....|..|--- .... ....|--- .... ....|--- .... ....
 D#4|..|D#2 .A.F ....|--- .... ....|R-- .... ....
....|..|--- .... ....|--- .... ....|--- .... ....
 F-4|..|F-2 .A.F ....|--- .... ....|G#1 .A.F ....
....|..|--- .... ....|--- .... ....|--- .... ....
 D#4|..|D#2 .A.F ....|--- .... ....|R-- .... ....
....|..|--- .... ....|--- .... ....|--- .... ....
 F-4|..|F-2 .A.F ....|--- .... ....|G#1 .A.F ....
....|..|--- .... ....|--- .... ....|--- .... ....
 A#4|..|A#2 .A.F ....|--- .... ....|R-- .... ....
....|..|--- .... ....|--- .... ....|--- .... ....
 A#3|..|A#1 .A.F ....|--- .... ....|A#1 .A.F ....
....|..|--- .... ....|--- .... ....|--- .... ....
 A#4|..|A#2 .A.F ....|--- .... ....|R-- .... ....
....|..|--- .... ....|--- .... ....|--- .... ....
 A#3|..|A#1 .A.F ....|--- .... ....|A#1 .A.F ....
....|..|--- .... ....|--- .... ....|--- .... ....
 G#4|..|G#2 .A.F ....|--- .... ....|R-- .... ....
....|..|--- .... ....|--- .... ....|--- .... ....
 A#3|..|F-2 .F.7 ....|--- .... ....|A#1 .A.F ....
....|..|--- .... ....|--- .... ....|--- .... ....
 A#4|..|A#2 .F.7 ....|--- .... ....|R-- .... ....
....|..|--- .... ....|--- .... ....|--- .... ....
 A#3|..|A#1 .F.7 ....|--- .... ....|A#1 .A.F ....
....|..|--- .... ....|--- .... ....|--- .... ....

[Pattern28]
 F-4|..|F-2 .A.F ....|--- .... ....|R-- .... ....
....|..|--- .... ....|--- .... ....|--- .... ....
 F-3|..|G#2 .A.F ....|--- .... ....|F-1 .A.F ....
....|..|--- .... ....|--- .... ....|--- .... ....
 C-5|..|C-3 .A.F ....|--- .... ....|R-- .... ....
....|..|--- .... ....|--- .... ....|--- .... ....
 F-3|..|F-3 .A.F ....|--- .... ....|F-1 .A.F ....
....|..|--- .... ....|--- .... ....|--- .... ....
 F-4|..|F-2 .A.F ....|--- .... ....|R-- .... ....
....|..|--- .... ....|--- .... ....|--- .... ....
 F-3|..|F-3 .A.F ....|--- .... ....|F-1 .A.F ....
....|..|--- .... ....|--- .... ....|--- .... ....
 F-4|..|F-2 .A.F ....|--- .... ....|R-- .... ....
....|..|--- .... ....|--- .... ....|--- .... ....
 F-3|..|G#2 .A.F ....|--- .... ....|F-1 .A.F ....
....|..|--- .... ....|--- .... ....|--- .... ....
 G-4|..|G-2 .A.F ....|--- .... ....|R-- .... ....
....|..|--- .... ....|--- .... ....|--- .... ....
 B-4|..|B-2 .A.F ....|--- .... ....|G-1 .A.F ....
....|..|--- .... ....|--- .... ....|--- .... ....
 D-5|..|D-3 .A.F ....|--- .... ....|R-- .... ....
....|..|--- .... ....|--- .... ....|--- .... ....
 G-3|..|G-2 .A.F ....|--- .... ....|G-1 .A.F ....
....|..|--- .... ....|--- .... ....|--- .... ....
 F-5|..|F-3 .A.F ....|--- .... ....|R-- .... ....
....|..|--- .... ....|--- .... ....|--- .... ....
 G#4|..|G#2 .F.7 ....|--- .... ....|G-1 .A.F ....
....|..|--- .... ....|--- .... ....|--- .... ....
 G-4|..|G-2 .F.7 ....|--- .... ....|R-- .... ....
....|..|--- .... ....|--- .... ....|--- .... ....
 B-4|..|B-2 .F.7 ....|--- .... ....|G-1 .A.F ....
....|..|--- .... ....|--- .... ....|--- .... ....
 G#4|..|G#2 .A.F ....|--- .... ....|R-- .... ....
....|..|--- .... ....|--- .... ....|--- .... ....
 C-5|..|C-3 .A.F ....|--- .... ....|G#1 .A.F ....
....|..|--- .... ....|--- .... ....|--- .... ....
 F-5|..|F-3 .A.F ....|--- .... ....|R-- .... ....
....|..|--- .... ....|--- .... ....|--- .... ....
 G#3|..|G#3 .A.F ....|--- .... ....|G#1 .A.F ....
....|..|--- .... ....|--- .... ....|--- .... ....
 G#4|..|G#2 .A.F ....|--- .... ....|R-- .... ....
....|..|--- .... ....|--- .... ....|--- .... ....
 G#3|..|G#3 .A.F ....|--- .... ....|G#1 .A.F ....
....|..|--- .... ....|--- .... ....|--- .... ....
 G#4|..|G#2 .A.F ....|--- .... ....|R-- .... ....
....|..|--- .... ....|--- .... ....|--- .... ....
 C-5|..|C-3 .A.F ....|--- .... ....|G#1 .A.F ....
....|..|--- .... ....|--- .... ....|--- .... ....
 G#5|..|G#3 .A.F ....|--- .... ....|R-- .... ....
....|..|--- .... ....|--- .... ....|--- .... ....
 A#3|..|G#3 .F.7 ....|--- .... ....|A#1 .A.F ....
....|..|--- .... ....|--- .... ....|--- .... ....
 F-5|..|F-3 .A.F ....|--- .... ....|R-- .... ....
....|..|--- .... ....|--- .... ....|--- .... ....
 A#3|..|C#3 .A.F ....|--- .... ....|A#1 .A.F ....
....|..|--- .... ....|--- .... ....|--- .... ....
 A#5|..|A#3 .A.F ....|--- .... ....|R-- .... ....
....|..|--- .... ....|--- .... ....|--- .... ....
 A#3|..|C-3 .F.7 ....|--- .... ....|A#1 .A.F ....
....|..|--- .... ....|--- .... ....|--- .... ....
 F-5|..|F-3 .A.F ....|--- .... ....|R-- .... ....
....|..|--- .... ....|--- .... ....|--- .... ....
 A#3|..|C#3 .A.F ....|--- .... ....|A#1 .A.F ....
....|..|--- .... ....|--- .... ....|--- .... ....

[Pattern29]
 F-4|..|F-2 .A.F ....|--- .... ....|R-- .... ....
....|..|--- .... ....|--- .... ....|--- .... ....
 F-3|..|G#2 .A.F ....|--- .... ....|F-1 .A.F ....
....|..|--- .... ....|--- .... ....|--- .... ....
 C-5|..|C-3 .A.F ....|--- .... ....|R-- .... ....
....|..|--- .... ....|--- .... ....|--- .... ....
 F-3|..|F-3 .A.F ....|--- .... ....|F-1 .A.F ....
....|..|--- .... ....|--- .... ....|--- .... ....
 F-4|..|F-2 .A.F ....|--- .... ....|R-- .... ....
....|..|--- .... ....|--- .... ....|--- .... ....
 F-3|..|F-3 .A.F ....|--- .... ....|F-1 .A.F ....
....|..|--- .... ....|--- .... ....|--- .... ....
 F-4|..|F-2 .A.F ....|--- .... ....|R-- .... ....
....|..|--- .... ....|--- .... ....|--- .... ....
 F-3|..|G#2 .A.F ....|--- .... ....|F-1 .A.F ....
....|..|--- .... ....|--- .... ....|--- .... ....
 G-4|..|G-2 .A.F ....|--- .... ....|R-- .... ....
....|..|--- .... ....|--- .... ....|--- .... ....
 B-4|..|B-2 .A.F ....|--- .... ....|G-1 .A.F ....
....|..|--- .... ....|--- .... ....|--- .... ....
 D-5|..|D-3 .A.F ....|--- .... ....|R-- .... ....
....|..|--- .... ....|--- .... ....|--- .... ....
 G-3|..|G-2 .A.F ....|--- .... ....|G-1 .A.F ....
....|..|--- .... ....|--- .... ....|--- .... ....
 F-5|..|F-3 .A.F ....|--- .... ....|R-- .... ....
....|..|--- .... ....|--- .... ....|--- .... ....
 G#4|..|G#2 .F.7 ....|--- .... ....|G-1 .A.F ....
....|..|--- .... ....|--- .... ....|--- .... ....
 G-4|..|G-2 .F.7 ....|--- .... ....|R-- .... ....
....|..|--- .... ....|--- .... ....|--- .... ....
 B-4|..|B-2 .F.7 ....|--- .... ....|G-1 .A.F ....
....|..|--- .... ....|--- .... ....|--- .... ....
 G#4|..|G#2 .A.F ....|--- .... ....|R-- .... ....
....|..|--- .... ....|--- .... ....|--- .... ....
 C-5|..|C-3 .A.F ....|--- .... ....|G#1 .A.F ....
....|..|--- .... ....|--- .... ....|--- .... ....
 F-5|..|F-3 .A.F ....|--- .... ....|R-- .... ....
....|..|--- .... ....|--- .... ....|--- .... ....
 G#3|..|G#3 .A.F ....|--- .... ....|G#1 .A.F ....
....|..|--- .... ....|--- .... ....|--- .... ....
 G#4|..|G#2 .A.F ....|--- .... ....|R-- .... ....
....|..|--- .... ....|--- .... ....|--- .... ....
 G#3|..|G#3 .A.F ....|--- .... ....|G#1 .A.F ....
....|..|--- .... ....|--- .... ....|--- .... ....
 G#4|..|G#2 .A.F ....|--- .... ....|R-- .... ....
....|..|--- .... ....|--- .... ....|--- .... ....
 G#3|..|G#2 .A.F ....|--- .... ....|G#1 .A.F ....
 A#4|..|A#2 .A.F ....|--- .... ....|--- .... ....
 A#5|..|A#3 .A.F ....|--- .... ....|R-- .... ....
....|..|--- .... ....|--- .... ....|--- .... ....
 A#3|..|G#2 .A.F ....|--- .... ....|A#1 .A.F ....
 A#4|..|A#2 .A.F ....|--- .... ....|--- .... ....
 A#5|..|A#3 .A.F ....|--- .... ....|R-- .... ....
 A#4|..|A#2 .F.A ....|--- .... ....|--- .... ....
 A#3|..|G#2 .A.F ....|--- .... ....|A#1 .A.F ....
 A#4|..|A#2 .A.F ....|--- .... ....|--- .... ....
 A#5|..|A#3 .A.F ....|--- .... ....|R-- .... ....
 A#4|..|A#2 .F.A ....|--- .... ....|--- .... ....
 G#3|..|G#2 .A.F ....|--- .... ....|G#1 .F.7 ....
 A#4|..|A#2 .A.F ....|--- .... ....|--- .... ....
 A#5|..|A#3 .A.F ....|--- .... ....|R-- .... ....
 A#4|..|A#2 .F.A ....|--- .... ....|--- .... ....
 A#3|..|G#2 .F.7 ....|--- .... ....|A#1 .F.7 ....
 A#4|..|A#2 .F.7 ....|--- .... ....|--- .... ....

[Pattern30]
 F-4|..|F-2 .A.F ....|--- .... ....|R-- .... ....
 A#4|..|A#2 .F.A ....|--- .... ....|--- .... ....
 F-3|..|G#2 .A.F ....|--- .... ....|F-1 .A.F ....
 A#4|..|A#2 .F.7 ....|--- .... ....|--- .... ....
 C-5|..|C-3 .A.F ....|--- .... ....|R-- .... ....
....|..|--- .... ....|--- .... ....|--- .... ....
 F-3|..|F-3 .A.F ....|--- .... ....|F-1 .A.F ....
 A#4|..|A#2 .F.7 ....|--- .... ....|--- .... ....
 F-4|..|F-2 .A.F ....|--- .... ....|R-- .... ....
....|..|--- .... ....|--- .... ....|--- .... ....
 F-3|..|F-3 .A.F ....|--- .... ....|F-1 .A.F ....
....|..|--- .... ....|--- .... ....|--- .... ....
 F-4|..|F-2 .A.F ....|--- .... ....|R-- .... ....
....|..|--- .... ....|--- .... ....|--- .... ....
 F-3|..|G#2 .A.F ....|--- .... ....|F-1 .A.F ....
....|..|--- .... ....|--- .... ....|--- .... ....
 G-4|..|G-2 .A.F ....|--- .... ....|R-- .... ....
....|..|--- .... ....|--- .... ....|--- .... ....
 B-4|..|B-2 .A.F ....|--- .... ....|G-1 .A.F ....
....|..|--- .... ....|--- .... ....|--- .... ....
 D-5|..|D-3 .A.F ....|--- .... ....|R-- .... ....
....|..|--- .... ....|--- .... ....|--- .... ....
 G-3|..|G-2 .A.F ....|--- .... ....|G-1 .A.F ....
....|..|--- .... ....|--- .... ....|--- .... ....
 F-5|..|F-3 .A.F ....|--- .... ....|R-- .... ....
....|..|--- .... ....|--- .... ....|--- .... ....
 G#4|..|G#2 .F.7 ....|--- .... ....|G-1 .A.F ....
....|..|--- .... ....|--- .... ....|--- .... ....
 G-4|..|G-2 .F.7 ....|--- .... ....|R-- .... ....
....|..|--- .... ....|--- .... ....|--- .... ....
 B-4|..|B-2 .F.7 ....|--- .... ....|G-1 .A.F ....
....|..|--- .... ....|--- .... ....|--- .... ....
 A#4|..|A#2 .A.F ....|--- .... ....|R-- .... ....
....|..|--- .... ....|--- .... ....|--- .... ....
 C-5|..|C-3 .A.F ....|--- .... ....|G#1 .A.F ....
....|..|--- .... ....|--- .... ....|--- .... ....
 G#4|..|G#2 .A.F ....|--- .... ....|R-- .... ....
....|..|--- .... ....|--- .... ....|--- .... ....
 F-5|..|F-3 .A.F ....|--- .... ....|G#1 .A.F ....
....|..|--- .... ....|--- .... ....|--- .... ....
 G#4|..|G#2 .A.F ....|--- .... ....|R-- .... ....
....|..|--- .... ....|--- .... ....|--- .... ....
 C-5|..|C-3 .A.F ....|--- .... ....|G#1 .A.F ....
....|..|--- .... ....|--- .... ....|--- .... ....
 G#4|..|G#2 .A.F ....|--- .... ....|R-- .... ....
....|..|--- .... ....|--- .... ....|--- .... ....
 C-5|..|C-3 .A.F ....|--- .... ....|G#1 .A.F ....
....|..|--- .... ....|--- .... ....|--- .... ....
 A#5|..|A#3 .A.F ....|--- .... ....|R-- .... ....
....|..|--- .... ....|--- .... ....|--- .... ....
 A#3|..|A#2 .A.F ....|--- .... ....|A#1 .A.F ....
....|..|--- .... ....|--- .... ....|--- .... ....
 F-5|..|F-3 .A.F ....|--- .... ....|R-- .... ....
....|..|--- .... ....|--- .... ....|--- .... ....
 A#3|..|A#2 .A.F ....|--- .... ....|A#1 .A.F ....
....|..|--- .... ....|--- .... ....|--- .... ....
 A#5|..|A#3 .A.F ....|--- .... ....|R-- .... ....
....|..|--- .... ....|--- .... ....|--- .... ....
 A#3|..|C-3 .F.7 ....|--- .... ....|A#1 .A.F ....
....|..|--- .... ....|--- .... ....|--- .... ....
 F-5|..|F-3 .A.F ....|--- .... ....|R-- .... ....
....|..|--- .... ....|--- .... ....|--- .... ....
 A#3|..|C#3 .A.F ....|--- .... ....|A#1 .A.F ....
....|..|--- .... ....|--- .... ....|--- .... ....

[Pattern31]
 F-4|..|F-2 .A.F ....|--- .... ....|R-- .... ....
....|..|--- .... ....|--- .... ....|--- .... ....
 F-3|..|G#2 .A.F ....|--- .... ....|F-1 .A.F ....
....|..|--- .... ....|--- .... ....|--- .... ....
 C-5|..|C-3 .A.F ....|--- .... ....|R-- .... ....
....|..|--- .... ....|--- .... ....|--- .... ....
 F-3|..|F-3 .A.F ....|--- .... ....|F-1 .A.F ....
....|..|--- .... ....|--- .... ....|--- .... ....
 C-5|..|C-3 .A.F ....|--- .... ....|R-- .... ....
....|..|--- .... ....|--- .... ....|--- .... ....
 F-3|..|F-3 .A.F ....|--- .... ....|F-1 .A.F ....
....|..|--- .... ....|--- .... ....|--- .... ....
 F-4|..|F-2 .A.F ....|--- .... ....|R-- .... ....
....|..|--- .... ....|--- .... ....|--- .... ....
 F-3|..|G#2 .A.F ....|--- .... ....|F-1 .A.F ....
....|..|--- .... ....|--- .... ....|--- .... ....
 G-4|..|G-2 .A.F ....|--- .... ....|R-- .... ....
....|..|--- .... ....|--- .... ....|--- .... ....
 B-4|..|B-2 .A.F ....|--- .... ....|G-1 .A.F ....
....|..|--- .... ....|--- .... ....|--- .... ....
 D-5|..|D-3 .A.F ....|--- .... ....|R-- .... ....
....|..|--- .... ....|--- .... ....|--- .... ....
 G-3|..|G-2 .A.F ....|--- .... ....|G-1 .A.F ....
....|..|--- .... ....|--- .... ....|--- .... ....
 F-5|..|F-3 .A.F ....|--- .... ....|R-- .... ....
....|..|--- .... ....|--- .... ....|--- .... ....
 G#4|..|G#2 .F.7 ....|--- .... ....|G-1 .A.F ....
....|..|--- .... ....|--- .... ....|--- .... ....
 G-4|..|G-2 .F.7 ....|--- .... ....|R-- .... ....
....|..|--- .... ....|--- .... ....|--- .... ....
 B-4|..|B-2 .F.7 ....|--- .... ....|G-1 .A.F ....
....|..|--- .... ....|--- .... ....|--- .... ....
 F-4|..|F-2 .A.F ....|--- .... ....|R-- .... ....
....|..|--- .... ....|--- .... ....|--- .... ....
 G#3|..|G#2 .A.F ....|--- .... ....|G#1 .A.F ....
....|..|--- .... ....|--- .... ....|--- .... ....
 C-5|..|C-3 .A.F ....|--- .... ....|R-- .... ....
....|..|--- .... ....|--- .... ....|--- .... ....
 F-5|..|F-3 .A.F ....|--- .... ....|G#1 .A.F ....
....|..|--- .... ....|--- .... ....|--- .... ....
 G#4|..|G#2 .F.A ....|--- .... ....|R-- .... ....
....|..|--- .... ....|--- .... ....|--- .... ....
 F-4|..|F-2 .A.F ....|--- .... ....|G#1 .A.F ....
....|..|--- .... ....|--- .... ....|--- .... ....
 C-5|..|C-3 .A.F ....|--- .... ....|R-- .... ....
....|..|--- .... ....|--- .... ....|--- .... ....
 F-5|..|F-3 .A.F ....|--- .... ....|G#1 .A.F ....
....|..|--- .... ....|--- .... ....|--- .... ....
 A#5|..|A#3 .A.F ....|--- .... ....|R-- .... ....
....|..|--- .... ....|--- .... ....|--- .... ....
 A#3|..|F-3 .F.7 ....|--- .... ....|A#1 .A.F ....
....|..|--- .... ....|--- .... ....|--- .... ....
 A#5|..|A#3 .A.F ....|--- .... ....|R-- .... ....
....|..|--- .... ....|--- .... ....|--- .... ....
 A#3|..|F-2 .F.7 ....|--- .... ....|A#1 .A.F ....
....|..|--- .... ....|--- .... ....|--- .... ....
 C#6|..|C#4 .A.F ....|--- .... ....|R-- .... ....
....|..|--- .... ....|--- .... ....|--- .... ....
 A#3|..|F-3 .F.7 ....|--- .... ....|A#1 .A.F ....
....|..|--- .... ....|--- .... ....|--- .... ....
 C-6|..|C-4 .A.F ....|--- .... ....|R-- .... ....
....|..|--- .... ....|--- .... ....|--- .... ....
 A#3|..|C#4 .F.A ....|--- .... ....|A#1 .A.F ....
....|..|--- .... ....|--- .... ....|--- .... ....

[Pattern32]
 A#5|..|A#3 .F.7 ....|--- .... ....|F-2 .A.F ....
....|..|--- .... ....|--- .... ....|--- .... ....
 C-5|..|C-4 .F.A ....|--- .... ....|C-3 .A.F ....
....|..|--- .... ....|--- .... ....|--- .... ....
 C#6|..|C#4 .F.7 ....|--- .... ....|F-3 .A.F ....
....|..|--- .... ....|--- .... ....|--- .... ....
 G-5|..|R-- .... ....|--- .... ....|G-3 .A.F ....
....|..|--- .... ....|--- .... ....|--- .... ....
 C-6|..|C-4 .F.7 ....|--- .... ....|G#3 .A.F ....
....|..|--- .... ....|--- .... ....|--- .... ....
 C-6|..|--- .... ....|--- .... ....|C-4 .A.F ....
....|..|--- .... ....|--- .... ....|--- .... ....
 C-5|..|R-- .... ....|--- .... ....|C-3 .A.F ....
....|..|--- .... ....|--- .... ....|--- .... ....
 F-5|..|--- .... ....|--- .... ....|F-3 .A.F ....
....|..|--- .... ....|--- .... ....|--- .... ....
 F-4|..|--- .... ....|--- .... ....|F-2 .A.F ....
....|..|--- .... ....|--- .... ....|--- .... ....
 C-5|..|--- .... ....|--- .... ....|C-3 .A.F ....
....|..|--- .... ....|--- .... ....|--- .... ....
 F-5|..|--- .... ....|--- .... ....|F-3 .A.F ....
....|..|--- .... ....|--- .... ....|--- .... ....
 G-5|..|--- .... ....|--- .... ....|G-3 .A.F ....
....|..|--- .... ....|--- .... ....|--- .... ....
 G#5|..|--- .... ....|--- .... ....|G#3 .A.F ....
....|..|--- .... ....|--- .... ....|--- .... ....
 C-6|..|--- .... ....|--- .... ....|C-4 .A.F ....
....|..|--- .... ....|--- .... ....|--- .... ....
 C-5|..|--- .... ....|--- .... ....|C-3 .A.F ....
....|..|--- .... ....|--- .... ....|--- .... ....
 F-5|..|--- .... ....|--- .... ....|F-3 .A.F ....
....|..|--- .... ....|--- .... ....|--- .... ....
 G#4|..|--- .... ....|--- .... ....|G#2 .A.F ....
....|..|--- .... ....|--- .... ....|--- .... ....
 C-5|..|--- .... ....|--- .... ....|C-3 .A.F ....
....|..|--- .... ....|--- .... ....|--- .... ....
 D#5|..|--- .... ....|--- .... ....|D#3 .A.F ....
....|..|--- .... ....|--- .... ....|--- .... ....
 G#5|..|--- .... ....|--- .... ....|G#3 .A.F ....
....|..|--- .... ....|--- .... ....|--- .... ....
 C-5|..|--- .... ....|--- .... ....|C-3 .F.7 ....
....|..|--- .... ....|--- .... ....|--- .... ....
 F-5|..|--- .... ....|--- .... ....|F-3 .A.F ....
....|..|--- .... ....|--- .... ....|--- .... ....
 G-5|..|--- .... ....|--- .... ....|G-3 .A.F ....
....|..|--- .... ....|--- .... ....|--- .... ....
 C-5|..|--- .... ....|--- .... ....|C-3 .F.7 ....
....|..|--- .... ....|--- .... ....|--- .... ....
 A#4|..|--- .... ....|--- .... ....|A#2 .A.F ....
....|..|--- .... ....|--- .... ....|--- .... ....
 D#5|..|--- .... ....|--- .... ....|D#3 .A.F ....
....|..|--- .... ....|--- .... ....|--- .... ....
 F-5|..|--- .... ....|--- .... ....|F-3 .A.F ....
....|..|--- .... ....|--- .... ....|--- .... ....
 A#5|..|--- .... ....|--- .... ....|A#3 .A.F ....
....|..|--- .... ....|--- .... ....|--- .... ....
 G-5|..|--- .... ....|--- .... ....|G-3 .F.7 ....
....|..|--- .... ....|--- .... ....|--- .... ....
 G#5|..|--- .... ....|--- .... ....|G#3 .A.F ....
....|..|--- .... ....|--- .... ....|--- .... ....
 A#4|..|--- .... ....|--- .... ....|A#2 .F.7 ....
....|..|--- .... ....|--- .... ....|--- .... ....
 G-5|..|--- .... ....|--- .... ....|G-3 .A.F ....
....|..|--- .... ....|--- .... ....|--- .... ....

[Pattern33]
 F-4|..|--- .... ....|--- .... ....|F-2 .A.F ....
....|..|--- .... ....|--- .... ....|--- .... ....
 C-5|..|--- .... ....|--- .... ....|C-3 .A.F ....
....|..|--- .... ....|--- .... ....|--- .... ....
 F-5|..|--- .... ....|--- .... ....|F-3 .A.F ....
....|..|--- .... ....|--- .... ....|--- .... ....
 G-5|..|--- .... ....|--- .... ....|G-3 .A.F ....
....|..|--- .... ....|--- .... ....|--- .... ....
 G#5|..|--- .... ....|--- .... ....|G#3 .A.F ....
....|..|--- .... ....|--- .... ....|--- .... ....
 C-6|..|--- .... ....|--- .... ....|C-4 .A.F ....
....|..|--- .... ....|--- .... ....|--- .... ....
 C-5|..|--- .... ....|--- .... ....|C-3 .A.F ....
....|..|--- .... ....|--- .... ....|--- .... ....
 F-5|..|--- .... ....|--- .... ....|F-3 .A.F ....
....|..|--- .... ....|--- .... ....|--- .... ....
 F-4|..|--- .... ....|--- .... ....|F-2 .A.F ....
....|..|--- .... ....|--- .... ....|--- .... ....
 C-5|..|--- .... ....|--- .... ....|C-3 .A.F ....
....|..|--- .... ....|--- .... ....|--- .... ....
 F-5|..|--- .... ....|--- .... ....|F-3 .A.F ....
....|..|--- .... ....|--- .... ....|--- .... ....
 G-5|..|--- .... ....|--- .... ....|G-3 .A.F ....
....|..|--- .... ....|--- .... ....|--- .... ....
 G#5|..|--- .... ....|--- .... ....|G#3 .A.F ....
....|..|--- .... ....|--- .... ....|--- .... ....
 C-6|..|--- .... ....|--- .... ....|C-4 .A.F ....
....|..|--- .... ....|--- .... ....|--- .... ....
 C-5|..|--- .... ....|--- .... ....|C-3 .A.F ....
....|..|--- .... ....|--- .... ....|--- .... ....
 F-5|..|--- .... ....|--- .... ....|F-3 .A.F ....
....|..|--- .... ....|--- .... ....|--- .... ....
 A#5|..|--- .... ....|--- .... ....|A#3 .A.F ....
....|..|--- .... ....|--- .... ....|--- .... ....
 A#4|..|--- .... ....|--- .... ....|A#2 .A.F ....
....|..|--- .... ....|--- .... ....|--- .... ....
 F-5|..|--- .... ....|--- .... ....|F-3 .A.F ....
....|..|--- .... ....|--- .... ....|--- .... ....
 A#5|..|--- .... ....|--- .... ....|A#3 .A.F ....
....|..|--- .... ....|--- .... ....|--- .... ....
 A#4|..|--- .... ....|--- .... ....|A#2 .A.F ....
....|..|--- .... ....|--- .... ....|--- .... ....
 C#5|..|--- .... ....|--- .... ....|C#3 .A.F ....
....|..|--- .... ....|--- .... ....|--- .... ....
 F-5|..|--- .... ....|--- .... ....|F-3 .A.F ....
....|..|--- .... ....|--- .... ....|--- .... ....
 C#5|..|--- .... ....|--- .... ....|C#3 .A.F ....
....|..|--- .... ....|--- .... ....|--- .... ....
 C#4|..|--- .... ....|--- .... ....|C#2 .A.F ....
....|..|--- .... ....|--- .... ....|--- .... ....
 C#5|..|--- .... ....|--- .... ....|C#3 .A.F ....
....|..|--- .... ....|--- .... ....|--- .... ....
 E-5|..|--- .... ....|--- .... ....|E-3 .A.F ....
....|..|--- .... ....|--- .... ....|--- .... ....
 G-5|..|--- .... ....|--- .... ....|G-3 .A.F ....
....|..|--- .... ....|--- .... ....|--- .... ....
 E-4|..|--- .... ....|--- .... ....|E-2 .A.F ....
....|..|--- .... ....|--- .... ....|--- .... ....
 A#4|..|--- .... ....|A#4 .F.F ....|A#2 .A.F ....
....|..|--- .... ....|--- .... ....|--- .... ....
 E-5|..|--- .... ....|G#4 .F.F ....|E-3 .A.F ....
....|..|--- .... ....|G#4 .F1F ....|--- .... ....
 G-5|..|--- .... ....|G-4 .F.F ....|G-3 .A.F ....
....|..|--- .... ....|--- .... ....|--- .... ....

[Pattern34]
 F-4|..|--- .... ....|G#4 .F.F ....|F-2 .A.F ....
....|..|--- .... ....|--- .... ....|--- .... ....
 C-5|..|--- .... ....|G#4 .F.A ....|C-3 .A.F ....
....|..|--- .... ....|G#4 .F1A ....|--- .... ....
 F-5|..|--- .... ....|G-4 .F.F ....|F-3 .A.F ....
....|..|--- .... ....|--- .... ....|--- .... ....
 G-5|..|--- .... ....|F-4 .F.F ....|G-3 .A.F ....
....|..|--- .... ....|--- .... ....|--- .... ....
 G#5|..|--- .... ....|G#4 .F.7 ....|G#3 .A.F ....
....|..|--- .... ....|G#4 .F17 ....|--- .... ....
 C-6|..|--- .... ....|G-4 .F.7 ....|C-4 .A.F ....
....|..|--- .... ....|--- .... ....|--- .... ....
 C-5|..|--- .... ....|G#4 .F.7 ....|C-3 .A.F ....
....|..|--- .... ....|--- .... ....|--- .... ....
 F-5|..|--- .... ....|F-4 .F.F ....|F-3 .A.F ....
....|..|--- .... ....|--- .... ....|--- .... ....
 F-4|..|--- .... ....|G-4 .F.7 ....|F-2 .A.F ....
....|..|--- .... ....|--- .... ....|--- .... ....
 C-5|..|--- .... ....|E-4 .F.F ....|C-3 .A.F ....
....|..|--- .... ....|--- .... ....|--- .... ....
 F-5|..|--- .... ....|F-4 .F.F ....|F-3 .A.F ....
....|..|--- .... ....|--- .... ....|--- .... ....
 G-5|..|--- .... ....|E-4 .F.F ....|G-3 .A.F ....
....|..|--- .... ....|--- .... ....|--- .... ....
 G#5|..|--- .... ....|C#4 .F.F ....|G#3 .A.F ....
....|..|--- .... ....|--- .... ....|--- .... ....
 C-6|..|--- .... ....|A#4 .F.F ....|C-4 .A.F ....
....|..|--- .... ....|--- .... ....|--- .... ....
 C-5|..|--- .... ....|G#4 .F.F ....|C-3 .A.F ....
....|..|--- .... ....|G#4 .F1F ....|--- .... ....
 F-5|..|--- .... ....|G-4 .F.F ....|F-3 .A.F ....
....|..|--- .... ....|--- .... ....|--- .... ....
 G#4|..|--- .... ....|G#4 .F.F ....|G#2 .A.F ....
....|..|--- .... ....|--- .... ....|--- .... ....
 C-5|..|--- .... ....|E-4 .F.7 ....|C-3 .A.F ....
....|..|--- .... ....|G#4 .F1A ....|--- .... ....
 D#5|..|--- .... ....|G-4 .F.F ....|D#3 .A.F ....
....|..|--- .... ....|--- .... ....|--- .... ....
 G#5|..|--- .... ....|F-4 .F.F ....|G#3 .A.F ....
....|..|--- .... ....|--- .... ....|--- .... ....
 C-5|..|--- .... ....|G#4 .F.7 ....|C-3 .F.7 ....
....|..|--- .... ....|G#4 .F17 ....|--- .... ....
 F-5|..|--- .... ....|G-4 .F.7 ....|F-3 .A.F ....
....|..|--- .... ....|--- .... ....|--- .... ....
 G-5|..|--- .... ....|G#4 .F.7 ....|G-3 .A.F ....
....|..|--- .... ....|--- .... ....|--- .... ....
 C-5|..|--- .... ....|E-4 .F.F ....|C-3 .F.7 ....
....|..|--- .... ....|--- .... ....|--- .... ....
 A#4|..|--- .... ....|F-4 .F.F ....|A#2 .A.F ....
....|..|--- .... ....|--- .... ....|--- .... ....
 D#5|..|--- .... ....|G-4 .F.F ....|D#3 .A.F ....
....|..|--- .... ....|--- .... ....|--- .... ....
 F-5|..|--- .... ....|G#4 .F.F ....|F-3 .A.F ....
....|..|--- .... ....|--- .... ....|--- .... ....
 A#5|..|--- .... ....|A#4 .F.F ....|A#3 .A.F ....
....|..|--- .... ....|--- .... ....|--- .... ....
 G-5|..|--- .... ....|G-4 .F.A ....|G-3 .F.7 ....
....|..|--- .... ....|--- .... ....|--- .... ....
 G#5|..|--- .... ....|A#4 .F.F ....|G#3 .A.F ....
....|..|--- .... ....|--- .... ....|--- .... ....
 A#4|..|--- .... ....|G#4 .F.F ....|A#2 .F.7 ....
....|..|--- .... ....|G#4 .F1F ....|--- .... ....
 G-5|..|--- .... ....|G-4 .F.F ....|G-3 .A.F ....
....|..|--- .... ....|--- .... ....|--- .... ....

[Pattern35]
 F-4|..|--- .... ....|G#4 .F.F ....|F-2 .A.F ....
....|..|--- .... ....|--- .... ....|--- .... ....
 C-5|..|--- .... ....|A#4 .F.7 ....|C-3 .A.F ....
....|..|--- .... ....|G#4 .F1A ....|--- .... ....
 F-5|..|--- .... ....|G-4 .F.F ....|F-3 .A.F ....
....|..|--- .... ....|--- .... ....|--- .... ....
 G-5|..|--- .... ....|F-4 .F.F ....|G-3 .A.F ....
....|..|--- .... ....|--- .... ....|--- .... ....
 G#5|..|--- .... ....|G#4 .F.7 ....|G#3 .A.F ....
....|..|--- .... ....|G#4 .F17 ....|--- .... ....
 C-6|..|--- .... ....|G-4 .F.7 ....|C-4 .A.F ....
....|..|--- .... ....|--- .... ....|--- .... ....
 C-5|..|--- .... ....|E-4 .F.F ....|C-3 .A.F ....
....|..|--- .... ....|--- .... ....|--- .... ....
 F-5|..|--- .... ....|F-4 .F.F ....|F-3 .A.F ....
....|..|--- .... ....|--- .... ....|--- .... ....
 F-4|..|--- .... ....|G-4 .F.7 ....|F-2 .A.F ....
....|..|--- .... ....|--- .... ....|--- .... ....
 C-5|..|--- .... ....|E-4 .F.F ....|C-3 .A.F ....
....|..|--- .... ....|--- .... ....|--- .... ....
 F-5|..|--- .... ....|F-4 .F.F ....|F-3 .A.F ....
....|..|--- .... ....|--- .... ....|--- .... ....
 G-5|..|--- .... ....|--- .... ....|G-3 .A.F ....
....|..|--- .... ....|--- .... ....|--- .... ....
 G#5|..|--- .... ....|E-4 .F.F ....|G#3 .A.F ....
....|..|--- .... ....|--- .... ....|--- .... ....
 C-6|..|--- .... ....|F-4 .F.F ....|C-4 .A.F ....
....|..|--- .... ....|--- .... ....|--- .... ....
 C-5|..|--- .... ....|G-4 .F.F ....|C-3 .A.F ....
....|..|--- .... ....|--- .... ....|--- .... ....
 F-5|..|--- .... ....|G#4 .F.F ....|F-3 .A.F ....
....|..|--- .... ....|--- .... ....|--- .... ....
 A#5|..|--- .... ....|A#4 .F.F ....|A#3 .A.F ....
....|..|--- .... ....|--- .... ....|--- .... ....
 A#4|..|--- .... ....|G-4 .F.A ....|A#2 .A.F ....
....|..|--- .... ....|--- .... ....|--- .... ....
 F-5|..|--- .... ....|F-4 .F.F ....|F-3 .A.F ....
....|..|--- .... ....|--- .... ....|--- .... ....
 A#5|..|--- .... ....|C-5 .F.F ....|A#3 .A.F ....
....|..|--- .... ....|--- .... ....|--- .... ....
 A#4|..|--- .... ....|G-4 .F.7 ....|A#2 .A.F ....
....|..|--- .... ....|--- .... ....|--- .... ....
 C#5|..|--- .... ....|G-4 .F.F ....|C#3 .A.F ....
....|..|--- .... ....|--- .... ....|--- .... ....
 F-5|..|--- .... ....|C#5 .F.F ....|F-3 .A.F ....
....|..|--- .... ....|--- .... ....|--- .... ....
 C#5|..|--- .... ....|--- .... ....|C#3 .A.F ....
....|..|--- .... ....|--- .... ....|--- .... ....
 C#4|..|--- .... ....|G#4 .F.F ....|C#2 .A.F ....
....|..|--- .... ....|--- .... ....|--- .... ....
 C#5|..|--- .... ....|E-5 .F.F ....|C#3 .A.F ....
....|..|--- .... ....|--- .... ....|--- .... ....
 E-5|..|--- .... ....|--- .... ....|E-3 .A.F ....
....|..|--- .... ....|--- .... ....|--- .... ....
 G-5|..|--- .... ....|C#5 .F.F ....|G-3 .A.F ....
....|..|--- .... ....|--- .... ....|--- .... ....
 E-4|..|--- .... ....|F-5 .F.F ....|E-2 .A.F ....
....|..|--- .... ....|--- .... ....|--- .... ....
 A#4|..|--- .... ....|A#5 .F.F ....|A#2 .A.F ....
....|..|--- .... ....|--- .... ....|--- .... ....
 E-5|..|--- .... ....|G#5 .F.F ....|E-3 .A.F ....
....|..|--- .... ....|G#4 .F1F ....|--- .... ....
 G-5|..|--- .... ....|G-5 .F.F ....|G-3 .A.F ....
....|..|--- .... ....|--- .... ....|--- .... ....

[Pattern36]
 F-4|..|G#5 .A.F ....|G#4 .F.F ....|F-2 .A.F ....
....|..|--- .... ....|--- .... ....|--- .... ....
 C-5|..|--- .... ....|C#5 .F.7 ....|C-3 .A.F ....
....|..|--- .... ....|G#4 .F1A ....|--- .... ....
 F-5|..|G-5 .A.F ....|G-4 .F.F ....|F-3 .A.F ....
....|..|--- .... ....|--- .... ....|--- .... ....
 F-7|..|F-5 .A.F ....|F-4 .F.F ....|G-3 .A.F ....
....|..|--- .... ....|--- .... ....|--- .... ....
 G#5|..|--- .... ....|G#5 .F.7 ....|G#3 .A.F ....
....|..|--- .... ....|G#4 .F17 ....|--- .... ....
 C-6|..|G-5 .F.A ....|G-5 .F.7 ....|C-4 .A.F ....
....|..|--- .... ....|--- .... ....|--- .... ....
 C-5|..|G#5 .F.7 ....|G#4 .F.7 ....|C-3 .A.F ....
....|..|--- .... ....|--- .... ....|--- .... ....
 F-5|..|F-5 .A.F ....|F-4 .F.F ....|F-3 .A.F ....
....|..|--- .... ....|--- .... ....|--- .... ....
 F-4|..|G-5 .F.7 ....|G-4 .F.7 ....|F-2 .A.F ....
....|..|--- .... ....|--- .... ....|--- .... ....
 C-5|..|E-5 .A.F ....|E-4 .F.F ....|C-3 .A.F ....
....|..|--- .... ....|--- .... ....|--- .... ....
 F-5|..|F-5 .A.F ....|F-4 .F.F ....|F-3 .A.F ....
....|..|--- .... ....|--- .... ....|--- .... ....
 E-7|..|E-5 .A.F ....|E-4 .F.F ....|G-3 .A.F ....
....|..|--- .... ....|--- .... ....|--- .... ....
 C#7|..|C#5 .A.F ....|C#4 .F.F ....|G#3 .A.F ....
....|..|--- .... ....|--- .... ....|--- .... ....
 A#7|..|A#5 .A.F ....|A#4 .F.F ....|C-4 .A.F ....
....|..|--- .... ....|--- .... ....|--- .... ....
 C-5|..|G#5 .A.F ....|G#4 .F.F ....|C-3 .A.F ....
 A#7|..|A#5 .A.F ....|G#4 .F1F ....|--- .... ....
 F-5|..|G-5 .A.F ....|G-4 .F.F ....|F-3 .A.F ....
....|..|--- .... ....|--- .... ....|--- .... ....
 G#4|..|G#5 .A.F ....|G#4 .F.F ....|G#2 .A.F ....
....|..|--- .... ....|--- .... ....|--- .... ....
 C-5|..|E-5 .F.7 ....|E-4 .F.7 ....|C-3 .A.F ....
 A#7|..|A#5 .F.A ....|G#4 .F1A ....|--- .... ....
 D#5|..|G-5 .A.F ....|G-4 .F.F ....|D#3 .A.F ....
....|..|--- .... ....|--- .... ....|--- .... ....
 F-7|..|F-5 .A.F ....|F-4 .F.F ....|G#3 .A.F ....
....|..|--- .... ....|--- .... ....|--- .... ....
 C-5|..|G#5 .F.7 ....|G#4 .F.7 ....|C-3 .F.7 ....
 A#7|..|A#5 .F.7 ....|G#4 .F17 ....|--- .... ....
 F-5|..|G-5 .F.7 ....|G-4 .F.7 ....|F-3 .A.F ....
....|..|--- .... ....|--- .... ....|--- .... ....
 G#7|..|G#5 .F.7 ....|G#4 .F.7 ....|G-3 .A.F ....
....|..|--- .... ....|--- .... ....|--- .... ....
 C-5|..|E-5 .A.F ....|E-4 .F.F ....|C-3 .F.7 ....
....|..|--- .... ....|--- .... ....|--- .... ....
 A#4|..|F-5 .A.F ....|F-4 .F.F ....|A#2 .A.F ....
....|..|--- .... ....|--- .... ....|--- .... ....
 D#5|..|G-5 .A.F ....|G-4 .F.F ....|D#3 .A.F ....
....|..|--- .... ....|--- .... ....|--- .... ....
 F-5|..|G#5 .A.F ....|G#4 .F.F ....|F-3 .A.F ....
....|..|--- .... ....|--- .... ....|--- .... ....
 A#5|..|A#5 .A.F ....|A#4 .F.F ....|A#3 .A.F ....
....|..|--- .... ....|--- .... ....|--- .... ....
 G-5|..|G-5 .F.A ....|G-4 .F.A ....|G-3 .F.7 ....
....|..|--- .... ....|--- .... ....|--- .... ....
 A#7|..|A#5 .A.F ....|A#4 .F.F ....|G#3 .A.F ....
....|..|--- .... ....|--- .... ....|--- .... ....
 A#4|..|G#5 .A.F ....|G#4 .F.F ....|A#2 .F.7 ....
 A#7|..|A#5 .A.F ....|G#4 .F1F ....|--- .... ....
 G-5|..|G-5 .A.F ....|G-4 .F.F ....|G-3 .A.F ....
....|..|--- .... ....|--- .... ....|--- .... ....

[Pattern37]
 F-4|..|G#5 .A.F ....|G#4 .F.F ....|F-2 .A.F ....
....|..|--- .... ....|--- .... ....|--- .... ....
 A#7|..|A#5 .F.7 ....|A#4 .F.7 ....|C-3 .A.F ....
 A#7|..|A#5 .F.A ....|G#4 .F1A ....|--- .... ....
 F-5|..|G-5 .A.F ....|G-4 .F.F ....|F-3 .A.F ....
....|..|--- .... ....|--- .... ....|--- .... ....
 F-7|..|F-5 .A.F ....|F-4 .F.F ....|G-3 .A.F ....
....|..|--- .... ....|--- .... ....|--- .... ....
 G#5|..|G#5 .F.7 ....|G#4 .F.7 ....|G#3 .A.F ....
 A#7|..|A#5 .F.7 ....|G#4 .F17 ....|--- .... ....
 C-6|..|G-5 .F.7 ....|G-4 .F.7 ....|C-4 .A.F ....
....|..|--- .... ....|--- .... ....|--- .... ....
 C-5|..|E-5 .A.F ....|E-4 .F.F ....|C-3 .A.F ....
....|..|--- .... ....|--- .... ....|--- .... ....
 F-5|..|F-5 .A.F ....|F-4 .F.F ....|F-3 .A.F ....
....|..|--- .... ....|--- .... ....|--- .... ....
 F-4|..|G-5 .F.7 ....|G-4 .F.7 ....|F-2 .A.F ....
....|..|--- .... ....|--- .... ....|--- .... ....
 C-5|..|E-5 .A.F ....|E-4 .F.F ....|C-3 .A.F ....
....|..|--- .... ....|--- .... ....|--- .... ....
 F-5|..|F-5 .A.F ....|F-4 .F.F ....|F-3 .A.F ....
....|..|--- .... ....|--- .... ....|--- .... ....
 G-5|..|--- .... ....|--- .... ....|G-3 .A.F ....
....|..|--- .... ....|--- .... ....|--- .... ....
 E-7|..|E-5 .A.F ....|E-4 .F.F ....|G#3 .A.F ....
....|..|--- .... ....|--- .... ....|--- .... ....
 C-6|..|F-5 .A.F ....|F-4 .F.F ....|C-4 .A.F ....
....|..|--- .... ....|--- .... ....|--- .... ....
 C-5|..|G-5 .A.F ....|G-4 .F.F ....|C-3 .A.F ....
....|..|--- .... ....|--- .... ....|--- .... ....
 F-5|..|G#5 .A.F ....|G#4 .F.F ....|F-3 .A.F ....
....|..|--- .... ....|--- .... ....|--- .... ....
 A#5|..|A#5 .A.F ....|A#4 .F.F ....|A#3 .A.F ....
....|..|--- .... ....|--- .... ....|--- .... ....
 A#4|..|G-5 .F.A ....|G-4 .F.A ....|A#2 .A.F ....
....|..|--- .... ....|--- .... ....|--- .... ....
 F-5|..|F-5 .A.F ....|F-4 .F.F ....|F-3 .A.F ....
....|..|--- .... ....|--- .... ....|--- .... ....
 A#5|..|C-6 .A.F ....|C-5 .F.F ....|A#3 .A.F ....
....|..|--- .... ....|--- .... ....|--- .... ....
 A#4|..|G-5 .F.7 ....|G-4 .F.7 ....|A#2 .A.F ....
....|..|--- .... ....|--- .... ....|--- .... ....
 C#5|..|G-5 .A.F ....|G-4 .F.F ....|C#3 .A.F ....
....|..|--- .... ....|--- .... ....|--- .... ....
 C#8|..|C#6 .A.F ....|C#5 .F.F ....|F-3 .A.F ....
....|..|--- .... ....|--- .... ....|--- .... ....
 C#5|..|--- .... ....|--- .... ....|C#3 .A.F ....
....|..|--- .... ....|--- .... ....|--- .... ....
 C#4|..|G#5 .A.F ....|G#4 .F.F ....|C#2 .A.F ....
....|..|--- .... ....|--- .... ....|--- .... ....
 C#5|..|E-6 .A.F ....|E-5 .F.F ....|C#3 .A.F ....
....|..|--- .... ....|--- .... ....|--- .... ....
 E-5|..|--- .... ....|--- .... ....|E-3 .A.F ....
....|..|--- .... ....|--- .... ....|--- .... ....
 C#8|..|C#6 .A.F ....|C#5 .F.F ....|G-3 .A.F ....
....|..|--- .... ....|--- .... ....|--- .... ....
 E-4|..|F-6 .A.F ....|F-5 .F.F ....|E-2 .A.F ....
....|..|--- .... ....|--- .... ....|--- .... ....
 A#4|..|--- .... ....|--- .... ....|A#2 .A.F ....
....|..|--- .... ....|--- .... ....|--- .... ....
 E-5|..|G#5 .F.7 ....|G#4 .F.7 ....|E-3 .A.F ....
....|..|--- .... ....|--- .... ....|--- .... ....
 E-8|..|E-6 .F.7 ....|E-5 .F.7 ....|G-3 .A.F ....
....|..|--- .... ....|--- .... ....|--- .... ....

[Pattern38]
 E-5|..|R-- .... ....|R-- .... ....|E-3 .F.7 ....
....|..|--- .... ....|--- .... ....|--- .... ....
 C#8|..|C#6 .F.7 ....|C#5 .F.7 ....|G-3 .F.7 ....
....|..|--- .... ....|--- .... ....|--- .... ....
 E-4|..|F-6 .F.7 ....|F-5 .F.7 ....|E-2 .F.7 ....
....|..|--- .... ....|--- .... ....|--- .... ....
 A#4|..|R-- .... ....|R-- .... ....|A#2 .F.7 ....
....|..|--- .... ....|--- .... ....|--- .... ....
 E-5|..|--- .... ....|--- .... ....|E-3 .F.7 ....
....|..|--- .... ....|--- .... ....|--- .... ....
 G-5|..|--- .... ....|--- .... ....|G-3 .F.7 ....
....|..|--- .... ....|--- .... ....|--- .... ....
....|..|R-- .... ....|R-- .... ....|R-- .... ....
....|..|--- .... ....|--- .... ....|--- .... ....
....|..|--- .... ....|--- .... ....|--- .... ....
....|..|--- .... ....|--- .... ....|--- .... ....
....|..|--- .... ....|--- .... ....|--- .... ....
....|..|--- .... ....|--- .... ....|--- .... ....
....|..|--- .... ....|--- .... ....|--- .... ....
....|..|--- .... ....|--- .... ....|--- .... ....
....|..|--- .... ....|--- .... ....|--- .... ....
....|..|--- .... ....|--- .... ....|--- .... ....
....|..|--- .... ....|--- .... ....|--- .... ....
....|..|--- .... ....|--- .... ....|--- .... ....
....|..|--- .... ....|--- .... ....|--- .... ....
....|..|--- .... ....|--- .... ....|--- .... ....
....|..|--- .... ....|--- .... ....|--- .... ....
....|..|--- .... ....|--- .... ....|--- .... ....
....|..|--- .... ....|--- .... ....|--- .... ....
....|..|--- .... ....|--- .... ....|--- .... ....
....|..|--- .... ....|--- .... ....|--- .... ....
....|..|--- .... ....|--- .... ....|--- .... ....
 F-3|..|--- .... ....|--- .... ....|F-1 .A.F ....
....|..|--- .... ....|--- .... ....|--- .... ....
 F-4|..|--- .... ....|--- .... ....|F-2 .A.F ....
....|..|--- .... ....|--- .... ....|--- .... ....
 F-3|..|--- .... ....|--- .... ....|F-1 .A.F ....
....|..|--- .... ....|--- .... ....|--- .... ....
 F-4|..|--- .... ....|--- .... ....|F-2 .A.F ....
....|..|--- .... ....|--- .... ....|--- .... ....
 F-3|..|--- .... ....|--- .... ....|F-1 .A.F ....
....|..|--- .... ....|--- .... ....|--- .... ....
 F-4|..|--- .... ....|--- .... ....|F-2 .A.F ....
....|..|--- .... ....|--- .... ....|--- .... ....
 F-3|..|--- .... ....|--- .... ....|F-1 .A.F ....
....|..|--- .... ....|--- .... ....|--- .... ....
 F-4|..|--- .... ....|--- .... ....|F-2 .A.F ....
....|..|--- .... ....|--- .... ....|--- .... ....
 F-3|..|--- .... ....|--- .... ....|F-1 .A.F ....
....|..|--- .... ....|--- .... ....|--- .... ....
 F-4|..|--- .... ....|--- .... ....|F-2 .A.F ....
....|..|--- .... ....|--- .... ....|--- .... ....
 F-3|..|--- .... ....|--- .... ....|F-1 .A.F ....
....|..|--- .... ....|--- .... ....|--- .... ....
 F-4|..|--- .... ....|--- .... ....|F-2 .A.F ....
....|..|--- .... ....|--- .... ....|--- .... ....
 F-3|..|--- .... ....|--- .... ....|F-1 .A.F ....
....|..|--- .... ....|--- .... ....|--- .... ....
 F-4|..|--- .... ....|--- .... ....|F-2 .A.F ....
....|..|--- .... ....|--- .... ....|--- .... ....
 F-3|..|--- .... ....|--- .... ....|F-1 .A.F ....
....|..|--- .... ....|--- .... ....|--- .... ....
 F-4|..|--- .... ....|--- .... ....|F-2 .A.F ....
....|..|--- .... ....|--- .... ....|--- .... ....

[Pattern39]
 F-3|..|--- .... ....|--- .... ....|F-1 .A.F ....
....|..|--- .... ....|--- .... ....|--- .... ....
 F-4|..|--- .... ....|--- .... ....|F-2 .A.F ....
....|..|--- .... ....|--- .... ....|--- .... ....
 F-3|..|--- .... ....|--- .... ....|F-1 .A.F ....
....|..|--- .... ....|--- .... ....|--- .... ....
 F-4|..|--- .... ....|--- .... ....|F-2 .A.F ....
....|..|--- .... ....|--- .... ....|--- .... ....
 F-3|..|--- .... ....|--- .... ....|F-1 .A.F ....
....|..|--- .... ....|--- .... ....|--- .... ....
 F-4|..|--- .... ....|--- .... ....|F-2 .A.F ....
....|..|--- .... ....|--- .... ....|--- .... ....
 F-3|..|--- .... ....|--- .... ....|F-1 .A.F ....
....|..|--- .... ....|--- .... ....|--- .... ....
 F-4|..|--- .... ....|--- .... ....|F-2 .A.F ....
....|..|--- .... ....|--- .... ....|--- .... ....
 F-3|..|--- .... ....|--- .... ....|F-1 .A.F ....
....|..|--- .... ....|--- .... ....|--- .... ....
 F-4|..|--- .... ....|--- .... ....|F-2 .A.F ....
....|..|--- .... ....|--- .... ....|--- .... ....
 F-3|..|--- .... ....|--- .... ....|F-1 .A.F ....
....|..|--- .... ....|--- .... ....|--- .... ....
 F-4|..|--- .... ....|--- .... ....|F-2 .A.F ....
....|..|--- .... ....|--- .... ....|--- .... ....
 F-3|..|--- .... ....|--- .... ....|F-1 .A.F ....
....|..|--- .... ....|--- .... ....|R-- .... ....
 A#7|..|A#5 .A.F ....|A#4 .F.F ....|F-2 .F.7 ....
....|..|--- .... ....|--- .... ....|--- .... ....
 F-3|..|G#5 .A.F ....|G#4 .F.F ....|F-1 .F.7 ....
 A#7|..|A#5 .A.F ....|G#4 .F1F ....|--- .... ....
 F-4|..|G-5 .A.F ....|G-4 .F.F ....|F-2 .F.7 ....
....|..|--- .... ....|--- .... ....|R-- .... ....
 F-3|..|G#5 .A.F ....|G#4 .F.F ....|F-1 .F.7 ....
....|..|--- .... ....|--- .... ....|--- .... ....
 F-3|..|G#5 .F.A ....|G#4 .F.A ....|F-1 .A.F ....
 A#7|..|A#5 .F.A ....|G#4 .F1A ....|--- .... ....
 F-3|..|G-5 .A.F ....|G-4 .F.F ....|F-1 .F.7 ....
....|..|--- .... ....|--- .... ....|R-- .... ....
 F-3|..|F-5 .A.F ....|F-4 .F.F ....|F-1 .A.F ....
....|..|--- .... ....|--- .... ....|--- .... ....
 G#7|..|G#5 .F.7 ....|G#4 .F.7 ....|R-- .... ....
 A#7|..|A#5 .F.7 ....|G#4 .F17 ....|--- .... ....
 F-3|..|G-5 .F.7 ....|G-4 .F.7 ....|F-1 .A.F ....
....|..|--- .... ....|--- .... ....|--- .... ....
 G#7|..|G#5 .F.7 ....|G#4 .F.7 ....|R-- .... ....
....|..|--- .... ....|--- .... ....|--- .... ....
 F-3|..|F-5 .A.F ....|F-4 .F.F ....|F-1 .A.F ....
....|..|--- .... ....|--- .... ....|--- .... ....
 G-7|..|G-5 .F.7 ....|G-4 .F.7 ....|R-- .... ....
....|..|--- .... ....|--- .... ....|--- .... ....
 E-7|..|E-5 .A.F ....|E-4 .F.F ....|F-1 .A.F ....
....|..|--- .... ....|--- .... ....|--- .... ....
 F-7|..|F-5 .A.F ....|F-4 .F.F ....|R-- .... ....
....|..|--- .... ....|--- .... ....|--- .... ....
 E-7|..|E-5 .A.F ....|E-4 .F.F ....|F-1 .A.F ....
....|..|--- .... ....|--- .... ....|--- .... ....
 C#7|..|C#5 .A.F ....|C#4 .F.F ....|R-- .... ....
....|..|--- .... ....|--- .... ....|--- .... ....
 A#7|..|A#5 .A.F ....|A#4 .F.F ....|F-1 .A.F ....
....|..|--- .... ....|--- .... ....|--- .... ....
 G#7|..|G#5 .A.F ....|G#4 .F.F ....|R-- .... ....
 A#7|..|A#5 .A.F ....|G#4 .F1F ....|--- .... ....
 F-3|..|G-5 .A.F ....|G-4 .F.F ....|F-1 .A.F ....
....|..|--- .... ....|--- .... ....|--- .... ....

[Pattern40]
 G#7|..|G#5 .A.F ....|G#4 .F.F ....|R-- .... ....
....|..|--- .... ....|--- .... ....|--- .... ....
 E-7|..|E-5 .F.7 ....|E-4 .F.7 ....|G#1 .A.F ....
 A#7|..|A#5 .F.A ....|G#4 .F1A ....|--- .... ....
 G-7|..|G-5 .A.F ....|G-4 .F.F ....|R-- .... ....
....|..|--- .... ....|--- .... ....|--- .... ....
 F-7|..|F-5 .A.F ....|F-4 .F.F ....|G#1 .A.F ....
....|..|--- .... ....|--- .... ....|--- .... ....
 G#7|..|G#5 .F.7 ....|G#4 .F.7 ....|R-- .... ....
 A#7|..|A#5 .F.7 ....|G#4 .F17 ....|--- .... ....
 G#3|..|G-5 .F.7 ....|G-4 .F.7 ....|G#1 .A.F ....
....|..|--- .... ....|--- .... ....|--- .... ....
 G#7|..|G#5 .F.7 ....|G#4 .F.7 ....|R-- .... ....
....|..|--- .... ....|--- .... ....|--- .... ....
 E-7|..|E-5 .A.F ....|E-4 .F.F ....|G#1 .A.F ....
....|..|--- .... ....|--- .... ....|--- .... ....
 F-7|..|F-5 .A.F ....|F-4 .F.F ....|R-- .... ....
....|..|--- .... ....|--- .... ....|--- .... ....
 A#3|..|G-5 .A.F ....|G-4 .F.F ....|A#1 .A.F ....
....|..|--- .... ....|--- .... ....|--- .... ....
 G#7|..|G#5 .A.F ....|G#4 .F.F ....|R-- .... ....
....|..|--- .... ....|--- .... ....|--- .... ....
 A#3|..|A#5 .A.F ....|A#4 .F.F ....|A#1 .A.F ....
....|..|--- .... ....|--- .... ....|--- .... ....
 G-7|..|G-5 .F.A ....|G-4 .F.A ....|R-- .... ....
....|..|--- .... ....|--- .... ....|--- .... ....
 A#3|..|A#5 .A.F ....|A#4 .F.F ....|A#1 .A.F ....
....|..|--- .... ....|--- .... ....|--- .... ....
 G#7|..|G#5 .A.F ....|G#4 .F.F ....|R-- .... ....
 A#7|..|A#5 .A.F ....|G#4 .F1F ....|--- .... ....
 A#3|..|G-5 .A.F ....|G-4 .F.F ....|A#1 .A.F ....
....|..|--- .... ....|--- .... ....|--- .... ....
 G#7|..|G#5 .A.F ....|G#4 .F.F ....|R-- .... ....
....|..|--- .... ....|--- .... ....|--- .... ....
 A#7|..|A#5 .F.7 ....|A#4 .F.7 ....|F-1 .A.F ....
 A#7|..|A#5 .F.A ....|G#4 .F1A ....|--- .... ....
 G-7|..|G-5 .A.F ....|G-4 .F.F ....|R-- .... ....
....|..|--- .... ....|--- .... ....|--- .... ....
 F-3|..|F-5 .A.F ....|F-4 .F.F ....|F-1 .A.F ....
....|..|--- .... ....|--- .... ....|--- .... ....
 G#7|..|G#5 .F.7 ....|G#4 .F.7 ....|R-- .... ....
 A#7|..|A#5 .F.7 ....|G#4 .F17 ....|--- .... ....
 F-3|..|G-5 .F.7 ....|G-4 .F.7 ....|F-1 .A.F ....
....|..|--- .... ....|--- .... ....|--- .... ....
 E-7|..|E-5 .A.F ....|E-4 .F.F ....|R-- .... ....
....|..|--- .... ....|--- .... ....|--- .... ....
 F-3|..|F-5 .A.F ....|F-4 .F.F ....|F-1 .A.F ....
....|..|--- .... ....|--- .... ....|--- .... ....
 G-7|..|G-5 .F.7 ....|G-4 .F.7 ....|R-- .... ....
....|..|--- .... ....|--- .... ....|--- .... ....
 E-7|..|E-5 .A.F ....|E-4 .F.F ....|F-1 .A.F ....
....|..|--- .... ....|--- .... ....|--- .... ....
 F-7|..|F-5 .A.F ....|F-4 .F.F ....|R-- .... ....
....|..|--- .... ....|--- .... ....|--- .... ....
 F-3|..|--- .... ....|--- .... ....|F-1 .A.F ....
....|..|--- .... ....|--- .... ....|--- .... ....
 E-7|..|E-5 .A.F ....|E-4 .F.F ....|R-- .... ....
....|..|--- .... ....|--- .... ....|--- .... ....
 F-3|..|F-5 .A.F ....|F-4 .F.F ....|F-1 .A.F ....
....|..|--- .... ....|--- .... ....|--- .... ....
 G-7|..|G-5 .A.F ....|G-4 .F.F ....|R-- .... ....
....|..|--- .... ....|--- .... ....|--- .... ....
 F-3|..|G#5 .A.F ....|G#4 .F.F ....|F-1 .A.F ....
....|..|--- .... ....|--- .... ....|--- .... ....

[Pattern41]
 A#7|..|A#5 .A.F ....|A#4 .F.F ....|R-- .... ....
....|..|--- .... ....|--- .... ....|--- .... ....
 A#3|..|G-5 .F.A ....|G-4 .F.A ....|A#1 .A.F ....
....|..|--- .... ....|--- .... ....|--- .... ....
 F-7|..|F-5 .A.F ....|F-4 .F.F ....|R-- .... ....
....|..|--- .... ....|--- .... ....|--- .... ....
 A#3|..|C-6 .A.F ....|C-5 .F.F ....|A#1 .A.F ....
....|..|--- .... ....|--- .... ....|--- .... ....
 G-7|..|G-5 .F.7 ....|G-4 .F.7 ....|R-- .... ....
....|..|--- .... ....|--- .... ....|--- .... ....
 A#3|..|G-5 .A.F ....|G-4 .F.F ....|A#1 .A.F ....
....|..|--- .... ....|--- .... ....|--- .... ....
 C#8|..|C#6 .A.F ....|C#5 .F.F ....|R-- .... ....
....|..|--- .... ....|--- .... ....|--- .... ....
 A#3|..|--- .... ....|--- .... ....|A#1 .A.F ....
....|..|--- .... ....|--- .... ....|--- .... ....
 G#7|..|G#5 .A.F ....|G#4 .F.F ....|R-- .... ....
....|..|--- .... ....|--- .... ....|--- .... ....
 C#3|..|E-6 .A.F ....|E-5 .F.F ....|C#1 .A.F ....
....|..|--- .... ....|--- .... ....|--- .... ....
....|..|--- .... ....|--- .... ....|R-- .... ....
....|..|--- .... ....|--- .... ....|--- .... ....
 C#8|..|C#6 .A.F ....|C#5 .F.F ....|E-1 .A.F ....
....|..|--- .... ....|--- .... ....|--- .... ....
 F-8|..|F-6 .A.F ....|F-5 .F.F ....|R-- .... ....
....|..|--- .... ....|--- .... ....|--- .... ....
 A#7|..|A#5 .A.F ....|A#5 .F.F ....|G-1 .A.F ....
....|..|--- .... ....|--- .... ....|--- .... ....
 G#7|..|G#5 .A.F ....|G#5 .F.F ....|R-- .... ....
 A#7|..|A#5 .A.F ....|G#4 .F1F ....|--- .... ....
 A#3|..|G-5 .A.F ....|G-5 .F.F ....|A#1 .A.F ....
....|..|--- .... ....|--- .... ....|--- .... ....
 G#7|..|G#5 .A.F ....|G#4 .F.F ....|R-- .... ....
....|..|--- .... ....|--- .... ....|--- .... ....
 C#8|..|C#6 .F.7 ....|C#5 .F.7 ....|F-1 .A.F ....
 A#7|..|A#5 .F.A ....|G#4 .F1A ....|--- .... ....
 G-7|..|G-5 .A.F ....|G-4 .F.F ....|R-- .... ....
....|..|--- .... ....|--- .... ....|--- .... ....
 F-3|..|F-5 .A.F ....|F-4 .F.F ....|F-1 .A.F ....
....|..|--- .... ....|--- .... ....|--- .... ....
 G#7|..|G#5 .F.7 ....|G#5 .F.7 ....|R-- .... ....
 A#7|..|A#5 .F.7 ....|G#4 .F17 ....|--- .... ....
 F-3|..|G-5 .F.7 ....|G-5 .F.7 ....|F-1 .A.F ....
....|..|--- .... ....|--- .... ....|--- .... ....
 G#7|..|G#5 .F.7 ....|G#4 .F.7 ....|R-- .... ....
....|..|--- .... ....|--- .... ....|--- .... ....
 F-3|..|F-5 .A.F ....|F-4 .F.F ....|F-1 .A.F ....
....|..|--- .... ....|--- .... ....|--- .... ....
 G-7|..|G-5 .F.7 ....|G-4 .F.7 ....|R-- .... ....
....|..|--- .... ....|--- .... ....|--- .... ....
 E-7|..|E-5 .A.F ....|E-4 .F.F ....|F-1 .A.F ....
....|..|--- .... ....|--- .... ....|--- .... ....
 F-7|..|F-5 .A.F ....|F-4 .F.F ....|R-- .... ....
....|..|--- .... ....|--- .... ....|--- .... ....
 E-7|..|E-5 .A.F ....|E-4 .F.F ....|F-1 .A.F ....
....|..|--- .... ....|--- .... ....|--- .... ....
 C#7|..|C#5 .A.F ....|C#4 .F.F ....|R-- .... ....
....|..|--- .... ....|--- .... ....|--- .... ....
 A#7|..|A#5 .A.F ....|A#4 .F.F ....|F-1 .A.F ....
....|..|--- .... ....|--- .... ....|--- .... ....
 G#7|..|G#5 .A.F ....|G#4 .F.F ....|R-- .... ....
 A#7|..|A#5 .A.F ....|G#4 .F1F ....|--- .... ....
 F-3|..|G-5 .A.F ....|G-4 .F.F ....|F-1 .A.F ....
....|..|--- .... ....|--- .... ....|--- .... ....

[Pattern43]
 A#7|..|A#5 .A.F ....|A#4 .F.F ....|R-- .... ....
....|..|--- .... ....|--- .... ....|--- .... ....
 A#3|..|G-5 .F.A ....|G-4 .F.A ....|A#1 .A.F ....
....|..|--- .... ....|--- .... ....|--- .... ....
 F-7|..|F-5 .A.F ....|F-4 .F.F ....|R-- .... ....
....|..|--- .... ....|--- .... ....|--- .... ....
 A#3|..|C-6 .A.F ....|C-5 .F.F ....|A#1 .A.F ....
....|..|--- .... ....|--- .... ....|--- .... ....
 G-7|..|G-5 .F.7 ....|G-4 .F.7 ....|R-- .... ....
....|..|--- .... ....|--- .... ....|--- .... ....
 A#3|..|G-5 .A.F ....|G-4 .F.F ....|A#1 .A.F ....
....|..|--- .... ....|--- .... ....|--- .... ....
 C#8|..|C#6 .A.F ....|C#5 .F.F ....|R-- .... ....
....|..|--- .... ....|--- .... ....|--- .... ....
 A#3|..|--- .... ....|--- .... ....|A#1 .A.F ....
....|..|--- .... ....|--- .... ....|--- .... ....
 G#7|..|G#5 .A.F ....|G#4 .F.F ....|R-- .... ....
....|..|--- .... ....|--- .... ....|--- .... ....
 C#3|..|E-6 .A.F ....|E-5 .F.F ....|C#1 .A.F ....
....|..|--- .... ....|--- .... ....|--- .... ....
....|..|--- .... ....|--- .... ....|R-- .... ....
....|..|--- .... ....|--- .... ....|--- .... ....
 C#8|..|C#6 .A.F ....|C#5 .F.F ....|E-1 .A.F ....
....|..|--- .... ....|--- .... ....|--- .... ....
 F-8|..|F-6 .A.F ....|F-5 .F.F ....|R-- .... ....
....|..|--- .... ....|--- .... ....|--- .... ....
 G-3|..|--- .... ....|A#4 .F.F ....|G-1 .A.F ....
....|..|--- .... ....|--- .... ....|--- .... ....
 G#7|..|G#5 .F.7 ....|G#4 .F.F ....|R-- .... ....
....|..|--- .... ....|G#4 .F1F ....|--- .... ....
 A#3|..|E-6 .F.7 ....|G-4 .F.F ....|A#1 .A.F ....
....|..|--- .... ....|--- .... ....|--- .... ....
 G#7|..|G#5 .A.F ....|G#4 .F.F ....|R-- .... ....
....|..|--- .... ....|--- .... ....|--- .... ....
 C#8|..|C#6 .F.7 ....|C#5 .F.7 ....|F-1 .A.F ....
....|..|--- .... ....|G#4 .F1A ....|--- .... ....
 G-7|..|G-5 .A.F ....|G-4 .F.F ....|R-- .... ....
....|..|--- .... ....|--- .... ....|--- .... ....
 F-3|..|F-5 .A.F ....|F-4 .F.F ....|F-1 .A.F ....
....|..|--- .... ....|--- .... ....|--- .... ....
....|..|--- .... ....|G#4 .F.7 ....|R-- .... ....
....|..|--- .... ....|G#4 .F17 ....|--- .... ....
 F-3|..|G-5 .F.A ....|G-4 .F.7 ....|F-1 .A.F ....
....|..|--- .... ....|--- .... ....|--- .... ....
 G#7|..|G#5 .F.7 ....|G#4 .F.7 ....|R-- .... ....
....|..|--- .... ....|--- .... ....|--- .... ....
 F-3|..|F-5 .A.F ....|F-4 .F.F ....|F-1 .A.F ....
....|..|--- .... ....|--- .... ....|--- .... ....
 G-7|..|G-5 .F.7 ....|G-4 .F.7 ....|R-- .... ....
....|..|--- .... ....|--- .... ....|--- .... ....
 E-7|..|E-5 .A.F ....|E-4 .F.F ....|F-1 .A.F ....
....|..|--- .... ....|--- .... ....|--- .... ....
 F-7|..|F-5 .A.F ....|F-4 .F.F ....|R-- .... ....
....|..|--- .... ....|--- .... ....|--- .... ....
 E-7|..|E-5 .A.F ....|E-4 .F.F ....|F-1 .A.F ....
....|..|--- .... ....|--- .... ....|--- .... ....
 C#7|..|C#5 .A.F ....|C#4 .F.F ....|R-- .... ....
....|..|--- .... ....|--- .... ....|--- .... ....
 A#7|..|A#5 .A.F ....|A#4 .F.F ....|F-1 .A.F ....
....|..|--- .... ....|--- .... ....|--- .... ....
 G#7|..|G#5 .A.F ....|G#4 .F.F ....|R-- .... ....
 A#7|..|A#5 .A.F ....|G#4 .F1F ....|--- .... ....
 F-3|..|G-5 .A.F ....|G-4 .F.F ....|F-1 .A.F ....
....|..|--- .... ....|--- .... ....|--- .... ....

[Pattern45]
 A#7|..|A#5 .A.F ....|A#4 .F.F ....|R-- .... ....
....|..|--- .... ....|--- .... ....|--- .... ....
 A#3|..|G-5 .F.A ....|G-4 .F.A ....|A#1 .A.F ....
....|..|--- .... ....|--- .... ....|--- .... ....
 F-7|..|F-5 .A.F ....|F-4 .F.F ....|R-- .... ....
....|..|--- .... ....|--- .... ....|--- .... ....
 A#3|..|C-6 .A.F ....|C-5 .F.F ....|A#1 .A.F ....
....|..|--- .... ....|--- .... ....|--- .... ....
 G-7|..|G-5 .F.7 ....|G-4 .F.7 ....|R-- .... ....
....|..|--- .... ....|--- .... ....|--- .... ....
 A#3|..|G-5 .A.F ....|G-4 .F.F ....|A#1 .A.F ....
....|..|--- .... ....|--- .... ....|--- .... ....
 C#8|..|C#6 .A.F ....|C#5 .F.F ....|R-- .... ....
....|..|--- .... ....|--- .... ....|--- .... ....
 A#3|..|--- .... ....|--- .... ....|A#1 .A.F ....
....|..|--- .... ....|--- .... ....|--- .... ....
 G#7|..|G#5 .A.F ....|G#4 .F.F ....|R-- .... ....
....|..|--- .... ....|--- .... ....|--- .... ....
 C#3|..|E-6 .A.F ....|E-5 .F.F ....|C#1 .A.F ....
....|..|--- .... ....|--- .... ....|--- .... ....
....|..|--- .... ....|--- .... ....|R-- .... ....
....|..|--- .... ....|--- .... ....|--- .... ....
 C#8|..|C#6 .A.F ....|C#5 .F.F ....|E-1 .A.F ....
....|..|--- .... ....|--- .... ....|--- .... ....
 F-8|..|F-6 .A.F ....|F-5 .F.F ....|R-- .... ....
....|..|--- .... ....|--- .... ....|--- .... ....
 G-3|..|--- .... ....|A#4 .F.F ....|G-1 .A.F ....
....|..|--- .... ....|--- .... ....|--- .... ....
 G#7|..|G#5 .F.7 ....|G#4 .F.F ....|R-- .... ....
....|..|--- .... ....|G#4 .F1F ....|--- .... ....
 A#3|..|E-6 .F.7 ....|G-4 .F.F ....|A#1 .A.F ....
....|..|--- .... ....|--- .... ....|--- .... ....
....|..|R-- .... ....|G#4 .F.F ....|R-- .... ....
....|..|--- .... ....|--- .... ....|--- .... ....
 C#8|..|C#6 .F.7 ....|C#5 .F.7 ....|F-1 .A.F ....
....|..|--- .... ....|G#4 .F1A ....|--- .... ....
 F-8|..|F-6 .F.7 ....|G-4 .F.F ....|R-- .... ....
....|..|--- .... ....|--- .... ....|--- .... ....
 F-3|..|R-- .... ....|C-4 .F.F ....|F-1 .A.F ....
....|..|--- .... ....|--- .... ....|--- .... ....
....|..|--- .... ....|G#4 .F.7 ....|R-- .... ....
....|..|--- .... ....|G#4 .F17 ....|--- .... ....
 F-3|..|--- .... ....|G-4 .F.7 ....|F-1 .A.F ....
....|..|--- .... ....|--- .... ....|--- .... ....
....|..|R-- .... ....|E-4 .F.F ....|R-- .... ....
....|..|--- .... ....|--- .... ....|--- .... ....
 F-3|..|--- .... ....|F-4 .F.F ....|F-1 .A.F ....
....|..|--- .... ....|--- .... ....|--- .... ....
....|..|--- .... ....|G-4 .F.7 ....|R-- .... ....
....|..|--- .... ....|--- .... ....|--- .... ....
 F-3|..|--- .... ....|E-4 .F.F ....|F-1 .A.F ....
....|..|--- .... ....|--- .... ....|--- .... ....
....|..|--- .... ....|F-4 .F.F ....|R-- .... ....
....|..|--- .... ....|--- .... ....|--- .... ....
 F-3|..|--- .... ....|E-4 .F.F ....|F-1 .A.F ....
....|..|--- .... ....|--- .... ....|--- .... ....
....|..|--- .... ....|C#4 .F.F ....|R-- .... ....
....|..|--- .... ....|--- .... ....|--- .... ....
 F-3|..|--- .... ....|A#4 .F.F ....|F-1 .A.F ....
....|..|--- .... ....|--- .... ....|--- .... ....
....|..|--- .... ....|G#4 .F.F ....|R-- .... ....
....|..|--- .... ....|G#4 .F1F ....|--- .... ....
 F-3|..|--- .... ....|G-4 .F.F ....|F-1 .A.F ....
....|..|--- .... ....|--- .... ....|--- .... ....

[Pattern46]
....|..|--- .... ....|G#4 .F.F ....|R-- .... ....
....|..|--- .... ....|--- .... ....|--- .... ....
 G#3|..|--- .... ....|E-4 .F.7 ....|G#1 .A.F ....
....|..|--- .... ....|G#4 .F1A ....|--- .... ....
....|..|--- .... ....|G-4 .F.F ....|R-- .... ....
....|..|--- .... ....|--- .... ....|--- .... ....
 G#3|..|--- .... ....|G#3 .F.F ....|G#1 .A.F ....
....|..|--- .... ....|--- .... ....|--- .... ....
....|..|--- .... ....|G#4 .F.7 ....|R-- .... ....
....|..|--- .... ....|G#4 .F17 ....|--- .... ....
 G#3|..|--- .... ....|G-4 .F.7 ....|G#1 .A.F ....
....|..|--- .... ....|--- .... ....|--- .... ....
....|..|--- .... ....|G#4 .F.7 ....|R-- .... ....
....|..|--- .... ....|--- .... ....|--- .... ....
 G#3|..|--- .... ....|C-4 .F.F ....|G#1 .A.F ....
....|..|--- .... ....|--- .... ....|--- .... ....
....|..|--- .... ....|C#4 .F.F ....|R-- .... ....
....|..|--- .... ....|--- .... ....|--- .... ....
 A#3|..|--- .... ....|C-4 .F.F ....|A#1 .A.F ....
....|..|--- .... ....|--- .... ....|--- .... ....
....|..|--- .... ....|C#4 .F.F ....|R-- .... ....
....|..|--- .... ....|--- .... ....|--- .... ....
 A#3|..|--- .... ....|A#4 .F.F ....|A#1 .A.F ....
....|..|--- .... ....|--- .... ....|--- .... ....
....|..|--- .... ....|C-4 .F.A ....|R-- .... ....
....|..|--- .... ....|--- .... ....|--- .... ....
 A#3|..|--- .... ....|A#4 .F.F ....|A#1 .A.F ....
....|..|--- .... ....|--- .... ....|--- .... ....
....|..|--- .... ....|G#4 .F.F ....|R-- .... ....
....|..|--- .... ....|G#4 .F1F ....|--- .... ....
 A#3|..|--- .... ....|G-4 .F.F ....|A#1 .A.F ....
....|..|--- .... ....|--- .... ....|--- .... ....
....|..|--- .... ....|G#4 .F.F ....|R-- .... ....
....|..|--- .... ....|--- .... ....|--- .... ....
 F-3|..|--- .... ....|A#4 .F.7 ....|F-1 .A.F ....
....|..|--- .... ....|G#4 .F1A ....|--- .... ....
....|..|--- .... ....|G-4 .F.F ....|R-- .... ....
....|..|--- .... ....|--- .... ....|--- .... ....
 F-3|..|--- .... ....|F-4 .F.F ....|F-1 .A.F ....
....|..|--- .... ....|--- .... ....|--- .... ....
....|..|--- .... ....|G#4 .F.7 ....|R-- .... ....
....|..|--- .... ....|G#4 .F17 ....|--- .... ....
 F-3|..|--- .... ....|C-4 .F.F ....|F-1 .A.F ....
....|..|--- .... ....|--- .... ....|--- .... ....
....|..|--- .... ....|C-5 .F.F ....|R-- .... ....
....|..|--- .... ....|--- .... ....|--- .... ....
 F-3|..|--- .... ....|G#4 .F.F ....|F-1 .A.F ....
....|..|--- .... ....|--- .... ....|--- .... ....
....|..|--- .... ....|G-4 .F.7 ....|R-- .... ....
....|..|--- .... ....|A#4 .F.F ....|--- .... ....
 F-3|..|--- .... ....|G#4 .F.F ....|F-1 .A.F ....
....|..|--- .... ....|G-4 .F.F ....|--- .... ....
....|..|--- .... ....|G#4 .F.F ....|R-- .... ....
....|..|--- .... ....|G-4 .F.F ....|--- .... ....
 F-3|..|--- .... ....|C#4 .F.F ....|F-1 .A.F ....
....|..|--- .... ....|A#4 .F.A ....|--- .... ....
....|..|--- .... ....|C-4 .F.F ....|R-- .... ....
....|..|--- .... ....|G-4 .F.A ....|--- .... ....
 F-3|..|--- .... ....|F-4 .F.F ....|F-1 .A.F ....
....|..|--- .... ....|G-4 .F.A ....|--- .... ....
....|..|--- .... ....|G-4 .F.F ....|R-- .... ....
....|..|--- .... ....|A#4 .F.7 ....|--- .... ....
 F-3|..|--- .... ....|G#4 .F.F ....|F-1 .A.F ....
....|..|--- .... ....|G-4 .F.7 ....|--- .... ....

[Pattern47]
....|..|--- .... ....|A#4 .F.F ....|R-- .... ....
....|..|--- .... ....|G-4 .F.7 ....|--- .... ....
 A#3|..|--- .... ....|C#4 .F.7 ....|A#1 .A.F ....
....|..|--- .... ....|--- .... ....|--- .... ....
....|..|--- .... ....|F-4 .F.F ....|R-- .... ....
....|..|--- .... ....|--- .... ....|--- .... ....
 A#3|..|--- .... ....|C-5 .F.F ....|A#1 .A.F ....
....|..|--- .... ....|--- .... ....|--- .... ....
....|..|--- .... ....|G-4 .F.7 ....|R-- .... ....
....|..|--- .... ....|--- .... ....|--- .... ....
 A#3|..|--- .... ....|G-4 .F.F ....|A#1 .A.F ....
....|..|--- .... ....|--- .... ....|--- .... ....
....|..|--- .... ....|C#5 .F.F ....|R-- .... ....
....|..|--- .... ....|--- .... ....|--- .... ....
 A#3|..|--- .... ....|--- .... ....|A#1 .A.F ....
....|..|--- .... ....|--- .... ....|--- .... ....
....|..|--- .... ....|G#4 .F.F ....|R-- .... ....
....|..|--- .... ....|--- .... ....|--- .... ....
 C#3|..|--- .... ....|E-5 .F.F ....|C#1 .A.F ....
....|..|--- .... ....|--- .... ....|--- .... ....
....|..|--- .... ....|--- .... ....|R-- .... ....
....|..|--- .... ....|--- .... ....|--- .... ....
 E-3|..|--- .... ....|C#5 .F.F ....|E-1 .A.F ....
....|..|--- .... ....|--- .... ....|--- .... ....
....|..|--- .... ....|F-5 .F.F ....|R-- .... ....
....|..|--- .... ....|--- .... ....|--- .... ....
 G-3|..|--- .... ....|--- .... ....|G-1 .A.F ....
....|..|--- .... ....|--- .... ....|--- .... ....
....|..|--- .... ....|G#4 .F.7 ....|R-- .... ....
....|..|--- .... ....|--- .... ....|--- .... ....
 A#3|..|--- .... ....|E-5 .F.7 ....|A#1 .A.F ....
....|..|--- .... ....|--- .... ....|--- .... ....
....|..|--- .... ....|R-- .... ....|R-- .... ....
....|..|--- .... ....|--- .... ....|--- .... ....
 F-3|..|--- .... ....|C#5 .F.7 ....|F-1 .A.F ....
....|..|--- .... ....|--- .... ....|--- .... ....
....|..|--- .... ....|F-5 .F.7 ....|R-- .... ....
....|..|--- .... ....|--- .... ....|--- .... ....
 F-3|..|--- .... ....|R-- .... ....|F-1 .A.F ....
....|..|--- .... ....|--- .... ....|--- .... ....
....|..|--- .... ....|--- .... ....|R-- .... ....
....|..|--- .... ....|--- .... ....|--- .... ....
 F-3|..|--- .... ....|--- .... ....|F-1 .A.F ....
....|..|--- .... ....|--- .... ....|--- .... ....
....|..|--- .... ....|R-- .... ....|R-- .... ....
....|..|--- .... ....|--- .... ....|--- .... ....
 F-3|..|--- .... ....|--- .... ....|F-1 .A.F ....
....|..|--- .... ....|--- .... ....|--- .... ....
....|..|--- .... ....|--- .... ....|R-- .... ....
....|..|--- .... ....|--- .... ....|--- .... ....
 F-3|..|--- .... ....|--- .... ....|F-1 .A.F ....
....|..|--- .... ....|--- .... ....|--- .... ....
....|..|--- .... ....|--- .... ....|R-- .... ....
....|..|--- .... ....|--- .... ....|--- .... ....
 F-3|..|--- .... ....|--- .... ....|F-1 .A.F ....
....|..|--- .... ....|--- .... ....|--- .... ....
....|..|--- .... ....|--- .... ....|R-- .... ....
....|..|--- .... ....|--- .... ....|--- .... ....
 F-3|..|--- .... ....|--- .... ....|F-1 .A.F ....
....|..|--- .... ....|--- .... ....|--- .... ....
....|..|--- .... ....|--- .... ....|R-- .... ....
....|..|--- .... ....|--- .... ....|--- .... ....
 F-3|..|--- .... ....|--- .... ....|F-1 .A.F ....
....|..|--- .... ....|--- .... ....|--- .... ....

[Pattern49]
....|..|--- .... ....|--- .... ....|R-- .... ....
....|..|--- .... ....|--- .... ....|--- .... ....
 F-3|..|--- .... ....|--- .... ....|F-1 .A.F ....
....|..|--- .... ....|--- .... ....|--- .... ....
....|..|--- .... ....|--- .... ....|R-- .... ....
....|..|--- .... ....|--- .... ....|--- .... ....
 F-3|..|--- .... ....|--- .... ....|F-1 .A.F ....
....|..|--- .... ....|--- .... ....|--- .... ....
....|..|--- .... ....|--- .... ....|R-- .... ....
....|..|--- .... ....|--- .... ....|--- .... ....
 F-3|..|--- .... ....|--- .... ....|F-1 .A.F ....
....|..|--- .... ....|--- .... ....|--- .... ....
....|..|--- .... ....|--- .... ....|R-- .... ....
....|..|--- .... ....|--- .... ....|--- .... ....
 F-3|..|--- .... ....|--- .... ....|F-1 .A.F ....
....|..|--- .... ....|--- .... ....|--- .... ....
....|..|--- .... ....|--- .... ....|R-- .... ....
....|..|--- .... ....|--- .... ....|--- .... ....
 F-3|..|--- .... ....|--- .... ....|F-1 .F.7 ....
....|..|--- .... ....|--- .... ....|--- .... ....
....|..|--- .... ....|--- .... ....|R-- .... ....
....|..|--- .... ....|--- .... ....|--- .... ....
 F-3|..|--- .... ....|--- .... ....|F-1 .F.7 ....
....|..|--- .... ....|--- .... ....|--- .... ....
....|..|--- .... ....|--- .... ....|R-- .... ....
....|..|--- .... ....|--- .... ....|--- .... ....
 F-3|..|--- .... ....|--- .... ....|F-1 .F.7 ....
....|..|--- .... ....|--- .... ....|--- .... ....
....|..|--- .... ....|--- .... ....|R-- .... ....
....|..|--- .... ....|--- .... ....|--- .... ....
....|..|--- .... ....|--- .... ....|--- .... ....
....|..|--- .... ....|--- .... ....|--- .... ....
....|..|--- .... ....|--- .... ....|--- .... ....
....|..|--- .... ....|--- .... ....|--- .... ....
 F-3|..|--- .... ....|--- .... ....|F-1 .A.F ....
....|..|--- .... ....|--- .... ....|--- .... ....
....|..|--- .... ....|--- .... ....|R-- .... ....
....|..|--- .... ....|--- .... ....|--- .... ....
 F-3|..|--- .... ....|--- .... ....|F-1 .A.F ....
....|..|--- .... ....|--- .... ....|--- .... ....
....|..|--- .... ....|--- .... ....|R-- .... ....
....|..|--- .... ....|--- .... ....|--- .... ....
 F-3|..|--- .... ....|--- .... ....|F-1 .A.F ....
....|..|--- .... ....|--- .... ....|--- .... ....
....|..|--- .... ....|--- .... ....|R-- .... ....
....|..|--- .... ....|--- .... ....|--- .... ....
 F-3|..|--- .... ....|--- .... ....|F-1 .A.F ....
....|..|--- .... ....|--- .... ....|--- .... ....
....|..|--- .... ....|--- .... ....|R-- .... ....
....|..|--- .... ....|--- .... ....|--- .... ....
 F-3|..|--- .... ....|--- .... ....|F-1 .A.F ....
....|..|--- .... ....|--- .... ....|--- .... ....
....|..|--- .... ....|--- .... ....|R-- .... ....
....|..|--- .... ....|--- .... ....|--- .... ....
 F-3|..|--- .... ....|--- .... ....|F-1 .A.F ....
....|..|--- .... ....|--- .... ....|--- .... ....
....|..|--- .... ....|--- .... ....|R-- .... ....
....|..|--- .... ....|--- .... ....|--- .... ....
 G#3|..|--- .... ....|--- .... ....|G#1 .A.F ....
....|..|--- .... ....|--- .... ....|--- .... ....
....|..|--- .... ....|--- .... ....|R-- .... ....
....|..|--- .... ....|--- .... ....|--- .... ....
 F-3|..|--- .... ....|--- .... ....|F-1 .A.F ....
....|..|--- .... ....|--- .... ....|--- .... ....

[Pattern50]
....|..|--- .... ....|--- .... ....|R-- .... ....
....|..|--- .... ....|--- .... ....|--- .... ....
 F-3|..|--- .... ....|--- .... ....|F-1 .A.F ....
....|..|--- .... ....|--- .... ....|--- .... ....
....|..|--- .... ....|--- .... ....|R-- .... ....
....|..|--- .... ....|--- .... ....|--- .... ....
 F-3|..|--- .... ....|--- .... ....|F-1 .A.F ....
....|..|--- .... ....|--- .... ....|--- .... ....
....|..|--- .... ....|--- .... ....|R-- .... ....
....|..|--- .... ....|--- .... ....|--- .... ....
 F-3|..|--- .... ....|--- .... ....|F-1 .A.F ....
....|..|--- .... ....|--- .... ....|--- .... ....
....|..|--- .... ....|--- .... ....|R-- .... ....
....|..|--- .... ....|--- .... ....|--- .... ....
 F-3|..|--- .... ....|--- .... ....|F-1 .A.F ....
....|..|--- .... ....|--- .... ....|--- .... ....
....|..|--- .... ....|--- .... ....|R-- .... ....
....|..|--- .... ....|--- .... ....|--- .... ....
 F-3|..|--- .... ....|--- .... ....|F-1 .A.F ....
....|..|--- .... ....|--- .... ....|--- .... ....
....|..|--- .... ....|--- .... ....|R-- .... ....
....|..|--- .... ....|--- .... ....|--- .... ....
 F-3|..|--- .... ....|--- .... ....|F-1 .A.F ....
....|..|--- .... ....|--- .... ....|--- .... ....
....|..|--- .... ....|--- .... ....|R-- .... ....
....|..|--- .... ....|--- .... ....|--- .... ....
 D#3|..|--- .... ....|--- .... ....|D#1 .A.F ....
....|..|--- .... ....|--- .... ....|--- .... ....
....|..|--- .... ....|--- .... ....|R-- .... ....
....|..|--- .... ....|--- .... ....|--- .... ....
 A#3|..|--- .... ....|--- .... ....|A#1 .A.F ....
....|..|--- .... ....|--- .... ....|--- .... ....
....|..|--- .... ....|--- .... ....|R-- .... ....
....|..|--- .... ....|--- .... ....|--- .... ....
 F-3|..|--- .... ....|--- .... ....|F-1 .A.F ....
....|..|--- .... ....|--- .... ....|--- .... ....
....|..|--- .... ....|--- .... ....|R-- .... ....
....|..|--- .... ....|--- .... ....|--- .... ....
 F-3|..|--- .... ....|--- .... ....|F-1 .A.F ....
....|..|--- .... ....|--- .... ....|--- .... ....
....|..|--- .... ....|--- .... ....|R-- .... ....
....|..|--- .... ....|--- .... ....|--- .... ....
 F-3|..|--- .... ....|--- .... ....|F-1 .A.F ....
....|..|--- .... ....|--- .... ....|--- .... ....
....|..|--- .... ....|--- .... ....|R-- .... ....
....|..|--- .... ....|--- .... ....|--- .... ....
 F-3|..|--- .... ....|--- .... ....|F-1 .A.F ....
....|..|--- .... ....|--- .... ....|--- .... ....
....|..|--- .... ....|--- .... ....|R-- .... ....
....|..|--- .... ....|--- .... ....|--- .... ....
 F-3|..|--- .... ....|--- .... ....|F-1 .A.F ....
....|..|--- .... ....|--- .... ....|--- .... ....
....|..|--- .... ....|--- .... ....|R-- .... ....
....|..|--- .... ....|--- .... ....|--- .... ....
 F-3|..|--- .... ....|--- .... ....|F-1 .A.F ....
....|..|--- .... ....|--- .... ....|--- .... ....
....|..|--- .... ....|--- .... ....|R-- .... ....
....|..|--- .... ....|--- .... ....|--- .... ....
 G#3|..|--- .... ....|--- .... ....|G#1 .A.F ....
....|..|--- .... ....|--- .... ....|--- .... ....
....|..|--- .... ....|--- .... ....|R-- .... ....
....|..|--- .... ....|--- .... ....|--- .... ....
 F-3|..|--- .... ....|--- .... ....|F-1 .A.F ....
....|..|--- .... ....|--- .... ....|--- .... ....

[Pattern51]
....|..|--- .... ....|--- .... ....|R-- .... ....
....|..|--- .... ....|--- .... ....|--- .... ....
 F-3|..|--- .... ....|--- .... ....|F-1 .A.F ....
....|..|--- .... ....|--- .... ....|--- .... ....
....|..|--- .... ....|--- .... ....|R-- .... ....
....|..|--- .... ....|--- .... ....|--- .... ....
 F-3|..|--- .... ....|--- .... ....|F-1 .A.F ....
....|..|--- .... ....|--- .... ....|--- .... ....
....|..|--- .... ....|--- .... ....|R-- .... ....
....|..|--- .... ....|--- .... ....|--- .... ....
 F-3|..|--- .... ....|--- .... ....|F-1 .A.F ....
....|..|--- .... ....|--- .... ....|--- .... ....
....|..|--- .... ....|--- .... ....|R-- .... ....
....|..|--- .... ....|--- .... ....|--- .... ....
 F-3|..|--- .... ....|--- .... ....|F-1 .A.F ....
....|..|--- .... ....|--- .... ....|--- .... ....
....|..|--- .... ....|--- .... ....|R-- .... ....
....|..|--- .... ....|--- .... ....|--- .... ....
 F-3|..|--- .... ....|--- .... ....|F-1 .A.F ....
....|..|--- .... ....|--- .... ....|--- .... ....
....|..|--- .... ....|--- .... ....|R-- .... ....
....|..|--- .... ....|--- .... ....|--- .... ....
 F-3|..|--- .... ....|--- .... ....|F-1 .A.F ....
....|..|--- .... ....|--- .... ....|--- .... ....
....|..|--- .... ....|--- .... ....|R-- .... ....
....|..|--- .... ....|--- .... ....|--- .... ....
 G#3|..|--- .... ....|--- .... ....|G#1 .A.F ....
....|..|--- .... ....|--- .... ....|--- .... ....
 A#3|..|--- .... ....|--- .... ....|A#1 .A.F ....
....|..|--- .... ....|--- .... ....|--- .... ....
 B-3|..|--- .... ....|--- .... ....|B-1 .A.F ....
....|..|--- .... ....|--- .... ....|--- .... ....
....|..|--- .... ....|--- .... ....|R-- .... ....
....|..|--- .... ....|--- .... ....|--- .... ....
 F-3|..|--- .... ....|--- .... ....|F-1 .A.F ....
....|..|--- .... ....|--- .... ....|--- .... ....
....|..|--- .... ....|--- .... ....|R-- .... ....
....|..|--- .... ....|--- .... ....|--- .... ....
 F-3|..|--- .... ....|--- .... ....|F-1 .A.F ....
....|..|--- .... ....|--- .... ....|--- .... ....
 A#3|..|--- .... ....|--- .... ....|A#1 .F.7 ....
....|..|--- .... ....|--- .... ....|--- .... ....
 F-3|..|--- .... ....|--- .... ....|F-1 .A.F ....
....|..|--- .... ....|--- .... ....|--- .... ....
....|..|--- .... ....|--- .... ....|R-- .... ....
....|..|--- .... ....|--- .... ....|--- .... ....
 F-3|..|--- .... ....|--- .... ....|F-1 .A.F ....
....|..|--- .... ....|--- .... ....|--- .... ....
....|..|--- .... ....|--- .... ....|R-- .... ....
....|..|--- .... ....|--- .... ....|--- .... ....
 F-3|..|--- .... ....|--- .... ....|F-1 .A.F ....
....|..|--- .... ....|--- .... ....|--- .... ....
....|..|--- .... ....|--- .... ....|R-- .... ....
....|..|--- .... ....|--- .... ....|--- .... ....
 F-3|..|--- .... ....|--- .... ....|F-1 .A.F ....
....|..|--- .... ....|--- .... ....|--- .... ....
....|..|--- .... ....|--- .... ....|R-- .... ....
....|..|--- .... ....|--- .... ....|--- .... ....
 G#3|..|--- .... ....|--- .... ....|G#1 .A.F ....
....|..|--- .... ....|--- .... ....|--- .... ....
....|..|--- .... ....|--- .... ....|R-- .... ....
....|..|--- .... ....|--- .... ....|--- .... ....
 F-3|..|--- .... ....|--- .... ....|F-1 .A.F ....
....|..|--- .... ....|--- .... ....|--- .... ....

[Pattern52]
....|..|--- .... ....|--- .... ....|R-- .... ....
....|..|--- .... ....|--- .... ....|--- .... ....
 F-3|..|--- .... ....|--- .... ....|F-1 .A.F ....
....|..|--- .... ....|--- .... ....|--- .... ....
....|..|--- .... ....|--- .... ....|R-- .... ....
....|..|--- .... ....|--- .... ....|--- .... ....
 F-3|..|--- .... ....|--- .... ....|F-1 .A.F ....
....|..|--- .... ....|--- .... ....|--- .... ....
....|..|--- .... ....|--- .... ....|R-- .... ....
....|..|--- .... ....|--- .... ....|--- .... ....
 F-3|..|--- .... ....|--- .... ....|F-1 .A.F ....
....|..|--- .... ....|--- .... ....|--- .... ....
....|..|--- .... ....|--- .... ....|R-- .... ....
....|..|--- .... ....|--- .... ....|--- .... ....
 F-3|..|--- .... ....|--- .... ....|F-1 .A.F ....
....|..|--- .... ....|--- .... ....|--- .... ....
....|..|--- .... ....|--- .... ....|R-- .... ....
....|..|--- .... ....|--- .... ....|--- .... ....
 F-3|..|--- .... ....|--- .... ....|F-1 .A.F ....
....|..|--- .... ....|--- .... ....|--- .... ....
....|..|--- .... ....|--- .... ....|R-- .... ....
....|..|--- .... ....|--- .... ....|--- .... ....
 F-3|..|--- .... ....|--- .... ....|F-1 .A.F ....
....|..|--- .... ....|--- .... ....|--- .... ....
....|..|--- .... ....|--- .... ....|R-- .... ....
....|..|--- .... ....|--- .... ....|--- .... ....
 D#3|..|--- .... ....|--- .... ....|D#1 .A.F ....
....|..|--- .... ....|--- .... ....|--- .... ....
....|..|--- .... ....|--- .... ....|R-- .... ....
....|..|--- .... ....|--- .... ....|--- .... ....
 F-4|..|--- .... ....|--- .... ....|F-2 .A.F ....
....|..|--- .... ....|--- .... ....|--- .... ....
....|..|--- .... ....|--- .... ....|R-- .... ....
....|..|--- .... ....|--- .... ....|--- .... ....
 F-3|..|--- .... ....|--- .... ....|F-1 .A.F ....
....|..|--- .... ....|--- .... ....|--- .... ....
....|..|--- .... ....|--- .... ....|R-- .... ....
....|..|--- .... ....|--- .... ....|--- .... ....
 F-3|..|--- .... ....|--- .... ....|F-1 .A.F ....
....|..|--- .... ....|--- .... ....|--- .... ....
....|..|--- .... ....|--- .... ....|R-- .... ....
....|..|--- .... ....|--- .... ....|--- .... ....
 F-3|..|--- .... ....|--- .... ....|F-1 .A.F ....
....|..|--- .... ....|--- .... ....|--- .... ....
....|..|--- .... ....|--- .... ....|R-- .... ....
....|..|--- .... ....|--- .... ....|--- .... ....
 F-3|..|--- .... ....|--- .... ....|F-1 .A.F ....
....|..|--- .... ....|--- .... ....|--- .... ....
....|..|--- .... ....|--- .... ....|R-- .... ....
....|..|--- .... ....|--- .... ....|--- .... ....
 F-3|..|--- .... ....|--- .... ....|F-1 .A.F ....
....|..|--- .... ....|--- .... ....|--- .... ....
....|..|--- .... ....|--- .... ....|R-- .... ....
....|..|--- .... ....|--- .... ....|--- .... ....
 F-3|..|--- .... ....|--- .... ....|F-1 .A.F ....
....|..|--- .... ....|--- .... ....|--- .... ....
....|..|--- .... ....|--- .... ....|R-- .... ....
....|..|--- .... ....|--- .... ....|--- .... ....
 G#3|..|--- .... ....|--- .... ....|G#1 .A.F ....
....|..|--- .... ....|--- .... ....|--- .... ....
....|..|--- .... ....|--- .... ....|R-- .... ....
....|..|--- .... ....|--- .... ....|--- .... ....
 F-3|..|--- .... ....|--- .... ....|F-1 .A.F ....
....|..|--- .... ....|--- .... ....|--- .... ....

[Pattern53]
....|..|--- .... ....|--- .... ....|R-- .... ....
....|..|--- .... ....|--- .... ....|--- .... ....
 F-3|..|--- .... ....|--- .... ....|F-1 .A.F ....
....|..|--- .... ....|--- .... ....|--- .... ....
....|..|--- .... ....|--- .... ....|R-- .... ....
....|..|--- .... ....|--- .... ....|--- .... ....
 F-3|..|--- .... ....|--- .... ....|F-1 .A.F ....
....|..|--- .... ....|--- .... ....|--- .... ....
....|..|--- .... ....|--- .... ....|R-- .... ....
....|..|--- .... ....|--- .... ....|--- .... ....
 F-3|..|--- .... ....|--- .... ....|F-1 .A.F ....
....|..|--- .... ....|--- .... ....|--- .... ....
....|..|--- .... ....|--- .... ....|R-- .... ....
....|..|--- .... ....|--- .... ....|--- .... ....
 F-3|..|--- .... ....|--- .... ....|F-1 .A.F ....
....|..|--- .... ....|--- .... ....|--- .... ....
....|..|--- .... ....|--- .... ....|R-- .... ....
....|..|--- .... ....|--- .... ....|--- .... ....
 F-3|..|--- .... ....|--- .... ....|F-1 .A.F ....
....|..|--- .... ....|--- .... ....|--- .... ....
....|..|--- .... ....|--- .... ....|R-- .... ....
....|..|--- .... ....|--- .... ....|--- .... ....
 F-3|..|--- .... ....|--- .... ....|F-1 .A.F ....
....|..|--- .... ....|--- .... ....|--- .... ....
 C-4|..|--- .... ....|--- .... ....|C-2 .A.F ....
....|..|--- .... ....|--- .... ....|--- .... ....
 B-3|..|--- .... ....|--- .... ....|B-1 .A.F ....
....|..|--- .... ....|--- .... ....|--- .... ....
 G#3|..|--- .... ....|--- .... ....|G#1 .A.F ....
....|..|--- .... ....|--- .... ....|--- .... ....
 G-3|..|--- .... ....|--- .... ....|G-1 .A.F ....
....|..|--- .... ....|--- .... ....|--- .... ....
 F-3|..|--- .... ....|--- .... ....|F-1 .A.F ....
....|..|--- .... ....|--- .... ....|--- .... ....
 F-3|..|--- .... ....|--- .... ....|F-1 .F.7 ....
....|..|--- .... ....|--- .... ....|--- .... ....
 C-4|..|--- .... ....|--- .... ....|C-2 .F.7 ....
....|..|--- .... ....|--- .... ....|--- .... ....
 B-3|..|--- .... ....|--- .... ....|B-1 .F.7 ....
....|..|--- .... ....|--- .... ....|--- .... ....
 G#3|..|--- .... ....|--- .... ....|G#1 .F.7 ....
....|..|--- .... ....|--- .... ....|--- .... ....
 G-3|..|--- .... ....|--- .... ....|G-1 .F.7 ....
....|..|--- .... ....|--- .... ....|--- .... ....
 F-3|..|--- .... ....|--- .... ....|F-1 .F.7 ....
....|..|--- .... ....|--- .... ....|--- .... ....
....|..|--- .... ....|--- .... ....|--- .... ....
....|..|--- .... ....|--- .... ....|--- .... ....
