[Module]
VortexTrackerII=0
Version=3.5
Title=LG_pokerface.mid
Author=oisee ^ 4d 29.05.2010
NoteTable=4
ChipFreq=1750000
Speed=3
PlayOrder=L1,2,3,4,5,6,7,8,9,10,11,12,13,14,15,16,17,18,19,20,21,22,23,24,25,26,27,28,29,30,31,32,33,34,35,36,37,38,39,40,41,42,43,44,45,46,47,48,49,50,51,52,53,54,55,56,57,58

[Ornament1]
L0

[Ornament2]
L7,7,2,2,0,0

[Ornament3]
L0,0,3,3,7,7,12,12

[Ornament4]
L0,0,4,4,7,7,12,12

[Ornament5]
L0,0,5,5,8,8,12,12

[Ornament6]
L0,0,3,3,6,6,12,12

[Ornament7]
L0,3,7

[Ornament8]
L0,0,3,3,8,8,12,12

[Ornament9]
0,-12,-12,-24,L-24

[Ornament10]
L0,0,12,12,0,0,12,12

[Ornament11]
24,12,0,-12,-24,-36,L-36

[Ornament12]
L0

[Ornament13]
1,L0

[Ornament14]
L0,24,0,0,0

[Ornament15]
L0,36,0,0

[Sample1]
TnE +000_ +00_ F_
TnE +000_ +00_ F_
TnE +000_ +00_ F_
TnE +000_ +00_ D_
TnE +000_ +00_ B_
TnE +000_ +00_ B_ L

[Sample2]
TnE +000_ +00_ F_ L

[Sample3]
TnE +001_ +00_ F_
TnE +002_ +00_ F_
TnE +001_ +00_ E_
TnE +002_ +00_ E_
TnE +000_ +00_ E_ L
TnE -001_ +00_ E_
TnE -002_ +00_ E_
TnE -001_ +00_ E_
TnE +000_ +00_ E_
TnE +001_ +00_ E_
TnE +002_ +00_ E_
TnE +001_ +00_ E_

[Sample4]
TnE +002_ +00_ D_
TnE +002_ +00_ D_
TnE +002_ +00_ C_
TnE +002_ +00_ B_
TnE +002_ +00_ A_ L
TnE +002_ +00_ A_
TnE +002_ +00_ A_
TnE +002_ +00_ A_
TnE +002_ +00_ A_
TnE +002_ +00_ A_
TnE +002_ +00_ A_
TnE +002_ +00_ A_

[Sample5]
TnE +000_ +00_ F_
TnE +000_ +00_ F_
tne +000_ +00_ 0_ L

[Sample6]
TnE -001_ +00_ F_ L

[Sample7]
TnE +006_ +00_ F_ L

[Sample8]
tNe +000_ +00_ F_
tNe +000_ +00_ B_
tNe +000_ +00_ 7_
tNe +000_ +00_ 6- L

[Sample9]
TnE +080_ +00_ F_
TnE +100_ +00_ E_
TnE +180_ +00_ E_
TnE +200_ +00_ E_
TnE +240_ +00_ D_
TnE +280_ +00_ D_
TnE +2C0_ +00_ D_
TnE +300_ +00_ C_
TnE +300_ +00_ C_
TnE +340_ +00_ C_
TnE +340_ +00_ C_
TnE +380_ +00_ B_
TnE +380_ +00_ B_
TnE +400_ +00_ B_
TnE +400_ +00_ B_
TnE +480_ +00_ A_
TnE +500_ +00_ 9_
TnE +580_ +00_ 7_
TnE +600_ +00_ 4_
TnE +680_ +00_ 1_
TnE +000_ +00_ 0_ L

[Sample10]
Tne +1C0_ +00_ F_
Tne +280_ +00_ E_
Tne +380_ +00_ C_
Tne +440_ +00_ A_
Tne +480_ +00_ 8_
TnE +000_ +00_ 0_ L

[Sample11]
TNe +200_ -0A_ F_
tNe +000_ +0F_ A_
TNe +200_ -07_ E_
tNe +000_ +0E_ B- L

[Sample12]
TNE +0A0_ +05_ F_
TNE +140_ +02_ D_
TNE +140_ +02_ B_
TNE +100_ +00_ A_ L
TNE +140_ +00_ A_
TNE +200_ +00_ A-

[Sample13]
Tne +200_ +00_ F_
Tne +2C0_ +00_ F_
Tne +380_ +00_ E_
Tne +500_ +00_ C_
Tne +520_ +00_ 9_
tne +000_ +00_ 0_ L

[Sample14]
TNE -100_ +00_ F_
TNE -100_ +00_ D_
TNE -100_ +00_ A_
TNE -100_ +00_ 5_
tne +000_ +00_ 0_ L

[Sample15]
TNE -100_ +00_ 5_
TNE -100_ +00_ 8_
TNE -100_ +00_ B_
TNE -100_ +00_ F_
TNe -100_ +00_ 9- L

[Sample16]
TnE +000_ +00_ C_
TnE +000_ +00_ E_
TnE +000_ +00_ F_
TnE +000_ +00_ F_
TnE +000_ +00_ E_
TnE +000_ +00_ D_
TnE +000_ +00_ C_
TnE +000_ +00_ C_ L
TnE +001_ +00_ C_
TnE +002_ +00_ C_
TnE +003_ +00_ C_
TnE +001_ +00_ C_
TnE +000_ +00_ C_
TnE -001_ +00_ C_
TnE -002_ +00_ C_
TnE -003_ +00_ C_
TnE -001_ +00_ C_
TnE +000_ +00_ C_
TnE +000_ +00_ C_

[Sample17]
Tne +1C0_ +00_ F_
Tne +280_ +00_ D_
Tne +380_ +00_ 7_
TNE +000_ +00_ 0_ L

[Sample18]
tnE +000_ +00_ 0_ L

[Sample19]
TNe +000_ +00_ F_
TNe +000_ +00_ C_
TNe +000_ +00_ 6_
TNe +000_ +01_ A- L

[Sample20]
TNE +140_ +00_ F_
tNE +000_ +00_ B- L

[Sample21]
tNE +000_ +00_ D_
tNE +000_ +00_ 8_
tNE +000_ +00_ 1_
TNE +000_ +00_ 0_ L

[Sample22]
TnE +000_ +00_ D_ L
TnE +000_ +00_ D_
tne +000_ +00_ 9_
tne +000_ +00_ 9_
TnE +000_ +00_ D_
TnE +000_ +00_ D_
tne +000_ +00_ 9_
tne +000_ +00_ 9_
TnE +000_ +00_ D_
TnE +000_ +00_ D_
TnE +000_ +00_ D_
TnE +000_ +00_ D_
TnE +000_ +00_ D_
TnE +000_ +00_ D_
tne +000_ +00_ 9_
tne +000_ +00_ 9_

[Sample23]
TnE +000_ +00_ F_ L
TnE +010_ +01_ F_
TnE +010_ +01_ F_
TnE +010_ +01_ F_
TnE +010_ +01_ F_
TnE +000_ +00_ F_
TnE +000_ +00_ F_
TnE -010_ -01_ F_
TnE -010_ -01_ F_
TnE -010_ -01_ F_
TnE -010_ -01_ F_
TnE +000_ +00_ F_

[Sample24]
TNe +000_ -01_ C_
TNe +000_ -01_ D_
TNe +000_ -01_ E_
TNe +000_ -01_ F_
TNe +000_ -01_ F_
TNe +000_ -01_ F_
TNe +000_ -01_ F_
TNe +000_ -01_ F_
TNe +000_ -01_ E_
TNe +000_ -01_ E_
TNe +000_ -01_ E_
TNe +000_ -01_ F_
TNe +000_ -01_ F_ L

[Sample25]
TNE +000_ +00_ F_
TNE +000_ +00_ F_ L
TNE +000_ +00_ F_
TNE +000_ +00_ F_
TNE +000_ +00_ F-

[Sample26]
tne +000_ +00_ 0_ L

[Sample27]
tne +000_ +00_ 0_ L

[Sample28]
tne +000_ +00_ 0_ L

[Sample29]
tne +000_ +00_ 0_ L

[Sample30]
TNE +000_ +00_ C+ L

[Sample31]
TNe +1C0_ +00_ F_
Tne +280_ +00_ E_
Tne +380_ +00_ C_
Tne +440_ +00_ A_
Tne +480_ +00_ 8_
TnE +000_ +00_ 0_ L

[Pattern0]
....|..|--- .... ....|--- .... ....|--- .... ....
....|..|--- .... ....|--- .... ....|--- .... ....
....|..|--- .... ....|--- .... ....|--- .... ....
....|..|--- .... ....|--- .... ....|--- .... ....
....|..|--- .... ....|--- .... ....|--- .... ....
....|..|--- .... ....|--- .... ....|--- .... ....
....|..|--- .... ....|--- .... ....|--- .... ....
....|..|--- .... ....|--- .... ....|--- .... ....
....|..|--- .... ....|--- .... ....|--- .... ....
....|..|--- .... ....|--- .... ....|--- .... ....
....|..|--- .... ....|--- .... ....|--- .... ....
....|..|--- .... ....|--- .... ....|--- .... ....
....|..|--- .... ....|--- .... ....|--- .... ....
....|..|--- .... ....|--- .... ....|--- .... ....
....|..|--- .... ....|--- .... ....|--- .... ....
....|..|--- .... ....|--- .... ....|--- .... ....
....|..|--- .... ....|--- .... ....|--- .... ....
....|..|--- .... ....|--- .... ....|--- .... ....
....|..|--- .... ....|--- .... ....|--- .... ....
....|..|--- .... ....|--- .... ....|--- .... ....
....|..|--- .... ....|--- .... ....|--- .... ....
....|..|--- .... ....|--- .... ....|--- .... ....
....|..|--- .... ....|--- .... ....|--- .... ....
....|..|--- .... ....|--- .... ....|--- .... ....
....|..|--- .... ....|--- .... ....|--- .... ....
....|..|--- .... ....|--- .... ....|--- .... ....
....|..|--- .... ....|--- .... ....|--- .... ....
....|..|--- .... ....|--- .... ....|--- .... ....
....|..|--- .... ....|--- .... ....|--- .... ....
....|..|--- .... ....|--- .... ....|--- .... ....
....|..|--- .... ....|--- .... ....|--- .... ....
....|..|--- .... ....|--- .... ....|--- .... ....
....|..|--- .... ....|--- .... ....|--- .... ....
....|..|--- .... ....|--- .... ....|--- .... ....
....|..|--- .... ....|--- .... ....|--- .... ....
....|..|--- .... ....|--- .... ....|--- .... ....
....|..|--- .... ....|--- .... ....|--- .... ....
....|..|--- .... ....|--- .... ....|--- .... ....
....|..|--- .... ....|--- .... ....|--- .... ....
....|..|--- .... ....|--- .... ....|--- .... ....
....|..|--- .... ....|--- .... ....|--- .... ....
....|..|--- .... ....|--- .... ....|--- .... ....
....|..|--- .... ....|--- .... ....|--- .... ....
....|..|--- .... ....|--- .... ....|--- .... ....
....|..|--- .... ....|--- .... ....|--- .... ....
....|..|--- .... ....|--- .... ....|--- .... ....
....|..|--- .... ....|--- .... ....|--- .... ....
....|..|--- .... ....|--- .... ....|--- .... ....
....|..|--- .... ....|--- .... ....|--- .... ....
....|..|--- .... ....|--- .... ....|--- .... ....
....|..|--- .... ....|--- .... ....|--- .... ....
....|..|--- .... ....|--- .... ....|--- .... ....
....|..|--- .... ....|--- .... ....|--- .... ....
....|..|--- .... ....|--- .... ....|--- .... ....
....|..|--- .... ....|--- .... ....|--- .... ....
....|..|--- .... ....|--- .... ....|--- .... ....
....|..|--- .... ....|--- .... ....|--- .... ....
....|..|--- .... ....|--- .... ....|--- .... ....
....|..|--- .... ....|--- .... ....|--- .... ....
....|..|--- .... ....|--- .... ....|--- .... ....
....|..|--- .... ....|--- .... ....|--- .... ....
....|..|--- .... ....|--- .... ....|--- .... ....
....|..|--- .... ....|--- .... ....|--- .... ....
....|..|--- .... ....|--- .... ....|--- .... ....

[Pattern1]
 G#3|..|R-- .... ....|R-- .... ....|G#2 2E.F ....
....|..|--- .... ....|--- .... ....|--- .... ....
....|..|--- .... ....|--- .... ....|R-- .... ....
....|..|--- .... ....|--- .... ....|--- .... ....
 G#3|..|--- .... ....|--- .... ....|G#2 .E.F ....
....|..|--- .... ....|--- .... ....|--- .... ....
....|..|--- .... ....|--- .... ....|R-- .... ....
....|..|--- .... ....|--- .... ....|--- .... ....
 G#2|..|--- .... ....|--- .... ....|G#1 .E.F ....
....|..|--- .... ....|--- .... ....|--- .... ....
....|..|--- .... ....|--- .... ....|R-- .... ....
....|..|--- .... ....|--- .... ....|--- .... ....
 G#2|..|--- .... ....|--- .... ....|G#1 .E.F ....
....|..|--- .... ....|--- .... ....|--- .... ....
....|..|--- .... ....|--- .... ....|R-- .... ....
....|..|--- .... ....|--- .... ....|--- .... ....
 D#3|..|--- .... ....|--- .... ....|D#2 .E.F ....
....|..|--- .... ....|--- .... ....|--- .... ....
....|..|--- .... ....|--- .... ....|R-- .... ....
....|..|--- .... ....|--- .... ....|--- .... ....
 D#3|..|--- .... ....|--- .... ....|D#2 .E.F ....
....|..|--- .... ....|--- .... ....|--- .... ....
....|..|--- .... ....|--- .... ....|R-- .... ....
....|..|--- .... ....|--- .... ....|--- .... ....
 G#2|..|--- .... ....|--- .... ....|G#1 .E.F ....
....|..|--- .... ....|--- .... ....|--- .... ....
....|..|--- .... ....|--- .... ....|R-- .... ....
....|..|--- .... ....|--- .... ....|--- .... ....
 G#2|..|--- .... ....|--- .... ....|G#1 .E.F ....
....|..|--- .... ....|--- .... ....|--- .... ....
....|..|--- .... ....|--- .... ....|R-- .... ....
....|..|--- .... ....|--- .... ....|--- .... ....

[Pattern2]
 G#3|..|--- .... ....|--- .... ....|G#2 .E.F ....
....|..|--- .... ....|--- .... ....|--- .... ....
....|..|--- .... ....|--- .... ....|R-- .... ....
....|..|--- .... ....|--- .... ....|--- .... ....
 G#3|..|--- .... ....|--- .... ....|G#2 .E.F ....
....|..|--- .... ....|--- .... ....|--- .... ....
....|..|--- .... ....|--- .... ....|R-- .... ....
....|..|--- .... ....|--- .... ....|--- .... ....
 E-3|..|--- .... ....|--- .... ....|E-2 .E.F ....
....|..|--- .... ....|--- .... ....|--- .... ....
....|..|--- .... ....|--- .... ....|R-- .... ....
....|..|--- .... ....|--- .... ....|--- .... ....
 B-2|..|--- .... ....|--- .... ....|B-1 .E.F ....
....|..|--- .... ....|--- .... ....|--- .... ....
....|..|--- .... ....|--- .... ....|R-- .... ....
....|..|--- .... ....|--- .... ....|--- .... ....
 F#3|..|--- .... ....|--- .... ....|F#2 .E.F ....
....|..|--- .... ....|--- .... ....|--- .... ....
....|..|--- .... ....|--- .... ....|R-- .... ....
....|..|--- .... ....|--- .... ....|--- .... ....
 F#3|..|--- .... ....|--- .... ....|F#2 .E.F ....
....|..|--- .... ....|--- .... ....|--- .... ....
....|..|--- .... ....|--- .... ....|R-- .... ....
....|..|--- .... ....|--- .... ....|--- .... ....
 F#2|..|--- .... ....|--- .... ....|F#1 .E.F ....
....|..|--- .... ....|--- .... ....|--- .... ....
....|..|--- .... ....|--- .... ....|R-- .... ....
....|..|--- .... ....|--- .... ....|--- .... ....
 F#2|..|--- .... ....|--- .... ....|F#1 .E.F ....
....|..|--- .... ....|--- .... ....|--- .... ....
....|..|--- .... ....|--- .... ....|R-- .... ....
....|..|--- .... ....|--- .... ....|--- .... ....
 G#3|..|--- .... ....|B-3 2FAF ....|G#2 .E.F ....
....|..|--- .... ....|--- .... ....|--- .... ....
....|..|--- .... ....|R-- ...A ....|R-- .... ....
....|..|--- .... ....|--- .... ....|--- .... ....
 G#3|..|--- .... ....|B-3 ...F ....|G#2 .E.F ....
....|..|--- .... ....|--- .... ....|--- .... ....
....|..|--- .... ....|R-- ...A ....|R-- .... ....
....|..|--- .... ....|--- .... ....|--- .... ....
 G#2|..|--- .... ....|B-3 ...F ....|G#1 .E.F ....
....|..|--- .... ....|--- .... ....|--- .... ....
....|..|--- .... ....|R-- ...A ....|R-- .... ....
....|..|--- .... ....|--- .... ....|--- .... ....
 G#2|..|--- .... ....|B-3 ...F ....|G#1 .E.F ....
....|..|--- .... ....|--- .... ....|--- .... ....
....|..|--- .... ....|R-- ...A ....|R-- .... ....
....|..|--- .... ....|--- .... ....|--- .... ....
 D#3|..|--- .... ....|B-3 ...F ....|D#2 .E.F ....
....|..|--- .... ....|--- .... ....|--- .... ....
....|..|--- .... ....|R-- ...A ....|R-- .... ....
....|..|--- .... ....|--- .... ....|--- .... ....
 D#3|..|--- .... ....|B-3 ...F ....|D#2 .E.F ....
....|..|--- .... ....|--- .... ....|--- .... ....
....|..|--- .... ....|R-- ...A ....|R-- .... ....
....|..|--- .... ....|--- .... ....|--- .... ....
 G#2|..|--- .... ....|B-3 ...F ....|G#1 .E.F ....
....|..|--- .... ....|--- .... ....|--- .... ....
....|..|--- .... ....|R-- ...A ....|R-- .... ....
....|..|--- .... ....|--- .... ....|--- .... ....
 G#2|..|--- .... ....|B-3 ...F ....|G#1 .E.F ....
....|..|--- .... ....|--- .... ....|--- .... ....
....|..|--- .... ....|R-- ...A ....|R-- .... ....
....|..|--- .... ....|--- .... ....|--- .... ....

[Pattern3]
 G#3|..|--- .... ....|B-3 ...F ....|G#2 .E.F ....
....|..|--- .... ....|--- .... ....|--- .... ....
....|..|--- .... ....|R-- .... ....|R-- .... ....
....|..|--- .... ....|--- .... ....|--- .... ....
 G#3|..|--- .... ....|B-3 ...F ....|G#2 .E.F ....
....|..|--- .... ....|--- .... ....|--- .... ....
....|..|--- .... ....|R-- .... ....|R-- .... ....
....|..|--- .... ....|--- .... ....|--- .... ....
 E-3|..|--- .... ....|B-3 ...F ....|E-2 .E.F ....
....|..|--- .... ....|--- .... ....|--- .... ....
....|..|--- .... ....|R-- .... ....|R-- .... ....
....|..|--- .... ....|--- .... ....|--- .... ....
 B-2|..|--- .... ....|B-3 ...F ....|B-1 .E.F ....
....|..|--- .... ....|--- .... ....|--- .... ....
....|..|--- .... ....|R-- .... ....|R-- .... ....
....|..|--- .... ....|--- .... ....|--- .... ....
 F#3|..|--- .... ....|C#4 .FEF ....|F#2 .E.F ....
....|..|--- .... ....|--- .... ....|--- .... ....
....|..|--- .... ....|B-3 ...A ....|R-- .... ....
....|..|--- .... ....|R-- .... ....|--- .... ....
 F#3|..|--- .... ....|B-3 ...F ....|F#2 .E.F ....
....|..|--- .... ....|R-- .... ....|--- .... ....
....|..|--- .... ....|C#4 ...A ....|R-- .... ....
....|..|--- .... ....|--- .... ....|--- .... ....
 F#2|..|--- .... ....|C#4 ...F ....|F#1 .E.F ....
....|..|--- .... ....|--- .... ....|--- .... ....
....|..|--- .... ....|B-3 ...A ....|R-- .... ....
....|..|--- .... ....|R-- .... ....|--- .... ....
 F#2|..|--- .... ....|B-3 ...F ....|F#1 .E.F ....
....|..|--- .... ....|R-- .... ....|--- .... ....
....|..|--- .... ....|C#4 ...A ....|R-- .... ....
....|..|--- .... ....|--- .... ....|--- .... ....
 G#3|..|--- .... ....|D#4 .FAF ....|G#2 .E.F ....
....|..|--- .... ....|--- .... ....|--- .... ....
....|..|--- .... ....|R-- .... ....|R-- .... ....
....|..|--- .... ....|--- .... ....|--- .... ....
 G#3|..|--- .... ....|D#4 ...F ....|G#2 .E.F ....
....|..|--- .... ....|--- .... ....|--- .... ....
....|..|--- .... ....|R-- .... ....|R-- .... ....
....|..|--- .... ....|--- .... ....|--- .... ....
 G#2|..|--- .... ....|D#4 ...F ....|G#1 .E.F ....
....|..|--- .... ....|--- .... ....|--- .... ....
....|..|--- .... ....|R-- .... ....|R-- .... ....
....|..|--- .... ....|--- .... ....|--- .... ....
 G#2|..|--- .... ....|D#4 ...F ....|G#1 .E.F ....
....|..|--- .... ....|--- .... ....|--- .... ....
....|..|--- .... ....|R-- .... ....|R-- .... ....
....|..|--- .... ....|--- .... ....|--- .... ....
 D#3|..|--- .... ....|D#4 ...F ....|D#2 .E.F ....
....|..|--- .... ....|--- .... ....|--- .... ....
....|..|--- .... ....|R-- .... ....|R-- .... ....
....|..|--- .... ....|--- .... ....|--- .... ....
 D#3|..|--- .... ....|D#4 ...F ....|D#2 .E.F ....
....|..|--- .... ....|--- .... ....|--- .... ....
....|..|--- .... ....|R-- .... ....|R-- .... ....
....|..|--- .... ....|--- .... ....|--- .... ....
 G#2|..|--- .... ....|D#4 ...F ....|G#1 .E.F ....
....|..|--- .... ....|--- .... ....|--- .... ....
....|..|--- .... ....|R-- .... ....|R-- .... ....
....|..|--- .... ....|--- .... ....|--- .... ....
 G#2|..|--- .... ....|D#4 ...F ....|G#1 .E.F ....
....|..|--- .... ....|--- .... ....|--- .... ....
....|..|--- .... ....|R-- .... ....|R-- .... ....
....|..|--- .... ....|--- .... ....|--- .... ....

[Pattern4]
 G#3|..|--- .... ....|D#4 ...F ....|G#2 .E.F ....
....|..|--- .... ....|--- .... ....|--- .... ....
....|..|--- .... ....|R-- .... ....|R-- .... ....
....|..|--- .... ....|--- .... ....|--- .... ....
 G#3|..|--- .... ....|D#4 ...F ....|G#2 .E.F ....
....|..|--- .... ....|--- .... ....|--- .... ....
....|..|--- .... ....|R-- .... ....|R-- .... ....
....|..|--- .... ....|--- .... ....|--- .... ....
 E-3|..|--- .... ....|D#4 ...F ....|E-2 .E.F ....
....|..|--- .... ....|--- .... ....|--- .... ....
....|..|--- .... ....|R-- .... ....|R-- .... ....
....|..|--- .... ....|--- .... ....|--- .... ....
 B-2|..|--- .... ....|D#4 ...F ....|B-1 .E.F ....
....|..|--- .... ....|--- .... ....|--- .... ....
....|..|--- .... ....|R-- .... ....|R-- .... ....
....|..|--- .... ....|--- .... ....|--- .... ....
 F#3|..|--- .... ....|E-4 .FEF ....|F#2 .E.F ....
....|..|--- .... ....|--- .... ....|--- .... ....
....|..|--- .... ....|D#4 ...A ....|R-- .... ....
....|..|--- .... ....|R-- .... ....|--- .... ....
 F#3|..|--- .... ....|D#4 ...F ....|F#2 .E.F ....
....|..|--- .... ....|R-- .... ....|--- .... ....
....|..|--- .... ....|E-4 ...A ....|R-- .... ....
....|..|--- .... ....|--- .... ....|--- .... ....
 F#2|..|--- .... ....|E-4 ...F ....|F#1 .E.F ....
....|..|--- .... ....|--- .... ....|--- .... ....
....|..|--- .... ....|D#4 ...A ....|R-- .... ....
....|..|--- .... ....|R-- .... ....|--- .... ....
 F#2|..|--- .... ....|D#4 ...F ....|F#1 .E.F ....
....|..|--- .... ....|R-- .... ....|--- .... ....
....|..|--- .... ....|E-4 ...A ....|R-- .... ....
....|..|--- .... ....|--- .... ....|--- .... ....
 G#3|..|--- .... ....|B-3 .FAF ....|G#2 .E.F ....
....|..|--- .... ....|--- .... ....|--- .... ....
....|..|--- .... ....|R-- .... ....|R-- .... ....
....|..|--- .... ....|--- .... ....|--- .... ....
 G#3|..|--- .... ....|B-3 ...F ....|G#2 .E.F ....
....|..|--- .... ....|--- .... ....|--- .... ....
....|..|--- .... ....|R-- .... ....|R-- .... ....
....|..|--- .... ....|--- .... ....|--- .... ....
 G#2|..|--- .... ....|B-3 ...F ....|G#1 .E.F ....
....|..|--- .... ....|--- .... ....|--- .... ....
....|..|--- .... ....|R-- .... ....|R-- .... ....
....|..|--- .... ....|--- .... ....|--- .... ....
 G#2|..|--- .... ....|B-3 ...F ....|G#1 .E.F ....
....|..|--- .... ....|--- .... ....|--- .... ....
....|..|--- .... ....|R-- .... ....|R-- .... ....
....|..|--- .... ....|--- .... ....|--- .... ....
 D#3|..|--- .... ....|B-3 ...F ....|D#2 .E.F ....
....|..|--- .... ....|--- .... ....|--- .... ....
....|..|--- .... ....|R-- .... ....|R-- .... ....
....|..|--- .... ....|--- .... ....|--- .... ....
 D#3|..|--- .... ....|B-3 ...F ....|D#2 .E.F ....
....|..|--- .... ....|--- .... ....|--- .... ....
....|..|--- .... ....|R-- .... ....|R-- .... ....
....|..|--- .... ....|--- .... ....|--- .... ....
 G#2|..|--- .... ....|B-3 ...F ....|G#1 .E.F ....
....|..|--- .... ....|--- .... ....|--- .... ....
....|..|--- .... ....|R-- .... ....|R-- .... ....
....|..|--- .... ....|--- .... ....|--- .... ....
 G#2|..|--- .... ....|B-3 ...F ....|G#1 .E.F ....
....|..|--- .... ....|--- .... ....|--- .... ....
....|..|--- .... ....|R-- .... ....|R-- .... ....
....|..|--- .... ....|--- .... ....|--- .... ....

[Pattern5]
 G#3|..|--- .... ....|B-3 ...F ....|G#2 .E.F ....
....|..|--- .... ....|--- .... ....|--- .... ....
....|..|--- .... ....|R-- .... ....|R-- .... ....
....|..|--- .... ....|--- .... ....|--- .... ....
 G#3|..|--- .... ....|B-3 ...F ....|G#2 .E.F ....
....|..|--- .... ....|--- .... ....|--- .... ....
....|..|--- .... ....|R-- .... ....|R-- .... ....
....|..|--- .... ....|--- .... ....|--- .... ....
 E-3|..|--- .... ....|B-3 ...F ....|E-2 .E.F ....
....|..|--- .... ....|--- .... ....|--- .... ....
....|..|--- .... ....|R-- .... ....|R-- .... ....
....|..|--- .... ....|--- .... ....|--- .... ....
 B-2|..|--- .... ....|B-3 ...F ....|B-1 .E.F ....
....|..|--- .... ....|--- .... ....|--- .... ....
....|..|--- .... ....|R-- .... ....|R-- .... ....
....|..|--- .... ....|--- .... ....|--- .... ....
 F#3|..|--- .... ....|C#4 .FEF ....|F#2 .E.F ....
....|..|--- .... ....|--- .... ....|--- .... ....
....|..|--- .... ....|B-3 ...A ....|R-- .... ....
....|..|--- .... ....|R-- .... ....|--- .... ....
 F#3|..|--- .... ....|B-3 ...F ....|F#2 .E.F ....
....|..|--- .... ....|R-- .... ....|--- .... ....
....|..|--- .... ....|C#4 ...A ....|R-- .... ....
....|..|--- .... ....|--- .... ....|--- .... ....
 F#2|..|--- .... ....|C#4 ...F ....|F#1 .E.F ....
....|..|--- .... ....|--- .... ....|--- .... ....
....|..|--- .... ....|B-3 ...A ....|R-- .... ....
....|..|--- .... ....|R-- .... ....|--- .... ....
 F#2|..|--- .... ....|B-3 ...F ....|F#1 .E.F ....
....|..|--- .... ....|R-- .... ....|--- .... ....
....|..|--- .... ....|C#4 ...A ....|R-- .... ....
....|..|--- .... ....|--- .... ....|--- .... ....
 G#3|..|--- .... ....|D#4 .FAF ....|G#2 .E.F ....
....|..|--- .... ....|--- .... ....|--- .... ....
....|..|--- .... ....|R-- .... ....|R-- .... ....
....|..|--- .... ....|--- .... ....|--- .... ....
 G#3|..|--- .... ....|D#4 ...F ....|G#2 .E.F ....
....|..|--- .... ....|--- .... ....|--- .... ....
....|..|--- .... ....|R-- .... ....|R-- .... ....
....|..|--- .... ....|--- .... ....|--- .... ....
 G#2|..|--- .... ....|D#4 ...F ....|G#1 .E.F ....
....|..|--- .... ....|--- .... ....|--- .... ....
....|..|--- .... ....|R-- .... ....|R-- .... ....
....|..|--- .... ....|--- .... ....|--- .... ....
 G#2|..|--- .... ....|D#4 ...F ....|G#1 .E.F ....
....|..|--- .... ....|--- .... ....|--- .... ....
....|..|--- .... ....|R-- .... ....|R-- .... ....
....|..|--- .... ....|--- .... ....|--- .... ....
 D#3|..|--- .... ....|D#4 ...F ....|D#2 .E.F ....
....|..|--- .... ....|--- .... ....|--- .... ....
....|..|--- .... ....|R-- .... ....|R-- .... ....
....|..|--- .... ....|--- .... ....|--- .... ....
 D#3|..|--- .... ....|D#4 ...F ....|D#2 .E.F ....
....|..|--- .... ....|--- .... ....|--- .... ....
....|..|--- .... ....|R-- .... ....|R-- .... ....
....|..|--- .... ....|--- .... ....|--- .... ....
 G#2|..|--- .... ....|D#4 ...F ....|G#1 .E.F ....
....|..|--- .... ....|--- .... ....|--- .... ....
....|..|--- .... ....|R-- .... ....|R-- .... ....
....|..|--- .... ....|--- .... ....|--- .... ....
 G#2|..|--- .... ....|D#4 ...F ....|G#1 .E.F ....
....|..|--- .... ....|--- .... ....|--- .... ....
....|..|--- .... ....|R-- .... ....|R-- .... ....
....|..|--- .... ....|--- .... ....|--- .... ....

[Pattern6]
 G#3|..|--- .... ....|D#4 ...F ....|G#2 .E.F ....
....|..|--- .... ....|--- .... ....|--- .... ....
....|..|--- .... ....|R-- .... ....|R-- .... ....
....|..|--- .... ....|--- .... ....|--- .... ....
 G#3|..|--- .... ....|D#4 ...F ....|G#2 .E.F ....
....|..|--- .... ....|--- .... ....|--- .... ....
....|..|--- .... ....|R-- .... ....|R-- .... ....
....|..|--- .... ....|--- .... ....|--- .... ....
 E-3|..|--- .... ....|D#4 ...F ....|E-2 .E.F ....
....|..|--- .... ....|--- .... ....|--- .... ....
....|..|--- .... ....|R-- .... ....|R-- .... ....
....|..|--- .... ....|--- .... ....|--- .... ....
 B-2|..|--- .... ....|D#4 ...F ....|B-1 .E.F ....
....|..|--- .... ....|--- .... ....|--- .... ....
....|..|--- .... ....|R-- .... ....|R-- .... ....
....|..|--- .... ....|--- .... ....|--- .... ....
 F#3|..|--- .... ....|E-4 .FEF ....|F#2 .E.F ....
....|..|--- .... ....|--- .... ....|--- .... ....
....|..|--- .... ....|D#4 ...A ....|R-- .... ....
....|..|--- .... ....|R-- .... ....|--- .... ....
 F#3|..|--- .... ....|D#4 ...F ....|F#2 .E.F ....
....|..|--- .... ....|R-- .... ....|--- .... ....
....|..|--- .... ....|E-4 ...A ....|R-- .... ....
....|..|--- .... ....|--- .... ....|--- .... ....
 F#2|..|--- .... ....|E-4 ...F ....|F#1 .E.F ....
....|..|--- .... ....|--- .... ....|--- .... ....
....|..|--- .... ....|D#4 ...A ....|R-- .... ....
....|..|--- .... ....|R-- .... ....|--- .... ....
 F#2|..|--- .... ....|D#4 ...F ....|F#1 .E.F ....
....|..|--- .... ....|R-- .... ....|--- .... ....
....|..|--- .... ....|E-4 ...A ....|R-- .... ....
....|..|--- .... ....|--- .... ....|--- .... ....
 G#3|..|--- .... ....|--- .... ....|G#2 .E.F ....
....|..|--- .... ....|--- .... ....|--- .... ....
....|..|--- .... ....|D#4 ...A ....|R-- .... ....
....|..|--- .... ....|--- .... ....|--- .... ....
 G#3|..|B-4 UFAF ....|--- .... ....|G#2 .E.F ....
....|..|R-- .... ....|--- .... ....|--- .... ....
....|..|--- .... ....|--- .... ....|R-- .... ....
....|..|--- .... ....|--- .... ....|--- .... ....
 G#2|..|B-4 ...F ....|--- .... ....|G#1 .E.F ....
....|..|--- .... ....|--- .... ....|--- .... ....
....|..|B-4 ...A ....|--- .... ....|R-- .... ....
....|..|R-- .... ....|--- .... ....|--- .... ....
 G#2|..|B-4 ...F ....|--- .... ....|G#1 .E.F ....
....|..|R-- .... ....|--- .... ....|--- .... ....
....|..|B-4 ...A ....|--- .... ....|R-- .... ....
....|..|--- .... ....|--- .... ....|--- .... ....
 D#3|..|B-4 ...F ....|--- .... ....|D#2 .E.F ....
....|..|R-- .... ....|--- .... ....|--- .... ....
....|..|B-4 ...A ....|--- .... ....|R-- .... ....
....|..|--- .... ....|--- .... ....|--- .... ....
 D#3|..|B-4 ...F ....|--- .... ....|D#2 .E.F ....
....|..|R-- .... ....|--- .... ....|--- .... ....
....|..|B-4 ...A ....|--- .... ....|R-- .... ....
....|..|--- .... ....|--- .... ....|--- .... ....
 G#2|..|B-4 ...F ....|--- .... ....|G#1 .E.F ....
....|..|--- .... ....|--- .... ....|--- .... ....
....|..|R-- .... ....|--- .... ....|R-- .... ....
....|..|--- .... ....|--- .... ....|--- .... ....
 G#2|..|B-4 ...F ....|--- .... ....|G#1 .E.F ....
....|..|R-- .... ....|--- .... ....|--- .... ....
....|..|B-4 ...A ....|--- .... ....|R-- .... ....
....|..|--- .... ....|--- .... ....|--- .... ....

[Pattern7]
 G#3|..|B-4 ...F ....|--- .... ....|G#2 .E.F ....
....|..|--- .... ....|--- .... ....|--- .... ....
....|..|B-4 ...A ....|--- .... ....|R-- .... ....
....|..|R-- .... ....|--- .... ....|--- .... ....
 G#3|..|B-4 ...F ....|--- .... ....|G#2 .E.F ....
....|..|R-- .... ....|--- .... ....|--- .... ....
....|..|B-4 ...A ....|--- .... ....|R-- .... ....
....|..|--- .... ....|--- .... ....|--- .... ....
 E-3|..|B-4 ...F ....|--- .... ....|E-2 .E.F ....
....|..|--- .... ....|--- .... ....|--- .... ....
....|..|R-- .... ....|--- .... ....|R-- .... ....
....|..|--- .... ....|--- .... ....|--- .... ....
 B-2|..|B-4 ...F ....|--- .... ....|B-1 .E.F ....
....|..|R-- .... ....|--- .... ....|--- .... ....
....|..|B-4 ...A ....|--- .... ....|R-- .... ....
....|..|--- .... ....|--- .... ....|--- .... ....
 F#3|..|B-4 ...F ....|--- .... ....|F#2 .E.F ....
....|..|--- .... ....|--- .... ....|--- .... ....
....|..|B-4 ...A ....|--- .... ....|R-- .... ....
....|..|--- .... ....|--- .... ....|--- .... ....
 F#3|..|--- .... ....|--- .... ....|F#2 .E.F ....
....|..|R-- .... ....|--- .... ....|--- .... ....
....|..|B-4 ...A ....|--- .... ....|R-- .... ....
....|..|--- .... ....|--- .... ....|--- .... ....
 F#2|..|--- .... ....|--- .... ....|F#1 .E.F ....
....|..|--- .... ....|--- .... ....|--- .... ....
....|..|--- .... ....|--- .... ....|R-- .... ....
....|..|--- .... ....|--- .... ....|--- .... ....
 F#2|..|--- .... ....|--- .... ....|F#1 .E.F ....
....|..|--- .... ....|--- .... ....|--- .... ....
....|..|--- .... ....|--- .... ....|R-- .... ....
....|..|--- .... ....|--- .... ....|--- .... ....
 G#3|..|B-4 ...F ....|--- .... ....|G#2 .E.F ....
....|..|--- .... ....|--- .... ....|--- .... ....
....|..|R-- .... ....|--- .... ....|R-- .... ....
....|..|--- .... ....|--- .... ....|--- .... ....
 G#3|..|B-4 ...F ....|--- .... ....|G#2 .E.F ....
....|..|R-- .... ....|--- .... ....|--- .... ....
....|..|B-4 ...A ....|--- .... ....|R-- .... ....
....|..|--- .... ....|--- .... ....|--- .... ....
 G#2|..|B-4 ...F ....|--- .... ....|G#1 .E.F ....
....|..|--- .... ....|--- .... ....|--- .... ....
....|..|B-4 ...A ....|--- .... ....|R-- .... ....
....|..|R-- .... ....|--- .... ....|--- .... ....
 G#2|..|B-4 ...F ....|--- .... ....|G#1 .E.F ....
....|..|R-- .... ....|--- .... ....|--- .... ....
....|..|B-4 ...A ....|--- .... ....|R-- .... ....
....|..|--- .... ....|--- .... ....|--- .... ....
 D#3|..|B-4 ...F ....|--- .... ....|D#2 .E.F ....
....|..|--- .... ....|--- .... ....|--- .... ....
....|..|B-4 ...A ....|--- .... ....|R-- .... ....
....|..|R-- .... ....|--- .... ....|--- .... ....
 D#3|..|B-4 ...F ....|--- .... ....|D#2 .E.F ....
....|..|R-- .... ....|--- .... ....|--- .... ....
....|..|B-4 ...A ....|--- .... ....|R-- .... ....
....|..|--- .... ....|--- .... ....|--- .... ....
 G#2|..|B-4 ...F ....|--- .... ....|G#1 .E.F ....
....|..|--- .... ....|--- .... ....|--- .... ....
....|..|R-- .... ....|--- .... ....|R-- .... ....
....|..|--- .... ....|--- .... ....|--- .... ....
 G#2|..|B-4 ...F ....|--- .... ....|G#1 .E.F ....
....|..|R-- .... ....|--- .... ....|--- .... ....
....|..|B-4 ...A ....|--- .... ....|R-- .... ....
....|..|--- .... ....|--- .... ....|--- .... ....

[Pattern8]
 G#3|..|B-4 ...F ....|--- .... ....|G#2 .E.F ....
....|..|--- .... ....|--- .... ....|--- .... ....
....|..|R-- .... ....|--- .... ....|R-- .... ....
....|..|--- .... ....|--- .... ....|--- .... ....
 G#3|..|R-- .... ....|--- .... ....|G#2 .E.F ....
....|..|--- .... ....|--- .... ....|--- .... ....
....|..|B-4 ...A ....|--- .... ....|R-- .... ....
....|..|--- .... ....|--- .... ....|--- .... ....
 E-3|..|B-4 ...F ....|--- .... ....|E-2 .E.F ....
....|..|--- .... ....|--- .... ....|--- .... ....
....|..|R-- .... ....|--- .... ....|R-- .... ....
....|..|--- .... ....|--- .... ....|--- .... ....
 B-2|..|R-- .... ....|--- .... ....|B-1 .E.F ....
....|..|--- .... ....|--- .... ....|--- .... ....
....|..|B-4 ...A ....|--- .... ....|R-- .... ....
....|..|--- .... ....|--- .... ....|--- .... ....
 F#3|..|B-4 ...F ....|--- .... ....|F#2 .E.F ....
....|..|--- .... ....|--- .... ....|--- .... ....
....|..|B-4 ...A ....|--- .... ....|R-- .... ....
....|..|R-- .... ....|--- .... ....|--- .... ....
 F#3|..|F#4 G..F ....|--- .... ....|F#2 .E.F ....
....|..|R-- .... ....|--- .... ....|--- .... ....
....|..|B-4 ...A ....|--- .... ....|R-- .... ....
....|..|--- .... ....|--- .... ....|--- .... ....
 F#2|..|F#4 ...F ....|--- .... ....|F#1 .E.F ....
....|..|R-- .... ....|--- .... ....|--- .... ....
....|..|F#4 ...A ....|--- .... ....|R-- .... ....
....|..|--- .... ....|--- .... ....|--- .... ....
 F#2|..|G#4 ...F ....|--- .... ....|F#1 .E.F ....
....|..|R-- .... ....|--- .... ....|--- .... ....
....|..|F#4 ...A ....|--- .... ....|R-- .... ....
....|..|--- .... ....|--- .... ....|--- .... ....
 G#3|..|G#5 U..F ....|B-3 ...F ....|G#2 .E.F ....
....|..|--- .... ....|--- .... ....|--- .... ....
....|..|G#4 ...A ....|R-- .... ....|R-- .... ....
....|..|--- .... ....|--- .... ....|--- .... ....
 G#3|..|D#5 ...F ....|B-3 ...F ....|G#2 .E.F ....
....|..|--- .... ....|--- .... ....|--- .... ....
....|..|R-- .... ....|R-- .... ....|R-- .... ....
....|..|--- .... ....|--- .... ....|--- .... ....
 G#2|..|D-5 ...F ....|B-3 ...F ....|G#1 .E.F ....
....|..|--- .... ....|--- .... ....|--- .... ....
....|..|D#5 ...A ....|R-- .... ....|R-- .... ....
....|..|R-- .... ....|--- .... ....|--- .... ....
 G#2|..|D#5 ...F ....|B-3 ...F ....|G#1 .E.F ....
....|..|--- .... ....|--- .... ....|--- .... ....
....|..|R-- .... ....|R-- .... ....|R-- .... ....
....|..|--- .... ....|--- .... ....|--- .... ....
 D#3|..|E-5 ...F ....|B-3 ...F ....|D#2 .E.F ....
....|..|--- .... ....|--- .... ....|--- .... ....
....|..|R-- .... ....|R-- .... ....|R-- .... ....
....|..|--- .... ....|--- .... ....|--- .... ....
 D#3|..|D#5 ...F ....|B-3 ...F ....|D#2 .E.F ....
....|..|--- .... ....|--- .... ....|--- .... ....
....|..|R-- .... ....|R-- .... ....|R-- .... ....
....|..|--- .... ....|--- .... ....|--- .... ....
 G#2|..|D-5 ...F ....|B-3 ...F ....|G#1 .E.F ....
....|..|--- .... ....|--- .... ....|--- .... ....
....|..|D#5 ...A ....|R-- .... ....|R-- .... ....
....|..|R-- .... ....|--- .... ....|--- .... ....
 G#2|..|D#5 ...F ....|B-3 ...F ....|G#1 .E.F ....
....|..|--- .... ....|--- .... ....|--- .... ....
....|..|R-- .... ....|R-- .... ....|R-- .... ....
....|..|--- .... ....|--- .... ....|--- .... ....

[Pattern9]
 G#3|..|E-5 ...F ....|B-3 ...F ....|G#2 .E.F ....
....|..|--- .... ....|--- .... ....|--- .... ....
....|..|R-- .... ....|R-- .... ....|R-- .... ....
....|..|--- .... ....|--- .... ....|--- .... ....
 G#3|..|D#5 ...F ....|B-3 ...F ....|G#2 .E.F ....
....|..|--- .... ....|--- .... ....|--- .... ....
....|..|R-- .... ....|R-- .... ....|R-- .... ....
....|..|--- .... ....|--- .... ....|--- .... ....
 E-3|..|C#5 ...F ....|B-3 ...F ....|E-2 .E.F ....
....|..|--- .... ....|--- .... ....|--- .... ....
....|..|R-- .... ....|R-- .... ....|R-- .... ....
....|..|--- .... ....|--- .... ....|--- .... ....
 B-2|..|B-4 ...F ....|B-3 ...F ....|B-1 .E.F ....
....|..|--- .... ....|--- .... ....|--- .... ....
....|..|R-- .... ....|R-- .... ....|R-- .... ....
....|..|--- .... ....|--- .... ....|--- .... ....
 F#3|..|A#4 .FEF ....|C#4 ...F ....|F#2 .E.F ....
....|..|--- .... ....|--- .... ....|--- .... ....
....|..|B-4 ...A ....|B-3 ...A ....|R-- .... ....
....|..|--- .... ....|R-- .... ....|--- .... ....
 F#3|..|--- .... ....|B-3 ...F ....|F#2 .E.F ....
....|..|--- .... ....|--- .... ....|--- .... ....
....|..|A#4 ...A ....|R-- .... ....|R-- .... ....
....|..|--- .... ....|--- .... ....|--- .... ....
 F#2|..|--- .... ....|C#4 ...F ....|F#1 .E.F ....
....|..|--- .... ....|--- .... ....|--- .... ....
....|..|--- .... ....|B-3 ...A ....|R-- .... ....
....|..|--- .... ....|R-- .... ....|--- .... ....
 F#2|..|R-- .... ....|B-3 ...F ....|F#1 .E.F ....
....|..|--- .... ....|--- .... ....|--- .... ....
....|..|--- .... ....|R-- .... ....|R-- .... ....
....|..|--- .... ....|--- .... ....|--- .... ....
 G#3|..|B-4 .FAF ....|D#4 ...F ....|G#2 .E.F ....
....|..|R-- .... ....|--- .... ....|--- .... ....
....|..|B-4 ...A ....|R-- .... ....|R-- .... ....
....|..|--- .... ....|--- .... ....|--- .... ....
 G#3|..|B-4 ...F ....|D#4 ...F ....|G#2 .E.F ....
....|..|--- .... ....|--- .... ....|--- .... ....
....|..|R-- .... ....|R-- .... ....|R-- .... ....
....|..|--- .... ....|--- .... ....|--- .... ....
 G#2|..|R-- .... ....|D#4 ...F ....|G#1 .E.F ....
....|..|--- .... ....|--- .... ....|--- .... ....
....|..|B-4 ...A ....|R-- .... ....|R-- .... ....
....|..|--- .... ....|--- .... ....|--- .... ....
 G#2|..|B-4 ...F ....|D#4 ...F ....|G#1 .E.F ....
....|..|R-- .... ....|--- .... ....|--- .... ....
....|..|B-4 ...A ....|R-- .... ....|R-- .... ....
....|..|--- .... ....|--- .... ....|--- .... ....
 D#3|..|B-4 ...F ....|D#4 ...F ....|D#2 .E.F ....
....|..|--- .... ....|--- .... ....|--- .... ....
....|..|B-4 ...A ....|R-- .... ....|R-- .... ....
....|..|R-- .... ....|--- .... ....|--- .... ....
 D#3|..|B-4 ...F ....|D#4 ...F ....|D#2 .E.F ....
....|..|R-- .... ....|--- .... ....|--- .... ....
....|..|B-4 ...A ....|R-- .... ....|R-- .... ....
....|..|--- .... ....|--- .... ....|--- .... ....
 G#2|..|B-4 ...F ....|D#4 ...F ....|G#1 .E.F ....
....|..|--- .... ....|--- .... ....|--- .... ....
....|..|R-- .... ....|R-- .... ....|R-- .... ....
....|..|--- .... ....|--- .... ....|--- .... ....
 G#2|..|B-4 ...F ....|D#4 ...F ....|G#1 .E.F ....
....|..|R-- .... ....|--- .... ....|--- .... ....
....|..|B-4 ...A ....|R-- .... ....|R-- .... ....
....|..|--- .... ....|--- .... ....|--- .... ....

[Pattern10]
 G#3|..|B-4 ...F ....|D#4 ...F ....|G#2 .E.F ....
....|..|--- .... ....|--- .... ....|--- .... ....
....|..|R-- .... ....|R-- .... ....|R-- .... ....
....|..|--- .... ....|--- .... ....|--- .... ....
 G#3|..|B-4 ...F ....|D#4 ...F ....|G#2 .E.F ....
....|..|R-- .... ....|--- .... ....|--- .... ....
....|..|B-4 ...A ....|R-- .... ....|R-- .... ....
....|..|--- .... ....|--- .... ....|--- .... ....
 E-3|..|B-4 ...F ....|D#4 ...F ....|E-2 .E.F ....
....|..|R-- .... ....|--- .... ....|--- .... ....
....|..|B-4 ...A ....|R-- .... ....|R-- .... ....
....|..|--- .... ....|--- .... ....|--- .... ....
 B-2|..|B-4 ...F ....|D#4 ...F ....|B-1 .E.F ....
....|..|R-- .... ....|--- .... ....|--- .... ....
....|..|B-4 ...A ....|R-- .... ....|R-- .... ....
....|..|--- .... ....|--- .... ....|--- .... ....
 F#3|..|B-4 ...F ....|E-4 ...F ....|F#2 .E.F ....
....|..|--- .... ....|--- .... ....|--- .... ....
....|..|B-4 ...A ....|D#4 ...A ....|R-- .... ....
....|..|--- .... ....|R-- .... ....|--- .... ....
 F#3|..|--- .... ....|D#4 ...F ....|F#2 .E.F ....
....|..|R-- .... ....|--- .... ....|--- .... ....
....|..|B-4 ...A ....|R-- .... ....|R-- .... ....
....|..|--- .... ....|--- .... ....|--- .... ....
 F#2|..|--- .... ....|E-4 ...F ....|F#1 .E.F ....
....|..|--- .... ....|--- .... ....|--- .... ....
....|..|--- .... ....|D#4 ...A ....|R-- .... ....
....|..|--- .... ....|R-- .... ....|--- .... ....
 F#2|..|--- .... ....|D#4 ...F ....|F#1 .E.F ....
....|..|--- .... ....|--- .... ....|--- .... ....
....|..|--- .... ....|R-- .... ....|R-- .... ....
....|..|--- .... ....|--- .... ....|--- .... ....
 G#3|..|G#4 GFDF ....|B-3 ...F ....|G#2 .E.F ....
....|..|--- .... ....|--- .... ....|--- .... ....
....|..|--- .... ....|R-- .... ....|R-- .... ....
....|..|--- .... ....|--- .... ....|--- .... ....
 G#3|..|--- .... ....|B-3 ...F ....|G#2 .E.F ....
....|..|--- .... ....|--- .... ....|--- .... ....
....|..|G#4 ...A ....|R-- .... ....|R-- .... ....
....|..|R-- .... ....|--- .... ....|--- .... ....
 G#2|..|--- .... ....|B-3 ...F ....|G#1 .E.F ....
....|..|--- .... ....|--- .... ....|--- .... ....
....|..|--- .... ....|R-- .... ....|R-- .... ....
....|..|--- .... ....|--- .... ....|--- .... ....
 G#2|..|D#5 ...F ....|B-3 ...F ....|G#1 .E.F ....
....|..|--- .... ....|--- .... ....|--- .... ....
....|..|--- .... ....|R-- .... ....|R-- .... ....
....|..|--- .... ....|--- .... ....|--- .... ....
 D#3|..|D-5 ...F ....|B-3 ...F ....|D#2 .E.F ....
....|..|--- .... ....|--- .... ....|--- .... ....
....|..|D#5 ...A ....|R-- .... ....|R-- .... ....
....|..|--- .... ....|--- .... ....|--- .... ....
 D#3|..|--- .... ....|B-3 ...F ....|D#2 .E.F ....
....|..|--- .... ....|--- .... ....|--- .... ....
....|..|D-5 ...A ....|R-- .... ....|R-- .... ....
....|..|--- .... ....|--- .... ....|--- .... ....
 G#2|..|B-4 ...F ....|B-3 ...F ....|G#1 .E.F ....
....|..|--- .... ....|--- .... ....|--- .... ....
....|..|--- .... ....|R-- .... ....|R-- .... ....
....|..|--- .... ....|--- .... ....|--- .... ....
 G#2|..|R-- .... ....|B-3 ...F ....|G#1 .E.F ....
....|..|--- .... ....|--- .... ....|--- .... ....
....|..|B-4 ...A ....|R-- .... ....|R-- .... ....
....|..|--- .... ....|--- .... ....|--- .... ....

[Pattern11]
 G#3|..|G#4 ...F ....|B-3 ...F ....|G#2 .E.F ....
....|..|--- .... ....|--- .... ....|--- .... ....
....|..|--- .... ....|R-- .... ....|R-- .... ....
....|..|--- .... ....|--- .... ....|--- .... ....
 G#3|..|--- .... ....|B-3 ...F ....|G#2 .E.F ....
....|..|--- .... ....|--- .... ....|--- .... ....
....|..|G#4 ...A ....|R-- .... ....|R-- .... ....
....|..|R-- .... ....|--- .... ....|--- .... ....
 E-3|..|--- .... ....|B-3 ...F ....|E-2 .E.F ....
....|..|--- .... ....|--- .... ....|--- .... ....
....|..|--- .... ....|R-- .... ....|R-- .... ....
....|..|--- .... ....|--- .... ....|--- .... ....
 B-2|..|D#5 ...F ....|B-3 ...F ....|B-1 .E.F ....
....|..|--- .... ....|--- .... ....|--- .... ....
....|..|--- .... ....|R-- .... ....|R-- .... ....
....|..|--- .... ....|--- .... ....|--- .... ....
 F#3|..|D-5 ...F ....|C#4 ...F ....|F#2 .E.F ....
....|..|--- .... ....|--- .... ....|--- .... ....
....|..|D#5 ...A ....|B-3 ...A ....|R-- .... ....
....|..|R-- .... ....|R-- .... ....|--- .... ....
 F#3|..|D#5 ...F ....|B-3 ...F ....|F#2 .E.F ....
....|..|--- .... ....|--- .... ....|--- .... ....
....|..|D-5 ...A ....|R-- .... ....|R-- .... ....
....|..|R-- .... ....|--- .... ....|--- .... ....
 F#2|..|C#5 ...F ....|C#4 ...F ....|F#1 .E.F ....
....|..|--- .... ....|--- .... ....|--- .... ....
....|..|D#5 ...A ....|B-3 ...A ....|R-- .... ....
....|..|--- .... ....|R-- .... ....|--- .... ....
 F#2|..|F#4 ...F ....|B-3 ...F ....|F#1 .E.F ....
....|..|--- .... ....|--- .... ....|--- .... ....
....|..|C#5 ...A ....|R-- .... ....|R-- .... ....
....|..|R-- .... ....|--- .... ....|--- .... ....
 G#3|..|G#4 ...F ....|D#4 ...F ....|G#2 .E.F ....
....|..|--- .... ....|--- .... ....|--- .... ....
....|..|F#4 ...A ....|R-- .... ....|R-- .... ....
....|..|R-- .... ....|--- .... ....|--- .... ....
 G#3|..|B-4 UFAF ....|D#4 ...F ....|G#2 .E.F ....
....|..|R-- .... ....|--- .... ....|--- .... ....
....|..|G#4 ...A ....|R-- .... ....|R-- .... ....
....|..|--- .... ....|--- .... ....|--- .... ....
 G#2|..|B-4 ...F ....|D#4 ...F ....|G#1 .E.F ....
....|..|--- .... ....|--- .... ....|--- .... ....
....|..|R-- .... ....|R-- .... ....|R-- .... ....
....|..|--- .... ....|--- .... ....|--- .... ....
 G#2|..|B-4 ...F ....|D#4 ...F ....|G#1 .E.F ....
....|..|R-- .... ....|--- .... ....|--- .... ....
....|..|B-4 ...A ....|R-- .... ....|R-- .... ....
....|..|--- .... ....|--- .... ....|--- .... ....
 D#3|..|B-4 ...F ....|D#4 ...F ....|D#2 .E.F ....
....|..|--- .... ....|--- .... ....|--- .... ....
....|..|B-4 ...A ....|R-- .... ....|R-- .... ....
....|..|--- .... ....|--- .... ....|--- .... ....
 D#3|..|--- .... ....|D#4 ...F ....|D#2 .E.F ....
....|..|--- .... ....|--- .... ....|--- .... ....
....|..|B-4 ...A ....|R-- .... ....|R-- .... ....
....|..|R-- .... ....|--- .... ....|--- .... ....
 G#2|..|--- .... ....|D#4 ...F ....|G#1 .E.F ....
....|..|--- .... ....|--- .... ....|--- .... ....
....|..|--- .... ....|R-- .... ....|R-- .... ....
....|..|--- .... ....|--- .... ....|--- .... ....
 G#2|..|R-- .... ....|D#4 ...F ....|G#1 .E.F ....
....|..|--- .... ....|--- .... ....|--- .... ....
....|..|--- .... ....|R-- .... ....|R-- .... ....
....|..|--- .... ....|--- .... ....|--- .... ....

[Pattern12]
 G#3|..|B-4 ...F ....|D#4 ...F ....|G#2 .E.F ....
....|..|--- .... ....|--- .... ....|--- .... ....
....|..|R-- .... ....|R-- .... ....|R-- .... ....
....|..|--- .... ....|--- .... ....|--- .... ....
 G#3|..|B-4 ...F ....|D#4 ...F ....|G#2 .E.F ....
....|..|R-- .... ....|--- .... ....|--- .... ....
....|..|B-4 ...A ....|R-- .... ....|R-- .... ....
....|..|--- .... ....|--- .... ....|--- .... ....
 E-3|..|B-4 ...F ....|D#4 ...F ....|E-2 .E.F ....
....|..|--- .... ....|--- .... ....|--- .... ....
....|..|R-- .... ....|R-- .... ....|R-- .... ....
....|..|--- .... ....|--- .... ....|--- .... ....
 B-2|..|B-4 ...F ....|D#4 ...F ....|B-1 .E.F ....
....|..|--- .... ....|--- .... ....|--- .... ....
....|..|B-4 ...A ....|R-- .... ....|R-- .... ....
....|..|--- .... ....|--- .... ....|--- .... ....
 F#3|..|--- .... ....|E-4 ...F ....|F#2 .E.F ....
....|..|--- .... ....|--- .... ....|--- .... ....
....|..|B-4 ...A ....|D#4 ...A ....|R-- .... ....
....|..|--- .... ....|R-- .... ....|--- .... ....
 F#3|..|--- .... ....|D#4 ...F ....|F#2 .E.F ....
....|..|R-- .... ....|--- .... ....|--- .... ....
....|..|--- .... ....|R-- .... ....|R-- .... ....
....|..|--- .... ....|--- .... ....|--- .... ....
 F#2|..|--- .... ....|E-4 ...F ....|F#1 .E.F ....
....|..|--- .... ....|--- .... ....|--- .... ....
....|..|--- .... ....|D#4 ...A ....|R-- .... ....
....|..|--- .... ....|R-- .... ....|--- .... ....
 F#2|..|--- .... ....|D#4 ...F ....|F#1 .E.F ....
....|..|--- .... ....|--- .... ....|--- .... ....
....|..|--- .... ....|R-- .... ....|R-- .... ....
....|..|--- .... ....|--- .... ....|--- .... ....
 G#3|..|G#4 GFDF ....|B-3 ...F ....|G#2 .E.F ....
....|..|--- .... ....|--- .... ....|--- .... ....
....|..|--- .... ....|R-- .... ....|R-- .... ....
....|..|--- .... ....|--- .... ....|--- .... ....
 G#3|..|--- .... ....|B-3 ...F ....|G#2 .E.F ....
....|..|--- .... ....|--- .... ....|--- .... ....
....|..|G#4 ...A ....|R-- .... ....|R-- .... ....
....|..|R-- .... ....|--- .... ....|--- .... ....
 G#2|..|--- .... ....|B-3 ...F ....|G#1 .E.F ....
....|..|--- .... ....|--- .... ....|--- .... ....
....|..|--- .... ....|R-- .... ....|R-- .... ....
....|..|--- .... ....|--- .... ....|--- .... ....
 G#2|..|D#5 ...F ....|B-3 ...F ....|G#1 .E.F ....
....|..|--- .... ....|--- .... ....|--- .... ....
....|..|--- .... ....|R-- .... ....|R-- .... ....
....|..|--- .... ....|--- .... ....|--- .... ....
 D#3|..|D-5 ...F ....|B-3 ...F ....|D#2 .E.F ....
....|..|--- .... ....|--- .... ....|--- .... ....
....|..|D#5 ...A ....|R-- .... ....|R-- .... ....
....|..|--- .... ....|--- .... ....|--- .... ....
 D#3|..|--- .... ....|B-3 ...F ....|D#2 .E.F ....
....|..|--- .... ....|--- .... ....|--- .... ....
....|..|D-5 ...A ....|R-- .... ....|R-- .... ....
....|..|--- .... ....|--- .... ....|--- .... ....
 G#2|..|B-4 ...F ....|B-3 ...F ....|G#1 .E.F ....
....|..|--- .... ....|--- .... ....|--- .... ....
....|..|--- .... ....|R-- .... ....|R-- .... ....
....|..|--- .... ....|--- .... ....|--- .... ....
 G#2|..|R-- .... ....|B-3 ...F ....|G#1 .E.F ....
....|..|--- .... ....|--- .... ....|--- .... ....
....|..|B-4 ...A ....|R-- .... ....|R-- .... ....
....|..|--- .... ....|--- .... ....|--- .... ....

[Pattern13]
 G#3|..|G#4 ...F ....|B-3 ...F ....|G#2 .E.F ....
....|..|--- .... ....|--- .... ....|--- .... ....
....|..|--- .... ....|R-- .... ....|R-- .... ....
....|..|--- .... ....|--- .... ....|--- .... ....
 G#3|..|--- .... ....|B-3 ...F ....|G#2 .E.F ....
....|..|--- .... ....|--- .... ....|--- .... ....
....|..|G#4 ...A ....|R-- .... ....|R-- .... ....
....|..|R-- .... ....|--- .... ....|--- .... ....
 E-3|..|--- .... ....|B-3 ...F ....|E-2 .E.F ....
....|..|--- .... ....|--- .... ....|--- .... ....
....|..|--- .... ....|R-- .... ....|R-- .... ....
....|..|--- .... ....|--- .... ....|--- .... ....
 B-2|..|D#5 ...F ....|B-3 ...F ....|B-1 .E.F ....
....|..|--- .... ....|--- .... ....|--- .... ....
....|..|--- .... ....|R-- .... ....|R-- .... ....
....|..|--- .... ....|--- .... ....|--- .... ....
 F#3|..|D-5 ...F ....|C#4 ...F ....|F#2 .E.F ....
....|..|--- .... ....|--- .... ....|--- .... ....
....|..|D#5 ...A ....|B-3 ...A ....|R-- .... ....
....|..|R-- .... ....|R-- .... ....|--- .... ....
 F#3|..|D#5 ...F ....|B-3 ...F ....|F#2 .E.F ....
....|..|--- .... ....|--- .... ....|--- .... ....
....|..|D-5 ...A ....|R-- .... ....|R-- .... ....
....|..|R-- .... ....|--- .... ....|--- .... ....
 F#2|..|C#5 ...F ....|C#4 ...F ....|F#1 .E.F ....
....|..|--- .... ....|--- .... ....|--- .... ....
....|..|D#5 ...A ....|B-3 ...A ....|R-- .... ....
....|..|--- .... ....|R-- .... ....|--- .... ....
 F#2|..|F#4 ...F ....|B-3 ...F ....|F#1 .E.F ....
....|..|--- .... ....|--- .... ....|--- .... ....
....|..|C#5 ...A ....|R-- .... ....|R-- .... ....
....|..|R-- .... ....|--- .... ....|--- .... ....
 G#3|..|G#4 ...F ....|D#4 ...F ....|G#2 .E.F ....
....|..|--- .... ....|--- .... ....|--- .... ....
....|..|F#4 ...A ....|R-- .... ....|R-- .... ....
....|..|R-- .... ....|--- .... ....|--- .... ....
 G#3|..|B-4 UFAF ....|D#4 ...F ....|G#2 .E.F ....
....|..|R-- .... ....|--- .... ....|--- .... ....
....|..|G#4 ...A ....|R-- .... ....|R-- .... ....
....|..|--- .... ....|--- .... ....|--- .... ....
 G#2|..|B-4 ...F ....|D#4 ...F ....|G#1 .E.F ....
....|..|--- .... ....|--- .... ....|--- .... ....
....|..|R-- .... ....|R-- .... ....|R-- .... ....
....|..|--- .... ....|--- .... ....|--- .... ....
 G#2|..|B-4 ...F ....|D#4 ...F ....|G#1 .E.F ....
....|..|R-- .... ....|--- .... ....|--- .... ....
....|..|B-4 ...A ....|R-- .... ....|R-- .... ....
....|..|--- .... ....|--- .... ....|--- .... ....
 D#3|..|B-4 ...F ....|D#4 ...F ....|D#2 .E.F ....
....|..|--- .... ....|--- .... ....|--- .... ....
....|..|B-4 ...A ....|R-- .... ....|R-- .... ....
....|..|--- .... ....|--- .... ....|--- .... ....
 D#3|..|--- .... ....|D#4 ...F ....|D#2 .E.F ....
....|..|--- .... ....|--- .... ....|--- .... ....
....|..|B-4 ...A ....|R-- .... ....|R-- .... ....
....|..|R-- .... ....|--- .... ....|--- .... ....
 G#2|..|--- .... ....|D#4 ...F ....|G#1 .E.F ....
....|..|--- .... ....|--- .... ....|--- .... ....
....|..|--- .... ....|R-- .... ....|R-- .... ....
....|..|--- .... ....|--- .... ....|--- .... ....
 G#2|..|R-- .... ....|D#4 ...F ....|G#1 .E.F ....
....|..|--- .... ....|--- .... ....|--- .... ....
....|..|--- .... ....|R-- .... ....|R-- .... ....
....|..|--- .... ....|--- .... ....|--- .... ....

[Pattern14]
....|..|B-4 ...F ....|--- .... ....|--- .... ....
....|..|--- .... ....|--- .... ....|--- .... ....
 G#2|..|R-- .... ....|D#4 ...A ....|G#1 .E.A ....
....|..|--- .... ....|--- .... ....|--- .... ....
....|..|B-4 ...F ....|R-- .... ....|--- .... ....
....|..|R-- .... ....|--- .... ....|--- .... ....
....|..|B-4 ...A ....|--- .... ....|--- .... ....
....|..|--- .... ....|--- .... ....|--- .... ....
....|..|B-4 ...F ....|--- .... ....|--- .... ....
....|..|--- .... ....|--- .... ....|--- .... ....
....|..|R-- .... ....|--- .... ....|--- .... ....
....|..|--- .... ....|--- .... ....|--- .... ....
....|..|B-4 ...F ....|--- .... ....|--- .... ....
....|..|--- .... ....|--- .... ....|--- .... ....
....|..|B-4 ...A ....|--- .... ....|--- .... ....
....|..|--- .... ....|--- .... ....|--- .... ....
....|..|--- .... ....|--- .... ....|--- .... ....
....|..|--- .... ....|--- .... ....|--- .... ....
....|..|B-4 ...A ....|--- .... ....|--- .... ....
....|..|--- .... ....|--- .... ....|--- .... ....
....|..|--- .... ....|--- .... ....|--- .... ....
....|..|R-- .... ....|--- .... ....|--- .... ....
....|..|--- .... ....|--- .... ....|--- .... ....
....|..|--- .... ....|--- .... ....|--- .... ....
....|..|--- .... ....|--- .... ....|--- .... ....
....|..|--- .... ....|--- .... ....|--- .... ....
....|..|--- .... ....|--- .... ....|--- .... ....
....|..|--- .... ....|--- .... ....|--- .... ....
....|..|--- .... ....|--- .... ....|--- .... ....
....|..|--- .... ....|--- .... ....|--- .... ....
....|..|--- .... ....|--- .... ....|--- .... ....
....|..|--- .... ....|--- .... ....|--- .... ....
 G#2|..|--- .... ....|--- .... ....|G#1 .E.F ....
....|..|--- .... ....|--- .... ....|--- .... ....
....|..|--- .... ....|--- .... ....|R-- .... ....
....|..|--- .... ....|--- .... ....|--- .... ....
 G#2|..|B-5 2FAF ....|--- .... ....|G#1 .E.F ....
....|..|--- .... ....|--- .... ....|--- .... ....
....|..|--- .... ....|--- .... ....|R-- .... ....
....|..|R-- .... ....|--- .... ....|--- .... ....
 G#2|..|A#5 ...F ....|--- .... ....|G#1 .E.F ....
....|..|--- .... ....|--- .... ....|--- .... ....
....|..|B-5 ...A ....|--- .... ....|R-- .... ....
....|..|R-- .... ....|--- .... ....|--- .... ....
 G#2|..|F#5 ...F ....|--- .... ....|G#1 .E.F ....
....|..|--- .... ....|--- .... ....|--- .... ....
....|..|A#5 ...A ....|--- .... ....|R-- .... ....
....|..|--- .... ....|--- .... ....|--- .... ....
 D#3|..|--- .... ....|--- .... ....|D#2 .E.F ....
....|..|--- .... ....|--- .... ....|--- .... ....
....|..|F#5 ...A ....|--- .... ....|R-- .... ....
....|..|R-- .... ....|--- .... ....|--- .... ....
 D#3|..|B-5 ...F ....|--- .... ....|D#2 .E.F ....
....|..|--- .... ....|--- .... ....|--- .... ....
....|..|--- .... ....|--- .... ....|R-- .... ....
....|..|R-- .... ....|--- .... ....|--- .... ....
 G#2|..|A#5 ...F ....|--- .... ....|G#1 .E.F ....
....|..|--- .... ....|--- .... ....|--- .... ....
....|..|B-5 ...A ....|--- .... ....|R-- .... ....
....|..|R-- .... ....|--- .... ....|--- .... ....
 G#2|..|F#5 ...F ....|--- .... ....|G#1 .E.F ....
....|..|--- .... ....|--- .... ....|--- .... ....
....|..|A#5 ...A ....|--- .... ....|R-- .... ....
....|..|--- .... ....|--- .... ....|--- .... ....

[Pattern15]
 G#2|..|--- .... ....|--- .... ....|G#1 .E.F ....
....|..|--- .... ....|--- .... ....|--- .... ....
....|..|F#5 ...A ....|--- .... ....|R-- .... ....
....|..|R-- .... ....|--- .... ....|--- .... ....
 G#2|..|F#5 ...F ....|--- .... ....|G#1 .E.F ....
....|..|--- .... ....|--- .... ....|--- .... ....
....|..|--- .... ....|--- .... ....|R-- .... ....
....|..|R-- .... ....|--- .... ....|--- .... ....
 E-3|..|E-5 ...F ....|--- .... ....|E-2 .E.F ....
....|..|--- .... ....|--- .... ....|--- .... ....
....|..|F#5 ...A ....|--- .... ....|R-- .... ....
....|..|R-- .... ....|--- .... ....|--- .... ....
 B-2|..|E-5 ...F ....|--- .... ....|B-1 .E.F ....
....|..|--- .... ....|--- .... ....|--- .... ....
....|..|E-5 ...A ....|--- .... ....|R-- .... ....
....|..|R-- .... ....|--- .... ....|--- .... ....
 F#3|..|E-5 ...F ....|--- .... ....|F#2 .E.F ....
....|..|--- .... ....|--- .... ....|--- .... ....
....|..|E-5 ...A ....|--- .... ....|R-- .... ....
....|..|R-- .... ....|--- .... ....|--- .... ....
 F#3|..|E-5 ...F ....|--- .... ....|F#2 .E.F ....
....|..|--- .... ....|--- .... ....|--- .... ....
....|..|E-5 ...A ....|--- .... ....|R-- .... ....
....|..|R-- .... ....|--- .... ....|--- .... ....
 F#3|..|D#5 ...F ....|--- .... ....|F#2 .E.F ....
....|..|--- .... ....|--- .... ....|--- .... ....
....|..|E-5 ...A ....|--- .... ....|R-- .... ....
....|..|R-- .... ....|--- .... ....|--- .... ....
 F#3|..|E-5 ...F ....|--- .... ....|F#2 .E.F ....
....|..|--- .... ....|--- .... ....|--- .... ....
....|..|D#5 ...A ....|--- .... ....|R-- .... ....
....|..|R-- .... ....|--- .... ....|--- .... ....
 B-2|..|D#5 ...F ....|--- .... ....|B-1 .E.F ....
....|..|--- .... ....|--- .... ....|--- .... ....
....|..|E-5 ...A ....|--- .... ....|R-- .... ....
....|..|--- .... ....|--- .... ....|--- .... ....
 B-2|..|--- .... ....|--- .... ....|B-1 .E.F ....
....|..|--- .... ....|--- .... ....|--- .... ....
....|..|D#5 ...A ....|--- .... ....|R-- .... ....
....|..|R-- .... ....|--- .... ....|--- .... ....
 B-2|..|F#5 ...F ....|--- .... ....|B-1 .E.F ....
....|..|--- .... ....|--- .... ....|--- .... ....
....|..|--- .... ....|--- .... ....|R-- .... ....
....|..|R-- .... ....|--- .... ....|--- .... ....
 B-2|..|F#5 ...F ....|--- .... ....|B-1 .E.F ....
....|..|--- .... ....|--- .... ....|--- .... ....
....|..|F#5 ...A ....|--- .... ....|R-- .... ....
....|..|--- .... ....|--- .... ....|--- .... ....
 F#2|..|--- .... ....|--- .... ....|F#1 .E.F ....
....|..|--- .... ....|--- .... ....|--- .... ....
....|..|F#5 ...A ....|--- .... ....|R-- .... ....
....|..|--- .... ....|--- .... ....|--- .... ....
 F#2|..|--- .... ....|--- .... ....|F#1 .E.F ....
....|..|R-- .... ....|--- .... ....|--- .... ....
....|..|--- .... ....|--- .... ....|R-- .... ....
....|..|--- .... ....|--- .... ....|--- .... ....
 B-2|..|--- .... ....|--- .... ....|B-1 .E.F ....
....|..|--- .... ....|--- .... ....|--- .... ....
....|..|--- .... ....|--- .... ....|R-- .... ....
....|..|--- .... ....|--- .... ....|--- .... ....
 B-2|..|--- .... ....|--- .... ....|B-1 .E.F ....
....|..|--- .... ....|--- .... ....|--- .... ....
....|..|--- .... ....|--- .... ....|R-- .... ....
....|..|--- .... ....|--- .... ....|--- .... ....

[Pattern16]
 A#2|..|A#4 GFFF ....|--- .... ....|A#1 .E.F ....
....|..|--- .... ....|--- .... ....|--- .... ....
....|..|--- .... ....|--- .... ....|R-- .... ....
....|..|R-- .... ....|--- .... ....|--- .... ....
 A#2|..|B-4 ...F ....|--- .... ....|A#1 .E.F ....
....|..|--- .... ....|--- .... ....|--- .... ....
....|..|A#4 ...A ....|--- .... ....|R-- .... ....
....|..|R-- .... ....|--- .... ....|--- .... ....
 A#2|..|A#4 ...F ....|--- .... ....|A#1 .E.F ....
....|..|--- .... ....|--- .... ....|--- .... ....
....|..|B-4 ...A ....|--- .... ....|R-- .... ....
....|..|R-- .... ....|--- .... ....|--- .... ....
 A#2|..|F#4 ...F ....|--- .... ....|A#1 .E.F ....
....|..|--- .... ....|--- .... ....|--- .... ....
....|..|A#4 ...A ....|--- .... ....|R-- .... ....
....|..|R-- .... ....|--- .... ....|--- .... ....
 A#2|..|A#4 ...F ....|--- .... ....|A#1 .E.F ....
....|..|--- .... ....|--- .... ....|--- .... ....
....|..|F#4 ...A ....|--- .... ....|R-- .... ....
....|..|R-- .... ....|--- .... ....|--- .... ....
 A#2|..|B-4 ...F ....|--- .... ....|A#1 .E.F ....
....|..|--- .... ....|--- .... ....|--- .... ....
....|..|A#4 ...A ....|--- .... ....|R-- .... ....
....|..|R-- .... ....|--- .... ....|--- .... ....
 F#2|..|A#4 ...F ....|--- .... ....|F#1 .E.F ....
....|..|--- .... ....|--- .... ....|--- .... ....
....|..|B-4 ...A ....|--- .... ....|R-- .... ....
....|..|R-- .... ....|--- .... ....|--- .... ....
 F#2|..|F#4 ...F ....|--- .... ....|F#1 .E.F ....
....|..|--- .... ....|--- .... ....|--- .... ....
....|..|A#4 ...A ....|--- .... ....|R-- .... ....
....|..|R-- .... ....|--- .... ....|--- .... ....
 G#2|..|--- .... ....|--- .... ....|G#1 .E.F ....
....|..|--- .... ....|--- .... ....|--- .... ....
....|..|F#4 ...A ....|--- .... ....|R-- .... ....
....|..|--- .... ....|--- .... ....|--- .... ....
 G#2|..|B-5 2FAF ....|--- .... ....|G#1 .E.F ....
....|..|--- .... ....|--- .... ....|--- .... ....
....|..|--- .... ....|--- .... ....|R-- .... ....
....|..|R-- .... ....|--- .... ....|--- .... ....
 G#2|..|A#5 ...F ....|--- .... ....|G#1 .E.F ....
....|..|--- .... ....|--- .... ....|--- .... ....
....|..|B-5 ...A ....|--- .... ....|R-- .... ....
....|..|R-- .... ....|--- .... ....|--- .... ....
 G#2|..|F#5 ...F ....|--- .... ....|G#1 .E.F ....
....|..|--- .... ....|--- .... ....|--- .... ....
....|..|A#5 ...A ....|--- .... ....|R-- .... ....
....|..|--- .... ....|--- .... ....|--- .... ....
 D#3|..|--- .... ....|--- .... ....|D#2 .E.F ....
....|..|--- .... ....|--- .... ....|--- .... ....
....|..|F#5 ...A ....|--- .... ....|R-- .... ....
....|..|R-- .... ....|--- .... ....|--- .... ....
 D#3|..|B-5 ...F ....|--- .... ....|D#2 .E.F ....
....|..|--- .... ....|--- .... ....|--- .... ....
....|..|--- .... ....|--- .... ....|R-- .... ....
....|..|R-- .... ....|--- .... ....|--- .... ....
 G#2|..|A#5 ...F ....|--- .... ....|G#1 .E.F ....
....|..|--- .... ....|--- .... ....|--- .... ....
....|..|B-5 ...A ....|--- .... ....|R-- .... ....
....|..|R-- .... ....|--- .... ....|--- .... ....
 G#2|..|F#5 ...F ....|--- .... ....|G#1 .E.F ....
....|..|--- .... ....|--- .... ....|--- .... ....
....|..|A#5 ...A ....|--- .... ....|R-- .... ....
....|..|--- .... ....|--- .... ....|--- .... ....

[Pattern17]
 G#2|..|--- .... ....|--- .... ....|G#1 .E.F ....
....|..|--- .... ....|--- .... ....|--- .... ....
....|..|F#5 ...A ....|--- .... ....|R-- .... ....
....|..|R-- .... ....|--- .... ....|--- .... ....
 G#2|..|F#5 ...F ....|--- .... ....|G#1 .E.F ....
....|..|--- .... ....|--- .... ....|--- .... ....
....|..|--- .... ....|--- .... ....|R-- .... ....
....|..|R-- .... ....|--- .... ....|--- .... ....
 E-3|..|E-5 ...F ....|--- .... ....|E-2 .E.F ....
....|..|--- .... ....|--- .... ....|--- .... ....
....|..|F#5 ...A ....|--- .... ....|R-- .... ....
....|..|R-- .... ....|--- .... ....|--- .... ....
 B-2|..|E-5 ...F ....|--- .... ....|B-1 .E.F ....
....|..|--- .... ....|--- .... ....|--- .... ....
....|..|E-5 ...A ....|--- .... ....|R-- .... ....
....|..|R-- .... ....|--- .... ....|--- .... ....
 F#3|..|E-5 ...F ....|--- .... ....|F#2 .E.F ....
....|..|--- .... ....|--- .... ....|--- .... ....
....|..|E-5 ...A ....|--- .... ....|R-- .... ....
....|..|R-- .... ....|--- .... ....|--- .... ....
 F#3|..|E-5 ...F ....|--- .... ....|F#2 .E.F ....
....|..|--- .... ....|--- .... ....|--- .... ....
....|..|E-5 ...A ....|--- .... ....|R-- .... ....
....|..|R-- .... ....|--- .... ....|--- .... ....
 F#3|..|D#5 ...F ....|--- .... ....|F#2 .E.F ....
....|..|--- .... ....|--- .... ....|--- .... ....
....|..|E-5 ...A ....|--- .... ....|R-- .... ....
....|..|R-- .... ....|--- .... ....|--- .... ....
 F#3|..|E-5 ...F ....|--- .... ....|F#2 .E.F ....
....|..|--- .... ....|--- .... ....|--- .... ....
....|..|D#5 ...A ....|--- .... ....|R-- .... ....
....|..|R-- .... ....|--- .... ....|--- .... ....
 B-2|..|D#5 ...F ....|--- .... ....|B-1 .E.F ....
....|..|--- .... ....|--- .... ....|--- .... ....
....|..|E-5 ...A ....|--- .... ....|R-- .... ....
....|..|--- .... ....|--- .... ....|--- .... ....
 B-2|..|--- .... ....|--- .... ....|B-1 .E.F ....
....|..|--- .... ....|--- .... ....|--- .... ....
....|..|D#5 ...A ....|--- .... ....|R-- .... ....
....|..|R-- .... ....|--- .... ....|--- .... ....
 B-2|..|F#5 ...F ....|--- .... ....|B-1 .E.F ....
....|..|--- .... ....|--- .... ....|--- .... ....
....|..|--- .... ....|--- .... ....|R-- .... ....
....|..|R-- .... ....|--- .... ....|--- .... ....
 B-2|..|F#5 ...F ....|--- .... ....|B-1 .E.F ....
....|..|--- .... ....|--- .... ....|--- .... ....
....|..|F#5 ...A ....|--- .... ....|R-- .... ....
....|..|--- .... ....|--- .... ....|--- .... ....
 F#2|..|--- .... ....|--- .... ....|F#1 .E.F ....
....|..|--- .... ....|--- .... ....|--- .... ....
....|..|F#5 ...A ....|--- .... ....|R-- .... ....
....|..|--- .... ....|--- .... ....|--- .... ....
 F#2|..|--- .... ....|--- .... ....|F#1 .E.F ....
....|..|R-- .... ....|--- .... ....|--- .... ....
....|..|--- .... ....|--- .... ....|R-- .... ....
....|..|--- .... ....|--- .... ....|--- .... ....
 B-2|..|--- .... ....|--- .... ....|B-1 .E.F ....
....|..|--- .... ....|--- .... ....|--- .... ....
....|..|--- .... ....|--- .... ....|R-- .... ....
....|..|--- .... ....|--- .... ....|--- .... ....
 B-2|..|--- .... ....|--- .... ....|B-1 .E.F ....
....|..|--- .... ....|--- .... ....|--- .... ....
....|..|--- .... ....|--- .... ....|R-- .... ....
....|..|--- .... ....|--- .... ....|--- .... ....

[Pattern18]
 A#2|..|A#4 GF.F ....|--- .... ....|A#1 .E.F ....
....|..|--- .... ....|--- .... ....|--- .... ....
....|..|--- .... ....|--- .... ....|R-- .... ....
....|..|R-- .... ....|--- .... ....|--- .... ....
 A#2|..|B-4 ...F ....|--- .... ....|A#1 .E.F ....
....|..|--- .... ....|--- .... ....|--- .... ....
....|..|A#4 ...A ....|--- .... ....|R-- .... ....
....|..|R-- .... ....|--- .... ....|--- .... ....
 A#2|..|A#4 ...F ....|--- .... ....|A#1 .E.F ....
....|..|--- .... ....|--- .... ....|--- .... ....
....|..|B-4 ...A ....|--- .... ....|R-- .... ....
....|..|R-- .... ....|--- .... ....|--- .... ....
 A#2|..|F#4 ...F ....|--- .... ....|A#1 .E.F ....
....|..|--- .... ....|--- .... ....|--- .... ....
....|..|A#4 ...A ....|--- .... ....|R-- .... ....
....|..|R-- .... ....|--- .... ....|--- .... ....
 A#2|..|A#4 ...F ....|--- .... ....|A#1 .E.F ....
....|..|--- .... ....|--- .... ....|--- .... ....
....|..|F#4 ...A ....|--- .... ....|R-- .... ....
....|..|R-- .... ....|--- .... ....|--- .... ....
 A#2|..|B-4 ...F ....|--- .... ....|A#1 .E.F ....
....|..|--- .... ....|--- .... ....|--- .... ....
....|..|A#4 ...A ....|--- .... ....|R-- .... ....
....|..|R-- .... ....|--- .... ....|--- .... ....
 F#2|..|A#4 ...F ....|--- .... ....|F#1 .E.F ....
....|..|--- .... ....|--- .... ....|--- .... ....
....|..|B-4 ...A ....|--- .... ....|R-- .... ....
....|..|R-- .... ....|--- .... ....|--- .... ....
 F#2|..|F#4 ...F ....|--- .... ....|F#1 .E.F ....
....|..|--- .... ....|--- .... ....|--- .... ....
....|..|A#4 ...A ....|--- .... ....|R-- .... ....
....|..|R-- .... ....|--- .... ....|--- .... ....
 G#3|..|--- .... ....|--- .... ....|G#2 .E.F ....
....|..|--- .... ....|--- .... ....|--- .... ....
....|..|F#4 ...A ....|--- .... ....|R-- .... ....
....|..|--- .... ....|--- .... ....|--- .... ....
 G#3|..|B-4 UFAF ....|--- .... ....|G#2 .E.F ....
....|..|R-- .... ....|--- .... ....|--- .... ....
....|..|--- .... ....|--- .... ....|R-- .... ....
....|..|--- .... ....|--- .... ....|--- .... ....
 G#2|..|B-4 ...F ....|--- .... ....|G#1 .E.F ....
....|..|R-- .... ....|--- .... ....|--- .... ....
....|..|B-4 ...A ....|--- .... ....|R-- .... ....
....|..|--- .... ....|--- .... ....|--- .... ....
 G#2|..|B-4 ...F ....|--- .... ....|G#1 .E.F ....
....|..|R-- .... ....|--- .... ....|--- .... ....
....|..|B-4 ...A ....|--- .... ....|R-- .... ....
....|..|--- .... ....|--- .... ....|--- .... ....
 D#3|..|B-4 ...F ....|--- .... ....|D#2 .E.F ....
....|..|R-- .... ....|--- .... ....|--- .... ....
....|..|B-4 ...A ....|--- .... ....|R-- .... ....
....|..|--- .... ....|--- .... ....|--- .... ....
 D#3|..|B-4 ...F ....|--- .... ....|D#2 .E.F ....
....|..|R-- .... ....|--- .... ....|--- .... ....
....|..|B-4 ...A ....|--- .... ....|R-- .... ....
....|..|--- .... ....|--- .... ....|--- .... ....
 G#2|..|B-4 ...F ....|--- .... ....|G#1 .E.F ....
....|..|--- .... ....|--- .... ....|--- .... ....
....|..|B-4 ...A ....|--- .... ....|R-- .... ....
....|..|R-- .... ....|--- .... ....|--- .... ....
 G#2|..|B-4 ...F ....|--- .... ....|G#1 .E.F ....
....|..|R-- .... ....|--- .... ....|--- .... ....
....|..|B-4 ...A ....|--- .... ....|R-- .... ....
....|..|--- .... ....|--- .... ....|--- .... ....

[Pattern19]
 G#3|..|B-4 ...F ....|--- .... ....|G#2 .E.F ....
....|..|R-- .... ....|--- .... ....|--- .... ....
....|..|B-4 ...A ....|--- .... ....|R-- .... ....
....|..|--- .... ....|--- .... ....|--- .... ....
 G#3|..|B-4 ...F ....|--- .... ....|G#2 .E.F ....
....|..|R-- .... ....|--- .... ....|--- .... ....
....|..|B-4 ...A ....|--- .... ....|R-- .... ....
....|..|--- .... ....|--- .... ....|--- .... ....
 E-3|..|B-4 ...F ....|--- .... ....|E-2 .E.F ....
....|..|R-- .... ....|--- .... ....|--- .... ....
....|..|B-4 ...A ....|--- .... ....|R-- .... ....
....|..|--- .... ....|--- .... ....|--- .... ....
 B-2|..|B-4 ...F ....|--- .... ....|B-1 .E.F ....
....|..|--- .... ....|--- .... ....|--- .... ....
....|..|B-4 ...A ....|--- .... ....|R-- .... ....
....|..|R-- .... ....|--- .... ....|--- .... ....
 F#3|..|--- .... ....|--- .... ....|F#2 .E.F ....
....|..|--- .... ....|--- .... ....|--- .... ....
....|..|B-4 ...A ....|--- .... ....|R-- .... ....
....|..|--- .... ....|--- .... ....|--- .... ....
 F#3|..|--- .... ....|--- .... ....|F#2 .E.F ....
....|..|--- .... ....|--- .... ....|--- .... ....
....|..|--- .... ....|--- .... ....|R-- .... ....
....|..|--- .... ....|--- .... ....|--- .... ....
 F#2|..|--- .... ....|--- .... ....|F#1 .E.F ....
....|..|--- .... ....|--- .... ....|--- .... ....
....|..|--- .... ....|--- .... ....|R-- .... ....
....|..|--- .... ....|--- .... ....|--- .... ....
 F#2|..|--- .... ....|--- .... ....|F#1 .E.F ....
....|..|--- .... ....|--- .... ....|--- .... ....
....|..|--- .... ....|--- .... ....|R-- .... ....
....|..|--- .... ....|--- .... ....|--- .... ....
 G#3|..|--- .... ....|--- .... ....|G#2 .E.F ....
....|..|--- .... ....|--- .... ....|--- .... ....
....|..|--- .... ....|--- .... ....|R-- .... ....
....|..|--- .... ....|--- .... ....|--- .... ....
 G#3|..|B-4 ...F ....|--- .... ....|G#2 .E.F ....
....|..|R-- .... ....|--- .... ....|--- .... ....
....|..|--- .... ....|--- .... ....|R-- .... ....
....|..|--- .... ....|--- .... ....|--- .... ....
 G#2|..|B-4 ...F ....|--- .... ....|G#1 .E.F ....
....|..|R-- .... ....|--- .... ....|--- .... ....
....|..|B-4 ...A ....|--- .... ....|R-- .... ....
....|..|--- .... ....|--- .... ....|--- .... ....
 G#2|..|B-4 ...F ....|--- .... ....|G#1 .E.F ....
....|..|R-- .... ....|--- .... ....|--- .... ....
....|..|B-4 ...A ....|--- .... ....|R-- .... ....
....|..|--- .... ....|--- .... ....|--- .... ....
 D#3|..|B-4 ...F ....|--- .... ....|D#2 .E.F ....
....|..|R-- .... ....|--- .... ....|--- .... ....
....|..|B-4 ...A ....|--- .... ....|R-- .... ....
....|..|--- .... ....|--- .... ....|--- .... ....
 D#3|..|B-4 ...F ....|--- .... ....|D#2 .E.F ....
....|..|R-- .... ....|--- .... ....|--- .... ....
....|..|B-4 ...A ....|--- .... ....|R-- .... ....
....|..|--- .... ....|--- .... ....|--- .... ....
 G#2|..|B-4 ...F ....|--- .... ....|G#1 .E.F ....
....|..|--- .... ....|--- .... ....|--- .... ....
....|..|B-4 ...A ....|--- .... ....|R-- .... ....
....|..|R-- .... ....|--- .... ....|--- .... ....
 G#2|..|B-4 ...F ....|--- .... ....|G#1 .E.F ....
....|..|R-- .... ....|--- .... ....|--- .... ....
....|..|B-4 ...A ....|--- .... ....|R-- .... ....
....|..|--- .... ....|--- .... ....|--- .... ....

[Pattern20]
 G#3|..|B-4 ...F ....|--- .... ....|G#2 .E.F ....
....|..|R-- .... ....|--- .... ....|--- .... ....
....|..|B-4 ...A ....|--- .... ....|R-- .... ....
....|..|--- .... ....|--- .... ....|--- .... ....
 G#3|..|B-4 ...F ....|--- .... ....|G#2 .E.F ....
....|..|R-- .... ....|--- .... ....|--- .... ....
....|..|B-4 ...A ....|--- .... ....|R-- .... ....
....|..|--- .... ....|--- .... ....|--- .... ....
 E-3|..|B-4 ...F ....|--- .... ....|E-2 .E.F ....
....|..|R-- .... ....|--- .... ....|--- .... ....
....|..|B-4 ...A ....|--- .... ....|R-- .... ....
....|..|--- .... ....|--- .... ....|--- .... ....
 B-2|..|B-4 ...F ....|--- .... ....|B-1 .E.F ....
....|..|--- .... ....|--- .... ....|--- .... ....
....|..|B-4 ...A ....|--- .... ....|R-- .... ....
....|..|R-- .... ....|--- .... ....|--- .... ....
 F#2|..|--- .... ....|--- .... ....|F#2 .C.F ....
....|..|--- .... ....|--- .... ....|--- .... ....
....|..|B-4 ...A ....|--- .... ....|R-- .... ....
....|..|--- .... ....|--- .... ....|--- .... ....
 F#2|..|--- .... ....|--- .... ....|F#2 .C.F ....
....|..|--- .... ....|--- .... ....|--- .... ....
....|..|--- .... ....|--- .... ....|R-- .... ....
....|..|--- .... ....|--- .... ....|--- .... ....
 F#1|..|--- .... ....|--- .... ....|F#1 .C.F ....
....|..|--- .... ....|--- .... ....|--- .... ....
....|..|--- .... ....|--- .... ....|R-- .... ....
....|..|--- .... ....|--- .... ....|--- .... ....
 F#1|..|--- .... ....|--- .... ....|F#1 .C.F ....
....|..|--- .... ....|--- .... ....|--- .... ....
....|..|--- .... ....|--- .... ....|R-- .... ....
....|..|--- .... ....|--- .... ....|--- .... ....
 G#2|..|--- .... ....|--- .... ....|G#2 .C.F ....
....|..|--- .... ....|--- .... ....|--- .... ....
....|..|--- .... ....|--- .... ....|R-- .... ....
....|..|--- .... ....|--- .... ....|--- .... ....
 G#2|..|B-4 ...F ....|--- .... ....|G#2 .C.F ....
....|..|R-- .... ....|--- .... ....|--- .... ....
....|..|--- .... ....|--- .... ....|R-- .... ....
....|..|--- .... ....|--- .... ....|--- .... ....
 G#1|..|B-4 ...F ....|--- .... ....|G#1 .C.F ....
....|..|--- .... ....|--- .... ....|--- .... ....
....|..|B-4 ...A ....|--- .... ....|R-- .... ....
....|..|R-- .... ....|--- .... ....|--- .... ....
 G#1|..|B-4 ...F ....|--- .... ....|G#1 .C.F ....
....|..|R-- .... ....|--- .... ....|--- .... ....
....|..|B-4 ...A ....|--- .... ....|R-- .... ....
....|..|--- .... ....|--- .... ....|--- .... ....
 D#2|..|B-4 ...F ....|--- .... ....|D#2 .C.F ....
....|..|R-- .... ....|--- .... ....|--- .... ....
....|..|B-4 ...A ....|--- .... ....|R-- .... ....
....|..|--- .... ....|--- .... ....|--- .... ....
 D#2|..|B-4 ...F ....|--- .... ....|D#2 .C.F ....
....|..|R-- .... ....|--- .... ....|--- .... ....
....|..|B-4 ...A ....|--- .... ....|R-- .... ....
....|..|--- .... ....|--- .... ....|--- .... ....
 G#1|..|B-4 ...F ....|--- .... ....|G#1 .C.F ....
....|..|--- .... ....|--- .... ....|--- .... ....
....|..|R-- .... ....|--- .... ....|R-- .... ....
....|..|--- .... ....|--- .... ....|--- .... ....
 G#1|..|B-4 ...F ....|--- .... ....|G#1 .C.F ....
....|..|R-- .... ....|--- .... ....|--- .... ....
....|..|B-4 ...A ....|--- .... ....|R-- .... ....
....|..|--- .... ....|--- .... ....|--- .... ....

[Pattern21]
 G#3|..|B-4 ...F ....|--- .... ....|G#2 .E.F ....
....|..|--- .... ....|--- .... ....|--- .... ....
....|..|B-4 ...A ....|--- .... ....|R-- .... ....
....|..|R-- .... ....|--- .... ....|--- .... ....
 G#3|..|B-4 ...F ....|--- .... ....|G#2 .E.F ....
....|..|R-- .... ....|--- .... ....|--- .... ....
....|..|B-4 ...A ....|--- .... ....|R-- .... ....
....|..|--- .... ....|--- .... ....|--- .... ....
 E-3|..|B-4 ...F ....|--- .... ....|E-2 .E.F ....
....|..|--- .... ....|--- .... ....|--- .... ....
....|..|R-- .... ....|--- .... ....|R-- .... ....
....|..|--- .... ....|--- .... ....|--- .... ....
 B-2|..|B-4 ...F ....|--- .... ....|B-1 .E.F ....
....|..|R-- .... ....|--- .... ....|--- .... ....
....|..|B-4 ...A ....|--- .... ....|R-- .... ....
....|..|--- .... ....|--- .... ....|--- .... ....
 F#3|..|B-4 ...F ....|--- .... ....|F#2 .E.F ....
....|..|--- .... ....|--- .... ....|--- .... ....
....|..|B-4 ...A ....|--- .... ....|R-- .... ....
....|..|--- .... ....|--- .... ....|--- .... ....
 F#3|..|--- .... ....|--- .... ....|F#2 .E.F ....
....|..|R-- .... ....|--- .... ....|--- .... ....
....|..|B-4 ...A ....|--- .... ....|R-- .... ....
....|..|--- .... ....|--- .... ....|--- .... ....
 F#2|..|--- .... ....|--- .... ....|F#1 .E.F ....
....|..|--- .... ....|--- .... ....|--- .... ....
....|..|--- .... ....|--- .... ....|R-- .... ....
....|..|--- .... ....|--- .... ....|--- .... ....
 F#2|..|--- .... ....|--- .... ....|F#1 .E.F ....
....|..|--- .... ....|--- .... ....|--- .... ....
....|..|--- .... ....|--- .... ....|R-- .... ....
....|..|--- .... ....|--- .... ....|--- .... ....
 G#3|..|--- .... ....|--- .... ....|G#2 .E.F ....
....|..|--- .... ....|--- .... ....|--- .... ....
....|..|--- .... ....|--- .... ....|R-- .... ....
....|..|--- .... ....|--- .... ....|--- .... ....
 G#3|..|B-4 ...F ....|--- .... ....|G#2 .E.F ....
....|..|R-- .... ....|--- .... ....|--- .... ....
....|..|--- .... ....|--- .... ....|R-- .... ....
....|..|--- .... ....|--- .... ....|--- .... ....
 G#2|..|B-4 ...F ....|--- .... ....|G#1 .E.F ....
....|..|--- .... ....|--- .... ....|--- .... ....
....|..|B-4 ...A ....|--- .... ....|R-- .... ....
....|..|R-- .... ....|--- .... ....|--- .... ....
 G#2|..|B-4 ...F ....|--- .... ....|G#1 .E.F ....
....|..|R-- .... ....|--- .... ....|--- .... ....
....|..|B-4 ...A ....|--- .... ....|R-- .... ....
....|..|--- .... ....|--- .... ....|--- .... ....
 D#3|..|B-4 ...F ....|--- .... ....|D#2 .E.F ....
....|..|--- .... ....|--- .... ....|--- .... ....
....|..|B-4 ...A ....|--- .... ....|R-- .... ....
....|..|R-- .... ....|--- .... ....|--- .... ....
 D#3|..|B-4 ...F ....|--- .... ....|D#2 .E.F ....
....|..|R-- .... ....|--- .... ....|--- .... ....
....|..|B-4 ...A ....|--- .... ....|R-- .... ....
....|..|--- .... ....|--- .... ....|--- .... ....
 G#2|..|B-4 ...F ....|--- .... ....|G#1 .E.F ....
....|..|--- .... ....|--- .... ....|--- .... ....
....|..|R-- .... ....|--- .... ....|R-- .... ....
....|..|--- .... ....|--- .... ....|--- .... ....
 G#2|..|B-4 ...F ....|--- .... ....|G#1 .E.F ....
....|..|R-- .... ....|--- .... ....|--- .... ....
....|..|B-4 ...A ....|--- .... ....|R-- .... ....
....|..|--- .... ....|--- .... ....|--- .... ....

[Pattern22]
 G#3|..|B-4 ...F ....|--- .... ....|G#2 .E.F ....
....|..|--- .... ....|--- .... ....|--- .... ....
....|..|R-- .... ....|--- .... ....|R-- .... ....
....|..|--- .... ....|--- .... ....|--- .... ....
 G#3|..|R-- .... ....|--- .... ....|G#2 .E.F ....
....|..|--- .... ....|--- .... ....|--- .... ....
....|..|B-4 ...A ....|--- .... ....|R-- .... ....
....|..|--- .... ....|--- .... ....|--- .... ....
 E-3|..|B-4 ...F ....|--- .... ....|E-2 .E.F ....
....|..|--- .... ....|--- .... ....|--- .... ....
....|..|R-- .... ....|--- .... ....|R-- .... ....
....|..|--- .... ....|--- .... ....|--- .... ....
 B-2|..|R-- .... ....|--- .... ....|B-1 .E.F ....
....|..|--- .... ....|--- .... ....|--- .... ....
....|..|B-4 ...A ....|--- .... ....|R-- .... ....
....|..|--- .... ....|--- .... ....|--- .... ....
 F#3|..|B-4 ...F ....|--- .... ....|F#2 .E.F ....
....|..|--- .... ....|--- .... ....|--- .... ....
....|..|B-4 ...A ....|--- .... ....|R-- .... ....
....|..|R-- .... ....|--- .... ....|--- .... ....
 F#3|..|F#4 ...F ....|--- .... ....|F#2 .E.F ....
....|..|R-- .... ....|--- .... ....|--- .... ....
....|..|B-4 ...A ....|--- .... ....|R-- .... ....
....|..|--- .... ....|--- .... ....|--- .... ....
 F#2|..|F#4 ...F ....|--- .... ....|F#1 .E.F ....
....|..|R-- .... ....|--- .... ....|--- .... ....
....|..|F#4 ...A ....|--- .... ....|R-- .... ....
....|..|--- .... ....|--- .... ....|--- .... ....
 F#2|..|G#4 ...F ....|--- .... ....|F#1 .E.F ....
....|..|R-- .... ....|--- .... ....|--- .... ....
....|..|F#4 ...A ....|--- .... ....|R-- .... ....
....|..|--- .... ....|--- .... ....|--- .... ....
 G#3|..|--- .... ....|B-3 ...F ....|G#2 .E.F ....
....|..|--- .... ....|--- .... ....|--- .... ....
....|..|G#4 ...A ....|R-- .... ....|R-- .... ....
....|..|--- .... ....|--- .... ....|--- .... ....
 G#3|..|G#5 ...F ....|B-3 ...F ....|G#2 .E.F ....
....|..|--- .... ....|--- .... ....|--- .... ....
....|..|R-- .... ....|R-- .... ....|R-- .... ....
....|..|--- .... ....|--- .... ....|--- .... ....
 G#2|..|D-5 ...F ....|B-3 ...F ....|G#1 .E.F ....
....|..|--- .... ....|--- .... ....|--- .... ....
....|..|G#5 ...A ....|R-- .... ....|R-- .... ....
....|..|R-- .... ....|--- .... ....|--- .... ....
 G#2|..|D#5 ...F ....|B-3 ...F ....|G#1 .E.F ....
....|..|--- .... ....|--- .... ....|--- .... ....
....|..|R-- .... ....|R-- .... ....|R-- .... ....
....|..|--- .... ....|--- .... ....|--- .... ....
 D#3|..|E-5 ...F ....|B-3 ...F ....|D#2 .E.F ....
....|..|--- .... ....|--- .... ....|--- .... ....
....|..|R-- .... ....|R-- .... ....|R-- .... ....
....|..|--- .... ....|--- .... ....|--- .... ....
 D#3|..|D#5 ...F ....|B-3 ...F ....|D#2 .E.F ....
....|..|--- .... ....|--- .... ....|--- .... ....
....|..|R-- .... ....|R-- .... ....|R-- .... ....
....|..|--- .... ....|--- .... ....|--- .... ....
 G#2|..|D-5 ...F ....|B-3 ...F ....|G#1 .E.F ....
....|..|--- .... ....|--- .... ....|--- .... ....
....|..|D#5 ...A ....|R-- .... ....|R-- .... ....
....|..|R-- .... ....|--- .... ....|--- .... ....
 G#2|..|D#5 ...F ....|B-3 ...F ....|G#1 .E.F ....
....|..|--- .... ....|--- .... ....|--- .... ....
....|..|R-- .... ....|R-- .... ....|R-- .... ....
....|..|--- .... ....|--- .... ....|--- .... ....

[Pattern23]
 G#3|..|E-5 ...F ....|B-3 ...F ....|G#2 .E.F ....
....|..|--- .... ....|--- .... ....|--- .... ....
....|..|R-- .... ....|R-- .... ....|R-- .... ....
....|..|--- .... ....|--- .... ....|--- .... ....
 G#3|..|D#5 ...F ....|B-3 ...F ....|G#2 .E.F ....
....|..|--- .... ....|--- .... ....|--- .... ....
....|..|R-- .... ....|R-- .... ....|R-- .... ....
....|..|--- .... ....|--- .... ....|--- .... ....
 E-3|..|C#5 ...F ....|B-3 ...F ....|E-2 .E.F ....
....|..|--- .... ....|--- .... ....|--- .... ....
....|..|R-- .... ....|R-- .... ....|R-- .... ....
....|..|--- .... ....|--- .... ....|--- .... ....
 B-2|..|B-4 ...F ....|B-3 ...F ....|B-1 .E.F ....
....|..|--- .... ....|--- .... ....|--- .... ....
....|..|R-- .... ....|R-- .... ....|R-- .... ....
....|..|--- .... ....|--- .... ....|--- .... ....
 F#3|..|A#4 ...F ....|C#4 ...F ....|F#2 .E.F ....
....|..|--- .... ....|--- .... ....|--- .... ....
....|..|B-4 ...A ....|B-3 ...A ....|R-- .... ....
....|..|--- .... ....|R-- .... ....|--- .... ....
 F#3|..|--- .... ....|B-3 ...F ....|F#2 .E.F ....
....|..|--- .... ....|--- .... ....|--- .... ....
....|..|A#4 ...A ....|R-- .... ....|R-- .... ....
....|..|--- .... ....|--- .... ....|--- .... ....
 F#2|..|--- .... ....|C#4 ...F ....|F#1 .E.F ....
....|..|--- .... ....|--- .... ....|--- .... ....
....|..|--- .... ....|B-3 ...A ....|R-- .... ....
....|..|--- .... ....|R-- .... ....|--- .... ....
 F#2|..|R-- .... ....|B-3 ...F ....|F#1 .E.F ....
....|..|--- .... ....|--- .... ....|--- .... ....
....|..|--- .... ....|R-- .... ....|R-- .... ....
....|..|--- .... ....|--- .... ....|--- .... ....
 G#3|..|B-4 ...F ....|D#4 ...F ....|G#2 .E.F ....
....|..|R-- .... ....|--- .... ....|--- .... ....
....|..|B-4 ...A ....|R-- .... ....|R-- .... ....
....|..|--- .... ....|--- .... ....|--- .... ....
 G#3|..|B-4 ...F ....|D#4 ...F ....|G#2 .E.F ....
....|..|--- .... ....|--- .... ....|--- .... ....
....|..|R-- .... ....|R-- .... ....|R-- .... ....
....|..|--- .... ....|--- .... ....|--- .... ....
 G#2|..|R-- .... ....|D#4 ...F ....|G#1 .E.F ....
....|..|--- .... ....|--- .... ....|--- .... ....
....|..|B-4 ...A ....|R-- .... ....|R-- .... ....
....|..|--- .... ....|--- .... ....|--- .... ....
 G#2|..|B-4 ...F ....|D#4 ...F ....|G#1 .E.F ....
....|..|R-- .... ....|--- .... ....|--- .... ....
....|..|B-4 ...A ....|R-- .... ....|R-- .... ....
....|..|--- .... ....|--- .... ....|--- .... ....
 D#3|..|B-4 ...F ....|D#4 ...F ....|D#2 .E.F ....
....|..|--- .... ....|--- .... ....|--- .... ....
....|..|B-4 ...A ....|R-- .... ....|R-- .... ....
....|..|R-- .... ....|--- .... ....|--- .... ....
 D#3|..|B-4 ...F ....|D#4 ...F ....|D#2 .E.F ....
....|..|R-- .... ....|--- .... ....|--- .... ....
....|..|B-4 ...A ....|R-- .... ....|R-- .... ....
....|..|--- .... ....|--- .... ....|--- .... ....
 G#2|..|B-4 ...F ....|D#4 ...F ....|G#1 .E.F ....
....|..|--- .... ....|--- .... ....|--- .... ....
....|..|R-- .... ....|R-- .... ....|R-- .... ....
....|..|--- .... ....|--- .... ....|--- .... ....
 G#2|..|B-4 ...F ....|D#4 ...F ....|G#1 .E.F ....
....|..|R-- .... ....|--- .... ....|--- .... ....
....|..|B-4 ...A ....|R-- .... ....|R-- .... ....
....|..|--- .... ....|--- .... ....|--- .... ....

[Pattern24]
 G#3|..|B-4 ...F ....|D#4 ...F ....|G#2 .E.F ....
....|..|--- .... ....|--- .... ....|--- .... ....
....|..|R-- .... ....|R-- .... ....|R-- .... ....
....|..|--- .... ....|--- .... ....|--- .... ....
 G#3|..|B-4 ...F ....|D#4 ...F ....|G#2 .E.F ....
....|..|R-- .... ....|--- .... ....|--- .... ....
....|..|B-4 ...A ....|R-- .... ....|R-- .... ....
....|..|--- .... ....|--- .... ....|--- .... ....
 E-3|..|B-4 ...F ....|D#4 ...F ....|E-2 .E.F ....
....|..|R-- .... ....|--- .... ....|--- .... ....
....|..|B-4 ...A ....|R-- .... ....|R-- .... ....
....|..|--- .... ....|--- .... ....|--- .... ....
 B-2|..|B-4 ...F ....|D#4 ...F ....|B-1 .E.F ....
....|..|R-- .... ....|--- .... ....|--- .... ....
....|..|B-4 ...A ....|R-- .... ....|R-- .... ....
....|..|--- .... ....|--- .... ....|--- .... ....
 F#3|..|B-4 ...F ....|E-4 ...F ....|F#2 .E.F ....
....|..|--- .... ....|--- .... ....|--- .... ....
....|..|B-4 ...A ....|D#4 ...A ....|R-- .... ....
....|..|--- .... ....|R-- .... ....|--- .... ....
 F#3|..|--- .... ....|D#4 ...F ....|F#2 .E.F ....
....|..|R-- .... ....|--- .... ....|--- .... ....
....|..|B-4 ...A ....|R-- .... ....|R-- .... ....
....|..|--- .... ....|--- .... ....|--- .... ....
 F#2|..|--- .... ....|E-4 ...F ....|F#1 .E.F ....
....|..|--- .... ....|--- .... ....|--- .... ....
....|..|--- .... ....|D#4 ...A ....|R-- .... ....
....|..|--- .... ....|R-- .... ....|--- .... ....
 F#2|..|--- .... ....|D#4 ...F ....|F#1 .E.F ....
....|..|--- .... ....|--- .... ....|--- .... ....
....|..|--- .... ....|R-- .... ....|R-- .... ....
....|..|--- .... ....|--- .... ....|--- .... ....
 G#3|..|G#4 ...F ....|B-3 ...F ....|G#2 .E.F ....
....|..|--- .... ....|--- .... ....|--- .... ....
....|..|--- .... ....|R-- .... ....|R-- .... ....
....|..|--- .... ....|--- .... ....|--- .... ....
 G#3|..|--- .... ....|B-3 ...F ....|G#2 .E.F ....
....|..|--- .... ....|--- .... ....|--- .... ....
....|..|G#4 ...A ....|R-- .... ....|R-- .... ....
....|..|R-- .... ....|--- .... ....|--- .... ....
 G#2|..|--- .... ....|B-3 ...F ....|G#1 .E.F ....
....|..|--- .... ....|--- .... ....|--- .... ....
....|..|--- .... ....|R-- .... ....|R-- .... ....
....|..|--- .... ....|--- .... ....|--- .... ....
 G#2|..|D#5 ...F ....|B-3 ...F ....|G#1 .E.F ....
....|..|--- .... ....|--- .... ....|--- .... ....
....|..|--- .... ....|R-- .... ....|R-- .... ....
....|..|--- .... ....|--- .... ....|--- .... ....
 D#3|..|D-5 ...F ....|B-3 ...F ....|D#2 .E.F ....
....|..|--- .... ....|--- .... ....|--- .... ....
....|..|D#5 ...A ....|R-- .... ....|R-- .... ....
....|..|--- .... ....|--- .... ....|--- .... ....
 D#3|..|--- .... ....|B-3 ...F ....|D#2 .E.F ....
....|..|--- .... ....|--- .... ....|--- .... ....
....|..|D-5 ...A ....|R-- .... ....|R-- .... ....
....|..|--- .... ....|--- .... ....|--- .... ....
 G#2|..|B-4 ...F ....|B-3 ...F ....|G#1 .E.F ....
....|..|--- .... ....|--- .... ....|--- .... ....
....|..|--- .... ....|R-- .... ....|R-- .... ....
....|..|--- .... ....|--- .... ....|--- .... ....
 G#2|..|R-- .... ....|B-3 ...F ....|G#1 .E.F ....
....|..|--- .... ....|--- .... ....|--- .... ....
....|..|B-4 ...A ....|R-- .... ....|R-- .... ....
....|..|--- .... ....|--- .... ....|--- .... ....

[Pattern25]
 G#3|..|G#4 ...F ....|B-3 ...F ....|G#2 .E.F ....
....|..|--- .... ....|--- .... ....|--- .... ....
....|..|--- .... ....|R-- .... ....|R-- .... ....
....|..|--- .... ....|--- .... ....|--- .... ....
 G#3|..|--- .... ....|B-3 ...F ....|G#2 .E.F ....
....|..|--- .... ....|--- .... ....|--- .... ....
....|..|G#4 ...A ....|R-- .... ....|R-- .... ....
....|..|R-- .... ....|--- .... ....|--- .... ....
 E-3|..|--- .... ....|B-3 ...F ....|E-2 .E.F ....
....|..|--- .... ....|--- .... ....|--- .... ....
....|..|--- .... ....|R-- .... ....|R-- .... ....
....|..|--- .... ....|--- .... ....|--- .... ....
 B-2|..|D#5 ...F ....|B-3 ...F ....|B-1 .E.F ....
....|..|--- .... ....|--- .... ....|--- .... ....
....|..|--- .... ....|R-- .... ....|R-- .... ....
....|..|--- .... ....|--- .... ....|--- .... ....
 F#3|..|D-5 ...F ....|C#4 ...F ....|F#2 .E.F ....
....|..|--- .... ....|--- .... ....|--- .... ....
....|..|D#5 ...A ....|B-3 ...A ....|R-- .... ....
....|..|R-- .... ....|R-- .... ....|--- .... ....
 F#3|..|D#5 ...F ....|B-3 ...F ....|F#2 .E.F ....
....|..|--- .... ....|--- .... ....|--- .... ....
....|..|D-5 ...A ....|R-- .... ....|R-- .... ....
....|..|R-- .... ....|--- .... ....|--- .... ....
 F#2|..|C#5 ...F ....|C#4 ...F ....|F#1 .E.F ....
....|..|--- .... ....|--- .... ....|--- .... ....
....|..|D#5 ...A ....|B-3 ...A ....|R-- .... ....
....|..|--- .... ....|R-- .... ....|--- .... ....
 F#2|..|F#4 ...F ....|B-3 ...F ....|F#1 .E.F ....
....|..|--- .... ....|--- .... ....|--- .... ....
....|..|C#5 ...A ....|R-- .... ....|R-- .... ....
....|..|R-- .... ....|--- .... ....|--- .... ....
 G#3|..|G#4 ...F ....|D#4 ...F ....|G#2 .E.F ....
....|..|--- .... ....|--- .... ....|--- .... ....
....|..|F#4 ...A ....|R-- .... ....|R-- .... ....
....|..|R-- .... ....|--- .... ....|--- .... ....
 G#3|..|B-4 ...F ....|D#4 ...F ....|G#2 .E.F ....
....|..|R-- .... ....|--- .... ....|--- .... ....
....|..|G#4 ...A ....|R-- .... ....|R-- .... ....
....|..|--- .... ....|--- .... ....|--- .... ....
 G#2|..|B-4 ...F ....|D#4 ...F ....|G#1 .E.F ....
....|..|--- .... ....|--- .... ....|--- .... ....
....|..|R-- .... ....|R-- .... ....|R-- .... ....
....|..|--- .... ....|--- .... ....|--- .... ....
 G#2|..|B-4 ...F ....|D#4 ...F ....|G#1 .E.F ....
....|..|R-- .... ....|--- .... ....|--- .... ....
....|..|B-4 ...A ....|R-- .... ....|R-- .... ....
....|..|--- .... ....|--- .... ....|--- .... ....
 D#3|..|B-4 ...F ....|D#4 ...F ....|D#2 .E.F ....
....|..|--- .... ....|--- .... ....|--- .... ....
....|..|B-4 ...A ....|R-- .... ....|R-- .... ....
....|..|--- .... ....|--- .... ....|--- .... ....
 D#3|..|--- .... ....|D#4 ...F ....|D#2 .E.F ....
....|..|--- .... ....|--- .... ....|--- .... ....
....|..|B-4 ...A ....|R-- .... ....|R-- .... ....
....|..|R-- .... ....|--- .... ....|--- .... ....
 G#2|..|--- .... ....|D#4 ...F ....|G#1 .E.F ....
....|..|--- .... ....|--- .... ....|--- .... ....
....|..|--- .... ....|R-- .... ....|R-- .... ....
....|..|--- .... ....|--- .... ....|--- .... ....
 G#2|..|R-- .... ....|D#4 ...F ....|G#1 .E.F ....
....|..|--- .... ....|--- .... ....|--- .... ....
....|..|--- .... ....|R-- .... ....|R-- .... ....
....|..|--- .... ....|--- .... ....|--- .... ....

[Pattern26]
 G#3|..|B-4 ...F ....|D#4 ...F ....|G#2 .E.F ....
....|..|--- .... ....|--- .... ....|--- .... ....
....|..|R-- .... ....|R-- .... ....|R-- .... ....
....|..|--- .... ....|--- .... ....|--- .... ....
 G#3|..|B-4 ...F ....|D#4 ...F ....|G#2 .E.F ....
....|..|R-- .... ....|--- .... ....|--- .... ....
....|..|B-4 ...A ....|R-- .... ....|R-- .... ....
....|..|--- .... ....|--- .... ....|--- .... ....
 E-3|..|B-4 ...F ....|D#4 ...F ....|E-2 .E.F ....
....|..|--- .... ....|--- .... ....|--- .... ....
....|..|R-- .... ....|R-- .... ....|R-- .... ....
....|..|--- .... ....|--- .... ....|--- .... ....
 B-2|..|B-4 ...F ....|D#4 ...F ....|B-1 .E.F ....
....|..|--- .... ....|--- .... ....|--- .... ....
....|..|B-4 ...A ....|R-- .... ....|R-- .... ....
....|..|--- .... ....|--- .... ....|--- .... ....
 F#3|..|--- .... ....|E-4 ...F ....|F#2 .E.F ....
....|..|--- .... ....|--- .... ....|--- .... ....
....|..|B-4 ...A ....|D#4 ...A ....|R-- .... ....
....|..|--- .... ....|R-- .... ....|--- .... ....
 F#3|..|--- .... ....|D#4 ...F ....|F#2 .E.F ....
....|..|R-- .... ....|--- .... ....|--- .... ....
....|..|--- .... ....|R-- .... ....|R-- .... ....
....|..|--- .... ....|--- .... ....|--- .... ....
 F#2|..|--- .... ....|E-4 ...F ....|F#1 .E.F ....
....|..|--- .... ....|--- .... ....|--- .... ....
....|..|--- .... ....|D#4 ...A ....|R-- .... ....
....|..|--- .... ....|R-- .... ....|--- .... ....
 F#2|..|--- .... ....|D#4 ...F ....|F#1 .E.F ....
....|..|--- .... ....|--- .... ....|--- .... ....
....|..|--- .... ....|R-- .... ....|R-- .... ....
....|..|--- .... ....|--- .... ....|--- .... ....
 G#3|..|G#4 ...F ....|B-3 ...F ....|G#2 .E.F ....
....|..|--- .... ....|--- .... ....|--- .... ....
....|..|--- .... ....|R-- .... ....|R-- .... ....
....|..|--- .... ....|--- .... ....|--- .... ....
 G#3|..|--- .... ....|B-3 ...F ....|G#2 .E.F ....
....|..|--- .... ....|--- .... ....|--- .... ....
....|..|G#4 ...A ....|R-- .... ....|R-- .... ....
....|..|R-- .... ....|--- .... ....|--- .... ....
 G#2|..|--- .... ....|B-3 ...F ....|G#1 .E.F ....
....|..|--- .... ....|--- .... ....|--- .... ....
....|..|--- .... ....|R-- .... ....|R-- .... ....
....|..|--- .... ....|--- .... ....|--- .... ....
 G#2|..|D#5 ...F ....|B-3 ...F ....|G#1 .E.F ....
....|..|--- .... ....|--- .... ....|--- .... ....
....|..|--- .... ....|R-- .... ....|R-- .... ....
....|..|--- .... ....|--- .... ....|--- .... ....
 D#3|..|D-5 ...F ....|B-3 ...F ....|D#2 .E.F ....
....|..|--- .... ....|--- .... ....|--- .... ....
....|..|D#5 ...A ....|R-- .... ....|R-- .... ....
....|..|--- .... ....|--- .... ....|--- .... ....
 D#3|..|--- .... ....|B-3 ...F ....|D#2 .E.F ....
....|..|--- .... ....|--- .... ....|--- .... ....
....|..|D-5 ...A ....|R-- .... ....|R-- .... ....
....|..|--- .... ....|--- .... ....|--- .... ....
 G#2|..|B-4 ...F ....|B-3 ...F ....|G#1 .E.F ....
....|..|--- .... ....|--- .... ....|--- .... ....
....|..|--- .... ....|R-- .... ....|R-- .... ....
....|..|--- .... ....|--- .... ....|--- .... ....
 G#2|..|R-- .... ....|B-3 ...F ....|G#1 .E.F ....
....|..|--- .... ....|--- .... ....|--- .... ....
....|..|B-4 ...A ....|R-- .... ....|R-- .... ....
....|..|--- .... ....|--- .... ....|--- .... ....

[Pattern27]
 G#3|..|G#4 ...F ....|B-3 ...F ....|G#2 .E.F ....
....|..|--- .... ....|--- .... ....|--- .... ....
....|..|--- .... ....|R-- .... ....|R-- .... ....
....|..|--- .... ....|--- .... ....|--- .... ....
 G#3|..|--- .... ....|B-3 ...F ....|G#2 .E.F ....
....|..|--- .... ....|--- .... ....|--- .... ....
....|..|G#4 ...A ....|R-- .... ....|R-- .... ....
....|..|R-- .... ....|--- .... ....|--- .... ....
 E-3|..|--- .... ....|B-3 ...F ....|E-2 .E.F ....
....|..|--- .... ....|--- .... ....|--- .... ....
....|..|--- .... ....|R-- .... ....|R-- .... ....
....|..|--- .... ....|--- .... ....|--- .... ....
 B-2|..|D#5 ...F ....|B-3 ...F ....|B-1 .E.F ....
....|..|--- .... ....|--- .... ....|--- .... ....
....|..|--- .... ....|R-- .... ....|R-- .... ....
....|..|--- .... ....|--- .... ....|--- .... ....
 F#3|..|D-5 ...F ....|C#4 ...F ....|F#2 .E.F ....
....|..|--- .... ....|--- .... ....|--- .... ....
....|..|D#5 ...A ....|B-3 ...A ....|R-- .... ....
....|..|R-- .... ....|R-- .... ....|--- .... ....
 F#3|..|D#5 ...F ....|B-3 ...F ....|F#2 .E.F ....
....|..|--- .... ....|--- .... ....|--- .... ....
....|..|D-5 ...A ....|R-- .... ....|R-- .... ....
....|..|R-- .... ....|--- .... ....|--- .... ....
 F#2|..|C#5 ...F ....|C#4 ...F ....|F#1 .E.F ....
....|..|--- .... ....|--- .... ....|--- .... ....
....|..|D#5 ...A ....|B-3 ...A ....|R-- .... ....
....|..|--- .... ....|R-- .... ....|--- .... ....
 F#2|..|F#4 ...F ....|B-3 ...F ....|F#1 .E.F ....
....|..|--- .... ....|--- .... ....|--- .... ....
....|..|C#5 ...A ....|R-- .... ....|R-- .... ....
....|..|R-- .... ....|--- .... ....|--- .... ....
 G#3|..|G#4 ...F ....|D#4 ...F ....|G#2 .E.F ....
....|..|--- .... ....|--- .... ....|--- .... ....
....|..|F#4 ...A ....|R-- .... ....|R-- .... ....
....|..|R-- .... ....|--- .... ....|--- .... ....
 G#3|..|B-4 ...F ....|D#4 ...F ....|G#2 .E.F ....
....|..|R-- .... ....|--- .... ....|--- .... ....
....|..|G#4 ...A ....|R-- .... ....|R-- .... ....
....|..|--- .... ....|--- .... ....|--- .... ....
 G#2|..|B-4 ...F ....|D#4 ...F ....|G#1 .E.F ....
....|..|--- .... ....|--- .... ....|--- .... ....
....|..|R-- .... ....|R-- .... ....|R-- .... ....
....|..|--- .... ....|--- .... ....|--- .... ....
 G#2|..|B-4 ...F ....|D#4 ...F ....|G#1 .E.F ....
....|..|R-- .... ....|--- .... ....|--- .... ....
....|..|B-4 ...A ....|R-- .... ....|R-- .... ....
....|..|--- .... ....|--- .... ....|--- .... ....
 D#3|..|B-4 ...F ....|D#4 ...F ....|D#2 .E.F ....
....|..|--- .... ....|--- .... ....|--- .... ....
....|..|B-4 ...A ....|R-- .... ....|R-- .... ....
....|..|--- .... ....|--- .... ....|--- .... ....
 D#3|..|--- .... ....|D#4 ...F ....|D#2 .E.F ....
....|..|--- .... ....|--- .... ....|--- .... ....
....|..|B-4 ...A ....|R-- .... ....|R-- .... ....
....|..|R-- .... ....|--- .... ....|--- .... ....
 G#2|..|--- .... ....|D#4 ...F ....|G#1 .E.F ....
....|..|--- .... ....|--- .... ....|--- .... ....
....|..|--- .... ....|R-- .... ....|R-- .... ....
....|..|--- .... ....|--- .... ....|--- .... ....
 G#2|..|R-- .... ....|D#4 ...F ....|G#1 .E.F ....
....|..|--- .... ....|--- .... ....|--- .... ....
....|..|--- .... ....|R-- .... ....|R-- .... ....
....|..|--- .... ....|--- .... ....|--- .... ....

[Pattern28]
....|..|B-4 ...F ....|--- .... ....|--- .... ....
....|..|--- .... ....|--- .... ....|--- .... ....
 G#2|..|R-- .... ....|D#4 ...A ....|G#1 .E.A ....
....|..|--- .... ....|--- .... ....|--- .... ....
....|..|B-4 ...F ....|--- .... ....|--- .... ....
....|..|R-- .... ....|--- .... ....|--- .... ....
....|..|B-4 ...A ....|--- .... ....|--- .... ....
....|..|--- .... ....|--- .... ....|--- .... ....
....|..|B-4 ...F ....|--- .... ....|--- .... ....
....|..|--- .... ....|--- .... ....|--- .... ....
....|..|R-- .... ....|--- .... ....|--- .... ....
....|..|--- .... ....|--- .... ....|--- .... ....
....|..|B-4 ...F ....|--- .... ....|--- .... ....
....|..|--- .... ....|--- .... ....|--- .... ....
....|..|B-4 ...A ....|--- .... ....|--- .... ....
....|..|--- .... ....|--- .... ....|--- .... ....
....|..|--- .... ....|--- .... ....|--- .... ....
....|..|--- .... ....|--- .... ....|--- .... ....
....|..|B-4 ...A ....|--- .... ....|--- .... ....
....|..|--- .... ....|--- .... ....|--- .... ....
....|..|--- .... ....|--- .... ....|--- .... ....
....|..|R-- .... ....|--- .... ....|--- .... ....
....|..|--- .... ....|--- .... ....|--- .... ....
....|..|--- .... ....|--- .... ....|--- .... ....
....|..|--- .... ....|--- .... ....|--- .... ....
....|..|--- .... ....|--- .... ....|--- .... ....
....|..|--- .... ....|--- .... ....|--- .... ....
....|..|--- .... ....|--- .... ....|--- .... ....
....|..|--- .... ....|--- .... ....|--- .... ....
....|..|--- .... ....|--- .... ....|--- .... ....
....|..|--- .... ....|--- .... ....|--- .... ....
....|..|--- .... ....|--- .... ....|--- .... ....
 G#2|..|--- .... ....|--- .... ....|G#1 .E.F ....
....|..|--- .... ....|--- .... ....|--- .... ....
....|..|--- .... ....|--- .... ....|R-- .... ....
....|..|--- .... ....|--- .... ....|--- .... ....
 G#2|..|B-5 ...F ....|--- .... ....|G#1 .E.F ....
....|..|--- .... ....|--- .... ....|--- .... ....
....|..|--- .... ....|--- .... ....|R-- .... ....
....|..|R-- .... ....|--- .... ....|--- .... ....
 G#2|..|A#5 ...F ....|--- .... ....|G#1 .E.F ....
....|..|--- .... ....|--- .... ....|--- .... ....
....|..|B-5 ...A ....|--- .... ....|R-- .... ....
....|..|R-- .... ....|--- .... ....|--- .... ....
 G#2|..|F#5 ...F ....|--- .... ....|G#1 .E.F ....
....|..|--- .... ....|--- .... ....|--- .... ....
....|..|A#5 ...A ....|--- .... ....|R-- .... ....
....|..|--- .... ....|--- .... ....|--- .... ....
 D#3|..|--- .... ....|--- .... ....|D#2 .E.F ....
....|..|--- .... ....|--- .... ....|--- .... ....
....|..|F#5 ...A ....|--- .... ....|R-- .... ....
....|..|R-- .... ....|--- .... ....|--- .... ....
 D#3|..|B-5 ...F ....|--- .... ....|D#2 .E.F ....
....|..|--- .... ....|--- .... ....|--- .... ....
....|..|--- .... ....|--- .... ....|R-- .... ....
....|..|R-- .... ....|--- .... ....|--- .... ....
 G#2|..|A#5 ...F ....|--- .... ....|G#1 .E.F ....
....|..|--- .... ....|--- .... ....|--- .... ....
....|..|B-5 ...A ....|--- .... ....|R-- .... ....
....|..|R-- .... ....|--- .... ....|--- .... ....
 G#2|..|F#5 ...F ....|--- .... ....|G#1 .E.F ....
....|..|--- .... ....|--- .... ....|--- .... ....
....|..|A#5 ...A ....|--- .... ....|R-- .... ....
....|..|--- .... ....|--- .... ....|--- .... ....

[Pattern29]
 G#2|..|--- .... ....|--- .... ....|G#1 .E.F ....
....|..|--- .... ....|--- .... ....|--- .... ....
....|..|F#5 ...A ....|--- .... ....|R-- .... ....
....|..|R-- .... ....|--- .... ....|--- .... ....
 G#2|..|F#5 ...F ....|--- .... ....|G#1 .E.F ....
....|..|--- .... ....|--- .... ....|--- .... ....
....|..|--- .... ....|--- .... ....|R-- .... ....
....|..|R-- .... ....|--- .... ....|--- .... ....
 E-3|..|E-5 ...F ....|--- .... ....|E-2 .E.F ....
....|..|--- .... ....|--- .... ....|--- .... ....
....|..|F#5 ...A ....|--- .... ....|R-- .... ....
....|..|R-- .... ....|--- .... ....|--- .... ....
 B-2|..|E-5 ...F ....|--- .... ....|B-1 .E.F ....
....|..|--- .... ....|--- .... ....|--- .... ....
....|..|E-5 ...A ....|--- .... ....|R-- .... ....
....|..|R-- .... ....|--- .... ....|--- .... ....
 F#3|..|E-5 ...F ....|--- .... ....|F#2 .E.F ....
....|..|--- .... ....|--- .... ....|--- .... ....
....|..|E-5 ...A ....|--- .... ....|R-- .... ....
....|..|R-- .... ....|--- .... ....|--- .... ....
 F#3|..|E-5 ...F ....|--- .... ....|F#2 .E.F ....
....|..|--- .... ....|--- .... ....|--- .... ....
....|..|E-5 ...A ....|--- .... ....|R-- .... ....
....|..|R-- .... ....|--- .... ....|--- .... ....
 F#3|..|D#5 ...F ....|--- .... ....|F#2 .E.F ....
....|..|--- .... ....|--- .... ....|--- .... ....
....|..|E-5 ...A ....|--- .... ....|R-- .... ....
....|..|R-- .... ....|--- .... ....|--- .... ....
 F#3|..|E-5 ...F ....|--- .... ....|F#2 .E.F ....
....|..|--- .... ....|--- .... ....|--- .... ....
....|..|D#5 ...A ....|--- .... ....|R-- .... ....
....|..|R-- .... ....|--- .... ....|--- .... ....
 B-2|..|D#5 ...F ....|--- .... ....|B-1 .E.F ....
....|..|--- .... ....|--- .... ....|--- .... ....
....|..|E-5 ...A ....|--- .... ....|R-- .... ....
....|..|--- .... ....|--- .... ....|--- .... ....
 B-2|..|--- .... ....|--- .... ....|B-1 .E.F ....
....|..|--- .... ....|--- .... ....|--- .... ....
....|..|D#5 ...A ....|--- .... ....|R-- .... ....
....|..|R-- .... ....|--- .... ....|--- .... ....
 B-2|..|F#5 ...F ....|--- .... ....|B-1 .E.F ....
....|..|--- .... ....|--- .... ....|--- .... ....
....|..|--- .... ....|--- .... ....|R-- .... ....
....|..|R-- .... ....|--- .... ....|--- .... ....
 B-2|..|F#5 ...F ....|--- .... ....|B-1 .E.F ....
....|..|--- .... ....|--- .... ....|--- .... ....
....|..|F#5 ...A ....|--- .... ....|R-- .... ....
....|..|--- .... ....|--- .... ....|--- .... ....
 F#2|..|--- .... ....|--- .... ....|F#1 .E.F ....
....|..|--- .... ....|--- .... ....|--- .... ....
....|..|F#5 ...A ....|--- .... ....|R-- .... ....
....|..|--- .... ....|--- .... ....|--- .... ....
 F#2|..|--- .... ....|--- .... ....|F#1 .E.F ....
....|..|R-- .... ....|--- .... ....|--- .... ....
....|..|--- .... ....|--- .... ....|R-- .... ....
....|..|--- .... ....|--- .... ....|--- .... ....
 B-2|..|--- .... ....|--- .... ....|B-1 .E.F ....
....|..|--- .... ....|--- .... ....|--- .... ....
....|..|--- .... ....|--- .... ....|R-- .... ....
....|..|--- .... ....|--- .... ....|--- .... ....
 B-2|..|--- .... ....|--- .... ....|B-1 .E.F ....
....|..|--- .... ....|--- .... ....|--- .... ....
....|..|--- .... ....|--- .... ....|R-- .... ....
....|..|--- .... ....|--- .... ....|--- .... ....

[Pattern30]
 A#2|..|A#4 ...F ....|--- .... ....|A#1 .E.F ....
....|..|--- .... ....|--- .... ....|--- .... ....
....|..|--- .... ....|--- .... ....|R-- .... ....
....|..|R-- .... ....|--- .... ....|--- .... ....
 A#2|..|B-4 ...F ....|--- .... ....|A#1 .E.F ....
....|..|--- .... ....|--- .... ....|--- .... ....
....|..|A#4 ...A ....|--- .... ....|R-- .... ....
....|..|R-- .... ....|--- .... ....|--- .... ....
 A#2|..|A#4 ...F ....|--- .... ....|A#1 .E.F ....
....|..|--- .... ....|--- .... ....|--- .... ....
....|..|B-4 ...A ....|--- .... ....|R-- .... ....
....|..|R-- .... ....|--- .... ....|--- .... ....
 A#2|..|F#4 ...F ....|--- .... ....|A#1 .E.F ....
....|..|--- .... ....|--- .... ....|--- .... ....
....|..|A#4 ...A ....|--- .... ....|R-- .... ....
....|..|R-- .... ....|--- .... ....|--- .... ....
 A#2|..|A#4 ...F ....|--- .... ....|A#1 .E.F ....
....|..|--- .... ....|--- .... ....|--- .... ....
....|..|F#4 ...A ....|--- .... ....|R-- .... ....
....|..|R-- .... ....|--- .... ....|--- .... ....
 A#2|..|B-4 ...F ....|--- .... ....|A#1 .E.F ....
....|..|--- .... ....|--- .... ....|--- .... ....
....|..|A#4 ...A ....|--- .... ....|R-- .... ....
....|..|R-- .... ....|--- .... ....|--- .... ....
 F#2|..|A#4 ...F ....|--- .... ....|F#1 .E.F ....
....|..|--- .... ....|--- .... ....|--- .... ....
....|..|B-4 ...A ....|--- .... ....|R-- .... ....
....|..|R-- .... ....|--- .... ....|--- .... ....
 F#2|..|F#4 ...F ....|--- .... ....|F#1 .E.F ....
....|..|--- .... ....|--- .... ....|--- .... ....
....|..|A#4 ...A ....|--- .... ....|R-- .... ....
....|..|R-- .... ....|--- .... ....|--- .... ....
 G#2|..|--- .... ....|--- .... ....|G#1 .E.F ....
....|..|--- .... ....|--- .... ....|--- .... ....
....|..|F#4 ...A ....|--- .... ....|R-- .... ....
....|..|--- .... ....|--- .... ....|--- .... ....
 G#2|..|B-5 ...F ....|--- .... ....|G#1 .E.F ....
....|..|--- .... ....|--- .... ....|--- .... ....
....|..|--- .... ....|--- .... ....|R-- .... ....
....|..|R-- .... ....|--- .... ....|--- .... ....
 G#2|..|A#5 ...F ....|--- .... ....|G#1 .E.F ....
....|..|--- .... ....|--- .... ....|--- .... ....
....|..|B-5 ...A ....|--- .... ....|R-- .... ....
....|..|R-- .... ....|--- .... ....|--- .... ....
 G#2|..|F#5 ...F ....|--- .... ....|G#1 .E.F ....
....|..|--- .... ....|--- .... ....|--- .... ....
....|..|A#5 ...A ....|--- .... ....|R-- .... ....
....|..|--- .... ....|--- .... ....|--- .... ....
 D#3|..|--- .... ....|--- .... ....|D#2 .E.F ....
....|..|--- .... ....|--- .... ....|--- .... ....
....|..|F#5 ...A ....|--- .... ....|R-- .... ....
....|..|R-- .... ....|--- .... ....|--- .... ....
 D#3|..|B-5 ...F ....|--- .... ....|D#2 .E.F ....
....|..|--- .... ....|--- .... ....|--- .... ....
....|..|--- .... ....|--- .... ....|R-- .... ....
....|..|R-- .... ....|--- .... ....|--- .... ....
 G#2|..|A#5 ...F ....|--- .... ....|G#1 .E.F ....
....|..|--- .... ....|--- .... ....|--- .... ....
....|..|B-5 ...A ....|--- .... ....|R-- .... ....
....|..|R-- .... ....|--- .... ....|--- .... ....
 G#2|..|F#5 ...F ....|--- .... ....|G#1 .E.F ....
....|..|--- .... ....|--- .... ....|--- .... ....
....|..|A#5 ...A ....|--- .... ....|R-- .... ....
....|..|--- .... ....|--- .... ....|--- .... ....

[Pattern31]
 G#2|..|--- .... ....|--- .... ....|G#1 .E.F ....
....|..|--- .... ....|--- .... ....|--- .... ....
....|..|F#5 ...A ....|--- .... ....|R-- .... ....
....|..|R-- .... ....|--- .... ....|--- .... ....
 G#2|..|F#5 ...F ....|--- .... ....|G#1 .E.F ....
....|..|--- .... ....|--- .... ....|--- .... ....
....|..|--- .... ....|--- .... ....|R-- .... ....
....|..|R-- .... ....|--- .... ....|--- .... ....
 E-3|..|E-5 ...F ....|--- .... ....|E-2 .E.F ....
....|..|--- .... ....|--- .... ....|--- .... ....
....|..|F#5 ...A ....|--- .... ....|R-- .... ....
....|..|R-- .... ....|--- .... ....|--- .... ....
 B-2|..|E-5 ...F ....|--- .... ....|B-1 .E.F ....
....|..|--- .... ....|--- .... ....|--- .... ....
....|..|E-5 ...A ....|--- .... ....|R-- .... ....
....|..|R-- .... ....|--- .... ....|--- .... ....
 F#3|..|E-5 ...F ....|--- .... ....|F#2 .E.F ....
....|..|--- .... ....|--- .... ....|--- .... ....
....|..|E-5 ...A ....|--- .... ....|R-- .... ....
....|..|R-- .... ....|--- .... ....|--- .... ....
 F#3|..|E-5 ...F ....|--- .... ....|F#2 .E.F ....
....|..|--- .... ....|--- .... ....|--- .... ....
....|..|E-5 ...A ....|--- .... ....|R-- .... ....
....|..|R-- .... ....|--- .... ....|--- .... ....
 F#3|..|D#5 ...F ....|--- .... ....|F#2 .E.F ....
....|..|--- .... ....|--- .... ....|--- .... ....
....|..|E-5 ...A ....|--- .... ....|R-- .... ....
....|..|R-- .... ....|--- .... ....|--- .... ....
 F#3|..|E-5 ...F ....|--- .... ....|F#2 .E.F ....
....|..|--- .... ....|--- .... ....|--- .... ....
....|..|D#5 ...A ....|--- .... ....|R-- .... ....
....|..|R-- .... ....|--- .... ....|--- .... ....
 B-2|..|D#5 ...F ....|--- .... ....|B-1 .E.F ....
....|..|--- .... ....|--- .... ....|--- .... ....
....|..|E-5 ...A ....|--- .... ....|R-- .... ....
....|..|--- .... ....|--- .... ....|--- .... ....
 B-2|..|--- .... ....|--- .... ....|B-1 .E.F ....
....|..|--- .... ....|--- .... ....|--- .... ....
....|..|D#5 ...A ....|--- .... ....|R-- .... ....
....|..|R-- .... ....|--- .... ....|--- .... ....
 B-2|..|F#5 ...F ....|--- .... ....|B-1 .E.F ....
....|..|--- .... ....|--- .... ....|--- .... ....
....|..|--- .... ....|--- .... ....|R-- .... ....
....|..|R-- .... ....|--- .... ....|--- .... ....
 B-2|..|F#5 ...F ....|--- .... ....|B-1 .E.F ....
....|..|--- .... ....|--- .... ....|--- .... ....
....|..|F#5 ...A ....|--- .... ....|R-- .... ....
....|..|--- .... ....|--- .... ....|--- .... ....
 F#2|..|--- .... ....|--- .... ....|F#1 .E.F ....
....|..|--- .... ....|--- .... ....|--- .... ....
....|..|F#5 ...A ....|--- .... ....|R-- .... ....
....|..|--- .... ....|--- .... ....|--- .... ....
 F#2|..|--- .... ....|--- .... ....|F#1 .E.F ....
....|..|R-- .... ....|--- .... ....|--- .... ....
....|..|--- .... ....|--- .... ....|R-- .... ....
....|..|--- .... ....|--- .... ....|--- .... ....
 B-2|..|--- .... ....|--- .... ....|B-1 .E.F ....
....|..|--- .... ....|--- .... ....|--- .... ....
....|..|--- .... ....|--- .... ....|R-- .... ....
....|..|--- .... ....|--- .... ....|--- .... ....
 B-2|..|--- .... ....|--- .... ....|B-1 .E.F ....
....|..|--- .... ....|--- .... ....|--- .... ....
....|..|--- .... ....|--- .... ....|R-- .... ....
....|..|--- .... ....|--- .... ....|--- .... ....

[Pattern32]
 A#2|..|A#4 ...F ....|--- .... ....|A#1 .E.F ....
....|..|--- .... ....|--- .... ....|--- .... ....
....|..|--- .... ....|--- .... ....|R-- .... ....
....|..|R-- .... ....|--- .... ....|--- .... ....
 A#2|..|B-4 ...F ....|--- .... ....|A#1 .E.F ....
....|..|--- .... ....|--- .... ....|--- .... ....
....|..|A#4 ...A ....|--- .... ....|R-- .... ....
....|..|R-- .... ....|--- .... ....|--- .... ....
 A#2|..|A#4 ...F ....|--- .... ....|A#1 .E.F ....
....|..|--- .... ....|--- .... ....|--- .... ....
....|..|B-4 ...A ....|--- .... ....|R-- .... ....
....|..|R-- .... ....|--- .... ....|--- .... ....
 A#2|..|F#4 ...F ....|--- .... ....|A#1 .E.F ....
....|..|--- .... ....|--- .... ....|--- .... ....
....|..|A#4 ...A ....|--- .... ....|R-- .... ....
....|..|R-- .... ....|--- .... ....|--- .... ....
 A#2|..|A#4 ...F ....|--- .... ....|A#1 .E.F ....
....|..|--- .... ....|--- .... ....|--- .... ....
....|..|F#4 ...A ....|--- .... ....|R-- .... ....
....|..|R-- .... ....|--- .... ....|--- .... ....
 A#2|..|B-4 ...F ....|--- .... ....|A#1 .E.F ....
....|..|--- .... ....|--- .... ....|--- .... ....
....|..|A#4 ...A ....|--- .... ....|R-- .... ....
....|..|R-- .... ....|--- .... ....|--- .... ....
 F#2|..|A#4 ...F ....|--- .... ....|F#1 .E.F ....
....|..|--- .... ....|--- .... ....|--- .... ....
....|..|B-4 ...A ....|--- .... ....|R-- .... ....
....|..|R-- .... ....|--- .... ....|--- .... ....
 F#2|..|F#4 ...F ....|--- .... ....|F#1 .E.F ....
....|..|--- .... ....|--- .... ....|--- .... ....
....|..|A#4 ...A ....|--- .... ....|R-- .... ....
....|..|R-- .... ....|--- .... ....|--- .... ....
 G#3|..|--- .... ....|--- .... ....|G#2 .E.F ....
....|..|--- .... ....|--- .... ....|--- .... ....
....|..|F#4 ...A ....|--- .... ....|R-- .... ....
....|..|--- .... ....|--- .... ....|--- .... ....
 G#3|..|B-4 ...F ....|--- .... ....|G#2 .E.F ....
....|..|R-- .... ....|--- .... ....|--- .... ....
....|..|--- .... ....|--- .... ....|R-- .... ....
....|..|--- .... ....|--- .... ....|--- .... ....
 G#2|..|B-4 ...F ....|--- .... ....|G#1 .E.F ....
....|..|R-- .... ....|--- .... ....|--- .... ....
....|..|B-4 ...A ....|--- .... ....|R-- .... ....
....|..|--- .... ....|--- .... ....|--- .... ....
 G#2|..|B-4 ...F ....|--- .... ....|G#1 .E.F ....
....|..|R-- .... ....|--- .... ....|--- .... ....
....|..|B-4 ...A ....|--- .... ....|R-- .... ....
....|..|--- .... ....|--- .... ....|--- .... ....
 D#3|..|B-4 ...F ....|--- .... ....|D#2 .E.F ....
....|..|R-- .... ....|--- .... ....|--- .... ....
....|..|B-4 ...A ....|--- .... ....|R-- .... ....
....|..|--- .... ....|--- .... ....|--- .... ....
 D#3|..|B-4 ...F ....|--- .... ....|D#2 .E.F ....
....|..|R-- .... ....|--- .... ....|--- .... ....
....|..|B-4 ...A ....|--- .... ....|R-- .... ....
....|..|--- .... ....|--- .... ....|--- .... ....
 G#2|..|B-4 ...F ....|--- .... ....|G#1 .E.F ....
....|..|--- .... ....|--- .... ....|--- .... ....
....|..|B-4 ...A ....|--- .... ....|R-- .... ....
....|..|R-- .... ....|--- .... ....|--- .... ....
 G#2|..|B-4 ...F ....|--- .... ....|G#1 .E.F ....
....|..|R-- .... ....|--- .... ....|--- .... ....
....|..|B-4 ...A ....|--- .... ....|R-- .... ....
....|..|--- .... ....|--- .... ....|--- .... ....

[Pattern33]
 G#3|..|B-4 ...F ....|--- .... ....|G#2 .E.F ....
....|..|R-- .... ....|--- .... ....|--- .... ....
....|..|B-4 ...A ....|--- .... ....|R-- .... ....
....|..|--- .... ....|--- .... ....|--- .... ....
 G#3|..|B-4 ...F ....|--- .... ....|G#2 .E.F ....
....|..|R-- .... ....|--- .... ....|--- .... ....
....|..|B-4 ...A ....|--- .... ....|R-- .... ....
....|..|--- .... ....|--- .... ....|--- .... ....
 E-3|..|B-4 ...F ....|--- .... ....|E-2 .E.F ....
....|..|R-- .... ....|--- .... ....|--- .... ....
....|..|B-4 ...A ....|--- .... ....|R-- .... ....
....|..|--- .... ....|--- .... ....|--- .... ....
 B-2|..|B-4 ...F ....|--- .... ....|B-1 .E.F ....
....|..|--- .... ....|--- .... ....|--- .... ....
....|..|B-4 ...A ....|--- .... ....|R-- .... ....
....|..|R-- .... ....|--- .... ....|--- .... ....
 F#3|..|--- .... ....|--- .... ....|F#2 .E.F ....
....|..|--- .... ....|--- .... ....|--- .... ....
....|..|B-4 ...A ....|--- .... ....|R-- .... ....
....|..|--- .... ....|--- .... ....|--- .... ....
 F#3|..|--- .... ....|--- .... ....|F#2 .E.F ....
....|..|--- .... ....|--- .... ....|--- .... ....
....|..|--- .... ....|--- .... ....|R-- .... ....
....|..|--- .... ....|--- .... ....|--- .... ....
 F#2|..|--- .... ....|--- .... ....|F#1 .E.F ....
....|..|--- .... ....|--- .... ....|--- .... ....
....|..|--- .... ....|--- .... ....|R-- .... ....
....|..|--- .... ....|--- .... ....|--- .... ....
 F#2|..|--- .... ....|--- .... ....|F#1 .E.F ....
....|..|--- .... ....|--- .... ....|--- .... ....
....|..|--- .... ....|--- .... ....|R-- .... ....
....|..|--- .... ....|--- .... ....|--- .... ....
 G#3|..|--- .... ....|--- .... ....|G#2 .E.F ....
....|..|--- .... ....|--- .... ....|--- .... ....
....|..|--- .... ....|--- .... ....|R-- .... ....
....|..|--- .... ....|--- .... ....|--- .... ....
 G#3|..|B-4 ...F ....|--- .... ....|G#2 .E.F ....
....|..|R-- .... ....|--- .... ....|--- .... ....
....|..|--- .... ....|--- .... ....|R-- .... ....
....|..|--- .... ....|--- .... ....|--- .... ....
 G#2|..|B-4 ...F ....|--- .... ....|G#1 .E.F ....
....|..|R-- .... ....|--- .... ....|--- .... ....
....|..|B-4 ...A ....|--- .... ....|R-- .... ....
....|..|--- .... ....|--- .... ....|--- .... ....
 G#2|..|B-4 ...F ....|--- .... ....|G#1 .E.F ....
....|..|R-- .... ....|--- .... ....|--- .... ....
....|..|B-4 ...A ....|--- .... ....|R-- .... ....
....|..|--- .... ....|--- .... ....|--- .... ....
 D#3|..|B-4 ...F ....|--- .... ....|D#2 .E.F ....
....|..|R-- .... ....|--- .... ....|--- .... ....
....|..|B-4 ...A ....|--- .... ....|R-- .... ....
....|..|--- .... ....|--- .... ....|--- .... ....
 D#3|..|B-4 ...F ....|--- .... ....|D#2 .E.F ....
....|..|R-- .... ....|--- .... ....|--- .... ....
....|..|B-4 ...A ....|--- .... ....|R-- .... ....
....|..|--- .... ....|--- .... ....|--- .... ....
 G#2|..|B-4 ...F ....|--- .... ....|G#1 .E.F ....
....|..|--- .... ....|--- .... ....|--- .... ....
....|..|B-4 ...A ....|--- .... ....|R-- .... ....
....|..|R-- .... ....|--- .... ....|--- .... ....
 G#2|..|B-4 ...F ....|--- .... ....|G#1 .E.F ....
....|..|R-- .... ....|--- .... ....|--- .... ....
....|..|B-4 ...A ....|--- .... ....|R-- .... ....
....|..|--- .... ....|--- .... ....|--- .... ....

[Pattern34]
 G#3|..|B-4 ...F ....|--- .... ....|G#2 .E.F ....
....|..|R-- .... ....|--- .... ....|--- .... ....
....|..|B-4 ...A ....|--- .... ....|R-- .... ....
....|..|--- .... ....|--- .... ....|--- .... ....
 G#3|..|B-4 ...F ....|--- .... ....|G#2 .E.F ....
....|..|R-- .... ....|--- .... ....|--- .... ....
....|..|B-4 ...A ....|--- .... ....|R-- .... ....
....|..|--- .... ....|--- .... ....|--- .... ....
 E-3|..|B-4 ...F ....|--- .... ....|E-2 .E.F ....
....|..|R-- .... ....|--- .... ....|--- .... ....
....|..|B-4 ...A ....|--- .... ....|R-- .... ....
....|..|--- .... ....|--- .... ....|--- .... ....
 B-2|..|B-4 ...F ....|--- .... ....|B-1 .E.F ....
....|..|--- .... ....|--- .... ....|--- .... ....
....|..|B-4 ...A ....|--- .... ....|R-- .... ....
....|..|R-- .... ....|--- .... ....|--- .... ....
 F#3|..|--- .... ....|--- .... ....|F#2 .E.F ....
....|..|--- .... ....|--- .... ....|--- .... ....
....|..|B-4 ...A ....|--- .... ....|R-- .... ....
....|..|--- .... ....|--- .... ....|--- .... ....
 F#3|..|--- .... ....|--- .... ....|F#2 .E.F ....
....|..|--- .... ....|--- .... ....|--- .... ....
....|..|--- .... ....|--- .... ....|R-- .... ....
....|..|--- .... ....|--- .... ....|--- .... ....
 F#2|..|--- .... ....|--- .... ....|F#1 .E.F ....
....|..|--- .... ....|--- .... ....|--- .... ....
....|..|--- .... ....|--- .... ....|R-- .... ....
....|..|--- .... ....|--- .... ....|--- .... ....
 F#2|..|--- .... ....|--- .... ....|F#1 .E.F ....
....|..|--- .... ....|--- .... ....|--- .... ....
....|..|--- .... ....|--- .... ....|R-- .... ....
....|..|--- .... ....|--- .... ....|--- .... ....
 G#3|..|--- .... ....|--- .... ....|G#2 .E.F ....
....|..|--- .... ....|--- .... ....|--- .... ....
....|..|--- .... ....|--- .... ....|R-- .... ....
....|..|--- .... ....|--- .... ....|--- .... ....
 G#3|..|--- .... ....|--- .... ....|G#2 .E.F ....
....|..|--- .... ....|--- .... ....|--- .... ....
....|..|--- .... ....|--- .... ....|R-- .... ....
....|..|--- .... ....|--- .... ....|--- .... ....
 G#2|..|--- .... ....|--- .... ....|G#1 .E.F ....
....|..|--- .... ....|--- .... ....|--- .... ....
....|..|--- .... ....|--- .... ....|R-- .... ....
....|..|--- .... ....|--- .... ....|--- .... ....
 G#2|..|--- .... ....|--- .... ....|G#1 .E.F ....
....|..|--- .... ....|--- .... ....|--- .... ....
....|..|--- .... ....|--- .... ....|R-- .... ....
....|..|--- .... ....|--- .... ....|--- .... ....
 D#3|..|--- .... ....|--- .... ....|D#2 .E.F ....
....|..|--- .... ....|--- .... ....|--- .... ....
....|..|--- .... ....|--- .... ....|R-- .... ....
....|..|--- .... ....|--- .... ....|--- .... ....
 D#3|..|--- .... ....|--- .... ....|D#2 .E.F ....
....|..|--- .... ....|--- .... ....|--- .... ....
....|..|--- .... ....|--- .... ....|R-- .... ....
....|..|--- .... ....|--- .... ....|--- .... ....
 G#2|..|--- .... ....|--- .... ....|G#1 .E.F ....
....|..|--- .... ....|--- .... ....|--- .... ....
....|..|--- .... ....|--- .... ....|R-- .... ....
....|..|--- .... ....|--- .... ....|--- .... ....
 G#2|..|--- .... ....|--- .... ....|G#1 .E.F ....
....|..|--- .... ....|--- .... ....|--- .... ....
....|..|--- .... ....|--- .... ....|R-- .... ....
....|..|--- .... ....|--- .... ....|--- .... ....

[Pattern35]
 G#3|..|--- .... ....|--- .... ....|G#2 .E.F ....
....|..|--- .... ....|--- .... ....|--- .... ....
....|..|--- .... ....|--- .... ....|R-- .... ....
....|..|--- .... ....|--- .... ....|--- .... ....
 G#3|..|--- .... ....|--- .... ....|G#2 .E.F ....
....|..|--- .... ....|--- .... ....|--- .... ....
....|..|--- .... ....|--- .... ....|R-- .... ....
....|..|--- .... ....|--- .... ....|--- .... ....
 E-3|..|--- .... ....|--- .... ....|E-2 .E.F ....
....|..|--- .... ....|--- .... ....|--- .... ....
....|..|--- .... ....|--- .... ....|R-- .... ....
....|..|--- .... ....|--- .... ....|--- .... ....
 B-2|..|--- .... ....|--- .... ....|B-1 .E.F ....
....|..|--- .... ....|--- .... ....|--- .... ....
....|..|--- .... ....|--- .... ....|R-- .... ....
....|..|--- .... ....|--- .... ....|--- .... ....
 F#3|..|--- .... ....|--- .... ....|F#2 .E.F ....
....|..|--- .... ....|--- .... ....|--- .... ....
....|..|--- .... ....|--- .... ....|R-- .... ....
....|..|--- .... ....|--- .... ....|--- .... ....
 F#3|..|--- .... ....|--- .... ....|F#2 .E.F ....
....|..|--- .... ....|--- .... ....|--- .... ....
....|..|--- .... ....|--- .... ....|R-- .... ....
....|..|--- .... ....|--- .... ....|--- .... ....
 F#2|..|--- .... ....|--- .... ....|F#1 .E.F ....
....|..|--- .... ....|--- .... ....|--- .... ....
....|..|--- .... ....|--- .... ....|R-- .... ....
....|..|--- .... ....|--- .... ....|--- .... ....
 F#2|..|--- .... ....|--- .... ....|F#1 .E.F ....
....|..|--- .... ....|--- .... ....|--- .... ....
....|..|--- .... ....|--- .... ....|R-- .... ....
....|..|--- .... ....|--- .... ....|--- .... ....
 G#3|..|--- .... ....|--- .... ....|G#2 .E.F ....
....|..|--- .... ....|--- .... ....|--- .... ....
....|..|--- .... ....|--- .... ....|R-- .... ....
....|..|--- .... ....|--- .... ....|--- .... ....
 G#3|..|--- .... ....|--- .... ....|G#2 .E.F ....
....|..|--- .... ....|--- .... ....|--- .... ....
....|..|--- .... ....|--- .... ....|R-- .... ....
....|..|--- .... ....|--- .... ....|--- .... ....
 G#2|..|--- .... ....|--- .... ....|G#1 .E.F ....
....|..|--- .... ....|--- .... ....|--- .... ....
....|..|--- .... ....|--- .... ....|R-- .... ....
....|..|--- .... ....|--- .... ....|--- .... ....
 G#2|..|--- .... ....|--- .... ....|G#1 .E.F ....
....|..|--- .... ....|--- .... ....|--- .... ....
....|..|--- .... ....|--- .... ....|R-- .... ....
....|..|--- .... ....|--- .... ....|--- .... ....
 D#3|..|--- .... ....|--- .... ....|D#2 .E.F ....
....|..|--- .... ....|--- .... ....|--- .... ....
....|..|--- .... ....|--- .... ....|R-- .... ....
....|..|--- .... ....|--- .... ....|--- .... ....
 D#3|..|--- .... ....|--- .... ....|D#2 .E.F ....
....|..|--- .... ....|--- .... ....|--- .... ....
....|..|--- .... ....|--- .... ....|R-- .... ....
....|..|--- .... ....|--- .... ....|--- .... ....
 G#2|..|--- .... ....|--- .... ....|G#1 .E.F ....
....|..|--- .... ....|--- .... ....|--- .... ....
....|..|--- .... ....|--- .... ....|R-- .... ....
....|..|--- .... ....|--- .... ....|--- .... ....
 G#2|..|--- .... ....|--- .... ....|G#1 .E.F ....
....|..|--- .... ....|--- .... ....|--- .... ....
....|..|--- .... ....|--- .... ....|R-- .... ....
....|..|--- .... ....|--- .... ....|--- .... ....

[Pattern36]
 G#3|..|--- .... ....|--- .... ....|G#2 .E.F ....
....|..|--- .... ....|--- .... ....|--- .... ....
....|..|--- .... ....|--- .... ....|R-- .... ....
....|..|--- .... ....|--- .... ....|--- .... ....
 G#3|..|--- .... ....|--- .... ....|G#2 .E.F ....
....|..|--- .... ....|--- .... ....|--- .... ....
....|..|--- .... ....|--- .... ....|R-- .... ....
....|..|--- .... ....|--- .... ....|--- .... ....
 E-3|..|--- .... ....|--- .... ....|E-2 .E.F ....
....|..|--- .... ....|--- .... ....|--- .... ....
....|..|--- .... ....|--- .... ....|R-- .... ....
....|..|--- .... ....|--- .... ....|--- .... ....
 B-2|..|--- .... ....|--- .... ....|B-1 .E.F ....
....|..|--- .... ....|--- .... ....|--- .... ....
....|..|--- .... ....|--- .... ....|R-- .... ....
....|..|--- .... ....|--- .... ....|--- .... ....
 F#3|..|--- .... ....|--- .... ....|F#2 .E.F ....
....|..|--- .... ....|--- .... ....|--- .... ....
....|..|--- .... ....|--- .... ....|R-- .... ....
....|..|--- .... ....|--- .... ....|--- .... ....
 F#3|..|--- .... ....|--- .... ....|F#2 .E.F ....
....|..|--- .... ....|--- .... ....|--- .... ....
....|..|--- .... ....|--- .... ....|R-- .... ....
....|..|--- .... ....|--- .... ....|--- .... ....
 F#2|..|D#5 ...F ....|--- .... ....|F#1 .E.F ....
....|..|--- .... ....|--- .... ....|--- .... ....
....|..|R-- .... ....|--- .... ....|R-- .... ....
....|..|--- .... ....|--- .... ....|--- .... ....
 F#2|..|D#5 ...F ....|--- .... ....|F#1 .E.F ....
....|..|--- .... ....|--- .... ....|--- .... ....
....|..|D#5 ...A ....|--- .... ....|R-- .... ....
....|..|R-- .... ....|--- .... ....|--- .... ....
 G#3|..|G#5 ...F ....|--- .... ....|G#2 .E.F ....
....|..|R-- .... ....|--- .... ....|--- .... ....
....|..|D#5 ...A ....|--- .... ....|R-- .... ....
....|..|--- .... ....|--- .... ....|--- .... ....
 G#3|..|G#5 ...F ....|--- .... ....|G#2 .E.F ....
....|..|--- .... ....|--- .... ....|--- .... ....
....|..|G#5 ...A ....|--- .... ....|R-- .... ....
....|..|R-- .... ....|--- .... ....|--- .... ....
 G#2|..|F#5 ...F ....|--- .... ....|G#1 .E.F ....
....|..|R-- .... ....|--- .... ....|--- .... ....
....|..|G#5 ...A ....|--- .... ....|R-- .... ....
....|..|--- .... ....|--- .... ....|--- .... ....
 G#2|..|F#5 ...F ....|--- .... ....|G#1 .E.F ....
....|..|--- .... ....|--- .... ....|--- .... ....
....|..|F#5 ...A ....|--- .... ....|R-- .... ....
....|..|R-- .... ....|--- .... ....|--- .... ....
 D#3|..|D#5 ...F ....|--- .... ....|D#2 .E.F ....
....|..|--- .... ....|--- .... ....|--- .... ....
....|..|R-- .... ....|--- .... ....|R-- .... ....
....|..|--- .... ....|--- .... ....|--- .... ....
 D#3|..|G#4 ...F ....|--- .... ....|D#2 .E.F ....
....|..|--- .... ....|--- .... ....|--- .... ....
....|..|D#5 ...A ....|--- .... ....|R-- .... ....
....|..|R-- .... ....|--- .... ....|--- .... ....
 G#2|..|D#5 ...F ....|--- .... ....|G#1 .E.F ....
....|..|--- .... ....|--- .... ....|--- .... ....
....|..|R-- .... ....|--- .... ....|R-- .... ....
....|..|--- .... ....|--- .... ....|--- .... ....
 G#2|..|F#5 ...F ....|--- .... ....|G#1 .E.F ....
....|..|--- .... ....|--- .... ....|--- .... ....
....|..|D#5 ...A ....|--- .... ....|R-- .... ....
....|..|R-- .... ....|--- .... ....|--- .... ....

[Pattern37]
 G#3|..|D#5 ...F ....|--- .... ....|G#2 .E.F ....
....|..|--- .... ....|--- .... ....|--- .... ....
....|..|R-- .... ....|--- .... ....|R-- .... ....
....|..|--- .... ....|--- .... ....|--- .... ....
 G#3|..|G#4 ...F ....|--- .... ....|G#2 .E.F ....
....|..|--- .... ....|--- .... ....|--- .... ....
....|..|D#5 ...A ....|--- .... ....|R-- .... ....
....|..|R-- .... ....|--- .... ....|--- .... ....
 E-3|..|D#5 ...F ....|--- .... ....|E-2 .E.F ....
....|..|--- .... ....|--- .... ....|--- .... ....
....|..|R-- .... ....|--- .... ....|R-- .... ....
....|..|--- .... ....|--- .... ....|--- .... ....
 B-2|..|D#5 ...F ....|--- .... ....|B-1 .E.F ....
....|..|--- .... ....|--- .... ....|--- .... ....
....|..|R-- .... ....|--- .... ....|R-- .... ....
....|..|--- .... ....|--- .... ....|--- .... ....
 F#3|..|D#5 ...F ....|--- .... ....|F#2 .E.F ....
....|..|--- .... ....|--- .... ....|--- .... ....
....|..|R-- .... ....|--- .... ....|R-- .... ....
....|..|--- .... ....|--- .... ....|--- .... ....
 F#3|..|F#5 ...F ....|--- .... ....|F#2 .E.F ....
....|..|--- .... ....|--- .... ....|--- .... ....
....|..|R-- .... ....|--- .... ....|R-- .... ....
....|..|--- .... ....|--- .... ....|--- .... ....
 F#2|..|D#5 ...F ....|--- .... ....|F#1 .E.F ....
....|..|R-- .... ....|--- .... ....|--- .... ....
....|..|F#5 ...A ....|--- .... ....|R-- .... ....
....|..|--- .... ....|--- .... ....|--- .... ....
 F#2|..|D#5 ...F ....|--- .... ....|F#1 .E.F ....
....|..|R-- .... ....|--- .... ....|--- .... ....
....|..|D#5 ...A ....|--- .... ....|R-- .... ....
....|..|--- .... ....|--- .... ....|--- .... ....
 G#3|..|D#5 ...F ....|--- .... ....|G#2 .E.F ....
....|..|--- .... ....|--- .... ....|--- .... ....
....|..|D#5 ...A ....|--- .... ....|R-- .... ....
....|..|R-- .... ....|--- .... ....|--- .... ....
 G#3|..|G#4 ...F ....|--- .... ....|G#2 .E.F ....
....|..|--- .... ....|--- .... ....|--- .... ....
....|..|D#5 ...A ....|--- .... ....|R-- .... ....
....|..|R-- .... ....|--- .... ....|--- .... ....
 G#2|..|D#5 ...F ....|--- .... ....|G#1 .E.F ....
....|..|--- .... ....|--- .... ....|--- .... ....
....|..|G#4 ...A ....|--- .... ....|R-- .... ....
....|..|--- .... ....|--- .... ....|--- .... ....
 G#2|..|G#5 ...F ....|--- .... ....|G#1 .E.F ....
....|..|R-- .... ....|--- .... ....|--- .... ....
....|..|D#5 ...A ....|--- .... ....|R-- .... ....
....|..|--- .... ....|--- .... ....|--- .... ....
 D#3|..|D#5 ...F ....|--- .... ....|D#2 .E.F ....
....|..|--- .... ....|--- .... ....|--- .... ....
....|..|G#5 ...A ....|--- .... ....|R-- .... ....
....|..|R-- .... ....|--- .... ....|--- .... ....
 D#3|..|G#4 ...F ....|--- .... ....|D#2 .E.F ....
....|..|--- .... ....|--- .... ....|--- .... ....
....|..|R-- .... ....|--- .... ....|R-- .... ....
....|..|--- .... ....|--- .... ....|--- .... ....
 G#2|..|D#5 ...F ....|--- .... ....|G#1 .E.F ....
....|..|R-- .... ....|--- .... ....|--- .... ....
....|..|G#4 ...A ....|--- .... ....|R-- .... ....
....|..|--- .... ....|--- .... ....|--- .... ....
 G#2|..|D#5 ...F ....|--- .... ....|G#1 .E.F ....
....|..|R-- .... ....|--- .... ....|--- .... ....
....|..|D#5 ...A ....|--- .... ....|R-- .... ....
....|..|--- .... ....|--- .... ....|--- .... ....

[Pattern38]
 G#3|..|D#5 ...F ....|--- .... ....|G#2 .E.F ....
....|..|--- .... ....|--- .... ....|--- .... ....
....|..|D#5 ...A ....|--- .... ....|R-- .... ....
....|..|R-- .... ....|--- .... ....|--- .... ....
 G#3|..|F#5 ...F ....|--- .... ....|G#2 .E.F ....
....|..|R-- .... ....|--- .... ....|--- .... ....
....|..|D#5 ...A ....|--- .... ....|R-- .... ....
....|..|--- .... ....|--- .... ....|--- .... ....
 E-3|..|D#5 ...F ....|--- .... ....|E-2 .E.F ....
....|..|--- .... ....|--- .... ....|--- .... ....
....|..|F#5 ...A ....|--- .... ....|R-- .... ....
....|..|R-- .... ....|--- .... ....|--- .... ....
 B-2|..|F#5 ...F ....|--- .... ....|B-1 .E.F ....
....|..|R-- .... ....|--- .... ....|--- .... ....
....|..|D#5 ...A ....|--- .... ....|R-- .... ....
....|..|--- .... ....|--- .... ....|--- .... ....
 F#3|..|D#5 ...F ....|--- .... ....|F#2 .E.F ....
....|..|--- .... ....|--- .... ....|--- .... ....
....|..|F#5 ...A ....|--- .... ....|R-- .... ....
....|..|R-- .... ....|--- .... ....|--- .... ....
 F#3|..|F#5 ...F ....|--- .... ....|F#2 .E.F ....
....|..|R-- .... ....|--- .... ....|--- .... ....
....|..|D#5 ...A ....|--- .... ....|R-- .... ....
....|..|--- .... ....|--- .... ....|--- .... ....
 F#2|..|D#5 ...F ....|--- .... ....|F#1 .E.F ....
....|..|--- .... ....|--- .... ....|--- .... ....
....|..|F#5 ...A ....|--- .... ....|R-- .... ....
....|..|R-- .... ....|--- .... ....|--- .... ....
 F#2|..|F#5 ...F ....|--- .... ....|F#1 .E.F ....
....|..|--- .... ....|--- .... ....|--- .... ....
....|..|D#5 ...A ....|--- .... ....|R-- .... ....
....|..|R-- .... ....|--- .... ....|--- .... ....
 G#3|..|--- .... ....|--- .... ....|G#2 .E.F ....
....|..|--- .... ....|--- .... ....|--- .... ....
....|..|F#5 ...A ....|--- .... ....|R-- .... ....
....|..|--- .... ....|--- .... ....|--- .... ....
 G#3|..|D#5 ...F ....|--- .... ....|G#2 .E.F ....
....|..|--- .... ....|--- .... ....|--- .... ....
....|..|R-- .... ....|--- .... ....|R-- .... ....
....|..|--- .... ....|--- .... ....|--- .... ....
 G#2|..|D#5 ...F ....|--- .... ....|G#1 .E.F ....
....|..|R-- .... ....|--- .... ....|--- .... ....
....|..|D#5 ...A ....|--- .... ....|R-- .... ....
....|..|--- .... ....|--- .... ....|--- .... ....
 G#2|..|D#5 ...F ....|--- .... ....|G#1 .E.F ....
....|..|--- .... ....|--- .... ....|--- .... ....
....|..|D#5 ...A ....|--- .... ....|R-- .... ....
....|..|R-- .... ....|--- .... ....|--- .... ....
 D#3|..|G#5 ...F ....|--- .... ....|D#2 .E.F ....
....|..|R-- .... ....|--- .... ....|--- .... ....
....|..|D#5 ...A ....|--- .... ....|R-- .... ....
....|..|--- .... ....|--- .... ....|--- .... ....
 D#3|..|G#5 ...F ....|--- .... ....|D#2 .E.F ....
....|..|--- .... ....|--- .... ....|--- .... ....
....|..|G#5 ...A ....|--- .... ....|R-- .... ....
....|..|R-- .... ....|--- .... ....|--- .... ....
 G#2|..|F#5 ...F ....|--- .... ....|G#1 .E.F ....
....|..|R-- .... ....|--- .... ....|--- .... ....
....|..|G#5 ...A ....|--- .... ....|R-- .... ....
....|..|--- .... ....|--- .... ....|--- .... ....
 G#2|..|F#5 ...F ....|--- .... ....|G#1 .E.F ....
....|..|R-- .... ....|--- .... ....|--- .... ....
....|..|F#5 ...A ....|--- .... ....|R-- .... ....
....|..|--- .... ....|--- .... ....|--- .... ....

[Pattern39]
 G#3|..|D#5 ...F ....|--- .... ....|G#2 .E.F ....
....|..|R-- .... ....|--- .... ....|--- .... ....
....|..|F#5 ...A ....|--- .... ....|R-- .... ....
....|..|--- .... ....|--- .... ....|--- .... ....
 G#3|..|D#5 ...F ....|--- .... ....|G#2 .E.F ....
....|..|R-- .... ....|--- .... ....|--- .... ....
....|..|D#5 ...A ....|--- .... ....|R-- .... ....
....|..|--- .... ....|--- .... ....|--- .... ....
 E-3|..|D#5 ...F ....|--- .... ....|E-2 .E.F ....
....|..|R-- .... ....|--- .... ....|--- .... ....
....|..|D#5 ...A ....|--- .... ....|R-- .... ....
....|..|--- .... ....|--- .... ....|--- .... ....
 B-2|..|D#5 ...F ....|--- .... ....|B-1 .E.F ....
....|..|R-- .... ....|--- .... ....|--- .... ....
....|..|D#5 ...A ....|--- .... ....|R-- .... ....
....|..|--- .... ....|--- .... ....|--- .... ....
 F#3|..|D#5 ...F ....|--- .... ....|F#2 .E.F ....
....|..|--- .... ....|--- .... ....|--- .... ....
....|..|R-- .... ....|--- .... ....|R-- .... ....
....|..|--- .... ....|--- .... ....|--- .... ....
 F#3|..|F#5 ...F ....|--- .... ....|F#2 .E.F ....
....|..|R-- .... ....|--- .... ....|--- .... ....
....|..|D#5 ...A ....|--- .... ....|R-- .... ....
....|..|--- .... ....|--- .... ....|--- .... ....
 F#2|..|D#5 ...F ....|--- .... ....|F#1 .E.F ....
....|..|--- .... ....|--- .... ....|--- .... ....
....|..|F#5 ...A ....|--- .... ....|R-- .... ....
....|..|R-- .... ....|--- .... ....|--- .... ....
 F#2|..|F#5 ...F ....|--- .... ....|F#1 .E.F ....
....|..|R-- .... ....|--- .... ....|--- .... ....
....|..|D#5 ...A ....|--- .... ....|R-- .... ....
....|..|--- .... ....|--- .... ....|--- .... ....
 G#3|..|D#5 ...F ....|--- .... ....|G#2 .E.F ....
....|..|--- .... ....|--- .... ....|--- .... ....
....|..|F#5 ...A ....|--- .... ....|R-- .... ....
....|..|R-- .... ....|--- .... ....|--- .... ....
 G#3|..|C#5 ...F ....|--- .... ....|G#2 .E.F ....
....|..|--- .... ....|--- .... ....|--- .... ....
....|..|D#5 ...A ....|--- .... ....|R-- .... ....
....|..|R-- .... ....|--- .... ....|--- .... ....
 G#2|..|D#5 ...F ....|--- .... ....|G#1 .E.F ....
....|..|--- .... ....|--- .... ....|--- .... ....
....|..|R-- .... ....|--- .... ....|R-- .... ....
....|..|--- .... ....|--- .... ....|--- .... ....
 G#2|..|D#5 ...F ....|--- .... ....|G#1 .E.F ....
....|..|R-- .... ....|--- .... ....|--- .... ....
....|..|D#5 ...A ....|--- .... ....|R-- .... ....
....|..|--- .... ....|--- .... ....|--- .... ....
 D#3|..|F#5 ...F ....|--- .... ....|D#2 .E.F ....
....|..|--- .... ....|--- .... ....|--- .... ....
....|..|R-- .... ....|--- .... ....|R-- .... ....
....|..|F#5 ...F ....|--- .... ....|--- .... ....
 D#3|..|--- .... ....|--- .... ....|D#2 .E.F ....
....|..|R-- .... ....|--- .... ....|--- .... ....
....|..|F#5 ...A ....|--- .... ....|R-- .... ....
....|..|F#5 ...F ....|--- .... ....|--- .... ....
 G#2|..|--- .... ....|--- .... ....|G#1 .E.F ....
....|..|R-- .... ....|--- .... ....|--- .... ....
....|..|--- .... ....|--- .... ....|R-- .... ....
....|..|D#5 ...F ....|--- .... ....|--- .... ....
 G#2|..|--- .... ....|--- .... ....|G#1 .E.F ....
....|..|F#5 ...A ....|--- .... ....|--- .... ....
....|..|--- .... ....|--- .... ....|R-- .... ....
....|..|--- .... ....|--- .... ....|--- .... ....

[Pattern40]
 G#3|..|--- .... ....|--- .... ....|G#2 .E.F ....
....|..|D#5 ...A ....|--- .... ....|--- .... ....
....|..|--- .... ....|--- .... ....|R-- .... ....
....|..|G#4 ...F ....|--- .... ....|--- .... ....
 G#3|..|--- .... ....|--- .... ....|G#2 .E.F ....
....|..|R-- .... ....|--- .... ....|--- .... ....
....|..|--- .... ....|--- .... ....|R-- .... ....
....|..|--- .... ....|--- .... ....|--- .... ....
 E-3|..|D#5 ...F ....|--- .... ....|E-2 .E.F ....
....|..|R-- .... ....|--- .... ....|--- .... ....
....|..|--- .... ....|--- .... ....|R-- .... ....
....|..|--- .... ....|--- .... ....|--- .... ....
 B-2|..|D#5 ...F ....|--- .... ....|B-1 .E.F ....
....|..|R-- .... ....|--- .... ....|--- .... ....
....|..|D#5 ...A ....|--- .... ....|R-- .... ....
....|..|--- .... ....|--- .... ....|--- .... ....
 F#3|..|D#5 ...F ....|--- .... ....|F#2 .E.F ....
....|..|R-- .... ....|--- .... ....|--- .... ....
....|..|D#5 ...A ....|--- .... ....|R-- .... ....
....|..|--- .... ....|--- .... ....|--- .... ....
 F#3|..|D#5 ...F ....|--- .... ....|F#2 .E.F ....
....|..|R-- .... ....|--- .... ....|--- .... ....
....|..|D#5 ...A ....|--- .... ....|R-- .... ....
....|..|--- .... ....|--- .... ....|--- .... ....
 F#2|..|D#5 ...F ....|--- .... ....|F#1 .E.F ....
....|..|R-- .... ....|--- .... ....|--- .... ....
....|..|D#5 ...A ....|--- .... ....|R-- .... ....
....|..|--- .... ....|--- .... ....|--- .... ....
 F#2|..|G#4 ...F ....|--- .... ....|F#1 .E.F ....
....|..|R-- .... ....|--- .... ....|--- .... ....
....|..|D#5 ...A ....|--- .... ....|R-- .... ....
....|..|--- .... ....|--- .... ....|--- .... ....
 G#2|..|--- .... ....|--- .... ....|G#1 .E.F ....
....|..|--- .... ....|--- .... ....|--- .... ....
....|..|G#4 ...A ....|--- .... ....|R-- .... ....
....|..|--- .... ....|--- .... ....|--- .... ....
 G#2|..|B-5 ...F ....|--- .... ....|G#1 .E.F ....
....|..|--- .... ....|--- .... ....|--- .... ....
....|..|--- .... ....|--- .... ....|R-- .... ....
....|..|R-- .... ....|--- .... ....|--- .... ....
 G#2|..|A#5 ...F ....|--- .... ....|G#1 .E.F ....
....|..|--- .... ....|--- .... ....|--- .... ....
....|..|B-5 ...A ....|--- .... ....|R-- .... ....
....|..|R-- .... ....|--- .... ....|--- .... ....
 G#2|..|F#5 ...F ....|--- .... ....|G#1 .E.F ....
....|..|--- .... ....|--- .... ....|--- .... ....
....|..|A#5 ...A ....|--- .... ....|R-- .... ....
....|..|--- .... ....|--- .... ....|--- .... ....
 D#3|..|--- .... ....|--- .... ....|D#2 .E.F ....
....|..|--- .... ....|--- .... ....|--- .... ....
....|..|F#5 ...A ....|--- .... ....|R-- .... ....
....|..|R-- .... ....|--- .... ....|--- .... ....
 D#3|..|B-5 ...F ....|--- .... ....|D#2 .E.F ....
....|..|--- .... ....|--- .... ....|--- .... ....
....|..|--- .... ....|--- .... ....|R-- .... ....
....|..|R-- .... ....|--- .... ....|--- .... ....
 G#2|..|A#5 ...F ....|--- .... ....|G#1 .E.F ....
....|..|--- .... ....|--- .... ....|--- .... ....
....|..|B-5 ...A ....|--- .... ....|R-- .... ....
....|..|R-- .... ....|--- .... ....|--- .... ....
 G#2|..|F#5 ...F ....|--- .... ....|G#1 .E.F ....
....|..|--- .... ....|--- .... ....|--- .... ....
....|..|A#5 ...A ....|--- .... ....|R-- .... ....
....|..|--- .... ....|--- .... ....|--- .... ....

[Pattern41]
 G#2|..|--- .... ....|--- .... ....|G#1 .E.F ....
....|..|--- .... ....|--- .... ....|--- .... ....
....|..|F#5 ...A ....|--- .... ....|R-- .... ....
....|..|R-- .... ....|--- .... ....|--- .... ....
 G#2|..|F#5 ...F ....|--- .... ....|G#1 .E.F ....
....|..|--- .... ....|--- .... ....|--- .... ....
....|..|--- .... ....|--- .... ....|R-- .... ....
....|..|R-- .... ....|--- .... ....|--- .... ....
 E-3|..|E-5 ...F ....|--- .... ....|E-2 .E.F ....
....|..|--- .... ....|--- .... ....|--- .... ....
....|..|F#5 ...A ....|--- .... ....|R-- .... ....
....|..|R-- .... ....|--- .... ....|--- .... ....
 B-2|..|E-5 ...F ....|--- .... ....|B-1 .E.F ....
....|..|--- .... ....|--- .... ....|--- .... ....
....|..|E-5 ...A ....|--- .... ....|R-- .... ....
....|..|R-- .... ....|--- .... ....|--- .... ....
 F#3|..|E-5 ...F ....|--- .... ....|F#2 .E.F ....
....|..|--- .... ....|--- .... ....|--- .... ....
....|..|E-5 ...A ....|--- .... ....|R-- .... ....
....|..|R-- .... ....|--- .... ....|--- .... ....
 F#3|..|E-5 ...F ....|--- .... ....|F#2 .E.F ....
....|..|--- .... ....|--- .... ....|--- .... ....
....|..|E-5 ...A ....|--- .... ....|R-- .... ....
....|..|R-- .... ....|--- .... ....|--- .... ....
 F#3|..|D#5 ...F ....|--- .... ....|F#2 .E.F ....
....|..|--- .... ....|--- .... ....|--- .... ....
....|..|E-5 ...A ....|--- .... ....|R-- .... ....
....|..|R-- .... ....|--- .... ....|--- .... ....
 F#3|..|E-5 ...F ....|--- .... ....|F#2 .E.F ....
....|..|--- .... ....|--- .... ....|--- .... ....
....|..|D#5 ...A ....|--- .... ....|R-- .... ....
....|..|R-- .... ....|--- .... ....|--- .... ....
 B-2|..|D#5 ...F ....|--- .... ....|B-1 .E.F ....
....|..|--- .... ....|--- .... ....|--- .... ....
....|..|E-5 ...A ....|--- .... ....|R-- .... ....
....|..|--- .... ....|--- .... ....|--- .... ....
 B-2|..|--- .... ....|--- .... ....|B-1 .E.F ....
....|..|--- .... ....|--- .... ....|--- .... ....
....|..|D#5 ...A ....|--- .... ....|R-- .... ....
....|..|R-- .... ....|--- .... ....|--- .... ....
 B-2|..|F#5 ...F ....|--- .... ....|B-1 .E.F ....
....|..|--- .... ....|--- .... ....|--- .... ....
....|..|--- .... ....|--- .... ....|R-- .... ....
....|..|R-- .... ....|--- .... ....|--- .... ....
 B-2|..|F#5 ...F ....|--- .... ....|B-1 .E.F ....
....|..|--- .... ....|--- .... ....|--- .... ....
....|..|F#5 ...A ....|--- .... ....|R-- .... ....
....|..|--- .... ....|--- .... ....|--- .... ....
 F#2|..|--- .... ....|--- .... ....|F#1 .E.F ....
....|..|--- .... ....|--- .... ....|--- .... ....
....|..|F#5 ...A ....|--- .... ....|R-- .... ....
....|..|--- .... ....|--- .... ....|--- .... ....
 F#2|..|--- .... ....|--- .... ....|F#1 .E.F ....
....|..|R-- .... ....|--- .... ....|--- .... ....
....|..|--- .... ....|--- .... ....|R-- .... ....
....|..|--- .... ....|--- .... ....|--- .... ....
 B-2|..|--- .... ....|--- .... ....|B-1 .E.F ....
....|..|--- .... ....|--- .... ....|--- .... ....
....|..|--- .... ....|--- .... ....|R-- .... ....
....|..|--- .... ....|--- .... ....|--- .... ....
 B-2|..|--- .... ....|--- .... ....|B-1 .E.F ....
....|..|--- .... ....|--- .... ....|--- .... ....
....|..|--- .... ....|--- .... ....|R-- .... ....
....|..|--- .... ....|--- .... ....|--- .... ....

[Pattern42]
 A#2|..|A#4 ...F ....|--- .... ....|A#1 .E.F ....
....|..|--- .... ....|--- .... ....|--- .... ....
....|..|--- .... ....|--- .... ....|R-- .... ....
....|..|R-- .... ....|--- .... ....|--- .... ....
 A#2|..|B-4 ...F ....|--- .... ....|A#1 .E.F ....
....|..|--- .... ....|--- .... ....|--- .... ....
....|..|A#4 ...A ....|--- .... ....|R-- .... ....
....|..|R-- .... ....|--- .... ....|--- .... ....
 A#2|..|A#4 ...F ....|--- .... ....|A#1 .E.F ....
....|..|--- .... ....|--- .... ....|--- .... ....
....|..|B-4 ...A ....|--- .... ....|R-- .... ....
....|..|R-- .... ....|--- .... ....|--- .... ....
 A#2|..|F#4 ...F ....|--- .... ....|A#1 .E.F ....
....|..|--- .... ....|--- .... ....|--- .... ....
....|..|A#4 ...A ....|--- .... ....|R-- .... ....
....|..|R-- .... ....|--- .... ....|--- .... ....
 A#2|..|A#4 ...F ....|--- .... ....|A#1 .E.F ....
....|..|--- .... ....|--- .... ....|--- .... ....
....|..|F#4 ...A ....|--- .... ....|R-- .... ....
....|..|R-- .... ....|--- .... ....|--- .... ....
 A#2|..|B-4 ...F ....|--- .... ....|A#1 .E.F ....
....|..|--- .... ....|--- .... ....|--- .... ....
....|..|A#4 ...A ....|--- .... ....|R-- .... ....
....|..|R-- .... ....|--- .... ....|--- .... ....
 F#2|..|A#4 ...F ....|--- .... ....|F#1 .E.F ....
....|..|--- .... ....|--- .... ....|--- .... ....
....|..|B-4 ...A ....|--- .... ....|R-- .... ....
....|..|R-- .... ....|--- .... ....|--- .... ....
 F#2|..|F#4 ...F ....|--- .... ....|F#1 .E.F ....
....|..|--- .... ....|--- .... ....|--- .... ....
....|..|A#4 ...A ....|--- .... ....|R-- .... ....
....|..|R-- .... ....|--- .... ....|--- .... ....
 G#2|..|--- .... ....|--- .... ....|G#1 .E.F ....
....|..|--- .... ....|--- .... ....|--- .... ....
....|..|F#4 ...A ....|--- .... ....|R-- .... ....
....|..|--- .... ....|--- .... ....|--- .... ....
 G#2|..|B-5 ...F ....|--- .... ....|G#1 .E.F ....
....|..|--- .... ....|--- .... ....|--- .... ....
....|..|--- .... ....|--- .... ....|R-- .... ....
....|..|R-- .... ....|--- .... ....|--- .... ....
 G#2|..|A#5 ...F ....|--- .... ....|G#1 .E.F ....
....|..|--- .... ....|--- .... ....|--- .... ....
....|..|B-5 ...A ....|--- .... ....|R-- .... ....
....|..|R-- .... ....|--- .... ....|--- .... ....
 G#2|..|F#5 ...F ....|--- .... ....|G#1 .E.F ....
....|..|--- .... ....|--- .... ....|--- .... ....
....|..|A#5 ...A ....|--- .... ....|R-- .... ....
....|..|--- .... ....|--- .... ....|--- .... ....
 D#3|..|--- .... ....|--- .... ....|D#2 .E.F ....
....|..|--- .... ....|--- .... ....|--- .... ....
....|..|F#5 ...A ....|--- .... ....|R-- .... ....
....|..|R-- .... ....|--- .... ....|--- .... ....
 D#3|..|B-5 ...F ....|--- .... ....|D#2 .E.F ....
....|..|--- .... ....|--- .... ....|--- .... ....
....|..|--- .... ....|--- .... ....|R-- .... ....
....|..|R-- .... ....|--- .... ....|--- .... ....
 G#2|..|A#5 ...F ....|--- .... ....|G#1 .E.F ....
....|..|--- .... ....|--- .... ....|--- .... ....
....|..|B-5 ...A ....|--- .... ....|R-- .... ....
....|..|R-- .... ....|--- .... ....|--- .... ....
 G#2|..|F#5 ...F ....|--- .... ....|G#1 .E.F ....
....|..|--- .... ....|--- .... ....|--- .... ....
....|..|A#5 ...A ....|--- .... ....|R-- .... ....
....|..|--- .... ....|--- .... ....|--- .... ....

[Pattern43]
 G#2|..|--- .... ....|--- .... ....|G#1 .E.F ....
....|..|--- .... ....|--- .... ....|--- .... ....
....|..|F#5 ...A ....|--- .... ....|R-- .... ....
....|..|R-- .... ....|--- .... ....|--- .... ....
 G#2|..|F#5 ...F ....|--- .... ....|G#1 .E.F ....
....|..|--- .... ....|--- .... ....|--- .... ....
....|..|--- .... ....|--- .... ....|R-- .... ....
....|..|R-- .... ....|--- .... ....|--- .... ....
 E-3|..|E-5 ...F ....|--- .... ....|E-2 .E.F ....
....|..|--- .... ....|--- .... ....|--- .... ....
....|..|F#5 ...A ....|--- .... ....|R-- .... ....
....|..|R-- .... ....|--- .... ....|--- .... ....
 B-2|..|E-5 ...F ....|--- .... ....|B-1 .E.F ....
....|..|--- .... ....|--- .... ....|--- .... ....
....|..|E-5 ...A ....|--- .... ....|R-- .... ....
....|..|R-- .... ....|--- .... ....|--- .... ....
 F#3|..|E-5 ...F ....|--- .... ....|F#2 .E.F ....
....|..|--- .... ....|--- .... ....|--- .... ....
....|..|E-5 ...A ....|--- .... ....|R-- .... ....
....|..|R-- .... ....|--- .... ....|--- .... ....
 F#3|..|E-5 ...F ....|--- .... ....|F#2 .E.F ....
....|..|--- .... ....|--- .... ....|--- .... ....
....|..|E-5 ...A ....|--- .... ....|R-- .... ....
....|..|R-- .... ....|--- .... ....|--- .... ....
 F#3|..|D#5 ...F ....|--- .... ....|F#2 .E.F ....
....|..|--- .... ....|--- .... ....|--- .... ....
....|..|E-5 ...A ....|--- .... ....|R-- .... ....
....|..|R-- .... ....|--- .... ....|--- .... ....
 F#3|..|E-5 ...F ....|--- .... ....|F#2 .E.F ....
....|..|--- .... ....|--- .... ....|--- .... ....
....|..|D#5 ...A ....|--- .... ....|R-- .... ....
....|..|R-- .... ....|--- .... ....|--- .... ....
 B-2|..|D#5 ...F ....|--- .... ....|B-1 .E.F ....
....|..|--- .... ....|--- .... ....|--- .... ....
....|..|E-5 ...A ....|--- .... ....|R-- .... ....
....|..|--- .... ....|--- .... ....|--- .... ....
 B-2|..|--- .... ....|--- .... ....|B-1 .E.F ....
....|..|--- .... ....|--- .... ....|--- .... ....
....|..|D#5 ...A ....|--- .... ....|R-- .... ....
....|..|R-- .... ....|--- .... ....|--- .... ....
 B-2|..|F#5 ...F ....|--- .... ....|B-1 .E.F ....
....|..|--- .... ....|--- .... ....|--- .... ....
....|..|--- .... ....|--- .... ....|R-- .... ....
....|..|R-- .... ....|--- .... ....|--- .... ....
 B-2|..|F#5 ...F ....|--- .... ....|B-1 .E.F ....
....|..|--- .... ....|--- .... ....|--- .... ....
....|..|F#5 ...A ....|--- .... ....|R-- .... ....
....|..|--- .... ....|--- .... ....|--- .... ....
 F#2|..|--- .... ....|--- .... ....|F#1 .E.F ....
....|..|--- .... ....|--- .... ....|--- .... ....
....|..|F#5 ...A ....|--- .... ....|R-- .... ....
....|..|--- .... ....|--- .... ....|--- .... ....
 F#2|..|--- .... ....|--- .... ....|F#1 .E.F ....
....|..|R-- .... ....|--- .... ....|--- .... ....
....|..|--- .... ....|--- .... ....|R-- .... ....
....|..|--- .... ....|--- .... ....|--- .... ....
 B-2|..|--- .... ....|--- .... ....|B-1 .E.F ....
....|..|--- .... ....|--- .... ....|--- .... ....
....|..|--- .... ....|--- .... ....|R-- .... ....
....|..|--- .... ....|--- .... ....|--- .... ....
 B-2|..|--- .... ....|--- .... ....|B-1 .E.F ....
....|..|--- .... ....|--- .... ....|--- .... ....
....|..|--- .... ....|--- .... ....|R-- .... ....
....|..|--- .... ....|--- .... ....|--- .... ....

[Pattern44]
 A#2|..|A#4 ...F ....|--- .... ....|A#1 .E.F ....
....|..|--- .... ....|--- .... ....|--- .... ....
....|..|--- .... ....|--- .... ....|R-- .... ....
....|..|R-- .... ....|--- .... ....|--- .... ....
 A#2|..|B-4 ...F ....|--- .... ....|A#1 .E.F ....
....|..|--- .... ....|--- .... ....|--- .... ....
....|..|A#4 ...A ....|--- .... ....|R-- .... ....
....|..|R-- .... ....|--- .... ....|--- .... ....
 A#2|..|A#4 ...F ....|--- .... ....|A#1 .E.F ....
....|..|--- .... ....|--- .... ....|--- .... ....
....|..|B-4 ...A ....|--- .... ....|R-- .... ....
....|..|R-- .... ....|--- .... ....|--- .... ....
 A#2|..|F#4 ...F ....|--- .... ....|A#1 .E.F ....
....|..|--- .... ....|--- .... ....|--- .... ....
....|..|A#4 ...A ....|--- .... ....|R-- .... ....
....|..|R-- .... ....|--- .... ....|--- .... ....
 A#2|..|A#4 ...F ....|--- .... ....|A#1 .E.F ....
....|..|--- .... ....|--- .... ....|--- .... ....
....|..|F#4 ...A ....|--- .... ....|R-- .... ....
....|..|R-- .... ....|--- .... ....|--- .... ....
 A#2|..|B-4 ...F ....|--- .... ....|A#1 .E.F ....
....|..|--- .... ....|--- .... ....|--- .... ....
....|..|A#4 ...A ....|--- .... ....|R-- .... ....
....|..|R-- .... ....|--- .... ....|--- .... ....
 F#2|..|A#4 ...F ....|--- .... ....|F#1 .E.F ....
....|..|--- .... ....|--- .... ....|--- .... ....
....|..|B-4 ...A ....|--- .... ....|R-- .... ....
....|..|R-- .... ....|--- .... ....|--- .... ....
 F#2|..|F#4 ...F ....|--- .... ....|F#1 .E.F ....
....|..|--- .... ....|--- .... ....|--- .... ....
....|..|A#4 ...A ....|--- .... ....|R-- .... ....
....|..|R-- .... ....|--- .... ....|--- .... ....
 G#2|..|--- .... ....|--- .... ....|G#1 .E.F ....
....|..|--- .... ....|--- .... ....|--- .... ....
....|..|F#4 ...A ....|--- .... ....|R-- .... ....
....|..|--- .... ....|--- .... ....|--- .... ....
 G#2|..|B-5 ...F ....|--- .... ....|G#1 .E.F ....
....|..|--- .... ....|--- .... ....|--- .... ....
....|..|--- .... ....|--- .... ....|R-- .... ....
....|..|R-- .... ....|--- .... ....|--- .... ....
 G#2|..|A#5 ...F ....|--- .... ....|G#1 .E.F ....
....|..|--- .... ....|--- .... ....|--- .... ....
....|..|B-5 ...A ....|--- .... ....|R-- .... ....
....|..|R-- .... ....|--- .... ....|--- .... ....
 G#2|..|F#5 ...F ....|--- .... ....|G#1 .E.F ....
....|..|--- .... ....|--- .... ....|--- .... ....
....|..|A#5 ...A ....|--- .... ....|R-- .... ....
....|..|--- .... ....|--- .... ....|--- .... ....
 D#3|..|--- .... ....|--- .... ....|D#2 .E.F ....
....|..|--- .... ....|--- .... ....|--- .... ....
....|..|F#5 ...A ....|--- .... ....|R-- .... ....
....|..|R-- .... ....|--- .... ....|--- .... ....
 D#3|..|B-5 ...F ....|--- .... ....|D#2 .E.F ....
....|..|--- .... ....|--- .... ....|--- .... ....
....|..|--- .... ....|--- .... ....|R-- .... ....
....|..|R-- .... ....|--- .... ....|--- .... ....
 G#2|..|A#5 ...F ....|--- .... ....|G#1 .E.F ....
....|..|--- .... ....|--- .... ....|--- .... ....
....|..|B-5 ...A ....|--- .... ....|R-- .... ....
....|..|R-- .... ....|--- .... ....|--- .... ....
 G#2|..|F#5 ...F ....|--- .... ....|G#1 .E.F ....
....|..|--- .... ....|--- .... ....|--- .... ....
....|..|A#5 ...A ....|--- .... ....|R-- .... ....
....|..|--- .... ....|--- .... ....|--- .... ....

[Pattern45]
 G#2|..|--- .... ....|--- .... ....|G#1 .E.F ....
....|..|--- .... ....|--- .... ....|--- .... ....
....|..|F#5 ...A ....|--- .... ....|R-- .... ....
....|..|R-- .... ....|--- .... ....|--- .... ....
 G#2|..|F#5 ...F ....|--- .... ....|G#1 .E.F ....
....|..|--- .... ....|--- .... ....|--- .... ....
....|..|--- .... ....|--- .... ....|R-- .... ....
....|..|R-- .... ....|--- .... ....|--- .... ....
 E-3|..|E-5 ...F ....|--- .... ....|E-2 .E.F ....
....|..|--- .... ....|--- .... ....|--- .... ....
....|..|F#5 ...A ....|--- .... ....|R-- .... ....
....|..|R-- .... ....|--- .... ....|--- .... ....
 B-2|..|E-5 ...F ....|--- .... ....|B-1 .E.F ....
....|..|--- .... ....|--- .... ....|--- .... ....
....|..|E-5 ...A ....|--- .... ....|R-- .... ....
....|..|R-- .... ....|--- .... ....|--- .... ....
 F#3|..|E-5 ...F ....|--- .... ....|F#2 .E.F ....
....|..|--- .... ....|--- .... ....|--- .... ....
....|..|E-5 ...A ....|--- .... ....|R-- .... ....
....|..|R-- .... ....|--- .... ....|--- .... ....
 F#3|..|E-5 ...F ....|--- .... ....|F#2 .E.F ....
....|..|--- .... ....|--- .... ....|--- .... ....
....|..|E-5 ...A ....|--- .... ....|R-- .... ....
....|..|R-- .... ....|--- .... ....|--- .... ....
 F#3|..|D#5 ...F ....|--- .... ....|F#2 .E.F ....
....|..|--- .... ....|--- .... ....|--- .... ....
....|..|E-5 ...A ....|--- .... ....|R-- .... ....
....|..|R-- .... ....|--- .... ....|--- .... ....
 F#3|..|E-5 ...F ....|--- .... ....|F#2 .E.F ....
....|..|--- .... ....|--- .... ....|--- .... ....
....|..|D#5 ...A ....|--- .... ....|R-- .... ....
....|..|R-- .... ....|--- .... ....|--- .... ....
 B-2|..|D#5 ...F ....|--- .... ....|B-1 .E.F ....
....|..|--- .... ....|--- .... ....|--- .... ....
....|..|E-5 ...A ....|--- .... ....|R-- .... ....
....|..|--- .... ....|--- .... ....|--- .... ....
 B-2|..|--- .... ....|--- .... ....|B-1 .E.F ....
....|..|--- .... ....|--- .... ....|--- .... ....
....|..|D#5 ...A ....|--- .... ....|R-- .... ....
....|..|R-- .... ....|--- .... ....|--- .... ....
 B-2|..|F#5 ...F ....|--- .... ....|B-1 .E.F ....
....|..|--- .... ....|--- .... ....|--- .... ....
....|..|--- .... ....|--- .... ....|R-- .... ....
....|..|R-- .... ....|--- .... ....|--- .... ....
 B-2|..|F#5 ...F ....|--- .... ....|B-1 .E.F ....
....|..|--- .... ....|--- .... ....|--- .... ....
....|..|F#5 ...A ....|--- .... ....|R-- .... ....
....|..|--- .... ....|--- .... ....|--- .... ....
 F#2|..|--- .... ....|--- .... ....|F#1 .E.F ....
....|..|--- .... ....|--- .... ....|--- .... ....
....|..|F#5 ...A ....|--- .... ....|R-- .... ....
....|..|--- .... ....|--- .... ....|--- .... ....
 F#2|..|--- .... ....|--- .... ....|F#1 .E.F ....
....|..|R-- .... ....|--- .... ....|--- .... ....
....|..|--- .... ....|--- .... ....|R-- .... ....
....|..|--- .... ....|--- .... ....|--- .... ....
 B-2|..|--- .... ....|--- .... ....|B-1 .E.F ....
....|..|--- .... ....|--- .... ....|--- .... ....
....|..|--- .... ....|--- .... ....|R-- .... ....
....|..|--- .... ....|--- .... ....|--- .... ....
 B-2|..|--- .... ....|--- .... ....|B-1 .E.F ....
....|..|--- .... ....|--- .... ....|--- .... ....
....|..|--- .... ....|--- .... ....|R-- .... ....
....|..|--- .... ....|--- .... ....|--- .... ....

[Pattern46]
 A#2|..|A#4 ...F ....|--- .... ....|A#1 .E.F ....
....|..|--- .... ....|--- .... ....|--- .... ....
....|..|--- .... ....|--- .... ....|R-- .... ....
....|..|R-- .... ....|--- .... ....|--- .... ....
 A#2|..|B-4 ...F ....|--- .... ....|A#1 .E.F ....
....|..|--- .... ....|--- .... ....|--- .... ....
....|..|A#4 ...A ....|--- .... ....|R-- .... ....
....|..|R-- .... ....|--- .... ....|--- .... ....
 A#2|..|A#4 ...F ....|--- .... ....|A#1 .E.F ....
....|..|--- .... ....|--- .... ....|--- .... ....
....|..|B-4 ...A ....|--- .... ....|R-- .... ....
....|..|R-- .... ....|--- .... ....|--- .... ....
 A#2|..|F#4 ...F ....|--- .... ....|A#1 .E.F ....
....|..|--- .... ....|--- .... ....|--- .... ....
....|..|A#4 ...A ....|--- .... ....|R-- .... ....
....|..|R-- .... ....|--- .... ....|--- .... ....
 A#2|..|A#4 ...F ....|--- .... ....|A#1 .E.F ....
....|..|--- .... ....|--- .... ....|--- .... ....
....|..|F#4 ...A ....|--- .... ....|R-- .... ....
....|..|R-- .... ....|--- .... ....|--- .... ....
 A#2|..|B-4 ...F ....|--- .... ....|A#1 .E.F ....
....|..|--- .... ....|--- .... ....|--- .... ....
....|..|A#4 ...A ....|--- .... ....|R-- .... ....
....|..|R-- .... ....|--- .... ....|--- .... ....
 F#2|..|A#4 ...F ....|--- .... ....|F#1 .E.F ....
....|..|--- .... ....|--- .... ....|--- .... ....
....|..|B-4 ...A ....|--- .... ....|R-- .... ....
....|..|R-- .... ....|--- .... ....|--- .... ....
 F#2|..|F#4 ...F ....|--- .... ....|F#1 .E.F ....
....|..|--- .... ....|--- .... ....|--- .... ....
....|..|A#4 ...A ....|--- .... ....|R-- .... ....
....|..|R-- .... ....|--- .... ....|--- .... ....
 G#2|..|--- .... ....|--- .... ....|G#1 .E.F ....
....|..|--- .... ....|--- .... ....|--- .... ....
....|..|F#4 ...A ....|--- .... ....|R-- .... ....
....|..|--- .... ....|--- .... ....|--- .... ....
 G#2|..|B-5 ...F ....|--- .... ....|G#1 .E.F ....
....|..|--- .... ....|--- .... ....|--- .... ....
....|..|--- .... ....|--- .... ....|R-- .... ....
....|..|R-- .... ....|--- .... ....|--- .... ....
 G#2|..|A#5 ...F ....|--- .... ....|G#1 .E.F ....
....|..|--- .... ....|--- .... ....|--- .... ....
....|..|B-5 ...A ....|--- .... ....|R-- .... ....
....|..|R-- .... ....|--- .... ....|--- .... ....
 G#2|..|F#5 ...F ....|--- .... ....|G#1 .E.F ....
....|..|--- .... ....|--- .... ....|--- .... ....
....|..|A#5 ...A ....|--- .... ....|R-- .... ....
....|..|--- .... ....|--- .... ....|--- .... ....
 D#3|..|--- .... ....|--- .... ....|D#2 .E.F ....
....|..|--- .... ....|--- .... ....|--- .... ....
....|..|F#5 ...A ....|--- .... ....|R-- .... ....
....|..|R-- .... ....|--- .... ....|--- .... ....
 D#3|..|B-5 ...F ....|--- .... ....|D#2 .E.F ....
....|..|--- .... ....|--- .... ....|--- .... ....
....|..|--- .... ....|--- .... ....|R-- .... ....
....|..|R-- .... ....|--- .... ....|--- .... ....
 G#2|..|A#5 ...F ....|--- .... ....|G#1 .E.F ....
....|..|--- .... ....|--- .... ....|--- .... ....
....|..|B-5 ...A ....|--- .... ....|R-- .... ....
....|..|R-- .... ....|--- .... ....|--- .... ....
 G#2|..|F#5 ...F ....|--- .... ....|G#1 .E.F ....
....|..|--- .... ....|--- .... ....|--- .... ....
....|..|A#5 ...A ....|--- .... ....|R-- .... ....
....|..|--- .... ....|--- .... ....|--- .... ....

[Pattern47]
 G#2|..|--- .... ....|--- .... ....|G#1 .E.F ....
....|..|--- .... ....|--- .... ....|--- .... ....
....|..|F#5 ...A ....|--- .... ....|R-- .... ....
....|..|R-- .... ....|--- .... ....|--- .... ....
 G#2|..|F#5 ...F ....|--- .... ....|G#1 .E.F ....
....|..|--- .... ....|--- .... ....|--- .... ....
....|..|--- .... ....|--- .... ....|R-- .... ....
....|..|R-- .... ....|--- .... ....|--- .... ....
 E-3|..|E-5 ...F ....|--- .... ....|E-2 .E.F ....
....|..|--- .... ....|--- .... ....|--- .... ....
....|..|F#5 ...A ....|--- .... ....|R-- .... ....
....|..|R-- .... ....|--- .... ....|--- .... ....
 B-2|..|E-5 ...F ....|--- .... ....|B-1 .E.F ....
....|..|--- .... ....|--- .... ....|--- .... ....
....|..|E-5 ...A ....|--- .... ....|R-- .... ....
....|..|R-- .... ....|--- .... ....|--- .... ....
 F#3|..|E-5 ...F ....|--- .... ....|F#2 .E.F ....
....|..|--- .... ....|--- .... ....|--- .... ....
....|..|E-5 ...A ....|--- .... ....|R-- .... ....
....|..|R-- .... ....|--- .... ....|--- .... ....
 F#3|..|E-5 ...F ....|--- .... ....|F#2 .E.F ....
....|..|--- .... ....|--- .... ....|--- .... ....
....|..|E-5 ...A ....|--- .... ....|R-- .... ....
....|..|R-- .... ....|--- .... ....|--- .... ....
 F#3|..|D#5 ...F ....|--- .... ....|F#2 .E.F ....
....|..|--- .... ....|--- .... ....|--- .... ....
....|..|E-5 ...A ....|--- .... ....|R-- .... ....
....|..|R-- .... ....|--- .... ....|--- .... ....
 F#3|..|E-5 ...F ....|--- .... ....|F#2 .E.F ....
....|..|--- .... ....|--- .... ....|--- .... ....
....|..|D#5 ...A ....|--- .... ....|R-- .... ....
....|..|R-- .... ....|--- .... ....|--- .... ....
 B-2|..|D#5 ...F ....|--- .... ....|B-1 .E.F ....
....|..|--- .... ....|--- .... ....|--- .... ....
....|..|E-5 ...A ....|--- .... ....|R-- .... ....
....|..|--- .... ....|--- .... ....|--- .... ....
 B-2|..|--- .... ....|--- .... ....|B-1 .E.F ....
....|..|--- .... ....|--- .... ....|--- .... ....
....|..|D#5 ...A ....|--- .... ....|R-- .... ....
....|..|R-- .... ....|--- .... ....|--- .... ....
 B-2|..|F#5 ...F ....|--- .... ....|B-1 .E.F ....
....|..|--- .... ....|--- .... ....|--- .... ....
....|..|--- .... ....|--- .... ....|R-- .... ....
....|..|R-- .... ....|--- .... ....|--- .... ....
 B-2|..|F#5 ...F ....|--- .... ....|B-1 .E.F ....
....|..|--- .... ....|--- .... ....|--- .... ....
....|..|F#5 ...A ....|--- .... ....|R-- .... ....
....|..|--- .... ....|--- .... ....|--- .... ....
 F#2|..|--- .... ....|--- .... ....|F#1 .E.F ....
....|..|--- .... ....|--- .... ....|--- .... ....
....|..|F#5 ...A ....|--- .... ....|R-- .... ....
....|..|--- .... ....|--- .... ....|--- .... ....
 F#2|..|--- .... ....|--- .... ....|F#1 .E.F ....
....|..|R-- .... ....|--- .... ....|--- .... ....
....|..|--- .... ....|--- .... ....|R-- .... ....
....|..|--- .... ....|--- .... ....|--- .... ....
 B-2|..|--- .... ....|--- .... ....|B-1 .E.F ....
....|..|--- .... ....|--- .... ....|--- .... ....
....|..|--- .... ....|--- .... ....|R-- .... ....
....|..|--- .... ....|--- .... ....|--- .... ....
 B-2|..|--- .... ....|--- .... ....|B-1 .E.F ....
....|..|--- .... ....|--- .... ....|--- .... ....
....|..|--- .... ....|--- .... ....|R-- .... ....
....|..|--- .... ....|--- .... ....|--- .... ....

[Pattern48]
 A#2|..|A#4 ...F ....|--- .... ....|A#1 .E.F ....
....|..|--- .... ....|--- .... ....|--- .... ....
....|..|--- .... ....|--- .... ....|R-- .... ....
....|..|R-- .... ....|--- .... ....|--- .... ....
 A#2|..|B-4 ...F ....|--- .... ....|A#1 .E.F ....
....|..|--- .... ....|--- .... ....|--- .... ....
....|..|A#4 ...A ....|--- .... ....|R-- .... ....
....|..|R-- .... ....|--- .... ....|--- .... ....
 A#2|..|A#4 ...F ....|--- .... ....|A#1 .E.F ....
....|..|--- .... ....|--- .... ....|--- .... ....
....|..|B-4 ...A ....|--- .... ....|R-- .... ....
....|..|R-- .... ....|--- .... ....|--- .... ....
 A#2|..|F#4 ...F ....|--- .... ....|A#1 .E.F ....
....|..|--- .... ....|--- .... ....|--- .... ....
....|..|A#4 ...A ....|--- .... ....|R-- .... ....
....|..|R-- .... ....|--- .... ....|--- .... ....
 A#2|..|A#4 ...F ....|--- .... ....|A#1 .E.F ....
....|..|--- .... ....|--- .... ....|--- .... ....
....|..|F#4 ...A ....|--- .... ....|R-- .... ....
....|..|R-- .... ....|--- .... ....|--- .... ....
 A#2|..|B-4 ...F ....|--- .... ....|A#1 .E.F ....
....|..|--- .... ....|--- .... ....|--- .... ....
....|..|A#4 ...A ....|--- .... ....|R-- .... ....
....|..|R-- .... ....|--- .... ....|--- .... ....
 F#2|..|A#4 ...F ....|--- .... ....|F#1 .E.F ....
....|..|--- .... ....|--- .... ....|--- .... ....
....|..|B-4 ...A ....|--- .... ....|R-- .... ....
....|..|R-- .... ....|--- .... ....|--- .... ....
 F#2|..|F#4 ...F ....|--- .... ....|F#1 .E.F ....
....|..|--- .... ....|--- .... ....|--- .... ....
....|..|A#4 ...A ....|--- .... ....|R-- .... ....
....|..|R-- .... ....|--- .... ....|--- .... ....
 G#2|..|--- .... ....|--- .... ....|G#1 .E.F ....
....|..|--- .... ....|--- .... ....|--- .... ....
....|..|F#4 ...A ....|--- .... ....|R-- .... ....
....|..|--- .... ....|--- .... ....|--- .... ....
 G#2|..|B-5 ...F ....|--- .... ....|G#1 .E.F ....
....|..|--- .... ....|--- .... ....|--- .... ....
....|..|--- .... ....|--- .... ....|R-- .... ....
....|..|R-- .... ....|--- .... ....|--- .... ....
 G#2|..|A#5 ...F ....|--- .... ....|G#1 .E.F ....
....|..|--- .... ....|--- .... ....|--- .... ....
....|..|B-5 ...A ....|--- .... ....|R-- .... ....
....|..|R-- .... ....|--- .... ....|--- .... ....
 G#2|..|F#5 ...F ....|--- .... ....|G#1 .E.F ....
....|..|--- .... ....|--- .... ....|--- .... ....
....|..|A#5 ...A ....|--- .... ....|R-- .... ....
....|..|--- .... ....|--- .... ....|--- .... ....
 D#3|..|--- .... ....|--- .... ....|D#2 .E.F ....
....|..|--- .... ....|--- .... ....|--- .... ....
....|..|F#5 ...A ....|--- .... ....|R-- .... ....
....|..|R-- .... ....|--- .... ....|--- .... ....
 D#3|..|B-5 ...F ....|--- .... ....|D#2 .E.F ....
....|..|--- .... ....|--- .... ....|--- .... ....
....|..|--- .... ....|--- .... ....|R-- .... ....
....|..|R-- .... ....|--- .... ....|--- .... ....
 G#2|..|A#5 ...F ....|--- .... ....|G#1 .E.F ....
....|..|--- .... ....|--- .... ....|--- .... ....
....|..|B-5 ...A ....|--- .... ....|R-- .... ....
....|..|R-- .... ....|--- .... ....|--- .... ....
 G#2|..|F#5 ...F ....|--- .... ....|G#1 .E.F ....
....|..|--- .... ....|--- .... ....|--- .... ....
....|..|A#5 ...A ....|--- .... ....|R-- .... ....
....|..|--- .... ....|--- .... ....|--- .... ....

[Pattern49]
 G#2|..|--- .... ....|--- .... ....|G#1 .E.F ....
....|..|--- .... ....|--- .... ....|--- .... ....
....|..|F#5 ...A ....|--- .... ....|R-- .... ....
....|..|R-- .... ....|--- .... ....|--- .... ....
 G#2|..|F#5 ...F ....|--- .... ....|G#1 .E.F ....
....|..|--- .... ....|--- .... ....|--- .... ....
....|..|--- .... ....|--- .... ....|R-- .... ....
....|..|R-- .... ....|--- .... ....|--- .... ....
 E-3|..|E-5 ...F ....|--- .... ....|E-2 .E.F ....
....|..|--- .... ....|--- .... ....|--- .... ....
....|..|F#5 ...A ....|--- .... ....|R-- .... ....
....|..|R-- .... ....|--- .... ....|--- .... ....
 B-2|..|E-5 ...F ....|--- .... ....|B-1 .E.F ....
....|..|--- .... ....|--- .... ....|--- .... ....
....|..|E-5 ...A ....|--- .... ....|R-- .... ....
....|..|R-- .... ....|--- .... ....|--- .... ....
 F#3|..|E-5 ...F ....|--- .... ....|F#2 .E.F ....
....|..|--- .... ....|--- .... ....|--- .... ....
....|..|E-5 ...A ....|--- .... ....|R-- .... ....
....|..|R-- .... ....|--- .... ....|--- .... ....
 F#3|..|E-5 ...F ....|--- .... ....|F#2 .E.F ....
....|..|--- .... ....|--- .... ....|--- .... ....
....|..|E-5 ...A ....|--- .... ....|R-- .... ....
....|..|R-- .... ....|--- .... ....|--- .... ....
 F#3|..|D#5 ...F ....|--- .... ....|F#2 .E.F ....
....|..|--- .... ....|--- .... ....|--- .... ....
....|..|E-5 ...A ....|--- .... ....|R-- .... ....
....|..|R-- .... ....|--- .... ....|--- .... ....
 F#3|..|E-5 ...F ....|--- .... ....|F#2 .E.F ....
....|..|--- .... ....|--- .... ....|--- .... ....
....|..|D#5 ...A ....|--- .... ....|R-- .... ....
....|..|R-- .... ....|--- .... ....|--- .... ....
 B-2|..|D#5 ...F ....|--- .... ....|B-1 .E.F ....
....|..|--- .... ....|--- .... ....|--- .... ....
....|..|E-5 ...A ....|--- .... ....|R-- .... ....
....|..|--- .... ....|--- .... ....|--- .... ....
 B-2|..|--- .... ....|--- .... ....|B-1 .E.F ....
....|..|--- .... ....|--- .... ....|--- .... ....
....|..|D#5 ...A ....|--- .... ....|R-- .... ....
....|..|R-- .... ....|--- .... ....|--- .... ....
 B-2|..|F#5 ...F ....|--- .... ....|B-1 .E.F ....
....|..|--- .... ....|--- .... ....|--- .... ....
....|..|--- .... ....|--- .... ....|R-- .... ....
....|..|R-- .... ....|--- .... ....|--- .... ....
 B-2|..|F#5 ...F ....|--- .... ....|B-1 .E.F ....
....|..|--- .... ....|--- .... ....|--- .... ....
....|..|F#5 ...A ....|--- .... ....|R-- .... ....
....|..|--- .... ....|--- .... ....|--- .... ....
 F#2|..|--- .... ....|--- .... ....|F#1 .E.F ....
....|..|--- .... ....|--- .... ....|--- .... ....
....|..|F#5 ...A ....|--- .... ....|R-- .... ....
....|..|--- .... ....|--- .... ....|--- .... ....
 F#2|..|--- .... ....|--- .... ....|F#1 .E.F ....
....|..|R-- .... ....|--- .... ....|--- .... ....
....|..|--- .... ....|--- .... ....|R-- .... ....
....|..|--- .... ....|--- .... ....|--- .... ....
 B-2|..|--- .... ....|--- .... ....|B-1 .E.F ....
....|..|--- .... ....|--- .... ....|--- .... ....
....|..|--- .... ....|--- .... ....|R-- .... ....
....|..|--- .... ....|--- .... ....|--- .... ....
 B-2|..|--- .... ....|--- .... ....|B-1 .E.F ....
....|..|--- .... ....|--- .... ....|--- .... ....
....|..|--- .... ....|--- .... ....|R-- .... ....
....|..|--- .... ....|--- .... ....|--- .... ....

[Pattern50]
 A#2|..|A#4 ...F ....|--- .... ....|A#1 .E.F ....
....|..|--- .... ....|--- .... ....|--- .... ....
....|..|--- .... ....|--- .... ....|R-- .... ....
....|..|R-- .... ....|--- .... ....|--- .... ....
 A#2|..|B-4 ...F ....|--- .... ....|A#1 .E.F ....
....|..|--- .... ....|--- .... ....|--- .... ....
....|..|A#4 ...A ....|--- .... ....|R-- .... ....
....|..|R-- .... ....|--- .... ....|--- .... ....
 A#2|..|A#4 ...F ....|--- .... ....|A#1 .E.F ....
....|..|--- .... ....|--- .... ....|--- .... ....
....|..|B-4 ...A ....|--- .... ....|R-- .... ....
....|..|R-- .... ....|--- .... ....|--- .... ....
 A#2|..|F#4 ...F ....|--- .... ....|A#1 .E.F ....
....|..|--- .... ....|--- .... ....|--- .... ....
....|..|A#4 ...A ....|--- .... ....|R-- .... ....
....|..|R-- .... ....|--- .... ....|--- .... ....
 A#2|..|A#4 ...F ....|--- .... ....|A#1 .E.F ....
....|..|--- .... ....|--- .... ....|--- .... ....
....|..|F#4 ...A ....|--- .... ....|R-- .... ....
....|..|R-- .... ....|--- .... ....|--- .... ....
 A#2|..|B-4 ...F ....|--- .... ....|A#1 .E.F ....
....|..|--- .... ....|--- .... ....|--- .... ....
....|..|A#4 ...A ....|--- .... ....|R-- .... ....
....|..|R-- .... ....|--- .... ....|--- .... ....
 F#2|..|A#4 ...F ....|--- .... ....|F#1 .E.F ....
....|..|--- .... ....|--- .... ....|--- .... ....
....|..|B-4 ...A ....|--- .... ....|R-- .... ....
....|..|R-- .... ....|--- .... ....|--- .... ....
 F#2|..|F#4 ...F ....|--- .... ....|F#1 .E.F ....
....|..|--- .... ....|--- .... ....|--- .... ....
....|..|A#4 ...A ....|--- .... ....|R-- .... ....
....|..|R-- .... ....|--- .... ....|--- .... ....
 G#2|..|--- .... ....|--- .... ....|G#1 .E.F ....
....|..|--- .... ....|--- .... ....|--- .... ....
....|..|F#4 ...A ....|--- .... ....|R-- .... ....
....|..|--- .... ....|--- .... ....|--- .... ....
 G#2|..|B-5 ...F ....|--- .... ....|G#1 .E.F ....
....|..|--- .... ....|--- .... ....|--- .... ....
....|..|--- .... ....|--- .... ....|R-- .... ....
....|..|R-- .... ....|--- .... ....|--- .... ....
 G#2|..|A#5 ...F ....|--- .... ....|G#1 .E.F ....
....|..|--- .... ....|--- .... ....|--- .... ....
....|..|B-5 ...A ....|--- .... ....|R-- .... ....
....|..|R-- .... ....|--- .... ....|--- .... ....
 G#2|..|F#5 ...F ....|--- .... ....|G#1 .E.F ....
....|..|--- .... ....|--- .... ....|--- .... ....
....|..|A#5 ...A ....|--- .... ....|R-- .... ....
....|..|--- .... ....|--- .... ....|--- .... ....
 D#3|..|--- .... ....|--- .... ....|D#2 .E.F ....
....|..|--- .... ....|--- .... ....|--- .... ....
....|..|F#5 ...A ....|--- .... ....|R-- .... ....
....|..|R-- .... ....|--- .... ....|--- .... ....
 D#3|..|B-5 ...F ....|--- .... ....|D#2 .E.F ....
....|..|--- .... ....|--- .... ....|--- .... ....
....|..|--- .... ....|--- .... ....|R-- .... ....
....|..|R-- .... ....|--- .... ....|--- .... ....
 G#2|..|A#5 ...F ....|--- .... ....|G#1 .E.F ....
....|..|--- .... ....|--- .... ....|--- .... ....
....|..|B-5 ...A ....|--- .... ....|R-- .... ....
....|..|R-- .... ....|--- .... ....|--- .... ....
 G#2|..|F#5 ...F ....|--- .... ....|G#1 .E.F ....
....|..|--- .... ....|--- .... ....|--- .... ....
....|..|A#5 ...A ....|--- .... ....|R-- .... ....
....|..|--- .... ....|--- .... ....|--- .... ....

[Pattern51]
 G#2|..|--- .... ....|--- .... ....|G#1 .E.F ....
....|..|--- .... ....|--- .... ....|--- .... ....
....|..|F#5 ...A ....|--- .... ....|R-- .... ....
....|..|R-- .... ....|--- .... ....|--- .... ....
 G#2|..|F#5 ...F ....|--- .... ....|G#1 .E.F ....
....|..|--- .... ....|--- .... ....|--- .... ....
....|..|--- .... ....|--- .... ....|R-- .... ....
....|..|R-- .... ....|--- .... ....|--- .... ....
 E-3|..|E-5 ...F ....|--- .... ....|E-2 .E.F ....
....|..|--- .... ....|--- .... ....|--- .... ....
....|..|F#5 ...A ....|--- .... ....|R-- .... ....
....|..|R-- .... ....|--- .... ....|--- .... ....
 B-2|..|E-5 ...F ....|--- .... ....|B-1 .E.F ....
....|..|--- .... ....|--- .... ....|--- .... ....
....|..|E-5 ...A ....|--- .... ....|R-- .... ....
....|..|R-- .... ....|--- .... ....|--- .... ....
 F#3|..|E-5 ...F ....|--- .... ....|F#2 .E.F ....
....|..|--- .... ....|--- .... ....|--- .... ....
....|..|E-5 ...A ....|--- .... ....|R-- .... ....
....|..|R-- .... ....|--- .... ....|--- .... ....
 F#3|..|E-5 ...F ....|--- .... ....|F#2 .E.F ....
....|..|--- .... ....|--- .... ....|--- .... ....
....|..|E-5 ...A ....|--- .... ....|R-- .... ....
....|..|R-- .... ....|--- .... ....|--- .... ....
 F#3|..|D#5 ...F ....|--- .... ....|F#2 .E.F ....
....|..|--- .... ....|--- .... ....|--- .... ....
....|..|E-5 ...A ....|--- .... ....|R-- .... ....
....|..|R-- .... ....|--- .... ....|--- .... ....
 F#3|..|E-5 ...F ....|--- .... ....|F#2 .E.F ....
....|..|--- .... ....|--- .... ....|--- .... ....
....|..|D#5 ...A ....|--- .... ....|R-- .... ....
....|..|R-- .... ....|--- .... ....|--- .... ....
 B-2|..|D#5 ...F ....|--- .... ....|B-1 .E.F ....
....|..|--- .... ....|--- .... ....|--- .... ....
....|..|E-5 ...A ....|--- .... ....|R-- .... ....
....|..|--- .... ....|--- .... ....|--- .... ....
 B-2|..|--- .... ....|--- .... ....|B-1 .E.F ....
....|..|--- .... ....|--- .... ....|--- .... ....
....|..|D#5 ...A ....|--- .... ....|R-- .... ....
....|..|R-- .... ....|--- .... ....|--- .... ....
 B-2|..|F#5 ...F ....|--- .... ....|B-1 .E.F ....
....|..|--- .... ....|--- .... ....|--- .... ....
....|..|--- .... ....|--- .... ....|R-- .... ....
....|..|R-- .... ....|--- .... ....|--- .... ....
 B-2|..|F#5 ...F ....|--- .... ....|B-1 .E.F ....
....|..|--- .... ....|--- .... ....|--- .... ....
....|..|F#5 ...A ....|--- .... ....|R-- .... ....
....|..|--- .... ....|--- .... ....|--- .... ....
 F#2|..|--- .... ....|--- .... ....|F#1 .E.F ....
....|..|--- .... ....|--- .... ....|--- .... ....
....|..|F#5 ...A ....|--- .... ....|R-- .... ....
....|..|--- .... ....|--- .... ....|--- .... ....
 F#2|..|--- .... ....|--- .... ....|F#1 .E.F ....
....|..|R-- .... ....|--- .... ....|--- .... ....
....|..|--- .... ....|--- .... ....|R-- .... ....
....|..|--- .... ....|--- .... ....|--- .... ....
 B-2|..|--- .... ....|--- .... ....|B-1 .E.F ....
....|..|--- .... ....|--- .... ....|--- .... ....
....|..|--- .... ....|--- .... ....|R-- .... ....
....|..|--- .... ....|--- .... ....|--- .... ....
 B-2|..|--- .... ....|--- .... ....|B-1 .E.F ....
....|..|--- .... ....|--- .... ....|--- .... ....
....|..|--- .... ....|--- .... ....|R-- .... ....
....|..|--- .... ....|--- .... ....|--- .... ....

[Pattern52]
 A#2|..|A#4 ...F ....|--- .... ....|A#1 .E.F ....
....|..|--- .... ....|--- .... ....|--- .... ....
....|..|--- .... ....|--- .... ....|R-- .... ....
....|..|R-- .... ....|--- .... ....|--- .... ....
 A#2|..|B-4 ...F ....|--- .... ....|A#1 .E.F ....
....|..|--- .... ....|--- .... ....|--- .... ....
....|..|A#4 ...A ....|--- .... ....|R-- .... ....
....|..|R-- .... ....|--- .... ....|--- .... ....
 A#2|..|A#4 ...F ....|--- .... ....|A#1 .E.F ....
....|..|--- .... ....|--- .... ....|--- .... ....
....|..|B-4 ...A ....|--- .... ....|R-- .... ....
....|..|R-- .... ....|--- .... ....|--- .... ....
 A#2|..|F#4 ...F ....|--- .... ....|A#1 .E.F ....
....|..|--- .... ....|--- .... ....|--- .... ....
....|..|A#4 ...A ....|--- .... ....|R-- .... ....
....|..|R-- .... ....|--- .... ....|--- .... ....
 A#2|..|A#4 ...F ....|--- .... ....|A#1 .E.F ....
....|..|--- .... ....|--- .... ....|--- .... ....
....|..|F#4 ...A ....|--- .... ....|R-- .... ....
....|..|R-- .... ....|--- .... ....|--- .... ....
 A#2|..|B-4 ...F ....|--- .... ....|A#1 .E.F ....
....|..|--- .... ....|--- .... ....|--- .... ....
....|..|A#4 ...A ....|--- .... ....|R-- .... ....
....|..|R-- .... ....|--- .... ....|--- .... ....
 F#2|..|A#4 ...F ....|--- .... ....|F#1 .E.F ....
....|..|--- .... ....|--- .... ....|--- .... ....
....|..|B-4 ...A ....|--- .... ....|R-- .... ....
....|..|R-- .... ....|--- .... ....|--- .... ....
 F#2|..|F#4 ...F ....|--- .... ....|F#1 .E.F ....
....|..|--- .... ....|--- .... ....|--- .... ....
....|..|A#4 ...A ....|--- .... ....|R-- .... ....
....|..|R-- .... ....|--- .... ....|--- .... ....
 G#2|..|--- .... ....|--- .... ....|G#1 .E.F ....
....|..|--- .... ....|--- .... ....|--- .... ....
....|..|F#4 ...A ....|--- .... ....|R-- .... ....
....|..|--- .... ....|--- .... ....|--- .... ....
 G#2|..|B-4 ...F ....|--- .... ....|G#1 .E.F ....
....|..|R-- .... ....|--- .... ....|--- .... ....
....|..|--- .... ....|--- .... ....|R-- .... ....
....|..|--- .... ....|--- .... ....|--- .... ....
 G#2|..|B-4 ...F ....|--- .... ....|G#1 .E.F ....
....|..|R-- .... ....|--- .... ....|--- .... ....
....|..|B-4 ...A ....|--- .... ....|R-- .... ....
....|..|--- .... ....|--- .... ....|--- .... ....
 G#2|..|B-4 ...F ....|--- .... ....|G#1 .E.F ....
....|..|R-- .... ....|--- .... ....|--- .... ....
....|..|B-4 ...A ....|--- .... ....|R-- .... ....
....|..|--- .... ....|--- .... ....|--- .... ....
 D#3|..|B-4 ...F ....|--- .... ....|D#2 .E.F ....
....|..|R-- .... ....|--- .... ....|--- .... ....
....|..|B-4 ...A ....|--- .... ....|R-- .... ....
....|..|--- .... ....|--- .... ....|--- .... ....
 D#3|..|B-4 ...F ....|--- .... ....|D#2 .E.F ....
....|..|R-- .... ....|--- .... ....|--- .... ....
....|..|B-4 ...A ....|--- .... ....|R-- .... ....
....|..|--- .... ....|--- .... ....|--- .... ....
 G#2|..|B-4 ...F ....|--- .... ....|G#1 .E.F ....
....|..|--- .... ....|--- .... ....|--- .... ....
....|..|B-4 ...A ....|--- .... ....|R-- .... ....
....|..|R-- .... ....|--- .... ....|--- .... ....
 G#2|..|B-4 ...F ....|--- .... ....|G#1 .E.F ....
....|..|R-- .... ....|--- .... ....|--- .... ....
....|..|B-4 ...A ....|--- .... ....|R-- .... ....
....|..|--- .... ....|--- .... ....|--- .... ....

[Pattern53]
 G#2|..|B-4 ...F ....|--- .... ....|G#1 .E.F ....
....|..|R-- .... ....|--- .... ....|--- .... ....
....|..|B-4 ...A ....|--- .... ....|R-- .... ....
....|..|--- .... ....|--- .... ....|--- .... ....
 G#2|..|B-4 ...F ....|--- .... ....|G#1 .E.F ....
....|..|R-- .... ....|--- .... ....|--- .... ....
....|..|B-4 ...A ....|--- .... ....|R-- .... ....
....|..|--- .... ....|--- .... ....|--- .... ....
 E-3|..|B-4 ...F ....|--- .... ....|E-2 .E.F ....
....|..|R-- .... ....|--- .... ....|--- .... ....
....|..|B-4 ...A ....|--- .... ....|R-- .... ....
....|..|--- .... ....|--- .... ....|--- .... ....
 B-2|..|B-4 ...F ....|--- .... ....|B-1 .E.F ....
....|..|--- .... ....|--- .... ....|--- .... ....
....|..|B-4 ...A ....|--- .... ....|R-- .... ....
....|..|R-- .... ....|--- .... ....|--- .... ....
 F#3|..|--- .... ....|--- .... ....|F#2 .E.F ....
....|..|--- .... ....|--- .... ....|--- .... ....
....|..|B-4 ...A ....|--- .... ....|R-- .... ....
....|..|--- .... ....|--- .... ....|--- .... ....
 F#3|..|--- .... ....|--- .... ....|F#2 .E.F ....
....|..|--- .... ....|--- .... ....|--- .... ....
....|..|--- .... ....|--- .... ....|R-- .... ....
....|..|--- .... ....|--- .... ....|--- .... ....
 F#3|..|--- .... ....|--- .... ....|F#2 .E.F ....
....|..|--- .... ....|--- .... ....|--- .... ....
....|..|--- .... ....|--- .... ....|R-- .... ....
....|..|--- .... ....|--- .... ....|--- .... ....
 F#3|..|--- .... ....|--- .... ....|F#2 .E.F ....
....|..|--- .... ....|--- .... ....|--- .... ....
....|..|--- .... ....|--- .... ....|R-- .... ....
....|..|--- .... ....|--- .... ....|--- .... ....
 B-2|..|--- .... ....|--- .... ....|B-1 .E.F ....
....|..|--- .... ....|--- .... ....|--- .... ....
....|..|--- .... ....|--- .... ....|R-- .... ....
....|..|--- .... ....|--- .... ....|--- .... ....
 B-2|..|B-4 ...F ....|--- .... ....|B-1 .E.F ....
....|..|R-- .... ....|--- .... ....|--- .... ....
....|..|--- .... ....|--- .... ....|R-- .... ....
....|..|--- .... ....|--- .... ....|--- .... ....
 B-2|..|B-4 ...F ....|--- .... ....|B-1 .E.F ....
....|..|R-- .... ....|--- .... ....|--- .... ....
....|..|B-4 ...A ....|--- .... ....|R-- .... ....
....|..|--- .... ....|--- .... ....|--- .... ....
 B-2|..|B-4 ...F ....|--- .... ....|B-1 .E.F ....
....|..|R-- .... ....|--- .... ....|--- .... ....
....|..|B-4 ...A ....|--- .... ....|R-- .... ....
....|..|--- .... ....|--- .... ....|--- .... ....
 F#2|..|B-4 ...F ....|--- .... ....|F#1 .E.F ....
....|..|R-- .... ....|--- .... ....|--- .... ....
....|..|B-4 ...A ....|--- .... ....|R-- .... ....
....|..|--- .... ....|--- .... ....|--- .... ....
 F#2|..|B-4 ...F ....|--- .... ....|F#1 .E.F ....
....|..|R-- .... ....|--- .... ....|--- .... ....
....|..|B-4 ...A ....|--- .... ....|R-- .... ....
....|..|--- .... ....|--- .... ....|--- .... ....
 B-2|..|B-4 ...F ....|--- .... ....|B-1 .E.F ....
....|..|--- .... ....|--- .... ....|--- .... ....
....|..|B-4 ...A ....|--- .... ....|R-- .... ....
....|..|R-- .... ....|--- .... ....|--- .... ....
 B-2|..|B-4 ...F ....|--- .... ....|B-1 .E.F ....
....|..|R-- .... ....|--- .... ....|--- .... ....
....|..|B-4 ...A ....|--- .... ....|R-- .... ....
....|..|--- .... ....|--- .... ....|--- .... ....

[Pattern54]
 A#2|..|B-4 ...F ....|--- .... ....|A#1 .E.F ....
....|..|R-- .... ....|--- .... ....|--- .... ....
....|..|B-4 ...A ....|--- .... ....|R-- .... ....
....|..|--- .... ....|--- .... ....|--- .... ....
 A#2|..|B-4 ...F ....|--- .... ....|A#1 .E.F ....
....|..|R-- .... ....|--- .... ....|--- .... ....
....|..|B-4 ...A ....|--- .... ....|R-- .... ....
....|..|--- .... ....|--- .... ....|--- .... ....
 A#2|..|B-4 ...F ....|--- .... ....|A#1 .E.F ....
....|..|R-- .... ....|--- .... ....|--- .... ....
....|..|B-4 ...A ....|--- .... ....|R-- .... ....
....|..|--- .... ....|--- .... ....|--- .... ....
 A#2|..|B-4 ...F ....|--- .... ....|A#1 .E.F ....
....|..|--- .... ....|--- .... ....|--- .... ....
....|..|B-4 ...A ....|--- .... ....|R-- .... ....
....|..|R-- .... ....|--- .... ....|--- .... ....
 A#2|..|--- .... ....|--- .... ....|A#1 .E.F ....
....|..|--- .... ....|--- .... ....|--- .... ....
....|..|B-4 ...A ....|--- .... ....|R-- .... ....
....|..|--- .... ....|--- .... ....|--- .... ....
 A#2|..|--- .... ....|--- .... ....|A#1 .E.F ....
....|..|--- .... ....|--- .... ....|--- .... ....
....|..|--- .... ....|--- .... ....|R-- .... ....
....|..|--- .... ....|--- .... ....|--- .... ....
 F#2|..|--- .... ....|--- .... ....|F#1 .E.F ....
....|..|--- .... ....|--- .... ....|--- .... ....
....|..|--- .... ....|--- .... ....|R-- .... ....
....|..|--- .... ....|--- .... ....|--- .... ....
 F#2|..|--- .... ....|--- .... ....|F#1 .E.F ....
....|..|--- .... ....|--- .... ....|--- .... ....
....|..|--- .... ....|--- .... ....|R-- .... ....
....|..|--- .... ....|--- .... ....|--- .... ....
 G#2|..|--- .... ....|--- .... ....|G#1 .E.F ....
....|..|--- .... ....|--- .... ....|--- .... ....
....|..|--- .... ....|--- .... ....|R-- .... ....
....|..|--- .... ....|--- .... ....|--- .... ....
 G#2|..|B-4 ...F ....|--- .... ....|G#1 .E.F ....
....|..|R-- .... ....|--- .... ....|--- .... ....
....|..|--- .... ....|--- .... ....|R-- .... ....
....|..|--- .... ....|--- .... ....|--- .... ....
 G#2|..|B-4 ...F ....|--- .... ....|G#1 .E.F ....
....|..|R-- .... ....|--- .... ....|--- .... ....
....|..|B-4 ...A ....|--- .... ....|R-- .... ....
....|..|--- .... ....|--- .... ....|--- .... ....
 G#2|..|B-4 ...F ....|--- .... ....|G#1 .E.F ....
....|..|R-- .... ....|--- .... ....|--- .... ....
....|..|B-4 ...A ....|--- .... ....|R-- .... ....
....|..|--- .... ....|--- .... ....|--- .... ....
 D#3|..|B-4 ...F ....|--- .... ....|D#2 .E.F ....
....|..|R-- .... ....|--- .... ....|--- .... ....
....|..|B-4 ...A ....|--- .... ....|R-- .... ....
....|..|--- .... ....|--- .... ....|--- .... ....
 D#3|..|B-4 ...F ....|--- .... ....|D#2 .E.F ....
....|..|R-- .... ....|--- .... ....|--- .... ....
....|..|B-4 ...A ....|--- .... ....|R-- .... ....
....|..|--- .... ....|--- .... ....|--- .... ....
 G#2|..|B-4 ...F ....|--- .... ....|G#1 .E.F ....
....|..|--- .... ....|--- .... ....|--- .... ....
....|..|B-4 ...A ....|--- .... ....|R-- .... ....
....|..|R-- .... ....|--- .... ....|--- .... ....
 G#2|..|B-4 ...F ....|--- .... ....|G#1 .E.F ....
....|..|R-- .... ....|--- .... ....|--- .... ....
....|..|B-4 ...A ....|--- .... ....|R-- .... ....
....|..|--- .... ....|--- .... ....|--- .... ....

[Pattern55]
 G#2|..|B-4 ...F ....|--- .... ....|G#1 .E.F ....
....|..|R-- .... ....|--- .... ....|--- .... ....
....|..|B-4 ...A ....|--- .... ....|R-- .... ....
....|..|--- .... ....|--- .... ....|--- .... ....
 G#2|..|B-4 ...F ....|--- .... ....|G#1 .E.F ....
....|..|R-- .... ....|--- .... ....|--- .... ....
....|..|B-4 ...A ....|--- .... ....|R-- .... ....
....|..|--- .... ....|--- .... ....|--- .... ....
 E-3|..|B-4 ...F ....|--- .... ....|E-2 .E.F ....
....|..|R-- .... ....|--- .... ....|--- .... ....
....|..|B-4 ...A ....|--- .... ....|R-- .... ....
....|..|--- .... ....|--- .... ....|--- .... ....
 B-2|..|B-4 ...F ....|--- .... ....|B-1 .E.F ....
....|..|--- .... ....|--- .... ....|--- .... ....
....|..|B-4 ...A ....|--- .... ....|R-- .... ....
....|..|R-- .... ....|--- .... ....|--- .... ....
 F#3|..|--- .... ....|--- .... ....|F#2 .E.F ....
....|..|--- .... ....|--- .... ....|--- .... ....
....|..|B-4 ...A ....|--- .... ....|R-- .... ....
....|..|--- .... ....|--- .... ....|--- .... ....
 F#3|..|--- .... ....|--- .... ....|F#2 .E.F ....
....|..|--- .... ....|--- .... ....|--- .... ....
....|..|--- .... ....|--- .... ....|R-- .... ....
....|..|--- .... ....|--- .... ....|--- .... ....
 F#3|..|--- .... ....|--- .... ....|F#2 .E.F ....
....|..|--- .... ....|--- .... ....|--- .... ....
....|..|--- .... ....|--- .... ....|R-- .... ....
....|..|--- .... ....|--- .... ....|--- .... ....
 F#3|..|--- .... ....|--- .... ....|F#2 .E.F ....
....|..|--- .... ....|--- .... ....|--- .... ....
....|..|--- .... ....|--- .... ....|R-- .... ....
....|..|--- .... ....|--- .... ....|--- .... ....
 B-2|..|--- .... ....|--- .... ....|B-1 .E.F ....
....|..|--- .... ....|--- .... ....|--- .... ....
....|..|--- .... ....|--- .... ....|R-- .... ....
....|..|--- .... ....|--- .... ....|--- .... ....
 B-2|..|B-4 ...F ....|--- .... ....|B-1 .E.F ....
....|..|R-- .... ....|--- .... ....|--- .... ....
....|..|--- .... ....|--- .... ....|R-- .... ....
....|..|--- .... ....|--- .... ....|--- .... ....
 B-2|..|B-4 ...F ....|--- .... ....|B-1 .E.F ....
....|..|R-- .... ....|--- .... ....|--- .... ....
....|..|B-4 ...A ....|--- .... ....|R-- .... ....
....|..|--- .... ....|--- .... ....|--- .... ....
 B-2|..|B-4 ...F ....|--- .... ....|B-1 .E.F ....
....|..|R-- .... ....|--- .... ....|--- .... ....
....|..|B-4 ...A ....|--- .... ....|R-- .... ....
....|..|--- .... ....|--- .... ....|--- .... ....
 F#2|..|B-4 ...F ....|--- .... ....|F#1 .E.F ....
....|..|R-- .... ....|--- .... ....|--- .... ....
....|..|B-4 ...A ....|--- .... ....|R-- .... ....
....|..|--- .... ....|--- .... ....|--- .... ....
 F#2|..|B-4 ...F ....|--- .... ....|F#1 .E.F ....
....|..|R-- .... ....|--- .... ....|--- .... ....
....|..|B-4 ...A ....|--- .... ....|R-- .... ....
....|..|--- .... ....|--- .... ....|--- .... ....
 B-2|..|B-4 ...F ....|--- .... ....|B-1 .E.F ....
....|..|--- .... ....|--- .... ....|--- .... ....
....|..|B-4 ...A ....|--- .... ....|R-- .... ....
....|..|R-- .... ....|--- .... ....|--- .... ....
 B-2|..|B-4 ...F ....|--- .... ....|B-1 .E.F ....
....|..|R-- .... ....|--- .... ....|--- .... ....
....|..|B-4 ...A ....|--- .... ....|R-- .... ....
....|..|--- .... ....|--- .... ....|--- .... ....

[Pattern56]
 A#2|..|B-4 ...F ....|--- .... ....|A#1 .E.F ....
....|..|R-- .... ....|--- .... ....|--- .... ....
....|..|B-4 ...A ....|--- .... ....|R-- .... ....
....|..|--- .... ....|--- .... ....|--- .... ....
 A#2|..|B-4 ...F ....|--- .... ....|A#1 .E.F ....
....|..|R-- .... ....|--- .... ....|--- .... ....
....|..|B-4 ...A ....|--- .... ....|R-- .... ....
....|..|--- .... ....|--- .... ....|--- .... ....
 A#2|..|B-4 ...F ....|--- .... ....|A#1 .E.F ....
....|..|R-- .... ....|--- .... ....|--- .... ....
....|..|B-4 ...A ....|--- .... ....|R-- .... ....
....|..|--- .... ....|--- .... ....|--- .... ....
 A#2|..|B-4 ...F ....|--- .... ....|A#1 .E.F ....
....|..|--- .... ....|--- .... ....|--- .... ....
....|..|B-4 ...A ....|--- .... ....|R-- .... ....
....|..|R-- .... ....|--- .... ....|--- .... ....
 A#2|..|--- .... ....|--- .... ....|A#1 .E.F ....
....|..|--- .... ....|--- .... ....|--- .... ....
....|..|B-4 ...A ....|--- .... ....|R-- .... ....
....|..|--- .... ....|--- .... ....|--- .... ....
 A#2|..|--- .... ....|--- .... ....|A#1 .E.F ....
....|..|--- .... ....|--- .... ....|--- .... ....
....|..|--- .... ....|--- .... ....|R-- .... ....
....|..|--- .... ....|--- .... ....|--- .... ....
 F#2|..|--- .... ....|--- .... ....|F#1 .E.F ....
....|..|--- .... ....|--- .... ....|--- .... ....
....|..|--- .... ....|--- .... ....|R-- .... ....
....|..|--- .... ....|--- .... ....|--- .... ....
 F#2|..|--- .... ....|--- .... ....|F#1 .E.F ....
....|..|--- .... ....|--- .... ....|--- .... ....
....|..|--- .... ....|--- .... ....|R-- .... ....
....|..|--- .... ....|--- .... ....|--- .... ....
 G#2|..|--- .... ....|--- .... ....|G#1 .E.F ....
....|..|--- .... ....|--- .... ....|--- .... ....
....|..|--- .... ....|--- .... ....|R-- .... ....
....|..|--- .... ....|--- .... ....|--- .... ....
 G#2|..|B-4 ...F ....|--- .... ....|G#1 .E.F ....
....|..|R-- .... ....|--- .... ....|--- .... ....
....|..|--- .... ....|--- .... ....|R-- .... ....
....|..|--- .... ....|--- .... ....|--- .... ....
 G#2|..|B-4 ...F ....|--- .... ....|G#1 .E.F ....
....|..|R-- .... ....|--- .... ....|--- .... ....
....|..|B-4 ...A ....|--- .... ....|R-- .... ....
....|..|--- .... ....|--- .... ....|--- .... ....
 G#2|..|B-4 ...F ....|--- .... ....|G#1 .E.F ....
....|..|R-- .... ....|--- .... ....|--- .... ....
....|..|B-4 ...A ....|--- .... ....|R-- .... ....
....|..|--- .... ....|--- .... ....|--- .... ....
 D#3|..|B-4 ...F ....|--- .... ....|D#2 .E.F ....
....|..|R-- .... ....|--- .... ....|--- .... ....
....|..|B-4 ...A ....|--- .... ....|R-- .... ....
....|..|--- .... ....|--- .... ....|--- .... ....
 D#3|..|B-4 ...F ....|--- .... ....|D#2 .E.F ....
....|..|R-- .... ....|--- .... ....|--- .... ....
....|..|B-4 ...A ....|--- .... ....|R-- .... ....
....|..|--- .... ....|--- .... ....|--- .... ....
 G#2|..|B-4 ...F ....|--- .... ....|G#1 .E.F ....
....|..|--- .... ....|--- .... ....|--- .... ....
....|..|B-4 ...A ....|--- .... ....|R-- .... ....
....|..|R-- .... ....|--- .... ....|--- .... ....
 G#2|..|B-4 ...F ....|--- .... ....|G#1 .E.F ....
....|..|R-- .... ....|--- .... ....|--- .... ....
....|..|B-4 ...A ....|--- .... ....|R-- .... ....
....|..|--- .... ....|--- .... ....|--- .... ....

[Pattern57]
 G#2|..|B-4 ...F ....|--- .... ....|G#1 .E.F ....
....|..|R-- .... ....|--- .... ....|--- .... ....
....|..|B-4 ...A ....|--- .... ....|R-- .... ....
....|..|--- .... ....|--- .... ....|--- .... ....
 G#2|..|B-4 ...F ....|--- .... ....|G#1 .E.F ....
....|..|R-- .... ....|--- .... ....|--- .... ....
....|..|B-4 ...A ....|--- .... ....|R-- .... ....
....|..|--- .... ....|--- .... ....|--- .... ....
 E-3|..|B-4 ...F ....|--- .... ....|E-2 .E.F ....
....|..|R-- .... ....|--- .... ....|--- .... ....
....|..|B-4 ...A ....|--- .... ....|R-- .... ....
....|..|--- .... ....|--- .... ....|--- .... ....
 B-2|..|B-4 ...F ....|--- .... ....|B-1 .E.F ....
....|..|--- .... ....|--- .... ....|--- .... ....
....|..|B-4 ...A ....|--- .... ....|R-- .... ....
....|..|R-- .... ....|--- .... ....|--- .... ....
 F#3|..|--- .... ....|--- .... ....|F#2 .E.F ....
....|..|--- .... ....|--- .... ....|--- .... ....
....|..|B-4 ...A ....|--- .... ....|R-- .... ....
....|..|--- .... ....|--- .... ....|--- .... ....
 F#3|..|--- .... ....|--- .... ....|F#2 .E.F ....
....|..|--- .... ....|--- .... ....|--- .... ....
....|..|--- .... ....|--- .... ....|R-- .... ....
....|..|--- .... ....|--- .... ....|--- .... ....
 F#3|..|--- .... ....|--- .... ....|F#2 .E.F ....
....|..|--- .... ....|--- .... ....|--- .... ....
....|..|--- .... ....|--- .... ....|R-- .... ....
....|..|--- .... ....|--- .... ....|--- .... ....
 F#3|..|--- .... ....|--- .... ....|F#2 .E.F ....
....|..|--- .... ....|--- .... ....|--- .... ....
....|..|--- .... ....|--- .... ....|R-- .... ....
....|..|--- .... ....|--- .... ....|--- .... ....
 B-2|..|--- .... ....|--- .... ....|B-1 .E.F ....
....|..|--- .... ....|--- .... ....|--- .... ....
....|..|--- .... ....|--- .... ....|R-- .... ....
....|..|--- .... ....|--- .... ....|--- .... ....
 B-2|..|B-4 ...F ....|--- .... ....|B-1 .E.F ....
....|..|R-- .... ....|--- .... ....|--- .... ....
....|..|--- .... ....|--- .... ....|R-- .... ....
....|..|--- .... ....|--- .... ....|--- .... ....
 B-2|..|B-4 ...F ....|--- .... ....|B-1 .E.F ....
....|..|R-- .... ....|--- .... ....|--- .... ....
....|..|B-4 ...A ....|--- .... ....|R-- .... ....
....|..|--- .... ....|--- .... ....|--- .... ....
 B-2|..|B-4 ...F ....|--- .... ....|B-1 .E.F ....
....|..|R-- .... ....|--- .... ....|--- .... ....
....|..|B-4 ...A ....|--- .... ....|R-- .... ....
....|..|--- .... ....|--- .... ....|--- .... ....
 F#2|..|B-4 ...F ....|--- .... ....|F#1 .E.F ....
....|..|R-- .... ....|--- .... ....|--- .... ....
....|..|B-4 ...A ....|--- .... ....|R-- .... ....
....|..|--- .... ....|--- .... ....|--- .... ....
 F#2|..|B-4 ...F ....|--- .... ....|F#1 .E.F ....
....|..|R-- .... ....|--- .... ....|--- .... ....
....|..|B-4 ...A ....|--- .... ....|R-- .... ....
....|..|--- .... ....|--- .... ....|--- .... ....
 B-2|..|B-4 ...F ....|--- .... ....|B-1 .E.F ....
....|..|--- .... ....|--- .... ....|--- .... ....
....|..|B-4 ...A ....|--- .... ....|R-- .... ....
....|..|R-- .... ....|--- .... ....|--- .... ....
 B-2|..|B-4 ...F ....|--- .... ....|B-1 .E.F ....
....|..|R-- .... ....|--- .... ....|--- .... ....
....|..|B-4 ...A ....|--- .... ....|R-- .... ....
....|..|--- .... ....|--- .... ....|--- .... ....

[Pattern58]
 A#2|..|B-4 ...F ....|--- .... ....|A#1 .E.F ....
....|..|R-- .... ....|--- .... ....|--- .... ....
....|..|B-4 ...A ....|--- .... ....|R-- .... ....
....|..|--- .... ....|--- .... ....|--- .... ....
 A#2|..|B-4 ...F ....|--- .... ....|A#1 .E.F ....
....|..|R-- .... ....|--- .... ....|--- .... ....
....|..|B-4 ...A ....|--- .... ....|R-- .... ....
....|..|--- .... ....|--- .... ....|--- .... ....
 A#2|..|B-4 ...F ....|--- .... ....|A#1 .E.F ....
....|..|R-- .... ....|--- .... ....|--- .... ....
....|..|B-4 ...A ....|--- .... ....|R-- .... ....
....|..|--- .... ....|--- .... ....|--- .... ....
 A#2|..|B-4 ...F ....|--- .... ....|A#1 .E.F ....
....|..|--- .... ....|--- .... ....|--- .... ....
....|..|B-4 ...A ....|--- .... ....|R-- .... ....
....|..|R-- .... ....|--- .... ....|--- .... ....
 A#2|..|--- .... ....|--- .... ....|A#1 .E.F ....
....|..|--- .... ....|--- .... ....|--- .... ....
....|..|B-4 ...A ....|--- .... ....|R-- .... ....
....|..|--- .... ....|--- .... ....|--- .... ....
 A#2|..|--- .... ....|--- .... ....|A#1 .E.F ....
....|..|--- .... ....|--- .... ....|--- .... ....
....|..|--- .... ....|--- .... ....|R-- .... ....
....|..|--- .... ....|--- .... ....|--- .... ....
 F#2|..|--- .... ....|--- .... ....|F#1 .E.F ....
....|..|--- .... ....|--- .... ....|--- .... ....
....|..|--- .... ....|--- .... ....|R-- .... ....
....|..|--- .... ....|--- .... ....|--- .... ....
 F#2|..|--- .... ....|--- .... ....|F#1 .E.F ....
....|..|--- .... ....|--- .... ....|--- .... ....
....|..|--- .... ....|--- .... ....|R-- .... ....
....|..|--- .... ....|--- .... ....|--- .... ....
....|..|--- .... ....|--- .... ....|--- .E.. ....
....|..|--- .... ....|--- .... ....|--- .... ....
....|..|--- .... ....|--- .... ....|F#1 ...A ....
....|..|--- .... ....|--- .... ....|--- .... ....
....|..|--- .... ....|--- .... ....|--- .... ....
....|..|--- .... ....|--- .... ....|--- .... ....
....|..|--- .... ....|--- .... ....|--- .... ....
....|..|--- .... ....|--- .... ....|--- .... ....
....|..|--- .... ....|--- .... ....|--- .... ....
....|..|--- .... ....|--- .... ....|--- .... ....
....|..|--- .... ....|--- .... ....|--- .... ....
....|..|--- .... ....|--- .... ....|--- .... ....
....|..|--- .... ....|--- .... ....|--- .... ....
....|..|--- .... ....|--- .... ....|--- .... ....
....|..|--- .... ....|--- .... ....|--- .... ....
....|..|--- .... ....|--- .... ....|--- .... ....
....|..|--- .... ....|--- .... ....|--- .... ....
....|..|--- .... ....|--- .... ....|--- .... ....
....|..|--- .... ....|--- .... ....|--- .... ....
....|..|--- .... ....|--- .... ....|--- .... ....
....|..|--- .... ....|--- .... ....|--- .... ....
....|..|--- .... ....|--- .... ....|--- .... ....
....|..|--- .... ....|--- .... ....|--- .... ....
....|..|--- .... ....|--- .... ....|--- .... ....
....|..|--- .... ....|--- .... ....|--- .... ....
....|..|--- .... ....|--- .... ....|--- .... ....
....|..|--- .... ....|--- .... ....|--- .... ....
....|..|--- .... ....|--- .... ....|--- .... ....
....|..|--- .... ....|--- .... ....|--- .... ....
....|..|--- .... ....|--- .... ....|--- .... ....
....|..|--- .... ....|--- .... ....|--- .... ....
....|..|--- .... ....|--- .... ....|--- .... ....

