[Module]
VortexTrackerII=0
Version=3.5
Title=1d-2me,3p-4p+,5p[3]
Author=oisee ^ 4d 29.05.2010
NoteTable=4
ChipFreq=1750000
Speed=4
PlayOrder=L0,1,2,3,4,5,6,7,8,8,10,10,12,13,14,15,16,17,18,19,20,21,22,23,24,25,26,27,28,29,30,31,4,33,34


[Ornament1]
L0,0,5,5,12,12,17,17,24,24

[Ornament2]
L0,0,12,12

[Ornament3]
L0,0,12,12,24,24

[Ornament4]
L0,0,7,7,12,12,24,24

[Ornament5]
L0,0,7,7,12,12,19,19,24,24

[Ornament6]
L0,0,3,3

[Ornament7]
L0,0,4,4

[Ornament8]
L0,0,7,7

[Ornament9]
L0,0,2,2

[Ornament10]
L0,0,5,5

[Ornament11]
L0,0,10,10

[Ornament12]
L0,0,9,9


[Sample1]
TnE +000_ +00_ F_
TnE +000_ +00_ F_
TnE +000_ +00_ F_
TnE +000_ +00_ D_
TnE +000_ +00_ B_
TnE +000_ +00_ B_ L

[Sample2]
TnE +000_ +00_ F_ L

[Sample3]
TnE +001_ +00_ F_
TnE +002_ +00_ F_
TnE +001_ +00_ E_
TnE +002_ +00_ E_
TnE +000_ +00_ E_ L
TnE -001_ +00_ E_
TnE -002_ +00_ E_
TnE -001_ +00_ E_
TnE +000_ +00_ E_
TnE +001_ +00_ E_
TnE +002_ +00_ E_
TnE +001_ +00_ E_

[Sample4]
TnE +002_ +00_ D_
TnE +002_ +00_ D_
TnE +002_ +00_ C_
TnE +002_ +00_ B_
TnE +002_ +00_ A_ L
TnE +002_ +00_ A_
TnE +002_ +00_ A_
TnE +002_ +00_ A_
TnE +002_ +00_ A_
TnE +002_ +00_ A_
TnE +002_ +00_ A_
TnE +002_ +00_ A_

[Sample5]
TnE +000_ +00_ F_
TnE +000_ +00_ F_
tne +000_ +00_ 0_ L

[Sample6]
TnE -001_ +00_ F_ L

[Sample7]
TnE +006_ +00_ F_ L

[Sample8]
tNe +000_ +00_ F_
tNe +000_ +00_ B_
tNe +000_ +00_ 7_
tNe +000_ +00_ 6- L

[Sample9]
TnE +080_ +00_ F_
TnE +100_ +00_ E_
TnE +180_ +00_ E_
TnE +200_ +00_ E_
TnE +240_ +00_ D_
TnE +280_ +00_ D_
TnE +2C0_ +00_ D_
TnE +300_ +00_ C_
TnE +300_ +00_ C_
TnE +340_ +00_ C_
TnE +340_ +00_ C_
TnE +380_ +00_ B_
TnE +380_ +00_ B_
TnE +400_ +00_ B_
TnE +400_ +00_ B_
TnE +480_ +00_ A_
TnE +500_ +00_ 9_
TnE +580_ +00_ 7_
TnE +600_ +00_ 4_
TnE +680_ +00_ 1_
TnE +000_ +00_ 0_ L

[Sample10]
Tne +1C0_ +00_ F_
Tne +280_ +00_ E_
Tne +380_ +00_ C_
Tne +440_ +00_ A_
Tne +480_ +00_ 8_
TnE +000_ +00_ 0_ L

[Sample11]
TNe +200_ -0A_ F_
tNe +000_ +0F_ A_
TNe +200_ -07_ E_
tNe +000_ +0E_ B- L

[Sample12]
TNE +0A0_ +05_ F_
TNE +140_ +02_ D_
TNE +140_ +02_ B_
TNE +100_ +00_ A_ L
TNE +140_ +00_ A_
TNE +200_ +00_ A-

[Sample13]
Tne +200_ +00_ F_
Tne +2C0_ +00_ F_
Tne +380_ +00_ E_
Tne +500_ +00_ C_
Tne +520_ +00_ 9_
tne +000_ +00_ 0_ L

[Sample14]
TNE -100_ +00_ F_
TNE -100_ +00_ D_
TNE -100_ +00_ A_
TNE -100_ +00_ 5_
tne +000_ +00_ 0_ L

[Sample15]
TNE -100_ +00_ 5_
TNE -100_ +00_ 8_
TNE -100_ +00_ B_
TNE -100_ +00_ F_
TNe -100_ +00_ 9- L

[Sample16]
TnE +000_ +00_ C_
TnE +000_ +00_ E_
TnE +000_ +00_ F_
TnE +000_ +00_ F_
TnE +000_ +00_ E_
TnE +000_ +00_ D_
TnE +000_ +00_ C_
TnE +000_ +00_ C_ L
TnE +001_ +00_ C_
TnE +002_ +00_ C_
TnE +003_ +00_ C_
TnE +001_ +00_ C_
TnE +000_ +00_ C_
TnE -001_ +00_ C_
TnE -002_ +00_ C_
TnE -003_ +00_ C_
TnE -001_ +00_ C_
TnE +000_ +00_ C_
TnE +000_ +00_ C_

[Sample17]
Tne +1C0_ +00_ F_
Tne +280_ +00_ D_
Tne +380_ +00_ 7_
TNE +000_ +00_ 0_ L

[Sample18]
TnE -00C_ +00_ 0_ L

[Sample19]
TNe +000_ +00_ F_
TNe +000_ +00_ C_
TNe +000_ +00_ 6_
TNe +000_ +01_ A- L

[Sample20]
TNE +140_ +00_ F_
tNE +000_ +00_ B- L

[Sample21]
tNE +000_ +00_ D_
tNE +000_ +00_ 8_
tNE +000_ +00_ 1_
TNE +000_ +00_ 0_ L

[Sample22]
TnE +000_ +00_ D_ L
TnE +000_ +00_ D_
tne +000_ +00_ 9_
tne +000_ +00_ 9_
TnE +000_ +00_ D_
TnE +000_ +00_ D_
tne +000_ +00_ 9_
tne +000_ +00_ 9_
TnE +000_ +00_ D_
TnE +000_ +00_ D_
TnE +000_ +00_ D_
TnE +000_ +00_ D_
TnE +000_ +00_ D_
TnE +000_ +00_ D_
tne +000_ +00_ 9_
tne +000_ +00_ 9_

[Sample23]
TnE +000_ +00_ F_ L
TnE +010_ +01_ F_
TnE +010_ +01_ F_
TnE +010_ +01_ F_
TnE +010_ +01_ F_
TnE +000_ +00_ F_
TnE +000_ +00_ F_
TnE -010_ -01_ F_
TnE -010_ -01_ F_
TnE -010_ -01_ F_
TnE -010_ -01_ F_
TnE +000_ +00_ F_

[Sample24]
TNe +000_ -01_ C_
TNe +000_ -01_ D_
TNe +000_ -01_ E_
TNe +000_ -01_ F_
TNe +000_ -01_ F_
TNe +000_ -01_ F_
TNe +000_ -01_ F_
TNe +000_ -01_ F_
TNe +000_ -01_ E_
TNe +000_ -01_ E_
TNe +000_ -01_ E_
TNe +000_ -01_ F_
TNe +000_ -01_ F_ L

[Sample25]
TNE +000_ +00_ F_
TNE +000_ +00_ F_ L
TNE +000_ +00_ F_
TNE +000_ +00_ F_
TNE +000_ +00_ F-

[Sample26]
tne +000_ +00_ 0_ L

[Sample27]
TnE +100_ +05_ F_
TnE +200_ +02_ A_
TnE +300_ +02_ 7_
TNE +400_ +00_ 3- L

[Sample28]
tne +000_ +00_ 0_ L

[Sample29]
tnE +000_ +00_ 0_ L

[Sample30]
TNE +000_ +00_ C+ L

[Sample31]
TNe +1C0_ +00_ F_
Tne +280_ +00_ E_
Tne +380_ +00_ C_
Tne +440_ +00_ A_
Tne +480_ +00_ 8_
TnE +000_ +00_ 0_ L

[Pattern0]
....|..|--- .... ....|--- .... ....|B-4 3F.F ....
....|..|--- .... ....|--- .... ....|--- .... ....
....|..|--- .... ....|--- .... ....|C-5 3F.F ....
....|..|--- .... ....|--- .... ....|--- .... ....
....|..|--- .... ....|--- .... ....|B-4 3F.F ....
....|..|--- .... ....|--- .... ....|--- .... ....
....|..|--- .... ....|--- .... ....|C-5 3F.F ....
....|..|--- .... ....|--- .... ....|--- .... ....
....|..|--- .... ....|--- .... ....|B-4 3F.F ....
....|..|--- .... ....|--- .... ....|--- .... ....
....|..|--- .... ....|--- .... ....|C-5 3F.F ....
....|..|--- .... ....|--- .... ....|--- .... ....
....|..|--- .... ....|--- .... ....|B-4 3F.F ....
....|..|--- .... ....|--- .... ....|--- .... ....
....|..|--- .... ....|--- .... ....|C-5 3F.F ....
....|..|--- .... ....|--- .... ....|--- .... ....
....|..|--- .... ....|--- .... ....|B-4 3F.F ....
....|..|--- .... ....|--- .... ....|--- .... ....
....|..|--- .... ....|--- .... ....|C-5 3F.F ....
....|..|--- .... ....|--- .... ....|--- .... ....
....|..|--- .... ....|--- .... ....|B-4 3F.F ....
....|..|--- .... ....|--- .... ....|--- .... ....
....|..|--- .... ....|--- .... ....|C-5 3F.F ....
....|..|--- .... ....|--- .... ....|--- .... ....
....|..|--- .... ....|--- .... ....|B-4 3F.F ....
....|..|--- .... ....|--- .... ....|--- .... ....
....|..|--- .... ....|--- .... ....|C-5 3F.F ....
....|..|--- .... ....|--- .... ....|--- .... ....
....|..|--- .... ....|--- .... ....|B-4 3F.F ....
....|..|--- .... ....|--- .... ....|--- .... ....
....|..|--- .... ....|--- .... ....|C-5 3F.F ....
....|..|--- .... ....|--- .... ....|--- .... ....
....|..|--- .... ....|--- .... ....|B-4 3F.F ....
....|..|--- .... ....|--- .... ....|--- .... ....
....|..|--- .... ....|--- .... ....|C-5 3F.F ....
....|..|--- .... ....|--- .... ....|--- .... ....
....|..|--- .... ....|--- .... ....|B-4 3F.F ....
....|..|--- .... ....|--- .... ....|--- .... ....
....|..|--- .... ....|--- .... ....|C-5 3F.F ....
....|..|--- .... ....|--- .... ....|--- .... ....
....|..|--- .... ....|--- .... ....|B-4 3F.F ....
....|..|--- .... ....|--- .... ....|--- .... ....
....|..|--- .... ....|--- .... ....|C-5 3F.F ....
....|..|--- .... ....|--- .... ....|--- .... ....
....|..|--- .... ....|--- .... ....|B-4 3F.F ....
....|..|--- .... ....|--- .... ....|--- .... ....
....|..|--- .... ....|--- .... ....|C-5 3F.F ....
....|..|--- .... ....|--- .... ....|--- .... ....
....|..|--- .... ....|--- .... ....|B-4 3F.F ....
....|..|--- .... ....|--- .... ....|--- .... ....
....|..|--- .... ....|--- .... ....|C-5 3F.F ....
....|..|--- .... ....|--- .... ....|--- .... ....
....|..|--- .... ....|--- .... ....|B-4 3F.F ....
....|..|--- .... ....|--- .... ....|--- .... ....
....|..|--- .... ....|--- .... ....|C-5 3F.F ....
....|..|--- .... ....|--- .... ....|--- .... ....
....|..|--- .... ....|--- .... ....|B-4 3F.F ....
....|..|--- .... ....|--- .... ....|--- .... ....
....|..|--- .... ....|--- .... ....|C-5 3F.F ....
....|..|--- .... ....|--- .... ....|--- .... ....
....|..|--- .... ....|--- .... ....|B-4 3F.F ....
....|..|--- .... ....|--- .... ....|--- .... ....
....|..|--- .... ....|--- .... ....|C-5 3F.F ....
....|..|--- .... ....|--- .... ....|--- .... ....

[Pattern1]
....|..|--- .... ....|--- .... ....|B-4 3F.F ....
....|..|--- .... ....|--- .... ....|--- .... ....
....|..|--- .... ....|--- .... ....|C-5 3F.F ....
....|..|--- .... ....|--- .... ....|--- .... ....
....|..|--- .... ....|--- .... ....|B-4 3F.F ....
....|..|--- .... ....|--- .... ....|--- .... ....
....|..|--- .... ....|--- .... ....|C-5 3F.F ....
....|..|--- .... ....|--- .... ....|--- .... ....
....|..|--- .... ....|--- .... ....|B-4 3F.F ....
....|..|--- .... ....|--- .... ....|--- .... ....
....|..|--- .... ....|--- .... ....|C-5 3F.F ....
....|..|--- .... ....|--- .... ....|--- .... ....
....|..|--- .... ....|--- .... ....|B-4 3F.F ....
....|..|--- .... ....|--- .... ....|--- .... ....
....|..|--- .... ....|--- .... ....|C-5 3F.F ....
....|..|--- .... ....|--- .... ....|--- .... ....
....|..|--- .... ....|--- .... ....|B-4 3F.F ....
....|..|--- .... ....|--- .... ....|--- .... ....
....|..|--- .... ....|--- .... ....|C-5 3F.F ....
....|..|--- .... ....|--- .... ....|--- .... ....
....|..|--- .... ....|--- .... ....|B-4 3F.F ....
....|..|--- .... ....|--- .... ....|--- .... ....
....|..|--- .... ....|--- .... ....|C-5 3F.F ....
....|..|--- .... ....|--- .... ....|--- .... ....
....|..|--- .... ....|--- .... ....|B-4 3F.F ....
....|..|--- .... ....|--- .... ....|--- .... ....
....|..|--- .... ....|--- .... ....|C-5 3F.F ....
....|..|--- .... ....|--- .... ....|--- .... ....
....|..|--- .... ....|--- .... ....|B-4 3F.F ....
....|..|--- .... ....|--- .... ....|--- .... ....
....|..|--- .... ....|--- .... ....|C-5 3F.F ....
....|..|--- .... ....|--- .... ....|--- .... ....
....|..|--- .... ....|--- .... ....|B-4 3F.F ....
....|..|--- .... ....|--- .... ....|--- .... ....
....|..|--- .... ....|--- .... ....|C-5 3F.F ....
....|..|--- .... ....|--- .... ....|--- .... ....
....|..|--- .... ....|--- .... ....|B-4 3F.F ....
....|..|--- .... ....|--- .... ....|--- .... ....
....|..|--- .... ....|--- .... ....|C-5 3F.F ....
....|..|--- .... ....|--- .... ....|--- .... ....
....|..|--- .... ....|--- .... ....|B-4 3F.F ....
....|..|--- .... ....|--- .... ....|--- .... ....
....|..|--- .... ....|--- .... ....|C-5 3F.F ....
....|..|--- .... ....|--- .... ....|--- .... ....
....|..|--- .... ....|--- .... ....|B-4 3F.F ....
....|..|--- .... ....|--- .... ....|--- .... ....
....|..|--- .... ....|--- .... ....|C-5 3F.F ....
....|..|--- .... ....|--- .... ....|--- .... ....
....|..|--- .... ....|--- .... ....|B-4 3F.F ....
....|..|--- .... ....|--- .... ....|--- .... ....
....|..|--- .... ....|--- .... ....|C-5 3F.F ....
....|..|--- .... ....|--- .... ....|--- .... ....
....|..|--- .... ....|--- .... ....|B-4 3F.F ....
....|..|--- .... ....|--- .... ....|--- .... ....
....|..|--- .... ....|--- .... ....|C-5 3F.F ....
....|..|--- .... ....|--- .... ....|--- .... ....
....|..|--- .... ....|--- .... ....|B-4 3F.F ....
....|..|--- .... ....|--- .... ....|--- .... ....
....|..|--- .... ....|--- .... ....|C-5 3F.F ....
....|..|--- .... ....|--- .... ....|--- .... ....
....|..|C-4 CF.F ....|--- .... ....|B-4 3F.F ....
....|..|C-4 CF.F ....|--- .... ....|--- .... ....
....|..|C-4 CF.F ....|--- .... ....|C-5 3F.F ....
....|..|C-4 CF.F ....|--- .... ....|--- .... ....

[Pattern2]
....|..|C-4 CF.F ....|E-3 2F1F ....|E-5 3F.F ....
....|..|--- .... ....|--- .... ....|--- .... ....
....|..|R-- .... ....|--- .... ....|C-5 3F.7 ....
....|..|--- .... ....|--- .... ....|--- .... ....
....|..|C-4 CF.F ....|--- .... ....|B-4 3F.7 ....
....|..|--- .... ....|--- .... ....|--- .... ....
....|..|C-4 CF.F ....|--- .... ....|E-5 3F.F ....
....|..|--- .... ....|--- .... ....|--- .... ....
....|..|C-4 CF.A ....|--- .... ....|B-4 3F.7 ....
....|..|C-4 CF.A ....|--- .... ....|--- .... ....
....|..|C-4 CF.A ....|--- .... ....|C-5 3F.7 ....
....|..|C-4 CF.A ....|--- .... ....|--- .... ....
....|..|C-4 CF.F ....|E-3 2F1A ....|E-5 3F.F ....
....|..|--- .... ....|--- .... ....|--- .... ....
....|..|R-- .... ....|--- .... ....|C-5 3F.7 ....
....|..|--- .... ....|--- .... ....|--- .... ....
....|..|C-4 CF.A ....|--- .... ....|B-4 3F.7 ....
....|..|--- .... ....|--- .... ....|--- .... ....
....|..|C-4 CF.A ....|--- .... ....|E-5 3F.F ....
....|..|--- .... ....|--- .... ....|--- .... ....
....|..|C-4 CF.7 ....|--- .... ....|B-4 3F.7 ....
....|..|C-4 CF.7 ....|--- .... ....|--- .... ....
....|..|C-4 CF.7 ....|--- .... ....|C-5 3F.7 ....
....|..|C-4 CF.7 ....|--- .... ....|--- .... ....
....|..|C-4 CF.7 ....|E-3 2F17 ....|B-4 3F.F ....
....|..|--- .... ....|--- .... ....|--- .... ....
....|..|R-- .... ....|--- .... ....|C-5 3F.F ....
....|..|--- .... ....|--- .... ....|--- .... ....
....|..|C-4 CF.7 ....|--- .... ....|B-4 3F.F ....
....|..|--- .... ....|--- .... ....|--- .... ....
....|..|C-4 CF.7 ....|--- .... ....|C-5 3F.F ....
....|..|--- .... ....|--- .... ....|--- .... ....
....|..|R-- .... ....|C-4 2F1F ....|A-4 3F.F ....
....|..|--- .... ....|--- .... ....|--- .... ....
....|..|--- .... ....|--- .... ....|R-- .... ....
....|..|--- .... ....|--- .... ....|--- .... ....
....|..|C-4 CF.7 ....|--- .... ....|E-5 3F.7 ....
....|..|--- .... ....|--- .... ....|--- .... ....
....|..|R-- .... ....|--- .... ....|A-4 3F.F ....
....|..|--- .... ....|--- .... ....|--- .... ....
....|..|--- .... ....|--- .... ....|B-4 3F.A ....
....|..|--- .... ....|--- .... ....|--- .... ....
....|..|--- .... ....|--- .... ....|E-5 3F.7 ....
....|..|--- .... ....|--- .... ....|--- .... ....
....|..|--- .... ....|C-4 2F1A ....|A-4 3F.F ....
....|..|--- .... ....|--- .... ....|--- .... ....
....|..|--- .... ....|--- .... ....|R-- .... ....
....|..|--- .... ....|--- .... ....|--- .... ....
....|..|--- .... ....|--- .... ....|B-4 3F.7 ....
....|..|--- .... ....|--- .... ....|--- .... ....
....|..|--- .... ....|--- .... ....|A-4 3F.F ....
....|..|--- .... ....|--- .... ....|--- .... ....
....|..|--- .... ....|--- .... ....|B-4 3F.7 ....
....|..|--- .... ....|--- .... ....|--- .... ....
....|..|--- .... ....|--- .... ....|C-5 3F.7 ....
....|..|--- .... ....|--- .... ....|--- .... ....
....|..|--- .... ....|C-4 2F17 ....|B-4 3F.F ....
....|..|--- .... ....|--- .... ....|--- .... ....
....|..|--- .... ....|--- .... ....|C-5 3F.F ....
....|..|--- .... ....|--- .... ....|--- .... ....
....|..|--- .... ....|--- .... ....|B-4 3F.F ....
....|..|--- .... ....|--- .... ....|--- .... ....
....|..|--- .... ....|--- .... ....|C-5 3F.F ....
....|..|--- .... ....|--- .... ....|--- .... ....

[Pattern3]
....|..|--- .... ....|E-3 2F1F ....|E-5 3F.F ....
....|..|--- .... ....|--- .... ....|--- .... ....
....|..|--- .... ....|--- .... ....|R-- .... ....
....|..|--- .... ....|--- .... ....|--- .... ....
....|..|--- .... ....|--- .... ....|A-4 3F.7 ....
....|..|--- .... ....|--- .... ....|--- .... ....
....|..|--- .... ....|--- .... ....|E-5 3F.F ....
....|..|--- .... ....|--- .... ....|--- .... ....
....|..|--- .... ....|--- .... ....|B-4 3F.A ....
....|..|--- .... ....|--- .... ....|--- .... ....
....|..|--- .... ....|--- .... ....|A-4 3F.7 ....
....|..|--- .... ....|--- .... ....|--- .... ....
....|..|--- .... ....|E-3 2F1A ....|E-5 3F.F ....
....|..|--- .... ....|--- .... ....|--- .... ....
....|..|--- .... ....|--- .... ....|R-- .... ....
....|..|--- .... ....|--- .... ....|--- .... ....
....|..|--- .... ....|--- .... ....|B-4 3F.7 ....
....|..|--- .... ....|--- .... ....|--- .... ....
....|..|--- .... ....|--- .... ....|E-5 3F.F ....
....|..|--- .... ....|--- .... ....|--- .... ....
....|..|--- .... ....|--- .... ....|B-4 3F.7 ....
....|..|--- .... ....|--- .... ....|--- .... ....
....|..|--- .... ....|--- .... ....|C-5 3F.7 ....
....|..|--- .... ....|--- .... ....|--- .... ....
....|..|--- .... ....|E-3 2F17 ....|B-4 3F.F ....
....|..|--- .... ....|--- .... ....|--- .... ....
....|..|--- .... ....|--- .... ....|C-5 3F.F ....
....|..|--- .... ....|--- .... ....|--- .... ....
....|..|--- .... ....|--- .... ....|B-4 3F.F ....
....|..|--- .... ....|--- .... ....|--- .... ....
....|..|--- .... ....|--- .... ....|C-5 3F.F ....
....|..|--- .... ....|--- .... ....|--- .... ....
....|..|--- .... ....|C-4 2F1F ....|A-4 3F.F ....
....|..|--- .... ....|--- .... ....|--- .... ....
....|..|--- .... ....|--- .... ....|R-- .... ....
....|..|--- .... ....|--- .... ....|--- .... ....
....|..|--- .... ....|--- .... ....|E-5 3F.7 ....
....|..|--- .... ....|--- .... ....|--- .... ....
....|..|--- .... ....|--- .... ....|A-4 3F.F ....
....|..|--- .... ....|--- .... ....|--- .... ....
....|..|--- .... ....|--- .... ....|B-4 3F.A ....
....|..|--- .... ....|--- .... ....|--- .... ....
....|..|--- .... ....|--- .... ....|E-5 3F.7 ....
....|..|--- .... ....|--- .... ....|--- .... ....
....|..|--- .... ....|C-4 2F1A ....|A-4 3F.F ....
....|..|--- .... ....|--- .... ....|--- .... ....
....|..|--- .... ....|--- .... ....|R-- .... ....
....|..|--- .... ....|--- .... ....|--- .... ....
....|..|--- .... ....|--- .... ....|B-4 3F.7 ....
....|..|--- .... ....|--- .... ....|--- .... ....
....|..|--- .... ....|--- .... ....|A-4 3F.F ....
....|..|--- .... ....|--- .... ....|--- .... ....
....|..|--- .... ....|--- .... ....|B-4 3F.7 ....
....|..|--- .... ....|--- .... ....|--- .... ....
....|..|--- .... ....|--- .... ....|C-5 3F.7 ....
....|..|--- .... ....|--- .... ....|--- .... ....
....|..|--- .... ....|C-4 2F17 ....|B-4 3F.F ....
....|..|--- .... ....|--- .... ....|--- .... ....
....|..|--- .... ....|--- .... ....|C-5 3F.F ....
....|..|--- .... ....|--- .... ....|--- .... ....
....|..|--- .... ....|--- .... ....|B-4 3F.F ....
....|..|--- .... ....|--- .... ....|--- .... ....
....|..|--- .... ....|--- .... ....|C-5 3F.F ....
....|..|--- .... ....|--- .... ....|--- .... ....

[Pattern4]
....|..|--- .... ....|E-3 2F1F ....|A-4 3F8F ....
....|..|--- .... ....|--- .... ....|--- .... ....
....|..|--- .... ....|--- .... ....|E-5 3F.F ....
....|..|--- .... ....|--- .... ....|--- .... ....
....|..|--- .... ....|--- .... ....|A-5 3F.F ....
....|..|--- .... ....|--- .... ....|--- .... ....
....|..|--- .... ....|--- .... ....|A-4 3F8F ....
....|..|--- .... ....|--- .... ....|--- .... ....
....|..|--- .... ....|--- .... ....|E-5 3F.F ....
....|..|--- .... ....|--- .... ....|--- .... ....
....|..|--- .... ....|--- .... ....|A-5 3F.F ....
....|..|--- .... ....|--- .... ....|--- .... ....
....|..|--- .... ....|E-3 2F1A ....|A-4 3F8F ....
....|..|--- .... ....|--- .... ....|--- .... ....
....|..|--- .... ....|--- .... ....|E-5 3F.F ....
....|..|--- .... ....|--- .... ....|--- .... ....
....|..|--- .... ....|--- .... ....|A-5 3F.F ....
....|..|--- .... ....|--- .... ....|--- .... ....
....|..|--- .... ....|--- .... ....|A-4 3F8F ....
....|..|--- .... ....|--- .... ....|--- .... ....
....|..|--- .... ....|--- .... ....|E-5 3F.F ....
....|..|--- .... ....|--- .... ....|--- .... ....
....|..|--- .... ....|--- .... ....|A-5 3F.F ....
....|..|--- .... ....|--- .... ....|--- .... ....
....|..|--- .... ....|E-3 2F17 ....|B-4 3F.F ....
....|..|--- .... ....|--- .... ....|--- .... ....
....|..|--- .... ....|--- .... ....|C-5 3F.F ....
....|..|--- .... ....|--- .... ....|--- .... ....
....|..|--- .... ....|--- .... ....|B-4 3F.F ....
....|..|--- .... ....|--- .... ....|--- .... ....
....|..|--- .... ....|--- .... ....|C-5 3F.F ....
....|..|--- .... ....|--- .... ....|--- .... ....
....|..|--- .... ....|C-4 2F1F ....|A-4 3F.F ....
....|..|--- .... ....|--- .... ....|--- .... ....
....|..|--- .... ....|--- .... ....|A-5 3F.7 ....
....|..|--- .... ....|--- .... ....|--- .... ....
....|..|--- .... ....|--- .... ....|A-4 3F87 ....
....|..|--- .... ....|--- .... ....|--- .... ....
....|..|--- .... ....|--- .... ....|A-4 3F.F ....
....|..|--- .... ....|--- .... ....|--- .... ....
....|..|--- .... ....|--- .... ....|A-5 3F.7 ....
....|..|--- .... ....|--- .... ....|--- .... ....
....|..|--- .... ....|--- .... ....|A-4 3F87 ....
....|..|--- .... ....|--- .... ....|--- .... ....
....|..|--- .... ....|C-4 2F1A ....|A-4 3F.F ....
....|..|--- .... ....|--- .... ....|--- .... ....
....|..|--- .... ....|--- .... ....|A-5 3F.7 ....
....|..|--- .... ....|--- .... ....|--- .... ....
....|..|--- .... ....|--- .... ....|B-4 3F.7 ....
....|..|--- .... ....|--- .... ....|--- .... ....
....|..|--- .... ....|--- .... ....|A-4 3F.F ....
....|..|--- .... ....|--- .... ....|--- .... ....
....|..|--- .... ....|--- .... ....|B-4 3F.7 ....
....|..|--- .... ....|--- .... ....|--- .... ....
....|..|--- .... ....|--- .... ....|C-5 3F.7 ....
....|..|--- .... ....|--- .... ....|--- .... ....
....|..|--- .... ....|C-4 2F17 ....|B-4 3F.F ....
....|..|--- .... ....|--- .... ....|--- .... ....
....|..|--- .... ....|--- .... ....|C-5 3F.F ....
....|..|--- .... ....|--- .... ....|--- .... ....
....|..|--- .... ....|--- .... ....|B-4 3F.F ....
....|..|--- .... ....|--- .... ....|--- .... ....
....|..|--- .... ....|--- .... ....|C-5 3F.F ....
....|..|--- .... ....|--- .... ....|--- .... ....

[Pattern5]
....|..|--- .... ....|E-3 2F1F ....|E-5 3F.F ....
....|..|--- .... ....|--- .... ....|--- .... ....
....|..|--- .... ....|--- .... ....|E-4 3F.F ....
....|..|--- .... ....|--- .... ....|--- .... ....
....|..|--- .... ....|--- .... ....|A-4 3F.F ....
....|..|--- .... ....|--- .... ....|--- .... ....
....|..|--- .... ....|--- .... ....|E-5 3F.F ....
....|..|--- .... ....|--- .... ....|--- .... ....
....|..|--- .... ....|--- .... ....|E-4 3F.F ....
....|..|--- .... ....|--- .... ....|--- .... ....
....|..|--- .... ....|--- .... ....|A-4 3F.F ....
....|..|--- .... ....|--- .... ....|--- .... ....
....|..|--- .... ....|E-3 2F1A ....|E-5 3F.F ....
....|..|--- .... ....|--- .... ....|--- .... ....
....|..|--- .... ....|--- .... ....|E-4 3F.F ....
....|..|--- .... ....|--- .... ....|--- .... ....
....|..|--- .... ....|--- .... ....|A-4 3F.F ....
....|..|--- .... ....|--- .... ....|--- .... ....
....|..|--- .... ....|--- .... ....|E-5 3F.F ....
....|..|--- .... ....|--- .... ....|--- .... ....
....|..|--- .... ....|--- .... ....|E-4 3F.F ....
....|..|--- .... ....|--- .... ....|--- .... ....
....|..|--- .... ....|--- .... ....|A-4 3F.F ....
....|..|--- .... ....|--- .... ....|--- .... ....
....|..|--- .... ....|E-3 2F17 ....|B-4 3F.F ....
....|..|--- .... ....|--- .... ....|--- .... ....
....|..|--- .... ....|--- .... ....|C-5 3F.F ....
....|..|--- .... ....|--- .... ....|--- .... ....
....|..|--- .... ....|--- .... ....|B-4 3F.F ....
....|..|--- .... ....|--- .... ....|--- .... ....
....|..|--- .... ....|--- .... ....|C-5 3F.F ....
....|..|--- .... ....|--- .... ....|--- .... ....
....|..|C-5 VF.F ....|C-4 2F1F ....|A-4 3F.F ....
....|..|C-5 VF.F ....|--- .... ....|--- .... ....
....|..|C-5 VF.F ....|--- .... ....|A-4 3F.7 ....
....|..|C-5 VF.F ....|--- .... ....|--- .... ....
....|..|C-5 VF.F ....|--- .... ....|E-5 3F.7 ....
....|..|C-5 VF.F ....|--- .... ....|--- .... ....
....|..|C-5 VF.F ....|--- .... ....|A-4 3F.F ....
....|..|C-5 VF.F ....|--- .... ....|--- .... ....
....|..|C-5 VF.F ....|--- .... ....|A-4 3F.7 ....
....|..|C-5 VF.F ....|--- .... ....|--- .... ....
....|..|C-5 VF.F ....|--- .... ....|E-5 3F.7 ....
....|..|C-5 VF.F ....|--- .... ....|--- .... ....
....|..|C-5 VF.F ....|C-4 2F1A ....|A-4 3F.F ....
....|..|C-5 VF.F ....|--- .... ....|--- .... ....
....|..|C-5 VF.F ....|--- .... ....|A-4 3F.7 ....
....|..|C-5 VF.F ....|--- .... ....|--- .... ....
....|..|C-5 VF.F ....|--- .... ....|B-4 3F.7 ....
....|..|C-5 VF.F ....|--- .... ....|--- .... ....
....|..|C-5 VF.F ....|--- .... ....|A-4 3F.F ....
....|..|C-5 VF.F ....|--- .... ....|--- .... ....
....|..|C-5 VF.F ....|--- .... ....|B-4 3F.7 ....
....|..|C-5 VF.F ....|--- .... ....|--- .... ....
....|..|C-5 VF.F ....|--- .... ....|C-5 3F.7 ....
....|..|C-5 VF.F ....|--- .... ....|--- .... ....
....|..|C-5 VF.F ....|C-4 2F17 ....|B-4 3F.F ....
....|..|C-5 VF.F ....|--- .... ....|--- .... ....
....|..|C-5 VF.F ....|--- .... ....|R-- .... ....
....|..|C-5 VF.F ....|--- .... ....|--- .... ....
....|..|C-5 VF.F ....|--- .... ....|--- .... ....
....|..|C-5 VF.F ....|--- .... ....|--- .... ....
....|..|C-5 VF.F ....|--- .... ....|A-4 3F.7 ....
....|..|C-5 VF.F ....|--- .... ....|--- .... ....

[Pattern6]
....|..|C-4 AF.F ....|A-4 2F6F ....|R-- .... ....
....|..|C-4 AF.F ....|R-- .... ....|--- .... ....
....|..|C-4 AF.F ....|A-4 2F6F ....|--- .... ....
 A-3|..|A-1 2A.F ....|R-- .... ....|--- .... ....
....|..|C-4 AF.F ....|A-4 2F6F ....|A-4 3F.7 ....
 A-3|..|A-1 2A.F ....|R-- .... ....|--- .... ....
....|..|C-4 AF.F ....|A-4 2F6F ....|R-- .... ....
 A-3|..|A-2 2C.F ....|R-- .... ....|--- .... ....
....|..|C-5 VF.F ....|A-4 2F6F ....|B-5 3F.F ....
 A-3|..|A-1 2A.F ....|R-- .... ....|--- .... ....
....|..|C-4 AF.F ....|A-4 2F6F ....|C-6 3F.F ....
 A-3|..|A-1 2A.F ....|R-- .... ....|--- .... ....
....|..|C-4 AF.F ....|A-4 2F6F ....|B-5 3F.F ....
 A-3|..|A-2 2C.F ....|R-- .... ....|--- .... ....
....|..|C-4 AF.F ....|A-4 2F6F ....|C-6 3F.F ....
 A-3|..|A-1 2A.F ....|R-- .... ....|--- .... ....
....|..|C-4 AF.F ....|A-4 2F6F ....|B-5 3F.F ....
 A-3|..|A-1 2A.F ....|R-- .... ....|--- .... ....
....|..|C-5 VF.F ....|A-4 2F6F ....|C-6 3F.F ....
 A-3|..|A-2 2C.F ....|R-- .... ....|--- .... ....
....|..|C-4 AF.F ....|A-4 2F6F ....|B-5 3F.F ....
 A-3|..|A-1 2A.F ....|R-- .... ....|--- .... ....
....|..|C-4 AF.F ....|A-4 2F6F ....|C-6 3F.F ....
 A-3|..|A-1 2A.F ....|R-- .... ....|--- .... ....
....|..|C-5 VF.F ....|A-4 2F6F ....|B-5 3F.F ....
 A-3|..|A-2 2C.F ....|R-- .... ....|--- .... ....
....|..|C-4 AF.F ....|A-4 2F6F ....|C-6 3F.F ....
 A-3|..|A-1 2A.F ....|R-- .... ....|--- .... ....
....|..|C-4 AF.F ....|A-4 2F6F ....|B-5 3F.F ....
 A-3|..|A-1 2A.F ....|R-- .... ....|--- .... ....
 A-3|..|A-2 2C.F ....|A-4 2F6F ....|C-6 3F.F ....
 A-3|..|A-1 2A.F ....|R-- .... ....|--- .... ....
....|..|C-4 AF.F ....|G-4 2F7F ....|B-5 3F.7 ....
 A-3|..|A-1 2A.F ....|R-- .... ....|--- .... ....
....|..|C-4 AF.F ....|G-4 2F7F ....|C-6 3F.7 ....
 A-3|..|A-1 2A.F ....|R-- .... ....|--- .... ....
....|..|C-4 AF.F ....|G-4 2F7F ....|B-5 3F.7 ....
 A-3|..|A-2 2C.F ....|R-- .... ....|--- .... ....
....|..|C-4 AF.F ....|G-4 2F7F ....|C-6 3F.7 ....
 A-3|..|A-1 2A.F ....|R-- .... ....|--- .... ....
....|..|C-5 VF.F ....|G-4 2F7F ....|B-5 3F.7 ....
 A-3|..|A-1 2A.F ....|R-- .... ....|--- .... ....
....|..|C-4 AF.F ....|G-4 2F7F ....|C-6 3F.7 ....
 A-3|..|A-2 2C.F ....|R-- .... ....|--- .... ....
....|..|C-4 AF.F ....|G-4 2F7F ....|B-5 3F.7 ....
 A-3|..|A-1 2A.F ....|R-- .... ....|--- .... ....
....|..|C-4 AF.F ....|G-4 2F7F ....|C-6 3F.7 ....
 A-3|..|A-1 2A.F ....|R-- .... ....|--- .... ....
....|..|C-4 AF.F ....|G-4 2F7F ....|B-5 3F.7 ....
 A-3|..|A-2 2C.F ....|R-- .... ....|--- .... ....
....|..|C-5 VF.F ....|G-4 2F7F ....|C-6 3F.7 ....
 A-3|..|A-1 2A.F ....|R-- .... ....|--- .... ....
....|..|C-4 AF.F ....|G-4 2F7F ....|B-5 3F.7 ....
 A-3|..|A-1 2A.F ....|R-- .... ....|--- .... ....
....|..|C-4 AF.F ....|G-4 2F7F ....|C-6 3F.7 ....
 A-3|..|A-2 2C.F ....|R-- .... ....|--- .... ....
....|..|C-5 VF.F ....|G-4 2F7F ....|R-- .... ....
 A-3|..|A-1 2A.F ....|R-- .... ....|--- .... ....
....|..|C-5 VF.F ....|G-4 2F7F ....|--- .... ....
 A-3|..|A-1 2A.F ....|R-- .... ....|--- .... ....
....|..|C-4 LF.F ....|G-4 2F7F ....|--- .... ....
 A-3|..|A-2 2C.F ....|R-- .... ....|--- .... ....
 A-3|..|A-1 2A.F ....|G-4 2F7F ....|--- .... ....
....|..|A-1 2F.7 ....|R-- .... ....|--- .... ....

[Pattern7]
....|..|C-4 AF.F ....|A-4 2F6F ....|--- .... ....
 A-3|..|A-1 2A.F ....|R-- .... ....|--- .... ....
....|..|C-4 AF.F ....|A-4 2F6F ....|--- .... ....
 A-3|..|A-1 2A.F ....|R-- .... ....|--- .... ....
....|..|C-4 AF.F ....|A-4 2F6F ....|--- .... ....
 A-3|..|A-2 2C.F ....|R-- .... ....|--- .... ....
....|..|C-4 AF.F ....|A-4 2F6F ....|--- .... ....
 A-3|..|A-1 2A.F ....|R-- .... ....|--- .... ....
....|..|C-5 VF.F ....|A-4 2F6F ....|B-5 3F.F ....
 A-3|..|A-1 2A.F ....|R-- .... ....|--- .... ....
....|..|C-4 AF.F ....|A-4 2F6F ....|C-6 3F.F ....
 A-3|..|A-2 2C.F ....|R-- .... ....|--- .... ....
....|..|C-4 AF.F ....|A-4 2F6F ....|B-5 3F.F ....
 A-3|..|A-1 2A.F ....|R-- .... ....|--- .... ....
....|..|C-4 AF.F ....|A-4 2F6F ....|C-6 3F.F ....
 A-3|..|A-1 2A.F ....|R-- .... ....|--- .... ....
....|..|C-4 AF.F ....|A-4 2F6F ....|B-5 3F.F ....
 A-3|..|A-2 2C.F ....|R-- .... ....|--- .... ....
....|..|C-5 VF.F ....|A-4 2F6F ....|C-6 3F.F ....
 A-3|..|A-1 2A.F ....|R-- .... ....|--- .... ....
....|..|C-4 AF.F ....|A-4 2F6F ....|B-5 3F.F ....
 A-3|..|A-1 2A.F ....|R-- .... ....|--- .... ....
....|..|C-4 AF.F ....|A-4 2F6F ....|C-6 3F.F ....
 A-3|..|A-2 2C.F ....|R-- .... ....|--- .... ....
....|..|C-5 VF.F ....|A-4 2F6F ....|B-5 3F.F ....
 A-3|..|A-1 2A.F ....|R-- .... ....|--- .... ....
....|..|C-4 AF.F ....|A-4 2F6F ....|C-6 3F.F ....
 A-3|..|A-1 2A.F ....|R-- .... ....|--- .... ....
....|..|C-4 AF.F ....|A-4 2F6F ....|B-5 3F.F ....
 A-3|..|A-2 2C.F ....|R-- .... ....|--- .... ....
 A-3|..|A-1 2A.F ....|A-4 2F6F ....|C-6 3F.F ....
....|..|A-1 2F.7 ....|R-- .... ....|--- .... ....
....|..|C-4 AF.F ....|G-4 2F7F ....|B-5 3F.7 ....
 A-3|..|A-1 2A.F ....|R-- .... ....|--- .... ....
....|..|C-4 AF.F ....|G-4 2F7F ....|C-6 3F.7 ....
 A-3|..|A-1 2A.F ....|R-- .... ....|--- .... ....
....|..|C-4 AF.F ....|G-4 2F7F ....|B-5 3F.7 ....
 A-3|..|A-2 2C.F ....|R-- .... ....|--- .... ....
....|..|C-4 AF.F ....|G-4 2F7F ....|C-6 3F.7 ....
 A-3|..|A-1 2A.F ....|R-- .... ....|--- .... ....
....|..|C-5 VF.F ....|G-4 2F7F ....|B-5 3F.7 ....
 A-3|..|A-1 2A.F ....|R-- .... ....|--- .... ....
....|..|C-4 AF.F ....|G-4 2F7F ....|C-6 3F.7 ....
 A-3|..|A-2 2C.F ....|R-- .... ....|--- .... ....
....|..|C-4 AF.F ....|G-4 2F7F ....|B-5 3F.7 ....
 A-3|..|A-1 2A.F ....|R-- .... ....|--- .... ....
....|..|C-4 AF.F ....|G-4 2F7F ....|C-6 3F.7 ....
 A-3|..|A-1 2A.F ....|R-- .... ....|--- .... ....
....|..|C-4 AF.F ....|G-4 2F7F ....|B-5 3F.7 ....
 A-3|..|A-2 2C.F ....|R-- .... ....|--- .... ....
....|..|C-5 VF.F ....|G-4 2F7F ....|C-6 3F.7 ....
 A-3|..|A-1 2A.F ....|R-- .... ....|--- .... ....
....|..|C-4 AF.F ....|G-4 2F7F ....|B-5 3F.7 ....
 A-3|..|A-1 2A.F ....|R-- .... ....|--- .... ....
....|..|C-4 AF.F ....|G-4 2F7F ....|C-6 3F.7 ....
 A-3|..|A-2 2C.F ....|R-- .... ....|--- .... ....
....|..|C-5 VF.F ....|G-4 2F7F ....|R-- .... ....
 A-3|..|A-1 2A.F ....|R-- .... ....|--- .... ....
....|..|C-5 VF.F ....|G-4 2F7F ....|--- .... ....
 A-3|..|A-1 2A.F ....|R-- .... ....|--- .... ....
....|..|C-4 LF.F ....|G-4 2F7F ....|--- .... ....
 A-3|..|A-2 2C.F ....|R-- .... ....|--- .... ....
 A-3|..|A-1 2A.F ....|G-4 2F7F ....|--- .... ....
....|..|A-1 2F.7 ....|R-- .... ....|--- .... ....

[Pattern8]
....|..|C-4 AF.F ....|F-4 2F7F ....|--- .... ....
 F-3|..|F-1 2A.F ....|R-- .... ....|--- .... ....
....|..|C-4 AF.F ....|F-4 2F7F ....|--- .... ....
 F-3|..|F-1 2A.F ....|R-- .... ....|--- .... ....
....|..|C-4 AF.F ....|F-4 2F7F ....|--- .... ....
 F-4|..|F-2 2A.F ....|R-- .... ....|--- .... ....
....|..|C-4 AF.F ....|F-4 2F7F ....|--- .... ....
 F-3|..|F-1 2A.F ....|R-- .... ....|--- .... ....
....|..|C-5 VF.F ....|F-4 2F7F ....|B-5 3F.F ....
 F-3|..|F-1 2A.F ....|R-- .... ....|--- .... ....
....|..|C-4 AF.F ....|F-4 2F7F ....|C-6 3F.F ....
 F-4|..|F-2 2A.F ....|R-- .... ....|--- .... ....
....|..|C-4 AF.F ....|F-4 2F7F ....|B-5 3F.F ....
 F-3|..|F-1 2A.F ....|R-- .... ....|--- .... ....
....|..|C-4 AF.F ....|F-4 2F7F ....|C-6 3F.F ....
 F-3|..|F-1 2A.F ....|R-- .... ....|--- .... ....
....|..|C-4 AF.F ....|F-4 2F7F ....|B-5 3F.F ....
 F-4|..|F-2 2A.F ....|R-- .... ....|--- .... ....
....|..|C-5 VF.F ....|F-4 2F7F ....|C-6 3F.F ....
 F-3|..|F-1 2A.F ....|R-- .... ....|--- .... ....
....|..|C-4 AF.F ....|F-4 2F7F ....|B-5 3F.F ....
 F-3|..|F-1 2A.F ....|R-- .... ....|--- .... ....
....|..|C-4 AF.F ....|F-4 2F7F ....|C-6 3F.F ....
 F-4|..|F-2 2A.F ....|R-- .... ....|--- .... ....
....|..|C-5 VF.F ....|F-4 2F7F ....|B-5 3F.F ....
 F-3|..|F-1 2A.F ....|R-- .... ....|--- .... ....
....|..|C-4 AF.F ....|F-4 2F7F ....|C-6 3F.F ....
 F-3|..|F-1 2A.F ....|R-- .... ....|--- .... ....
....|..|C-4 AF.F ....|F-4 2F7F ....|B-5 3F.F ....
 F-4|..|F-2 2A.F ....|R-- .... ....|--- .... ....
 F-3|..|F-1 2A.F ....|F-4 2F7F ....|C-6 3F.F ....
....|..|F-1 2F.7 ....|R-- .... ....|--- .... ....
....|..|C-4 AF.F ....|G-4 2F7F ....|B-5 3F.7 ....
 F-3|..|F-1 2A.F ....|R-- .... ....|--- .... ....
....|..|C-4 AF.F ....|G-4 2F7F ....|C-6 3F.7 ....
 F-3|..|F-1 2A.F ....|R-- .... ....|--- .... ....
....|..|C-4 AF.F ....|G-4 2F7F ....|B-5 3F.7 ....
 F-4|..|F-2 2A.F ....|R-- .... ....|--- .... ....
....|..|C-4 AF.F ....|G-4 2F7F ....|C-6 3F.7 ....
 F-3|..|F-1 2A.F ....|R-- .... ....|--- .... ....
....|..|C-5 VF.F ....|G-4 2F7F ....|B-5 3F.7 ....
 F-3|..|F-1 2A.F ....|R-- .... ....|--- .... ....
....|..|C-4 AF.F ....|G-4 2F7F ....|C-6 3F.7 ....
 F-4|..|F-2 2A.F ....|R-- .... ....|--- .... ....
....|..|C-4 AF.F ....|G-4 2F7F ....|B-5 3F.7 ....
 F-3|..|F-1 2A.F ....|R-- .... ....|--- .... ....
....|..|C-4 AF.F ....|G-4 2F7F ....|C-6 3F.7 ....
 F-3|..|F-1 2A.F ....|R-- .... ....|--- .... ....
....|..|C-4 AF.F ....|G-4 2F7F ....|B-5 3F.7 ....
 F-4|..|F-2 2A.F ....|R-- .... ....|--- .... ....
....|..|C-5 VF.F ....|G-4 2F7F ....|C-6 3F.7 ....
 F-3|..|F-1 2A.F ....|R-- .... ....|--- .... ....
....|..|C-4 AF.F ....|G-4 2F7F ....|B-5 3F.7 ....
 F-3|..|F-1 2A.F ....|R-- .... ....|--- .... ....
....|..|C-4 AF.F ....|G-4 2F7F ....|C-6 3F.7 ....
 F-4|..|F-2 2A.F ....|R-- .... ....|--- .... ....
....|..|C-5 VF.F ....|G-4 2F7F ....|R-- .... ....
 F-3|..|F-1 2A.F ....|R-- .... ....|--- .... ....
....|..|C-5 VF.F ....|G-4 2F7F ....|--- .... ....
 F-3|..|F-1 2A.F ....|R-- .... ....|--- .... ....
....|..|C-4 LF.F ....|G-4 2F7F ....|--- .... ....
 F-4|..|F-2 2A.F ....|R-- .... ....|--- .... ....
 F-3|..|F-1 2A.F ....|G-4 2F7F ....|--- .... ....
....|..|F-1 2F.7 ....|R-- .... ....|--- .... ....

[Pattern10]
....|..|C-4 AF.F ....|A-4 2F6F ....|E-4 3F2F ....
 A-3|..|A-1 2A.F ....|R-- .... ....|--- .... ....
....|..|C-4 AF.F ....|A-4 2F6F ....|--- .... ....
 A-3|..|A-1 2A.F ....|R-- .... ....|--- .... ....
....|..|C-4 AF.F ....|A-4 2F6F ....|--- .... ....
 A-3|..|A-2 2C.F ....|R-- .... ....|--- .... ....
....|..|C-4 AF.F ....|A-4 2F6F ....|--- .... ....
 A-3|..|A-1 2A.F ....|R-- .... ....|--- .... ....
....|..|C-5 VF.F ....|A-4 2F6F ....|--- .... ....
 A-3|..|A-1 2A.F ....|R-- .... ....|--- .... ....
....|..|C-4 AF.F ....|A-4 2F6F ....|--- .... ....
 A-3|..|A-2 2C.F ....|R-- .... ....|--- .... ....
....|..|C-4 AF.F ....|A-4 2F6F ....|E-4 3F2A ....
 A-3|..|A-1 2A.F ....|R-- .... ....|--- .... ....
....|..|C-4 AF.F ....|A-4 2F6F ....|--- .... ....
 A-3|..|A-1 2A.F ....|R-- .... ....|--- .... ....
....|..|C-4 AF.F ....|A-4 2F6F ....|A-3 3F2F ....
 A-3|..|A-2 2C.F ....|R-- .... ....|--- .... ....
....|..|C-5 VF.F ....|A-4 2F6F ....|--- .... ....
 A-3|..|A-1 2A.F ....|R-- .... ....|--- .... ....
....|..|C-4 AF.F ....|A-4 2F6F ....|--- .... ....
 A-3|..|A-1 2A.F ....|R-- .... ....|--- .... ....
....|..|C-4 AF.F ....|A-4 2F6F ....|--- .... ....
 A-3|..|A-2 2C.F ....|R-- .... ....|--- .... ....
....|..|C-5 VF.F ....|A-4 2F6F ....|E-4 3F27 ....
 A-3|..|A-1 2A.F ....|R-- .... ....|--- .... ....
....|..|C-4 AF.F ....|A-4 2F6F ....|--- .... ....
 A-3|..|A-1 2A.F ....|R-- .... ....|--- .... ....
....|..|C-4 AF.F ....|A-4 2F6F ....|A-3 3F2A ....
 A-3|..|A-2 2C.F ....|R-- .... ....|--- .... ....
 A-3|..|A-1 2A.F ....|A-4 2F6F ....|--- .... ....
....|..|A-1 2F.7 ....|R-- .... ....|--- .... ....
....|..|C-4 AF.F ....|G-4 2F7F ....|B-3 3F2F ....
 A-3|..|A-1 2A.F ....|R-- .... ....|--- .... ....
....|..|C-4 AF.F ....|G-4 2F7F ....|--- .... ....
 A-3|..|A-1 2A.F ....|R-- .... ....|--- .... ....
....|..|C-4 AF.F ....|G-4 2F7F ....|--- .... ....
 A-3|..|A-2 2C.F ....|R-- .... ....|--- .... ....
....|..|C-4 AF.F ....|G-4 2F7F ....|--- .... ....
 A-3|..|A-1 2A.F ....|R-- .... ....|--- .... ....
....|..|C-5 VF.F ....|G-4 2F7F ....|A-3 3F27 ....
 A-3|..|A-1 2A.F ....|R-- .... ....|--- .... ....
....|..|C-4 AF.F ....|G-4 2F7F ....|--- .... ....
 A-3|..|A-2 2C.F ....|R-- .... ....|--- .... ....
....|..|C-4 AF.F ....|G-4 2F7F ....|B-3 3F2A ....
 A-3|..|A-1 2A.F ....|R-- .... ....|--- .... ....
....|..|C-4 AF.F ....|G-4 2F7F ....|--- .... ....
 A-3|..|A-1 2A.F ....|R-- .... ....|--- .... ....
....|..|C-4 AF.F ....|G-4 2F7F ....|--- .... ....
 A-3|..|A-2 2C.F ....|R-- .... ....|--- .... ....
....|..|C-5 VF.F ....|G-4 2F7F ....|--- .... ....
 A-3|..|A-1 2A.F ....|R-- .... ....|--- .... ....
....|..|C-4 AF.F ....|G-4 2F7F ....|--- .... ....
 A-3|..|A-1 2A.F ....|R-- .... ....|--- .... ....
....|..|C-4 AF.F ....|G-4 2F7F ....|--- .... ....
 A-3|..|A-2 2C.F ....|R-- .... ....|--- .... ....
....|..|C-5 VF.F ....|G-4 2F7F ....|B-3 3F27 ....
 A-3|..|A-1 2A.F ....|R-- .... ....|--- .... ....
....|..|C-5 VF.F ....|G-4 2F7F ....|--- .... ....
 A-3|..|A-1 2A.F ....|R-- .... ....|--- .... ....
....|..|C-4 LF.F ....|G-4 2F7F ....|--- .... ....
 A-3|..|A-2 2C.F ....|R-- .... ....|--- .... ....
 A-3|..|A-1 2A.F ....|G-4 2F7F ....|--- .... ....
....|..|A-1 2F.7 ....|R-- .... ....|--- .... ....

[Pattern12]
....|..|C-4 AF.F ....|F-4 2F7F ....|A-3 3F2F ....
 F-3|..|F-1 2A.F ....|R-- .... ....|--- .... ....
....|..|C-4 AF.F ....|F-4 2F7F ....|--- .... ....
 F-3|..|F-1 2A.F ....|R-- .... ....|--- .... ....
....|..|C-4 AF.F ....|F-4 2F7F ....|--- .... ....
 F-4|..|F-2 2A.F ....|R-- .... ....|--- .... ....
....|..|C-4 AF.F ....|F-4 2F7F ....|--- .... ....
 F-3|..|F-1 2A.F ....|R-- .... ....|--- .... ....
....|..|C-5 VF.F ....|F-4 2F7F ....|--- .... ....
 F-3|..|F-1 2A.F ....|R-- .... ....|--- .... ....
....|..|C-4 AF.F ....|F-4 2F7F ....|--- .... ....
 F-4|..|F-2 2A.F ....|R-- .... ....|--- .... ....
....|..|C-4 AF.F ....|F-4 2F7F ....|A-3 3F2A ....
 F-3|..|F-1 2A.F ....|R-- .... ....|--- .... ....
....|..|C-4 AF.F ....|F-4 2F7F ....|--- .... ....
 F-3|..|F-1 2A.F ....|R-- .... ....|--- .... ....
....|..|C-4 AF.F ....|F-4 2F7F ....|--- .... ....
 F-4|..|F-2 2A.F ....|R-- .... ....|--- .... ....
....|..|C-5 VF.F ....|F-4 2F7F ....|--- .... ....
 F-3|..|F-1 2A.F ....|R-- .... ....|--- .... ....
....|..|C-4 AF.F ....|F-4 2F7F ....|--- .... ....
 F-3|..|F-1 2A.F ....|R-- .... ....|--- .... ....
....|..|C-4 AF.F ....|F-4 2F7F ....|--- .... ....
 F-4|..|F-2 2A.F ....|R-- .... ....|--- .... ....
....|..|C-5 VF.F ....|F-4 2F7F ....|A-3 3F27 ....
 F-3|..|F-1 2A.F ....|R-- .... ....|--- .... ....
....|..|C-4 AF.F ....|F-4 2F7F ....|--- .... ....
 F-3|..|F-1 2A.F ....|R-- .... ....|--- .... ....
....|..|C-4 AF.F ....|F-4 2F7F ....|B-3 3F2F ....
 F-4|..|F-2 2A.F ....|R-- .... ....|--- .... ....
 F-3|..|F-1 2A.F ....|F-4 2F7F ....|--- .... ....
....|..|F-1 2F.7 ....|R-- .... ....|--- .... ....
....|..|C-4 AF.F ....|G-4 2F7F ....|C-4 3F2F ....
 F-3|..|F-1 2A.F ....|R-- .... ....|--- .... ....
....|..|C-4 AF.F ....|G-4 2F7F ....|--- .... ....
 F-3|..|F-1 2A.F ....|R-- .... ....|--- .... ....
....|..|C-4 AF.F ....|G-4 2F7F ....|--- .... ....
 F-4|..|F-2 2A.F ....|R-- .... ....|--- .... ....
....|..|C-4 AF.F ....|G-4 2F7F ....|--- .... ....
 F-3|..|F-1 2A.F ....|R-- .... ....|--- .... ....
....|..|C-5 VF.F ....|G-4 2F7F ....|B-3 3F2A ....
 F-3|..|F-1 2A.F ....|R-- .... ....|--- .... ....
....|..|C-4 AF.F ....|G-4 2F7F ....|--- .... ....
 F-4|..|F-2 2A.F ....|R-- .... ....|--- .... ....
....|..|C-4 AF.F ....|G-4 2F7F ....|C-4 3F2A ....
 F-3|..|F-1 2A.F ....|R-- .... ....|--- .... ....
....|..|C-4 AF.F ....|G-4 2F7F ....|--- .... ....
 F-3|..|F-1 2A.F ....|R-- .... ....|--- .... ....
....|..|C-4 AF.F ....|G-4 2F7F ....|--- .... ....
 F-4|..|F-2 2A.F ....|R-- .... ....|--- .... ....
....|..|C-5 VF.F ....|G-4 2F7F ....|--- .... ....
 F-3|..|F-1 2A.F ....|R-- .... ....|--- .... ....
....|..|C-4 AF.F ....|G-4 2F7F ....|B-3 3F27 ....
 F-3|..|F-1 2A.F ....|R-- .... ....|--- .... ....
....|..|C-4 AF.F ....|G-4 2F7F ....|--- .... ....
 F-4|..|F-2 2A.F ....|R-- .... ....|--- .... ....
....|..|C-5 VF.F ....|G-4 2F7F ....|C-4 3F27 ....
 F-3|..|F-1 2A.F ....|R-- .... ....|--- .... ....
....|..|C-5 VF.F ....|G-4 2F7F ....|--- .... ....
 F-3|..|F-1 2A.F ....|R-- .... ....|--- .... ....
....|..|C-4 LF.F ....|G-4 2F7F ....|--- .... ....
 F-4|..|F-2 2A.F ....|R-- .... ....|--- .... ....
 F-3|..|F-1 2A.F ....|G-4 2F7F ....|--- .... ....
....|..|F-1 2F.7 ....|R-- .... ....|--- .... ....

[Pattern13]
....|..|C-4 AF.F ....|F-4 2F7F ....|A-3 3F2F ....
 F-3|..|F-1 2A.F ....|R-- .... ....|--- .... ....
....|..|C-4 AF.F ....|F-4 2F7F ....|--- .... ....
 F-3|..|F-1 2A.F ....|R-- .... ....|--- .... ....
....|..|C-4 AF.F ....|F-4 2F7F ....|--- .... ....
 F-4|..|F-2 2A.F ....|R-- .... ....|--- .... ....
....|..|C-4 AF.F ....|F-4 2F7F ....|--- .... ....
 F-3|..|F-1 2A.F ....|R-- .... ....|--- .... ....
....|..|C-5 VF.F ....|F-4 2F7F ....|--- .... ....
 F-3|..|F-1 2A.F ....|R-- .... ....|--- .... ....
....|..|C-4 AF.F ....|F-4 2F7F ....|--- .... ....
 F-4|..|F-2 2A.F ....|R-- .... ....|--- .... ....
....|..|C-4 AF.F ....|F-4 2F7F ....|A-3 3F2A ....
 F-3|..|F-1 2A.F ....|R-- .... ....|--- .... ....
....|..|C-4 AF.F ....|F-4 2F7F ....|--- .... ....
 F-3|..|F-1 2A.F ....|R-- .... ....|--- .... ....
....|..|C-4 AF.F ....|F-4 2F7F ....|--- .... ....
 F-4|..|F-2 2A.F ....|R-- .... ....|--- .... ....
....|..|C-5 VF.F ....|F-4 2F7F ....|--- .... ....
 F-3|..|F-1 2A.F ....|R-- .... ....|--- .... ....
....|..|C-4 AF.F ....|F-4 2F7F ....|--- .... ....
 F-3|..|F-1 2A.F ....|R-- .... ....|--- .... ....
....|..|C-4 AF.F ....|F-4 2F7F ....|--- .... ....
 F-4|..|F-2 2A.F ....|R-- .... ....|--- .... ....
....|..|C-5 VF.F ....|F-4 2F7F ....|A-3 3F27 ....
 F-3|..|F-1 2A.F ....|R-- .... ....|--- .... ....
....|..|C-4 AF.F ....|F-4 2F7F ....|--- .... ....
 F-3|..|F-1 2A.F ....|R-- .... ....|--- .... ....
....|..|C-4 AF.F ....|F-4 2F7F ....|B-3 3F2F ....
 F-4|..|F-2 2A.F ....|R-- .... ....|--- .... ....
 F-3|..|F-1 2A.F ....|F-4 2F7F ....|--- .... ....
....|..|F-1 2F.7 ....|R-- .... ....|--- .... ....
....|..|C-4 AF.F ....|G-4 2F7F ....|F-4 3F2F ....
 F-3|..|F-1 2A.F ....|R-- .... ....|--- .... ....
....|..|C-4 AF.F ....|G-4 2F7F ....|--- .... ....
 F-3|..|F-1 2A.F ....|R-- .... ....|--- .... ....
....|..|C-4 AF.F ....|G-4 2F7F ....|--- .... ....
 F-4|..|F-2 2A.F ....|R-- .... ....|--- .... ....
....|..|C-4 AF.F ....|G-4 2F7F ....|--- .... ....
 F-3|..|F-1 2A.F ....|R-- .... ....|--- .... ....
....|..|C-5 VF.F ....|G-4 2F7F ....|B-3 3F2A ....
 F-3|..|F-1 2A.F ....|R-- .... ....|--- .... ....
....|..|C-4 AF.F ....|G-4 2F7F ....|--- .... ....
 F-4|..|F-2 2A.F ....|R-- .... ....|--- .... ....
....|..|C-4 AF.F ....|G-4 2F7F ....|F-4 3F2A ....
 F-3|..|F-1 2A.F ....|R-- .... ....|--- .... ....
....|..|C-4 AF.F ....|G-4 2F7F ....|--- .... ....
 F-3|..|F-1 2A.F ....|R-- .... ....|--- .... ....
....|..|C-4 AF.F ....|G-4 2F7F ....|B-4 3F2F ....
 F-4|..|F-2 2A.F ....|R-- .... ....|--- .... ....
....|..|C-5 VF.F ....|G-4 2F7F ....|--- .... ....
 F-3|..|F-1 2A.F ....|R-- .... ....|--- .... ....
....|..|C-4 AF.F ....|G-4 2F7F ....|C-4 3F2F ....
 F-3|..|F-1 2A.F ....|R-- .... ....|--- .... ....
....|..|C-4 AF.F ....|G-4 2F7F ....|--- .... ....
 F-4|..|F-2 2A.F ....|R-- .... ....|--- .... ....
....|..|C-5 VF.F ....|G-4 2F7F ....|B-4 3F2F ....
 F-3|..|F-1 2A.F ....|R-- .... ....|--- .... ....
....|..|C-5 VF.F ....|G-4 2F7F ....|--- .... ....
 F-3|..|F-1 2A.F ....|R-- .... ....|--- .... ....
....|..|C-4 LF.F ....|G-4 2F7F ....|C-4 3F2F ....
 F-4|..|F-2 2A.F ....|R-- .... ....|--- .... ....
 F-3|..|F-1 2A.F ....|G-4 2F7F ....|--- .... ....
....|..|F-1 2F.7 ....|R-- .... ....|--- .... ....

[Pattern14]
....|..|C-4 AF.F ....|A-4 2F6F ....|E-4 3F2F ....
 A-3|..|A-1 2A.F ....|R-- .... ....|E-5 3F.F ....
....|..|C-4 AF.F ....|A-4 2F6F ....|R-- .... ....
 A-3|..|A-1 2A.F ....|R-- .... ....|--- .... ....
....|..|C-4 AF.F ....|A-4 2F6F ....|E-4 3F2F ....
 A-3|..|A-2 2C.F ....|R-- .... ....|E-5 3F.F ....
....|..|C-4 AF.F ....|A-4 2F6F ....|R-- .... ....
 A-3|..|A-1 2A.F ....|R-- .... ....|--- .... ....
....|..|C-5 VF.F ....|A-4 2F6F ....|E-4 3F2F ....
 A-3|..|A-1 2A.F ....|R-- .... ....|E-5 3F.F ....
....|..|C-4 AF.F ....|A-4 2F6F ....|R-- .... ....
 A-3|..|A-2 2C.F ....|R-- .... ....|--- .... ....
....|..|C-4 AF.F ....|A-4 2F6F ....|C-4 3F27 ....
 A-3|..|A-1 2A.F ....|R-- .... ....|E-5 3F.A ....
....|..|C-4 AF.F ....|A-4 2F6F ....|R-- .... ....
 A-3|..|A-1 2A.F ....|R-- .... ....|--- .... ....
....|..|C-4 AF.F ....|A-4 2F6F ....|B-4 3F27 ....
 A-3|..|A-2 2C.F ....|R-- .... ....|E-5 3F.A ....
....|..|C-5 VF.F ....|A-4 2F6F ....|R-- .... ....
 A-3|..|A-1 2A.F ....|R-- .... ....|--- .... ....
....|..|C-4 AF.F ....|A-4 2F6F ....|C-4 3F27 ....
 A-3|..|A-1 2A.F ....|R-- .... ....|E-5 3F.A ....
....|..|C-4 AF.F ....|A-4 2F6F ....|R-- .... ....
 A-3|..|A-2 2C.F ....|R-- .... ....|--- .... ....
....|..|C-5 VF.F ....|A-4 2F6F ....|E-4 3F27 ....
 A-3|..|A-1 2A.F ....|R-- .... ....|E-5 3F.7 ....
....|..|C-4 AF.F ....|A-4 2F6F ....|R-- .... ....
 A-3|..|A-1 2A.F ....|R-- .... ....|--- .... ....
....|..|C-4 AF.F ....|A-4 2F6F ....|D-5 3F.F ....
 A-3|..|A-2 2C.F ....|R-- .... ....|D-4 3F2F ....
 A-3|..|A-1 2A.F ....|A-4 2F6F ....|D-5 3F.F ....
....|..|A-1 2F.7 ....|R-- .... ....|--- .... ....
....|..|C-4 AF.F ....|G-4 2F7F ....|E-4 3F2F ....
 A-3|..|A-1 2A.F ....|R-- .... ....|E-5 3F.F ....
....|..|C-4 AF.F ....|G-4 2F7F ....|R-- .... ....
 A-3|..|A-1 2A.F ....|R-- .... ....|--- .... ....
....|..|C-4 AF.F ....|G-4 2F7F ....|E-4 3F2F ....
 A-3|..|A-2 2C.F ....|R-- .... ....|E-5 3F.F ....
....|..|C-4 AF.F ....|G-4 2F7F ....|R-- .... ....
 A-3|..|A-1 2A.F ....|R-- .... ....|--- .... ....
....|..|C-5 VF.F ....|G-4 2F7F ....|E-4 3F2F ....
 A-3|..|A-1 2A.F ....|R-- .... ....|E-5 3F.F ....
....|..|C-4 AF.F ....|G-4 2F7F ....|D-5 3F.A ....
 A-3|..|A-2 2C.F ....|R-- .... ....|--- .... ....
....|..|C-4 AF.F ....|G-4 2F7F ....|E-4 3F2A ....
 A-3|..|A-1 2A.F ....|R-- .... ....|E-5 3F.A ....
....|..|C-4 AF.F ....|G-4 2F7F ....|R-- .... ....
 A-3|..|A-1 2A.F ....|R-- .... ....|--- .... ....
....|..|C-4 AF.F ....|G-4 2F7F ....|E-4 3F2A ....
 A-3|..|A-2 2C.F ....|R-- .... ....|E-5 3F.A ....
....|..|C-5 VF.F ....|G-4 2F7F ....|R-- .... ....
 A-3|..|A-1 2A.F ....|R-- .... ....|--- .... ....
....|..|C-4 AF.F ....|G-4 2F7F ....|D-5 3F.7 ....
 A-3|..|A-1 2A.F ....|R-- .... ....|D-4 3F27 ....
....|..|C-4 AF.F ....|G-4 2F7F ....|D-5 3F.7 ....
 A-3|..|A-2 2C.F ....|R-- .... ....|--- .... ....
....|..|C-5 VF.F ....|G-4 2F7F ....|E-4 3F27 ....
 A-3|..|A-1 2A.F ....|R-- .... ....|E-5 3F.7 ....
....|..|C-5 VF.F ....|G-4 2F7F ....|R-- .... ....
 A-3|..|A-1 2A.F ....|R-- .... ....|--- .... ....
....|..|C-4 LF.F ....|G-4 2F7F ....|E-4 3F27 ....
 A-3|..|A-2 2C.F ....|R-- .... ....|E-5 3F.7 ....
 A-3|..|A-1 2A.F ....|G-4 2F7F ....|R-- .... ....
....|..|A-1 2F.7 ....|R-- .... ....|--- .... ....

[Pattern15]
....|..|C-4 AF.F ....|A-4 2F6F ....|E-4 3F2F ....
 A-3|..|A-1 2A.F ....|R-- .... ....|E-5 3F.F ....
....|..|C-4 AF.F ....|A-4 2F6F ....|R-- .... ....
 A-3|..|A-1 2A.F ....|R-- .... ....|--- .... ....
....|..|C-4 AF.F ....|A-4 2F6F ....|E-4 3F2F ....
 A-3|..|A-2 2C.F ....|R-- .... ....|E-5 3F.F ....
....|..|C-4 AF.F ....|A-4 2F6F ....|R-- .... ....
 A-3|..|A-1 2A.F ....|R-- .... ....|--- .... ....
....|..|C-5 VF.F ....|A-4 2F6F ....|E-4 3F2F ....
 A-3|..|A-1 2A.F ....|R-- .... ....|E-5 3F.F ....
....|..|C-4 AF.F ....|A-4 2F6F ....|R-- .... ....
 A-3|..|A-2 2C.F ....|R-- .... ....|--- .... ....
....|..|C-4 AF.F ....|A-4 2F6F ....|E-4 3F2A ....
 A-3|..|A-1 2A.F ....|R-- .... ....|E-5 3F.A ....
....|..|C-4 AF.F ....|A-4 2F6F ....|R-- .... ....
 A-3|..|A-1 2A.F ....|R-- .... ....|--- .... ....
....|..|C-4 AF.F ....|A-4 2F6F ....|E-4 3F2A ....
 A-3|..|A-2 2C.F ....|R-- .... ....|E-5 3F.A ....
....|..|C-5 VF.F ....|A-4 2F6F ....|R-- .... ....
 A-3|..|A-1 2A.F ....|R-- .... ....|--- .... ....
....|..|C-4 AF.F ....|A-4 2F6F ....|E-4 3F2A ....
 A-3|..|A-1 2A.F ....|R-- .... ....|E-5 3F.A ....
....|..|C-4 AF.F ....|A-4 2F6F ....|R-- .... ....
 A-3|..|A-2 2C.F ....|R-- .... ....|--- .... ....
....|..|C-5 VF.F ....|A-4 2F6F ....|E-4 3F27 ....
 A-3|..|A-1 2A.F ....|R-- .... ....|E-5 3F.7 ....
....|..|C-4 AF.F ....|A-4 2F6F ....|R-- .... ....
 A-3|..|A-1 2A.F ....|R-- .... ....|--- .... ....
....|..|C-4 AF.F ....|A-4 2F6F ....|D-4 3F2F ....
 A-3|..|A-2 2C.F ....|R-- .... ....|D-5 3F.F ....
 A-3|..|A-1 2A.F ....|A-4 2F6F ....|R-- .... ....
....|..|A-1 2F.7 ....|R-- .... ....|--- .... ....
....|..|C-4 AF.F ....|G-4 2F7F ....|E-4 3F2F ....
 A-3|..|A-1 2A.F ....|R-- .... ....|E-5 3F.F ....
....|..|C-4 AF.F ....|G-4 2F7F ....|R-- .... ....
 A-3|..|A-1 2A.F ....|R-- .... ....|--- .... ....
....|..|C-4 AF.F ....|G-4 2F7F ....|E-4 3F2F ....
 A-3|..|A-2 2C.F ....|R-- .... ....|E-5 3F.F ....
....|..|C-4 AF.F ....|G-4 2F7F ....|R-- .... ....
 A-3|..|A-1 2A.F ....|R-- .... ....|--- .... ....
....|..|C-5 VF.F ....|G-4 2F7F ....|E-4 3F2F ....
 A-3|..|A-1 2A.F ....|R-- .... ....|E-5 3F.F ....
....|..|C-4 AF.F ....|G-4 2F7F ....|R-- .... ....
 A-3|..|A-2 2C.F ....|R-- .... ....|--- .... ....
....|..|C-4 AF.F ....|G-4 2F7F ....|E-4 3F2A ....
 A-3|..|A-1 2A.F ....|R-- .... ....|E-5 3F.A ....
....|..|C-4 AF.F ....|G-4 2F7F ....|R-- .... ....
 A-3|..|A-1 2A.F ....|R-- .... ....|--- .... ....
....|..|C-4 AF.F ....|G-4 2F7F ....|E-4 3F2A ....
 A-3|..|A-2 2C.F ....|R-- .... ....|E-5 3F.A ....
....|..|C-5 VF.F ....|G-4 2F7F ....|R-- .... ....
 A-3|..|A-1 2A.F ....|R-- .... ....|--- .... ....
....|..|C-4 AF.F ....|G-4 2F7F ....|D-4 3F27 ....
 A-3|..|A-1 2A.F ....|R-- .... ....|D-5 3F.7 ....
....|..|C-4 AF.F ....|G-4 2F7F ....|R-- .... ....
 A-3|..|A-2 2C.F ....|R-- .... ....|--- .... ....
....|..|C-5 VF.F ....|G-4 2F7F ....|E-4 3F27 ....
 A-3|..|A-1 2A.F ....|R-- .... ....|E-5 3F.7 ....
....|..|C-5 VF.F ....|G-4 2F7F ....|R-- .... ....
 A-3|..|A-1 2A.F ....|R-- .... ....|--- .... ....
....|..|C-4 LF.F ....|G-4 2F7F ....|E-4 3F27 ....
 A-3|..|A-2 2C.F ....|R-- .... ....|E-5 3F.7 ....
 A-3|..|A-1 2A.F ....|G-4 2F7F ....|R-- .... ....
....|..|A-1 2F.7 ....|R-- .... ....|--- .... ....

[Pattern16]
....|..|C-4 AF.F ....|F-4 2F7F ....|C-4 3F2F ....
 F-3|..|F-1 2A.F ....|R-- .... ....|C-5 3F.F ....
....|..|C-4 AF.F ....|F-4 2F7F ....|R-- .... ....
 F-3|..|F-1 2A.F ....|R-- .... ....|--- .... ....
....|..|C-4 AF.F ....|F-4 2F7F ....|C-4 3F2F ....
 F-4|..|F-2 2A.F ....|R-- .... ....|C-5 3F.F ....
....|..|C-4 AF.F ....|F-4 2F7F ....|R-- .... ....
 F-3|..|F-1 2A.F ....|R-- .... ....|--- .... ....
....|..|C-5 VF.F ....|F-4 2F7F ....|C-4 3F2F ....
 F-3|..|F-1 2A.F ....|R-- .... ....|C-5 3F.F ....
....|..|C-4 AF.F ....|F-4 2F7F ....|R-- .... ....
 F-4|..|F-2 2A.F ....|R-- .... ....|--- .... ....
....|..|C-4 AF.F ....|F-4 2F7F ....|C-4 3F2A ....
 F-3|..|F-1 2A.F ....|R-- .... ....|C-5 3F.A ....
....|..|C-4 AF.F ....|F-4 2F7F ....|R-- .... ....
 F-3|..|F-1 2A.F ....|R-- .... ....|--- .... ....
....|..|C-4 AF.F ....|F-4 2F7F ....|C-4 3F2A ....
 F-4|..|F-2 2A.F ....|R-- .... ....|C-5 3F.A ....
....|..|C-5 VF.F ....|F-4 2F7F ....|R-- .... ....
 F-3|..|F-1 2A.F ....|R-- .... ....|--- .... ....
....|..|C-4 AF.F ....|F-4 2F7F ....|C-4 3F2A ....
 F-3|..|F-1 2A.F ....|R-- .... ....|C-5 3F.A ....
....|..|C-4 AF.F ....|F-4 2F7F ....|R-- .... ....
 F-4|..|F-2 2A.F ....|R-- .... ....|--- .... ....
....|..|C-5 VF.F ....|F-4 2F7F ....|C-4 3F27 ....
 F-3|..|F-1 2A.F ....|R-- .... ....|C-5 3F.7 ....
....|..|C-4 AF.F ....|F-4 2F7F ....|R-- .... ....
 F-3|..|F-1 2A.F ....|R-- .... ....|--- .... ....
....|..|C-4 AF.F ....|F-4 2F7F ....|A-3 3F2F ....
 F-4|..|F-2 2A.F ....|R-- .... ....|A-4 3F.F ....
 F-3|..|F-1 2A.F ....|F-4 2F7F ....|B-4 3F.F ....
....|..|F-1 2F.7 ....|R-- .... ....|B-3 3F2F ....
....|..|C-4 AF.F ....|G-4 2F7F ....|F-3 3F2F ....
 F-3|..|F-1 2A.F ....|R-- .... ....|F-4 3F.F ....
....|..|C-4 AF.F ....|G-4 2F7F ....|R-- .... ....
 F-3|..|F-1 2A.F ....|R-- .... ....|--- .... ....
....|..|C-4 AF.F ....|G-4 2F7F ....|F-3 3F2F ....
 F-4|..|F-2 2A.F ....|R-- .... ....|F-4 3F.F ....
....|..|C-4 AF.F ....|G-4 2F7F ....|R-- .... ....
 F-3|..|F-1 2A.F ....|R-- .... ....|--- .... ....
....|..|C-5 VF.F ....|G-4 2F7F ....|F-3 3F2F ....
 F-3|..|F-1 2A.F ....|R-- .... ....|F-4 3F.F ....
....|..|C-4 AF.F ....|G-4 2F7F ....|B-4 3F.A ....
 F-4|..|F-2 2A.F ....|R-- .... ....|B-3 3F2A ....
....|..|C-4 AF.F ....|G-4 2F7F ....|F-3 3F2A ....
 F-3|..|F-1 2A.F ....|R-- .... ....|F-4 3F.A ....
....|..|C-4 AF.F ....|G-4 2F7F ....|R-- .... ....
 F-3|..|F-1 2A.F ....|R-- .... ....|--- .... ....
....|..|C-4 AF.F ....|G-4 2F7F ....|F-3 3F2A ....
 F-4|..|F-2 2A.F ....|R-- .... ....|F-4 3F.A ....
....|..|C-5 VF.F ....|G-4 2F7F ....|R-- .... ....
 F-3|..|F-1 2A.F ....|R-- .... ....|--- .... ....
....|..|C-4 AF.F ....|G-4 2F7F ....|A-3 3F27 ....
 F-3|..|F-1 2A.F ....|R-- .... ....|A-4 3F.7 ....
....|..|C-4 AF.F ....|G-4 2F7F ....|B-4 3F.7 ....
 F-4|..|F-2 2A.F ....|R-- .... ....|B-3 3F27 ....
....|..|C-5 VF.F ....|G-4 2F7F ....|F-3 3F27 ....
 F-3|..|F-1 2A.F ....|R-- .... ....|F-4 3F.7 ....
....|..|C-5 VF.F ....|G-4 2F7F ....|R-- .... ....
 F-3|..|F-1 2A.F ....|R-- .... ....|--- .... ....
....|..|C-4 LF.F ....|G-4 2F7F ....|F-3 3F27 ....
 F-4|..|F-2 2A.F ....|R-- .... ....|F-4 3F.7 ....
 F-3|..|F-1 2A.F ....|G-4 2F7F ....|R-- .... ....
....|..|F-1 2F.7 ....|R-- .... ....|--- .... ....

[Pattern17]
....|..|C-4 AF.F ....|F-4 2F7F ....|C-4 3F2F ....
 F-3|..|F-1 2A.F ....|R-- .... ....|C-5 3F.F ....
....|..|C-4 AF.F ....|F-4 2F7F ....|R-- .... ....
 F-3|..|F-1 2A.F ....|R-- .... ....|--- .... ....
....|..|C-4 AF.F ....|F-4 2F7F ....|C-4 3F2F ....
 F-4|..|F-2 2A.F ....|R-- .... ....|C-5 3F.F ....
....|..|C-4 AF.F ....|F-4 2F7F ....|R-- .... ....
 F-3|..|F-1 2A.F ....|R-- .... ....|--- .... ....
....|..|C-5 VF.F ....|F-4 2F7F ....|C-4 3F2F ....
 F-3|..|F-1 2A.F ....|R-- .... ....|C-5 3F.F ....
....|..|C-4 AF.F ....|F-4 2F7F ....|R-- .... ....
 F-4|..|F-2 2A.F ....|R-- .... ....|--- .... ....
....|..|C-4 AF.F ....|F-4 2F7F ....|C-4 3F2A ....
 F-3|..|F-1 2A.F ....|R-- .... ....|C-5 3F.A ....
....|..|C-4 AF.F ....|F-4 2F7F ....|R-- .... ....
 F-3|..|F-1 2A.F ....|R-- .... ....|--- .... ....
....|..|C-4 AF.F ....|F-4 2F7F ....|C-4 3F2A ....
 F-4|..|F-2 2A.F ....|R-- .... ....|C-5 3F.A ....
....|..|C-5 VF.F ....|F-4 2F7F ....|R-- .... ....
 F-3|..|F-1 2A.F ....|R-- .... ....|--- .... ....
....|..|C-4 AF.F ....|F-4 2F7F ....|C-4 3F2A ....
 F-3|..|F-1 2A.F ....|R-- .... ....|C-5 3F.A ....
....|..|C-4 AF.F ....|F-4 2F7F ....|R-- .... ....
 F-4|..|F-2 2A.F ....|R-- .... ....|--- .... ....
....|..|C-5 VF.F ....|F-4 2F7F ....|C-4 3F27 ....
 F-3|..|F-1 2A.F ....|R-- .... ....|C-5 3F.7 ....
....|..|C-4 AF.F ....|F-4 2F7F ....|R-- .... ....
 F-3|..|F-1 2A.F ....|R-- .... ....|--- .... ....
....|..|C-4 AF.F ....|F-4 2F7F ....|C-4 3F27 ....
 F-4|..|F-2 2A.F ....|R-- .... ....|C-5 3F.7 ....
 F-3|..|F-1 2A.F ....|F-4 2F7F ....|R-- .... ....
....|..|F-1 2F.7 ....|R-- .... ....|--- .... ....
 F-3|..|F-1 2A.F ....|F-4 2F77 ....|C-4 3F27 ....
....|..|F-1 2F.7 ....|R-- .... ....|C-5 3F.7 ....
....|..|C-4 AF.7 ....|F-4 2F77 ....|R-- .... ....
....|..|F-2 2F.7 ....|R-- .... ....|--- .... ....
....|..|C-4 AF.7 ....|F-4 2F77 ....|--- .... ....
....|..|F-1 2F.7 ....|R-- .... ....|--- .... ....
....|..|C-4 AF.7 ....|F-4 2F77 ....|--- .... ....
....|..|F-1 2F.7 ....|R-- .... ....|--- .... ....
....|..|C-4 AF.7 ....|F-4 2F77 ....|--- .... ....
....|..|F-2 2F.7 ....|R-- .... ....|--- .... ....
....|..|C-5 VF.7 ....|F-4 2F77 ....|--- .... ....
....|..|F-1 2F.7 ....|R-- .... ....|--- .... ....
....|..|C-4 AF.7 ....|F-4 2F77 ....|--- .... ....
....|..|F-1 2F.7 ....|R-- .... ....|--- .... ....
....|..|C-4 AF.7 ....|F-4 2F77 ....|--- .... ....
....|..|F-2 2F.7 ....|R-- .... ....|--- .... ....
....|..|C-5 VF.7 ....|F-4 2F77 ....|--- .... ....
....|..|F-1 2F.7 ....|R-- .... ....|--- .... ....
....|..|C-4 AF.7 ....|F-4 2F77 ....|--- .... ....
....|..|F-1 2F.7 ....|R-- .... ....|--- .... ....
....|..|C-4 AF.7 ....|F-4 2F77 ....|--- .... ....
....|..|F-2 2F.7 ....|R-- .... ....|--- .... ....
....|..|F-1 2F.7 ....|F-4 2F77 ....|--- .... ....
....|..|--- .... ....|R-- .... ....|--- .... ....
....|..|C-5 VF.F ....|--- .... ....|A-4 3F.F ....
....|..|C-5 VF.F ....|--- .... ....|--- .... ....
....|..|C-5 VF.F ....|--- .... ....|A-4 3F.F ....
....|..|C-5 VF.F ....|--- .... ....|--- .... ....
....|..|C-5 VF.F ....|--- .... ....|C-5 3F.F ....
....|..|C-5 VF.F ....|--- .... ....|--- .... ....
....|..|C-5 VF.F ....|--- .... ....|A-4 3F.F ....
....|..|C-5 VF.F ....|--- .... ....|--- .... ....

[Pattern18]
....|..|C-5 VF.F ....|--- .... ....|E-5 3F.F ....
....|..|C-4 LF.F ....|--- .... ....|--- .... ....
....|..|--- .... ....|--- .... ....|A-4 3F.F ....
....|..|--- .... ....|--- .... ....|--- .... ....
....|..|C-5 VF.A ....|--- .... ....|A-4 3F.F ....
....|..|C-5 VF.A ....|--- .... ....|--- .... ....
....|..|C-5 VF.A ....|--- .... ....|A-4 3F.F ....
....|..|C-5 VF.A ....|--- .... ....|--- .... ....
....|..|C-5 VF.A ....|--- .... ....|E-5 3F.F ....
....|..|C-5 VF.A ....|--- .... ....|--- .... ....
....|..|C-5 VF.A ....|--- .... ....|A-4 3F.F ....
....|..|C-5 VF.A ....|--- .... ....|--- .... ....
....|..|C-5 VF.A ....|--- .... ....|A-4 3F.F ....
....|..|C-4 LF.A ....|--- .... ....|--- .... ....
....|..|--- .... ....|--- .... ....|E-5 3F.F ....
....|..|--- .... ....|--- .... ....|--- .... ....
....|..|C-5 VF.7 ....|--- .... ....|G-5 3F.F ....
....|..|C-5 VF.7 ....|--- .... ....|--- .... ....
....|..|C-5 VF.7 ....|--- .... ....|A-4 3F.F ....
....|..|C-5 VF.7 ....|--- .... ....|--- .... ....
....|..|C-5 VF.7 ....|--- .... ....|A-4 3F.F ....
....|..|C-5 VF.7 ....|--- .... ....|--- .... ....
....|..|C-5 VF.7 ....|--- .... ....|E-5 3F.F ....
....|..|C-5 VF.7 ....|--- .... ....|--- .... ....
....|..|C-5 VF.7 ....|--- .... ....|A-4 3F.F ....
....|..|C-4 LF.7 ....|--- .... ....|A-4 3F.F ....
....|..|--- .... ....|--- .... ....|A-4 3F.F ....
....|..|--- .... ....|--- .... ....|A-4 3F.F ....
....|..|--- .... ....|--- .... ....|D-5 3F.F ....
....|..|--- .... ....|--- .... ....|--- .... ....
....|..|--- .... ....|--- .... ....|A-4 3F.F ....
....|..|--- .... ....|--- .... ....|--- .... ....
....|..|R-- .... ....|--- .... ....|E-5 3F.F ....
....|..|--- .... ....|--- .... ....|--- .... ....
....|..|--- .... ....|--- .... ....|A-4 3F.F ....
....|..|--- .... ....|--- .... ....|--- .... ....
....|..|--- .... ....|--- .... ....|A-4 3F.F ....
....|..|--- .... ....|--- .... ....|A-4 3F.A ....
....|..|--- .... ....|--- .... ....|A-4 3F.F ....
....|..|--- .... ....|--- .... ....|A-4 3F.A ....
....|..|--- .... ....|--- .... ....|E-5 3F.F ....
....|..|--- .... ....|--- .... ....|--- .... ....
....|..|--- .... ....|--- .... ....|A-4 3F.F ....
....|..|--- .... ....|--- .... ....|--- .... ....
....|..|--- .... ....|--- .... ....|A-4 3F.F ....
....|..|--- .... ....|--- .... ....|--- .... ....
....|..|--- .... ....|--- .... ....|E-5 3F.F ....
....|..|--- .... ....|--- .... ....|--- .... ....
....|..|--- .... ....|--- .... ....|A-5 3F.F ....
....|..|--- .... ....|--- .... ....|A-4 3F.7 ....
....|..|--- .... ....|--- .... ....|A-4 3F.F ....
....|..|--- .... ....|--- .... ....|A-4 3F.7 ....
....|..|--- .... ....|--- .... ....|A-4 3F.F ....
....|..|--- .... ....|--- .... ....|--- .... ....
....|..|--- .... ....|--- .... ....|E-5 3F.F ....
....|..|--- .... ....|--- .... ....|--- .... ....
....|..|--- .... ....|--- .... ....|A-4 3F.F ....
....|..|--- .... ....|--- .... ....|--- .... ....
....|..|--- .... ....|--- .... ....|A-4 3F.F ....
....|..|--- .... ....|--- .... ....|--- .... ....
....|..|--- .... ....|--- .... ....|D-5 3F.F ....
....|..|--- .... ....|--- .... ....|--- .... ....
....|..|--- .... ....|--- .... ....|A-4 3F.F ....
....|..|--- .... ....|--- .... ....|--- .... ....

[Pattern19]
....|..|--- .... ....|--- .... ....|E-5 3F.F ....
....|..|--- .... ....|--- .... ....|--- .... ....
....|..|--- .... ....|--- .... ....|A-4 3F.F ....
....|..|--- .... ....|--- .... ....|--- .... ....
....|..|--- .... ....|--- .... ....|A-4 3F.F ....
....|..|--- .... ....|--- .... ....|--- .... ....
....|..|--- .... ....|--- .... ....|A-4 3F.F ....
....|..|--- .... ....|--- .... ....|--- .... ....
....|..|--- .... ....|--- .... ....|E-5 3F.F ....
....|..|--- .... ....|--- .... ....|--- .... ....
....|..|--- .... ....|--- .... ....|A-4 3F.F ....
....|..|--- .... ....|--- .... ....|--- .... ....
....|..|--- .... ....|--- .... ....|A-4 3F.F ....
....|..|--- .... ....|--- .... ....|--- .... ....
....|..|--- .... ....|--- .... ....|E-5 3F.F ....
....|..|--- .... ....|--- .... ....|--- .... ....
....|..|--- .... ....|--- .... ....|G-5 3F.F ....
....|..|--- .... ....|--- .... ....|--- .... ....
....|..|--- .... ....|--- .... ....|A-4 3F.F ....
....|..|--- .... ....|--- .... ....|--- .... ....
....|..|--- .... ....|--- .... ....|A-4 3F.F ....
....|..|--- .... ....|--- .... ....|--- .... ....
....|..|--- .... ....|--- .... ....|E-5 3F.F ....
....|..|--- .... ....|--- .... ....|--- .... ....
....|..|--- .... ....|--- .... ....|A-4 3F.F ....
....|..|--- .... ....|--- .... ....|A-4 3F.F ....
....|..|--- .... ....|--- .... ....|A-4 3F.F ....
....|..|--- .... ....|--- .... ....|A-4 3F.F ....
....|..|--- .... ....|--- .... ....|D-5 3F.F ....
....|..|--- .... ....|--- .... ....|--- .... ....
....|..|--- .... ....|--- .... ....|A-4 3F.F ....
....|..|--- .... ....|--- .... ....|--- .... ....
....|..|--- .... ....|--- .... ....|E-5 3F.F ....
....|..|--- .... ....|--- .... ....|--- .... ....
....|..|--- .... ....|--- .... ....|A-4 3F.F ....
....|..|--- .... ....|--- .... ....|--- .... ....
....|..|--- .... ....|--- .... ....|A-4 3F.F ....
....|..|--- .... ....|--- .... ....|A-4 3F.A ....
....|..|--- .... ....|--- .... ....|A-4 3F.F ....
....|..|--- .... ....|--- .... ....|A-4 3F.A ....
....|..|--- .... ....|--- .... ....|E-5 3F.F ....
....|..|--- .... ....|--- .... ....|--- .... ....
....|..|--- .... ....|--- .... ....|A-4 3F.F ....
....|..|--- .... ....|--- .... ....|--- .... ....
....|..|--- .... ....|--- .... ....|A-4 3F.F ....
....|..|--- .... ....|--- .... ....|--- .... ....
....|..|--- .... ....|--- .... ....|E-5 3F.F ....
....|..|--- .... ....|--- .... ....|--- .... ....
....|..|--- .... ....|--- .... ....|A-5 3F.F ....
....|..|--- .... ....|--- .... ....|A-4 3F.7 ....
....|..|--- .... ....|--- .... ....|A-4 3F.F ....
....|..|--- .... ....|--- .... ....|A-4 3F.7 ....
....|..|--- .... ....|--- .... ....|A-4 3F.F ....
....|..|--- .... ....|--- .... ....|--- .... ....
....|..|--- .... ....|--- .... ....|E-5 3F.F ....
....|..|--- .... ....|--- .... ....|--- .... ....
....|..|C-5 VF.F ....|--- .... ....|A-4 3F.F ....
....|..|C-5 VF.F ....|--- .... ....|--- .... ....
....|..|C-5 VF.F ....|--- .... ....|A-4 3F.F ....
....|..|C-5 VF.F ....|--- .... ....|--- .... ....
....|..|C-5 VF.F ....|--- .... ....|D-5 3F.F ....
....|..|C-5 VF.F ....|--- .... ....|--- .... ....
....|..|C-5 VF.F ....|--- .... ....|A-4 3F.F ....
....|..|C-5 VF.F ....|--- .... ....|--- .... ....

[Pattern20]
....|..|C-5 VF.F ....|--- .... ....|A-4 3F8F ....
....|..|R-- .... ....|--- .... ....|--- .... ....
....|..|--- .... ....|--- .... ....|A-4 3F8F ....
....|..|--- .... ....|--- .... ....|--- .... ....
....|..|C-5 VF.A ....|--- .... ....|A-4 3F2F ....
....|..|C-5 VF.A ....|--- .... ....|--- .... ....
....|..|C-5 VF.A ....|--- .... ....|A-4 3F.F ....
....|..|C-5 VF.A ....|--- .... ....|--- .... ....
....|..|C-5 VF.A ....|--- .... ....|E-5 3F.F ....
....|..|C-5 VF.A ....|--- .... ....|--- .... ....
....|..|C-5 VF.A ....|--- .... ....|A-4 3F2F ....
....|..|C-5 VF.A ....|--- .... ....|--- .... ....
....|..|C-5 VF.A ....|--- .... ....|A-4 3F.F ....
....|..|R-- .... ....|--- .... ....|--- .... ....
....|..|--- .... ....|--- .... ....|E-5 3F.F ....
....|..|--- .... ....|--- .... ....|--- .... ....
....|..|C-5 VF.7 ....|--- .... ....|G-4 3F9F ....
....|..|C-5 VF.7 ....|--- .... ....|--- .... ....
....|..|C-5 VF.7 ....|--- .... ....|A-4 3F.F ....
....|..|C-5 VF.7 ....|--- .... ....|--- .... ....
....|..|C-5 VF.7 ....|--- .... ....|A-4 3F8F ....
....|..|C-5 VF.7 ....|--- .... ....|--- .... ....
....|..|C-5 VF.7 ....|--- .... ....|E-4 3FAF ....
....|..|C-5 VF.7 ....|--- .... ....|--- .... ....
....|..|C-5 VF.7 ....|--- .... ....|A-4 3F.F ....
....|..|R-- .... ....|--- .... ....|A-4 3F.F ....
....|..|--- .... ....|--- .... ....|A-4 3F.F ....
....|..|--- .... ....|--- .... ....|A-4 3F.F ....
....|..|--- .... ....|--- .... ....|D-5 3F.F ....
....|..|--- .... ....|--- .... ....|--- .... ....
....|..|--- .... ....|--- .... ....|A-4 3F.F ....
....|..|--- .... ....|--- .... ....|--- .... ....
....|..|--- .... ....|--- .... ....|E-5 3F.F ....
....|..|--- .... ....|--- .... ....|--- .... ....
....|..|--- .... ....|--- .... ....|A-4 3F.F ....
....|..|--- .... ....|--- .... ....|--- .... ....
....|..|--- .... ....|--- .... ....|A-4 3F.F ....
....|..|--- .... ....|--- .... ....|A-4 3F.A ....
....|..|--- .... ....|--- .... ....|A-4 3F.F ....
....|..|--- .... ....|--- .... ....|A-4 3F.A ....
....|..|--- .... ....|--- .... ....|E-5 3F.F ....
....|..|--- .... ....|--- .... ....|--- .... ....
....|..|--- .... ....|--- .... ....|A-4 3F.F ....
....|..|--- .... ....|--- .... ....|--- .... ....
....|..|--- .... ....|--- .... ....|A-4 3F.F ....
....|..|--- .... ....|--- .... ....|--- .... ....
....|..|--- .... ....|--- .... ....|E-5 3F.F ....
....|..|--- .... ....|--- .... ....|--- .... ....
....|..|--- .... ....|--- .... ....|A-5 3F.F ....
....|..|--- .... ....|--- .... ....|A-4 3F.7 ....
....|..|--- .... ....|--- .... ....|A-4 3F.F ....
....|..|--- .... ....|--- .... ....|A-4 3F.7 ....
....|..|--- .... ....|--- .... ....|A-4 3F.F ....
....|..|--- .... ....|--- .... ....|--- .... ....
....|..|--- .... ....|--- .... ....|E-5 3F.F ....
....|..|--- .... ....|--- .... ....|--- .... ....
....|..|--- .... ....|--- .... ....|A-4 3F.F ....
....|..|--- .... ....|--- .... ....|--- .... ....
....|..|--- .... ....|--- .... ....|A-4 3F.F ....
....|..|--- .... ....|--- .... ....|--- .... ....
....|..|--- .... ....|--- .... ....|D-5 3F.F ....
....|..|--- .... ....|--- .... ....|--- .... ....
....|..|--- .... ....|--- .... ....|A-4 3F.F ....
....|..|--- .... ....|--- .... ....|--- .... ....

[Pattern21]
....|..|--- .... ....|--- .... ....|E-5 3F.F ....
....|..|--- .... ....|--- .... ....|--- .... ....
....|..|--- .... ....|--- .... ....|E-4 3FAF ....
....|..|--- .... ....|--- .... ....|--- .... ....
....|..|--- .... ....|--- .... ....|A-4 3F.F ....
....|..|--- .... ....|--- .... ....|--- .... ....
....|..|--- .... ....|--- .... ....|A-3 3F2F ....
....|..|--- .... ....|--- .... ....|--- .... ....
....|..|--- .... ....|--- .... ....|E-4 3F2F ....
....|..|--- .... ....|--- .... ....|--- .... ....
....|..|--- .... ....|--- .... ....|A-4 3F.F ....
....|..|--- .... ....|--- .... ....|--- .... ....
....|..|--- .... ....|--- .... ....|A-3 3F2F ....
....|..|--- .... ....|--- .... ....|--- .... ....
....|..|--- .... ....|--- .... ....|E-4 3F2F ....
....|..|--- .... ....|--- .... ....|--- .... ....
....|..|--- .... ....|--- .... ....|A-4 3FBF ....
....|..|--- .... ....|--- .... ....|--- .... ....
....|..|--- .... ....|--- .... ....|A-3 3F2F ....
....|..|--- .... ....|--- .... ....|--- .... ....
....|..|--- .... ....|--- .... ....|E-4 3FAF ....
....|..|--- .... ....|--- .... ....|--- .... ....
....|..|--- .... ....|--- .... ....|A-4 3F8F ....
....|..|--- .... ....|--- .... ....|--- .... ....
....|..|--- .... ....|--- .... ....|A-4 3F.F ....
....|..|--- .... ....|--- .... ....|A-4 3F.F ....
....|..|--- .... ....|--- .... ....|A-4 3F.F ....
....|..|--- .... ....|--- .... ....|A-4 3F.F ....
....|..|--- .... ....|--- .... ....|D-5 3F.F ....
....|..|--- .... ....|--- .... ....|--- .... ....
....|..|--- .... ....|--- .... ....|A-4 3F.F ....
....|..|--- .... ....|--- .... ....|--- .... ....
....|..|--- .... ....|--- .... ....|E-5 3F.F ....
....|..|--- .... ....|--- .... ....|--- .... ....
....|..|--- .... ....|--- .... ....|A-4 3F.F ....
....|..|--- .... ....|--- .... ....|--- .... ....
....|..|--- .... ....|--- .... ....|A-4 3F.F ....
....|..|--- .... ....|--- .... ....|A-4 3F.A ....
....|..|--- .... ....|--- .... ....|A-4 3F.F ....
....|..|--- .... ....|--- .... ....|A-4 3F.A ....
....|..|--- .... ....|--- .... ....|E-5 3F.F ....
....|..|--- .... ....|--- .... ....|--- .... ....
....|..|--- .... ....|--- .... ....|A-4 3F.F ....
....|..|--- .... ....|--- .... ....|--- .... ....
....|..|--- .... ....|--- .... ....|A-4 3F.F ....
....|..|--- .... ....|--- .... ....|--- .... ....
....|..|--- .... ....|--- .... ....|E-5 3F.F ....
....|..|--- .... ....|--- .... ....|--- .... ....
....|..|--- .... ....|--- .... ....|A-5 3F.F ....
....|..|--- .... ....|--- .... ....|A-4 3F.7 ....
....|..|--- .... ....|--- .... ....|A-4 3F.F ....
....|..|--- .... ....|--- .... ....|A-4 3F.7 ....
....|..|--- .... ....|--- .... ....|A-4 3F.F ....
....|..|--- .... ....|--- .... ....|--- .... ....
....|..|--- .... ....|--- .... ....|C-6 3F.F ....
....|..|--- .... ....|--- .... ....|--- .... ....
....|..|C-5 VF.F ....|--- .... ....|A-4 3F.F ....
....|..|C-5 VF.F ....|--- .... ....|--- .... ....
....|..|C-5 VF.F ....|--- .... ....|A-4 3F.F ....
....|..|C-5 VF.F ....|--- .... ....|B-5 3F.F ....
....|..|C-5 VF.F ....|--- .... ....|B-5 3F.F ....
....|..|C-5 VF.F ....|--- .... ....|R-- .... ....
....|..|C-5 VF.F ....|--- .... ....|A-4 3F.F ....
....|..|C-5 VF.F ....|--- .... ....|--- .... ....

[Pattern22]
....|..|C-4 AF.F ....|A-4 2F6F ....|A-5 3F.F ....
....|..|C-4 AF.F ....|R-- .... ....|--- .... ....
....|..|C-4 AF.F ....|A-4 2F6F ....|A-4 3F.7 ....
 A-3|..|A-1 2A.F ....|R-- .... ....|--- .... ....
....|..|C-4 AF.F ....|A-4 2F6F ....|A-4 3F.7 ....
 A-3|..|A-1 2A.F ....|R-- .... ....|--- .... ....
....|..|C-4 AF.F ....|A-4 2F6F ....|A-5 3F.F ....
 A-3|..|A-2 2C.F ....|R-- .... ....|B-5 3F.A ....
....|..|C-5 VF.F ....|A-4 2F6F ....|A-5 3F.7 ....
 A-3|..|A-1 2A.F ....|R-- .... ....|R-- .... ....
....|..|C-4 AF.F ....|A-4 2F6F ....|A-4 3F.7 ....
 A-3|..|A-1 2A.F ....|R-- .... ....|--- .... ....
....|..|C-4 AF.F ....|A-4 2F6F ....|A-5 3F.F ....
 A-3|..|A-2 2C.F ....|R-- .... ....|--- .... ....
....|..|C-4 AF.F ....|A-4 2F6F ....|C-6 3F.7 ....
 A-3|..|A-1 2A.F ....|R-- .... ....|--- .... ....
....|..|C-4 AF.F ....|A-4 2F6F ....|A-4 3F.7 ....
 A-3|..|A-1 2A.F ....|R-- .... ....|--- .... ....
....|..|C-5 VF.F ....|A-4 2F6F ....|A-4 3F.7 ....
 A-3|..|A-2 2C.F ....|R-- .... ....|A-5 3F.F ....
....|..|C-4 AF.F ....|A-4 2F6F ....|B-5 3F.7 ....
 A-3|..|A-1 2A.F ....|R-- .... ....|R-- .... ....
....|..|C-4 AF.F ....|A-4 2F6F ....|A-4 3F.7 ....
 A-3|..|A-1 2A.F ....|R-- .... ....|--- .... ....
....|..|C-5 VF.F ....|A-4 2F6F ....|B-4 3F.F ....
 A-3|..|A-2 2C.F ....|R-- .... ....|--- .... ....
....|..|C-4 AF.F ....|A-4 2F6F ....|C-5 3F.F ....
 A-3|..|A-1 2A.F ....|R-- .... ....|--- .... ....
....|..|C-4 AF.F ....|A-4 2F6F ....|B-4 3F.F ....
 A-3|..|A-1 2A.F ....|R-- .... ....|--- .... ....
 A-3|..|A-2 2C.F ....|A-4 2F6F ....|C-5 3F.F ....
 A-3|..|A-1 2A.F ....|R-- .... ....|A-5 3F.A ....
....|..|C-4 AF.F ....|G-4 2F7F ....|G-5 3F.F ....
 A-3|..|A-1 2A.F ....|R-- .... ....|R-- .... ....
....|..|C-4 AF.F ....|G-4 2F7F ....|R-- .... ....
 A-3|..|A-1 2A.F ....|R-- .... ....|--- .... ....
....|..|C-4 AF.F ....|G-4 2F7F ....|A-5 3F.7 ....
 A-3|..|A-2 2C.F ....|R-- .... ....|--- .... ....
....|..|C-4 AF.F ....|G-4 2F7F ....|G-5 3F.F ....
 A-3|..|A-1 2A.F ....|R-- .... ....|--- .... ....
....|..|C-5 VF.F ....|G-4 2F7F ....|B-4 3F.A ....
 A-3|..|A-1 2A.F ....|R-- .... ....|--- .... ....
....|..|C-4 AF.F ....|G-4 2F7F ....|C-5 3F.A ....
 A-3|..|A-2 2C.F ....|R-- .... ....|A-5 3F.7 ....
....|..|C-4 AF.F ....|G-4 2F7F ....|G-5 3F.F ....
 A-3|..|A-1 2A.F ....|R-- .... ....|R-- .... ....
....|..|C-4 AF.F ....|G-4 2F7F ....|R-- .... ....
 A-3|..|A-1 2A.F ....|R-- .... ....|--- .... ....
....|..|C-4 AF.F ....|G-4 2F7F ....|B-4 3F.7 ....
 A-3|..|A-2 2C.F ....|R-- .... ....|--- .... ....
....|..|C-5 VF.F ....|G-4 2F7F ....|C-5 3F.7 ....
 A-3|..|A-1 2A.F ....|R-- .... ....|G-5 3F.F ....
....|..|C-4 AF.F ....|G-4 2F7F ....|B-4 3F.7 ....
 A-3|..|A-1 2A.F ....|R-- .... ....|R-- .... ....
....|..|C-4 AF.F ....|G-4 2F7F ....|C-5 3F.7 ....
 A-3|..|A-2 2C.F ....|R-- .... ....|--- .... ....
....|..|C-5 VF.F ....|G-4 2F7F ....|B-4 3F.F ....
 A-3|..|A-1 2A.F ....|R-- .... ....|--- .... ....
....|..|C-5 VF.F ....|G-4 2F7F ....|C-5 3F.F ....
 A-3|..|A-1 2A.F ....|R-- .... ....|--- .... ....
....|..|C-4 LF.F ....|G-4 2F7F ....|B-4 3F.F ....
 A-3|..|A-2 2C.F ....|R-- .... ....|--- .... ....
 A-3|..|A-1 2A.F ....|G-4 2F7F ....|C-5 3F.F ....
....|..|A-1 2F.7 ....|R-- .... ....|G-5 3F.A ....

[Pattern23]
....|..|C-4 AF.F ....|A-4 2F6F ....|A-5 3F.F ....
 A-3|..|A-1 2A.F ....|R-- .... ....|R-- .... ....
....|..|C-4 AF.F ....|A-4 2F6F ....|R-- .... ....
 A-3|..|A-1 2A.F ....|R-- .... ....|--- .... ....
....|..|C-4 AF.F ....|A-4 2F6F ....|G-5 3F.7 ....
 A-3|..|A-2 2C.F ....|R-- .... ....|--- .... ....
....|..|C-4 AF.F ....|A-4 2F6F ....|A-5 3F.F ....
 A-3|..|A-1 2A.F ....|R-- .... ....|--- .... ....
....|..|C-5 VF.F ....|A-4 2F6F ....|B-4 3F.A ....
 A-3|..|A-1 2A.F ....|R-- .... ....|--- .... ....
....|..|C-4 AF.F ....|A-4 2F6F ....|C-5 3F.A ....
 A-3|..|A-2 2C.F ....|R-- .... ....|G-5 3F.7 ....
....|..|C-4 AF.F ....|A-4 2F6F ....|A-5 3F.F ....
 A-3|..|A-1 2A.F ....|R-- .... ....|R-- .... ....
....|..|C-4 AF.F ....|A-4 2F6F ....|R-- .... ....
 A-3|..|A-1 2A.F ....|R-- .... ....|--- .... ....
....|..|C-4 AF.F ....|A-4 2F6F ....|B-4 3F.7 ....
 A-3|..|A-2 2C.F ....|R-- .... ....|--- .... ....
....|..|C-5 VF.F ....|A-4 2F6F ....|C-5 3F.7 ....
 A-3|..|A-1 2A.F ....|R-- .... ....|A-5 3F.F ....
....|..|C-4 AF.F ....|A-4 2F6F ....|B-4 3F.7 ....
 A-3|..|A-1 2A.F ....|R-- .... ....|R-- .... ....
....|..|C-4 AF.F ....|A-4 2F6F ....|C-5 3F.7 ....
 A-3|..|A-2 2C.F ....|R-- .... ....|--- .... ....
....|..|C-5 VF.F ....|A-4 2F6F ....|B-4 3F.F ....
 A-3|..|A-1 2A.F ....|R-- .... ....|--- .... ....
....|..|C-4 AF.F ....|A-4 2F6F ....|C-5 3F.F ....
 A-3|..|A-1 2A.F ....|R-- .... ....|--- .... ....
....|..|C-4 AF.F ....|A-4 2F6F ....|B-4 3F.F ....
 A-3|..|A-2 2C.F ....|R-- .... ....|--- .... ....
 A-3|..|A-1 2A.F ....|A-4 2F6F ....|C-5 3F.F ....
....|..|A-1 2F.7 ....|R-- .... ....|A-5 3F.A ....
....|..|C-4 AF.F ....|G-4 2F7F ....|G-5 3F.F ....
 A-3|..|A-1 2A.F ....|R-- .... ....|R-- .... ....
....|..|C-4 AF.F ....|G-4 2F7F ....|R-- .... ....
 A-3|..|A-1 2A.F ....|R-- .... ....|--- .... ....
....|..|C-4 AF.F ....|G-4 2F7F ....|A-5 3F.7 ....
 A-3|..|A-2 2C.F ....|R-- .... ....|--- .... ....
....|..|C-4 AF.F ....|G-4 2F7F ....|G-5 3F.F ....
 A-3|..|A-1 2A.F ....|R-- .... ....|--- .... ....
....|..|C-5 VF.F ....|G-4 2F7F ....|B-4 3F.A ....
 A-3|..|A-1 2A.F ....|R-- .... ....|--- .... ....
....|..|C-4 AF.F ....|G-4 2F7F ....|C-5 3F.A ....
 A-3|..|A-2 2C.F ....|R-- .... ....|A-5 3F.7 ....
....|..|C-4 AF.F ....|G-4 2F7F ....|G-5 3F.F ....
 A-3|..|A-1 2A.F ....|R-- .... ....|R-- .... ....
....|..|C-4 AF.F ....|G-4 2F7F ....|R-- .... ....
 A-3|..|A-1 2A.F ....|R-- .... ....|--- .... ....
....|..|C-4 AF.F ....|G-4 2F7F ....|B-4 3F.7 ....
 A-3|..|A-2 2C.F ....|R-- .... ....|--- .... ....
....|..|C-5 VF.F ....|G-4 2F7F ....|C-5 3F.7 ....
 A-3|..|A-1 2A.F ....|R-- .... ....|G-5 3F.F ....
....|..|C-4 AF.F ....|G-4 2F7F ....|B-4 3F.7 ....
 A-3|..|A-1 2A.F ....|R-- .... ....|R-- .... ....
....|..|C-4 AF.F ....|G-4 2F7F ....|C-5 3F.7 ....
 A-3|..|A-2 2C.F ....|R-- .... ....|--- .... ....
....|..|C-5 VF.F ....|G-4 2F7F ....|B-4 3F.F ....
 A-3|..|A-1 2A.F ....|R-- .... ....|--- .... ....
....|..|C-5 VF.F ....|G-4 2F7F ....|C-5 3F.F ....
 A-3|..|A-1 2A.F ....|R-- .... ....|--- .... ....
....|..|C-4 LF.F ....|G-4 2F7F ....|B-4 3F.F ....
 A-3|..|A-2 2C.F ....|R-- .... ....|--- .... ....
 A-3|..|A-1 2A.F ....|G-4 2F7F ....|C-5 3F.F ....
....|..|A-1 2F.7 ....|R-- .... ....|G-5 3F.A ....

[Pattern24]
....|..|C-4 AF.F ....|F-4 2F7F ....|E-5 3F.F ....
 F-3|..|F-1 2A.F ....|R-- .... ....|R-- .... ....
....|..|C-4 AF.F ....|F-4 2F7F ....|R-- .... ....
 F-3|..|F-1 2A.F ....|R-- .... ....|--- .... ....
....|..|C-4 AF.F ....|F-4 2F7F ....|G-5 3F.7 ....
 F-4|..|F-2 2A.F ....|R-- .... ....|--- .... ....
....|..|C-4 AF.F ....|F-4 2F7F ....|E-5 3F.F ....
 F-3|..|F-1 2A.F ....|R-- .... ....|--- .... ....
....|..|C-5 VF.F ....|F-4 2F7F ....|B-4 3F.A ....
 F-3|..|F-1 2A.F ....|R-- .... ....|--- .... ....
....|..|C-4 AF.F ....|F-4 2F7F ....|C-5 3F.A ....
 F-4|..|F-2 2A.F ....|R-- .... ....|G-5 3F.7 ....
....|..|C-4 AF.F ....|F-4 2F7F ....|E-5 3F.F ....
 F-3|..|F-1 2A.F ....|R-- .... ....|R-- .... ....
....|..|C-4 AF.F ....|F-4 2F7F ....|R-- .... ....
 F-3|..|F-1 2A.F ....|R-- .... ....|--- .... ....
....|..|C-4 AF.F ....|F-4 2F7F ....|B-4 3F.7 ....
 F-4|..|F-2 2A.F ....|R-- .... ....|--- .... ....
....|..|C-5 VF.F ....|F-4 2F7F ....|C-5 3F.7 ....
 F-3|..|F-1 2A.F ....|R-- .... ....|E-5 3F.F ....
....|..|C-4 AF.F ....|F-4 2F7F ....|B-4 3F.7 ....
 F-3|..|F-1 2A.F ....|R-- .... ....|R-- .... ....
....|..|C-4 AF.F ....|F-4 2F7F ....|C-5 3F.7 ....
 F-4|..|F-2 2A.F ....|R-- .... ....|--- .... ....
....|..|C-5 VF.F ....|F-4 2F7F ....|B-4 3F.F ....
 F-3|..|F-1 2A.F ....|R-- .... ....|--- .... ....
....|..|C-4 AF.F ....|F-4 2F7F ....|C-5 3F.F ....
 F-3|..|F-1 2A.F ....|R-- .... ....|--- .... ....
....|..|C-4 AF.F ....|F-4 2F7F ....|B-4 3F.F ....
 F-4|..|F-2 2A.F ....|R-- .... ....|--- .... ....
 F-3|..|F-1 2A.F ....|F-4 2F7F ....|C-5 3F.F ....
....|..|F-1 2F.7 ....|R-- .... ....|E-5 3F.A ....
....|..|C-4 AF.F ....|G-4 2F7F ....|D-5 3F.F ....
 F-3|..|F-1 2A.F ....|R-- .... ....|R-- .... ....
....|..|C-4 AF.F ....|G-4 2F7F ....|R-- .... ....
 F-3|..|F-1 2A.F ....|R-- .... ....|--- .... ....
....|..|C-4 AF.F ....|G-4 2F7F ....|E-5 3F.7 ....
 F-4|..|F-2 2A.F ....|R-- .... ....|--- .... ....
....|..|C-4 AF.F ....|G-4 2F7F ....|D-5 3F.F ....
 F-3|..|F-1 2A.F ....|R-- .... ....|--- .... ....
....|..|C-5 VF.F ....|G-4 2F7F ....|B-4 3F.A ....
 F-3|..|F-1 2A.F ....|R-- .... ....|--- .... ....
....|..|C-4 AF.F ....|G-4 2F7F ....|C-5 3F.A ....
 F-4|..|F-2 2A.F ....|R-- .... ....|E-5 3F.7 ....
....|..|C-4 AF.F ....|G-4 2F7F ....|D-5 3F.F ....
 F-3|..|F-1 2A.F ....|R-- .... ....|R-- .... ....
....|..|C-4 AF.F ....|G-4 2F7F ....|R-- .... ....
 F-3|..|F-1 2A.F ....|R-- .... ....|--- .... ....
....|..|C-4 AF.F ....|G-4 2F7F ....|B-4 3F.7 ....
 F-4|..|F-2 2A.F ....|R-- .... ....|--- .... ....
....|..|C-5 VF.F ....|G-4 2F7F ....|C-5 3F.7 ....
 F-3|..|F-1 2A.F ....|R-- .... ....|D-5 3F.F ....
....|..|C-4 AF.F ....|G-4 2F7F ....|B-4 3F.7 ....
 F-3|..|F-1 2A.F ....|R-- .... ....|R-- .... ....
....|..|C-4 AF.F ....|G-4 2F7F ....|C-5 3F.7 ....
 F-4|..|F-2 2A.F ....|R-- .... ....|--- .... ....
....|..|C-5 VF.F ....|G-4 2F7F ....|B-4 3F.F ....
 F-3|..|F-1 2A.F ....|R-- .... ....|--- .... ....
....|..|C-5 VF.F ....|G-4 2F7F ....|C-5 3F.F ....
 F-3|..|F-1 2A.F ....|R-- .... ....|--- .... ....
....|..|C-4 LF.F ....|G-4 2F7F ....|B-4 3F.F ....
 F-4|..|F-2 2A.F ....|R-- .... ....|--- .... ....
 F-3|..|F-1 2A.F ....|G-4 2F7F ....|C-5 3F.F ....
....|..|F-1 2F.7 ....|R-- .... ....|D-5 3F.A ....

[Pattern25]
....|..|C-4 AF.F ....|F-4 2F7F ....|E-5 3F.F ....
 F-3|..|F-1 2A.F ....|R-- .... ....|R-- .... ....
....|..|C-4 AF.F ....|F-4 2F7F ....|R-- .... ....
 F-3|..|F-1 2A.F ....|R-- .... ....|--- .... ....
....|..|C-4 AF.F ....|F-4 2F7F ....|D-5 3F.7 ....
 F-4|..|F-2 2A.F ....|R-- .... ....|--- .... ....
....|..|C-4 AF.F ....|F-4 2F7F ....|E-5 3F.F ....
 F-3|..|F-1 2A.F ....|R-- .... ....|--- .... ....
....|..|C-5 VF.F ....|F-4 2F7F ....|B-4 3F.A ....
 F-3|..|F-1 2A.F ....|R-- .... ....|--- .... ....
....|..|C-4 AF.F ....|F-4 2F7F ....|C-5 3F.A ....
 F-4|..|F-2 2A.F ....|R-- .... ....|D-5 3F.7 ....
....|..|C-4 AF.F ....|F-4 2F7F ....|E-5 3F.F ....
 F-3|..|F-1 2A.F ....|R-- .... ....|R-- .... ....
....|..|C-4 AF.F ....|F-4 2F7F ....|R-- .... ....
 F-3|..|F-1 2A.F ....|R-- .... ....|--- .... ....
....|..|C-4 AF.F ....|F-4 2F7F ....|B-4 3F.7 ....
 F-4|..|F-2 2A.F ....|R-- .... ....|--- .... ....
....|..|C-5 VF.F ....|F-4 2F7F ....|C-5 3F.7 ....
 F-3|..|F-1 2A.F ....|R-- .... ....|E-5 3F.F ....
....|..|C-4 AF.F ....|F-4 2F7F ....|B-4 3F.7 ....
 F-3|..|F-1 2A.F ....|R-- .... ....|R-- .... ....
....|..|C-4 AF.F ....|F-4 2F7F ....|C-5 3F.7 ....
 F-4|..|F-2 2A.F ....|R-- .... ....|--- .... ....
....|..|C-5 VF.F ....|F-4 2F7F ....|B-4 3F.F ....
 F-3|..|F-1 2A.F ....|R-- .... ....|--- .... ....
....|..|C-4 AF.F ....|F-4 2F7F ....|C-5 3F.F ....
 F-3|..|F-1 2A.F ....|R-- .... ....|--- .... ....
....|..|C-4 AF.F ....|F-4 2F7F ....|B-4 3F.F ....
 F-4|..|F-2 2A.F ....|R-- .... ....|--- .... ....
 F-3|..|F-1 2A.F ....|F-4 2F7F ....|C-5 3F.F ....
....|..|F-1 2F.7 ....|R-- .... ....|E-5 3F.A ....
....|..|C-4 AF.F ....|G-4 2F7F ....|D-5 3F.F ....
....|..|F-1 2F.7 ....|R-- .... ....|R-- .... ....
....|..|C-4 AF.F ....|G-4 2F7F ....|R-- .... ....
....|..|F-2 2F.7 ....|R-- .... ....|--- .... ....
....|..|C-4 AF.F ....|G-4 2F7F ....|E-5 3F.7 ....
....|..|F-1 2F.7 ....|R-- .... ....|--- .... ....
....|..|C-4 AF.F ....|G-4 2F7F ....|D-5 3F.F ....
....|..|F-1 2F.7 ....|R-- .... ....|--- .... ....
....|..|C-5 VF.F ....|G-4 2F7F ....|B-4 3F.A ....
....|..|F-2 2F.7 ....|R-- .... ....|--- .... ....
....|..|C-4 AF.F ....|G-4 2F7F ....|C-5 3F.A ....
....|..|F-1 2F.7 ....|R-- .... ....|E-5 3F.7 ....
....|..|C-4 AF.F ....|G-4 2F7F ....|D-5 3F.F ....
....|..|F-1 2F.7 ....|R-- .... ....|R-- .... ....
....|..|C-4 AF.F ....|G-4 2F7F ....|R-- .... ....
....|..|F-2 2F.7 ....|R-- .... ....|--- .... ....
....|..|C-4 AF.F ....|G-4 2F7F ....|B-4 3F.7 ....
....|..|F-1 2F.7 ....|R-- .... ....|--- .... ....
....|..|C-5 VF.F ....|G-4 2F7F ....|C-5 3F.7 ....
....|..|F-1 2F.7 ....|R-- .... ....|D-5 3F.F ....
....|..|C-5 VF.F ....|G-4 2F7F ....|B-4 3F.7 ....
....|..|F-2 2F.7 ....|R-- .... ....|R-- .... ....
....|..|C-5 VF.F ....|G-4 2F7F ....|C-5 3F.7 ....
....|..|--- .... ....|R-- .... ....|--- .... ....
....|..|C-5 VF.F ....|G-4 2F7F ....|D-5 3F.7 ....
....|..|C-5 VF.F ....|R-- .... ....|--- .... ....
....|..|C-5 VF.F ....|G-4 2F7F ....|R-- .... ....
....|..|C-5 VF.F ....|R-- .... ....|--- .... ....
....|..|C-5 VF.F ....|G-4 2F7F ....|--- .... ....
....|..|C-5 VF.F ....|R-- .... ....|--- .... ....
....|..|C-5 VF.F ....|G-4 2F7F ....|D-5 3F.7 ....
....|..|C-5 VF.F ....|R-- .... ....|D-5 3F.A ....

[Pattern26]
....|..|C-4 AF.F ....|A-4 2F6F ....|G-4 3F.F ....
....|..|C-4 AF.F ....|R-- .... ....|R-- .... ....
....|..|C-4 AF.F ....|A-4 2F6F ....|R-- .... ....
 A-3|..|A-1 2A.F ....|R-- .... ....|--- .... ....
....|..|C-4 AF.F ....|A-4 2F6F ....|A-4 3F.F ....
 A-3|..|A-1 2A.F ....|R-- .... ....|--- .... ....
....|..|C-4 AF.F ....|A-4 2F6F ....|R-- .... ....
 A-3|..|A-2 2C.F ....|R-- .... ....|--- .... ....
....|..|C-5 VF.F ....|A-4 2F6F ....|A-4 3F.F ....
 A-3|..|A-1 2A.F ....|R-- .... ....|--- .... ....
....|..|C-4 AF.F ....|A-4 2F6F ....|G-4 3F.F ....
 A-3|..|A-1 2A.F ....|R-- .... ....|D-5 3F.7 ....
....|..|C-4 AF.F ....|A-4 2F6F ....|A-4 3F.F ....
 A-3|..|A-2 2C.F ....|R-- .... ....|R-- .... ....
....|..|C-4 AF.F ....|A-4 2F6F ....|C-5 3F.F ....
 A-3|..|A-1 2A.F ....|R-- .... ....|--- .... ....
....|..|C-4 AF.F ....|A-4 2F6F ....|A-4 3F.A ....
 A-3|..|A-1 2A.F ....|R-- .... ....|--- .... ....
....|..|C-5 VF.F ....|A-4 2F6F ....|A-4 3F.F ....
 A-3|..|A-2 2C.F ....|R-- .... ....|--- .... ....
....|..|C-4 AF.F ....|A-4 2F6F ....|A-4 3F.A ....
 A-3|..|A-1 2A.F ....|R-- .... ....|--- .... ....
....|..|C-4 AF.F ....|A-4 2F6F ....|A-4 3F.F ....
 A-3|..|A-1 2A.F ....|R-- .... ....|--- .... ....
....|..|C-5 VF.F ....|A-4 2F6F ....|C-5 3F.F ....
 A-3|..|A-2 2C.F ....|R-- .... ....|--- .... ....
....|..|C-4 AF.F ....|A-4 2F6F ....|C-5 3F.A ....
 A-3|..|A-1 2A.F ....|R-- .... ....|--- .... ....
....|..|C-4 AF.F ....|A-4 2F6F ....|B-4 3F.F ....
 A-3|..|A-1 2A.F ....|R-- .... ....|--- .... ....
 A-3|..|A-2 2C.F ....|A-4 2F6F ....|A-4 3F.A ....
 A-3|..|A-1 2A.F ....|R-- .... ....|--- .... ....
....|..|C-4 AF.F ....|G-4 2F7F ....|G-4 3F.F ....
 A-3|..|A-1 2A.F ....|R-- .... ....|--- .... ....
....|..|C-4 AF.F ....|G-4 2F7F ....|G-4 3F.7 ....
 A-3|..|A-1 2A.F ....|R-- .... ....|--- .... ....
....|..|C-4 AF.F ....|G-4 2F7F ....|C-5 3F.F ....
 A-3|..|A-2 2C.F ....|R-- .... ....|--- .... ....
....|..|C-4 AF.F ....|G-4 2F7F ....|B-4 3F.F ....
 A-3|..|A-1 2A.F ....|R-- .... ....|--- .... ....
....|..|C-5 VF.F ....|G-4 2F7F ....|B-4 3F.A ....
 A-3|..|A-1 2A.F ....|R-- .... ....|--- .... ....
....|..|C-4 AF.F ....|G-4 2F7F ....|A-4 3F.7 ....
 A-3|..|A-2 2C.F ....|R-- .... ....|--- .... ....
....|..|C-4 AF.F ....|G-4 2F7F ....|C-5 3F.F ....
 A-3|..|A-1 2A.F ....|R-- .... ....|--- .... ....
....|..|C-4 AF.F ....|G-4 2F7F ....|B-4 3F.F ....
 A-3|..|A-1 2A.F ....|R-- .... ....|--- .... ....
....|..|C-4 AF.F ....|G-4 2F7F ....|C-5 3F.7 ....
 A-3|..|A-2 2C.F ....|R-- .... ....|--- .... ....
....|..|C-5 VF.F ....|G-4 2F7F ....|B-4 3F.A ....
 A-3|..|A-1 2A.F ....|R-- .... ....|--- .... ....
....|..|C-4 AF.F ....|G-4 2F7F ....|B-4 3F.7 ....
 A-3|..|A-1 2A.F ....|R-- .... ....|--- .... ....
....|..|C-4 AF.F ....|G-4 2F7F ....|R-- .... ....
 A-3|..|A-2 2C.F ....|R-- .... ....|--- .... ....
....|..|C-5 VF.F ....|G-4 2F7F ....|G-4 3F.7 ....
 A-3|..|A-1 2A.F ....|R-- .... ....|--- .... ....
....|..|C-5 VF.F ....|G-4 2F7F ....|E-4 3F.F ....
 A-3|..|A-1 2A.F ....|R-- .... ....|--- .... ....
....|..|C-4 LF.F ....|G-4 2F7F ....|G-4 3F.F ....
 A-3|..|A-2 2C.F ....|R-- .... ....|--- .... ....
 A-3|..|A-1 2A.F ....|G-4 2F7F ....|E-4 3F.F ....
....|..|A-1 2F.7 ....|R-- .... ....|--- .... ....

[Pattern27]
....|..|C-4 AF.F ....|A-4 2F6F ....|G-4 3F.F ....
 A-3|..|A-1 2A.F ....|R-- .... ....|--- .... ....
....|..|C-4 AF.F ....|A-4 2F6F ....|R-- .... ....
 A-3|..|A-1 2A.F ....|R-- .... ....|--- .... ....
....|..|C-4 AF.F ....|A-4 2F6F ....|A-4 3F.F ....
 A-3|..|A-2 2C.F ....|R-- .... ....|--- .... ....
....|..|C-4 AF.F ....|A-4 2F6F ....|B-4 3F.7 ....
 A-3|..|A-1 2A.F ....|R-- .... ....|--- .... ....
....|..|C-5 VF.F ....|A-4 2F6F ....|A-4 3F.F ....
 A-3|..|A-1 2A.F ....|R-- .... ....|--- .... ....
....|..|C-4 AF.F ....|A-4 2F6F ....|G-4 3F.F ....
 A-3|..|A-2 2C.F ....|R-- .... ....|--- .... ....
....|..|C-4 AF.F ....|A-4 2F6F ....|A-4 3F.F ....
 A-3|..|A-1 2A.F ....|R-- .... ....|--- .... ....
....|..|C-4 AF.F ....|A-4 2F6F ....|C-5 3F.F ....
 A-3|..|A-1 2A.F ....|R-- .... ....|--- .... ....
....|..|C-4 AF.F ....|A-4 2F6F ....|A-4 3F.A ....
 A-3|..|A-2 2C.F ....|R-- .... ....|--- .... ....
....|..|C-5 VF.F ....|A-4 2F6F ....|A-4 3F.F ....
 A-3|..|A-1 2A.F ....|R-- .... ....|--- .... ....
....|..|C-4 AF.F ....|A-4 2F6F ....|G-4 3F.7 ....
 A-3|..|A-1 2A.F ....|R-- .... ....|--- .... ....
....|..|C-4 AF.F ....|A-4 2F6F ....|A-4 3F.F ....
 A-3|..|A-2 2C.F ....|R-- .... ....|--- .... ....
....|..|C-5 VF.F ....|A-4 2F6F ....|C-5 3F.F ....
 A-3|..|A-1 2A.F ....|R-- .... ....|--- .... ....
....|..|C-4 AF.F ....|A-4 2F6F ....|C-5 3F.A ....
 A-3|..|A-1 2A.F ....|R-- .... ....|--- .... ....
....|..|C-4 AF.F ....|A-4 2F6F ....|B-4 3F.F ....
 A-3|..|A-2 2C.F ....|R-- .... ....|--- .... ....
 A-3|..|A-1 2A.F ....|A-4 2F6F ....|A-4 3F.A ....
....|..|A-1 2F.7 ....|R-- .... ....|--- .... ....
....|..|C-4 AF.F ....|G-4 2F7F ....|G-4 3F.F ....
 A-3|..|A-1 2A.F ....|R-- .... ....|--- .... ....
....|..|C-4 AF.F ....|G-4 2F7F ....|G-4 3F.7 ....
 A-3|..|A-1 2A.F ....|R-- .... ....|--- .... ....
....|..|C-4 AF.F ....|G-4 2F7F ....|C-5 3F.F ....
 A-3|..|A-2 2C.F ....|R-- .... ....|--- .... ....
....|..|C-4 AF.F ....|G-4 2F7F ....|B-4 3F.F ....
 A-3|..|A-1 2A.F ....|R-- .... ....|--- .... ....
....|..|C-5 VF.F ....|G-4 2F7F ....|B-4 3F.A ....
 A-3|..|A-1 2A.F ....|R-- .... ....|--- .... ....
....|..|C-4 AF.F ....|G-4 2F7F ....|A-4 3F.7 ....
 A-3|..|A-2 2C.F ....|R-- .... ....|--- .... ....
....|..|C-4 AF.F ....|G-4 2F7F ....|C-5 3F.F ....
 A-3|..|A-1 2A.F ....|R-- .... ....|--- .... ....
....|..|C-4 AF.F ....|G-4 2F7F ....|B-4 3F.F ....
 A-3|..|A-1 2A.F ....|R-- .... ....|--- .... ....
....|..|C-4 AF.F ....|G-4 2F7F ....|C-5 3F.7 ....
 A-3|..|A-2 2C.F ....|R-- .... ....|--- .... ....
....|..|C-5 VF.F ....|G-4 2F7F ....|B-4 3F.A ....
 A-3|..|A-1 2A.F ....|R-- .... ....|--- .... ....
....|..|C-4 AF.F ....|G-4 2F7F ....|B-4 3F.7 ....
 A-3|..|A-1 2A.F ....|R-- .... ....|--- .... ....
....|..|C-4 AF.F ....|G-4 2F7F ....|R-- .... ....
 A-3|..|A-2 2C.F ....|R-- .... ....|--- .... ....
....|..|C-5 VF.F ....|G-4 2F7F ....|G-4 3F.7 ....
 A-3|..|A-1 2A.F ....|R-- .... ....|--- .... ....
....|..|C-5 VF.F ....|G-4 2F7F ....|E-4 3F.F ....
 A-3|..|A-1 2A.F ....|R-- .... ....|--- .... ....
....|..|C-4 LF.F ....|G-4 2F7F ....|G-4 3F.F ....
 A-3|..|A-2 2C.F ....|R-- .... ....|--- .... ....
 A-3|..|A-1 2A.F ....|G-4 2F7F ....|E-4 3F.F ....
....|..|A-1 2F.7 ....|R-- .... ....|--- .... ....

[Pattern28]
....|..|C-4 AF.F ....|F-4 2F7F ....|G-4 3F.F ....
 F-3|..|F-1 2A.F ....|R-- .... ....|--- .... ....
....|..|C-4 AF.F ....|F-4 2F7F ....|R-- .... ....
 F-3|..|F-1 2A.F ....|R-- .... ....|--- .... ....
....|..|C-4 AF.F ....|F-4 2F7F ....|A-4 3F.F ....
 F-4|..|F-2 2A.F ....|R-- .... ....|--- .... ....
....|..|C-4 AF.F ....|F-4 2F7F ....|B-4 3F.7 ....
 F-3|..|F-1 2A.F ....|R-- .... ....|--- .... ....
....|..|C-5 VF.F ....|F-4 2F7F ....|A-4 3F.F ....
 F-3|..|F-1 2A.F ....|R-- .... ....|--- .... ....
....|..|C-4 AF.F ....|F-4 2F7F ....|G-4 3F.F ....
 F-4|..|F-2 2A.F ....|R-- .... ....|--- .... ....
....|..|C-4 AF.F ....|F-4 2F7F ....|A-4 3F.F ....
 F-3|..|F-1 2A.F ....|R-- .... ....|--- .... ....
....|..|C-4 AF.F ....|F-4 2F7F ....|C-5 3F.F ....
 F-3|..|F-1 2A.F ....|R-- .... ....|--- .... ....
....|..|C-4 AF.F ....|F-4 2F7F ....|A-4 3F.A ....
 F-4|..|F-2 2A.F ....|R-- .... ....|--- .... ....
....|..|C-5 VF.F ....|F-4 2F7F ....|A-4 3F.F ....
 F-3|..|F-1 2A.F ....|R-- .... ....|--- .... ....
....|..|C-4 AF.F ....|F-4 2F7F ....|G-4 3F.7 ....
 F-3|..|F-1 2A.F ....|R-- .... ....|--- .... ....
....|..|C-4 AF.F ....|F-4 2F7F ....|A-4 3F.F ....
 F-4|..|F-2 2A.F ....|R-- .... ....|--- .... ....
....|..|C-5 VF.F ....|F-4 2F7F ....|C-5 3F.F ....
 F-3|..|F-1 2A.F ....|R-- .... ....|--- .... ....
....|..|C-4 AF.F ....|F-4 2F7F ....|C-5 3F.A ....
 F-3|..|F-1 2A.F ....|R-- .... ....|--- .... ....
....|..|C-4 AF.F ....|F-4 2F7F ....|B-4 3F.F ....
 F-4|..|F-2 2A.F ....|R-- .... ....|--- .... ....
 F-3|..|F-1 2A.F ....|F-4 2F7F ....|A-4 3F.A ....
....|..|F-1 2F.7 ....|R-- .... ....|--- .... ....
....|..|C-4 AF.F ....|G-4 2F7F ....|G-4 3F.F ....
 F-3|..|F-1 2A.F ....|R-- .... ....|--- .... ....
....|..|C-4 AF.F ....|G-4 2F7F ....|G-4 3F.7 ....
 F-3|..|F-1 2A.F ....|R-- .... ....|--- .... ....
....|..|C-4 AF.F ....|G-4 2F7F ....|A-4 3F.F ....
 F-4|..|F-2 2A.F ....|R-- .... ....|--- .... ....
....|..|C-4 AF.F ....|G-4 2F7F ....|C-5 3F.7 ....
 F-3|..|F-1 2A.F ....|R-- .... ....|--- .... ....
....|..|C-5 VF.F ....|G-4 2F7F ....|A-4 3F.F ....
 F-3|..|F-1 2A.F ....|R-- .... ....|--- .... ....
....|..|C-4 AF.F ....|G-4 2F7F ....|G-4 3F.F ....
 F-4|..|F-2 2A.F ....|R-- .... ....|--- .... ....
....|..|C-4 AF.F ....|G-4 2F7F ....|A-4 3F.F ....
 F-3|..|F-1 2A.F ....|R-- .... ....|--- .... ....
....|..|C-4 AF.F ....|G-4 2F7F ....|C-5 3F.F ....
 F-3|..|F-1 2A.F ....|R-- .... ....|--- .... ....
....|..|C-4 AF.F ....|G-4 2F7F ....|C-5 3F.7 ....
 F-4|..|F-2 2A.F ....|R-- .... ....|--- .... ....
....|..|C-5 VF.F ....|G-4 2F7F ....|A-4 3F.F ....
 F-3|..|F-1 2A.F ....|R-- .... ....|--- .... ....
....|..|C-4 AF.F ....|G-4 2F7F ....|B-4 3F.7 ....
 F-3|..|F-1 2A.F ....|R-- .... ....|--- .... ....
....|..|C-4 AF.F ....|G-4 2F7F ....|A-4 3F.F ....
 F-4|..|F-2 2A.F ....|R-- .... ....|--- .... ....
....|..|C-5 VF.F ....|G-4 2F7F ....|C-5 3F.F ....
 F-3|..|F-1 2A.F ....|R-- .... ....|--- .... ....
....|..|C-5 VF.F ....|G-4 2F7F ....|C-5 3F.A ....
 F-3|..|F-1 2A.F ....|R-- .... ....|--- .... ....
....|..|C-4 LF.F ....|G-4 2F7F ....|B-4 3F.F ....
 F-4|..|F-2 2A.F ....|R-- .... ....|--- .... ....
 F-3|..|F-1 2A.F ....|G-4 2F7F ....|A-4 3F.A ....
....|..|F-1 2F.7 ....|R-- .... ....|--- .... ....

[Pattern29]
....|..|C-4 AF.F ....|F-4 2F7F ....|G-4 3F.F ....
 F-3|..|F-1 2A.F ....|R-- .... ....|--- .... ....
....|..|C-4 AF.F ....|F-4 2F7F ....|G-4 3F.7 ....
 F-3|..|F-1 2A.F ....|R-- .... ....|--- .... ....
....|..|C-4 AF.F ....|F-4 2F7F ....|A-4 3F.F ....
 F-4|..|F-2 2A.F ....|R-- .... ....|--- .... ....
....|..|C-4 AF.F ....|F-4 2F7F ....|C-5 3F.7 ....
 F-3|..|F-1 2A.F ....|R-- .... ....|--- .... ....
....|..|C-5 VF.F ....|F-4 2F7F ....|A-4 3F.F ....
 F-3|..|F-1 2A.F ....|R-- .... ....|--- .... ....
....|..|C-4 AF.F ....|F-4 2F7F ....|G-4 3F.F ....
 F-4|..|F-2 2A.F ....|R-- .... ....|--- .... ....
....|..|C-4 AF.F ....|F-4 2F7F ....|A-4 3F.F ....
 F-3|..|F-1 2A.F ....|R-- .... ....|--- .... ....
....|..|C-4 AF.F ....|F-4 2F7F ....|C-5 3F.F ....
 F-3|..|F-1 2A.F ....|R-- .... ....|--- .... ....
....|..|C-4 AF.F ....|F-4 2F7F ....|C-5 3F.7 ....
 F-4|..|F-2 2A.F ....|R-- .... ....|--- .... ....
....|..|C-5 VF.F ....|F-4 2F7F ....|A-4 3F.F ....
 F-3|..|F-1 2A.F ....|R-- .... ....|--- .... ....
....|..|C-4 AF.F ....|F-4 2F7F ....|B-4 3F.7 ....
 F-3|..|F-1 2A.F ....|R-- .... ....|--- .... ....
....|..|C-4 AF.F ....|F-4 2F7F ....|A-4 3F.F ....
 F-4|..|F-2 2A.F ....|R-- .... ....|--- .... ....
....|..|C-5 VF.F ....|F-4 2F7F ....|C-5 3F.F ....
 F-3|..|F-1 2A.F ....|R-- .... ....|--- .... ....
....|..|C-4 AF.F ....|F-4 2F7F ....|C-5 3F.A ....
 F-3|..|F-1 2A.F ....|R-- .... ....|--- .... ....
....|..|C-4 AF.F ....|F-4 2F7F ....|B-4 3F.F ....
 F-4|..|F-2 2A.F ....|R-- .... ....|--- .... ....
 F-3|..|F-1 2A.F ....|F-4 2F7F ....|A-4 3F.A ....
....|..|F-1 2F.7 ....|R-- .... ....|--- .... ....
....|..|C-4 AF.F ....|G-4 2F7F ....|G-4 3F.F ....
 F-3|..|F-1 2A.F ....|R-- .... ....|--- .... ....
....|..|C-4 AF.F ....|G-4 2F7F ....|G-4 3F.7 ....
 F-3|..|F-1 2A.F ....|R-- .... ....|--- .... ....
....|..|C-4 AF.F ....|G-4 2F7F ....|A-4 3F.F ....
 F-4|..|F-2 2A.F ....|R-- .... ....|--- .... ....
....|..|C-4 AF.F ....|G-4 2F7F ....|C-5 3F.7 ....
 F-3|..|F-1 2A.F ....|R-- .... ....|--- .... ....
....|..|C-5 VF.F ....|G-4 2F7F ....|A-4 3F.F ....
 F-3|..|F-1 2A.F ....|R-- .... ....|--- .... ....
....|..|C-4 AF.F ....|G-4 2F7F ....|G-4 3F.F ....
 F-4|..|F-2 2A.F ....|R-- .... ....|--- .... ....
....|..|C-4 AF.F ....|G-4 2F7F ....|A-4 3F.F ....
 F-3|..|F-1 2A.F ....|R-- .... ....|--- .... ....
....|..|C-4 AF.F ....|G-4 2F7F ....|C-5 3F.F ....
 F-3|..|F-1 2A.F ....|R-- .... ....|--- .... ....
....|..|C-4 AF.F ....|G-4 2F7F ....|C-5 3F.7 ....
 F-4|..|F-2 2A.F ....|R-- .... ....|--- .... ....
....|..|C-5 VF.F ....|G-4 2F7F ....|A-4 3F.F ....
 F-3|..|F-1 2A.F ....|R-- .... ....|--- .... ....
....|..|C-4 AF.F ....|G-4 2F7F ....|B-4 3F.7 ....
 F-3|..|F-1 2A.F ....|R-- .... ....|--- .... ....
....|..|C-4 AF.F ....|G-4 2F7F ....|A-4 3F.F ....
 F-4|..|F-2 2A.F ....|R-- .... ....|--- .... ....
....|..|C-5 VF.F ....|G-4 2F7F ....|C-5 3F.F ....
 F-3|..|F-1 2A.F ....|R-- .... ....|--- .... ....
....|..|C-5 VF.F ....|G-4 2F7F ....|C-5 3F.A ....
 F-3|..|F-1 2A.F ....|R-- .... ....|--- .... ....
....|..|C-4 LF.F ....|G-4 2F7F ....|B-4 3F.F ....
 F-4|..|F-2 2A.F ....|R-- .... ....|--- .... ....
 F-3|..|F-1 2A.F ....|G-4 2F7F ....|A-4 3F.A ....
....|..|F-1 2F.7 ....|R-- .... ....|--- .... ....

[Pattern30]
....|..|C-4 AF.F ....|G-4 2F77 ....|G-4 3F.F ....
....|..|F-1 2F.7 ....|R-- .... ....|--- .... ....
....|..|C-4 AF.F ....|G-4 2F77 ....|G-4 3F.7 ....
....|..|F-2 2F.7 ....|R-- .... ....|--- .... ....
....|..|C-4 AF.F ....|G-4 2F77 ....|A-4 3F.7 ....
....|..|F-1 2F.7 ....|R-- .... ....|--- .... ....
....|..|C-4 AF.F ....|G-4 2F77 ....|G-4 3F.F ....
....|..|F-1 2F.7 ....|R-- .... ....|--- .... ....
....|..|C-5 VF.F ....|G-4 2F77 ....|B-4 3F.A ....
....|..|F-2 2F.7 ....|R-- .... ....|--- .... ....
....|..|C-4 AF.F ....|G-4 2F77 ....|A-4 3F.7 ....
....|..|F-1 2F.7 ....|R-- .... ....|--- .... ....
....|..|C-4 AF.F ....|G-4 2F77 ....|G-4 3F.F ....
....|..|F-1 2F.7 ....|R-- .... ....|--- .... ....
....|..|C-4 AF.F ....|G-4 2F77 ....|A-4 3F.7 ....
....|..|F-2 2F.7 ....|R-- .... ....|--- .... ....
....|..|C-4 AF.F ....|G-4 2F77 ....|C-5 3F.7 ....
....|..|F-1 2F.7 ....|R-- .... ....|--- .... ....
....|..|C-5 VF.F ....|G-4 2F77 ....|G-4 3F.F ....
....|..|F-1 2F.7 ....|R-- .... ....|--- .... ....
....|..|C-4 AF.F ....|G-4 2F77 ....|B-4 3F.7 ....
....|..|F-2 2F.7 ....|R-- .... ....|--- .... ....
....|..|C-4 AF.F ....|G-4 2F77 ....|R-- .... ....
....|..|--- .... ....|R-- .... ....|--- .... ....
....|..|C-5 VF.F ....|--- .... ....|B-4 3F.F ....
....|..|R-- .... ....|--- .... ....|--- .... ....
....|..|C-4 AF.F ....|--- .... ....|C-5 3F.F ....
....|..|--- .... ....|--- .... ....|--- .... ....
....|..|C-4 AF.F ....|--- .... ....|B-4 3F.F ....
....|..|--- .... ....|--- .... ....|--- .... ....
....|..|C-4 AF.7 ....|--- .... ....|C-5 3F.F ....
....|..|--- .... ....|--- .... ....|--- .... ....
....|..|C-4 AF.F ....|F-2 2F.F ....|A-4 3F.F ....
....|..|--- .... ....|--- .... ....|--- .... ....
....|..|C-4 AF.F ....|--- .... ....|R-- .... ....
....|..|--- .... ....|--- .... ....|--- .... ....
....|..|C-4 AF.F ....|F-3 2F2F ....|G-4 3F.7 ....
....|..|--- .... ....|--- .... ....|--- .... ....
....|..|C-4 AF.F ....|--- .... ....|A-4 3F.F ....
....|..|--- .... ....|--- .... ....|--- .... ....
....|..|C-5 VF.F ....|F-3 2F3F ....|B-4 3F.A ....
....|..|--- .... ....|--- .... ....|--- .... ....
....|..|C-4 AF.F ....|--- .... ....|G-4 3F.7 ....
....|..|--- .... ....|--- .... ....|--- .... ....
....|..|C-4 AF.F ....|F-3 2F4F ....|A-4 3F.F ....
....|..|--- .... ....|--- .... ....|--- .... ....
....|..|C-4 AF.F ....|--- .... ....|R-- .... ....
....|..|--- .... ....|--- .... ....|--- .... ....
....|..|C-4 AF.F ....|F-3 2F5F ....|B-4 3F.7 ....
....|..|--- .... ....|--- .... ....|--- .... ....
....|..|C-5 VF.F ....|--- .... ....|A-4 3F.F ....
....|..|--- .... ....|--- .... ....|--- .... ....
....|..|C-4 AF.F ....|C-4 2F1F ....|B-4 3F.7 ....
....|..|--- .... ....|--- .... ....|--- .... ....
....|..|C-4 AF.F ....|--- .... ....|C-5 3F.7 ....
....|..|--- .... ....|--- .... ....|--- .... ....
....|..|C-5 VF.F ....|F-2 2F.7 ....|B-4 3F.F ....
....|..|--- .... ....|--- .... ....|--- .... ....
....|..|C-5 VF.F ....|--- .... ....|C-5 3F.F ....
....|..|--- .... ....|--- .... ....|--- .... ....
....|..|C-4 LF.F ....|F-3 2F27 ....|B-4 3F.F ....
....|..|--- .... ....|--- .... ....|--- .... ....
....|..|C-4 AF.7 ....|--- .... ....|C-5 3F.F ....
....|..|--- .... ....|--- .... ....|--- .... ....

[Pattern31]
....|..|C-5 VF.7 ....|E-3 2F1F ....|E-5 3F.F ....
....|..|--- .... ....|--- .... ....|--- .... ....
....|..|C-4 AF.7 ....|--- .... ....|R-- .... ....
....|..|--- .... ....|--- .... ....|--- .... ....
....|..|C-4 AF.7 ....|F-3 2F47 ....|A-4 3F.7 ....
....|..|--- .... ....|--- .... ....|--- .... ....
....|..|C-4 AF.7 ....|--- .... ....|E-5 3F.F ....
....|..|--- .... ....|--- .... ....|--- .... ....
....|..|C-4 AF.7 ....|F-3 2F57 ....|B-4 3F.A ....
....|..|--- .... ....|--- .... ....|--- .... ....
....|..|C-5 VF.7 ....|--- .... ....|A-4 3F.7 ....
....|..|--- .... ....|--- .... ....|--- .... ....
....|..|C-4 AF.7 ....|C-4 2F17 ....|E-5 3F.F ....
....|..|--- .... ....|--- .... ....|--- .... ....
....|..|C-4 AF.7 ....|--- .... ....|R-- .... ....
....|..|--- .... ....|--- .... ....|--- .... ....
....|..|C-5 VF.7 ....|--- .... ....|B-4 3F.7 ....
....|..|--- .... ....|--- .... ....|--- .... ....
....|..|C-5 VF.7 ....|--- .... ....|E-5 3F.F ....
....|..|--- .... ....|--- .... ....|--- .... ....
....|..|C-4 LF.7 ....|--- .... ....|B-4 3F.7 ....
....|..|--- .... ....|--- .... ....|--- .... ....
....|..|R-- .... ....|--- .... ....|C-5 3F.7 ....
....|..|--- .... ....|--- .... ....|--- .... ....
....|..|--- .... ....|E-3 2F17 ....|B-4 3F.F ....
....|..|--- .... ....|--- .... ....|--- .... ....
....|..|--- .... ....|--- .... ....|C-5 3F.F ....
....|..|--- .... ....|--- .... ....|--- .... ....
....|..|--- .... ....|--- .... ....|B-4 3F.F ....
....|..|--- .... ....|--- .... ....|--- .... ....
....|..|--- .... ....|--- .... ....|C-5 3F.F ....
....|..|--- .... ....|--- .... ....|--- .... ....
....|..|--- .... ....|C-4 2F1F ....|A-4 3F.F ....
....|..|--- .... ....|--- .... ....|--- .... ....
....|..|--- .... ....|--- .... ....|R-- .... ....
....|..|--- .... ....|--- .... ....|--- .... ....
....|..|--- .... ....|--- .... ....|E-5 3F.7 ....
....|..|--- .... ....|--- .... ....|--- .... ....
....|..|--- .... ....|--- .... ....|A-4 3F.F ....
....|..|--- .... ....|--- .... ....|--- .... ....
....|..|--- .... ....|--- .... ....|B-4 3F.A ....
....|..|--- .... ....|--- .... ....|--- .... ....
....|..|--- .... ....|--- .... ....|E-5 3F.7 ....
....|..|--- .... ....|--- .... ....|--- .... ....
....|..|--- .... ....|C-4 2F1A ....|A-4 3F.F ....
....|..|--- .... ....|--- .... ....|--- .... ....
....|..|--- .... ....|--- .... ....|R-- .... ....
....|..|--- .... ....|--- .... ....|--- .... ....
....|..|--- .... ....|--- .... ....|B-4 3F.7 ....
....|..|--- .... ....|--- .... ....|--- .... ....
....|..|--- .... ....|--- .... ....|A-4 3F.F ....
....|..|--- .... ....|--- .... ....|--- .... ....
....|..|--- .... ....|--- .... ....|B-4 3F.7 ....
....|..|--- .... ....|--- .... ....|--- .... ....
....|..|--- .... ....|--- .... ....|C-5 3F.7 ....
....|..|--- .... ....|--- .... ....|--- .... ....
....|..|--- .... ....|C-4 2F17 ....|B-4 3F.F ....
....|..|--- .... ....|--- .... ....|--- .... ....
....|..|--- .... ....|--- .... ....|C-5 3F.F ....
....|..|--- .... ....|--- .... ....|--- .... ....
....|..|--- .... ....|--- .... ....|B-4 3F.F ....
....|..|--- .... ....|--- .... ....|--- .... ....
....|..|--- .... ....|--- .... ....|C-5 3F.F ....
....|..|--- .... ....|--- .... ....|--- .... ....

[Pattern33]
....|..|--- .... ....|E-3 2F1F ....|E-5 3F.F ....
....|..|--- .... ....|--- .... ....|--- .... ....
....|..|--- .... ....|--- .... ....|E-4 3F.F ....
....|..|--- .... ....|--- .... ....|--- .... ....
....|..|--- .... ....|--- .... ....|A-4 3F.F ....
....|..|--- .... ....|--- .... ....|--- .... ....
....|..|--- .... ....|--- .... ....|E-5 3F.F ....
....|..|--- .... ....|--- .... ....|--- .... ....
....|..|--- .... ....|--- .... ....|E-4 3F.F ....
....|..|--- .... ....|--- .... ....|--- .... ....
....|..|--- .... ....|--- .... ....|A-4 3F.F ....
....|..|--- .... ....|--- .... ....|--- .... ....
....|..|--- .... ....|E-3 2F1A ....|E-5 3F.F ....
....|..|--- .... ....|--- .... ....|--- .... ....
....|..|--- .... ....|--- .... ....|E-4 3F.F ....
....|..|--- .... ....|--- .... ....|--- .... ....
....|..|--- .... ....|--- .... ....|A-4 3F.F ....
....|..|--- .... ....|--- .... ....|--- .... ....
....|..|--- .... ....|--- .... ....|E-5 3F.F ....
....|..|--- .... ....|--- .... ....|--- .... ....
....|..|--- .... ....|--- .... ....|E-4 3F.F ....
....|..|--- .... ....|--- .... ....|--- .... ....
....|..|--- .... ....|--- .... ....|A-4 3F.F ....
....|..|--- .... ....|--- .... ....|--- .... ....
....|..|--- .... ....|E-3 2F17 ....|B-4 3F.F ....
....|..|--- .... ....|--- .... ....|--- .... ....
....|..|--- .... ....|--- .... ....|C-5 3F.F ....
....|..|--- .... ....|--- .... ....|--- .... ....
....|..|--- .... ....|--- .... ....|B-4 3F.F ....
....|..|--- .... ....|--- .... ....|--- .... ....
....|..|--- .... ....|--- .... ....|C-5 3F.F ....
....|..|--- .... ....|--- .... ....|--- .... ....
....|..|--- .... ....|C-4 2F1F ....|A-4 3F.F ....
....|..|--- .... ....|--- .... ....|--- .... ....
....|..|--- .... ....|--- .... ....|A-4 3F.7 ....
....|..|--- .... ....|--- .... ....|--- .... ....
....|..|--- .... ....|--- .... ....|E-5 3F.7 ....
....|..|--- .... ....|--- .... ....|--- .... ....
....|..|--- .... ....|--- .... ....|A-4 3F.F ....
....|..|--- .... ....|--- .... ....|--- .... ....
....|..|--- .... ....|--- .... ....|A-4 3F.7 ....
....|..|--- .... ....|--- .... ....|--- .... ....
....|..|--- .... ....|--- .... ....|E-5 3F.7 ....
....|..|--- .... ....|--- .... ....|--- .... ....
....|..|--- .... ....|C-4 2F1A ....|A-4 3F.F ....
....|..|--- .... ....|--- .... ....|--- .... ....
....|..|--- .... ....|--- .... ....|A-4 3F.7 ....
....|..|--- .... ....|--- .... ....|--- .... ....
....|..|--- .... ....|--- .... ....|B-4 3F.7 ....
....|..|--- .... ....|--- .... ....|--- .... ....
....|..|--- .... ....|--- .... ....|A-4 3F.F ....
....|..|--- .... ....|--- .... ....|--- .... ....
....|..|--- .... ....|--- .... ....|B-4 3F.7 ....
....|..|--- .... ....|--- .... ....|--- .... ....
....|..|--- .... ....|--- .... ....|C-5 3F.7 ....
....|..|--- .... ....|--- .... ....|--- .... ....
....|..|--- .... ....|C-4 2F17 ....|B-4 3F.F ....
....|..|--- .... ....|--- .... ....|--- .... ....
....|..|--- .... ....|--- .... ....|C-5 3F.F ....
....|..|--- .... ....|--- .... ....|--- .... ....
....|..|--- .... ....|--- .... ....|B-4 3F.F ....
....|..|--- .... ....|--- .... ....|--- .... ....
....|..|--- .... ....|--- .... ....|C-5 3F.F ....
....|..|--- .... ....|--- .... ....|--- .... ....

[Pattern34]
....|..|--- .... ....|R-- .... ....|A-4 3F8F ....
....|..|--- .... ....|--- .... ....|--- .... ....
....|..|--- .... ....|--- .... ....|E-5 3F.F ....
....|..|--- .... ....|--- .... ....|--- .... ....
....|..|--- .... ....|--- .... ....|C-4 3FCF ....
....|..|--- .... ....|--- .... ....|--- .... ....
....|..|--- .... ....|--- .... ....|A-4 3F8F ....
....|..|--- .... ....|--- .... ....|--- .... ....
....|..|--- .... ....|--- .... ....|E-5 3F.F ....
....|..|--- .... ....|--- .... ....|--- .... ....
....|..|--- .... ....|--- .... ....|C-4 3FCF ....
....|..|--- .... ....|--- .... ....|--- .... ....
....|..|--- .... ....|R-- .... ....|A-4 3F8F ....
....|..|--- .... ....|--- .... ....|--- .... ....
....|..|--- .... ....|--- .... ....|E-5 3F.F ....
....|..|--- .... ....|--- .... ....|--- .... ....
....|..|--- .... ....|--- .... ....|C-4 3FCF ....
....|..|--- .... ....|--- .... ....|--- .... ....
....|..|--- .... ....|--- .... ....|A-4 3F8F ....
....|..|--- .... ....|--- .... ....|--- .... ....
....|..|--- .... ....|--- .... ....|E-5 3F.F ....
....|..|--- .... ....|--- .... ....|--- .... ....
....|..|--- .... ....|--- .... ....|C-4 3FCF ....
....|..|--- .... ....|--- .... ....|--- .... ....
....|..|--- .... ....|R-- .... ....|E-5 3F.F ....
....|..|--- .... ....|--- .... ....|--- .... ....
....|..|--- .... ....|--- .... ....|E-5 3F.7 ....
....|..|--- .... ....|--- .... ....|--- .... ....
....|..|--- .... ....|--- .... ....|C-5 3F.F ....
....|..|--- .... ....|--- .... ....|--- .... ....
....|..|--- .... ....|--- .... ....|E-5 3F.F ....
....|..|--- .... ....|--- .... ....|--- .... ....
....|..|--- .... ....|--- .... ....|E-5 3F.7 ....
....|..|--- .... ....|--- .... ....|--- .... ....
....|..|--- .... ....|--- .... ....|C-4 3FC7 ....
....|..|--- .... ....|--- .... ....|--- .... ....
....|..|--- .... ....|--- .... ....|A-4 3F87 ....
....|..|--- .... ....|--- .... ....|--- .... ....
....|..|--- .... ....|--- .... ....|E-5 3F.7 ....
....|..|--- .... ....|--- .... ....|--- .... ....
....|..|--- .... ....|--- .... ....|C-4 3FC7 ....
....|..|--- .... ....|--- .... ....|--- .... ....
....|..|--- .... ....|--- .... ....|A-4 3F87 ....
....|..|--- .... ....|--- .... ....|--- .... ....
....|..|--- .... ....|--- .... ....|E-5 3F.7 ....
....|..|--- .... ....|--- .... ....|--- .... ....
....|..|--- .... ....|--- .... ....|C-4 3FC7 ....
....|..|--- .... ....|--- .... ....|--- .... ....
....|..|--- .... ....|--- .... ....|E-5 3F.7 ....
....|..|--- .... ....|--- .... ....|--- .... ....
....|..|--- .... ....|--- .... ....|R-- .... ....
....|..|--- .... ....|--- .... ....|--- .... ....
....|..|--- .... ....|--- .... ....|C-5 3F.7 ....
....|..|--- .... ....|--- .... ....|--- .... ....
....|..|--- .... ....|--- .... ....|E-5 3F.7 ....
....|..|--- .... ....|--- .... ....|--- .... ....
