[Module]
VortexTrackerII=0
Version=3.5
Title=1d-2me,3p,4p[3]
Author=oisee ^ 4d 29.05.2010
NoteTable=4
ChipFreq=1750000
Speed=4
PlayOrder=L0,1,2,3,4,5,6,7,8,9,10,11,12,13,6,7,16,17,18,19,20,21,22,23,24,21,22,27,28,9,10,11,32,9,10,11,36,17,18,19,40,41,42,43,44,41,42,47,48,49,50,51,52,53,54,55,50,51,52,53,54,61,62,63,64,65,66,67,68,69,70,41,42,43,74,21,22,23,24,21,22,27,82,83,84


[Ornament1]
L0,0,9,9

[Ornament2]
L0,0,2,2

[Ornament3]
L0,0,3,3

[Ornament4]
L0,0,12,12

[Ornament5]
L0,0,7,7

[Ornament6]
L0,0,5,5

[Ornament7]
L0,0,8,8

[Ornament8]
L0,0,6,6

[Ornament9]
L0,0,11,11

[Ornament10]
L0,0,10,10


[Sample1]
TnE +000_ +00_ F_
TnE +000_ +00_ F_
TnE +000_ +00_ F_
TnE +000_ +00_ D_
TnE +000_ +00_ B_
TnE +000_ +00_ B_ L

[Sample2]
TnE +000_ +00_ F_ L

[Sample3]
TnE +001_ +00_ F_
TnE +002_ +00_ F_
TnE +001_ +00_ E_
TnE +002_ +00_ E_
TnE +000_ +00_ E_ L
TnE -001_ +00_ E_
TnE -002_ +00_ E_
TnE -001_ +00_ E_
TnE +000_ +00_ E_
TnE +001_ +00_ E_
TnE +002_ +00_ E_
TnE +001_ +00_ E_

[Sample4]
TnE +002_ +00_ D_
TnE +002_ +00_ D_
TnE +002_ +00_ C_
TnE +002_ +00_ B_
TnE +002_ +00_ A_ L
TnE +002_ +00_ A_
TnE +002_ +00_ A_
TnE +002_ +00_ A_
TnE +002_ +00_ A_
TnE +002_ +00_ A_
TnE +002_ +00_ A_
TnE +002_ +00_ A_

[Sample5]
TnE +000_ +00_ F_
TnE +000_ +00_ F_
tne +000_ +00_ 0_ L

[Sample6]
TnE -001_ +00_ F_ L

[Sample7]
TnE +006_ +00_ F_ L

[Sample8]
tNe +000_ +00_ F_
tNe +000_ +00_ B_
tNe +000_ +00_ 7_
tNe +000_ +00_ 6- L

[Sample9]
TnE +080_ +00_ F_
TnE +100_ +00_ E_
TnE +180_ +00_ E_
TnE +200_ +00_ E_
TnE +240_ +00_ D_
TnE +280_ +00_ D_
TnE +2C0_ +00_ D_
TnE +300_ +00_ C_
TnE +300_ +00_ C_
TnE +340_ +00_ C_
TnE +340_ +00_ C_
TnE +380_ +00_ B_
TnE +380_ +00_ B_
TnE +400_ +00_ B_
TnE +400_ +00_ B_
TnE +480_ +00_ A_
TnE +500_ +00_ 9_
TnE +580_ +00_ 7_
TnE +600_ +00_ 4_
TnE +680_ +00_ 1_
TnE +000_ +00_ 0_ L

[Sample10]
Tne +1C0_ +00_ F_
Tne +280_ +00_ E_
Tne +380_ +00_ C_
Tne +440_ +00_ A_
Tne +480_ +00_ 8_
TnE +000_ +00_ 0_ L

[Sample11]
TNe +200_ -0A_ F_
tNe +000_ +0F_ A_
TNe +200_ -07_ E_
tNe +000_ +0E_ B- L

[Sample12]
TNE +0A0_ +05_ F_
TNE +140_ +02_ D_
TNE +140_ +02_ B_
TNE +100_ +00_ A_ L
TNE +140_ +00_ A_
TNE +200_ +00_ A-

[Sample13]
Tne +200_ +00_ F_
Tne +2C0_ +00_ F_
Tne +380_ +00_ E_
Tne +500_ +00_ C_
Tne +520_ +00_ 9_
tne +000_ +00_ 0_ L

[Sample14]
TNE -100_ +00_ F_
TNE -100_ +00_ D_
TNE -100_ +00_ A_
TNE -100_ +00_ 5_
tne +000_ +00_ 0_ L

[Sample15]
TNE -100_ +00_ 5_
TNE -100_ +00_ 8_
TNE -100_ +00_ B_
TNE -100_ +00_ F_
TNe -100_ +00_ 9- L

[Sample16]
TnE +000_ +00_ C_
TnE +000_ +00_ E_
TnE +000_ +00_ F_
TnE +000_ +00_ F_
TnE +000_ +00_ E_
TnE +000_ +00_ D_
TnE +000_ +00_ C_
TnE +000_ +00_ C_ L
TnE +001_ +00_ C_
TnE +002_ +00_ C_
TnE +003_ +00_ C_
TnE +001_ +00_ C_
TnE +000_ +00_ C_
TnE -001_ +00_ C_
TnE -002_ +00_ C_
TnE -003_ +00_ C_
TnE -001_ +00_ C_
TnE +000_ +00_ C_
TnE +000_ +00_ C_

[Sample17]
Tne +1C0_ +00_ F_
Tne +280_ +00_ D_
Tne +380_ +00_ 7_
TNE +000_ +00_ 0_ L

[Sample18]
TnE -00C_ +00_ 0_ L

[Sample19]
TNe +000_ +00_ F_
TNe +000_ +00_ C_
TNe +000_ +00_ 6_
TNe +000_ +01_ A- L

[Sample20]
TNE +140_ +00_ F_
tNE +000_ +00_ B- L

[Sample21]
tNE +000_ +00_ D_
tNE +000_ +00_ 8_
tNE +000_ +00_ 1_
TNE +000_ +00_ 0_ L

[Sample22]
TnE +000_ +00_ D_ L
TnE +000_ +00_ D_
tne +000_ +00_ 9_
tne +000_ +00_ 9_
TnE +000_ +00_ D_
TnE +000_ +00_ D_
tne +000_ +00_ 9_
tne +000_ +00_ 9_
TnE +000_ +00_ D_
TnE +000_ +00_ D_
TnE +000_ +00_ D_
TnE +000_ +00_ D_
TnE +000_ +00_ D_
TnE +000_ +00_ D_
tne +000_ +00_ 9_
tne +000_ +00_ 9_

[Sample23]
TnE +000_ +00_ F_ L
TnE +010_ +01_ F_
TnE +010_ +01_ F_
TnE +010_ +01_ F_
TnE +010_ +01_ F_
TnE +000_ +00_ F_
TnE +000_ +00_ F_
TnE -010_ -01_ F_
TnE -010_ -01_ F_
TnE -010_ -01_ F_
TnE -010_ -01_ F_
TnE +000_ +00_ F_

[Sample24]
TNe +000_ -01_ C_
TNe +000_ -01_ D_
TNe +000_ -01_ E_
TNe +000_ -01_ F_
TNe +000_ -01_ F_
TNe +000_ -01_ F_
TNe +000_ -01_ F_
TNe +000_ -01_ F_
TNe +000_ -01_ E_
TNe +000_ -01_ E_
TNe +000_ -01_ E_
TNe +000_ -01_ F_
TNe +000_ -01_ F_ L

[Sample25]
TNE +000_ +00_ F_
TNE +000_ +00_ F_ L
TNE +000_ +00_ F_
TNE +000_ +00_ F_
TNE +000_ +00_ F-

[Sample26]
tne +000_ +00_ 0_ L

[Sample27]
TnE +100_ +05_ F_
TnE +200_ +02_ A_
TnE +300_ +02_ 7_
TNE +400_ +00_ 3- L

[Sample28]
tne +000_ +00_ 0_ L

[Sample29]
tnE +000_ +00_ 0_ L

[Sample30]
TNE +000_ +00_ C+ L

[Sample31]
TNe +1C0_ +00_ F_
Tne +280_ +00_ E_
Tne +380_ +00_ C_
Tne +440_ +00_ A_
Tne +480_ +00_ 8_
TnE +000_ +00_ 0_ L

[Pattern0]
 G-4|..|G-6 2C.F ....|A#4 2F1F ....|F#5 3F.F ....
....|..|--- .... ....|--- .... ....|--- .... ....
....|..|--- .... ....|--- .... ....|--- .... ....
....|..|--- .... ....|--- .... ....|--- .... ....
 G-4|..|G-6 2C.F ....|A#4 2F1F ....|--- .... ....
....|..|--- .... ....|--- .... ....|--- .... ....
....|..|G-6 2F.A ....|A#4 2F1A ....|F#5 3F.A ....
....|..|--- .... ....|--- .... ....|--- .... ....
....|..|B-8 JF.F ....|A#4 2F.F ....|--- .... ....
 A#3|..|A#4 2C.F ....|--- .... ....|--- .... ....
....|..|G-6 2F.A ....|A#4 2F1A ....|--- .... ....
....|..|--- .... ....|--- .... ....|--- .... ....
 G-4|..|G-6 2C.F ....|A#4 2F1F ....|G-5 3F.F ....
....|..|--- .... ....|--- .... ....|--- .... ....
....|..|B-8 JF.A ....|A#4 2F.A ....|--- .... ....
....|..|A#4 2F.A ....|--- .... ....|--- .... ....
 A-3|..|A-4 2C.F ....|A-4 2F.F ....|--- .... ....
....|..|--- .... ....|--- .... ....|--- .... ....
....|..|G-6 2F.A ....|A#4 2F1A ....|G-5 3F.A ....
....|..|--- .... ....|--- .... ....|--- .... ....
 A#3|..|A#4 2C.F ....|A#4 2F.F ....|--- .... ....
....|..|A#4 2F.7 ....|--- .... ....|--- .... ....
....|..|A-4 2F.A ....|A-4 2F.A ....|--- .... ....
....|..|--- .... ....|--- .... ....|--- .... ....
....|..|B-8 JF.F ....|A#4 2F1F ....|D-5 3F.F ....
 G-4|..|G-6 2C.F ....|--- .... ....|--- .... ....
....|..|A#4 2F.A ....|A#4 2F.A ....|--- .... ....
....|..|--- .... ....|--- .... ....|--- .... ....
 G-4|..|G-4 2C.F ....|G-4 2F.F ....|--- .... ....
....|..|--- .... ....|--- .... ....|--- .... ....
....|..|B-8 JF.A ....|A#4 2F1A ....|D-5 3F.A ....
....|..|G-6 2F.A ....|--- .... ....|--- .... ....
 G-4|..|G-6 2C.F ....|A#4 2F1F ....|--- .... ....
....|..|--- .... ....|--- .... ....|--- .... ....
....|..|G-4 2F.A ....|G-4 2F.A ....|--- .... ....
....|..|--- .... ....|--- .... ....|--- .... ....
 G-4|..|G-4 2C.F ....|G-4 2F.F ....|D-5 3F.7 ....
....|..|G-6 2F.7 ....|--- .... ....|--- .... ....
....|..|G-6 2F.A ....|A#4 2F1A ....|--- .... ....
....|..|--- .... ....|--- .... ....|--- .... ....
....|..|B-8 JF.F ....|A#4 2F.F ....|D#5 3F.F ....
 A#3|..|A#4 2C.F ....|--- .... ....|--- .... ....
....|..|G-4 2F.A ....|G-4 2F.A ....|--- .... ....
....|..|--- .... ....|--- .... ....|--- .... ....
 A#3|..|A#4 2C.F ....|A#4 2F17 ....|--- .... ....
....|..|--- .... ....|--- .... ....|--- .... ....
....|..|B-8 JF.A ....|A#4 2F.A ....|D#5 3F.A ....
....|..|A#4 2F.A ....|--- .... ....|--- .... ....
 A-3|..|A-4 2C.F ....|A-4 2F.F ....|D-5 3F.F ....
....|..|--- .... ....|--- .... ....|--- .... ....
....|..|A#4 2F.A ....|--- .... ....|--- .... ....
....|..|--- .... ....|--- .... ....|--- .... ....
 A#3|..|A#4 2C.F ....|A#4 2F.F ....|D#5 3F.7 ....
....|..|A#4 2F.7 ....|--- .... ....|--- .... ....
....|..|A-4 2F.A ....|A-4 2F.A ....|D-5 3F.A ....
....|..|--- .... ....|--- .... ....|--- .... ....
....|..|C-4 AF.F ....|R-- .... ....|A#4 3F.F ....
....|..|R-- .... ....|--- .... ....|--- .... ....
....|..|A#4 2F.A ....|A#4 2F.A ....|--- .... ....
....|..|--- .... ....|--- .... ....|--- .... ....
....|..|C-4 AF.F ....|A-4 2F.7 ....|D-5 3F.7 ....
 G-4|..|G-2 2A.F ....|--- .... ....|--- .... ....
....|..|C-4 AF.A ....|R-- .... ....|A#4 3F.A ....
....|..|R-- .... ....|--- .... ....|--- .... ....

[Pattern1]
 G-4|..|G-6 2C.F ....|A#4 2F1F ....|A-4 3F.F ....
....|..|--- .... ....|--- .... ....|--- .... ....
....|..|C-4 AF.A ....|--- .... ....|--- .... ....
....|..|G-2 2F.A ....|--- .... ....|--- .... ....
 G-4|..|G-6 2C.F ....|A#4 2F1F ....|A#4 3F.7 ....
....|..|R-- .... ....|--- .... ....|--- .... ....
....|..|G-6 2F.A ....|A#4 2F1A ....|A-4 3F.A ....
....|..|--- .... ....|--- .... ....|--- .... ....
....|..|B-8 JF.F ....|A#4 2F.F ....|--- .... ....
 A#3|..|A#4 2C.F ....|--- .... ....|--- .... ....
....|..|G-6 2F.A ....|A#4 2F1A ....|--- .... ....
....|..|--- .... ....|--- .... ....|--- .... ....
 G-4|..|G-6 2C.F ....|A#4 2F1F ....|A#4 3F.F ....
....|..|--- .... ....|--- .... ....|--- .... ....
....|..|B-8 JF.A ....|A#4 2F.A ....|--- .... ....
....|..|A#4 2F.A ....|--- .... ....|--- .... ....
 A-3|..|A-4 2C.F ....|A-4 2F.F ....|--- .... ....
....|..|--- .... ....|--- .... ....|--- .... ....
....|..|G-6 2F.A ....|A#4 2F1A ....|A#4 3F.A ....
....|..|--- .... ....|--- .... ....|--- .... ....
 A#3|..|A#4 2C.F ....|A#4 2F.F ....|--- .... ....
....|..|A#4 2F.7 ....|--- .... ....|--- .... ....
....|..|A-4 2F.A ....|A-4 2F.A ....|--- .... ....
....|..|--- .... ....|--- .... ....|--- .... ....
....|..|B-8 JF.F ....|A#4 2F1F ....|D-4 3F.F ....
 G-4|..|G-6 2C.F ....|--- .... ....|--- .... ....
....|..|A#4 2F.A ....|A#4 2F.A ....|--- .... ....
....|..|--- .... ....|--- .... ....|--- .... ....
 G-4|..|G-4 2C.F ....|G-4 2F.F ....|--- .... ....
....|..|--- .... ....|--- .... ....|--- .... ....
....|..|B-8 JF.A ....|A#4 2F1A ....|D-4 3F.A ....
....|..|G-6 2F.A ....|--- .... ....|--- .... ....
 G-4|..|G-6 2C.F ....|A#4 2F1F ....|--- .... ....
....|..|--- .... ....|--- .... ....|--- .... ....
....|..|G-4 2F.A ....|G-4 2F.A ....|--- .... ....
....|..|--- .... ....|--- .... ....|--- .... ....
 G-4|..|G-4 2C.F ....|G-4 2F.F ....|D-4 3F.7 ....
....|..|G-6 2F.7 ....|--- .... ....|--- .... ....
....|..|G-6 2F.A ....|A#4 2F1A ....|--- .... ....
....|..|--- .... ....|--- .... ....|--- .... ....
....|..|B-8 JF.F ....|A#4 2F.F ....|--- .... ....
 A#3|..|A#4 2C.F ....|--- .... ....|--- .... ....
....|..|G-4 2F.A ....|G-4 2F.A ....|--- .... ....
....|..|--- .... ....|--- .... ....|--- .... ....
 A#3|..|A#4 2C.F ....|A#4 2F17 ....|--- .... ....
....|..|--- .... ....|--- .... ....|--- .... ....
....|..|B-8 JF.A ....|A#4 2F.A ....|--- .... ....
....|..|A#4 2F.A ....|--- .... ....|--- .... ....
 A-3|..|A-4 2C.F ....|A-4 2F.F ....|--- .... ....
....|..|--- .... ....|--- .... ....|--- .... ....
....|..|A#4 2F.A ....|--- .... ....|--- .... ....
....|..|--- .... ....|--- .... ....|--- .... ....
 A#3|..|A#4 2C.F ....|A#4 2F.F ....|--- .... ....
....|..|A#4 2F.7 ....|--- .... ....|--- .... ....
....|..|A-4 2F.A ....|A-4 2F.A ....|--- .... ....
....|..|--- .... ....|--- .... ....|--- .... ....
....|..|C-4 AF.F ....|R-- .... ....|R-- .... ....
....|..|R-- .... ....|--- .... ....|--- .... ....
....|..|A#4 2F.A ....|A#4 2F.A ....|--- .... ....
....|..|--- .... ....|--- .... ....|--- .... ....
....|..|C-4 AF.F ....|A-4 2F.7 ....|--- .... ....
 C-3|..|C-3 2C.F ....|--- .... ....|--- .... ....
....|..|C-4 AF.A ....|R-- .... ....|R-- .... ....
....|..|R-- .... ....|--- .... ....|--- .... ....

[Pattern2]
 G-4|..|G-6 2C.F ....|A#4 2F1F ....|D#4 3F.F ....
....|..|--- .... ....|--- .... ....|--- .... ....
....|..|C-4 AF.A ....|--- .... ....|--- .... ....
....|..|C-3 2F.A ....|--- .... ....|--- .... ....
 G-4|..|G-6 2C.F ....|A#4 2F1F ....|R-- .... ....
....|..|R-- .... ....|--- .... ....|--- .... ....
....|..|G-6 2F.A ....|A#4 2F1A ....|D#4 3F.A ....
....|..|--- .... ....|--- .... ....|--- .... ....
....|..|B-8 JF.F ....|A#4 2F.F ....|--- .... ....
 A#3|..|A#4 2C.F ....|--- .... ....|--- .... ....
....|..|G-6 2F.A ....|A#4 2F1A ....|--- .... ....
....|..|--- .... ....|--- .... ....|--- .... ....
 G-4|..|G-6 2C.F ....|A#4 2F1F ....|D-4 3F.F ....
....|..|--- .... ....|--- .... ....|--- .... ....
....|..|B-8 JF.A ....|A#4 2F.A ....|--- .... ....
....|..|A#4 2F.A ....|--- .... ....|--- .... ....
 A-3|..|A-4 2C.F ....|A-4 2F.F ....|--- .... ....
....|..|--- .... ....|--- .... ....|--- .... ....
....|..|G-6 2F.A ....|A#4 2F1A ....|D-4 3F.A ....
....|..|--- .... ....|--- .... ....|--- .... ....
 A#3|..|A#4 2C.F ....|A#4 2F.F ....|--- .... ....
....|..|A#4 2F.7 ....|--- .... ....|--- .... ....
....|..|A-4 2F.A ....|A-4 2F.A ....|--- .... ....
....|..|--- .... ....|--- .... ....|--- .... ....
....|..|B-8 JF.F ....|A#4 2F1F ....|C-5 3F.F ....
 G-4|..|G-6 2C.F ....|--- .... ....|--- .... ....
....|..|A#4 2F.A ....|A#4 2F.A ....|--- .... ....
....|..|--- .... ....|--- .... ....|--- .... ....
 G-4|..|G-4 2C.F ....|G-4 2F.F ....|--- .... ....
....|..|--- .... ....|--- .... ....|--- .... ....
....|..|B-8 JF.A ....|A#4 2F1A ....|C-5 3F.A ....
....|..|G-6 2F.A ....|--- .... ....|--- .... ....
 G-4|..|G-6 2C.F ....|A#4 2F1F ....|--- .... ....
....|..|--- .... ....|--- .... ....|--- .... ....
....|..|G-4 2F.A ....|G-4 2F.A ....|--- .... ....
....|..|--- .... ....|--- .... ....|--- .... ....
 G-4|..|G-4 2C.F ....|G-4 2F.F ....|C-5 3F.7 ....
....|..|G-6 2F.7 ....|--- .... ....|--- .... ....
....|..|G-6 2F.A ....|A#4 2F1A ....|--- .... ....
....|..|--- .... ....|--- .... ....|--- .... ....
....|..|B-8 JF.F ....|A#4 2F.F ....|A-4 3F.F ....
 A#3|..|A#4 2C.F ....|--- .... ....|--- .... ....
....|..|G-4 2F.A ....|G-4 2F.A ....|--- .... ....
....|..|--- .... ....|--- .... ....|--- .... ....
 A#3|..|A#4 2C.F ....|A#4 2F17 ....|--- .... ....
....|..|--- .... ....|--- .... ....|--- .... ....
....|..|B-8 JF.A ....|A#4 2F.A ....|A-4 3F.A ....
....|..|A#4 2F.A ....|--- .... ....|--- .... ....
 A-3|..|A-4 2C.F ....|A-4 2F.F ....|D#5 3F.F ....
....|..|--- .... ....|--- .... ....|--- .... ....
....|..|A#4 2F.A ....|--- .... ....|--- .... ....
....|..|--- .... ....|--- .... ....|--- .... ....
 A#3|..|A#4 2C.F ....|A#4 2F.F ....|A-4 3F.7 ....
....|..|A#4 2F.7 ....|--- .... ....|--- .... ....
....|..|A-4 2F.A ....|A-4 2F.A ....|D#5 3F.A ....
....|..|--- .... ....|--- .... ....|--- .... ....
....|..|C-4 AF.F ....|R-- .... ....|D-5 3F.F ....
....|..|R-- .... ....|--- .... ....|--- .... ....
....|..|A#4 2F.A ....|A#4 2F.A ....|--- .... ....
....|..|--- .... ....|--- .... ....|--- .... ....
....|..|C-4 AF.F ....|A-4 2F.7 ....|D#5 3F.7 ....
 D-4|..|D-3 2C.F ....|--- .... ....|--- .... ....
....|..|C-4 AF.A ....|R-- .... ....|D-5 3F.A ....
....|..|R-- .... ....|--- .... ....|--- .... ....

[Pattern3]
 G-4|..|G-6 2C.F ....|A#4 2F1F ....|C#5 3F.F ....
....|..|--- .... ....|--- .... ....|--- .... ....
....|..|C-4 AF.A ....|--- .... ....|--- .... ....
....|..|D-3 2F.A ....|--- .... ....|--- .... ....
 G-4|..|G-6 2C.F ....|A#4 2F1F ....|D-5 3F.7 ....
....|..|R-- .... ....|--- .... ....|--- .... ....
....|..|G-6 2F.A ....|A#4 2F1A ....|C#5 3F.A ....
....|..|--- .... ....|--- .... ....|--- .... ....
....|..|B-8 JF.F ....|A#4 2F.F ....|--- .... ....
 A#3|..|A#4 2C.F ....|--- .... ....|--- .... ....
....|..|G-6 2F.A ....|A#4 2F1A ....|--- .... ....
....|..|--- .... ....|--- .... ....|--- .... ....
 G-4|..|G-6 2C.F ....|A#4 2F1F ....|D-5 3F.F ....
....|..|--- .... ....|--- .... ....|--- .... ....
....|..|B-8 JF.A ....|A#4 2F.A ....|--- .... ....
....|..|A#4 2F.A ....|--- .... ....|--- .... ....
 A-3|..|A-4 2C.F ....|A-4 2F.F ....|--- .... ....
....|..|--- .... ....|--- .... ....|--- .... ....
....|..|G-6 2F.A ....|A#4 2F1A ....|D-5 3F.A ....
....|..|--- .... ....|--- .... ....|--- .... ....
 A#3|..|A#4 2C.F ....|A#4 2F.F ....|--- .... ....
....|..|A#4 2F.7 ....|--- .... ....|--- .... ....
....|..|A-4 2F.A ....|A-4 2F.A ....|--- .... ....
....|..|--- .... ....|--- .... ....|--- .... ....
....|..|B-8 JF.F ....|A#4 2F1F ....|D-5 3F.7 ....
 G-4|..|G-6 2C.F ....|--- .... ....|--- .... ....
....|..|A#4 2F.A ....|A#4 2F.A ....|--- .... ....
....|..|--- .... ....|--- .... ....|--- .... ....
 G-4|..|G-4 2C.F ....|G-4 2F.F ....|--- .... ....
....|..|--- .... ....|--- .... ....|--- .... ....
....|..|B-8 JF.A ....|A#4 2F1A ....|--- .... ....
....|..|G-6 2F.A ....|--- .... ....|--- .... ....
 G-4|..|G-6 2C.F ....|A#4 2F1F ....|--- .... ....
....|..|--- .... ....|--- .... ....|--- .... ....
....|..|G-4 2F.A ....|G-4 2F.A ....|--- .... ....
....|..|--- .... ....|--- .... ....|--- .... ....
 G-4|..|G-4 2C.F ....|G-4 2F.F ....|--- .... ....
....|..|G-6 2F.7 ....|--- .... ....|--- .... ....
....|..|G-6 2F.A ....|A#4 2F1A ....|--- .... ....
....|..|--- .... ....|--- .... ....|--- .... ....
....|..|B-8 JF.F ....|A#4 2F.F ....|--- .... ....
 A#3|..|A#4 2C.F ....|--- .... ....|--- .... ....
....|..|G-4 2F.A ....|G-4 2F.A ....|--- .... ....
....|..|--- .... ....|--- .... ....|--- .... ....
 A#3|..|A#4 2C.F ....|A#4 2F17 ....|G-4 3F4F ....
....|..|--- .... ....|--- .... ....|--- .... ....
....|..|B-8 JF.A ....|A#4 2F.A ....|--- .... ....
....|..|A#4 2F.A ....|--- .... ....|--- .... ....
 A-3|..|A-4 2C.F ....|A-4 2F.F ....|A#4 3F4F ....
....|..|--- .... ....|--- .... ....|--- .... ....
....|..|A#4 2F.A ....|--- .... ....|G-4 3F4A ....
....|..|--- .... ....|--- .... ....|--- .... ....
 A#3|..|A#4 2C.F ....|A#4 2F.F ....|A-4 3F4F ....
....|..|A#4 2F.7 ....|--- .... ....|--- .... ....
....|..|A-4 2F.A ....|A-4 2F.A ....|A#4 3F4A ....
....|..|--- .... ....|--- .... ....|--- .... ....
....|..|C-4 AF.F ....|R-- .... ....|G#4 3F4F ....
....|..|R-- .... ....|--- .... ....|--- .... ....
....|..|A#4 2F.A ....|A#4 2F.A ....|A-4 3F4A ....
....|..|--- .... ....|--- .... ....|--- .... ....
....|..|C-4 AF.F ....|A-4 2F.7 ....|G-4 3F4F ....
 G-4|..|G-2 2A.F ....|--- .... ....|--- .... ....
....|..|C-4 AF.A ....|R-- .... ....|G#4 3F4A ....
....|..|R-- .... ....|--- .... ....|--- .... ....

[Pattern4]
 G-4|..|G-6 2C.F ....|A#4 2F1F ....|F#5 3F.F ....
....|..|--- .... ....|--- .... ....|--- .... ....
....|..|C-4 AF.A ....|--- .... ....|G-4 3F4A ....
....|..|G-2 2F.A ....|--- .... ....|--- .... ....
 G-4|..|G-6 2C.F ....|A#4 2F1F ....|G#4 3F47 ....
....|..|R-- .... ....|--- .... ....|--- .... ....
....|..|G-6 2F.A ....|A#4 2F1A ....|F#5 3F.A ....
....|..|--- .... ....|--- .... ....|--- .... ....
....|..|B-8 JF.F ....|A#4 2F.F ....|G-4 3F47 ....
 A#3|..|A#4 2C.F ....|--- .... ....|--- .... ....
....|..|G-6 2F.A ....|A#4 2F1A ....|--- .... ....
....|..|--- .... ....|--- .... ....|--- .... ....
 G-4|..|G-6 2C.F ....|A#4 2F1F ....|G-5 3F.F ....
....|..|--- .... ....|--- .... ....|--- .... ....
....|..|B-8 JF.A ....|A#4 2F.A ....|--- .... ....
....|..|A#4 2F.A ....|--- .... ....|--- .... ....
 A-3|..|A-4 2C.F ....|A-4 2F.F ....|--- .... ....
....|..|--- .... ....|--- .... ....|--- .... ....
....|..|G-6 2F.A ....|A#4 2F1A ....|G-5 3F.A ....
....|..|--- .... ....|--- .... ....|--- .... ....
 A#3|..|A#4 2C.F ....|A#4 2F.F ....|--- .... ....
....|..|A#4 2F.7 ....|--- .... ....|--- .... ....
....|..|A-4 2F.A ....|A-4 2F.A ....|--- .... ....
....|..|--- .... ....|--- .... ....|--- .... ....
....|..|B-8 JF.F ....|A#4 2F1F ....|D-5 3F.F ....
 G-4|..|G-6 2C.F ....|--- .... ....|--- .... ....
....|..|A#4 2F.A ....|A#4 2F.A ....|--- .... ....
....|..|--- .... ....|--- .... ....|--- .... ....
 G-4|..|G-4 2C.F ....|G-4 2F.F ....|--- .... ....
....|..|--- .... ....|--- .... ....|--- .... ....
....|..|B-8 JF.A ....|A#4 2F1A ....|D-5 3F.A ....
....|..|G-6 2F.A ....|--- .... ....|--- .... ....
 G-4|..|G-6 2C.F ....|A#4 2F1F ....|--- .... ....
....|..|--- .... ....|--- .... ....|--- .... ....
....|..|G-4 2F.A ....|G-4 2F.A ....|--- .... ....
....|..|--- .... ....|--- .... ....|--- .... ....
 G-4|..|G-4 2C.F ....|G-4 2F.F ....|D-5 3F.7 ....
....|..|G-6 2F.7 ....|--- .... ....|--- .... ....
....|..|G-6 2F.A ....|A#4 2F1A ....|--- .... ....
....|..|--- .... ....|--- .... ....|--- .... ....
....|..|B-8 JF.F ....|A#4 2F.F ....|D#5 3F.F ....
 A#3|..|A#4 2C.F ....|--- .... ....|--- .... ....
....|..|G-4 2F.A ....|G-4 2F.A ....|--- .... ....
....|..|--- .... ....|--- .... ....|--- .... ....
 A#3|..|A#4 2C.F ....|A#4 2F17 ....|--- .... ....
....|..|--- .... ....|--- .... ....|--- .... ....
....|..|B-8 JF.A ....|A#4 2F.A ....|D#5 3F.A ....
....|..|A#4 2F.A ....|--- .... ....|--- .... ....
 A-3|..|A-4 2C.F ....|A-4 2F.F ....|D-5 3F.F ....
....|..|--- .... ....|--- .... ....|--- .... ....
....|..|A#4 2F.A ....|--- .... ....|--- .... ....
....|..|--- .... ....|--- .... ....|--- .... ....
 A#3|..|A#4 2C.F ....|A#4 2F.F ....|D#5 3F.7 ....
....|..|A#4 2F.7 ....|--- .... ....|--- .... ....
....|..|A-4 2F.A ....|A-4 2F.A ....|D-5 3F.A ....
....|..|--- .... ....|--- .... ....|--- .... ....
....|..|C-4 AF.F ....|R-- .... ....|A#4 3F.F ....
....|..|R-- .... ....|--- .... ....|--- .... ....
....|..|A#4 2F.A ....|A#4 2F.A ....|--- .... ....
....|..|--- .... ....|--- .... ....|--- .... ....
....|..|C-4 AF.F ....|A-4 2F.7 ....|D-5 3F.7 ....
 G-4|..|G-2 2A.F ....|--- .... ....|--- .... ....
....|..|C-4 AF.A ....|R-- .... ....|A#4 3F.A ....
....|..|R-- .... ....|--- .... ....|--- .... ....

[Pattern5]
 G-4|..|G-6 2C.F ....|A#4 2F1F ....|A-4 3F.F ....
....|..|--- .... ....|--- .... ....|--- .... ....
....|..|C-4 AF.A ....|--- .... ....|--- .... ....
....|..|G-2 2F.A ....|--- .... ....|--- .... ....
 C-3|..|C-3 2C.F ....|A#4 2F1F ....|A#4 3F.7 ....
....|..|R-- .... ....|--- .... ....|--- .... ....
....|..|G-6 2F.A ....|A#4 2F1A ....|A-4 3F.A ....
....|..|--- .... ....|--- .... ....|--- .... ....
....|..|B-8 JF.F ....|A#4 2F.F ....|--- .... ....
....|..|G-2 2F.7 ....|--- .... ....|--- .... ....
....|..|C-3 2F.A ....|A#4 2F1A ....|--- .... ....
....|..|--- .... ....|--- .... ....|--- .... ....
 C-4|..|C-2 2A.F ....|A#4 2F1F ....|A#4 3F.F ....
....|..|--- .... ....|--- .... ....|--- .... ....
....|..|B-8 JF.A ....|A#4 2F.A ....|--- .... ....
....|..|R-- .... ....|--- .... ....|--- .... ....
 C-3|..|C-3 2C.F ....|A-4 2F.F ....|--- .... ....
....|..|--- .... ....|--- .... ....|--- .... ....
....|..|C-2 2F.A ....|A#4 2F1A ....|A#4 3F.A ....
....|..|--- .... ....|--- .... ....|--- .... ....
 C-4|..|C-2 2A.F ....|A#4 2F.F ....|--- .... ....
....|..|R-- .... ....|--- .... ....|--- .... ....
....|..|C-3 2F.A ....|A-4 2F.A ....|--- .... ....
....|..|--- .... ....|--- .... ....|--- .... ....
....|..|B-8 JF.F ....|A#4 2F1F ....|D-4 3F.F ....
....|..|R-- .... ....|--- .... ....|--- .... ....
....|..|C-2 2F.A ....|A#4 2F.A ....|--- .... ....
....|..|--- .... ....|--- .... ....|--- .... ....
 C-3|..|C-3 2C.F ....|G-4 2F.F ....|--- .... ....
....|..|--- .... ....|--- .... ....|--- .... ....
....|..|B-8 JF.A ....|A#4 2F1A ....|D-4 3F.A ....
....|..|R-- .... ....|--- .... ....|--- .... ....
 C-4|..|C-2 2A.F ....|A#4 2F1F ....|--- .... ....
....|..|--- .... ....|--- .... ....|--- .... ....
....|..|C-3 2F.A ....|G-4 2F.A ....|--- .... ....
....|..|--- .... ....|--- .... ....|--- .... ....
 C-3|..|C-3 2C.F ....|G-4 2F.F ....|D-4 3F.7 ....
....|..|R-- .... ....|--- .... ....|--- .... ....
....|..|C-2 2F.A ....|A#4 2F1A ....|--- .... ....
....|..|--- .... ....|--- .... ....|--- .... ....
....|..|B-8 JF.F ....|A#4 2F.F ....|--- .... ....
....|..|R-- .... ....|--- .... ....|--- .... ....
....|..|C-3 2F.A ....|G-4 2F.A ....|--- .... ....
....|..|--- .... ....|--- .... ....|--- .... ....
 C-4|..|C-2 2A.F ....|A#4 2F17 ....|--- .... ....
....|..|--- .... ....|--- .... ....|--- .... ....
....|..|B-8 JF.A ....|A#4 2F.A ....|--- .... ....
....|..|R-- .... ....|--- .... ....|--- .... ....
 C-3|..|C-3 2C.F ....|A-4 2F.F ....|--- .... ....
....|..|--- .... ....|--- .... ....|--- .... ....
....|..|C-2 2F.A ....|--- .... ....|--- .... ....
....|..|--- .... ....|--- .... ....|--- .... ....
 C-4|..|C-2 2A.F ....|A#4 2F.F ....|--- .... ....
....|..|R-- .... ....|--- .... ....|--- .... ....
....|..|C-3 2F.A ....|A-4 2F.A ....|--- .... ....
....|..|--- .... ....|--- .... ....|--- .... ....
....|..|C-4 AF.F ....|R-- .... ....|R-- .... ....
....|..|R-- .... ....|--- .... ....|--- .... ....
....|..|C-2 2F.A ....|A#4 2F.A ....|--- .... ....
....|..|--- .... ....|--- .... ....|--- .... ....
....|..|C-4 AF.F ....|A-4 2F.7 ....|--- .... ....
 C-3|..|C-3 2C.F ....|--- .... ....|--- .... ....
....|..|C-4 AF.A ....|R-- .... ....|R-- .... ....
....|..|R-- .... ....|--- .... ....|--- .... ....

[Pattern6]
 D-4|..|D-2 2A.F ....|A#4 2F1F ....|D#4 3F.F ....
....|..|--- .... ....|--- .... ....|--- .... ....
....|..|C-4 AF.A ....|--- .... ....|--- .... ....
....|..|C-3 2F.A ....|--- .... ....|--- .... ....
 D-4|..|D-3 2C.F ....|A#4 2F1F ....|R-- .... ....
....|..|R-- .... ....|--- .... ....|--- .... ....
....|..|D-2 2F.A ....|A#4 2F1A ....|D#4 3F.A ....
....|..|--- .... ....|--- .... ....|--- .... ....
....|..|B-8 JF.F ....|A#4 2F.F ....|--- .... ....
....|..|C-3 2F.7 ....|--- .... ....|--- .... ....
....|..|D-3 2F.A ....|A#4 2F1A ....|--- .... ....
....|..|--- .... ....|--- .... ....|--- .... ....
 D-4|..|D-2 2A.F ....|A#4 2F1F ....|D-4 3F.F ....
....|..|--- .... ....|--- .... ....|--- .... ....
....|..|B-8 JF.A ....|A#4 2F.A ....|--- .... ....
....|..|R-- .... ....|--- .... ....|--- .... ....
 D-4|..|D-3 2C.F ....|A-4 2F.F ....|--- .... ....
....|..|--- .... ....|--- .... ....|--- .... ....
....|..|D-2 2F.A ....|A#4 2F1A ....|D-4 3F.A ....
....|..|--- .... ....|--- .... ....|--- .... ....
 D-4|..|D-2 2A.F ....|A#4 2F.F ....|--- .... ....
....|..|R-- .... ....|--- .... ....|--- .... ....
....|..|D-3 2F.A ....|A-4 2F.A ....|--- .... ....
....|..|--- .... ....|--- .... ....|--- .... ....
....|..|B-8 JF.F ....|A#4 2F1F ....|C-5 3F.F ....
....|..|R-- .... ....|--- .... ....|--- .... ....
....|..|D-2 2F.A ....|A#4 2F.A ....|--- .... ....
....|..|--- .... ....|--- .... ....|--- .... ....
 D-4|..|D-3 2C.F ....|G-4 2F.F ....|--- .... ....
....|..|--- .... ....|--- .... ....|--- .... ....
....|..|B-8 JF.A ....|A#4 2F1A ....|C-5 3F.A ....
....|..|R-- .... ....|--- .... ....|--- .... ....
 D-4|..|D-2 2A.F ....|A#4 2F1F ....|--- .... ....
....|..|--- .... ....|--- .... ....|--- .... ....
....|..|D-3 2F.A ....|G-4 2F.A ....|--- .... ....
....|..|--- .... ....|--- .... ....|--- .... ....
 D-4|..|D-3 2C.F ....|G-4 2F.F ....|C-5 3F.7 ....
....|..|R-- .... ....|--- .... ....|--- .... ....
....|..|D-2 2F.A ....|A#4 2F1A ....|--- .... ....
....|..|--- .... ....|--- .... ....|--- .... ....
....|..|B-8 JF.F ....|A#4 2F.F ....|A-4 3F.F ....
....|..|R-- .... ....|--- .... ....|--- .... ....
....|..|D-3 2F.A ....|G-4 2F.A ....|--- .... ....
....|..|--- .... ....|--- .... ....|--- .... ....
 D-4|..|D-2 2A.F ....|A#4 2F17 ....|--- .... ....
....|..|--- .... ....|--- .... ....|--- .... ....
....|..|B-8 JF.A ....|A#4 2F.A ....|A-4 3F.A ....
....|..|R-- .... ....|--- .... ....|--- .... ....
 D-4|..|D-3 2C.F ....|A-4 2F.F ....|D#5 3F.F ....
....|..|--- .... ....|--- .... ....|--- .... ....
....|..|D-2 2F.A ....|--- .... ....|--- .... ....
....|..|--- .... ....|--- .... ....|--- .... ....
 D-4|..|D-2 2A.F ....|A#4 2F.F ....|A-4 3F.7 ....
....|..|R-- .... ....|--- .... ....|--- .... ....
....|..|D-3 2F.A ....|A-4 2F.A ....|D#5 3F.A ....
....|..|--- .... ....|--- .... ....|--- .... ....
....|..|C-4 AF.F ....|R-- .... ....|D-5 3F.F ....
....|..|R-- .... ....|--- .... ....|--- .... ....
....|..|D-2 2F.A ....|A#4 2F.A ....|--- .... ....
....|..|--- .... ....|--- .... ....|--- .... ....
....|..|C-4 AF.F ....|A-4 2F.7 ....|D#5 3F.7 ....
 D-4|..|D-3 2C.F ....|--- .... ....|--- .... ....
....|..|C-4 AF.A ....|R-- .... ....|D-5 3F.A ....
....|..|R-- .... ....|--- .... ....|--- .... ....

[Pattern7]
 G-3|..|G-1 2A.F ....|A#4 2F1F ....|A-4 3F.F ....
....|..|--- .... ....|--- .... ....|--- .... ....
....|..|C-4 AF.A ....|--- .... ....|--- .... ....
....|..|D-3 2F.A ....|--- .... ....|--- .... ....
 G-4|..|G-2 2A.F ....|A#4 2F1F ....|D-5 3F.7 ....
....|..|R-- .... ....|--- .... ....|--- .... ....
....|..|G-1 2F.A ....|A#4 2F1A ....|A-4 3F.A ....
....|..|--- .... ....|--- .... ....|--- .... ....
....|..|B-8 JF.F ....|A#4 2F.F ....|--- .... ....
....|..|D-3 2F.7 ....|--- .... ....|--- .... ....
....|..|G-2 2F.A ....|A#4 2F1A ....|--- .... ....
....|..|--- .... ....|--- .... ....|--- .... ....
 G-3|..|G-1 2A.F ....|A#4 2F1F ....|A#4 3F.F ....
....|..|--- .... ....|--- .... ....|--- .... ....
....|..|B-8 JF.A ....|A#4 2F.A ....|--- .... ....
....|..|R-- .... ....|--- .... ....|--- .... ....
 G-4|..|G-2 2A.F ....|A-4 2F.F ....|--- .... ....
....|..|--- .... ....|--- .... ....|--- .... ....
....|..|G-1 2F.A ....|A#4 2F1A ....|A#4 3F.A ....
....|..|--- .... ....|--- .... ....|--- .... ....
 G-3|..|G-1 2A.F ....|A#4 2F.F ....|--- .... ....
....|..|R-- .... ....|--- .... ....|--- .... ....
....|..|G-2 2F.A ....|A-4 2F.A ....|--- .... ....
....|..|--- .... ....|--- .... ....|--- .... ....
....|..|B-8 JF.F ....|A#4 2F1F ....|G-4 3F.F ....
....|..|R-- .... ....|--- .... ....|--- .... ....
....|..|G-1 2F.A ....|A#4 2F.A ....|--- .... ....
....|..|--- .... ....|--- .... ....|--- .... ....
 G-4|..|G-2 2A.F ....|G-4 2F.F ....|--- .... ....
....|..|--- .... ....|--- .... ....|--- .... ....
....|..|B-8 JF.A ....|A#4 2F1A ....|G-4 3F.A ....
....|..|R-- .... ....|--- .... ....|--- .... ....
 G-3|..|G-1 2A.F ....|A#4 2F1F ....|--- .... ....
....|..|--- .... ....|--- .... ....|--- .... ....
....|..|G-2 2F.A ....|G-4 2F.A ....|--- .... ....
....|..|--- .... ....|--- .... ....|--- .... ....
 G-4|..|G-2 2A.F ....|G-4 2F.F ....|G-4 3F.7 ....
....|..|R-- .... ....|--- .... ....|--- .... ....
....|..|G-1 2F.A ....|A#4 2F1A ....|--- .... ....
....|..|--- .... ....|--- .... ....|--- .... ....
....|..|B-8 JF.F ....|A#4 2F.F ....|--- .... ....
....|..|R-- .... ....|--- .... ....|--- .... ....
....|..|G-2 2F.A ....|G-4 2F.A ....|--- .... ....
....|..|--- .... ....|--- .... ....|--- .... ....
 G-3|..|G-1 2A.F ....|A#4 2F17 ....|--- .... ....
....|..|--- .... ....|--- .... ....|--- .... ....
....|..|B-8 JF.A ....|A#4 2F.A ....|--- .... ....
....|..|R-- .... ....|--- .... ....|--- .... ....
 G-4|..|G-2 2A.F ....|A-4 2F.F ....|--- .... ....
....|..|--- .... ....|--- .... ....|--- .... ....
....|..|G-1 2F.A ....|--- .... ....|--- .... ....
....|..|--- .... ....|--- .... ....|--- .... ....
 G-3|..|G-1 2A.F ....|A#4 2F.F ....|--- .... ....
....|..|R-- .... ....|--- .... ....|--- .... ....
....|..|G-2 2F.A ....|A-4 2F.A ....|--- .... ....
....|..|--- .... ....|--- .... ....|--- .... ....
....|..|C-4 AF.F ....|R-- .... ....|R-- .... ....
....|..|R-- .... ....|--- .... ....|--- .... ....
....|..|G-1 2F.A ....|A#4 2F.A ....|--- .... ....
....|..|--- .... ....|--- .... ....|--- .... ....
....|..|C-4 AF.F ....|A-4 2F.7 ....|--- .... ....
 G-4|..|G-2 2A.F ....|--- .... ....|--- .... ....
....|..|C-4 AF.A ....|R-- .... ....|R-- .... ....
....|..|R-- .... ....|--- .... ....|--- .... ....

[Pattern8]
 G-3|..|G-1 2A.F ....|A#3 2F.F ....|D-4 3F.F ....
....|..|--- .... ....|--- .... ....|--- .... ....
....|..|C-4 AF.A ....|--- .... ....|--- .... ....
....|..|G-2 2F.A ....|--- .... ....|--- .... ....
 G-4|..|G-2 2A.F ....|R-- .... ....|R-- .... ....
....|..|R-- .... ....|--- .... ....|--- .... ....
....|..|G-1 2F.A ....|A#3 2F.A ....|D-4 3F.A ....
....|..|--- .... ....|--- .... ....|--- .... ....
....|..|B-8 JF.F ....|A#4 2F1F ....|--- .... ....
....|..|G-2 2F.7 ....|--- .... ....|--- .... ....
....|..|G-2 2F.A ....|--- .... ....|--- .... ....
....|..|--- .... ....|--- .... ....|--- .... ....
 G-3|..|G-1 2A.F ....|G-4 2F.F ....|A#4 3F.F ....
....|..|--- .... ....|--- .... ....|--- .... ....
....|..|B-8 JF.A ....|A#4 2F1A ....|--- .... ....
....|..|R-- .... ....|--- .... ....|--- .... ....
 G-4|..|G-2 2A.F ....|A#4 2F1F ....|--- .... ....
....|..|--- .... ....|--- .... ....|--- .... ....
....|..|G-1 2F.A ....|G-4 2F.A ....|A#4 3F.A ....
....|..|--- .... ....|--- .... ....|--- .... ....
 G-3|..|G-1 2A.F ....|A#4 2F1F ....|--- .... ....
....|..|R-- .... ....|--- .... ....|--- .... ....
....|..|G-2 2F.A ....|A#4 2F1A ....|--- .... ....
....|..|--- .... ....|--- .... ....|--- .... ....
....|..|B-8 JF.F ....|A#3 2F.F ....|D-4 3F.F ....
....|..|R-- .... ....|--- .... ....|--- .... ....
....|..|G-1 2F.A ....|A#4 2F1A ....|--- .... ....
....|..|--- .... ....|--- .... ....|--- .... ....
 G-4|..|G-2 2A.F ....|A#4 2F17 ....|--- .... ....
....|..|--- .... ....|--- .... ....|--- .... ....
....|..|B-8 JF.A ....|A#3 2F.A ....|D-4 3F.A ....
....|..|R-- .... ....|--- .... ....|--- .... ....
 C-4|..|C-2 2A.F ....|C-4 2F.F ....|D#4 3F.F ....
....|..|--- .... ....|--- .... ....|--- .... ....
....|..|G-2 2F.A ....|--- .... ....|--- .... ....
....|..|--- .... ....|--- .... ....|--- .... ....
 C-3|..|C-3 2C.F ....|A#3 2F.7 ....|D-4 3F.7 ....
....|..|R-- .... ....|--- .... ....|--- .... ....
....|..|C-2 2F.A ....|C-4 2F.A ....|D#4 3F.A ....
....|..|--- .... ....|--- .... ....|--- .... ....
....|..|B-8 JF.F ....|A#4 2F1F ....|--- .... ....
....|..|R-- .... ....|--- .... ....|--- .... ....
....|..|C-3 2F.A ....|--- .... ....|--- .... ....
....|..|--- .... ....|--- .... ....|--- .... ....
 C-4|..|C-2 2A.F ....|C-4 2F.F ....|D#4 3F.7 ....
....|..|--- .... ....|--- .... ....|--- .... ....
....|..|B-8 JF.A ....|A#4 2F1A ....|--- .... ....
....|..|R-- .... ....|--- .... ....|--- .... ....
 C-3|..|C-3 2C.F ....|A#4 2F1F ....|--- .... ....
....|..|--- .... ....|--- .... ....|--- .... ....
....|..|C-2 2F.A ....|C-4 2F.A ....|--- .... ....
....|..|--- .... ....|--- .... ....|--- .... ....
 C-4|..|C-2 2A.F ....|A#4 2F1F ....|--- .... ....
....|..|R-- .... ....|--- .... ....|--- .... ....
....|..|C-3 2F.A ....|A#4 2F1A ....|--- .... ....
....|..|--- .... ....|--- .... ....|--- .... ....
....|..|C-4 AF.F ....|C-4 2F.F ....|--- .... ....
....|..|R-- .... ....|--- .... ....|--- .... ....
....|..|C-2 2F.A ....|A#4 2F1A ....|--- .... ....
....|..|--- .... ....|--- .... ....|--- .... ....
....|..|C-4 AF.F ....|A#4 2F17 ....|--- .... ....
 C-3|..|C-3 2C.F ....|--- .... ....|--- .... ....
....|..|C-4 AF.A ....|C-4 2F.A ....|--- .... ....
....|..|R-- .... ....|--- .... ....|--- .... ....

[Pattern9]
 C-4|..|C-2 2A.F ....|C-4 2F.F ....|D#4 3F.F ....
....|..|--- .... ....|--- .... ....|--- .... ....
....|..|C-4 AF.A ....|--- .... ....|--- .... ....
....|..|C-3 2F.A ....|--- .... ....|--- .... ....
 C-3|..|C-3 2C.F ....|C-4 2F.7 ....|--- .... ....
....|..|R-- .... ....|--- .... ....|--- .... ....
....|..|C-2 2F.A ....|C-4 2F.A ....|D#4 3F.A ....
....|..|--- .... ....|--- .... ....|--- .... ....
....|..|B-8 JF.F ....|A#4 2F1F ....|--- .... ....
....|..|C-3 2F.7 ....|--- .... ....|--- .... ....
....|..|C-3 2F.A ....|--- .... ....|--- .... ....
....|..|--- .... ....|--- .... ....|--- .... ....
 C-4|..|C-2 2A.F ....|A-4 2F.F ....|C-5 3F.F ....
....|..|--- .... ....|--- .... ....|--- .... ....
....|..|B-8 JF.A ....|A#4 2F1A ....|--- .... ....
....|..|R-- .... ....|--- .... ....|--- .... ....
 C-3|..|C-3 2C.F ....|A#4 2F1F ....|--- .... ....
....|..|--- .... ....|--- .... ....|--- .... ....
....|..|C-2 2F.A ....|A-4 2F.A ....|C-5 3F.A ....
....|..|--- .... ....|--- .... ....|--- .... ....
 C-4|..|C-2 2A.F ....|A#4 2F1F ....|--- .... ....
....|..|R-- .... ....|--- .... ....|--- .... ....
....|..|C-3 2F.A ....|A#4 2F1A ....|--- .... ....
....|..|--- .... ....|--- .... ....|--- .... ....
....|..|B-8 JF.F ....|F#4 2F.F ....|A-4 3F.F ....
....|..|R-- .... ....|--- .... ....|--- .... ....
....|..|C-2 2F.A ....|A#4 2F1A ....|--- .... ....
....|..|--- .... ....|--- .... ....|--- .... ....
 C-3|..|C-3 2C.F ....|A#4 2F17 ....|--- .... ....
....|..|--- .... ....|--- .... ....|--- .... ....
....|..|B-8 JF.A ....|F#4 2F.A ....|A-4 3F.A ....
....|..|R-- .... ....|--- .... ....|--- .... ....
 G-3|..|G-1 2A.F ....|G-4 2F.F ....|A#4 3F.F ....
....|..|--- .... ....|--- .... ....|--- .... ....
....|..|C-3 2F.A ....|--- .... ....|--- .... ....
....|..|--- .... ....|--- .... ....|--- .... ....
 G-4|..|G-2 2A.F ....|F#4 2F.7 ....|A-4 3F.7 ....
....|..|R-- .... ....|--- .... ....|--- .... ....
....|..|G-1 2F.A ....|G-4 2F.A ....|A#4 3F.A ....
....|..|--- .... ....|--- .... ....|--- .... ....
....|..|B-8 JF.F ....|A#4 2F1F ....|--- .... ....
....|..|R-- .... ....|--- .... ....|--- .... ....
....|..|G-2 2F.A ....|--- .... ....|--- .... ....
....|..|--- .... ....|--- .... ....|--- .... ....
 G-3|..|G-1 2A.F ....|G-4 2F.F ....|A#4 3F.7 ....
....|..|--- .... ....|--- .... ....|--- .... ....
....|..|B-8 JF.A ....|A#4 2F1A ....|--- .... ....
....|..|R-- .... ....|--- .... ....|--- .... ....
 G-4|..|G-2 2A.F ....|A#4 2F1F ....|--- .... ....
....|..|--- .... ....|--- .... ....|--- .... ....
....|..|G-1 2F.A ....|G-4 2F.A ....|--- .... ....
....|..|--- .... ....|--- .... ....|--- .... ....
 G-3|..|G-1 2A.F ....|A#4 2F1F ....|--- .... ....
....|..|R-- .... ....|--- .... ....|--- .... ....
....|..|G-2 2F.A ....|A#4 2F1A ....|--- .... ....
....|..|--- .... ....|--- .... ....|--- .... ....
....|..|C-4 AF.F ....|G-4 2F.F ....|--- .... ....
....|..|R-- .... ....|--- .... ....|--- .... ....
....|..|G-1 2F.A ....|A#4 2F1A ....|--- .... ....
....|..|--- .... ....|--- .... ....|--- .... ....
....|..|C-4 AF.F ....|A#4 2F17 ....|--- .... ....
 G-4|..|G-2 2A.F ....|--- .... ....|--- .... ....
....|..|C-4 AF.A ....|G-4 2F.A ....|--- .... ....
....|..|R-- .... ....|--- .... ....|--- .... ....

[Pattern10]
 G-3|..|G-1 2A.F ....|B-4 2F.F ....|G-4 3F.F ....
....|..|--- .... ....|--- .... ....|--- .... ....
....|..|C-4 AF.A ....|--- .... ....|--- .... ....
....|..|G-2 2F.A ....|--- .... ....|--- .... ....
 G-4|..|G-2 2A.F ....|G-4 2F.7 ....|--- .... ....
....|..|R-- .... ....|--- .... ....|--- .... ....
....|..|G-1 2F.A ....|B-4 2F.A ....|G-4 3F.A ....
....|..|--- .... ....|--- .... ....|--- .... ....
....|..|B-8 JF.F ....|A#4 2F1F ....|--- .... ....
....|..|G-2 2F.7 ....|--- .... ....|--- .... ....
....|..|G-2 2F.A ....|--- .... ....|--- .... ....
....|..|--- .... ....|--- .... ....|--- .... ....
 G-3|..|G-1 2A.F ....|D-5 2F.F ....|F-5 3F.F ....
....|..|--- .... ....|--- .... ....|--- .... ....
....|..|B-8 JF.A ....|A#4 2F1A ....|--- .... ....
....|..|R-- .... ....|--- .... ....|--- .... ....
 G-4|..|G-2 2A.F ....|A#4 2F1F ....|--- .... ....
....|..|--- .... ....|--- .... ....|--- .... ....
....|..|G-1 2F.A ....|D-5 2F.A ....|F-5 3F.A ....
....|..|--- .... ....|--- .... ....|--- .... ....
 G-3|..|G-1 2A.F ....|A#4 2F1F ....|--- .... ....
....|..|R-- .... ....|--- .... ....|--- .... ....
....|..|G-2 2F.A ....|A#4 2F1A ....|--- .... ....
....|..|--- .... ....|--- .... ....|--- .... ....
....|..|B-8 JF.F ....|B-4 2F.F ....|D-5 3F.F ....
....|..|R-- .... ....|--- .... ....|--- .... ....
....|..|G-1 2F.A ....|A#4 2F1A ....|--- .... ....
....|..|--- .... ....|--- .... ....|--- .... ....
 G-4|..|G-2 2A.F ....|A#4 2F17 ....|--- .... ....
....|..|--- .... ....|--- .... ....|--- .... ....
....|..|B-8 JF.A ....|B-4 2F.A ....|D-5 3F.A ....
....|..|R-- .... ....|--- .... ....|--- .... ....
 C-4|..|C-2 2A.F ....|C-5 2F.F ....|D#5 3F.F ....
....|..|--- .... ....|--- .... ....|--- .... ....
....|..|G-2 2F.A ....|--- .... ....|--- .... ....
....|..|--- .... ....|--- .... ....|--- .... ....
 C-3|..|C-3 2C.F ....|B-4 2F.7 ....|D-5 3F.7 ....
....|..|R-- .... ....|--- .... ....|--- .... ....
....|..|C-2 2F.A ....|C-5 2F.A ....|D#5 3F.A ....
....|..|--- .... ....|--- .... ....|--- .... ....
....|..|B-8 JF.F ....|A#4 2F1F ....|--- .... ....
....|..|R-- .... ....|--- .... ....|--- .... ....
....|..|C-3 2F.A ....|--- .... ....|--- .... ....
....|..|--- .... ....|--- .... ....|--- .... ....
 C-4|..|C-2 2A.F ....|C-5 2F.F ....|D#5 3F.7 ....
....|..|--- .... ....|--- .... ....|--- .... ....
....|..|B-8 JF.A ....|A#4 2F1A ....|--- .... ....
....|..|R-- .... ....|--- .... ....|--- .... ....
 C-3|..|C-3 2C.F ....|A#4 2F1F ....|--- .... ....
....|..|--- .... ....|--- .... ....|--- .... ....
....|..|C-2 2F.A ....|C-5 2F.A ....|--- .... ....
....|..|--- .... ....|--- .... ....|--- .... ....
 C-4|..|C-2 2A.F ....|A#4 2F1F ....|--- .... ....
....|..|R-- .... ....|--- .... ....|--- .... ....
....|..|C-3 2F.A ....|A#4 2F1A ....|--- .... ....
....|..|--- .... ....|--- .... ....|--- .... ....
....|..|C-4 AF.F ....|C-5 2F.F ....|--- .... ....
....|..|R-- .... ....|--- .... ....|--- .... ....
....|..|C-2 2F.A ....|A#4 2F1A ....|--- .... ....
....|..|--- .... ....|--- .... ....|--- .... ....
....|..|C-4 AF.F ....|A#4 2F17 ....|--- .... ....
 C-3|..|C-3 2C.F ....|--- .... ....|--- .... ....
....|..|C-4 AF.A ....|C-5 2F.A ....|--- .... ....
....|..|R-- .... ....|--- .... ....|--- .... ....

[Pattern11]
 D-4|..|D-2 2A.F ....|D-4 2F.F ....|F#4 3F.F ....
....|..|--- .... ....|--- .... ....|--- .... ....
....|..|C-4 AF.A ....|--- .... ....|--- .... ....
....|..|C-3 2F.A ....|--- .... ....|--- .... ....
 D-4|..|D-3 2C.F ....|C-5 2F.7 ....|--- .... ....
....|..|R-- .... ....|--- .... ....|--- .... ....
....|..|D-2 2F.A ....|D-4 2F.A ....|F#4 3F.A ....
....|..|--- .... ....|--- .... ....|--- .... ....
....|..|B-8 JF.F ....|A#4 2F1F ....|--- .... ....
....|..|C-3 2F.7 ....|--- .... ....|--- .... ....
....|..|D-3 2F.A ....|--- .... ....|--- .... ....
....|..|--- .... ....|--- .... ....|--- .... ....
 D-4|..|D-2 2A.F ....|A-4 2F.F ....|C-5 3F.F ....
....|..|--- .... ....|--- .... ....|--- .... ....
....|..|B-8 JF.A ....|A#4 2F1A ....|--- .... ....
....|..|R-- .... ....|--- .... ....|--- .... ....
 D-4|..|D-3 2C.F ....|A#4 2F1F ....|--- .... ....
....|..|--- .... ....|--- .... ....|--- .... ....
....|..|D-2 2F.A ....|A-4 2F.A ....|C-5 3F.A ....
....|..|--- .... ....|--- .... ....|--- .... ....
 D-4|..|D-2 2A.F ....|A#4 2F1F ....|--- .... ....
....|..|R-- .... ....|--- .... ....|--- .... ....
....|..|D-3 2F.A ....|A#4 2F1A ....|--- .... ....
....|..|--- .... ....|--- .... ....|--- .... ....
....|..|B-8 JF.F ....|F#4 2F.F ....|A-4 3F.F ....
....|..|R-- .... ....|--- .... ....|--- .... ....
....|..|D-2 2F.A ....|A#4 2F1A ....|--- .... ....
....|..|--- .... ....|--- .... ....|--- .... ....
 D-4|..|D-3 2C.F ....|A#4 2F17 ....|--- .... ....
....|..|--- .... ....|--- .... ....|--- .... ....
....|..|B-8 JF.A ....|F#4 2F.A ....|A-4 3F.A ....
....|..|R-- .... ....|--- .... ....|--- .... ....
 G-3|..|G-1 2A.F ....|D-4 2F.F ....|G-4 3F.F ....
....|..|--- .... ....|--- .... ....|--- .... ....
....|..|D-3 2F.A ....|--- .... ....|--- .... ....
....|..|--- .... ....|--- .... ....|--- .... ....
 G-4|..|G-2 2A.F ....|F#4 2F.7 ....|A-4 3F.7 ....
....|..|R-- .... ....|--- .... ....|--- .... ....
....|..|G-1 2F.A ....|D-4 2F.A ....|G-4 3F.A ....
....|..|--- .... ....|--- .... ....|--- .... ....
....|..|B-8 JF.F ....|A#4 2F1F ....|--- .... ....
....|..|R-- .... ....|--- .... ....|--- .... ....
....|..|G-2 2F.A ....|--- .... ....|--- .... ....
....|..|--- .... ....|--- .... ....|--- .... ....
 G-3|..|G-1 2A.F ....|D-4 2F.F ....|G-4 3F.7 ....
....|..|--- .... ....|--- .... ....|--- .... ....
....|..|B-8 JF.A ....|A#4 2F1A ....|--- .... ....
....|..|R-- .... ....|--- .... ....|--- .... ....
 G-4|..|G-2 2A.F ....|A#4 2F1F ....|--- .... ....
....|..|--- .... ....|--- .... ....|--- .... ....
....|..|G-1 2F.A ....|D-4 2F.A ....|--- .... ....
....|..|--- .... ....|--- .... ....|--- .... ....
 G-3|..|G-1 2A.F ....|A#4 2F1F ....|--- .... ....
....|..|R-- .... ....|--- .... ....|--- .... ....
....|..|G-2 2F.A ....|A#4 2F1A ....|--- .... ....
....|..|--- .... ....|--- .... ....|--- .... ....
....|..|C-4 AF.F ....|D-4 2F.F ....|--- .... ....
....|..|R-- .... ....|--- .... ....|--- .... ....
....|..|G-1 2F.A ....|A#4 2F1A ....|--- .... ....
....|..|--- .... ....|--- .... ....|--- .... ....
....|..|C-4 AF.F ....|A#4 2F17 ....|--- .... ....
 G-4|..|G-2 2A.F ....|--- .... ....|--- .... ....
....|..|C-4 AF.A ....|D-4 2F.A ....|--- .... ....
....|..|R-- .... ....|--- .... ....|--- .... ....

[Pattern12]
 G-3|..|G-1 2A.F ....|A#4 2F1F ....|F#5 3F.F ....
....|..|--- .... ....|--- .... ....|--- .... ....
....|..|C-4 AF.A ....|--- .... ....|--- .... ....
....|..|G-2 2F.A ....|--- .... ....|--- .... ....
 G-4|..|G-2 2A.F ....|A#4 2F1F ....|--- .... ....
....|..|R-- .... ....|--- .... ....|--- .... ....
....|..|G-1 2F.A ....|A#4 2F1A ....|F#5 3F.A ....
....|..|--- .... ....|--- .... ....|--- .... ....
....|..|B-8 JF.F ....|A#4 2F.F ....|--- .... ....
....|..|G-2 2F.7 ....|--- .... ....|--- .... ....
....|..|G-2 2F.A ....|A#4 2F1A ....|--- .... ....
....|..|--- .... ....|--- .... ....|--- .... ....
 G-3|..|G-1 2A.F ....|A#4 2F1F ....|G-5 3F.F ....
....|..|--- .... ....|--- .... ....|--- .... ....
....|..|B-8 JF.A ....|A#4 2F.A ....|--- .... ....
....|..|R-- .... ....|--- .... ....|--- .... ....
 G-4|..|G-2 2A.F ....|A-4 2F.F ....|--- .... ....
....|..|--- .... ....|--- .... ....|--- .... ....
....|..|G-1 2F.A ....|A#4 2F1A ....|G-5 3F.A ....
....|..|--- .... ....|--- .... ....|--- .... ....
 G-3|..|G-1 2A.F ....|A#4 2F.F ....|--- .... ....
....|..|R-- .... ....|--- .... ....|--- .... ....
....|..|G-2 2F.A ....|A-4 2F.A ....|--- .... ....
....|..|--- .... ....|--- .... ....|--- .... ....
....|..|B-8 JF.F ....|A#4 2F1F ....|D-5 3F.F ....
....|..|R-- .... ....|--- .... ....|--- .... ....
....|..|G-1 2F.A ....|A#4 2F.A ....|--- .... ....
....|..|--- .... ....|--- .... ....|--- .... ....
 G-4|..|G-2 2A.F ....|G-4 2F.F ....|--- .... ....
....|..|--- .... ....|--- .... ....|--- .... ....
....|..|B-8 JF.A ....|A#4 2F1A ....|D-5 3F.A ....
....|..|R-- .... ....|--- .... ....|--- .... ....
 G-3|..|G-1 2A.F ....|A#4 2F1F ....|--- .... ....
....|..|--- .... ....|--- .... ....|--- .... ....
....|..|G-2 2F.A ....|G-4 2F.A ....|--- .... ....
....|..|--- .... ....|--- .... ....|--- .... ....
 G-4|..|G-2 2A.F ....|G-4 2F.F ....|D-5 3F.7 ....
....|..|R-- .... ....|--- .... ....|--- .... ....
....|..|G-1 2F.A ....|A#4 2F1A ....|--- .... ....
....|..|--- .... ....|--- .... ....|--- .... ....
....|..|B-8 JF.F ....|A#4 2F.F ....|D#5 3F.F ....
....|..|R-- .... ....|--- .... ....|--- .... ....
....|..|G-2 2F.A ....|G-4 2F.A ....|--- .... ....
....|..|--- .... ....|--- .... ....|--- .... ....
 G-3|..|G-1 2A.F ....|A#4 2F17 ....|--- .... ....
....|..|--- .... ....|--- .... ....|--- .... ....
....|..|B-8 JF.A ....|A#4 2F.A ....|D#5 3F.A ....
....|..|R-- .... ....|--- .... ....|--- .... ....
 G-4|..|G-2 2A.F ....|A-4 2F.F ....|D-5 3F.F ....
....|..|--- .... ....|--- .... ....|--- .... ....
....|..|G-1 2F.A ....|--- .... ....|--- .... ....
....|..|--- .... ....|--- .... ....|--- .... ....
 G-3|..|G-1 2A.F ....|A#4 2F.F ....|D#5 3F.7 ....
....|..|R-- .... ....|--- .... ....|--- .... ....
....|..|G-2 2F.A ....|A-4 2F.A ....|D-5 3F.A ....
....|..|--- .... ....|--- .... ....|--- .... ....
....|..|C-4 AF.F ....|R-- .... ....|A#4 3F.F ....
....|..|R-- .... ....|--- .... ....|--- .... ....
....|..|G-1 2F.A ....|A#4 2F.A ....|--- .... ....
....|..|--- .... ....|--- .... ....|--- .... ....
....|..|C-4 AF.F ....|A-4 2F.7 ....|D-5 3F.7 ....
 G-4|..|G-2 2A.F ....|--- .... ....|--- .... ....
....|..|C-4 AF.A ....|R-- .... ....|A#4 3F.A ....
....|..|R-- .... ....|--- .... ....|--- .... ....

[Pattern13]
 C-4|..|C-2 2A.F ....|A#4 2F1F ....|A-4 3F.F ....
....|..|--- .... ....|--- .... ....|--- .... ....
....|..|C-4 AF.A ....|--- .... ....|--- .... ....
....|..|G-2 2F.A ....|--- .... ....|--- .... ....
 C-3|..|C-3 2C.F ....|A#4 2F1F ....|A#4 3F.7 ....
....|..|R-- .... ....|--- .... ....|--- .... ....
....|..|C-2 2F.A ....|A#4 2F1A ....|A-4 3F.A ....
....|..|--- .... ....|--- .... ....|--- .... ....
....|..|B-8 JF.F ....|A#4 2F.F ....|--- .... ....
....|..|G-2 2F.7 ....|--- .... ....|--- .... ....
....|..|C-3 2F.A ....|A#4 2F1A ....|--- .... ....
....|..|--- .... ....|--- .... ....|--- .... ....
 C-4|..|C-2 2A.F ....|A#4 2F1F ....|A#4 3F.F ....
....|..|--- .... ....|--- .... ....|--- .... ....
....|..|B-8 JF.A ....|A#4 2F.A ....|--- .... ....
....|..|R-- .... ....|--- .... ....|--- .... ....
 C-3|..|C-3 2C.F ....|A-4 2F.F ....|--- .... ....
....|..|--- .... ....|--- .... ....|--- .... ....
....|..|C-2 2F.A ....|A#4 2F1A ....|A#4 3F.A ....
....|..|--- .... ....|--- .... ....|--- .... ....
 C-4|..|C-2 2A.F ....|A#4 2F.F ....|--- .... ....
....|..|R-- .... ....|--- .... ....|--- .... ....
....|..|C-3 2F.A ....|A-4 2F.A ....|--- .... ....
....|..|--- .... ....|--- .... ....|--- .... ....
....|..|B-8 JF.F ....|A#4 2F1F ....|D-4 3F.F ....
....|..|R-- .... ....|--- .... ....|--- .... ....
....|..|C-2 2F.A ....|A#4 2F.A ....|--- .... ....
....|..|--- .... ....|--- .... ....|--- .... ....
 C-3|..|C-3 2C.F ....|G-4 2F.F ....|--- .... ....
....|..|--- .... ....|--- .... ....|--- .... ....
....|..|B-8 JF.A ....|A#4 2F1A ....|D-4 3F.A ....
....|..|R-- .... ....|--- .... ....|--- .... ....
 C-4|..|C-2 2A.F ....|A#4 2F1F ....|--- .... ....
....|..|--- .... ....|--- .... ....|--- .... ....
....|..|C-3 2F.A ....|G-4 2F.A ....|--- .... ....
....|..|--- .... ....|--- .... ....|--- .... ....
 C-3|..|C-3 2C.F ....|G-4 2F.F ....|D-4 3F.7 ....
....|..|R-- .... ....|--- .... ....|--- .... ....
....|..|C-2 2F.A ....|A#4 2F1A ....|--- .... ....
....|..|--- .... ....|--- .... ....|--- .... ....
....|..|B-8 JF.F ....|A#4 2F.F ....|--- .... ....
....|..|R-- .... ....|--- .... ....|--- .... ....
....|..|C-3 2F.A ....|G-4 2F.A ....|--- .... ....
....|..|--- .... ....|--- .... ....|--- .... ....
 C-4|..|C-2 2A.F ....|A#4 2F17 ....|--- .... ....
....|..|--- .... ....|--- .... ....|--- .... ....
....|..|B-8 JF.A ....|A#4 2F.A ....|--- .... ....
....|..|R-- .... ....|--- .... ....|--- .... ....
 C-3|..|C-3 2C.F ....|A-4 2F.F ....|--- .... ....
....|..|--- .... ....|--- .... ....|--- .... ....
....|..|C-2 2F.A ....|--- .... ....|--- .... ....
....|..|--- .... ....|--- .... ....|--- .... ....
 C-4|..|C-2 2A.F ....|A#4 2F.F ....|--- .... ....
....|..|R-- .... ....|--- .... ....|--- .... ....
....|..|C-3 2F.A ....|A-4 2F.A ....|--- .... ....
....|..|--- .... ....|--- .... ....|--- .... ....
....|..|C-4 AF.F ....|R-- .... ....|R-- .... ....
....|..|R-- .... ....|--- .... ....|--- .... ....
....|..|C-2 2F.A ....|A#4 2F.A ....|--- .... ....
....|..|--- .... ....|--- .... ....|--- .... ....
....|..|C-4 AF.F ....|A-4 2F.7 ....|--- .... ....
 C-3|..|C-3 2C.F ....|--- .... ....|--- .... ....
....|..|C-4 AF.A ....|R-- .... ....|R-- .... ....
....|..|R-- .... ....|--- .... ....|--- .... ....

[Pattern16]
 C#4|..|C#2 2A.F ....|C#4 2F.F ....|F-4 3F2F ....
....|..|--- .... ....|--- .... ....|--- .... ....
....|..|C-4 AF.A ....|--- .... ....|--- .... ....
....|..|G-2 2F.A ....|--- .... ....|--- .... ....
 C#4|..|C#3 2C.F ....|C-4 2F.F ....|R-- .... ....
....|..|R-- .... ....|--- .... ....|--- .... ....
....|..|C#2 2F.A ....|C#4 2F.A ....|F-4 3F2A ....
....|..|--- .... ....|--- .... ....|--- .... ....
....|..|C-4 AF.7 ....|G-3 2F.F ....|--- .... ....
....|..|G-2 2F.7 ....|--- .... ....|--- .... ....
....|..|C#3 2F.A ....|C-4 2F.A ....|--- .... ....
....|..|--- .... ....|--- .... ....|--- .... ....
 C#4|..|C#2 2A.F ....|C#4 2F.F ....|F-4 3F27 ....
....|..|--- .... ....|--- .... ....|--- .... ....
....|..|R-- .... ....|G-3 2F.A ....|--- .... ....
....|..|--- .... ....|--- .... ....|--- .... ....
 C#4|..|C#3 2C.F ....|C-4 2F.7 ....|--- .... ....
....|..|--- .... ....|--- .... ....|--- .... ....
....|..|C#2 2F.A ....|C#4 2F.A ....|--- .... ....
....|..|--- .... ....|--- .... ....|--- .... ....
 C#4|..|C#2 2A.F ....|C-4 2F.F ....|--- .... ....
....|..|--- .... ....|--- .... ....|--- .... ....
....|..|C#3 2F.A ....|--- .... ....|--- .... ....
....|..|--- .... ....|--- .... ....|--- .... ....
....|..|C#2 2F.7 ....|G-3 2F.F ....|--- .... ....
....|..|--- .... ....|--- .... ....|--- .... ....
....|..|C#2 2F.A ....|C-4 2F.A ....|--- .... ....
....|..|--- .... ....|--- .... ....|--- .... ....
 C#4|..|C#3 2C.F ....|C#4 2F.F ....|--- .... ....
....|..|--- .... ....|--- .... ....|--- .... ....
....|..|R-- .... ....|G-3 2F.A ....|--- .... ....
....|..|--- .... ....|--- .... ....|--- .... ....
 C#4|..|C#2 2A.F ....|C-4 2F.7 ....|F-4 3F2F ....
....|..|--- .... ....|--- .... ....|--- .... ....
....|..|C#3 2F.A ....|C#4 2F.A ....|--- .... ....
....|..|--- .... ....|--- .... ....|--- .... ....
 C#4|..|C#3 2C.F ....|C-4 2F.F ....|--- .... ....
....|..|--- .... ....|--- .... ....|--- .... ....
....|..|C#2 2F.A ....|--- .... ....|F-4 3F2A ....
....|..|--- .... ....|--- .... ....|--- .... ....
....|..|C#3 2F.7 ....|G-3 2F.F ....|--- .... ....
....|..|--- .... ....|--- .... ....|--- .... ....
....|..|C#3 2F.A ....|C-4 2F.A ....|--- .... ....
....|..|--- .... ....|--- .... ....|--- .... ....
 C#4|..|C#2 2A.F ....|C#4 2F.F ....|F-4 3F27 ....
....|..|--- .... ....|--- .... ....|--- .... ....
....|..|R-- .... ....|G-3 2F.A ....|--- .... ....
....|..|--- .... ....|--- .... ....|--- .... ....
 C#4|..|C#3 2C.F ....|C-4 2F.7 ....|F-4 3F3F ....
....|..|--- .... ....|--- .... ....|--- .... ....
....|..|C#2 2F.A ....|C#4 2F.A ....|--- .... ....
....|..|--- .... ....|--- .... ....|--- .... ....
 C#4|..|C#2 2A.F ....|C-4 2F.F ....|--- .... ....
....|..|--- .... ....|--- .... ....|--- .... ....
....|..|C#3 2F.A ....|--- .... ....|F-4 3F3A ....
....|..|--- .... ....|--- .... ....|--- .... ....
....|..|C#2 2F.7 ....|G-3 2F.F ....|F-4 3F2F ....
....|..|--- .... ....|--- .... ....|--- .... ....
....|..|C#2 2F.A ....|C-4 2F.A ....|--- .... ....
....|..|--- .... ....|--- .... ....|--- .... ....
 C#4|..|C#3 2C.F ....|C#4 2F.F ....|F-4 3F37 ....
....|..|--- .... ....|--- .... ....|--- .... ....
....|..|R-- .... ....|G-3 2F.A ....|F-4 3F2A ....
....|..|--- .... ....|--- .... ....|--- .... ....

[Pattern17]
 C-4|..|C-2 2A.F ....|C#4 2F.F ....|F-4 3F2F ....
....|..|--- .... ....|--- .... ....|--- .... ....
....|..|C#3 2F.A ....|C#4 2F.A ....|--- .... ....
....|..|--- .... ....|--- .... ....|--- .... ....
 C-3|..|C-3 2C.F ....|C-4 2F.F ....|F-4 3F27 ....
....|..|--- .... ....|--- .... ....|--- .... ....
....|..|C-2 2F.A ....|C#4 2F.A ....|F-4 3F2A ....
....|..|--- .... ....|--- .... ....|--- .... ....
....|..|C#3 2F.7 ....|G-3 2F.F ....|--- .... ....
....|..|--- .... ....|--- .... ....|--- .... ....
....|..|C-3 2F.A ....|C-4 2F.A ....|--- .... ....
....|..|--- .... ....|--- .... ....|--- .... ....
 C-4|..|C-2 2A.F ....|C#4 2F.F ....|F-4 3F27 ....
....|..|--- .... ....|--- .... ....|--- .... ....
....|..|R-- .... ....|G-3 2F.A ....|--- .... ....
....|..|--- .... ....|--- .... ....|--- .... ....
 C-3|..|C-3 2C.F ....|C-4 2F.7 ....|--- .... ....
....|..|--- .... ....|--- .... ....|--- .... ....
....|..|C-2 2F.A ....|C#4 2F.A ....|--- .... ....
....|..|--- .... ....|--- .... ....|--- .... ....
 C-4|..|C-2 2A.F ....|C-4 2F.F ....|--- .... ....
....|..|--- .... ....|--- .... ....|--- .... ....
....|..|C-3 2F.A ....|--- .... ....|--- .... ....
....|..|--- .... ....|--- .... ....|--- .... ....
....|..|C-2 2F.7 ....|G-3 2F.F ....|--- .... ....
....|..|--- .... ....|--- .... ....|--- .... ....
....|..|C-2 2F.A ....|C-4 2F.A ....|--- .... ....
....|..|--- .... ....|--- .... ....|--- .... ....
 C-3|..|C-3 2C.F ....|C#4 2F.F ....|--- .... ....
....|..|--- .... ....|--- .... ....|--- .... ....
....|..|R-- .... ....|G-3 2F.A ....|--- .... ....
....|..|--- .... ....|--- .... ....|--- .... ....
 C-4|..|C-2 2A.F ....|C-4 2F.7 ....|E-4 3F3F ....
....|..|--- .... ....|--- .... ....|--- .... ....
....|..|C-3 2F.A ....|C#4 2F.A ....|--- .... ....
....|..|--- .... ....|--- .... ....|--- .... ....
 C-3|..|C-3 2C.F ....|C-4 2F.F ....|--- .... ....
....|..|--- .... ....|--- .... ....|--- .... ....
....|..|C-2 2F.A ....|--- .... ....|E-4 3F3A ....
....|..|--- .... ....|--- .... ....|--- .... ....
....|..|C-3 2F.7 ....|G-3 2F.F ....|--- .... ....
....|..|--- .... ....|--- .... ....|--- .... ....
....|..|C-3 2F.A ....|C-4 2F.A ....|--- .... ....
....|..|--- .... ....|--- .... ....|--- .... ....
 C-4|..|C-2 2A.F ....|C#4 2F.F ....|E-4 3F37 ....
....|..|--- .... ....|--- .... ....|--- .... ....
....|..|R-- .... ....|G-3 2F.A ....|--- .... ....
....|..|--- .... ....|--- .... ....|--- .... ....
 C-3|..|C-3 2C.F ....|C-4 2F.7 ....|--- .... ....
....|..|--- .... ....|--- .... ....|--- .... ....
....|..|C-2 2F.A ....|C#4 2F.A ....|--- .... ....
....|..|--- .... ....|--- .... ....|--- .... ....
 C-4|..|C-2 2A.F ....|C-4 2F.F ....|--- .... ....
....|..|--- .... ....|--- .... ....|--- .... ....
....|..|C-3 2F.A ....|--- .... ....|--- .... ....
....|..|--- .... ....|--- .... ....|--- .... ....
....|..|C-2 2F.7 ....|G-3 2F.F ....|--- .... ....
....|..|--- .... ....|--- .... ....|--- .... ....
....|..|C-2 2F.A ....|C-4 2F.A ....|--- .... ....
....|..|--- .... ....|--- .... ....|--- .... ....
 C-3|..|C-3 2C.F ....|C#4 2F.F ....|--- .... ....
....|..|--- .... ....|--- .... ....|--- .... ....
....|..|R-- .... ....|G-3 2F.A ....|--- .... ....
....|..|--- .... ....|--- .... ....|--- .... ....

[Pattern18]
 C#4|..|C#2 2A.F ....|C#4 2F.F ....|F-4 3F2F ....
....|..|--- .... ....|--- .... ....|--- .... ....
....|..|C-3 2F.A ....|C#4 2F.A ....|--- .... ....
....|..|--- .... ....|--- .... ....|--- .... ....
 C#4|..|C#3 2C.F ....|C-4 2F.F ....|--- .... ....
....|..|--- .... ....|--- .... ....|--- .... ....
....|..|C#2 2F.A ....|C#4 2F.A ....|F-4 3F2A ....
....|..|--- .... ....|--- .... ....|--- .... ....
....|..|C-3 2F.7 ....|G-3 2F.F ....|--- .... ....
....|..|--- .... ....|--- .... ....|--- .... ....
....|..|C#3 2F.A ....|C-4 2F.A ....|--- .... ....
....|..|--- .... ....|--- .... ....|--- .... ....
 C#4|..|C#2 2A.F ....|C#4 2F.F ....|F-4 3F27 ....
....|..|--- .... ....|--- .... ....|--- .... ....
....|..|R-- .... ....|G-3 2F.A ....|--- .... ....
....|..|--- .... ....|--- .... ....|--- .... ....
 C#4|..|C#3 2C.F ....|C-4 2F.7 ....|--- .... ....
....|..|--- .... ....|--- .... ....|--- .... ....
....|..|C#2 2F.A ....|C#4 2F.A ....|--- .... ....
....|..|--- .... ....|--- .... ....|--- .... ....
 C#4|..|C#2 2A.F ....|C-4 2F.F ....|--- .... ....
....|..|--- .... ....|--- .... ....|--- .... ....
....|..|C#3 2F.A ....|--- .... ....|--- .... ....
....|..|--- .... ....|--- .... ....|--- .... ....
....|..|C#2 2F.7 ....|G-3 2F.F ....|--- .... ....
....|..|--- .... ....|--- .... ....|--- .... ....
....|..|C#2 2F.A ....|C-4 2F.A ....|--- .... ....
....|..|--- .... ....|--- .... ....|--- .... ....
 C#4|..|C#3 2C.F ....|C#4 2F.F ....|--- .... ....
....|..|--- .... ....|--- .... ....|--- .... ....
....|..|R-- .... ....|G-3 2F.A ....|--- .... ....
....|..|--- .... ....|--- .... ....|--- .... ....
 C#4|..|C#2 2A.F ....|C-4 2F.7 ....|--- .... ....
....|..|--- .... ....|--- .... ....|--- .... ....
....|..|C#3 2F.A ....|C#4 2F.A ....|--- .... ....
....|..|--- .... ....|--- .... ....|--- .... ....
 C#4|..|C#3 2C.F ....|C-4 2F.F ....|--- .... ....
....|..|--- .... ....|--- .... ....|--- .... ....
....|..|C#2 2F.A ....|--- .... ....|--- .... ....
....|..|--- .... ....|--- .... ....|--- .... ....
....|..|C#3 2F.7 ....|G-3 2F.F ....|--- .... ....
....|..|--- .... ....|--- .... ....|--- .... ....
....|..|C#3 2F.A ....|C-4 2F.A ....|--- .... ....
....|..|--- .... ....|--- .... ....|--- .... ....
 C#4|..|C#2 2A.F ....|C#4 2F.F ....|--- .... ....
....|..|--- .... ....|--- .... ....|--- .... ....
....|..|R-- .... ....|G-3 2F.A ....|--- .... ....
....|..|--- .... ....|--- .... ....|--- .... ....
 C#4|..|C#3 2C.F ....|C-4 2F.7 ....|F-4 3F3F ....
....|..|--- .... ....|--- .... ....|--- .... ....
....|..|C#2 2F.A ....|C#4 2F.A ....|--- .... ....
....|..|--- .... ....|--- .... ....|--- .... ....
 C#4|..|C#2 2A.F ....|C-4 2F.F ....|--- .... ....
....|..|--- .... ....|--- .... ....|--- .... ....
....|..|C#3 2F.A ....|--- .... ....|F-4 3F3A ....
....|..|--- .... ....|--- .... ....|--- .... ....
....|..|C#2 2F.7 ....|G-3 2F.F ....|F-4 3F2F ....
....|..|--- .... ....|--- .... ....|--- .... ....
....|..|C#2 2F.A ....|C-4 2F.A ....|--- .... ....
....|..|--- .... ....|--- .... ....|--- .... ....
 C#4|..|C#3 2C.F ....|C#4 2F.F ....|F-4 3F37 ....
....|..|--- .... ....|--- .... ....|--- .... ....
....|..|R-- .... ....|G-3 2F.A ....|F-4 3F2A ....
....|..|--- .... ....|--- .... ....|--- .... ....

[Pattern19]
 C-4|..|C-2 2A.F ....|C#4 2F.F ....|F-4 3F2F ....
....|..|--- .... ....|--- .... ....|--- .... ....
....|..|C#3 2F.A ....|C#4 2F.A ....|--- .... ....
....|..|--- .... ....|--- .... ....|--- .... ....
 C-3|..|C-3 2C.F ....|C-4 2F.F ....|F-4 3F27 ....
....|..|--- .... ....|--- .... ....|--- .... ....
....|..|C-2 2F.A ....|C#4 2F.A ....|F-4 3F2A ....
....|..|--- .... ....|--- .... ....|--- .... ....
....|..|C#3 2F.7 ....|G-3 2F.F ....|--- .... ....
....|..|--- .... ....|--- .... ....|--- .... ....
....|..|C-3 2F.A ....|C-4 2F.A ....|--- .... ....
....|..|--- .... ....|--- .... ....|--- .... ....
 C-4|..|C-2 2A.F ....|C#4 2F.F ....|F-4 3F27 ....
....|..|--- .... ....|--- .... ....|--- .... ....
....|..|R-- .... ....|G-3 2F.A ....|--- .... ....
....|..|--- .... ....|--- .... ....|--- .... ....
 C-3|..|C-3 2C.F ....|C-4 2F.7 ....|--- .... ....
....|..|--- .... ....|--- .... ....|--- .... ....
....|..|C-2 2F.A ....|C#4 2F.A ....|--- .... ....
....|..|--- .... ....|--- .... ....|--- .... ....
 C-4|..|C-2 2A.F ....|C-4 2F.F ....|--- .... ....
....|..|--- .... ....|--- .... ....|--- .... ....
....|..|C-3 2F.A ....|--- .... ....|--- .... ....
....|..|--- .... ....|--- .... ....|--- .... ....
....|..|C-2 2F.7 ....|G-3 2F.F ....|--- .... ....
....|..|--- .... ....|--- .... ....|--- .... ....
....|..|C-2 2F.A ....|C-4 2F.A ....|--- .... ....
....|..|--- .... ....|--- .... ....|--- .... ....
 C-3|..|C-3 2C.F ....|C#4 2F.F ....|--- .... ....
....|..|--- .... ....|--- .... ....|--- .... ....
....|..|R-- .... ....|G-3 2F.A ....|--- .... ....
....|..|--- .... ....|--- .... ....|--- .... ....
 C-4|..|C-2 2A.F ....|C-4 2F.7 ....|G-3 3F.F ....
....|..|--- .... ....|--- .... ....|E-3 3F.F ....
....|..|C-3 2F.A ....|C#4 2F.A ....|G#3 3F.F ....
....|..|--- .... ....|--- .... ....|F-3 3F.F ....
 C-3|..|C-3 2C.F ....|C-4 2F.F ....|A-3 3F.F ....
....|..|--- .... ....|--- .... ....|F#3 3F.F ....
....|..|C-2 2F.A ....|--- .... ....|A#3 3F.F ....
....|..|--- .... ....|--- .... ....|G#3 3F.F ....
....|..|C-3 2F.7 ....|G-3 2F.F ....|C-4 3F.F ....
....|..|--- .... ....|--- .... ....|A-3 3F.F ....
....|..|C-3 2F.A ....|C-4 2F.A ....|C#4 3F.F ....
....|..|--- .... ....|--- .... ....|A#3 3F.F ....
 C-4|..|C-2 2A.F ....|C#4 2F.F ....|D-4 3F.F ....
....|..|--- .... ....|--- .... ....|B-3 3F.F ....
....|..|R-- .... ....|G-3 2F.A ....|D#4 3F.F ....
....|..|--- .... ....|--- .... ....|C-4 3F.F ....
 C-3|..|C-3 2C.F ....|C-4 2F.7 ....|F-4 3F.F ....
....|..|--- .... ....|--- .... ....|F#3 3F.7 ....
....|..|C-2 2F.A ....|C#4 2F.A ....|F#4 3F.F ....
....|..|--- .... ....|--- .... ....|G#3 3F.7 ....
 C-4|..|C-2 2A.F ....|C-4 2F.F ....|G-4 3F.F ....
....|..|--- .... ....|--- .... ....|A-3 3F.7 ....
....|..|C-3 2F.A ....|--- .... ....|G#4 3F.F ....
....|..|--- .... ....|--- .... ....|A#3 3F.7 ....
....|..|C-2 2F.7 ....|G-3 2F.F ....|A-4 3F.F ....
....|..|--- .... ....|--- .... ....|B-3 3F.7 ....
....|..|C-2 2F.A ....|C-4 2F.A ....|A#4 3F.F ....
....|..|--- .... ....|--- .... ....|C-4 3F.7 ....
 C-3|..|C-3 2C.F ....|C#4 2F.F ....|F-4 3F.7 ....
....|..|--- .... ....|--- .... ....|--- .... ....
....|..|R-- .... ....|G-3 2F.A ....|F#4 3F.7 ....
....|..|--- .... ....|--- .... ....|--- .... ....

[Pattern20]
 D#4|..|D#2 2A.F ....|A#4 2F1F ....|G-4 3F.F ....
....|..|--- .... ....|--- .... ....|--- .... ....
....|..|C-3 2F.A ....|C#4 2F.A ....|G#4 3F.7 ....
....|..|--- .... ....|--- .... ....|--- .... ....
 D#4|..|D#3 2C.F ....|A#4 2F1F ....|A-4 3F.7 ....
....|..|--- .... ....|--- .... ....|--- .... ....
....|..|D#2 2F.A ....|A#4 2F1A ....|A#4 3F.7 ....
....|..|--- .... ....|--- .... ....|--- .... ....
....|..|B-8 JF.F ....|A#4 2F.F ....|R-- .... ....
....|..|R-- .... ....|--- .... ....|--- .... ....
....|..|D#3 2F.A ....|A#4 2F1A ....|--- .... ....
....|..|--- .... ....|--- .... ....|--- .... ....
 D#4|..|D#2 2A.F ....|A#4 2F1F ....|G-4 3F.7 ....
....|..|--- .... ....|--- .... ....|--- .... ....
....|..|B-8 JF.A ....|A#4 2F.A ....|--- .... ....
....|..|R-- .... ....|--- .... ....|--- .... ....
 D#4|..|D#3 2C.F ....|A-4 2F.F ....|--- .... ....
....|..|--- .... ....|--- .... ....|--- .... ....
....|..|D#2 2F.A ....|A#4 2F1A ....|--- .... ....
....|..|--- .... ....|--- .... ....|--- .... ....
 D#4|..|D#2 2A.F ....|A#4 2F.F ....|--- .... ....
....|..|R-- .... ....|--- .... ....|--- .... ....
....|..|D#3 2F.A ....|A-4 2F.A ....|--- .... ....
....|..|--- .... ....|--- .... ....|--- .... ....
....|..|B-8 JF.F ....|A#4 2F1F ....|--- .... ....
....|..|R-- .... ....|--- .... ....|--- .... ....
....|..|D#2 2F.A ....|A#4 2F.A ....|--- .... ....
....|..|--- .... ....|--- .... ....|--- .... ....
 D#4|..|D#3 2C.F ....|G-4 2F.F ....|--- .... ....
....|..|--- .... ....|--- .... ....|--- .... ....
....|..|B-8 JF.A ....|A#4 2F1A ....|--- .... ....
....|..|R-- .... ....|--- .... ....|--- .... ....
 D#4|..|D#2 2A.F ....|A#4 2F1F ....|A#4 3F.F ....
....|..|--- .... ....|--- .... ....|--- .... ....
....|..|D#3 2F.A ....|G-4 2F.A ....|--- .... ....
....|..|--- .... ....|--- .... ....|--- .... ....
 D#4|..|D#3 2C.F ....|G-4 2F.F ....|--- .... ....
....|..|R-- .... ....|--- .... ....|--- .... ....
....|..|D#2 2F.A ....|A#4 2F1A ....|A#4 3F.A ....
....|..|--- .... ....|--- .... ....|--- .... ....
....|..|B-8 JF.F ....|A#4 2F.F ....|--- .... ....
....|..|R-- .... ....|--- .... ....|--- .... ....
....|..|D#3 2F.A ....|G-4 2F.A ....|--- .... ....
....|..|--- .... ....|--- .... ....|--- .... ....
 D#4|..|D#2 2A.F ....|A#4 2F17 ....|A#4 3F.7 ....
....|..|--- .... ....|--- .... ....|--- .... ....
....|..|B-8 JF.A ....|A#4 2F.A ....|--- .... ....
....|..|R-- .... ....|--- .... ....|--- .... ....
 D#4|..|D#3 2C.F ....|A-4 2F.F ....|D#5 3F.F ....
....|..|--- .... ....|--- .... ....|--- .... ....
....|..|D#2 2F.A ....|--- .... ....|--- .... ....
....|..|--- .... ....|--- .... ....|--- .... ....
 D#4|..|D#2 2A.F ....|A#4 2F.F ....|--- .... ....
....|..|R-- .... ....|--- .... ....|--- .... ....
....|..|D#3 2F.A ....|A-4 2F.A ....|D#5 3F.A ....
....|..|--- .... ....|--- .... ....|--- .... ....
....|..|C-4 AF.F ....|R-- .... ....|--- .... ....
....|..|R-- .... ....|--- .... ....|--- .... ....
....|..|D#2 2F.A ....|A#4 2F.A ....|--- .... ....
....|..|--- .... ....|--- .... ....|--- .... ....
....|..|C-4 AF.F ....|A-4 2F.7 ....|D#5 3F.7 ....
 D#4|..|D#3 2C.F ....|--- .... ....|--- .... ....
....|..|C-4 AF.A ....|R-- .... ....|--- .... ....
....|..|R-- .... ....|--- .... ....|--- .... ....

[Pattern21]
 G-3|..|G-1 2A.F ....|A#4 2F1F ....|D-5 3F.F ....
....|..|--- .... ....|--- .... ....|--- .... ....
....|..|C-4 AF.A ....|--- .... ....|--- .... ....
....|..|D#3 2F.A ....|--- .... ....|--- .... ....
 G-4|..|G-2 2A.F ....|A#4 2F1F ....|--- .... ....
....|..|R-- .... ....|--- .... ....|--- .... ....
....|..|G-1 2F.A ....|A#4 2F1A ....|D-5 3F.A ....
....|..|--- .... ....|--- .... ....|--- .... ....
....|..|B-8 JF.F ....|A#4 2F.F ....|--- .... ....
....|..|D#3 2F.7 ....|--- .... ....|--- .... ....
....|..|G-2 2F.A ....|A#4 2F1A ....|--- .... ....
....|..|--- .... ....|--- .... ....|--- .... ....
 G-3|..|G-1 2A.F ....|A#4 2F1F ....|D-5 3F.7 ....
....|..|--- .... ....|--- .... ....|--- .... ....
....|..|B-8 JF.A ....|A#4 2F.A ....|--- .... ....
....|..|R-- .... ....|--- .... ....|--- .... ....
 G-4|..|G-2 2A.F ....|A-4 2F.F ....|--- .... ....
....|..|--- .... ....|--- .... ....|--- .... ....
....|..|G-1 2F.A ....|A#4 2F1A ....|--- .... ....
....|..|--- .... ....|--- .... ....|--- .... ....
 G-3|..|G-1 2A.F ....|A#4 2F.F ....|--- .... ....
....|..|R-- .... ....|--- .... ....|--- .... ....
....|..|G-2 2F.A ....|A-4 2F.A ....|--- .... ....
....|..|--- .... ....|--- .... ....|--- .... ....
....|..|B-8 JF.F ....|A#4 2F1F ....|--- .... ....
....|..|R-- .... ....|--- .... ....|--- .... ....
....|..|G-1 2F.A ....|A#4 2F.A ....|--- .... ....
....|..|--- .... ....|--- .... ....|--- .... ....
 G-4|..|G-2 2A.F ....|G-4 2F.F ....|--- .... ....
....|..|--- .... ....|--- .... ....|--- .... ....
....|..|B-8 JF.A ....|A#4 2F1A ....|--- .... ....
....|..|R-- .... ....|--- .... ....|--- .... ....
 G-3|..|G-1 2A.F ....|A#4 2F1F ....|--- .... ....
....|..|--- .... ....|--- .... ....|--- .... ....
....|..|G-2 2F.A ....|G-4 2F.A ....|--- .... ....
....|..|--- .... ....|--- .... ....|--- .... ....
 G-4|..|G-2 2A.F ....|G-4 2F.F ....|--- .... ....
....|..|R-- .... ....|--- .... ....|--- .... ....
....|..|G-1 2F.A ....|A#4 2F1A ....|--- .... ....
....|..|--- .... ....|--- .... ....|--- .... ....
....|..|B-8 JF.F ....|A#4 2F.F ....|--- .... ....
....|..|R-- .... ....|--- .... ....|--- .... ....
....|..|G-2 2F.A ....|G-4 2F.A ....|--- .... ....
....|..|--- .... ....|--- .... ....|--- .... ....
 G-3|..|G-1 2A.F ....|A#4 2F17 ....|--- .... ....
....|..|--- .... ....|--- .... ....|--- .... ....
....|..|B-8 JF.A ....|A#4 2F.A ....|--- .... ....
....|..|R-- .... ....|--- .... ....|--- .... ....
 G-4|..|G-2 2A.F ....|A-4 2F.F ....|A#4 3F.F ....
....|..|--- .... ....|--- .... ....|--- .... ....
....|..|G-1 2F.A ....|--- .... ....|--- .... ....
....|..|--- .... ....|--- .... ....|--- .... ....
 G-3|..|G-1 2A.F ....|A#4 2F.F ....|--- .... ....
....|..|R-- .... ....|--- .... ....|--- .... ....
....|..|G-2 2F.A ....|A-4 2F.A ....|A#4 3F.A ....
....|..|--- .... ....|--- .... ....|--- .... ....
....|..|C-4 AF.F ....|R-- .... ....|--- .... ....
....|..|R-- .... ....|--- .... ....|--- .... ....
....|..|G-1 2F.A ....|A#4 2F.A ....|--- .... ....
....|..|--- .... ....|--- .... ....|--- .... ....
....|..|C-4 AF.F ....|A-4 2F.7 ....|A#4 3F.7 ....
 G-4|..|G-2 2A.F ....|--- .... ....|--- .... ....
....|..|C-4 AF.A ....|R-- .... ....|--- .... ....
....|..|R-- .... ....|--- .... ....|--- .... ....

[Pattern22]
 A-3|..|A-1 2A.F ....|A#4 2F1F ....|C#5 3F.F ....
....|..|--- .... ....|--- .... ....|--- .... ....
....|..|C-4 AF.A ....|--- .... ....|--- .... ....
....|..|G-2 2F.A ....|--- .... ....|--- .... ....
 A-3|..|A-2 2C.F ....|A#4 2F1F ....|--- .... ....
....|..|R-- .... ....|--- .... ....|--- .... ....
....|..|A-1 2F.A ....|A#4 2F1A ....|C#5 3F.A ....
....|..|--- .... ....|--- .... ....|--- .... ....
....|..|B-8 JF.F ....|A#4 2F.F ....|--- .... ....
....|..|G-2 2F.7 ....|--- .... ....|--- .... ....
....|..|A-2 2F.A ....|A#4 2F1A ....|--- .... ....
....|..|--- .... ....|--- .... ....|--- .... ....
 A-3|..|A-1 2A.F ....|A#4 2F1F ....|C#5 3F.7 ....
....|..|--- .... ....|--- .... ....|--- .... ....
....|..|B-8 JF.A ....|A#4 2F.A ....|--- .... ....
....|..|R-- .... ....|--- .... ....|--- .... ....
 A-3|..|A-2 2C.F ....|A-4 2F.F ....|--- .... ....
....|..|--- .... ....|--- .... ....|--- .... ....
....|..|A-1 2F.A ....|A#4 2F1A ....|--- .... ....
....|..|--- .... ....|--- .... ....|--- .... ....
 A-3|..|A-1 2A.F ....|A#4 2F.F ....|--- .... ....
....|..|R-- .... ....|--- .... ....|--- .... ....
....|..|A-2 2F.A ....|A-4 2F.A ....|--- .... ....
....|..|--- .... ....|--- .... ....|--- .... ....
....|..|B-8 JF.F ....|A#4 2F1F ....|--- .... ....
....|..|R-- .... ....|--- .... ....|--- .... ....
....|..|A-1 2F.A ....|A#4 2F.A ....|--- .... ....
....|..|--- .... ....|--- .... ....|--- .... ....
 A-3|..|A-2 2C.F ....|G-4 2F.F ....|--- .... ....
....|..|--- .... ....|--- .... ....|--- .... ....
....|..|B-8 JF.A ....|A#4 2F1A ....|--- .... ....
....|..|R-- .... ....|--- .... ....|--- .... ....
 A-3|..|A-1 2A.F ....|A#4 2F1F ....|--- .... ....
....|..|--- .... ....|--- .... ....|--- .... ....
....|..|A-2 2F.A ....|G-4 2F.A ....|--- .... ....
....|..|--- .... ....|--- .... ....|--- .... ....
 A-3|..|A-2 2C.F ....|G-4 2F.F ....|--- .... ....
....|..|R-- .... ....|--- .... ....|--- .... ....
....|..|A-1 2F.A ....|A#4 2F1A ....|--- .... ....
....|..|--- .... ....|--- .... ....|--- .... ....
....|..|B-8 JF.F ....|A#4 2F.F ....|--- .... ....
....|..|R-- .... ....|--- .... ....|--- .... ....
....|..|A-2 2F.A ....|G-4 2F.A ....|--- .... ....
....|..|--- .... ....|--- .... ....|--- .... ....
 A-3|..|A-1 2A.F ....|A#4 2F17 ....|--- .... ....
....|..|--- .... ....|--- .... ....|--- .... ....
....|..|B-8 JF.A ....|A#4 2F.A ....|--- .... ....
....|..|R-- .... ....|--- .... ....|--- .... ....
 A-3|..|A-2 2C.F ....|A-4 2F.F ....|A-4 3F.F ....
....|..|--- .... ....|--- .... ....|--- .... ....
....|..|A-1 2F.A ....|--- .... ....|--- .... ....
....|..|--- .... ....|--- .... ....|--- .... ....
 A-3|..|A-1 2A.F ....|A#4 2F.F ....|--- .... ....
....|..|R-- .... ....|--- .... ....|--- .... ....
....|..|A-2 2F.A ....|A-4 2F.A ....|A-4 3F.A ....
....|..|--- .... ....|--- .... ....|--- .... ....
....|..|C-4 AF.F ....|R-- .... ....|--- .... ....
....|..|R-- .... ....|--- .... ....|--- .... ....
....|..|A-1 2F.A ....|A#4 2F.A ....|--- .... ....
....|..|--- .... ....|--- .... ....|--- .... ....
....|..|C-4 AF.F ....|A-4 2F.7 ....|A-4 3F.7 ....
 A-3|..|A-2 2C.F ....|--- .... ....|--- .... ....
....|..|C-4 AF.A ....|R-- .... ....|--- .... ....
....|..|R-- .... ....|--- .... ....|--- .... ....

[Pattern23]
 D-4|..|D-2 2A.F ....|A#4 2F1F ....|C-5 3F.F ....
....|..|--- .... ....|--- .... ....|--- .... ....
....|..|C-4 AF.A ....|--- .... ....|--- .... ....
....|..|A-2 2F.A ....|--- .... ....|--- .... ....
 D-4|..|D-3 2C.F ....|A#4 2F1F ....|--- .... ....
....|..|R-- .... ....|--- .... ....|--- .... ....
....|..|D-2 2F.A ....|A#4 2F1A ....|C-5 3F.A ....
....|..|--- .... ....|--- .... ....|--- .... ....
....|..|B-8 JF.F ....|A#4 2F.F ....|--- .... ....
....|..|A-2 2F.7 ....|--- .... ....|--- .... ....
....|..|D-3 2F.A ....|A#4 2F1A ....|--- .... ....
....|..|--- .... ....|--- .... ....|--- .... ....
 D-4|..|D-2 2A.F ....|A#4 2F1F ....|C-5 3F.7 ....
....|..|--- .... ....|--- .... ....|--- .... ....
....|..|B-8 JF.A ....|A#4 2F.A ....|--- .... ....
....|..|R-- .... ....|--- .... ....|--- .... ....
 D-4|..|D-3 2C.F ....|A-4 2F.F ....|--- .... ....
....|..|--- .... ....|--- .... ....|--- .... ....
....|..|D-2 2F.A ....|A#4 2F1A ....|--- .... ....
....|..|--- .... ....|--- .... ....|--- .... ....
 D-4|..|D-2 2A.F ....|A#4 2F.F ....|--- .... ....
....|..|R-- .... ....|--- .... ....|--- .... ....
....|..|D-3 2F.A ....|A-4 2F.A ....|--- .... ....
....|..|--- .... ....|--- .... ....|--- .... ....
....|..|B-8 JF.F ....|A#4 2F1F ....|--- .... ....
....|..|R-- .... ....|--- .... ....|--- .... ....
....|..|D-2 2F.A ....|A#4 2F.A ....|--- .... ....
....|..|--- .... ....|--- .... ....|--- .... ....
 D-4|..|D-3 2C.F ....|G-4 2F.F ....|--- .... ....
....|..|--- .... ....|--- .... ....|--- .... ....
....|..|B-8 JF.A ....|A#4 2F1A ....|--- .... ....
....|..|R-- .... ....|--- .... ....|--- .... ....
 D-4|..|D-2 2A.F ....|A#4 2F1F ....|--- .... ....
....|..|--- .... ....|--- .... ....|--- .... ....
....|..|D-3 2F.A ....|G-4 2F.A ....|--- .... ....
....|..|--- .... ....|--- .... ....|--- .... ....
 D-4|..|D-3 2C.F ....|G-4 2F.F ....|--- .... ....
....|..|R-- .... ....|--- .... ....|--- .... ....
....|..|D-2 2F.A ....|A#4 2F1A ....|--- .... ....
....|..|--- .... ....|--- .... ....|--- .... ....
....|..|B-8 JF.F ....|A#4 2F.F ....|--- .... ....
....|..|R-- .... ....|--- .... ....|--- .... ....
....|..|D-3 2F.A ....|G-4 2F.A ....|--- .... ....
....|..|--- .... ....|--- .... ....|--- .... ....
 D-4|..|D-2 2A.F ....|A#4 2F17 ....|G-4 3F4F ....
....|..|--- .... ....|--- .... ....|--- .... ....
....|..|B-8 JF.A ....|A#4 2F.A ....|--- .... ....
....|..|R-- .... ....|--- .... ....|--- .... ....
 D-4|..|D-3 2C.F ....|A-4 2F.F ....|A#4 3F4F ....
....|..|--- .... ....|--- .... ....|--- .... ....
....|..|D-2 2F.A ....|--- .... ....|G-4 3F4A ....
....|..|--- .... ....|--- .... ....|--- .... ....
 D-4|..|D-2 2A.F ....|A#4 2F.F ....|A-4 3F4F ....
....|..|R-- .... ....|--- .... ....|--- .... ....
....|..|D-3 2F.A ....|A-4 2F.A ....|A#4 3F4A ....
....|..|--- .... ....|--- .... ....|--- .... ....
....|..|C-4 AF.F ....|R-- .... ....|G#4 3F4F ....
....|..|R-- .... ....|--- .... ....|--- .... ....
....|..|D-2 2F.A ....|A#4 2F.A ....|A-4 3F4A ....
....|..|--- .... ....|--- .... ....|--- .... ....
....|..|C-4 AF.F ....|A-4 2F.7 ....|G-4 3F4F ....
 D-4|..|D-3 2C.F ....|--- .... ....|--- .... ....
....|..|C-4 AF.A ....|R-- .... ....|G#4 3F4A ....
....|..|R-- .... ....|--- .... ....|--- .... ....

[Pattern24]
 D#4|..|D#2 2A.F ....|A#4 2F1F ....|G-4 3F.F ....
....|..|--- .... ....|--- .... ....|--- .... ....
....|..|C-4 AF.A ....|--- .... ....|G-4 3F4A ....
....|..|D-3 2F.A ....|--- .... ....|--- .... ....
 D#4|..|D#3 2C.F ....|A#4 2F1F ....|G#4 3F47 ....
....|..|R-- .... ....|--- .... ....|--- .... ....
....|..|D#2 2F.A ....|A#4 2F1A ....|G-4 3F.A ....
....|..|--- .... ....|--- .... ....|--- .... ....
....|..|B-8 JF.F ....|A#4 2F.F ....|G-4 3F47 ....
....|..|D-3 2F.7 ....|--- .... ....|--- .... ....
....|..|D#3 2F.A ....|A#4 2F1A ....|--- .... ....
....|..|--- .... ....|--- .... ....|--- .... ....
 D#4|..|D#2 2A.F ....|A#4 2F1F ....|G-4 3F.7 ....
....|..|--- .... ....|--- .... ....|--- .... ....
....|..|B-8 JF.A ....|A#4 2F.A ....|--- .... ....
....|..|R-- .... ....|--- .... ....|--- .... ....
 D#4|..|D#3 2C.F ....|A-4 2F.F ....|--- .... ....
....|..|--- .... ....|--- .... ....|--- .... ....
....|..|D#2 2F.A ....|A#4 2F1A ....|--- .... ....
....|..|--- .... ....|--- .... ....|--- .... ....
 D#4|..|D#2 2A.F ....|A#4 2F.F ....|--- .... ....
....|..|R-- .... ....|--- .... ....|--- .... ....
....|..|D#3 2F.A ....|A-4 2F.A ....|--- .... ....
....|..|--- .... ....|--- .... ....|--- .... ....
....|..|B-8 JF.F ....|A#4 2F1F ....|--- .... ....
....|..|R-- .... ....|--- .... ....|--- .... ....
....|..|D#2 2F.A ....|A#4 2F.A ....|--- .... ....
....|..|--- .... ....|--- .... ....|--- .... ....
 D#4|..|D#3 2C.F ....|G-4 2F.F ....|--- .... ....
....|..|--- .... ....|--- .... ....|--- .... ....
....|..|B-8 JF.A ....|A#4 2F1A ....|--- .... ....
....|..|R-- .... ....|--- .... ....|--- .... ....
 D#4|..|D#2 2A.F ....|A#4 2F1F ....|A#4 3F.F ....
....|..|--- .... ....|--- .... ....|--- .... ....
....|..|D#3 2F.A ....|G-4 2F.A ....|--- .... ....
....|..|--- .... ....|--- .... ....|--- .... ....
 D#4|..|D#3 2C.F ....|G-4 2F.F ....|--- .... ....
....|..|R-- .... ....|--- .... ....|--- .... ....
....|..|D#2 2F.A ....|A#4 2F1A ....|A#4 3F.A ....
....|..|--- .... ....|--- .... ....|--- .... ....
....|..|B-8 JF.F ....|A#4 2F.F ....|--- .... ....
....|..|R-- .... ....|--- .... ....|--- .... ....
....|..|D#3 2F.A ....|G-4 2F.A ....|--- .... ....
....|..|--- .... ....|--- .... ....|--- .... ....
 D#4|..|D#2 2A.F ....|A#4 2F17 ....|A#4 3F.7 ....
....|..|--- .... ....|--- .... ....|--- .... ....
....|..|B-8 JF.A ....|A#4 2F.A ....|--- .... ....
....|..|R-- .... ....|--- .... ....|--- .... ....
 D#4|..|D#3 2C.F ....|A-4 2F.F ....|D#5 3F.F ....
....|..|--- .... ....|--- .... ....|--- .... ....
....|..|D#2 2F.A ....|--- .... ....|--- .... ....
....|..|--- .... ....|--- .... ....|--- .... ....
 D#4|..|D#2 2A.F ....|A#4 2F.F ....|--- .... ....
....|..|R-- .... ....|--- .... ....|--- .... ....
....|..|D#3 2F.A ....|A-4 2F.A ....|D#5 3F.A ....
....|..|--- .... ....|--- .... ....|--- .... ....
....|..|C-4 AF.F ....|R-- .... ....|--- .... ....
....|..|R-- .... ....|--- .... ....|--- .... ....
....|..|D#2 2F.A ....|A#4 2F.A ....|--- .... ....
....|..|--- .... ....|--- .... ....|--- .... ....
....|..|C-4 AF.F ....|A-4 2F.7 ....|D#5 3F.7 ....
 D#4|..|D#3 2C.F ....|--- .... ....|--- .... ....
....|..|C-4 AF.A ....|R-- .... ....|--- .... ....
....|..|R-- .... ....|--- .... ....|--- .... ....

[Pattern27]
 D-4|..|D-2 2A.F ....|A#4 2F1F ....|D-5 3F.F ....
....|..|--- .... ....|--- .... ....|--- .... ....
....|..|C-4 AF.A ....|--- .... ....|--- .... ....
....|..|A-2 2F.A ....|--- .... ....|--- .... ....
 D-4|..|D-3 2C.F ....|A#4 2F1F ....|--- .... ....
....|..|R-- .... ....|--- .... ....|--- .... ....
....|..|D-2 2F.A ....|A#4 2F1A ....|D-5 3F.A ....
....|..|--- .... ....|--- .... ....|--- .... ....
....|..|B-8 JF.F ....|A#4 2F.F ....|--- .... ....
....|..|A-2 2F.7 ....|--- .... ....|--- .... ....
....|..|D-3 2F.A ....|A#4 2F1A ....|--- .... ....
....|..|--- .... ....|--- .... ....|--- .... ....
 D-4|..|D-2 2A.F ....|A#4 2F1F ....|D-5 3F.7 ....
....|..|--- .... ....|--- .... ....|--- .... ....
....|..|B-8 JF.A ....|A#4 2F.A ....|--- .... ....
....|..|R-- .... ....|--- .... ....|--- .... ....
 D-4|..|D-3 2C.F ....|A-4 2F.F ....|--- .... ....
....|..|--- .... ....|--- .... ....|--- .... ....
....|..|D-2 2F.A ....|A#4 2F1A ....|--- .... ....
....|..|--- .... ....|--- .... ....|--- .... ....
 D-4|..|D-2 2A.F ....|A#4 2F.F ....|--- .... ....
....|..|R-- .... ....|--- .... ....|--- .... ....
....|..|D-3 2F.A ....|A-4 2F.A ....|--- .... ....
....|..|--- .... ....|--- .... ....|--- .... ....
....|..|B-8 JF.F ....|A#4 2F1F ....|--- .... ....
....|..|R-- .... ....|--- .... ....|--- .... ....
....|..|D-2 2F.A ....|A#4 2F.A ....|--- .... ....
....|..|--- .... ....|--- .... ....|--- .... ....
 D-4|..|D-3 2C.F ....|G-4 2F.F ....|--- .... ....
....|..|--- .... ....|--- .... ....|--- .... ....
....|..|B-8 JF.A ....|A#4 2F1A ....|--- .... ....
....|..|R-- .... ....|--- .... ....|--- .... ....
 D-4|..|D-2 2A.F ....|A#4 2F1F ....|--- .... ....
....|..|--- .... ....|--- .... ....|--- .... ....
....|..|D-3 2F.A ....|G-4 2F.A ....|--- .... ....
....|..|--- .... ....|--- .... ....|--- .... ....
 D-4|..|D-3 2C.F ....|G-4 2F.F ....|--- .... ....
....|..|R-- .... ....|--- .... ....|--- .... ....
....|..|D-2 2F.A ....|A#4 2F1A ....|--- .... ....
....|..|--- .... ....|--- .... ....|--- .... ....
....|..|B-8 JF.F ....|A#4 2F.F ....|--- .... ....
....|..|R-- .... ....|--- .... ....|--- .... ....
....|..|D-3 2F.A ....|G-4 2F.A ....|--- .... ....
....|..|--- .... ....|--- .... ....|--- .... ....
 D-4|..|D-2 2A.F ....|A#4 2F17 ....|G-4 3F4F ....
....|..|--- .... ....|--- .... ....|--- .... ....
....|..|B-8 JF.A ....|A#4 2F.A ....|--- .... ....
....|..|R-- .... ....|--- .... ....|--- .... ....
 D-4|..|D-3 2C.F ....|A-4 2F.F ....|A#4 3F4F ....
....|..|--- .... ....|--- .... ....|--- .... ....
....|..|D-2 2F.A ....|--- .... ....|G-4 3F4A ....
....|..|--- .... ....|--- .... ....|--- .... ....
 D-4|..|D-2 2A.F ....|A#4 2F.F ....|A-4 3F4F ....
....|..|R-- .... ....|--- .... ....|--- .... ....
....|..|D-3 2F.A ....|A-4 2F.A ....|A#4 3F4A ....
....|..|--- .... ....|--- .... ....|--- .... ....
....|..|C-4 AF.F ....|R-- .... ....|G#4 3F4F ....
....|..|R-- .... ....|--- .... ....|--- .... ....
....|..|D-2 2F.A ....|A#4 2F.A ....|A-4 3F4A ....
....|..|--- .... ....|--- .... ....|--- .... ....
....|..|C-4 AF.F ....|A-4 2F.7 ....|G-4 3F4F ....
 D-4|..|D-3 2C.F ....|--- .... ....|--- .... ....
....|..|C-4 AF.A ....|R-- .... ....|G#4 3F4A ....
....|..|R-- .... ....|--- .... ....|--- .... ....

[Pattern28]
 G-3|..|G-1 2A.F ....|A#3 2F.F ....|D-4 3F.F ....
....|..|--- .... ....|--- .... ....|--- .... ....
....|..|C-4 AF.A ....|--- .... ....|G-4 3F4A ....
....|..|D-3 2F.A ....|--- .... ....|--- .... ....
 G-4|..|G-2 2A.F ....|R-- .... ....|G#4 3F47 ....
....|..|R-- .... ....|--- .... ....|--- .... ....
....|..|G-1 2F.A ....|A#3 2F.A ....|D-4 3F.A ....
....|..|--- .... ....|--- .... ....|--- .... ....
....|..|B-8 JF.F ....|A#4 2F1F ....|G-4 3F47 ....
....|..|D-3 2F.7 ....|--- .... ....|--- .... ....
....|..|G-2 2F.A ....|--- .... ....|--- .... ....
....|..|--- .... ....|--- .... ....|--- .... ....
 G-3|..|G-1 2A.F ....|G-4 2F.F ....|A#4 3F.F ....
....|..|--- .... ....|--- .... ....|--- .... ....
....|..|B-8 JF.A ....|A#4 2F1A ....|--- .... ....
....|..|R-- .... ....|--- .... ....|--- .... ....
 G-4|..|G-2 2A.F ....|A#4 2F1F ....|--- .... ....
....|..|--- .... ....|--- .... ....|--- .... ....
....|..|G-1 2F.A ....|G-4 2F.A ....|A#4 3F.A ....
....|..|--- .... ....|--- .... ....|--- .... ....
 G-3|..|G-1 2A.F ....|A#4 2F1F ....|--- .... ....
....|..|R-- .... ....|--- .... ....|--- .... ....
....|..|G-2 2F.A ....|A#4 2F1A ....|--- .... ....
....|..|--- .... ....|--- .... ....|--- .... ....
....|..|B-8 JF.F ....|A#3 2F.F ....|D-4 3F.F ....
....|..|R-- .... ....|--- .... ....|--- .... ....
....|..|G-1 2F.A ....|A#4 2F1A ....|--- .... ....
....|..|--- .... ....|--- .... ....|--- .... ....
 G-4|..|G-2 2A.F ....|A#4 2F17 ....|--- .... ....
....|..|--- .... ....|--- .... ....|--- .... ....
....|..|B-8 JF.A ....|A#3 2F.A ....|D-4 3F.A ....
....|..|R-- .... ....|--- .... ....|--- .... ....
 C-4|..|C-2 2A.F ....|C-4 2F.F ....|D#4 3F.F ....
....|..|--- .... ....|--- .... ....|--- .... ....
....|..|G-2 2F.A ....|--- .... ....|--- .... ....
....|..|--- .... ....|--- .... ....|--- .... ....
 C-3|..|C-3 2C.F ....|A#3 2F.7 ....|D-4 3F.7 ....
....|..|R-- .... ....|--- .... ....|--- .... ....
....|..|C-2 2F.A ....|C-4 2F.A ....|D#4 3F.A ....
....|..|--- .... ....|--- .... ....|--- .... ....
....|..|B-8 JF.F ....|A#4 2F1F ....|--- .... ....
....|..|R-- .... ....|--- .... ....|--- .... ....
....|..|C-3 2F.A ....|--- .... ....|--- .... ....
....|..|--- .... ....|--- .... ....|--- .... ....
 C-4|..|C-2 2A.F ....|C-4 2F.F ....|D#4 3F.7 ....
....|..|--- .... ....|--- .... ....|--- .... ....
....|..|B-8 JF.A ....|A#4 2F1A ....|--- .... ....
....|..|R-- .... ....|--- .... ....|--- .... ....
 C-3|..|C-3 2C.F ....|A#4 2F1F ....|--- .... ....
....|..|--- .... ....|--- .... ....|--- .... ....
....|..|C-2 2F.A ....|C-4 2F.A ....|--- .... ....
....|..|--- .... ....|--- .... ....|--- .... ....
 C-4|..|C-2 2A.F ....|A#4 2F1F ....|--- .... ....
....|..|R-- .... ....|--- .... ....|--- .... ....
....|..|C-3 2F.A ....|A#4 2F1A ....|--- .... ....
....|..|--- .... ....|--- .... ....|--- .... ....
....|..|C-4 AF.F ....|C-4 2F.F ....|--- .... ....
....|..|R-- .... ....|--- .... ....|--- .... ....
....|..|C-2 2F.A ....|A#4 2F1A ....|--- .... ....
....|..|--- .... ....|--- .... ....|--- .... ....
....|..|C-4 AF.F ....|A#4 2F17 ....|--- .... ....
 C-3|..|C-3 2C.F ....|--- .... ....|--- .... ....
....|..|C-4 AF.A ....|C-4 2F.A ....|--- .... ....
....|..|R-- .... ....|--- .... ....|--- .... ....

[Pattern32]
 G-3|..|G-1 2A.F ....|A#3 2F.F ....|D-4 3F.F ....
....|..|--- .... ....|--- .... ....|--- .... ....
....|..|C-4 AF.A ....|--- .... ....|--- .... ....
....|..|G-2 2F.A ....|--- .... ....|--- .... ....
 G-4|..|G-2 2A.F ....|D-4 2F.7 ....|--- .... ....
....|..|R-- .... ....|--- .... ....|--- .... ....
....|..|G-1 2F.A ....|A#3 2F.A ....|D-4 3F.A ....
....|..|--- .... ....|--- .... ....|--- .... ....
....|..|B-8 JF.F ....|A#4 2F1F ....|--- .... ....
....|..|G-2 2F.7 ....|--- .... ....|--- .... ....
....|..|G-2 2F.A ....|--- .... ....|--- .... ....
....|..|--- .... ....|--- .... ....|--- .... ....
 G-3|..|G-1 2A.F ....|G-4 2F.F ....|A#4 3F.F ....
....|..|--- .... ....|--- .... ....|--- .... ....
....|..|B-8 JF.A ....|A#4 2F1A ....|--- .... ....
....|..|R-- .... ....|--- .... ....|--- .... ....
 G-4|..|G-2 2A.F ....|A#4 2F1F ....|--- .... ....
....|..|--- .... ....|--- .... ....|--- .... ....
....|..|G-1 2F.A ....|G-4 2F.A ....|A#4 3F.A ....
....|..|--- .... ....|--- .... ....|--- .... ....
 G-3|..|G-1 2A.F ....|A#4 2F1F ....|--- .... ....
....|..|R-- .... ....|--- .... ....|--- .... ....
....|..|G-2 2F.A ....|A#4 2F1A ....|--- .... ....
....|..|--- .... ....|--- .... ....|--- .... ....
....|..|B-8 JF.F ....|A#3 2F.F ....|D-4 3F.F ....
....|..|R-- .... ....|--- .... ....|--- .... ....
....|..|G-1 2F.A ....|A#4 2F1A ....|--- .... ....
....|..|--- .... ....|--- .... ....|--- .... ....
 G-4|..|G-2 2A.F ....|A#4 2F17 ....|--- .... ....
....|..|--- .... ....|--- .... ....|--- .... ....
....|..|B-8 JF.A ....|A#3 2F.A ....|D-4 3F.A ....
....|..|R-- .... ....|--- .... ....|--- .... ....
 C-4|..|C-2 2A.F ....|C-4 2F.F ....|D#4 3F.F ....
....|..|--- .... ....|--- .... ....|--- .... ....
....|..|G-2 2F.A ....|--- .... ....|--- .... ....
....|..|--- .... ....|--- .... ....|--- .... ....
 C-3|..|C-3 2C.F ....|A#3 2F.7 ....|D-4 3F.7 ....
....|..|R-- .... ....|--- .... ....|--- .... ....
....|..|C-2 2F.A ....|C-4 2F.A ....|D#4 3F.A ....
....|..|--- .... ....|--- .... ....|--- .... ....
....|..|B-8 JF.F ....|A#4 2F1F ....|--- .... ....
....|..|R-- .... ....|--- .... ....|--- .... ....
....|..|C-3 2F.A ....|--- .... ....|--- .... ....
....|..|--- .... ....|--- .... ....|--- .... ....
 C-4|..|C-2 2A.F ....|C-4 2F.F ....|D#4 3F.7 ....
....|..|--- .... ....|--- .... ....|--- .... ....
....|..|B-8 JF.A ....|A#4 2F1A ....|--- .... ....
....|..|R-- .... ....|--- .... ....|--- .... ....
 C-3|..|C-3 2C.F ....|A#4 2F1F ....|--- .... ....
....|..|--- .... ....|--- .... ....|--- .... ....
....|..|C-2 2F.A ....|C-4 2F.A ....|--- .... ....
....|..|--- .... ....|--- .... ....|--- .... ....
 C-4|..|C-2 2A.F ....|A#4 2F1F ....|--- .... ....
....|..|R-- .... ....|--- .... ....|--- .... ....
....|..|C-3 2F.A ....|A#4 2F1A ....|--- .... ....
....|..|--- .... ....|--- .... ....|--- .... ....
....|..|C-4 AF.F ....|C-4 2F.F ....|--- .... ....
....|..|R-- .... ....|--- .... ....|--- .... ....
....|..|C-2 2F.A ....|A#4 2F1A ....|--- .... ....
....|..|--- .... ....|--- .... ....|--- .... ....
....|..|C-4 AF.F ....|A#4 2F17 ....|--- .... ....
 C-3|..|C-3 2C.F ....|--- .... ....|--- .... ....
....|..|C-4 AF.A ....|C-4 2F.A ....|--- .... ....
....|..|R-- .... ....|--- .... ....|--- .... ....

[Pattern36]
 C#4|..|C#2 2A.F ....|C#4 2F.F ....|F-4 3F2F ....
....|..|--- .... ....|--- .... ....|--- .... ....
....|..|C-4 AF.A ....|--- .... ....|--- .... ....
....|..|G-2 2F.A ....|--- .... ....|--- .... ....
 C#4|..|C#3 2C.F ....|C-4 2F.F ....|--- .... ....
....|..|R-- .... ....|--- .... ....|--- .... ....
....|..|C#2 2F.A ....|C#4 2F.A ....|F-4 3F2A ....
....|..|--- .... ....|--- .... ....|--- .... ....
....|..|C-4 AF.7 ....|G-3 2F.F ....|--- .... ....
....|..|G-2 2F.7 ....|--- .... ....|--- .... ....
....|..|C#3 2F.A ....|C-4 2F.A ....|--- .... ....
....|..|--- .... ....|--- .... ....|--- .... ....
 C#4|..|C#2 2A.F ....|C#4 2F.F ....|F-4 3F27 ....
....|..|--- .... ....|--- .... ....|--- .... ....
....|..|R-- .... ....|G-3 2F.A ....|--- .... ....
....|..|--- .... ....|--- .... ....|--- .... ....
 C#4|..|C#3 2C.F ....|C-4 2F.7 ....|--- .... ....
....|..|--- .... ....|--- .... ....|--- .... ....
....|..|C#2 2F.A ....|C#4 2F.A ....|--- .... ....
....|..|--- .... ....|--- .... ....|--- .... ....
 C#4|..|C#2 2A.F ....|C-4 2F.F ....|--- .... ....
....|..|--- .... ....|--- .... ....|--- .... ....
....|..|C#3 2F.A ....|--- .... ....|--- .... ....
....|..|--- .... ....|--- .... ....|--- .... ....
....|..|C#2 2F.7 ....|G-3 2F.F ....|--- .... ....
....|..|--- .... ....|--- .... ....|--- .... ....
....|..|C#2 2F.A ....|C-4 2F.A ....|--- .... ....
....|..|--- .... ....|--- .... ....|--- .... ....
 C#4|..|C#3 2C.F ....|C#4 2F.F ....|--- .... ....
....|..|--- .... ....|--- .... ....|--- .... ....
....|..|R-- .... ....|G-3 2F.A ....|--- .... ....
....|..|--- .... ....|--- .... ....|--- .... ....
 C#4|..|C#2 2A.F ....|C-4 2F.7 ....|F-4 3F2F ....
....|..|--- .... ....|--- .... ....|--- .... ....
....|..|C#3 2F.A ....|C#4 2F.A ....|--- .... ....
....|..|--- .... ....|--- .... ....|--- .... ....
 C#4|..|C#3 2C.F ....|C-4 2F.F ....|--- .... ....
....|..|--- .... ....|--- .... ....|--- .... ....
....|..|C#2 2F.A ....|--- .... ....|F-4 3F2A ....
....|..|--- .... ....|--- .... ....|--- .... ....
....|..|C#3 2F.7 ....|G-3 2F.F ....|--- .... ....
....|..|--- .... ....|--- .... ....|--- .... ....
....|..|C#3 2F.A ....|C-4 2F.A ....|--- .... ....
....|..|--- .... ....|--- .... ....|--- .... ....
 C#4|..|C#2 2A.F ....|C#4 2F.F ....|F-4 3F27 ....
....|..|--- .... ....|--- .... ....|--- .... ....
....|..|R-- .... ....|G-3 2F.A ....|--- .... ....
....|..|--- .... ....|--- .... ....|--- .... ....
 C#4|..|C#3 2C.F ....|C-4 2F.7 ....|F-4 3F3F ....
....|..|--- .... ....|--- .... ....|--- .... ....
....|..|C#2 2F.A ....|C#4 2F.A ....|--- .... ....
....|..|--- .... ....|--- .... ....|--- .... ....
 C#4|..|C#2 2A.F ....|C-4 2F.F ....|--- .... ....
....|..|--- .... ....|--- .... ....|--- .... ....
....|..|C#3 2F.A ....|--- .... ....|F-4 3F3A ....
....|..|--- .... ....|--- .... ....|--- .... ....
....|..|C#2 2F.7 ....|G-3 2F.F ....|F-4 3F2F ....
....|..|--- .... ....|--- .... ....|--- .... ....
....|..|C#2 2F.A ....|C-4 2F.A ....|--- .... ....
....|..|--- .... ....|--- .... ....|--- .... ....
 C#4|..|C#3 2C.F ....|C#4 2F.F ....|F-4 3F37 ....
....|..|--- .... ....|--- .... ....|--- .... ....
....|..|R-- .... ....|G-3 2F.A ....|F-4 3F2A ....
....|..|--- .... ....|--- .... ....|--- .... ....

[Pattern40]
 G-3|..|G-1 2A.F ....|A#4 2F1F ....|C#5 3F.F ....
....|..|--- .... ....|--- .... ....|--- .... ....
....|..|C-3 2F.A ....|C#4 2F.A ....|G#4 3F.7 ....
....|..|--- .... ....|--- .... ....|--- .... ....
 G-4|..|G-2 2A.F ....|A#4 2F1F ....|D-5 3F.F ....
....|..|--- .... ....|--- .... ....|--- .... ....
....|..|G-1 2F.A ....|A#4 2F1A ....|A#4 3F.7 ....
....|..|--- .... ....|--- .... ....|--- .... ....
....|..|B-8 JF.F ....|A#4 2F.F ....|C-5 3F.F ....
....|..|R-- .... ....|--- .... ....|--- .... ....
....|..|G-2 2F.A ....|A#4 2F1A ....|D-5 3F.A ....
....|..|--- .... ....|--- .... ....|--- .... ....
 G-3|..|G-1 2A.F ....|A#4 2F1F ....|D-5 3F.F ....
....|..|--- .... ....|--- .... ....|--- .... ....
....|..|B-8 JF.A ....|A#4 2F.A ....|C-5 3F.A ....
....|..|R-- .... ....|--- .... ....|--- .... ....
 G-4|..|G-2 2A.F ....|A-4 2F.F ....|A#4 3F.F ....
....|..|--- .... ....|--- .... ....|--- .... ....
....|..|G-1 2F.A ....|A#4 2F1A ....|D-5 3F.A ....
....|..|--- .... ....|--- .... ....|--- .... ....
 G-3|..|G-1 2A.F ....|A#4 2F.F ....|D-5 3F.F ....
....|..|R-- .... ....|--- .... ....|--- .... ....
....|..|G-2 2F.A ....|A-4 2F.A ....|A#4 3F.A ....
....|..|--- .... ....|--- .... ....|--- .... ....
....|..|B-8 JF.F ....|A#4 2F1F ....|A-4 3F.F ....
....|..|R-- .... ....|--- .... ....|--- .... ....
....|..|G-1 2F.A ....|A#4 2F.A ....|D-5 3F.A ....
....|..|--- .... ....|--- .... ....|--- .... ....
 G-4|..|G-2 2A.F ....|G-4 2F.F ....|G-4 3F.F ....
....|..|--- .... ....|--- .... ....|--- .... ....
....|..|B-8 JF.A ....|A#4 2F1A ....|A-4 3F.A ....
....|..|R-- .... ....|--- .... ....|--- .... ....
 G-3|..|G-1 2A.F ....|A#4 2F1F ....|D-5 3F.7 ....
....|..|--- .... ....|--- .... ....|--- .... ....
....|..|G-2 2F.A ....|G-4 2F.A ....|G-4 3F.A ....
....|..|--- .... ....|--- .... ....|--- .... ....
 G-4|..|G-2 2A.F ....|G-4 2F.F ....|D-5 3F.F ....
....|..|R-- .... ....|--- .... ....|--- .... ....
....|..|G-1 2F.A ....|A#4 2F1A ....|R-- .... ....
....|..|--- .... ....|--- .... ....|--- .... ....
....|..|B-8 JF.F ....|A#4 2F.F ....|C-5 3F.F ....
....|..|R-- .... ....|--- .... ....|--- .... ....
....|..|G-2 2F.A ....|G-4 2F.A ....|D-5 3F.A ....
....|..|--- .... ....|--- .... ....|--- .... ....
 G-3|..|G-1 2A.F ....|A#4 2F17 ....|D-5 3F.F ....
....|..|--- .... ....|--- .... ....|--- .... ....
....|..|B-8 JF.A ....|A#4 2F.A ....|C-5 3F.A ....
....|..|R-- .... ....|--- .... ....|--- .... ....
 G-4|..|G-2 2A.F ....|A-4 2F.F ....|A#4 3F.F ....
....|..|--- .... ....|--- .... ....|--- .... ....
....|..|G-1 2F.A ....|--- .... ....|D-5 3F.A ....
....|..|--- .... ....|--- .... ....|--- .... ....
 G-3|..|G-1 2A.F ....|A#4 2F.F ....|D-5 3F.F ....
....|..|R-- .... ....|--- .... ....|--- .... ....
....|..|G-2 2F.A ....|A-4 2F.A ....|A#4 3F.A ....
....|..|--- .... ....|--- .... ....|--- .... ....
....|..|C-4 AF.F ....|R-- .... ....|A-4 3F.F ....
....|..|R-- .... ....|--- .... ....|--- .... ....
....|..|G-1 2F.A ....|A#4 2F.A ....|D-5 3F.A ....
....|..|--- .... ....|--- .... ....|--- .... ....
....|..|C-4 AF.F ....|A-4 2F.7 ....|G-4 3F.F ....
 G-4|..|G-2 2A.F ....|--- .... ....|--- .... ....
....|..|C-4 AF.A ....|R-- .... ....|A-4 3F.A ....
....|..|R-- .... ....|--- .... ....|--- .... ....

[Pattern41]
 D#4|..|D#2 2A.F ....|A#4 2F1F ....|C#5 3F.F ....
....|..|--- .... ....|--- .... ....|--- .... ....
....|..|C-4 AF.A ....|--- .... ....|G-4 3F.A ....
....|..|G-2 2F.A ....|--- .... ....|--- .... ....
 D#4|..|D#3 2C.F ....|A#4 2F1F ....|D-5 3F.F ....
....|..|R-- .... ....|--- .... ....|--- .... ....
....|..|D#2 2F.A ....|A#4 2F1A ....|C#5 3F.A ....
....|..|--- .... ....|--- .... ....|--- .... ....
....|..|B-8 JF.F ....|A#4 2F.F ....|C-5 3F.F ....
....|..|G-2 2F.7 ....|--- .... ....|--- .... ....
....|..|D#3 2F.A ....|A#4 2F1A ....|D-5 3F.A ....
....|..|--- .... ....|--- .... ....|--- .... ....
 D#4|..|D#2 2A.F ....|A#4 2F1F ....|D-5 3F.F ....
....|..|--- .... ....|--- .... ....|--- .... ....
....|..|B-8 JF.A ....|A#4 2F.A ....|C-5 3F.A ....
....|..|R-- .... ....|--- .... ....|--- .... ....
 D#4|..|D#3 2C.F ....|A-4 2F.F ....|A#4 3F.F ....
....|..|--- .... ....|--- .... ....|--- .... ....
....|..|D#2 2F.A ....|A#4 2F1A ....|D-5 3F.A ....
....|..|--- .... ....|--- .... ....|--- .... ....
 D#4|..|D#2 2A.F ....|A#4 2F.F ....|D-5 3F.F ....
....|..|R-- .... ....|--- .... ....|--- .... ....
....|..|D#3 2F.A ....|A-4 2F.A ....|A#4 3F.A ....
....|..|--- .... ....|--- .... ....|--- .... ....
....|..|B-8 JF.F ....|A#4 2F1F ....|A-4 3F.F ....
....|..|R-- .... ....|--- .... ....|--- .... ....
....|..|D#2 2F.A ....|A#4 2F.A ....|D-5 3F.A ....
....|..|--- .... ....|--- .... ....|--- .... ....
 D#4|..|D#3 2C.F ....|G-4 2F.F ....|G-4 3F.F ....
....|..|--- .... ....|--- .... ....|--- .... ....
....|..|B-8 JF.A ....|A#4 2F1A ....|A-4 3F.A ....
....|..|R-- .... ....|--- .... ....|--- .... ....
 D#4|..|D#2 2A.F ....|A#4 2F1F ....|D-5 3F.7 ....
....|..|--- .... ....|--- .... ....|--- .... ....
....|..|D#3 2F.A ....|G-4 2F.A ....|G-4 3F.A ....
....|..|--- .... ....|--- .... ....|--- .... ....
 D#4|..|D#3 2C.F ....|G-4 2F.F ....|D-5 3F.F ....
....|..|R-- .... ....|--- .... ....|--- .... ....
....|..|D#2 2F.A ....|A#4 2F1A ....|R-- .... ....
....|..|--- .... ....|--- .... ....|--- .... ....
....|..|B-8 JF.F ....|A#4 2F.F ....|C-5 3F.F ....
....|..|R-- .... ....|--- .... ....|--- .... ....
....|..|D#3 2F.A ....|G-4 2F.A ....|D-5 3F.A ....
....|..|--- .... ....|--- .... ....|--- .... ....
 D#4|..|D#2 2A.F ....|A#4 2F17 ....|D-5 3F.F ....
....|..|--- .... ....|--- .... ....|--- .... ....
....|..|B-8 JF.A ....|A#4 2F.A ....|C-5 3F.A ....
....|..|R-- .... ....|--- .... ....|--- .... ....
 D#4|..|D#3 2C.F ....|A-4 2F.F ....|A#4 3F.F ....
....|..|--- .... ....|--- .... ....|--- .... ....
....|..|D#2 2F.A ....|--- .... ....|D-5 3F.A ....
....|..|--- .... ....|--- .... ....|--- .... ....
 D#4|..|D#2 2A.F ....|A#4 2F.F ....|D-5 3F.F ....
....|..|R-- .... ....|--- .... ....|--- .... ....
....|..|D#3 2F.A ....|A-4 2F.A ....|A#4 3F.A ....
....|..|--- .... ....|--- .... ....|--- .... ....
....|..|C-4 AF.F ....|R-- .... ....|A-4 3F.F ....
....|..|R-- .... ....|--- .... ....|--- .... ....
....|..|D#2 2F.A ....|A#4 2F.A ....|D-5 3F.A ....
....|..|--- .... ....|--- .... ....|--- .... ....
....|..|C-4 AF.F ....|A-4 2F.7 ....|G-4 3F.F ....
 D#4|..|D#3 2C.F ....|--- .... ....|--- .... ....
....|..|C-4 AF.A ....|R-- .... ....|A-4 3F.A ....
....|..|R-- .... ....|--- .... ....|--- .... ....

[Pattern42]
 C-4|..|C-2 2A.F ....|A#4 2F1F ....|F#5 3F.F ....
....|..|--- .... ....|--- .... ....|--- .... ....
....|..|C-4 AF.A ....|--- .... ....|G-4 3F.A ....
....|..|D#3 2F.A ....|--- .... ....|--- .... ....
 C-3|..|C-3 2C.F ....|A#4 2F1F ....|G-5 3F.F ....
....|..|R-- .... ....|--- .... ....|--- .... ....
....|..|C-2 2F.A ....|A#4 2F1A ....|F#5 3F.A ....
....|..|--- .... ....|--- .... ....|--- .... ....
....|..|B-8 JF.F ....|A#4 2F.F ....|F-5 3F.F ....
....|..|D#3 2F.7 ....|--- .... ....|--- .... ....
....|..|C-3 2F.A ....|A#4 2F1A ....|G-5 3F.A ....
....|..|--- .... ....|--- .... ....|--- .... ....
 C-4|..|C-2 2A.F ....|A#4 2F1F ....|G-5 3F.F ....
....|..|--- .... ....|--- .... ....|--- .... ....
....|..|B-8 JF.A ....|A#4 2F.A ....|F-5 3F.A ....
....|..|R-- .... ....|--- .... ....|--- .... ....
 C-3|..|C-3 2C.F ....|A-4 2F.F ....|D#5 3F.F ....
....|..|--- .... ....|--- .... ....|--- .... ....
....|..|C-2 2F.A ....|A#4 2F1A ....|G-5 3F.A ....
....|..|--- .... ....|--- .... ....|--- .... ....
 C-4|..|C-2 2A.F ....|A#4 2F.F ....|G-5 3F.F ....
....|..|R-- .... ....|--- .... ....|--- .... ....
....|..|C-3 2F.A ....|A-4 2F.A ....|D#5 3F.A ....
....|..|--- .... ....|--- .... ....|--- .... ....
....|..|B-8 JF.F ....|A#4 2F1F ....|D-5 3F.F ....
....|..|R-- .... ....|--- .... ....|--- .... ....
....|..|C-2 2F.A ....|A#4 2F.A ....|G-5 3F.A ....
....|..|--- .... ....|--- .... ....|--- .... ....
 C-3|..|C-3 2C.F ....|G-4 2F.F ....|C-5 3F.F ....
....|..|--- .... ....|--- .... ....|--- .... ....
....|..|B-8 JF.A ....|A#4 2F1A ....|D-5 3F.A ....
....|..|R-- .... ....|--- .... ....|--- .... ....
 C-4|..|C-2 2A.F ....|A#4 2F1F ....|G-5 3F.7 ....
....|..|--- .... ....|--- .... ....|--- .... ....
....|..|C-3 2F.A ....|G-4 2F.A ....|C-5 3F.A ....
....|..|--- .... ....|--- .... ....|--- .... ....
 C-3|..|C-3 2C.F ....|G-4 2F.F ....|G-5 3F.F ....
....|..|R-- .... ....|--- .... ....|--- .... ....
....|..|C-2 2F.A ....|A#4 2F1A ....|R-- .... ....
....|..|--- .... ....|--- .... ....|--- .... ....
....|..|B-8 JF.F ....|A#4 2F.F ....|F-5 3F.F ....
....|..|R-- .... ....|--- .... ....|--- .... ....
....|..|C-3 2F.A ....|G-4 2F.A ....|G-5 3F.A ....
....|..|--- .... ....|--- .... ....|--- .... ....
 C-4|..|C-2 2A.F ....|A#4 2F17 ....|G-5 3F.F ....
....|..|--- .... ....|--- .... ....|--- .... ....
....|..|B-8 JF.A ....|A#4 2F.A ....|F-5 3F.A ....
....|..|R-- .... ....|--- .... ....|--- .... ....
 C-3|..|C-3 2C.F ....|A-4 2F.F ....|D#5 3F.F ....
....|..|--- .... ....|--- .... ....|--- .... ....
....|..|C-2 2F.A ....|--- .... ....|G-5 3F.A ....
....|..|--- .... ....|--- .... ....|--- .... ....
 C-4|..|C-2 2A.F ....|A#4 2F.F ....|G-5 3F.F ....
....|..|R-- .... ....|--- .... ....|--- .... ....
....|..|C-3 2F.A ....|A-4 2F.A ....|D#5 3F.A ....
....|..|--- .... ....|--- .... ....|--- .... ....
....|..|C-4 AF.F ....|R-- .... ....|D-5 3F.F ....
....|..|R-- .... ....|--- .... ....|--- .... ....
....|..|C-2 2F.A ....|A#4 2F.A ....|G-5 3F.A ....
....|..|--- .... ....|--- .... ....|--- .... ....
....|..|C-4 AF.F ....|A-4 2F.7 ....|C-5 3F.F ....
 C-3|..|C-3 2C.F ....|--- .... ....|--- .... ....
....|..|C-4 AF.A ....|R-- .... ....|D-5 3F.A ....
....|..|R-- .... ....|--- .... ....|--- .... ....

[Pattern43]
 D-4|..|D-2 2A.F ....|A#4 2F1F ....|F#5 3F.F ....
....|..|--- .... ....|--- .... ....|--- .... ....
....|..|C-4 AF.A ....|--- .... ....|C-5 3F.A ....
....|..|C-3 2F.A ....|--- .... ....|--- .... ....
 D-4|..|D-3 2C.F ....|A#4 2F1F ....|G-5 3F.F ....
....|..|R-- .... ....|--- .... ....|--- .... ....
....|..|D-2 2F.A ....|A#4 2F1A ....|F#5 3F.A ....
....|..|--- .... ....|--- .... ....|--- .... ....
....|..|B-8 JF.F ....|A#4 2F.F ....|F-5 3F.F ....
....|..|C-3 2F.7 ....|--- .... ....|--- .... ....
....|..|D-3 2F.A ....|A#4 2F1A ....|G-5 3F.A ....
....|..|--- .... ....|--- .... ....|--- .... ....
 D-4|..|D-2 2A.F ....|A#4 2F1F ....|G-5 3F.F ....
....|..|--- .... ....|--- .... ....|--- .... ....
....|..|B-8 JF.A ....|A#4 2F.A ....|F-5 3F.A ....
....|..|R-- .... ....|--- .... ....|--- .... ....
 D-4|..|D-3 2C.F ....|A-4 2F.F ....|D#5 3F.F ....
....|..|--- .... ....|--- .... ....|--- .... ....
....|..|D-2 2F.A ....|A#4 2F1A ....|G-5 3F.A ....
....|..|--- .... ....|--- .... ....|--- .... ....
 D-4|..|D-2 2A.F ....|A#4 2F.F ....|G-5 3F.F ....
....|..|R-- .... ....|--- .... ....|--- .... ....
....|..|D-3 2F.A ....|A-4 2F.A ....|D#5 3F.A ....
....|..|--- .... ....|--- .... ....|--- .... ....
....|..|B-8 JF.F ....|A#4 2F1F ....|D-5 3F.F ....
....|..|R-- .... ....|--- .... ....|--- .... ....
....|..|D-2 2F.A ....|A#4 2F.A ....|G-5 3F.A ....
....|..|--- .... ....|--- .... ....|--- .... ....
 D-4|..|D-3 2C.F ....|G-4 2F.F ....|C-5 3F.F ....
....|..|--- .... ....|--- .... ....|--- .... ....
....|..|B-8 JF.A ....|A#4 2F1A ....|D-5 3F.A ....
....|..|R-- .... ....|--- .... ....|--- .... ....
 D-4|..|D-2 2A.F ....|A#4 2F1F ....|G-5 3F.7 ....
....|..|--- .... ....|--- .... ....|--- .... ....
....|..|D-3 2F.A ....|G-4 2F.A ....|C-5 3F.A ....
....|..|--- .... ....|--- .... ....|--- .... ....
 D-4|..|D-3 2C.F ....|G-4 2F.F ....|G-5 3F.F ....
....|..|R-- .... ....|--- .... ....|--- .... ....
....|..|D-2 2F.A ....|A#4 2F1A ....|R-- .... ....
....|..|--- .... ....|--- .... ....|--- .... ....
....|..|B-8 JF.F ....|A#4 2F.F ....|F-5 3F.F ....
....|..|R-- .... ....|--- .... ....|--- .... ....
....|..|D-3 2F.A ....|G-4 2F.A ....|G-5 3F.A ....
....|..|--- .... ....|--- .... ....|--- .... ....
 D-4|..|D-2 2A.F ....|A#4 2F17 ....|G-5 3F.F ....
....|..|--- .... ....|--- .... ....|--- .... ....
....|..|B-8 JF.A ....|A#4 2F.A ....|F-5 3F.A ....
....|..|R-- .... ....|--- .... ....|--- .... ....
 D-4|..|D-3 2C.F ....|A-4 2F.F ....|D#5 3F.F ....
....|..|--- .... ....|--- .... ....|--- .... ....
....|..|D-2 2F.A ....|--- .... ....|G-5 3F.A ....
....|..|--- .... ....|--- .... ....|--- .... ....
 D-4|..|D-2 2A.F ....|A#4 2F.F ....|G-5 3F.F ....
....|..|R-- .... ....|--- .... ....|--- .... ....
....|..|D-3 2F.A ....|A-4 2F.A ....|D#5 3F.A ....
....|..|--- .... ....|--- .... ....|--- .... ....
....|..|C-4 AF.F ....|R-- .... ....|D-5 3F.F ....
....|..|R-- .... ....|--- .... ....|--- .... ....
....|..|D-2 2F.A ....|A#4 2F.A ....|G-5 3F.A ....
....|..|--- .... ....|--- .... ....|--- .... ....
....|..|C-4 AF.F ....|A-4 2F.7 ....|C-5 3F.F ....
 D-4|..|D-3 2C.F ....|--- .... ....|--- .... ....
....|..|C-4 AF.A ....|R-- .... ....|D-5 3F.A ....
....|..|R-- .... ....|--- .... ....|--- .... ....

[Pattern44]
 G-3|..|G-1 2A.F ....|A#4 2F1F ....|C#5 3F.F ....
....|..|--- .... ....|--- .... ....|--- .... ....
....|..|C-4 AF.A ....|--- .... ....|C-5 3F.A ....
....|..|D-3 2F.A ....|--- .... ....|--- .... ....
 G-4|..|G-2 2A.F ....|A#4 2F1F ....|D-5 3F.F ....
....|..|R-- .... ....|--- .... ....|--- .... ....
....|..|G-1 2F.A ....|A#4 2F1A ....|C#5 3F.A ....
....|..|--- .... ....|--- .... ....|--- .... ....
....|..|B-8 JF.F ....|A#4 2F.F ....|C-5 3F.F ....
....|..|D-3 2F.7 ....|--- .... ....|--- .... ....
....|..|G-2 2F.A ....|A#4 2F1A ....|D-5 3F.A ....
....|..|--- .... ....|--- .... ....|--- .... ....
 G-3|..|G-1 2A.F ....|A#4 2F1F ....|D-5 3F.F ....
....|..|--- .... ....|--- .... ....|--- .... ....
....|..|B-8 JF.A ....|A#4 2F.A ....|C-5 3F.A ....
....|..|R-- .... ....|--- .... ....|--- .... ....
 G-4|..|G-2 2A.F ....|A-4 2F.F ....|A#4 3F.F ....
....|..|--- .... ....|--- .... ....|--- .... ....
....|..|G-1 2F.A ....|A#4 2F1A ....|D-5 3F.A ....
....|..|--- .... ....|--- .... ....|--- .... ....
 G-3|..|G-1 2A.F ....|A#4 2F.F ....|D-5 3F.F ....
....|..|R-- .... ....|--- .... ....|--- .... ....
....|..|G-2 2F.A ....|A-4 2F.A ....|A#4 3F.A ....
....|..|--- .... ....|--- .... ....|--- .... ....
....|..|B-8 JF.F ....|A#4 2F1F ....|A-4 3F.F ....
....|..|R-- .... ....|--- .... ....|--- .... ....
....|..|G-1 2F.A ....|A#4 2F.A ....|D-5 3F.A ....
....|..|--- .... ....|--- .... ....|--- .... ....
 G-4|..|G-2 2A.F ....|G-4 2F.F ....|G-4 3F.F ....
....|..|--- .... ....|--- .... ....|--- .... ....
....|..|B-8 JF.A ....|A#4 2F1A ....|A-4 3F.A ....
....|..|R-- .... ....|--- .... ....|--- .... ....
 G-3|..|G-1 2A.F ....|A#4 2F1F ....|D-5 3F.7 ....
....|..|--- .... ....|--- .... ....|--- .... ....
....|..|G-2 2F.A ....|G-4 2F.A ....|G-4 3F.A ....
....|..|--- .... ....|--- .... ....|--- .... ....
 G-4|..|G-2 2A.F ....|G-4 2F.F ....|D-5 3F.F ....
....|..|R-- .... ....|--- .... ....|--- .... ....
....|..|G-1 2F.A ....|A#4 2F1A ....|R-- .... ....
....|..|--- .... ....|--- .... ....|--- .... ....
....|..|B-8 JF.F ....|A#4 2F.F ....|C-5 3F.F ....
....|..|R-- .... ....|--- .... ....|--- .... ....
....|..|G-2 2F.A ....|G-4 2F.A ....|D-5 3F.A ....
....|..|--- .... ....|--- .... ....|--- .... ....
 G-3|..|G-1 2A.F ....|A#4 2F17 ....|D-5 3F.F ....
....|..|--- .... ....|--- .... ....|--- .... ....
....|..|B-8 JF.A ....|A#4 2F.A ....|C-5 3F.A ....
....|..|R-- .... ....|--- .... ....|--- .... ....
 G-4|..|G-2 2A.F ....|A-4 2F.F ....|A#4 3F.F ....
....|..|--- .... ....|--- .... ....|--- .... ....
....|..|G-1 2F.A ....|--- .... ....|D-5 3F.A ....
....|..|--- .... ....|--- .... ....|--- .... ....
 G-3|..|G-1 2A.F ....|A#4 2F.F ....|D-5 3F.F ....
....|..|R-- .... ....|--- .... ....|--- .... ....
....|..|G-2 2F.A ....|A-4 2F.A ....|A#4 3F.A ....
....|..|--- .... ....|--- .... ....|--- .... ....
....|..|C-4 AF.F ....|R-- .... ....|A-4 3F.F ....
....|..|R-- .... ....|--- .... ....|--- .... ....
....|..|G-1 2F.A ....|A#4 2F.A ....|D-5 3F.A ....
....|..|--- .... ....|--- .... ....|--- .... ....
....|..|C-4 AF.F ....|A-4 2F.7 ....|G-4 3F.F ....
 G-4|..|G-2 2A.F ....|--- .... ....|--- .... ....
....|..|C-4 AF.A ....|R-- .... ....|A-4 3F.A ....
....|..|R-- .... ....|--- .... ....|--- .... ....

[Pattern47]
 G#3|..|G#1 2A.F ....|F#4 2F1F ....|F-5 3F.F ....
....|..|--- .... ....|--- .... ....|--- .... ....
....|..|C-4 AF.A ....|--- .... ....|C-5 3F.A ....
....|..|C-3 2F.A ....|--- .... ....|--- .... ....
 G#4|..|G#2 2A.F ....|G#4 2F.F ....|F#5 3F.F ....
....|..|R-- .... ....|--- .... ....|--- .... ....
....|..|G#1 2F.A ....|F#4 2F1A ....|F-5 3F.A ....
....|..|--- .... ....|--- .... ....|--- .... ....
....|..|B-8 JF.F ....|C-5 2F.F ....|D#5 3F.F ....
....|..|C-3 2F.7 ....|--- .... ....|--- .... ....
....|..|G#2 2F.A ....|G#4 2F.A ....|F#5 3F.A ....
....|..|--- .... ....|--- .... ....|--- .... ....
 G#3|..|G#1 2A.F ....|F#4 2F1F ....|F#5 3F.F ....
....|..|--- .... ....|--- .... ....|--- .... ....
....|..|B-8 JF.A ....|C-5 2F.A ....|D#5 3F.A ....
....|..|R-- .... ....|--- .... ....|--- .... ....
 G#4|..|G#2 2A.F ....|A#4 2F.F ....|D-5 3F.F ....
....|..|--- .... ....|--- .... ....|--- .... ....
....|..|G#1 2F.A ....|F#4 2F1A ....|F#5 3F.A ....
....|..|--- .... ....|--- .... ....|--- .... ....
 G#3|..|G#1 2A.F ....|G#4 2F.F ....|F#5 3F.F ....
....|..|R-- .... ....|--- .... ....|--- .... ....
....|..|G#2 2F.A ....|A#4 2F.A ....|D-5 3F.A ....
....|..|--- .... ....|--- .... ....|--- .... ....
....|..|C-4 AF.F ....|F#4 2F17 ....|C#5 3F.F ....
....|..|R-- .... ....|--- .... ....|--- .... ....
....|..|G#1 2F.A ....|G#4 2F.A ....|F#5 3F.A ....
....|..|--- .... ....|--- .... ....|--- .... ....
....|..|C-4 AF.F ....|A#4 2F.7 ....|C-5 3F.F ....
 G#4|..|G#2 2A.F ....|--- .... ....|--- .... ....
....|..|C-4 AF.A ....|R-- .... ....|C#5 3F.A ....
....|..|R-- .... ....|--- .... ....|--- .... ....
 G#3|..|G#1 2A.F ....|F#4 2F1F ....|F#5 3F.7 ....
....|..|--- .... ....|--- .... ....|--- .... ....
....|..|C-4 AF.A ....|--- .... ....|C-5 3F.A ....
....|..|G#2 2F.A ....|--- .... ....|--- .... ....
 G#4|..|G#2 2A.F ....|G#4 2F.F ....|F#5 3F.F ....
....|..|R-- .... ....|--- .... ....|--- .... ....
....|..|G#1 2F.A ....|F#4 2F1A ....|R-- .... ....
....|..|--- .... ....|--- .... ....|--- .... ....
....|..|B-8 JF.F ....|C-5 2F.F ....|F-5 3F.F ....
....|..|G#2 2F.7 ....|--- .... ....|--- .... ....
....|..|G#2 2F.A ....|G#4 2F.A ....|F#5 3F.A ....
....|..|--- .... ....|--- .... ....|--- .... ....
 G#3|..|G#1 2A.F ....|F#4 2F1F ....|F#5 3F.F ....
....|..|--- .... ....|--- .... ....|--- .... ....
....|..|B-8 JF.A ....|C-5 2F.A ....|F-5 3F.A ....
....|..|R-- .... ....|--- .... ....|--- .... ....
 G#4|..|G#2 2A.F ....|A#4 2F.F ....|D#5 3F.F ....
....|..|--- .... ....|--- .... ....|--- .... ....
....|..|G#1 2F.A ....|F#4 2F1A ....|F#5 3F.A ....
....|..|--- .... ....|--- .... ....|--- .... ....
 G#3|..|G#1 2A.F ....|G#4 2F.F ....|F#5 3F.F ....
....|..|R-- .... ....|--- .... ....|--- .... ....
....|..|G#2 2F.A ....|A#4 2F.A ....|D#5 3F.A ....
....|..|--- .... ....|--- .... ....|--- .... ....
....|..|C-4 AF.F ....|F#4 2F17 ....|C#5 3F.F ....
....|..|R-- .... ....|--- .... ....|--- .... ....
....|..|G#1 2F.A ....|G#4 2F.A ....|F#5 3F.A ....
....|..|--- .... ....|--- .... ....|--- .... ....
....|..|C-4 AF.F ....|A#4 2F.7 ....|C-5 3F.F ....
 G#4|..|G#2 2A.F ....|--- .... ....|--- .... ....
....|..|C-4 AF.A ....|R-- .... ....|C#5 3F.A ....
....|..|R-- .... ....|--- .... ....|--- .... ....

[Pattern48]
 G#3|..|G#1 2A.F ....|F#4 2F1F ....|F-5 3F.F ....
....|..|--- .... ....|--- .... ....|--- .... ....
....|..|C-4 AF.A ....|--- .... ....|C-5 3F.A ....
....|..|G#2 2F.A ....|--- .... ....|--- .... ....
 G#4|..|G#2 2A.F ....|G#4 2F.F ....|F#5 3F.F ....
....|..|R-- .... ....|--- .... ....|--- .... ....
....|..|G#1 2F.A ....|F#4 2F1A ....|F-5 3F.A ....
....|..|--- .... ....|--- .... ....|--- .... ....
....|..|B-8 JF.F ....|C-5 2F.F ....|D#5 3F.F ....
....|..|G#2 2F.7 ....|--- .... ....|--- .... ....
....|..|G#2 2F.A ....|G#4 2F.A ....|F#5 3F.A ....
....|..|--- .... ....|--- .... ....|--- .... ....
 G#3|..|G#1 2A.F ....|F#4 2F1F ....|F#5 3F.F ....
....|..|--- .... ....|--- .... ....|--- .... ....
....|..|B-8 JF.A ....|C-5 2F.A ....|D#5 3F.A ....
....|..|R-- .... ....|--- .... ....|--- .... ....
 G#4|..|G#2 2A.F ....|A#4 2F.F ....|D-5 3F.F ....
....|..|--- .... ....|--- .... ....|--- .... ....
....|..|G#1 2F.A ....|F#4 2F1A ....|F#5 3F.A ....
....|..|--- .... ....|--- .... ....|--- .... ....
 G#3|..|G#1 2A.F ....|G#4 2F.F ....|F#5 3F.F ....
....|..|R-- .... ....|--- .... ....|--- .... ....
....|..|G#2 2F.A ....|A#4 2F.A ....|D-5 3F.A ....
....|..|--- .... ....|--- .... ....|--- .... ....
....|..|C-4 AF.F ....|F#4 2F17 ....|C#5 3F.F ....
....|..|R-- .... ....|--- .... ....|--- .... ....
....|..|G#1 2F.A ....|G#4 2F.A ....|F#5 3F.A ....
....|..|--- .... ....|--- .... ....|--- .... ....
....|..|C-4 AF.F ....|A#4 2F.7 ....|C-5 3F.F ....
 G#4|..|G#2 2A.F ....|--- .... ....|--- .... ....
....|..|C-4 AF.A ....|R-- .... ....|C#5 3F.A ....
....|..|R-- .... ....|--- .... ....|--- .... ....
 G#3|..|G#1 2A.F ....|F#4 2F1F ....|F#5 3F.7 ....
....|..|--- .... ....|--- .... ....|--- .... ....
....|..|C-4 AF.A ....|--- .... ....|C-5 3F.A ....
....|..|G#2 2F.A ....|--- .... ....|--- .... ....
 G#4|..|G#2 2A.F ....|G#4 2F.F ....|F#5 3F.F ....
....|..|R-- .... ....|--- .... ....|--- .... ....
....|..|G#1 2F.A ....|F#4 2F1A ....|R-- .... ....
....|..|--- .... ....|--- .... ....|--- .... ....
....|..|B-8 JF.F ....|C-5 2F.F ....|F-5 3F.F ....
....|..|G#2 2F.7 ....|--- .... ....|--- .... ....
....|..|G#2 2F.A ....|G#4 2F.A ....|F#5 3F.A ....
....|..|--- .... ....|--- .... ....|--- .... ....
 G#3|..|G#1 2A.F ....|F#4 2F1F ....|F#5 3F.F ....
....|..|--- .... ....|--- .... ....|--- .... ....
....|..|B-8 JF.A ....|C-5 2F.A ....|F-5 3F.A ....
....|..|R-- .... ....|--- .... ....|--- .... ....
 G#4|..|G#2 2A.F ....|A#4 2F.F ....|D#5 3F.F ....
....|..|--- .... ....|--- .... ....|--- .... ....
....|..|G#1 2F.A ....|F#4 2F1A ....|F#5 3F.A ....
....|..|--- .... ....|--- .... ....|--- .... ....
 G#3|..|G#1 2A.F ....|G#4 2F.F ....|F#5 3F.F ....
....|..|R-- .... ....|--- .... ....|--- .... ....
....|..|G#2 2F.A ....|A#4 2F.A ....|D#5 3F.A ....
....|..|--- .... ....|--- .... ....|--- .... ....
....|..|C-4 AF.F ....|F#4 2F17 ....|C#5 3F.F ....
....|..|R-- .... ....|--- .... ....|--- .... ....
....|..|G#1 2F.A ....|G#4 2F.A ....|F#5 3F.A ....
....|..|--- .... ....|--- .... ....|--- .... ....
....|..|C-4 AF.F ....|A#4 2F.7 ....|C-5 3F.F ....
 G#4|..|G#2 2A.F ....|--- .... ....|--- .... ....
....|..|C-4 AF.A ....|R-- .... ....|C#5 3F.A ....
....|..|R-- .... ....|--- .... ....|--- .... ....

[Pattern49]
 A#3|..|A#1 2A.F ....|A#3 2F2F ....|A#4 3F4F ....
....|..|--- .... ....|--- .... ....|--- .... ....
....|..|C-4 AF.A ....|--- .... ....|C-5 3F.A ....
....|..|G#2 2F.A ....|--- .... ....|--- .... ....
 A#3|..|A#2 2C.F ....|A#3 2F2F ....|C#5 3F.7 ....
....|..|R-- .... ....|--- .... ....|--- .... ....
....|..|A#1 2F.A ....|A#3 2F2A ....|A#4 3F4A ....
....|..|--- .... ....|--- .... ....|--- .... ....
....|..|B-8 JF.F ....|A#3 2F3F ....|A#4 3F.F ....
....|..|G#2 2F.7 ....|--- .... ....|--- .... ....
....|..|A#2 2F.A ....|A#3 2F2A ....|--- .... ....
....|..|--- .... ....|--- .... ....|--- .... ....
 A#3|..|A#1 2A.F ....|A#4 2F4F ....|A#4 3F47 ....
....|..|--- .... ....|--- .... ....|--- .... ....
....|..|B-8 JF.A ....|A#3 2F3A ....|A#4 3F.A ....
....|..|R-- .... ....|--- .... ....|--- .... ....
 A#3|..|A#2 2C.F ....|A#3 2F2F ....|--- .... ....
....|..|--- .... ....|--- .... ....|--- .... ....
....|..|A#1 2F.A ....|A#4 2F4A ....|--- .... ....
....|..|--- .... ....|--- .... ....|--- .... ....
 A#3|..|A#1 2A.F ....|A#4 2F4F ....|F#5 3F.F ....
....|..|R-- .... ....|--- .... ....|--- .... ....
....|..|A#2 2F.A ....|A#3 2F2A ....|--- .... ....
....|..|--- .... ....|--- .... ....|--- .... ....
....|..|B-8 JF.F ....|A#3 2F3F ....|--- .... ....
....|..|R-- .... ....|--- .... ....|--- .... ....
....|..|A#1 2F.A ....|A#4 2F4A ....|F#5 3F.A ....
....|..|--- .... ....|--- .... ....|--- .... ....
 A#3|..|A#2 2C.F ....|A#3 2F2F ....|--- .... ....
....|..|--- .... ....|--- .... ....|--- .... ....
....|..|B-8 JF.A ....|A#3 2F3A ....|--- .... ....
....|..|R-- .... ....|--- .... ....|--- .... ....
 A#3|..|A#1 2A.F ....|A#4 2F4F ....|F-5 3F.F ....
....|..|--- .... ....|--- .... ....|--- .... ....
....|..|A#2 2F.A ....|A#3 2F2A ....|--- .... ....
....|..|--- .... ....|--- .... ....|--- .... ....
 A#3|..|A#2 2C.F ....|A#3 2F2F ....|--- .... ....
....|..|R-- .... ....|--- .... ....|--- .... ....
....|..|A#1 2F.A ....|A#4 2F4A ....|F-5 3F.A ....
....|..|--- .... ....|--- .... ....|--- .... ....
....|..|B-8 JF.F ....|A#3 2F3F ....|--- .... ....
....|..|R-- .... ....|--- .... ....|--- .... ....
....|..|A#2 2F.A ....|A#3 2F2A ....|--- .... ....
....|..|--- .... ....|--- .... ....|--- .... ....
 A#3|..|A#1 2A.F ....|A#4 2F4F ....|C#6 3F.F ....
....|..|--- .... ....|--- .... ....|--- .... ....
....|..|B-8 JF.A ....|A#3 2F3A ....|--- .... ....
....|..|R-- .... ....|--- .... ....|--- .... ....
 A#3|..|A#2 2C.F ....|A#3 2F2F ....|--- .... ....
....|..|--- .... ....|--- .... ....|--- .... ....
....|..|A#1 2F.A ....|A#4 2F4A ....|C#6 3F.A ....
....|..|--- .... ....|--- .... ....|--- .... ....
 A#3|..|A#1 2A.F ....|A#3 2F2F ....|--- .... ....
....|..|R-- .... ....|--- .... ....|--- .... ....
....|..|A#2 2F.A ....|A#3 2F2A ....|--- .... ....
....|..|--- .... ....|--- .... ....|--- .... ....
....|..|B-8 JF.F ....|A#3 2F3F ....|C#6 3F.7 ....
....|..|R-- .... ....|--- .... ....|--- .... ....
....|..|A#1 2F.A ....|A#3 2F2A ....|--- .... ....
....|..|--- .... ....|--- .... ....|--- .... ....
 A#3|..|A#2 2C.F ....|A#4 2F4F ....|--- .... ....
....|..|--- .... ....|--- .... ....|--- .... ....
....|..|B-8 JF.A ....|A#3 2F3A ....|--- .... ....
....|..|R-- .... ....|--- .... ....|--- .... ....

[Pattern50]
 A#3|..|A#1 2A.F ....|A#3 2F2F ....|R-- .... ....
....|..|--- .... ....|--- .... ....|--- .... ....
....|..|A#2 2F.A ....|A#4 2F4A ....|--- .... ....
....|..|--- .... ....|--- .... ....|--- .... ....
 A#3|..|A#2 2C.F ....|A#4 2F4F ....|--- .... ....
....|..|R-- .... ....|--- .... ....|--- .... ....
....|..|A#1 2F.A ....|A#3 2F2A ....|R-- .... ....
....|..|--- .... ....|--- .... ....|--- .... ....
....|..|B-8 JF.F ....|A#3 2F3F ....|--- .... ....
....|..|R-- .... ....|--- .... ....|--- .... ....
....|..|A#2 2F.A ....|A#4 2F4A ....|--- .... ....
....|..|--- .... ....|--- .... ....|--- .... ....
 A#3|..|A#1 2A.F ....|A#3 2F2F ....|F-4 3F6F ....
....|..|--- .... ....|--- .... ....|--- .... ....
....|..|B-8 JF.A ....|A#3 2F3A ....|--- .... ....
....|..|R-- .... ....|--- .... ....|--- .... ....
 A#3|..|A#2 2C.F ....|A#4 2F4F ....|F-4 3F7F ....
....|..|--- .... ....|--- .... ....|--- .... ....
....|..|A#1 2F.A ....|A#3 2F2A ....|F-4 3F6A ....
....|..|--- .... ....|--- .... ....|--- .... ....
 A#3|..|A#1 2A.F ....|A#3 2F2F ....|F-4 3F5F ....
....|..|R-- .... ....|--- .... ....|--- .... ....
....|..|A#2 2F.A ....|A#4 2F4A ....|F-4 3F7A ....
....|..|--- .... ....|--- .... ....|--- .... ....
....|..|B-8 JF.F ....|A#3 2F3F ....|F-4 3F8F ....
....|..|R-- .... ....|--- .... ....|--- .... ....
....|..|A#1 2F.A ....|A#3 2F2A ....|F-4 3F5A ....
....|..|--- .... ....|--- .... ....|--- .... ....
 A#3|..|A#2 2C.F ....|A#4 2F4F ....|F-4 3F6F ....
....|..|--- .... ....|--- .... ....|--- .... ....
....|..|B-8 JF.A ....|A#3 2F3A ....|F-4 3F8A ....
....|..|R-- .... ....|--- .... ....|--- .... ....
 G#3|..|G#1 2A.F ....|A#3 2F2F ....|G#4 3F4F ....
....|..|--- .... ....|--- .... ....|--- .... ....
....|..|A#2 2F.A ....|A#4 2F4A ....|F-4 3F6A ....
....|..|--- .... ....|--- .... ....|--- .... ....
 G#4|..|G#2 2A.F ....|A#3 2F2F ....|F-4 3F87 ....
....|..|R-- .... ....|--- .... ....|--- .... ....
....|..|G#1 2F.A ....|A#3 2F2A ....|G#4 3F4A ....
....|..|--- .... ....|--- .... ....|--- .... ....
....|..|B-8 JF.F ....|A#3 2F3F ....|A#4 3F.F ....
....|..|R-- .... ....|--- .... ....|--- .... ....
....|..|G#2 2F.A ....|A#3 2F2A ....|--- .... ....
....|..|--- .... ....|--- .... ....|--- .... ....
 G#3|..|G#1 2A.F ....|A#4 2F4F ....|G#4 3F47 ....
....|..|--- .... ....|--- .... ....|--- .... ....
....|..|B-8 JF.A ....|A#3 2F3A ....|A#4 3F.A ....
....|..|R-- .... ....|--- .... ....|--- .... ....
 G#4|..|G#2 2A.F ....|A#3 2F2F ....|--- .... ....
....|..|--- .... ....|--- .... ....|--- .... ....
....|..|G#1 2F.A ....|A#4 2F4A ....|--- .... ....
....|..|--- .... ....|--- .... ....|--- .... ....
 G#3|..|G#1 2A.F ....|A#4 2F4F ....|F#5 3F.F ....
....|..|R-- .... ....|--- .... ....|--- .... ....
....|..|G#2 2F.A ....|A#3 2F2A ....|--- .... ....
....|..|--- .... ....|--- .... ....|--- .... ....
....|..|B-8 JF.F ....|A#3 2F3F ....|--- .... ....
....|..|R-- .... ....|--- .... ....|--- .... ....
....|..|G#1 2F.A ....|A#4 2F4A ....|F#5 3F.A ....
....|..|--- .... ....|--- .... ....|--- .... ....
 G#4|..|G#2 2A.F ....|A#3 2F2F ....|--- .... ....
....|..|--- .... ....|--- .... ....|--- .... ....
....|..|B-8 JF.A ....|A#3 2F3A ....|--- .... ....
....|..|R-- .... ....|--- .... ....|--- .... ....

[Pattern51]
 G#3|..|G#1 2A.F ....|A#4 2F4F ....|F-5 3F.F ....
....|..|--- .... ....|--- .... ....|--- .... ....
....|..|G#2 2F.A ....|A#3 2F2A ....|--- .... ....
....|..|--- .... ....|--- .... ....|--- .... ....
 G#4|..|G#2 2A.F ....|A#3 2F2F ....|--- .... ....
....|..|R-- .... ....|--- .... ....|--- .... ....
....|..|G#1 2F.A ....|A#4 2F4A ....|F-5 3F.A ....
....|..|--- .... ....|--- .... ....|--- .... ....
....|..|B-8 JF.F ....|A#3 2F3F ....|--- .... ....
....|..|R-- .... ....|--- .... ....|--- .... ....
....|..|G#2 2F.A ....|A#3 2F2A ....|--- .... ....
....|..|--- .... ....|--- .... ....|--- .... ....
 G#3|..|G#1 2A.F ....|A#4 2F4F ....|G#5 3F.F ....
....|..|--- .... ....|--- .... ....|--- .... ....
....|..|B-8 JF.A ....|A#3 2F3A ....|--- .... ....
....|..|R-- .... ....|--- .... ....|--- .... ....
 G#4|..|G#2 2A.F ....|A#3 2F2F ....|--- .... ....
....|..|--- .... ....|--- .... ....|--- .... ....
....|..|G#1 2F.A ....|A#4 2F4A ....|G#5 3F.A ....
....|..|--- .... ....|--- .... ....|--- .... ....
 G#3|..|G#1 2A.F ....|A#3 2F2F ....|--- .... ....
....|..|R-- .... ....|--- .... ....|--- .... ....
....|..|G#2 2F.A ....|A#3 2F2A ....|--- .... ....
....|..|--- .... ....|--- .... ....|--- .... ....
....|..|B-8 JF.F ....|A#3 2F3F ....|G#5 3F.7 ....
....|..|R-- .... ....|--- .... ....|--- .... ....
....|..|G#1 2F.A ....|A#3 2F2A ....|--- .... ....
....|..|--- .... ....|--- .... ....|--- .... ....
 G#4|..|G#2 2A.F ....|A#4 2F4F ....|--- .... ....
....|..|--- .... ....|--- .... ....|--- .... ....
....|..|B-8 JF.A ....|A#3 2F3A ....|--- .... ....
....|..|R-- .... ....|--- .... ....|--- .... ....
 G#3|..|G#1 2A.F ....|A#3 2F2F ....|R-- .... ....
....|..|--- .... ....|--- .... ....|--- .... ....
....|..|G#2 2F.A ....|A#4 2F4A ....|--- .... ....
....|..|--- .... ....|--- .... ....|--- .... ....
 G#4|..|G#2 2A.F ....|A#4 2F4F ....|--- .... ....
....|..|R-- .... ....|--- .... ....|--- .... ....
....|..|G#1 2F.A ....|A#3 2F2A ....|R-- .... ....
....|..|--- .... ....|--- .... ....|--- .... ....
....|..|B-8 JF.F ....|A#3 2F3F ....|--- .... ....
....|..|R-- .... ....|--- .... ....|--- .... ....
....|..|G#2 2F.A ....|A#4 2F4A ....|--- .... ....
....|..|--- .... ....|--- .... ....|--- .... ....
 G#3|..|G#1 2A.F ....|A#3 2F2F ....|D#4 3F1F ....
....|..|--- .... ....|--- .... ....|--- .... ....
....|..|B-8 JF.A ....|A#3 2F3A ....|--- .... ....
....|..|R-- .... ....|--- .... ....|--- .... ....
 G#4|..|G#2 2A.F ....|A#4 2F4F ....|D#4 3F4F ....
....|..|--- .... ....|--- .... ....|--- .... ....
....|..|G#1 2F.A ....|A#3 2F2A ....|D#4 3F1A ....
....|..|--- .... ....|--- .... ....|--- .... ....
 G#3|..|G#1 2A.F ....|A#3 2F2F ....|D#4 3F9F ....
....|..|R-- .... ....|--- .... ....|--- .... ....
....|..|G#2 2F.A ....|A#4 2F4A ....|D#4 3F4A ....
....|..|--- .... ....|--- .... ....|--- .... ....
....|..|B-8 JF.F ....|A#3 2F3F ....|D#4 3FAF ....
....|..|R-- .... ....|--- .... ....|--- .... ....
....|..|G#1 2F.A ....|A#3 2F2A ....|D#4 3F9A ....
....|..|--- .... ....|--- .... ....|--- .... ....
 G#4|..|G#2 2A.F ....|A#4 2F4F ....|D#4 3F1F ....
....|..|--- .... ....|--- .... ....|--- .... ....
....|..|B-8 JF.A ....|A#3 2F3A ....|D#4 3FAA ....
....|..|R-- .... ....|--- .... ....|--- .... ....

[Pattern52]
 D#4|..|D#2 2A.F ....|A#3 2F2F ....|D#4 3F4F ....
....|..|--- .... ....|--- .... ....|--- .... ....
....|..|G#2 2F.A ....|A#4 2F4A ....|D#4 3F1A ....
....|..|--- .... ....|--- .... ....|--- .... ....
 D#4|..|D#3 2C.F ....|A#3 2F2F ....|D#4 3FA7 ....
....|..|R-- .... ....|--- .... ....|--- .... ....
....|..|D#2 2F.A ....|A#3 2F2A ....|D#4 3F4A ....
....|..|--- .... ....|--- .... ....|--- .... ....
....|..|B-8 JF.F ....|A#3 2F3F ....|A#4 3F.F ....
....|..|R-- .... ....|--- .... ....|--- .... ....
....|..|D#3 2F.A ....|A#3 2F2A ....|--- .... ....
....|..|--- .... ....|--- .... ....|--- .... ....
 D#4|..|D#2 2A.F ....|A#4 2F4F ....|D#4 3F47 ....
....|..|--- .... ....|--- .... ....|--- .... ....
....|..|B-8 JF.A ....|A#3 2F3A ....|A#4 3F.A ....
....|..|R-- .... ....|--- .... ....|--- .... ....
 D#4|..|D#3 2C.F ....|A#3 2F2F ....|--- .... ....
....|..|--- .... ....|--- .... ....|--- .... ....
....|..|D#2 2F.A ....|A#4 2F4A ....|--- .... ....
....|..|--- .... ....|--- .... ....|--- .... ....
 D#4|..|D#2 2A.F ....|A#4 2F4F ....|C#5 3F.F ....
....|..|R-- .... ....|--- .... ....|--- .... ....
....|..|D#3 2F.A ....|A#3 2F2A ....|--- .... ....
....|..|--- .... ....|--- .... ....|--- .... ....
....|..|B-8 JF.F ....|A#3 2F3F ....|--- .... ....
....|..|R-- .... ....|--- .... ....|--- .... ....
....|..|D#2 2F.A ....|A#4 2F4A ....|C#5 3F.A ....
....|..|--- .... ....|--- .... ....|--- .... ....
 D#4|..|D#3 2C.F ....|A#3 2F2F ....|--- .... ....
....|..|--- .... ....|--- .... ....|--- .... ....
....|..|B-8 JF.A ....|A#3 2F3A ....|--- .... ....
....|..|R-- .... ....|--- .... ....|--- .... ....
 D#4|..|D#2 2A.F ....|A#4 2F4F ....|C-5 3F.F ....
....|..|--- .... ....|--- .... ....|--- .... ....
....|..|D#3 2F.A ....|A#3 2F2A ....|--- .... ....
....|..|--- .... ....|--- .... ....|--- .... ....
 D#4|..|D#3 2C.F ....|A#3 2F2F ....|--- .... ....
....|..|R-- .... ....|--- .... ....|--- .... ....
....|..|D#2 2F.A ....|A#4 2F4A ....|C-5 3F.A ....
....|..|--- .... ....|--- .... ....|--- .... ....
....|..|B-8 JF.F ....|A#3 2F3F ....|--- .... ....
....|..|R-- .... ....|--- .... ....|--- .... ....
....|..|D#3 2F.A ....|A#3 2F2A ....|--- .... ....
....|..|--- .... ....|--- .... ....|--- .... ....
 D#4|..|D#2 2A.F ....|A#4 2F4F ....|D#5 3F.F ....
....|..|--- .... ....|--- .... ....|--- .... ....
....|..|B-8 JF.A ....|A#3 2F3A ....|--- .... ....
....|..|R-- .... ....|--- .... ....|--- .... ....
 D#4|..|D#3 2C.F ....|A#3 2F2F ....|--- .... ....
....|..|--- .... ....|--- .... ....|--- .... ....
....|..|D#2 2F.A ....|A#4 2F4A ....|D#5 3F.A ....
....|..|--- .... ....|--- .... ....|--- .... ....
 D#4|..|D#2 2A.F ....|A#3 2F2F ....|--- .... ....
....|..|R-- .... ....|--- .... ....|--- .... ....
....|..|D#3 2F.A ....|A#3 2F2A ....|--- .... ....
....|..|--- .... ....|--- .... ....|--- .... ....
....|..|B-8 JF.F ....|A#3 2F3F ....|D#5 3F.7 ....
....|..|R-- .... ....|--- .... ....|--- .... ....
....|..|D#2 2F.A ....|A#3 2F2A ....|--- .... ....
....|..|--- .... ....|--- .... ....|--- .... ....
 D#4|..|D#3 2C.F ....|A#4 2F4F ....|--- .... ....
....|..|--- .... ....|--- .... ....|--- .... ....
....|..|B-8 JF.A ....|A#3 2F3A ....|--- .... ....
....|..|R-- .... ....|--- .... ....|--- .... ....

[Pattern53]
 D#4|..|D#2 2A.F ....|A#3 2F2F ....|R-- .... ....
....|..|--- .... ....|--- .... ....|--- .... ....
....|..|D#3 2F.A ....|A#4 2F4A ....|--- .... ....
....|..|--- .... ....|--- .... ....|--- .... ....
 D#4|..|D#3 2C.F ....|A#4 2F4F ....|--- .... ....
....|..|R-- .... ....|--- .... ....|--- .... ....
....|..|D#2 2F.A ....|A#3 2F2A ....|R-- .... ....
....|..|--- .... ....|--- .... ....|--- .... ....
....|..|B-8 JF.F ....|A#3 2F3F ....|--- .... ....
....|..|R-- .... ....|--- .... ....|--- .... ....
....|..|D#3 2F.A ....|A#4 2F4A ....|--- .... ....
....|..|--- .... ....|--- .... ....|--- .... ....
 D#4|..|D#2 2A.F ....|A#3 2F2F ....|F#4 3F1F ....
....|..|--- .... ....|--- .... ....|--- .... ....
....|..|B-8 JF.A ....|A#3 2F3A ....|--- .... ....
....|..|R-- .... ....|--- .... ....|--- .... ....
 D#4|..|D#3 2C.F ....|A#4 2F4F ....|F#4 3F4F ....
....|..|--- .... ....|--- .... ....|--- .... ....
....|..|D#2 2F.A ....|A#3 2F2A ....|F#4 3F1A ....
....|..|--- .... ....|--- .... ....|--- .... ....
 D#4|..|D#2 2A.F ....|A#3 2F2F ....|F#4 3F9F ....
....|..|R-- .... ....|--- .... ....|--- .... ....
....|..|D#3 2F.A ....|A#4 2F4A ....|F#4 3F4A ....
....|..|--- .... ....|--- .... ....|--- .... ....
....|..|B-8 JF.F ....|A#3 2F3F ....|F#4 3FAF ....
....|..|R-- .... ....|--- .... ....|--- .... ....
....|..|D#2 2F.A ....|A#3 2F2A ....|F#4 3F9A ....
....|..|--- .... ....|--- .... ....|--- .... ....
 D#4|..|D#3 2C.F ....|A#4 2F4F ....|F#4 3F1F ....
....|..|--- .... ....|--- .... ....|--- .... ....
....|..|B-8 JF.A ....|A#3 2F3A ....|F#4 3FAA ....
....|..|R-- .... ....|--- .... ....|--- .... ....
 F-4|..|F-2 2A.F ....|A#3 2F2F ....|F-4 3F4F ....
....|..|--- .... ....|--- .... ....|--- .... ....
....|..|D#3 2F.A ....|A#4 2F4A ....|F#4 3F1A ....
....|..|--- .... ....|--- .... ....|--- .... ....
 F-4|..|F-3 2C.F ....|A#3 2F2F ....|F#4 3FA7 ....
....|..|R-- .... ....|--- .... ....|--- .... ....
....|..|F-2 2F.A ....|A#3 2F2A ....|F-4 3F4A ....
....|..|--- .... ....|--- .... ....|--- .... ....
....|..|B-8 JF.F ....|A#3 2F3F ....|A-4 3F.F ....
....|..|R-- .... ....|--- .... ....|--- .... ....
....|..|F-3 2F.A ....|A#3 2F2A ....|--- .... ....
....|..|--- .... ....|--- .... ....|--- .... ....
 F-4|..|F-2 2A.F ....|A#4 2F4F ....|F-4 3F47 ....
....|..|--- .... ....|--- .... ....|--- .... ....
....|..|B-8 JF.A ....|A#3 2F3A ....|A-4 3F.A ....
....|..|R-- .... ....|--- .... ....|--- .... ....
 F-4|..|F-3 2C.F ....|A#3 2F2F ....|--- .... ....
....|..|--- .... ....|--- .... ....|--- .... ....
....|..|F-2 2F.A ....|A#4 2F4A ....|--- .... ....
....|..|--- .... ....|--- .... ....|--- .... ....
 F-4|..|F-2 2A.F ....|A#4 2F4F ....|F#5 3F.F ....
....|..|R-- .... ....|--- .... ....|--- .... ....
....|..|F-3 2F.A ....|A#3 2F2A ....|--- .... ....
....|..|--- .... ....|--- .... ....|--- .... ....
....|..|B-8 JF.F ....|A#3 2F3F ....|--- .... ....
....|..|R-- .... ....|--- .... ....|--- .... ....
....|..|F-2 2F.A ....|A#4 2F4A ....|F#5 3F.A ....
....|..|--- .... ....|--- .... ....|--- .... ....
 F-4|..|F-3 2C.F ....|A#3 2F2F ....|--- .... ....
....|..|--- .... ....|--- .... ....|--- .... ....
....|..|B-8 JF.A ....|A#3 2F3A ....|--- .... ....
....|..|R-- .... ....|--- .... ....|--- .... ....

[Pattern54]
 F-4|..|F-2 2A.F ....|A#4 2F4F ....|F-5 3F.F ....
....|..|--- .... ....|--- .... ....|--- .... ....
....|..|F-3 2F.A ....|A#3 2F2A ....|--- .... ....
....|..|--- .... ....|--- .... ....|--- .... ....
 F-4|..|F-3 2C.F ....|A#3 2F2F ....|--- .... ....
....|..|R-- .... ....|--- .... ....|--- .... ....
....|..|F-2 2F.A ....|A#4 2F4A ....|F-5 3F.A ....
....|..|--- .... ....|--- .... ....|--- .... ....
....|..|B-8 JF.F ....|A#3 2F3F ....|--- .... ....
....|..|R-- .... ....|--- .... ....|--- .... ....
....|..|F-3 2F.A ....|A#3 2F2A ....|--- .... ....
....|..|--- .... ....|--- .... ....|--- .... ....
 F-4|..|F-2 2A.F ....|A#4 2F4F ....|C-6 3F.F ....
....|..|--- .... ....|--- .... ....|--- .... ....
....|..|B-8 JF.A ....|A#3 2F3A ....|--- .... ....
....|..|R-- .... ....|--- .... ....|--- .... ....
 F-4|..|F-3 2C.F ....|A#3 2F2F ....|--- .... ....
....|..|--- .... ....|--- .... ....|--- .... ....
....|..|F-2 2F.A ....|A#4 2F4A ....|C-6 3F.A ....
....|..|--- .... ....|--- .... ....|--- .... ....
 F-4|..|F-2 2A.F ....|A#3 2F2F ....|--- .... ....
....|..|R-- .... ....|--- .... ....|--- .... ....
....|..|F-3 2F.A ....|A#3 2F2A ....|--- .... ....
....|..|--- .... ....|--- .... ....|--- .... ....
....|..|B-8 JF.F ....|A#3 2F3F ....|C-6 3F.7 ....
....|..|R-- .... ....|--- .... ....|--- .... ....
....|..|F-2 2F.A ....|A#3 2F2A ....|--- .... ....
....|..|--- .... ....|--- .... ....|--- .... ....
 F-4|..|F-3 2C.F ....|A#4 2F4F ....|--- .... ....
....|..|--- .... ....|--- .... ....|--- .... ....
....|..|B-8 JF.A ....|A#3 2F3A ....|--- .... ....
....|..|R-- .... ....|--- .... ....|--- .... ....
 F-4|..|F-2 2A.F ....|A#3 2F2F ....|R-- .... ....
....|..|--- .... ....|--- .... ....|--- .... ....
....|..|F-3 2F.A ....|A#4 2F4A ....|--- .... ....
....|..|--- .... ....|--- .... ....|--- .... ....
 F-4|..|F-3 2C.F ....|A#4 2F4F ....|--- .... ....
....|..|R-- .... ....|--- .... ....|--- .... ....
....|..|F-2 2F.A ....|A#3 2F2A ....|R-- .... ....
....|..|--- .... ....|--- .... ....|--- .... ....
....|..|B-8 JF.F ....|A#3 2F3F ....|--- .... ....
....|..|R-- .... ....|--- .... ....|--- .... ....
....|..|F-3 2F.A ....|A#4 2F4A ....|--- .... ....
....|..|--- .... ....|--- .... ....|--- .... ....
 F-4|..|F-2 2A.F ....|A#3 2F2F ....|A-4 3F7F ....
....|..|--- .... ....|--- .... ....|--- .... ....
....|..|B-8 JF.A ....|A#3 2F3A ....|--- .... ....
....|..|R-- .... ....|--- .... ....|--- .... ....
 F-4|..|F-3 2C.F ....|A#4 2F4F ....|A-4 3F9F ....
....|..|--- .... ....|--- .... ....|--- .... ....
....|..|F-2 2F.A ....|A#3 2F2A ....|A-4 3F7A ....
....|..|--- .... ....|--- .... ....|--- .... ....
 F-4|..|F-2 2A.F ....|A#3 2F2F ....|A-4 3FAF ....
....|..|R-- .... ....|--- .... ....|--- .... ....
....|..|F-3 2F.A ....|A#4 2F4A ....|A-4 3F9A ....
....|..|--- .... ....|--- .... ....|--- .... ....
....|..|B-8 JF.F ....|A#3 2F3F ....|A-4 3F1F ....
....|..|R-- .... ....|--- .... ....|--- .... ....
....|..|F-2 2F.A ....|A#3 2F2A ....|A-4 3FAA ....
....|..|--- .... ....|--- .... ....|--- .... ....
 F-4|..|F-3 2C.F ....|A#4 2F4F ....|A-4 3F7F ....
....|..|--- .... ....|--- .... ....|--- .... ....
....|..|B-8 JF.A ....|A#3 2F3A ....|A-4 3F1A ....
....|..|R-- .... ....|--- .... ....|--- .... ....

[Pattern55]
 A#3|..|A#1 2A.F ....|A#3 2F2F ....|A#4 3F4F ....
....|..|--- .... ....|--- .... ....|--- .... ....
....|..|F-3 2F.A ....|A#4 2F4A ....|A-4 3F7A ....
....|..|--- .... ....|--- .... ....|--- .... ....
 A#3|..|A#2 2C.F ....|A#3 2F2F ....|A-4 3F17 ....
....|..|R-- .... ....|--- .... ....|--- .... ....
....|..|A#1 2F.A ....|A#3 2F2A ....|A#4 3F4A ....
....|..|--- .... ....|--- .... ....|--- .... ....
....|..|B-8 JF.F ....|A#3 2F3F ....|A#4 3F.F ....
....|..|R-- .... ....|--- .... ....|--- .... ....
....|..|A#2 2F.A ....|A#3 2F2A ....|--- .... ....
....|..|--- .... ....|--- .... ....|--- .... ....
 A#3|..|A#1 2A.F ....|A#4 2F4F ....|A#4 3F47 ....
....|..|--- .... ....|--- .... ....|--- .... ....
....|..|B-8 JF.A ....|A#3 2F3A ....|A#4 3F.A ....
....|..|R-- .... ....|--- .... ....|--- .... ....
 A#3|..|A#2 2C.F ....|A#3 2F2F ....|--- .... ....
....|..|--- .... ....|--- .... ....|--- .... ....
....|..|A#1 2F.A ....|A#4 2F4A ....|--- .... ....
....|..|--- .... ....|--- .... ....|--- .... ....
 A#3|..|A#1 2A.F ....|A#4 2F4F ....|F#5 3F.F ....
....|..|R-- .... ....|--- .... ....|--- .... ....
....|..|A#2 2F.A ....|A#3 2F2A ....|--- .... ....
....|..|--- .... ....|--- .... ....|--- .... ....
....|..|B-8 JF.F ....|A#3 2F3F ....|--- .... ....
....|..|R-- .... ....|--- .... ....|--- .... ....
....|..|A#1 2F.A ....|A#4 2F4A ....|F#5 3F.A ....
....|..|--- .... ....|--- .... ....|--- .... ....
 A#3|..|A#2 2C.F ....|A#3 2F2F ....|--- .... ....
....|..|--- .... ....|--- .... ....|--- .... ....
....|..|B-8 JF.A ....|A#3 2F3A ....|--- .... ....
....|..|R-- .... ....|--- .... ....|--- .... ....
 A#3|..|A#1 2A.F ....|A#4 2F4F ....|F-5 3F.F ....
....|..|--- .... ....|--- .... ....|--- .... ....
....|..|A#2 2F.A ....|A#3 2F2A ....|--- .... ....
....|..|--- .... ....|--- .... ....|--- .... ....
 A#3|..|A#2 2C.F ....|A#3 2F2F ....|--- .... ....
....|..|R-- .... ....|--- .... ....|--- .... ....
....|..|A#1 2F.A ....|A#4 2F4A ....|F-5 3F.A ....
....|..|--- .... ....|--- .... ....|--- .... ....
....|..|B-8 JF.F ....|A#3 2F3F ....|--- .... ....
....|..|R-- .... ....|--- .... ....|--- .... ....
....|..|A#2 2F.A ....|A#3 2F2A ....|--- .... ....
....|..|--- .... ....|--- .... ....|--- .... ....
 A#3|..|A#1 2A.F ....|A#4 2F4F ....|C#6 3F.F ....
....|..|--- .... ....|--- .... ....|--- .... ....
....|..|B-8 JF.A ....|A#3 2F3A ....|--- .... ....
....|..|R-- .... ....|--- .... ....|--- .... ....
 A#3|..|A#2 2C.F ....|A#3 2F2F ....|--- .... ....
....|..|--- .... ....|--- .... ....|--- .... ....
....|..|A#1 2F.A ....|A#4 2F4A ....|C#6 3F.A ....
....|..|--- .... ....|--- .... ....|--- .... ....
 A#3|..|A#1 2A.F ....|A#3 2F2F ....|--- .... ....
....|..|R-- .... ....|--- .... ....|--- .... ....
....|..|A#2 2F.A ....|A#3 2F2A ....|--- .... ....
....|..|--- .... ....|--- .... ....|--- .... ....
....|..|B-8 JF.F ....|A#3 2F3F ....|C#6 3F.7 ....
....|..|R-- .... ....|--- .... ....|--- .... ....
....|..|A#1 2F.A ....|A#3 2F2A ....|--- .... ....
....|..|--- .... ....|--- .... ....|--- .... ....
 A#3|..|A#2 2C.F ....|A#4 2F4F ....|--- .... ....
....|..|--- .... ....|--- .... ....|--- .... ....
....|..|B-8 JF.A ....|A#3 2F3A ....|--- .... ....
....|..|R-- .... ....|--- .... ....|--- .... ....

[Pattern61]
 A#3|..|A#1 2A.F ....|A#3 2F2F ....|F-4 3F6F ....
....|..|--- .... ....|--- .... ....|--- .... ....
....|..|F-3 2F.A ....|A#4 2F4A ....|A-4 3F7A ....
....|..|--- .... ....|--- .... ....|--- .... ....
 A#3|..|A#2 2C.F ....|A#3 2F2F ....|F-4 3F6F ....
....|..|R-- .... ....|--- .... ....|--- .... ....
....|..|A#1 2F.A ....|A#3 2F2A ....|F-4 3F6A ....
....|..|--- .... ....|--- .... ....|--- .... ....
....|..|B-8 JF.F ....|A#3 2F3F ....|F-4 3F6F ....
....|..|R-- .... ....|--- .... ....|--- .... ....
....|..|A#2 2F.A ....|A#3 2F2A ....|F-4 3F6A ....
....|..|--- .... ....|--- .... ....|--- .... ....
 A#3|..|A#1 2A.F ....|A#4 2F4F ....|A#4 3F4F ....
....|..|--- .... ....|--- .... ....|--- .... ....
....|..|B-8 JF.A ....|A#3 2F3A ....|F-4 3F6A ....
....|..|R-- .... ....|--- .... ....|--- .... ....
 A#3|..|A#2 2C.F ....|A#3 2F2F ....|F-4 3F6F ....
....|..|--- .... ....|--- .... ....|--- .... ....
....|..|A#1 2F.A ....|A#4 2F4A ....|A#4 3F4A ....
....|..|--- .... ....|--- .... ....|--- .... ....
 A#3|..|A#1 2A.F ....|A#4 2F4F ....|A#4 3F4F ....
....|..|R-- .... ....|--- .... ....|--- .... ....
....|..|A#2 2F.A ....|A#3 2F2A ....|F-4 3F6A ....
....|..|--- .... ....|--- .... ....|--- .... ....
....|..|B-8 JF.F ....|A#3 2F3F ....|F-4 3F6F ....
....|..|R-- .... ....|--- .... ....|--- .... ....
....|..|A#1 2F.A ....|A#4 2F4A ....|A#4 3F4A ....
....|..|--- .... ....|--- .... ....|--- .... ....
 A#3|..|A#2 2C.F ....|A#3 2F2F ....|F-4 3F6F ....
....|..|--- .... ....|--- .... ....|--- .... ....
....|..|B-8 JF.A ....|A#3 2F3A ....|F-4 3F6A ....
....|..|R-- .... ....|--- .... ....|--- .... ....
 A#3|..|A#1 2A.F ....|A#4 2F4F ....|A#4 3F4F ....
....|..|--- .... ....|--- .... ....|--- .... ....
....|..|A#2 2F.A ....|A#3 2F2A ....|F-4 3F6A ....
....|..|--- .... ....|--- .... ....|--- .... ....
 A#3|..|A#2 2C.F ....|A#3 2F2F ....|F-4 3F6F ....
....|..|R-- .... ....|--- .... ....|--- .... ....
....|..|A#1 2F.A ....|A#4 2F4A ....|A#4 3F4A ....
....|..|--- .... ....|--- .... ....|--- .... ....
....|..|B-8 JF.F ....|A#3 2F3F ....|F-4 3F6F ....
....|..|R-- .... ....|--- .... ....|--- .... ....
....|..|A#2 2F.A ....|A#3 2F2A ....|F-4 3F6A ....
....|..|--- .... ....|--- .... ....|--- .... ....
 A#3|..|A#1 2A.F ....|A#4 2F4F ....|A#4 3F4F ....
....|..|--- .... ....|--- .... ....|--- .... ....
....|..|B-8 JF.A ....|A#3 2F3A ....|F-4 3F6A ....
....|..|R-- .... ....|--- .... ....|--- .... ....
 A#3|..|A#2 2C.F ....|A#3 2F2F ....|F-4 3F6F ....
....|..|--- .... ....|--- .... ....|--- .... ....
....|..|A#1 2F.A ....|A#4 2F4A ....|A#4 3F4A ....
....|..|--- .... ....|--- .... ....|--- .... ....
 A#3|..|A#1 2A.F ....|A#3 2F2F ....|F-4 3F6F ....
....|..|R-- .... ....|--- .... ....|--- .... ....
....|..|A#2 2F.A ....|A#3 2F2A ....|F-4 3F6A ....
....|..|--- .... ....|--- .... ....|--- .... ....
....|..|B-8 JF.F ....|A#3 2F3F ....|F-4 3F6F ....
....|..|R-- .... ....|--- .... ....|--- .... ....
....|..|A#1 2F.A ....|A#3 2F2A ....|F-4 3F6A ....
....|..|--- .... ....|--- .... ....|--- .... ....
 A#3|..|A#2 2C.F ....|A#4 2F4F ....|A#4 3F4F ....
....|..|--- .... ....|--- .... ....|--- .... ....
....|..|B-8 JF.A ....|A#3 2F3A ....|F-4 3F6A ....
....|..|R-- .... ....|--- .... ....|--- .... ....

[Pattern62]
 A#3|..|A#1 2A.F ....|A#3 2F2F ....|F-4 3F6F ....
....|..|--- .... ....|--- .... ....|--- .... ....
....|..|A#2 2F.A ....|A#4 2F4A ....|A#4 3F4A ....
....|..|--- .... ....|--- .... ....|--- .... ....
 A#3|..|A#2 2C.F ....|A#4 2F4F ....|A#4 3F4F ....
....|..|R-- .... ....|--- .... ....|--- .... ....
....|..|A#1 2F.A ....|A#3 2F2A ....|F-4 3F6A ....
....|..|--- .... ....|--- .... ....|--- .... ....
....|..|B-8 JF.F ....|A#3 2F3F ....|F-4 3F6F ....
....|..|R-- .... ....|--- .... ....|--- .... ....
....|..|A#2 2F.A ....|A#4 2F4A ....|A#4 3F4A ....
....|..|--- .... ....|--- .... ....|--- .... ....
 A#3|..|A#1 2A.F ....|A#3 2F2F ....|F-4 3F6F ....
....|..|--- .... ....|--- .... ....|--- .... ....
....|..|B-8 JF.A ....|A#3 2F3A ....|F-4 3F6A ....
....|..|R-- .... ....|--- .... ....|--- .... ....
 A#3|..|A#2 2C.F ....|A#4 2F4F ....|A#4 3F4F ....
....|..|--- .... ....|--- .... ....|--- .... ....
....|..|A#1 2F.A ....|A#3 2F2A ....|F-4 3F6A ....
....|..|--- .... ....|--- .... ....|--- .... ....
 A#3|..|A#1 2A.F ....|A#3 2F2F ....|F-4 3F6F ....
....|..|R-- .... ....|--- .... ....|--- .... ....
....|..|A#2 2F.A ....|A#4 2F4A ....|A#4 3F4A ....
....|..|--- .... ....|--- .... ....|--- .... ....
....|..|B-8 JF.F ....|A#3 2F3F ....|F-4 3F6F ....
....|..|R-- .... ....|--- .... ....|--- .... ....
....|..|A#1 2F.A ....|A#3 2F2A ....|F-4 3F6A ....
....|..|--- .... ....|--- .... ....|--- .... ....
 A#3|..|A#2 2C.F ....|A#4 2F4F ....|A#4 3F4F ....
....|..|--- .... ....|--- .... ....|--- .... ....
....|..|B-8 JF.A ....|A#3 2F3A ....|F-4 3F6A ....
....|..|R-- .... ....|--- .... ....|--- .... ....
 G#3|..|G#1 2A.F ....|A#3 2F2F ....|F-4 3F6F ....
....|..|--- .... ....|--- .... ....|--- .... ....
....|..|A#2 2F.A ....|A#4 2F4A ....|A#4 3F4A ....
....|..|--- .... ....|--- .... ....|--- .... ....
 G#4|..|G#2 2A.F ....|A#3 2F2F ....|F-4 3F6F ....
....|..|R-- .... ....|--- .... ....|--- .... ....
....|..|G#1 2F.A ....|A#3 2F2A ....|F-4 3F6A ....
....|..|--- .... ....|--- .... ....|--- .... ....
....|..|B-8 JF.F ....|A#3 2F3F ....|F-4 3F6F ....
....|..|R-- .... ....|--- .... ....|--- .... ....
....|..|G#2 2F.A ....|A#3 2F2A ....|F-4 3F6A ....
....|..|--- .... ....|--- .... ....|--- .... ....
 G#3|..|G#1 2A.F ....|A#4 2F4F ....|A#4 3F4F ....
....|..|--- .... ....|--- .... ....|--- .... ....
....|..|B-8 JF.A ....|A#3 2F3A ....|F-4 3F6A ....
....|..|R-- .... ....|--- .... ....|--- .... ....
 G#4|..|G#2 2A.F ....|A#3 2F2F ....|F-4 3F6F ....
....|..|--- .... ....|--- .... ....|--- .... ....
....|..|G#1 2F.A ....|A#4 2F4A ....|A#4 3F4A ....
....|..|--- .... ....|--- .... ....|--- .... ....
 G#3|..|G#1 2A.F ....|A#4 2F4F ....|A#4 3F4F ....
....|..|R-- .... ....|--- .... ....|--- .... ....
....|..|G#2 2F.A ....|A#3 2F2A ....|F-4 3F6A ....
....|..|--- .... ....|--- .... ....|--- .... ....
....|..|B-8 JF.F ....|A#3 2F3F ....|F-4 3F6F ....
....|..|R-- .... ....|--- .... ....|--- .... ....
....|..|G#1 2F.A ....|A#4 2F4A ....|A#4 3F4A ....
....|..|--- .... ....|--- .... ....|--- .... ....
 G#4|..|G#2 2A.F ....|A#3 2F2F ....|F-4 3F6F ....
....|..|--- .... ....|--- .... ....|--- .... ....
....|..|B-8 JF.A ....|A#3 2F3A ....|F-4 3F6A ....
....|..|R-- .... ....|--- .... ....|--- .... ....

[Pattern63]
 G#3|..|G#1 2A.F ....|A#4 2F4F ....|A#4 3F4F ....
....|..|--- .... ....|--- .... ....|--- .... ....
....|..|G#2 2F.A ....|A#3 2F2A ....|F-4 3F6A ....
....|..|--- .... ....|--- .... ....|--- .... ....
 G#4|..|G#2 2A.F ....|A#3 2F2F ....|F-4 3F6F ....
....|..|R-- .... ....|--- .... ....|--- .... ....
....|..|G#1 2F.A ....|A#4 2F4A ....|A#4 3F4A ....
....|..|--- .... ....|--- .... ....|--- .... ....
....|..|B-8 JF.F ....|A#3 2F3F ....|F-4 3F6F ....
....|..|R-- .... ....|--- .... ....|--- .... ....
....|..|G#2 2F.A ....|A#3 2F2A ....|F-4 3F6A ....
....|..|--- .... ....|--- .... ....|--- .... ....
 G#3|..|G#1 2A.F ....|A#4 2F4F ....|A#4 3F4F ....
....|..|--- .... ....|--- .... ....|--- .... ....
....|..|B-8 JF.A ....|A#3 2F3A ....|F-4 3F6A ....
....|..|R-- .... ....|--- .... ....|--- .... ....
 G#4|..|G#2 2A.F ....|A#3 2F2F ....|F-4 3F6F ....
....|..|--- .... ....|--- .... ....|--- .... ....
....|..|G#1 2F.A ....|A#4 2F4A ....|A#4 3F4A ....
....|..|--- .... ....|--- .... ....|--- .... ....
 G#3|..|G#1 2A.F ....|A#3 2F2F ....|F-4 3F6F ....
....|..|R-- .... ....|--- .... ....|--- .... ....
....|..|G#2 2F.A ....|A#3 2F2A ....|F-4 3F6A ....
....|..|--- .... ....|--- .... ....|--- .... ....
....|..|B-8 JF.F ....|A#3 2F3F ....|F-4 3F6F ....
....|..|R-- .... ....|--- .... ....|--- .... ....
....|..|G#1 2F.A ....|A#3 2F2A ....|F-4 3F6A ....
....|..|--- .... ....|--- .... ....|--- .... ....
 G#4|..|G#2 2A.F ....|A#4 2F4F ....|A#4 3F4F ....
....|..|--- .... ....|--- .... ....|--- .... ....
....|..|B-8 JF.A ....|A#3 2F3A ....|F-4 3F6A ....
....|..|R-- .... ....|--- .... ....|--- .... ....
 G#3|..|G#1 2A.F ....|A#3 2F2F ....|F-4 3F6F ....
....|..|--- .... ....|--- .... ....|--- .... ....
....|..|G#2 2F.A ....|A#4 2F4A ....|A#4 3F4A ....
....|..|--- .... ....|--- .... ....|--- .... ....
 G#4|..|G#2 2A.F ....|A#4 2F4F ....|A#4 3F4F ....
....|..|R-- .... ....|--- .... ....|--- .... ....
....|..|G#1 2F.A ....|A#3 2F2A ....|F-4 3F6A ....
....|..|--- .... ....|--- .... ....|--- .... ....
....|..|B-8 JF.F ....|A#3 2F3F ....|F-4 3F6F ....
....|..|R-- .... ....|--- .... ....|--- .... ....
....|..|G#2 2F.A ....|A#4 2F4A ....|A#4 3F4A ....
....|..|--- .... ....|--- .... ....|--- .... ....
 G#3|..|G#1 2A.F ....|A#3 2F2F ....|F-4 3F6F ....
....|..|--- .... ....|--- .... ....|--- .... ....
....|..|B-8 JF.A ....|A#3 2F3A ....|F-4 3F6A ....
....|..|R-- .... ....|--- .... ....|--- .... ....
 G#4|..|G#2 2A.F ....|A#4 2F4F ....|A#4 3F4F ....
....|..|--- .... ....|--- .... ....|--- .... ....
....|..|G#1 2F.A ....|A#3 2F2A ....|F-4 3F6A ....
....|..|--- .... ....|--- .... ....|--- .... ....
 G#3|..|G#1 2A.F ....|A#3 2F2F ....|F-4 3F6F ....
....|..|R-- .... ....|--- .... ....|--- .... ....
....|..|G#2 2F.A ....|A#4 2F4A ....|A#4 3F4A ....
....|..|--- .... ....|--- .... ....|--- .... ....
....|..|B-8 JF.F ....|A#3 2F3F ....|F-4 3F6F ....
....|..|R-- .... ....|--- .... ....|--- .... ....
....|..|G#1 2F.A ....|A#3 2F2A ....|F-4 3F6A ....
....|..|--- .... ....|--- .... ....|--- .... ....
 G#4|..|G#2 2A.F ....|A#4 2F4F ....|A#4 3F4F ....
....|..|--- .... ....|--- .... ....|--- .... ....
....|..|B-8 JF.A ....|A#3 2F3A ....|F-4 3F6A ....
....|..|R-- .... ....|--- .... ....|--- .... ....

[Pattern64]
 D#4|..|D#2 2A.F ....|A#3 2F2F ....|F-4 3F6F ....
....|..|--- .... ....|--- .... ....|--- .... ....
....|..|G#2 2F.A ....|A#4 2F4A ....|A#4 3F4A ....
....|..|--- .... ....|--- .... ....|--- .... ....
 D#4|..|D#3 2C.F ....|A#3 2F2F ....|F-4 3F6F ....
....|..|R-- .... ....|--- .... ....|--- .... ....
....|..|D#2 2F.A ....|A#3 2F2A ....|F-4 3F6A ....
....|..|--- .... ....|--- .... ....|--- .... ....
....|..|B-8 JF.F ....|A#3 2F3F ....|F-4 3F6F ....
....|..|R-- .... ....|--- .... ....|--- .... ....
....|..|D#3 2F.A ....|A#3 2F2A ....|F-4 3F6A ....
....|..|--- .... ....|--- .... ....|--- .... ....
 D#4|..|D#2 2A.F ....|A#4 2F4F ....|A#4 3F4F ....
....|..|--- .... ....|--- .... ....|--- .... ....
....|..|B-8 JF.A ....|A#3 2F3A ....|F-4 3F6A ....
....|..|R-- .... ....|--- .... ....|--- .... ....
 D#4|..|D#3 2C.F ....|A#3 2F2F ....|F-4 3F6F ....
....|..|--- .... ....|--- .... ....|--- .... ....
....|..|D#2 2F.A ....|A#4 2F4A ....|A#4 3F4A ....
....|..|--- .... ....|--- .... ....|--- .... ....
 D#4|..|D#2 2A.F ....|A#4 2F4F ....|A#4 3F4F ....
....|..|R-- .... ....|--- .... ....|--- .... ....
....|..|D#3 2F.A ....|A#3 2F2A ....|F-4 3F6A ....
....|..|--- .... ....|--- .... ....|--- .... ....
....|..|B-8 JF.F ....|A#3 2F3F ....|F-4 3F6F ....
....|..|R-- .... ....|--- .... ....|--- .... ....
....|..|D#2 2F.A ....|A#4 2F4A ....|A#4 3F4A ....
....|..|--- .... ....|--- .... ....|--- .... ....
 D#4|..|D#3 2C.F ....|A#3 2F2F ....|F-4 3F6F ....
....|..|--- .... ....|--- .... ....|--- .... ....
....|..|B-8 JF.A ....|A#3 2F3A ....|F-4 3F6A ....
....|..|R-- .... ....|--- .... ....|--- .... ....
 F-4|..|F-2 2A.F ....|A#4 2F4F ....|A#4 3F4F ....
....|..|--- .... ....|--- .... ....|--- .... ....
....|..|D#3 2F.A ....|A#3 2F2A ....|F-4 3F6A ....
....|..|--- .... ....|--- .... ....|--- .... ....
 F-4|..|F-3 2C.F ....|A#3 2F2F ....|F-4 3F6F ....
....|..|R-- .... ....|--- .... ....|--- .... ....
....|..|F-2 2F.A ....|A#4 2F4A ....|A#4 3F4A ....
....|..|--- .... ....|--- .... ....|--- .... ....
....|..|B-8 JF.F ....|A#3 2F3F ....|F-4 3F6F ....
....|..|R-- .... ....|--- .... ....|--- .... ....
....|..|F-3 2F.A ....|A#3 2F2A ....|F-4 3F6A ....
....|..|--- .... ....|--- .... ....|--- .... ....
 F-4|..|F-2 2A.F ....|A#4 2F4F ....|A#4 3F4F ....
....|..|--- .... ....|--- .... ....|--- .... ....
....|..|B-8 JF.A ....|A#3 2F3A ....|F-4 3F6A ....
....|..|R-- .... ....|--- .... ....|--- .... ....
 F-4|..|F-3 2C.F ....|A#3 2F2F ....|F-4 3F6F ....
....|..|--- .... ....|--- .... ....|--- .... ....
....|..|F-2 2F.A ....|A#4 2F4A ....|A#4 3F4A ....
....|..|--- .... ....|--- .... ....|--- .... ....
 F-4|..|F-2 2A.F ....|A#3 2F2F ....|F-4 3F6F ....
....|..|R-- .... ....|--- .... ....|--- .... ....
....|..|F-3 2F.A ....|A#3 2F2A ....|F-4 3F6A ....
....|..|--- .... ....|--- .... ....|--- .... ....
....|..|B-8 JF.F ....|A#3 2F3F ....|F-4 3F6F ....
....|..|R-- .... ....|--- .... ....|--- .... ....
....|..|F-2 2F.A ....|A#3 2F2A ....|F-4 3F6A ....
....|..|--- .... ....|--- .... ....|--- .... ....
 F-4|..|F-3 2C.F ....|A#4 2F4F ....|A#4 3F4F ....
....|..|--- .... ....|--- .... ....|--- .... ....
....|..|B-8 JF.A ....|A#3 2F3A ....|F-4 3F6A ....
....|..|R-- .... ....|--- .... ....|--- .... ....

[Pattern65]
 F-4|..|F-2 2A.F ....|A#3 2F2F ....|F-4 3F6F ....
....|..|--- .... ....|--- .... ....|--- .... ....
....|..|F-3 2F.A ....|A#4 2F4A ....|A#4 3F4A ....
....|..|--- .... ....|--- .... ....|--- .... ....
 F-4|..|F-3 2C.F ....|A#4 2F4F ....|A#4 3F4F ....
....|..|R-- .... ....|--- .... ....|--- .... ....
....|..|F-2 2F.A ....|A#3 2F2A ....|F-4 3F6A ....
....|..|--- .... ....|--- .... ....|--- .... ....
....|..|B-8 JF.F ....|A#3 2F3F ....|F-4 3F6F ....
....|..|R-- .... ....|--- .... ....|--- .... ....
....|..|F-3 2F.A ....|A#4 2F4A ....|A#4 3F4A ....
....|..|--- .... ....|--- .... ....|--- .... ....
 F-4|..|F-2 2A.F ....|A#3 2F2F ....|F-4 3F6F ....
....|..|--- .... ....|--- .... ....|--- .... ....
....|..|B-8 JF.A ....|A#3 2F3A ....|F-4 3F6A ....
....|..|R-- .... ....|--- .... ....|--- .... ....
 F-4|..|F-3 2C.F ....|A#4 2F4F ....|A#4 3F4F ....
....|..|--- .... ....|--- .... ....|--- .... ....
....|..|F-2 2F.A ....|A#3 2F2A ....|F-4 3F6A ....
....|..|--- .... ....|--- .... ....|--- .... ....
 F-4|..|F-2 2A.F ....|A#3 2F2F ....|F-4 3F6F ....
....|..|R-- .... ....|--- .... ....|--- .... ....
....|..|F-3 2F.A ....|A#4 2F4A ....|A#4 3F4A ....
....|..|--- .... ....|--- .... ....|--- .... ....
....|..|B-8 JF.F ....|A#3 2F3F ....|F-4 3F6F ....
....|..|R-- .... ....|--- .... ....|--- .... ....
....|..|F-2 2F.A ....|A#3 2F2A ....|F-4 3F6A ....
....|..|--- .... ....|--- .... ....|--- .... ....
 F-4|..|F-3 2C.F ....|A#4 2F4F ....|A#4 3F4F ....
....|..|--- .... ....|--- .... ....|--- .... ....
....|..|B-8 JF.A ....|A#3 2F3A ....|F-4 3F6A ....
....|..|R-- .... ....|--- .... ....|--- .... ....
 A#3|..|A#1 2A.F ....|A#3 2F2F ....|F-4 3F6F ....
....|..|--- .... ....|--- .... ....|--- .... ....
....|..|F-3 2F.A ....|A#4 2F4A ....|A#4 3F4A ....
....|..|--- .... ....|--- .... ....|--- .... ....
 A#3|..|A#2 2C.F ....|A#3 2F2F ....|F-4 3F6F ....
....|..|R-- .... ....|--- .... ....|--- .... ....
....|..|A#1 2F.A ....|A#3 2F2A ....|F-4 3F6A ....
....|..|--- .... ....|--- .... ....|--- .... ....
....|..|B-8 JF.F ....|A#3 2F3F ....|F-4 3F6F ....
....|..|R-- .... ....|--- .... ....|--- .... ....
....|..|A#2 2F.A ....|A#3 2F2A ....|F-4 3F6A ....
....|..|--- .... ....|--- .... ....|--- .... ....
 A#3|..|A#1 2A.F ....|A#4 2F4F ....|A#4 3F4F ....
....|..|--- .... ....|--- .... ....|--- .... ....
....|..|B-8 JF.A ....|A#3 2F3A ....|F-4 3F6A ....
....|..|R-- .... ....|--- .... ....|--- .... ....
 A#3|..|A#2 2C.F ....|A#3 2F2F ....|F-4 3F6F ....
....|..|--- .... ....|--- .... ....|--- .... ....
....|..|A#1 2F.A ....|A#4 2F4A ....|A#4 3F4A ....
....|..|--- .... ....|--- .... ....|--- .... ....
 A#3|..|A#1 2A.F ....|A#4 2F4F ....|A#4 3F4F ....
....|..|R-- .... ....|--- .... ....|--- .... ....
....|..|A#2 2F.A ....|A#3 2F2A ....|F-4 3F6A ....
....|..|--- .... ....|--- .... ....|--- .... ....
....|..|B-8 JF.F ....|A#3 2F3F ....|F-4 3F6F ....
....|..|R-- .... ....|--- .... ....|--- .... ....
....|..|A#1 2F.A ....|A#4 2F4A ....|A#4 3F4A ....
....|..|--- .... ....|--- .... ....|--- .... ....
 A#3|..|A#2 2C.F ....|A#3 2F2F ....|F-4 3F6F ....
....|..|--- .... ....|--- .... ....|--- .... ....
....|..|B-8 JF.A ....|A#3 2F3A ....|F-4 3F6A ....
....|..|R-- .... ....|--- .... ....|--- .... ....

[Pattern66]
 A#3|..|A#1 2A.F ....|A#4 2F4F ....|A#4 3F4F ....
....|..|--- .... ....|--- .... ....|--- .... ....
....|..|A#2 2F.A ....|A#3 2F2A ....|F-4 3F6A ....
....|..|--- .... ....|--- .... ....|--- .... ....
 A#3|..|A#2 2C.F ....|A#3 2F2F ....|F-4 3F6F ....
....|..|R-- .... ....|--- .... ....|--- .... ....
....|..|A#1 2F.A ....|A#4 2F4A ....|A#4 3F4A ....
....|..|--- .... ....|--- .... ....|--- .... ....
....|..|B-8 JF.F ....|A#3 2F3F ....|F-4 3F6F ....
....|..|R-- .... ....|--- .... ....|--- .... ....
....|..|A#2 2F.A ....|A#3 2F2A ....|F-4 3F6A ....
....|..|--- .... ....|--- .... ....|--- .... ....
 A#3|..|A#1 2A.F ....|A#4 2F4F ....|A#4 3F4F ....
....|..|--- .... ....|--- .... ....|--- .... ....
....|..|B-8 JF.A ....|A#3 2F3A ....|F-4 3F6A ....
....|..|R-- .... ....|--- .... ....|--- .... ....
 A#3|..|A#2 2C.F ....|A#3 2F2F ....|F-4 3F6F ....
....|..|--- .... ....|--- .... ....|--- .... ....
....|..|A#1 2F.A ....|A#4 2F4A ....|A#4 3F4A ....
....|..|--- .... ....|--- .... ....|--- .... ....
 A#3|..|A#1 2A.F ....|A#3 2F2F ....|F-4 3F6F ....
....|..|R-- .... ....|--- .... ....|--- .... ....
....|..|A#2 2F.A ....|A#3 2F2A ....|F-4 3F6A ....
....|..|--- .... ....|--- .... ....|--- .... ....
....|..|B-8 JF.F ....|A#3 2F3F ....|F-4 3F6F ....
....|..|R-- .... ....|--- .... ....|--- .... ....
....|..|A#1 2F.A ....|A#3 2F2A ....|F-4 3F6A ....
....|..|--- .... ....|--- .... ....|--- .... ....
 A#3|..|A#2 2C.F ....|A#4 2F4F ....|A#4 3F4F ....
....|..|--- .... ....|--- .... ....|--- .... ....
....|..|B-8 JF.A ....|A#3 2F3A ....|F-4 3F6A ....
....|..|R-- .... ....|--- .... ....|--- .... ....
 A#3|..|A#1 2A.F ....|A#3 2F2F ....|F-4 3F6F ....
....|..|--- .... ....|--- .... ....|--- .... ....
....|..|A#2 2F.A ....|A#4 2F4A ....|A#4 3F4A ....
....|..|--- .... ....|--- .... ....|--- .... ....
 A#3|..|A#2 2C.F ....|A#4 2F4F ....|A#4 3F4F ....
....|..|R-- .... ....|--- .... ....|--- .... ....
....|..|A#1 2F.A ....|A#3 2F2A ....|F-4 3F6A ....
....|..|--- .... ....|--- .... ....|--- .... ....
....|..|B-8 JF.F ....|A#3 2F3F ....|F-4 3F6F ....
....|..|R-- .... ....|--- .... ....|--- .... ....
....|..|A#2 2F.A ....|A#4 2F4A ....|A#4 3F4A ....
....|..|--- .... ....|--- .... ....|--- .... ....
 A#3|..|A#1 2A.F ....|A#3 2F2F ....|F-4 3F6F ....
....|..|--- .... ....|--- .... ....|--- .... ....
....|..|B-8 JF.A ....|A#3 2F3A ....|F-4 3F6A ....
....|..|R-- .... ....|--- .... ....|--- .... ....
 A#3|..|A#2 2C.F ....|A#4 2F4F ....|A#4 3F4F ....
....|..|--- .... ....|--- .... ....|--- .... ....
....|..|A#1 2F.A ....|A#3 2F2A ....|F-4 3F6A ....
....|..|--- .... ....|--- .... ....|--- .... ....
 A#3|..|A#1 2A.F ....|A#3 2F2F ....|F-4 3F6F ....
....|..|R-- .... ....|--- .... ....|--- .... ....
....|..|A#2 2F.A ....|A#4 2F4A ....|A#4 3F4A ....
....|..|--- .... ....|--- .... ....|--- .... ....
....|..|B-8 JF.F ....|A#3 2F3F ....|F-4 3F6F ....
....|..|R-- .... ....|--- .... ....|--- .... ....
....|..|A#1 2F.A ....|A#3 2F2A ....|F-4 3F6A ....
....|..|--- .... ....|--- .... ....|--- .... ....
 A#3|..|A#2 2C.F ....|A#4 2F4F ....|A#4 3F4F ....
....|..|--- .... ....|--- .... ....|--- .... ....
....|..|B-8 JF.A ....|A#3 2F3A ....|F-4 3F6A ....
....|..|R-- .... ....|--- .... ....|--- .... ....

[Pattern67]
 A-3|..|A-1 2A.F ....|C-4 2F2F ....|G-4 3F2F ....
....|..|--- .... ....|--- .... ....|--- .... ....
....|..|A#2 2F.A ....|A#4 2F4A ....|A#4 3F4A ....
....|..|--- .... ....|--- .... ....|--- .... ....
 A-3|..|A-2 2C.F ....|C-4 2F2F ....|G-4 3F2F ....
....|..|R-- .... ....|--- .... ....|--- .... ....
....|..|A-1 2F.A ....|C-4 2F2A ....|G-4 3F2A ....
....|..|--- .... ....|--- .... ....|--- .... ....
....|..|B-8 JF.F ....|C-4 2F3F ....|G-4 3F2F ....
....|..|R-- .... ....|--- .... ....|--- .... ....
....|..|A-2 2F.A ....|C-4 2F2A ....|G-4 3F2A ....
....|..|--- .... ....|--- .... ....|--- .... ....
 A-3|..|A-1 2A.F ....|D-4 2F5F ....|G-4 3F4F ....
....|..|--- .... ....|--- .... ....|--- .... ....
....|..|B-8 JF.A ....|C-4 2F3A ....|G-4 3F2A ....
....|..|R-- .... ....|--- .... ....|--- .... ....
 A-3|..|A-2 2C.F ....|C-4 2F2F ....|G-4 3F2F ....
....|..|--- .... ....|--- .... ....|--- .... ....
....|..|A-1 2F.A ....|D-4 2F5A ....|G-4 3F4A ....
....|..|--- .... ....|--- .... ....|--- .... ....
 A-3|..|A-1 2A.F ....|D-4 2F5F ....|G-4 3F4F ....
....|..|R-- .... ....|--- .... ....|--- .... ....
....|..|A-2 2F.A ....|C-4 2F2A ....|G-4 3F2A ....
....|..|--- .... ....|--- .... ....|--- .... ....
....|..|B-8 JF.F ....|C-4 2F3F ....|G-4 3F2F ....
....|..|R-- .... ....|--- .... ....|--- .... ....
....|..|A-1 2F.A ....|D-4 2F5A ....|G-4 3F4A ....
....|..|--- .... ....|--- .... ....|--- .... ....
 A-3|..|A-2 2C.F ....|C-4 2F2F ....|G-4 3F2F ....
....|..|--- .... ....|--- .... ....|--- .... ....
....|..|B-8 JF.A ....|C-4 2F3A ....|G-4 3F2A ....
....|..|R-- .... ....|--- .... ....|--- .... ....
 A-3|..|A-1 2A.F ....|D-4 2F5F ....|G-4 3F4F ....
....|..|--- .... ....|--- .... ....|--- .... ....
....|..|A-2 2F.A ....|C-4 2F2A ....|G-4 3F2A ....
....|..|--- .... ....|--- .... ....|--- .... ....
 A-3|..|A-2 2C.F ....|C-4 2F2F ....|G-4 3F2F ....
....|..|R-- .... ....|--- .... ....|--- .... ....
....|..|A-1 2F.A ....|D-4 2F5A ....|G-4 3F4A ....
....|..|--- .... ....|--- .... ....|--- .... ....
....|..|B-8 JF.F ....|C-4 2F3F ....|G-4 3F2F ....
....|..|R-- .... ....|--- .... ....|--- .... ....
....|..|A-2 2F.A ....|C-4 2F2A ....|G-4 3F2A ....
....|..|--- .... ....|--- .... ....|--- .... ....
 A-3|..|A-1 2A.F ....|D-4 2F5F ....|G-4 3F4F ....
....|..|--- .... ....|--- .... ....|--- .... ....
....|..|B-8 JF.A ....|C-4 2F3A ....|G-4 3F2A ....
....|..|R-- .... ....|--- .... ....|--- .... ....
 A-3|..|A-2 2C.F ....|C-4 2F2F ....|G-4 3F2F ....
....|..|--- .... ....|--- .... ....|--- .... ....
....|..|A-1 2F.A ....|D-4 2F5A ....|G-4 3F4A ....
....|..|--- .... ....|--- .... ....|--- .... ....
 A-3|..|A-1 2A.F ....|C-4 2F2F ....|G-4 3F2F ....
....|..|R-- .... ....|--- .... ....|--- .... ....
....|..|A-2 2F.A ....|C-4 2F2A ....|G-4 3F2A ....
....|..|--- .... ....|--- .... ....|--- .... ....
....|..|B-8 JF.F ....|C-4 2F3F ....|G-4 3F2F ....
....|..|R-- .... ....|--- .... ....|--- .... ....
....|..|A-1 2F.A ....|C-4 2F2A ....|G-4 3F2A ....
....|..|--- .... ....|--- .... ....|--- .... ....
 A-3|..|A-2 2C.F ....|D-4 2F5F ....|G-4 3F4F ....
....|..|--- .... ....|--- .... ....|--- .... ....
....|..|B-8 JF.A ....|C-4 2F3A ....|G-4 3F2A ....
....|..|R-- .... ....|--- .... ....|--- .... ....

[Pattern68]
 A-3|..|A-1 2A.F ....|C-4 2F2F ....|G-4 3F2F ....
....|..|--- .... ....|--- .... ....|--- .... ....
....|..|A-2 2F.A ....|D-4 2F5A ....|G-4 3F4A ....
....|..|--- .... ....|--- .... ....|--- .... ....
 A-3|..|A-2 2C.F ....|D-4 2F5F ....|G-4 3F4F ....
....|..|R-- .... ....|--- .... ....|--- .... ....
....|..|A-1 2F.A ....|C-4 2F2A ....|G-4 3F2A ....
....|..|--- .... ....|--- .... ....|--- .... ....
....|..|B-8 JF.F ....|C-4 2F3F ....|G-4 3F2F ....
....|..|R-- .... ....|--- .... ....|--- .... ....
....|..|A-2 2F.A ....|D-4 2F5A ....|G-4 3F4A ....
....|..|--- .... ....|--- .... ....|--- .... ....
 A-3|..|A-1 2A.F ....|C-4 2F2F ....|G-4 3F2F ....
....|..|--- .... ....|--- .... ....|--- .... ....
....|..|B-8 JF.A ....|C-4 2F3A ....|G-4 3F2A ....
....|..|R-- .... ....|--- .... ....|--- .... ....
 A-3|..|A-2 2C.F ....|D-4 2F5F ....|G-4 3F4F ....
....|..|--- .... ....|--- .... ....|--- .... ....
....|..|A-1 2F.A ....|C-4 2F2A ....|G-4 3F2A ....
....|..|--- .... ....|--- .... ....|--- .... ....
 A-3|..|A-1 2A.F ....|C-4 2F2F ....|G-4 3F2F ....
....|..|R-- .... ....|--- .... ....|--- .... ....
....|..|A-2 2F.A ....|D-4 2F5A ....|G-4 3F4A ....
....|..|--- .... ....|--- .... ....|--- .... ....
....|..|B-8 JF.F ....|C-4 2F3F ....|G-4 3F2F ....
....|..|R-- .... ....|--- .... ....|--- .... ....
....|..|A-1 2F.A ....|C-4 2F2A ....|G-4 3F2A ....
....|..|--- .... ....|--- .... ....|--- .... ....
 A-3|..|A-2 2C.F ....|D-4 2F5F ....|G-4 3F4F ....
....|..|--- .... ....|--- .... ....|--- .... ....
....|..|B-8 JF.A ....|C-4 2F3A ....|G-4 3F2A ....
....|..|R-- .... ....|--- .... ....|--- .... ....
 D-4|..|D-2 2A.F ....|C-4 2F2F ....|G-4 3F2F ....
....|..|--- .... ....|--- .... ....|--- .... ....
....|..|A-2 2F.A ....|D-4 2F5A ....|G-4 3F4A ....
....|..|--- .... ....|--- .... ....|--- .... ....
 D-4|..|D-3 2C.F ....|C-4 2F2F ....|G-4 3F2F ....
....|..|R-- .... ....|--- .... ....|--- .... ....
....|..|D-2 2F.A ....|C-4 2F2A ....|G-4 3F2A ....
....|..|--- .... ....|--- .... ....|--- .... ....
....|..|B-8 JF.F ....|C-4 2F3F ....|F#4 3F3F ....
....|..|R-- .... ....|--- .... ....|--- .... ....
....|..|D-3 2F.A ....|C-4 2F2A ....|G-4 3F2A ....
....|..|--- .... ....|--- .... ....|--- .... ....
 D-4|..|D-2 2A.F ....|D-4 2F5F ....|F#4 3F4F ....
....|..|--- .... ....|--- .... ....|--- .... ....
....|..|B-8 JF.A ....|C-4 2F3A ....|F#4 3F3A ....
....|..|R-- .... ....|--- .... ....|--- .... ....
 D-4|..|D-3 2C.F ....|C-4 2F2F ....|G-4 3F2F ....
....|..|--- .... ....|--- .... ....|--- .... ....
....|..|D-2 2F.A ....|D-4 2F5A ....|F#4 3F4A ....
....|..|--- .... ....|--- .... ....|--- .... ....
 D-4|..|D-2 2A.F ....|D-4 2F5F ....|F#4 3F4F ....
....|..|R-- .... ....|--- .... ....|--- .... ....
....|..|D-3 2F.A ....|C-4 2F2A ....|G-4 3F2A ....
....|..|--- .... ....|--- .... ....|--- .... ....
....|..|B-8 JF.F ....|C-4 2F3F ....|G-4 3F2F ....
....|..|R-- .... ....|--- .... ....|--- .... ....
....|..|D-2 2F.A ....|D-4 2F5A ....|F#4 3F4A ....
....|..|--- .... ....|--- .... ....|--- .... ....
 D-4|..|D-3 2C.F ....|C-4 2F2F ....|F#4 3F3F ....
....|..|--- .... ....|--- .... ....|--- .... ....
....|..|B-8 JF.A ....|C-4 2F3A ....|G-4 3F2A ....
....|..|R-- .... ....|--- .... ....|--- .... ....

[Pattern69]
 D-4|..|D-2 2A.F ....|D-4 2F5F ....|F#4 3F4F ....
....|..|--- .... ....|--- .... ....|--- .... ....
....|..|D-3 2F.A ....|C-4 2F2A ....|F#4 3F3A ....
....|..|--- .... ....|--- .... ....|--- .... ....
 D-4|..|D-3 2C.F ....|C-4 2F2F ....|F#4 3F3F ....
....|..|R-- .... ....|--- .... ....|--- .... ....
....|..|D-2 2F.A ....|D-4 2F5A ....|F#4 3F4A ....
....|..|--- .... ....|--- .... ....|--- .... ....
....|..|B-8 JF.F ....|C-4 2F3F ....|F#4 3F3F ....
....|..|R-- .... ....|--- .... ....|--- .... ....
....|..|D-3 2F.A ....|C-4 2F2A ....|F#4 3F3A ....
....|..|--- .... ....|--- .... ....|--- .... ....
 D-4|..|D-2 2A.F ....|D-4 2F5F ....|F#4 3F4F ....
....|..|--- .... ....|--- .... ....|--- .... ....
....|..|B-8 JF.A ....|C-4 2F3A ....|F#4 3F3A ....
....|..|R-- .... ....|--- .... ....|--- .... ....
 D-4|..|D-3 2C.F ....|C-4 2F2F ....|F#4 3F3F ....
....|..|--- .... ....|--- .... ....|--- .... ....
....|..|D-2 2F.A ....|D-4 2F5A ....|F#4 3F4A ....
....|..|--- .... ....|--- .... ....|--- .... ....
 D-4|..|D-2 2A.F ....|C-4 2F2F ....|F#4 3F3F ....
....|..|R-- .... ....|--- .... ....|--- .... ....
....|..|D-3 2F.A ....|C-4 2F2A ....|F#4 3F3A ....
....|..|--- .... ....|--- .... ....|--- .... ....
....|..|B-8 JF.F ....|C-4 2F3F ....|F#4 3F3F ....
....|..|R-- .... ....|--- .... ....|--- .... ....
....|..|D-2 2F.A ....|C-4 2F2A ....|F#4 3F3A ....
....|..|--- .... ....|--- .... ....|--- .... ....
 D-4|..|D-3 2C.F ....|D-4 2F5F ....|F#4 3F4F ....
....|..|--- .... ....|--- .... ....|--- .... ....
....|..|B-8 JF.A ....|C-4 2F3A ....|F#4 3F3A ....
....|..|R-- .... ....|--- .... ....|--- .... ....
 D-4|..|D-2 2A.F ....|C-4 2F2F ....|F#4 3F3F ....
....|..|--- .... ....|--- .... ....|--- .... ....
....|..|D-3 2F.A ....|D-4 2F5A ....|F#4 3F4A ....
....|..|--- .... ....|--- .... ....|--- .... ....
 D-4|..|D-3 2C.F ....|D-4 2F5F ....|F#4 3F4F ....
....|..|R-- .... ....|--- .... ....|--- .... ....
....|..|D-2 2F.A ....|C-4 2F2A ....|F#4 3F3A ....
....|..|--- .... ....|--- .... ....|--- .... ....
....|..|B-8 JF.F ....|C-4 2F3F ....|F#4 3F3F ....
....|..|R-- .... ....|--- .... ....|--- .... ....
....|..|D-3 2F.A ....|D-4 2F5A ....|F#4 3F4A ....
....|..|--- .... ....|--- .... ....|--- .... ....
 D-4|..|D-2 2A.F ....|C-4 2F2F ....|F#4 3F3F ....
....|..|--- .... ....|--- .... ....|--- .... ....
....|..|B-8 JF.A ....|C-4 2F3A ....|F#4 3F3A ....
....|..|R-- .... ....|--- .... ....|--- .... ....
 D-4|..|D-3 2C.F ....|D-4 2F5F ....|F#4 3F4F ....
....|..|--- .... ....|--- .... ....|--- .... ....
....|..|D-2 2F.A ....|C-4 2F2A ....|F#4 3F3A ....
....|..|--- .... ....|--- .... ....|--- .... ....
 D-4|..|D-2 2A.F ....|C-4 2F2F ....|F#4 3F3F ....
....|..|R-- .... ....|--- .... ....|--- .... ....
....|..|D-3 2F.A ....|D-4 2F5A ....|F#4 3F4A ....
....|..|--- .... ....|--- .... ....|--- .... ....
....|..|B-8 JF.F ....|C-4 2F3F ....|F#4 3F3F ....
....|..|R-- .... ....|--- .... ....|--- .... ....
....|..|D-2 2F.A ....|C-4 2F2A ....|F#4 3F3A ....
....|..|--- .... ....|--- .... ....|--- .... ....
 D-4|..|D-3 2C.F ....|D-4 2F5F ....|F#4 3F4F ....
....|..|--- .... ....|--- .... ....|--- .... ....
....|..|B-8 JF.A ....|C-4 2F3A ....|F#4 3F3A ....
....|..|R-- .... ....|--- .... ....|--- .... ....

[Pattern70]
 G-3|..|G-1 2A.F ....|A#4 2F1F ....|C#5 3F.F ....
....|..|--- .... ....|--- .... ....|--- .... ....
....|..|D-3 2F.A ....|D-4 2F5A ....|F#4 3F4A ....
....|..|--- .... ....|--- .... ....|--- .... ....
 G-4|..|G-2 2A.F ....|A#4 2F1F ....|D-5 3F.F ....
....|..|R-- .... ....|--- .... ....|--- .... ....
....|..|G-1 2F.A ....|A#4 2F1A ....|C#5 3F.A ....
....|..|--- .... ....|--- .... ....|--- .... ....
....|..|B-8 JF.F ....|A#4 2F.F ....|C-5 3F.F ....
....|..|R-- .... ....|--- .... ....|--- .... ....
....|..|G-2 2F.A ....|A#4 2F1A ....|D-5 3F.A ....
....|..|--- .... ....|--- .... ....|--- .... ....
 G-3|..|G-1 2A.F ....|A#4 2F1F ....|D-5 3F.F ....
....|..|--- .... ....|--- .... ....|--- .... ....
....|..|B-8 JF.A ....|A#4 2F.A ....|C-5 3F.A ....
....|..|R-- .... ....|--- .... ....|--- .... ....
 G-4|..|G-2 2A.F ....|A-4 2F.F ....|A#4 3F.F ....
....|..|--- .... ....|--- .... ....|--- .... ....
....|..|G-1 2F.A ....|A#4 2F1A ....|D-5 3F.A ....
....|..|--- .... ....|--- .... ....|--- .... ....
 G-3|..|G-1 2A.F ....|A#4 2F.F ....|D-5 3F.F ....
....|..|R-- .... ....|--- .... ....|--- .... ....
....|..|G-2 2F.A ....|A-4 2F.A ....|A#4 3F.A ....
....|..|--- .... ....|--- .... ....|--- .... ....
....|..|B-8 JF.F ....|A#4 2F1F ....|A-4 3F.F ....
....|..|R-- .... ....|--- .... ....|--- .... ....
....|..|G-1 2F.A ....|A#4 2F.A ....|D-5 3F.A ....
....|..|--- .... ....|--- .... ....|--- .... ....
 G-4|..|G-2 2A.F ....|G-4 2F.F ....|G-4 3F.F ....
....|..|--- .... ....|--- .... ....|--- .... ....
....|..|B-8 JF.A ....|A#4 2F1A ....|A-4 3F.A ....
....|..|R-- .... ....|--- .... ....|--- .... ....
 G-3|..|G-1 2A.F ....|A#4 2F1F ....|D-5 3F.7 ....
....|..|--- .... ....|--- .... ....|--- .... ....
....|..|G-2 2F.A ....|G-4 2F.A ....|G-4 3F.A ....
....|..|--- .... ....|--- .... ....|--- .... ....
 G-4|..|G-2 2A.F ....|G-4 2F.F ....|D-5 3F.F ....
....|..|R-- .... ....|--- .... ....|--- .... ....
....|..|G-1 2F.A ....|A#4 2F1A ....|R-- .... ....
....|..|--- .... ....|--- .... ....|--- .... ....
....|..|B-8 JF.F ....|A#4 2F.F ....|C-5 3F.F ....
....|..|R-- .... ....|--- .... ....|--- .... ....
....|..|G-2 2F.A ....|G-4 2F.A ....|D-5 3F.A ....
....|..|--- .... ....|--- .... ....|--- .... ....
 G-3|..|G-1 2A.F ....|A#4 2F17 ....|D-5 3F.F ....
....|..|--- .... ....|--- .... ....|--- .... ....
....|..|B-8 JF.A ....|A#4 2F.A ....|C-5 3F.A ....
....|..|R-- .... ....|--- .... ....|--- .... ....
 G-4|..|G-2 2A.F ....|A-4 2F.F ....|A#4 3F.F ....
....|..|--- .... ....|--- .... ....|--- .... ....
....|..|G-1 2F.A ....|--- .... ....|D-5 3F.A ....
....|..|--- .... ....|--- .... ....|--- .... ....
 G-3|..|G-1 2A.F ....|A#4 2F.F ....|D-5 3F.F ....
....|..|R-- .... ....|--- .... ....|--- .... ....
....|..|G-2 2F.A ....|A-4 2F.A ....|A#4 3F.A ....
....|..|--- .... ....|--- .... ....|--- .... ....
....|..|C-4 AF.F ....|R-- .... ....|A-4 3F.F ....
....|..|R-- .... ....|--- .... ....|--- .... ....
....|..|G-1 2F.A ....|A#4 2F.A ....|D-5 3F.A ....
....|..|--- .... ....|--- .... ....|--- .... ....
....|..|C-4 AF.F ....|A-4 2F.7 ....|G-4 3F.F ....
 G-4|..|G-2 2A.F ....|--- .... ....|--- .... ....
....|..|C-4 AF.A ....|R-- .... ....|A-4 3F.A ....
....|..|R-- .... ....|--- .... ....|--- .... ....

[Pattern74]
 D#4|..|D#2 2A.F ....|A#4 2F1F ....|G-4 3F.F ....
....|..|--- .... ....|--- .... ....|--- .... ....
....|..|C-4 AF.A ....|--- .... ....|C-5 3F.A ....
....|..|D-3 2F.A ....|--- .... ....|--- .... ....
 D#4|..|D#3 2C.F ....|A#4 2F1F ....|D-5 3F.7 ....
....|..|R-- .... ....|--- .... ....|--- .... ....
....|..|D#2 2F.A ....|A#4 2F1A ....|G-4 3F.A ....
....|..|--- .... ....|--- .... ....|--- .... ....
....|..|B-8 JF.F ....|A#4 2F.F ....|C-5 3F.7 ....
....|..|D-3 2F.7 ....|--- .... ....|--- .... ....
....|..|D#3 2F.A ....|A#4 2F1A ....|--- .... ....
....|..|--- .... ....|--- .... ....|--- .... ....
 D#4|..|D#2 2A.F ....|A#4 2F1F ....|G-4 3F.7 ....
....|..|--- .... ....|--- .... ....|--- .... ....
....|..|B-8 JF.A ....|A#4 2F.A ....|--- .... ....
....|..|R-- .... ....|--- .... ....|--- .... ....
 D#4|..|D#3 2C.F ....|A-4 2F.F ....|--- .... ....
....|..|--- .... ....|--- .... ....|--- .... ....
....|..|D#2 2F.A ....|A#4 2F1A ....|--- .... ....
....|..|--- .... ....|--- .... ....|--- .... ....
 D#4|..|D#2 2A.F ....|A#4 2F.F ....|--- .... ....
....|..|R-- .... ....|--- .... ....|--- .... ....
....|..|D#3 2F.A ....|A-4 2F.A ....|--- .... ....
....|..|--- .... ....|--- .... ....|--- .... ....
....|..|B-8 JF.F ....|A#4 2F1F ....|--- .... ....
....|..|R-- .... ....|--- .... ....|--- .... ....
....|..|D#2 2F.A ....|A#4 2F.A ....|--- .... ....
....|..|--- .... ....|--- .... ....|--- .... ....
 D#4|..|D#3 2C.F ....|G-4 2F.F ....|--- .... ....
....|..|--- .... ....|--- .... ....|--- .... ....
....|..|B-8 JF.A ....|A#4 2F1A ....|--- .... ....
....|..|R-- .... ....|--- .... ....|--- .... ....
 D#4|..|D#2 2A.F ....|A#4 2F1F ....|A#4 3F.F ....
....|..|--- .... ....|--- .... ....|--- .... ....
....|..|D#3 2F.A ....|G-4 2F.A ....|--- .... ....
....|..|--- .... ....|--- .... ....|--- .... ....
 D#4|..|D#3 2C.F ....|G-4 2F.F ....|--- .... ....
....|..|R-- .... ....|--- .... ....|--- .... ....
....|..|D#2 2F.A ....|A#4 2F1A ....|A#4 3F.A ....
....|..|--- .... ....|--- .... ....|--- .... ....
....|..|B-8 JF.F ....|A#4 2F.F ....|--- .... ....
....|..|R-- .... ....|--- .... ....|--- .... ....
....|..|D#3 2F.A ....|G-4 2F.A ....|--- .... ....
....|..|--- .... ....|--- .... ....|--- .... ....
 D#4|..|D#2 2A.F ....|A#4 2F17 ....|A#4 3F.7 ....
....|..|--- .... ....|--- .... ....|--- .... ....
....|..|B-8 JF.A ....|A#4 2F.A ....|--- .... ....
....|..|R-- .... ....|--- .... ....|--- .... ....
 D#4|..|D#3 2C.F ....|A-4 2F.F ....|D#5 3F.F ....
....|..|--- .... ....|--- .... ....|--- .... ....
....|..|D#2 2F.A ....|--- .... ....|--- .... ....
....|..|--- .... ....|--- .... ....|--- .... ....
 D#4|..|D#2 2A.F ....|A#4 2F.F ....|--- .... ....
....|..|R-- .... ....|--- .... ....|--- .... ....
....|..|D#3 2F.A ....|A-4 2F.A ....|D#5 3F.A ....
....|..|--- .... ....|--- .... ....|--- .... ....
....|..|C-4 AF.F ....|R-- .... ....|--- .... ....
....|..|R-- .... ....|--- .... ....|--- .... ....
....|..|D#2 2F.A ....|A#4 2F.A ....|--- .... ....
....|..|--- .... ....|--- .... ....|--- .... ....
....|..|C-4 AF.F ....|A-4 2F.7 ....|D#5 3F.7 ....
 D#4|..|D#3 2C.F ....|--- .... ....|--- .... ....
....|..|C-4 AF.A ....|R-- .... ....|--- .... ....
....|..|R-- .... ....|--- .... ....|--- .... ....

[Pattern82]
 G-3|..|G-1 2A.F ....|A#4 2F1F ....|A-4 3F47 ....
....|..|--- .... ....|--- .... ....|--- .... ....
....|..|C-4 AF.A ....|--- .... ....|G-4 3F4A ....
....|..|D-3 2F.A ....|--- .... ....|--- .... ....
 G-4|..|G-2 2A.F ....|A#4 2F1F ....|G#4 3F47 ....
....|..|R-- .... ....|--- .... ....|--- .... ....
....|..|G-1 2F.A ....|A#4 2F1A ....|R-- .... ....
....|..|--- .... ....|--- .... ....|--- .... ....
....|..|B-8 JF.F ....|A#4 2F.F ....|G-4 3F47 ....
....|..|D-3 2F.7 ....|--- .... ....|--- .... ....
....|..|G-2 2F.A ....|A#4 2F1A ....|--- .... ....
....|..|--- .... ....|--- .... ....|--- .... ....
 G-3|..|G-1 2A.F ....|A#4 2F1F ....|R-- .... ....
....|..|--- .... ....|--- .... ....|--- .... ....
....|..|B-8 JF.A ....|A#4 2F.A ....|--- .... ....
....|..|R-- .... ....|--- .... ....|--- .... ....
 G-4|..|G-2 2A.F ....|A-4 2F.F ....|--- .... ....
....|..|--- .... ....|--- .... ....|--- .... ....
....|..|G-1 2F.A ....|A#4 2F1A ....|--- .... ....
....|..|--- .... ....|--- .... ....|--- .... ....
 G-3|..|G-1 2A.F ....|A#4 2F.F ....|--- .... ....
....|..|R-- .... ....|--- .... ....|--- .... ....
....|..|G-2 2F.A ....|A-4 2F.A ....|--- .... ....
....|..|--- .... ....|--- .... ....|--- .... ....
....|..|B-8 JF.F ....|A#4 2F1F ....|--- .... ....
....|..|R-- .... ....|--- .... ....|--- .... ....
....|..|G-1 2F.A ....|A#4 2F.A ....|--- .... ....
....|..|--- .... ....|--- .... ....|--- .... ....
 G-4|..|G-2 2A.F ....|G-4 2F.F ....|--- .... ....
....|..|--- .... ....|--- .... ....|--- .... ....
....|..|B-8 JF.A ....|A#4 2F1A ....|--- .... ....
....|..|R-- .... ....|--- .... ....|--- .... ....
....|..|G-1 2F.7 ....|A#4 2F1F ....|--- .... ....
....|..|--- .... ....|--- .... ....|--- .... ....
....|..|G-2 2F.A ....|G-4 2F.A ....|--- .... ....
....|..|--- .... ....|--- .... ....|--- .... ....
....|..|B-8 JF.7 ....|G-4 2F.F ....|--- .... ....
....|..|R-- .... ....|--- .... ....|--- .... ....
....|..|R-- .... ....|A#4 2F1A ....|--- .... ....
....|..|--- .... ....|--- .... ....|--- .... ....
....|..|B-8 JF.F ....|A#4 2F.F ....|--- .... ....
....|..|--- .... ....|--- .... ....|--- .... ....
....|..|--- .... ....|G-4 2F.A ....|--- .... ....
....|..|--- .... ....|--- .... ....|--- .... ....
....|..|R-- .... ....|A#4 2F17 ....|--- .... ....
....|..|--- .... ....|--- .... ....|--- .... ....
....|..|B-8 JF.A ....|A#4 2F.A ....|--- .... ....
....|..|--- .... ....|--- .... ....|--- .... ....
....|..|--- .... ....|A-4 2F.F ....|--- .... ....
....|..|--- .... ....|--- .... ....|--- .... ....
....|..|R-- .... ....|--- .... ....|--- .... ....
....|..|--- .... ....|--- .... ....|--- .... ....
....|..|B-8 JF.7 ....|A#4 2F.F ....|--- .... ....
....|..|--- .... ....|--- .... ....|--- .... ....
....|..|--- .... ....|A-4 2F.A ....|--- .... ....
....|..|--- .... ....|--- .... ....|--- .... ....
....|..|C-4 AF.F ....|R-- .... ....|--- .... ....
....|..|--- .... ....|--- .... ....|--- .... ....
....|..|--- .... ....|A#4 2F.A ....|--- .... ....
....|..|--- .... ....|--- .... ....|--- .... ....
....|..|C-4 AF.F ....|A-4 2F.7 ....|--- .... ....
....|..|--- .... ....|--- .... ....|--- .... ....
....|..|C-4 AF.A ....|R-- .... ....|--- .... ....
....|..|--- .... ....|--- .... ....|--- .... ....

[Pattern83]
....|..|R-- .... ....|A#4 2F.7 ....|--- .... ....
....|..|--- .... ....|--- .... ....|--- .... ....
....|..|C-4 AF.A ....|--- .... ....|--- .... ....
....|..|--- .... ....|--- .... ....|--- .... ....
....|..|C-4 AF.7 ....|R-- .... ....|--- .... ....
....|..|--- .... ....|--- .... ....|--- .... ....
....|..|R-- .... ....|--- .... ....|--- .... ....
....|..|--- .... ....|--- .... ....|--- .... ....
....|..|B-8 JF.F ....|--- .... ....|--- .... ....
....|..|--- .... ....|--- .... ....|--- .... ....
....|..|--- .... ....|--- .... ....|--- .... ....
....|..|--- .... ....|--- .... ....|--- .... ....
....|..|R-- .... ....|--- .... ....|--- .... ....
....|..|--- .... ....|--- .... ....|--- .... ....
....|..|B-8 JF.A ....|--- .... ....|--- .... ....
....|..|--- .... ....|--- .... ....|--- .... ....
....|..|--- .... ....|--- .... ....|--- .... ....
....|..|--- .... ....|--- .... ....|--- .... ....
....|..|R-- .... ....|--- .... ....|--- .... ....
....|..|--- .... ....|--- .... ....|--- .... ....
....|..|B-8 JF.7 ....|--- .... ....|--- .... ....
....|..|--- .... ....|--- .... ....|--- .... ....
....|..|--- .... ....|--- .... ....|--- .... ....
....|..|--- .... ....|--- .... ....|--- .... ....
....|..|B-8 JF.F ....|--- .... ....|--- .... ....
....|..|--- .... ....|--- .... ....|--- .... ....
....|..|--- .... ....|--- .... ....|--- .... ....
....|..|--- .... ....|--- .... ....|--- .... ....
....|..|R-- .... ....|--- .... ....|--- .... ....
....|..|--- .... ....|--- .... ....|--- .... ....
....|..|B-8 JF.A ....|--- .... ....|--- .... ....
....|..|--- .... ....|--- .... ....|--- .... ....
....|..|--- .... ....|--- .... ....|--- .... ....
....|..|--- .... ....|--- .... ....|--- .... ....
....|..|R-- .... ....|--- .... ....|--- .... ....
....|..|--- .... ....|--- .... ....|--- .... ....
....|..|B-8 JF.7 ....|--- .... ....|--- .... ....
....|..|--- .... ....|--- .... ....|--- .... ....
....|..|--- .... ....|--- .... ....|--- .... ....
....|..|--- .... ....|--- .... ....|--- .... ....
....|..|B-8 JF.F ....|--- .... ....|--- .... ....
....|..|--- .... ....|--- .... ....|--- .... ....
....|..|--- .... ....|--- .... ....|--- .... ....
....|..|--- .... ....|--- .... ....|--- .... ....
....|..|R-- .... ....|--- .... ....|--- .... ....
....|..|--- .... ....|--- .... ....|--- .... ....
....|..|B-8 JF.A ....|--- .... ....|--- .... ....
....|..|--- .... ....|--- .... ....|--- .... ....
....|..|--- .... ....|--- .... ....|--- .... ....
....|..|--- .... ....|--- .... ....|--- .... ....
....|..|R-- .... ....|--- .... ....|--- .... ....
....|..|--- .... ....|--- .... ....|--- .... ....
....|..|B-8 JF.7 ....|--- .... ....|--- .... ....
....|..|--- .... ....|--- .... ....|--- .... ....
....|..|--- .... ....|--- .... ....|--- .... ....
....|..|--- .... ....|--- .... ....|--- .... ....
....|..|C-4 AF.F ....|--- .... ....|--- .... ....
....|..|--- .... ....|--- .... ....|--- .... ....
....|..|--- .... ....|--- .... ....|--- .... ....
....|..|--- .... ....|--- .... ....|--- .... ....
....|..|C-4 AF.F ....|--- .... ....|--- .... ....
....|..|--- .... ....|--- .... ....|--- .... ....
....|..|C-4 AF.A ....|--- .... ....|--- .... ....
....|..|--- .... ....|--- .... ....|--- .... ....

[Pattern84]
....|..|R-- .... ....|--- .... ....|--- .... ....
....|..|--- .... ....|--- .... ....|--- .... ....
....|..|C-4 AF.A ....|--- .... ....|--- .... ....
....|..|--- .... ....|--- .... ....|--- .... ....
....|..|C-4 AF.7 ....|--- .... ....|--- .... ....
....|..|--- .... ....|--- .... ....|--- .... ....
....|..|R-- .... ....|--- .... ....|--- .... ....
....|..|--- .... ....|--- .... ....|--- .... ....
....|..|C-4 AF.7 ....|--- .... ....|--- .... ....
....|..|--- .... ....|--- .... ....|--- .... ....
....|..|--- .... ....|--- .... ....|--- .... ....
....|..|--- .... ....|--- .... ....|--- .... ....
