[Module]
VortexTrackerII=0
Version=3.5
Title=1m,3m[3f]-2p[2],4m[2e]
Author=oisee ^ 4d 29.05.2010
NoteTable=4
ChipFreq=1750000
Speed=4
PlayOrder=L0,1,2,3,4,1,2,3,4,1,2,3,12,13,14,15,16,17,18,19,20,21,22,23,24,25,26,27,28,29,30,31,32,33,34,35,36,37

[Ornament1]
L0,0,4,4,7,7

[Ornament2]
L0,0,3,3,7,7

[Ornament3]
L0

[Ornament4]
L0

[Ornament5]
L0

[Ornament6]
L0

[Ornament7]
L0

[Ornament8]
L0

[Ornament9]
L0

[Ornament10]
L0

[Ornament11]
L0

[Ornament12]
L0

[Ornament13]
L0

[Ornament14]
L0

[Ornament15]
L0

[Sample1]
TnE +000_ +00_ F_
TnE +000_ +00_ F_
TnE +000_ +00_ F_
TnE +000_ +00_ D_
TnE +000_ +00_ B_
TnE +000_ +00_ B_ L

[Sample2]
TnE +000_ +00_ F_ L

[Sample3]
TnE +001_ +00_ F_
TnE +002_ +00_ F_
TnE +001_ +00_ E_
TnE +002_ +00_ E_
TnE +000_ +00_ E_ L
TnE -001_ +00_ E_
TnE -002_ +00_ E_
TnE -001_ +00_ E_
TnE +000_ +00_ E_
TnE +001_ +00_ E_
TnE +002_ +00_ E_
TnE +001_ +00_ E_

[Sample4]
TnE +002_ +00_ D_
TnE +002_ +00_ D_
TnE +002_ +00_ C_
TnE +002_ +00_ B_
TnE +002_ +00_ A_ L
TnE +002_ +00_ A_
TnE +002_ +00_ A_
TnE +002_ +00_ A_
TnE +002_ +00_ A_
TnE +002_ +00_ A_
TnE +002_ +00_ A_
TnE +002_ +00_ A_

[Sample5]
TnE +000_ +00_ F_
TnE +000_ +00_ F_
tne +000_ +00_ 0_ L

[Sample6]
TnE -001_ +00_ F_ L

[Sample7]
TnE +006_ +00_ F_ L

[Sample8]
tNe +000_ +00_ F_
tNe +000_ +00_ B_
tNe +000_ +00_ 7_
tNe +000_ +00_ 6- L

[Sample9]
TnE +080_ +00_ F_
TnE +100_ +00_ E_
TnE +180_ +00_ E_
TnE +200_ +00_ E_
TnE +240_ +00_ D_
TnE +280_ +00_ D_
TnE +2C0_ +00_ D_
TnE +300_ +00_ C_
TnE +300_ +00_ C_
TnE +340_ +00_ C_
TnE +340_ +00_ C_
TnE +380_ +00_ B_
TnE +380_ +00_ B_
TnE +400_ +00_ B_
TnE +400_ +00_ B_
TnE +480_ +00_ A_
TnE +500_ +00_ 9_
TnE +580_ +00_ 7_
TnE +600_ +00_ 4_
TnE +680_ +00_ 1_
TnE +000_ +00_ 0_ L

[Sample10]
Tne +1C0_ +00_ F_
Tne +280_ +00_ E_
Tne +380_ +00_ C_
Tne +440_ +00_ A_
Tne +480_ +00_ 8_
TnE +000_ +00_ 0_ L

[Sample11]
TNe +200_ -0A_ F_
tNe +000_ +0F_ A_
TNe +200_ -07_ E_
tNe +000_ +0E_ B- L

[Sample12]
TNE +0A0_ +05_ F_
TNE +140_ +02_ D_
TNE +140_ +02_ B_
TNE +100_ +00_ A_ L
TNE +140_ +00_ A_
TNE +200_ +00_ A-

[Sample13]
Tne +200_ +00_ F_
Tne +2C0_ +00_ F_
Tne +380_ +00_ E_
Tne +500_ +00_ C_
Tne +520_ +00_ 9_
tne +000_ +00_ 0_ L

[Sample14]
TNE -100_ +00_ F_
TNE -100_ +00_ D_
TNE -100_ +00_ A_
TNE -100_ +00_ 5_
tne +000_ +00_ 0_ L

[Sample15]
TNE -100_ +00_ 5_
TNE -100_ +00_ 8_
TNE -100_ +00_ B_
TNE -100_ +00_ F_
TNe -100_ +00_ 9- L

[Sample16]
TnE +000_ +00_ C_
TnE +000_ +00_ E_
TnE +000_ +00_ F_
TnE +000_ +00_ F_
TnE +000_ +00_ E_
TnE +000_ +00_ D_
TnE +000_ +00_ C_
TnE +000_ +00_ C_ L
TnE +001_ +00_ C_
TnE +002_ +00_ C_
TnE +003_ +00_ C_
TnE +001_ +00_ C_
TnE +000_ +00_ C_
TnE -001_ +00_ C_
TnE -002_ +00_ C_
TnE -003_ +00_ C_
TnE -001_ +00_ C_
TnE +000_ +00_ C_
TnE +000_ +00_ C_

[Sample17]
Tne +1C0_ +00_ F_
Tne +280_ +00_ D_
Tne +380_ +00_ 7_
TNE +000_ +00_ 0_ L

[Sample18]
TnE -00C_ +00_ 0_ L

[Sample19]
TNe +000_ +00_ F_
TNe +000_ +00_ C_
TNe +000_ +00_ 6_
TNe +000_ +01_ A- L

[Sample20]
TNE +140_ +00_ F_
tNE +000_ +00_ B- L

[Sample21]
tNE +000_ +00_ D_
tNE +000_ +00_ 8_
tNE +000_ +00_ 1_
TNE +000_ +00_ 0_ L

[Sample22]
TnE +000_ +00_ D_ L
TnE +000_ +00_ D_
tne +000_ +00_ 9_
tne +000_ +00_ 9_
TnE +000_ +00_ D_
TnE +000_ +00_ D_
tne +000_ +00_ 9_
tne +000_ +00_ 9_
TnE +000_ +00_ D_
TnE +000_ +00_ D_
TnE +000_ +00_ D_
TnE +000_ +00_ D_
TnE +000_ +00_ D_
TnE +000_ +00_ D_
tne +000_ +00_ 9_
tne +000_ +00_ 9_

[Sample23]
TnE +000_ +00_ F_ L
TnE +010_ +01_ F_
TnE +010_ +01_ F_
TnE +010_ +01_ F_
TnE +010_ +01_ F_
TnE +000_ +00_ F_
TnE +000_ +00_ F_
TnE -010_ -01_ F_
TnE -010_ -01_ F_
TnE -010_ -01_ F_
TnE -010_ -01_ F_
TnE +000_ +00_ F_

[Sample24]
TNe +000_ -01_ C_
TNe +000_ -01_ D_
TNe +000_ -01_ E_
TNe +000_ -01_ F_
TNe +000_ -01_ F_
TNe +000_ -01_ F_
TNe +000_ -01_ F_
TNe +000_ -01_ F_
TNe +000_ -01_ E_
TNe +000_ -01_ E_
TNe +000_ -01_ E_
TNe +000_ -01_ F_
TNe +000_ -01_ F_ L

[Sample25]
TNE +000_ +00_ F_
TNE +000_ +00_ F_ L
TNE +000_ +00_ F_
TNE +000_ +00_ F_
TNE +000_ +00_ F-

[Sample26]
tne +000_ +00_ 0_ L

[Sample27]
TnE +100_ +05_ F_
TnE +200_ +02_ A_
TnE +300_ +02_ 7_
TNE +400_ +00_ 3- L

[Sample28]
tne +000_ +00_ 0_ L

[Sample29]
tnE +000_ +00_ 0_ L

[Sample30]
TNE +000_ +00_ C+ L

[Sample31]
TNe +1C0_ +00_ F_
Tne +280_ +00_ E_
Tne +380_ +00_ C_
Tne +440_ +00_ A_
Tne +480_ +00_ 8_
TnE +000_ +00_ 0_ L

[Pattern0]
....|..|--- .... ....|G#5 3FFF ....|C#6 2FEF ....
....|..|--- .... ....|C#4 2F1F ....|--- .... ....
....|..|--- .... ....|--- .... ....|--- .... ....
....|..|--- .... ....|--- .... ....|--- .... ....
....|..|--- .... ....|G#5 3FFA ....|C#6 2FEA ....
....|..|--- .... ....|C#4 2F1A ....|--- .... ....
....|..|--- .... ....|F-5 3FFF ....|--- .... ....
....|..|--- .... ....|--- .... ....|--- .... ....
....|..|--- .... ....|G#5 3FF7 ....|C#6 2FE7 ....
....|..|--- .... ....|C#4 2F17 ....|--- .... ....
....|..|--- .... ....|F-5 3FFA ....|--- .... ....
....|..|--- .... ....|--- .... ....|--- .... ....
....|..|--- .... ....|--- .... ....|R-- .... ....
....|..|--- .... ....|--- .... ....|--- .... ....
....|..|--- .... ....|F-5 3FF7 ....|--- .... ....
....|..|--- .... ....|--- .... ....|--- .... ....
....|..|--- .... ....|--- .... ....|R-- .... ....
....|..|--- .... ....|--- .... ....|--- .... ....
....|..|--- .... ....|--- .... ....|D#6 2FEF ....
....|..|--- .... ....|--- .... ....|--- .... ....
....|..|--- .... ....|--- .... ....|R-- .... ....
....|..|--- .... ....|--- .... ....|--- .... ....
....|..|--- .... ....|--- .... ....|D#6 2FEA ....
....|..|--- .... ....|--- .... ....|--- .... ....
....|..|--- .... ....|G#5 3FFF ....|--- .... ....
....|..|--- .... ....|--- .... ....|--- .... ....
....|..|--- .... ....|--- .... ....|D#6 2FE7 ....
....|..|--- .... ....|--- .... ....|--- .... ....
....|..|--- .... ....|G#5 3FFA ....|--- .... ....
....|..|--- .... ....|--- .... ....|--- .... ....
....|..|--- .... ....|F-5 3FFF ....|--- .... ....
....|..|--- .... ....|--- .... ....|--- .... ....
....|..|--- .... ....|G#5 3FF7 ....|R-- .... ....
....|..|--- .... ....|--- .... ....|--- .... ....
....|..|--- .... ....|F-5 3FFA ....|--- .... ....
....|..|--- .... ....|--- .... ....|--- .... ....
....|..|--- .... ....|--- .... ....|F#6 2FEF ....
....|..|--- .... ....|--- .... ....|--- .... ....
....|..|--- .... ....|F-5 3FF7 ....|--- .... ....
....|..|--- .... ....|--- .... ....|--- .... ....
....|..|--- .... ....|--- .... ....|F#6 2FEA ....
....|..|--- .... ....|--- .... ....|--- .... ....
....|..|--- .... ....|--- .... ....|--- .... ....
....|..|--- .... ....|--- .... ....|R-- .... ....
....|..|--- .... ....|--- .... ....|F#6 2FE7 ....
....|..|--- .... ....|--- .... ....|--- .... ....
....|..|--- .... ....|--- .... ....|--- .... ....
....|..|--- .... ....|R-- .... ....|R-- .... ....
....|..|--- .... ....|G#5 3FFF ....|F-6 2FEF ....
....|..|--- .... ....|C#4 2F1F ....|--- .... ....
....|..|--- .... ....|--- .... ....|--- .... ....
....|..|--- .... ....|R-- .... ....|R-- .... ....
....|..|--- .... ....|G#5 3FFA ....|F-6 2FEA ....
....|..|--- .... ....|C#4 2F1A ....|--- .... ....
....|..|--- .... ....|--- .... ....|--- .... ....
....|..|--- .... ....|R-- .... ....|--- .... ....
....|..|--- .... ....|G#5 3FF7 ....|F-6 2FE7 ....
....|..|--- .... ....|C#4 2F17 ....|--- .... ....
....|..|--- .... ....|--- .... ....|--- .... ....
....|..|--- .... ....|--- .... ....|--- .... ....
....|..|--- .... ....|F-5 3FFF ....|--- .... ....
....|..|--- .... ....|--- .... ....|--- .... ....
....|..|--- .... ....|--- .... ....|--- .... ....
....|..|--- .... ....|--- .... ....|--- .... ....
....|..|--- .... ....|F-5 3FFA ....|--- .... ....
....|..|--- .... ....|--- .... ....|--- .... ....
....|..|--- .... ....|--- .... ....|--- .... ....
....|..|--- .... ....|--- .... ....|--- .... ....
....|..|--- .... ....|F-5 3FF7 ....|--- .... ....
....|..|--- .... ....|--- .... ....|--- .... ....
....|..|--- .... ....|--- .... ....|--- .... ....
....|..|--- .... ....|--- .... ....|--- .... ....
....|..|--- .... ....|--- .... ....|--- .... ....
....|..|--- .... ....|--- .... ....|--- .... ....
....|..|--- .... ....|--- .... ....|--- .... ....
....|..|--- .... ....|--- .... ....|--- .... ....
....|..|--- .... ....|--- .... ....|--- .... ....
....|..|--- .... ....|--- .... ....|--- .... ....
....|..|--- .... ....|--- .... ....|--- .... ....
....|..|--- .... ....|--- .... ....|--- .... ....
....|..|--- .... ....|--- .... ....|--- .... ....
....|..|--- .... ....|--- .... ....|--- .... ....
....|..|--- .... ....|--- .... ....|--- .... ....
....|..|--- .... ....|--- .... ....|--- .... ....
....|..|--- .... ....|--- .... ....|--- .... ....
....|..|--- .... ....|--- .... ....|--- .... ....
....|..|--- .... ....|--- .... ....|--- .... ....
....|..|--- .... ....|--- .... ....|--- .... ....
....|..|--- .... ....|--- .... ....|--- .... ....
....|..|--- .... ....|--- .... ....|--- .... ....
....|..|--- .... ....|--- .... ....|--- .... ....
....|..|--- .... ....|--- .... ....|R-- .... ....
....|..|--- .... ....|--- .... ....|--- .... ....
....|..|--- .... ....|--- .... ....|--- .... ....
....|..|--- .... ....|--- .... ....|--- .... ....
....|..|--- .... ....|R-- .... ....|R-- .... ....

[Pattern1]
....|..|--- .... ....|F-5 3FFF ....|A#5 2FEF ....
....|..|--- .... ....|A#4 2F2F ....|--- .... ....
....|..|--- .... ....|--- .... ....|--- .... ....
....|..|--- .... ....|R-- .... ....|R-- .... ....
....|..|--- .... ....|F-5 3FFA ....|A#5 2FEA ....
....|..|--- .... ....|A#4 2F2A ....|--- .... ....
....|..|--- .... ....|D#5 3FFF ....|--- .... ....
....|..|--- .... ....|R-- .... ....|--- .... ....
....|..|--- .... ....|F-5 3FF7 ....|A#5 2FE7 ....
....|..|--- .... ....|A#4 2F27 ....|--- .... ....
....|..|--- .... ....|D#5 3FFA ....|A#4 2FEF ....
....|..|--- .... ....|--- .... ....|--- .... ....
....|..|--- .... ....|--- .... ....|--- .... ....
....|..|--- .... ....|--- .... ....|--- .... ....
....|..|--- .... ....|D#5 3FF7 ....|A#4 2FEA ....
....|..|--- .... ....|--- .... ....|--- .... ....
....|..|--- .... ....|--- .... ....|--- .... ....
....|..|--- .... ....|--- .... ....|--- .... ....
....|..|--- .... ....|--- .... ....|A#4 2FE7 ....
....|..|--- .... ....|--- .... ....|--- .... ....
....|..|--- .... ....|--- .... ....|--- .... ....
....|..|--- .... ....|--- .... ....|--- .... ....
....|..|--- .... ....|--- .... ....|--- .... ....
....|..|--- .... ....|--- .... ....|--- .... ....
....|..|--- .... ....|F-5 3FFF ....|--- .... ....
....|..|--- .... ....|--- .... ....|--- .... ....
....|..|--- .... ....|--- .... ....|--- .... ....
....|..|--- .... ....|--- .... ....|--- .... ....
....|..|--- .... ....|F-5 3FFA ....|--- .... ....
....|..|--- .... ....|--- .... ....|--- .... ....
....|..|--- .... ....|D#5 3FFF ....|--- .... ....
....|..|--- .... ....|--- .... ....|--- .... ....
....|..|--- .... ....|F-5 3FF7 ....|--- .... ....
....|..|--- .... ....|--- .... ....|--- .... ....
....|..|--- .... ....|D#5 3FFA ....|--- .... ....
....|..|--- .... ....|--- .... ....|--- .... ....
....|..|--- .... ....|--- .... ....|D#6 2FEF ....
....|..|--- .... ....|--- .... ....|--- .... ....
....|..|--- .... ....|D#5 3FF7 ....|--- .... ....
....|..|--- .... ....|--- .... ....|--- .... ....
....|..|--- .... ....|--- .... ....|A#4 2FEF ....
....|..|--- .... ....|--- .... ....|--- .... ....
....|..|--- .... ....|--- .... ....|C#6 2FEF ....
....|..|--- .... ....|--- .... ....|--- .... ....
....|..|--- .... ....|--- .... ....|D#6 2FE7 ....
....|..|--- .... ....|--- .... ....|--- .... ....
....|..|--- .... ....|--- .... ....|A#4 2FEF ....
....|..|--- .... ....|R-- .... ....|--- .... ....
....|..|--- .... ....|F-5 3FFF ....|A#4 2FE7 ....
....|..|--- .... ....|A#4 2F2F ....|--- .... ....
....|..|--- .... ....|--- .... ....|C#6 2FE7 ....
....|..|--- .... ....|R-- .... ....|--- .... ....
....|..|--- .... ....|F-5 3FFA ....|--- .... ....
....|..|--- .... ....|A#4 2F2A ....|--- .... ....
....|..|--- .... ....|--- .... ....|D#5 2FEF ....
....|..|--- .... ....|R-- .... ....|--- .... ....
....|..|--- .... ....|F-5 3FF7 ....|--- .... ....
....|..|--- .... ....|A#4 2F27 ....|--- .... ....
....|..|--- .... ....|--- .... ....|D#5 2FEA ....
....|..|--- .... ....|--- .... ....|--- .... ....
....|..|--- .... ....|D#5 3FFF ....|A#4 2FEF ....
....|..|--- .... ....|--- .... ....|--- .... ....
....|..|--- .... ....|--- .... ....|D#5 2FE7 ....
....|..|--- .... ....|--- .... ....|--- .... ....
....|..|--- .... ....|D#5 3FFA ....|A#4 2FEA ....
....|..|--- .... ....|--- .... ....|--- .... ....
....|..|--- .... ....|--- .... ....|A#5 2FEF ....
....|..|--- .... ....|--- .... ....|--- .... ....
....|..|--- .... ....|D#5 3FF7 ....|A#4 2FE7 ....
....|..|--- .... ....|--- .... ....|--- .... ....
....|..|--- .... ....|--- .... ....|A#4 2FEF ....
....|..|--- .... ....|--- .... ....|--- .... ....
....|..|--- .... ....|--- .... ....|C#5 2FEF ....
....|..|--- .... ....|--- .... ....|--- .... ....
....|..|--- .... ....|--- .... ....|A#5 2FE7 ....
....|..|--- .... ....|--- .... ....|--- .... ....
....|..|--- .... ....|--- .... ....|C#5 2FEA ....
....|..|--- .... ....|--- .... ....|A#4 2FEF ....
....|..|--- .... ....|--- .... ....|C-6 2FEF ....
....|..|--- .... ....|--- .... ....|--- .... ....
....|..|--- .... ....|--- .... ....|C#5 2FE7 ....
....|..|--- .... ....|--- .... ....|A#4 2FEF ....
....|..|--- .... ....|--- .... ....|C-6 2FEA ....
....|..|--- .... ....|--- .... ....|--- .... ....
....|..|--- .... ....|--- .... ....|C#6 2FEF ....
....|..|--- .... ....|--- .... ....|A#4 2FE7 ....
....|..|--- .... ....|--- .... ....|C-6 2FE7 ....
....|..|--- .... ....|--- .... ....|--- .... ....
....|..|--- .... ....|--- .... ....|C#6 2FEF ....
....|..|--- .... ....|--- .... ....|A#4 2FE7 ....
....|..|--- .... ....|--- .... ....|R-- .... ....
....|..|--- .... ....|--- .... ....|--- .... ....
....|..|--- .... ....|--- .... ....|C#6 2FE7 ....
....|..|--- .... ....|--- .... ....|--- .... ....
....|..|--- .... ....|--- .... ....|R-- .... ....
....|..|--- .... ....|R-- .... ....|--- .... ....

[Pattern2]
....|..|--- .... ....|G#4 3FFF ....|G#4 2FEF ....
....|..|--- .... ....|F-4 2F2F ....|--- .... ....
....|..|--- .... ....|--- .... ....|R-- .... ....
....|..|--- .... ....|R-- .... ....|--- .... ....
....|..|--- .... ....|G#4 3FFA ....|G#4 2FEA ....
....|..|--- .... ....|F-4 2F2A ....|--- .... ....
....|..|--- .... ....|F-4 3FFF ....|--- .... ....
....|..|--- .... ....|R-- .... ....|--- .... ....
....|..|--- .... ....|G#4 3FF7 ....|G#4 2FE7 ....
....|..|--- .... ....|F-4 2F27 ....|--- .... ....
....|..|--- .... ....|F-4 3FFA ....|--- .... ....
....|..|--- .... ....|--- .... ....|--- .... ....
....|..|--- .... ....|--- .... ....|--- .... ....
....|..|--- .... ....|--- .... ....|--- .... ....
....|..|--- .... ....|F-4 3FF7 ....|--- .... ....
....|..|--- .... ....|--- .... ....|--- .... ....
....|..|--- .... ....|--- .... ....|--- .... ....
....|..|--- .... ....|--- .... ....|--- .... ....
....|..|--- .... ....|--- .... ....|--- .... ....
....|..|--- .... ....|--- .... ....|--- .... ....
....|..|--- .... ....|--- .... ....|--- .... ....
....|..|--- .... ....|--- .... ....|--- .... ....
....|..|--- .... ....|--- .... ....|--- .... ....
....|..|--- .... ....|--- .... ....|--- .... ....
....|..|--- .... ....|G#4 3FFF ....|--- .... ....
....|..|--- .... ....|--- .... ....|--- .... ....
....|..|--- .... ....|--- .... ....|--- .... ....
....|..|--- .... ....|--- .... ....|--- .... ....
....|..|--- .... ....|G#4 3FFA ....|--- .... ....
....|..|--- .... ....|--- .... ....|--- .... ....
....|..|--- .... ....|F-4 3FFF ....|--- .... ....
....|..|--- .... ....|--- .... ....|--- .... ....
....|..|--- .... ....|G#4 3FF7 ....|--- .... ....
....|..|--- .... ....|--- .... ....|--- .... ....
....|..|--- .... ....|F-4 3FFA ....|R-- .... ....
....|..|--- .... ....|--- .... ....|--- .... ....
....|..|--- .... ....|--- .... ....|C#4 2FEF ....
....|..|--- .... ....|--- .... ....|--- .... ....
....|..|--- .... ....|F-4 3FF7 ....|R-- .... ....
....|..|--- .... ....|--- .... ....|--- .... ....
....|..|--- .... ....|--- .... ....|C#4 2FEA ....
....|..|--- .... ....|--- .... ....|--- .... ....
....|..|--- .... ....|--- .... ....|C#4 2FEF ....
....|..|--- .... ....|--- .... ....|C-4 2FEF ....
....|..|--- .... ....|--- .... ....|C#4 2FE7 ....
....|..|--- .... ....|--- .... ....|--- .... ....
....|..|--- .... ....|--- .... ....|C#4 2FEA ....
....|..|--- .... ....|R-- .... ....|C-4 2FEA ....
....|..|--- .... ....|G#4 3FFF ....|--- .... ....
....|..|--- .... ....|F-4 2F2F ....|--- .... ....
....|..|--- .... ....|--- .... ....|C#4 2FE7 ....
....|..|--- .... ....|R-- .... ....|C-4 2FE7 ....
....|..|--- .... ....|G#4 3FFA ....|--- .... ....
....|..|--- .... ....|F-4 2F2A ....|--- .... ....
....|..|--- .... ....|--- .... ....|--- .... ....
....|..|--- .... ....|R-- .... ....|--- .... ....
....|..|--- .... ....|G#4 3FF7 ....|--- .... ....
....|..|--- .... ....|F-4 2F27 ....|--- .... ....
....|..|--- .... ....|--- .... ....|--- .... ....
....|..|--- .... ....|--- .... ....|--- .... ....
....|..|--- .... ....|F-4 3FFF ....|--- .... ....
....|..|--- .... ....|--- .... ....|--- .... ....
....|..|--- .... ....|--- .... ....|--- .... ....
....|..|--- .... ....|--- .... ....|--- .... ....
....|..|--- .... ....|F-4 3FFA ....|--- .... ....
....|..|--- .... ....|--- .... ....|--- .... ....
....|..|--- .... ....|--- .... ....|--- .... ....
....|..|--- .... ....|--- .... ....|--- .... ....
....|..|--- .... ....|F-4 3FF7 ....|--- .... ....
....|..|--- .... ....|--- .... ....|--- .... ....
....|..|--- .... ....|--- .... ....|--- .... ....
....|..|--- .... ....|--- .... ....|--- .... ....
....|..|--- .... ....|--- .... ....|--- .... ....
....|..|--- .... ....|--- .... ....|--- .... ....
....|..|--- .... ....|--- .... ....|--- .... ....
....|..|--- .... ....|--- .... ....|--- .... ....
....|..|--- .... ....|--- .... ....|--- .... ....
....|..|--- .... ....|--- .... ....|--- .... ....
....|..|--- .... ....|--- .... ....|--- .... ....
....|..|--- .... ....|--- .... ....|--- .... ....
....|..|--- .... ....|--- .... ....|--- .... ....
....|..|--- .... ....|--- .... ....|--- .... ....
....|..|--- .... ....|--- .... ....|--- .... ....
....|..|--- .... ....|--- .... ....|--- .... ....
....|..|--- .... ....|--- .... ....|--- .... ....
....|..|--- .... ....|--- .... ....|--- .... ....
....|..|--- .... ....|--- .... ....|--- .... ....
....|..|--- .... ....|--- .... ....|--- .... ....
....|..|--- .... ....|--- .... ....|--- .... ....
....|..|--- .... ....|--- .... ....|--- .... ....
....|..|--- .... ....|--- .... ....|--- .... ....
....|..|--- .... ....|--- .... ....|--- .... ....
....|..|--- .... ....|--- .... ....|--- .... ....
....|..|--- .... ....|--- .... ....|--- .... ....
....|..|--- .... ....|--- .... ....|R-- .... ....
....|..|--- .... ....|R-- .... ....|--- .... ....

[Pattern3]
....|..|--- .... ....|A#4 3FFF ....|--- .... ....
....|..|--- .... ....|F#4 2F1F ....|--- .... ....
....|..|--- .... ....|--- .... ....|R-- .... ....
....|..|--- .... ....|R-- .... ....|--- .... ....
....|..|--- .... ....|A#4 3FFA ....|--- .... ....
....|..|--- .... ....|F#4 2F1A ....|--- .... ....
....|..|--- .... ....|F#4 3FFF ....|R-- .... ....
....|..|--- .... ....|R-- .... ....|--- .... ....
....|..|--- .... ....|A#4 3FF7 ....|--- .... ....
....|..|--- .... ....|F#4 2F17 ....|--- .... ....
....|..|--- .... ....|F#4 3FFA ....|--- .... ....
....|..|--- .... ....|--- .... ....|--- .... ....
....|..|--- .... ....|--- .... ....|C-6 2FEF ....
....|..|--- .... ....|--- .... ....|--- .... ....
....|..|--- .... ....|F#4 3FF7 ....|--- .... ....
....|..|--- .... ....|--- .... ....|--- .... ....
....|..|--- .... ....|--- .... ....|C-6 2FEA ....
....|..|--- .... ....|--- .... ....|--- .... ....
....|..|--- .... ....|--- .... ....|C#6 2FEF ....
....|..|--- .... ....|--- .... ....|--- .... ....
....|..|--- .... ....|--- .... ....|C-6 2FE7 ....
....|..|--- .... ....|--- .... ....|--- .... ....
....|..|--- .... ....|--- .... ....|C#6 2FEA ....
....|..|--- .... ....|--- .... ....|R-- .... ....
....|..|--- .... ....|A#4 3FFF ....|--- .... ....
....|..|--- .... ....|--- .... ....|--- .... ....
....|..|--- .... ....|--- .... ....|C#6 2FE7 ....
....|..|--- .... ....|--- .... ....|R-- .... ....
....|..|--- .... ....|A#4 3FFA ....|--- .... ....
....|..|--- .... ....|--- .... ....|--- .... ....
....|..|--- .... ....|F#4 3FFF ....|D#6 2FEF ....
....|..|--- .... ....|--- .... ....|R-- .... ....
....|..|--- .... ....|A#4 3FF7 ....|--- .... ....
....|..|--- .... ....|--- .... ....|--- .... ....
....|..|--- .... ....|F#4 3FFA ....|D#6 2FEA ....
....|..|--- .... ....|--- .... ....|--- .... ....
....|..|--- .... ....|--- .... ....|--- .... ....
....|..|--- .... ....|--- .... ....|--- .... ....
....|..|--- .... ....|F#4 3FF7 ....|D#6 2FE7 ....
....|..|--- .... ....|--- .... ....|--- .... ....
....|..|--- .... ....|--- .... ....|--- .... ....
....|..|--- .... ....|--- .... ....|--- .... ....
....|..|--- .... ....|--- .... ....|R-- .... ....
....|..|--- .... ....|--- .... ....|--- .... ....
....|..|--- .... ....|--- .... ....|--- .... ....
....|..|--- .... ....|--- .... ....|--- .... ....
....|..|--- .... ....|--- .... ....|--- .... ....
....|..|--- .... ....|R-- .... ....|--- .... ....
....|..|--- .... ....|A#4 3FFF ....|--- .... ....
....|..|--- .... ....|F#4 2F1F ....|--- .... ....
....|..|--- .... ....|--- .... ....|--- .... ....
....|..|--- .... ....|R-- .... ....|--- .... ....
....|..|--- .... ....|A#4 3FFA ....|--- .... ....
....|..|--- .... ....|F#4 2F1A ....|--- .... ....
....|..|--- .... ....|--- .... ....|--- .... ....
....|..|--- .... ....|R-- .... ....|--- .... ....
....|..|--- .... ....|A#4 3FF7 ....|--- .... ....
....|..|--- .... ....|F#4 2F17 ....|--- .... ....
....|..|--- .... ....|--- .... ....|--- .... ....
....|..|--- .... ....|--- .... ....|--- .... ....
....|..|--- .... ....|F#4 3FFF ....|F#6 2FEF ....
....|..|--- .... ....|--- .... ....|--- .... ....
....|..|--- .... ....|--- .... ....|--- .... ....
....|..|--- .... ....|--- .... ....|--- .... ....
....|..|--- .... ....|F#4 3FFA ....|F#6 2FEA ....
....|..|--- .... ....|--- .... ....|--- .... ....
....|..|--- .... ....|--- .... ....|F-6 2FEF ....
....|..|--- .... ....|--- .... ....|--- .... ....
....|..|--- .... ....|F#4 3FF7 ....|F#6 2FE7 ....
....|..|--- .... ....|--- .... ....|--- .... ....
....|..|--- .... ....|--- .... ....|F-6 2FEA ....
....|..|--- .... ....|--- .... ....|--- .... ....
....|..|--- .... ....|--- .... ....|R-- .... ....
....|..|--- .... ....|--- .... ....|--- .... ....
....|..|--- .... ....|--- .... ....|F-6 2FE7 ....
....|..|--- .... ....|--- .... ....|--- .... ....
....|..|--- .... ....|--- .... ....|R-- .... ....
....|..|--- .... ....|--- .... ....|--- .... ....
....|..|--- .... ....|--- .... ....|F#6 2FEF ....
....|..|--- .... ....|--- .... ....|--- .... ....
....|..|--- .... ....|--- .... ....|R-- .... ....
....|..|--- .... ....|--- .... ....|--- .... ....
....|..|--- .... ....|--- .... ....|F#6 2FEA ....
....|..|--- .... ....|--- .... ....|--- .... ....
....|..|--- .... ....|--- .... ....|F-6 2FEF ....
....|..|--- .... ....|--- .... ....|--- .... ....
....|..|--- .... ....|--- .... ....|F#6 2FE7 ....
....|..|--- .... ....|--- .... ....|--- .... ....
....|..|--- .... ....|--- .... ....|F-6 2FEA ....
....|..|--- .... ....|--- .... ....|--- .... ....
....|..|--- .... ....|--- .... ....|R-- .... ....
....|..|--- .... ....|--- .... ....|--- .... ....
....|..|--- .... ....|--- .... ....|F-6 2FE7 ....
....|..|--- .... ....|--- .... ....|--- .... ....
....|..|--- .... ....|--- .... ....|R-- .... ....
....|..|--- .... ....|R-- .... ....|--- .... ....

[Pattern4]
....|..|--- .... ....|G#5 3FFF ....|C#6 2FEF ....
....|..|--- .... ....|C#4 2F1F ....|--- .... ....
....|..|--- .... ....|--- .... ....|R-- .... ....
....|..|--- .... ....|R-- .... ....|--- .... ....
....|..|--- .... ....|G#5 3FFA ....|C#6 2FEA ....
....|..|--- .... ....|C#4 2F1A ....|--- .... ....
....|..|--- .... ....|F-5 3FFF ....|--- .... ....
....|..|--- .... ....|R-- .... ....|--- .... ....
....|..|--- .... ....|G#5 3FF7 ....|C#6 2FE7 ....
....|..|--- .... ....|C#4 2F17 ....|--- .... ....
....|..|--- .... ....|F-5 3FFA ....|--- .... ....
....|..|--- .... ....|--- .... ....|--- .... ....
....|..|--- .... ....|--- .... ....|R-- .... ....
....|..|--- .... ....|--- .... ....|--- .... ....
....|..|--- .... ....|F-5 3FF7 ....|--- .... ....
....|..|--- .... ....|--- .... ....|--- .... ....
....|..|--- .... ....|--- .... ....|R-- .... ....
....|..|--- .... ....|--- .... ....|--- .... ....
....|..|--- .... ....|--- .... ....|D#6 2FEF ....
....|..|--- .... ....|--- .... ....|--- .... ....
....|..|--- .... ....|--- .... ....|R-- .... ....
....|..|--- .... ....|--- .... ....|--- .... ....
....|..|--- .... ....|--- .... ....|D#6 2FEA ....
....|..|--- .... ....|--- .... ....|--- .... ....
....|..|--- .... ....|G#5 3FFF ....|--- .... ....
....|..|--- .... ....|--- .... ....|--- .... ....
....|..|--- .... ....|--- .... ....|D#6 2FE7 ....
....|..|--- .... ....|--- .... ....|--- .... ....
....|..|--- .... ....|G#5 3FFA ....|--- .... ....
....|..|--- .... ....|--- .... ....|--- .... ....
....|..|--- .... ....|F-5 3FFF ....|--- .... ....
....|..|--- .... ....|--- .... ....|--- .... ....
....|..|--- .... ....|G#5 3FF7 ....|R-- .... ....
....|..|--- .... ....|--- .... ....|--- .... ....
....|..|--- .... ....|F-5 3FFA ....|--- .... ....
....|..|--- .... ....|--- .... ....|--- .... ....
....|..|--- .... ....|--- .... ....|F#6 2FEF ....
....|..|--- .... ....|--- .... ....|--- .... ....
....|..|--- .... ....|F-5 3FF7 ....|--- .... ....
....|..|--- .... ....|--- .... ....|--- .... ....
....|..|--- .... ....|--- .... ....|F#6 2FEA ....
....|..|--- .... ....|--- .... ....|--- .... ....
....|..|--- .... ....|--- .... ....|--- .... ....
....|..|--- .... ....|--- .... ....|R-- .... ....
....|..|--- .... ....|--- .... ....|F#6 2FE7 ....
....|..|--- .... ....|--- .... ....|--- .... ....
....|..|--- .... ....|--- .... ....|--- .... ....
....|..|--- .... ....|R-- .... ....|R-- .... ....
....|..|--- .... ....|G#5 3FFF ....|F-6 2FEF ....
....|..|--- .... ....|C#4 2F1F ....|--- .... ....
....|..|--- .... ....|--- .... ....|--- .... ....
....|..|--- .... ....|R-- .... ....|R-- .... ....
....|..|--- .... ....|G#5 3FFA ....|F-6 2FEA ....
....|..|--- .... ....|C#4 2F1A ....|--- .... ....
....|..|--- .... ....|--- .... ....|--- .... ....
....|..|--- .... ....|R-- .... ....|--- .... ....
....|..|--- .... ....|G#5 3FF7 ....|F-6 2FE7 ....
....|..|--- .... ....|C#4 2F17 ....|--- .... ....
....|..|--- .... ....|--- .... ....|--- .... ....
....|..|--- .... ....|--- .... ....|--- .... ....
....|..|--- .... ....|F-5 3FFF ....|--- .... ....
....|..|--- .... ....|--- .... ....|--- .... ....
....|..|--- .... ....|--- .... ....|--- .... ....
....|..|--- .... ....|--- .... ....|--- .... ....
....|..|--- .... ....|F-5 3FFA ....|--- .... ....
....|..|--- .... ....|--- .... ....|--- .... ....
....|..|--- .... ....|--- .... ....|--- .... ....
....|..|--- .... ....|--- .... ....|--- .... ....
....|..|--- .... ....|F-5 3FF7 ....|--- .... ....
....|..|--- .... ....|--- .... ....|--- .... ....
....|..|--- .... ....|--- .... ....|--- .... ....
....|..|--- .... ....|--- .... ....|--- .... ....
....|..|--- .... ....|--- .... ....|--- .... ....
....|..|--- .... ....|--- .... ....|--- .... ....
....|..|--- .... ....|--- .... ....|--- .... ....
....|..|--- .... ....|--- .... ....|--- .... ....
....|..|--- .... ....|--- .... ....|--- .... ....
....|..|--- .... ....|--- .... ....|--- .... ....
....|..|--- .... ....|--- .... ....|--- .... ....
....|..|--- .... ....|--- .... ....|--- .... ....
....|..|--- .... ....|--- .... ....|--- .... ....
....|..|--- .... ....|--- .... ....|--- .... ....
....|..|--- .... ....|--- .... ....|--- .... ....
....|..|--- .... ....|--- .... ....|--- .... ....
....|..|--- .... ....|--- .... ....|--- .... ....
....|..|--- .... ....|--- .... ....|--- .... ....
....|..|--- .... ....|--- .... ....|--- .... ....
....|..|--- .... ....|--- .... ....|--- .... ....
....|..|--- .... ....|--- .... ....|--- .... ....
....|..|--- .... ....|--- .... ....|--- .... ....
....|..|--- .... ....|--- .... ....|--- .... ....
....|..|--- .... ....|--- .... ....|R-- .... ....
....|..|--- .... ....|--- .... ....|--- .... ....
....|..|--- .... ....|--- .... ....|--- .... ....
....|..|--- .... ....|--- .... ....|--- .... ....
....|..|--- .... ....|R-- .... ....|R-- .... ....

[Pattern12]
....|..|D#4 2F.F ....|G#5 3FFF ....|C#6 2FEF ....
....|..|--- .... ....|C#4 2F1F ....|--- .... ....
....|..|R-- .... ....|--- .... ....|R-- .... ....
....|..|F-4 2F.F ....|R-- .... ....|--- .... ....
....|..|D#4 2F.A ....|G#5 3FFA ....|C#6 2FEA ....
....|..|--- .... ....|C#4 2F1A ....|--- .... ....
....|..|C#4 2F.F ....|F-5 3FFF ....|--- .... ....
....|..|F-4 2F.A ....|R-- .... ....|--- .... ....
....|..|D#4 2F.7 ....|G#5 3FF7 ....|C#6 2FE7 ....
....|..|--- .... ....|C#4 2F17 ....|--- .... ....
....|..|C#4 2F.A ....|F-5 3FFA ....|--- .... ....
....|..|F-4 2F.7 ....|--- .... ....|--- .... ....
....|..|--- .... ....|--- .... ....|R-- .... ....
....|..|--- .... ....|--- .... ....|--- .... ....
....|..|C#4 2F.7 ....|F-5 3FF7 ....|--- .... ....
....|..|--- .... ....|--- .... ....|--- .... ....
....|..|--- .... ....|--- .... ....|R-- .... ....
....|..|--- .... ....|--- .... ....|--- .... ....
....|..|--- .... ....|--- .... ....|D#6 2FEF ....
....|..|--- .... ....|--- .... ....|--- .... ....
....|..|--- .... ....|--- .... ....|R-- .... ....
....|..|--- .... ....|--- .... ....|--- .... ....
....|..|--- .... ....|--- .... ....|D#6 2FEA ....
....|..|--- .... ....|--- .... ....|--- .... ....
....|..|--- .... ....|G#5 3FFF ....|--- .... ....
....|..|--- .... ....|--- .... ....|--- .... ....
....|..|--- .... ....|--- .... ....|D#6 2FE7 ....
....|..|--- .... ....|--- .... ....|--- .... ....
....|..|--- .... ....|G#5 3FFA ....|--- .... ....
....|..|--- .... ....|--- .... ....|--- .... ....
....|..|--- .... ....|F-5 3FFF ....|--- .... ....
....|..|--- .... ....|--- .... ....|--- .... ....
....|..|--- .... ....|G#5 3FF7 ....|R-- .... ....
....|..|--- .... ....|--- .... ....|--- .... ....
....|..|--- .... ....|F-5 3FFA ....|--- .... ....
....|..|--- .... ....|--- .... ....|--- .... ....
....|..|--- .... ....|--- .... ....|F#6 2FEF ....
....|..|R-- .... ....|--- .... ....|--- .... ....
....|..|D#5 2F.F ....|F-5 3FF7 ....|--- .... ....
....|..|C#5 2F.F ....|--- .... ....|--- .... ....
....|..|R-- .... ....|--- .... ....|F#6 2FEA ....
....|..|D#5 2F.F ....|--- .... ....|--- .... ....
....|..|F-5 2F.F ....|--- .... ....|--- .... ....
....|..|C#5 2F.A ....|--- .... ....|R-- .... ....
....|..|D#5 2F.F ....|--- .... ....|F#6 2FE7 ....
....|..|F-5 2F.F ....|--- .... ....|--- .... ....
....|..|D#5 2F.7 ....|--- .... ....|--- .... ....
....|..|D#5 2F.F ....|R-- .... ....|R-- .... ....
....|..|G#5 2F.F ....|G#5 3FFF ....|F-6 2FEF ....
....|..|D#5 2F.7 ....|C#4 2F1F ....|--- .... ....
....|..|F-5 2F.7 ....|--- .... ....|--- .... ....
....|..|D#5 2F.A ....|R-- .... ....|R-- .... ....
....|..|D#5 2F.7 ....|G#5 3FFA ....|F-6 2FEA ....
....|..|F-5 2F.7 ....|C#4 2F1A ....|--- .... ....
....|..|R-- .... ....|--- .... ....|--- .... ....
....|..|D#5 2F.7 ....|R-- .... ....|--- .... ....
....|..|G#5 2F.7 ....|G#5 3FF7 ....|F-6 2FE7 ....
....|..|--- .... ....|C#4 2F17 ....|--- .... ....
....|..|--- .... ....|--- .... ....|--- .... ....
....|..|--- .... ....|--- .... ....|--- .... ....
....|..|--- .... ....|F-5 3FFF ....|--- .... ....
....|..|--- .... ....|--- .... ....|--- .... ....
....|..|--- .... ....|--- .... ....|--- .... ....
....|..|--- .... ....|--- .... ....|--- .... ....
....|..|--- .... ....|F-5 3FFA ....|--- .... ....
....|..|--- .... ....|--- .... ....|--- .... ....
....|..|--- .... ....|--- .... ....|--- .... ....
....|..|--- .... ....|--- .... ....|--- .... ....
....|..|--- .... ....|F-5 3FF7 ....|--- .... ....
....|..|--- .... ....|--- .... ....|--- .... ....
....|..|--- .... ....|--- .... ....|--- .... ....
....|..|--- .... ....|--- .... ....|--- .... ....
....|..|C#6 2F.F ....|--- .... ....|--- .... ....
....|..|--- .... ....|--- .... ....|--- .... ....
....|..|R-- .... ....|--- .... ....|--- .... ....
....|..|D#6 2F.F ....|--- .... ....|--- .... ....
....|..|C#6 2F.A ....|--- .... ....|--- .... ....
....|..|--- .... ....|--- .... ....|--- .... ....
....|..|G#5 2F.F ....|--- .... ....|--- .... ....
....|..|D#6 2F.A ....|--- .... ....|--- .... ....
....|..|C#6 2F.7 ....|--- .... ....|--- .... ....
....|..|--- .... ....|--- .... ....|--- .... ....
....|..|G#5 2F.A ....|--- .... ....|--- .... ....
....|..|D#6 2F.7 ....|--- .... ....|--- .... ....
....|..|--- .... ....|--- .... ....|--- .... ....
....|..|--- .... ....|--- .... ....|--- .... ....
....|..|G#5 2F.7 ....|--- .... ....|--- .... ....
....|..|--- .... ....|--- .... ....|--- .... ....
....|..|--- .... ....|--- .... ....|--- .... ....
....|..|--- .... ....|--- .... ....|--- .... ....
....|..|--- .... ....|--- .... ....|--- .... ....
....|..|--- .... ....|--- .... ....|R-- .... ....
....|..|--- .... ....|--- .... ....|--- .... ....
....|..|--- .... ....|--- .... ....|--- .... ....
....|..|--- .... ....|--- .... ....|--- .... ....
....|..|--- .... ....|R-- .... ....|R-- .... ....

[Pattern13]
....|..|D#4 2F.F ....|F-5 3FFF ....|A#5 2FEF ....
....|..|--- .... ....|A#4 2F2F ....|--- .... ....
....|..|R-- .... ....|--- .... ....|--- .... ....
....|..|F-4 2F.F ....|R-- .... ....|R-- .... ....
....|..|D#4 2F.A ....|F-5 3FFA ....|A#5 2FEA ....
....|..|--- .... ....|A#4 2F2A ....|--- .... ....
....|..|C#4 2F.F ....|D#5 3FFF ....|--- .... ....
....|..|F-4 2F.A ....|R-- .... ....|--- .... ....
....|..|D#4 2F.7 ....|F-5 3FF7 ....|A#5 2FE7 ....
....|..|--- .... ....|A#4 2F27 ....|--- .... ....
....|..|C#4 2F.A ....|D#5 3FFA ....|A#4 2FEF ....
....|..|F-4 2F.7 ....|--- .... ....|--- .... ....
....|..|--- .... ....|--- .... ....|--- .... ....
....|..|--- .... ....|--- .... ....|--- .... ....
....|..|C#4 2F.7 ....|D#5 3FF7 ....|A#4 2FEA ....
....|..|--- .... ....|--- .... ....|--- .... ....
....|..|--- .... ....|--- .... ....|--- .... ....
....|..|--- .... ....|--- .... ....|--- .... ....
....|..|--- .... ....|--- .... ....|A#4 2FE7 ....
....|..|--- .... ....|--- .... ....|--- .... ....
....|..|--- .... ....|--- .... ....|--- .... ....
....|..|--- .... ....|--- .... ....|--- .... ....
....|..|--- .... ....|--- .... ....|--- .... ....
....|..|--- .... ....|--- .... ....|--- .... ....
....|..|--- .... ....|F-5 3FFF ....|--- .... ....
....|..|--- .... ....|--- .... ....|--- .... ....
....|..|--- .... ....|--- .... ....|--- .... ....
....|..|--- .... ....|--- .... ....|--- .... ....
....|..|--- .... ....|F-5 3FFA ....|--- .... ....
....|..|--- .... ....|--- .... ....|--- .... ....
....|..|--- .... ....|D#5 3FFF ....|--- .... ....
....|..|--- .... ....|--- .... ....|--- .... ....
....|..|--- .... ....|F-5 3FF7 ....|--- .... ....
....|..|--- .... ....|--- .... ....|--- .... ....
....|..|--- .... ....|D#5 3FFA ....|--- .... ....
....|..|--- .... ....|--- .... ....|--- .... ....
....|..|R-- .... ....|--- .... ....|D#6 2FEF ....
....|..|--- .... ....|--- .... ....|--- .... ....
....|..|A#4 2F.F ....|D#5 3FF7 ....|--- .... ....
....|..|G#4 2F.F ....|--- .... ....|--- .... ....
....|..|R-- .... ....|--- .... ....|A#4 2FEF ....
....|..|A#4 2F.F ....|--- .... ....|--- .... ....
....|..|C#5 2F.F ....|--- .... ....|C#6 2FEF ....
....|..|G#4 2F.A ....|--- .... ....|--- .... ....
....|..|A#4 2F.F ....|--- .... ....|D#6 2FE7 ....
....|..|C#5 2F.F ....|--- .... ....|--- .... ....
....|..|A#4 2F.7 ....|--- .... ....|A#4 2FEF ....
....|..|A#4 2F.F ....|R-- .... ....|--- .... ....
....|..|D#5 2F.F ....|F-5 3FFF ....|A#4 2FE7 ....
....|..|A#4 2F.7 ....|A#4 2F2F ....|--- .... ....
....|..|C#5 2F.7 ....|--- .... ....|C#6 2FE7 ....
....|..|A#4 2F.A ....|R-- .... ....|--- .... ....
....|..|A#4 2F.7 ....|F-5 3FFA ....|--- .... ....
....|..|C#5 2F.7 ....|A#4 2F2A ....|--- .... ....
....|..|R-- .... ....|--- .... ....|D#5 2FEF ....
....|..|A#4 2F.7 ....|R-- .... ....|--- .... ....
....|..|D#5 2F.7 ....|F-5 3FF7 ....|--- .... ....
....|..|--- .... ....|A#4 2F27 ....|--- .... ....
....|..|--- .... ....|--- .... ....|D#5 2FEA ....
....|..|--- .... ....|--- .... ....|--- .... ....
....|..|--- .... ....|D#5 3FFF ....|A#4 2FEF ....
....|..|--- .... ....|--- .... ....|--- .... ....
....|..|--- .... ....|--- .... ....|D#5 2FE7 ....
....|..|--- .... ....|--- .... ....|--- .... ....
....|..|--- .... ....|D#5 3FFA ....|A#4 2FEA ....
....|..|--- .... ....|--- .... ....|--- .... ....
....|..|--- .... ....|--- .... ....|A#5 2FEF ....
....|..|--- .... ....|--- .... ....|--- .... ....
....|..|--- .... ....|D#5 3FF7 ....|A#4 2FE7 ....
....|..|--- .... ....|--- .... ....|--- .... ....
....|..|--- .... ....|--- .... ....|A#4 2FEF ....
....|..|--- .... ....|--- .... ....|--- .... ....
....|..|G#5 2F.F ....|--- .... ....|C#5 2FEF ....
....|..|--- .... ....|--- .... ....|--- .... ....
....|..|R-- .... ....|--- .... ....|A#5 2FE7 ....
....|..|A#5 2F.F ....|--- .... ....|--- .... ....
....|..|G#5 2F.A ....|--- .... ....|C#5 2FEA ....
....|..|--- .... ....|--- .... ....|A#4 2FEF ....
....|..|D#5 2F.F ....|--- .... ....|C-6 2FEF ....
....|..|A#5 2F.A ....|--- .... ....|--- .... ....
....|..|G#5 2F.7 ....|--- .... ....|C#5 2FE7 ....
....|..|--- .... ....|--- .... ....|A#4 2FEF ....
....|..|D#5 2F.A ....|--- .... ....|C-6 2FEA ....
....|..|A#5 2F.7 ....|--- .... ....|--- .... ....
....|..|--- .... ....|--- .... ....|C#6 2FEF ....
....|..|--- .... ....|--- .... ....|A#4 2FE7 ....
....|..|D#5 2F.7 ....|--- .... ....|C-6 2FE7 ....
....|..|--- .... ....|--- .... ....|--- .... ....
....|..|--- .... ....|--- .... ....|C#6 2FEF ....
....|..|--- .... ....|--- .... ....|A#4 2FE7 ....
....|..|--- .... ....|--- .... ....|R-- .... ....
....|..|--- .... ....|--- .... ....|--- .... ....
....|..|--- .... ....|--- .... ....|C#6 2FE7 ....
....|..|--- .... ....|--- .... ....|--- .... ....
....|..|--- .... ....|--- .... ....|R-- .... ....
....|..|--- .... ....|R-- .... ....|--- .... ....

[Pattern14]
....|..|F-5 2F.F ....|G#4 3FFF ....|G#4 2FEF ....
....|..|--- .... ....|F-4 2F2F ....|--- .... ....
....|..|--- .... ....|--- .... ....|R-- .... ....
....|..|G#5 2F.F ....|R-- .... ....|--- .... ....
....|..|F-5 2F.A ....|G#4 3FFA ....|G#4 2FEA ....
....|..|--- .... ....|F-4 2F2A ....|--- .... ....
....|..|R-- .... ....|F-4 3FFF ....|--- .... ....
....|..|D#6 2F.F ....|R-- .... ....|--- .... ....
....|..|F-5 2F.7 ....|G#4 3FF7 ....|G#4 2FE7 ....
....|..|--- .... ....|F-4 2F27 ....|--- .... ....
....|..|R-- .... ....|F-4 3FFA ....|--- .... ....
....|..|G#5 2F.7 ....|--- .... ....|--- .... ....
....|..|--- .... ....|--- .... ....|--- .... ....
....|..|--- .... ....|--- .... ....|--- .... ....
....|..|R-- .... ....|F-4 3FF7 ....|--- .... ....
....|..|D#6 2F.7 ....|--- .... ....|--- .... ....
....|..|--- .... ....|--- .... ....|--- .... ....
....|..|--- .... ....|--- .... ....|--- .... ....
....|..|--- .... ....|--- .... ....|--- .... ....
....|..|--- .... ....|--- .... ....|--- .... ....
....|..|--- .... ....|--- .... ....|--- .... ....
....|..|--- .... ....|--- .... ....|--- .... ....
....|..|--- .... ....|--- .... ....|--- .... ....
....|..|--- .... ....|--- .... ....|--- .... ....
....|..|--- .... ....|G#4 3FFF ....|--- .... ....
....|..|--- .... ....|--- .... ....|--- .... ....
....|..|--- .... ....|--- .... ....|--- .... ....
....|..|--- .... ....|--- .... ....|--- .... ....
....|..|--- .... ....|G#4 3FFA ....|--- .... ....
....|..|--- .... ....|--- .... ....|--- .... ....
....|..|--- .... ....|F-4 3FFF ....|--- .... ....
....|..|--- .... ....|--- .... ....|--- .... ....
....|..|--- .... ....|G#4 3FF7 ....|--- .... ....
....|..|--- .... ....|--- .... ....|--- .... ....
....|..|--- .... ....|F-4 3FFA ....|R-- .... ....
....|..|--- .... ....|--- .... ....|--- .... ....
....|..|F-5 2F.F ....|--- .... ....|C#4 2FEF ....
....|..|R-- .... ....|--- .... ....|--- .... ....
....|..|G#5 2F.F ....|F-4 3FF7 ....|R-- .... ....
....|..|F-5 2F.F ....|--- .... ....|--- .... ....
....|..|F-5 2F.A ....|--- .... ....|C#4 2FEA ....
....|..|G#5 2F.F ....|--- .... ....|--- .... ....
....|..|A#5 2F.F ....|--- .... ....|C#4 2FEF ....
....|..|F-5 2F.A ....|--- .... ....|C-4 2FEF ....
....|..|G#5 2F.F ....|--- .... ....|C#4 2FE7 ....
....|..|A#5 2F.F ....|--- .... ....|--- .... ....
....|..|G#5 2F.7 ....|--- .... ....|C#4 2FEA ....
....|..|G#5 2F.F ....|R-- .... ....|C-4 2FEA ....
....|..|D#6 2F.F ....|G#4 3FFF ....|--- .... ....
....|..|G#5 2F.7 ....|F-4 2F2F ....|--- .... ....
....|..|A#5 2F.7 ....|--- .... ....|C#4 2FE7 ....
....|..|G#5 2F.A ....|R-- .... ....|C-4 2FE7 ....
....|..|G#5 2F.7 ....|G#4 3FFA ....|--- .... ....
....|..|A#5 2F.7 ....|F-4 2F2A ....|--- .... ....
....|..|R-- .... ....|--- .... ....|--- .... ....
....|..|G#5 2F.7 ....|R-- .... ....|--- .... ....
....|..|D#6 2F.7 ....|G#4 3FF7 ....|--- .... ....
....|..|--- .... ....|F-4 2F27 ....|--- .... ....
....|..|--- .... ....|--- .... ....|--- .... ....
....|..|--- .... ....|--- .... ....|--- .... ....
....|..|--- .... ....|F-4 3FFF ....|--- .... ....
....|..|--- .... ....|--- .... ....|--- .... ....
....|..|--- .... ....|--- .... ....|--- .... ....
....|..|--- .... ....|--- .... ....|--- .... ....
....|..|--- .... ....|F-4 3FFA ....|--- .... ....
....|..|--- .... ....|--- .... ....|--- .... ....
....|..|--- .... ....|--- .... ....|--- .... ....
....|..|--- .... ....|--- .... ....|--- .... ....
....|..|--- .... ....|F-4 3FF7 ....|--- .... ....
....|..|--- .... ....|--- .... ....|--- .... ....
....|..|--- .... ....|--- .... ....|--- .... ....
....|..|--- .... ....|--- .... ....|--- .... ....
....|..|R-- .... ....|--- .... ....|--- .... ....
....|..|A#6 2F.F ....|--- .... ....|--- .... ....
....|..|--- .... ....|--- .... ....|--- .... ....
....|..|G#6 2F.F ....|--- .... ....|--- .... ....
....|..|R-- .... ....|--- .... ....|--- .... ....
....|..|A#6 2F.A ....|--- .... ....|--- .... ....
....|..|A#6 2F.F ....|--- .... ....|--- .... ....
....|..|G#6 2F.A ....|--- .... ....|--- .... ....
....|..|R-- .... ....|--- .... ....|--- .... ....
....|..|G#6 2F.F ....|--- .... ....|--- .... ....
....|..|A#6 2F.A ....|--- .... ....|--- .... ....
....|..|G#6 2F.7 ....|--- .... ....|--- .... ....
....|..|A#6 2F.F ....|--- .... ....|--- .... ....
....|..|G#6 2F.A ....|--- .... ....|--- .... ....
....|..|A#6 2F.7 ....|--- .... ....|--- .... ....
....|..|G#6 2F.F ....|--- .... ....|--- .... ....
....|..|A#6 2F.A ....|--- .... ....|--- .... ....
....|..|G#6 2F.7 ....|--- .... ....|--- .... ....
....|..|F-6 2F.F ....|--- .... ....|--- .... ....
....|..|G#6 2F.A ....|--- .... ....|--- .... ....
....|..|A#6 2F.7 ....|--- .... ....|--- .... ....
....|..|D#6 2F.F ....|--- .... ....|--- .... ....
....|..|F-6 2F.A ....|--- .... ....|R-- .... ....
....|..|G#6 2F.7 ....|R-- .... ....|--- .... ....

[Pattern15]
....|..|C#6 2F.F ....|A#4 3FFF ....|--- .... ....
....|..|D#6 2F.A ....|F#4 2F1F ....|--- .... ....
....|..|F-6 2F.7 ....|--- .... ....|R-- .... ....
....|..|D#6 2F.F ....|R-- .... ....|--- .... ....
....|..|C#6 2F.A ....|A#4 3FFA ....|--- .... ....
....|..|D#6 2F.7 ....|F#4 2F1A ....|--- .... ....
....|..|--- .... ....|F#4 3FFF ....|R-- .... ....
....|..|D#6 2F.A ....|R-- .... ....|--- .... ....
....|..|C#6 2F.7 ....|A#4 3FF7 ....|--- .... ....
....|..|C#6 2F.F ....|F#4 2F17 ....|--- .... ....
....|..|--- .... ....|F#4 3FFA ....|--- .... ....
....|..|D#6 2F.7 ....|--- .... ....|--- .... ....
....|..|D#6 2F.F ....|--- .... ....|C-6 2FEF ....
....|..|C#6 2F.A ....|--- .... ....|--- .... ....
....|..|--- .... ....|F#4 3FF7 ....|--- .... ....
....|..|--- .... ....|--- .... ....|--- .... ....
....|..|D#6 2F.A ....|--- .... ....|C-6 2FEA ....
....|..|C#6 2F.7 ....|--- .... ....|--- .... ....
....|..|G#6 2F.F ....|--- .... ....|C#6 2FEF ....
....|..|--- .... ....|--- .... ....|--- .... ....
....|..|D#6 2F.7 ....|--- .... ....|C-6 2FE7 ....
....|..|--- .... ....|--- .... ....|--- .... ....
....|..|G#6 2F.A ....|--- .... ....|C#6 2FEA ....
....|..|--- .... ....|--- .... ....|R-- .... ....
....|..|--- .... ....|A#4 3FFF ....|--- .... ....
....|..|--- .... ....|--- .... ....|--- .... ....
....|..|G#6 2F.7 ....|--- .... ....|C#6 2FE7 ....
....|..|--- .... ....|--- .... ....|R-- .... ....
....|..|--- .... ....|A#4 3FFA ....|--- .... ....
....|..|--- .... ....|--- .... ....|--- .... ....
....|..|--- .... ....|F#4 3FFF ....|D#6 2FEF ....
....|..|--- .... ....|--- .... ....|R-- .... ....
....|..|--- .... ....|A#4 3FF7 ....|--- .... ....
....|..|--- .... ....|--- .... ....|--- .... ....
....|..|--- .... ....|F#4 3FFA ....|D#6 2FEA ....
....|..|R-- .... ....|--- .... ....|--- .... ....
....|..|F#6 2F.F ....|--- .... ....|--- .... ....
....|..|R-- .... ....|--- .... ....|--- .... ....
....|..|F-6 2F.F ....|F#4 3FF7 ....|D#6 2FE7 ....
....|..|D#6 2F.F ....|--- .... ....|--- .... ....
....|..|F#6 2F.A ....|--- .... ....|--- .... ....
....|..|C#6 2F.F ....|--- .... ....|--- .... ....
....|..|A#5 2F.F ....|--- .... ....|R-- .... ....
....|..|D#6 2F.A ....|--- .... ....|--- .... ....
....|..|F#5 2F.F ....|--- .... ....|--- .... ....
....|..|F-5 2F.F ....|--- .... ....|--- .... ....
....|..|F-6 2F.7 ....|--- .... ....|--- .... ....
....|..|D#5 2F.F ....|R-- .... ....|--- .... ....
....|..|C#5 2F.F ....|A#4 3FFF ....|--- .... ....
....|..|C#6 2F.7 ....|F#4 2F1F ....|--- .... ....
....|..|A#5 2F.7 ....|--- .... ....|--- .... ....
....|..|D#5 2F.A ....|R-- .... ....|--- .... ....
....|..|F#5 2F.7 ....|A#4 3FFA ....|--- .... ....
....|..|F-5 2F.7 ....|F#4 2F1A ....|--- .... ....
....|..|R-- .... ....|--- .... ....|--- .... ....
....|..|D#5 2F.7 ....|R-- .... ....|--- .... ....
....|..|C#5 2F.7 ....|A#4 3FF7 ....|--- .... ....
....|..|--- .... ....|F#4 2F17 ....|--- .... ....
....|..|--- .... ....|--- .... ....|--- .... ....
....|..|--- .... ....|--- .... ....|--- .... ....
....|..|--- .... ....|F#4 3FFF ....|F#6 2FEF ....
....|..|--- .... ....|--- .... ....|--- .... ....
....|..|--- .... ....|--- .... ....|--- .... ....
....|..|--- .... ....|--- .... ....|--- .... ....
....|..|--- .... ....|F#4 3FFA ....|F#6 2FEA ....
....|..|--- .... ....|--- .... ....|--- .... ....
....|..|--- .... ....|--- .... ....|F-6 2FEF ....
....|..|--- .... ....|--- .... ....|--- .... ....
....|..|--- .... ....|F#4 3FF7 ....|F#6 2FE7 ....
....|..|--- .... ....|--- .... ....|--- .... ....
....|..|--- .... ....|--- .... ....|F-6 2FEA ....
....|..|--- .... ....|--- .... ....|--- .... ....
....|..|D#5 2F.F ....|--- .... ....|R-- .... ....
....|..|--- .... ....|--- .... ....|--- .... ....
....|..|R-- .... ....|--- .... ....|F-6 2FE7 ....
....|..|C#5 2F.F ....|--- .... ....|--- .... ....
....|..|D#5 2F.A ....|--- .... ....|R-- .... ....
....|..|--- .... ....|--- .... ....|--- .... ....
....|..|D#5 2F.F ....|--- .... ....|F#6 2FEF ....
....|..|C#5 2F.A ....|--- .... ....|--- .... ....
....|..|D#5 2F.7 ....|--- .... ....|R-- .... ....
....|..|C#5 2F.F ....|--- .... ....|--- .... ....
....|..|D#5 2F.A ....|--- .... ....|F#6 2FEA ....
....|..|C#5 2F.7 ....|--- .... ....|--- .... ....
....|..|F#5 2F.F ....|--- .... ....|F-6 2FEF ....
....|..|C#5 2F.A ....|--- .... ....|--- .... ....
....|..|D#5 2F.7 ....|--- .... ....|F#6 2FE7 ....
....|..|F-5 2F.F ....|--- .... ....|--- .... ....
....|..|F#5 2F.A ....|--- .... ....|F-6 2FEA ....
....|..|C#5 2F.7 ....|--- .... ....|--- .... ....
....|..|F#5 2F.F ....|--- .... ....|R-- .... ....
....|..|F-5 2F.A ....|--- .... ....|--- .... ....
....|..|F#5 2F.7 ....|--- .... ....|F-6 2FE7 ....
....|..|F-5 2F.F ....|--- .... ....|--- .... ....
....|..|F#5 2F.A ....|--- .... ....|R-- .... ....
....|..|F-5 2F.7 ....|R-- .... ....|--- .... ....

[Pattern16]
....|..|D#4 2F.F ....|G#5 3FFF ....|C#6 2FEF ....
....|..|F-5 2F.A ....|C#4 2F1F ....|--- .... ....
....|..|F#5 2F.7 ....|--- .... ....|R-- .... ....
....|..|F-4 2F.F ....|R-- .... ....|--- .... ....
....|..|D#4 2F.A ....|G#5 3FFA ....|C#6 2FEA ....
....|..|F-5 2F.7 ....|C#4 2F1A ....|--- .... ....
....|..|C#5 2F.F ....|F-5 3FFF ....|--- .... ....
....|..|F-4 2F.A ....|R-- .... ....|--- .... ....
....|..|D#4 2F.7 ....|G#5 3FF7 ....|C#6 2FE7 ....
....|..|D#4 2F.F ....|C#4 2F17 ....|--- .... ....
....|..|C#5 2F.A ....|F-5 3FFA ....|--- .... ....
....|..|F-4 2F.7 ....|--- .... ....|--- .... ....
....|..|F-4 2F.F ....|--- .... ....|R-- .... ....
....|..|D#4 2F.A ....|--- .... ....|--- .... ....
....|..|C#5 2F.7 ....|F-5 3FF7 ....|--- .... ....
....|..|C#5 2F.F ....|--- .... ....|--- .... ....
....|..|F-4 2F.A ....|--- .... ....|R-- .... ....
....|..|D#4 2F.7 ....|--- .... ....|--- .... ....
....|..|D#4 2F.F ....|--- .... ....|D#6 2FEF ....
....|..|C#5 2F.A ....|--- .... ....|--- .... ....
....|..|F-4 2F.7 ....|--- .... ....|R-- .... ....
....|..|F-4 2F.F ....|--- .... ....|--- .... ....
....|..|D#4 2F.A ....|--- .... ....|D#6 2FEA ....
....|..|C#5 2F.7 ....|--- .... ....|--- .... ....
....|..|G#5 2F.F ....|G#5 3FFF ....|--- .... ....
....|..|F-4 2F.A ....|--- .... ....|--- .... ....
....|..|D#4 2F.7 ....|--- .... ....|D#6 2FE7 ....
....|..|--- .... ....|--- .... ....|--- .... ....
....|..|G#5 2F.A ....|G#5 3FFA ....|--- .... ....
....|..|F-4 2F.7 ....|--- .... ....|--- .... ....
....|..|--- .... ....|F-5 3FFF ....|--- .... ....
....|..|--- .... ....|--- .... ....|--- .... ....
....|..|G#5 2F.7 ....|G#5 3FF7 ....|R-- .... ....
....|..|D#5 2F.F ....|--- .... ....|--- .... ....
....|..|--- .... ....|F-5 3FFA ....|--- .... ....
....|..|--- .... ....|--- .... ....|--- .... ....
....|..|C#5 2F.F ....|--- .... ....|F#6 2FEF ....
....|..|D#5 2F.A ....|--- .... ....|--- .... ....
....|..|D#5 2F.F ....|F-5 3FF7 ....|--- .... ....
....|..|C#5 2F.F ....|--- .... ....|--- .... ....
....|..|C#5 2F.A ....|--- .... ....|F#6 2FEA ....
....|..|D#5 2F.F ....|--- .... ....|--- .... ....
....|..|F-5 2F.F ....|--- .... ....|--- .... ....
....|..|C#5 2F.A ....|--- .... ....|R-- .... ....
....|..|D#5 2F.F ....|--- .... ....|F#6 2FE7 ....
....|..|F-5 2F.F ....|--- .... ....|--- .... ....
....|..|D#5 2F.7 ....|--- .... ....|--- .... ....
....|..|D#5 2F.F ....|R-- .... ....|R-- .... ....
....|..|C#5 2F.F ....|G#5 3FFF ....|F-6 2FEF ....
....|..|D#5 2F.7 ....|C#4 2F1F ....|--- .... ....
....|..|D#5 2F.F ....|--- .... ....|--- .... ....
....|..|C#5 2F.F ....|R-- .... ....|R-- .... ....
....|..|D#5 2F.7 ....|G#5 3FFA ....|F-6 2FEA ....
....|..|D#5 2F.F ....|C#4 2F1A ....|--- .... ....
....|..|F-5 2F.F ....|--- .... ....|--- .... ....
....|..|D#5 2F.7 ....|R-- .... ....|--- .... ....
....|..|D#5 2F.F ....|G#5 3FF7 ....|F-6 2FE7 ....
....|..|F-5 2F.F ....|C#4 2F17 ....|--- .... ....
....|..|D#5 2F.7 ....|--- .... ....|--- .... ....
....|..|D#5 2F.F ....|--- .... ....|--- .... ....
....|..|G#5 2F.F ....|F-5 3FFF ....|--- .... ....
....|..|D#5 2F.7 ....|--- .... ....|--- .... ....
....|..|F-5 2F.7 ....|--- .... ....|--- .... ....
....|..|D#5 2F.A ....|--- .... ....|--- .... ....
....|..|D#5 2F.7 ....|F-5 3FFA ....|--- .... ....
....|..|F-5 2F.7 ....|--- .... ....|--- .... ....
....|..|R-- .... ....|--- .... ....|--- .... ....
....|..|C#6 2F.F ....|--- .... ....|--- .... ....
....|..|G#5 2F.7 ....|F-5 3FF7 ....|--- .... ....
....|..|--- .... ....|--- .... ....|--- .... ....
....|..|R-- .... ....|--- .... ....|--- .... ....
....|..|G#5 2F.F ....|--- .... ....|--- .... ....
....|..|C#6 2F.F ....|--- .... ....|--- .... ....
....|..|--- .... ....|--- .... ....|--- .... ....
....|..|R-- .... ....|--- .... ....|--- .... ....
....|..|C#6 2F.7 ....|--- .... ....|--- .... ....
....|..|C#6 2F.A ....|--- .... ....|--- .... ....
....|..|--- .... ....|--- .... ....|--- .... ....
....|..|D#6 2F.F ....|--- .... ....|--- .... ....
....|..|G#5 2F.7 ....|--- .... ....|--- .... ....
....|..|C#6 2F.7 ....|--- .... ....|--- .... ....
....|..|C#6 2F.F ....|--- .... ....|--- .... ....
....|..|D#6 2F.A ....|--- .... ....|--- .... ....
....|..|--- .... ....|--- .... ....|--- .... ....
....|..|--- .... ....|--- .... ....|--- .... ....
....|..|C#6 2F.A ....|--- .... ....|--- .... ....
....|..|D#6 2F.7 ....|--- .... ....|--- .... ....
....|..|G#5 2F.F ....|--- .... ....|--- .... ....
....|..|--- .... ....|--- .... ....|--- .... ....
....|..|C#6 2F.7 ....|--- .... ....|--- .... ....
....|..|D#5 2F.F ....|--- .... ....|--- .... ....
....|..|G#5 2F.A ....|--- .... ....|R-- .... ....
....|..|--- .... ....|--- .... ....|--- .... ....
....|..|--- .... ....|--- .... ....|--- .... ....
....|..|C#6 2F.F ....|--- .... ....|--- .... ....
....|..|G#5 2F.7 ....|R-- .... ....|R-- .... ....

[Pattern17]
....|..|D#4 2F.F ....|F-5 3FFF ....|A#5 2FEF ....
....|..|--- .... ....|A#4 2F2F ....|--- .... ....
....|..|D#5 2F.7 ....|--- .... ....|--- .... ....
....|..|F-4 2F.F ....|R-- .... ....|R-- .... ....
....|..|D#4 2F.A ....|F-5 3FFA ....|A#5 2FEA ....
....|..|--- .... ....|A#4 2F2A ....|--- .... ....
....|..|C#6 2F.7 ....|D#5 3FFF ....|--- .... ....
....|..|C#5 2F.F ....|R-- .... ....|--- .... ....
....|..|D#4 2F.7 ....|F-5 3FF7 ....|A#5 2FE7 ....
....|..|D#4 2F.F ....|A#4 2F27 ....|--- .... ....
....|..|R-- .... ....|D#5 3FFA ....|A#4 2FEF ....
....|..|F-4 2F.7 ....|--- .... ....|--- .... ....
....|..|F-4 2F.F ....|--- .... ....|--- .... ....
....|..|D#4 2F.A ....|--- .... ....|--- .... ....
....|..|R-- .... ....|D#5 3FF7 ....|A#4 2FEA ....
....|..|C#5 2F.F ....|--- .... ....|--- .... ....
....|..|F-4 2F.A ....|--- .... ....|--- .... ....
....|..|D#4 2F.7 ....|--- .... ....|--- .... ....
....|..|D#4 2F.F ....|--- .... ....|A#4 2FE7 ....
....|..|C#5 2F.A ....|--- .... ....|--- .... ....
....|..|F-4 2F.7 ....|--- .... ....|--- .... ....
....|..|F-4 2F.F ....|--- .... ....|--- .... ....
....|..|D#4 2F.A ....|--- .... ....|--- .... ....
....|..|C#5 2F.7 ....|--- .... ....|--- .... ....
....|..|C#5 2F.F ....|F-5 3FFF ....|--- .... ....
....|..|F-4 2F.A ....|--- .... ....|--- .... ....
....|..|D#4 2F.7 ....|--- .... ....|--- .... ....
....|..|R-- .... ....|--- .... ....|--- .... ....
....|..|C#5 2F.A ....|F-5 3FFA ....|--- .... ....
....|..|F-4 2F.7 ....|--- .... ....|--- .... ....
....|..|--- .... ....|D#5 3FFF ....|--- .... ....
....|..|R-- .... ....|--- .... ....|--- .... ....
....|..|C#5 2F.7 ....|F-5 3FF7 ....|--- .... ....
....|..|--- .... ....|--- .... ....|--- .... ....
....|..|--- .... ....|D#5 3FFA ....|--- .... ....
....|..|--- .... ....|--- .... ....|--- .... ....
....|..|G#4 2F.F ....|--- .... ....|D#6 2FEF ....
....|..|R-- .... ....|--- .... ....|--- .... ....
....|..|A#4 2F.F ....|D#5 3FF7 ....|--- .... ....
....|..|G#4 2F.F ....|--- .... ....|--- .... ....
....|..|G#4 2F.A ....|--- .... ....|A#4 2FEF ....
....|..|A#4 2F.F ....|--- .... ....|--- .... ....
....|..|C#5 2F.F ....|--- .... ....|C#6 2FEF ....
....|..|G#4 2F.A ....|--- .... ....|--- .... ....
....|..|A#4 2F.F ....|--- .... ....|D#6 2FE7 ....
....|..|C#5 2F.F ....|--- .... ....|--- .... ....
....|..|A#4 2F.7 ....|--- .... ....|A#4 2FEF ....
....|..|A#4 2F.F ....|R-- .... ....|--- .... ....
....|..|D#5 2F.F ....|F-5 3FFF ....|A#4 2FE7 ....
....|..|A#4 2F.7 ....|A#4 2F2F ....|--- .... ....
....|..|C#5 2F.7 ....|--- .... ....|C#6 2FE7 ....
....|..|A#4 2F.A ....|R-- .... ....|--- .... ....
....|..|A#4 2F.7 ....|F-5 3FFA ....|--- .... ....
....|..|C#5 2F.7 ....|A#4 2F2A ....|--- .... ....
....|..|R-- .... ....|--- .... ....|D#5 2FEF ....
....|..|A#4 2F.7 ....|R-- .... ....|--- .... ....
....|..|D#5 2F.7 ....|F-5 3FF7 ....|--- .... ....
....|..|C#5 2F.F ....|A#4 2F27 ....|--- .... ....
....|..|--- .... ....|--- .... ....|D#5 2FEA ....
....|..|--- .... ....|--- .... ....|--- .... ....
....|..|R-- .... ....|D#5 3FFF ....|A#4 2FEF ....
....|..|C#5 2F.A ....|--- .... ....|--- .... ....
....|..|--- .... ....|--- .... ....|D#5 2FE7 ....
....|..|--- .... ....|--- .... ....|--- .... ....
....|..|R-- .... ....|D#5 3FFA ....|A#4 2FEA ....
....|..|C#5 2F.7 ....|--- .... ....|--- .... ....
....|..|C-5 2F.F ....|--- .... ....|A#5 2FEF ....
....|..|--- .... ....|--- .... ....|--- .... ....
....|..|--- .... ....|D#5 3FF7 ....|A#4 2FE7 ....
....|..|--- .... ....|--- .... ....|--- .... ....
....|..|C-5 2F.A ....|--- .... ....|A#4 2FEF ....
....|..|--- .... ....|--- .... ....|--- .... ....
....|..|--- .... ....|--- .... ....|C#5 2FEF ....
....|..|--- .... ....|--- .... ....|--- .... ....
....|..|C-5 2F.7 ....|--- .... ....|A#5 2FE7 ....
....|..|--- .... ....|--- .... ....|--- .... ....
....|..|--- .... ....|--- .... ....|C#5 2FEA ....
....|..|--- .... ....|--- .... ....|A#4 2FEF ....
....|..|C#5 2F.F ....|--- .... ....|C-6 2FEF ....
....|..|--- .... ....|--- .... ....|--- .... ....
....|..|--- .... ....|--- .... ....|C#5 2FE7 ....
....|..|--- .... ....|--- .... ....|A#4 2FEF ....
....|..|C#5 2F.A ....|--- .... ....|C-6 2FEA ....
....|..|--- .... ....|--- .... ....|--- .... ....
....|..|--- .... ....|--- .... ....|C#6 2FEF ....
....|..|--- .... ....|--- .... ....|A#4 2FE7 ....
....|..|C#5 2F.7 ....|--- .... ....|C-6 2FE7 ....
....|..|--- .... ....|--- .... ....|--- .... ....
....|..|--- .... ....|--- .... ....|C#6 2FEF ....
....|..|--- .... ....|--- .... ....|A#4 2FE7 ....
....|..|--- .... ....|--- .... ....|R-- .... ....
....|..|--- .... ....|--- .... ....|--- .... ....
....|..|--- .... ....|--- .... ....|C#6 2FE7 ....
....|..|--- .... ....|--- .... ....|--- .... ....
....|..|--- .... ....|--- .... ....|R-- .... ....
....|..|--- .... ....|R-- .... ....|--- .... ....

[Pattern18]
....|..|C-5 2F.F ....|G#4 3FFF ....|G#4 2FEF ....
....|..|--- .... ....|F-4 2F2F ....|--- .... ....
....|..|--- .... ....|--- .... ....|R-- .... ....
....|..|C#5 2F.F ....|R-- .... ....|--- .... ....
....|..|C-5 2F.A ....|G#4 3FFA ....|G#4 2FEA ....
....|..|--- .... ....|F-4 2F2A ....|--- .... ....
....|..|R-- .... ....|F-4 3FFF ....|--- .... ....
....|..|C#5 2F.A ....|R-- .... ....|--- .... ....
....|..|C-5 2F.7 ....|G#4 3FF7 ....|G#4 2FE7 ....
....|..|C-5 2F.F ....|F-4 2F27 ....|--- .... ....
....|..|R-- .... ....|F-4 3FFA ....|--- .... ....
....|..|C#5 2F.7 ....|--- .... ....|--- .... ....
....|..|C#5 2F.F ....|--- .... ....|--- .... ....
....|..|C-5 2F.A ....|--- .... ....|--- .... ....
....|..|R-- .... ....|F-4 3FF7 ....|--- .... ....
....|..|--- .... ....|--- .... ....|--- .... ....
....|..|C#5 2F.A ....|--- .... ....|--- .... ....
....|..|C-5 2F.7 ....|--- .... ....|--- .... ....
....|..|G#4 2F.F ....|--- .... ....|--- .... ....
....|..|--- .... ....|--- .... ....|--- .... ....
....|..|C#5 2F.7 ....|--- .... ....|--- .... ....
....|..|--- .... ....|--- .... ....|--- .... ....
....|..|G#4 2F.A ....|--- .... ....|--- .... ....
....|..|--- .... ....|--- .... ....|--- .... ....
....|..|--- .... ....|G#4 3FFF ....|--- .... ....
....|..|--- .... ....|--- .... ....|--- .... ....
....|..|G#4 2F.F ....|--- .... ....|--- .... ....
....|..|--- .... ....|--- .... ....|--- .... ....
....|..|--- .... ....|G#4 3FFA ....|--- .... ....
....|..|--- .... ....|--- .... ....|--- .... ....
....|..|G#4 2F.A ....|F-4 3FFF ....|--- .... ....
....|..|--- .... ....|--- .... ....|--- .... ....
....|..|--- .... ....|G#4 3FF7 ....|--- .... ....
....|..|--- .... ....|--- .... ....|--- .... ....
....|..|G#4 2F.7 ....|F-4 3FFA ....|R-- .... ....
....|..|--- .... ....|--- .... ....|--- .... ....
....|..|D#5 2F.F ....|--- .... ....|C#4 2FEF ....
....|..|R-- .... ....|--- .... ....|--- .... ....
....|..|C#5 2F.F ....|F-4 3FF7 ....|R-- .... ....
....|..|C-5 2F.F ....|--- .... ....|--- .... ....
....|..|D#5 2F.A ....|--- .... ....|C#4 2FEA ....
....|..|C#5 2F.F ....|--- .... ....|--- .... ....
....|..|C-5 2F.F ....|--- .... ....|C#4 2FEF ....
....|..|C-5 2F.A ....|--- .... ....|C-4 2FEF ....
....|..|C#5 2F.F ....|--- .... ....|C#4 2FE7 ....
....|..|C-5 2F.F ....|--- .... ....|--- .... ....
....|..|C#5 2F.7 ....|--- .... ....|C#4 2FEA ....
....|..|A#4 2F.F ....|R-- .... ....|C-4 2FEA ....
....|..|G#4 2F.F ....|G#4 3FFF ....|--- .... ....
....|..|C#5 2F.7 ....|F-4 2F2F ....|--- .... ....
....|..|C-5 2F.7 ....|--- .... ....|C#4 2FE7 ....
....|..|A#4 2F.A ....|R-- .... ....|C-4 2FE7 ....
....|..|C#5 2F.7 ....|G#4 3FFA ....|--- .... ....
....|..|C-5 2F.7 ....|F-4 2F2A ....|--- .... ....
....|..|R-- .... ....|--- .... ....|--- .... ....
....|..|A#4 2F.7 ....|R-- .... ....|--- .... ....
....|..|G#4 2F.7 ....|G#4 3FF7 ....|--- .... ....
....|..|--- .... ....|F-4 2F27 ....|--- .... ....
....|..|--- .... ....|--- .... ....|--- .... ....
....|..|--- .... ....|--- .... ....|--- .... ....
....|..|--- .... ....|F-4 3FFF ....|--- .... ....
....|..|--- .... ....|--- .... ....|--- .... ....
....|..|--- .... ....|--- .... ....|--- .... ....
....|..|--- .... ....|--- .... ....|--- .... ....
....|..|--- .... ....|F-4 3FFA ....|--- .... ....
....|..|--- .... ....|--- .... ....|--- .... ....
....|..|--- .... ....|--- .... ....|--- .... ....
....|..|--- .... ....|--- .... ....|--- .... ....
....|..|--- .... ....|F-4 3FF7 ....|--- .... ....
....|..|--- .... ....|--- .... ....|--- .... ....
....|..|--- .... ....|--- .... ....|--- .... ....
....|..|--- .... ....|--- .... ....|--- .... ....
....|..|A#6 2F.F ....|--- .... ....|--- .... ....
....|..|--- .... ....|--- .... ....|--- .... ....
....|..|R-- .... ....|--- .... ....|--- .... ....
....|..|G#6 2F.F ....|--- .... ....|--- .... ....
....|..|A#6 2F.A ....|--- .... ....|--- .... ....
....|..|--- .... ....|--- .... ....|--- .... ....
....|..|A#6 2F.F ....|--- .... ....|--- .... ....
....|..|G#6 2F.A ....|--- .... ....|--- .... ....
....|..|A#6 2F.7 ....|--- .... ....|--- .... ....
....|..|G#6 2F.F ....|--- .... ....|--- .... ....
....|..|A#6 2F.A ....|--- .... ....|--- .... ....
....|..|G#6 2F.7 ....|--- .... ....|--- .... ....
....|..|A#6 2F.F ....|--- .... ....|--- .... ....
....|..|G#6 2F.A ....|--- .... ....|--- .... ....
....|..|A#6 2F.7 ....|--- .... ....|--- .... ....
....|..|G#6 2F.F ....|--- .... ....|--- .... ....
....|..|A#6 2F.A ....|--- .... ....|--- .... ....
....|..|G#6 2F.7 ....|--- .... ....|--- .... ....
....|..|F-6 2F.F ....|--- .... ....|--- .... ....
....|..|G#6 2F.A ....|--- .... ....|--- .... ....
....|..|A#6 2F.7 ....|--- .... ....|--- .... ....
....|..|D#6 2F.F ....|--- .... ....|--- .... ....
....|..|F-6 2F.A ....|--- .... ....|R-- .... ....
....|..|G#6 2F.7 ....|R-- .... ....|--- .... ....

[Pattern19]
....|..|C#6 2F.F ....|A#4 3FFF ....|--- .... ....
....|..|D#6 2F.A ....|F#4 2F1F ....|--- .... ....
....|..|F-6 2F.7 ....|--- .... ....|R-- .... ....
....|..|D#6 2F.F ....|R-- .... ....|--- .... ....
....|..|C#6 2F.A ....|A#4 3FFA ....|--- .... ....
....|..|D#6 2F.7 ....|F#4 2F1A ....|--- .... ....
....|..|--- .... ....|F#4 3FFF ....|R-- .... ....
....|..|D#6 2F.A ....|R-- .... ....|--- .... ....
....|..|C#6 2F.7 ....|A#4 3FF7 ....|--- .... ....
....|..|C#6 2F.F ....|F#4 2F17 ....|--- .... ....
....|..|--- .... ....|F#4 3FFA ....|--- .... ....
....|..|D#6 2F.7 ....|--- .... ....|--- .... ....
....|..|D#6 2F.F ....|--- .... ....|C-6 2FEF ....
....|..|C#6 2F.A ....|--- .... ....|--- .... ....
....|..|--- .... ....|F#4 3FF7 ....|--- .... ....
....|..|--- .... ....|--- .... ....|--- .... ....
....|..|D#6 2F.A ....|--- .... ....|C-6 2FEA ....
....|..|C#6 2F.7 ....|--- .... ....|--- .... ....
....|..|G#6 2F.F ....|--- .... ....|C#6 2FEF ....
....|..|--- .... ....|--- .... ....|--- .... ....
....|..|D#6 2F.7 ....|--- .... ....|C-6 2FE7 ....
....|..|--- .... ....|--- .... ....|--- .... ....
....|..|G#6 2F.A ....|--- .... ....|C#6 2FEA ....
....|..|--- .... ....|--- .... ....|R-- .... ....
....|..|--- .... ....|A#4 3FFF ....|--- .... ....
....|..|--- .... ....|--- .... ....|--- .... ....
....|..|G#6 2F.7 ....|--- .... ....|C#6 2FE7 ....
....|..|--- .... ....|--- .... ....|R-- .... ....
....|..|--- .... ....|A#4 3FFA ....|--- .... ....
....|..|--- .... ....|--- .... ....|--- .... ....
....|..|--- .... ....|F#4 3FFF ....|D#6 2FEF ....
....|..|--- .... ....|--- .... ....|R-- .... ....
....|..|--- .... ....|A#4 3FF7 ....|--- .... ....
....|..|--- .... ....|--- .... ....|--- .... ....
....|..|--- .... ....|F#4 3FFA ....|D#6 2FEA ....
....|..|R-- .... ....|--- .... ....|--- .... ....
....|..|F#6 2F.F ....|--- .... ....|--- .... ....
....|..|R-- .... ....|--- .... ....|--- .... ....
....|..|F-6 2F.F ....|F#4 3FF7 ....|D#6 2FE7 ....
....|..|D#6 2F.F ....|--- .... ....|--- .... ....
....|..|F#6 2F.A ....|--- .... ....|--- .... ....
....|..|C#6 2F.F ....|--- .... ....|--- .... ....
....|..|A#5 2F.F ....|--- .... ....|R-- .... ....
....|..|D#6 2F.A ....|--- .... ....|--- .... ....
....|..|F#5 2F.F ....|--- .... ....|--- .... ....
....|..|F-5 2F.F ....|--- .... ....|--- .... ....
....|..|F-6 2F.7 ....|--- .... ....|--- .... ....
....|..|D#5 2F.F ....|R-- .... ....|--- .... ....
....|..|C#5 2F.F ....|A#4 3FFF ....|--- .... ....
....|..|C#6 2F.7 ....|F#4 2F1F ....|--- .... ....
....|..|A#5 2F.7 ....|--- .... ....|--- .... ....
....|..|D#5 2F.A ....|R-- .... ....|--- .... ....
....|..|F#5 2F.7 ....|A#4 3FFA ....|--- .... ....
....|..|F-5 2F.7 ....|F#4 2F1A ....|--- .... ....
....|..|R-- .... ....|--- .... ....|--- .... ....
....|..|D#5 2F.7 ....|R-- .... ....|--- .... ....
....|..|C#5 2F.7 ....|A#4 3FF7 ....|--- .... ....
....|..|--- .... ....|F#4 2F17 ....|--- .... ....
....|..|--- .... ....|--- .... ....|--- .... ....
....|..|--- .... ....|--- .... ....|--- .... ....
....|..|--- .... ....|F#4 3FFF ....|F#6 2FEF ....
....|..|--- .... ....|--- .... ....|--- .... ....
....|..|--- .... ....|--- .... ....|--- .... ....
....|..|--- .... ....|--- .... ....|--- .... ....
....|..|--- .... ....|F#4 3FFA ....|F#6 2FEA ....
....|..|--- .... ....|--- .... ....|--- .... ....
....|..|--- .... ....|--- .... ....|F-6 2FEF ....
....|..|--- .... ....|--- .... ....|--- .... ....
....|..|--- .... ....|F#4 3FF7 ....|F#6 2FE7 ....
....|..|--- .... ....|--- .... ....|--- .... ....
....|..|--- .... ....|--- .... ....|F-6 2FEA ....
....|..|R-- .... ....|--- .... ....|--- .... ....
....|..|D#5 2F.F ....|--- .... ....|R-- .... ....
....|..|--- .... ....|--- .... ....|--- .... ....
....|..|--- .... ....|--- .... ....|F-6 2FE7 ....
....|..|C#5 2F.F ....|--- .... ....|--- .... ....
....|..|D#5 2F.A ....|--- .... ....|R-- .... ....
....|..|R-- .... ....|--- .... ....|--- .... ....
....|..|D#5 2F.F ....|--- .... ....|F#6 2FEF ....
....|..|C#5 2F.A ....|--- .... ....|--- .... ....
....|..|D#5 2F.7 ....|--- .... ....|R-- .... ....
....|..|C#5 2F.F ....|--- .... ....|--- .... ....
....|..|D#5 2F.A ....|--- .... ....|F#6 2FEA ....
....|..|C#5 2F.7 ....|--- .... ....|--- .... ....
....|..|F#5 2F.F ....|--- .... ....|F-6 2FEF ....
....|..|C#5 2F.A ....|--- .... ....|--- .... ....
....|..|D#5 2F.7 ....|--- .... ....|F#6 2FE7 ....
....|..|F-5 2F.F ....|--- .... ....|--- .... ....
....|..|F#5 2F.A ....|--- .... ....|F-6 2FEA ....
....|..|C#5 2F.7 ....|--- .... ....|--- .... ....
....|..|F#5 2F.F ....|--- .... ....|R-- .... ....
....|..|F-5 2F.A ....|--- .... ....|--- .... ....
....|..|F#5 2F.7 ....|--- .... ....|F-6 2FE7 ....
....|..|F-5 2F.F ....|--- .... ....|--- .... ....
....|..|F#5 2F.A ....|--- .... ....|R-- .... ....
....|..|F-5 2F.7 ....|R-- .... ....|--- .... ....

[Pattern20]
....|..|D#5 2F.F ....|G#5 3FFF ....|C#6 2FEF ....
....|..|F-5 2F.A ....|C#4 2F1F ....|--- .... ....
....|..|F#5 2F.7 ....|--- .... ....|R-- .... ....
....|..|F-5 2F.F ....|R-- .... ....|--- .... ....
....|..|D#5 2F.A ....|G#5 3FFA ....|C#6 2FEA ....
....|..|F-5 2F.7 ....|C#4 2F1A ....|--- .... ....
....|..|C#5 2F.F ....|F-5 3FFF ....|--- .... ....
....|..|F-5 2F.A ....|R-- .... ....|--- .... ....
....|..|D#5 2F.7 ....|G#5 3FF7 ....|C#6 2FE7 ....
....|..|D#5 2F.F ....|C#4 2F17 ....|--- .... ....
....|..|C#5 2F.A ....|F-5 3FFA ....|--- .... ....
....|..|F-5 2F.7 ....|--- .... ....|--- .... ....
....|..|F-5 2F.F ....|--- .... ....|R-- .... ....
....|..|D#5 2F.A ....|--- .... ....|--- .... ....
....|..|C#5 2F.7 ....|F-5 3FF7 ....|--- .... ....
....|..|C#5 2F.F ....|--- .... ....|--- .... ....
....|..|F-5 2F.A ....|--- .... ....|R-- .... ....
....|..|D#5 2F.7 ....|--- .... ....|--- .... ....
....|..|D#5 2F.F ....|--- .... ....|D#6 2FEF ....
....|..|C#5 2F.A ....|--- .... ....|--- .... ....
....|..|F-5 2F.7 ....|--- .... ....|R-- .... ....
....|..|F-5 2F.F ....|--- .... ....|--- .... ....
....|..|D#5 2F.A ....|--- .... ....|D#6 2FEA ....
....|..|C#5 2F.7 ....|--- .... ....|--- .... ....
....|..|D#6 2F.F ....|G#5 3FFF ....|--- .... ....
....|..|F-5 2F.A ....|--- .... ....|--- .... ....
....|..|D#5 2F.7 ....|--- .... ....|D#6 2FE7 ....
....|..|F-5 2F.F ....|--- .... ....|--- .... ....
....|..|D#6 2F.A ....|G#5 3FFA ....|--- .... ....
....|..|F-5 2F.7 ....|--- .... ....|--- .... ....
....|..|G#6 2F.F ....|F-5 3FFF ....|--- .... ....
....|..|F-5 2F.A ....|--- .... ....|--- .... ....
....|..|D#6 2F.7 ....|G#5 3FF7 ....|R-- .... ....
....|..|D#5 2F.F ....|--- .... ....|--- .... ....
....|..|G#6 2F.A ....|F-5 3FFA ....|--- .... ....
....|..|F-5 2F.7 ....|--- .... ....|--- .... ....
....|..|G#5 2F.F ....|--- .... ....|F#6 2FEF ....
....|..|D#5 2F.A ....|--- .... ....|--- .... ....
....|..|G#6 2F.7 ....|F-5 3FF7 ....|--- .... ....
....|..|G#6 2F.F ....|--- .... ....|--- .... ....
....|..|G#5 2F.A ....|--- .... ....|F#6 2FEA ....
....|..|D#5 2F.7 ....|--- .... ....|--- .... ....
....|..|D#5 2F.F ....|--- .... ....|--- .... ....
....|..|G#6 2F.A ....|--- .... ....|R-- .... ....
....|..|G#5 2F.7 ....|--- .... ....|F#6 2FE7 ....
....|..|F-5 2F.F ....|--- .... ....|--- .... ....
....|..|D#5 2F.A ....|--- .... ....|--- .... ....
....|..|G#6 2F.7 ....|R-- .... ....|R-- .... ....
....|..|F-6 2F.F ....|G#5 3FFF ....|F-6 2FEF ....
....|..|F-5 2F.A ....|C#4 2F1F ....|--- .... ....
....|..|D#5 2F.7 ....|--- .... ....|--- .... ....
....|..|F-5 2F.F ....|R-- .... ....|R-- .... ....
....|..|F-6 2F.A ....|G#5 3FFA ....|F-6 2FEA ....
....|..|F-5 2F.7 ....|C#4 2F1A ....|--- .... ....
....|..|C#5 2F.F ....|--- .... ....|--- .... ....
....|..|F-5 2F.A ....|R-- .... ....|--- .... ....
....|..|F-6 2F.7 ....|G#5 3FF7 ....|F-6 2FE7 ....
....|..|D#5 2F.F ....|C#4 2F17 ....|--- .... ....
....|..|C#5 2F.A ....|--- .... ....|--- .... ....
....|..|F-5 2F.7 ....|--- .... ....|--- .... ....
....|..|F-5 2F.F ....|F-5 3FFF ....|--- .... ....
....|..|D#5 2F.A ....|--- .... ....|--- .... ....
....|..|C#5 2F.7 ....|--- .... ....|--- .... ....
....|..|G#5 2F.F ....|--- .... ....|--- .... ....
....|..|F-5 2F.A ....|F-5 3FFA ....|--- .... ....
....|..|D#5 2F.7 ....|--- .... ....|--- .... ....
....|..|F-5 2F.F ....|--- .... ....|--- .... ....
....|..|G#5 2F.A ....|--- .... ....|--- .... ....
....|..|F-5 2F.7 ....|F-5 3FF7 ....|--- .... ....
....|..|D#5 2F.F ....|--- .... ....|--- .... ....
....|..|F-5 2F.A ....|--- .... ....|--- .... ....
....|..|G#5 2F.7 ....|--- .... ....|--- .... ....
....|..|F-5 2F.F ....|--- .... ....|--- .... ....
....|..|D#5 2F.A ....|--- .... ....|--- .... ....
....|..|F-5 2F.7 ....|--- .... ....|--- .... ....
....|..|G#5 2F.F ....|--- .... ....|--- .... ....
....|..|F-5 2F.A ....|--- .... ....|--- .... ....
....|..|D#5 2F.7 ....|--- .... ....|--- .... ....
....|..|D#5 2F.F ....|--- .... ....|--- .... ....
....|..|G#5 2F.A ....|--- .... ....|--- .... ....
....|..|F-5 2F.7 ....|--- .... ....|--- .... ....
....|..|F-5 2F.F ....|--- .... ....|--- .... ....
....|..|D#5 2F.A ....|--- .... ....|--- .... ....
....|..|G#5 2F.7 ....|--- .... ....|--- .... ....
....|..|G#5 2F.F ....|--- .... ....|--- .... ....
....|..|F-5 2F.A ....|--- .... ....|--- .... ....
....|..|D#5 2F.7 ....|--- .... ....|--- .... ....
....|..|D#5 2F.F ....|--- .... ....|--- .... ....
....|..|G#5 2F.A ....|--- .... ....|--- .... ....
....|..|F-5 2F.7 ....|--- .... ....|--- .... ....
....|..|F-5 2F.F ....|--- .... ....|--- .... ....
....|..|D#5 2F.A ....|--- .... ....|R-- .... ....
....|..|G#5 2F.7 ....|--- .... ....|--- .... ....
....|..|G#5 2F.F ....|--- .... ....|--- .... ....
....|..|F-5 2F.A ....|--- .... ....|--- .... ....
....|..|D#5 2F.7 ....|R-- .... ....|R-- .... ....

[Pattern21]
....|..|D#5 2F.F ....|F-5 3FFF ....|A#5 2FEF ....
....|..|G#5 2F.A ....|A#4 2F2F ....|--- .... ....
....|..|F-5 2F.7 ....|--- .... ....|--- .... ....
....|..|F-5 2F.F ....|R-- .... ....|R-- .... ....
....|..|D#5 2F.A ....|F-5 3FFA ....|A#5 2FEA ....
....|..|G#5 2F.7 ....|A#4 2F2A ....|--- .... ....
....|..|C#5 2F.F ....|D#5 3FFF ....|--- .... ....
....|..|F-5 2F.A ....|R-- .... ....|--- .... ....
....|..|D#5 2F.7 ....|F-5 3FF7 ....|A#5 2FE7 ....
....|..|D#5 2F.F ....|A#4 2F27 ....|--- .... ....
....|..|C#5 2F.A ....|D#5 3FFA ....|A#4 2FEF ....
....|..|F-5 2F.7 ....|--- .... ....|--- .... ....
....|..|F-5 2F.F ....|--- .... ....|--- .... ....
....|..|D#5 2F.A ....|--- .... ....|--- .... ....
....|..|C#5 2F.7 ....|D#5 3FF7 ....|A#4 2FEA ....
....|..|C#5 2F.F ....|--- .... ....|--- .... ....
....|..|F-5 2F.A ....|--- .... ....|--- .... ....
....|..|D#5 2F.7 ....|--- .... ....|--- .... ....
....|..|D#5 2F.F ....|--- .... ....|A#4 2FE7 ....
....|..|C#5 2F.A ....|--- .... ....|--- .... ....
....|..|F-5 2F.7 ....|--- .... ....|--- .... ....
....|..|F-5 2F.F ....|--- .... ....|--- .... ....
....|..|D#5 2F.A ....|--- .... ....|--- .... ....
....|..|C#5 2F.7 ....|--- .... ....|--- .... ....
....|..|D#5 2F.F ....|F-5 3FFF ....|--- .... ....
....|..|F-5 2F.A ....|--- .... ....|--- .... ....
....|..|D#5 2F.7 ....|--- .... ....|--- .... ....
....|..|F-5 2F.F ....|--- .... ....|--- .... ....
....|..|D#5 2F.A ....|F-5 3FFA ....|--- .... ....
....|..|F-5 2F.7 ....|--- .... ....|--- .... ....
....|..|C#5 2F.F ....|D#5 3FFF ....|--- .... ....
....|..|F-5 2F.A ....|--- .... ....|--- .... ....
....|..|D#5 2F.7 ....|F-5 3FF7 ....|--- .... ....
....|..|D#5 2F.F ....|--- .... ....|--- .... ....
....|..|C#5 2F.A ....|D#5 3FFA ....|--- .... ....
....|..|F-5 2F.7 ....|--- .... ....|--- .... ....
....|..|F-5 2F.F ....|--- .... ....|D#6 2FEF ....
....|..|D#5 2F.A ....|--- .... ....|--- .... ....
....|..|C#5 2F.7 ....|D#5 3FF7 ....|--- .... ....
....|..|G#5 2F.F ....|--- .... ....|--- .... ....
....|..|F-5 2F.A ....|--- .... ....|A#4 2FEF ....
....|..|D#5 2F.7 ....|--- .... ....|--- .... ....
....|..|F-5 2F.F ....|--- .... ....|C#6 2FEF ....
....|..|G#5 2F.A ....|--- .... ....|--- .... ....
....|..|F-5 2F.7 ....|--- .... ....|D#6 2FE7 ....
....|..|D#5 2F.F ....|--- .... ....|--- .... ....
....|..|F-5 2F.A ....|--- .... ....|A#4 2FEF ....
....|..|G#5 2F.7 ....|R-- .... ....|--- .... ....
....|..|F-5 2F.F ....|F-5 3FFF ....|A#4 2FE7 ....
....|..|D#5 2F.A ....|A#4 2F2F ....|--- .... ....
....|..|F-5 2F.7 ....|--- .... ....|C#6 2FE7 ....
....|..|G#5 2F.F ....|R-- .... ....|--- .... ....
....|..|F-5 2F.A ....|F-5 3FFA ....|--- .... ....
....|..|D#5 2F.7 ....|A#4 2F2A ....|--- .... ....
....|..|A#5 2F.F ....|--- .... ....|D#5 2FEF ....
....|..|G#5 2F.A ....|R-- .... ....|--- .... ....
....|..|F-5 2F.7 ....|F-5 3FF7 ....|--- .... ....
....|..|G#5 2F.F ....|A#4 2F27 ....|--- .... ....
....|..|A#5 2F.A ....|--- .... ....|D#5 2FEA ....
....|..|G#5 2F.7 ....|--- .... ....|--- .... ....
....|..|A#5 2F.F ....|D#5 3FFF ....|A#4 2FEF ....
....|..|G#5 2F.A ....|--- .... ....|--- .... ....
....|..|A#5 2F.7 ....|--- .... ....|D#5 2FE7 ....
....|..|G#5 2F.F ....|--- .... ....|--- .... ....
....|..|A#5 2F.A ....|D#5 3FFA ....|A#4 2FEA ....
....|..|G#5 2F.7 ....|--- .... ....|--- .... ....
....|..|F-5 2F.F ....|--- .... ....|A#5 2FEF ....
....|..|G#5 2F.A ....|--- .... ....|--- .... ....
....|..|A#5 2F.7 ....|D#5 3FF7 ....|A#4 2FE7 ....
....|..|D#5 2F.F ....|--- .... ....|--- .... ....
....|..|F-5 2F.A ....|--- .... ....|A#4 2FEF ....
....|..|G#5 2F.7 ....|--- .... ....|--- .... ....
....|..|F-5 2F.F ....|--- .... ....|C#5 2FEF ....
....|..|D#5 2F.A ....|--- .... ....|--- .... ....
....|..|F-5 2F.7 ....|--- .... ....|A#5 2FE7 ....
....|..|G#5 2F.F ....|--- .... ....|--- .... ....
....|..|F-5 2F.A ....|--- .... ....|C#5 2FEA ....
....|..|D#5 2F.7 ....|--- .... ....|A#4 2FEF ....
....|..|D#5 2F.F ....|--- .... ....|C-6 2FEF ....
....|..|G#5 2F.A ....|--- .... ....|--- .... ....
....|..|F-5 2F.7 ....|--- .... ....|C#5 2FE7 ....
....|..|F-5 2F.F ....|--- .... ....|A#4 2FEF ....
....|..|D#5 2F.A ....|--- .... ....|C-6 2FEA ....
....|..|G#5 2F.7 ....|--- .... ....|--- .... ....
....|..|C#5 2F.F ....|--- .... ....|C#6 2FEF ....
....|..|F-5 2F.A ....|--- .... ....|A#4 2FE7 ....
....|..|D#5 2F.7 ....|--- .... ....|C-6 2FE7 ....
....|..|F-5 2F.F ....|--- .... ....|--- .... ....
....|..|C#5 2F.A ....|--- .... ....|C#6 2FEF ....
....|..|F-5 2F.7 ....|--- .... ....|A#4 2FE7 ....
....|..|D#5 2F.F ....|--- .... ....|R-- .... ....
....|..|F-5 2F.A ....|--- .... ....|--- .... ....
....|..|C#5 2F.7 ....|--- .... ....|C#6 2FE7 ....
....|..|A#5 2F.F ....|--- .... ....|--- .... ....
....|..|D#5 2F.A ....|--- .... ....|R-- .... ....
....|..|F-5 2F.7 ....|R-- .... ....|--- .... ....

[Pattern22]
....|..|D#5 2F.F ....|G#4 3FFF ....|G#4 2FEF ....
....|..|A#5 2F.A ....|F-4 2F2F ....|--- .... ....
....|..|D#5 2F.7 ....|--- .... ....|R-- .... ....
....|..|F-5 2F.F ....|R-- .... ....|--- .... ....
....|..|D#5 2F.A ....|G#4 3FFA ....|G#4 2FEA ....
....|..|A#5 2F.7 ....|F-4 2F2A ....|--- .... ....
....|..|C#5 2F.F ....|F-4 3FFF ....|--- .... ....
....|..|F-5 2F.A ....|R-- .... ....|--- .... ....
....|..|D#5 2F.7 ....|G#4 3FF7 ....|G#4 2FE7 ....
....|..|D#5 2F.F ....|F-4 2F27 ....|--- .... ....
....|..|C#5 2F.A ....|F-4 3FFA ....|--- .... ....
....|..|F-5 2F.7 ....|--- .... ....|--- .... ....
....|..|F-5 2F.F ....|--- .... ....|--- .... ....
....|..|D#5 2F.A ....|--- .... ....|--- .... ....
....|..|C#5 2F.7 ....|F-4 3FF7 ....|--- .... ....
....|..|C#5 2F.F ....|--- .... ....|--- .... ....
....|..|F-5 2F.A ....|--- .... ....|--- .... ....
....|..|D#5 2F.7 ....|--- .... ....|--- .... ....
....|..|D#5 2F.F ....|--- .... ....|--- .... ....
....|..|C#5 2F.A ....|--- .... ....|--- .... ....
....|..|F-5 2F.7 ....|--- .... ....|--- .... ....
....|..|F-5 2F.F ....|--- .... ....|--- .... ....
....|..|D#5 2F.A ....|--- .... ....|--- .... ....
....|..|C#5 2F.7 ....|--- .... ....|--- .... ....
....|..|D#5 2F.F ....|G#4 3FFF ....|--- .... ....
....|..|F-5 2F.A ....|--- .... ....|--- .... ....
....|..|D#5 2F.7 ....|--- .... ....|--- .... ....
....|..|F-5 2F.F ....|--- .... ....|--- .... ....
....|..|D#5 2F.A ....|G#4 3FFA ....|--- .... ....
....|..|F-5 2F.7 ....|--- .... ....|--- .... ....
....|..|C#5 2F.F ....|F-4 3FFF ....|--- .... ....
....|..|F-5 2F.A ....|--- .... ....|--- .... ....
....|..|D#5 2F.7 ....|G#4 3FF7 ....|--- .... ....
....|..|D#5 2F.F ....|--- .... ....|--- .... ....
....|..|C#5 2F.A ....|F-4 3FFA ....|R-- .... ....
....|..|F-5 2F.7 ....|--- .... ....|--- .... ....
....|..|F-5 2F.F ....|--- .... ....|C#4 2FEF ....
....|..|D#5 2F.A ....|--- .... ....|--- .... ....
....|..|C#5 2F.7 ....|F-4 3FF7 ....|R-- .... ....
....|..|G#5 2F.F ....|--- .... ....|--- .... ....
....|..|F-5 2F.A ....|--- .... ....|C#4 2FEA ....
....|..|D#5 2F.7 ....|--- .... ....|--- .... ....
....|..|F-5 2F.F ....|--- .... ....|C#4 2FEF ....
....|..|G#5 2F.A ....|--- .... ....|C-4 2FEF ....
....|..|F-5 2F.7 ....|--- .... ....|C#4 2FE7 ....
....|..|D#5 2F.F ....|--- .... ....|--- .... ....
....|..|F-5 2F.A ....|--- .... ....|C#4 2FEA ....
....|..|G#5 2F.7 ....|R-- .... ....|C-4 2FEA ....
....|..|F-5 2F.F ....|G#4 3FFF ....|--- .... ....
....|..|D#5 2F.A ....|F-4 2F2F ....|--- .... ....
....|..|F-5 2F.7 ....|--- .... ....|C#4 2FE7 ....
....|..|G#5 2F.F ....|R-- .... ....|C-4 2FE7 ....
....|..|F-5 2F.A ....|G#4 3FFA ....|--- .... ....
....|..|D#5 2F.7 ....|F-4 2F2A ....|--- .... ....
....|..|A#5 2F.F ....|--- .... ....|--- .... ....
....|..|G#5 2F.A ....|R-- .... ....|--- .... ....
....|..|F-5 2F.7 ....|G#4 3FF7 ....|--- .... ....
....|..|G#5 2F.F ....|F-4 2F27 ....|--- .... ....
....|..|A#5 2F.A ....|--- .... ....|--- .... ....
....|..|G#5 2F.7 ....|--- .... ....|--- .... ....
....|..|A#5 2F.F ....|F-4 3FFF ....|--- .... ....
....|..|G#5 2F.A ....|--- .... ....|--- .... ....
....|..|A#5 2F.7 ....|--- .... ....|--- .... ....
....|..|G#5 2F.F ....|--- .... ....|--- .... ....
....|..|A#5 2F.A ....|F-4 3FFA ....|--- .... ....
....|..|G#5 2F.7 ....|--- .... ....|--- .... ....
....|..|F-5 2F.F ....|--- .... ....|--- .... ....
....|..|G#5 2F.A ....|--- .... ....|--- .... ....
....|..|A#5 2F.7 ....|F-4 3FF7 ....|--- .... ....
....|..|D#5 2F.F ....|--- .... ....|--- .... ....
....|..|F-5 2F.A ....|--- .... ....|--- .... ....
....|..|G#5 2F.7 ....|--- .... ....|--- .... ....
....|..|F-5 2F.F ....|--- .... ....|--- .... ....
....|..|D#5 2F.A ....|--- .... ....|--- .... ....
....|..|F-5 2F.7 ....|--- .... ....|--- .... ....
....|..|G#5 2F.F ....|--- .... ....|--- .... ....
....|..|F-5 2F.A ....|--- .... ....|--- .... ....
....|..|D#5 2F.7 ....|--- .... ....|--- .... ....
....|..|D#5 2F.F ....|--- .... ....|--- .... ....
....|..|G#5 2F.A ....|--- .... ....|--- .... ....
....|..|F-5 2F.7 ....|--- .... ....|--- .... ....
....|..|F-5 2F.F ....|--- .... ....|--- .... ....
....|..|D#5 2F.A ....|--- .... ....|--- .... ....
....|..|G#5 2F.7 ....|--- .... ....|--- .... ....
....|..|C#5 2F.F ....|--- .... ....|--- .... ....
....|..|F-5 2F.A ....|--- .... ....|--- .... ....
....|..|D#5 2F.7 ....|--- .... ....|--- .... ....
....|..|F-5 2F.F ....|--- .... ....|--- .... ....
....|..|C#5 2F.A ....|--- .... ....|--- .... ....
....|..|F-5 2F.7 ....|--- .... ....|--- .... ....
....|..|D#5 2F.F ....|--- .... ....|--- .... ....
....|..|F-5 2F.A ....|--- .... ....|--- .... ....
....|..|C#5 2F.7 ....|--- .... ....|--- .... ....
....|..|R-- .... ....|--- .... ....|--- .... ....
....|..|A#5 2F.F ....|--- .... ....|R-- .... ....
....|..|F-5 2F.7 ....|R-- .... ....|--- .... ....

[Pattern23]
....|..|D#5 2F.F ....|A#4 3FFF ....|--- .... ....
....|..|R-- .... ....|F#4 2F1F ....|--- .... ....
....|..|D#5 2F.7 ....|--- .... ....|R-- .... ....
....|..|F-5 2F.F ....|R-- .... ....|--- .... ....
....|..|D#5 2F.A ....|A#4 3FFA ....|--- .... ....
....|..|R-- .... ....|F#4 2F1A ....|--- .... ....
....|..|C#5 2F.F ....|F#4 3FFF ....|R-- .... ....
....|..|F-5 2F.A ....|R-- .... ....|--- .... ....
....|..|D#5 2F.7 ....|A#4 3FF7 ....|--- .... ....
....|..|D#5 2F.F ....|F#4 2F17 ....|--- .... ....
....|..|C#5 2F.A ....|F#4 3FFA ....|--- .... ....
....|..|F-5 2F.7 ....|--- .... ....|--- .... ....
....|..|F-5 2F.F ....|--- .... ....|C-6 2FEF ....
....|..|D#5 2F.A ....|--- .... ....|--- .... ....
....|..|C#5 2F.7 ....|F#4 3FF7 ....|--- .... ....
....|..|C#5 2F.F ....|--- .... ....|--- .... ....
....|..|F-5 2F.A ....|--- .... ....|C-6 2FEA ....
....|..|D#5 2F.7 ....|--- .... ....|--- .... ....
....|..|D#5 2F.F ....|--- .... ....|C#6 2FEF ....
....|..|C#5 2F.A ....|--- .... ....|--- .... ....
....|..|F-5 2F.7 ....|--- .... ....|C-6 2FE7 ....
....|..|F-5 2F.F ....|--- .... ....|--- .... ....
....|..|D#5 2F.A ....|--- .... ....|C#6 2FEA ....
....|..|C#5 2F.7 ....|--- .... ....|R-- .... ....
....|..|D#5 2F.F ....|A#4 3FFF ....|--- .... ....
....|..|F-5 2F.A ....|--- .... ....|--- .... ....
....|..|D#5 2F.7 ....|--- .... ....|C#6 2FE7 ....
....|..|F-5 2F.F ....|--- .... ....|R-- .... ....
....|..|D#5 2F.A ....|A#4 3FFA ....|--- .... ....
....|..|F-5 2F.7 ....|--- .... ....|--- .... ....
....|..|C#5 2F.F ....|F#4 3FFF ....|D#6 2FEF ....
....|..|F-5 2F.A ....|--- .... ....|R-- .... ....
....|..|D#5 2F.7 ....|A#4 3FF7 ....|--- .... ....
....|..|D#5 2F.F ....|--- .... ....|--- .... ....
....|..|C#5 2F.A ....|F#4 3FFA ....|D#6 2FEA ....
....|..|F-5 2F.7 ....|--- .... ....|--- .... ....
....|..|F-5 2F.F ....|--- .... ....|--- .... ....
....|..|D#5 2F.A ....|--- .... ....|--- .... ....
....|..|C#5 2F.7 ....|F#4 3FF7 ....|D#6 2FE7 ....
....|..|C#5 2F.F ....|--- .... ....|--- .... ....
....|..|F-5 2F.A ....|--- .... ....|--- .... ....
....|..|D#5 2F.7 ....|--- .... ....|--- .... ....
....|..|D#5 2F.F ....|--- .... ....|R-- .... ....
....|..|C#5 2F.A ....|--- .... ....|--- .... ....
....|..|F-5 2F.7 ....|--- .... ....|--- .... ....
....|..|F-5 2F.F ....|--- .... ....|--- .... ....
....|..|D#5 2F.A ....|--- .... ....|--- .... ....
....|..|C#5 2F.7 ....|R-- .... ....|--- .... ....
....|..|D#5 2F.F ....|A#4 3FFF ....|--- .... ....
....|..|F-5 2F.A ....|F#4 2F1F ....|--- .... ....
....|..|D#5 2F.7 ....|--- .... ....|--- .... ....
....|..|F-5 2F.F ....|R-- .... ....|--- .... ....
....|..|D#5 2F.A ....|A#4 3FFA ....|--- .... ....
....|..|F-5 2F.7 ....|F#4 2F1A ....|--- .... ....
....|..|C#5 2F.F ....|--- .... ....|--- .... ....
....|..|F-5 2F.A ....|R-- .... ....|--- .... ....
....|..|D#5 2F.7 ....|A#4 3FF7 ....|--- .... ....
....|..|D#5 2F.F ....|F#4 2F17 ....|--- .... ....
....|..|C#5 2F.A ....|--- .... ....|--- .... ....
....|..|F-5 2F.7 ....|--- .... ....|--- .... ....
....|..|F-5 2F.F ....|F#4 3FFF ....|F#6 2FEF ....
....|..|D#5 2F.A ....|--- .... ....|--- .... ....
....|..|C#5 2F.7 ....|--- .... ....|--- .... ....
....|..|G#5 2F.F ....|--- .... ....|--- .... ....
....|..|F-5 2F.A ....|F#4 3FFA ....|F#6 2FEA ....
....|..|D#5 2F.7 ....|--- .... ....|--- .... ....
....|..|F-5 2F.F ....|--- .... ....|F-6 2FEF ....
....|..|G#5 2F.A ....|--- .... ....|--- .... ....
....|..|F-5 2F.7 ....|F#4 3FF7 ....|F#6 2FE7 ....
....|..|D#5 2F.F ....|--- .... ....|--- .... ....
....|..|F-5 2F.A ....|--- .... ....|F-6 2FEA ....
....|..|G#5 2F.7 ....|--- .... ....|--- .... ....
....|..|F-5 2F.F ....|--- .... ....|R-- .... ....
....|..|D#5 2F.A ....|--- .... ....|--- .... ....
....|..|F-5 2F.7 ....|--- .... ....|F-6 2FE7 ....
....|..|G#5 2F.F ....|--- .... ....|--- .... ....
....|..|F-5 2F.A ....|--- .... ....|R-- .... ....
....|..|D#5 2F.7 ....|--- .... ....|--- .... ....
....|..|D#5 2F.F ....|--- .... ....|F#6 2FEF ....
....|..|G#5 2F.A ....|--- .... ....|--- .... ....
....|..|F-5 2F.7 ....|--- .... ....|R-- .... ....
....|..|F-5 2F.F ....|--- .... ....|--- .... ....
....|..|D#5 2F.A ....|--- .... ....|F#6 2FEA ....
....|..|G#5 2F.7 ....|--- .... ....|--- .... ....
....|..|G#5 2F.F ....|--- .... ....|F-6 2FEF ....
....|..|F-5 2F.A ....|--- .... ....|--- .... ....
....|..|D#5 2F.7 ....|--- .... ....|F#6 2FE7 ....
....|..|D#5 2F.F ....|--- .... ....|--- .... ....
....|..|G#5 2F.A ....|--- .... ....|F-6 2FEA ....
....|..|F-5 2F.7 ....|--- .... ....|--- .... ....
....|..|F-5 2F.F ....|--- .... ....|R-- .... ....
....|..|D#5 2F.A ....|--- .... ....|--- .... ....
....|..|G#5 2F.7 ....|--- .... ....|F-6 2FE7 ....
....|..|G#5 2F.F ....|--- .... ....|--- .... ....
....|..|F-5 2F.A ....|--- .... ....|R-- .... ....
....|..|D#5 2F.7 ....|R-- .... ....|--- .... ....

[Pattern24]
....|..|D#4 2F.F ....|G#5 3FFF ....|--- .... ....
....|..|G#5 2F.A ....|C#4 2F1F ....|--- .... ....
....|..|F-5 2F.7 ....|--- .... ....|R-- .... ....
....|..|F-4 2F.F ....|R-- .... ....|--- .... ....
....|..|D#4 2F.A ....|G#5 3FFA ....|--- .... ....
....|..|G#5 2F.7 ....|C#4 2F1A ....|--- .... ....
....|..|C#4 2F.F ....|F-5 3FFF ....|--- .... ....
....|..|F-4 2F.A ....|R-- .... ....|--- .... ....
....|..|D#4 2F.7 ....|G#5 3FF7 ....|--- .... ....
....|..|--- .... ....|C#4 2F17 ....|--- .... ....
....|..|C#4 2F.A ....|F-5 3FFA ....|--- .... ....
....|..|F-4 2F.7 ....|--- .... ....|--- .... ....
....|..|--- .... ....|--- .... ....|--- .... ....
....|..|--- .... ....|--- .... ....|--- .... ....
....|..|C#4 2F.7 ....|F-5 3FF7 ....|--- .... ....
....|..|--- .... ....|--- .... ....|--- .... ....
....|..|--- .... ....|--- .... ....|--- .... ....
....|..|--- .... ....|--- .... ....|--- .... ....
....|..|--- .... ....|--- .... ....|--- .... ....
....|..|--- .... ....|--- .... ....|--- .... ....
....|..|--- .... ....|--- .... ....|--- .... ....
....|..|--- .... ....|--- .... ....|--- .... ....
....|..|--- .... ....|--- .... ....|--- .... ....
....|..|--- .... ....|--- .... ....|--- .... ....
....|..|--- .... ....|G#5 3FFF ....|--- .... ....
....|..|--- .... ....|--- .... ....|--- .... ....
....|..|--- .... ....|--- .... ....|--- .... ....
....|..|--- .... ....|--- .... ....|--- .... ....
....|..|--- .... ....|G#5 3FFA ....|--- .... ....
....|..|--- .... ....|--- .... ....|--- .... ....
....|..|--- .... ....|F-5 3FFF ....|--- .... ....
....|..|--- .... ....|--- .... ....|--- .... ....
....|..|--- .... ....|G#5 3FF7 ....|--- .... ....
....|..|--- .... ....|--- .... ....|--- .... ....
....|..|--- .... ....|F-5 3FFA ....|--- .... ....
....|..|--- .... ....|--- .... ....|--- .... ....
....|..|--- .... ....|--- .... ....|--- .... ....
....|..|R-- .... ....|--- .... ....|--- .... ....
....|..|D#5 2F.F ....|F-5 3FF7 ....|--- .... ....
....|..|C#5 2F.F ....|--- .... ....|--- .... ....
....|..|R-- .... ....|--- .... ....|--- .... ....
....|..|D#5 2F.F ....|--- .... ....|--- .... ....
....|..|F-5 2F.F ....|--- .... ....|--- .... ....
....|..|C#5 2F.A ....|--- .... ....|--- .... ....
....|..|D#5 2F.F ....|--- .... ....|--- .... ....
....|..|F-5 2F.F ....|--- .... ....|--- .... ....
....|..|D#5 2F.7 ....|--- .... ....|--- .... ....
....|..|D#5 2F.F ....|R-- .... ....|--- .... ....
....|..|G#5 2F.F ....|G#5 3FFF ....|--- .... ....
....|..|D#5 2F.7 ....|C#4 2F1F ....|--- .... ....
....|..|F-5 2F.7 ....|--- .... ....|--- .... ....
....|..|D#5 2F.A ....|R-- .... ....|--- .... ....
....|..|D#5 2F.7 ....|G#5 3FFA ....|--- .... ....
....|..|F-5 2F.7 ....|C#4 2F1A ....|--- .... ....
....|..|R-- .... ....|--- .... ....|--- .... ....
....|..|D#5 2F.7 ....|R-- .... ....|--- .... ....
....|..|G#5 2F.7 ....|G#5 3FF7 ....|--- .... ....
....|..|--- .... ....|C#4 2F17 ....|--- .... ....
....|..|--- .... ....|--- .... ....|--- .... ....
....|..|--- .... ....|--- .... ....|--- .... ....
....|..|--- .... ....|F-5 3FFF ....|--- .... ....
....|..|--- .... ....|--- .... ....|--- .... ....
....|..|--- .... ....|--- .... ....|--- .... ....
....|..|--- .... ....|--- .... ....|--- .... ....
....|..|--- .... ....|F-5 3FFA ....|--- .... ....
....|..|--- .... ....|--- .... ....|--- .... ....
....|..|--- .... ....|--- .... ....|--- .... ....
....|..|--- .... ....|--- .... ....|--- .... ....
....|..|--- .... ....|F-5 3FF7 ....|--- .... ....
....|..|--- .... ....|--- .... ....|--- .... ....
....|..|--- .... ....|--- .... ....|--- .... ....
....|..|--- .... ....|--- .... ....|--- .... ....
....|..|C#6 2F.F ....|--- .... ....|--- .... ....
....|..|--- .... ....|--- .... ....|--- .... ....
....|..|R-- .... ....|--- .... ....|--- .... ....
....|..|D#6 2F.F ....|--- .... ....|--- .... ....
....|..|C#6 2F.A ....|--- .... ....|--- .... ....
....|..|--- .... ....|--- .... ....|--- .... ....
....|..|G#5 2F.F ....|--- .... ....|--- .... ....
....|..|D#6 2F.A ....|--- .... ....|--- .... ....
....|..|C#6 2F.7 ....|--- .... ....|--- .... ....
....|..|--- .... ....|--- .... ....|--- .... ....
....|..|G#5 2F.A ....|--- .... ....|--- .... ....
....|..|D#6 2F.7 ....|--- .... ....|--- .... ....
....|..|--- .... ....|--- .... ....|--- .... ....
....|..|--- .... ....|--- .... ....|--- .... ....
....|..|G#5 2F.7 ....|--- .... ....|--- .... ....
....|..|--- .... ....|--- .... ....|--- .... ....
....|..|--- .... ....|--- .... ....|--- .... ....
....|..|--- .... ....|--- .... ....|--- .... ....
....|..|--- .... ....|--- .... ....|--- .... ....
....|..|--- .... ....|--- .... ....|--- .... ....
....|..|--- .... ....|--- .... ....|--- .... ....
....|..|--- .... ....|--- .... ....|--- .... ....
....|..|--- .... ....|--- .... ....|--- .... ....
....|..|--- .... ....|R-- .... ....|--- .... ....

[Pattern25]
....|..|D#4 2F.F ....|R-- .... ....|--- .... ....
....|..|--- .... ....|--- .... ....|--- .... ....
....|..|R-- .... ....|--- .... ....|--- .... ....
....|..|F-4 2F.F ....|R-- .... ....|--- .... ....
....|..|D#4 2F.A ....|R-- .... ....|--- .... ....
....|..|--- .... ....|--- .... ....|--- .... ....
....|..|C#4 2F.F ....|--- .... ....|--- .... ....
....|..|F-4 2F.A ....|R-- .... ....|--- .... ....
....|..|D#4 2F.7 ....|R-- .... ....|--- .... ....
....|..|--- .... ....|--- .... ....|--- .... ....
....|..|C#4 2F.A ....|--- .... ....|--- .... ....
....|..|F-4 2F.7 ....|--- .... ....|--- .... ....
....|..|--- .... ....|--- .... ....|--- .... ....
....|..|--- .... ....|--- .... ....|--- .... ....
....|..|C#4 2F.7 ....|--- .... ....|--- .... ....
....|..|--- .... ....|--- .... ....|--- .... ....
....|..|--- .... ....|--- .... ....|--- .... ....
....|..|--- .... ....|--- .... ....|--- .... ....
....|..|--- .... ....|--- .... ....|--- .... ....
....|..|--- .... ....|--- .... ....|--- .... ....
....|..|--- .... ....|--- .... ....|--- .... ....
....|..|--- .... ....|--- .... ....|--- .... ....
....|..|--- .... ....|--- .... ....|--- .... ....
....|..|--- .... ....|--- .... ....|--- .... ....
....|..|--- .... ....|--- .... ....|--- .... ....
....|..|--- .... ....|--- .... ....|--- .... ....
....|..|--- .... ....|--- .... ....|--- .... ....
....|..|--- .... ....|--- .... ....|--- .... ....
....|..|--- .... ....|--- .... ....|--- .... ....
....|..|--- .... ....|--- .... ....|--- .... ....
....|..|--- .... ....|--- .... ....|--- .... ....
....|..|--- .... ....|--- .... ....|--- .... ....
....|..|--- .... ....|--- .... ....|--- .... ....
....|..|--- .... ....|--- .... ....|--- .... ....
....|..|--- .... ....|--- .... ....|--- .... ....
....|..|--- .... ....|--- .... ....|--- .... ....
....|..|R-- .... ....|--- .... ....|--- .... ....
....|..|--- .... ....|--- .... ....|--- .... ....
....|..|A#4 2F.F ....|--- .... ....|--- .... ....
....|..|G#4 2F.F ....|--- .... ....|--- .... ....
....|..|R-- .... ....|--- .... ....|--- .... ....
....|..|A#4 2F.F ....|--- .... ....|--- .... ....
....|..|C#5 2F.F ....|--- .... ....|--- .... ....
....|..|G#4 2F.A ....|--- .... ....|--- .... ....
....|..|A#4 2F.F ....|--- .... ....|--- .... ....
....|..|C#5 2F.F ....|--- .... ....|--- .... ....
....|..|A#4 2F.7 ....|--- .... ....|--- .... ....
....|..|A#4 2F.F ....|--- .... ....|--- .... ....
....|..|D#5 2F.F ....|--- .... ....|--- .... ....
....|..|A#4 2F.7 ....|--- .... ....|--- .... ....
....|..|C#5 2F.7 ....|--- .... ....|--- .... ....
....|..|A#4 2F.A ....|--- .... ....|--- .... ....
....|..|A#4 2F.7 ....|--- .... ....|--- .... ....
....|..|C#5 2F.7 ....|--- .... ....|--- .... ....
....|..|R-- .... ....|--- .... ....|--- .... ....
....|..|A#4 2F.7 ....|--- .... ....|--- .... ....
....|..|D#5 2F.7 ....|--- .... ....|--- .... ....
....|..|--- .... ....|--- .... ....|--- .... ....
....|..|--- .... ....|--- .... ....|--- .... ....
....|..|--- .... ....|--- .... ....|--- .... ....
....|..|--- .... ....|--- .... ....|--- .... ....
....|..|--- .... ....|--- .... ....|--- .... ....
....|..|--- .... ....|--- .... ....|--- .... ....
....|..|--- .... ....|--- .... ....|--- .... ....
....|..|--- .... ....|--- .... ....|--- .... ....
....|..|--- .... ....|--- .... ....|--- .... ....
....|..|--- .... ....|--- .... ....|--- .... ....
....|..|--- .... ....|--- .... ....|--- .... ....
....|..|--- .... ....|--- .... ....|--- .... ....
....|..|--- .... ....|--- .... ....|--- .... ....
....|..|--- .... ....|--- .... ....|--- .... ....
....|..|--- .... ....|--- .... ....|--- .... ....
....|..|G#5 2F.F ....|--- .... ....|--- .... ....
....|..|--- .... ....|--- .... ....|--- .... ....
....|..|R-- .... ....|--- .... ....|--- .... ....
....|..|A#5 2F.F ....|--- .... ....|--- .... ....
....|..|G#5 2F.A ....|--- .... ....|--- .... ....
....|..|--- .... ....|--- .... ....|--- .... ....
....|..|D#5 2F.F ....|--- .... ....|--- .... ....
....|..|A#5 2F.A ....|--- .... ....|--- .... ....
....|..|G#5 2F.7 ....|--- .... ....|--- .... ....
....|..|--- .... ....|--- .... ....|--- .... ....
....|..|D#5 2F.A ....|--- .... ....|--- .... ....
....|..|A#5 2F.7 ....|--- .... ....|--- .... ....
....|..|--- .... ....|--- .... ....|--- .... ....
....|..|--- .... ....|--- .... ....|--- .... ....
....|..|D#5 2F.7 ....|--- .... ....|--- .... ....
....|..|--- .... ....|--- .... ....|--- .... ....
....|..|--- .... ....|--- .... ....|--- .... ....
....|..|--- .... ....|--- .... ....|--- .... ....
....|..|--- .... ....|--- .... ....|--- .... ....
....|..|--- .... ....|--- .... ....|--- .... ....
....|..|--- .... ....|--- .... ....|--- .... ....
....|..|--- .... ....|--- .... ....|--- .... ....
....|..|--- .... ....|--- .... ....|--- .... ....
....|..|--- .... ....|--- .... ....|--- .... ....

[Pattern26]
....|..|F-5 2F.F ....|--- .... ....|--- .... ....
....|..|--- .... ....|--- .... ....|--- .... ....
....|..|--- .... ....|--- .... ....|--- .... ....
....|..|G#5 2F.F ....|--- .... ....|--- .... ....
....|..|F-5 2F.A ....|--- .... ....|--- .... ....
....|..|--- .... ....|--- .... ....|--- .... ....
....|..|R-- .... ....|--- .... ....|--- .... ....
....|..|D#6 2F.F ....|--- .... ....|--- .... ....
....|..|F-5 2F.7 ....|--- .... ....|--- .... ....
....|..|--- .... ....|--- .... ....|--- .... ....
....|..|R-- .... ....|--- .... ....|--- .... ....
....|..|G#5 2F.7 ....|--- .... ....|--- .... ....
....|..|--- .... ....|--- .... ....|--- .... ....
....|..|--- .... ....|--- .... ....|--- .... ....
....|..|R-- .... ....|--- .... ....|--- .... ....
....|..|D#6 2F.7 ....|--- .... ....|--- .... ....
....|..|--- .... ....|--- .... ....|--- .... ....
....|..|--- .... ....|--- .... ....|--- .... ....
....|..|--- .... ....|--- .... ....|--- .... ....
....|..|--- .... ....|--- .... ....|--- .... ....
....|..|--- .... ....|--- .... ....|--- .... ....
....|..|--- .... ....|--- .... ....|--- .... ....
....|..|--- .... ....|--- .... ....|--- .... ....
....|..|--- .... ....|--- .... ....|--- .... ....
....|..|--- .... ....|--- .... ....|--- .... ....
....|..|--- .... ....|--- .... ....|--- .... ....
....|..|--- .... ....|--- .... ....|--- .... ....
....|..|--- .... ....|--- .... ....|--- .... ....
....|..|--- .... ....|--- .... ....|--- .... ....
....|..|--- .... ....|--- .... ....|--- .... ....
....|..|--- .... ....|--- .... ....|--- .... ....
....|..|--- .... ....|--- .... ....|--- .... ....
....|..|--- .... ....|--- .... ....|--- .... ....
....|..|--- .... ....|--- .... ....|--- .... ....
....|..|--- .... ....|--- .... ....|--- .... ....
....|..|--- .... ....|--- .... ....|--- .... ....
....|..|F-5 2F.F ....|--- .... ....|--- .... ....
....|..|R-- .... ....|--- .... ....|--- .... ....
....|..|G#5 2F.F ....|--- .... ....|--- .... ....
....|..|F-5 2F.F ....|--- .... ....|--- .... ....
....|..|F-5 2F.A ....|--- .... ....|--- .... ....
....|..|G#5 2F.F ....|--- .... ....|--- .... ....
....|..|A#5 2F.F ....|--- .... ....|--- .... ....
....|..|F-5 2F.A ....|--- .... ....|--- .... ....
....|..|G#5 2F.F ....|--- .... ....|--- .... ....
....|..|A#5 2F.F ....|--- .... ....|--- .... ....
....|..|G#5 2F.7 ....|--- .... ....|--- .... ....
....|..|G#5 2F.F ....|--- .... ....|--- .... ....
....|..|D#6 2F.F ....|--- .... ....|--- .... ....
....|..|G#5 2F.7 ....|--- .... ....|--- .... ....
....|..|A#5 2F.7 ....|--- .... ....|--- .... ....
....|..|G#5 2F.A ....|--- .... ....|--- .... ....
....|..|G#5 2F.7 ....|--- .... ....|--- .... ....
....|..|A#5 2F.7 ....|--- .... ....|--- .... ....
....|..|R-- .... ....|--- .... ....|--- .... ....
....|..|G#5 2F.7 ....|--- .... ....|--- .... ....
....|..|D#6 2F.7 ....|--- .... ....|--- .... ....
....|..|--- .... ....|--- .... ....|--- .... ....
....|..|--- .... ....|--- .... ....|--- .... ....
....|..|--- .... ....|--- .... ....|--- .... ....
....|..|--- .... ....|--- .... ....|--- .... ....
....|..|--- .... ....|--- .... ....|--- .... ....
....|..|--- .... ....|--- .... ....|--- .... ....
....|..|--- .... ....|--- .... ....|--- .... ....
....|..|--- .... ....|--- .... ....|--- .... ....
....|..|--- .... ....|--- .... ....|--- .... ....
....|..|--- .... ....|--- .... ....|--- .... ....
....|..|--- .... ....|--- .... ....|--- .... ....
....|..|--- .... ....|--- .... ....|--- .... ....
....|..|--- .... ....|--- .... ....|--- .... ....
....|..|--- .... ....|--- .... ....|--- .... ....
....|..|--- .... ....|--- .... ....|--- .... ....
....|..|R-- .... ....|--- .... ....|--- .... ....
....|..|A#6 2F.F ....|--- .... ....|--- .... ....
....|..|--- .... ....|--- .... ....|--- .... ....
....|..|G#6 2F.F ....|--- .... ....|--- .... ....
....|..|R-- .... ....|--- .... ....|--- .... ....
....|..|A#6 2F.A ....|--- .... ....|--- .... ....
....|..|A#6 2F.F ....|--- .... ....|--- .... ....
....|..|G#6 2F.A ....|--- .... ....|--- .... ....
....|..|R-- .... ....|--- .... ....|--- .... ....
....|..|G#6 2F.F ....|--- .... ....|--- .... ....
....|..|A#6 2F.A ....|--- .... ....|--- .... ....
....|..|G#6 2F.7 ....|--- .... ....|--- .... ....
....|..|A#6 2F.F ....|--- .... ....|--- .... ....
....|..|G#6 2F.A ....|--- .... ....|--- .... ....
....|..|A#6 2F.7 ....|--- .... ....|--- .... ....
....|..|G#6 2F.F ....|--- .... ....|--- .... ....
....|..|A#6 2F.A ....|--- .... ....|--- .... ....
....|..|G#6 2F.7 ....|--- .... ....|--- .... ....
....|..|F-6 2F.F ....|--- .... ....|--- .... ....
....|..|G#6 2F.A ....|--- .... ....|--- .... ....
....|..|A#6 2F.7 ....|--- .... ....|--- .... ....
....|..|D#6 2F.F ....|--- .... ....|--- .... ....
....|..|F-6 2F.A ....|--- .... ....|--- .... ....
....|..|G#6 2F.7 ....|--- .... ....|--- .... ....

[Pattern27]
....|..|C#6 2F.F ....|--- .... ....|--- .... ....
....|..|D#6 2F.A ....|--- .... ....|--- .... ....
....|..|F-6 2F.7 ....|--- .... ....|--- .... ....
....|..|D#6 2F.F ....|--- .... ....|--- .... ....
....|..|C#6 2F.A ....|--- .... ....|--- .... ....
....|..|D#6 2F.7 ....|--- .... ....|--- .... ....
....|..|--- .... ....|--- .... ....|--- .... ....
....|..|D#6 2F.A ....|--- .... ....|--- .... ....
....|..|C#6 2F.7 ....|--- .... ....|--- .... ....
....|..|C#6 2F.F ....|--- .... ....|--- .... ....
....|..|--- .... ....|--- .... ....|--- .... ....
....|..|D#6 2F.7 ....|--- .... ....|--- .... ....
....|..|D#6 2F.F ....|--- .... ....|--- .... ....
....|..|C#6 2F.A ....|--- .... ....|--- .... ....
....|..|--- .... ....|--- .... ....|--- .... ....
....|..|--- .... ....|--- .... ....|--- .... ....
....|..|D#6 2F.A ....|--- .... ....|--- .... ....
....|..|C#6 2F.7 ....|--- .... ....|--- .... ....
....|..|G#6 2F.F ....|--- .... ....|--- .... ....
....|..|--- .... ....|--- .... ....|--- .... ....
....|..|D#6 2F.7 ....|--- .... ....|--- .... ....
....|..|--- .... ....|--- .... ....|--- .... ....
....|..|G#6 2F.A ....|--- .... ....|--- .... ....
....|..|--- .... ....|--- .... ....|--- .... ....
....|..|--- .... ....|--- .... ....|--- .... ....
....|..|--- .... ....|--- .... ....|--- .... ....
....|..|G#6 2F.7 ....|--- .... ....|--- .... ....
....|..|--- .... ....|--- .... ....|--- .... ....
....|..|--- .... ....|--- .... ....|--- .... ....
....|..|--- .... ....|--- .... ....|--- .... ....
....|..|--- .... ....|--- .... ....|--- .... ....
....|..|--- .... ....|--- .... ....|--- .... ....
....|..|--- .... ....|--- .... ....|--- .... ....
....|..|--- .... ....|--- .... ....|--- .... ....
....|..|--- .... ....|--- .... ....|--- .... ....
....|..|R-- .... ....|--- .... ....|--- .... ....
....|..|F#6 2F.F ....|--- .... ....|--- .... ....
....|..|R-- .... ....|--- .... ....|--- .... ....
....|..|F-6 2F.F ....|--- .... ....|--- .... ....
....|..|D#6 2F.F ....|--- .... ....|--- .... ....
....|..|F#6 2F.A ....|--- .... ....|--- .... ....
....|..|C#6 2F.F ....|--- .... ....|--- .... ....
....|..|A#5 2F.F ....|--- .... ....|--- .... ....
....|..|D#6 2F.A ....|--- .... ....|--- .... ....
....|..|F#5 2F.F ....|--- .... ....|--- .... ....
....|..|F-5 2F.F ....|--- .... ....|--- .... ....
....|..|F-6 2F.7 ....|--- .... ....|--- .... ....
....|..|D#5 2F.F ....|--- .... ....|--- .... ....
....|..|C#5 2F.F ....|--- .... ....|--- .... ....
....|..|C#6 2F.7 ....|--- .... ....|--- .... ....
....|..|A#5 2F.7 ....|--- .... ....|--- .... ....
....|..|D#5 2F.A ....|--- .... ....|--- .... ....
....|..|F#5 2F.7 ....|--- .... ....|--- .... ....
....|..|F-5 2F.7 ....|--- .... ....|--- .... ....
....|..|R-- .... ....|--- .... ....|--- .... ....
....|..|D#5 2F.7 ....|--- .... ....|--- .... ....
....|..|C#5 2F.7 ....|--- .... ....|--- .... ....
....|..|--- .... ....|--- .... ....|--- .... ....
....|..|--- .... ....|--- .... ....|--- .... ....
....|..|--- .... ....|--- .... ....|--- .... ....
....|..|--- .... ....|--- .... ....|--- .... ....
....|..|--- .... ....|--- .... ....|--- .... ....
....|..|--- .... ....|--- .... ....|--- .... ....
....|..|--- .... ....|--- .... ....|--- .... ....
....|..|--- .... ....|--- .... ....|--- .... ....
....|..|--- .... ....|--- .... ....|--- .... ....
....|..|--- .... ....|--- .... ....|--- .... ....
....|..|--- .... ....|--- .... ....|--- .... ....
....|..|--- .... ....|--- .... ....|--- .... ....
....|..|--- .... ....|--- .... ....|--- .... ....
....|..|--- .... ....|--- .... ....|--- .... ....
....|..|--- .... ....|--- .... ....|--- .... ....
....|..|D#5 2F.F ....|--- .... ....|--- .... ....
....|..|--- .... ....|--- .... ....|--- .... ....
....|..|R-- .... ....|--- .... ....|--- .... ....
....|..|C#5 2F.F ....|--- .... ....|--- .... ....
....|..|D#5 2F.A ....|--- .... ....|--- .... ....
....|..|--- .... ....|--- .... ....|--- .... ....
....|..|D#5 2F.F ....|--- .... ....|--- .... ....
....|..|C#5 2F.A ....|--- .... ....|--- .... ....
....|..|D#5 2F.7 ....|--- .... ....|--- .... ....
....|..|C#5 2F.F ....|--- .... ....|--- .... ....
....|..|D#5 2F.A ....|--- .... ....|--- .... ....
....|..|C#5 2F.7 ....|--- .... ....|--- .... ....
....|..|F#5 2F.F ....|--- .... ....|--- .... ....
....|..|C#5 2F.A ....|--- .... ....|--- .... ....
....|..|D#5 2F.7 ....|--- .... ....|--- .... ....
....|..|F-5 2F.F ....|--- .... ....|--- .... ....
....|..|F#5 2F.A ....|--- .... ....|--- .... ....
....|..|C#5 2F.7 ....|--- .... ....|--- .... ....
....|..|F#5 2F.F ....|--- .... ....|--- .... ....
....|..|F-5 2F.A ....|--- .... ....|--- .... ....
....|..|F#5 2F.7 ....|--- .... ....|--- .... ....
....|..|F-5 2F.F ....|--- .... ....|--- .... ....
....|..|F#5 2F.A ....|--- .... ....|--- .... ....
....|..|F-5 2F.7 ....|--- .... ....|--- .... ....

[Pattern28]
....|..|D#4 2F.F ....|--- .... ....|--- .... ....
....|..|F-5 2F.A ....|--- .... ....|--- .... ....
....|..|F#5 2F.7 ....|--- .... ....|--- .... ....
....|..|F-4 2F.F ....|--- .... ....|--- .... ....
....|..|D#4 2F.A ....|--- .... ....|--- .... ....
....|..|F-5 2F.7 ....|--- .... ....|--- .... ....
....|..|C#5 2F.F ....|--- .... ....|--- .... ....
....|..|F-4 2F.A ....|--- .... ....|--- .... ....
....|..|D#4 2F.7 ....|--- .... ....|--- .... ....
....|..|D#4 2F.F ....|--- .... ....|--- .... ....
....|..|C#5 2F.A ....|--- .... ....|--- .... ....
....|..|F-4 2F.7 ....|--- .... ....|--- .... ....
....|..|F-4 2F.F ....|--- .... ....|--- .... ....
....|..|D#4 2F.A ....|--- .... ....|--- .... ....
....|..|C#5 2F.7 ....|--- .... ....|--- .... ....
....|..|C#5 2F.F ....|--- .... ....|--- .... ....
....|..|F-4 2F.A ....|--- .... ....|--- .... ....
....|..|D#4 2F.7 ....|--- .... ....|--- .... ....
....|..|D#4 2F.F ....|--- .... ....|--- .... ....
....|..|C#5 2F.A ....|--- .... ....|--- .... ....
....|..|F-4 2F.7 ....|--- .... ....|--- .... ....
....|..|F-4 2F.F ....|--- .... ....|--- .... ....
....|..|D#4 2F.A ....|--- .... ....|--- .... ....
....|..|C#5 2F.7 ....|--- .... ....|--- .... ....
....|..|G#5 2F.F ....|--- .... ....|--- .... ....
....|..|F-4 2F.A ....|--- .... ....|--- .... ....
....|..|D#4 2F.7 ....|--- .... ....|--- .... ....
....|..|--- .... ....|--- .... ....|--- .... ....
....|..|G#5 2F.A ....|--- .... ....|--- .... ....
....|..|F-4 2F.7 ....|--- .... ....|--- .... ....
....|..|--- .... ....|--- .... ....|--- .... ....
....|..|--- .... ....|--- .... ....|--- .... ....
....|..|G#5 2F.7 ....|--- .... ....|--- .... ....
....|..|D#5 2F.F ....|--- .... ....|--- .... ....
....|..|--- .... ....|--- .... ....|--- .... ....
....|..|--- .... ....|--- .... ....|--- .... ....
....|..|C#5 2F.F ....|--- .... ....|--- .... ....
....|..|D#5 2F.A ....|--- .... ....|--- .... ....
....|..|D#5 2F.F ....|--- .... ....|--- .... ....
....|..|C#5 2F.F ....|--- .... ....|--- .... ....
....|..|C#5 2F.A ....|--- .... ....|--- .... ....
....|..|D#5 2F.F ....|--- .... ....|--- .... ....
....|..|F-5 2F.F ....|--- .... ....|--- .... ....
....|..|C#5 2F.A ....|--- .... ....|--- .... ....
....|..|D#5 2F.F ....|--- .... ....|--- .... ....
....|..|F-5 2F.F ....|--- .... ....|--- .... ....
....|..|D#5 2F.7 ....|--- .... ....|--- .... ....
....|..|D#5 2F.F ....|--- .... ....|--- .... ....
....|..|C#5 2F.F ....|--- .... ....|--- .... ....
....|..|D#5 2F.7 ....|--- .... ....|--- .... ....
....|..|D#5 2F.F ....|--- .... ....|--- .... ....
....|..|C#5 2F.F ....|--- .... ....|--- .... ....
....|..|D#5 2F.7 ....|--- .... ....|--- .... ....
....|..|D#5 2F.F ....|--- .... ....|--- .... ....
....|..|F-5 2F.F ....|--- .... ....|--- .... ....
....|..|D#5 2F.7 ....|--- .... ....|--- .... ....
....|..|D#5 2F.F ....|--- .... ....|--- .... ....
....|..|F-5 2F.F ....|--- .... ....|--- .... ....
....|..|D#5 2F.7 ....|--- .... ....|--- .... ....
....|..|D#5 2F.F ....|--- .... ....|--- .... ....
....|..|G#5 2F.F ....|--- .... ....|--- .... ....
....|..|D#5 2F.7 ....|--- .... ....|--- .... ....
....|..|F-5 2F.7 ....|--- .... ....|--- .... ....
....|..|D#5 2F.A ....|--- .... ....|--- .... ....
....|..|D#5 2F.7 ....|--- .... ....|--- .... ....
....|..|F-5 2F.7 ....|--- .... ....|--- .... ....
....|..|R-- .... ....|--- .... ....|--- .... ....
....|..|C#6 2F.F ....|--- .... ....|--- .... ....
....|..|G#5 2F.7 ....|--- .... ....|--- .... ....
....|..|--- .... ....|--- .... ....|--- .... ....
....|..|R-- .... ....|--- .... ....|--- .... ....
....|..|G#5 2F.F ....|--- .... ....|--- .... ....
....|..|C#6 2F.F ....|--- .... ....|--- .... ....
....|..|--- .... ....|--- .... ....|--- .... ....
....|..|R-- .... ....|--- .... ....|--- .... ....
....|..|C#6 2F.7 ....|--- .... ....|--- .... ....
....|..|C#6 2F.A ....|--- .... ....|--- .... ....
....|..|--- .... ....|--- .... ....|--- .... ....
....|..|D#6 2F.F ....|--- .... ....|--- .... ....
....|..|G#5 2F.7 ....|--- .... ....|--- .... ....
....|..|C#6 2F.7 ....|--- .... ....|--- .... ....
....|..|C#6 2F.F ....|--- .... ....|--- .... ....
....|..|D#6 2F.A ....|--- .... ....|--- .... ....
....|..|--- .... ....|--- .... ....|--- .... ....
....|..|--- .... ....|--- .... ....|--- .... ....
....|..|C#6 2F.A ....|--- .... ....|--- .... ....
....|..|D#6 2F.7 ....|--- .... ....|--- .... ....
....|..|G#5 2F.F ....|--- .... ....|--- .... ....
....|..|--- .... ....|--- .... ....|--- .... ....
....|..|C#6 2F.7 ....|--- .... ....|--- .... ....
....|..|D#5 2F.F ....|--- .... ....|--- .... ....
....|..|G#5 2F.A ....|--- .... ....|--- .... ....
....|..|--- .... ....|--- .... ....|--- .... ....
....|..|--- .... ....|--- .... ....|--- .... ....
....|..|C#6 2F.F ....|--- .... ....|--- .... ....
....|..|G#5 2F.7 ....|--- .... ....|--- .... ....

[Pattern29]
....|..|D#4 2F.F ....|--- .... ....|--- .... ....
....|..|--- .... ....|--- .... ....|--- .... ....
....|..|D#5 2F.7 ....|--- .... ....|--- .... ....
....|..|F-4 2F.F ....|--- .... ....|--- .... ....
....|..|D#4 2F.A ....|--- .... ....|--- .... ....
....|..|--- .... ....|--- .... ....|--- .... ....
....|..|C#6 2F.7 ....|--- .... ....|--- .... ....
....|..|C#5 2F.F ....|--- .... ....|--- .... ....
....|..|D#4 2F.7 ....|--- .... ....|--- .... ....
....|..|D#4 2F.F ....|--- .... ....|--- .... ....
....|..|R-- .... ....|--- .... ....|--- .... ....
....|..|F-4 2F.7 ....|--- .... ....|--- .... ....
....|..|F-4 2F.F ....|--- .... ....|--- .... ....
....|..|D#4 2F.A ....|--- .... ....|--- .... ....
....|..|R-- .... ....|--- .... ....|--- .... ....
....|..|C#5 2F.F ....|--- .... ....|--- .... ....
....|..|F-4 2F.A ....|--- .... ....|--- .... ....
....|..|D#4 2F.7 ....|--- .... ....|--- .... ....
....|..|D#4 2F.F ....|--- .... ....|--- .... ....
....|..|C#5 2F.A ....|--- .... ....|--- .... ....
....|..|F-4 2F.7 ....|--- .... ....|--- .... ....
....|..|F-4 2F.F ....|--- .... ....|--- .... ....
....|..|D#4 2F.A ....|--- .... ....|--- .... ....
....|..|C#5 2F.7 ....|--- .... ....|--- .... ....
....|..|C#5 2F.F ....|--- .... ....|--- .... ....
....|..|F-4 2F.A ....|--- .... ....|--- .... ....
....|..|D#4 2F.7 ....|--- .... ....|--- .... ....
....|..|R-- .... ....|--- .... ....|--- .... ....
....|..|C#5 2F.A ....|--- .... ....|--- .... ....
....|..|F-4 2F.7 ....|--- .... ....|--- .... ....
....|..|--- .... ....|--- .... ....|--- .... ....
....|..|R-- .... ....|--- .... ....|--- .... ....
....|..|C#5 2F.7 ....|--- .... ....|--- .... ....
....|..|--- .... ....|--- .... ....|--- .... ....
....|..|--- .... ....|--- .... ....|--- .... ....
....|..|--- .... ....|--- .... ....|--- .... ....
....|..|G#4 2F.F ....|--- .... ....|--- .... ....
....|..|R-- .... ....|--- .... ....|--- .... ....
....|..|A#4 2F.F ....|--- .... ....|--- .... ....
....|..|G#4 2F.F ....|--- .... ....|--- .... ....
....|..|G#4 2F.A ....|--- .... ....|--- .... ....
....|..|A#4 2F.F ....|--- .... ....|--- .... ....
....|..|C#5 2F.F ....|--- .... ....|--- .... ....
....|..|G#4 2F.A ....|--- .... ....|--- .... ....
....|..|A#4 2F.F ....|--- .... ....|--- .... ....
....|..|C#5 2F.F ....|--- .... ....|--- .... ....
....|..|A#4 2F.7 ....|--- .... ....|--- .... ....
....|..|A#4 2F.F ....|--- .... ....|--- .... ....
....|..|D#5 2F.F ....|--- .... ....|--- .... ....
....|..|A#4 2F.7 ....|--- .... ....|--- .... ....
....|..|C#5 2F.7 ....|--- .... ....|--- .... ....
....|..|A#4 2F.A ....|--- .... ....|--- .... ....
....|..|A#4 2F.7 ....|--- .... ....|--- .... ....
....|..|C#5 2F.7 ....|--- .... ....|--- .... ....
....|..|R-- .... ....|--- .... ....|--- .... ....
....|..|A#4 2F.7 ....|--- .... ....|--- .... ....
....|..|D#5 2F.7 ....|--- .... ....|--- .... ....
....|..|C#5 2F.F ....|--- .... ....|--- .... ....
....|..|--- .... ....|--- .... ....|--- .... ....
....|..|--- .... ....|--- .... ....|--- .... ....
....|..|R-- .... ....|--- .... ....|--- .... ....
....|..|C#5 2F.A ....|--- .... ....|--- .... ....
....|..|--- .... ....|--- .... ....|--- .... ....
....|..|--- .... ....|--- .... ....|--- .... ....
....|..|R-- .... ....|--- .... ....|--- .... ....
....|..|C#5 2F.7 ....|--- .... ....|--- .... ....
....|..|C-5 2F.F ....|--- .... ....|--- .... ....
....|..|--- .... ....|--- .... ....|--- .... ....
....|..|--- .... ....|--- .... ....|--- .... ....
....|..|--- .... ....|--- .... ....|--- .... ....
....|..|C-5 2F.A ....|--- .... ....|--- .... ....
....|..|--- .... ....|--- .... ....|--- .... ....
....|..|--- .... ....|--- .... ....|--- .... ....
....|..|--- .... ....|--- .... ....|--- .... ....
....|..|C-5 2F.7 ....|--- .... ....|--- .... ....
....|..|--- .... ....|--- .... ....|--- .... ....
....|..|--- .... ....|--- .... ....|--- .... ....
....|..|--- .... ....|--- .... ....|--- .... ....
....|..|C#5 2F.F ....|--- .... ....|--- .... ....
....|..|--- .... ....|--- .... ....|--- .... ....
....|..|--- .... ....|--- .... ....|--- .... ....
....|..|--- .... ....|--- .... ....|--- .... ....
....|..|C#5 2F.A ....|--- .... ....|--- .... ....
....|..|--- .... ....|--- .... ....|--- .... ....
....|..|--- .... ....|--- .... ....|--- .... ....
....|..|--- .... ....|--- .... ....|--- .... ....
....|..|C#5 2F.7 ....|--- .... ....|--- .... ....
....|..|--- .... ....|--- .... ....|--- .... ....
....|..|--- .... ....|--- .... ....|--- .... ....
....|..|--- .... ....|--- .... ....|--- .... ....
....|..|--- .... ....|--- .... ....|--- .... ....
....|..|--- .... ....|--- .... ....|--- .... ....
....|..|--- .... ....|--- .... ....|--- .... ....
....|..|--- .... ....|--- .... ....|--- .... ....
....|..|--- .... ....|--- .... ....|--- .... ....
....|..|--- .... ....|--- .... ....|--- .... ....

[Pattern30]
....|..|C-5 2F.F ....|--- .... ....|--- .... ....
....|..|--- .... ....|--- .... ....|--- .... ....
....|..|--- .... ....|--- .... ....|--- .... ....
....|..|C#5 2F.F ....|--- .... ....|--- .... ....
....|..|C-5 2F.A ....|--- .... ....|--- .... ....
....|..|--- .... ....|--- .... ....|--- .... ....
....|..|R-- .... ....|--- .... ....|--- .... ....
....|..|C#5 2F.A ....|--- .... ....|--- .... ....
....|..|C-5 2F.7 ....|--- .... ....|--- .... ....
....|..|C-5 2F.F ....|--- .... ....|--- .... ....
....|..|R-- .... ....|--- .... ....|--- .... ....
....|..|C#5 2F.7 ....|--- .... ....|--- .... ....
....|..|C#5 2F.F ....|--- .... ....|--- .... ....
....|..|C-5 2F.A ....|--- .... ....|--- .... ....
....|..|R-- .... ....|--- .... ....|--- .... ....
....|..|--- .... ....|--- .... ....|--- .... ....
....|..|C#5 2F.A ....|--- .... ....|--- .... ....
....|..|C-5 2F.7 ....|--- .... ....|--- .... ....
....|..|G#4 2F.F ....|--- .... ....|--- .... ....
....|..|--- .... ....|--- .... ....|--- .... ....
....|..|C#5 2F.7 ....|--- .... ....|--- .... ....
....|..|--- .... ....|--- .... ....|--- .... ....
....|..|G#4 2F.A ....|--- .... ....|--- .... ....
....|..|--- .... ....|--- .... ....|--- .... ....
....|..|--- .... ....|--- .... ....|--- .... ....
....|..|--- .... ....|--- .... ....|--- .... ....
....|..|G#4 2F.F ....|--- .... ....|--- .... ....
....|..|--- .... ....|--- .... ....|--- .... ....
....|..|--- .... ....|--- .... ....|--- .... ....
....|..|--- .... ....|--- .... ....|--- .... ....
....|..|G#4 2F.A ....|--- .... ....|--- .... ....
....|..|--- .... ....|--- .... ....|--- .... ....
....|..|--- .... ....|--- .... ....|--- .... ....
....|..|--- .... ....|--- .... ....|--- .... ....
....|..|G#4 2F.7 ....|--- .... ....|--- .... ....
....|..|--- .... ....|--- .... ....|--- .... ....
....|..|D#5 2F.F ....|--- .... ....|--- .... ....
....|..|R-- .... ....|--- .... ....|--- .... ....
....|..|C#5 2F.F ....|--- .... ....|--- .... ....
....|..|C-5 2F.F ....|--- .... ....|--- .... ....
....|..|D#5 2F.A ....|--- .... ....|--- .... ....
....|..|C#5 2F.F ....|--- .... ....|--- .... ....
....|..|C-5 2F.F ....|--- .... ....|--- .... ....
....|..|C-5 2F.A ....|--- .... ....|--- .... ....
....|..|C#5 2F.F ....|--- .... ....|--- .... ....
....|..|C-5 2F.F ....|--- .... ....|--- .... ....
....|..|C#5 2F.7 ....|--- .... ....|--- .... ....
....|..|A#4 2F.F ....|--- .... ....|--- .... ....
....|..|G#4 2F.F ....|--- .... ....|--- .... ....
....|..|C#5 2F.7 ....|--- .... ....|--- .... ....
....|..|C-5 2F.7 ....|--- .... ....|--- .... ....
....|..|A#4 2F.A ....|--- .... ....|--- .... ....
....|..|C#5 2F.7 ....|--- .... ....|--- .... ....
....|..|C-5 2F.7 ....|--- .... ....|--- .... ....
....|..|R-- .... ....|--- .... ....|--- .... ....
....|..|A#4 2F.7 ....|--- .... ....|--- .... ....
....|..|G#4 2F.7 ....|--- .... ....|--- .... ....
....|..|--- .... ....|--- .... ....|--- .... ....
....|..|--- .... ....|--- .... ....|--- .... ....
....|..|--- .... ....|--- .... ....|--- .... ....
....|..|--- .... ....|--- .... ....|--- .... ....
....|..|--- .... ....|--- .... ....|--- .... ....
....|..|--- .... ....|--- .... ....|--- .... ....
....|..|--- .... ....|--- .... ....|--- .... ....
....|..|--- .... ....|--- .... ....|--- .... ....
....|..|--- .... ....|--- .... ....|--- .... ....
....|..|--- .... ....|--- .... ....|--- .... ....
....|..|--- .... ....|--- .... ....|--- .... ....
....|..|--- .... ....|--- .... ....|--- .... ....
....|..|--- .... ....|--- .... ....|--- .... ....
....|..|--- .... ....|--- .... ....|--- .... ....
....|..|--- .... ....|--- .... ....|--- .... ....
....|..|A#6 2F.F ....|--- .... ....|--- .... ....
....|..|--- .... ....|--- .... ....|--- .... ....
....|..|R-- .... ....|--- .... ....|--- .... ....
....|..|G#6 2F.F ....|--- .... ....|--- .... ....
....|..|A#6 2F.A ....|--- .... ....|--- .... ....
....|..|--- .... ....|--- .... ....|--- .... ....
....|..|A#6 2F.F ....|--- .... ....|--- .... ....
....|..|G#6 2F.A ....|--- .... ....|--- .... ....
....|..|A#6 2F.7 ....|--- .... ....|--- .... ....
....|..|G#6 2F.F ....|--- .... ....|--- .... ....
....|..|A#6 2F.A ....|--- .... ....|--- .... ....
....|..|G#6 2F.7 ....|--- .... ....|--- .... ....
....|..|A#6 2F.F ....|--- .... ....|--- .... ....
....|..|G#6 2F.A ....|--- .... ....|--- .... ....
....|..|A#6 2F.7 ....|--- .... ....|--- .... ....
....|..|G#6 2F.F ....|--- .... ....|--- .... ....
....|..|A#6 2F.A ....|--- .... ....|--- .... ....
....|..|G#6 2F.7 ....|--- .... ....|--- .... ....
....|..|F-6 2F.F ....|--- .... ....|--- .... ....
....|..|G#6 2F.A ....|--- .... ....|--- .... ....
....|..|A#6 2F.7 ....|--- .... ....|--- .... ....
....|..|D#6 2F.F ....|--- .... ....|--- .... ....
....|..|F-6 2F.A ....|--- .... ....|--- .... ....
....|..|G#6 2F.7 ....|--- .... ....|--- .... ....

[Pattern31]
....|..|C#6 2F.F ....|--- .... ....|--- .... ....
....|..|D#6 2F.A ....|--- .... ....|--- .... ....
....|..|F-6 2F.7 ....|--- .... ....|--- .... ....
....|..|D#6 2F.F ....|--- .... ....|--- .... ....
....|..|C#6 2F.A ....|--- .... ....|--- .... ....
....|..|D#6 2F.7 ....|--- .... ....|--- .... ....
....|..|--- .... ....|--- .... ....|--- .... ....
....|..|D#6 2F.A ....|--- .... ....|--- .... ....
....|..|C#6 2F.7 ....|--- .... ....|--- .... ....
....|..|C#6 2F.F ....|--- .... ....|--- .... ....
....|..|--- .... ....|--- .... ....|--- .... ....
....|..|D#6 2F.7 ....|--- .... ....|--- .... ....
....|..|D#6 2F.F ....|--- .... ....|--- .... ....
....|..|C#6 2F.A ....|--- .... ....|--- .... ....
....|..|--- .... ....|--- .... ....|--- .... ....
....|..|--- .... ....|--- .... ....|--- .... ....
....|..|D#6 2F.A ....|--- .... ....|--- .... ....
....|..|C#6 2F.7 ....|--- .... ....|--- .... ....
....|..|G#6 2F.F ....|--- .... ....|--- .... ....
....|..|--- .... ....|--- .... ....|--- .... ....
....|..|D#6 2F.7 ....|--- .... ....|--- .... ....
....|..|--- .... ....|--- .... ....|--- .... ....
....|..|G#6 2F.A ....|--- .... ....|--- .... ....
....|..|--- .... ....|--- .... ....|--- .... ....
....|..|--- .... ....|--- .... ....|--- .... ....
....|..|--- .... ....|--- .... ....|--- .... ....
....|..|G#6 2F.7 ....|--- .... ....|--- .... ....
....|..|--- .... ....|--- .... ....|--- .... ....
....|..|--- .... ....|--- .... ....|--- .... ....
....|..|--- .... ....|--- .... ....|--- .... ....
....|..|--- .... ....|--- .... ....|--- .... ....
....|..|--- .... ....|--- .... ....|--- .... ....
....|..|--- .... ....|--- .... ....|--- .... ....
....|..|--- .... ....|--- .... ....|--- .... ....
....|..|--- .... ....|--- .... ....|--- .... ....
....|..|R-- .... ....|--- .... ....|--- .... ....
....|..|F#6 2F.F ....|--- .... ....|--- .... ....
....|..|R-- .... ....|--- .... ....|--- .... ....
....|..|F-6 2F.F ....|--- .... ....|--- .... ....
....|..|D#6 2F.F ....|--- .... ....|--- .... ....
....|..|F#6 2F.A ....|--- .... ....|--- .... ....
....|..|C#6 2F.F ....|--- .... ....|--- .... ....
....|..|A#5 2F.F ....|--- .... ....|--- .... ....
....|..|D#6 2F.A ....|--- .... ....|--- .... ....
....|..|F#5 2F.F ....|--- .... ....|--- .... ....
....|..|F-5 2F.F ....|--- .... ....|--- .... ....
....|..|F-6 2F.7 ....|--- .... ....|--- .... ....
....|..|D#5 2F.F ....|--- .... ....|--- .... ....
....|..|C#5 2F.F ....|--- .... ....|--- .... ....
....|..|C#6 2F.7 ....|--- .... ....|--- .... ....
....|..|A#5 2F.7 ....|--- .... ....|--- .... ....
....|..|D#5 2F.A ....|--- .... ....|--- .... ....
....|..|F#5 2F.7 ....|--- .... ....|--- .... ....
....|..|F-5 2F.7 ....|--- .... ....|--- .... ....
....|..|R-- .... ....|--- .... ....|--- .... ....
....|..|D#5 2F.7 ....|--- .... ....|--- .... ....
....|..|C#5 2F.7 ....|--- .... ....|--- .... ....
....|..|--- .... ....|--- .... ....|--- .... ....
....|..|--- .... ....|--- .... ....|--- .... ....
....|..|--- .... ....|--- .... ....|--- .... ....
....|..|--- .... ....|--- .... ....|--- .... ....
....|..|--- .... ....|--- .... ....|--- .... ....
....|..|--- .... ....|--- .... ....|--- .... ....
....|..|--- .... ....|--- .... ....|--- .... ....
....|..|--- .... ....|--- .... ....|--- .... ....
....|..|--- .... ....|--- .... ....|--- .... ....
....|..|--- .... ....|--- .... ....|--- .... ....
....|..|--- .... ....|--- .... ....|--- .... ....
....|..|--- .... ....|--- .... ....|--- .... ....
....|..|--- .... ....|--- .... ....|--- .... ....
....|..|--- .... ....|--- .... ....|--- .... ....
....|..|R-- .... ....|--- .... ....|--- .... ....
....|..|D#5 2F.F ....|--- .... ....|--- .... ....
....|..|--- .... ....|--- .... ....|--- .... ....
....|..|--- .... ....|--- .... ....|--- .... ....
....|..|C#5 2F.F ....|--- .... ....|--- .... ....
....|..|D#5 2F.A ....|--- .... ....|--- .... ....
....|..|R-- .... ....|--- .... ....|--- .... ....
....|..|D#5 2F.F ....|--- .... ....|--- .... ....
....|..|C#5 2F.A ....|--- .... ....|--- .... ....
....|..|D#5 2F.7 ....|--- .... ....|--- .... ....
....|..|C#5 2F.F ....|--- .... ....|--- .... ....
....|..|D#5 2F.A ....|--- .... ....|--- .... ....
....|..|C#5 2F.7 ....|--- .... ....|--- .... ....
....|..|F#5 2F.F ....|--- .... ....|--- .... ....
....|..|C#5 2F.A ....|--- .... ....|--- .... ....
....|..|D#5 2F.7 ....|--- .... ....|--- .... ....
....|..|F-5 2F.F ....|--- .... ....|--- .... ....
....|..|F#5 2F.A ....|--- .... ....|--- .... ....
....|..|C#5 2F.7 ....|--- .... ....|--- .... ....
....|..|F#5 2F.F ....|--- .... ....|--- .... ....
....|..|F-5 2F.A ....|--- .... ....|--- .... ....
....|..|F#5 2F.7 ....|--- .... ....|--- .... ....
....|..|F-5 2F.F ....|--- .... ....|--- .... ....
....|..|F#5 2F.A ....|--- .... ....|--- .... ....
....|..|F-5 2F.7 ....|--- .... ....|--- .... ....

[Pattern32]
....|..|D#5 2F.F ....|--- .... ....|--- .... ....
....|..|F-5 2F.A ....|--- .... ....|--- .... ....
....|..|F#5 2F.7 ....|--- .... ....|--- .... ....
....|..|F-5 2F.F ....|--- .... ....|--- .... ....
....|..|D#5 2F.A ....|--- .... ....|--- .... ....
....|..|F-5 2F.7 ....|--- .... ....|--- .... ....
....|..|C#5 2F.F ....|--- .... ....|--- .... ....
....|..|F-5 2F.A ....|--- .... ....|--- .... ....
....|..|D#5 2F.7 ....|--- .... ....|--- .... ....
....|..|D#5 2F.F ....|--- .... ....|--- .... ....
....|..|C#5 2F.A ....|--- .... ....|--- .... ....
....|..|F-5 2F.7 ....|--- .... ....|--- .... ....
....|..|F-5 2F.F ....|--- .... ....|--- .... ....
....|..|D#5 2F.A ....|--- .... ....|--- .... ....
....|..|C#5 2F.7 ....|--- .... ....|--- .... ....
....|..|C#5 2F.F ....|--- .... ....|--- .... ....
....|..|F-5 2F.A ....|--- .... ....|--- .... ....
....|..|D#5 2F.7 ....|--- .... ....|--- .... ....
....|..|D#5 2F.F ....|--- .... ....|--- .... ....
....|..|C#5 2F.A ....|--- .... ....|--- .... ....
....|..|F-5 2F.7 ....|--- .... ....|--- .... ....
....|..|F-5 2F.F ....|--- .... ....|--- .... ....
....|..|D#5 2F.A ....|--- .... ....|--- .... ....
....|..|C#5 2F.7 ....|--- .... ....|--- .... ....
....|..|D#6 2F.F ....|--- .... ....|--- .... ....
....|..|F-5 2F.A ....|--- .... ....|--- .... ....
....|..|D#5 2F.7 ....|--- .... ....|--- .... ....
....|..|F-5 2F.F ....|--- .... ....|--- .... ....
....|..|D#6 2F.A ....|--- .... ....|--- .... ....
....|..|F-5 2F.7 ....|--- .... ....|--- .... ....
....|..|G#6 2F.F ....|--- .... ....|--- .... ....
....|..|F-5 2F.A ....|--- .... ....|--- .... ....
....|..|D#6 2F.7 ....|--- .... ....|--- .... ....
....|..|D#5 2F.F ....|--- .... ....|--- .... ....
....|..|G#6 2F.A ....|--- .... ....|--- .... ....
....|..|F-5 2F.7 ....|--- .... ....|--- .... ....
....|..|G#5 2F.F ....|--- .... ....|--- .... ....
....|..|D#5 2F.A ....|--- .... ....|--- .... ....
....|..|G#6 2F.7 ....|--- .... ....|--- .... ....
....|..|G#6 2F.F ....|--- .... ....|--- .... ....
....|..|G#5 2F.A ....|--- .... ....|--- .... ....
....|..|D#5 2F.7 ....|--- .... ....|--- .... ....
....|..|D#5 2F.F ....|--- .... ....|--- .... ....
....|..|G#6 2F.A ....|--- .... ....|--- .... ....
....|..|G#5 2F.7 ....|--- .... ....|--- .... ....
....|..|F-5 2F.F ....|--- .... ....|--- .... ....
....|..|D#5 2F.A ....|--- .... ....|--- .... ....
....|..|G#6 2F.7 ....|--- .... ....|--- .... ....
....|..|F-6 2F.F ....|--- .... ....|--- .... ....
....|..|F-5 2F.A ....|--- .... ....|--- .... ....
....|..|D#5 2F.7 ....|--- .... ....|--- .... ....
....|..|F-5 2F.F ....|--- .... ....|--- .... ....
....|..|F-6 2F.A ....|--- .... ....|--- .... ....
....|..|F-5 2F.7 ....|--- .... ....|--- .... ....
....|..|C#5 2F.F ....|--- .... ....|--- .... ....
....|..|F-5 2F.A ....|--- .... ....|--- .... ....
....|..|F-6 2F.7 ....|--- .... ....|--- .... ....
....|..|D#5 2F.F ....|--- .... ....|--- .... ....
....|..|C#5 2F.A ....|--- .... ....|--- .... ....
....|..|F-5 2F.7 ....|--- .... ....|--- .... ....
....|..|F-5 2F.F ....|--- .... ....|--- .... ....
....|..|D#5 2F.A ....|--- .... ....|--- .... ....
....|..|C#5 2F.7 ....|--- .... ....|--- .... ....
....|..|G#5 2F.F ....|--- .... ....|--- .... ....
....|..|F-5 2F.A ....|--- .... ....|--- .... ....
....|..|D#5 2F.7 ....|--- .... ....|--- .... ....
....|..|F-5 2F.F ....|--- .... ....|--- .... ....
....|..|G#5 2F.A ....|--- .... ....|--- .... ....
....|..|F-5 2F.7 ....|--- .... ....|--- .... ....
....|..|D#5 2F.F ....|--- .... ....|--- .... ....
....|..|F-5 2F.A ....|--- .... ....|--- .... ....
....|..|G#5 2F.7 ....|--- .... ....|--- .... ....
....|..|F-5 2F.F ....|--- .... ....|--- .... ....
....|..|D#5 2F.A ....|--- .... ....|--- .... ....
....|..|F-5 2F.7 ....|--- .... ....|--- .... ....
....|..|G#5 2F.F ....|--- .... ....|--- .... ....
....|..|F-5 2F.A ....|--- .... ....|--- .... ....
....|..|D#5 2F.7 ....|--- .... ....|--- .... ....
....|..|D#5 2F.F ....|--- .... ....|--- .... ....
....|..|G#5 2F.A ....|--- .... ....|--- .... ....
....|..|F-5 2F.7 ....|--- .... ....|--- .... ....
....|..|F-5 2F.F ....|--- .... ....|--- .... ....
....|..|D#5 2F.A ....|--- .... ....|--- .... ....
....|..|G#5 2F.7 ....|--- .... ....|--- .... ....
....|..|G#5 2F.F ....|--- .... ....|--- .... ....
....|..|F-5 2F.A ....|--- .... ....|--- .... ....
....|..|D#5 2F.7 ....|--- .... ....|--- .... ....
....|..|D#5 2F.F ....|--- .... ....|--- .... ....
....|..|G#5 2F.A ....|--- .... ....|--- .... ....
....|..|F-5 2F.7 ....|--- .... ....|--- .... ....
....|..|F-5 2F.F ....|--- .... ....|--- .... ....
....|..|D#5 2F.A ....|--- .... ....|--- .... ....
....|..|G#5 2F.7 ....|--- .... ....|--- .... ....
....|..|G#5 2F.F ....|--- .... ....|--- .... ....
....|..|F-5 2F.A ....|--- .... ....|--- .... ....
....|..|D#5 2F.7 ....|--- .... ....|--- .... ....

[Pattern33]
....|..|D#5 2F.F ....|--- .... ....|--- .... ....
....|..|G#5 2F.A ....|--- .... ....|--- .... ....
....|..|F-5 2F.7 ....|--- .... ....|--- .... ....
....|..|F-5 2F.F ....|--- .... ....|--- .... ....
....|..|D#5 2F.A ....|--- .... ....|--- .... ....
....|..|G#5 2F.7 ....|--- .... ....|--- .... ....
....|..|C#5 2F.F ....|--- .... ....|--- .... ....
....|..|F-5 2F.A ....|--- .... ....|--- .... ....
....|..|D#5 2F.7 ....|--- .... ....|--- .... ....
....|..|D#5 2F.F ....|--- .... ....|--- .... ....
....|..|C#5 2F.A ....|--- .... ....|--- .... ....
....|..|F-5 2F.7 ....|--- .... ....|--- .... ....
....|..|F-5 2F.F ....|--- .... ....|--- .... ....
....|..|D#5 2F.A ....|--- .... ....|--- .... ....
....|..|C#5 2F.7 ....|--- .... ....|--- .... ....
....|..|C#5 2F.F ....|--- .... ....|--- .... ....
....|..|F-5 2F.A ....|--- .... ....|--- .... ....
....|..|D#5 2F.7 ....|--- .... ....|--- .... ....
....|..|D#5 2F.F ....|--- .... ....|--- .... ....
....|..|C#5 2F.A ....|--- .... ....|--- .... ....
....|..|F-5 2F.7 ....|--- .... ....|--- .... ....
....|..|F-5 2F.F ....|--- .... ....|--- .... ....
....|..|D#5 2F.A ....|--- .... ....|--- .... ....
....|..|C#5 2F.7 ....|--- .... ....|--- .... ....
....|..|D#5 2F.F ....|--- .... ....|--- .... ....
....|..|F-5 2F.A ....|--- .... ....|--- .... ....
....|..|D#5 2F.7 ....|--- .... ....|--- .... ....
....|..|F-5 2F.F ....|--- .... ....|--- .... ....
....|..|D#5 2F.A ....|--- .... ....|--- .... ....
....|..|F-5 2F.7 ....|--- .... ....|--- .... ....
....|..|C#5 2F.F ....|--- .... ....|--- .... ....
....|..|F-5 2F.A ....|--- .... ....|--- .... ....
....|..|D#5 2F.7 ....|--- .... ....|--- .... ....
....|..|D#5 2F.F ....|--- .... ....|--- .... ....
....|..|C#5 2F.A ....|--- .... ....|--- .... ....
....|..|F-5 2F.7 ....|--- .... ....|--- .... ....
....|..|F-5 2F.F ....|--- .... ....|--- .... ....
....|..|D#5 2F.A ....|--- .... ....|--- .... ....
....|..|C#5 2F.7 ....|--- .... ....|--- .... ....
....|..|G#5 2F.F ....|--- .... ....|--- .... ....
....|..|F-5 2F.A ....|--- .... ....|--- .... ....
....|..|D#5 2F.7 ....|--- .... ....|--- .... ....
....|..|F-5 2F.F ....|--- .... ....|--- .... ....
....|..|G#5 2F.A ....|--- .... ....|--- .... ....
....|..|F-5 2F.7 ....|--- .... ....|--- .... ....
....|..|D#5 2F.F ....|--- .... ....|--- .... ....
....|..|F-5 2F.A ....|--- .... ....|--- .... ....
....|..|G#5 2F.7 ....|--- .... ....|--- .... ....
....|..|F-5 2F.F ....|--- .... ....|--- .... ....
....|..|D#5 2F.A ....|--- .... ....|--- .... ....
....|..|F-5 2F.7 ....|--- .... ....|--- .... ....
....|..|G#5 2F.F ....|--- .... ....|--- .... ....
....|..|F-5 2F.A ....|--- .... ....|--- .... ....
....|..|D#5 2F.7 ....|--- .... ....|--- .... ....
....|..|A#5 2F.F ....|--- .... ....|--- .... ....
....|..|G#5 2F.A ....|--- .... ....|--- .... ....
....|..|F-5 2F.7 ....|--- .... ....|--- .... ....
....|..|G#5 2F.F ....|--- .... ....|--- .... ....
....|..|A#5 2F.A ....|--- .... ....|--- .... ....
....|..|G#5 2F.7 ....|--- .... ....|--- .... ....
....|..|A#5 2F.F ....|--- .... ....|--- .... ....
....|..|G#5 2F.A ....|--- .... ....|--- .... ....
....|..|A#5 2F.7 ....|--- .... ....|--- .... ....
....|..|G#5 2F.F ....|--- .... ....|--- .... ....
....|..|A#5 2F.A ....|--- .... ....|--- .... ....
....|..|G#5 2F.7 ....|--- .... ....|--- .... ....
....|..|F-5 2F.F ....|--- .... ....|--- .... ....
....|..|G#5 2F.A ....|--- .... ....|--- .... ....
....|..|A#5 2F.7 ....|--- .... ....|--- .... ....
....|..|D#5 2F.F ....|--- .... ....|--- .... ....
....|..|F-5 2F.A ....|--- .... ....|--- .... ....
....|..|G#5 2F.7 ....|--- .... ....|--- .... ....
....|..|F-5 2F.F ....|--- .... ....|--- .... ....
....|..|D#5 2F.A ....|--- .... ....|--- .... ....
....|..|F-5 2F.7 ....|--- .... ....|--- .... ....
....|..|G#5 2F.F ....|--- .... ....|--- .... ....
....|..|F-5 2F.A ....|--- .... ....|--- .... ....
....|..|D#5 2F.7 ....|--- .... ....|--- .... ....
....|..|D#5 2F.F ....|--- .... ....|--- .... ....
....|..|G#5 2F.A ....|--- .... ....|--- .... ....
....|..|F-5 2F.7 ....|--- .... ....|--- .... ....
....|..|F-5 2F.F ....|--- .... ....|--- .... ....
....|..|D#5 2F.A ....|--- .... ....|--- .... ....
....|..|G#5 2F.7 ....|--- .... ....|--- .... ....
....|..|C#5 2F.F ....|--- .... ....|--- .... ....
....|..|F-5 2F.A ....|--- .... ....|--- .... ....
....|..|D#5 2F.7 ....|--- .... ....|--- .... ....
....|..|F-5 2F.F ....|--- .... ....|--- .... ....
....|..|C#5 2F.A ....|--- .... ....|--- .... ....
....|..|F-5 2F.7 ....|--- .... ....|--- .... ....
....|..|D#5 2F.F ....|--- .... ....|--- .... ....
....|..|F-5 2F.A ....|--- .... ....|--- .... ....
....|..|C#5 2F.7 ....|--- .... ....|--- .... ....
....|..|A#5 2F.F ....|--- .... ....|--- .... ....
....|..|D#5 2F.A ....|--- .... ....|--- .... ....
....|..|F-5 2F.7 ....|--- .... ....|--- .... ....

[Pattern34]
....|..|D#5 2F.F ....|--- .... ....|--- .... ....
....|..|A#5 2F.A ....|--- .... ....|--- .... ....
....|..|D#5 2F.7 ....|--- .... ....|--- .... ....
....|..|F-5 2F.F ....|--- .... ....|--- .... ....
....|..|D#5 2F.A ....|--- .... ....|--- .... ....
....|..|A#5 2F.7 ....|--- .... ....|--- .... ....
....|..|C#5 2F.F ....|--- .... ....|--- .... ....
....|..|F-5 2F.A ....|--- .... ....|--- .... ....
....|..|D#5 2F.7 ....|--- .... ....|--- .... ....
....|..|D#5 2F.F ....|--- .... ....|--- .... ....
....|..|C#5 2F.A ....|--- .... ....|--- .... ....
....|..|F-5 2F.7 ....|--- .... ....|--- .... ....
....|..|F-5 2F.F ....|--- .... ....|--- .... ....
....|..|D#5 2F.A ....|--- .... ....|--- .... ....
....|..|C#5 2F.7 ....|--- .... ....|--- .... ....
....|..|C#5 2F.F ....|--- .... ....|--- .... ....
....|..|F-5 2F.A ....|--- .... ....|--- .... ....
....|..|D#5 2F.7 ....|--- .... ....|--- .... ....
....|..|D#5 2F.F ....|--- .... ....|--- .... ....
....|..|C#5 2F.A ....|--- .... ....|--- .... ....
....|..|F-5 2F.7 ....|--- .... ....|--- .... ....
....|..|F-5 2F.F ....|--- .... ....|--- .... ....
....|..|D#5 2F.A ....|--- .... ....|--- .... ....
....|..|C#5 2F.7 ....|--- .... ....|--- .... ....
....|..|D#5 2F.F ....|--- .... ....|--- .... ....
....|..|F-5 2F.A ....|--- .... ....|--- .... ....
....|..|D#5 2F.7 ....|--- .... ....|--- .... ....
....|..|F-5 2F.F ....|--- .... ....|--- .... ....
....|..|D#5 2F.A ....|--- .... ....|--- .... ....
....|..|F-5 2F.7 ....|--- .... ....|--- .... ....
....|..|C#5 2F.F ....|--- .... ....|--- .... ....
....|..|F-5 2F.A ....|--- .... ....|--- .... ....
....|..|D#5 2F.7 ....|--- .... ....|--- .... ....
....|..|D#5 2F.F ....|--- .... ....|--- .... ....
....|..|C#5 2F.A ....|--- .... ....|--- .... ....
....|..|F-5 2F.7 ....|--- .... ....|--- .... ....
....|..|F-5 2F.F ....|--- .... ....|--- .... ....
....|..|D#5 2F.A ....|--- .... ....|--- .... ....
....|..|C#5 2F.7 ....|--- .... ....|--- .... ....
....|..|G#5 2F.F ....|--- .... ....|--- .... ....
....|..|F-5 2F.A ....|--- .... ....|--- .... ....
....|..|D#5 2F.7 ....|--- .... ....|--- .... ....
....|..|F-5 2F.F ....|--- .... ....|--- .... ....
....|..|G#5 2F.A ....|--- .... ....|--- .... ....
....|..|F-5 2F.7 ....|--- .... ....|--- .... ....
....|..|D#5 2F.F ....|--- .... ....|--- .... ....
....|..|F-5 2F.A ....|--- .... ....|--- .... ....
....|..|G#5 2F.7 ....|--- .... ....|--- .... ....
....|..|F-5 2F.F ....|--- .... ....|--- .... ....
....|..|D#5 2F.A ....|--- .... ....|--- .... ....
....|..|F-5 2F.7 ....|--- .... ....|--- .... ....
....|..|G#5 2F.F ....|--- .... ....|--- .... ....
....|..|F-5 2F.A ....|--- .... ....|--- .... ....
....|..|D#5 2F.7 ....|--- .... ....|--- .... ....
....|..|A#5 2F.F ....|--- .... ....|--- .... ....
....|..|G#5 2F.A ....|--- .... ....|--- .... ....
....|..|F-5 2F.7 ....|--- .... ....|--- .... ....
....|..|G#5 2F.F ....|--- .... ....|--- .... ....
....|..|A#5 2F.A ....|--- .... ....|--- .... ....
....|..|G#5 2F.7 ....|--- .... ....|--- .... ....
....|..|A#5 2F.F ....|--- .... ....|--- .... ....
....|..|G#5 2F.A ....|--- .... ....|--- .... ....
....|..|A#5 2F.7 ....|--- .... ....|--- .... ....
....|..|G#5 2F.F ....|--- .... ....|--- .... ....
....|..|A#5 2F.A ....|--- .... ....|--- .... ....
....|..|G#5 2F.7 ....|--- .... ....|--- .... ....
....|..|F-5 2F.F ....|--- .... ....|--- .... ....
....|..|G#5 2F.A ....|--- .... ....|--- .... ....
....|..|A#5 2F.7 ....|--- .... ....|--- .... ....
....|..|D#5 2F.F ....|--- .... ....|--- .... ....
....|..|F-5 2F.A ....|--- .... ....|--- .... ....
....|..|G#5 2F.7 ....|--- .... ....|--- .... ....
....|..|F-5 2F.F ....|--- .... ....|--- .... ....
....|..|D#5 2F.A ....|--- .... ....|--- .... ....
....|..|F-5 2F.7 ....|--- .... ....|--- .... ....
....|..|G#5 2F.F ....|--- .... ....|--- .... ....
....|..|F-5 2F.A ....|--- .... ....|--- .... ....
....|..|D#5 2F.7 ....|--- .... ....|--- .... ....
....|..|D#5 2F.F ....|--- .... ....|--- .... ....
....|..|G#5 2F.A ....|--- .... ....|--- .... ....
....|..|F-5 2F.7 ....|--- .... ....|--- .... ....
....|..|F-5 2F.F ....|--- .... ....|--- .... ....
....|..|D#5 2F.A ....|--- .... ....|--- .... ....
....|..|G#5 2F.7 ....|--- .... ....|--- .... ....
....|..|C#5 2F.F ....|--- .... ....|--- .... ....
....|..|F-5 2F.A ....|--- .... ....|--- .... ....
....|..|D#5 2F.7 ....|--- .... ....|--- .... ....
....|..|F-5 2F.F ....|--- .... ....|--- .... ....
....|..|C#5 2F.A ....|--- .... ....|--- .... ....
....|..|F-5 2F.7 ....|--- .... ....|--- .... ....
....|..|D#5 2F.F ....|--- .... ....|--- .... ....
....|..|F-5 2F.A ....|--- .... ....|--- .... ....
....|..|C#5 2F.7 ....|--- .... ....|--- .... ....
....|..|R-- .... ....|--- .... ....|--- .... ....
....|..|A#5 2F.F ....|--- .... ....|--- .... ....
....|..|F-5 2F.7 ....|--- .... ....|--- .... ....

[Pattern35]
....|..|D#5 2F.F ....|--- .... ....|--- .... ....
....|..|R-- .... ....|--- .... ....|--- .... ....
....|..|D#5 2F.7 ....|--- .... ....|--- .... ....
....|..|F-5 2F.F ....|--- .... ....|--- .... ....
....|..|D#5 2F.A ....|--- .... ....|--- .... ....
....|..|R-- .... ....|--- .... ....|--- .... ....
....|..|C#5 2F.F ....|--- .... ....|--- .... ....
....|..|F-5 2F.A ....|--- .... ....|--- .... ....
....|..|D#5 2F.7 ....|--- .... ....|--- .... ....
....|..|D#5 2F.F ....|--- .... ....|--- .... ....
....|..|C#5 2F.A ....|--- .... ....|--- .... ....
....|..|F-5 2F.7 ....|--- .... ....|--- .... ....
....|..|F-5 2F.F ....|--- .... ....|--- .... ....
....|..|D#5 2F.A ....|--- .... ....|--- .... ....
....|..|C#5 2F.7 ....|--- .... ....|--- .... ....
....|..|C#5 2F.F ....|--- .... ....|--- .... ....
....|..|F-5 2F.A ....|--- .... ....|--- .... ....
....|..|D#5 2F.7 ....|--- .... ....|--- .... ....
....|..|D#5 2F.F ....|--- .... ....|--- .... ....
....|..|C#5 2F.A ....|--- .... ....|--- .... ....
....|..|F-5 2F.7 ....|--- .... ....|--- .... ....
....|..|F-5 2F.F ....|--- .... ....|--- .... ....
....|..|D#5 2F.A ....|--- .... ....|--- .... ....
....|..|C#5 2F.7 ....|--- .... ....|--- .... ....
....|..|D#5 2F.F ....|--- .... ....|--- .... ....
....|..|F-5 2F.A ....|--- .... ....|--- .... ....
....|..|D#5 2F.7 ....|--- .... ....|--- .... ....
....|..|F-5 2F.F ....|--- .... ....|--- .... ....
....|..|D#5 2F.A ....|--- .... ....|--- .... ....
....|..|F-5 2F.7 ....|--- .... ....|--- .... ....
....|..|C#5 2F.F ....|--- .... ....|--- .... ....
....|..|F-5 2F.A ....|--- .... ....|--- .... ....
....|..|D#5 2F.7 ....|--- .... ....|--- .... ....
....|..|D#5 2F.F ....|--- .... ....|--- .... ....
....|..|C#5 2F.A ....|--- .... ....|--- .... ....
....|..|F-5 2F.7 ....|--- .... ....|--- .... ....
....|..|F-5 2F.F ....|--- .... ....|--- .... ....
....|..|D#5 2F.A ....|--- .... ....|--- .... ....
....|..|C#5 2F.7 ....|--- .... ....|--- .... ....
....|..|C#5 2F.F ....|--- .... ....|--- .... ....
....|..|F-5 2F.A ....|--- .... ....|--- .... ....
....|..|D#5 2F.7 ....|--- .... ....|--- .... ....
....|..|D#5 2F.F ....|--- .... ....|--- .... ....
....|..|C#5 2F.A ....|--- .... ....|--- .... ....
....|..|F-5 2F.7 ....|--- .... ....|--- .... ....
....|..|F-5 2F.F ....|--- .... ....|--- .... ....
....|..|D#5 2F.A ....|--- .... ....|--- .... ....
....|..|C#5 2F.7 ....|--- .... ....|--- .... ....
....|..|D#5 2F.F ....|--- .... ....|--- .... ....
....|..|F-5 2F.A ....|--- .... ....|--- .... ....
....|..|D#5 2F.7 ....|--- .... ....|--- .... ....
....|..|F-5 2F.F ....|--- .... ....|--- .... ....
....|..|D#5 2F.A ....|--- .... ....|--- .... ....
....|..|F-5 2F.7 ....|--- .... ....|--- .... ....
....|..|C#5 2F.F ....|--- .... ....|--- .... ....
....|..|F-5 2F.A ....|--- .... ....|--- .... ....
....|..|D#5 2F.7 ....|--- .... ....|--- .... ....
....|..|D#5 2F.F ....|--- .... ....|--- .... ....
....|..|C#5 2F.A ....|--- .... ....|--- .... ....
....|..|F-5 2F.7 ....|--- .... ....|--- .... ....
....|..|F-5 2F.F ....|--- .... ....|--- .... ....
....|..|D#5 2F.A ....|--- .... ....|--- .... ....
....|..|C#5 2F.7 ....|--- .... ....|--- .... ....
....|..|G#5 2F.F ....|--- .... ....|--- .... ....
....|..|F-5 2F.A ....|--- .... ....|--- .... ....
....|..|D#5 2F.7 ....|--- .... ....|--- .... ....
....|..|F-5 2F.F ....|--- .... ....|--- .... ....
....|..|G#5 2F.A ....|--- .... ....|--- .... ....
....|..|F-5 2F.7 ....|--- .... ....|--- .... ....
....|..|D#5 2F.F ....|--- .... ....|--- .... ....
....|..|F-5 2F.A ....|--- .... ....|--- .... ....
....|..|G#5 2F.7 ....|--- .... ....|--- .... ....
....|..|F-5 2F.F ....|--- .... ....|--- .... ....
....|..|D#5 2F.A ....|--- .... ....|--- .... ....
....|..|F-5 2F.7 ....|--- .... ....|--- .... ....
....|..|G#5 2F.F ....|--- .... ....|--- .... ....
....|..|F-5 2F.A ....|--- .... ....|--- .... ....
....|..|D#5 2F.7 ....|--- .... ....|--- .... ....
....|..|D#5 2F.F ....|--- .... ....|--- .... ....
....|..|G#5 2F.A ....|--- .... ....|--- .... ....
....|..|F-5 2F.7 ....|--- .... ....|--- .... ....
....|..|F-5 2F.F ....|--- .... ....|--- .... ....
....|..|D#5 2F.A ....|--- .... ....|--- .... ....
....|..|G#5 2F.7 ....|--- .... ....|--- .... ....
....|..|G#5 2F.F ....|--- .... ....|--- .... ....
....|..|F-5 2F.A ....|--- .... ....|--- .... ....
....|..|D#5 2F.7 ....|--- .... ....|--- .... ....
....|..|D#5 2F.F ....|--- .... ....|--- .... ....
....|..|G#5 2F.A ....|--- .... ....|--- .... ....
....|..|F-5 2F.7 ....|--- .... ....|--- .... ....
....|..|F-5 2F.F ....|--- .... ....|--- .... ....
....|..|D#5 2F.A ....|--- .... ....|--- .... ....
....|..|G#5 2F.7 ....|--- .... ....|--- .... ....
....|..|G#5 2F.F ....|--- .... ....|--- .... ....
....|..|F-5 2F.A ....|--- .... ....|--- .... ....
....|..|D#5 2F.7 ....|--- .... ....|--- .... ....

[Pattern36]
....|..|C#6 2F.F ....|--- .... ....|--- .... ....
....|..|G#5 2F.A ....|--- .... ....|--- .... ....
....|..|F-5 2F.7 ....|--- .... ....|--- .... ....
....|..|D#6 2F.F ....|--- .... ....|--- .... ....
....|..|C#6 2F.A ....|--- .... ....|--- .... ....
....|..|G#5 2F.7 ....|--- .... ....|--- .... ....
....|..|--- .... ....|--- .... ....|--- .... ....
....|..|D#6 2F.A ....|--- .... ....|--- .... ....
....|..|C#6 2F.7 ....|--- .... ....|--- .... ....
....|..|C#6 2F.F ....|--- .... ....|--- .... ....
....|..|--- .... ....|--- .... ....|--- .... ....
....|..|D#6 2F.7 ....|--- .... ....|--- .... ....
....|..|D#6 2F.F ....|--- .... ....|--- .... ....
....|..|C#6 2F.A ....|--- .... ....|--- .... ....
....|..|--- .... ....|--- .... ....|--- .... ....
....|..|--- .... ....|--- .... ....|--- .... ....
....|..|D#6 2F.A ....|--- .... ....|--- .... ....
....|..|C#6 2F.7 ....|--- .... ....|--- .... ....
....|..|G#6 2F.F ....|--- .... ....|--- .... ....
....|..|--- .... ....|--- .... ....|--- .... ....
....|..|D#6 2F.7 ....|--- .... ....|--- .... ....
....|..|--- .... ....|--- .... ....|--- .... ....
....|..|G#6 2F.A ....|--- .... ....|--- .... ....
....|..|--- .... ....|--- .... ....|--- .... ....
....|..|--- .... ....|--- .... ....|--- .... ....
....|..|--- .... ....|--- .... ....|--- .... ....
....|..|G#6 2F.7 ....|--- .... ....|--- .... ....
....|..|--- .... ....|--- .... ....|--- .... ....
....|..|--- .... ....|--- .... ....|--- .... ....
....|..|--- .... ....|--- .... ....|--- .... ....
....|..|--- .... ....|--- .... ....|--- .... ....
....|..|--- .... ....|--- .... ....|--- .... ....
....|..|--- .... ....|--- .... ....|--- .... ....
....|..|--- .... ....|--- .... ....|--- .... ....
....|..|--- .... ....|--- .... ....|--- .... ....
....|..|R-- .... ....|--- .... ....|--- .... ....
....|..|F#6 2F.F ....|--- .... ....|--- .... ....
....|..|R-- .... ....|--- .... ....|--- .... ....
....|..|F-6 2F.F ....|--- .... ....|--- .... ....
....|..|D#6 2F.F ....|--- .... ....|--- .... ....
....|..|F#6 2F.A ....|--- .... ....|--- .... ....
....|..|C#6 2F.F ....|--- .... ....|--- .... ....
....|..|A#5 2F.F ....|--- .... ....|--- .... ....
....|..|D#6 2F.A ....|--- .... ....|--- .... ....
....|..|F#5 2F.F ....|--- .... ....|--- .... ....
....|..|F-5 2F.F ....|--- .... ....|--- .... ....
....|..|F-6 2F.7 ....|--- .... ....|--- .... ....
....|..|D#5 2F.F ....|--- .... ....|--- .... ....
....|..|C#5 2F.F ....|--- .... ....|--- .... ....
....|..|C#6 2F.7 ....|--- .... ....|--- .... ....
....|..|A#5 2F.7 ....|--- .... ....|--- .... ....
....|..|D#5 2F.A ....|--- .... ....|--- .... ....
....|..|F#5 2F.7 ....|--- .... ....|--- .... ....
....|..|F-5 2F.7 ....|--- .... ....|--- .... ....
....|..|R-- .... ....|--- .... ....|--- .... ....
....|..|D#5 2F.7 ....|--- .... ....|--- .... ....
....|..|C#5 2F.7 ....|--- .... ....|--- .... ....
....|..|--- .... ....|--- .... ....|--- .... ....
....|..|--- .... ....|--- .... ....|--- .... ....
....|..|--- .... ....|--- .... ....|--- .... ....
....|..|--- .... ....|--- .... ....|--- .... ....
....|..|--- .... ....|--- .... ....|--- .... ....
....|..|--- .... ....|--- .... ....|--- .... ....
....|..|--- .... ....|--- .... ....|--- .... ....
....|..|--- .... ....|--- .... ....|--- .... ....
....|..|--- .... ....|--- .... ....|--- .... ....
....|..|--- .... ....|--- .... ....|--- .... ....
....|..|--- .... ....|--- .... ....|--- .... ....
....|..|--- .... ....|--- .... ....|--- .... ....
....|..|--- .... ....|--- .... ....|--- .... ....
....|..|--- .... ....|--- .... ....|--- .... ....
....|..|--- .... ....|--- .... ....|--- .... ....
....|..|D#5 2F.F ....|--- .... ....|--- .... ....
....|..|--- .... ....|--- .... ....|--- .... ....
....|..|R-- .... ....|--- .... ....|--- .... ....
....|..|C#5 2F.F ....|--- .... ....|--- .... ....
....|..|D#5 2F.A ....|--- .... ....|--- .... ....
....|..|--- .... ....|--- .... ....|--- .... ....
....|..|D#5 2F.F ....|--- .... ....|--- .... ....
....|..|C#5 2F.A ....|--- .... ....|--- .... ....
....|..|D#5 2F.7 ....|--- .... ....|--- .... ....
....|..|C#5 2F.F ....|--- .... ....|--- .... ....
....|..|D#5 2F.A ....|--- .... ....|--- .... ....
....|..|C#5 2F.7 ....|--- .... ....|--- .... ....
....|..|F#5 2F.F ....|--- .... ....|--- .... ....
....|..|C#5 2F.A ....|--- .... ....|--- .... ....
....|..|D#5 2F.7 ....|--- .... ....|--- .... ....
....|..|F-5 2F.F ....|--- .... ....|--- .... ....
....|..|F#5 2F.A ....|--- .... ....|--- .... ....
....|..|C#5 2F.7 ....|--- .... ....|--- .... ....
....|..|F#5 2F.F ....|--- .... ....|--- .... ....
....|..|F-5 2F.A ....|--- .... ....|--- .... ....
....|..|F#5 2F.7 ....|--- .... ....|--- .... ....
....|..|F-5 2F.F ....|--- .... ....|--- .... ....
....|..|F#5 2F.A ....|--- .... ....|--- .... ....
....|..|F-5 2F.7 ....|--- .... ....|--- .... ....

[Pattern37]
....|..|--- .... ....|--- .... ....|--- .... ....
....|..|F-5 2F.A ....|--- .... ....|--- .... ....
....|..|F#5 2F.7 ....|--- .... ....|--- .... ....
....|..|R-- .... ....|--- .... ....|--- .... ....
....|..|--- .... ....|--- .... ....|--- .... ....
....|..|F-5 2F.7 ....|--- .... ....|--- .... ....
....|..|--- .... ....|--- .... ....|--- .... ....

